<?xml version="1.0" encoding="utf-8"?>
<!-- Generator: Adobe Illustrator 23.1.0, SVG Export Plug-In . SVG Version: 6.00 Build 0)  -->
<svg version="1.1" id="Ebene_1" xmlns="http://www.w3.org/2000/svg" xmlns:xlink="http://www.w3.org/1999/xlink" x="0px" y="0px"
	 viewBox="0 0 1920 2067" style="enable-background:new 0 0 1920 2067;" xml:space="preserve">
<style type="text/css">
	.st0{opacity:0.3;fill:none;stroke:#3399FF;stroke-width:0.8504;stroke-miterlimit:10;enable-background:new    ;}
</style>
<path class="st0" d="M26.6,711.8"/>
<polyline class="st0" points="-89.6,762.3 192.1,525.1 30.9,553.8 "/>
<polygon class="st0" points="-89.6,762.3 285.8,599.1 30.9,553.8 "/>
<polyline class="st0" points="86.3,1035.7 150.9,1215.1 332.7,975.3 121.8,879.7 65.2,969.6 "/>
<polygon class="st0" points="65.2,969.9 86.3,1035.7 332.7,975.3 "/>
<polyline class="st0" points="-34.6,1401.1 -27.9,1280.2 98.1,1243.3 -34.6,1401.1 "/>
<polyline class="st0" points="168.2,1076.1 -73.4,1089.2 -80,1210.1 168.3,1075.8 "/>
<polygon class="st0" points="5.1,863.8 -33.1,921.3 168,1076 "/>
<polygon class="st0" points="41.8,1488.5 196.7,1432.8 100.2,1195.4 "/>
<polygon class="st0" points="196.7,1432.6 193,1528.6 314.4,1519.5 "/>
<polygon class="st0" points="-119.4,746.1 -123.2,842 -1.8,833 "/>
<polyline class="st0" points="181.4,1636.5 -72.9,1721.7 -50.1,1617.9 180.7,1636.5 90.7,1923.7 -2.2,1593 "/>
<path class="st0" d="M1768.6,1230.9"/>
<polyline class="st0" points="1729.6,979 2047,1648.4 2073.9,1320.2 "/>
<polygon class="st0" points="1729.6,979 1855.1,1792.9 2073.9,1320.2 "/>
<polyline class="st0" points="1943.8,1052.9 1728.2,1320.3 2014.3,1227.2 1895.8,1028.3 1798,1069.9 "/>
<polyline class="st0" points="1797.8,1070 1777.6,1136 2014.3,1227.2 "/>
<polyline class="st0" points="2140.8,751 2236.6,825.1 2195.4,949.7 2140.8,751 "/>
<polyline class="st0" points="2293.2,1102.4 2419.6,896.1 2323.8,822.1 2293.3,1102.7 "/>
<polygon class="st0" points="2560.6,1088.8 2534.9,1024.6 2293.4,1102.3 "/>
<polygon class="st0" points="2025.5,764.1 1983.3,923.3 2233.6,978.7 "/>
<polygon class="st0" points="1983.5,923.4 1906.6,865.9 1845.1,970.9 "/>
<polygon class="st0" points="2522.5,681.4 2445.7,623.9 2384.2,728.9 "/>
<path class="st0" d="M1761.5,676.2"/>
<polyline class="st0" points="1795.1,788.7 1982.3,596.6 2009.5,699.3 1795.8,788.4 1744.3,491.9 1978.4,743.4 "/>
</svg>
