<?xml version="1.0" encoding="utf-8"?>
<!-- Generator: Adobe Illustrator 23.1.0, SVG Export Plug-In . SVG Version: 6.00 Build 0)  -->
<svg version="1.1" id="Ebene_1" xmlns="http://www.w3.org/2000/svg" xmlns:xlink="http://www.w3.org/1999/xlink" x="0px" y="0px"
	 viewBox="0 0 1920 2067" style="enable-background:new 0 0 1920 2067;" xml:space="preserve">
<style type="text/css">
	.st0{opacity:0.3;fill:none;stroke:#3399FF;stroke-width:0.8504;stroke-miterlimit:10;enable-background:new    ;}
</style>
<path class="st0" d="M26.6,711.8"/>
<polyline class="st0" points="-89.6,762.3 192.1,525.1 30.9,553.8 "/>
<polygon class="st0" points="-89.6,762.3 285.8,599.1 30.9,553.8 "/>
<polyline class="st0" points="86.3,1035.7 150.9,1215.1 332.7,975.3 121.8,879.7 65.2,969.6 "/>
<polygon class="st0" points="65.2,969.9 86.3,1035.7 332.7,975.3 "/>
<polyline class="st0" points="-34.6,1401.1 -27.9,1280.2 98.1,1243.3 -34.6,1401.1 "/>
<polyline class="st0" points="168.2,1076.1 -73.4,1089.2 -80,1210.1 168.3,1075.8 "/>
<polygon class="st0" points="5.1,863.8 -33.1,921.3 168,1076 "/>
<polygon class="st0" points="41.8,1488.5 196.7,1432.8 100.2,1195.4 "/>
<polygon class="st0" points="196.7,1432.6 193,1528.6 314.4,1519.5 "/>
<polygon class="st0" points="-119.4,746.1 -123.2,842 -1.8,833 "/>
<polyline class="st0" points="181.4,1636.5 -72.9,1721.7 -50.1,1617.9 180.7,1636.5 90.7,1923.7 -2.2,1593 "/>
<path class="st0" d="M1768.8,1459.2"/>
<polyline class="st0" points="1793.1,1334.9 1828.4,1701.4 1896.4,1552.5 "/>
<polygon class="st0" points="1793.1,1334.9 1714.3,1736.5 1896.4,1552.5 "/>
<polyline class="st0" points="1978.5,1319.6 2140.8,1016.9 1876.9,1161.4 2030.3,1334.9 2118.7,1275.9 "/>
<polygon class="st0" points="2118.8,1275.7 2126.4,1207.1 1876.9,1161.4 "/>
<polyline class="st0" points="2140.8,751 2236.6,825.1 2195.4,949.7 2140.8,751 "/>
<polyline class="st0" points="2293.2,1102.4 2419.6,896.1 2323.8,822.1 2293.3,1102.7 "/>
<polygon class="st0" points="2560.6,1088.8 2534.9,1024.6 2293.4,1102.3 "/>
<polygon class="st0" points="2025.5,764.1 1983.3,923.3 2233.6,978.7 "/>
<polygon class="st0" points="1983.5,923.4 1906.6,865.9 1845.1,970.9 "/>
<polygon class="st0" points="2522.5,681.4 2445.7,623.9 2384.2,728.9 "/>
<path class="st0" d="M1741.6,711.6"/>
<polyline class="st0" points="1824.3,795 1898.7,537.3 1971.2,615 1824.8,794.4 1639.5,557.3 1964.5,668.6 "/>
</svg>
