<?xml version="1.0" encoding="utf-8"?>
<!-- Generator: Adobe Illustrator 26.2.1, SVG Export Plug-In . SVG Version: 6.00 Build 0)  -->
<svg version="1.1" id="Ebene_1" xmlns="http://www.w3.org/2000/svg" xmlns:xlink="http://www.w3.org/1999/xlink" x="0px" y="0px"
	 viewBox="0 0 1361 936" style="enable-background:new 0 0 1361 936;" xml:space="preserve">
<style type="text/css">
	.st0{fill:none;stroke:#FFCC00;stroke-width:6;stroke-linecap:round;stroke-miterlimit:10;}
	.st1{enable-background:new    ;}
	.st2{fill:#33245E;}
	.st3{fill:none;stroke:#FF6633;stroke-width:6;stroke-linecap:round;stroke-linejoin:round;}
	.st4{fill:#E6E6E6;}
	.st5{fill:#FF6633;}
	.st6{fill:url(#SVGID_1_);stroke:#FF6633;stroke-width:6;stroke-miterlimit:10;}
	.st7{fill:url(#SVGID_00000178163120924252584640000011663995908962043822_);stroke:#FF6633;stroke-width:6;stroke-miterlimit:10;}
	.st8{fill:#FFCC00;}
	.st9{fill:#FFFFFF;stroke:#FF6633;stroke-width:6;stroke-miterlimit:10;}
	.st10{fill:none;stroke:#FF6633;stroke-width:6;stroke-miterlimit:10;}
	.st11{fill:none;stroke:#FF6633;stroke-width:6;stroke-linecap:round;stroke-miterlimit:10;}
	.st12{opacity:0.75;enable-background:new    ;}
	.st13{fill:#330066;}
	
		.st14{opacity:0.75;fill:none;stroke:#330066;stroke-width:6;stroke-linecap:round;stroke-linejoin:round;enable-background:new    ;}
	.st15{fill:#FFFFFF;}
	.st16{fill:#3399FF;}
	.st17{fill:#FFCB03;}
	.st18{fill:#FFFFFF;stroke:#FFCB03;stroke-width:6;stroke-linecap:round;stroke-linejoin:round;}
	.st19{fill:none;stroke:#FFCB03;stroke-width:6;stroke-linecap:round;stroke-linejoin:round;}
</style>
<polyline class="st0" points="1205.5,79.5 1205.5,149 1177.5,149 1177.5,79.5 "/>
<rect x="1177.5" y="288.5" class="st0" width="28" height="69.5"/>
<polyline class="st0" points="183.5,79.5 183.5,149 155.5,149 155.5,79.5 "/>
<rect x="155.5" y="288.5" class="st0" width="28" height="69.5"/>
<g class="st1">
	<path class="st2" d="M145.9,397.3v-3h2.4v-1.1c0-2,0.6-3.5,1.8-4.6c1.2-1.1,2.9-1.6,5.1-1.6c0.8,0,1.5,0.1,2.3,0.2s1.6,0.4,2.6,0.7
		l-0.6,3.4c-0.7-0.2-1.4-0.4-1.9-0.5s-1.2-0.2-2-0.2c-1,0-1.7,0.2-2.2,0.7s-0.7,1.1-0.7,2v1.1h9.6v12.8l2.3,0.4v2.6h-8.6v-2.6
		l2.1-0.4v-9.8h-5.3v9.8l2.1,0.4v2.6H146v-2.6l2.3-0.4v-9.8H145.9z"/>
	<path class="st2" d="M165.5,389.9v-2.6h6.6v19.8l2.1,0.4v2.6h-8.4v-2.6l2.1-0.4v-16.8L165.5,389.9z"/>
	<path class="st2" d="M183.1,410.5c-2.3,0-4.1-0.7-5.5-2.2s-2.1-3.3-2.1-5.6v-0.6c0-2.4,0.6-4.3,1.9-5.8s3-2.3,5.2-2.3
		c2.1,0,3.8,0.6,5,1.9s1.8,3,1.8,5.2v2.3H180l0,0.1c0.1,1,0.4,1.9,1,2.6s1.5,1,2.5,1c0.9,0,1.7-0.1,2.4-0.3c0.6-0.2,1.3-0.5,2.1-0.9
		l1.2,2.6c-0.7,0.5-1.5,1-2.5,1.3S184.4,410.5,183.1,410.5z M182.7,397.3c-0.8,0-1.4,0.3-1.9,0.9s-0.7,1.4-0.8,2.4l0,0.1h5.2v-0.4
		c0-0.9-0.2-1.6-0.6-2.2C184.2,397.6,183.6,397.3,182.7,397.3z"/>
</g>
<path class="st3" d="M230,358.4H84c-2.8,0-5,2.2-5,5v94.2c0,2.8,2.2,5,5,5h176c2.8,0,5-2.2,5-5V391"/>
<polygon class="st3" points="265,391 230,391 230,358.4 "/>
<path class="st4" d="M54,614.9h1259c5.5,0,10,4.5,10,10V892c0,5.5-4.5,10-10,10H54c-5.5,0-10-4.5-10-10V624.9
	C44,619.4,48.5,614.9,54,614.9z"/>
<g class="st1">
	<path class="st5" d="M183,667.7h-3.2l-0.6-2.9c-0.4-0.2-0.9-0.4-1.6-0.6s-1.5-0.3-2.3-0.3c-1.2,0-2.1,0.2-2.7,0.7
		c-0.6,0.5-1,1.1-1,1.9c0,0.7,0.3,1.3,1,1.8c0.7,0.5,1.8,1,3.5,1.5c2.4,0.7,4.1,1.5,5.4,2.6s1.8,2.5,1.8,4.2c0,1.8-0.7,3.3-2.2,4.3
		s-3.3,1.6-5.7,1.6c-1.7,0-3.2-0.3-4.6-0.8s-2.5-1.3-3.4-2.2V675h3.3l0.5,3c0.4,0.4,1,0.6,1.8,0.9s1.6,0.3,2.5,0.3
		c1.2,0,2.1-0.2,2.7-0.7s0.9-1.1,0.9-1.9c0-0.8-0.3-1.5-0.9-2s-1.6-1-3.1-1.4c-2.5-0.7-4.4-1.6-5.7-2.6s-1.9-2.4-1.9-4.1
		c0-1.7,0.7-3.1,2.2-4.2c1.5-1.1,3.3-1.7,5.5-1.7c1.6,0,3.1,0.2,4.5,0.7s2.5,1.2,3.4,2V667.7z"/>
	<path class="st5" d="M202.7,679.8c-0.7,0.7-1.7,1.3-3,1.9c-1.3,0.6-3,0.8-5,0.8c-2.9,0-5.2-1-7-2.9c-1.8-1.9-2.7-4.4-2.7-7.5v-0.7
		c0-3.2,0.9-5.8,2.7-7.8s4.1-3,7-3c1.7,0,3.2,0.3,4.6,0.8c1.4,0.5,2.5,1.3,3.4,2.2v4.3h-3.2l-0.6-2.9c-0.4-0.3-0.9-0.6-1.5-0.8
		s-1.4-0.3-2.2-0.3c-1.9,0-3.3,0.7-4.4,2.1s-1.6,3.2-1.6,5.4v0.8c0,2.2,0.5,3.9,1.5,5.2s2.5,1.9,4.4,1.9c0.9,0,1.6-0.1,2.1-0.2
		s0.9-0.3,1.3-0.5v-3.6l-3-0.2v-3h7.3V679.8z"/>
	<path class="st5" d="M204.5,679.6l1.8-0.4l5.6-7.8l-5.5-7.6l-1.8-0.4v-2.6h8.2v2.6l-1.7,0.2l3.3,5.2l3.3-5.2l-1.7-0.2v-2.6h8.2v2.6
		l-1.8,0.4l-5.5,7.6l5.8,7.8l1.9,0.4v2.6h-8.4v-2.6l1.7-0.2l-3.4-5.4l-3.4,5.4l1.7,0.2v2.6h-8.2V679.6z"/>
	<path class="st5" d="M230.7,670.1h-4.3v-3.8h4.3V670.1z M230.7,682.2h-4.3v-3.8h4.3V682.2z"/>
	<path class="st5" d="M239.9,679.6l2.1-0.4v-9.8l-2.3-0.4v-2.6h6.6v12.8l2.1,0.4v2.6h-8.4V679.6z M246.2,662.5H242v-3.2h4.3V662.5z"
		/>
	<path class="st5" d="M262.6,671.8h-2.9l-0.5-2c-0.3-0.2-0.7-0.4-1.1-0.6s-0.9-0.2-1.5-0.2c-0.8,0-1.3,0.2-1.8,0.5
		c-0.4,0.3-0.7,0.8-0.7,1.3c0,0.5,0.2,0.9,0.6,1.2c0.4,0.3,1.3,0.6,2.5,0.8c2,0.4,3.4,1,4.4,1.7s1.4,1.8,1.4,3.1
		c0,1.4-0.6,2.6-1.8,3.5s-2.8,1.4-4.8,1.4c-1.2,0-2.3-0.2-3.4-0.5c-1-0.4-1.9-0.9-2.7-1.5l0-3.6h3l0.6,2.1c0.3,0.2,0.6,0.4,1,0.5
		c0.4,0.1,0.9,0.2,1.4,0.2c0.9,0,1.5-0.2,2-0.5s0.7-0.7,0.7-1.3c0-0.5-0.2-0.9-0.7-1.2s-1.3-0.6-2.5-0.9c-1.9-0.4-3.3-0.9-4.2-1.7
		c-1-0.7-1.4-1.8-1.4-3.1c0-1.3,0.5-2.5,1.6-3.4s2.7-1.4,4.7-1.4c1.2,0,2.4,0.2,3.5,0.5s2,0.8,2.6,1.3L262.6,671.8z"/>
</g>
<g class="st1">
	<path class="st5" d="M265.1,674.1c0-2.4,0.7-4.3,2-5.8c1.3-1.5,3.2-2.3,5.5-2.3c2.3,0,4.2,0.8,5.5,2.3s2,3.4,2,5.8v0.3
		c0,2.4-0.7,4.3-2,5.8c-1.3,1.5-3.1,2.2-5.5,2.2c-2.4,0-4.2-0.7-5.5-2.2c-1.3-1.5-2-3.4-2-5.8V674.1z M269.4,674.4
		c0,1.4,0.3,2.6,0.8,3.5c0.5,0.9,1.3,1.3,2.5,1.3c1.1,0,1.9-0.4,2.4-1.3s0.8-2,0.8-3.5v-0.3c0-1.4-0.3-2.6-0.8-3.4s-1.3-1.3-2.4-1.3
		s-1.9,0.4-2.4,1.3s-0.8,2-0.8,3.4V674.4z"/>
</g>
<g class="st1">
	<path class="st5" d="M281.2,661.9v-2.6h6.6v19.8l2.1,0.4v2.6h-8.4v-2.6l2.1-0.4v-16.8L281.2,661.9z"/>
</g>
<g class="st1">
	<path class="st5" d="M301.3,682.2c-0.1-0.3-0.2-0.5-0.3-0.8c-0.1-0.3-0.2-0.6-0.2-0.8c-0.5,0.6-1.1,1.1-1.9,1.4s-1.6,0.5-2.5,0.5
		c-1.6,0-2.8-0.4-3.7-1.3s-1.4-2-1.4-3.5c0-1.5,0.6-2.6,1.8-3.4s2.9-1.2,5.2-1.2h2.2v-1.6c0-0.8-0.2-1.4-0.7-1.8s-1.1-0.6-1.9-0.6
		c-0.5,0-0.9,0.1-1.3,0.2s-0.7,0.2-0.9,0.4l-0.3,1.7h-3.2l0-3.5c0.8-0.5,1.7-1,2.7-1.3s2.1-0.5,3.3-0.5c2,0,3.6,0.5,4.8,1.4
		s1.8,2.3,1.8,4.1v6.5c0,0.2,0,0.5,0,0.7s0,0.4,0.1,0.6l1.3,0.2v2.6H301.3z M297.6,679.3c0.6,0,1.2-0.1,1.8-0.4
		c0.5-0.3,0.9-0.6,1.2-1v-2.4h-2.2c-0.9,0-1.6,0.2-2.1,0.6c-0.5,0.4-0.7,0.9-0.7,1.5c0,0.5,0.2,1,0.5,1.3S297,679.3,297.6,679.3z"/>
</g>
<g class="st1">
	<path class="st5" d="M312.8,662.4v3.9h2.8v3h-2.8v8.1c0,0.6,0.1,1.1,0.4,1.3s0.6,0.4,1,0.4c0.3,0,0.5,0,0.8,0s0.5-0.1,0.7-0.1
		l0.4,3.1c-0.5,0.1-1,0.3-1.4,0.3c-0.5,0.1-1,0.1-1.5,0.1c-1.5,0-2.6-0.4-3.4-1.2s-1.2-2.1-1.2-3.9v-8.1h-2.3v-3h2.3v-3.9H312.8z"/>
	<path class="st5" d="M325.3,682.5c-2.3,0-4.1-0.7-5.5-2.2s-2.1-3.3-2.1-5.6v-0.6c0-2.4,0.6-4.3,1.9-5.8s3-2.3,5.2-2.3
		c2.1,0,3.8,0.6,5,1.9s1.8,3,1.8,5.2v2.3h-9.5l0,0.1c0.1,1,0.4,1.9,1,2.6s1.5,1,2.5,1c0.9,0,1.7-0.1,2.4-0.3
		c0.6-0.2,1.3-0.5,2.1-0.9l1.2,2.6c-0.7,0.5-1.5,1-2.5,1.3S326.6,682.5,325.3,682.5z M324.9,669.3c-0.8,0-1.4,0.3-1.9,0.9
		s-0.7,1.4-0.8,2.4l0,0.1h5.2v-0.4c0-0.9-0.2-1.6-0.6-2.2C326.4,669.6,325.8,669.3,324.9,669.3z"/>
	<path class="st5" d="M346.6,671.8h-2.9l-0.5-2c-0.3-0.2-0.7-0.4-1.1-0.6s-0.9-0.2-1.5-0.2c-0.8,0-1.3,0.2-1.8,0.5
		c-0.4,0.3-0.7,0.8-0.7,1.3c0,0.5,0.2,0.9,0.6,1.2c0.4,0.3,1.3,0.6,2.5,0.8c2,0.4,3.4,1,4.4,1.7s1.4,1.8,1.4,3.1
		c0,1.4-0.6,2.6-1.8,3.5s-2.8,1.4-4.8,1.4c-1.2,0-2.3-0.2-3.4-0.5c-1-0.4-1.9-0.9-2.7-1.5l0-3.6h3l0.6,2.1c0.3,0.2,0.6,0.4,1,0.5
		c0.4,0.1,0.9,0.2,1.4,0.2c0.9,0,1.5-0.2,2-0.5s0.7-0.7,0.7-1.3c0-0.5-0.2-0.9-0.7-1.2s-1.3-0.6-2.5-0.9c-1.9-0.4-3.3-0.9-4.2-1.7
		c-1-0.7-1.4-1.8-1.4-3.1c0-1.3,0.5-2.5,1.6-3.4s2.7-1.4,4.7-1.4c1.2,0,2.4,0.2,3.5,0.5s2,0.8,2.6,1.3L346.6,671.8z"/>
	<path class="st5" d="M369.4,671.8h-2.9l-0.5-2c-0.3-0.2-0.7-0.4-1.1-0.6s-0.9-0.2-1.5-0.2c-0.8,0-1.3,0.2-1.8,0.5
		c-0.4,0.3-0.7,0.8-0.7,1.3c0,0.5,0.2,0.9,0.6,1.2c0.4,0.3,1.3,0.6,2.5,0.8c2,0.4,3.4,1,4.4,1.7s1.4,1.8,1.4,3.1
		c0,1.4-0.6,2.6-1.8,3.5s-2.8,1.4-4.8,1.4c-1.2,0-2.3-0.2-3.4-0.5c-1-0.4-1.9-0.9-2.7-1.5l0-3.6h3l0.6,2.1c0.3,0.2,0.6,0.4,1,0.5
		c0.4,0.1,0.9,0.2,1.4,0.2c0.9,0,1.5-0.2,2-0.5s0.7-0.7,0.7-1.3c0-0.5-0.2-0.9-0.7-1.2s-1.3-0.6-2.5-0.9c-1.9-0.4-3.3-0.9-4.2-1.7
		c-1-0.7-1.4-1.8-1.4-3.1c0-1.3,0.5-2.5,1.6-3.4s2.7-1.4,4.7-1.4c1.2,0,2.4,0.2,3.5,0.5s2,0.8,2.6,1.3L369.4,671.8z"/>
	<path class="st5" d="M379.5,682.5c-2.3,0-4.1-0.7-5.5-2.2s-2.1-3.3-2.1-5.6v-0.6c0-2.4,0.6-4.3,1.9-5.8s3-2.3,5.2-2.3
		c2.1,0,3.8,0.6,5,1.9s1.8,3,1.8,5.2v2.3h-9.5l0,0.1c0.1,1,0.4,1.9,1,2.6s1.5,1,2.5,1c0.9,0,1.7-0.1,2.4-0.3
		c0.6-0.2,1.3-0.5,2.1-0.9l1.2,2.6c-0.7,0.5-1.5,1-2.5,1.3S380.8,682.5,379.5,682.5z M379.1,669.3c-0.8,0-1.4,0.3-1.9,0.9
		s-0.7,1.4-0.8,2.4l0,0.1h5.2v-0.4c0-0.9-0.2-1.6-0.6-2.2C380.6,669.6,380,669.3,379.1,669.3z"/>
</g>
<g class="st1">
	<path class="st5" d="M388.2,679.6l2.1-0.4v-9.8l-2.3-0.4v-2.6h6.3l0.2,2.3c0.4-0.8,0.8-1.5,1.4-1.9s1.3-0.7,2-0.7
		c0.2,0,0.5,0,0.7,0.1c0.2,0,0.5,0.1,0.6,0.1l-0.5,3.9l-1.8,0c-0.6,0-1.1,0.1-1.6,0.4s-0.7,0.6-0.9,1v7.7l2.1,0.4v2.6h-8.4V679.6z"
		/>
</g>
<g class="st1">
	<path class="st5" d="M407.5,668.9l-1.5,0.3l2.1,7.1l0.3,1.5h0.1l0.3-1.5l2.1-7.1l-1.5-0.3v-2.6h7.2v2.6l-1.4,0.2l-4.7,13.1h-4.1
		l-4.7-13.1l-1.4-0.2v-2.6h7.2V668.9z"/>
	<path class="st5" d="M417.8,679.6l2.1-0.4v-9.8l-2.3-0.4v-2.6h6.6v12.8l2.1,0.4v2.6h-8.4V679.6z M424.1,662.5h-4.3v-3.2h4.3V662.5z
		"/>
	<path class="st5" d="M435,679.2c0.8,0,1.4-0.2,1.8-0.7c0.5-0.4,0.7-1,0.7-1.8h3.9l0,0.1c0,1.6-0.6,2.9-1.8,4s-2.8,1.6-4.6,1.6
		c-2.4,0-4.2-0.7-5.5-2.2s-1.9-3.4-1.9-5.8V674c0-2.3,0.7-4.3,2-5.8s3.2-2.3,5.6-2.3c1.3,0,2.4,0.2,3.4,0.6s1.9,0.9,2.5,1.6l0.1,4.2
		h-3.5l-0.7-2.5c-0.2-0.2-0.5-0.3-0.8-0.5c-0.3-0.1-0.7-0.2-1.1-0.2c-1.2,0-2.1,0.4-2.6,1.3s-0.7,2-0.7,3.4v0.4
		c0,1.4,0.2,2.6,0.7,3.4C433,678.8,433.9,679.2,435,679.2z"/>
	<path class="st5" d="M451,682.5c-2.3,0-4.1-0.7-5.5-2.2s-2.1-3.3-2.1-5.6v-0.6c0-2.4,0.6-4.3,1.9-5.8s3-2.3,5.2-2.3
		c2.1,0,3.8,0.6,5,1.9s1.8,3,1.8,5.2v2.3h-9.5l0,0.1c0.1,1,0.4,1.9,1,2.6s1.5,1,2.5,1c0.9,0,1.7-0.1,2.4-0.3
		c0.6-0.2,1.3-0.5,2.1-0.9l1.2,2.6c-0.7,0.5-1.5,1-2.5,1.3S452.2,682.5,451,682.5z M450.6,669.3c-0.8,0-1.4,0.3-1.9,0.9
		s-0.7,1.4-0.8,2.4l0,0.1h5.2v-0.4c0-0.9-0.2-1.6-0.6-2.2C452.1,669.6,451.4,669.3,450.6,669.3z"/>
	<path class="st5" d="M472.3,671.8h-2.9l-0.5-2c-0.3-0.2-0.7-0.4-1.1-0.6s-0.9-0.2-1.5-0.2c-0.8,0-1.3,0.2-1.8,0.5
		c-0.4,0.3-0.7,0.8-0.7,1.3c0,0.5,0.2,0.9,0.6,1.2c0.4,0.3,1.3,0.6,2.5,0.8c2,0.4,3.4,1,4.4,1.7s1.4,1.8,1.4,3.1
		c0,1.4-0.6,2.6-1.8,3.5s-2.8,1.4-4.8,1.4c-1.2,0-2.3-0.2-3.4-0.5c-1-0.4-1.9-0.9-2.7-1.5l0-3.6h3l0.6,2.1c0.3,0.2,0.6,0.4,1,0.5
		c0.4,0.1,0.9,0.2,1.4,0.2c0.9,0,1.5-0.2,2-0.5s0.7-0.7,0.7-1.3c0-0.5-0.2-0.9-0.7-1.2s-1.3-0.6-2.5-0.9c-1.9-0.4-3.3-0.9-4.2-1.7
		c-1-0.7-1.4-1.8-1.4-3.1c0-1.3,0.5-2.5,1.6-3.4s2.7-1.4,4.7-1.4c1.2,0,2.4,0.2,3.5,0.5s2,0.8,2.6,1.3L472.3,671.8z"/>
</g>
<g class="st1">
	<path class="st2" d="M183,750.7h-3.2l-0.6-2.9c-0.4-0.2-0.9-0.4-1.6-0.6s-1.5-0.3-2.3-0.3c-1.2,0-2.1,0.2-2.7,0.7
		c-0.6,0.5-1,1.1-1,1.9c0,0.7,0.3,1.3,1,1.8c0.7,0.5,1.8,1,3.5,1.5c2.4,0.7,4.1,1.5,5.4,2.6s1.8,2.5,1.8,4.2c0,1.8-0.7,3.3-2.2,4.3
		s-3.3,1.6-5.7,1.6c-1.7,0-3.2-0.3-4.6-0.8s-2.5-1.3-3.4-2.2V758h3.3l0.5,3c0.4,0.4,1,0.6,1.8,0.9s1.6,0.3,2.5,0.3
		c1.2,0,2.1-0.2,2.7-0.7s0.9-1.1,0.9-1.9c0-0.8-0.3-1.5-0.9-2s-1.6-1-3.1-1.4c-2.5-0.7-4.4-1.6-5.7-2.6s-1.9-2.4-1.9-4.1
		c0-1.7,0.7-3.1,2.2-4.2c1.5-1.1,3.3-1.7,5.5-1.7c1.6,0,3.1,0.2,4.5,0.7s2.5,1.2,3.4,2V750.7z"/>
	<path class="st2" d="M202.5,751h-3.2l-0.4-2.8c-0.4-0.4-0.9-0.8-1.6-1s-1.4-0.4-2.3-0.4c-1.9,0-3.3,0.7-4.3,2s-1.5,3.1-1.5,5.3v0.7
		c0,2.2,0.5,3.9,1.5,5.3s2.4,2,4.2,2c0.8,0,1.6-0.1,2.3-0.4s1.2-0.6,1.6-1l0.4-2.8h3.2v4.2c-0.9,1-2,1.8-3.3,2.4
		c-1.3,0.6-2.8,0.9-4.5,0.9c-2.9,0-5.2-1-7-3s-2.7-4.5-2.7-7.6v-0.7c0-3.1,0.9-5.6,2.7-7.6s4.2-3,7-3c1.7,0,3.1,0.3,4.5,0.9
		c1.3,0.6,2.4,1.4,3.3,2.4V751z"/>
	<path class="st2" d="M223.9,754.7c0,3.1-0.9,5.7-2.7,7.7s-4.1,3.1-7,3.1c-2.9,0-5.2-1-7-3.1s-2.7-4.6-2.7-7.7v-0.3
		c0-3.1,0.9-5.7,2.7-7.7s4.1-3.1,7-3.1c2.9,0,5.2,1,7,3.1s2.7,4.6,2.7,7.7V754.7z M219.7,754.3c0-2.2-0.5-4-1.4-5.4
		s-2.3-2.1-4.1-2.1s-3.1,0.7-4,2.1s-1.3,3.2-1.3,5.4v0.4c0,2.2,0.4,4.1,1.3,5.4c0.9,1.4,2.2,2.1,4,2.1c1.8,0,3.2-0.7,4.1-2.1
		c0.9-1.4,1.4-3.2,1.4-5.4V754.3z"/>
	<path class="st2" d="M247.5,743.9v2.6l-2.3,0.4v18.3h-4.3l-8.6-14.4l-0.1,0v11.3l2.3,0.4v2.6h-8.8v-2.6l2.3-0.4v-15.3l-2.3-0.4
		v-2.6h2.3h4.3l8.6,14.4l0.1,0v-11.3l-2.3-0.4v-2.6h6.5H247.5z"/>
	<path class="st2" d="M262.6,755.8h-7.2v6.1h6.9l0.2-2.5h3.3v5.8h-16.9v-2.6l2.3-0.4v-15.3l-2.3-0.4v-2.6h2.3h14.6v5.8h-3.3
		l-0.2-2.5h-6.8v5.4h7.2V755.8z"/>
	<path class="st2" d="M272.8,753.1h-4.3v-3.8h4.3V753.1z M272.8,765.2h-4.3v-3.8h4.3V765.2z"/>
	<path class="st2" d="M282,762.6l2.1-0.4v-9.8l-2.3-0.4v-2.6h6.6v12.8l2.1,0.4v2.6H282V762.6z M288.3,745.5h-4.3v-3.2h4.3V745.5z"/>
	<path class="st2" d="M304.7,754.8h-2.9l-0.5-2c-0.3-0.2-0.7-0.4-1.1-0.6s-0.9-0.2-1.5-0.2c-0.8,0-1.3,0.2-1.8,0.5
		c-0.4,0.3-0.7,0.8-0.7,1.3c0,0.5,0.2,0.9,0.6,1.2c0.4,0.3,1.3,0.6,2.5,0.8c2,0.4,3.4,1,4.4,1.7s1.4,1.8,1.4,3.1
		c0,1.4-0.6,2.6-1.8,3.5s-2.8,1.4-4.8,1.4c-1.2,0-2.3-0.2-3.4-0.5c-1-0.4-1.9-0.9-2.7-1.5l0-3.6h3l0.6,2.1c0.3,0.2,0.6,0.4,1,0.5
		c0.4,0.1,0.9,0.2,1.4,0.2c0.9,0,1.5-0.2,2-0.5s0.7-0.7,0.7-1.3c0-0.5-0.2-0.9-0.7-1.2s-1.3-0.6-2.5-0.9c-1.9-0.4-3.3-0.9-4.2-1.7
		c-1-0.7-1.4-1.8-1.4-3.1c0-1.3,0.5-2.5,1.6-3.4s2.7-1.4,4.7-1.4c1.2,0,2.4,0.2,3.5,0.5s2,0.8,2.6,1.3L304.7,754.8z"/>
</g>
<g class="st1">
	<path class="st2" d="M307.2,757.1c0-2.4,0.7-4.3,2-5.8c1.3-1.5,3.2-2.3,5.5-2.3c2.3,0,4.2,0.8,5.5,2.3s2,3.4,2,5.8v0.3
		c0,2.4-0.7,4.3-2,5.8c-1.3,1.5-3.1,2.2-5.5,2.2c-2.4,0-4.2-0.7-5.5-2.2c-1.3-1.5-2-3.4-2-5.8V757.1z M311.5,757.4
		c0,1.4,0.3,2.6,0.8,3.5c0.5,0.9,1.3,1.3,2.5,1.3c1.1,0,1.9-0.4,2.4-1.3s0.8-2,0.8-3.5v-0.3c0-1.4-0.3-2.6-0.8-3.4s-1.3-1.3-2.4-1.3
		s-1.9,0.4-2.4,1.3s-0.8,2-0.8,3.4V757.4z"/>
</g>
<g class="st1">
	<path class="st2" d="M323.3,744.9v-2.6h6.6v19.8l2.1,0.4v2.6h-8.4v-2.6l2.1-0.4v-16.8L323.3,744.9z"/>
</g>
<g class="st1">
	<path class="st2" d="M343.4,765.2c-0.1-0.3-0.2-0.5-0.3-0.8c-0.1-0.3-0.2-0.6-0.2-0.8c-0.5,0.6-1.1,1.1-1.9,1.4s-1.6,0.5-2.5,0.5
		c-1.6,0-2.8-0.4-3.7-1.3s-1.4-2-1.4-3.5c0-1.5,0.6-2.6,1.8-3.4s2.9-1.2,5.2-1.2h2.2v-1.6c0-0.8-0.2-1.4-0.7-1.8s-1.1-0.6-1.9-0.6
		c-0.5,0-0.9,0.1-1.3,0.2s-0.7,0.2-0.9,0.4l-0.3,1.7h-3.2l0-3.5c0.8-0.5,1.7-1,2.7-1.3s2.1-0.5,3.3-0.5c2,0,3.6,0.5,4.8,1.4
		s1.8,2.3,1.8,4.1v6.5c0,0.2,0,0.5,0,0.7s0,0.4,0.1,0.6l1.3,0.2v2.6H343.4z M339.7,762.3c0.6,0,1.2-0.1,1.8-0.4
		c0.5-0.3,0.9-0.6,1.2-1v-2.4h-2.2c-0.9,0-1.6,0.2-2.1,0.6c-0.5,0.4-0.7,0.9-0.7,1.5c0,0.5,0.2,1,0.5,1.3S339.1,762.3,339.7,762.3z"
		/>
</g>
<g class="st1">
	<path class="st2" d="M354.9,745.4v3.9h2.8v3h-2.8v8.1c0,0.6,0.1,1.1,0.4,1.3s0.6,0.4,1,0.4c0.3,0,0.5,0,0.8,0s0.5-0.1,0.7-0.1
		l0.4,3.1c-0.5,0.1-1,0.3-1.4,0.3c-0.5,0.1-1,0.1-1.5,0.1c-1.5,0-2.6-0.4-3.4-1.2s-1.2-2.1-1.2-3.9v-8.1h-2.3v-3h2.3v-3.9H354.9z"/>
	<path class="st2" d="M367.4,765.5c-2.3,0-4.1-0.7-5.5-2.2s-2.1-3.3-2.1-5.6v-0.6c0-2.4,0.6-4.3,1.9-5.8s3-2.3,5.2-2.3
		c2.1,0,3.8,0.6,5,1.9s1.8,3,1.8,5.2v2.3h-9.5l0,0.1c0.1,1,0.4,1.9,1,2.6s1.5,1,2.5,1c0.9,0,1.7-0.1,2.4-0.3
		c0.6-0.2,1.3-0.5,2.1-0.9l1.2,2.6c-0.7,0.5-1.5,1-2.5,1.3S368.7,765.5,367.4,765.5z M367,752.3c-0.8,0-1.4,0.3-1.9,0.9
		s-0.7,1.4-0.8,2.4l0,0.1h5.2v-0.4c0-0.9-0.2-1.6-0.6-2.2C368.5,752.6,367.9,752.3,367,752.3z"/>
	<path class="st2" d="M388.7,754.8h-2.9l-0.5-2c-0.3-0.2-0.7-0.4-1.1-0.6s-0.9-0.2-1.5-0.2c-0.8,0-1.3,0.2-1.8,0.5
		c-0.4,0.3-0.7,0.8-0.7,1.3c0,0.5,0.2,0.9,0.6,1.2c0.4,0.3,1.3,0.6,2.5,0.8c2,0.4,3.4,1,4.4,1.7s1.4,1.8,1.4,3.1
		c0,1.4-0.6,2.6-1.8,3.5s-2.8,1.4-4.8,1.4c-1.2,0-2.3-0.2-3.4-0.5c-1-0.4-1.9-0.9-2.7-1.5l0-3.6h3l0.6,2.1c0.3,0.2,0.6,0.4,1,0.5
		c0.4,0.1,0.9,0.2,1.4,0.2c0.9,0,1.5-0.2,2-0.5s0.7-0.7,0.7-1.3c0-0.5-0.2-0.9-0.7-1.2s-1.3-0.6-2.5-0.9c-1.9-0.4-3.3-0.9-4.2-1.7
		c-1-0.7-1.4-1.8-1.4-3.1c0-1.3,0.5-2.5,1.6-3.4s2.7-1.4,4.7-1.4c1.2,0,2.4,0.2,3.5,0.5s2,0.8,2.6,1.3L388.7,754.8z"/>
	<path class="st2" d="M411.5,754.8h-2.9l-0.5-2c-0.3-0.2-0.7-0.4-1.1-0.6s-0.9-0.2-1.5-0.2c-0.8,0-1.3,0.2-1.8,0.5
		c-0.4,0.3-0.7,0.8-0.7,1.3c0,0.5,0.2,0.9,0.6,1.2c0.4,0.3,1.3,0.6,2.5,0.8c2,0.4,3.4,1,4.4,1.7s1.4,1.8,1.4,3.1
		c0,1.4-0.6,2.6-1.8,3.5s-2.8,1.4-4.8,1.4c-1.2,0-2.3-0.2-3.4-0.5c-1-0.4-1.9-0.9-2.7-1.5l0-3.6h3l0.6,2.1c0.3,0.2,0.6,0.4,1,0.5
		c0.4,0.1,0.9,0.2,1.4,0.2c0.9,0,1.5-0.2,2-0.5s0.7-0.7,0.7-1.3c0-0.5-0.2-0.9-0.7-1.2s-1.3-0.6-2.5-0.9c-1.9-0.4-3.3-0.9-4.2-1.7
		c-1-0.7-1.4-1.8-1.4-3.1c0-1.3,0.5-2.5,1.6-3.4s2.7-1.4,4.7-1.4c1.2,0,2.4,0.2,3.5,0.5s2,0.8,2.6,1.3L411.5,754.8z"/>
	<path class="st2" d="M421.6,765.5c-2.3,0-4.1-0.7-5.5-2.2s-2.1-3.3-2.1-5.6v-0.6c0-2.4,0.6-4.3,1.9-5.8s3-2.3,5.2-2.3
		c2.1,0,3.8,0.6,5,1.9s1.8,3,1.8,5.2v2.3h-9.5l0,0.1c0.1,1,0.4,1.9,1,2.6s1.5,1,2.5,1c0.9,0,1.7-0.1,2.4-0.3
		c0.6-0.2,1.3-0.5,2.1-0.9l1.2,2.6c-0.7,0.5-1.5,1-2.5,1.3S422.9,765.5,421.6,765.5z M421.2,752.3c-0.8,0-1.4,0.3-1.9,0.9
		s-0.7,1.4-0.8,2.4l0,0.1h5.2v-0.4c0-0.9-0.2-1.6-0.6-2.2C422.7,752.6,422.1,752.3,421.2,752.3z"/>
	<path class="st2" d="M437.5,762.2c0.8,0,1.4-0.2,1.8-0.7c0.5-0.4,0.7-1,0.7-1.8h3.9l0,0.1c0,1.6-0.6,2.9-1.8,4s-2.8,1.6-4.6,1.6
		c-2.4,0-4.2-0.7-5.5-2.2s-1.9-3.4-1.9-5.8V757c0-2.3,0.7-4.3,2-5.8s3.2-2.3,5.6-2.3c1.3,0,2.4,0.2,3.4,0.6s1.9,0.9,2.5,1.6l0.1,4.2
		h-3.5l-0.7-2.5c-0.2-0.2-0.5-0.3-0.8-0.5c-0.3-0.1-0.7-0.2-1.1-0.2c-1.2,0-2.1,0.4-2.6,1.3s-0.7,2-0.7,3.4v0.4
		c0,1.4,0.2,2.6,0.7,3.4C435.5,761.8,436.3,762.2,437.5,762.2z"/>
</g>
<g class="st1">
	<path class="st2" d="M446.1,762.6l2.1-0.4v-9.8l-2.3-0.4v-2.6h6.3l0.2,2.3c0.4-0.8,0.8-1.5,1.4-1.9s1.3-0.7,2-0.7
		c0.2,0,0.5,0,0.7,0.1c0.2,0,0.5,0.1,0.6,0.1l-0.5,3.9l-1.8,0c-0.6,0-1.1,0.1-1.6,0.4s-0.7,0.6-0.9,1v7.7l2.1,0.4v2.6h-8.4V762.6z"
		/>
</g>
<g class="st1">
	<path class="st2" d="M465.8,765.5c-2.3,0-4.1-0.7-5.5-2.2s-2.1-3.3-2.1-5.6v-0.6c0-2.4,0.6-4.3,1.9-5.8s3-2.3,5.2-2.3
		c2.1,0,3.8,0.6,5,1.9s1.8,3,1.8,5.2v2.3h-9.5l0,0.1c0.1,1,0.4,1.9,1,2.6s1.5,1,2.5,1c0.9,0,1.7-0.1,2.4-0.3
		c0.6-0.2,1.3-0.5,2.1-0.9l1.2,2.6c-0.7,0.5-1.5,1-2.5,1.3S467,765.5,465.8,765.5z M465.4,752.3c-0.8,0-1.4,0.3-1.9,0.9
		s-0.7,1.4-0.8,2.4l0,0.1h5.2v-0.4c0-0.9-0.2-1.6-0.6-2.2C466.9,752.6,466.2,752.3,465.4,752.3z"/>
	<path class="st2" d="M480.5,745.4v3.9h2.8v3h-2.8v8.1c0,0.6,0.1,1.1,0.4,1.3s0.6,0.4,1,0.4c0.3,0,0.5,0,0.8,0s0.5-0.1,0.7-0.1
		l0.4,3.1c-0.5,0.1-1,0.3-1.4,0.3c-0.5,0.1-1,0.1-1.5,0.1c-1.5,0-2.6-0.4-3.4-1.2s-1.2-2.1-1.2-3.9v-8.1h-2.3v-3h2.3v-3.9H480.5z"/>
	<path class="st2" d="M498.3,754.8h-2.9l-0.5-2c-0.3-0.2-0.7-0.4-1.1-0.6s-0.9-0.2-1.5-0.2c-0.8,0-1.3,0.2-1.8,0.5
		c-0.4,0.3-0.7,0.8-0.7,1.3c0,0.5,0.2,0.9,0.6,1.2c0.4,0.3,1.3,0.6,2.5,0.8c2,0.4,3.4,1,4.4,1.7s1.4,1.8,1.4,3.1
		c0,1.4-0.6,2.6-1.8,3.5s-2.8,1.4-4.8,1.4c-1.2,0-2.3-0.2-3.4-0.5c-1-0.4-1.9-0.9-2.7-1.5l0-3.6h3l0.6,2.1c0.3,0.2,0.6,0.4,1,0.5
		c0.4,0.1,0.9,0.2,1.4,0.2c0.9,0,1.5-0.2,2-0.5s0.7-0.7,0.7-1.3c0-0.5-0.2-0.9-0.7-1.2s-1.3-0.6-2.5-0.9c-1.9-0.4-3.3-0.9-4.2-1.7
		c-1-0.7-1.4-1.8-1.4-3.1c0-1.3,0.5-2.5,1.6-3.4s2.7-1.4,4.7-1.4c1.2,0,2.4,0.2,3.5,0.5s2,0.8,2.6,1.3L498.3,754.8z"/>
	<path class="st2" d="M507.7,744.9v-2.6h6.6v19.8l2.1,0.4v2.6h-8.4v-2.6l2.1-0.4v-16.8L507.7,744.9z"/>
	<path class="st2" d="M517.6,762.6l2.1-0.4v-9.8l-2.3-0.4v-2.6h6.6v12.8l2.1,0.4v2.6h-8.4V762.6z M523.9,745.5h-4.3v-3.2h4.3V745.5z
		"/>
</g>
<g class="st1">
	<path class="st2" d="M526.9,744.9v-2.6h6.5v13.2h1l2.5-3.5l-1.4-0.2v-2.6h7.8v2.6l-1.9,0.4l-2.9,3.9l4,6l1.6,0.3v2.6h-7.3v-2.6
		l0.9-0.1l-2.4-3.9h-1.8v3.6l1.8,0.4v2.6h-8.2v-2.6l2.1-0.4v-16.8L526.9,744.9z"/>
</g>
<g class="st1">
	<path class="st2" d="M553,765.5c-2.3,0-4.1-0.7-5.5-2.2s-2.1-3.3-2.1-5.6v-0.6c0-2.4,0.6-4.3,1.9-5.8s3-2.3,5.2-2.3
		c2.1,0,3.8,0.6,5,1.9s1.8,3,1.8,5.2v2.3h-9.5l0,0.1c0.1,1,0.4,1.9,1,2.6s1.5,1,2.5,1c0.9,0,1.7-0.1,2.4-0.3
		c0.6-0.2,1.3-0.5,2.1-0.9l1.2,2.6c-0.7,0.5-1.5,1-2.5,1.3S554.2,765.5,553,765.5z M552.6,752.3c-0.8,0-1.4,0.3-1.9,0.9
		s-0.7,1.4-0.8,2.4l0,0.1h5.2v-0.4c0-0.9-0.2-1.6-0.6-2.2C554.1,752.6,553.4,752.3,552.6,752.3z"/>
	<path class="st2" d="M576.1,762.2c0.8,0,1.4-0.2,1.8-0.7c0.5-0.4,0.7-1,0.7-1.8h3.9l0,0.1c0,1.6-0.6,2.9-1.8,4s-2.8,1.6-4.6,1.6
		c-2.4,0-4.2-0.7-5.5-2.2s-1.9-3.4-1.9-5.8V757c0-2.3,0.7-4.3,2-5.8s3.2-2.3,5.6-2.3c1.3,0,2.4,0.2,3.4,0.6s1.9,0.9,2.5,1.6l0.1,4.2
		h-3.5l-0.7-2.5c-0.2-0.2-0.5-0.3-0.8-0.5c-0.3-0.1-0.7-0.2-1.1-0.2c-1.2,0-2.1,0.4-2.6,1.3s-0.7,2-0.7,3.4v0.4
		c0,1.4,0.2,2.6,0.7,3.4C574.2,761.8,575,762.2,576.1,762.2z"/>
	<path class="st2" d="M592.1,765.5c-2.3,0-4.1-0.7-5.5-2.2s-2.1-3.3-2.1-5.6v-0.6c0-2.4,0.6-4.3,1.9-5.8s3-2.3,5.2-2.3
		c2.1,0,3.8,0.6,5,1.9s1.8,3,1.8,5.2v2.3H589l0,0.1c0.1,1,0.4,1.9,1,2.6s1.5,1,2.5,1c0.9,0,1.7-0.1,2.4-0.3c0.6-0.2,1.3-0.5,2.1-0.9
		l1.2,2.6c-0.7,0.5-1.5,1-2.5,1.3S593.4,765.5,592.1,765.5z M591.7,752.3c-0.8,0-1.4,0.3-1.9,0.9s-0.7,1.4-0.8,2.4l0,0.1h5.2v-0.4
		c0-0.9-0.2-1.6-0.6-2.2C593.2,752.6,592.6,752.3,591.7,752.3z"/>
</g>
<g class="st1">
	<path class="st2" d="M600.8,762.6l2.1-0.4v-9.8l-2.3-0.4v-2.6h6.3l0.2,2.3c0.4-0.8,0.8-1.5,1.4-1.9s1.3-0.7,2-0.7
		c0.2,0,0.5,0,0.7,0.1c0.2,0,0.5,0.1,0.6,0.1l-0.5,3.9l-1.8,0c-0.6,0-1.1,0.1-1.6,0.4s-0.7,0.6-0.9,1v7.7l2.1,0.4v2.6h-8.4V762.6z"
		/>
</g>
<g class="st1">
	<path class="st2" d="M619.8,745.4v3.9h2.8v3h-2.8v8.1c0,0.6,0.1,1.1,0.4,1.3s0.6,0.4,1,0.4c0.3,0,0.5,0,0.8,0s0.5-0.1,0.7-0.1
		l0.4,3.1c-0.5,0.1-1,0.3-1.4,0.3c-0.5,0.1-1,0.1-1.5,0.1c-1.5,0-2.6-0.4-3.4-1.2s-1.2-2.1-1.2-3.9v-8.1h-2.3v-3h2.3v-3.9H619.8z"/>
	<path class="st2" d="M624.5,762.6l2.1-0.4v-9.8l-2.3-0.4v-2.6h6.6v12.8l2.1,0.4v2.6h-8.4V762.6z M630.9,745.5h-4.3v-3.2h4.3V745.5z
		"/>
	<path class="st2" d="M633.9,752.3v-3h2.4v-1.1c0-2,0.6-3.5,1.8-4.6c1.2-1.1,2.9-1.6,5.1-1.6c0.8,0,1.5,0.1,2.3,0.2s1.6,0.4,2.6,0.7
		l-0.6,3.4c-0.7-0.2-1.4-0.4-1.9-0.5s-1.2-0.2-2-0.2c-1,0-1.7,0.2-2.2,0.7s-0.7,1.1-0.7,2v1.1h9.6v12.8l2.3,0.4v2.6h-8.6v-2.6
		l2.1-0.4v-9.8h-5.3v9.8l2.1,0.4v2.6H634v-2.6l2.3-0.4v-9.8H633.9z"/>
	<path class="st2" d="M661.3,762.2c0.8,0,1.4-0.2,1.8-0.7c0.5-0.4,0.7-1,0.7-1.8h3.9l0,0.1c0,1.6-0.6,2.9-1.8,4s-2.8,1.6-4.6,1.6
		c-2.4,0-4.2-0.7-5.5-2.2s-1.9-3.4-1.9-5.8V757c0-2.3,0.7-4.3,2-5.8s3.2-2.3,5.6-2.3c1.3,0,2.4,0.2,3.4,0.6s1.9,0.9,2.5,1.6l0.1,4.2
		h-3.5l-0.7-2.5c-0.2-0.2-0.5-0.3-0.8-0.5c-0.3-0.1-0.7-0.2-1.1-0.2c-1.2,0-2.1,0.4-2.6,1.3s-0.7,2-0.7,3.4v0.4
		c0,1.4,0.2,2.6,0.7,3.4C659.4,761.8,660.2,762.2,661.3,762.2z"/>
</g>
<g class="st1">
	<path class="st2" d="M679.8,765.2c-0.1-0.3-0.2-0.5-0.3-0.8c-0.1-0.3-0.2-0.6-0.2-0.8c-0.5,0.6-1.1,1.1-1.9,1.4s-1.6,0.5-2.5,0.5
		c-1.6,0-2.8-0.4-3.7-1.3s-1.4-2-1.4-3.5c0-1.5,0.6-2.6,1.8-3.4s2.9-1.2,5.2-1.2h2.2v-1.6c0-0.8-0.2-1.4-0.7-1.8s-1.1-0.6-1.9-0.6
		c-0.5,0-0.9,0.1-1.3,0.2s-0.7,0.2-0.9,0.4l-0.3,1.7h-3.2l0-3.5c0.8-0.5,1.7-1,2.7-1.3s2.1-0.5,3.3-0.5c2,0,3.6,0.5,4.8,1.4
		c1.2,1,1.8,2.3,1.8,4.1v6.5c0,0.2,0,0.5,0,0.7c0,0.2,0,0.4,0.1,0.6l1.3,0.2v2.6H679.8z M676.1,762.3c0.6,0,1.2-0.1,1.8-0.4
		c0.5-0.3,0.9-0.6,1.2-1v-2.4h-2.2c-0.9,0-1.6,0.2-2.1,0.6c-0.5,0.4-0.7,0.9-0.7,1.5c0,0.5,0.2,1,0.5,1.3S675.5,762.3,676.1,762.3z"
		/>
</g>
<g class="st1">
	<path class="st2" d="M691.3,745.4v3.9h2.8v3h-2.8v8.1c0,0.6,0.1,1.1,0.4,1.3s0.6,0.4,1,0.4c0.3,0,0.5,0,0.8,0s0.5-0.1,0.7-0.1
		l0.4,3.1c-0.5,0.1-1,0.3-1.4,0.3c-0.5,0.1-1,0.1-1.5,0.1c-1.5,0-2.6-0.4-3.4-1.2s-1.2-2.1-1.2-3.9v-8.1h-2.3v-3h2.3v-3.9H691.3z"/>
	<path class="st2" d="M703.8,765.5c-2.3,0-4.1-0.7-5.5-2.2s-2.1-3.3-2.1-5.6v-0.6c0-2.4,0.6-4.3,1.9-5.8s3-2.3,5.2-2.3
		c2.1,0,3.8,0.6,5,1.9s1.8,3,1.8,5.2v2.3h-9.5l0,0.1c0.1,1,0.4,1.9,1,2.6s1.5,1,2.5,1c0.9,0,1.7-0.1,2.4-0.3
		c0.6-0.2,1.3-0.5,2.1-0.9l1.2,2.6c-0.7,0.5-1.5,1-2.5,1.3S705.1,765.5,703.8,765.5z M703.4,752.3c-0.8,0-1.4,0.3-1.9,0.9
		s-0.7,1.4-0.8,2.4l0,0.1h5.2v-0.4c0-0.9-0.2-1.6-0.6-2.2C704.9,752.6,704.3,752.3,703.4,752.3z"/>
	<path class="st2" d="M725.1,754.8h-2.9l-0.5-2c-0.3-0.2-0.7-0.4-1.1-0.6s-0.9-0.2-1.5-0.2c-0.8,0-1.3,0.2-1.8,0.5
		c-0.4,0.3-0.7,0.8-0.7,1.3c0,0.5,0.2,0.9,0.6,1.2c0.4,0.3,1.3,0.6,2.5,0.8c2,0.4,3.4,1,4.4,1.7s1.4,1.8,1.4,3.1
		c0,1.4-0.6,2.6-1.8,3.5s-2.8,1.4-4.8,1.4c-1.2,0-2.3-0.2-3.4-0.5c-1-0.4-1.9-0.9-2.7-1.5l0-3.6h3l0.6,2.1c0.3,0.2,0.6,0.4,1,0.5
		c0.4,0.1,0.9,0.2,1.4,0.2c0.9,0,1.5-0.2,2-0.5s0.7-0.7,0.7-1.3c0-0.5-0.2-0.9-0.7-1.2s-1.3-0.6-2.5-0.9c-1.9-0.4-3.3-0.9-4.2-1.7
		c-1-0.7-1.4-1.8-1.4-3.1c0-1.3,0.5-2.5,1.6-3.4s2.7-1.4,4.7-1.4c1.2,0,2.4,0.2,3.5,0.5s2,0.8,2.6,1.3L725.1,754.8z"/>
	<path class="st2" d="M734.7,759.4c0-1.2,0.3-2.1,1-3c0.6-0.8,1.6-1.7,2.9-2.6c-0.7-0.9-1.2-1.7-1.5-2.5s-0.5-1.5-0.5-2.3
		c0-1.7,0.5-3,1.6-4c1.1-1,2.5-1.5,4.2-1.5c1.6,0,2.8,0.5,3.8,1.4c1,1,1.5,2.1,1.5,3.5c0,1-0.2,1.8-0.7,2.6s-1.1,1.5-2,2.1l-1.4,1
		l4,4.7c0.4-0.6,0.6-1.2,0.8-1.9s0.3-1.4,0.3-2.2h3.2c0,1.3-0.2,2.6-0.5,3.7s-0.8,2.1-1.5,3l3,3.6l0,0.1h-4.7l-1.1-1.3
		c-0.8,0.5-1.7,0.9-2.6,1.2c-0.9,0.3-1.8,0.4-2.8,0.4c-2.1,0-3.8-0.6-5.1-1.7S734.7,761.2,734.7,759.4z M741.9,762.2
		c0.5,0,1-0.1,1.6-0.2c0.5-0.1,1-0.3,1.5-0.6l-4.4-5.1l-0.3,0.2c-0.5,0.5-0.8,0.9-1,1.4c-0.2,0.4-0.3,0.9-0.3,1.3
		c0,0.9,0.3,1.6,0.8,2.1C740.3,761.9,741,762.2,741.9,762.2z M740.4,749.1c0,0.4,0.1,0.9,0.3,1.3s0.5,0.9,0.9,1.5l1.3-0.8
		c0.5-0.4,0.9-0.7,1.1-1.1s0.3-0.8,0.3-1.2c0-0.5-0.2-0.9-0.5-1.3s-0.8-0.6-1.4-0.6c-0.6,0-1.1,0.2-1.5,0.6
		C740.6,747.9,740.4,748.4,740.4,749.1z"/>
	<path class="st2" d="M760.7,751.9v-2.6h6.2l0.2,1.8c0.5-0.7,1-1.2,1.7-1.6s1.4-0.6,2.3-0.6c2,0,3.5,0.8,4.6,2.3s1.6,3.5,1.6,6v0.3
		c0,2.3-0.5,4.2-1.6,5.7s-2.6,2.1-4.5,2.1c-0.8,0-1.6-0.2-2.2-0.5c-0.6-0.3-1.2-0.8-1.7-1.4v4.6l2.1,0.4v2.6H761v-2.6l2.1-0.4v-15.9
		L760.7,751.9z M773,757.4c0-1.5-0.2-2.7-0.7-3.6s-1.3-1.4-2.3-1.4c-0.6,0-1.2,0.1-1.6,0.4s-0.8,0.6-1.1,1.1v6.9
		c0.3,0.4,0.6,0.8,1.1,1s1,0.4,1.7,0.4c1,0,1.8-0.4,2.3-1.2s0.7-1.9,0.7-3.3V757.4z"/>
	<path class="st2" d="M779.5,762.6l2.1-0.4v-9.8l-2.3-0.4v-2.6h6.3l0.2,2.3c0.4-0.8,0.8-1.5,1.4-1.9s1.3-0.7,2-0.7
		c0.2,0,0.5,0,0.7,0.1c0.2,0,0.5,0.1,0.6,0.1l-0.5,3.9l-1.8,0c-0.6,0-1.1,0.1-1.6,0.4s-0.7,0.6-0.9,1v7.7l2.1,0.4v2.6h-8.4V762.6z"
		/>
	<path class="st2" d="M791.7,762.6l2.1-0.4v-9.8l-2.3-0.4v-2.6h6.6v12.8l2.1,0.4v2.6h-8.4V762.6z M798.1,745.5h-4.3v-3.2h4.3V745.5z
		"/>
</g>
<g class="st1">
	<path class="st2" d="M808.2,751.9l-1.5,0.3l2.1,7.1l0.3,1.5h0.1l0.3-1.5l2.1-7.1l-1.5-0.3v-2.6h7.2v2.6l-1.4,0.2l-4.7,13.1h-4.1
		l-4.7-13.1l-1.4-0.2v-2.6h7.2V751.9z"/>
</g>
<g class="st1">
	<path class="st2" d="M828.5,765.2c-0.1-0.3-0.2-0.5-0.3-0.8c-0.1-0.3-0.2-0.6-0.2-0.8c-0.5,0.6-1.1,1.1-1.9,1.4s-1.6,0.5-2.5,0.5
		c-1.6,0-2.8-0.4-3.7-1.3s-1.4-2-1.4-3.5c0-1.5,0.6-2.6,1.8-3.4s2.9-1.2,5.2-1.2h2.2v-1.6c0-0.8-0.2-1.4-0.7-1.8s-1.1-0.6-1.9-0.6
		c-0.5,0-0.9,0.1-1.3,0.2s-0.7,0.2-0.9,0.4l-0.3,1.7h-3.2l0-3.5c0.8-0.5,1.7-1,2.7-1.3s2.1-0.5,3.3-0.5c2,0,3.6,0.5,4.8,1.4
		s1.8,2.3,1.8,4.1v6.5c0,0.2,0,0.5,0,0.7s0,0.4,0.1,0.6l1.3,0.2v2.6H828.5z M824.8,762.3c0.6,0,1.2-0.1,1.8-0.4
		c0.5-0.3,0.9-0.6,1.2-1v-2.4h-2.2c-0.9,0-1.6,0.2-2.1,0.6c-0.5,0.4-0.7,0.9-0.7,1.5c0,0.5,0.2,1,0.5,1.3S824.2,762.3,824.8,762.3z"
		/>
</g>
<g class="st1">
	<path class="st2" d="M840,745.4v3.9h2.8v3H840v8.1c0,0.6,0.1,1.1,0.4,1.3s0.6,0.4,1,0.4c0.3,0,0.5,0,0.8,0s0.5-0.1,0.7-0.1l0.4,3.1
		c-0.5,0.1-1,0.3-1.4,0.3c-0.5,0.1-1,0.1-1.5,0.1c-1.5,0-2.6-0.4-3.4-1.2s-1.2-2.1-1.2-3.9v-8.1h-2.3v-3h2.3v-3.9H840z"/>
	<path class="st2" d="M852.5,765.5c-2.3,0-4.1-0.7-5.5-2.2s-2.1-3.3-2.1-5.6v-0.6c0-2.4,0.6-4.3,1.9-5.8s3-2.3,5.2-2.3
		c2.1,0,3.8,0.6,5,1.9s1.8,3,1.8,5.2v2.3h-9.5l0,0.1c0.1,1,0.4,1.9,1,2.6s1.5,1,2.5,1c0.9,0,1.7-0.1,2.4-0.3
		c0.6-0.2,1.3-0.5,2.1-0.9l1.2,2.6c-0.7,0.5-1.5,1-2.5,1.3S853.8,765.5,852.5,765.5z M852.1,752.3c-0.8,0-1.4,0.3-1.9,0.9
		s-0.7,1.4-0.8,2.4l0,0.1h5.2v-0.4c0-0.9-0.2-1.6-0.6-2.2C853.6,752.6,853,752.3,852.1,752.3z"/>
</g>
<g class="st1">
	<path class="st2" d="M867.8,744.9v-2.6h6.5v13.2h1l2.5-3.5l-1.4-0.2v-2.6h7.8v2.6l-1.9,0.4l-2.9,3.9l4,6l1.6,0.3v2.6h-7.3v-2.6
		l0.9-0.1l-2.4-3.9h-1.8v3.6l1.8,0.4v2.6H868v-2.6l2.1-0.4v-16.8L867.8,744.9z"/>
</g>
<g class="st1">
	<path class="st2" d="M893.8,765.5c-2.3,0-4.1-0.7-5.5-2.2s-2.1-3.3-2.1-5.6v-0.6c0-2.4,0.6-4.3,1.9-5.8s3-2.3,5.2-2.3
		c2.1,0,3.8,0.6,5,1.9s1.8,3,1.8,5.2v2.3h-9.5l0,0.1c0.1,1,0.4,1.9,1,2.6s1.5,1,2.5,1c0.9,0,1.7-0.1,2.4-0.3
		c0.6-0.2,1.3-0.5,2.1-0.9l1.2,2.6c-0.7,0.5-1.5,1-2.5,1.3S895.1,765.5,893.8,765.5z M893.4,752.3c-0.8,0-1.4,0.3-1.9,0.9
		s-0.7,1.4-0.8,2.4l0,0.1h5.2v-0.4c0-0.9-0.2-1.6-0.6-2.2C894.9,752.6,894.3,752.3,893.4,752.3z"/>
</g>
<g class="st1">
	<path class="st2" d="M918.4,751.9l-1.5,0.2l-5.8,15.4c-0.5,1.1-1.1,2.1-1.8,2.9s-1.9,1.2-3.5,1.2c-0.4,0-0.7,0-1-0.1
		s-0.7-0.1-1.1-0.2l0.5-3.1c0.1,0,0.3,0,0.4,0.1s0.3,0,0.4,0c0.7,0,1.3-0.2,1.6-0.5s0.7-0.8,0.9-1.3l0.5-1.2l-5-13.1l-1.5-0.2v-2.6
		h7.8v2.6l-1.8,0.3l2.2,6.3l0.2,1.1l0.1,0l2.5-7.5l-1.8-0.3v-2.6h7.8V751.9z"/>
	<path class="st2" d="M932.7,754.8h-2.9l-0.5-2c-0.3-0.2-0.7-0.4-1.1-0.6s-0.9-0.2-1.5-0.2c-0.8,0-1.3,0.2-1.8,0.5
		c-0.4,0.3-0.7,0.8-0.7,1.3c0,0.5,0.2,0.9,0.6,1.2c0.4,0.3,1.3,0.6,2.5,0.8c2,0.4,3.4,1,4.4,1.7s1.4,1.8,1.4,3.1
		c0,1.4-0.6,2.6-1.8,3.5s-2.8,1.4-4.8,1.4c-1.2,0-2.3-0.2-3.4-0.5c-1-0.4-1.9-0.9-2.7-1.5l0-3.6h3l0.6,2.1c0.3,0.2,0.6,0.4,1,0.5
		c0.4,0.1,0.9,0.2,1.4,0.2c0.9,0,1.5-0.2,2-0.5s0.7-0.7,0.7-1.3c0-0.5-0.2-0.9-0.7-1.2s-1.3-0.6-2.5-0.9c-1.9-0.4-3.3-0.9-4.2-1.7
		c-1-0.7-1.4-1.8-1.4-3.1c0-1.3,0.5-2.5,1.6-3.4s2.7-1.4,4.7-1.4c1.2,0,2.4,0.2,3.5,0.5s2,0.8,2.6,1.3L932.7,754.8z"/>
</g>
<g class="st1">
	<path class="st2" d="M183,833.7h-3.2l-0.6-2.9c-0.4-0.2-0.9-0.4-1.6-0.6s-1.5-0.3-2.3-0.3c-1.2,0-2.1,0.2-2.7,0.7
		c-0.6,0.5-1,1.1-1,1.9c0,0.7,0.3,1.3,1,1.8c0.7,0.5,1.8,1,3.5,1.5c2.4,0.7,4.1,1.5,5.4,2.6s1.8,2.5,1.8,4.2c0,1.8-0.7,3.3-2.2,4.3
		s-3.3,1.6-5.7,1.6c-1.7,0-3.2-0.3-4.6-0.8s-2.5-1.3-3.4-2.2V841h3.3l0.5,3c0.4,0.4,1,0.6,1.8,0.9s1.6,0.3,2.5,0.3
		c1.2,0,2.1-0.2,2.7-0.7s0.9-1.1,0.9-1.9c0-0.8-0.3-1.5-0.9-2s-1.6-1-3.1-1.4c-2.5-0.7-4.4-1.6-5.7-2.6s-1.9-2.4-1.9-4.1
		c0-1.7,0.7-3.1,2.2-4.2c1.5-1.1,3.3-1.7,5.5-1.7c1.6,0,3.1,0.2,4.5,0.7s2.5,1.2,3.4,2V833.7z"/>
	<path class="st2" d="M202.5,834h-3.2l-0.4-2.8c-0.4-0.4-0.9-0.8-1.6-1s-1.4-0.4-2.3-0.4c-1.9,0-3.3,0.7-4.3,2s-1.5,3.1-1.5,5.3v0.7
		c0,2.2,0.5,3.9,1.5,5.3s2.4,2,4.2,2c0.8,0,1.6-0.1,2.3-0.4s1.2-0.6,1.6-1l0.4-2.8h3.2v4.2c-0.9,1-2,1.8-3.3,2.4
		c-1.3,0.6-2.8,0.9-4.5,0.9c-2.9,0-5.2-1-7-3s-2.7-4.5-2.7-7.6v-0.7c0-3.1,0.9-5.6,2.7-7.6s4.2-3,7-3c1.7,0,3.1,0.3,4.5,0.9
		c1.3,0.6,2.4,1.4,3.3,2.4V834z"/>
	<path class="st2" d="M223.9,837.7c0,3.1-0.9,5.7-2.7,7.7s-4.1,3.1-7,3.1c-2.9,0-5.2-1-7-3.1s-2.7-4.6-2.7-7.7v-0.3
		c0-3.1,0.9-5.7,2.7-7.7s4.1-3.1,7-3.1c2.9,0,5.2,1,7,3.1s2.7,4.6,2.7,7.7V837.7z M219.7,837.3c0-2.2-0.5-4-1.4-5.4
		s-2.3-2.1-4.1-2.1s-3.1,0.7-4,2.1s-1.3,3.2-1.3,5.4v0.4c0,2.2,0.4,4.1,1.3,5.4c0.9,1.4,2.2,2.1,4,2.1c1.8,0,3.2-0.7,4.1-2.1
		c0.9-1.4,1.4-3.2,1.4-5.4V837.3z"/>
	<path class="st2" d="M247.5,826.9v2.6l-2.3,0.4v18.3h-4.3l-8.6-14.4l-0.1,0v11.3l2.3,0.4v2.6h-8.8v-2.6l2.3-0.4v-15.3l-2.3-0.4
		v-2.6h2.3h4.3l8.6,14.4l0.1,0v-11.3l-2.3-0.4v-2.6h6.5H247.5z"/>
	<path class="st2" d="M262.6,838.8h-7.2v6.1h6.9l0.2-2.5h3.3v5.8h-16.9v-2.6l2.3-0.4v-15.3l-2.3-0.4v-2.6h2.3h14.6v5.8h-3.3
		l-0.2-2.5h-6.8v5.4h7.2V838.8z"/>
	<path class="st2" d="M272.8,836.1h-4.3v-3.8h4.3V836.1z M272.8,848.2h-4.3v-3.8h4.3V848.2z"/>
	<path class="st2" d="M282,845.6l2.1-0.4v-9.8l-2.3-0.4v-2.6h6.6v12.8l2.1,0.4v2.6H282V845.6z M288.3,828.5h-4.3v-3.2h4.3V828.5z"/>
	<path class="st2" d="M304.7,837.8h-2.9l-0.5-2c-0.3-0.2-0.7-0.4-1.1-0.6s-0.9-0.2-1.5-0.2c-0.8,0-1.3,0.2-1.8,0.5
		c-0.4,0.3-0.7,0.8-0.7,1.3c0,0.5,0.2,0.9,0.6,1.2c0.4,0.3,1.3,0.6,2.5,0.8c2,0.4,3.4,1,4.4,1.7s1.4,1.8,1.4,3.1
		c0,1.4-0.6,2.6-1.8,3.5s-2.8,1.4-4.8,1.4c-1.2,0-2.3-0.2-3.4-0.5c-1-0.4-1.9-0.9-2.7-1.5l0-3.6h3l0.6,2.1c0.3,0.2,0.6,0.4,1,0.5
		c0.4,0.1,0.9,0.2,1.4,0.2c0.9,0,1.5-0.2,2-0.5s0.7-0.7,0.7-1.3c0-0.5-0.2-0.9-0.7-1.2s-1.3-0.6-2.5-0.9c-1.9-0.4-3.3-0.9-4.2-1.7
		c-1-0.7-1.4-1.8-1.4-3.1c0-1.3,0.5-2.5,1.6-3.4s2.7-1.4,4.7-1.4c1.2,0,2.4,0.2,3.5,0.5s2,0.8,2.6,1.3L304.7,837.8z"/>
</g>
<g class="st1">
	<path class="st2" d="M307.2,840.1c0-2.4,0.7-4.3,2-5.8c1.3-1.5,3.2-2.3,5.5-2.3c2.3,0,4.2,0.8,5.5,2.3s2,3.4,2,5.8v0.3
		c0,2.4-0.7,4.3-2,5.8c-1.3,1.5-3.1,2.2-5.5,2.2c-2.4,0-4.2-0.7-5.5-2.2c-1.3-1.5-2-3.4-2-5.8V840.1z M311.5,840.4
		c0,1.4,0.3,2.6,0.8,3.5c0.5,0.9,1.3,1.3,2.5,1.3c1.1,0,1.9-0.4,2.4-1.3s0.8-2,0.8-3.5v-0.3c0-1.4-0.3-2.6-0.8-3.4s-1.3-1.3-2.4-1.3
		s-1.9,0.4-2.4,1.3s-0.8,2-0.8,3.4V840.4z"/>
</g>
<g class="st1">
	<path class="st2" d="M323.3,827.9v-2.6h6.6v19.8l2.1,0.4v2.6h-8.4v-2.6l2.1-0.4v-16.8L323.3,827.9z"/>
</g>
<g class="st1">
	<path class="st2" d="M343.4,848.2c-0.1-0.3-0.2-0.5-0.3-0.8c-0.1-0.3-0.2-0.6-0.2-0.8c-0.5,0.6-1.1,1.1-1.9,1.4s-1.6,0.5-2.5,0.5
		c-1.6,0-2.8-0.4-3.7-1.3s-1.4-2-1.4-3.5c0-1.5,0.6-2.6,1.8-3.4s2.9-1.2,5.2-1.2h2.2v-1.6c0-0.8-0.2-1.4-0.7-1.8s-1.1-0.6-1.9-0.6
		c-0.5,0-0.9,0.1-1.3,0.2s-0.7,0.2-0.9,0.4l-0.3,1.7h-3.2l0-3.5c0.8-0.5,1.7-1,2.7-1.3s2.1-0.5,3.3-0.5c2,0,3.6,0.5,4.8,1.4
		s1.8,2.3,1.8,4.1v6.5c0,0.2,0,0.5,0,0.7s0,0.4,0.1,0.6l1.3,0.2v2.6H343.4z M339.7,845.3c0.6,0,1.2-0.1,1.8-0.4
		c0.5-0.3,0.9-0.6,1.2-1v-2.4h-2.2c-0.9,0-1.6,0.2-2.1,0.6c-0.5,0.4-0.7,0.9-0.7,1.5c0,0.5,0.2,1,0.5,1.3S339.1,845.3,339.7,845.3z"
		/>
</g>
<g class="st1">
	<path class="st2" d="M354.9,828.4v3.9h2.8v3h-2.8v8.1c0,0.6,0.1,1.1,0.4,1.3s0.6,0.4,1,0.4c0.3,0,0.5,0,0.8,0s0.5-0.1,0.7-0.1
		l0.4,3.1c-0.5,0.1-1,0.3-1.4,0.3c-0.5,0.1-1,0.1-1.5,0.1c-1.5,0-2.6-0.4-3.4-1.2s-1.2-2.1-1.2-3.9v-8.1h-2.3v-3h2.3v-3.9H354.9z"/>
	<path class="st2" d="M367.4,848.5c-2.3,0-4.1-0.7-5.5-2.2s-2.1-3.3-2.1-5.6v-0.6c0-2.4,0.6-4.3,1.9-5.8s3-2.3,5.2-2.3
		c2.1,0,3.8,0.6,5,1.9s1.8,3,1.8,5.2v2.3h-9.5l0,0.1c0.1,1,0.4,1.9,1,2.6s1.5,1,2.5,1c0.9,0,1.7-0.1,2.4-0.3
		c0.6-0.2,1.3-0.5,2.1-0.9l1.2,2.6c-0.7,0.5-1.5,1-2.5,1.3S368.7,848.5,367.4,848.5z M367,835.3c-0.8,0-1.4,0.3-1.9,0.9
		s-0.7,1.4-0.8,2.4l0,0.1h5.2v-0.4c0-0.9-0.2-1.6-0.6-2.2C368.5,835.6,367.9,835.3,367,835.3z"/>
	<path class="st2" d="M388.7,837.8h-2.9l-0.5-2c-0.3-0.2-0.7-0.4-1.1-0.6s-0.9-0.2-1.5-0.2c-0.8,0-1.3,0.2-1.8,0.5
		c-0.4,0.3-0.7,0.8-0.7,1.3c0,0.5,0.2,0.9,0.6,1.2c0.4,0.3,1.3,0.6,2.5,0.8c2,0.4,3.4,1,4.4,1.7s1.4,1.8,1.4,3.1
		c0,1.4-0.6,2.6-1.8,3.5s-2.8,1.4-4.8,1.4c-1.2,0-2.3-0.2-3.4-0.5c-1-0.4-1.9-0.9-2.7-1.5l0-3.6h3l0.6,2.1c0.3,0.2,0.6,0.4,1,0.5
		c0.4,0.1,0.9,0.2,1.4,0.2c0.9,0,1.5-0.2,2-0.5s0.7-0.7,0.7-1.3c0-0.5-0.2-0.9-0.7-1.2s-1.3-0.6-2.5-0.9c-1.9-0.4-3.3-0.9-4.2-1.7
		c-1-0.7-1.4-1.8-1.4-3.1c0-1.3,0.5-2.5,1.6-3.4s2.7-1.4,4.7-1.4c1.2,0,2.4,0.2,3.5,0.5s2,0.8,2.6,1.3L388.7,837.8z"/>
	<path class="st2" d="M398.2,835.3v-3h2.4v-1.1c0-2,0.6-3.5,1.8-4.6c1.2-1.1,2.9-1.6,5.1-1.6c0.8,0,1.5,0.1,2.3,0.2s1.6,0.4,2.6,0.7
		l-0.6,3.4c-0.7-0.2-1.4-0.4-1.9-0.5s-1.2-0.2-2-0.2c-1,0-1.7,0.2-2.2,0.7s-0.7,1.1-0.7,2v1.1h9.6v12.8l2.3,0.4v2.6h-8.6v-2.6
		l2.1-0.4v-9.8h-5.3v9.8l2.1,0.4v2.6h-8.6v-2.6l2.3-0.4v-9.8H398.2z"/>
	<path class="st2" d="M417.7,827.9v-2.6h6.6v19.8l2.1,0.4v2.6h-8.4v-2.6l2.1-0.4v-16.8L417.7,827.9z"/>
	<path class="st2" d="M435.3,848.5c-2.3,0-4.1-0.7-5.5-2.2s-2.1-3.3-2.1-5.6v-0.6c0-2.4,0.6-4.3,1.9-5.8s3-2.3,5.2-2.3
		c2.1,0,3.8,0.6,5,1.9s1.8,3,1.8,5.2v2.3h-9.5l0,0.1c0.1,1,0.4,1.9,1,2.6s1.5,1,2.5,1c0.9,0,1.7-0.1,2.4-0.3
		c0.6-0.2,1.3-0.5,2.1-0.9l1.2,2.6c-0.7,0.5-1.5,1-2.5,1.3S436.6,848.5,435.3,848.5z M434.9,835.3c-0.8,0-1.4,0.3-1.9,0.9
		s-0.7,1.4-0.8,2.4l0,0.1h5.2v-0.4c0-0.9-0.2-1.6-0.6-2.2C436.4,835.6,435.8,835.3,434.9,835.3z"/>
	<path class="st2" d="M456.7,837.8h-2.9l-0.5-2c-0.3-0.2-0.7-0.4-1.1-0.6s-0.9-0.2-1.5-0.2c-0.8,0-1.3,0.2-1.8,0.5
		c-0.4,0.3-0.7,0.8-0.7,1.3c0,0.5,0.2,0.9,0.6,1.2c0.4,0.3,1.3,0.6,2.5,0.8c2,0.4,3.4,1,4.4,1.7s1.4,1.8,1.4,3.1
		c0,1.4-0.6,2.6-1.8,3.5s-2.8,1.4-4.8,1.4c-1.2,0-2.3-0.2-3.4-0.5c-1-0.4-1.9-0.9-2.7-1.5l0-3.6h3l0.6,2.1c0.3,0.2,0.6,0.4,1,0.5
		c0.4,0.1,0.9,0.2,1.4,0.2c0.9,0,1.5-0.2,2-0.5s0.7-0.7,0.7-1.3c0-0.5-0.2-0.9-0.7-1.2s-1.3-0.6-2.5-0.9c-1.9-0.4-3.3-0.9-4.2-1.7
		c-1-0.7-1.4-1.8-1.4-3.1c0-1.3,0.5-2.5,1.6-3.4s2.7-1.4,4.7-1.4c1.2,0,2.4,0.2,3.5,0.5s2,0.8,2.6,1.3L456.7,837.8z"/>
</g>
<linearGradient id="SVGID_1_" gradientUnits="userSpaceOnUse" x1="80" y1="719.5" x2="498" y2="719.5" gradientTransform="matrix(1 0 0 -1 0 938)">
	<stop  offset="0" style="stop-color:#990066"/>
	<stop  offset="0.19" style="stop-color:#780066"/>
	<stop  offset="0.4" style="stop-color:#5A0066"/>
	<stop  offset="0.61" style="stop-color:#440066"/>
	<stop  offset="0.81" style="stop-color:#370066"/>
	<stop  offset="1" style="stop-color:#330066"/>
</linearGradient>
<path class="st6" d="M498,277.7c0,6-4.3,10.8-9.6,10.8H89.6c-5.3,0-9.6-4.9-9.6-10.8V159.3c0-6,4.3-10.8,9.6-10.8h398.9
	c5.3,0,9.6,4.9,9.6,10.8V277.7z"/>
<linearGradient id="SVGID_00000033370510071355658850000010773603160957761197_" gradientUnits="userSpaceOnUse" x1="869" y1="719.5" x2="1287" y2="719.5" gradientTransform="matrix(1 0 0 -1 0 938)">
	<stop  offset="0" style="stop-color:#990066"/>
	<stop  offset="0.19" style="stop-color:#780066"/>
	<stop  offset="0.4" style="stop-color:#5A0066"/>
	<stop  offset="0.61" style="stop-color:#440066"/>
	<stop  offset="0.81" style="stop-color:#370066"/>
	<stop  offset="1" style="stop-color:#330066"/>
</linearGradient>
<path style="fill:url(#SVGID_00000033370510071355658850000010773603160957761197_);stroke:#FF6633;stroke-width:6;stroke-miterlimit:10;" d="
	M1287,277.7c0,6-4.3,10.8-9.6,10.8H878.6c-5.3,0-9.6-4.9-9.6-10.8V159.3c0-6,4.3-10.8,9.6-10.8h398.9c5.3,0,9.6,4.9,9.6,10.8V277.7z
	"/>
<g class="st1">
	<path class="st8" d="M104.7,105.9v5.7h-3.3l-0.2-2.4h-3.9v15l2.3,0.4v2.6h-8.8v-2.6l2.3-0.4v-15h-3.9l-0.2,2.4h-3.3v-5.7H104.7z"/>
	<path class="st8" d="M106.1,127.2v-2.6l2.3-0.4v-15.3l-2.3-0.4v-2.6h2.3h4.3h2.3v2.6l-2.3,0.4v15h6l0.2-2.7h3.3v6H106.1z"/>
	<path class="st8" d="M139.8,112.7h-3.2l-0.6-2.9c-0.4-0.2-0.9-0.4-1.6-0.6s-1.5-0.3-2.3-0.3c-1.2,0-2.1,0.2-2.7,0.7
		c-0.6,0.5-1,1.1-1,1.9c0,0.7,0.3,1.3,1,1.8c0.7,0.5,1.8,1,3.5,1.5c2.4,0.7,4.1,1.5,5.4,2.6s1.8,2.5,1.8,4.2c0,1.8-0.7,3.3-2.2,4.3
		s-3.3,1.6-5.7,1.6c-1.7,0-3.2-0.3-4.6-0.8s-2.5-1.3-3.4-2.2V120h3.3l0.5,3c0.4,0.4,1,0.6,1.8,0.9s1.6,0.3,2.5,0.3
		c1.2,0,2.1-0.2,2.7-0.7s0.9-1.1,0.9-1.9c0-0.8-0.3-1.5-0.9-2s-1.6-1-3.1-1.4c-2.5-0.7-4.4-1.6-5.7-2.6s-1.9-2.4-1.9-4.1
		c0-1.7,0.7-3.1,2.2-4.2c1.5-1.1,3.3-1.7,5.5-1.7c1.6,0,3.1,0.2,4.5,0.7s2.5,1.2,3.4,2V112.7z"/>
</g>
<g class="st1">
	<path class="st2" d="M1167.9,402.3v-3h2.4v-1.1c0-2,0.6-3.5,1.8-4.6c1.2-1.1,2.9-1.6,5.1-1.6c0.8,0,1.5,0.1,2.3,0.2
		s1.6,0.4,2.6,0.7l-0.6,3.4c-0.7-0.2-1.4-0.4-1.9-0.5s-1.2-0.2-2-0.2c-1,0-1.7,0.2-2.2,0.7s-0.7,1.1-0.7,2v1.1h9.6v12.8l2.3,0.4v2.6
		h-8.6v-2.6l2.1-0.4v-9.8h-5.3v9.8l2.1,0.4v2.6h-8.6v-2.6l2.3-0.4v-9.8H1167.9z"/>
	<path class="st2" d="M1187.5,394.9v-2.6h6.6v19.8l2.1,0.4v2.6h-8.4v-2.6l2.1-0.4v-16.8L1187.5,394.9z"/>
	<path class="st2" d="M1205.1,415.5c-2.3,0-4.1-0.7-5.5-2.2s-2.1-3.3-2.1-5.6v-0.6c0-2.4,0.6-4.3,1.9-5.8s3-2.3,5.2-2.3
		c2.1,0,3.8,0.6,5,1.9s1.8,3,1.8,5.2v2.3h-9.5l0,0.1c0.1,1,0.4,1.9,1,2.6s1.5,1,2.5,1c0.9,0,1.7-0.1,2.4-0.3
		c0.6-0.2,1.3-0.5,2.1-0.9l1.2,2.6c-0.7,0.5-1.5,1-2.5,1.3S1206.4,415.5,1205.1,415.5z M1204.7,402.3c-0.8,0-1.4,0.3-1.9,0.9
		s-0.7,1.4-0.8,2.4l0,0.1h5.2v-0.4c0-0.9-0.2-1.6-0.6-2.2C1206.2,402.6,1205.6,402.3,1204.7,402.3z"/>
</g>
<path class="st3" d="M1252,358.4h-146c-2.8,0-5,2.2-5,5v94.2c0,2.8,2.2,5,5,5h176c2.8,0,5-2.2,5-5V391"/>
<polygon class="st3" points="1287,391 1252,391 1252,358.4 "/>
<g class="st1">
	<path class="st8" d="M1244.6,105.9v5.7h-3.3l-0.2-2.4h-3.9v15l2.3,0.4v2.6h-8.8v-2.6l2.3-0.4v-15h-3.9l-0.2,2.4h-3.3v-5.7H1244.6z"
		/>
	<path class="st8" d="M1246,127.2v-2.6l2.3-0.4v-15.3l-2.3-0.4v-2.6h2.3h4.3h2.3v2.6l-2.3,0.4v15h6l0.2-2.7h3.3v6H1246z"/>
	<path class="st8" d="M1279.8,112.7h-3.2l-0.6-2.9c-0.4-0.2-0.9-0.4-1.6-0.6s-1.5-0.3-2.3-0.3c-1.2,0-2.1,0.2-2.7,0.7
		c-0.6,0.5-1,1.1-1,1.9c0,0.7,0.3,1.3,1,1.8c0.7,0.5,1.8,1,3.5,1.5c2.4,0.7,4.1,1.5,5.4,2.6c1.2,1.1,1.8,2.5,1.8,4.2
		c0,1.8-0.7,3.3-2.2,4.3s-3.3,1.6-5.7,1.6c-1.7,0-3.2-0.3-4.6-0.8c-1.4-0.5-2.5-1.3-3.4-2.2V120h3.3l0.5,3c0.4,0.4,1,0.6,1.8,0.9
		c0.7,0.2,1.6,0.3,2.5,0.3c1.2,0,2.1-0.2,2.7-0.7c0.6-0.5,0.9-1.1,0.9-1.9c0-0.8-0.3-1.5-0.9-2c-0.6-0.5-1.6-1-3.1-1.4
		c-2.5-0.7-4.4-1.6-5.7-2.6s-1.9-2.4-1.9-4.1c0-1.7,0.7-3.1,2.2-4.2c1.5-1.1,3.3-1.7,5.5-1.7c1.6,0,3.1,0.2,4.5,0.7s2.5,1.2,3.4,2
		V112.7z"/>
</g>
<circle class="st9" cx="497.9" cy="231.1" r="11.1"/>
<line class="st10" x1="490" y1="239" x2="505.7" y2="223.3"/>
<circle class="st9" cx="263.9" cy="427.1" r="11.1"/>
<line class="st10" x1="256" y1="435" x2="271.7" y2="419.3"/>
<line class="st11" x1="486.7" y1="189.2" x2="841.7" y2="189.2"/>
<circle class="st9" cx="868.9" cy="190.1" r="11.1"/>
<line class="st10" x1="876.7" y1="182.3" x2="861" y2="198"/>
<g class="st12">
	<path class="st13" d="M71.2,510.4l-1.6,0.3l3.8,12.8l0.3,1.2h0.1l0.2-1.1l3.8-12.8l-1.6-0.3v-2.6H84v2.6l-1.8,0.2l-6.3,18.5h-4.4
		l-6.3-18.5l-1.8-0.2v-2.6h7.8V510.4z"/>
	<path class="st13" d="M105.8,513.4L105.8,513.4l-5.8,15.8h-2.9l-5.7-15.7l-0.1,0l0.4,9.4v3.4l2.3,0.4v2.6h-8.8v-2.6l2.3-0.4v-15.3
		l-2.3-0.4v-2.6h2.3h5.6l5.4,15.7h0.1l5.5-15.7h7.9v2.6l-2.3,0.4v15.3l2.3,0.4v2.6h-8.8v-2.6l2.3-0.4v-3.4L105.8,513.4z"/>
</g>
<path class="st14" d="M53.8,41h1259.3c5.5,0,10,4.5,10,10v491.6c0,5.5-4.5,10-10,10H53.8c-5.5,0-10-4.5-10-10V51
	C43.8,45.5,48.3,41,53.8,41z"/>
<path class="st15" d="M79,638h58c2.8,0,5,2.2,5,5v58c0,2.8-2.2,5-5,5H79c-2.8,0-5-2.2-5-5v-58C74,640.2,76.2,638,79,638z"/>
<path class="st15" d="M79,722h58c2.8,0,5,2.2,5,5v58c0,2.8-2.2,5-5,5H79c-2.8,0-5-2.2-5-5v-58C74,724.2,76.2,722,79,722z"/>
<path class="st16" d="M89.4,682c-0.9,0-1.8,0-2.6,0c-0.5,0-0.6-0.2-0.6-0.6c0-0.8,0-1.5,0-2.3c0-0.4,0.1-0.5,0.5-0.5
	c1.8,0,3.5,0,5.2,0c0.5,0,0.6-0.2,0.6-0.6c0-1.3,0-2.5,0-3.8c0-0.4-0.1-0.6-0.6-0.6c-1.7,0-3.4,0-5.2,0c-0.7,0-0.7,0-0.7-0.7
	s0-1.5,0-2.3c0-0.4,0.1-0.5,0.5-0.5c1.8,0,3.5,0,5.3,0c0.4,0,0.6-0.1,0.6-0.6c0-1.3,0-2.6,0-3.9c0-0.4-0.1-0.5-0.5-0.5h-5.2
	c-0.7,0-0.7,0-0.7-0.7c0-0.8,0-1.6,0-2.3c0-0.4,0.1-0.5,0.5-0.5c1.8,0,3.6,0,5.3,0c0.4,0,0.6-0.1,0.6-0.6c0-1.4,0-2.8,0-4.2
	c0-0.5,0.2-0.6,0.6-0.6c1.5,0,2.9,0,4.4,0c0.4,0,0.6-0.1,0.5-0.5c0-1.7,0-3.5,0-5.2c0-0.4,0.1-0.6,0.6-0.6c0.8,0,1.6,0,2.4,0
	c0.4,0,0.5,0.1,0.5,0.5c0,1.4,0,2.8,0,4.2c0,0.3,0,0.7,0,1s0.1,0.5,0.4,0.5h4.2c0.4,0,0.4-0.2,0.4-0.5c0-1.7,0-3.4,0-5.1
	c0-0.4,0.1-0.6,0.6-0.6c0.8,0,1.6,0,2.3,0c0.4,0,0.5,0.1,0.5,0.5c0,1.7,0,3.4,0,5.2c0,0.5,0.1,0.6,0.6,0.6c1.3,0,2.5,0,3.8,0
	c0.5,0,0.6-0.1,0.6-0.6c0-1.7,0-3.4,0-5.1c0-0.5,0.1-0.6,0.6-0.6c0.8,0,1.5,0,2.3,0c0.4,0,0.6,0.2,0.6,0.6c0,1.7,0,3.4,0,5
	c0,0.4,0.1,0.6,0.6,0.6c1.4,0,2.8,0,4.2,0c0.4,0,0.5,0.1,0.5,0.5c0,1.4,0,2.9,0,4.3c0,0.5,0.1,0.6,0.6,0.6c1.7,0,3.5,0,5.2,0
	c0.4,0,0.6,0.1,0.6,0.5c0,0.8,0,1.6,0,2.4c0,0.4-0.1,0.5-0.6,0.5h-5.2c-0.6,0-0.6,0-0.6,0.6v3.8c0,0.6,0,0.6,0.6,0.6h5.1
	c0.7,0,0.7,0,0.7,0.7v2.3c0,0.6,0,0.6-0.6,0.6c-1.7,0-3.4,0-5.1,0c-0.4,0-0.6,0.1-0.6,0.6c0,1.2,0,2.5,0,3.7c0,0.7,0,0.7,0.7,0.7
	c1.7,0,3.4,0,5.1,0c0.5,0,0.6,0.1,0.6,0.6c0,0.8,0,1.5,0,2.3c0,0.4-0.1,0.5-0.5,0.5c-1.7,0-3.4,0-5.2,0c-0.7,0-0.7,0-0.7,0.6v4.1
	c0,0.7,0,0.7-0.7,0.7c-1.3,0-2.7,0-4,0c-0.4,0-0.6,0.1-0.6,0.6c0,1.7,0,3.4,0,5.1c0,0.5-0.2,0.6-0.6,0.6c-0.7,0-1.4,0-2.2,0
	s-0.7,0-0.7-0.6v-4.8c0-0.7,0-0.7-0.7-0.7c-1.3,0-2.5,0-3.8,0c-0.4,0-0.5,0.1-0.5,0.5c0,1.7,0,3.4,0,5.1c0,0.5-0.2,0.6-0.6,0.6
	c-0.7,0-1.4,0-2.2,0s-0.7,0-0.7-0.7c0-1.6,0-3.2,0-4.9c0-0.5-0.1-0.6-0.6-0.6c-1.3,0-2.6,0-3.8,0c-0.4,0-0.6,0.1-0.6,0.5
	c0,1.7,0,3.3,0,5c0,0.6,0,0.6-0.6,0.6c-0.8,0-1.6,0-2.3,0c-0.4,0-0.5-0.1-0.5-0.5c0-1.7,0-3.3,0-5c0-0.7,0-0.7-0.7-0.7h-4.2
	c-0.6,0-0.6,0-0.6-0.6c0-1.4,0-2.8,0-4.3c0-0.4-0.1-0.5-0.5-0.5C91.2,682,90.3,682,89.4,682z M108.2,660H97c-0.6,0-0.6,0-0.6,0.7
	v22.5c0,0.7,0,0.7,0.6,0.7h22.5c0.7,0,0.7,0,0.7-0.7v-22.5c0-0.7,0-0.7-0.7-0.7L108.2,660z"/>
<path class="st16" d="M113.1,669.6c0.1,1,0.2,1-0.6,1.3c-2.2,1-4.7,1.5-7.1,1.3c-1,0-2.1-0.3-3-0.8c-1.1-0.5-1.9-1.7-1.9-2.9
	c0-1.3,0.5-2.5,1.5-3.3l0.2,0.1c-0.1,0.2-0.2,0.4-0.3,0.6c-0.6,0.8-0.9,1.8-0.7,2.7c0.2,1,0.9,1.8,1.9,2.1c1.5,0.5,3,0.6,4.6,0.4
	c1.8-0.2,3.6-0.7,5.2-1.5C112.9,669.7,113,669.6,113.1,669.6z"/>
<path class="st16" d="M110.1,676.2c-0.3,0.9-0.3,0.9-1,0.7c-0.7-0.2-1.6,0-2.1,0.6c-0.4,0.8-0.4,1.8,0.2,2.6
	c0.4,0.4,1.1,0.6,1.6,0.4c0.4-0.1,0.2-0.5,0.2-0.7s-0.1-0.4-0.4-0.4c-0.6,0-0.7-0.1-0.6-0.6c0.1-0.2,0.2-0.3,0.3-0.3
	c0.5,0,1,0,1.4,0c0.2,0,0.3,0.2,0.3,0.3c0,0.7,0,1.3,0,2c0,0.1-0.1,0.3-0.2,0.3c-1.2,0.6-2.6,0.4-3.7-0.4c-0.8-1-1-2.3-0.5-3.5
	c0.6-1.1,1.8-1.7,3-1.4C109.2,675.9,109.6,676,110.1,676.2z"/>
<path class="st16" d="M112.6,679.5c-0.3,0.4-0.5,0.8-0.8,1.2c-0.4,0.7-0.7,0.8-1.6,0.6c0.3-0.5,0.6-1,0.9-1.5s0.7-0.9,0.7-1.3
	s-0.5-0.8-0.7-1.3s-0.5-0.8-0.8-1.2c0.7-0.3,1.2-0.2,1.6,0.4l0.7,1.2l0.8-1.2c0.4-0.6,0.8-0.7,1.5-0.4c-0.4,0.6-0.8,1.3-1.3,1.8
	c-0.3,0.3-0.3,0.8,0,1.2c0,0,0,0,0,0c0.5,0.7,1,1.4,1.5,2.2c-0.9,0.3-1.2,0.2-1.7-0.6l-0.8-1.2L112.6,679.5z"/>
<path class="st16" d="M101.7,680.2c0.6,0.1,1.2,0.2,1.8,0.3c0.3,0,0.7-0.2,0.7-0.5c0,0,0,0,0,0c0.1-0.4-0.2-0.6-0.5-0.7
	s-0.8-0.2-1.1-0.3c-0.7-0.1-1.2-0.8-1.2-1.5c0-0.7,0.5-1.3,1.2-1.5c0.8-0.2,1.6-0.1,2.4,0.3c0.2,0.1,0.3,0.2,0.2,0.5
	s-0.2,0.5-0.6,0.3c-0.4-0.1-0.9-0.2-1.3-0.2c-0.3,0-0.7,0.2-0.7,0.5c0,0,0,0,0,0c-0.1,0.4,0.2,0.6,0.5,0.7s0.9,0.3,1.3,0.4
	c0.6,0.2,1,0.7,1,1.3c0,0.7-0.4,1.2-1,1.5c-0.9,0.3-1.8,0.3-2.6-0.1c-0.6-0.3-0.6-0.3-0.2-0.8c0.1-0.1,0.1-0.1,0.2-0.2
	C101.6,680.1,101.7,680.2,101.7,680.2z"/>
<path class="st16" d="M103.7,664c0.1,0,0.2-0.1,0.3-0.1c2.8-1.7,6.2-2.1,9.3-1.2c1.2,0.3,2,1.2,2.3,2.4c0.3,1.6-0.6,3.2-2.1,3.8
	c-0.2-0.3-0.1-0.8,0.2-1c0.4-0.3,0.7-0.7,1-1.2c0.6-1.3,0-2.8-1.3-3.3c-0.1,0-0.2-0.1-0.3-0.1c-1.1-0.5-2.4-0.6-3.6-0.5
	c-1.9,0.1-3.7,0.6-5.4,1.4c-0.1,0-0.2,0.1-0.3,0.1L103.7,664z"/>
<path class="st16" d="M111.5,668.5c-0.5,0.6-1.5,0.7-2.1,0.2c-0.1-0.1-0.2-0.2-0.2-0.3c-0.5-0.8-0.3-1.8,0.4-2.3
	c0.2-0.1,0.5-0.2,0.7-0.3c0.8,0,1.4,0.7,1.4,1.4c0,0.1,0,0.1,0,0.2c-0.1,0.1-0.2,0.2-0.4,0.2c-0.4,0-0.8,0-1.2,0
	c-0.1,0-0.2,0.1-0.3,0.2c0.1,0.1,0.1,0.3,0.2,0.3c0.3,0.1,0.5,0.1,0.8,0c0.2-0.1,0.6-0.1,0.7,0.2
	C111.4,668.4,111.5,668.4,111.5,668.5z M110.2,667.2c0.2-0.1,0.4-0.2,0.5-0.3c-0.2-0.1-0.3-0.4-0.5-0.4s-0.4,0.3-0.5,0.4
	L110.2,667.2z"/>
<path class="st16" d="M104.1,667.4c0-0.4,0-0.7,0-1.1s0.1-0.5,0.4-0.5s0.8,0,1.3,0c0.5,0,0.9,0.3,0.9,0.8c0,0.1,0,0.2,0,0.2
	c0,0.5,0,1.1,0,1.6c0,0.3-0.1,0.5-0.4,0.5s-0.3-0.2-0.3-0.5c0-0.5,0-1,0-1.5s-0.2-0.5-0.5-0.5s-0.4,0.2-0.4,0.5c0,0.5,0,1,0,1.5
	c0,0.3-0.1,0.4-0.4,0.4s-0.4-0.1-0.4-0.4S104.1,667.8,104.1,667.4L104.1,667.4z"/>
<path class="st16" d="M108.4,668.9c-0.7,0-1.1-0.3-1.1-0.9c0-0.9,0-1.7,0-2.6c0-0.3,0.1-0.4,0.4-0.5s0.4,0.2,0.4,0.4
	s0.2,0.3,0.3,0.4s0.2,0.2,0.2,0.3s-0.2,0.2-0.2,0.3s-0.3,0.2-0.3,0.4c-0.1,0.3-0.1,0.7,0,1c0,0.2,0.2,0.3,0.3,0.4s0.2,0.3,0.2,0.4
	S108.4,668.9,108.4,668.9z"/>
<path class="st16" d="M112.9,668.9c-0.5-0.1-0.8-0.3-0.8-0.7c0-1.1,0-2.1,0-3.2c0-0.2,0.1-0.4,0.4-0.4s0.4,0.2,0.4,0.2
	C112.9,666.2,112.9,667.5,112.9,668.9z"/>
<path class="st16" d="M103.5,668.9c-0.4,0-0.7-0.2-0.7-0.6c0-0.7-0.1-1.5,0-2.2c0-0.1,0.2-0.3,0.4-0.3s0.4,0.1,0.4,0.2
	C103.5,667,103.5,668,103.5,668.9z"/>
<path class="st16" d="M103.5,665.2c-0.1,0.1-0.2,0.2-0.3,0.2c-0.2,0-0.5,0-0.5-0.4s0.1-0.4,0.4-0.4S103.5,664.7,103.5,665.2z"/>
<path class="st17" d="M110.9,745.8h-4c-0.8,0-1.5,0.7-1.5,1.5v4c0,0.8,0.7,1.5,1.5,1.5h4c0.8,0,1.5-0.7,1.5-1.5v-4
	C112.4,746.5,111.8,745.8,110.9,745.8z M97.2,752.8h4c0.8,0,1.5-0.7,1.5-1.5v-4c0-0.8-0.7-1.5-1.5-1.5h-4c-0.8,0-1.5,0.7-1.5,1.5v4
	C95.7,752.2,96.4,752.8,97.2,752.8z M92.9,751.3v-4c0-0.8-0.7-1.5-1.5-1.5h-4c-0.8,0.1-1.4,0.7-1.4,1.5v4c0,0.8,0.7,1.5,1.5,1.5h4
	C92.3,752.8,92.9,752.1,92.9,751.3L92.9,751.3z M111.2,755.6c-0.6,0-1.1,0.5-1.1,1.1v4.7c0,0.6,0.5,1.1,1.1,1.1
	c0.6,0,1.1-0.5,1.1-1.1v-4.7c0-0.6-0.4-1.1-1-1.1C111.3,755.6,111.3,755.6,111.2,755.6L111.2,755.6z M100.4,757.2v4
	c0,0.8,0.7,1.5,1.5,1.5c0,0,0,0,0,0h3.9c0.8,0,1.5-0.7,1.5-1.5l0,0v-4c0-0.8-0.7-1.5-1.5-1.5h-3.9
	C101.1,755.7,100.4,756.3,100.4,757.2z M97.6,761.2v-4c0-0.8-0.7-1.5-1.5-1.5h-4c-0.8,0-1.5,0.7-1.5,1.5v4c0,0.8,0.7,1.5,1.5,1.5h4
	C96.9,762.7,97.6,762,97.6,761.2L97.6,761.2z M110.9,765.5h-4c-0.8,0-1.5,0.7-1.5,1.5v4c0,0.8,0.7,1.5,1.5,1.5h4
	c0.8,0,1.5-0.7,1.5-1.5v-4C112.4,766.2,111.8,765.5,110.9,765.5L110.9,765.5z M100.7,765.5h-3.9c-0.8,0-1.5,0.7-1.5,1.5v4
	c0,0.8,0.7,1.5,1.5,1.5h3.9c0.8,0,1.5-0.7,1.5-1.5v-4C102.2,766.2,101.5,765.5,100.7,765.5L100.7,765.5z"/>
<path class="st17" d="M115.7,744.2c0.5,0.5,2.3,1.9,6.1,1.9c0.2,0,0.1,0.2,0.1,0.3v10.8c0,4.2-5.1,6.8-6.3,7.4
	c-0.2,0.1-0.2-0.1-0.2-0.1l0.1-20.3C115.5,744.3,115.6,744.1,115.7,744.2z"/>
<path class="st17" d="M103.8,743.7c8.3-0.3,9.7-3.2,9.7-3.2c0.1-0.1,0.2-0.2,0.4-0.2l0,0c0.2,0,0.3,0,0.4,0.2s1.3,3.1,9.6,3.1
	c0.2,0,0.3,0.2,0.3,0.4v14.3c0,4.5-8.7,9.7-8.8,9.8s-0.3,0.2-0.3,0.3v3.6c0,0.2,0.5,0.2,0.8,0.2c3.2-1.8,12.1-6.7,12.1-12.8V741
	c0-0.3-0.5-0.5-0.8-0.5c-10.6,0-12.6-3.9-12.6-3.9c-0.1-0.2-0.5-0.2-0.7-0.2l0,0c-0.2,0-0.4-0.1-0.5,0.1s-1.7,4-12.3,4
	c-0.4,0-0.5,0.2-0.5,0.5v2.3c0,0-0.1,0.5,0.3,0.5S103.8,743.7,103.8,743.7z"/>
<path class="st15" d="M79,806h58c2.8,0,5,2.2,5,5v58c0,2.8-2.2,5-5,5H79c-2.8,0-5-2.2-5-5v-58C74,808.2,76.2,806,79,806z"/>
<path class="st17" d="M110.9,829.8h-4c-0.8,0-1.5,0.7-1.5,1.5v4c0,0.8,0.7,1.5,1.5,1.5h4c0.8,0,1.5-0.7,1.5-1.5v-4
	C112.4,830.5,111.8,829.8,110.9,829.8z M97.2,836.8h4c0.8,0,1.5-0.7,1.5-1.5v-4c0-0.8-0.7-1.5-1.5-1.5h-4c-0.8,0-1.5,0.7-1.5,1.5v4
	C95.7,836.2,96.4,836.8,97.2,836.8z M92.9,835.3v-4c0-0.8-0.7-1.5-1.5-1.5h-4c-0.8,0.1-1.4,0.7-1.4,1.5v4c0,0.8,0.7,1.5,1.5,1.5h4
	C92.3,836.8,92.9,836.1,92.9,835.3L92.9,835.3z M111.2,839.6c-0.6,0-1.1,0.5-1.1,1.1v4.7c0,0.6,0.5,1.1,1.1,1.1
	c0.6,0,1.1-0.5,1.1-1.1v-4.7c0-0.6-0.4-1.1-1-1.1C111.3,839.6,111.3,839.6,111.2,839.6L111.2,839.6z M100.4,841.2v4
	c0,0.8,0.7,1.5,1.5,1.5c0,0,0,0,0,0h3.9c0.8,0,1.5-0.7,1.5-1.5l0,0v-4c0-0.8-0.7-1.5-1.5-1.5h-3.9
	C101.1,839.7,100.4,840.3,100.4,841.2z M97.6,845.2v-4c0-0.8-0.7-1.5-1.5-1.5h-4c-0.8,0-1.5,0.7-1.5,1.5v4c0,0.8,0.7,1.5,1.5,1.5h4
	C96.9,846.7,97.6,846,97.6,845.2L97.6,845.2z M110.9,849.5h-4c-0.8,0-1.5,0.7-1.5,1.5v4c0,0.8,0.7,1.5,1.5,1.5h4
	c0.8,0,1.5-0.7,1.5-1.5v-4C112.4,850.2,111.8,849.5,110.9,849.5L110.9,849.5z M100.7,849.5h-3.9c-0.8,0-1.5,0.7-1.5,1.5v4
	c0,0.8,0.7,1.5,1.5,1.5h3.9c0.8,0,1.5-0.7,1.5-1.5v-4C102.2,850.2,101.5,849.5,100.7,849.5L100.7,849.5z"/>
<path class="st17" d="M115.7,828.2c0.5,0.5,2.3,1.9,6.1,1.9c0.2,0,0.1,0.2,0.1,0.3v10.8c0,4.2-5.1,6.8-6.3,7.4
	c-0.2,0.1-0.2-0.1-0.2-0.1l0.1-20.3C115.5,828.3,115.6,828.1,115.7,828.2z"/>
<path class="st17" d="M103.8,827.7c8.3-0.3,9.7-3.2,9.7-3.2c0.1-0.1,0.2-0.2,0.4-0.2l0,0c0.2,0,0.3,0,0.4,0.2s1.3,3.1,9.6,3.1
	c0.2,0,0.3,0.2,0.3,0.4v14.3c0,4.5-8.7,9.7-8.8,9.8s-0.3,0.2-0.3,0.3v3.6c0,0.2,0.5,0.2,0.8,0.2c3.2-1.8,12.1-6.7,12.1-12.8V825
	c0-0.3-0.5-0.5-0.8-0.5c-10.6,0-12.6-3.9-12.6-3.9c-0.1-0.2-0.5-0.2-0.7-0.2l0,0c-0.2,0-0.4-0.1-0.5,0.1s-1.7,4-12.3,4
	c-0.4,0-0.5,0.2-0.5,0.5v2.3c0,0-0.1,0.5,0.3,0.5S103.8,827.7,103.8,827.7z"/>
<g class="st1">
	<path class="st8" d="M210.5,338.5c-2.3,0-4.1-0.7-5.5-2.2s-2.1-3.3-2.1-5.6v-0.6c0-2.4,0.6-4.3,1.9-5.8s3-2.3,5.2-2.3
		c2.1,0,3.8,0.6,5,1.9s1.8,3,1.8,5.2v2.3h-9.5l0,0.1c0.1,1,0.4,1.9,1,2.6s1.5,1,2.5,1c0.9,0,1.7-0.1,2.4-0.3
		c0.6-0.2,1.3-0.5,2.1-0.9l1.2,2.6c-0.7,0.5-1.5,1-2.5,1.3S211.8,338.5,210.5,338.5z M210.1,325.3c-0.8,0-1.4,0.3-1.9,0.9
		s-0.7,1.4-0.8,2.4l0,0.1h5.2v-0.4c0-0.9-0.2-1.6-0.6-2.2C211.6,325.6,211,325.3,210.1,325.3z"/>
</g>
<g class="st1">
	<path class="st8" d="M218.7,335.6l2.1-0.4v-9.8l-2.3-0.4v-2.6h6.3l0.2,2.3c0.5-0.8,1.2-1.4,1.9-1.9s1.6-0.7,2.6-0.7
		c1.6,0,2.9,0.5,3.8,1.5s1.3,2.6,1.3,4.7v6.9l2.1,0.4v2.6h-8.2v-2.6l1.8-0.4v-6.9c0-1.1-0.2-1.8-0.6-2.3s-1.1-0.7-1.9-0.7
		c-0.6,0-1.1,0.1-1.5,0.3s-0.8,0.6-1.1,1v8.5l1.7,0.4v2.6h-8.1V335.6z"/>
</g>
<g class="st1">
	<path class="st8" d="M245.2,335.2c0.8,0,1.4-0.2,1.8-0.7c0.5-0.4,0.7-1,0.7-1.8h3.9l0,0.1c0,1.6-0.6,2.9-1.8,4s-2.8,1.6-4.6,1.6
		c-2.4,0-4.2-0.7-5.5-2.2s-1.9-3.4-1.9-5.8v-0.4c0-2.3,0.7-4.3,2-5.8s3.2-2.3,5.6-2.3c1.3,0,2.4,0.2,3.4,0.6s1.9,0.9,2.5,1.6
		l0.1,4.2H248l-0.7-2.5c-0.2-0.2-0.5-0.3-0.8-0.5c-0.3-0.1-0.7-0.2-1.1-0.2c-1.2,0-2.1,0.4-2.6,1.3s-0.7,2-0.7,3.4v0.4
		c0,1.4,0.2,2.6,0.7,3.4C243.3,334.8,244.1,335.2,245.2,335.2z"/>
</g>
<g class="st1">
	<path class="st8" d="M253.9,335.6l2.1-0.4v-9.8l-2.3-0.4v-2.6h6.3l0.2,2.3c0.4-0.8,0.8-1.5,1.4-1.9s1.3-0.7,2-0.7
		c0.2,0,0.5,0,0.7,0.1c0.2,0,0.5,0.1,0.6,0.1l-0.5,3.9l-1.8,0c-0.6,0-1.1,0.1-1.6,0.4s-0.7,0.6-0.9,1v7.7l2.1,0.4v2.6h-8.4V335.6z"
		/>
</g>
<g class="st1">
	<path class="st8" d="M282.9,324.9l-1.5,0.2l-5.8,15.4c-0.5,1.1-1.1,2.1-1.8,2.9s-1.9,1.2-3.5,1.2c-0.4,0-0.7,0-1-0.1
		s-0.7-0.1-1.1-0.2l0.5-3.1c0.1,0,0.3,0,0.4,0.1s0.3,0,0.4,0c0.7,0,1.3-0.2,1.6-0.5s0.7-0.8,0.9-1.3l0.5-1.2l-5-13.1l-1.5-0.2v-2.6
		h7.8v2.6l-1.8,0.3l2.2,6.3l0.2,1.1l0.1,0l2.5-7.5l-1.8-0.3v-2.6h7.8V324.9z"/>
	<path class="st8" d="M283.9,324.9v-2.6h6.2l0.2,1.8c0.5-0.7,1-1.2,1.7-1.6s1.4-0.6,2.3-0.6c2,0,3.5,0.8,4.6,2.3s1.6,3.5,1.6,6v0.3
		c0,2.3-0.5,4.2-1.6,5.7s-2.6,2.1-4.5,2.1c-0.8,0-1.6-0.2-2.2-0.5c-0.6-0.3-1.2-0.8-1.7-1.4v4.6l2.1,0.4v2.6h-8.4v-2.6l2.1-0.4
		v-15.9L283.9,324.9z M296.2,330.4c0-1.5-0.2-2.7-0.7-3.6s-1.3-1.4-2.3-1.4c-0.6,0-1.2,0.1-1.6,0.4s-0.8,0.6-1.1,1.1v6.9
		c0.3,0.4,0.6,0.8,1.1,1s1,0.4,1.7,0.4c1,0,1.8-0.4,2.3-1.2s0.7-1.9,0.7-3.3V330.4z"/>
	<path class="st8" d="M308.7,318.4v3.9h2.8v3h-2.8v8.1c0,0.6,0.1,1.1,0.4,1.3s0.6,0.4,1,0.4c0.3,0,0.5,0,0.8,0s0.5-0.1,0.7-0.1
		l0.4,3.1c-0.5,0.1-1,0.3-1.4,0.3c-0.5,0.1-1,0.1-1.5,0.1c-1.5,0-2.6-0.4-3.4-1.2s-1.2-2.1-1.2-3.9v-8.1h-2.3v-3h2.3v-3.9H308.7z"/>
	<path class="st8" d="M321.2,338.5c-2.3,0-4.1-0.7-5.5-2.2s-2.1-3.3-2.1-5.6v-0.6c0-2.4,0.6-4.3,1.9-5.8s3-2.3,5.2-2.3
		c2.1,0,3.8,0.6,5,1.9s1.8,3,1.8,5.2v2.3h-9.5l0,0.1c0.1,1,0.4,1.9,1,2.6s1.5,1,2.5,1c0.9,0,1.7-0.1,2.4-0.3
		c0.6-0.2,1.3-0.5,2.1-0.9l1.2,2.6c-0.7,0.5-1.5,1-2.5,1.3S322.5,338.5,321.2,338.5z M320.8,325.3c-0.8,0-1.4,0.3-1.9,0.9
		s-0.7,1.4-0.8,2.4l0,0.1h5.2v-0.4c0-0.9-0.2-1.6-0.6-2.2C322.3,325.6,321.7,325.3,320.8,325.3z"/>
	<path class="st8" d="M339.9,336.2c-0.5,0.7-1.1,1.3-1.8,1.7s-1.5,0.6-2.3,0.6c-2,0-3.5-0.7-4.5-2.1s-1.6-3.3-1.6-5.7v-0.3
		c0-2.5,0.5-4.5,1.6-6s2.6-2.3,4.6-2.3c0.8,0,1.5,0.2,2.1,0.5c0.6,0.3,1.2,0.8,1.7,1.5v-5.7l-2.3-0.4v-2.6h2.3h4.3v19.8l2.1,0.4v2.6
		h-5.8L339.9,336.2z M333.9,330.7c0,1.4,0.2,2.5,0.7,3.3s1.2,1.2,2.3,1.2c0.6,0,1.2-0.1,1.6-0.4s0.8-0.6,1.1-1.1V327
		c-0.3-0.5-0.7-0.9-1.1-1.2c-0.5-0.3-1-0.4-1.6-0.4c-1,0-1.8,0.5-2.3,1.4s-0.7,2.1-0.7,3.6V330.7z"/>
</g>
<g class="st1">
	<path class="st8" d="M1016.1,338.5c-2.3,0-4.1-0.7-5.5-2.2s-2.1-3.3-2.1-5.6v-0.6c0-2.4,0.6-4.3,1.9-5.8c1.3-1.5,3-2.3,5.2-2.3
		c2.1,0,3.8,0.6,5,1.9s1.8,3,1.8,5.2v2.3h-9.5l0,0.1c0.1,1,0.4,1.9,1,2.6c0.6,0.7,1.5,1,2.5,1c0.9,0,1.7-0.1,2.4-0.3
		c0.6-0.2,1.3-0.5,2.1-0.9l1.2,2.6c-0.7,0.5-1.5,1-2.5,1.3C1018.5,338.3,1017.4,338.5,1016.1,338.5z M1015.7,325.3
		c-0.8,0-1.4,0.3-1.9,0.9s-0.7,1.4-0.8,2.4l0,0.1h5.2v-0.4c0-0.9-0.2-1.6-0.6-2.2C1017.2,325.6,1016.6,325.3,1015.7,325.3z"/>
</g>
<g class="st1">
	<path class="st8" d="M1024.2,335.6l2.1-0.4v-9.8l-2.3-0.4v-2.6h6.3l0.2,2.3c0.5-0.8,1.2-1.4,1.9-1.9s1.6-0.7,2.6-0.7
		c1.6,0,2.9,0.5,3.8,1.5s1.3,2.6,1.3,4.7v6.9l2.1,0.4v2.6h-8.2v-2.6l1.8-0.4v-6.9c0-1.1-0.2-1.8-0.6-2.3s-1.1-0.7-1.9-0.7
		c-0.6,0-1.1,0.1-1.5,0.3s-0.8,0.6-1.1,1v8.5l1.7,0.4v2.6h-8.1V335.6z"/>
</g>
<g class="st1">
	<path class="st8" d="M1050.8,335.2c0.8,0,1.4-0.2,1.8-0.7c0.5-0.4,0.7-1,0.7-1.8h3.9l0,0.1c0,1.6-0.6,2.9-1.8,4s-2.8,1.6-4.6,1.6
		c-2.4,0-4.2-0.7-5.5-2.2s-1.9-3.4-1.9-5.8v-0.4c0-2.3,0.7-4.3,2-5.8c1.3-1.5,3.2-2.3,5.6-2.3c1.3,0,2.4,0.2,3.4,0.6
		s1.9,0.9,2.5,1.6l0.1,4.2h-3.5l-0.7-2.5c-0.2-0.2-0.5-0.3-0.8-0.5c-0.3-0.1-0.7-0.2-1.1-0.2c-1.2,0-2.1,0.4-2.6,1.3s-0.7,2-0.7,3.4
		v0.4c0,1.4,0.2,2.6,0.7,3.4C1048.9,334.8,1049.7,335.2,1050.8,335.2z"/>
</g>
<g class="st1">
	<path class="st8" d="M1059.5,335.6l2.1-0.4v-9.8l-2.3-0.4v-2.6h6.3l0.2,2.3c0.4-0.8,0.8-1.5,1.4-1.9s1.3-0.7,2-0.7
		c0.2,0,0.5,0,0.7,0.1c0.2,0,0.5,0.1,0.6,0.1l-0.5,3.9l-1.8,0c-0.6,0-1.1,0.1-1.6,0.4s-0.7,0.6-0.9,1v7.7l2.1,0.4v2.6h-8.4V335.6z"
		/>
</g>
<g class="st1">
	<path class="st8" d="M1088.5,324.9l-1.5,0.2l-5.8,15.4c-0.5,1.1-1.1,2.1-1.8,2.9s-1.9,1.2-3.5,1.2c-0.4,0-0.7,0-1-0.1
		s-0.7-0.1-1.1-0.2l0.5-3.1c0.1,0,0.3,0,0.4,0.1s0.3,0,0.4,0c0.7,0,1.3-0.2,1.6-0.5s0.7-0.8,0.9-1.3l0.5-1.2l-5-13.1l-1.5-0.2v-2.6
		h7.8v2.6l-1.8,0.3l2.2,6.3l0.2,1.1l0.1,0l2.5-7.5l-1.8-0.3v-2.6h7.8V324.9z"/>
	<path class="st8" d="M1089.5,324.9v-2.6h6.2l0.2,1.8c0.5-0.7,1-1.2,1.7-1.6s1.4-0.6,2.3-0.6c2,0,3.5,0.8,4.6,2.3s1.6,3.5,1.6,6v0.3
		c0,2.3-0.5,4.2-1.6,5.7s-2.6,2.1-4.5,2.1c-0.8,0-1.6-0.2-2.2-0.5c-0.6-0.3-1.2-0.8-1.7-1.4v4.6l2.1,0.4v2.6h-8.4v-2.6l2.1-0.4
		v-15.9L1089.5,324.9z M1101.8,330.4c0-1.5-0.2-2.7-0.7-3.6s-1.3-1.4-2.3-1.4c-0.6,0-1.2,0.1-1.6,0.4s-0.8,0.6-1.1,1.1v6.9
		c0.3,0.4,0.6,0.8,1.1,1s1,0.4,1.7,0.4c1,0,1.8-0.4,2.3-1.2s0.7-1.9,0.7-3.3V330.4z"/>
	<path class="st8" d="M1114.3,318.4v3.9h2.8v3h-2.8v8.1c0,0.6,0.1,1.1,0.4,1.3s0.6,0.4,1,0.4c0.3,0,0.5,0,0.8,0s0.5-0.1,0.7-0.1
		l0.4,3.1c-0.5,0.1-1,0.3-1.4,0.3c-0.5,0.1-1,0.1-1.5,0.1c-1.5,0-2.6-0.4-3.4-1.2s-1.2-2.1-1.2-3.9v-8.1h-2.3v-3h2.3v-3.9H1114.3z"
		/>
	<path class="st8" d="M1126.8,338.5c-2.3,0-4.1-0.7-5.5-2.2s-2.1-3.3-2.1-5.6v-0.6c0-2.4,0.6-4.3,1.9-5.8s3-2.3,5.2-2.3
		c2.1,0,3.8,0.6,5,1.9s1.8,3,1.8,5.2v2.3h-9.5l0,0.1c0.1,1,0.4,1.9,1,2.6s1.5,1,2.5,1c0.9,0,1.7-0.1,2.4-0.3
		c0.6-0.2,1.3-0.5,2.1-0.9l1.2,2.6c-0.7,0.5-1.5,1-2.5,1.3S1128,338.5,1126.8,338.5z M1126.4,325.3c-0.8,0-1.4,0.3-1.9,0.9
		s-0.7,1.4-0.8,2.4l0,0.1h5.2v-0.4c0-0.9-0.2-1.6-0.6-2.2C1127.9,325.6,1127.2,325.3,1126.4,325.3z"/>
	<path class="st8" d="M1145.5,336.2c-0.5,0.7-1.1,1.3-1.8,1.7s-1.5,0.6-2.3,0.6c-2,0-3.5-0.7-4.5-2.1s-1.6-3.3-1.6-5.7v-0.3
		c0-2.5,0.5-4.5,1.6-6s2.6-2.3,4.6-2.3c0.8,0,1.5,0.2,2.1,0.5c0.6,0.3,1.2,0.8,1.7,1.5v-5.7l-2.3-0.4v-2.6h2.3h4.3v19.8l2.1,0.4v2.6
		h-5.8L1145.5,336.2z M1139.5,330.7c0,1.4,0.2,2.5,0.7,3.3s1.2,1.2,2.3,1.2c0.6,0,1.2-0.1,1.6-0.4s0.8-0.6,1.1-1.1V327
		c-0.3-0.5-0.7-0.9-1.1-1.2c-0.5-0.3-1-0.4-1.6-0.4c-1,0-1.8,0.5-2.3,1.4s-0.7,2.1-0.7,3.6V330.7z"/>
</g>
<path class="st18" d="M150.7,438.1c10.6-10.4,27.5-10.3,37.9,0.3c10.4,10.6,10.3,27.5-0.3,37.9c-10.6,10.4-27.5,10.3-37.9-0.3
	c-4.9-5-7.7-11.7-7.7-18.8c0-5.9,1.9-11.6,5.5-16.2"/>
<path class="st19" d="M168.8,470.2h-9.7c-1.3,0-1.8-0.5-1.8-1.8v-14.8c0-1.3,0.5-1.8,1.8-1.8h19.3c1.2,0,1.8,0.5,1.8,1.8v14.8
	c0,1.2-0.5,1.8-1.8,1.8C175.2,470.3,172,470.2,168.8,470.2z"/>
<path class="st19" d="M158.9,450.5c0.3-4.1,2-7.7,6-9.5c4.8-2.1,10.5,0,12.6,4.9c0.2,0.5,0.4,1.1,0.6,1.6c0.2,0.9,0.3,1.8,0.5,2.7"
	/>
<path class="st17" d="M167.2,463.9L167.2,463.9v2c0,0.4,0.1,0.5,0.6,0.5h1.9c0.5,0,0.7-0.1,0.7-0.6v-3.7c0-0.4,0.2-0.7,0.5-0.9
	c1.2-0.6,1.8-2,1.4-3.3c-0.5-1.3-1.9-2.2-3.3-2.2c-1.5-0.1-3,0.7-3.7,2c-0.5,1.3,0,2.8,1.2,3.5c0.4,0.2,0.7,0.6,0.6,1.1
	C167.2,462.8,167.2,463.4,167.2,463.9z"/>
<path class="st18" d="M1174.7,438.1c10.6-10.4,27.5-10.3,37.9,0.3c10.4,10.6,10.3,27.5-0.3,37.9c-10.6,10.4-27.5,10.3-37.9-0.3
	c-4.9-5-7.7-11.7-7.7-18.8c0-5.9,1.9-11.6,5.5-16.2"/>
<path class="st19" d="M1192.8,470.2h-9.7c-1.3,0-1.8-0.5-1.8-1.8v-14.8c0-1.3,0.5-1.8,1.8-1.8h19.3c1.2,0,1.8,0.5,1.8,1.8v14.8
	c0,1.2-0.5,1.8-1.8,1.8C1199.2,470.3,1196,470.2,1192.8,470.2z"/>
<path class="st19" d="M1182.9,450.5c0.3-4.1,2-7.7,6-9.5c4.8-2.1,10.5,0,12.6,4.9c0.2,0.5,0.4,1.1,0.6,1.6c0.2,0.9,0.3,1.8,0.5,2.7"
	/>
<path class="st17" d="M1191.2,463.9L1191.2,463.9v2c0,0.4,0.1,0.5,0.6,0.5h1.9c0.5,0,0.7-0.1,0.7-0.6v-3.7c0-0.4,0.2-0.7,0.5-0.9
	c1.2-0.6,1.8-2,1.4-3.3c-0.5-1.3-1.9-2.2-3.3-2.2c-1.5-0.1-3,0.7-3.7,2c-0.5,1.3,0,2.8,1.2,3.5c0.4,0.2,0.7,0.6,0.6,1.1
	C1191.2,462.8,1191.2,463.4,1191.2,463.9z"/>
<path class="st18" d="M220.6,167c9-8.8,23.4-8.7,32.2,0.3c8.8,9,8.7,23.4-0.3,32.2c-9,8.8-23.4,8.7-32.2-0.3
	c-4.2-4.3-6.5-10-6.5-15.9c0-5,1.6-9.8,4.6-13.8"/>
<path class="st19" d="M236,194.2h-8.2c-1.1,0-1.6-0.4-1.6-1.6v-12.5c0-1.1,0.4-1.6,1.6-1.6h16.4c1.1,0,1.5,0.4,1.5,1.5v12.6
	c0,1.1-0.4,1.5-1.5,1.5C241.4,194.3,238.7,194.2,236,194.2z"/>
<path class="st19" d="M227.6,177.5c0.2-3.5,1.7-6.5,5.1-8c4.1-1.8,8.9,0,10.7,4.2c0.2,0.4,0.4,0.9,0.5,1.4c0.2,0.8,0.3,1.5,0.4,2.3"
	/>
<path class="st17" d="M234.6,188.8L234.6,188.8v1.7c0,0.3,0.1,0.4,0.5,0.4h1.6c0.4,0,0.6-0.1,0.6-0.5v-3.1c0-0.3,0.1-0.6,0.4-0.7
	c1-0.5,1.5-1.7,1.2-2.8c-0.5-1.1-1.6-1.9-2.8-1.9c-1.3-0.1-2.5,0.5-3.1,1.7c-0.4,1.1,0,2.4,1.1,2.9c0.4,0.1,0.6,0.5,0.5,0.9
	C234.6,187.9,234.6,188.4,234.6,188.8z"/>
<g class="st1">
	<path class="st15" d="M109.9,258.8H107l-0.5-2c-0.3-0.2-0.7-0.4-1.1-0.6s-0.9-0.2-1.5-0.2c-0.8,0-1.3,0.2-1.8,0.5
		c-0.4,0.3-0.7,0.8-0.7,1.3c0,0.5,0.2,0.9,0.6,1.2c0.4,0.3,1.3,0.6,2.5,0.8c2,0.4,3.4,1,4.4,1.7s1.4,1.8,1.4,3.1
		c0,1.4-0.6,2.6-1.8,3.5s-2.8,1.4-4.8,1.4c-1.2,0-2.3-0.2-3.4-0.5c-1-0.4-1.9-0.9-2.7-1.5l0-3.6h3l0.6,2.1c0.3,0.2,0.6,0.4,1,0.5
		c0.4,0.1,0.9,0.2,1.4,0.2c0.9,0,1.5-0.2,2-0.5s0.7-0.7,0.7-1.3c0-0.5-0.2-0.9-0.7-1.2s-1.3-0.6-2.5-0.9c-1.9-0.4-3.3-0.9-4.2-1.7
		c-1-0.7-1.4-1.8-1.4-3.1c0-1.3,0.5-2.5,1.6-3.4s2.7-1.4,4.7-1.4c1.2,0,2.4,0.2,3.5,0.5s2,0.8,2.6,1.3L109.9,258.8z"/>
	<path class="st15" d="M120,269.5c-2.3,0-4.1-0.7-5.5-2.2s-2.1-3.3-2.1-5.6v-0.6c0-2.4,0.6-4.3,1.9-5.8s3-2.3,5.2-2.3
		c2.1,0,3.8,0.6,5,1.9s1.8,3,1.8,5.2v2.3h-9.5l0,0.1c0.1,1,0.4,1.9,1,2.6s1.5,1,2.5,1c0.9,0,1.7-0.1,2.4-0.3
		c0.6-0.2,1.3-0.5,2.1-0.9l1.2,2.6c-0.7,0.5-1.5,1-2.5,1.3S121.2,269.5,120,269.5z M119.6,256.3c-0.8,0-1.4,0.3-1.9,0.9
		s-0.7,1.4-0.8,2.4l0,0.1h5.2v-0.4c0-0.9-0.2-1.6-0.6-2.2C121.1,256.6,120.4,256.3,119.6,256.3z"/>
</g>
<g class="st1">
	<path class="st15" d="M128.7,266.6l2.1-0.4v-9.8l-2.3-0.4v-2.6h6.3l0.2,2.3c0.4-0.8,0.8-1.5,1.4-1.9s1.3-0.7,2-0.7
		c0.2,0,0.5,0,0.7,0.1c0.2,0,0.5,0.1,0.6,0.1l-0.5,3.9l-1.8,0c-0.6,0-1.1,0.1-1.6,0.4s-0.7,0.6-0.9,1v7.7l2.1,0.4v2.6h-8.4V266.6z"
		/>
</g>
<g class="st1">
	<path class="st15" d="M148,255.9l-1.5,0.3l2.1,7.1l0.3,1.5h0.1l0.3-1.5l2.1-7.1l-1.5-0.3v-2.6h7.2v2.6l-1.4,0.2l-4.7,13.1h-4.1
		l-4.7-13.1l-1.4-0.2v-2.6h7.2V255.9z"/>
	<path class="st15" d="M158.2,266.6l2.1-0.4v-9.8l-2.3-0.4v-2.6h6.6v12.8l2.1,0.4v2.6h-8.4V266.6z M164.5,249.5h-4.3v-3.2h4.3V249.5
		z"/>
	<path class="st15" d="M175.4,266.2c0.8,0,1.4-0.2,1.8-0.7c0.5-0.4,0.7-1,0.7-1.8h3.9l0,0.1c0,1.6-0.6,2.9-1.8,4s-2.8,1.6-4.6,1.6
		c-2.4,0-4.2-0.7-5.5-2.2s-1.9-3.4-1.9-5.8v-0.4c0-2.3,0.7-4.3,2-5.8s3.2-2.3,5.6-2.3c1.3,0,2.4,0.2,3.4,0.6s1.9,0.9,2.5,1.6
		l0.1,4.2h-3.5l-0.7-2.5c-0.2-0.2-0.5-0.3-0.8-0.5c-0.3-0.1-0.7-0.2-1.1-0.2c-1.2,0-2.1,0.4-2.6,1.3s-0.7,2-0.7,3.4v0.4
		c0,1.4,0.2,2.6,0.7,3.4C173.5,265.8,174.3,266.2,175.4,266.2z"/>
	<path class="st15" d="M191.4,269.5c-2.3,0-4.1-0.7-5.5-2.2s-2.1-3.3-2.1-5.6v-0.6c0-2.4,0.6-4.3,1.9-5.8s3-2.3,5.2-2.3
		c2.1,0,3.8,0.6,5,1.9s1.8,3,1.8,5.2v2.3h-9.5l0,0.1c0.1,1,0.4,1.9,1,2.6s1.5,1,2.5,1c0.9,0,1.7-0.1,2.4-0.3
		c0.6-0.2,1.3-0.5,2.1-0.9l1.2,2.6c-0.7,0.5-1.5,1-2.5,1.3S192.7,269.5,191.4,269.5z M191,256.3c-0.8,0-1.4,0.3-1.9,0.9
		s-0.7,1.4-0.8,2.4l0,0.1h5.2v-0.4c0-0.9-0.2-1.6-0.6-2.2C192.5,256.6,191.9,256.3,191,256.3z"/>
	<path class="st15" d="M207.2,266.6l3.6-0.4v-14.4h-3.6v-2.4l7.9-1.4v18.3l3.6,0.4v2.6h-11.5V266.6z"/>
</g>
<g class="st1">
	<path class="st8" d="M275.5,173.9v-2.6h6.5v13.2h1l2.5-3.5l-1.4-0.2v-2.6h7.8v2.6l-1.9,0.4l-2.9,3.9l4,6l1.6,0.3v2.6h-7.3v-2.6
		l0.9-0.1l-2.4-3.9H282v3.6l1.8,0.4v2.6h-8.2v-2.6l2.1-0.4v-16.8L275.5,173.9z"/>
</g>
<g class="st1">
	<path class="st8" d="M301.5,194.5c-2.3,0-4.1-0.7-5.5-2.2s-2.1-3.3-2.1-5.6v-0.6c0-2.4,0.6-4.3,1.9-5.8s3-2.3,5.2-2.3
		c2.1,0,3.8,0.6,5,1.9s1.8,3,1.8,5.2v2.3h-9.5l0,0.1c0.1,1,0.4,1.9,1,2.6s1.5,1,2.5,1c0.9,0,1.7-0.1,2.4-0.3
		c0.6-0.2,1.3-0.5,2.1-0.9l1.2,2.6c-0.7,0.5-1.5,1-2.5,1.3S302.8,194.5,301.5,194.5z M301.1,181.3c-0.8,0-1.4,0.3-1.9,0.9
		s-0.7,1.4-0.8,2.4l0,0.1h5.2v-0.4c0-0.9-0.2-1.6-0.6-2.2C302.6,181.6,302,181.3,301.1,181.3z"/>
</g>
<g class="st1">
	<path class="st8" d="M326.1,180.9l-1.5,0.2l-5.8,15.4c-0.5,1.1-1.1,2.1-1.8,2.9s-1.9,1.2-3.5,1.2c-0.4,0-0.7,0-1-0.1
		s-0.7-0.1-1.1-0.2l0.5-3.1c0.1,0,0.3,0,0.4,0.1s0.3,0,0.4,0c0.7,0,1.3-0.2,1.6-0.5s0.7-0.8,0.9-1.3l0.5-1.2l-5-13.1l-1.5-0.2v-2.6
		h7.8v2.6l-1.8,0.3l2.2,6.3l0.2,1.1l0.1,0l2.5-7.5l-1.8-0.3v-2.6h7.8V180.9z"/>
	<path class="st8" d="M334.8,191.6l3.6-0.4v-14.4h-3.6v-2.4l7.9-1.4v18.3l3.6,0.4v2.6h-11.5V191.6z"/>
</g>
<path class="st18" d="M1037.6,167c9-8.8,23.4-8.7,32.2,0.3c8.8,9,8.7,23.4-0.3,32.2s-23.4,8.7-32.2-0.3c-4.2-4.3-6.5-10-6.5-15.9
	c0-5,1.6-9.8,4.7-13.8"/>
<path class="st19" d="M1053,194.2h-8.2c-1.1,0-1.6-0.4-1.6-1.6v-12.5c0-1.1,0.4-1.6,1.6-1.6h16.4c1.1,0,1.5,0.4,1.5,1.5v12.6
	c0,1.1-0.4,1.5-1.5,1.5C1058.4,194.3,1055.7,194.2,1053,194.2z"/>
<path class="st19" d="M1044.6,177.5c0.2-3.5,1.7-6.5,5.1-8c4.1-1.8,8.9,0,10.7,4.2c0.2,0.4,0.4,0.9,0.5,1.4c0.2,0.8,0.3,1.5,0.4,2.3
	"/>
<path class="st17" d="M1051.6,188.8L1051.6,188.8v1.7c0,0.3,0.1,0.4,0.5,0.4h1.6c0.4,0,0.6-0.1,0.6-0.5v-3.1c0-0.3,0.1-0.6,0.4-0.7
	c1-0.5,1.5-1.7,1.2-2.8c-0.5-1.1-1.6-1.9-2.8-1.9c-1.3-0.1-2.5,0.5-3.1,1.7c-0.4,1.1,0,2.4,1.1,2.9c0.4,0.1,0.6,0.5,0.5,0.9
	C1051.6,187.9,1051.6,188.4,1051.6,188.8z"/>
<g class="st1">
	<path class="st8" d="M1092.5,173.9v-2.6h6.5v13.2h1l2.5-3.5l-1.4-0.2v-2.6h7.8v2.6l-1.9,0.4l-2.9,3.9l4,6l1.6,0.3v2.6h-7.3v-2.6
		l0.9-0.1l-2.4-3.9h-1.8v3.6l1.8,0.4v2.6h-8.2v-2.6l2.1-0.4v-16.8L1092.5,173.9z"/>
</g>
<g class="st1">
	<path class="st8" d="M1118.5,194.5c-2.3,0-4.1-0.7-5.5-2.2s-2.1-3.3-2.1-5.6v-0.6c0-2.4,0.6-4.3,1.9-5.8c1.3-1.5,3-2.3,5.2-2.3
		c2.1,0,3.8,0.6,5,1.9s1.8,3,1.8,5.2v2.3h-9.5l0,0.1c0.1,1,0.4,1.9,1,2.6c0.6,0.7,1.5,1,2.5,1c0.9,0,1.7-0.1,2.4-0.3
		c0.6-0.2,1.3-0.5,2.1-0.9l1.2,2.6c-0.7,0.5-1.5,1-2.5,1.3C1120.9,194.3,1119.8,194.5,1118.5,194.5z M1118.1,181.3
		c-0.8,0-1.4,0.3-1.9,0.9s-0.7,1.4-0.8,2.4l0,0.1h5.2v-0.4c0-0.9-0.2-1.6-0.6-2.2C1119.6,181.6,1119,181.3,1118.1,181.3z"/>
</g>
<g class="st1">
	<path class="st8" d="M1143.1,180.9l-1.5,0.2l-5.8,15.4c-0.5,1.1-1.1,2.1-1.8,2.9c-0.8,0.8-1.9,1.2-3.5,1.2c-0.4,0-0.7,0-1-0.1
		c-0.3-0.1-0.7-0.1-1.1-0.2l0.5-3.1c0.1,0,0.3,0,0.4,0.1s0.3,0,0.4,0c0.7,0,1.3-0.2,1.6-0.5s0.7-0.8,0.9-1.3l0.5-1.2l-5-13.1
		l-1.5-0.2v-2.6h7.8v2.6l-1.8,0.3l2.2,6.3l0.2,1.1l0.1,0l2.5-7.5l-1.8-0.3v-2.6h7.8V180.9z"/>
	<path class="st8" d="M1152,194.2v-2.8l6.9-7.4c1-1.1,1.7-2.1,2.1-2.9s0.6-1.5,0.6-2.2c0-0.9-0.2-1.6-0.7-2.2
		c-0.5-0.6-1.2-0.9-2.1-0.9c-1,0-1.7,0.3-2.2,1c-0.5,0.7-0.8,1.6-0.8,2.7h-4.2l0-0.1c0-1.9,0.6-3.6,1.9-4.9c1.3-1.3,3.1-2,5.3-2
		c2.2,0,3.9,0.6,5.2,1.7s1.9,2.7,1.9,4.6c0,1.3-0.4,2.5-1.1,3.6c-0.7,1.1-1.9,2.5-3.5,4.3l-3.8,4.1l0,0.1h5.5l0.2-2.1h3.3v5.4H1152z
		"/>
</g>
<g class="st1">
	<path class="st15" d="M387.4,186.8h-7.2v-2.3h7.2V186.8z"/>
	<path class="st15" d="M398.1,192.7c1,0,1.8-0.3,2.5-0.9s1.1-1.3,1.1-2.2h2.6l0,0.1c0,1.4-0.6,2.6-1.8,3.6s-2.7,1.6-4.4,1.6
		c-2.3,0-4.1-0.8-5.3-2.3s-1.8-3.4-1.8-5.7v-0.6c0-2.3,0.6-4.1,1.8-5.6c1.2-1.5,3-2.3,5.3-2.3c1.3,0,2.4,0.2,3.4,0.6s1.8,1,2.5,1.7
		l0.1,3.5h-2.3l-0.6-2.5c-0.3-0.3-0.8-0.6-1.3-0.8s-1.1-0.3-1.8-0.3c-1.5,0-2.6,0.5-3.2,1.6s-1,2.4-1,4v0.6c0,1.6,0.3,3,1,4.1
		S396.6,192.7,398.1,192.7z"/>
	<path class="st15" d="M414.4,195c-2.2,0-4-0.7-5.3-2.2s-2-3.4-2-5.7v-0.6c0-2.3,0.7-4.1,2-5.6c1.3-1.5,2.9-2.2,4.8-2.2
		c2.1,0,3.7,0.6,4.8,1.9s1.6,3,1.6,5.2v1.8h-10.3l0,0.1c0,1.5,0.4,2.8,1.2,3.8c0.7,1,1.8,1.5,3.1,1.5c1,0,1.8-0.1,2.6-0.4
		c0.7-0.3,1.4-0.7,1.9-1.2l1.1,1.9c-0.6,0.5-1.3,1-2.2,1.4C416.8,194.8,415.7,195,414.4,195z M413.9,180.8c-1,0-1.8,0.4-2.5,1.2
		s-1.1,1.8-1.3,3.1l0,0.1h7.3v-0.4c0-1.1-0.3-2.1-0.9-2.8S415.1,180.8,413.9,180.8z"/>
</g>
<g class="st1">
	<path class="st15" d="M423.3,180.7v-1.9h5l0.3,2.3c0.4-0.8,1-1.4,1.7-1.9s1.4-0.7,2.3-0.7c0.2,0,0.5,0,0.7,0.1
		c0.2,0,0.4,0.1,0.5,0.1l-0.4,2.7l-1.6-0.1c-0.8,0-1.4,0.2-1.9,0.5s-0.9,0.9-1.2,1.5v9.1l2.4,0.4v1.8h-7.7v-1.8l2.4-0.4v-11.3
		L423.3,180.7z"/>
</g>
<g class="st1">
	<path class="st15" d="M441.2,175v3.8h3v2.1h-3v9.6c0,0.7,0.2,1.3,0.5,1.6s0.7,0.5,1.2,0.5c0.3,0,0.5,0,0.9-0.1
		c0.3,0,0.6-0.1,0.8-0.1l0.4,2c-0.3,0.2-0.7,0.3-1.2,0.4s-1.1,0.2-1.6,0.2c-1.2,0-2.1-0.4-2.8-1.1s-1-1.8-1-3.3V181h-2.5v-2.1h2.5
		V175H441.2z"/>
</g>
<g class="st1">
	<path class="st15" d="M387.4,222.8h-7.2v-2.3h7.2V222.8z"/>
</g>
<g class="st1">
	<path class="st15" d="M390.6,209.7v-1.9h5.3v13.2h1.8l3.4-4.2l-1.5-0.2v-1.9h6.6v1.9l-1.9,0.4l-4.2,5l5.1,6.4l1.8,0.4v1.8h-6.6
		v-1.8l1.5-0.2l-4.2-5.3h-1.9v5.1l2.4,0.4v1.8h-7.7v-1.8l2.4-0.4v-18.3L390.6,209.7z"/>
</g>
<g class="st1">
	<path class="st15" d="M416.2,231c-2.2,0-4-0.7-5.3-2.2s-2-3.4-2-5.7v-0.6c0-2.3,0.7-4.1,2-5.6c1.3-1.5,2.9-2.2,4.8-2.2
		c2.1,0,3.7,0.6,4.8,1.9s1.6,3,1.6,5.2v1.8h-10.3l0,0.1c0,1.5,0.4,2.8,1.2,3.8c0.7,1,1.8,1.5,3.1,1.5c1,0,1.8-0.1,2.6-0.4
		c0.7-0.3,1.4-0.7,1.9-1.2l1.1,1.9c-0.6,0.5-1.3,1-2.2,1.4C418.6,230.8,417.5,231,416.2,231z M415.7,216.8c-1,0-1.8,0.4-2.5,1.2
		s-1.1,1.8-1.3,3.1l0,0.1h7.3v-0.4c0-1.1-0.3-2.1-0.9-2.8S416.9,216.8,415.7,216.8z"/>
</g>
<g class="st1">
	<path class="st15" d="M439.9,216.7l-1.4,0.2l-6,16.2c-0.4,1.1-1,2-1.7,2.8s-1.8,1.2-3,1.2c-0.2,0-0.5,0-0.9-0.1s-0.6-0.1-0.8-0.2
		l0.3-2.3c-0.1,0,0.1,0,0.5,0s0.7,0,0.8,0c0.6,0,1.1-0.3,1.5-0.8c0.4-0.5,0.7-1.1,1-1.8l0.7-1.6l-5.2-13.4l-1.5-0.2v-1.9h6.4v1.9
		l-1.8,0.3l2.7,7.8l0.5,2h0.1l3.3-9.8l-1.8-0.3v-1.9h6.4V216.7z"/>
</g>
<g class="st1">
	<path class="st15" d="M914.4,186.8h-7.2v-2.3h7.2V186.8z"/>
	<path class="st15" d="M925.1,192.7c1,0,1.8-0.3,2.5-0.9c0.7-0.6,1.1-1.3,1.1-2.2h2.6l0,0.1c0,1.4-0.6,2.6-1.8,3.6
		c-1.3,1.1-2.7,1.6-4.4,1.6c-2.3,0-4.1-0.8-5.3-2.3c-1.2-1.5-1.8-3.4-1.8-5.7v-0.6c0-2.3,0.6-4.1,1.8-5.6c1.2-1.5,3-2.3,5.3-2.3
		c1.3,0,2.4,0.2,3.4,0.6c1,0.4,1.8,1,2.5,1.7l0.1,3.5h-2.3l-0.6-2.5c-0.3-0.3-0.8-0.6-1.3-0.8s-1.1-0.3-1.8-0.3
		c-1.5,0-2.6,0.5-3.2,1.6c-0.7,1.1-1,2.4-1,4v0.6c0,1.6,0.3,3,1,4.1S923.6,192.7,925.1,192.7z"/>
	<path class="st15" d="M941.4,195c-2.2,0-4-0.7-5.3-2.2c-1.3-1.5-2-3.4-2-5.7v-0.6c0-2.3,0.7-4.1,2-5.6c1.3-1.5,2.9-2.2,4.8-2.2
		c2.1,0,3.7,0.6,4.8,1.9c1.1,1.3,1.6,3,1.6,5.2v1.8h-10.3l0,0.1c0,1.5,0.4,2.8,1.2,3.8c0.7,1,1.8,1.5,3.1,1.5c1,0,1.8-0.1,2.6-0.4
		c0.7-0.3,1.4-0.7,1.9-1.2l1.1,1.9c-0.6,0.5-1.3,1-2.2,1.4C943.8,194.8,942.7,195,941.4,195z M940.9,180.8c-1,0-1.8,0.4-2.5,1.2
		s-1.1,1.8-1.3,3.1l0,0.1h7.3v-0.4c0-1.1-0.3-2.1-0.9-2.8S942.1,180.8,940.9,180.8z"/>
</g>
<g class="st1">
	<path class="st15" d="M950.3,180.7v-1.9h5l0.3,2.3c0.4-0.8,1-1.4,1.7-1.9s1.4-0.7,2.3-0.7c0.2,0,0.5,0,0.7,0.1
		c0.2,0,0.4,0.1,0.5,0.1l-0.4,2.7l-1.6-0.1c-0.8,0-1.4,0.2-1.9,0.5s-0.9,0.9-1.2,1.5v9.1l2.4,0.4v1.8h-7.7v-1.8l2.4-0.4v-11.3
		L950.3,180.7z"/>
</g>
<g class="st1">
	<path class="st15" d="M968.2,175v3.8h3v2.1h-3v9.6c0,0.7,0.2,1.3,0.5,1.6s0.7,0.5,1.2,0.5c0.3,0,0.5,0,0.9-0.1
		c0.3,0,0.6-0.1,0.8-0.1l0.4,2c-0.3,0.2-0.7,0.3-1.2,0.4s-1.1,0.2-1.6,0.2c-1.2,0-2.1-0.4-2.8-1.1s-1-1.8-1-3.3V181h-2.5v-2.1h2.5
		V175H968.2z"/>
</g>
<g class="st1">
	<path class="st15" d="M914.4,222.8h-7.2v-2.3h7.2V222.8z"/>
</g>
<g class="st1">
	<path class="st15" d="M917.6,209.7v-1.9h5.3v13.2h1.8l3.4-4.2l-1.5-0.2v-1.9h6.6v1.9l-1.9,0.4l-4.2,5l5.1,6.4l1.8,0.4v1.8h-6.6
		v-1.8l1.5-0.2l-4.2-5.3h-1.9v5.1l2.4,0.4v1.8h-7.7v-1.8l2.4-0.4v-18.3L917.6,209.7z"/>
</g>
<g class="st1">
	<path class="st15" d="M943.2,231c-2.2,0-4-0.7-5.3-2.2s-2-3.4-2-5.7v-0.6c0-2.3,0.7-4.1,2-5.6c1.3-1.5,2.9-2.2,4.8-2.2
		c2.1,0,3.7,0.6,4.8,1.9s1.6,3,1.6,5.2v1.8h-10.3l0,0.1c0,1.5,0.4,2.8,1.2,3.8c0.7,1,1.8,1.5,3.1,1.5c1,0,1.8-0.1,2.6-0.4
		c0.7-0.3,1.4-0.7,1.9-1.2l1.1,1.9c-0.6,0.5-1.3,1-2.2,1.4C945.6,230.8,944.5,231,943.2,231z M942.7,216.8c-1,0-1.8,0.4-2.5,1.2
		s-1.1,1.8-1.3,3.1l0,0.1h7.3v-0.4c0-1.1-0.3-2.1-0.9-2.8S943.9,216.8,942.7,216.8z"/>
</g>
<g class="st1">
	<path class="st15" d="M966.9,216.7l-1.4,0.2l-6,16.2c-0.4,1.1-1,2-1.7,2.8s-1.8,1.2-3,1.2c-0.2,0-0.5,0-0.9-0.1s-0.6-0.1-0.8-0.2
		l0.3-2.3c-0.1,0,0.1,0,0.5,0s0.7,0,0.8,0c0.6,0,1.1-0.3,1.5-0.8c0.4-0.5,0.7-1.1,1-1.8l0.7-1.6l-5.2-13.4l-1.5-0.2v-1.9h6.4v1.9
		l-1.8,0.3l2.7,7.8l0.5,2h0.1l3.3-9.8l-1.8-0.3v-1.9h6.4V216.7z"/>
</g>
<g class="st1">
	<path class="st15" d="M115,177.7h-3.2l-0.6-2.9c-0.4-0.2-0.9-0.4-1.6-0.6s-1.5-0.3-2.3-0.3c-1.2,0-2.1,0.2-2.7,0.7
		c-0.6,0.5-1,1.1-1,1.9c0,0.7,0.3,1.3,1,1.8c0.7,0.5,1.8,1,3.5,1.5c2.4,0.7,4.1,1.5,5.4,2.6s1.8,2.5,1.8,4.2c0,1.8-0.7,3.3-2.2,4.3
		s-3.3,1.6-5.7,1.6c-1.7,0-3.2-0.3-4.6-0.8s-2.5-1.3-3.4-2.2V185h3.3l0.5,3c0.4,0.4,1,0.6,1.8,0.9s1.6,0.3,2.5,0.3
		c1.2,0,2.1-0.2,2.7-0.7s0.9-1.1,0.9-1.9c0-0.8-0.3-1.5-0.9-2s-1.6-1-3.1-1.4c-2.5-0.7-4.4-1.6-5.7-2.6s-1.9-2.4-1.9-4.1
		c0-1.7,0.7-3.1,2.2-4.2c1.5-1.1,3.3-1.7,5.5-1.7c1.6,0,3.1,0.2,4.5,0.7s2.5,1.2,3.4,2V177.7z"/>
	<path class="st15" d="M134.6,189.8c-0.7,0.7-1.7,1.3-3,1.9c-1.3,0.6-3,0.8-5,0.8c-2.9,0-5.2-1-7-2.9c-1.8-1.9-2.7-4.4-2.7-7.5v-0.7
		c0-3.2,0.9-5.8,2.7-7.8s4.1-3,7-3c1.7,0,3.2,0.3,4.6,0.8c1.4,0.5,2.5,1.3,3.4,2.2v4.3h-3.2l-0.6-2.9c-0.4-0.3-0.9-0.6-1.5-0.8
		s-1.4-0.3-2.2-0.3c-1.9,0-3.3,0.7-4.4,2.1s-1.6,3.2-1.6,5.4v0.8c0,2.2,0.5,3.9,1.5,5.2s2.5,1.9,4.4,1.9c0.9,0,1.6-0.1,2.1-0.2
		s0.9-0.3,1.3-0.5v-3.6l-3-0.2v-3h7.3V189.8z"/>
	<path class="st15" d="M136.4,189.6l1.8-0.4l5.6-7.8l-5.5-7.6l-1.8-0.4v-2.6h8.2v2.6l-1.7,0.2l3.3,5.2l3.3-5.2l-1.7-0.2v-2.6h8.2
		v2.6l-1.8,0.4l-5.5,7.6l5.8,7.8l1.9,0.4v2.6h-8.4v-2.6l1.7-0.2l-3.4-5.4l-3.4,5.4l1.7,0.2v2.6h-8.2V189.6z"/>
</g>
<g class="st1">
	<path class="st15" d="M1227.9,179.7h-3.2l-0.6-2.9c-0.4-0.2-0.9-0.4-1.6-0.6s-1.5-0.3-2.3-0.3c-1.2,0-2.1,0.2-2.7,0.7
		c-0.6,0.5-1,1.1-1,1.9c0,0.7,0.3,1.3,1,1.8c0.7,0.5,1.8,1,3.5,1.5c2.4,0.7,4.1,1.5,5.4,2.6s1.8,2.5,1.8,4.2c0,1.8-0.7,3.3-2.2,4.3
		s-3.3,1.6-5.7,1.6c-1.7,0-3.2-0.3-4.6-0.8s-2.5-1.3-3.4-2.2V187h3.3l0.5,3c0.4,0.4,1,0.6,1.8,0.9s1.6,0.3,2.5,0.3
		c1.2,0,2.1-0.2,2.7-0.7s0.9-1.1,0.9-1.9c0-0.8-0.3-1.5-0.9-2s-1.6-1-3.1-1.4c-2.5-0.7-4.4-1.6-5.7-2.6s-1.9-2.4-1.9-4.1
		c0-1.7,0.7-3.1,2.2-4.2c1.5-1.1,3.3-1.7,5.5-1.7c1.6,0,3.1,0.2,4.5,0.7s2.5,1.2,3.4,2V179.7z"/>
	<path class="st15" d="M1247.6,191.8c-0.7,0.7-1.7,1.3-3,1.9c-1.3,0.6-3,0.8-5,0.8c-2.9,0-5.2-1-7-2.9c-1.8-1.9-2.7-4.4-2.7-7.5
		v-0.7c0-3.2,0.9-5.8,2.7-7.8s4.1-3,7-3c1.7,0,3.2,0.3,4.6,0.8c1.4,0.5,2.5,1.3,3.4,2.2v4.3h-3.2l-0.6-2.9c-0.4-0.3-0.9-0.6-1.5-0.8
		s-1.4-0.3-2.2-0.3c-1.9,0-3.3,0.7-4.4,2.1s-1.6,3.2-1.6,5.4v0.8c0,2.2,0.5,3.9,1.5,5.2s2.5,1.9,4.4,1.9c0.9,0,1.6-0.1,2.1-0.2
		s0.9-0.3,1.3-0.5v-3.6l-3-0.2v-3h7.3V191.8z"/>
	<path class="st15" d="M1249.4,191.6l1.8-0.4l5.6-7.8l-5.5-7.6l-1.8-0.4v-2.6h8.2v2.6l-1.7,0.2l3.3,5.2l3.3-5.2l-1.7-0.2v-2.6h8.2
		v2.6l-1.8,0.4l-5.5,7.6l5.8,7.8l1.9,0.4v2.6h-8.4v-2.6l1.7-0.2l-3.4-5.4l-3.4,5.4l1.7,0.2v2.6h-8.2V191.6z"/>
</g>
<g class="st1">
	<path class="st15" d="M1159.1,258.8h-2.9l-0.5-2c-0.3-0.2-0.7-0.4-1.1-0.6s-0.9-0.2-1.5-0.2c-0.8,0-1.3,0.2-1.8,0.5
		c-0.4,0.3-0.7,0.8-0.7,1.3c0,0.5,0.2,0.9,0.6,1.2c0.4,0.3,1.3,0.6,2.5,0.8c2,0.4,3.4,1,4.4,1.7s1.4,1.8,1.4,3.1
		c0,1.4-0.6,2.6-1.8,3.5s-2.8,1.4-4.8,1.4c-1.2,0-2.3-0.2-3.4-0.5c-1-0.4-1.9-0.9-2.7-1.5l0-3.6h3l0.6,2.1c0.3,0.2,0.6,0.4,1,0.5
		c0.4,0.1,0.9,0.2,1.4,0.2c0.9,0,1.5-0.2,2-0.5s0.7-0.7,0.7-1.3c0-0.5-0.2-0.9-0.7-1.2s-1.3-0.6-2.5-0.9c-1.9-0.4-3.3-0.9-4.2-1.7
		c-1-0.7-1.4-1.8-1.4-3.1c0-1.3,0.5-2.5,1.6-3.4s2.7-1.4,4.7-1.4c1.2,0,2.4,0.2,3.5,0.5s2,0.8,2.6,1.3L1159.1,258.8z"/>
	<path class="st15" d="M1169.2,269.5c-2.3,0-4.1-0.7-5.5-2.2s-2.1-3.3-2.1-5.6v-0.6c0-2.4,0.6-4.3,1.9-5.8s3-2.3,5.2-2.3
		c2.1,0,3.8,0.6,5,1.9s1.8,3,1.8,5.2v2.3h-9.5l0,0.1c0.1,1,0.4,1.9,1,2.6s1.5,1,2.5,1c0.9,0,1.7-0.1,2.4-0.3
		c0.6-0.2,1.3-0.5,2.1-0.9l1.2,2.6c-0.7,0.5-1.5,1-2.5,1.3S1170.4,269.5,1169.2,269.5z M1168.8,256.3c-0.8,0-1.4,0.3-1.9,0.9
		s-0.7,1.4-0.8,2.4l0,0.1h5.2v-0.4c0-0.9-0.2-1.6-0.6-2.2C1170.3,256.6,1169.6,256.3,1168.8,256.3z"/>
</g>
<g class="st1">
	<path class="st15" d="M1177.9,266.6l2.1-0.4v-9.8l-2.3-0.4v-2.6h6.3l0.2,2.3c0.4-0.8,0.8-1.5,1.4-1.9s1.3-0.7,2-0.7
		c0.2,0,0.5,0,0.7,0.1c0.2,0,0.5,0.1,0.6,0.1l-0.5,3.9l-1.8,0c-0.6,0-1.1,0.1-1.6,0.4s-0.7,0.6-0.9,1v7.7l2.1,0.4v2.6h-8.4V266.6z"
		/>
</g>
<g class="st1">
	<path class="st15" d="M1197.2,255.9l-1.5,0.3l2.1,7.1l0.3,1.5h0.1l0.3-1.5l2.1-7.1l-1.5-0.3v-2.6h7.2v2.6l-1.4,0.2l-4.7,13.1h-4.1
		l-4.7-13.1l-1.4-0.2v-2.6h7.2V255.9z"/>
	<path class="st15" d="M1207.4,266.6l2.1-0.4v-9.8l-2.3-0.4v-2.6h6.6v12.8l2.1,0.4v2.6h-8.4V266.6z M1213.7,249.5h-4.3v-3.2h4.3
		V249.5z"/>
	<path class="st15" d="M1224.6,266.2c0.8,0,1.4-0.2,1.8-0.7c0.5-0.4,0.7-1,0.7-1.8h3.9l0,0.1c0,1.6-0.6,2.9-1.8,4s-2.8,1.6-4.6,1.6
		c-2.4,0-4.2-0.7-5.5-2.2s-1.9-3.4-1.9-5.8v-0.4c0-2.3,0.7-4.3,2-5.8s3.2-2.3,5.6-2.3c1.3,0,2.4,0.2,3.4,0.6s1.9,0.9,2.5,1.6
		l0.1,4.2h-3.5l-0.7-2.5c-0.2-0.2-0.5-0.3-0.8-0.5c-0.3-0.1-0.7-0.2-1.1-0.2c-1.2,0-2.1,0.4-2.6,1.3s-0.7,2-0.7,3.4v0.4
		c0,1.4,0.2,2.6,0.7,3.4C1222.7,265.8,1223.5,266.2,1224.6,266.2z"/>
	<path class="st15" d="M1240.6,269.5c-2.3,0-4.1-0.7-5.5-2.2s-2.1-3.3-2.1-5.6v-0.6c0-2.4,0.6-4.3,1.9-5.8s3-2.3,5.2-2.3
		c2.1,0,3.8,0.6,5,1.9s1.8,3,1.8,5.2v2.3h-9.5l0,0.1c0.1,1,0.4,1.9,1,2.6s1.5,1,2.5,1c0.9,0,1.7-0.1,2.4-0.3
		c0.6-0.2,1.3-0.5,2.1-0.9l1.2,2.6c-0.7,0.5-1.5,1-2.5,1.3S1241.9,269.5,1240.6,269.5z M1240.2,256.3c-0.8,0-1.4,0.3-1.9,0.9
		s-0.7,1.4-0.8,2.4l0,0.1h5.2v-0.4c0-0.9-0.2-1.6-0.6-2.2C1241.7,256.6,1241.1,256.3,1240.2,256.3z"/>
	<path class="st15" d="M1256.5,269.2v-2.8l6.9-7.4c1-1.1,1.7-2.1,2.1-2.9s0.6-1.5,0.6-2.2c0-0.9-0.2-1.6-0.7-2.2
		c-0.5-0.6-1.2-0.9-2.1-0.9c-1,0-1.7,0.3-2.2,1s-0.8,1.6-0.8,2.7h-4.2l0-0.1c0-1.9,0.6-3.6,1.9-4.9c1.3-1.3,3.1-2,5.3-2
		c2.2,0,3.9,0.6,5.2,1.7s1.9,2.7,1.9,4.6c0,1.3-0.4,2.5-1.1,3.6s-1.9,2.5-3.5,4.3l-3.8,4.1l0,0.1h5.5l0.2-2.1h3.3v5.4H1256.5z"/>
</g>
<line class="st11" x1="880" y1="232" x2="526" y2="232"/>
<line class="st11" x1="880" y1="270" x2="287" y2="423"/>
<circle class="st9" cx="1100.9" cy="427.1" r="11.1"/>
<line class="st10" x1="1108.7" y1="435" x2="1093" y2="419.3"/>
<line class="st11" x1="484.7" y1="270" x2="1077.7" y2="423"/>
</svg>
