<?xml version="1.0" encoding="utf-8"?>
<!-- Generator: Adobe Illustrator 24.0.0, SVG Export Plug-In . SVG Version: 6.00 Build 0)  -->
<svg version="1.1" id="Ebene_1" xmlns="http://www.w3.org/2000/svg" xmlns:xlink="http://www.w3.org/1999/xlink" x="0px" y="0px"
	 viewBox="0 0 726 482" style="enable-background:new 0 0 726 482;" xml:space="preserve">
<style type="text/css">
	.st0{enable-background:new    ;}
	.st1{fill:#330066;}
	.st2{fill:url(#SVGID_1_);stroke:#FFCC00;stroke-width:8;stroke-miterlimit:10;}
	.st3{fill:#FFFFFF;}
	.st4{fill:url(#SVGID_2_);stroke:#FFCC00;stroke-width:8;stroke-miterlimit:10;}
	.st5{fill:none;stroke:#FFCC00;stroke-width:8;stroke-linecap:round;stroke-linejoin:round;}
	.st6{fill:none;stroke:#FFCC00;stroke-width:15;stroke-linecap:round;stroke-miterlimit:10;}
	.st7{fill:#FFCC00;}
</style>
<title>rolling SW Update</title>
<g class="st0">
	<path class="st1" d="M543.9,68.1c0,2.7-0.6,4.8-1.8,6.3c-1.2,1.4-2.9,2.2-5,2.2c-2.1,0-3.7-0.7-5-2.2s-1.8-3.5-1.8-6.3V63
		c0-2.7,0.6-4.8,1.8-6.3s2.9-2.2,5-2.2c2.1,0,3.8,0.7,5,2.2s1.8,3.5,1.8,6.3V68.1z M541,62.4c0-1.8-0.3-3.2-1-4.2
		c-0.7-0.9-1.6-1.4-2.9-1.4c-1.3,0-2.2,0.5-2.9,1.4c-0.7,0.9-1,2.3-1,4.2v6.3c0,1.8,0.3,3.2,1,4.2s1.6,1.4,2.9,1.4
		c1.3,0,2.2-0.5,2.9-1.4s1-2.3,1-4.2V62.4z"/>
	<path class="st1" d="M547.1,76.2v-2l7-7.8c1.3-1.4,2.1-2.5,2.5-3.3s0.7-1.7,0.7-2.5c0-1.1-0.3-2-0.9-2.7s-1.5-1.1-2.5-1.1
		c-1.5,0-2.6,0.4-3.3,1.1s-1,1.8-1,3.2h-2.8l0-0.1c0-1.8,0.6-3.4,1.8-4.6s3-1.9,5.3-1.9c1.9,0,3.5,0.6,4.6,1.7
		c1.1,1.1,1.7,2.5,1.7,4.3c0,1.2-0.3,2.3-1,3.5s-1.7,2.4-2.9,3.8l-5.6,6.1l0,0.1h7.6l0.2-2.4h2.4v4.7H547.1z"/>
	<path class="st1" d="M567.6,64.2h2.5c1.3,0,2.2-0.3,2.7-1c0.5-0.6,0.8-1.5,0.8-2.7c0-1.2-0.3-2.1-0.9-2.8s-1.5-1-2.7-1
		c-1.1,0-2,0.3-2.7,1c-0.7,0.7-1,1.5-1,2.6h-2.8l0-0.1c0-1.6,0.5-3,1.8-4.1c1.2-1.1,2.8-1.7,4.8-1.7c2,0,3.5,0.5,4.7,1.6
		s1.8,2.5,1.8,4.5c0,0.9-0.3,1.8-0.8,2.6s-1.3,1.5-2.4,2c1.3,0.4,2.2,1.1,2.7,2s0.8,1.9,0.8,3c0,1.9-0.6,3.5-1.9,4.6
		s-2.9,1.7-4.9,1.7c-2,0-3.6-0.5-4.8-1.6c-1.3-1-1.9-2.5-1.8-4.3l0-0.1h2.8c0,1.1,0.3,2,1,2.7s1.6,1,2.8,1c1.2,0,2.2-0.3,2.9-1
		s1-1.6,1-2.9c0-1.3-0.3-2.3-0.9-2.9s-1.6-0.9-2.9-0.9h-2.5V64.2z"/>
	<path class="st1" d="M585.9,74.3c1.4,0,2.5-0.5,3.3-1.6s1.2-2.8,1.3-5.1l-0.1-0.1c-0.4,0.7-0.9,1.2-1.6,1.5s-1.5,0.5-2.4,0.5
		c-2.1,0-3.7-0.6-4.9-1.9c-1.2-1.3-1.8-3.1-1.8-5.4c0-2.2,0.6-4.1,1.9-5.5c1.3-1.4,2.8-2.1,4.7-2.1c2.2,0,4,0.7,5.3,2.1
		c1.3,1.4,1.9,3.5,1.9,6.2v3.9c0,3.3-0.7,5.8-2.1,7.4s-3.2,2.4-5.5,2.4c-0.7,0-1.5-0.1-2.3-0.2c-0.8-0.1-1.5-0.4-2.1-0.7l0.4-2.2
		c0.6,0.3,1.2,0.5,1.8,0.6S585.2,74.3,585.9,74.3z M586.4,67.3c1.1,0,2-0.2,2.7-0.7s1.2-1,1.5-1.8v-2.3c0-1.9-0.4-3.3-1.1-4.3
		s-1.8-1.4-3.1-1.4c-1.1,0-2,0.5-2.7,1.5s-1.1,2.3-1.1,3.8c0,1.5,0.3,2.8,1,3.7C584.3,66.8,585.2,67.3,586.4,67.3z"/>
	<path class="st1" d="M600.4,76.2h-2.9v-3h2.9V76.2z"/>
	<path class="st1" d="M607.6,76.2h-2.9v-3h2.9V76.2z"/>
	<path class="st1" d="M614.8,76.2h-2.9v-3h2.9V76.2z"/>
</g>
<g class="st0">
	<path class="st1" d="M626.9,235.1h2.9v2.3h-2.9v2.7l2.4,0.4v1.8h-7.6v-1.8l2.4-0.4v-2.7h-9.6v-1.6l9.4-14.8h3V235.1z M617.6,235.1
		h6.5v-10l-0.1,0l-0.3,0.8L617.6,235.1z"/>
	<path class="st1" d="M646.5,223.2c-2.6,3.1-4.3,5.8-5.2,8.2c-0.9,2.4-1.6,5.2-2,8.6l-0.2,2.3h-2.9l0.2-2.3c0.4-3.4,1.2-6.4,2.4-9
		s2.8-5.2,4.8-7.7h-8.9l-0.2,2.4h-2.5v-4.7h14.4V223.2z"/>
	<path class="st1" d="M659.5,225.1l-0.3-1.7h-6.4l-0.7,6c0.4-0.3,0.9-0.6,1.5-0.8c0.6-0.2,1.2-0.3,1.9-0.4c2,0,3.5,0.6,4.6,1.9
		s1.7,3,1.7,5.2c0,2.1-0.6,3.9-1.7,5.2s-2.8,1.9-5,1.9c-1.8,0-3.3-0.5-4.5-1.5c-1.2-1-1.8-2.4-1.7-4.4l0-0.1h2.6
		c0,1.2,0.3,2.1,1,2.7s1.5,1,2.6,1c1.2,0,2.2-0.4,2.8-1.3s1-2,1-3.5c0-1.4-0.3-2.5-1-3.4c-0.7-0.9-1.6-1.3-2.8-1.3
		c-1.1,0-2,0.2-2.5,0.5s-0.9,0.9-1.1,1.6l-2.4-0.2l1.2-11.7h11.3v4.2H659.5z"/>
	<path class="st1" d="M670.8,240.3c1.4,0,2.5-0.5,3.3-1.6s1.2-2.8,1.3-5.1l-0.1-0.1c-0.4,0.7-0.9,1.2-1.6,1.5s-1.5,0.5-2.4,0.5
		c-2.1,0-3.7-0.6-4.9-1.9c-1.2-1.3-1.8-3.1-1.8-5.4c0-2.2,0.6-4.1,1.9-5.5c1.3-1.4,2.8-2.1,4.7-2.1c2.2,0,4,0.7,5.3,2.1
		c1.3,1.4,1.9,3.5,1.9,6.2v3.9c0,3.3-0.7,5.8-2.1,7.4s-3.2,2.4-5.5,2.4c-0.7,0-1.5-0.1-2.3-0.2c-0.8-0.1-1.5-0.4-2.1-0.7l0.4-2.2
		c0.6,0.3,1.2,0.5,1.8,0.6S670,240.3,670.8,240.3z M671.3,233.3c1.1,0,2-0.2,2.7-0.7s1.2-1,1.5-1.8v-2.3c0-1.9-0.4-3.3-1.1-4.3
		s-1.8-1.4-3.1-1.4c-1.1,0-2,0.5-2.7,1.5s-1.1,2.3-1.1,3.8c0,1.5,0.3,2.8,1,3.7C669.1,232.8,670.1,233.3,671.3,233.3z"/>
	<path class="st1" d="M685.2,242.2h-2.9v-3h2.9V242.2z"/>
	<path class="st1" d="M692.5,242.2h-2.9v-3h2.9V242.2z"/>
	<path class="st1" d="M699.7,242.2h-2.9v-3h2.9V242.2z"/>
</g>
<linearGradient id="SVGID_1_" gradientUnits="userSpaceOnUse" x1="39.64" y1="381.5" x2="403" y2="381.5" gradientTransform="matrix(1 0 0 -1 0 484)">
	<stop  offset="0" style="stop-color:#990066"/>
	<stop  offset="0.19" style="stop-color:#780066"/>
	<stop  offset="0.4" style="stop-color:#5A0066"/>
	<stop  offset="0.61" style="stop-color:#440066"/>
	<stop  offset="0.81" style="stop-color:#370066"/>
	<stop  offset="1" style="stop-color:#330066"/>
</linearGradient>
<path class="st2" d="M47.6,38H395c4.4,0,8,3.6,8,8v113c0,4.4-3.6,8-8,8H47.6c-4.4,0-8-3.6-8-8V46C39.6,41.6,43.2,38,47.6,38z"/>
<g class="st0">
	<path class="st3" d="M153,81.5L153,81.5L146.9,97h-3l-6-15.4l-0.1,0l0.4,9.2V94l2.4,0.4V97h-9.3v-2.5l2.4-0.4V79l-2.4-0.4v-2.5h2.4
		h5.9l5.7,15.4h0.1l5.7-15.4h8.3v2.5l-2.4,0.4v15l2.4,0.4V97h-9.3v-2.5l2.4-0.4v-3.3L153,81.5z"/>
	<path class="st3" d="M178.4,84l-1.6,0.2l-6.1,15.1c-0.5,1.1-1.1,2.1-1.9,2.8c-0.8,0.8-2,1.1-3.6,1.1c-0.4,0-0.7,0-1.1-0.1
		c-0.3-0.1-0.7-0.1-1.2-0.2l0.5-3.1c0.1,0,0.3,0,0.4,0.1s0.3,0,0.4,0c0.7,0,1.3-0.2,1.7-0.5s0.7-0.8,0.9-1.3l0.5-1.2l-5.3-12.8
		l-1.6-0.2v-2.5h8.1V84l-1.9,0.3l2.3,6.2l0.2,1.1l0.1,0l2.6-7.3l-1.9-0.3v-2.5h8.1V84z"/>
</g>
<g class="st0">
	<path class="st3" d="M190.3,76.1c2.6,0,4.6,0.6,6.1,1.8c1.5,1.2,2.2,2.8,2.2,4.8c0,2-0.7,3.6-2.2,4.8c-1.5,1.2-3.5,1.8-6.1,1.8
		h-3.8V94l2.4,0.4V97h-9.3v-2.5l2.4-0.4V79l-2.4-0.4v-2.5h2.4H190.3z M186.5,86.2h3.8c1.2,0,2.2-0.3,2.8-1s1-1.4,1-2.4
		c0-1-0.3-1.8-1-2.5s-1.6-1-2.8-1h-3.8V86.2z"/>
</g>
<g class="st0">
	<path class="st3" d="M199.9,89.1c0-2.3,0.7-4.2,2.1-5.7c1.4-1.5,3.3-2.2,5.8-2.2c2.5,0,4.4,0.7,5.8,2.2c1.4,1.5,2.1,3.4,2.1,5.7
		v0.3c0,2.3-0.7,4.2-2.1,5.7c-1.4,1.5-3.3,2.2-5.7,2.2c-2.5,0-4.4-0.7-5.8-2.2c-1.4-1.5-2.1-3.4-2.1-5.7V89.1z M204.4,89.4
		c0,1.4,0.3,2.6,0.8,3.4c0.5,0.9,1.4,1.3,2.6,1.3c1.2,0,2-0.4,2.5-1.3c0.5-0.9,0.8-2,0.8-3.4v-0.3c0-1.4-0.3-2.5-0.8-3.4
		s-1.4-1.3-2.6-1.3c-1.2,0-2,0.4-2.6,1.3c-0.5,0.9-0.8,2-0.8,3.4V89.4z"/>
</g>
<g class="st0">
	<path class="st3" d="M216.8,77.1v-2.5h6.9V94l2.2,0.4V97H217v-2.5l2.2-0.4V77.5L216.8,77.1z"/>
	<path class="st3" d="M227.2,94.5l2.2-0.4v-9.6l-2.4-0.4v-2.5h6.9V94l2.2,0.4V97h-8.8V94.5z M233.8,77.7h-4.5v-3.1h4.5V77.7z"/>
	<path class="st3" d="M245.3,94.1c0.8,0,1.4-0.2,1.9-0.7s0.7-1,0.7-1.7h4.1l0,0.1c0,1.6-0.6,2.9-1.9,3.9c-1.3,1.1-2.9,1.6-4.9,1.6
		c-2.5,0-4.4-0.7-5.7-2.2c-1.3-1.5-2-3.3-2-5.6V89c0-2.3,0.7-4.2,2.1-5.6c1.4-1.5,3.3-2.2,5.9-2.2c1.3,0,2.5,0.2,3.6,0.6
		c1.1,0.4,2,0.9,2.7,1.6l0.1,4.2h-3.6l-0.7-2.4c-0.2-0.2-0.5-0.3-0.8-0.5c-0.3-0.1-0.7-0.2-1.1-0.2c-1.3,0-2.2,0.4-2.7,1.3
		c-0.5,0.9-0.8,2-0.8,3.3v0.4c0,1.4,0.2,2.5,0.7,3.4S244.1,94.1,245.3,94.1z"/>
	<path class="st3" d="M271.2,84l-1.6,0.2l-6.1,15.1c-0.5,1.1-1.1,2.1-1.9,2.8c-0.8,0.8-2,1.1-3.6,1.1c-0.4,0-0.7,0-1.1-0.1
		c-0.3-0.1-0.7-0.1-1.2-0.2l0.5-3.1c0.1,0,0.3,0,0.4,0.1s0.3,0,0.4,0c0.7,0,1.3-0.2,1.7-0.5s0.7-0.8,0.9-1.3l0.5-1.2L255,84.2
		l-1.6-0.2v-2.5h8.1V84l-1.9,0.3l2.3,6.2l0.2,1.1l0.1,0l2.6-7.3l-1.9-0.3v-2.5h8.1V84z"/>
	<path class="st3" d="M287.4,84l-1.6,0.3l2.2,7l0.3,1.5h0.1l0.3-1.5l2.2-6.9l-1.6-0.3v-2.5h7.5V84l-1.4,0.2L290.5,97h-4.3l-4.9-12.8
		l-1.4-0.2v-2.5h7.5V84z"/>
	<path class="st3" d="M298.3,94.5l3.8-0.4V79.9h-3.8v-2.4l8.3-1.4v18l3.8,0.4V97h-12V94.5z"/>
</g>
<g class="st0">
	<path class="st3" d="M99.5,116.8L99.5,116.8l-6.1,15.5h-3l-6-15.4l-0.1,0l0.4,9.2v3.3l2.4,0.4v2.5h-9.3v-2.5l2.4-0.4v-15l-2.4-0.4
		v-2.5h2.4h5.9l5.7,15.4h0.1l5.7-15.4h8.3v2.5l-2.4,0.4v15l2.4,0.4v2.5h-9.3v-2.5l2.4-0.4V126L99.5,116.8z"/>
	<path class="st3" d="M108,129.7l2.2-0.4v-9.6l-2.4-0.4v-2.5h6.6l0.2,2.3c0.4-0.8,0.9-1.4,1.5-1.9c0.6-0.4,1.3-0.7,2.1-0.7
		c0.2,0,0.5,0,0.7,0.1c0.3,0,0.5,0.1,0.7,0.1l-0.5,3.8l-1.8,0c-0.7,0-1.2,0.1-1.6,0.4c-0.4,0.2-0.8,0.6-1,1v7.6l2.2,0.4v2.5H108
		V129.7z"/>
	<path class="st3" d="M135.2,123.1h-7.6v6h7.2l0.2-2.5h3.4v5.7h-17.7v-2.5l2.4-0.4v-15l-2.4-0.4v-2.5h2.4h15.3v5.7H135l-0.2-2.5
		h-7.2v5.3h7.6V123.1z"/>
</g>
<g class="st0">
	<path class="st3" d="M140.7,129.7l2.2-0.4v-9.6l-2.4-0.4v-2.5h6.6l0.2,2.2c0.6-0.8,1.2-1.4,2-1.9c0.8-0.4,1.7-0.7,2.7-0.7
		c1.7,0,3,0.5,3.9,1.5c0.9,1,1.4,2.5,1.4,4.6v6.8l2.2,0.4v2.5H151v-2.5l1.9-0.4v-6.7c0-1-0.2-1.8-0.7-2.2c-0.5-0.4-1.1-0.7-2-0.7
		c-0.6,0-1.1,0.1-1.6,0.3c-0.5,0.2-0.9,0.5-1.2,1v8.3l1.8,0.4v2.5h-8.5V129.7z"/>
</g>
<g class="st0">
	<path class="st3" d="M168.6,129.3c0.8,0,1.4-0.2,1.9-0.7s0.7-1,0.7-1.7h4.1l0,0.1c0,1.6-0.6,2.9-1.9,3.9c-1.3,1.1-2.9,1.6-4.9,1.6
		c-2.5,0-4.4-0.7-5.7-2.2c-1.3-1.5-2-3.3-2-5.6v-0.4c0-2.3,0.7-4.2,2.1-5.6c1.4-1.5,3.3-2.2,5.9-2.2c1.3,0,2.5,0.2,3.6,0.6
		c1.1,0.4,2,0.9,2.7,1.6l0.1,4.2h-3.6l-0.7-2.4c-0.2-0.2-0.5-0.3-0.8-0.5c-0.3-0.1-0.7-0.2-1.1-0.2c-1.3,0-2.2,0.4-2.7,1.3
		c-0.5,0.9-0.8,2-0.8,3.3v0.4c0,1.4,0.2,2.5,0.7,3.4S167.4,129.3,168.6,129.3z"/>
	<path class="st3" d="M176.9,112.4v-2.5h6.9v19.5l2.2,0.4v2.5h-8.8v-2.5l2.2-0.4v-16.5L176.9,112.4z"/>
</g>
<g class="st0">
	<path class="st3" d="M198,132.3c-0.1-0.3-0.2-0.5-0.3-0.8c-0.1-0.3-0.2-0.5-0.2-0.8c-0.5,0.6-1.2,1-1.9,1.4
		c-0.8,0.4-1.6,0.5-2.6,0.5c-1.6,0-2.9-0.4-3.9-1.2c-1-0.8-1.4-2-1.4-3.4c0-1.5,0.6-2.6,1.9-3.4c1.2-0.8,3.1-1.2,5.5-1.2h2.3v-1.5
		c0-0.7-0.2-1.3-0.7-1.7s-1.1-0.6-2-0.6c-0.5,0-1,0.1-1.4,0.2c-0.4,0.1-0.7,0.2-1,0.4l-0.3,1.7h-3.4l0-3.4c0.8-0.5,1.8-1,2.8-1.3
		c1.1-0.4,2.2-0.5,3.5-0.5c2.1,0,3.7,0.5,5,1.4c1.3,0.9,1.9,2.3,1.9,4v6.4c0,0.2,0,0.5,0,0.7c0,0.2,0,0.4,0.1,0.6l1.4,0.2v2.5H198z
		 M194.1,129.5c0.7,0,1.3-0.1,1.8-0.4s1-0.6,1.3-1v-2.4H195c-1,0-1.7,0.2-2.2,0.6s-0.7,0.9-0.7,1.5c0,0.5,0.2,0.9,0.5,1.2
		C193,129.3,193.5,129.5,194.1,129.5z"/>
</g>
<g class="st0">
	<path class="st3" d="M211.5,119.2l-1.6,0.3l2.2,7l0.3,1.5h0.1l0.3-1.5l2.2-6.9l-1.6-0.3v-2.5h7.5v2.5l-1.4,0.2l-4.9,12.8h-4.3
		l-4.9-12.8l-1.4-0.2v-2.5h7.5V119.2z"/>
</g>
<g class="st0">
	<path class="st3" d="M230.2,132.6c-2.4,0-4.3-0.7-5.7-2.2s-2.2-3.3-2.2-5.5v-0.6c0-2.3,0.7-4.2,2-5.7c1.4-1.5,3.2-2.2,5.5-2.2
		c2.2,0,4,0.6,5.2,1.9c1.2,1.3,1.9,3,1.9,5.1v2.3h-9.9l0,0.1c0.1,1,0.4,1.9,1.1,2.5c0.7,0.7,1.5,1,2.7,1c1,0,1.8-0.1,2.5-0.3
		c0.7-0.2,1.4-0.5,2.2-0.9l1.2,2.6c-0.7,0.5-1.6,0.9-2.7,1.3S231.5,132.6,230.2,132.6z M229.8,119.7c-0.8,0-1.5,0.3-2,0.9
		s-0.8,1.4-0.9,2.3l0,0.1h5.5v-0.4c0-0.9-0.2-1.6-0.7-2.1C231.4,119.9,230.7,119.7,229.8,119.7z"/>
	<path class="st3" d="M261.4,121.3h-13.8V118h13.8V121.3z M261.4,127.5h-13.8v-3.3h13.8V127.5z"/>
	<path class="st3" d="M287.3,124.1c0,2.8-0.7,4.9-2,6.3c-1.4,1.4-3.2,2.1-5.5,2.1c-2.3,0-4.2-0.7-5.5-2.1c-1.4-1.4-2-3.5-2-6.3v-4.6
		c0-2.8,0.7-4.9,2-6.3s3.2-2.2,5.5-2.2c2.3,0,4.2,0.7,5.5,2.2s2.1,3.5,2.1,6.3V124.1z M282.9,119.1c0-1.7-0.3-2.9-0.8-3.6
		c-0.5-0.8-1.3-1.2-2.3-1.2c-1,0-1.8,0.4-2.3,1.1c-0.5,0.8-0.8,2-0.8,3.6v5.4c0,1.7,0.3,2.9,0.8,3.7c0.5,0.8,1.3,1.1,2.3,1.1
		c1,0,1.8-0.4,2.3-1.1c0.5-0.8,0.8-2,0.8-3.7V119.1z"/>
	<path class="st3" d="M289.8,132.3v-2.7l7.2-7.3c1-1.1,1.8-2.1,2.2-2.8c0.4-0.8,0.7-1.5,0.7-2.1c0-0.9-0.3-1.6-0.8-2.2
		c-0.5-0.6-1.2-0.8-2.2-0.8c-1,0-1.8,0.3-2.4,1c-0.5,0.7-0.8,1.5-0.8,2.6h-4.4l0-0.1c-0.1-1.9,0.6-3.5,2-4.8c1.4-1.3,3.2-2,5.6-2
		c2.3,0,4.1,0.6,5.4,1.7s2,2.6,2,4.5c0,1.3-0.4,2.4-1.1,3.5c-0.7,1.1-2,2.5-3.7,4.2l-4,4.1l0,0.1h5.8l0.2-2.1h3.4v5.3H289.8z"/>
	<path class="st3" d="M311.9,120h2.5c1.1,0,1.9-0.3,2.4-0.8c0.5-0.5,0.8-1.2,0.8-2.2c0-0.8-0.3-1.5-0.8-2c-0.5-0.5-1.3-0.8-2.2-0.8
		c-0.8,0-1.5,0.2-2.1,0.7s-0.9,1.1-0.9,1.8h-4.3l0-0.1c-0.1-1.6,0.6-3,2-4c1.4-1.1,3.1-1.6,5.2-1.6c2.3,0,4.2,0.5,5.5,1.6
		c1.4,1,2.1,2.5,2.1,4.4c0,0.9-0.3,1.8-0.9,2.6c-0.6,0.8-1.5,1.5-2.5,1.9c1.2,0.4,2.2,1,2.8,1.9s1,1.8,1,3c0,1.9-0.7,3.4-2.2,4.5
		s-3.4,1.6-5.7,1.6c-2.1,0-3.9-0.5-5.4-1.5c-1.5-1-2.2-2.5-2.2-4.4l0-0.1h4.3c0,0.8,0.3,1.5,0.9,2c0.6,0.5,1.4,0.8,2.3,0.8
		c1,0,1.9-0.3,2.5-0.8s0.9-1.3,0.9-2.2c0-1.1-0.3-1.9-0.9-2.4c-0.6-0.5-1.5-0.8-2.6-0.8h-2.5V120z"/>
	<path class="st3" d="M330.9,129.3c1.2,0,2.2-0.4,2.9-1.3c0.7-0.9,1.1-2.1,1.1-3.9v-0.3c-0.5,0.6-1.1,1.1-1.8,1.4s-1.4,0.5-2.2,0.5
		c-2.1,0-3.7-0.6-4.9-1.9c-1.2-1.3-1.8-3-1.8-5.3c0-2.1,0.7-3.9,2.1-5.3c1.4-1.4,3.2-2.1,5.4-2.1c2.3,0,4.1,0.7,5.6,2.2
		s2.1,3.5,2.1,6.2v4.5c0,2.7-0.8,4.8-2.4,6.3c-1.6,1.5-3.6,2.3-6.1,2.3c-0.8,0-1.6-0.1-2.4-0.2c-0.8-0.1-1.6-0.4-2.3-0.7l0.5-3
		c0.7,0.2,1.4,0.4,2,0.5C329.3,129.3,330,129.3,330.9,129.3z M331.6,122.7c0.7,0,1.4-0.1,2-0.4c0.6-0.3,1-0.6,1.3-1.1V119
		c0-1.5-0.3-2.7-0.9-3.5s-1.4-1.2-2.3-1.2c-0.9,0-1.6,0.4-2.2,1.2s-0.9,1.8-0.9,3c0,1.3,0.3,2.3,0.8,3
		C329.9,122.3,330.6,122.7,331.6,122.7z"/>
	<path class="st3" d="M347.1,132.3h-4.5v-3.7h4.5V132.3z"/>
	<path class="st3" d="M355.2,132.3h-4.5v-3.7h4.5V132.3z"/>
	<path class="st3" d="M363.2,132.3h-4.5v-3.7h4.5V132.3z"/>
</g>
<linearGradient id="SVGID_2_" gradientUnits="userSpaceOnUse" x1="39.64" y1="105.5" x2="403" y2="105.5" gradientTransform="matrix(1 0 0 -1 0 484)">
	<stop  offset="0" style="stop-color:#990066"/>
	<stop  offset="0.19" style="stop-color:#780066"/>
	<stop  offset="0.4" style="stop-color:#5A0066"/>
	<stop  offset="0.61" style="stop-color:#440066"/>
	<stop  offset="0.81" style="stop-color:#370066"/>
	<stop  offset="1" style="stop-color:#330066"/>
</linearGradient>
<path class="st4" d="M47.6,314H395c4.4,0,8,3.6,8,8v113c0,4.4-3.6,8-8,8H47.6c-4.4,0-8-3.6-8-8V322C39.6,317.6,43.2,314,47.6,314z"
	/>
<g class="st0">
	<path class="st3" d="M151.3,357.5L151.3,357.5l-6.1,15.5h-3l-6-15.4l-0.1,0l0.4,9.2v3.3l2.4,0.4v2.5h-9.3v-2.5l2.4-0.4v-15
		l-2.4-0.4v-2.5h2.4h5.9l5.7,15.4h0.1l5.7-15.4h8.3v2.5l-2.4,0.4v15l2.4,0.4v2.5h-9.3v-2.5l2.4-0.4v-3.3L151.3,357.5z"/>
	<path class="st3" d="M176.6,360l-1.6,0.2l-6.1,15.1c-0.5,1.1-1.1,2.1-1.9,2.8s-2,1.1-3.6,1.1c-0.4,0-0.7,0-1.1-0.1
		c-0.3-0.1-0.7-0.1-1.2-0.2l0.5-3.1c0.1,0,0.3,0,0.4,0.1s0.3,0,0.4,0c0.7,0,1.3-0.2,1.7-0.5s0.7-0.8,0.9-1.3l0.5-1.2l-5.3-12.8
		l-1.6-0.2v-2.5h8.1v2.5l-1.9,0.3l2.3,6.2l0.2,1.1l0.1,0l2.6-7.3l-1.9-0.3v-2.5h8.1V360z"/>
</g>
<g class="st0">
	<path class="st3" d="M188.6,352.1c2.6,0,4.6,0.6,6.1,1.8c1.5,1.2,2.2,2.8,2.2,4.8c0,2-0.7,3.6-2.2,4.8c-1.5,1.2-3.5,1.8-6.1,1.8
		h-3.8v4.6l2.4,0.4v2.5h-9.3v-2.5l2.4-0.4v-15l-2.4-0.4v-2.5h2.4H188.6z M184.8,362.2h3.8c1.2,0,2.2-0.3,2.8-1s1-1.4,1-2.4
		c0-1-0.3-1.8-1-2.5s-1.6-1-2.8-1h-3.8V362.2z"/>
</g>
<g class="st0">
	<path class="st3" d="M198.2,365.1c0-2.3,0.7-4.2,2.1-5.7c1.4-1.5,3.3-2.2,5.8-2.2c2.5,0,4.4,0.7,5.8,2.2c1.4,1.5,2.1,3.4,2.1,5.7
		v0.3c0,2.3-0.7,4.2-2.1,5.7s-3.3,2.2-5.7,2.2c-2.5,0-4.4-0.7-5.8-2.2c-1.4-1.5-2.1-3.4-2.1-5.7V365.1z M202.7,365.4
		c0,1.4,0.3,2.6,0.8,3.4c0.5,0.9,1.4,1.3,2.6,1.3c1.2,0,2-0.4,2.5-1.3c0.5-0.9,0.8-2,0.8-3.4v-0.3c0-1.4-0.3-2.5-0.8-3.4
		s-1.4-1.3-2.6-1.3c-1.2,0-2,0.4-2.6,1.3c-0.5,0.9-0.8,2-0.8,3.4V365.4z"/>
</g>
<g class="st0">
	<path class="st3" d="M215.1,353.1v-2.5h6.9V370l2.2,0.4v2.5h-8.8v-2.5l2.2-0.4v-16.5L215.1,353.1z"/>
	<path class="st3" d="M225.4,370.5l2.2-0.4v-9.6l-2.4-0.4v-2.5h6.9V370l2.2,0.4v2.5h-8.8V370.5z M232.1,353.7h-4.5v-3.1h4.5V353.7z"
		/>
	<path class="st3" d="M243.5,370.1c0.8,0,1.4-0.2,1.9-0.7s0.7-1,0.7-1.7h4.1l0,0.1c0,1.6-0.6,2.9-1.9,3.9c-1.3,1.1-2.9,1.6-4.9,1.6
		c-2.5,0-4.4-0.7-5.7-2.2c-1.3-1.5-2-3.3-2-5.6V365c0-2.3,0.7-4.2,2.1-5.6c1.4-1.5,3.3-2.2,5.9-2.2c1.3,0,2.5,0.2,3.6,0.6
		s2,0.9,2.7,1.6l0.1,4.2h-3.6l-0.7-2.4c-0.2-0.2-0.5-0.3-0.8-0.5c-0.3-0.1-0.7-0.2-1.1-0.2c-1.3,0-2.2,0.4-2.7,1.3
		c-0.5,0.9-0.8,2-0.8,3.3v0.4c0,1.4,0.2,2.5,0.7,3.4S242.3,370.1,243.5,370.1z"/>
	<path class="st3" d="M269.5,360l-1.6,0.2l-6.1,15.1c-0.5,1.1-1.1,2.1-1.9,2.8s-2,1.1-3.6,1.1c-0.4,0-0.7,0-1.1-0.1
		c-0.3-0.1-0.7-0.1-1.2-0.2l0.5-3.1c0.1,0,0.3,0,0.4,0.1s0.3,0,0.4,0c0.7,0,1.3-0.2,1.7-0.5s0.7-0.8,0.9-1.3l0.5-1.2l-5.3-12.8
		l-1.6-0.2v-2.5h8.1v2.5l-1.9,0.3l2.3,6.2l0.2,1.1l0.1,0l2.6-7.3l-1.9-0.3v-2.5h8.1V360z"/>
	<path class="st3" d="M285.7,360l-1.6,0.3l2.2,7l0.3,1.5h0.1l0.3-1.5l2.2-6.9l-1.6-0.3v-2.5h7.5v2.5l-1.4,0.2l-4.9,12.8h-4.3
		l-4.9-12.8l-1.4-0.2v-2.5h7.5V360z"/>
	<path class="st3" d="M296.7,373v-2.7l7.2-7.3c1-1.1,1.8-2.1,2.2-2.8c0.4-0.8,0.7-1.5,0.7-2.1c0-0.9-0.3-1.6-0.8-2.2
		c-0.5-0.6-1.2-0.8-2.2-0.8c-1,0-1.8,0.3-2.4,1c-0.5,0.7-0.8,1.5-0.8,2.6h-4.4l0-0.1c-0.1-1.9,0.6-3.5,2-4.8c1.4-1.3,3.2-2,5.6-2
		c2.3,0,4.1,0.6,5.4,1.7c1.3,1.1,2,2.6,2,4.5c0,1.3-0.4,2.4-1.1,3.5c-0.7,1.1-2,2.5-3.7,4.2l-4,4.1l0,0.1h5.8l0.2-2.1h3.4v5.3H296.7
		z"/>
</g>
<g class="st0">
	<path class="st3" d="M100,392.8L100,392.8l-6.1,15.5h-3l-6-15.4l-0.1,0l0.4,9.2v3.3l2.4,0.4v2.5h-9.3v-2.5l2.4-0.4v-15l-2.4-0.4
		v-2.5h2.4h5.9l5.7,15.4h0.1l5.7-15.4h8.3v2.5l-2.4,0.4v15l2.4,0.4v2.5h-9.3v-2.5l2.4-0.4V402L100,392.8z"/>
	<path class="st3" d="M108.5,405.7l2.2-0.4v-9.6l-2.4-0.4v-2.5h6.6l0.2,2.3c0.4-0.8,0.9-1.4,1.5-1.9c0.6-0.4,1.3-0.7,2.1-0.7
		c0.2,0,0.5,0,0.7,0.1c0.3,0,0.5,0.1,0.7,0.1l-0.5,3.8l-1.8,0c-0.7,0-1.2,0.1-1.6,0.4s-0.8,0.6-1,1v7.6l2.2,0.4v2.5h-8.8V405.7z"/>
	<path class="st3" d="M135.7,399.1h-7.6v6h7.2l0.2-2.5h3.4v5.7h-17.7v-2.5l2.4-0.4v-15l-2.4-0.4v-2.5h2.4h15.3v5.7h-3.4l-0.2-2.5
		h-7.2v5.3h7.6V399.1z"/>
</g>
<g class="st0">
	<path class="st3" d="M141.2,405.7l2.2-0.4v-9.6l-2.4-0.4v-2.5h6.6l0.2,2.2c0.6-0.8,1.2-1.4,2-1.9c0.8-0.4,1.7-0.7,2.7-0.7
		c1.7,0,3,0.5,3.9,1.5c0.9,1,1.4,2.5,1.4,4.6v6.8l2.2,0.4v2.5h-8.6v-2.5l1.9-0.4v-6.7c0-1-0.2-1.8-0.7-2.2c-0.5-0.4-1.1-0.7-2-0.7
		c-0.6,0-1.1,0.1-1.6,0.3c-0.5,0.2-0.9,0.5-1.2,1v8.3l1.8,0.4v2.5h-8.5V405.7z"/>
</g>
<g class="st0">
	<path class="st3" d="M169.1,405.3c0.8,0,1.4-0.2,1.9-0.7s0.7-1,0.7-1.7h4.1l0,0.1c0,1.6-0.6,2.9-1.9,3.9c-1.3,1.1-2.9,1.6-4.9,1.6
		c-2.5,0-4.4-0.7-5.7-2.2c-1.3-1.5-2-3.3-2-5.6v-0.4c0-2.3,0.7-4.2,2.1-5.6c1.4-1.5,3.3-2.2,5.9-2.2c1.3,0,2.5,0.2,3.6,0.6
		c1.1,0.4,2,0.9,2.7,1.6l0.1,4.2H172l-0.7-2.4c-0.2-0.2-0.5-0.3-0.8-0.5c-0.3-0.1-0.7-0.2-1.1-0.2c-1.3,0-2.2,0.4-2.7,1.3
		s-0.8,2-0.8,3.3v0.4c0,1.4,0.2,2.5,0.7,3.4C167,404.9,167.9,405.3,169.1,405.3z"/>
	<path class="st3" d="M177.4,388.4v-2.5h6.9v19.5l2.2,0.4v2.5h-8.8v-2.5l2.2-0.4v-16.5L177.4,388.4z"/>
</g>
<g class="st0">
	<path class="st3" d="M198.5,408.3c-0.1-0.3-0.2-0.5-0.3-0.8c-0.1-0.3-0.2-0.5-0.2-0.8c-0.5,0.6-1.2,1-1.9,1.4
		c-0.8,0.4-1.6,0.5-2.6,0.5c-1.6,0-2.9-0.4-3.9-1.2c-1-0.8-1.4-2-1.4-3.4c0-1.5,0.6-2.6,1.9-3.4c1.2-0.8,3.1-1.2,5.5-1.2h2.3v-1.5
		c0-0.7-0.2-1.3-0.7-1.7c-0.5-0.4-1.1-0.6-2-0.6c-0.5,0-1,0.1-1.4,0.2c-0.4,0.1-0.7,0.2-1,0.4l-0.3,1.7H189l0-3.4
		c0.8-0.5,1.8-1,2.8-1.3c1.1-0.4,2.2-0.5,3.5-0.5c2.1,0,3.7,0.5,5,1.4c1.3,0.9,1.9,2.3,1.9,4v6.4c0,0.2,0,0.5,0,0.7
		c0,0.2,0,0.4,0.1,0.6l1.4,0.2v2.5H198.5z M194.6,405.5c0.7,0,1.3-0.1,1.8-0.4c0.6-0.3,1-0.6,1.3-1v-2.4h-2.3c-1,0-1.7,0.2-2.2,0.6
		c-0.5,0.4-0.7,0.9-0.7,1.5c0,0.5,0.2,0.9,0.5,1.2S194,405.5,194.6,405.5z"/>
</g>
<g class="st0">
	<path class="st3" d="M212,395.2l-1.6,0.3l2.2,7l0.3,1.5h0.1l0.3-1.5l2.2-6.9l-1.6-0.3v-2.5h7.5v2.5l-1.4,0.2l-4.9,12.8h-4.3
		l-4.9-12.8l-1.4-0.2v-2.5h7.5V395.2z"/>
</g>
<g class="st0">
	<path class="st3" d="M230.6,408.6c-2.4,0-4.3-0.7-5.7-2.2c-1.4-1.4-2.2-3.3-2.2-5.5v-0.6c0-2.3,0.7-4.2,2-5.7
		c1.4-1.5,3.2-2.2,5.5-2.2c2.2,0,4,0.6,5.2,1.9c1.2,1.3,1.9,3,1.9,5.1v2.3h-9.9l0,0.1c0.1,1,0.4,1.9,1.1,2.5c0.7,0.7,1.5,1,2.7,1
		c1,0,1.8-0.1,2.5-0.3s1.4-0.5,2.2-0.9l1.2,2.6c-0.7,0.5-1.6,0.9-2.7,1.3C233.2,408.4,232,408.6,230.6,408.6z M230.2,395.7
		c-0.8,0-1.5,0.3-2,0.9c-0.5,0.6-0.8,1.4-0.9,2.3l0,0.1h5.5v-0.4c0-0.9-0.2-1.6-0.7-2.1C231.8,395.9,231.1,395.7,230.2,395.7z"/>
	<path class="st3" d="M261.9,397.3h-13.8V394h13.8V397.3z M261.9,403.5h-13.8v-3.3h13.8V403.5z"/>
	<path class="st3" d="M285.5,400.5h2.5v2.8h-2.5v2.1l2.4,0.4v2.5h-9.3v-2.5l2.4-0.4v-2.1h-9.1l-0.2-2.1l9.3-13.9h4.5V400.5z
		 M275.9,400.5h5.1v-7.5l-0.1,0l-0.4,0.6L275.9,400.5z"/>
	<path class="st3" d="M305.5,390.6c-2.4,2.6-4,5.1-4.9,7.3c-0.9,2.3-1.5,5-1.9,8.2l-0.2,2.1H294l0.2-2.1c0.3-3.1,1.1-5.9,2.2-8.5
		c1.1-2.6,2.7-4.9,4.7-7.1h-7.9l-0.2,2.1h-3.4v-5.3h15.8V390.6z"/>
	<path class="st3" d="M318.7,392.1l-0.4-1.4h-6l-0.6,4.8c0.4-0.3,0.9-0.5,1.5-0.7c0.6-0.2,1.2-0.3,1.9-0.3c2.2,0,3.8,0.6,5,1.8
		c1.2,1.2,1.8,3,1.8,5.2c0,2-0.6,3.7-1.9,5s-3.2,2-5.6,2c-2,0-3.8-0.5-5.3-1.6c-1.5-1-2.2-2.5-2.1-4.3l0-0.1l4.3-0.2
		c0,0.9,0.3,1.7,0.8,2.2c0.6,0.5,1.3,0.8,2.2,0.8c1,0,1.8-0.3,2.3-1c0.5-0.7,0.8-1.6,0.8-2.7c0-1.2-0.3-2.2-0.8-2.9
		s-1.3-1.1-2.4-1.1c-0.9,0-1.5,0.1-2,0.4c-0.5,0.3-0.8,0.7-1,1.2l-4-0.2l1.3-11.6h12.9v4.8H318.7z"/>
	<path class="st3" d="M330.4,405.3c1.2,0,2.2-0.4,2.9-1.3c0.7-0.9,1.1-2.1,1.1-3.9v-0.3c-0.5,0.6-1.1,1.1-1.8,1.4
		c-0.7,0.3-1.4,0.5-2.2,0.5c-2.1,0-3.7-0.6-4.9-1.9c-1.2-1.3-1.8-3-1.8-5.3c0-2.1,0.7-3.9,2.1-5.3c1.4-1.4,3.2-2.1,5.4-2.1
		c2.3,0,4.1,0.7,5.6,2.2s2.1,3.5,2.1,6.2v4.5c0,2.7-0.8,4.8-2.4,6.3c-1.6,1.5-3.6,2.3-6.1,2.3c-0.8,0-1.6-0.1-2.4-0.2
		c-0.8-0.1-1.6-0.4-2.3-0.7l0.5-3c0.7,0.2,1.4,0.4,2,0.5C328.8,405.3,329.6,405.3,330.4,405.3z M331.1,398.7c0.7,0,1.4-0.1,2-0.4
		c0.6-0.3,1-0.6,1.3-1.1V395c0-1.5-0.3-2.7-0.9-3.5s-1.4-1.2-2.3-1.2c-0.9,0-1.6,0.4-2.2,1.2s-0.9,1.8-0.9,3c0,1.3,0.3,2.3,0.8,3
		C329.4,398.3,330.1,398.7,331.1,398.7z"/>
	<path class="st3" d="M346.7,408.3h-4.5v-3.7h4.5V408.3z"/>
	<path class="st3" d="M354.7,408.3h-4.5v-3.7h4.5V408.3z"/>
	<path class="st3" d="M362.7,408.3h-4.5v-3.7h4.5V408.3z"/>
</g>
<g class="st0">
	<path class="st1" d="M470.4,214.3h-2.6v-6.6h19.8l0.4-2.1h2.6v8.4h-2.6l-0.4-2.1h-16.8L470.4,214.3z"/>
	<path class="st1" d="M471.1,198.1v4.3h-3.2v-4.3H471.1z M488.2,204.4l-0.4-2.1h-9.8l-0.4,2.3h-2.6v-6.6h12.8l0.4-2.1h2.6v8.4H488.2
		z"/>
</g>
<g class="st0">
	<path class="st1" d="M488.2,194.4l-0.4-2.1h-9.8v2.4h-3v-2.4h-1.8c-1.8,0-3.1-0.5-4.1-1.5c-1-1-1.4-2.5-1.4-4.3
		c0-0.4,0-0.7,0.1-1.1s0.1-0.8,0.2-1.2l3.2,0.4c0,0.2-0.1,0.5-0.1,0.7s0,0.5,0,0.8c0,0.7,0.2,1.2,0.6,1.6s0.9,0.5,1.6,0.5h1.8v-3.1
		h3v3.1h9.8l0.4-2.1h2.6v8.4H488.2z"/>
</g>
<g class="st0">
	<path class="st1" d="M491,176.2c0,2.3-0.7,4.1-2.2,5.5s-3.3,2.1-5.6,2.1h-0.6c-2.4,0-4.3-0.6-5.8-1.9s-2.3-3-2.3-5.2
		c0-2.1,0.6-3.8,1.9-5s3-1.8,5.2-1.8h2.3v9.5l0.1,0c1-0.1,1.9-0.4,2.6-1s1-1.5,1-2.5c0-0.9-0.1-1.7-0.3-2.4
		c-0.2-0.6-0.5-1.3-0.9-2.1l2.6-1.2c0.5,0.7,1,1.5,1.3,2.5S491,175,491,176.2z M477.9,176.6c0,0.8,0.3,1.4,0.9,1.9s1.4,0.7,2.4,0.8
		l0.1,0v-5.2h-0.4c-0.9,0-1.6,0.2-2.2,0.6C478.1,175.1,477.9,175.8,477.9,176.6z"/>
	<path class="st1" d="M471,161.5h3.9v-2.8h3v2.8h8.1c0.6,0,1.1-0.1,1.3-0.4s0.4-0.6,0.4-1c0-0.3,0-0.5,0-0.8s-0.1-0.5-0.1-0.7
		l3.1-0.4c0.1,0.5,0.3,1,0.3,1.4c0.1,0.5,0.1,1,0.1,1.5c0,1.5-0.4,2.6-1.2,3.4s-2.1,1.2-3.9,1.2h-8.1v2.3h-3v-2.3H471V161.5z"/>
	<path class="st1" d="M471.1,150.5v4.3h-3.2v-4.3H471.1z M488.2,156.8l-0.4-2.1h-9.8l-0.4,2.3h-2.6v-6.6h12.8l0.4-2.1h2.6v8.4H488.2
		z"/>
</g>
<g class="st0">
	<path class="st1" d="M477.4,147.5h-2.6v-6.3l2.1-0.2c-0.8-0.5-1.3-1.1-1.8-1.9s-0.6-1.7-0.6-2.7c0-1,0.2-1.9,0.7-2.6s1.1-1.3,2-1.6
		c-0.8-0.5-1.5-1.1-2-1.9s-0.7-1.7-0.7-2.8c0-1.6,0.5-2.8,1.6-3.7s2.7-1.4,4.9-1.4h6.6l0.4-2.1h2.6v8.2h-2.6l-0.4-1.8h-6.6
		c-1.2,0-2,0.2-2.5,0.6s-0.7,1-0.7,1.7c0,0.6,0.1,1.1,0.4,1.6s0.6,0.8,1.1,1.1c0.2,0,0.3,0,0.5,0c0.1,0,0.3,0,0.4,0h7.4l0.4-1.7h2.6
		v7.7h-2.6l-0.4-1.7h-6.6c-1.2,0-2,0.2-2.5,0.6c-0.5,0.4-0.7,1-0.7,1.8c0,0.6,0.1,1.1,0.3,1.5c0.2,0.4,0.5,0.8,0.9,1.1h8.6l0.4-1.8
		h2.6v8.2h-2.6l-0.4-2.1h-9.8L477.4,147.5z"/>
</g>
<g class="st0">
	<path class="st1" d="M491,111.6c0,2.3-0.7,4.1-2.2,5.5s-3.3,2.1-5.6,2.1h-0.6c-2.4,0-4.3-0.6-5.8-1.9s-2.3-3-2.3-5.2
		c0-2.1,0.6-3.8,1.9-5s3-1.8,5.2-1.8h2.3v9.5l0.1,0c1-0.1,1.9-0.4,2.6-1s1-1.5,1-2.5c0-0.9-0.1-1.7-0.3-2.4
		c-0.2-0.6-0.5-1.3-0.9-2.1l2.6-1.2c0.5,0.7,1,1.5,1.3,2.5S491,110.4,491,111.6z M477.9,112c0,0.8,0.3,1.4,0.9,1.9s1.4,0.7,2.4,0.8
		l0.1,0v-5.2h-0.4c-0.9,0-1.6,0.2-2.2,0.6C478.1,110.5,477.9,111.2,477.9,112z"/>
</g>
<polyline class="st5" points="521,281.4 511,281.4 511,38 521,38 "/>
<g class="st0">
	<path class="st1" d="M550.4,380.3h-2.6v-6.6h19.8l0.4-2.1h2.6v8.4h-2.6l-0.4-2.1h-16.8L550.4,380.3z"/>
	<path class="st1" d="M551.1,364.1v4.3h-3.2v-4.3H551.1z M568.2,370.4l-0.4-2.1h-9.8l-0.4,2.3h-2.6v-6.6h12.8l0.4-2.1h2.6v8.4H568.2
		z"/>
</g>
<g class="st0">
	<path class="st1" d="M568.2,360.4l-0.4-2.1h-9.8v2.4h-3v-2.4h-1.8c-1.8,0-3.1-0.5-4.1-1.5c-1-1-1.4-2.5-1.4-4.3
		c0-0.4,0-0.7,0.1-1.1c0.1-0.4,0.1-0.8,0.2-1.2l3.2,0.4c0,0.2-0.1,0.5-0.1,0.7c0,0.2,0,0.5,0,0.8c0,0.7,0.2,1.2,0.6,1.6
		c0.4,0.4,0.9,0.5,1.6,0.5h1.8v-3.1h3v3.1h9.8l0.4-2.1h2.6v8.4H568.2z"/>
</g>
<g class="st0">
	<path class="st1" d="M571,342.2c0,2.3-0.7,4.1-2.2,5.5s-3.3,2.1-5.6,2.1h-0.6c-2.4,0-4.3-0.6-5.8-1.9c-1.5-1.3-2.3-3-2.3-5.2
		c0-2.1,0.6-3.8,1.9-5s3-1.8,5.2-1.8h2.3v9.5l0.1,0c1-0.1,1.9-0.4,2.6-1c0.7-0.6,1-1.5,1-2.5c0-0.9-0.1-1.7-0.3-2.4
		c-0.2-0.6-0.5-1.3-0.9-2.1l2.6-1.2c0.5,0.7,1,1.5,1.3,2.5C570.9,339.8,571,341,571,342.2z M557.9,342.6c0,0.8,0.3,1.4,0.9,1.9
		s1.4,0.7,2.4,0.8l0.1,0v-5.2h-0.4c-0.9,0-1.6,0.2-2.2,0.6C558.1,341.1,557.9,341.8,557.9,342.6z"/>
	<path class="st1" d="M551,327.5h3.9v-2.8h3v2.8h8.1c0.6,0,1.1-0.1,1.3-0.4s0.4-0.6,0.4-1c0-0.3,0-0.5,0-0.8c0-0.2-0.1-0.5-0.1-0.7
		l3.1-0.4c0.1,0.5,0.3,1,0.3,1.4c0.1,0.5,0.1,1,0.1,1.5c0,1.5-0.4,2.6-1.2,3.4c-0.8,0.8-2.1,1.2-3.9,1.2h-8.1v2.3h-3v-2.3H551V327.5
		z"/>
	<path class="st1" d="M551.1,316.5v4.3h-3.2v-4.3H551.1z M568.2,322.8l-0.4-2.1h-9.8l-0.4,2.3h-2.6v-6.6h12.8l0.4-2.1h2.6v8.4H568.2
		z"/>
</g>
<g class="st0">
	<path class="st1" d="M557.4,313.5h-2.6v-6.3l2.1-0.2c-0.8-0.5-1.3-1.1-1.8-1.9c-0.4-0.8-0.6-1.7-0.6-2.7c0-1,0.2-1.9,0.7-2.6
		s1.1-1.3,2-1.6c-0.8-0.5-1.5-1.1-2-1.9s-0.7-1.7-0.7-2.8c0-1.6,0.5-2.8,1.6-3.7c1.1-0.9,2.7-1.4,4.9-1.4h6.6l0.4-2.1h2.6v8.2h-2.6
		l-0.4-1.8h-6.6c-1.2,0-2,0.2-2.5,0.6s-0.7,1-0.7,1.7c0,0.6,0.1,1.1,0.4,1.6c0.3,0.4,0.6,0.8,1.1,1.1c0.2,0,0.3,0,0.5,0
		c0.1,0,0.3,0,0.4,0h7.4l0.4-1.7h2.6v7.7h-2.6l-0.4-1.7h-6.6c-1.2,0-2,0.2-2.5,0.6c-0.5,0.4-0.7,1-0.7,1.8c0,0.6,0.1,1.1,0.3,1.5
		c0.2,0.4,0.5,0.8,0.9,1.1h8.6l0.4-1.8h2.6v8.2h-2.6l-0.4-2.1h-9.8L557.4,313.5z"/>
</g>
<g class="st0">
	<path class="st1" d="M571,277.6c0,2.3-0.7,4.1-2.2,5.5s-3.3,2.1-5.6,2.1h-0.6c-2.4,0-4.3-0.6-5.8-1.9c-1.5-1.3-2.3-3-2.3-5.2
		c0-2.1,0.6-3.8,1.9-5s3-1.8,5.2-1.8h2.3v9.5l0.1,0c1-0.1,1.9-0.4,2.6-1c0.7-0.6,1-1.5,1-2.5c0-0.9-0.1-1.7-0.3-2.4
		c-0.2-0.6-0.5-1.3-0.9-2.1l2.6-1.2c0.5,0.7,1,1.5,1.3,2.5C570.9,275.2,571,276.4,571,277.6z M557.9,278c0,0.8,0.3,1.4,0.9,1.9
		s1.4,0.7,2.4,0.8l0.1,0v-5.2h-0.4c-0.9,0-1.6,0.2-2.2,0.6C558.1,276.5,557.9,277.2,557.9,278z"/>
</g>
<polyline class="st5" points="601,447 591,447 591,203.6 601,203.6 "/>
<polyline class="st6" points="241.8,245.4 221.3,265.9 200.8,245.4 "/>
<line class="st6" x1="221.3" y1="213.9" x2="221.3" y2="255.4"/>
<g class="st0">
	<path class="st7" d="M287.9,230.9c-0.5,0.7-1.1,1.3-1.9,1.7s-1.6,0.6-2.6,0.6c-1.7,0-3-0.5-3.9-1.6c-0.9-1.1-1.4-2.7-1.4-5v-6.5
		l-1.7-0.4v-2.6h1.7h4.3v9.6c0,1.2,0.2,2,0.6,2.5s1,0.8,1.7,0.8c0.7,0,1.3-0.1,1.8-0.3c0.5-0.2,0.9-0.5,1.2-0.9v-8.5l-1.9-0.4v-2.6
		h1.9h4.3v12.8l1.9,0.4v2.6h-5.7L287.9,230.9z"/>
	<path class="st7" d="M295.2,219.6v-2.6h6.2l0.2,1.8c0.5-0.7,1-1.2,1.7-1.6s1.4-0.6,2.3-0.6c2,0,3.5,0.8,4.6,2.3s1.6,3.5,1.6,6v0.3
		c0,2.3-0.5,4.2-1.6,5.7s-2.6,2.1-4.5,2.1c-0.8,0-1.6-0.2-2.2-0.5c-0.6-0.3-1.2-0.8-1.7-1.4v4.6l2.1,0.4v2.6h-8.4v-2.6l2.1-0.4
		v-15.9L295.2,219.6z M307.5,225.1c0-1.5-0.2-2.7-0.7-3.6s-1.3-1.4-2.3-1.4c-0.6,0-1.2,0.1-1.6,0.4s-0.8,0.6-1.1,1.1v6.9
		c0.3,0.4,0.6,0.8,1.1,1s1,0.4,1.7,0.4c1,0,1.8-0.4,2.3-1.2s0.7-1.9,0.7-3.3V225.1z"/>
	<path class="st7" d="M324,231c-0.5,0.7-1.1,1.3-1.8,1.7s-1.5,0.6-2.3,0.6c-2,0-3.5-0.7-4.5-2.1s-1.6-3.3-1.6-5.7v-0.3
		c0-2.5,0.5-4.5,1.6-6s2.6-2.3,4.6-2.3c0.8,0,1.5,0.2,2.1,0.5c0.6,0.3,1.2,0.8,1.7,1.5v-5.7l-2.3-0.4V210h2.3h4.3v19.8l2.1,0.4v2.6
		h-5.8L324,231z M318.1,225.4c0,1.4,0.2,2.5,0.7,3.3s1.2,1.2,2.3,1.2c0.6,0,1.2-0.1,1.6-0.4s0.8-0.6,1.1-1.1v-6.7
		c-0.3-0.5-0.7-0.9-1.1-1.2c-0.5-0.3-1-0.4-1.6-0.4c-1,0-1.8,0.5-2.3,1.4s-0.7,2.1-0.7,3.6V225.4z"/>
</g>
<g class="st0">
	<path class="st7" d="M341.6,232.9c-0.1-0.3-0.2-0.5-0.3-0.8c-0.1-0.3-0.2-0.6-0.2-0.8c-0.5,0.6-1.1,1.1-1.9,1.4s-1.6,0.5-2.5,0.5
		c-1.6,0-2.8-0.4-3.7-1.3s-1.4-2-1.4-3.5c0-1.5,0.6-2.6,1.8-3.4s2.9-1.2,5.2-1.2h2.2v-1.6c0-0.8-0.2-1.4-0.7-1.8s-1.1-0.6-1.9-0.6
		c-0.5,0-0.9,0.1-1.3,0.2s-0.7,0.2-0.9,0.4l-0.3,1.7h-3.2l0-3.5c0.8-0.5,1.7-1,2.7-1.3s2.1-0.5,3.3-0.5c2,0,3.6,0.5,4.8,1.4
		s1.8,2.3,1.8,4.1v6.5c0,0.2,0,0.5,0,0.7s0,0.4,0.1,0.6l1.3,0.2v2.6H341.6z M337.9,230c0.6,0,1.2-0.1,1.8-0.4c0.5-0.3,0.9-0.6,1.2-1
		v-2.4h-2.2c-0.9,0-1.6,0.2-2.1,0.6c-0.5,0.4-0.7,0.9-0.7,1.5c0,0.5,0.2,1,0.5,1.3S337.2,230,337.9,230z"/>
</g>
<g class="st0">
	<path class="st7" d="M353.1,213.2v3.9h2.8v3h-2.8v8.1c0,0.6,0.1,1.1,0.4,1.3s0.6,0.4,1,0.4c0.3,0,0.5,0,0.8,0s0.5-0.1,0.7-0.1
		l0.4,3.1c-0.5,0.1-1,0.3-1.4,0.3c-0.5,0.1-1,0.1-1.5,0.1c-1.5,0-2.6-0.4-3.4-1.2s-1.2-2.1-1.2-3.9v-8.1h-2.3v-3h2.3v-3.9H353.1z"/>
	<path class="st7" d="M365.6,233.2c-2.3,0-4.1-0.7-5.5-2.2s-2.1-3.3-2.1-5.6v-0.6c0-2.4,0.6-4.3,1.9-5.8s3-2.3,5.2-2.3
		c2.1,0,3.8,0.6,5,1.9s1.8,3,1.8,5.2v2.3h-9.5l0,0.1c0.1,1,0.4,1.9,1,2.6s1.5,1,2.5,1c0.9,0,1.7-0.1,2.4-0.3
		c0.6-0.2,1.3-0.5,2.1-0.9l1.2,2.6c-0.7,0.5-1.5,1-2.5,1.3S366.8,233.2,365.6,233.2z M365.2,220.1c-0.8,0-1.4,0.3-1.9,0.9
		s-0.7,1.4-0.8,2.4l0,0.1h5.2V223c0-0.9-0.2-1.6-0.6-2.2C366.7,220.3,366,220.1,365.2,220.1z"/>
</g>
<g class="st0">
	<path class="st7" d="M276.5,248.6v-2.6h6.2l0.2,1.8c0.5-0.7,1-1.2,1.7-1.6s1.4-0.6,2.3-0.6c2,0,3.5,0.8,4.6,2.3s1.6,3.5,1.6,6v0.3
		c0,2.3-0.5,4.2-1.6,5.7s-2.6,2.1-4.5,2.1c-0.8,0-1.6-0.2-2.2-0.5c-0.6-0.3-1.2-0.8-1.7-1.4v4.6l2.1,0.4v2.6h-8.4v-2.6l2.1-0.4
		v-15.9L276.5,248.6z M288.8,254.1c0-1.5-0.2-2.7-0.7-3.6s-1.3-1.4-2.3-1.4c-0.6,0-1.2,0.1-1.6,0.4s-0.8,0.6-1.1,1.1v6.9
		c0.3,0.4,0.6,0.8,1.1,1s1,0.4,1.7,0.4c1,0,1.8-0.4,2.3-1.2s0.7-1.9,0.7-3.3V254.1z"/>
</g>
<g class="st0">
	<path class="st7" d="M295,253.8c0-2.4,0.7-4.3,2-5.8c1.3-1.5,3.2-2.3,5.5-2.3c2.3,0,4.2,0.8,5.5,2.3s2,3.4,2,5.8v0.3
		c0,2.4-0.7,4.3-2,5.8c-1.3,1.5-3.1,2.2-5.5,2.2c-2.4,0-4.2-0.7-5.5-2.2c-1.3-1.5-2-3.4-2-5.8V253.8z M299.3,254.1
		c0,1.4,0.3,2.6,0.8,3.5c0.5,0.9,1.3,1.3,2.5,1.3c1.1,0,1.9-0.4,2.4-1.3s0.8-2,0.8-3.5v-0.3c0-1.4-0.3-2.6-0.8-3.4s-1.3-1.3-2.4-1.3
		s-1.9,0.4-2.4,1.3s-0.8,2-0.8,3.4V254.1z"/>
</g>
<g class="st0">
	<path class="st7" d="M311.1,241.6V239h6.6v19.8l2.1,0.4v2.6h-8.4v-2.6l2.1-0.4v-16.8L311.1,241.6z"/>
	<path class="st7" d="M321,259.3l2.1-0.4v-9.8l-2.3-0.4v-2.6h6.6v12.8l2.1,0.4v2.6H321V259.3z M327.3,242.3H323V239h4.3V242.3z"/>
	<path class="st7" d="M338.2,258.9c0.8,0,1.4-0.2,1.8-0.7c0.5-0.4,0.7-1,0.7-1.8h3.9l0,0.1c0,1.6-0.6,2.9-1.8,4s-2.8,1.6-4.6,1.6
		c-2.4,0-4.2-0.7-5.5-2.2s-1.9-3.4-1.9-5.8v-0.4c0-2.3,0.7-4.3,2-5.8s3.2-2.3,5.6-2.3c1.3,0,2.4,0.2,3.4,0.6s1.9,0.9,2.5,1.6
		l0.1,4.2H341l-0.7-2.5c-0.2-0.2-0.5-0.3-0.8-0.5c-0.3-0.1-0.7-0.2-1.1-0.2c-1.2,0-2.1,0.4-2.6,1.3s-0.7,2-0.7,3.4v0.4
		c0,1.4,0.2,2.6,0.7,3.4C336.2,258.5,337,258.9,338.2,258.9z"/>
	<path class="st7" d="M363,248.6l-1.5,0.2l-5.8,15.4c-0.5,1.1-1.1,2.1-1.8,2.9s-1.9,1.2-3.5,1.2c-0.4,0-0.7,0-1-0.1
		s-0.7-0.1-1.1-0.2l0.5-3.1c0.1,0,0.3,0,0.4,0.1s0.3,0,0.4,0c0.7,0,1.3-0.2,1.6-0.5s0.7-0.8,0.9-1.3l0.5-1.2l-5-13.1l-1.5-0.2v-2.6
		h7.8v2.6l-1.8,0.3l2.2,6.3l0.2,1.1l0.1,0l2.5-7.5l-1.8-0.3v-2.6h7.8V248.6z"/>
</g>
</svg>
