<?xml version="1.0" encoding="utf-8"?>
<!-- Generator: Adobe Illustrator 24.2.0, SVG Export Plug-In . SVG Version: 6.00 Build 0)  -->
<svg version="1.1" id="Ebene_1" xmlns="http://www.w3.org/2000/svg" xmlns:xlink="http://www.w3.org/1999/xlink" x="0px" y="0px"
	 viewBox="0 0 545 465" style="enable-background:new 0 0 545 465;" xml:space="preserve">
<style type="text/css">
	.st0{enable-background:new    ;}
	.st1{fill:#33245E;}
	.st2{fill:url(#SVGID_1_);stroke:#FFCB03;stroke-width:2;stroke-miterlimit:10;}
	.st3{fill:#FFFFFF;}
	.st4{clip-path:url(#SVGID_3_);}
	.st5{clip-path:url(#SVGID_5_);}
	.st6{fill:#FFD138;}
	.st7{fill:#FDFEFF;}
	.st8{fill:#FFFFFF;stroke:#FFCB03;stroke-width:2;stroke-linecap:round;stroke-linejoin:round;}
	.st9{fill:none;stroke:#FFCB03;stroke-width:2;stroke-linecap:round;stroke-linejoin:round;}
	.st10{fill:#FFCB03;}
	.st11{opacity:0.5;enable-background:new    ;}
	.st12{opacity:0.5;}
	.st13{fill:none;stroke:#33245E;stroke-width:2;stroke-miterlimit:10;stroke-dasharray:4,4;}
	.st14{fill:none;stroke:#33245E;stroke-width:2;stroke-linecap:round;stroke-linejoin:round;}
	.st15{fill:url(#SVGID_6_);stroke:#FFCB03;stroke-width:2;stroke-miterlimit:10;}
	.st16{clip-path:url(#SVGID_8_);}
	.st17{clip-path:url(#SVGID_10_);}
	.st18{fill:url(#SVGID_11_);stroke:#3399FF;stroke-width:2;stroke-miterlimit:10;}
	.st19{fill:none;stroke:#FFCC00;stroke-width:2;stroke-linecap:round;stroke-linejoin:round;}
	.st20{fill:#FFCC00;}
	.st21{fill:url(#SVGID_12_);stroke:#3399FF;stroke-width:2;stroke-miterlimit:10;}
	.st22{fill:#3399FF;}
	.st23{fill:url(#SVGID_13_);stroke:#3399FF;stroke-width:2;stroke-miterlimit:10;}
</style>
<g class="st0">
	<path class="st1" d="M251.3,200.7l0.6-0.1l2.7-7.1h0.9l2.7,7.1l0.6,0.1v0.7h-2.2v-0.7l0.6-0.1l-0.5-1.4h-3.1l-0.5,1.4l0.6,0.1v0.7
		h-2.2V200.7z M253.8,198.3h2.5l-1.2-3.4h0L253.8,198.3z"/>
	<path class="st1" d="M259.4,202.9l0.9-0.2v-6.4l-0.9-0.2v-0.7h1.8l0.1,0.7c0.2-0.3,0.4-0.5,0.7-0.6c0.3-0.1,0.6-0.2,1-0.2
		c0.7,0,1.3,0.3,1.7,0.9c0.4,0.6,0.6,1.3,0.6,2.3v0.1c0,0.8-0.2,1.5-0.6,2s-1,0.8-1.7,0.8c-0.4,0-0.7-0.1-0.9-0.2
		c-0.3-0.1-0.5-0.3-0.7-0.5v2l0.9,0.2v0.7h-2.8V202.9z M264.2,198.6c0-0.7-0.1-1.2-0.4-1.6s-0.6-0.6-1.1-0.6c-0.3,0-0.6,0.1-0.8,0.2
		s-0.4,0.3-0.5,0.6v2.8c0.1,0.2,0.3,0.4,0.5,0.6c0.2,0.1,0.5,0.2,0.8,0.2c0.5,0,0.9-0.2,1.1-0.5s0.4-0.8,0.4-1.4V198.6z"/>
	<path class="st1" d="M266.1,202.9l0.9-0.2v-6.4l-0.9-0.2v-0.7h1.8l0.1,0.7c0.2-0.3,0.4-0.5,0.7-0.6c0.3-0.1,0.6-0.2,1-0.2
		c0.7,0,1.3,0.3,1.7,0.9c0.4,0.6,0.6,1.3,0.6,2.3v0.1c0,0.8-0.2,1.5-0.6,2s-1,0.8-1.7,0.8c-0.4,0-0.7-0.1-0.9-0.2
		c-0.3-0.1-0.5-0.3-0.7-0.5v2l0.9,0.2v0.7h-2.8V202.9z M270.8,198.6c0-0.7-0.1-1.2-0.4-1.6s-0.6-0.6-1.1-0.6c-0.3,0-0.6,0.1-0.8,0.2
		s-0.4,0.3-0.5,0.6v2.8c0.1,0.2,0.3,0.4,0.5,0.6c0.2,0.1,0.5,0.2,0.8,0.2c0.5,0,0.9-0.2,1.1-0.5s0.4-0.8,0.4-1.4V198.6z"/>
</g>
<g class="st0">
	<path class="st1" d="M279.1,193.6c0.8,0,1.5,0.2,1.9,0.6c0.5,0.4,0.7,1,0.7,1.7c0,0.7-0.2,1.3-0.7,1.7c-0.5,0.4-1.1,0.6-1.9,0.6
		h-1.7v2.3l0.9,0.2v0.7h-2.8v-0.7l0.9-0.2v-6.2l-0.9-0.2v-0.7h0.9H279.1z M277.4,197.4h1.7c0.5,0,0.9-0.1,1.2-0.4
		c0.3-0.3,0.4-0.6,0.4-1.1s-0.1-0.8-0.4-1.1c-0.3-0.3-0.7-0.4-1.2-0.4h-1.7V197.4z"/>
</g>
<g class="st0">
	<path class="st1" d="M282.5,198.4c0-0.9,0.2-1.6,0.7-2.1c0.5-0.6,1.1-0.8,1.9-0.8c0.8,0,1.4,0.3,1.9,0.8c0.5,0.6,0.7,1.3,0.7,2.1
		v0.1c0,0.9-0.2,1.6-0.7,2.1c-0.5,0.6-1.1,0.8-1.9,0.8c-0.8,0-1.4-0.3-1.9-0.8c-0.5-0.6-0.7-1.3-0.7-2.1V198.4z M283.6,198.5
		c0,0.6,0.1,1.1,0.4,1.5c0.3,0.4,0.6,0.6,1.2,0.6c0.5,0,0.9-0.2,1.1-0.6c0.3-0.4,0.4-0.9,0.4-1.5v-0.1c0-0.6-0.1-1.1-0.4-1.5
		c-0.3-0.4-0.6-0.6-1.2-0.6c-0.5,0-0.9,0.2-1.1,0.6s-0.4,0.9-0.4,1.5V198.5z"/>
</g>
<g class="st0">
	<path class="st1" d="M288.4,193.7V193h1.9v7.6l0.9,0.2v0.7h-2.8v-0.7l0.9-0.2v-6.7L288.4,193.7z"/>
	<path class="st1" d="M292,200.7l0.9-0.2v-4.2l-0.9-0.2v-0.7h1.9v5l0.9,0.2v0.7H292V200.7z M294,194.1h-1.1V193h1.1V194.1z"/>
	<path class="st1" d="M298.3,200.7c0.4,0,0.7-0.1,0.9-0.3c0.3-0.2,0.4-0.5,0.4-0.8h1l0,0c0,0.5-0.2,0.9-0.7,1.3s-1,0.6-1.6,0.6
		c-0.8,0-1.5-0.3-1.9-0.8c-0.4-0.6-0.7-1.2-0.7-2.1v-0.2c0-0.8,0.2-1.5,0.7-2.1c0.4-0.6,1.1-0.8,1.9-0.8c0.5,0,0.9,0.1,1.3,0.2
		c0.4,0.2,0.7,0.4,0.9,0.6l0,1.3h-0.8l-0.2-0.9c-0.1-0.1-0.3-0.2-0.5-0.3c-0.2-0.1-0.4-0.1-0.7-0.1c-0.6,0-1,0.2-1.2,0.6
		c-0.2,0.4-0.4,0.9-0.4,1.5v0.2c0,0.6,0.1,1.1,0.4,1.5S297.7,200.7,298.3,200.7z"/>
	<path class="st1" d="M307.1,196.3l-0.5,0.1l-2.2,5.9c-0.1,0.4-0.4,0.7-0.6,1c-0.3,0.3-0.6,0.4-1.1,0.4c-0.1,0-0.2,0-0.3,0
		c-0.1,0-0.2,0-0.3-0.1l0.1-0.8c0,0,0,0,0.2,0c0.1,0,0.2,0,0.3,0c0.2,0,0.4-0.1,0.5-0.3s0.3-0.4,0.4-0.7l0.3-0.6l-1.9-4.9l-0.5-0.1
		v-0.7h2.3v0.7l-0.7,0.1l1,2.9l0.2,0.7h0l1.2-3.6l-0.7-0.1v-0.7h2.3V196.3z"/>
</g>
<g class="st0">
	<path class="st1" d="M251.6,211.4c0-1.4,0.3-2.6,0.9-3.6s1.2-1.7,1.8-2l0,0l0.2,0.6c-0.5,0.4-0.9,1-1.3,1.8s-0.5,1.9-0.5,3.1v0.1
		c0,1.2,0.2,2.3,0.5,3.1c0.4,0.8,0.8,1.5,1.3,1.9l-0.2,0.6h0c-0.6-0.3-1.2-1-1.8-2S251.6,212.9,251.6,211.4L251.6,211.4z"/>
	<path class="st1" d="M257.7,214.7c-0.8,0-1.5-0.3-1.9-0.8c-0.5-0.5-0.7-1.2-0.7-2.1v-0.2c0-0.8,0.2-1.5,0.7-2.1
		c0.5-0.5,1.1-0.8,1.7-0.8c0.8,0,1.4,0.2,1.8,0.7c0.4,0.5,0.6,1.1,0.6,1.9v0.7h-3.8l0,0c0,0.6,0.2,1,0.4,1.4
		c0.3,0.4,0.7,0.5,1.1,0.5c0.4,0,0.7-0.1,0.9-0.2c0.3-0.1,0.5-0.2,0.7-0.4l0.4,0.7c-0.2,0.2-0.5,0.4-0.8,0.5
		C258.6,214.6,258.2,214.7,257.7,214.7z M257.5,209.5c-0.4,0-0.7,0.1-0.9,0.4s-0.4,0.7-0.5,1.1l0,0h2.7V211c0-0.4-0.1-0.8-0.3-1
		S258,209.5,257.5,209.5z"/>
	<path class="st1" d="M262.3,214.6h-1.1v-1.1h1.1V214.6z"/>
	<path class="st1" d="M263.6,211.8c0-0.9,0.2-1.7,0.6-2.3s1-0.9,1.7-0.9c0.4,0,0.7,0.1,1,0.2s0.5,0.4,0.7,0.6l0.1-0.7h0.9v5.7
		c0,0.8-0.2,1.3-0.6,1.8s-1,0.6-1.8,0.6c-0.3,0-0.6,0-0.9-0.1s-0.6-0.2-0.9-0.3l0.3-0.8c0.2,0.1,0.4,0.2,0.7,0.3s0.5,0.1,0.8,0.1
		c0.5,0,0.8-0.1,1-0.4c0.2-0.3,0.3-0.6,0.3-1.1V214c-0.2,0.2-0.4,0.4-0.7,0.6s-0.6,0.2-0.9,0.2c-0.7,0-1.3-0.3-1.7-0.8
		s-0.6-1.2-0.6-2V211.8z M264.7,211.9c0,0.6,0.1,1.1,0.4,1.4s0.6,0.5,1.1,0.5c0.3,0,0.6-0.1,0.8-0.2c0.2-0.1,0.4-0.4,0.5-0.6v-2.7
		c-0.1-0.2-0.3-0.4-0.5-0.6c-0.2-0.1-0.5-0.2-0.8-0.2c-0.5,0-0.9,0.2-1.1,0.6s-0.4,1-0.4,1.6V211.9z"/>
	<path class="st1" d="M271.2,214.6h-1.1v-1.1h1.1V214.6z"/>
</g>
<g class="st0">
	<path class="st1" d="M279.8,210.8h-1.1l-0.2-0.7c-0.1-0.1-0.2-0.2-0.4-0.2c-0.2-0.1-0.3-0.1-0.5-0.1c-0.3,0-0.5,0.1-0.7,0.2
		c-0.2,0.1-0.2,0.3-0.2,0.5c0,0.2,0.1,0.3,0.2,0.4c0.2,0.1,0.5,0.2,0.9,0.3c0.7,0.1,1.3,0.4,1.6,0.6c0.3,0.3,0.5,0.7,0.5,1.1
		c0,0.5-0.2,1-0.7,1.3s-1,0.5-1.8,0.5c-0.4,0-0.9-0.1-1.2-0.2s-0.7-0.3-1-0.6l0-1.3h1.1l0.2,0.8c0.1,0.1,0.2,0.1,0.4,0.2
		c0.2,0,0.3,0.1,0.5,0.1c0.3,0,0.6-0.1,0.7-0.2c0.2-0.1,0.3-0.3,0.3-0.5c0-0.2-0.1-0.3-0.3-0.4c-0.2-0.1-0.5-0.2-0.9-0.3
		c-0.7-0.1-1.2-0.3-1.5-0.6c-0.3-0.3-0.5-0.6-0.5-1.1c0-0.5,0.2-0.9,0.6-1.3c0.4-0.4,1-0.5,1.7-0.5c0.5,0,0.9,0.1,1.3,0.2
		c0.4,0.1,0.7,0.3,0.9,0.5L279.8,210.8z"/>
	<path class="st1" d="M283.5,214.7c-0.8,0-1.5-0.3-2-0.8c-0.5-0.5-0.8-1.2-0.8-2v-0.2c0-0.9,0.2-1.6,0.7-2.1
		c0.5-0.6,1.1-0.8,1.9-0.8c0.8,0,1.4,0.2,1.8,0.7c0.4,0.5,0.6,1.1,0.6,1.9v0.9h-3.5l0,0c0,0.4,0.2,0.7,0.4,0.9
		c0.2,0.2,0.5,0.4,0.9,0.4c0.3,0,0.6,0,0.9-0.1c0.2-0.1,0.5-0.2,0.8-0.3l0.4,1c-0.2,0.2-0.6,0.3-0.9,0.5
		C284.4,214.6,284,214.7,283.5,214.7z M283.4,209.9c-0.3,0-0.5,0.1-0.7,0.3c-0.2,0.2-0.3,0.5-0.3,0.9l0,0h1.9V211
		c0-0.3-0.1-0.6-0.2-0.8C283.9,210,283.7,209.9,283.4,209.9z"/>
	<path class="st1" d="M289.3,213.5c0.3,0,0.5-0.1,0.7-0.2c0.2-0.2,0.3-0.4,0.3-0.7h1.4l0,0c0,0.6-0.2,1.1-0.7,1.5
		c-0.5,0.4-1,0.6-1.7,0.6c-0.9,0-1.5-0.3-2-0.8c-0.5-0.5-0.7-1.3-0.7-2.1v-0.2c0-0.9,0.2-1.6,0.7-2.1s1.2-0.8,2.1-0.8
		c0.5,0,0.9,0.1,1.3,0.2c0.4,0.1,0.7,0.3,0.9,0.6l0,1.6h-1.3l-0.3-0.9c-0.1-0.1-0.2-0.1-0.3-0.2c-0.1,0-0.2-0.1-0.4-0.1
		c-0.4,0-0.8,0.2-0.9,0.5s-0.3,0.7-0.3,1.2v0.2c0,0.5,0.1,0.9,0.3,1.3C288.6,213.3,288.9,213.5,289.3,213.5z"/>
</g>
<g class="st0">
	<path class="st1" d="M292.5,213.6l0.8-0.2v-3.6l-0.8-0.2v-0.9h2.3l0.1,0.8c0.1-0.3,0.3-0.5,0.5-0.7c0.2-0.2,0.5-0.3,0.7-0.3
		c0.1,0,0.2,0,0.3,0c0.1,0,0.2,0,0.2,0l-0.2,1.4l-0.6,0c-0.2,0-0.4,0-0.6,0.1s-0.3,0.2-0.3,0.4v2.8l0.8,0.2v0.9h-3.1V213.6z"/>
</g>
<g class="st0">
	<path class="st1" d="M299.7,214.7c-0.8,0-1.5-0.3-2-0.8c-0.5-0.5-0.8-1.2-0.8-2v-0.2c0-0.9,0.2-1.6,0.7-2.1s1.1-0.8,1.9-0.8
		c0.8,0,1.4,0.2,1.8,0.7c0.4,0.5,0.7,1.1,0.7,1.9v0.9h-3.5l0,0c0,0.4,0.2,0.7,0.4,0.9s0.5,0.4,0.9,0.4c0.3,0,0.6,0,0.9-0.1
		c0.2-0.1,0.5-0.2,0.8-0.3l0.4,1c-0.2,0.2-0.6,0.3-0.9,0.5C300.6,214.6,300.2,214.7,299.7,214.7z M299.6,209.9
		c-0.3,0-0.5,0.1-0.7,0.3c-0.2,0.2-0.3,0.5-0.3,0.9l0,0h1.9V211c0-0.3-0.1-0.6-0.2-0.8C300.1,210,299.9,209.9,299.6,209.9z"/>
	<path class="st1" d="M305.1,207.3v1.4h1v1.1h-1v3c0,0.2,0,0.4,0.1,0.5c0.1,0.1,0.2,0.1,0.4,0.1c0.1,0,0.2,0,0.3,0
		c0.1,0,0.2,0,0.3,0l0.1,1.1c-0.2,0.1-0.3,0.1-0.5,0.1c-0.2,0-0.4,0-0.6,0c-0.5,0-1-0.1-1.2-0.4s-0.4-0.8-0.4-1.4v-3h-0.9v-1.1h0.9
		v-1.4H305.1z"/>
	<path class="st1" d="M311.6,210.8h-1.1l-0.2-0.7c-0.1-0.1-0.2-0.2-0.4-0.2c-0.2-0.1-0.3-0.1-0.5-0.1c-0.3,0-0.5,0.1-0.7,0.2
		c-0.2,0.1-0.2,0.3-0.2,0.5c0,0.2,0.1,0.3,0.2,0.4c0.2,0.1,0.5,0.2,0.9,0.3c0.7,0.1,1.3,0.4,1.6,0.6c0.3,0.3,0.5,0.7,0.5,1.1
		c0,0.5-0.2,1-0.7,1.3s-1,0.5-1.8,0.5c-0.4,0-0.9-0.1-1.2-0.2s-0.7-0.3-1-0.6l0-1.3h1.1l0.2,0.8c0.1,0.1,0.2,0.1,0.4,0.2
		c0.2,0,0.3,0.1,0.5,0.1c0.3,0,0.6-0.1,0.7-0.2c0.2-0.1,0.3-0.3,0.3-0.5c0-0.2-0.1-0.3-0.3-0.4c-0.2-0.1-0.5-0.2-0.9-0.3
		c-0.7-0.1-1.2-0.3-1.5-0.6c-0.3-0.3-0.5-0.6-0.5-1.1c0-0.5,0.2-0.9,0.6-1.3c0.4-0.4,1-0.5,1.7-0.5c0.5,0,0.9,0.1,1.3,0.2
		c0.4,0.1,0.7,0.3,0.9,0.5L311.6,210.8z"/>
</g>
<g class="st0">
	<path class="st1" d="M315.3,216.1l0.9-0.2v-6.4l-0.9-0.2v-0.7h1.8l0.1,0.7c0.2-0.3,0.4-0.5,0.7-0.6c0.3-0.1,0.6-0.2,1-0.2
		c0.7,0,1.3,0.3,1.7,0.9s0.6,1.3,0.6,2.3v0.1c0,0.8-0.2,1.5-0.6,2c-0.4,0.5-1,0.8-1.7,0.8c-0.4,0-0.7-0.1-0.9-0.2
		c-0.3-0.1-0.5-0.3-0.7-0.5v2l0.9,0.2v0.7h-2.8V216.1z M320,211.8c0-0.7-0.1-1.2-0.4-1.6s-0.6-0.6-1.1-0.6c-0.3,0-0.6,0.1-0.8,0.2
		s-0.4,0.3-0.5,0.6v2.8c0.1,0.2,0.3,0.4,0.5,0.6c0.2,0.1,0.5,0.2,0.8,0.2c0.5,0,0.9-0.2,1.1-0.5s0.4-0.8,0.4-1.4V211.8z"/>
</g>
<g class="st0">
	<path class="st1" d="M322.1,209.5v-0.7h1.8l0.1,0.8c0.2-0.3,0.4-0.5,0.6-0.7c0.2-0.2,0.5-0.3,0.8-0.3c0.1,0,0.2,0,0.3,0
		s0.2,0,0.2,0l-0.1,1l-0.6,0c-0.3,0-0.5,0.1-0.7,0.2c-0.2,0.1-0.3,0.3-0.4,0.6v3.3l0.9,0.2v0.7h-2.8v-0.7l0.9-0.2v-4.2L322.1,209.5z
		"/>
</g>
<g class="st0">
	<path class="st1" d="M326.5,211.6c0-0.9,0.2-1.6,0.7-2.1c0.5-0.6,1.1-0.8,1.9-0.8c0.8,0,1.4,0.3,1.9,0.8c0.5,0.6,0.7,1.3,0.7,2.1
		v0.1c0,0.9-0.2,1.6-0.7,2.1c-0.5,0.6-1.1,0.8-1.9,0.8c-0.8,0-1.4-0.3-1.9-0.8c-0.5-0.6-0.7-1.3-0.7-2.1V211.6z M327.6,211.7
		c0,0.6,0.1,1.1,0.4,1.5c0.3,0.4,0.6,0.6,1.2,0.6c0.5,0,0.9-0.2,1.1-0.6c0.3-0.4,0.4-0.9,0.4-1.5v-0.1c0-0.6-0.1-1.1-0.4-1.5
		c-0.3-0.4-0.6-0.6-1.2-0.6c-0.5,0-0.9,0.2-1.1,0.6s-0.4,0.9-0.4,1.5V211.7z"/>
</g>
<g class="st0">
	<path class="st1" d="M334.6,209.5l-0.7,0.1l1.2,3.3l0.1,0.4h0l0.1-0.4l1.2-3.3l-0.7-0.1v-0.7h2.2v0.7l-0.5,0.1l-2,5h-0.8l-2-5
		l-0.5-0.1v-0.7h2.2V209.5z"/>
	<path class="st1" d="M338.7,213.9l0.9-0.2v-4.2l-0.9-0.2v-0.7h1.9v5l0.9,0.2v0.7h-2.8V213.9z M340.7,207.3h-1.1v-1.1h1.1V207.3z"/>
	<path class="st1" d="M346.8,210.6H346l-0.2-0.7c-0.1-0.1-0.3-0.2-0.5-0.3c-0.2-0.1-0.4-0.1-0.7-0.1c-0.4,0-0.7,0.1-0.8,0.2
		c-0.2,0.2-0.3,0.4-0.3,0.6c0,0.2,0.1,0.4,0.2,0.5c0.2,0.1,0.5,0.3,1,0.4c0.7,0.2,1.3,0.4,1.6,0.6c0.4,0.3,0.5,0.6,0.5,1.1
		c0,0.5-0.2,0.9-0.6,1.3c-0.4,0.3-1,0.5-1.6,0.5c-0.4,0-0.8-0.1-1.2-0.2c-0.4-0.1-0.7-0.3-0.9-0.4l0-1.3h0.8l0.2,0.8
		c0.1,0.1,0.3,0.2,0.5,0.2c0.2,0,0.4,0.1,0.6,0.1c0.4,0,0.7-0.1,0.9-0.2c0.2-0.2,0.3-0.4,0.3-0.6c0-0.2-0.1-0.4-0.3-0.6
		c-0.2-0.2-0.5-0.3-1-0.4c-0.7-0.2-1.2-0.4-1.6-0.6c-0.4-0.3-0.5-0.6-0.5-1.1c0-0.5,0.2-0.9,0.6-1.2c0.4-0.3,0.9-0.5,1.6-0.5
		c0.4,0,0.8,0.1,1.2,0.2c0.4,0.1,0.6,0.3,0.9,0.5L346.8,210.6z"/>
	<path class="st1" d="M348,213.9l0.9-0.2v-4.2l-0.9-0.2v-0.7h1.9v5l0.9,0.2v0.7H348V213.9z M349.9,207.3h-1.1v-1.1h1.1V207.3z"/>
	<path class="st1" d="M351.6,211.6c0-0.9,0.2-1.6,0.7-2.1c0.5-0.6,1.1-0.8,1.9-0.8c0.8,0,1.4,0.3,1.9,0.8c0.5,0.6,0.7,1.3,0.7,2.1
		v0.1c0,0.9-0.2,1.6-0.7,2.1c-0.5,0.6-1.1,0.8-1.9,0.8c-0.8,0-1.4-0.3-1.9-0.8c-0.5-0.6-0.7-1.3-0.7-2.1V211.6z M352.6,211.7
		c0,0.6,0.1,1.1,0.4,1.5c0.3,0.4,0.6,0.6,1.2,0.6c0.5,0,0.9-0.2,1.1-0.6c0.3-0.4,0.4-0.9,0.4-1.5v-0.1c0-0.6-0.1-1.1-0.4-1.5
		c-0.3-0.4-0.6-0.6-1.2-0.6c-0.5,0-0.9,0.2-1.1,0.6s-0.4,0.9-0.4,1.5V211.7z"/>
	<path class="st1" d="M357.6,213.9l0.9-0.2v-4.2l-0.9-0.2v-0.7h1.8l0.1,0.9c0.2-0.3,0.4-0.5,0.7-0.7c0.3-0.2,0.6-0.3,1-0.3
		c0.6,0,1.1,0.2,1.5,0.6s0.5,0.9,0.5,1.7v2.8l0.9,0.2v0.7h-2.8v-0.7l0.9-0.2v-2.8c0-0.5-0.1-0.9-0.3-1.1s-0.5-0.3-0.9-0.3
		c-0.3,0-0.6,0.1-0.8,0.2c-0.2,0.1-0.4,0.3-0.6,0.6v3.4l0.9,0.2v0.7h-2.8V213.9z"/>
	<path class="st1" d="M364.8,213.9l0.9-0.2v-4.2l-0.9-0.2v-0.7h1.9v5l0.9,0.2v0.7h-2.8V213.9z M366.8,207.3h-1.1v-1.1h1.1V207.3z"/>
</g>
<g class="st0">
	<path class="st1" d="M368.3,213.9l0.9-0.2v-4.2l-0.9-0.2v-0.7h1.8l0.1,0.9c0.2-0.3,0.4-0.5,0.7-0.7c0.3-0.2,0.6-0.3,1-0.3
		c0.6,0,1.1,0.2,1.5,0.6s0.5,0.9,0.5,1.7v2.8l0.9,0.2v0.7h-2.8v-0.7l0.9-0.2v-2.8c0-0.5-0.1-0.9-0.3-1.1c-0.2-0.2-0.5-0.3-0.9-0.3
		c-0.3,0-0.6,0.1-0.8,0.2c-0.2,0.1-0.4,0.3-0.6,0.6v3.4l0.9,0.2v0.7h-2.8V213.9z"/>
</g>
<g class="st0">
	<path class="st1" d="M375.5,211.8c0-0.9,0.2-1.7,0.6-2.3s1-0.9,1.7-0.9c0.4,0,0.7,0.1,1,0.2c0.3,0.1,0.5,0.4,0.7,0.6l0.1-0.7h0.9
		v5.7c0,0.8-0.2,1.3-0.6,1.8s-1,0.6-1.8,0.6c-0.3,0-0.6,0-0.9-0.1c-0.3-0.1-0.6-0.2-0.9-0.3l0.3-0.8c0.2,0.1,0.4,0.2,0.7,0.3
		s0.5,0.1,0.8,0.1c0.5,0,0.8-0.1,1-0.4c0.2-0.3,0.3-0.6,0.3-1.1V214c-0.2,0.2-0.4,0.4-0.7,0.6c-0.3,0.1-0.6,0.2-0.9,0.2
		c-0.7,0-1.3-0.3-1.7-0.8s-0.6-1.2-0.6-2V211.8z M376.5,211.9c0,0.6,0.1,1.1,0.4,1.4s0.6,0.5,1.1,0.5c0.3,0,0.6-0.1,0.8-0.2
		c0.2-0.1,0.4-0.4,0.5-0.6v-2.7c-0.1-0.2-0.3-0.4-0.5-0.6c-0.2-0.1-0.5-0.2-0.8-0.2c-0.5,0-0.9,0.2-1.1,0.6c-0.3,0.4-0.4,1-0.4,1.6
		V211.9z"/>
	<path class="st1" d="M384.2,211.5c0,1.4-0.3,2.6-0.9,3.6c-0.6,1-1.2,1.7-1.8,2h0l-0.2-0.6c0.5-0.4,0.9-1,1.3-1.9s0.5-1.9,0.5-3.2
		v-0.1c0-1.2-0.2-2.3-0.6-3.1c-0.4-0.9-0.8-1.5-1.3-1.9l0.2-0.6h0c0.6,0.3,1.2,1,1.8,2C383.9,208.8,384.2,210,384.2,211.5
		L384.2,211.5z"/>
</g>
<linearGradient id="SVGID_1_" gradientUnits="userSpaceOnUse" x1="250.93" y1="317.32" x2="349.93" y2="317.32" gradientTransform="matrix(1 0 0 -1 0 466)">
	<stop  offset="0" style="stop-color:#981869"/>
	<stop  offset="0.19" style="stop-color:#771C65"/>
	<stop  offset="0.4" style="stop-color:#591F62"/>
	<stop  offset="0.61" style="stop-color:#432260"/>
	<stop  offset="0.81" style="stop-color:#36235E"/>
	<stop  offset="1" style="stop-color:#32245E"/>
</linearGradient>
<path class="st2" d="M255.9,116.4h89c2.8,0,5,2.2,5,5V176c0,2.8-2.2,5-5,5h-89c-2.8,0-5-2.2-5-5v-54.6
	C250.9,118.6,253.2,116.4,255.9,116.4z"/>
<g class="st0">
	<path class="st3" d="M283.3,137.5H282l-0.2-1.2c-0.1-0.1-0.4-0.2-0.7-0.2s-0.6-0.1-0.9-0.1c-0.5,0-0.8,0.1-1.1,0.3
		s-0.4,0.5-0.4,0.8c0,0.3,0.1,0.5,0.4,0.7s0.7,0.4,1.4,0.6c0.9,0.3,1.7,0.6,2.1,1s0.7,1,0.7,1.7c0,0.7-0.3,1.3-0.9,1.7
		s-1.3,0.6-2.3,0.6c-0.7,0-1.3-0.1-1.8-0.3s-1-0.5-1.4-0.9v-1.8h1.3l0.2,1.2c0.2,0.1,0.4,0.3,0.7,0.3s0.6,0.1,1,0.1
		c0.5,0,0.8-0.1,1.1-0.3s0.4-0.4,0.4-0.8c0-0.3-0.1-0.6-0.3-0.8s-0.6-0.4-1.2-0.6c-1-0.3-1.8-0.6-2.3-1s-0.8-1-0.8-1.7
		c0-0.7,0.3-1.3,0.9-1.7s1.3-0.7,2.2-0.7c0.7,0,1.3,0.1,1.8,0.3s1,0.5,1.4,0.8V137.5z"/>
	<path class="st3" d="M287.1,143.5c-0.9,0-1.6-0.3-2.2-0.9s-0.8-1.3-0.8-2.2v-0.2c0-0.9,0.3-1.7,0.8-2.3s1.2-0.9,2.1-0.9
		c0.9,0,1.5,0.3,2,0.8s0.7,1.2,0.7,2.1v0.9h-3.8l0,0c0,0.4,0.2,0.8,0.4,1s0.6,0.4,1,0.4c0.4,0,0.7,0,0.9-0.1s0.5-0.2,0.8-0.4
		l0.5,1.1c-0.3,0.2-0.6,0.4-1,0.5S287.6,143.5,287.1,143.5z M287,138.2c-0.3,0-0.6,0.1-0.8,0.4s-0.3,0.6-0.3,1l0,0h2.1v-0.2
		c0-0.4-0.1-0.7-0.3-0.9S287.3,138.2,287,138.2z"/>
	<path class="st3" d="M293.5,142.2c0.3,0,0.5-0.1,0.7-0.3s0.3-0.4,0.3-0.7h1.5l0,0c0,0.6-0.2,1.2-0.7,1.6s-1.1,0.6-1.9,0.6
		c-0.9,0-1.7-0.3-2.2-0.9s-0.8-1.4-0.8-2.3v-0.2c0-0.9,0.3-1.7,0.8-2.3s1.3-0.9,2.2-0.9c0.5,0,1,0.1,1.4,0.2s0.7,0.4,1,0.6l0,1.7
		h-1.4l-0.3-1c-0.1-0.1-0.2-0.1-0.3-0.2s-0.3-0.1-0.4-0.1c-0.5,0-0.8,0.2-1,0.5s-0.3,0.8-0.3,1.4v0.2c0,0.6,0.1,1,0.3,1.4
		S293,142.2,293.5,142.2z"/>
	<path class="st3" d="M301.2,142.5c-0.2,0.3-0.5,0.5-0.8,0.7s-0.6,0.2-1,0.2c-0.7,0-1.2-0.2-1.6-0.6s-0.6-1.1-0.6-2v-2.6l-0.7-0.2
		v-1h0.7h1.7v3.8c0,0.5,0.1,0.8,0.2,1s0.4,0.3,0.7,0.3c0.3,0,0.5,0,0.7-0.1s0.4-0.2,0.5-0.4v-3.4l-0.8-0.2v-1h0.8h1.7v5.1l0.8,0.2v1
		h-2.3L301.2,142.5z"/>
	<path class="st3" d="M304.4,142.3l0.8-0.2v-3.9l-0.9-0.2v-1h2.5l0.1,0.9c0.1-0.3,0.3-0.6,0.6-0.8s0.5-0.3,0.8-0.3
		c0.1,0,0.2,0,0.3,0s0.2,0,0.2,0l-0.2,1.6l-0.7,0c-0.3,0-0.5,0-0.6,0.1s-0.3,0.2-0.4,0.4v3.1l0.8,0.2v1h-3.4V142.3z"/>
	<path class="st3" d="M309.3,142.3l0.8-0.2v-3.9l-0.9-0.2v-1h2.6v5.1l0.8,0.2v1h-3.4V142.3z M311.8,135.5h-1.7v-1.3h1.7V135.5z"/>
	<path class="st3" d="M315.7,135.4v1.6h1.1v1.2h-1.1v3.2c0,0.2,0.1,0.4,0.2,0.5s0.2,0.2,0.4,0.2c0.1,0,0.2,0,0.3,0s0.2,0,0.3,0
		l0.1,1.2c-0.2,0.1-0.4,0.1-0.6,0.1s-0.4,0-0.6,0c-0.6,0-1-0.2-1.4-0.5s-0.5-0.8-0.5-1.5v-3.2h-0.9V137h0.9v-1.6H315.7z"/>
	<path class="st3" d="M324.3,138l-0.6,0.1l-2.3,6.2c-0.2,0.5-0.4,0.8-0.7,1.1s-0.8,0.5-1.4,0.5c-0.1,0-0.3,0-0.4,0s-0.3-0.1-0.4-0.1
		l0.2-1.2c0.1,0,0.1,0,0.2,0s0.1,0,0.2,0c0.3,0,0.5-0.1,0.7-0.2s0.3-0.3,0.4-0.5l0.2-0.5l-2-5.2l-0.6-0.1v-1h3.1v1l-0.7,0.1l0.9,2.5
		l0.1,0.5l0,0l1-3l-0.7-0.1v-1h3.1V138z"/>
</g>
<g class="st0">
	<path class="st3" d="M287.1,149.2c1,0,1.7,0.3,2.3,0.8s0.8,1.2,0.8,2c0,0.8-0.3,1.5-0.8,2s-1.3,0.7-2.3,0.7h-1.4v1.9l0.9,0.2v1
		h-3.5v-1l0.9-0.2v-6.1l-0.9-0.2v-1h0.9H287.1z M285.7,153.3h1.4c0.5,0,0.8-0.1,1.1-0.4s0.4-0.6,0.4-1c0-0.4-0.1-0.7-0.4-1
		s-0.6-0.4-1.1-0.4h-1.4V153.3z"/>
</g>
<g class="st0">
	<path class="st3" d="M290.8,154.5c0-0.9,0.3-1.7,0.8-2.3s1.3-0.9,2.2-0.9c0.9,0,1.7,0.3,2.2,0.9s0.8,1.4,0.8,2.3v0.1
		c0,1-0.3,1.7-0.8,2.3s-1.3,0.9-2.2,0.9c-0.9,0-1.7-0.3-2.2-0.9s-0.8-1.4-0.8-2.3V154.5z M292.5,154.6c0,0.6,0.1,1,0.3,1.4
		s0.5,0.5,1,0.5c0.4,0,0.8-0.2,1-0.5s0.3-0.8,0.3-1.4v-0.1c0-0.6-0.1-1-0.3-1.4s-0.5-0.5-1-0.5s-0.8,0.2-1,0.5s-0.3,0.8-0.3,1.4
		V154.6z"/>
</g>
<g class="st0">
	<path class="st3" d="M297.2,149.6v-1h2.6v7.9l0.8,0.2v1h-3.4v-1l0.8-0.2v-6.7L297.2,149.6z"/>
	<path class="st3" d="M301.2,156.7l0.8-0.2v-3.9l-0.9-0.2v-1h2.6v5.1l0.8,0.2v1h-3.4V156.7z M303.7,149.9H302v-1.3h1.7V149.9z"/>
	<path class="st3" d="M308.1,156.6c0.3,0,0.5-0.1,0.7-0.3s0.3-0.4,0.3-0.7h1.5l0,0c0,0.6-0.2,1.2-0.7,1.6s-1.1,0.6-1.9,0.6
		c-0.9,0-1.7-0.3-2.2-0.9s-0.8-1.4-0.8-2.3v-0.2c0-0.9,0.3-1.7,0.8-2.3s1.3-0.9,2.2-0.9c0.5,0,1,0.1,1.4,0.2s0.7,0.4,1,0.6l0,1.7
		h-1.4l-0.3-1c-0.1-0.1-0.2-0.1-0.3-0.2s-0.3-0.1-0.4-0.1c-0.5,0-0.8,0.2-1,0.5s-0.3,0.8-0.3,1.4v0.2c0,0.6,0.1,1,0.3,1.4
		S307.6,156.6,308.1,156.6z"/>
	<path class="st3" d="M318,152.4l-0.6,0.1l-2.3,6.2c-0.2,0.5-0.4,0.8-0.7,1.1s-0.8,0.5-1.4,0.5c-0.1,0-0.3,0-0.4,0s-0.3-0.1-0.4-0.1
		l0.2-1.2c0.1,0,0.1,0,0.2,0s0.1,0,0.2,0c0.3,0,0.5-0.1,0.7-0.2s0.3-0.3,0.4-0.5l0.2-0.5l-2-5.2l-0.6-0.1v-1h3.1v1l-0.7,0.1l0.9,2.5
		l0.1,0.5l0,0l1-3l-0.7-0.1v-1h3.1V152.4z"/>
</g>
<g id="Scone_logo_white">
	<g>
		<defs>
			<rect id="SVGID_2_" x="281.9" y="167.3" width="36.3" height="7.1"/>
		</defs>
		<clipPath id="SVGID_3_">
			<use xlink:href="#SVGID_2_"  style="overflow:visible;"/>
		</clipPath>
		<g class="st4">
			<g>
				<defs>
					<rect id="SVGID_4_" x="281.9" y="167.3" width="36.3" height="7.1"/>
				</defs>
				<clipPath id="SVGID_5_">
					<use xlink:href="#SVGID_4_"  style="overflow:visible;"/>
				</clipPath>
				<g class="st5">
					<path class="st6" d="M286.7,169.1h-0.8c-0.2,0-0.3,0.1-0.3,0.3l0,0v0.8c0,0.2,0.1,0.3,0.3,0.3l0,0h0.8c0.2,0,0.3-0.1,0.3-0.3
						c0,0,0,0,0,0v-0.8C287,169.3,286.9,169.1,286.7,169.1C286.7,169.1,286.7,169.1,286.7,169.1 M284.1,170.5h0.8
						c0.2,0,0.3-0.1,0.3-0.3l0,0v-0.8c0-0.2-0.1-0.3-0.3-0.3l0,0h-0.8c-0.2,0-0.3,0.1-0.3,0.3v0.8
						C283.8,170.4,283.9,170.5,284.1,170.5 M283.2,170.2v-0.8c0-0.2-0.1-0.3-0.3-0.3h-0.8c-0.2,0-0.3,0.1-0.3,0.3l0,0v0.8
						c0,0.2,0.1,0.3,0.3,0.3l0,0h0.8C283.1,170.5,283.2,170.4,283.2,170.2 M286.8,171c-0.1,0-0.2,0.1-0.2,0.2v0.9
						c0,0.1,0.1,0.2,0.2,0.2c0.1,0,0.2-0.1,0.2-0.2l0,0v-0.9C287,171.2,286.9,171.1,286.8,171C286.8,171,286.8,171,286.8,171
						 M284.7,171.3v0.8c0,0.2,0.1,0.3,0.3,0.3l0,0h0.8c0.2,0,0.3-0.1,0.3-0.3c0,0,0,0,0,0v-0.8c0-0.2-0.1-0.3-0.3-0.3c0,0,0,0,0,0
						H285C284.8,171,284.7,171.2,284.7,171.3L284.7,171.3 M284.2,172.1v-0.8c0-0.2-0.1-0.3-0.3-0.3l0,0h-0.8c-0.2,0-0.3,0.1-0.3,0.3
						c0,0,0,0,0,0v0.8c0,0.2,0.1,0.3,0.3,0.3c0,0,0,0,0,0h0.8C284,172.4,284.2,172.3,284.2,172.1L284.2,172.1 M286.7,172.9H286
						c-0.2,0-0.3,0.1-0.3,0.3v0.8c0,0.2,0.1,0.3,0.3,0.3h0.8c0.2,0,0.3-0.1,0.3-0.3v-0.8C287,173.1,286.9,172.9,286.7,172.9
						 M284.7,172.9H284c-0.2,0-0.3,0.1-0.3,0.3v0.8c0,0.2,0.1,0.3,0.3,0.3h0.8c0.2,0,0.3-0.1,0.3-0.3v-0.8
						C285.1,173.1,284.9,172.9,284.7,172.9"/>
					<path class="st6" d="M287.6,168.8c0.3,0.3,0.8,0.4,1.2,0.4c0,0,0,0,0,0.1v2.1c0,0.8-1,1.3-1.2,1.4l0,0L287.6,168.8L287.6,168.8
						"/>
					<path class="st6" d="M285.3,168.7c1.6-0.1,1.9-0.6,1.9-0.6c0,0,0,0,0.1-0.1c0,0,0,0,0.1,0c0,0,0.3,0.6,1.9,0.6
						c0,0,0.1,0,0.1,0.1v2.8c0,0.9-1.7,1.9-1.7,1.9l-0.1,0.1v0.7c0,0,0.1,0,0.1,0c0.6-0.3,2.3-1.3,2.3-2.5v-3.5
						c0-0.1-0.1-0.1-0.2-0.1c-2,0-2.4-0.8-2.4-0.8s-0.1,0-0.1,0s-0.1,0-0.1,0s-0.3,0.8-2.4,0.8c-0.1,0-0.1,0-0.1,0.1v0.4
						c0,0,0,0.1,0.1,0.1S285.3,168.7,285.3,168.7"/>
					<path class="st7" d="M291.5,173.2l0.8-0.3c0.4,0.6,1.1,0.8,1.7,0.5c0.2-0.1,0.3-0.3,0.3-0.4c0-0.4-0.6-0.7-1-0.9l0,0
						c-0.4-0.1-0.7-0.3-1-0.5c-0.3-0.2-0.5-0.6-0.5-1c0-0.4,0.2-0.8,0.5-1c0.3-0.3,0.8-0.4,1.2-0.4c0.7,0,1.3,0.3,1.6,0.9l-0.9,0.3
						c-0.1-0.1-0.2-0.3-0.3-0.3c-0.1-0.1-0.3-0.1-0.5-0.1c-0.5,0-0.8,0.3-0.8,0.6c0,0.2,0.1,0.4,0.3,0.5c0.2,0.2,0.5,0.3,0.7,0.4
						l0.1,0.1c0.6,0.3,1.4,0.6,1.4,1.4c0,0.4-0.2,0.8-0.6,1c-0.4,0.3-0.9,0.4-1.3,0.4C292.6,174.3,291.9,173.9,291.5,173.2"/>
					<path class="st7" d="M298.8,174.3c-0.3,0-0.7-0.1-1-0.2c-0.3-0.1-0.6-0.3-0.8-0.6c-0.2-0.2-0.4-0.5-0.6-0.8
						c-0.3-0.6-0.3-1.4,0-2c0.1-0.3,0.3-0.6,0.6-0.8c0.2-0.2,0.5-0.4,0.8-0.6c0.3-0.1,0.7-0.2,1-0.2c0.4,0,0.8,0.1,1.2,0.3
						c0.3,0.2,0.7,0.4,0.9,0.7l-0.7,0.5c-0.2-0.2-0.4-0.4-0.6-0.5c-0.2-0.1-0.5-0.2-0.8-0.2c-1,0-1.7,0.8-1.7,1.7
						c0,0.5,0.2,0.9,0.5,1.2c0.7,0.7,1.8,0.7,2.5,0c0.1-0.1,0.2-0.2,0.3-0.4l0.8,0.4c-0.2,0.4-0.5,0.7-0.9,0.9
						C299.7,174.2,299.2,174.3,298.8,174.3"/>
					<path class="st7" d="M304.4,174.3c-0.3,0-0.7-0.1-1-0.2c-0.3-0.1-0.6-0.3-0.8-0.6c-0.2-0.2-0.4-0.5-0.5-0.8
						c-0.1-0.3-0.2-0.7-0.2-1c0-0.3,0.1-0.7,0.2-1c0.1-0.3,0.3-0.6,0.5-0.8c0.2-0.2,0.5-0.4,0.8-0.6c0.6-0.3,1.4-0.3,2,0
						c0.3,0.1,0.6,0.3,0.8,0.6c0.2,0.2,0.4,0.5,0.6,0.8c0.1,0.3,0.2,0.7,0.2,1c0,0.3-0.1,0.7-0.2,1c-0.1,0.3-0.3,0.6-0.6,0.8
						c-0.2,0.2-0.5,0.4-0.8,0.6C305.1,174.3,304.8,174.3,304.4,174.3 M304.4,170c-0.5,0-0.9,0.2-1.2,0.5c-0.3,0.3-0.5,0.8-0.5,1.2
						c0,1,0.8,1.7,1.7,1.7c0.5,0,0.9-0.2,1.2-0.5c0.3-0.3,0.5-0.8,0.5-1.2c0-0.5-0.2-0.9-0.5-1.2C305.3,170.2,304.9,170,304.4,170"
						/>
					<polygon class="st7" points="312.9,169.2 312.9,174.4 309.3,171.1 309.3,174.3 308.4,174.3 308.4,169 312,172.3 312,169.2 
											"/>
					<polygon class="st7" points="315.4,170 315.4,171.3 317.9,171.3 317.9,172.1 315.4,172.1 315.4,173.5 318.2,173.5 318.2,174.3 
						314.5,174.3 314.5,169.2 318.2,169.2 318.2,170 315.4,170 					"/>
				</g>
			</g>
		</g>
	</g>
</g>
<path class="st8" d="M293.1,106.6c4.6-4.5,12.1-4.5,16.6,0.1c4.5,4.6,4.5,12.1-0.1,16.6c-4.6,4.5-12.1,4.5-16.6-0.1
	c-2.2-2.2-3.4-5.1-3.4-8.2c0-2.6,0.8-5.1,2.4-7.1"/>
<path class="st9" d="M301,120.6h-4.3c-0.6,0-0.8-0.2-0.8-0.8v-6.5c0-0.6,0.2-0.8,0.8-0.8h8.5c0.5,0,0.8,0.2,0.8,0.8v6.5
	c0,0.6-0.2,0.8-0.8,0.8C303.8,120.6,302.4,120.6,301,120.6z"/>
<path class="st9" d="M296.7,112c0-1.8,1-3.4,2.6-4.1c2.1-0.9,4.6,0,5.5,2.1c0.1,0.2,0.2,0.5,0.2,0.7c0.1,0.4,0.1,0.8,0.2,1.2"/>
<path class="st10" d="M300.3,117.8L300.3,117.8v0.9c0,0.2,0.1,0.2,0.3,0.2h0.8c0.2,0,0.3-0.1,0.3-0.3v-1.6c0-0.2,0.1-0.3,0.2-0.4
	c0.5-0.3,0.8-0.9,0.6-1.4c-0.2-0.6-0.8-1-1.4-1c-0.7-0.1-1.3,0.3-1.6,0.9c-0.2,0.6,0,1.2,0.5,1.5c0.2,0.1,0.3,0.3,0.3,0.5
	C300.3,117.3,300.3,117.6,300.3,117.8z"/>
<g class="st11">
	<path class="st1" d="M118.4,45.8l-0.6,0.1l1.4,4.9l0.1,0.4h0l0.1-0.4l1.4-4.9l-0.6-0.1v-1h2.9v1l-0.7,0.1l-2.3,7h-1.6l-2.3-7
		l-0.6-0.1v-1h2.9V45.8z"/>
	<path class="st1" d="M131.2,47L131.2,47l-2.1,6H128l-2.1-6l0,0l0.2,3.6v1.3l0.8,0.2v1h-3.3v-1l0.8-0.2V46l-0.8-0.2v-1h0.8h2.1l2,6
		h0l2-6h2.9v1l-0.8,0.2v5.8l0.8,0.2v1h-3.3v-1l0.8-0.2v-1.3L131.2,47z"/>
</g>
<g class="st12">
	<path class="st13" d="M39.4,33h170c2.8,0,5,2.2,5,5v262c0,2.8-2.2,5-5,5h-170c-2.8,0-5-2.2-5-5V38C34.4,35.2,36.6,33,39.4,33z"/>
</g>
<path class="st14" d="M52.8,67.1h144c2.8,0,5,2.2,5,5v17.2c0,2.8-2.2,5-5,5h-144c-2.8,0-5-2.2-5-5V72.1C47.8,69.3,50,67.1,52.8,67.1
	z"/>
<g class="st0">
	<path class="st1" d="M97.1,84.3l0.8-0.2v-3.6l-0.8-0.2v-0.9h2.3l0.1,0.8c0.2-0.3,0.4-0.5,0.7-0.7s0.6-0.2,1-0.2
		c0.6,0,1,0.2,1.4,0.6c0.3,0.4,0.5,0.9,0.5,1.7v2.5l0.8,0.2v0.9h-3v-0.9l0.7-0.2v-2.5c0-0.4-0.1-0.7-0.2-0.8s-0.4-0.2-0.7-0.2
		c-0.2,0-0.4,0-0.6,0.1s-0.3,0.2-0.4,0.4v3.1l0.6,0.2v0.9h-3V84.3z"/>
</g>
<g class="st0">
	<path class="st1" d="M107.9,85.2c0-0.1-0.1-0.2-0.1-0.3c0-0.1-0.1-0.2-0.1-0.3c-0.2,0.2-0.4,0.4-0.7,0.5c-0.3,0.1-0.6,0.2-0.9,0.2
		c-0.6,0-1-0.2-1.4-0.5c-0.3-0.3-0.5-0.7-0.5-1.3c0-0.5,0.2-1,0.7-1.3s1.1-0.4,1.9-0.4h0.8v-0.6c0-0.3-0.1-0.5-0.2-0.6
		s-0.4-0.2-0.7-0.2c-0.2,0-0.3,0-0.5,0.1s-0.3,0.1-0.3,0.1l-0.1,0.6h-1.2l0-1.3c0.3-0.2,0.6-0.4,1-0.5c0.4-0.1,0.8-0.2,1.2-0.2
		c0.7,0,1.3,0.2,1.8,0.5c0.4,0.4,0.7,0.9,0.7,1.5v2.4c0,0.1,0,0.2,0,0.3c0,0.1,0,0.2,0,0.2l0.5,0.1v0.9H107.9z M106.6,84.2
		c0.2,0,0.5-0.1,0.6-0.2c0.2-0.1,0.3-0.2,0.5-0.4v-0.9h-0.8c-0.3,0-0.6,0.1-0.8,0.2c-0.2,0.2-0.3,0.3-0.3,0.6c0,0.2,0.1,0.4,0.2,0.5
		C106.1,84.1,106.3,84.2,106.6,84.2z"/>
</g>
<g class="st0">
	<path class="st1" d="M112.1,78v1.4h1v1.1h-1v3c0,0.2,0,0.4,0.1,0.5c0.1,0.1,0.2,0.1,0.4,0.1c0.1,0,0.2,0,0.3,0c0.1,0,0.2,0,0.3,0
		l0.1,1.1c-0.2,0.1-0.3,0.1-0.5,0.1c-0.2,0-0.4,0-0.6,0c-0.5,0-1-0.1-1.2-0.4c-0.3-0.3-0.4-0.8-0.4-1.4v-3h-0.9v-1.1h0.9V78H112.1z"
		/>
	<path class="st1" d="M113.9,84.3l0.8-0.2v-3.6l-0.8-0.2v-0.9h2.4v4.7l0.8,0.2v0.9h-3.1V84.3z M116.2,78h-1.6v-1.2h1.6V78z"/>
</g>
<g class="st0">
	<path class="st1" d="M119.9,80.4l-0.5,0.1l0.8,2.6l0.1,0.5h0l0.1-0.5l0.8-2.6l-0.6-0.1v-0.9h2.6v0.9l-0.5,0.1l-1.7,4.8h-1.5
		l-1.7-4.8l-0.5-0.1v-0.9h2.6V80.4z"/>
</g>
<g class="st0">
	<path class="st1" d="M126.5,85.4c-0.8,0-1.5-0.3-2-0.8s-0.8-1.2-0.8-2v-0.2c0-0.9,0.2-1.6,0.7-2.1c0.5-0.6,1.1-0.8,1.9-0.8
		c0.8,0,1.4,0.2,1.8,0.7s0.6,1.1,0.6,1.9v0.9h-3.5l0,0c0,0.4,0.2,0.7,0.4,0.9c0.2,0.2,0.5,0.4,0.9,0.4c0.3,0,0.6,0,0.9-0.1
		c0.2-0.1,0.5-0.2,0.8-0.3l0.4,1c-0.2,0.2-0.6,0.3-0.9,0.5C127.3,85.3,126.9,85.4,126.5,85.4z M126.3,80.5c-0.3,0-0.5,0.1-0.7,0.3
		c-0.2,0.2-0.3,0.5-0.3,0.9l0,0h1.9v-0.1c0-0.3-0.1-0.6-0.2-0.8C126.9,80.6,126.6,80.5,126.3,80.5z"/>
	<path class="st1" d="M132.1,84.3l0.6-0.1l2.4-6.8h1.6l2.4,6.8l0.6,0.1v0.9h-2.7v-0.9l0.5-0.1l-0.3-1.1h-2.5l-0.3,1.1l0.5,0.1v0.9
		h-2.7V84.3z M134.9,82h1.8l-0.9-2.8h0L134.9,82z"/>
	<path class="st1" d="M140,80.4v-0.9h2.3l0.1,0.7c0.2-0.3,0.4-0.4,0.6-0.6s0.5-0.2,0.8-0.2c0.7,0,1.3,0.3,1.7,0.8
		c0.4,0.6,0.6,1.3,0.6,2.2v0.1c0,0.9-0.2,1.5-0.6,2.1c-0.4,0.5-1,0.8-1.7,0.8c-0.3,0-0.6-0.1-0.8-0.2c-0.2-0.1-0.4-0.3-0.6-0.5v1.7
		l0.8,0.2v0.9h-3.1v-0.9l0.8-0.2v-5.8L140,80.4z M144.5,82.4c0-0.5-0.1-1-0.3-1.3s-0.5-0.5-0.8-0.5c-0.2,0-0.4,0-0.6,0.1
		c-0.2,0.1-0.3,0.2-0.4,0.4v2.5c0.1,0.2,0.2,0.3,0.4,0.4c0.2,0.1,0.4,0.1,0.6,0.1c0.4,0,0.7-0.1,0.8-0.4c0.2-0.3,0.3-0.7,0.3-1.2
		V82.4z"/>
	<path class="st1" d="M146.7,80.4v-0.9h2.3l0.1,0.7c0.2-0.3,0.4-0.4,0.6-0.6s0.5-0.2,0.8-0.2c0.7,0,1.3,0.3,1.7,0.8
		c0.4,0.6,0.6,1.3,0.6,2.2v0.1c0,0.9-0.2,1.5-0.6,2.1c-0.4,0.5-1,0.8-1.7,0.8c-0.3,0-0.6-0.1-0.8-0.2c-0.2-0.1-0.4-0.3-0.6-0.5v1.7
		l0.8,0.2v0.9h-3.1v-0.9l0.8-0.2v-5.8L146.7,80.4z M151.2,82.4c0-0.5-0.1-1-0.3-1.3s-0.5-0.5-0.8-0.5c-0.2,0-0.4,0-0.6,0.1
		c-0.2,0.1-0.3,0.2-0.4,0.4v2.5c0.1,0.2,0.2,0.3,0.4,0.4c0.2,0.1,0.4,0.1,0.6,0.1c0.4,0,0.7-0.1,0.8-0.4c0.2-0.3,0.3-0.7,0.3-1.2
		V82.4z"/>
</g>
<path class="st14" d="M52.8,261.1h144c2.8,0,5,2.2,5,5v17.2c0,2.8-2.2,5-5,5h-144c-2.8,0-5-2.2-5-5v-17.2
	C47.8,263.3,50,261.1,52.8,261.1z"/>
<g class="st0">
	<path class="st1" d="M62.3,278.4c-0.3,0.3-0.6,0.5-1.1,0.7s-1.1,0.3-1.8,0.3c-1.1,0-1.9-0.4-2.6-1.1s-1-1.6-1-2.8v-0.3
		c0-1.2,0.3-2.1,1-2.9c0.7-0.7,1.5-1.1,2.6-1.1c0.6,0,1.2,0.1,1.7,0.3c0.5,0.2,0.9,0.5,1.3,0.8v1.6h-1.2l-0.2-1
		c-0.1-0.1-0.3-0.2-0.6-0.3c-0.2-0.1-0.5-0.1-0.8-0.1c-0.7,0-1.2,0.3-1.6,0.8c-0.4,0.5-0.6,1.2-0.6,2v0.3c0,0.8,0.2,1.4,0.6,1.9
		s0.9,0.7,1.6,0.7c0.3,0,0.6,0,0.8-0.1c0.2-0.1,0.3-0.1,0.5-0.2v-1.3l-1.1-0.1v-1.1h2.7V278.4z"/>
	<path class="st1" d="M67.2,278.5c-0.2,0.3-0.4,0.5-0.7,0.6c-0.3,0.1-0.6,0.2-0.9,0.2c-0.6,0-1.1-0.2-1.4-0.6
		c-0.3-0.4-0.5-1-0.5-1.8v-2.4l-0.6-0.2v-0.9h0.6h1.6v3.5c0,0.4,0.1,0.7,0.2,0.9c0.1,0.2,0.4,0.3,0.6,0.3c0.2,0,0.5,0,0.6-0.1
		c0.2-0.1,0.3-0.2,0.4-0.3v-3.1l-0.7-0.2v-0.9h0.7h1.6v4.7l0.7,0.2v0.9h-2.1L67.2,278.5z"/>
	<path class="st1" d="M72.7,279.4c-0.8,0-1.5-0.3-2-0.8s-0.8-1.2-0.8-2v-0.2c0-0.9,0.2-1.6,0.7-2.1c0.5-0.6,1.1-0.8,1.9-0.8
		c0.8,0,1.4,0.2,1.8,0.7s0.6,1.1,0.6,1.9v0.9h-3.5l0,0c0,0.4,0.2,0.7,0.4,0.9c0.2,0.2,0.5,0.4,0.9,0.4c0.3,0,0.6,0,0.9-0.1
		c0.2-0.1,0.5-0.2,0.8-0.3l0.4,1c-0.2,0.2-0.6,0.3-0.9,0.5C73.6,279.3,73.2,279.4,72.7,279.4z M72.6,274.5c-0.3,0-0.5,0.1-0.7,0.3
		c-0.2,0.2-0.3,0.5-0.3,0.9l0,0h1.9v-0.1c0-0.3-0.1-0.6-0.2-0.8C73.1,274.6,72.9,274.5,72.6,274.5z"/>
	<path class="st1" d="M80.6,275.4h-1.1l-0.2-0.7c-0.1-0.1-0.2-0.2-0.4-0.2c-0.2-0.1-0.3-0.1-0.5-0.1c-0.3,0-0.5,0.1-0.7,0.2
		c-0.2,0.1-0.2,0.3-0.2,0.5c0,0.2,0.1,0.3,0.2,0.4s0.5,0.2,0.9,0.3c0.7,0.1,1.3,0.4,1.6,0.6s0.5,0.7,0.5,1.1c0,0.5-0.2,1-0.7,1.3
		c-0.4,0.3-1,0.5-1.8,0.5c-0.4,0-0.9-0.1-1.2-0.2c-0.4-0.1-0.7-0.3-1-0.6l0-1.3h1.1l0.2,0.8c0.1,0.1,0.2,0.1,0.4,0.2
		c0.2,0,0.3,0.1,0.5,0.1c0.3,0,0.6-0.1,0.7-0.2c0.2-0.1,0.2-0.3,0.2-0.5c0-0.2-0.1-0.3-0.3-0.4c-0.2-0.1-0.5-0.2-0.9-0.3
		c-0.7-0.1-1.2-0.3-1.5-0.6c-0.3-0.3-0.5-0.6-0.5-1.1c0-0.5,0.2-0.9,0.6-1.3s1-0.5,1.7-0.5c0.5,0,0.9,0.1,1.3,0.2
		c0.4,0.1,0.7,0.3,0.9,0.5L80.6,275.4z"/>
	<path class="st1" d="M83.8,272v1.4h1v1.1h-1v3c0,0.2,0,0.4,0.1,0.5s0.2,0.1,0.4,0.1c0.1,0,0.2,0,0.3,0c0.1,0,0.2,0,0.3,0l0.1,1.1
		c-0.2,0.1-0.3,0.1-0.5,0.1c-0.2,0-0.4,0-0.6,0c-0.5,0-1-0.1-1.2-0.4c-0.3-0.3-0.4-0.8-0.4-1.4v-3h-0.9v-1.1h0.9V272H83.8z"/>
	<path class="st1" d="M92.7,275.4c0,1.1-0.3,2.1-1,2.8s-1.5,1.1-2.6,1.1c-1.1,0-1.9-0.4-2.6-1.1c-0.7-0.7-1-1.7-1-2.8v-0.1
		c0-1.1,0.3-2.1,1-2.8s1.5-1.1,2.6-1.1c1.1,0,1.9,0.4,2.6,1.1c0.7,0.8,1,1.7,1,2.8V275.4z M91.1,275.3c0-0.8-0.2-1.5-0.5-2
		s-0.8-0.8-1.5-0.8s-1.2,0.3-1.5,0.8c-0.3,0.5-0.5,1.2-0.5,2v0.1c0,0.8,0.2,1.5,0.5,2c0.3,0.5,0.8,0.8,1.5,0.8
		c0.7,0,1.2-0.3,1.5-0.8s0.5-1.2,0.5-2V275.3z"/>
	<path class="st1" d="M99.3,273.9h-1.2l-0.2-1.1c-0.1-0.1-0.3-0.2-0.6-0.2s-0.5-0.1-0.8-0.1c-0.4,0-0.8,0.1-1,0.3
		c-0.2,0.2-0.4,0.4-0.4,0.7c0,0.3,0.1,0.5,0.4,0.7c0.2,0.2,0.7,0.4,1.3,0.5c0.9,0.2,1.5,0.6,2,1c0.4,0.4,0.7,0.9,0.7,1.6
		c0,0.7-0.3,1.2-0.8,1.6s-1.2,0.6-2.1,0.6c-0.6,0-1.2-0.1-1.7-0.3c-0.5-0.2-0.9-0.5-1.2-0.8v-1.6h1.2l0.2,1.1
		c0.2,0.1,0.4,0.2,0.6,0.3c0.3,0.1,0.6,0.1,0.9,0.1c0.4,0,0.8-0.1,1-0.3c0.2-0.2,0.3-0.4,0.3-0.7c0-0.3-0.1-0.5-0.3-0.7
		c-0.2-0.2-0.6-0.4-1.1-0.5c-0.9-0.3-1.6-0.6-2.1-1c-0.5-0.4-0.7-0.9-0.7-1.5c0-0.6,0.3-1.2,0.8-1.6c0.5-0.4,1.2-0.6,2-0.6
		c0.6,0,1.1,0.1,1.6,0.3c0.5,0.2,0.9,0.4,1.2,0.7V273.9z"/>
</g>
<g class="st0">
	<path class="st1" d="M103,276.1c0-1.4,0.3-2.6,0.9-3.6s1.2-1.7,1.8-2l0,0l0.2,0.6c-0.5,0.4-0.9,1-1.3,1.8s-0.5,1.9-0.5,3.1v0.1
		c0,1.2,0.2,2.3,0.5,3.1c0.4,0.8,0.8,1.5,1.3,1.9l-0.2,0.6h0c-0.6-0.3-1.2-1-1.8-2S103,277.5,103,276.1L103,276.1z"/>
	<path class="st1" d="M110.2,279.2c0-0.2-0.1-0.3-0.1-0.4c0-0.1,0-0.3,0-0.4c-0.2,0.3-0.5,0.5-0.8,0.7c-0.3,0.2-0.6,0.3-1,0.3
		c-0.6,0-1.1-0.1-1.4-0.4c-0.3-0.3-0.5-0.7-0.5-1.2c0-0.6,0.2-1,0.7-1.3c0.4-0.3,1.1-0.4,1.8-0.4h1.1v-0.7c0-0.3-0.1-0.6-0.3-0.8
		c-0.2-0.2-0.5-0.3-0.9-0.3c-0.3,0-0.5,0-0.7,0.1c-0.2,0.1-0.4,0.2-0.5,0.3l-0.1,0.6h-0.8V274c0.3-0.2,0.6-0.4,1-0.5
		s0.8-0.2,1.2-0.2c0.7,0,1.2,0.2,1.6,0.5s0.6,0.8,0.6,1.4v2.8c0,0.1,0,0.1,0,0.2c0,0.1,0,0.1,0,0.2l0.4,0.1v0.7H110.2z M108.5,278.5
		c0.4,0,0.7-0.1,1-0.3c0.3-0.2,0.5-0.4,0.6-0.6v-1H109c-0.4,0-0.8,0.1-1,0.3c-0.3,0.2-0.4,0.4-0.4,0.7c0,0.3,0.1,0.4,0.2,0.6
		C107.9,278.4,108.2,278.5,108.5,278.5z"/>
	<path class="st1" d="M112.3,278.6l0.9-0.2v-4.2l-0.9-0.2v-0.7h1.8l0.1,0.9c0.2-0.3,0.4-0.5,0.7-0.7c0.3-0.2,0.6-0.3,1-0.3
		c0.6,0,1.1,0.2,1.5,0.6s0.5,0.9,0.5,1.7v2.8l0.9,0.2v0.7H116v-0.7l0.9-0.2v-2.8c0-0.5-0.1-0.9-0.3-1.1c-0.2-0.2-0.5-0.3-0.9-0.3
		c-0.3,0-0.6,0.1-0.8,0.2c-0.2,0.1-0.4,0.3-0.6,0.6v3.4l0.9,0.2v0.7h-2.8V278.6z"/>
	<path class="st1" d="M125.1,274.1l-0.5,0.1l-2.2,5.9c-0.1,0.4-0.4,0.7-0.6,1s-0.6,0.4-1.1,0.4c-0.1,0-0.2,0-0.3,0s-0.2,0-0.3-0.1
		l0.1-0.8c0,0,0,0,0.2,0c0.1,0,0.2,0,0.3,0c0.2,0,0.4-0.1,0.5-0.3s0.3-0.4,0.4-0.7l0.3-0.6l-1.9-4.9l-0.5-0.1v-0.7h2.3v0.7l-0.7,0.1
		l1,2.9l0.2,0.7h0l1.2-3.6l-0.7-0.1v-0.7h2.3V274.1z"/>
	<path class="st1" d="M128.4,279.2v-0.7l0.9-0.2v-6.2l-0.9-0.2v-0.7h0.9h1.1h0.9v0.7l-0.9,0.2v6.2h2.7l0.1-0.9h0.9v1.7H128.4z"/>
	<path class="st1" d="M135,278.6l0.9-0.2v-4.2l-0.9-0.2v-0.7h1.9v5l0.9,0.2v0.7H135V278.6z M136.9,271.9h-1.1v-1.1h1.1V271.9z"/>
	<path class="st1" d="M138.4,278.6l0.9-0.2v-4.2l-0.9-0.2v-0.7h1.8l0.1,0.9c0.2-0.3,0.4-0.5,0.7-0.7c0.3-0.2,0.6-0.3,1-0.3
		c0.6,0,1.1,0.2,1.5,0.6s0.5,0.9,0.5,1.7v2.8l0.9,0.2v0.7h-2.8v-0.7l0.9-0.2v-2.8c0-0.5-0.1-0.9-0.3-1.1c-0.2-0.2-0.5-0.3-0.9-0.3
		c-0.3,0-0.6,0.1-0.8,0.2c-0.2,0.1-0.4,0.3-0.6,0.6v3.4l0.9,0.2v0.7h-2.8V278.6z"/>
	<path class="st1" d="M149.8,278.4c-0.2,0.3-0.4,0.6-0.7,0.7c-0.3,0.2-0.6,0.3-1,0.3c-0.6,0-1.1-0.2-1.5-0.6s-0.5-1-0.5-1.9v-2.6
		l-0.7-0.2v-0.7h0.7h1.1v3.4c0,0.6,0.1,1,0.3,1.3s0.5,0.3,0.9,0.3c0.4,0,0.7-0.1,0.9-0.2c0.2-0.2,0.4-0.4,0.6-0.6v-3.4l-0.8-0.2
		v-0.7h0.8h1.1v5l0.7,0.2v0.7h-1.6L149.8,278.4z"/>
	<path class="st1" d="M152.2,278.6l0.6-0.1l1.7-2.1l-1.7-2.1l-0.6-0.1v-0.7h2.3v0.7l-0.5,0.1l1.1,1.4l1.1-1.4l-0.5-0.1v-0.7h2.3v0.7
		l-0.6,0.1l-1.7,2.1l1.7,2.1l0.6,0.1v0.7h-2.3v-0.7l0.5-0.1l-1.1-1.5l-1.1,1.5l0.5,0.1v0.7h-2.3V278.6z"/>
	<path class="st1" d="M165,278.6l0.9-0.2v-6.6c-0.2,0-0.4-0.1-0.6-0.1s-0.4,0-0.7,0c-0.5,0-0.9,0.1-1.1,0.3c-0.2,0.2-0.3,0.6-0.3,1
		v0.4h1.3v0.8h-1.3v4.2l0.9,0.2v0.7h-2.8v-0.7l0.9-0.2v-4.2h-0.8v-0.8h0.8V273c0-0.7,0.2-1.3,0.6-1.7c0.4-0.4,1-0.6,1.7-0.6
		c0.3,0,0.6,0,0.9,0.1c0.3,0.1,0.6,0.1,1,0.2h0.5v7.3l0.9,0.2v0.7H165V278.6z"/>
</g>
<g class="st0">
	<path class="st1" d="M172.5,279.2c0-0.2-0.1-0.3-0.1-0.4c0-0.1,0-0.3,0-0.4c-0.2,0.3-0.5,0.5-0.8,0.7c-0.3,0.2-0.6,0.3-1,0.3
		c-0.6,0-1.1-0.1-1.4-0.4c-0.3-0.3-0.5-0.7-0.5-1.2c0-0.6,0.2-1,0.7-1.3c0.4-0.3,1.1-0.4,1.8-0.4h1.1v-0.7c0-0.3-0.1-0.6-0.3-0.8
		c-0.2-0.2-0.5-0.3-0.9-0.3c-0.3,0-0.5,0-0.7,0.1c-0.2,0.1-0.4,0.2-0.5,0.3l-0.1,0.6h-0.8V274c0.3-0.2,0.6-0.4,1-0.5
		s0.8-0.2,1.2-0.2c0.7,0,1.2,0.2,1.6,0.5s0.6,0.8,0.6,1.4v2.8c0,0.1,0,0.1,0,0.2c0,0.1,0,0.1,0,0.2l0.4,0.1v0.7H172.5z M170.8,278.5
		c0.4,0,0.7-0.1,1-0.3c0.3-0.2,0.5-0.4,0.6-0.6v-1h-1.1c-0.4,0-0.8,0.1-1,0.3c-0.3,0.2-0.4,0.4-0.4,0.7c0,0.3,0.1,0.4,0.2,0.6
		C170.3,278.4,170.5,278.5,170.8,278.5z"/>
	<path class="st1" d="M176.6,274.1l-0.7,0.1l1.2,3.3l0.1,0.4h0l0.1-0.4l1.2-3.3l-0.7-0.1v-0.7h2.2v0.7l-0.5,0.1l-1.9,5h-0.8l-2-5
		l-0.5-0.1v-0.7h2.2V274.1z"/>
</g>
<g class="st0">
	<path class="st1" d="M180.8,276.3c0-0.9,0.2-1.6,0.7-2.1s1.1-0.8,1.9-0.8c0.8,0,1.4,0.3,1.9,0.8c0.5,0.6,0.7,1.3,0.7,2.1v0.1
		c0,0.9-0.2,1.6-0.7,2.1c-0.5,0.6-1.1,0.8-1.9,0.8c-0.8,0-1.4-0.3-1.9-0.8c-0.5-0.6-0.7-1.3-0.7-2.1V276.3z M181.8,276.4
		c0,0.6,0.1,1.1,0.4,1.5c0.3,0.4,0.6,0.6,1.2,0.6c0.5,0,0.9-0.2,1.1-0.6c0.3-0.4,0.4-0.9,0.4-1.5v-0.1c0-0.6-0.1-1.1-0.4-1.5
		s-0.6-0.6-1.2-0.6s-0.9,0.2-1.1,0.6s-0.4,0.9-0.4,1.5V276.4z"/>
	<path class="st1" d="M186.9,274.1v-0.7h1.8l0.1,0.8c0.2-0.3,0.4-0.5,0.6-0.7c0.2-0.2,0.5-0.3,0.8-0.3c0.1,0,0.2,0,0.3,0
		c0.1,0,0.2,0,0.2,0l-0.1,1l-0.6,0c-0.3,0-0.5,0.1-0.7,0.2s-0.3,0.3-0.4,0.6v3.3l0.9,0.2v0.7h-2.8v-0.7l0.9-0.2v-4.2L186.9,274.1z"
		/>
	<path class="st1" d="M193.9,276.1c0,1.4-0.3,2.6-0.9,3.6c-0.6,1-1.2,1.7-1.8,2h0l-0.2-0.6c0.5-0.4,0.9-1,1.3-1.9s0.5-1.9,0.5-3.2
		v-0.1c0-1.2-0.2-2.3-0.6-3.1c-0.4-0.9-0.8-1.5-1.3-1.9l0.2-0.6h0c0.6,0.3,1.2,1,1.8,2C193.7,273.5,193.9,274.7,193.9,276.1
		L193.9,276.1z"/>
</g>
<linearGradient id="SVGID_6_" gradientUnits="userSpaceOnUse" x1="48.39" y1="318.045" x2="202.39" y2="318.045" gradientTransform="matrix(1 0 0 -1 0 466)">
	<stop  offset="0" style="stop-color:#981869"/>
	<stop  offset="0.19" style="stop-color:#771C65"/>
	<stop  offset="0.4" style="stop-color:#591F62"/>
	<stop  offset="0.61" style="stop-color:#432260"/>
	<stop  offset="0.81" style="stop-color:#36235E"/>
	<stop  offset="1" style="stop-color:#32245E"/>
</linearGradient>
<path class="st15" d="M53.4,115.7h144c2.8,0,5,2.2,5,5v54.6c0,2.8-2.2,5-5,5h-144c-2.8,0-5-2.2-5-5v-54.6
	C48.4,117.9,50.6,115.7,53.4,115.7z"/>
<path class="st8" d="M117.4,106.6c4.6-4.5,12.1-4.5,16.6,0.1c4.5,4.6,4.5,12.1-0.1,16.6c-4.6,4.5-12.1,4.5-16.6-0.1
	c-2.2-2.2-3.4-5.1-3.4-8.2c0-2.6,0.8-5.1,2.4-7.1"/>
<path class="st9" d="M125.3,120.6H121c-0.6,0-0.8-0.2-0.8-0.8v-6.5c0-0.6,0.2-0.8,0.8-0.8h8.4c0.6,0,0.8,0.2,0.8,0.8v6.5
	c0,0.6-0.2,0.8-0.8,0.8C128.1,120.6,126.7,120.6,125.3,120.6z"/>
<path class="st9" d="M120.9,112c0-1.8,1-3.4,2.6-4.1c2.1-0.9,4.6,0,5.5,2.1c0.1,0.2,0.2,0.5,0.2,0.7c0.1,0.4,0.1,0.8,0.2,1.2"/>
<path class="st10" d="M124.6,117.8L124.6,117.8v0.9c0,0.2,0.1,0.2,0.3,0.2h0.8c0.2,0,0.3-0.1,0.3-0.3v-1.6c0-0.2,0.1-0.3,0.2-0.4
	c0.5-0.3,0.8-0.9,0.6-1.4c-0.2-0.6-0.8-1-1.4-1c-0.7-0.1-1.3,0.3-1.6,0.9c-0.2,0.6,0,1.2,0.6,1.5c0.2,0.1,0.3,0.3,0.3,0.5
	C124.6,117.3,124.6,117.6,124.6,117.8z"/>
<g class="st0">
	<path class="st3" d="M72.1,142.1c1,0,1.7,0.2,2.3,0.7s0.8,1.1,0.8,1.8c0,0.4-0.1,0.8-0.3,1.1s-0.6,0.6-1,0.8
		c0.5,0.1,0.9,0.4,1.1,0.7s0.3,0.8,0.3,1.3v0.4c0,0.2,0,0.3,0.1,0.4s0.2,0.2,0.4,0.2l0.2,0v1H75c-0.6,0-1-0.2-1.2-0.5
		s-0.3-0.7-0.3-1.2v-0.5c0-0.4-0.1-0.7-0.3-1s-0.5-0.4-0.9-0.4h-1.4v2.3l0.9,0.2v1h-3.5v-1l0.9-0.2v-6.1l-0.9-0.2v-1h0.9H72.1z
		 M70.8,145.9H72c0.5,0,0.8-0.1,1.1-0.3s0.4-0.5,0.4-0.9s-0.1-0.7-0.4-0.9s-0.6-0.3-1-0.3h-1.2V145.9z"/>
	<path class="st3" d="M81,149.8c-0.2,0.3-0.5,0.5-0.8,0.7s-0.6,0.2-1,0.2c-0.7,0-1.2-0.2-1.6-0.6s-0.6-1.1-0.6-2v-2.6l-0.7-0.2v-1
		H77h1.7v3.8c0,0.5,0.1,0.8,0.2,1s0.4,0.3,0.7,0.3c0.3,0,0.5,0,0.7-0.1s0.4-0.2,0.5-0.4v-3.4l-0.8-0.2v-1h0.8h1.7v5.1l0.8,0.2v1
		h-2.3L81,149.8z"/>
	<path class="st3" d="M83.9,149.6l0.8-0.2v-3.9l-0.9-0.2v-1h2.5l0.1,0.9c0.2-0.3,0.5-0.6,0.8-0.8s0.7-0.3,1-0.3
		c0.6,0,1.1,0.2,1.5,0.6s0.5,1,0.5,1.9v2.8l0.8,0.2v1h-3.3v-1l0.7-0.2v-2.8c0-0.4-0.1-0.7-0.3-0.9s-0.4-0.3-0.8-0.3
		c-0.2,0-0.4,0-0.6,0.1s-0.3,0.2-0.5,0.4v3.4l0.7,0.2v1h-3.2V149.6z"/>
	<path class="st3" d="M94.1,142.8v1.6h1.1v1.2h-1.1v3.2c0,0.2,0.1,0.4,0.2,0.5s0.2,0.2,0.4,0.2c0.1,0,0.2,0,0.3,0s0.2,0,0.3,0
		l0.1,1.2c-0.2,0.1-0.4,0.1-0.6,0.1s-0.4,0-0.6,0c-0.6,0-1-0.2-1.4-0.5s-0.5-0.8-0.5-1.5v-3.2h-0.9v-1.2h0.9v-1.6H94.1z"/>
	<path class="st3" d="M96,149.6l0.8-0.2v-3.9l-0.9-0.2v-1h2.6v5.1l0.8,0.2v1H96V149.6z M98.6,142.8h-1.7v-1.3h1.7V142.8z"/>
</g>
<g class="st0">
	<path class="st3" d="M99.8,145.3v-1h2.5l0.1,0.8c0.2-0.3,0.5-0.5,0.8-0.7s0.7-0.2,1.1-0.2c0.4,0,0.8,0.1,1,0.3s0.5,0.5,0.7,0.8
		c0.2-0.3,0.4-0.6,0.8-0.8s0.7-0.3,1.1-0.3c0.6,0,1.1,0.2,1.5,0.6s0.5,1.1,0.5,2v2.6l0.8,0.2v1h-3.3v-1l0.7-0.2v-2.6
		c0-0.5-0.1-0.8-0.2-1s-0.4-0.3-0.7-0.3c-0.2,0-0.5,0.1-0.6,0.2s-0.3,0.3-0.4,0.4c0,0.1,0,0.1,0,0.2s0,0.1,0,0.2v3l0.7,0.2v1h-3.1
		v-1l0.7-0.2v-2.6c0-0.5-0.1-0.8-0.2-1s-0.4-0.3-0.7-0.3c-0.2,0-0.4,0-0.6,0.1s-0.3,0.2-0.4,0.4v3.4l0.7,0.2v1h-3.3v-1l0.8-0.2v-3.9
		L99.8,145.3z"/>
</g>
<g class="st0">
	<path class="st3" d="M114.1,150.8c-0.9,0-1.6-0.3-2.2-0.9s-0.8-1.3-0.8-2.2v-0.2c0-0.9,0.3-1.7,0.8-2.3s1.2-0.9,2.1-0.9
		c0.9,0,1.5,0.3,2,0.8s0.7,1.2,0.7,2.1v0.9h-3.8l0,0c0,0.4,0.2,0.8,0.4,1s0.6,0.4,1,0.4c0.4,0,0.7,0,0.9-0.1s0.5-0.2,0.8-0.4
		l0.5,1.1c-0.3,0.2-0.6,0.4-1,0.5S114.6,150.8,114.1,150.8z M114,145.5c-0.3,0-0.6,0.1-0.8,0.4s-0.3,0.6-0.3,1l0,0h2.1v-0.2
		c0-0.4-0.1-0.7-0.3-0.9S114.3,145.5,114,145.5z"/>
	<path class="st3" d="M125.9,146.9H123v2.4h2.8l0.1-1h1.3v2.3h-6.8v-1l0.9-0.2v-6.1l-0.9-0.2v-1h0.9h5.8v2.3h-1.3l-0.1-1H123v2.1
		h2.9V146.9z"/>
</g>
<g class="st0">
	<path class="st3" d="M128,149.6l0.8-0.2v-3.9l-0.9-0.2v-1h2.5l0.1,0.9c0.2-0.3,0.5-0.6,0.8-0.8s0.7-0.3,1-0.3
		c0.6,0,1.1,0.2,1.5,0.6s0.5,1,0.5,1.9v2.8l0.8,0.2v1h-3.3v-1l0.7-0.2v-2.8c0-0.4-0.1-0.7-0.3-0.9s-0.4-0.3-0.8-0.3
		c-0.2,0-0.4,0-0.6,0.1s-0.3,0.2-0.5,0.4v3.4l0.7,0.2v1H128V149.6z"/>
</g>
<g class="st0">
	<path class="st3" d="M138.6,149.5c0.3,0,0.5-0.1,0.7-0.3s0.3-0.4,0.3-0.7h1.5l0,0c0,0.6-0.2,1.2-0.7,1.6s-1.1,0.6-1.9,0.6
		c-0.9,0-1.7-0.3-2.2-0.9s-0.8-1.4-0.8-2.3v-0.2c0-0.9,0.3-1.7,0.8-2.3s1.3-0.9,2.2-0.9c0.5,0,1,0.1,1.4,0.2s0.7,0.4,1,0.6l0,1.7
		h-1.4l-0.3-1c-0.1-0.1-0.2-0.1-0.3-0.2s-0.3-0.1-0.4-0.1c-0.5,0-0.8,0.2-1,0.5s-0.3,0.8-0.3,1.4v0.2c0,0.6,0.1,1,0.3,1.4
		S138.1,149.5,138.6,149.5z"/>
</g>
<g class="st0">
	<path class="st3" d="M142.1,149.6l0.8-0.2v-3.9l-0.9-0.2v-1h2.5l0.1,0.9c0.1-0.3,0.3-0.6,0.6-0.8s0.5-0.3,0.8-0.3
		c0.1,0,0.2,0,0.3,0s0.2,0,0.2,0l-0.2,1.6l-0.7,0c-0.3,0-0.5,0-0.6,0.1s-0.3,0.2-0.4,0.4v3.1l0.8,0.2v1h-3.4V149.6z"/>
</g>
<g class="st0">
	<path class="st3" d="M153.7,145.3l-0.6,0.1l-2.3,6.2c-0.2,0.5-0.4,0.8-0.7,1.1s-0.8,0.5-1.4,0.5c-0.1,0-0.3,0-0.4,0
		s-0.3-0.1-0.4-0.1l0.2-1.2c0.1,0,0.1,0,0.2,0s0.1,0,0.2,0c0.3,0,0.5-0.1,0.7-0.2s0.3-0.3,0.4-0.5l0.2-0.5l-2-5.2l-0.6-0.1v-1h3.1v1
		l-0.7,0.1l0.9,2.5l0.1,0.5l0,0l1-3l-0.7-0.1v-1h3.1V145.3z"/>
	<path class="st3" d="M154.1,145.3v-1h2.5l0.1,0.7c0.2-0.3,0.4-0.5,0.7-0.6s0.6-0.2,0.9-0.2c0.8,0,1.4,0.3,1.8,0.9s0.7,1.4,0.7,2.4
		v0.1c0,0.9-0.2,1.7-0.7,2.3s-1,0.9-1.8,0.9c-0.3,0-0.6-0.1-0.9-0.2s-0.5-0.3-0.7-0.5v1.8l0.8,0.2v1h-3.4v-1l0.8-0.2v-6.4
		L154.1,145.3z M159,147.5c0-0.6-0.1-1.1-0.3-1.5s-0.5-0.6-0.9-0.6c-0.3,0-0.5,0.1-0.7,0.2s-0.3,0.3-0.4,0.5v2.8
		c0.1,0.2,0.2,0.3,0.4,0.4s0.4,0.1,0.7,0.1c0.4,0,0.7-0.2,0.9-0.5s0.3-0.8,0.3-1.3V147.5z"/>
	<path class="st3" d="M164,142.8v1.6h1.1v1.2H164v3.2c0,0.2,0.1,0.4,0.2,0.5s0.2,0.2,0.4,0.2c0.1,0,0.2,0,0.3,0s0.2,0,0.3,0l0.1,1.2
		c-0.2,0.1-0.4,0.1-0.6,0.1s-0.4,0-0.6,0c-0.6,0-1-0.2-1.4-0.5s-0.5-0.8-0.5-1.5v-3.2h-0.9v-1.2h0.9v-1.6H164z"/>
	<path class="st3" d="M165.9,149.6l0.8-0.2v-3.9l-0.9-0.2v-1h2.6v5.1l0.8,0.2v1h-3.4V149.6z M168.4,142.8h-1.7v-1.3h1.7V142.8z"/>
	<path class="st3" d="M169.8,147.4c0-0.9,0.3-1.7,0.8-2.3s1.3-0.9,2.2-0.9c0.9,0,1.7,0.3,2.2,0.9s0.8,1.4,0.8,2.3v0.1
		c0,1-0.3,1.7-0.8,2.3s-1.3,0.9-2.2,0.9c-0.9,0-1.7-0.3-2.2-0.9s-0.8-1.4-0.8-2.3V147.4z M171.5,147.5c0,0.6,0.1,1,0.3,1.4
		s0.5,0.5,1,0.5c0.4,0,0.8-0.2,1-0.5s0.3-0.8,0.3-1.4v-0.1c0-0.6-0.1-1-0.3-1.4s-0.5-0.5-1-0.5s-0.8,0.2-1,0.5s-0.3,0.8-0.3,1.4
		V147.5z"/>
	<path class="st3" d="M176.5,149.6l0.8-0.2v-3.9l-0.9-0.2v-1h2.5l0.1,0.9c0.2-0.3,0.5-0.6,0.8-0.8s0.7-0.3,1-0.3
		c0.6,0,1.1,0.2,1.5,0.6s0.5,1,0.5,1.9v2.8l0.8,0.2v1h-3.3v-1l0.7-0.2v-2.8c0-0.4-0.1-0.7-0.3-0.9s-0.4-0.3-0.8-0.3
		c-0.2,0-0.4,0-0.6,0.1s-0.3,0.2-0.5,0.4v3.4l0.7,0.2v1h-3.2V149.6z"/>
</g>
<g id="Scone_logo_white-2">
	<g>
		<defs>
			<rect id="SVGID_7_" x="103.8" y="166.6" width="36.3" height="7.1"/>
		</defs>
		<clipPath id="SVGID_8_">
			<use xlink:href="#SVGID_7_"  style="overflow:visible;"/>
		</clipPath>
		<g class="st16">
			<g>
				<defs>
					<rect id="SVGID_9_" x="103.8" y="166.6" width="36.3" height="7.1"/>
				</defs>
				<clipPath id="SVGID_10_">
					<use xlink:href="#SVGID_9_"  style="overflow:visible;"/>
				</clipPath>
				<g class="st17">
					<path class="st6" d="M108.7,168.4h-0.8c-0.2,0-0.3,0.1-0.3,0.3v0.8c0,0.2,0.1,0.3,0.3,0.3h0.8c0.2,0,0.3-0.1,0.3-0.3v-0.8
						C109,168.6,108.8,168.4,108.7,168.4 M106,169.8h0.8c0.2,0,0.3-0.1,0.3-0.3v-0.8c0-0.2-0.1-0.3-0.3-0.3H106
						c-0.2,0-0.3,0.1-0.3,0.3v0.8C105.7,169.7,105.8,169.8,106,169.8 M105.2,169.5v-0.8c0-0.2-0.1-0.3-0.3-0.3h-0.8
						c-0.2,0-0.3,0.1-0.3,0.3v0.8c0,0.2,0.1,0.3,0.3,0.3h0.8C105.1,169.8,105.2,169.7,105.2,169.5 M108.7,170.3
						c-0.1,0-0.2,0.1-0.2,0.2l0,0v0.9c0,0.1,0.1,0.2,0.2,0.2s0.2-0.1,0.2-0.2v-0.9C108.9,170.5,108.8,170.4,108.7,170.3
						C108.7,170.3,108.7,170.3,108.7,170.3 M106.6,170.6v0.8c0,0.2,0.1,0.3,0.3,0.3c0,0,0,0,0,0h0.8c0.2,0,0.3-0.1,0.3-0.3
						c0,0,0,0,0,0v-0.8c0-0.2-0.1-0.3-0.3-0.3h-0.8C106.7,170.3,106.6,170.5,106.6,170.6 M106.1,171.4v-0.8c0-0.2-0.1-0.3-0.3-0.3
						H105c-0.2,0-0.3,0.1-0.3,0.3v0.8c0,0.2,0.1,0.3,0.3,0.3c0,0,0,0,0,0h0.8C105.9,171.7,106.1,171.6,106.1,171.4L106.1,171.4
						 M108.6,172.2h-0.8c-0.2,0-0.3,0.1-0.3,0.3v0.8c0,0.2,0.1,0.3,0.3,0.3h0.8c0.2,0,0.3-0.1,0.3-0.3v-0.8
						C108.9,172.4,108.8,172.2,108.6,172.2 M106.6,172.2h-0.8c-0.2,0-0.3,0.1-0.3,0.3v0.8c0,0.2,0.1,0.3,0.3,0.3h0.8
						c0.2,0,0.3-0.1,0.3-0.3v-0.8C106.9,172.4,106.8,172.2,106.6,172.2"/>
					<path class="st6" d="M109.6,168.1c0.3,0.3,0.8,0.4,1.2,0.4c0,0,0,0,0,0.1v2.1c0,0.8-1,1.3-1.2,1.4l0,0L109.6,168.1L109.6,168.1
						"/>
					<path class="st6" d="M107.3,168c1.6-0.1,1.9-0.6,1.9-0.6c0,0,0,0,0.1,0c0,0,0.1,0,0.1,0c0,0,0.2,0.6,1.8,0.6c0,0,0.1,0,0.1,0.1
						v2.8c0,0.9-1.7,1.9-1.7,1.9s0,0,0,0.1v0.7c0,0,0.1,0,0.1,0c0.6-0.3,2.3-1.3,2.3-2.5v-3.5c0-0.1-0.1-0.1-0.2-0.1
						c-2.1,0-2.4-0.8-2.4-0.8s-0.1,0-0.1,0s-0.1,0-0.1,0s-0.3,0.8-2.4,0.8c-0.1,0-0.1,0-0.1,0.1v0.5v0.1h0.6"/>
					<path class="st7" d="M113.5,172.5l0.8-0.3c0.2,0.4,0.6,0.6,1.1,0.6c0.2,0,0.4,0,0.6-0.1c0.2-0.1,0.3-0.3,0.3-0.4
						c0-0.4-0.6-0.7-1-0.9l0,0c-0.4-0.1-0.7-0.3-1-0.5c-0.3-0.2-0.5-0.6-0.5-1c0-0.4,0.2-0.8,0.5-1c0.3-0.3,0.8-0.4,1.2-0.4
						c0.7,0,1.3,0.3,1.6,0.9l-0.8,0.3c-0.1-0.1-0.2-0.2-0.3-0.3c-0.1-0.1-0.3-0.1-0.5-0.1c-0.5,0-0.8,0.3-0.8,0.6
						c0,0.2,0.1,0.4,0.3,0.5c0.2,0.1,0.5,0.3,0.7,0.4h0.1c0.6,0.3,1.4,0.6,1.4,1.4c0,0.4-0.2,0.8-0.6,1c-0.4,0.3-0.9,0.4-1.3,0.4
						C114.6,173.6,113.9,173.1,113.5,172.5"/>
					<path class="st7" d="M120.7,173.6c-0.3,0-0.7-0.1-1-0.2c-0.6-0.3-1.1-0.8-1.4-1.4c-0.1-0.3-0.2-0.7-0.2-1c0-0.3,0.1-0.7,0.2-1
						c0.1-0.3,0.3-0.6,0.6-0.8c0.2-0.2,0.5-0.4,0.8-0.6c0.3-0.1,0.7-0.2,1-0.2c0.4,0,0.8,0.1,1.2,0.3c0.3,0.2,0.7,0.4,0.9,0.8
						l-0.7,0.5c-0.3-0.4-0.8-0.7-1.4-0.7c-1,0.1-1.7,0.9-1.6,1.9c0.1,0.9,0.8,1.5,1.6,1.6c0.3,0,0.6-0.1,0.9-0.3
						c0.3-0.2,0.5-0.4,0.6-0.6l0.7,0.4c-0.2,0.4-0.5,0.7-0.9,0.9C121.7,173.5,121.2,173.6,120.7,173.6"/>
					<path class="st7" d="M126.4,173.6c-0.3,0-0.7-0.1-1-0.2c-0.3-0.1-0.6-0.3-0.8-0.6c-0.2-0.2-0.4-0.5-0.6-0.8
						c-0.1-0.3-0.2-0.7-0.2-1c0-0.3,0.1-0.7,0.2-1c0.1-0.3,0.3-0.6,0.6-0.8c0.2-0.2,0.5-0.4,0.8-0.6c0.6-0.3,1.4-0.3,2,0
						c0.6,0.3,1.1,0.8,1.4,1.4c0.3,0.6,0.3,1.4,0,2c-0.3,0.6-0.8,1.1-1.4,1.4C127.1,173.6,126.7,173.6,126.4,173.6 M126.4,169.3
						c-0.5,0-0.9,0.2-1.2,0.5c-0.3,0.3-0.5,0.8-0.5,1.2c0,0.5,0.2,0.9,0.5,1.2c0.7,0.7,1.7,0.7,2.4,0c0,0,0,0,0,0
						c0.7-0.7,0.7-1.8,0-2.4c0,0,0,0,0,0C127.3,169.5,126.9,169.3,126.4,169.3"/>
					<polygon class="st7" points="134.9,168.5 134.9,173.8 131.2,170.4 131.2,173.6 130.3,173.6 130.3,168.3 133.9,171.6 
						133.9,168.5 					"/>
					<polygon class="st7" points="137.4,169.3 137.4,170.6 139.9,170.6 139.9,171.4 137.4,171.4 137.4,172.8 140.2,172.8 
						140.2,173.6 136.4,173.6 136.4,168.5 140.2,168.5 140.2,169.3 137.4,169.3 					"/>
				</g>
			</g>
		</g>
	</g>
</g>
<linearGradient id="SVGID_11_" gradientUnits="userSpaceOnUse" x1="48.39" y1="244.545" x2="202.39" y2="244.545" gradientTransform="matrix(1 0 0 -1 0 466)">
	<stop  offset="0" style="stop-color:#981869"/>
	<stop  offset="0.19" style="stop-color:#771C65"/>
	<stop  offset="0.4" style="stop-color:#591F62"/>
	<stop  offset="0.61" style="stop-color:#432260"/>
	<stop  offset="0.81" style="stop-color:#36235E"/>
	<stop  offset="1" style="stop-color:#32245E"/>
</linearGradient>
<path class="st18" d="M53.4,194.7h144c2.8,0,5,2.2,5,5v43.6c0,2.8-2.2,5-5,5h-144c-2.8,0-5-2.2-5-5v-43.6
	C48.4,196.9,50.6,194.7,53.4,194.7z"/>
<g class="st0">
	<path class="st3" d="M93.1,220.1v-1h3.5v1l-0.9,0.2v6.1l0.9,0.2v1h-3.5v-1l0.9-0.2v-6.1L93.1,220.1z"/>
	<path class="st3" d="M97.3,226.6l0.8-0.2v-3.9l-0.9-0.2v-1h2.5l0.1,0.9c0.2-0.3,0.5-0.6,0.8-0.8s0.7-0.3,1-0.3
		c0.6,0,1.1,0.2,1.5,0.6s0.5,1,0.5,1.9v2.8l0.8,0.2v1h-3.3v-1l0.7-0.2v-2.8c0-0.4-0.1-0.7-0.3-0.9s-0.4-0.3-0.8-0.3
		c-0.2,0-0.4,0-0.6,0.1s-0.3,0.2-0.5,0.4v3.4l0.7,0.2v1h-3.2V226.6z"/>
	<path class="st3" d="M107.5,219.8v1.6h1.1v1.2h-1.1v3.2c0,0.2,0.1,0.4,0.2,0.5s0.2,0.2,0.4,0.2c0.1,0,0.2,0,0.3,0s0.2,0,0.3,0
		l0.1,1.2c-0.2,0.1-0.4,0.1-0.6,0.1s-0.4,0-0.6,0c-0.6,0-1-0.2-1.4-0.5s-0.5-0.8-0.5-1.5v-3.2h-0.9v-1.2h0.9v-1.6H107.5z"/>
	<path class="st3" d="M112.5,227.8c-0.9,0-1.6-0.3-2.2-0.9s-0.8-1.3-0.8-2.2v-0.2c0-0.9,0.3-1.7,0.8-2.3s1.2-0.9,2.1-0.9
		c0.9,0,1.5,0.3,2,0.8s0.7,1.2,0.7,2.1v0.9h-3.8l0,0c0,0.4,0.2,0.8,0.4,1s0.6,0.4,1,0.4c0.4,0,0.7,0,0.9-0.1s0.5-0.2,0.8-0.4
		l0.5,1.1c-0.3,0.2-0.6,0.4-1,0.5S113,227.8,112.5,227.8z M112.3,222.5c-0.3,0-0.6,0.1-0.8,0.4s-0.3,0.6-0.3,1l0,0h2.1v-0.2
		c0-0.4-0.1-0.7-0.3-0.9S112.7,222.5,112.3,222.5z"/>
	<path class="st3" d="M115.7,219.5v-1h2.6v7.9l0.8,0.2v1h-3.4v-1l0.8-0.2v-6.7L115.7,219.5z"/>
	<path class="st3" d="M129,221.8h-1.3l-0.2-1.2c-0.1-0.1-0.4-0.2-0.7-0.2s-0.6-0.1-0.9-0.1c-0.5,0-0.8,0.1-1.1,0.3s-0.4,0.5-0.4,0.8
		c0,0.3,0.1,0.5,0.4,0.7s0.7,0.4,1.4,0.6c0.9,0.3,1.7,0.6,2.1,1s0.7,1,0.7,1.7c0,0.7-0.3,1.3-0.9,1.7s-1.3,0.6-2.3,0.6
		c-0.7,0-1.3-0.1-1.8-0.3s-1-0.5-1.4-0.9v-1.8h1.3l0.2,1.2c0.2,0.1,0.4,0.3,0.7,0.3s0.6,0.1,1,0.1c0.5,0,0.8-0.1,1.1-0.3
		s0.4-0.4,0.4-0.8c0-0.3-0.1-0.6-0.3-0.8s-0.6-0.4-1.2-0.6c-1-0.3-1.8-0.6-2.3-1s-0.8-1-0.8-1.7c0-0.7,0.3-1.3,0.9-1.7
		s1.3-0.7,2.2-0.7c0.7,0,1.3,0.1,1.8,0.3s1,0.5,1.4,0.8V221.8z"/>
	<path class="st3" d="M136.9,226.7c-0.3,0.3-0.7,0.5-1.2,0.7s-1.2,0.3-2,0.3c-1.2,0-2.1-0.4-2.8-1.2s-1.1-1.8-1.1-3v-0.3
		c0-1.3,0.4-2.3,1.1-3.1s1.6-1.2,2.8-1.2c0.7,0,1.3,0.1,1.8,0.3s1,0.5,1.4,0.9v1.7h-1.3l-0.2-1.1c-0.2-0.1-0.4-0.2-0.6-0.3
		s-0.5-0.1-0.9-0.1c-0.7,0-1.3,0.3-1.7,0.8s-0.6,1.3-0.6,2.2v0.3c0,0.9,0.2,1.6,0.6,2.1s1,0.8,1.8,0.8c0.3,0,0.6,0,0.8-0.1
		s0.4-0.1,0.5-0.2v-1.4l-1.2-0.1v-1.2h2.9V226.7z"/>
	<path class="st3" d="M137.6,226.6l0.7-0.1l2.3-3.1l-2.2-3.1l-0.7-0.1v-1h3.3v1l-0.7,0.1l1.3,2.1l1.3-2.1l-0.7-0.1v-1h3.3v1
		l-0.7,0.1l-2.2,3.1l2.3,3.1l0.8,0.1v1h-3.4v-1l0.7-0.1l-1.4-2.2l-1.4,2.2l0.7,0.1v1h-3.3V226.6z"/>
	<path class="st3" d="M153,219.1c1,0,1.9,0.3,2.6,1s1,1.5,1,2.6v1.4c0,1-0.3,1.9-1,2.6s-1.5,1-2.6,1h-3.8v-1l0.9-0.2v-6.1l-0.9-0.2
		v-1h0.9H153z M151.8,220.4v5.9h1.1c0.6,0,1.1-0.2,1.4-0.6s0.5-1,0.5-1.6v-1.4c0-0.7-0.2-1.2-0.5-1.6s-0.8-0.6-1.4-0.6H151.8z"/>
	<path class="st3" d="M157.6,226.6l0.8-0.2v-3.9l-0.9-0.2v-1h2.5l0.1,0.9c0.1-0.3,0.3-0.6,0.6-0.8s0.5-0.3,0.8-0.3
		c0.1,0,0.2,0,0.3,0s0.2,0,0.2,0l-0.2,1.6l-0.7,0c-0.3,0-0.5,0-0.6,0.1s-0.3,0.2-0.4,0.4v3.1l0.8,0.2v1h-3.4V226.6z"/>
	<path class="st3" d="M162.4,226.6l0.8-0.2v-3.9l-0.9-0.2v-1h2.6v5.1l0.8,0.2v1h-3.4V226.6z M165,219.8h-1.7v-1.3h1.7V219.8z"/>
</g>
<g class="st0">
	<path class="st3" d="M169,222.3l-0.6,0.1l0.8,2.8l0.1,0.6h0l0.1-0.6l0.8-2.8l-0.6-0.1v-1h2.9v1l-0.6,0.1l-1.9,5.2h-1.6l-1.9-5.2
		l-0.6-0.1v-1h2.9V222.3z"/>
</g>
<g class="st0">
	<path class="st3" d="M176.2,227.8c-0.9,0-1.6-0.3-2.2-0.9s-0.8-1.3-0.8-2.2v-0.2c0-0.9,0.3-1.7,0.8-2.3s1.2-0.9,2.1-0.9
		c0.9,0,1.5,0.3,2,0.8s0.7,1.2,0.7,2.1v0.9h-3.8l0,0c0,0.4,0.2,0.8,0.4,1s0.6,0.4,1,0.4c0.4,0,0.7,0,0.9-0.1s0.5-0.2,0.8-0.4
		l0.5,1.1c-0.3,0.2-0.6,0.4-1,0.5S176.7,227.8,176.2,227.8z M176,222.5c-0.3,0-0.6,0.1-0.8,0.4s-0.3,0.6-0.3,1l0,0h2.1v-0.2
		c0-0.4-0.1-0.7-0.3-0.9S176.3,222.5,176,222.5z"/>
	<path class="st3" d="M179.6,226.6l0.8-0.2v-3.9l-0.9-0.2v-1h2.5l0.1,0.9c0.1-0.3,0.3-0.6,0.6-0.8s0.5-0.3,0.8-0.3
		c0.1,0,0.2,0,0.3,0s0.2,0,0.2,0l-0.2,1.6l-0.7,0c-0.3,0-0.5,0-0.6,0.1s-0.3,0.2-0.4,0.4v3.1l0.8,0.2v1h-3.4V226.6z"/>
</g>
<line class="st19" x1="244" y1="149" x2="210.3" y2="149"/>
<polygon class="st20" points="211.1,155.1 211.1,142.9 205,149 "/>
<linearGradient id="SVGID_12_" gradientUnits="userSpaceOnUse" x1="35" y1="113.5" x2="511" y2="113.5" gradientTransform="matrix(1 0 0 -1 0 466)">
	<stop  offset="0" style="stop-color:#981869"/>
	<stop  offset="0.19" style="stop-color:#771C65"/>
	<stop  offset="0.4" style="stop-color:#591F62"/>
	<stop  offset="0.61" style="stop-color:#432260"/>
	<stop  offset="0.81" style="stop-color:#36235E"/>
	<stop  offset="1" style="stop-color:#32245E"/>
</linearGradient>
<path class="st21" d="M40,330h466c2.8,0,5,2.2,5,5v35c0,2.8-2.2,5-5,5H40c-2.8,0-5-2.2-5-5v-35C35,332.2,37.2,330,40,330z"/>
<path class="st22" d="M152.8,359.4c-0.6,0-1.3,0-1.9,0c-0.3,0-0.4-0.1-0.4-0.4c0-0.6,0-1.1,0-1.7c0-0.3,0.1-0.4,0.4-0.4
	c1.3,0,2.6,0,3.9,0c0.4,0,0.4-0.1,0.4-0.5c0-0.9,0-1.9,0-2.8c0-0.3-0.1-0.4-0.4-0.4c-1.3,0-2.5,0-3.8,0c-0.5,0-0.5,0-0.5-0.5
	s0-1.1,0-1.7c0-0.3,0.1-0.4,0.4-0.4c1.3,0,2.6,0,3.9,0c0.3,0,0.4-0.1,0.4-0.4c0-1,0-1.9,0-2.9c0-0.3-0.1-0.4-0.4-0.4h-3.8
	c-0.5,0-0.5,0-0.5-0.5s0-1.1,0-1.7c0-0.3,0.1-0.4,0.4-0.4c1.3,0,2.6,0,3.9,0c0.3,0,0.4-0.1,0.4-0.4c0-1,0-2.1,0-3.1
	c0-0.3,0.1-0.4,0.4-0.4c1.1,0,2.2,0,3.2,0c0.3,0,0.4-0.1,0.4-0.4c0-1.3,0-2.5,0-3.8c0-0.3,0.1-0.4,0.4-0.4c0.6,0,1.2,0,1.8,0
	c0.3,0,0.4,0.1,0.4,0.4c0,1,0,2.1,0,3.1c0,0.3,0,0.5,0,0.8s0.1,0.4,0.3,0.4h3.1c0.3,0,0.3-0.2,0.3-0.4c0-1.3,0-2.5,0-3.8
	c0-0.3,0.1-0.5,0.4-0.4c0.6,0,1.1,0,1.7,0c0.3,0,0.4,0.1,0.4,0.4c0,1.3,0,2.5,0,3.8c0,0.3,0.1,0.5,0.4,0.5c0.9,0,1.9,0,2.8,0
	c0.4,0,0.5-0.1,0.5-0.5c0-1.3,0-2.5,0-3.8c0-0.3,0.1-0.4,0.4-0.4c0.6,0,1.1,0,1.7,0c0.3,0,0.4,0.1,0.4,0.4c0,1.2,0,2.5,0,3.7
	c0,0.3,0.1,0.4,0.4,0.4c1,0,2.1,0,3.1,0c0.3,0,0.4,0.1,0.4,0.4c0,1,0,2.1,0,3.2c0,0.3,0.1,0.5,0.4,0.5c1.3,0,2.6,0,3.8,0
	c0.3,0,0.4,0.1,0.4,0.4c0,0.6,0,1.2,0,1.8c0,0.3-0.1,0.4-0.4,0.4h-3.8c-0.5,0-0.5,0-0.5,0.5v2.8c0,0.4,0,0.4,0.4,0.4h3.7
	c0.5,0,0.5,0,0.5,0.5v1.6c0,0.4,0,0.5-0.5,0.5c-1.3,0-2.5,0-3.8,0c-0.3,0-0.4,0.1-0.4,0.4c0,0.9,0,1.8,0,2.7c0,0.5,0,0.5,0.5,0.5
	c1.2,0,2.5,0,3.7,0c0.3,0,0.5,0.1,0.5,0.4c0,0.6,0,1.1,0,1.7c0,0.3-0.1,0.4-0.4,0.4h-3.8c-0.5,0-0.5,0-0.5,0.5v3
	c0,0.5,0,0.5-0.5,0.5h-3.1c-0.3,0-0.4,0.1-0.4,0.4c0,1.3,0,2.5,0,3.7c0,0.4-0.1,0.5-0.4,0.5c-0.5,0-1.1,0-1.6,0s-0.5,0-0.5-0.5V364
	c0-0.5,0-0.5-0.5-0.5c-0.9,0-1.9,0-2.8,0c-0.3,0-0.4,0.1-0.4,0.4c0,1.3,0,2.5,0,3.8c0,0.3-0.1,0.4-0.4,0.4c-0.5,0-1.1,0-1.6,0
	s-0.5,0-0.5-0.5c0-1.2,0-2.4,0-3.6c0-0.3-0.1-0.5-0.4-0.5c-0.9,0-1.9,0-2.8,0c-0.3,0-0.4,0.1-0.4,0.4c0,1.2,0,2.5,0,3.7
	c0,0.5,0,0.5-0.5,0.5s-1.2,0-1.7,0c-0.3,0-0.4-0.1-0.4-0.4c0-1.2,0-2.5,0-3.7c0-0.5,0-0.5-0.5-0.5h-3.1c-0.5,0-0.5,0-0.5-0.5
	c0-1,0-2.1,0-3.1c0-0.3-0.1-0.4-0.4-0.4C154.1,359.5,153.4,359.5,152.8,359.4z M166.6,343.2h-8.3c-0.5,0-0.5,0-0.5,0.5v16.5
	c0,0.5,0,0.5,0.5,0.5h16.6c0.5,0,0.5,0,0.5-0.5v-16.5c0-0.5,0-0.5-0.5-0.5H166.6z"/>
<path class="st22" d="M170.2,350.3c0.1,0.7,0.1,0.7-0.5,1c-1.6,0.8-3.4,1.1-5.2,0.9c-0.8,0-1.5-0.2-2.2-0.6
	c-0.8-0.4-1.4-1.2-1.4-2.1c0-0.9,0.4-1.8,1.1-2.4l0.1,0c-0.1,0.2-0.1,0.3-0.2,0.4c-0.4,0.6-0.6,1.3-0.5,2c0.1,0.7,0.7,1.3,1.4,1.6
	c1.1,0.4,2.2,0.5,3.4,0.3c1.3-0.1,2.7-0.5,3.9-1.1C170.1,350.3,170.1,350.3,170.2,350.3z"/>
<path class="st22" d="M167.9,355.1c-0.2,0.6-0.2,0.6-0.7,0.5c-0.6-0.2-1.2,0-1.5,0.5c-0.3,0.6-0.3,1.3,0.1,1.9
	c0.3,0.3,0.8,0.4,1.2,0.3c0.3-0.1,0.1-0.3,0.2-0.5s-0.1-0.3-0.3-0.3c-0.4,0-0.5-0.1-0.5-0.4c0-0.1,0.1-0.2,0.3-0.2
	c0.4,0,0.7,0,1.1,0c0.1,0,0.2,0.1,0.2,0.3c0,0.5,0,1,0,1.5c0,0.1-0.1,0.2-0.1,0.3c-0.9,0.4-1.9,0.3-2.7-0.3
	c-0.6-0.7-0.8-1.7-0.4-2.6c0.4-0.8,1.3-1.2,2.2-1C167.3,355,167.6,355,167.9,355.1z"/>
<path class="st22" d="M169.8,357.5l-0.6,0.9c-0.3,0.5-0.5,0.6-1.2,0.4c0.2-0.4,0.5-0.7,0.7-1.1s0.5-0.6,0.5-1s-0.3-0.6-0.5-0.9
	s-0.4-0.6-0.6-0.9c0.5-0.2,0.9-0.1,1.1,0.3c0.2,0.3,0.3,0.5,0.5,0.9c0.2-0.3,0.4-0.6,0.6-0.9c0.3-0.4,0.6-0.5,1.1-0.3
	c-0.3,0.5-0.6,0.9-0.9,1.4c-0.2,0.2-0.2,0.6,0,0.8c0,0,0,0,0,0c0.4,0.5,0.7,1.1,1.1,1.6c-0.7,0.2-0.9,0.1-1.2-0.4l-0.6-0.9
	L169.8,357.5z"/>
<path class="st22" d="M161.8,358.1c0.4,0.1,0.9,0.2,1.3,0.2c0.2,0,0.5-0.1,0.5-0.4c0,0,0,0,0,0c0.1-0.3-0.1-0.4-0.4-0.5
	s-0.6-0.1-0.8-0.2c-0.5-0.1-0.9-0.6-0.8-1.1c0,0,0,0,0,0c0-0.5,0.4-1,0.9-1.1c0.6-0.2,1.2-0.1,1.7,0.2c0.2,0.1,0.3,0.2,0.1,0.4
	s-0.1,0.4-0.4,0.3c-0.3-0.1-0.7-0.2-1-0.2c-0.3,0-0.5,0.2-0.5,0.4c0,0.3,0.1,0.4,0.4,0.5l0.9,0.3c0.5,0.1,0.8,0.5,0.8,1
	c0,0.5-0.3,0.9-0.8,1.1c-0.6,0.3-1.4,0.2-2-0.1c-0.4-0.2-0.4-0.3-0.2-0.6c0-0.1,0.1-0.1,0.1-0.2
	C161.7,358.1,161.7,358.1,161.8,358.1z"/>
<path class="st22" d="M163.2,346.2l0.3-0.1c2.1-1.2,4.6-1.6,6.9-0.9c0.8,0.2,1.5,0.9,1.7,1.7c0.2,1.2-0.4,2.4-1.6,2.8
	c-0.1-0.2-0.1-0.5,0.2-0.7c0.3-0.2,0.5-0.5,0.7-0.9c0.4-0.9,0-2-0.9-2.4c-0.1,0-0.1-0.1-0.2-0.1c-0.8-0.3-1.7-0.5-2.6-0.4
	c-1.4,0.1-2.7,0.4-4,1l-0.3,0.1L163.2,346.2z"/>
<path class="st22" d="M169,349.5c-0.4,0.5-1.1,0.5-1.6,0.1c-0.1-0.1-0.1-0.1-0.2-0.2c-0.4-0.6-0.2-1.3,0.3-1.7
	c0.2-0.1,0.4-0.2,0.6-0.2c0.6,0,1,0.4,1,1c0,0.1,0,0.1,0,0.2c-0.1,0.1-0.2,0.2-0.3,0.2c-0.3,0-0.6,0-0.9,0c-0.1,0-0.2,0.1-0.3,0.1
	s0.1,0.2,0.1,0.3c0.2,0.1,0.4,0.1,0.6,0C168.6,349.1,168.9,349.2,169,349.5C169,349.4,169,349.4,169,349.5z M168.1,348.5l0.4-0.2
	c-0.1-0.1-0.3-0.3-0.4-0.3s-0.3,0.2-0.4,0.3L168.1,348.5z"/>
<path class="st22" d="M163.6,348.6v-0.8c0-0.2,0.1-0.4,0.3-0.3s0.6,0,0.9,0c0.3,0,0.6,0.3,0.6,0.6c0,0,0,0.1,0,0.1
	c0,0.4,0,0.8,0,1.2c0,0.2-0.1,0.4-0.3,0.4s-0.3-0.2-0.3-0.4c0-0.4,0-0.7,0-1.1s-0.1-0.4-0.4-0.4s-0.3,0.2-0.3,0.4c0,0.4,0,0.8,0,1.1
	c0,0.2-0.1,0.3-0.3,0.3s-0.3-0.1-0.3-0.3S163.6,348.9,163.6,348.6L163.6,348.6z"/>
<path class="st22" d="M166.7,349.8c-0.5,0-0.8-0.2-0.8-0.6c0-0.6,0-1.3,0-1.9c0-0.2,0.1-0.3,0.3-0.3s0.3,0.1,0.3,0.3
	s0.1,0.2,0.2,0.3s0.2,0.1,0.2,0.2s-0.1,0.1-0.2,0.2s-0.2,0.2-0.2,0.3c0,0.2,0,0.5,0,0.7c0,0.1,0.1,0.2,0.2,0.3s0.2,0.2,0.2,0.3
	S166.7,349.8,166.7,349.8z"/>
<path class="st22" d="M170,349.8c-0.4,0-0.6-0.2-0.6-0.5c0-0.8,0-1.6,0-2.4c0-0.2,0.1-0.3,0.3-0.3s0.3,0.1,0.3,0.2
	C170,347.8,170,348.7,170,349.8z"/>
<path class="st22" d="M163.1,349.8c-0.3,0-0.5-0.2-0.6-0.4c0-0.5,0-1.1,0-1.6c0-0.1,0.2-0.2,0.3-0.2s0.3,0.1,0.3,0.1
	C163.1,348.4,163.1,349.1,163.1,349.8z"/>
<path class="st22" d="M163.1,347.1c-0.1,0.1-0.2,0.1-0.3,0.1c-0.2,0-0.3,0-0.3-0.3s0.1-0.3,0.3-0.3S163.1,346.7,163.1,347.1z"/>
<path class="st22" d="M66.6,227.8c-0.4,0-0.8,0-1.3,0c-0.2,0-0.3-0.1-0.3-0.3c0-0.4,0-0.7,0-1.1c0-0.2,0.1-0.3,0.3-0.3h2.5
	c0.2,0,0.3-0.1,0.3-0.3c0-0.6,0-1.2,0-1.8c0-0.2-0.1-0.3-0.3-0.3h-2.5c-0.3,0-0.3,0-0.3-0.3s0-0.7,0-1.1c0-0.2,0.1-0.3,0.3-0.3h2.5
	c0.2,0,0.3-0.1,0.3-0.3c0-0.6,0-1.2,0-1.9c0-0.2-0.1-0.3-0.3-0.3h-2.5c-0.3,0-0.3,0-0.3-0.3s0-0.8,0-1.1c0-0.2,0.1-0.2,0.2-0.2h2.6
	c0.2,0,0.3-0.1,0.3-0.3c0-0.7,0-1.3,0-2c0-0.2,0.1-0.3,0.3-0.3h2.1c0.2,0,0.3-0.1,0.3-0.3c0-0.8,0-1.7,0-2.5c0-0.2,0.1-0.3,0.3-0.3
	c0.4,0,0.8,0,1.1,0c0.2,0,0.3,0.1,0.3,0.2v2c0,0.2,0,0.3,0,0.5s0,0.2,0.2,0.2h2c0.2,0,0.2-0.1,0.2-0.3c0-0.8,0-1.6,0-2.4
	c0-0.2,0.1-0.3,0.3-0.3c0.4,0,0.8,0,1.1,0c0.2,0,0.3,0.1,0.3,0.3c0,0.8,0,1.6,0,2.5c0,0.2,0.1,0.3,0.3,0.3h1.8
	c0.2,0,0.3-0.1,0.3-0.3c0-0.8,0-1.6,0-2.4c0-0.2,0.1-0.3,0.3-0.3c0.4,0,0.7,0,1.1,0c0.2,0,0.3,0.1,0.3,0.3c0,0.8,0,1.6,0,2.4
	c0,0.2,0,0.3,0.3,0.3h2c0.2,0,0.3,0.1,0.3,0.3c0,0.7,0,1.4,0,2.1c0,0.2,0,0.3,0.3,0.3h2.5c0.2,0,0.3,0.1,0.3,0.3c0,0.4,0,0.8,0,1.1
	c0,0.2-0.1,0.3-0.3,0.3h-2.5c-0.3,0-0.3,0-0.3,0.3v1.8c0,0.3,0,0.3,0.3,0.3h2.4c0.3,0,0.3,0,0.3,0.3v1c0,0.3,0,0.3-0.3,0.3h-2.4
	c-0.2,0-0.3,0.1-0.3,0.3c0,0.6,0,1.2,0,1.8c0,0.3,0,0.3,0.3,0.3c0.8,0,1.6,0,2.4,0c0.2,0,0.3,0.1,0.3,0.3s0,0.7,0,1.1
	c0,0.2-0.1,0.3-0.3,0.3c-0.8,0-1.6,0-2.5,0c-0.3,0-0.3,0-0.3,0.3v2c0,0.3,0,0.3-0.3,0.3h-1.9c-0.2,0-0.3,0.1-0.3,0.3
	c0,0.8,0,1.6,0,2.4c0,0.2-0.1,0.3-0.3,0.3h-1c-0.3,0-0.3,0-0.3-0.3v-2.3c0-0.3,0-0.3-0.3-0.3h-1.8c-0.2,0-0.2,0.1-0.2,0.3
	c0,0.8,0,1.6,0,2.4c0,0.2-0.1,0.3-0.3,0.3h-1c-0.3,0-0.3,0-0.3-0.3v-2.3c0-0.2,0-0.3-0.3-0.3c-0.6,0-1.2,0-1.8,0
	c-0.2,0-0.3,0.1-0.3,0.3c0,0.8,0,1.6,0,2.4c0,0.3,0,0.3-0.3,0.3H71c-0.2,0-0.2-0.1-0.2-0.3c0-0.8,0-1.6,0-2.4c0-0.3,0-0.3-0.3-0.3
	h-2c-0.3,0-0.3,0-0.3-0.3v-2c0-0.2-0.1-0.3-0.2-0.2L66.6,227.8z M75.6,217.3h-5.4c-0.3,0-0.3,0-0.3,0.3v10.8c0,0.3,0,0.3,0.3,0.3H81
	c0.3,0,0.3,0,0.3-0.3v-10.8c0-0.3,0-0.3-0.3-0.3H75.6z"/>
<path class="st22" d="M77.9,221.9c0.1,0.5,0.1,0.5-0.3,0.6c-1.1,0.5-2.2,0.7-3.4,0.6c-0.5,0-1-0.1-1.4-0.4c-0.5-0.3-0.9-0.8-0.9-1.4
	c0-0.6,0.3-1.2,0.7-1.6h0.1c-0.1,0.1-0.1,0.2-0.2,0.3c-0.3,0.4-0.4,0.8-0.3,1.3c0.1,0.5,0.4,0.9,0.9,1c0.7,0.2,1.5,0.3,2.2,0.2
	c0.9-0.1,1.7-0.3,2.5-0.7L77.9,221.9z"/>
<path class="st22" d="M76.4,225c-0.1,0.4-0.1,0.4-0.5,0.3c-0.4-0.1-0.8,0-1,0.3c-0.2,0.4-0.2,0.9,0.1,1.2c0.2,0.2,0.5,0.3,0.8,0.2
	c0.2,0,0.1-0.2,0.1-0.4s-0.1-0.2-0.2-0.2c-0.3,0-0.3-0.1-0.3-0.3s0.1-0.1,0.2-0.1c0.2,0,0.5,0,0.7,0c0.1,0,0.2,0.1,0.2,0.2
	c0,0.3,0,0.7,0,1c0,0.1,0,0.1-0.1,0.2c-0.6,0.3-1.2,0.2-1.7-0.2c-0.4-0.5-0.5-1.1-0.2-1.7c0.3-0.5,0.8-0.8,1.4-0.7
	C76,224.9,76.2,224.9,76.4,225z"/>
<path class="st22" d="M77.7,226.6l-0.4,0.6c-0.2,0.4-0.3,0.4-0.8,0.3c0.2-0.2,0.3-0.5,0.4-0.7s0.3-0.4,0.3-0.6s-0.2-0.4-0.3-0.6
	l-0.4-0.6c0.3-0.1,0.6-0.1,0.7,0.2l0.3,0.6l0.4-0.6c0.2-0.3,0.4-0.4,0.7-0.2c-0.2,0.3-0.4,0.6-0.6,0.9c-0.2,0.1-0.2,0.4,0,0.6
	c0,0,0,0,0,0c0.3,0.3,0.5,0.7,0.7,1c-0.4,0.1-0.6,0.1-0.8-0.3L77.7,226.6L77.7,226.6z"/>
<path class="st22" d="M72.4,227c0.3,0,0.6,0.1,0.8,0.1c0.2,0,0.3-0.1,0.3-0.2c0,0,0,0,0,0c0-0.2-0.1-0.3-0.2-0.3l-0.5-0.2
	c-0.4-0.1-0.6-0.4-0.6-0.7c0-0.3,0.3-0.6,0.6-0.7c0.4-0.1,0.8-0.1,1.1,0c0.1,0.1,0.2,0.1,0.1,0.2s-0.1,0.2-0.3,0.2
	c-0.2-0.1-0.4-0.1-0.6-0.1c-0.2,0-0.3,0.1-0.3,0.3c0,0,0,0,0,0c0,0.2,0.1,0.3,0.3,0.3s0.4,0.1,0.6,0.2c0.3,0.1,0.5,0.3,0.5,0.6
	c0,0.3-0.2,0.6-0.5,0.7c-0.4,0.2-0.9,0.1-1.3-0.1C72.2,227.2,72.2,227.2,72.4,227l0-0.1L72.4,227z"/>
<path class="st22" d="M73.4,219.2l0.2-0.1c1.3-0.8,3-1,4.5-0.6c0.5,0.1,1,0.6,1.1,1.1c0.1,0.8-0.3,1.5-1,1.8c-0.1-0.2,0-0.4,0.1-0.5
	c0.2-0.2,0.3-0.3,0.5-0.6c0.3-0.6,0-1.3-0.6-1.6c0,0-0.1,0-0.1-0.1c-0.5-0.2-1.1-0.3-1.7-0.3c-0.9,0-1.8,0.3-2.6,0.6l-0.2,0.1
	L73.4,219.2z"/>
<path class="st22" d="M77.1,221.3c-0.2,0.3-0.7,0.4-1,0.1c0,0-0.1-0.1-0.1-0.1c-0.2-0.4-0.2-0.9,0.2-1.1c0.1-0.1,0.2-0.1,0.4-0.1
	c0.4,0,0.7,0.3,0.7,0.7c0,0,0,0.1,0,0.1c0,0.1-0.1,0.1-0.2,0.1c-0.2,0-0.4,0-0.6,0s-0.1,0-0.2,0.1s0,0.1,0.1,0.2c0.1,0,0.3,0,0.4,0
	C76.9,221.1,77,221.2,77.1,221.3C77.1,221.3,77.1,221.3,77.1,221.3z M76.5,220.7l0.3-0.1c-0.1-0.1-0.2-0.2-0.2-0.2s-0.2,0.1-0.3,0.2
	L76.5,220.7z"/>
<path class="st22" d="M73.6,220.8v-0.5c0-0.1,0-0.2,0.2-0.2s0.4,0,0.6,0c0.2,0,0.4,0.1,0.4,0.4c0,0,0,0.1,0,0.1c0,0.3,0,0.5,0,0.8
	s0,0.2-0.2,0.2s-0.2-0.1-0.2-0.2v-0.7c0-0.2-0.1-0.2-0.3-0.2s-0.2,0.1-0.2,0.3v0.7c0,0.1-0.1,0.2-0.2,0.2s-0.2,0-0.2-0.2
	S73.6,221,73.6,220.8L73.6,220.8z"/>
<path class="st22" d="M75.6,221.6c-0.3,0-0.5-0.1-0.5-0.4s0-0.8,0-1.3c0-0.1,0-0.2,0.2-0.2s0.2,0.1,0.2,0.2s0.1,0.1,0.1,0.2
	s0.1,0.1,0.1,0.2s-0.1,0.1-0.1,0.1s-0.1,0.1-0.1,0.2c0,0.2,0,0.3,0,0.5c0,0.1,0.1,0.1,0.1,0.2s0.1,0.1,0.1,0.2
	S75.7,221.5,75.6,221.6z"/>
<path class="st22" d="M77.8,221.5c-0.3,0-0.4-0.1-0.4-0.3v-1.5c0-0.1,0-0.2,0.2-0.2s0.2,0.1,0.2,0.1
	C77.8,220.2,77.8,220.9,77.8,221.5z"/>
<path class="st22" d="M73.3,221.6c-0.2,0-0.3-0.1-0.3-0.3c0-0.4,0-0.7,0-1.1c0-0.1,0.1-0.1,0.2-0.1s0.2,0.1,0.2,0.1
	C73.3,220.6,73.3,221.1,73.3,221.6z"/>
<path class="st22" d="M73.3,219.8c0,0-0.1,0.1-0.2,0.1c-0.1,0-0.2,0-0.2-0.2s0-0.2,0.2-0.2S73.3,219.5,73.3,219.8z"/>
<linearGradient id="SVGID_13_" gradientUnits="userSpaceOnUse" x1="34.62" y1="59" x2="511" y2="59" gradientTransform="matrix(1 0 0 -1 0 466)">
	<stop  offset="0" style="stop-color:#981869"/>
	<stop  offset="0.19" style="stop-color:#771C65"/>
	<stop  offset="0.4" style="stop-color:#591F62"/>
	<stop  offset="0.61" style="stop-color:#432260"/>
	<stop  offset="0.81" style="stop-color:#36235E"/>
	<stop  offset="1" style="stop-color:#32245E"/>
</linearGradient>
<path class="st23" d="M39.6,384.5H506c2.8,0,5,2.2,5,5v35c0,2.8-2.2,5-5,5H39.6c-2.8,0-5-2.2-5-5v-35
	C34.6,386.7,36.9,384.5,39.6,384.5z"/>
<path class="st22" d="M152.8,414.4c-0.6,0-1.3,0-1.9,0c-0.3,0-0.4-0.1-0.4-0.4c0-0.6,0-1.1,0-1.7c0-0.3,0.1-0.4,0.4-0.4
	c1.3,0,2.6,0,3.9,0c0.4,0,0.4-0.1,0.4-0.5c0-0.9,0-1.9,0-2.8c0-0.3-0.1-0.4-0.4-0.4c-1.3,0-2.5,0-3.8,0c-0.5,0-0.5,0-0.5-0.5
	s0-1.1,0-1.7c0-0.3,0.1-0.4,0.4-0.4c1.3,0,2.6,0,3.9,0c0.3,0,0.4-0.1,0.4-0.4c0-1,0-1.9,0-2.9c0-0.3-0.1-0.4-0.4-0.4h-3.8
	c-0.5,0-0.5,0-0.5-0.5s0-1.1,0-1.7c0-0.3,0.1-0.4,0.4-0.4c1.3,0,2.6,0,3.9,0c0.3,0,0.4-0.1,0.4-0.4c0-1,0-2.1,0-3.1
	c0-0.3,0.1-0.4,0.4-0.4c1.1,0,2.2,0,3.2,0c0.3,0,0.4-0.1,0.4-0.4c0-1.3,0-2.5,0-3.8c0-0.3,0.1-0.4,0.4-0.4c0.6,0,1.2,0,1.8,0
	c0.3,0,0.4,0.1,0.4,0.4c0,1,0,2.1,0,3.1c0,0.3,0,0.5,0,0.8s0.1,0.4,0.3,0.4h3.1c0.3,0,0.3-0.2,0.3-0.4c0-1.3,0-2.5,0-3.8
	c0-0.3,0.1-0.5,0.4-0.4c0.6,0,1.1,0,1.7,0c0.3,0,0.4,0.1,0.4,0.4c0,1.3,0,2.5,0,3.8c0,0.3,0.1,0.5,0.4,0.5c0.9,0,1.9,0,2.8,0
	c0.4,0,0.5-0.1,0.5-0.5c0-1.3,0-2.5,0-3.8c0-0.3,0.1-0.4,0.4-0.4c0.6,0,1.1,0,1.7,0c0.3,0,0.4,0.1,0.4,0.4c0,1.2,0,2.5,0,3.7
	c0,0.3,0.1,0.4,0.4,0.4c1,0,2.1,0,3.1,0c0.3,0,0.4,0.1,0.4,0.4c0,1,0,2.1,0,3.2c0,0.3,0.1,0.5,0.4,0.5c1.3,0,2.6,0,3.8,0
	c0.3,0,0.4,0.1,0.4,0.4c0,0.6,0,1.2,0,1.8c0,0.3-0.1,0.4-0.4,0.4h-3.8c-0.5,0-0.5,0-0.5,0.5v2.8c0,0.4,0,0.4,0.4,0.4h3.7
	c0.5,0,0.5,0,0.5,0.5v1.6c0,0.4,0,0.5-0.5,0.5c-1.3,0-2.5,0-3.8,0c-0.3,0-0.4,0.1-0.4,0.4c0,0.9,0,1.8,0,2.7c0,0.5,0,0.5,0.5,0.5
	c1.2,0,2.5,0,3.7,0c0.3,0,0.5,0.1,0.5,0.4c0,0.6,0,1.1,0,1.7c0,0.3-0.1,0.4-0.4,0.4h-3.8c-0.5,0-0.5,0-0.5,0.5v3
	c0,0.5,0,0.5-0.5,0.5h-3.1c-0.3,0-0.4,0.1-0.4,0.4c0,1.3,0,2.5,0,3.7c0,0.4-0.1,0.5-0.4,0.5c-0.5,0-1.1,0-1.6,0s-0.5,0-0.5-0.5V419
	c0-0.5,0-0.5-0.5-0.5c-0.9,0-1.9,0-2.8,0c-0.3,0-0.4,0.1-0.4,0.4c0,1.3,0,2.5,0,3.8c0,0.3-0.1,0.4-0.4,0.4c-0.5,0-1.1,0-1.6,0
	s-0.5,0-0.5-0.5c0-1.2,0-2.4,0-3.6c0-0.3-0.1-0.5-0.4-0.5c-0.9,0-1.9,0-2.8,0c-0.3,0-0.4,0.1-0.4,0.4c0,1.2,0,2.5,0,3.7
	c0,0.5,0,0.5-0.5,0.5s-1.2,0-1.7,0c-0.3,0-0.4-0.1-0.4-0.4c0-1.2,0-2.5,0-3.7c0-0.5,0-0.5-0.5-0.5h-3.1c-0.5,0-0.5,0-0.5-0.5
	c0-1,0-2.1,0-3.1c0-0.3-0.1-0.4-0.4-0.4C154.1,414.5,153.4,414.5,152.8,414.4z M166.6,398.2h-8.3c-0.5,0-0.5,0-0.5,0.5v16.5
	c0,0.5,0,0.5,0.5,0.5h16.6c0.5,0,0.5,0,0.5-0.5v-16.5c0-0.5,0-0.5-0.5-0.5H166.6z"/>
<path class="st22" d="M170.2,405.3c0.1,0.7,0.1,0.7-0.5,1c-1.6,0.8-3.4,1.1-5.2,0.9c-0.8,0-1.5-0.2-2.2-0.6
	c-0.8-0.4-1.4-1.2-1.4-2.1c0-0.9,0.4-1.8,1.1-2.4l0.1,0c-0.1,0.2-0.1,0.3-0.2,0.4c-0.4,0.6-0.6,1.3-0.5,2c0.1,0.7,0.7,1.3,1.4,1.6
	c1.1,0.4,2.2,0.5,3.4,0.3c1.3-0.1,2.7-0.5,3.9-1.1C170.1,405.3,170.1,405.3,170.2,405.3z"/>
<path class="st22" d="M167.9,410.1c-0.2,0.6-0.2,0.6-0.7,0.5c-0.6-0.2-1.2,0-1.5,0.5c-0.3,0.6-0.3,1.3,0.1,1.9
	c0.3,0.3,0.8,0.4,1.2,0.3c0.3-0.1,0.1-0.3,0.2-0.5s-0.1-0.3-0.3-0.3c-0.4,0-0.5-0.1-0.5-0.4c0-0.1,0.1-0.2,0.3-0.2
	c0.4,0,0.7,0,1.1,0c0.1,0,0.2,0.1,0.2,0.3c0,0.5,0,1,0,1.5c0,0.1-0.1,0.2-0.1,0.3c-0.9,0.4-1.9,0.3-2.7-0.3
	c-0.6-0.7-0.8-1.7-0.4-2.6c0.4-0.8,1.3-1.2,2.2-1C167.3,410,167.6,410,167.9,410.1z"/>
<path class="st22" d="M169.8,412.5l-0.6,0.9c-0.3,0.5-0.5,0.6-1.2,0.4c0.2-0.4,0.5-0.7,0.7-1.1s0.5-0.6,0.5-1s-0.3-0.6-0.5-0.9
	s-0.4-0.6-0.6-0.9c0.5-0.2,0.9-0.1,1.1,0.3c0.2,0.3,0.3,0.5,0.5,0.9c0.2-0.3,0.4-0.6,0.6-0.9c0.3-0.4,0.6-0.5,1.1-0.3
	c-0.3,0.5-0.6,0.9-0.9,1.4c-0.2,0.2-0.2,0.6,0,0.8c0,0,0,0,0,0c0.4,0.5,0.7,1.1,1.1,1.6c-0.7,0.2-0.9,0.1-1.2-0.4l-0.6-0.9
	L169.8,412.5z"/>
<path class="st22" d="M161.8,413.1c0.4,0.1,0.9,0.2,1.3,0.2c0.2,0,0.5-0.1,0.5-0.4c0,0,0,0,0,0c0.1-0.3-0.1-0.4-0.4-0.5
	s-0.6-0.1-0.8-0.2c-0.5-0.1-0.9-0.6-0.8-1.1c0,0,0,0,0,0c0-0.5,0.4-1,0.9-1.1c0.6-0.2,1.2-0.1,1.7,0.2c0.2,0.1,0.3,0.2,0.1,0.4
	s-0.1,0.4-0.4,0.3c-0.3-0.1-0.7-0.2-1-0.2c-0.3,0-0.5,0.2-0.5,0.4c0,0.3,0.1,0.4,0.4,0.5l0.9,0.3c0.5,0.1,0.8,0.5,0.8,1
	c0,0.5-0.3,0.9-0.8,1.1c-0.6,0.3-1.4,0.2-2-0.1c-0.4-0.2-0.4-0.3-0.2-0.6c0-0.1,0.1-0.1,0.1-0.2
	C161.7,413.1,161.7,413.1,161.8,413.1z"/>
<path class="st22" d="M163.2,401.2l0.3-0.1c2.1-1.2,4.6-1.6,6.9-0.9c0.8,0.2,1.5,0.9,1.7,1.7c0.2,1.2-0.4,2.4-1.6,2.8
	c-0.1-0.2-0.1-0.5,0.2-0.7c0.3-0.2,0.5-0.5,0.7-0.9c0.4-0.9,0-2-0.9-2.4c-0.1,0-0.1-0.1-0.2-0.1c-0.8-0.3-1.7-0.5-2.6-0.4
	c-1.4,0.1-2.7,0.4-4,1l-0.3,0.1L163.2,401.2z"/>
<path class="st22" d="M169,404.5c-0.4,0.5-1.1,0.5-1.6,0.1c-0.1-0.1-0.1-0.1-0.2-0.2c-0.4-0.6-0.2-1.3,0.3-1.7
	c0.2-0.1,0.4-0.2,0.6-0.2c0.6,0,1,0.4,1,1c0,0.1,0,0.1,0,0.2c-0.1,0.1-0.2,0.2-0.3,0.2c-0.3,0-0.6,0-0.9,0c-0.1,0-0.2,0.1-0.3,0.1
	s0.1,0.2,0.1,0.3c0.2,0.1,0.4,0.1,0.6,0C168.6,404.1,168.9,404.2,169,404.5C169,404.4,169,404.4,169,404.5z M168.1,403.5l0.4-0.2
	c-0.1-0.1-0.3-0.3-0.4-0.3s-0.3,0.2-0.4,0.3L168.1,403.5z"/>
<path class="st22" d="M163.6,403.6v-0.8c0-0.2,0.1-0.4,0.3-0.3s0.6,0,0.9,0c0.3,0,0.6,0.3,0.6,0.6c0,0,0,0.1,0,0.1
	c0,0.4,0,0.8,0,1.2c0,0.2-0.1,0.4-0.3,0.4s-0.3-0.2-0.3-0.4c0-0.4,0-0.7,0-1.1s-0.1-0.4-0.4-0.4s-0.3,0.2-0.3,0.4c0,0.4,0,0.8,0,1.1
	c0,0.2-0.1,0.3-0.3,0.3s-0.3-0.1-0.3-0.3S163.6,403.9,163.6,403.6L163.6,403.6z"/>
<path class="st22" d="M166.7,404.8c-0.5,0-0.8-0.2-0.8-0.6c0-0.6,0-1.3,0-1.9c0-0.2,0.1-0.3,0.3-0.3s0.3,0.1,0.3,0.3
	s0.1,0.2,0.2,0.3s0.2,0.1,0.2,0.2s-0.1,0.1-0.2,0.2s-0.2,0.2-0.2,0.3c0,0.2,0,0.5,0,0.7c0,0.1,0.1,0.2,0.2,0.3s0.2,0.2,0.2,0.3
	S166.7,404.8,166.7,404.8z"/>
<path class="st22" d="M170,404.8c-0.4,0-0.6-0.2-0.6-0.5c0-0.8,0-1.6,0-2.4c0-0.2,0.1-0.3,0.3-0.3s0.3,0.1,0.3,0.2
	C170,402.8,170,403.7,170,404.8z"/>
<path class="st22" d="M163.1,404.8c-0.3,0-0.5-0.2-0.6-0.4c0-0.5,0-1.1,0-1.6c0-0.1,0.2-0.2,0.3-0.2s0.3,0.1,0.3,0.1
	C163.1,403.4,163.1,404.1,163.1,404.8z"/>
<path class="st22" d="M163.1,402.1c-0.1,0.1-0.2,0.1-0.3,0.1c-0.2,0-0.3,0-0.3-0.3s0.1-0.3,0.3-0.3S163.1,401.7,163.1,402.1z"/>
<g class="st0">
	<path class="st3" d="M200.4,404.3c1,0,1.8,0.3,2.4,0.8c0.6,0.5,0.9,1.2,0.9,2c0,0.8-0.3,1.5-0.9,2c-0.6,0.5-1.4,0.8-2.4,0.8h-1.5
		v1.9l0.9,0.2v1h-3.6v-1l0.9-0.2v-6.2l-0.9-0.2v-1.1h0.9H200.4z M198.9,408.5h1.5c0.5,0,0.9-0.1,1.1-0.4c0.2-0.3,0.4-0.6,0.4-1
		c0-0.4-0.1-0.8-0.4-1c-0.2-0.3-0.6-0.4-1.1-0.4h-1.5V408.5z"/>
	<path class="st3" d="M204,404.8v-1.1h2.7v8.1l0.8,0.2v1h-3.4v-1l0.8-0.2v-6.9L204,404.8z"/>
</g>
<g class="st0">
	<path class="st3" d="M212.2,413c0-0.1-0.1-0.2-0.1-0.3c0-0.1-0.1-0.2-0.1-0.3c-0.2,0.2-0.5,0.4-0.8,0.6s-0.6,0.2-1,0.2
		c-0.6,0-1.1-0.2-1.5-0.5s-0.6-0.8-0.6-1.4c0-0.6,0.2-1.1,0.7-1.4c0.5-0.3,1.2-0.5,2.1-0.5h0.9v-0.6c0-0.3-0.1-0.6-0.3-0.7
		c-0.2-0.2-0.4-0.3-0.8-0.3c-0.2,0-0.4,0-0.5,0.1c-0.2,0-0.3,0.1-0.4,0.2l-0.1,0.7h-1.3l0-1.4c0.3-0.2,0.7-0.4,1.1-0.5
		c0.4-0.1,0.9-0.2,1.3-0.2c0.8,0,1.5,0.2,2,0.6c0.5,0.4,0.8,1,0.8,1.7v2.7c0,0.1,0,0.2,0,0.3c0,0.1,0,0.2,0,0.3l0.5,0.1v1H212.2z
		 M210.7,411.9c0.3,0,0.5-0.1,0.7-0.2c0.2-0.1,0.4-0.3,0.5-0.4v-1h-0.9c-0.4,0-0.7,0.1-0.8,0.3s-0.3,0.4-0.3,0.6
		c0,0.2,0.1,0.4,0.2,0.5C210.3,411.8,210.5,411.9,210.7,411.9z"/>
</g>
<g class="st0">
	<path class="st3" d="M217,405v1.6h1.1v1.2H217v3.3c0,0.3,0.1,0.4,0.2,0.5s0.2,0.2,0.4,0.2c0.1,0,0.2,0,0.3,0c0.1,0,0.2,0,0.3-0.1
		l0.1,1.3c-0.2,0.1-0.4,0.1-0.6,0.1c-0.2,0-0.4,0-0.6,0c-0.6,0-1.1-0.2-1.4-0.5c-0.3-0.3-0.5-0.9-0.5-1.6v-3.3h-1v-1.2h1V405H217z"
		/>
	<path class="st3" d="M219,412l0.8-0.2v-4h-1v-1.2h1v-0.7c0-0.7,0.2-1.3,0.6-1.7s1-0.6,1.8-0.6c0.1,0,0.3,0,0.5,0s0.3,0.1,0.5,0.1
		l-0.1,1.3c-0.1,0-0.2,0-0.3,0s-0.2,0-0.3,0c-0.3,0-0.5,0.1-0.6,0.2c-0.1,0.2-0.2,0.4-0.2,0.7v0.7h1.3v1.2h-1.3v4l0.8,0.2v1H219V412
		z"/>
	<path class="st3" d="M223.5,409.7c0-1,0.3-1.8,0.8-2.4c0.5-0.6,1.3-0.9,2.2-0.9c1,0,1.7,0.3,2.2,0.9c0.5,0.6,0.8,1.4,0.8,2.4v0.1
		c0,1-0.3,1.8-0.8,2.4c-0.5,0.6-1.3,0.9-2.2,0.9c-1,0-1.7-0.3-2.3-0.9c-0.5-0.6-0.8-1.4-0.8-2.4V409.7z M225.2,409.9
		c0,0.6,0.1,1.1,0.3,1.4c0.2,0.4,0.5,0.5,1,0.5c0.5,0,0.8-0.2,1-0.5c0.2-0.4,0.3-0.8,0.3-1.4v-0.1c0-0.6-0.1-1-0.3-1.4
		c-0.2-0.4-0.5-0.5-1-0.5c-0.5,0-0.8,0.2-1,0.5c-0.2,0.4-0.3,0.8-0.3,1.4V409.9z"/>
	<path class="st3" d="M230.5,412l0.8-0.2v-4l-0.9-0.2v-1.1h2.6l0.1,0.9c0.2-0.3,0.3-0.6,0.6-0.8c0.2-0.2,0.5-0.3,0.8-0.3
		c0.1,0,0.2,0,0.3,0c0.1,0,0.2,0,0.3,0.1l-0.2,1.6l-0.7,0c-0.3,0-0.5,0-0.6,0.1c-0.2,0.1-0.3,0.2-0.4,0.4v3.1l0.8,0.2v1h-3.4V412z"
		/>
	<path class="st3" d="M235.3,407.6v-1.1h2.6l0.1,0.9c0.2-0.3,0.5-0.6,0.8-0.7c0.3-0.2,0.7-0.3,1.1-0.3c0.4,0,0.8,0.1,1.1,0.3
		c0.3,0.2,0.5,0.5,0.7,0.8c0.2-0.3,0.5-0.6,0.8-0.8s0.7-0.3,1.1-0.3c0.6,0,1.1,0.2,1.5,0.7c0.4,0.4,0.6,1.1,0.6,2v2.7l0.8,0.2v1H243
		v-1l0.8-0.2v-2.7c0-0.5-0.1-0.8-0.2-1c-0.2-0.2-0.4-0.3-0.7-0.3c-0.2,0-0.5,0.1-0.6,0.2c-0.2,0.1-0.3,0.3-0.4,0.5
		c0,0.1,0,0.1,0,0.2c0,0.1,0,0.1,0,0.2v3l0.7,0.2v1h-3.1v-1l0.7-0.2v-2.7c0-0.5-0.1-0.8-0.2-1c-0.2-0.2-0.4-0.3-0.7-0.3
		c-0.2,0-0.4,0-0.6,0.1c-0.2,0.1-0.3,0.2-0.4,0.4v3.5l0.8,0.2v1h-3.3v-1l0.8-0.2v-4L235.3,407.6z"/>
</g>
<g class="st0">
	<path class="st3" d="M252.9,405.1v-0.8h3.1v0.8l-1,0.2v6.9l1,0.2v0.8h-3.1v-0.8l1-0.2v-6.9L252.9,405.1z"/>
	<path class="st3" d="M256.8,412.3l1-0.2v-4.6l-1-0.2v-0.8h2l0.1,1c0.2-0.3,0.5-0.6,0.8-0.8c0.3-0.2,0.7-0.3,1.1-0.3
		c0.7,0,1.2,0.2,1.6,0.6s0.6,1,0.6,1.9v3.2l1,0.2v0.8h-3.1v-0.8l1-0.2V409c0-0.6-0.1-1-0.3-1.2c-0.2-0.2-0.6-0.4-1-0.4
		c-0.3,0-0.6,0.1-0.9,0.2s-0.5,0.4-0.6,0.7v3.8l1,0.2v0.8h-3.1V412.3z"/>
	<path class="st3" d="M267,405v1.6h1.2v0.9H267v3.9c0,0.3,0.1,0.5,0.2,0.6c0.1,0.1,0.3,0.2,0.5,0.2c0.1,0,0.2,0,0.3,0
		c0.1,0,0.2,0,0.3-0.1l0.2,0.8c-0.1,0.1-0.3,0.1-0.5,0.2s-0.4,0.1-0.6,0.1c-0.5,0-0.9-0.1-1.1-0.4s-0.4-0.7-0.4-1.4v-3.9h-1v-0.9h1
		V405H267z"/>
	<path class="st3" d="M272.3,413.2c-0.9,0-1.6-0.3-2.1-0.9c-0.5-0.6-0.8-1.4-0.8-2.3v-0.3c0-0.9,0.3-1.7,0.8-2.3
		c0.5-0.6,1.2-0.9,1.9-0.9c0.9,0,1.5,0.3,2,0.8c0.4,0.5,0.7,1.2,0.7,2.1v0.7h-4.2l0,0c0,0.6,0.2,1.1,0.5,1.5s0.7,0.6,1.3,0.6
		c0.4,0,0.7-0.1,1-0.2c0.3-0.1,0.6-0.3,0.8-0.5l0.5,0.8c-0.2,0.2-0.5,0.4-0.9,0.6C273.3,413.1,272.9,413.2,272.3,413.2z
		 M272.2,407.4c-0.4,0-0.7,0.2-1,0.5c-0.3,0.3-0.5,0.8-0.5,1.3l0,0h3V409c0-0.5-0.1-0.8-0.4-1.2C273,407.5,272.6,407.4,272.2,407.4z
		"/>
	<path class="st3" d="M275.8,404.5v-0.8h2.2v8.4l1,0.2v0.8h-3.1v-0.8l1-0.2v-7.5L275.8,404.5z"/>
	<path class="st3" d="M289.5,407h-0.8l-0.2-1.2c-0.2-0.2-0.4-0.3-0.7-0.5c-0.3-0.1-0.6-0.2-1-0.2c-0.9,0-1.6,0.3-2.1,1
		c-0.5,0.7-0.7,1.5-0.7,2.5v0.1c0,1,0.2,1.8,0.7,2.5c0.5,0.7,1.1,1,2,1c0.4,0,0.8-0.1,1.1-0.2c0.3-0.1,0.6-0.3,0.7-0.5l0.2-1.2h0.8
		v1.5c-0.3,0.3-0.6,0.6-1.1,0.9s-1.1,0.4-1.7,0.4c-1.1,0-2.1-0.4-2.8-1.3c-0.7-0.8-1.1-1.9-1.1-3.2v-0.1c0-1.3,0.4-2.3,1.1-3.2
		c0.7-0.8,1.6-1.3,2.8-1.3c0.7,0,1.2,0.1,1.7,0.4c0.5,0.3,0.9,0.5,1.1,0.9V407z"/>
	<path class="st3" d="M294.6,404.3c0.9,0,1.7,0.2,2.2,0.7c0.5,0.5,0.8,1.1,0.8,1.9c0,0.8-0.3,1.4-0.8,1.9c-0.5,0.5-1.2,0.7-2.2,0.7
		h-1.8v2.6l1,0.2v0.8h-3.1v-0.8l1-0.2v-6.9l-1-0.2v-0.8h1H294.6z M292.8,408.6h1.8c0.6,0,1-0.2,1.3-0.5s0.4-0.7,0.4-1.2
		s-0.1-0.9-0.4-1.2c-0.3-0.3-0.7-0.5-1.3-0.5h-1.8V408.6z"/>
	<path class="st3" d="M301.5,404.3v0.8l-1,0.2v5c0,0.7,0.2,1.2,0.6,1.5c0.4,0.3,0.9,0.5,1.5,0.5c0.6,0,1.2-0.2,1.6-0.5
		c0.4-0.3,0.6-0.8,0.6-1.5v-5l-1-0.2v-0.8h2.2h1v0.8l-1,0.2v5c0,0.9-0.3,1.7-0.9,2.2c-0.6,0.5-1.4,0.8-2.4,0.8c-1,0-1.7-0.3-2.3-0.8
		c-0.6-0.5-0.9-1.2-0.9-2.2v-5l-1-0.2v-0.8h1H301.5z"/>
	<path class="st3" d="M313.1,407.3l-0.7,0.1l0.8,3.2l0.1,0.8h0l0.2-0.8l1.3-4.1h0.9l1.3,4.1l0.2,0.9h0l0.2-0.9l0.8-3.2l-0.8-0.1
		v-0.8h2.5v0.8l-0.6,0.1l-1.6,5.6h-1l-1.3-3.9l-0.3-1.1l0,0l-0.3,1.1l-1.2,3.9h-1l-1.6-5.6l-0.6-0.1v-0.8h2.5V407.3z"/>
	<path class="st3" d="M320.9,412.3l1-0.2v-4.6l-1-0.2v-0.8h2.2v5.5l1,0.2v0.8h-3.1V412.3z M323,404.9h-1.2v-1.2h1.2V404.9z"/>
	<path class="st3" d="M327,405v1.6h1.2v0.9H327v3.9c0,0.3,0.1,0.5,0.2,0.6c0.1,0.1,0.3,0.2,0.5,0.2c0.1,0,0.2,0,0.3,0
		c0.1,0,0.2,0,0.3-0.1l0.2,0.8c-0.1,0.1-0.3,0.1-0.5,0.2s-0.4,0.1-0.6,0.1c-0.5,0-0.9-0.1-1.1-0.4s-0.4-0.7-0.4-1.4v-3.9h-1v-0.9h1
		V405H327z"/>
	<path class="st3" d="M329.2,412.3l1-0.2v-7.5l-1-0.2v-0.8h2.2v3.7c0.2-0.3,0.5-0.6,0.8-0.7c0.3-0.2,0.7-0.3,1.1-0.3
		c0.7,0,1.2,0.2,1.6,0.6c0.4,0.4,0.6,1.1,0.6,1.9v3.1l1,0.2v0.8h-3.1v-0.8l1-0.2V409c0-0.5-0.1-0.9-0.3-1.2c-0.2-0.3-0.6-0.4-1-0.4
		c-0.3,0-0.6,0.1-0.9,0.2s-0.5,0.4-0.7,0.6v3.9l1,0.2v0.8h-3.1V412.3z"/>
	<path class="st3" d="M346.5,406.9h-0.9l-0.2-1.2c-0.2-0.2-0.4-0.3-0.7-0.4s-0.6-0.1-1-0.1c-0.6,0-1.1,0.1-1.4,0.4
		c-0.3,0.3-0.5,0.6-0.5,1c0,0.4,0.2,0.7,0.5,0.9s0.9,0.5,1.7,0.7c0.9,0.2,1.6,0.6,2.1,1s0.7,1,0.7,1.6c0,0.7-0.3,1.3-0.9,1.7
		c-0.6,0.4-1.3,0.6-2.2,0.6c-0.7,0-1.3-0.1-1.8-0.3c-0.5-0.2-0.9-0.5-1.3-0.9v-1.6h0.9l0.2,1.2c0.2,0.2,0.5,0.3,0.8,0.5
		c0.3,0.1,0.7,0.2,1.1,0.2c0.6,0,1.1-0.1,1.4-0.4c0.3-0.3,0.5-0.6,0.5-1c0-0.4-0.1-0.7-0.4-1c-0.3-0.3-0.8-0.5-1.6-0.7
		c-0.9-0.2-1.6-0.5-2.2-1c-0.5-0.4-0.8-1-0.8-1.6c0-0.7,0.3-1.2,0.9-1.7c0.6-0.5,1.3-0.7,2.3-0.7c0.6,0,1.2,0.1,1.7,0.3
		s0.9,0.5,1.2,0.8V406.9z"/>
	<path class="st3" d="M354.6,412.1c-0.3,0.3-0.6,0.5-1.1,0.8c-0.5,0.2-1.1,0.4-1.9,0.4c-1.2,0-2.1-0.4-2.8-1.2
		c-0.7-0.8-1.1-1.9-1.1-3.2v-0.1c0-1.3,0.4-2.4,1.1-3.2c0.7-0.8,1.7-1.2,2.9-1.2c0.6,0,1.2,0.1,1.7,0.3c0.5,0.2,0.9,0.5,1.2,0.8v1.6
		h-0.8l-0.3-1.2c-0.2-0.2-0.4-0.3-0.7-0.4c-0.3-0.1-0.6-0.2-1-0.2c-0.9,0-1.7,0.3-2.2,1s-0.8,1.5-0.8,2.5v0.2c0,1,0.2,1.9,0.7,2.5
		s1.2,1,2,1c0.5,0,0.9,0,1.2-0.1s0.5-0.2,0.7-0.3v-1.9l-1.4-0.1v-0.9h2.6V412.1z"/>
	<path class="st3" d="M355.8,412.3l0.8-0.1l2.5-3.5l-2.4-3.4l-0.8-0.1v-0.8h2.8v0.8l-0.7,0.1l1.7,2.6l1.8-2.6l-0.7-0.1v-0.8h2.8v0.8
		l-0.8,0.1l-2.4,3.4l2.5,3.5l0.8,0.1v0.8h-2.8v-0.8l0.7-0.1l-1.8-2.7l-1.8,2.7l0.7,0.1v0.8h-2.8V412.3z"/>
</g>
<g class="st0">
	<path class="st3" d="M195.1,349.4v-1.1h3.6v1.1l-0.9,0.2v2.5h3.5v-2.5l-0.9-0.2v-1.1h0.9h1.7h0.9v1.1l-0.9,0.2v6.2l0.9,0.2v1h-3.6
		v-1l0.9-0.2v-2.4h-3.5v2.4l0.9,0.2v1h-3.6v-1l0.9-0.2v-6.2L195.1,349.4z"/>
	<path class="st3" d="M211.4,351.6l-0.6,0.1l-2.4,6.3c-0.2,0.5-0.4,0.9-0.8,1.2s-0.8,0.5-1.4,0.5c-0.1,0-0.3,0-0.4,0
		c-0.1,0-0.3-0.1-0.5-0.1l0.2-1.3c0.1,0,0.1,0,0.2,0c0.1,0,0.1,0,0.2,0c0.3,0,0.5-0.1,0.7-0.2c0.2-0.1,0.3-0.3,0.4-0.5l0.2-0.5
		l-2.1-5.3l-0.6-0.1v-1.1h3.2v1.1l-0.7,0.1l0.9,2.6l0.1,0.5l0,0l1-3.1l-0.7-0.1v-1.1h3.2V351.6z"/>
	<path class="st3" d="M211.8,351.6v-1.1h2.5l0.1,0.8c0.2-0.3,0.4-0.5,0.7-0.6c0.3-0.2,0.6-0.2,0.9-0.2c0.8,0,1.4,0.3,1.9,0.9
		c0.4,0.6,0.7,1.4,0.7,2.5v0.1c0,1-0.2,1.7-0.7,2.3s-1.1,0.9-1.9,0.9c-0.3,0-0.6-0.1-0.9-0.2c-0.3-0.1-0.5-0.3-0.7-0.6v1.9l0.8,0.2
		v1.1h-3.4v-1.1l0.8-0.2v-6.5L211.8,351.6z M216.9,353.9c0-0.6-0.1-1.1-0.3-1.5c-0.2-0.4-0.5-0.6-0.9-0.6c-0.3,0-0.5,0.1-0.7,0.2
		c-0.2,0.1-0.3,0.3-0.4,0.5v2.8c0.1,0.2,0.3,0.3,0.4,0.4c0.2,0.1,0.4,0.1,0.7,0.1c0.4,0,0.7-0.2,0.9-0.5c0.2-0.3,0.3-0.8,0.3-1.3
		V353.9z"/>
	<path class="st3" d="M222.5,357.2c-0.9,0-1.7-0.3-2.2-0.9c-0.6-0.6-0.8-1.4-0.8-2.3v-0.2c0-1,0.3-1.8,0.8-2.4
		c0.5-0.6,1.2-0.9,2.1-0.9c0.9,0,1.5,0.3,2,0.8c0.5,0.5,0.7,1.2,0.7,2.1v1h-3.9l0,0c0,0.4,0.2,0.8,0.4,1.1c0.3,0.3,0.6,0.4,1,0.4
		c0.4,0,0.7,0,1-0.1c0.3-0.1,0.5-0.2,0.8-0.4l0.5,1.1c-0.3,0.2-0.6,0.4-1,0.5S223,357.2,222.5,357.2z M222.3,351.8
		c-0.3,0-0.6,0.1-0.8,0.4c-0.2,0.2-0.3,0.6-0.3,1l0,0h2.1V353c0-0.4-0.1-0.7-0.3-0.9C222.9,351.9,222.7,351.8,222.3,351.8z"/>
</g>
<g class="st0">
	<path class="st3" d="M226,356l0.8-0.2v-4l-0.9-0.2v-1.1h2.6l0.1,0.9c0.2-0.3,0.3-0.6,0.6-0.8c0.2-0.2,0.5-0.3,0.8-0.3
		c0.1,0,0.2,0,0.3,0c0.1,0,0.2,0,0.3,0.1l-0.2,1.6l-0.7,0c-0.3,0-0.5,0-0.6,0.1c-0.2,0.1-0.3,0.2-0.4,0.4v3.1l0.8,0.2v1H226V356z"/>
</g>
<g class="st0">
	<path class="st3" d="M233.9,351.6l-0.6,0.1l0.9,2.9l0.1,0.6h0l0.1-0.6l0.8-2.9l-0.6-0.1v-1.1h2.9v1.1l-0.6,0.1l-1.9,5.3h-1.7
		l-1.9-5.3l-0.6-0.1v-1.1h2.9V351.6z"/>
	<path class="st3" d="M238.1,356l0.8-0.2v-4l-0.9-0.2v-1.1h2.7v5.2l0.8,0.2v1h-3.4V356z M240.7,349h-1.7v-1.3h1.7V349z"/>
	<path class="st3" d="M247.4,352.8h-1.2L246,352c-0.1-0.1-0.3-0.2-0.5-0.2c-0.2-0.1-0.4-0.1-0.6-0.1c-0.3,0-0.5,0.1-0.7,0.2
		s-0.3,0.3-0.3,0.5c0,0.2,0.1,0.4,0.3,0.5c0.2,0.1,0.5,0.2,1,0.3c0.8,0.2,1.4,0.4,1.8,0.7c0.4,0.3,0.6,0.7,0.6,1.3
		c0,0.6-0.3,1.1-0.8,1.4c-0.5,0.4-1.2,0.6-2,0.6c-0.5,0-1-0.1-1.4-0.2s-0.8-0.4-1.1-0.6l0-1.5h1.2l0.2,0.8c0.1,0.1,0.2,0.2,0.4,0.2
		c0.2,0,0.4,0.1,0.6,0.1c0.4,0,0.6-0.1,0.8-0.2c0.2-0.1,0.3-0.3,0.3-0.5c0-0.2-0.1-0.4-0.3-0.5c-0.2-0.1-0.5-0.3-1-0.4
		c-0.8-0.2-1.3-0.4-1.7-0.7c-0.4-0.3-0.6-0.7-0.6-1.2c0-0.5,0.2-1,0.7-1.4s1.1-0.6,1.9-0.6c0.5,0,1,0.1,1.4,0.2s0.8,0.3,1.1,0.5
		L247.4,352.8z"/>
	<path class="st3" d="M248.4,353.7c0-1,0.3-1.8,0.8-2.4c0.5-0.6,1.3-0.9,2.2-0.9c1,0,1.7,0.3,2.2,0.9c0.5,0.6,0.8,1.4,0.8,2.4v0.1
		c0,1-0.3,1.8-0.8,2.4c-0.5,0.6-1.3,0.9-2.2,0.9c-1,0-1.7-0.3-2.3-0.9c-0.5-0.6-0.8-1.4-0.8-2.4V353.7z M250.1,353.9
		c0,0.6,0.1,1.1,0.3,1.4c0.2,0.4,0.5,0.5,1,0.5c0.5,0,0.8-0.2,1-0.5c0.2-0.4,0.3-0.8,0.3-1.4v-0.1c0-0.6-0.1-1-0.3-1.4
		c-0.2-0.4-0.5-0.5-1-0.5c-0.5,0-0.8,0.2-1,0.5c-0.2,0.4-0.3,0.8-0.3,1.4V353.9z"/>
	<path class="st3" d="M255.4,356l0.8-0.2v-4l-0.9-0.2v-1.1h2.6l0.1,0.9c0.2-0.3,0.3-0.6,0.6-0.8c0.2-0.2,0.5-0.3,0.8-0.3
		c0.1,0,0.2,0,0.3,0c0.1,0,0.2,0,0.3,0.1l-0.2,1.6l-0.7,0c-0.3,0-0.5,0-0.6,0.1c-0.2,0.1-0.3,0.2-0.4,0.4v3.1l0.8,0.2v1h-3.4V356z"
		/>
</g>
<g class="st0">
	<path class="st3" d="M265.9,351.3l-0.7,0.1l0.8,3.2l0.1,0.8h0l0.2-0.8l1.3-4.1h0.9l1.3,4.1l0.2,0.9h0l0.2-0.9l0.8-3.2l-0.8-0.1
		v-0.8h2.5v0.8l-0.6,0.1l-1.6,5.6h-1l-1.3-3.9l-0.3-1.1l0,0l-0.3,1.1l-1.2,3.9h-1l-1.6-5.6l-0.6-0.1v-0.8h2.5V351.3z"/>
	<path class="st3" d="M273.7,356.3l1-0.2v-4.6l-1-0.2v-0.8h2.2v5.5l1,0.2v0.8h-3.1V356.3z M275.8,348.9h-1.2v-1.2h1.2V348.9z"/>
	<path class="st3" d="M279.8,349v1.6h1.2v0.9h-1.2v3.9c0,0.3,0.1,0.5,0.2,0.6c0.1,0.1,0.3,0.2,0.5,0.2c0.1,0,0.2,0,0.3,0
		c0.1,0,0.2,0,0.3-0.1l0.2,0.8c-0.1,0.1-0.3,0.1-0.5,0.2c-0.2,0-0.4,0.1-0.6,0.1c-0.5,0-0.9-0.1-1.1-0.4c-0.3-0.3-0.4-0.7-0.4-1.4
		v-3.9h-1v-0.9h1V349H279.8z"/>
	<path class="st3" d="M282,356.3l1-0.2v-7.5l-1-0.2v-0.8h2.2v3.7c0.2-0.3,0.5-0.6,0.8-0.7c0.3-0.2,0.7-0.3,1.1-0.3
		c0.7,0,1.2,0.2,1.6,0.6c0.4,0.4,0.6,1.1,0.6,1.9v3.1l1,0.2v0.8h-3.1v-0.8l1-0.2V353c0-0.5-0.1-0.9-0.3-1.2c-0.2-0.3-0.6-0.4-1-0.4
		c-0.3,0-0.6,0.1-0.9,0.2c-0.3,0.2-0.5,0.4-0.7,0.6v3.9l1,0.2v0.8H282V356.3z"/>
	<path class="st3" d="M299.3,350.9h-0.9l-0.2-1.2c-0.2-0.2-0.4-0.3-0.7-0.4s-0.6-0.1-1-0.1c-0.6,0-1.1,0.1-1.4,0.4
		c-0.3,0.3-0.5,0.6-0.5,1c0,0.4,0.2,0.7,0.5,0.9s0.9,0.5,1.7,0.7c0.9,0.2,1.6,0.6,2.1,1s0.7,1,0.7,1.6c0,0.7-0.3,1.3-0.9,1.7
		c-0.6,0.4-1.3,0.6-2.2,0.6c-0.7,0-1.3-0.1-1.8-0.3c-0.5-0.2-0.9-0.5-1.3-0.9v-1.6h0.9l0.2,1.2c0.2,0.2,0.5,0.3,0.8,0.5
		c0.3,0.1,0.7,0.2,1.1,0.2c0.6,0,1.1-0.1,1.4-0.4c0.3-0.3,0.5-0.6,0.5-1c0-0.4-0.1-0.7-0.4-1c-0.3-0.3-0.8-0.5-1.6-0.7
		c-0.9-0.2-1.6-0.5-2.2-1c-0.5-0.4-0.8-1-0.8-1.6c0-0.7,0.3-1.2,0.9-1.7c0.6-0.5,1.3-0.7,2.3-0.7c0.6,0,1.2,0.1,1.7,0.3
		s0.9,0.5,1.2,0.8V350.9z"/>
	<path class="st3" d="M307.4,356.1c-0.3,0.3-0.6,0.5-1.1,0.8c-0.5,0.2-1.1,0.4-1.9,0.4c-1.2,0-2.1-0.4-2.8-1.2s-1.1-1.9-1.1-3.2
		v-0.1c0-1.3,0.4-2.4,1.1-3.2c0.7-0.8,1.7-1.2,2.9-1.2c0.6,0,1.2,0.1,1.7,0.3s0.9,0.5,1.2,0.8v1.6h-0.8l-0.3-1.2
		c-0.2-0.2-0.4-0.3-0.7-0.4c-0.3-0.1-0.6-0.2-1-0.2c-0.9,0-1.7,0.3-2.2,1s-0.8,1.5-0.8,2.5v0.2c0,1,0.2,1.9,0.7,2.5s1.2,1,2,1
		c0.5,0,0.9,0,1.2-0.1c0.3-0.1,0.5-0.2,0.7-0.3v-1.9l-1.4-0.1v-0.9h2.6V356.1z"/>
	<path class="st3" d="M308.6,356.3l0.8-0.1l2.5-3.5l-2.4-3.4l-0.8-0.1v-0.8h2.8v0.8l-0.7,0.1l1.7,2.6l1.8-2.6l-0.7-0.1v-0.8h2.8v0.8
		l-0.8,0.1l-2.4,3.4l2.5,3.5l0.8,0.1v0.8h-2.8v-0.8l0.7-0.1l-1.8-2.7l-1.8,2.7l0.7,0.1v0.8h-2.8V356.3z"/>
	<path class="st3" d="M326.5,350.9h-0.9l-0.2-1.2c-0.2-0.2-0.4-0.3-0.7-0.4s-0.6-0.1-1-0.1c-0.6,0-1.1,0.1-1.4,0.4
		c-0.3,0.3-0.5,0.6-0.5,1c0,0.4,0.2,0.7,0.5,0.9c0.3,0.3,0.9,0.5,1.7,0.7c0.9,0.2,1.6,0.6,2.1,1c0.5,0.4,0.7,1,0.7,1.6
		c0,0.7-0.3,1.3-0.9,1.7c-0.6,0.4-1.3,0.6-2.2,0.6c-0.7,0-1.3-0.1-1.8-0.3c-0.5-0.2-0.9-0.5-1.3-0.9v-1.6h0.9l0.2,1.2
		c0.2,0.2,0.5,0.3,0.8,0.5c0.3,0.1,0.7,0.2,1.1,0.2c0.6,0,1.1-0.1,1.4-0.4c0.3-0.3,0.5-0.6,0.5-1c0-0.4-0.1-0.7-0.4-1
		c-0.3-0.3-0.8-0.5-1.6-0.7c-0.9-0.2-1.6-0.5-2.2-1c-0.5-0.4-0.8-1-0.8-1.6c0-0.7,0.3-1.2,0.9-1.7c0.6-0.5,1.3-0.7,2.3-0.7
		c0.6,0,1.2,0.1,1.7,0.3c0.5,0.2,0.9,0.5,1.2,0.8V350.9z"/>
	<path class="st3" d="M332.4,356.1c-0.2,0.3-0.5,0.6-0.8,0.8c-0.3,0.2-0.7,0.3-1.1,0.3c-0.7,0-1.2-0.2-1.6-0.7s-0.6-1.2-0.6-2.1
		v-2.9l-0.7-0.2v-0.8h0.7h1.2v3.8c0,0.7,0.1,1.2,0.3,1.4c0.2,0.3,0.5,0.4,1,0.4c0.4,0,0.8-0.1,1-0.3c0.3-0.2,0.5-0.4,0.6-0.7v-3.7
		l-0.9-0.2v-0.8h0.9h1.2v5.5l0.7,0.2v0.8h-1.8L332.4,356.1z"/>
	<path class="st3" d="M335.1,358.8l1-0.2v-7.1l-1-0.2v-0.8h2l0.1,0.8c0.2-0.3,0.5-0.5,0.8-0.7c0.3-0.2,0.7-0.2,1.1-0.2
		c0.8,0,1.4,0.3,1.9,1s0.7,1.5,0.7,2.5v0.1c0,0.9-0.2,1.7-0.7,2.3c-0.4,0.6-1.1,0.9-1.8,0.9c-0.4,0-0.7-0.1-1-0.2
		c-0.3-0.1-0.6-0.3-0.8-0.6v2.2l1,0.2v0.8h-3.1V358.8z M340.4,353.9c0-0.7-0.1-1.3-0.4-1.8c-0.3-0.5-0.7-0.7-1.3-0.7
		c-0.3,0-0.6,0.1-0.9,0.2c-0.2,0.2-0.4,0.4-0.6,0.6v3.1c0.1,0.3,0.3,0.5,0.6,0.6c0.2,0.1,0.5,0.2,0.9,0.2c0.6,0,1-0.2,1.3-0.6
		c0.3-0.4,0.4-0.9,0.4-1.6V353.9z"/>
	<path class="st3" d="M342.5,358.8l1-0.2v-7.1l-1-0.2v-0.8h2l0.1,0.8c0.2-0.3,0.5-0.5,0.8-0.7c0.3-0.2,0.7-0.2,1.1-0.2
		c0.8,0,1.4,0.3,1.9,1s0.7,1.5,0.7,2.5v0.1c0,0.9-0.2,1.7-0.7,2.3c-0.4,0.6-1.1,0.9-1.8,0.9c-0.4,0-0.7-0.1-1-0.2
		c-0.3-0.1-0.6-0.3-0.8-0.6v2.2l1,0.2v0.8h-3.1V358.8z M347.8,353.9c0-0.7-0.1-1.3-0.4-1.8c-0.3-0.5-0.7-0.7-1.3-0.7
		c-0.3,0-0.6,0.1-0.9,0.2c-0.2,0.2-0.4,0.4-0.6,0.6v3.1c0.1,0.3,0.3,0.5,0.6,0.6c0.2,0.1,0.5,0.2,0.9,0.2c0.6,0,1-0.2,1.3-0.6
		c0.3-0.4,0.4-0.9,0.4-1.6V353.9z"/>
	<path class="st3" d="M350,353.7c0-1,0.3-1.7,0.8-2.4c0.5-0.6,1.2-0.9,2.1-0.9c0.9,0,1.6,0.3,2.1,0.9c0.5,0.6,0.8,1.4,0.8,2.4v0.1
		c0,1-0.3,1.8-0.8,2.4s-1.2,0.9-2.1,0.9c-0.9,0-1.6-0.3-2.1-0.9s-0.8-1.4-0.8-2.4V353.7z M351.2,353.9c0,0.7,0.1,1.3,0.4,1.7
		s0.7,0.7,1.3,0.7c0.6,0,1-0.2,1.3-0.7s0.4-1,0.4-1.7v-0.1c0-0.7-0.1-1.2-0.4-1.7s-0.7-0.7-1.3-0.7c-0.6,0-1,0.2-1.3,0.7
		s-0.4,1-0.4,1.7V353.9z"/>
</g>
<g class="st0">
	<path class="st3" d="M356.9,351.3v-0.8h2l0.1,0.9c0.2-0.3,0.4-0.6,0.7-0.8c0.3-0.2,0.6-0.3,0.9-0.3c0.1,0,0.2,0,0.3,0
		c0.1,0,0.2,0,0.2,0l-0.2,1.1l-0.7,0c-0.3,0-0.6,0.1-0.8,0.2s-0.4,0.3-0.5,0.6v3.7l1,0.2v0.8h-3.1v-0.8l1-0.2v-4.6L356.9,351.3z"/>
</g>
<g class="st0">
	<path class="st3" d="M364.2,349v1.6h1.2v0.9h-1.2v3.9c0,0.3,0.1,0.5,0.2,0.6c0.1,0.1,0.3,0.2,0.5,0.2c0.1,0,0.2,0,0.3,0
		c0.1,0,0.2,0,0.3-0.1l0.2,0.8c-0.1,0.1-0.3,0.1-0.5,0.2s-0.4,0.1-0.6,0.1c-0.5,0-0.9-0.1-1.1-0.4s-0.4-0.7-0.4-1.4v-3.9h-1v-0.9h1
		V349H364.2z"/>
</g>
</svg>
