<svg xmlns="http://www.w3.org/2000/svg" xmlns:xlink="http://www.w3.org/1999/xlink" viewBox="0 0 629.47 191.41"><defs><style>.cls-1{fill:url(#Unbenannter_Verlauf_12);}.cls-2{fill:#518ecb;}.cls-3{opacity:0.4;}.cls-4,.cls-7{fill:none;stroke-linecap:round;stroke-linejoin:round;stroke-width:2px;}.cls-4{stroke:#ffcc03;}.cls-5{fill:url(#Unbenannter_Verlauf_12-2);}.cls-6{fill:#32245e;}.cls-7{stroke:#981869;}.cls-8{fill:#981869;}</style><linearGradient id="Unbenannter_Verlauf_12" x1="185.02" y1="66.39" x2="220.73" y2="66.39" gradientUnits="userSpaceOnUse"><stop offset="0" stop-color="#981869"/><stop offset="0.19" stop-color="#771c65"/><stop offset="0.4" stop-color="#591f62"/><stop offset="0.61" stop-color="#432260"/><stop offset="0.81" stop-color="#36235e"/><stop offset="1" stop-color="#32245e"/></linearGradient><linearGradient id="Unbenannter_Verlauf_12-2" x1="554.93" y1="65.39" x2="590.64" y2="65.39" xlink:href="#Unbenannter_Verlauf_12"/></defs><g id="Ebene_2" data-name="Ebene 2"><g id="Ebene_1-2" data-name="Ebene 1"><polygon class="cls-1" points="202.96 45.74 185.02 56.06 185.02 76.71 202.96 87.04 220.73 76.71 220.73 56.06 202.96 45.74"/><circle class="cls-2" cx="202.99" cy="66.39" r="10.26"/><circle class="cls-2" cx="20.26" cy="66.39" r="10.26"/><g class="cls-3"><polygon class="cls-4" points="628.47 97.58 572.52 129.78 517.11 97.58 572.52 65.39 628.47 97.58"/><polygon class="cls-4" points="628.47 33.19 628.47 97.58 572.52 65.39 572.52 1 628.47 33.19"/><polygon class="cls-4" points="572.52 1 572.52 65.39 517.11 97.58 517.11 33.19 572.52 1"/></g><polygon class="cls-5" points="572.87 44.74 554.93 55.06 554.93 75.71 572.87 86.04 590.64 75.71 590.64 55.06 572.87 44.74"/><circle class="cls-2" cx="572.91" cy="65.39" r="10.26"/><polygon class="cls-4" points="517.11 33.19 573.05 1 628.47 33.19 573.05 65.39 517.11 33.19"/><polygon class="cls-4" points="517.11 97.58 517.11 33.19 573.05 65.39 573.05 129.78 517.11 97.58"/><polygon class="cls-4" points="573.05 129.78 573.05 65.39 628.47 33.19 628.47 97.58 573.05 129.78"/><g class="cls-3"><polygon class="cls-4" points="404.41 79.85 379.28 94.3 354.4 79.85 379.28 65.39 404.41 79.85"/><polygon class="cls-4" points="404.41 50.93 404.41 79.85 379.28 65.39 379.28 36.47 404.41 50.93"/><polygon class="cls-4" points="379.28 36.47 379.28 65.39 354.4 79.85 354.4 50.93 379.28 36.47"/></g><polygon class="cls-4" points="354.4 50.93 379.52 36.47 404.41 50.93 379.52 65.39 354.4 50.93"/><polygon class="cls-4" points="354.4 79.85 354.4 50.93 379.52 65.39 379.52 94.3 354.4 79.85"/><polygon class="cls-4" points="379.52 94.3 379.52 65.39 404.41 50.93 404.41 79.85 379.52 94.3"/><path class="cls-6" d="M196.62,125.69V125l1-.16v-6.72l-1-.17v-.74h6.32v2H202l-.12-1.16h-3.16v2.78h3.15v.9h-3.15v3.09h3.34l.13-1.18h.92v2Z" transform="translate(-19.57)"/><path class="cls-6" d="M204.24,125.69V125l.95-.16v-4.53l-.95-.17v-.74h2l.08.94a2.38,2.38,0,0,1,.8-.78,2.17,2.17,0,0,1,1.08-.28,2.06,2.06,0,0,1,1.59.6,2.62,2.62,0,0,1,.57,1.86v3.1l.95.16v.74h-3.06V125l1-.16v-3.08a1.73,1.73,0,0,0-.33-1.19,1.34,1.34,0,0,0-1-.35,1.61,1.61,0,0,0-.88.24,1.79,1.79,0,0,0-.62.66v3.72l1,.16v.74Z" transform="translate(-19.57)"/><path class="cls-6" d="M214.91,125.81a2.64,2.64,0,0,1-2.49-1.52,3.71,3.71,0,0,1-.35-1.65v-.24a3.67,3.67,0,0,1,.34-1.62,2.66,2.66,0,0,1,2.5-1.55,3.53,3.53,0,0,1,1.35.25,2.84,2.84,0,0,1,1,.7l0,1.52h-.9l-.2-1.11a1.75,1.75,0,0,0-.49-.33,1.92,1.92,0,0,0-.71-.12,1.39,1.39,0,0,0-.9.31,2,2,0,0,0-.61.81,3,3,0,0,0-.22,1.14v.24a3.14,3.14,0,0,0,.21,1.2,1.64,1.64,0,0,0,.58.79,1.44,1.44,0,0,0,.9.28,1.49,1.49,0,0,0,1-.32,1.39,1.39,0,0,0,.47-.89h1v0a2.22,2.22,0,0,1-.32,1,2.14,2.14,0,0,1-.84.76A2.7,2.7,0,0,1,214.91,125.81Z" transform="translate(-19.57)"/><path class="cls-6" d="M218.24,125.69V125l.95-.16v-7.33l-.95-.17v-.74h2.11v8.24l1,.16v.74Z" transform="translate(-19.57)"/><path class="cls-6" d="M224.17,125.81a2.11,2.11,0,0,1-1.5-.48,1.79,1.79,0,0,1-.52-1.36,1.69,1.69,0,0,1,.33-1,2.13,2.13,0,0,1,1-.7,4,4,0,0,1,1.5-.25h1.13v-.62a1.1,1.1,0,0,0-.35-.89,1.39,1.39,0,0,0-1-.32,2.09,2.09,0,0,0-.69.1,2,2,0,0,0-.53.26l-.12.89h-.9v-1.45a3.09,3.09,0,0,1,1-.53,4.17,4.17,0,0,1,1.26-.18,2.77,2.77,0,0,1,1.81.55,2,2,0,0,1,.66,1.58v3.29a1.94,1.94,0,0,0,0,.24l.61.06v.74H226.2c0-.17-.06-.33-.08-.46s0-.28,0-.41a2.78,2.78,0,0,1-.84.71A2.11,2.11,0,0,1,224.17,125.81Zm.17-1a2.06,2.06,0,0,0,1-.28,1.61,1.61,0,0,0,.68-.66v-1.15H224.9a1.67,1.67,0,0,0-1.19.38,1.14,1.14,0,0,0-.4.85.78.78,0,0,0,.26.64A1.2,1.2,0,0,0,224.34,124.85Z" transform="translate(-19.57)"/><path class="cls-6" d="M231.3,125.69,229,120.18l-.65-.09v-.74h2.66v.74l-.83.12,1.41,3.61.16.51h0l.18-.51,1.31-3.61-.85-.12v-.74h2.66v.74l-.67.09-2.15,5.51Z" transform="translate(-19.57)"/><path class="cls-6" d="M238.48,125.81a2.82,2.82,0,0,1-1.53-.4,2.68,2.68,0,0,1-1-1.12,3.71,3.71,0,0,1-.35-1.65v-.26a3.41,3.41,0,0,1,.37-1.61,3,3,0,0,1,1-1.12,2.34,2.34,0,0,1,1.35-.42,2.73,2.73,0,0,1,1.43.35,2.2,2.2,0,0,1,.87,1,3.49,3.49,0,0,1,.3,1.5v.72h-4.12v0a2.81,2.81,0,0,0,.21,1.08,1.8,1.8,0,0,0,.58.74,1.56,1.56,0,0,0,.92.27,3,3,0,0,0,1-.17,2.24,2.24,0,0,0,.76-.46l.45.75a2.62,2.62,0,0,1-.9.56A3.58,3.58,0,0,1,238.48,125.81Zm-1.66-3.92h2.92v-.16a1.92,1.92,0,0,0-.16-.81,1.34,1.34,0,0,0-.48-.57,1.42,1.42,0,0,0-.8-.21,1.17,1.17,0,0,0-.7.23,1.64,1.64,0,0,0-.52.61,2.45,2.45,0,0,0-.27.88Z" transform="translate(-19.57)"/><path class="cls-6" d="M244.52,125.81a2.31,2.31,0,0,1-1.33-.38,2.46,2.46,0,0,1-.85-1.07,4.15,4.15,0,0,1-.29-1.6v-.12a5.13,5.13,0,0,1,.29-1.79,2.67,2.67,0,0,1,.85-1.19,2.13,2.13,0,0,1,1.34-.43,2.19,2.19,0,0,1,1,.21,2,2,0,0,1,.74.6v-2.58l-1-.17v-.74h2.11v8.24l1,.16v.74h-2l-.09-.76a2.08,2.08,0,0,1-.76.66A2.31,2.31,0,0,1,244.52,125.81Zm.29-.93a1.51,1.51,0,0,0,.87-.24,1.87,1.87,0,0,0,.58-.66V121a1.79,1.79,0,0,0-.58-.64,1.58,1.58,0,0,0-.86-.23,1.3,1.3,0,0,0-.9.31,1.91,1.91,0,0,0-.54.87,4.2,4.2,0,0,0-.17,1.29v.12a2.67,2.67,0,0,0,.39,1.53A1.35,1.35,0,0,0,244.81,124.88Z" transform="translate(-19.57)"/><path class="cls-6" d="M205,140.21a5,5,0,0,1-1.19-.13,6.25,6.25,0,0,1-1.18-.39l0-1.51h.88l.21.91a3.3,3.3,0,0,0,.64.19,2.78,2.78,0,0,0,.66.07,1.51,1.51,0,0,0,1-.27.88.88,0,0,0,.31-.67.84.84,0,0,0-.31-.64,2.83,2.83,0,0,0-1.12-.44,4.2,4.2,0,0,1-1.69-.71,1.43,1.43,0,0,1-.54-1.18,1.51,1.51,0,0,1,.3-.92,2.1,2.1,0,0,1,.83-.65,3,3,0,0,1,1.24-.24,4.13,4.13,0,0,1,1.24.17,3,3,0,0,1,.89.44l.06,1.44h-.87l-.19-.84a1.34,1.34,0,0,0-.48-.23,2.13,2.13,0,0,0-.65-.09,1.39,1.39,0,0,0-.87.26.73.73,0,0,0-.34.63.65.65,0,0,0,.1.38.83.83,0,0,0,.37.3,3.67,3.67,0,0,0,.81.26,4.3,4.3,0,0,1,1.85.79,1.55,1.55,0,0,1,.52,1.19,1.76,1.76,0,0,1-.59,1.34A2.74,2.74,0,0,1,205,140.21Z" transform="translate(-19.57)"/><path class="cls-6" d="M211.35,140.21a2.8,2.8,0,0,1-1.52-.4,2.71,2.71,0,0,1-1-1.11,3.65,3.65,0,0,1-.35-1.66v-.25a3.42,3.42,0,0,1,.37-1.62,3,3,0,0,1,1-1.12,2.34,2.34,0,0,1,1.35-.42,2.73,2.73,0,0,1,1.43.35,2.2,2.2,0,0,1,.87,1,3.49,3.49,0,0,1,.29,1.5v.72h-4.11l0,0a2.77,2.77,0,0,0,.22,1.08,1.72,1.72,0,0,0,.58.74,1.53,1.53,0,0,0,.91.27,2.88,2.88,0,0,0,1-.17,2.29,2.29,0,0,0,.77-.46l.45.75a2.82,2.82,0,0,1-.9.56A3.6,3.6,0,0,1,211.35,140.21Zm-1.65-3.92h2.92v-.16a1.92,1.92,0,0,0-.16-.81,1.34,1.34,0,0,0-.48-.57,1.42,1.42,0,0,0-.8-.21,1.17,1.17,0,0,0-.7.23,1.67,1.67,0,0,0-.53.61,2.93,2.93,0,0,0-.27.88Z" transform="translate(-19.57)"/><path class="cls-6" d="M214.66,140.09v-.74l1-.16v-4.53l-1-.17v-.74h2l.1.81v.11a2.24,2.24,0,0,1,.66-.76,1.53,1.53,0,0,1,.91-.28,1.61,1.61,0,0,1,.37,0l.27.06-.15,1.07-.8-.05a1.1,1.1,0,0,0-.77.21,1.49,1.49,0,0,0-.48.64v3.59l.95.16v.74Z" transform="translate(-19.57)"/><path class="cls-6" d="M222.41,140.09l-2.25-5.51-.66-.09v-.74h2.66v.74l-.83.12,1.41,3.61.16.51h0l.19-.51,1.3-3.61-.85-.12v-.74h2.66v.74l-.67.09-2.15,5.51Z" transform="translate(-19.57)"/><path class="cls-6" d="M226.81,140.09v-.74l.95-.16v-4.53l-.95-.17v-.74h2.11v5.44l1,.16v.74Zm.89-7.9V131h1.22v1.24Z" transform="translate(-19.57)"/><path class="cls-6" d="M233.53,140.21a2.76,2.76,0,0,1-1.5-.4,2.81,2.81,0,0,1-1-1.11,3.79,3.79,0,0,1-.35-1.66v-.24a3.7,3.7,0,0,1,.34-1.62,2.66,2.66,0,0,1,2.5-1.55,3.53,3.53,0,0,1,1.35.25,2.75,2.75,0,0,1,1,.7l0,1.52H235l-.2-1.11a1.62,1.62,0,0,0-.49-.33,1.92,1.92,0,0,0-.71-.12,1.39,1.39,0,0,0-.9.31,2,2,0,0,0-.61.81,3,3,0,0,0-.22,1.14V137a3.14,3.14,0,0,0,.21,1.2,1.71,1.71,0,0,0,.58.79,1.44,1.44,0,0,0,.9.28,1.49,1.49,0,0,0,1-.32,1.34,1.34,0,0,0,.47-.89h1v0a2.11,2.11,0,0,1-.32,1,2.18,2.18,0,0,1-.83.76A2.76,2.76,0,0,1,233.53,140.21Z" transform="translate(-19.57)"/><path class="cls-6" d="M240,140.21a2.86,2.86,0,0,1-1.53-.4,2.76,2.76,0,0,1-1-1.11,3.65,3.65,0,0,1-.35-1.66v-.25a3.42,3.42,0,0,1,.37-1.62,3,3,0,0,1,1-1.12,2.34,2.34,0,0,1,1.35-.42,2.73,2.73,0,0,1,1.43.35,2.2,2.2,0,0,1,.87,1,3.49,3.49,0,0,1,.29,1.5v.72h-4.11l0,0a2.77,2.77,0,0,0,.22,1.08,1.72,1.72,0,0,0,.58.74,1.53,1.53,0,0,0,.91.27,2.92,2.92,0,0,0,1-.17,2.29,2.29,0,0,0,.77-.46l.45.75a2.82,2.82,0,0,1-.9.56A3.6,3.6,0,0,1,240,140.21Zm-1.65-3.92h2.92v-.16a1.92,1.92,0,0,0-.16-.81,1.34,1.34,0,0,0-.48-.57,1.42,1.42,0,0,0-.8-.21,1.17,1.17,0,0,0-.7.23,1.67,1.67,0,0,0-.53.61,2.93,2.93,0,0,0-.27.88Z" transform="translate(-19.57)"/><path class="cls-6" d="M375.43,125.81a3.79,3.79,0,0,1-2.14-.56,3.48,3.48,0,0,1-1.29-1.54,5.4,5.4,0,0,1-.43-2.22v-.12a5.25,5.25,0,0,1,.45-2.23,3.57,3.57,0,0,1,1.3-1.54,3.49,3.49,0,0,1,2-.56,4.27,4.27,0,0,1,1.51.25A3.49,3.49,0,0,1,378,118v1.84h-.92l-.12-1.35a1.64,1.64,0,0,0-.43-.24A3.08,3.08,0,0,0,376,118a4.26,4.26,0,0,0-.64-.05,2.28,2.28,0,0,0-1.42.43,2.63,2.63,0,0,0-.88,1.19,4.66,4.66,0,0,0-.3,1.74v.14a4.79,4.79,0,0,0,.32,1.83,2.46,2.46,0,0,0,.93,1.16,2.74,2.74,0,0,0,1.49.4,3.5,3.5,0,0,0,.8-.1,2.51,2.51,0,0,0,.65-.26l.13-1.19H378v1.85a4.32,4.32,0,0,1-1.15.47A5.79,5.79,0,0,1,375.43,125.81Z" transform="translate(-19.57)"/><path class="cls-6" d="M382,125.81a2.62,2.62,0,0,1-2.5-1.55,3.89,3.89,0,0,1-.34-1.67v-.13a3.89,3.89,0,0,1,.34-1.67,2.8,2.8,0,0,1,1-1.14,2.92,2.92,0,0,1,3,0,2.8,2.8,0,0,1,1,1.14,3.87,3.87,0,0,1,.35,1.67v.13a3.83,3.83,0,0,1-.35,1.67,2.61,2.61,0,0,1-1,1.14A2.64,2.64,0,0,1,382,125.81Zm0-.9a1.41,1.41,0,0,0,.92-.3,1.78,1.78,0,0,0,.56-.83,3.38,3.38,0,0,0,.19-1.19v-.13a3.42,3.42,0,0,0-.19-1.19,1.78,1.78,0,0,0-.56-.83,1.59,1.59,0,0,0-1.86,0,1.78,1.78,0,0,0-.56.83,3.42,3.42,0,0,0-.19,1.19v.13a3.38,3.38,0,0,0,.19,1.19,1.78,1.78,0,0,0,.56.83A1.49,1.49,0,0,0,382,124.91Z" transform="translate(-19.57)"/><path class="cls-6" d="M385.68,125.69V125l.95-.16v-4.53l-.95-.17v-.74h2l.08.94a2.36,2.36,0,0,1,.79-.78,2.18,2.18,0,0,1,1.09-.28,2.09,2.09,0,0,1,1.59.6,2.67,2.67,0,0,1,.56,1.86v3.1l1,.16v.74h-3.06V125l.95-.16v-3.08a1.73,1.73,0,0,0-.33-1.19,1.33,1.33,0,0,0-1-.35,1.64,1.64,0,0,0-.88.24,1.69,1.69,0,0,0-.61.66v3.72l.95.16v.74Z" transform="translate(-19.57)"/><path class="cls-6" d="M395.55,125.79a1.5,1.5,0,0,1-1.11-.41,1.81,1.81,0,0,1-.42-1.33v-3.84h-1v-.86h1v-1.53h1.16v1.53h1.37v.86h-1.37v3.84a1.06,1.06,0,0,0,.18.68.61.61,0,0,0,.48.22,4.09,4.09,0,0,0,.46,0l.39-.07.16.76a5.07,5.07,0,0,1-.62.13A4.18,4.18,0,0,1,395.55,125.79Z" transform="translate(-19.57)"/><path class="cls-6" d="M399.64,125.81a2.11,2.11,0,0,1-1.5-.48,1.76,1.76,0,0,1-.52-1.36,1.69,1.69,0,0,1,.33-1,2.08,2.08,0,0,1,1-.7,4,4,0,0,1,1.5-.25h1.13v-.62a1.14,1.14,0,0,0-.35-.89,1.41,1.41,0,0,0-1-.32,2,2,0,0,0-.69.1,1.87,1.87,0,0,0-.53.26l-.13.89H398v-1.45a3.09,3.09,0,0,1,1-.53,4.17,4.17,0,0,1,1.26-.18,2.77,2.77,0,0,1,1.81.55,2,2,0,0,1,.65,1.58v3c0,.08,0,.16,0,.24a1.93,1.93,0,0,0,0,.24l.62.06v.74h-1.66c0-.17-.06-.33-.08-.46a3,3,0,0,1,0-.41,3,3,0,0,1-.84.71A2.11,2.11,0,0,1,399.64,125.81Zm.17-1a2.11,2.11,0,0,0,1.05-.28,1.67,1.67,0,0,0,.68-.66v-1.15h-1.17a1.71,1.71,0,0,0-1.2.38,1.17,1.17,0,0,0-.4.85.81.81,0,0,0,.26.64A1.21,1.21,0,0,0,399.81,124.85Z" transform="translate(-19.57)"/><path class="cls-6" d="M404.18,125.69V125l1-.16v-4.53l-1-.17v-.74h2.11v5.44l1,.16v.74Zm.9-7.9v-1.24h1.21v1.24Z" transform="translate(-19.57)"/><path class="cls-6" d="M408,125.69V125l1-.16v-4.53l-1-.17v-.74h2l.08.94a2.38,2.38,0,0,1,.8-.78,2.14,2.14,0,0,1,1.08-.28,2.06,2.06,0,0,1,1.59.6,2.62,2.62,0,0,1,.56,1.86v3.1l1,.16v.74H412V125l1-.16v-3.08a1.73,1.73,0,0,0-.33-1.19,1.34,1.34,0,0,0-1-.35,1.61,1.61,0,0,0-.88.24,1.79,1.79,0,0,0-.62.66v3.72l1,.16v.74Z" transform="translate(-19.57)"/><path class="cls-6" d="M418.71,125.81a2.86,2.86,0,0,1-1.53-.4,2.72,2.72,0,0,1-1-1.12,3.58,3.58,0,0,1-.35-1.65v-.26a3.41,3.41,0,0,1,.37-1.61,3,3,0,0,1,1-1.12,2.34,2.34,0,0,1,1.35-.42,2.73,2.73,0,0,1,1.43.35,2.2,2.2,0,0,1,.87,1,3.49,3.49,0,0,1,.29,1.5v.72H417l0,0a2.81,2.81,0,0,0,.22,1.08,1.72,1.72,0,0,0,.58.74,1.53,1.53,0,0,0,.91.27,2.92,2.92,0,0,0,1-.17,2.29,2.29,0,0,0,.77-.46l.45.75a2.82,2.82,0,0,1-.9.56A3.6,3.6,0,0,1,418.71,125.81Zm-1.65-3.92H420v-.16a1.92,1.92,0,0,0-.16-.81,1.34,1.34,0,0,0-.48-.57,1.42,1.42,0,0,0-.8-.21,1.17,1.17,0,0,0-.7.23,1.67,1.67,0,0,0-.53.61,2.93,2.93,0,0,0-.27.88Z" transform="translate(-19.57)"/><path class="cls-6" d="M422,125.69V125l1-.16v-4.53l-1-.17v-.74h2l.1.81,0,.11a2.24,2.24,0,0,1,.66-.76,1.51,1.51,0,0,1,.91-.28l.37,0,.27.07-.15,1.07-.8-.05a1.1,1.1,0,0,0-.77.21,1.49,1.49,0,0,0-.48.64v3.59l.95.16v.74Z" transform="translate(-19.57)"/><path class="cls-6" d="M557.26,174.69a3.87,3.87,0,0,1-2.14-.56,3.54,3.54,0,0,1-1.29-1.54,5.46,5.46,0,0,1-.43-2.22v-.13a5.29,5.29,0,0,1,.45-2.23,3.54,3.54,0,0,1,1.3-1.53,3.49,3.49,0,0,1,2-.57,4.27,4.27,0,0,1,1.51.26,3.49,3.49,0,0,1,1.14.66v1.84h-.92l-.12-1.35a2,2,0,0,0-.43-.25,3.12,3.12,0,0,0-1.18-.2,2.28,2.28,0,0,0-1.42.43,2.63,2.63,0,0,0-.88,1.19,4.66,4.66,0,0,0-.3,1.74v.14a4.79,4.79,0,0,0,.32,1.83,2.43,2.43,0,0,0,.93,1.15,2.65,2.65,0,0,0,1.49.4,3,3,0,0,0,.8-.1,2.21,2.21,0,0,0,.65-.25l.13-1.19h.91v1.85a4,4,0,0,1-1.15.46A5.79,5.79,0,0,1,557.26,174.69Z" transform="translate(-19.57)"/><path class="cls-6" d="M563.79,174.69a2.6,2.6,0,0,1-2.5-1.56,3.82,3.82,0,0,1-.34-1.66v-.13a3.86,3.86,0,0,1,.34-1.67,2.74,2.74,0,0,1,5,0,3.83,3.83,0,0,1,.35,1.67v.13a3.87,3.87,0,0,1-.35,1.67,2.61,2.61,0,0,1-1,1.14A2.72,2.72,0,0,1,563.79,174.69Zm0-.9a1.41,1.41,0,0,0,.92-.3,1.83,1.83,0,0,0,.56-.83,3.42,3.42,0,0,0,.19-1.19v-.13a3.38,3.38,0,0,0-.19-1.19,1.78,1.78,0,0,0-.56-.83,1.59,1.59,0,0,0-1.86,0,1.78,1.78,0,0,0-.56.83,3.38,3.38,0,0,0-.19,1.19v.13a3.42,3.42,0,0,0,.19,1.19,1.83,1.83,0,0,0,.56.83A1.49,1.49,0,0,0,563.79,173.79Z" transform="translate(-19.57)"/><path class="cls-6" d="M567.51,174.57v-.74l1-.16v-4.53l-1-.17v-.74h2l.08.94a2.27,2.27,0,0,1,.79-.78,2.35,2.35,0,0,1,2.68.32,2.67,2.67,0,0,1,.56,1.86v3.1l.95.16v.74H571.5v-.74l1-.16v-3.08a1.71,1.71,0,0,0-.33-1.19,1.33,1.33,0,0,0-1-.35,1.64,1.64,0,0,0-.88.24,1.73,1.73,0,0,0-.61.65v3.73l1,.16v.74Z" transform="translate(-19.57)"/><path class="cls-6" d="M577.38,174.67a1.47,1.47,0,0,1-1.11-.42,1.77,1.77,0,0,1-.42-1.32v-3.85h-1v-.85h1V166.7H577v1.53h1.37v.85H577v3.85a1.06,1.06,0,0,0,.18.68.6.6,0,0,0,.48.21,2.6,2.6,0,0,0,.46,0l.39-.06.16.75a4.89,4.89,0,0,1-.62.14A4.18,4.18,0,0,1,577.38,174.67Z" transform="translate(-19.57)"/><path class="cls-6" d="M581.47,174.69a2.11,2.11,0,0,1-1.5-.48,1.78,1.78,0,0,1-.52-1.37,1.73,1.73,0,0,1,.33-1.05,2.15,2.15,0,0,1,1-.7,4.21,4.21,0,0,1,1.5-.24h1.13v-.62a1.14,1.14,0,0,0-.35-.89,1.36,1.36,0,0,0-1-.32,2.31,2.31,0,0,0-.69.09,2.2,2.2,0,0,0-.53.27l-.13.89h-.89v-1.46a3.07,3.07,0,0,1,1-.52,4.17,4.17,0,0,1,1.26-.18,2.72,2.72,0,0,1,1.81.55,1.93,1.93,0,0,1,.65,1.58v3c0,.08,0,.16,0,.24a1.69,1.69,0,0,0,0,.23l.62.07v.74H583.5c0-.17-.06-.33-.08-.47a2.71,2.71,0,0,1,0-.41,2.79,2.79,0,0,1-.84.72A2.22,2.22,0,0,1,581.47,174.69Zm.17-1a2.11,2.11,0,0,0,1.05-.27,1.8,1.8,0,0,0,.68-.66v-1.15H582.2a1.66,1.66,0,0,0-1.2.38,1.17,1.17,0,0,0-.4.85.77.77,0,0,0,.26.63A1.15,1.15,0,0,0,581.64,173.72Z" transform="translate(-19.57)"/><path class="cls-6" d="M586,174.57v-.74l1-.16v-4.53l-1-.17v-.74h2.11v5.44l1,.16v.74Zm.9-7.91v-1.23h1.21v1.23Z" transform="translate(-19.57)"/><path class="cls-6" d="M589.87,174.57v-.74l1-.16v-4.53l-1-.17v-.74h2l.08.94a2.29,2.29,0,0,1,.8-.78,2.33,2.33,0,0,1,2.67.32,2.62,2.62,0,0,1,.56,1.86v3.1l1,.16v.74h-3.07v-.74l1-.16v-3.08a1.71,1.71,0,0,0-.33-1.19,1.34,1.34,0,0,0-1-.35,1.61,1.61,0,0,0-.88.24,1.84,1.84,0,0,0-.62.65v3.73l1,.16v.74Z" transform="translate(-19.57)"/><path class="cls-6" d="M600.54,174.69a2.86,2.86,0,0,1-1.53-.4,2.72,2.72,0,0,1-1-1.12,3.58,3.58,0,0,1-.35-1.65v-.26a3.38,3.38,0,0,1,.37-1.61,3,3,0,0,1,1-1.13,2.41,2.41,0,0,1,1.35-.41,2.73,2.73,0,0,1,1.43.35,2.15,2.15,0,0,1,.87,1A3.46,3.46,0,0,1,603,171v.72h-4.11l0,0a2.85,2.85,0,0,0,.22,1.08,1.72,1.72,0,0,0,.58.74,1.53,1.53,0,0,0,.91.27,2.92,2.92,0,0,0,1-.17,2.29,2.29,0,0,0,.77-.46l.45.75a2.81,2.81,0,0,1-.9.55A3.59,3.59,0,0,1,600.54,174.69Zm-1.65-3.93h2.92v-.15a2,2,0,0,0-.16-.82,1.26,1.26,0,0,0-.48-.56,1.42,1.42,0,0,0-.8-.21,1.16,1.16,0,0,0-.7.22,1.7,1.7,0,0,0-.53.62,2.84,2.84,0,0,0-.27.88Z" transform="translate(-19.57)"/><path class="cls-6" d="M603.85,174.57v-.74l.95-.16v-4.53l-.95-.17v-.74h2l.09.81,0,.11a2.15,2.15,0,0,1,.66-.76,1.53,1.53,0,0,1,.91-.28l.37,0,.27.06-.15,1.08-.8-.05a1.1,1.1,0,0,0-.77.21,1.46,1.46,0,0,0-.48.63v3.6l.95.16v.74Z" transform="translate(-19.57)"/><path class="cls-6" d="M608.82,174.57v-.74l1-.16v-4.53l-1-.17v-.74h2.11v5.44l1,.16v.74Zm.9-7.91v-1.23h1.21v1.23Z" transform="translate(-19.57)"/><path class="cls-6" d="M612.77,174.57v-.81l3.45-4.64h-2.36l-.15,1.06h-.87v-2h4.81V169l-3.49,4.68h2.7l.15-1.07h.87v1.95Z" transform="translate(-19.57)"/><path class="cls-6" d="M621.53,174.69a2.82,2.82,0,0,1-1.53-.4,2.68,2.68,0,0,1-1-1.12,3.71,3.71,0,0,1-.35-1.65v-.26a3.38,3.38,0,0,1,.37-1.61,3,3,0,0,1,1-1.13,2.41,2.41,0,0,1,1.35-.41,2.73,2.73,0,0,1,1.43.35,2.15,2.15,0,0,1,.87,1,3.46,3.46,0,0,1,.3,1.5v.72h-4.12v0a2.67,2.67,0,0,0,.21,1.08,1.72,1.72,0,0,0,.58.74,1.56,1.56,0,0,0,.92.27,2.87,2.87,0,0,0,1-.17,2.29,2.29,0,0,0,.77-.46l.45.75a2.81,2.81,0,0,1-.9.55A3.57,3.57,0,0,1,621.53,174.69Zm-1.66-3.93h2.92v-.15a2,2,0,0,0-.16-.82,1.26,1.26,0,0,0-.48-.56,1.42,1.42,0,0,0-.8-.21,1.16,1.16,0,0,0-.7.22,1.68,1.68,0,0,0-.52.62,2.39,2.39,0,0,0-.27.88Z" transform="translate(-19.57)"/><path class="cls-6" d="M627.57,174.69a2.31,2.31,0,0,1-1.33-.38,2.52,2.52,0,0,1-.85-1.07,4.15,4.15,0,0,1-.29-1.6v-.13a5.11,5.11,0,0,1,.29-1.78,2.76,2.76,0,0,1,.85-1.2,2.16,2.16,0,0,1,1.34-.42,2.22,2.22,0,0,1,1,.21,2.13,2.13,0,0,1,.74.6v-2.58l-1-.17v-.74h2.11v8.24l1,.16v.74h-2l-.09-.76a2.08,2.08,0,0,1-.76.66A2.31,2.31,0,0,1,627.57,174.69Zm.29-.94a1.61,1.61,0,0,0,.87-.23,1.87,1.87,0,0,0,.58-.66v-2.94a1.79,1.79,0,0,0-.58-.64,1.6,1.6,0,0,0-.86-.23,1.32,1.32,0,0,0-.91.31,2,2,0,0,0-.53.87,4.17,4.17,0,0,0-.18,1.28v.13a2.69,2.69,0,0,0,.4,1.53A1.34,1.34,0,0,0,627.86,173.75Z" transform="translate(-19.57)"/><path class="cls-6" d="M576.13,189.09a3.87,3.87,0,0,1-2.14-.56A3.54,3.54,0,0,1,572.7,187a5.43,5.43,0,0,1-.43-2.22v-.13a5.29,5.29,0,0,1,.45-2.23,3.54,3.54,0,0,1,1.3-1.53,3.49,3.49,0,0,1,2-.57,4.27,4.27,0,0,1,1.51.26,3.49,3.49,0,0,1,1.14.66v1.84h-.92l-.12-1.35a2,2,0,0,0-.43-.25,3.12,3.12,0,0,0-1.18-.2,2.28,2.28,0,0,0-1.42.43,2.63,2.63,0,0,0-.88,1.19,4.66,4.66,0,0,0-.3,1.74v.14a4.79,4.79,0,0,0,.32,1.83,2.43,2.43,0,0,0,.93,1.15,2.65,2.65,0,0,0,1.49.4,3,3,0,0,0,.8-.1,2.4,2.4,0,0,0,.66-.25l.12-1.19h.91v1.85a4,4,0,0,1-1.15.46A5.79,5.79,0,0,1,576.13,189.09Z" transform="translate(-19.57)"/><path class="cls-6" d="M583.69,189.09a3.85,3.85,0,0,1-2.14-.56,3.54,3.54,0,0,1-1.29-1.54,5.43,5.43,0,0,1-.43-2.22v-.13a5.29,5.29,0,0,1,.45-2.23,3.59,3.59,0,0,1,1.29-1.53,3.55,3.55,0,0,1,2-.57,4.31,4.31,0,0,1,1.51.26,3.49,3.49,0,0,1,1.14.66v1.84h-.92l-.12-1.35a1.87,1.87,0,0,0-.44-.25,3.69,3.69,0,0,0-.53-.15,4.4,4.4,0,0,0-.65,0,2.27,2.27,0,0,0-1.41.43,2.63,2.63,0,0,0-.88,1.19,4.66,4.66,0,0,0-.3,1.74v.14a4.61,4.61,0,0,0,.32,1.83,2.43,2.43,0,0,0,.93,1.15,2.63,2.63,0,0,0,1.49.4,3.08,3.08,0,0,0,.8-.1,2.32,2.32,0,0,0,.65-.25l.13-1.19h.9v1.85a3.94,3.94,0,0,1-1.14.46A5.79,5.79,0,0,1,583.69,189.09Z" transform="translate(-19.57)"/><path class="cls-6" d="M590.31,189v-.74l.63-.09,3-7.7h1l2.93,7.7.62.09V189H596v-.74l.65-.11-.56-1.57h-3.42l-.58,1.57.64.11V189Zm2.74-3.39h2.7l-1.25-3.47-.07-.19h0l-.07.19Z" transform="translate(-19.57)"/><path class="cls-6" d="M599.14,191.41v-.75l.9-.16v-7l-1-.17v-.74H601l.1.77a2.11,2.11,0,0,1,.77-.66,2.39,2.39,0,0,1,1.06-.23,2.16,2.16,0,0,1,1.34.42,2.72,2.72,0,0,1,.85,1.19,5.15,5.15,0,0,1,.29,1.8V186a4,4,0,0,1-.3,1.6,2.5,2.5,0,0,1-.84,1.07,2.31,2.31,0,0,1-1.33.38,2.56,2.56,0,0,1-1-.2,2,2,0,0,1-.75-.58v2.19l1,.16v.75Zm3.48-3.22a1.42,1.42,0,0,0,1.24-.6,2.65,2.65,0,0,0,.42-1.55v-.12a3.89,3.89,0,0,0-.19-1.29,1.91,1.91,0,0,0-.56-.87,1.39,1.39,0,0,0-.93-.31,1.53,1.53,0,0,0-.84.22,1.76,1.76,0,0,0-.57.61v3.09a1.57,1.57,0,0,0,.57.6A1.55,1.55,0,0,0,602.62,188.19Z" transform="translate(-19.57)"/><path class="cls-6" d="M606.15,191.41v-.75l.9-.16v-7l-.95-.17v-.74H608l.11.77a2,2,0,0,1,.77-.66,2.32,2.32,0,0,1,1.05-.23,2.16,2.16,0,0,1,1.34.42,2.72,2.72,0,0,1,.85,1.19,4.93,4.93,0,0,1,.29,1.8V186a4.15,4.15,0,0,1-.29,1.6,2.52,2.52,0,0,1-.85,1.07,2.3,2.3,0,0,1-1.32.38,2.52,2.52,0,0,1-1-.2,1.86,1.86,0,0,1-.75-.58v2.19l1,.16v.75Zm3.48-3.22a1.41,1.41,0,0,0,1.24-.6,2.65,2.65,0,0,0,.42-1.55v-.12a4.19,4.19,0,0,0-.18-1.29,2.08,2.08,0,0,0-.56-.87,1.39,1.39,0,0,0-.93-.31,1.56,1.56,0,0,0-.85.22,1.65,1.65,0,0,0-.56.61v3.09a1.52,1.52,0,0,0,1.42.82Z" transform="translate(-19.57)"/><path class="cls-6" d="M22.44,125.81a4.71,4.71,0,0,1-1.5-.23,4.56,4.56,0,0,1-1.37-.7v-1.82h.89l.2,1.34a3,3,0,0,0,.82.36,3.32,3.32,0,0,0,1,.13,2.45,2.45,0,0,0,1-.18,1.4,1.4,0,0,0,.62-.49,1.35,1.35,0,0,0,0-1.43,1.59,1.59,0,0,0-.62-.53,4.82,4.82,0,0,0-1.17-.39,5.73,5.73,0,0,1-1.49-.55,2.57,2.57,0,0,1-.92-.83,2,2,0,0,1-.31-1.12,2.14,2.14,0,0,1,.35-1.2,2.45,2.45,0,0,1,1-.83,3.43,3.43,0,0,1,1.48-.3,4.29,4.29,0,0,1,1.58.27,3.89,3.89,0,0,1,1.14.66v1.7h-.9L24,118.45a2.56,2.56,0,0,0-.66-.35,3,3,0,0,0-1-.14,2.14,2.14,0,0,0-.87.17,1.5,1.5,0,0,0-.59.49,1.26,1.26,0,0,0-.21.73,1.12,1.12,0,0,0,.19.64,1.59,1.59,0,0,0,.62.49,6.22,6.22,0,0,0,1.16.39,4.57,4.57,0,0,1,2,1,2.15,2.15,0,0,1,.69,1.62,2,2,0,0,1-.37,1.21,2.35,2.35,0,0,1-1,.83A3.81,3.81,0,0,1,22.44,125.81Z" transform="translate(-19.57)"/><path class="cls-6" d="M29.28,125.81a2.86,2.86,0,0,1-1.53-.4,2.65,2.65,0,0,1-1-1.12,3.58,3.58,0,0,1-.36-1.65v-.26a3.42,3.42,0,0,1,.38-1.61,2.84,2.84,0,0,1,1-1.12,2.34,2.34,0,0,1,1.35-.42,2.75,2.75,0,0,1,1.43.35,2.33,2.33,0,0,1,.87,1,3.65,3.65,0,0,1,.29,1.5v.72H27.59l0,0a2.81,2.81,0,0,0,.22,1.08,1.65,1.65,0,0,0,.58.74,1.53,1.53,0,0,0,.91.27,2.92,2.92,0,0,0,1-.17,2.29,2.29,0,0,0,.77-.46l.45.75a2.82,2.82,0,0,1-.9.56A3.64,3.64,0,0,1,29.28,125.81Zm-1.66-3.92h2.93v-.16a2.09,2.09,0,0,0-.16-.81,1.34,1.34,0,0,0-.48-.57,1.44,1.44,0,0,0-.8-.21,1.2,1.2,0,0,0-.71.23,1.74,1.74,0,0,0-.52.61,2.93,2.93,0,0,0-.27.88Z" transform="translate(-19.57)"/><path class="cls-6" d="M32.59,125.69V125l.95-.16v-4.53l-.95-.17v-.74h2l.1.81v.11a2.27,2.27,0,0,1,.67-.76,1.5,1.5,0,0,1,.9-.28,2.43,2.43,0,0,1,.38,0l.27.07-.15,1.07-.81-.05a1.07,1.07,0,0,0-.76.21,1.49,1.49,0,0,0-.48.64v3.59l.95.16v.74Z" transform="translate(-19.57)"/><path class="cls-6" d="M40.34,125.69l-2.26-5.51-.65-.09v-.74h2.66v.74l-.83.12,1.41,3.61.16.51h0l.18-.51,1.31-3.61-.85-.12v-.74h2.66v.74l-.67.09-2.15,5.51Z" transform="translate(-19.57)"/><path class="cls-6" d="M44.73,125.69V125l1-.16v-4.53l-1-.17v-.74h2.11v5.44l1,.16v.74Zm.9-7.9v-1.24h1.21v1.24Z" transform="translate(-19.57)"/><path class="cls-6" d="M51.46,125.81a2.76,2.76,0,0,1-1.5-.4,2.63,2.63,0,0,1-1-1.12,3.71,3.71,0,0,1-.35-1.65v-.24a3.67,3.67,0,0,1,.34-1.62,2.63,2.63,0,0,1,1-1.13,2.68,2.68,0,0,1,1.52-.42,3.44,3.44,0,0,1,1.34.25,2.66,2.66,0,0,1,1,.7l0,1.52h-.9l-.2-1.11a1.67,1.67,0,0,0-.5-.33,1.86,1.86,0,0,0-.7-.12,1.39,1.39,0,0,0-.9.31,1.94,1.94,0,0,0-.61.81,2.79,2.79,0,0,0-.22,1.14v.24a3.35,3.35,0,0,0,.2,1.2,1.78,1.78,0,0,0,.58.79,1.48,1.48,0,0,0,.9.28,1.52,1.52,0,0,0,1-.32,1.43,1.43,0,0,0,.47-.89h1v0a2.1,2.1,0,0,1-1.16,1.78A2.7,2.7,0,0,1,51.46,125.81Z" transform="translate(-19.57)"/><path class="cls-6" d="M57.88,125.81a2.86,2.86,0,0,1-1.53-.4,2.65,2.65,0,0,1-1-1.12,3.58,3.58,0,0,1-.36-1.65v-.26a3.42,3.42,0,0,1,.38-1.61,2.84,2.84,0,0,1,1-1.12,2.34,2.34,0,0,1,1.35-.42,2.75,2.75,0,0,1,1.43.35,2.33,2.33,0,0,1,.87,1,3.65,3.65,0,0,1,.29,1.5v.72H56.19l0,0a3,3,0,0,0,.21,1.08,1.74,1.74,0,0,0,.59.74,1.53,1.53,0,0,0,.91.27,2.92,2.92,0,0,0,1-.17,2.15,2.15,0,0,0,.76-.46l.46.75a2.82,2.82,0,0,1-.9.56A3.64,3.64,0,0,1,57.88,125.81Zm-1.66-3.92h2.93v-.16a2.09,2.09,0,0,0-.16-.81,1.34,1.34,0,0,0-.48-.57,1.44,1.44,0,0,0-.8-.21,1.2,1.2,0,0,0-.71.23,1.74,1.74,0,0,0-.52.61,2.45,2.45,0,0,0-.27.88Z" transform="translate(-19.57)"/><path class="cls-7" d="M241.5,43h-5.23c-.71,0-1-.28-1-1v-8c0-.71.28-1,1-1h10.42c.67,0,.95.28.95,1v8c0,.67-.28.95-.95.95C245,43.06,243.2,43,241.5,43Z" transform="translate(-19.57)"/><path class="cls-7" d="M236.13,32.38a5.56,5.56,0,0,1,3.26-5.09,5.17,5.17,0,0,1,7.11,3.52c.12.47.17,1,.29,1.46" transform="translate(-19.57)"/><path class="cls-8" d="M240.63,39.61h0v1.07c0,.2.08.28.32.28h1c.28,0,.36-.08.36-.32v-2a.45.45,0,0,1,.27-.47,1.5,1.5,0,0,0,.76-1.78,1.91,1.91,0,0,0-1.79-1.19,2,2,0,0,0-2,1.07,1.47,1.47,0,0,0,.68,1.86.51.51,0,0,1,.31.59A6.71,6.71,0,0,1,240.63,39.61Z" transform="translate(-19.57)"/><path class="cls-7" d="M609.22,45H604c-.71,0-1-.28-1-1v-8c0-.71.28-1,1-1h10.42c.67,0,1,.28,1,1v8c0,.67-.28.95-1,.95C612.67,45.06,610.92,45,609.22,45Z" transform="translate(-19.57)"/><path class="cls-7" d="M603.85,34.38a5.56,5.56,0,0,1,3.25-5.09,5.18,5.18,0,0,1,7.12,3.52c.12.47.16.95.29,1.46" transform="translate(-19.57)"/><path class="cls-8" d="M608.35,41.61h0v1.07c0,.2.08.28.32.28h1c.28,0,.35-.08.35-.32v-2a.46.46,0,0,1,.28-.47,1.49,1.49,0,0,0,.75-1.78,1.88,1.88,0,0,0-1.78-1.19,2,2,0,0,0-2,1.07,1.48,1.48,0,0,0,.67,1.86.51.51,0,0,1,.32.59A6.71,6.71,0,0,1,608.35,41.61Z" transform="translate(-19.57)"/></g></g></svg>