<svg xmlns="http://www.w3.org/2000/svg" xmlns:xlink="http://www.w3.org/1999/xlink" viewBox="0 0 825.95 247.19"><defs><style>.cls-1{fill:#ffcc03;opacity:0.25;}.cls-10,.cls-17,.cls-2,.cls-3,.cls-4,.cls-5,.cls-6{fill:none;}.cls-2{stroke:#981869;stroke-width:3px;}.cls-14,.cls-15,.cls-2,.cls-3,.cls-4,.cls-5,.cls-6{stroke-miterlimit:10;}.cls-10,.cls-14,.cls-15,.cls-3{stroke:#ffcc03;}.cls-3,.cls-4,.cls-5,.cls-6{stroke-width:4px;}.cls-4,.cls-5,.cls-6{stroke:#518ecb;}.cls-5{stroke-dasharray:2.37 1.58;}.cls-6{stroke-dasharray:2.4 1.6;}.cls-7{fill:#635384;}.cls-8{fill:#fdfeff;}.cls-9{opacity:0.4;}.cls-10,.cls-17{stroke-linecap:round;stroke-linejoin:round;}.cls-10,.cls-14,.cls-15{stroke-width:2px;}.cls-11{fill:url(#Unbenannter_Verlauf_12);}.cls-12{fill:#518ecb;}.cls-13{fill:url(#Unbenannter_Verlauf_12-2);}.cls-14{fill:url(#Unbenannter_Verlauf_12-3);}.cls-15{fill:url(#Unbenannter_Verlauf_12-4);}.cls-16{fill:#32245e;}.cls-17{stroke:#32245e;stroke-width:0.3px;}</style><linearGradient id="Unbenannter_Verlauf_12" x1="64.37" y1="155.31" x2="104.27" y2="155.31" gradientUnits="userSpaceOnUse"><stop offset="0" stop-color="#981869"/><stop offset="0.19" stop-color="#771c65"/><stop offset="0.4" stop-color="#591f62"/><stop offset="0.61" stop-color="#432260"/><stop offset="0.81" stop-color="#36235e"/><stop offset="1" stop-color="#32245e"/></linearGradient><linearGradient id="Unbenannter_Verlauf_12-2" x1="99.94" y1="87.28" x2="124.13" y2="87.28" xlink:href="#Unbenannter_Verlauf_12"/><linearGradient id="Unbenannter_Verlauf_12-3" x1="161.44" y1="147.64" x2="200.04" y2="147.64" xlink:href="#Unbenannter_Verlauf_12"/><linearGradient id="Unbenannter_Verlauf_12-4" x1="149.73" y1="129.82" x2="188.52" y2="129.82" xlink:href="#Unbenannter_Verlauf_12"/></defs><g id="Ebene_2" data-name="Ebene 2"><g id="Ebene_1-2" data-name="Ebene 1"><circle class="cls-1" cx="505.42" cy="140.66" r="36.59" transform="translate(317.58 631.47) rotate(-85.93)"/><circle class="cls-2" cx="505.42" cy="140.66" r="38.35" transform="translate(317.58 631.47) rotate(-85.93)"/><polygon class="cls-3" points="412.01 184.44 412.01 90.15 493.74 42.99 575.42 90.15 575.42 184.44 493.74 231.6 412.01 184.44"/><circle class="cls-1" cx="753.95" cy="140.66" r="36.59" transform="translate(548.49 879.38) rotate(-85.93)"/><circle class="cls-2" cx="753.95" cy="140.66" r="38.35" transform="translate(548.49 879.38) rotate(-85.93)"/><polygon class="cls-3" points="660.54 184.44 660.54 90.15 742.27 42.99 823.95 90.15 823.95 184.44 742.27 231.6 660.54 184.44"/><g id="service"><path class="cls-4" d="M502.57,194.63h2.82" transform="translate(-11.7 -3.36)"/><line class="cls-5" x1="495.56" y1="191.27" x2="742.24" y2="191.27"/><path class="cls-4" d="M754.89,194.63h2.81" transform="translate(-11.7 -3.36)"/><path class="cls-6" d="M759.58,194.63A54.08,54.08,0,0,0,756.3,86.57H504a54.12,54.12,0,0,0-2.35,108.18" transform="translate(-11.7 -3.36)"/></g><circle class="cls-1" cx="114.29" cy="132.9" r="112.79"/><path class="cls-7" d="M35.93,48.11l-.73-.74,1.17-1.48L30,39.43l-1.33,1.36L28,40.06l2-3,7.57,7.71L39,43.61l.73.75Z" transform="translate(-11.7 -3.36)"/><path class="cls-7" d="M43.85,41a3.48,3.48,0,0,1-2.94.91,5.43,5.43,0,0,1-3.1-2l-1.87-2.17a5.37,5.37,0,0,1-1.54-3.36,3.8,3.8,0,0,1,4.26-3.67,5.36,5.36,0,0,1,3.1,2l1.87,2.17a5.41,5.41,0,0,1,1.54,3.36A3.45,3.45,0,0,1,43.85,41ZM43,40a1.89,1.89,0,0,0,.73-1.68,4.19,4.19,0,0,0-1.13-2.16L40.3,33.46a4.17,4.17,0,0,0-2-1.42,1.92,1.92,0,0,0-1.77.48,1.9,1.9,0,0,0-.72,1.67A4,4,0,0,0,37,36.35L39.26,39a4.1,4.1,0,0,0,2,1.42A1.88,1.88,0,0,0,43,40Z" transform="translate(-11.7 -3.36)"/><path class="cls-7" d="M48.29,37.06l-1-1.32,1.29-1,1,1.32Z" transform="translate(-11.7 -3.36)"/><path class="cls-7" d="M51.26,34.78l-.6-.85L52,32.66l-5.23-7.39-1.53,1.12-.59-.83,2.45-2.67,6.24,8.82L55,30.83l.61.85Z" transform="translate(-11.7 -3.36)"/><path class="cls-7" d="M60.2,29a3.47,3.47,0,0,1-3,.42,5.37,5.37,0,0,1-2.74-2.48l-1.5-2.44a5.34,5.34,0,0,1-1-3.56,3.46,3.46,0,0,1,1.74-2.53,3.49,3.49,0,0,1,3-.42,5.37,5.37,0,0,1,2.74,2.48L61,22.9a5.34,5.34,0,0,1,1,3.56A3.46,3.46,0,0,1,60.2,29Zm-.67-1.09a1.89,1.89,0,0,0,1-1.54A4.16,4.16,0,0,0,59.75,24L57.9,21a4.05,4.05,0,0,0-1.73-1.71A2.1,2.1,0,0,0,53.37,21a4.09,4.09,0,0,0,.76,2.31l1.85,3a4.14,4.14,0,0,0,1.73,1.72A1.92,1.92,0,0,0,59.53,27.9Z" transform="translate(-11.7 -3.36)"/><path class="cls-7" d="M65.21,25.86l-.8-1.47,1.44-.78.8,1.47Z" transform="translate(-11.7 -3.36)"/><path class="cls-7" d="M68.49,24.09,68,23.15l1.58-1-4-8.14-1.69.87-.45-.92,2.84-2.24,4.75,9.71,1.77-.61.46.94Z" transform="translate(-11.7 -3.36)"/><path class="cls-7" d="M78.28,19.79a3.46,3.46,0,0,1-3.08-.07,5.35,5.35,0,0,1-2.3-2.89l-1.09-2.64a5.46,5.46,0,0,1-.39-3.68A3.47,3.47,0,0,1,73.54,8.3a3.46,3.46,0,0,1,3.08.08,5.33,5.33,0,0,1,2.31,2.88L80,13.91a5.41,5.41,0,0,1,.39,3.68A3.44,3.44,0,0,1,78.28,19.79Zm-.49-1.18A1.87,1.87,0,0,0,79,17.25a4.07,4.07,0,0,0-.38-2.41l-1.34-3.28a4.1,4.1,0,0,0-1.43-2A1.9,1.9,0,0,0,74,9.49a1.88,1.88,0,0,0-1.21,1.35,4.1,4.1,0,0,0,.37,2.4l1.35,3.28a4.07,4.07,0,0,0,1.43,2A1.89,1.89,0,0,0,77.79,18.61Z" transform="translate(-11.7 -3.36)"/><path class="cls-7" d="M83.66,17.54,83.11,16l1.54-.54L85.2,17Z" transform="translate(-11.7 -3.36)"/><path class="cls-7" d="M90.49,15.51a4.63,4.63,0,0,1-2,.17A3.18,3.18,0,0,1,86.88,15a3,3,0,0,1-.94-1.56v-.06l1.5-.43a2.24,2.24,0,0,0,.56,1,1.81,1.81,0,0,0,.93.48,2.39,2.39,0,0,0,1.2-.08,2.24,2.24,0,0,0,1.4-1,2.25,2.25,0,0,0,.1-1.77,2.25,2.25,0,0,0-1-1.44A2.24,2.24,0,0,0,88.94,10l-1.37.4-.36-1.22,1.37-.41a2.37,2.37,0,0,0,1-.56A1.42,1.42,0,0,0,90,7.39a2.84,2.84,0,0,0-.12-1.12A2.24,2.24,0,0,0,89,4.9a2,2,0,0,0-1.61-.09,2.36,2.36,0,0,0-1,.55,1.84,1.84,0,0,0-.5.89,2.27,2.27,0,0,0,0,1.12l-1.5.44,0,0a2.86,2.86,0,0,1,0-1.71,3.2,3.2,0,0,1,.92-1.51,4.24,4.24,0,0,1,1.75-1,3.91,3.91,0,0,1,2.82.11,3.24,3.24,0,0,1,1.66,2.16,2.88,2.88,0,0,1-1,3,2.67,2.67,0,0,1,1.8.64A3.36,3.36,0,0,1,93.2,11a3.56,3.56,0,0,1,.06,2,3.22,3.22,0,0,1-1,1.55A4.46,4.46,0,0,1,90.49,15.51Z" transform="translate(-11.7 -3.36)"/><circle class="cls-2" cx="114.29" cy="132.9" r="112.79"/><polygon class="cls-8" points="84.19 123.01 56.39 139.16 56.39 171.46 84.19 187.61 112.25 171.46 112.25 139.16 84.19 123.01"/><g class="cls-9"><polygon class="cls-10" points="112.25 171.46 84.19 187.61 56.39 171.46 84.19 155.31 112.25 171.46"/><polygon class="cls-10" points="112.25 139.16 112.25 171.46 84.19 155.31 84.19 123.01 112.25 139.16"/><polygon class="cls-10" points="84.19 123.01 84.19 155.31 56.39 171.46 56.39 139.16 84.19 123.01"/></g><polygon class="cls-11" points="84.41 132.25 64.37 143.78 64.37 166.85 84.41 178.38 104.27 166.85 104.27 143.78 84.41 132.25"/><circle class="cls-12" cx="84.45" cy="155.31" r="11.46"/><polygon class="cls-10" points="56.39 139.16 84.45 123.01 112.25 139.16 84.45 155.31 56.39 139.16"/><polygon class="cls-10" points="56.39 171.46 56.39 139.16 84.45 155.31 84.45 187.61 56.39 171.46"/><polygon class="cls-10" points="84.45 187.61 84.45 155.31 112.25 139.16 112.25 171.46 84.45 187.61"/><polygon class="cls-8" points="111.96 67.7 95.1 77.49 95.1 97.07 111.96 106.86 128.97 97.07 128.97 77.49 111.96 67.7"/><g class="cls-9"><polygon class="cls-10" points="128.97 97.07 111.96 106.86 95.1 97.07 111.96 87.28 128.97 97.07"/><polygon class="cls-10" points="128.97 77.49 128.97 97.07 111.96 87.28 111.96 67.7 128.97 77.49"/><polygon class="cls-10" points="111.96 67.7 111.96 87.28 95.1 97.07 95.1 77.49 111.96 67.7"/></g><polygon class="cls-13" points="112.09 73.29 99.94 80.29 99.94 94.27 112.09 101.27 124.13 94.27 124.13 80.29 112.09 73.29"/><circle class="cls-12" cx="112.12" cy="87.28" r="6.95"/><polygon class="cls-10" points="95.1 77.49 112.12 67.7 128.97 77.49 112.12 87.28 95.1 77.49"/><polygon class="cls-10" points="95.1 97.07 95.1 77.49 112.12 87.28 112.12 106.86 95.1 97.07"/><polygon class="cls-10" points="112.12 106.86 112.12 87.28 128.97 77.49 128.97 97.07 112.12 106.86"/><path class="cls-14" d="M200,152.4h0V133h-38.6v19.4h0v.36h0c.36,5.31,9,9.51,19.21,9.51,10.43,0,18.84-4.2,19.21-9.51h0v-.36Z" transform="translate(-11.7 -3.36)"/><ellipse class="cls-15" cx="169.13" cy="129.82" rx="19.39" ry="9.88"/><g id="service-2" data-name="service"><path class="cls-4" d="M122,192.18l.26-.55.27-.56" transform="translate(-11.7 -3.36)"/><line class="cls-5" x1="111.21" y1="186.97" x2="157.81" y2="90.07"/><path class="cls-4" d="M169.69,93.06l.27-.55.26-.56" transform="translate(-11.7 -3.36)"/><path class="cls-6" d="M170.58,91.22c4.27-11.62-5.66-27.3-23.05-35.66-18-8.66-37.3-6.19-42.93,5.52L56.94,160.2c-5.63,11.7,4.47,28.31,22.49,37,17.6,8.46,36.28,6.32,42.49-4.6" transform="translate(-11.7 -3.36)"/></g><path class="cls-16" d="M68.63,120.12l-.93-.46.4-1.32-8.57-4.28-1.22,2.46,1.39,1-.55,1.1-2.6-1.3,4.48-9,2.61,1.3-.54,1.09-1.61-.53-1.23,2.45,8.57,4.28.81-1.11.94.47Z" transform="translate(-11.7 -3.36)"/><path class="cls-16" d="M72.52,112.35l-.94-.47.4-1.31-8.52-4.26-.81,1.11L61.7,107l.61-1.21.73-1.46.61-1.22.94.48-.4,1.31,8.54,4.27,1.91-3.83-1.62-1,.56-1.12,2.83,1.41Z" transform="translate(-11.7 -3.36)"/><path class="cls-16" d="M79.11,99.54a6.9,6.9,0,0,1-1.24,1.76,7.24,7.24,0,0,1-1.76,1.3l-2.31-1.16.56-1.13,1.83.6a4.69,4.69,0,0,0,1-.81A5,5,0,0,0,77.94,99a3.65,3.65,0,0,0,.41-1.37,2,2,0,0,0-.24-1.11,1.8,1.8,0,0,0-.8-.74,1.86,1.86,0,0,0-1-.2,2.18,2.18,0,0,0-1.06.45A6.85,6.85,0,0,0,74,97.23a8,8,0,0,1-1.64,1.54,3.7,3.7,0,0,1-1.63.64,3.12,3.12,0,0,1-2.91-1.52,3.41,3.41,0,0,1-.43-1.78A4.91,4.91,0,0,1,68,94a6.22,6.22,0,0,1,1.35-1.83,5.35,5.35,0,0,1,1.56-1L73,92.27l-.57,1.14-1.67-.53a3,3,0,0,0-.86.61,4.05,4.05,0,0,0-.79,1.14,2.86,2.86,0,0,0-.33,1.21,2,2,0,0,0,.24,1,1.78,1.78,0,0,0,.8.73,1.55,1.55,0,0,0,.93.17,2.28,2.28,0,0,0,1-.49A9.09,9.09,0,0,0,73,96.09a6.39,6.39,0,0,1,2.54-2,3,3,0,0,1,2.49.14,3,3,0,0,1,1.31,1.24,3.47,3.47,0,0,1,.39,1.84A5.52,5.52,0,0,1,79.11,99.54Z" transform="translate(-11.7 -3.36)"/><path class="cls-16" d="M594,73.88v-1l1.35-.23V63h-2.74l-.24,1.68H591.1V61.79h10v2.92h-1.21L599.69,63H597V72.6l1.35.23v1Z" transform="translate(-11.7 -3.36)"/><path class="cls-16" d="M602.65,73.88v-1L604,72.6V63.08l-1.35-.23V61.79H607v1.06l-1.35.23v9.54h4.27l.19-1.91h1.26v3.17Z" transform="translate(-11.7 -3.36)"/><path class="cls-16" d="M617.05,74.05a7.16,7.16,0,0,1-2.12-.32,6.94,6.94,0,0,1-1.95-1V70.15h1.27l.27,1.9a5.14,5.14,0,0,0,1.17.52,4.92,4.92,0,0,0,1.36.18,3.67,3.67,0,0,0,1.41-.25,2,2,0,0,0,.88-.71,1.75,1.75,0,0,0,.31-1,1.78,1.78,0,0,0-.27-1,2.17,2.17,0,0,0-.87-.74,6.7,6.7,0,0,0-1.67-.57,7.89,7.89,0,0,1-2.1-.77,3.57,3.57,0,0,1-1.3-1.18,2.85,2.85,0,0,1-.45-1.59,3,3,0,0,1,.5-1.69,3.53,3.53,0,0,1,1.4-1.18,4.77,4.77,0,0,1,2.1-.43,6.22,6.22,0,0,1,2.24.38,5.51,5.51,0,0,1,1.61.94v2.41h-1.27l-.28-1.73a3.39,3.39,0,0,0-.93-.49,3.92,3.92,0,0,0-1.37-.2,2.93,2.93,0,0,0-1.23.24,2,2,0,0,0-.83.69,1.79,1.79,0,0,0-.3,1,1.57,1.57,0,0,0,.27.91,2.12,2.12,0,0,0,.88.68,8.28,8.28,0,0,0,1.63.55,6.51,6.51,0,0,1,2.89,1.4,3,3,0,0,1,1,2.29,2.91,2.91,0,0,1-.52,1.72,3.48,3.48,0,0,1-1.47,1.18A5.49,5.49,0,0,1,617.05,74.05Z" transform="translate(-11.7 -3.36)"/><line class="cls-17" x1="108.14" y1="91.07" x2="87.97" y2="143.16"/><line class="cls-17" x1="720.21" y1="139.7" x2="514.03" y2="139.7"/><path class="cls-16" d="M490.24,133.55a3.92,3.92,0,0,1-2.13-.57,3.84,3.84,0,0,1-1.4-1.58,5.3,5.3,0,0,1-.5-2.34v-.35a5.24,5.24,0,0,1,.48-2.29,3.74,3.74,0,0,1,3.55-2.2,4.67,4.67,0,0,1,1.9.36,4,4,0,0,1,1.38,1l0,2.16h-1.28l-.28-1.57a2.08,2.08,0,0,0-.71-.46,2.5,2.5,0,0,0-1-.18,2.09,2.09,0,0,0-1.29.43,3,3,0,0,0-.86,1.16,4.16,4.16,0,0,0-.3,1.61v.35a4.62,4.62,0,0,0,.28,1.7,2.49,2.49,0,0,0,.82,1.11,2.27,2.27,0,0,0,2.66-.06,2,2,0,0,0,.67-1.25h1.47l0,.05a3,3,0,0,1-.46,1.44,3.11,3.11,0,0,1-1.18,1.09A4.06,4.06,0,0,1,490.24,133.55Z" transform="translate(-11.7 -3.36)"/><path class="cls-16" d="M495,133.37v-1l1.36-.24V121.71l-1.36-.23v-1.06h3v11.67l1.35.24v1Z" transform="translate(-11.7 -3.36)"/><path class="cls-16" d="M500.4,133.37v-1l1.35-.24v-6.41l-1.35-.24v-1h3v7.7l1.35.24v1Zm1.27-11.2v-1.75h1.72v1.75Z" transform="translate(-11.7 -3.36)"/><path class="cls-16" d="M510,133.55a4.06,4.06,0,0,1-2.17-.57,3.82,3.82,0,0,1-1.42-1.58,5.16,5.16,0,0,1-.5-2.34v-.37a4.8,4.8,0,0,1,.53-2.29,4.16,4.16,0,0,1,1.4-1.59,3.36,3.36,0,0,1,1.91-.59,3.84,3.84,0,0,1,2,.5,3.05,3.05,0,0,1,1.23,1.4,5,5,0,0,1,.42,2.12v1h-5.83l0,0a4.1,4.1,0,0,0,.3,1.54,2.48,2.48,0,0,0,.83,1,2.21,2.21,0,0,0,1.29.38,4.1,4.1,0,0,0,1.46-.24,3.35,3.35,0,0,0,1.08-.65l.64,1.06a4.05,4.05,0,0,1-1.28.79A5.1,5.1,0,0,1,510,133.55ZM507.61,128h4.14v-.22a2.86,2.86,0,0,0-.22-1.16,1.8,1.8,0,0,0-.69-.8,2,2,0,0,0-1.13-.3,1.72,1.72,0,0,0-1,.32,2.43,2.43,0,0,0-.73.87,3.68,3.68,0,0,0-.39,1.24Z" transform="translate(-11.7 -3.36)"/><path class="cls-16" d="M514.66,133.37v-1l1.35-.24v-6.41l-1.35-.24v-1h2.81l.12,1.34a3.21,3.21,0,0,1,1.12-1.11,3,3,0,0,1,1.54-.4,2.92,2.92,0,0,1,2.25.86,3.72,3.72,0,0,1,.8,2.62v4.39l1.35.24v1h-4.34v-1l1.35-.24v-4.35a2.44,2.44,0,0,0-.46-1.69,1.91,1.91,0,0,0-1.44-.5,2.39,2.39,0,0,0-1.25.34,2.49,2.49,0,0,0-.86.93v5.27l1.35.24v1Z" transform="translate(-11.7 -3.36)"/><path class="cls-16" d="M528.65,133.51a2.11,2.11,0,0,1-1.58-.58,2.53,2.53,0,0,1-.59-1.87V125.6h-1.42v-1.21h1.42v-2.17h1.63v2.17h2v1.21h-2v5.46a1.46,1.46,0,0,0,.26.95.84.84,0,0,0,.69.31,4,4,0,0,0,.65-.06l.56-.09.22,1.07a6.28,6.28,0,0,1-.88.19A5.48,5.48,0,0,1,528.65,133.51Z" transform="translate(-11.7 -3.36)"/><path class="cls-16" d="M490.24,154a3.92,3.92,0,0,1-2.13-.57,3.84,3.84,0,0,1-1.4-1.58,5.3,5.3,0,0,1-.5-2.34v-.35a5.24,5.24,0,0,1,.48-2.29,3.74,3.74,0,0,1,3.55-2.2,4.67,4.67,0,0,1,1.9.36,4,4,0,0,1,1.38,1l0,2.16h-1.28l-.28-1.57a2.08,2.08,0,0,0-.71-.46,2.5,2.5,0,0,0-1-.18,2.09,2.09,0,0,0-1.29.43,3,3,0,0,0-.86,1.16,4.16,4.16,0,0,0-.3,1.61v.35a4.62,4.62,0,0,0,.28,1.7,2.49,2.49,0,0,0,.82,1.11,2.27,2.27,0,0,0,2.66-.06,2,2,0,0,0,.67-1.25h1.47l0,0a3,3,0,0,1-.46,1.44,3.11,3.11,0,0,1-1.18,1.09A4.06,4.06,0,0,1,490.24,154Z" transform="translate(-11.7 -3.36)"/><path class="cls-16" d="M499.34,154a4,4,0,0,1-2.17-.57,3.84,3.84,0,0,1-1.43-1.58,5.3,5.3,0,0,1-.5-2.34v-.37a4.92,4.92,0,0,1,.53-2.29,4.25,4.25,0,0,1,1.4-1.59,3.4,3.4,0,0,1,1.92-.59,3.89,3.89,0,0,1,2,.5,3.22,3.22,0,0,1,1.23,1.4,5.14,5.14,0,0,1,.41,2.12v1h-5.82l0,.05a4.09,4.09,0,0,0,.3,1.53,2.56,2.56,0,0,0,.83,1,2.22,2.22,0,0,0,1.3.38,4,4,0,0,0,1.45-.24,3.24,3.24,0,0,0,1.08-.65l.64,1.06a4,4,0,0,1-1.27.79A5.14,5.14,0,0,1,499.34,154ZM497,148.39h4.14v-.22a2.86,2.86,0,0,0-.23-1.16,1.78,1.78,0,0,0-.68-.8,2,2,0,0,0-1.13-.3,1.7,1.7,0,0,0-1,.32,2.35,2.35,0,0,0-.74.87,3.68,3.68,0,0,0-.38,1.24Z" transform="translate(-11.7 -3.36)"/><path class="cls-16" d="M504,153.77v-1l1.35-.24v-6.41l-1.35-.24v-1.05h2.81l.14,1.15,0,.15a3.21,3.21,0,0,1,.94-1.08,2.18,2.18,0,0,1,1.28-.39,3.17,3.17,0,0,1,.53,0,2.3,2.3,0,0,1,.39.09l-.22,1.52-1.14-.07a1.55,1.55,0,0,0-1.08.29,2.17,2.17,0,0,0-.68.91v5.08l1.35.24v1Z" transform="translate(-11.7 -3.36)"/><path class="cls-16" d="M514.56,153.91a2.14,2.14,0,0,1-1.58-.58,2.57,2.57,0,0,1-.59-1.87V146H511v-1.21h1.42v-2.17H514v2.17h2V146h-2v5.46a1.4,1.4,0,0,0,.26.95.84.84,0,0,0,.69.31,3.91,3.91,0,0,0,.64-.06l.56-.09.22,1.07a6.43,6.43,0,0,1-.87.19A5.67,5.67,0,0,1,514.56,153.91Z" transform="translate(-11.7 -3.36)"/><path class="cls-16" d="M735.38,135.12a7.64,7.64,0,0,1-1.7-.18,9.45,9.45,0,0,1-1.67-.57l0-2.13h1.24l.3,1.29a4.9,4.9,0,0,0,.91.27,4.62,4.62,0,0,0,.94.09,2.19,2.19,0,0,0,1.43-.38,1.25,1.25,0,0,0,.43-.95,1.16,1.16,0,0,0-.44-.9,4,4,0,0,0-1.58-.62,6.17,6.17,0,0,1-2.4-1,2.06,2.06,0,0,1-.76-1.68,2.15,2.15,0,0,1,.42-1.3,2.9,2.9,0,0,1,1.18-.92,4.19,4.19,0,0,1,1.76-.34,6,6,0,0,1,1.75.23,4.63,4.63,0,0,1,1.26.62l.09,2h-1.23l-.27-1.19a1.85,1.85,0,0,0-.69-.33,3.14,3.14,0,0,0-.91-.12,2,2,0,0,0-1.24.36,1.06,1.06,0,0,0-.48.89,1.07,1.07,0,0,0,.14.55,1.14,1.14,0,0,0,.52.42,6.5,6.5,0,0,0,1.15.37,6,6,0,0,1,2.62,1.12,2.19,2.19,0,0,1,.74,1.68,2.46,2.46,0,0,1-.84,1.9A3.87,3.87,0,0,1,735.38,135.12Z" transform="translate(-11.7 -3.36)"/><path class="cls-16" d="M744.32,135.12a4.06,4.06,0,0,1-2.17-.57,3.82,3.82,0,0,1-1.42-1.58,5.16,5.16,0,0,1-.5-2.34v-.37a4.85,4.85,0,0,1,.52-2.28,4.15,4.15,0,0,1,1.41-1.6,3.35,3.35,0,0,1,1.91-.58,3.77,3.77,0,0,1,2,.5,3.14,3.14,0,0,1,1.23,1.39,5,5,0,0,1,.42,2.13v1h-5.83l0,0a4.29,4.29,0,0,0,.31,1.53,2.4,2.4,0,0,0,.82,1.05,2.22,2.22,0,0,0,1.3.38,4,4,0,0,0,1.45-.24,3.23,3.23,0,0,0,1.09-.65l.64,1.07a3.87,3.87,0,0,1-1.28.78A5.14,5.14,0,0,1,744.32,135.12ZM742,129.56h4.14v-.22a2.86,2.86,0,0,0-.23-1.16,1.83,1.83,0,0,0-.68-.8,2,2,0,0,0-1.13-.3,1.7,1.7,0,0,0-1,.32,2.64,2.64,0,0,0-.74.87,3.73,3.73,0,0,0-.38,1.25Z" transform="translate(-11.7 -3.36)"/><path class="cls-16" d="M749,135v-1l1.35-.23v-6.42L749,127V126h2.81l.14,1.15,0,.16a3.22,3.22,0,0,1,.94-1.08,2.21,2.21,0,0,1,1.29-.39,3.12,3.12,0,0,1,.52,0,2.3,2.3,0,0,1,.39.09l-.22,1.52-1.14-.07a1.55,1.55,0,0,0-1.08.3,2.07,2.07,0,0,0-.68.9v5.09l1.35.23v1Z" transform="translate(-11.7 -3.36)"/><path class="cls-16" d="M760,135l-3.2-7.81-.92-.12V126h3.76V127l-1.17.16,2,5.12.23.72h.05l.26-.72,1.85-5.12-1.2-.16V126h3.76V127l-.95.12-3,7.81Z" transform="translate(-11.7 -3.36)"/><path class="cls-16" d="M770.15,135.12a4.06,4.06,0,0,1-2.17-.57,3.82,3.82,0,0,1-1.42-1.58,5.16,5.16,0,0,1-.5-2.34v-.37a4.85,4.85,0,0,1,.52-2.28,4.23,4.23,0,0,1,1.41-1.6,3.35,3.35,0,0,1,1.91-.58,3.77,3.77,0,0,1,2,.5,3.08,3.08,0,0,1,1.23,1.39,5,5,0,0,1,.42,2.13v1h-5.83l0,0a4.09,4.09,0,0,0,.3,1.53,2.4,2.4,0,0,0,.82,1.05,2.24,2.24,0,0,0,1.3.38,4.1,4.1,0,0,0,1.46-.24,3.28,3.28,0,0,0,1.08-.65l.64,1.07a3.87,3.87,0,0,1-1.28.78A5.1,5.1,0,0,1,770.15,135.12Zm-2.35-5.56h4.14v-.22a2.7,2.7,0,0,0-.23-1.16,1.83,1.83,0,0,0-.68-.8,2,2,0,0,0-1.13-.3,1.7,1.7,0,0,0-1,.32,2.64,2.64,0,0,0-.74.87,3.73,3.73,0,0,0-.38,1.25Z" transform="translate(-11.7 -3.36)"/><path class="cls-16" d="M774.83,135v-1l1.35-.23v-6.42l-1.35-.23V126h2.82l.14,1.15v.16a3.22,3.22,0,0,1,.94-1.08,2.23,2.23,0,0,1,1.29-.39,3.12,3.12,0,0,1,.52,0,2.3,2.3,0,0,1,.39.09l-.22,1.52-1.13-.07a1.58,1.58,0,0,0-1.09.3,2.15,2.15,0,0,0-.68.9v5.09l1.35.23v1Z" transform="translate(-11.7 -3.36)"/><path class="cls-16" d="M735.8,155.52a3.77,3.77,0,0,1-3.53-2.15,5.23,5.23,0,0,1-.49-2.34v-.35a5.27,5.27,0,0,1,.48-2.29,3.78,3.78,0,0,1,1.38-1.6,3.84,3.84,0,0,1,2.16-.59,4.89,4.89,0,0,1,1.91.35,3.92,3.92,0,0,1,1.37,1l0,2.15h-1.28l-.28-1.57a2.18,2.18,0,0,0-.7-.46,2.59,2.59,0,0,0-1-.18,2,2,0,0,0-1.28.44,2.73,2.73,0,0,0-.86,1.15,4,4,0,0,0-.31,1.61V151a4.62,4.62,0,0,0,.29,1.7,2.5,2.5,0,0,0,.82,1.12,2.1,2.1,0,0,0,1.27.39,2.08,2.08,0,0,0,1.38-.45,2,2,0,0,0,.67-1.26h1.47l0,.05a3,3,0,0,1-.46,1.45,3.09,3.09,0,0,1-1.18,1.08A4,4,0,0,1,735.8,155.52Z" transform="translate(-11.7 -3.36)"/><path class="cls-16" d="M744.9,155.52a4.06,4.06,0,0,1-2.17-.57,3.82,3.82,0,0,1-1.42-1.58,5.1,5.1,0,0,1-.5-2.34v-.37a4.85,4.85,0,0,1,.52-2.28,4.3,4.3,0,0,1,1.41-1.6,3.35,3.35,0,0,1,1.91-.58,3.77,3.77,0,0,1,2,.5,3.08,3.08,0,0,1,1.23,1.39,5,5,0,0,1,.42,2.13v1H742.5l0,0a4.09,4.09,0,0,0,.3,1.53,2.4,2.4,0,0,0,.82,1.05,2.24,2.24,0,0,0,1.3.38,4.1,4.1,0,0,0,1.46-.24,3.28,3.28,0,0,0,1.08-.65l.64,1.07a3.87,3.87,0,0,1-1.28.78A5.1,5.1,0,0,1,744.9,155.52ZM742.55,150h4.14v-.22a2.7,2.7,0,0,0-.23-1.16,1.83,1.83,0,0,0-.68-.8,2,2,0,0,0-1.13-.3,1.7,1.7,0,0,0-1,.32,2.64,2.64,0,0,0-.74.87,3.73,3.73,0,0,0-.38,1.25Z" transform="translate(-11.7 -3.36)"/><path class="cls-16" d="M749.58,155.35v-1l1.35-.23v-6.42l-1.35-.23v-1.06h2.82l.14,1.15v.16a3.22,3.22,0,0,1,.94-1.08,2.23,2.23,0,0,1,1.29-.39,3.12,3.12,0,0,1,.52,0,2.3,2.3,0,0,1,.39.09l-.22,1.52-1.13-.07a1.58,1.58,0,0,0-1.09.3,2.15,2.15,0,0,0-.68.9v5.09l1.35.23v1Z" transform="translate(-11.7 -3.36)"/><path class="cls-16" d="M760.12,155.49a2.14,2.14,0,0,1-1.58-.59A2.56,2.56,0,0,1,758,153v-5.45h-1.42v-1.22H758V144.2h1.63v2.16h1.95v1.22h-1.95V153a1.46,1.46,0,0,0,.26.95.84.84,0,0,0,.69.31,5.42,5.42,0,0,0,.65,0l.55-.1.23,1.07a5.12,5.12,0,0,1-.88.19A5.74,5.74,0,0,1,760.12,155.49Z" transform="translate(-11.7 -3.36)"/></g></g></svg>