<?xml version="1.0" encoding="utf-8"?>
<!-- Generator: Adobe Illustrator 24.0.0, SVG Export Plug-In . SVG Version: 6.00 Build 0)  -->
<svg version="1.1" id="Ebene_1" xmlns="http://www.w3.org/2000/svg" xmlns:xlink="http://www.w3.org/1999/xlink" x="0px" y="0px"
	 viewBox="0 0 887 281" style="enable-background:new 0 0 887 281;" xml:space="preserve">
<style type="text/css">
	.st0{opacity:0.25;fill:#FFCB00;}
	.st1{fill:none;stroke:#981869;stroke-width:3;stroke-miterlimit:10;}
	.st2{fill:none;stroke:#FFCB00;stroke-width:4;stroke-miterlimit:10;}
	.st3{fill:none;stroke:#518DCB;stroke-width:4;stroke-miterlimit:10;}
	.st4{fill:none;stroke:#518DCB;stroke-width:4;stroke-miterlimit:10;stroke-dasharray:2.3749,1.5832;}
	.st5{fill:none;stroke:#518DCB;stroke-width:4;stroke-miterlimit:10;stroke-dasharray:2.4006,1.6004;}
	.st6{fill:#518DCB;}
	.st7{fill:none;stroke:#32245E;stroke-width:0.3;stroke-linecap:round;stroke-linejoin:round;stroke-miterlimit:10;}
	.st8{fill:#32245E;}
	.st9{fill:none;}
	.st10{fill:#FDFDFF;}
	.st11{opacity:0.4;}
	.st12{fill:none;stroke:#FFCB00;stroke-width:2;stroke-linecap:round;stroke-linejoin:round;stroke-miterlimit:10;}
	.st13{fill:url(#SVGID_2_);}
	.st14{fill:url(#SVGID_3_);}
	.st15{fill:url(#SVGID_4_);stroke:#FFCB00;stroke-width:2;stroke-miterlimit:10;}
	.st16{fill:url(#SVGID_5_);stroke:#FFCB00;stroke-width:2;stroke-miterlimit:10;}
</style>
<g>
	
		<ellipse transform="matrix(7.088907e-02 -0.9975 0.9975 7.088907e-02 311.6286 611.902)" class="st0" cx="484.3" cy="138.7" rx="36.6" ry="36.6"/>
	
		<ellipse transform="matrix(7.088935e-02 -0.9975 0.9975 7.088935e-02 311.6285 611.9019)" class="st1" cx="484.3" cy="138.7" rx="38.3" ry="38.3"/>
	<polygon class="st2" points="402.6,185.8 402.6,91.5 484.3,44.4 566,91.5 566,185.8 484.3,233 	"/>
	
		<ellipse transform="matrix(7.088912e-02 -0.9975 0.9975 7.088912e-02 542.5411 859.8074)" class="st0" cx="732.8" cy="138.7" rx="36.6" ry="36.6"/>
	
		<ellipse transform="matrix(7.088888e-02 -0.9975 0.9975 7.088888e-02 542.5413 859.8074)" class="st1" cx="732.8" cy="138.7" rx="38.3" ry="38.3"/>
	<polygon class="st2" points="651.1,185.8 651.1,91.5 732.8,44.4 814.5,91.5 814.5,185.8 732.8,233 	"/>
	<g>
		<g>
			<path class="st3" d="M481.4,192.6c0.5,0,0.9,0,1.4,0h1.4"/>
			<line class="st4" x1="486.1" y1="192.6" x2="732.8" y2="192.6"/>
			<path class="st3" d="M733.7,192.6h1.4c0.5,0,0.9,0,1.4,0"/>
			<path class="st5" d="M738.4,192.6c28.3-1.8,50.8-25.2,50.8-54c0-29.8-24.3-54.1-54.1-54.1H482.8c-29.8,0-54.1,24.3-54.1,54.1
				c0,29.1,23,52.8,51.7,54.1"/>
		</g>
	</g>
	<g>
		<path class="st6" d="M602.9,64.8v2.7h-1.4l-0.1-1.4h-2.7v9.5l1.4,0.2v1h-4.3v-1l1.4-0.2v-9.5h-2.7l-0.1,1.4h-1.4v-2.7H602.9z"/>
		<path class="st6" d="M603.8,76.9v-1l1.4-0.2v-9.5l-1.4-0.2v-1.1h1.4h1.6h1.4v1.1l-1.4,0.2v9.5h4.2l0.1-1.4h1.4v2.7H603.8z"/>
		<path class="st6" d="M622.5,68.4h-1.2l-0.3-1.7c-0.3-0.2-0.6-0.4-1-0.5c-0.4-0.1-0.9-0.2-1.4-0.2c-0.9,0-1.5,0.2-2,0.6
			s-0.7,0.8-0.7,1.4c0,0.5,0.2,1,0.7,1.3c0.5,0.4,1.2,0.7,2.3,0.9c1.3,0.3,2.2,0.8,2.9,1.4c0.7,0.6,1,1.4,1,2.3c0,1-0.4,1.8-1.2,2.3
			c-0.8,0.6-1.8,0.9-3.1,0.9c-0.9,0-1.8-0.2-2.5-0.5c-0.7-0.3-1.3-0.7-1.8-1.2v-2.2h1.2l0.3,1.7c0.3,0.3,0.7,0.5,1.1,0.6
			s1,0.3,1.6,0.3c0.8,0,1.5-0.2,2-0.5s0.7-0.8,0.7-1.4c0-0.6-0.2-1-0.6-1.4c-0.4-0.4-1.1-0.7-2.2-0.9c-1.3-0.3-2.3-0.8-3-1.3
			c-0.7-0.6-1.1-1.3-1.1-2.2c0-0.9,0.4-1.7,1.2-2.4s1.8-0.9,3.1-0.9c0.8,0,1.6,0.1,2.3,0.4c0.7,0.3,1.3,0.6,1.7,1.1V68.4z"/>
	</g>
	<line class="st7" x1="705" y1="141.1" x2="510.4" y2="141.1"/>
	<g>
		<path class="st8" d="M466.2,133.3c0.5,0,1-0.2,1.4-0.5s0.6-0.7,0.6-1.2h1.5l0,0c0,0.8-0.3,1.5-1,2.1s-1.6,0.9-2.5,0.9
			c-1.3,0-2.3-0.4-3-1.3c-0.7-0.9-1-1.9-1-3.2v-0.3c0-1.3,0.3-2.3,1-3.2c0.7-0.9,1.7-1.3,3-1.3c0.7,0,1.4,0.1,1.9,0.4
			c0.6,0.2,1,0.6,1.4,1l0.1,2h-1.3l-0.4-1.4c-0.2-0.2-0.4-0.3-0.7-0.5c-0.3-0.1-0.6-0.2-1-0.2c-0.9,0-1.5,0.3-1.8,0.9
			s-0.6,1.4-0.6,2.3v0.3c0,0.9,0.2,1.7,0.5,2.3S465.3,133.3,466.2,133.3z"/>
		<path class="st8" d="M471.1,122.5v-1.1h3v11.7l1.4,0.2v1h-4.3v-1l1.4-0.2v-10.4L471.1,122.5z"/>
		<path class="st8" d="M476.7,133.3l1.4-0.2v-6.4l-1.4-0.2v-1.1h3v7.7l1.4,0.2v1h-4.3V133.3z M479.7,123.1H478v-1.7h1.6V123.1z"/>
		<path class="st8" d="M486.4,134.6c-1.3,0-2.2-0.4-3-1.2c-0.7-0.8-1.1-1.9-1.1-3.2v-0.4c0-1.3,0.4-2.3,1.1-3.2s1.7-1.3,2.7-1.3
			c1.2,0,2.1,0.4,2.7,1.1c0.6,0.7,0.9,1.7,0.9,2.9v1H484l0,0c0,0.9,0.2,1.6,0.7,2.1c0.4,0.6,1,0.8,1.8,0.8c0.6,0,1-0.1,1.5-0.2
			c0.4-0.2,0.8-0.4,1.1-0.7l0.6,1.1c-0.3,0.3-0.7,0.6-1.3,0.8S487.1,134.6,486.4,134.6z M486.1,126.5c-0.5,0-1,0.2-1.4,0.7
			s-0.6,1-0.7,1.7l0,0h4.1v-0.2c0-0.6-0.2-1.2-0.5-1.6C487.3,126.7,486.8,126.5,486.1,126.5z"/>
		<path class="st8" d="M491.2,133.3l1.4-0.2v-6.4l-1.4-0.2v-1.1h2.8l0.1,1.3c0.3-0.5,0.7-0.8,1.1-1.1s1-0.4,1.5-0.4
			c1,0,1.7,0.3,2.2,0.9s0.8,1.4,0.8,2.6v4.4l1.4,0.2v1h-4.3v-1l1.4-0.2v-4.4c0-0.8-0.2-1.4-0.5-1.7s-0.8-0.5-1.4-0.5
			c-0.5,0-0.9,0.1-1.3,0.3c-0.4,0.2-0.7,0.5-0.9,0.9v5.3l1.4,0.2v1h-4.3V133.3z"/>
		<path class="st8" d="M505.2,123.2v2.2h1.7v1.2h-1.7v5.5c0,0.4,0.1,0.7,0.3,0.9c0.2,0.2,0.4,0.3,0.7,0.3c0.1,0,0.3,0,0.5,0
			c0.2,0,0.3-0.1,0.5-0.1l0.2,1.1c-0.2,0.1-0.4,0.2-0.7,0.2s-0.6,0.1-0.9,0.1c-0.7,0-1.2-0.2-1.6-0.6c-0.4-0.4-0.6-1-0.6-1.9v-5.5
			h-1.4v-1.2h1.4v-2.2H505.2z"/>
		<path class="st8" d="M466.2,153.7c0.5,0,1-0.2,1.4-0.5s0.6-0.7,0.6-1.2h1.5l0,0c0,0.8-0.3,1.5-1,2.1s-1.6,0.9-2.5,0.9
			c-1.3,0-2.3-0.4-3-1.3c-0.7-0.9-1-1.9-1-3.2v-0.3c0-1.3,0.3-2.3,1-3.2c0.7-0.9,1.7-1.3,3-1.3c0.7,0,1.4,0.1,1.9,0.4
			c0.6,0.2,1,0.6,1.4,1l0.1,2h-1.3l-0.4-1.4c-0.2-0.2-0.4-0.3-0.7-0.5c-0.3-0.1-0.6-0.2-1-0.2c-0.9,0-1.5,0.3-1.8,0.9
			s-0.6,1.4-0.6,2.3v0.3c0,0.9,0.2,1.7,0.5,2.3S465.3,153.7,466.2,153.7z"/>
		<path class="st8" d="M475.4,155c-1.3,0-2.2-0.4-3-1.2c-0.7-0.8-1.1-1.9-1.1-3.2v-0.4c0-1.3,0.4-2.3,1.1-3.2s1.7-1.3,2.7-1.3
			c1.2,0,2.1,0.4,2.7,1.1c0.6,0.7,0.9,1.7,0.9,2.9v1H473l0,0c0,0.9,0.2,1.6,0.7,2.1c0.4,0.6,1,0.8,1.8,0.8c0.6,0,1-0.1,1.5-0.2
			c0.4-0.2,0.8-0.4,1.1-0.7l0.6,1.1c-0.3,0.3-0.7,0.6-1.3,0.8S476.2,155,475.4,155z M475.2,146.9c-0.5,0-1,0.2-1.4,0.7
			s-0.6,1-0.7,1.7l0,0h4.1v-0.2c0-0.6-0.2-1.2-0.5-1.6C476.4,147.1,475.9,146.9,475.2,146.9z"/>
		<path class="st8" d="M480.5,146.9v-1.1h2.8l0.2,1.3c0.3-0.5,0.6-0.8,0.9-1.1c0.4-0.3,0.8-0.4,1.3-0.4c0.1,0,0.3,0,0.4,0
			s0.2,0,0.3,0.1l-0.2,1.5l-0.9,0c-0.4,0-0.8,0.1-1.1,0.3c-0.3,0.2-0.5,0.5-0.7,0.9v5.2l1.4,0.2v1h-4.3v-1l1.4-0.2v-6.4L480.5,146.9
			z"/>
		<path class="st8" d="M490.6,143.6v2.2h1.7v1.2h-1.7v5.5c0,0.4,0.1,0.7,0.3,0.9c0.2,0.2,0.4,0.3,0.7,0.3c0.1,0,0.3,0,0.5,0
			c0.2,0,0.3-0.1,0.5-0.1l0.2,1.1c-0.2,0.1-0.4,0.2-0.7,0.2s-0.6,0.1-0.9,0.1c-0.7,0-1.2-0.2-1.6-0.6c-0.4-0.4-0.6-1-0.6-1.9V147
			h-1.4v-1.2h1.4v-2.2H490.6z"/>
	</g>
	<g>
		<path class="st8" d="M716.6,128.8h-1.2l-0.3-1.1c-0.2-0.2-0.4-0.3-0.8-0.5s-0.6-0.2-1-0.2c-0.6,0-1,0.1-1.3,0.4
			c-0.3,0.3-0.4,0.6-0.4,0.9c0,0.4,0.1,0.6,0.4,0.8c0.3,0.2,0.8,0.4,1.5,0.5c1.1,0.2,2,0.6,2.5,1c0.6,0.4,0.8,1,0.8,1.7
			c0,0.8-0.3,1.4-1,1.9s-1.5,0.7-2.5,0.7c-0.7,0-1.3-0.1-1.8-0.2c-0.5-0.2-1-0.4-1.5-0.7l0-2h1.2l0.3,1.2c0.2,0.2,0.4,0.3,0.8,0.4
			c0.3,0.1,0.7,0.1,1,0.1c0.6,0,1-0.1,1.4-0.4s0.5-0.5,0.5-0.9c0-0.4-0.1-0.7-0.4-0.9c-0.3-0.2-0.8-0.4-1.6-0.6
			c-1.1-0.2-1.9-0.6-2.5-1s-0.8-1-0.8-1.7c0-0.7,0.3-1.4,0.9-1.9c0.6-0.5,1.4-0.8,2.4-0.8c0.7,0,1.3,0.1,1.8,0.3s1,0.4,1.4,0.7
			L716.6,128.8z"/>
		<path class="st8" d="M722.5,135.1c-1.3,0-2.2-0.4-3-1.2c-0.7-0.8-1.1-1.9-1.1-3.2v-0.4c0-1.3,0.4-2.3,1.1-3.2s1.7-1.3,2.7-1.3
			c1.2,0,2.1,0.4,2.7,1.1c0.6,0.7,0.9,1.7,0.9,2.9v1h-5.8l0,0c0,0.9,0.2,1.6,0.7,2.1c0.4,0.6,1,0.8,1.8,0.8c0.6,0,1-0.1,1.5-0.2
			c0.4-0.2,0.8-0.4,1.1-0.7l0.6,1.1c-0.3,0.3-0.7,0.6-1.3,0.8S723.2,135.1,722.5,135.1z M722.2,127.1c-0.5,0-1,0.2-1.4,0.7
			s-0.6,1-0.7,1.7l0,0h4.1v-0.2c0-0.6-0.2-1.2-0.5-1.6C723.4,127.3,722.9,127.1,722.2,127.1z"/>
		<path class="st8" d="M727.5,127V126h2.8l0.2,1.3c0.3-0.5,0.6-0.8,0.9-1.1c0.4-0.3,0.8-0.4,1.3-0.4c0.1,0,0.3,0,0.4,0
			s0.2,0,0.3,0.1l-0.2,1.5l-0.9,0c-0.4,0-0.8,0.1-1.1,0.3c-0.3,0.2-0.5,0.5-0.7,0.9v5.2l1.4,0.2v1h-4.3v-1l1.4-0.2v-6.4L727.5,127z"
			/>
		<path class="st8" d="M737.8,127l-1.1,0.2l1.9,5.1l0.2,0.6h0l0.2-0.6l1.8-5.1l-1.1-0.2V126h3.5v1.1l-0.7,0.1l-3,7.8h-1.2l-3-7.8
			l-0.7-0.1V126h3.5V127z"/>
		<path class="st8" d="M748.2,135.1c-1.3,0-2.2-0.4-3-1.2c-0.7-0.8-1.1-1.9-1.1-3.2v-0.4c0-1.3,0.4-2.3,1.1-3.2s1.7-1.3,2.7-1.3
			c1.2,0,2.1,0.4,2.7,1.1c0.6,0.7,0.9,1.7,0.9,2.9v1h-5.8l0,0c0,0.9,0.2,1.6,0.7,2.1c0.4,0.6,1,0.8,1.8,0.8c0.6,0,1-0.1,1.5-0.2
			c0.4-0.2,0.8-0.4,1.1-0.7l0.6,1.1c-0.3,0.3-0.7,0.6-1.3,0.8S748.9,135.1,748.2,135.1z M747.9,127.1c-0.5,0-1,0.2-1.4,0.7
			s-0.6,1-0.7,1.7l0,0h4.1v-0.2c0-0.6-0.2-1.2-0.5-1.6C749.1,127.3,748.6,127.1,747.9,127.1z"/>
		<path class="st8" d="M753.2,127V126h2.8l0.2,1.3c0.3-0.5,0.6-0.8,0.9-1.1c0.4-0.3,0.8-0.4,1.3-0.4c0.1,0,0.3,0,0.4,0
			s0.2,0,0.3,0.1l-0.2,1.5l-0.9,0c-0.4,0-0.8,0.1-1.1,0.3c-0.3,0.2-0.5,0.5-0.7,0.9v5.2l1.4,0.2v1h-4.3v-1l1.4-0.2v-6.4L753.2,127z"
			/>
		<path class="st8" d="M713.8,154.3c0.5,0,1-0.2,1.4-0.5s0.6-0.7,0.6-1.2h1.5l0,0c0,0.8-0.3,1.5-1,2.1s-1.6,0.9-2.5,0.9
			c-1.3,0-2.3-0.4-3-1.3c-0.7-0.9-1-1.9-1-3.2v-0.3c0-1.3,0.3-2.3,1-3.2c0.7-0.9,1.7-1.3,3-1.3c0.7,0,1.4,0.1,1.9,0.4
			c0.6,0.2,1,0.6,1.4,1l0.1,2h-1.3l-0.4-1.4c-0.2-0.2-0.4-0.3-0.7-0.5c-0.3-0.1-0.6-0.2-1-0.2c-0.9,0-1.5,0.3-1.8,0.9
			s-0.6,1.4-0.6,2.3v0.3c0,0.9,0.2,1.7,0.5,2.3S712.9,154.3,713.8,154.3z"/>
		<path class="st8" d="M723,155.5c-1.3,0-2.2-0.4-3-1.2c-0.7-0.8-1.1-1.9-1.1-3.2v-0.4c0-1.3,0.4-2.3,1.1-3.2s1.7-1.3,2.7-1.3
			c1.2,0,2.1,0.4,2.7,1.1c0.6,0.7,0.9,1.7,0.9,2.9v1h-5.8l0,0c0,0.9,0.2,1.6,0.7,2.1c0.4,0.6,1,0.8,1.8,0.8c0.6,0,1-0.1,1.5-0.2
			c0.4-0.2,0.8-0.4,1.1-0.7l0.6,1.1c-0.3,0.3-0.7,0.6-1.3,0.8S723.7,155.5,723,155.5z M722.7,147.5c-0.5,0-1,0.2-1.4,0.7
			s-0.6,1-0.7,1.7l0,0h4.1v-0.2c0-0.6-0.2-1.2-0.5-1.6C723.9,147.7,723.4,147.5,722.7,147.5z"/>
		<path class="st8" d="M728,147.4v-1.1h2.8l0.2,1.3c0.3-0.5,0.6-0.8,0.9-1.1c0.4-0.3,0.8-0.4,1.3-0.4c0.1,0,0.3,0,0.4,0
			s0.2,0,0.3,0.1l-0.2,1.5l-0.9,0c-0.4,0-0.8,0.1-1.1,0.3c-0.3,0.2-0.5,0.5-0.7,0.9v5.2l1.4,0.2v1H728v-1l1.4-0.2v-6.4L728,147.4z"
			/>
		<path class="st8" d="M738.2,144.2v2.2h1.7v1.2h-1.7v5.5c0,0.4,0.1,0.7,0.3,0.9c0.2,0.2,0.4,0.3,0.7,0.3c0.1,0,0.3,0,0.5,0
			c0.2,0,0.3-0.1,0.5-0.1l0.2,1.1c-0.2,0.1-0.4,0.2-0.7,0.2s-0.6,0.1-0.9,0.1c-0.7,0-1.2-0.2-1.6-0.6c-0.4-0.4-0.6-1-0.6-1.9v-5.5
			h-1.4v-1.2h1.4v-2.2H738.2z"/>
	</g>
</g>
<g>
	<circle class="st0" cx="185.7" cy="145.7" r="112.8"/>
	<path id="SVGID_x5F_1_x5F_" class="st9" d="M185.7,19.6c69.6,0,126,56.4,126,126s-56.4,126-126,126s-126-56.4-126-126
		S116.1,19.6,185.7,19.6z"/>
	<text>	<textPath  xlink:href="#SVGID_x5F_1_x5F_" startOffset="116.276%">
<tspan  style="fill:#635483; font-size:17px;">10.10.10.3</tspan>	</textPath>
</text>
	<circle class="st1" cx="185.7" cy="145.7" r="112.8"/>
	<polygon class="st10" points="155.6,135.8 127.8,151.9 127.8,184.2 155.6,200.4 183.6,184.2 183.6,151.9 	"/>
	<g class="st11">
		<polygon class="st12" points="183.6,184.2 155.6,200.4 127.8,184.2 155.6,168.1 		"/>
		<polygon class="st12" points="183.6,151.9 183.6,184.2 155.6,168.1 155.6,135.8 		"/>
		<polygon class="st12" points="155.6,135.8 155.6,168.1 127.8,184.2 127.8,151.9 		"/>
	</g>
	<linearGradient id="SVGID_2_" gradientUnits="userSpaceOnUse" x1="135.7427" y1="168.0622" x2="175.6355" y2="168.0622">
		<stop  offset="0" style="stop-color:#981869"/>
		<stop  offset="0.1866" style="stop-color:#781C65"/>
		<stop  offset="0.4008" style="stop-color:#591F62"/>
		<stop  offset="0.6111" style="stop-color:#442260"/>
		<stop  offset="0.8137" style="stop-color:#37235F"/>
		<stop  offset="1" style="stop-color:#32245E"/>
	</linearGradient>
	<polygon class="st13" points="155.8,145 135.7,156.5 135.7,179.6 155.8,191.1 175.6,179.6 175.6,156.5 	"/>
	<circle class="st6" cx="155.8" cy="168.1" r="11.5"/>
	<g>
		<polygon class="st12" points="127.8,151.9 155.8,135.8 183.6,151.9 155.8,168.1 		"/>
		<polygon class="st12" points="127.8,184.2 127.8,151.9 155.8,168.1 155.8,200.4 		"/>
		<polygon class="st12" points="155.8,200.4 155.8,168.1 183.6,151.9 183.6,184.2 		"/>
	</g>
	<polygon class="st10" points="183.3,80.4 166.5,90.2 166.5,109.8 183.3,119.6 200.3,109.8 200.3,90.2 	"/>
	<g class="st11">
		<polygon class="st12" points="200.3,109.8 183.3,119.6 166.5,109.8 183.3,100 		"/>
		<polygon class="st12" points="200.3,90.2 200.3,109.8 183.3,100 183.3,80.4 		"/>
		<polygon class="st12" points="183.3,80.4 183.3,100 166.5,109.8 166.5,90.2 		"/>
	</g>
	<linearGradient id="SVGID_3_" gradientUnits="userSpaceOnUse" x1="171.3133" y1="100.0289" x2="195.5016" y2="100.0289">
		<stop  offset="0" style="stop-color:#981869"/>
		<stop  offset="0.1866" style="stop-color:#781C65"/>
		<stop  offset="0.4008" style="stop-color:#591F62"/>
		<stop  offset="0.6111" style="stop-color:#442260"/>
		<stop  offset="0.8137" style="stop-color:#37235F"/>
		<stop  offset="1" style="stop-color:#32245E"/>
	</linearGradient>
	<polygon class="st14" points="183.5,86 171.3,93 171.3,107 183.5,114 195.5,107 195.5,93 	"/>
	<circle class="st6" cx="183.5" cy="100" r="7"/>
	<g>
		<polygon class="st12" points="166.5,90.2 183.5,80.4 200.3,90.2 183.5,100 		"/>
		<polygon class="st12" points="166.5,109.8 166.5,90.2 183.5,100 183.5,119.6 		"/>
		<polygon class="st12" points="183.5,119.6 183.5,100 200.3,90.2 200.3,109.8 		"/>
	</g>
	<linearGradient id="SVGID_4_" gradientUnits="userSpaceOnUse" x1="221.1051" y1="157.025" x2="259.7061" y2="157.025">
		<stop  offset="0" style="stop-color:#981869"/>
		<stop  offset="0.1866" style="stop-color:#781C65"/>
		<stop  offset="0.4008" style="stop-color:#591F62"/>
		<stop  offset="0.6111" style="stop-color:#442260"/>
		<stop  offset="0.8137" style="stop-color:#37235F"/>
		<stop  offset="1" style="stop-color:#32245E"/>
	</linearGradient>
	<path class="st15" d="M259.7,161.8L259.7,161.8C259.7,161.6,259.7,161.6,259.7,161.8v-19.4h-38.6v19.4l0,0l0,0v0.4l0,0
		c0.4,5.3,9,9.5,19.2,9.5c10.4,0,18.8-4.2,19.2-9.5l0,0v-0.4H259.7z"/>
	<linearGradient id="SVGID_5_" gradientUnits="userSpaceOnUse" x1="221.1051" y1="142.5725" x2="259.8891" y2="142.5725">
		<stop  offset="0" style="stop-color:#981869"/>
		<stop  offset="0.1866" style="stop-color:#781C65"/>
		<stop  offset="0.4008" style="stop-color:#591F62"/>
		<stop  offset="0.6111" style="stop-color:#442260"/>
		<stop  offset="0.8137" style="stop-color:#37235F"/>
		<stop  offset="1" style="stop-color:#32245E"/>
	</linearGradient>
	<ellipse class="st16" cx="240.5" cy="142.6" rx="19.4" ry="9.9"/>
	<g>
		<path class="st6" d="M104.2,107.7l0,2.7l-1.4,0l-0.1-1.4l-2.7,0l-0.1,9.5l1.4,0.2l0,1l-4.3,0l0-1l1.4-0.2l0.1-9.5l-2.7,0l-0.1,1.4
			l-1.4,0l0-2.7L104.2,107.7z"/>
		<path class="st6" d="M104.9,119.8l0-1l1.4-0.2l0.1-9.5l-1.3-0.2l0-1.1l1.4,0l1.6,0l1.4,0l0,1.1L108,109l-0.1,9.5l4.2,0l0.1-1.4
			l1.4,0l0,2.7L104.9,119.8z"/>
		<path class="st6" d="M123.7,111.5l-1.2,0l-0.3-1.7c-0.2-0.2-0.6-0.4-1-0.5c-0.4-0.1-0.9-0.2-1.4-0.2c-0.9,0-1.5,0.2-2,0.5
			c-0.5,0.4-0.7,0.8-0.7,1.4c0,0.5,0.2,1,0.7,1.3c0.5,0.4,1.2,0.7,2.3,1c1.3,0.3,2.2,0.8,2.9,1.4c0.7,0.6,1,1.4,1,2.3
			c0,1-0.4,1.8-1.2,2.3c-0.8,0.6-1.8,0.9-3.1,0.9c-0.9,0-1.8-0.2-2.5-0.5c-0.7-0.3-1.3-0.7-1.8-1.2l0-2.2l1.2,0l0.3,1.7
			c0.3,0.3,0.7,0.5,1.1,0.7s1,0.3,1.6,0.3c0.8,0,1.5-0.2,2-0.5c0.5-0.3,0.7-0.8,0.7-1.4c0-0.6-0.2-1-0.6-1.4c-0.4-0.4-1.1-0.7-2.2-1
			c-1.3-0.3-2.3-0.8-3-1.4s-1.1-1.3-1.1-2.2c0-0.9,0.4-1.7,1.2-2.3s1.9-0.9,3.1-0.9c0.8,0,1.6,0.2,2.3,0.5c0.7,0.3,1.2,0.7,1.7,1.1
			L123.7,111.5z"/>
	</g>
	<line class="st7" x1="179.5" y1="103.8" x2="159.3" y2="155.9"/>
	<path class="st5" d="M220.2,113.2l-30.6,79.1c-7.8,20.3-30.6,30.3-50.9,22.5l-1.5-0.6c-20.3-7.8-30.3-30.6-22.5-50.9l30.6-79.1
		c7.8-20.3,30.6-30.3,50.9-22.5l1.5,0.6C218,70.2,228.1,93,220.2,113.2z"/>
</g>
</svg>
