<svg xmlns="http://www.w3.org/2000/svg" xmlns:xlink="http://www.w3.org/1999/xlink" viewBox="0 0 755.08 188.72"><defs><style>.cls-1,.cls-9{fill:#ffcc03;}.cls-1{opacity:0.25;}.cls-11,.cls-2,.cls-5{fill:none;}.cls-2{stroke:#981869;stroke-width:3px;}.cls-16,.cls-17,.cls-18,.cls-19,.cls-2{stroke-miterlimit:10;}.cls-3{fill:#fff;}.cls-4{opacity:0.4;}.cls-16,.cls-17,.cls-18,.cls-19,.cls-5{stroke:#ffcc03;stroke-width:2px;}.cls-11,.cls-5{stroke-linecap:round;stroke-linejoin:round;}.cls-6{fill:url(#Unbenannter_Verlauf_12);}.cls-7{fill:#518ecb;}.cls-8{fill:#221a40;}.cls-10{fill:#981869;}.cls-11{stroke:#32245e;stroke-width:0.3px;}.cls-12{fill:#32245e;}.cls-13{fill:#635384;}.cls-14{fill:#fdfeff;}.cls-15{fill:url(#Unbenannter_Verlauf_12-2);}.cls-16{fill:url(#Unbenannter_Verlauf_12-3);}.cls-17{fill:url(#Unbenannter_Verlauf_12-4);}.cls-18{fill:url(#Unbenannter_Verlauf_12-5);}.cls-19{fill:url(#Unbenannter_Verlauf_12-6);}</style><linearGradient id="Unbenannter_Verlauf_12" x1="559.31" y1="95.12" x2="595.02" y2="95.12" gradientUnits="userSpaceOnUse"><stop offset="0" stop-color="#981869"/><stop offset="0.19" stop-color="#771c65"/><stop offset="0.4" stop-color="#591f62"/><stop offset="0.61" stop-color="#432260"/><stop offset="0.81" stop-color="#36235e"/><stop offset="1" stop-color="#32245e"/></linearGradient><linearGradient id="Unbenannter_Verlauf_12-2" x1="42.41" y1="103.48" x2="75.27" y2="103.48" xlink:href="#Unbenannter_Verlauf_12"/><linearGradient id="Unbenannter_Verlauf_12-3" x1="107.82" y1="109.95" x2="142.57" y2="109.95" xlink:href="#Unbenannter_Verlauf_12"/><linearGradient id="Unbenannter_Verlauf_12-4" x1="99.52" y1="95.81" x2="134.43" y2="95.81" xlink:href="#Unbenannter_Verlauf_12"/><linearGradient id="Unbenannter_Verlauf_12-5" x1="332.73" y1="109.95" x2="367.47" y2="109.95" xlink:href="#Unbenannter_Verlauf_12"/><linearGradient id="Unbenannter_Verlauf_12-6" x1="324.43" y1="95.81" x2="359.33" y2="95.81" xlink:href="#Unbenannter_Verlauf_12"/></defs><g id="Ebene_2" data-name="Ebene 2"><g id="Ebene_1-2" data-name="Ebene 1"><circle class="cls-1" cx="577.21" cy="95.12" r="64.39"/><circle class="cls-2" cx="577.35" cy="95.12" r="64.39"/><polygon class="cls-3" points="552.25 80.67 577.37 66.21 602.25 80.67 577.37 95.12 552.25 80.67"/><polygon class="cls-3" points="552.25 109.58 552.25 80.67 577.37 95.12 577.37 124.04 552.25 109.58"/><polygon class="cls-3" points="577.37 124.04 577.37 95.12 602.25 80.67 602.25 109.58 577.37 124.04"/><g class="cls-4"><polygon class="cls-5" points="602.17 109.58 577.04 124.04 552.16 109.58 577.04 95.12 602.17 109.58"/><polygon class="cls-5" points="602.17 80.67 602.17 109.58 577.04 95.12 577.04 66.21 602.17 80.67"/><polygon class="cls-5" points="577.04 66.21 577.04 95.12 552.16 109.58 552.16 80.67 577.04 66.21"/></g><polygon class="cls-6" points="577.25 74.47 559.31 84.8 559.31 105.45 577.25 115.77 595.02 105.45 595.02 84.8 577.25 74.47"/><circle class="cls-7" cx="577.28" cy="95.12" r="10.26"/><polygon class="cls-5" points="552.16 80.67 577.28 66.21 602.17 80.67 577.28 95.12 552.16 80.67"/><polygon class="cls-5" points="552.16 109.58 552.16 80.67 577.28 95.12 577.28 124.04 552.16 109.58"/><polygon class="cls-5" points="577.28 124.04 577.28 95.12 602.17 80.67 602.17 109.58 577.28 124.04"/><path class="cls-8" d="M572,182.94a3.79,3.79,0,0,1-2.14-.57,3.43,3.43,0,0,1-1.29-1.54,5.4,5.4,0,0,1-.43-2.22v-.12a5.25,5.25,0,0,1,.45-2.23,3.63,3.63,0,0,1,1.3-1.54,3.57,3.57,0,0,1,2-.56,4.27,4.27,0,0,1,1.51.26,3.67,3.67,0,0,1,1.14.65v1.84h-.92l-.12-1.34a2,2,0,0,0-.43-.25,2.39,2.39,0,0,0-.54-.15,3.24,3.24,0,0,0-.64-.06,2.35,2.35,0,0,0-1.42.43,2.68,2.68,0,0,0-.88,1.19,4.75,4.75,0,0,0-.3,1.75v.13a4.72,4.72,0,0,0,.32,1.83,2.46,2.46,0,0,0,.93,1.16,2.65,2.65,0,0,0,1.49.4,3,3,0,0,0,.8-.1,2.39,2.39,0,0,0,.66-.26l.12-1.19h.91v1.85a4,4,0,0,1-1.15.47A5.79,5.79,0,0,1,572,182.94Z" transform="translate(-8.3 -1.13)"/><path class="cls-8" d="M579.53,182.94a3.77,3.77,0,0,1-2.14-.57,3.43,3.43,0,0,1-1.29-1.54,5.4,5.4,0,0,1-.43-2.22v-.12a5.25,5.25,0,0,1,.45-2.23,3.68,3.68,0,0,1,1.29-1.54,3.62,3.62,0,0,1,2-.56,4.31,4.31,0,0,1,1.51.26,3.67,3.67,0,0,1,1.14.65v1.84h-.92l-.12-1.34a1.87,1.87,0,0,0-.44-.25,2.18,2.18,0,0,0-.53-.15,3.34,3.34,0,0,0-.65-.06,2.34,2.34,0,0,0-1.41.43,2.68,2.68,0,0,0-.88,1.19,4.75,4.75,0,0,0-.3,1.75v.13a4.54,4.54,0,0,0,.32,1.83,2.46,2.46,0,0,0,.93,1.16,2.63,2.63,0,0,0,1.49.4,3.08,3.08,0,0,0,.8-.1,2.2,2.2,0,0,0,.65-.26l.13-1.19h.9v1.85a4,4,0,0,1-1.14.47A5.79,5.79,0,0,1,579.53,182.94Z" transform="translate(-8.3 -1.13)"/><path class="cls-8" d="M586.22,182.81v-.73l.95-.17v-6.72l-.95-.16v-.75h3.92a3.51,3.51,0,0,1,1.55.32,2.28,2.28,0,0,1,1,.9,2.81,2.81,0,0,1,0,2.68,2.34,2.34,0,0,1-1,.9,3.51,3.51,0,0,1-1.55.31h-1.82v2.52l1,.17v.73Zm2.1-4.32h1.82a1.67,1.67,0,0,0,1.29-.47,1.64,1.64,0,0,0,.43-1.17,1.67,1.67,0,0,0-.43-1.18,1.64,1.64,0,0,0-1.29-.48h-1.82Z" transform="translate(-8.3 -1.13)"/><path class="cls-8" d="M596.52,182.94a2.67,2.67,0,0,1-1.51-.42,2.61,2.61,0,0,1-1-1.14,3.87,3.87,0,0,1-.35-1.67v-.13a3.82,3.82,0,0,1,.35-1.66,2.6,2.6,0,0,1,2.48-1.56,2.63,2.63,0,0,1,2.5,1.56,3.82,3.82,0,0,1,.34,1.66v.13a3.91,3.91,0,0,1-.34,1.68,2.8,2.8,0,0,1-1,1.14A2.75,2.75,0,0,1,596.52,182.94Zm0-.91a1.39,1.39,0,0,0,.92-.3,1.89,1.89,0,0,0,.57-.82,3.68,3.68,0,0,0,.19-1.2v-.13a3.67,3.67,0,0,0-.19-1.19,1.84,1.84,0,0,0-.57-.82,1.55,1.55,0,0,0-1.86,0,1.82,1.82,0,0,0-.56.82,3.67,3.67,0,0,0-.19,1.19v.13a3.68,3.68,0,0,0,.19,1.2,1.89,1.89,0,0,0,.57.82A1.44,1.44,0,0,0,596.52,182Z" transform="translate(-8.3 -1.13)"/><path class="cls-8" d="M602.94,182.94a2.25,2.25,0,0,1-1.33-.39,2.41,2.41,0,0,1-.85-1.07,4.12,4.12,0,0,1-.29-1.6v-.12a5.17,5.17,0,0,1,.29-1.79,2.67,2.67,0,0,1,.85-1.19,2.16,2.16,0,0,1,1.34-.42,2.22,2.22,0,0,1,1,.2,2.06,2.06,0,0,1,.74.61v-2.59l-1-.16v-.75h2.11v8.24l1,.17v.73h-2l-.09-.75a2,2,0,0,1-.76.65A2.31,2.31,0,0,1,602.94,182.94Zm.29-.94a1.53,1.53,0,0,0,.87-.24,1.71,1.71,0,0,0,.58-.66v-2.94a1.76,1.76,0,0,0-.58-.63,1.52,1.52,0,0,0-.86-.24,1.35,1.35,0,0,0-.91.32,1.94,1.94,0,0,0-.53.86,4.2,4.2,0,0,0-.17,1.29v.12a2.72,2.72,0,0,0,.39,1.54A1.34,1.34,0,0,0,603.23,182Z" transform="translate(-8.3 -1.13)"/><path class="cls-9" d="M712.61,72.93a2.85,2.85,0,0,1-1.5-.4,2.63,2.63,0,0,1-1-1.12,3.77,3.77,0,0,1-.35-1.65v-.25a3.7,3.7,0,0,1,.34-1.62,2.69,2.69,0,0,1,1-1.13,2.76,2.76,0,0,1,1.52-.41,3.27,3.27,0,0,1,1.34.25,2.76,2.76,0,0,1,1,.69l0,1.52h-.9l-.2-1.1a1.37,1.37,0,0,0-.5-.33,1.86,1.86,0,0,0-.7-.13,1.44,1.44,0,0,0-.9.31,1.94,1.94,0,0,0-.61.81,2.79,2.79,0,0,0-.22,1.14v.25a3.35,3.35,0,0,0,.2,1.2,1.83,1.83,0,0,0,.58.79,1.54,1.54,0,0,0,.9.27,1.46,1.46,0,0,0,1-.32,1.41,1.41,0,0,0,.47-.88h1v0a2.15,2.15,0,0,1-.32,1,2.24,2.24,0,0,1-.84.77A2.81,2.81,0,0,1,712.61,72.93Z" transform="translate(-8.3 -1.13)"/><path class="cls-9" d="M719,72.93a2.71,2.71,0,0,1-1.52-.42,2.67,2.67,0,0,1-1-1.14,3.83,3.83,0,0,1-.34-1.67v-.12a3.86,3.86,0,0,1,.34-1.67,2.73,2.73,0,0,1,5,0,3.83,3.83,0,0,1,.35,1.67v.12a3.91,3.91,0,0,1-.35,1.68A2.61,2.61,0,0,1,719,72.93Zm0-.91a1.41,1.41,0,0,0,.92-.3,1.75,1.75,0,0,0,.56-.82,3.44,3.44,0,0,0,.19-1.2v-.12a3.44,3.44,0,0,0-.19-1.2,1.75,1.75,0,0,0-.56-.82,1.55,1.55,0,0,0-1.86,0,1.75,1.75,0,0,0-.56.82,3.44,3.44,0,0,0-.19,1.2v.12a3.44,3.44,0,0,0,.19,1.2,1.75,1.75,0,0,0,.56.82A1.49,1.49,0,0,0,719,72Z" transform="translate(-8.3 -1.13)"/><path class="cls-9" d="M722.73,72.8v-.73l.95-.17V67.37l-.95-.16v-.75h2l.08,1a2.18,2.18,0,0,1,.79-.78,2.35,2.35,0,0,1,2.68.32,2.66,2.66,0,0,1,.56,1.85v3.1l.95.17v.73h-3.06v-.73l.95-.17V68.83a1.71,1.71,0,0,0-.33-1.19,1.3,1.3,0,0,0-1-.36,1.64,1.64,0,0,0-.88.24,1.69,1.69,0,0,0-.61.66V71.9l.95.17v.73Z" transform="translate(-8.3 -1.13)"/><path class="cls-9" d="M732.6,72.9a1.46,1.46,0,0,1-1.11-.41,1.79,1.79,0,0,1-.42-1.32V67.32h-1v-.86h1V64.93h1.16v1.53h1.37v.86h-1.37v3.85a1,1,0,0,0,.18.67.58.58,0,0,0,.48.22,2.6,2.6,0,0,0,.46,0,3.62,3.62,0,0,0,.39-.07l.16.76a3.69,3.69,0,0,1-.62.13A4.18,4.18,0,0,1,732.6,72.9Z" transform="translate(-8.3 -1.13)"/><path class="cls-9" d="M736.69,72.93a2.07,2.07,0,0,1-1.5-.49A1.95,1.95,0,0,1,735,70a2.15,2.15,0,0,1,1-.7,4.2,4.2,0,0,1,1.5-.25h1.13v-.62a1.15,1.15,0,0,0-.35-.89,1.41,1.41,0,0,0-1-.32,2.29,2.29,0,0,0-.69.1,1.89,1.89,0,0,0-.53.27l-.13.88H735V67.05a3.07,3.07,0,0,1,1-.52,4.17,4.17,0,0,1,1.26-.18,2.72,2.72,0,0,1,1.81.55,1.91,1.91,0,0,1,.65,1.57v3.06c0,.08,0,.16,0,.24a1.85,1.85,0,0,0,0,.23l.62.07v.73h-1.66c0-.17-.06-.32-.08-.46a2.85,2.85,0,0,1,0-.41,2.89,2.89,0,0,1-.84.71A2.12,2.12,0,0,1,736.69,72.93Zm.17-1a2,2,0,0,0,1-.28,1.67,1.67,0,0,0,.68-.66V69.87h-1.17a1.71,1.71,0,0,0-1.2.38,1.19,1.19,0,0,0-.4.85.81.81,0,0,0,.26.64A1.15,1.15,0,0,0,736.86,72Z" transform="translate(-8.3 -1.13)"/><path class="cls-9" d="M741.23,72.8v-.73l1-.17V67.37l-1-.16v-.75h2.11V71.9l1,.17v.73Zm.9-7.9V63.66h1.21V64.9Z" transform="translate(-8.3 -1.13)"/><path class="cls-9" d="M745.09,72.8v-.73l1-.17V67.37l-1-.16v-.75h2l.08,1a2.21,2.21,0,0,1,.8-.78,2.33,2.33,0,0,1,2.67.32,2.61,2.61,0,0,1,.56,1.85v3.1l1,.17v.73h-3.07v-.73l1-.17V68.83a1.71,1.71,0,0,0-.33-1.19,1.31,1.31,0,0,0-1-.36,1.61,1.61,0,0,0-.88.24,1.79,1.79,0,0,0-.62.66V71.9l1,.17v.73Z" transform="translate(-8.3 -1.13)"/><path class="cls-9" d="M755.76,72.93a3,3,0,0,1-1.53-.4,2.72,2.72,0,0,1-1-1.12,3.64,3.64,0,0,1-.35-1.65V69.5a3.38,3.38,0,0,1,.37-1.61,3,3,0,0,1,1-1.13,2.41,2.41,0,0,1,1.35-.41,2.64,2.64,0,0,1,1.43.35,2.1,2.1,0,0,1,.87,1,3.45,3.45,0,0,1,.29,1.49v.72h-4.11l0,0a2.77,2.77,0,0,0,.22,1.08,1.61,1.61,0,0,0,.58.74,1.53,1.53,0,0,0,.91.27,2.93,2.93,0,0,0,1-.16,2.46,2.46,0,0,0,.77-.46l.45.75a2.81,2.81,0,0,1-.9.55A3.59,3.59,0,0,1,755.76,72.93ZM754.11,69H757v-.15a1.94,1.94,0,0,0-.16-.82,1.34,1.34,0,0,0-.48-.57,1.51,1.51,0,0,0-.8-.21,1.17,1.17,0,0,0-.7.23,1.67,1.67,0,0,0-.53.61,2.93,2.93,0,0,0-.27.88Z" transform="translate(-8.3 -1.13)"/><path class="cls-9" d="M759.07,72.8v-.73l.95-.17V67.37l-.95-.16v-.75h2l.1.81,0,.11a2.34,2.34,0,0,1,.66-.76,1.57,1.57,0,0,1,.91-.27l.37,0,.27.06-.15,1.07-.8,0a1.15,1.15,0,0,0-.77.2,1.49,1.49,0,0,0-.48.64V71.9l1,.17v.73Z" transform="translate(-8.3 -1.13)"/><path class="cls-10" d="M712.63,87.33a3,3,0,0,1-1.53-.4,2.72,2.72,0,0,1-1-1.12,3.64,3.64,0,0,1-.36-1.65V83.9a3.39,3.39,0,0,1,.38-1.61,2.87,2.87,0,0,1,1-1.13,2.41,2.41,0,0,1,1.35-.41,2.64,2.64,0,0,1,1.43.35,2.22,2.22,0,0,1,.87,1,3.45,3.45,0,0,1,.29,1.49v.72h-4.11l0,0a2.86,2.86,0,0,0,.22,1.09,1.72,1.72,0,0,0,.58.74,1.6,1.6,0,0,0,.91.26,2.93,2.93,0,0,0,1-.16,2.46,2.46,0,0,0,.77-.46l.45.75a2.81,2.81,0,0,1-.9.55A3.63,3.63,0,0,1,712.63,87.33ZM711,83.4h2.93v-.15a2.1,2.1,0,0,0-.16-.82,1.34,1.34,0,0,0-.48-.57,1.53,1.53,0,0,0-.8-.2,1.22,1.22,0,0,0-.71.22,1.83,1.83,0,0,0-.52.61,2.93,2.93,0,0,0-.27.88Z" transform="translate(-8.3 -1.13)"/><path class="cls-10" d="M716,87.2v-.73l.95-.17V81.77l-.95-.16v-.75h2l.08,1a2.18,2.18,0,0,1,.79-.78,2.35,2.35,0,0,1,2.68.32,2.66,2.66,0,0,1,.56,1.85v3.1l1,.17v.73h-3.06v-.73l.95-.17V83.23a1.71,1.71,0,0,0-.33-1.19,1.3,1.3,0,0,0-1-.36,1.64,1.64,0,0,0-.88.24,1.77,1.77,0,0,0-.61.66V86.3l1,.17v.73Z" transform="translate(-8.3 -1.13)"/><path class="cls-10" d="M726.63,87.33a2.8,2.8,0,0,1-1.5-.4,2.63,2.63,0,0,1-1-1.12,3.64,3.64,0,0,1-.36-1.65v-.25a3.85,3.85,0,0,1,.34-1.62,2.63,2.63,0,0,1,2.51-1.54A3.27,3.27,0,0,1,728,81a2.85,2.85,0,0,1,1,.69l0,1.52h-.9l-.2-1.1a1.45,1.45,0,0,0-.5-.33,1.86,1.86,0,0,0-.7-.12,1.44,1.44,0,0,0-.91.3,2,2,0,0,0-.61.81,3,3,0,0,0-.21,1.14v.25a3.35,3.35,0,0,0,.2,1.2,1.76,1.76,0,0,0,.58.79,1.5,1.5,0,0,0,.9.27,1.44,1.44,0,0,0,1-.32,1.37,1.37,0,0,0,.48-.88h1l0,0a2.05,2.05,0,0,1-.33,1A2.14,2.14,0,0,1,728,87,2.84,2.84,0,0,1,726.63,87.33Z" transform="translate(-8.3 -1.13)"/><path class="cls-10" d="M730,87.2v-.73l1-.17V79l-1-.16v-.75h2.11V86.3l1,.17v.73Z" transform="translate(-8.3 -1.13)"/><path class="cls-10" d="M735.89,87.33a2.11,2.11,0,0,1-1.51-.49,1.77,1.77,0,0,1-.51-1.36,1.73,1.73,0,0,1,.33-1,2.15,2.15,0,0,1,1-.7,4.13,4.13,0,0,1,1.5-.25h1.13v-.62a1.15,1.15,0,0,0-.35-.89,1.41,1.41,0,0,0-1-.31,2.31,2.31,0,0,0-.69.09,2.27,2.27,0,0,0-.54.27l-.12.88h-.89V81.45a3,3,0,0,1,1-.52,4.06,4.06,0,0,1,1.25-.18,2.75,2.75,0,0,1,1.82.55,2,2,0,0,1,.65,1.57v3.3c0,.08,0,.15,0,.23l.61.07v.73h-1.65c0-.17-.07-.32-.09-.46s0-.27,0-.41A2.72,2.72,0,0,1,737,87,2.15,2.15,0,0,1,735.89,87.33Zm.17-1a2,2,0,0,0,1.05-.28,1.73,1.73,0,0,0,.68-.66V84.27h-1.17a1.65,1.65,0,0,0-1.2.39,1.12,1.12,0,0,0-.4.84.79.79,0,0,0,.26.64A1.15,1.15,0,0,0,736.06,86.36Z" transform="translate(-8.3 -1.13)"/><path class="cls-10" d="M743,87.2l-2.25-5.5-.66-.09v-.75h2.66v.75l-.82.12,1.4,3.6.17.51h0l.19-.51,1.31-3.6-.85-.12v-.75h2.65v.75l-.67.09L744,87.2Z" transform="translate(-8.3 -1.13)"/><path class="cls-10" d="M750.19,87.33a3,3,0,0,1-1.53-.4,2.65,2.65,0,0,1-1-1.12,3.64,3.64,0,0,1-.36-1.65V83.9a3.39,3.39,0,0,1,.38-1.61,2.87,2.87,0,0,1,1-1.13,2.41,2.41,0,0,1,1.35-.41,2.66,2.66,0,0,1,1.43.35,2.22,2.22,0,0,1,.87,1,3.6,3.6,0,0,1,.29,1.49v.72H748.5l0,0a3.07,3.07,0,0,0,.21,1.09,1.74,1.74,0,0,0,.59.74,1.6,1.6,0,0,0,.91.26,2.93,2.93,0,0,0,1-.16,2.41,2.41,0,0,0,.76-.46l.46.75a2.81,2.81,0,0,1-.9.55A3.63,3.63,0,0,1,750.19,87.33Zm-1.66-3.93h2.93v-.15a2.1,2.1,0,0,0-.16-.82,1.34,1.34,0,0,0-.48-.57,1.53,1.53,0,0,0-.8-.2,1.19,1.19,0,0,0-.71.22,1.83,1.83,0,0,0-.52.61,2.45,2.45,0,0,0-.27.88Z" transform="translate(-8.3 -1.13)"/><path class="cls-7" d="M712.31,101.73a5.63,5.63,0,0,1-1.19-.13,7.24,7.24,0,0,1-1.19-.4V99.69h.87l.22.91a3.15,3.15,0,0,0,1.3.26,1.51,1.51,0,0,0,1-.27.86.86,0,0,0,.3-.67.8.8,0,0,0-.3-.63,2.81,2.81,0,0,0-1.12-.45,4.14,4.14,0,0,1-1.69-.7A1.46,1.46,0,0,1,710,97a1.54,1.54,0,0,1,.3-.93,2,2,0,0,1,.83-.64,3,3,0,0,1,1.24-.24,4,4,0,0,1,1.23.16,3.28,3.28,0,0,1,.9.44l.06,1.45h-.87l-.19-.85a1.48,1.48,0,0,0-.49-.23,2.43,2.43,0,0,0-.64-.08,1.43,1.43,0,0,0-.88.25.77.77,0,0,0-.33.63.65.65,0,0,0,.47.68,4.29,4.29,0,0,0,.8.27,4.13,4.13,0,0,1,1.85.79,1.54,1.54,0,0,1,.53,1.18,1.72,1.72,0,0,1-.6,1.34A2.66,2.66,0,0,1,712.31,101.73Z" transform="translate(-8.3 -1.13)"/><path class="cls-7" d="M718.62,101.73a3,3,0,0,1-1.53-.4,2.65,2.65,0,0,1-1-1.12,3.64,3.64,0,0,1-.36-1.65V98.3a3.58,3.58,0,0,1,.37-1.62,3,3,0,0,1,1-1.12,2.39,2.39,0,0,1,1.36-.41,2.66,2.66,0,0,1,1.43.35,2.22,2.22,0,0,1,.87,1A3.6,3.6,0,0,1,721,98v.72h-4.11l0,0a3,3,0,0,0,.21,1.08,1.71,1.71,0,0,0,.59.75,1.53,1.53,0,0,0,.91.27,3,3,0,0,0,1-.17,2.41,2.41,0,0,0,.76-.46l.46.75a2.81,2.81,0,0,1-.9.55A3.67,3.67,0,0,1,718.62,101.73ZM717,97.8h2.93v-.15a2.1,2.1,0,0,0-.16-.82,1.34,1.34,0,0,0-.48-.57,1.44,1.44,0,0,0-.8-.2,1.19,1.19,0,0,0-.71.22,1.83,1.83,0,0,0-.52.61,2.45,2.45,0,0,0-.27.88Z" transform="translate(-8.3 -1.13)"/><path class="cls-7" d="M721.93,101.6v-.73l1-.17V96.17l-1-.16v-.75h2l.1.81v.11a2.37,2.37,0,0,1,.67-.76,1.54,1.54,0,0,1,.9-.27,2.43,2.43,0,0,1,.38,0l.27.06-.15,1.07-.81,0a1.12,1.12,0,0,0-.76.2,1.49,1.49,0,0,0-.48.64v3.59l1,.17v.73Z" transform="translate(-8.3 -1.13)"/><path class="cls-7" d="M729.68,101.6l-2.26-5.5-.65-.09v-.75h2.66V96l-.83.12L730,99.74l.16.51h0l.18-.51,1.31-3.61-.85-.12v-.75h2.65V96l-.66.09-2.15,5.5Z" transform="translate(-8.3 -1.13)"/><path class="cls-7" d="M734.07,101.6v-.73l1-.17V96.17l-1-.16v-.75h2.11v5.44l1,.17v.73Zm.9-7.9V92.46h1.21V93.7Z" transform="translate(-8.3 -1.13)"/><path class="cls-7" d="M740.8,101.73a2.8,2.8,0,0,1-1.5-.4,2.63,2.63,0,0,1-1-1.12,3.64,3.64,0,0,1-.35-1.65v-.25a3.7,3.7,0,0,1,.34-1.62,2.69,2.69,0,0,1,1-1.13,2.76,2.76,0,0,1,1.52-.41,3.27,3.27,0,0,1,1.34.25,2.76,2.76,0,0,1,1,.69l0,1.52h-.9l-.2-1.1a1.37,1.37,0,0,0-.5-.33,1.86,1.86,0,0,0-.7-.12,1.46,1.46,0,0,0-.91.3,2,2,0,0,0-.6.81,2.79,2.79,0,0,0-.22,1.14v.25a3.35,3.35,0,0,0,.2,1.2,1.83,1.83,0,0,0,.58.79,1.55,1.55,0,0,0,.9.28,1.47,1.47,0,0,0,1-.33,1.41,1.41,0,0,0,.47-.88h1v0a2.15,2.15,0,0,1-.32,1,2.24,2.24,0,0,1-.84.77A2.81,2.81,0,0,1,740.8,101.73Z" transform="translate(-8.3 -1.13)"/><path class="cls-7" d="M747.22,101.73a3,3,0,0,1-1.53-.4,2.65,2.65,0,0,1-1-1.12,3.64,3.64,0,0,1-.36-1.65V98.3a3.58,3.58,0,0,1,.37-1.62,3,3,0,0,1,1-1.12,2.39,2.39,0,0,1,1.36-.41,2.66,2.66,0,0,1,1.43.35,2.22,2.22,0,0,1,.87,1,3.6,3.6,0,0,1,.29,1.49v.72h-4.11l0,0a3,3,0,0,0,.21,1.08,1.71,1.71,0,0,0,.59.75,1.53,1.53,0,0,0,.91.27,3,3,0,0,0,1-.17,2.41,2.41,0,0,0,.76-.46l.46.75a2.81,2.81,0,0,1-.9.55A3.67,3.67,0,0,1,747.22,101.73Zm-1.66-3.93h2.93v-.15a2.1,2.1,0,0,0-.16-.82,1.3,1.3,0,0,0-.49-.57,1.39,1.39,0,0,0-.79-.2,1.19,1.19,0,0,0-.71.22,1.83,1.83,0,0,0-.52.61,2.45,2.45,0,0,0-.27.88Z" transform="translate(-8.3 -1.13)"/><line class="cls-11" x1="692.37" y1="96.58" x2="583.31" y2="96.58"/><line class="cls-11" x1="692.37" y1="82.43" x2="587.54" y2="82.43"/><line class="cls-11" x1="692.37" y1="68.28" x2="583.31" y2="68.28"/><path class="cls-12" d="M314.16,164.46A1.51,1.51,0,0,1,313,164a1.77,1.77,0,0,1-.41-1.32v-3.85h-1V158h1v-1.53h1.15V158h1.38v.85h-1.38v3.85a1.06,1.06,0,0,0,.18.68.62.62,0,0,0,.49.21l.46,0,.39-.07.16.75a3.84,3.84,0,0,1-.62.14A4.27,4.27,0,0,1,314.16,164.46Z" transform="translate(-8.3 -1.13)"/><path class="cls-12" d="M316.18,164.36v-.74l1-.16v-4.53l-1-.17V158h2l.1.81v.11a2.08,2.08,0,0,1,.67-.76,1.48,1.48,0,0,1,.9-.28,2.31,2.31,0,0,1,.37,0l.28.07-.16,1.07-.8,0a1.11,1.11,0,0,0-.77.21,1.7,1.7,0,0,0-.48.63v3.6l1,.16v.74Z" transform="translate(-8.3 -1.13)"/><path class="cls-12" d="M323.25,164.48a2.16,2.16,0,0,1-1.51-.48,1.79,1.79,0,0,1-.51-1.36,1.74,1.74,0,0,1,.33-1.06,2.13,2.13,0,0,1,1-.69,4,4,0,0,1,1.5-.25h1.13V160a1.14,1.14,0,0,0-.35-.89,1.41,1.41,0,0,0-1-.32,2,2,0,0,0-.69.1,1.93,1.93,0,0,0-.54.26l-.12.89h-.89V158.6a3.07,3.07,0,0,1,1-.52,4.17,4.17,0,0,1,1.26-.18,2.72,2.72,0,0,1,1.81.55,2,2,0,0,1,.65,1.58v3.05a1.93,1.93,0,0,0,0,.24,1.93,1.93,0,0,0,0,.24l.62.06v.74h-1.66c0-.17-.06-.33-.08-.46s0-.28-.05-.41a2.87,2.87,0,0,1-.83.71A2.11,2.11,0,0,1,323.25,164.48Zm.17-1a2.11,2.11,0,0,0,1.05-.27,1.73,1.73,0,0,0,.68-.66v-1.15H324a1.71,1.71,0,0,0-1.2.38,1.17,1.17,0,0,0-.4.85.77.77,0,0,0,.26.63A1.15,1.15,0,0,0,323.42,163.51Z" transform="translate(-8.3 -1.13)"/><path class="cls-12" d="M327.83,164.36v-.74l1-.16v-4.53l-1-.17V158h2l.08.94a2.45,2.45,0,0,1,.79-.78,2.11,2.11,0,0,1,1.09-.28,2.07,2.07,0,0,1,1.59.6,2.67,2.67,0,0,1,.56,1.86v3.1l1,.16v.74h-3.07v-.74l1-.16v-3.08a1.71,1.71,0,0,0-.33-1.19,1.34,1.34,0,0,0-1-.35,1.65,1.65,0,0,0-.89.24,1.77,1.77,0,0,0-.61.66v3.72l1,.16v.74Z" transform="translate(-8.3 -1.13)"/><path class="cls-12" d="M338.27,164.48a5.08,5.08,0,0,1-1.2-.13,6.58,6.58,0,0,1-1.18-.4v-1.5h.87l.22.91a3.43,3.43,0,0,0,.63.19,3.55,3.55,0,0,0,.67.06,1.53,1.53,0,0,0,1-.27.84.84,0,0,0,.3-.66.79.79,0,0,0-.31-.64,2.7,2.7,0,0,0-1.11-.44,4.13,4.13,0,0,1-1.69-.71,1.42,1.42,0,0,1-.55-1.18,1.51,1.51,0,0,1,.3-.92,2.1,2.1,0,0,1,.83-.65,3,3,0,0,1,1.25-.24,4,4,0,0,1,1.23.17,3,3,0,0,1,.89.43l.06,1.45h-.86l-.19-.84a1.72,1.72,0,0,0-.49-.24,2.49,2.49,0,0,0-.64-.08,1.5,1.5,0,0,0-.88.25.78.78,0,0,0-.34.64.77.77,0,0,0,.1.38.9.9,0,0,0,.37.3,4.85,4.85,0,0,0,.81.26,4.3,4.3,0,0,1,1.85.79,1.54,1.54,0,0,1,.52,1.18,1.73,1.73,0,0,1-.59,1.35A2.73,2.73,0,0,1,338.27,164.48Z" transform="translate(-8.3 -1.13)"/><path class="cls-12" d="M341.51,166.8v-.75l.9-.16v-7l-1-.17V158h1.94l.11.77a2,2,0,0,1,.77-.66,2.32,2.32,0,0,1,1.05-.23,2.11,2.11,0,0,1,1.34.43,2.67,2.67,0,0,1,.85,1.19,4.87,4.87,0,0,1,.29,1.79v.12a4.15,4.15,0,0,1-.29,1.6,2.46,2.46,0,0,1-.85,1.07,2.3,2.3,0,0,1-1.32.38,2.53,2.53,0,0,1-1-.19,2.09,2.09,0,0,1-.76-.59v2.19l1,.16v.75Zm3.48-3.22a1.41,1.41,0,0,0,1.24-.6,2.63,2.63,0,0,0,.42-1.55v-.12a4.08,4.08,0,0,0-.18-1.28,2,2,0,0,0-.56-.87,1.35,1.35,0,0,0-.93-.32,1.56,1.56,0,0,0-.85.22,1.76,1.76,0,0,0-.57.61v3.09a1.76,1.76,0,0,0,.57.61A1.64,1.64,0,0,0,345,163.58Z" transform="translate(-8.3 -1.13)"/><path class="cls-12" d="M350.75,164.48a2.11,2.11,0,0,1-1.5-.48,1.76,1.76,0,0,1-.52-1.36,1.74,1.74,0,0,1,.33-1.06,2.13,2.13,0,0,1,1-.69,4,4,0,0,1,1.5-.25h1.13V160a1.1,1.1,0,0,0-.35-.89,1.41,1.41,0,0,0-1-.32,2.09,2.09,0,0,0-.69.1,2,2,0,0,0-.53.26l-.13.89h-.89V158.6a3.07,3.07,0,0,1,1-.52,4.17,4.17,0,0,1,1.26-.18,2.72,2.72,0,0,1,1.81.55,1.94,1.94,0,0,1,.66,1.58v3.29c0,.08,0,.16,0,.24l.62.06v.74h-1.66c0-.17-.06-.33-.08-.46s0-.28,0-.41a2.78,2.78,0,0,1-.84.71A2.11,2.11,0,0,1,350.75,164.48Zm.17-1a2.05,2.05,0,0,0,1.05-.27,1.67,1.67,0,0,0,.68-.66v-1.15h-1.17a1.67,1.67,0,0,0-1.19.38,1.14,1.14,0,0,0-.4.85.77.77,0,0,0,.25.63A1.19,1.19,0,0,0,350.92,163.51Z" transform="translate(-8.3 -1.13)"/><path class="cls-12" d="M355.32,164.36v-.74l1-.16v-4.53l-1-.17V158h2l.1.81v.11a2.08,2.08,0,0,1,.67-.76,1.48,1.48,0,0,1,.9-.28,2.31,2.31,0,0,1,.37,0l.28.07-.16,1.07-.8,0a1.11,1.11,0,0,0-.77.21,1.7,1.7,0,0,0-.48.63v3.6l1,.16v.74Z" transform="translate(-8.3 -1.13)"/><path class="cls-12" d="M363.11,164.48a2.86,2.86,0,0,1-1.53-.4,2.65,2.65,0,0,1-1-1.12,3.58,3.58,0,0,1-.36-1.65v-.26a3.5,3.5,0,0,1,.37-1.61,3,3,0,0,1,1-1.13,2.41,2.41,0,0,1,1.35-.41,2.75,2.75,0,0,1,1.43.35,2.33,2.33,0,0,1,.87,1,3.62,3.62,0,0,1,.29,1.5v.72h-4.11l0,0a3.05,3.05,0,0,0,.21,1.08,1.74,1.74,0,0,0,.59.74,1.53,1.53,0,0,0,.91.27,3,3,0,0,0,1-.17,2.24,2.24,0,0,0,.76-.46l.46.75a2.82,2.82,0,0,1-.9.56A3.64,3.64,0,0,1,363.11,164.48Zm-1.66-3.92h2.93v-.16a2.09,2.09,0,0,0-.16-.81,1.34,1.34,0,0,0-.48-.57,1.44,1.44,0,0,0-.8-.21,1.14,1.14,0,0,0-.71.23,1.74,1.74,0,0,0-.52.61,2.45,2.45,0,0,0-.27.88Z" transform="translate(-8.3 -1.13)"/><path class="cls-12" d="M366.43,164.36v-.74l.95-.16v-4.53l-.95-.17V158h2l.09.94a2.36,2.36,0,0,1,.79-.78,2.35,2.35,0,0,1,2.68.32,2.67,2.67,0,0,1,.56,1.86v3.1l1,.16v.74h-3.06v-.74l.95-.16v-3.08a1.71,1.71,0,0,0-.33-1.19,1.34,1.34,0,0,0-1-.35,1.64,1.64,0,0,0-.88.24,1.69,1.69,0,0,0-.61.66v3.72l.95.16v.74Z" transform="translate(-8.3 -1.13)"/><path class="cls-12" d="M376.3,164.46a1.51,1.51,0,0,1-1.12-.42,1.81,1.81,0,0,1-.41-1.32v-3.85h-1V158h1v-1.53h1.16V158h1.37v.85h-1.37v3.85a1.06,1.06,0,0,0,.18.68.6.6,0,0,0,.48.21l.46,0,.39-.07.16.75a3.61,3.61,0,0,1-.62.14A4.18,4.18,0,0,1,376.3,164.46Z" transform="translate(-8.3 -1.13)"/><path class="cls-12" d="M378.28,164.36v-.74l1-.16v-7.33l-1-.17v-.74h2.11v8.24l1,.16v.74Z" transform="translate(-8.3 -1.13)"/><path class="cls-12" d="M383.54,166.92l-.35,0-.33-.06.11-.91.28,0h.24a.75.75,0,0,0,.6-.28,2.89,2.89,0,0,0,.43-.77l.28-.67-2.25-5.37-.68-.1V158h2.66v.74l-.76.12,1.23,3.17.3.83h0l1.46-4-.81-.12V158h2.61v.74l-.66.1-2.49,6.47a3.73,3.73,0,0,1-.43.82,1.72,1.72,0,0,1-.61.56A1.7,1.7,0,0,1,383.54,166.92Z" transform="translate(-8.3 -1.13)"/><path class="cls-12" d="M302.27,178.88a2.82,2.82,0,0,1-1.53-.4,2.65,2.65,0,0,1-1-1.12,3.58,3.58,0,0,1-.36-1.65v-.26a3.5,3.5,0,0,1,.37-1.61,3.11,3.11,0,0,1,1-1.13,2.46,2.46,0,0,1,1.35-.41,2.79,2.79,0,0,1,1.44.35,2.33,2.33,0,0,1,.87,1,3.62,3.62,0,0,1,.29,1.5v.72h-4.11l0,0a3.05,3.05,0,0,0,.21,1.08,1.74,1.74,0,0,0,.59.74,1.51,1.51,0,0,0,.91.27,3,3,0,0,0,1-.17,2.24,2.24,0,0,0,.76-.46l.45.75a2.62,2.62,0,0,1-.9.56A3.58,3.58,0,0,1,302.27,178.88ZM300.61,175h2.93v-.16a1.92,1.92,0,0,0-.17-.81,1.21,1.21,0,0,0-.48-.57,1.42,1.42,0,0,0-.8-.21,1.2,1.2,0,0,0-.7.23,1.74,1.74,0,0,0-.52.61,2.45,2.45,0,0,0-.27.88Z" transform="translate(-8.3 -1.13)"/><path class="cls-12" d="M305.59,178.76V178l1-.16v-4.53l-1-.17v-.74h2l.08.94a2.48,2.48,0,0,1,.8-.78,2.08,2.08,0,0,1,1.09-.28,2.05,2.05,0,0,1,1.58.6,2.62,2.62,0,0,1,.57,1.86v3.1l.95.16v.74h-3.06V178l.95-.16v-3.08a1.73,1.73,0,0,0-.33-1.19,1.34,1.34,0,0,0-1-.35,1.61,1.61,0,0,0-.88.24,1.69,1.69,0,0,0-.61.66v3.72l.95.16v.74Z" transform="translate(-8.3 -1.13)"/><path class="cls-12" d="M316.26,178.88a2.64,2.64,0,0,1-2.49-1.52,3.71,3.71,0,0,1-.35-1.65v-.24a3.67,3.67,0,0,1,.34-1.62,2.66,2.66,0,0,1,2.5-1.55,3.53,3.53,0,0,1,1.35.25,2.84,2.84,0,0,1,1,.7l0,1.52h-.91l-.2-1.11a1.46,1.46,0,0,0-.49-.33,1.92,1.92,0,0,0-.71-.12,1.44,1.44,0,0,0-.9.3,2.13,2.13,0,0,0-.61.82,3,3,0,0,0-.22,1.14v.24a3.14,3.14,0,0,0,.21,1.2,1.64,1.64,0,0,0,.58.79,1.44,1.44,0,0,0,.9.28,1.49,1.49,0,0,0,1-.32,1.39,1.39,0,0,0,.47-.89h1v0a2.11,2.11,0,0,1-.32,1,2.14,2.14,0,0,1-.84.76A2.7,2.7,0,0,1,316.26,178.88Z" transform="translate(-8.3 -1.13)"/><path class="cls-12" d="M319.64,178.76V178l.95-.16v-4.53l-.95-.17v-.74h2l.1.81v.11a2.18,2.18,0,0,1,.67-.76,1.5,1.5,0,0,1,.9-.28,2.43,2.43,0,0,1,.38,0l.27.07-.15,1.07-.81-.05a1.07,1.07,0,0,0-.76.21,1.52,1.52,0,0,0-.48.63v3.6l.95.16v.74Z" transform="translate(-8.3 -1.13)"/><path class="cls-12" d="M326.14,181.32l-.36,0-.33-.06.12-.91.27,0h.24a.75.75,0,0,0,.6-.28,2.89,2.89,0,0,0,.43-.77l.28-.67-2.25-5.37-.67-.1v-.74h2.66v.74l-.77.12,1.23,3.17.3.83h0l1.46-4-.81-.12v-.74h2.61v.74l-.65.1-2.5,6.47a3.73,3.73,0,0,1-.43.82,1.69,1.69,0,0,1-.6.56A1.75,1.75,0,0,1,326.14,181.32Z" transform="translate(-8.3 -1.13)"/><path class="cls-12" d="M331.57,181.2v-.75l.89-.16v-7l-.95-.17v-.74h1.94l.11.77a2.11,2.11,0,0,1,.77-.66,2.32,2.32,0,0,1,1.05-.23,2.11,2.11,0,0,1,1.34.43,2.59,2.59,0,0,1,.85,1.19,4.86,4.86,0,0,1,.3,1.79v.12a4,4,0,0,1-.3,1.6,2.46,2.46,0,0,1-.85,1.07,2.28,2.28,0,0,1-1.32.38,2.56,2.56,0,0,1-1-.19,2.05,2.05,0,0,1-.75-.59v2.19l1,.16v.75ZM335,178a1.41,1.41,0,0,0,1.24-.6,2.63,2.63,0,0,0,.43-1.55v-.12a4.06,4.06,0,0,0-.19-1.28,1.93,1.93,0,0,0-.56-.87,1.35,1.35,0,0,0-.93-.32,1.5,1.5,0,0,0-.84.22,1.6,1.6,0,0,0-.57.61v3.09A1.48,1.48,0,0,0,335,178Z" transform="translate(-8.3 -1.13)"/><path class="cls-12" d="M341,178.86a1.52,1.52,0,0,1-1.11-.41,1.81,1.81,0,0,1-.41-1.33v-3.85h-1v-.85h1v-1.53h1.15v1.53H342v.85h-1.38v3.85a1.06,1.06,0,0,0,.18.68.61.61,0,0,0,.49.21l.45,0,.4-.07.16.76a5.51,5.51,0,0,1-.62.13A4.29,4.29,0,0,1,341,178.86Z" transform="translate(-8.3 -1.13)"/><path class="cls-12" d="M345.8,178.88a2.8,2.8,0,0,1-1.52-.4,2.68,2.68,0,0,1-1-1.12,3.58,3.58,0,0,1-.35-1.65v-.26a3.38,3.38,0,0,1,.37-1.61,3.11,3.11,0,0,1,1-1.13,2.41,2.41,0,0,1,1.35-.41,2.73,2.73,0,0,1,1.43.35,2.2,2.2,0,0,1,.87,1,3.46,3.46,0,0,1,.29,1.5v.72h-4.11l0,0a2.85,2.85,0,0,0,.22,1.08,1.72,1.72,0,0,0,.58.74,1.53,1.53,0,0,0,.91.27,2.88,2.88,0,0,0,1-.17,2.29,2.29,0,0,0,.77-.46l.45.75a2.82,2.82,0,0,1-.9.56A3.6,3.6,0,0,1,345.8,178.88ZM344.15,175h2.92v-.16a1.92,1.92,0,0,0-.16-.81,1.34,1.34,0,0,0-.48-.57,1.42,1.42,0,0,0-.8-.21,1.17,1.17,0,0,0-.7.23,1.76,1.76,0,0,0-.53.61,2.66,2.66,0,0,0-.26.88Z" transform="translate(-8.3 -1.13)"/><path class="cls-12" d="M351.85,178.88a2.31,2.31,0,0,1-1.33-.38,2.46,2.46,0,0,1-.85-1.07,4.15,4.15,0,0,1-.29-1.6v-.12a5.13,5.13,0,0,1,.29-1.79,2.67,2.67,0,0,1,.85-1.19,2.11,2.11,0,0,1,1.34-.43,2.25,2.25,0,0,1,1,.21,2.13,2.13,0,0,1,.74.6v-2.58l-1-.17v-.74h2.11v8.24l1,.16v.74h-2l-.1-.76a2.05,2.05,0,0,1-.75.66A2.31,2.31,0,0,1,351.85,178.88Zm.29-.94a1.53,1.53,0,0,0,.87-.23,2,2,0,0,0,.58-.66v-2.94a1.89,1.89,0,0,0-.58-.64,1.6,1.6,0,0,0-.86-.23,1.32,1.32,0,0,0-.91.31,1.89,1.89,0,0,0-.53.87,4.19,4.19,0,0,0-.18,1.29v.12a2.59,2.59,0,0,0,.4,1.53A1.34,1.34,0,0,0,352.14,177.94Z" transform="translate(-8.3 -1.13)"/><path class="cls-12" d="M362.11,178.76l-2.26-5.51-.66-.09v-.74h2.66v.74l-.82.12,1.4,3.61.17.51h0l.19-.51,1.31-3.61-.85-.12v-.74h2.65v.74l-.67.09-2.14,5.51Z" transform="translate(-8.3 -1.13)"/><path class="cls-12" d="M369.26,178.88a2.64,2.64,0,0,1-2.5-1.55,3.89,3.89,0,0,1-.34-1.67v-.13a3.89,3.89,0,0,1,.34-1.67,2.75,2.75,0,0,1,1-1.14,2.64,2.64,0,0,1,1.5-.42,2.67,2.67,0,0,1,1.51.42,2.72,2.72,0,0,1,1,1.14,3.83,3.83,0,0,1,.35,1.67v.13a3.83,3.83,0,0,1-.35,1.67,2.65,2.65,0,0,1-1,1.14A2.69,2.69,0,0,1,369.26,178.88Zm0-.9a1.41,1.41,0,0,0,.92-.3,1.87,1.87,0,0,0,.57-.83,3.67,3.67,0,0,0,.19-1.19v-.13a3.62,3.62,0,0,0-.19-1.19,1.87,1.87,0,0,0-.57-.83,1.59,1.59,0,0,0-1.86,0,1.85,1.85,0,0,0-.56.83,3.62,3.62,0,0,0-.19,1.19v.13a3.67,3.67,0,0,0,.19,1.19,1.79,1.79,0,0,0,.57.83A1.44,1.44,0,0,0,369.26,178Z" transform="translate(-8.3 -1.13)"/><path class="cls-12" d="M372.8,178.76V178l1-.16v-7.33l-1-.17v-.74h2.11v8.24l1,.16v.74Z" transform="translate(-8.3 -1.13)"/><path class="cls-12" d="M379.48,178.88a2,2,0,0,1-1.61-.66,3.05,3.05,0,0,1-.58-2.06v-2.83l-.73-.17v-.74h1.88v3.75a2.34,2.34,0,0,0,.3,1.39,1.09,1.09,0,0,0,.93.38,2,2,0,0,0,1-.24,1.63,1.63,0,0,0,.61-.71v-3.66l-.85-.17v-.74h2v5.44l.73.16v.74h-1.77l-.07-.94a2.24,2.24,0,0,1-.77.79A2.18,2.18,0,0,1,379.48,178.88Z" transform="translate(-8.3 -1.13)"/><path class="cls-12" d="M384,178.76V178l1-.16v-4.53l-1-.17v-.74h2l.07.83a2,2,0,0,1,.79-.7,2.33,2.33,0,0,1,1.11-.25,2,2,0,0,1,1.09.29,1.8,1.8,0,0,1,.68.88,2.31,2.31,0,0,1,.79-.85,2.09,2.09,0,0,1,1.15-.32,1.9,1.9,0,0,1,1.54.67,3.06,3.06,0,0,1,.56,2v2.89l.95.16v.74h-3.07V178l1-.16V175a2.14,2.14,0,0,0-.32-1.33,1.19,1.19,0,0,0-1-.39,1.22,1.22,0,0,0-1,.42,1.9,1.9,0,0,0-.42,1.07v3.13l.95.16v.74h-3.06V178l.95-.16V175a2.1,2.1,0,0,0-.33-1.31,1.17,1.17,0,0,0-1-.41,1.5,1.5,0,0,0-.86.22,1.38,1.38,0,0,0-.53.61v3.79l1,.16v.74Z" transform="translate(-8.3 -1.13)"/><path class="cls-12" d="M398.37,178.88a2.82,2.82,0,0,1-1.53-.4,2.65,2.65,0,0,1-1-1.12,3.58,3.58,0,0,1-.36-1.65v-.26a3.38,3.38,0,0,1,.37-1.61,3.11,3.11,0,0,1,1-1.13,2.46,2.46,0,0,1,1.35-.41,2.79,2.79,0,0,1,1.44.35,2.33,2.33,0,0,1,.87,1,3.62,3.62,0,0,1,.29,1.5v.72h-4.11l0,0a3.05,3.05,0,0,0,.21,1.08,1.74,1.74,0,0,0,.59.74,1.51,1.51,0,0,0,.91.27,3,3,0,0,0,1-.17,2.24,2.24,0,0,0,.76-.46l.45.75a2.62,2.62,0,0,1-.9.56A3.58,3.58,0,0,1,398.37,178.88ZM396.71,175h2.93v-.16a1.92,1.92,0,0,0-.17-.81,1.21,1.21,0,0,0-.48-.57,1.42,1.42,0,0,0-.8-.21,1.2,1.2,0,0,0-.7.23,1.74,1.74,0,0,0-.52.61,2.45,2.45,0,0,0-.27.88Z" transform="translate(-8.3 -1.13)"/><line class="cls-11" x1="301.62" y1="102.69" x2="150.1" y2="102.69"/><path class="cls-5" d="M382.86,84.06h-5.23c-.71,0-1-.28-1-1v-8c0-.72.28-1,1-1h10.42c.67,0,.95.27.95.95v8c0,.67-.28,1-.95,1C386.31,84.1,384.56,84.06,382.86,84.06Z" transform="translate(-8.3 -1.13)"/><path class="cls-5" d="M377.49,73.42a5.56,5.56,0,0,1,3.26-5.09,5.17,5.17,0,0,1,7.11,3.51c.12.48.17,1,.29,1.47" transform="translate(-8.3 -1.13)"/><path class="cls-9" d="M382,80.65h0v1.07c0,.2.08.28.32.28h1c.28,0,.36-.08.36-.32v-2a.45.45,0,0,1,.27-.47,1.51,1.51,0,0,0,.76-1.79,1.91,1.91,0,0,0-1.79-1.18,2,2,0,0,0-2,1.07,1.48,1.48,0,0,0,.68,1.86.51.51,0,0,1,.31.59A6.71,6.71,0,0,1,382,80.65Z" transform="translate(-8.3 -1.13)"/><circle class="cls-1" cx="85.24" cy="103.48" r="83.74"/><path class="cls-13" d="M26.67,39.16l-.52-.53.82-1L22.49,33l-.94,1-.5-.52,1.4-2.13,5.35,5.43,1.05-.8.52.52Z" transform="translate(-8.3 -1.13)"/><path class="cls-13" d="M32.26,34.08a2.48,2.48,0,0,1-2.07.65A3.81,3.81,0,0,1,28,33.32l-1.33-1.53a3.8,3.8,0,0,1-1.09-2.36,2.69,2.69,0,0,1,3-2.61,3.78,3.78,0,0,1,2.2,1.41l1.33,1.52a3.84,3.84,0,0,1,1.09,2.37A2.43,2.43,0,0,1,32.26,34.08Zm-.59-.68a1.34,1.34,0,0,0,.5-1.19,2.85,2.85,0,0,0-.8-1.52L29.73,28.8a2.76,2.76,0,0,0-1.4-1,1.36,1.36,0,0,0-1.25.34,1.34,1.34,0,0,0-.5,1.18,2.86,2.86,0,0,0,.79,1.52L29,32.74a2.85,2.85,0,0,0,1.4,1A1.37,1.37,0,0,0,31.67,33.4Z" transform="translate(-8.3 -1.13)"/><path class="cls-13" d="M35.36,31.34l-.73-.93.9-.72.73.94Z" transform="translate(-8.3 -1.13)"/><path class="cls-13" d="M37.45,29.7,37,29.1l1-.9L34.26,23l-1.08.81-.42-.59,1.71-1.9,4.46,6.19,1.16-.63.43.6Z" transform="translate(-8.3 -1.13)"/><path class="cls-13" d="M43.74,25.54a2.46,2.46,0,0,1-2.15.32,3.77,3.77,0,0,1-2-1.72l-1.08-1.71a3.82,3.82,0,0,1-.72-2.51,2.41,2.41,0,0,1,1.2-1.8,2.49,2.49,0,0,1,2.15-.32,3.78,3.78,0,0,1,2,1.73l1.08,1.71a3.8,3.8,0,0,1,.72,2.5A2.45,2.45,0,0,1,43.74,25.54Zm-.48-.76a1.34,1.34,0,0,0,.68-1.1,2.91,2.91,0,0,0-.56-1.63L42,19.94a2.78,2.78,0,0,0-1.23-1.2,1.35,1.35,0,0,0-1.28.15A1.31,1.31,0,0,0,38.85,20a2.84,2.84,0,0,0,.55,1.62l1.34,2.12A2.89,2.89,0,0,0,42,24.92,1.39,1.39,0,0,0,43.26,24.78Z" transform="translate(-8.3 -1.13)"/><path class="cls-13" d="M47.27,23.27l-.58-1,1-.57.58,1Z" transform="translate(-8.3 -1.13)"/><path class="cls-13" d="M49.59,22l-.34-.66,1.1-.74-2.9-5.7-1.19.63-.32-.64,2-1.62,3.46,6.8,1.24-.45.34.66Z" transform="translate(-8.3 -1.13)"/><path class="cls-13" d="M56.41,18.84a2.47,2.47,0,0,1-2.17,0,3.79,3.79,0,0,1-1.66-2L51.77,15a3.86,3.86,0,0,1-.33-2.59,2.44,2.44,0,0,1,1.47-1.59,2.49,2.49,0,0,1,2.18,0,3.77,3.77,0,0,1,1.66,2l.81,1.85a3.87,3.87,0,0,1,.33,2.59A2.45,2.45,0,0,1,56.41,18.84ZM56.05,18a1.35,1.35,0,0,0,.85-1,2.89,2.89,0,0,0-.31-1.69l-1-2.3a3,3,0,0,0-1-1.37,1.49,1.49,0,0,0-2.14.93,3,3,0,0,0,.3,1.69l1,2.29a2.9,2.9,0,0,0,1,1.38A1.37,1.37,0,0,0,56.05,18Z" transform="translate(-8.3 -1.13)"/><path class="cls-13" d="M60.23,17.15,59.82,16l1.08-.41.41,1.11Z" transform="translate(-8.3 -1.13)"/><path class="cls-13" d="M62.58,16.25l-.24-.75,1.72-3.81c.2-.46.35-.84.45-1.15a3,3,0,0,0,.16-.8,1.91,1.91,0,0,0-.1-.67,1.6,1.6,0,0,0-.69-.91,1.42,1.42,0,0,0-1.19-.08,1.59,1.59,0,0,0-1,.79,1.81,1.81,0,0,0,0,1.34l-1.05.34,0,0a2.55,2.55,0,0,1-.1-1.36A2.46,2.46,0,0,1,61.14,8a3.06,3.06,0,0,1,1.32-.77,2.8,2.8,0,0,1,1.41-.13A2.21,2.21,0,0,1,65,7.61a2.31,2.31,0,0,1,.67,1.07,2.45,2.45,0,0,1,.1.94,4.08,4.08,0,0,1-.22,1.07c-.13.38-.3.79-.5,1.23l-1.4,3,0,0L66.55,14l-.21-1,.93-.3.57,1.8Z" transform="translate(-8.3 -1.13)"/><circle class="cls-2" cx="85.24" cy="103.48" r="83.74"/><polygon class="cls-14" points="58.73 76.87 35.83 90.17 35.83 116.78 58.73 130.08 81.85 116.78 81.85 90.17 58.73 76.87"/><g class="cls-4"><polygon class="cls-5" points="81.85 116.78 58.73 130.08 35.83 116.78 58.73 103.48 81.85 116.78"/><polygon class="cls-5" points="81.85 90.17 81.85 116.78 58.73 103.48 58.73 76.87 81.85 90.17"/><polygon class="cls-5" points="58.73 76.87 58.73 103.48 35.83 116.78 35.83 90.17 58.73 76.87"/></g><polygon class="cls-15" points="58.91 84.47 42.41 93.97 42.41 112.98 58.91 122.48 75.27 112.98 75.27 93.97 58.91 84.47"/><circle class="cls-7" cx="58.95" cy="103.48" r="9.44"/><polygon class="cls-5" points="35.83 90.17 58.95 76.87 81.85 90.17 58.95 103.48 35.83 90.17"/><polygon class="cls-5" points="35.83 116.78 35.83 90.17 58.95 103.48 58.95 130.08 35.83 116.78"/><polygon class="cls-5" points="58.95 130.08 58.95 103.48 81.85 90.17 81.85 116.78 58.95 130.08"/><path class="cls-16" d="M142.57,114.23h0V96.78H107.82v17.45h0v.33h0c.33,4.77,8.07,8.56,17.29,8.56,9.39,0,17-3.79,17.29-8.56h0v-.33Z" transform="translate(-8.3 -1.13)"/><ellipse class="cls-17" cx="116.97" cy="95.81" rx="17.45" ry="8.89"/><path class="cls-18" d="M367.47,114.23h0V96.78H332.73v17.45h0v.33h0c.33,4.77,8.07,8.56,17.29,8.56,9.38,0,17-3.79,17.29-8.56h0v-.33Z" transform="translate(-8.3 -1.13)"/><ellipse class="cls-19" cx="341.88" cy="95.81" rx="17.45" ry="8.89"/><path class="cls-12" d="M227.12,10.27V9.53l1-.17V2.64l-1-.16V1.73h3.07v.75l-1,.16V9.36l1,.17v.74Z" transform="translate(-8.3 -1.13)"/><path class="cls-12" d="M231.14,10.27V9.53l1-.17V2.64l-1-.16V1.73h3.91a3.53,3.53,0,0,1,1.56.32,2.34,2.34,0,0,1,1,.9,2.64,2.64,0,0,1,.34,1.34,2.71,2.71,0,0,1-.34,1.35,2.32,2.32,0,0,1-1,.89,3.53,3.53,0,0,1-1.56.31h-1.81V9.36l1,.17v.74Zm2.1-4.33h1.81a1.68,1.68,0,0,0,1.3-.46,1.67,1.67,0,0,0,.43-1.18,1.67,1.67,0,0,0-.43-1.18,1.65,1.65,0,0,0-1.3-.48h-1.81Z" transform="translate(-8.3 -1.13)"/><path class="cls-12" d="M243.73,10.39a2.14,2.14,0,0,1-1.51-.48,1.81,1.81,0,0,1-.51-1.37,1.73,1.73,0,0,1,.33-1,2.17,2.17,0,0,1,1-.7,4.2,4.2,0,0,1,1.5-.25h1.14V5.92a1.15,1.15,0,0,0-.35-.89,1.42,1.42,0,0,0-1-.31,2.43,2.43,0,0,0-.7.09,2.4,2.4,0,0,0-.53.27L243,6h-.89V4.51a2.92,2.92,0,0,1,1-.52,4.17,4.17,0,0,1,1.26-.18,2.7,2.7,0,0,1,1.81.55,1.94,1.94,0,0,1,.66,1.58V9.23a1.79,1.79,0,0,0,0,.23l.61.07v.74h-1.66c0-.18-.06-.33-.08-.47s0-.27,0-.41a2.59,2.59,0,0,1-.83.71A2.15,2.15,0,0,1,243.73,10.39Zm.17-1a2.11,2.11,0,0,0,1-.27,1.82,1.82,0,0,0,.68-.67V7.34h-1.18a1.62,1.62,0,0,0-1.19.38,1.12,1.12,0,0,0-.4.85.79.79,0,0,0,.26.63A1.15,1.15,0,0,0,243.9,9.42Z" transform="translate(-8.3 -1.13)"/><path class="cls-12" d="M250.8,10.39a2.25,2.25,0,0,1-1.33-.39,2.35,2.35,0,0,1-.84-1.06,4,4,0,0,1-.3-1.6V7.21a4.84,4.84,0,0,1,.3-1.78,2.61,2.61,0,0,1,.84-1.2A2.38,2.38,0,0,1,251.8,4a2,2,0,0,1,.74.6V2l-1-.16V1.12h2.11V9.36l1,.17v.74h-2l-.09-.76a2.08,2.08,0,0,1-.76.66A2.45,2.45,0,0,1,250.8,10.39Zm.29-.94a1.59,1.59,0,0,0,.87-.23,1.82,1.82,0,0,0,.58-.67V5.61A1.85,1.85,0,0,0,252,5a1.5,1.5,0,0,0-.86-.23,1.3,1.3,0,0,0-.9.31,1.91,1.91,0,0,0-.54.87,4.46,4.46,0,0,0-.17,1.28v.13a2.71,2.71,0,0,0,.39,1.53A1.36,1.36,0,0,0,251.09,9.45Z" transform="translate(-8.3 -1.13)"/><path class="cls-12" d="M255.43,10.27V9.53l1-.17V4.83l-1-.16V3.93h2l.1.8v.12a2.2,2.2,0,0,1,.67-.77,1.54,1.54,0,0,1,.9-.27,2.31,2.31,0,0,1,.37,0l.28.06L259.59,5l-.8,0a1.11,1.11,0,0,0-.77.21,1.63,1.63,0,0,0-.48.63V9.36l1,.17v.74Z" transform="translate(-8.3 -1.13)"/><path class="cls-12" d="M263.22,10.39a3,3,0,0,1-1.53-.4,2.65,2.65,0,0,1-1-1.12,3.64,3.64,0,0,1-.36-1.65V7a3.5,3.5,0,0,1,.37-1.61,3,3,0,0,1,1-1.13,2.47,2.47,0,0,1,1.36-.41,2.75,2.75,0,0,1,1.43.35,2.22,2.22,0,0,1,.87,1,3.6,3.6,0,0,1,.29,1.49v.73h-4.11l0,0a3.07,3.07,0,0,0,.21,1.09,1.74,1.74,0,0,0,.59.74,1.53,1.53,0,0,0,.91.27,3,3,0,0,0,1-.17,2.41,2.41,0,0,0,.76-.46l.46.75a2.81,2.81,0,0,1-.9.55A3.67,3.67,0,0,1,263.22,10.39Zm-1.66-3.93h2.93V6.31a2.14,2.14,0,0,0-.16-.82,1.3,1.3,0,0,0-.49-.57,1.47,1.47,0,0,0-.79-.2,1.19,1.19,0,0,0-.71.22,1.83,1.83,0,0,0-.52.61,2.51,2.51,0,0,0-.27.88Z" transform="translate(-8.3 -1.13)"/><path class="cls-12" d="M269.13,10.39a5,5,0,0,1-1.19-.13,7.57,7.57,0,0,1-1.19-.4V8.36h.88l.21.9a3.15,3.15,0,0,0,1.3.26,1.51,1.51,0,0,0,1-.27.87.87,0,0,0,.31-.67.81.81,0,0,0-.31-.63A2.68,2.68,0,0,0,269,7.51a4.34,4.34,0,0,1-1.69-.71,1.46,1.46,0,0,1-.54-1.18,1.51,1.51,0,0,1,.3-.92,2,2,0,0,1,.83-.65,3,3,0,0,1,1.24-.24A4.15,4.15,0,0,1,270.4,4a3.22,3.22,0,0,1,.89.44l.06,1.45h-.87L270.29,5a1.44,1.44,0,0,0-.48-.24,2.57,2.57,0,0,0-.65-.08,1.38,1.38,0,0,0-.87.25.75.75,0,0,0-.34.63.71.71,0,0,0,.1.39.78.78,0,0,0,.37.3,5.19,5.19,0,0,0,.81.26,4.18,4.18,0,0,1,1.85.79,1.53,1.53,0,0,1,.52,1.18A1.77,1.77,0,0,1,271,9.85,2.76,2.76,0,0,1,269.13,10.39Z" transform="translate(-8.3 -1.13)"/><path class="cls-12" d="M275.12,10.39a5,5,0,0,1-1.19-.13,7.24,7.24,0,0,1-1.19-.4V8.36h.87l.22.9a3.15,3.15,0,0,0,1.3.26,1.51,1.51,0,0,0,1-.27.86.86,0,0,0,.3-.67.8.8,0,0,0-.3-.63A2.68,2.68,0,0,0,275,7.51a4.27,4.27,0,0,1-1.69-.71,1.46,1.46,0,0,1-.54-1.18,1.51,1.51,0,0,1,.3-.92,2,2,0,0,1,.83-.65,3,3,0,0,1,1.24-.24,4,4,0,0,1,1.23.16,3.28,3.28,0,0,1,.9.44l.06,1.45h-.87L276.28,5a1.54,1.54,0,0,0-.48-.24,2.57,2.57,0,0,0-.65-.08,1.43,1.43,0,0,0-.88.25.77.77,0,0,0-.33.63A.8.8,0,0,0,274,6a.87.87,0,0,0,.38.3,5.19,5.19,0,0,0,.81.26,4.13,4.13,0,0,1,1.84.79,1.54,1.54,0,0,1,.53,1.18,1.74,1.74,0,0,1-.6,1.35A2.71,2.71,0,0,1,275.12,10.39Z" transform="translate(-8.3 -1.13)"/><line class="cls-11" x1="206.25" y1="4.97" x2="86.7" y2="4.97"/></g></g></svg>