<?xml version="1.0" encoding="utf-8"?>
<!-- Generator: Adobe Illustrator 24.0.0, SVG Export Plug-In . SVG Version: 6.00 Build 0)  -->
<svg version="1.1" id="Ebene_1" xmlns="http://www.w3.org/2000/svg" xmlns:xlink="http://www.w3.org/1999/xlink" x="0px" y="0px"
	 viewBox="0 0 931.4 221.6" style="enable-background:new 0 0 931.4 221.6;" xml:space="preserve">
<style type="text/css">
	.st0{fill:#221A40;}
	.st1{fill:#FFCC03;}
	.st2{fill:#981869;}
	.st3{fill:#518ECB;}
	.st4{fill:#32245E;}
	.st5{fill:none;stroke:#32245E;stroke-width:0.3;stroke-linecap:round;stroke-linejoin:round;}
	.st6{fill:none;stroke:#FFCC03;stroke-width:2;stroke-linecap:round;stroke-linejoin:round;}
	.st7{opacity:0.25;fill:#FFCC03;enable-background:new    ;}
	.st8{fill:#635384;}
	.st9{fill:none;stroke:#981869;stroke-width:3;stroke-miterlimit:10;}
	.st10{fill:#FDFEFF;}
	.st11{opacity:0.4;}
	.st12{fill:url(#SVGID_1_);}
	.st13{fill:url(#SVGID_2_);}
	.st14{fill:url(#SVGID_3_);stroke:#FFCC03;stroke-width:2;stroke-miterlimit:10;}
	.st15{fill:url(#SVGID_4_);stroke:#FFCC03;stroke-width:2;stroke-miterlimit:10;}
	.st16{fill:url(#SVGID_5_);stroke:#FFCC03;stroke-width:2;stroke-miterlimit:10;}
	.st17{fill:url(#SVGID_6_);stroke:#FFCC03;stroke-width:2;stroke-miterlimit:10;}
</style>
<g>
	<path class="st0" d="M463.8,215.5c-0.8,0-1.5-0.2-2.1-0.6c-0.6-0.4-1-0.9-1.3-1.5c-0.3-0.7-0.4-1.5-0.4-2.2v-0.1
		c0-0.8,0.1-1.5,0.5-2.2c0.3-0.6,0.7-1.2,1.3-1.5c0.6-0.4,1.3-0.6,2-0.6c0.5,0,1,0.1,1.5,0.3c0.4,0.1,0.8,0.4,1.1,0.6v1.8h-0.9
		l-0.1-1.3c-0.1-0.1-0.3-0.2-0.4-0.3c-0.2-0.1-0.4-0.1-0.5-0.1c-0.2,0-0.4-0.1-0.6-0.1c-0.5,0-1,0.1-1.4,0.4
		c-0.4,0.3-0.7,0.7-0.9,1.2c-0.2,0.6-0.3,1.2-0.3,1.8v0.1c0,0.6,0.1,1.2,0.3,1.8c0.2,0.5,0.5,0.9,0.9,1.2c0.4,0.3,1,0.4,1.5,0.4
		c0.3,0,0.5,0,0.8-0.1c0.2-0.1,0.5-0.1,0.7-0.3l0.1-1.2h0.9v1.9c-0.4,0.2-0.7,0.4-1.2,0.5C464.7,215.5,464.2,215.5,463.8,215.5z"/>
	<path class="st0" d="M471.3,215.5c-0.8,0-1.5-0.2-2.1-0.6c-0.6-0.4-1-0.9-1.3-1.5c-0.3-0.7-0.4-1.5-0.4-2.2v-0.1
		c0-0.8,0.1-1.5,0.5-2.2c0.3-0.6,0.7-1.2,1.3-1.5c0.6-0.4,1.3-0.6,2-0.6c0.5,0,1,0.1,1.5,0.3c0.4,0.1,0.8,0.4,1.1,0.6v1.8h-0.9
		l-0.1-1.3c-0.1-0.1-0.3-0.2-0.4-0.3c-0.2-0.1-0.3-0.1-0.5-0.1c-0.2,0-0.4-0.1-0.7-0.1c-0.5,0-1,0.1-1.4,0.4
		c-0.4,0.3-0.7,0.7-0.9,1.2c-0.2,0.6-0.3,1.2-0.3,1.8v0.1c0,0.6,0.1,1.2,0.3,1.8c0.2,0.5,0.5,0.9,0.9,1.2c0.4,0.3,1,0.4,1.5,0.4
		c0.3,0,0.5,0,0.8-0.1c0.2-0.1,0.4-0.1,0.7-0.3l0.1-1.2h0.9v1.9c-0.4,0.2-0.7,0.4-1.1,0.5C472.2,215.5,471.8,215.5,471.3,215.5z"/>
	<path class="st0" d="M478,215.4v-0.7l1-0.2v-6.7l-1-0.2v-0.8h3.9c0.5,0,1.1,0.1,1.5,0.3c0.4,0.2,0.8,0.5,1,0.9
		c0.5,0.8,0.5,1.8,0,2.7c-0.2,0.4-0.6,0.7-1,0.9c-0.5,0.2-1,0.3-1.5,0.3h-1.8v2.5l1,0.2v0.7L478,215.4z M480.1,211.1h1.8
		c0.5,0,0.9-0.1,1.3-0.5c0.3-0.3,0.4-0.7,0.4-1.2c0-0.4-0.1-0.9-0.4-1.2c-0.3-0.3-0.8-0.5-1.3-0.5h-1.8V211.1z"/>
	<path class="st0" d="M488.3,215.5c-0.5,0-1.1-0.1-1.5-0.4c-0.4-0.3-0.8-0.7-1-1.1c-0.2-0.5-0.4-1.1-0.3-1.7v-0.1
		c0-0.6,0.1-1.1,0.3-1.7c0.4-1,1.4-1.6,2.5-1.6c1.1,0,2.1,0.6,2.5,1.6c0.2,0.5,0.4,1.1,0.3,1.7v0.1c0,0.6-0.1,1.2-0.3,1.7
		c-0.2,0.5-0.6,0.9-1,1.1C489.3,215.4,488.8,215.5,488.3,215.5z M488.3,214.6c0.3,0,0.7-0.1,0.9-0.3c0.3-0.2,0.5-0.5,0.6-0.8
		c0.1-0.4,0.2-0.8,0.2-1.2v-0.1c0-0.4-0.1-0.8-0.2-1.2c-0.1-0.3-0.3-0.6-0.6-0.8c-0.6-0.4-1.3-0.4-1.9,0c-0.3,0.2-0.5,0.5-0.6,0.8
		c-0.1,0.4-0.2,0.8-0.2,1.2v0.1c0,0.4,0.1,0.8,0.2,1.2c0.1,0.3,0.3,0.6,0.6,0.8C487.6,214.5,488,214.6,488.3,214.6L488.3,214.6z"/>
	<path class="st0" d="M494.7,215.5c-0.5,0-0.9-0.1-1.3-0.4c-0.4-0.3-0.7-0.6-0.8-1.1c-0.2-0.5-0.3-1.1-0.3-1.6v-0.1
		c0-0.6,0.1-1.2,0.3-1.8c0.2-0.5,0.5-0.9,0.8-1.2c0.4-0.3,0.9-0.4,1.3-0.4c0.3,0,0.7,0.1,1,0.2c0.3,0.1,0.5,0.4,0.7,0.6v-2.6l-1-0.2
		v-0.8h2.1v8.2l1,0.2v0.7h-2l-0.1-0.8c-0.2,0.3-0.5,0.5-0.8,0.6C495.4,215.4,495.1,215.5,494.7,215.5z M495,214.6
		c0.3,0,0.6-0.1,0.9-0.2c0.2-0.2,0.4-0.4,0.6-0.7v-2.9c-0.1-0.3-0.3-0.5-0.6-0.6c-0.3-0.2-0.6-0.2-0.9-0.2c-0.3,0-0.7,0.1-0.9,0.3
		c-0.2,0.2-0.4,0.5-0.5,0.9c-0.1,0.4-0.2,0.9-0.2,1.3v0.1c0,0.5,0.1,1.1,0.4,1.5C494.1,214.4,494.5,214.6,495,214.6z"/>
	<path class="st1" d="M12.4,79.4c-0.5,0-1-0.1-1.5-0.4c-0.4-0.3-0.8-0.7-1-1.1c-0.2-0.5-0.4-1.1-0.3-1.7v-0.3c0-0.6,0.1-1.1,0.3-1.6
		c0.2-0.5,0.6-0.9,1-1.1c0.5-0.3,1-0.4,1.5-0.4c0.5,0,0.9,0.1,1.3,0.3c0.4,0.2,0.7,0.4,1,0.7v1.5h-0.9l-0.2-1.1
		c-0.1-0.1-0.3-0.3-0.5-0.3c-0.2-0.1-0.5-0.1-0.7-0.1c-0.3,0-0.6,0.1-0.9,0.3c-0.3,0.2-0.5,0.5-0.6,0.8c-0.2,0.4-0.2,0.7-0.2,1.1
		v0.3c0,0.4,0.1,0.8,0.2,1.2c0.1,0.3,0.3,0.6,0.6,0.8c0.3,0.2,0.6,0.3,0.9,0.3c0.4,0,0.7-0.1,1-0.3c0.3-0.2,0.4-0.5,0.5-0.9h1l0,0
		c0,0.4-0.1,0.7-0.3,1c-0.2,0.3-0.5,0.6-0.8,0.8C13.3,79.2,12.8,79.4,12.4,79.4z"/>
	<path class="st1" d="M18.7,79.4c-0.5,0-1.1-0.1-1.5-0.4c-0.4-0.3-0.8-0.7-1-1.1c-0.2-0.5-0.4-1.1-0.3-1.7V76c0-0.6,0.1-1.1,0.3-1.7
		c0.6-1.4,2.2-2,3.6-1.4c0.6,0.3,1.1,0.8,1.4,1.4c0.2,0.5,0.4,1.1,0.3,1.7v0.1c0,0.6-0.1,1.2-0.3,1.7C20.8,78.8,19.8,79.4,18.7,79.4
		z M18.7,78.5c0.3,0,0.7-0.1,0.9-0.3c0.3-0.2,0.5-0.5,0.6-0.8c0.1-0.4,0.2-0.8,0.2-1.2V76c0-0.4-0.1-0.8-0.2-1.2
		c-0.1-0.3-0.3-0.6-0.6-0.8c-0.6-0.4-1.3-0.4-1.9,0c-0.3,0.2-0.5,0.5-0.6,0.8c-0.1,0.4-0.2,0.8-0.2,1.2v0.1c0,0.4,0.1,0.8,0.2,1.2
		c0.1,0.3,0.3,0.6,0.6,0.8C18.1,78.4,18.4,78.5,18.7,78.5L18.7,78.5z"/>
	<path class="st1" d="M22.5,79.2v-0.7l1-0.2v-4.5l-1-0.2v-0.8h2l0.1,1c0.2-0.3,0.5-0.6,0.8-0.8c0.9-0.5,1.9-0.3,2.7,0.3
		c0.4,0.5,0.6,1.2,0.6,1.8v3.1l1,0.2v0.7h-3.1v-0.7l1-0.2v-3.1c0-0.4-0.1-0.8-0.3-1.2c-0.3-0.3-0.6-0.4-1-0.4
		c-0.3,0-0.6,0.1-0.9,0.2c-0.3,0.2-0.5,0.4-0.6,0.7v3.7l1,0.2v0.7H22.5z"/>
	<path class="st1" d="M32.3,79.3c-0.4,0-0.8-0.1-1.1-0.4c-0.3-0.4-0.5-0.8-0.4-1.3v-3.8h-1v-0.9h1v-1.5H32v1.5h1.4v0.9H32v3.8
		c0,0.2,0,0.5,0.2,0.7c0.1,0.1,0.3,0.2,0.5,0.2c0.2,0,0.3,0,0.5,0c0.1,0,0.3,0,0.4-0.1l0.2,0.8c-0.2,0.1-0.4,0.1-0.6,0.1
		C32.8,79.3,32.6,79.3,32.3,79.3z"/>
	<path class="st1" d="M36.4,79.4c-0.5,0-1.1-0.1-1.5-0.5c-0.6-0.7-0.7-1.7-0.2-2.4c0.3-0.3,0.6-0.6,1-0.7c0.5-0.2,1-0.3,1.5-0.3h1.1
		v-0.6c0-0.3-0.1-0.7-0.3-0.9c-0.3-0.2-0.6-0.3-1-0.3c-0.2,0-0.5,0-0.7,0.1c-0.2,0.1-0.4,0.2-0.5,0.3l-0.1,0.9h-0.9v-1.4
		c0.3-0.2,0.6-0.4,1-0.5c0.4-0.1,0.8-0.2,1.3-0.2c0.6,0,1.3,0.2,1.8,0.6c0.5,0.4,0.7,1,0.7,1.6V78c0,0.1,0,0.2,0,0.2
		c0,0.1,0,0.2,0,0.2l0.6,0.1v0.7h-1.7c0-0.2-0.1-0.3-0.1-0.5c0-0.1,0-0.3,0-0.4c-0.2,0.3-0.5,0.5-0.8,0.7
		C37.2,79.3,36.8,79.4,36.4,79.4z M36.6,78.4c0.4,0,0.7-0.1,1-0.3c0.3-0.1,0.5-0.4,0.7-0.7v-1.1h-1.2c-0.4,0-0.9,0.1-1.2,0.4
		c-0.2,0.2-0.4,0.5-0.4,0.8c0,0.2,0.1,0.5,0.3,0.6C36,78.4,36.3,78.5,36.6,78.4L36.6,78.4z"/>
	<path class="st1" d="M41,79.2v-0.7l1-0.2v-4.5l-1-0.2v-0.8h2.1v5.4l1,0.2v0.7H41z M41.9,71.3v-1.2h1.2v1.2H41.9z"/>
	<path class="st1" d="M44.8,79.2v-0.7l1-0.2v-4.5l-1-0.2v-0.8h2l0.1,1c0.2-0.3,0.5-0.6,0.8-0.8c0.9-0.5,1.9-0.3,2.7,0.3
		c0.4,0.5,0.6,1.2,0.6,1.8v3.1l1,0.2v0.7h-3.1v-0.7l1-0.2v-3.1c0-0.4-0.1-0.8-0.3-1.2c-0.3-0.3-0.6-0.4-1-0.4
		c-0.3,0-0.6,0.1-0.9,0.2c-0.3,0.2-0.5,0.4-0.6,0.7v3.7l1,0.2v0.7H44.8z"/>
	<path class="st1" d="M55.5,79.4c-0.5,0-1.1-0.1-1.5-0.4c-0.4-0.3-0.8-0.7-1-1.1c-0.2-0.5-0.4-1.1-0.3-1.7v-0.3
		c0-0.6,0.1-1.1,0.4-1.6c0.2-0.5,0.6-0.8,1-1.1c0.4-0.3,0.9-0.4,1.3-0.4c0.5,0,1,0.1,1.4,0.3c0.4,0.2,0.7,0.6,0.9,1
		c0.2,0.5,0.3,1,0.3,1.5v0.7h-4.1l0,0c0,0.4,0.1,0.7,0.2,1.1c0.1,0.3,0.3,0.6,0.6,0.7c0.3,0.2,0.6,0.3,0.9,0.3c0.3,0,0.7,0,1-0.2
		c0.3-0.1,0.5-0.3,0.8-0.5l0.5,0.8c-0.3,0.2-0.6,0.4-0.9,0.6C56.4,79.3,56,79.4,55.5,79.4z M53.9,75.4h2.9v-0.2c0-0.3,0-0.6-0.2-0.8
		c-0.1-0.2-0.3-0.4-0.5-0.6c-0.2-0.1-0.5-0.2-0.8-0.2c-0.3,0-0.5,0.1-0.7,0.2c-0.2,0.2-0.4,0.4-0.5,0.6
		C53.9,74.8,53.8,75.1,53.9,75.4L53.9,75.4z"/>
	<path class="st1" d="M58.8,79.2v-0.7l1-0.2v-4.5l-1-0.2v-0.8h2l0.1,0.8v0.1c0.2-0.3,0.4-0.6,0.7-0.8c0.3-0.2,0.6-0.3,0.9-0.3h0.4
		l0.3,0.1L63,73.9h-0.8c-0.3,0-0.5,0-0.8,0.2c-0.2,0.2-0.4,0.4-0.5,0.6v3.6l1,0.2v0.7H58.8z"/>
	<path class="st2" d="M22.4,94.8c-0.5,0-1.1-0.1-1.5-0.4c-0.4-0.3-0.8-0.7-1-1.1c-0.2-0.5-0.4-1.1-0.4-1.7v-0.3
		c0-0.6,0.1-1.1,0.4-1.6c0.2-0.5,0.6-0.8,1-1.1c0.4-0.3,0.9-0.4,1.3-0.4c0.5,0,1,0.1,1.4,0.3c0.4,0.2,0.7,0.6,0.9,1
		c0.2,0.5,0.3,1,0.3,1.5v0.7h-4.1l0,0c0,0.4,0.1,0.7,0.2,1.1c0.1,0.3,0.3,0.6,0.6,0.7c0.3,0.2,0.6,0.3,0.9,0.3c0.3,0,0.7,0,1-0.2
		c0.3-0.1,0.5-0.3,0.8-0.5l0.5,0.8c-0.3,0.2-0.6,0.4-0.9,0.6C23.3,94.7,22.8,94.8,22.4,94.8z M20.7,90.8h2.9v-0.2
		c0-0.3-0.1-0.6-0.2-0.8c-0.1-0.2-0.3-0.4-0.5-0.6c-0.2-0.1-0.5-0.2-0.8-0.2c-0.3,0-0.5,0.1-0.7,0.2c-0.2,0.2-0.4,0.4-0.5,0.6
		C20.9,90.2,20.8,90.5,20.7,90.8L20.7,90.8z"/>
	<path class="st2" d="M25.7,94.6v-0.7l1-0.2v-4.5l-1-0.2v-0.8h2l0.1,1c0.2-0.3,0.5-0.6,0.8-0.8c0.9-0.5,1.9-0.3,2.7,0.3
		c0.4,0.5,0.6,1.2,0.6,1.8v3.1l1,0.2v0.7h-3.1V94l1-0.2v-3.1c0-0.4-0.1-0.8-0.3-1.2c-0.3-0.3-0.6-0.4-1-0.4c-0.3,0-0.6,0.1-0.9,0.2
		c-0.3,0.2-0.5,0.4-0.6,0.7v3.7l1,0.2v0.7L25.7,94.6z"/>
	<path class="st2" d="M36.4,94.8c-0.5,0-1-0.1-1.5-0.4c-0.4-0.3-0.8-0.7-1-1.1c-0.2-0.5-0.4-1.1-0.4-1.7v-0.3c0-0.6,0.1-1.1,0.3-1.6
		c0.4-1,1.4-1.6,2.5-1.5c0.5,0,0.9,0.1,1.4,0.3c0.4,0.2,0.7,0.4,1,0.7v1.5h-0.9l-0.2-1.1c-0.1-0.1-0.3-0.3-0.5-0.3
		c-0.2-0.1-0.5-0.1-0.7-0.1c-0.3,0-0.6,0.1-0.9,0.3c-0.3,0.2-0.5,0.5-0.6,0.8c-0.1,0.4-0.2,0.7-0.2,1.1v0.3c0,0.4,0.1,0.8,0.2,1.2
		c0.1,0.3,0.3,0.6,0.6,0.8c0.3,0.2,0.6,0.3,0.9,0.3c0.4,0,0.7-0.1,1-0.3c0.3-0.2,0.4-0.5,0.5-0.9h1l0,0c0,0.4-0.1,0.7-0.3,1
		c-0.2,0.3-0.5,0.6-0.8,0.8C37.3,94.7,36.8,94.8,36.4,94.8z"/>
	<path class="st2" d="M39.7,94.6v-0.7l1-0.2v-7.3l-1-0.2v-0.8h2.1v8.2l1,0.2v0.7L39.7,94.6z"/>
	<path class="st2" d="M45.6,94.8c-0.5,0-1.1-0.1-1.5-0.5c-0.4-0.4-0.5-0.9-0.5-1.4c0-0.4,0.1-0.7,0.3-1c0.3-0.3,0.6-0.6,1-0.7
		c0.5-0.2,1-0.3,1.5-0.3h1.1v-0.6c0-0.3-0.1-0.7-0.3-0.9c-0.3-0.2-0.6-0.3-1-0.3c-0.2,0-0.5,0-0.7,0.1c-0.2,0.1-0.4,0.2-0.5,0.3
		l-0.1,0.9H44v-1.5c0.3-0.2,0.6-0.4,1-0.5c0.4-0.1,0.8-0.2,1.3-0.2c0.7,0,1.3,0.2,1.8,0.6c0.4,0.4,0.7,1,0.7,1.6v3.3
		c0,0.1,0,0.2,0,0.2l0.6,0.1v0.7h-1.7c0-0.2-0.1-0.3-0.1-0.5s0-0.3,0-0.4c-0.2,0.3-0.5,0.5-0.8,0.7C46.4,94.6,46,94.8,45.6,94.8z
		 M45.8,93.8c0.4,0,0.7-0.1,1-0.3c0.3-0.2,0.5-0.4,0.7-0.7v-1.1h-1.2c-0.4,0-0.9,0.1-1.2,0.4c-0.2,0.2-0.4,0.5-0.4,0.8
		c0,0.2,0.1,0.5,0.3,0.6C45.2,93.7,45.5,93.8,45.8,93.8L45.8,93.8z"/>
	<path class="st2" d="M52.7,94.6l-2.3-5.5L49.8,89v-0.8h2.7V89l-0.8,0.1l1.4,3.6l0.2,0.5l0,0l0.2-0.5l1.3-3.6L53.9,89v-0.8h2.7V89
		l-0.7,0.1l-2.1,5.5H52.7z"/>
	<path class="st2" d="M59.9,94.8c-0.5,0-1.1-0.1-1.5-0.4c-0.4-0.3-0.8-0.7-1-1.1c-0.2-0.5-0.4-1.1-0.4-1.7v-0.3
		c0-0.6,0.1-1.1,0.4-1.6c0.2-0.5,0.6-0.8,1-1.1c0.4-0.3,0.9-0.4,1.3-0.4c0.5,0,1,0.1,1.4,0.3c0.4,0.2,0.7,0.6,0.9,1
		c0.2,0.5,0.3,1,0.3,1.5v0.7h-4.1l0,0c0,0.4,0.1,0.7,0.2,1.1c0.1,0.3,0.3,0.6,0.6,0.7c0.3,0.2,0.6,0.3,0.9,0.3c0.3,0,0.7,0,1-0.2
		c0.3-0.1,0.5-0.3,0.8-0.5l0.5,0.8c-0.3,0.2-0.6,0.4-0.9,0.6C60.8,94.7,60.4,94.8,59.9,94.8z M58.3,90.8h2.9v-0.2
		c0-0.3-0.1-0.6-0.2-0.8c-0.1-0.2-0.3-0.4-0.5-0.6c-0.2-0.1-0.5-0.2-0.8-0.2c-0.3,0-0.5,0.1-0.7,0.2c-0.2,0.2-0.4,0.4-0.5,0.6
		C58.4,90.2,58.3,90.5,58.3,90.8L58.3,90.8z"/>
	<path class="st3" d="M25.1,110.2c-0.4,0-0.8,0-1.2-0.1c-0.4-0.1-0.8-0.2-1.2-0.4v-1.5h0.9l0.2,0.9c0.4,0.2,0.9,0.3,1.3,0.3
		c0.4,0,0.7-0.1,1-0.3c0.2-0.2,0.3-0.4,0.3-0.7c0-0.2-0.1-0.5-0.3-0.6c-0.3-0.2-0.7-0.4-1.1-0.4c-0.6-0.1-1.2-0.3-1.7-0.7
		c-0.3-0.3-0.5-0.7-0.5-1.1c0-0.3,0.1-0.7,0.3-0.9c0.2-0.3,0.5-0.5,0.8-0.6c0.4-0.2,0.8-0.2,1.2-0.2c0.4,0,0.8,0,1.2,0.2
		c0.3,0.1,0.6,0.2,0.9,0.4l0.1,1.4h-0.9l-0.2-0.8c-0.1-0.1-0.3-0.2-0.5-0.2c-0.2-0.1-0.4-0.1-0.6-0.1c-0.3,0-0.6,0.1-0.9,0.3
		c-0.2,0.1-0.3,0.4-0.3,0.6c0,0.3,0.2,0.6,0.5,0.7c0.3,0.1,0.5,0.2,0.8,0.3c0.7,0.1,1.3,0.4,1.8,0.8c0.3,0.3,0.5,0.7,0.5,1.2
		c0,0.5-0.2,1-0.6,1.3C26.4,110.1,25.7,110.2,25.1,110.2z"/>
	<path class="st3" d="M31.4,110.2c-0.5,0-1.1-0.1-1.5-0.4c-0.4-0.3-0.8-0.7-1-1.1c-0.2-0.5-0.4-1.1-0.4-1.7v-0.3
		c0-0.6,0.1-1.1,0.4-1.6c0.2-0.5,0.6-0.8,1-1.1c0.4-0.3,0.9-0.4,1.4-0.4c0.5,0,1,0.1,1.4,0.3c0.4,0.2,0.7,0.6,0.9,1
		c0.2,0.5,0.3,1,0.2,1.5v0.7h-4.1l0,0c0,0.4,0.1,0.7,0.2,1.1c0.1,0.3,0.3,0.6,0.6,0.8c0.3,0.2,0.6,0.3,0.9,0.3c0.3,0,0.7-0.1,1-0.2
		c0.3-0.1,0.5-0.3,0.8-0.5l0.5,0.8c-0.3,0.2-0.6,0.4-0.9,0.6C32.2,110.1,31.8,110.2,31.4,110.2z M29.7,106.2h2.9v-0.2
		c0-0.3-0.1-0.6-0.2-0.8c-0.1-0.2-0.3-0.4-0.5-0.6c-0.2-0.1-0.5-0.2-0.8-0.2c-0.3,0-0.5,0.1-0.7,0.2c-0.2,0.2-0.4,0.4-0.5,0.6
		C29.9,105.6,29.8,105.9,29.7,106.2L29.7,106.2z"/>
	<path class="st3" d="M34.7,110v-0.7l1-0.2v-4.5l-1-0.2v-0.8h2l0.1,0.8v0.1c0.2-0.3,0.4-0.6,0.7-0.8c0.3-0.2,0.6-0.3,0.9-0.3
		c0.1,0,0.3,0,0.4,0l0.3,0.1l-0.2,1.1H38c-0.3,0-0.5,0-0.8,0.2c-0.2,0.2-0.4,0.4-0.5,0.6v3.6l1,0.2v0.7L34.7,110z"/>
	<path class="st3" d="M42.4,110l-2.3-5.5l-0.7-0.1v-0.8h2.7v0.7l-0.8,0.1l1.4,3.6l0.2,0.5l0,0l0.2-0.5l1.3-3.6l-0.8-0.1v-0.8h2.7
		v0.7l-0.7,0.1l-2.2,5.5L42.4,110z"/>
	<path class="st3" d="M46.8,110v-0.7l1-0.2v-4.5l-1-0.2v-0.8h2.1v5.4l1,0.2v0.7H46.8z M47.7,102.1v-1.2h1.2v1.2H47.7z"/>
	<path class="st3" d="M53.5,110.2c-0.5,0-1-0.1-1.5-0.4c-0.4-0.3-0.8-0.7-1-1.1c-0.2-0.5-0.4-1.1-0.3-1.7v-0.3
		c0-0.6,0.1-1.1,0.3-1.6c0.2-0.5,0.6-0.9,1-1.1c0.5-0.3,1-0.4,1.5-0.4c0.5,0,0.9,0.1,1.3,0.3c0.4,0.2,0.7,0.4,1,0.7v1.5H55l-0.2-1.1
		c-0.1-0.1-0.3-0.3-0.5-0.3c-0.2-0.1-0.5-0.1-0.7-0.1c-0.3,0-0.6,0.1-0.9,0.3c-0.3,0.2-0.5,0.5-0.6,0.8c-0.2,0.4-0.2,0.7-0.2,1.1
		v0.3c0,0.4,0.1,0.8,0.2,1.2c0.1,0.3,0.3,0.6,0.6,0.8c0.3,0.2,0.6,0.3,0.9,0.3c0.4,0,0.7-0.1,1-0.3c0.3-0.2,0.4-0.5,0.5-0.9h1l0,0
		c0,0.4-0.1,0.7-0.3,1c-0.2,0.3-0.5,0.6-0.8,0.8C54.4,110,54,110.2,53.5,110.2z"/>
	<path class="st3" d="M60,110.2c-0.5,0-1.1-0.1-1.5-0.4c-0.4-0.3-0.8-0.7-1-1.1c-0.2-0.5-0.4-1.1-0.4-1.7v-0.3
		c0-0.6,0.1-1.1,0.4-1.6c0.2-0.5,0.6-0.8,1-1.1c0.4-0.3,0.9-0.4,1.4-0.4c0.5,0,1,0.1,1.4,0.3c0.4,0.2,0.7,0.6,0.9,1
		c0.2,0.5,0.3,1,0.3,1.5v0.7h-4.1l0,0c0,0.4,0.1,0.7,0.2,1.1c0.1,0.3,0.3,0.6,0.6,0.8c0.3,0.2,0.6,0.3,0.9,0.3c0.3,0,0.7-0.1,1-0.2
		c0.3-0.1,0.5-0.3,0.8-0.5l0.5,0.8c-0.3,0.2-0.6,0.4-0.9,0.6C60.9,110.1,60.4,110.2,60,110.2z M58.3,106.2h2.9v-0.2
		c0-0.3-0.1-0.6-0.2-0.8c-0.1-0.2-0.3-0.4-0.5-0.6c-0.2-0.1-0.5-0.2-0.8-0.2c-0.3,0-0.5,0.1-0.7,0.2c-0.2,0.2-0.4,0.4-0.5,0.6
		C58.4,105.6,58.3,105.9,58.3,106.2L58.3,106.2z"/>
	<path class="st4" d="M696.3,164.5c-0.4,0-0.9-0.1-1.2-0.5c-0.3-0.4-0.5-0.8-0.4-1.3v-3.9h-1V158h1v-1.5h1.1v1.5h1.4v0.9h-1.4v3.9
		c0,0.2,0,0.5,0.2,0.7c0.1,0.1,0.3,0.2,0.5,0.2h0.5l0.4-0.1l0.2,0.8c-0.2,0.1-0.4,0.1-0.6,0.1C696.7,164.4,696.5,164.5,696.3,164.5z
		"/>
	<path class="st4" d="M698.3,164.4v-0.7l1-0.2v-4.5l-1-0.2V158h2l0.1,0.8v0.1c0.2-0.3,0.4-0.6,0.7-0.8c0.3-0.2,0.6-0.3,0.9-0.3
		c0.1,0,0.2,0,0.4,0l0.3,0.1l-0.2,1.1h-0.8c-0.3,0-0.5,0-0.8,0.2c-0.2,0.2-0.4,0.4-0.5,0.6v3.6l1,0.2v0.7L698.3,164.4z"/>
	<path class="st4" d="M705.3,164.5c-0.5,0-1.1-0.1-1.5-0.5c-0.4-0.4-0.5-0.9-0.5-1.4c0-0.4,0.1-0.8,0.3-1.1c0.3-0.3,0.6-0.6,1-0.7
		c0.5-0.2,1-0.3,1.5-0.3h1.1V160c0-0.3-0.1-0.7-0.4-0.9c-0.3-0.2-0.6-0.3-1-0.3c-0.2,0-0.5,0-0.7,0.1c-0.2,0.1-0.4,0.1-0.5,0.3
		l-0.1,0.9h-0.9v-1.4c0.3-0.2,0.6-0.4,1-0.5c0.4-0.1,0.8-0.2,1.3-0.2c0.6,0,1.3,0.2,1.8,0.6c0.4,0.4,0.7,1,0.6,1.6v3.1
		c0,0.1,0,0.2,0,0.2c0,0.1,0,0.2,0,0.2l0.6,0.1v0.7h-1.7c0-0.2-0.1-0.3-0.1-0.5c0-0.1,0-0.3,0-0.4c-0.2,0.3-0.5,0.5-0.8,0.7
		C706.1,164.4,705.7,164.5,705.3,164.5z M705.5,163.5c0.4,0,0.7-0.1,1-0.3c0.3-0.2,0.5-0.4,0.7-0.7v-1.1h-1.2
		c-0.4,0-0.9,0.1-1.2,0.4c-0.2,0.2-0.4,0.5-0.4,0.9c0,0.2,0.1,0.5,0.3,0.6C705,163.4,705.2,163.5,705.5,163.5L705.5,163.5z"/>
	<path class="st4" d="M709.9,164.4v-0.7l1-0.2v-4.5l-1-0.2V158h2l0.1,0.9c0.2-0.3,0.5-0.6,0.8-0.8c0.3-0.2,0.7-0.3,1.1-0.3
		c0.6,0,1.2,0.2,1.6,0.6c0.4,0.5,0.6,1.2,0.6,1.9v3.1l1,0.2v0.7H714v-0.7l1-0.2v-3.1c0-0.4-0.1-0.8-0.3-1.2c-0.3-0.2-0.6-0.4-1-0.4
		c-0.3,0-0.6,0.1-0.9,0.2c-0.3,0.2-0.5,0.4-0.6,0.7v3.7l1,0.2v0.7L709.9,164.4z"/>
	<path class="st4" d="M720.4,164.5c-0.4,0-0.8,0-1.2-0.1c-0.4-0.1-0.8-0.2-1.2-0.4v-1.5h0.9l0.2,0.9c0.2,0.1,0.4,0.1,0.6,0.2
		c0.2,0,0.4,0.1,0.7,0.1c0.4,0,0.7-0.1,1-0.3c0.2-0.2,0.3-0.4,0.3-0.7c0-0.3-0.1-0.5-0.3-0.6c-0.3-0.2-0.7-0.4-1.1-0.4
		c-0.6-0.1-1.2-0.3-1.7-0.7c-0.4-0.3-0.6-0.7-0.5-1.2c0-0.3,0.1-0.7,0.3-0.9c0.2-0.3,0.5-0.5,0.8-0.6c0.4-0.2,0.8-0.3,1.3-0.2
		c0.4,0,0.8,0,1.2,0.2c0.3,0.1,0.6,0.2,0.9,0.4l0.1,1.4h-0.9l-0.2-0.8c-0.1-0.1-0.3-0.2-0.5-0.2c-0.2-0.1-0.4-0.1-0.6-0.1
		c-0.3,0-0.6,0.1-0.9,0.3c-0.2,0.1-0.3,0.4-0.3,0.6c0,0.1,0,0.3,0.1,0.4c0.1,0.1,0.2,0.2,0.4,0.3c0.3,0.1,0.5,0.2,0.8,0.3
		c0.7,0.1,1.3,0.4,1.8,0.8c0.3,0.3,0.5,0.7,0.5,1.2c0,0.5-0.2,1-0.6,1.4C721.7,164.3,721,164.5,720.4,164.5z"/>
	<path class="st4" d="M723.6,166.8V166l0.9-0.2v-7l-1-0.2V158h1.9l0.1,0.8c0.2-0.3,0.5-0.5,0.8-0.7c0.3-0.2,0.7-0.2,1-0.2
		c0.5,0,1,0.1,1.3,0.4c0.4,0.3,0.7,0.7,0.8,1.2c0.2,0.6,0.3,1.2,0.3,1.8v0.1c0,0.5-0.1,1.1-0.3,1.6c-0.2,0.4-0.5,0.8-0.8,1.1
		c-0.4,0.3-0.9,0.4-1.3,0.4c-0.3,0-0.7-0.1-1-0.2c-0.3-0.1-0.6-0.3-0.8-0.6v2.2l1,0.2v0.8L723.6,166.8z M727.1,163.6
		c0.5,0,1-0.2,1.2-0.6c0.3-0.5,0.4-1,0.4-1.6v-0.1c0-0.4-0.1-0.9-0.2-1.3c-0.1-0.3-0.3-0.6-0.6-0.9c-0.3-0.2-0.6-0.3-0.9-0.3
		c-0.3,0-0.6,0.1-0.8,0.2c-0.2,0.2-0.4,0.4-0.6,0.6v3.1c0.1,0.2,0.3,0.5,0.6,0.6C726.5,163.5,726.8,163.6,727.1,163.6L727.1,163.6z"
		/>
	<path class="st4" d="M732.8,164.5c-0.5,0-1.1-0.1-1.5-0.5c-0.4-0.4-0.6-0.9-0.5-1.4c0-0.4,0.1-0.8,0.3-1.1c0.3-0.3,0.6-0.6,1-0.7
		c0.5-0.2,1-0.3,1.5-0.3h1.1V160c0-0.3-0.1-0.7-0.3-0.9c-0.3-0.2-0.6-0.3-1-0.3c-0.2,0-0.5,0-0.7,0.1c-0.2,0.1-0.4,0.1-0.5,0.3
		l-0.1,0.9h-0.9v-1.4c0.3-0.2,0.6-0.4,1-0.5c0.4-0.1,0.8-0.2,1.3-0.2c0.6,0,1.3,0.2,1.8,0.6c0.5,0.4,0.7,1,0.7,1.6v3.3
		c0,0.1,0,0.2,0,0.2l0.6,0.1v0.7h-1.7c0-0.2-0.1-0.3-0.1-0.5c0-0.1,0-0.3,0-0.4c-0.2,0.3-0.5,0.5-0.8,0.7
		C733.6,164.4,733.2,164.5,732.8,164.5z M733,163.5c0.4,0,0.7-0.1,1-0.3c0.3-0.1,0.5-0.4,0.7-0.7v-1.1h-1.2c-0.4,0-0.9,0.1-1.2,0.4
		c-0.2,0.2-0.4,0.5-0.4,0.9c0,0.2,0.1,0.5,0.3,0.6C732.5,163.4,732.7,163.5,733,163.5L733,163.5z"/>
	<path class="st4" d="M737.4,164.4v-0.7l1-0.2v-4.5l-1-0.2V158h2l0.1,0.8v0.1c0.2-0.3,0.4-0.6,0.7-0.8c0.3-0.2,0.6-0.3,0.9-0.3
		c0.1,0,0.2,0,0.4,0l0.3,0.1l-0.2,1.1h-0.8c-0.3,0-0.5,0-0.8,0.2c-0.2,0.2-0.4,0.4-0.5,0.6v3.6l1,0.2v0.7L737.4,164.4z"/>
	<path class="st4" d="M745.2,164.5c-0.5,0-1.1-0.1-1.5-0.4c-0.4-0.3-0.8-0.7-1-1.1c-0.2-0.5-0.4-1.1-0.4-1.6V161
		c0-0.6,0.1-1.1,0.4-1.6c0.2-0.5,0.6-0.8,1-1.1c0.4-0.3,0.9-0.4,1.3-0.4c0.5,0,1,0.1,1.4,0.4c0.4,0.2,0.7,0.6,0.9,1
		c0.2,0.5,0.3,1,0.3,1.5v0.7h-4.1l0,0c0,0.4,0.1,0.7,0.2,1.1c0.1,0.3,0.3,0.6,0.6,0.7c0.3,0.2,0.6,0.3,0.9,0.3c0.3,0,0.7-0.1,1-0.2
		c0.3-0.1,0.5-0.3,0.8-0.5l0.5,0.8c-0.3,0.2-0.6,0.4-0.9,0.6C746.1,164.4,745.7,164.5,745.2,164.5z M743.5,160.6h2.9v-0.2
		c0-0.3-0.1-0.6-0.2-0.8c-0.1-0.2-0.3-0.4-0.5-0.6c-0.2-0.1-0.5-0.2-0.8-0.2c-0.3,0-0.5,0.1-0.7,0.2c-0.2,0.2-0.4,0.4-0.5,0.6
		C743.7,159.9,743.6,160.2,743.5,160.6L743.5,160.6z"/>
	<path class="st4" d="M748.5,164.4v-0.7l1-0.2v-4.5l-1-0.2V158h2l0.1,0.9c0.2-0.3,0.5-0.6,0.8-0.8c0.9-0.5,1.9-0.3,2.7,0.3
		c0.4,0.5,0.6,1.2,0.6,1.9v3.1l1,0.2v0.7h-3.1v-0.7l1-0.2v-3.1c0-0.4-0.1-0.8-0.3-1.2c-0.3-0.2-0.6-0.4-1-0.4
		c-0.3,0-0.6,0.1-0.9,0.2c-0.3,0.2-0.5,0.4-0.6,0.7v3.7l1,0.2v0.7L748.5,164.4z"/>
	<path class="st4" d="M758.4,164.5c-0.4,0-0.8-0.1-1.1-0.4c-0.3-0.4-0.5-0.8-0.4-1.3v-3.9h-1V158h1v-1.5h1.2v1.5h1.4v0.9H758v3.9
		c0,0.2,0,0.5,0.2,0.7c0.1,0.1,0.3,0.2,0.5,0.2h0.5l0.4-0.1l0.2,0.8c-0.2,0.1-0.4,0.1-0.6,0.1C758.9,164.4,758.6,164.5,758.4,164.5z
		"/>
	<path class="st4" d="M760.4,164.4v-0.7l1-0.2v-7.3l-1-0.2v-0.7h2.1v8.2l1,0.2v0.7H760.4z"/>
	<path class="st4" d="M765.6,166.9h-0.4l-0.3-0.1l0.1-0.9h0.3h0.2c0.2,0,0.5-0.1,0.6-0.3c0.2-0.2,0.3-0.5,0.4-0.8l0.3-0.7l-2.3-5.4
		l-0.7-0.1V158h2.7v0.7l-0.8,0.1l1.2,3.2l0.3,0.8l0,0l1.5-4l-0.8-0.1V158h2.6v0.7l-0.7,0.1l-2.5,6.5c-0.1,0.3-0.3,0.6-0.4,0.8
		c-0.2,0.2-0.4,0.4-0.6,0.6C766.2,166.8,765.9,166.9,765.6,166.9z"/>
	<path class="st4" d="M684.4,178.9c-0.5,0-1.1-0.1-1.5-0.4c-0.4-0.3-0.8-0.7-1-1.1c-0.2-0.5-0.4-1.1-0.4-1.6v-0.3
		c0-0.6,0.1-1.1,0.4-1.6c0.2-0.5,0.6-0.8,1-1.1c0.4-0.3,0.9-0.4,1.4-0.4c0.5,0,1,0.1,1.4,0.4c0.4,0.2,0.7,0.6,0.9,1
		c0.2,0.5,0.3,1,0.3,1.5v0.7h-4.1l0,0c0,0.4,0.1,0.7,0.2,1.1c0.1,0.3,0.3,0.6,0.6,0.7c0.3,0.2,0.6,0.3,0.9,0.3c0.3,0,0.7-0.1,1-0.2
		c0.3-0.1,0.5-0.3,0.8-0.5l0.5,0.8c-0.3,0.2-0.6,0.4-0.9,0.6C685.3,178.8,684.8,178.9,684.4,178.9z M682.7,175h2.9v-0.2
		c0-0.3-0.1-0.6-0.2-0.8c-0.1-0.2-0.3-0.4-0.5-0.6c-0.2-0.1-0.5-0.2-0.8-0.2c-0.3,0-0.5,0.1-0.7,0.2c-0.2,0.2-0.4,0.4-0.5,0.6
		C682.8,174.4,682.7,174.7,682.7,175L682.7,175z"/>
	<path class="st4" d="M687.7,178.8V178l1-0.2v-4.5l-1-0.2v-0.7h2l0.1,0.9c0.2-0.3,0.5-0.6,0.8-0.8c0.3-0.2,0.7-0.3,1.1-0.3
		c0.6,0,1.2,0.2,1.6,0.6c0.4,0.5,0.6,1.2,0.6,1.9v3.1l1,0.2v0.7h-3.1V178l1-0.2v-3.1c0-0.4-0.1-0.8-0.3-1.2c-0.3-0.2-0.6-0.4-1-0.4
		c-0.3,0-0.6,0.1-0.9,0.2c-0.3,0.2-0.5,0.4-0.6,0.7v3.7l1,0.2v0.7L687.7,178.8z"/>
	<path class="st4" d="M698.4,178.9c-1.1,0-2-0.6-2.5-1.5c-0.2-0.5-0.4-1.1-0.3-1.6v-0.2c0-0.6,0.1-1.1,0.3-1.6
		c0.4-1,1.4-1.6,2.5-1.6c0.5,0,0.9,0.1,1.4,0.3c0.4,0.2,0.7,0.4,1,0.7v1.5h-0.9l-0.2-1.1c-0.1-0.1-0.3-0.3-0.5-0.3
		c-0.2-0.1-0.5-0.1-0.7-0.1c-0.3,0-0.6,0.1-0.9,0.3c-0.3,0.2-0.5,0.5-0.6,0.8c-0.1,0.4-0.2,0.7-0.2,1.1v0.2c0,0.4,0.1,0.8,0.2,1.2
		c0.1,0.3,0.3,0.6,0.6,0.8c0.3,0.2,0.6,0.3,0.9,0.3c0.4,0,0.7-0.1,1-0.3c0.3-0.2,0.4-0.5,0.5-0.9h1l0,0c0,0.4-0.1,0.7-0.3,1
		c-0.2,0.3-0.5,0.6-0.8,0.8C699.3,178.8,698.8,178.9,698.4,178.9z"/>
	<path class="st4" d="M701.7,178.8V178l1-0.2v-4.5l-1-0.2v-0.7h2l0.1,0.8v0.1c0.2-0.3,0.4-0.6,0.7-0.8c0.3-0.2,0.6-0.3,0.9-0.3
		c0.1,0,0.3,0,0.4,0l0.3,0.1l-0.1,1.1l-0.8-0.1c-0.3,0-0.5,0-0.8,0.2c-0.2,0.2-0.4,0.4-0.5,0.6v3.6l1,0.2v0.7L701.7,178.8z"/>
	<path class="st4" d="M708.2,181.3h-0.4l-0.3-0.1l0.1-0.9h0.3h0.2c0.2,0,0.5-0.1,0.6-0.3c0.2-0.2,0.3-0.5,0.4-0.8l0.3-0.7l-2.3-5.4
		l-0.7-0.1v-0.7h2.7v0.7l-0.8,0.1l1.2,3.2l0.3,0.8l0,0l1.5-4l-0.8-0.1v-0.7h2.6v0.7l-0.7,0.1l-2.5,6.5c-0.1,0.3-0.3,0.6-0.4,0.8
		c-0.2,0.2-0.4,0.4-0.6,0.6C708.8,181.2,708.5,181.3,708.2,181.3z"/>
	<path class="st4" d="M713.7,181.2v-0.8l0.9-0.2v-7l-1-0.2v-0.7h1.9l0.1,0.8c0.2-0.3,0.5-0.5,0.8-0.7c0.3-0.2,0.7-0.2,1-0.2
		c0.5,0,1,0.1,1.3,0.4c0.4,0.3,0.7,0.7,0.9,1.2c0.2,0.6,0.3,1.2,0.3,1.8v0.1c0,0.5-0.1,1.1-0.3,1.6c-0.2,0.4-0.5,0.8-0.9,1.1
		c-0.4,0.3-0.9,0.4-1.3,0.4c-0.3,0-0.7-0.1-1-0.2c-0.3-0.1-0.5-0.3-0.8-0.6v2.2l1,0.2v0.8L713.7,181.2z M717.1,178
		c0.5,0,1-0.2,1.2-0.6c0.3-0.5,0.5-1,0.4-1.6v-0.1c0-0.4-0.1-0.9-0.2-1.3c-0.1-0.3-0.3-0.6-0.6-0.9c-0.3-0.2-0.6-0.3-0.9-0.3
		c-0.3,0-0.6,0.1-0.8,0.2c-0.2,0.1-0.4,0.4-0.6,0.6v3.1C715.9,177.7,716.5,178,717.1,178z"/>
	<path class="st4" d="M723.1,178.9c-0.4,0-0.8-0.1-1.1-0.4c-0.3-0.4-0.5-0.8-0.4-1.3v-3.9h-1v-0.9h1v-1.5h1.1v1.5h1.4v0.9h-1.4v3.9
		c0,0.2,0,0.5,0.2,0.7c0.1,0.1,0.3,0.2,0.5,0.2h0.5l0.4-0.1l0.2,0.8c-0.2,0.1-0.4,0.1-0.6,0.1C723.6,178.9,723.3,178.9,723.1,178.9z
		"/>
	<path class="st4" d="M727.9,178.9c-0.5,0-1.1-0.1-1.5-0.4c-0.4-0.3-0.8-0.7-1-1.1c-0.2-0.5-0.4-1.1-0.4-1.6v-0.3
		c0-0.6,0.1-1.1,0.4-1.6c0.2-0.5,0.6-0.8,1-1.1c0.4-0.3,0.9-0.4,1.4-0.4c0.5,0,1,0.1,1.4,0.4c0.4,0.2,0.7,0.6,0.9,1
		c0.2,0.5,0.3,1,0.3,1.5v0.7h-4.1l0,0c0,0.4,0.1,0.7,0.2,1.1c0.1,0.3,0.3,0.6,0.6,0.7c0.3,0.2,0.6,0.3,0.9,0.3c0.3,0,0.7-0.1,1-0.2
		c0.3-0.1,0.5-0.3,0.8-0.5l0.5,0.8c-0.3,0.2-0.6,0.4-0.9,0.6C728.8,178.8,728.4,178.9,727.9,178.9z M726.2,175h2.9v-0.2
		c0-0.3,0-0.6-0.2-0.8c-0.1-0.2-0.3-0.4-0.5-0.6c-0.2-0.1-0.5-0.2-0.8-0.2c-0.3,0-0.5,0.1-0.7,0.2c-0.2,0.2-0.4,0.4-0.5,0.6
		C726.4,174.4,726.3,174.7,726.2,175L726.2,175z"/>
	<path class="st4" d="M733.9,178.9c-0.5,0-0.9-0.1-1.3-0.4c-0.4-0.3-0.7-0.6-0.8-1.1c-0.2-0.5-0.3-1.1-0.3-1.6v-0.1
		c0-0.6,0.1-1.2,0.3-1.8c0.2-0.5,0.5-0.9,0.8-1.2c0.4-0.3,0.9-0.4,1.3-0.4c0.3,0,0.7,0.1,1,0.2c0.3,0.1,0.5,0.3,0.7,0.6v-2.6l-1-0.2
		v-0.7h2.1v8.2l1,0.2v0.7h-2l-0.1-0.8c-0.2,0.3-0.4,0.5-0.8,0.7C734.6,178.8,734.3,178.9,733.9,178.9z M734.2,177.9
		c0.3,0,0.6-0.1,0.9-0.2c0.2-0.2,0.4-0.4,0.6-0.7v-2.9c-0.1-0.3-0.3-0.5-0.6-0.6c-0.3-0.2-0.6-0.2-0.9-0.2c-0.3,0-0.7,0.1-0.9,0.3
		c-0.3,0.2-0.4,0.5-0.5,0.9c-0.1,0.4-0.2,0.9-0.2,1.3v0.1c0,0.5,0.1,1.1,0.4,1.5C733.3,177.8,733.8,178,734.2,177.9z"/>
	<path class="st4" d="M744.2,178.8l-2.3-5.5l-0.7-0.1v-0.7h2.7v0.7l-0.8,0.1l1.4,3.6l0.2,0.5l0,0l0.2-0.5l1.3-3.6l-0.8-0.1v-0.7h2.6
		v0.7l-0.7,0.1l-2.1,5.5H744.2z"/>
	<path class="st4" d="M751.4,178.9c-1.1,0-2.1-0.6-2.5-1.6c-0.2-0.5-0.4-1.1-0.3-1.7v-0.1c0-0.6,0.1-1.1,0.3-1.7
		c0.2-0.5,0.6-0.9,1-1.1c0.4-0.3,1-0.4,1.5-0.4c0.5,0,1.1,0.1,1.5,0.4c0.4,0.3,0.8,0.7,1,1.1c0.2,0.5,0.4,1.1,0.4,1.7v0.1
		c0,0.6-0.1,1.1-0.4,1.7c-0.2,0.5-0.6,0.9-1,1.1C752.4,178.8,751.9,178.9,751.4,178.9z M751.4,178c0.3,0,0.7-0.1,0.9-0.3
		c0.3-0.2,0.5-0.5,0.6-0.8c0.1-0.4,0.2-0.8,0.2-1.2v-0.1c0-0.4-0.1-0.8-0.2-1.2c-0.1-0.3-0.3-0.6-0.6-0.8c-0.6-0.4-1.3-0.4-1.9,0
		c-0.3,0.2-0.5,0.5-0.6,0.8c-0.1,0.4-0.2,0.8-0.2,1.2v0.1c0,0.4,0.1,0.8,0.2,1.2c0.1,0.3,0.3,0.6,0.6,0.8
		C750.7,177.9,751,178,751.4,178L751.4,178z"/>
	<path class="st4" d="M754.9,178.8V178l1-0.2v-7.3l-1-0.2v-0.7h2.1v8.2l1,0.2v0.7L754.9,178.8z"/>
	<path class="st4" d="M761.6,178.9c-0.6,0-1.2-0.2-1.6-0.7c-0.4-0.6-0.6-1.3-0.6-2.1v-2.8l-0.7-0.2v-0.7h1.9v3.8
		c0,0.5,0.1,1,0.3,1.4c0.2,0.3,0.6,0.4,0.9,0.4c0.3,0,0.7-0.1,1-0.2c0.3-0.2,0.5-0.4,0.6-0.7v-3.7l-0.9-0.2v-0.7h2v5.4l0.7,0.2v0.7
		h-1.8l-0.1-0.9c-0.2,0.3-0.5,0.6-0.8,0.8C762.3,178.8,761.9,178.9,761.6,178.9z"/>
	<path class="st4" d="M766.1,178.8V178l1-0.2v-4.5l-1-0.2v-0.7h2l0.1,0.8c0.2-0.3,0.5-0.5,0.8-0.7c0.3-0.2,0.7-0.3,1.1-0.3
		c0.4,0,0.8,0.1,1.1,0.3c0.3,0.2,0.6,0.5,0.7,0.9c0.2-0.3,0.5-0.6,0.8-0.9c0.3-0.2,0.7-0.3,1.1-0.3c0.6,0,1.2,0.2,1.5,0.7
		c0.4,0.6,0.6,1.3,0.6,2v2.9l1,0.2v0.7h-3.1V178l1-0.2V175c0-0.5-0.1-0.9-0.3-1.3c-0.3-0.3-0.6-0.4-1-0.4c-0.4,0-0.8,0.1-1,0.4
		c-0.2,0.3-0.4,0.7-0.4,1.1v3.1l1,0.2v0.7h-3.1V178l1-0.2V175c0-0.5-0.1-0.9-0.3-1.3c-0.2-0.3-0.6-0.4-1-0.4c-0.3,0-0.6,0.1-0.9,0.2
		c-0.2,0.1-0.4,0.4-0.5,0.6v3.8l1,0.2v0.7L766.1,178.8z"/>
	<path class="st4" d="M780.5,178.9c-0.5,0-1.1-0.1-1.5-0.4c-0.4-0.3-0.8-0.7-1-1.1c-0.2-0.5-0.4-1.1-0.4-1.6v-0.3
		c0-0.6,0.1-1.1,0.4-1.6c0.2-0.5,0.6-0.8,1-1.1c0.4-0.3,0.9-0.4,1.3-0.4c0.5,0,1,0.1,1.4,0.4c0.4,0.2,0.7,0.6,0.9,1
		c0.2,0.5,0.3,1,0.3,1.5v0.7h-4.1l0,0c0,0.4,0.1,0.7,0.2,1.1c0.1,0.3,0.3,0.6,0.6,0.7c0.3,0.2,0.6,0.3,0.9,0.3c0.3,0,0.7-0.1,1-0.2
		c0.3-0.1,0.5-0.3,0.8-0.5l0.5,0.8c-0.3,0.2-0.6,0.4-0.9,0.6C781.4,178.8,780.9,178.9,780.5,178.9z M778.8,175h2.9v-0.2
		c0-0.3-0.1-0.6-0.2-0.8c-0.1-0.2-0.3-0.4-0.5-0.6c-0.2-0.1-0.5-0.2-0.8-0.2c-0.3,0-0.5,0.1-0.7,0.2c-0.2,0.2-0.4,0.4-0.5,0.6
		C778.9,174.4,778.8,174.7,778.8,175L778.8,175z"/>
	<line class="st5" x1="692" y1="103.8" x2="540.5" y2="103.8"/>
	<line class="st5" x1="410.3" y1="103.8" x2="260.7" y2="103.8"/>
	<path class="st6" d="M765,84.1h-5.2c-0.7,0-1-0.3-1-1v-8c0-0.7,0.3-1,1-1h10.4c0.7,0,1,0.3,1,0.9v8c0,0.7-0.3,1-1,1
		C768.4,84.1,766.7,84.1,765,84.1z"/>
	<path class="st6" d="M759.6,73.4c0-2.2,1.3-4.2,3.3-5.1c2.6-1.2,5.7,0,6.8,2.6c0.1,0.3,0.2,0.6,0.3,0.9c0.1,0.5,0.2,1,0.3,1.5"/>
	<path class="st1" d="M764.1,80.6L764.1,80.6v1.1c0,0.2,0.1,0.3,0.3,0.3h1c0.3,0,0.4-0.1,0.4-0.3v-2c0-0.2,0.1-0.4,0.3-0.5
		c0.7-0.3,1-1.1,0.8-1.8c-0.3-0.7-1-1.2-1.8-1.2c-0.8-0.1-1.6,0.3-2,1.1c-0.3,0.7,0,1.5,0.7,1.9c0.2,0.1,0.4,0.3,0.3,0.6
		C764.1,80.1,764.1,80.3,764.1,80.6z"/>
	<circle class="st7" cx="475.6" cy="104.6" r="83.7"/>
	<path class="st8" d="M408.8,39.2l-0.5-0.5l0.8-1l-4.5-4.6l-0.9,1l-0.5-0.5l1.4-2.1l5.3,5.4l1.1-0.8l0.5,0.5L408.8,39.2z"/>
	<path class="st8" d="M414.4,34.1c-0.6,0.5-1.3,0.8-2.1,0.7c-0.9-0.2-1.6-0.7-2.2-1.4l-1.3-1.5c-0.6-0.6-1-1.5-1.1-2.4
		c0-1.5,1.3-2.7,2.8-2.6c0.1,0,0.2,0,0.2,0c0.9,0.2,1.7,0.7,2.2,1.4l1.3,1.5c0.6,0.6,1,1.5,1.1,2.4C415.3,32.9,415,33.6,414.4,34.1z
		 M413.8,33.4c0.4-0.3,0.5-0.7,0.5-1.2c-0.1-0.6-0.4-1.1-0.8-1.5l-1.6-1.9c-0.3-0.5-0.8-0.8-1.4-1c-0.4-0.1-0.9,0-1.3,0.3
		c-0.4,0.3-0.5,0.7-0.5,1.2c0.1,0.6,0.4,1.1,0.8,1.5l1.6,1.9c0.4,0.5,0.8,0.8,1.4,1C412.9,33.8,413.4,33.7,413.8,33.4z"/>
	<path class="st8" d="M417.5,31.3l-0.7-0.9l0.9-0.7l0.7,0.9L417.5,31.3z"/>
	<path class="st8" d="M419.5,29.7l-0.5-0.6l1-0.9l-3.7-5.2l-1.1,0.8l-0.4-0.6l1.7-1.9l4.5,6.2l1.2-0.6l0.4,0.6L419.5,29.7z"/>
	<path class="st8" d="M425.8,25.5c-0.6,0.4-1.4,0.6-2.1,0.3c-0.9-0.3-1.6-0.9-2-1.7l-1.1-1.7c-0.5-0.7-0.8-1.6-0.7-2.5
		c0.1-0.8,0.5-1.4,1.2-1.8c0.6-0.4,1.4-0.5,2.1-0.3c0.9,0.3,1.6,0.9,2,1.7l1.1,1.7c0.5,0.7,0.8,1.6,0.7,2.5
		C426.9,24.5,426.5,25.2,425.8,25.5z M425.4,24.8c0.4-0.2,0.7-0.6,0.7-1.1c0-0.6-0.2-1.2-0.6-1.6l-1.4-2.1c-0.3-0.5-0.7-0.9-1.2-1.2
		c-0.4-0.2-0.9-0.1-1.3,0.1c-0.4,0.2-0.6,0.7-0.6,1.1c0,0.6,0.2,1.1,0.5,1.6l1.3,2.1c0.3,0.5,0.7,0.9,1.3,1.2
		C424.5,25.1,425,25,425.4,24.8z"/>
	<path class="st8" d="M429.4,23.3l-0.6-1l1-0.6l0.6,1L429.4,23.3z"/>
	<path class="st8" d="M431.7,22l-0.3-0.7l1.1-0.7l-2.9-5.7l-1.2,0.6l-0.3-0.6l2-1.6l3.5,6.8l1.2-0.5l0.3,0.7L431.7,22z"/>
	<path class="st8" d="M438.5,18.8c-0.7,0.3-1.5,0.3-2.2,0c-0.8-0.5-1.4-1.2-1.7-2l-0.8-1.8c-0.4-0.8-0.5-1.7-0.3-2.6
		c0.2-0.7,0.8-1.3,1.5-1.6c0.7-0.3,1.5-0.3,2.2,0c0.8,0.4,1.4,1.2,1.7,2l0.8,1.9c0.4,0.8,0.5,1.7,0.3,2.6
		C439.8,18,439.2,18.6,438.5,18.8z M438.1,18c0.4-0.2,0.8-0.5,0.9-1c0.1-0.6,0-1.2-0.3-1.7l-1-2.3c-0.2-0.5-0.5-1-1-1.4
		c-0.7-0.4-1.6-0.1-2,0.6c-0.1,0.1-0.1,0.2-0.1,0.3c-0.1,0.6,0,1.2,0.3,1.7l1,2.3c0.2,0.5,0.5,1,1,1.4
		C437.2,18.2,437.7,18.2,438.1,18z"/>
	<path class="st8" d="M442.3,17.1l-0.4-1.1l1.1-0.4l0.4,1.1L442.3,17.1z"/>
	<path class="st8" d="M444.7,16.2l-0.2-0.8l1.7-3.8c0.2-0.5,0.4-0.8,0.4-1.1c0.1-0.3,0.1-0.5,0.2-0.8c0-0.2,0-0.5-0.1-0.7
		c-0.1-0.4-0.4-0.7-0.7-0.9c-0.4-0.2-0.8-0.2-1.2-0.1c-0.4,0.1-0.8,0.4-1,0.8c-0.2,0.4-0.2,0.9,0,1.3l-1,0.3l0,0
		c-0.2-0.4-0.2-0.9-0.1-1.4c0.1-0.4,0.3-0.9,0.6-1.2c0.4-0.4,0.8-0.6,1.3-0.8c0.5-0.2,0.9-0.2,1.4-0.1c0.4,0.1,0.8,0.2,1.1,0.5
		c0.3,0.3,0.6,0.7,0.7,1.1c0.1,0.3,0.1,0.6,0.1,0.9c0,0.4-0.1,0.7-0.2,1.1c-0.1,0.4-0.3,0.8-0.5,1.2l-1.4,3l0,0l2.9-0.9l-0.2-1
		l0.9-0.3l0.6,1.8L444.7,16.2z"/>
	<circle class="st9" cx="475.6" cy="104.6" r="83.7"/>
	<polygon class="st10" points="449.1,78 426.2,91.3 426.2,117.9 449.1,131.2 472.2,117.9 472.2,91.3 	"/>
	<g class="st11">
		<polygon class="st6" points="472.2,117.9 449.1,131.2 426.2,117.9 449.1,104.6 		"/>
		<polygon class="st6" points="472.2,91.3 472.2,117.9 449.1,104.6 449.1,78 		"/>
		<polygon class="st6" points="449.1,78 449.1,104.6 426.2,117.9 426.2,91.3 		"/>
	</g>
	
		<linearGradient id="SVGID_1_" gradientUnits="userSpaceOnUse" x1="432.806" y1="66.6527" x2="465.666" y2="66.6527" gradientTransform="matrix(1 0 0 -1 0 171.2553)">
		<stop  offset="0" style="stop-color:#981869"/>
		<stop  offset="0.19" style="stop-color:#771C65"/>
		<stop  offset="0.4" style="stop-color:#591F62"/>
		<stop  offset="0.61" style="stop-color:#432260"/>
		<stop  offset="0.81" style="stop-color:#36235E"/>
		<stop  offset="1" style="stop-color:#32245E"/>
	</linearGradient>
	<polygon class="st12" points="449.3,85.6 432.8,95.1 432.8,114.1 449.3,123.6 465.7,114.1 465.7,95.1 	"/>
	<circle class="st3" cx="449.3" cy="104.6" r="9.4"/>
	<polygon class="st6" points="426.2,91.3 449.3,78 472.2,91.3 449.3,104.6 	"/>
	<polygon class="st6" points="426.2,117.9 426.2,91.3 449.3,104.6 449.3,131.2 	"/>
	<polygon class="st6" points="449.3,131.2 449.3,104.6 472.2,91.3 472.2,117.9 	"/>
	<polygon class="st10" points="218.2,78 195.3,91.3 195.3,117.9 218.2,131.2 241.3,117.9 241.3,91.3 	"/>
	<g class="st11">
		<polygon class="st6" points="241.3,117.9 218.2,131.2 195.3,117.9 218.2,104.6 		"/>
		<polygon class="st6" points="241.3,91.3 241.3,117.9 218.2,104.6 218.2,78 		"/>
		<polygon class="st6" points="218.2,78 218.2,104.6 195.3,117.9 195.3,91.3 		"/>
	</g>
	
		<linearGradient id="SVGID_2_" gradientUnits="userSpaceOnUse" x1="201.906" y1="66.6527" x2="234.766" y2="66.6527" gradientTransform="matrix(1 0 0 -1 0 171.2553)">
		<stop  offset="0" style="stop-color:#981869"/>
		<stop  offset="0.19" style="stop-color:#771C65"/>
		<stop  offset="0.4" style="stop-color:#591F62"/>
		<stop  offset="0.61" style="stop-color:#432260"/>
		<stop  offset="0.81" style="stop-color:#36235E"/>
		<stop  offset="1" style="stop-color:#32245E"/>
	</linearGradient>
	<polygon class="st13" points="218.4,85.6 201.9,95.1 201.9,114.1 218.4,123.6 234.8,114.1 234.8,95.1 	"/>
	<circle class="st3" cx="218.4" cy="104.6" r="9.4"/>
	<polygon class="st6" points="195.3,91.3 218.4,78 241.3,91.3 218.4,104.6 	"/>
	<polygon class="st6" points="195.3,117.9 195.3,91.3 218.4,104.6 218.4,131.2 	"/>
	<polygon class="st6" points="218.4,131.2 218.4,104.6 241.3,91.3 241.3,117.9 	"/>
	
		<linearGradient id="SVGID_3_" gradientUnits="userSpaceOnUse" x1="498.216" y1="60.1777" x2="532.966" y2="60.1777" gradientTransform="matrix(1 0 0 -1 -8.3 170.1253)">
		<stop  offset="0" style="stop-color:#981869"/>
		<stop  offset="0.19" style="stop-color:#771C65"/>
		<stop  offset="0.4" style="stop-color:#591F62"/>
		<stop  offset="0.61" style="stop-color:#432260"/>
		<stop  offset="0.81" style="stop-color:#36235E"/>
		<stop  offset="1" style="stop-color:#32245E"/>
	</linearGradient>
	<path class="st14" d="M524.7,114.2L524.7,114.2V96.8h-34.7v17.4l0,0v0.3l0,0c0.3,4.8,8.1,8.6,17.3,8.6c9.4,0,17-3.8,17.3-8.6l0,0
		v-0.3L524.7,114.2z"/>
	
		<linearGradient id="SVGID_4_" gradientUnits="userSpaceOnUse" x1="489.916" y1="74.3177" x2="524.816" y2="74.3177" gradientTransform="matrix(1 0 0 -1 0 171.2553)">
		<stop  offset="0" style="stop-color:#981869"/>
		<stop  offset="0.19" style="stop-color:#771C65"/>
		<stop  offset="0.4" style="stop-color:#591F62"/>
		<stop  offset="0.61" style="stop-color:#432260"/>
		<stop  offset="0.81" style="stop-color:#36235E"/>
		<stop  offset="1" style="stop-color:#32245E"/>
	</linearGradient>
	<ellipse class="st15" cx="507.4" cy="96.9" rx="17.4" ry="8.9"/>
	
		<linearGradient id="SVGID_5_" gradientUnits="userSpaceOnUse" x1="723.126" y1="60.1777" x2="757.866" y2="60.1777" gradientTransform="matrix(1 0 0 -1 -8.3 170.1253)">
		<stop  offset="0" style="stop-color:#981869"/>
		<stop  offset="0.19" style="stop-color:#771C65"/>
		<stop  offset="0.4" style="stop-color:#591F62"/>
		<stop  offset="0.61" style="stop-color:#432260"/>
		<stop  offset="0.81" style="stop-color:#36235E"/>
		<stop  offset="1" style="stop-color:#32245E"/>
	</linearGradient>
	<path class="st16" d="M749.6,114.2L749.6,114.2V96.8h-34.7v17.4l0,0v0.3l0,0c0.3,4.8,8.1,8.6,17.3,8.6c9.4,0,17-3.8,17.3-8.6l0,0
		v-0.3L749.6,114.2z"/>
	
		<linearGradient id="SVGID_6_" gradientUnits="userSpaceOnUse" x1="714.826" y1="74.3177" x2="749.726" y2="74.3177" gradientTransform="matrix(1 0 0 -1 0 171.2553)">
		<stop  offset="0" style="stop-color:#981869"/>
		<stop  offset="0.19" style="stop-color:#771C65"/>
		<stop  offset="0.4" style="stop-color:#591F62"/>
		<stop  offset="0.61" style="stop-color:#432260"/>
		<stop  offset="0.81" style="stop-color:#36235E"/>
		<stop  offset="1" style="stop-color:#32245E"/>
	</linearGradient>
	<ellipse class="st17" cx="732.3" cy="96.9" rx="17.5" ry="8.9"/>
	<path class="st4" d="M606.2,14.3v-0.7l1-0.2V6.6l-1-0.2V5.7h3.1v0.8l-1,0.2v6.7l1,0.2v0.7L606.2,14.3z"/>
	<path class="st4" d="M610.2,14.3v-0.7l1-0.2V6.6l-1-0.2V5.7h3.9c0.5,0,1.1,0.1,1.6,0.3c0.4,0.2,0.8,0.5,1,0.9
		c0.2,0.4,0.3,0.9,0.3,1.3c0,0.5-0.1,0.9-0.3,1.3c-0.2,0.4-0.6,0.7-1,0.9c-0.5,0.2-1,0.3-1.6,0.3h-1.8v2.5l1,0.2v0.7L610.2,14.3z
		 M612.3,9.9h1.8c0.5,0,1-0.1,1.3-0.5c0.3-0.3,0.4-0.7,0.4-1.2c0-0.4-0.1-0.9-0.4-1.2c-0.3-0.3-0.8-0.5-1.3-0.5h-1.8V9.9z"/>
	<path class="st4" d="M622.8,14.4c-0.5,0-1.1-0.1-1.5-0.5c-0.4-0.4-0.5-0.9-0.5-1.4c0-0.4,0.1-0.7,0.3-1c0.3-0.3,0.6-0.6,1-0.7
		c0.5-0.2,1-0.3,1.5-0.3h1.1V9.9c0-0.3-0.1-0.7-0.4-0.9c-0.3-0.2-0.6-0.3-1-0.3c-0.2,0-0.5,0-0.7,0.1c-0.2,0.1-0.4,0.2-0.5,0.3
		l-0.1,0.9h-0.9V8.5c0.3-0.2,0.6-0.4,1-0.5c0.4-0.1,0.8-0.2,1.3-0.2c0.6,0,1.3,0.2,1.8,0.5c0.5,0.4,0.7,1,0.7,1.6v3.3
		c0,0.1,0,0.2,0,0.2l0.6,0.1v0.7h-1.7c0-0.2-0.1-0.3-0.1-0.5s0-0.3,0-0.4c-0.2,0.3-0.5,0.5-0.8,0.7
		C623.6,14.3,623.2,14.4,622.8,14.4z M623,13.4c0.4,0,0.7-0.1,1-0.3c0.3-0.2,0.5-0.4,0.7-0.7v-1.1h-1.2c-0.4,0-0.9,0.1-1.2,0.4
		c-0.3,0.2-0.4,0.5-0.4,0.9c0,0.2,0.1,0.5,0.3,0.6C622.4,13.4,622.7,13.5,623,13.4L623,13.4z"/>
	<path class="st4" d="M629.9,14.4c-0.5,0-0.9-0.1-1.3-0.4c-0.4-0.3-0.7-0.6-0.8-1.1c-0.2-0.5-0.3-1.1-0.3-1.6v-0.1
		c0-0.6,0.1-1.2,0.3-1.8c0.2-0.5,0.5-0.9,0.8-1.2c0.7-0.5,1.6-0.6,2.3-0.2c0.3,0.1,0.5,0.3,0.7,0.6V6l-1-0.2V5.1h2.1v8.2l1,0.2v0.7
		h-2l-0.1-0.8c-0.2,0.3-0.5,0.5-0.8,0.7C630.6,14.3,630.2,14.4,629.9,14.4z M630.2,13.4c0.3,0,0.6-0.1,0.9-0.2
		c0.2-0.2,0.4-0.4,0.6-0.7V9.6c-0.1-0.2-0.3-0.4-0.5-0.6c-0.3-0.2-0.6-0.2-0.9-0.2c-0.3,0-0.6,0.1-0.9,0.3c-0.3,0.2-0.4,0.5-0.5,0.9
		c-0.1,0.4-0.2,0.8-0.2,1.3v0.1c0,0.5,0.1,1.1,0.4,1.5C629.3,13.3,629.7,13.5,630.2,13.4z"/>
	<path class="st4" d="M634.5,14.3v-0.7l1-0.2V8.8l-1-0.2V7.9h2l0.1,0.8v0.1c0.2-0.3,0.4-0.6,0.7-0.8c0.3-0.2,0.6-0.3,0.9-0.3
		c0.1,0,0.2,0,0.4,0l0.3,0.1L638.7,9h-0.8c-0.3,0-0.5,0-0.8,0.2c-0.2,0.2-0.4,0.4-0.5,0.6v3.5l1,0.2v0.7L634.5,14.3z"/>
	<path class="st4" d="M642.3,14.4c-0.5,0-1.1-0.1-1.5-0.4c-0.4-0.3-0.8-0.7-1-1.1c-0.2-0.5-0.4-1.1-0.4-1.7V11
		c0-0.6,0.1-1.1,0.4-1.6c0.2-0.5,0.6-0.8,1-1.1c0.4-0.3,0.9-0.4,1.4-0.4c0.5,0,1,0.1,1.4,0.4c0.4,0.2,0.7,0.6,0.9,1
		c0.2,0.5,0.3,1,0.3,1.5v0.7h-4.1l0,0c0,0.4,0.1,0.7,0.2,1.1c0.1,0.3,0.3,0.6,0.6,0.7c0.3,0.2,0.6,0.3,0.9,0.3c0.3,0,0.7-0.1,1-0.2
		c0.3-0.1,0.5-0.3,0.8-0.5l0.5,0.8c-0.3,0.2-0.6,0.4-0.9,0.6C643.2,14.3,642.8,14.4,642.3,14.4z M640.7,10.5h2.9v-0.2
		c0-0.3-0.1-0.6-0.2-0.8c-0.1-0.2-0.3-0.4-0.5-0.6c-0.2-0.1-0.5-0.2-0.8-0.2c-0.3,0-0.5,0.1-0.7,0.2c-0.2,0.2-0.4,0.4-0.5,0.6
		C640.8,9.8,640.7,10.1,640.7,10.5L640.7,10.5z"/>
	<path class="st4" d="M648.2,14.4c-0.4,0-0.8,0-1.2-0.1c-0.4-0.1-0.8-0.2-1.2-0.4v-1.5h0.9l0.2,0.9c0.4,0.2,0.9,0.3,1.3,0.3
		c0.4,0,0.7-0.1,1-0.3c0.2-0.2,0.3-0.4,0.3-0.7c0-0.2-0.1-0.5-0.3-0.6c-0.3-0.2-0.7-0.4-1.1-0.4c-0.6-0.1-1.2-0.4-1.7-0.7
		c-0.4-0.3-0.6-0.7-0.5-1.2c0-0.3,0.1-0.7,0.3-0.9c0.2-0.3,0.5-0.5,0.8-0.6c0.4-0.2,0.8-0.2,1.2-0.2c0.4,0,0.9,0.1,1.3,0.2
		c0.3,0.1,0.6,0.2,0.9,0.4l0.1,1.5h-0.9L649.4,9c-0.1-0.1-0.3-0.2-0.5-0.2c-0.2-0.1-0.4-0.1-0.6-0.1c-0.3,0-0.6,0.1-0.9,0.3
		c-0.2,0.1-0.3,0.4-0.3,0.6c0,0.1,0,0.3,0.1,0.4c0.1,0.1,0.2,0.2,0.4,0.3c0.3,0.1,0.5,0.2,0.8,0.3c0.7,0.1,1.3,0.4,1.8,0.8
		c0.3,0.3,0.5,0.7,0.5,1.2c0,0.5-0.2,1-0.6,1.4C649.6,14.2,648.9,14.4,648.2,14.4z"/>
	<path class="st4" d="M654.2,14.4c-0.4,0-0.8,0-1.2-0.1c-0.4-0.1-0.8-0.2-1.2-0.4v-1.5h0.9l0.2,0.9c0.4,0.2,0.9,0.3,1.3,0.3
		c0.4,0,0.7-0.1,1-0.3c0.2-0.2,0.3-0.4,0.3-0.7c0-0.2-0.1-0.5-0.3-0.6c-0.3-0.2-0.7-0.4-1.1-0.4c-0.6-0.1-1.2-0.4-1.7-0.7
		c-0.4-0.3-0.6-0.7-0.5-1.2c0-0.3,0.1-0.7,0.3-0.9c0.2-0.3,0.5-0.5,0.8-0.6c0.4-0.2,0.8-0.2,1.2-0.2c0.4,0,0.8,0,1.2,0.2
		c0.3,0.1,0.6,0.2,0.9,0.4l0.1,1.5h-0.9L655.4,9c-0.1-0.1-0.3-0.2-0.5-0.2c-0.2-0.1-0.4-0.1-0.6-0.1c-0.3,0-0.6,0.1-0.9,0.3
		c-0.2,0.1-0.3,0.4-0.3,0.6c0,0.1,0,0.3,0.1,0.4c0.1,0.1,0.2,0.2,0.4,0.3c0.3,0.1,0.5,0.2,0.8,0.3c0.7,0.1,1.3,0.4,1.8,0.8
		c0.3,0.3,0.5,0.7,0.5,1.2c0,0.5-0.2,1-0.6,1.4C655.5,14.3,654.9,14.4,654.2,14.4z"/>
	<line class="st5" x1="593.6" y1="10.1" x2="457.7" y2="10.1"/>
	<line class="st5" x1="78.7" y1="77.8" x2="215.9" y2="77.8"/>
	<line class="st5" x1="78.7" y1="92" x2="215.9" y2="92"/>
	<line class="st5" x1="78.7" y1="106.1" x2="209" y2="106.1"/>
	<path class="st4" d="M184,162.8c-0.8,0-1.5-0.2-2.1-0.6c-0.6-0.4-1-0.9-1.3-1.6c-0.3-0.7-0.4-1.5-0.4-2.2l0-0.1
		c0-0.8,0.2-1.5,0.5-2.2c0.3-0.6,0.7-1.1,1.3-1.5c0.6-0.4,1.3-0.6,2-0.6c0.5,0,1,0.1,1.5,0.3c0.4,0.1,0.8,0.4,1.1,0.7l0,1.8l-0.9,0
		l-0.1-1.4c-0.1-0.1-0.3-0.2-0.4-0.3c-0.4-0.1-0.8-0.2-1.2-0.2c-0.5,0-1,0.1-1.4,0.4c-0.4,0.3-0.7,0.7-0.9,1.2
		c-0.2,0.6-0.3,1.1-0.3,1.7l0,0.1c0,0.6,0.1,1.2,0.3,1.8c0.2,0.5,0.5,0.9,0.9,1.2c0.4,0.3,1,0.4,1.5,0.4c0.3,0,0.5,0,0.8-0.1
		c0.2,0,0.4-0.1,0.7-0.2l0.1-1.2l0.9,0l0,1.8c-0.4,0.2-0.7,0.4-1.2,0.4C185,162.8,184.5,162.8,184,162.8z"/>
	<path class="st4" d="M190.6,162.9c-1.1,0-2.1-0.6-2.5-1.6c-0.2-0.5-0.3-1.1-0.3-1.7l0-0.1c0-0.6,0.1-1.1,0.4-1.7
		c0.6-1.4,2.3-2,3.6-1.3c0.6,0.3,1.1,0.8,1.4,1.4c0.2,0.5,0.4,1.1,0.3,1.7l0,0.1c0,0.6-0.1,1.1-0.4,1.7c-0.2,0.5-0.6,0.9-1,1.1
		C191.6,162.8,191.1,162.9,190.6,162.9z M190.6,162c0.3,0,0.7-0.1,0.9-0.3c0.3-0.2,0.5-0.5,0.6-0.8c0.1-0.4,0.2-0.8,0.2-1.2l0-0.1
		c0-0.4,0-0.8-0.2-1.2c-0.1-0.3-0.3-0.6-0.6-0.8c-0.6-0.4-1.3-0.4-1.9,0c-0.3,0.2-0.5,0.5-0.6,0.8c-0.1,0.4-0.2,0.8-0.2,1.2l0,0.1
		c0,0.4,0,0.8,0.2,1.2c0.1,0.3,0.3,0.6,0.6,0.8C189.9,161.9,190.2,162,190.6,162L190.6,162z"/>
	<path class="st4" d="M194.3,162.8l0-0.7l1-0.2l0-4.5l-1-0.2l0-0.7l2,0l0.1,0.9c0.2-0.3,0.5-0.6,0.8-0.8c0.9-0.5,1.9-0.3,2.7,0.3
		c0.4,0.5,0.6,1.2,0.5,1.9l0,3.1l0.9,0.2l0,0.7l-3.1,0l0-0.7l1-0.2l0-3.1c0-0.4-0.1-0.8-0.3-1.2c-0.3-0.3-0.6-0.4-1-0.4
		c-0.3,0-0.6,0.1-0.9,0.2c-0.3,0.2-0.5,0.4-0.6,0.6l0,3.7l1,0.2l0,0.7L194.3,162.8z"/>
	<path class="st4" d="M204.2,163c-0.4,0-0.8-0.1-1.1-0.4c-0.3-0.4-0.5-0.8-0.4-1.3l0-3.8l-1,0l0-0.8l1,0l0-1.5l1.1,0l0,1.5l1.4,0
		l0,0.8l-1.4,0l0,3.8c0,0.2,0,0.5,0.2,0.7c0.1,0.1,0.3,0.2,0.5,0.2c0.2,0,0.3,0,0.5,0l0.4-0.1l0.2,0.8c-0.2,0.1-0.4,0.1-0.6,0.1
		C204.6,163,204.4,163,204.2,163z"/>
	<path class="st4" d="M208.3,163c-0.5,0-1.1-0.1-1.5-0.5c-0.4-0.4-0.5-0.9-0.5-1.4c0-0.4,0.1-0.7,0.3-1c0.3-0.3,0.6-0.6,1-0.7
		c0.5-0.2,1-0.2,1.5-0.2l1.1,0l0-0.6c0-0.3-0.1-0.7-0.3-0.9c-0.3-0.2-0.6-0.4-1-0.3c-0.2,0-0.5,0-0.7,0.1c-0.2,0.1-0.4,0.2-0.5,0.3
		l-0.1,0.9l-0.9,0l0-1.5c0.3-0.2,0.6-0.4,1-0.5c0.4-0.1,0.8-0.2,1.3-0.2c0.7,0,1.3,0.2,1.8,0.6c0.4,0.4,0.7,1,0.6,1.6l0,3
		c0,0.1,0,0.2,0,0.2c0,0.1,0,0.2,0,0.2l0.6,0.1l0,0.7l-1.7,0c0-0.2-0.1-0.3-0.1-0.5c0-0.1,0-0.3,0-0.4c-0.2,0.3-0.5,0.5-0.8,0.7
		C209,162.9,208.7,163,208.3,163z M208.4,162c0.4,0,0.7-0.1,1.1-0.3c0.3-0.2,0.5-0.4,0.7-0.7l0-1.1l-1.2,0c-0.4,0-0.9,0.1-1.2,0.4
		c-0.2,0.2-0.4,0.5-0.4,0.8c0,0.2,0.1,0.5,0.3,0.6C207.9,162,208.2,162.1,208.4,162L208.4,162z"/>
	<path class="st4" d="M212.8,163l0-0.7l1-0.2l0-4.5l-1-0.2l0-0.7l2.1,0l-0.1,5.4l1,0.2l0,0.7L212.8,163z M213.8,155.1l0-1.2l1.2,0
		l0,1.2L213.8,155.1z"/>
	<path class="st4" d="M216.7,163l0-0.7l1-0.2l0-4.5l-1-0.2l0-0.7l2,0l0.1,0.9c0.2-0.3,0.5-0.6,0.8-0.8c0.9-0.5,1.9-0.3,2.7,0.3
		c0.4,0.5,0.6,1.2,0.5,1.9l0,3.1l1,0.2l0,0.7l-3.1,0l0-0.7l1-0.2l0-3.1c0-0.4-0.1-0.8-0.3-1.2c-0.3-0.3-0.6-0.4-1-0.4
		c-0.3,0-0.6,0.1-0.9,0.2c-0.3,0.2-0.5,0.4-0.6,0.6l0,3.7l1,0.2l0,0.7L216.7,163z"/>
	<path class="st4" d="M227.3,163.2c-0.5,0-1.1-0.1-1.5-0.4c-0.4-0.3-0.8-0.7-1-1.1c-0.2-0.5-0.4-1.1-0.3-1.7l0-0.3
		c0-0.6,0.1-1.1,0.4-1.6c0.2-0.5,0.6-0.8,1-1.1c0.4-0.3,0.9-0.4,1.4-0.4c0.5,0,1,0.1,1.4,0.4c0.4,0.2,0.7,0.6,0.9,1
		c0.2,0.5,0.3,1,0.3,1.5l0,0.7l-4.1,0l0,0c0,0.4,0.1,0.7,0.2,1.1c0.1,0.3,0.3,0.6,0.6,0.7c0.3,0.2,0.6,0.3,0.9,0.3
		c0.3,0,0.7,0,1-0.2c0.3-0.1,0.5-0.3,0.8-0.5l0.4,0.8c-0.3,0.2-0.6,0.4-0.9,0.5C228.3,163.2,227.8,163.3,227.3,163.2z M225.7,159.3
		l2.9,0l0-0.1c0-0.3,0-0.6-0.2-0.8c-0.1-0.2-0.3-0.4-0.5-0.6c-0.2-0.2-0.5-0.2-0.8-0.2c-0.3,0-0.5,0.1-0.7,0.2
		c-0.2,0.2-0.4,0.4-0.5,0.6C225.8,158.7,225.7,159,225.7,159.3L225.7,159.3z"/>
	<path class="st4" d="M230.6,163.1l0-0.7l1-0.2l0-4.5l-0.9-0.2l0-0.7l2,0l0.1,0.8l0,0.1c0.2-0.3,0.4-0.6,0.7-0.8
		c0.3-0.2,0.6-0.3,0.9-0.3l0.4,0l0.3,0.1l-0.2,1.1l-0.8-0.1c-0.3,0-0.5,0-0.8,0.2c-0.2,0.2-0.4,0.4-0.5,0.6l0,3.6l0.9,0.2l0,0.7
		L230.6,163.1z"/>
	<path class="st4" d="M235.6,163.2l0-0.7l1-0.2l0-4.5l-1-0.2l0-0.7l2.1,0l-0.1,5.4l1,0.2l0,0.7L235.6,163.2z M236.6,155.3l0-1.2
		l1.2,0l0,1.2L236.6,155.3z"/>
	<path class="st4" d="M239.6,163.2l0-0.8l3.5-4.6l-2.4,0l-0.2,1.1l-0.9,0l0-2l4.8,0l0,0.8l-3.5,4.6l2.7,0l0.2-1.1l0.9,0l0,1.9
		L239.6,163.2z"/>
	<path class="st4" d="M248.3,163.4c-0.5,0-1.1-0.1-1.5-0.4c-0.4-0.3-0.8-0.7-1-1.1c-0.2-0.5-0.4-1.1-0.3-1.7l0-0.3
		c0-0.6,0.1-1.1,0.4-1.6c0.2-0.5,0.6-0.8,1-1.1c0.4-0.3,0.9-0.4,1.4-0.4c0.5,0,1,0.1,1.4,0.4c0.4,0.2,0.7,0.6,0.9,1
		c0.2,0.5,0.3,1,0.3,1.5l0,0.7l-4.1,0l0,0c0,0.4,0.1,0.7,0.2,1.1c0.1,0.3,0.3,0.6,0.6,0.7c0.3,0.2,0.6,0.3,0.9,0.3
		c0.3,0,0.7,0,1-0.2c0.3-0.1,0.5-0.3,0.8-0.5l0.4,0.8c-0.3,0.2-0.6,0.4-0.9,0.5C249.2,163.3,248.8,163.4,248.3,163.4z M246.7,159.5
		l2.9,0l0-0.1c0-0.3,0-0.6-0.2-0.8c-0.1-0.2-0.3-0.4-0.5-0.6c-0.2-0.2-0.5-0.2-0.8-0.2c-0.3,0-0.5,0.1-0.7,0.2
		c-0.2,0.2-0.4,0.4-0.5,0.6C246.8,158.8,246.7,159.1,246.7,159.5L246.7,159.5z"/>
	<path class="st4" d="M254.4,163.5c-0.5,0-0.9-0.1-1.3-0.4c-0.4-0.3-0.7-0.6-0.8-1.1c-0.2-0.5-0.3-1.1-0.3-1.6l0-0.1
		c0-0.6,0.1-1.2,0.3-1.8c0.2-0.5,0.5-0.9,0.9-1.2c0.4-0.3,0.9-0.4,1.3-0.4c0.3,0,0.7,0.1,1,0.2c0.3,0.1,0.5,0.4,0.7,0.6l0-2.6
		l-1-0.2l0-0.7l2.1,0l-0.1,8.2l1,0.2l0,0.7l-2,0l-0.1-0.8c-0.2,0.3-0.5,0.5-0.8,0.7C255.1,163.4,254.7,163.5,254.4,163.5z
		 M254.7,162.5c0.3,0,0.6-0.1,0.9-0.2c0.2-0.2,0.4-0.4,0.6-0.7l0-2.9c-0.1-0.3-0.3-0.5-0.6-0.6c-0.3-0.2-0.6-0.2-0.9-0.2
		c-0.3,0-0.7,0.1-0.9,0.3c-0.3,0.2-0.4,0.5-0.5,0.9c-0.1,0.4-0.2,0.8-0.2,1.3l0,0.1c0,0.5,0.1,1.1,0.4,1.5
		C253.7,162.3,254.2,162.6,254.7,162.5z"/>
	<path class="st4" d="M202.8,177.4c-0.8,0-1.5-0.2-2.1-0.6c-0.6-0.4-1-0.9-1.3-1.5c-0.3-0.7-0.4-1.5-0.4-2.2l0-0.1
		c0-0.8,0.2-1.5,0.5-2.2c0.3-0.6,0.7-1.1,1.3-1.5c0.6-0.4,1.3-0.6,2-0.6c0.5,0,1,0.1,1.5,0.3c0.4,0.1,0.8,0.4,1.1,0.7l0,1.8l-0.9,0
		l-0.1-1.4c-0.1-0.1-0.3-0.2-0.4-0.3c-0.4-0.1-0.8-0.2-1.2-0.2c-0.5,0-1,0.1-1.4,0.4c-0.4,0.3-0.7,0.7-0.9,1.2
		c-0.2,0.6-0.3,1.1-0.3,1.7l0,0.1c0,0.6,0.1,1.2,0.3,1.8c0.2,0.5,0.5,0.9,0.9,1.2c0.4,0.3,1,0.4,1.5,0.4c0.3,0,0.5,0,0.8-0.1
		c0.2,0,0.5-0.1,0.7-0.2l0.1-1.2l0.9,0l0,1.8c-0.4,0.2-0.7,0.4-1.2,0.4C203.7,177.4,203.2,177.4,202.8,177.4z"/>
	<path class="st4" d="M210.3,177.5c-0.8,0-1.5-0.2-2.1-0.6c-0.6-0.4-1-0.9-1.3-1.6c-0.3-0.7-0.4-1.5-0.4-2.2l0-0.1
		c0-0.8,0.2-1.5,0.5-2.2c0.3-0.6,0.7-1.1,1.3-1.5c0.6-0.4,1.3-0.6,2-0.6c0.5,0,1,0.1,1.5,0.3c0.4,0.1,0.8,0.4,1.1,0.7l0,1.8l-0.9,0
		l-0.1-1.4c-0.1-0.1-0.3-0.2-0.4-0.3c-0.2-0.1-0.3-0.1-0.5-0.2c-0.2,0-0.4,0-0.6,0c-0.5,0-1,0.1-1.4,0.4c-0.4,0.3-0.7,0.7-0.9,1.2
		c-0.2,0.6-0.3,1.1-0.3,1.7l0,0.1c0,0.6,0.1,1.2,0.3,1.8c0.2,0.5,0.5,0.9,0.9,1.2c0.4,0.3,1,0.4,1.5,0.4c0.3,0,0.5,0,0.8-0.1
		c0.2,0,0.4-0.1,0.7-0.2l0.1-1.2l0.9,0l0,1.8c-0.4,0.2-0.7,0.4-1.1,0.4C211.3,177.4,210.8,177.5,210.3,177.5z"/>
	<path class="st4" d="M217,177.4l0-0.7l0.6-0.1l3.1-7.7l1,0l2.9,7.7l0.6,0.1l0,0.7l-2.5,0l0-0.7l0.7-0.1l-0.5-1.6l-3.4,0l-0.6,1.6
		l0.6,0.1l0,0.7L217,177.4z M219.7,174.1l2.7,0l-1.2-3.5l-0.1-0.2l0,0l-0.1,0.2L219.7,174.1z"/>
	<path class="st4" d="M225.8,179.9l0-0.7l0.9-0.2l0.1-7l-1-0.2l0-0.7l2,0l0.1,0.8c0.2-0.3,0.5-0.5,0.8-0.7c0.3-0.2,0.7-0.2,1.1-0.2
		c0.5,0,1,0.1,1.3,0.4c0.4,0.3,0.7,0.7,0.8,1.2c0.2,0.6,0.3,1.2,0.3,1.8l0,0.1c0,0.5-0.1,1.1-0.3,1.6c-0.2,0.4-0.5,0.8-0.8,1.1
		c-0.4,0.3-0.9,0.4-1.3,0.4c-0.3,0-0.7-0.1-1-0.2c-0.3-0.1-0.5-0.3-0.7-0.6l0,2.2l1,0.2l0,0.7L225.8,179.9z M229.3,176.7
		c0.5,0,1-0.2,1.2-0.6c0.3-0.5,0.5-1,0.4-1.5l0-0.1c0-0.4,0-0.9-0.2-1.3c-0.1-0.3-0.3-0.6-0.6-0.9c-0.3-0.2-0.6-0.3-0.9-0.3
		c-0.3,0-0.6,0.1-0.8,0.2c-0.2,0.2-0.4,0.4-0.6,0.6l0,3.1c0.1,0.2,0.3,0.5,0.6,0.6C228.7,176.7,229,176.8,229.3,176.7z"/>
	<path class="st4" d="M232.8,180l0-0.7l0.9-0.2l0.1-7l-0.9-0.2l0-0.7l1.9,0l0.1,0.8c0.2-0.3,0.5-0.5,0.8-0.7
		c0.3-0.2,0.7-0.2,1.1-0.2c0.5,0,1,0.1,1.3,0.4c0.4,0.3,0.7,0.7,0.8,1.2c0.2,0.6,0.3,1.2,0.3,1.8l0,0.1c0,0.5-0.1,1.1-0.3,1.6
		c-0.2,0.4-0.5,0.8-0.9,1.1c-0.4,0.3-0.9,0.4-1.3,0.4c-0.3,0-0.7-0.1-1-0.2c-0.3-0.1-0.6-0.3-0.7-0.6l0,2.2l1,0.2l0,0.7L232.8,180z
		 M236.3,176.8c0.5,0,1-0.2,1.2-0.6c0.3-0.5,0.5-1,0.4-1.5l0-0.1c0-0.4,0-0.9-0.2-1.3c-0.1-0.3-0.3-0.6-0.6-0.9
		c-0.3-0.2-0.6-0.3-0.9-0.3c-0.3,0-0.6,0.1-0.9,0.2c-0.2,0.2-0.4,0.4-0.6,0.6l0,3.1C235.1,176.5,235.7,176.8,236.3,176.8
		L236.3,176.8z"/>
</g>
</svg>
