<?xml version="1.0" encoding="utf-8"?>
<!-- Generator: Adobe Illustrator 24.0.0, SVG Export Plug-In . SVG Version: 6.00 Build 0)  -->
<svg version="1.1" id="Ebene_1" xmlns="http://www.w3.org/2000/svg" xmlns:xlink="http://www.w3.org/1999/xlink" x="0px" y="0px"
	 viewBox="0 0 629.5 202.9" style="enable-background:new 0 0 629.5 202.9;" xml:space="preserve">
<style type="text/css">
	.st0{fill:url(#SVGID_1_);}
	.st1{fill:#518ECB;}
	.st2{opacity:0.4;}
	.st3{fill:none;stroke:#FFCC03;stroke-width:2;stroke-linecap:round;stroke-linejoin:round;}
	.st4{fill:url(#SVGID_2_);}
	.st5{fill:#32245E;}
	.st6{fill:none;stroke:#981869;stroke-width:2;stroke-linecap:round;stroke-linejoin:round;}
	.st7{fill:#981869;}
</style>
<linearGradient id="SVGID_1_" gradientUnits="userSpaceOnUse" x1="193.0568" y1="122.6845" x2="228.7668" y2="122.6845" gradientTransform="matrix(1 9.295369e-03 9.295369e-03 -1 -0.8862 190.0749)">
	<stop  offset="0" style="stop-color:#981869"/>
	<stop  offset="0.19" style="stop-color:#771C65"/>
	<stop  offset="0.4" style="stop-color:#591F62"/>
	<stop  offset="0.61" style="stop-color:#432260"/>
	<stop  offset="0.81" style="stop-color:#36235E"/>
	<stop  offset="1" style="stop-color:#32245E"/>
</linearGradient>
<polygon class="st0" points="211.4,48.7 193.4,58.9 193.2,79.5 211.1,90 228.9,79.8 229.1,59.2 "/>
<ellipse transform="matrix(9.295310e-03 -1 1 9.295310e-03 139.9539 279.9753)" class="st1" cx="211.3" cy="69.4" rx="10.3" ry="10.3"/>
<circle class="st1" cx="92.4" cy="68.7" r="10.3"/>
<g class="st2">
	<polygon class="st3" points="563.9,104.5 507.6,136.2 452.5,103.5 508.2,71.8 	"/>
	<polygon class="st3" points="564.4,40.1 563.9,104.5 508.2,71.8 508.8,7.4 	"/>
	<polygon class="st3" points="508.8,7.4 508.2,71.8 452.5,103.5 453.1,39.1 	"/>
</g>
<linearGradient id="SVGID_2_" gradientUnits="userSpaceOnUse" x1="490.3769" y1="123.0098" x2="526.0869" y2="123.0098" gradientTransform="matrix(1 9.295369e-03 9.295369e-03 -1 -0.8862 190.0749)">
	<stop  offset="0" style="stop-color:#981869"/>
	<stop  offset="0.19" style="stop-color:#771C65"/>
	<stop  offset="0.4" style="stop-color:#591F62"/>
	<stop  offset="0.61" style="stop-color:#432260"/>
	<stop  offset="0.81" style="stop-color:#36235E"/>
	<stop  offset="1" style="stop-color:#32245E"/>
</linearGradient>
<polygon class="st4" points="508.7,51.1 490.7,61.3 490.5,81.9 508.4,92.4 526.2,82.3 526.4,61.6 "/>
<circle class="st1" cx="508.6" cy="71.8" r="10.3"/>
<polygon class="st3" points="453.1,39.1 509.3,7.4 564.4,40.1 508.7,71.8 "/>
<polygon class="st3" points="452.5,103.5 453.1,39.1 508.7,71.8 508.1,136.2 "/>
<polygon class="st3" points="508.1,136.2 508.7,71.8 564.4,40.1 563.9,104.5 "/>
<g class="st2">
	<polygon class="st3" points="369.4,84.7 344.2,98.9 319.4,84.2 344.4,70 	"/>
	<polygon class="st3" points="369.7,55.8 369.4,84.7 344.4,70 344.7,41.1 	"/>
	<polygon class="st3" points="344.7,41.1 344.4,70 319.4,84.2 319.7,55.3 	"/>
</g>
<polygon class="st3" points="319.7,55.3 345,41.1 369.7,55.8 344.7,70 "/>
<polygon class="st3" points="319.4,84.2 319.7,55.3 344.7,70 344.4,98.9 "/>
<polygon class="st3" points="344.4,98.9 344.7,70 369.7,55.8 369.4,84.7 "/>
<path class="st5" d="M184.8,128.4l0-0.7l1-0.2l0.1-6.7l-1-0.2l0-0.7l6.3,0.1l0,2l-0.9,0l-0.1-1.2l-3.2,0l0,2.8l3.1,0l0,0.9l-3.1,0
	l0,3.1l3.3,0l0.1-1.2l0.9,0l0,2L184.8,128.4z"/>
<path class="st5" d="M192.4,128.5l0-0.7l1-0.2l0-4.5l-0.9-0.2l0-0.7l2,0l0.1,0.9c0.2-0.3,0.5-0.6,0.8-0.8c0.3-0.2,0.7-0.3,1.1-0.3
	c0.6,0,1.2,0.2,1.6,0.6c0.4,0.5,0.6,1.2,0.6,1.9l0,3.1l0.9,0.2l0,0.7l-3.1,0l0-0.7l1-0.2l0-3.1c0-0.4-0.1-0.8-0.3-1.2
	c-0.3-0.3-0.6-0.4-1-0.4c-0.3,0-0.6,0.1-0.9,0.2c-0.3,0.2-0.5,0.4-0.6,0.7l0,3.7l1,0.2l0,0.7L192.4,128.5z"/>
<path class="st5" d="M203.1,128.7c-1.1,0-2-0.6-2.5-1.5c-0.2-0.5-0.4-1.1-0.3-1.7l0-0.2c0-0.6,0.1-1.1,0.4-1.6
	c0.5-1,1.4-1.6,2.5-1.5c0.5,0,0.9,0.1,1.3,0.3c0.4,0.2,0.7,0.4,1,0.7l0,1.5l-0.9,0l-0.2-1.1c-0.1-0.1-0.3-0.3-0.5-0.3
	c-0.2-0.1-0.5-0.1-0.7-0.1c-0.3,0-0.6,0.1-0.9,0.3c-0.3,0.2-0.5,0.5-0.6,0.8c-0.2,0.4-0.2,0.7-0.2,1.1l0,0.2c0,0.4,0.1,0.8,0.2,1.2
	c0.1,0.3,0.3,0.6,0.6,0.8c0.3,0.2,0.6,0.3,0.9,0.3c0.4,0,0.7-0.1,1-0.3c0.3-0.2,0.4-0.5,0.5-0.9l1,0l0,0c0,0.4-0.1,0.7-0.3,1
	c-0.2,0.3-0.5,0.6-0.8,0.8C204,128.6,203.5,128.7,203.1,128.7z"/>
<path class="st5" d="M206.4,128.6l0-0.7l1-0.2l0.1-7.3l-0.9-0.2l0-0.7l2.1,0l-0.1,8.2l1,0.2l0,0.7L206.4,128.6z"/>
<path class="st5" d="M212.3,128.8c-0.5,0-1.1-0.1-1.5-0.5c-0.4-0.4-0.5-0.9-0.5-1.4c0-0.4,0.1-0.7,0.3-1c0.3-0.3,0.6-0.6,1-0.7
	c0.5-0.2,1-0.3,1.5-0.2l1.1,0l0-0.6c0-0.3-0.1-0.7-0.3-0.9c-0.3-0.2-0.6-0.4-1-0.3c-0.2,0-0.5,0-0.7,0.1c-0.2,0.1-0.4,0.1-0.5,0.3
	l-0.1,0.9l-0.9,0l0-1.4c0.3-0.2,0.6-0.4,1-0.5c0.4-0.1,0.8-0.2,1.3-0.2c0.6,0,1.3,0.2,1.8,0.6c0.4,0.4,0.7,1,0.6,1.6l0,3.3
	c0,0.1,0,0.2,0,0.2l0.6,0.1l0,0.7l-1.7,0c0-0.2-0.1-0.3-0.1-0.5c0-0.1,0-0.3,0-0.4c-0.2,0.3-0.5,0.5-0.8,0.7
	C213.1,128.7,212.7,128.8,212.3,128.8z M212.5,127.8c0.4,0,0.7-0.1,1-0.3c0.3-0.1,0.5-0.4,0.7-0.7l0-1.1l-1.1,0
	c-0.4,0-0.9,0.1-1.2,0.4c-0.3,0.2-0.4,0.5-0.4,0.8c0,0.2,0.1,0.5,0.3,0.6C212,127.7,212.2,127.8,212.5,127.8L212.5,127.8z"/>
<path class="st5" d="M219.5,128.7l-2.2-5.5l-0.6-0.1l0-0.7l2.7,0l0,0.7l-0.8,0.1l1.4,3.6l0.2,0.5l0,0l0.2-0.5l1.3-3.6l-0.8-0.1
	l0-0.7l2.7,0l0,0.7l-0.7,0.1l-2.2,5.5L219.5,128.7z"/>
<path class="st5" d="M226.6,128.9c-0.5,0-1.1-0.1-1.5-0.4c-0.4-0.3-0.8-0.7-1-1.1c-0.2-0.5-0.4-1.1-0.3-1.7l0-0.3
	c0-0.6,0.1-1.1,0.4-1.6c0.2-0.4,0.6-0.8,1-1.1c0.4-0.3,0.9-0.4,1.4-0.4c0.5,0,1,0.1,1.4,0.4c0.4,0.2,0.7,0.6,0.9,1
	c0.2,0.5,0.3,1,0.3,1.5l0,0.7l-4.1,0l0,0c0,0.4,0.1,0.7,0.2,1.1c0.1,0.3,0.3,0.6,0.6,0.7c0.3,0.2,0.6,0.3,0.9,0.3
	c0.3,0,0.7-0.1,1-0.2c0.3-0.1,0.5-0.3,0.8-0.5l0.4,0.8c-0.3,0.2-0.6,0.4-0.9,0.6C227.6,128.9,227.1,128.9,226.6,128.9z M225,125
	l2.9,0l0-0.2c0-0.3,0-0.6-0.2-0.8c-0.1-0.2-0.3-0.4-0.5-0.6c-0.2-0.2-0.5-0.2-0.8-0.2c-0.3,0-0.5,0.1-0.7,0.2
	c-0.2,0.2-0.4,0.4-0.5,0.6C225.1,124.4,225,124.6,225,125L225,125z"/>
<path class="st5" d="M232.7,129c-0.5,0-0.9-0.1-1.3-0.4c-0.4-0.3-0.7-0.6-0.8-1.1c-0.2-0.5-0.3-1.1-0.3-1.6l0-0.1
	c0-0.6,0.1-1.2,0.3-1.8c0.2-0.5,0.5-0.9,0.9-1.2c0.4-0.3,0.9-0.4,1.3-0.4c0.3,0,0.7,0.1,1,0.2c0.3,0.1,0.5,0.3,0.7,0.6l0-2.6l-1-0.2
	l0-0.7l2.1,0l-0.1,8.2l1,0.2l0,0.7l-2,0l-0.1-0.8c-0.2,0.3-0.5,0.5-0.8,0.7C233.4,128.9,233,129,232.7,129z M233,128.1
	c0.3,0,0.6-0.1,0.9-0.2c0.2-0.2,0.4-0.4,0.6-0.7l0-3c-0.1-0.3-0.3-0.5-0.6-0.6c-0.3-0.2-0.6-0.2-0.9-0.2c-0.3,0-0.7,0.1-0.9,0.3
	c-0.3,0.2-0.4,0.5-0.5,0.9c-0.1,0.4-0.2,0.9-0.2,1.3l0,0.1c0,0.5,0.1,1.1,0.4,1.5C232,127.8,232.5,128.1,233,128.1z"/>
<path class="st5" d="M193,143c-0.4,0-0.8,0-1.2-0.1c-0.4-0.1-0.8-0.2-1.2-0.4l0-1.5l0.9,0l0.2,0.9c0.2,0.1,0.4,0.2,0.6,0.2
	c0.2,0.1,0.4,0.1,0.7,0.1c0.4,0,0.7-0.1,1-0.3c0.2-0.2,0.3-0.4,0.3-0.7c0-0.2-0.1-0.5-0.3-0.6c-0.3-0.2-0.7-0.4-1.1-0.5
	c-0.6-0.1-1.2-0.4-1.7-0.7c-0.4-0.3-0.6-0.7-0.5-1.2c0-0.3,0.1-0.7,0.3-0.9c0.2-0.3,0.5-0.5,0.8-0.6c0.4-0.2,0.8-0.2,1.2-0.2
	c0.4,0,0.8,0.1,1.2,0.2c0.3,0.1,0.6,0.3,0.9,0.4l0,1.4l-0.9,0l-0.2-0.8c-0.1-0.1-0.3-0.2-0.5-0.2c-0.2-0.1-0.4-0.1-0.6-0.1
	c-0.3,0-0.6,0.1-0.9,0.3c-0.2,0.1-0.3,0.4-0.3,0.6c0,0.1,0,0.3,0.1,0.4c0.1,0.1,0.2,0.2,0.4,0.3c0.3,0.1,0.5,0.2,0.8,0.3
	c0.7,0.1,1.3,0.4,1.8,0.8c0.3,0.3,0.5,0.7,0.5,1.2c0,0.5-0.2,1-0.6,1.3C194.4,142.9,193.7,143.1,193,143z"/>
<path class="st5" d="M199.4,143.1c-0.5,0-1.1-0.1-1.5-0.4c-0.4-0.3-0.8-0.7-1-1.1c-0.2-0.5-0.4-1.1-0.3-1.7l0-0.3
	c0-0.6,0.1-1.1,0.4-1.6c0.2-0.4,0.6-0.8,1-1.1c0.4-0.3,0.9-0.4,1.4-0.4c0.5,0,1,0.1,1.4,0.4c0.4,0.2,0.7,0.6,0.9,1
	c0.2,0.5,0.3,1,0.3,1.5l0,0.7l-4.1,0l0,0c0,0.4,0.1,0.7,0.2,1.1c0.1,0.3,0.3,0.6,0.6,0.7c0.3,0.2,0.6,0.3,0.9,0.3c0.3,0,0.7,0,1-0.2
	c0.3-0.1,0.5-0.3,0.8-0.5l0.4,0.8c-0.3,0.2-0.6,0.4-0.9,0.6C200.3,143,199.8,143.1,199.4,143.1z M197.8,139.1l2.9,0l0-0.2
	c0-0.3,0-0.6-0.2-0.8c-0.1-0.2-0.3-0.4-0.5-0.6c-0.2-0.2-0.5-0.2-0.8-0.2c-0.3,0-0.5,0.1-0.7,0.2c-0.2,0.2-0.4,0.4-0.5,0.6
	C197.9,138.5,197.8,138.8,197.8,139.1L197.8,139.1z"/>
<path class="st5" d="M202.7,143l0-0.7l1-0.2l0-4.5l-1-0.2l0-0.7l2,0l0.1,0.8l0,0.1c0.2-0.3,0.4-0.6,0.7-0.8c0.3-0.2,0.6-0.3,0.9-0.3
	c0.1,0,0.2,0,0.4,0l0.3,0.1l-0.2,1.1l-0.8-0.1c-0.3,0-0.5,0-0.8,0.2c-0.2,0.2-0.4,0.4-0.5,0.6l0,3.6l0.9,0.2l0,0.7L202.7,143z"/>
<path class="st5" d="M210.4,143.1l-2.2-5.5l-0.7-0.1l0-0.7l2.7,0l0,0.7l-0.8,0.1l1.4,3.6l0.2,0.5l0,0l0.2-0.5l1.3-3.6l-0.8-0.1
	l0-0.7l2.7,0l0,0.7l-0.7,0.1l-2.2,5.5L210.4,143.1z"/>
<path class="st5" d="M214.8,143.1l0-0.7l1-0.2l0-4.5l-0.9-0.2l0-0.7l2.1,0l-0.1,5.4l1,0.2l0,0.7L214.8,143.1z M215.8,135.2l0-1.2
	l1.2,0l0,1.2L215.8,135.2z"/>
<path class="st5" d="M221.6,143.3c-0.5,0-1-0.1-1.5-0.4c-0.4-0.3-0.8-0.7-1-1.1c-0.2-0.5-0.4-1.1-0.3-1.7l0-0.2
	c0-0.6,0.1-1.1,0.4-1.6c0.5-1,1.4-1.6,2.5-1.5c0.5,0,0.9,0.1,1.3,0.3c0.4,0.2,0.7,0.4,1,0.7l0,1.5l-0.9,0l-0.2-1.1
	c-0.1-0.1-0.3-0.3-0.5-0.3c-0.2-0.1-0.5-0.1-0.7-0.1c-0.3,0-0.6,0.1-0.9,0.3c-0.3,0.2-0.5,0.5-0.6,0.8c-0.2,0.4-0.2,0.7-0.2,1.1
	l0,0.2c0,0.4,0.1,0.8,0.2,1.2c0.1,0.3,0.3,0.6,0.6,0.8c0.3,0.2,0.6,0.3,0.9,0.3c0.4,0,0.7-0.1,1-0.3c0.3-0.2,0.4-0.5,0.5-0.9l1,0
	l0,0c0,0.4-0.1,0.7-0.3,1c-0.2,0.3-0.5,0.6-0.8,0.8C222.5,143.1,222,143.3,221.6,143.3z"/>
<path class="st5" d="M228,143.3c-0.5,0-1.1-0.1-1.5-0.4c-0.4-0.3-0.8-0.7-1-1.1c-0.2-0.5-0.4-1.1-0.3-1.7l0-0.3
	c0-0.6,0.1-1.1,0.4-1.6c0.2-0.4,0.6-0.8,1-1.1c0.4-0.3,0.9-0.4,1.4-0.4c0.5,0,1,0.1,1.4,0.4c0.4,0.2,0.7,0.6,0.9,1
	c0.2,0.5,0.3,1,0.3,1.5l0,0.7l-4.1,0l0,0c0,0.4,0.1,0.7,0.2,1.1c0.1,0.3,0.3,0.6,0.6,0.7c0.3,0.2,0.6,0.3,0.9,0.3c0.3,0,0.7,0,1-0.2
	c0.3-0.1,0.5-0.3,0.8-0.5l0.4,0.8c-0.3,0.2-0.6,0.4-0.9,0.6C228.9,143.3,228.5,143.3,228,143.3z M226.4,139.4l2.9,0l0-0.2
	c0-0.3,0-0.6-0.2-0.8c-0.1-0.2-0.3-0.4-0.5-0.6c-0.2-0.2-0.5-0.2-0.8-0.2c-0.3,0-0.5,0.1-0.7,0.2c-0.2,0.2-0.4,0.4-0.5,0.6
	C226.5,138.8,226.4,139.1,226.4,139.4L226.4,139.4z"/>
<path class="st5" d="M320.5,130.2c-0.8,0-1.5-0.2-2.1-0.6c-0.6-0.4-1-0.9-1.3-1.6c-0.3-0.7-0.4-1.5-0.4-2.2l0-0.1
	c0-0.8,0.2-1.5,0.5-2.2c0.3-0.6,0.7-1.2,1.3-1.5c0.6-0.4,1.3-0.6,2-0.5c0.5,0,1,0.1,1.5,0.3c0.4,0.2,0.8,0.4,1.2,0.7l0,1.8l-0.9,0
	l-0.1-1.4c-0.1-0.1-0.3-0.2-0.4-0.2c-0.2-0.1-0.3-0.2-0.5-0.3c-0.2,0-0.4-0.1-0.6-0.1c-0.5,0-1,0.1-1.4,0.4
	c-0.4,0.3-0.7,0.7-0.9,1.2c-0.2,0.6-0.3,1.1-0.3,1.7l0,0.1c0,0.6,0.1,1.2,0.3,1.8c0.2,0.5,0.5,0.9,0.9,1.2c0.4,0.3,1,0.4,1.5,0.4
	c0.3,0,0.5,0,0.8-0.1c0.2-0.1,0.4-0.1,0.7-0.3l0.1-1.2l0.9,0l0,1.8c-0.4,0.2-0.7,0.4-1.2,0.5C321.4,130.1,320.9,130.2,320.5,130.2z"
	/>
<path class="st5" d="M327,130.3c-1.1,0-2.1-0.6-2.5-1.6c-0.2-0.5-0.3-1.1-0.3-1.7l0-0.1c0-0.6,0.1-1.1,0.4-1.7
	c0.2-0.5,0.6-0.9,1-1.1c0.9-0.5,2.1-0.5,3,0c0.4,0.3,0.8,0.7,1,1.1c0.2,0.5,0.3,1.1,0.3,1.7l0,0.1c0,0.6-0.1,1.1-0.4,1.7
	c-0.2,0.5-0.6,0.9-1,1.1C328.1,130.1,327.6,130.3,327,130.3z M327,129.4c0.3,0,0.7-0.1,0.9-0.3c0.3-0.2,0.5-0.5,0.6-0.8
	c0.1-0.4,0.2-0.8,0.2-1.2l0-0.1c0-0.4,0-0.8-0.2-1.2c-0.1-0.3-0.3-0.6-0.6-0.8c-0.6-0.4-1.3-0.4-1.9,0c-0.3,0.2-0.5,0.5-0.6,0.8
	c-0.1,0.4-0.2,0.8-0.2,1.2l0,0.1c0,0.4,0,0.8,0.2,1.2c0.1,0.3,0.3,0.6,0.6,0.8C326.4,129.3,326.7,129.4,327,129.4z"/>
<path class="st5" d="M330.7,130.2l0-0.7l1-0.2l0-4.5l-0.9-0.2l0-0.7l2,0l0.1,0.9c0.2-0.3,0.5-0.6,0.8-0.8c0.3-0.2,0.7-0.3,1.1-0.3
	c0.6,0,1.2,0.2,1.6,0.6c0.4,0.5,0.6,1.2,0.5,1.9l0,3.1l1,0.2l0,0.7l-3.1,0l0-0.7l1-0.2l0-3.1c0-0.4-0.1-0.8-0.3-1.2
	c-0.3-0.3-0.6-0.4-1-0.4c-0.3,0-0.6,0.1-0.9,0.2c-0.3,0.2-0.5,0.4-0.6,0.7l0,3.7l0.9,0.2l0,0.7L330.7,130.2z"/>
<path class="st5" d="M340.6,130.4c-0.4,0-0.8-0.1-1.1-0.4c-0.3-0.4-0.5-0.9-0.4-1.3l0-3.8l-1,0l0-0.9l1,0l0-1.5l1.2,0l0,1.5l1.4,0
	l0,0.9l-1.4,0l0,3.8c0,0.2,0,0.5,0.2,0.7c0.1,0.1,0.3,0.2,0.5,0.2c0.2,0,0.3,0,0.5,0l0.4-0.1l0.2,0.8c-0.2,0.1-0.4,0.1-0.6,0.1
	C341,130.4,340.8,130.4,340.6,130.4z"/>
<path class="st5" d="M344.7,130.4c-0.5,0-1.1-0.1-1.5-0.5c-0.4-0.4-0.5-0.9-0.5-1.4c0-0.4,0.1-0.7,0.3-1c0.3-0.3,0.6-0.6,1-0.7
	c0.5-0.2,1-0.3,1.5-0.2l1.1,0l0-0.6c0-0.3-0.1-0.7-0.3-0.9c-0.3-0.2-0.6-0.4-1-0.3c-0.2,0-0.5,0-0.7,0.1c-0.2,0.1-0.4,0.1-0.5,0.3
	L344,126l-0.9,0l0-1.4c0.3-0.2,0.6-0.4,1-0.5c0.4-0.1,0.8-0.2,1.3-0.2c0.6,0,1.3,0.2,1.8,0.6c0.4,0.4,0.7,1,0.6,1.6l0,3
	c0,0.1,0,0.2,0,0.2c0,0.1,0,0.2,0,0.2l0.6,0.1l0,0.7l-1.7,0c0-0.2-0.1-0.3-0.1-0.5c0-0.1,0-0.3,0-0.4c-0.2,0.3-0.5,0.5-0.8,0.7
	C345.5,130.3,345.1,130.4,344.7,130.4z M344.9,129.4c0.4,0,0.7-0.1,1.1-0.3c0.3-0.1,0.5-0.4,0.7-0.7l0-1.1l-1.2,0
	c-0.4,0-0.9,0.1-1.2,0.4c-0.2,0.2-0.4,0.5-0.4,0.8c0,0.2,0.1,0.5,0.3,0.6C344.3,129.4,344.6,129.5,344.9,129.4L344.9,129.4z"/>
<path class="st5" d="M349.2,130.3l0-0.7l1-0.2l0-4.5l-1-0.2l0-0.7l2.1,0l-0.1,5.4l1,0.2l0,0.7L349.2,130.3z M350.2,122.5l0-1.2
	l1.2,0l0,1.2L350.2,122.5z"/>
<path class="st5" d="M353,130.4l0-0.7l1-0.2l0-4.5l-1-0.2l0-0.7l2,0l0.1,0.9c0.2-0.3,0.5-0.6,0.8-0.8c0.3-0.2,0.7-0.3,1.1-0.3
	c0.6,0,1.2,0.2,1.6,0.6c0.4,0.5,0.6,1.2,0.5,1.9l0,3.1l1,0.2l0,0.7l-3.1,0l0-0.7l1-0.2l0-3.1c0-0.4-0.1-0.8-0.3-1.2
	c-0.3-0.3-0.6-0.4-1-0.4c-0.3,0-0.6,0.1-0.9,0.2c-0.3,0.2-0.5,0.4-0.6,0.7l0,3.7l1,0.2l0,0.7L353,130.4z"/>
<path class="st5" d="M363.7,130.6c-0.5,0-1.1-0.1-1.5-0.4c-0.4-0.3-0.8-0.7-1-1.1c-0.2-0.5-0.4-1.1-0.3-1.7l0-0.3
	c0-0.6,0.1-1.1,0.4-1.6c0.2-0.4,0.6-0.8,1-1.1c0.4-0.3,0.9-0.4,1.4-0.4c0.5,0,1,0.1,1.4,0.4c0.4,0.2,0.7,0.6,0.9,1
	c0.2,0.5,0.3,1,0.3,1.5l0,0.7l-4.1,0l0,0c0,0.4,0.1,0.7,0.2,1.1c0.1,0.3,0.3,0.6,0.6,0.7c0.3,0.2,0.6,0.3,0.9,0.3c0.3,0,0.7,0,1-0.2
	c0.3-0.1,0.5-0.3,0.8-0.5l0.4,0.8c-0.3,0.2-0.6,0.4-0.9,0.6C364.6,130.5,364.2,130.6,363.7,130.6z M362.1,126.7l2.9,0l0-0.2
	c0-0.3,0-0.6-0.2-0.8c-0.1-0.2-0.3-0.4-0.5-0.6c-0.2-0.2-0.5-0.2-0.8-0.2c-0.3,0-0.5,0.1-0.7,0.2c-0.2,0.2-0.4,0.4-0.5,0.6
	C362.3,126,362.2,126.3,362.1,126.7L362.1,126.7z"/>
<path class="st5" d="M367,130.5l0-0.7l1-0.2l0-4.5l-1-0.2l0-0.7l2,0l0.1,0.8l0,0.1c0.2-0.3,0.4-0.6,0.7-0.8c0.3-0.2,0.6-0.3,0.9-0.3
	l0.4,0l0.3,0.1l-0.2,1.1l-0.8-0.1c-0.3,0-0.5,0-0.8,0.2c-0.2,0.2-0.4,0.4-0.5,0.6l0,3.6l0.9,0.2l0,0.7L367,130.5z"/>
<path class="st5" d="M472.4,180.8c-0.8,0-1.5-0.2-2.1-0.6c-0.6-0.4-1-0.9-1.3-1.6c-0.3-0.7-0.4-1.5-0.4-2.2l0-0.1
	c0-0.8,0.2-1.5,0.5-2.2c0.3-0.6,0.7-1.1,1.3-1.5c0.6-0.4,1.3-0.6,2-0.6c0.5,0,1,0.1,1.5,0.3c0.4,0.1,0.8,0.4,1.1,0.7l0,1.8l-0.9,0
	l-0.1-1.4c-0.1-0.1-0.3-0.2-0.4-0.3c-0.4-0.1-0.8-0.2-1.2-0.2c-0.5,0-1,0.1-1.4,0.4c-0.4,0.3-0.7,0.7-0.9,1.2
	c-0.2,0.6-0.3,1.1-0.3,1.7l0,0.1c0,0.6,0.1,1.2,0.3,1.8c0.2,0.5,0.5,0.9,0.9,1.2c0.4,0.3,1,0.4,1.5,0.4c0.3,0,0.5,0,0.8-0.1
	c0.2,0,0.4-0.1,0.7-0.2l0.1-1.2l0.9,0l0,1.8c-0.4,0.2-0.7,0.4-1.2,0.4C473.3,180.7,472.8,180.8,472.4,180.8z"/>
<path class="st5" d="M478.9,180.8c-1.1,0-2.1-0.6-2.5-1.6c-0.2-0.5-0.3-1.1-0.3-1.7l0-0.1c0-0.6,0.1-1.1,0.4-1.7
	c0.6-1.4,2.3-2,3.6-1.3c0.6,0.3,1.1,0.8,1.4,1.4c0.2,0.5,0.4,1.1,0.3,1.7l0,0.1c0,0.6-0.1,1.1-0.4,1.7c-0.2,0.5-0.6,0.9-1,1.1
	C479.9,180.7,479.4,180.8,478.9,180.8z M478.9,179.9c0.3,0,0.7-0.1,0.9-0.3c0.3-0.2,0.5-0.5,0.6-0.8c0.1-0.4,0.2-0.8,0.2-1.2l0-0.1
	c0-0.4,0-0.8-0.2-1.2c-0.1-0.3-0.3-0.6-0.6-0.8c-0.6-0.4-1.3-0.4-1.9,0c-0.3,0.2-0.5,0.5-0.6,0.8c-0.1,0.4-0.2,0.8-0.2,1.2l0,0.1
	c0,0.4,0,0.8,0.2,1.2c0.1,0.3,0.3,0.6,0.6,0.8C478.2,179.8,478.6,179.9,478.9,179.9L478.9,179.9z"/>
<path class="st5" d="M482.6,180.7l0-0.7l1-0.2l0-4.5l-1-0.2l0-0.7l2,0l0.1,0.9c0.2-0.3,0.5-0.6,0.8-0.8c0.9-0.5,1.9-0.3,2.7,0.3
	c0.4,0.5,0.6,1.2,0.5,1.9l0,3.1l0.9,0.2l0,0.7l-3.1,0l0-0.7l1-0.2l0-3.1c0-0.4-0.1-0.8-0.3-1.2c-0.3-0.3-0.6-0.4-1-0.4
	c-0.3,0-0.6,0.1-0.9,0.2c-0.3,0.2-0.5,0.4-0.6,0.6l0,3.7l1,0.2l0,0.7L482.6,180.7z"/>
<path class="st5" d="M492.5,180.9c-0.4,0-0.8-0.1-1.1-0.4c-0.3-0.4-0.5-0.8-0.4-1.3l0-3.8l-1,0l0-0.8l1,0l0-1.5l1.1,0l0,1.5l1.4,0
	l0,0.8l-1.4,0l0,3.8c0,0.2,0,0.5,0.2,0.7c0.1,0.1,0.3,0.2,0.5,0.2c0.2,0,0.3,0,0.5,0l0.4-0.1l0.2,0.8c-0.2,0.1-0.4,0.1-0.6,0.1
	C492.9,180.9,492.7,180.9,492.5,180.9z"/>
<path class="st5" d="M496.6,181c-0.5,0-1.1-0.1-1.5-0.5c-0.4-0.4-0.5-0.9-0.5-1.4c0-0.4,0.1-0.7,0.3-1c0.3-0.3,0.6-0.6,1-0.7
	c0.5-0.2,1-0.2,1.5-0.2l1.1,0l0-0.6c0-0.3-0.1-0.7-0.3-0.9c-0.3-0.2-0.6-0.4-1-0.3c-0.2,0-0.5,0-0.7,0.1c-0.2,0.1-0.4,0.2-0.5,0.3
	l-0.1,0.9l-0.9,0l0-1.5c0.3-0.2,0.6-0.4,1-0.5c0.4-0.1,0.8-0.2,1.3-0.2c0.7,0,1.3,0.2,1.8,0.6c0.4,0.4,0.7,1,0.6,1.6l0,3
	c0,0.1,0,0.2,0,0.2c0,0.1,0,0.2,0,0.2l0.6,0.1l0,0.7l-1.7,0c0-0.2-0.1-0.3-0.1-0.5c0-0.1,0-0.3,0-0.4c-0.2,0.3-0.5,0.5-0.8,0.7
	C497.3,180.9,497,181,496.6,181z M496.7,180c0.4,0,0.7-0.1,1.1-0.3c0.3-0.2,0.5-0.4,0.7-0.7l0-1.1l-1.2,0c-0.4,0-0.9,0.1-1.2,0.4
	c-0.2,0.2-0.4,0.5-0.4,0.8c0,0.2,0.1,0.5,0.3,0.6C496.2,179.9,496.5,180,496.7,180L496.7,180z"/>
<path class="st5" d="M501.1,180.9l0-0.7l1-0.2l0-4.5l-1-0.2l0-0.7l2.1,0l-0.1,5.4l1,0.2l0,0.7L501.1,180.9z M502.1,173l0-1.2l1.2,0
	l0,1.2L502.1,173z"/>
<path class="st5" d="M505,180.9l0-0.7l1-0.2l0-4.5l-1-0.2l0-0.7l2,0l0.1,0.9c0.2-0.3,0.5-0.6,0.8-0.8c0.9-0.5,1.9-0.3,2.7,0.3
	c0.4,0.5,0.6,1.2,0.5,1.9l0,3.1l1,0.2l0,0.7l-3.1,0l0-0.7l1-0.2l0-3.1c0-0.4-0.1-0.8-0.3-1.2c-0.3-0.3-0.6-0.4-1-0.4
	c-0.3,0-0.6,0.1-0.9,0.2c-0.3,0.2-0.5,0.4-0.6,0.6l0,3.7l1,0.2l0,0.7L505,180.9z"/>
<path class="st5" d="M515.6,181.2c-0.5,0-1.1-0.1-1.5-0.4c-0.4-0.3-0.8-0.7-1-1.1c-0.2-0.5-0.4-1.1-0.3-1.7l0-0.3
	c0-0.6,0.1-1.1,0.4-1.6c0.2-0.5,0.6-0.8,1-1.1c0.4-0.3,0.9-0.4,1.4-0.4c0.5,0,1,0.1,1.4,0.4c0.4,0.2,0.7,0.6,0.9,1
	c0.2,0.5,0.3,1,0.3,1.5l0,0.7l-4.1,0l0,0c0,0.4,0.1,0.7,0.2,1.1c0.1,0.3,0.3,0.6,0.6,0.7c0.3,0.2,0.6,0.3,0.9,0.3c0.3,0,0.7,0,1-0.2
	c0.3-0.1,0.5-0.3,0.8-0.5l0.4,0.8c-0.3,0.2-0.6,0.4-0.9,0.5C516.6,181.1,516.1,181.2,515.6,181.2z M514,177.2l2.9,0l0-0.1
	c0-0.3,0-0.6-0.2-0.8c-0.1-0.2-0.3-0.4-0.5-0.6c-0.2-0.2-0.5-0.2-0.8-0.2c-0.3,0-0.5,0.1-0.7,0.2c-0.2,0.2-0.4,0.4-0.5,0.6
	C514.1,176.6,514,176.9,514,177.2L514,177.2z"/>
<path class="st5" d="M518.9,181.1l0-0.7l1-0.2l0-4.5l-0.9-0.2l0-0.7l2,0l0.1,0.8l0,0.1c0.2-0.3,0.4-0.6,0.7-0.8
	c0.3-0.2,0.6-0.3,0.9-0.3l0.4,0l0.3,0.1l-0.2,1.1l-0.8-0.1c-0.3,0-0.5,0-0.8,0.2c-0.2,0.2-0.4,0.4-0.5,0.6l0,3.6l0.9,0.2l0,0.7
	L518.9,181.1z"/>
<path class="st5" d="M523.9,181.1l0-0.7l1-0.2l0-4.5l-1-0.2l0-0.7l2.1,0l-0.1,5.4l1,0.2l0,0.7L523.9,181.1z M524.9,173.2l0-1.2
	l1.2,0l0,1.2L524.9,173.2z"/>
<path class="st5" d="M527.9,181.2l0-0.8l3.5-4.6l-2.4,0l-0.2,1.1l-0.9,0l0-2l4.8,0l0,0.8l-3.5,4.6l2.7,0l0.2-1.1l0.9,0l0,1.9
	L527.9,181.2z"/>
<path class="st5" d="M536.6,181.4c-0.5,0-1.1-0.1-1.5-0.4c-0.4-0.3-0.8-0.7-1-1.1c-0.2-0.5-0.4-1.1-0.3-1.7l0-0.3
	c0-0.6,0.1-1.1,0.4-1.6c0.2-0.5,0.6-0.8,1-1.1c0.4-0.3,0.9-0.4,1.4-0.4c0.5,0,1,0.1,1.4,0.4c0.4,0.2,0.7,0.6,0.9,1
	c0.2,0.5,0.3,1,0.3,1.5l0,0.7l-4.1,0l0,0c0,0.4,0.1,0.7,0.2,1.1c0.1,0.3,0.3,0.6,0.6,0.7c0.3,0.2,0.6,0.3,0.9,0.3c0.3,0,0.7,0,1-0.2
	c0.3-0.1,0.5-0.3,0.8-0.5l0.4,0.8c-0.3,0.2-0.6,0.4-0.9,0.5C537.5,181.3,537.1,181.4,536.6,181.4z M535,177.4l2.9,0l0-0.1
	c0-0.3,0-0.6-0.2-0.8c-0.1-0.2-0.3-0.4-0.5-0.6c-0.2-0.2-0.5-0.2-0.8-0.2c-0.3,0-0.5,0.1-0.7,0.2c-0.2,0.2-0.4,0.4-0.5,0.6
	C535.1,176.8,535,177.1,535,177.4L535,177.4z"/>
<path class="st5" d="M542.7,181.4c-0.5,0-0.9-0.1-1.3-0.4c-0.4-0.3-0.7-0.6-0.8-1.1c-0.2-0.5-0.3-1.1-0.3-1.6l0-0.1
	c0-0.6,0.1-1.2,0.3-1.8c0.2-0.5,0.5-0.9,0.9-1.2c0.4-0.3,0.9-0.4,1.3-0.4c0.3,0,0.7,0.1,1,0.2c0.3,0.1,0.5,0.4,0.7,0.6l0-2.6l-1-0.2
	l0-0.7l2.1,0l-0.1,8.2l1,0.2l0,0.7l-2,0l-0.1-0.8c-0.2,0.3-0.5,0.5-0.8,0.7C543.4,181.4,543,181.4,542.7,181.4z M543,180.5
	c0.3,0,0.6-0.1,0.9-0.2c0.2-0.2,0.4-0.4,0.6-0.7l0-2.9c-0.1-0.3-0.3-0.5-0.6-0.6c-0.3-0.2-0.6-0.2-0.9-0.2c-0.3,0-0.7,0.1-0.9,0.3
	c-0.3,0.2-0.4,0.5-0.5,0.9c-0.1,0.4-0.2,0.8-0.2,1.3l0,0.1c0,0.5,0.1,1.1,0.4,1.5C542,180.3,542.5,180.5,543,180.5z"/>
<path class="st5" d="M491.1,195.3c-0.8,0-1.5-0.2-2.1-0.6c-0.6-0.4-1-0.9-1.3-1.5c-0.3-0.7-0.4-1.5-0.4-2.2l0-0.1
	c0-0.8,0.2-1.5,0.5-2.2c0.3-0.6,0.7-1.1,1.3-1.5c0.6-0.4,1.3-0.6,2-0.6c0.5,0,1,0.1,1.5,0.3c0.4,0.1,0.8,0.4,1.1,0.7l0,1.8l-0.9,0
	l-0.1-1.4c-0.1-0.1-0.3-0.2-0.4-0.3c-0.4-0.1-0.8-0.2-1.2-0.2c-0.5,0-1,0.1-1.4,0.4c-0.4,0.3-0.7,0.7-0.9,1.2
	c-0.2,0.6-0.3,1.1-0.3,1.7l0,0.1c0,0.6,0.1,1.2,0.3,1.8c0.2,0.5,0.5,0.9,0.9,1.2c0.4,0.3,1,0.4,1.5,0.4c0.3,0,0.5,0,0.8-0.1
	c0.2,0,0.5-0.1,0.7-0.2l0.1-1.2l0.9,0l0,1.8c-0.4,0.2-0.7,0.4-1.2,0.4C492,195.3,491.6,195.3,491.1,195.3z"/>
<path class="st5" d="M498.7,195.4c-0.8,0-1.5-0.2-2.1-0.6c-0.6-0.4-1-0.9-1.3-1.6c-0.3-0.7-0.4-1.5-0.4-2.2l0-0.1
	c0-0.8,0.2-1.5,0.5-2.2c0.3-0.6,0.7-1.1,1.3-1.5c0.6-0.4,1.3-0.6,2-0.6c0.5,0,1,0.1,1.5,0.3c0.4,0.1,0.8,0.4,1.1,0.7l0,1.8l-0.9,0
	l-0.1-1.4c-0.1-0.1-0.3-0.2-0.4-0.3c-0.2-0.1-0.3-0.1-0.5-0.2c-0.2,0-0.4,0-0.7,0c-0.5,0-1,0.1-1.4,0.4c-0.4,0.3-0.7,0.7-0.9,1.2
	c-0.2,0.6-0.3,1.1-0.3,1.7l0,0.1c0,0.6,0.1,1.2,0.3,1.8c0.2,0.5,0.5,0.9,0.9,1.2c0.4,0.3,1,0.4,1.5,0.4c0.3,0,0.5,0,0.8-0.1
	c0.2,0,0.4-0.1,0.7-0.2l0.1-1.2l0.9,0l0,1.8c-0.4,0.2-0.7,0.4-1.1,0.4C499.6,195.4,499.1,195.4,498.7,195.4z"/>
<path class="st5" d="M505.3,195.4l0-0.7l0.6-0.1l3.1-7.7l1,0l2.9,7.7l0.6,0.1l0,0.7l-2.5,0l0-0.7l0.7-0.1l-0.5-1.6l-3.4,0l-0.6,1.6
	l0.6,0.1l0,0.7L505.3,195.4z M508,192l2.7,0l-1.2-3.5l-0.1-0.2l0,0l-0.1,0.2L508,192z"/>
<path class="st5" d="M514.1,197.9l0-0.7l0.9-0.2l0.1-7l-1-0.2l0-0.7l2,0l0.1,0.8c0.2-0.3,0.5-0.5,0.8-0.7c0.3-0.2,0.7-0.2,1.1-0.2
	c0.5,0,1,0.1,1.3,0.4c0.4,0.3,0.7,0.7,0.8,1.2c0.2,0.6,0.3,1.2,0.3,1.8l0,0.1c0,0.5-0.1,1.1-0.3,1.6c-0.2,0.4-0.5,0.8-0.8,1.1
	c-0.4,0.3-0.9,0.4-1.3,0.4c-0.3,0-0.7-0.1-1-0.2c-0.3-0.1-0.5-0.3-0.7-0.6l0,2.2l1,0.2l0,0.7L514.1,197.9z M517.6,194.7
	c0.5,0,1-0.2,1.2-0.6c0.3-0.5,0.5-1,0.4-1.5l0-0.1c0-0.4,0-0.9-0.2-1.3c-0.1-0.3-0.3-0.6-0.6-0.9c-0.3-0.2-0.6-0.3-0.9-0.3
	c-0.3,0-0.6,0.1-0.8,0.2c-0.2,0.2-0.4,0.4-0.6,0.6l0,3.1c0.1,0.2,0.3,0.5,0.6,0.6C517,194.6,517.3,194.7,517.6,194.7z"/>
<path class="st5" d="M521.1,197.9l0-0.7l0.9-0.2l0.1-7l-0.9-0.2l0-0.7l1.9,0l0.1,0.8c0.2-0.3,0.5-0.5,0.8-0.7
	c0.3-0.2,0.7-0.2,1.1-0.2c0.5,0,1,0.1,1.3,0.4c0.4,0.3,0.7,0.7,0.8,1.2c0.2,0.6,0.3,1.2,0.3,1.8l0,0.1c0,0.5-0.1,1.1-0.3,1.6
	c-0.2,0.4-0.5,0.8-0.9,1.1c-0.4,0.3-0.9,0.4-1.3,0.4c-0.3,0-0.7-0.1-1-0.2c-0.3-0.1-0.6-0.3-0.7-0.6l0,2.2l1,0.2l0,0.7L521.1,197.9z
	 M524.6,194.7c0.5,0,1-0.2,1.2-0.6c0.3-0.5,0.5-1,0.4-1.5l0-0.1c0-0.4,0-0.9-0.2-1.3c-0.1-0.3-0.3-0.6-0.6-0.9
	c-0.3-0.2-0.6-0.3-0.9-0.3c-0.3,0-0.6,0.1-0.9,0.2c-0.2,0.2-0.4,0.4-0.6,0.6l0,3.1C523.5,194.4,524,194.8,524.6,194.7L524.6,194.7z"
	/>
<path class="st5" d="M74.4,127.9c-0.5,0-1-0.1-1.5-0.2c-0.5-0.2-1-0.4-1.4-0.7l0-1.8l0.9,0l0.2,1.3c0.3,0.2,0.5,0.3,0.8,0.4
	c0.3,0.1,0.7,0.1,1,0.1c0.3,0,0.7,0,1-0.2c0.3-0.1,0.5-0.3,0.6-0.5c0.3-0.4,0.3-1,0-1.4c-0.2-0.2-0.4-0.4-0.6-0.5
	c-0.4-0.2-0.8-0.3-1.2-0.4c-0.5-0.1-1-0.3-1.5-0.6c-0.4-0.2-0.7-0.5-0.9-0.8c-0.2-0.3-0.3-0.7-0.3-1.1c0-0.4,0.1-0.8,0.4-1.2
	c0.3-0.4,0.6-0.6,1-0.8c0.5-0.2,1-0.3,1.5-0.3c0.5,0,1.1,0.1,1.6,0.3c0.4,0.2,0.8,0.4,1.1,0.7l0,1.7l-0.9,0l-0.2-1.2
	c-0.2-0.2-0.4-0.3-0.7-0.4c-0.3-0.1-0.7-0.2-1-0.1c-0.3,0-0.6,0-0.9,0.2c-0.2,0.1-0.4,0.3-0.6,0.5c-0.1,0.2-0.2,0.5-0.2,0.7
	c0,0.2,0.1,0.5,0.2,0.6c0.2,0.2,0.4,0.4,0.6,0.5c0.4,0.2,0.8,0.3,1.2,0.4c0.7,0.2,1.4,0.5,2,1c0.4,0.4,0.7,1,0.7,1.6
	c0,0.4-0.1,0.9-0.4,1.2c-0.3,0.4-0.6,0.6-1,0.8C75.5,127.8,74.9,127.9,74.4,127.9z"/>
<path class="st5" d="M81.3,128c-0.5,0-1.1-0.1-1.5-0.4c-0.4-0.3-0.8-0.7-1-1.1c-0.2-0.5-0.4-1.1-0.3-1.7l0-0.3
	c0-0.6,0.1-1.1,0.4-1.6c0.2-0.5,0.6-0.8,1-1.1c0.4-0.3,0.9-0.4,1.4-0.4c0.5,0,1,0.1,1.4,0.4c0.4,0.2,0.7,0.6,0.9,1
	c0.2,0.5,0.3,1,0.3,1.5l0,0.7l-4.1,0l0,0c0,0.4,0.1,0.7,0.2,1.1c0.1,0.3,0.3,0.6,0.6,0.7c0.3,0.2,0.6,0.3,0.9,0.3c0.3,0,0.7,0,1-0.2
	c0.3-0.1,0.5-0.3,0.8-0.5l0.4,0.8c-0.3,0.2-0.6,0.4-0.9,0.6C82.2,127.9,81.7,128,81.3,128z M79.6,124l2.9,0l0-0.2
	c0-0.3,0-0.6-0.2-0.8c-0.1-0.2-0.3-0.4-0.5-0.6c-0.2-0.1-0.5-0.2-0.8-0.2c-0.3,0-0.5,0.1-0.7,0.2c-0.2,0.2-0.4,0.4-0.5,0.6
	C79.8,123.4,79.7,123.7,79.6,124L79.6,124z"/>
<path class="st5" d="M84.6,127.9l0-0.7l1-0.2l0-4.5l-0.9-0.2l0-0.7l2,0l0.1,0.8l0,0.1c0.2-0.3,0.4-0.6,0.7-0.8
	c0.3-0.2,0.6-0.3,0.9-0.3c0.1,0,0.3,0,0.4,0l0.3,0.1l-0.2,1.1l-0.8-0.1c-0.3,0-0.5,0-0.8,0.2c-0.2,0.2-0.4,0.4-0.5,0.6l0,3.6
	l0.9,0.2l0,0.7L84.6,127.9z"/>
<path class="st5" d="M92.3,128l-2.2-5.5l-0.6-0.1l0-0.7l2.7,0l0,0.7l-0.8,0.1l1.4,3.6l0.2,0.5l0,0l0.2-0.5l1.3-3.6l-0.8-0.1l0-0.7
	l2.7,0l0,0.7l-0.7,0.1l-2.2,5.5L92.3,128z"/>
<path class="st5" d="M96.7,128l0-0.7l1-0.2l0-4.5l-1-0.2l0-0.7l2.1,0l-0.1,5.4l1,0.2l0,0.7L96.7,128z M97.7,120.1l0-1.2l1.2,0l0,1.2
	L97.7,120.1z"/>
<path class="st5" d="M103.4,128.2c-0.5,0-1-0.1-1.5-0.4c-0.4-0.3-0.8-0.7-1-1.1c-0.2-0.5-0.4-1.1-0.3-1.7l0-0.2
	c0-0.6,0.1-1.1,0.4-1.6c0.2-0.5,0.6-0.9,1-1.1c0.5-0.3,1-0.4,1.5-0.4c0.5,0,0.9,0.1,1.3,0.3c0.4,0.2,0.7,0.4,1,0.7l0,1.5l-0.9,0
	l-0.2-1.1c-0.1-0.1-0.3-0.3-0.5-0.3c-0.2-0.1-0.5-0.1-0.7-0.1c-0.3,0-0.6,0.1-0.9,0.3c-0.3,0.2-0.5,0.5-0.6,0.8
	c-0.2,0.4-0.2,0.7-0.2,1.1l0,0.2c0,0.4,0.1,0.8,0.2,1.2c0.1,0.3,0.3,0.6,0.6,0.8c0.3,0.2,0.6,0.3,0.9,0.3c0.4,0,0.7-0.1,1-0.3
	c0.3-0.2,0.4-0.5,0.5-0.9l1,0l0,0c0,0.8-0.5,1.4-1.2,1.8C104.3,128.1,103.9,128.2,103.4,128.2z"/>
<path class="st5" d="M109.9,128.2c-0.5,0-1.1-0.1-1.5-0.4c-0.4-0.3-0.8-0.7-1-1.1c-0.2-0.5-0.4-1.1-0.3-1.7l0-0.3
	c0-0.6,0.1-1.1,0.4-1.6c0.2-0.5,0.6-0.8,1-1.1c0.4-0.3,0.9-0.4,1.4-0.4c0.5,0,1,0.1,1.4,0.4c0.4,0.2,0.7,0.6,0.9,1
	c0.2,0.5,0.3,1,0.3,1.5l0,0.7l-4.1,0l0,0c0,0.4,0.1,0.7,0.2,1.1c0.1,0.3,0.3,0.6,0.6,0.7c0.3,0.2,0.6,0.3,0.9,0.3c0.3,0,0.7,0,1-0.2
	c0.3-0.1,0.5-0.3,0.8-0.5l0.5,0.8c-0.3,0.2-0.6,0.4-0.9,0.6C110.8,128.2,110.3,128.3,109.9,128.2z M108.2,124.3l2.9,0l0-0.2
	c0-0.3,0-0.6-0.2-0.8c-0.1-0.2-0.3-0.4-0.5-0.6c-0.2-0.1-0.5-0.2-0.8-0.2c-0.3,0-0.5,0.1-0.7,0.2c-0.2,0.2-0.4,0.4-0.5,0.6
	C108.4,123.7,108.3,124,108.2,124.3L108.2,124.3z"/>
<path class="st6" d="M230.4,46.1l-5.2,0c-0.7,0-1-0.3-1-1l0.1-8c0-0.7,0.3-1,1-1l10.4,0.1c0.7,0,0.9,0.3,0.9,1l-0.1,8
	c0,0.7-0.3,0.9-1,0.9C233.9,46.2,232.1,46.2,230.4,46.1z"/>
<path class="st6" d="M225.2,35.5c0-2.2,1.3-4.2,3.3-5.1c2.6-1.1,5.7,0.1,6.8,2.7c0.1,0.3,0.2,0.6,0.3,0.9c0.1,0.5,0.2,1,0.3,1.5"/>
<path class="st7" d="M229.6,42.7L229.6,42.7l0,1.1c0,0.2,0.1,0.3,0.3,0.3l1,0c0.3,0,0.4-0.1,0.4-0.3l0-2c0-0.2,0.1-0.4,0.3-0.5
	c0.7-0.3,1-1.1,0.8-1.8c-0.3-0.7-1-1.2-1.8-1.2c-0.8-0.1-1.6,0.3-2,1.1c-0.3,0.7,0,1.5,0.7,1.9c0.2,0.1,0.4,0.3,0.3,0.6
	C229.6,42.2,229.6,42.4,229.6,42.7z"/>
<path class="st6" d="M525.5,51.6l-5.2,0c-0.7,0-1-0.3-1-1l0.1-8c0-0.7,0.3-1,1-1l10.4,0.1c0.7,0,1,0.3,1,1l-0.1,8
	c0,0.7-0.3,0.9-1,0.9C529,51.7,527.2,51.6,525.5,51.6z"/>
<path class="st6" d="M520.2,40.9c0-2.2,1.3-4.2,3.3-5.1c2.6-1.1,5.7,0.1,6.8,2.7c0.1,0.3,0.2,0.6,0.3,0.9c0.1,0.5,0.2,1,0.3,1.5"/>
<path class="st7" d="M524.7,48.2L524.7,48.2l0,1.1c0,0.2,0.1,0.3,0.3,0.3l1,0c0.3,0,0.4-0.1,0.4-0.3l0-2c0-0.2,0.1-0.4,0.3-0.5
	c0.7-0.3,1-1.1,0.8-1.8c-0.3-0.7-1-1.2-1.8-1.2c-0.8-0.1-1.6,0.3-2,1.1c-0.3,0.7,0,1.5,0.7,1.9c0.2,0.1,0.4,0.3,0.3,0.6
	C524.6,47.6,524.7,47.9,524.7,48.2z"/>
</svg>
