<?xml version="1.0" encoding="utf-8"?>
<!-- Generator: Adobe Illustrator 25.2.0, SVG Export Plug-In . SVG Version: 6.00 Build 0)  -->
<svg version="1.1" id="Ebene_1" xmlns="http://www.w3.org/2000/svg" xmlns:xlink="http://www.w3.org/1999/xlink" x="0px" y="0px"
	 viewBox="0 0 629.5 202.9" style="enable-background:new 0 0 629.5 202.9;" xml:space="preserve">
<style type="text/css">
	.st0{fill:url(#SVGID_1_);}
	.st1{fill:#518ECB;}
	.st2{opacity:0.4;}
	.st3{fill:none;stroke:#FFCC03;stroke-width:2;stroke-linecap:round;stroke-linejoin:round;}
	.st4{fill:url(#SVGID_2_);}
	.st5{fill:#32245E;}
	.st6{fill:none;stroke:#981869;stroke-width:2;stroke-linecap:round;stroke-linejoin:round;}
	.st7{fill:#981869;}
	.st8{fill:#282256;}
</style>
<linearGradient id="SVGID_1_" gradientUnits="userSpaceOnUse" x1="197.0571" y1="951.2903" x2="232.7653" y2="951.2903" gradientTransform="matrix(1 9.295369e-03 -9.295369e-03 1 5.0814 -883.9389)">
	<stop  offset="0" style="stop-color:#981869"/>
	<stop  offset="0.19" style="stop-color:#771C65"/>
	<stop  offset="0.4" style="stop-color:#591F62"/>
	<stop  offset="0.61" style="stop-color:#432260"/>
	<stop  offset="0.81" style="stop-color:#36235E"/>
	<stop  offset="1" style="stop-color:#32245E"/>
</linearGradient>
<polygon class="st0" points="211.4,48.7 193.4,58.9 193.2,79.5 211.1,90 228.9,79.8 229.1,59.2 "/>
<ellipse class="st1" cx="211.3" cy="69.3" rx="10.3" ry="10.3"/>
<circle class="st1" cx="92.4" cy="68.7" r="10.3"/>
<g class="st2">
	<polygon class="st3" points="563.9,104.5 507.6,136.2 452.5,103.5 508.2,71.8 	"/>
	<polygon class="st3" points="564.4,40.1 563.9,104.5 508.2,71.8 508.8,7.4 	"/>
	<polygon class="st3" points="508.8,7.4 508.2,71.8 452.5,103.5 453.1,39.1 	"/>
</g>
<linearGradient id="SVGID_2_" gradientUnits="userSpaceOnUse" x1="494.3923" y1="950.9268" x2="530.1005" y2="950.9268" gradientTransform="matrix(1 9.295369e-03 -9.295369e-03 1 5.0814 -883.9389)">
	<stop  offset="0" style="stop-color:#981869"/>
	<stop  offset="0.19" style="stop-color:#771C65"/>
	<stop  offset="0.4" style="stop-color:#591F62"/>
	<stop  offset="0.61" style="stop-color:#432260"/>
	<stop  offset="0.81" style="stop-color:#36235E"/>
	<stop  offset="1" style="stop-color:#32245E"/>
</linearGradient>
<polygon class="st4" points="508.7,51.1 490.7,61.3 490.5,81.9 508.4,92.4 526.2,82.3 526.4,61.6 "/>
<ellipse transform="matrix(0.3554 -0.9347 0.9347 0.3554 260.7404 521.6831)" class="st1" cx="508.6" cy="71.8" rx="10.3" ry="10.3"/>
<polygon class="st3" points="453.1,39.1 509.3,7.4 564.4,40.1 508.7,71.8 "/>
<polygon class="st3" points="452.5,103.5 453.1,39.1 508.7,71.8 508.1,136.2 "/>
<polygon class="st3" points="508.1,136.2 508.7,71.8 564.4,40.1 563.9,104.5 "/>
<g class="st2">
	<polygon class="st3" points="369.4,84.7 344.2,98.9 319.4,84.2 344.4,70 	"/>
	<polygon class="st3" points="369.7,55.8 369.4,84.7 344.4,70 344.7,41.1 	"/>
	<polygon class="st3" points="344.7,41.1 344.4,70 319.4,84.2 319.7,55.3 	"/>
</g>
<polygon class="st3" points="319.7,55.3 345,41.1 369.7,55.8 344.7,70 "/>
<polygon class="st3" points="319.4,84.2 319.7,55.3 344.7,70 344.4,98.9 "/>
<polygon class="st3" points="344.4,98.9 344.7,70 369.7,55.8 369.4,84.7 "/>
<path class="st5" d="M193,143c-0.4,0-0.8,0-1.2-0.1s-0.8-0.2-1.2-0.4V141h0.9l0.2,0.9c0.2,0.1,0.4,0.2,0.6,0.2
	c0.2,0.1,0.4,0.1,0.7,0.1c0.4,0,0.7-0.1,1-0.3c0.2-0.2,0.3-0.4,0.3-0.7c0-0.2-0.1-0.5-0.3-0.6c-0.3-0.2-0.7-0.4-1.1-0.5
	c-0.6-0.1-1.2-0.4-1.7-0.7c-0.4-0.3-0.6-0.7-0.5-1.2c0-0.3,0.1-0.7,0.3-0.9c0.2-0.3,0.5-0.5,0.8-0.6c0.4-0.2,0.8-0.2,1.2-0.2
	s0.8,0.1,1.2,0.2c0.3,0.1,0.6,0.3,0.9,0.4v1.4h-0.9l-0.2-0.8c-0.1-0.1-0.3-0.2-0.5-0.2c-0.2-0.1-0.4-0.1-0.6-0.1
	c-0.3,0-0.6,0.1-0.9,0.3c-0.2,0.1-0.3,0.4-0.3,0.6c0,0.1,0,0.3,0.1,0.4c0.1,0.1,0.2,0.2,0.4,0.3c0.3,0.1,0.5,0.2,0.8,0.3
	c0.7,0.1,1.3,0.4,1.8,0.8c0.3,0.3,0.5,0.7,0.5,1.2s-0.2,1-0.6,1.3C194.4,142.9,193.7,143.1,193,143z"/>
<path class="st5" d="M199.4,143.1c-0.5,0-1.1-0.1-1.5-0.4c-0.4-0.3-0.8-0.7-1-1.1c-0.2-0.5-0.4-1.1-0.3-1.7v-0.3
	c0-0.6,0.1-1.1,0.4-1.6c0.2-0.4,0.6-0.8,1-1.1s0.9-0.4,1.4-0.4s1,0.1,1.4,0.4c0.4,0.2,0.7,0.6,0.9,1c0.2,0.5,0.3,1,0.3,1.5v0.7h-4.1
	l0,0c0,0.4,0.1,0.7,0.2,1.1c0.1,0.3,0.3,0.6,0.6,0.7c0.3,0.2,0.6,0.3,0.9,0.3c0.3,0,0.7,0,1-0.2c0.3-0.1,0.5-0.3,0.8-0.5l0.4,0.8
	c-0.3,0.2-0.6,0.4-0.9,0.6C200.3,143,199.8,143.1,199.4,143.1z M197.8,139.1h2.9v-0.2c0-0.3,0-0.6-0.2-0.8c-0.1-0.2-0.3-0.4-0.5-0.6
	c-0.2-0.2-0.5-0.2-0.8-0.2s-0.5,0.1-0.7,0.2c-0.2,0.2-0.4,0.4-0.5,0.6C197.9,138.5,197.8,138.8,197.8,139.1L197.8,139.1z"/>
<path class="st5" d="M202.7,143v-0.7l1-0.2v-4.5l-1-0.2v-0.7h2l0.1,0.8v0.1c0.2-0.3,0.4-0.6,0.7-0.8s0.6-0.3,0.9-0.3
	c0.1,0,0.2,0,0.4,0l0.3,0.1l-0.2,1.1l-0.8-0.1c-0.3,0-0.5,0-0.8,0.2c-0.2,0.2-0.4,0.4-0.5,0.6v3.6l0.9,0.2v0.7L202.7,143z"/>
<path class="st5" d="M210.4,143.1l-2.2-5.5l-0.7-0.1v-0.7h2.7v0.7l-0.8,0.1l1.4,3.6l0.2,0.5l0,0l0.2-0.5l1.3-3.6l-0.8-0.1v-0.7h2.7
	v0.7l-0.7,0.1l-2.2,5.5H210.4z"/>
<path class="st5" d="M214.8,143.1v-0.7l1-0.2v-4.5l-0.9-0.2v-0.7h2.1l-0.1,5.4l1,0.2v0.7H214.8z M215.8,135.2V134h1.2v1.2H215.8z"/>
<path class="st5" d="M221.6,143.3c-0.5,0-1-0.1-1.5-0.4c-0.4-0.3-0.8-0.7-1-1.1c-0.2-0.5-0.4-1.1-0.3-1.7v-0.2
	c0-0.6,0.1-1.1,0.4-1.6c0.5-1,1.4-1.6,2.5-1.5c0.5,0,0.9,0.1,1.3,0.3c0.4,0.2,0.7,0.4,1,0.7v1.5h-0.9l-0.2-1.1
	c-0.1-0.1-0.3-0.3-0.5-0.3c-0.2-0.1-0.5-0.1-0.7-0.1c-0.3,0-0.6,0.1-0.9,0.3c-0.3,0.2-0.5,0.5-0.6,0.8c-0.2,0.4-0.2,0.7-0.2,1.1v0.2
	c0,0.4,0.1,0.8,0.2,1.2c0.1,0.3,0.3,0.6,0.6,0.8s0.6,0.3,0.9,0.3c0.4,0,0.7-0.1,1-0.3s0.4-0.5,0.5-0.9h1l0,0c0,0.4-0.1,0.7-0.3,1
	s-0.5,0.6-0.8,0.8C222.5,143.1,222,143.3,221.6,143.3z"/>
<path class="st5" d="M228,143.3c-0.5,0-1.1-0.1-1.5-0.4c-0.4-0.3-0.8-0.7-1-1.1c-0.2-0.5-0.4-1.1-0.3-1.7v-0.3
	c0-0.6,0.1-1.1,0.4-1.6c0.2-0.4,0.6-0.8,1-1.1s0.9-0.4,1.4-0.4s1,0.1,1.4,0.4c0.4,0.2,0.7,0.6,0.9,1c0.2,0.5,0.3,1,0.3,1.5v0.7h-4.1
	l0,0c0,0.4,0.1,0.7,0.2,1.1c0.1,0.3,0.3,0.6,0.6,0.7c0.3,0.2,0.6,0.3,0.9,0.3c0.3,0,0.7,0,1-0.2c0.3-0.1,0.5-0.3,0.8-0.5l0.4,0.8
	c-0.3,0.2-0.6,0.4-0.9,0.6C228.9,143.3,228.5,143.3,228,143.3z M226.4,139.4h2.9v-0.2c0-0.3,0-0.6-0.2-0.8c-0.1-0.2-0.3-0.4-0.5-0.6
	c-0.2-0.2-0.5-0.2-0.8-0.2s-0.5,0.1-0.7,0.2c-0.2,0.2-0.4,0.4-0.5,0.6C226.5,138.8,226.4,139.1,226.4,139.4L226.4,139.4z"/>
<path class="st5" d="M320.5,130.2c-0.8,0-1.5-0.2-2.1-0.6c-0.6-0.4-1-0.9-1.3-1.6c-0.3-0.7-0.4-1.5-0.4-2.2v-0.1
	c0-0.8,0.2-1.5,0.5-2.2c0.3-0.6,0.7-1.2,1.3-1.5c0.6-0.4,1.3-0.6,2-0.5c0.5,0,1,0.1,1.5,0.3c0.4,0.2,0.8,0.4,1.2,0.7v1.8h-0.9
	l-0.1-1.4c-0.1-0.1-0.3-0.2-0.4-0.2c-0.2-0.1-0.3-0.2-0.5-0.3c-0.2,0-0.4-0.1-0.6-0.1c-0.5,0-1,0.1-1.4,0.4s-0.7,0.7-0.9,1.2
	c-0.2,0.6-0.3,1.1-0.3,1.7v0.1c0,0.6,0.1,1.2,0.3,1.8c0.2,0.5,0.5,0.9,0.9,1.2s1,0.4,1.5,0.4c0.3,0,0.5,0,0.8-0.1
	c0.2-0.1,0.4-0.1,0.7-0.3l0.1-1.2h0.9v1.8c-0.4,0.2-0.7,0.4-1.2,0.5C321.4,130.1,320.9,130.2,320.5,130.2z"/>
<path class="st5" d="M327,130.3c-1.1,0-2.1-0.6-2.5-1.6c-0.2-0.5-0.3-1.1-0.3-1.7v-0.1c0-0.6,0.1-1.1,0.4-1.7c0.2-0.5,0.6-0.9,1-1.1
	c0.9-0.5,2.1-0.5,3,0c0.4,0.3,0.8,0.7,1,1.1c0.2,0.5,0.3,1.1,0.3,1.7v0.1c0,0.6-0.1,1.1-0.4,1.7c-0.2,0.5-0.6,0.9-1,1.1
	C328.1,130.1,327.6,130.3,327,130.3z M327,129.4c0.3,0,0.7-0.1,0.9-0.3c0.3-0.2,0.5-0.5,0.6-0.8c0.1-0.4,0.2-0.8,0.2-1.2V127
	c0-0.4,0-0.8-0.2-1.2c-0.1-0.3-0.3-0.6-0.6-0.8c-0.6-0.4-1.3-0.4-1.9,0c-0.3,0.2-0.5,0.5-0.6,0.8c-0.1,0.4-0.2,0.8-0.2,1.2v0.1
	c0,0.4,0,0.8,0.2,1.2c0.1,0.3,0.3,0.6,0.6,0.8C326.4,129.3,326.7,129.4,327,129.4z"/>
<path class="st5" d="M330.7,130.2v-0.7l1-0.2v-4.5l-0.9-0.2v-0.7h2l0.1,0.9c0.2-0.3,0.5-0.6,0.8-0.8c0.3-0.2,0.7-0.3,1.1-0.3
	c0.6,0,1.2,0.2,1.6,0.6c0.4,0.5,0.6,1.2,0.5,1.9v3.1l1,0.2v0.7h-3.1v-0.7l1-0.2v-3.1c0-0.4-0.1-0.8-0.3-1.2c-0.3-0.3-0.6-0.4-1-0.4
	c-0.3,0-0.6,0.1-0.9,0.2c-0.3,0.2-0.5,0.4-0.6,0.7v3.7l0.9,0.2v0.7L330.7,130.2z"/>
<path class="st5" d="M340.6,130.4c-0.4,0-0.8-0.1-1.1-0.4c-0.3-0.4-0.5-0.9-0.4-1.3v-3.8h-1V124h1v-1.5h1.2v1.5h1.4v0.9h-1.4v3.8
	c0,0.2,0,0.5,0.2,0.7c0.1,0.1,0.3,0.2,0.5,0.2s0.3,0,0.5,0l0.4-0.1l0.2,0.8c-0.2,0.1-0.4,0.1-0.6,0.1
	C341,130.4,340.8,130.4,340.6,130.4z"/>
<path class="st5" d="M344.7,130.4c-0.5,0-1.1-0.1-1.5-0.5s-0.5-0.9-0.5-1.4c0-0.4,0.1-0.7,0.3-1c0.3-0.3,0.6-0.6,1-0.7
	c0.5-0.2,1-0.3,1.5-0.2h1.1V126c0-0.3-0.1-0.7-0.3-0.9c-0.3-0.2-0.6-0.4-1-0.3c-0.2,0-0.5,0-0.7,0.1s-0.4,0.1-0.5,0.3L344,126h-0.9
	v-1.4c0.3-0.2,0.6-0.4,1-0.5s0.8-0.2,1.3-0.2c0.6,0,1.3,0.2,1.8,0.6c0.4,0.4,0.7,1,0.6,1.6v3c0,0.1,0,0.2,0,0.2c0,0.1,0,0.2,0,0.2
	l0.6,0.1v0.7h-1.7c0-0.2-0.1-0.3-0.1-0.5c0-0.1,0-0.3,0-0.4c-0.2,0.3-0.5,0.5-0.8,0.7S345.1,130.4,344.7,130.4z M344.9,129.4
	c0.4,0,0.7-0.1,1.1-0.3c0.3-0.1,0.5-0.4,0.7-0.7v-1.1h-1.2c-0.4,0-0.9,0.1-1.2,0.4c-0.2,0.2-0.4,0.5-0.4,0.8c0,0.2,0.1,0.5,0.3,0.6
	C344.3,129.4,344.6,129.5,344.9,129.4L344.9,129.4z"/>
<path class="st5" d="M349.2,130.3v-0.7l1-0.2v-4.5l-1-0.2V124h2.1l-0.1,5.4l1,0.2v0.7H349.2z M350.2,122.5v-1.2h1.2v1.2H350.2z"/>
<path class="st5" d="M353,130.4v-0.7l1-0.2V125l-1-0.2v-0.7h2l0.1,0.9c0.2-0.3,0.5-0.6,0.8-0.8c0.3-0.2,0.7-0.3,1.1-0.3
	c0.6,0,1.2,0.2,1.6,0.6c0.4,0.5,0.6,1.2,0.5,1.9v3.1l1,0.2v0.7H357v-0.7l1-0.2v-3.1c0-0.4-0.1-0.8-0.3-1.2c-0.3-0.3-0.6-0.4-1-0.4
	c-0.3,0-0.6,0.1-0.9,0.2c-0.3,0.2-0.5,0.4-0.6,0.7v3.7l1,0.2v0.7L353,130.4z"/>
<path class="st5" d="M363.7,130.6c-0.5,0-1.1-0.1-1.5-0.4c-0.4-0.3-0.8-0.7-1-1.1c-0.2-0.5-0.4-1.1-0.3-1.7v-0.3
	c0-0.6,0.1-1.1,0.4-1.6c0.2-0.4,0.6-0.8,1-1.1c0.4-0.3,0.9-0.4,1.4-0.4s1,0.1,1.4,0.4c0.4,0.2,0.7,0.6,0.9,1c0.2,0.5,0.3,1,0.3,1.5
	v0.7h-4.1l0,0c0,0.4,0.1,0.7,0.2,1.1c0.1,0.3,0.3,0.6,0.6,0.7c0.3,0.2,0.6,0.3,0.9,0.3s0.7,0,1-0.2c0.3-0.1,0.5-0.3,0.8-0.5l0.4,0.8
	c-0.3,0.2-0.6,0.4-0.9,0.6C364.6,130.5,364.2,130.6,363.7,130.6z M362.1,126.7h2.9v-0.2c0-0.3,0-0.6-0.2-0.8
	c-0.1-0.2-0.3-0.4-0.5-0.6s-0.5-0.2-0.8-0.2s-0.5,0.1-0.7,0.2c-0.2,0.2-0.4,0.4-0.5,0.6C362.3,126,362.2,126.3,362.1,126.7
	L362.1,126.7z"/>
<path class="st5" d="M367,130.5v-0.7l1-0.2v-4.5l-1-0.2v-0.7h2l0.1,0.8v0.1c0.2-0.3,0.4-0.6,0.7-0.8c0.3-0.2,0.6-0.3,0.9-0.3h0.4
	l0.3,0.1l-0.2,1.1l-0.8-0.1c-0.3,0-0.5,0-0.8,0.2c-0.2,0.2-0.4,0.4-0.5,0.6v3.6l0.9,0.2v0.7L367,130.5z"/>
<path class="st5" d="M472.4,180.8c-0.8,0-1.5-0.2-2.1-0.6c-0.6-0.4-1-0.9-1.3-1.6c-0.3-0.7-0.4-1.5-0.4-2.2v-0.1
	c0-0.8,0.2-1.5,0.5-2.2c0.3-0.6,0.7-1.1,1.3-1.5c0.6-0.4,1.3-0.6,2-0.6c0.5,0,1,0.1,1.5,0.3c0.4,0.1,0.8,0.4,1.1,0.7v1.8h-0.9
	l-0.1-1.4c-0.1-0.1-0.3-0.2-0.4-0.3c-0.4-0.1-0.8-0.2-1.2-0.2c-0.5,0-1,0.1-1.4,0.4c-0.4,0.3-0.7,0.7-0.9,1.2
	c-0.2,0.6-0.3,1.1-0.3,1.7v0.1c0,0.6,0.1,1.2,0.3,1.8c0.2,0.5,0.5,0.9,0.9,1.2s1,0.4,1.5,0.4c0.3,0,0.5,0,0.8-0.1
	c0.2,0,0.4-0.1,0.7-0.2l0.1-1.2h0.9v1.8c-0.4,0.2-0.7,0.4-1.2,0.4C473.3,180.7,472.8,180.8,472.4,180.8z"/>
<path class="st5" d="M478.9,180.8c-1.1,0-2.1-0.6-2.5-1.6c-0.2-0.5-0.3-1.1-0.3-1.7v-0.1c0-0.6,0.1-1.1,0.4-1.7
	c0.6-1.4,2.3-2,3.6-1.3c0.6,0.3,1.1,0.8,1.4,1.4c0.2,0.5,0.4,1.1,0.3,1.7v0.1c0,0.6-0.1,1.1-0.4,1.7c-0.2,0.5-0.6,0.9-1,1.1
	C479.9,180.7,479.4,180.8,478.9,180.8z M478.9,179.9c0.3,0,0.7-0.1,0.9-0.3c0.3-0.2,0.5-0.5,0.6-0.8c0.1-0.4,0.2-0.8,0.2-1.2v-0.1
	c0-0.4,0-0.8-0.2-1.2c-0.1-0.3-0.3-0.6-0.6-0.8c-0.6-0.4-1.3-0.4-1.9,0c-0.3,0.2-0.5,0.5-0.6,0.8c-0.1,0.4-0.2,0.8-0.2,1.2v0.1
	c0,0.4,0,0.8,0.2,1.2c0.1,0.3,0.3,0.6,0.6,0.8C478.2,179.8,478.6,179.9,478.9,179.9L478.9,179.9z"/>
<path class="st5" d="M482.6,180.7V180l1-0.2v-4.5l-1-0.2v-0.7h2l0.1,0.9c0.2-0.3,0.5-0.6,0.8-0.8c0.9-0.5,1.9-0.3,2.7,0.3
	c0.4,0.5,0.6,1.2,0.5,1.9v3.1l0.9,0.2v0.7h-3.1V180l1-0.2v-3.1c0-0.4-0.1-0.8-0.3-1.2c-0.3-0.3-0.6-0.4-1-0.4
	c-0.3,0-0.6,0.1-0.9,0.2c-0.3,0.2-0.5,0.4-0.6,0.6v3.7l1,0.2v0.7L482.6,180.7z"/>
<path class="st5" d="M492.5,180.9c-0.4,0-0.8-0.1-1.1-0.4c-0.3-0.4-0.5-0.8-0.4-1.3v-3.8h-1v-0.8h1v-1.5h1.1v1.5h1.4v0.8h-1.4v3.8
	c0,0.2,0,0.5,0.2,0.7c0.1,0.1,0.3,0.2,0.5,0.2s0.3,0,0.5,0l0.4-0.1l0.2,0.8c-0.2,0.1-0.4,0.1-0.6,0.1
	C492.9,180.9,492.7,180.9,492.5,180.9z"/>
<path class="st5" d="M496.6,181c-0.5,0-1.1-0.1-1.5-0.5s-0.5-0.9-0.5-1.4c0-0.4,0.1-0.7,0.3-1c0.3-0.3,0.6-0.6,1-0.7
	c0.5-0.2,1-0.2,1.5-0.2h1.1v-0.6c0-0.3-0.1-0.7-0.3-0.9c-0.3-0.2-0.6-0.4-1-0.3c-0.2,0-0.5,0-0.7,0.1s-0.4,0.2-0.5,0.3l-0.1,0.9H495
	v-1.5c0.3-0.2,0.6-0.4,1-0.5s0.8-0.2,1.3-0.2c0.7,0,1.3,0.2,1.8,0.6c0.4,0.4,0.7,1,0.6,1.6v3c0,0.1,0,0.2,0,0.2c0,0.1,0,0.2,0,0.2
	l0.6,0.1v0.7h-1.7c0-0.2-0.1-0.3-0.1-0.5c0-0.1,0-0.3,0-0.4c-0.2,0.3-0.5,0.5-0.8,0.7C497.3,180.9,497,181,496.6,181z M496.7,180
	c0.4,0,0.7-0.1,1.1-0.3c0.3-0.2,0.5-0.4,0.7-0.7v-1.1h-1.2c-0.4,0-0.9,0.1-1.2,0.4c-0.2,0.2-0.4,0.5-0.4,0.8c0,0.2,0.1,0.5,0.3,0.6
	C496.2,179.9,496.5,180,496.7,180L496.7,180z"/>
<path class="st5" d="M501.1,180.9v-0.7l1-0.2v-4.5l-1-0.2v-0.7h2.1l-0.1,5.4l1,0.2v0.7H501.1z M502.1,173v-1.2h1.2v1.2H502.1z"/>
<path class="st5" d="M505,180.9v-0.7l1-0.2v-4.5l-1-0.2v-0.7h2l0.1,0.9c0.2-0.3,0.5-0.6,0.8-0.8c0.9-0.5,1.9-0.3,2.7,0.3
	c0.4,0.5,0.6,1.2,0.5,1.9v3.1l1,0.2v0.7H509v-0.7l1-0.2v-3.1c0-0.4-0.1-0.8-0.3-1.2c-0.3-0.3-0.6-0.4-1-0.4c-0.3,0-0.6,0.1-0.9,0.2
	c-0.3,0.2-0.5,0.4-0.6,0.6v3.7l1,0.2v0.7L505,180.9z"/>
<path class="st5" d="M515.6,181.2c-0.5,0-1.1-0.1-1.5-0.4c-0.4-0.3-0.8-0.7-1-1.1c-0.2-0.5-0.4-1.1-0.3-1.7v-0.3
	c0-0.6,0.1-1.1,0.4-1.6c0.2-0.5,0.6-0.8,1-1.1s0.9-0.4,1.4-0.4s1,0.1,1.4,0.4c0.4,0.2,0.7,0.6,0.9,1c0.2,0.5,0.3,1,0.3,1.5v0.7h-4.1
	l0,0c0,0.4,0.1,0.7,0.2,1.1c0.1,0.3,0.3,0.6,0.6,0.7c0.3,0.2,0.6,0.3,0.9,0.3c0.3,0,0.7,0,1-0.2c0.3-0.1,0.5-0.3,0.8-0.5l0.4,0.8
	c-0.3,0.2-0.6,0.4-0.9,0.5C516.6,181.1,516.1,181.2,515.6,181.2z M514,177.2h2.9v-0.1c0-0.3,0-0.6-0.2-0.8c-0.1-0.2-0.3-0.4-0.5-0.6
	c-0.2-0.2-0.5-0.2-0.8-0.2s-0.5,0.1-0.7,0.2c-0.2,0.2-0.4,0.4-0.5,0.6C514.1,176.6,514,176.9,514,177.2L514,177.2z"/>
<path class="st5" d="M518.9,181.1v-0.7l1-0.2v-4.5l-0.9-0.2v-0.7h2l0.1,0.8v0.1c0.2-0.3,0.4-0.6,0.7-0.8s0.6-0.3,0.9-0.3h0.4
	l0.3,0.1l-0.2,1.1l-0.8-0.1c-0.3,0-0.5,0-0.8,0.2c-0.2,0.2-0.4,0.4-0.5,0.6v3.6l0.9,0.2v0.7L518.9,181.1z"/>
<path class="st5" d="M523.9,181.1v-0.7l1-0.2v-4.5l-1-0.2v-0.7h2.1l-0.1,5.4l1,0.2v0.7H523.9z M524.9,173.2V172h1.2v1.2H524.9z"/>
<path class="st5" d="M527.9,181.2v-0.8l3.5-4.6H529l-0.2,1.1h-0.9v-2h4.8v0.8l-3.5,4.6h2.7l0.2-1.1h0.9v1.9L527.9,181.2z"/>
<path class="st5" d="M536.6,181.4c-0.5,0-1.1-0.1-1.5-0.4c-0.4-0.3-0.8-0.7-1-1.1c-0.2-0.5-0.4-1.1-0.3-1.7v-0.3
	c0-0.6,0.1-1.1,0.4-1.6c0.2-0.5,0.6-0.8,1-1.1s0.9-0.4,1.4-0.4s1,0.1,1.4,0.4c0.4,0.2,0.7,0.6,0.9,1c0.2,0.5,0.3,1,0.3,1.5v0.7h-4.1
	l0,0c0,0.4,0.1,0.7,0.2,1.1c0.1,0.3,0.3,0.6,0.6,0.7c0.3,0.2,0.6,0.3,0.9,0.3c0.3,0,0.7,0,1-0.2c0.3-0.1,0.5-0.3,0.8-0.5l0.4,0.8
	c-0.3,0.2-0.6,0.4-0.9,0.5C537.5,181.3,537.1,181.4,536.6,181.4z M535,177.4h2.9v-0.1c0-0.3,0-0.6-0.2-0.8c-0.1-0.2-0.3-0.4-0.5-0.6
	c-0.2-0.2-0.5-0.2-0.8-0.2s-0.5,0.1-0.7,0.2c-0.2,0.2-0.4,0.4-0.5,0.6C535.1,176.8,535,177.1,535,177.4L535,177.4z"/>
<path class="st5" d="M542.7,181.4c-0.5,0-0.9-0.1-1.3-0.4c-0.4-0.3-0.7-0.6-0.8-1.1c-0.2-0.5-0.3-1.1-0.3-1.6v-0.1
	c0-0.6,0.1-1.2,0.3-1.8c0.2-0.5,0.5-0.9,0.9-1.2s0.9-0.4,1.3-0.4c0.3,0,0.7,0.1,1,0.2c0.3,0.1,0.5,0.4,0.7,0.6V173l-1-0.2v-0.7h2.1
	l-0.1,8.2l1,0.2v0.7h-2l-0.1-0.8c-0.2,0.3-0.5,0.5-0.8,0.7C543.4,181.4,543,181.4,542.7,181.4z M543,180.5c0.3,0,0.6-0.1,0.9-0.2
	c0.2-0.2,0.4-0.4,0.6-0.7v-2.9c-0.1-0.3-0.3-0.5-0.6-0.6c-0.3-0.2-0.6-0.2-0.9-0.2c-0.3,0-0.7,0.1-0.9,0.3c-0.3,0.2-0.4,0.5-0.5,0.9
	s-0.2,0.8-0.2,1.3v0.1c0,0.5,0.1,1.1,0.4,1.5C542,180.3,542.5,180.5,543,180.5z"/>
<path class="st5" d="M491.1,195.3c-0.8,0-1.5-0.2-2.1-0.6c-0.6-0.4-1-0.9-1.3-1.5c-0.3-0.7-0.4-1.5-0.4-2.2v-0.1
	c0-0.8,0.2-1.5,0.5-2.2c0.3-0.6,0.7-1.1,1.3-1.5c0.6-0.4,1.3-0.6,2-0.6c0.5,0,1,0.1,1.5,0.3c0.4,0.1,0.8,0.4,1.1,0.7v1.8h-0.9
	l-0.1-1.4c-0.1-0.1-0.3-0.2-0.4-0.3c-0.4-0.1-0.8-0.2-1.2-0.2c-0.5,0-1,0.1-1.4,0.4c-0.4,0.3-0.7,0.7-0.9,1.2
	c-0.2,0.6-0.3,1.1-0.3,1.7v0.1c0,0.6,0.1,1.2,0.3,1.8c0.2,0.5,0.5,0.9,0.9,1.2s1,0.4,1.5,0.4c0.3,0,0.5,0,0.8-0.1
	c0.2,0,0.5-0.1,0.7-0.2l0.1-1.2h0.9v1.8c-0.4,0.2-0.7,0.4-1.2,0.4C492,195.3,491.6,195.3,491.1,195.3z"/>
<path class="st5" d="M498.7,195.4c-0.8,0-1.5-0.2-2.1-0.6c-0.6-0.4-1-0.9-1.3-1.6c-0.3-0.7-0.4-1.5-0.4-2.2v-0.1
	c0-0.8,0.2-1.5,0.5-2.2c0.3-0.6,0.7-1.1,1.3-1.5c0.6-0.4,1.3-0.6,2-0.6c0.5,0,1,0.1,1.5,0.3c0.4,0.1,0.8,0.4,1.1,0.7v1.8h-0.9
	l-0.1-1.4c-0.1-0.1-0.3-0.2-0.4-0.3c-0.2-0.1-0.3-0.1-0.5-0.2c-0.2,0-0.4,0-0.7,0c-0.5,0-1,0.1-1.4,0.4c-0.4,0.3-0.7,0.7-0.9,1.2
	c-0.2,0.6-0.3,1.1-0.3,1.7v0.1c0,0.6,0.1,1.2,0.3,1.8c0.2,0.5,0.5,0.9,0.9,1.2s1,0.4,1.5,0.4c0.3,0,0.5,0,0.8-0.1
	c0.2,0,0.4-0.1,0.7-0.2l0.1-1.2h0.9v1.8c-0.4,0.2-0.7,0.4-1.1,0.4C499.6,195.4,499.1,195.4,498.7,195.4z"/>
<path class="st5" d="M505.3,195.4v-0.7l0.6-0.1l3.1-7.7h1l2.9,7.7l0.6,0.1v0.7H511v-0.7l0.7-0.1l-0.5-1.6h-3.4l-0.6,1.6l0.6,0.1v0.7
	H505.3z M508,192h2.7l-1.2-3.5l-0.1-0.2l0,0l-0.1,0.2L508,192z"/>
<path class="st5" d="M514.1,197.9v-0.7l0.9-0.2l0.1-7l-1-0.2v-0.7h2l0.1,0.8c0.2-0.3,0.5-0.5,0.8-0.7s0.7-0.2,1.1-0.2
	c0.5,0,1,0.1,1.3,0.4c0.4,0.3,0.7,0.7,0.8,1.2c0.2,0.6,0.3,1.2,0.3,1.8v0.1c0,0.5-0.1,1.1-0.3,1.6c-0.2,0.4-0.5,0.8-0.8,1.1
	c-0.4,0.3-0.9,0.4-1.3,0.4c-0.3,0-0.7-0.1-1-0.2c-0.3-0.1-0.5-0.3-0.7-0.6v2.2l1,0.2v0.7L514.1,197.9z M517.6,194.7
	c0.5,0,1-0.2,1.2-0.6c0.3-0.5,0.5-1,0.4-1.5v-0.1c0-0.4,0-0.9-0.2-1.3c-0.1-0.3-0.3-0.6-0.6-0.9c-0.3-0.2-0.6-0.3-0.9-0.3
	c-0.3,0-0.6,0.1-0.8,0.2c-0.2,0.2-0.4,0.4-0.6,0.6v3.1c0.1,0.2,0.3,0.5,0.6,0.6S517.3,194.7,517.6,194.7z"/>
<path class="st5" d="M521.1,197.9v-0.7l0.9-0.2l0.1-7l-0.9-0.2v-0.7h1.9l0.1,0.8c0.2-0.3,0.5-0.5,0.8-0.7s0.7-0.2,1.1-0.2
	c0.5,0,1,0.1,1.3,0.4c0.4,0.3,0.7,0.7,0.8,1.2c0.2,0.6,0.3,1.2,0.3,1.8v0.1c0,0.5-0.1,1.1-0.3,1.6c-0.2,0.4-0.5,0.8-0.9,1.1
	s-0.9,0.4-1.3,0.4c-0.3,0-0.7-0.1-1-0.2c-0.3-0.1-0.6-0.3-0.7-0.6v2.2l1,0.2v0.7L521.1,197.9z M524.6,194.7c0.5,0,1-0.2,1.2-0.6
	c0.3-0.5,0.5-1,0.4-1.5v-0.1c0-0.4,0-0.9-0.2-1.3c-0.1-0.3-0.3-0.6-0.6-0.9c-0.3-0.2-0.6-0.3-0.9-0.3c-0.3,0-0.6,0.1-0.9,0.2
	c-0.2,0.2-0.4,0.4-0.6,0.6v3.1C523.5,194.4,524,194.8,524.6,194.7L524.6,194.7z"/>
<path class="st5" d="M74.4,127.9c-0.5,0-1-0.1-1.5-0.2c-0.5-0.2-1-0.4-1.4-0.7v-1.8h0.9l0.2,1.3c0.3,0.2,0.5,0.3,0.8,0.4
	s0.7,0.1,1,0.1s0.7,0,1-0.2c0.3-0.1,0.5-0.3,0.6-0.5c0.3-0.4,0.3-1,0-1.4c-0.2-0.2-0.4-0.4-0.6-0.5c-0.4-0.2-0.8-0.3-1.2-0.4
	c-0.5-0.1-1-0.3-1.5-0.6c-0.4-0.2-0.7-0.5-0.9-0.8c-0.2-0.3-0.3-0.7-0.3-1.1s0.1-0.8,0.4-1.2c0.3-0.4,0.6-0.6,1-0.8
	c0.5-0.2,1-0.3,1.5-0.3s1.1,0.1,1.6,0.3c0.4,0.2,0.8,0.4,1.1,0.7v1.7h-0.9l-0.2-1.2c-0.2-0.2-0.4-0.3-0.7-0.4
	c-0.3-0.1-0.7-0.2-1-0.1c-0.3,0-0.6,0-0.9,0.2c-0.2,0.1-0.4,0.3-0.6,0.5c-0.1,0.2-0.2,0.5-0.2,0.7s0.1,0.5,0.2,0.6
	c0.2,0.2,0.4,0.4,0.6,0.5c0.4,0.2,0.8,0.3,1.2,0.4c0.7,0.2,1.4,0.5,2,1c0.4,0.4,0.7,1,0.7,1.6c0,0.4-0.1,0.9-0.4,1.2
	c-0.3,0.4-0.6,0.6-1,0.8C75.5,127.8,74.9,127.9,74.4,127.9z"/>
<path class="st5" d="M81.3,128c-0.5,0-1.1-0.1-1.5-0.4s-0.8-0.7-1-1.1c-0.2-0.5-0.4-1.1-0.3-1.7v-0.3c0-0.6,0.1-1.1,0.4-1.6
	c0.2-0.5,0.6-0.8,1-1.1c0.4-0.3,0.9-0.4,1.4-0.4s1,0.1,1.4,0.4c0.4,0.2,0.7,0.6,0.9,1c0.2,0.5,0.3,1,0.3,1.5v0.7h-4.1l0,0
	c0,0.4,0.1,0.7,0.2,1.1c0.1,0.3,0.3,0.6,0.6,0.7c0.3,0.2,0.6,0.3,0.9,0.3s0.7,0,1-0.2c0.3-0.1,0.5-0.3,0.8-0.5l0.4,0.8
	c-0.3,0.2-0.6,0.4-0.9,0.6C82.2,127.9,81.7,128,81.3,128z M79.6,124h2.9v-0.2c0-0.3,0-0.6-0.2-0.8c-0.1-0.2-0.3-0.4-0.5-0.6
	c-0.2-0.1-0.5-0.2-0.8-0.2s-0.5,0.1-0.7,0.2c-0.2,0.2-0.4,0.4-0.5,0.6C79.8,123.4,79.7,123.7,79.6,124L79.6,124z"/>
<path class="st5" d="M84.6,127.9v-0.7l1-0.2v-4.5l-0.9-0.2v-0.7h2l0.1,0.8v0.1c0.2-0.3,0.4-0.6,0.7-0.8c0.3-0.2,0.6-0.3,0.9-0.3
	c0.1,0,0.3,0,0.4,0l0.3,0.1l-0.2,1.1l-0.8-0.1c-0.3,0-0.5,0-0.8,0.2c-0.2,0.2-0.4,0.4-0.5,0.6v3.6l0.9,0.2v0.7L84.6,127.9z"/>
<path class="st5" d="M92.3,128l-2.2-5.5l-0.6-0.1v-0.7h2.7v0.7l-0.8,0.1l1.4,3.6l0.2,0.5l0,0l0.2-0.5l1.3-3.6l-0.8-0.1v-0.7h2.7v0.7
	l-0.7,0.1l-2.2,5.5H92.3z"/>
<path class="st5" d="M96.7,128v-0.7l1-0.2v-4.5l-1-0.2v-0.7h2.1l-0.1,5.4l1,0.2v0.7L96.7,128z M97.7,120.1v-1.2h1.2v1.2H97.7z"/>
<path class="st5" d="M103.4,128.2c-0.5,0-1-0.1-1.5-0.4c-0.4-0.3-0.8-0.7-1-1.1c-0.2-0.5-0.4-1.1-0.3-1.7v-0.2
	c0-0.6,0.1-1.1,0.4-1.6c0.2-0.5,0.6-0.9,1-1.1c0.5-0.3,1-0.4,1.5-0.4s0.9,0.1,1.3,0.3c0.4,0.2,0.7,0.4,1,0.7v1.5h-0.9l-0.2-1.1
	c-0.1-0.1-0.3-0.3-0.5-0.3c-0.2-0.1-0.5-0.1-0.7-0.1c-0.3,0-0.6,0.1-0.9,0.3c-0.3,0.2-0.5,0.5-0.6,0.8c-0.2,0.4-0.2,0.7-0.2,1.1v0.2
	c0,0.4,0.1,0.8,0.2,1.2c0.1,0.3,0.3,0.6,0.6,0.8c0.3,0.2,0.6,0.3,0.9,0.3c0.4,0,0.7-0.1,1-0.3c0.3-0.2,0.4-0.5,0.5-0.9h1l0,0
	c0,0.8-0.5,1.4-1.2,1.8C104.3,128.1,103.9,128.2,103.4,128.2z"/>
<path class="st5" d="M109.9,128.2c-0.5,0-1.1-0.1-1.5-0.4c-0.4-0.3-0.8-0.7-1-1.1c-0.2-0.5-0.4-1.1-0.3-1.7v-0.3
	c0-0.6,0.1-1.1,0.4-1.6c0.2-0.5,0.6-0.8,1-1.1c0.4-0.3,0.9-0.4,1.4-0.4s1,0.1,1.4,0.4c0.4,0.2,0.7,0.6,0.9,1c0.2,0.5,0.3,1,0.3,1.5
	v0.7h-4.1l0,0c0,0.4,0.1,0.7,0.2,1.1c0.1,0.3,0.3,0.6,0.6,0.7c0.3,0.2,0.6,0.3,0.9,0.3s0.7,0,1-0.2c0.3-0.1,0.5-0.3,0.8-0.5l0.5,0.8
	c-0.3,0.2-0.6,0.4-0.9,0.6C110.8,128.2,110.3,128.3,109.9,128.2z M108.2,124.3h2.9v-0.2c0-0.3,0-0.6-0.2-0.8
	c-0.1-0.2-0.3-0.4-0.5-0.6c-0.2-0.1-0.5-0.2-0.8-0.2s-0.5,0.1-0.7,0.2c-0.2,0.2-0.4,0.4-0.5,0.6C108.4,123.7,108.3,124,108.2,124.3
	L108.2,124.3z"/>
<path class="st6" d="M230.4,46.1h-5.2c-0.7,0-1-0.3-1-1l0.1-8c0-0.7,0.3-1,1-1l10.4,0.1c0.7,0,0.9,0.3,0.9,1l-0.1,8
	c0,0.7-0.3,0.9-1,0.9C233.9,46.2,232.1,46.2,230.4,46.1z"/>
<path class="st6" d="M225.2,35.5c0-2.2,1.3-4.2,3.3-5.1c2.6-1.1,5.7,0.1,6.8,2.7c0.1,0.3,0.2,0.6,0.3,0.9c0.1,0.5,0.2,1,0.3,1.5"/>
<path class="st7" d="M229.6,42.7L229.6,42.7v1.1c0,0.2,0.1,0.3,0.3,0.3h1c0.3,0,0.4-0.1,0.4-0.3v-2c0-0.2,0.1-0.4,0.3-0.5
	c0.7-0.3,1-1.1,0.8-1.8c-0.3-0.7-1-1.2-1.8-1.2c-0.8-0.1-1.6,0.3-2,1.1c-0.3,0.7,0,1.5,0.7,1.9c0.2,0.1,0.4,0.3,0.3,0.6
	C229.6,42.2,229.6,42.4,229.6,42.7z"/>
<path class="st6" d="M525.5,51.6h-5.2c-0.7,0-1-0.3-1-1l0.1-8c0-0.7,0.3-1,1-1l10.4,0.1c0.7,0,1,0.3,1,1l-0.1,8c0,0.7-0.3,0.9-1,0.9
	C529,51.7,527.2,51.6,525.5,51.6z"/>
<path class="st6" d="M520.2,40.9c0-2.2,1.3-4.2,3.3-5.1c2.6-1.1,5.7,0.1,6.8,2.7c0.1,0.3,0.2,0.6,0.3,0.9c0.1,0.5,0.2,1,0.3,1.5"/>
<path class="st7" d="M524.7,48.2L524.7,48.2v1.1c0,0.2,0.1,0.3,0.3,0.3h1c0.3,0,0.4-0.1,0.4-0.3v-2c0-0.2,0.1-0.4,0.3-0.5
	c0.7-0.3,1-1.1,0.8-1.8c-0.3-0.7-1-1.2-1.8-1.2c-0.8-0.1-1.6,0.3-2,1.1c-0.3,0.7,0,1.5,0.7,1.9c0.2,0.1,0.4,0.3,0.3,0.6
	C524.6,47.6,524.7,47.9,524.7,48.2z"/>
<path class="st5" d="M183.4,130.2c-0.8,0-1.5-0.2-2.1-0.6c-0.6-0.4-1-0.9-1.3-1.6s-0.4-1.5-0.4-2.2v-0.1c0-0.8,0.2-1.5,0.5-2.2
	c0.3-0.6,0.7-1.2,1.3-1.5c0.6-0.4,1.3-0.6,2-0.5c0.5,0,1,0.1,1.5,0.3c0.4,0.2,0.8,0.4,1.2,0.7v1.8h-0.9l-0.1-1.4
	c-0.1-0.1-0.3-0.2-0.4-0.2c-0.2-0.1-0.3-0.2-0.5-0.3c-0.2,0-0.4-0.1-0.6-0.1c-0.5,0-1,0.1-1.4,0.4s-0.7,0.7-0.9,1.2
	c-0.2,0.6-0.3,1.1-0.3,1.7v0.1c0,0.6,0.1,1.2,0.3,1.8c0.2,0.5,0.5,0.9,0.9,1.2s1,0.4,1.5,0.4c0.3,0,0.5,0,0.8-0.1
	c0.2-0.1,0.4-0.1,0.7-0.3l0.1-1.2h0.9v1.8c-0.4,0.2-0.7,0.4-1.2,0.5C184.3,130.1,183.8,130.2,183.4,130.2z"/>
<g>
	<g>
		<path class="st8" d="M189.7,129.9c-0.6,0-1.1-0.1-1.5-0.4s-0.8-0.7-1-1.1s-0.3-1-0.3-1.7v-0.1c0-0.6,0.1-1.2,0.3-1.7
			s0.6-0.9,1-1.1s0.9-0.4,1.5-0.4c0.6,0,1.1,0.1,1.5,0.4s0.8,0.7,1,1.1s0.3,1,0.3,1.7v0.1c0,0.6-0.1,1.2-0.3,1.7s-0.6,0.9-1,1.1
			S190.3,129.9,189.7,129.9z M189.7,129c0.4,0,0.7-0.1,0.9-0.3s0.4-0.5,0.6-0.8s0.2-0.7,0.2-1.2v-0.1c0-0.4-0.1-0.8-0.2-1.2
			s-0.3-0.6-0.6-0.8s-0.6-0.3-0.9-0.3c-0.4,0-0.7,0.1-0.9,0.3s-0.4,0.5-0.6,0.8s-0.2,0.7-0.2,1.2v0.1c0,0.4,0.1,0.8,0.2,1.2
			s0.3,0.6,0.6,0.8S189.4,129,189.7,129z"/>
		<path class="st8" d="M193.5,129.8v-0.7l1-0.2v-4.5l-1-0.2v-0.7h2l0.1,0.9c0.2-0.3,0.5-0.6,0.8-0.8s0.7-0.3,1.1-0.3
			c0.7,0,1.2,0.2,1.6,0.6s0.6,1,0.6,1.9v3.1l1,0.2v0.7h-3.1v-0.7l1-0.2v-3.1c0-0.6-0.1-1-0.3-1.2s-0.6-0.4-1-0.4
			c-0.3,0-0.6,0.1-0.9,0.2s-0.5,0.4-0.6,0.7v3.7l1,0.2v0.7H193.5z"/>
		<path class="st8" d="M201.2,129.8v-0.7l1-0.2v-4.6h-1v-0.9h1v-0.7c0-0.7,0.2-1.3,0.6-1.7s1-0.6,1.7-0.6c0.3,0,0.5,0,0.8,0.1
			s0.6,0.2,0.9,0.3l-0.2,0.9c-0.2-0.1-0.4-0.2-0.7-0.2s-0.5-0.1-0.7-0.1c-0.5,0-0.8,0.1-1,0.3s-0.3,0.5-0.3,0.9v0.7h3.6v5.4l1,0.2
			v0.7h-3.1v-0.7l1-0.2v-4.6h-2.5v4.6l1,0.2v0.7H201.2z"/>
		<path class="st8" d="M211.1,129.9c-0.5,0-1-0.1-1.3-0.4s-0.7-0.6-0.8-1.1s-0.3-1-0.3-1.6v-0.1c0-0.7,0.1-1.3,0.3-1.8
			s0.5-0.9,0.8-1.2s0.8-0.4,1.3-0.4c0.4,0,0.7,0.1,1,0.2s0.5,0.3,0.7,0.6v-2.6l-1-0.2v-0.7h1h1.2v8.2l1,0.2v0.7h-2l-0.1-0.8
			c-0.2,0.3-0.5,0.5-0.8,0.7S211.5,129.9,211.1,129.9z M211.4,129c0.3,0,0.6-0.1,0.9-0.2s0.4-0.4,0.6-0.7v-2.9
			c-0.1-0.3-0.3-0.5-0.6-0.6s-0.5-0.2-0.9-0.2c-0.4,0-0.7,0.1-0.9,0.3s-0.4,0.5-0.5,0.9s-0.2,0.8-0.2,1.3v0.1c0,0.6,0.1,1.1,0.4,1.5
			S210.8,129,211.4,129z"/>
		<path class="st8" d="M218.6,129.9c-0.6,0-1.1-0.1-1.5-0.4s-0.8-0.6-1-1.1s-0.4-1-0.4-1.7v-0.3c0-0.6,0.1-1.1,0.4-1.6
			s0.6-0.8,1-1.1s0.9-0.4,1.4-0.4c0.6,0,1,0.1,1.4,0.4s0.7,0.6,0.9,1s0.3,0.9,0.3,1.5v0.7h-4.1l0,0c0,0.4,0.1,0.8,0.2,1.1
			s0.3,0.6,0.6,0.7s0.6,0.3,0.9,0.3c0.4,0,0.7-0.1,1-0.2s0.5-0.3,0.8-0.5l0.5,0.8c-0.2,0.2-0.5,0.4-0.9,0.6S219.1,129.9,218.6,129.9
			z M217,126h2.9v-0.2c0-0.3-0.1-0.6-0.2-0.8s-0.3-0.4-0.5-0.6s-0.5-0.2-0.8-0.2c-0.3,0-0.5,0.1-0.7,0.2s-0.4,0.4-0.5,0.6
			S217,125.6,217,126L217,126z"/>
		<path class="st8" d="M221.9,129.8v-0.7l1-0.2v-4.5l-1-0.2v-0.7h2l0.1,0.9c0.2-0.3,0.5-0.6,0.8-0.8s0.7-0.3,1.1-0.3
			c0.7,0,1.2,0.2,1.6,0.6s0.6,1,0.6,1.9v3.1l1,0.2v0.7h-3.1v-0.7l1-0.2v-3.1c0-0.6-0.1-1-0.3-1.2s-0.6-0.4-1-0.4
			c-0.3,0-0.6,0.1-0.9,0.2s-0.5,0.4-0.6,0.7v3.7l1,0.2v0.7H221.9z"/>
		<path class="st8" d="M232,129.9c-0.5,0-0.8-0.1-1.1-0.4s-0.4-0.7-0.4-1.3v-3.8h-1v-0.9h1v-1.5h1.2v1.5h1.4v0.9h-1.4v3.8
			c0,0.3,0.1,0.5,0.2,0.7s0.3,0.2,0.5,0.2c0.1,0,0.3,0,0.5,0s0.3,0,0.4-0.1l0.2,0.8c-0.2,0.1-0.4,0.1-0.6,0.1S232.3,129.9,232,129.9
			z"/>
		<path class="st8" d="M234,129.8v-0.7l1-0.2v-4.5l-1-0.2v-0.7h2.1v5.4l1,0.2v0.7H234z M234.9,121.9v-1.2h1.2v1.2H234.9z"/>
		<path class="st8" d="M240,129.9c-0.7,0-1.2-0.2-1.5-0.5s-0.5-0.8-0.5-1.4c0-0.4,0.1-0.8,0.3-1.1s0.5-0.5,1-0.7s0.9-0.2,1.5-0.2
			h1.1v-0.6c0-0.4-0.1-0.7-0.3-0.9s-0.6-0.3-1-0.3c-0.3,0-0.5,0-0.7,0.1s-0.4,0.2-0.5,0.3l-0.1,0.9h-0.9V124c0.3-0.2,0.6-0.4,1-0.5
			s0.8-0.2,1.3-0.2c0.8,0,1.4,0.2,1.8,0.6s0.7,0.9,0.7,1.6v3.1c0,0.1,0,0.2,0,0.2s0,0.2,0,0.2l0.6,0.1v0.7H242
			c0-0.2-0.1-0.3-0.1-0.5s0-0.3,0-0.4c-0.2,0.3-0.5,0.5-0.8,0.7S240.3,129.9,240,129.9z M240.1,129c0.4,0,0.7-0.1,1-0.3
			s0.5-0.4,0.7-0.7v-1.1h-1.2c-0.5,0-0.9,0.1-1.2,0.4s-0.4,0.5-0.4,0.8c0,0.3,0.1,0.5,0.3,0.6S239.8,129,240.1,129z"/>
		<path class="st8" d="M244.5,129.8v-0.7l1-0.2v-7.3l-1-0.2v-0.7h2.1v8.2l1,0.2v0.7H244.5z"/>
	</g>
</g>
</svg>
