<svg xmlns="http://www.w3.org/2000/svg" xmlns:xlink="http://www.w3.org/1999/xlink" viewBox="0 0 825.95 236.74"><defs><style>.cls-1{fill:#ffcc03;opacity:0.25;}.cls-10,.cls-17,.cls-2,.cls-3,.cls-4,.cls-5,.cls-6{fill:none;}.cls-2{stroke:#981869;stroke-width:3px;}.cls-14,.cls-15,.cls-2,.cls-3,.cls-4,.cls-5,.cls-6{stroke-miterlimit:10;}.cls-10,.cls-14,.cls-15,.cls-3{stroke:#ffcc03;}.cls-3,.cls-4,.cls-5,.cls-6{stroke-width:4px;}.cls-4,.cls-5,.cls-6{stroke:#518ecb;}.cls-5{stroke-dasharray:2.37 1.58;}.cls-6{stroke-dasharray:2.4 1.6;}.cls-7{fill:#635384;}.cls-8{fill:#fdfeff;}.cls-9{opacity:0.4;}.cls-10,.cls-17{stroke-linecap:round;stroke-linejoin:round;}.cls-10,.cls-14,.cls-15{stroke-width:2px;}.cls-11{fill:url(#Unbenannter_Verlauf_12);}.cls-12{fill:#518ecb;}.cls-13{fill:url(#Unbenannter_Verlauf_12-2);}.cls-14{fill:url(#Unbenannter_Verlauf_12-3);}.cls-15{fill:url(#Unbenannter_Verlauf_12-4);}.cls-16{fill:#32245e;}.cls-17{stroke:#32245e;stroke-width:0.3px;}</style><linearGradient id="Unbenannter_Verlauf_12" x1="64.37" y1="144.87" x2="104.27" y2="144.87" gradientUnits="userSpaceOnUse"><stop offset="0" stop-color="#981869"/><stop offset="0.19" stop-color="#771c65"/><stop offset="0.4" stop-color="#591f62"/><stop offset="0.61" stop-color="#432260"/><stop offset="0.81" stop-color="#36235e"/><stop offset="1" stop-color="#32245e"/></linearGradient><linearGradient id="Unbenannter_Verlauf_12-2" x1="99.94" y1="76.83" x2="124.13" y2="76.83" xlink:href="#Unbenannter_Verlauf_12"/><linearGradient id="Unbenannter_Verlauf_12-3" x1="161.44" y1="137.39" x2="200.04" y2="137.39" xlink:href="#Unbenannter_Verlauf_12"/><linearGradient id="Unbenannter_Verlauf_12-4" x1="149.73" y1="119.38" x2="188.52" y2="119.38" xlink:href="#Unbenannter_Verlauf_12"/></defs><g id="Ebene_2" data-name="Ebene 2"><g id="Ebene_1-2" data-name="Ebene 1"><circle class="cls-1" cx="505.42" cy="130.41" r="36.59" transform="translate(327.81 621.75) rotate(-85.93)"/><circle class="cls-2" cx="505.42" cy="130.41" r="38.35" transform="translate(327.81 621.75) rotate(-85.93)"/><polygon class="cls-3" points="412.01 173.99 412.01 79.71 493.74 32.54 575.42 79.71 575.42 173.99 493.74 221.16 412.01 173.99"/><circle class="cls-1" cx="753.95" cy="130.41" r="36.59" transform="translate(558.72 869.66) rotate(-85.93)"/><circle class="cls-2" cx="753.95" cy="130.41" r="38.35" transform="translate(558.72 869.66) rotate(-85.93)"/><polygon class="cls-3" points="660.54 173.99 660.54 79.71 742.27 32.54 823.95 79.71 823.95 173.99 742.27 221.16 660.54 173.99"/><g id="service"><path class="cls-4" d="M502.57,184.38h2.82" transform="translate(-11.7 -3.56)"/><line class="cls-5" x1="495.56" y1="180.82" x2="742.24" y2="180.82"/><path class="cls-4" d="M754.89,184.38h2.81" transform="translate(-11.7 -3.56)"/><path class="cls-6" d="M759.58,184.38A54.08,54.08,0,0,0,756.3,76.32H504a54.11,54.11,0,0,0-2.35,108.17" transform="translate(-11.7 -3.56)"/></g><circle class="cls-1" cx="114.29" cy="122.46" r="112.79"/><path class="cls-7" d="M35.79,38l-.52-.52.82-1-4.51-4.53-.94,1-.51-.51,1.39-2.15,5.39,5.41,1-.81.52.52Z" transform="translate(-11.7 -3.56)"/><path class="cls-7" d="M41.3,32.89a2.46,2.46,0,0,1-2,.69A3.79,3.79,0,0,1,37,32.22l-1.36-1.49a3.84,3.84,0,0,1-1.15-2.35,2.68,2.68,0,0,1,2.94-2.67,3.82,3.82,0,0,1,2.23,1.36L41,28.57a3.85,3.85,0,0,1,1.15,2.34A2.48,2.48,0,0,1,41.3,32.89Zm-.6-.67a1.37,1.37,0,0,0,.48-1.2,2.92,2.92,0,0,0-.84-1.5l-1.68-1.85a2.89,2.89,0,0,0-1.42-1,1.34,1.34,0,0,0-1.24.38,1.3,1.3,0,0,0-.48,1.19,2.85,2.85,0,0,0,.83,1.5L38,31.62a2.84,2.84,0,0,0,1.43,1A1.34,1.34,0,0,0,40.7,32.22Z" transform="translate(-11.7 -3.56)"/><path class="cls-7" d="M44.39,30l-.77-.91.89-.74.76.9Z" transform="translate(-11.7 -3.56)"/><path class="cls-7" d="M46.42,28.29,46,27.72l.94-.95-4-5-1,.85L41.44,22l1.62-2,4.74,6,1.13-.69.46.58Z" transform="translate(-11.7 -3.56)"/><path class="cls-7" d="M52.53,23.79a2.47,2.47,0,0,1-2.12.45,3.79,3.79,0,0,1-2.06-1.6L47.17,21a3.83,3.83,0,0,1-.88-2.46,2.69,2.69,0,0,1,3.23-2.32,3.8,3.8,0,0,1,2,1.6l1.19,1.64a3.89,3.89,0,0,1,.87,2.46A2.45,2.45,0,0,1,52.53,23.79ZM52,23.05a1.3,1.3,0,0,0,.61-1.13A2.87,2.87,0,0,0,52,20.33l-1.47-2a2.85,2.85,0,0,0-1.3-1.12,1.49,1.49,0,0,0-1.88,1.36A2.85,2.85,0,0,0,48,20.12l1.46,2a2.8,2.8,0,0,0,1.31,1.12A1.32,1.32,0,0,0,52,23.05Z" transform="translate(-11.7 -3.56)"/><path class="cls-7" d="M55.89,21.3l-.65-1,1-.64.65,1Z" transform="translate(-11.7 -3.56)"/><path class="cls-7" d="M58.12,19.82l-.39-.63,1-.83-3.38-5.43-1.12.73L53.88,13l1.84-1.77,4,6.48L61,17.2l.39.62Z" transform="translate(-11.7 -3.56)"/><path class="cls-7" d="M64.68,16.05a2.45,2.45,0,0,1-2.16.21,3.79,3.79,0,0,1-1.86-1.83l-1-1.76a3.9,3.9,0,0,1-.59-2.55,2.47,2.47,0,0,1,1.31-1.73,2.45,2.45,0,0,1,2.16-.21A3.86,3.86,0,0,1,64.41,10l1,1.76A3.82,3.82,0,0,1,66,14.32,2.47,2.47,0,0,1,64.68,16.05Zm-.44-.79A1.33,1.33,0,0,0,65,14.2a2.89,2.89,0,0,0-.47-1.65l-1.22-2.19A2.89,2.89,0,0,0,62.12,9.1a1.36,1.36,0,0,0-1.29.09,1.32,1.32,0,0,0-.74,1.05,2.9,2.9,0,0,0,.47,1.65l1.22,2.18A2.78,2.78,0,0,0,63,15.33,1.32,1.32,0,0,0,64.24,15.26Z" transform="translate(-11.7 -3.56)"/><path class="cls-7" d="M68.33,14l-.54-1.06,1-.52.54,1.05Z" transform="translate(-11.7 -3.56)"/><path class="cls-7" d="M72.91,11.84a3.24,3.24,0,0,1-1.38.33,2.21,2.21,0,0,1-1.2-.34,2.08,2.08,0,0,1-.82-1v0l1-.46A1.51,1.51,0,0,0,71,11a1.27,1.27,0,0,0,.69.23,1.88,1.88,0,0,0,1.7-1,1.57,1.57,0,0,0-.12-1.25,1.57,1.57,0,0,0-.82-.9,1.62,1.62,0,0,0-1.22.15l-.91.42L70,7.79l.91-.43a1.66,1.66,0,0,0,.67-.5,1,1,0,0,0,.2-.64,2.2,2.2,0,0,0-.2-.77,1.56,1.56,0,0,0-.8-.85,1.42,1.42,0,0,0-1.14.1,1.67,1.67,0,0,0-.63.49,1.33,1.33,0,0,0-.26.68,1.54,1.54,0,0,0,.15.77l-1,.47,0,0a2.06,2.06,0,0,1-.21-1.19,2.37,2.37,0,0,1,.48-1.15,3,3,0,0,1,1.12-.86,2.77,2.77,0,0,1,2-.23A2.31,2.31,0,0,1,72.58,5,2,2,0,0,1,72.2,7.2a1.92,1.92,0,0,1,1.32.26,2.35,2.35,0,0,1,.8,1,2.51,2.51,0,0,1,.25,1.36A2.23,2.23,0,0,1,74.06,11,3.1,3.1,0,0,1,72.91,11.84Z" transform="translate(-11.7 -3.56)"/><circle class="cls-2" cx="114.29" cy="122.46" r="112.79"/><polygon class="cls-8" points="84.19 112.57 56.39 128.72 56.39 161.02 84.19 177.17 112.25 161.02 112.25 128.72 84.19 112.57"/><g class="cls-9"><polygon class="cls-10" points="112.25 161.02 84.19 177.17 56.39 161.02 84.19 144.87 112.25 161.02"/><polygon class="cls-10" points="112.25 128.72 112.25 161.02 84.19 144.87 84.19 112.57 112.25 128.72"/><polygon class="cls-10" points="84.19 112.57 84.19 144.87 56.39 161.02 56.39 128.72 84.19 112.57"/></g><polygon class="cls-11" points="84.41 121.8 64.37 133.34 64.37 156.4 84.41 167.93 104.27 156.4 104.27 133.34 84.41 121.8"/><circle class="cls-12" cx="84.45" cy="144.87" r="11.46"/><polygon class="cls-10" points="56.39 128.72 84.45 112.57 112.25 128.72 84.45 144.87 56.39 128.72"/><polygon class="cls-10" points="56.39 161.02 56.39 128.72 84.45 144.87 84.45 177.17 56.39 161.02"/><polygon class="cls-10" points="84.45 177.17 84.45 144.87 112.25 128.72 112.25 161.02 84.45 177.17"/><polygon class="cls-8" points="111.96 57.25 95.1 67.04 95.1 86.63 111.96 96.42 128.97 86.63 128.97 67.04 111.96 57.25"/><g class="cls-9"><polygon class="cls-10" points="128.97 86.63 111.96 96.42 95.1 86.63 111.96 76.83 128.97 86.63"/><polygon class="cls-10" points="128.97 67.04 128.97 86.63 111.96 76.83 111.96 57.25 128.97 67.04"/><polygon class="cls-10" points="111.96 57.25 111.96 76.83 95.1 86.63 95.1 67.04 111.96 57.25"/></g><polygon class="cls-13" points="112.09 62.85 99.94 69.84 99.94 83.83 112.09 90.82 124.13 83.83 124.13 69.84 112.09 62.85"/><circle class="cls-12" cx="112.12" cy="76.83" r="6.95"/><polygon class="cls-10" points="95.1 67.04 112.12 57.25 128.97 67.04 112.12 76.83 95.1 67.04"/><polygon class="cls-10" points="95.1 86.63 95.1 67.04 112.12 76.83 112.12 96.42 95.1 86.63"/><polygon class="cls-10" points="112.12 96.42 112.12 76.83 128.97 67.04 128.97 86.63 112.12 96.42"/><path class="cls-14" d="M200,142.14h0V122.75h-38.6v19.39h0v.37h0c.36,5.3,9,9.51,19.21,9.51,10.43,0,18.84-4.21,19.21-9.51h0v-.37Z" transform="translate(-11.7 -3.56)"/><ellipse class="cls-15" cx="169.13" cy="119.38" rx="19.39" ry="9.88"/><g id="service-2" data-name="service"><path class="cls-4" d="M122,181.93l.26-.56.27-.55" transform="translate(-11.7 -3.56)"/><line class="cls-5" x1="111.21" y1="176.53" x2="157.81" y2="79.62"/><path class="cls-4" d="M169.69,82.81l.27-.55.26-.56" transform="translate(-11.7 -3.56)"/><path class="cls-6" d="M170.58,81c4.27-11.61-5.66-27.29-23.05-35.65-18-8.67-37.3-6.19-42.93,5.52L56.94,150c-5.63,11.7,4.47,28.31,22.49,37,17.6,8.47,36.28,6.33,42.49-4.59" transform="translate(-11.7 -3.56)"/></g><path class="cls-16" d="M64.76,109.12l-.66-.33.28-.93-6-3-.87,1.73,1,.68-.39.78-1.84-.92,3.17-6.34,1.84.92-.38.76-1.14-.37-.87,1.73,6.05,3,.57-.78.66.33Z" transform="translate(-11.7 -3.56)"/><path class="cls-16" d="M67.5,103.63l-.66-.33.28-.93-6-3-.57.78-.67-.33L60.3,99l.51-1,.43-.85.67.33-.28.93,6,3L69,98.65l-1.14-.72.39-.8,2,1Z" transform="translate(-11.7 -3.56)"/><path class="cls-16" d="M72.16,94.59A4.88,4.88,0,0,1,70,96.75l-1.63-.82.4-.8,1.29.43a3.43,3.43,0,0,0,.69-.58,3.12,3.12,0,0,0,.54-.8,2.47,2.47,0,0,0,.29-1,1.45,1.45,0,0,0-.17-.78,1.23,1.23,0,0,0-.56-.52,1.2,1.2,0,0,0-.7-.14,1.51,1.51,0,0,0-.75.32,5,5,0,0,0-.88.87A5.69,5.69,0,0,1,67.41,94a2.51,2.51,0,0,1-1.16.45,2,2,0,0,1-1.14-.22,2.08,2.08,0,0,1-.91-.85,2.36,2.36,0,0,1-.3-1.25,3.27,3.27,0,0,1,.38-1.46,4.37,4.37,0,0,1,1-1.29,4.28,4.28,0,0,1,1.1-.73l1.53.77-.4.8-1.18-.37a2.07,2.07,0,0,0-.61.43,2.88,2.88,0,0,0-.56.8,2.05,2.05,0,0,0-.23.86,1.42,1.42,0,0,0,.17.74,1.21,1.21,0,0,0,.56.51,1.11,1.11,0,0,0,.66.12A1.48,1.48,0,0,0,67,93a6.7,6.7,0,0,0,.87-.85,4.45,4.45,0,0,1,1.79-1.39,2.23,2.23,0,0,1,2.68,1A2.54,2.54,0,0,1,72.6,93,4,4,0,0,1,72.16,94.59Z" transform="translate(-11.7 -3.56)"/><path class="cls-16" d="M592.88,59.82v-.74l1-.17V52.16h-1.93l-.17,1.18h-.87V51.28H598v2.06h-.86l-.17-1.18H595v6.75l1,.17v.74Z" transform="translate(-11.7 -3.56)"/><path class="cls-16" d="M599,59.82v-.74l1-.17V52.19L599,52v-.75h3.06V52l-1,.16v6.74h3l.13-1.35h.89v2.24Z" transform="translate(-11.7 -3.56)"/><path class="cls-16" d="M609.19,59.94a5,5,0,0,1-1.5-.23,4.86,4.86,0,0,1-1.38-.7V57.18h.89l.2,1.35a3.78,3.78,0,0,0,.82.36,3.35,3.35,0,0,0,1,.13,2.43,2.43,0,0,0,1-.18,1.4,1.4,0,0,0,.62-.49,1.26,1.26,0,0,0,.22-.74,1.21,1.21,0,0,0-.19-.69,1.51,1.51,0,0,0-.62-.53A4.82,4.82,0,0,0,609,56a5.73,5.73,0,0,1-1.49-.55,2.67,2.67,0,0,1-.92-.83,2,2,0,0,1-.31-1.13,2.13,2.13,0,0,1,.35-1.19,2.45,2.45,0,0,1,1-.83,3.29,3.29,0,0,1,1.48-.31,4.29,4.29,0,0,1,1.58.27,4.39,4.39,0,0,1,1.14.66V53.8H611l-.19-1.22a2.29,2.29,0,0,0-.66-.35,2.73,2.73,0,0,0-1-.14,2,2,0,0,0-.87.17,1.46,1.46,0,0,0-.58.48,1.22,1.22,0,0,0-.22.74,1.15,1.15,0,0,0,.19.64,1.54,1.54,0,0,0,.63.48,5.85,5.85,0,0,0,1.15.39,4.63,4.63,0,0,1,2,1,2.14,2.14,0,0,1,.69,1.62,2,2,0,0,1-.37,1.21,2.42,2.42,0,0,1-1,.83A3.79,3.79,0,0,1,609.19,59.94Z" transform="translate(-11.7 -3.56)"/><line class="cls-17" x1="108.14" y1="80.62" x2="87.97" y2="132.72"/><line class="cls-17" x1="720.21" y1="129.26" x2="514.03" y2="129.26"/><path class="cls-16" d="M488.86,126.43a2.65,2.65,0,0,1-2.49-1.51,3.79,3.79,0,0,1-.35-1.66V123a3.7,3.7,0,0,1,.34-1.62,2.66,2.66,0,0,1,2.5-1.55,3.35,3.35,0,0,1,1.35.26,2.61,2.61,0,0,1,1,.69l0,1.52h-.91l-.19-1.11a1.59,1.59,0,0,0-.5-.32,1.73,1.73,0,0,0-.71-.13,1.39,1.39,0,0,0-.9.31,2,2,0,0,0-.61.81,3,3,0,0,0-.21,1.14v.24a3.16,3.16,0,0,0,.2,1.21,1.68,1.68,0,0,0,.58.78,1.44,1.44,0,0,0,.9.28,1.49,1.49,0,0,0,1-.32,1.34,1.34,0,0,0,.47-.89h1v0a2.11,2.11,0,0,1-.32,1,2,2,0,0,1-.83.76A2.76,2.76,0,0,1,488.86,126.43Z" transform="translate(-11.7 -3.56)"/><path class="cls-16" d="M492.19,126.31v-.74l1-.16v-7.33l-1-.17v-.74h2.11v8.24l1,.16v.74Z" transform="translate(-11.7 -3.56)"/><path class="cls-16" d="M496,126.31v-.74l1-.16v-4.53l-1-.16V120h2.11v5.44l1,.16v.74Zm.9-7.9v-1.24h1.21v1.24Z" transform="translate(-11.7 -3.56)"/><path class="cls-16" d="M502.78,126.43a2.8,2.8,0,0,1-1.52-.4,2.65,2.65,0,0,1-1-1.11,3.65,3.65,0,0,1-.35-1.66V123a3.42,3.42,0,0,1,.37-1.62,3,3,0,0,1,1-1.12,2.34,2.34,0,0,1,1.35-.42,2.64,2.64,0,0,1,1.43.36,2.13,2.13,0,0,1,.87,1,3.52,3.52,0,0,1,.29,1.5v.72h-4.11l0,0a2.77,2.77,0,0,0,.22,1.08,1.66,1.66,0,0,0,.58.74,1.53,1.53,0,0,0,.91.27,2.68,2.68,0,0,0,1-.17,2.29,2.29,0,0,0,.77-.46l.45.75a2.82,2.82,0,0,1-.9.56A3.6,3.6,0,0,1,502.78,126.43Zm-1.65-3.92h2.92v-.15a1.94,1.94,0,0,0-.16-.82,1.34,1.34,0,0,0-.48-.57,1.42,1.42,0,0,0-.8-.21,1.17,1.17,0,0,0-.7.23,1.76,1.76,0,0,0-.53.61,2.93,2.93,0,0,0-.27.88Z" transform="translate(-11.7 -3.56)"/><path class="cls-16" d="M506.1,126.31v-.74l1-.16v-4.53l-1-.16V120h2l.08.94a2.45,2.45,0,0,1,.79-.78,2.18,2.18,0,0,1,1.09-.28,2.09,2.09,0,0,1,1.59.6,2.67,2.67,0,0,1,.56,1.86v3.1l1,.16v.74h-3.07v-.74l1-.16v-3.08a1.73,1.73,0,0,0-.33-1.19,1.37,1.37,0,0,0-1-.35,1.64,1.64,0,0,0-.88.24,1.77,1.77,0,0,0-.61.66v3.72l1,.16v.74Z" transform="translate(-11.7 -3.56)"/><path class="cls-16" d="M516,126.41a1.52,1.52,0,0,1-1.11-.41,1.8,1.8,0,0,1-.41-1.32v-3.85h-1V120h1v-1.53h1.15V120H517v.86H515.6v3.85a1,1,0,0,0,.18.67.61.61,0,0,0,.49.22,3.93,3.93,0,0,0,.45,0l.4-.07.16.76a5.51,5.51,0,0,1-.62.13A4.29,4.29,0,0,1,516,126.41Z" transform="translate(-11.7 -3.56)"/><path class="cls-16" d="M488.86,140.83a2.65,2.65,0,0,1-2.49-1.51,3.79,3.79,0,0,1-.35-1.66v-.24a3.7,3.7,0,0,1,.34-1.62,2.66,2.66,0,0,1,2.5-1.55,3.35,3.35,0,0,1,1.35.26,2.61,2.61,0,0,1,1,.69l0,1.52h-.91l-.19-1.11a1.59,1.59,0,0,0-.5-.32,1.73,1.73,0,0,0-.71-.13,1.39,1.39,0,0,0-.9.31,2,2,0,0,0-.61.81,3,3,0,0,0-.21,1.14v.24a3.16,3.16,0,0,0,.2,1.21,1.68,1.68,0,0,0,.58.78,1.44,1.44,0,0,0,.9.28,1.49,1.49,0,0,0,1-.32,1.34,1.34,0,0,0,.47-.88h1v0a2.11,2.11,0,0,1-.32,1,2,2,0,0,1-.83.76A2.76,2.76,0,0,1,488.86,140.83Z" transform="translate(-11.7 -3.56)"/><path class="cls-16" d="M495.28,140.83a2.8,2.8,0,0,1-1.52-.4,2.65,2.65,0,0,1-1-1.11,3.65,3.65,0,0,1-.35-1.66v-.25a3.45,3.45,0,0,1,.37-1.62,3,3,0,0,1,1-1.12,2.34,2.34,0,0,1,1.35-.42,2.64,2.64,0,0,1,1.43.36,2.13,2.13,0,0,1,.87,1,3.52,3.52,0,0,1,.29,1.5v.72h-4.11l0,0a2.77,2.77,0,0,0,.22,1.08,1.66,1.66,0,0,0,.58.74,1.53,1.53,0,0,0,.91.27,2.9,2.9,0,0,0,1-.16,2.67,2.67,0,0,0,.77-.46l.45.75a3,3,0,0,1-.9.55A3.6,3.6,0,0,1,495.28,140.83Zm-1.65-3.92h2.92v-.15a1.94,1.94,0,0,0-.16-.82,1.34,1.34,0,0,0-.48-.57,1.42,1.42,0,0,0-.8-.21,1.17,1.17,0,0,0-.7.23,1.76,1.76,0,0,0-.53.61,2.93,2.93,0,0,0-.27.88Z" transform="translate(-11.7 -3.56)"/><path class="cls-16" d="M498.59,140.71V140l1-.16v-4.53l-1-.16v-.75h2l.1.81v.11a2.24,2.24,0,0,1,.66-.76,1.6,1.6,0,0,1,.91-.28,2.46,2.46,0,0,1,.37,0l.27.06-.15,1.07-.8,0a1.1,1.1,0,0,0-.77.21,1.49,1.49,0,0,0-.48.64v3.59l.95.16v.74Z" transform="translate(-11.7 -3.56)"/><path class="cls-16" d="M506,140.81a1.54,1.54,0,0,1-1.12-.41,1.85,1.85,0,0,1-.41-1.32v-3.85h-1v-.86h1v-1.53h1.16v1.53H507v.86h-1.37v3.85a1,1,0,0,0,.18.67.61.61,0,0,0,.48.22,4.09,4.09,0,0,0,.46,0l.39-.07.16.76a5.07,5.07,0,0,1-.62.13A4.18,4.18,0,0,1,506,140.81Z" transform="translate(-11.7 -3.56)"/><path class="cls-16" d="M737.07,128a5.66,5.66,0,0,1-1.2-.13,7.48,7.48,0,0,1-1.18-.4V126h.87l.22.91a3.5,3.5,0,0,0,.63.2,3.55,3.55,0,0,0,.67.06,1.48,1.48,0,0,0,1-.27.84.84,0,0,0,.31-.67.78.78,0,0,0-.31-.63,2.75,2.75,0,0,0-1.11-.45,4.14,4.14,0,0,1-1.69-.7,1.44,1.44,0,0,1-.55-1.18,1.54,1.54,0,0,1,.3-.93,2.08,2.08,0,0,1,.83-.64,3,3,0,0,1,1.25-.24,4,4,0,0,1,1.23.16,3.22,3.22,0,0,1,.89.44l.06,1.45h-.87l-.18-.85a1.48,1.48,0,0,0-.49-.23,2.49,2.49,0,0,0-.64-.08,1.43,1.43,0,0,0-.88.25.78.78,0,0,0-.34.63.81.81,0,0,0,.1.39.83.83,0,0,0,.37.3,6,6,0,0,0,.81.26,4.18,4.18,0,0,1,1.85.79,1.53,1.53,0,0,1,.52,1.18,1.75,1.75,0,0,1-.59,1.35A2.73,2.73,0,0,1,737.07,128Z" transform="translate(-11.7 -3.56)"/><path class="cls-16" d="M743.38,128a2.9,2.9,0,0,1-1.53-.4,2.68,2.68,0,0,1-1-1.12,3.77,3.77,0,0,1-.35-1.65v-.26a3.38,3.38,0,0,1,.37-1.61,3,3,0,0,1,1-1.13,2.33,2.33,0,0,1,1.35-.41,2.64,2.64,0,0,1,1.43.35,2.1,2.1,0,0,1,.87,1,3.45,3.45,0,0,1,.3,1.49V125h-4.12v0a2.77,2.77,0,0,0,.21,1.08,1.77,1.77,0,0,0,.58.75,1.56,1.56,0,0,0,.92.26,3,3,0,0,0,1-.16,2.41,2.41,0,0,0,.76-.46l.45.75a2.6,2.6,0,0,1-.9.55A3.57,3.57,0,0,1,743.38,128Zm-1.66-3.93h2.92v-.15a1.94,1.94,0,0,0-.16-.82,1.34,1.34,0,0,0-.48-.57,1.42,1.42,0,0,0-.8-.2,1.16,1.16,0,0,0-.7.22,1.73,1.73,0,0,0-.52.61,2.45,2.45,0,0,0-.27.88Z" transform="translate(-11.7 -3.56)"/><path class="cls-16" d="M746.68,127.88v-.73l1-.17v-4.53l-1-.16v-.75h2l.1.81v.11a2.26,2.26,0,0,1,.67-.76,1.54,1.54,0,0,1,.9-.27,2.31,2.31,0,0,1,.37,0l.27.06-.15,1.07-.8,0a1.16,1.16,0,0,0-.77.2,1.66,1.66,0,0,0-.48.64V127l1,.17v.73Z" transform="translate(-11.7 -3.56)"/><path class="cls-16" d="M754.43,127.88l-2.25-5.5-.66-.09v-.75h2.66v.75l-.82.12,1.4,3.61.17.5h0l.19-.5,1.31-3.61-.85-.12v-.75h2.65v.75l-.67.09-2.14,5.5Z" transform="translate(-11.7 -3.56)"/><path class="cls-16" d="M761.61,128a3,3,0,0,1-1.53-.4,2.65,2.65,0,0,1-1-1.12,3.64,3.64,0,0,1-.36-1.65v-.26a3.39,3.39,0,0,1,.38-1.61,2.87,2.87,0,0,1,1-1.13,2.33,2.33,0,0,1,1.35-.41,2.66,2.66,0,0,1,1.43.35,2.22,2.22,0,0,1,.87,1,3.6,3.6,0,0,1,.29,1.49V125h-4.11l0,0a3,3,0,0,0,.21,1.08,1.71,1.71,0,0,0,.59.75,1.52,1.52,0,0,0,.91.26,2.93,2.93,0,0,0,1-.16,2.46,2.46,0,0,0,.77-.46l.45.75a2.81,2.81,0,0,1-.9.55A3.63,3.63,0,0,1,761.61,128ZM760,124.08h2.93v-.15a2.1,2.1,0,0,0-.16-.82,1.34,1.34,0,0,0-.48-.57,1.44,1.44,0,0,0-.8-.2,1.19,1.19,0,0,0-.71.22,1.83,1.83,0,0,0-.52.61,2.67,2.67,0,0,0-.27.88Z" transform="translate(-11.7 -3.56)"/><path class="cls-16" d="M764.92,127.88v-.73l1-.17v-4.53l-1-.16v-.75h2l.1.81v.11a2.37,2.37,0,0,1,.67-.76,1.54,1.54,0,0,1,.9-.27,2.43,2.43,0,0,1,.38,0l.27.06-.15,1.07-.81,0a1.12,1.12,0,0,0-.76.2,1.49,1.49,0,0,0-.48.64V127l1,.17v.73Z" transform="translate(-11.7 -3.56)"/><path class="cls-16" d="M736.39,142.41a2.85,2.85,0,0,1-1.5-.4,2.63,2.63,0,0,1-1-1.12,3.77,3.77,0,0,1-.35-1.65V139a3.7,3.7,0,0,1,.34-1.62,2.69,2.69,0,0,1,1-1.13,2.76,2.76,0,0,1,1.52-.41,3.35,3.35,0,0,1,1.35.25,2.81,2.81,0,0,1,1,.69l0,1.52h-.9l-.2-1.1a1.37,1.37,0,0,0-.5-.33,1.83,1.83,0,0,0-.7-.12,1.44,1.44,0,0,0-.9.3,2,2,0,0,0-.61.81,3,3,0,0,0-.22,1.14v.25a3.14,3.14,0,0,0,.21,1.2,1.69,1.69,0,0,0,.58.79,1.5,1.5,0,0,0,.89.28,1.45,1.45,0,0,0,1-.33,1.41,1.41,0,0,0,.47-.88h1v0a2.15,2.15,0,0,1-.32,1,2.24,2.24,0,0,1-.84.77A2.81,2.81,0,0,1,736.39,142.41Z" transform="translate(-11.7 -3.56)"/><path class="cls-16" d="M742.81,142.41a3,3,0,0,1-1.53-.4,2.65,2.65,0,0,1-1-1.12,3.64,3.64,0,0,1-.36-1.65V139a3.39,3.39,0,0,1,.38-1.61,2.87,2.87,0,0,1,1-1.13,2.41,2.41,0,0,1,1.35-.41,2.66,2.66,0,0,1,1.43.35,2.22,2.22,0,0,1,.87,1,3.6,3.6,0,0,1,.29,1.49v.72h-4.11l0,0a2.77,2.77,0,0,0,.22,1.08,1.62,1.62,0,0,0,.58.75,1.53,1.53,0,0,0,.91.27,2.92,2.92,0,0,0,1-.17,2.46,2.46,0,0,0,.77-.46l.45.75a2.81,2.81,0,0,1-.9.55A3.63,3.63,0,0,1,742.81,142.41Zm-1.66-3.93h2.93v-.15a2.1,2.1,0,0,0-.16-.82,1.34,1.34,0,0,0-.48-.57,1.53,1.53,0,0,0-.8-.2,1.19,1.19,0,0,0-.71.22,1.83,1.83,0,0,0-.52.61,2.93,2.93,0,0,0-.27.88Z" transform="translate(-11.7 -3.56)"/><path class="cls-16" d="M746.12,142.28v-.73l1-.17v-4.53l-1-.16v-.75h2l.1.81v.11a2.37,2.37,0,0,1,.67-.76,1.56,1.56,0,0,1,.9-.27,2.43,2.43,0,0,1,.38,0l.27.06-.15,1.07-.81,0a1.12,1.12,0,0,0-.76.2,1.49,1.49,0,0,0-.48.64v3.59l.95.17v.73Z" transform="translate(-11.7 -3.56)"/><path class="cls-16" d="M753.56,142.38a1.5,1.5,0,0,1-1.12-.41,1.81,1.81,0,0,1-.41-1.32V136.8h-1v-.86h1v-1.52h1.15v1.52h1.38v.86h-1.38v3.85a1,1,0,0,0,.18.67.61.61,0,0,0,.49.22,2.6,2.6,0,0,0,.46,0,3.62,3.62,0,0,0,.39-.07l.16.76a4.89,4.89,0,0,1-.62.14A5.59,5.59,0,0,1,753.56,142.38Z" transform="translate(-11.7 -3.56)"/></g></g></svg>