<svg id="Ebene_1" data-name="Ebene 1" xmlns="http://www.w3.org/2000/svg" xmlns:xlink="http://www.w3.org/1999/xlink" viewBox="0 0 1361 936"><defs><style>.cls-1,.cls-18,.cls-19,.cls-21,.cls-27,.cls-3{fill:none;}.cls-1{stroke:#fc0;}.cls-1,.cls-19,.cls-21,.cls-26,.cls-27,.cls-3{stroke-linecap:round;}.cls-1,.cls-14,.cls-15,.cls-17,.cls-18,.cls-19{stroke-miterlimit:10;}.cls-1,.cls-14,.cls-15,.cls-17,.cls-18,.cls-19,.cls-21,.cls-26,.cls-27,.cls-3{stroke-width:6px;}.cls-16,.cls-2,.cls-20,.cls-28,.cls-29,.cls-5{font-size:30px;}.cls-2,.cls-9{fill:#33245e;}.cls-16,.cls-2,.cls-20,.cls-28,.cls-5{font-family:RobotoSlab-Bold, Roboto Slab;font-weight:700;}.cls-14,.cls-15,.cls-17,.cls-18,.cls-19,.cls-3{stroke:#f63;}.cls-21,.cls-26,.cls-27,.cls-3{stroke-linejoin:round;}.cls-4{fill:#e6e6e6;}.cls-5{fill:#f63;}.cls-6{letter-spacing:-0.01em;}.cls-7{letter-spacing:-0.04em;}.cls-8{letter-spacing:0.01em;}.cls-10{letter-spacing:-0.01em;}.cls-11{letter-spacing:0.01em;}.cls-12{letter-spacing:-0.01em;}.cls-13{letter-spacing:-0.01em;}.cls-14{fill:url(#Unbenannter_Verlauf_12_Kopie);}.cls-15{fill:url(#Unbenannter_Verlauf_12_Kopie-2);}.cls-16{fill:#fc0;}.cls-17,.cls-22,.cls-26,.cls-28,.cls-29{fill:#fff;}.cls-20,.cls-21{opacity:0.75;}.cls-20{fill:#306;}.cls-21{stroke:#306;}.cls-23{fill:#39f;}.cls-24{fill:#ffcb03;}.cls-25{letter-spacing:0em;}.cls-26,.cls-27{stroke:#ffcb03;}.cls-29{font-family:RobotoSlab-Regular, Roboto Slab;}.cls-30{letter-spacing:0.02em;}</style><linearGradient id="Unbenannter_Verlauf_12_Kopie" x1="80" y1="218.5" x2="498" y2="218.5" gradientUnits="userSpaceOnUse"><stop offset="0" stop-color="#906"/><stop offset="0.19" stop-color="#780066"/><stop offset="0.4" stop-color="#5a0066"/><stop offset="0.61" stop-color="#406"/><stop offset="0.81" stop-color="#370066"/><stop offset="1" stop-color="#306"/></linearGradient><linearGradient id="Unbenannter_Verlauf_12_Kopie-2" x1="869" x2="1287" xlink:href="#Unbenannter_Verlauf_12_Kopie"/></defs><title>Protecting attested</title><polyline class="cls-1" points="1205.47 79.5 1205.47 149 1177.52 149 1177.52 79.5"/><rect class="cls-1" x="1156.74" y="309.28" width="69.5" height="27.95" transform="translate(868.24 1514.74) rotate(-90)"/><polyline class="cls-1" points="183.47 79.5 183.47 149 155.52 149 155.52 79.5"/><rect class="cls-1" x="134.74" y="309.28" width="69.5" height="27.95" transform="translate(-153.76 492.74) rotate(-90)"/><text class="cls-2" transform="translate(145.43 410.18)">file</text><path class="cls-3" d="M230,358.35H84a5,5,0,0,0-5,5v94.2a5,5,0,0,0,5,5H260a5,5,0,0,0,5-5V391"/><polygon class="cls-3" points="265 391 230 391 230 358.35 265 391"/><rect class="cls-4" x="44" y="614.9" width="1279" height="287.1" rx="10"/><text class="cls-5" transform="translate(166 682.18)">SGX: is<tspan class="cls-6" x="98.2" y="0">o</tspan><tspan x="114.73" y="0">l</tspan><tspan class="cls-7" x="124.29" y="0">a</tspan><tspan x="139.6" y="0">tes se</tspan><tspan class="cls-8" x="220.99" y="0">r</tspan><tspan x="233.88" y="0">vices</tspan><tspan class="cls-9"><tspan x="0" y="83">SCONE: is</tspan><tspan class="cls-6" x="140.3" y="83">o</tspan><tspan x="156.83" y="83">l</tspan><tspan class="cls-7" x="166.39" y="83">a</tspan><tspan x="181.7" y="83">tes sec</tspan><tspan class="cls-10" x="278.89" y="83">r</tspan><tspan x="291.24" y="83">ets li</tspan><tspan class="cls-6" x="360.44" y="83">k</tspan><tspan x="378.44" y="83">e ce</tspan><tspan class="cls-11" x="433.56" y="83">r</tspan><tspan x="446.54" y="83">tific</tspan><tspan class="cls-7" x="502.79" y="83">a</tspan><tspan x="518.1" y="83">tes &amp; pri</tspan><tspan class="cls-12" x="634.6" y="83">v</tspan><tspan class="cls-7" x="651.47" y="83">a</tspan><tspan x="666.78" y="83">te </tspan><tspan class="cls-6" x="701.31" y="83">k</tspan><tspan class="cls-13" x="719.31" y="83">e</tspan><tspan x="735.1" y="83">ys</tspan><tspan x="0" y="166">SCONE: is</tspan><tspan class="cls-6" x="140.3" y="166">o</tspan><tspan x="156.83" y="166">l</tspan><tspan class="cls-7" x="166.39" y="166">a</tspan><tspan x="181.7" y="166">tes files</tspan></tspan></text><path class="cls-14" d="M498,277.71c0,6-4.28,10.83-9.56,10.83H89.56c-5.28,0-9.56-4.85-9.56-10.83V159.29c0-6,4.28-10.83,9.56-10.83H488.44c5.28,0,9.56,4.85,9.56,10.83Z"/><path class="cls-15" d="M1287,277.71c0,6-4.28,10.83-9.56,10.83H878.56c-5.28,0-9.56-4.85-9.56-10.83V159.29c0-6,4.28-10.83,9.56-10.83h398.88c5.28,0,9.56,4.85,9.56,10.83Z"/><text class="cls-16" transform="translate(85.06 127.18)">TLS</text><text class="cls-2" transform="translate(1167.43 415.18)">file</text><path class="cls-3" d="M1252,358.35H1106a5,5,0,0,0-5,5v94.2a5,5,0,0,0,5,5h176a5,5,0,0,0,5-5V391"/><polygon class="cls-3" points="1287 391 1252 391 1252 358.35 1287 391"/><text class="cls-16" transform="translate(1225 127.18)">TLS</text><circle class="cls-17" cx="497.85" cy="231.12" r="11.12"/><line class="cls-18" x1="489.99" y1="238.98" x2="505.71" y2="223.26"/><circle class="cls-17" cx="263.85" cy="427.12" r="11.12"/><line class="cls-18" x1="255.99" y1="434.98" x2="271.71" y2="419.26"/><line class="cls-19" x1="486.73" y1="189.23" x2="841.73" y2="189.23"/><circle class="cls-17" cx="868.88" cy="190.12" r="11.12"/><line class="cls-18" x1="876.74" y1="182.26" x2="861.02" y2="197.98"/><text class="cls-20" transform="translate(62.94 529.18)">VM</text><rect class="cls-21" x="43.81" y="41" width="1279.31" height="511.58" rx="10"/><rect class="cls-22" x="74" y="638" width="68" height="68" rx="5"/><rect class="cls-22" x="74" y="722" width="68" height="68" rx="5"/><path class="cls-23" d="M89.44,682c-.87,0-1.75,0-2.62,0-.46,0-.6-.16-.58-.6,0-.76,0-1.52,0-2.29,0-.41.13-.54.53-.54,1.76,0,3.5,0,5.25,0,.48,0,.62-.15.6-.61,0-1.27,0-2.53,0-3.8,0-.43-.13-.57-.56-.57-1.72,0-3.44,0-5.15,0-.66,0-.67,0-.67-.65s0-1.52,0-2.29c0-.41.13-.54.53-.54,1.77,0,3.54,0,5.3,0,.44,0,.56-.14.55-.57,0-1.29,0-2.59,0-3.88,0-.39-.12-.53-.52-.52H86.91c-.65,0-.67,0-.67-.65,0-.78,0-1.57,0-2.35,0-.36.12-.48.49-.48,1.78,0,3.56,0,5.34,0,.43,0,.56-.13.56-.57,0-1.4,0-2.81,0-4.21,0-.46.15-.59.59-.58,1.47,0,2.93,0,4.4,0,.41,0,.55-.12.54-.54,0-1.73,0-3.46,0-5.19,0-.44.14-.58.56-.56.8,0,1.59,0,2.39,0,.39,0,.52.14.52.51,0,1.4,0,2.81,0,4.21,0,.35,0,.69,0,1s.11.47.44.47h4.16c.4,0,.41-.23.41-.52,0-1.71,0-3.4,0-5.11,0-.44.12-.61.58-.59.78,0,1.56,0,2.34,0,.38,0,.51.13.5.52,0,1.71,0,3.44,0,5.15,0,.46.13.64.61.62,1.26,0,2.52,0,3.79,0,.47,0,.63-.12.63-.61,0-1.71,0-3.4,0-5.11,0-.45.14-.6.59-.58.77,0,1.52,0,2.29,0,.45,0,.55.16.55.58,0,1.68,0,3.37,0,5,0,.42.1.57.55.57,1.38,0,2.78,0,4.17,0,.4,0,.54.11.54.53,0,1.43,0,2.87,0,4.31,0,.46.1.62.59.62,1.73,0,3.47,0,5.2,0,.42,0,.58.12.57.55,0,.8,0,1.59,0,2.39,0,.4-.15.54-.55.54h-5.15c-.64,0-.64,0-.64.62v3.75c0,.58,0,.6.62.6h5.06c.66,0,.66,0,.66.68V673c0,.59,0,.63-.65.63-1.7,0-3.4,0-5.1,0-.45,0-.6.13-.59.59,0,1.24,0,2.46,0,3.7,0,.68,0,.68.66.68,1.69,0,3.38,0,5.06,0,.46,0,.65.11.63.59,0,.76,0,1.53,0,2.3,0,.4-.14.54-.54.54-1.72,0-3.44,0-5.16,0-.65,0-.65,0-.65.63v4.08c0,.67,0,.68-.7.68-1.33,0-2.65,0-4,0-.43,0-.58.13-.58.56,0,1.69,0,3.37,0,5.06,0,.49-.15.63-.61.61-.73,0-1.44,0-2.16,0s-.65,0-.65-.64v-4.82c0-.72,0-.72-.72-.72-1.26,0-2.52,0-3.79,0-.39,0-.51.13-.51.51,0,1.71,0,3.4,0,5.11,0,.46-.15.6-.59.58-.72,0-1.43,0-2.15,0s-.68,0-.68-.7c0-1.62,0-3.25,0-4.87,0-.46-.11-.63-.6-.62-1.29,0-2.56,0-3.84,0-.42,0-.55.13-.55.53,0,1.67,0,3.34,0,5,0,.62,0,.64-.63.64-.77,0-1.56,0-2.34,0-.39,0-.5-.14-.5-.52,0-1.66,0-3.34,0-5,0-.68,0-.68-.71-.68H93.26c-.62,0-.64,0-.64-.63,0-1.42,0-2.84,0-4.26,0-.39-.14-.52-.52-.51C91.22,682.05,90.33,682,89.44,682Zm18.81-22H97c-.64,0-.64,0-.64.65v22.47c0,.65,0,.65.64.65h22.47c.66,0,.66,0,.66-.65V660.66c0-.65,0-.65-.66-.65Z"/><path class="cls-23" d="M113.09,669.62c.14,1,.15,1-.62,1.35a14,14,0,0,1-7.1,1.26,7.21,7.21,0,0,1-3-.8,3.28,3.28,0,0,1-1.88-2.91,4.1,4.1,0,0,1,1.51-3.29l.15.08c-.1.19-.18.41-.3.6a3.58,3.58,0,0,0-.71,2.73,2.72,2.72,0,0,0,1.91,2.12,10.12,10.12,0,0,0,4.57.42,14.5,14.5,0,0,0,5.24-1.47A1.23,1.23,0,0,1,113.09,669.62Z"/><path class="cls-23" d="M110.05,676.19c-.28.86-.29.87-1,.66a1.89,1.89,0,0,0-2.06.61,2.53,2.53,0,0,0,.15,2.57,1.69,1.69,0,0,0,1.64.43c.4-.07.2-.46.23-.71s-.13-.38-.39-.39c-.59,0-.72-.14-.62-.58a.5.5,0,0,1,.34-.32,8.78,8.78,0,0,1,1.45,0,.48.48,0,0,1,.32.33c0,.67,0,1.34,0,2a.45.45,0,0,1-.19.33,3.57,3.57,0,0,1-3.65-.38,3.18,3.18,0,0,1-.47-3.49,2.76,2.76,0,0,1,3-1.41A11,11,0,0,1,110.05,676.19Z"/><path class="cls-23" d="M112.6,679.47c-.26.41-.51.83-.76,1.25-.44.72-.65.81-1.6.56.32-.49.63-1,.93-1.45s.72-.87.73-1.31-.46-.85-.73-1.27-.49-.78-.75-1.18c.73-.32,1.2-.19,1.55.4l.72,1.24.76-1.23c.36-.6.77-.72,1.51-.41-.42.62-.81,1.26-1.26,1.85a.83.83,0,0,0,0,1.18c.53.69,1,1.43,1.47,2.17-.91.26-1.22.15-1.66-.56l-.76-1.18Z"/><path class="cls-23" d="M101.66,680.21c.59.1,1.17.22,1.76.29a.62.62,0,0,0,.7-.56c.07-.38-.21-.57-.51-.67s-.75-.21-1.13-.33a1.41,1.41,0,0,1-1.15-1.54,1.53,1.53,0,0,1,1.24-1.45,3.18,3.18,0,0,1,2.36.27c.21.11.32.24.16.47s-.16.47-.55.34a4.86,4.86,0,0,0-1.32-.22.62.62,0,0,0-.7.55c-.06.38.21.57.51.68s.87.28,1.29.43a1.37,1.37,0,0,1,1,1.32,1.59,1.59,0,0,1-1,1.48,3.24,3.24,0,0,1-2.64-.12c-.58-.26-.59-.33-.24-.85.06-.07.11-.14.18-.21A.73.73,0,0,1,101.66,680.21Z"/><path class="cls-23" d="M103.65,664a2.55,2.55,0,0,0,.35-.14,11.7,11.7,0,0,1,9.33-1.18,3.14,3.14,0,0,1,2.3,2.36,3.38,3.38,0,0,1-2.14,3.79.78.78,0,0,1,.21-1,4.37,4.37,0,0,0,1-1.17,2.51,2.51,0,0,0-1.51-3.42,7.67,7.67,0,0,0-3.58-.52,14.44,14.44,0,0,0-5.4,1.36,2.24,2.24,0,0,1-.34.11Z"/><path class="cls-23" d="M111.47,668.47a1.52,1.52,0,0,1-2.38-.09,1.66,1.66,0,0,1,1.18-2.58,1.41,1.41,0,0,1,1.36,1.61.49.49,0,0,1-.36.25c-.41,0-.82,0-1.22,0-.11,0-.23.12-.34.17.07.12.11.32.21.34a1.44,1.44,0,0,0,.79,0A.51.51,0,0,1,111.47,668.47Zm-1.24-1.25c.21-.13.37-.23.54-.32-.17-.14-.35-.4-.51-.4s-.36.26-.54.4Z"/><path class="cls-23" d="M104.14,667.37c0-.36,0-.72,0-1.08s.11-.47.43-.46.84,0,1.26,0a.83.83,0,0,1,.87,1c0,.55,0,1.1,0,1.64,0,.33-.09.5-.44.5s-.35-.24-.35-.48c0-.5,0-1,0-1.5s-.18-.48-.53-.49-.42.21-.42.51c0,.52,0,1,0,1.55,0,.26-.1.4-.39.39s-.45-.08-.44-.39,0-.8,0-1.18Z"/><path class="cls-23" d="M108.37,668.92c-.72,0-1.05-.29-1.06-.86,0-.87,0-1.74,0-2.61,0-.28.08-.44.39-.46s.38.15.41.42.2.29.3.43.23.22.23.33-.15.19-.24.3-.27.24-.29.38a3.22,3.22,0,0,0,0,1c0,.15.2.3.3.44s.25.29.23.4S108.42,668.88,108.37,668.92Z"/><path class="cls-23" d="M112.86,668.88c-.53-.06-.76-.3-.76-.71,0-1.07,0-2.14,0-3.21,0-.25.1-.41.36-.36s.39.16.4.25C112.87,666.17,112.86,667.5,112.86,668.88Z"/><path class="cls-23" d="M103.47,668.94c-.45,0-.71-.22-.74-.58,0-.74-.06-1.48,0-2.23,0-.1.24-.26.38-.28s.39.12.39.2C103.48,667,103.47,668,103.47,668.94Z"/><path class="cls-23" d="M103.46,665.22a1,1,0,0,1-.35.21c-.25.05-.46,0-.46-.36s.09-.41.37-.4S103.51,664.7,103.46,665.22Z"/><path class="cls-24" d="M110.93,745.79h-4a1.53,1.53,0,0,0-1.52,1.52v4a1.53,1.53,0,0,0,1.52,1.52h4a1.53,1.53,0,0,0,1.52-1.52v-4A1.53,1.53,0,0,0,110.93,745.79Zm-13.74,7.06h4a1.53,1.53,0,0,0,1.52-1.52v-4a1.53,1.53,0,0,0-1.52-1.52h-4a1.52,1.52,0,0,0-1.51,1.52v4A1.52,1.52,0,0,0,97.19,752.85Zm-4.25-1.52v-4a1.52,1.52,0,0,0-1.51-1.52h-4A1.53,1.53,0,0,0,86,747.31v4a1.53,1.53,0,0,0,1.52,1.52h4A1.52,1.52,0,0,0,92.94,751.33Zm18.29,4.32a1.17,1.17,0,0,0-1.14,1.14v4.71a1.14,1.14,0,0,0,2.28,0v-4.71A1.08,1.08,0,0,0,111.23,755.65Zm-10.85,1.52v4a1.52,1.52,0,0,0,1.52,1.52h3.94a1.52,1.52,0,0,0,1.52-1.52v-4a1.53,1.53,0,0,0-1.52-1.52H101.9A1.53,1.53,0,0,0,100.38,757.17Zm-2.81,4v-4a1.52,1.52,0,0,0-1.51-1.52h-4a1.53,1.53,0,0,0-1.52,1.52v4a1.53,1.53,0,0,0,1.52,1.52h4A1.52,1.52,0,0,0,97.57,761.19Zm13.36,4.33h-4a1.53,1.53,0,0,0-1.52,1.52v4a1.53,1.53,0,0,0,1.52,1.52h4a1.53,1.53,0,0,0,1.52-1.52v-4A1.53,1.53,0,0,0,110.93,765.52Zm-10.25,0H96.74A1.52,1.52,0,0,0,95.22,767v4a1.53,1.53,0,0,0,1.52,1.52h3.94a1.53,1.53,0,0,0,1.52-1.52v-4A1.52,1.52,0,0,0,100.68,765.52Z"/><path class="cls-24" d="M115.71,744.2c.53.45,2.35,1.89,6.14,1.89.16,0,.08.16.08.31v10.85c0,4.17-5.08,6.75-6.3,7.43-.15.08-.15-.07-.15-.07l.08-20.34C115.48,744.27,115.63,744.12,115.71,744.2Z"/><path class="cls-24" d="M103.8,743.67c8.34-.31,9.71-3.19,9.71-3.19a.42.42,0,0,1,.38-.23h0c.15,0,.3,0,.38.15s1.29,3.11,9.63,3.11c.23,0,.31.16.31.38v14.27c0,4.55-8.65,9.71-8.81,9.79s-.3.22-.3.3v3.57c0,.15.53.22.76.15,3.19-1.75,12.14-6.68,12.14-12.75V741c0-.3-.53-.53-.83-.53-10.63,0-12.6-3.87-12.6-3.87-.08-.23-.46-.15-.68-.15h0c-.23,0-.38-.08-.46.07s-1.74,4-12.29,4c-.38,0-.46.15-.46.45v2.28s-.07.53.31.53S103.8,743.67,103.8,743.67Z"/><rect class="cls-22" x="74" y="806" width="68" height="68" rx="5"/><path class="cls-24" d="M110.93,829.79h-4a1.53,1.53,0,0,0-1.52,1.52v4a1.53,1.53,0,0,0,1.52,1.52h4a1.53,1.53,0,0,0,1.52-1.52v-4A1.53,1.53,0,0,0,110.93,829.79Zm-13.74,7.06h4a1.53,1.53,0,0,0,1.52-1.52v-4a1.53,1.53,0,0,0-1.52-1.52h-4a1.52,1.52,0,0,0-1.51,1.52v4A1.52,1.52,0,0,0,97.19,836.85Zm-4.25-1.52v-4a1.52,1.52,0,0,0-1.51-1.52h-4A1.53,1.53,0,0,0,86,831.31v4a1.53,1.53,0,0,0,1.52,1.52h4A1.52,1.52,0,0,0,92.94,835.33Zm18.29,4.32a1.17,1.17,0,0,0-1.14,1.14v4.71a1.14,1.14,0,0,0,2.28,0v-4.71A1.08,1.08,0,0,0,111.23,839.65Zm-10.85,1.52v4a1.52,1.52,0,0,0,1.52,1.52h3.94a1.52,1.52,0,0,0,1.52-1.52v-4a1.53,1.53,0,0,0-1.52-1.52H101.9A1.53,1.53,0,0,0,100.38,841.17Zm-2.81,4v-4a1.52,1.52,0,0,0-1.51-1.52h-4a1.53,1.53,0,0,0-1.52,1.52v4a1.53,1.53,0,0,0,1.52,1.52h4A1.52,1.52,0,0,0,97.57,845.19Zm13.36,4.33h-4a1.53,1.53,0,0,0-1.52,1.52v4a1.53,1.53,0,0,0,1.52,1.52h4a1.53,1.53,0,0,0,1.52-1.52v-4A1.53,1.53,0,0,0,110.93,849.52Zm-10.25,0H96.74A1.52,1.52,0,0,0,95.22,851v4a1.53,1.53,0,0,0,1.52,1.52h3.94a1.53,1.53,0,0,0,1.52-1.52v-4A1.52,1.52,0,0,0,100.68,849.52Z"/><path class="cls-24" d="M115.71,828.2c.53.45,2.35,1.89,6.14,1.89.16,0,.08.16.08.31v10.85c0,4.17-5.08,6.75-6.3,7.43-.15.08-.15-.07-.15-.07l.08-20.34C115.48,828.27,115.63,828.12,115.71,828.2Z"/><path class="cls-24" d="M103.8,827.67c8.34-.31,9.71-3.19,9.71-3.19a.42.42,0,0,1,.38-.23h0c.15,0,.3,0,.38.15s1.29,3.11,9.63,3.11c.23,0,.31.16.31.38v14.27c0,4.55-8.65,9.71-8.81,9.79s-.3.22-.3.3v3.57c0,.15.53.22.76.15,3.19-1.75,12.14-6.68,12.14-12.75V825c0-.3-.53-.53-.83-.53-10.63,0-12.6-3.87-12.6-3.87-.08-.23-.46-.15-.68-.15h0c-.23,0-.38-.08-.46.07s-1.74,4-12.29,4c-.38,0-.46.15-.46.45v2.28s-.07.53.31.53S103.8,827.67,103.8,827.67Z"/><text class="cls-16" transform="translate(202 338.18)">e<tspan class="cls-25" x="15.98" y="0">n</tspan><tspan x="34.88" y="0">c</tspan><tspan class="cls-8" x="50.68" y="0">r</tspan><tspan x="63.57" y="0">ypted</tspan></text><text class="cls-16" transform="translate(1007.58 338.18)">e<tspan class="cls-25" x="15.98" y="0">n</tspan><tspan x="34.88" y="0">c</tspan><tspan class="cls-8" x="50.68" y="0">r</tspan><tspan x="63.57" y="0">ypted</tspan></text><path class="cls-26" d="M150.74,438.15a26.82,26.82,0,1,1-8,19.16,26.32,26.32,0,0,1,5.49-16.22"/><path class="cls-27" d="M168.84,470.22h-9.7c-1.33,0-1.84-.51-1.84-1.84V453.61c0-1.32.51-1.84,1.84-1.84h19.32c1.25,0,1.77.52,1.77,1.77v14.84c0,1.25-.52,1.77-1.77,1.77C175.23,470.29,172,470.22,168.84,470.22Z"/><path class="cls-27" d="M158.88,450.49c.26-4.12,2-7.66,6-9.45a9.59,9.59,0,0,1,13.2,6.52c.23.88.31,1.76.54,2.71"/><path class="cls-24" d="M167.23,463.9h0v2c0,.36.14.51.58.51h1.91c.52,0,.67-.15.67-.59v-3.67a.84.84,0,0,1,.51-.88,2.79,2.79,0,0,0,1.4-3.31,3.54,3.54,0,0,0-3.31-2.21,3.77,3.77,0,0,0-3.68,2,2.75,2.75,0,0,0,1.25,3.45.94.94,0,0,1,.59,1.1A11.54,11.54,0,0,1,167.23,463.9Z"/><path class="cls-26" d="M1174.74,438.15a26.82,26.82,0,1,1-8,19.16,26.32,26.32,0,0,1,5.49-16.22"/><path class="cls-27" d="M1192.84,470.22h-9.7c-1.33,0-1.84-.51-1.84-1.84V453.61c0-1.32.51-1.84,1.84-1.84h19.32c1.25,0,1.77.52,1.77,1.77v14.84c0,1.25-.52,1.77-1.77,1.77C1199.23,470.29,1196,470.22,1192.84,470.22Z"/><path class="cls-27" d="M1182.88,450.49c.26-4.12,2-7.66,6-9.45a9.59,9.59,0,0,1,13.2,6.52c.23.88.31,1.76.54,2.71"/><path class="cls-24" d="M1191.23,463.9h0v2c0,.36.14.51.58.51h1.91c.52,0,.67-.15.67-.59v-3.67a.84.84,0,0,1,.51-.88,2.79,2.79,0,0,0,1.4-3.31,3.54,3.54,0,0,0-3.31-2.21,3.77,3.77,0,0,0-3.68,2,2.75,2.75,0,0,0,1.25,3.45.94.94,0,0,1,.59,1.1A11.54,11.54,0,0,1,1191.23,463.9Z"/><path class="cls-26" d="M220.64,167a22.76,22.76,0,1,1-6.81,16.25,22.33,22.33,0,0,1,4.65-13.76"/><path class="cls-27" d="M236,194.2h-8.23c-1.12,0-1.56-.43-1.56-1.56V180.11c0-1.12.44-1.56,1.56-1.56h16.4c1.06,0,1.5.44,1.5,1.5v12.59c0,1.07-.44,1.5-1.5,1.5C241.43,194.27,238.68,194.2,236,194.2Z"/><path class="cls-27" d="M227.55,177.46c.23-3.49,1.7-6.5,5.12-8a8.14,8.14,0,0,1,11.2,5.53c.19.75.26,1.5.45,2.31"/><path class="cls-24" d="M234.63,188.84h0v1.68c0,.32.13.44.5.44h1.62c.44,0,.56-.12.56-.5v-3.12a.71.71,0,0,1,.44-.74,2.37,2.37,0,0,0,1.19-2.81,3,3,0,0,0-2.81-1.87A3.19,3.19,0,0,0,233,183.6a2.33,2.33,0,0,0,1.06,2.93.81.81,0,0,1,.5.94A10.93,10.93,0,0,1,234.63,188.84Z"/><text class="cls-28" transform="translate(96 269.18)">se<tspan class="cls-8" x="31.42" y="0">r</tspan><tspan x="44.31" y="0">vice 1</tspan></text><text class="cls-16" transform="translate(275 194.18)"><tspan class="cls-6">k</tspan><tspan class="cls-13" x="18" y="0">e</tspan><tspan x="33.79" y="0">y 1</tspan></text><path class="cls-26" d="M1037.64,167a22.76,22.76,0,1,1-6.81,16.25,22.33,22.33,0,0,1,4.65-13.76"/><path class="cls-27" d="M1053,194.2h-8.23c-1.12,0-1.56-.43-1.56-1.56V180.11c0-1.12.44-1.56,1.56-1.56h16.4c1.06,0,1.5.44,1.5,1.5v12.59c0,1.07-.44,1.5-1.5,1.5C1058.43,194.27,1055.68,194.2,1053,194.2Z"/><path class="cls-27" d="M1044.55,177.46c.23-3.49,1.7-6.5,5.12-8a8.14,8.14,0,0,1,11.2,5.53c.19.75.26,1.5.45,2.31"/><path class="cls-24" d="M1051.63,188.84h0v1.68c0,.32.13.44.5.44h1.62c.44,0,.56-.12.56-.5v-3.12a.71.71,0,0,1,.44-.74,2.37,2.37,0,0,0,1.19-2.81,3,3,0,0,0-2.81-1.87,3.19,3.19,0,0,0-3.12,1.68,2.33,2.33,0,0,0,1.06,2.93.81.81,0,0,1,.5.94A10.93,10.93,0,0,1,1051.63,188.84Z"/><text class="cls-16" transform="translate(1092 194.18)"><tspan class="cls-6">k</tspan><tspan class="cls-13" x="18" y="0">e</tspan><tspan x="33.79" y="0">y 2</tspan></text><text class="cls-29" transform="translate(378 194.68)">-ce<tspan class="cls-30" x="43.97" y="0">r</tspan><tspan x="56.85" y="0">t</tspan><tspan x="0" y="36">-</tspan><tspan class="cls-6" x="11.67" y="36">k</tspan><tspan class="cls-13" x="29.62" y="36">e</tspan><tspan x="45.56" y="36">y</tspan></text><text class="cls-29" transform="translate(905 194.68)">-ce<tspan class="cls-30" x="43.97" y="0">r</tspan><tspan x="56.85" y="0">t</tspan><tspan x="0" y="36">-</tspan><tspan class="cls-6" x="11.67" y="36">k</tspan><tspan class="cls-13" x="29.62" y="36">e</tspan><tspan x="45.56" y="36">y</tspan></text><text class="cls-28" transform="translate(97.94 192.18)">SGX</text><text class="cls-28" transform="translate(1210.92 194.18)">SGX</text><text class="cls-28" transform="translate(1145.2 269.18)">se<tspan class="cls-8" x="31.42" y="0">r</tspan><tspan x="44.31" y="0">vice 2</tspan></text><line class="cls-19" x1="880" y1="232" x2="526" y2="232"/><line class="cls-19" x1="880" y1="270" x2="287" y2="423"/><circle class="cls-17" cx="1100.88" cy="427.12" r="11.12"/><line class="cls-18" x1="1108.74" y1="434.98" x2="1093.02" y2="419.26"/><line class="cls-19" x1="484.73" y1="270" x2="1077.73" y2="423"/></svg>