<svg xmlns="http://www.w3.org/2000/svg" xmlns:xlink="http://www.w3.org/1999/xlink" viewBox="0 0 989 1030"><defs><style>.cls-1,.cls-16,.cls-20,.cls-3,.cls-7,.cls-8{stroke:#fc0;}.cls-1,.cls-16,.cls-17,.cls-18,.cls-20,.cls-7,.cls-8{stroke-miterlimit:10;}.cls-1,.cls-16,.cls-17,.cls-18,.cls-2,.cls-20,.cls-26,.cls-3,.cls-4,.cls-5,.cls-8{stroke-width:6px;}.cls-1{fill:url(#Unbenannter_Verlauf_5);}.cls-17,.cls-18,.cls-2,.cls-20,.cls-26,.cls-3,.cls-5,.cls-7{fill:none;}.cls-2{stroke:#33245e;isolation:isolate;}.cls-2,.cls-26,.cls-3,.cls-4,.cls-5,.cls-7{stroke-linecap:round;}.cls-2,.cls-26,.cls-3,.cls-4,.cls-5{stroke-linejoin:round;}.cls-25,.cls-4,.cls-9{fill:#fff;}.cls-4,.cls-5{stroke:#ffcb03;}.cls-6{fill:#ffcb03;}.cls-7{stroke-width:15px;}.cls-8{fill:url(#Unbenannter_Verlauf_5-2);}.cls-9{font-size:29.41px;}.cls-11,.cls-13,.cls-21,.cls-9{font-family:RobotoSlab-Bold, Roboto Slab;font-weight:700;}.cls-10{letter-spacing:-0.01em;}.cls-11,.cls-21{font-size:30px;}.cls-11,.cls-19{fill:#306;}.cls-12{letter-spacing:0em;}.cls-13{font-size:48px;}.cls-14{letter-spacing:0.01em;}.cls-15{letter-spacing:-0.04em;}.cls-16{fill:url(#Unbenannter_Verlauf_5-3);}.cls-17,.cls-18,.cls-26{stroke:#306;}.cls-18{stroke-dasharray:5.97 5.97;}.cls-21,.cls-23,.cls-24{fill:#0f1689;}.cls-22{letter-spacing:0.01em;}.cls-23{fill-rule:evenodd;}.cls-27{fill:#326de6;}</style><linearGradient id="Unbenannter_Verlauf_5" x1="120.75" y1="-94.75" x2="427" y2="-94.75" gradientTransform="translate(0 524)" gradientUnits="userSpaceOnUse"><stop offset="0" stop-color="#906"/><stop offset="0.19" stop-color="#780066"/><stop offset="0.4" stop-color="#5a0066"/><stop offset="0.61" stop-color="#406"/><stop offset="0.81" stop-color="#370066"/><stop offset="1" stop-color="#306"/></linearGradient><linearGradient id="Unbenannter_Verlauf_5-2" x1="581.29" y1="408" x2="930" y2="408" gradientTransform="matrix(1, 0, 0, 1, 0, 0)" xlink:href="#Unbenannter_Verlauf_5"/><linearGradient id="Unbenannter_Verlauf_5-3" x1="581.29" y1="567" x2="930" y2="567" gradientTransform="matrix(1, 0, 0, 1, 0, 0)" xlink:href="#Unbenannter_Verlauf_5"/></defs><title>Kubernetes Cluster0</title><g id="Ebene_1" data-name="Ebene 1"><path class="cls-1" d="M427,488.45c0,6-3.15,10.8-7,10.8H127.78c-3.88,0-7-4.8-7-10.8V370.05c0-6,3.15-10.8,7-10.8H420c3.88,0,7,4.9,7,10.8Z"/><path class="cls-2" d="M79.46,296.75H473.54c4.65,0,8.46,4.19,8.46,9.31V836.69c0,5.12-3.81,9.31-8.46,9.31H79.46c-4.65,0-8.46-4.19-8.46-9.31V306.06C71,300.94,74.81,296.75,79.46,296.75Z"/><path class="cls-3" d="M225.93,620.05h-97a5,5,0,0,0-5,5v121.2a5,5,0,0,0,5,5h127a5,5,0,0,0,5-5v-93.5"/><polygon class="cls-3" points="260.93 652.75 225.93 652.75 225.93 620.05 260.93 652.75"/><path class="cls-3" d="M391.93,620.05h-97a5,5,0,0,0-5,5v121.2a5,5,0,0,0,5,5h127a5,5,0,0,0,5-5v-93.5"/><polygon class="cls-3" points="426.93 652.75 391.93 652.75 391.93 620.05 426.93 652.75"/><path class="cls-4" d="M160.63,601a26.8,26.8,0,1,1-8,19.1,26.21,26.21,0,0,1,5.5-16.2"/><path class="cls-5" d="M178.73,633H169c-1.3,0-1.8-.5-1.8-1.8v-14.8c0-1.3.5-1.8,1.8-1.8h19.3c1.3,0,1.8.5,1.8,1.8v14.8c0,1.3-.5,1.8-1.8,1.8C185.13,633.05,181.93,633,178.73,633Z"/><path class="cls-5" d="M168.83,613.25c.3-4.1,2-7.7,6-9.5a9.53,9.53,0,0,1,12.6,4.9c.2.5.4,1.1.6,1.6.2.9.3,1.8.5,2.7"/><path class="cls-6" d="M177.13,626.65h0v2c0,.4.1.5.6.5h1.9c.5,0,.7-.2.7-.6v-3.7a1.05,1.05,0,0,1,.5-.9,2.78,2.78,0,0,0,1.4-3.3,3.61,3.61,0,0,0-3.3-2.2,4,4,0,0,0-3.7,2,2.81,2.81,0,0,0,1.3,3.5,1,1,0,0,1,.6,1.1Z"/><path class="cls-4" d="M325.63,601a26.8,26.8,0,1,1-8,19.1,26.21,26.21,0,0,1,5.5-16.2"/><path class="cls-5" d="M343.73,633H334c-1.3,0-1.8-.5-1.8-1.8v-14.8c0-1.3.5-1.8,1.8-1.8h19.3c1.3,0,1.8.5,1.8,1.8v14.8c0,1.3-.5,1.8-1.8,1.8C350.13,633.05,346.93,633,343.73,633Z"/><path class="cls-5" d="M333.83,613.25c.3-4.1,2-7.7,6-9.5a9.53,9.53,0,0,1,12.6,4.9c.2.5.4,1.1.6,1.6.2.9.3,1.8.5,2.7"/><path class="cls-6" d="M342.13,626.65h0v2c0,.4.1.5.6.5h1.9c.5,0,.7-.2.7-.6v-3.7a1.05,1.05,0,0,1,.5-.9,2.78,2.78,0,0,0,1.4-3.3,3.61,3.61,0,0,0-3.3-2.2,4,4,0,0,0-3.7,2,2.81,2.81,0,0,0,1.3,3.5,1,1,0,0,1,.6,1.1Z"/><path class="cls-4" d="M253.63,327.85a26.8,26.8,0,1,1-8,19.1,26.21,26.21,0,0,1,5.5-16.2"/><path class="cls-5" d="M271.73,360H262c-1.3,0-1.8-.5-1.8-1.8v-14.8c0-1.3.5-1.8,1.8-1.8h19.3c1.3,0,1.8.5,1.8,1.8v14.8c0,1.3-.5,1.8-1.8,1.8C278.13,360.05,274.93,360,271.73,360Z"/><path class="cls-5" d="M261.83,340.25c.3-4.1,2-7.7,6-9.5a9.53,9.53,0,0,1,12.6,4.9c.2.5.4,1.1.6,1.6.2.9.3,1.8.5,2.7"/><path class="cls-6" d="M270.13,353.65h0v2c0,.4.1.5.6.5h1.9c.5,0,.7-.1.7-.6v-3.7a1.05,1.05,0,0,1,.5-.9,2.78,2.78,0,0,0,1.4-3.3,3.61,3.61,0,0,0-3.3-2.2,4,4,0,0,0-3.7,2,2.81,2.81,0,0,0,1.3,3.5,1,1,0,0,1,.6,1.1Z"/><polyline class="cls-7" points="292.43 228.75 271.93 249.25 251.43 228.75"/><line class="cls-7" x1="271.93" y1="197.25" x2="271.93" y2="238.75"/><rect class="cls-8" x="581.29" y="358" width="348.71" height="100" rx="8"/><path class="cls-4" d="M729.63,330.85a26.8,26.8,0,1,1-8,19.1,26.21,26.21,0,0,1,5.5-16.2"/><path class="cls-5" d="M747.73,363H738c-1.3,0-1.8-.5-1.8-1.8v-14.8c0-1.3.5-1.8,1.8-1.8h19.3c1.3,0,1.8.5,1.8,1.8v14.8c0,1.3-.5,1.8-1.8,1.8C754.13,363.05,750.93,363,747.73,363Z"/><path class="cls-5" d="M737.83,345.25c.3-4.1,2-7.7,6-9.5a9.53,9.53,0,0,1,12.6,4.9c.2.5.4,1.1.6,1.6.2.9.3,1.8.5,2.7"/><path class="cls-6" d="M746.13,356.65h0v2c0,.4.1.5.6.5h1.9c.5,0,.7-.1.7-.6v-3.7a1.05,1.05,0,0,1,.5-.9,2.78,2.78,0,0,0,1.4-3.3,3.61,3.61,0,0,0-3.3-2.2,4,4,0,0,0-3.7,2,2.81,2.81,0,0,0,1.3,3.5,1,1,0,0,1,.6,1.1Z"/><text class="cls-9" transform="translate(709.89 418.97) scale(1.07 1)">p<tspan class="cls-10" x="17.81" y="0">o</tspan><tspan x="34.01" y="0">licy</tspan></text><text class="cls-11" transform="translate(338.57 228.23)"><tspan class="cls-12">h</tspan><tspan x="18.93" y="0">elm install</tspan></text><text class="cls-11" transform="translate(160.21 710.23)">files</text><text class="cls-11" transform="translate(325.5 710.23)">files</text><text class="cls-11" transform="translate(93.57 822.23)">contai<tspan class="cls-12" x="89" y="0">n</tspan><tspan x="107.9" y="0">er</tspan></text><text class="cls-13" transform="translate(269.62 970.2)">KUBERN<tspan class="cls-14" x="203.04" y="0">E</tspan><tspan x="234.16" y="0">TES C</tspan><tspan class="cls-15" x="369.07" y="0">L</tspan><tspan x="395.46" y="0">USTER</tspan></text><rect class="cls-16" x="581.29" y="517" width="348.71" height="100" rx="8"/><text class="cls-9" transform="translate(710.05 577.97) scale(1.07 1)">image</text><text class="cls-9" transform="translate(253.24 441.97) scale(1.07 1)">SV</text><line class="cls-17" x1="580" y1="571" x2="577" y2="571"/><line class="cls-18" x1="571.03" y1="571" x2="454.54" y2="571"/><line class="cls-17" x1="451.55" y1="571" x2="448.55" y2="571"/><polygon class="cls-19" points="462.47 553.82 465.34 556.9 450.17 571 465.34 585.1 462.47 588.17 444 571 462.47 553.82"/><line class="cls-20" x1="176" y1="499" x2="176" y2="593"/><line class="cls-20" x1="344" y1="499" x2="344" y2="593"/><rect class="cls-17" x="71" y="60" width="411" height="100" rx="8"/><text class="cls-21" transform="translate(239.79 121.42)"><tspan class="cls-12">h</tspan><tspan x="18.93" y="0">elm cha</tspan><tspan class="cls-22" x="131.09" y="0">r</tspan><tspan x="144.07" y="0">t</tspan></text><path class="cls-23" d="M184.38,130c-1.26,0-2.3,2.69-2.3,6s1,6,2.3,6,2.29-2.7,2.29-6S185.63,130,184.38,130Z"/><path class="cls-23" d="M155.94,102.67h3.6v4.88h4.35v-4.88h3.61v13.72h-3.61v-5.23h-4.35v5.23h-3.6Zm15.69,13.72V102.67h8.52v3h-4.91v2.22h4.35v3h-4.35v2.52h4.91v3Zm12.46,0V102.67h3.6v10.09h4.94v3.63Zm14.13-13.72,5.59,5.08,5.57-5.08H211v13.72h-3.62v-7l-3.59,3.27-3.61-3.26v7h-3.62V102.67Z"/><path class="cls-23" d="M196.71,125.73c1-.73,3.42.89,5.33,3.62s2.62,5.52,1.59,6.25-3.43-.9-5.34-3.63S195.67,126.45,196.71,125.73Z"/><path class="cls-23" d="M172.05,125.73c-1-.73-3.42.89-5.33,3.62s-2.63,5.52-1.59,6.25,3.42-.9,5.34-3.63S173.09,126.45,172.05,125.73Z"/><path class="cls-23" d="M196.71,93.92c1,.72,3.42-.9,5.33-3.63s2.62-5.52,1.59-6.24-3.43.89-5.34,3.62S195.67,93.19,196.71,93.92Z"/><path class="cls-23" d="M172.05,93.92c-1,.72-3.4-.9-5.32-3.63s-2.62-5.52-1.58-6.24,3.42.89,5.34,3.62S173.09,93.19,172.05,93.92Z"/><path class="cls-23" d="M184.38,89.65c-1.26,0-2.3-2.69-2.3-6s1-6,2.3-6,2.29,2.69,2.29,6S185.63,89.65,184.38,89.65Z"/><path class="cls-24" d="M185.28,133.25a22.83,22.83,0,0,1-19.37-8.67l2.85-2.25a19.09,19.09,0,0,0,31.48-2.08l3.13,1.86A22.78,22.78,0,0,1,185.28,133.25Zm14.26-34A19.12,19.12,0,0,0,167,100.89l-3.18-1.76a22.73,22.73,0,0,1,30-9.45,23.18,23.18,0,0,1,8.64,7.49Z"/><path class="cls-23" d="M155.94,102.67h3.6v4.88h4.35v-4.88h3.61v13.72h-3.61v-5.23h-4.35v5.23h-3.6Zm15.69,13.72V102.67h8.52v3h-4.91v2.22h4.35v3h-4.35v2.52h4.91v3Zm12.46,0V102.67h3.6v10.09h4.94v3.63Zm14.13-13.72,5.59,5.08,5.57-5.08H211v13.72h-3.62v-7l-3.59,3.27-3.61-3.26v7h-3.62V102.67Z"/><path class="cls-23" d="M196.71,93.92c1,.72,3.42-.9,5.33-3.63s2.62-5.52,1.59-6.24-3.43.89-5.34,3.62S195.67,93.19,196.71,93.92Z"/><path class="cls-23" d="M172.05,93.92c-1,.72-3.4-.9-5.32-3.63s-2.62-5.52-1.58-6.24,3.42.89,5.34,3.62S173.09,93.19,172.05,93.92Z"/><path class="cls-23" d="M184.38,89.65c-1.26,0-2.3-2.69-2.3-6s1-6,2.3-6,2.29,2.69,2.29,6S185.63,89.65,184.38,89.65Z"/><rect class="cls-25" x="162.87" y="97.68" width="43.14" height="2.99"/><rect class="cls-25" x="162.87" y="120.88" width="43.14" height="2.55"/><rect class="cls-25" x="162.87" y="118.32" width="43.14" height="2.55"/><line class="cls-26" x1="578" y1="412" x2="396.55" y2="412"/><polygon class="cls-19" points="410.47 394.82 413.34 397.9 398.17 411.99 413.34 426.1 410.47 429.17 392 411.99 410.47 394.82"/><path class="cls-27" d="M181.19,984.42a6.34,6.34,0,0,1-5-2.43l-18.89-23.47A6.34,6.34,0,0,1,156,953l6.74-29.3a6.39,6.39,0,0,1,3.51-4.37l27.31-13.06a6.38,6.38,0,0,1,5.61,0l27.31,13a6.39,6.39,0,0,1,3.5,4.37L236.77,953a6.51,6.51,0,0,1-1.24,5.5l-18.89,23.48a6.52,6.52,0,0,1-5,2.42l-30.43.06Z"/><path class="cls-25" d="M196.35,907a5.3,5.3,0,0,1,2.21.48l27.31,13a5.27,5.27,0,0,1,2.81,3.51l6.74,29.3a5.07,5.07,0,0,1-1,4.43l-18.89,23.47a5.14,5.14,0,0,1-4,1.94H181.19a5.14,5.14,0,0,1-4.05-1.94l-18.89-23.47a5.4,5.4,0,0,1-1-4.43L164,924a5.14,5.14,0,0,1,2.81-3.51l27.3-13.06a6.53,6.53,0,0,1,2.27-.43Zm0-2.54h0a8.14,8.14,0,0,0-3.35.76l-27.3,13.06a7.62,7.62,0,0,0-4.21,5.23l-6.75,29.31a7.65,7.65,0,0,0,1.51,6.58l18.89,23.47a7.61,7.61,0,0,0,6,2.86h30.28a7.61,7.61,0,0,0,6-2.86l18.88-23.47a7.58,7.58,0,0,0,1.52-6.58l-6.75-29.31a7.62,7.62,0,0,0-4.21-5.23l-27.2-13.06a7.66,7.66,0,0,0-3.29-.76Z"/><path class="cls-25" d="M223.71,951h-.05c-.06,0-.11,0-.11-.05s-.22-.06-.32-.06a8.24,8.24,0,0,0-1-.11,2.21,2.21,0,0,1-.54,0h0a14.42,14.42,0,0,1-2.92-.49,1,1,0,0,1-.59-.59c0-.05-.06-.05-.06-.11h0l-.7-.21a21.27,21.27,0,0,0-.37-7.61,22.22,22.22,0,0,0-3-7.07l.54-.49V934a1.25,1.25,0,0,1,.27-.81,16,16,0,0,1,2.43-1.68h0c.16-.11.32-.16.49-.27a7.24,7.24,0,0,0,.91-.54,1.68,1.68,0,0,0,.27-.21c.06-.06.11-.06.11-.11h0a1.8,1.8,0,0,0,.38-2.43,1.53,1.53,0,0,0-1.24-.59,2,2,0,0,0-1.19.43h0l-.11.11c-.1.05-.16.16-.27.21a9.68,9.68,0,0,0-.7.76,2.27,2.27,0,0,1-.38.38h0a13.68,13.68,0,0,1-2.15,1.94.89.89,0,0,1-.49.16.7.7,0,0,1-.32,0h-.11l-.65.43a26.44,26.44,0,0,0-2.21-2,21.56,21.56,0,0,0-11.28-4.48l-.05-.7-.11-.11a1.1,1.1,0,0,1-.43-.7,18,18,0,0,1,.16-2.92v0a1.73,1.73,0,0,1,.11-.54l.16-1v-.48h0a1.75,1.75,0,0,0-1.68-1.78,1.76,1.76,0,0,0-1.67,1.78h0v.43a3.42,3.42,0,0,0,.16,1,4.63,4.63,0,0,1,.11.54v0a13.63,13.63,0,0,1,.16,2.91,1.16,1.16,0,0,1-.43.71l-.11.1h0l-.05.7a26.57,26.57,0,0,0-2.91.44,20.76,20.76,0,0,0-10.69,6l-.54-.38h-.11c-.11,0-.21.06-.32.06a.91.91,0,0,1-.49-.17,14.2,14.2,0,0,1-2.16-2h0a2.18,2.18,0,0,0-.37-.38,9.68,9.68,0,0,0-.7-.76,1.68,1.68,0,0,1-.27-.21c-.06,0-.11,0-.11-.11h0a1.91,1.91,0,0,0-1.19-.43,1.55,1.55,0,0,0-1.24.59,1.8,1.8,0,0,0,.38,2.43h0c.05,0,.05.06.1.06s.17.16.27.21a8.13,8.13,0,0,0,.92.54,2,2,0,0,1,.49.27h0a16,16,0,0,1,2.43,1.67,1,1,0,0,1,.27.81V934h0l.54.49a1.7,1.7,0,0,0-.27.43,21,21,0,0,0-3,14.25l-.7.21c0,.06-.05.06-.05.11a1.22,1.22,0,0,1-.6.59,13.62,13.62,0,0,1-2.91.49h-.05a1.94,1.94,0,0,0-.54.05,8,8,0,0,0-1,.11c-.11,0-.21,0-.32,0a.17.17,0,0,0-.16.06h0a1.77,1.77,0,0,0-1.41,2,1.67,1.67,0,0,0,1.73,1.24A1.07,1.07,0,0,0,170,954h0c.06,0,.11,0,.11-.05s.22-.06.32-.06a4.65,4.65,0,0,0,1-.37c.17-.06.33-.17.49-.22h.05a13.41,13.41,0,0,1,2.81-.81h.11a1.19,1.19,0,0,1,.7.27s0,.06.11.06h0l.75-.11a21.39,21.39,0,0,0,7.07,10.14,22,22,0,0,0,2.32,1.57l-.32.7s.05,0,.05.11a1.08,1.08,0,0,1,.11.86,15.27,15.27,0,0,1-1.4,2.54v0c-.11.16-.22.27-.33.43s-.37.54-.59.87a1.06,1.06,0,0,0-.16.27.17.17,0,0,1,0,.1h0a1.7,1.7,0,0,0,.7,2.32,1.39,1.39,0,0,0,.64.17,2,2,0,0,0,1.62-1h0a.21.21,0,0,1,.06-.11,1.28,1.28,0,0,1,.16-.27,9.94,9.94,0,0,0,.32-1l.16-.48h0a12.45,12.45,0,0,1,1.14-2.7,1.33,1.33,0,0,1,.7-.49s0,0,.11,0h0l.38-.7a21.2,21.2,0,0,0,7.55,1.4,19.54,19.54,0,0,0,4.7-.54,25.78,25.78,0,0,0,2.8-.81l.33.59c.05,0,.05,0,.1.06a1,1,0,0,1,.7.48,18.28,18.28,0,0,1,1.14,2.7V970l.16.48a6.88,6.88,0,0,0,.32,1c.06.11.11.16.17.27a.18.18,0,0,0,.05.11h0a1.83,1.83,0,0,0,1.62,1,1.47,1.47,0,0,0,.65-.17,1.63,1.63,0,0,0,.81-1,2,2,0,0,0-.11-1.35h0c0-.05-.06-.05-.06-.1a.83.83,0,0,0-.16-.27,4.92,4.92,0,0,0-.59-.87c-.11-.16-.22-.27-.33-.43v0a12.33,12.33,0,0,1-1.4-2.54,1.42,1.42,0,0,1,.06-.86c0-.06,0-.06,0-.11h0l-.27-.65a21.44,21.44,0,0,0,9.39-11.82l.65.11s0,0,.1,0a1.38,1.38,0,0,1,.71-.27h.1a13.08,13.08,0,0,1,2.81.81h0c.17,0,.33.16.49.21a5.29,5.29,0,0,0,1,.38c.11,0,.22,0,.33,0a.19.19,0,0,1,.16.06h0a1.27,1.27,0,0,0,.43.05,1.82,1.82,0,0,0,1.73-1.24,2.08,2.08,0,0,0-1.57-1.78Zm-25-2.64-2.37,1.13L194,948.32l-.6-2.54,1.62-2h2.65l1.61,2-.54,2.54Zm14.09-5.62a17.13,17.13,0,0,1,.38,5.45l-8.26-2.37a1.46,1.46,0,0,1-1-1.73,1.27,1.27,0,0,1,.32-.59l6.53-5.88a17.11,17.11,0,0,1,2.05,5.12Zm-4.64-8.36-7.07,5a1.43,1.43,0,0,1-1.89-.33,1.15,1.15,0,0,1-.27-.59l-.48-8.8a16.43,16.43,0,0,1,9.71,4.7Zm-15.65-4.43,1.73-.32-.49,8.63a1.48,1.48,0,0,1-1.46,1.41,1.35,1.35,0,0,1-.64-.16l-7.18-5.13a16.53,16.53,0,0,1,8-4.43Zm-10.63,7.67,6.42,5.72a1.43,1.43,0,0,1,.16,2,1.09,1.09,0,0,1-.65.44l-8.36,2.42a17.39,17.39,0,0,1,2.43-10.57Zm-1.46,14.62,8.58-1.46a1.49,1.49,0,0,1,1.46,2h0l-3.29,7.93a17,17,0,0,1-6.75-8.47Zm19.7,10.74a17.59,17.59,0,0,1-3.78.43,18.28,18.28,0,0,1-5.45-.86l4.26-7.72a1.43,1.43,0,0,1,1.73-.38,2.36,2.36,0,0,1,.65.6h0l4.15,7.5c-.48.16-1,.27-1.56.43Zm10.52-7.5a17.12,17.12,0,0,1-5.18,5.23l-3.4-8.14a1.47,1.47,0,0,1,.76-1.68,1.65,1.65,0,0,1,.75-.16l8.64,1.46a11.19,11.19,0,0,1-1.57,3.29Z"/></g></svg>