<svg xmlns="http://www.w3.org/2000/svg" xmlns:xlink="http://www.w3.org/1999/xlink" viewBox="0 0 1822.32 829.75"><defs><style>.cls-1,.cls-11,.cls-14,.cls-22,.cls-23,.cls-3{fill:none;}.cls-1{stroke:#32245e;stroke-width:0.3px;}.cls-1,.cls-14,.cls-22,.cls-23{stroke-linecap:round;stroke-linejoin:round;}.cls-2,.cls-9{fill:#ffcc03;}.cls-14,.cls-16,.cls-17,.cls-20,.cls-21,.cls-3{stroke:#ffcc03;}.cls-11,.cls-16,.cls-17,.cls-20,.cls-21,.cls-3{stroke-miterlimit:10;}.cls-3{stroke-width:4px;}.cls-4{fill:#518ecb;}.cls-5{fill:#fff;}.cls-6{fill:#32245e;}.cls-7,.cls-8{fill:#221a40;}.cls-8{font-size:20px;font-family:CourierNewPSMT, Courier New;}.cls-9{opacity:0.25;}.cls-10{fill:#635384;}.cls-11{stroke:#981869;stroke-width:3px;}.cls-12{fill:#fdfeff;}.cls-13{opacity:0.4;}.cls-14,.cls-16,.cls-17,.cls-20,.cls-21,.cls-22,.cls-23{stroke-width:2px;}.cls-15{fill:url(#Unbenannter_Verlauf_12);}.cls-16{fill:url(#Unbenannter_Verlauf_12-2);}.cls-17{fill:url(#Unbenannter_Verlauf_12-3);}.cls-18{fill:url(#Unbenannter_Verlauf_12-4);}.cls-19{fill:url(#Unbenannter_Verlauf_12-5);}.cls-20{fill:url(#Unbenannter_Verlauf_12-6);}.cls-21{fill:url(#Unbenannter_Verlauf_12-7);}.cls-22{stroke:#be61a2;}.cls-23{stroke:#1d1d1b;}</style><linearGradient id="Unbenannter_Verlauf_12" x1="1243.3" y1="561.53" x2="1276.16" y2="561.53" gradientUnits="userSpaceOnUse"><stop offset="0" stop-color="#981869"/><stop offset="0.19" stop-color="#771c65"/><stop offset="0.4" stop-color="#591f62"/><stop offset="0.61" stop-color="#432260"/><stop offset="0.81" stop-color="#36235e"/><stop offset="1" stop-color="#32245e"/></linearGradient><linearGradient id="Unbenannter_Verlauf_12-2" x1="1300.42" y1="565.9" x2="1335.16" y2="565.9" xlink:href="#Unbenannter_Verlauf_12"/><linearGradient id="Unbenannter_Verlauf_12-3" x1="1300.42" y1="552.89" x2="1335.32" y2="552.89" xlink:href="#Unbenannter_Verlauf_12"/><linearGradient id="Unbenannter_Verlauf_12-4" x1="220.77" y1="553.8" x2="256.48" y2="553.8" xlink:href="#Unbenannter_Verlauf_12"/><linearGradient id="Unbenannter_Verlauf_12-5" x1="678.12" y1="188.09" x2="710.98" y2="188.09" xlink:href="#Unbenannter_Verlauf_12"/><linearGradient id="Unbenannter_Verlauf_12-6" x1="735.23" y1="192.45" x2="769.98" y2="192.45" xlink:href="#Unbenannter_Verlauf_12"/><linearGradient id="Unbenannter_Verlauf_12-7" x1="735.23" y1="179.44" x2="770.14" y2="179.44" xlink:href="#Unbenannter_Verlauf_12"/></defs><g id="Ebene_2" data-name="Ebene 2"><g id="Ebene_1-2" data-name="Ebene 1"><line class="cls-1" x1="1611.06" y1="487.97" x2="1329.52" y2="487.97"/><polygon class="cls-2" points="2 655.09 2 684.13 235.58 818.93 260.77 804.41 2 655.09"/><polygon class="cls-3" points="2 684.13 2 414.68 235.58 279.89 469.02 414.68 469.02 684.13 235.58 818.93 2 684.13"/><polygon class="cls-4" points="120.57 748.61 129.68 732.67 253.94 804.41 235.58 815.08 120.57 748.61"/><path class="cls-5" d="M169.68,761.56a3.84,3.84,0,0,1,2.13,2.57,3.61,3.61,0,0,1-.57,3.13l-.71,1.14a3.62,3.62,0,0,1-2.56,2,4,4,0,0,1-3.28-.57l-3.55-2,.42-.71,1,.42,3.84-6.69-.85-.71.42-.71,1,.57Zm-2,0-3.84,6.69,1.42.86a2.6,2.6,0,0,0,2.28.28,3.79,3.79,0,0,0,1.85-1.56l.71-1.14a3.45,3.45,0,0,0,.43-2.28,2.6,2.6,0,0,0-1.42-1.85Z"/><path class="cls-5" d="M171.53,769.54a4.45,4.45,0,0,1,2.13-1.86,2.77,2.77,0,0,1,2.56.29,3,3,0,0,1,1.57,2.13,3.67,3.67,0,0,1-.57,2.71l-.14.14a3.76,3.76,0,0,1-2.14,1.85,3.26,3.26,0,0,1-2.56-.28,3,3,0,0,1-1.57-2.14,3.58,3.58,0,0,1,.72-2.84Zm1,.71a3.5,3.5,0,0,0-.57,1.85,1.74,1.74,0,0,0,.86,1.42,1.5,1.5,0,0,0,1.56,0,3.41,3.41,0,0,0,1.43-1.42l.14-.15a3.41,3.41,0,0,0,.57-1.85,1.75,1.75,0,0,0-.86-1.42,1.55,1.55,0,0,0-1.56,0,3.41,3.41,0,0,0-1.57,1.57Z"/><path class="cls-5" d="M179.5,777.36a1.68,1.68,0,0,0,1.14.29,1.45,1.45,0,0,0,1-.57l1,.57h0a2.06,2.06,0,0,1-1.57,1,2.91,2.91,0,0,1-2.13-.42,3.25,3.25,0,0,1-1.57-2.14,3.92,3.92,0,0,1,.57-2.7l.14-.29a5,5,0,0,1,2-1.85,2.78,2.78,0,0,1,2.56.29,2.67,2.67,0,0,1,1.14,1,2.63,2.63,0,0,1,.57,1.29l-.71,1.42-.86-.57.29-1.14a1.11,1.11,0,0,0-.29-.57,3.14,3.14,0,0,0-.71-.57,1.83,1.83,0,0,0-1.71-.14,2.51,2.51,0,0,0-1.28,1.42l-.14.29a3.11,3.11,0,0,0-.57,1.85A2.09,2.09,0,0,0,179.5,777.36Z"/><path class="cls-5" d="M187.33,771.81l.42-.71,2.14,1.14-3,5.27.71.42,2.28-.85-.57-.43.43-.71,2.56,1.57-.43.71-.85-.29-2.85,1,.57,3.7.57.57-.43.71-2.56-1.56.43-.72.57.29-.43-3-.71-.43-1.14,2,.85.71-.42.71-3-1.71.42-.71,1,.43,4.13-7.26Z"/><path class="cls-5" d="M192.45,786.05a3,3,0,0,1-1.57-2.14,3.92,3.92,0,0,1,.57-2.7l.15-.29a3.66,3.66,0,0,1,2.13-1.71,2.86,2.86,0,0,1,2.42.15,2.58,2.58,0,0,1,1.42,1.85,3.19,3.19,0,0,1-.57,2.42l-.42.71-4-2.28h0a3.85,3.85,0,0,0-.42,1.71,1.61,1.61,0,0,0,.85,1.28,1.93,1.93,0,0,0,1.14.43h1v1a1.46,1.46,0,0,1-1.13,0A3.3,3.3,0,0,1,192.45,786.05Zm3.13-5.7a1.4,1.4,0,0,0-1.28-.14,2.24,2.24,0,0,0-1.14.85h0l2.85,1.71.14-.14a2.08,2.08,0,0,0,.29-1.28A2,2,0,0,0,195.58,780.35Z"/><path class="cls-5" d="M199.28,782.49l.43-.71,2,1.13-.42,1a4,4,0,0,1,1.13-.43,1.19,1.19,0,0,1,1,.29c.14,0,.14.14.28.14a.14.14,0,0,1,.15.14l-.71,1-.57-.43a2.07,2.07,0,0,0-.86-.28,2,2,0,0,0-.85.28l-2.14,3.56.86.71-.43.72-3-1.71.43-.71,1,.42,2.57-4.41Z"/><path class="cls-6" d="M48,691.39l.42-.71,2.14,1.14-3,5.26.71.43,2.28-.85-.57-.43.43-.71L53,697.08l-.43.72-.85-.29-2.85,1,.57,3.7.57.57-.43.71L47,701.92l.43-.71.57.29-.43-3-.71-.43-1.14,2,.85.72-.42.71-3-1.71.42-.71,1,.42,4.13-7.26Z"/><path class="cls-6" d="M55.52,705.62a1.89,1.89,0,0,1-1.14.29,4,4,0,0,1-1.28-.29,2.29,2.29,0,0,1-1.28-1.56,4.25,4.25,0,0,1,.57-2.42L54,698.79l-.57-.57.43-.71.71.43,1.14.71-2.13,3.7c-.43.71-.57,1.14-.43,1.57a.9.9,0,0,0,.71.85,1.9,1.9,0,0,0,1.14.29,2.11,2.11,0,0,0,1-.29l2.13-3.56-.71-.71.43-.71.85.43,1.14.71-3.13,5.41.57.57-.43.71-1.71-1Z"/><path class="cls-6" d="M65.06,708.47a4.54,4.54,0,0,1-1.85,1.85,2.55,2.55,0,0,1-2.28-.14,6.9,6.9,0,0,1-1-.85,2.77,2.77,0,0,1-.28-1.14l-.57.71-1-.57,4.7-8.11-.86-.72.43-.71,2.14,1.14-2,3.56a3.48,3.48,0,0,1,1.14-.29,1.93,1.93,0,0,1,1.14.43,2.77,2.77,0,0,1,1.28,2,5.27,5.27,0,0,1-1,2.85Zm-1-.71a3.85,3.85,0,0,0,.57-2,1.76,1.76,0,0,0-.85-1.43,2.74,2.74,0,0,0-1-.28,2.69,2.69,0,0,0-1,.28l-1.56,2.71a2.1,2.1,0,0,0,.14,1,1.76,1.76,0,0,0,.71.72,2.06,2.06,0,0,0,1.57.14c.57,0,1-.43,1.42-1.14Z"/><path class="cls-6" d="M67.33,713.74a3,3,0,0,1-1.56-2.14,3.92,3.92,0,0,1,.57-2.7l.14-.29a3.63,3.63,0,0,1,2.13-1.7,2.83,2.83,0,0,1,2.42.14,2.59,2.59,0,0,1,1.43,1.85,3.24,3.24,0,0,1-.57,2.42l-.43.85-4.13-2.28h0a3.85,3.85,0,0,0-.42,1.71,1.61,1.61,0,0,0,.85,1.28,1.87,1.87,0,0,0,1.14.43h1v1a1.59,1.59,0,0,1-1.14,0A3.78,3.78,0,0,1,67.33,713.74Zm3.14-5.7a1.42,1.42,0,0,0-1.29-.14,2.19,2.19,0,0,0-1.13.86h0l2.84,1.7.14-.14a2.08,2.08,0,0,0,.29-1.28C71.32,708.61,70.89,708.33,70.47,708Z"/><path class="cls-6" d="M75.59,707.33l.43-.71,2.13,1.14-4.7,8.11.86.71-.43.72-3-1.71.43-.71,1,.42L76.44,708Z"/><path class="cls-6" d="M77.44,719.57a3,3,0,0,1-1.57-2.13,3.94,3.94,0,0,1,.57-2.71l.15-.28a3.66,3.66,0,0,1,2.13-1.71,2.9,2.9,0,0,1,2.42.14,2.6,2.6,0,0,1,1.42,1.85,3.17,3.17,0,0,1-.57,2.42l-.42.72-4.13-2.28h0A3.86,3.86,0,0,0,77,717.3a1.64,1.64,0,0,0,.86,1.28A1.89,1.89,0,0,0,79,719h1v1a1.59,1.59,0,0,1-1.14,0C78.44,720.14,78,719.86,77.44,719.57Zm3-5.69a1.4,1.4,0,0,0-1.28-.14,2.2,2.2,0,0,0-1.14.85h0l2.85,1.71.14-.14a2.16,2.16,0,0,0,.28-1.28C81.28,714.45,81,714.17,80.43,713.88Z"/><path class="cls-6" d="M87.55,714.88l-.86,1.56,1.14.71-.43.86-1.14-.71-2.13,3.84c-.14.28-.28.57-.14.71s.14.29.42.43a22.86,22.86,0,0,1,.57.28l-.28.86a1,1,0,0,1-.57-.15c-.28-.14-.43-.14-.71-.28a1.93,1.93,0,0,1-.86-1,2.17,2.17,0,0,1,.29-1.56L85,716.58,84,716l.42-.86,1,.57.85-1.56Z"/><polygon class="cls-2" points="529.17 377.52 529.17 406.55 762.75 541.35 787.94 526.83 529.17 377.52"/><polygon class="cls-3" points="529.17 406.55 529.17 137.1 762.75 2.31 996.18 137.1 996.18 406.55 762.75 541.35 529.17 406.55"/><polygon class="cls-4" points="647.74 471.03 656.85 455.09 781.11 526.83 762.75 537.5 647.74 471.03"/><path class="cls-5" d="M696.84,484a3.84,3.84,0,0,1,2.14,2.56,3.65,3.65,0,0,1-.57,3.13l-.71,1.14a3.62,3.62,0,0,1-2.56,2,4,4,0,0,1-3.28-.57l-3.56-2,.43-.71,1,.42,3.84-6.69-.85-.71.42-.71,1,.57Zm-2,0L691,490.68l1.42.85a2.59,2.59,0,0,0,2.28.28,3.79,3.79,0,0,0,1.85-1.56l.71-1.14a3.44,3.44,0,0,0,.43-2.28,2.59,2.59,0,0,0-1.43-1.85Z"/><path class="cls-5" d="M698.69,492a4.4,4.4,0,0,1,2.14-1.85,2.74,2.74,0,0,1,2.56.28,3,3,0,0,1,1.57,2.14,3.64,3.64,0,0,1-.57,2.7l-.14.14a3.79,3.79,0,0,1-2.14,1.85,3.22,3.22,0,0,1-2.56-.28A3,3,0,0,1,698,494.8a3.61,3.61,0,0,1,.71-2.84Zm1,.71a3.41,3.41,0,0,0-.57,1.85,1.72,1.72,0,0,0,.86,1.42,1.5,1.5,0,0,0,1.56,0,3.34,3.34,0,0,0,1.42-1.42l.15-.14a3.53,3.53,0,0,0,.57-1.85,1.75,1.75,0,0,0-.86-1.43,1.55,1.55,0,0,0-1.56,0,3.36,3.36,0,0,0-1.57,1.57Z"/><path class="cls-5" d="M706.67,499.79a1.71,1.71,0,0,0,1.13.28,1.41,1.41,0,0,0,1-.57l1,.57h0a2.1,2.1,0,0,1-1.57,1,2.92,2.92,0,0,1-2.13-.43,3.25,3.25,0,0,1-1.57-2.14,3.93,3.93,0,0,1,.57-2.7l.14-.28a5,5,0,0,1,2-1.86,2.8,2.8,0,0,1,2.57.29,2.63,2.63,0,0,1,1.14,1,2.54,2.54,0,0,1,.56,1.28l-.71,1.42-.85-.57.28-1.14a1.12,1.12,0,0,0-.28-.57,3.44,3.44,0,0,0-.71-.57,1.86,1.86,0,0,0-1.71-.14,2.54,2.54,0,0,0-1.28,1.42l-.14.29a3.11,3.11,0,0,0-.57,1.85A2.12,2.12,0,0,0,706.67,499.79Z"/><path class="cls-5" d="M714.49,494.23l.43-.71,2.14,1.14-3,5.27.71.42,2.28-.85-.57-.43.42-.71,2.57,1.57-.43.71-.86-.29-2.84,1,.57,3.7.57.57-.43.71-2.56-1.56.42-.71.57.28-.42-3-.71-.43-1.14,2,.85.71-.43.71-3-1.71.43-.71,1,.43,4.13-7.26Z"/><path class="cls-5" d="M719.62,508.47a3,3,0,0,1-1.57-2.14,3.93,3.93,0,0,1,.57-2.7l.14-.29a3.62,3.62,0,0,1,2.14-1.7,2.83,2.83,0,0,1,2.42.14,2.6,2.6,0,0,1,1.42,1.85,3.24,3.24,0,0,1-.57,2.42l-.42.71-4-2.28h0a3.86,3.86,0,0,0-.43,1.71,1.63,1.63,0,0,0,.86,1.28,1.85,1.85,0,0,0,1.14.43h1v1a1.59,1.59,0,0,1-1.14,0A3.28,3.28,0,0,1,719.62,508.47Zm3.13-5.7a1.4,1.4,0,0,0-1.28-.14,2.17,2.17,0,0,0-1.14.86h0l2.85,1.7.14-.14a2.13,2.13,0,0,0,.28-1.28A1.9,1.9,0,0,0,722.75,502.77Z"/><path class="cls-5" d="M726.45,504.91l.43-.71,2,1.14-.43,1a3.87,3.87,0,0,1,1.14-.42,1.23,1.23,0,0,1,1,.28c.14,0,.14.14.28.14a.15.15,0,0,1,.15.15l-.72,1-.57-.43a2,2,0,0,0-.85-.28,2,2,0,0,0-.85.28l-2.14,3.56.86.72-.43.71-3-1.71.43-.71,1,.42,2.56-4.41Z"/><path class="cls-6" d="M575.14,413.81l.43-.71,2.14,1.14-3,5.27.71.42,2.28-.85-.57-.43.42-.71,2.57,1.57-.43.71-.86-.29-2.84,1,.57,3.7.57.57-.43.71-2.56-1.56.42-.72.57.29-.42-3-.71-.43-1.14,2,.85.71-.43.71-3-1.71.43-.71,1,.43,4.13-7.26Z"/><path class="cls-6" d="M582.69,428.05a2,2,0,0,1-1.14.28,4.21,4.21,0,0,1-1.28-.28,2.32,2.32,0,0,1-1.28-1.57,4.17,4.17,0,0,1,.57-2.42l1.56-2.85-.57-.57.43-.71.71.43,1.14.71-2.13,3.7c-.43.71-.57,1.14-.43,1.57a.89.89,0,0,0,.71.85,1.89,1.89,0,0,0,1.14.29,2,2,0,0,0,1-.29l2.14-3.56-.71-.71.43-.71.85.43,1.14.71-3.13,5.41.57.57L584,430l-1.71-1Z"/><path class="cls-6" d="M592.22,430.89a4.43,4.43,0,0,1-1.85,1.85,2.53,2.53,0,0,1-2.27-.14,6.33,6.33,0,0,1-1-.85,2.73,2.73,0,0,1-.28-1.14l-.57.71-1-.57,4.7-8.11-.86-.71.43-.72,2.14,1.14-2,3.56a3.4,3.4,0,0,1,1.14-.28,1.92,1.92,0,0,1,1.14.42,2.77,2.77,0,0,1,1.28,2,5.21,5.21,0,0,1-1,2.84Zm-1-.71a3.85,3.85,0,0,0,.57-2,1.72,1.72,0,0,0-.86-1.42,2.49,2.49,0,0,0-1-.29,2.53,2.53,0,0,0-1,.29l-1.56,2.7a2.16,2.16,0,0,0,.14,1,1.68,1.68,0,0,0,.71.71,2,2,0,0,0,1.56.14c.57,0,1-.43,1.43-1.14Z"/><path class="cls-6" d="M594.5,436.16a3,3,0,0,1-1.56-2.14,3.87,3.87,0,0,1,.57-2.7l.14-.28a3.61,3.61,0,0,1,2.13-1.71,2.83,2.83,0,0,1,2.42.14,2.61,2.61,0,0,1,1.43,1.85,3.23,3.23,0,0,1-.57,2.42l-.43.85-4.13-2.27h0a3.86,3.86,0,0,0-.43,1.7,1.66,1.66,0,0,0,.86,1.29,1.92,1.92,0,0,0,1.14.42h1v1a1.56,1.56,0,0,1-1.13,0A3.78,3.78,0,0,1,594.5,436.16Zm3.13-5.69a1.37,1.37,0,0,0-1.28-.15,2.31,2.31,0,0,0-1.14.86h0l2.85,1.71.14-.15a2.07,2.07,0,0,0,.29-1.28C598.49,431,598.06,430.75,597.63,430.47Z"/><path class="cls-6" d="M602.76,429.75l.42-.71,2.14,1.14-4.7,8.11.86.72-.43.71-3-1.71.43-.71,1,.43,4.13-7.26Z"/><path class="cls-6" d="M604.61,442a3,3,0,0,1-1.57-2.14,3.92,3.92,0,0,1,.57-2.7l.14-.29a3.68,3.68,0,0,1,2.14-1.71,2.86,2.86,0,0,1,2.42.15,2.56,2.56,0,0,1,1.42,1.85,3.24,3.24,0,0,1-.57,2.42l-.42.71L604.61,438h0a3.73,3.73,0,0,0-.43,1.71A1.64,1.64,0,0,0,605,441a1.9,1.9,0,0,0,1.13.43h1v1a1.49,1.49,0,0,1-1.14,0C605.6,442.57,605.18,442.28,604.61,442Zm3-5.7a1.4,1.4,0,0,0-1.28-.14,2.2,2.2,0,0,0-1.14.85h0l2.84,1.71.15-.14a2.14,2.14,0,0,0,.28-1.28C608.45,436.87,608.17,436.59,607.6,436.3Z"/><path class="cls-6" d="M614.71,437.3l-.85,1.56,1.14.72-.43.85-1.14-.71-2.13,3.84c-.14.29-.29.57-.14.71s.14.29.42.43a22.86,22.86,0,0,1,.57.28l-.28.86a1.09,1.09,0,0,1-.57-.14c-.29-.15-.43-.15-.71-.29a1.9,1.9,0,0,1-.86-1,2.19,2.19,0,0,1,.29-1.57l2.13-3.84-1-.57.42-.86,1,.57.85-1.56Z"/><path class="cls-7" d="M1244.54,670.33V669.1l1.59-.28v-7.54l-1.59-.28v-1.24h3.32l.13,1.38a3.41,3.41,0,0,1,1.31-1.16,3.91,3.91,0,0,1,1.85-.41,3.34,3.34,0,0,1,1.82.48,3,3,0,0,1,1.13,1.47,4,4,0,0,1,1.32-1.43,3.5,3.5,0,0,1,1.92-.52,3.15,3.15,0,0,1,2.55,1.11,5,5,0,0,1,.94,3.33v4.81l1.59.28v1.23h-5.11V669.1l1.59-.28V664a3.49,3.49,0,0,0-.54-2.21,2,2,0,0,0-1.59-.65,2,2,0,0,0-1.62.71,3.06,3.06,0,0,0-.7,1.78v5.2l1.59.28v1.23h-5.11V669.1l1.59-.28V664a3.44,3.44,0,0,0-.55-2.17,1.93,1.93,0,0,0-1.6-.69,2.65,2.65,0,0,0-1.44.36,2.3,2.3,0,0,0-.87,1v6.31l1.59.28v1.23Z"/><path class="cls-7" d="M1267.27,670.53a3.52,3.52,0,0,1-2.51-.8,3,3,0,0,1-.86-2.27,2.83,2.83,0,0,1,.55-1.75,3.58,3.58,0,0,1,1.6-1.17,6.89,6.89,0,0,1,2.5-.41h1.88v-1a1.89,1.89,0,0,0-.58-1.48,2.36,2.36,0,0,0-1.64-.53,3.63,3.63,0,0,0-1.15.16,3.55,3.55,0,0,0-.89.45l-.2,1.47h-1.49v-2.42a5,5,0,0,1,1.66-.87,7,7,0,0,1,2.1-.3,4.56,4.56,0,0,1,3,.91,3.26,3.26,0,0,1,1.1,2.63v5.49c0,.13,0,.26,0,.39l1,.11v1.23h-2.76c-.06-.29-.11-.54-.14-.77s-.06-.46-.07-.69a4.6,4.6,0,0,1-1.39,1.19A3.62,3.62,0,0,1,1267.27,670.53Zm.28-1.61a3.39,3.39,0,0,0,1.75-.46,2.79,2.79,0,0,0,1.13-1.1v-1.91h-2a2.78,2.78,0,0,0-2,.63,1.91,1.91,0,0,0-.67,1.42,1.35,1.35,0,0,0,.43,1.06A2,2,0,0,0,1267.55,668.92Z"/><path class="cls-7" d="M1274.88,670.33V669.1l1.6-.28v-7.54l-1.6-.28v-1.24h3.32l.16,1.35,0,.18a3.7,3.7,0,0,1,1.11-1.26,2.55,2.55,0,0,1,1.51-.46,3.31,3.31,0,0,1,.62,0l.45.1-.25,1.79-1.34-.08a1.88,1.88,0,0,0-1.28.35,2.62,2.62,0,0,0-.8,1.06v6l1.59.28v1.23Z"/><path class="cls-7" d="M1283.18,670.33V669.1l1.59-.28v-7.54l-1.59-.28v-1.24h3.51v9.06l1.59.28v1.23Zm1.49-13.18v-2.06h2v2.06Z"/><path class="cls-7" d="M1293,670.53a3.52,3.52,0,0,1-2.51-.8,3,3,0,0,1-.86-2.27,2.83,2.83,0,0,1,.55-1.75,3.58,3.58,0,0,1,1.6-1.17,6.89,6.89,0,0,1,2.5-.41h1.88v-1a1.89,1.89,0,0,0-.58-1.48,2.35,2.35,0,0,0-1.63-.53,3.65,3.65,0,0,0-1.16.16,3.32,3.32,0,0,0-.88.45l-.21,1.47h-1.48v-2.42a4.78,4.78,0,0,1,1.66-.87,6.92,6.92,0,0,1,2.1-.3,4.55,4.55,0,0,1,3,.91,3.26,3.26,0,0,1,1.1,2.63v5.49a2.56,2.56,0,0,0,0,.39l1,.11v1.23h-2.76c-.06-.29-.11-.54-.14-.77s0-.46-.07-.69a4.6,4.6,0,0,1-1.39,1.19A3.62,3.62,0,0,1,1293,670.53Zm.28-1.61a3.39,3.39,0,0,0,1.75-.46,2.73,2.73,0,0,0,1.13-1.1v-1.91h-2a2.78,2.78,0,0,0-2,.63,1.94,1.94,0,0,0-.67,1.42,1.35,1.35,0,0,0,.43,1.06A2,2,0,0,0,1293.31,668.92Z"/><path class="cls-7" d="M1304.82,670.53a3.79,3.79,0,0,1-2.22-.64,4.07,4.07,0,0,1-1.41-1.78,6.82,6.82,0,0,1-.49-2.66v-.21a8.5,8.5,0,0,1,.49-3,4.41,4.41,0,0,1,1.42-2,3.52,3.52,0,0,1,2.23-.71,3.77,3.77,0,0,1,1.65.34,3.49,3.49,0,0,1,1.23,1v-4.3l-1.6-.28v-1.24h3.52v13.73l1.59.28v1.23H1308l-.16-1.26a3.29,3.29,0,0,1-1.26,1.09A3.83,3.83,0,0,1,1304.82,670.53Zm.48-1.56a2.55,2.55,0,0,0,1.45-.39,3.07,3.07,0,0,0,1-1.1v-4.91a3,3,0,0,0-1-1.05,2.55,2.55,0,0,0-1.43-.39,2.2,2.2,0,0,0-1.51.52,3.14,3.14,0,0,0-.89,1.45,7.24,7.24,0,0,0-.29,2.14v.21a4.5,4.5,0,0,0,.65,2.55A2.26,2.26,0,0,0,1305.3,669Z"/><path class="cls-7" d="M1318.18,670.53a3.92,3.92,0,0,1-1.8-.39,3.38,3.38,0,0,1-1.27-1.17l-.18,1.36h-1.66V656.61l-1.59-.28v-1.24h3.52V661a3.32,3.32,0,0,1,1.23-1.07,3.77,3.77,0,0,1,1.73-.37,3.52,3.52,0,0,1,2.23.71,4.47,4.47,0,0,1,1.41,2,8.27,8.27,0,0,1,.5,3v.21a6.64,6.64,0,0,1-.5,2.66,4.07,4.07,0,0,1-1.41,1.78A3.78,3.78,0,0,1,1318.18,670.53Zm-.49-1.56a2.26,2.26,0,0,0,2-1,4.42,4.42,0,0,0,.66-2.55v-.21a6.93,6.93,0,0,0-.29-2.14,3.14,3.14,0,0,0-.89-1.45,2.2,2.2,0,0,0-1.51-.52,2.53,2.53,0,0,0-1.5.43,3,3,0,0,0-1,1.15v4.67a2.94,2.94,0,0,0,1,1.16A2.54,2.54,0,0,0,1317.69,669Z"/><text/><text class="cls-8" transform="translate(243.41 166.17)">1. cas attest<tspan x="0" y="24">2. create session</tspan><tspan x="0" y="48" xml:space="preserve">    $DBSESSION, </tspan><tspan x="0" y="72" xml:space="preserve">    $DBCLIENT</tspan></text><text class="cls-8" transform="translate(579.71 628.2)">3. helm install mariadb </text><path class="cls-6" d="M1615.11,347.46v-1.23l1.59-.27v-7.55l-1.59-.27V336.9h3.31l.14,1.57a3.81,3.81,0,0,1,1.32-1.3,3.55,3.55,0,0,1,1.82-.47,3.47,3.47,0,0,1,2.64,1,4.38,4.38,0,0,1,.94,3.09V346l1.59.27v1.23h-5.11v-1.23l1.6-.27v-5.13a2.84,2.84,0,0,0-.56-2,2.2,2.2,0,0,0-1.68-.59,2.79,2.79,0,0,0-1.47.4,2.92,2.92,0,0,0-1,1.1V346l1.59.27v1.23Z"/><path class="cls-6" d="M1632.86,347.67a4.37,4.37,0,0,1-4.16-2.59,6.34,6.34,0,0,1-.58-2.78v-.22a6.37,6.37,0,0,1,.58-2.78,4.52,4.52,0,0,1,1.63-1.9,4.87,4.87,0,0,1,5,0,4.55,4.55,0,0,1,1.64,1.9,6.48,6.48,0,0,1,.57,2.78v.22a6.5,6.5,0,0,1-.57,2.79,4.34,4.34,0,0,1-4.14,2.58Zm0-1.51a2.36,2.36,0,0,0,1.54-.5,3,3,0,0,0,.93-1.37,5.89,5.89,0,0,0,.32-2v-.22a5.79,5.79,0,0,0-.32-2,3,3,0,0,0-.94-1.38,2.65,2.65,0,0,0-3.1,0,3,3,0,0,0-.93,1.38,5.79,5.79,0,0,0-.32,2v.22a5.89,5.89,0,0,0,.32,2,3,3,0,0,0,.94,1.37A2.39,2.39,0,0,0,1632.86,346.16Z"/><path class="cls-6" d="M1643.55,347.67a3.74,3.74,0,0,1-2.21-.64,4,4,0,0,1-1.41-1.78,6.66,6.66,0,0,1-.49-2.67v-.2a8.2,8.2,0,0,1,.49-3,4.37,4.37,0,0,1,1.41-2,3.58,3.58,0,0,1,2.23-.71,3.79,3.79,0,0,1,1.66.35,3.43,3.43,0,0,1,1.22,1v-4.31l-1.59-.27v-1.24h3.51V346l1.6.27v1.23h-3.27l-.15-1.26a3.42,3.42,0,0,1-1.27,1.1A3.9,3.9,0,0,1,1643.55,347.67Zm.49-1.56a2.54,2.54,0,0,0,1.44-.39,2.94,2.94,0,0,0,1-1.11v-4.9a3,3,0,0,0-1-1,2.45,2.45,0,0,0-1.42-.4,2.23,2.23,0,0,0-1.52.53,3.15,3.15,0,0,0-.88,1.44,7,7,0,0,0-.3,2.15v.2a4.46,4.46,0,0,0,.66,2.56A2.28,2.28,0,0,0,1644,346.11Z"/><path class="cls-6" d="M1656.06,347.67a4.71,4.71,0,0,1-2.55-.67,4.49,4.49,0,0,1-1.67-1.86,6,6,0,0,1-.59-2.75V342a5.62,5.62,0,0,1,.62-2.69,4.88,4.88,0,0,1,1.65-1.88,3.93,3.93,0,0,1,2.25-.69,4.55,4.55,0,0,1,2.39.59,3.73,3.73,0,0,1,1.45,1.64,6,6,0,0,1,.48,2.5v1.2h-6.85l0,.05a4.58,4.58,0,0,0,.36,1.8,2.8,2.8,0,0,0,1,1.24,2.55,2.55,0,0,0,1.52.44,5,5,0,0,0,1.71-.27,3.9,3.9,0,0,0,1.28-.77l.75,1.25a4.73,4.73,0,0,1-1.5.92A6,6,0,0,1,1656.06,347.67Zm-2.76-6.54h4.87v-.26a3.27,3.27,0,0,0-.27-1.36,2.19,2.19,0,0,0-.8-.95,2.39,2.39,0,0,0-1.33-.34,2,2,0,0,0-1.17.37,2.72,2.72,0,0,0-.87,1,4.22,4.22,0,0,0-.45,1.47Z"/><path class="cls-6" d="M1625.22,576.25l-3.76-9.18-1.09-.15v-1.24h4.43v1.24l-1.38.2,2.35,6,.27.85h.06l.31-.85,2.18-6-1.42-.2v-1.24h4.43v1.24l-1.12.15-3.57,9.18Z"/><path class="cls-6" d="M1637.14,576.46a4.38,4.38,0,0,1-4.16-2.6,6.45,6.45,0,0,1-.57-2.78v-.21a6.48,6.48,0,0,1,.57-2.78,4.57,4.57,0,0,1,1.64-1.91,4.49,4.49,0,0,1,2.5-.69,4.36,4.36,0,0,1,4.16,2.6,6.28,6.28,0,0,1,.58,2.78v.21a6.36,6.36,0,0,1-.58,2.79,4.4,4.4,0,0,1-1.63,1.9A4.47,4.47,0,0,1,1637.14,576.46Zm0-1.51a2.37,2.37,0,0,0,1.54-.5,3.09,3.09,0,0,0,.94-1.38,5.81,5.81,0,0,0,.32-2v-.21a5.89,5.89,0,0,0-.32-2,3.06,3.06,0,0,0-.94-1.37,2.4,2.4,0,0,0-1.56-.51,2.36,2.36,0,0,0-1.54.51,3,3,0,0,0-.94,1.37,6.16,6.16,0,0,0-.31,2v.21a6.07,6.07,0,0,0,.31,2,3,3,0,0,0,.95,1.38A2.44,2.44,0,0,0,1637.14,575Z"/><path class="cls-6" d="M1643.05,576.25V575l1.59-.27V562.53l-1.59-.27V561h3.52v13.73l1.59.27v1.23Z"/><path class="cls-6" d="M1654.17,576.46a3.36,3.36,0,0,1-2.68-1.11,5.08,5.08,0,0,1-1-3.44V567.2l-1.21-.28v-1.24h3.14v6.25a4,4,0,0,0,.49,2.33,1.87,1.87,0,0,0,1.56.63,3.23,3.23,0,0,0,1.69-.41,2.6,2.6,0,0,0,1-1.18v-6.1l-1.41-.28v-1.24h3.34v9.07l1.21.27v1.23h-2.94l-.13-1.56A3.66,3.66,0,0,1,1656,576,3.62,3.62,0,0,1,1654.17,576.46Z"/><path class="cls-6" d="M1661.68,576.25V575l1.6-.27V567.2l-1.6-.28v-1.24H1665l.13,1.38a3.48,3.48,0,0,1,1.31-1.16,4,4,0,0,1,1.86-.41,3.25,3.25,0,0,1,1.81.49,2.91,2.91,0,0,1,1.13,1.46,4,4,0,0,1,1.32-1.42,3.42,3.42,0,0,1,1.92-.53,3.18,3.18,0,0,1,2.56,1.11,5.09,5.09,0,0,1,.93,3.33v4.82l1.6.27v1.23h-5.12V575l1.59-.27v-4.84a3.49,3.49,0,0,0-.54-2.21,2,2,0,0,0-1.59-.65,2,2,0,0,0-1.62.71,3.09,3.09,0,0,0-.7,1.78v5.21l1.59.27v1.23h-5.11V575l1.59-.27v-4.84a3.44,3.44,0,0,0-.55-2.17,1.93,1.93,0,0,0-1.6-.69,2.65,2.65,0,0,0-1.44.36,2.3,2.3,0,0,0-.87,1v6.32l1.59.27v1.23Z"/><path class="cls-6" d="M1685.66,576.46a4.8,4.8,0,0,1-2.55-.67,4.49,4.49,0,0,1-1.67-1.86,6.09,6.09,0,0,1-.6-2.76v-.43a5.77,5.77,0,0,1,.62-2.69,5,5,0,0,1,1.66-1.87,3.93,3.93,0,0,1,2.25-.69,4.4,4.4,0,0,1,2.38.59,3.56,3.56,0,0,1,1.45,1.64,5.87,5.87,0,0,1,.49,2.5v1.2h-6.85l0,.05a4.85,4.85,0,0,0,.35,1.8,2.86,2.86,0,0,0,1,1.23,2.55,2.55,0,0,0,1.52.45,4.72,4.72,0,0,0,1.71-.28,4,4,0,0,0,1.28-.76l.75,1.25a4.73,4.73,0,0,1-1.5.92A6,6,0,0,1,1685.66,576.46Zm-2.76-6.55h4.87v-.25a3.27,3.27,0,0,0-.27-1.36,2.19,2.19,0,0,0-.8-.95,2.42,2.42,0,0,0-1.33-.35,2,2,0,0,0-1.18.38,2.79,2.79,0,0,0-.86,1,4.23,4.23,0,0,0-.45,1.46Z"/><path class="cls-6" d="M1621.84,630.06v-1.23l1.59-.27V616.34l-1.59-.27v-1.24h3.51v6.07a4,4,0,0,1,1.34-1.18,3.72,3.72,0,0,1,1.76-.42,3.42,3.42,0,0,1,2.64,1,4.49,4.49,0,0,1,.93,3.12v5.12l1.6.27v1.23h-5.11v-1.23l1.59-.27v-5.14a2.85,2.85,0,0,0-.56-1.93,2.14,2.14,0,0,0-1.68-.63,2.87,2.87,0,0,0-1.44.38,3.16,3.16,0,0,0-1.07,1v6.3l1.6.27v1.23Z"/><path class="cls-6" d="M1639.59,630.27a4.76,4.76,0,0,1-2.55-.67,4.49,4.49,0,0,1-1.67-1.86,6.15,6.15,0,0,1-.59-2.75v-.43a5.74,5.74,0,0,1,.62-2.69,4.88,4.88,0,0,1,1.65-1.88,4,4,0,0,1,2.25-.69,4.53,4.53,0,0,1,2.39.59,3.73,3.73,0,0,1,1.45,1.64,6,6,0,0,1,.49,2.5v1.2h-6.86l0,0a4.58,4.58,0,0,0,.36,1.8,2.87,2.87,0,0,0,1,1.24,2.55,2.55,0,0,0,1.52.44,5,5,0,0,0,1.72-.27,4.15,4.15,0,0,0,1.27-.77l.75,1.25a4.62,4.62,0,0,1-1.5.92A6,6,0,0,1,1639.59,630.27Zm-2.76-6.54h4.87v-.26a3.27,3.27,0,0,0-.27-1.36,2.13,2.13,0,0,0-.8-1,2.39,2.39,0,0,0-1.33-.34,2,2,0,0,0-1.17.37,2.91,2.91,0,0,0-.87,1,4.22,4.22,0,0,0-.45,1.47Z"/><path class="cls-6" d="M1645,630.06v-1.23l1.59-.27V616.34l-1.59-.27v-1.24h3.52v13.73l1.59.27v1.23Z"/><path class="cls-6" d="M1651.5,630.06v-1.23l1.59-.27V621l-1.59-.27V619.5h3.32l.12,1.37a3.57,3.57,0,0,1,1.31-1.16,4.11,4.11,0,0,1,1.86-.41,3.25,3.25,0,0,1,1.81.49,3,3,0,0,1,1.14,1.46,3.92,3.92,0,0,1,1.32-1.42,3.44,3.44,0,0,1,1.91-.53,3.18,3.18,0,0,1,2.56,1.11,5.1,5.1,0,0,1,.94,3.34v4.81l1.59.27v1.23h-5.12v-1.23l1.59-.27v-4.83a3.6,3.6,0,0,0-.53-2.22,2,2,0,0,0-1.6-.65,2,2,0,0,0-1.61.71,3,3,0,0,0-.71,1.78v5.21l1.59.27v1.23h-5.11v-1.23l1.6-.27v-4.83a3.47,3.47,0,0,0-.56-2.18,1.91,1.91,0,0,0-1.59-.69,2.58,2.58,0,0,0-1.45.37,2.27,2.27,0,0,0-.87,1v6.32l1.59.27v1.23Z"/><path class="cls-6" d="M1675.75,630.06v-1.23l1.6-.27V621l-1.6-.27V619.5h3.32l.16,1.34,0,.19a3.74,3.74,0,0,1,1.11-1.27,2.62,2.62,0,0,1,1.51-.46,3.34,3.34,0,0,1,.62.06,2.63,2.63,0,0,1,.45.1l-.25,1.79-1.34-.08a1.83,1.83,0,0,0-1.28.34,2.69,2.69,0,0,0-.8,1.06v6l1.59.27v1.23Z"/><path class="cls-6" d="M1688.73,630.27a4.76,4.76,0,0,1-2.55-.67,4.49,4.49,0,0,1-1.67-1.86,6.15,6.15,0,0,1-.59-2.75v-.43a5.74,5.74,0,0,1,.62-2.69,4.88,4.88,0,0,1,1.65-1.88,4,4,0,0,1,2.25-.69,4.53,4.53,0,0,1,2.39.59,3.73,3.73,0,0,1,1.45,1.64,6,6,0,0,1,.49,2.5v1.2h-6.86l0,0a4.58,4.58,0,0,0,.36,1.8,2.87,2.87,0,0,0,1,1.24,2.55,2.55,0,0,0,1.52.44,5,5,0,0,0,1.72-.27,4.15,4.15,0,0,0,1.27-.77l.75,1.25a4.51,4.51,0,0,1-1.5.92A6,6,0,0,1,1688.73,630.27Zm-2.76-6.54h4.87v-.26a3.27,3.27,0,0,0-.27-1.36,2.07,2.07,0,0,0-.8-1,2.39,2.39,0,0,0-1.33-.34,2,2,0,0,0-1.17.37,2.91,2.91,0,0,0-.87,1,4.22,4.22,0,0,0-.45,1.47Z"/><path class="cls-6" d="M1694.16,630.06v-1.23l1.59-.27V616.34l-1.59-.27v-1.24h3.52v13.73l1.59.27v1.23Z"/><path class="cls-6" d="M1705.26,630.27a4.71,4.71,0,0,1-2.55-.67,4.59,4.59,0,0,1-1.68-1.86,6.15,6.15,0,0,1-.59-2.75v-.43a5.74,5.74,0,0,1,.62-2.69,5,5,0,0,1,1.65-1.88,4,4,0,0,1,2.25-.69,4.53,4.53,0,0,1,2.39.59,3.67,3.67,0,0,1,1.45,1.64,5.87,5.87,0,0,1,.49,2.5v1.2h-6.86l0,0a4.77,4.77,0,0,0,.35,1.8,3,3,0,0,0,1,1.24,2.58,2.58,0,0,0,1.53.44,5,5,0,0,0,1.71-.27,4,4,0,0,0,1.27-.77L1709,629a4.73,4.73,0,0,1-1.5.92A6,6,0,0,1,1705.26,630.27Zm-2.77-6.54h4.88v-.26a3.27,3.27,0,0,0-.27-1.36,2.19,2.19,0,0,0-.8-1,2.42,2.42,0,0,0-1.34-.34,2,2,0,0,0-1.17.37,2.91,2.91,0,0,0-.87,1,4.44,4.44,0,0,0-.45,1.47Z"/><path class="cls-6" d="M1714.35,630.27a3.52,3.52,0,0,1-2.51-.81,3,3,0,0,1-.86-2.27,2.85,2.85,0,0,1,.55-1.75,3.49,3.49,0,0,1,1.6-1.16,6.67,6.67,0,0,1,2.5-.42h1.88v-1a1.9,1.9,0,0,0-.58-1.49,2.35,2.35,0,0,0-1.63-.52,3.65,3.65,0,0,0-1.16.16,3.21,3.21,0,0,0-.89.44l-.2,1.48h-1.48v-2.43a5,5,0,0,1,1.66-.87,6.92,6.92,0,0,1,2.1-.3,4.55,4.55,0,0,1,3,.92,3.24,3.24,0,0,1,1.1,2.63v5.48a2.69,2.69,0,0,0,0,.4l1,.1v1.23h-2.76c-.06-.28-.11-.54-.14-.77s-.06-.45-.07-.68a4.57,4.57,0,0,1-1.39,1.18A3.52,3.52,0,0,1,1714.35,630.27Zm.28-1.61a3.49,3.49,0,0,0,1.75-.46,2.87,2.87,0,0,0,1.13-1.11v-1.91h-2a2.74,2.74,0,0,0-2,.64,1.89,1.89,0,0,0-.67,1.41,1.33,1.33,0,0,0,.43,1.06A1.94,1.94,0,0,0,1714.63,628.66Z"/><path class="cls-6" d="M1726.26,630.27a8.43,8.43,0,0,1-2-.22,11.12,11.12,0,0,1-2-.66l0-2.51h1.45l.36,1.51a6.09,6.09,0,0,0,1.06.33,5.66,5.66,0,0,0,1.11.1,2.52,2.52,0,0,0,1.68-.45,1.42,1.42,0,0,0,.51-1.11,1.34,1.34,0,0,0-.51-1.06,4.64,4.64,0,0,0-1.86-.74,6.94,6.94,0,0,1-2.82-1.17,2.42,2.42,0,0,1-.9-2,2.55,2.55,0,0,1,.49-1.54,3.55,3.55,0,0,1,1.39-1.08,5.09,5.09,0,0,1,2.07-.4,6.58,6.58,0,0,1,2.06.28,5.17,5.17,0,0,1,1.49.73l.09,2.41h-1.44l-.31-1.41a2.54,2.54,0,0,0-.81-.39,4,4,0,0,0-1.08-.13,2.38,2.38,0,0,0-1.46.42,1.28,1.28,0,0,0-.56,1,1.25,1.25,0,0,0,.16.65,1.48,1.48,0,0,0,.62.49,7.73,7.73,0,0,0,1.35.43,7.15,7.15,0,0,1,3.08,1.32,2.58,2.58,0,0,1,.87,2,2.93,2.93,0,0,1-1,2.25A4.54,4.54,0,0,1,1726.26,630.27Z"/><path class="cls-6" d="M1736.78,630.27a4.71,4.71,0,0,1-2.55-.67,4.49,4.49,0,0,1-1.67-1.86A6,6,0,0,1,1732,625v-.43a5.62,5.62,0,0,1,.62-2.69,4.88,4.88,0,0,1,1.65-1.88,3.93,3.93,0,0,1,2.25-.69,4.49,4.49,0,0,1,2.38.59,3.69,3.69,0,0,1,1.46,1.64,6,6,0,0,1,.48,2.5v1.2H1734l0,0a4.77,4.77,0,0,0,.35,1.8,2.89,2.89,0,0,0,1,1.24,2.55,2.55,0,0,0,1.52.44,5,5,0,0,0,1.71-.27,4.08,4.08,0,0,0,1.28-.77l.75,1.25a4.73,4.73,0,0,1-1.5.92A6,6,0,0,1,1736.78,630.27Zm-2.76-6.54h4.87v-.26a3.27,3.27,0,0,0-.27-1.36,2.19,2.19,0,0,0-.8-1,2.39,2.39,0,0,0-1.33-.34,2,2,0,0,0-1.17.37,2.72,2.72,0,0,0-.87,1,4.22,4.22,0,0,0-.45,1.47Z"/><path class="cls-6" d="M1625.61,534.13a4.56,4.56,0,0,1-2.5-.67,4.4,4.4,0,0,1-1.65-1.86,6.15,6.15,0,0,1-.59-2.75v-.41a6.22,6.22,0,0,1,.57-2.7,4.52,4.52,0,0,1,1.63-1.88,4.58,4.58,0,0,1,2.54-.69,5.56,5.56,0,0,1,2.24.42,4.64,4.64,0,0,1,1.62,1.15l0,2.54H1628l-.33-1.85a2.61,2.61,0,0,0-.83-.55,3.18,3.18,0,0,0-1.17-.2,2.38,2.38,0,0,0-1.51.51,3.39,3.39,0,0,0-1,1.35,4.84,4.84,0,0,0-.36,1.9v.41a5.48,5.48,0,0,0,.33,2,3,3,0,0,0,1,1.32,2.52,2.52,0,0,0,1.5.46,2.44,2.44,0,0,0,1.62-.54,2.32,2.32,0,0,0,.79-1.47h1.73l0,.06a3.44,3.44,0,0,1-.54,1.69,3.52,3.52,0,0,1-1.39,1.28A4.67,4.67,0,0,1,1625.61,534.13Z"/><path class="cls-6" d="M1636.27,534.13a4.35,4.35,0,0,1-4.16-2.59,6.48,6.48,0,0,1-.57-2.78v-.21a6.48,6.48,0,0,1,.57-2.78,4.57,4.57,0,0,1,1.64-1.91,4.49,4.49,0,0,1,2.5-.69,4.37,4.37,0,0,1,4.16,2.59,6.36,6.36,0,0,1,.58,2.79v.21a6.36,6.36,0,0,1-.58,2.79,4.34,4.34,0,0,1-4.14,2.58Zm0-1.5a2.37,2.37,0,0,0,1.54-.5,3.06,3.06,0,0,0,.94-1.38,5.85,5.85,0,0,0,.32-2v-.21a5.81,5.81,0,0,0-.32-2,3.15,3.15,0,0,0-.94-1.38,2.45,2.45,0,0,0-1.56-.5,2.41,2.41,0,0,0-1.54.5,3.06,3.06,0,0,0-.94,1.38,6.07,6.07,0,0,0-.31,2v.21a6.11,6.11,0,0,0,.31,2,3.08,3.08,0,0,0,1,1.38A2.44,2.44,0,0,0,1636.27,532.63Z"/><path class="cls-6" d="M1642.48,533.93V532.7l1.59-.28v-7.55l-1.59-.27v-1.24h3.31l.13,1.57a3.84,3.84,0,0,1,1.33-1.3,3.51,3.51,0,0,1,1.81-.46,3.42,3.42,0,0,1,2.64,1,4.36,4.36,0,0,1,.94,3.09v5.16l1.59.28v1.23h-5.1V532.7l1.59-.28V527.3a2.94,2.94,0,0,0-.55-2,2.22,2.22,0,0,0-1.69-.58,2.7,2.7,0,0,0-1.47.4,2.89,2.89,0,0,0-1,1.09v6.2l1.59.28v1.23Z"/><path class="cls-6" d="M1658.93,534.09a2.51,2.51,0,0,1-1.86-.68,3,3,0,0,1-.69-2.21v-6.41h-1.67v-1.43h1.67v-2.55h1.93v2.55h2.29v1.43h-2.29v6.41a1.75,1.75,0,0,0,.3,1.13,1,1,0,0,0,.81.36,4.29,4.29,0,0,0,.76-.07l.65-.11.27,1.26a7.71,7.71,0,0,1-1,.23A7.91,7.91,0,0,1,1658.93,534.09Z"/><path class="cls-6" d="M1665.75,534.13a3.52,3.52,0,0,1-2.51-.8,3,3,0,0,1-.86-2.27,2.88,2.88,0,0,1,.55-1.76,3.64,3.64,0,0,1,1.6-1.16,6.89,6.89,0,0,1,2.5-.41h1.88v-1a1.88,1.88,0,0,0-.58-1.48,2.36,2.36,0,0,0-1.64-.53,3.63,3.63,0,0,0-1.15.16,3.55,3.55,0,0,0-.89.45l-.2,1.47H1663v-2.42a5.17,5.17,0,0,1,1.66-.88,7.3,7.3,0,0,1,2.1-.29,4.56,4.56,0,0,1,3,.91,3.25,3.25,0,0,1,1.09,2.63v5.09c0,.14,0,.27,0,.4s0,.26,0,.39l1,.11v1.23h-2.76c-.06-.29-.11-.55-.14-.77s-.06-.46-.07-.69a4.6,4.6,0,0,1-1.39,1.19A3.62,3.62,0,0,1,1665.75,534.13Zm.28-1.61a3.39,3.39,0,0,0,1.75-.46,2.79,2.79,0,0,0,1.13-1.1V529h-2a2.78,2.78,0,0,0-2,.64,1.91,1.91,0,0,0-.67,1.42,1.35,1.35,0,0,0,.43,1.06A2,2,0,0,0,1666,532.52Z"/><path class="cls-6" d="M1673.32,533.93V532.7l1.59-.28v-7.55l-1.59-.27v-1.24h3.51v9.06l1.59.28v1.23Zm1.49-13.18v-2.06h2v2.06Z"/><path class="cls-6" d="M1679.75,533.93V532.7l1.59-.28v-7.55l-1.59-.27v-1.24h3.31l.14,1.57a3.81,3.81,0,0,1,1.32-1.3,3.53,3.53,0,0,1,1.81-.46,3.45,3.45,0,0,1,2.65,1,4.41,4.41,0,0,1,.94,3.09v5.16l1.59.28v1.23h-5.11V532.7l1.59-.28V527.3a2.89,2.89,0,0,0-.55-2,2.21,2.21,0,0,0-1.68-.58,2.66,2.66,0,0,0-1.47.4,2.89,2.89,0,0,0-1,1.09v6.2l1.59.28v1.23Z"/><path class="cls-6" d="M1697.53,534.13a4.7,4.7,0,0,1-2.54-.67,4.33,4.33,0,0,1-1.68-1.86,6.15,6.15,0,0,1-.59-2.75v-.43a5.77,5.77,0,0,1,.62-2.69,4.85,4.85,0,0,1,1.65-1.87,4,4,0,0,1,2.25-.69,4.53,4.53,0,0,1,2.39.58,3.7,3.7,0,0,1,1.45,1.65,6,6,0,0,1,.49,2.49v1.2h-6.86l0,0A4.86,4.86,0,0,0,1695,531a2.84,2.84,0,0,0,1,1.23,2.55,2.55,0,0,0,1.52.45,4.74,4.74,0,0,0,1.72-.28,3.79,3.79,0,0,0,1.27-.77l.75,1.25a4.42,4.42,0,0,1-1.49.93A6.06,6.06,0,0,1,1697.53,534.13Zm-2.76-6.54h4.87v-.25a3.32,3.32,0,0,0-.27-1.37,2,2,0,0,0-.8-.94,2.29,2.29,0,0,0-1.33-.35,1.91,1.91,0,0,0-1.17.38,2.91,2.91,0,0,0-.87,1,4.16,4.16,0,0,0-.45,1.46Z"/><path class="cls-6" d="M1703,533.93V532.7l1.59-.28v-7.55l-1.59-.27v-1.24h3.31l.17,1.35,0,.18a3.83,3.83,0,0,1,1.11-1.27,2.61,2.61,0,0,1,1.51-.45,3.38,3.38,0,0,1,.62.05,4.19,4.19,0,0,1,.45.1l-.25,1.79-1.34-.08a1.87,1.87,0,0,0-1.28.35,2.53,2.53,0,0,0-.8,1.06v6l1.59.28v1.23Z"/><path class="cls-6" d="M1711.33,533.93V532.7l1.59-.28v-7.55l-1.59-.27v-1.24h3.52v9.06l1.59.28v1.23Zm1.5-13.18v-2.06h2v2.06Z"/><path class="cls-6" d="M1717.91,533.93v-1.35l5.75-7.73h-3.94l-.24,1.77H1718v-3.26h8v1.31l-5.81,7.79h4.5l.26-1.78h1.43v3.25Z"/><path class="cls-6" d="M1732.5,534.13a4.7,4.7,0,0,1-2.54-.67,4.33,4.33,0,0,1-1.68-1.86,6.15,6.15,0,0,1-.59-2.75v-.43a5.77,5.77,0,0,1,.62-2.69,4.85,4.85,0,0,1,1.65-1.87,4,4,0,0,1,2.25-.69,4.53,4.53,0,0,1,2.39.58,3.7,3.7,0,0,1,1.45,1.65,6,6,0,0,1,.49,2.49v1.2h-6.86l0,0A4.86,4.86,0,0,0,1730,531a2.84,2.84,0,0,0,1,1.23,2.55,2.55,0,0,0,1.52.45,4.74,4.74,0,0,0,1.72-.28,3.79,3.79,0,0,0,1.27-.77l.75,1.25a4.42,4.42,0,0,1-1.49.93A6.06,6.06,0,0,1,1732.5,534.13Zm-2.76-6.54h4.87v-.25a3.49,3.49,0,0,0-.26-1.37,2.12,2.12,0,0,0-.81-.94,2.29,2.29,0,0,0-1.33-.35,1.91,1.91,0,0,0-1.17.38,2.91,2.91,0,0,0-.87,1,4.16,4.16,0,0,0-.45,1.46Z"/><path class="cls-6" d="M1742.57,534.13a3.76,3.76,0,0,1-2.21-.64,4.07,4.07,0,0,1-1.41-1.78,6.66,6.66,0,0,1-.49-2.67v-.2a8.24,8.24,0,0,1,.49-3,4.49,4.49,0,0,1,1.42-2,3.55,3.55,0,0,1,2.22-.7,3.79,3.79,0,0,1,1.66.34,3.45,3.45,0,0,1,1.22,1v-4.3l-1.59-.28v-1.24h3.52v13.73l1.59.28v1.23h-3.26l-.16-1.26a3.36,3.36,0,0,1-1.26,1.09A3.84,3.84,0,0,1,1742.57,534.13Zm.49-1.56a2.57,2.57,0,0,0,1.45-.39,3,3,0,0,0,1-1.1v-4.91a3,3,0,0,0-1-1,2.57,2.57,0,0,0-1.43-.39,2.18,2.18,0,0,0-1.51.52,3.07,3.07,0,0,0-.89,1.45,6.93,6.93,0,0,0-.29,2.14v.2a4.44,4.44,0,0,0,.65,2.56A2.26,2.26,0,0,0,1743.06,532.57Z"/><path class="cls-6" d="M1761.78,534.13a6.45,6.45,0,0,1-3.57-.93,5.89,5.89,0,0,1-2.15-2.57,9.25,9.25,0,0,1-.71-3.7v-.21a8.75,8.75,0,0,1,.75-3.71,6.05,6.05,0,0,1,2.16-2.57,5.92,5.92,0,0,1,3.36-.94,7.32,7.32,0,0,1,2.52.43A6.15,6.15,0,0,1,1766,521v3.06h-1.53l-.21-2.24a3.14,3.14,0,0,0-.72-.41,4.63,4.63,0,0,0-.89-.26,6,6,0,0,0-1.07-.08,3.94,3.94,0,0,0-2.37.71,4.44,4.44,0,0,0-1.46,2,7.92,7.92,0,0,0-.5,2.91v.23a8,8,0,0,0,.53,3.05,4.18,4.18,0,0,0,1.56,1.93,4.45,4.45,0,0,0,2.48.66,5,5,0,0,0,1.34-.17,3.74,3.74,0,0,0,1.08-.43l.22-2h1.5v3.09a6.81,6.81,0,0,1-1.91.78A9.78,9.78,0,0,1,1761.78,534.13Z"/><path class="cls-6" d="M1774.38,534.13a6.4,6.4,0,0,1-3.57-.93,5.89,5.89,0,0,1-2.15-2.57,9.08,9.08,0,0,1-.72-3.7v-.21a8.75,8.75,0,0,1,.76-3.71,6.1,6.1,0,0,1,2.15-2.57,6,6,0,0,1,3.36-.94,7.24,7.24,0,0,1,2.52.43,6.21,6.21,0,0,1,1.9,1.1v3.06h-1.54l-.2-2.24a3.14,3.14,0,0,0-.72-.41,4.53,4.53,0,0,0-.9-.26,6,6,0,0,0-1.07-.08,3.91,3.91,0,0,0-2.36.71,4.44,4.44,0,0,0-1.46,2,7.72,7.72,0,0,0-.5,2.91v.23a8,8,0,0,0,.53,3.05,4.16,4.16,0,0,0,1.55,1.93,4.49,4.49,0,0,0,2.49.66,5.08,5.08,0,0,0,1.34-.17,3.86,3.86,0,0,0,1.08-.43l.21-2h1.51v3.09a6.88,6.88,0,0,1-1.92.78A9.63,9.63,0,0,1,1774.38,534.13Z"/><path class="cls-6" d="M1785.41,533.93V532.7l1.06-.15,5-12.84h1.65l4.88,12.84,1,.15v1.23h-4.08V532.7l1.07-.19-.94-2.62h-5.69l-1,2.62,1.08.19v1.23Zm4.57-5.65h4.51l-2.09-5.78-.12-.32h-.06l-.12.32Z"/><path class="cls-6" d="M1800.13,538v-1.24l1.5-.27V524.87l-1.6-.27v-1.24h3.25l.17,1.29a3.49,3.49,0,0,1,1.29-1.1,3.76,3.76,0,0,1,1.75-.38,3.6,3.6,0,0,1,2.24.7,4.48,4.48,0,0,1,1.41,2,8.2,8.2,0,0,1,.49,3v.2a6.66,6.66,0,0,1-.49,2.67,4.07,4.07,0,0,1-1.41,1.78,3.76,3.76,0,0,1-2.21.64,4.4,4.4,0,0,1-1.72-.32,3.31,3.31,0,0,1-1.25-1v3.65l1.68.27V538Zm5.79-5.36a2.36,2.36,0,0,0,2.07-1,4.36,4.36,0,0,0,.71-2.59v-.2a6.54,6.54,0,0,0-.32-2.13,3.12,3.12,0,0,0-.93-1.45,2.26,2.26,0,0,0-1.55-.53,2.54,2.54,0,0,0-1.4.37,2.83,2.83,0,0,0-1,1v5.14a2.55,2.55,0,0,0,.94,1A2.69,2.69,0,0,0,1805.92,532.63Z"/><path class="cls-6" d="M1811.82,538v-1.24l1.5-.27V524.87l-1.6-.27v-1.24H1815l.17,1.29a3.49,3.49,0,0,1,1.29-1.1,3.73,3.73,0,0,1,1.75-.38,3.55,3.55,0,0,1,2.23.7,4.42,4.42,0,0,1,1.42,2,8.2,8.2,0,0,1,.49,3v.2a6.66,6.66,0,0,1-.49,2.67,4,4,0,0,1-1.42,1.78,3.71,3.71,0,0,1-2.2.64,4.4,4.4,0,0,1-1.72-.32,3.31,3.31,0,0,1-1.25-1v3.65l1.68.27V538Zm5.79-5.36a2.36,2.36,0,0,0,2.07-1,4.36,4.36,0,0,0,.71-2.59v-.2a6.54,6.54,0,0,0-.32-2.13,3.12,3.12,0,0,0-.93-1.45,2.26,2.26,0,0,0-1.55-.53,2.54,2.54,0,0,0-1.4.37,2.83,2.83,0,0,0-1,1v5.14a2.55,2.55,0,0,0,.94,1A2.69,2.69,0,0,0,1817.61,532.63Z"/><path class="cls-6" d="M1620.54,495.84V494.6l1.5-.28v-11.6l-1.6-.27v-1.24h3.25l.17,1.29a3.61,3.61,0,0,1,1.29-1.11,3.89,3.89,0,0,1,1.75-.38,3.61,3.61,0,0,1,2.24.71,4.39,4.39,0,0,1,1.41,2,8.26,8.26,0,0,1,.49,3v.2a6.7,6.7,0,0,1-.49,2.67,4.13,4.13,0,0,1-1.41,1.78,3.76,3.76,0,0,1-2.21.64,4.22,4.22,0,0,1-1.72-.33,3.28,3.28,0,0,1-1.25-1v3.64l1.68.28v1.24Zm5.79-5.37a2.38,2.38,0,0,0,2.07-1,4.4,4.4,0,0,0,.71-2.59v-.2a6.64,6.64,0,0,0-.32-2.14,3.17,3.17,0,0,0-.93-1.45,2.31,2.31,0,0,0-1.55-.53,2.55,2.55,0,0,0-1.4.38,2.72,2.72,0,0,0-1,1v5.15a2.49,2.49,0,0,0,2.37,1.36Z"/><path class="cls-6" d="M1637.69,492a4.39,4.39,0,0,1-4.16-2.59,6.49,6.49,0,0,1-.58-2.78v-.22a6.44,6.44,0,0,1,.58-2.77,4.45,4.45,0,0,1,1.64-1.91,4.39,4.39,0,0,1,2.5-.7,4.47,4.47,0,0,1,2.53.7,4.52,4.52,0,0,1,1.63,1.9,6.49,6.49,0,0,1,.58,2.78v.22a6.5,6.5,0,0,1-.58,2.79,4.38,4.38,0,0,1-4.14,2.58Zm0-1.51a2.34,2.34,0,0,0,1.54-.5,3.14,3.14,0,0,0,.94-1.37,5.9,5.9,0,0,0,.31-2v-.22a5.8,5.8,0,0,0-.31-2,3,3,0,0,0-1-1.38,2.64,2.64,0,0,0-3.09,0,3,3,0,0,0-.94,1.38,5.8,5.8,0,0,0-.31,2v.22a5.9,5.9,0,0,0,.31,2,3,3,0,0,0,.94,1.37A2.39,2.39,0,0,0,1637.69,490.47Z"/><path class="cls-6" d="M1648.38,492a3.76,3.76,0,0,1-2.21-.64,4.13,4.13,0,0,1-1.41-1.78,6.88,6.88,0,0,1-.49-2.67v-.2a8.42,8.42,0,0,1,.49-3,4.44,4.44,0,0,1,1.42-2,3.55,3.55,0,0,1,2.22-.71,3.79,3.79,0,0,1,1.66.35,3.27,3.27,0,0,1,1.22,1v-4.31l-1.59-.27v-1.24h3.52v13.73l1.59.27v1.23h-3.26l-.16-1.26a3.31,3.31,0,0,1-1.26,1.1A3.84,3.84,0,0,1,1648.38,492Zm.49-1.56a2.55,2.55,0,0,0,1.45-.39,2.92,2.92,0,0,0,1-1.11V484a3.07,3.07,0,0,0-1-1.06,2.63,2.63,0,0,0-1.43-.39,2.21,2.21,0,0,0-1.51.53,3.08,3.08,0,0,0-.89,1.44,7,7,0,0,0-.29,2.15v.2a4.48,4.48,0,0,0,.65,2.56A2.29,2.29,0,0,0,1648.87,490.42Z"/><line class="cls-1" x1="1609.31" y1="524.35" x2="1350.97" y2="524.35"/><line class="cls-1" x1="1612.11" y1="566.9" x2="1330.6" y2="566.9"/><line class="cls-1" x1="1611.98" y1="623.22" x2="1330.46" y2="623.22"/><line class="cls-1" x1="1609.31" y1="345.89" x2="1381.75" y2="345.89"/><polygon class="cls-2" points="1048.59 663.6 1048.59 692.64 1282.17 827.44 1307.37 812.92 1048.59 663.6"/><polygon class="cls-3" points="1048.59 692.64 1048.59 423.19 1282.17 288.4 1515.61 423.19 1515.61 692.64 1282.17 827.44 1048.59 692.64"/><polygon class="cls-4" points="1167.16 757.12 1176.27 741.18 1300.54 812.92 1282.17 823.59 1167.16 757.12"/><path class="cls-5" d="M1216.27,770.07a3.85,3.85,0,0,1,2.14,2.57,3.65,3.65,0,0,1-.57,3.13l-.72,1.14a3.65,3.65,0,0,1-2.56,2,4,4,0,0,1-3.27-.57l-3.56-2,.43-.71,1,.42,3.85-6.69-.86-.71.43-.71,1,.57Zm-2,0-3.85,6.69,1.43.86a2.6,2.6,0,0,0,2.27.28,3.76,3.76,0,0,0,1.86-1.56l.71-1.14a3.44,3.44,0,0,0,.42-2.28,2.6,2.6,0,0,0-1.42-1.85Z"/><path class="cls-5" d="M1218.12,778a4.46,4.46,0,0,1,2.14-1.85,2.78,2.78,0,0,1,2.56.29,3,3,0,0,1,1.56,2.13,3.62,3.62,0,0,1-.57,2.71l-.14.14a3.77,3.77,0,0,1-2.13,1.85A3.29,3.29,0,0,1,1219,783a3,3,0,0,1-1.56-2.14,3.64,3.64,0,0,1,.71-2.85Zm1,.72a3.41,3.41,0,0,0-.57,1.85,1.72,1.72,0,0,0,.85,1.42,1.52,1.52,0,0,0,1.57,0,3.39,3.39,0,0,0,1.42-1.42l.14-.15a3.41,3.41,0,0,0,.57-1.85,1.72,1.72,0,0,0-.85-1.42,1.57,1.57,0,0,0-1.57,0,3.3,3.3,0,0,0-1.56,1.57Z"/><path class="cls-5" d="M1226.09,785.87a1.69,1.69,0,0,0,1.14.29,1.47,1.47,0,0,0,1-.57l1,.57h0a2,2,0,0,1-1.56,1,2.94,2.94,0,0,1-2.14-.42,3.27,3.27,0,0,1-1.56-2.14,3.86,3.86,0,0,1,.57-2.7l.14-.29a5,5,0,0,1,2-1.85,2.78,2.78,0,0,1,2.56.29,2.61,2.61,0,0,1,1.14,1,2.54,2.54,0,0,1,.57,1.29l-.71,1.42-.85-.57.28-1.14a1.09,1.09,0,0,0-.28-.57,3.23,3.23,0,0,0-.72-.57,1.82,1.82,0,0,0-1.7-.14,2.56,2.56,0,0,0-1.29,1.42l-.14.29a3.11,3.11,0,0,0-.57,1.85A2.09,2.09,0,0,0,1226.09,785.87Z"/><path class="cls-5" d="M1233.92,780.32l.43-.71,2.13,1.14-3,5.27.71.42,2.28-.85-.57-.43.43-.71,2.56,1.57-.43.71-.85-.29-2.85,1,.57,3.7.57.57-.42.71-2.57-1.56.43-.72.57.29-.43-3-.71-.43-1.14,2,.86.71-.43.71-3-1.71.43-.71,1,.43,4.13-7.26Z"/><path class="cls-5" d="M1239,794.56a3,3,0,0,1-1.56-2.14,3.92,3.92,0,0,1,.57-2.7l.14-.29a3.68,3.68,0,0,1,2.14-1.71,2.87,2.87,0,0,1,2.42.15,2.58,2.58,0,0,1,1.42,1.85,3.24,3.24,0,0,1-.57,2.42l-.43.71-4-2.28h0a3.73,3.73,0,0,0-.43,1.71,1.64,1.64,0,0,0,.85,1.28,2,2,0,0,0,1.14.43h1v1a1.49,1.49,0,0,1-1.14,0A3.3,3.3,0,0,1,1239,794.56Zm3.14-5.7a1.42,1.42,0,0,0-1.29-.14,2.22,2.22,0,0,0-1.13.85h0l2.84,1.71.15-.14a2.14,2.14,0,0,0,.28-1.28A1.94,1.94,0,0,0,1242.18,788.86Z"/><path class="cls-5" d="M1245.88,791l.42-.71,2,1.13-.43,1A4.09,4.09,0,0,1,1249,792a1.16,1.16,0,0,1,1,.29c.15,0,.15.14.29.14a.14.14,0,0,1,.14.14l-.71,1-.57-.43a2,2,0,0,0-.85-.28,2.07,2.07,0,0,0-.86.28l-2.13,3.56.85.71-.43.71-3-1.7.42-.71,1,.42,2.56-4.41Z"/><path class="cls-6" d="M1094.57,699.9l.43-.71,2.13,1.14-3,5.26.71.43,2.28-.85-.57-.43.43-.71,2.56,1.56-.43.72-.85-.29-2.85,1,.57,3.7.57.57-.42.71-2.57-1.57.43-.71.57.29-.43-3-.71-.43-1.14,2,.86.72-.43.71-3-1.71.43-.71,1,.42,4.13-7.26Z"/><path class="cls-6" d="M1102.11,714.13a1.86,1.86,0,0,1-1.13.29,4,4,0,0,1-1.29-.29,2.31,2.31,0,0,1-1.28-1.56,4.33,4.33,0,0,1,.57-2.42l1.57-2.85-.57-.57.43-.71.71.43,1.14.71-2.14,3.7c-.43.71-.57,1.14-.43,1.57a.91.91,0,0,0,.72.85,1.86,1.86,0,0,0,1.13.29,2.07,2.07,0,0,0,1-.29l2.14-3.56L1104,709l.43-.71.86.43,1.13.71-3.13,5.41.57.57-.43.71-1.7-1Z"/><path class="cls-6" d="M1111.65,717a4.54,4.54,0,0,1-1.85,1.85,2.55,2.55,0,0,1-2.28-.14,6.78,6.78,0,0,1-1-.85,2.62,2.62,0,0,1-.29-1.14l-.57.71-1-.57,4.69-8.11-.85-.72.43-.71,2.13,1.14-2,3.56a3.42,3.42,0,0,1,1.14-.29,2,2,0,0,1,1.14.43,2.8,2.8,0,0,1,1.28,2,5.3,5.3,0,0,1-1,2.85Zm-1-.71a3.85,3.85,0,0,0,.57-2,1.74,1.74,0,0,0-.85-1.43,2.69,2.69,0,0,0-1-.28,2.64,2.64,0,0,0-1,.28l-1.57,2.71a2.12,2.12,0,0,0,.14,1,1.78,1.78,0,0,0,.72.72,2,2,0,0,0,1.56.14c.57,0,1-.43,1.42-1.14Z"/><path class="cls-6" d="M1113.93,722.25a3,3,0,0,1-1.57-2.14,3.92,3.92,0,0,1,.57-2.7l.14-.29a3.62,3.62,0,0,1,2.14-1.7,2.83,2.83,0,0,1,2.42.14,2.58,2.58,0,0,1,1.42,1.85,3.24,3.24,0,0,1-.57,2.42l-.42.85-4.13-2.28h0a3.73,3.73,0,0,0-.43,1.71,1.64,1.64,0,0,0,.85,1.28,1.89,1.89,0,0,0,1.14.43h1v1a1.59,1.59,0,0,1-1.14,0A3.75,3.75,0,0,1,1113.93,722.25Zm3.13-5.7a1.4,1.4,0,0,0-1.28-.14,2.17,2.17,0,0,0-1.14.86h0l2.85,1.7.14-.14a2.14,2.14,0,0,0,.28-1.28C1117.91,717.12,1117.49,716.84,1117.06,716.55Z"/><path class="cls-6" d="M1122.18,715.84l.43-.71,2.14,1.14-4.7,8.11.85.71-.42.72-3-1.71.42-.71,1,.42,4.13-7.26Z"/><path class="cls-6" d="M1124,728.08a3,3,0,0,1-1.56-2.13,3.94,3.94,0,0,1,.57-2.71l.14-.28a3.68,3.68,0,0,1,2.14-1.71,2.88,2.88,0,0,1,2.41.14,2.59,2.59,0,0,1,1.43,1.85,3.22,3.22,0,0,1-.57,2.42l-.43.72L1124,724.1h0a3.85,3.85,0,0,0-.42,1.71,1.63,1.63,0,0,0,.85,1.28,1.92,1.92,0,0,0,1.14.42h1v1a1.59,1.59,0,0,1-1.14,0C1125,728.65,1124.6,728.37,1124,728.08Zm3-5.69a1.4,1.4,0,0,0-1.28-.14,2.23,2.23,0,0,0-1.14.85h0l2.85,1.71.14-.14a2.1,2.1,0,0,0,.29-1.28C1127.88,723,1127.59,722.67,1127,722.39Z"/><path class="cls-6" d="M1134.14,723.39l-.85,1.56,1.13.71-.42.86-1.14-.71-2.14,3.84c-.14.28-.28.57-.14.71s.14.29.43.43a22.86,22.86,0,0,0,.57.28l-.29.86a1,1,0,0,1-.57-.15c-.28-.14-.42-.14-.71-.28a1.9,1.9,0,0,1-.85-1,2.21,2.21,0,0,1,.28-1.56l2.14-3.85-1-.56.43-.86,1,.57.85-1.57Z"/><text/><path class="cls-7" d="M707.6,586.12v-1.23l1.59-.27V573.36H706l-.28,2h-1.45V571.9h11.82v3.43h-1.43l-.29-2h-3.22v11.26l1.59.27v1.23Z"/><path class="cls-7" d="M717.83,586.12v-1.23l1.59-.27v-11.2l-1.59-.28V571.9h5.1v1.24l-1.59.28v11.23h5l.23-2.25h1.47v3.72Z"/><path class="cls-7" d="M734.77,586.33a8.32,8.32,0,0,1-2.5-.38,8.47,8.47,0,0,1-2.3-1.17v-3h1.5l.32,2.23a5,5,0,0,0,1.38.61,5.84,5.84,0,0,0,1.6.21,4.06,4.06,0,0,0,1.65-.29,2.36,2.36,0,0,0,1-.83,2.06,2.06,0,0,0,.37-1.23,2.11,2.11,0,0,0-.32-1.15,2.53,2.53,0,0,0-1-.87,8,8,0,0,0-2-.66,9.39,9.39,0,0,1-2.48-.92,4.3,4.3,0,0,1-1.53-1.38,3.4,3.4,0,0,1-.53-1.87,3.53,3.53,0,0,1,.59-2,4.16,4.16,0,0,1,1.65-1.38,5.57,5.57,0,0,1,2.46-.51,7.16,7.16,0,0,1,2.64.45,6.54,6.54,0,0,1,1.89,1.1v2.84h-1.49l-.32-2a3.8,3.8,0,0,0-1.1-.58,4.69,4.69,0,0,0-1.62-.24,3.39,3.39,0,0,0-1.44.29,2.25,2.25,0,0,0-1,.81,2.06,2.06,0,0,0-.35,1.22,1.76,1.76,0,0,0,.32,1.07,2.51,2.51,0,0,0,1,.81,11.16,11.16,0,0,0,1.92.65,7.56,7.56,0,0,1,3.4,1.64,3.57,3.57,0,0,1,1.16,2.69,3.48,3.48,0,0,1-.62,2,4,4,0,0,1-1.73,1.38A6.43,6.43,0,0,1,734.77,586.33Z"/><path class="cls-7" d="M437.88,358.51v-1.23l1.6-.27V345.75h-3.23l-.28,2h-1.45v-3.43h11.82v3.43h-1.43l-.29-2H441.4V357l1.59.27v1.23Z"/><path class="cls-7" d="M448.11,358.51v-1.23l1.59-.27v-11.2l-1.59-.28v-1.24h5.11v1.24l-1.6.28V357h5l.23-2.25h1.47v3.72Z"/><path class="cls-7" d="M465.05,358.72a8.37,8.37,0,0,1-2.5-.38,8.18,8.18,0,0,1-2.29-1.18v-3h1.49l.32,2.23a5.52,5.52,0,0,0,1.38.61,5.89,5.89,0,0,0,1.6.21,4.33,4.33,0,0,0,1.66-.29,2.42,2.42,0,0,0,1-.83,2.12,2.12,0,0,0,.36-1.23,2.17,2.17,0,0,0-.31-1.15,2.69,2.69,0,0,0-1-.88,8.55,8.55,0,0,0-2-.66,9.18,9.18,0,0,1-2.48-.91,4.23,4.23,0,0,1-1.53-1.39,3.35,3.35,0,0,1-.52-1.87,3.45,3.45,0,0,1,.59-2,4,4,0,0,1,1.64-1.38,5.63,5.63,0,0,1,2.46-.51,7.25,7.25,0,0,1,2.65.45,6.39,6.39,0,0,1,1.88,1.1v2.84H468l-.32-2a3.68,3.68,0,0,0-1.1-.58,4.69,4.69,0,0,0-1.62-.24,3.46,3.46,0,0,0-1.44.29,2.36,2.36,0,0,0-1,.8,2.19,2.19,0,0,0-.35,1.23,1.85,1.85,0,0,0,.32,1.07,2.6,2.6,0,0,0,1,.81,10.43,10.43,0,0,0,1.92.64,7.56,7.56,0,0,1,3.4,1.65,3.52,3.52,0,0,1,1.16,2.69,3.47,3.47,0,0,1-.61,2,4,4,0,0,1-1.74,1.38A6.43,6.43,0,0,1,465.05,358.72Z"/><path class="cls-7" d="M1017.79,393.75v-1.23l1.59-.27V381h-3.22l-.28,2h-1.45v-3.43h11.82V383h-1.43l-.29-2h-3.22v11.26l1.59.27v1.23Z"/><path class="cls-7" d="M1028,393.75v-1.23l1.59-.27V381l-1.59-.27v-1.24h5.1v1.24l-1.59.27v11.24h5l.22-2.25h1.48v3.72Z"/><path class="cls-7" d="M1045,394a8,8,0,0,1-2.5-.39,7.94,7.94,0,0,1-2.3-1.17v-3h1.5l.32,2.23a5.73,5.73,0,0,0,1.38.61,5.84,5.84,0,0,0,1.6.21,4.05,4.05,0,0,0,1.65-.3,2.28,2.28,0,0,0,1-.82,2.06,2.06,0,0,0,.37-1.23,2.09,2.09,0,0,0-.32-1.15,2.54,2.54,0,0,0-1-.88,8.38,8.38,0,0,0-2-.66,9.11,9.11,0,0,1-2.47-.91,4.15,4.15,0,0,1-1.53-1.39,3.36,3.36,0,0,1-.53-1.87,3.53,3.53,0,0,1,.59-2,4.11,4.11,0,0,1,1.65-1.39,5.71,5.71,0,0,1,2.46-.5,7.16,7.16,0,0,1,2.64.45,6.32,6.32,0,0,1,1.89,1.1v2.84h-1.49l-.32-2a4.07,4.07,0,0,0-1.1-.59,5,5,0,0,0-1.62-.23,3.25,3.25,0,0,0-1.44.29,2.3,2.3,0,0,0-1,.8,2.08,2.08,0,0,0-.35,1.22,1.88,1.88,0,0,0,.31,1.08,2.7,2.7,0,0,0,1,.8,10.35,10.35,0,0,0,1.92.65,7.46,7.46,0,0,1,3.4,1.65,3.54,3.54,0,0,1,1.16,2.69,3.48,3.48,0,0,1-.62,2,4.15,4.15,0,0,1-1.73,1.38A6.43,6.43,0,0,1,1045,394Z"/><path class="cls-7" d="M819.94,240.1v-1.23l1.59-.27v-1.78h-6.38v-1.09l6.27-9.85h2v9.43h2v1.51h-2v1.78l1.59.27v1.23Zm-2.74-4.79h4.33v-6.69h0l-.2.51Z"/><path class="cls-7" d="M827.54,240.1v-2h1.92v2Z"/><path class="cls-7" d="M840.05,240.3a3.52,3.52,0,0,1-2.51-.8,3,3,0,0,1-.86-2.27,2.9,2.9,0,0,1,.55-1.75,3.58,3.58,0,0,1,1.6-1.17,6.93,6.93,0,0,1,2.5-.41h1.88v-1a1.89,1.89,0,0,0-.58-1.48,2.33,2.33,0,0,0-1.63-.53,3.89,3.89,0,0,0-1.15.16,3.24,3.24,0,0,0-.89.45l-.21,1.47h-1.48v-2.42a4.87,4.87,0,0,1,1.66-.87,6.92,6.92,0,0,1,2.1-.3,4.48,4.48,0,0,1,3,.92,3.22,3.22,0,0,1,1.1,2.62v5.49l0,.39,1,.11v1.23h-2.76c-.06-.29-.1-.54-.14-.77s0-.46-.07-.69a4.46,4.46,0,0,1-1.39,1.19A3.49,3.49,0,0,1,840.05,240.3Zm.28-1.61a3.39,3.39,0,0,0,1.75-.46,2.73,2.73,0,0,0,1.13-1.1v-1.91h-2a2.8,2.8,0,0,0-2,.63,2,2,0,0,0-.66,1.42,1.34,1.34,0,0,0,.42,1.06A2,2,0,0,0,840.33,238.69Z"/><path class="cls-7" d="M851.42,240.27a2.51,2.51,0,0,1-1.86-.69,3,3,0,0,1-.69-2.21V231H847.2v-1.43h1.67V227h1.92v2.55h2.3V231h-2.3v6.41a1.7,1.7,0,0,0,.31,1.13,1,1,0,0,0,.81.36,5.5,5.5,0,0,0,.76-.06c.28-.05.5-.08.65-.12l.27,1.26a8.09,8.09,0,0,1-1,.23A8,8,0,0,1,851.42,240.27Z"/><path class="cls-7" d="M858.55,240.27a2.51,2.51,0,0,1-1.86-.69,3,3,0,0,1-.69-2.21V231h-1.67v-1.43H856V227h1.92v2.55h2.3V231h-2.3v6.41a1.75,1.75,0,0,0,.3,1.13,1,1,0,0,0,.81.36,5.52,5.52,0,0,0,.77-.06c.28-.05.49-.08.65-.12l.26,1.26a8.34,8.34,0,0,1-2.16.33Z"/><path class="cls-7" d="M866.56,240.3a4.78,4.78,0,0,1-2.54-.66,4.45,4.45,0,0,1-1.68-1.86,6.22,6.22,0,0,1-.59-2.76v-.43a5.77,5.77,0,0,1,.62-2.69A4.92,4.92,0,0,1,864,230a4,4,0,0,1,2.25-.69,4.53,4.53,0,0,1,2.39.58,3.7,3.7,0,0,1,1.45,1.65,6,6,0,0,1,.49,2.49v1.21h-6.86l0,0a4.86,4.86,0,0,0,.36,1.81,2.84,2.84,0,0,0,1,1.23,2.55,2.55,0,0,0,1.52.45,4.74,4.74,0,0,0,1.72-.28,3.94,3.94,0,0,0,1.27-.76l.75,1.25a4.57,4.57,0,0,1-1.49.92A6.06,6.06,0,0,1,866.56,240.3Zm-2.76-6.54h4.87v-.25a3.44,3.44,0,0,0-.26-1.36,2.15,2.15,0,0,0-.81-1,2.37,2.37,0,0,0-1.33-.35,2,2,0,0,0-1.17.38,2.91,2.91,0,0,0-.87,1,4.23,4.23,0,0,0-.45,1.46Z"/><path class="cls-7" d="M876.42,240.3a8.93,8.93,0,0,1-2-.21,11.48,11.48,0,0,1-2-.66l0-2.51h1.46l.36,1.51a5.84,5.84,0,0,0,1.06.33,5.52,5.52,0,0,0,1.11.1,2.52,2.52,0,0,0,1.68-.45,1.42,1.42,0,0,0,.51-1.11,1.35,1.35,0,0,0-.52-1.06,4.5,4.5,0,0,0-1.86-.74,7.06,7.06,0,0,1-2.82-1.18,2.4,2.4,0,0,1-.9-2,2.53,2.53,0,0,1,.5-1.54,3.41,3.41,0,0,1,1.39-1.08,4.93,4.93,0,0,1,2.07-.4,6.84,6.84,0,0,1,2,.27,5.31,5.31,0,0,1,1.49.73l.1,2.42h-1.45l-.31-1.41a2.54,2.54,0,0,0-.81-.39,3.85,3.85,0,0,0-1.07-.14,2.36,2.36,0,0,0-1.46.42,1.26,1.26,0,0,0-.56,1.06,1.22,1.22,0,0,0,.16.64,1.37,1.37,0,0,0,.62.5,7.31,7.31,0,0,0,1.34.43,7,7,0,0,1,3.09,1.32,2.57,2.57,0,0,1,.87,2,2.91,2.91,0,0,1-1,2.24A4.54,4.54,0,0,1,876.42,240.3Z"/><path class="cls-7" d="M885.85,240.27a2.51,2.51,0,0,1-1.86-.69,3,3,0,0,1-.69-2.21V231h-1.67v-1.43h1.67V227h1.93v2.55h2.29V231h-2.29v6.41a1.75,1.75,0,0,0,.3,1.13,1,1,0,0,0,.81.36,5.38,5.38,0,0,0,.76-.06c.28-.05.5-.08.66-.12l.26,1.26a7.71,7.71,0,0,1-1,.23A8,8,0,0,1,885.85,240.27Z"/><path class="cls-7" d="M903.82,240.3a5.53,5.53,0,0,1-2.45-.51,3.76,3.76,0,0,1-2.18-3.52,3.28,3.28,0,0,1,.67-2.05,8.21,8.21,0,0,1,2-1.77l0,0,.05,0a9.74,9.74,0,0,1-1.14-1.72,3.57,3.57,0,0,1-.37-1.56,3.86,3.86,0,0,1,.43-1.87,2.81,2.81,0,0,1,1.23-1.16,4.22,4.22,0,0,1,1.92-.4,3.75,3.75,0,0,1,1.81.41,3.08,3.08,0,0,1,1.22,1.09,2.7,2.7,0,0,1,.44,1.52,2.75,2.75,0,0,1-.51,1.66,7.08,7.08,0,0,1-1.52,1.43l-1.06.78,3.32,4a5.73,5.73,0,0,0,.62-1.4,5.84,5.84,0,0,0,.23-1.63h1.72a7,7,0,0,1-.39,2.37,6.09,6.09,0,0,1-1.1,2l1.81,2.19,0,0h-2.24l-.83-1a6.06,6.06,0,0,1-1.73.9A6.42,6.42,0,0,1,903.82,240.3Zm0-1.5a4.19,4.19,0,0,0,1.39-.24,5,5,0,0,0,1.29-.69L903,233.62l-.39.29a3.86,3.86,0,0,0-1.18,1.27,2.59,2.59,0,0,0-.28,1.09,2.51,2.51,0,0,0,.69,1.82A2.69,2.69,0,0,0,903.82,238.8Zm-.41-7.4,1.35-.93a2,2,0,0,0,.75-.8,2.25,2.25,0,0,0,.2-1,1.42,1.42,0,0,0-.47-1,1.68,1.68,0,0,0-1.23-.46,1.47,1.47,0,0,0-1.23.55,2.17,2.17,0,0,0-.42,1.35,2.44,2.44,0,0,0,.26,1.08A6,6,0,0,0,903.41,231.4Z"/><path class="cls-7" d="M815,268.16v-1.24l1.5-.27v-11.6l-1.59-.28v-1.24h3.24l.17,1.29a3.49,3.49,0,0,1,1.29-1.1,3.76,3.76,0,0,1,1.75-.38,3.55,3.55,0,0,1,2.24.71,4.39,4.39,0,0,1,1.41,2,8.2,8.2,0,0,1,.49,3v.21a6.65,6.65,0,0,1-.49,2.66,4.16,4.16,0,0,1-1.41,1.79,3.83,3.83,0,0,1-2.21.63,4.14,4.14,0,0,1-1.71-.32,3.32,3.32,0,0,1-1.26-1v3.64l1.68.27v1.24Zm5.79-5.36a2.35,2.35,0,0,0,2.07-1,4.35,4.35,0,0,0,.71-2.58V259a6.58,6.58,0,0,0-.32-2.13,3,3,0,0,0-.93-1.45,2.31,2.31,0,0,0-1.55-.53,2.63,2.63,0,0,0-1.4.37,2.83,2.83,0,0,0-1,1v5.14a2.73,2.73,0,0,0,.94,1A2.78,2.78,0,0,0,820.75,262.8Z"/><path class="cls-7" d="M826.93,264.1v-1.23l1.59-.27v-7.55l-1.59-.28v-1.24h3.31l.16,1.35,0,.19a3.64,3.64,0,0,1,1.11-1.27,2.55,2.55,0,0,1,1.51-.46,4.44,4.44,0,0,1,.62,0l.45.1-.25,1.79-1.34-.08a1.88,1.88,0,0,0-1.28.35,2.62,2.62,0,0,0-.8,1.06v6l1.59.27v1.23Z"/><path class="cls-7" d="M839.87,264.3a4.35,4.35,0,0,1-4.17-2.59,6.45,6.45,0,0,1-.57-2.78v-.21a6.48,6.48,0,0,1,.57-2.78,4.57,4.57,0,0,1,1.64-1.91,4.93,4.93,0,0,1,5,0,4.57,4.57,0,0,1,1.64,1.91,6.42,6.42,0,0,1,.57,2.78v.21a6.5,6.5,0,0,1-.57,2.79,4.36,4.36,0,0,1-4.14,2.58Zm0-1.5a2.36,2.36,0,0,0,1.53-.5,3.06,3.06,0,0,0,.94-1.38,5.81,5.81,0,0,0,.32-2v-.21a5.85,5.85,0,0,0-.32-2,3,3,0,0,0-.94-1.37,2.61,2.61,0,0,0-3.1,0,3,3,0,0,0-.93,1.37,5.85,5.85,0,0,0-.32,2v.21a5.81,5.81,0,0,0,.32,2,3,3,0,0,0,.94,1.38A2.45,2.45,0,0,0,839.87,262.8Z"/><path class="cls-7" d="M850.11,264.1l-3.76-9.18-1.09-.15v-1.24h4.43v1.24l-1.38.2,2.35,6,.27.85H851l.31-.85,2.18-6-1.42-.2v-1.24h4.43v1.24l-1.12.15-3.57,9.18Z"/><path class="cls-7" d="M857.43,264.1v-1.23l1.6-.27v-7.55l-1.6-.28v-1.24H861v9.07l1.59.27v1.23Zm1.5-13.17v-2.06h2v2.06Z"/><path class="cls-7" d="M868,264.3a3.81,3.81,0,0,1-2.21-.63,4,4,0,0,1-1.41-1.79,6.65,6.65,0,0,1-.49-2.66V259a8.28,8.28,0,0,1,.49-3,4.32,4.32,0,0,1,1.41-2,3.52,3.52,0,0,1,2.23-.71,3.61,3.61,0,0,1,1.65.35,3.38,3.38,0,0,1,1.23,1v-4.31l-1.59-.27v-1.24h3.51V262.6l1.6.27v1.23h-3.27l-.15-1.26a3.39,3.39,0,0,1-1.27,1.09A3.8,3.8,0,0,1,868,264.3Zm.49-1.56a2.54,2.54,0,0,0,1.44-.39,3,3,0,0,0,1-1.1v-4.9a2.92,2.92,0,0,0-1-1.06,2.52,2.52,0,0,0-1.42-.39,2.21,2.21,0,0,0-1.52.52,3.23,3.23,0,0,0-.89,1.45,7.24,7.24,0,0,0-.29,2.14v.21a4.48,4.48,0,0,0,.66,2.56A2.27,2.27,0,0,0,868.51,262.74Z"/><path class="cls-7" d="M880.53,264.3a4.79,4.79,0,0,1-2.55-.66,4.49,4.49,0,0,1-1.67-1.86,6.09,6.09,0,0,1-.6-2.76v-.43a5.77,5.77,0,0,1,.62-2.69A5,5,0,0,1,878,254a3.93,3.93,0,0,1,2.25-.69,4.49,4.49,0,0,1,2.38.58,3.59,3.59,0,0,1,1.45,1.65,5.85,5.85,0,0,1,.49,2.49v1.21h-6.85l0,0a4.86,4.86,0,0,0,.35,1.81,2.86,2.86,0,0,0,1,1.23,2.55,2.55,0,0,0,1.52.45,4.72,4.72,0,0,0,1.71-.28,4,4,0,0,0,1.28-.76l.75,1.25a4.73,4.73,0,0,1-1.5.92A6,6,0,0,1,880.53,264.3Zm-2.76-6.54h4.87v-.25a3.27,3.27,0,0,0-.27-1.36,2.19,2.19,0,0,0-.8-.95,2.42,2.42,0,0,0-1.33-.35,2,2,0,0,0-1.18.38,2.79,2.79,0,0,0-.86,1,4.23,4.23,0,0,0-.45,1.46Z"/><path class="cls-7" d="M895.3,264.3a9,9,0,0,1-2-.21,11.39,11.39,0,0,1-2-.66l0-2.51h1.46l.36,1.51a5.61,5.61,0,0,0,1.06.33,5.49,5.49,0,0,0,1.1.1,2.49,2.49,0,0,0,1.68-.45,1.42,1.42,0,0,0,.51-1.11,1.34,1.34,0,0,0-.51-1.06,4.5,4.5,0,0,0-1.86-.74,6.93,6.93,0,0,1-2.82-1.18,2.4,2.4,0,0,1-.9-2,2.47,2.47,0,0,1,.5-1.54,3.44,3.44,0,0,1,1.38-1.08,5,5,0,0,1,2.07-.4,6.91,6.91,0,0,1,2.06.27,5.31,5.31,0,0,1,1.49.73l.1,2.42h-1.45l-.31-1.41a2.54,2.54,0,0,0-.81-.39,3.88,3.88,0,0,0-1.08-.14,2.38,2.38,0,0,0-1.46.42,1.28,1.28,0,0,0-.56,1.06,1.32,1.32,0,0,0,.16.64,1.49,1.49,0,0,0,.62.5,7.73,7.73,0,0,0,1.35.43,6.92,6.92,0,0,1,3.08,1.32,2.58,2.58,0,0,1,.88,2,2.88,2.88,0,0,1-1,2.24A4.54,4.54,0,0,1,895.3,264.3Z"/><path class="cls-7" d="M905.82,264.3a4.84,4.84,0,0,1-2.55-.66,4.49,4.49,0,0,1-1.67-1.86A6.09,6.09,0,0,1,901,259v-.43a5.65,5.65,0,0,1,.62-2.69,4.92,4.92,0,0,1,1.65-1.87,4,4,0,0,1,2.25-.69,4.53,4.53,0,0,1,2.39.58,3.7,3.7,0,0,1,1.45,1.65,6,6,0,0,1,.49,2.49v1.21H903l0,0a4.67,4.67,0,0,0,.36,1.81,2.84,2.84,0,0,0,1,1.23,2.55,2.55,0,0,0,1.52.45,4.81,4.81,0,0,0,1.72-.28,3.94,3.94,0,0,0,1.27-.76l.75,1.25a4.62,4.62,0,0,1-1.5.92A6,6,0,0,1,905.82,264.3Zm-2.76-6.54h4.87v-.25a3.27,3.27,0,0,0-.27-1.36,2.13,2.13,0,0,0-.8-.95,2.39,2.39,0,0,0-1.33-.35,2,2,0,0,0-1.17.38,2.91,2.91,0,0,0-.87,1,4.23,4.23,0,0,0-.45,1.46Z"/><path class="cls-7" d="M916.52,264.3a4.64,4.64,0,0,1-2.5-.66,4.52,4.52,0,0,1-1.65-1.86,6.09,6.09,0,0,1-.59-2.76v-.41a6.14,6.14,0,0,1,.57-2.69A4.42,4.42,0,0,1,914,254a4.55,4.55,0,0,1,2.54-.69,5.56,5.56,0,0,1,2.24.42,4.51,4.51,0,0,1,1.61,1.15l0,2.54h-1.5l-.33-1.85a2.54,2.54,0,0,0-.83-.54,3.07,3.07,0,0,0-1.18-.21,2.35,2.35,0,0,0-1.5.51,3.37,3.37,0,0,0-1,1.36,4.79,4.79,0,0,0-.36,1.89V259a5.47,5.47,0,0,0,.34,2,2.89,2.89,0,0,0,1,1.32,2.69,2.69,0,0,0,3.12-.08,2.29,2.29,0,0,0,.79-1.47h1.73l0,.06a3.74,3.74,0,0,1-.54,1.7,3.64,3.64,0,0,1-1.39,1.27A4.73,4.73,0,0,1,916.52,264.3Z"/><path class="cls-7" d="M922.14,264.1v-1.23l1.59-.27v-7.55l-1.59-.28v-1.24h3.31l.17,1.35,0,.19a3.73,3.73,0,0,1,1.1-1.27,2.57,2.57,0,0,1,1.51-.46,4.32,4.32,0,0,1,.62,0,4,4,0,0,1,.46.1l-.26,1.79-1.33-.08a1.87,1.87,0,0,0-1.28.35,2.45,2.45,0,0,0-.8,1.06v6l1.59.27v1.23Z"/><path class="cls-7" d="M935.12,264.3a4.79,4.79,0,0,1-2.55-.66,4.49,4.49,0,0,1-1.67-1.86,6.09,6.09,0,0,1-.6-2.76v-.43a5.77,5.77,0,0,1,.62-2.69,5,5,0,0,1,1.66-1.87,3.93,3.93,0,0,1,2.25-.69,4.49,4.49,0,0,1,2.38.58,3.59,3.59,0,0,1,1.45,1.65,5.85,5.85,0,0,1,.49,2.49v1.21H932.3l0,0a4.86,4.86,0,0,0,.35,1.81,2.86,2.86,0,0,0,1,1.23,2.55,2.55,0,0,0,1.52.45,4.72,4.72,0,0,0,1.71-.28,4,4,0,0,0,1.28-.76l.75,1.25a4.73,4.73,0,0,1-1.5.92A6,6,0,0,1,935.12,264.3Zm-2.76-6.54h4.87v-.25a3.27,3.27,0,0,0-.27-1.36,2.19,2.19,0,0,0-.8-.95,2.42,2.42,0,0,0-1.33-.35,2,2,0,0,0-1.18.38,2.91,2.91,0,0,0-.87,1,4.45,4.45,0,0,0-.44,1.46Z"/><path class="cls-7" d="M944.38,264.27a2.51,2.51,0,0,1-1.86-.69,3,3,0,0,1-.69-2.21V255h-1.67v-1.43h1.67V251h1.92v2.55h2.3V255h-2.3v6.41a1.75,1.75,0,0,0,.3,1.13,1,1,0,0,0,.82.36,5.5,5.5,0,0,0,.76-.06c.28-.05.49-.08.65-.12l.26,1.26a8.34,8.34,0,0,1-2.16.33Z"/><path class="cls-7" d="M952.05,264.3a9,9,0,0,1-2-.21,11.12,11.12,0,0,1-2-.66l0-2.51h1.45l.36,1.51a6.09,6.09,0,0,0,1.06.33,5.66,5.66,0,0,0,1.11.1,2.52,2.52,0,0,0,1.68-.45,1.42,1.42,0,0,0,.51-1.11,1.34,1.34,0,0,0-.51-1.06,4.5,4.5,0,0,0-1.86-.74,6.93,6.93,0,0,1-2.82-1.18,2.4,2.4,0,0,1-.9-2,2.53,2.53,0,0,1,.49-1.54,3.55,3.55,0,0,1,1.39-1.08,4.93,4.93,0,0,1,2.07-.4,6.91,6.91,0,0,1,2.06.27,5.44,5.44,0,0,1,1.49.73l.09,2.42H954.3l-.31-1.41a2.54,2.54,0,0,0-.81-.39,4,4,0,0,0-1.08-.14,2.38,2.38,0,0,0-1.46.42,1.28,1.28,0,0,0-.56,1.06,1.22,1.22,0,0,0,.16.64,1.49,1.49,0,0,0,.62.5,7.73,7.73,0,0,0,1.35.43,6.92,6.92,0,0,1,3.08,1.32,2.57,2.57,0,0,1,.87,2,2.91,2.91,0,0,1-1,2.24A4.54,4.54,0,0,1,952.05,264.3Z"/><path class="cls-7" d="M584.23,305.42a3.57,3.57,0,0,1-2.51-.8,3,3,0,0,1-.86-2.27,2.86,2.86,0,0,1,.55-1.76,3.56,3.56,0,0,1,1.6-1.16,6.68,6.68,0,0,1,2.5-.41h1.88v-1a1.88,1.88,0,0,0-.58-1.48,2.31,2.31,0,0,0-1.64-.53,3.63,3.63,0,0,0-1.15.16,3.89,3.89,0,0,0-.89.44l-.2,1.48h-1.49v-2.42a5,5,0,0,1,1.66-.88,7,7,0,0,1,2.1-.29,4.56,4.56,0,0,1,3,.91,3.26,3.26,0,0,1,1.1,2.63v5.49c0,.13,0,.26,0,.39l1,.11v1.23h-2.76c-.06-.29-.11-.55-.14-.77s-.06-.46-.07-.69A4.6,4.6,0,0,1,586,305,3.62,3.62,0,0,1,584.23,305.42Zm.28-1.61a3.39,3.39,0,0,0,1.75-.46,2.79,2.79,0,0,0,1.13-1.1v-1.92h-1.95a2.78,2.78,0,0,0-2,.64,1.89,1.89,0,0,0-.67,1.41,1.32,1.32,0,0,0,.43,1.06A1.94,1.94,0,0,0,584.51,303.81Z"/><path class="cls-7" d="M595.59,305.38a2.51,2.51,0,0,1-1.86-.69,3,3,0,0,1-.68-2.2v-6.41h-1.67v-1.43h1.67V292.1H595v2.55h2.29v1.43H595v6.41a1.77,1.77,0,0,0,.3,1.13,1,1,0,0,0,.81.36,4.29,4.29,0,0,0,.76-.07l.66-.11.26,1.26a7.81,7.81,0,0,1-2.17.32Z"/><path class="cls-7" d="M602.72,305.38a2.51,2.51,0,0,1-1.86-.69,3,3,0,0,1-.69-2.2v-6.41H598.5v-1.43h1.67V292.1h1.93v2.55h2.29v1.43H602.1v6.41a1.77,1.77,0,0,0,.3,1.13,1,1,0,0,0,.81.36,4.29,4.29,0,0,0,.76-.07l.66-.11.26,1.26a7.71,7.71,0,0,1-1,.23A7.8,7.8,0,0,1,602.72,305.38Z"/><path class="cls-7" d="M610.74,305.42a4.71,4.71,0,0,1-2.55-.67,4.38,4.38,0,0,1-1.67-1.86,6,6,0,0,1-.59-2.75v-.43a5.65,5.65,0,0,1,.62-2.69,5,5,0,0,1,1.65-1.88,3.92,3.92,0,0,1,2.25-.68,4.55,4.55,0,0,1,2.39.58,3.7,3.7,0,0,1,1.45,1.65,6,6,0,0,1,.48,2.49v1.2h-6.85l0,.05a4.58,4.58,0,0,0,.36,1.8,2.75,2.75,0,0,0,1,1.24,2.55,2.55,0,0,0,1.52.45,4.72,4.72,0,0,0,1.71-.28,3.9,3.9,0,0,0,1.28-.77l.75,1.25a4.74,4.74,0,0,1-1.5.93A6,6,0,0,1,610.74,305.42ZM608,298.88h4.87v-.26a3.3,3.3,0,0,0-.27-1.36,2.1,2.1,0,0,0-.8-.94,2.31,2.31,0,0,0-1.33-.35,2,2,0,0,0-1.17.37,2.84,2.84,0,0,0-.87,1,4.1,4.1,0,0,0-.45,1.46Z"/><path class="cls-7" d="M620.59,305.42a9,9,0,0,1-2-.21,12.41,12.41,0,0,1-2-.67l0-2.51h1.46l.36,1.52a4.92,4.92,0,0,0,1.06.32,5.47,5.47,0,0,0,1.1.11,2.49,2.49,0,0,0,1.68-.45,1.43,1.43,0,0,0,.51-1.12,1.35,1.35,0,0,0-.51-1.06,4.52,4.52,0,0,0-1.86-.73,7.07,7.07,0,0,1-2.82-1.18,2.42,2.42,0,0,1-.9-2,2.51,2.51,0,0,1,.5-1.54,3.34,3.34,0,0,1,1.38-1.07,5,5,0,0,1,2.07-.4,6.91,6.91,0,0,1,2.06.27,5.31,5.31,0,0,1,1.49.73l.1,2.41h-1.45l-.31-1.4a2.54,2.54,0,0,0-.81-.39,3.88,3.88,0,0,0-1.08-.14,2.38,2.38,0,0,0-1.46.42,1.28,1.28,0,0,0-.56,1.05,1.33,1.33,0,0,0,.16.65,1.4,1.4,0,0,0,.62.49,7.61,7.61,0,0,0,1.35.44,7,7,0,0,1,3.08,1.31,2.61,2.61,0,0,1,.88,2,2.88,2.88,0,0,1-1,2.24A4.54,4.54,0,0,1,620.59,305.42Z"/><path class="cls-7" d="M630,305.38a2.51,2.51,0,0,1-1.86-.69,3,3,0,0,1-.69-2.2v-6.41h-1.67v-1.43h1.67V292.1h1.92v2.55h2.3v1.43h-2.3v6.41a1.71,1.71,0,0,0,.31,1.13,1,1,0,0,0,.81.36,4.38,4.38,0,0,0,.76-.07l.65-.11.27,1.26a8.09,8.09,0,0,1-1,.23A7.91,7.91,0,0,1,630,305.38Z"/><path class="cls-7" d="M648,305.42a5.5,5.5,0,0,1-2.45-.51,3.76,3.76,0,0,1-2.18-3.52,3.31,3.31,0,0,1,.66-2.05,8.19,8.19,0,0,1,2-1.77l.06,0,0,0a10,10,0,0,1-1.13-1.72,3.5,3.5,0,0,1-.37-1.56,3.75,3.75,0,0,1,.43-1.87,2.79,2.79,0,0,1,1.23-1.17,4.31,4.31,0,0,1,1.91-.4,3.91,3.91,0,0,1,1.82.41,3.18,3.18,0,0,1,1.22,1.1,2.9,2.9,0,0,1-.07,3.18,7.33,7.33,0,0,1-1.52,1.43l-1.07.78,3.32,4a5.39,5.39,0,0,0,.63-1.4,5.85,5.85,0,0,0,.22-1.64h1.72a7,7,0,0,1-.38,2.38,6.2,6.2,0,0,1-1.1,2l1.8,2.19,0,.05h-2.23l-.83-1a5.79,5.79,0,0,1-1.73.89A6.18,6.18,0,0,1,648,305.42Zm0-1.5a4.09,4.09,0,0,0,1.38-.24,4.73,4.73,0,0,0,1.29-.69l-3.52-4.25-.39.29a3.64,3.64,0,0,0-1.18,1.26,2.65,2.65,0,0,0-.29,1.1,2.5,2.5,0,0,0,.7,1.82A2.69,2.69,0,0,0,648,303.92Zm-.41-7.4,1.34-.93a2,2,0,0,0,.76-.81,2.17,2.17,0,0,0,.2-1,1.42,1.42,0,0,0-.47-1.05,1.7,1.7,0,0,0-1.24-.46,1.46,1.46,0,0,0-1.22.55,2.18,2.18,0,0,0-.43,1.35,2.46,2.46,0,0,0,.27,1.08A6.56,6.56,0,0,0,647.59,296.52Z"/><path class="cls-7" d="M580.52,333.28V332l1.49-.27V320.16l-1.59-.27v-1.24h3.24l.18,1.29a3.54,3.54,0,0,1,1.28-1.1,3.79,3.79,0,0,1,1.75-.38,3.58,3.58,0,0,1,2.24.7,4.44,4.44,0,0,1,1.42,2,8.43,8.43,0,0,1,.48,3v.2a6.66,6.66,0,0,1-.49,2.67,4.07,4.07,0,0,1-1.41,1.78,3.74,3.74,0,0,1-2.21.64,4.14,4.14,0,0,1-1.71-.33,3.29,3.29,0,0,1-1.26-1v3.65l1.68.27v1.24Zm5.79-5.36a2.36,2.36,0,0,0,2.07-1,4.36,4.36,0,0,0,.7-2.59v-.2a6.55,6.55,0,0,0-.31-2.13,3.29,3.29,0,0,0-.93-1.46,2.32,2.32,0,0,0-1.55-.52,2.56,2.56,0,0,0-1.41.37,2.89,2.89,0,0,0-1,1v5.15a2.72,2.72,0,0,0,1,1A2.64,2.64,0,0,0,586.31,327.92Z"/><path class="cls-7" d="M592.48,329.22V328l1.59-.28v-7.55l-1.59-.27v-1.24h3.31L596,320l0,.18a3.71,3.71,0,0,1,1.1-1.27,2.63,2.63,0,0,1,1.51-.45,3.31,3.31,0,0,1,.62.05,2.8,2.8,0,0,1,.46.1l-.26,1.79-1.33-.08a1.82,1.82,0,0,0-1.28.35,2.49,2.49,0,0,0-.81,1.06v6l1.6.28v1.23Z"/><path class="cls-7" d="M605.42,329.42a4.37,4.37,0,0,1-4.16-2.59,6.34,6.34,0,0,1-.58-2.78v-.21a6.31,6.31,0,0,1,.58-2.78,4.35,4.35,0,0,1,4.14-2.6,4.49,4.49,0,0,1,2.52.69,4.54,4.54,0,0,1,1.64,1.9,6.5,6.5,0,0,1,.58,2.79v.21a6.5,6.5,0,0,1-.58,2.79,4.34,4.34,0,0,1-4.14,2.58Zm0-1.5a2.36,2.36,0,0,0,1.54-.51,3,3,0,0,0,.93-1.37,5.62,5.62,0,0,0,.32-2v-.21a5.58,5.58,0,0,0-.32-2,3.06,3.06,0,0,0-.94-1.38,2.42,2.42,0,0,0-1.55-.5,2.39,2.39,0,0,0-1.54.5,3.06,3.06,0,0,0-.94,1.38,5.82,5.82,0,0,0-.31,2v.21a5.86,5.86,0,0,0,.31,2,3,3,0,0,0,.94,1.37A2.4,2.4,0,0,0,605.42,327.92Z"/><path class="cls-7" d="M615.66,329.22,611.9,320l-1.09-.15v-1.24h4.43v1.24l-1.37.2,2.34,6,.27.85h.06l.31-.85,2.18-6-1.41-.2v-1.24H622v1.24l-1.11.15-3.58,9.18Z"/><path class="cls-7" d="M623,329.22V328l1.59-.28v-7.55l-1.59-.27v-1.24h3.51v9.06l1.59.28v1.23ZM624.48,316V314h2V316Z"/><path class="cls-7" d="M633.57,329.42a3.76,3.76,0,0,1-2.21-.64A4.07,4.07,0,0,1,630,327a6.66,6.66,0,0,1-.49-2.67v-.2a8.24,8.24,0,0,1,.49-3,4.44,4.44,0,0,1,1.42-2,3.55,3.55,0,0,1,2.22-.7,3.79,3.79,0,0,1,1.66.34,3.45,3.45,0,0,1,1.22,1v-4.3l-1.59-.28V314h3.52v13.73L640,328v1.23h-3.26l-.16-1.26a3.45,3.45,0,0,1-1.26,1.09A3.84,3.84,0,0,1,633.57,329.42Zm.49-1.56a2.57,2.57,0,0,0,1.45-.39,3,3,0,0,0,1-1.1v-4.91a3,3,0,0,0-1-1,2.57,2.57,0,0,0-1.43-.39,2.18,2.18,0,0,0-1.51.52,3.07,3.07,0,0,0-.89,1.45,6.93,6.93,0,0,0-.29,2.14v.2a4.44,4.44,0,0,0,.65,2.56A2.26,2.26,0,0,0,634.06,327.86Z"/><path class="cls-7" d="M646.08,329.42a4.76,4.76,0,0,1-2.55-.67,4.38,4.38,0,0,1-1.67-1.86,6.15,6.15,0,0,1-.59-2.75v-.43a5.77,5.77,0,0,1,.62-2.69,5,5,0,0,1,1.65-1.88,4,4,0,0,1,2.25-.68,4.53,4.53,0,0,1,2.39.58,3.7,3.7,0,0,1,1.45,1.65,5.94,5.94,0,0,1,.49,2.49v1.2h-6.86l0,.05a4.58,4.58,0,0,0,.36,1.8,2.81,2.81,0,0,0,1,1.24,2.55,2.55,0,0,0,1.52.45,4.77,4.77,0,0,0,1.72-.28,4,4,0,0,0,1.27-.77l.75,1.25a4.53,4.53,0,0,1-1.5.93A6,6,0,0,1,646.08,329.42Zm-2.76-6.54h4.87v-.26a3.3,3.3,0,0,0-.27-1.36,2.1,2.1,0,0,0-.8-.94,2.31,2.31,0,0,0-1.33-.35,2,2,0,0,0-1.17.37,3,3,0,0,0-.87,1,4.1,4.1,0,0,0-.45,1.46Z"/><path class="cls-7" d="M660.86,329.42a8.93,8.93,0,0,1-2-.21,12.5,12.5,0,0,1-2-.67l0-2.51h1.46l.36,1.52a5.09,5.09,0,0,0,1.06.32,5.49,5.49,0,0,0,1.11.11,2.52,2.52,0,0,0,1.68-.45,1.43,1.43,0,0,0,.51-1.12,1.36,1.36,0,0,0-.52-1.06,4.52,4.52,0,0,0-1.86-.73,7.08,7.08,0,0,1-2.81-1.18,2.4,2.4,0,0,1-.91-2,2.58,2.58,0,0,1,.5-1.54,3.31,3.31,0,0,1,1.39-1.07,4.93,4.93,0,0,1,2.07-.4,6.84,6.84,0,0,1,2.05.27,5.31,5.31,0,0,1,1.49.73l.1,2.41H663.1l-.31-1.4a2.54,2.54,0,0,0-.81-.39,3.85,3.85,0,0,0-1.07-.14,2.36,2.36,0,0,0-1.46.42,1.25,1.25,0,0,0-.56,1.05,1.23,1.23,0,0,0,.16.65,1.3,1.3,0,0,0,.62.49A7.19,7.19,0,0,0,661,323a7.09,7.09,0,0,1,3.09,1.31,2.6,2.6,0,0,1,.87,2,2.91,2.91,0,0,1-1,2.24A4.54,4.54,0,0,1,660.86,329.42Z"/><path class="cls-7" d="M671.38,329.42a4.71,4.71,0,0,1-2.55-.67,4.4,4.4,0,0,1-1.68-1.86,6.15,6.15,0,0,1-.59-2.75v-.43a5.77,5.77,0,0,1,.62-2.69,5,5,0,0,1,1.65-1.88,4,4,0,0,1,2.25-.68,4.53,4.53,0,0,1,2.39.58,3.65,3.65,0,0,1,1.45,1.65,5.79,5.79,0,0,1,.49,2.49v1.2h-6.86l0,.05a5,5,0,0,0,.36,1.8,2.89,2.89,0,0,0,1,1.24,2.58,2.58,0,0,0,1.53.45,4.72,4.72,0,0,0,1.71-.28,3.86,3.86,0,0,0,1.27-.77l.76,1.25a4.74,4.74,0,0,1-1.5.93A6,6,0,0,1,671.38,329.42Zm-2.77-6.54h4.88v-.26a3.3,3.3,0,0,0-.27-1.36,2.16,2.16,0,0,0-.8-.94,2.35,2.35,0,0,0-1.34-.35,2,2,0,0,0-1.17.37,3,3,0,0,0-.87,1,4.1,4.1,0,0,0-.45,1.46Z"/><path class="cls-7" d="M682.07,329.42a4.56,4.56,0,0,1-2.5-.67,4.4,4.4,0,0,1-1.65-1.86,6.15,6.15,0,0,1-.59-2.75v-.41a6.22,6.22,0,0,1,.57-2.7,4.52,4.52,0,0,1,1.63-1.88,4.58,4.58,0,0,1,2.54-.69,5.56,5.56,0,0,1,2.24.41,4.79,4.79,0,0,1,1.62,1.16l.05,2.54h-1.51l-.33-1.85a2.46,2.46,0,0,0-.83-.55,3.18,3.18,0,0,0-1.17-.2,2.36,2.36,0,0,0-1.51.51,3.39,3.39,0,0,0-1,1.35,4.84,4.84,0,0,0-.36,1.9v.41a5.51,5.51,0,0,0,.33,2,2.93,2.93,0,0,0,1,1.31,2.67,2.67,0,0,0,3.12-.07,2.32,2.32,0,0,0,.79-1.47h1.73l0,0a3.45,3.45,0,0,1-.54,1.7,3.52,3.52,0,0,1-1.39,1.28A4.67,4.67,0,0,1,682.07,329.42Z"/><path class="cls-7" d="M687.69,329.22V328l1.6-.28v-7.55l-1.6-.27v-1.24H691l.17,1.35,0,.18a3.74,3.74,0,0,1,1.11-1.27,2.61,2.61,0,0,1,1.51-.45,3.31,3.31,0,0,1,.62.05,2.63,2.63,0,0,1,.45.1l-.25,1.79-1.34-.08a1.83,1.83,0,0,0-1.28.35,2.55,2.55,0,0,0-.8,1.06v6l1.59.28v1.23Z"/><path class="cls-7" d="M700.67,329.42a4.76,4.76,0,0,1-2.55-.67,4.38,4.38,0,0,1-1.67-1.86,6.15,6.15,0,0,1-.59-2.75v-.43a5.77,5.77,0,0,1,.62-2.69,5,5,0,0,1,1.65-1.88,4,4,0,0,1,2.25-.68,4.53,4.53,0,0,1,2.39.58,3.7,3.7,0,0,1,1.45,1.65,5.94,5.94,0,0,1,.49,2.49v1.2h-6.86l0,.05a4.58,4.58,0,0,0,.36,1.8,2.81,2.81,0,0,0,1,1.24,2.55,2.55,0,0,0,1.52.45,4.77,4.77,0,0,0,1.72-.28,4,4,0,0,0,1.27-.77l.75,1.25a4.63,4.63,0,0,1-1.5.93A6,6,0,0,1,700.67,329.42Zm-2.76-6.54h4.87v-.26a3.3,3.3,0,0,0-.27-1.36,2.1,2.1,0,0,0-.8-.94,2.31,2.31,0,0,0-1.33-.35,2,2,0,0,0-1.17.37,3,3,0,0,0-.87,1,4.1,4.1,0,0,0-.45,1.46Z"/><path class="cls-7" d="M709.93,329.38a2.51,2.51,0,0,1-1.86-.69,3,3,0,0,1-.69-2.2v-6.41h-1.67v-1.43h1.67V316.1h1.93v2.55h2.29v1.43h-2.29v6.41a1.77,1.77,0,0,0,.3,1.13,1,1,0,0,0,.81.36,4.29,4.29,0,0,0,.76-.07l.65-.11.27,1.26a7.71,7.71,0,0,1-1,.23A7.91,7.91,0,0,1,709.93,329.38Z"/><path class="cls-7" d="M717.61,329.42a9.09,9.09,0,0,1-2-.21,12.76,12.76,0,0,1-2-.67l0-2.51h1.46l.36,1.52a5.09,5.09,0,0,0,1.06.32,5.49,5.49,0,0,0,1.11.11,2.52,2.52,0,0,0,1.68-.45,1.45,1.45,0,0,0,.5-1.12,1.35,1.35,0,0,0-.51-1.06,4.52,4.52,0,0,0-1.86-.73,7.13,7.13,0,0,1-2.82-1.18,2.42,2.42,0,0,1-.9-2,2.58,2.58,0,0,1,.5-1.54,3.34,3.34,0,0,1,1.38-1.07,5,5,0,0,1,2.08-.4,6.84,6.84,0,0,1,2.05.27,5.31,5.31,0,0,1,1.49.73l.1,2.41h-1.45l-.31-1.4a2.54,2.54,0,0,0-.81-.39,3.85,3.85,0,0,0-1.07-.14,2.36,2.36,0,0,0-1.46.42,1.26,1.26,0,0,0-.57,1.05,1.33,1.33,0,0,0,.16.65,1.4,1.4,0,0,0,.62.49,7.61,7.61,0,0,0,1.35.44,7,7,0,0,1,3.08,1.31,2.58,2.58,0,0,1,.88,2,2.91,2.91,0,0,1-1,2.24A4.54,4.54,0,0,1,717.61,329.42Z"/><path class="cls-7" d="M316.45,554.09a4.56,4.56,0,0,1-2.5-.67,4.4,4.4,0,0,1-1.65-1.86,6.15,6.15,0,0,1-.59-2.75v-.41a6.14,6.14,0,0,1,.57-2.69,4.49,4.49,0,0,1,1.63-1.89,4.55,4.55,0,0,1,2.54-.69,5.56,5.56,0,0,1,2.24.42,4.64,4.64,0,0,1,1.62,1.15l0,2.54h-1.5l-.33-1.85a2.3,2.3,0,0,0-.83-.54,3,3,0,0,0-1.17-.21,2.36,2.36,0,0,0-1.51.51,3.35,3.35,0,0,0-1,1.36,4.75,4.75,0,0,0-.36,1.89v.41a5.48,5.48,0,0,0,.33,2,2.88,2.88,0,0,0,1,1.31,2.4,2.4,0,0,0,1.5.47,2.44,2.44,0,0,0,1.62-.54,2.32,2.32,0,0,0,.79-1.47h1.73l0,.06a3.51,3.51,0,0,1-.54,1.7,3.57,3.57,0,0,1-1.39,1.27A4.67,4.67,0,0,1,316.45,554.09Z"/><path class="cls-7" d="M322,553.89v-1.23l1.6-.28V540.17l-1.6-.28v-1.24h3.52v13.73l1.59.28v1.23Z"/><path class="cls-7" d="M328.4,553.89v-1.23l1.59-.28v-7.54l-1.59-.28v-1.24h3.52v9.06l1.59.28v1.23Zm1.5-13.18v-2.06h2v2.06Z"/><path class="cls-7" d="M339.65,554.09a4.73,4.73,0,0,1-2.55-.67,4.38,4.38,0,0,1-1.67-1.86,6,6,0,0,1-.59-2.75v-.43a5.65,5.65,0,0,1,.62-2.69,5,5,0,0,1,1.65-1.88,4,4,0,0,1,2.25-.68,4.55,4.55,0,0,1,2.39.58,3.7,3.7,0,0,1,1.45,1.65,6,6,0,0,1,.48,2.49v1.2h-6.85l0,.05a4.58,4.58,0,0,0,.36,1.8,2.75,2.75,0,0,0,1,1.24,2.55,2.55,0,0,0,1.52.45,4.81,4.81,0,0,0,1.72-.28,4,4,0,0,0,1.27-.77l.75,1.25a4.57,4.57,0,0,1-1.5.93A6,6,0,0,1,339.65,554.09Zm-2.76-6.54h4.87v-.25a3.32,3.32,0,0,0-.27-1.37,2.1,2.1,0,0,0-.8-.94,2.39,2.39,0,0,0-1.33-.35,2,2,0,0,0-1.17.38,2.72,2.72,0,0,0-.87,1,4.23,4.23,0,0,0-.45,1.46Z"/><path class="cls-7" d="M345.18,553.89v-1.23l1.59-.28v-7.54l-1.59-.28v-1.24h3.31l.14,1.57a3.81,3.81,0,0,1,1.32-1.3,3.51,3.51,0,0,1,1.81-.46,3.45,3.45,0,0,1,2.65,1,4.39,4.39,0,0,1,.93,3.09v5.16l1.6.28v1.23h-5.11v-1.23l1.59-.28v-5.12a2.84,2.84,0,0,0-.55-2,2.19,2.19,0,0,0-1.69-.59,2.7,2.7,0,0,0-1.47.4,3.06,3.06,0,0,0-1,1.09v6.2l1.6.28v1.23Z"/><path class="cls-7" d="M361.63,554.05a2.55,2.55,0,0,1-1.86-.68,3,3,0,0,1-.69-2.21v-6.41h-1.67v-1.43h1.67v-2.55H361v2.55h2.29v1.43H361v6.41a1.77,1.77,0,0,0,.3,1.13,1,1,0,0,0,.81.36,4.29,4.29,0,0,0,.76-.07l.66-.11.26,1.26a7.71,7.71,0,0,1-1,.23A7.8,7.8,0,0,1,361.63,554.05Z"/><path class="cls-7" d="M324.73,578.09a4.58,4.58,0,0,1-2.5-.67,4.4,4.4,0,0,1-1.65-1.86,6.15,6.15,0,0,1-.58-2.75v-.41a6.28,6.28,0,0,1,.56-2.69,4.41,4.41,0,0,1,4.17-2.58,5.61,5.61,0,0,1,2.25.42,4.51,4.51,0,0,1,1.61,1.15l.05,2.54h-1.5l-.34-1.85a2.22,2.22,0,0,0-.83-.54,3,3,0,0,0-1.17-.21,2.4,2.4,0,0,0-1.51.51,3.35,3.35,0,0,0-1,1.36,4.75,4.75,0,0,0-.36,1.89v.41a5.27,5.27,0,0,0,.34,2,2.81,2.81,0,0,0,1,1.31,2.39,2.39,0,0,0,1.49.47,2.45,2.45,0,0,0,1.63-.54,2.32,2.32,0,0,0,.79-1.47h1.73v.06a3.61,3.61,0,0,1-.53,1.7,3.64,3.64,0,0,1-1.39,1.27A4.74,4.74,0,0,1,324.73,578.09Z"/><path class="cls-7" d="M335.44,578.09a4.71,4.71,0,0,1-2.55-.67,4.46,4.46,0,0,1-1.68-1.86,6.15,6.15,0,0,1-.59-2.75v-.43a5.77,5.77,0,0,1,.62-2.69,5.12,5.12,0,0,1,1.65-1.88,4,4,0,0,1,2.25-.68,4.53,4.53,0,0,1,2.39.58,3.65,3.65,0,0,1,1.45,1.65,5.82,5.82,0,0,1,.49,2.49v1.2h-6.85l0,.05a4.77,4.77,0,0,0,.35,1.8,2.89,2.89,0,0,0,1,1.24,2.58,2.58,0,0,0,1.53.45,4.72,4.72,0,0,0,1.71-.28,4,4,0,0,0,1.28-.77l.75,1.25a4.57,4.57,0,0,1-1.5.93A6,6,0,0,1,335.44,578.09Zm-2.77-6.54h4.88v-.25a3.32,3.32,0,0,0-.27-1.37,2.16,2.16,0,0,0-.8-.94,2.43,2.43,0,0,0-1.34-.35A2,2,0,0,0,334,569a2.91,2.91,0,0,0-.87,1,4.71,4.71,0,0,0-.45,1.46Z"/><path class="cls-7" d="M341,577.89v-1.23l1.59-.28v-7.54l-1.59-.28v-1.24h3.31l.16,1.35,0,.19a3.56,3.56,0,0,1,1.11-1.27,2.55,2.55,0,0,1,1.51-.46,3.31,3.31,0,0,1,.62,0l.45.1-.25,1.79-1.34-.08a1.83,1.83,0,0,0-1.28.35,2.62,2.62,0,0,0-.8,1.06v6l1.59.28v1.23Z"/><path class="cls-7" d="M353.35,578.05a2.55,2.55,0,0,1-1.86-.68,3,3,0,0,1-.69-2.21v-6.41h-1.67v-1.43h1.67v-2.55h1.92v2.55H355v1.43h-2.3v6.41a1.71,1.71,0,0,0,.31,1.13,1,1,0,0,0,.81.36,4.38,4.38,0,0,0,.76-.07l.65-.11.27,1.26a8.09,8.09,0,0,1-1,.23A7.91,7.91,0,0,1,353.35,578.05Z"/><path class="cls-7" d="M1142.64,554.84a9.09,9.09,0,0,1-2-.21,11.78,11.78,0,0,1-2-.67l0-2.5h1.46l.36,1.51a5.84,5.84,0,0,0,1.06.33,6.36,6.36,0,0,0,1.11.1,2.52,2.52,0,0,0,1.68-.45,1.45,1.45,0,0,0,.5-1.11,1.34,1.34,0,0,0-.51-1.06,4.5,4.5,0,0,0-1.86-.74,7,7,0,0,1-2.82-1.18,2.42,2.42,0,0,1-.9-2,2.53,2.53,0,0,1,.5-1.53,3.28,3.28,0,0,1,1.38-1.08,5,5,0,0,1,2.07-.4,6.86,6.86,0,0,1,2.06.27,5.31,5.31,0,0,1,1.49.73l.1,2.41h-1.45l-.31-1.4a2.54,2.54,0,0,0-.81-.39,3.88,3.88,0,0,0-1.08-.14,2.4,2.4,0,0,0-1.46.42,1.28,1.28,0,0,0-.56,1.06,1.32,1.32,0,0,0,.16.64,1.4,1.4,0,0,0,.62.49,7.61,7.61,0,0,0,1.35.44,6.92,6.92,0,0,1,3.08,1.32,2.54,2.54,0,0,1,.88,2,2.91,2.91,0,0,1-1,2.24A4.58,4.58,0,0,1,1142.64,554.84Z"/><path class="cls-7" d="M1153.15,554.84a4.76,4.76,0,0,1-2.55-.67,4.38,4.38,0,0,1-1.67-1.86,6.15,6.15,0,0,1-.59-2.75v-.43a5.77,5.77,0,0,1,.62-2.69,4.85,4.85,0,0,1,1.65-1.87,4,4,0,0,1,2.25-.69,4.53,4.53,0,0,1,2.39.58,3.7,3.7,0,0,1,1.45,1.65,6,6,0,0,1,.49,2.49v1.2h-6.86l0,.05a4.67,4.67,0,0,0,.36,1.81,2.84,2.84,0,0,0,1,1.23,2.55,2.55,0,0,0,1.52.45,4.77,4.77,0,0,0,1.72-.28,3.79,3.79,0,0,0,1.27-.77l.75,1.25a4.37,4.37,0,0,1-1.5.93A6,6,0,0,1,1153.15,554.84Zm-2.76-6.54h4.87v-.25a3.32,3.32,0,0,0-.27-1.37,2,2,0,0,0-.8-.94,2.39,2.39,0,0,0-1.33-.35,2,2,0,0,0-1.17.38,2.91,2.91,0,0,0-.87,1,4.23,4.23,0,0,0-.45,1.46Z"/><path class="cls-7" d="M1158.66,554.64v-1.23l1.59-.28v-7.54l-1.59-.28v-1.24H1162l.17,1.35,0,.19a3.64,3.64,0,0,1,1.11-1.27,2.52,2.52,0,0,1,1.5-.46,3.24,3.24,0,0,1,.62,0,4,4,0,0,1,.46.1l-.26,1.79-1.33-.08a1.87,1.87,0,0,0-1.28.35,2.53,2.53,0,0,0-.8,1.06v6l1.59.28v1.23Z"/><path class="cls-7" d="M1171.58,554.64l-3.76-9.18-1.09-.15v-1.24h4.43v1.24l-1.38.2,2.35,6,.27.85h.06l.31-.85,2.18-6-1.42-.2v-1.24H1178v1.24l-1.12.15-3.57,9.18Z"/><path class="cls-7" d="M1183.54,554.84a4.76,4.76,0,0,1-2.55-.67,4.38,4.38,0,0,1-1.67-1.86,6.15,6.15,0,0,1-.59-2.75v-.43a5.77,5.77,0,0,1,.62-2.69,4.85,4.85,0,0,1,1.65-1.87,4,4,0,0,1,2.25-.69,4.53,4.53,0,0,1,2.39.58,3.7,3.7,0,0,1,1.45,1.65,6,6,0,0,1,.49,2.49v1.2h-6.86l0,.05a4.67,4.67,0,0,0,.36,1.81,2.84,2.84,0,0,0,1,1.23,2.55,2.55,0,0,0,1.52.45,4.74,4.74,0,0,0,1.72-.28,3.79,3.79,0,0,0,1.27-.77l.75,1.25a4.37,4.37,0,0,1-1.5.93A6,6,0,0,1,1183.54,554.84Zm-2.76-6.54h4.87v-.25a3.32,3.32,0,0,0-.27-1.37,2,2,0,0,0-.8-.94,2.39,2.39,0,0,0-1.33-.35,2,2,0,0,0-1.17.38,2.91,2.91,0,0,0-.87,1,4.23,4.23,0,0,0-.45,1.46Z"/><path class="cls-7" d="M1189.05,554.64v-1.23l1.59-.28v-7.54l-1.59-.28v-1.24h3.31l.17,1.35,0,.19a3.64,3.64,0,0,1,1.11-1.27,2.54,2.54,0,0,1,1.5-.46,3.24,3.24,0,0,1,.62,0,4,4,0,0,1,.46.1l-.25,1.79-1.34-.08a1.87,1.87,0,0,0-1.28.35,2.53,2.53,0,0,0-.8,1.06v6l1.59.28v1.23Z"/><path class="cls-7" d="M1154.27,578.84a4.56,4.56,0,0,1-2.5-.67,4.4,4.4,0,0,1-1.65-1.86,6.15,6.15,0,0,1-.59-2.75v-.41a6.14,6.14,0,0,1,.57-2.69,4.42,4.42,0,0,1,1.63-1.89,4.55,4.55,0,0,1,2.54-.69,5.56,5.56,0,0,1,2.24.42,4.51,4.51,0,0,1,1.61,1.15l.05,2.54h-1.5l-.33-1.85a2.3,2.3,0,0,0-.83-.54,3.07,3.07,0,0,0-1.18-.21,2.35,2.35,0,0,0-1.5.51,3.27,3.27,0,0,0-1,1.36,4.59,4.59,0,0,0-.37,1.89v.41a5.47,5.47,0,0,0,.34,2,3,3,0,0,0,1,1.32,2.69,2.69,0,0,0,3.12-.08,2.32,2.32,0,0,0,.79-1.47h1.73l0,.06a3.74,3.74,0,0,1-.54,1.7,3.64,3.64,0,0,1-1.39,1.27A4.67,4.67,0,0,1,1154.27,578.84Z"/><path class="cls-7" d="M1165,578.84a4.71,4.71,0,0,1-2.55-.67,4.38,4.38,0,0,1-1.67-1.86,6,6,0,0,1-.59-2.75v-.43a5.65,5.65,0,0,1,.62-2.69,4.85,4.85,0,0,1,1.65-1.87,3.93,3.93,0,0,1,2.25-.69,4.49,4.49,0,0,1,2.38.58,3.59,3.59,0,0,1,1.45,1.65,5.82,5.82,0,0,1,.49,2.49v1.2h-6.85l0,.05a4.86,4.86,0,0,0,.35,1.81,2.86,2.86,0,0,0,1,1.23,2.55,2.55,0,0,0,1.52.45,4.72,4.72,0,0,0,1.71-.28,3.84,3.84,0,0,0,1.28-.77l.75,1.25a4.57,4.57,0,0,1-1.5.93A6,6,0,0,1,1165,578.84Zm-2.76-6.54h4.87v-.25a3.32,3.32,0,0,0-.27-1.37,2.16,2.16,0,0,0-.8-.94,2.39,2.39,0,0,0-1.33-.35,2,2,0,0,0-1.18.38,2.79,2.79,0,0,0-.86,1,4.23,4.23,0,0,0-.45,1.46Z"/><path class="cls-7" d="M1170.48,578.64v-1.23l1.59-.28v-7.54l-1.59-.28v-1.24h3.31l.16,1.35,0,.19a3.64,3.64,0,0,1,1.11-1.27,2.55,2.55,0,0,1,1.51-.46,3.31,3.31,0,0,1,.62,0l.45.1-.25,1.79-1.34-.08a1.9,1.9,0,0,0-1.28.35,2.62,2.62,0,0,0-.8,1.06v6l1.59.28v1.23Z"/><path class="cls-7" d="M1182.88,578.8a2.51,2.51,0,0,1-1.86-.68,3,3,0,0,1-.69-2.21V569.5h-1.67v-1.43h1.67v-2.55h1.92v2.55h2.3v1.43h-2.3v6.41a1.75,1.75,0,0,0,.31,1.13,1,1,0,0,0,.81.36,4.29,4.29,0,0,0,.76-.07l.65-.11.27,1.26a8.09,8.09,0,0,1-1,.23A7.91,7.91,0,0,1,1182.88,578.8Z"/><path class="cls-7" d="M202,652.41a3.81,3.81,0,0,1-2.21-.64,4,4,0,0,1-1.41-1.79,6.65,6.65,0,0,1-.49-2.66v-.21a8.28,8.28,0,0,1,.49-3,4.32,4.32,0,0,1,1.41-2,3.58,3.58,0,0,1,2.23-.71,3.64,3.64,0,0,1,1.65.35,3.38,3.38,0,0,1,1.23,1v-4.31l-1.59-.27V637h3.51V650.7l1.59.27v1.23h-3.26l-.15-1.26a3.51,3.51,0,0,1-1.27,1.1A3.93,3.93,0,0,1,202,652.41Zm.49-1.57a2.54,2.54,0,0,0,1.44-.39,2.91,2.91,0,0,0,1-1.1v-4.9a3,3,0,0,0-1-1.06,2.54,2.54,0,0,0-1.42-.39,2.22,2.22,0,0,0-1.52.53,3.19,3.19,0,0,0-.89,1.44,7.29,7.29,0,0,0-.29,2.14v.21a4.48,4.48,0,0,0,.66,2.56A2.27,2.27,0,0,0,202.46,650.84Z"/><path class="cls-7" d="M215.33,652.41a3.79,3.79,0,0,1-1.8-.4,3.3,3.3,0,0,1-1.27-1.17l-.17,1.36h-1.66V638.48l-1.6-.27V637h3.52v5.91a3.41,3.41,0,0,1,1.23-1.07,3.8,3.8,0,0,1,1.73-.37,3.58,3.58,0,0,1,2.23.71,4.41,4.41,0,0,1,1.42,2,8.5,8.5,0,0,1,.49,3v.21A6.82,6.82,0,0,1,219,650a4,4,0,0,1-1.42,1.79A3.84,3.84,0,0,1,215.33,652.41Zm-.49-1.57a2.29,2.29,0,0,0,2-1,4.48,4.48,0,0,0,.66-2.56v-.21a7,7,0,0,0-.3-2.14,3,3,0,0,0-.89-1.44,2.19,2.19,0,0,0-1.51-.53,2.6,2.6,0,0,0-1.5.43,3,3,0,0,0-1,1.15v4.67a2.94,2.94,0,0,0,1,1.16A2.56,2.56,0,0,0,214.84,650.84Z"/><path class="cls-7" d="M226.06,652.41a4.65,4.65,0,0,1-2.5-.67,4.52,4.52,0,0,1-1.65-1.86,6.19,6.19,0,0,1-.59-2.76v-.41a6.14,6.14,0,0,1,.57-2.69,4.38,4.38,0,0,1,4.17-2.58,5.56,5.56,0,0,1,2.24.42,4.64,4.64,0,0,1,1.62,1.15l.05,2.54h-1.51l-.33-1.84a2.32,2.32,0,0,0-.83-.55,3,3,0,0,0-1.17-.21,2.38,2.38,0,0,0-1.51.51,3.35,3.35,0,0,0-1,1.36,4.79,4.79,0,0,0-.36,1.89v.41a5.48,5.48,0,0,0,.33,2,3,3,0,0,0,1,1.32,2.45,2.45,0,0,0,1.5.46,2.49,2.49,0,0,0,1.62-.53,2.27,2.27,0,0,0,.79-1.48h1.73l0,.06a3.55,3.55,0,0,1-1.93,3A4.56,4.56,0,0,1,226.06,652.41Z"/><path class="cls-7" d="M231.61,652.2V651l1.59-.27V638.48l-1.59-.27V637h3.51V650.7l1.59.27v1.23Z"/><path class="cls-7" d="M238,652.2V651l1.6-.27v-7.55l-1.6-.28v-1.24h3.52v9.07l1.59.27v1.23Zm1.5-13.17V637h2V639Z"/><path class="cls-7" d="M249.26,652.41a4.85,4.85,0,0,1-2.55-.67,4.49,4.49,0,0,1-1.67-1.86,6.19,6.19,0,0,1-.59-2.76v-.43a5.77,5.77,0,0,1,.62-2.69,4.92,4.92,0,0,1,1.65-1.87,4,4,0,0,1,2.25-.69,4.44,4.44,0,0,1,2.39.59,3.68,3.68,0,0,1,1.45,1.64,6,6,0,0,1,.49,2.5v1.2h-6.86l0,0a4.66,4.66,0,0,0,.36,1.8,2.84,2.84,0,0,0,1,1.23,2.55,2.55,0,0,0,1.52.45,4.77,4.77,0,0,0,1.72-.28,3.94,3.94,0,0,0,1.27-.76l.75,1.25a4.51,4.51,0,0,1-1.5.92A6,6,0,0,1,249.26,652.41Zm-2.76-6.55h4.87v-.25a3.27,3.27,0,0,0-.27-1.36,2.07,2.07,0,0,0-.8-1A2.39,2.39,0,0,0,249,643a2,2,0,0,0-1.17.38,2.91,2.91,0,0,0-.87,1,4.23,4.23,0,0,0-.45,1.46Z"/><path class="cls-7" d="M254.79,652.2V651l1.59-.27v-7.55l-1.59-.28v-1.24h3.31l.14,1.58a3.84,3.84,0,0,1,1.32-1.31,3.53,3.53,0,0,1,1.81-.46,3.45,3.45,0,0,1,2.65,1,4.43,4.43,0,0,1,.94,3.09v5.17l1.59.27v1.23h-5.11V651l1.59-.27v-5.13a2.84,2.84,0,0,0-.55-2,2.21,2.21,0,0,0-1.68-.59,2.74,2.74,0,0,0-1.47.4,2.92,2.92,0,0,0-1,1.1v6.2l1.59.27v1.23Z"/><path class="cls-7" d="M271.25,652.37a2.48,2.48,0,0,1-1.86-.69,3,3,0,0,1-.69-2.2v-6.42H267v-1.43h1.67v-2.54h1.92v2.54h2.3v1.43h-2.3v6.42a1.74,1.74,0,0,0,.3,1.12,1,1,0,0,0,.81.36,5.52,5.52,0,0,0,.77-.06l.65-.11.26,1.25a6.41,6.41,0,0,1-1,.23A6.57,6.57,0,0,1,271.25,652.37Z"/><circle class="cls-9" cx="1286.14" cy="561.53" r="83.74"/><path class="cls-10" d="M1219.43,495.9l-.75-.77,1.22-1.5-6.45-6.7-1.38,1.38-.72-.75,2.07-3.08,7.69,8,1.54-1.15.74.77Z"/><path class="cls-10" d="M1227.63,488.76a3.6,3.6,0,0,1-3.05.82,5.47,5.47,0,0,1-3.1-2.16l-1.85-2.29a5.58,5.58,0,0,1-1.46-3.5,3.93,3.93,0,0,1,4.5-3.62,5.56,5.56,0,0,1,3.11,2.17l1.84,2.29a5.49,5.49,0,0,1,1.46,3.49A3.57,3.57,0,0,1,1227.63,488.76Zm-.82-1a1.94,1.94,0,0,0,.8-1.7,4.15,4.15,0,0,0-1.08-2.25l-2.28-2.84a4.19,4.19,0,0,0-2-1.52,2,2,0,0,0-1.84.44,1.91,1.91,0,0,0-.79,1.68,4.16,4.16,0,0,0,1.07,2.25l2.28,2.83a4.19,4.19,0,0,0,2,1.53A2,2,0,0,0,1226.81,487.74Z"/><path class="cls-10" d="M1232.29,485l-1-1.42,1.38-1,1,1.41Z"/><path class="cls-10" d="M1235.45,482.85l-.56-.92,1.52-1.2-4.83-7.94-1.65,1-.54-.9,2.69-2.55,5.76,9.47,1.75-.79.56.92Z"/><path class="cls-10" d="M1245,477.7a3.58,3.58,0,0,1-3.15.13,5.44,5.44,0,0,1-2.56-2.79l-1.3-2.64a5.51,5.51,0,0,1-.66-3.73,3.53,3.53,0,0,1,2-2.41,3.6,3.6,0,0,1,3.16-.14,5.55,5.55,0,0,1,2.56,2.8l1.3,2.63a5.56,5.56,0,0,1,.66,3.74A3.59,3.59,0,0,1,1245,477.7Zm-.58-1.18a1.94,1.94,0,0,0,1.15-1.48,4.16,4.16,0,0,0-.56-2.44l-1.6-3.26a4.24,4.24,0,0,0-1.6-1.92,2,2,0,0,0-1.88,0,2,2,0,0,0-1.15,1.47,4.19,4.19,0,0,0,.56,2.43l1.6,3.27a4.18,4.18,0,0,0,1.6,1.92A2,2,0,0,0,1244.4,476.52Z"/><path class="cls-10" d="M1250.35,475.06l-.64-1.59,1.55-.63.65,1.59Z"/><path class="cls-10" d="M1253.89,473.65l-.34-1,1.73-.84-3-8.8-1.84.65-.34-1,3.19-1.9,3.53,10.51,1.89-.38.34,1Z"/><path class="cls-10" d="M1264.33,470.71a3.54,3.54,0,0,1-3.1-.56,5.51,5.51,0,0,1-1.88-3.28l-.69-2.86a5.66,5.66,0,0,1,.18-3.79,3.91,3.91,0,0,1,5.62-1.34,5.51,5.51,0,0,1,1.88,3.29L1267,465a5.62,5.62,0,0,1-.18,3.78A3.57,3.57,0,0,1,1264.33,470.71Zm-.3-1.27a1.92,1.92,0,0,0,1.45-1.19,4.21,4.21,0,0,0,0-2.5l-.84-3.54a4.14,4.14,0,0,0-1.14-2.22,2,2,0,0,0-1.84-.39,1.92,1.92,0,0,0-1.44,1.18,4.16,4.16,0,0,0,0,2.49l.85,3.53a4.14,4.14,0,0,0,1.14,2.23A2,2,0,0,0,1264,469.44Z"/><path class="cls-10" d="M1270.15,469.33l-.28-1.7,1.66-.27.27,1.7Z"/><path class="cls-10" d="M1273.69,468.71l-.11-1.15,3.64-4.85a16.6,16.6,0,0,0,1-1.48,4.58,4.58,0,0,0,.47-1.09,2.94,2.94,0,0,0,.08-1,2.3,2.3,0,0,0-.7-1.51,2,2,0,0,0-1.66-.49,2.24,2.24,0,0,0-1.64.81,2.64,2.64,0,0,0-.44,1.9l-1.6.15,0,0a3.66,3.66,0,0,1,.28-2,3.43,3.43,0,0,1,1.25-1.48,4.58,4.58,0,0,1,2.11-.69,4.22,4.22,0,0,1,2.05.27,3.16,3.16,0,0,1,1.41,1.1,3.31,3.31,0,0,1,.62,1.73,3.59,3.59,0,0,1-.15,1.37,6,6,0,0,1-.65,1.44,17.16,17.16,0,0,1-1.1,1.6l-2.93,3.83,0,0,4.38-.4v-1.43l1.42-.12.24,2.72Z"/><circle class="cls-11" cx="1286.14" cy="561.53" r="83.74"/><polygon class="cls-12" points="1259.62 534.92 1236.72 548.23 1236.72 574.84 1259.62 588.14 1282.74 574.84 1282.74 548.23 1259.62 534.92"/><g class="cls-13"><polygon class="cls-14" points="1282.74 574.84 1259.62 588.14 1236.72 574.84 1259.62 561.53 1282.74 574.84"/><polygon class="cls-14" points="1282.74 548.23 1282.74 574.84 1259.62 561.53 1259.62 534.92 1282.74 548.23"/><polygon class="cls-14" points="1259.62 534.92 1259.62 561.53 1236.72 574.84 1236.72 548.23 1259.62 534.92"/></g><polygon class="cls-15" points="1259.81 542.53 1243.3 552.03 1243.3 571.03 1259.81 580.53 1276.16 571.03 1276.16 552.03 1259.81 542.53"/><circle class="cls-4" cx="1259.84" cy="561.53" r="9.44"/><polygon class="cls-14" points="1236.72 548.23 1259.84 534.92 1282.74 548.23 1259.84 561.53 1236.72 548.23"/><polygon class="cls-14" points="1236.72 574.84 1236.72 548.23 1259.84 561.53 1259.84 588.14 1236.72 574.84"/><polygon class="cls-14" points="1259.84 588.14 1259.84 561.53 1282.74 548.23 1282.74 574.84 1259.84 588.14"/><path class="cls-16" d="M1335.16,570.18h0V552.72h-34.74v17.46h0v.33h0c.33,4.77,8.06,8.56,17.28,8.56,9.39,0,17-3.79,17.29-8.56h0v-.33Z"/><ellipse class="cls-17" cx="1317.87" cy="552.89" rx="17.45" ry="8.89"/><circle class="cls-9" cx="238.73" cy="553.8" r="64.39"/><path class="cls-10" d="M187.45,503.32l-.57-.6.94-1.15-4.95-5.15-1.07,1.06-.56-.58,1.6-2.37,5.91,6.14,1.18-.88.57.59Z"/><path class="cls-10" d="M193.74,497.85a2.76,2.76,0,0,1-2.34.63,4.26,4.26,0,0,1-2.39-1.67l-1.42-1.76a4.27,4.27,0,0,1-1.12-2.68,2.7,2.7,0,0,1,1.11-2.15,2.77,2.77,0,0,1,2.35-.64,4.26,4.26,0,0,1,2.39,1.67l1.42,1.76a4.24,4.24,0,0,1,1.12,2.69A2.74,2.74,0,0,1,193.74,497.85Zm-.63-.79a1.48,1.48,0,0,0,.62-1.3,3.26,3.26,0,0,0-.83-1.74l-1.76-2.18a3.2,3.2,0,0,0-1.51-1.17,1.52,1.52,0,0,0-1.41.34,1.47,1.47,0,0,0-.61,1.29,3.18,3.18,0,0,0,.82,1.73l1.75,2.18a3.26,3.26,0,0,0,1.52,1.17A1.51,1.51,0,0,0,193.11,497.06Z"/><path class="cls-10" d="M197.35,495l-.75-1.09,1.06-.73.75,1.09Z"/><path class="cls-10" d="M199.75,493.3l-.42-.71,1.16-.92-3.71-6.1-1.27.8-.41-.69,2.07-2,4.42,7.28,1.35-.6.43.7Z"/><path class="cls-10" d="M207.13,489.31a2.76,2.76,0,0,1-2.42.11,4.28,4.28,0,0,1-2-2.15l-1-2a4.28,4.28,0,0,1-.5-2.87,3,3,0,0,1,4-2,4.28,4.28,0,0,1,2,2.15l1,2a4.29,4.29,0,0,1,.5,2.87A2.73,2.73,0,0,1,207.13,489.31Zm-.44-.9a1.48,1.48,0,0,0,.88-1.14,3.25,3.25,0,0,0-.42-1.87l-1.24-2.51a3.24,3.24,0,0,0-1.22-1.48,1.66,1.66,0,0,0-2.33,1.15,3.24,3.24,0,0,0,.42,1.86l1.23,2.51a3.26,3.26,0,0,0,1.23,1.48A1.49,1.49,0,0,0,206.69,488.41Z"/><path class="cls-10" d="M211.24,487.3l-.5-1.22,1.2-.49.5,1.23Z"/><path class="cls-10" d="M214,486.21l-.26-.78,1.33-.64L212.76,478l-1.41.5-.26-.76,2.45-1.46,2.72,8.08,1.44-.3.27.79Z"/><path class="cls-10" d="M222.05,484a2.73,2.73,0,0,1-2.39-.44,4.22,4.22,0,0,1-1.44-2.52l-.53-2.2a4.31,4.31,0,0,1,.14-2.91,3,3,0,0,1,4.32-1,4.26,4.26,0,0,1,1.45,2.53l.52,2.2a4.25,4.25,0,0,1-.14,2.91A2.74,2.74,0,0,1,222.05,484Zm-.24-1a1.49,1.49,0,0,0,1.12-.91,3.29,3.29,0,0,0,0-1.93l-.65-2.72a3.12,3.12,0,0,0-.87-1.7,1.5,1.5,0,0,0-1.41-.31,1.47,1.47,0,0,0-1.11.91,3.13,3.13,0,0,0,0,1.91l.65,2.72a3.13,3.13,0,0,0,.88,1.71A1.48,1.48,0,0,0,221.81,483Z"/><path class="cls-10" d="M226.52,482.89l-.21-1.3,1.27-.21.21,1.31Z"/><path class="cls-10" d="M232.21,482.15l-.07-.82,1.05-.27-.11-1.19-4.26.37-.06-.73,3.61-6.94,1.36-.12.55,6.3,1.31-.11.08,1-1.31.11.1,1.19,1.08.09.07.82Zm-2.11-3,2.9-.25-.39-4.47h0l-.1.35Z"/><circle class="cls-11" cx="238.73" cy="553.8" r="64.39"/><polygon class="cls-12" points="238.51 524.88 213.62 539.34 213.62 568.26 238.51 582.72 263.63 568.26 263.63 539.34 238.51 524.88"/><g class="cls-13"><polygon class="cls-14" points="263.63 568.26 238.51 582.72 213.62 568.26 238.51 553.8 263.63 568.26"/><polygon class="cls-14" points="263.63 539.34 263.63 568.26 238.51 553.8 238.51 524.88 263.63 539.34"/><polygon class="cls-14" points="238.51 524.88 238.51 553.8 213.62 568.26 213.62 539.34 238.51 524.88"/></g><polygon class="cls-18" points="238.71 533.15 220.77 543.48 220.77 564.12 238.71 574.45 256.48 564.12 256.48 543.48 238.71 533.15"/><circle class="cls-4" cx="238.74" cy="553.8" r="10.26"/><polygon class="cls-14" points="213.62 539.34 238.74 524.88 263.63 539.34 238.74 553.8 213.62 539.34"/><polygon class="cls-14" points="213.62 568.26 213.62 539.34 238.74 553.8 238.74 582.72 213.62 568.26"/><polygon class="cls-14" points="238.74 582.72 238.74 553.8 263.63 539.34 263.63 568.26 238.74 582.72"/><line class="cls-14" x1="257.76" y1="559.5" x2="1239.76" y2="559.5"/><path class="cls-7" d="M691.55,252.28a6.41,6.41,0,0,1-3.57-.94,5.77,5.77,0,0,1-2.15-2.57,9.08,9.08,0,0,1-.72-3.7v-.21a8.75,8.75,0,0,1,.75-3.71,6.05,6.05,0,0,1,2.16-2.57,6,6,0,0,1,3.36-.93,7,7,0,0,1,2.52.43,6,6,0,0,1,1.89,1.09v3.07h-1.53l-.2-2.25a3.14,3.14,0,0,0-.72-.41,4,4,0,0,0-.9-.25,6,6,0,0,0-1.07-.09A3.83,3.83,0,0,0,689,240a4.3,4.3,0,0,0-1.47,2,7.92,7.92,0,0,0-.5,2.91v.23a7.74,7.74,0,0,0,.54,3.05,4.11,4.11,0,0,0,1.55,1.93,4.48,4.48,0,0,0,2.48.66,5.4,5.4,0,0,0,1.34-.16,4.13,4.13,0,0,0,1.09-.43l.21-2h1.5v3.09a6.81,6.81,0,0,1-1.91.78A9.7,9.7,0,0,1,691.55,252.28Z"/><path class="cls-7" d="M697.61,252.07v-1.23l1-.15,5-12.84h1.65l4.88,12.84,1,.15v1.23h-4.08v-1.23l1.08-.19-.94-2.61h-5.69l-1,2.61,1.07.19v1.23Zm4.56-5.64h4.51l-2.09-5.79-.11-.32h-.06l-.12.32Z"/><path class="cls-7" d="M717.82,252.28a8,8,0,0,1-2.5-.39,7.82,7.82,0,0,1-2.3-1.17v-3h1.49l.33,2.23a5.84,5.84,0,0,0,1.37.61,5.91,5.91,0,0,0,1.61.21,4.05,4.05,0,0,0,1.65-.3,2.33,2.33,0,0,0,1-.82,2.12,2.12,0,0,0,.36-1.23,2.08,2.08,0,0,0-.31-1.15,2.54,2.54,0,0,0-1-.88,8.38,8.38,0,0,0-2-.66,9,9,0,0,1-2.47-.91,4.19,4.19,0,0,1-1.54-1.39,3.35,3.35,0,0,1-.52-1.87,3.53,3.53,0,0,1,.59-2,4.05,4.05,0,0,1,1.65-1.39,5.71,5.71,0,0,1,2.46-.5,7.23,7.23,0,0,1,2.64.45,6.58,6.58,0,0,1,1.89,1.1V242h-1.5l-.32-2a4,4,0,0,0-1.09-.59,5.05,5.05,0,0,0-1.62-.23,3.47,3.47,0,0,0-1.45.29,2.27,2.27,0,0,0-1,.8,2.11,2.11,0,0,0-.36,1.22,1.88,1.88,0,0,0,.32,1.08,2.62,2.62,0,0,0,1,.8,9.23,9.23,0,0,0,1.92.65,7.51,7.51,0,0,1,3.4,1.65,3.54,3.54,0,0,1,1.16,2.69,3.48,3.48,0,0,1-.62,2,4.14,4.14,0,0,1-1.73,1.38A6.49,6.49,0,0,1,717.82,252.28Z"/><circle class="cls-9" cx="720.95" cy="188.09" r="83.74"/><path class="cls-10" d="M654.24,122.46l-.74-.78,1.22-1.5-6.45-6.69-1.38,1.38-.72-.76,2.07-3.08,7.68,8,1.54-1.15.75.77Z"/><path class="cls-10" d="M662.45,115.32a3.6,3.6,0,0,1-3.05.82,5.56,5.56,0,0,1-3.11-2.17l-1.84-2.28a5.6,5.6,0,0,1-1.46-3.5,3.9,3.9,0,0,1,4.5-3.62,5.56,5.56,0,0,1,3.11,2.17l1.84,2.28a5.57,5.57,0,0,1,1.46,3.5A3.57,3.57,0,0,1,662.45,115.32Zm-.83-1a1.93,1.93,0,0,0,.81-1.69,4.25,4.25,0,0,0-1.08-2.26l-2.28-2.83a4.1,4.1,0,0,0-2-1.52,2,2,0,0,0-1.83.43,1.93,1.93,0,0,0-.79,1.69,4.13,4.13,0,0,0,1.06,2.25l2.28,2.83a4.22,4.22,0,0,0,2,1.52A1.93,1.93,0,0,0,661.62,114.29Z"/><path class="cls-10" d="M667.11,111.57l-1-1.41,1.38-1,1,1.41Z"/><path class="cls-10" d="M670.27,109.4l-.56-.91,1.51-1.2-4.82-7.94-1.65,1-.54-.89,2.69-2.56,5.76,9.48,1.75-.79.56.92Z"/><path class="cls-10" d="M679.79,104.25a3.58,3.58,0,0,1-3.15.14,5.56,5.56,0,0,1-2.56-2.79L672.79,99a5.52,5.52,0,0,1-.66-3.73,3.51,3.51,0,0,1,2-2.41,3.57,3.57,0,0,1,3.16-.14,5.55,5.55,0,0,1,2.56,2.8l1.29,2.63a5.6,5.6,0,0,1,.67,3.73A3.56,3.56,0,0,1,679.79,104.25Zm-.58-1.17a1.94,1.94,0,0,0,1.16-1.48,4.22,4.22,0,0,0-.56-2.44L678.2,95.9A4.07,4.07,0,0,0,676.61,94a2.16,2.16,0,0,0-3,1.49,4.25,4.25,0,0,0,.55,2.43l1.61,3.26a4.18,4.18,0,0,0,1.6,1.92A1.94,1.94,0,0,0,679.21,103.08Z"/><path class="cls-10" d="M685.17,101.62l-.65-1.6,1.56-.63.64,1.6Z"/><path class="cls-10" d="M688.71,100.2l-.35-1,1.74-.84-3-8.81-1.83.66-.34-1,3.19-1.9,3.53,10.5,1.89-.38.34,1Z"/><path class="cls-10" d="M699.15,97.27a3.57,3.57,0,0,1-3.1-.56,5.46,5.46,0,0,1-1.88-3.29l-.69-2.86a5.63,5.63,0,0,1,.18-3.78,3.54,3.54,0,0,1,2.5-1.91,3.6,3.6,0,0,1,3.12.56,5.58,5.58,0,0,1,1.88,3.3l.68,2.85a5.54,5.54,0,0,1-.18,3.79A3.53,3.53,0,0,1,699.15,97.27Zm-.3-1.28a1.94,1.94,0,0,0,1.45-1.18,4.24,4.24,0,0,0,0-2.51l-.85-3.53a4.07,4.07,0,0,0-1.13-2.22,2.15,2.15,0,0,0-3.28.78,4.19,4.19,0,0,0,0,2.5l.85,3.53A4.18,4.18,0,0,0,697,95.59,1.94,1.94,0,0,0,698.85,96Z"/><path class="cls-10" d="M705,95.89l-.28-1.7,1.65-.27.28,1.7Z"/><path class="cls-10" d="M712.19,95.11a4.72,4.72,0,0,1-2.05-.22,3.27,3.27,0,0,1-1.48-1,3.08,3.08,0,0,1-.64-1.76l0,0,1.6-.15A2.25,2.25,0,0,0,710,93a1.83,1.83,0,0,0,.84.66,2.52,2.52,0,0,0,1.22.16,2.34,2.34,0,0,0,1.61-.73,2.28,2.28,0,0,0,.44-1.76,2.34,2.34,0,0,0-.68-1.64,2.3,2.3,0,0,0-1.74-.39l-1.46.14-.12-1.31,1.46-.13a2.52,2.52,0,0,0,1.16-.36,1.44,1.44,0,0,0,.59-.78,3,3,0,0,0,.09-1.15,2.23,2.23,0,0,0-.67-1.56,2,2,0,0,0-1.6-.41,2.35,2.35,0,0,0-1.11.36,1.84,1.84,0,0,0-.69.8,2.18,2.18,0,0,0-.16,1.13l-1.61.14,0,0a3.08,3.08,0,0,1,.29-1.73A3.47,3.47,0,0,1,709.07,83a4.33,4.33,0,0,1,2-.63,4,4,0,0,1,2.81.67,3.32,3.32,0,0,1,1.26,2.5,3,3,0,0,1-1.61,2.85,2.71,2.71,0,0,1,1.68,1,3.34,3.34,0,0,1,.62,1.7,3.58,3.58,0,0,1-.33,2,3.24,3.24,0,0,1-1.28,1.37A4.49,4.49,0,0,1,712.19,95.11Z"/><circle class="cls-11" cx="720.95" cy="188.09" r="83.74"/><polygon class="cls-12" points="694.44 161.48 671.54 174.78 671.54 201.39 694.44 214.7 717.56 201.39 717.56 174.78 694.44 161.48"/><g class="cls-13"><polygon class="cls-14" points="717.56 201.39 694.44 214.7 671.54 201.39 694.44 188.09 717.56 201.39"/><polygon class="cls-14" points="717.56 174.78 717.56 201.39 694.44 188.09 694.44 161.48 717.56 174.78"/><polygon class="cls-14" points="694.44 161.48 694.44 188.09 671.54 201.39 671.54 174.78 694.44 161.48"/></g><polygon class="cls-19" points="694.63 169.09 678.12 178.59 678.12 197.59 694.63 207.09 710.98 197.59 710.98 178.59 694.63 169.09"/><circle class="cls-4" cx="694.66" cy="188.09" r="9.44"/><polygon class="cls-14" points="671.54 174.78 694.66 161.48 717.56 174.78 694.66 188.09 671.54 174.78"/><polygon class="cls-14" points="671.54 201.39 671.54 174.78 694.66 188.09 694.66 214.7 671.54 201.39"/><polygon class="cls-14" points="694.66 214.7 694.66 188.09 717.56 174.78 717.56 201.39 694.66 214.7"/><path class="cls-20" d="M770,196.73h0V179.28H735.23v17.45h0v.33h0c.33,4.78,8.07,8.56,17.29,8.56,9.39,0,17-3.78,17.29-8.56h0v-.33Z"/><ellipse class="cls-21" cx="752.69" cy="179.44" rx="17.45" ry="8.89"/><line class="cls-22" x1="263.18" y1="535.25" x2="685.22" y2="209.34"/><line class="cls-23" x1="448.15" y1="179.65" x2="671.67" y2="179.65"/><line class="cls-22" x1="1244.22" y1="541.35" x2="706.82" y2="207.63"/><line class="cls-23" x1="876.04" y1="623.22" x2="1227.42" y2="623.22"/></g></g></svg>