<?xml version="1.0" encoding="utf-8"?>
<!-- Generator: Adobe Illustrator 26.3.1, SVG Export Plug-In . SVG Version: 6.00 Build 0)  -->
<svg version="1.1" id="Ebene_1" xmlns="http://www.w3.org/2000/svg" xmlns:xlink="http://www.w3.org/1999/xlink" x="0px" y="0px"
	 viewBox="0 0 1225.9 775.1" style="enable-background:new 0 0 1225.9 775.1;" xml:space="preserve">
<style type="text/css">
	.st0{enable-background:new    ;}
	.st1{fill:#33245E;}
	
		.st2{opacity:0.39;fill:none;stroke:#33245E;stroke-width:6;stroke-linecap:round;stroke-linejoin:round;enable-background:new    ;}
	.st3{fill:none;stroke:#33245E;stroke-width:6;stroke-linecap:round;stroke-linejoin:round;}
	.st4{fill:none;stroke:#FFCC00;stroke-width:6;stroke-miterlimit:10;}
	.st5{fill:#FF6633;}
	.st6{opacity:0.39;}
	.st7{fill:none;stroke:#FF6633;stroke-width:6;stroke-linecap:round;stroke-linejoin:round;}
	.st8{fill:none;stroke:#FFCC00;stroke-width:6;stroke-linecap:round;stroke-linejoin:round;}
	.st9{opacity:0.5;fill:none;stroke:#33245E;stroke-width:4;stroke-linecap:round;stroke-linejoin:round;enable-background:new    ;}
	.st10{fill:none;stroke:#33245E;stroke-width:4;stroke-linecap:round;stroke-linejoin:round;}
	.st11{fill:#33245E;stroke:#33245E;stroke-width:2;stroke-miterlimit:10;}
	.st12{fill:#326DE6;}
	.st13{fill:#FFFFFF;}
	.st14{fill:#FFFFFF;stroke:#990066;stroke-width:4;stroke-linecap:round;stroke-linejoin:round;}
	.st15{fill:none;stroke:#990066;stroke-width:4;stroke-linecap:round;stroke-linejoin:round;}
	.st16{fill:none;stroke:#FF6633;stroke-width:6;stroke-linecap:round;stroke-miterlimit:10;}
	.st17{fill:none;stroke:#990066;stroke-width:6;stroke-linecap:round;stroke-miterlimit:10;}
	.st18{fill:#990066;}
	.st19{fill:none;stroke:#326DE6;stroke-width:6;stroke-linecap:round;stroke-miterlimit:10;}
	.st20{fill:#FFFFFF;stroke:#FF6633;stroke-width:6;stroke-miterlimit:10;}
	.st21{fill:none;stroke:#FF6633;stroke-width:6;stroke-miterlimit:10;}
	.st22{fill:none;stroke:#FF6633;stroke-width:4;stroke-linecap:round;stroke-linejoin:round;}
	.st23{fill:#330066;}
	.st24{fill:none;stroke:#635384;stroke-width:4;stroke-linecap:round;stroke-linejoin:round;}
	.st25{fill:#635384;}
</style>
<g class="st0">
	<path class="st1" d="M981.9,195.4c0.8,0,1.4-0.2,1.8-0.7c0.5-0.4,0.7-1,0.7-1.8h3.9v0.1c0,1.6-0.6,2.9-1.8,4
		c-1.2,1.1-2.8,1.6-4.6,1.6c-2.4,0-4.2-0.7-5.5-2.2c-1.3-1.5-1.9-3.4-1.9-5.8v-0.4c0-2.3,0.7-4.3,2-5.8c1.3-1.5,3.2-2.3,5.6-2.3
		c1.3,0,2.4,0.2,3.4,0.6s1.9,0.9,2.5,1.6l0.1,4.2h-3.5l-0.7-2.5c-0.2-0.2-0.5-0.3-0.8-0.5c-0.3-0.1-0.7-0.2-1.1-0.2
		c-1.2,0-2.1,0.4-2.6,1.3s-0.7,2-0.7,3.4v0.4c0,1.4,0.2,2.6,0.7,3.4C979.9,195,980.8,195.4,981.9,195.4z"/>
	<path class="st1" d="M990.3,190.3c0-2.4,0.7-4.3,2-5.8s3.2-2.3,5.5-2.3s4.2,0.8,5.5,2.3s2,3.4,2,5.8v0.3c0,2.4-0.7,4.3-2,5.8
		s-3.1,2.2-5.5,2.2s-4.2-0.7-5.5-2.2s-2-3.4-2-5.8V190.3z M994.5,190.6c0,1.4,0.3,2.6,0.8,3.5s1.3,1.3,2.5,1.3
		c1.1,0,1.9-0.4,2.4-1.3s0.8-2,0.8-3.5v-0.3c0-1.4-0.3-2.6-0.8-3.4s-1.3-1.3-2.4-1.3s-1.9,0.4-2.4,1.3s-0.8,2-0.8,3.4L994.5,190.6
		L994.5,190.6z"/>
	<path class="st1" d="M1006.8,195.8l2.1-0.4v-9.8l-2.3-0.4v-2.6h6.3l0.2,2.3c0.5-0.8,1.2-1.4,1.9-1.9s1.6-0.7,2.6-0.7
		c1.6,0,2.9,0.5,3.8,1.5s1.3,2.6,1.3,4.7v6.9l2.1,0.4v2.6h-8.2v-2.6l1.8-0.4v-6.9c0-1.1-0.2-1.8-0.6-2.3s-1.1-0.7-1.9-0.7
		c-0.6,0-1.1,0.1-1.5,0.3s-0.8,0.6-1.1,1v8.5l1.7,0.4v2.6h-8.1v-2.5H1006.8z"/>
	<path class="st1" d="M1032.4,178.6v3.9h2.8v3h-2.8v8.1c0,0.6,0.1,1.1,0.4,1.3s0.6,0.4,1,0.4c0.3,0,0.5,0,0.8,0s0.5-0.1,0.7-0.1
		l0.4,3.1c-0.5,0.1-1,0.3-1.4,0.3c-0.5,0.1-1,0.1-1.5,0.1c-1.5,0-2.6-0.4-3.4-1.2s-1.2-2.1-1.2-3.9v-8.1h-2.3v-3h2.3v-3.9
		L1032.4,178.6L1032.4,178.6z"/>
	<path class="st1" d="M1047.4,198.4c-0.1-0.3-0.2-0.5-0.3-0.8c-0.1-0.3-0.2-0.6-0.2-0.8c-0.5,0.6-1.1,1.1-1.9,1.4s-1.6,0.5-2.5,0.5
		c-1.6,0-2.8-0.4-3.7-1.3s-1.4-2-1.4-3.5s0.6-2.6,1.8-3.4s2.9-1.2,5.2-1.2h2.2v-1.6c0-0.8-0.2-1.4-0.7-1.8s-1.1-0.6-1.9-0.6
		c-0.5,0-0.9,0.1-1.3,0.2s-0.7,0.2-0.9,0.4l-0.3,1.7h-3.2v-3.5c0.8-0.5,1.7-1,2.7-1.3s2.1-0.5,3.3-0.5c2,0,3.6,0.5,4.8,1.4
		s1.8,2.3,1.8,4.1v6.5c0,0.2,0,0.5,0,0.7s0,0.4,0.1,0.6l1.3,0.2v2.6L1047.4,198.4L1047.4,198.4z M1043.7,195.5
		c0.6,0,1.2-0.1,1.8-0.4c0.5-0.3,0.9-0.6,1.2-1v-2.4h-2.2c-0.9,0-1.6,0.2-2.1,0.6s-0.7,0.9-0.7,1.5c0,0.5,0.2,1,0.5,1.3
		S1043.1,195.5,1043.7,195.5z"/>
	<path class="st1" d="M1053.7,195.8l2.1-0.4v-9.8l-2.3-0.4v-2.6h6.6v12.8l2.1,0.4v2.6h-8.4L1053.7,195.8L1053.7,195.8z M1060,178.7
		h-4.3v-3.2h4.3V178.7z"/>
</g>
<g class="st0">
	<path class="st1" d="M1063.2,195.8l2.1-0.4v-9.8l-2.3-0.4v-2.6h6.3l0.2,2.3c0.5-0.8,1.2-1.4,1.9-1.9s1.6-0.7,2.6-0.7
		c1.6,0,2.9,0.5,3.8,1.5s1.3,2.6,1.3,4.7v6.9l2.1,0.4v2.6h-8.2v-2.6l1.8-0.4v-6.9c0-1.1-0.2-1.8-0.6-2.3s-1.1-0.7-1.9-0.7
		c-0.6,0-1.1,0.1-1.5,0.3s-0.8,0.6-1.1,1v8.5l1.7,0.4v2.6h-8.1v-2.5H1063.2z"/>
</g>
<g class="st0">
	<path class="st1" d="M1090,198.7c-2.3,0-4.1-0.7-5.5-2.2s-2.1-3.3-2.1-5.6v-0.6c0-2.4,0.6-4.3,1.9-5.8s3-2.3,5.2-2.3
		c2.1,0,3.8,0.6,5,1.9s1.8,3,1.8,5.2v2.3h-9.5v0.1c0.1,1,0.4,1.9,1,2.6s1.5,1,2.5,1c0.9,0,1.7-0.1,2.4-0.3c0.6-0.2,1.3-0.5,2.1-0.9
		l1.2,2.6c-0.7,0.5-1.5,1-2.5,1.3S1091.2,198.7,1090,198.7z M1089.6,185.5c-0.8,0-1.4,0.3-1.9,0.9s-0.7,1.4-0.8,2.4v0.1h5.2v-0.4
		c0-0.9-0.2-1.6-0.6-2.2C1091.1,185.8,1090.4,185.5,1089.6,185.5z"/>
	<path class="st1" d="M1098.7,195.8l2.1-0.4v-9.8l-2.3-0.4v-2.6h6.3l0.2,2.3c0.4-0.8,0.8-1.5,1.4-1.9s1.3-0.7,2-0.7
		c0.2,0,0.5,0,0.7,0.1c0.2,0,0.5,0.1,0.6,0.1l-0.5,3.9h-1.8c-0.6,0-1.1,0.1-1.6,0.4s-0.7,0.6-0.9,1v7.7l2.1,0.4v2.6h-8.4v-2.7
		H1098.7z"/>
	<path class="st1" d="M1112.9,200.2h-3.2l7.8-23.2h3.2L1112.9,200.2z"/>
	<path class="st1" d="M1134.9,188h-2.9l-0.5-2c-0.3-0.2-0.7-0.4-1.1-0.6s-0.9-0.2-1.5-0.2c-0.8,0-1.3,0.2-1.8,0.5
		c-0.4,0.3-0.7,0.8-0.7,1.3s0.2,0.9,0.6,1.2c0.4,0.3,1.3,0.6,2.5,0.8c2,0.4,3.4,1,4.4,1.7s1.4,1.8,1.4,3.1c0,1.4-0.6,2.6-1.8,3.5
		s-2.8,1.4-4.8,1.4c-1.2,0-2.3-0.2-3.4-0.5c-1-0.4-1.9-0.9-2.7-1.5v-3.6h3l0.6,2.1c0.3,0.2,0.6,0.4,1,0.5s0.9,0.2,1.4,0.2
		c0.9,0,1.5-0.2,2-0.5s0.7-0.7,0.7-1.3c0-0.5-0.2-0.9-0.7-1.2s-1.3-0.6-2.5-0.9c-1.9-0.4-3.3-0.9-4.2-1.7c-1-0.7-1.4-1.8-1.4-3.1
		c0-1.3,0.5-2.5,1.6-3.4s2.7-1.4,4.7-1.4c1.2,0,2.4,0.2,3.5,0.5s2,0.8,2.6,1.3L1134.9,188z"/>
	<path class="st1" d="M1145,198.7c-2.3,0-4.1-0.7-5.5-2.2s-2.1-3.3-2.1-5.6v-0.6c0-2.4,0.6-4.3,1.9-5.8s3-2.3,5.2-2.3
		c2.1,0,3.8,0.6,5,1.9s1.8,3,1.8,5.2v2.3h-9.5v0.1c0.1,1,0.4,1.9,1,2.6s1.5,1,2.5,1c0.9,0,1.7-0.1,2.4-0.3c0.6-0.2,1.3-0.5,2.1-0.9
		l1.2,2.6c-0.7,0.5-1.5,1-2.5,1.3S1146.2,198.7,1145,198.7z M1144.6,185.5c-0.8,0-1.4,0.3-1.9,0.9s-0.7,1.4-0.8,2.4v0.1h5.2v-0.4
		c0-0.9-0.2-1.6-0.6-2.2C1146.1,185.8,1145.4,185.5,1144.6,185.5z"/>
</g>
<g class="st0">
	<path class="st1" d="M1153.7,195.8l2.1-0.4v-9.8l-2.3-0.4v-2.6h6.3l0.2,2.3c0.4-0.8,0.8-1.5,1.4-1.9s1.3-0.7,2-0.7
		c0.2,0,0.5,0,0.7,0.1c0.2,0,0.5,0.1,0.6,0.1l-0.5,3.9h-1.8c-0.6,0-1.1,0.1-1.6,0.4s-0.7,0.6-0.9,1v7.7l2.1,0.4v2.6h-8.4v-2.7
		H1153.7z"/>
</g>
<g class="st0">
	<path class="st1" d="M1173,185.1l-1.5,0.3l2.1,7.1l0.3,1.5h0.1l0.3-1.5l2.1-7.1l-1.5-0.3v-2.6h7.2v2.6l-1.4,0.2l-4.7,13.1h-4.1
		l-4.7-13.1l-1.4-0.2v-2.6h7.2V185.1z"/>
	<path class="st1" d="M1183.2,195.8l2.1-0.4v-9.8l-2.3-0.4v-2.6h6.6v12.8l2.1,0.4v2.6h-8.4L1183.2,195.8L1183.2,195.8z
		 M1189.5,178.7h-4.3v-3.2h4.3V178.7z"/>
	<path class="st1" d="M1200.4,195.4c0.8,0,1.4-0.2,1.8-0.7c0.5-0.4,0.7-1,0.7-1.8h3.9v0.1c0,1.6-0.6,2.9-1.8,4s-2.8,1.6-4.6,1.6
		c-2.4,0-4.2-0.7-5.5-2.2s-1.9-3.4-1.9-5.8v-0.4c0-2.3,0.7-4.3,2-5.8s3.2-2.3,5.6-2.3c1.3,0,2.4,0.2,3.4,0.6s1.9,0.9,2.5,1.6
		l0.1,4.2h-3.5l-0.7-2.5c-0.2-0.2-0.5-0.3-0.8-0.5c-0.3-0.1-0.7-0.2-1.1-0.2c-1.2,0-2.1,0.4-2.6,1.3s-0.7,2-0.7,3.4v0.4
		c0,1.4,0.2,2.6,0.7,3.4C1198.5,195,1199.3,195.4,1200.4,195.4z"/>
	<path class="st1" d="M1216.4,198.7c-2.3,0-4.1-0.7-5.5-2.2s-2.1-3.3-2.1-5.6v-0.6c0-2.4,0.6-4.3,1.9-5.8s3-2.3,5.2-2.3
		c2.1,0,3.8,0.6,5,1.9s1.8,3,1.8,5.2v2.3h-9.5v0.1c0.1,1,0.4,1.9,1,2.6s1.5,1,2.5,1c0.9,0,1.7-0.1,2.4-0.3c0.6-0.2,1.3-0.5,2.1-0.9
		l1.2,2.6c-0.7,0.5-1.5,1-2.5,1.3S1217.7,198.7,1216.4,198.7z M1216,185.5c-0.8,0-1.4,0.3-1.9,0.9s-0.7,1.4-0.8,2.4v0.1h5.2v-0.4
		c0-0.9-0.2-1.6-0.6-2.2C1217.5,185.8,1216.9,185.5,1216,185.5z"/>
</g>
<g class="st0">
	<path class="st1" d="M984.6,234.4c-0.1-0.3-0.2-0.5-0.3-0.8s-0.2-0.6-0.2-0.8c-0.5,0.6-1.1,1.1-1.9,1.4s-1.6,0.5-2.5,0.5
		c-1.6,0-2.8-0.4-3.7-1.3s-1.4-2-1.4-3.5s0.6-2.6,1.8-3.4c1.2-0.8,2.9-1.2,5.2-1.2h2.2v-1.6c0-0.8-0.2-1.4-0.7-1.8s-1.1-0.6-1.9-0.6
		c-0.5,0-0.9,0.1-1.3,0.2c-0.4,0.1-0.7,0.2-0.9,0.4l-0.3,1.7h-3.2v-3.5c0.8-0.5,1.7-1,2.7-1.3s2.1-0.5,3.3-0.5c2,0,3.6,0.5,4.8,1.4
		c1.2,0.9,1.8,2.3,1.8,4.1v6.5c0,0.2,0,0.5,0,0.7s0,0.4,0.1,0.6l1.3,0.2v2.6L984.6,234.4L984.6,234.4z M980.8,231.5
		c0.6,0,1.2-0.1,1.8-0.4c0.5-0.3,0.9-0.6,1.2-1v-2.4h-2.2c-0.9,0-1.6,0.2-2.1,0.6s-0.7,0.9-0.7,1.5c0,0.5,0.2,1,0.5,1.3
		C979.6,231.4,980.2,231.5,980.8,231.5z"/>
	<path class="st1" d="M1001.3,232.4c-0.5,0.7-1.1,1.3-1.8,1.7s-1.5,0.6-2.3,0.6c-2,0-3.5-0.7-4.5-2.1s-1.6-3.3-1.6-5.7v-0.3
		c0-2.5,0.5-4.5,1.6-6s2.6-2.3,4.6-2.3c0.8,0,1.5,0.2,2.1,0.5s1.2,0.8,1.7,1.5v-5.7l-2.3-0.4v-2.6h2.3h4.3v19.8l2.1,0.4v2.6h-5.8
		L1001.3,232.4z M995.3,226.9c0,1.4,0.2,2.5,0.7,3.3s1.2,1.2,2.3,1.2c0.6,0,1.2-0.1,1.6-0.4s0.8-0.6,1.1-1.1v-6.7
		c-0.3-0.5-0.7-0.9-1.1-1.2c-0.5-0.3-1-0.4-1.6-0.4c-1,0-1.8,0.5-2.3,1.4s-0.7,2.1-0.7,3.6V226.9z"/>
	<path class="st1" d="M1008.2,221.1v-2.6h6.3l0.2,2.1c0.5-0.8,1.1-1.3,1.9-1.8s1.7-0.6,2.7-0.6s1.9,0.2,2.6,0.7s1.3,1.1,1.6,2
		c0.5-0.8,1.1-1.5,1.9-2s1.7-0.7,2.8-0.7c1.6,0,2.8,0.5,3.7,1.6s1.4,2.7,1.4,4.9v6.6l2.1,0.4v2.6h-8.2v-2.6l1.8-0.4v-6.6
		c0-1.2-0.2-2-0.6-2.5s-1-0.7-1.7-0.7c-0.6,0-1.1,0.1-1.6,0.4s-0.8,0.6-1.1,1.1c0,0.2,0,0.3,0,0.5c0,0.1,0,0.3,0,0.4v7.4l1.7,0.4
		v2.6h-7.7v-2.6l1.7-0.4v-6.6c0-1.2-0.2-2-0.6-2.5s-1-0.7-1.8-0.7c-0.6,0-1.1,0.1-1.5,0.3c-0.4,0.2-0.8,0.5-1.1,0.9v8.6l1.8,0.4v2.6
		h-8.2v-2.6l2.1-0.4v-9.8L1008.2,221.1z"/>
	<path class="st1" d="M1036.5,231.8l2.1-0.4v-9.8l-2.3-0.4v-2.6h6.6v12.8l2.1,0.4v2.6h-8.4L1036.5,231.8L1036.5,231.8z
		 M1042.8,214.7h-4.3v-3.2h4.3V214.7z"/>
	<path class="st1" d="M1046,231.8l2.1-0.4v-9.8l-2.3-0.4v-2.6h6.3l0.2,2.3c0.5-0.8,1.2-1.4,1.9-1.9s1.6-0.7,2.6-0.7
		c1.6,0,2.9,0.5,3.8,1.5s1.3,2.6,1.3,4.7v6.9l2.1,0.4v2.6h-8.2v-2.6l1.8-0.4v-6.9c0-1.1-0.2-1.8-0.6-2.3s-1.1-0.7-1.9-0.7
		c-0.6,0-1.1,0.1-1.5,0.3s-0.8,0.6-1.1,1v8.5l1.7,0.4v2.6h-8.1v-2.5H1046z"/>
</g>
<g class="st0">
	<path class="st1" d="M975.9,420.9l2.3-0.4v-15.3l-2.3-0.4v-2.6h8.7v2.6l-2.2,0.4v5.7h1.9l4.1-6l-1.3-0.2v-2.6h8.5v2.6l-2.3,0.4
		l-5.2,7l5.9,8.4l2.1,0.4v2.6h-8.5V421l1.3-0.2l-4.1-6.2h-2.4v5.9l2.2,0.4v2.6h-8.7L975.9,420.9L975.9,420.9z"/>
</g>
<g class="st0">
	<path class="st1" d="M1008.2,421.5c-0.5,0.7-1.1,1.3-1.9,1.7s-1.6,0.6-2.6,0.6c-1.7,0-3-0.5-3.9-1.6s-1.4-2.7-1.4-5v-6.5l-1.7-0.4
		v-2.6h1.7h4.3v9.6c0,1.2,0.2,2,0.6,2.5s1,0.8,1.7,0.8s1.3-0.1,1.8-0.3s0.9-0.5,1.2-0.9v-8.5l-1.9-0.4v-2.6h1.9h4.3v12.8l1.9,0.4
		v2.6h-5.7L1008.2,421.5z"/>
	<path class="st1" d="M1031.1,416c0,2.4-0.5,4.3-1.6,5.7s-2.6,2.1-4.6,2.1c-0.9,0-1.7-0.2-2.4-0.6c-0.7-0.4-1.3-0.9-1.7-1.7
		l-0.3,1.9h-3.7v-19.8l-2.3-0.4v-2.6h6.5v8.7c0.5-0.6,1-1.1,1.6-1.5s1.4-0.5,2.2-0.5c2,0,3.5,0.8,4.6,2.3s1.6,3.5,1.6,6.1v0.3
		H1031.1z M1026.9,415.8c0-1.5-0.2-2.8-0.7-3.7s-1.2-1.4-2.3-1.4c-0.7,0-1.2,0.1-1.7,0.4c-0.5,0.3-0.8,0.7-1.1,1.2v6.7
		c0.3,0.5,0.6,0.9,1.1,1.1s1,0.4,1.7,0.4c1.1,0,1.9-0.4,2.3-1.2s0.7-1.9,0.7-3.3V415.8z"/>
	<path class="st1" d="M1040.7,423.8c-2.3,0-4.1-0.7-5.5-2.2s-2.1-3.3-2.1-5.6v-0.6c0-2.4,0.6-4.3,1.9-5.8s3-2.3,5.2-2.3
		c2.1,0,3.8,0.6,5,1.9s1.8,3,1.8,5.2v2.3h-9.5v0.1c0.1,1,0.4,1.9,1,2.6s1.5,1,2.5,1c0.9,0,1.7-0.1,2.4-0.3c0.6-0.2,1.3-0.5,2.1-0.9
		l1.2,2.6c-0.7,0.5-1.5,1-2.5,1.3S1042,423.8,1040.7,423.8z M1040.3,410.6c-0.8,0-1.4,0.3-1.9,0.9s-0.7,1.4-0.8,2.4v0.1h5.2v-0.4
		c0-0.9-0.2-1.6-0.6-2.2C1041.8,410.9,1041.2,410.6,1040.3,410.6z"/>
	<path class="st1" d="M1049.4,420.9l2.1-0.4v-9.8l-2.3-0.4v-2.6h6.3l0.2,2.3c0.4-0.8,0.8-1.5,1.4-1.9s1.3-0.7,2-0.7
		c0.2,0,0.5,0,0.7,0.1c0.2,0,0.5,0.1,0.6,0.1l-0.5,3.9h-1.8c-0.6,0-1.1,0.1-1.6,0.4s-0.7,0.6-0.9,1v7.7l2.1,0.4v2.6h-8.4v-2.7
		H1049.4z"/>
</g>
<g class="st0">
	<path class="st1" d="M1061.5,420.9l2.1-0.4v-9.8l-2.3-0.4v-2.6h6.3l0.2,2.3c0.5-0.8,1.2-1.4,1.9-1.9s1.6-0.7,2.6-0.7
		c1.6,0,2.9,0.5,3.8,1.5s1.3,2.6,1.3,4.7v6.9l2.1,0.4v2.6h-8.2v-2.6l1.8-0.4v-6.9c0-1.1-0.2-1.8-0.6-2.3s-1.1-0.7-1.9-0.7
		c-0.6,0-1.1,0.1-1.5,0.3s-0.8,0.6-1.1,1v8.5l1.7,0.4v2.6h-8.1v-2.5H1061.5z"/>
</g>
<g class="st0">
	<path class="st1" d="M1088.2,423.8c-2.3,0-4.1-0.7-5.5-2.2s-2.1-3.3-2.1-5.6v-0.6c0-2.4,0.6-4.3,1.9-5.8s3-2.3,5.2-2.3
		c2.1,0,3.8,0.6,5,1.9s1.8,3,1.8,5.2v2.3h-9.5v0.1c0.1,1,0.4,1.9,1,2.6s1.5,1,2.5,1c0.9,0,1.7-0.1,2.4-0.3c0.6-0.2,1.3-0.5,2.1-0.9
		l1.2,2.6c-0.7,0.5-1.5,1-2.5,1.3S1089.5,423.8,1088.2,423.8z M1087.8,410.6c-0.8,0-1.4,0.3-1.9,0.9s-0.7,1.4-0.8,2.4v0.1h5.2v-0.4
		c0-0.9-0.2-1.6-0.6-2.2C1089.3,410.9,1088.7,410.6,1087.8,410.6z"/>
	<path class="st1" d="M1102.9,403.8v3.9h2.8v3h-2.8v8.1c0,0.6,0.1,1.1,0.4,1.3s0.6,0.4,1,0.4c0.3,0,0.5,0,0.8,0s0.5-0.1,0.7-0.1
		l0.4,3.1c-0.5,0.1-1,0.3-1.4,0.3c-0.5,0.1-1,0.1-1.5,0.1c-1.5,0-2.6-0.4-3.4-1.2s-1.2-2.1-1.2-3.9v-8.1h-2.3v-3h2.3v-3.9
		L1102.9,403.8L1102.9,403.8z"/>
	<path class="st1" d="M1115.4,423.8c-2.3,0-4.1-0.7-5.5-2.2s-2.1-3.3-2.1-5.6v-0.6c0-2.4,0.6-4.3,1.9-5.8s3-2.3,5.2-2.3
		c2.1,0,3.8,0.6,5,1.9s1.8,3,1.8,5.2v2.3h-9.5v0.1c0.1,1,0.4,1.9,1,2.6s1.5,1,2.5,1c0.9,0,1.7-0.1,2.4-0.3c0.6-0.2,1.3-0.5,2.1-0.9
		l1.2,2.6c-0.7,0.5-1.5,1-2.5,1.3S1116.7,423.8,1115.4,423.8z M1115,410.6c-0.8,0-1.4,0.3-1.9,0.9s-0.7,1.4-0.8,2.4v0.1h5.2v-0.4
		c0-0.9-0.2-1.6-0.6-2.2C1116.5,410.9,1115.9,410.6,1115,410.6z"/>
	<path class="st1" d="M1136.7,413.1h-2.9l-0.5-2c-0.3-0.2-0.7-0.4-1.1-0.6s-0.9-0.2-1.5-0.2c-0.8,0-1.3,0.2-1.8,0.5
		c-0.4,0.3-0.7,0.8-0.7,1.3s0.2,0.9,0.6,1.2s1.3,0.6,2.5,0.8c2,0.4,3.4,1,4.4,1.7s1.4,1.8,1.4,3.1c0,1.4-0.6,2.6-1.8,3.5
		s-2.8,1.4-4.8,1.4c-1.2,0-2.3-0.2-3.4-0.5c-1-0.4-1.9-0.9-2.7-1.5v-3.6h3l0.6,2.1c0.3,0.2,0.6,0.4,1,0.5s0.9,0.2,1.4,0.2
		c0.9,0,1.5-0.2,2-0.5s0.7-0.7,0.7-1.3c0-0.5-0.2-0.9-0.7-1.2s-1.3-0.6-2.5-0.9c-1.9-0.4-3.3-0.9-4.2-1.7c-1-0.7-1.4-1.8-1.4-3.1
		s0.5-2.5,1.6-3.4s2.7-1.4,4.7-1.4c1.2,0,2.4,0.2,3.5,0.5s2,0.8,2.6,1.3L1136.7,413.1z"/>
</g>
<g class="st0">
	<path class="st1" d="M986.1,459.5c-0.1-0.3-0.2-0.5-0.3-0.8s-0.2-0.6-0.2-0.8c-0.5,0.6-1.1,1.1-1.9,1.4s-1.6,0.5-2.5,0.5
		c-1.6,0-2.8-0.4-3.7-1.3s-1.4-2-1.4-3.5s0.6-2.6,1.8-3.4c1.2-0.8,2.9-1.2,5.2-1.2h2.2v-1.6c0-0.8-0.2-1.4-0.7-1.8s-1.1-0.6-1.9-0.6
		c-0.5,0-0.9,0.1-1.3,0.2c-0.4,0.1-0.7,0.2-0.9,0.4l-0.3,1.7H977v-3.5c0.8-0.5,1.7-1,2.7-1.3s2.1-0.5,3.3-0.5c2,0,3.6,0.5,4.8,1.4
		s1.8,2.3,1.8,4.1v6.5c0,0.2,0,0.5,0,0.7s0,0.4,0.1,0.6l1.3,0.2v2.6L986.1,459.5L986.1,459.5z M982.4,456.6c0.6,0,1.2-0.1,1.8-0.4
		c0.5-0.3,0.9-0.6,1.2-1v-2.4h-2.2c-0.9,0-1.6,0.2-2.1,0.6c-0.5,0.4-0.7,0.9-0.7,1.5c0,0.5,0.2,1,0.5,1.3
		C981.2,456.5,981.8,456.6,982.4,456.6z"/>
	<path class="st1" d="M1002.8,457.5c-0.5,0.7-1.1,1.3-1.8,1.7s-1.5,0.6-2.3,0.6c-2,0-3.5-0.7-4.5-2.1s-1.6-3.3-1.6-5.7v-0.3
		c0-2.5,0.5-4.5,1.6-6s2.6-2.3,4.6-2.3c0.8,0,1.5,0.2,2.1,0.5s1.2,0.8,1.7,1.5v-5.7l-2.3-0.4v-2.6h2.3h4.3v19.8l2.1,0.4v2.6h-5.8
		L1002.8,457.5z M996.8,452c0,1.4,0.2,2.5,0.7,3.3s1.2,1.2,2.3,1.2c0.6,0,1.2-0.1,1.6-0.4s0.8-0.6,1.1-1.1v-6.7
		c-0.3-0.5-0.7-0.9-1.1-1.2c-0.5-0.3-1-0.4-1.6-0.4c-1,0-1.8,0.5-2.3,1.4s-0.7,2.1-0.7,3.6V452z"/>
	<path class="st1" d="M1009.7,446.2v-2.6h6.3l0.2,2.1c0.5-0.8,1.1-1.3,1.9-1.8s1.7-0.6,2.7-0.6s1.9,0.2,2.6,0.7s1.3,1.1,1.6,2
		c0.5-0.8,1.1-1.5,1.9-2s1.7-0.7,2.8-0.7c1.6,0,2.8,0.5,3.7,1.6s1.4,2.7,1.4,4.9v6.6l2.1,0.4v2.6h-8.2v-2.6l1.8-0.4v-6.6
		c0-1.2-0.2-2-0.6-2.5s-1-0.7-1.7-0.7c-0.6,0-1.1,0.1-1.6,0.4s-0.8,0.6-1.1,1.1c0,0.2,0,0.3,0,0.5c0,0.1,0,0.3,0,0.4v7.4l1.7,0.4
		v2.6h-7.7v-2.6l1.7-0.4v-6.6c0-1.2-0.2-2-0.6-2.5s-1-0.7-1.8-0.7c-0.6,0-1.1,0.1-1.5,0.3s-0.8,0.5-1.1,0.9v8.6l1.8,0.4v2.6h-8.2
		v-2.6l2.1-0.4v-9.8L1009.7,446.2z"/>
	<path class="st1" d="M1038,456.9l2.1-0.4v-9.8l-2.3-0.4v-2.6h6.6v12.8l2.1,0.4v2.6h-8.4L1038,456.9L1038,456.9z M1044.3,439.8h-4.3
		v-3.2h4.3V439.8z"/>
	<path class="st1" d="M1047.6,456.9l2.1-0.4v-9.8l-2.3-0.4v-2.6h6.3l0.2,2.3c0.5-0.8,1.2-1.4,1.9-1.9s1.6-0.7,2.6-0.7
		c1.6,0,2.9,0.5,3.8,1.5s1.3,2.6,1.3,4.7v6.9l2.1,0.4v2.6h-8.2v-2.6l1.8-0.4v-6.9c0-1.1-0.2-1.8-0.6-2.3s-1.1-0.7-1.9-0.7
		c-0.6,0-1.1,0.1-1.5,0.3s-0.8,0.6-1.1,1v8.5l1.7,0.4v2.6h-8.1v-2.5H1047.6z"/>
</g>
<g class="st0">
	<path class="st1" d="M975.2,619.9l2.1-0.4v-16.8l-2.3-0.4v-2.6h6.5v9c0.5-0.7,1.1-1.3,1.8-1.7c0.7-0.4,1.5-0.6,2.4-0.6
		c1.7,0,3,0.5,3.9,1.6s1.4,2.8,1.4,5.1v6.4l2.1,0.4v2.6h-8.2v-2.6l1.8-0.4v-6.4c0-1.2-0.2-2.1-0.7-2.6c-0.4-0.5-1.1-0.8-1.9-0.8
		c-0.6,0-1.1,0.1-1.6,0.3s-0.8,0.5-1.1,0.9v8.6l1.8,0.4v2.6H975v-2.6H975.2z"/>
</g>
<g class="st0">
	<path class="st1" d="M994.4,614.4c0-2.4,0.7-4.3,2-5.8s3.2-2.3,5.5-2.3s4.2,0.8,5.5,2.3s2,3.4,2,5.8v0.3c0,2.4-0.7,4.3-2,5.8
		s-3.1,2.2-5.5,2.2s-4.2-0.7-5.5-2.2s-2-3.4-2-5.8V614.4z M998.7,614.8c0,1.4,0.3,2.6,0.8,3.5s1.3,1.3,2.5,1.3
		c1.1,0,1.9-0.4,2.4-1.3s0.8-2,0.8-3.5v-0.3c0-1.4-0.3-2.6-0.8-3.4s-1.3-1.3-2.4-1.3s-1.9,0.4-2.4,1.3s-0.8,2-0.8,3.4L998.7,614.8
		L998.7,614.8z"/>
	<path class="st1" d="M1024.1,612.1h-2.9l-0.5-2c-0.3-0.2-0.7-0.4-1.1-0.6s-0.9-0.2-1.5-0.2c-0.8,0-1.3,0.2-1.8,0.5
		c-0.4,0.3-0.7,0.8-0.7,1.3s0.2,0.9,0.6,1.2s1.3,0.6,2.5,0.8c2,0.4,3.4,1,4.4,1.7s1.4,1.8,1.4,3.1c0,1.4-0.6,2.6-1.8,3.5
		s-2.8,1.4-4.8,1.4c-1.2,0-2.3-0.2-3.4-0.5c-1-0.4-1.9-0.9-2.7-1.5v-3.6h3l0.6,2.1c0.3,0.2,0.6,0.4,1,0.5s0.9,0.2,1.4,0.2
		c0.9,0,1.5-0.2,2-0.5s0.7-0.7,0.7-1.3c0-0.5-0.2-0.9-0.7-1.2s-1.3-0.6-2.5-0.9c-1.9-0.4-3.3-0.9-4.2-1.7c-1-0.7-1.4-1.8-1.4-3.1
		s0.5-2.5,1.6-3.4s2.7-1.4,4.7-1.4c1.2,0,2.4,0.2,3.5,0.5s2,0.8,2.6,1.3L1024.1,612.1z"/>
	<path class="st1" d="M1033,602.8v3.9h2.8v3h-2.8v8.1c0,0.6,0.1,1.1,0.4,1.3s0.6,0.4,1,0.4c0.3,0,0.5,0,0.8,0s0.5-0.1,0.7-0.1
		l0.4,3.1c-0.5,0.1-1,0.3-1.4,0.3c-0.5,0.1-1,0.1-1.5,0.1c-1.5,0-2.6-0.4-3.4-1.2s-1.2-2.1-1.2-3.9v-8.1h-2.3v-3h2.3v-3.9
		L1033,602.8L1033,602.8z"/>
</g>
<g class="st0">
	<path class="st1" d="M985.6,658.5c-0.1-0.3-0.2-0.5-0.3-0.8s-0.2-0.6-0.2-0.8c-0.5,0.6-1.1,1.1-1.9,1.4s-1.6,0.5-2.5,0.5
		c-1.6,0-2.8-0.4-3.7-1.3s-1.4-2-1.4-3.5s0.6-2.6,1.8-3.4c1.2-0.8,2.9-1.2,5.2-1.2h2.2v-1.6c0-0.8-0.2-1.4-0.7-1.8s-1.1-0.6-1.9-0.6
		c-0.5,0-0.9,0.1-1.3,0.2c-0.4,0.1-0.7,0.2-0.9,0.4l-0.3,1.7h-3.2v-3.5c0.8-0.5,1.7-1,2.7-1.3s2.1-0.5,3.3-0.5c2,0,3.6,0.5,4.8,1.4
		c1.2,0.9,1.8,2.3,1.8,4.1v6.5c0,0.2,0,0.5,0,0.7s0,0.4,0.1,0.6l1.3,0.2v2.6L985.6,658.5L985.6,658.5z M981.8,655.6
		c0.6,0,1.2-0.1,1.8-0.4c0.5-0.3,0.9-0.6,1.2-1v-2.4h-2.2c-0.9,0-1.6,0.2-2.1,0.6c-0.5,0.4-0.7,0.9-0.7,1.5c0,0.5,0.2,1,0.5,1.3
		C980.6,655.5,981.2,655.6,981.8,655.6z"/>
	<path class="st1" d="M1002.3,656.5c-0.5,0.7-1.1,1.3-1.8,1.7s-1.5,0.6-2.3,0.6c-2,0-3.5-0.7-4.5-2.1s-1.6-3.3-1.6-5.7v-0.3
		c0-2.5,0.5-4.5,1.6-6s2.6-2.3,4.6-2.3c0.8,0,1.5,0.2,2.1,0.5s1.2,0.8,1.7,1.5v-5.7l-2.3-0.4v-2.6h2.3h4.3v19.8l2.1,0.4v2.6h-5.8
		L1002.3,656.5z M996.3,651c0,1.4,0.2,2.5,0.7,3.3s1.2,1.2,2.3,1.2c0.6,0,1.2-0.1,1.6-0.4s0.8-0.6,1.1-1.1v-6.7
		c-0.3-0.5-0.7-0.9-1.1-1.2c-0.5-0.3-1-0.4-1.6-0.4c-1,0-1.8,0.5-2.3,1.4s-0.7,2.1-0.7,3.6V651z"/>
	<path class="st1" d="M1009.2,645.2v-2.6h6.3l0.2,2.1c0.5-0.8,1.1-1.3,1.9-1.8s1.7-0.6,2.7-0.6s1.9,0.2,2.6,0.7s1.3,1.1,1.6,2
		c0.5-0.8,1.1-1.5,1.9-2s1.7-0.7,2.8-0.7c1.6,0,2.8,0.5,3.7,1.6s1.4,2.7,1.4,4.9v6.6l2.1,0.4v2.6h-8.2v-2.6l1.8-0.4v-6.6
		c0-1.2-0.2-2-0.6-2.5s-1-0.7-1.7-0.7c-0.6,0-1.1,0.1-1.6,0.4s-0.8,0.6-1.1,1.1c0,0.2,0,0.3,0,0.5c0,0.1,0,0.3,0,0.4v7.4l1.7,0.4
		v2.6h-7.7v-2.6l1.7-0.4v-6.6c0-1.2-0.2-2-0.6-2.5s-1-0.7-1.8-0.7c-0.6,0-1.1,0.1-1.5,0.3s-0.8,0.5-1.1,0.9v8.6l1.8,0.4v2.6h-8.2
		v-2.6l2.1-0.4v-9.8L1009.2,645.2z"/>
	<path class="st1" d="M1037.5,655.9l2.1-0.4v-9.8l-2.3-0.4v-2.6h6.6v12.8l2.1,0.4v2.6h-8.4L1037.5,655.9L1037.5,655.9z
		 M1043.8,638.8h-4.3v-3.2h4.3V638.8z"/>
	<path class="st1" d="M1047,655.9l2.1-0.4v-9.8l-2.3-0.4v-2.6h6.3l0.2,2.3c0.5-0.8,1.2-1.4,1.9-1.9s1.6-0.7,2.6-0.7
		c1.6,0,2.9,0.5,3.8,1.5s1.3,2.6,1.3,4.7v6.9l2.1,0.4v2.6h-8.2v-2.6l1.8-0.4v-6.9c0-1.1-0.2-1.8-0.6-2.3s-1.1-0.7-1.9-0.7
		c-0.6,0-1.1,0.1-1.5,0.3s-0.8,0.6-1.1,1v8.5l1.7,0.4v2.6h-8.1v-2.5H1047z"/>
</g>
<g id="Ebene_1-2">
	<path class="st2" d="M13,3.3h708c5.5,0,10,4.5,10,10v748.8c0,5.5-4.5,10-10,10H13c-5.5,0-10-4.5-10-10V13.3C3,7.8,7.5,3.3,13,3.3z"
		/>
	<path class="st3" d="M83,80.1h501c5.5,0,10,4.5,10,10v492c0,5.5-4.5,10-10,10H83c-5.5,0-10-4.5-10-10v-492
		C73,84.6,77.5,80.1,83,80.1z"/>
	<path class="st4" d="M525,304.8c0,6-4.3,10.8-9.6,10.8H116.6c-5.3,0-9.6-4.9-9.6-10.8V186.4c0-6,4.3-10.8,9.6-10.8h398.9
		c5.3,0,9.6,4.9,9.6,10.8L525,304.8L525,304.8z"/>
	<g>
		<g>
			<path class="st1" d="M97.2,574.6c-1.3,0-2.6-0.3-3.8-1c-1.1-0.7-1.9-1.7-2.4-2.8c-0.6-1.3-0.9-2.7-0.9-4.1v-0.6
				c0-1.4,0.3-2.7,0.8-4c1.1-2.4,3.6-4,6.3-3.9c1.2,0,2.3,0.2,3.4,0.6c0.9,0.4,1.7,0.9,2.4,1.7l0.1,3.8h-2.3l-0.5-2.8
				c-0.4-0.4-0.8-0.6-1.2-0.8c-0.6-0.2-1.2-0.3-1.8-0.3c-0.8,0-1.6,0.3-2.3,0.8c-0.7,0.5-1.2,1.2-1.5,2c-0.4,0.9-0.6,1.9-0.5,2.8
				v0.6c0,1,0.1,2,0.5,3c0.3,0.8,0.8,1.5,1.4,2c1.4,1,3.3,0.9,4.7-0.1c0.7-0.6,1.1-1.4,1.2-2.2h2.6v0.1c0,0.9-0.3,1.8-0.8,2.5
				c-0.5,0.8-1.2,1.5-2.1,1.9C99.5,574.4,98.3,574.6,97.2,574.6z"/>
			<path class="st1" d="M113.2,574.6c-2.7,0.1-5.1-1.4-6.2-3.9c-0.6-1.3-0.9-2.7-0.9-4.2v-0.3c0-1.4,0.3-2.9,0.9-4.2
				c0.5-1.2,1.4-2.2,2.5-2.9c2.3-1.4,5.2-1.4,7.5,0c1.1,0.7,1.9,1.7,2.4,2.8c0.6,1.3,0.9,2.7,0.9,4.2v0.3c0,1.4-0.3,2.9-0.9,4.2
				c-0.5,1.2-1.4,2.2-2.4,2.8C115.8,574.3,114.5,574.6,113.2,574.6z M113.2,572.3c0.8,0,1.7-0.2,2.3-0.8c0.7-0.5,1.1-1.3,1.4-2.1
				c0.3-1,0.5-2,0.5-3v-0.3c0-1-0.1-2-0.5-3c-0.3-0.8-0.8-1.5-1.4-2.1c-1.4-1-3.3-1-4.6,0c-0.7,0.5-1.1,1.3-1.4,2.1
				c-0.3,1-0.5,2-0.5,3v0.3c0,1,0.1,2,0.5,3c0.3,0.8,0.8,1.5,1.4,2.1S112.3,572.4,113.2,572.3L113.2,572.3z"/>
			<path class="st1" d="M122.5,574.3v-1.8l2.4-0.4v-11.3l-2.4-0.4v-1.9h5l0.2,2.4c0.5-0.8,1.2-1.5,2-2s1.8-0.7,2.7-0.7
				c1.5-0.1,2.9,0.4,4,1.5c1,1.3,1.5,3,1.4,4.6v7.8l2.4,0.4v1.8h-7.7v-1.8l2.4-0.4v-7.7c0.1-1.1-0.2-2.1-0.8-3
				c-0.7-0.6-1.6-1-2.5-0.9c-0.8,0-1.5,0.2-2.2,0.6c-0.6,0.4-1.2,1-1.5,1.6v9.3l2.4,0.4v1.8L122.5,574.3z"/>
			<path class="st1" d="M147.2,574.5c-1,0.1-2-0.3-2.8-1c-0.8-0.9-1.1-2.1-1-3.3v-9.6h-2.5v-2.1h2.5v-3.8h2.9v3.8h3.4v2.1h-3.4v9.6
				c0,0.6,0.1,1.2,0.4,1.7c0.3,0.4,0.8,0.6,1.2,0.5c0.4,0,0.8,0,1.1-0.1l1-0.2l0.4,1.9c-0.5,0.1-1,0.3-1.6,0.3
				C148.3,574.5,147.8,574.5,147.2,574.5z"/>
			<path class="st1" d="M157.4,574.6c-1.4,0.1-2.7-0.3-3.8-1.2c-0.9-0.9-1.4-2.1-1.3-3.4c0-0.9,0.3-1.9,0.8-2.6
				c0.6-0.8,1.4-1.4,2.4-1.7c1.2-0.4,2.5-0.6,3.8-0.6h2.8v-1.6c0-0.8-0.3-1.6-0.9-2.2c-0.7-0.6-1.6-0.8-2.5-0.8
				c-0.6,0-1.2,0.1-1.7,0.2c-0.5,0.2-0.9,0.4-1.3,0.7l-0.3,2.2h-2.2V560c0.7-0.6,1.6-1,2.5-1.3c1-0.3,2.1-0.5,3.1-0.4
				c1.6-0.1,3.2,0.4,4.5,1.4c1.1,1,1.7,2.4,1.6,3.9v7.6c0,0.2,0,0.4,0,0.6s0,0.4,0,0.6l1.5,0.2v1.8h-4.1c-0.1-0.4-0.2-0.8-0.2-1.2
				s-0.1-0.7-0.1-1c-0.6,0.7-1.3,1.3-2.1,1.8C159.2,574.4,158.3,574.6,157.4,574.6z M157.8,572.2c0.9,0,1.8-0.2,2.6-0.7
				c0.7-0.4,1.3-1,1.7-1.7V567h-2.9c-1.1-0.1-2.2,0.3-3,1c-0.6,0.5-1,1.3-1,2.1c0,0.6,0.2,1.2,0.6,1.6
				C156.4,572.1,157.1,572.3,157.8,572.2L157.8,572.2z"/>
			<path class="st1" d="M168.7,574.3v-1.8l2.4-0.4v-11.3l-2.4-0.4v-1.9h5.3V572l2.4,0.4v1.8L168.7,574.3z M171,554.5v-3.1h3v3.1H171
				z"/>
		</g>
		<g>
			<path class="st1" d="M179,574.3v-1.8l2.4-0.4v-11.3l-2.4-0.4v-1.9h5l0.2,2.4c0.5-0.8,1.2-1.5,2-2s1.8-0.7,2.7-0.7
				c1.5-0.1,2.9,0.4,4,1.5c1,1.3,1.5,3,1.4,4.6v7.8l2.4,0.4v1.8H189v-1.8l2.4-0.4v-7.7c0.1-1.1-0.2-2.1-0.8-3
				c-0.7-0.6-1.6-1-2.5-0.9c-0.8,0-1.5,0.2-2.2,0.6c-0.6,0.4-1.2,1-1.5,1.6v9.3l2.4,0.4v1.8L179,574.3z"/>
		</g>
		<g>
			<path class="st1" d="M205.1,574.6c-1.3,0-2.7-0.3-3.8-1s-2-1.6-2.5-2.8c-0.6-1.3-0.9-2.7-0.9-4.1V566c0-1.4,0.3-2.8,0.9-4
				c0.6-1.1,1.4-2.1,2.5-2.8c1-0.7,2.2-1,3.4-1c1.3,0,2.5,0.3,3.6,0.9c1,0.6,1.7,1.4,2.2,2.5c0.5,1.2,0.8,2.5,0.7,3.8v1.7h-10.3v0.1
				c0,0.9,0.2,1.8,0.5,2.7c0.3,0.7,0.8,1.4,1.5,1.9s1.5,0.7,2.3,0.7c0.9,0,1.7-0.1,2.6-0.4c0.7-0.3,1.4-0.7,1.9-1.2l1.1,1.9
				c-0.7,0.6-1.4,1.1-2.2,1.4C207.5,574.4,206.3,574.6,205.1,574.6z M201,564.8h7.3v-0.4c0-0.7-0.1-1.4-0.4-2
				c-0.3-0.6-0.7-1.1-1.2-1.4c-0.6-0.4-1.3-0.5-2-0.5c-0.6,0-1.2,0.2-1.7,0.5c-0.5,0.4-1,0.9-1.3,1.5
				C201.3,563.2,201.1,564,201,564.8L201,564.8z"/>
			<path class="st1" d="M213.4,574.3v-1.8l2.4-0.4v-11.3l-2.4-0.4v-1.9h5l0.2,2v0.3c0.4-0.8,1-1.4,1.7-1.9s1.5-0.7,2.3-0.7
				c0.3,0,0.6,0,0.9,0.1c0.2,0,0.5,0.1,0.7,0.2l-0.4,2.7l-2-0.1c-0.7-0.1-1.4,0.1-1.9,0.5s-0.9,1-1.2,1.6v9l2.4,0.4v1.8L213.4,574.3
				z"/>
		</g>
	</g>
	<g>
		<g>
			<path class="st5" d="M61.7,666.3l-7.2-19.2l-1.7-0.2V645h6.7v1.9l-2,0.3l4.8,13.6l0.5,1.7H63l0.5-1.7l4.9-13.6l-2.2-0.3V645H73
				v1.9l-1.7,0.2l-7.1,19.2L61.7,666.3z"/>
			<path class="st5" d="M75.4,666.3v-1.8l2.4-0.4v-16.8l-2.4-0.4V645h6.2l6.9,16.2h0.1l6.7-16.2h6.4v1.9l-2.4,0.4V664l2.4,0.4v1.8
				H94v-1.8l2.5-0.4v-15.1h-0.1l-6.9,16.6h-1.9l-7.2-16.6h-0.1l0.1,8.9v6.1l2.6,0.4v1.8L75.4,666.3z"/>
			<path class="st5" d="M119.4,673.1c-1-0.5-1.8-1.2-2.6-2.1c-0.9-1-1.7-2.2-2.3-3.4c-0.7-1.4-1.3-2.9-1.7-4.5
				c-0.4-1.8-0.7-3.6-0.6-5.4v-0.1c0-1.8,0.2-3.6,0.6-5.4c0.4-1.6,0.9-3.1,1.7-4.5c0.6-1.2,1.4-2.4,2.3-3.4c0.7-0.8,1.6-1.5,2.6-2.1
				h0.1l0.5,1.7c-0.7,0.6-1.4,1.3-1.9,2c-0.6,0.9-1.2,1.9-1.6,3c-0.5,1.2-0.8,2.5-1.1,3.9c-0.3,1.5-0.4,3.1-0.4,4.7v0.2
				c0,1.6,0.1,3.1,0.4,4.7c0.2,1.3,0.6,2.6,1.1,3.9c0.4,1.1,0.9,2.1,1.6,3c0.5,0.8,1.2,1.5,1.9,2.1L119.4,673.1L119.4,673.1z"/>
			<path class="st5" d="M128.5,666.6c-1.3,0-2.7-0.3-3.8-1c-1.1-0.7-2-1.6-2.5-2.8c-0.6-1.3-0.9-2.7-0.9-4.1V658
				c0-1.4,0.3-2.8,0.9-4c0.6-1.1,1.4-2.1,2.5-2.8c1-0.7,2.2-1,3.4-1c1.3,0,2.5,0.3,3.6,0.9c1,0.6,1.7,1.4,2.2,2.5
				c0.5,1.2,0.8,2.5,0.7,3.8v1.7h-10.3l-0.1,0.1c0,0.9,0.2,1.8,0.5,2.7c0.3,0.7,0.8,1.4,1.5,1.9s1.5,0.7,2.3,0.7
				c0.9,0,1.7-0.1,2.6-0.4c0.7-0.3,1.4-0.6,1.9-1.2l1.1,1.9c-0.6,0.6-1.4,1.1-2.2,1.4C130.8,666.4,129.7,666.6,128.5,666.6z
				 M124.4,656.8h7.3v-0.4c0-0.7-0.1-1.4-0.4-2c-0.3-0.6-0.7-1.1-1.2-1.4c-0.6-0.4-1.3-0.5-2-0.5c-0.6,0-1.2,0.2-1.8,0.6
				c-0.5,0.4-1,0.9-1.3,1.5C124.7,655.2,124.4,656,124.4,656.8L124.4,656.8z"/>
		</g>
		<g>
			<path class="st5" d="M136.1,666.3v-1.8l2.4-0.4v-11.3l-2.4-0.4v-1.9h5l0.2,2.4c0.5-0.8,1.2-1.5,2-2s1.8-0.7,2.7-0.7
				c1.5-0.1,2.9,0.4,4,1.5c1,1.3,1.5,3,1.4,4.6v7.8l2.4,0.4v1.8h-7.7v-1.8l2.4-0.4v-7.7c0.1-1.1-0.2-2.1-0.8-3
				c-0.7-0.6-1.6-1-2.5-0.9c-0.8,0-1.5,0.2-2.2,0.6c-0.6,0.4-1.2,1-1.5,1.6v9.3l2.4,0.4v1.8L136.1,666.3z"/>
		</g>
		<g>
			<path class="st5" d="M162.2,666.6c-1.3,0-2.6-0.3-3.8-1c-1.1-0.7-1.9-1.7-2.5-2.8c-0.6-1.3-0.9-2.7-0.9-4.1v-0.6
				c0-1.4,0.3-2.7,0.9-4c1.1-2.4,3.6-4,6.3-3.9c1.2,0,2.3,0.2,3.4,0.6c0.9,0.4,1.7,0.9,2.4,1.7l0.1,3.8h-2.3l-0.5-2.8
				c-0.4-0.4-0.8-0.6-1.2-0.8c-0.6-0.2-1.2-0.3-1.8-0.3c-0.8,0-1.6,0.3-2.3,0.8s-1.2,1.2-1.5,2c-0.4,0.9-0.6,1.9-0.5,2.8v0.6
				c0,1,0.1,2,0.5,3c0.3,0.8,0.8,1.5,1.4,2c1.4,1,3.3,0.9,4.7-0.1c0.7-0.6,1.1-1.4,1.2-2.2h2.6v0.1c0,0.9-0.3,1.8-0.8,2.5
				c-0.5,0.8-1.2,1.5-2.1,1.9C164.5,666.4,163.4,666.6,162.2,666.6z"/>
		</g>
		<g>
			<path class="st5" d="M170.8,666.3v-1.8l2.4-0.4v-11.3l-2.4-0.4v-1.9h5l0.2,2v0.3c0.4-0.8,1-1.4,1.7-1.9s1.5-0.7,2.3-0.7
				c0.3,0,0.6,0,0.9,0.1c0.2,0,0.5,0.1,0.7,0.2l-0.4,2.7l-2-0.1c-0.7-0.1-1.4,0.1-1.9,0.5s-0.9,1-1.2,1.6v9l2.4,0.4v1.8L170.8,666.3
				z"/>
		</g>
		<g>
			<path class="st5" d="M187.2,672.7c-0.3,0-0.6,0-0.9-0.1c-0.4,0-0.6-0.1-0.8-0.2l0.3-2.3h0.7h0.6c0.6,0,1.1-0.2,1.5-0.7
				c0.4-0.6,0.8-1.2,1.1-1.9l0.7-1.7l-5.6-13.4l-1.7-0.2v-1.9h6.6v1.9l-1.9,0.3l3.1,7.9l0.8,2.1h0.1l3.7-10l-2-0.3v-1.9h6.5v1.9
				l-1.6,0.2l-6.2,16.3c-0.3,0.7-0.6,1.4-1.1,2c-0.4,0.6-0.9,1.1-1.5,1.4C188.7,672.5,188,672.7,187.2,672.7z"/>
			<path class="st5" d="M200.8,672.4v-1.9l2.2-0.4v-17.4l-2.4-0.4v-1.9h4.9l0.3,1.9c0.5-0.7,1.2-1.3,1.9-1.7
				c0.8-0.4,1.7-0.6,2.6-0.6c1.2,0,2.4,0.3,3.4,1.1s1.7,1.8,2.1,3c0.5,1.4,0.8,3,0.7,4.5v0.3c0,1.4-0.2,2.7-0.7,4
				c-0.4,1.1-1.2,2-2.1,2.7c-1,0.7-2.1,1-3.3,1c-0.9,0-1.8-0.2-2.6-0.5c-0.7-0.3-1.4-0.8-1.9-1.5v5.5l2.5,0.4v1.9L200.8,672.4z
				 M209.5,664.4c1.2,0.1,2.4-0.5,3.1-1.5c0.7-1.2,1.1-2.5,1.1-3.9v-0.3c0-1.1-0.1-2.2-0.5-3.2c-0.3-0.8-0.7-1.6-1.4-2.2
				c-0.7-0.5-1.5-0.8-2.3-0.8c-0.7,0-1.5,0.2-2.1,0.6c-0.6,0.4-1.1,0.9-1.4,1.5v7.7C206.6,663.7,208,664.5,209.5,664.4z"/>
			<path class="st5" d="M224.3,666.5c-1,0.1-2-0.3-2.8-1c-0.8-0.9-1.1-2.1-1-3.3v-9.6H218v-2.1h2.5v-3.8h2.9v3.8h3.4v2.1h-3.4v9.6
				c0,0.6,0.1,1.2,0.4,1.7c0.3,0.4,0.8,0.6,1.2,0.5c0.4,0,0.8,0,1.1-0.1l1-0.2l0.4,1.9c-0.5,0.1-1,0.3-1.6,0.3
				C225.5,666.5,224.9,666.5,224.3,666.5z"/>
			<path class="st5" d="M236.4,666.6c-1.3,0-2.7-0.3-3.8-1s-2-1.6-2.5-2.8c-0.6-1.3-0.9-2.7-0.9-4.1V658c0-1.4,0.3-2.8,0.9-4
				c0.6-1.1,1.4-2.1,2.5-2.8c1-0.7,2.2-1,3.4-1c1.3,0,2.5,0.3,3.6,0.9c1,0.6,1.7,1.4,2.2,2.5c0.5,1.2,0.8,2.5,0.7,3.8v1.7h-10.2v0.1
				c0,0.9,0.2,1.8,0.5,2.7c0.3,0.7,0.8,1.4,1.5,1.9s1.5,0.7,2.3,0.7c0.9,0,1.7-0.1,2.6-0.4c0.7-0.3,1.4-0.6,1.9-1.2l1.1,1.9
				c-0.6,0.6-1.4,1.1-2.2,1.4C238.7,666.4,237.5,666.6,236.4,666.6z M232.2,656.8h7.3v-0.4c0-0.7-0.1-1.4-0.4-2
				c-0.3-0.6-0.7-1.1-1.2-1.4c-0.6-0.4-1.3-0.5-2-0.5c-0.6,0-1.2,0.2-1.8,0.6c-0.5,0.4-1,0.9-1.3,1.5
				C232.5,655.2,232.3,656,232.2,656.8L232.2,656.8z"/>
			<path class="st5" d="M251.5,666.6c-1.2,0-2.3-0.3-3.3-1c-1-0.6-1.7-1.5-2.2-2.6c-0.5-1.3-0.8-2.6-0.7-4v-0.3c0-1.5,0.2-3,0.7-4.5
				c0.4-1.2,1.1-2.2,2.1-3c1-0.7,2.1-1.1,3.3-1.1c0.9,0,1.7,0.2,2.5,0.5c0.7,0.3,1.3,0.9,1.8,1.5v-6.5l-2.4-0.4v-1.9h5.3V664
				l2.4,0.4v1.8h-4.9l-0.2-1.9c-0.5,0.7-1.1,1.3-1.9,1.6C253.3,666.4,252.4,666.6,251.5,666.6z M252.2,664.2c0.8,0,1.5-0.2,2.2-0.6
				c0.6-0.4,1.1-1,1.4-1.7v-7.3c-0.3-0.6-0.8-1.2-1.4-1.6c-0.6-0.4-1.4-0.6-2.1-0.6c-0.8,0-1.6,0.2-2.3,0.8
				c-0.6,0.6-1.1,1.3-1.3,2.2c-0.3,1-0.5,2.1-0.4,3.2v0.3c-0.1,1.4,0.3,2.7,1,3.8C249.9,663.8,251,664.3,252.2,664.2L252.2,664.2z"
				/>
			<path class="st5" d="M262.7,673.1l-0.5-1.6c0.7-0.6,1.4-1.2,1.9-2c0.6-0.9,1.2-1.9,1.6-3c0.5-1.3,0.9-2.6,1.1-3.9
				c0.3-1.6,0.4-3.1,0.4-4.7v-0.2c0-1.6-0.1-3.1-0.4-4.7c-0.3-1.3-0.6-2.6-1.1-3.9c-0.4-1.1-0.9-2.1-1.6-3c-0.5-0.8-1.1-1.5-1.8-2.1
				l0.5-1.6h0.1c1,0.5,1.8,1.2,2.5,2.1c0.9,1,1.7,2.2,2.3,3.4c0.7,1.4,1.3,2.9,1.7,4.5c0.4,1.8,0.7,3.6,0.6,5.4v0.1
				c0,1.8-0.2,3.6-0.6,5.4c-0.4,1.6-1,3.1-1.7,4.5c-0.6,1.2-1.4,2.3-2.3,3.4c-0.7,0.8-1.6,1.5-2.5,2.1L262.7,673.1z"/>
		</g>
	</g>
	<g class="st6">
		<g>
			<path class="st1" d="M18.7,754.3v-1.8L21,752v-18.3l-2.4-0.4v-1.9h5.3v9.1c0.5-0.7,1.2-1.3,2-1.8c0.8-0.4,1.7-0.6,2.6-0.6
				c1.5-0.1,3,0.5,4,1.5c1,1.3,1.5,3,1.4,4.7v7.6l2.4,0.4v1.8h-7.7v-1.8L31,752v-7.7c0.1-1-0.2-2.1-0.8-2.9c-0.7-0.7-1.6-1-2.5-0.9
				c-0.8,0-1.5,0.2-2.2,0.6c-0.6,0.4-1.2,0.9-1.6,1.5v9.5l2.4,0.4v1.8L18.7,754.3z"/>
		</g>
		<g>
			<path class="st1" d="M45.1,754.6c-1.3,0-2.7-0.3-3.8-1s-1.9-1.7-2.5-2.8c-0.6-1.3-0.9-2.7-0.9-4.2v-0.3c0-1.4,0.3-2.9,0.9-4.2
				c0.5-1.2,1.4-2.2,2.5-2.9c2.3-1.4,5.2-1.4,7.5,0c1.1,0.7,1.9,1.6,2.5,2.8c0.6,1.3,0.9,2.7,0.9,4.2v0.3c0,1.4-0.3,2.9-0.9,4.2
				c-0.5,1.2-1.4,2.2-2.5,2.8C47.8,754.2,46.5,754.6,45.1,754.6z M45.1,752.3c0.8,0,1.6-0.2,2.3-0.8c0.7-0.5,1.1-1.3,1.4-2.1
				c0.3-1,0.5-2,0.5-3v-0.3c0-1-0.1-2-0.5-3c-0.3-0.8-0.8-1.5-1.4-2.1c-1.4-1-3.3-1-4.7,0c-0.7,0.5-1.1,1.3-1.4,2.1
				c-0.3,1-0.5,2-0.5,3v0.3c0,1,0.1,2,0.5,3c0.3,0.8,0.8,1.5,1.4,2.1C43.4,752.1,44.3,752.4,45.1,752.3L45.1,752.3z"/>
			<path class="st1" d="M60.8,754.6c-1,0-2-0.1-3-0.3s-2-0.6-3-1v-3.8H57l0.5,2.3c0.5,0.2,1,0.4,1.6,0.5c0.5,0.1,1.1,0.2,1.7,0.2
				c0.9,0.1,1.8-0.2,2.5-0.7c0.5-0.4,0.8-1,0.8-1.7c0-0.6-0.3-1.2-0.8-1.6c-0.8-0.6-1.8-1-2.8-1.1c-1.5-0.3-3-0.9-4.2-1.8
				c-0.9-0.7-1.4-1.8-1.3-3c0-0.8,0.2-1.6,0.7-2.3s1.3-1.3,2.1-1.6c1-0.4,2-0.6,3.1-0.6c1,0,2.1,0.1,3.1,0.4
				c0.8,0.2,1.6,0.6,2.2,1.1l0.1,3.6h-2.1l-0.5-2.1c-0.4-0.3-0.8-0.5-1.2-0.6c-0.5-0.1-1.1-0.2-1.6-0.2c-0.8,0-1.5,0.2-2.2,0.6
				c-0.5,0.4-0.8,0.9-0.8,1.6c0,0.3,0.1,0.7,0.2,1c0.2,0.3,0.6,0.6,0.9,0.7c0.6,0.3,1.3,0.5,2,0.7c1.7,0.3,3.3,1,4.6,2
				c0.9,0.8,1.3,1.9,1.3,3c0,1.3-0.5,2.5-1.5,3.4C64.2,754.3,62.5,754.7,60.8,754.6z"/>
			<path class="st1" d="M75,754.5c-1,0.1-2-0.3-2.8-1c-0.8-0.9-1.1-2.1-1-3.3v-9.6h-2.5v-2.1h2.5v-3.8h2.9v3.8h3.4v2.1H74v9.6
				c0,0.6,0.1,1.2,0.4,1.7c0.3,0.4,0.8,0.6,1.2,0.5c0.4,0,0.8,0,1.1-0.1l1-0.2l0.4,1.9c-0.5,0.1-1,0.3-1.6,0.3
				C76.1,754.5,75.6,754.5,75,754.5z"/>
		</g>
	</g>
	<path class="st7" d="M47.9,41.3H651c5.5,0,10,4.5,10,10v622.8c0,5.5-4.5,10-10,10H47.9c-5.5,0-10-4.5-10-10V51.3
		C37.9,45.8,42.4,41.3,47.9,41.3z"/>
	<g>
		<g>
			<path class="st1" d="M132.5,300.6c-1,0-2-0.1-3-0.3c-1-0.2-2-0.6-3-1v-3.8h2.2l0.5,2.3c1,0.4,2.1,0.7,3.2,0.6
				c0.9,0.1,1.8-0.2,2.5-0.7c0.5-0.4,0.8-1,0.8-1.7c0-0.6-0.3-1.2-0.8-1.6c-0.8-0.6-1.8-1-2.8-1.1c-1.5-0.3-3-0.9-4.2-1.8
				c-0.9-0.7-1.4-1.8-1.4-3c0-0.8,0.3-1.6,0.8-2.3c0.5-0.7,1.3-1.3,2.1-1.6c1-0.4,2-0.6,3.1-0.6c1,0,2.1,0.1,3.1,0.4
				c0.8,0.2,1.6,0.6,2.2,1.1l0.1,3.6h-2.2l-0.5-2.1c-0.4-0.3-0.8-0.5-1.2-0.6c-0.5-0.1-1.1-0.2-1.6-0.2c-0.8,0-1.5,0.2-2.2,0.6
				c-0.5,0.4-0.8,1-0.8,1.6c0,0.3,0.1,0.7,0.2,1c0.2,0.3,0.6,0.6,0.9,0.7c0.6,0.3,1.3,0.5,2,0.6c1.7,0.3,3.3,1,4.6,2
				c0.9,0.8,1.3,1.9,1.3,3c0,1.3-0.5,2.5-1.5,3.4C135.8,300.3,134.2,300.7,132.5,300.6z"/>
			<path class="st1" d="M148.3,300.6c-1.3,0-2.7-0.3-3.8-1s-2-1.6-2.5-2.8c-0.6-1.3-0.9-2.7-0.9-4.1V292c0-1.4,0.3-2.8,0.9-4
				c0.6-1.1,1.4-2.1,2.5-2.8c1-0.7,2.2-1,3.4-1c1.3,0,2.5,0.3,3.6,0.9c1,0.6,1.7,1.4,2.2,2.5c0.5,1.2,0.8,2.5,0.7,3.8v1.7H144v0.1
				c0,0.9,0.2,1.8,0.5,2.7c0.3,0.7,0.8,1.4,1.5,1.9s1.5,0.7,2.3,0.7c0.9,0,1.7-0.1,2.6-0.4c0.7-0.3,1.4-0.6,1.9-1.1l1.1,1.9
				c-0.7,0.6-1.4,1.1-2.2,1.4C150.6,300.4,149.4,300.6,148.3,300.6z M144.1,290.8h7.3v-0.4c0-0.7-0.1-1.4-0.4-2
				c-0.3-0.6-0.7-1.1-1.2-1.4c-0.6-0.4-1.3-0.5-2-0.5c-0.6,0-1.2,0.2-1.8,0.6c-0.5,0.4-1,0.9-1.3,1.5
				C144.4,289.2,144.2,290,144.1,290.8L144.1,290.8z"/>
		</g>
		<g>
			<path class="st1" d="M157.5,300.3v-1.9l2.4-0.4v-11.3l-2.4-0.4v-1.9h5l0.2,2v0.3c0.4-0.8,1-1.4,1.7-1.9s1.5-0.7,2.3-0.7
				c0.3,0,0.6,0,0.9,0.1c0.2,0,0.5,0.1,0.7,0.1l-0.4,2.7l-2-0.1c-0.7-0.1-1.4,0.1-1.9,0.5s-0.9,1-1.2,1.6v9l2.4,0.4v1.9L157.5,300.3
				z"/>
		</g>
		<g>
			<path class="st1" d="M177,300.3l-5.6-13.8l-1.6-0.2v-1.9h6.6v1.9l-2.1,0.3l3.5,9l0.4,1.3h0.1l0.5-1.3l3.3-9l-2.1-0.3v-1.9h6.6
				v1.9l-1.7,0.2l-5.4,13.8H177z"/>
			<path class="st1" d="M188,300.3v-1.9l2.4-0.4v-11.3l-2.4-0.4v-1.9h5.3V298l2.4,0.4v1.9H188z M190.2,280.5v-3.1h3v3.1H190.2z"/>
			<path class="st1" d="M204.8,300.6c-1.3,0-2.6-0.3-3.8-1c-1.1-0.7-1.9-1.6-2.5-2.8c-0.6-1.3-0.9-2.7-0.9-4.1v-0.6
				c0-1.4,0.3-2.8,0.9-4c1.1-2.4,3.6-4,6.2-3.9c1.2,0,2.3,0.2,3.4,0.6c0.9,0.4,1.8,1,2.4,1.7l0.1,3.8h-2.2l-0.5-2.8
				c-0.4-0.4-0.8-0.6-1.2-0.8c-0.6-0.2-1.2-0.3-1.8-0.3c-0.8,0-1.6,0.3-2.3,0.8s-1.2,1.2-1.5,2c-0.4,0.9-0.6,1.9-0.5,2.8v0.6
				c0,1,0.1,2,0.5,3c0.3,0.8,0.8,1.5,1.4,2c1.4,1,3.3,0.9,4.7-0.1c0.7-0.6,1.1-1.4,1.2-2.2h2.6v0.1c-0.1,1.9-1.2,3.6-2.9,4.5
				C207.1,300.4,205.9,300.6,204.8,300.6z"/>
			<path class="st1" d="M220.8,300.6c-1.3,0-2.7-0.3-3.8-1s-2-1.6-2.5-2.8c-0.6-1.3-0.9-2.7-0.9-4.1V292c0-1.4,0.3-2.8,0.9-4
				c0.6-1.1,1.4-2.1,2.5-2.8c1-0.7,2.2-1,3.4-1c1.3-0.1,2.5,0.2,3.6,0.8c1,0.6,1.7,1.4,2.2,2.5c0.5,1.2,0.8,2.5,0.7,3.8v1.8h-10.3
				v0.1c0,0.9,0.2,1.8,0.5,2.7c0.3,0.7,0.8,1.4,1.4,1.9c0.7,0.5,1.5,0.7,2.3,0.7c0.9,0,1.7-0.1,2.6-0.4c0.7-0.3,1.4-0.6,1.9-1.1
				l1.1,1.9c-0.7,0.6-1.4,1.1-2.2,1.4C223.2,300.4,222,300.6,220.8,300.6z M216.7,290.8h7.3v-0.4c0-0.7-0.1-1.4-0.4-2
				c-0.3-0.6-0.7-1.1-1.2-1.4c-0.6-0.4-1.3-0.5-2-0.5c-0.6,0-1.2,0.2-1.8,0.6c-0.5,0.4-1,0.9-1.3,1.5S216.8,290,216.7,290.8
				L216.7,290.8z"/>
			<path class="st1" d="M244.4,307.1c-1-0.5-1.8-1.2-2.6-2.1c-0.9-1-1.7-2.1-2.3-3.4c-0.7-1.4-1.3-2.9-1.7-4.5
				c-0.4-1.8-0.7-3.6-0.6-5.4v-0.1c0-1.8,0.2-3.6,0.6-5.4c0.4-1.6,1-3.1,1.7-4.5c0.6-1.2,1.4-2.4,2.3-3.4c0.7-0.8,1.6-1.5,2.6-2.1
				h0.1l0.5,1.7c-0.7,0.6-1.4,1.2-1.9,2c-0.6,0.9-1.2,1.9-1.6,3c-0.5,1.2-0.9,2.5-1.1,3.9c-0.3,1.5-0.4,3.1-0.4,4.7v0.2
				c0,1.6,0.1,3.1,0.4,4.7c0.2,1.3,0.6,2.6,1.1,3.9c0.4,1.1,0.9,2.1,1.6,3c0.5,0.8,1.2,1.5,1.9,2.1L244.4,307.1L244.4,307.1z"/>
			<path class="st1" d="M245.8,306.4v-1.9l2.2-0.4v-17.4l-2.4-0.4v-1.9h4.9l0.3,1.9c0.5-0.7,1.2-1.3,1.9-1.6
				c0.8-0.4,1.7-0.6,2.6-0.6c1.2,0,2.4,0.3,3.4,1.1c1,0.8,1.7,1.8,2.1,3c0.5,1.4,0.8,3,0.7,4.5v0.3c0,1.4-0.2,2.7-0.7,4
				c-0.4,1.1-1.2,2-2.1,2.7c-1,0.7-2.1,1-3.3,1c-0.9,0-1.8-0.2-2.6-0.5c-0.7-0.3-1.4-0.8-1.9-1.5v5.5l2.5,0.4v1.9L245.8,306.4z
				 M254.5,298.4c1.2,0.1,2.4-0.5,3.1-1.5c0.7-1.2,1.1-2.5,1-3.9v-0.3c0-1.1-0.1-2.2-0.5-3.2c-0.3-0.8-0.7-1.6-1.4-2.2
				c-0.7-0.5-1.5-0.8-2.3-0.8c-0.7,0-1.5,0.2-2.1,0.6s-1.1,0.9-1.4,1.5v7.7c0.3,0.6,0.8,1.1,1.4,1.5
				C253,298.2,253.8,298.4,254.5,298.4L254.5,298.4z"/>
		</g>
		<g>
			<path class="st1" d="M264.5,300.3v-1.9l2.4-0.4v-11.3l-2.4-0.4v-1.9h5l0.2,2v0.3c0.4-0.8,1-1.4,1.7-1.9s1.5-0.7,2.3-0.7
				c0.3,0,0.6,0,0.9,0.1c0.2,0,0.5,0.1,0.7,0.1l-0.4,2.7l-2-0.1c-0.7-0.1-1.4,0.1-1.9,0.5s-0.9,1-1.2,1.6v9l2.4,0.4v1.9L264.5,300.3
				z"/>
		</g>
		<g>
			<path class="st1" d="M284,300.6c-1.3,0-2.7-0.3-3.8-1c-1.1-0.7-1.9-1.7-2.5-2.9c-0.6-1.3-0.9-2.7-0.9-4.2v-0.3
				c0-1.4,0.3-2.9,0.9-4.2c0.5-1.2,1.4-2.2,2.5-2.9c2.3-1.4,5.2-1.4,7.5,0c1.1,0.7,1.9,1.7,2.5,2.9c0.6,1.3,0.9,2.7,0.9,4.2v0.3
				c0,1.4-0.3,2.9-0.9,4.2C289.1,299.2,286.7,300.7,284,300.6z M284,298.3c0.8,0,1.6-0.2,2.3-0.8c0.7-0.5,1.1-1.3,1.4-2.1
				c0.3-1,0.5-2,0.5-3v-0.3c0-1-0.1-2-0.5-3c-0.3-0.8-0.8-1.5-1.4-2.1c-1.4-1-3.3-1-4.6,0c-0.6,0.5-1.1,1.3-1.4,2.1
				c-0.3,1-0.5,2-0.5,3v0.3c0,1,0.1,2,0.5,3c0.3,0.8,0.8,1.5,1.4,2.1S283.2,298.4,284,298.3z"/>
			<path class="st1" d="M301,300.6c-1.3,0-2.6-0.3-3.8-1c-1.1-0.7-1.9-1.6-2.5-2.8c-0.6-1.3-0.9-2.7-0.9-4.1v-0.6
				c0-1.4,0.3-2.8,0.9-4c1.1-2.4,3.6-4,6.2-3.9c1.2,0,2.3,0.2,3.4,0.6c0.9,0.4,1.8,1,2.4,1.7l0.1,3.8h-2.2l-0.5-2.8
				c-0.4-0.4-0.8-0.6-1.2-0.8c-0.6-0.2-1.2-0.3-1.8-0.3c-0.8,0-1.6,0.3-2.3,0.8c-0.7,0.5-1.2,1.2-1.5,2c-0.4,0.9-0.6,1.9-0.5,2.8
				v0.6c0,1,0.1,2,0.5,3c0.3,0.8,0.8,1.5,1.5,2c1.4,1,3.3,0.9,4.7-0.1c0.7-0.6,1.1-1.4,1.2-2.2h2.6v0.1c-0.1,1.9-1.2,3.6-2.9,4.5
				C303.3,300.4,302.1,300.6,301,300.6z"/>
			<path class="st1" d="M317,300.6c-1.3,0-2.7-0.3-3.8-1c-1.1-0.7-2-1.6-2.5-2.8c-0.6-1.3-0.9-2.7-0.9-4.1V292c0-1.4,0.3-2.8,0.9-4
				c0.6-1.1,1.4-2.1,2.5-2.8c1-0.7,2.2-1,3.4-1c1.3,0,2.5,0.3,3.6,0.9c1,0.6,1.7,1.4,2.2,2.5c0.5,1.2,0.8,2.5,0.7,3.8v1.7h-10.2v0.1
				c0,0.9,0.2,1.8,0.5,2.7c0.3,0.7,0.8,1.4,1.5,1.9s1.5,0.7,2.3,0.7c0.9,0,1.7-0.1,2.6-0.4c0.7-0.3,1.4-0.6,1.9-1.1l1.1,1.9
				c-0.7,0.6-1.4,1.1-2.2,1.4C319.3,300.4,318.2,300.6,317,300.6z M312.9,290.8h7.3v-0.4c0-0.7-0.1-1.4-0.4-2s-0.7-1.1-1.2-1.4
				c-0.6-0.4-1.3-0.5-2-0.5c-0.6,0-1.2,0.2-1.8,0.6c-0.5,0.4-1,0.9-1.3,1.5C313.1,289.2,312.9,290,312.9,290.8L312.9,290.8z"/>
			<path class="st1" d="M331.8,300.6c-1,0-2-0.1-3-0.3c-1-0.2-2-0.6-3-1v-3.8h2.2l0.5,2.3c1,0.4,2.1,0.7,3.2,0.6
				c0.9,0.1,1.8-0.2,2.5-0.7c0.5-0.4,0.8-1,0.8-1.7c0-0.6-0.3-1.2-0.8-1.6c-0.8-0.6-1.8-1-2.8-1.1c-1.5-0.3-3-0.9-4.2-1.8
				c-0.9-0.7-1.4-1.8-1.4-3c0-0.8,0.3-1.6,0.8-2.3c0.5-0.7,1.3-1.3,2.1-1.6c1-0.4,2-0.6,3.1-0.6c1,0,2.1,0.1,3.1,0.4
				c0.8,0.2,1.6,0.6,2.2,1.1l0.1,3.6H335l-0.5-2.1c-0.4-0.3-0.8-0.5-1.2-0.6c-0.5-0.1-1.1-0.2-1.6-0.2c-0.8,0-1.5,0.2-2.2,0.6
				c-0.5,0.4-0.8,1-0.8,1.6c0,0.3,0.1,0.7,0.2,1c0.2,0.3,0.6,0.6,0.9,0.7c0.6,0.3,1.3,0.5,2,0.6c1.7,0.3,3.3,1,4.6,2
				c0.9,0.8,1.3,1.9,1.3,3c0,1.3-0.5,2.5-1.5,3.4C335.1,300.3,333.5,300.7,331.8,300.6z"/>
			<path class="st1" d="M346.8,300.6c-1,0-2-0.1-3-0.3c-1-0.2-2-0.6-3-1v-3.8h2.2l0.5,2.3c0.5,0.2,1,0.4,1.6,0.5
				c0.5,0.1,1.1,0.2,1.7,0.1c0.9,0.1,1.8-0.2,2.5-0.7c0.5-0.4,0.8-1,0.8-1.7c0-0.6-0.3-1.2-0.8-1.6c-0.8-0.6-1.8-1-2.8-1.1
				c-1.5-0.3-3-0.9-4.2-1.8c-0.9-0.7-1.4-1.8-1.4-3c0-0.8,0.3-1.6,0.8-2.3c0.5-0.7,1.3-1.3,2.1-1.6c1-0.4,2-0.6,3.1-0.6
				c1,0,2.1,0.1,3.1,0.4c0.8,0.2,1.6,0.6,2.2,1.1l0.1,3.6h-2.2l-0.5-2.1c-0.4-0.3-0.8-0.5-1.2-0.6c-0.5-0.1-1.1-0.2-1.6-0.2
				c-0.8,0-1.5,0.2-2.2,0.6c-0.5,0.4-0.8,1-0.8,1.6c0,0.3,0.1,0.7,0.2,1c0.2,0.3,0.6,0.6,0.9,0.7c0.6,0.3,1.3,0.5,2,0.6
				c1.7,0.3,3.3,1,4.6,2c0.9,0.8,1.3,1.9,1.3,3c0,1.3-0.5,2.5-1.5,3.4C350.1,300.3,348.4,300.8,346.8,300.6z"/>
			<path class="st1" d="M355,307.1l-0.5-1.6c0.7-0.6,1.4-1.3,1.9-2c0.6-0.9,1.2-1.9,1.6-3c0.5-1.3,0.9-2.6,1.1-3.9
				c0.3-1.6,0.4-3.1,0.4-4.7v-0.2c0-1.6-0.1-3.1-0.4-4.7c-0.2-1.3-0.6-2.6-1.1-3.9c-0.4-1.1-1-2.1-1.6-3c-0.5-0.8-1.1-1.5-1.8-2.1
				l0.5-1.6l0,0c1,0.5,1.8,1.2,2.5,2.1c0.9,1,1.7,2.2,2.3,3.4c0.7,1.4,1.3,2.9,1.7,4.5c0.4,1.8,0.6,3.6,0.6,5.4v0.1
				c0,1.8-0.2,3.6-0.6,5.4c-0.4,1.6-1,3.1-1.7,4.5c-0.6,1.2-1.4,2.3-2.3,3.4C356.8,305.9,356,306.6,355,307.1L355,307.1z"/>
		</g>
	</g>
	<g>
		<path class="st1" d="M177.2,453.3v-1.9l2.4-0.4v-11.5h-2.5v-2.1h2.5v-1.7c-0.1-1.5,0.5-3,1.6-4.1c1.2-1,2.8-1.6,4.3-1.5
			c0.7,0,1.3,0.1,1.9,0.2c0.6,0.2,1.4,0.4,2.2,0.7l-0.5,2.4c-0.5-0.2-1.1-0.4-1.7-0.5c-0.6-0.1-1.2-0.2-1.8-0.2
			c-0.9-0.1-1.8,0.2-2.5,0.8c-0.6,0.6-0.8,1.5-0.8,2.4v1.7h9V451l2.4,0.4v1.9H186v-1.9l2.4-0.4v-11.4h-6.1V451l2.4,0.4v1.9H177.2z"
			/>
		<path class="st1" d="M195.5,453.3v-1.9l2.4-0.4v-18.3l-2.4-0.4v-1.9h5.3V451l2.4,0.4v1.9H195.5z"/>
		<path class="st1" d="M212.2,453.6c-1.3,0-2.7-0.3-3.8-1s-2-1.6-2.5-2.8c-0.6-1.3-0.9-2.7-0.9-4.1V445c0-1.4,0.3-2.8,0.9-4
			c0.6-1.1,1.4-2.1,2.5-2.8c1-0.7,2.2-1,3.4-1c1.3,0,2.5,0.3,3.6,0.9c1,0.6,1.7,1.4,2.2,2.5c0.5,1.2,0.8,2.5,0.7,3.8v1.7H208v0.1
			c0,0.9,0.2,1.8,0.5,2.7c0.3,0.7,0.8,1.4,1.4,1.9c0.7,0.5,1.5,0.7,2.3,0.7c0.9,0,1.7-0.1,2.6-0.4c0.7-0.3,1.4-0.6,1.9-1.1l1.1,1.9
			c-0.7,0.6-1.4,1.1-2.2,1.4C214.5,453.4,213.3,453.6,212.2,453.6z M208,443.8h7.3v-0.4c0-0.7-0.1-1.4-0.4-2
			c-0.3-0.6-0.7-1.1-1.2-1.4c-0.6-0.4-1.3-0.5-2-0.5c-0.6,0-1.2,0.2-1.7,0.5c-0.5,0.4-1,0.9-1.3,1.5
			C208.3,442.2,208.1,443,208,443.8L208,443.8z"/>
	</g>
	<path class="st8" d="M261,383.5H115c-2.8,0-5,2.2-5,5v94.2c0,2.8,2.2,5,5,5h176c2.8,0,5-2.2,5-5v-66.5"/>
	<polygon class="st8" points="296,416.1 261,416.1 261,383.5 	"/>
	<g>
		<path class="st1" d="M408.2,453.3v-1.9l2.4-0.4v-11.5h-2.5v-2.1h2.5v-1.7c-0.1-1.5,0.5-3,1.6-4.1c1.2-1,2.8-1.6,4.3-1.5
			c0.7,0,1.3,0.1,1.9,0.2c0.6,0.2,1.4,0.4,2.2,0.7l-0.5,2.4c-0.5-0.2-1.1-0.4-1.7-0.5s-1.2-0.2-1.8-0.2c-0.9-0.1-1.8,0.2-2.5,0.8
			c-0.6,0.6-0.8,1.5-0.8,2.4v1.7h9V451l2.4,0.4v1.9H417v-1.9l2.4-0.4v-11.4h-6.1V451l2.4,0.4v1.9H408.2z"/>
		<path class="st1" d="M426.5,453.3v-1.9l2.4-0.4v-18.3l-2.4-0.4v-1.9h5.3V451l2.4,0.4v1.9H426.5z"/>
		<path class="st1" d="M443.2,453.6c-1.3,0-2.7-0.3-3.8-1c-1.1-0.7-2-1.6-2.5-2.8c-0.6-1.3-0.9-2.7-0.9-4.1V445c0-1.4,0.3-2.8,0.9-4
			c0.6-1.1,1.4-2.1,2.5-2.8c1-0.7,2.2-1,3.4-1c1.3,0,2.5,0.3,3.6,0.9c1,0.6,1.7,1.4,2.2,2.5c0.5,1.2,0.8,2.5,0.7,3.8v1.7H439v0.1
			c0,0.9,0.2,1.8,0.5,2.7c0.3,0.7,0.8,1.4,1.5,1.9s1.5,0.7,2.3,0.7c0.9,0,1.7-0.1,2.6-0.4c0.7-0.3,1.4-0.6,1.9-1.1l1.1,1.9
			c-0.7,0.6-1.4,1.1-2.2,1.4C445.5,453.4,444.3,453.6,443.2,453.6z M439,443.8h7.3v-0.4c0-0.7-0.1-1.4-0.4-2s-0.7-1.1-1.2-1.4
			c-0.6-0.4-1.3-0.5-2-0.5c-0.6,0-1.2,0.2-1.7,0.5c-0.5,0.4-1,0.9-1.3,1.5C439.3,442.2,439.1,443,439,443.8L439,443.8z"/>
	</g>
	<path class="st8" d="M492,383.5H346c-2.8,0-5,2.2-5,5v94.2c0,2.8,2.2,5,5,5h176c2.8,0,5-2.2,5-5v-66.5"/>
	<polygon class="st8" points="527,416.1 492,416.1 492,383.5 	"/>
	<path class="st9" d="M918.5,661.9h-2.4c-0.7,0-1.3-0.4-1.5-1.1c-0.2-0.6-0.4-1.1-0.7-1.7c-0.3-0.6-0.2-1.3,0.3-1.8l1.7-1.7
		c0.6-0.6,0.6-1.6,0-2.2l0,0l-2.2-2.2c-0.6-0.6-1.6-0.6-2.2,0l-1.7,1.7c-0.5,0.5-1.2,0.6-1.8,0.3s-1.1-0.5-1.7-0.7
		c-0.6-0.2-1.1-0.8-1.1-1.5v-2.4c0-0.9-0.7-1.6-1.6-1.6l0,0h-3.2c-0.9,0-1.6,0.7-1.6,1.6l0,0l0,0v2.4c0,0.7-0.4,1.3-1.1,1.5
		c-0.6,0.2-1.1,0.4-1.7,0.7c-0.6,0.3-1.3,0.2-1.8-0.3l-1.7-1.7c-0.6-0.6-1.6-0.6-2.2,0l-2.2,2.2c-0.6,0.6-0.6,1.6,0,2.2l0,0l1.7,1.7
		c0.5,0.5,0.6,1.2,0.3,1.8c-0.3,0.5-0.5,1.1-0.7,1.7c-0.2,0.6-0.8,1.1-1.5,1.1h-2.4c-0.9,0-1.6,0.7-1.6,1.6l0,0l0,0v3.2
		c0,0.9,0.7,1.6,1.6,1.6l0,0h2.4c0.7,0,1.3,0.4,1.5,1.1c0.2,0.6,0.4,1.2,0.7,1.7c0.3,0.6,0.2,1.3-0.3,1.8l-1.7,1.7
		c-0.6,0.6-0.6,1.6,0,2.2l0,0l2.2,2.2c0.6,0.6,1.6,0.6,2.2,0l0,0l0,0l1.7-1.7c0.5-0.5,1.2-0.6,1.8-0.3c0.5,0.3,1.1,0.5,1.7,0.7
		c0.6,0.2,1.1,0.8,1.1,1.5v2.4c0,0.9,0.7,1.6,1.6,1.6l0,0h3.2c0.9,0,1.6-0.7,1.6-1.6l0,0l0,0v-2.4c0-0.7,0.4-1.3,1.1-1.5
		c0.6-0.2,1.2-0.4,1.7-0.7c0.6-0.3,1.3-0.2,1.8,0.3l1.7,1.7c0.6,0.6,1.6,0.6,2.2,0l0,0l2.2-2.2c0.6-0.6,0.6-1.6,0-2.2l0,0l-1.7-1.7
		c-0.5-0.5-0.6-1.2-0.3-1.8c0.3-0.5,0.5-1.1,0.7-1.7c0.2-0.6,0.8-1.1,1.5-1.1h2.4c0.9,0,1.6-0.7,1.6-1.6l0,0l0,0v-3.2
		C920,662.6,919.3,661.9,918.5,661.9C918.4,661.9,918.4,661.9,918.5,661.9L918.5,661.9z M902,669.8c-2.6,0-4.8-2.1-4.8-4.8
		s2.1-4.8,4.8-4.8c2.6,0,4.8,2.1,4.8,4.8S904.6,669.8,902,669.8L902,669.8z"/>
	<path class="st10" d="M919,627.4c1,1.4,2.6,2.2,4.3,2.2s3.3-0.9,4.3-2.2"/>
	<path class="st10" d="M941.6,613.8L941.6,613.8c1.5,0.1,2.9,1.1,3.4,2.5c0.3,0.7,0.5,1.5,0.4,2.3c0,2.4-2,4.3-4.4,4.3l0,0"/>
	<path class="st10" d="M904.1,614.7c-2.2,1.2-2.9,4-1.7,6.2c0.8,1.4,2.3,2.3,4,2.3V614C905.5,614,904.7,614.2,904.1,614.7z"/>
	<path class="st10" d="M904.1,615.7l-3-3.8c-1.5-2-1.2-4.9,0.8-6.5l2.3-1.7l-0.9-3.7c-0.3-1.4,0.3-2.8,1.5-3.5l4-2l9.4-4.1
		c2.8-1.2,5.9-1.2,8.7,0l9.4,4.1l3.3,1.7c1.5,0.7,2.1,2.5,1.4,4l0,0v0.1l-1.7,3.3l4.6,3.7c1.8,1.4,2.3,4,1.1,5.9l-2.4,2.5"/>
	<path class="st10" d="M932.7,609.6c-6.9-0.1-13.7-1.7-19.9-4.5c-1.2,4.6-4.6,7.6-6.1,9.1v8.4c0,4.2,1.7,8.3,4.7,11.3
		c1.7,1.7,3.7,3,5.9,3.8l0,0c1.7,0.6,3.5,0.9,5.3,0.9c1.4,0,2.9-0.2,4.3-0.6c0.3-0.2,0.8-0.2,1.1-0.3l0,0
		c6.1-2.2,10.3-7.8,10.7-14.3v-9.1"/>
	<path class="st10" d="M931.6,606.7c0.2,1.3,0.6,2.6,1.2,3.8c1.1,2.3,3.2,4,5.6,4.6"/>
	<path class="st10" d="M919.3,659.7h19.6v-9.1c0-2.4-1-4.7-2.7-6.4c-0.5-0.6-1.1-1.1-1.8-1.5c-0.5-0.2-1.1-0.5-1.5-0.6
		c-0.9-0.4-2-0.6-3-0.6h-1.5v-3.8c0,0,11.5-3.3,10.8-14.3v-0.2c2.4-0.2,4.2-2.1,4.3-4.5c0-0.8-0.2-1.6-0.6-2.3l2.6-4.1
		c1.2-2,0.8-4.5-1.1-5.9l-4.6-3.7l1.7-3.3c0.7-1.5,0.2-3.2-1.3-4h-0.1l-3.3-1.7l-9.4-4.1c-2.8-1.2-5.9-1.2-8.7,0l-9.4,4.1l-4,2
		c-1.2,0.7-1.9,2.1-1.5,3.5l0.9,3.7l-2.3,1.7c-2,1.6-2.3,4.5-0.8,6.5l3,3.8c-2.2,1.3-2.9,4.1-1.6,6.3c0.8,1.4,2.3,2.3,3.9,2.3v-0.8
		l0.3,0.2c0,4.2,1.7,8.2,4.7,11.2c1.6,1.6,3.6,2.9,5.7,3.7l0.2,0.1c0,0-0.1,0-0.2-0.1v3.9h-1.5c-1,0-2,0.2-3,0.5
		c-0.5,0.3-1.1,0.5-1.5,0.8c-0.6,0.5-1.3,1-1.8,1.5c-1.1,1.1-2,2.4-2.4,3.9"/>
	<path class="st10" d="M919.4,660h19v-9.1c0-2.4-1-4.7-2.7-6.4c-0.5-0.6-1.1-1.1-1.8-1.5c-0.5-0.2-1.1-0.5-1.5-0.6
		c-0.9-0.4-2-0.6-3-0.6h-1.5v-4h-10.7v4h-1.5c-1,0-2,0.1-3,0.5c-0.5,0.3-1.1,0.5-1.5,0.8c-0.6,0.5-1.3,1-1.8,1.5
		c-1,1-1.8,2.2-2.3,3.5"/>
	<path class="st10" d="M939.5,218.1c-1.7-1.4-3.7-2.2-5.8-2.5c-0.6-0.1-1.2-0.2-1.8-0.1h-1.8v-4.6H930c4.4-2.8,7-7.7,7-12.9v-1
		c2.4-0.1,4.4-2,4.5-4.5c0-0.9-0.3-1.8-0.8-2.5h0.8v-11.4c0-7.9-8.9-17.2-20-17.2s-20,9.3-20,17.2v11.2h0.9c-0.5,0.6-0.8,1.3-0.9,2
		v1.5c0.4,2.2,2.3,3.7,4.5,3.7v-0.8l0,0c0,2.7,0.1-2.1,0.1,1c0,5.5,2.7,10.6,7.3,13.7h-0.5v4.6H911c-0.6,0-1.2,0-1.8,0.1
		c-2.1,0.3-4.1,1.2-5.8,2.5c-2,1.4-3.2,3.8-3.2,6.2v9.5h42.7v-9.5C942.8,221.8,941.5,219.5,939.5,218.1z"/>
	<path class="st1" d="M928.9,190.1c-0.8,0-1.5,0.7-1.4,1.5c0,0.4,0.2,0.7,0.4,1c0.3,0.3,0.7,0.4,1.1,0.4c0.8,0,1.4-0.6,1.4-1.4l0,0
		v-0.1C930.4,190.8,929.7,190.2,928.9,190.1L928.9,190.1z"/>
	<path class="st1" d="M914,190.1c-0.8,0-1.5,0.7-1.5,1.5s0.7,1.5,1.5,1.5s1.5-0.7,1.5-1.5l0,0C915.5,190.8,914.8,190.1,914,190.1
		L914,190.1z"/>
	<path class="st10" d="M930.1,210.2v4.6h1.9c0.6,0,1.2,0,1.8,0.1c2.1,0.3,4.1,1.2,5.8,2.5c2,1.4,3.2,3.8,3.2,6.2v9.5h-42.7v-9.5
		c0-2.5,1.2-4.8,3.2-6.2c1.7-1.4,3.7-2.2,5.8-2.5c0.6-0.1,1.2-0.2,1.8-0.1h1.8v-4.6"/>
	<path class="st10" d="M905.9,186.9c0,3.7,0.2,5.3,0.2,9.1c0,8.6,6.8,16.2,15.4,16.2c8.5,0,15.5-6.8,15.5-15.4l0,0v-10.4"/>
	<path class="st10" d="M905.9,187.4v-3.9c3-0.7,15.1,0.1,21.5-10.2c0,0,1.3,3.9,9.6,9.8v4.3"/>
	<path class="st10" d="M941.5,188.8c-0.1,2.4-2,4.4-4.5,4.4v-8.9C939.5,184.4,941.4,186.4,941.5,188.8z"/>
	<path class="st10" d="M901.4,191.1v1.5c0.4,2.2,2.3,3.7,4.5,3.7v-8.9C903.7,187.4,901.8,188.9,901.4,191.1z"/>
	<path class="st10" d="M917.2,202.7c1,1.4,2.6,2.2,4.3,2.2s3.3-0.8,4.3-2.2"/>
	<path class="st10" d="M901.4,189.1v-11.2c0-7.9,8.9-17.2,20-17.2s20,9.3,20,17.2v11.4"/>
	<path class="st10" d="M918.7,190.8c0,0.2,0.1,0.6,0.1,0.8c0,2.7-2.2,4.8-4.8,4.8c-2.7,0-4.8-2.2-4.8-4.8l0,0c0-0.4,0-0.8,0.1-1.2
		c0.5-2.1,2.5-3.6,4.7-3.6C916.3,186.8,918.3,188.5,918.7,190.8z"/>
	<path class="st10" d="M933.7,190.4c0.1,0.4,0.1,0.8,0.1,1.2c0,2.7-2.2,4.8-4.8,4.8c-2.7,0-4.8-2.2-4.8-4.8l0,0c0-0.3,0-0.6,0.1-0.8
		c0.4-2.3,2.4-4,4.7-4C931.2,186.8,933.1,188.3,933.7,190.4z"/>
	<path class="st10" d="M918.8,191c1.6-1.1,3.8-1.1,5.4,0"/>
	<path class="st10" d="M942,409.6h1.3c3.7-18.2-0.8-21.7-12-23.1c0-2.6-2-4.7-4.6-4.8l0,0h-15.4c-6.7,0-14.8,9.7-11.8,20l2.4,8h1.3
		c-0.3,0.2-0.5,0.4-0.7,0.6c-0.9,0.9-1.4,2.1-1.4,3.4c0,2.6,2.1,4.7,4.6,4.8l0,0v4.8c-0.1,6.5,4.7,12,11.2,12.8h0.2v3.9h-1.6
		c-0.5,0-1.1,0-1.6,0.2c-1.9,0.3-3.7,1.2-5.1,2.6c-1.8,1.6-2.9,4-2.9,6.5v9.2h33.5v-9.2c0-2.5-1.1-4.8-2.9-6.5
		c-1.3-1.4-3-2.3-4.9-2.6c-0.6-0.1-1.2-0.2-1.8-0.2h-1.6v-3.8c6.4-0.8,11.1-6.3,11-12.7v-4.8l0.2-0.2c2.6-0.1,4.7-2.2,4.8-4.8
		C944.2,412,943.4,410.5,942,409.6z"/>
	<path class="st11" d="M928.9,410.2c0.8,0,1.4,0.7,1.4,1.4c0,0.8-0.6,1.4-1.4,1.4c-0.8,0-1.4-0.6-1.4-1.4
		C927.5,410.8,928.1,410.2,928.9,410.2L928.9,410.2z"/>
	<circle class="st11" cx="917" cy="411.6" r="1.4"/>
	<path class="st11" d="M928.9,617.2c0.8,0,1.4,0.7,1.4,1.4c0,0.8-0.6,1.4-1.4,1.4s-1.4-0.6-1.4-1.4S928.1,617.2,928.9,617.2
		L928.9,617.2z"/>
	<circle class="st11" cx="917" cy="618.6" r="1.4"/>
	<path class="st10" d="M928.5,423.3c-0.4,2.8-2.7,4.9-5.5,4.9s-5.2-2.1-5.7-4.9H928.5z"/>
	<polyline class="st10" points="905.9,408.7 905.9,407 905.9,403 	"/>
	<path class="st10" d="M905.9,418.4v-0.8"/>
	<path class="st10" d="M941,417.6v0.8"/>
	<polyline class="st10" points="941,403 941,406.7 941,408.7 	"/>
	<path class="st10" d="M941,416.8v-8.1c1,0,1.9,0.3,2.8,0.8c1.3,0.9,2.1,2.4,2.1,4.1c-0.1,2.7-2.2,4.8-4.9,4.9"/>
	<path class="st10" d="M905.9,416.8v-8.1c-1.3,0-2.5,0.5-3.4,1.5c-0.9,0.9-1.4,2.1-1.5,3.4c0,2.7,2.2,4.9,4.9,4.9"/>
	<path class="st10" d="M901.8,409.5l-2.4-8.1c-3.1-10.4,5.2-20.3,12-20.3H927c2.6-0.1,4.8,2.1,4.9,4.7l0,0v0.2
		c11.4,1.5,16,5,12.2,23.6"/>
	<path class="st10" d="M905.9,407h4.9c1.8,0,3.2-1.5,3.2-3.2c0-1.3,0.5-2.6,1.5-3.4c0.9-0.9,2.1-1.4,3.4-1.5h1c3,0,6-1.2,8.1-3.2
		l2.4-2.4v0.6c0.1,3.7,1.8,7.1,4.7,9.3l5,3.6"/>
	<path class="st10" d="M925.4,417.2h-8.3c-1.8,0-3.3,1.5-3.3,3.2v1.3c-0.2,1.2-1.2,2.1-2.4,2c-1.3,0-2.4-1.1-2.4-2.5v-2.4
		c0-1.8-1.5-3.2-3.3-3.2v6.5c-0.1,6.6,4.9,12.2,11.4,13c0.5,0,1.1,0.2,1.6,0.2h9.6c6.6-0.7,11.6-6.3,11.6-13v-6.7
		c-1.8,0-3.3,1.5-3.3,3.2v2.4c0,1.3-1.1,2.4-2.4,2.5c-1.2,0-2.2-0.9-2.4-2v-1.3c0-1.8-1.5-3.2-3.2-3.2h-3.4"/>
	<path class="st10" d="M917.2,437v3.3h-1.6c-0.5,0-1.1,0-1.6,0.1c-2,0.3-3.8,1.3-5.2,2.7c-1.9,1.7-3,4.1-2.9,6.6v9.4H940v-9.4
		c0-2.5-1.1-4.9-2.9-6.6c-1.3-1.4-3.1-2.4-5-2.7c-0.6-0.1-1.2-0.2-1.8-0.1h-1.6V437"/>
	<path class="st12" d="M892,479.2c-0.8,0-1.6-0.4-2.1-1l-8-9.9c-0.5-0.6-0.7-1.5-0.5-2.3l2.8-12.4c0.2-0.8,0.7-1.5,1.5-1.8l11.5-5.5
		c0.8-0.4,1.6-0.4,2.4,0l11.5,5.5c0.8,0.4,1.3,1,1.5,1.9l2.8,12.4c0.2,0.8,0,1.7-0.5,2.3l-8,9.9c-0.5,0.6-1.3,1-2.1,1L892,479.2
		L892,479.2z"/>
	<path class="st13" d="M898.4,446.5c0.3,0,0.6,0.1,0.9,0.2l11.5,5.5c0.6,0.3,1,0.8,1.2,1.5l2.8,12.4c0.2,0.7,0,1.3-0.4,1.9l-8,9.9
		c-0.4,0.5-1,0.8-1.7,0.8H892c-0.7,0-1.3-0.3-1.7-0.8l-8-9.9c-0.4-0.5-0.6-1.2-0.4-1.9l2.8-12.4c0.2-0.7,0.6-1.2,1.2-1.5l11.5-5.5
		C897.8,446.5,898.1,446.4,898.4,446.5L898.4,446.5z M898.4,445.4L898.4,445.4c-0.5,0-1,0.1-1.4,0.3l-11.5,5.5
		c-0.9,0.4-1.6,1.2-1.8,2.2l-2.8,12.4c-0.2,1,0,2,0.6,2.8l8,9.9c0.6,0.8,1.5,1.2,2.5,1.2h12.8c1,0,1.9-0.4,2.5-1.2l8-9.9
		c0.6-0.8,0.9-1.8,0.6-2.8l-2.8-12.4c-0.2-1-0.9-1.8-1.8-2.2l-11.5-5.5C899.4,445.5,898.9,445.4,898.4,445.4L898.4,445.4z"/>
	<path class="st13" d="M910,465.1h-0.8c-0.4,0-0.8-0.1-1.2-0.2c-0.1-0.1-0.2-0.1-0.2-0.2l0,0l0,0l-0.3-0.1c0.1-1.1,0.1-2.2-0.2-3.2
		c-0.2-1.1-0.7-2.1-1.3-3l0.2-0.2l0,0c0-0.1,0-0.2,0.1-0.3c0.3-0.3,0.6-0.5,1-0.7l0,0l0.2-0.1l0.4-0.2l0.1-0.1 M908.1,456.6
		L908.1,456.6c0.3-0.2,0.4-0.7,0.2-1c-0.1-0.2-0.3-0.3-0.5-0.2c-0.2,0-0.4,0.1-0.5,0.2l0,0l-0.1,0.1c-0.1,0.1-0.2,0.2-0.3,0.3
		c0,0.1-0.1,0.1-0.2,0.1l0,0c-0.3,0.3-0.6,0.6-0.9,0.8c-0.1,0-0.1,0.1-0.2,0.1h-0.1l0,0l-0.3,0.2c-0.3-0.4-0.6-0.7-1-1
		c-1.4-1.1-3-1.7-4.8-1.9V454l0,0c-0.1-0.1-0.2-0.2-0.2-0.3c0-0.4,0-0.8,0.1-1.2l0,0c0-0.1,0-0.2,0-0.2c0-0.1,0-0.3,0.1-0.4v-0.2
		l0,0c0-0.4-0.3-0.7-0.7-0.7l0,0l0,0c-0.2,0-0.4,0.1-0.5,0.2s-0.2,0.3-0.2,0.5l0,0v0.2c0,0.1,0,0.3,0.1,0.4c0,0.1,0,0.2,0,0.2l0,0
		c0.1,0.4,0.1,0.8,0.1,1.2c0,0.1-0.1,0.2-0.2,0.3l0,0v0.3c-0.4,0-0.8,0.1-1.2,0.2c-1.7,0.4-3.3,1.3-4.5,2.6l-0.2-0.2H892
		c-0.1,0-0.1,0-0.2-0.1c-0.3-0.2-0.6-0.5-0.9-0.8l0,0c0-0.1-0.1-0.1-0.2-0.2c-0.1-0.1-0.2-0.2-0.3-0.3l-0.1-0.1l0,0l0,0
		c-0.1-0.1-0.3-0.2-0.5-0.2s-0.4,0.1-0.5,0.2c-0.2,0.3-0.1,0.8,0.2,1l0,0l0.1,0.1l0.4,0.2l0.2,0.1l0,0c0.4,0.2,0.7,0.4,1,0.7
		c0.1,0.1,0.1,0.2,0.1,0.3l0,0l0,0l0.2,0.2c0,0.1-0.1,0.1-0.1,0.2c-1.1,1.8-1.6,3.9-1.3,6l-0.3,0.1l0,0c-0.1,0.1-0.1,0.2-0.2,0.2
		c-0.4,0.1-0.8,0.2-1.2,0.2h-0.9c-0.4,0.1-0.7,0.5-0.6,0.9c0.1,0.3,0.4,0.5,0.7,0.5c0.1,0,0.1,0,0.2,0h0.1c0.1,0,0.3-0.1,0.4-0.2
		l0.2-0.1l0,0c0.4-0.2,0.8-0.3,1.2-0.3l0,0c0.1,0,0.2,0,0.3,0.1l0,0h0.3c0.6,1.7,1.6,3.2,3,4.3c0.3,0.2,0.7,0.5,1,0.7l-0.1,0.3l0,0
		c0,0.1,0,0.3,0,0.4c-0.2,0.4-0.4,0.7-0.6,1.1l0,0l-0.1,0.2c-0.1,0.1-0.2,0.2-0.2,0.4l-0.1,0.1l0,0c-0.2,0.3-0.1,0.8,0.2,1l0,0l0,0
		c0.1,0,0.2,0.1,0.3,0.1c0.3,0,0.6-0.2,0.7-0.4l0,0c0,0,0-0.1,0.1-0.1c0.1-0.2,0.1-0.3,0.1-0.4l0.1-0.2l0,0c0.1-0.4,0.3-0.8,0.5-1.1
		c0.1-0.1,0.2-0.2,0.3-0.2l0,0l0.2-0.3c1,0.4,2.1,0.6,3.2,0.6c0.7,0,1.3-0.1,2-0.2c0.4-0.1,0.8-0.2,1.2-0.3l0.1,0.2l0,0
		c0.1,0,0.2,0.1,0.3,0.2c0.2,0.4,0.3,0.7,0.5,1.1l0,0l0.1,0.2c0,0.1,0.1,0.3,0.1,0.4l0.1,0.1l0,0c0.1,0.3,0.4,0.4,0.7,0.4
		c0.1,0,0.2,0,0.3-0.1c0.2-0.1,0.3-0.2,0.3-0.4c0.1-0.2,0.1-0.4,0-0.6l0,0c0,0,0-0.1-0.1-0.1c-0.1-0.2-0.2-0.4-0.4-0.5l0,0
		c-0.2-0.3-0.4-0.7-0.6-1.1c0-0.1,0-0.2,0-0.4l0,0l-0.1-0.3c1.9-1.1,3.3-2.9,4-5h0.3c0.1-0.1,0.2-0.1,0.3-0.1l0,0
		c0.4,0.1,0.8,0.2,1.2,0.3l0,0c0.1,0,0.1,0.1,0.2,0.1c0.1,0.1,0.3,0.1,0.4,0.2h0.4c0.3,0,0.6-0.2,0.7-0.5c-0.1-0.3-0.3-0.5-0.5-0.6
		L908.1,456.6z M899.4,464l-1,0.5l-1-0.5l-0.2-1.1l0.7-0.9h1.1l0.7,0.9L899.4,464L899.4,464z M905.4,461.6c0.2,0.8,0.2,1.5,0.2,2.3
		l-3.5-1c-0.3-0.1-0.5-0.4-0.4-0.7c0-0.1,0.1-0.2,0.1-0.2l2.8-2.5C905,460.1,905.3,460.9,905.4,461.6L905.4,461.6z M903.4,458.1
		l-3,2.1c-0.3,0.2-0.6,0.1-0.8-0.1c-0.1-0.1-0.1-0.2-0.1-0.3l-0.2-3.7C900.9,456.3,902.3,457,903.4,458.1L903.4,458.1z M896.8,456.2
		l0.7-0.1l-0.2,3.6c0,0.3-0.3,0.6-0.6,0.6c-0.1,0-0.2,0-0.3-0.1l-3-2.2C894.4,457.2,895.6,456.5,896.8,456.2L896.8,456.2z
		 M892.3,459.5l2.7,2.4c0.2,0.2,0.3,0.6,0.1,0.8c-0.1,0.1-0.2,0.2-0.3,0.2l-3.5,1C891.1,462.4,891.5,460.8,892.3,459.5L892.3,459.5z
		 M891.7,465.6l3.6-0.6c0.3,0,0.6,0.2,0.6,0.5c0,0.1,0,0.2,0,0.4l0,0l-1.4,3.4C893.3,468.4,892.3,467.1,891.7,465.6L891.7,465.6z
		 M900,470.1c-1.3,0.3-2.6,0.2-3.9-0.2l1.8-3.3c0.2-0.2,0.5-0.3,0.7-0.2c0.1,0.1,0.2,0.1,0.3,0.2l0,0l1.8,3.2
		C900.5,470,900.2,470,900,470.1L900,470.1z M904.5,466.9c-0.6,0.9-1.3,1.6-2.2,2.2l-1.4-3.5c-0.1-0.3,0.1-0.6,0.3-0.7
		c0.1,0,0.2-0.1,0.3-0.1l3.7,0.6C905,466,904.8,466.5,904.5,466.9L904.5,466.9z"/>
	<polyline class="st14" points="878.7,230.5 885.9,223.3 915,223.3 915,237 907.9,244.1 	"/>
	<rect x="878.7" y="230.5" class="st15" width="29.1" height="13.6"/>
	<line class="st15" x1="907.9" y1="230.5" x2="914.1" y2="224.3"/>
	<line class="st16" x1="848" y1="230.1" x2="757" y2="230.1"/>
	<line class="st16" x1="705" y1="230.1" x2="686" y2="230.1"/>
	<line class="st17" x1="848" y1="196.1" x2="486.5" y2="197.1"/>
	<polygon class="st18" points="500.4,179.9 503.3,182.9 488.2,197.1 503.4,211.1 500.5,214.2 482,197.1 	"/>
	<line class="st3" x1="848" y1="619.1" x2="705.5" y2="620.1"/>
	<polygon class="st1" points="719.3,602.8 722.2,605.9 707.2,620.1 722.4,634.1 719.6,637.2 701,620.1 	"/>
	<line class="st16" x1="848" y1="651.1" x2="689" y2="651.1"/>
	<line class="st16" x1="848" y1="451.1" x2="757" y2="451.1"/>
	<line class="st17" x1="848" y1="210.1" x2="494.1" y2="391"/>
	<polygon class="st18" points="498.6,369.4 502.6,370.8 495.5,390.3 515.4,396 514.3,400 490,393.1 	"/>
	<line class="st19" x1="848" y1="406.1" x2="512.3" y2="283.7"/>
	<polygon class="st12" points="531.2,272.3 532.9,276.2 513.8,284.2 523.2,302.7 519.5,304.6 508,282.1 	"/>
	<circle class="st20" cx="730.8" cy="230.2" r="11.1"/>
	<line class="st21" x1="723" y1="238.1" x2="738.7" y2="222.4"/>
	<circle class="st20" cx="730.8" cy="451.2" r="11.1"/>
	<line class="st21" x1="723" y1="459.1" x2="738.7" y2="443.4"/>
	<circle class="st20" cx="660.8" cy="230.2" r="11.1"/>
	<line class="st21" x1="653" y1="238.1" x2="668.7" y2="222.4"/>
	<circle class="st20" cx="660.8" cy="650.2" r="11.1"/>
	<line class="st21" x1="653" y1="658.1" x2="668.7" y2="642.4"/>
	<line class="st19" x1="615" y1="430.1" x2="566.5" y2="430.1"/>
	<polygon class="st12" points="580.5,412.9 583.3,416 568.2,430.1 583.3,444.2 580.5,447.3 562,430.1 	"/>
	<line class="st19" x1="848" y1="430.1" x2="627.5" y2="430.1"/>
	<polygon class="st12" points="641.5,412.9 644.3,416 629.2,430.1 644.3,444.2 641.5,447.3 623,430.1 	"/>
	<line class="st19" x1="554" y1="431.1" x2="512.5" y2="431.1"/>
	<polygon class="st12" points="526.5,413.9 529.3,417 514.2,431.1 529.3,445.2 526.5,448.3 508,431.1 	"/>
	<line class="st22" x1="1066" y1="44.1" x2="1046" y2="44.1"/>
	<circle class="st20" cx="1025.8" cy="44.2" r="11.1"/>
	<line class="st21" x1="1018" y1="52.1" x2="1033.7" y2="36.4"/>
	<g>
		<g class="st0">
			<path class="st23" d="M1085.9,19.4c-0.2,0.2-0.5,0.4-0.8,0.6s-0.6,0.3-1,0.4c-0.3,0.1-0.7,0.2-1,0.3c-0.3,0.1-0.6,0.1-0.9,0.1
				c-0.8,0-1.4-0.1-1.9-0.4c-0.5-0.2-0.9-0.6-1.2-0.9s-0.5-0.8-0.6-1.2c-0.1-0.4-0.2-0.9-0.2-1.3c0-1.4,0.2-2.6,0.6-3.7
				s0.9-2,1.5-2.7s1.3-1.3,2.1-1.7c0.8-0.4,1.6-0.6,2.5-0.6c0.6,0,1.1,0.1,1.5,0.2c0.4,0.1,0.7,0.2,1.1,0.4l-0.7,1.5
				c-0.3-0.2-0.6-0.3-1-0.4c-0.4-0.1-0.8-0.1-1.3-0.1s-1.1,0.2-1.6,0.6c-0.5,0.4-1,0.9-1.4,1.5s-0.7,1.3-1,2.1
				c-0.2,0.8-0.4,1.6-0.4,2.4c0,1,0.2,1.8,0.6,2.3s1,0.7,1.8,0.7c0.5,0,1-0.1,1.5-0.3c0.5-0.2,1-0.4,1.3-0.7L1085.9,19.4z"/>
		</g>
		<g class="st0">
			<path class="st23" d="M1096.4,15.7c-0.1,0.6-0.2,1.2-0.3,1.8s-0.1,1.2-0.1,1.7c0,0.2,0,0.5,0,0.7s0,0.4,0,0.6h-1.3l-0.3-2.1h-0.1
				c-0.2,0.3-0.4,0.5-0.7,0.8c-0.3,0.3-0.6,0.5-0.9,0.8c-0.3,0.2-0.7,0.4-1.1,0.5s-0.8,0.2-1.2,0.2c-1.9,0-2.9-1.2-2.9-3.7
				c0-1,0.1-2.1,0.4-3.1c0.3-1.1,0.7-2,1.2-2.9c0.5-0.8,1.3-1.5,2.1-2.1s1.9-0.8,3.1-0.8c0.4,0,1,0.1,1.6,0.2
				c0.6,0.1,1.2,0.2,1.8,0.4L1096.4,15.7z M1091,19.2c0.4,0,0.8-0.1,1.1-0.3c0.4-0.2,0.7-0.4,1-0.7c0.3-0.3,0.6-0.6,0.8-0.9
				c0.2-0.3,0.4-0.6,0.6-0.9l1.3-6.5c-0.5-0.2-1.1-0.3-1.8-0.3c-0.7,0-1.4,0.2-1.9,0.6c-0.6,0.4-1,1-1.4,1.7s-0.7,1.5-0.9,2.4
				c-0.2,0.9-0.3,1.8-0.3,2.6c0,0.6,0.1,1.1,0.4,1.5C1090.1,18.9,1090.5,19.2,1091,19.2z"/>
			<path class="st23" d="M1106.1,20.4l1.6-7.6c0.1-0.3,0.1-0.6,0.2-0.9c0-0.3,0.1-0.5,0.1-0.8c0-0.5-0.1-0.8-0.3-1.1
				c-0.2-0.3-0.6-0.4-1.2-0.4c-0.4,0-0.8,0.1-1.2,0.3c-0.4,0.2-0.8,0.4-1.1,0.7c-0.4,0.3-0.7,0.6-0.9,1s-0.5,0.7-0.7,1.1l-1.6,7.7
				h-1.8l2.5-12h1.2l-0.1,2.1h0.1c0.2-0.3,0.5-0.5,0.7-0.8c0.3-0.3,0.6-0.5,1-0.8c0.4-0.2,0.8-0.4,1.2-0.6c0.4-0.2,0.9-0.2,1.5-0.2
				c0.8,0,1.4,0.2,1.9,0.6s0.7,1.1,0.7,2c0,0.5-0.1,1.1-0.2,1.7l-1.7,8H1106.1z"/>
			<path class="st23" d="M1127,15.7c-0.1,0.6-0.2,1.2-0.3,1.8s-0.1,1.2-0.1,1.7c0,0.2,0,0.5,0,0.7s0,0.4,0,0.6h-1.3l-0.3-2.1h-0.1
				c-0.2,0.3-0.4,0.5-0.7,0.8s-0.6,0.5-0.9,0.8c-0.3,0.2-0.7,0.4-1.1,0.5s-0.8,0.2-1.2,0.2c-1.9,0-2.9-1.2-2.9-3.7
				c0-1,0.1-2.1,0.4-3.1c0.3-1.1,0.7-2,1.2-2.9c0.6-0.8,1.3-1.5,2.1-2.1c0.9-0.5,1.9-0.8,3.1-0.8c0.4,0,1,0.1,1.6,0.2
				c0.6,0.1,1.2,0.2,1.8,0.4L1127,15.7z M1121.6,19.2c0.4,0,0.8-0.1,1.1-0.3c0.4-0.2,0.7-0.4,1-0.7c0.3-0.3,0.6-0.6,0.8-0.9
				c0.2-0.3,0.4-0.6,0.6-0.9l1.3-6.5c-0.5-0.2-1.1-0.3-1.8-0.3c-0.7,0-1.4,0.2-1.9,0.6c-0.6,0.4-1,1-1.4,1.7s-0.7,1.5-0.9,2.4
				c-0.2,0.9-0.3,1.8-0.3,2.6c0,0.6,0.1,1.1,0.4,1.5S1121.1,19.2,1121.6,19.2z"/>
		</g>
		<g class="st0">
			<path class="st23" d="M1137.6,19.4c-0.2,0.2-0.5,0.4-0.8,0.6s-0.6,0.3-1,0.4c-0.3,0.1-0.7,0.2-1,0.3c-0.3,0.1-0.6,0.1-0.9,0.1
				c-0.8,0-1.4-0.1-1.9-0.4c-0.5-0.2-0.9-0.6-1.2-0.9c-0.3-0.4-0.5-0.8-0.6-1.2c-0.1-0.4-0.2-0.9-0.2-1.3c0-1.4,0.2-2.6,0.6-3.7
				s0.9-2,1.5-2.7s1.3-1.3,2.1-1.7c0.8-0.4,1.6-0.6,2.5-0.6c0.6,0,1.1,0.1,1.5,0.2c0.4,0.1,0.7,0.2,1.1,0.4l-0.7,1.5
				c-0.3-0.2-0.6-0.3-1-0.4c-0.4-0.1-0.8-0.1-1.3-0.1s-1.1,0.2-1.6,0.6s-1,0.9-1.4,1.5s-0.7,1.3-1,2.1c-0.2,0.8-0.4,1.6-0.4,2.4
				c0,1,0.2,1.8,0.6,2.3s1,0.7,1.8,0.7c0.5,0,1-0.1,1.5-0.3c0.5-0.2,1-0.4,1.3-0.7L1137.6,19.4z"/>
		</g>
		<g class="st0">
			<path class="st23" d="M1146.3,19.4c-0.2,0.2-0.5,0.4-0.8,0.6s-0.6,0.3-1,0.4c-0.3,0.1-0.7,0.2-1,0.3c-0.3,0.1-0.6,0.1-0.9,0.1
				c-0.8,0-1.4-0.1-1.9-0.4s-0.9-0.6-1.2-0.9s-0.5-0.8-0.6-1.2c-0.1-0.4-0.2-0.9-0.2-1.3c0-1.4,0.2-2.6,0.6-3.7s0.9-2,1.5-2.7
				c0.6-0.8,1.3-1.3,2.1-1.7c0.8-0.4,1.6-0.6,2.5-0.6c0.6,0,1.1,0.1,1.5,0.2c0.4,0.1,0.7,0.2,1.1,0.4l-0.7,1.5
				c-0.3-0.2-0.6-0.3-1-0.4s-0.8-0.1-1.3-0.1s-1.1,0.2-1.6,0.6c-0.5,0.4-1,0.9-1.4,1.5s-0.7,1.3-1,2.1c-0.2,0.8-0.4,1.6-0.4,2.4
				c0,1,0.2,1.8,0.6,2.3s1,0.7,1.8,0.7c0.5,0,1-0.1,1.5-0.3s1-0.4,1.3-0.7L1146.3,19.4z"/>
		</g>
		<g class="st0">
			<path class="st23" d="M1156.9,19.2c-0.6,0.5-1.2,0.8-2,1.1s-1.5,0.4-2.3,0.4c-1.3,0-2.2-0.4-2.9-1.1c-0.6-0.7-1-1.8-1-3.1
				s0.2-2.5,0.6-3.5s0.9-1.9,1.5-2.6c0.6-0.7,1.3-1.3,2-1.7c0.8-0.4,1.5-0.6,2.3-0.6c0.6,0,1.1,0.1,1.5,0.2c0.4,0.2,0.8,0.4,1,0.6
				c0.3,0.3,0.5,0.6,0.6,0.9c0.1,0.3,0.2,0.7,0.2,1.1c0,1.1-0.6,2-1.7,2.7c-1.1,0.6-2.7,1-4.8,1c-0.2,0-0.4,0-0.6,0s-0.4,0-0.6,0
				c-0.1,0.3-0.1,0.6-0.1,0.9c0,0.3,0,0.5,0,0.7c0,0.9,0.2,1.6,0.6,2.1c0.4,0.6,1,0.8,1.9,0.8c0.7,0,1.3-0.1,1.9-0.3
				c0.6-0.2,1-0.5,1.4-0.7L1156.9,19.2z M1154.9,9.6c-0.9,0-1.6,0.3-2.3,0.9c-0.6,0.6-1.1,1.5-1.5,2.7c0.6,0,1.2,0,1.9,0
				c0.7,0,1.3-0.1,1.8-0.3c0.5-0.1,1-0.4,1.3-0.6c0.4-0.3,0.5-0.7,0.5-1.2c0-0.2,0-0.3-0.1-0.5s-0.1-0.3-0.3-0.5
				c-0.1-0.1-0.3-0.2-0.5-0.3C1155.5,9.7,1155.2,9.6,1154.9,9.6z"/>
			<path class="st23" d="M1164.9,17c0-0.4-0.1-0.8-0.3-1.1c-0.2-0.3-0.5-0.6-0.8-0.8s-0.7-0.5-1-0.7s-0.7-0.5-1-0.8s-0.6-0.6-0.8-1
				c-0.2-0.4-0.3-0.8-0.3-1.4c0-0.4,0.1-0.9,0.3-1.3c0.2-0.4,0.5-0.7,0.9-1s0.8-0.5,1.3-0.7s1.1-0.3,1.7-0.3c0.8,0,1.5,0.1,2,0.2
				c0.5,0.1,0.9,0.3,1.2,0.5l-0.6,1.4c-0.6-0.4-1.5-0.6-2.6-0.6c-0.7,0-1.2,0.1-1.7,0.4c-0.4,0.3-0.7,0.7-0.7,1.3
				c0,0.3,0.1,0.6,0.3,0.9s0.5,0.5,0.8,0.7s0.7,0.5,1,0.7c0.4,0.2,0.7,0.5,1,0.8s0.6,0.6,0.8,1c0.2,0.4,0.3,0.9,0.3,1.4
				c0,1.2-0.4,2.2-1.3,2.8c-0.8,0.6-2,1-3.4,1c-0.7,0-1.4-0.1-2-0.2s-1.1-0.3-1.5-0.6l0.7-1.5c0.3,0.2,0.7,0.4,1.3,0.5
				c0.5,0.1,1.1,0.2,1.6,0.2c0.8,0,1.4-0.2,1.9-0.5C1164.7,18.3,1164.9,17.7,1164.9,17z"/>
			<path class="st23" d="M1174.5,17c0-0.4-0.1-0.8-0.3-1.1c-0.2-0.3-0.5-0.6-0.8-0.8s-0.7-0.5-1-0.7c-0.4-0.2-0.7-0.5-1-0.8
				s-0.6-0.6-0.8-1c-0.2-0.4-0.3-0.8-0.3-1.4c0-0.4,0.1-0.9,0.3-1.3s0.5-0.7,0.9-1s0.8-0.5,1.3-0.7s1.1-0.3,1.7-0.3
				c0.8,0,1.5,0.1,2,0.2c0.5,0.1,0.9,0.3,1.2,0.5l-0.6,1.4c-0.6-0.4-1.5-0.6-2.6-0.6c-0.7,0-1.2,0.1-1.7,0.4
				c-0.4,0.3-0.7,0.7-0.7,1.3c0,0.3,0.1,0.6,0.3,0.9s0.5,0.5,0.8,0.7s0.7,0.5,1,0.7c0.4,0.2,0.7,0.5,1,0.8s0.6,0.6,0.8,1
				c0.2,0.4,0.3,0.9,0.3,1.4c0,1.2-0.4,2.2-1.3,2.8c-0.8,0.6-2,1-3.4,1c-0.7,0-1.4-0.1-2-0.2s-1.1-0.3-1.5-0.6l0.7-1.5
				c0.3,0.2,0.7,0.4,1.3,0.5c0.5,0.1,1.1,0.2,1.6,0.2c0.8,0,1.4-0.2,1.9-0.5C1174.2,18.3,1174.5,17.7,1174.5,17z"/>
		</g>
	</g>
	<g>
		<g class="st0">
			<path class="st23" d="M1085.9,53.4c-0.2,0.2-0.5,0.4-0.8,0.6c-0.3,0.2-0.6,0.3-1,0.4c-0.3,0.1-0.7,0.2-1,0.3s-0.6,0.1-0.9,0.1
				c-0.8,0-1.4-0.1-1.9-0.4c-0.5-0.2-0.9-0.6-1.2-0.9s-0.5-0.8-0.6-1.2s-0.2-0.9-0.2-1.3c0-1.4,0.2-2.6,0.6-3.7s0.9-2,1.5-2.7
				s1.3-1.3,2.1-1.7c0.8-0.4,1.6-0.6,2.5-0.6c0.6,0,1.1,0.1,1.5,0.2c0.4,0.1,0.7,0.2,1.1,0.4l-0.7,1.5c-0.3-0.2-0.6-0.3-1-0.4
				c-0.4-0.1-0.8-0.1-1.3-0.1s-1.1,0.2-1.6,0.6c-0.5,0.4-1,0.9-1.4,1.5s-0.7,1.3-1,2.1c-0.2,0.8-0.4,1.6-0.4,2.4
				c0,1,0.2,1.8,0.6,2.3s1,0.7,1.8,0.7c0.5,0,1-0.1,1.5-0.3s1-0.4,1.3-0.7L1085.9,53.4z"/>
		</g>
		<g class="st0">
			<path class="st23" d="M1096.4,49.7c-0.1,0.6-0.2,1.2-0.3,1.8s-0.1,1.2-0.1,1.7c0,0.2,0,0.5,0,0.7s0,0.4,0,0.6h-1.3l-0.3-2.1h-0.1
				c-0.2,0.3-0.4,0.5-0.7,0.8c-0.3,0.3-0.6,0.5-0.9,0.8c-0.3,0.2-0.7,0.4-1.1,0.5s-0.8,0.2-1.2,0.2c-1.9,0-2.9-1.2-2.9-3.7
				c0-1,0.1-2.1,0.4-3.1c0.3-1.1,0.7-2,1.2-2.9c0.5-0.8,1.3-1.5,2.1-2.1s1.9-0.8,3.1-0.8c0.4,0,1,0.1,1.6,0.2
				c0.6,0.1,1.2,0.2,1.8,0.4L1096.4,49.7z M1091,53.2c0.4,0,0.8-0.1,1.1-0.3c0.4-0.2,0.7-0.4,1-0.7s0.6-0.6,0.8-0.9
				c0.2-0.3,0.4-0.6,0.6-0.9l1.3-6.5c-0.5-0.2-1.1-0.3-1.8-0.3c-0.7,0-1.4,0.2-1.9,0.6c-0.6,0.4-1,1-1.4,1.7s-0.7,1.5-0.9,2.4
				c-0.2,0.9-0.3,1.8-0.3,2.6c0,0.6,0.1,1.1,0.4,1.5C1090.1,52.9,1090.5,53.2,1091,53.2z"/>
			<path class="st23" d="M1106.1,54.4l1.6-7.6c0.1-0.3,0.1-0.6,0.2-0.9c0-0.3,0.1-0.5,0.1-0.8c0-0.5-0.1-0.8-0.3-1.1
				c-0.2-0.3-0.6-0.4-1.2-0.4c-0.4,0-0.8,0.1-1.2,0.3c-0.4,0.2-0.8,0.4-1.1,0.7c-0.4,0.3-0.7,0.6-0.9,1s-0.5,0.7-0.7,1.1l-1.6,7.7
				h-1.8l2.5-12h1.2l-0.1,2.1h0.1c0.2-0.3,0.5-0.5,0.7-0.8c0.3-0.3,0.6-0.5,1-0.8c0.4-0.2,0.8-0.4,1.2-0.6c0.4-0.2,0.9-0.2,1.5-0.2
				c0.8,0,1.4,0.2,1.9,0.6s0.7,1.1,0.7,2c0,0.5-0.1,1.1-0.2,1.7l-1.7,8H1106.1z"/>
			<path class="st23" d="M1123.4,43.4l-0.8-2.5h-0.1l-0.3,2.5l-2.3,11h-1.8l3.6-17.1h1l5.2,11.2l0.8,2.4h0.1l0.2-2.4l2.4-11h1.8
				l-3.6,17.1h-0.9L1123.4,43.4z"/>
		</g>
		<g class="st0">
			<path class="st23" d="M1134.2,48.3c0-1.5,0.2-2.9,0.6-4.2s1-2.5,1.7-3.5s1.6-1.8,2.7-2.4c1-0.6,2.2-0.9,3.5-0.9
				c0.8,0,1.5,0.1,2.1,0.3c0.7,0.2,1.2,0.6,1.7,1.1s0.8,1.2,1.1,2s0.4,1.8,0.4,2.9c0,1.5-0.2,2.9-0.6,4.3c-0.4,1.3-1,2.5-1.7,3.5
				s-1.6,1.8-2.6,2.4s-2.1,0.9-3.3,0.9c-1.9,0-3.3-0.5-4.2-1.6C1134.7,51.9,1134.2,50.4,1134.2,48.3z M1136.2,48.2
				c0,1.5,0.3,2.7,0.9,3.5s1.5,1.2,2.8,1.2c0.9,0,1.7-0.2,2.5-0.7s1.4-1.2,1.9-2s1-1.8,1.3-3c0.3-1.1,0.4-2.3,0.4-3.6
				c0-0.9-0.1-1.7-0.3-2.3c-0.2-0.6-0.5-1.1-0.8-1.4c-0.3-0.3-0.7-0.6-1.2-0.7c-0.4-0.1-0.9-0.2-1.3-0.2c-0.9,0-1.7,0.3-2.5,0.8
				s-1.4,1.2-1.9,2s-1,1.8-1.3,2.9S1136.2,47,1136.2,48.2z"/>
		</g>
		<g class="st0">
			<path class="st23" d="M1161.5,39.4h-5l-3.2,15h-1.9l3.2-15h-4.9l0.4-1.8h11.8L1161.5,39.4z"/>
		</g>
		<g class="st0">
			<path class="st23" d="M1175.1,49.7c-0.1,0.6-0.2,1.2-0.3,1.8s-0.1,1.2-0.1,1.7c0,0.2,0,0.5,0,0.7s0,0.4,0,0.6h-1.3l-0.3-2.1h-0.1
				c-0.2,0.3-0.4,0.5-0.7,0.8c-0.3,0.3-0.6,0.5-0.9,0.8c-0.3,0.2-0.7,0.4-1.1,0.5s-0.8,0.2-1.2,0.2c-1.9,0-2.9-1.2-2.9-3.7
				c0-1,0.1-2.1,0.4-3.1c0.3-1.1,0.7-2,1.2-2.9c0.6-0.8,1.3-1.5,2.1-2.1c0.9-0.5,1.9-0.8,3.1-0.8c0.4,0,1,0.1,1.6,0.2
				c0.6,0.1,1.2,0.2,1.8,0.4L1175.1,49.7z M1169.7,53.2c0.4,0,0.8-0.1,1.1-0.3c0.4-0.2,0.7-0.4,1-0.7s0.6-0.6,0.8-0.9
				c0.2-0.3,0.4-0.6,0.6-0.9l1.3-6.5c-0.5-0.2-1.1-0.3-1.8-0.3c-0.7,0-1.4,0.2-1.9,0.6s-1,1-1.4,1.7s-0.7,1.5-0.9,2.4
				c-0.2,0.9-0.3,1.8-0.3,2.6c0,0.6,0.1,1.1,0.4,1.5S1169.2,53.2,1169.7,53.2z"/>
		</g>
		<g class="st0">
			<path class="st23" d="M1185.7,53.4c-0.2,0.2-0.5,0.4-0.8,0.6c-0.3,0.2-0.6,0.3-1,0.4c-0.3,0.1-0.7,0.2-1,0.3s-0.6,0.1-0.9,0.1
				c-0.8,0-1.4-0.1-1.9-0.4c-0.5-0.2-0.9-0.6-1.2-0.9s-0.5-0.8-0.6-1.2s-0.2-0.9-0.2-1.3c0-1.4,0.2-2.6,0.6-3.7s0.9-2,1.5-2.7
				s1.3-1.3,2.1-1.7c0.8-0.4,1.6-0.6,2.5-0.6c0.6,0,1.1,0.1,1.5,0.2c0.4,0.1,0.7,0.2,1.1,0.4l-0.7,1.5c-0.3-0.2-0.6-0.3-1-0.4
				c-0.4-0.1-0.8-0.1-1.3-0.1s-1.1,0.2-1.6,0.6c-0.5,0.4-1,0.9-1.4,1.5s-0.7,1.3-1,2.1c-0.2,0.8-0.4,1.6-0.4,2.4
				c0,1,0.2,1.8,0.6,2.3s1,0.7,1.8,0.7c0.5,0,1-0.1,1.5-0.3s1-0.4,1.3-0.7L1185.7,53.4z"/>
		</g>
		<g class="st0">
			<path class="st23" d="M1194.3,53.4c-0.2,0.2-0.5,0.4-0.8,0.6c-0.3,0.2-0.6,0.3-1,0.4c-0.3,0.1-0.7,0.2-1,0.3s-0.6,0.1-0.9,0.1
				c-0.8,0-1.4-0.1-1.9-0.4s-0.9-0.6-1.2-0.9c-0.3-0.4-0.5-0.8-0.6-1.2s-0.2-0.9-0.2-1.3c0-1.4,0.2-2.6,0.6-3.7s0.9-2,1.5-2.7
				c0.6-0.8,1.3-1.3,2.1-1.7c0.8-0.4,1.6-0.6,2.5-0.6c0.6,0,1.1,0.1,1.5,0.2c0.4,0.1,0.7,0.2,1.1,0.4l-0.7,1.5
				c-0.3-0.2-0.6-0.3-1-0.4c-0.4-0.1-0.8-0.1-1.3-0.1s-1.1,0.2-1.6,0.6c-0.5,0.4-1,0.9-1.4,1.5s-0.7,1.3-1,2.1
				c-0.2,0.8-0.4,1.6-0.4,2.4c0,1,0.2,1.8,0.6,2.3s1,0.7,1.8,0.7c0.5,0,1-0.1,1.5-0.3s1-0.4,1.3-0.7L1194.3,53.4z"/>
		</g>
		<g class="st0">
			<path class="st23" d="M1205,53.2c-0.6,0.5-1.2,0.8-2,1.1c-0.8,0.2-1.5,0.4-2.3,0.4c-1.3,0-2.2-0.4-2.9-1.1c-0.6-0.7-1-1.8-1-3.1
				s0.2-2.5,0.6-3.5s0.9-1.9,1.5-2.6c0.6-0.7,1.3-1.3,2-1.7s1.5-0.6,2.3-0.6c0.6,0,1.1,0.1,1.5,0.2s0.8,0.4,1,0.6
				c0.3,0.3,0.5,0.6,0.6,0.9c0.1,0.3,0.2,0.7,0.2,1.1c0,1.1-0.6,2-1.7,2.7c-1.1,0.6-2.7,1-4.8,1c-0.2,0-0.4,0-0.6,0s-0.4,0-0.6,0
				c-0.1,0.3-0.1,0.6-0.1,0.9c0,0.3,0,0.5,0,0.7c0,0.9,0.2,1.6,0.6,2.1c0.4,0.6,1,0.8,1.9,0.8c0.7,0,1.3-0.1,1.9-0.3s1-0.5,1.4-0.7
				L1205,53.2z M1203,43.6c-0.9,0-1.6,0.3-2.3,0.9c-0.6,0.6-1.1,1.5-1.5,2.7c0.6,0,1.2,0,1.9,0c0.7,0,1.3-0.1,1.8-0.3
				c0.5-0.1,1-0.4,1.3-0.6s0.5-0.7,0.5-1.2c0-0.2,0-0.3-0.1-0.5s-0.1-0.3-0.3-0.5c-0.1-0.1-0.3-0.2-0.5-0.3
				C1203.6,43.7,1203.3,43.6,1203,43.6z"/>
			<path class="st23" d="M1213,51c0-0.4-0.1-0.8-0.3-1.1c-0.2-0.3-0.5-0.6-0.8-0.8s-0.7-0.5-1-0.7c-0.4-0.2-0.7-0.5-1-0.8
				s-0.6-0.6-0.8-1c-0.2-0.4-0.3-0.8-0.3-1.4c0-0.4,0.1-0.9,0.3-1.3s0.5-0.7,0.9-1s0.8-0.5,1.3-0.7s1.1-0.3,1.7-0.3
				c0.8,0,1.5,0.1,2,0.2c0.5,0.1,0.9,0.3,1.2,0.5l-0.6,1.4c-0.6-0.4-1.5-0.6-2.6-0.6c-0.7,0-1.2,0.1-1.7,0.4
				c-0.4,0.3-0.7,0.7-0.7,1.3c0,0.3,0.1,0.6,0.3,0.9s0.5,0.5,0.8,0.7s0.7,0.5,1,0.7c0.4,0.2,0.7,0.5,1,0.8s0.6,0.6,0.8,1
				c0.2,0.4,0.3,0.9,0.3,1.4c0,1.2-0.4,2.2-1.3,2.8c-0.8,0.6-2,1-3.4,1c-0.7,0-1.4-0.1-2-0.2c-0.6-0.1-1.1-0.3-1.5-0.6l0.7-1.5
				c0.3,0.2,0.7,0.4,1.3,0.5c0.5,0.1,1.1,0.2,1.6,0.2c0.8,0,1.4-0.2,1.9-0.5C1212.8,52.3,1213,51.7,1213,51z"/>
			<path class="st23" d="M1222.5,51c0-0.4-0.1-0.8-0.3-1.1c-0.2-0.3-0.5-0.6-0.8-0.8s-0.7-0.5-1-0.7s-0.7-0.5-1-0.8s-0.6-0.6-0.8-1
				c-0.2-0.4-0.3-0.8-0.3-1.4c0-0.4,0.1-0.9,0.3-1.3c0.2-0.4,0.5-0.7,0.9-1s0.8-0.5,1.3-0.7s1.1-0.3,1.7-0.3c0.8,0,1.5,0.1,2,0.2
				c0.5,0.1,0.9,0.3,1.2,0.5l-0.6,1.4c-0.6-0.4-1.5-0.6-2.6-0.6c-0.7,0-1.2,0.1-1.7,0.4c-0.4,0.3-0.7,0.7-0.7,1.3
				c0,0.3,0.1,0.6,0.3,0.9s0.5,0.5,0.8,0.7s0.7,0.5,1,0.7c0.4,0.2,0.7,0.5,1,0.8s0.6,0.6,0.8,1c0.2,0.4,0.3,0.9,0.3,1.4
				c0,1.2-0.4,2.2-1.3,2.8c-0.8,0.6-2,1-3.4,1c-0.7,0-1.4-0.1-2-0.2c-0.6-0.1-1.1-0.3-1.5-0.6l0.7-1.5c0.3,0.2,0.7,0.4,1.3,0.5
				c0.5,0.1,1.1,0.2,1.6,0.2c0.8,0,1.4-0.2,1.9-0.5C1222.3,52.3,1222.5,51.7,1222.5,51z"/>
		</g>
	</g>
	<line class="st24" x1="1015" y1="12.1" x2="1066" y2="12.1"/>
	<polygon class="st25" points="1024.3,23.6 1026.2,21.5 1016.1,12.1 1026.2,2.7 1024.3,0.7 1012,12.1 	"/>
</g>
</svg>
