<svg xmlns="http://www.w3.org/2000/svg" viewBox="0 0 1225.89 775.11"><defs><style>.cls-1,.cls-10,.cls-11,.cls-16,.cls-17,.cls-18,.cls-2,.cls-20,.cls-22,.cls-23,.cls-3,.cls-30,.cls-8,.cls-9{fill:none;}.cls-1,.cls-10,.cls-11,.cls-12,.cls-2{stroke:#33245e;}.cls-1,.cls-10,.cls-11,.cls-15,.cls-16,.cls-17,.cls-18,.cls-2,.cls-20,.cls-23,.cls-30,.cls-8,.cls-9{stroke-linecap:round;}.cls-1,.cls-10,.cls-11,.cls-15,.cls-16,.cls-2,.cls-23,.cls-30,.cls-8,.cls-9{stroke-linejoin:round;}.cls-1,.cls-17,.cls-18,.cls-2,.cls-20,.cls-21,.cls-22,.cls-3,.cls-8,.cls-9{stroke-width:6px;}.cls-1,.cls-7{opacity:0.39;}.cls-1,.cls-10,.cls-24,.cls-25,.cls-26,.cls-28,.cls-29,.cls-4,.cls-7{isolation:isolate;}.cls-3,.cls-9{stroke:#fc0;}.cls-12,.cls-17,.cls-18,.cls-20,.cls-21,.cls-22,.cls-3{stroke-miterlimit:10;}.cls-12,.cls-5{fill:#33245e;}.cls-6{fill:#f63;}.cls-17,.cls-21,.cls-22,.cls-23,.cls-8{stroke:#f63;}.cls-10,.cls-11,.cls-15,.cls-16,.cls-23,.cls-30{stroke-width:4px;}.cls-10{opacity:0.5;}.cls-12{stroke-width:2px;}.cls-13{fill:#326de6;}.cls-14,.cls-15,.cls-21{fill:#fff;}.cls-15,.cls-16,.cls-18{stroke:#906;}.cls-19{fill:#906;}.cls-20{stroke:#326de6;}.cls-24,.cls-25,.cls-26,.cls-28,.cls-29{font-size:24px;fill:#306;font-family:PTSans-Italic, PT Sans;font-style:italic;}.cls-24,.cls-27{letter-spacing:-0.06em;}.cls-26{letter-spacing:-0.06em;}.cls-28{letter-spacing:-0.05em;}.cls-29{letter-spacing:-0.08em;}.cls-30{stroke:#635384;}.cls-31{fill:#635384;}</style></defs><g id="Ebene_2" data-name="Ebene 2"><g id="Ebene_1-2" data-name="Ebene 1"><rect class="cls-1" x="3" y="3.29" width="728" height="768.82" rx="10"/><rect class="cls-2" x="73" y="80.11" width="521" height="512" rx="10"/><path class="cls-3" d="M525,304.82c0,6-4.28,10.83-9.56,10.83H116.56c-5.28,0-9.56-4.85-9.56-10.83V186.4c0-6,4.28-10.83,9.56-10.83H515.44c5.28,0,9.56,4.85,9.56,10.83Z"/><g class="cls-4"><g class="cls-4"><path class="cls-5" d="M97.19,574.6a6.87,6.87,0,0,1-3.75-1A6.73,6.73,0,0,1,91,570.8a9.33,9.33,0,0,1-.88-4.13v-.61a9.44,9.44,0,0,1,.85-4,6.62,6.62,0,0,1,6.26-3.86,8.32,8.32,0,0,1,3.36.63A6.88,6.88,0,0,1,103,560.5l.08,3.81h-2.26l-.5-2.77a3.68,3.68,0,0,0-1.24-.82,4.73,4.73,0,0,0-1.76-.3,3.55,3.55,0,0,0-2.26.76,5.06,5.06,0,0,0-1.52,2,7.24,7.24,0,0,0-.54,2.85v.61a8.23,8.23,0,0,0,.5,3,4.37,4.37,0,0,0,1.45,2,4,4,0,0,0,4.68-.1,3.47,3.47,0,0,0,1.19-2.22h2.59l0,.09a5.31,5.31,0,0,1-.8,2.55,5.38,5.38,0,0,1-2.09,1.91A6.89,6.89,0,0,1,97.19,574.6Z"/><path class="cls-5" d="M113.18,574.6a6.61,6.61,0,0,1-6.24-3.89,9.74,9.74,0,0,1-.86-4.17v-.32a9.74,9.74,0,0,1,.86-4.17,6.82,6.82,0,0,1,2.46-2.86,7.35,7.35,0,0,1,7.54,0,6.76,6.76,0,0,1,2.45,2.85,9.58,9.58,0,0,1,.87,4.18v.32a9.58,9.58,0,0,1-.87,4.18,6.69,6.69,0,0,1-2.44,2.85A6.82,6.82,0,0,1,113.18,574.6Zm0-2.26a3.56,3.56,0,0,0,2.31-.75,4.66,4.66,0,0,0,1.41-2.07,8.87,8.87,0,0,0,.47-3v-.32a8.83,8.83,0,0,0-.47-3,4.54,4.54,0,0,0-1.42-2.07,4,4,0,0,0-4.64,0,4.53,4.53,0,0,0-1.41,2.07,8.83,8.83,0,0,0-.47,3v.32a8.87,8.87,0,0,0,.47,3,4.6,4.6,0,0,0,1.42,2.07A3.64,3.64,0,0,0,113.18,572.34Z"/><path class="cls-5" d="M122.48,574.29v-1.85l2.39-.41V560.71l-2.39-.41v-1.86h5l.21,2.36a5.71,5.71,0,0,1,2-2,5.34,5.34,0,0,1,2.72-.69,5.18,5.18,0,0,1,4,1.5,6.56,6.56,0,0,1,1.4,4.63V572l2.39.41v1.85h-7.66v-1.85l2.39-.41v-7.69a4.3,4.3,0,0,0-.83-3,3.3,3.3,0,0,0-2.53-.88,4.06,4.06,0,0,0-2.2.6,4.39,4.39,0,0,0-1.53,1.64V572l2.39.41v1.85Z"/><path class="cls-5" d="M147.17,574.54a3.81,3.81,0,0,1-2.79-1,4.53,4.53,0,0,1-1-3.31v-9.62h-2.5v-2.14h2.5v-3.82h2.89v3.82h3.44v2.14h-3.44v9.62a2.63,2.63,0,0,0,.45,1.69,1.52,1.52,0,0,0,1.22.54,7,7,0,0,0,1.14-.1l1-.16.4,1.88a11.92,11.92,0,0,1-1.55.34A10.58,10.58,0,0,1,147.17,574.54Z"/><path class="cls-5" d="M157.39,574.6a5.33,5.33,0,0,1-3.76-1.21,4.45,4.45,0,0,1-1.29-3.41,4.27,4.27,0,0,1,.83-2.63,5.41,5.41,0,0,1,2.39-1.74,10.3,10.3,0,0,1,3.75-.62h2.83v-1.56a2.86,2.86,0,0,0-.87-2.22,3.52,3.52,0,0,0-2.46-.79,5.6,5.6,0,0,0-1.73.24,4.89,4.89,0,0,0-1.33.67l-.31,2.21h-2.22V559.9a7.59,7.59,0,0,1,2.49-1.31,10.66,10.66,0,0,1,3.15-.44,6.85,6.85,0,0,1,4.52,1.37,4.84,4.84,0,0,1,1.64,3.94v7.64c0,.2,0,.4,0,.6s0,.39,0,.58l1.54.16v1.85h-4.15c-.09-.43-.16-.82-.2-1.16s-.09-.68-.11-1a7.07,7.07,0,0,1-2.08,1.78A5.4,5.4,0,0,1,157.39,574.6Zm.43-2.42a5.13,5.13,0,0,0,2.62-.69,4.29,4.29,0,0,0,1.7-1.65V567h-2.93a4.15,4.15,0,0,0-3,1,2.89,2.89,0,0,0-1,2.12,2,2,0,0,0,.65,1.59A2.93,2.93,0,0,0,157.82,572.18Z"/><path class="cls-5" d="M168.74,574.29v-1.85l2.39-.41V560.71l-2.39-.41v-1.86H174V572l2.39.41v1.85ZM171,554.53v-3.09h3v3.09Z"/></g><g class="cls-4"><path class="cls-5" d="M179,574.29v-1.85l2.39-.41V560.71L179,560.3v-1.86h5l.2,2.36a5.82,5.82,0,0,1,2-2,5.34,5.34,0,0,1,2.72-.69,5.18,5.18,0,0,1,4,1.5,6.61,6.61,0,0,1,1.4,4.63V572l2.39.41v1.85H189v-1.85l2.39-.41v-7.69a4.3,4.3,0,0,0-.83-3,3.3,3.3,0,0,0-2.53-.88,4.06,4.06,0,0,0-2.2.6,4.39,4.39,0,0,0-1.53,1.64V572l2.39.41v1.85Z"/></g><g class="cls-4"><path class="cls-5" d="M205.15,574.6a7.15,7.15,0,0,1-3.83-1,6.73,6.73,0,0,1-2.51-2.79,9.19,9.19,0,0,1-.89-4.13V566a8.59,8.59,0,0,1,.93-4,7.45,7.45,0,0,1,2.48-2.81,6,6,0,0,1,3.38-1,6.74,6.74,0,0,1,3.58.88,5.48,5.48,0,0,1,2.17,2.46,8.86,8.86,0,0,1,.74,3.75V567H200.91l0,.07a7.25,7.25,0,0,0,.53,2.7,4.33,4.33,0,0,0,1.46,1.86,3.87,3.87,0,0,0,2.29.67,7.25,7.25,0,0,0,2.57-.42,6,6,0,0,0,1.91-1.15l1.13,1.88a6.84,6.84,0,0,1-2.25,1.38A9,9,0,0,1,205.15,574.6ZM201,564.78h7.31v-.38a4.92,4.92,0,0,0-.4-2,3.21,3.21,0,0,0-1.2-1.42,3.59,3.59,0,0,0-2-.52A3,3,0,0,0,203,561a4.48,4.48,0,0,0-1.31,1.53,6.58,6.58,0,0,0-.67,2.2Z"/><path class="cls-5" d="M213.41,574.29v-1.85l2.38-.41V560.71l-2.38-.41v-1.86h5l.25,2,0,.28a5.57,5.57,0,0,1,1.66-1.91,3.94,3.94,0,0,1,2.27-.68,5,5,0,0,1,.93.08,4.28,4.28,0,0,1,.68.15l-.38,2.68-2-.12a2.84,2.84,0,0,0-1.92.52,3.86,3.86,0,0,0-1.2,1.59v9l2.39.41v1.85Z"/></g></g><g class="cls-4"><g class="cls-4"><path class="cls-6" d="M61.74,666.29l-7.15-19.23-1.7-.24V645h6.74v1.86l-2,.31,4.78,13.56.5,1.69H63l.53-1.69,4.95-13.58-2.17-.29V645h6.73v1.86l-1.72.24-7.14,19.23Z"/><path class="cls-6" d="M75.41,666.29v-1.85l2.38-.41v-16.8l-2.38-.41V645h6.24l6.87,16.19h.08L95.26,645h6.43v1.86l-2.39.41V664l2.39.41v1.85H94v-1.85l2.52-.41V648.9h-.07l-6.93,16.64H87.62l-7.16-16.61h-.07l.1,8.92V664l2.58.41v1.85Z"/><path class="cls-6" d="M119.41,673.07a10.3,10.3,0,0,1-2.56-2.07,16,16,0,0,1-2.33-3.37,19.58,19.58,0,0,1-1.69-4.48,21.41,21.41,0,0,1-.64-5.39v-.13a21.37,21.37,0,0,1,.64-5.37,19.84,19.84,0,0,1,1.69-4.49,16.33,16.33,0,0,1,2.33-3.38,9.87,9.87,0,0,1,2.56-2.07l.09,0L120,644a9.7,9.7,0,0,0-1.9,2.05,14.3,14.3,0,0,0-1.59,3,20.74,20.74,0,0,0-1.08,3.86,26,26,0,0,0-.4,4.68v.19a26.2,26.2,0,0,0,.4,4.69,20,20,0,0,0,1.08,3.86,14.42,14.42,0,0,0,1.58,3,11.2,11.2,0,0,0,1.91,2.14l-.54,1.58Z"/><path class="cls-6" d="M128.52,666.6a7.12,7.12,0,0,1-3.82-1,6.66,6.66,0,0,1-2.51-2.79,9.19,9.19,0,0,1-.89-4.13V658a8.59,8.59,0,0,1,.93-4,7.45,7.45,0,0,1,2.48-2.81,5.92,5.92,0,0,1,3.37-1,6.71,6.71,0,0,1,3.58.88,5.44,5.44,0,0,1,2.18,2.46,8.87,8.87,0,0,1,.73,3.75V659H124.29l-.05.07a7.06,7.06,0,0,0,.54,2.7,4.26,4.26,0,0,0,1.46,1.86,3.82,3.82,0,0,0,2.28.67,7.17,7.17,0,0,0,2.57-.42,5.8,5.8,0,0,0,1.91-1.15l1.13,1.88a6.63,6.63,0,0,1-2.25,1.38A8.88,8.88,0,0,1,128.52,666.6Zm-4.14-9.82h7.31v-.38a4.92,4.92,0,0,0-.41-2,3.21,3.21,0,0,0-1.2-1.42,3.56,3.56,0,0,0-2-.52,3,3,0,0,0-1.76.56,4.45,4.45,0,0,0-1.3,1.53,6.36,6.36,0,0,0-.67,2.2Z"/></g><g class="cls-4"><path class="cls-6" d="M136.15,666.29v-1.85l2.39-.41V652.71l-2.39-.41v-1.86h5l.2,2.36a5.82,5.82,0,0,1,2-2,5.34,5.34,0,0,1,2.72-.69,5.18,5.18,0,0,1,4,1.5,6.61,6.61,0,0,1,1.4,4.63V664l2.39.41v1.85h-7.66v-1.85l2.39-.41v-7.69a4.3,4.3,0,0,0-.83-3,3.3,3.3,0,0,0-2.53-.88,4.06,4.06,0,0,0-2.2.6,4.39,4.39,0,0,0-1.53,1.64V664l2.38.41v1.85Z"/></g><g class="cls-4"><path class="cls-6" d="M162.22,666.6a6.87,6.87,0,0,1-3.75-1A6.73,6.73,0,0,1,156,662.8a9.33,9.33,0,0,1-.88-4.13v-.61a9.44,9.44,0,0,1,.85-4,6.62,6.62,0,0,1,6.26-3.86,8.32,8.32,0,0,1,3.36.63A6.88,6.88,0,0,1,168,652.5l.08,3.81h-2.26l-.5-2.77a3.68,3.68,0,0,0-1.24-.82,4.73,4.73,0,0,0-1.76-.3,3.55,3.55,0,0,0-2.26.76,5.06,5.06,0,0,0-1.52,2,7.24,7.24,0,0,0-.54,2.85v.61a8.23,8.23,0,0,0,.5,3,4.37,4.37,0,0,0,1.45,2,4,4,0,0,0,4.68-.1,3.47,3.47,0,0,0,1.19-2.22h2.59l0,.09a5.31,5.31,0,0,1-.8,2.55,5.38,5.38,0,0,1-2.09,1.91A6.89,6.89,0,0,1,162.22,666.6Z"/></g><g class="cls-4"><path class="cls-6" d="M170.82,666.29v-1.85l2.39-.41V652.71l-2.39-.41v-1.86h5l.25,2,0,.28a5.57,5.57,0,0,1,1.66-1.91,3.94,3.94,0,0,1,2.26-.68,4.87,4.87,0,0,1,.93.08,4.2,4.2,0,0,1,.69.15l-.38,2.68-2-.12a2.84,2.84,0,0,0-1.92.52,3.86,3.86,0,0,0-1.2,1.59v9l2.39.41v1.85Z"/></g><g class="cls-4"><path class="cls-6" d="M187.19,672.69a6.76,6.76,0,0,1-.88-.08c-.36-.05-.64-.11-.84-.15l.3-2.27.68,0,.6,0a1.89,1.89,0,0,0,1.51-.7,7.67,7.67,0,0,0,1.07-1.92l.69-1.67-5.61-13.44-1.7-.23v-1.86h6.65v1.86l-1.92.29,3.09,7.93.75,2.06h.09l3.66-10-2-.29v-1.86h6.52v1.86l-1.64.23L192,668.72a10.3,10.3,0,0,1-1.06,2,4.59,4.59,0,0,1-1.53,1.42A4.33,4.33,0,0,1,187.19,672.69Z"/><path class="cls-6" d="M200.77,672.38v-1.86l2.24-.41v-17.4l-2.39-.41v-1.86h4.86l.27,1.93a5.31,5.31,0,0,1,1.92-1.65,5.82,5.82,0,0,1,2.63-.57,5.37,5.37,0,0,1,3.36,1.06,6.69,6.69,0,0,1,2.12,3,12.49,12.49,0,0,1,.73,4.48v.3a9.88,9.88,0,0,1-.74,4,6.12,6.12,0,0,1-2.11,2.68,5.66,5.66,0,0,1-3.31,1,6.45,6.45,0,0,1-2.58-.49,5.12,5.12,0,0,1-1.88-1.46v5.46l2.52.41v1.86Zm8.68-8a3.58,3.58,0,0,0,3.11-1.49,6.63,6.63,0,0,0,1.05-3.89v-.3a9.76,9.76,0,0,0-.47-3.2,4.77,4.77,0,0,0-1.4-2.18,3.44,3.44,0,0,0-2.32-.79,3.88,3.88,0,0,0-2.11.56,4.24,4.24,0,0,0-1.42,1.52v7.72a3.77,3.77,0,0,0,3.56,2.05Z"/><path class="cls-6" d="M224.33,666.54a3.81,3.81,0,0,1-2.79-1,4.57,4.57,0,0,1-1-3.31v-9.62H218v-2.14h2.5v-3.82h2.89v3.82h3.44v2.14H223.4v9.62a2.63,2.63,0,0,0,.45,1.69,1.51,1.51,0,0,0,1.22.54,7,7,0,0,0,1.14-.1l1-.16.4,1.88a11.92,11.92,0,0,1-1.55.34A10.61,10.61,0,0,1,224.33,666.54Z"/><path class="cls-6" d="M236.36,666.6a7.12,7.12,0,0,1-3.82-1A6.66,6.66,0,0,1,230,662.8a9.19,9.19,0,0,1-.89-4.13V658a8.59,8.59,0,0,1,.93-4,7.45,7.45,0,0,1,2.48-2.81,5.92,5.92,0,0,1,3.37-1,6.71,6.71,0,0,1,3.58.88,5.44,5.44,0,0,1,2.18,2.46,8.87,8.87,0,0,1,.73,3.75V659H232.13l0,.07a7.06,7.06,0,0,0,.54,2.7,4.26,4.26,0,0,0,1.46,1.86,3.82,3.82,0,0,0,2.28.67,7.21,7.21,0,0,0,2.57-.42,5.8,5.8,0,0,0,1.91-1.15l1.13,1.88a6.63,6.63,0,0,1-2.25,1.38A8.88,8.88,0,0,1,236.36,666.6Zm-4.14-9.82h7.31v-.38a4.92,4.92,0,0,0-.41-2,3.21,3.21,0,0,0-1.2-1.42,3.56,3.56,0,0,0-2-.52,3,3,0,0,0-1.76.56,4.45,4.45,0,0,0-1.3,1.53,6.36,6.36,0,0,0-.67,2.2Z"/><path class="cls-6" d="M251.46,666.6a5.64,5.64,0,0,1-3.31-1A6,6,0,0,1,246,663a10.06,10.06,0,0,1-.73-4v-.3a12.47,12.47,0,0,1,.73-4.47,6.66,6.66,0,0,1,2.12-3,5.33,5.33,0,0,1,3.34-1.06,5.63,5.63,0,0,1,2.49.52,5,5,0,0,1,1.83,1.5v-6.46l-2.38-.41v-1.86h5.27V664l2.39.41v1.85H256.2L256,664.4a5.13,5.13,0,0,1-1.9,1.64A5.76,5.76,0,0,1,251.46,666.6Zm.74-2.35a3.78,3.78,0,0,0,2.16-.58,4.46,4.46,0,0,0,1.45-1.66v-7.35a4.34,4.34,0,0,0-1.45-1.58,3.78,3.78,0,0,0-2.13-.59,3.31,3.31,0,0,0-2.27.78,4.79,4.79,0,0,0-1.34,2.17,10.81,10.81,0,0,0-.44,3.22v.3a6.74,6.74,0,0,0,1,3.84A3.42,3.42,0,0,0,252.2,664.25Z"/><path class="cls-6" d="M262.7,673.07l-.54-1.58a9.7,9.7,0,0,0,1.89-2,14.88,14.88,0,0,0,1.58-3,21.06,21.06,0,0,0,1.09-3.91,25.91,25.91,0,0,0,.4-4.73v-.19a25.26,25.26,0,0,0-.41-4.66,21.24,21.24,0,0,0-1.13-3.89,15.44,15.44,0,0,0-1.58-3,10.54,10.54,0,0,0-1.84-2.1l.54-1.59h.09a9.67,9.67,0,0,1,2.55,2.07,16.72,16.72,0,0,1,2.33,3.38,19.85,19.85,0,0,1,1.7,4.49,21.37,21.37,0,0,1,.64,5.37v.13a21.41,21.41,0,0,1-.64,5.39,19.59,19.59,0,0,1-1.7,4.48,16.36,16.36,0,0,1-2.33,3.37,10.09,10.09,0,0,1-2.55,2.07Z"/></g></g><g class="cls-7"><g class="cls-4"><path class="cls-5" d="M18.66,754.29v-1.85l2.39-.41V733.71l-2.39-.41v-1.86h5.27v9.11a5.86,5.86,0,0,1,2-1.77,5.52,5.52,0,0,1,2.63-.63,5.11,5.11,0,0,1,4,1.52,6.73,6.73,0,0,1,1.41,4.69V752l2.38.41v1.85H28.66v-1.85l2.39-.41v-7.7a4.24,4.24,0,0,0-.84-2.9,3.19,3.19,0,0,0-2.51-.94,4.24,4.24,0,0,0-2.16.56,4.8,4.8,0,0,0-1.61,1.53V752l2.39.41v1.85Z"/></g><g class="cls-4"><path class="cls-5" d="M45.12,754.6a6.79,6.79,0,0,1-3.79-1,6.7,6.7,0,0,1-2.45-2.85,9.6,9.6,0,0,1-.87-4.17v-.32a9.6,9.6,0,0,1,.87-4.17,6.73,6.73,0,0,1,2.45-2.86,7.35,7.35,0,0,1,7.54,0A6.85,6.85,0,0,1,51.33,742a9.72,9.72,0,0,1,.86,4.18v.32a9.72,9.72,0,0,1-.86,4.18,6.71,6.71,0,0,1-2.45,2.85A6.79,6.79,0,0,1,45.12,754.6Zm0-2.26a3.53,3.53,0,0,0,2.3-.75,4.66,4.66,0,0,0,1.41-2.07,8.62,8.62,0,0,0,.48-3v-.32a8.59,8.59,0,0,0-.48-3,4.61,4.61,0,0,0-1.41-2.07,4,4,0,0,0-4.65,0,4.51,4.51,0,0,0-1.4,2.07,8.59,8.59,0,0,0-.47,3v.32a8.63,8.63,0,0,0,.47,3,4.51,4.51,0,0,0,1.41,2.07A3.65,3.65,0,0,0,45.12,752.34Z"/><path class="cls-5" d="M60.83,754.6a12.83,12.83,0,0,1-3-.33,16.85,16.85,0,0,1-3-1l0-3.77H57l.54,2.27a9,9,0,0,0,1.59.5,8.76,8.76,0,0,0,1.66.15,3.74,3.74,0,0,0,2.52-.68,2.12,2.12,0,0,0,.77-1.67,2,2,0,0,0-.77-1.58,6.81,6.81,0,0,0-2.79-1.11,10.39,10.39,0,0,1-4.23-1.77,3.61,3.61,0,0,1-1.35-3,3.74,3.74,0,0,1,.74-2.3,5.11,5.11,0,0,1,2.08-1.62,7.54,7.54,0,0,1,3.11-.6,10,10,0,0,1,3.08.41,7.8,7.8,0,0,1,2.24,1.1l.14,3.61H64.2l-.46-2.11a3.83,3.83,0,0,0-1.22-.58,5.66,5.66,0,0,0-1.61-.21,3.56,3.56,0,0,0-2.19.63,1.91,1.91,0,0,0-.84,1.58,1.86,1.86,0,0,0,.24,1,2,2,0,0,0,.93.74,10.44,10.44,0,0,0,2,.65,10.58,10.58,0,0,1,4.62,2,3.87,3.87,0,0,1,1.31,3,4.35,4.35,0,0,1-1.48,3.36A6.81,6.81,0,0,1,60.83,754.6Z"/><path class="cls-5" d="M75,754.54a3.82,3.82,0,0,1-2.8-1,4.57,4.57,0,0,1-1-3.31v-9.62h-2.5v-2.14h2.5v-3.82h2.89v3.82h3.44v2.14H74.05v9.62a2.63,2.63,0,0,0,.45,1.69,1.51,1.51,0,0,0,1.22.54,7,7,0,0,0,1.14-.1l1-.16.4,1.88a11.92,11.92,0,0,1-1.55.34A10.58,10.58,0,0,1,75,754.54Z"/></g></g><rect class="cls-8" x="37.92" y="41.29" width="623.08" height="642.82" rx="10"/><g class="cls-4"><g class="cls-4"><path class="cls-5" d="M132.5,300.6a13,13,0,0,1-3-.33,17.13,17.13,0,0,1-3-1l0-3.77h2.19l.54,2.27a7.78,7.78,0,0,0,3.25.65,3.84,3.84,0,0,0,2.52-.67,2.14,2.14,0,0,0,.76-1.67,2,2,0,0,0-.77-1.59,6.68,6.68,0,0,0-2.79-1.11,10.55,10.55,0,0,1-4.22-1.76,3.62,3.62,0,0,1-1.36-3,3.77,3.77,0,0,1,.75-2.3,5.11,5.11,0,0,1,2.08-1.62,7.49,7.49,0,0,1,3.1-.6,10.06,10.06,0,0,1,3.09.41,7.74,7.74,0,0,1,2.23,1.1l.15,3.61h-2.17l-.47-2.11a3.94,3.94,0,0,0-1.22-.58,5.56,5.56,0,0,0-1.61-.21,3.56,3.56,0,0,0-2.19.63,1.91,1.91,0,0,0-.84,1.59,1.85,1.85,0,0,0,.24,1,2,2,0,0,0,.93.74,10.68,10.68,0,0,0,2,.65,10.69,10.69,0,0,1,4.63,2,3.87,3.87,0,0,1,1.31,3,4.36,4.36,0,0,1-1.49,3.36A6.76,6.76,0,0,1,132.5,300.6Z"/><path class="cls-5" d="M148.28,300.6a7.15,7.15,0,0,1-3.83-1,6.67,6.67,0,0,1-2.51-2.79,9.19,9.19,0,0,1-.89-4.13V292a8.59,8.59,0,0,1,.93-4,7.53,7.53,0,0,1,2.48-2.81,6,6,0,0,1,3.38-1,6.74,6.74,0,0,1,3.58.88,5.47,5.47,0,0,1,2.17,2.46,8.86,8.86,0,0,1,.74,3.75V293H144l0,.07a7.25,7.25,0,0,0,.53,2.7,4.33,4.33,0,0,0,1.46,1.86,3.87,3.87,0,0,0,2.29.67,7.25,7.25,0,0,0,2.57-.42,5.84,5.84,0,0,0,1.91-1.15l1.13,1.88a6.84,6.84,0,0,1-2.25,1.38A8.91,8.91,0,0,1,148.28,300.6Zm-4.15-9.82h7.31v-.38a4.92,4.92,0,0,0-.4-2,3.21,3.21,0,0,0-1.2-1.42,3.59,3.59,0,0,0-2-.52,3,3,0,0,0-1.76.56,4.35,4.35,0,0,0-1.3,1.53,6.37,6.37,0,0,0-.68,2.2Z"/></g><g class="cls-4"><path class="cls-5" d="M157.47,300.29v-1.85l2.39-.41V286.71l-2.39-.41v-1.86h5l.25,2,0,.28a5.44,5.44,0,0,1,1.66-1.9,3.85,3.85,0,0,1,2.26-.69,4.87,4.87,0,0,1,.93.08,4.2,4.2,0,0,1,.69.15l-.38,2.68-2-.12a2.8,2.8,0,0,0-1.92.53,3.77,3.77,0,0,0-1.2,1.58v9l2.39.41v1.85Z"/></g><g class="cls-4"><path class="cls-5" d="M177,300.29l-5.64-13.77-1.64-.22v-1.86h6.65v1.86l-2.06.29,3.51,9,.41,1.27h.09l.47-1.27,3.26-9-2.12-.29v-1.86h6.64v1.86l-1.67.22-5.36,13.77Z"/><path class="cls-5" d="M188,300.29v-1.85l2.39-.41V286.71L188,286.3v-1.86h5.27V298l2.39.41v1.85Zm2.24-19.76v-3.09h3v3.09Z"/><path class="cls-5" d="M204.77,300.6a6.92,6.92,0,0,1-3.75-1,6.64,6.64,0,0,1-2.47-2.79,9.19,9.19,0,0,1-.88-4.13v-.61a9.29,9.29,0,0,1,.85-4.05,6.62,6.62,0,0,1,6.25-3.86,8.41,8.41,0,0,1,3.37.63,6.78,6.78,0,0,1,2.42,1.73l.07,3.8h-2.25l-.5-2.76a3.44,3.44,0,0,0-1.25-.82,4.45,4.45,0,0,0-1.75-.31,3.57,3.57,0,0,0-2.27.76,5,5,0,0,0-1.51,2,7.15,7.15,0,0,0-.54,2.84v.61a8.11,8.11,0,0,0,.5,3,4.48,4.48,0,0,0,1.45,2,4.05,4.05,0,0,0,4.68-.11,3.47,3.47,0,0,0,1.19-2.22H211l0,.09a5.34,5.34,0,0,1-2.89,4.46A7,7,0,0,1,204.77,300.6Z"/><path class="cls-5" d="M220.83,300.6a7.09,7.09,0,0,1-3.82-1,6.62,6.62,0,0,1-2.52-2.79,9.19,9.19,0,0,1-.88-4.13V292a8.59,8.59,0,0,1,.93-4,7.5,7.5,0,0,1,2.47-2.81,6,6,0,0,1,3.38-1A6.74,6.74,0,0,1,224,285a5.55,5.55,0,0,1,2.18,2.46,9,9,0,0,1,.73,3.75V293H216.6l0,.07a7.06,7.06,0,0,0,.54,2.7,4.24,4.24,0,0,0,1.45,1.86,3.87,3.87,0,0,0,2.29.67,7.21,7.21,0,0,0,2.57-.42,5.73,5.73,0,0,0,1.91-1.15l1.13,1.88a6.84,6.84,0,0,1-2.25,1.38A8.88,8.88,0,0,1,220.83,300.6Zm-4.15-9.82H224v-.38a4.92,4.92,0,0,0-.4-2,3.21,3.21,0,0,0-1.2-1.42,3.56,3.56,0,0,0-2-.52,3,3,0,0,0-1.76.56,4.35,4.35,0,0,0-1.3,1.53,6.59,6.59,0,0,0-.68,2.2Z"/><path class="cls-5" d="M244.38,307.07a10.09,10.09,0,0,1-2.55-2.07,15.64,15.64,0,0,1-2.34-3.37,20.05,20.05,0,0,1-1.69-4.48,21.41,21.41,0,0,1-.64-5.39v-.13a21.37,21.37,0,0,1,.64-5.37,20.33,20.33,0,0,1,1.69-4.49,16,16,0,0,1,2.34-3.38,9.67,9.67,0,0,1,2.55-2.07l.09,0L245,278a9.7,9.7,0,0,0-1.9,2,14.28,14.28,0,0,0-1.58,3,20.72,20.72,0,0,0-1.09,3.86,26,26,0,0,0-.39,4.68v.19a26.16,26.16,0,0,0,.39,4.69,21.54,21.54,0,0,0,1.08,3.86,14.42,14.42,0,0,0,1.58,3,11.2,11.2,0,0,0,1.91,2.14l-.54,1.58Z"/><path class="cls-5" d="M245.83,306.38v-1.86l2.24-.41v-17.4l-2.38-.41v-1.86h4.86l.26,1.93a5.34,5.34,0,0,1,1.93-1.65,5.79,5.79,0,0,1,2.63-.57,5.32,5.32,0,0,1,3.35,1.06,6.63,6.63,0,0,1,2.13,3,12.49,12.49,0,0,1,.73,4.48V293a10,10,0,0,1-.74,4,6.07,6.07,0,0,1-2.12,2.68,5.62,5.62,0,0,1-3.31,1,6.44,6.44,0,0,1-2.57-.49,5.12,5.12,0,0,1-1.88-1.46v5.46l2.52.41v1.86Zm8.69-8a3.58,3.58,0,0,0,3.11-1.49,6.61,6.61,0,0,0,1.05-3.88v-.31a10,10,0,0,0-.47-3.2,4.77,4.77,0,0,0-1.4-2.18,3.44,3.44,0,0,0-2.32-.79,3.88,3.88,0,0,0-2.11.56,4.24,4.24,0,0,0-1.42,1.52v7.72a4.06,4.06,0,0,0,1.41,1.52A4.13,4.13,0,0,0,254.52,298.34Z"/></g><g class="cls-4"><path class="cls-5" d="M264.46,300.29v-1.85l2.39-.41V286.71l-2.39-.41v-1.86h5l.25,2,0,.28a5.44,5.44,0,0,1,1.66-1.9,3.87,3.87,0,0,1,2.26-.69,4.87,4.87,0,0,1,.93.08,4.2,4.2,0,0,1,.69.15l-.38,2.68-2-.12a2.8,2.8,0,0,0-1.92.53,3.77,3.77,0,0,0-1.2,1.58v9l2.39.41v1.85Z"/></g><g class="cls-4"><path class="cls-5" d="M284,300.6a6.79,6.79,0,0,1-3.79-1,6.7,6.7,0,0,1-2.45-2.85,9.6,9.6,0,0,1-.87-4.17v-.32a9.6,9.6,0,0,1,.87-4.17,6.73,6.73,0,0,1,2.45-2.86,7.35,7.35,0,0,1,7.54,0,6.85,6.85,0,0,1,2.46,2.85,9.72,9.72,0,0,1,.86,4.18v.32a9.72,9.72,0,0,1-.86,4.18A6.55,6.55,0,0,1,284,300.6Zm0-2.26a3.53,3.53,0,0,0,2.3-.75,4.66,4.66,0,0,0,1.41-2.07,8.62,8.62,0,0,0,.48-3v-.32a8.59,8.59,0,0,0-.48-3,4.66,4.66,0,0,0-1.41-2.07,4,4,0,0,0-4.65,0,4.57,4.57,0,0,0-1.4,2.07,8.59,8.59,0,0,0-.47,3v.32a8.63,8.63,0,0,0,.47,3,4.51,4.51,0,0,0,1.41,2.07A3.65,3.65,0,0,0,284,298.34Z"/><path class="cls-5" d="M301,300.6a6.92,6.92,0,0,1-3.75-1,6.64,6.64,0,0,1-2.47-2.79,9.19,9.19,0,0,1-.88-4.13v-.61a9.29,9.29,0,0,1,.85-4.05,6.62,6.62,0,0,1,6.25-3.86,8.41,8.41,0,0,1,3.37.63,6.78,6.78,0,0,1,2.42,1.73l.07,3.8h-2.25l-.5-2.76a3.44,3.44,0,0,0-1.25-.82,4.45,4.45,0,0,0-1.75-.31,3.57,3.57,0,0,0-2.27.76,5,5,0,0,0-1.51,2,7.15,7.15,0,0,0-.54,2.84v.61a8.11,8.11,0,0,0,.5,3,4.48,4.48,0,0,0,1.45,2,4.05,4.05,0,0,0,4.68-.11,3.47,3.47,0,0,0,1.19-2.22h2.59l0,.09a5.34,5.34,0,0,1-2.89,4.46A7,7,0,0,1,301,300.6Z"/><path class="cls-5" d="M317,300.6a7.09,7.09,0,0,1-3.82-1,6.62,6.62,0,0,1-2.52-2.79,9.19,9.19,0,0,1-.88-4.13V292a8.59,8.59,0,0,1,.93-4,7.5,7.5,0,0,1,2.47-2.81,6,6,0,0,1,3.38-1,6.71,6.71,0,0,1,3.58.88,5.55,5.55,0,0,1,2.18,2.46,9,9,0,0,1,.73,3.75V293H312.8l-.05.07a7.06,7.06,0,0,0,.54,2.7,4.24,4.24,0,0,0,1.45,1.86,3.87,3.87,0,0,0,2.29.67,7.21,7.21,0,0,0,2.57-.42,5.73,5.73,0,0,0,1.91-1.15l1.13,1.88a6.84,6.84,0,0,1-2.25,1.38A8.88,8.88,0,0,1,317,300.6Zm-4.15-9.82h7.31v-.38a4.92,4.92,0,0,0-.4-2,3.21,3.21,0,0,0-1.2-1.42,3.56,3.56,0,0,0-2-.52,3,3,0,0,0-1.76.56,4.35,4.35,0,0,0-1.3,1.53,6.59,6.59,0,0,0-.68,2.2Z"/><path class="cls-5" d="M331.81,300.6a13,13,0,0,1-3-.33,17.13,17.13,0,0,1-3-1l0-3.77H328l.54,2.27a7.78,7.78,0,0,0,3.25.65,3.84,3.84,0,0,0,2.52-.67,2.14,2.14,0,0,0,.76-1.67,2,2,0,0,0-.77-1.59,6.68,6.68,0,0,0-2.79-1.11,10.55,10.55,0,0,1-4.22-1.76,3.62,3.62,0,0,1-1.36-3,3.77,3.77,0,0,1,.75-2.3,5.11,5.11,0,0,1,2.08-1.62,7.49,7.49,0,0,1,3.1-.6,10.06,10.06,0,0,1,3.09.41,7.74,7.74,0,0,1,2.23,1.1l.15,3.61h-2.17l-.47-2.11a3.94,3.94,0,0,0-1.22-.58,5.56,5.56,0,0,0-1.61-.21,3.56,3.56,0,0,0-2.19.63,1.91,1.91,0,0,0-.84,1.59,1.85,1.85,0,0,0,.24,1,2,2,0,0,0,.93.74,10.68,10.68,0,0,0,2,.65,10.69,10.69,0,0,1,4.63,2,3.87,3.87,0,0,1,1.31,3,4.36,4.36,0,0,1-1.49,3.36A6.76,6.76,0,0,1,331.81,300.6Z"/><path class="cls-5" d="M346.78,300.6a13,13,0,0,1-3-.33,17.13,17.13,0,0,1-3-1l0-3.77H343l.54,2.27a8.79,8.79,0,0,0,1.59.5,8.61,8.61,0,0,0,1.66.15,3.84,3.84,0,0,0,2.52-.67,2.14,2.14,0,0,0,.76-1.67,2,2,0,0,0-.77-1.59,6.68,6.68,0,0,0-2.79-1.11,10.55,10.55,0,0,1-4.22-1.76,3.62,3.62,0,0,1-1.36-3,3.77,3.77,0,0,1,.75-2.3,5.11,5.11,0,0,1,2.08-1.62,7.49,7.49,0,0,1,3.1-.6,10.06,10.06,0,0,1,3.09.41,7.74,7.74,0,0,1,2.23,1.1l.15,3.61h-2.17l-.47-2.11a3.94,3.94,0,0,0-1.22-.58,5.56,5.56,0,0,0-1.61-.21,3.6,3.6,0,0,0-2.19.63,1.91,1.91,0,0,0-.84,1.59,1.85,1.85,0,0,0,.24,1,2,2,0,0,0,.93.74,10.68,10.68,0,0,0,2,.65,10.69,10.69,0,0,1,4.63,2,3.87,3.87,0,0,1,1.31,3,4.36,4.36,0,0,1-1.49,3.36A6.76,6.76,0,0,1,346.78,300.6Z"/><path class="cls-5" d="M355,307.07l-.54-1.58a9.2,9.2,0,0,0,1.89-2.05,14.39,14.39,0,0,0,1.58-3,21,21,0,0,0,1.1-3.91,26.83,26.83,0,0,0,.4-4.73v-.19a24.39,24.39,0,0,0-.42-4.66,21.25,21.25,0,0,0-1.12-3.89,16,16,0,0,0-1.59-3,10.2,10.2,0,0,0-1.84-2.1l.54-1.59H355a9.67,9.67,0,0,1,2.55,2.07,16.74,16.74,0,0,1,2.34,3.38,20.34,20.34,0,0,1,1.7,4.49,21.84,21.84,0,0,1,.63,5.37v.13a21.89,21.89,0,0,1-.63,5.39,20.06,20.06,0,0,1-1.7,4.48,16.38,16.38,0,0,1-2.34,3.37,10.09,10.09,0,0,1-2.55,2.07Z"/></g></g><g class="cls-4"><path class="cls-5" d="M177.18,453.29v-1.85l2.38-.41V439.58h-2.47v-2.14h2.47v-1.71a5.38,5.38,0,0,1,1.57-4.13,6.1,6.1,0,0,1,4.34-1.47,8.48,8.48,0,0,1,1.93.23c.65.16,1.39.38,2.23.66l-.48,2.35a12.91,12.91,0,0,0-1.66-.53,7.27,7.27,0,0,0-1.8-.22,3.38,3.38,0,0,0-2.48.76,3.19,3.19,0,0,0-.76,2.35v1.71h9V451l2.39.41v1.85h-7.66v-1.85l2.38-.41V439.58h-6.15V451l2.39.41v1.85Z"/><path class="cls-5" d="M195.52,453.29v-1.85l2.38-.41V432.71l-2.38-.41v-1.86h5.27V451l2.39.41v1.85Z"/><path class="cls-5" d="M212.16,453.6a7.15,7.15,0,0,1-3.83-1,6.67,6.67,0,0,1-2.51-2.79,9.19,9.19,0,0,1-.88-4.13V445a8.59,8.59,0,0,1,.93-4,7.5,7.5,0,0,1,2.47-2.81,6,6,0,0,1,3.38-1,6.74,6.74,0,0,1,3.58.88,5.55,5.55,0,0,1,2.18,2.46,9,9,0,0,1,.73,3.75V446H207.92l0,.07a7.06,7.06,0,0,0,.54,2.7,4.24,4.24,0,0,0,1.45,1.86,3.87,3.87,0,0,0,2.29.67,7.25,7.25,0,0,0,2.57-.42,5.73,5.73,0,0,0,1.91-1.15l1.13,1.88a6.84,6.84,0,0,1-2.25,1.38A8.88,8.88,0,0,1,212.16,453.6ZM208,443.78h7.31v-.38a4.92,4.92,0,0,0-.4-2,3.21,3.21,0,0,0-1.2-1.42,3.56,3.56,0,0,0-2-.52A3,3,0,0,0,210,440a4.35,4.35,0,0,0-1.3,1.53,6.37,6.37,0,0,0-.68,2.2Z"/></g><path class="cls-9" d="M261,383.46H115a5,5,0,0,0-5,5v94.2a5,5,0,0,0,5,5H291a5,5,0,0,0,5-5V416.11"/><polygon class="cls-9" points="296 416.11 261 416.11 261 383.46 296 416.11"/><g class="cls-4"><path class="cls-5" d="M408.18,453.29v-1.85l2.38-.41V439.58h-2.47v-2.14h2.47v-1.71a5.38,5.38,0,0,1,1.57-4.13,6.1,6.1,0,0,1,4.34-1.47,8.48,8.48,0,0,1,1.93.23c.65.16,1.39.38,2.23.66l-.48,2.35a12.91,12.91,0,0,0-1.66-.53,7.27,7.27,0,0,0-1.8-.22,3.38,3.38,0,0,0-2.48.76,3.19,3.19,0,0,0-.76,2.35v1.71h9V451l2.39.41v1.85h-7.66v-1.85l2.38-.41V439.58h-6.15V451l2.39.41v1.85Z"/><path class="cls-5" d="M426.52,453.29v-1.85l2.38-.41V432.71l-2.38-.41v-1.86h5.27V451l2.39.41v1.85Z"/><path class="cls-5" d="M443.16,453.6a7.15,7.15,0,0,1-3.83-1,6.67,6.67,0,0,1-2.51-2.79,9.19,9.19,0,0,1-.88-4.13V445a8.59,8.59,0,0,1,.93-4,7.5,7.5,0,0,1,2.47-2.81,6,6,0,0,1,3.38-1,6.74,6.74,0,0,1,3.58.88,5.55,5.55,0,0,1,2.18,2.46,9,9,0,0,1,.73,3.75V446H438.92l0,.07a7.06,7.06,0,0,0,.54,2.7,4.24,4.24,0,0,0,1.45,1.86,3.87,3.87,0,0,0,2.29.67,7.25,7.25,0,0,0,2.57-.42,5.73,5.73,0,0,0,1.91-1.15l1.13,1.88a6.84,6.84,0,0,1-2.25,1.38A8.88,8.88,0,0,1,443.16,453.6ZM439,443.78h7.31v-.38a4.92,4.92,0,0,0-.4-2,3.21,3.21,0,0,0-1.2-1.42,3.56,3.56,0,0,0-2-.52A3,3,0,0,0,441,440a4.35,4.35,0,0,0-1.3,1.53,6.37,6.37,0,0,0-.68,2.2Z"/></g><path class="cls-9" d="M492,383.46H346a5,5,0,0,0-5,5v94.2a5,5,0,0,0,5,5H522a5,5,0,0,0,5-5V416.11"/><polygon class="cls-9" points="527 416.11 492 416.11 492 383.46 527 416.11"/><path class="cls-10" d="M918.47,661.9H916.1a1.56,1.56,0,0,1-1.49-1.07,12.52,12.52,0,0,0-.7-1.69,1.57,1.57,0,0,1,.3-1.81l1.67-1.67a1.59,1.59,0,0,0,0-2.24h0l-2.24-2.24a1.59,1.59,0,0,0-2.23,0l-1.67,1.67a1.57,1.57,0,0,1-1.81.31,14.87,14.87,0,0,0-1.7-.71,1.56,1.56,0,0,1-1.06-1.49V648.6a1.58,1.58,0,0,0-1.58-1.58h-3.17a1.58,1.58,0,0,0-1.58,1.58h0V651a1.58,1.58,0,0,1-1.07,1.49,14.72,14.72,0,0,0-1.69.71,1.57,1.57,0,0,1-1.81-.31l-1.67-1.67a1.6,1.6,0,0,0-2.24,0l-2.24,2.24a1.58,1.58,0,0,0,0,2.23h0l1.67,1.67a1.57,1.57,0,0,1,.31,1.81,12.57,12.57,0,0,0-.71,1.69,1.57,1.57,0,0,1-1.49,1.07h-2.36a1.58,1.58,0,0,0-1.58,1.58h0v3.17a1.58,1.58,0,0,0,1.58,1.58h2.36a1.56,1.56,0,0,1,1.49,1.06,13.27,13.27,0,0,0,.71,1.7,1.57,1.57,0,0,1-.31,1.81l-1.67,1.67a1.57,1.57,0,0,0,0,2.22h0l2.24,2.24a1.57,1.57,0,0,0,2.23,0h0l1.67-1.67a1.57,1.57,0,0,1,1.81-.3,13.08,13.08,0,0,0,1.69.7,1.58,1.58,0,0,1,1.07,1.5v2.36a1.58,1.58,0,0,0,1.58,1.58h3.17a1.58,1.58,0,0,0,1.58-1.58h0v-2.36a1.56,1.56,0,0,1,1.06-1.5,13.21,13.21,0,0,0,1.7-.7,1.6,1.6,0,0,1,1.81.3l1.67,1.67a1.57,1.57,0,0,0,2.22,0h0l2.24-2.24a1.57,1.57,0,0,0,0-2.22h0l-1.67-1.67a1.6,1.6,0,0,1-.3-1.81,13.21,13.21,0,0,0,.7-1.7,1.56,1.56,0,0,1,1.49-1.06h2.37a1.58,1.58,0,0,0,1.58-1.58h0v-3.17a1.58,1.58,0,0,0-1.58-1.58ZM902,669.84a4.78,4.78,0,1,1,4.78-4.78,4.78,4.78,0,0,1-4.78,4.78Z"/><path class="cls-11" d="M919,627.36a5.23,5.23,0,0,0,4.32,2.24,5.48,5.48,0,0,0,4.33-2.24"/><path class="cls-11" d="M941.56,613.83h0a3.91,3.91,0,0,1,3.43,2.51,4.29,4.29,0,0,1,.4,2.31,4.38,4.38,0,0,1-4.42,4.29h0"/><path class="cls-11" d="M904.06,614.65a4.56,4.56,0,0,0,2.28,8.52V614A4.27,4.27,0,0,0,904.06,614.65Z"/><path class="cls-11" d="M904.06,615.65l-3-3.81a4.76,4.76,0,0,1,.76-6.54l2.29-1.68-.92-3.65a3.18,3.18,0,0,1,1.52-3.5l4-2,9.44-4.11a10.73,10.73,0,0,1,8.67,0l9.44,4.11,3.35,1.68a3,3,0,0,1,1.42,4l0,.1-1.68,3.35,4.57,3.66a4.48,4.48,0,0,1,1.06,5.93l-2.43,2.49"/><path class="cls-11" d="M932.67,609.62a50.85,50.85,0,0,1-19.94-4.51c-1.22,4.56-4.56,7.61-6.09,9.13v8.37a15.88,15.88,0,0,0,4.72,11.26,17.43,17.43,0,0,0,5.94,3.81h0a15.58,15.58,0,0,0,5.32.91,13.14,13.14,0,0,0,4.27-.61c.3-.15.76-.15,1.06-.3h0a16,16,0,0,0,10.65-14.31v-9.13"/><path class="cls-11" d="M931.6,606.67a10.85,10.85,0,0,0,1.22,3.8,8.39,8.39,0,0,0,5.63,4.57"/><path class="cls-11" d="M919.35,659.7h19.58v-9.14a9.16,9.16,0,0,0-2.74-6.39,6.22,6.22,0,0,0-1.83-1.52c-.45-.15-1.06-.46-1.52-.61a6.89,6.89,0,0,0-3-.61h-1.53v-3.76s11.51-3.26,10.81-14.35v-.21a4.57,4.57,0,0,0,4.26-4.54,3.9,3.9,0,0,0-.61-2.28l2.59-4.11a4.47,4.47,0,0,0-1.06-5.93l-4.57-3.66,1.67-3.35a3,3,0,0,0-1.27-4l-.1-.05-3.34-1.68-9.44-4.11a10.75,10.75,0,0,0-8.68,0l-9.43,4.11-4,2a3.17,3.17,0,0,0-1.52,3.5l.91,3.65-2.28,1.68a4.76,4.76,0,0,0-.76,6.54l3,3.81a4.6,4.6,0,0,0,2.29,8.57v-.76l.3.21a15.84,15.84,0,0,0,4.72,11.2,17,17,0,0,0,5.72,3.71l.21.1c0,.05-.1,0-.15-.07v3.87H916.1a9.84,9.84,0,0,0-3,.46c-.46.3-1.07.46-1.53.76a16.47,16.47,0,0,0-1.82,1.52,8.39,8.39,0,0,0-2.39,3.89"/><path class="cls-11" d="M919.41,660h19v-9.13a9.06,9.06,0,0,0-2.74-6.39,5.92,5.92,0,0,0-1.82-1.52c-.46-.16-1.07-.46-1.53-.61a6.75,6.75,0,0,0-3-.61H927.8v-4H917.14v4h-1.52a9.83,9.83,0,0,0-3,.45c-.46.31-1.07.46-1.52.77a15.7,15.7,0,0,0-1.83,1.52A8.4,8.4,0,0,0,907,648"/><path class="cls-11" d="M939.54,218.11a11.61,11.61,0,0,0-5.79-2.53,7.77,7.77,0,0,0-1.8-.14h-1.81v-4.6H930a15.33,15.33,0,0,0,7-12.92v-1a4.56,4.56,0,0,0,4.45-4.46,4.31,4.31,0,0,0-.84-2.52h.84V178.49c0-7.92-8.9-17.23-20-17.23s-20,9.31-20,17.23v11.2h.88a4.11,4.11,0,0,0-.88,2v1.49a4.48,4.48,0,0,0,4.45,3.71v-.78h0c0,2.67.14-2.09.14,1a16.59,16.59,0,0,0,7.26,13.66h-.51v4.6H911a7.77,7.77,0,0,0-1.8.14,11.61,11.61,0,0,0-5.79,2.53,7.78,7.78,0,0,0-3.25,6.23v9.5h42.66v-9.5A7.79,7.79,0,0,0,939.54,218.11Z"/><path class="cls-5" d="M928.88,190.11a1.48,1.48,0,0,0-1,2.53,1.68,1.68,0,0,0,1.09.42,1.41,1.41,0,0,0,1.43-1.39v-.07a1.59,1.59,0,0,0-1.48-1.49Z"/><path class="cls-5" d="M914,190.11a1.49,1.49,0,1,0,1.48,1.5h0A1.49,1.49,0,0,0,914,190.11Z"/><path class="cls-11" d="M930.14,210.23v4.6H932a7.26,7.26,0,0,1,1.8.15,11.51,11.51,0,0,1,5.79,2.52,7.78,7.78,0,0,1,3.25,6.23v9.5H900.13v-9.5a7.78,7.78,0,0,1,3.25-6.23,11.51,11.51,0,0,1,5.79-2.52,7.26,7.26,0,0,1,1.8-.15h1.81v-4.6"/><path class="cls-11" d="M905.88,186.89c0,3.71.15,5.34.15,9.05,0,8.61,6.82,16.18,15.43,16.18A15.45,15.45,0,0,0,937,196.76V186.33"/><path class="cls-11" d="M905.88,187.38v-3.86c3-.74,15.13.15,21.52-10.24,0,0,1.33,3.86,9.64,9.79v4.31"/><path class="cls-11" d="M941.49,188.83a4.57,4.57,0,0,1-4.45,4.45v-8.9A4.54,4.54,0,0,1,941.49,188.83Z"/><path class="cls-11" d="M901.43,191.11v1.48a4.47,4.47,0,0,0,4.45,3.71v-8.9A4.47,4.47,0,0,0,901.43,191.11Z"/><path class="cls-11" d="M917.16,202.74a5.21,5.21,0,0,0,4.3,2.22,5.43,5.43,0,0,0,4.3-2.22"/><path class="cls-11" d="M901.43,189.11V177.9c0-7.93,8.9-17.23,20-17.23s20,9.3,20,17.23v11.41"/><path class="cls-11" d="M918.65,190.77c0,.24.12.6.12.84a4.81,4.81,0,0,1-9.62,0h0a3.78,3.78,0,0,1,.12-1.21,4.8,4.8,0,0,1,4.69-3.61A4.68,4.68,0,0,1,918.65,190.77Z"/><path class="cls-11" d="M933.65,190.4a3.78,3.78,0,0,1,.12,1.21,4.81,4.81,0,0,1-9.62,0h0a2,2,0,0,1,.12-.84,4.77,4.77,0,0,1,4.69-4A4.91,4.91,0,0,1,933.65,190.4Z"/><path class="cls-11" d="M918.77,191a4.69,4.69,0,0,1,5.38,0"/><path class="cls-11" d="M942,409.61h1.28c3.67-18.19-.81-21.68-12-23.14a4.71,4.71,0,0,0-4.63-4.79H911.23c-6.7,0-14.84,9.74-11.81,19.95l2.4,8h1.33a4.64,4.64,0,0,0-.69.64,5,5,0,0,0-1.44,3.35,4.8,4.8,0,0,0,4.63,4.78h0v4.79A12.78,12.78,0,0,0,916.82,436H917v3.85h-1.59a5.31,5.31,0,0,0-1.59.16,9.45,9.45,0,0,0-5.11,2.61,8.55,8.55,0,0,0-2.87,6.47v9.24h33.52v-9.18a9,9,0,0,0-2.88-6.47,8.54,8.54,0,0,0-4.94-2.61,7,7,0,0,0-1.76-.16h-1.6v-3.76a12.67,12.67,0,0,0,11-12.72V418.6l.16-.16a4.9,4.9,0,0,0,4.79-4.79A4.76,4.76,0,0,0,942,409.61Z"/><path class="cls-12" d="M928.88,410.18a1.53,1.53,0,0,1,1.43,1.43,1.43,1.43,0,1,1-1.43-1.43Z"/><circle class="cls-12" cx="916.95" cy="411.61" r="1.44"/><path class="cls-12" d="M928.88,617.18a1.53,1.53,0,0,1,1.43,1.43,1.43,1.43,0,1,1-1.43-1.43Z"/><circle class="cls-12" cx="916.95" cy="618.61" r="1.44"/><path class="cls-11" d="M928.49,423.31a5.61,5.61,0,0,1-5.54,4.88,5.78,5.78,0,0,1-5.69-4.88Z"/><polyline class="cls-11" points="905.87 408.67 905.87 407.04 905.87 402.97"/><path class="cls-11" d="M905.87,418.43v-.81"/><path class="cls-11" d="M941,417.62v.81"/><polyline class="cls-11" points="941.04 402.97 941.04 406.72 941.04 408.67"/><path class="cls-11" d="M941,416.8v-8.13a5.48,5.48,0,0,1,2.76.81,4.83,4.83,0,0,1,2.12,4.07,5,5,0,0,1-4.88,4.88"/><path class="cls-11" d="M905.87,416.8v-8.13a4.44,4.44,0,0,0-3.42,1.46,5.12,5.12,0,0,0-1.46,3.42,4.9,4.9,0,0,0,4.88,4.88"/><path class="cls-11" d="M901.8,409.48l-2.44-8.13c-3.09-10.42,5.21-20.34,12-20.34H927a4.79,4.79,0,0,1,4.88,4.7v.18c11.39,1.49,16,5,12.21,23.59"/><path class="cls-11" d="M905.87,407h4.88a3.27,3.27,0,0,0,3.25-3.25,4.41,4.41,0,0,1,1.47-3.42,5.4,5.4,0,0,1,3.41-1.47h1a11.7,11.7,0,0,0,8.14-3.25l2.44-2.44v.65a11.87,11.87,0,0,0,4.72,9.28l5,3.58"/><path class="cls-11" d="M925.39,417.17H917.1a3.26,3.26,0,0,0-3.26,3.25v1.3a2.34,2.34,0,0,1-2.44,2,2.51,2.51,0,0,1-2.44-2.45v-2.44a3.26,3.26,0,0,0-3.26-3.25v6.51a13,13,0,0,0,11.4,13c.48,0,1.13.16,1.62.16h9.6a12.94,12.94,0,0,0,11.56-13v-6.67a3.26,3.26,0,0,0-3.26,3.25v2.44a2.51,2.51,0,0,1-2.44,2.45,2.6,2.6,0,0,1-2.44-2v-1.3a3.26,3.26,0,0,0-3.25-3.25h-3.42"/><path class="cls-11" d="M917.25,437v3.28h-1.62a5.94,5.94,0,0,0-1.63.15,9.76,9.76,0,0,0-5.2,2.67,8.72,8.72,0,0,0-2.93,6.59v9.42H940v-9.42a9.23,9.23,0,0,0-2.93-6.59,8.76,8.76,0,0,0-5-2.67,7.69,7.69,0,0,0-1.79-.15h-1.63V437"/><path class="cls-13" d="M892,479.21a2.72,2.72,0,0,1-2.12-1l-8-9.93a2.66,2.66,0,0,1-.52-2.32l2.85-12.4a2.67,2.67,0,0,1,1.48-1.84l11.55-5.53a2.76,2.76,0,0,1,2.38,0l11.54,5.5a2.75,2.75,0,0,1,1.49,1.85l2.85,12.39a2.75,2.75,0,0,1-.52,2.33l-8,9.93a2.79,2.79,0,0,1-2.13,1H892Z"/><path class="cls-14" d="M898.39,446.46a2.29,2.29,0,0,1,.93.2l11.55,5.5a2.26,2.26,0,0,1,1.19,1.49L914.91,466a2.14,2.14,0,0,1-.43,1.87l-8,9.93a2.2,2.2,0,0,1-1.71.82H892a2.2,2.2,0,0,1-1.71-.82l-8-9.93a2.28,2.28,0,0,1-.43-1.87l2.85-12.39a2.21,2.21,0,0,1,1.19-1.49l11.55-5.52a2.85,2.85,0,0,1,1-.18Zm0-1.07h0a3.31,3.31,0,0,0-1.42.32l-11.55,5.52a3.23,3.23,0,0,0-1.78,2.21l-2.85,12.4a3.24,3.24,0,0,0,.64,2.78l8,9.93a3.24,3.24,0,0,0,2.53,1.21h12.8a3.25,3.25,0,0,0,2.54-1.21l8-9.93a3.21,3.21,0,0,0,.64-2.78l-2.85-12.4a3.23,3.23,0,0,0-1.78-2.21l-11.5-5.52a3.18,3.18,0,0,0-1.39-.32Z"/><path class="cls-14" d="M910,465.11h-.8a6.56,6.56,0,0,1-1.24-.21.51.51,0,0,1-.25-.25v0h0l-.3-.09a8.73,8.73,0,0,0-.16-3.22,9.59,9.59,0,0,0-1.27-3l.22-.2v0a.52.52,0,0,1,.12-.34,5.84,5.84,0,0,1,1-.71h0l.2-.11.39-.23.11-.09a0,0,0,0,0,.05-.05h0a.76.76,0,0,0,.16-1,.67.67,0,0,0-.53-.25.77.77,0,0,0-.5.18h0a.84.84,0,0,1-.12.1c-.1.1-.2.21-.29.32a1.27,1.27,0,0,1-.16.15h0a5.57,5.57,0,0,1-.92.83.36.36,0,0,1-.2.06.33.33,0,0,1-.14,0h0l-.27.18a12.06,12.06,0,0,0-1-1,9,9,0,0,0-4.76-1.9v-.29h0a.54.54,0,0,1-.19-.3,10.14,10.14,0,0,1,.07-1.23h0a.89.89,0,0,1,0-.23,1,1,0,0,1,.07-.43v-.21h0a.73.73,0,0,0-.71-.75h0a.73.73,0,0,0-.5.23.68.68,0,0,0-.21.52h0v.18a1.31,1.31,0,0,0,.07.44.44.44,0,0,0,0,.23h0a6.34,6.34,0,0,1,.06,1.23.45.45,0,0,1-.18.3h0v.3a5.8,5.8,0,0,0-1.23.18,8.78,8.78,0,0,0-4.52,2.56l-.23-.16h-.14a.31.31,0,0,1-.2-.07,6.12,6.12,0,0,1-.92-.84h0a.81.81,0,0,0-.16-.16c-.09-.11-.19-.22-.29-.32l-.12-.09v-.05h0a.79.79,0,0,0-.51-.18.65.65,0,0,0-.52.25.76.76,0,0,0,.16,1h0a.39.39,0,0,0,.11.09l.39.23.2.11h0a7.85,7.85,0,0,1,1,.71.47.47,0,0,1,.11.34v.05h0l.23.21a.54.54,0,0,0-.11.18,8.85,8.85,0,0,0-1.28,6l-.3.09v.05a.51.51,0,0,1-.25.25,5.65,5.65,0,0,1-1.23.21h-.86a.76.76,0,0,0-.6.85.71.71,0,0,0,.73.52.61.61,0,0,0,.19,0h.14a2.05,2.05,0,0,0,.41-.16l.21-.09h0a5.32,5.32,0,0,1,1.18-.34h0a.55.55,0,0,1,.3.11h0l.32-.05a9.09,9.09,0,0,0,3,4.29,9.6,9.6,0,0,0,1,.66l-.13.3h0a.48.48,0,0,1,0,.37,6.58,6.58,0,0,1-.59,1.07h0l-.14.19c-.09.11-.16.23-.25.36l-.07.12h0a.71.71,0,0,0,.27,1l0,0a.52.52,0,0,0,.27.07.83.83,0,0,0,.69-.43h0a.41.41,0,0,1,.07-.11c.07-.16.09-.28.14-.41l.06-.21h0a5.73,5.73,0,0,1,.48-1.14.52.52,0,0,1,.3-.2h0l.16-.29a8.93,8.93,0,0,0,3.19.59,8.47,8.47,0,0,0,2-.23,9.9,9.9,0,0,0,1.18-.34l.14.25h.05a.45.45,0,0,1,.29.21,8.1,8.1,0,0,1,.48,1.14h0l.07.21c0,.14.09.28.14.41l.07.11h0a.76.76,0,0,0,.68.43.55.55,0,0,0,.28-.07.63.63,0,0,0,.34-.41.86.86,0,0,0,0-.57h0a.75.75,0,0,0-.07-.12c-.12-.19-.25-.37-.39-.55h0a4.85,4.85,0,0,1-.59-1.07.59.59,0,0,1,0-.37h0l-.12-.28a9.06,9.06,0,0,0,4-5h.28a.48.48,0,0,1,.3-.11h0a4.91,4.91,0,0,1,1.19.34h0c.07,0,.14.07.21.09a2.9,2.9,0,0,0,.41.16h.39a.76.76,0,0,0,.73-.53A.86.86,0,0,0,910,465.11ZM899.43,464l-1,.48-1-.48-.25-1.07.69-.87H899l.69.87-.23,1.07Zm6-2.37a7.11,7.11,0,0,1,.16,2.3l-3.49-1a.62.62,0,0,1-.44-.73.48.48,0,0,1,.14-.25l2.76-2.49A7.31,7.31,0,0,1,905.43,461.62Zm-2-3.54-3,2.12a.6.6,0,0,1-.79-.13.42.42,0,0,1-.12-.26l-.2-3.72a6.91,6.91,0,0,1,4.1,2Zm-6.61-1.87.73-.14-.21,3.65a.61.61,0,0,1-.89.53l-3-2.17a6.89,6.89,0,0,1,3.4-1.87Zm-4.5,3.24,2.72,2.42a.6.6,0,0,1,.06.84.48.48,0,0,1-.27.19l-3.54,1a7.37,7.37,0,0,1,1-4.47Zm-.62,6.18,3.63-.61a.62.62,0,0,1,.64.48.73.73,0,0,1,0,.36h0l-1.39,3.36a7.19,7.19,0,0,1-2.86-3.59Zm8.3,4.48a7.28,7.28,0,0,1-3.9-.19l1.8-3.26a.59.59,0,0,1,.73-.16,1,1,0,0,1,.28.25h0l1.76,3.17C900.46,470,900.23,470,900,470.11Zm4.45-3.18a7.25,7.25,0,0,1-2.19,2.22l-1.43-3.45a.61.61,0,0,1,.31-.71.87.87,0,0,1,.32-.06l3.66.61A4.47,4.47,0,0,1,904.45,466.93Z"/><polyline class="cls-15" points="878.73 230.47 885.86 223.34 915 223.34 915 236.98 907.87 244.11"/><rect class="cls-16" x="878.73" y="230.47" width="29.14" height="13.64"/><line class="cls-16" x1="907.87" y1="230.47" x2="914.07" y2="224.27"/><line class="cls-17" x1="848" y1="230.11" x2="757" y2="230.11"/><line class="cls-17" x1="705" y1="230.11" x2="686" y2="230.11"/><line class="cls-18" x1="848" y1="196.11" x2="486.55" y2="197.1"/><polygon class="cls-19" points="500.42 179.88 503.3 182.95 488.17 197.09 503.38 211.15 500.52 214.23 482 197.11 500.42 179.88"/><line class="cls-2" x1="848" y1="619.11" x2="705.55" y2="620.08"/><polygon class="cls-5" points="719.35 602.81 722.24 605.86 707.17 620.06 722.43 634.06 719.59 637.16 701 620.11 719.35 602.81"/><line class="cls-17" x1="848" y1="651.11" x2="689" y2="651.11"/><line class="cls-17" x1="848" y1="451.11" x2="757" y2="451.11"/><line class="cls-18" x1="848" y1="210.11" x2="494.06" y2="391.04"/><polygon class="cls-19" points="498.63 369.41 502.58 370.84 495.49 390.3 515.41 395.95 514.26 399.99 490 393.11 498.63 369.41"/><line class="cls-20" x1="848" y1="406.11" x2="512.28" y2="283.67"/><polygon class="cls-13" points="531.24 272.3 532.88 276.17 513.79 284.22 523.22 302.66 519.47 304.57 508 282.11 531.24 272.3"/><circle class="cls-21" cx="730.85" cy="230.23" r="11.12"/><line class="cls-22" x1="722.99" y1="238.09" x2="738.71" y2="222.37"/><circle class="cls-21" cx="730.85" cy="451.23" r="11.12"/><line class="cls-22" x1="722.99" y1="459.09" x2="738.71" y2="443.37"/><circle class="cls-21" cx="660.85" cy="230.23" r="11.12"/><line class="cls-22" x1="652.99" y1="238.09" x2="668.71" y2="222.37"/><circle class="cls-21" cx="660.85" cy="650.23" r="11.12"/><line class="cls-22" x1="652.99" y1="658.09" x2="668.71" y2="642.37"/><g class="cls-4"><g class="cls-4"><path class="cls-5" d="M983.19,199.6a6.87,6.87,0,0,1-3.75-1A6.67,6.67,0,0,1,977,195.8a9.33,9.33,0,0,1-.88-4.13v-.61a9.44,9.44,0,0,1,.85-4.05,6.62,6.62,0,0,1,6.26-3.86,8.32,8.32,0,0,1,3.36.63,6.78,6.78,0,0,1,2.42,1.73l.08,3.8h-2.26l-.5-2.76a3.49,3.49,0,0,0-1.24-.82,4.54,4.54,0,0,0-1.76-.31,3.55,3.55,0,0,0-2.26.76,5,5,0,0,0-1.52,2,7.15,7.15,0,0,0-.54,2.84v.61a8.32,8.32,0,0,0,.5,3,4.48,4.48,0,0,0,1.45,2,4.05,4.05,0,0,0,4.68-.11,3.47,3.47,0,0,0,1.19-2.22h2.59l0,.09a5.31,5.31,0,0,1-.8,2.55,5.38,5.38,0,0,1-2.09,1.91A6.89,6.89,0,0,1,983.19,199.6Z"/><path class="cls-5" d="M999.18,199.6a6.61,6.61,0,0,1-6.24-3.89,9.74,9.74,0,0,1-.86-4.17v-.32a9.74,9.74,0,0,1,.86-4.17,6.82,6.82,0,0,1,2.46-2.86,7.35,7.35,0,0,1,7.54,0,6.76,6.76,0,0,1,2.45,2.85,9.58,9.58,0,0,1,.87,4.18v.32a9.58,9.58,0,0,1-.87,4.18,6.52,6.52,0,0,1-6.21,3.88Zm0-2.26a3.56,3.56,0,0,0,2.31-.75,4.66,4.66,0,0,0,1.41-2.07,8.87,8.87,0,0,0,.47-3v-.32a8.83,8.83,0,0,0-.47-3,4.6,4.6,0,0,0-1.42-2.07,4,4,0,0,0-4.64,0,4.58,4.58,0,0,0-1.41,2.07,8.83,8.83,0,0,0-.47,3v.32a8.87,8.87,0,0,0,.47,3,4.6,4.6,0,0,0,1.42,2.07A3.64,3.64,0,0,0,999.18,197.34Z"/><path class="cls-5" d="M1008.48,199.29v-1.85l2.39-.41V185.71l-2.39-.41v-1.86h5l.21,2.36a5.71,5.71,0,0,1,2-2,5.34,5.34,0,0,1,2.72-.69,5.18,5.18,0,0,1,4,1.5,6.56,6.56,0,0,1,1.4,4.63V197l2.39.41v1.85h-7.66v-1.85l2.39-.41v-7.69a4.3,4.3,0,0,0-.83-3,3.3,3.3,0,0,0-2.53-.88,4.06,4.06,0,0,0-2.2.6,4.39,4.39,0,0,0-1.53,1.64V197l2.39.41v1.85Z"/><path class="cls-5" d="M1033.17,199.54a3.81,3.81,0,0,1-2.79-1,4.53,4.53,0,0,1-1-3.31v-9.62h-2.5v-2.14h2.5v-3.82h2.89v3.82h3.44v2.14h-3.44v9.62a2.63,2.63,0,0,0,.45,1.69,1.52,1.52,0,0,0,1.22.54,7,7,0,0,0,1.14-.1l1-.16.4,1.89a14.06,14.06,0,0,1-1.55.33A10.49,10.49,0,0,1,1033.17,199.54Z"/><path class="cls-5" d="M1043.39,199.6a5.33,5.33,0,0,1-3.76-1.21,4.45,4.45,0,0,1-1.29-3.41,4.27,4.27,0,0,1,.83-2.63,5.41,5.41,0,0,1,2.39-1.74,10.3,10.3,0,0,1,3.75-.62h2.83v-1.55a2.86,2.86,0,0,0-.87-2.23,3.52,3.52,0,0,0-2.46-.79,5.6,5.6,0,0,0-1.73.24,4.89,4.89,0,0,0-1.33.67l-.31,2.21h-2.22V184.9a7.59,7.59,0,0,1,2.49-1.31,10.7,10.7,0,0,1,3.15-.44,6.85,6.85,0,0,1,4.52,1.37,4.85,4.85,0,0,1,1.64,3.94v7.64c0,.2,0,.4,0,.6s0,.39,0,.58l1.54.16v1.85h-4.15c-.09-.43-.16-.82-.2-1.16s-.09-.68-.11-1a7.07,7.07,0,0,1-2.08,1.78A5.4,5.4,0,0,1,1043.39,199.6Zm.43-2.42a5.13,5.13,0,0,0,2.62-.69,4.29,4.29,0,0,0,1.7-1.65V192h-2.93a4.15,4.15,0,0,0-3,.95,2.89,2.89,0,0,0-1,2.12,2,2,0,0,0,.65,1.59A2.93,2.93,0,0,0,1043.82,197.18Z"/><path class="cls-5" d="M1054.74,199.29v-1.85l2.39-.41V185.71l-2.39-.41v-1.86H1060V197l2.39.41v1.85Zm2.25-19.76v-3.09h3v3.09Z"/></g><g class="cls-4"><path class="cls-5" d="M1065,199.29v-1.85l2.39-.41V185.71l-2.39-.41v-1.86h5l.21,2.36a5.71,5.71,0,0,1,2-2,5.34,5.34,0,0,1,2.72-.69,5.18,5.18,0,0,1,4,1.5,6.61,6.61,0,0,1,1.4,4.63V197l2.39.41v1.85H1075v-1.85l2.39-.41v-7.69a4.3,4.3,0,0,0-.83-3,3.3,3.3,0,0,0-2.53-.88,4.06,4.06,0,0,0-2.2.6,4.39,4.39,0,0,0-1.53,1.64V197l2.39.41v1.85Z"/></g><g class="cls-4"><path class="cls-5" d="M1091.15,199.6a7.15,7.15,0,0,1-3.83-1,6.67,6.67,0,0,1-2.51-2.79,9.19,9.19,0,0,1-.89-4.13V191a8.59,8.59,0,0,1,.93-4,7.53,7.53,0,0,1,2.48-2.81,6,6,0,0,1,3.38-1,6.74,6.74,0,0,1,3.58.88,5.53,5.53,0,0,1,2.17,2.46,8.86,8.86,0,0,1,.74,3.75V192h-10.29l0,.07a7.25,7.25,0,0,0,.53,2.7,4.33,4.33,0,0,0,1.46,1.86,3.87,3.87,0,0,0,2.29.67,7.25,7.25,0,0,0,2.57-.42,5.84,5.84,0,0,0,1.91-1.15l1.13,1.88a6.84,6.84,0,0,1-2.25,1.38A8.91,8.91,0,0,1,1091.15,199.6Zm-4.15-9.82h7.31v-.38a4.92,4.92,0,0,0-.4-2,3.21,3.21,0,0,0-1.2-1.42,3.59,3.59,0,0,0-2-.52,3,3,0,0,0-1.76.56,4.48,4.48,0,0,0-1.31,1.53,6.58,6.58,0,0,0-.67,2.2Z"/><path class="cls-5" d="M1099.41,199.29v-1.85l2.38-.41V185.71l-2.38-.41v-1.86h5l.25,2,0,.28a5.54,5.54,0,0,1,1.66-1.9,3.88,3.88,0,0,1,2.27-.69,5,5,0,0,1,.93.08,4,4,0,0,1,.68.15l-.38,2.68-2-.12a2.8,2.8,0,0,0-1.92.53,3.77,3.77,0,0,0-1.2,1.58v9l2.39.41v1.85Z"/><path class="cls-5" d="M1110.86,201.12l8.91-23.16h2.43l-8.89,23.16Z"/><path class="cls-5" d="M1130.43,199.6a13,13,0,0,1-3-.33,17,17,0,0,1-3-1l0-3.77h2.18l.54,2.27a9,9,0,0,0,1.59.5,8.68,8.68,0,0,0,1.66.15,3.84,3.84,0,0,0,2.52-.67,2.14,2.14,0,0,0,.76-1.67,2,2,0,0,0-.76-1.59,6.8,6.8,0,0,0-2.8-1.11,10.55,10.55,0,0,1-4.22-1.76,3.65,3.65,0,0,1-1.36-3,3.77,3.77,0,0,1,.75-2.3,5.11,5.11,0,0,1,2.08-1.62,7.5,7.5,0,0,1,3.11-.6,10,10,0,0,1,3.08.41,7.74,7.74,0,0,1,2.23,1.1l.15,3.61h-2.17l-.47-2.11a3.89,3.89,0,0,0-1.21-.58,5.66,5.66,0,0,0-1.61-.21,3.56,3.56,0,0,0-2.19.63,1.9,1.9,0,0,0-.85,1.59,1.76,1.76,0,0,0,.25,1,2,2,0,0,0,.93.74,10.21,10.21,0,0,0,2,.65,10.64,10.64,0,0,1,4.62,2,3.87,3.87,0,0,1,1.31,3,4.36,4.36,0,0,1-1.49,3.36A6.76,6.76,0,0,1,1130.43,199.6Z"/><path class="cls-5" d="M1146.21,199.6a7.09,7.09,0,0,1-3.82-1,6.62,6.62,0,0,1-2.52-2.79,9.19,9.19,0,0,1-.88-4.13V191a8.59,8.59,0,0,1,.93-4,7.5,7.5,0,0,1,2.47-2.81,6,6,0,0,1,3.38-1,6.71,6.71,0,0,1,3.58.88,5.55,5.55,0,0,1,2.18,2.46,9,9,0,0,1,.73,3.75V192H1142l0,.07a7.06,7.06,0,0,0,.54,2.7,4.24,4.24,0,0,0,1.45,1.86,3.87,3.87,0,0,0,2.29.67,7.21,7.21,0,0,0,2.57-.42,5.73,5.73,0,0,0,1.91-1.15l1.13,1.88a6.84,6.84,0,0,1-2.25,1.38A8.88,8.88,0,0,1,1146.21,199.6Zm-4.15-9.82h7.31v-.38a4.92,4.92,0,0,0-.4-2,3.21,3.21,0,0,0-1.2-1.42,3.56,3.56,0,0,0-2-.52,3,3,0,0,0-1.76.56,4.35,4.35,0,0,0-1.3,1.53,6.59,6.59,0,0,0-.68,2.2Z"/></g><g class="cls-4"><path class="cls-5" d="M1154.88,199.29v-1.85l2.39-.41V185.71l-2.39-.41v-1.86h5l.25,2,0,.28a5.44,5.44,0,0,1,1.66-1.9,3.87,3.87,0,0,1,2.26-.69,4.87,4.87,0,0,1,.93.08,4.2,4.2,0,0,1,.69.15l-.38,2.68-2-.12a2.8,2.8,0,0,0-1.92.53,3.77,3.77,0,0,0-1.2,1.58v9l2.39.41v1.85Z"/></g><g class="cls-4"><path class="cls-5" d="M1174.38,199.29l-5.64-13.77-1.64-.22v-1.86h6.65v1.86l-2.06.29,3.51,9,.41,1.27h.09l.47-1.27,3.26-9-2.12-.29v-1.86H1184v1.86l-1.67.22-5.36,13.77Z"/><path class="cls-5" d="M1185.37,199.29v-1.85l2.38-.41V185.71l-2.38-.41v-1.86h5.27V197l2.39.41v1.85Zm2.24-19.76v-3.09h3v3.09Z"/><path class="cls-5" d="M1202.18,199.6a6.92,6.92,0,0,1-3.75-1,6.64,6.64,0,0,1-2.47-2.79,9.19,9.19,0,0,1-.88-4.13v-.61a9.29,9.29,0,0,1,.85-4.05,6.62,6.62,0,0,1,6.25-3.86,8.41,8.41,0,0,1,3.37.63,6.78,6.78,0,0,1,2.42,1.73l.07,3.8h-2.25l-.5-2.76a3.44,3.44,0,0,0-1.25-.82,4.45,4.45,0,0,0-1.75-.31,3.57,3.57,0,0,0-2.27.76,5,5,0,0,0-1.51,2,7.16,7.16,0,0,0-.55,2.84v.61a8.11,8.11,0,0,0,.51,3,4.48,4.48,0,0,0,1.45,2,4.05,4.05,0,0,0,4.68-.11,3.47,3.47,0,0,0,1.19-2.22h2.59l0,.09a5.34,5.34,0,0,1-2.89,4.46A7,7,0,0,1,1202.18,199.6Z"/><path class="cls-5" d="M1218.24,199.6a7.09,7.09,0,0,1-3.82-1,6.62,6.62,0,0,1-2.52-2.79,9.19,9.19,0,0,1-.88-4.13V191a8.59,8.59,0,0,1,.93-4,7.5,7.5,0,0,1,2.47-2.81,6,6,0,0,1,3.38-1,6.74,6.74,0,0,1,3.58.88,5.55,5.55,0,0,1,2.18,2.46,9,9,0,0,1,.73,3.75V192H1214l0,.07a7.06,7.06,0,0,0,.54,2.7,4.24,4.24,0,0,0,1.45,1.86,3.87,3.87,0,0,0,2.29.67,7.25,7.25,0,0,0,2.57-.42,5.73,5.73,0,0,0,1.91-1.15l1.13,1.88a6.84,6.84,0,0,1-2.25,1.38A8.88,8.88,0,0,1,1218.24,199.6Zm-4.15-9.82h7.31v-.38a4.92,4.92,0,0,0-.4-2,3.21,3.21,0,0,0-1.2-1.42,3.56,3.56,0,0,0-2-.52,3,3,0,0,0-1.76.56,4.35,4.35,0,0,0-1.3,1.53,6.59,6.59,0,0,0-.68,2.2Z"/></g><g class="cls-4"><path class="cls-5" d="M981.15,235.6a5.33,5.33,0,0,1-3.76-1.21A4.45,4.45,0,0,1,976.1,231a4.33,4.33,0,0,1,.82-2.63,5.5,5.5,0,0,1,2.4-1.74,10.3,10.3,0,0,1,3.75-.62h2.83v-1.55a2.86,2.86,0,0,0-.87-2.23,3.53,3.53,0,0,0-2.46-.79,5.6,5.6,0,0,0-1.73.24,4.89,4.89,0,0,0-1.33.67l-.31,2.21H977V220.9a7.59,7.59,0,0,1,2.49-1.31,10.66,10.66,0,0,1,3.15-.44,6.85,6.85,0,0,1,4.52,1.37,4.85,4.85,0,0,1,1.64,3.94v7.64c0,.2,0,.4,0,.6a5.65,5.65,0,0,0,0,.58l1.54.16v1.85h-4.15c-.09-.43-.16-.82-.21-1.16s-.08-.68-.1-1a7,7,0,0,1-2.09,1.78A5.34,5.34,0,0,1,981.15,235.6Zm.43-2.42a5.13,5.13,0,0,0,2.62-.69,4.36,4.36,0,0,0,1.7-1.65V228H983a4.15,4.15,0,0,0-3,.95,2.85,2.85,0,0,0-1,2.12,2,2,0,0,0,.65,1.59A2.93,2.93,0,0,0,981.58,233.18Z"/><path class="cls-5" d="M998.83,235.6a5.7,5.7,0,0,1-3.32-1A6,6,0,0,1,993.4,232a10,10,0,0,1-.74-4v-.31a12.46,12.46,0,0,1,.74-4.47,6.52,6.52,0,0,1,2.12-3,5.33,5.33,0,0,1,3.34-1.06,5.55,5.55,0,0,1,2.48.52,5,5,0,0,1,1.84,1.5v-6.46l-2.39-.41v-1.86h5.28V233l2.39.41v1.85h-4.9l-.23-1.89a5.13,5.13,0,0,1-1.9,1.64A5.79,5.79,0,0,1,998.83,235.6Zm.73-2.35a3.82,3.82,0,0,0,2.17-.58,4.38,4.38,0,0,0,1.45-1.66v-7.35a4.34,4.34,0,0,0-1.45-1.58,3.81,3.81,0,0,0-2.14-.59,3.35,3.35,0,0,0-2.27.78,4.77,4.77,0,0,0-1.33,2.17,10.81,10.81,0,0,0-.44,3.22V228a6.73,6.73,0,0,0,1,3.83A3.41,3.41,0,0,0,999.56,233.25Z"/><path class="cls-5" d="M1010.45,235.29v-1.85l2.39-.41V221.71l-2.39-.41v-1.86h5l.19,2.07a5.15,5.15,0,0,1,2-1.75,6,6,0,0,1,2.79-.61,4.86,4.86,0,0,1,2.71.73,4.41,4.41,0,0,1,1.71,2.2,5.92,5.92,0,0,1,2-2.14,5.15,5.15,0,0,1,2.87-.79,4.73,4.73,0,0,1,3.83,1.66,7.59,7.59,0,0,1,1.41,5V233l2.39.41v1.85h-7.68v-1.85L1032,233v-7.25a5.28,5.28,0,0,0-.8-3.31,2.94,2.94,0,0,0-2.39-1,3.07,3.07,0,0,0-2.43,1.06,4.64,4.64,0,0,0-1.06,2.68V233l2.39.41v1.85H1020v-1.85l2.39-.41v-7.25a5.22,5.22,0,0,0-.83-3.26,2.88,2.88,0,0,0-2.4-1,3.93,3.93,0,0,0-2.16.54,3.45,3.45,0,0,0-1.31,1.53V233l2.39.41v1.85Z"/><path class="cls-5" d="M1039.3,235.29v-1.85l2.39-.41V221.71l-2.39-.41v-1.86h5.28V233l2.39.41v1.85Zm2.25-19.76v-3.09h3v3.09Z"/><path class="cls-5" d="M1049,235.29v-1.85l2.39-.41V221.71l-2.39-.41v-1.86h5l.21,2.36a5.88,5.88,0,0,1,2-2,5.37,5.37,0,0,1,2.72-.69,5.18,5.18,0,0,1,4,1.5,6.56,6.56,0,0,1,1.41,4.63V233l2.39.41v1.85h-7.67v-1.85l2.39-.41v-7.69a4.25,4.25,0,0,0-.83-3,3.29,3.29,0,0,0-2.52-.88,4.09,4.09,0,0,0-2.21.6,4.39,4.39,0,0,0-1.53,1.64V233l2.39.41v1.85Z"/></g></g><g class="cls-4"><g class="cls-4"><path class="cls-5" d="M977.13,424.29v-1.85l2.38-.41v-16.8l-2.38-.41V403h7.66v1.86l-2.39.41V422l2.39.41v1.85Zm5.07-6.17-1.54-1.78,10.12-11.24.06-.07-1.6-.21V403h6.84v1.86l-2,.37Zm7.52,6.17v-1.85l1.76-.2v0L985.56,414l1.62-2.27,7.7,10.31,2,.36v1.85Z"/></g><g class="cls-4"><path class="cls-5" d="M1005.11,424.6a5,5,0,0,1-4-1.66q-1.46-1.65-1.45-5.15v-7.08l-1.82-.41v-1.86h4.7v9.37a5.88,5.88,0,0,0,.75,3.49,2.77,2.77,0,0,0,2.33.95,4.69,4.69,0,0,0,2.54-.62,3.86,3.86,0,0,0,1.52-1.76v-9.16l-2.13-.41v-1.86h5V422l1.82.41v1.85h-4.41l-.19-2.34a5.34,5.34,0,0,1-1.93,2A5.25,5.25,0,0,1,1005.11,424.6Z"/><path class="cls-5" d="M1024.79,424.6a5.71,5.71,0,0,1-2.69-.6,5.06,5.06,0,0,1-1.91-1.75l-.26,2h-2.49V403.71l-2.39-.41v-1.86h5.28v8.87a4.93,4.93,0,0,1,1.85-1.61,5.7,5.7,0,0,1,2.58-.55,5.32,5.32,0,0,1,3.35,1.06,6.68,6.68,0,0,1,2.13,3,12.46,12.46,0,0,1,.74,4.47V417a10,10,0,0,1-.74,4,6.09,6.09,0,0,1-2.13,2.68A5.67,5.67,0,0,1,1024.79,424.6Zm-.73-2.35a3.41,3.41,0,0,0,3-1.45,6.65,6.65,0,0,0,1-3.83v-.31a10.81,10.81,0,0,0-.44-3.22,4.79,4.79,0,0,0-1.34-2.17,3.31,3.31,0,0,0-2.27-.78,3.81,3.81,0,0,0-2.25.65,4.46,4.46,0,0,0-1.45,1.72v7a4.48,4.48,0,0,0,1.47,1.74A3.86,3.86,0,0,0,1024.06,422.25Z"/><path class="cls-5" d="M1041,424.6a7.12,7.12,0,0,1-3.82-1,6.6,6.6,0,0,1-2.51-2.79,9.19,9.19,0,0,1-.89-4.13V416a8.59,8.59,0,0,1,.93-4,7.53,7.53,0,0,1,2.48-2.81,5.92,5.92,0,0,1,3.37-1,6.71,6.71,0,0,1,3.58.88,5.49,5.49,0,0,1,2.18,2.46,8.87,8.87,0,0,1,.73,3.75V417h-10.28l0,.07a7.06,7.06,0,0,0,.54,2.7,4.26,4.26,0,0,0,1.46,1.86,3.82,3.82,0,0,0,2.28.67,7.17,7.17,0,0,0,2.57-.42,5.64,5.64,0,0,0,1.91-1.15l1.13,1.88a6.63,6.63,0,0,1-2.25,1.38A8.88,8.88,0,0,1,1041,424.6Zm-4.14-9.82h7.31v-.38a4.92,4.92,0,0,0-.41-2,3.21,3.21,0,0,0-1.2-1.42,3.56,3.56,0,0,0-2-.52,3,3,0,0,0-1.76.56,4.45,4.45,0,0,0-1.3,1.53,6.36,6.36,0,0,0-.67,2.2Z"/><path class="cls-5" d="M1049.21,424.29v-1.85l2.39-.41V410.71l-2.39-.41v-1.86h5l.25,2,0,.28a5.44,5.44,0,0,1,1.66-1.9,3.85,3.85,0,0,1,2.26-.69,4.87,4.87,0,0,1,.93.08,3.8,3.8,0,0,1,.68.15l-.38,2.68-2-.12a2.78,2.78,0,0,0-1.92.53,3.77,3.77,0,0,0-1.2,1.58v9l2.38.41v1.85Z"/></g><g class="cls-4"><path class="cls-5" d="M1062.76,424.29v-1.85l2.39-.41V410.71l-2.39-.41v-1.86h5l.2,2.36a5.82,5.82,0,0,1,2-2,5.34,5.34,0,0,1,2.72-.69,5.18,5.18,0,0,1,4,1.5,6.61,6.61,0,0,1,1.4,4.63V422l2.39.41v1.85h-7.66v-1.85l2.39-.41v-7.69a4.3,4.3,0,0,0-.83-3,3.3,3.3,0,0,0-2.53-.88,4.06,4.06,0,0,0-2.2.6,4.39,4.39,0,0,0-1.53,1.64V422l2.38.41v1.85Z"/></g><g class="cls-4"><path class="cls-5" d="M1088.88,424.6a7.15,7.15,0,0,1-3.83-1,6.67,6.67,0,0,1-2.51-2.79,9.19,9.19,0,0,1-.89-4.13V416a8.59,8.59,0,0,1,.93-4,7.53,7.53,0,0,1,2.48-2.81,6,6,0,0,1,3.38-1,6.74,6.74,0,0,1,3.58.88,5.47,5.47,0,0,1,2.17,2.46,8.86,8.86,0,0,1,.74,3.75V417h-10.29l0,.07a7.25,7.25,0,0,0,.53,2.7,4.33,4.33,0,0,0,1.46,1.86,3.87,3.87,0,0,0,2.29.67,7.25,7.25,0,0,0,2.57-.42,5.84,5.84,0,0,0,1.91-1.15l1.13,1.88a6.84,6.84,0,0,1-2.25,1.38A9,9,0,0,1,1088.88,424.6Zm-4.15-9.82H1092v-.38a4.92,4.92,0,0,0-.4-2,3.21,3.21,0,0,0-1.2-1.42,3.59,3.59,0,0,0-2-.52,3,3,0,0,0-1.76.56,4.35,4.35,0,0,0-1.3,1.53,6.37,6.37,0,0,0-.68,2.2Z"/><path class="cls-5" d="M1102.76,424.54a3.81,3.81,0,0,1-2.79-1,4.53,4.53,0,0,1-1-3.31v-9.62h-2.51v-2.14h2.51v-3.82h2.89v3.82h3.44v2.14h-3.44v9.62a2.63,2.63,0,0,0,.45,1.69,1.51,1.51,0,0,0,1.22.54,7,7,0,0,0,1.14-.1l1-.16.39,1.89a13.83,13.83,0,0,1-1.54.33A10.61,10.61,0,0,1,1102.76,424.54Z"/><path class="cls-5" d="M1114.79,424.6a7.09,7.09,0,0,1-3.82-1,6.62,6.62,0,0,1-2.52-2.79,9.19,9.19,0,0,1-.88-4.13V416a8.59,8.59,0,0,1,.93-4,7.5,7.5,0,0,1,2.47-2.81,6,6,0,0,1,3.38-1,6.71,6.71,0,0,1,3.58.88,5.55,5.55,0,0,1,2.18,2.46,9,9,0,0,1,.73,3.75V417h-10.28l0,.07a7.06,7.06,0,0,0,.54,2.7,4.24,4.24,0,0,0,1.45,1.86,3.87,3.87,0,0,0,2.29.67,7.21,7.21,0,0,0,2.57-.42,5.73,5.73,0,0,0,1.91-1.15l1.13,1.88a6.84,6.84,0,0,1-2.25,1.38A8.88,8.88,0,0,1,1114.79,424.6Zm-4.15-9.82H1118v-.38a4.92,4.92,0,0,0-.4-2,3.21,3.21,0,0,0-1.2-1.42,3.56,3.56,0,0,0-2-.52,3,3,0,0,0-1.76.56,4.35,4.35,0,0,0-1.3,1.53,6.59,6.59,0,0,0-.68,2.2Z"/><path class="cls-5" d="M1129.57,424.6a12.92,12.92,0,0,1-3-.33,17.13,17.13,0,0,1-3-1l0-3.77h2.19l.54,2.27a7.78,7.78,0,0,0,3.25.65,3.84,3.84,0,0,0,2.52-.67,2.14,2.14,0,0,0,.76-1.67,2,2,0,0,0-.77-1.59,6.68,6.68,0,0,0-2.79-1.11,10.67,10.67,0,0,1-4.23-1.76,3.64,3.64,0,0,1-1.35-3,3.77,3.77,0,0,1,.75-2.3,5.11,5.11,0,0,1,2.08-1.62,7.49,7.49,0,0,1,3.1-.6,10.06,10.06,0,0,1,3.09.41,7.74,7.74,0,0,1,2.23,1.1l.15,3.61h-2.17l-.47-2.11a3.94,3.94,0,0,0-1.22-.58,5.56,5.56,0,0,0-1.61-.21,3.56,3.56,0,0,0-2.19.63,1.91,1.91,0,0,0-.84,1.59,1.85,1.85,0,0,0,.24,1,2,2,0,0,0,.93.74,10.68,10.68,0,0,0,2,.65,10.58,10.58,0,0,1,4.62,2,3.85,3.85,0,0,1,1.32,3,4.36,4.36,0,0,1-1.49,3.36A6.76,6.76,0,0,1,1129.57,424.6Z"/></g><g class="cls-4"><path class="cls-5" d="M982.15,460.6a5.33,5.33,0,0,1-3.76-1.21A4.45,4.45,0,0,1,977.1,456a4.33,4.33,0,0,1,.82-2.63,5.5,5.5,0,0,1,2.4-1.74,10.3,10.3,0,0,1,3.75-.62h2.83v-1.55a2.86,2.86,0,0,0-.87-2.23,3.53,3.53,0,0,0-2.46-.79,5.6,5.6,0,0,0-1.73.24,4.89,4.89,0,0,0-1.33.67l-.31,2.21H978V445.9a7.59,7.59,0,0,1,2.49-1.31,10.66,10.66,0,0,1,3.15-.44,6.85,6.85,0,0,1,4.52,1.37,4.85,4.85,0,0,1,1.64,3.94v7.64c0,.2,0,.4,0,.6a5.65,5.65,0,0,0,0,.58l1.54.16v1.85h-4.15c-.09-.43-.16-.82-.21-1.16s-.08-.68-.1-1a7,7,0,0,1-2.09,1.78A5.34,5.34,0,0,1,982.15,460.6Zm.43-2.42a5.13,5.13,0,0,0,2.62-.69,4.36,4.36,0,0,0,1.7-1.65V453H984a4.15,4.15,0,0,0-3,.95,2.85,2.85,0,0,0-1,2.12,2,2,0,0,0,.65,1.59A2.93,2.93,0,0,0,982.58,458.18Z"/><path class="cls-5" d="M999.83,460.6a5.7,5.7,0,0,1-3.32-1A6,6,0,0,1,994.4,457a10,10,0,0,1-.74-4v-.31a12.46,12.46,0,0,1,.74-4.47,6.52,6.52,0,0,1,2.12-3,5.33,5.33,0,0,1,3.34-1.06,5.55,5.55,0,0,1,2.48.52,5,5,0,0,1,1.84,1.5v-6.46l-2.39-.41v-1.86h5.28V458l2.39.41v1.85h-4.9l-.23-1.89a5.13,5.13,0,0,1-1.9,1.64A5.79,5.79,0,0,1,999.83,460.6Zm.73-2.35a3.82,3.82,0,0,0,2.17-.58,4.46,4.46,0,0,0,1.45-1.66v-7.35a4.34,4.34,0,0,0-1.45-1.58,3.81,3.81,0,0,0-2.14-.59,3.35,3.35,0,0,0-2.27.78,4.77,4.77,0,0,0-1.33,2.17,10.81,10.81,0,0,0-.44,3.22V453a6.73,6.73,0,0,0,1,3.83A3.41,3.41,0,0,0,1000.56,458.25Z"/><path class="cls-5" d="M1011.45,460.29v-1.85l2.39-.41V446.71l-2.39-.41v-1.86h5l.19,2.07a5.15,5.15,0,0,1,2-1.75,6,6,0,0,1,2.79-.61,4.86,4.86,0,0,1,2.71.73,4.41,4.41,0,0,1,1.71,2.2,5.92,5.92,0,0,1,2-2.14,5.15,5.15,0,0,1,2.87-.79,4.73,4.73,0,0,1,3.83,1.66,7.59,7.59,0,0,1,1.41,5V458l2.39.41v1.85h-7.68v-1.85L1033,458v-7.25a5.28,5.28,0,0,0-.8-3.31,2.94,2.94,0,0,0-2.39-1,3.07,3.07,0,0,0-2.43,1.06,4.64,4.64,0,0,0-1.06,2.68V458l2.39.41v1.85H1021v-1.85l2.39-.41v-7.25a5.22,5.22,0,0,0-.83-3.26,2.88,2.88,0,0,0-2.4-1,3.93,3.93,0,0,0-2.16.54,3.45,3.45,0,0,0-1.31,1.53V458l2.39.41v1.85Z"/><path class="cls-5" d="M1040.3,460.29v-1.85l2.39-.41V446.71l-2.39-.41v-1.86h5.28V458l2.39.41v1.85Zm2.25-19.76v-3.09h3v3.09Z"/><path class="cls-5" d="M1050,460.29v-1.85l2.39-.41V446.71l-2.39-.41v-1.86h5l.21,2.36a5.88,5.88,0,0,1,2-2,5.37,5.37,0,0,1,2.72-.69,5.18,5.18,0,0,1,4,1.5,6.56,6.56,0,0,1,1.41,4.63V458l2.39.41v1.85h-7.67v-1.85l2.39-.41v-7.69a4.25,4.25,0,0,0-.83-3,3.29,3.29,0,0,0-2.52-.88,4.09,4.09,0,0,0-2.21.6,4.39,4.39,0,0,0-1.53,1.64V458l2.39.41v1.85Z"/></g></g><g class="cls-4"><g class="cls-4"><path class="cls-5" d="M976.66,625.29v-1.85L979,623V604.71l-2.38-.41v-1.86h5.27v9.11a5.86,5.86,0,0,1,2-1.77,5.52,5.52,0,0,1,2.63-.63,5.11,5.11,0,0,1,4,1.52,6.73,6.73,0,0,1,1.41,4.69V623l2.38.41v1.85h-7.66v-1.85l2.39-.41v-7.7a4.24,4.24,0,0,0-.84-2.9,3.19,3.19,0,0,0-2.51-.94,4.24,4.24,0,0,0-2.16.56,4.8,4.8,0,0,0-1.61,1.53V623l2.39.41v1.85Z"/></g><g class="cls-4"><path class="cls-5" d="M1003.12,625.6a6.79,6.79,0,0,1-3.79-1,6.7,6.7,0,0,1-2.45-2.85,9.6,9.6,0,0,1-.87-4.17v-.32a9.6,9.6,0,0,1,.87-4.17,6.73,6.73,0,0,1,2.45-2.86,7.35,7.35,0,0,1,7.54,0,6.85,6.85,0,0,1,2.46,2.85,9.72,9.72,0,0,1,.86,4.18v.32a9.72,9.72,0,0,1-.86,4.18,6.71,6.71,0,0,1-2.45,2.85A6.79,6.79,0,0,1,1003.12,625.6Zm0-2.26a3.53,3.53,0,0,0,2.3-.75,4.66,4.66,0,0,0,1.41-2.07,8.62,8.62,0,0,0,.48-3v-.32a8.59,8.59,0,0,0-.48-3,4.61,4.61,0,0,0-1.41-2.07,4,4,0,0,0-4.65,0,4.51,4.51,0,0,0-1.4,2.07,8.59,8.59,0,0,0-.47,3v.32a8.63,8.63,0,0,0,.47,3,4.51,4.51,0,0,0,1.41,2.07A3.65,3.65,0,0,0,1003.12,623.34Z"/><path class="cls-5" d="M1018.83,625.6a12.83,12.83,0,0,1-3-.33,16.85,16.85,0,0,1-3-1l0-3.77H1015l.54,2.27a9,9,0,0,0,1.59.5,8.68,8.68,0,0,0,1.66.15,3.74,3.74,0,0,0,2.52-.68,2.12,2.12,0,0,0,.77-1.67,2,2,0,0,0-.77-1.58,6.81,6.81,0,0,0-2.79-1.11,10.39,10.39,0,0,1-4.23-1.77,3.61,3.61,0,0,1-1.35-3,3.74,3.74,0,0,1,.74-2.3,5.11,5.11,0,0,1,2.08-1.62,7.54,7.54,0,0,1,3.11-.6,10,10,0,0,1,3.08.41,7.8,7.8,0,0,1,2.24,1.1l.14,3.61h-2.17l-.46-2.11a3.83,3.83,0,0,0-1.22-.58,5.66,5.66,0,0,0-1.61-.21,3.56,3.56,0,0,0-2.19.63,1.91,1.91,0,0,0-.84,1.58,1.86,1.86,0,0,0,.24,1,2,2,0,0,0,.93.74,10.44,10.44,0,0,0,2,.65,10.58,10.58,0,0,1,4.62,2,3.87,3.87,0,0,1,1.31,3,4.33,4.33,0,0,1-1.49,3.36A6.76,6.76,0,0,1,1018.83,625.6Z"/><path class="cls-5" d="M1033,625.54a3.82,3.82,0,0,1-2.8-1,4.57,4.57,0,0,1-1-3.31v-9.62h-2.5v-2.14h2.5v-3.82h2.89v3.82h3.44v2.14h-3.44v9.62a2.63,2.63,0,0,0,.45,1.69,1.51,1.51,0,0,0,1.22.54,7,7,0,0,0,1.14-.1l1-.16.4,1.88a11.92,11.92,0,0,1-1.55.34A10.58,10.58,0,0,1,1033,625.54Z"/></g><g class="cls-4"><path class="cls-5" d="M982.15,661.6a5.33,5.33,0,0,1-3.76-1.21A4.45,4.45,0,0,1,977.1,657a4.33,4.33,0,0,1,.82-2.63,5.5,5.5,0,0,1,2.4-1.74,10.3,10.3,0,0,1,3.75-.62h2.83v-1.56a2.86,2.86,0,0,0-.87-2.22,3.53,3.53,0,0,0-2.46-.79,5.6,5.6,0,0,0-1.73.24,4.89,4.89,0,0,0-1.33.67l-.31,2.21H978V646.9a7.59,7.59,0,0,1,2.49-1.31,10.66,10.66,0,0,1,3.15-.44,6.85,6.85,0,0,1,4.52,1.37,4.84,4.84,0,0,1,1.64,3.94v7.64c0,.2,0,.4,0,.6a5.65,5.65,0,0,0,0,.58l1.54.16v1.85h-4.15c-.09-.43-.16-.82-.21-1.16s-.08-.68-.1-1a7,7,0,0,1-2.09,1.78A5.34,5.34,0,0,1,982.15,661.6Zm.43-2.42a5.13,5.13,0,0,0,2.62-.69,4.36,4.36,0,0,0,1.7-1.65V654H984a4.15,4.15,0,0,0-3,1,2.85,2.85,0,0,0-1,2.12,2,2,0,0,0,.65,1.59A2.93,2.93,0,0,0,982.58,659.18Z"/><path class="cls-5" d="M999.83,661.6a5.7,5.7,0,0,1-3.32-1A6,6,0,0,1,994.4,658a10.05,10.05,0,0,1-.74-4v-.3a12.46,12.46,0,0,1,.74-4.47,6.52,6.52,0,0,1,2.12-3,5.33,5.33,0,0,1,3.34-1.06,5.55,5.55,0,0,1,2.48.52,5,5,0,0,1,1.84,1.5v-6.46l-2.39-.41v-1.86h5.28V659l2.39.41v1.85h-4.9l-.23-1.89a5.13,5.13,0,0,1-1.9,1.64A5.79,5.79,0,0,1,999.83,661.6Zm.73-2.35a3.82,3.82,0,0,0,2.17-.58,4.46,4.46,0,0,0,1.45-1.66v-7.35a4.34,4.34,0,0,0-1.45-1.58,3.81,3.81,0,0,0-2.14-.59,3.35,3.35,0,0,0-2.27.78,4.77,4.77,0,0,0-1.33,2.17,10.81,10.81,0,0,0-.44,3.22v.3a6.74,6.74,0,0,0,1,3.84A3.41,3.41,0,0,0,1000.56,659.25Z"/><path class="cls-5" d="M1011.45,661.29v-1.85l2.39-.41V647.71l-2.39-.41v-1.86h5l.19,2.06a5.21,5.21,0,0,1,2-1.74,6,6,0,0,1,2.79-.61,4.86,4.86,0,0,1,2.71.73,4.41,4.41,0,0,1,1.71,2.2,5.84,5.84,0,0,1,2-2.14,5.15,5.15,0,0,1,2.87-.79,4.73,4.73,0,0,1,3.83,1.66,7.57,7.57,0,0,1,1.41,5V659l2.39.41v1.85h-7.68v-1.85L1033,659v-7.25a5.33,5.33,0,0,0-.8-3.32,3,3,0,0,0-2.39-1,3,3,0,0,0-2.43,1.06,4.64,4.64,0,0,0-1.06,2.68V659l2.39.41v1.85H1021v-1.85l2.39-.41v-7.25a5.22,5.22,0,0,0-.83-3.26,2.88,2.88,0,0,0-2.4-1,3.93,3.93,0,0,0-2.16.54,3.45,3.45,0,0,0-1.31,1.53V659l2.39.41v1.85Z"/><path class="cls-5" d="M1040.3,661.29v-1.85l2.39-.41V647.71l-2.39-.41v-1.86h5.28V659l2.39.41v1.85Zm2.25-19.76v-3.09h3v3.09Z"/><path class="cls-5" d="M1050,661.29v-1.85l2.39-.41V647.71l-2.39-.41v-1.86h5l.21,2.36a5.88,5.88,0,0,1,2-2,5.37,5.37,0,0,1,2.72-.69,5.18,5.18,0,0,1,4,1.5,6.56,6.56,0,0,1,1.41,4.63V659l2.39.41v1.85h-7.67v-1.85l2.39-.41v-7.69a4.25,4.25,0,0,0-.83-3,3.29,3.29,0,0,0-2.52-.88,4.09,4.09,0,0,0-2.21.6,4.39,4.39,0,0,0-1.53,1.64V659l2.39.41v1.85Z"/></g></g><line class="cls-20" x1="615" y1="430.11" x2="566.55" y2="430.11"/><polygon class="cls-13" points="580.47 412.93 583.34 416.01 568.17 430.11 583.34 444.21 580.47 447.28 562 430.11 580.47 412.93"/><line class="cls-20" x1="848" y1="430.11" x2="627.55" y2="430.11"/><polygon class="cls-13" points="641.47 412.93 644.34 416.01 629.17 430.11 644.34 444.21 641.47 447.28 623 430.11 641.47 412.93"/><line class="cls-20" x1="554" y1="431.11" x2="512.55" y2="431.11"/><polygon class="cls-13" points="526.47 413.93 529.34 417.01 514.17 431.11 529.34 445.21 526.47 448.28 508 431.11 526.47 413.93"/><line class="cls-23" x1="1066" y1="44.11" x2="1046" y2="44.11"/><circle class="cls-21" cx="1025.85" cy="44.23" r="11.12"/><line class="cls-22" x1="1017.99" y1="52.09" x2="1033.71" y2="36.37"/><g class="cls-4"><text class="cls-24" transform="translate(1077.11 20.4)">c</text><text class="cls-25" transform="translate(1086.49 20.4)">an a</text><text class="cls-26" transform="translate(1128.81 20.4)">c<tspan class="cls-27" x="8.69" y="0">c</tspan></text><text class="cls-25" transform="translate(1147.57 20.4)">ess</text></g><g class="cls-4"><text class="cls-24" transform="translate(1077.11 54.4)">c</text><text class="cls-25" transform="translate(1086.49 54.4)">an N</text><text class="cls-28" transform="translate(1132.53 54.4)">O</text><text class="cls-29" transform="translate(1147.05 54.4)">T</text><text class="cls-25" transform="translate(1158.81 54.4)"><tspan xml:space="preserve"> a</tspan></text><text class="cls-26" transform="translate(1176.9 54.4)">c<tspan class="cls-27" x="8.69" y="0">c</tspan></text><text class="cls-25" transform="translate(1195.67 54.4)">ess</text></g><line class="cls-30" x1="1015.04" y1="12.11" x2="1066" y2="12.11"/><polygon class="cls-31" points="1024.31 23.56 1026.22 21.51 1016.11 12.11 1026.22 2.71 1024.31 0.66 1012 12.11 1024.31 23.56"/></g></g></svg>