<?xml version="1.0" encoding="utf-8"?>
<!-- Generator: Adobe Illustrator 26.3.1, SVG Export Plug-In . SVG Version: 6.00 Build 0)  -->
<svg version="1.1" id="Ebene_1" xmlns="http://www.w3.org/2000/svg" xmlns:xlink="http://www.w3.org/1999/xlink" x="0px" y="0px"
	 viewBox="0 0 1254 696" style="enable-background:new 0 0 1254 696;" xml:space="preserve">
<style type="text/css">
	.st0{opacity:0.4;fill:url(#SVGID_1_);enable-background:new    ;}
	.st1{fill:url(#SVGID_00000005953395710872738760000002124710962601341621_);stroke:#FFCC00;stroke-width:6;stroke-miterlimit:10;}
	.st2{fill:#FFFFFF;stroke:#FFCC00;stroke-width:6;stroke-miterlimit:10;}
	.st3{fill:none;stroke:#330066;stroke-width:6;stroke-miterlimit:10;}
	.st4{fill:#FFFFFF;stroke:#FFCB03;stroke-width:6;stroke-linecap:round;stroke-linejoin:round;}
	.st5{fill:none;stroke:#FFCB03;stroke-width:6;stroke-linecap:round;stroke-linejoin:round;}
	.st6{fill:#FFCB03;}
	.st7{fill:none;stroke:#FFCC00;stroke-width:15;stroke-linecap:round;stroke-miterlimit:10;}
	.st8{enable-background:new    ;}
	.st9{fill:#330066;}
	.st10{fill:#FFFFFF;}
	.st11{fill:url(#SVGID_00000060730153087878254420000011302165254412372898_);stroke:#FFCC00;stroke-width:6;stroke-miterlimit:10;}
	.st12{fill:#0F1689;}
	.st13{fill-rule:evenodd;clip-rule:evenodd;fill:#0F1689;}
</style>
<g id="Ebene_1_00000119837443824735100960000013129151306030785679_">
	
		<linearGradient id="SVGID_1_" gradientUnits="userSpaceOnUse" x1="60" y1="370" x2="1186" y2="370" gradientTransform="matrix(1 0 0 -1 0 698)">
		<stop  offset="0" style="stop-color:#990066"/>
		<stop  offset="0.19" style="stop-color:#780066"/>
		<stop  offset="0.4" style="stop-color:#5A0066"/>
		<stop  offset="0.61" style="stop-color:#440066"/>
		<stop  offset="0.81" style="stop-color:#370066"/>
		<stop  offset="1" style="stop-color:#330066"/>
	</linearGradient>
	<path class="st0" d="M68,247h1110c4.4,0,8,3.6,8,8v146c0,4.4-3.6,8-8,8H68c-4.4,0-8-3.6-8-8V255C60,250.6,63.6,247,68,247z"/>
	
		<linearGradient id="SVGID_00000165216796582963014180000001825442633249319568_" gradientUnits="userSpaceOnUse" x1="448.29" y1="91" x2="797" y2="91" gradientTransform="matrix(1 0 0 -1 0 698)">
		<stop  offset="0" style="stop-color:#990066"/>
		<stop  offset="0.19" style="stop-color:#780066"/>
		<stop  offset="0.4" style="stop-color:#5A0066"/>
		<stop  offset="0.61" style="stop-color:#440066"/>
		<stop  offset="0.81" style="stop-color:#370066"/>
		<stop  offset="1" style="stop-color:#330066"/>
	</linearGradient>
	
		<path style="fill:url(#SVGID_00000165216796582963014180000001825442633249319568_);stroke:#FFCC00;stroke-width:6;stroke-miterlimit:10;" d="
		M456.3,557H789c4.4,0,8,3.6,8,8v84c0,4.4-3.6,8-8,8H456.3c-4.4,0-8-3.6-8-8v-84C448.3,560.6,451.9,557,456.3,557z"/>
	<path class="st2" d="M105,278h1036c4.4,0,8,3.6,8,8v84c0,4.4-3.6,8-8,8H105c-4.4,0-8-3.6-8-8v-84C97,281.6,100.6,278,105,278z"/>
	<path class="st3" d="M68,41h1110c4.4,0,8,3.6,8,8v84c0,4.4-3.6,8-8,8H68c-4.4,0-8-3.6-8-8V49C60,44.6,63.6,41,68,41z"/>
	<path class="st4" d="M596.6,529.8c10.5-10.4,27.5-10.2,37.9,0.3c10.4,10.5,10.2,27.5-0.3,37.9c-10.5,10.4-27.5,10.2-37.9-0.3
		c-4.9-5-7.7-11.8-7.7-18.8c0-5.9,1.9-11.6,5.5-16.2"/>
	<path class="st5" d="M614.7,562H605c-1.3,0-1.8-0.5-1.8-1.8v-14.8c0-1.3,0.5-1.8,1.8-1.8h19.3c1.3,0,1.8,0.5,1.8,1.8v14.8
		c0,1.3-0.5,1.8-1.8,1.8C621.1,562,617.9,562,614.7,562z"/>
	<path class="st5" d="M604.8,544.2c0.3-4.1,2-7.7,6-9.5c4.8-2.1,10.4,0,12.6,4.8c0,0,0,0,0,0.1c0.2,0.5,0.4,1.1,0.6,1.6
		c0.2,0.9,0.3,1.8,0.5,2.7"/>
	<path class="st6" d="M613.1,555.7L613.1,555.7v2c0,0.4,0.1,0.5,0.6,0.5h1.9c0.5,0,0.7-0.1,0.7-0.6v-3.7c0-0.4,0.2-0.7,0.5-0.9
		c1.2-0.6,1.8-2,1.4-3.3c-0.6-1.3-1.9-2.2-3.3-2.2c-1.5-0.1-2.9,0.7-3.7,2c-0.5,1.3,0,2.8,1.3,3.5c0.4,0.2,0.7,0.6,0.6,1.1V555.7z"
		/>
	<polyline class="st7" points="636.4,467.8 615.9,488.2 595.4,467.8 	"/>
	<line class="st7" x1="615.9" y1="436.2" x2="615.9" y2="477.8"/>
	<polyline class="st7" points="240.4,467.8 219.9,488.2 199.4,467.8 	"/>
	<line class="st7" x1="219.9" y1="436.2" x2="219.9" y2="477.8"/>
	<polyline class="st7" points="636.4,211.8 615.9,232.2 595.4,211.8 	"/>
	<line class="st7" x1="615.9" y1="180.2" x2="615.9" y2="221.8"/>
	<g class="st8">
		<path class="st9" d="M514.2,341.5c-1.6,0-3-0.2-4.3-0.5s-2.6-1-3.8-1.8V334h3.3l0.5,3c0.4,0.4,1,0.7,1.8,0.9s1.6,0.3,2.5,0.3
			c0.8,0,1.4-0.1,2-0.3s0.9-0.5,1.2-0.9c0.3-0.4,0.4-0.9,0.4-1.4c0-0.5-0.1-1-0.4-1.4c-0.2-0.4-0.7-0.8-1.2-1.1
			c-0.6-0.3-1.3-0.6-2.3-0.9c-1.7-0.5-3.1-1-4.2-1.6c-1.1-0.6-1.9-1.3-2.5-2.1s-0.8-1.8-0.8-3c0-1.2,0.3-2.2,1-3.1s1.5-1.6,2.7-2.1
			s2.4-0.8,3.9-0.8c1.6,0,3.1,0.2,4.4,0.6s2.4,1,3.3,1.7v4.8h-3.2l-0.6-2.9c-0.4-0.2-0.9-0.4-1.5-0.6s-1.3-0.3-2.1-0.3
			c-0.7,0-1.3,0.1-1.8,0.3s-0.9,0.5-1.2,0.9s-0.5,0.9-0.5,1.4c0,0.5,0.1,0.9,0.4,1.3c0.3,0.4,0.7,0.7,1.3,1s1.5,0.7,2.6,1
			c2.4,0.7,4.1,1.5,5.4,2.6s1.8,2.5,1.8,4.2c0,1.2-0.3,2.3-1,3.1s-1.6,1.6-2.8,2S515.8,341.5,514.2,341.5z"/>
		<path class="st9" d="M533.9,341.5c-2.1,0-3.9-0.4-5.4-1.3c-1.5-0.9-2.7-2.1-3.6-3.7c-0.8-1.6-1.3-3.5-1.3-5.6v-0.7
			c0-2.1,0.4-3.9,1.2-5.5c0.8-1.6,2-2.8,3.4-3.8s3.3-1.4,5.3-1.4c1.4,0,2.8,0.2,4.1,0.6s2.4,1,3.4,1.9v5.2H538l-0.4-3.2
			c-0.3-0.2-0.7-0.4-1.1-0.6s-0.8-0.3-1.2-0.4s-0.9-0.1-1.4-0.1c-1.2,0-2.3,0.3-3.1,0.9s-1.5,1.4-2,2.5c-0.5,1.1-0.7,2.4-0.7,3.9
			v0.7c0,1.5,0.2,2.8,0.7,3.9s1.2,1.9,2.1,2.5c0.9,0.6,2,0.9,3.2,0.9c0.6,0,1.2-0.1,1.9-0.2s1.2-0.3,1.7-0.5l0.4-3h3.2v5.1
			c-0.8,0.5-1.9,1-3.1,1.4C536.8,341.3,535.5,341.5,533.9,341.5z"/>
		<path class="st9" d="M552.9,341.5c-1.4,0-2.7-0.3-3.9-0.8s-2.2-1.3-3.1-2.3c-0.9-1-1.5-2.1-2-3.4c-0.5-1.3-0.7-2.8-0.7-4.3v-0.3
			c0-1.6,0.2-3,0.7-4.3c0.5-1.3,1.1-2.5,2-3.4s1.9-1.7,3-2.3s2.5-0.8,3.9-0.8c1.4,0,2.8,0.3,4,0.8s2.2,1.3,3.1,2.3s1.5,2.1,2,3.4
			c0.5,1.3,0.7,2.7,0.7,4.3v0.3c0,1.6-0.2,3-0.7,4.3c-0.5,1.3-1.1,2.5-2,3.4c-0.9,1-1.9,1.7-3.1,2.3S554.4,341.5,552.9,341.5z
			 M552.9,338.2c1.2,0,2.2-0.3,3-0.9s1.4-1.5,1.8-2.6s0.6-2.4,0.6-3.9v-0.4c0-1.5-0.2-2.8-0.6-3.9c-0.4-1.1-1-2-1.8-2.6
			s-1.8-0.9-3-0.9c-1.2,0-2.2,0.3-3,0.9s-1.4,1.5-1.8,2.6s-0.6,2.4-0.6,3.9v0.4c0,1.5,0.2,2.8,0.6,3.9s1,2,1.8,2.6
			S551.7,338.2,552.9,338.2z"/>
		<path class="st9" d="M564.3,341.2v-2.6l2.3-0.4v-15.3l-2.3-0.4v-2.6h2.3h4.3l9.3,14.8l0.1,0v-11.8l-2.7-0.4v-2.6h6.5h2.3v2.6
			l-2.3,0.4v18.3H580l-9.5-14.6l-0.1,0v11.6l2.7,0.4v2.6H564.3z"/>
		<path class="st9" d="M587.8,341.2v-2.6l2.3-0.4v-15.3l-2.3-0.4v-2.6h8.8v2.6l-2.3,0.4v15.3l2.3,0.4v2.6H587.8z"/>
		<path class="st9" d="M598.3,341.2v-2.6l2.3-0.4v-15.3l-2.3-0.4v-2.6h17v5.8H612l-0.2-2.5h-7v5.9h7.5v3.3h-7.5v5.9l2.3,0.4v2.6
			H598.3z"/>
		<path class="st9" d="M622.6,341.2v-2.6l2.3-0.4v-4.3l-6.3-11.1l-2.1-0.3v-2.6h8.5v2.6l-1.7,0.2l3.5,6.8l0.3,0.7l0.1,0l0.3-0.6
			l3.9-6.8l-2.3-0.2v-2.6h8.3v2.6l-2.1,0.3l-6.2,10.8v4.6l2.3,0.4v2.6H622.6z"/>
		<path class="st9" d="M646.2,341.2v-2.6l2.3-0.4v-15.3l-2.3-0.4v-2.6h8.8v2.6l-2.3,0.4v15.3l2.3,0.4v2.6H646.2z"/>
		<path class="st9" d="M656.7,341.2v-2.6l2.3-0.4v-15.3l-2.3-0.4v-2.6h2.3h6.3l5.8,14.9h0.1l5.6-14.9h8.6v2.6l-2.3,0.4v15.3l2.3,0.4
			v2.6h-8.8v-2.6l2.4-0.4v-4.1l0.1-9.6l-0.1,0l-6.4,16.4h-3.2l-6.5-16.3l-0.1,0l0.2,9.1v4.5l2.5,0.4v2.6H656.7z"/>
	</g>
	<g class="st8">
		<path class="st9" d="M682.8,341.2v-2.6l1.5-0.2l6.8-18.5h4.4l6.7,18.5l1.5,0.2v2.6h-7.3v-2.6l1.5-0.3l-0.9-2.9h-7.5l-0.9,2.9
			l1.5,0.3v2.6H682.8z M690.6,332.3h5.5l-2.5-7.3l-0.2-0.6h-0.1l-0.2,0.7L690.6,332.3z"/>
	</g>
	<g class="st8">
		<path class="st9" d="M713.6,341.5c-2.1,0-3.9-0.4-5.4-1.3s-2.6-2.1-3.4-3.7s-1.2-3.4-1.2-5.4v-0.7c0-2.1,0.4-4,1.2-5.6
			s1.9-2.9,3.4-3.8s3.2-1.4,5.1-1.4c1.5,0,3,0.2,4.3,0.6s2.5,1,3.5,1.9v4.7h-3.2l-0.6-2.9c-0.4-0.3-0.9-0.6-1.5-0.8
			s-1.4-0.3-2.2-0.3c-1.2,0-2.2,0.3-3.1,0.9s-1.5,1.5-2,2.6s-0.7,2.4-0.7,3.9v0.8c0,1.4,0.2,2.7,0.7,3.8c0.5,1.1,1.1,1.9,2,2.5
			s2,0.9,3.2,0.9c0.8,0,1.4-0.1,2.1-0.2s1.1-0.3,1.6-0.5v-3.6l-3-0.2v-3h7.3v8.6c-0.9,0.7-2.1,1.2-3.4,1.6S715.4,341.5,713.6,341.5z
			"/>
		<path class="st9" d="M723.8,341.2v-2.6l2.3-0.4v-15.3l-2.3-0.4v-2.6h16.6v5.8h-3.3l-0.2-2.5h-6.5v5.4h7.2v3.3h-7.2v6.1h6.9
			l0.2-2.5h3.3v5.8H723.8z"/>
	</g>
	<g class="st8">
		<path class="st10" d="M492.6,618.3c-1.6,0-3-0.3-4.1-1c-1.2-0.7-2.1-1.6-2.7-2.8c-0.6-1.2-0.9-2.5-0.9-4.1V610
			c0-1.5,0.3-2.9,1-4.1s1.5-2.1,2.7-2.8c1.2-0.7,2.5-1,4.1-1c1.5,0,2.8,0.2,3.9,0.7c1.1,0.4,2,0.9,2.6,1.5l0,4.5h-3.4L495,606
			c-0.2-0.2-0.6-0.4-0.9-0.6c-0.4-0.1-0.8-0.2-1.2-0.2c-0.8,0-1.5,0.2-2,0.6c-0.5,0.4-0.9,0.9-1.2,1.6c-0.3,0.7-0.4,1.6-0.4,2.6v0.4
			c0,1.1,0.1,1.9,0.4,2.6c0.3,0.7,0.7,1.2,1.2,1.5c0.5,0.3,1.1,0.5,1.7,0.5c0.8,0,1.4-0.2,1.9-0.6c0.5-0.4,0.8-0.9,1-1.6h3.8l0,0.1
			c-0.2,1.1-0.5,2.1-1,2.9c-0.5,0.8-1.2,1.4-2.2,1.9C495.2,618.1,494,618.3,492.6,618.3z"/>
		<path class="st10" d="M509.3,618.3c-1.6,0-3-0.3-4.2-1c-1.2-0.7-2.1-1.6-2.7-2.8c-0.6-1.2-0.9-2.6-0.9-4.1v-0.3
			c0-1.5,0.3-2.9,0.9-4.1c0.6-1.2,1.5-2.1,2.7-2.8c1.2-0.7,2.6-1,4.2-1c1.6,0,3.1,0.3,4.2,1c1.2,0.7,2.1,1.6,2.7,2.8
			s0.9,2.6,0.9,4.1v0.3c0,1.6-0.3,2.9-0.9,4.1c-0.6,1.2-1.5,2.1-2.7,2.8C512.3,617.9,511,618.3,509.3,618.3z M509.3,615.1
			c0.8,0,1.4-0.2,1.9-0.6c0.5-0.4,0.9-0.9,1.1-1.6c0.2-0.7,0.4-1.5,0.4-2.5v-0.3c0-0.9-0.1-1.7-0.4-2.4c-0.2-0.7-0.6-1.3-1.1-1.7
			c-0.5-0.4-1.1-0.6-1.9-0.6c-0.8,0-1.4,0.2-1.9,0.6s-0.9,0.9-1.1,1.7c-0.2,0.7-0.3,1.5-0.3,2.4v0.3c0,0.9,0.1,1.8,0.3,2.5
			c0.2,0.7,0.6,1.3,1.1,1.6S508.5,615.1,509.3,615.1z"/>
		<path class="st10" d="M519,618v-2.5l2.2-0.4v-9.6l-2.4-0.4v-2.5h6.6l0.2,2.2c0.6-0.8,1.2-1.4,2.1-1.9c0.8-0.4,1.7-0.7,2.8-0.7
			c1.6,0,2.9,0.5,3.9,1.5s1.4,2.5,1.4,4.6v6.8l2.2,0.4v2.5h-8.6v-2.5l1.9-0.4v-6.7c0-1-0.2-1.8-0.7-2.2s-1.1-0.7-2-0.7
			c-0.6,0-1.2,0.1-1.7,0.4c-0.5,0.3-0.9,0.6-1.2,1.1v8.2l1.8,0.4v2.5H519z"/>
		<path class="st10" d="M538.9,618v-2.5l2.4-0.4v-9.6h-2.5v-2.9h2.5v-1.1c0-2,0.6-3.5,1.9-4.5c1.3-1.1,3.1-1.6,5.4-1.6
			c0.8,0,1.6,0.1,2.4,0.2s1.7,0.4,2.7,0.6l-0.6,3.3c-0.7-0.2-1.4-0.4-2-0.5c-0.6-0.1-1.3-0.2-1.9-0.2c-1.1,0-1.9,0.2-2.5,0.7
			c-0.5,0.4-0.8,1.1-0.8,1.9v1.1h10.1V615l2.4,0.4v2.5h-9v-2.5l2.2-0.4v-9.6h-5.6v9.6l2.2,0.4v2.5H538.9z"/>
		<path class="st10" d="M566.2,618.3c-1.3,0-2.5-0.3-3.4-1c-0.9-0.6-1.7-1.5-2.2-2.7c-0.5-1.1-0.8-2.5-0.8-4v-0.3
			c0-1.6,0.3-3.1,0.8-4.3c0.5-1.2,1.2-2.2,2.2-2.9c0.9-0.7,2.1-1,3.4-1c0.9,0,1.7,0.2,2.4,0.5c0.7,0.3,1.3,0.8,1.8,1.4v-5.6
			l-2.4-0.4v-2.5h2.4h4.5V615l2.2,0.4v2.5h-6l-0.3-1.9c-0.5,0.7-1.1,1.3-1.9,1.6C568,618.1,567.1,618.3,566.2,618.3z M567.5,615
			c0.6,0,1.2-0.1,1.6-0.4c0.5-0.2,0.9-0.6,1.2-1.1V607c-0.3-0.5-0.7-0.9-1.2-1.2c-0.5-0.3-1-0.4-1.6-0.4c-0.7,0-1.4,0.2-1.8,0.6
			c-0.5,0.4-0.8,1-1,1.7c-0.2,0.7-0.3,1.6-0.3,2.6v0.3c0,1.4,0.2,2.4,0.7,3.2S566.4,615,567.5,615z"/>
		<path class="st10" d="M586.3,618.3c-1.6,0-3-0.3-4.2-1c-1.2-0.7-2.1-1.6-2.8-2.7c-0.7-1.1-1-2.5-1-3.9v-0.6c0-1.5,0.3-2.9,0.9-4.1
			c0.6-1.2,1.5-2.1,2.6-2.8c1.1-0.7,2.4-1,4-1c1.5,0,2.8,0.3,3.8,0.8c1,0.6,1.8,1.4,2.3,2.4c0.5,1,0.8,2.3,0.8,3.8v2.3h-9.8l0,0.1
			c0.1,0.7,0.2,1.3,0.5,1.8c0.3,0.5,0.7,0.9,1.3,1.2c0.6,0.3,1.2,0.5,2,0.5c0.8,0,1.6-0.1,2.3-0.3c0.7-0.2,1.4-0.5,2.1-0.9l1.2,2.6
			c-0.7,0.5-1.5,0.9-2.6,1.3C588.9,618.1,587.7,618.3,586.3,618.3z M583.1,608.7h5.5v-0.4c0-0.6-0.1-1.2-0.3-1.6
			c-0.2-0.5-0.5-0.8-0.9-1.1c-0.4-0.2-0.9-0.4-1.5-0.4c-0.6,0-1.1,0.1-1.5,0.4c-0.4,0.3-0.7,0.7-1,1.2
			C583.3,607.4,583.2,608,583.1,608.7L583.1,608.7z"/>
		<path class="st10" d="M594.8,618v-2.5l2.2-0.4v-9.6l-2.4-0.4v-2.5h6.6l0.2,2.2c0.6-0.8,1.2-1.4,2.1-1.9c0.8-0.4,1.7-0.7,2.8-0.7
			c1.6,0,2.9,0.5,3.9,1.5s1.4,2.5,1.4,4.6v6.8l2.2,0.4v2.5H605v-2.5l1.9-0.4v-6.7c0-1-0.2-1.8-0.7-2.2s-1.1-0.7-2-0.7
			c-0.6,0-1.2,0.1-1.7,0.4c-0.5,0.3-0.9,0.6-1.2,1.1v8.2l1.8,0.4v2.5H594.8z"/>
		<path class="st10" d="M621,618.3c-1.5,0-2.7-0.4-3.6-1.2c-0.8-0.8-1.3-2.1-1.3-3.8v-7.9h-2.3v-2.9h2.3v-3.8h4.5v3.8h3.1v2.9h-3.1
			v7.9c0,0.6,0.1,1,0.4,1.3c0.3,0.3,0.6,0.4,1.1,0.4c0.2,0,0.5,0,0.8-0.1c0.3,0,0.5-0.1,0.7-0.1l0.4,3c-0.5,0.1-1,0.2-1.5,0.3
			C622.1,618.2,621.6,618.3,621,618.3z"/>
		<path class="st10" d="M626,618v-2.5l2.2-0.4v-9.6l-2.4-0.4v-2.5h6.9V615l2.2,0.4v2.5H626z M628.1,599.1v-3.6h4.6v3.6H628.1z"/>
		<path class="st10" d="M641.9,618.3c-1.7,0-3-0.4-3.9-1.2c-1-0.8-1.5-2-1.5-3.4c0-1,0.3-1.8,0.9-2.6s1.4-1.3,2.5-1.7
			c1.1-0.4,2.5-0.6,4.1-0.6h2.2v-1.1c0-0.7-0.2-1.4-0.7-1.8c-0.5-0.5-1.2-0.7-2.1-0.7c-0.5,0-0.9,0.1-1.3,0.2
			c-0.4,0.1-0.7,0.3-1,0.5l-0.4,2.1h-3.2l-0.1-4c0.9-0.5,1.8-0.8,2.8-1.1c1-0.3,2.1-0.4,3.4-0.4c2.2,0,3.9,0.5,5.1,1.4
			c1.3,0.9,1.9,2.3,1.9,4v6.4c0,0.2,0,0.4,0,0.6c0,0.2,0,0.4,0.1,0.6l1.7,0.2v2.5h-5.6c-0.1-0.3-0.2-0.6-0.3-0.9s-0.2-0.6-0.2-0.9
			c-0.5,0.6-1.2,1.1-1.9,1.5C643.7,618.1,642.9,618.3,641.9,618.3z M643.1,615.2c0.6,0,1.2-0.1,1.8-0.4c0.6-0.3,1-0.6,1.3-1v-2.5
			H644c-1,0-1.7,0.2-2.2,0.6c-0.5,0.4-0.8,0.9-0.8,1.5c0,0.6,0.2,1,0.6,1.3C641.9,615,642.4,615.2,643.1,615.2z"/>
		<path class="st10" d="M653.8,618v-2.5l2.2-0.4v-16.5l-2.4-0.4v-2.5h6.9V615l2.2,0.4v2.5H653.8z"/>
		<path class="st10" d="M671.7,618v-2.5l2.2-0.4v-9.6l-2.4-0.4v-2.5h6.9V615l2.2,0.4v2.5H671.7z M673.7,599.1v-3.6h4.6v3.6H673.7z"
			/>
		<path class="st10" d="M681.8,618v-2.5l2.2-0.4v-9.6l-2.4-0.4v-2.5h6.6l0.2,2.1c0.5-0.7,1.2-1.3,2-1.7c0.8-0.4,1.7-0.6,2.8-0.6
			c1.1,0,2,0.2,2.7,0.7c0.8,0.4,1.3,1.1,1.7,2c0.5-0.8,1.2-1.5,2-2c0.8-0.5,1.8-0.7,2.9-0.7c1.6,0,2.9,0.5,3.9,1.6
			c0.9,1,1.4,2.6,1.4,4.8v6.5l2.2,0.4v2.5h-8.6v-2.5l1.9-0.4v-6.6c0-1.1-0.2-1.9-0.6-2.4s-1-0.7-1.8-0.7c-0.7,0-1.3,0.2-1.8,0.6
			c-0.5,0.4-0.8,0.9-1,1.5v7.6l1.8,0.4v2.5h-8.1v-2.5l1.8-0.4v-6.6c0-1.1-0.2-1.9-0.6-2.4s-1-0.7-1.8-0.7c-0.6,0-1.2,0.1-1.6,0.4
			c-0.5,0.2-0.8,0.6-1.1,1v8.2l1.9,0.4v2.5H681.8z"/>
		<path class="st10" d="M717,618.3c-1.7,0-3-0.4-3.9-1.2c-1-0.8-1.5-2-1.5-3.4c0-1,0.3-1.8,0.9-2.6s1.4-1.3,2.5-1.7
			c1.1-0.4,2.5-0.6,4.1-0.6h2.2v-1.1c0-0.7-0.2-1.4-0.7-1.8c-0.5-0.5-1.2-0.7-2.1-0.7c-0.5,0-0.9,0.1-1.3,0.2
			c-0.4,0.1-0.7,0.3-1,0.5l-0.4,2.1h-3.2l-0.1-4c0.9-0.5,1.8-0.8,2.8-1.1c1-0.3,2.1-0.4,3.4-0.4c2.2,0,3.9,0.5,5.1,1.4
			c1.3,0.9,1.9,2.3,1.9,4v6.4c0,0.2,0,0.4,0,0.6c0,0.2,0,0.4,0.1,0.6l1.7,0.2v2.5H722c-0.1-0.3-0.2-0.6-0.3-0.9s-0.2-0.6-0.2-0.9
			c-0.5,0.6-1.2,1.1-1.9,1.5C718.8,618.1,718,618.3,717,618.3z M718.2,615.2c0.6,0,1.2-0.1,1.8-0.4c0.6-0.3,1-0.6,1.3-1v-2.5h-2.2
			c-1,0-1.7,0.2-2.2,0.6c-0.5,0.4-0.8,0.9-0.8,1.5c0,0.6,0.2,1,0.6,1.3C717,615,717.5,615.2,718.2,615.2z"/>
		<path class="st10" d="M736.5,624.2c-0.8,0-1.8-0.1-2.8-0.3s-2-0.5-2.8-0.9l0.8-3c0.7,0.3,1.5,0.5,2.3,0.7c0.8,0.2,1.6,0.3,2.2,0.3
			c1.2,0,2.1-0.3,2.6-0.9c0.6-0.6,0.8-1.5,0.8-2.6v-1c-0.5,0.6-1.1,1-1.7,1.3c-0.7,0.3-1.4,0.5-2.3,0.5c-1.4,0-2.5-0.3-3.5-1
			c-1-0.6-1.7-1.5-2.2-2.7c-0.5-1.1-0.8-2.5-0.8-4v-0.3c0-1.6,0.3-3.1,0.8-4.3s1.2-2.2,2.2-2.9c1-0.7,2.1-1,3.4-1
			c1,0,1.8,0.2,2.6,0.6c0.7,0.4,1.3,0.9,1.8,1.7l0.3-2h3.9v15.1c0,1.4-0.3,2.6-0.9,3.6c-0.6,1-1.5,1.8-2.7,2.3
			C739.5,624,738.1,624.2,736.5,624.2z M737,615c0.6,0,1.2-0.1,1.6-0.4c0.5-0.2,0.8-0.6,1.1-1v-6.7c-0.3-0.5-0.7-0.8-1.1-1.1
			c-0.5-0.3-1-0.4-1.6-0.4c-0.8,0-1.4,0.2-1.9,0.6c-0.5,0.4-0.8,1-1.1,1.7s-0.3,1.6-0.3,2.6v0.3c0,1.4,0.3,2.4,0.8,3.2
			S735.8,615,737,615z M743.7,605.5l-2-3h4.5v2.5L743.7,605.5z"/>
		<path class="st10" d="M755.3,618.3c-1.6,0-3-0.3-4.2-1c-1.2-0.7-2.1-1.6-2.8-2.7c-0.7-1.1-1-2.5-1-3.9v-0.6c0-1.5,0.3-2.9,0.9-4.1
			c0.6-1.2,1.5-2.1,2.6-2.8c1.1-0.7,2.4-1,4-1c1.5,0,2.8,0.3,3.8,0.8c1,0.6,1.8,1.4,2.3,2.4c0.5,1,0.8,2.3,0.8,3.8v2.3h-9.8l0,0.1
			c0.1,0.7,0.2,1.3,0.5,1.8c0.3,0.5,0.7,0.9,1.3,1.2c0.6,0.3,1.2,0.5,2,0.5c0.8,0,1.6-0.1,2.3-0.3c0.7-0.2,1.4-0.5,2.1-0.9l1.2,2.6
			c-0.7,0.5-1.5,0.9-2.6,1.3S756.7,618.3,755.3,618.3z M752.1,608.7h5.5v-0.4c0-0.6-0.1-1.2-0.3-1.6c-0.2-0.5-0.5-0.8-0.9-1.1
			s-0.9-0.4-1.5-0.4c-0.6,0-1.1,0.1-1.5,0.4s-0.7,0.7-1,1.2C752.3,607.4,752.2,608,752.1,608.7L752.1,608.7z"/>
	</g>
	
		<linearGradient id="SVGID_00000049204404650108765410000005048853568589281970_" gradientUnits="userSpaceOnUse" x1="53.29" y1="91" x2="402" y2="91" gradientTransform="matrix(1 0 0 -1 0 698)">
		<stop  offset="0" style="stop-color:#990066"/>
		<stop  offset="0.19" style="stop-color:#780066"/>
		<stop  offset="0.4" style="stop-color:#5A0066"/>
		<stop  offset="0.61" style="stop-color:#440066"/>
		<stop  offset="0.81" style="stop-color:#370066"/>
		<stop  offset="1" style="stop-color:#330066"/>
	</linearGradient>
	
		<path style="fill:url(#SVGID_00000049204404650108765410000005048853568589281970_);stroke:#FFCC00;stroke-width:6;stroke-miterlimit:10;" d="
		M61.3,557H394c4.4,0,8,3.6,8,8v84c0,4.4-3.6,8-8,8H61.3c-4.4,0-8-3.6-8-8v-84C53.3,560.6,56.9,557,61.3,557z"/>
	<path class="st4" d="M201.6,529.8c10.5-10.4,27.5-10.2,37.9,0.3c10.4,10.5,10.2,27.5-0.3,37.9c-10.5,10.4-27.5,10.2-37.9-0.3
		c-4.9-5-7.7-11.8-7.7-18.8c0-5.9,1.9-11.6,5.5-16.2"/>
	<path class="st5" d="M219.7,562H210c-1.3,0-1.8-0.5-1.8-1.8v-14.8c0-1.3,0.5-1.8,1.8-1.8h19.3c1.3,0,1.8,0.5,1.8,1.8v14.8
		c0,1.3-0.5,1.8-1.8,1.8C226.1,562,222.9,562,219.7,562z"/>
	<path class="st5" d="M209.8,544.2c0.3-4.1,2-7.7,6-9.5c4.8-2.1,10.4,0,12.6,4.8c0,0,0,0,0,0.1c0.2,0.5,0.4,1.1,0.6,1.6
		c0.2,0.9,0.3,1.8,0.5,2.7"/>
	<path class="st6" d="M218.1,555.7L218.1,555.7v2c0,0.4,0.1,0.5,0.6,0.5h1.9c0.5,0,0.7-0.1,0.7-0.6v-3.7c0-0.4,0.2-0.7,0.5-0.9
		c1.2-0.6,1.8-2,1.4-3.3c-0.6-1.3-1.9-2.2-3.3-2.2c-1.5-0.1-2.9,0.7-3.7,2c-0.5,1.3,0,2.8,1.3,3.5c0.4,0.2,0.7,0.6,0.6,1.1V555.7z"
		/>
	<g class="st8">
		<path class="st10" d="M182.8,623.9v-2.5l2.2-0.4v-15.6l-2.4-0.4v-2.5h6.5l0.2,1.8c0.5-0.7,1.1-1.2,1.8-1.6
			c0.7-0.4,1.5-0.5,2.5-0.5c1.3,0,2.5,0.3,3.4,1c1,0.7,1.7,1.6,2.2,2.9c0.5,1.2,0.8,2.7,0.8,4.3v0.3c0,1.5-0.3,2.9-0.8,4
			c-0.5,1.1-1.2,2-2.2,2.7c-1,0.6-2.1,1-3.5,1c-0.9,0-1.7-0.2-2.4-0.5c-0.7-0.3-1.3-0.7-1.7-1.3v4.5l2.2,0.4v2.5H182.8z
			 M192.2,615.1c1.1,0,2-0.4,2.5-1.2c0.5-0.8,0.8-1.9,0.8-3.2v-0.3c0-1-0.1-1.8-0.4-2.6s-0.6-1.3-1.1-1.7c-0.5-0.4-1.1-0.6-1.9-0.6
			c-0.6,0-1.2,0.1-1.6,0.4s-0.8,0.6-1.1,1.1v6.8c0.3,0.4,0.6,0.8,1.1,1S191.5,615.1,192.2,615.1z"/>
	</g>
	<g class="st8">
		<path class="st10" d="M209.8,618.3c-1.6,0-3-0.3-4.2-1c-1.2-0.7-2.1-1.6-2.7-2.8c-0.6-1.2-0.9-2.6-0.9-4.1v-0.3
			c0-1.5,0.3-2.9,0.9-4.1c0.6-1.2,1.5-2.1,2.7-2.8c1.2-0.7,2.6-1,4.2-1c1.6,0,3.1,0.3,4.2,1c1.2,0.7,2.1,1.6,2.7,2.8
			s0.9,2.6,0.9,4.1v0.3c0,1.6-0.3,2.9-0.9,4.1c-0.6,1.2-1.5,2.1-2.7,2.8C212.9,617.9,211.5,618.3,209.8,618.3z M209.8,615.1
			c0.8,0,1.4-0.2,1.9-0.6c0.5-0.4,0.9-0.9,1.1-1.6c0.2-0.7,0.4-1.5,0.4-2.5v-0.3c0-0.9-0.1-1.7-0.4-2.4c-0.2-0.7-0.6-1.3-1.1-1.7
			c-0.5-0.4-1.1-0.6-1.9-0.6c-0.8,0-1.4,0.2-1.9,0.6s-0.9,0.9-1.1,1.7c-0.2,0.7-0.3,1.5-0.3,2.4v0.3c0,0.9,0.1,1.8,0.3,2.5
			c0.2,0.7,0.6,1.3,1.1,1.6S209.1,615.1,209.8,615.1z"/>
	</g>
	<g class="st8">
		<path class="st10" d="M219,618v-2.5l2.2-0.4v-16.5l-2.4-0.4v-2.5h6.9V615l2.2,0.4v2.5H219z"/>
		<path class="st10" d="M229.1,618v-2.5l2.2-0.4v-9.6l-2.4-0.4v-2.5h6.9V615l2.2,0.4v2.5H229.1z M231.2,599.1v-3.6h4.6v3.6H231.2z"
			/>
		<path class="st10" d="M247.3,618.3c-1.6,0-3-0.3-4.1-1c-1.2-0.7-2.1-1.6-2.7-2.8c-0.6-1.2-0.9-2.5-0.9-4.1V610
			c0-1.5,0.3-2.9,1-4.1s1.5-2.1,2.7-2.8c1.2-0.7,2.5-1,4.1-1c1.5,0,2.8,0.2,3.9,0.7c1.1,0.4,2,0.9,2.6,1.5l0,4.5h-3.4l-0.6-2.8
			c-0.2-0.2-0.6-0.4-0.9-0.6c-0.4-0.1-0.8-0.2-1.2-0.2c-0.8,0-1.5,0.2-2,0.6c-0.5,0.4-0.9,0.9-1.2,1.6c-0.3,0.7-0.4,1.6-0.4,2.6v0.4
			c0,1.1,0.1,1.9,0.4,2.6c0.3,0.7,0.7,1.2,1.2,1.5c0.5,0.3,1.1,0.5,1.7,0.5c0.8,0,1.4-0.2,1.9-0.6c0.5-0.4,0.8-0.9,1-1.6h3.8l0,0.1
			c-0.2,1.1-0.5,2.1-1,2.9c-0.5,0.8-1.2,1.4-2.2,1.9C249.9,618.1,248.7,618.3,247.3,618.3z"/>
		<path class="st10" d="M260.7,624.2c-0.4,0-0.8,0-1.2-0.1c-0.4-0.1-0.8-0.1-1.2-0.3l0.5-3.1c0.2,0,0.4,0.1,0.6,0.1
			c0.2,0,0.4,0,0.6,0c0.6,0,1.2-0.2,1.7-0.5c0.5-0.3,0.8-0.8,1-1.4l0.4-1l-5.6-12.9l-2-0.3v-2.5h8.8v2.5l-2,0.3l2.6,6.9l0.3,0.8h0.1
			l3.1-7.7l-2-0.3v-2.5h8.2v2.5l-1.9,0.2l-6.3,15.1c-0.3,0.7-0.7,1.4-1.2,2c-0.5,0.6-1.1,1.1-1.8,1.4
			C262.6,624.1,261.7,624.2,260.7,624.2z"/>
	</g>
	<g class="st8">
		<path class="st9" d="M532.7,100.2v-2.6l2.1-0.4v-9.8l-2.3-0.4v-2.6h6.3l0.2,2.3c0.5-0.8,1.2-1.4,2-1.9s1.7-0.7,2.7-0.7
			c1.6,0,2.8,0.5,3.7,1.5s1.3,2.6,1.3,4.7v6.9l2.1,0.4v2.6h-8.2v-2.6l1.8-0.4v-6.9c0-1.1-0.2-1.8-0.6-2.3s-1-0.7-1.9-0.7
			c-0.6,0-1.1,0.1-1.6,0.4c-0.5,0.3-0.8,0.6-1.1,1.1v8.3l1.7,0.4v2.6H532.7z"/>
	</g>
	<g class="st8">
		<path class="st9" d="M557.2,100.5c-1.6,0-2.8-0.4-3.8-1.3s-1.4-2-1.4-3.5c0-1,0.3-1.9,0.8-2.6s1.3-1.3,2.4-1.8s2.4-0.6,3.9-0.6
			h2.1v-1.2c0-0.8-0.2-1.4-0.7-1.9s-1.1-0.7-2-0.7c-0.5,0-0.9,0.1-1.2,0.2c-0.4,0.1-0.7,0.3-1,0.5l-0.3,2.1H553l-0.1-4.1
			c0.8-0.5,1.7-0.8,2.7-1.1s2-0.4,3.2-0.4c2.1,0,3.7,0.5,4.9,1.4s1.8,2.3,1.8,4.1v6.5c0,0.2,0,0.4,0,0.6c0,0.2,0,0.4,0.1,0.6
			l1.7,0.2v2.6H562c-0.1-0.3-0.2-0.6-0.3-0.9s-0.2-0.6-0.2-0.9c-0.5,0.6-1.1,1.2-1.8,1.5C559,100.3,558.2,100.5,557.2,100.5z
			 M558.4,97.4c0.6,0,1.2-0.1,1.7-0.4c0.5-0.3,1-0.6,1.2-1.1v-2.5h-2.1c-0.9,0-1.6,0.2-2.1,0.6s-0.7,0.9-0.7,1.6
			c0,0.6,0.2,1,0.5,1.3C557.3,97.2,557.8,97.4,558.4,97.4z"/>
	</g>
	<g class="st8">
		<path class="st9" d="M573.5,100.5c-1.5,0-2.6-0.4-3.4-1.2s-1.2-2.1-1.2-3.9v-8.1h-2.2v-3h2.2v-3.9h4.3v3.9h2.9v3h-2.9v8.1
			c0,0.6,0.1,1.1,0.4,1.3s0.6,0.4,1.1,0.4c0.2,0,0.5,0,0.8-0.1c0.3,0,0.5-0.1,0.7-0.1l0.4,3.1c-0.4,0.1-0.9,0.2-1.4,0.3
			C574.5,100.5,574,100.5,573.5,100.5z"/>
		<path class="st9" d="M578.3,100.2v-2.6l2.1-0.4v-9.8L578,87v-2.6h6.6v12.8l2.1,0.4v2.6H578.3z M580.2,81v-3.6h4.4V81H580.2z"/>
	</g>
	<g class="st8">
		<path class="st9" d="M594,100.2l-4.8-13l-1.7-0.3v-2.6h7.7v2.6l-1.7,0.3l2.4,7.2l0.4,1.2h0.1l0.4-1.2l2.6-7.2l-1.9-0.3v-2.6h7.7
			V87l-1.8,0.3l-5,13H594z"/>
	</g>
	<g class="st8">
		<path class="st9" d="M612.6,100.5c-1.5,0-2.8-0.3-4-1s-2-1.6-2.6-2.8s-0.9-2.5-0.9-4v-0.6c0-1.6,0.3-3,0.9-4.2
			c0.6-1.2,1.4-2.2,2.5-2.9s2.3-1,3.8-1c1.4,0,2.6,0.3,3.6,0.8s1.7,1.4,2.2,2.4s0.8,2.4,0.8,3.9v2.3h-9.3l0,0.1
			c0.1,0.7,0.2,1.3,0.5,1.9c0.3,0.5,0.7,1,1.2,1.3c0.5,0.3,1.2,0.5,1.9,0.5c0.8,0,1.5-0.1,2.2-0.3s1.3-0.5,2-0.9l1.2,2.6
			c-0.7,0.5-1.5,1-2.5,1.3C615,100.4,613.9,100.5,612.6,100.5z M609.5,90.8h5.3v-0.4c0-0.6-0.1-1.2-0.3-1.7
			c-0.2-0.5-0.4-0.8-0.8-1.1s-0.9-0.4-1.5-0.4c-0.6,0-1,0.1-1.4,0.4s-0.7,0.7-0.9,1.2S609.6,90,609.5,90.8L609.5,90.8z"/>
		<path class="st9" d="M628,100.2v-2.6l2.1-0.4v-9.8l-2.3-0.4v-2.6h6.6v12.8l2.1,0.4v2.6H628z M629.9,81v-3.6h4.4V81H629.9z"/>
		<path class="st9" d="M637.7,100.2v-2.6l2.1-0.4v-9.8l-2.3-0.4v-2.6h6.3l0.2,2.1c0.5-0.8,1.1-1.3,1.9-1.8s1.7-0.6,2.7-0.6
			c1,0,1.9,0.2,2.6,0.7s1.3,1.1,1.6,2c0.5-0.8,1.1-1.5,1.9-2s1.7-0.7,2.8-0.7c1.6,0,2.8,0.5,3.7,1.6s1.4,2.7,1.4,4.9v6.7l2.1,0.4
			v2.6h-8.2v-2.6l1.8-0.4v-6.7c0-1.2-0.2-2-0.6-2.4c-0.4-0.5-0.9-0.7-1.7-0.7c-0.7,0-1.2,0.2-1.7,0.6c-0.5,0.4-0.8,0.9-1,1.5v7.8
			l1.7,0.4v2.6h-7.7v-2.6l1.7-0.4v-6.7c0-1.1-0.2-1.9-0.6-2.4s-1-0.7-1.7-0.7c-0.6,0-1.1,0.1-1.6,0.4s-0.8,0.6-1.1,1.1v8.4l1.8,0.4
			v2.6H637.7z"/>
		<path class="st9" d="M671.2,100.5c-1.6,0-2.8-0.4-3.8-1.3s-1.4-2-1.4-3.5c0-1,0.3-1.9,0.8-2.6s1.3-1.3,2.4-1.8s2.4-0.6,3.9-0.6
			h2.1v-1.2c0-0.8-0.2-1.4-0.7-1.9s-1.1-0.7-2-0.7c-0.5,0-0.9,0.1-1.2,0.2c-0.4,0.1-0.7,0.3-1,0.5l-0.3,2.1H667l-0.1-4.1
			c0.8-0.5,1.7-0.8,2.7-1.1s2-0.4,3.2-0.4c2.1,0,3.7,0.5,4.9,1.4s1.8,2.3,1.8,4.1v6.5c0,0.2,0,0.4,0,0.6c0,0.2,0,0.4,0.1,0.6
			l1.7,0.2v2.6H676c-0.1-0.3-0.2-0.6-0.3-0.9s-0.2-0.6-0.2-0.9c-0.5,0.6-1.1,1.2-1.8,1.5C673,100.3,672.2,100.5,671.2,100.5z
			 M672.4,97.4c0.6,0,1.2-0.1,1.7-0.4c0.5-0.3,1-0.6,1.2-1.1v-2.5h-2.1c-0.9,0-1.6,0.2-2.1,0.6s-0.7,0.9-0.7,1.6
			c0,0.6,0.2,1,0.5,1.3C671.2,97.2,671.7,97.4,672.4,97.4z"/>
		<path class="st9" d="M689.8,106.6c-0.8,0-1.7-0.1-2.7-0.3s-1.9-0.5-2.6-0.9l0.8-3c0.7,0.3,1.4,0.5,2.2,0.7s1.5,0.3,2.1,0.3
			c1.1,0,2-0.3,2.5-1s0.8-1.5,0.8-2.7v-1c-0.5,0.6-1,1-1.7,1.4s-1.4,0.5-2.2,0.5c-1.3,0-2.4-0.3-3.3-1s-1.6-1.6-2.1-2.7
			s-0.7-2.5-0.7-4.1v-0.3c0-1.7,0.2-3.1,0.7-4.4s1.2-2.2,2.1-2.9c0.9-0.7,2-1,3.3-1c0.9,0,1.8,0.2,2.4,0.6c0.7,0.4,1.3,1,1.7,1.7
			l0.3-2h3.7v15.4c0,1.4-0.3,2.6-0.9,3.6s-1.4,1.8-2.5,2.4S691.3,106.6,689.8,106.6z M690.3,97.2c0.6,0,1.1-0.1,1.6-0.4
			c0.4-0.2,0.8-0.6,1.1-1v-6.9c-0.3-0.5-0.6-0.8-1.1-1.1s-1-0.4-1.5-0.4c-0.7,0-1.3,0.2-1.8,0.6c-0.5,0.4-0.8,1-1,1.8
			c-0.2,0.7-0.3,1.6-0.3,2.6v0.3c0,1.4,0.2,2.5,0.7,3.3S689.2,97.2,690.3,97.2z M696.7,87.5l-1.9-3.1h4.3V87L696.7,87.5z"/>
		<path class="st9" d="M707.8,100.5c-1.5,0-2.8-0.3-4-1s-2-1.6-2.6-2.8s-0.9-2.5-0.9-4v-0.6c0-1.6,0.3-3,0.9-4.2
			c0.6-1.2,1.4-2.2,2.5-2.9s2.3-1,3.8-1c1.4,0,2.6,0.3,3.6,0.8s1.7,1.4,2.2,2.4s0.8,2.4,0.8,3.9v2.3h-9.3l0,0.1
			c0.1,0.7,0.2,1.3,0.5,1.9c0.3,0.5,0.7,1,1.2,1.3c0.5,0.3,1.2,0.5,1.9,0.5c0.8,0,1.5-0.1,2.2-0.3s1.3-0.5,2-0.9l1.2,2.6
			c-0.7,0.5-1.5,1-2.5,1.3C710.2,100.4,709.1,100.5,707.8,100.5z M704.7,90.8h5.3v-0.4c0-0.6-0.1-1.2-0.3-1.7
			c-0.2-0.5-0.4-0.8-0.8-1.1s-0.9-0.4-1.5-0.4c-0.6,0-1,0.1-1.4,0.4s-0.7,0.7-0.9,1.2S704.8,90,704.7,90.8L704.7,90.8z"/>
	</g>
	<g class="st8">
		<path class="st9" d="M67.8,223.5c-1.5,0-2.7-0.3-3.8-1c-1.1-0.7-1.9-1.6-2.5-2.9c-0.6-1.2-0.9-2.6-0.9-4.2v-0.3
			c0-1.6,0.3-3,0.9-4.2c0.6-1.2,1.4-2.2,2.5-2.9s2.3-1,3.8-1c1.5,0,2.7,0.3,3.8,1s1.9,1.6,2.5,2.9s0.9,2.6,0.9,4.2v0.3
			c0,1.6-0.3,3-0.9,4.2c-0.6,1.2-1.4,2.2-2.4,2.8S69.3,223.5,67.8,223.5z M67.8,221.3c0.9,0,1.7-0.3,2.3-0.8
			c0.6-0.5,1.1-1.2,1.4-2.1s0.5-1.9,0.5-3v-0.3c0-1.1-0.2-2.1-0.5-3c-0.3-0.9-0.8-1.6-1.4-2.1s-1.4-0.8-2.3-0.8
			c-0.9,0-1.7,0.3-2.3,0.8s-1.1,1.2-1.4,2.1c-0.3,0.9-0.5,1.9-0.5,3v0.3c0,1.1,0.2,2.1,0.5,3s0.8,1.6,1.4,2.1
			C66.1,221,66.9,221.3,67.8,221.3z"/>
		<path class="st9" d="M77.1,223.2v-1.8l2.4-0.4v-11.3l-2.4-0.4v-1.9h5l0.2,2.4c0.5-0.8,1.2-1.5,2-2c0.8-0.5,1.7-0.7,2.7-0.7
			c1.7,0,3,0.5,4,1.5s1.4,2.5,1.4,4.6v7.7l2.4,0.4v1.8h-7.7v-1.8l2.4-0.4v-7.7c0-1.4-0.3-2.4-0.8-3s-1.4-0.9-2.5-0.9
			c-0.8,0-1.6,0.2-2.2,0.6s-1.1,0.9-1.5,1.6v9.3l2.4,0.4v1.8H77.1z"/>
		<path class="st9" d="M109.8,223.5c-1.2,0-2.1-0.3-2.8-1c-0.7-0.7-1-1.8-1-3.3v-9.6h-2.5v-2.1h2.5v-3.8h2.9v3.8h3.4v2.1h-3.4v9.6
			c0,0.8,0.2,1.3,0.5,1.7s0.7,0.5,1.2,0.5c0.3,0,0.7,0,1.1-0.1s0.7-0.1,1-0.2l0.4,1.9c-0.4,0.1-0.9,0.2-1.5,0.3
			S110.4,223.5,109.8,223.5z"/>
		<path class="st9" d="M114.9,223.2v-1.8l2.4-0.4v-11.3l-2.4-0.4v-1.9h5l0.2,2l0,0.3c0.4-0.8,1-1.4,1.7-1.9s1.4-0.7,2.3-0.7
			c0.3,0,0.6,0,0.9,0.1c0.3,0.1,0.5,0.1,0.7,0.2l-0.4,2.7l-2-0.1c-0.8,0-1.4,0.1-1.9,0.5c-0.5,0.4-0.9,0.9-1.2,1.6v9l2.4,0.4v1.8
			H114.9z"/>
		<path class="st9" d="M134.4,223.5c-1.7,0-3.1-0.6-4-1.7s-1.5-2.8-1.5-5.2v-7.1l-1.8-0.4v-1.9h1.8h2.9v9.4c0,1.7,0.2,2.9,0.7,3.5
			s1.3,1,2.3,1c1,0,1.9-0.2,2.5-0.6s1.2-1,1.5-1.8v-9.2l-2.1-0.4v-1.9h2.1h2.9V221l1.8,0.4v1.8h-4.4l-0.2-2.3
			c-0.5,0.8-1.1,1.5-1.9,2S135.4,223.5,134.4,223.5z"/>
		<path class="st9" d="M152.1,223.5c-1.1,0-2.1-0.1-3-0.3s-1.9-0.5-3-1l0-3.8h2.2l0.5,2.3c0.5,0.2,1.1,0.4,1.6,0.5
			c0.5,0.1,1.1,0.2,1.7,0.2c1.2,0,2-0.2,2.5-0.7s0.8-1,0.8-1.7c0-0.6-0.3-1.2-0.8-1.6s-1.4-0.8-2.8-1.1c-1.9-0.4-3.3-1-4.2-1.8
			s-1.4-1.7-1.4-3c0-0.9,0.2-1.6,0.7-2.3c0.5-0.7,1.2-1.2,2.1-1.6s1.9-0.6,3.1-0.6c1.2,0,2.2,0.1,3.1,0.4s1.6,0.6,2.2,1.1l0.1,3.6
			h-2.2l-0.5-2.1c-0.3-0.3-0.7-0.4-1.2-0.6s-1-0.2-1.6-0.2c-0.9,0-1.6,0.2-2.2,0.6s-0.8,0.9-0.8,1.6c0,0.4,0.1,0.7,0.2,1
			s0.5,0.5,0.9,0.7c0.5,0.2,1.1,0.4,2,0.7c2.2,0.5,3.7,1.2,4.6,2s1.3,1.8,1.3,3c0,1.3-0.5,2.5-1.5,3.4S154.2,223.5,152.1,223.5z"/>
		<path class="st9" d="M166.3,223.5c-1.2,0-2.1-0.3-2.8-1c-0.7-0.7-1-1.8-1-3.3v-9.6h-2.5v-2.1h2.5v-3.8h2.9v3.8h3.4v2.1h-3.4v9.6
			c0,0.8,0.2,1.3,0.5,1.7s0.7,0.5,1.2,0.5c0.3,0,0.7,0,1.1-0.1s0.7-0.1,1-0.2l0.4,1.9c-0.4,0.1-0.9,0.2-1.5,0.3
			S166.8,223.5,166.3,223.5z"/>
		<path class="st9" d="M178.3,223.5c-1.5,0-2.7-0.3-3.8-1s-1.9-1.6-2.5-2.8s-0.9-2.6-0.9-4.1V215c0-1.5,0.3-2.8,0.9-4
			c0.6-1.2,1.4-2.1,2.5-2.8c1-0.7,2.2-1,3.4-1c1.4,0,2.6,0.3,3.6,0.9s1.7,1.4,2.2,2.5s0.7,2.3,0.7,3.7v1.8H174l0,0.1
			c0,1,0.2,1.9,0.5,2.7s0.8,1.4,1.5,1.9s1.4,0.7,2.3,0.7c1,0,1.8-0.1,2.6-0.4c0.7-0.3,1.4-0.7,1.9-1.2l1.1,1.9
			c-0.6,0.5-1.3,1-2.2,1.4C180.7,223.3,179.6,223.5,178.3,223.5z M174.1,213.7h7.3v-0.4c0-0.8-0.1-1.4-0.4-2
			c-0.3-0.6-0.7-1.1-1.2-1.4s-1.2-0.5-2-0.5c-0.6,0-1.2,0.2-1.8,0.6c-0.5,0.4-1,0.9-1.3,1.5S174.2,212.8,174.1,213.7L174.1,213.7z"
			/>
		<path class="st9" d="M193.4,223.5c-1.3,0-2.4-0.3-3.3-1c-0.9-0.6-1.6-1.5-2.1-2.7s-0.7-2.5-0.7-4v-0.3c0-1.7,0.2-3.2,0.7-4.5
			s1.2-2.3,2.1-3s2-1.1,3.3-1.1c0.9,0,1.8,0.2,2.5,0.5c0.7,0.3,1.3,0.8,1.8,1.5v-6.5l-2.4-0.4v-1.9h2.4h2.9V221l2.4,0.4v1.8h-4.9
			l-0.2-1.9c-0.5,0.7-1.1,1.3-1.9,1.6S194.4,223.5,193.4,223.5z M194.1,221.2c0.9,0,1.6-0.2,2.2-0.6s1.1-0.9,1.5-1.7v-7.4
			c-0.4-0.7-0.9-1.2-1.5-1.6s-1.3-0.6-2.1-0.6c-0.9,0-1.7,0.3-2.3,0.8c-0.6,0.5-1,1.2-1.3,2.2c-0.3,0.9-0.4,2-0.4,3.2v0.3
			c0,1.6,0.3,2.9,1,3.8S192.7,221.2,194.1,221.2z"/>
	</g>
	<g class="st8">
		<path class="st9" d="M213.4,223.2v-1.8l2.4-0.4v-18.3l-2.4-0.4v-1.9h5.3v9.1c0.5-0.8,1.2-1.4,2-1.8s1.7-0.6,2.6-0.6
			c1.7,0,3,0.5,4,1.5s1.4,2.6,1.4,4.7v7.7l2.4,0.4v1.8h-7.7v-1.8l2.4-0.4v-7.7c0-1.3-0.3-2.3-0.8-2.9s-1.4-0.9-2.5-0.9
			c-0.8,0-1.5,0.2-2.2,0.6s-1.2,0.9-1.6,1.5v9.4l2.4,0.4v1.8H213.4z"/>
	</g>
	<g class="st8">
		<path class="st9" d="M240.1,223.5c-1.5,0-2.7-0.3-3.8-1c-1.1-0.7-1.9-1.6-2.5-2.9c-0.6-1.2-0.9-2.6-0.9-4.2v-0.3
			c0-1.6,0.3-3,0.9-4.2c0.6-1.2,1.4-2.2,2.5-2.9s2.3-1,3.8-1c1.5,0,2.7,0.3,3.8,1s1.9,1.6,2.5,2.9s0.9,2.6,0.9,4.2v0.3
			c0,1.6-0.3,3-0.9,4.2c-0.6,1.2-1.4,2.2-2.4,2.8S241.6,223.5,240.1,223.5z M240.1,221.3c0.9,0,1.7-0.3,2.3-0.8
			c0.6-0.5,1.1-1.2,1.4-2.1s0.5-1.9,0.5-3v-0.3c0-1.1-0.2-2.1-0.5-3c-0.3-0.9-0.8-1.6-1.4-2.1s-1.4-0.8-2.3-0.8
			c-0.9,0-1.7,0.3-2.3,0.8s-1.1,1.2-1.4,2.1c-0.3,0.9-0.5,1.9-0.5,3v0.3c0,1.1,0.2,2.1,0.5,3s0.8,1.6,1.4,2.1
			C238.4,221,239.2,221.3,240.1,221.3z"/>
		<path class="st9" d="M255.8,223.5c-1.1,0-2.1-0.1-3-0.3s-1.9-0.5-3-1l0-3.8h2.2l0.5,2.3c0.5,0.2,1.1,0.4,1.6,0.5
			c0.5,0.1,1.1,0.2,1.7,0.2c1.2,0,2-0.2,2.5-0.7s0.8-1,0.8-1.7c0-0.6-0.3-1.2-0.8-1.6s-1.4-0.8-2.8-1.1c-1.9-0.4-3.3-1-4.2-1.8
			s-1.4-1.7-1.4-3c0-0.9,0.2-1.6,0.7-2.3c0.5-0.7,1.2-1.2,2.1-1.6s1.9-0.6,3.1-0.6c1.2,0,2.2,0.1,3.1,0.4s1.6,0.6,2.2,1.1l0.1,3.6
			h-2.2l-0.5-2.1c-0.3-0.3-0.7-0.4-1.2-0.6s-1-0.2-1.6-0.2c-0.9,0-1.6,0.2-2.2,0.6s-0.8,0.9-0.8,1.6c0,0.4,0.1,0.7,0.2,1
			s0.5,0.5,0.9,0.7c0.5,0.2,1.1,0.4,2,0.7c2.2,0.5,3.7,1.2,4.6,2s1.3,1.8,1.3,3c0,1.3-0.5,2.5-1.5,3.4S258,223.5,255.8,223.5z"/>
		<path class="st9" d="M270,223.5c-1.2,0-2.1-0.3-2.8-1c-0.7-0.7-1-1.8-1-3.3v-9.6h-2.5v-2.1h2.5v-3.8h2.9v3.8h3.4v2.1H269v9.6
			c0,0.8,0.2,1.3,0.5,1.7s0.7,0.5,1.2,0.5c0.3,0,0.7,0,1.1-0.1s0.7-0.1,1-0.2l0.4,1.9c-0.4,0.1-0.9,0.2-1.5,0.3
			S270.5,223.5,270,223.5z"/>
	</g>
	<path class="st3" d="M849.3,557H1182c4.4,0,8,3.6,8,8v84c0,4.4-3.6,8-8,8H849.3c-4.4,0-8-3.6-8-8v-84
		C841.3,560.6,844.9,557,849.3,557z"/>
	<polyline class="st7" points="1029.4,467.8 1008.9,488.2 988.4,467.8 	"/>
	<line class="st7" x1="1008.9" y1="436.2" x2="1008.9" y2="477.8"/>
	<g class="st8">
		<path class="st12" d="M977.5,618.4v-2.6l2.1-0.4v-16.8l-2.3-0.4v-2.6h6.5v9c0.5-0.7,1.1-1.3,1.9-1.7c0.7-0.4,1.6-0.6,2.5-0.6
			c1.6,0,2.9,0.5,3.8,1.6c0.9,1.1,1.4,2.7,1.4,4.9v6.6l2.1,0.4v2.6h-8.2v-2.6l1.8-0.4v-6.7c0-1.1-0.2-2-0.6-2.4s-1.1-0.7-1.9-0.7
			c-0.6,0-1.1,0.1-1.6,0.4c-0.5,0.2-0.9,0.6-1.2,1v8.4l1.8,0.4v2.6H977.5z"/>
	</g>
	<g class="st8">
		<path class="st12" d="M1004.2,618.7c-1.5,0-2.8-0.3-4-1s-2-1.6-2.6-2.8s-0.9-2.5-0.9-4v-0.6c0-1.6,0.3-3,0.9-4.2
			c0.6-1.2,1.4-2.2,2.5-2.9s2.3-1,3.8-1c1.4,0,2.6,0.3,3.6,0.8s1.7,1.4,2.2,2.4s0.8,2.4,0.8,3.9v2.3h-9.3l0,0.1
			c0.1,0.7,0.2,1.3,0.5,1.9c0.3,0.5,0.7,1,1.2,1.3c0.5,0.3,1.2,0.5,1.9,0.5c0.8,0,1.5-0.1,2.2-0.3s1.3-0.5,2-0.9l1.2,2.6
			c-0.7,0.5-1.5,1-2.5,1.3C1006.6,618.6,1005.5,618.7,1004.2,618.7z M1001.2,608.9h5.3v-0.4c0-0.6-0.1-1.2-0.3-1.7
			c-0.2-0.5-0.4-0.8-0.8-1.1s-0.9-0.4-1.5-0.4c-0.6,0-1,0.1-1.4,0.4s-0.7,0.7-0.9,1.2S1001.2,608.2,1001.2,608.9L1001.2,608.9z"/>
		<path class="st12" d="M1012.2,618.4v-2.6l2.1-0.4v-16.8l-2.3-0.4v-2.6h6.6v19.8l2.1,0.4v2.6H1012.2z"/>
		<path class="st12" d="M1021.8,618.4v-2.6l2.1-0.4v-9.8l-2.3-0.4v-2.6h6.3l0.2,2.1c0.5-0.8,1.1-1.3,1.9-1.8s1.7-0.6,2.7-0.6
			c1,0,1.9,0.2,2.6,0.7s1.3,1.1,1.6,2c0.5-0.8,1.1-1.5,1.9-2s1.7-0.7,2.8-0.7c1.6,0,2.8,0.5,3.7,1.6s1.4,2.7,1.4,4.9v6.7l2.1,0.4
			v2.6h-8.2v-2.6l1.8-0.4v-6.7c0-1.2-0.2-2-0.6-2.4c-0.4-0.5-0.9-0.7-1.7-0.7c-0.7,0-1.2,0.2-1.7,0.6c-0.5,0.4-0.8,0.9-1,1.5v7.8
			l1.7,0.4v2.6h-7.7v-2.6l1.7-0.4v-6.7c0-1.1-0.2-1.9-0.6-2.4s-1-0.7-1.7-0.7c-0.6,0-1.1,0.1-1.6,0.4s-0.8,0.6-1.1,1.1v8.4l1.8,0.4
			v2.6H1021.8z"/>
		<path class="st12" d="M1064.9,618.7c-1.5,0-2.8-0.3-3.9-1s-2-1.6-2.6-2.8c-0.6-1.2-0.9-2.6-0.9-4.1v-0.4c0-1.6,0.3-2.9,0.9-4.1
			s1.5-2.1,2.6-2.8c1.1-0.7,2.4-1,3.9-1c1.4,0,2.7,0.2,3.7,0.7c1,0.4,1.9,1,2.5,1.5l0,4.5h-3.2l-0.6-2.8c-0.2-0.2-0.5-0.4-0.9-0.6
			s-0.7-0.2-1.1-0.2c-0.8,0-1.4,0.2-1.9,0.6s-0.9,0.9-1.2,1.7s-0.4,1.6-0.4,2.6v0.4c0,1.1,0.1,2,0.4,2.7c0.3,0.7,0.7,1.2,1.1,1.5
			s1,0.5,1.6,0.5c0.8,0,1.4-0.2,1.8-0.6c0.5-0.4,0.8-1,0.9-1.7h3.6l0,0.1c-0.2,1.1-0.5,2.1-1,2.9s-1.2,1.5-2.1,1.9
			S1066.3,618.7,1064.9,618.7z"/>
		<path class="st12" d="M1073,618.4v-2.6l2.1-0.4v-16.8l-2.3-0.4v-2.6h6.5v9c0.5-0.7,1.1-1.3,1.9-1.7c0.7-0.4,1.6-0.6,2.5-0.6
			c1.6,0,2.9,0.5,3.8,1.6s1.4,2.7,1.4,4.9v6.6l2.1,0.4v2.6h-8.2v-2.6l1.8-0.4v-6.7c0-1.1-0.2-2-0.6-2.4s-1.1-0.7-1.9-0.7
			c-0.6,0-1.1,0.1-1.6,0.4c-0.5,0.2-0.9,0.6-1.2,1v8.4l1.8,0.4v2.6H1073z"/>
		<path class="st12" d="M1097.7,618.7c-1.6,0-2.8-0.4-3.8-1.3s-1.4-2-1.4-3.5c0-1,0.3-1.9,0.8-2.6s1.3-1.3,2.4-1.8s2.4-0.6,3.9-0.6
			h2.1v-1.2c0-0.8-0.2-1.4-0.7-1.9s-1.1-0.7-2-0.7c-0.5,0-0.9,0.1-1.2,0.2c-0.4,0.1-0.7,0.3-1,0.5l-0.3,2.1h-3.1l-0.1-4.1
			c0.8-0.5,1.7-0.8,2.7-1.1s2-0.4,3.2-0.4c2.1,0,3.7,0.5,4.9,1.4s1.8,2.3,1.8,4.1v6.5c0,0.2,0,0.4,0,0.6c0,0.2,0,0.4,0.1,0.6
			l1.7,0.2v2.6h-5.3c-0.1-0.3-0.2-0.6-0.3-0.9s-0.2-0.6-0.2-0.9c-0.5,0.6-1.1,1.2-1.8,1.5C1099.4,618.5,1098.6,618.7,1097.7,618.7z
			 M1098.8,615.6c0.6,0,1.2-0.1,1.7-0.4c0.5-0.3,1-0.6,1.2-1.1v-2.5h-2.1c-0.9,0-1.6,0.2-2.1,0.6s-0.7,0.9-0.7,1.6
			c0,0.6,0.2,1,0.5,1.3C1097.7,615.4,1098.2,615.6,1098.8,615.6z"/>
	</g>
	<g class="st8">
		<path class="st12" d="M1109.1,618.4v-2.6l2.1-0.4v-9.8l-2.3-0.4v-2.6h6.3l0.2,2l0,0.4c0.4-0.9,0.9-1.5,1.5-1.9s1.3-0.7,2.1-0.7
			c0.3,0,0.5,0,0.8,0.1c0.3,0,0.6,0.1,0.8,0.2l-0.5,3.9l-2.1-0.1c-0.6,0-1.1,0.1-1.5,0.3s-0.7,0.6-1,1v7.8l2.1,0.4v2.6H1109.1z"/>
	</g>
	<g class="st8">
		<path class="st12" d="M1128,618.7c-1.5,0-2.6-0.4-3.4-1.2s-1.2-2.1-1.2-3.9v-8.1h-2.2v-3h2.2v-3.9h4.3v3.9h2.9v3h-2.9v8.1
			c0,0.6,0.1,1.1,0.4,1.3s0.6,0.4,1.1,0.4c0.2,0,0.5,0,0.8-0.1c0.3,0,0.5-0.1,0.7-0.1l0.4,3.1c-0.4,0.1-0.9,0.2-1.4,0.3
			C1129,618.7,1128.5,618.7,1128,618.7z"/>
	</g>
	<path class="st13" d="M921.4,627c-1.3,0-2.3,2.7-2.3,6s1,6,2.3,6s2.3-2.7,2.3-6S922.6,627,921.4,627z"/>
	<path class="st13" d="M892.9,599.7h3.6v4.9h4.3v-4.9h3.6v13.7h-3.6v-5.2h-4.3v5.2h-3.6V599.7z M908.6,613.4v-13.7h8.5v3h-4.9v2.2
		h4.3v3h-4.3v2.5h4.9v3L908.6,613.4z M921.1,613.4v-13.7h3.6v10.1h4.9v3.6L921.1,613.4z M935.2,599.7l5.6,5.1l5.6-5.1h1.6v13.7h-3.6
		v-7l-3.6,3.3l-3.6-3.3v7h-3.6v-13.7H935.2z"/>
	<path class="st13" d="M933.7,622.7c1-0.7,3.4,0.9,5.3,3.6s2.6,5.5,1.6,6.2s-3.4-0.9-5.3-3.6S932.7,623.5,933.7,622.7z"/>
	<path class="st13" d="M909,622.7c-1-0.7-3.4,0.9-5.3,3.6s-2.6,5.5-1.6,6.2s3.4-0.9,5.3-3.6S910.1,623.5,909,622.7z"/>
	<path class="st13" d="M933.7,590.9c1,0.7,3.4-0.9,5.3-3.6s2.6-5.5,1.6-6.2s-3.4,0.9-5.3,3.6S932.7,590.2,933.7,590.9z"/>
	<path class="st13" d="M909,590.9c-1,0.7-3.4-0.9-5.3-3.6s-2.6-5.5-1.6-6.2s3.4,0.9,5.3,3.6S910.1,590.2,909,590.9z"/>
	<path class="st13" d="M921.4,586.7c-1.3,0-2.3-2.7-2.3-6s1-6,2.3-6s2.3,2.7,2.3,6S922.6,586.7,921.4,586.7z"/>
	<path class="st12" d="M922.3,630.2c-7.5,0.5-14.7-2.8-19.4-8.7l2.8-2.2c6.5,8.3,18.5,9.8,26.8,3.3c1.9-1.5,3.5-3.3,4.7-5.3l3.1,1.9
		C936.5,625.6,929.8,629.7,922.3,630.2z M936.5,596.2c-6-8.7-17.9-10.9-26.6-4.9c-2.5,1.7-4.5,4-6,6.6l-3.2-1.8
		c5.9-10.7,19.1-14.8,30-9.5c3.5,1.7,6.4,4.3,8.6,7.5L936.5,596.2z"/>
	<path class="st13" d="M892.9,599.7h3.6v4.9h4.3v-4.9h3.6v13.7h-3.6v-5.2h-4.3v5.2h-3.6V599.7z M908.6,613.4v-13.7h8.5v3h-4.9v2.2
		h4.3v3h-4.3v2.5h4.9v3L908.6,613.4z M921.1,613.4v-13.7h3.6v10.1h4.9v3.6L921.1,613.4z M935.2,599.7l5.6,5.1l5.6-5.1h1.6v13.7h-3.6
		v-7l-3.6,3.3l-3.6-3.3v7h-3.6v-13.7H935.2z"/>
	<path class="st13" d="M933.7,590.9c1,0.7,3.4-0.9,5.3-3.6s2.6-5.5,1.6-6.2s-3.4,0.9-5.3,3.6S932.7,590.2,933.7,590.9z"/>
	<path class="st13" d="M909,590.9c-1,0.7-3.4-0.9-5.3-3.6s-2.6-5.5-1.6-6.2s3.4,0.9,5.3,3.6S910.1,590.2,909,590.9z"/>
	<path class="st13" d="M921.4,586.7c-1.3,0-2.3-2.7-2.3-6s1-6,2.3-6s2.3,2.7,2.3,6S922.6,586.7,921.4,586.7z"/>
	<rect x="899.9" y="594.7" class="st10" width="43.1" height="3"/>
	<rect x="899.9" y="617.9" class="st10" width="43.1" height="2.5"/>
	<rect x="899.9" y="615.3" class="st10" width="43.1" height="2.5"/>
</g>
</svg>
