<svg xmlns="http://www.w3.org/2000/svg" xmlns:xlink="http://www.w3.org/1999/xlink" viewBox="0 0 1254 696"><defs><style>.cls-1{opacity:0.4;fill:url(#Unbenannter_Verlauf_5);}.cls-12,.cls-2,.cls-3,.cls-8{stroke:#fc0;}.cls-12,.cls-2,.cls-3,.cls-4,.cls-8{stroke-miterlimit:10;}.cls-12,.cls-2,.cls-3,.cls-4,.cls-5,.cls-6{stroke-width:6px;}.cls-2{fill:url(#Unbenannter_Verlauf_5-2);}.cls-11,.cls-22,.cls-3,.cls-5{fill:#fff;}.cls-4,.cls-6,.cls-8{fill:none;}.cls-4{stroke:#306;}.cls-5,.cls-6{stroke:#ffcb03;stroke-linejoin:round;}.cls-5,.cls-6,.cls-8{stroke-linecap:round;}.cls-7{fill:#ffcb03;}.cls-8{stroke-width:15px;}.cls-16,.cls-18,.cls-9{font-size:30px;}.cls-16,.cls-9{fill:#306;}.cls-11,.cls-18,.cls-9{font-family:RobotoSlab-Bold, Roboto Slab;font-weight:700;}.cls-10{letter-spacing:-0.03em;}.cls-11{font-size:29.41px;}.cls-12{fill:url(#Unbenannter_Verlauf_5-3);}.cls-13{letter-spacing:-0.01em;}.cls-14{letter-spacing:-0.04em;}.cls-15{letter-spacing:-0.01em;}.cls-16{font-family:RobotoSlab-Regular, Roboto Slab;}.cls-17{letter-spacing:0em;}.cls-18,.cls-20,.cls-21{fill:#0f1689;}.cls-19{letter-spacing:0.01em;}.cls-20{fill-rule:evenodd;}</style><linearGradient id="Unbenannter_Verlauf_5" x1="60" y1="328" x2="1186" y2="328" gradientUnits="userSpaceOnUse"><stop offset="0" stop-color="#906"/><stop offset="0.19" stop-color="#780066"/><stop offset="0.4" stop-color="#5a0066"/><stop offset="0.61" stop-color="#406"/><stop offset="0.81" stop-color="#370066"/><stop offset="1" stop-color="#306"/></linearGradient><linearGradient id="Unbenannter_Verlauf_5-2" x1="448.29" y1="607" x2="797" y2="607" xlink:href="#Unbenannter_Verlauf_5"/><linearGradient id="Unbenannter_Verlauf_5-3" x1="53.29" y1="607" x2="402" y2="607" xlink:href="#Unbenannter_Verlauf_5"/></defs><title>Sconify image 0</title><g id="Ebene_1" data-name="Ebene 1"><rect class="cls-1" x="60" y="247" width="1126" height="162" rx="8"/><rect class="cls-2" x="448.29" y="557" width="348.71" height="100" rx="8"/><rect class="cls-3" x="97" y="278" width="1052" height="100" rx="8"/><rect class="cls-4" x="60" y="41" width="1126" height="100" rx="8"/><path class="cls-5" d="M596.63,529.85a26.8,26.8,0,1,1-8,19.1,26.21,26.21,0,0,1,5.5-16.2"/><path class="cls-6" d="M614.73,562H605c-1.3,0-1.8-.5-1.8-1.8v-14.8c0-1.3.5-1.8,1.8-1.8h19.3c1.3,0,1.8.5,1.8,1.8v14.8c0,1.3-.5,1.8-1.8,1.8C621.13,562.05,617.93,562,614.73,562Z"/><path class="cls-6" d="M604.83,544.25c.3-4.1,2-7.7,6-9.5a9.53,9.53,0,0,1,12.6,4.9c.2.5.4,1.1.6,1.6.2.9.3,1.8.5,2.7"/><path class="cls-7" d="M613.13,555.65h0v2c0,.4.1.5.6.5h1.9c.5,0,.7-.1.7-.6v-3.7a1.05,1.05,0,0,1,.5-.9,2.78,2.78,0,0,0,1.4-3.3,3.61,3.61,0,0,0-3.3-2.2,4,4,0,0,0-3.7,2,2.81,2.81,0,0,0,1.3,3.5,1,1,0,0,1,.6,1.1Z"/><polyline class="cls-8" points="636.43 467.75 615.93 488.25 595.43 467.75"/><line class="cls-8" x1="615.93" y1="436.25" x2="615.93" y2="477.75"/><polyline class="cls-8" points="240.43 467.75 219.93 488.25 199.43 467.75"/><line class="cls-8" x1="219.93" y1="436.25" x2="219.93" y2="477.75"/><polyline class="cls-8" points="636.43 211.75 615.93 232.25 595.43 211.75"/><line class="cls-8" x1="615.93" y1="180.25" x2="615.93" y2="221.75"/><text class="cls-9" transform="translate(504.7 341.23)">SCONIFY IM<tspan class="cls-10" x="177.52" y="0">A</tspan><tspan x="198.19" y="0">GE</tspan></text><text class="cls-11" transform="translate(483.8 617.97) scale(1.07 1)">confidential image</text><rect class="cls-12" x="53.29" y="557" width="348.71" height="100" rx="8"/><path class="cls-5" d="M201.63,529.85a26.8,26.8,0,1,1-8,19.1,26.21,26.21,0,0,1,5.5-16.2"/><path class="cls-6" d="M219.73,562H210c-1.3,0-1.8-.5-1.8-1.8v-14.8c0-1.3.5-1.8,1.8-1.8h19.3c1.3,0,1.8.5,1.8,1.8v14.8c0,1.3-.5,1.8-1.8,1.8C226.13,562.05,222.93,562,219.73,562Z"/><path class="cls-6" d="M209.83,544.25c.3-4.1,2-7.7,6-9.5a9.53,9.53,0,0,1,12.6,4.9c.2.5.4,1.1.6,1.6.2.9.3,1.8.5,2.7"/><path class="cls-7" d="M218.13,555.65h0v2c0,.4.1.5.6.5h1.9c.5,0,.7-.1.7-.6v-3.7a1.05,1.05,0,0,1,.5-.9,2.78,2.78,0,0,0,1.4-3.3,3.61,3.61,0,0,0-3.3-2.2,4,4,0,0,0-3.7,2,2.81,2.81,0,0,0,1.3,3.5,1,1,0,0,1,.6,1.1Z"/><text class="cls-11" transform="translate(181.89 617.97) scale(1.07 1)">p<tspan class="cls-13" x="17.81" y="0">o</tspan><tspan x="34.01" y="0">licy</tspan></text><text class="cls-9" transform="translate(531.98 100.23)">n<tspan class="cls-14" x="19.04" y="0">a</tspan><tspan x="34.35" y="0">ti</tspan><tspan class="cls-15" x="55.21" y="0">v</tspan><tspan x="72.11" y="0">e image</tspan></text><text class="cls-16" transform="translate(59.57 223.23)">on trusted <tspan class="cls-17" x="153.08" y="0">h</tspan><tspan x="172.29" y="0">ost</tspan></text><rect class="cls-4" x="841.29" y="557" width="348.71" height="100" rx="8"/><polyline class="cls-8" points="1029.43 467.75 1008.93 488.25 988.43 467.75"/><line class="cls-8" x1="1008.93" y1="436.25" x2="1008.93" y2="477.75"/><text class="cls-18" transform="translate(976.79 618.42)"><tspan class="cls-17">h</tspan><tspan x="18.93" y="0">elm cha</tspan><tspan class="cls-19" x="131.09" y="0">r</tspan><tspan x="144.07" y="0">t</tspan></text><path class="cls-20" d="M921.38,627c-1.26,0-2.3,2.69-2.3,6s1,6,2.3,6,2.29-2.7,2.29-6S922.63,627,921.38,627Z"/><path class="cls-20" d="M892.94,599.67h3.6v4.88h4.35v-4.88h3.61v13.72h-3.61v-5.23h-4.35v5.23h-3.6Zm15.69,13.72V599.67h8.52v3h-4.91v2.22h4.35v3h-4.35v2.52h4.91v2.95Zm12.46,0V599.67h3.6v10.09h4.94v3.63Zm14.13-13.72,5.59,5.08,5.57-5.08H948v13.72h-3.62v-7l-3.59,3.27-3.61-3.26v7h-3.62V599.67Z"/><path class="cls-20" d="M933.71,622.73c1-.73,3.42.89,5.33,3.62s2.62,5.52,1.59,6.25-3.43-.9-5.34-3.63S932.67,623.45,933.71,622.73Z"/><path class="cls-20" d="M909.05,622.73c-1-.73-3.42.89-5.33,3.62s-2.63,5.52-1.59,6.25,3.42-.9,5.34-3.63S910.09,623.45,909.05,622.73Z"/><path class="cls-20" d="M933.71,590.92c1,.72,3.42-.9,5.33-3.63s2.62-5.52,1.59-6.24-3.43.89-5.34,3.62S932.67,590.19,933.71,590.92Z"/><path class="cls-20" d="M909.05,590.92c-1,.72-3.4-.9-5.32-3.63s-2.62-5.52-1.58-6.24,3.42.89,5.34,3.62S910.09,590.19,909.05,590.92Z"/><path class="cls-20" d="M921.38,586.65c-1.26,0-2.3-2.69-2.3-6s1-6,2.3-6,2.29,2.69,2.29,6S922.63,586.65,921.38,586.65Z"/><path class="cls-21" d="M922.28,630.25a22.83,22.83,0,0,1-19.37-8.67l2.85-2.25a19.09,19.09,0,0,0,31.48-2.08l3.13,1.86A22.78,22.78,0,0,1,922.28,630.25Zm14.26-34A19.12,19.12,0,0,0,904,597.89l-3.18-1.76a22.73,22.73,0,0,1,30-9.45,23.18,23.18,0,0,1,8.64,7.49Z"/><path class="cls-20" d="M892.94,599.67h3.6v4.88h4.35v-4.88h3.61v13.72h-3.61v-5.23h-4.35v5.23h-3.6Zm15.69,13.72V599.67h8.52v3h-4.91v2.22h4.35v3h-4.35v2.52h4.91v2.95Zm12.46,0V599.67h3.6v10.09h4.94v3.63Zm14.13-13.72,5.59,5.08,5.57-5.08H948v13.72h-3.62v-7l-3.59,3.27-3.61-3.26v7h-3.62V599.67Z"/><path class="cls-20" d="M933.71,590.92c1,.72,3.42-.9,5.33-3.63s2.62-5.52,1.59-6.24-3.43.89-5.34,3.62S932.67,590.19,933.71,590.92Z"/><path class="cls-20" d="M909.05,590.92c-1,.72-3.4-.9-5.32-3.63s-2.62-5.52-1.58-6.24,3.42.89,5.34,3.62S910.09,590.19,909.05,590.92Z"/><path class="cls-20" d="M921.38,586.65c-1.26,0-2.3-2.69-2.3-6s1-6,2.3-6,2.29,2.69,2.29,6S922.63,586.65,921.38,586.65Z"/><rect class="cls-22" x="899.87" y="594.68" width="43.14" height="2.99"/><rect class="cls-22" x="899.87" y="617.88" width="43.14" height="2.55"/><rect class="cls-22" x="899.87" y="615.32" width="43.14" height="2.55"/></g></svg>