<?xml version="1.0" encoding="utf-8"?>
<!-- Generator: Adobe Illustrator 24.0.0, SVG Export Plug-In . SVG Version: 6.00 Build 0)  -->
<svg version="1.1" id="Ebene_1" xmlns="http://www.w3.org/2000/svg" xmlns:xlink="http://www.w3.org/1999/xlink" x="0px" y="0px"
	 viewBox="0 0 1008 667" style="enable-background:new 0 0 1008 667;" xml:space="preserve">
<style type="text/css">
	.st0{fill:none;stroke:#FFCC00;stroke-width:6;stroke-miterlimit:10;}
	.st1{fill:none;stroke:#330066;stroke-width:6;stroke-miterlimit:10;}
	.st2{fill:none;stroke:#FFCC00;stroke-width:15;stroke-linecap:round;stroke-miterlimit:10;}
	.st3{fill:none;stroke:#330066;stroke-width:15;stroke-linecap:round;stroke-miterlimit:10;}
	.st4{enable-background:new    ;}
	.st5{fill:#330066;}
	.st6{fill:none;stroke:#FFCC00;stroke-width:6;stroke-linecap:round;stroke-linejoin:round;}
</style>
<title>sconify file classes</title>
<path class="st0" d="M216,319h142c4.4,0,8,3.6,8,8v84c0,4.4-3.6,8-8,8H216c-4.4,0-8-3.6-8-8v-84C208,322.6,211.6,319,216,319z"/>
<path class="st1" d="M216,31h142c4.4,0,8,3.6,8,8v84c0,4.4-3.6,8-8,8H216c-4.4,0-8-3.6-8-8V39C208,34.6,211.6,31,216,31z"/>
<polyline class="st2" points="462.4,317.8 482.9,338.3 462.4,358.8 "/>
<line class="st2" x1="430.9" y1="338.3" x2="472.4" y2="338.3"/>
<polyline class="st2" points="462.4,382.8 482.9,403.3 462.4,423.8 "/>
<line class="st2" x1="430.9" y1="403.3" x2="472.4" y2="403.3"/>
<polyline class="st2" points="462.4,486.8 482.9,507.3 462.4,527.8 "/>
<line class="st2" x1="430.9" y1="507.3" x2="472.4" y2="507.3"/>
<polyline class="st3" points="462.4,29.8 482.9,50.3 462.4,70.8 "/>
<line class="st3" x1="430.9" y1="50.3" x2="472.4" y2="50.3"/>
<polyline class="st3" points="462.4,94.8 482.9,115.3 462.4,135.8 "/>
<line class="st3" x1="430.9" y1="115.3" x2="472.4" y2="115.3"/>
<polyline class="st3" points="462.4,195.8 482.9,216.3 462.4,236.8 "/>
<line class="st3" x1="430.9" y1="216.3" x2="472.4" y2="216.3"/>
<g class="st4">
	<path class="st5" d="M243.4,380.5c-2.3,0-4.1-0.7-5.5-2.2s-2.1-3.3-2.1-5.6v-0.6c0-2.4,0.6-4.3,1.9-5.8s3-2.3,5.2-2.3
		c2.1,0,3.8,0.6,5,1.9s1.8,3,1.8,5.2v2.3h-9.5l0,0.1c0.1,1,0.4,1.9,1,2.6s1.5,1,2.5,1c0.9,0,1.7-0.1,2.4-0.3
		c0.6-0.2,1.3-0.5,2.1-0.9l1.2,2.6c-0.7,0.5-1.5,1-2.5,1.3S244.6,380.5,243.4,380.5z M243,367.4c-0.8,0-1.4,0.3-1.9,0.9
		s-0.7,1.4-0.8,2.4l0,0.1h5.2v-0.4c0-0.9-0.2-1.6-0.6-2.2C244.5,367.7,243.8,367.4,243,367.4z"/>
</g>
<g class="st4">
	<path class="st5" d="M251.4,367v-2.6h6.2l0.2,1.8c0.5-0.7,1-1.2,1.7-1.6s1.4-0.6,2.3-0.6c2,0,3.5,0.8,4.6,2.3s1.6,3.5,1.6,6v0.3
		c0,2.3-0.5,4.2-1.6,5.7s-2.6,2.1-4.5,2.1c-0.8,0-1.6-0.2-2.2-0.5c-0.6-0.3-1.2-0.8-1.7-1.4v4.6l2.1,0.4v2.6h-8.4v-2.6l2.1-0.4
		v-15.9L251.4,367z M263.7,372.4c0-1.5-0.2-2.7-0.7-3.6s-1.3-1.4-2.3-1.4c-0.6,0-1.2,0.1-1.6,0.4s-0.8,0.6-1.1,1.1v6.9
		c0.3,0.4,0.6,0.8,1.1,1s1,0.4,1.7,0.4c1,0,1.8-0.4,2.3-1.2s0.7-1.9,0.7-3.3V372.4z"/>
</g>
<g class="st4">
	<path class="st5" d="M269.4,377.7l2.1-0.4v-16.8l-2.3-0.4v-2.6h6.5v9c0.5-0.7,1.1-1.3,1.8-1.7c0.7-0.4,1.5-0.6,2.4-0.6
		c1.7,0,3,0.5,3.9,1.6c0.9,1.1,1.4,2.8,1.4,5.1v6.4l2.1,0.4v2.6h-8.2v-2.6l1.8-0.4v-6.4c0-1.2-0.2-2.1-0.7-2.6
		c-0.4-0.5-1.1-0.8-1.9-0.8c-0.6,0-1.1,0.1-1.6,0.3s-0.8,0.5-1.1,0.9v8.6l1.8,0.4v2.6h-8.2V377.7z"/>
</g>
<g class="st4">
	<path class="st5" d="M296.1,380.5c-2.3,0-4.1-0.7-5.5-2.2s-2.1-3.3-2.1-5.6v-0.6c0-2.4,0.6-4.3,1.9-5.8s3-2.3,5.2-2.3
		c2.1,0,3.8,0.6,5,1.9s1.8,3,1.8,5.2v2.3H293l0,0.1c0.1,1,0.4,1.9,1,2.6s1.5,1,2.5,1c0.9,0,1.7-0.1,2.4-0.3c0.6-0.2,1.3-0.5,2.1-0.9
		l1.2,2.6c-0.7,0.5-1.5,1-2.5,1.3S297.4,380.5,296.1,380.5z M295.8,367.4c-0.8,0-1.4,0.3-1.9,0.9s-0.7,1.4-0.8,2.4l0,0.1h5.2v-0.4
		c0-0.9-0.2-1.6-0.6-2.2C297.3,367.7,296.6,367.4,295.8,367.4z"/>
	<path class="st5" d="M304,367v-2.6h6.3l0.2,2.1c0.5-0.8,1.1-1.3,1.9-1.8s1.7-0.6,2.7-0.6c1,0,1.9,0.2,2.6,0.7s1.3,1.1,1.6,2
		c0.5-0.8,1.1-1.5,1.9-2s1.7-0.7,2.8-0.7c1.6,0,2.8,0.5,3.7,1.6s1.4,2.7,1.4,4.9v6.6l2.1,0.4v2.6h-8.2v-2.6l1.8-0.4v-6.6
		c0-1.2-0.2-2-0.6-2.5s-1-0.7-1.7-0.7c-0.6,0-1.1,0.1-1.6,0.4s-0.8,0.6-1.1,1.1c0,0.2,0,0.3,0,0.5c0,0.1,0,0.3,0,0.4v7.4l1.7,0.4
		v2.6h-7.7v-2.6l1.7-0.4v-6.6c0-1.2-0.2-2-0.6-2.5c-0.4-0.5-1-0.7-1.8-0.7c-0.6,0-1.1,0.1-1.5,0.3c-0.4,0.2-0.8,0.5-1.1,0.9v8.6
		l1.8,0.4v2.6h-8.2v-2.6l2.1-0.4v-9.8L304,367z"/>
	<path class="st5" d="M337.7,380.2h-4.3v-3.8h4.3V380.2z"/>
</g>
<path class="st0" d="M216,452h142c4.4,0,8,3.6,8,8v84c0,4.4-3.6,8-8,8H216c-4.4,0-8-3.6-8-8v-84C208,455.6,211.6,452,216,452z"/>
<g class="st4">
	<path class="st5" d="M240.1,500v-2.6h6.2l0.2,1.8c0.5-0.7,1-1.2,1.7-1.6s1.4-0.6,2.3-0.6c2,0,3.5,0.8,4.6,2.3s1.6,3.6,1.6,6.1v0.3
		c0,2.3-0.5,4.2-1.6,5.7s-2.6,2.1-4.5,2.1c-0.8,0-1.6-0.2-2.2-0.5c-0.6-0.3-1.2-0.8-1.7-1.4v4.6l2.1,0.4v2.6h-8.4v-2.6l2.1-0.4
		v-15.9L240.1,500z M252.4,505.4c0-1.5-0.2-2.7-0.7-3.6s-1.3-1.4-2.3-1.4c-0.6,0-1.2,0.1-1.6,0.4s-0.8,0.6-1.1,1.1v6.9
		c0.3,0.4,0.6,0.8,1.1,1s1,0.4,1.7,0.4c1,0,1.8-0.4,2.3-1.2s0.7-1.9,0.7-3.3V505.4z"/>
	<path class="st5" d="M266.2,513.5c-2.3,0-4.1-0.7-5.5-2.2s-2.1-3.3-2.1-5.6v-0.6c0-2.4,0.6-4.3,1.9-5.8s3-2.3,5.2-2.3
		c2.1,0,3.8,0.6,5,1.9s1.8,3,1.8,5.2v2.3h-9.5l0,0.1c0.1,1,0.4,1.9,1,2.6s1.5,1,2.5,1c0.9,0,1.7-0.1,2.4-0.3
		c0.6-0.2,1.3-0.5,2.1-0.9l1.2,2.6c-0.7,0.5-1.5,1-2.5,1.3S267.5,513.5,266.2,513.5z M265.8,500.4c-0.8,0-1.4,0.3-1.9,0.9
		s-0.7,1.4-0.8,2.4l0,0.1h5.2v-0.4c0-0.9-0.2-1.6-0.6-2.2C267.3,500.7,266.7,500.4,265.8,500.4z"/>
	<path class="st5" d="M274.9,510.7l2.1-0.4v-9.8l-2.3-0.4v-2.6h6.3l0.2,2.3c0.4-0.8,0.8-1.5,1.4-1.9s1.3-0.7,2-0.7
		c0.2,0,0.5,0,0.7,0.1c0.2,0,0.5,0.1,0.6,0.1l-0.5,3.9l-1.8,0c-0.6,0-1.1,0.1-1.6,0.4s-0.7,0.6-0.9,1v7.7l2.1,0.4v2.6h-8.4V510.7z"
		/>
	<path class="st5" d="M300.1,502.8h-2.9l-0.5-2c-0.3-0.2-0.7-0.4-1.1-0.6s-0.9-0.2-1.5-0.2c-0.8,0-1.3,0.2-1.8,0.5
		c-0.4,0.3-0.7,0.8-0.7,1.3c0,0.5,0.2,0.9,0.6,1.2c0.4,0.3,1.3,0.6,2.5,0.8c2,0.4,3.4,1,4.4,1.7c0.9,0.8,1.4,1.8,1.4,3.1
		c0,1.4-0.6,2.6-1.8,3.5c-1.2,0.9-2.8,1.4-4.8,1.4c-1.2,0-2.3-0.2-3.4-0.5c-1-0.4-1.9-0.9-2.7-1.5l0-3.6h3l0.6,2.1
		c0.3,0.2,0.6,0.4,1,0.5c0.4,0.1,0.9,0.2,1.4,0.2c0.9,0,1.5-0.2,2-0.5s0.7-0.7,0.7-1.3c0-0.5-0.2-0.9-0.7-1.2s-1.3-0.6-2.5-0.9
		c-1.9-0.4-3.3-0.9-4.2-1.7c-1-0.7-1.4-1.8-1.4-3.1c0-1.3,0.5-2.5,1.6-3.4c1.1-1,2.7-1.4,4.7-1.4c1.2,0,2.4,0.2,3.5,0.5
		s2,0.8,2.6,1.3L300.1,502.8z"/>
	<path class="st5" d="M302.5,510.7l2.1-0.4v-9.8l-2.3-0.4v-2.6h6.6v12.8l2.1,0.4v2.6h-8.4V510.7z M308.9,493.6h-4.3v-3.2h4.3V493.6z
		"/>
	<path class="st5" d="M325.3,502.8h-2.9l-0.5-2c-0.3-0.2-0.7-0.4-1.1-0.6s-0.9-0.2-1.5-0.2c-0.8,0-1.3,0.2-1.8,0.5
		c-0.4,0.3-0.7,0.8-0.7,1.3c0,0.5,0.2,0.9,0.6,1.2c0.4,0.3,1.3,0.6,2.5,0.8c2,0.4,3.4,1,4.4,1.7c0.9,0.8,1.4,1.8,1.4,3.1
		c0,1.4-0.6,2.6-1.8,3.5c-1.2,0.9-2.8,1.4-4.8,1.4c-1.2,0-2.3-0.2-3.4-0.5c-1-0.4-1.9-0.9-2.7-1.5l0-3.6h3l0.6,2.1
		c0.3,0.2,0.6,0.4,1,0.5c0.4,0.1,0.9,0.2,1.4,0.2c0.9,0,1.5-0.2,2-0.5s0.7-0.7,0.7-1.3c0-0.5-0.2-0.9-0.7-1.2s-1.3-0.6-2.5-0.9
		c-1.9-0.4-3.3-0.9-4.2-1.7c-1-0.7-1.4-1.8-1.4-3.1c0-1.3,0.5-2.5,1.6-3.4c1.1-1,2.7-1.4,4.7-1.4c1.2,0,2.4,0.2,3.5,0.5
		s2,0.8,2.6,1.3L325.3,502.8z"/>
	<path class="st5" d="M333,513.2h-4.3v-3.8h4.3V513.2z"/>
</g>
<g class="st4">
	<path class="st5" d="M225.7,75.3l2.1-0.4V65l-2.3-0.4V62h6.6v12.8l2.1,0.4v2.6h-8.4V75.3z M232,58.2h-4.3V55h4.3V58.2z"/>
	<path class="st5" d="M235.2,75.3l2.1-0.4V65l-2.3-0.4V62h6.3l0.2,2.3c0.5-0.8,1.2-1.4,1.9-1.9s1.6-0.7,2.6-0.7
		c1.6,0,2.9,0.5,3.8,1.5s1.3,2.6,1.3,4.7v6.9l2.1,0.4v2.6H245v-2.6l1.8-0.4V68c0-1.1-0.2-1.8-0.6-2.3s-1.1-0.7-1.9-0.7
		c-0.6,0-1.1,0.1-1.5,0.3s-0.8,0.6-1.1,1v8.5l1.7,0.4v2.6h-8.1V75.3z"/>
	<path class="st5" d="M260.8,58.1V62h2.8v3h-2.8v8.1c0,0.6,0.1,1.1,0.4,1.3s0.6,0.4,1,0.4c0.3,0,0.5,0,0.8,0s0.5-0.1,0.7-0.1
		l0.4,3.1c-0.5,0.1-1,0.3-1.4,0.3c-0.5,0.1-1,0.1-1.5,0.1c-1.5,0-2.6-0.4-3.4-1.2s-1.2-2.1-1.2-3.9V65h-2.3v-3h2.3v-3.9H260.8z"/>
	<path class="st5" d="M273.3,78.2c-2.3,0-4.1-0.7-5.5-2.2s-2.1-3.3-2.1-5.6v-0.6c0-2.4,0.6-4.3,1.9-5.8s3-2.3,5.2-2.3
		c2.1,0,3.8,0.6,5,1.9s1.8,3,1.8,5.2v2.3h-9.5l0,0.1c0.1,1,0.4,1.9,1,2.6s1.5,1,2.5,1c0.9,0,1.7-0.1,2.4-0.3
		c0.6-0.2,1.3-0.5,2.1-0.9l1.2,2.6c-0.7,0.5-1.5,1-2.5,1.3S274.6,78.2,273.3,78.2z M272.9,65c-0.8,0-1.4,0.3-1.9,0.9
		s-0.7,1.4-0.8,2.4l0,0.1h5.2V68c0-0.9-0.2-1.6-0.6-2.2C274.4,65.3,273.8,65,272.9,65z"/>
	<path class="st5" d="M281.9,70.1c0-2.5,0.5-4.5,1.6-6s2.6-2.3,4.6-2.3c0.9,0,1.7,0.2,2.3,0.6c0.7,0.4,1.3,1,1.7,1.7l0.3-2h3.7v15.4
		c0,2.1-0.7,3.8-2,5c-1.3,1.2-3.1,1.9-5.4,1.9c-0.8,0-1.7-0.1-2.5-0.3c-0.9-0.2-1.7-0.5-2.5-0.9l0.8-3c0.7,0.3,1.4,0.5,2.1,0.7
		s1.4,0.3,2.2,0.3c1,0,1.8-0.3,2.3-1s0.8-1.5,0.8-2.7v-1c-0.5,0.6-1,1-1.7,1.4s-1.4,0.5-2.2,0.5c-1.9,0-3.5-0.7-4.5-2.1
		s-1.6-3.3-1.6-5.6V70.1z M286.2,70.4c0,1.4,0.2,2.5,0.7,3.3s1.2,1.2,2.3,1.2c0.7,0,1.2-0.1,1.7-0.4c0.5-0.2,0.8-0.6,1.1-1v-6.9
		c-0.3-0.5-0.6-0.8-1.1-1.1s-1-0.4-1.6-0.4c-1,0-1.8,0.5-2.3,1.4s-0.7,2.1-0.7,3.6V70.4z"/>
	<path class="st5" d="M299.1,75.3l2.1-0.4V65l-2.3-0.4V62h6.3l0.2,2.3c0.4-0.8,0.8-1.5,1.4-1.9s1.3-0.7,2-0.7c0.2,0,0.5,0,0.7,0.1
		c0.2,0,0.5,0.1,0.6,0.1l-0.5,3.9l-1.8,0c-0.6,0-1.1,0.1-1.6,0.4s-0.7,0.6-0.9,1v7.7l2.1,0.4v2.6h-8.4V75.3z"/>
	<path class="st5" d="M311.3,75.3l2.1-0.4V65l-2.3-0.4V62h6.6v12.8l2.1,0.4v2.6h-8.4V75.3z M317.7,58.2h-4.3V55h4.3V58.2z"/>
	<path class="st5" d="M327.4,58.1V62h2.8v3h-2.8v8.1c0,0.6,0.1,1.1,0.4,1.3s0.6,0.4,1,0.4c0.3,0,0.5,0,0.8,0s0.5-0.1,0.7-0.1
		l0.4,3.1c-0.5,0.1-1,0.3-1.4,0.3c-0.5,0.1-1,0.1-1.5,0.1c-1.5,0-2.6-0.4-3.4-1.2s-1.2-2.1-1.2-3.9V65h-2.3v-3h2.3v-3.9H327.4z"/>
	<path class="st5" d="M348.7,64.6l-1.5,0.2l-5.8,15.4c-0.5,1.1-1.1,2.1-1.8,2.9s-1.9,1.2-3.5,1.2c-0.4,0-0.7,0-1-0.1
		s-0.7-0.1-1.1-0.2l0.5-3.1c0.1,0,0.3,0,0.4,0.1s0.3,0,0.4,0c0.7,0,1.3-0.2,1.6-0.5s0.7-0.8,0.9-1.3l0.5-1.2l-5-13.1l-1.5-0.2V62
		h7.8v2.6l-1.8,0.3l2.2,6.3l0.2,1.1l0.1,0l2.5-7.5l-1.8-0.3V62h7.8V64.6z"/>
</g>
<g class="st4">
	<path class="st5" d="M256.3,98.8c0-2.4,0.7-4.3,2-5.8c1.3-1.5,3.2-2.3,5.5-2.3c2.3,0,4.2,0.8,5.5,2.3s2,3.4,2,5.8v0.3
		c0,2.4-0.7,4.3-2,5.8c-1.3,1.5-3.1,2.2-5.5,2.2c-2.4,0-4.2-0.7-5.5-2.2c-1.3-1.5-2-3.4-2-5.8V98.8z M260.6,99.1
		c0,1.4,0.3,2.6,0.8,3.5c0.5,0.9,1.3,1.3,2.5,1.3c1.1,0,1.9-0.4,2.4-1.3s0.8-2,0.8-3.5v-0.3c0-1.4-0.3-2.6-0.8-3.4s-1.3-1.3-2.4-1.3
		s-1.9,0.4-2.4,1.3s-0.8,2-0.8,3.4V99.1z"/>
	<path class="st5" d="M272.9,104.3l2.1-0.4V94l-2.3-0.4V91h6.3l0.2,2.3c0.5-0.8,1.2-1.4,1.9-1.9s1.6-0.7,2.6-0.7
		c1.6,0,2.9,0.5,3.8,1.5s1.3,2.6,1.3,4.7v6.9l2.1,0.4v2.6h-8.2v-2.6l1.8-0.4V97c0-1.1-0.2-1.8-0.6-2.3s-1.1-0.7-1.9-0.7
		c-0.6,0-1.1,0.1-1.5,0.3s-0.8,0.6-1.1,1v8.5l1.7,0.4v2.6h-8.1V104.3z"/>
	<path class="st5" d="M291.7,86.6V84h6.6v19.8l2.1,0.4v2.6H292v-2.6l2.1-0.4V87L291.7,86.6z"/>
	<path class="st5" d="M318.2,93.6l-1.5,0.2l-5.8,15.4c-0.5,1.1-1.1,2.1-1.8,2.9s-1.9,1.2-3.5,1.2c-0.4,0-0.7,0-1-0.1
		s-0.7-0.1-1.1-0.2l0.5-3.1c0.1,0,0.3,0,0.4,0.1s0.3,0,0.4,0c0.7,0,1.3-0.2,1.6-0.5s0.7-0.8,0.9-1.3l0.5-1.2l-5-13.1l-1.5-0.2V91
		h7.8v2.6l-1.8,0.3l2.2,6.3l0.2,1.1l0.1,0l2.5-7.5l-1.8-0.3V91h7.8V93.6z"/>
</g>
<path class="st1" d="M216,162h142c4.4,0,8,3.6,8,8v84c0,4.4-3.6,8-8,8H216c-4.4,0-8-3.6-8-8v-84C208,165.6,211.6,162,216,162z"/>
<g class="st4">
	<path class="st5" d="M282.3,208.7h-3.2l-0.4-2.8c-0.4-0.4-0.9-0.8-1.6-1s-1.4-0.4-2.3-0.4c-1.9,0-3.3,0.7-4.3,2s-1.5,3.1-1.5,5.3
		v0.7c0,2.2,0.5,3.9,1.5,5.3s2.4,2,4.2,2c0.8,0,1.6-0.1,2.3-0.4s1.2-0.6,1.6-1l0.4-2.8h3.2v4.2c-0.9,1-2,1.8-3.3,2.4
		c-1.3,0.6-2.8,0.9-4.5,0.9c-2.9,0-5.2-1-7-3s-2.7-4.5-2.7-7.6v-0.7c0-3.1,0.9-5.6,2.7-7.6s4.2-3,7-3c1.7,0,3.1,0.3,4.5,0.9
		c1.3,0.6,2.4,1.4,3.3,2.4V208.7z"/>
	<path class="st5" d="M293.5,211h5.3v3.7h-5.3v6.1h-4.1v-6.1h-5.3V211h5.3v-5.8h4.1V211z"/>
	<path class="st5" d="M300.3,204.1v-2.6h8.8v2.6l-2.3,0.4v15.3l2.3,0.4v2.6h-8.8v-2.6l2.3-0.4v-15.3L300.3,204.1z"/>
</g>
<g class="st4">
	<path class="st5" d="M557.4,51.9c0,2.3-0.5,4.1-1.6,5.5c-1.1,1.4-2.6,2.1-4.5,2.1c-1,0-1.9-0.2-2.7-0.6c-0.8-0.4-1.4-1-1.9-1.8
		l-0.3,2h-2.5V38.6l-2.4-0.4v-1.9h5.3v8.9c0.5-0.7,1.1-1.2,1.9-1.6s1.6-0.6,2.6-0.6c2,0,3.5,0.8,4.6,2.3s1.6,3.6,1.6,6.2V51.9z
		 M554.5,51.6c0-1.8-0.3-3.3-1-4.5s-1.7-1.7-3-1.7c-0.9,0-1.6,0.2-2.2,0.6s-1.1,1-1.5,1.7v7c0.4,0.7,0.9,1.3,1.5,1.7
		s1.4,0.6,2.3,0.6c1.4,0,2.4-0.5,3-1.5s1-2.2,1-3.8V51.6z"/>
	<path class="st5" d="M560.2,57.4l2.4-0.4V45.7l-2.4-0.4v-1.9h5.3V57l2.4,0.4v1.8h-7.7V57.4z M565.5,39.3h-2.9v-2.9h2.9V39.3z"/>
	<path class="st5" d="M569.7,57.4l2.4-0.4V45.7l-2.4-0.4v-1.9h5l0.2,2.4c0.5-0.8,1.2-1.5,2-2c0.8-0.5,1.7-0.7,2.7-0.7
		c1.7,0,3,0.5,4,1.5s1.4,2.5,1.4,4.6V57l2.4,0.4v1.8h-7.7v-1.8L582,57v-7.7c0-1.4-0.3-2.4-0.8-3s-1.4-0.9-2.5-0.9
		c-0.8,0-1.6,0.2-2.2,0.6s-1.1,0.9-1.5,1.6V57l2.4,0.4v1.8h-7.7V57.4z"/>
	<path class="st5" d="M599.8,59.2c-0.1-0.4-0.2-0.8-0.2-1.2s-0.1-0.7-0.1-1c-0.6,0.7-1.3,1.3-2.1,1.8c-0.8,0.5-1.7,0.7-2.7,0.7
		c-1.7,0-2.9-0.4-3.8-1.2c-0.9-0.8-1.3-1.9-1.3-3.4c0-1.5,0.6-2.7,1.8-3.5s2.9-1.2,5-1.2h3v-1.8c0-0.9-0.3-1.7-0.9-2.2
		c-0.6-0.5-1.4-0.8-2.4-0.8c-0.7,0-1.4,0.1-1.9,0.3s-1,0.4-1.3,0.8l-0.3,1.7h-2.2V45c0.7-0.6,1.6-1,2.6-1.4c1-0.3,2.1-0.5,3.3-0.5
		c1.8,0,3.3,0.5,4.4,1.4s1.7,2.2,1.7,3.9V56c0,0.2,0,0.4,0,0.6s0,0.4,0,0.6l1.2,0.2v1.8H599.8z M595.1,57.1c1,0,1.8-0.2,2.6-0.7
		s1.4-1,1.7-1.7v-2.6h-3.1c-1.2,0-2.1,0.3-2.8,0.8s-1,1.2-1,2c0,0.7,0.2,1.2,0.6,1.6C593.6,56.9,594.2,57.1,595.1,57.1z"/>
</g>
<g class="st4">
	<path class="st5" d="M605.9,45.2v-1.9h5l0.3,2.3c0.4-0.8,1-1.4,1.7-1.9s1.4-0.7,2.3-0.7c0.2,0,0.5,0,0.7,0.1c0.2,0,0.4,0.1,0.5,0.1
		l-0.4,2.7l-1.6-0.1c-0.8,0-1.4,0.2-1.9,0.5s-0.9,0.9-1.2,1.5V57l2.4,0.4v1.8h-7.7v-1.8l2.4-0.4V45.7L605.9,45.2z"/>
</g>
<g class="st4">
	<path class="st5" d="M633.7,45.2l-1.4,0.2l-6,16.2c-0.4,1.1-1,2-1.7,2.8s-1.8,1.2-3,1.2c-0.2,0-0.5,0-0.9-0.1s-0.6-0.1-0.8-0.2
		l0.3-2.3c-0.1,0,0.1,0,0.5,0s0.7,0,0.8,0c0.6,0,1.1-0.3,1.5-0.8c0.4-0.5,0.7-1.1,1-1.8l0.7-1.6l-5.2-13.4l-1.5-0.2v-1.9h6.4v1.9
		l-1.8,0.3l2.7,7.8l0.5,2h0.1l3.3-9.8l-1.8-0.3v-1.9h6.4V45.2z"/>
	<path class="st5" d="M642.8,45.5v-2.1h2.5v-2c0-1.7,0.4-3,1.3-3.9c0.9-0.9,2.1-1.4,3.7-1.4c0.3,0,0.7,0,1,0.1s0.7,0.1,1.1,0.2
		l-0.4,2.2c-0.2,0-0.4-0.1-0.6-0.1s-0.5,0-0.8,0c-0.8,0-1.5,0.3-1.9,0.8c-0.4,0.5-0.6,1.2-0.6,2.2v2h3.3v2.1h-3.3V57l2.4,0.4v1.8
		h-7.7v-1.8l2.4-0.4V45.5H642.8z"/>
	<path class="st5" d="M665.9,48.4h-2.2l-0.5-1.9c-0.4-0.3-0.8-0.6-1.3-0.8c-0.5-0.2-1.1-0.3-1.8-0.3c-1,0-1.8,0.2-2.3,0.7
		s-0.7,1-0.7,1.6c0,0.6,0.2,1.1,0.7,1.5s1.3,0.7,2.7,1c2,0.4,3.5,1,4.5,1.8s1.5,1.7,1.5,3c0,1.4-0.6,2.5-1.7,3.4s-2.6,1.3-4.5,1.3
		c-1.2,0-2.3-0.1-3.2-0.4c-1-0.3-1.8-0.7-2.6-1.2l0-3.6h2.2l0.5,2.1c0.3,0.3,0.8,0.5,1.4,0.7s1.2,0.2,1.8,0.2c1,0,1.8-0.2,2.4-0.6
		s0.9-1,0.9-1.6c0-0.6-0.2-1.2-0.7-1.6s-1.4-0.8-2.7-1.1c-1.9-0.4-3.4-1-4.4-1.7s-1.5-1.7-1.5-2.9c0-1.3,0.5-2.4,1.6-3.3
		s2.5-1.4,4.3-1.4c1.2,0,2.3,0.2,3.2,0.5s1.8,0.7,2.4,1.3L665.9,48.4z"/>
	<path class="st5" d="M676.9,50.6c0-3.8,0.8-7.1,2.3-9.9s3.2-4.5,4.9-5.4l0.1,0l0.5,1.7c-1.3,1-2.5,2.7-3.5,5s-1.5,5.2-1.5,8.5v0.2
		c0,3.4,0.5,6.2,1.5,8.5c1,2.3,2.1,4,3.5,5.1l-0.5,1.6h-0.1c-1.7-0.9-3.3-2.7-4.9-5.4c-1.6-2.7-2.3-6-2.3-9.9V50.6z"/>
	<path class="st5" d="M685.8,38.2v-1.9h5.3V57l2.4,0.4v1.8h-7.7v-1.8l2.4-0.4V38.6L685.8,38.2z"/>
	<path class="st5" d="M695.6,57.4L698,57V45.7l-2.4-0.4v-1.9h5.3V57l2.4,0.4v1.8h-7.7V57.4z M700.9,39.3H698v-2.9h2.9V39.3z"/>
</g>
<g class="st4">
	<path class="st5" d="M705.1,38.2v-1.9h5.3v13.2h1.8l3.4-4.2l-1.5-0.2v-1.9h6.6v1.9l-1.9,0.4l-4.2,5l5.1,6.4l1.8,0.4v1.8H715v-1.8
		l1.5-0.2l-4.2-5.3h-1.9V57l2.4,0.4v1.8h-7.7v-1.8l2.4-0.4V38.6L705.1,38.2z"/>
</g>
<g class="st4">
	<path class="st5" d="M730.7,59.5c-2.2,0-4-0.7-5.3-2.2s-2-3.4-2-5.7V51c0-2.3,0.7-4.1,2-5.6c1.3-1.5,2.9-2.2,4.8-2.2
		c2.1,0,3.7,0.6,4.8,1.9s1.6,3,1.6,5.2V52h-10.3l0,0.1c0,1.5,0.4,2.8,1.2,3.8c0.7,1,1.8,1.5,3.1,1.5c1,0,1.8-0.1,2.6-0.4
		c0.7-0.3,1.4-0.7,1.9-1.2l1.1,1.9c-0.6,0.5-1.3,1-2.2,1.4C733.1,59.3,732,59.5,730.7,59.5z M730.2,45.4c-1,0-1.8,0.4-2.5,1.2
		s-1.1,1.8-1.3,3.1l0,0.1h7.3v-0.4c0-1.1-0.3-2.1-0.9-2.8S731.4,45.4,730.2,45.4z"/>
</g>
<g class="st4">
	<path class="st5" d="M746.6,57.4L749,57V45.7l-2.4-0.4v-1.9h5l0.2,2.4c0.5-0.8,1.2-1.5,2-2c0.8-0.5,1.7-0.7,2.7-0.7
		c1.7,0,3,0.5,4,1.5s1.4,2.5,1.4,4.6V57l2.4,0.4v1.8h-7.7v-1.8L759,57v-7.7c0-1.4-0.3-2.4-0.8-3s-1.4-0.9-2.5-0.9
		c-0.8,0-1.6,0.2-2.2,0.6s-1.1,0.9-1.5,1.6V57l2.4,0.4v1.8h-7.7V57.4z"/>
</g>
<g class="st4">
	<path class="st5" d="M766.2,51.2c0-2.3,0.6-4.3,1.9-5.8c1.3-1.5,3-2.3,5.2-2.3c2.2,0,3.9,0.8,5.2,2.3s1.9,3.4,1.9,5.8v0.3
		c0,2.4-0.6,4.3-1.9,5.8s-3,2.3-5.2,2.3c-2.2,0-3.9-0.8-5.2-2.3c-1.3-1.5-1.9-3.4-1.9-5.8V51.2z M769.1,51.5c0,1.7,0.4,3.1,1.1,4.2
		s1.8,1.6,3.2,1.6c1.4,0,2.4-0.5,3.1-1.6s1.1-2.5,1.1-4.2v-0.3c0-1.7-0.4-3-1.1-4.1s-1.8-1.7-3.1-1.7s-2.4,0.6-3.1,1.7
		s-1.1,2.5-1.1,4.1V51.5z"/>
	<path class="st5" d="M793.7,57.3c-0.5,0.7-1.1,1.3-1.9,1.6s-1.6,0.6-2.6,0.6c-1.9,0-3.4-0.7-4.5-2.1c-1.1-1.4-1.6-3.2-1.6-5.5v-0.3
		c0-2.5,0.5-4.6,1.6-6.2s2.6-2.3,4.6-2.3c0.9,0,1.8,0.2,2.5,0.5c0.7,0.3,1.3,0.8,1.8,1.5v-6.5l-2.4-0.4v-1.9h2.4h2.9V57l2.4,0.4v1.8
		h-4.9L793.7,57.3z M785.9,51.9c0,1.6,0.3,2.9,1,3.8s1.7,1.5,3,1.5c0.9,0,1.6-0.2,2.2-0.6s1.1-0.9,1.5-1.7v-7.4
		c-0.4-0.7-0.9-1.2-1.5-1.6s-1.3-0.6-2.1-0.6c-1.4,0-2.4,0.6-3.1,1.7s-1,2.6-1,4.5V51.9z"/>
</g>
<g class="st4">
	<path class="st5" d="M808.3,59.5c-2.2,0-4-0.7-5.3-2.2s-2-3.4-2-5.7V51c0-2.3,0.7-4.1,2-5.6c1.3-1.5,2.9-2.2,4.8-2.2
		c2.1,0,3.7,0.6,4.8,1.9s1.6,3,1.6,5.2V52H804l0,0.1c0,1.5,0.4,2.8,1.2,3.8c0.7,1,1.8,1.5,3.1,1.5c1,0,1.8-0.1,2.6-0.4
		c0.7-0.3,1.4-0.7,1.9-1.2l1.1,1.9c-0.6,0.5-1.3,1-2.2,1.4C810.7,59.3,809.6,59.5,808.3,59.5z M807.8,45.4c-1,0-1.8,0.4-2.5,1.2
		s-1.1,1.8-1.3,3.1l0,0.1h7.3v-0.4c0-1.1-0.3-2.1-0.9-2.8S809,45.4,807.8,45.4z"/>
</g>
<g class="st4">
	<path class="st5" d="M820.6,39.1c0,1-0.2,2-0.7,3s-1.1,1.9-1.9,2.6l-1.6-1.1c0.5-0.7,0.8-1.4,1-2.1c0.2-0.7,0.4-1.5,0.4-2.4v-2.7
		h2.9V39.1z"/>
	<path class="st5" d="M837.2,50.7c0,3.9-0.8,7.1-2.3,9.9c-1.6,2.7-3.2,4.5-4.9,5.4h-0.1l-0.5-1.6c1.3-1,2.5-2.7,3.5-5.1
		c1-2.3,1.5-5.2,1.5-8.6v-0.2c0-3.3-0.5-6.2-1.5-8.6s-2.2-4.1-3.4-5.1l0.5-1.6h0.1c1.7,0.9,3.3,2.7,4.9,5.4s2.3,6,2.3,9.9V50.7z"/>
</g>
<g class="st4">
	<path class="st5" d="M550.1,126.5c-2.2,0-4-0.7-5.3-2.2s-2-3.4-2-5.7V118c0-2.3,0.7-4.1,2-5.6c1.3-1.5,2.9-2.2,4.8-2.2
		c2.1,0,3.7,0.6,4.8,1.9s1.6,3,1.6,5.2v1.8h-10.3l0,0.1c0,1.5,0.4,2.8,1.2,3.8c0.7,1,1.8,1.5,3.1,1.5c1,0,1.8-0.1,2.6-0.4
		c0.7-0.3,1.4-0.7,1.9-1.2l1.1,1.9c-0.6,0.5-1.3,1-2.2,1.4C552.5,126.3,551.4,126.5,550.1,126.5z M549.7,112.4c-1,0-1.8,0.4-2.5,1.2
		s-1.1,1.8-1.3,3.1l0,0.1h7.3v-0.4c0-1.1-0.3-2.1-0.9-2.8S550.9,112.4,549.7,112.4z"/>
</g>
<g class="st4">
	<path class="st5" d="M558.6,124.4l2.4-0.4v-11.3l-2.4-0.4v-1.9h5l0.2,2.4c0.5-0.8,1.2-1.5,2-2c0.8-0.5,1.7-0.7,2.7-0.7
		c1.7,0,3,0.5,4,1.5s1.4,2.5,1.4,4.6v7.7l2.4,0.4v1.8h-7.7v-1.8l2.4-0.4v-7.7c0-1.4-0.3-2.4-0.8-3s-1.4-0.9-2.5-0.9
		c-0.8,0-1.6,0.2-2.2,0.6s-1.1,0.9-1.5,1.6v9.3l2.4,0.4v1.8h-7.7V124.4z"/>
</g>
<g class="st4">
	<path class="st5" d="M585.3,124.3c1,0,1.8-0.3,2.5-0.9s1.1-1.3,1.1-2.2h2.6l0,0.1c0,1.4-0.6,2.6-1.8,3.6s-2.7,1.6-4.4,1.6
		c-2.3,0-4.1-0.8-5.3-2.3s-1.8-3.4-1.8-5.7V118c0-2.3,0.6-4.1,1.8-5.6c1.2-1.5,3-2.3,5.3-2.3c1.3,0,2.4,0.2,3.4,0.6s1.8,1,2.5,1.7
		l0.1,3.5H589l-0.6-2.5c-0.3-0.3-0.8-0.6-1.3-0.8s-1.1-0.3-1.8-0.3c-1.5,0-2.6,0.5-3.2,1.6s-1,2.4-1,4v0.6c0,1.6,0.3,3,1,4.1
		S583.8,124.3,585.3,124.3z"/>
</g>
<g class="st4">
	<path class="st5" d="M594.3,112.2v-1.9h5l0.3,2.3c0.4-0.8,1-1.4,1.7-1.9s1.4-0.7,2.3-0.7c0.2,0,0.5,0,0.7,0.1
		c0.2,0,0.4,0.1,0.5,0.1l-0.4,2.7l-1.6-0.1c-0.8,0-1.4,0.2-1.9,0.5s-0.9,0.9-1.2,1.5v9.1l2.4,0.4v1.8h-7.7v-1.8l2.4-0.4v-11.3
		L594.3,112.2z"/>
</g>
<g class="st4">
	<path class="st5" d="M622.1,112.2l-1.4,0.2l-6,16.2c-0.4,1.1-1,2-1.7,2.8s-1.8,1.2-3,1.2c-0.2,0-0.5,0-0.9-0.1s-0.6-0.1-0.8-0.2
		l0.3-2.3c-0.1,0,0.1,0,0.5,0s0.7,0,0.8,0c0.6,0,1.1-0.3,1.5-0.8c0.4-0.5,0.7-1.1,1-1.8l0.7-1.6l-5.2-13.4l-1.5-0.2v-1.9h6.4v1.9
		l-1.8,0.3l2.7,7.8l0.5,2h0.1l3.3-9.8l-1.8-0.3v-1.9h6.4V112.2z"/>
	<path class="st5" d="M623.7,130.5l2.4-0.4v-17.4l-2.4-0.4v-1.9h4.9l0.3,1.9c0.5-0.7,1.2-1.3,1.9-1.7s1.6-0.6,2.6-0.6
		c2,0,3.5,0.8,4.6,2.3c1.1,1.6,1.6,3.6,1.6,6.2v0.3c0,2.3-0.5,4.1-1.6,5.5c-1.1,1.4-2.6,2.1-4.5,2.1c-1,0-1.8-0.2-2.6-0.5
		c-0.7-0.3-1.4-0.8-1.9-1.5v5.5l2.4,0.4v1.9h-7.7V130.5z M636.7,118.6c0-1.8-0.4-3.3-1.1-4.4s-1.7-1.7-3.1-1.7
		c-0.8,0-1.5,0.2-2.1,0.6s-1.1,0.9-1.4,1.5v7.7c0.4,0.7,0.8,1.2,1.4,1.5s1.3,0.5,2.1,0.5c1.4,0,2.4-0.5,3.1-1.5s1.1-2.3,1.1-3.9
		V118.6z"/>
	<path class="st5" d="M647.2,106.6v3.8h3v2.1h-3v9.6c0,0.7,0.2,1.3,0.5,1.6s0.7,0.5,1.2,0.5c0.3,0,0.5,0,0.9-0.1
		c0.3,0,0.6-0.1,0.8-0.1l0.4,2c-0.3,0.2-0.7,0.3-1.2,0.4s-1.1,0.2-1.6,0.2c-1.2,0-2.1-0.4-2.8-1.1s-1-1.8-1-3.3v-9.6h-2.5v-2.1h2.5
		v-3.8H647.2z"/>
	<path class="st5" d="M660.4,126.5c-2.2,0-4-0.7-5.3-2.2s-2-3.4-2-5.7V118c0-2.3,0.7-4.1,2-5.6c1.3-1.5,2.9-2.2,4.8-2.2
		c2.1,0,3.7,0.6,4.8,1.9s1.6,3,1.6,5.2v1.8h-10.3l0,0.1c0,1.5,0.4,2.8,1.2,3.8c0.7,1,1.8,1.5,3.1,1.5c1,0,1.8-0.1,2.6-0.4
		c0.7-0.3,1.4-0.7,1.9-1.2l1.1,1.9c-0.6,0.5-1.3,1-2.2,1.4C662.8,126.3,661.7,126.5,660.4,126.5z M660,112.4c-1,0-1.8,0.4-2.5,1.2
		s-1.1,1.8-1.3,3.1l0,0.1h7.3v-0.4c0-1.1-0.3-2.1-0.9-2.8S661.2,112.4,660,112.4z"/>
	<path class="st5" d="M680,124.3c-0.5,0.7-1.2,1.3-1.9,1.6s-1.6,0.6-2.6,0.6c-1.9,0-3.4-0.7-4.5-2.1c-1.1-1.4-1.6-3.2-1.6-5.5v-0.3
		c0-2.5,0.5-4.6,1.6-6.2s2.6-2.3,4.6-2.3c0.9,0,1.8,0.2,2.5,0.5c0.7,0.3,1.3,0.8,1.8,1.5v-6.5l-2.4-0.4v-1.9h2.4h2.9V124l2.4,0.4
		v1.8h-4.9L680,124.3z M672.2,118.9c0,1.6,0.3,2.9,1,3.8s1.7,1.5,3,1.5c0.9,0,1.6-0.2,2.2-0.6s1.1-0.9,1.5-1.7v-7.4
		c-0.4-0.7-0.9-1.2-1.5-1.6s-1.3-0.6-2.1-0.6c-1.4,0-2.4,0.6-3.1,1.7s-1,2.6-1,4.5V118.9z"/>
	<path class="st5" d="M694.1,112.5v-2.1h2.5v-1.7c0-1.8,0.5-3.2,1.6-4.1s2.5-1.5,4.3-1.5c0.6,0,1.3,0.1,1.9,0.2s1.4,0.4,2.2,0.7
		l-0.5,2.3c-0.5-0.2-1.1-0.4-1.7-0.5s-1.2-0.2-1.8-0.2c-1.2,0-2,0.3-2.5,0.8s-0.8,1.3-0.8,2.3v1.7h9V124l2.4,0.4v1.8h-7.7v-1.8
		l2.4-0.4v-11.5h-6.2V124l2.4,0.4v1.8h-7.7v-1.8l2.4-0.4v-11.5H694.1z"/>
	<path class="st5" d="M712.5,105.2v-1.9h5.3V124l2.4,0.4v1.8h-7.7v-1.8l2.4-0.4v-18.3L712.5,105.2z"/>
	<path class="st5" d="M729.6,126.5c-2.2,0-4-0.7-5.3-2.2s-2-3.4-2-5.7V118c0-2.3,0.7-4.1,2-5.6c1.3-1.5,2.9-2.2,4.8-2.2
		c2.1,0,3.7,0.6,4.8,1.9s1.6,3,1.6,5.2v1.8h-10.3l0,0.1c0,1.5,0.4,2.8,1.2,3.8c0.7,1,1.8,1.5,3.1,1.5c1,0,1.8-0.1,2.6-0.4
		c0.7-0.3,1.4-0.7,1.9-1.2l1.1,1.9c-0.6,0.5-1.3,1-2.2,1.4C732,126.3,730.9,126.5,729.6,126.5z M729.2,112.4c-1,0-1.8,0.4-2.5,1.2
		s-1.1,1.8-1.3,3.1l0,0.1h7.3v-0.4c0-1.1-0.3-2.1-0.9-2.8S730.3,112.4,729.2,112.4z"/>
</g>
<g class="st4">
	<path class="st5" d="M745.9,112.2v-1.9h5l0.3,2.3c0.4-0.8,1-1.4,1.7-1.9s1.4-0.7,2.3-0.7c0.2,0,0.5,0,0.7,0.1
		c0.2,0,0.4,0.1,0.5,0.1l-0.4,2.7l-1.6-0.1c-0.8,0-1.4,0.2-1.9,0.5s-0.9,0.9-1.2,1.5v9.1l2.4,0.4v1.8h-7.7v-1.8l2.4-0.4v-11.3
		L745.9,112.2z"/>
</g>
<g class="st4">
	<path class="st5" d="M765.3,126.5c-2.2,0-4-0.7-5.3-2.2s-2-3.4-2-5.7V118c0-2.3,0.7-4.1,2-5.6c1.3-1.5,2.9-2.2,4.8-2.2
		c2.1,0,3.7,0.6,4.8,1.9s1.6,3,1.6,5.2v1.8h-10.3l0,0.1c0,1.5,0.4,2.8,1.2,3.8c0.7,1,1.8,1.5,3.1,1.5c1,0,1.8-0.1,2.6-0.4
		c0.7-0.3,1.4-0.7,1.9-1.2l1.1,1.9c-0.6,0.5-1.3,1-2.2,1.4C767.7,126.3,766.6,126.5,765.3,126.5z M764.9,112.4c-1,0-1.8,0.4-2.5,1.2
		s-1.1,1.8-1.3,3.1l0,0.1h7.3v-0.4c0-1.1-0.3-2.1-0.9-2.8S766.1,112.4,764.9,112.4z"/>
	<path class="st5" d="M774.2,118.6c0-2.5,0.6-4.6,1.7-6.2s2.7-2.3,4.6-2.3c1,0,1.9,0.2,2.6,0.6s1.4,1,1.9,1.7l0.3-2h2.4V126
		c0,2.1-0.6,3.7-1.7,4.8c-1.1,1.2-2.8,1.8-4.9,1.8c-0.8,0-1.6-0.1-2.5-0.3s-1.7-0.5-2.3-0.9l0.7-2.2c0.5,0.3,1.2,0.5,1.9,0.7
		s1.4,0.3,2.1,0.3c1.3,0,2.2-0.4,2.8-1.1s0.9-1.8,0.9-3.1v-1.5c-0.5,0.7-1.1,1.2-1.9,1.5s-1.6,0.5-2.5,0.5c-1.9,0-3.5-0.7-4.6-2.1
		s-1.7-3.2-1.7-5.5V118.6z M777.1,118.9c0,1.6,0.3,2.9,1,3.8s1.7,1.5,3.1,1.5c0.9,0,1.6-0.2,2.2-0.6c0.6-0.4,1.1-1,1.5-1.7v-7.3
		c-0.4-0.7-0.9-1.2-1.5-1.6c-0.6-0.4-1.3-0.6-2.2-0.6c-1.4,0-2.4,0.6-3.1,1.7s-1,2.6-1,4.4V118.9z"/>
	<path class="st5" d="M791.2,124.4l2.4-0.4v-11.3l-2.4-0.4v-1.9h5.3V124l2.4,0.4v1.8h-7.7V124.4z M796.5,106.3h-2.9v-2.9h2.9V106.3z
		"/>
	<path class="st5" d="M801.1,118.2c0-2.3,0.6-4.3,1.9-5.8c1.3-1.5,3-2.3,5.2-2.3c2.2,0,3.9,0.8,5.2,2.3s1.9,3.4,1.9,5.8v0.3
		c0,2.4-0.6,4.3-1.9,5.8s-3,2.3-5.2,2.3c-2.2,0-3.9-0.8-5.2-2.3c-1.3-1.5-1.9-3.4-1.9-5.8V118.2z M803.9,118.5
		c0,1.7,0.4,3.1,1.1,4.2s1.8,1.6,3.2,1.6c1.4,0,2.4-0.5,3.1-1.6s1.1-2.5,1.1-4.2v-0.3c0-1.7-0.4-3-1.1-4.1s-1.8-1.7-3.2-1.7
		s-2.4,0.6-3.1,1.7s-1.1,2.5-1.1,4.1V118.5z"/>
	<path class="st5" d="M817.4,124.4l2.4-0.4v-11.3l-2.4-0.4v-1.9h5l0.2,2.4c0.5-0.8,1.2-1.5,2-2c0.8-0.5,1.7-0.7,2.7-0.7
		c1.7,0,3,0.5,4,1.5s1.4,2.5,1.4,4.6v7.7l2.4,0.4v1.8h-7.7v-1.8l2.4-0.4v-7.7c0-1.4-0.3-2.4-0.8-3s-1.4-0.9-2.5-0.9
		c-0.8,0-1.6,0.2-2.2,0.6s-1.2,0.9-1.5,1.6v9.3l2.4,0.4v1.8h-7.7V124.4z"/>
</g>
<g class="st4">
	<path class="st5" d="M550.1,219.5c-2.2,0-4-0.7-5.3-2.2s-2-3.4-2-5.7V211c0-2.3,0.7-4.1,2-5.6c1.3-1.5,2.9-2.2,4.8-2.2
		c2.1,0,3.7,0.6,4.8,1.9s1.6,3,1.6,5.2v1.8h-10.3l0,0.1c0,1.5,0.4,2.8,1.2,3.8c0.7,1,1.8,1.5,3.1,1.5c1,0,1.8-0.1,2.6-0.4
		c0.7-0.3,1.4-0.7,1.9-1.2l1.1,1.9c-0.6,0.5-1.3,1-2.2,1.4C552.5,219.3,551.4,219.5,550.1,219.5z M549.7,205.4c-1,0-1.8,0.4-2.5,1.2
		s-1.1,1.8-1.3,3.1l0,0.1h7.3v-0.4c0-1.1-0.3-2.1-0.9-2.8S550.9,205.4,549.7,205.4z"/>
</g>
<g class="st4">
	<path class="st5" d="M558.6,217.4l2.4-0.4v-11.3l-2.4-0.4v-1.9h5l0.2,2.4c0.5-0.8,1.2-1.5,2-2c0.8-0.5,1.7-0.7,2.7-0.7
		c1.7,0,3,0.5,4,1.5s1.4,2.5,1.4,4.6v7.7l2.4,0.4v1.8h-7.7v-1.8l2.4-0.4v-7.7c0-1.4-0.3-2.4-0.8-3s-1.4-0.9-2.5-0.9
		c-0.8,0-1.6,0.2-2.2,0.6s-1.1,0.9-1.5,1.6v9.3l2.4,0.4v1.8h-7.7V217.4z"/>
</g>
<g class="st4">
	<path class="st5" d="M585.3,217.3c1,0,1.8-0.3,2.5-0.9s1.1-1.3,1.1-2.2h2.6l0,0.1c0,1.4-0.6,2.6-1.8,3.6s-2.7,1.6-4.4,1.6
		c-2.3,0-4.1-0.8-5.3-2.3s-1.8-3.4-1.8-5.7V211c0-2.3,0.6-4.1,1.8-5.6c1.2-1.5,3-2.3,5.3-2.3c1.3,0,2.4,0.2,3.4,0.6s1.8,1,2.5,1.7
		l0.1,3.5H589l-0.6-2.5c-0.3-0.3-0.8-0.6-1.3-0.8s-1.1-0.3-1.8-0.3c-1.5,0-2.6,0.5-3.2,1.6s-1,2.4-1,4v0.6c0,1.6,0.3,3,1,4.1
		S583.8,217.3,585.3,217.3z"/>
</g>
<g class="st4">
	<path class="st5" d="M594.3,205.2v-1.9h5l0.3,2.3c0.4-0.8,1-1.4,1.7-1.9s1.4-0.7,2.3-0.7c0.2,0,0.5,0,0.7,0.1
		c0.2,0,0.4,0.1,0.5,0.1l-0.4,2.7l-1.6-0.1c-0.8,0-1.4,0.2-1.9,0.5s-0.9,0.9-1.2,1.5v9.1l2.4,0.4v1.8h-7.7v-1.8l2.4-0.4v-11.3
		L594.3,205.2z"/>
</g>
<g class="st4">
	<path class="st5" d="M622.1,205.2l-1.4,0.2l-6,16.2c-0.4,1.1-1,2-1.7,2.8s-1.8,1.2-3,1.2c-0.2,0-0.5,0-0.9-0.1s-0.6-0.1-0.8-0.2
		l0.3-2.3c-0.1,0,0.1,0,0.5,0s0.7,0,0.8,0c0.6,0,1.1-0.3,1.5-0.8c0.4-0.5,0.7-1.1,1-1.8l0.7-1.6l-5.2-13.4l-1.5-0.2v-1.9h6.4v1.9
		l-1.8,0.3l2.7,7.8l0.5,2h0.1l3.3-9.8l-1.8-0.3v-1.9h6.4V205.2z"/>
	<path class="st5" d="M623.7,223.5l2.4-0.4v-17.4l-2.4-0.4v-1.9h4.9l0.3,1.9c0.5-0.7,1.2-1.3,1.9-1.7s1.6-0.6,2.6-0.6
		c2,0,3.5,0.8,4.6,2.3c1.1,1.6,1.6,3.6,1.6,6.2v0.3c0,2.3-0.5,4.1-1.6,5.5c-1.1,1.4-2.6,2.1-4.5,2.1c-1,0-1.8-0.2-2.6-0.5
		c-0.7-0.3-1.4-0.8-1.9-1.5v5.5l2.4,0.4v1.9h-7.7V223.5z M636.7,211.6c0-1.8-0.4-3.3-1.1-4.4s-1.7-1.7-3.1-1.7
		c-0.8,0-1.5,0.2-2.1,0.6s-1.1,0.9-1.4,1.5v7.7c0.4,0.7,0.8,1.2,1.4,1.5s1.3,0.5,2.1,0.5c1.4,0,2.4-0.5,3.1-1.5s1.1-2.3,1.1-3.9
		V211.6z"/>
	<path class="st5" d="M647.2,199.6v3.8h3v2.1h-3v9.6c0,0.7,0.2,1.3,0.5,1.6s0.7,0.5,1.2,0.5c0.3,0,0.5,0,0.9-0.1
		c0.3,0,0.6-0.1,0.8-0.1l0.4,2c-0.3,0.2-0.7,0.3-1.2,0.4s-1.1,0.2-1.6,0.2c-1.2,0-2.1-0.4-2.8-1.1s-1-1.8-1-3.3v-9.6h-2.5v-2.1h2.5
		v-3.8H647.2z"/>
	<path class="st5" d="M660.4,219.5c-2.2,0-4-0.7-5.3-2.2s-2-3.4-2-5.7V211c0-2.3,0.7-4.1,2-5.6c1.3-1.5,2.9-2.2,4.8-2.2
		c2.1,0,3.7,0.6,4.8,1.9s1.6,3,1.6,5.2v1.8h-10.3l0,0.1c0,1.5,0.4,2.8,1.2,3.8c0.7,1,1.8,1.5,3.1,1.5c1,0,1.8-0.1,2.6-0.4
		c0.7-0.3,1.4-0.7,1.9-1.2l1.1,1.9c-0.6,0.5-1.3,1-2.2,1.4C662.8,219.3,661.7,219.5,660.4,219.5z M660,205.4c-1,0-1.8,0.4-2.5,1.2
		s-1.1,1.8-1.3,3.1l0,0.1h7.3v-0.4c0-1.1-0.3-2.1-0.9-2.8S661.2,205.4,660,205.4z"/>
	<path class="st5" d="M680,217.3c-0.5,0.7-1.2,1.3-1.9,1.6s-1.6,0.6-2.6,0.6c-1.9,0-3.4-0.7-4.5-2.1c-1.1-1.4-1.6-3.2-1.6-5.5v-0.3
		c0-2.5,0.5-4.6,1.6-6.2s2.6-2.3,4.6-2.3c0.9,0,1.8,0.2,2.5,0.5c0.7,0.3,1.3,0.8,1.8,1.5v-6.5l-2.4-0.4v-1.9h2.4h2.9V217l2.4,0.4
		v1.8h-4.9L680,217.3z M672.2,211.9c0,1.6,0.3,2.9,1,3.8s1.7,1.5,3,1.5c0.9,0,1.6-0.2,2.2-0.6s1.1-0.9,1.5-1.7v-7.4
		c-0.4-0.7-0.9-1.2-1.5-1.6s-1.3-0.6-2.1-0.6c-1.4,0-2.4,0.6-3.1,1.7s-1,2.6-1,4.5V211.9z"/>
	<path class="st5" d="M694.1,205.5v-2.1h2.5v-1.7c0-1.8,0.5-3.2,1.6-4.1s2.5-1.5,4.3-1.5c0.6,0,1.3,0.1,1.9,0.2s1.4,0.4,2.2,0.7
		l-0.5,2.3c-0.5-0.2-1.1-0.4-1.7-0.5s-1.2-0.2-1.8-0.2c-1.2,0-2,0.3-2.5,0.8s-0.8,1.3-0.8,2.3v1.7h9V217l2.4,0.4v1.8h-7.7v-1.8
		l2.4-0.4v-11.5h-6.2V217l2.4,0.4v1.8h-7.7v-1.8l2.4-0.4v-11.5H694.1z"/>
	<path class="st5" d="M712.5,198.2v-1.9h5.3V217l2.4,0.4v1.8h-7.7v-1.8l2.4-0.4v-18.3L712.5,198.2z"/>
	<path class="st5" d="M729.6,219.5c-2.2,0-4-0.7-5.3-2.2s-2-3.4-2-5.7V211c0-2.3,0.7-4.1,2-5.6c1.3-1.5,2.9-2.2,4.8-2.2
		c2.1,0,3.7,0.6,4.8,1.9s1.6,3,1.6,5.2v1.8h-10.3l0,0.1c0,1.5,0.4,2.8,1.2,3.8c0.7,1,1.8,1.5,3.1,1.5c1,0,1.8-0.1,2.6-0.4
		c0.7-0.3,1.4-0.7,1.9-1.2l1.1,1.9c-0.6,0.5-1.3,1-2.2,1.4C732,219.3,730.9,219.5,729.6,219.5z M729.2,205.4c-1,0-1.8,0.4-2.5,1.2
		s-1.1,1.8-1.3,3.1l0,0.1h7.3v-0.4c0-1.1-0.3-2.1-0.9-2.8S730.3,205.4,729.2,205.4z"/>
</g>
<g class="st4">
	<path class="st5" d="M745.9,205.2v-1.9h5l0.3,2.3c0.4-0.8,1-1.4,1.7-1.9s1.4-0.7,2.3-0.7c0.2,0,0.5,0,0.7,0.1
		c0.2,0,0.4,0.1,0.5,0.1l-0.4,2.7l-1.6-0.1c-0.8,0-1.4,0.2-1.9,0.5s-0.9,0.9-1.2,1.5v9.1l2.4,0.4v1.8h-7.7v-1.8l2.4-0.4v-11.3
		L745.9,205.2z"/>
</g>
<g class="st4">
	<path class="st5" d="M765.3,219.5c-2.2,0-4-0.7-5.3-2.2s-2-3.4-2-5.7V211c0-2.3,0.7-4.1,2-5.6c1.3-1.5,2.9-2.2,4.8-2.2
		c2.1,0,3.7,0.6,4.8,1.9s1.6,3,1.6,5.2v1.8h-10.3l0,0.1c0,1.5,0.4,2.8,1.2,3.8c0.7,1,1.8,1.5,3.1,1.5c1,0,1.8-0.1,2.6-0.4
		c0.7-0.3,1.4-0.7,1.9-1.2l1.1,1.9c-0.6,0.5-1.3,1-2.2,1.4C767.7,219.3,766.6,219.5,765.3,219.5z M764.9,205.4c-1,0-1.8,0.4-2.5,1.2
		s-1.1,1.8-1.3,3.1l0,0.1h7.3v-0.4c0-1.1-0.3-2.1-0.9-2.8S766.1,205.4,764.9,205.4z"/>
	<path class="st5" d="M774.2,211.6c0-2.5,0.6-4.6,1.7-6.2s2.7-2.3,4.6-2.3c1,0,1.9,0.2,2.6,0.6s1.4,1,1.9,1.7l0.3-2h2.4V219
		c0,2.1-0.6,3.7-1.7,4.8c-1.1,1.2-2.8,1.8-4.9,1.8c-0.8,0-1.6-0.1-2.5-0.3s-1.7-0.5-2.3-0.9l0.7-2.2c0.5,0.3,1.2,0.5,1.9,0.7
		s1.4,0.3,2.1,0.3c1.3,0,2.2-0.4,2.8-1.1s0.9-1.8,0.9-3.1v-1.5c-0.5,0.7-1.1,1.2-1.9,1.5s-1.6,0.5-2.5,0.5c-1.9,0-3.5-0.7-4.6-2.1
		s-1.7-3.2-1.7-5.5V211.6z M777.1,211.9c0,1.6,0.3,2.9,1,3.8s1.7,1.5,3.1,1.5c0.9,0,1.6-0.2,2.2-0.6c0.6-0.4,1.1-1,1.5-1.7v-7.3
		c-0.4-0.7-0.9-1.2-1.5-1.6c-0.6-0.4-1.3-0.6-2.2-0.6c-1.4,0-2.4,0.6-3.1,1.7s-1,2.6-1,4.4V211.9z"/>
	<path class="st5" d="M791.2,217.4l2.4-0.4v-11.3l-2.4-0.4v-1.9h5.3V217l2.4,0.4v1.8h-7.7V217.4z M796.5,199.3h-2.9v-2.9h2.9V199.3z
		"/>
	<path class="st5" d="M801.1,211.2c0-2.3,0.6-4.3,1.9-5.8c1.3-1.5,3-2.3,5.2-2.3c2.2,0,3.9,0.8,5.2,2.3s1.9,3.4,1.9,5.8v0.3
		c0,2.4-0.6,4.3-1.9,5.8s-3,2.3-5.2,2.3c-2.2,0-3.9-0.8-5.2-2.3c-1.3-1.5-1.9-3.4-1.9-5.8V211.2z M803.9,211.5
		c0,1.7,0.4,3.1,1.1,4.2s1.8,1.6,3.2,1.6c1.4,0,2.4-0.5,3.1-1.6s1.1-2.5,1.1-4.2v-0.3c0-1.7-0.4-3-1.1-4.1s-1.8-1.7-3.2-1.7
		s-2.4,0.6-3.1,1.7s-1.1,2.5-1.1,4.1V211.5z"/>
	<path class="st5" d="M817.4,217.4l2.4-0.4v-11.3l-2.4-0.4v-1.9h5l0.2,2.4c0.5-0.8,1.2-1.5,2-2c0.8-0.5,1.7-0.7,2.7-0.7
		c1.7,0,3,0.5,4,1.5s1.4,2.5,1.4,4.6v7.7l2.4,0.4v1.8h-7.7v-1.8l2.4-0.4v-7.7c0-1.4-0.3-2.4-0.8-3s-1.4-0.9-2.5-0.9
		c-0.8,0-1.6,0.2-2.2,0.6s-1.2,0.9-1.5,1.6v9.3l2.4,0.4v1.8h-7.7V217.4z"/>
</g>
<g class="st4">
	<path class="st5" d="M542.9,328.2v-1.9h5l0.3,2.3c0.4-0.8,1-1.4,1.7-1.9s1.4-0.7,2.3-0.7c0.2,0,0.5,0,0.7,0.1
		c0.2,0,0.4,0.1,0.5,0.1l-0.4,2.7l-1.6-0.1c-0.8,0-1.4,0.2-1.9,0.5s-0.9,0.9-1.2,1.5v9.1l2.4,0.4v1.8h-7.7v-1.8l2.4-0.4v-11.3
		L542.9,328.2z"/>
</g>
<g class="st4">
	<path class="st5" d="M555,334.2c0-2.3,0.6-4.3,1.9-5.8c1.3-1.5,3-2.3,5.2-2.3c2.2,0,3.9,0.8,5.2,2.3s1.9,3.4,1.9,5.8v0.3
		c0,2.4-0.6,4.3-1.9,5.8s-3,2.3-5.2,2.3c-2.2,0-3.9-0.8-5.2-2.3c-1.3-1.5-1.9-3.4-1.9-5.8V334.2z M557.9,334.5
		c0,1.7,0.4,3.1,1.1,4.2s1.8,1.6,3.2,1.6c1.4,0,2.4-0.5,3.1-1.6s1.1-2.5,1.1-4.2v-0.3c0-1.7-0.4-3-1.1-4.1s-1.8-1.7-3.1-1.7
		s-2.4,0.6-3.1,1.7s-1.1,2.5-1.1,4.1V334.5z"/>
	<path class="st5" d="M571.8,334.2c0-2.3,0.6-4.3,1.9-5.8c1.3-1.5,3-2.3,5.2-2.3c2.2,0,3.9,0.8,5.2,2.3s1.9,3.4,1.9,5.8v0.3
		c0,2.4-0.6,4.3-1.9,5.8s-3,2.3-5.2,2.3c-2.2,0-3.9-0.8-5.2-2.3c-1.3-1.5-1.9-3.4-1.9-5.8V334.2z M574.7,334.5
		c0,1.7,0.4,3.1,1.1,4.2s1.8,1.6,3.2,1.6c1.4,0,2.4-0.5,3.1-1.6s1.1-2.5,1.1-4.2v-0.3c0-1.7-0.4-3-1.1-4.1s-1.8-1.7-3.1-1.7
		s-2.4,0.6-3.1,1.7s-1.1,2.5-1.1,4.1V334.5z"/>
	<path class="st5" d="M593.7,322.6v3.8h3v2.1h-3v9.6c0,0.7,0.2,1.3,0.5,1.6s0.7,0.5,1.2,0.5c0.3,0,0.5,0,0.9-0.1
		c0.3,0,0.6-0.1,0.8-0.1l0.4,2c-0.3,0.2-0.7,0.3-1.2,0.4s-1.1,0.2-1.6,0.2c-1.2,0-2.1-0.4-2.8-1.1s-1-1.8-1-3.3v-9.6h-2.5v-2.1h2.5
		v-3.8H593.7z"/>
	<path class="st5" d="M607.1,340.4l2.4-0.4v-11.3l-2.4-0.4v-1.9h5.3V340l2.4,0.4v1.8h-7.7V340.4z M612.4,322.3h-2.9v-2.9h2.9V322.3z
		"/>
	<path class="st5" d="M616.4,340.4l2.4-0.4v-11.3l-2.4-0.4v-1.9h5l0.2,2.1c0.5-0.8,1.2-1.3,2-1.7s1.7-0.6,2.8-0.6s2,0.2,2.7,0.7
		s1.3,1.2,1.7,2.2c0.5-0.9,1.2-1.6,2-2.1s1.8-0.8,2.9-0.8c1.6,0,2.9,0.6,3.8,1.7c0.9,1.1,1.4,2.8,1.4,5v7.2l2.4,0.4v1.8h-7.7v-1.8
		l2.4-0.4v-7.3c0-1.6-0.3-2.7-0.8-3.3s-1.3-1-2.4-1c-1,0-1.8,0.4-2.4,1.1s-1,1.6-1.1,2.7v7.8l2.4,0.4v1.8H626v-1.8l2.4-0.4v-7.3
		c0-1.5-0.3-2.6-0.8-3.3c-0.6-0.7-1.4-1-2.4-1c-0.9,0-1.6,0.2-2.2,0.5s-1,0.9-1.3,1.5v9.5l2.4,0.4v1.8h-7.7V340.4z"/>
	<path class="st5" d="M655.6,342.2c-0.1-0.4-0.2-0.8-0.2-1.2s-0.1-0.7-0.1-1c-0.6,0.7-1.3,1.3-2.1,1.8c-0.8,0.5-1.7,0.7-2.7,0.7
		c-1.7,0-2.9-0.4-3.8-1.2c-0.9-0.8-1.3-1.9-1.3-3.4c0-1.5,0.6-2.7,1.8-3.5c1.2-0.8,2.9-1.2,5-1.2h3v-1.8c0-0.9-0.3-1.7-0.9-2.2
		c-0.6-0.5-1.4-0.8-2.4-0.8c-0.7,0-1.4,0.1-1.9,0.3s-1,0.4-1.3,0.8l-0.3,1.7h-2.2V328c0.7-0.6,1.6-1,2.6-1.4c1-0.3,2.1-0.5,3.3-0.5
		c1.8,0,3.3,0.5,4.4,1.4s1.7,2.2,1.7,3.9v7.6c0,0.2,0,0.4,0,0.6s0,0.4,0,0.6l1.2,0.2v1.8H655.6z M651,340.1c1,0,1.8-0.2,2.6-0.7
		s1.4-1,1.7-1.7v-2.6h-3.1c-1.2,0-2.1,0.3-2.8,0.8s-1,1.2-1,2c0,0.7,0.2,1.2,0.6,1.6C649.5,339.9,650.1,340.1,651,340.1z"/>
	<path class="st5" d="M661.8,334.6c0-2.5,0.6-4.6,1.7-6.2s2.7-2.3,4.6-2.3c1,0,1.9,0.2,2.6,0.6s1.4,1,1.9,1.7l0.3-2h2.4V342
		c0,2.1-0.6,3.7-1.7,4.8c-1.1,1.2-2.8,1.8-4.9,1.8c-0.8,0-1.6-0.1-2.5-0.3s-1.7-0.5-2.3-0.9l0.7-2.2c0.5,0.3,1.2,0.5,1.9,0.7
		s1.4,0.3,2.1,0.3c1.3,0,2.2-0.4,2.8-1.1s0.9-1.8,0.9-3.1v-1.5c-0.5,0.7-1.1,1.2-1.9,1.5s-1.6,0.5-2.5,0.5c-1.9,0-3.5-0.7-4.6-2.1
		s-1.7-3.2-1.7-5.5V334.6z M664.7,334.9c0,1.6,0.3,2.9,1,3.8s1.7,1.5,3.1,1.5c0.9,0,1.6-0.2,2.2-0.6c0.6-0.4,1.1-1,1.5-1.7v-7.3
		c-0.4-0.7-0.9-1.2-1.5-1.6c-0.6-0.4-1.3-0.6-2.2-0.6c-1.4,0-2.4,0.6-3.1,1.7s-1,2.6-1,4.4V334.9z"/>
	<path class="st5" d="M686,342.5c-2.2,0-4-0.7-5.3-2.2s-2-3.4-2-5.7V334c0-2.3,0.7-4.1,2-5.6c1.3-1.5,2.9-2.2,4.8-2.2
		c2.1,0,3.7,0.6,4.8,1.9s1.6,3,1.6,5.2v1.8h-10.3l0,0.1c0,1.5,0.4,2.8,1.2,3.8c0.7,1,1.8,1.5,3.1,1.5c1,0,1.8-0.1,2.6-0.4
		c0.7-0.3,1.4-0.7,1.9-1.2l1.1,1.9c-0.6,0.5-1.3,1-2.2,1.4C688.5,342.3,687.3,342.5,686,342.5z M685.6,328.4c-1,0-1.8,0.4-2.5,1.2
		s-1.1,1.8-1.3,3.1l0,0.1h7.3v-0.4c0-1.1-0.3-2.1-0.9-2.8S686.8,328.4,685.6,328.4z"/>
	<path class="st5" d="M702.7,333.6c0-3.8,0.8-7.1,2.3-9.9s3.2-4.5,4.9-5.4l0.1,0l0.5,1.7c-1.3,1-2.5,2.7-3.5,5s-1.5,5.2-1.5,8.5v0.2
		c0,3.4,0.5,6.2,1.5,8.5c1,2.3,2.1,4,3.5,5.1l-0.5,1.6H710c-1.7-0.9-3.3-2.7-4.9-5.4c-1.6-2.7-2.3-6-2.3-9.9V333.6z"/>
	<path class="st5" d="M711.4,328.5v-2.1h2.5v-1.7c0-1.8,0.5-3.2,1.6-4.1s2.5-1.5,4.3-1.5c0.6,0,1.3,0.1,1.9,0.2s1.4,0.4,2.2,0.7
		l-0.5,2.3c-0.5-0.2-1.1-0.4-1.7-0.5s-1.2-0.2-1.8-0.2c-1.2,0-2,0.3-2.5,0.8s-0.8,1.3-0.8,2.3v1.7h9V340l2.4,0.4v1.8h-7.7v-1.8
		l2.4-0.4v-11.5h-6.2V340l2.4,0.4v1.8h-7.7v-1.8l2.4-0.4v-11.5H711.4z"/>
	<path class="st5" d="M729.8,321.2v-1.9h5.3V340l2.4,0.4v1.8h-7.7v-1.8l2.4-0.4v-18.3L729.8,321.2z"/>
	<path class="st5" d="M746.9,342.5c-2.2,0-4-0.7-5.3-2.2s-2-3.4-2-5.7V334c0-2.3,0.7-4.1,2-5.6c1.3-1.5,2.9-2.2,4.8-2.2
		c2.1,0,3.7,0.6,4.8,1.9s1.6,3,1.6,5.2v1.8h-10.3l0,0.1c0,1.5,0.4,2.8,1.2,3.8c0.7,1,1.8,1.5,3.1,1.5c1,0,1.8-0.1,2.6-0.4
		c0.7-0.3,1.4-0.7,1.9-1.2l1.1,1.9c-0.6,0.5-1.3,1-2.2,1.4C749.3,342.3,748.2,342.5,746.9,342.5z M746.5,328.4c-1,0-1.8,0.4-2.5,1.2
		s-1.1,1.8-1.3,3.1l0,0.1h7.3v-0.4c0-1.1-0.3-2.1-0.9-2.8S747.7,328.4,746.5,328.4z"/>
	<path class="st5" d="M767.9,331.4h-2.2l-0.5-1.9c-0.4-0.3-0.8-0.6-1.3-0.8c-0.5-0.2-1.1-0.3-1.8-0.3c-1,0-1.8,0.2-2.3,0.7
		s-0.7,1-0.7,1.6c0,0.6,0.2,1.1,0.7,1.5s1.3,0.7,2.7,1c2,0.4,3.5,1,4.5,1.8s1.5,1.7,1.5,3c0,1.4-0.6,2.5-1.7,3.4s-2.6,1.3-4.5,1.3
		c-1.2,0-2.3-0.1-3.2-0.4c-1-0.3-1.8-0.7-2.6-1.2l0-3.6h2.2l0.5,2.1c0.3,0.3,0.8,0.5,1.4,0.7s1.2,0.2,1.8,0.2c1,0,1.8-0.2,2.4-0.6
		s0.9-1,0.9-1.6c0-0.6-0.2-1.2-0.7-1.6s-1.4-0.8-2.7-1.1c-1.9-0.4-3.4-1-4.4-1.7c-1-0.7-1.5-1.7-1.5-2.9c0-1.3,0.5-2.4,1.6-3.3
		s2.5-1.4,4.3-1.4c1.2,0,2.3,0.2,3.2,0.5s1.8,0.7,2.4,1.3L767.9,331.4z"/>
	<path class="st5" d="M786.2,328.2l-1.4,0.2l-6,16.2c-0.4,1.1-1,2-1.7,2.8s-1.8,1.2-3,1.2c-0.2,0-0.5,0-0.9-0.1s-0.6-0.1-0.8-0.2
		l0.3-2.3c-0.1,0,0.1,0,0.5,0s0.7,0,0.8,0c0.6,0,1.1-0.3,1.5-0.8c0.4-0.5,0.7-1.1,1-1.8l0.7-1.6l-5.2-13.4l-1.5-0.2v-1.9h6.4v1.9
		l-1.8,0.3l2.7,7.8l0.5,2h0.1l3.3-9.8l-1.8-0.3v-1.9h6.4V328.2z"/>
	<path class="st5" d="M800.2,331.4h-2.2l-0.5-1.9c-0.4-0.3-0.8-0.6-1.3-0.8c-0.5-0.2-1.1-0.3-1.8-0.3c-1,0-1.8,0.2-2.3,0.7
		s-0.7,1-0.7,1.6c0,0.6,0.2,1.1,0.7,1.5s1.3,0.7,2.7,1c2,0.4,3.5,1,4.5,1.8s1.5,1.7,1.5,3c0,1.4-0.6,2.5-1.7,3.4s-2.6,1.3-4.5,1.3
		c-1.2,0-2.3-0.1-3.2-0.4c-1-0.3-1.8-0.7-2.6-1.2l0-3.6h2.2l0.5,2.1c0.3,0.3,0.8,0.5,1.4,0.7s1.2,0.2,1.8,0.2c1,0,1.8-0.2,2.4-0.6
		s0.9-1,0.9-1.6c0-0.6-0.2-1.2-0.7-1.6s-1.4-0.8-2.7-1.1c-1.9-0.4-3.4-1-4.4-1.7c-1-0.7-1.5-1.7-1.5-2.9c0-1.3,0.5-2.4,1.6-3.3
		s2.5-1.4,4.3-1.4c1.2,0,2.3,0.2,3.2,0.5s1.8,0.7,2.4,1.3L800.2,331.4z"/>
	<path class="st5" d="M808.4,322.6v3.8h3v2.1h-3v9.6c0,0.7,0.2,1.3,0.5,1.6s0.7,0.5,1.2,0.5c0.3,0,0.5,0,0.9-0.1
		c0.3,0,0.6-0.1,0.8-0.1l0.4,2c-0.3,0.2-0.7,0.3-1.2,0.4s-1.1,0.2-1.6,0.2c-1.2,0-2.1-0.4-2.8-1.1s-1-1.8-1-3.3v-9.6h-2.5v-2.1h2.5
		v-3.8H808.4z"/>
	<path class="st5" d="M821.6,342.5c-2.2,0-4-0.7-5.3-2.2s-2-3.4-2-5.7V334c0-2.3,0.7-4.1,2-5.6c1.3-1.5,2.9-2.2,4.8-2.2
		c2.1,0,3.7,0.6,4.8,1.9s1.6,3,1.6,5.2v1.8h-10.3l0,0.1c0,1.5,0.4,2.8,1.2,3.8c0.7,1,1.8,1.5,3.1,1.5c1,0,1.8-0.1,2.6-0.4
		c0.7-0.3,1.4-0.7,1.9-1.2l1.1,1.9c-0.6,0.5-1.3,1-2.2,1.4C824.1,342.3,822.9,342.5,821.6,342.5z M821.2,328.4c-1,0-1.8,0.4-2.5,1.2
		s-1.1,1.8-1.3,3.1l0,0.1h7.3v-0.4c0-1.1-0.3-2.1-0.9-2.8S822.4,328.4,821.2,328.4z"/>
	<path class="st5" d="M829.9,340.4l2.4-0.4v-11.3l-2.4-0.4v-1.9h5l0.2,2.1c0.5-0.8,1.2-1.3,2-1.7s1.7-0.6,2.8-0.6s2,0.2,2.7,0.7
		s1.3,1.2,1.7,2.2c0.5-0.9,1.2-1.6,2-2.1s1.8-0.8,2.9-0.8c1.6,0,2.9,0.6,3.8,1.7c0.9,1.1,1.4,2.8,1.4,5v7.2l2.4,0.4v1.8h-7.7v-1.8
		l2.4-0.4v-7.3c0-1.6-0.3-2.7-0.8-3.3s-1.3-1-2.4-1c-1,0-1.8,0.4-2.4,1.1s-1,1.6-1.1,2.7v7.8l2.4,0.4v1.8h-7.7v-1.8l2.4-0.4v-7.3
		c0-1.5-0.3-2.6-0.8-3.3c-0.6-0.7-1.4-1-2.4-1c-0.9,0-1.6,0.2-2.2,0.5s-1,0.9-1.3,1.5v9.5l2.4,0.4v1.8h-7.7V340.4z"/>
	<path class="st5" d="M878.5,331.4h-2.2l-0.5-1.9c-0.4-0.3-0.8-0.6-1.3-0.8c-0.5-0.2-1.1-0.3-1.8-0.3c-1,0-1.8,0.2-2.3,0.7
		s-0.7,1-0.7,1.6c0,0.6,0.2,1.1,0.7,1.5s1.3,0.7,2.7,1c2,0.4,3.5,1,4.5,1.8s1.5,1.7,1.5,3c0,1.4-0.6,2.5-1.7,3.4s-2.6,1.3-4.5,1.3
		c-1.2,0-2.3-0.1-3.2-0.4c-1-0.3-1.8-0.7-2.6-1.2l0-3.6h2.2l0.5,2.1c0.3,0.3,0.8,0.5,1.4,0.7s1.2,0.2,1.8,0.2c1,0,1.8-0.2,2.4-0.6
		s0.9-1,0.9-1.6c0-0.6-0.2-1.2-0.7-1.6s-1.4-0.8-2.7-1.1c-1.9-0.4-3.4-1-4.4-1.7c-1-0.7-1.5-1.7-1.5-2.9c0-1.3,0.5-2.4,1.6-3.3
		s2.5-1.4,4.3-1.4c1.2,0,2.3,0.2,3.2,0.5s1.8,0.7,2.4,1.3L878.5,331.4z"/>
	<path class="st5" d="M881.2,340.4l2.4-0.4v-18.3l-2.4-0.4v-1.9h5.3v9.1c0.5-0.8,1.2-1.4,2-1.8s1.7-0.6,2.6-0.6c1.7,0,3,0.5,4,1.5
		s1.4,2.6,1.4,4.7v7.7l2.4,0.4v1.8h-7.7v-1.8l2.4-0.4v-7.7c0-1.3-0.3-2.3-0.8-2.9s-1.4-0.9-2.5-0.9c-0.8,0-1.5,0.2-2.2,0.6
		s-1.2,0.9-1.6,1.5v9.4l2.4,0.4v1.8h-7.7V340.4z"/>
	<path class="st5" d="M901,340.4l2.4-0.4v-11.3l-2.4-0.4v-1.9h5.3V340l2.4,0.4v1.8H901V340.4z M906.3,322.3h-2.9v-2.9h2.9V322.3z"/>
	<path class="st5" d="M918.1,342.5c-2.2,0-4-0.7-5.3-2.2s-2-3.4-2-5.7V334c0-2.3,0.7-4.1,2-5.6c1.3-1.5,2.9-2.2,4.8-2.2
		c2.1,0,3.7,0.6,4.8,1.9s1.6,3,1.6,5.2v1.8h-10.3l0,0.1c0,1.5,0.4,2.8,1.2,3.8c0.7,1,1.8,1.5,3.1,1.5c1,0,1.8-0.1,2.6-0.4
		c0.7-0.3,1.4-0.7,1.9-1.2l1.1,1.9c-0.6,0.5-1.3,1-2.2,1.4C920.5,342.3,919.4,342.5,918.1,342.5z M917.6,328.4c-1,0-1.8,0.4-2.5,1.2
		s-1.1,1.8-1.3,3.1l0,0.1h7.3v-0.4c0-1.1-0.3-2.1-0.9-2.8S918.8,328.4,917.6,328.4z"/>
	<path class="st5" d="M926.6,321.2v-1.9h5.3V340l2.4,0.4v1.8h-7.7v-1.8l2.4-0.4v-18.3L926.6,321.2z"/>
	<path class="st5" d="M947.1,340.3c-0.5,0.7-1.1,1.3-1.9,1.6s-1.6,0.6-2.6,0.6c-1.9,0-3.4-0.7-4.5-2.1c-1.1-1.4-1.6-3.2-1.6-5.5
		v-0.3c0-2.5,0.5-4.6,1.6-6.2s2.6-2.3,4.6-2.3c0.9,0,1.8,0.2,2.5,0.5c0.7,0.3,1.3,0.8,1.8,1.5v-6.5l-2.4-0.4v-1.9h2.4h2.9V340
		l2.4,0.4v1.8h-4.9L947.1,340.3z M939.3,334.9c0,1.6,0.3,2.9,1,3.8s1.7,1.5,3,1.5c0.9,0,1.6-0.2,2.2-0.6s1.1-0.9,1.5-1.7v-7.4
		c-0.4-0.7-0.9-1.2-1.5-1.6s-1.3-0.6-2.1-0.6c-1.4,0-2.4,0.6-3.1,1.7s-1,2.6-1,4.5V334.9z"/>
	<path class="st5" d="M961.1,333.7c0,3.9-0.8,7.1-2.3,9.9c-1.6,2.7-3.2,4.5-4.9,5.4h-0.1l-0.5-1.6c1.3-1,2.5-2.7,3.5-5.1
		c1-2.3,1.5-5.2,1.5-8.6v-0.2c0-3.3-0.5-6.2-1.5-8.6s-2.2-4.1-3.4-5.1l0.5-1.6h0.1c1.7,0.9,3.3,2.7,4.9,5.4s2.3,6,2.3,9.9V333.7z"/>
</g>
<g class="st4">
	<path class="st5" d="M557.4,404.9c0,2.3-0.5,4.1-1.6,5.5c-1.1,1.4-2.6,2.1-4.5,2.1c-1,0-1.9-0.2-2.7-0.6c-0.8-0.4-1.4-1-1.9-1.8
		l-0.3,2h-2.5v-20.6l-2.4-0.4v-1.9h5.3v8.9c0.5-0.7,1.1-1.2,1.9-1.6s1.6-0.6,2.6-0.6c2,0,3.5,0.8,4.6,2.3s1.6,3.6,1.6,6.2V404.9z
		 M554.5,404.6c0-1.8-0.3-3.3-1-4.5s-1.7-1.7-3-1.7c-0.9,0-1.6,0.2-2.2,0.6s-1.1,1-1.5,1.7v7c0.4,0.7,0.9,1.3,1.5,1.7
		s1.4,0.6,2.3,0.6c1.4,0,2.4-0.5,3-1.5s1-2.2,1-3.8V404.6z"/>
	<path class="st5" d="M560.2,410.4l2.4-0.4v-11.3l-2.4-0.4v-1.9h5.3V410l2.4,0.4v1.8h-7.7V410.4z M565.5,392.3h-2.9v-2.9h2.9V392.3z
		"/>
	<path class="st5" d="M569.7,410.4l2.4-0.4v-11.3l-2.4-0.4v-1.9h5l0.2,2.4c0.5-0.8,1.2-1.5,2-2c0.8-0.5,1.7-0.7,2.7-0.7
		c1.7,0,3,0.5,4,1.5s1.4,2.5,1.4,4.6v7.7l2.4,0.4v1.8h-7.7v-1.8l2.4-0.4v-7.7c0-1.4-0.3-2.4-0.8-3s-1.4-0.9-2.5-0.9
		c-0.8,0-1.6,0.2-2.2,0.6s-1.1,0.9-1.5,1.6v9.3l2.4,0.4v1.8h-7.7V410.4z"/>
	<path class="st5" d="M599.8,412.2c-0.1-0.4-0.2-0.8-0.2-1.2s-0.1-0.7-0.1-1c-0.6,0.7-1.3,1.3-2.1,1.8c-0.8,0.5-1.7,0.7-2.7,0.7
		c-1.7,0-2.9-0.4-3.8-1.2c-0.9-0.8-1.3-1.9-1.3-3.4c0-1.5,0.6-2.7,1.8-3.5s2.9-1.2,5-1.2h3v-1.8c0-0.9-0.3-1.7-0.9-2.2
		c-0.6-0.5-1.4-0.8-2.4-0.8c-0.7,0-1.4,0.1-1.9,0.3s-1,0.4-1.3,0.8l-0.3,1.7h-2.2V398c0.7-0.6,1.6-1,2.6-1.4c1-0.3,2.1-0.5,3.3-0.5
		c1.8,0,3.3,0.5,4.4,1.4s1.7,2.2,1.7,3.9v7.6c0,0.2,0,0.4,0,0.6s0,0.4,0,0.6l1.2,0.2v1.8H599.8z M595.1,410.1c1,0,1.8-0.2,2.6-0.7
		s1.4-1,1.7-1.7v-2.6h-3.1c-1.2,0-2.1,0.3-2.8,0.8s-1,1.2-1,2c0,0.7,0.2,1.2,0.6,1.6C593.6,409.9,594.2,410.1,595.1,410.1z"/>
</g>
<g class="st4">
	<path class="st5" d="M605.9,398.2v-1.9h5l0.3,2.3c0.4-0.8,1-1.4,1.7-1.9s1.4-0.7,2.3-0.7c0.2,0,0.5,0,0.7,0.1
		c0.2,0,0.4,0.1,0.5,0.1l-0.4,2.7l-1.6-0.1c-0.8,0-1.4,0.2-1.9,0.5s-0.9,0.9-1.2,1.5v9.1l2.4,0.4v1.8h-7.7v-1.8l2.4-0.4v-11.3
		L605.9,398.2z"/>
</g>
<g class="st4">
	<path class="st5" d="M633.7,398.2l-1.4,0.2l-6,16.2c-0.4,1.1-1,2-1.7,2.8s-1.8,1.2-3,1.2c-0.2,0-0.5,0-0.9-0.1s-0.6-0.1-0.8-0.2
		l0.3-2.3c-0.1,0,0.1,0,0.5,0s0.7,0,0.8,0c0.6,0,1.1-0.3,1.5-0.8c0.4-0.5,0.7-1.1,1-1.8l0.7-1.6l-5.2-13.4l-1.5-0.2v-1.9h6.4v1.9
		l-1.8,0.3l2.7,7.8l0.5,2h0.1l3.3-9.8l-1.8-0.3v-1.9h6.4V398.2z"/>
	<path class="st5" d="M642.8,398.5v-2.1h2.5v-2c0-1.7,0.4-3,1.3-3.9c0.9-0.9,2.1-1.4,3.7-1.4c0.3,0,0.7,0,1,0.1s0.7,0.1,1.1,0.2
		l-0.4,2.2c-0.2,0-0.4-0.1-0.6-0.1s-0.5,0-0.8,0c-0.8,0-1.5,0.3-1.9,0.8c-0.4,0.5-0.6,1.2-0.6,2.2v2h3.3v2.1h-3.3V410l2.4,0.4v1.8
		h-7.7v-1.8l2.4-0.4v-11.5H642.8z"/>
	<path class="st5" d="M665.9,401.4h-2.2l-0.5-1.9c-0.4-0.3-0.8-0.6-1.3-0.8c-0.5-0.2-1.1-0.3-1.8-0.3c-1,0-1.8,0.2-2.3,0.7
		s-0.7,1-0.7,1.6c0,0.6,0.2,1.1,0.7,1.5s1.3,0.7,2.7,1c2,0.4,3.5,1,4.5,1.8s1.5,1.7,1.5,3c0,1.4-0.6,2.5-1.7,3.4s-2.6,1.3-4.5,1.3
		c-1.2,0-2.3-0.1-3.2-0.4c-1-0.3-1.8-0.7-2.6-1.2l0-3.6h2.2l0.5,2.1c0.3,0.3,0.8,0.5,1.4,0.7s1.2,0.2,1.8,0.2c1,0,1.8-0.2,2.4-0.6
		s0.9-1,0.9-1.6c0-0.6-0.2-1.2-0.7-1.6s-1.4-0.8-2.7-1.1c-1.9-0.4-3.4-1-4.4-1.7s-1.5-1.7-1.5-2.9c0-1.3,0.5-2.4,1.6-3.3
		s2.5-1.4,4.3-1.4c1.2,0,2.3,0.2,3.2,0.5s1.8,0.7,2.4,1.3L665.9,401.4z"/>
	<path class="st5" d="M676.9,403.6c0-3.8,0.8-7.1,2.3-9.9s3.2-4.5,4.9-5.4l0.1,0l0.5,1.7c-1.3,1-2.5,2.7-3.5,5s-1.5,5.2-1.5,8.5v0.2
		c0,3.4,0.5,6.2,1.5,8.5c1,2.3,2.1,4,3.5,5.1l-0.5,1.6h-0.1c-1.7-0.9-3.3-2.7-4.9-5.4c-1.6-2.7-2.3-6-2.3-9.9V403.6z"/>
	<path class="st5" d="M685.8,391.2v-1.9h5.3V410l2.4,0.4v1.8h-7.7v-1.8l2.4-0.4v-18.3L685.8,391.2z"/>
	<path class="st5" d="M695.6,410.4l2.4-0.4v-11.3l-2.4-0.4v-1.9h5.3V410l2.4,0.4v1.8h-7.7V410.4z M700.9,392.3H698v-2.9h2.9V392.3z"
		/>
</g>
<g class="st4">
	<path class="st5" d="M705.1,391.2v-1.9h5.3v13.2h1.8l3.4-4.2l-1.5-0.2v-1.9h6.6v1.9l-1.9,0.4l-4.2,5l5.1,6.4l1.8,0.4v1.8H715v-1.8
		l1.5-0.2l-4.2-5.3h-1.9v5.1l2.4,0.4v1.8h-7.7v-1.8l2.4-0.4v-18.3L705.1,391.2z"/>
</g>
<g class="st4">
	<path class="st5" d="M730.7,412.5c-2.2,0-4-0.7-5.3-2.2s-2-3.4-2-5.7V404c0-2.3,0.7-4.1,2-5.6c1.3-1.5,2.9-2.2,4.8-2.2
		c2.1,0,3.7,0.6,4.8,1.9s1.6,3,1.6,5.2v1.8h-10.3l0,0.1c0,1.5,0.4,2.8,1.2,3.8c0.7,1,1.8,1.5,3.1,1.5c1,0,1.8-0.1,2.6-0.4
		c0.7-0.3,1.4-0.7,1.9-1.2l1.1,1.9c-0.6,0.5-1.3,1-2.2,1.4C733.1,412.3,732,412.5,730.7,412.5z M730.2,398.4c-1,0-1.8,0.4-2.5,1.2
		s-1.1,1.8-1.3,3.1l0,0.1h7.3v-0.4c0-1.1-0.3-2.1-0.9-2.8S731.4,398.4,730.2,398.4z"/>
</g>
<g class="st4">
	<path class="st5" d="M746.6,410.4l2.4-0.4v-11.3l-2.4-0.4v-1.9h5l0.2,2.4c0.5-0.8,1.2-1.5,2-2c0.8-0.5,1.7-0.7,2.7-0.7
		c1.7,0,3,0.5,4,1.5s1.4,2.5,1.4,4.6v7.7l2.4,0.4v1.8h-7.7v-1.8l2.4-0.4v-7.7c0-1.4-0.3-2.4-0.8-3s-1.4-0.9-2.5-0.9
		c-0.8,0-1.6,0.2-2.2,0.6s-1.1,0.9-1.5,1.6v9.3l2.4,0.4v1.8h-7.7V410.4z"/>
</g>
<g class="st4">
	<path class="st5" d="M766.2,404.2c0-2.3,0.6-4.3,1.9-5.8c1.3-1.5,3-2.3,5.2-2.3c2.2,0,3.9,0.8,5.2,2.3s1.9,3.4,1.9,5.8v0.3
		c0,2.4-0.6,4.3-1.9,5.8s-3,2.3-5.2,2.3c-2.2,0-3.9-0.8-5.2-2.3c-1.3-1.5-1.9-3.4-1.9-5.8V404.2z M769.1,404.5
		c0,1.7,0.4,3.1,1.1,4.2s1.8,1.6,3.2,1.6c1.4,0,2.4-0.5,3.1-1.6s1.1-2.5,1.1-4.2v-0.3c0-1.7-0.4-3-1.1-4.1s-1.8-1.7-3.1-1.7
		s-2.4,0.6-3.1,1.7s-1.1,2.5-1.1,4.1V404.5z"/>
	<path class="st5" d="M793.7,410.3c-0.5,0.7-1.1,1.3-1.9,1.6s-1.6,0.6-2.6,0.6c-1.9,0-3.4-0.7-4.5-2.1c-1.1-1.4-1.6-3.2-1.6-5.5
		v-0.3c0-2.5,0.5-4.6,1.6-6.2s2.6-2.3,4.6-2.3c0.9,0,1.8,0.2,2.5,0.5c0.7,0.3,1.3,0.8,1.8,1.5v-6.5l-2.4-0.4v-1.9h2.4h2.9V410
		l2.4,0.4v1.8h-4.9L793.7,410.3z M785.9,404.9c0,1.6,0.3,2.9,1,3.8s1.7,1.5,3,1.5c0.9,0,1.6-0.2,2.2-0.6s1.1-0.9,1.5-1.7v-7.4
		c-0.4-0.7-0.9-1.2-1.5-1.6s-1.3-0.6-2.1-0.6c-1.4,0-2.4,0.6-3.1,1.7s-1,2.6-1,4.5V404.9z"/>
</g>
<g class="st4">
	<path class="st5" d="M808.3,412.5c-2.2,0-4-0.7-5.3-2.2s-2-3.4-2-5.7V404c0-2.3,0.7-4.1,2-5.6c1.3-1.5,2.9-2.2,4.8-2.2
		c2.1,0,3.7,0.6,4.8,1.9s1.6,3,1.6,5.2v1.8H804l0,0.1c0,1.5,0.4,2.8,1.2,3.8c0.7,1,1.8,1.5,3.1,1.5c1,0,1.8-0.1,2.6-0.4
		c0.7-0.3,1.4-0.7,1.9-1.2l1.1,1.9c-0.6,0.5-1.3,1-2.2,1.4C810.7,412.3,809.6,412.5,808.3,412.5z M807.8,398.4c-1,0-1.8,0.4-2.5,1.2
		s-1.1,1.8-1.3,3.1l0,0.1h7.3v-0.4c0-1.1-0.3-2.1-0.9-2.8S809,398.4,807.8,398.4z"/>
</g>
<g class="st4">
	<path class="st5" d="M820.6,392.1c0,1-0.2,2-0.7,3s-1.1,1.9-1.9,2.6l-1.6-1.1c0.5-0.7,0.8-1.4,1-2.1c0.2-0.7,0.4-1.5,0.4-2.4v-2.7
		h2.9V392.1z"/>
	<path class="st5" d="M837.2,403.7c0,3.9-0.8,7.1-2.3,9.9c-1.6,2.7-3.2,4.5-4.9,5.4h-0.1l-0.5-1.6c1.3-1,2.5-2.7,3.5-5.1
		c1-2.3,1.5-5.2,1.5-8.6v-0.2c0-3.3-0.5-6.2-1.5-8.6s-2.2-4.1-3.4-5.1l0.5-1.6h0.1c1.7,0.9,3.3,2.7,4.9,5.4s2.3,6,2.3,9.9V403.7z"/>
</g>
<g class="st4">
	<path class="st5" d="M550.1,502.5c-2.2,0-4-0.7-5.3-2.2s-2-3.4-2-5.7V494c0-2.3,0.7-4.1,2-5.6c1.3-1.5,2.9-2.2,4.8-2.2
		c2.1,0,3.7,0.6,4.8,1.9s1.6,3,1.6,5.2v1.8h-10.3l0,0.1c0,1.5,0.4,2.8,1.2,3.8c0.7,1,1.8,1.5,3.1,1.5c1,0,1.8-0.1,2.6-0.4
		c0.7-0.3,1.4-0.7,1.9-1.2l1.1,1.9c-0.6,0.5-1.3,1-2.2,1.4C552.5,502.3,551.4,502.5,550.1,502.5z M549.7,488.4c-1,0-1.8,0.4-2.5,1.2
		s-1.1,1.8-1.3,3.1l0,0.1h7.3v-0.4c0-1.1-0.3-2.1-0.9-2.8S550.9,488.4,549.7,488.4z"/>
</g>
<g class="st4">
	<path class="st5" d="M558.6,500.4l2.4-0.4v-11.3l-2.4-0.4v-1.9h5l0.2,2.4c0.5-0.8,1.2-1.5,2-2c0.8-0.5,1.7-0.7,2.7-0.7
		c1.7,0,3,0.5,4,1.5s1.4,2.5,1.4,4.6v7.7l2.4,0.4v1.8h-7.7v-1.8l2.4-0.4v-7.7c0-1.4-0.3-2.4-0.8-3s-1.4-0.9-2.5-0.9
		c-0.8,0-1.6,0.2-2.2,0.6s-1.1,0.9-1.5,1.6v9.3l2.4,0.4v1.8h-7.7V500.4z"/>
</g>
<g class="st4">
	<path class="st5" d="M585.3,500.3c1,0,1.8-0.3,2.5-0.9s1.1-1.3,1.1-2.2h2.6l0,0.1c0,1.4-0.6,2.6-1.8,3.6s-2.7,1.6-4.4,1.6
		c-2.3,0-4.1-0.8-5.3-2.3s-1.8-3.4-1.8-5.7V494c0-2.3,0.6-4.1,1.8-5.6c1.2-1.5,3-2.3,5.3-2.3c1.3,0,2.4,0.2,3.4,0.6s1.8,1,2.5,1.7
		l0.1,3.5H589l-0.6-2.5c-0.3-0.3-0.8-0.6-1.3-0.8s-1.1-0.3-1.8-0.3c-1.5,0-2.6,0.5-3.2,1.6s-1,2.4-1,4v0.6c0,1.6,0.3,3,1,4.1
		S583.8,500.3,585.3,500.3z"/>
</g>
<g class="st4">
	<path class="st5" d="M594.3,488.2v-1.9h5l0.3,2.3c0.4-0.8,1-1.4,1.7-1.9s1.4-0.7,2.3-0.7c0.2,0,0.5,0,0.7,0.1
		c0.2,0,0.4,0.1,0.5,0.1l-0.4,2.7l-1.6-0.1c-0.8,0-1.4,0.2-1.9,0.5s-0.9,0.9-1.2,1.5v9.1l2.4,0.4v1.8h-7.7v-1.8l2.4-0.4v-11.3
		L594.3,488.2z"/>
</g>
<g class="st4">
	<path class="st5" d="M622.1,488.2l-1.4,0.2l-6,16.2c-0.4,1.1-1,2-1.7,2.8s-1.8,1.2-3,1.2c-0.2,0-0.5,0-0.9-0.1s-0.6-0.1-0.8-0.2
		l0.3-2.3c-0.1,0,0.1,0,0.5,0s0.7,0,0.8,0c0.6,0,1.1-0.3,1.5-0.8c0.4-0.5,0.7-1.1,1-1.8l0.7-1.6l-5.2-13.4l-1.5-0.2v-1.9h6.4v1.9
		l-1.8,0.3l2.7,7.8l0.5,2h0.1l3.3-9.8l-1.8-0.3v-1.9h6.4V488.2z"/>
	<path class="st5" d="M623.7,506.5l2.4-0.4v-17.4l-2.4-0.4v-1.9h4.9l0.3,1.9c0.5-0.7,1.2-1.3,1.9-1.7s1.6-0.6,2.6-0.6
		c2,0,3.5,0.8,4.6,2.3c1.1,1.6,1.6,3.6,1.6,6.2v0.3c0,2.3-0.5,4.1-1.6,5.5c-1.1,1.4-2.6,2.1-4.5,2.1c-1,0-1.8-0.2-2.6-0.5
		c-0.7-0.3-1.4-0.8-1.9-1.5v5.5l2.4,0.4v1.9h-7.7V506.5z M636.7,494.6c0-1.8-0.4-3.3-1.1-4.4s-1.7-1.7-3.1-1.7
		c-0.8,0-1.5,0.2-2.1,0.6s-1.1,0.9-1.4,1.5v7.7c0.4,0.7,0.8,1.2,1.4,1.5s1.3,0.5,2.1,0.5c1.4,0,2.4-0.5,3.1-1.5s1.1-2.3,1.1-3.9
		V494.6z"/>
	<path class="st5" d="M647.2,482.6v3.8h3v2.1h-3v9.6c0,0.7,0.2,1.3,0.5,1.6s0.7,0.5,1.2,0.5c0.3,0,0.5,0,0.9-0.1
		c0.3,0,0.6-0.1,0.8-0.1l0.4,2c-0.3,0.2-0.7,0.3-1.2,0.4s-1.1,0.2-1.6,0.2c-1.2,0-2.1-0.4-2.8-1.1s-1-1.8-1-3.3v-9.6h-2.5v-2.1h2.5
		v-3.8H647.2z"/>
	<path class="st5" d="M660.4,502.5c-2.2,0-4-0.7-5.3-2.2s-2-3.4-2-5.7V494c0-2.3,0.7-4.1,2-5.6c1.3-1.5,2.9-2.2,4.8-2.2
		c2.1,0,3.7,0.6,4.8,1.9s1.6,3,1.6,5.2v1.8h-10.3l0,0.1c0,1.5,0.4,2.8,1.2,3.8c0.7,1,1.8,1.5,3.1,1.5c1,0,1.8-0.1,2.6-0.4
		c0.7-0.3,1.4-0.7,1.9-1.2l1.1,1.9c-0.6,0.5-1.3,1-2.2,1.4C662.8,502.3,661.7,502.5,660.4,502.5z M660,488.4c-1,0-1.8,0.4-2.5,1.2
		s-1.1,1.8-1.3,3.1l0,0.1h7.3v-0.4c0-1.1-0.3-2.1-0.9-2.8S661.2,488.4,660,488.4z"/>
	<path class="st5" d="M680,500.3c-0.5,0.7-1.2,1.3-1.9,1.6s-1.6,0.6-2.6,0.6c-1.9,0-3.4-0.7-4.5-2.1c-1.1-1.4-1.6-3.2-1.6-5.5v-0.3
		c0-2.5,0.5-4.6,1.6-6.2s2.6-2.3,4.6-2.3c0.9,0,1.8,0.2,2.5,0.5c0.7,0.3,1.3,0.8,1.8,1.5v-6.5l-2.4-0.4v-1.9h2.4h2.9V500l2.4,0.4
		v1.8h-4.9L680,500.3z M672.2,494.9c0,1.6,0.3,2.9,1,3.8s1.7,1.5,3,1.5c0.9,0,1.6-0.2,2.2-0.6s1.1-0.9,1.5-1.7v-7.4
		c-0.4-0.7-0.9-1.2-1.5-1.6s-1.3-0.6-2.1-0.6c-1.4,0-2.4,0.6-3.1,1.7s-1,2.6-1,4.5V494.9z"/>
</g>
<g class="st4">
	<path class="st5" d="M700.2,488.2l-1.9,0.3l3.3,9l0.3,1.1h0.1l0.3-1.1l3.2-9l-1.9-0.3v-1.9h6.1v1.9l-1.3,0.2l-5.3,13.8h-2.2
		l-5.4-13.8l-1.3-0.2v-1.9h6.1V488.2z"/>
</g>
<g class="st4">
	<path class="st5" d="M711.3,494.2c0-2.3,0.6-4.3,1.9-5.8c1.3-1.5,3-2.3,5.2-2.3c2.2,0,3.9,0.8,5.2,2.3s1.9,3.4,1.9,5.8v0.3
		c0,2.4-0.6,4.3-1.9,5.8s-3,2.3-5.2,2.3c-2.2,0-3.9-0.8-5.2-2.3c-1.3-1.5-1.9-3.4-1.9-5.8V494.2z M714.2,494.5
		c0,1.7,0.4,3.1,1.1,4.2s1.8,1.6,3.2,1.6c1.4,0,2.4-0.5,3.1-1.6s1.1-2.5,1.1-4.2v-0.3c0-1.7-0.4-3-1.1-4.1s-1.8-1.7-3.2-1.7
		s-2.4,0.6-3.1,1.7s-1.1,2.5-1.1,4.1V494.5z"/>
</g>
<g class="st4">
	<path class="st5" d="M727.4,481.2v-1.9h5.3V500l2.4,0.4v1.8h-7.7v-1.8l2.4-0.4v-18.3L727.4,481.2z"/>
	<path class="st5" d="M748.6,499.9c-0.5,0.8-1.1,1.5-1.9,2s-1.7,0.7-2.7,0.7c-1.7,0-3.1-0.6-4-1.7s-1.4-2.8-1.4-5.2v-7.1l-1.8-0.4
		v-1.9h1.8h2.9v9.4c0,1.7,0.3,2.9,0.7,3.5s1.3,1,2.3,1c1,0,1.9-0.2,2.5-0.6s1.2-1,1.5-1.8v-9.2l-2.1-0.4v-1.9h2.1h2.9V500l1.8,0.4
		v1.8h-4.4L748.6,499.9z"/>
</g>
<g class="st4">
	<path class="st5" d="M754.9,500.4l2.4-0.4v-11.3l-2.4-0.4v-1.9h5l0.2,2.1c0.5-0.8,1.2-1.3,2-1.7s1.7-0.6,2.8-0.6s2,0.2,2.7,0.7
		s1.3,1.2,1.7,2.2c0.5-0.9,1.2-1.6,2-2.1s1.8-0.8,2.9-0.8c1.6,0,2.9,0.6,3.8,1.7c0.9,1.1,1.4,2.8,1.4,5v7.2l2.4,0.4v1.8h-7.7v-1.8
		l2.4-0.4v-7.3c0-1.6-0.3-2.7-0.8-3.3s-1.3-1-2.4-1c-1,0-1.8,0.4-2.4,1.1s-1,1.6-1.1,2.7v7.8l2.4,0.4v1.8h-7.7v-1.8l2.4-0.4v-7.3
		c0-1.5-0.3-2.6-0.8-3.3c-0.6-0.7-1.3-1-2.4-1c-0.9,0-1.6,0.2-2.2,0.5s-1,0.9-1.3,1.5v9.5l2.4,0.4v1.8h-7.7V500.4z"/>
</g>
<g class="st4">
	<path class="st5" d="M790.9,502.5c-2.2,0-4-0.7-5.3-2.2s-2-3.4-2-5.7V494c0-2.3,0.7-4.1,2-5.6c1.3-1.5,2.9-2.2,4.8-2.2
		c2.1,0,3.7,0.6,4.8,1.9s1.6,3,1.6,5.2v1.8h-10.3l0,0.1c0,1.5,0.4,2.8,1.2,3.8c0.7,1,1.8,1.5,3.1,1.5c1,0,1.8-0.1,2.6-0.4
		c0.7-0.3,1.4-0.7,1.9-1.2l1.1,1.9c-0.6,0.5-1.3,1-2.2,1.4C793.4,502.3,792.2,502.5,790.9,502.5z M790.5,488.4c-1,0-1.8,0.4-2.5,1.2
		s-1.1,1.8-1.3,3.1l0,0.1h7.3v-0.4c0-1.1-0.3-2.1-0.9-2.8S791.7,488.4,790.5,488.4z"/>
</g>
<g class="st4">
	<path class="st5" d="M543.2,529.6c0-3.8,0.8-7.1,2.3-9.9s3.2-4.5,4.9-5.4l0.1,0l0.5,1.7c-1.3,1-2.5,2.7-3.5,5s-1.5,5.2-1.5,8.5v0.2
		c0,3.4,0.5,6.2,1.5,8.5c1,2.3,2.1,4,3.5,5.1l-0.5,1.6h-0.1c-1.7-0.9-3.3-2.7-4.9-5.4c-1.6-2.7-2.3-6-2.3-9.9V529.6z"/>
	<path class="st5" d="M551.9,524.5v-2.1h2.5v-1.7c0-1.8,0.5-3.2,1.6-4.1s2.5-1.5,4.3-1.5c0.6,0,1.3,0.1,1.9,0.2s1.4,0.4,2.2,0.7
		l-0.5,2.3c-0.5-0.2-1.1-0.4-1.7-0.5s-1.2-0.2-1.8-0.2c-1.2,0-2,0.3-2.5,0.8s-0.8,1.3-0.8,2.3v1.7h9V536l2.4,0.4v1.8h-7.7v-1.8
		l2.4-0.4v-11.5h-6.2V536l2.4,0.4v1.8H552v-1.8l2.4-0.4v-11.5H551.9z"/>
	<path class="st5" d="M570.3,517.2v-1.9h5.3V536l2.4,0.4v1.8h-7.7v-1.8l2.4-0.4v-18.3L570.3,517.2z"/>
	<path class="st5" d="M587.4,538.5c-2.2,0-4-0.7-5.3-2.2s-2-3.4-2-5.7V530c0-2.3,0.7-4.1,2-5.6c1.3-1.5,2.9-2.2,4.8-2.2
		c2.1,0,3.7,0.6,4.8,1.9s1.6,3,1.6,5.2v1.8h-10.3l0,0.1c0,1.5,0.4,2.8,1.2,3.8c0.7,1,1.8,1.5,3.1,1.5c1,0,1.8-0.1,2.6-0.4
		c0.7-0.3,1.4-0.7,1.9-1.2l1.1,1.9c-0.6,0.5-1.3,1-2.2,1.4C589.8,538.3,588.7,538.5,587.4,538.5z M587,524.4c-1,0-1.8,0.4-2.5,1.2
		s-1.1,1.8-1.3,3.1l0,0.1h7.3v-0.4c0-1.1-0.3-2.1-0.9-2.8S588.2,524.4,587,524.4z"/>
	<path class="st5" d="M608.4,527.4h-2.2l-0.5-1.9c-0.4-0.3-0.8-0.6-1.3-0.8c-0.5-0.2-1.1-0.3-1.8-0.3c-1,0-1.8,0.2-2.3,0.7
		s-0.7,1-0.7,1.6c0,0.6,0.2,1.1,0.7,1.5s1.3,0.7,2.7,1c2,0.4,3.5,1,4.5,1.8s1.5,1.7,1.5,3c0,1.4-0.6,2.5-1.7,3.4s-2.6,1.3-4.5,1.3
		c-1.2,0-2.3-0.1-3.2-0.4c-1-0.3-1.8-0.7-2.6-1.2l0-3.6h2.2l0.5,2.1c0.3,0.3,0.8,0.5,1.4,0.7s1.2,0.2,1.8,0.2c1,0,1.8-0.2,2.4-0.6
		s0.9-1,0.9-1.6c0-0.6-0.2-1.2-0.7-1.6s-1.4-0.8-2.7-1.1c-1.9-0.4-3.4-1-4.4-1.7s-1.5-1.7-1.5-2.9c0-1.3,0.5-2.4,1.6-3.3
		s2.5-1.4,4.3-1.4c1.2,0,2.3,0.2,3.2,0.5s1.8,0.7,2.4,1.3L608.4,527.4z"/>
	<path class="st5" d="M626.6,524.2l-1.4,0.2l-6,16.2c-0.4,1.1-1,2-1.7,2.8s-1.8,1.2-3,1.2c-0.2,0-0.5,0-0.9-0.1s-0.6-0.1-0.8-0.2
		l0.3-2.3c-0.1,0,0.1,0,0.5,0s0.7,0,0.8,0c0.6,0,1.1-0.3,1.5-0.8c0.4-0.5,0.7-1.1,1-1.8l0.7-1.6l-5.2-13.4l-1.5-0.2v-1.9h6.4v1.9
		l-1.8,0.3l2.7,7.8l0.5,2h0.1l3.3-9.8l-1.8-0.3v-1.9h6.4V524.2z"/>
	<path class="st5" d="M640.7,527.4h-2.2l-0.5-1.9c-0.4-0.3-0.8-0.6-1.3-0.8c-0.5-0.2-1.1-0.3-1.8-0.3c-1,0-1.8,0.2-2.3,0.7
		s-0.7,1-0.7,1.6c0,0.6,0.2,1.1,0.7,1.5s1.3,0.7,2.7,1c2,0.4,3.5,1,4.5,1.8s1.5,1.7,1.5,3c0,1.4-0.6,2.5-1.7,3.4s-2.6,1.3-4.5,1.3
		c-1.2,0-2.3-0.1-3.2-0.4c-1-0.3-1.8-0.7-2.6-1.2l0-3.6h2.2l0.5,2.1c0.3,0.3,0.8,0.5,1.4,0.7s1.2,0.2,1.8,0.2c1,0,1.8-0.2,2.4-0.6
		s0.9-1,0.9-1.6c0-0.6-0.2-1.2-0.7-1.6s-1.4-0.8-2.7-1.1c-1.9-0.4-3.4-1-4.4-1.7s-1.5-1.7-1.5-2.9c0-1.3,0.5-2.4,1.6-3.3
		s2.5-1.4,4.3-1.4c1.2,0,2.3,0.2,3.2,0.5s1.8,0.7,2.4,1.3L640.7,527.4z"/>
	<path class="st5" d="M648.9,518.6v3.8h3v2.1h-3v9.6c0,0.7,0.2,1.3,0.5,1.6s0.7,0.5,1.2,0.5c0.3,0,0.5,0,0.9-0.1
		c0.3,0,0.6-0.1,0.8-0.1l0.4,2c-0.3,0.2-0.7,0.3-1.2,0.4s-1.1,0.2-1.6,0.2c-1.2,0-2.1-0.4-2.8-1.1s-1-1.8-1-3.3v-9.6h-2.5v-2.1h2.5
		v-3.8H648.9z"/>
	<path class="st5" d="M662.1,538.5c-2.2,0-4-0.7-5.3-2.2s-2-3.4-2-5.7V530c0-2.3,0.7-4.1,2-5.6c1.3-1.5,2.9-2.2,4.8-2.2
		c2.1,0,3.7,0.6,4.8,1.9s1.6,3,1.6,5.2v1.8h-10.3l0,0.1c0,1.5,0.4,2.8,1.2,3.8c0.7,1,1.8,1.5,3.1,1.5c1,0,1.8-0.1,2.6-0.4
		c0.7-0.3,1.4-0.7,1.9-1.2l1.1,1.9c-0.6,0.5-1.3,1-2.2,1.4C664.6,538.3,663.4,538.5,662.1,538.5z M661.7,524.4c-1,0-1.8,0.4-2.5,1.2
		s-1.1,1.8-1.3,3.1l0,0.1h7.3v-0.4c0-1.1-0.3-2.1-0.9-2.8S662.9,524.4,661.7,524.4z"/>
	<path class="st5" d="M670.4,536.4l2.4-0.4v-11.3l-2.4-0.4v-1.9h5l0.2,2.1c0.5-0.8,1.2-1.3,2-1.7s1.7-0.6,2.8-0.6s2,0.2,2.7,0.7
		s1.3,1.2,1.7,2.2c0.5-0.9,1.2-1.6,2-2.1s1.8-0.8,2.9-0.8c1.6,0,2.9,0.6,3.8,1.7c0.9,1.1,1.4,2.8,1.4,5v7.2l2.4,0.4v1.8h-7.7v-1.8
		l2.4-0.4v-7.3c0-1.6-0.3-2.7-0.8-3.3s-1.3-1-2.4-1c-1,0-1.8,0.4-2.4,1.1s-1,1.6-1.1,2.7v7.8l2.4,0.4v1.8H680v-1.8l2.4-0.4v-7.3
		c0-1.5-0.3-2.6-0.8-3.3c-0.6-0.7-1.3-1-2.4-1c-0.9,0-1.6,0.2-2.2,0.5s-1,0.9-1.3,1.5v9.5l2.4,0.4v1.8h-7.7V536.4z"/>
	<path class="st5" d="M718.9,527.4h-2.2l-0.5-1.9c-0.4-0.3-0.8-0.6-1.3-0.8c-0.5-0.2-1.1-0.3-1.8-0.3c-1,0-1.8,0.2-2.3,0.7
		s-0.7,1-0.7,1.6c0,0.6,0.2,1.1,0.7,1.5s1.3,0.7,2.7,1c2,0.4,3.5,1,4.5,1.8s1.5,1.7,1.5,3c0,1.4-0.6,2.5-1.7,3.4s-2.6,1.3-4.5,1.3
		c-1.2,0-2.3-0.1-3.2-0.4c-1-0.3-1.8-0.7-2.6-1.2l0-3.6h2.2l0.5,2.1c0.3,0.3,0.8,0.5,1.4,0.7s1.2,0.2,1.8,0.2c1,0,1.8-0.2,2.4-0.6
		s0.9-1,0.9-1.6c0-0.6-0.2-1.2-0.7-1.6s-1.4-0.8-2.7-1.1c-1.9-0.4-3.4-1-4.4-1.7s-1.5-1.7-1.5-2.9c0-1.3,0.5-2.4,1.6-3.3
		s2.5-1.4,4.3-1.4c1.2,0,2.3,0.2,3.2,0.5s1.8,0.7,2.4,1.3L718.9,527.4z"/>
	<path class="st5" d="M721.7,536.4l2.4-0.4v-18.3l-2.4-0.4v-1.9h5.3v9.1c0.5-0.8,1.2-1.4,2-1.8s1.7-0.6,2.6-0.6c1.7,0,3,0.5,4,1.5
		s1.4,2.6,1.4,4.7v7.7l2.4,0.4v1.8h-7.7v-1.8l2.4-0.4v-7.7c0-1.3-0.3-2.3-0.8-2.9s-1.4-0.9-2.5-0.9c-0.8,0-1.5,0.2-2.2,0.6
		s-1.2,0.9-1.6,1.5v9.4l2.4,0.4v1.8h-7.7V536.4z"/>
	<path class="st5" d="M741.5,536.4l2.4-0.4v-11.3l-2.4-0.4v-1.9h5.3V536l2.4,0.4v1.8h-7.7V536.4z M746.8,518.3h-2.9v-2.9h2.9V518.3z
		"/>
	<path class="st5" d="M758.6,538.5c-2.2,0-4-0.7-5.3-2.2s-2-3.4-2-5.7V530c0-2.3,0.7-4.1,2-5.6c1.3-1.5,2.9-2.2,4.8-2.2
		c2.1,0,3.7,0.6,4.8,1.9s1.6,3,1.6,5.2v1.8h-10.3l0,0.1c0,1.5,0.4,2.8,1.2,3.8c0.7,1,1.8,1.5,3.1,1.5c1,0,1.8-0.1,2.6-0.4
		c0.7-0.3,1.4-0.7,1.9-1.2l1.1,1.9c-0.6,0.5-1.3,1-2.2,1.4C761,538.3,759.9,538.5,758.6,538.5z M758.1,524.4c-1,0-1.8,0.4-2.5,1.2
		s-1.1,1.8-1.3,3.1l0,0.1h7.3v-0.4c0-1.1-0.3-2.1-0.9-2.8S759.3,524.4,758.1,524.4z"/>
	<path class="st5" d="M767.1,517.2v-1.9h5.3V536l2.4,0.4v1.8h-7.7v-1.8l2.4-0.4v-18.3L767.1,517.2z"/>
	<path class="st5" d="M787.6,536.3c-0.5,0.7-1.2,1.3-1.9,1.6s-1.6,0.6-2.6,0.6c-1.9,0-3.4-0.7-4.5-2.1c-1.1-1.4-1.6-3.2-1.6-5.5
		v-0.3c0-2.5,0.5-4.6,1.6-6.2s2.6-2.3,4.6-2.3c0.9,0,1.8,0.2,2.5,0.5c0.7,0.3,1.3,0.8,1.8,1.5v-6.5l-2.4-0.4v-1.9h2.4h2.9V536
		l2.4,0.4v1.8h-4.9L787.6,536.3z M779.8,530.9c0,1.6,0.3,2.9,1,3.8s1.7,1.5,3,1.5c0.9,0,1.6-0.2,2.2-0.6s1.1-0.9,1.5-1.7v-7.4
		c-0.4-0.7-0.9-1.2-1.5-1.6s-1.3-0.6-2.1-0.6c-1.4,0-2.4,0.6-3.1,1.7s-1,2.6-1,4.5V530.9z"/>
	<path class="st5" d="M801.6,529.7c0,3.9-0.8,7.1-2.3,9.9c-1.6,2.7-3.2,4.5-4.9,5.4h-0.1l-0.5-1.6c1.3-1,2.5-2.7,3.5-5.1
		c1-2.3,1.5-5.2,1.5-8.6v-0.2c0-3.3-0.5-6.2-1.5-8.6s-2.2-4.1-3.4-5.1l0.5-1.6h0.1c1.7,0.9,3.3,2.7,4.9,5.4s2.3,6,2.3,9.9V529.7z"/>
</g>
<g class="st4">
	<path class="st5" d="M228.2,629.5v-2.1h2.5v-1.7c0-1.8,0.5-3.2,1.6-4.1s2.5-1.5,4.3-1.5c0.6,0,1.3,0.1,1.9,0.2s1.4,0.4,2.2,0.7
		l-0.5,2.3c-0.5-0.2-1.1-0.4-1.7-0.5s-1.2-0.2-1.8-0.2c-1.2,0-2,0.3-2.5,0.8s-0.8,1.3-0.8,2.3v1.7h9V641l2.4,0.4v1.8h-7.7v-1.8
		l2.4-0.4v-11.5h-6.2V641l2.4,0.4v1.8h-7.7v-1.8l2.4-0.4v-11.5H228.2z"/>
	<path class="st5" d="M246.6,622.2v-1.9h5.3V641l2.4,0.4v1.8h-7.7v-1.8l2.4-0.4v-18.3L246.6,622.2z"/>
	<path class="st5" d="M263.7,643.5c-2.2,0-4-0.7-5.3-2.2c-1.3-1.5-2-3.4-2-5.7V635c0-2.3,0.7-4.1,2-5.6c1.3-1.5,2.9-2.2,4.8-2.2
		c2.1,0,3.7,0.6,4.8,1.9s1.6,3,1.6,5.2v1.8h-10.3l0,0.1c0,1.5,0.4,2.8,1.2,3.8c0.7,1,1.8,1.5,3.1,1.5c1,0,1.8-0.1,2.6-0.4
		c0.7-0.3,1.4-0.7,1.9-1.2l1.1,1.9c-0.6,0.5-1.3,1-2.2,1.4C266.1,643.3,265,643.5,263.7,643.5z M263.2,629.4c-1,0-1.8,0.4-2.5,1.2
		c-0.7,0.8-1.1,1.8-1.3,3.1l0,0.1h7.3v-0.4c0-1.1-0.3-2.1-0.9-2.8S264.4,629.4,263.2,629.4z"/>
	<path class="st5" d="M285.1,623.6v3.8h3v2.1h-3v9.6c0,0.7,0.2,1.3,0.5,1.6s0.7,0.5,1.2,0.5c0.3,0,0.5,0,0.9-0.1
		c0.3,0,0.6-0.1,0.8-0.1l0.4,2c-0.3,0.2-0.7,0.3-1.2,0.4c-0.5,0.1-1.1,0.2-1.6,0.2c-1.2,0-2.1-0.4-2.8-1.1c-0.7-0.7-1-1.8-1-3.3
		v-9.6h-2.5v-2.1h2.5v-3.8H285.1z"/>
	<path class="st5" d="M306.1,629.2l-1.4,0.2l-6,16.2c-0.4,1.1-1,2-1.7,2.8s-1.8,1.2-3,1.2c-0.2,0-0.5,0-0.9-0.1
		c-0.4-0.1-0.6-0.1-0.8-0.2l0.3-2.3c-0.1,0,0.1,0,0.5,0s0.7,0,0.8,0c0.6,0,1.1-0.3,1.5-0.8c0.4-0.5,0.7-1.1,1-1.8l0.7-1.6l-5.2-13.4
		l-1.5-0.2v-1.9h6.4v1.9l-1.8,0.3l2.7,7.8l0.5,2h0.1l3.3-9.8l-1.8-0.3v-1.9h6.4V629.2z"/>
	<path class="st5" d="M307.7,647.5l2.4-0.4v-17.4l-2.4-0.4v-1.9h4.9l0.3,1.9c0.5-0.7,1.2-1.3,1.9-1.7s1.6-0.6,2.6-0.6
		c2,0,3.5,0.8,4.6,2.3c1.1,1.6,1.6,3.6,1.6,6.2v0.3c0,2.3-0.5,4.1-1.6,5.5c-1.1,1.4-2.6,2.1-4.5,2.1c-1,0-1.8-0.2-2.6-0.5
		s-1.4-0.8-1.9-1.5v5.5l2.4,0.4v1.9h-7.7V647.5z M320.7,635.6c0-1.8-0.4-3.3-1.1-4.4s-1.7-1.7-3.1-1.7c-0.8,0-1.5,0.2-2.1,0.6
		s-1.1,0.9-1.4,1.5v7.7c0.4,0.7,0.8,1.2,1.4,1.5c0.6,0.4,1.3,0.5,2.1,0.5c1.4,0,2.4-0.5,3.1-1.5s1.1-2.3,1.1-3.9V635.6z"/>
	<path class="st5" d="M333.4,643.5c-2.2,0-4-0.7-5.3-2.2c-1.3-1.5-2-3.4-2-5.7V635c0-2.3,0.7-4.1,2-5.6c1.3-1.5,2.9-2.2,4.8-2.2
		c2.1,0,3.7,0.6,4.8,1.9s1.6,3,1.6,5.2v1.8h-10.3l0,0.1c0,1.5,0.4,2.8,1.2,3.8c0.7,1,1.8,1.5,3.1,1.5c1,0,1.8-0.1,2.6-0.4
		c0.7-0.3,1.4-0.7,1.9-1.2l1.1,1.9c-0.6,0.5-1.3,1-2.2,1.4C335.9,643.3,334.8,643.5,333.4,643.5z M333,629.4c-1,0-1.8,0.4-2.5,1.2
		c-0.7,0.8-1.1,1.8-1.3,3.1l0,0.1h7.3v-0.4c0-1.1-0.3-2.1-0.9-2.8S334.2,629.4,333,629.4z"/>
</g>
<g class="st4">
	<path class="st5" d="M86.4,486.3h-2.6v-6.6h19.8l0.4-2.1h2.6v8.4h-2.6l-0.4-2.1H86.9L86.4,486.3z"/>
	<path class="st5" d="M87.1,470.1v4.3h-3.2v-4.3H87.1z M104.2,476.4l-0.4-2.1h-9.8l-0.4,2.3h-2.6v-6.6h12.8l0.4-2.1h2.6v8.4H104.2z"
		/>
</g>
<g class="st4">
	<path class="st5" d="M104.2,466.4l-0.4-2.1h-9.8v2.4h-3v-2.4h-1.8c-1.8,0-3.1-0.5-4.1-1.5c-1-1-1.4-2.5-1.4-4.3
		c0-0.4,0-0.7,0.1-1.1c0.1-0.4,0.1-0.8,0.2-1.2l3.2,0.4c0,0.2-0.1,0.5-0.1,0.7c0,0.2,0,0.5,0,0.8c0,0.7,0.2,1.2,0.6,1.6
		c0.4,0.4,0.9,0.5,1.6,0.5h1.8v-3.1h3v3.1h9.8l0.4-2.1h2.6v8.4H104.2z"/>
</g>
<g class="st4">
	<path class="st5" d="M107,448.2c0,2.3-0.7,4.1-2.2,5.5s-3.3,2.1-5.6,2.1h-0.6c-2.4,0-4.3-0.6-5.8-1.9c-1.5-1.3-2.3-3-2.3-5.2
		c0-2.1,0.6-3.8,1.9-5s3-1.8,5.2-1.8h2.3v9.5l0.1,0c1-0.1,1.9-0.4,2.6-1c0.7-0.6,1-1.5,1-2.5c0-0.9-0.1-1.7-0.3-2.4
		c-0.2-0.6-0.5-1.3-0.9-2.1l2.6-1.2c0.5,0.7,1,1.5,1.3,2.5C106.9,445.8,107,447,107,448.2z M93.9,448.6c0,0.8,0.3,1.4,0.9,1.9
		s1.4,0.7,2.4,0.8l0.1,0v-5.2h-0.4c-0.9,0-1.6,0.2-2.2,0.6C94.1,447.1,93.9,447.8,93.9,448.6z"/>
	<path class="st5" d="M87,433.5h3.9v-2.8h3v2.8h8.1c0.6,0,1.1-0.1,1.3-0.4s0.4-0.6,0.4-1c0-0.3,0-0.5,0-0.8c0-0.2-0.1-0.5-0.1-0.7
		l3.1-0.4c0.1,0.5,0.3,1,0.3,1.4c0.1,0.5,0.1,1,0.1,1.5c0,1.5-0.4,2.6-1.2,3.4c-0.8,0.8-2.1,1.2-3.9,1.2h-8.1v2.3h-3v-2.3H87V433.5z
		"/>
	<path class="st5" d="M87.1,422.5v4.3h-3.2v-4.3H87.1z M104.2,428.8l-0.4-2.1h-9.8l-0.4,2.3h-2.6v-6.6h12.8l0.4-2.1h2.6v8.4H104.2z"
		/>
</g>
<g class="st4">
	<path class="st5" d="M93.4,419.5h-2.6v-6.3l2.1-0.2c-0.8-0.5-1.3-1.1-1.8-1.9c-0.4-0.8-0.6-1.7-0.6-2.7c0-1,0.2-1.9,0.7-2.6
		s1.1-1.3,2-1.6c-0.8-0.5-1.5-1.1-2-1.9s-0.7-1.7-0.7-2.8c0-1.6,0.5-2.8,1.6-3.7c1.1-0.9,2.7-1.4,4.9-1.4h6.6l0.4-2.1h2.6v8.2h-2.6
		l-0.4-1.8h-6.6c-1.2,0-2,0.2-2.5,0.6s-0.7,1-0.7,1.7c0,0.6,0.1,1.1,0.4,1.6c0.3,0.4,0.6,0.8,1.1,1.1c0.2,0,0.3,0,0.5,0
		c0.1,0,0.3,0,0.4,0h7.4l0.4-1.7h2.6v7.7h-2.6l-0.4-1.7h-6.6c-1.2,0-2,0.2-2.5,0.6c-0.5,0.4-0.7,1-0.7,1.8c0,0.6,0.1,1.1,0.3,1.5
		c0.2,0.4,0.5,0.8,0.9,1.1h8.6l0.4-1.8h2.6v8.2h-2.6l-0.4-2.1h-9.8L93.4,419.5z"/>
</g>
<g class="st4">
	<path class="st5" d="M107,383.6c0,2.3-0.7,4.1-2.2,5.5s-3.3,2.1-5.6,2.1h-0.6c-2.4,0-4.3-0.6-5.8-1.9c-1.5-1.3-2.3-3-2.3-5.2
		c0-2.1,0.6-3.8,1.9-5s3-1.8,5.2-1.8h2.3v9.5l0.1,0c1-0.1,1.9-0.4,2.6-1c0.7-0.6,1-1.5,1-2.5c0-0.9-0.1-1.7-0.3-2.4
		c-0.2-0.6-0.5-1.3-0.9-2.1l2.6-1.2c0.5,0.7,1,1.5,1.3,2.5C106.9,381.2,107,382.4,107,383.6z M93.9,384c0,0.8,0.3,1.4,0.9,1.9
		s1.4,0.7,2.4,0.8l0.1,0v-5.2h-0.4c-0.9,0-1.6,0.2-2.2,0.6C94.1,382.5,93.9,383.2,93.9,384z"/>
</g>
<g class="st4">
	<path class="st5" d="M94.4,222.2h-2.6V216l1.8-0.2c-0.7-0.5-1.2-1-1.6-1.7s-0.6-1.4-0.6-2.3c0-2,0.8-3.5,2.3-4.6s3.5-1.6,6-1.6h0.3
		c2.3,0,4.2,0.5,5.7,1.6s2.1,2.6,2.1,4.5c0,0.8-0.2,1.6-0.5,2.2c-0.3,0.6-0.8,1.2-1.4,1.7h4.6l0.4-2.1h2.6v8.4h-2.6l-0.4-2.1H94.9
		L94.4,222.2z M99.9,209.9c-1.5,0-2.7,0.2-3.6,0.7s-1.4,1.3-1.4,2.3c0,0.6,0.1,1.2,0.4,1.6s0.6,0.8,1.1,1.1h6.9
		c0.4-0.3,0.8-0.6,1-1.1s0.4-1,0.4-1.7c0-1-0.4-1.8-1.2-2.3s-1.9-0.7-3.3-0.7H99.9z"/>
</g>
<g class="st4">
	<path class="st5" d="M105.1,203.4l-0.4-2.1h-9.8l-0.4,2.3h-2.6v-6.3l2.3-0.2c-0.8-0.4-1.5-0.8-1.9-1.4s-0.7-1.3-0.7-2
		c0-0.2,0-0.5,0.1-0.7c0-0.2,0.1-0.5,0.1-0.6l3.9,0.5l0,1.8c0,0.6,0.1,1.1,0.4,1.6s0.6,0.7,1,0.9h7.7l0.4-2.1h2.6v8.4H105.1z"/>
</g>
<g class="st4">
	<path class="st5" d="M99.6,191.3c-2.4,0-4.3-0.7-5.8-2c-1.5-1.3-2.3-3.2-2.3-5.5c0-2.3,0.8-4.2,2.3-5.5s3.4-2,5.8-2h0.3
		c2.4,0,4.3,0.7,5.8,2c1.5,1.3,2.2,3.1,2.2,5.5c0,2.4-0.7,4.2-2.2,5.5c-1.5,1.3-3.4,2-5.8,2H99.6z M99.9,187.1
		c1.4,0,2.6-0.3,3.5-0.8c0.9-0.5,1.3-1.3,1.3-2.5c0-1.1-0.4-1.9-1.3-2.4s-2-0.8-3.5-0.8h-0.3c-1.4,0-2.6,0.3-3.4,0.8
		s-1.3,1.3-1.3,2.4s0.4,1.9,1.3,2.4s2,0.8,3.4,0.8H99.9z"/>
	<path class="st5" d="M88,168.2h3.9v-2.8h3v2.8h8.1c0.6,0,1.1-0.1,1.3-0.4s0.4-0.6,0.4-1c0-0.3,0-0.5,0-0.8s-0.1-0.5-0.1-0.7
		l3.1-0.4c0.1,0.5,0.3,1,0.3,1.4c0.1,0.5,0.1,1,0.1,1.5c0,1.5-0.4,2.6-1.2,3.4s-2.1,1.2-3.9,1.2h-8.1v2.3h-3v-2.3H88V168.2z"/>
	<path class="st5" d="M108,155.8c0,2.3-0.7,4.1-2.2,5.5s-3.3,2.1-5.6,2.1h-0.6c-2.4,0-4.3-0.6-5.8-1.9s-2.3-3-2.3-5.2
		c0-2.1,0.6-3.8,1.9-5s3-1.8,5.2-1.8h2.3v9.5l0.1,0c1-0.1,1.9-0.4,2.6-1s1-1.5,1-2.5c0-0.9-0.1-1.7-0.3-2.4
		c-0.2-0.6-0.5-1.3-0.9-2.1l2.6-1.2c0.5,0.7,1,1.5,1.3,2.5S108,154.5,108,155.8z M94.9,156.1c0,0.8,0.3,1.4,0.9,1.9s1.4,0.7,2.4,0.8
		l0.1,0v-5.2h-0.4c-0.9,0-1.6,0.2-2.2,0.6C95.1,154.6,94.9,155.3,94.9,156.1z"/>
	<path class="st5" d="M104.7,139.9c0-0.8-0.2-1.4-0.7-1.8c-0.4-0.5-1-0.7-1.8-0.7v-3.9l0.1,0c1.6,0,2.9,0.6,4,1.8s1.6,2.8,1.6,4.6
		c0,2.4-0.7,4.2-2.2,5.5s-3.4,1.9-5.8,1.9h-0.4c-2.3,0-4.3-0.7-5.8-2s-2.3-3.2-2.3-5.6c0-1.3,0.2-2.4,0.6-3.4s0.9-1.9,1.6-2.5
		l4.2-0.1v3.5l-2.5,0.7c-0.2,0.2-0.3,0.5-0.5,0.8c-0.1,0.3-0.2,0.7-0.2,1.1c0,1.2,0.4,2.1,1.3,2.6s2,0.7,3.4,0.7h0.4
		c1.4,0,2.6-0.2,3.4-0.7C104.3,141.9,104.7,141.1,104.7,139.9z"/>
	<path class="st5" d="M88,125.2h3.9v-2.8h3v2.8h8.1c0.6,0,1.1-0.1,1.3-0.4s0.4-0.6,0.4-1c0-0.3,0-0.5,0-0.8s-0.1-0.5-0.1-0.7
		l3.1-0.4c0.1,0.5,0.3,1,0.3,1.4c0.1,0.5,0.1,1,0.1,1.5c0,1.5-0.4,2.6-1.2,3.4s-2.1,1.2-3.9,1.2h-8.1v2.3h-3v-2.3H88V125.2z"/>
	<path class="st5" d="M88.1,114.1v4.3h-3.2v-4.3H88.1z M105.1,120.5l-0.4-2.1h-9.8l-0.4,2.3h-2.6v-6.6h12.8l0.4-2.1h2.6v8.4H105.1z"
		/>
	<path class="st5" d="M99.6,110.7c-2.4,0-4.3-0.7-5.8-2c-1.5-1.3-2.3-3.2-2.3-5.5c0-2.3,0.8-4.2,2.3-5.5s3.4-2,5.8-2h0.3
		c2.4,0,4.3,0.7,5.8,2c1.5,1.3,2.2,3.1,2.2,5.5c0,2.4-0.7,4.2-2.2,5.5c-1.5,1.3-3.4,2-5.8,2H99.6z M99.9,106.4
		c1.4,0,2.6-0.3,3.5-0.8c0.9-0.5,1.3-1.3,1.3-2.5c0-1.1-0.4-1.9-1.3-2.4s-2-0.8-3.5-0.8h-0.3c-1.4,0-2.6,0.3-3.4,0.8
		s-1.3,1.3-1.3,2.4s0.4,1.9,1.3,2.4s2,0.8,3.4,0.8H99.9z"/>
	<path class="st5" d="M105.1,94.1l-0.4-2.1h-9.8l-0.4,2.3h-2.6v-6.3l2.3-0.2c-0.8-0.5-1.4-1.2-1.9-1.9s-0.7-1.6-0.7-2.6
		c0-1.6,0.5-2.9,1.5-3.8s2.6-1.3,4.7-1.3h6.9l0.4-2.1h2.6v8.2h-2.6l-0.4-1.8h-6.9c-1.1,0-1.8,0.2-2.3,0.6s-0.7,1.1-0.7,1.9
		c0,0.6,0.1,1.1,0.3,1.5s0.6,0.8,1,1.1h8.5l0.4-1.7h2.6v8.1H105.1z"/>
</g>
<polyline class="st6" points="143,553 133,553 133,318 143,318 "/>
<polyline class="st1" points="143,267 133,267 133,32 143,32 "/>
</svg>
