<svg id="Ebene_1" data-name="Ebene 1" xmlns="http://www.w3.org/2000/svg" viewBox="0 0 1290 1203"><defs><style>.cls-1,.cls-10,.cls-9{font-size:30px;}.cls-1,.cls-10,.cls-16,.cls-17{fill:#33245e;}.cls-1,.cls-10,.cls-29,.cls-9{font-family:RobotoSlab-Bold, Roboto Slab;font-weight:700;}.cls-11,.cls-12,.cls-14,.cls-15,.cls-2,.cls-21,.cls-27,.cls-3,.cls-31,.cls-32,.cls-34,.cls-39,.cls-4{fill:none;}.cls-12,.cls-2,.cls-30,.cls-31,.cls-34{stroke:#f63;}.cls-11,.cls-12,.cls-14,.cls-15,.cls-2,.cls-20,.cls-21,.cls-27,.cls-3,.cls-32,.cls-34,.cls-39,.cls-4{stroke-linecap:round;}.cls-17,.cls-2,.cls-27,.cls-30,.cls-31,.cls-32{stroke-miterlimit:10;}.cls-11,.cls-12,.cls-2,.cls-27,.cls-3,.cls-30,.cls-31,.cls-32,.cls-4{stroke-width:6px;}.cls-14,.cls-15,.cls-17,.cls-3,.cls-4{stroke:#33245e;}.cls-11,.cls-12,.cls-14,.cls-15,.cls-20,.cls-21,.cls-3,.cls-34,.cls-39,.cls-4{stroke-linejoin:round;}.cls-10,.cls-3{opacity:0.39;}.cls-5{letter-spacing:0em;}.cls-6{letter-spacing:0.01em;}.cls-7{letter-spacing:-0.01em;}.cls-8{letter-spacing:0em;}.cls-11,.cls-9{opacity:0.75;}.cls-35,.cls-9{fill:#306;}.cls-11{stroke:#306;}.cls-13{fill:#e6e6e6;}.cls-14,.cls-15,.cls-20,.cls-21,.cls-34,.cls-39{stroke-width:4px;}.cls-14{opacity:0.5;}.cls-17{stroke-width:2px;}.cls-18{fill:#326de6;}.cls-19,.cls-20,.cls-30{fill:#fff;}.cls-20,.cls-21{stroke:#906;}.cls-22{letter-spacing:-0.01em;}.cls-23{letter-spacing:-0.01em;}.cls-24{letter-spacing:-0.04em;}.cls-25{letter-spacing:-0.01em;}.cls-26{letter-spacing:-0.01em;}.cls-27{stroke:#3c9;}.cls-28{fill:#3c9;}.cls-29{font-size:50px;}.cls-32{stroke:#326de6;}.cls-33{fill:#39f;}.cls-35{font-size:24px;font-family:PTSans-Italic, PT Sans;font-style:italic;}.cls-36{letter-spacing:-0.03em;}.cls-37{letter-spacing:-0.05em;}.cls-38{letter-spacing:-0.04em;}.cls-39{stroke:#635384;}.cls-40{fill:#635384;}</style></defs><title>sgx</title><text class="cls-1" transform="translate(490.92 360.18)">SGX</text><line class="cls-2" x1="587" y1="381" x2="883" y2="559"/><rect class="cls-3" x="38" y="149.18" width="728" height="768.82" rx="10"/><rect class="cls-4" x="108" y="226" width="521" height="512" rx="10"/><text class="cls-1" transform="translate(123.94 720.18)">contai<tspan class="cls-5" x="89" y="0">n</tspan><tspan x="107.9" y="0">er</tspan></text><text class="cls-1" transform="translate(1009.94 355.18)">contai<tspan class="cls-5" x="89" y="0">n</tspan><tspan x="107.9" y="0">er/se</tspan><tspan class="cls-6" x="178.89" y="0">r</tspan><tspan x="191.78" y="0">vice </tspan><tspan x="0" y="36">admin</tspan></text><text class="cls-1" transform="translate(1011.47 561.18)"><tspan class="cls-7">K</tspan><tspan x="21.11" y="0">uber</tspan><tspan class="cls-8" x="85.74" y="0">n</tspan><tspan x="104.63" y="0">etes </tspan><tspan x="0" y="36">admin</tspan></text><text class="cls-1" transform="translate(1010.94 762.18)"><tspan class="cls-5">h</tspan><tspan x="18.93" y="0">ost </tspan><tspan x="0" y="36">admin</tspan></text><text class="cls-9" transform="translate(86.94 812.18)">VM</text><text class="cls-10" transform="translate(52.94 900.18)"><tspan class="cls-5">h</tspan><tspan x="18.93" y="0">ost</tspan></text><rect class="cls-11" x="72.92" y="187.18" width="623.08" height="642.82" rx="10"/><text class="cls-1" transform="translate(211.43 599.18)">file</text><path class="cls-12" d="M296,529.35H150a5,5,0,0,0-5,5v94.2a5,5,0,0,0,5,5H326a5,5,0,0,0,5-5V562"/><polygon class="cls-12" points="331 562 296 562 296 529.35 331 562"/><text class="cls-1" transform="translate(444.43 599.18)">file</text><path class="cls-12" d="M529,529.35H383a5,5,0,0,0-5,5v94.2a5,5,0,0,0,5,5H559a5,5,0,0,0,5-5V562"/><polygon class="cls-12" points="564 562 529 562 529 529.35 564 562"/><rect class="cls-13" x="38" y="971.9" width="1217" height="197.1" rx="10"/><path class="cls-14" d="M953.47,798.79H951.1a1.57,1.57,0,0,1-1.49-1.07,12.52,12.52,0,0,0-.7-1.69,1.58,1.58,0,0,1,.3-1.81l1.67-1.67a1.58,1.58,0,0,0,0-2.24l-2.24-2.24a1.59,1.59,0,0,0-2.23,0l-1.67,1.67a1.57,1.57,0,0,1-1.81.31,14.16,14.16,0,0,0-1.7-.71,1.56,1.56,0,0,1-1.06-1.49v-2.36a1.58,1.58,0,0,0-1.58-1.58h-3.17a1.58,1.58,0,0,0-1.58,1.58v2.36a1.57,1.57,0,0,1-1.07,1.49,14,14,0,0,0-1.69.71,1.57,1.57,0,0,1-1.81-.31l-1.67-1.67a1.6,1.6,0,0,0-2.24,0l-2.24,2.24a1.58,1.58,0,0,0,0,2.24l1.67,1.67a1.57,1.57,0,0,1,.31,1.81,12.57,12.57,0,0,0-.71,1.69,1.57,1.57,0,0,1-1.49,1.07h-2.36a1.58,1.58,0,0,0-1.58,1.58v3.17a1.58,1.58,0,0,0,1.58,1.58h2.36a1.56,1.56,0,0,1,1.49,1.06,12.7,12.7,0,0,0,.71,1.7,1.57,1.57,0,0,1-.31,1.81l-1.67,1.67a1.57,1.57,0,0,0,0,2.23l2.24,2.24a1.58,1.58,0,0,0,2.24,0l1.67-1.67a1.58,1.58,0,0,1,1.81-.3,12.52,12.52,0,0,0,1.69.7,1.58,1.58,0,0,1,1.07,1.5v2.36a1.58,1.58,0,0,0,1.58,1.58h3.17a1.58,1.58,0,0,0,1.58-1.58v-2.36a1.57,1.57,0,0,1,1.06-1.5,12.65,12.65,0,0,0,1.7-.7,1.59,1.59,0,0,1,1.81.3l1.67,1.67a1.57,1.57,0,0,0,2.23,0l2.24-2.24a1.57,1.57,0,0,0,0-2.23l-1.67-1.67a1.59,1.59,0,0,1-.3-1.81,12.65,12.65,0,0,0,.7-1.7,1.56,1.56,0,0,1,1.49-1.06h2.37a1.58,1.58,0,0,0,1.58-1.58v-3.17A1.58,1.58,0,0,0,953.47,798.79ZM937,806.73a4.78,4.78,0,1,1,4.78-4.78A4.77,4.77,0,0,1,937,806.73Z"/><path class="cls-15" d="M954,764.25a5.22,5.22,0,0,0,4.32,2.24,5.46,5.46,0,0,0,4.33-2.24"/><path class="cls-15" d="M976.56,750.72h0a3.92,3.92,0,0,1,3.43,2.51,4.28,4.28,0,0,1,.4,2.31,4.38,4.38,0,0,1-4.42,4.29h0"/><path class="cls-15" d="M939.06,751.54a4.56,4.56,0,0,0,2.28,8.52v-9.13A4.26,4.26,0,0,0,939.06,751.54Z"/><path class="cls-15" d="M939.06,752.54l-3-3.81a4.76,4.76,0,0,1,.76-6.54l2.29-1.68-.92-3.65a3.19,3.19,0,0,1,1.52-3.5l4-2,9.44-4.11a10.73,10.73,0,0,1,8.67,0l9.44,4.11,3.35,1.68a3,3,0,0,1,1.37,4.1l-1.68,3.35,4.57,3.66a4.47,4.47,0,0,1,1.06,5.93l-2.43,2.49"/><path class="cls-15" d="M967.67,746.51A50.82,50.82,0,0,1,947.73,742c-1.22,4.56-4.56,7.61-6.09,9.13v8.37a15.88,15.88,0,0,0,4.72,11.26,17.31,17.31,0,0,0,5.94,3.81h0a15.61,15.61,0,0,0,5.32.91,13.06,13.06,0,0,0,4.27-.61c.3-.15.76-.15,1.06-.3h0a16,16,0,0,0,10.65-14.31v-9.13"/><path class="cls-15" d="M966.6,743.56a11,11,0,0,0,1.22,3.8,8.4,8.4,0,0,0,5.63,4.57"/><path class="cls-15" d="M954.35,796.59h19.58v-9.14a9.15,9.15,0,0,0-2.74-6.39,6.19,6.19,0,0,0-1.83-1.52c-.45-.15-1.06-.46-1.52-.61a6.89,6.89,0,0,0-3-.61h-1.53v-3.76s11.51-3.26,10.81-14.35V760a4.57,4.57,0,0,0,4.26-4.54,3.93,3.93,0,0,0-.61-2.28l2.59-4.11a4.48,4.48,0,0,0-1.06-5.93l-4.57-3.66,1.67-3.35a3,3,0,0,0-1.37-4.1l-3.34-1.68-9.44-4.11a10.75,10.75,0,0,0-8.68,0l-9.43,4.11-4,2a3.16,3.16,0,0,0-1.52,3.5l.91,3.65-2.28,1.68a4.76,4.76,0,0,0-.76,6.54l3,3.81a4.53,4.53,0,0,0-2.28,4,4.58,4.58,0,0,0,4.57,4.57v-.76l.3.21a15.86,15.86,0,0,0,4.72,11.2,17.12,17.12,0,0,0,5.72,3.71l.21.1c0,.05-.1,0-.15-.07v3.87H951.1a9.88,9.88,0,0,0-3,.46c-.46.3-1.07.46-1.53.76a16.29,16.29,0,0,0-1.82,1.52,8.35,8.35,0,0,0-2.39,3.89"/><path class="cls-15" d="M954.41,796.9h19v-9.13a9.07,9.07,0,0,0-2.74-6.39,5.88,5.88,0,0,0-1.82-1.52c-.46-.16-1.07-.46-1.53-.61a6.73,6.73,0,0,0-3-.61H962.8v-4H952.14v4h-1.52a9.93,9.93,0,0,0-3,.45c-.46.31-1.07.46-1.52.77a15.33,15.33,0,0,0-1.83,1.52A8.37,8.37,0,0,0,942,784.9"/><path class="cls-15" d="M974.54,374a11.6,11.6,0,0,0-5.79-2.53,7.81,7.81,0,0,0-1.8-.14h-1.81v-4.6H965a15.33,15.33,0,0,0,7-12.92v-1a4.56,4.56,0,0,0,4.45-4.46,4.35,4.35,0,0,0-.84-2.52h.84V334.38c0-7.92-8.9-17.23-20-17.23s-20,9.31-20,17.23v11.2h.88a4.08,4.08,0,0,0-.88,2v1.49a4.48,4.48,0,0,0,4.45,3.71V352h0c0,2.67.14-2.09.14,1a16.57,16.57,0,0,0,7.26,13.66h-.51v4.6H946a7.81,7.81,0,0,0-1.8.14,11.6,11.6,0,0,0-5.79,2.53,7.78,7.78,0,0,0-3.25,6.23v9.5h42.66v-9.5A7.78,7.78,0,0,0,974.54,374Z"/><path class="cls-16" d="M963.88,346a1.48,1.48,0,0,0-1,2.53,1.68,1.68,0,0,0,1.09.42,1.41,1.41,0,0,0,1.43-1.46,1.6,1.6,0,0,0-1.48-1.49Z"/><path class="cls-16" d="M949,346a1.49,1.49,0,1,0,1.48,1.49A1.49,1.49,0,0,0,949,346Z"/><path class="cls-15" d="M965.14,366.12v4.6H967a7.3,7.3,0,0,1,1.8.15,11.5,11.5,0,0,1,5.79,2.52,7.78,7.78,0,0,1,3.25,6.23v9.5H935.13v-9.5a7.78,7.78,0,0,1,3.25-6.23,11.5,11.5,0,0,1,5.79-2.52,7.3,7.3,0,0,1,1.8-.15h1.81v-4.6"/><path class="cls-15" d="M940.88,342.78c0,3.71.15,5.34.15,9.05,0,8.61,6.82,16.18,15.43,16.18A15.45,15.45,0,0,0,972,352.58V342.22"/><path class="cls-15" d="M940.88,343.27v-3.86c3-.74,15.13.15,21.52-10.24,0,0,1.33,3.86,9.64,9.79v4.31"/><path class="cls-15" d="M976.49,344.72a4.56,4.56,0,0,1-4.45,4.45v-8.9A4.55,4.55,0,0,1,976.49,344.72Z"/><path class="cls-15" d="M936.43,347v1.48a4.47,4.47,0,0,0,4.45,3.71v-8.9A4.47,4.47,0,0,0,936.43,347Z"/><path class="cls-15" d="M952.16,358.63a5.2,5.2,0,0,0,4.3,2.22,5.42,5.42,0,0,0,4.3-2.22"/><path class="cls-15" d="M936.43,345V333.79c0-7.93,8.9-17.23,20-17.23s20,9.3,20,17.23V345.2"/><path class="cls-15" d="M953.65,346.66c0,.24.12.6.12.84a4.81,4.81,0,1,1-9.62,0,3.79,3.79,0,0,1,.12-1.21,4.8,4.8,0,0,1,4.69-3.61A4.68,4.68,0,0,1,953.65,346.66Z"/><path class="cls-15" d="M968.65,346.29a3.79,3.79,0,0,1,.12,1.21,4.81,4.81,0,1,1-9.62,0,2,2,0,0,1,.12-.84,4.77,4.77,0,0,1,4.69-4A4.91,4.91,0,0,1,968.65,346.29Z"/><path class="cls-15" d="M953.77,346.9a4.68,4.68,0,0,1,5.38,0"/><path class="cls-15" d="M977,546.5h1.28c3.67-18.19-.81-21.68-12-23.14a4.71,4.71,0,0,0-4.79-4.79H946.23c-6.7,0-14.84,9.74-11.81,19.95l2.4,8h1.33a4.19,4.19,0,0,0-.69.64,5,5,0,0,0-1.44,3.35,4.8,4.8,0,0,0,4.63,4.78h0v4.79a12.78,12.78,0,0,0,11.17,12.77l.15,0v3.85h-1.59a5.41,5.41,0,0,0-1.59.16,9.52,9.52,0,0,0-5.11,2.61,8.54,8.54,0,0,0-2.87,6.47v9.24h33.52V586a9.08,9.08,0,0,0-2.88-6.47,8.53,8.53,0,0,0-4.94-2.61,7.18,7.18,0,0,0-1.76-.16h-1.6V573a12.67,12.67,0,0,0,11-12.72v-4.79l.16-.16a4.91,4.91,0,0,0,4.79-4.79A4.78,4.78,0,0,0,977,546.5Z"/><path class="cls-17" d="M963.88,547.07a1.54,1.54,0,0,1,1.43,1.43,1.43,1.43,0,1,1-1.43-1.43Z"/><circle class="cls-17" cx="951.95" cy="548.5" r="1.44"/><path class="cls-17" d="M963.88,754.07a1.54,1.54,0,0,1,1.43,1.43,1.43,1.43,0,1,1-1.43-1.43Z"/><circle class="cls-17" cx="951.95" cy="755.5" r="1.44"/><path class="cls-15" d="M963.49,560.2a5.61,5.61,0,0,1-5.54,4.88,5.77,5.77,0,0,1-5.69-4.88Z"/><polyline class="cls-15" points="940.87 545.56 940.87 543.93 940.87 539.86"/><path class="cls-15" d="M940.87,555.32v-.81"/><path class="cls-15" d="M976,554.51v.81"/><polyline class="cls-15" points="976.04 539.86 976.04 543.61 976.04 545.56"/><path class="cls-15" d="M976,553.69v-8.13a5.45,5.45,0,0,1,2.76.81,4.84,4.84,0,0,1,2.12,4.07,5,5,0,0,1-4.88,4.88"/><path class="cls-15" d="M940.87,553.69v-8.13a4.45,4.45,0,0,0-3.42,1.46,5.11,5.11,0,0,0-1.46,3.42,4.89,4.89,0,0,0,4.88,4.88"/><path class="cls-15" d="M936.8,546.37l-2.44-8.13c-3.09-10.42,5.21-20.34,12-20.34H962a4.79,4.79,0,0,1,4.88,4.88c11.39,1.49,16,5,12.21,23.59"/><path class="cls-15" d="M940.87,543.93h4.88a3.26,3.26,0,0,0,3.25-3.25,4.41,4.41,0,0,1,1.47-3.42,5.42,5.42,0,0,1,3.41-1.47h1a11.71,11.71,0,0,0,8.14-3.25l2.44-2.44v.65a11.89,11.89,0,0,0,4.72,9.28l5,3.58"/><path class="cls-15" d="M960.39,554.06H952.1a3.26,3.26,0,0,0-3.26,3.25v1.3a2.34,2.34,0,0,1-2.44,2,2.51,2.51,0,0,1-2.44-2.45v-2.44a3.26,3.26,0,0,0-3.26-3.25v6.51a13,13,0,0,0,11.4,13c.48,0,1.13.16,1.62.16h9.6a12.93,12.93,0,0,0,11.56-13v-6.67a3.26,3.26,0,0,0-3.26,3.25v2.44a2.51,2.51,0,0,1-2.44,2.45,2.6,2.6,0,0,1-2.44-2v-1.3a3.26,3.26,0,0,0-3.25-3.25h-3.42"/><path class="cls-15" d="M952.25,573.89v3.28h-1.62a6,6,0,0,0-1.63.15,9.77,9.77,0,0,0-5.2,2.67,8.73,8.73,0,0,0-2.93,6.59V596H975v-9.42a9.25,9.25,0,0,0-2.93-6.59,8.79,8.79,0,0,0-5-2.67,8,8,0,0,0-1.79-.15h-1.63v-3.28"/><path class="cls-18" d="M927,616.1a2.71,2.71,0,0,1-2.12-1l-8-9.93a2.66,2.66,0,0,1-.52-2.32l2.85-12.4a2.67,2.67,0,0,1,1.48-1.84l11.55-5.53a2.76,2.76,0,0,1,2.38,0l11.54,5.5a2.73,2.73,0,0,1,1.49,1.85l2.85,12.39a2.77,2.77,0,0,1-.52,2.33l-8,9.93a2.77,2.77,0,0,1-2.13,1l-12.87,0Z"/><path class="cls-19" d="M933.39,583.35a2.29,2.29,0,0,1,.93.2l11.55,5.5a2.26,2.26,0,0,1,1.19,1.49l2.85,12.39a2.14,2.14,0,0,1-.43,1.87l-8,9.93a2.19,2.19,0,0,1-1.71.82H927a2.19,2.19,0,0,1-1.71-.82l-8-9.93a2.27,2.27,0,0,1-.43-1.87l2.85-12.39a2.22,2.22,0,0,1,1.19-1.49l11.55-5.52a2.82,2.82,0,0,1,1-.18Zm0-1.07h0a3.41,3.41,0,0,0-1.42.32l-11.55,5.52a3.23,3.23,0,0,0-1.78,2.21l-2.85,12.4a3.22,3.22,0,0,0,.64,2.78l8,9.93a3.23,3.23,0,0,0,2.53,1.21h12.8a3.25,3.25,0,0,0,2.54-1.21l8-9.93a3.21,3.21,0,0,0,.64-2.78l-2.85-12.4a3.23,3.23,0,0,0-1.78-2.21l-11.5-5.52a3.21,3.21,0,0,0-1.39-.32Z"/><path class="cls-19" d="M945,602h0s0,0,0,0-.09,0-.14,0a3.44,3.44,0,0,0-.43,0,1,1,0,0,1-.23,0h0a6.79,6.79,0,0,1-1.24-.21.46.46,0,0,1-.25-.25s0,0,0,0h0l-.3-.09a8.78,8.78,0,0,0-.16-3.22,9.54,9.54,0,0,0-1.27-3l.22-.2v-.05a.52.52,0,0,1,.12-.34,6.11,6.11,0,0,1,1-.71h0l.2-.11a4,4,0,0,0,.39-.23.62.62,0,0,0,.11-.09s.05,0,.05,0h0a.75.75,0,0,0,.16-1,.66.66,0,0,0-.53-.25.81.81,0,0,0-.5.18h0l0,0s-.07.07-.12.1a2.89,2.89,0,0,0-.29.32s-.1.11-.16.15h0a5.64,5.64,0,0,1-.92.83.39.39,0,0,1-.2.06.34.34,0,0,1-.14,0h-.05l-.27.18A12.59,12.59,0,0,0,939,593a9,9,0,0,0-4.76-1.9l0-.29,0,0a.52.52,0,0,1-.19-.3,9.3,9.3,0,0,1,.07-1.23v0a1,1,0,0,1,0-.23c0-.14,0-.27.07-.43v-.21h0a.73.73,0,0,0-.71-.75.71.71,0,0,0-.5.23.7.7,0,0,0-.21.52h0v.18a1.27,1.27,0,0,0,.07.44c0,.07,0,.13.05.23v0a5.94,5.94,0,0,1,.06,1.23.47.47,0,0,1-.18.3l0,0h0l0,.3c-.41.05-.82.09-1.23.18a8.8,8.8,0,0,0-4.52,2.56l-.23-.16h0l-.14,0a.31.31,0,0,1-.2-.07,5.75,5.75,0,0,1-.92-.84h0a.8.8,0,0,0-.16-.16,4.2,4.2,0,0,0-.29-.32l-.12-.09s0,0,0,0h0a.83.83,0,0,0-.51-.18.64.64,0,0,0-.52.25.76.76,0,0,0,.16,1h0s0,0,0,0,.06.07.11.09a4,4,0,0,0,.39.23,1,1,0,0,1,.2.11h0a7.3,7.3,0,0,1,1,.71.43.43,0,0,1,.11.34v0h0l.23.21a.67.67,0,0,0-.11.18,8.86,8.86,0,0,0-1.28,6l-.3.09s0,0,0,0a.54.54,0,0,1-.25.25,5.59,5.59,0,0,1-1.23.21h0a.82.82,0,0,0-.22,0,2.37,2.37,0,0,0-.44.05l-.13,0a.08.08,0,0,0-.07,0h0a.76.76,0,0,0-.6.85.71.71,0,0,0,.73.52.62.62,0,0,0,.19,0h0s0,0,0,0l.14,0a1.84,1.84,0,0,0,.41-.16l.21-.09h0a5.24,5.24,0,0,1,1.18-.34h0a.56.56,0,0,1,.3.11s0,0,0,0h0l.32-.05a9.07,9.07,0,0,0,3,4.29,8.85,8.85,0,0,0,1,.66l-.13.3s0,0,0,0a.49.49,0,0,1,0,.37,6.14,6.14,0,0,1-.59,1.07v0a2.31,2.31,0,0,1-.14.19c-.09.11-.16.23-.25.36l-.07.12a.07.07,0,0,1,0,0h0a.72.72,0,0,0,.3,1,.54.54,0,0,0,.27.07.82.82,0,0,0,.69-.43h0a.12.12,0,0,1,0,0,.52.52,0,0,1,.07-.11c.07-.16.09-.28.14-.41l.06-.21h0a5.83,5.83,0,0,1,.48-1.14.53.53,0,0,1,.3-.2s0,0,0,0h0l.16-.29a9,9,0,0,0,3.19.59,8.33,8.33,0,0,0,2-.23,9.39,9.39,0,0,0,1.18-.34l.14.25.05,0a.44.44,0,0,1,.29.21,8.33,8.33,0,0,1,.48,1.14v0l.07.21a4,4,0,0,0,.14.41l.07.11a.08.08,0,0,0,0,0h0a.77.77,0,0,0,.68.43.58.58,0,0,0,.28-.07.66.66,0,0,0,.34-.41.87.87,0,0,0-.05-.57h0s0,0,0,0a.63.63,0,0,0-.07-.12,12,12,0,0,0-.39-.55v0a5,5,0,0,1-.59-1.07.65.65,0,0,1,0-.37s0,0,0,0h0l-.12-.28a9.07,9.07,0,0,0,4-5l.28,0s0,0,0,0a.54.54,0,0,1,.3-.11h0a5.17,5.17,0,0,1,1.19.34h0l.21.09a2.5,2.5,0,0,0,.41.16l.14,0a.11.11,0,0,1,.07,0h0a.36.36,0,0,0,.18,0,.77.77,0,0,0,.73-.53A.87.87,0,0,0,945,602Zm-10.57-1.12-1,.48-1-.48-.25-1.07.69-.87h1.11l.69.87-.23,1.07Zm6-2.37a7.19,7.19,0,0,1,.16,2.3l-3.49-1a.62.62,0,0,1-.44-.73.52.52,0,0,1,.14-.25l2.76-2.49a7.47,7.47,0,0,1,.87,2.17Zm-2-3.54-3,2.12a.6.6,0,0,1-.79-.13.48.48,0,0,1-.12-.26l-.2-3.72a6.93,6.93,0,0,1,4.1,2Zm-6.61-1.87.73-.14-.21,3.65a.63.63,0,0,1-.62.6.6.6,0,0,1-.27-.07l-3-2.17a6.93,6.93,0,0,1,3.4-1.87Zm-4.5,3.24,2.72,2.42a.6.6,0,0,1,.06.84.48.48,0,0,1-.27.19l-3.54,1a7.41,7.41,0,0,1,1-4.47Zm-.62,6.18,3.63-.61a.62.62,0,0,1,.64.48.72.72,0,0,1,0,.36h0l-1.39,3.36a7.2,7.2,0,0,1-2.86-3.59ZM935,607a7.28,7.28,0,0,1-3.9-.19l1.8-3.26a.59.59,0,0,1,.73-.16,1,1,0,0,1,.28.25h0l1.76,3.17c-.21.07-.44.12-.67.19Zm4.45-3.18a7.14,7.14,0,0,1-2.19,2.22l-1.43-3.45a.62.62,0,0,1,.31-.71.87.87,0,0,1,.32-.06l3.66.61a4.58,4.58,0,0,1-.67,1.39Z"/><polyline class="cls-20" points="913.73 386.36 920.86 379.23 950 379.23 950 392.87 942.87 400"/><rect class="cls-21" x="913.73" y="386.36" width="29.14" height="13.64"/><line class="cls-21" x1="942.87" y1="386.36" x2="949.07" y2="380.16"/><line class="cls-2" x1="883" y1="367" x2="587" y2="367"/><line class="cls-2" x1="883" y1="594" x2="791" y2="594"/><line class="cls-2" x1="742" y1="594" x2="587" y2="594"/><text class="cls-1" transform="translate(160 1031.18)">p<tspan class="cls-22" x="18.16" y="0">r</tspan><tspan x="30.5" y="0">otects against all admins</tspan><tspan x="0" y="50">only se</tspan><tspan class="cls-6" x="101.95" y="50">r</tspan><tspan x="114.84" y="50">vice has acces </tspan><tspan class="cls-23" x="325.96" y="50">t</tspan><tspan x="336.71" y="50">o d</tspan><tspan class="cls-24" x="378.63" y="50">a</tspan><tspan x="393.94" y="50">ta, code a</tspan><tspan class="cls-5" x="526.52" y="50">n</tspan><tspan x="545.42" y="50">d sec</tspan><tspan class="cls-25" x="617.75" y="50">r</tspan><tspan x="630.1" y="50">ets</tspan><tspan x="0" y="100">can use managed </tspan><tspan class="cls-26" x="254.31" y="100">K</tspan><tspan x="275.42" y="100">uber</tspan><tspan class="cls-5" x="340.05" y="100">n</tspan><tspan x="358.95" y="100">etes a</tspan><tspan class="cls-5" x="441.37" y="100">n</tspan><tspan x="460.27" y="100">d still p</tspan><tspan class="cls-22" x="566.32" y="100">r</tspan><tspan x="578.66" y="100">otect integrity &amp; confidentiality</tspan></text><path class="cls-12" d="M564,450.71c0,6-4.28,10.83-9.56,10.83H155.56c-5.28,0-9.56-4.85-9.56-10.83V332.29c0-6,4.28-10.83,9.56-10.83H554.44c5.28,0,9.56,4.85,9.56,10.83Z"/><text class="cls-1" transform="translate(-494.06 345.18)">contai<tspan class="cls-5" x="89" y="0">n</tspan><tspan x="107.9" y="0">er/se</tspan><tspan class="cls-6" x="178.89" y="0">r</tspan><tspan x="191.78" y="0">vice </tspan><tspan x="0" y="36">admin</tspan></text><text class="cls-1" transform="translate(-493.06 570.18)"><tspan class="cls-26">K</tspan><tspan x="21.11" y="0">uber</tspan><tspan class="cls-5" x="85.74" y="0">n</tspan><tspan x="104.63" y="0">etes </tspan><tspan x="0" y="36">admin</tspan></text><text class="cls-1" transform="translate(-493.06 771.18)"><tspan class="cls-5">h</tspan><tspan x="18.93" y="0">ost </tspan><tspan x="0" y="36">admin</tspan></text><text class="cls-1" transform="translate(162 446.18)">se<tspan class="cls-6" x="31.42" y="0">r</tspan><tspan x="44.31" y="0">vice</tspan></text><line class="cls-27" x1="230.5" y1="456.5" x2="231.45" y2="551.95"/><polygon class="cls-28" points="214.14 538.2 217.19 535.31 231.43 550.33 245.38 535.02 248.49 537.86 231.5 556.5 214.14 538.2"/><line class="cls-27" x1="463" y1="454" x2="463.96" y2="551.45"/><polygon class="cls-28" points="446.64 537.7 449.69 534.8 463.94 549.83 477.89 534.53 480.99 537.36 464 556 446.64 537.7"/><line class="cls-4" x1="730" y1="775" x2="669.55" y2="775.93"/><polygon class="cls-16" points="683.21 758.54 686.12 761.57 671.17 775.9 686.55 789.77 683.73 792.89 665 776 683.21 758.54"/><line class="cls-4" x1="658" y1="775" x2="604.55" y2="775.92"/><polygon class="cls-16" points="618.17 758.51 621.09 761.53 606.17 775.89 621.58 789.73 618.76 792.85 600 776 618.17 758.51"/><path class="cls-28" d="M125.79,1011.35,124.4,1010a4.14,4.14,0,0,0-5.86,0l-13.93,13.94a1.05,1.05,0,0,1-1.47,0l-6.35-6.36a4.15,4.15,0,0,0-5.85,0l-1.39,1.39a4.14,4.14,0,0,0,0,5.86l10,10,1.39,1.39a4.13,4.13,0,0,0,5.85,0l1.39-1.39,17.6-17.59A4.16,4.16,0,0,0,125.79,1011.35Z"/><path class="cls-28" d="M125.79,1060.35,124.4,1059a4.14,4.14,0,0,0-5.86,0l-13.93,13.94a1.05,1.05,0,0,1-1.47,0l-6.35-6.36a4.15,4.15,0,0,0-5.85,0l-1.39,1.39a4.14,4.14,0,0,0,0,5.86l10,10,1.39,1.39a4.13,4.13,0,0,0,5.85,0l1.39-1.39,17.6-17.59A4.16,4.16,0,0,0,125.79,1060.35Z"/><path class="cls-28" d="M125.79,1109.35,124.4,1108a4.14,4.14,0,0,0-5.86,0l-13.93,13.94a1.05,1.05,0,0,1-1.47,0l-6.35-6.36a4.15,4.15,0,0,0-5.85,0l-1.39,1.39a4.14,4.14,0,0,0,0,5.86l10,10,1.39,1.39a4.13,4.13,0,0,0,5.85,0l1.39-1.39,17.6-17.59A4.16,4.16,0,0,0,125.79,1109.35Z"/><text class="cls-29" transform="translate(124.32 78.46)">SGX</text><circle class="cls-30" cx="563.85" cy="379.12" r="11.12"/><line class="cls-31" x1="555.99" y1="386.98" x2="571.71" y2="371.26"/><circle class="cls-30" cx="563.85" cy="594.12" r="11.12"/><line class="cls-31" x1="555.99" y1="601.98" x2="571.71" y2="586.26"/><circle class="cls-30" cx="765.85" cy="593.12" r="11.12"/><line class="cls-31" x1="757.99" y1="600.98" x2="773.71" y2="585.26"/><line class="cls-2" x1="587" y1="580" x2="883" y2="382"/><line class="cls-2" x1="587" y1="396" x2="883" y2="794"/><line class="cls-2" x1="587" y1="606" x2="883" y2="807"/><line class="cls-32" x1="883" y1="542" x2="669.55" y2="542.98"/><polygon class="cls-18" points="683.39 525.74 686.27 528.8 671.17 542.97 686.4 557 683.55 560.09 665 543 683.39 525.74"/><line class="cls-32" x1="658" y1="542" x2="604.55" y2="542.92"/><polygon class="cls-18" points="618.17 525.51 621.09 528.53 606.17 542.89 621.58 556.73 618.76 559.85 600 543 618.17 525.51"/><line class="cls-4" x1="883" y1="775" x2="742.55" y2="775.97"/><polygon class="cls-16" points="756.35 758.7 759.24 761.75 744.17 775.95 759.43 789.95 756.59 793.04 738 776 756.35 758.7"/><path class="cls-33" d="M43.06,75.09c-1.31,0-2.63,0-3.94,0-.69,0-.9-.24-.87-.91,0-1.15,0-2.29,0-3.44,0-.62.19-.82.8-.82,2.63,0,5.25,0,7.88,0,.72,0,.93-.23.9-.93q-.06-2.85,0-5.7c0-.65-.19-.86-.84-.86-2.58,0-5.17,0-7.74,0-1,0-1,0-1-1,0-1.15,0-2.3,0-3.45,0-.62.19-.82.8-.82,2.65,0,5.31,0,8,0,.66,0,.85-.21.83-.84q0-2.92,0-5.85c0-.57-.18-.78-.77-.77H39.25c-1,0-1,0-1-1,0-1.16,0-2.35,0-3.52,0-.54.18-.73.73-.73,2.68,0,5.35,0,8,0,.65,0,.84-.18.84-.84,0-2.12,0-4.23,0-6.34,0-.69.22-.89.88-.87,2.21,0,4.41,0,6.62,0,.62,0,.82-.19.8-.81,0-2.6,0-5.21,0-7.81,0-.66.22-.86.85-.83,1.2,0,2.39,0,3.59,0,.59,0,.79.21.79.76,0,2.11,0,4.22,0,6.33,0,.53,0,1,0,1.55s.16.71.65.71c2.08,0,4.18,0,6.26,0,.6,0,.61-.35.61-.79,0-2.56,0-5.11,0-7.67,0-.67.18-.92.87-.89,1.17.05,2.35,0,3.52,0,.58,0,.77.2.76.77,0,2.58,0,5.17,0,7.75,0,.69.2,1,.92.93q2.85-.08,5.7,0c.7,0,.94-.19.94-.92,0-2.56,0-5.11,0-7.67,0-.69.21-.9.89-.88,1.15.05,2.29.05,3.45,0,.67,0,.83.24.83.86,0,2.54,0,5.07,0,7.61,0,.63.16.85.83.85,2.09,0,4.18,0,6.27,0,.6,0,.81.17.81.8,0,2.15,0,4.32,0,6.48,0,.69.15.92.88.92,2.61,0,5.21,0,7.82,0,.63,0,.87.18.86.83,0,1.19,0,2.39,0,3.59,0,.6-.23.81-.84.81H95.42c-1,0-1,0-1,.93v5.63c0,.87,0,.9.93.9H103c1,0,1,0,1,1v3.24c0,.88-.08.94-1,.94-2.56,0-5.11,0-7.67,0-.68,0-.9.19-.89.88.05,1.86,0,3.71,0,5.57,0,1,0,1,1,1,2.53,0,5.07,0,7.6,0,.69,0,1,.17.94.9,0,1.14,0,2.29,0,3.45,0,.6-.21.82-.82.82-2.57,0-5.16,0-7.74,0-1,0-1,0-1,1v6.12c0,1,0,1-1,1-2,0-4,0-6,0-.63,0-.85.19-.85.84,0,2.54,0,5.07,0,7.6,0,.74-.22,1-.93.92-1.08,0-2.15,0-3.23,0s-1,0-1-1V84.33c0-1.09,0-1.09-1.07-1.09-1.9,0-3.8,0-5.7,0-.59,0-.76.2-.76.77,0,2.57,0,5.11,0,7.68,0,.69-.23.9-.89.87-1.08,0-2.15,0-3.24,0s-1,0-1-1.06c0-2.44,0-4.89,0-7.32,0-.69-.16-.94-.9-.93-1.93.06-3.85,0-5.78,0-.62,0-.81.2-.81.8,0,2.51,0,5,0,7.53,0,.93,0,1-.94,1-1.17,0-2.35,0-3.52,0-.59,0-.76-.22-.76-.78,0-2.5,0-5,0-7.53,0-1,0-1-1-1H48.79c-.93,0-1,0-1-1,0-2.14,0-4.26,0-6.4,0-.59-.21-.78-.77-.76C45.74,75.12,44.4,75.11,43.06,75.09ZM71.33,42H54.44c-1,0-1,0-1,1V76.74c0,1,0,1,1,1H88.21c1,0,1,0,1-1V43c0-1,0-1-1-1Z"/><path class="cls-33" d="M78.61,56.44c.21,1.42.23,1.48-.94,2A21,21,0,0,1,67,60.35a10.64,10.64,0,0,1-4.52-1.2,4.93,4.93,0,0,1-2.83-4.37,6.19,6.19,0,0,1,2.28-5c.07.05.15.07.22.12-.15.29-.28.62-.46.9A5.43,5.43,0,0,0,60.63,55a4.06,4.06,0,0,0,2.87,3.18,15,15,0,0,0,6.87.63,21.59,21.59,0,0,0,7.87-2.21A2,2,0,0,1,78.61,56.44Z"/><path class="cls-33" d="M74,66.31c-.42,1.29-.43,1.31-1.49,1a2.82,2.82,0,0,0-3.09.91,3.82,3.82,0,0,0,.22,3.86,2.59,2.59,0,0,0,2.48.65c.59-.12.29-.69.34-1.07s-.2-.57-.6-.58c-.88-.06-1.07-.21-.92-.87a.77.77,0,0,1,.52-.5,15.57,15.57,0,0,1,2.16,0,.77.77,0,0,1,.5.51c0,1,0,2,0,3a.67.67,0,0,1-.3.5,5.33,5.33,0,0,1-5.47-.57,4.8,4.8,0,0,1-.72-5.25,4.19,4.19,0,0,1,4.45-2.12A14.72,14.72,0,0,1,74,66.31Z"/><path class="cls-33" d="M77.86,71.23c-.38.62-.76,1.26-1.14,1.89-.66,1.08-1,1.21-2.4.85.48-.75,1-1.45,1.4-2.19s1.09-1.31,1.1-2-.7-1.28-1.1-1.91S75,66.73,74.6,66.12c1.1-.48,1.8-.28,2.32.61.34.56.66,1.13,1.09,1.86l1.14-1.85c.54-.9,1.15-1.08,2.26-.62-.63.95-1.21,1.9-1.88,2.79a1.23,1.23,0,0,0,0,1.78c.79,1,1.46,2.15,2.21,3.25-1.38.39-1.85.22-2.51-.83l-1.14-1.78Z"/><path class="cls-33" d="M61.42,72.35c.89.15,1.76.33,2.65.43A.92.92,0,0,0,65.12,72c.1-.58-.31-.86-.77-1s-1.13-.31-1.69-.49a2.14,2.14,0,0,1-1.73-2.33,2.3,2.3,0,0,1,1.86-2.18,4.84,4.84,0,0,1,3.54.41c.33.17.5.36.24.72s-.24.7-.81.5a7,7,0,0,0-2-.33.92.92,0,0,0-1.05.83c-.09.57.31.86.77,1,.63.24,1.29.41,1.93.65a2,2,0,0,1,1.53,2A2.4,2.4,0,0,1,65.4,74a5,5,0,0,1-4-.18c-.87-.4-.88-.51-.35-1.28l.27-.33C61.38,72.22,61.39,72.28,61.42,72.35Z"/><path class="cls-33" d="M64.42,48c.17-.07.35-.12.52-.21,4.45-2.38,9.09-3.32,14-1.77a4.72,4.72,0,0,1,3.47,3.54A5.12,5.12,0,0,1,79.2,55.3a1.19,1.19,0,0,1,.33-1.47A6.47,6.47,0,0,0,81,52.07c1-1.94,0-4.19-2.27-5.14a11.58,11.58,0,0,0-5.37-.78,21.63,21.63,0,0,0-8.13,2.05,3.8,3.8,0,0,1-.51.16C64.6,48.24,64.52,48.13,64.42,48Z"/><path class="cls-33" d="M76.17,54.71a2.26,2.26,0,0,1-3.57-.15,2.48,2.48,0,0,1,1.77-3.87,2.12,2.12,0,0,1,2,2.42.72.72,0,0,1-.54.37c-.61.06-1.23,0-1.84,0a1.85,1.85,0,0,0-.5.26c.1.17.17.47.31.5a2.13,2.13,0,0,0,1.19.07A.78.78,0,0,1,76.17,54.71ZM74.3,52.82c.33-.18.57-.34.82-.48-.25-.21-.52-.59-.78-.59s-.53.38-.8.59Z"/><path class="cls-33" d="M65.15,53c0-.53,0-1.08,0-1.62s.17-.7.65-.68c.63,0,1.27,0,1.9,0A1.25,1.25,0,0,1,69,52.23c0,.81,0,1.64,0,2.46,0,.49-.13.75-.66.75s-.52-.35-.52-.72c0-.75,0-1.51,0-2.25,0-.55-.27-.74-.79-.75s-.64.32-.64.77c0,.78,0,1.55,0,2.33,0,.39-.15.6-.59.59s-.67-.13-.66-.59,0-1.2,0-1.78Z"/><path class="cls-33" d="M71.51,55.38c-1.08,0-1.57-.44-1.59-1.29,0-1.31,0-2.62,0-3.93,0-.41.12-.66.58-.69s.58.22.62.63c0,.23.3.44.45.65s.35.32.35.49-.24.3-.36.45-.41.37-.44.58a5.1,5.1,0,0,0,0,1.46c0,.24.3.45.45.68s.38.42.35.59S71.59,55.32,71.51,55.38Z"/><path class="cls-33" d="M78.26,55.32c-.79-.09-1.14-.45-1.14-1.07,0-1.6,0-3.22,0-4.82,0-.38.16-.62.54-.54.22,0,.59.24.6.37C78.27,51.24,78.26,53.24,78.26,55.32Z"/><path class="cls-33" d="M64.15,55.41c-.67,0-1.07-.32-1.11-.87A31.22,31.22,0,0,1,63,51.19c0-.16.36-.4.58-.43s.57.19.57.3C64.17,52.49,64.15,53.93,64.15,55.41Z"/><path class="cls-33" d="M64.12,49.82a1.47,1.47,0,0,1-.52.31c-.38.08-.69,0-.69-.54s.14-.61.57-.6S64.21,49,64.12,49.82Z"/><line class="cls-34" x1="1087" y1="189" x2="1067" y2="189"/><circle class="cls-30" cx="1046.85" cy="189.12" r="11.12"/><line class="cls-31" x1="1038.99" y1="196.98" x2="1054.71" y2="181.26"/><text class="cls-35" transform="translate(1098.11 165.29)"><tspan class="cls-36">c</tspan><tspan x="9.38" y="0">an a</tspan><tspan class="cls-36" x="51.7" y="0">cc</tspan><tspan x="70.46" y="0">ess</tspan></text><text class="cls-35" transform="translate(1098.11 199.29)"><tspan class="cls-36">c</tspan><tspan x="9.38" y="0">an N</tspan><tspan class="cls-37" x="55.42" y="0">O</tspan><tspan class="cls-38" x="69.94" y="0">T</tspan><tspan x="81.7" y="0" xml:space="preserve"> a</tspan><tspan class="cls-36" x="99.79" y="0">cc</tspan><tspan x="118.56" y="0">ess</tspan></text><line class="cls-39" x1="1036.04" y1="157" x2="1087" y2="157"/><polygon class="cls-40" points="1045.31 168.45 1047.22 166.4 1037.11 157 1047.22 147.6 1045.31 145.55 1033 157 1045.31 168.45"/></svg>