<svg id="Ebene_1" data-name="Ebene 1" xmlns="http://www.w3.org/2000/svg" viewBox="0 0 2280 337"><defs><style>.cls-1,.cls-2{fill:none;stroke:#fc0;}.cls-1{stroke-miterlimit:10;stroke-width:8px;}.cls-2{stroke-linecap:round;stroke-linejoin:round;stroke-width:6px;}.cls-3{fill:#fc0;}.cls-4{fill:#306;}</style></defs><rect class="cls-1" x="955.22" y="130" width="363.36" height="149" rx="8"/><line class="cls-2" x1="886.53" y1="211.62" x2="930.73" y2="211.62"/><polygon class="cls-3" points="916.81 228.8 913.95 225.72 929.12 211.63 913.95 197.53 916.81 194.45 935.28 211.63 916.81 228.8"/><line class="cls-2" x1="1345.53" y1="211.62" x2="1389.73" y2="211.62"/><polygon class="cls-3" points="1375.81 228.8 1372.95 225.72 1388.12 211.63 1372.95 197.53 1375.81 194.45 1394.28 211.63 1375.81 228.8"/><rect class="cls-1" x="57.24" y="130" width="363.36" height="149" rx="8"/><line class="cls-2" x1="438.53" y1="211.62" x2="482.73" y2="211.62"/><polygon class="cls-3" points="468.81 228.8 465.95 225.72 481.12 211.63 465.95 197.53 468.81 194.45 487.28 211.63 468.81 228.8"/><path d="M978.15,30.58a11.74,11.74,0,0,1,8.6,3.33,11.5,11.5,0,0,1,3.38,8.55v4.71a11.44,11.44,0,0,1-3.38,8.54,11.76,11.76,0,0,1-8.6,3.31H965.36V55.6l3-.58V34.61l-3-.59V30.58h12.79ZM974.09,35V54.65h3.77a5.94,5.94,0,0,0,4.81-2.07,8.19,8.19,0,0,0,1.73-5.41V42.42a8.11,8.11,0,0,0-1.73-5.37A5.94,5.94,0,0,0,977.86,35Z"/><path d="M1003.17,59.43a9.49,9.49,0,0,1-7.3-2.93,10.48,10.48,0,0,1-2.74-7.44v-.78a11.57,11.57,0,0,1,2.59-7.75,9.65,9.65,0,0,1,13.59-.45,9.92,9.92,0,0,1,2.36,7v3.1H999.05l0,.12a5.53,5.53,0,0,0,1.4,3.44,4.36,4.36,0,0,0,3.37,1.35,11.08,11.08,0,0,0,3.14-.38,14.59,14.59,0,0,0,2.74-1.21L1011.2,57a11.2,11.2,0,0,1-3.39,1.74A14.35,14.35,0,0,1,1003.17,59.43Zm-.5-17.54a3,3,0,0,0-2.5,1.21A6.31,6.31,0,0,0,999,46.29l.06.09h7v-.5a4.55,4.55,0,0,0-.85-2.9A3,3,0,0,0,1002.67,41.89Z"/><path d="M1023.08,41.33l-2,.37,2.8,9.45.37,2h.12l.41-2,2.75-9.43-2-.39V37.89h9.59v3.44l-1.84.29L1027,59h-5.45l-6.25-17.4-1.83-.29V37.89h9.59Z"/><path d="M1046.77,59.43a9.51,9.51,0,0,1-7.31-2.93,10.47,10.47,0,0,1-2.73-7.44v-.78a11.52,11.52,0,0,1,2.59-7.75,9.64,9.64,0,0,1,13.58-.45,9.88,9.88,0,0,1,2.36,7v3.1h-12.61l0,.12a5.52,5.52,0,0,0,1.39,3.44,4.36,4.36,0,0,0,3.37,1.35,11.16,11.16,0,0,0,3.15-.38,14.81,14.81,0,0,0,2.73-1.21l1.54,3.52a11.26,11.26,0,0,1-3.38,1.74A14.44,14.44,0,0,1,1046.77,59.43Zm-.51-17.54a3,3,0,0,0-2.5,1.21,6.31,6.31,0,0,0-1.13,3.19l.06.09h7v-.5a4.61,4.61,0,0,0-.85-2.9A3,3,0,0,0,1046.26,41.89Z"/><path d="M1057.35,32V28.55h8.75V55l2.76.58V59h-11.21V55.6l2.75-.58V32.58Z"/><path d="M1070.32,48.26a11.28,11.28,0,0,1,2.65-7.74,10.41,10.41,0,0,1,14.65,0,11.31,11.31,0,0,1,2.64,7.75v.41a11.29,11.29,0,0,1-2.64,7.76,10.44,10.44,0,0,1-14.65,0,11.24,11.24,0,0,1-2.65-7.76Zm5.71.41a9.18,9.18,0,0,0,1,4.64,3.52,3.52,0,0,0,3.28,1.75,3.47,3.47,0,0,0,3.23-1.76,9.07,9.07,0,0,0,1-4.63v-.41a9,9,0,0,0-1-4.59,3.86,3.86,0,0,0-6.5,0,9.15,9.15,0,0,0-1,4.59Z"/><path d="M1092.31,41.33V37.89h8.29l.27,2.46a6.74,6.74,0,0,1,2.25-2.11,6.08,6.08,0,0,1,3-.74,7.05,7.05,0,0,1,6.1,3.06,13.76,13.76,0,0,1,2.16,8.07V49a12.16,12.16,0,0,1-2.16,7.54,7.19,7.19,0,0,1-6.06,2.85,6.76,6.76,0,0,1-3-.61A6.18,6.18,0,0,1,1101,57v6.11l2.76.59v3.44h-11.19V63.71l2.75-.59V41.91Zm16.41,7.3a10.12,10.12,0,0,0-1-4.84,3.24,3.24,0,0,0-3-1.86,4.34,4.34,0,0,0-2.2.53A3.85,3.85,0,0,0,1101,44v9.26a3.58,3.58,0,0,0,1.44,1.37,4.88,4.88,0,0,0,2.24.47,3.27,3.27,0,0,0,3-1.62,8.52,8.52,0,0,0,1-4.4Z"/><path d="M1116.3,41.33V37.89h8.34l.23,2.79a7.15,7.15,0,0,1,2.55-2.35,7.39,7.39,0,0,1,3.55-.83,6.43,6.43,0,0,1,3.47.9,5.48,5.48,0,0,1,2.19,2.71,7.27,7.27,0,0,1,2.54-2.65,6.88,6.88,0,0,1,3.67-1,6.08,6.08,0,0,1,4.93,2.16q1.82,2.16,1.81,6.57V55l2.75.58V59h-10.91V55.6l2.46-.58V46.21a5.34,5.34,0,0,0-.78-3.34,2.86,2.86,0,0,0-2.33-.94,3.81,3.81,0,0,0-3.51,2,6.13,6.13,0,0,0,0,.64c0,.17,0,.35,0,.53V55l2.31.58V59h-10.29V55.6l2.3-.58V46.21a5.36,5.36,0,0,0-.78-3.31,2.81,2.81,0,0,0-2.34-1,4.5,4.5,0,0,0-2,.44,4,4,0,0,0-1.43,1.24V55l2.46.58V59h-10.9V55.6l2.76-.58V41.91Z"/><path d="M1164.09,59.43a9.47,9.47,0,0,1-7.3-2.93,10.44,10.44,0,0,1-2.74-7.44v-.78a11.57,11.57,0,0,1,2.59-7.75,9.64,9.64,0,0,1,13.58-.45,9.88,9.88,0,0,1,2.37,7v3.1H1160l0,.12a5.53,5.53,0,0,0,1.4,3.44,4.34,4.34,0,0,0,3.37,1.35,11.08,11.08,0,0,0,3.14-.38,14.88,14.88,0,0,0,2.74-1.21l1.54,3.52a11.2,11.2,0,0,1-3.39,1.74A14.4,14.4,0,0,1,1164.09,59.43Zm-.51-17.54a3,3,0,0,0-2.5,1.21,6.31,6.31,0,0,0-1.13,3.19l.06.09h7v-.5a4.55,4.55,0,0,0-.85-2.9A3,3,0,0,0,1163.58,41.89Z"/><path d="M1175,55.6l2.74-.58V41.91l-3-.58V37.89H1183l.25,3a7.71,7.71,0,0,1,2.6-2.52,6.74,6.74,0,0,1,3.46-.9,6.37,6.37,0,0,1,5,2q1.79,2,1.79,6.31V55l2.74.58V59H1188V55.6l2.44-.58V45.84a4.29,4.29,0,0,0-.86-3,3.47,3.47,0,0,0-2.6-.89,4.36,4.36,0,0,0-2,.46,4.17,4.17,0,0,0-1.5,1.3V55l2.3.58V59H1175Z"/><path d="M1209.09,32.71v5.18h3.71v4h-3.71V52.65a2.48,2.48,0,0,0,.51,1.76,1.81,1.81,0,0,0,1.37.53,9.93,9.93,0,0,0,1,0,9,9,0,0,0,1-.17l.49,4.13a14.86,14.86,0,0,1-1.9.44,14.17,14.17,0,0,1-2,.14,6.09,6.09,0,0,1-4.54-1.62q-1.59-1.62-1.59-5.14V41.89h-3.11v-4h3.11V32.71Z"/><path d="M1225.26,55.6l3-.58V34.61l-3-.59V30.58h22.64v7.8h-4.37l-.26-3.4H1234v7.83h10v4.4h-10V55l3,.58V59h-11.78Z"/><path d="M1249.5,32V28.55h8.75V55l2.76.58V59h-11.22V55.6l2.76-.58V32.58Z"/><path d="M1262.47,48.26a11.28,11.28,0,0,1,2.65-7.74,10.41,10.41,0,0,1,14.65,0,11.31,11.31,0,0,1,2.64,7.75v.41a11.29,11.29,0,0,1-2.64,7.76,10.44,10.44,0,0,1-14.65,0,11.24,11.24,0,0,1-2.65-7.76Zm5.7.41a9.17,9.17,0,0,0,1,4.64,3.52,3.52,0,0,0,3.28,1.75,3.47,3.47,0,0,0,3.23-1.76,9.07,9.07,0,0,0,1-4.63v-.41a9,9,0,0,0-1-4.59,3.86,3.86,0,0,0-6.5,0,9.15,9.15,0,0,0-1,4.59Z"/><path d="M1315,41.33l-2.13.27L1308.47,59h-4.77l-3.92-12.58h-.12L1295.73,59H1291l-4.44-17.42-2.13-.27V37.89H1294v3.44l-2.24.43,2,9.66h.12l3.94-13.53h3.83l4,13.57h.11l2-9.68-2.27-.45V37.89H1315Z"/><path class="cls-4" d="M168.33,192.06a2.76,2.76,0,0,0,1.91-.65,2.26,2.26,0,0,0,.72-1.75h4l0,.09a4.69,4.69,0,0,1-1.88,3.94,8.36,8.36,0,0,1-10.56-.61,8.05,8.05,0,0,1-2-5.65V187a7.92,7.92,0,0,1,2.06-5.64,7.64,7.64,0,0,1,5.87-2.21,10.63,10.63,0,0,1,3.6.56,7,7,0,0,1,2.65,1.58l.07,4.15h-3.64l-.73-2.43a3,3,0,0,0-.83-.45,3.25,3.25,0,0,0-1.12-.18,2.88,2.88,0,0,0-2.68,1.29,6.36,6.36,0,0,0-.78,3.33v.43a6.81,6.81,0,0,0,.72,3.36A2.65,2.65,0,0,0,168.33,192.06Z"/><path class="cls-4" d="M177.41,192.46l2.15-.43v-9.64l-2.38-.43v-2.52h6.55l.2,2.27a4.78,4.78,0,0,1,1.5-1.89,3.49,3.49,0,0,1,2.13-.67,6.57,6.57,0,0,1,.74,0,4,4,0,0,1,.65.12l-.47,3.82-1.84,0a3.31,3.31,0,0,0-1.63.36,2.47,2.47,0,0,0-1,1V192l2.15.43V195h-8.77Z"/><path class="cls-4" d="M197.93,195.28a7.71,7.71,0,0,1-5.73-2.16,7.42,7.42,0,0,1-2.14-5.47v-.57a8.12,8.12,0,0,1,2-5.7,7.93,7.93,0,0,1,10.65-.34,7,7,0,0,1,1.86,5.13v2.29h-9.9l0,.08a3.9,3.9,0,0,0,1.09,2.53,3.55,3.55,0,0,0,2.65,1,9,9,0,0,0,2.46-.28,12.06,12.06,0,0,0,2.15-.88l1.21,2.58a9.16,9.16,0,0,1-2.66,1.28A12.17,12.17,0,0,1,197.93,195.28Zm-.4-12.9a2.4,2.4,0,0,0-2,.89,4.5,4.5,0,0,0-.89,2.34l0,.07h5.48v-.37a3.23,3.23,0,0,0-.66-2.13A2.5,2.5,0,0,0,197.53,182.38Z"/><path class="cls-4" d="M217.27,195a6.86,6.86,0,0,1-.32-.79,5.09,5.09,0,0,1-.22-.83,6,6,0,0,1-1.94,1.4,6.18,6.18,0,0,1-2.61.53,5.72,5.72,0,0,1-3.87-1.25,4.24,4.24,0,0,1-1.43-3.38,3.77,3.77,0,0,1,1.87-3.37,10.22,10.22,0,0,1,5.48-1.2h2.29v-1.52a2.2,2.2,0,0,0-.69-1.73,2.93,2.93,0,0,0-2-.62,5.13,5.13,0,0,0-1.36.16,3.54,3.54,0,0,0-1,.4l-.29,1.66H207.8V181a12.66,12.66,0,0,1,2.82-1.31,10.9,10.9,0,0,1,3.45-.53,8.25,8.25,0,0,1,5,1.41,4.7,4.7,0,0,1,1.93,4V191c0,.24,0,.47,0,.68a3.83,3.83,0,0,0,0,.6l1.36.17V195Zm-3.88-2.8a4,4,0,0,0,1.84-.41,3.53,3.53,0,0,0,1.29-1v-2.37h-2.29a3.29,3.29,0,0,0-2.16.62,1.91,1.91,0,0,0-.73,1.5,1.52,1.52,0,0,0,.54,1.24A2.32,2.32,0,0,0,213.39,192.17Z"/><path class="cls-4" d="M229.33,175.63v3.81h2.91v2.94h-2.91v7.91a1.7,1.7,0,0,0,.4,1.29,1.45,1.45,0,0,0,1.07.39c.3,0,.57,0,.8,0l.78-.12.38,3a11.68,11.68,0,0,1-1.49.32,11.24,11.24,0,0,1-1.59.11,4.33,4.33,0,0,1-4.81-5v-7.93h-2.44v-2.94h2.44v-3.81Z"/><path class="cls-4" d="M242.37,195.28a7.71,7.71,0,0,1-5.73-2.16,7.42,7.42,0,0,1-2.15-5.47v-.57a8.17,8.17,0,0,1,2-5.7,7.94,7.94,0,0,1,10.66-.34,7.06,7.06,0,0,1,1.85,5.13v2.29h-9.9l0,.08a3.91,3.91,0,0,0,1.1,2.53,3.54,3.54,0,0,0,2.64,1,9.08,9.08,0,0,0,2.47-.28,12,12,0,0,0,2.14-.88l1.21,2.58a9.09,9.09,0,0,1-2.65,1.28A12.17,12.17,0,0,1,242.37,195.28Zm-.4-12.9a2.39,2.39,0,0,0-2,.89,4.42,4.42,0,0,0-.89,2.34l0,.07h5.49v-.37a3.18,3.18,0,0,0-.67-2.13A2.47,2.47,0,0,0,242,182.38Z"/><path class="cls-4" d="M258.73,192.46l2.38-.43V177l-2.38-.43v-2.53h9.12v2.53l-2.27.43v5.59h1.95l4.29-5.85-1.32-.17v-2.53h8.84v2.53l-2.42.39-5.49,6.86,6.16,8.26,2.24.36V195H271v-2.51l1.38-.17-4.29-6h-2.5V192l2.27.43V195h-9.12Z"/><path class="cls-4" d="M296,179.61a4.56,4.56,0,0,1-.89,2.77,5.89,5.89,0,0,1-2.44,1.88,6.56,6.56,0,0,1,2.81,2,4.73,4.73,0,0,1,1,3,5.23,5.23,0,0,1-2.1,4.46,10.46,10.46,0,0,1-11,0,5.23,5.23,0,0,1-2.11-4.46,4.74,4.74,0,0,1,1-3,6.53,6.53,0,0,1,2.8-2,5.77,5.77,0,0,1-2.44-1.88,4.61,4.61,0,0,1-.87-2.77,5.19,5.19,0,0,1,1.94-4.32,9.42,9.42,0,0,1,10.29,0A5.18,5.18,0,0,1,296,179.61Zm-4,9.36a3,3,0,0,0-.88-2.25,3.1,3.1,0,0,0-2.27-.85,3,3,0,0,0-2.25.85,3.39,3.39,0,0,0,0,4.51,3.52,3.52,0,0,0,4.54,0A3,3,0,0,0,292.07,189Zm-.52-9.18a2.86,2.86,0,0,0-.71-2,2.5,2.5,0,0,0-1.92-.77,2.45,2.45,0,0,0-1.91.76,2.94,2.94,0,0,0-.68,2,3,3,0,0,0,.69,2.08,2.78,2.78,0,0,0,3.84,0A3,3,0,0,0,291.55,179.79Z"/><path class="cls-4" d="M315.2,180.74h-3.36l-.58-2.87a6.19,6.19,0,0,0-1.7-.6,10.16,10.16,0,0,0-2.38-.26,4.83,4.83,0,0,0-2.84.72,2.23,2.23,0,0,0-1,1.88,2,2,0,0,0,1.05,1.74A14.77,14.77,0,0,0,308,182.8a14.56,14.56,0,0,1,5.6,2.54,5.13,5.13,0,0,1,1.91,4.15,4.89,4.89,0,0,1-2.27,4.24,10.42,10.42,0,0,1-6,1.55,13.85,13.85,0,0,1-4.78-.79,10,10,0,0,1-3.57-2.19v-4.36h3.47l.47,3a5.57,5.57,0,0,0,1.83.85,9,9,0,0,0,2.58.34,4.68,4.68,0,0,0,2.8-.7,2.22,2.22,0,0,0,1-1.88,2.38,2.38,0,0,0-.91-1.94,9.53,9.53,0,0,0-3.2-1.38,18.65,18.65,0,0,1-6-2.56,4.72,4.72,0,0,1-2-4,4.86,4.86,0,0,1,2.3-4.15,10,10,0,0,1,5.77-1.66,14.2,14.2,0,0,1,4.69.73,11.13,11.13,0,0,1,3.56,2Z"/><path class="cls-4" d="M182.78,217.26l-1.56.27,2.19,6.95.29,1.47h.1l.32-1.47,2.16-6.94-1.6-.28v-2.53h7.53v2.53l-1.44.21-4.89,12.8H181.6l-4.9-12.8-1.44-.21v-2.53h7.52Z"/><path class="cls-4" d="M193.4,222.36a8,8,0,0,1,2.08-5.7,8.56,8.56,0,0,1,11.49,0,8,8,0,0,1,2.08,5.71v.3a8,8,0,0,1-2.08,5.71,8.6,8.6,0,0,1-11.49,0,8,8,0,0,1-2.08-5.71Zm4.48.3a6.45,6.45,0,0,0,.79,3.41,2.82,2.82,0,0,0,2.58,1.28,2.76,2.76,0,0,0,2.53-1.29,6.34,6.34,0,0,0,.81-3.4v-.3a6.34,6.34,0,0,0-.81-3.38,2.81,2.81,0,0,0-2.56-1.31,2.78,2.78,0,0,0-2.55,1.31,6.43,6.43,0,0,0-.79,3.38Z"/><path class="cls-4" d="M210.21,210.39v-2.52h6.87v19.45l2.16.43v2.52h-8.8v-2.52l2.16-.43v-16.5Z"/><path class="cls-4" d="M232.29,228.3a5.39,5.39,0,0,1-2,1.68,5.89,5.89,0,0,1-2.67.59,5.37,5.37,0,0,1-4.11-1.57,6.93,6.93,0,0,1-1.48-4.89v-6.42l-1.83-.43v-2.53h6.3v9.41a3.8,3.8,0,0,0,.61,2.43,2.19,2.19,0,0,0,1.8.74,4.87,4.87,0,0,0,1.83-.32,3.29,3.29,0,0,0,1.26-.93v-8.37l-2-.43v-2.53h6.44v12.59l2,.43v2.52h-5.93Z"/><path class="cls-4" d="M239.75,217.26v-2.53h6.55l.18,2.05a5.55,5.55,0,0,1,2-1.73,6.15,6.15,0,0,1,2.78-.61,5.36,5.36,0,0,1,2.73.66,4.15,4.15,0,0,1,1.72,2,5.55,5.55,0,0,1,2-1.95,5.64,5.64,0,0,1,2.88-.71,4.94,4.94,0,0,1,3.87,1.59,7.11,7.11,0,0,1,1.41,4.83v6.46l2.16.43v2.52h-8.56v-2.52l1.93-.43v-6.47a3.74,3.74,0,0,0-.61-2.46,2.32,2.32,0,0,0-1.83-.69,3.19,3.19,0,0,0-1.64.4,2.86,2.86,0,0,0-1.11,1.1c0,.18,0,.33,0,.46s0,.26,0,.4v7.26l1.8.43v2.52H250v-2.52l1.81-.43v-6.47a3.77,3.77,0,0,0-.62-2.44,2.29,2.29,0,0,0-1.83-.71,3.58,3.58,0,0,0-1.59.33,2.94,2.94,0,0,0-1.13.91v8.38l1.93.43v2.52H240v-2.52l2.16-.43v-9.63Z"/><path class="cls-4" d="M277.25,230.57a7.75,7.75,0,0,1-5.73-2.15,7.45,7.45,0,0,1-2.15-5.48v-.57a8.17,8.17,0,0,1,2-5.7,7,7,0,0,1,12.51,4.79v2.29H274l0,.08a3.9,3.9,0,0,0,1.09,2.53,3.54,3.54,0,0,0,2.64,1,9,9,0,0,0,2.47-.28,11.63,11.63,0,0,0,2.15-.88l1.21,2.59a9.15,9.15,0,0,1-2.66,1.27A11.86,11.86,0,0,1,277.25,230.57Zm-.4-12.9a2.39,2.39,0,0,0-2,.89,4.48,4.48,0,0,0-.89,2.35l.05.07h5.48v-.38a3.23,3.23,0,0,0-.66-2.13A2.5,2.5,0,0,0,276.85,217.67Z"/><path class="cls-4" d="M299.56,220.07h-3l-.48-1.94a3.92,3.92,0,0,0-1.16-.57,4.93,4.93,0,0,0-1.54-.23,3.16,3.16,0,0,0-1.87.49,1.52,1.52,0,0,0-.68,1.25,1.38,1.38,0,0,0,.65,1.17,7.45,7.45,0,0,0,2.64.82,11.36,11.36,0,0,1,4.57,1.69,3.61,3.61,0,0,1,1.48,3.07,4,4,0,0,1-1.92,3.42,8.7,8.7,0,0,1-5.06,1.33,11.25,11.25,0,0,1-3.52-.52,8.89,8.89,0,0,1-2.84-1.51l-.05-3.48h3.13l.61,2a2.62,2.62,0,0,0,1.09.47,6.76,6.76,0,0,0,1.44.15,3.87,3.87,0,0,0,2.07-.46,1.42,1.42,0,0,0,.72-1.25,1.43,1.43,0,0,0-.72-1.19,7.64,7.64,0,0,0-2.66-.89,11.19,11.19,0,0,1-4.42-1.66,3.53,3.53,0,0,1-1.49-3,4.22,4.22,0,0,1,1.72-3.36,7.43,7.43,0,0,1,4.88-1.42,13.21,13.21,0,0,1,3.66.49,7.9,7.9,0,0,1,2.7,1.25Z"/><path class="cls-4" d="M596.45,177.65l2.16-.43v-16.5l-2.39-.43v-2.53h6.85v8.84a5.65,5.65,0,0,1,1.91-1.67,5.33,5.33,0,0,1,2.52-.6,5.24,5.24,0,0,1,4.08,1.62,7.19,7.19,0,0,1,1.48,5v6.28l2.15.43v2.51h-8.55v-2.51l1.93-.43v-6.31a3.77,3.77,0,0,0-.69-2.56,2.6,2.6,0,0,0-2-.76,4,4,0,0,0-1.63.32,3.31,3.31,0,0,0-1.17.89v8.42l1.93.43v2.51h-8.55Z"/><path class="cls-4" d="M624.43,180.46a7.71,7.71,0,0,1-5.73-2.15,7.44,7.44,0,0,1-2.15-5.47v-.58a8.18,8.18,0,0,1,2-5.7,7,7,0,0,1,12.51,4.8v2.28H621.2l0,.09a3.89,3.89,0,0,0,1.09,2.52,3.5,3.5,0,0,0,2.64,1,9.39,9.39,0,0,0,2.47-.28,12.48,12.48,0,0,0,2.15-.89l1.21,2.59a9.42,9.42,0,0,1-2.66,1.28A12.17,12.17,0,0,1,624.43,180.46Zm-.4-12.89a2.36,2.36,0,0,0-2,.89,4.42,4.42,0,0,0-.89,2.34l.05.07h5.48v-.37a3.26,3.26,0,0,0-.66-2.14A2.5,2.5,0,0,0,624,167.57Z"/><path class="cls-4" d="M632.73,160.29v-2.53h6.87v19.46l2.16.43v2.51H633v-2.51l2.17-.43v-16.5Z"/><path class="cls-4" d="M642.69,167.15v-2.53h6.55l.18,2.06a5.36,5.36,0,0,1,2-1.73,6,6,0,0,1,2.78-.62,5.36,5.36,0,0,1,2.73.67,4.12,4.12,0,0,1,1.72,2,5.55,5.55,0,0,1,2-2,5.64,5.64,0,0,1,2.88-.71,4.94,4.94,0,0,1,3.87,1.59,7.11,7.11,0,0,1,1.41,4.83v6.47l2.16.43v2.51H662.4v-2.51l1.93-.43v-6.48a3.74,3.74,0,0,0-.61-2.46,2.36,2.36,0,0,0-1.83-.69,3.29,3.29,0,0,0-1.64.4,2.86,2.86,0,0,0-1.11,1.1c0,.18,0,.34,0,.47s0,.26,0,.39v7.27l1.8.43v2.51H652.9v-2.51l1.81-.43v-6.48a3.72,3.72,0,0,0-.62-2.43,2.26,2.26,0,0,0-1.83-.72,3.58,3.58,0,0,0-1.59.33,3,3,0,0,0-1.13.91v8.39l1.93.43v2.51h-8.55v-2.51l2.16-.43v-9.64Z"/><path class="cls-4" d="M680,177.65l2.16-.43v-9.64l-2.39-.43v-2.53h6.86v12.6l2.15.43v2.51H680Zm6.63-16.75h-4.47v-3.14h4.47Z"/><path class="cls-4" d="M690,177.65l2.15-.43v-9.64l-2.38-.43v-2.53h6.55l.2,2.23a5.87,5.87,0,0,1,2-1.85,5.62,5.62,0,0,1,2.72-.67,5.19,5.19,0,0,1,3.92,1.48,6.55,6.55,0,0,1,1.41,4.64v6.77l2.14.43v2.51h-8.55v-2.51l1.92-.43v-6.75a3,3,0,0,0-.67-2.22,2.81,2.81,0,0,0-2-.66,3.76,3.76,0,0,0-1.6.34,3.34,3.34,0,0,0-1.18,1v8.33l1.81.43v2.51H690Z"/><path class="cls-4" d="M723.66,170h-3l-.48-1.93a3.93,3.93,0,0,0-1.16-.58,4.93,4.93,0,0,0-1.54-.23,3.16,3.16,0,0,0-1.87.5,1.49,1.49,0,0,0-.68,1.24,1.4,1.4,0,0,0,.65,1.17,7.41,7.41,0,0,0,2.64.83,11.22,11.22,0,0,1,4.57,1.68,3.62,3.62,0,0,1,1.48,3.07,4,4,0,0,1-1.92,3.42,8.7,8.7,0,0,1-5.06,1.33,11.25,11.25,0,0,1-3.52-.52,9.07,9.07,0,0,1-2.84-1.5l0-3.49H714l.61,2a2.62,2.62,0,0,0,1.09.47,6.76,6.76,0,0,0,1.44.15,3.78,3.78,0,0,0,2.07-.46,1.42,1.42,0,0,0,.72-1.25,1.43,1.43,0,0,0-.72-1.19,7.64,7.64,0,0,0-2.66-.89,11,11,0,0,1-4.42-1.66,3.52,3.52,0,0,1-1.49-3,4.22,4.22,0,0,1,1.72-3.37,7.49,7.49,0,0,1,4.88-1.42,13.6,13.6,0,0,1,3.66.49,7.9,7.9,0,0,1,2.7,1.25Z"/><path class="cls-4" d="M732.88,160.82v3.8h2.91v2.95h-2.91v7.91a1.78,1.78,0,0,0,.4,1.29,1.47,1.47,0,0,0,1.07.39,6.44,6.44,0,0,0,.81,0,6.35,6.35,0,0,0,.77-.12l.39,3a12.14,12.14,0,0,1-1.49.33,11.3,11.3,0,0,1-1.59.1,5,5,0,0,1-3.57-1.19,5,5,0,0,1-1.25-3.78v-7.92H726v-2.95h2.43v-3.8Z"/><path class="cls-4" d="M748.54,180.16a7,7,0,0,1-.32-.8,5.8,5.8,0,0,1-.21-.82,6.13,6.13,0,0,1-1.94,1.39,6,6,0,0,1-2.61.53,5.68,5.68,0,0,1-3.87-1.24,4.24,4.24,0,0,1-1.44-3.38,3.8,3.8,0,0,1,1.87-3.38,10.36,10.36,0,0,1,5.49-1.19h2.28v-1.52a2.21,2.21,0,0,0-.69-1.74,3,3,0,0,0-2-.62,5.11,5.11,0,0,0-1.36.17,3.66,3.66,0,0,0-1,.39l-.3,1.67h-3.37l0-3.45a13,13,0,0,1,2.81-1.3,10.68,10.68,0,0,1,3.46-.54,8.25,8.25,0,0,1,5,1.42,4.71,4.71,0,0,1,1.92,4v6.42c0,.24,0,.46,0,.67a4.07,4.07,0,0,0,.05.61l1.37.17v2.51Zm-3.87-2.8a4.17,4.17,0,0,0,1.84-.41,3.33,3.33,0,0,0,1.28-1v-2.37h-2.28a3.24,3.24,0,0,0-2.16.63,1.92,1.92,0,0,0-.74,1.5,1.5,1.5,0,0,0,.55,1.24A2.34,2.34,0,0,0,744.67,177.36Z"/><path class="cls-4" d="M754.75,160.29v-2.53h6.86v19.46l2.16.43v2.51H755v-2.51l2.16-.43v-16.5Z"/><path class="cls-4" d="M764.75,160.29v-2.53h6.87v19.46l2.16.43v2.51H765v-2.51l2.17-.43v-16.5Z"/><path class="cls-4" d="M614.09,212.54a2.76,2.76,0,0,0,1.91-.65,2.26,2.26,0,0,0,.72-1.75h4l0,.09a4.71,4.71,0,0,1-1.88,3.94,8.36,8.36,0,0,1-10.56-.61,8,8,0,0,1-2-5.64v-.44a8,8,0,0,1,2.06-5.64,7.68,7.68,0,0,1,5.88-2.21,10.88,10.88,0,0,1,3.6.56,7.12,7.12,0,0,1,2.65,1.58l.06,4.15H617l-.73-2.43a3,3,0,0,0-.83-.45,3.25,3.25,0,0,0-1.12-.18,2.87,2.87,0,0,0-2.68,1.29,6.36,6.36,0,0,0-.78,3.33v.44a6.79,6.79,0,0,0,.72,3.35A2.65,2.65,0,0,0,614.09,212.54Z"/><path class="cls-4" d="M630.62,212.54a2.79,2.79,0,0,0,1.92-.65,2.26,2.26,0,0,0,.72-1.75h4l.05.09a4.72,4.72,0,0,1-1.89,3.94,8.36,8.36,0,0,1-10.56-.61,8.09,8.09,0,0,1-2-5.64v-.44a7.94,7.94,0,0,1,2.06-5.64,7.64,7.64,0,0,1,5.87-2.21,11,11,0,0,1,3.61.56,7.2,7.2,0,0,1,2.65,1.58l.06,4.15h-3.63l-.74-2.43A2.84,2.84,0,0,0,632,203a3.21,3.21,0,0,0-1.12-.18,2.88,2.88,0,0,0-2.68,1.29,6.36,6.36,0,0,0-.78,3.33v.44a6.79,6.79,0,0,0,.72,3.35A2.65,2.65,0,0,0,630.62,212.54Z"/><path class="cls-4" d="M639.37,207.54a8,8,0,0,1,2.08-5.69,7.45,7.45,0,0,1,5.73-2.22,7.53,7.53,0,0,1,5.76,2.21,8,8,0,0,1,2.07,5.7v.3a8,8,0,0,1-2.07,5.71,8.57,8.57,0,0,1-11.49,0,8,8,0,0,1-2.08-5.71Zm4.47.3a6.4,6.4,0,0,0,.8,3.41,3.18,3.18,0,0,0,5.11,0,6.35,6.35,0,0,0,.8-3.41v-.3a6.3,6.3,0,0,0-.81-3.37,2.79,2.79,0,0,0-2.56-1.31,2.76,2.76,0,0,0-2.54,1.31,6.39,6.39,0,0,0-.8,3.37Z"/><path class="cls-4" d="M656.71,212.94l2.15-.43v-9.63l-2.38-.44v-2.52H663l.2,2.22a6,6,0,0,1,2-1.85,5.61,5.61,0,0,1,2.72-.66,5.15,5.15,0,0,1,3.92,1.48,6.52,6.52,0,0,1,1.41,4.64v6.76l2.14.43v2.52H666.9v-2.52l1.92-.43v-6.75a3.07,3.07,0,0,0-.67-2.22,2.85,2.85,0,0,0-2-.65,3.58,3.58,0,0,0-1.6.34,3.21,3.21,0,0,0-1.18,1v8.33l1.81.43v2.52h-8.43Z"/><path class="cls-4" d="M683.48,196.11v3.81h2.91v2.94h-2.91v7.91a1.79,1.79,0,0,0,.4,1.3,1.5,1.5,0,0,0,1.07.38q.46,0,.81,0l.77-.12.39,3a12.06,12.06,0,0,1-1.49.32,11.24,11.24,0,0,1-1.59.11,5,5,0,0,1-3.57-1.2,5,5,0,0,1-1.25-3.77v-7.93h-2.43v-2.94H679v-3.81Z"/><path class="cls-4" d="M699.14,215.46a7.85,7.85,0,0,1-.32-.8,6.31,6.31,0,0,1-.21-.83,6,6,0,0,1-4.55,1.93,5.68,5.68,0,0,1-3.87-1.25,4.21,4.21,0,0,1-1.44-3.38,3.79,3.79,0,0,1,1.87-3.37,10.27,10.27,0,0,1,5.49-1.19h2.28V205a2.2,2.2,0,0,0-.69-1.73,2.93,2.93,0,0,0-2-.62,5.13,5.13,0,0,0-1.36.16,3.34,3.34,0,0,0-1,.4l-.3,1.66h-3.37l0-3.44a12.57,12.57,0,0,1,2.81-1.31,11,11,0,0,1,3.46-.53,8.25,8.25,0,0,1,5,1.41,4.72,4.72,0,0,1,1.92,4v6.42c0,.24,0,.47,0,.68a3.83,3.83,0,0,0,.05.6l1.37.17v2.52Zm-3.87-2.81a4.09,4.09,0,0,0,1.83-.4,3.48,3.48,0,0,0,1.29-1v-2.37h-2.28a3.29,3.29,0,0,0-2.16.62,1.92,1.92,0,0,0-.74,1.5,1.5,1.5,0,0,0,.55,1.24A2.28,2.28,0,0,0,695.27,212.65Z"/><path class="cls-4" d="M705.69,212.94l2.16-.43v-9.63l-2.39-.44v-2.52h6.86v12.59l2.15.43v2.52h-8.78Zm6.63-16.74h-4.47v-3.15h4.47Z"/><path class="cls-4" d="M715.69,212.94l2.15-.43v-9.63l-2.38-.44v-2.52H722l.2,2.22a5.91,5.91,0,0,1,2-1.85,5.57,5.57,0,0,1,2.71-.66,5.16,5.16,0,0,1,3.93,1.48,6.52,6.52,0,0,1,1.41,4.64v6.76l2.14.43v2.52h-8.55v-2.52l1.92-.43v-6.75a3,3,0,0,0-.68-2.22,2.85,2.85,0,0,0-2-.65,3.57,3.57,0,0,0-1.59.34,3.21,3.21,0,0,0-1.18,1v8.33l1.81.43v2.52h-8.43Z"/><path class="cls-4" d="M743.64,215.76a7.71,7.71,0,0,1-5.73-2.16,7.42,7.42,0,0,1-2.15-5.47v-.57a8.17,8.17,0,0,1,2-5.7,7.94,7.94,0,0,1,10.66-.34,7,7,0,0,1,1.85,5.13v2.29h-9.89l0,.08a3.9,3.9,0,0,0,1.09,2.53,3.54,3.54,0,0,0,2.64,1,9,9,0,0,0,2.47-.28,12.37,12.37,0,0,0,2.15-.88l1.21,2.58a9.16,9.16,0,0,1-2.66,1.28A12.17,12.17,0,0,1,743.64,215.76Zm-.4-12.9a2.39,2.39,0,0,0-2,.89,4.42,4.42,0,0,0-.89,2.34l.05.07h5.48v-.37a3.23,3.23,0,0,0-.66-2.13A2.5,2.5,0,0,0,743.24,202.86Z"/><path class="cls-4" d="M752.76,212.94l2.14-.43v-9.63l-2.37-.44v-2.52h6.54l.2,2.27a5,5,0,0,1,1.5-1.89,3.49,3.49,0,0,1,2.13-.67,6.42,6.42,0,0,1,.74.05,4,4,0,0,1,.65.12l-.47,3.82-1.84,0a3.29,3.29,0,0,0-1.62.36,2.35,2.35,0,0,0-1,1v7.55l2.14.43v2.52h-8.76Z"/><path class="cls-4" d="M628.16,248.24l2.16-.44v-9.63l-2.39-.43v-2.53h6.86V247.8l2.15.44v2.51h-8.78Zm6.63-16.75h-4.47v-3.14h4.47Z"/><path class="cls-4" d="M638.17,248.24l2.14-.44v-9.63l-2.37-.43v-2.53h6.54l.2,2.23a5.84,5.84,0,0,1,2-1.86,5.55,5.55,0,0,1,2.71-.66,5.19,5.19,0,0,1,3.92,1.48,6.54,6.54,0,0,1,1.41,4.64v6.76l2.15.44v2.51h-8.55v-2.51l1.91-.44v-6.74a3,3,0,0,0-.67-2.22,2.81,2.81,0,0,0-2-.66,3.71,3.71,0,0,0-1.59.34,3.15,3.15,0,0,0-1.18,1v8.32l1.8.44v2.51h-8.42Z"/><path class="cls-4" d="M658,237.74v-2.53h6.5l.21,1.81a5.21,5.21,0,0,1,1.77-1.55,4.93,4.93,0,0,1,2.39-.55,5.64,5.64,0,0,1,4.78,2.26,9.61,9.61,0,0,1,1.7,5.93v.3a8.52,8.52,0,0,1-1.7,5.54,5.78,5.78,0,0,1-4.75,2.1,5.68,5.68,0,0,1-2.32-.45,4.76,4.76,0,0,1-1.73-1.33v4.49l2.16.44v2.52h-8.78V254.2l2.16-.44V238.17Zm12.87,5.37a7.11,7.11,0,0,0-.78-3.56,2.57,2.57,0,0,0-2.39-1.37,3.53,3.53,0,0,0-1.72.39,2.87,2.87,0,0,0-1.13,1.11v6.8a2.7,2.7,0,0,0,1.13,1,4,4,0,0,0,1.75.34,2.62,2.62,0,0,0,2.39-1.19,6,6,0,0,0,.75-3.23Z"/><path class="cls-4" d="M688.93,248.78a5.39,5.39,0,0,1-2,1.68,5.89,5.89,0,0,1-2.67.59,5.37,5.37,0,0,1-4.11-1.57,6.93,6.93,0,0,1-1.49-4.89v-6.42l-1.82-.43v-2.53h6.3v9.41a3.87,3.87,0,0,0,.6,2.43,2.22,2.22,0,0,0,1.8.74,4.88,4.88,0,0,0,1.84-.32,3.29,3.29,0,0,0,1.26-.93v-8.37l-2-.43v-2.53h6.43V247.8l2,.44v2.51h-5.93Z"/><path class="cls-4" d="M703.52,231.4v3.81h2.91v2.94h-2.91v7.92a1.73,1.73,0,0,0,.4,1.29,1.45,1.45,0,0,0,1.07.39,6.37,6.37,0,0,0,.8,0,6.81,6.81,0,0,0,.78-.12l.38,3a11.68,11.68,0,0,1-1.49.32,11.24,11.24,0,0,1-1.59.11,4.32,4.32,0,0,1-4.81-5v-7.93h-2.44v-2.94h2.44V231.4Z"/><path class="cls-4" d="M723,253.42h-14v-2.67h14Z"/><path class="cls-4" d="M724.91,248.24l1.55-.23,4.5-5.12L726.61,238l-1.55-.24v-2.53h7.46v2.43l-1.51.17,2.51,3,2.47-3-1.55-.17v-2.43h7.49v2.53l-1.5.24-4.26,4.91,4.49,5.12,1.56.23v2.51h-7.58v-2.41l1.51-.18L733.58,245,731,248.18l1.33.16v2.41h-7.38Z"/><path class="cls-4" d="M1101.4,167.15l-1.67.2-3.46,12.81h-3.74l-3.08-9.25h-.09l-3.08,9.25h-3.73l-3.47-12.81-1.67-.2v-2.53h7.5v2.53l-1.76.32,1.56,7.1h.1l3.09-9.95h3l3.13,10h.09l1.55-7.12-1.78-.33v-2.53h7.51Z"/><path class="cls-4" d="M1113.49,180.16a7,7,0,0,1-.32-.8,7.62,7.62,0,0,1-.22-.82,6,6,0,0,1-4.55,1.92,5.71,5.71,0,0,1-3.87-1.24,4.27,4.27,0,0,1-1.43-3.38,3.78,3.78,0,0,1,1.87-3.38,10.36,10.36,0,0,1,5.49-1.19h2.28v-1.52a2.21,2.21,0,0,0-.69-1.74,3,3,0,0,0-2-.62,5.11,5.11,0,0,0-1.36.17,3.9,3.9,0,0,0-1,.39l-.29,1.67H1104l0-3.45a12.8,12.8,0,0,1,2.81-1.3,10.66,10.66,0,0,1,3.45-.54,8.28,8.28,0,0,1,5,1.42,4.71,4.71,0,0,1,1.92,4v6.42c0,.24,0,.46,0,.67a4.07,4.07,0,0,0,0,.61l1.36.17v2.51Zm-3.88-2.8a4.11,4.11,0,0,0,1.84-.41,3.45,3.45,0,0,0,1.29-1v-2.37h-2.28a3.24,3.24,0,0,0-2.16.63,1.92,1.92,0,0,0-.74,1.5,1.52,1.52,0,0,0,.54,1.24A2.38,2.38,0,0,0,1109.61,177.36Z"/><path class="cls-4" d="M1120,177.65l2.16-.43v-9.64l-2.39-.43v-2.53h6.87v12.6l2.14.43v2.51H1120Zm6.64-16.75h-4.48v-3.14h4.48Z"/><path class="cls-4" d="M1136.89,160.82v3.8h2.91v2.95h-2.91v7.91a1.73,1.73,0,0,0,.4,1.29,1.45,1.45,0,0,0,1.07.39,6.27,6.27,0,0,0,.8,0,6.81,6.81,0,0,0,.78-.12l.38,3a11.74,11.74,0,0,1-1.49.33,11.3,11.3,0,0,1-1.59.1,4.93,4.93,0,0,1-3.56-1.19,5,5,0,0,1-1.25-3.78v-7.92H1130v-2.95h2.44v-3.8Z"/><path class="cls-4" d="M1149.93,177.65l2.16-.43v-9.65h-2.47v-2.95h2.47V162.9a5.06,5.06,0,0,1,1.61-4,6.63,6.63,0,0,1,4.52-1.41,7.59,7.59,0,0,1,1.15.08c.4.05.83.12,1.3.22l-.38,3.11-.72-.1c-.23,0-.5,0-.8,0a2.24,2.24,0,0,0-1.65.56,2.19,2.19,0,0,0-.56,1.61v1.72h3.3v2.95h-3.3v9.65l2.16.43v2.51h-8.79Z"/><path class="cls-4" d="M1161.36,172.25a8,8,0,0,1,2.07-5.7,8.56,8.56,0,0,1,11.5,0,8,8,0,0,1,2.07,5.7v.3a8,8,0,0,1-2.07,5.71,8.61,8.61,0,0,1-11.5,0,8,8,0,0,1-2.07-5.71Zm4.47.3a6.42,6.42,0,0,0,.8,3.41,2.79,2.79,0,0,0,2.57,1.29,2.76,2.76,0,0,0,2.54-1.3,6.32,6.32,0,0,0,.8-3.4v-.3a6.34,6.34,0,0,0-.81-3.38,2.78,2.78,0,0,0-2.56-1.3,2.75,2.75,0,0,0-2.54,1.3,6.43,6.43,0,0,0-.8,3.38Z"/><path class="cls-4" d="M1179.29,177.65l2.14-.43v-9.64l-2.37-.43v-2.53h6.54l.2,2.27a5,5,0,0,1,1.5-1.88,3.5,3.5,0,0,1,2.13-.68,4.91,4.91,0,0,1,.74.06,4,4,0,0,1,.65.12l-.47,3.82-1.84-.05a3.26,3.26,0,0,0-1.62.36,2.43,2.43,0,0,0-1,1v7.56l2.15.43v2.51h-8.76Z"/><path class="cls-4" d="M1058.9,212.94l2.16-.43v-9.63l-2.39-.44v-2.52h6.86v12.59l2.15.43v2.52h-8.78Zm6.63-16.74h-4.47v-3.15h4.47Z"/><path class="cls-4" d="M1068.9,212.94l2.15-.43v-9.63l-2.38-.44v-2.52h6.54l.2,2.22a5.91,5.91,0,0,1,2-1.85,5.57,5.57,0,0,1,2.71-.66,5.16,5.16,0,0,1,3.93,1.48,6.52,6.52,0,0,1,1.41,4.64v6.76l2.14.43v2.52h-8.55v-2.52l1.92-.43v-6.75a3,3,0,0,0-.68-2.22,2.85,2.85,0,0,0-2-.65,3.57,3.57,0,0,0-1.59.34,3.21,3.21,0,0,0-1.18,1v8.33l1.81.43v2.52h-8.43Z"/><path class="cls-4" d="M1088.73,202.44v-2.52h6.5l.21,1.81a5.32,5.32,0,0,1,1.76-1.56,5.07,5.07,0,0,1,2.39-.54,5.63,5.63,0,0,1,4.78,2.25,9.57,9.57,0,0,1,1.7,5.93v.31a8.5,8.5,0,0,1-1.7,5.54,5.76,5.76,0,0,1-4.75,2.1,5.44,5.44,0,0,1-2.31-.46,4.74,4.74,0,0,1-1.73-1.32v4.49l2.16.43v2.53H1089V218.9l2.16-.43V202.88Zm12.87,5.37a7.14,7.14,0,0,0-.78-3.56,2.57,2.57,0,0,0-2.39-1.36,3.57,3.57,0,0,0-1.73.39,2.82,2.82,0,0,0-1.12,1.1v6.81a2.74,2.74,0,0,0,1.12,1,4.18,4.18,0,0,0,1.76.34,2.62,2.62,0,0,0,2.38-1.19,5.94,5.94,0,0,0,.76-3.23Z"/><path class="cls-4" d="M1119.67,213.49a5.57,5.57,0,0,1-2,1.68,6,6,0,0,1-2.68.59,5.37,5.37,0,0,1-4.1-1.58c-1-1-1.49-2.67-1.49-4.89v-6.41l-1.82-.44v-2.52h6.29v9.4a3.91,3.91,0,0,0,.61,2.44,2.19,2.19,0,0,0,1.8.74,4.67,4.67,0,0,0,1.83-.33,3,3,0,0,0,1.26-.92v-8.37l-2-.44v-2.52h6.44v12.59l2,.43v2.52H1120Z"/><path class="cls-4" d="M1134.25,196.11v3.81h2.91v2.94h-2.91v7.91a1.79,1.79,0,0,0,.4,1.3,1.5,1.5,0,0,0,1.07.38q.46,0,.81,0l.77-.12.38,3a11.54,11.54,0,0,1-1.48.32,11.28,11.28,0,0,1-1.6.11,5,5,0,0,1-3.56-1.2,5,5,0,0,1-1.25-3.77v-7.93h-2.43v-2.94h2.43v-3.81Z"/><path class="cls-4" d="M1153.74,218.13H1139.8v-2.67h13.94Z"/><path class="cls-4" d="M1155.64,212.94l1.55-.23,4.51-5.11-4.36-4.91-1.54-.25v-2.52h7.46v2.42l-1.52.18,2.51,3,2.47-3-1.55-.18v-2.42h7.5v2.52l-1.5.25-4.26,4.91,4.49,5.11,1.56.23v2.52h-7.59V213l1.52-.17-2.57-3.13-2.62,3.14,1.33.16v2.42h-7.39Z"/><path class="cls-4" d="M1188.66,196.11v3.81h2.92v2.94h-2.92v7.91a1.79,1.79,0,0,0,.4,1.3,1.52,1.52,0,0,0,1.07.38q.46,0,.81,0l.77-.12.39,3a11.68,11.68,0,0,1-1.49.32,11.24,11.24,0,0,1-1.59.11,5,5,0,0,1-3.57-1.2,5,5,0,0,1-1.25-3.77v-7.93h-2.43v-2.94h2.43v-3.81Z"/><path class="cls-4" d="M1193.31,207.54a8,8,0,0,1,2.07-5.69,8.57,8.57,0,0,1,11.5,0,8,8,0,0,1,2.07,5.7v.3a8,8,0,0,1-2.07,5.71,8.59,8.59,0,0,1-11.5,0,8,8,0,0,1-2.07-5.71Zm4.47.3a6.4,6.4,0,0,0,.8,3.41,3.18,3.18,0,0,0,5.11,0,6.45,6.45,0,0,0,.8-3.41v-.3a6.3,6.3,0,0,0-.81-3.37,2.79,2.79,0,0,0-2.56-1.31,2.76,2.76,0,0,0-2.54,1.31,6.39,6.39,0,0,0-.8,3.37Z"/><path class="cls-4" d="M1068.92,231.4v3.81h2.92v2.94h-2.92v7.92a1.78,1.78,0,0,0,.4,1.29,1.49,1.49,0,0,0,1.08.39,7.55,7.55,0,0,0,1.57-.16l.39,3a11.68,11.68,0,0,1-1.49.32,11.24,11.24,0,0,1-1.59.11,4.31,4.31,0,0,1-4.81-5v-7.93H1062v-2.94h2.44V231.4Z"/><path class="cls-4" d="M1082,251.05a7.75,7.75,0,0,1-5.73-2.15,7.44,7.44,0,0,1-2.14-5.48v-.57a8.12,8.12,0,0,1,2-5.7,7.93,7.93,0,0,1,10.66-.33,7,7,0,0,1,1.85,5.13v2.28h-9.9l0,.09a3.9,3.9,0,0,0,1.1,2.52,3.52,3.52,0,0,0,2.64,1,9.08,9.08,0,0,0,2.47-.28,11.57,11.57,0,0,0,2.14-.88l1.21,2.59a9,9,0,0,1-2.66,1.27A11.81,11.81,0,0,1,1082,251.05Zm-.39-12.9a2.41,2.41,0,0,0-2,.89,4.48,4.48,0,0,0-.88,2.35l0,.07h5.49v-.38a3.23,3.23,0,0,0-.67-2.13A2.48,2.48,0,0,0,1081.57,238.15Z"/><path class="cls-4" d="M1091.08,248.24l2.15-.44v-9.63l-2.38-.43v-2.53h6.54l.2,2.27a4.86,4.86,0,0,1,1.51-1.88,3.5,3.5,0,0,1,2.13-.68,6.57,6.57,0,0,1,.74.05,5.29,5.29,0,0,1,.65.13l-.48,3.82-1.83,0a3.31,3.31,0,0,0-1.63.36,2.41,2.41,0,0,0-1,1v7.55l2.15.44v2.51h-8.77Z"/><path class="cls-4" d="M1103.43,237.74v-2.53H1110l.19,2a5.55,5.55,0,0,1,2-1.73,6.15,6.15,0,0,1,2.78-.61,5.36,5.36,0,0,1,2.73.66,4.18,4.18,0,0,1,1.71,2,5.63,5.63,0,0,1,2-2,5.69,5.69,0,0,1,2.88-.71,4.91,4.91,0,0,1,3.87,1.59,7.06,7.06,0,0,1,1.42,4.83v6.46l2.16.44v2.51h-8.56v-2.51l1.93-.44v-6.47a3.74,3.74,0,0,0-.62-2.46,2.29,2.29,0,0,0-1.82-.69,3.25,3.25,0,0,0-1.65.4,3,3,0,0,0-1.11,1.1c0,.18,0,.33,0,.46s0,.26,0,.4v7.26l1.81.44v2.51h-8.07v-2.51l1.8-.44v-6.47a3.77,3.77,0,0,0-.61-2.44,2.31,2.31,0,0,0-1.84-.71,3.57,3.57,0,0,0-1.58.33,3,3,0,0,0-1.13.91v8.38l1.93.44v2.51h-8.55v-2.51l2.16-.44v-9.63Z"/><path class="cls-4" d="M1133,248.24l2.16-.44v-9.63l-2.39-.43v-2.53h6.87V247.8l2.14.44v2.51H1133Zm6.64-16.75h-4.48v-3.14h4.48Z"/><path class="cls-4" d="M1143,248.24l2.14-.44v-9.63l-2.37-.43v-2.53h6.54l.2,2.23a5.84,5.84,0,0,1,2-1.86,5.57,5.57,0,0,1,2.71-.66,5.17,5.17,0,0,1,3.92,1.48,6.54,6.54,0,0,1,1.41,4.64v6.76l2.15.44v2.51h-8.55v-2.51l1.91-.44v-6.74a3,3,0,0,0-.67-2.22,2.81,2.81,0,0,0-2-.66,3.71,3.71,0,0,0-1.59.34,3.23,3.23,0,0,0-1.18,1v8.32l1.81.44v2.51H1143Z"/><path class="cls-4" d="M1173.73,250.75a7.85,7.85,0,0,1-.32-.8,6.17,6.17,0,0,1-.21-.82,6,6,0,0,1-4.56,1.92,5.67,5.67,0,0,1-3.86-1.24,4.24,4.24,0,0,1-1.44-3.38,3.8,3.8,0,0,1,1.87-3.38,10.36,10.36,0,0,1,5.49-1.19H1173v-1.52a2.21,2.21,0,0,0-.69-1.74,3,3,0,0,0-2-.62,5.11,5.11,0,0,0-1.36.17,3.9,3.9,0,0,0-1,.39l-.29,1.67h-3.37l0-3.45a12.81,12.81,0,0,1,2.81-1.31,10.94,10.94,0,0,1,3.45-.53,8.2,8.2,0,0,1,5,1.42,4.7,4.7,0,0,1,1.92,4v6.42c0,.23,0,.46,0,.67a3.83,3.83,0,0,0,0,.6l1.37.18v2.51Zm-3.88-2.8a4.11,4.11,0,0,0,1.84-.41,3.46,3.46,0,0,0,1.29-1v-2.37h-2.28a3.24,3.24,0,0,0-2.16.63,1.89,1.89,0,0,0-.74,1.5,1.48,1.48,0,0,0,.55,1.23A2.28,2.28,0,0,0,1169.85,248Z"/><path class="cls-4" d="M1185.79,231.4v3.81h2.91v2.94h-2.91v7.92a1.73,1.73,0,0,0,.4,1.29,1.45,1.45,0,0,0,1.07.39,6.44,6.44,0,0,0,.81,0,6.66,6.66,0,0,0,.77-.12l.38,3a11.54,11.54,0,0,1-1.48.32,11.38,11.38,0,0,1-1.6.11,5,5,0,0,1-3.56-1.19,5,5,0,0,1-1.25-3.78v-7.93h-2.43v-2.94h2.43V231.4Z"/><path class="cls-4" d="M1198.83,251.05a7.75,7.75,0,0,1-5.73-2.15,7.45,7.45,0,0,1-2.15-5.48v-.57a8.17,8.17,0,0,1,2-5.7,7.06,7.06,0,0,1,12.52,4.8v2.28h-9.9l0,.09a3.89,3.89,0,0,0,1.09,2.52,3.54,3.54,0,0,0,2.64,1,9,9,0,0,0,2.47-.28,11.36,11.36,0,0,0,2.15-.88l1.21,2.59a9.15,9.15,0,0,1-2.66,1.27A11.86,11.86,0,0,1,1198.83,251.05Zm-.4-12.9a2.39,2.39,0,0,0-2,.89,4.48,4.48,0,0,0-.89,2.35l.05.07h5.48v-.38a3.23,3.23,0,0,0-.66-2.13A2.5,2.5,0,0,0,1198.43,238.15Z"/><path class="cls-4" d="M1507.45,177.65l2.16-.43v-16.5l-2.39-.43v-2.53h6.85v8.84a5.65,5.65,0,0,1,1.91-1.67,5.33,5.33,0,0,1,2.52-.6,5.24,5.24,0,0,1,4.08,1.62,7.19,7.19,0,0,1,1.48,5v6.28l2.15.43v2.51h-8.55v-2.51l1.93-.43v-6.31a3.77,3.77,0,0,0-.69-2.56,2.6,2.6,0,0,0-2-.76,4,4,0,0,0-1.63.32,3.31,3.31,0,0,0-1.17.89v8.42l1.93.43v2.51h-8.55Z"/><path class="cls-4" d="M1535.43,180.46a7.71,7.71,0,0,1-5.73-2.15,7.44,7.44,0,0,1-2.15-5.47v-.58a8.18,8.18,0,0,1,2-5.7,7,7,0,0,1,12.51,4.8v2.28h-9.89l0,.09a3.89,3.89,0,0,0,1.09,2.52,3.5,3.5,0,0,0,2.64,1,9.44,9.44,0,0,0,2.47-.28,12.17,12.17,0,0,0,2.15-.89l1.21,2.59a9.42,9.42,0,0,1-2.66,1.28A12.17,12.17,0,0,1,1535.43,180.46Zm-.4-12.89a2.36,2.36,0,0,0-2,.89,4.42,4.42,0,0,0-.89,2.34l0,.07h5.48v-.37a3.26,3.26,0,0,0-.66-2.14A2.5,2.5,0,0,0,1535,167.57Z"/><path class="cls-4" d="M1543.73,160.29v-2.53h6.87v19.46l2.16.43v2.51H1544v-2.51l2.17-.43v-16.5Z"/><path class="cls-4" d="M1553.69,167.15v-2.53h6.55l.18,2.06a5.36,5.36,0,0,1,2-1.73,6,6,0,0,1,2.78-.62,5.36,5.36,0,0,1,2.73.67,4.12,4.12,0,0,1,1.72,2,5.55,5.55,0,0,1,2-2,5.67,5.67,0,0,1,2.88-.71,4.94,4.94,0,0,1,3.87,1.59,7.11,7.11,0,0,1,1.41,4.83v6.47l2.16.43v2.51h-8.56v-2.51l1.93-.43v-6.48a3.74,3.74,0,0,0-.61-2.46,2.36,2.36,0,0,0-1.83-.69,3.29,3.29,0,0,0-1.64.4,2.86,2.86,0,0,0-1.11,1.1c0,.18,0,.34,0,.47s0,.26,0,.39v7.27l1.8.43v2.51h-8.07v-2.51l1.81-.43v-6.48a3.72,3.72,0,0,0-.62-2.43,2.26,2.26,0,0,0-1.83-.72,3.58,3.58,0,0,0-1.59.33,3,3,0,0,0-1.13.91v8.39l1.93.43v2.51h-8.55v-2.51l2.16-.43v-9.64Z"/><path class="cls-4" d="M1591,177.65l2.16-.43v-9.64l-2.39-.43v-2.53h6.86v12.6l2.15.43v2.51H1591Zm6.63-16.75h-4.47v-3.14h4.47Z"/><path class="cls-4" d="M1601,177.65l2.15-.43v-9.64l-2.38-.43v-2.53h6.55l.2,2.23a5.87,5.87,0,0,1,2-1.85,5.62,5.62,0,0,1,2.72-.67,5.19,5.19,0,0,1,3.92,1.48,6.55,6.55,0,0,1,1.41,4.64v6.77l2.15.43v2.51h-8.56v-2.51l1.92-.43v-6.75a3,3,0,0,0-.67-2.22,2.81,2.81,0,0,0-2-.66,3.76,3.76,0,0,0-1.6.34,3.34,3.34,0,0,0-1.18,1v8.33l1.81.43v2.51H1601Z"/><path class="cls-4" d="M1634.66,170h-3l-.48-1.93a3.81,3.81,0,0,0-1.16-.58,4.93,4.93,0,0,0-1.54-.23,3.11,3.11,0,0,0-1.86.5,1.47,1.47,0,0,0-.69,1.24,1.38,1.38,0,0,0,.65,1.17,7.41,7.41,0,0,0,2.64.83,11.22,11.22,0,0,1,4.57,1.68,3.62,3.62,0,0,1,1.48,3.07,4,4,0,0,1-1.92,3.42,8.7,8.7,0,0,1-5.06,1.33,11.25,11.25,0,0,1-3.52-.52,9.07,9.07,0,0,1-2.84-1.5l0-3.49H1625l.61,2a2.62,2.62,0,0,0,1.09.47,6.76,6.76,0,0,0,1.44.15,3.78,3.78,0,0,0,2.07-.46,1.42,1.42,0,0,0,.72-1.25,1.43,1.43,0,0,0-.72-1.19,7.64,7.64,0,0,0-2.66-.89,11,11,0,0,1-4.42-1.66,3.52,3.52,0,0,1-1.49-3,4.22,4.22,0,0,1,1.72-3.37,7.49,7.49,0,0,1,4.88-1.42,13.6,13.6,0,0,1,3.66.49,7.9,7.9,0,0,1,2.7,1.25Z"/><path class="cls-4" d="M1643.88,160.82v3.8h2.91v2.95h-2.91v7.91a1.78,1.78,0,0,0,.4,1.29,1.47,1.47,0,0,0,1.07.39,6.44,6.44,0,0,0,.81,0,6.35,6.35,0,0,0,.77-.12l.39,3a12.14,12.14,0,0,1-1.49.33,11.3,11.3,0,0,1-1.59.1,5,5,0,0,1-3.57-1.19,5,5,0,0,1-1.25-3.78v-7.92H1637v-2.95h2.43v-3.8Z"/><path class="cls-4" d="M1659.54,180.16a7,7,0,0,1-.32-.8,5.8,5.8,0,0,1-.21-.82,6.13,6.13,0,0,1-1.94,1.39,6,6,0,0,1-2.61.53,5.68,5.68,0,0,1-3.87-1.24,4.24,4.24,0,0,1-1.44-3.38,3.8,3.8,0,0,1,1.87-3.38,10.36,10.36,0,0,1,5.49-1.19h2.28v-1.52a2.21,2.21,0,0,0-.69-1.74,3,3,0,0,0-2-.62,5.11,5.11,0,0,0-1.36.17,3.66,3.66,0,0,0-1,.39l-.29,1.67h-3.38l0-3.45a13,13,0,0,1,2.81-1.3,10.68,10.68,0,0,1,3.46-.54,8.25,8.25,0,0,1,5,1.42,4.71,4.71,0,0,1,1.92,4v6.42c0,.24,0,.46,0,.67a4.07,4.07,0,0,0,0,.61l1.37.17v2.51Zm-3.87-2.8a4.17,4.17,0,0,0,1.84-.41,3.33,3.33,0,0,0,1.28-1v-2.37h-2.28a3.24,3.24,0,0,0-2.16.63,1.92,1.92,0,0,0-.74,1.5,1.5,1.5,0,0,0,.55,1.24A2.34,2.34,0,0,0,1655.67,177.36Z"/><path class="cls-4" d="M1665.75,160.29v-2.53h6.86v19.46l2.16.43v2.51H1666v-2.51l2.16-.43v-16.5Z"/><path class="cls-4" d="M1675.75,160.29v-2.53h6.87v19.46l2.16.43v2.51H1676v-2.51l2.16-.43v-16.5Z"/><path class="cls-4" d="M1525.09,212.54a2.76,2.76,0,0,0,1.91-.65,2.26,2.26,0,0,0,.72-1.75h4l0,.09a4.71,4.71,0,0,1-1.88,3.94,8.36,8.36,0,0,1-10.56-.61,8,8,0,0,1-2-5.64v-.44a8,8,0,0,1,2.06-5.64,7.68,7.68,0,0,1,5.88-2.21,10.88,10.88,0,0,1,3.6.56,7.12,7.12,0,0,1,2.65,1.58l.06,4.15H1528l-.73-2.43a3,3,0,0,0-.83-.45,3.25,3.25,0,0,0-1.12-.18,2.87,2.87,0,0,0-2.68,1.29,6.36,6.36,0,0,0-.78,3.33v.44a6.79,6.79,0,0,0,.72,3.35A2.65,2.65,0,0,0,1525.09,212.54Z"/><path class="cls-4" d="M1541.62,212.54a2.79,2.79,0,0,0,1.92-.65,2.26,2.26,0,0,0,.72-1.75h4l0,.09a4.72,4.72,0,0,1-1.89,3.94,8.36,8.36,0,0,1-10.56-.61,8.09,8.09,0,0,1-2-5.64v-.44a7.94,7.94,0,0,1,2.06-5.64,7.64,7.64,0,0,1,5.87-2.21,11,11,0,0,1,3.61.56,7.2,7.2,0,0,1,2.65,1.58l.06,4.15h-3.63l-.74-2.43a2.84,2.84,0,0,0-.83-.45,3.21,3.21,0,0,0-1.12-.18,2.88,2.88,0,0,0-2.68,1.29,6.36,6.36,0,0,0-.78,3.33v.44a6.79,6.79,0,0,0,.72,3.35A2.65,2.65,0,0,0,1541.62,212.54Z"/><path class="cls-4" d="M1550.37,207.54a8,8,0,0,1,2.08-5.69,7.45,7.45,0,0,1,5.73-2.22,7.55,7.55,0,0,1,5.76,2.21,8,8,0,0,1,2.07,5.7v.3a8,8,0,0,1-2.07,5.71,8.57,8.57,0,0,1-11.49,0,8,8,0,0,1-2.08-5.71Zm4.47.3a6.4,6.4,0,0,0,.8,3.41,3.18,3.18,0,0,0,5.11,0,6.35,6.35,0,0,0,.8-3.41v-.3a6.3,6.3,0,0,0-.81-3.37,2.79,2.79,0,0,0-2.56-1.31,2.76,2.76,0,0,0-2.54,1.31,6.39,6.39,0,0,0-.8,3.37Z"/><path class="cls-4" d="M1567.71,212.94l2.15-.43v-9.63l-2.38-.44v-2.52H1574l.2,2.22a6,6,0,0,1,2-1.85,5.59,5.59,0,0,1,2.72-.66,5.15,5.15,0,0,1,3.92,1.48,6.52,6.52,0,0,1,1.41,4.64v6.76l2.14.43v2.52h-8.55v-2.52l1.92-.43v-6.75a3,3,0,0,0-.68-2.22,2.81,2.81,0,0,0-2-.65,3.58,3.58,0,0,0-1.6.34,3.21,3.21,0,0,0-1.18,1v8.33l1.81.43v2.52h-8.43Z"/><path class="cls-4" d="M1594.48,196.11v3.81h2.91v2.94h-2.91v7.91a1.79,1.79,0,0,0,.4,1.3,1.5,1.5,0,0,0,1.07.38q.46,0,.81,0l.77-.12.39,3a12.06,12.06,0,0,1-1.49.32,11.24,11.24,0,0,1-1.59.11,5,5,0,0,1-3.57-1.2,5,5,0,0,1-1.25-3.77v-7.93h-2.43v-2.94H1590v-3.81Z"/><path class="cls-4" d="M1610.14,215.46a7.85,7.85,0,0,1-.32-.8,6.31,6.31,0,0,1-.21-.83,6,6,0,0,1-4.55,1.93,5.68,5.68,0,0,1-3.87-1.25,4.21,4.21,0,0,1-1.44-3.38,3.79,3.79,0,0,1,1.87-3.37,10.27,10.27,0,0,1,5.49-1.19h2.28V205a2.2,2.2,0,0,0-.69-1.73,2.93,2.93,0,0,0-2-.62,5.13,5.13,0,0,0-1.36.16,3.34,3.34,0,0,0-1,.4l-.3,1.66h-3.37l0-3.44a12.57,12.57,0,0,1,2.81-1.31,11,11,0,0,1,3.46-.53,8.25,8.25,0,0,1,5,1.41,4.72,4.72,0,0,1,1.92,4v6.42c0,.24,0,.47,0,.68a3.83,3.83,0,0,0,0,.6l1.37.17v2.52Zm-3.87-2.81a4.17,4.17,0,0,0,1.84-.4,3.53,3.53,0,0,0,1.28-1v-2.37h-2.28a3.29,3.29,0,0,0-2.16.62,1.92,1.92,0,0,0-.74,1.5,1.5,1.5,0,0,0,.55,1.24A2.28,2.28,0,0,0,1606.27,212.65Z"/><path class="cls-4" d="M1616.69,212.94l2.16-.43v-9.63l-2.39-.44v-2.52h6.86v12.59l2.14.43v2.52h-8.77Zm6.63-16.74h-4.47v-3.15h4.47Z"/><path class="cls-4" d="M1626.69,212.94l2.15-.43v-9.63l-2.38-.44v-2.52H1633l.2,2.22a5.91,5.91,0,0,1,2-1.85,5.57,5.57,0,0,1,2.71-.66,5.16,5.16,0,0,1,3.93,1.48,6.52,6.52,0,0,1,1.41,4.64v6.76l2.14.43v2.52h-8.55v-2.52l1.92-.43v-6.75a3,3,0,0,0-.68-2.22,2.85,2.85,0,0,0-2-.65,3.57,3.57,0,0,0-1.59.34,3.21,3.21,0,0,0-1.18,1v8.33l1.81.43v2.52h-8.43Z"/><path class="cls-4" d="M1654.64,215.76a7.71,7.71,0,0,1-5.73-2.16,7.42,7.42,0,0,1-2.15-5.47v-.57a8.17,8.17,0,0,1,2-5.7,7.94,7.94,0,0,1,10.66-.34,7,7,0,0,1,1.85,5.13v2.29h-9.89l0,.08a3.9,3.9,0,0,0,1.09,2.53,3.54,3.54,0,0,0,2.64,1,9,9,0,0,0,2.47-.28,12.37,12.37,0,0,0,2.15-.88l1.21,2.58a9.16,9.16,0,0,1-2.66,1.28A12.17,12.17,0,0,1,1654.64,215.76Zm-.4-12.9a2.39,2.39,0,0,0-2,.89,4.42,4.42,0,0,0-.89,2.34l0,.07h5.48v-.37a3.23,3.23,0,0,0-.66-2.13A2.5,2.5,0,0,0,1654.24,202.86Z"/><path class="cls-4" d="M1663.76,212.94l2.14-.43v-9.63l-2.37-.44v-2.52h6.54l.2,2.27a5,5,0,0,1,1.5-1.89,3.49,3.49,0,0,1,2.13-.67,6.57,6.57,0,0,1,.74.05,4,4,0,0,1,.65.12l-.47,3.82-1.84,0a3.29,3.29,0,0,0-1.62.36,2.35,2.35,0,0,0-1,1v7.55l2.14.43v2.52h-8.76Z"/><path class="cls-4" d="M1522.08,247.83a2.73,2.73,0,0,0,1.92-.65,2.23,2.23,0,0,0,.72-1.74h4l0,.08a4.73,4.73,0,0,1-1.88,3.94,7.43,7.43,0,0,1-4.85,1.59,7.33,7.33,0,0,1-5.71-2.2,8,8,0,0,1-2-5.64v-.43a8,8,0,0,1,2.06-5.65,7.65,7.65,0,0,1,5.88-2.21,10.88,10.88,0,0,1,3.6.56,7.34,7.34,0,0,1,2.65,1.58l.06,4.15H1525l-.74-2.42a2.7,2.7,0,0,0-.82-.46,3.25,3.25,0,0,0-1.12-.18,2.86,2.86,0,0,0-2.68,1.3,6.36,6.36,0,0,0-.79,3.33v.43a6.74,6.74,0,0,0,.72,3.35A2.67,2.67,0,0,0,1522.08,247.83Z"/><path class="cls-4" d="M1530.83,242.84a8,8,0,0,1,2.08-5.7,8.56,8.56,0,0,1,11.49,0,8,8,0,0,1,2.08,5.71v.3a8,8,0,0,1-2.08,5.71,8.6,8.6,0,0,1-11.49,0,8,8,0,0,1-2.08-5.71Zm4.48.3a6.45,6.45,0,0,0,.79,3.41,2.79,2.79,0,0,0,2.58,1.28,2.76,2.76,0,0,0,2.53-1.29,6.34,6.34,0,0,0,.81-3.4v-.3a6.34,6.34,0,0,0-.81-3.38,2.81,2.81,0,0,0-2.56-1.31,2.76,2.76,0,0,0-2.55,1.31,6.43,6.43,0,0,0-.79,3.38Z"/><path class="cls-4" d="M1547.9,237.74v-2.53h6.55l.18,2a5.55,5.55,0,0,1,2-1.73,6.15,6.15,0,0,1,2.78-.61,5.36,5.36,0,0,1,2.73.66,4.18,4.18,0,0,1,1.71,2,5.63,5.63,0,0,1,2-2,5.71,5.71,0,0,1,2.89-.71,4.9,4.9,0,0,1,3.86,1.59,7.06,7.06,0,0,1,1.42,4.83v6.46l2.16.44v2.51h-8.56v-2.51l1.93-.44v-6.47a3.74,3.74,0,0,0-.62-2.46,2.29,2.29,0,0,0-1.82-.69,3.25,3.25,0,0,0-1.65.4,3,3,0,0,0-1.11,1.1c0,.18,0,.33,0,.46s0,.26,0,.4v7.26l1.81.44v2.51h-8.07v-2.51l1.81-.44v-6.47a3.77,3.77,0,0,0-.62-2.44,2.31,2.31,0,0,0-1.84-.71,3.57,3.57,0,0,0-1.58.33,3,3,0,0,0-1.13.91v8.38l1.93.44v2.51h-8.55v-2.51l2.16-.44v-9.63Z"/><path class="cls-4" d="M1577.28,237.74v-2.53h6.49L1584,237a5.09,5.09,0,0,1,1.76-1.55,4.93,4.93,0,0,1,2.39-.55,5.63,5.63,0,0,1,4.78,2.26,9.61,9.61,0,0,1,1.7,5.93v.3a8.52,8.52,0,0,1-1.7,5.54,5.77,5.77,0,0,1-4.75,2.1,5.6,5.6,0,0,1-2.31-.45,4.68,4.68,0,0,1-1.73-1.33v4.49l2.16.44v2.52h-8.78V254.2l2.16-.44V238.17Zm12.87,5.37a7.11,7.11,0,0,0-.78-3.56,2.59,2.59,0,0,0-2.4-1.37,3.55,3.55,0,0,0-1.72.39,2.85,2.85,0,0,0-1.12,1.11v6.8a2.67,2.67,0,0,0,1.12,1,4,4,0,0,0,1.76.34,2.61,2.61,0,0,0,2.38-1.19,6,6,0,0,0,.76-3.23Z"/><path class="cls-4" d="M1608.21,248.78a5.39,5.39,0,0,1-2,1.68,5.89,5.89,0,0,1-2.67.59,5.37,5.37,0,0,1-4.11-1.57,6.93,6.93,0,0,1-1.48-4.89v-6.42l-1.83-.43v-2.53h6.3v9.41a3.8,3.8,0,0,0,.61,2.43,2.19,2.19,0,0,0,1.8.74,4.87,4.87,0,0,0,1.83-.32,3.22,3.22,0,0,0,1.26-.93v-8.37l-2-.43v-2.53h6.44V247.8l2,.44v2.51h-5.93Z"/><path class="cls-4" d="M1622.8,231.4v3.81h2.91v2.94h-2.91v7.92a1.73,1.73,0,0,0,.4,1.29,1.45,1.45,0,0,0,1.07.39,6.17,6.17,0,0,0,.8,0,6.81,6.81,0,0,0,.78-.12l.38,3a10.81,10.81,0,0,1-3.08.43,5,5,0,0,1-3.56-1.19,5,5,0,0,1-1.25-3.78v-7.93h-2.44v-2.94h2.44V231.4Z"/><path class="cls-4" d="M1635.84,251.05a7.75,7.75,0,0,1-5.73-2.15,7.45,7.45,0,0,1-2.15-5.48v-.57a8.17,8.17,0,0,1,2-5.7,7,7,0,0,1,12.51,4.8v2.28h-9.89l0,.09a3.89,3.89,0,0,0,1.09,2.52,3.54,3.54,0,0,0,2.64,1,9,9,0,0,0,2.47-.28,11.63,11.63,0,0,0,2.15-.88l1.21,2.59a9.15,9.15,0,0,1-2.66,1.27A11.86,11.86,0,0,1,1635.84,251.05Zm-.4-12.9a2.39,2.39,0,0,0-2,.89,4.48,4.48,0,0,0-.89,2.35l.05.07h5.48v-.38a3.23,3.23,0,0,0-.66-2.13A2.5,2.5,0,0,0,1635.44,238.15Z"/><path class="cls-4" d="M1659,253.42h-14v-2.67h14Z"/><path class="cls-4" d="M1660.91,248.24l1.55-.23,4.5-5.12-4.35-4.91-1.55-.24v-2.53h7.46v2.43l-1.51.17,2.51,3,2.47-3-1.55-.17v-2.43h7.49v2.53l-1.5.24-4.26,4.91,4.49,5.12,1.56.23v2.51h-7.58v-2.41l1.51-.18-2.57-3.13-2.62,3.15,1.33.16v2.41h-7.38Z"/><path class="cls-4" d="M2015.4,167.15l-1.67.2-3.46,12.81h-3.74l-3.08-9.25h-.09l-3.08,9.25h-3.73l-3.47-12.81-1.67-.2v-2.53h7.5v2.53l-1.76.32,1.56,7.1h.1l3.09-9.95h3l3.13,10h.09l1.55-7.12-1.78-.33v-2.53h7.51Z"/><path class="cls-4" d="M2027.49,180.16a7,7,0,0,1-.32-.8,7.62,7.62,0,0,1-.22-.82,6,6,0,0,1-4.55,1.92,5.71,5.71,0,0,1-3.87-1.24,4.27,4.27,0,0,1-1.43-3.38,3.78,3.78,0,0,1,1.87-3.38,10.34,10.34,0,0,1,5.49-1.19h2.28v-1.52a2.21,2.21,0,0,0-.69-1.74,3,3,0,0,0-2-.62,5.11,5.11,0,0,0-1.36.17,3.9,3.9,0,0,0-1,.39l-.29,1.67H2018l0-3.45a12.8,12.8,0,0,1,2.81-1.3,10.66,10.66,0,0,1,3.45-.54,8.28,8.28,0,0,1,5,1.42,4.71,4.71,0,0,1,1.92,4v6.42c0,.24,0,.46,0,.67a4.07,4.07,0,0,0,0,.61l1.36.17v2.51Zm-3.88-2.8a4.11,4.11,0,0,0,1.84-.41,3.45,3.45,0,0,0,1.29-1v-2.37h-2.28a3.24,3.24,0,0,0-2.16.63,1.92,1.92,0,0,0-.74,1.5,1.52,1.52,0,0,0,.54,1.24A2.38,2.38,0,0,0,2023.61,177.36Z"/><path class="cls-4" d="M2034,177.65l2.16-.43v-9.64l-2.39-.43v-2.53h6.87v12.6l2.14.43v2.51H2034Zm6.64-16.75h-4.48v-3.14h4.48Z"/><path class="cls-4" d="M2050.89,160.82v3.8h2.91v2.95h-2.91v7.91a1.73,1.73,0,0,0,.4,1.29,1.45,1.45,0,0,0,1.07.39,6.27,6.27,0,0,0,.8,0,6.81,6.81,0,0,0,.78-.12l.38,3a11.74,11.74,0,0,1-1.49.33,11.3,11.3,0,0,1-1.59.1,4.93,4.93,0,0,1-3.56-1.19,5,5,0,0,1-1.25-3.78v-7.92H2044v-2.95h2.44v-3.8Z"/><path class="cls-4" d="M2063.93,177.65l2.16-.43v-9.65h-2.47v-2.95h2.47V162.9a5.06,5.06,0,0,1,1.61-4,6.63,6.63,0,0,1,4.52-1.41,7.59,7.59,0,0,1,1.15.08c.4.05.83.12,1.3.22l-.38,3.11-.72-.1c-.23,0-.5,0-.8,0a2.24,2.24,0,0,0-1.65.56,2.19,2.19,0,0,0-.56,1.61v1.72h3.3v2.95h-3.3v9.65l2.16.43v2.51h-8.79Z"/><path class="cls-4" d="M2075.36,172.25a8,8,0,0,1,2.07-5.7,8.56,8.56,0,0,1,11.5,0,8,8,0,0,1,2.07,5.7v.3a8,8,0,0,1-2.07,5.71,8.61,8.61,0,0,1-11.5,0,8,8,0,0,1-2.07-5.71Zm4.47.3a6.42,6.42,0,0,0,.8,3.41,2.79,2.79,0,0,0,2.57,1.29,2.76,2.76,0,0,0,2.54-1.3,6.32,6.32,0,0,0,.8-3.4v-.3a6.34,6.34,0,0,0-.81-3.38,2.78,2.78,0,0,0-2.56-1.3,2.75,2.75,0,0,0-2.54,1.3,6.43,6.43,0,0,0-.8,3.38Z"/><path class="cls-4" d="M2093.29,177.65l2.14-.43v-9.64l-2.37-.43v-2.53h6.54l.2,2.27a5,5,0,0,1,1.5-1.88,3.5,3.5,0,0,1,2.13-.68,4.91,4.91,0,0,1,.74.06,4,4,0,0,1,.65.12l-.47,3.82-1.84-.05a3.33,3.33,0,0,0-1.63.36,2.47,2.47,0,0,0-1,1v7.56l2.15.43v2.51h-8.76Z"/><path class="cls-4" d="M1955.82,212.54a2.75,2.75,0,0,0,1.91-.65,2.26,2.26,0,0,0,.72-1.75h4l0,.09a4.69,4.69,0,0,1-1.88,3.94,8.36,8.36,0,0,1-10.56-.61,8,8,0,0,1-2-5.64v-.44a7.94,7.94,0,0,1,2.06-5.64,7.64,7.64,0,0,1,5.87-2.21,10.88,10.88,0,0,1,3.6.56,7.16,7.16,0,0,1,2.66,1.58l.06,4.15h-3.64l-.73-2.43a3,3,0,0,0-.83-.45,3.25,3.25,0,0,0-1.12-.18,2.88,2.88,0,0,0-2.68,1.29,6.36,6.36,0,0,0-.78,3.33v.44a6.79,6.79,0,0,0,.72,3.35A2.65,2.65,0,0,0,1955.82,212.54Z"/><path class="cls-4" d="M1964.57,207.54a8,8,0,0,1,2.07-5.69,8.57,8.57,0,0,1,11.5,0,8,8,0,0,1,2.07,5.7v.3a8,8,0,0,1-2.07,5.71,8.59,8.59,0,0,1-11.5,0,8,8,0,0,1-2.07-5.71Zm4.47.3a6.4,6.4,0,0,0,.8,3.41,3.18,3.18,0,0,0,5.11,0,6.35,6.35,0,0,0,.8-3.41v-.3a6.3,6.3,0,0,0-.81-3.37,2.79,2.79,0,0,0-2.56-1.31,2.76,2.76,0,0,0-2.54,1.31,6.39,6.39,0,0,0-.8,3.37Z"/><path class="cls-4" d="M1981.64,202.44v-2.52h6.54l.18,2.05a5.45,5.45,0,0,1,2-1.73,6.05,6.05,0,0,1,2.78-.61,5.31,5.31,0,0,1,2.73.66,4.15,4.15,0,0,1,1.72,2,5.49,5.49,0,0,1,2-2,5.69,5.69,0,0,1,2.88-.7,4.92,4.92,0,0,1,3.87,1.59,7.07,7.07,0,0,1,1.42,4.83v6.46l2.16.43v2.52h-8.57v-2.52l1.93-.43V206a3.73,3.73,0,0,0-.61-2.45,2.32,2.32,0,0,0-1.82-.69,3.3,3.3,0,0,0-1.65.39,2.93,2.93,0,0,0-1.11,1.1c0,.18,0,.34,0,.47s0,.26,0,.39v7.27l1.81.43v2.52h-8.08v-2.52l1.81-.43V206a3.72,3.72,0,0,0-.61-2.43,2.31,2.31,0,0,0-1.84-.71,3.79,3.79,0,0,0-1.59.32,3,3,0,0,0-1.12.91v8.39l1.93.43v2.52h-8.55v-2.52l2.16-.43v-9.63Z"/><path class="cls-4" d="M2011,202.44v-2.52h6.5l.21,1.81a5.32,5.32,0,0,1,1.76-1.56,5.09,5.09,0,0,1,2.4-.54,5.66,5.66,0,0,1,4.78,2.25,9.64,9.64,0,0,1,1.7,5.93v.31a8.56,8.56,0,0,1-1.7,5.54,5.78,5.78,0,0,1-4.75,2.1,5.52,5.52,0,0,1-2.32-.46,4.74,4.74,0,0,1-1.73-1.32v4.49l2.16.43v2.53h-8.78V218.9l2.16-.43V202.88Zm12.87,5.37a7.14,7.14,0,0,0-.78-3.56,2.57,2.57,0,0,0-2.39-1.36,3.53,3.53,0,0,0-1.72.39,2.85,2.85,0,0,0-1.13,1.1v6.81a2.76,2.76,0,0,0,1.13,1,4.13,4.13,0,0,0,1.75.34,2.62,2.62,0,0,0,2.38-1.19,5.94,5.94,0,0,0,.76-3.23Z"/><path class="cls-4" d="M2042,213.49a5.48,5.48,0,0,1-2,1.68,5.91,5.91,0,0,1-2.68.59,5.37,5.37,0,0,1-4.1-1.58q-1.48-1.56-1.49-4.89v-6.41l-1.82-.44v-2.52h6.3v9.4a3.92,3.92,0,0,0,.6,2.44,2.2,2.2,0,0,0,1.8.74,4.6,4.6,0,0,0,1.83-.33,3.14,3.14,0,0,0,1.27-.92v-8.37l-2-.44v-2.52h6.43v12.59l2,.43v2.52h-5.93Z"/><path class="cls-4" d="M2056.54,196.11v3.81h2.91v2.94h-2.91v7.91a1.79,1.79,0,0,0,.39,1.3,1.53,1.53,0,0,0,1.08.38c.3,0,.57,0,.8,0l.77-.12.39,3a11.68,11.68,0,0,1-1.49.32,11.24,11.24,0,0,1-1.59.11,4.32,4.32,0,0,1-4.81-5v-7.93h-2.44v-2.94h2.44v-3.81Z"/><path class="cls-4" d="M2069.57,215.76a7.71,7.71,0,0,1-5.73-2.16,7.42,7.42,0,0,1-2.14-5.47v-.57a8.17,8.17,0,0,1,2-5.7,7.94,7.94,0,0,1,10.66-.34,7.06,7.06,0,0,1,1.85,5.13v2.29h-9.9l0,.08a3.91,3.91,0,0,0,1.1,2.53,3.52,3.52,0,0,0,2.64,1,9.08,9.08,0,0,0,2.47-.28,12.3,12.3,0,0,0,2.14-.88l1.21,2.58a9,9,0,0,1-2.66,1.28A12.12,12.12,0,0,1,2069.57,215.76Zm-.39-12.9a2.42,2.42,0,0,0-2,.89,4.41,4.41,0,0,0-.88,2.34l0,.07h5.49v-.37a3.23,3.23,0,0,0-.67-2.13A2.48,2.48,0,0,0,2069.18,202.86Z"/><path class="cls-4" d="M2092.74,218.13H2078.8v-2.67h13.94Z"/><path class="cls-4" d="M2094.64,212.94l1.55-.23,4.51-5.11-4.36-4.91-1.54-.25v-2.52h7.46v2.42l-1.52.18,2.51,3,2.47-3-1.55-.18v-2.42h7.5v2.52l-1.51.25-4.26,4.91,4.49,5.11,1.57.23v2.52h-7.59V213l1.52-.17-2.57-3.13-2.62,3.14,1.33.16v2.42h-7.39Z"/><path class="cls-4" d="M2127.66,196.11v3.81h2.91v2.94h-2.91v7.91a1.79,1.79,0,0,0,.4,1.3,1.5,1.5,0,0,0,1.07.38q.47,0,.81,0l.77-.12.39,3a12.06,12.06,0,0,1-1.49.32,11.24,11.24,0,0,1-1.59.11,5,5,0,0,1-3.57-1.2,5,5,0,0,1-1.25-3.77v-7.93h-2.43v-2.94h2.43v-3.81Z"/><path class="cls-4" d="M2132.31,207.54a8,8,0,0,1,2.07-5.69,8.57,8.57,0,0,1,11.5,0,8,8,0,0,1,2.07,5.7v.3a8,8,0,0,1-2.07,5.71,8.59,8.59,0,0,1-11.5,0,8,8,0,0,1-2.07-5.71Zm4.47.3a6.4,6.4,0,0,0,.8,3.41,3.18,3.18,0,0,0,5.11,0,6.45,6.45,0,0,0,.8-3.41v-.3a6.3,6.3,0,0,0-.81-3.37,2.79,2.79,0,0,0-2.56-1.31,2.76,2.76,0,0,0-2.54,1.31,6.39,6.39,0,0,0-.8,3.37Z"/><path class="cls-4" d="M1982.92,231.4v3.81h2.92v2.94h-2.92v7.92a1.78,1.78,0,0,0,.4,1.29,1.49,1.49,0,0,0,1.08.39,7.55,7.55,0,0,0,1.57-.16l.39,3a11.68,11.68,0,0,1-1.49.32,11.24,11.24,0,0,1-1.59.11,5,5,0,0,1-3.57-1.19,5,5,0,0,1-1.25-3.78v-7.93H1976v-2.94h2.43V231.4Z"/><path class="cls-4" d="M1996,251.05a7.75,7.75,0,0,1-5.73-2.15,7.44,7.44,0,0,1-2.14-5.48v-.57a8.12,8.12,0,0,1,2-5.7,7.93,7.93,0,0,1,10.66-.33,7,7,0,0,1,1.85,5.13v2.28h-9.9l0,.09a3.9,3.9,0,0,0,1.1,2.52,3.52,3.52,0,0,0,2.64,1,9.08,9.08,0,0,0,2.47-.28,11.29,11.29,0,0,0,2.14-.88l1.21,2.59a9,9,0,0,1-2.66,1.27A11.81,11.81,0,0,1,1996,251.05Zm-.39-12.9a2.41,2.41,0,0,0-2,.89,4.48,4.48,0,0,0-.88,2.35l0,.07h5.49v-.38a3.18,3.18,0,0,0-.67-2.13A2.48,2.48,0,0,0,1995.57,238.15Z"/><path class="cls-4" d="M2005.08,248.24l2.15-.44v-9.63l-2.38-.43v-2.53h6.54l.2,2.27a4.86,4.86,0,0,1,1.51-1.88,3.49,3.49,0,0,1,2.12-.68,6.59,6.59,0,0,1,.75.05,5.29,5.29,0,0,1,.65.13l-.48,3.82-1.83,0a3.31,3.31,0,0,0-1.63.36,2.41,2.41,0,0,0-1,1v7.55l2.15.44v2.51h-8.77Z"/><path class="cls-4" d="M2017.43,237.74v-2.53H2024l.19,2a5.55,5.55,0,0,1,2-1.73,6.15,6.15,0,0,1,2.78-.61,5.36,5.36,0,0,1,2.73.66,4.18,4.18,0,0,1,1.71,2,5.63,5.63,0,0,1,2-2,5.69,5.69,0,0,1,2.88-.71,4.91,4.91,0,0,1,3.87,1.59,7.06,7.06,0,0,1,1.42,4.83v6.46l2.16.44v2.51h-8.56v-2.51l1.93-.44v-6.47a3.74,3.74,0,0,0-.62-2.46,2.3,2.3,0,0,0-1.82-.69,3.25,3.25,0,0,0-1.65.4,3,3,0,0,0-1.11,1.1c0,.18,0,.33,0,.46s0,.26,0,.4v7.26l1.81.44v2.51h-8.07v-2.51l1.8-.44v-6.47a3.77,3.77,0,0,0-.61-2.44,2.31,2.31,0,0,0-1.84-.71,3.57,3.57,0,0,0-1.58.33,3,3,0,0,0-1.13.91v8.38l1.93.44v2.51h-8.55v-2.51l2.16-.44v-9.63Z"/><path class="cls-4" d="M2047,248.24l2.16-.44v-9.63l-2.39-.43v-2.53h6.87V247.8l2.14.44v2.51H2047Zm6.64-16.75h-4.48v-3.14h4.48Z"/><path class="cls-4" d="M2057,248.24l2.14-.44v-9.63l-2.37-.43v-2.53h6.54l.2,2.23a5.84,5.84,0,0,1,2-1.86,5.57,5.57,0,0,1,2.71-.66,5.17,5.17,0,0,1,3.92,1.48,6.54,6.54,0,0,1,1.41,4.64v6.76l2.15.44v2.51h-8.55v-2.51l1.92-.44v-6.74a3,3,0,0,0-.68-2.22,2.81,2.81,0,0,0-2-.66,3.71,3.71,0,0,0-1.59.34,3.23,3.23,0,0,0-1.18,1v8.32l1.81.44v2.51H2057Z"/><path class="cls-4" d="M2087.73,250.75a7.85,7.85,0,0,1-.32-.8,6.17,6.17,0,0,1-.21-.82,6,6,0,0,1-4.56,1.92,5.67,5.67,0,0,1-3.86-1.24,4.24,4.24,0,0,1-1.44-3.38,3.8,3.8,0,0,1,1.87-3.38,10.36,10.36,0,0,1,5.49-1.19H2087v-1.52a2.21,2.21,0,0,0-.69-1.74,3,3,0,0,0-2-.62,5.11,5.11,0,0,0-1.36.17,3.9,3.9,0,0,0-1,.39l-.29,1.67h-3.37l0-3.45a12.81,12.81,0,0,1,2.81-1.31,10.94,10.94,0,0,1,3.45-.53,8.2,8.2,0,0,1,5,1.42,4.7,4.7,0,0,1,1.92,4v6.42c0,.23,0,.46,0,.67a3.83,3.83,0,0,0,.05.6l1.37.18v2.51Zm-3.87-2.8a4.1,4.1,0,0,0,1.83-.41,3.46,3.46,0,0,0,1.29-1v-2.37h-2.28a3.24,3.24,0,0,0-2.16.63,1.89,1.89,0,0,0-.74,1.5,1.48,1.48,0,0,0,.55,1.23A2.29,2.29,0,0,0,2083.86,248Z"/><path class="cls-4" d="M2099.79,231.4v3.81h2.91v2.94h-2.91v7.92a1.73,1.73,0,0,0,.4,1.29,1.47,1.47,0,0,0,1.07.39,6.44,6.44,0,0,0,.81,0,6.66,6.66,0,0,0,.77-.12l.38,3a11.54,11.54,0,0,1-1.48.32,11.38,11.38,0,0,1-1.6.11,5,5,0,0,1-3.56-1.19,5,5,0,0,1-1.25-3.78v-7.93h-2.43v-2.94h2.43V231.4Z"/><path class="cls-4" d="M2112.83,251.05a7.75,7.75,0,0,1-5.73-2.15,7.44,7.44,0,0,1-2.14-5.48v-.57a8.16,8.16,0,0,1,2-5.7,7.06,7.06,0,0,1,12.52,4.8v2.28h-9.9l0,.09a3.89,3.89,0,0,0,1.09,2.52,3.54,3.54,0,0,0,2.64,1,9,9,0,0,0,2.47-.28,11.36,11.36,0,0,0,2.15-.88l1.21,2.59a9.15,9.15,0,0,1-2.66,1.27A11.86,11.86,0,0,1,2112.83,251.05Zm-.4-12.9a2.39,2.39,0,0,0-2,.89,4.48,4.48,0,0,0-.89,2.35l.05.07h5.48v-.38a3.23,3.23,0,0,0-.66-2.13A2.5,2.5,0,0,0,2112.43,238.15Z"/><line class="cls-2" x1="1797.53" y1="211.62" x2="1841.73" y2="211.62"/><polygon class="cls-3" points="1827.81 228.8 1824.95 225.72 1840.12 211.63 1824.95 197.53 1827.81 194.45 1846.28 211.63 1827.81 228.8"/><rect class="cls-1" x="505.66" y="130" width="363.36" height="149" rx="8"/><rect class="cls-1" x="1414.66" y="130" width="363.36" height="149" rx="8"/><rect class="cls-1" x="1866.66" y="130" width="363.36" height="149" rx="8"/></svg>