<svg id="Ebene_1" data-name="Ebene 1" xmlns="http://www.w3.org/2000/svg" viewBox="0 0 1369.74 268.15"><defs><style>.cls-1{fill:#306;}.cls-2,.cls-3{fill:none;stroke:#fc0;}.cls-2{stroke-miterlimit:10;stroke-width:8px;}.cls-3{stroke-linecap:round;stroke-linejoin:round;stroke-width:6px;}.cls-4{fill:#fc0;}</style></defs><path class="cls-1" d="M646.9,126.15a5.32,5.32,0,0,1-1.85,1.64,5.18,5.18,0,0,1-2.43.56,5.76,5.76,0,0,1-4.75-2.1,8.52,8.52,0,0,1-1.7-5.54v-.3a9.61,9.61,0,0,1,1.7-5.93,5.64,5.64,0,0,1,4.79-2.26,4.82,4.82,0,0,1,2.23.51,5.25,5.25,0,0,1,1.75,1.45V108.6l-2.39-.43v-2.52h6.86V125.1l2.15.43v2.52h-6Zm-6.25-5.44a6,6,0,0,0,.73,3.21,2.58,2.58,0,0,0,2.38,1.17,3.64,3.64,0,0,0,1.7-.37,3.13,3.13,0,0,0,1.18-1.08v-6.59a3.33,3.33,0,0,0-1.17-1.16,3.37,3.37,0,0,0-1.68-.41,2.54,2.54,0,0,0-2.39,1.37,7.35,7.35,0,0,0-.75,3.56Z"/><path class="cls-1" d="M654.68,120.14a8,8,0,0,1,2.08-5.7,8.56,8.56,0,0,1,11.49,0,8,8,0,0,1,2.08,5.71v.3a8,8,0,0,1-2.08,5.71,8.6,8.6,0,0,1-11.49,0,8,8,0,0,1-2.08-5.71Zm4.48.3a6.45,6.45,0,0,0,.79,3.41,2.82,2.82,0,0,0,2.58,1.28,2.76,2.76,0,0,0,2.53-1.29,6.34,6.34,0,0,0,.81-3.4v-.3a6.34,6.34,0,0,0-.81-3.38,3.15,3.15,0,0,0-5.11,0,6.43,6.43,0,0,0-.79,3.38Z"/><path class="cls-1" d="M680.06,125.13a2.72,2.72,0,0,0,1.91-.65,2.25,2.25,0,0,0,.72-1.74h4l0,.08a4.7,4.7,0,0,1-1.88,3.94,8.36,8.36,0,0,1-10.56-.61,8,8,0,0,1-2-5.64v-.43a8,8,0,0,1,2.06-5.65,7.64,7.64,0,0,1,5.87-2.21,10.88,10.88,0,0,1,3.6.56,7.17,7.17,0,0,1,2.65,1.58l.07,4.15H683l-.73-2.42a2.75,2.75,0,0,0-.83-.46,3.25,3.25,0,0,0-1.12-.18,2.87,2.87,0,0,0-2.68,1.3,6.36,6.36,0,0,0-.78,3.33v.43a6.74,6.74,0,0,0,.72,3.35A2.65,2.65,0,0,0,680.06,125.13Z"/><path class="cls-1" d="M688.33,108.17v-2.52h6.85v13h1l2.57-3.41L697.3,115v-2.53h8.15V115l-2,.41-3,3.85,4.18,5.9,1.7.33v2.52h-7.66v-2.52l.92-.14-2.54-3.85h-1.92v3.56l1.93.43v2.52h-8.55v-2.52l2.16-.43V108.6Z"/><path class="cls-1" d="M715.58,128.35a7.79,7.79,0,0,1-5.74-2.15,7.44,7.44,0,0,1-2.14-5.48v-.57a8.17,8.17,0,0,1,2-5.7,7.93,7.93,0,0,1,10.66-.33,7,7,0,0,1,1.85,5.12v2.29h-9.9l0,.08a3.91,3.91,0,0,0,1.1,2.53,3.54,3.54,0,0,0,2.64,1,9.08,9.08,0,0,0,2.47-.28,11.29,11.29,0,0,0,2.14-.88l1.21,2.59a9,9,0,0,1-2.66,1.27A11.79,11.79,0,0,1,715.58,128.35Zm-.4-12.9a2.39,2.39,0,0,0-2,.89,4.48,4.48,0,0,0-.89,2.35l0,.07h5.49v-.38a3.18,3.18,0,0,0-.67-2.13A2.47,2.47,0,0,0,715.18,115.45Z"/><path class="cls-1" d="M724.69,125.53l2.15-.43v-9.63l-2.38-.43v-2.53H731l.19,2.27a4.86,4.86,0,0,1,1.51-1.88,3.5,3.5,0,0,1,2.13-.68,6.57,6.57,0,0,1,.74,0,5.29,5.29,0,0,1,.65.13l-.47,3.81-1.84,0a3.31,3.31,0,0,0-1.63.36,2.41,2.41,0,0,0-1,1v7.55l2.15.43v2.52h-8.77Z"/><path class="cls-1" d="M664.68,156a8.7,8.7,0,0,1-1.65,5.56,5.75,5.75,0,0,1-4.78,2.08,5.43,5.43,0,0,1-2.53-.56,5,5,0,0,1-1.81-1.65l-.32,1.91h-3.86V143.9l-2.38-.43v-2.53h6.83v8.51a4.87,4.87,0,0,1,4-1.93,5.62,5.62,0,0,1,4.81,2.23,9.78,9.78,0,0,1,1.65,5.95Zm-4.46-.3a7.68,7.68,0,0,0-.71-3.59,2.53,2.53,0,0,0-2.43-1.33,3.45,3.45,0,0,0-1.76.41,2.92,2.92,0,0,0-1.14,1.17v6.56a2.75,2.75,0,0,0,1.15,1.09,3.84,3.84,0,0,0,1.78.37,2.59,2.59,0,0,0,2.42-1.14,6.29,6.29,0,0,0,.69-3.24Z"/><path class="cls-1" d="M678.35,161.37a5.51,5.51,0,0,1-2,1.69,5.89,5.89,0,0,1-2.67.58,5.37,5.37,0,0,1-4.11-1.57,6.93,6.93,0,0,1-1.49-4.89v-6.42l-1.82-.43V147.8h6.3v9.41a3.87,3.87,0,0,0,.6,2.43,2.19,2.19,0,0,0,1.8.74,4.61,4.61,0,0,0,1.83-.32,3.07,3.07,0,0,0,1.27-.93v-8.37l-2-.43V147.8h6.43v12.6l2,.43v2.51h-5.93Z"/><path class="cls-1" d="M686.19,160.83l2.16-.43v-9.64l-2.39-.43V147.8h6.87v12.6l2.14.43v2.51h-8.78Zm6.64-16.75h-4.48v-3.14h4.48Z"/><path class="cls-1" d="M696,143.47v-2.53h6.86V160.4l2.17.43v2.51h-8.8v-2.51l2.16-.43V143.9Z"/><path class="cls-1" d="M717.24,161.45a5.39,5.39,0,0,1-1.85,1.63,5.06,5.06,0,0,1-2.43.56,5.74,5.74,0,0,1-4.75-2.09,8.57,8.57,0,0,1-1.7-5.55v-.3a9.61,9.61,0,0,1,1.7-5.93,5.66,5.66,0,0,1,4.78-2.25,4.83,4.83,0,0,1,2.24.51,5.44,5.44,0,0,1,1.75,1.44V143.9l-2.39-.43v-2.53h6.86V160.4l2.15.43v2.51h-6ZM711,156a6.11,6.11,0,0,0,.72,3.21,2.6,2.6,0,0,0,2.39,1.17,3.64,3.64,0,0,0,1.7-.37,3.13,3.13,0,0,0,1.18-1.08v-6.59a3.17,3.17,0,0,0-2.85-1.56,2.52,2.52,0,0,0-2.39,1.36,7.38,7.38,0,0,0-.75,3.56Z"/><rect class="cls-2" x="505.87" y="59.07" width="360" height="149" rx="8"/><path class="cls-1" d="M1082.52,125.53l2.14-.43v-9.63l-2.37-.43v-2.53h6.54l.2,2.23a5.84,5.84,0,0,1,2-1.86,5.55,5.55,0,0,1,2.71-.66,5.19,5.19,0,0,1,3.92,1.48,6.54,6.54,0,0,1,1.41,4.64v6.76l2.15.43v2.52h-8.55v-2.52l1.91-.43v-6.74a3,3,0,0,0-.67-2.22,2.81,2.81,0,0,0-2-.66,3.71,3.71,0,0,0-1.59.34,3.06,3.06,0,0,0-1.18,1v8.32l1.8.43v2.52h-8.42Z"/><path class="cls-1" d="M1113.24,128.05a7.85,7.85,0,0,1-.32-.8,6.23,6.23,0,0,1-.22-.82,6,6,0,0,1-4.55,1.92,5.71,5.71,0,0,1-3.87-1.24,4.27,4.27,0,0,1-1.43-3.38,3.78,3.78,0,0,1,1.87-3.38,10.34,10.34,0,0,1,5.49-1.19h2.28v-1.52a2.21,2.21,0,0,0-.69-1.74,3,3,0,0,0-2-.62,5.11,5.11,0,0,0-1.36.17,3.9,3.9,0,0,0-1,.39l-.29,1.67h-3.37v-3.45a13.12,13.12,0,0,1,2.82-1.31,10.9,10.9,0,0,1,3.45-.53,8.18,8.18,0,0,1,5,1.42,4.68,4.68,0,0,1,1.93,4v6.41c0,.24,0,.47,0,.68a3.83,3.83,0,0,0,0,.6l1.36.17v2.52Zm-3.88-2.8a4.11,4.11,0,0,0,1.84-.41,3.55,3.55,0,0,0,1.29-1v-2.37h-2.28a3.27,3.27,0,0,0-2.17.63,1.88,1.88,0,0,0-.73,1.5,1.5,1.5,0,0,0,.54,1.23A2.32,2.32,0,0,0,1109.36,125.25Z"/><path class="cls-1" d="M1125.3,108.7v3.81h2.91v2.94h-2.91v7.92a1.73,1.73,0,0,0,.4,1.29,1.45,1.45,0,0,0,1.07.39c.31,0,.57,0,.8,0a6.81,6.81,0,0,0,.78-.12l.38,3a11.68,11.68,0,0,1-1.49.32,11.24,11.24,0,0,1-1.59.11,5,5,0,0,1-3.56-1.19,5,5,0,0,1-1.25-3.78v-7.93h-2.44v-2.94h2.44V108.7Z"/><path class="cls-1" d="M1130.26,125.53l2.16-.43v-9.63L1130,115v-2.53h6.87V125.1l2.14.43v2.52h-8.78Zm6.64-16.74h-4.48v-3.14h4.48Z"/><path class="cls-1" d="M1147.55,115l-1.57.27,2.2,7,.29,1.47h.09l.32-1.47,2.16-6.94-1.59-.28v-2.53H1157V115l-1.44.21-4.89,12.8h-4.27l-4.91-12.8L1140,115v-2.53h7.53Z"/><path class="cls-1" d="M1166.13,128.35a7.75,7.75,0,0,1-5.73-2.15,7.44,7.44,0,0,1-2.14-5.48v-.57a8.12,8.12,0,0,1,2-5.7,7.05,7.05,0,0,1,12.51,4.79v2.29h-9.9l0,.08a4,4,0,0,0,1.09,2.53,3.55,3.55,0,0,0,2.65,1,9,9,0,0,0,2.46-.28,11.36,11.36,0,0,0,2.15-.88l1.21,2.59a9,9,0,0,1-2.66,1.27A11.86,11.86,0,0,1,1166.13,128.35Zm-.4-12.9a2.4,2.4,0,0,0-2,.89,4.57,4.57,0,0,0-.89,2.35l0,.07h5.49v-.38a3.23,3.23,0,0,0-.67-2.13A2.5,2.5,0,0,0,1165.73,115.45Z"/><path class="cls-1" d="M1015.79,160.43a2.72,2.72,0,0,0,1.91-.66,2.22,2.22,0,0,0,.72-1.74h4.05l0,.08a4.72,4.72,0,0,1-1.88,3.95,7.45,7.45,0,0,1-4.84,1.58,7.36,7.36,0,0,1-5.72-2.19,8.06,8.06,0,0,1-2-5.65v-.43a8,8,0,0,1,2.06-5.64,7.64,7.64,0,0,1,5.88-2.21,10.63,10.63,0,0,1,3.6.56,7.12,7.12,0,0,1,2.65,1.58l.06,4.15h-3.63l-.73-2.43a3,3,0,0,0-.83-.45,3.25,3.25,0,0,0-1.12-.18,2.87,2.87,0,0,0-2.68,1.29,6.36,6.36,0,0,0-.78,3.33v.43a6.81,6.81,0,0,0,.72,3.36A2.67,2.67,0,0,0,1015.79,160.43Z"/><path class="cls-1" d="M1024.54,155.43a8,8,0,0,1,2.07-5.69,8.56,8.56,0,0,1,11.49,0,8,8,0,0,1,2.08,5.7v.3a8,8,0,0,1-2.08,5.71,7.47,7.47,0,0,1-5.72,2.2,7.55,7.55,0,0,1-5.77-2.2,8,8,0,0,1-2.07-5.71Zm4.47.3a6.42,6.42,0,0,0,.8,3.41,2.79,2.79,0,0,0,2.57,1.29,2.76,2.76,0,0,0,2.54-1.3,6.41,6.41,0,0,0,.8-3.4v-.3a6.36,6.36,0,0,0-.81-3.38,2.8,2.8,0,0,0-2.56-1.3,2.75,2.75,0,0,0-2.54,1.3,6.45,6.45,0,0,0-.8,3.38Z"/><path class="cls-1" d="M1041.88,160.83l2.15-.43v-9.64l-2.38-.43V147.8h6.54l.2,2.23a5.91,5.91,0,0,1,2-1.85,5.57,5.57,0,0,1,2.71-.66,5.16,5.16,0,0,1,3.93,1.48,6.51,6.51,0,0,1,1.41,4.63v6.77l2.14.43v2.51h-8.55v-2.51l1.92-.43v-6.75a3,3,0,0,0-.68-2.22,2.81,2.81,0,0,0-2-.65,3.71,3.71,0,0,0-1.59.33,3.34,3.34,0,0,0-1.18,1v8.33l1.81.43v2.51h-8.43Z"/><path class="cls-1" d="M1068.65,144v3.8h2.91v2.95h-2.91v7.91a1.72,1.72,0,0,0,.4,1.29,1.45,1.45,0,0,0,1.07.39q.47,0,.81,0c.23,0,.48-.07.77-.13l.38,3a9.95,9.95,0,0,1-3.08.43,4.93,4.93,0,0,1-3.56-1.19,5,5,0,0,1-1.25-3.77v-7.93h-2.43V147.8h2.43V144Z"/><path class="cls-1" d="M1084.31,163.34a7.68,7.68,0,0,1-.32-.79,6.36,6.36,0,0,1-.22-.83,6,6,0,0,1-4.55,1.92,5.71,5.71,0,0,1-3.87-1.24,4.25,4.25,0,0,1-1.43-3.38,3.76,3.76,0,0,1,1.87-3.37,10.23,10.23,0,0,1,5.49-1.2h2.28v-1.52a2.21,2.21,0,0,0-.69-1.74,3,3,0,0,0-2-.62,5.11,5.11,0,0,0-1.36.17,3.54,3.54,0,0,0-1,.4l-.29,1.66h-3.37v-3.45a13.11,13.11,0,0,1,2.82-1.3,10.62,10.62,0,0,1,3.45-.53,8.28,8.28,0,0,1,5,1.41,4.71,4.71,0,0,1,1.92,4v6.42c0,.24,0,.46,0,.67a4,4,0,0,0,0,.61l1.36.17v2.51Zm-3.88-2.8a4,4,0,0,0,1.84-.41,3.53,3.53,0,0,0,1.29-1v-2.37h-2.28a3.32,3.32,0,0,0-2.17.62,1.91,1.91,0,0,0-.73,1.5,1.52,1.52,0,0,0,.54,1.24A2.38,2.38,0,0,0,1080.43,160.54Z"/><path class="cls-1" d="M1090.85,160.83l2.16-.43v-9.64l-2.39-.43V147.8h6.87v12.6l2.14.43v2.51h-8.78Zm6.64-16.75H1093v-3.14h4.48Z"/><path class="cls-1" d="M1100.86,160.83l2.14-.43v-9.64l-2.37-.43V147.8h6.54l.2,2.23a5.91,5.91,0,0,1,2-1.85,5.55,5.55,0,0,1,2.71-.66A5.13,5.13,0,0,1,1116,149a6.51,6.51,0,0,1,1.41,4.63v6.77l2.15.43v2.51h-8.55v-2.51l1.91-.43v-6.75a3,3,0,0,0-.67-2.22,2.81,2.81,0,0,0-2-.65,3.71,3.71,0,0,0-1.59.33,3.25,3.25,0,0,0-1.18,1v8.33l1.8.43v2.51h-8.42Z"/><path class="cls-1" d="M1128.81,163.64a7.71,7.71,0,0,1-5.73-2.15,7.44,7.44,0,0,1-2.15-5.47v-.58a8.2,8.2,0,0,1,2-5.7,8,8,0,0,1,10.66-.33,7,7,0,0,1,1.85,5.13v2.28h-9.9l0,.09a3.93,3.93,0,0,0,1.1,2.53,3.54,3.54,0,0,0,2.64,1,9.49,9.49,0,0,0,2.47-.28,11.39,11.39,0,0,0,2.14-.89l1.21,2.59a9,9,0,0,1-2.66,1.28A12.11,12.11,0,0,1,1128.81,163.64Zm-.4-12.89a2.36,2.36,0,0,0-2,.89,4.42,4.42,0,0,0-.89,2.34l0,.07h5.49v-.37a3.23,3.23,0,0,0-.67-2.14A2.46,2.46,0,0,0,1128.41,150.75Z"/><path class="cls-1" d="M1137.92,160.83l2.15-.43v-9.64l-2.38-.43V147.8h6.55l.19,2.27a4.93,4.93,0,0,1,1.51-1.88,3.49,3.49,0,0,1,2.13-.67,4.84,4.84,0,0,1,.74,0,4,4,0,0,1,.65.12l-.47,3.82-1.84,0a3.42,3.42,0,0,0-1.63.35,2.41,2.41,0,0,0-1,1v7.56l2.15.43v2.51h-8.77Z"/><path class="cls-1" d="M1158.35,160.83l2.16-.43v-9.64l-2.39-.43V147.8H1165v12.6l2.15.43v2.51h-8.78Zm6.63-16.75h-4.47v-3.14H1165Z"/><path class="cls-1" d="M1168.08,150.33V147.8h6.54l.18,2.06a5.44,5.44,0,0,1,2-1.73,6.06,6.06,0,0,1,2.79-.61,5.3,5.3,0,0,1,2.72.66,4.12,4.12,0,0,1,1.72,2,5.55,5.55,0,0,1,2-1.95,5.69,5.69,0,0,1,2.88-.7,4.93,4.93,0,0,1,3.87,1.58,7.07,7.07,0,0,1,1.42,4.84v6.46l2.16.43v2.51h-8.57v-2.51l1.93-.43v-6.48a3.71,3.71,0,0,0-.61-2.45,2.32,2.32,0,0,0-1.82-.69,3.3,3.3,0,0,0-1.65.39,3.08,3.08,0,0,0-1.11,1.1c0,.18,0,.34,0,.47s0,.26,0,.39v7.27l1.81.43v2.51h-8.08v-2.51l1.81-.43v-6.48a3.72,3.72,0,0,0-.61-2.43,2.28,2.28,0,0,0-1.84-.71,3.64,3.64,0,0,0-1.59.32,3,3,0,0,0-1.12.91v8.39l1.93.43v2.51h-8.55v-2.51l2.16-.43v-9.64Z"/><path class="cls-1" d="M1208.35,163.34a7.75,7.75,0,0,1-.33-.79,6.31,6.31,0,0,1-.21-.83,6.13,6.13,0,0,1-1.94,1.39,6,6,0,0,1-2.61.53,5.69,5.69,0,0,1-3.87-1.24A4.22,4.22,0,0,1,1198,159a3.76,3.76,0,0,1,1.87-3.37,10.2,10.2,0,0,1,5.48-1.2h2.28v-1.52a2.2,2.2,0,0,0-.68-1.74,3,3,0,0,0-2-.62,5.19,5.19,0,0,0-1.37.17,3.47,3.47,0,0,0-1,.4l-.29,1.66h-3.37v-3.45a13.25,13.25,0,0,1,2.81-1.3,10.68,10.68,0,0,1,3.46-.53,8.25,8.25,0,0,1,5,1.41,4.72,4.72,0,0,1,1.93,4v7.09a5.73,5.73,0,0,0,.06.61l1.36.17v2.51Zm-3.88-2.8a4,4,0,0,0,1.84-.41,3.41,3.41,0,0,0,1.28-1v-2.37h-2.28a3.29,3.29,0,0,0-2.16.62,1.91,1.91,0,0,0-.73,1.5,1.52,1.52,0,0,0,.54,1.24A2.36,2.36,0,0,0,1204.47,160.54Z"/><path class="cls-1" d="M1215.3,155.7a9.55,9.55,0,0,1,1.71-5.93,5.68,5.68,0,0,1,4.79-2.25,5,5,0,0,1,2.45.58,5.29,5.29,0,0,1,1.81,1.66l.32-2h3.89v15.08a6.22,6.22,0,0,1-2.06,4.91,8.22,8.22,0,0,1-5.66,1.83,12.28,12.28,0,0,1-2.67-.32,12.83,12.83,0,0,1-2.6-.89l.83-2.94a14.71,14.71,0,0,0,2.14.68,9.81,9.81,0,0,0,2.27.25,3.08,3.08,0,0,0,2.45-.93,3.84,3.84,0,0,0,.81-2.6v-1a4.85,4.85,0,0,1-1.73,1.33,5.31,5.31,0,0,1-2.28.46,5.8,5.8,0,0,1-4.76-2.1,8.51,8.51,0,0,1-1.71-5.54Zm4.48.3a6,6,0,0,0,.73,3.21,2.61,2.61,0,0,0,2.39,1.17,3.8,3.8,0,0,0,1.74-.35,2.68,2.68,0,0,0,1.14-1v-6.75a2.94,2.94,0,0,0-1.14-1.1,3.6,3.6,0,0,0-1.71-.38,2.56,2.56,0,0,0-2.4,1.36,7.38,7.38,0,0,0-.75,3.56Z"/><path class="cls-1" d="M1240.89,163.64a7.71,7.71,0,0,1-5.73-2.15A7.43,7.43,0,0,1,1233,156v-.58a8.16,8.16,0,0,1,2-5.7,7.05,7.05,0,0,1,12.51,4.8v2.28h-9.9l0,.09a3.92,3.92,0,0,0,1.09,2.53,3.55,3.55,0,0,0,2.65,1,9.36,9.36,0,0,0,2.46-.28,11.45,11.45,0,0,0,2.15-.89l1.21,2.59a9,9,0,0,1-2.66,1.28A12.17,12.17,0,0,1,1240.89,163.64Zm-.4-12.89a2.38,2.38,0,0,0-2,.89,4.5,4.5,0,0,0-.89,2.34l0,.07h5.49v-.37a3.28,3.28,0,0,0-.67-2.14A2.5,2.5,0,0,0,1240.49,150.75Z"/><rect class="cls-2" x="947.87" y="59.07" width="360" height="149" rx="8"/><line class="cls-3" x1="885.4" y1="140.7" x2="929.6" y2="140.7"/><polygon class="cls-4" points="915.68 157.88 912.82 154.8 927.99 140.7 912.82 126.6 915.68 123.52 934.16 140.7 915.68 157.88"/><path class="cls-1" d="M194.29,107.14a9.18,9.18,0,0,1,6.05,1.84,6,6,0,0,1,2.21,4.84,5.94,5.94,0,0,1-2.21,4.82,9.24,9.24,0,0,1-6.05,1.83h-3.77v4.63l2.39.43v2.52h-9.24v-2.52l2.38-.43v-15l-2.38-.43v-2.53h10.62Zm-3.77,10.09h3.77a3.83,3.83,0,0,0,2.83-1,3.29,3.29,0,0,0,.95-2.43,3.43,3.43,0,0,0-.95-2.5,3.8,3.8,0,0,0-2.83-1h-3.77Z"/><path class="cls-1" d="M221.47,115l-1.54.21-6.1,15.12a8.27,8.27,0,0,1-1.93,2.82,5.09,5.09,0,0,1-3.62,1.13,5.93,5.93,0,0,1-1.06-.08c-.34-.06-.73-.14-1.18-.25l.52-3.05.45.05.4,0a2.57,2.57,0,0,0,1.71-.51,3.28,3.28,0,0,0,.92-1.27l.51-1.18-5.26-12.79-1.55-.23v-2.53h8.13V115l-1.86.28,2.27,6.21.23,1.12h.09l2.62-7.34-1.87-.28v-2.53h8.12Z"/><path class="cls-1" d="M229.49,108.7v3.81h2.91v2.94h-2.91v7.92a1.73,1.73,0,0,0,.4,1.29,1.45,1.45,0,0,0,1.07.39c.3,0,.57,0,.8,0a6.81,6.81,0,0,0,.78-.12l.38,3a11.68,11.68,0,0,1-1.49.32,11.24,11.24,0,0,1-1.59.11,4.32,4.32,0,0,1-4.81-5v-7.93h-2.44v-2.94H225V108.7Z"/><path class="cls-1" d="M234.34,125.53l2.17-.43V108.6l-2.4-.43v-2.52H241v8.84a5.48,5.48,0,0,1,1.92-1.67,5.81,5.81,0,0,1,6.6,1,7.22,7.22,0,0,1,1.47,5v6.27l2.15.43v2.52h-8.55v-2.52l1.93-.43v-6.3a3.81,3.81,0,0,0-.68-2.56,2.58,2.58,0,0,0-2-.76,3.88,3.88,0,0,0-1.63.32,3.26,3.26,0,0,0-1.18.89v8.41l1.93.43v2.52h-8.55Z"/><path class="cls-1" d="M254.39,120.14a8,8,0,0,1,2.07-5.7,8.56,8.56,0,0,1,11.49,0,8,8,0,0,1,2.08,5.71v.3a8,8,0,0,1-2.08,5.71,7.47,7.47,0,0,1-5.72,2.2,7.55,7.55,0,0,1-5.77-2.2,8,8,0,0,1-2.07-5.71Zm4.47.3a6.45,6.45,0,0,0,.8,3.41,2.81,2.81,0,0,0,2.57,1.28,2.77,2.77,0,0,0,2.54-1.29,6.43,6.43,0,0,0,.8-3.4v-.3a6.34,6.34,0,0,0-.81-3.38,2.79,2.79,0,0,0-2.56-1.31,2.76,2.76,0,0,0-2.54,1.31,6.43,6.43,0,0,0-.8,3.38Z"/><path class="cls-1" d="M271.73,125.53l2.15-.43v-9.63L271.5,115v-2.53H278l.2,2.23a5.93,5.93,0,0,1,2-1.86,5.57,5.57,0,0,1,2.71-.66,5.19,5.19,0,0,1,3.93,1.48,6.54,6.54,0,0,1,1.41,4.64v6.76l2.14.43v2.52h-8.55v-2.52l1.92-.43v-6.74a3,3,0,0,0-.68-2.22,2.81,2.81,0,0,0-2-.66,3.71,3.71,0,0,0-1.59.34,3.13,3.13,0,0,0-1.18,1v8.32l1.81.43v2.52h-8.43Z"/><path class="cls-1" d="M174.13,150.33V147.8h6.49l.22,1.81a5.2,5.2,0,0,1,1.76-1.55,5,5,0,0,1,2.39-.54,5.64,5.64,0,0,1,4.78,2.25,9.61,9.61,0,0,1,1.7,5.93v.3a8.57,8.57,0,0,1-1.7,5.55,5.76,5.76,0,0,1-4.75,2.09,5.6,5.6,0,0,1-2.31-.45,4.58,4.58,0,0,1-1.73-1.33v4.5l2.16.43v2.53h-8.78v-2.53l2.16-.43v-15.6ZM187,155.7a7.14,7.14,0,0,0-.78-3.56,2.58,2.58,0,0,0-2.39-1.36,3.68,3.68,0,0,0-1.73.38,2.85,2.85,0,0,0-1.12,1.11v6.81a2.65,2.65,0,0,0,1.12,1,4,4,0,0,0,1.76.35,2.63,2.63,0,0,0,2.38-1.19A6.07,6.07,0,0,0,187,156Z"/><path class="cls-1" d="M193.8,160.83l2.15-.43v-9.64l-2.38-.43V147.8h6.54l.2,2.27a5,5,0,0,1,1.5-1.88,3.53,3.53,0,0,1,2.13-.67,4.89,4.89,0,0,1,.75,0,4.23,4.23,0,0,1,.65.12l-.48,3.82-1.84,0a3.41,3.41,0,0,0-1.62.35,2.35,2.35,0,0,0-1,1v7.56l2.14.43v2.51H193.8Z"/><path class="cls-1" d="M206.36,155.43a8,8,0,0,1,2.08-5.69,8.56,8.56,0,0,1,11.49,0,8,8,0,0,1,2.08,5.7v.3a8,8,0,0,1-2.08,5.71,8.6,8.6,0,0,1-11.49,0,8,8,0,0,1-2.08-5.71Zm4.48.3a6.33,6.33,0,0,0,.8,3.41,3.17,3.17,0,0,0,5.11,0,6.41,6.41,0,0,0,.8-3.4v-.3a6.36,6.36,0,0,0-.81-3.38,2.8,2.8,0,0,0-2.56-1.3,2.74,2.74,0,0,0-2.54,1.3,6.36,6.36,0,0,0-.8,3.38Z"/><path class="cls-1" d="M224.23,155.7a9.55,9.55,0,0,1,1.71-5.93,5.66,5.66,0,0,1,4.79-2.25,5,5,0,0,1,2.45.58,5.38,5.38,0,0,1,1.81,1.66l.32-2h3.89v15.08a6.26,6.26,0,0,1-2.06,4.91,8.22,8.22,0,0,1-5.66,1.83,12.28,12.28,0,0,1-2.67-.32,12.62,12.62,0,0,1-2.6-.89l.82-2.94a14.83,14.83,0,0,0,2.15.68,9.75,9.75,0,0,0,2.27.25,3.08,3.08,0,0,0,2.45-.93,3.84,3.84,0,0,0,.81-2.6v-1a4.94,4.94,0,0,1-1.73,1.33,5.34,5.34,0,0,1-2.28.46,5.79,5.79,0,0,1-4.76-2.1,8.51,8.51,0,0,1-1.71-5.54Zm4.47.3a6,6,0,0,0,.74,3.21,2.61,2.61,0,0,0,2.39,1.17,3.86,3.86,0,0,0,1.74-.35,2.74,2.74,0,0,0,1.14-1v-6.75a3,3,0,0,0-1.14-1.1,3.63,3.63,0,0,0-1.71-.38,2.56,2.56,0,0,0-2.4,1.36,7.37,7.37,0,0,0-.76,3.56Z"/><path class="cls-1" d="M242.22,160.83l2.15-.43v-9.64l-2.38-.43V147.8h6.54l.2,2.27a5,5,0,0,1,1.5-1.88,3.53,3.53,0,0,1,2.13-.67,4.89,4.89,0,0,1,.75,0,4.23,4.23,0,0,1,.65.12l-.48,3.82-1.84,0a3.41,3.41,0,0,0-1.62.35,2.35,2.35,0,0,0-1,1v7.56l2.14.43v2.51h-8.76Z"/><path class="cls-1" d="M265.34,163.34a7.68,7.68,0,0,1-.32-.79,6.31,6.31,0,0,1-.21-.83,6.24,6.24,0,0,1-1.94,1.39,6,6,0,0,1-2.62.53,5.67,5.67,0,0,1-3.86-1.24A4.23,4.23,0,0,1,255,159a3.78,3.78,0,0,1,1.87-3.37,10.26,10.26,0,0,1,5.49-1.2h2.28v-1.52a2.21,2.21,0,0,0-.69-1.74,3,3,0,0,0-2-.62,5.11,5.11,0,0,0-1.36.17,3.54,3.54,0,0,0-1,.4l-.29,1.66h-3.37l0-3.45a12.8,12.8,0,0,1,2.81-1.3,10.66,10.66,0,0,1,3.45-.53,8.26,8.26,0,0,1,5,1.41,4.71,4.71,0,0,1,1.92,4v6.42c0,.24,0,.46,0,.67a4,4,0,0,0,.05.61l1.37.17v2.51Zm-3.87-2.8a4,4,0,0,0,1.83-.41,3.44,3.44,0,0,0,1.29-1v-2.37h-2.28a3.29,3.29,0,0,0-2.16.62,1.92,1.92,0,0,0-.74,1.5,1.5,1.5,0,0,0,.55,1.24A2.34,2.34,0,0,0,261.47,160.54Z"/><path class="cls-1" d="M271.5,150.33V147.8H278l.19,2.06a5.36,5.36,0,0,1,2-1.73,6,6,0,0,1,2.78-.61,5.36,5.36,0,0,1,2.73.66,4.15,4.15,0,0,1,1.71,2,5.63,5.63,0,0,1,2-1.95,5.69,5.69,0,0,1,2.88-.7,4.93,4.93,0,0,1,3.87,1.58,7.07,7.07,0,0,1,1.42,4.84v6.46l2.16.43v2.51h-8.56v-2.51l1.93-.43v-6.48a3.71,3.71,0,0,0-.62-2.45,2.29,2.29,0,0,0-1.82-.69,3.35,3.35,0,0,0-1.65.39,3.08,3.08,0,0,0-1.11,1.1c0,.18,0,.34,0,.47s0,.26,0,.39v7.27l1.81.43v2.51h-8.07v-2.51l1.8-.43v-6.48a3.72,3.72,0,0,0-.61-2.43,2.28,2.28,0,0,0-1.84-.71,3.57,3.57,0,0,0-1.58.32,3.06,3.06,0,0,0-1.13.91v8.39l1.93.43v2.51h-8.55v-2.51l2.16-.43v-9.64Z"/><rect class="cls-2" x="56.87" y="59.07" width="360" height="149" rx="8"/><line class="cls-3" x1="436.4" y1="140.7" x2="480.6" y2="140.7"/><polygon class="cls-4" points="466.68 157.88 463.82 154.8 478.99 140.7 463.82 126.6 466.68 123.52 485.16 140.7 466.68 157.88"/></svg>