<?xml version="1.0" encoding="utf-8"?>
<!-- Generator: Adobe Illustrator 26.3.1, SVG Export Plug-In . SVG Version: 6.00 Build 0)  -->
<svg version="1.1" id="Ebene_1" xmlns="http://www.w3.org/2000/svg" xmlns:xlink="http://www.w3.org/1999/xlink" x="0px" y="0px"
	 viewBox="0 0 1495 793" style="enable-background:new 0 0 1495 793;" xml:space="preserve">
<style type="text/css">
	.st0{fill:#23153F;}
	.st1{fill:none;stroke:#FF6633;stroke-width:4;stroke-miterlimit:10;stroke-dasharray:0,6;}
	.st2{opacity:0.2;fill:#FFFFFF;enable-background:new    ;}
	.st3{enable-background:new    ;}
	.st4{fill:#FFFFFF;}
	.st5{fill:none;stroke:#FFFFFF;stroke-width:4;stroke-miterlimit:10;}
	.st6{fill:url(#SVGID_1_);stroke:#FFCC00;stroke-width:4;stroke-miterlimit:10;}
	.st7{fill:#FFFFFF;stroke:#FFCC00;stroke-width:4;stroke-linecap:round;stroke-linejoin:round;}
	.st8{fill:none;stroke:#FFCC00;stroke-width:4;stroke-linecap:round;stroke-linejoin:round;}
	.st9{fill:#FFCC00;}
	.st10{fill:none;stroke:#FF6633;stroke-width:4;stroke-linecap:round;stroke-linejoin:round;}
	.st11{fill:#FF6633;}
	.st12{fill:#3399FF;}
	.st13{fill:#38AF72;}
	.st14{fill:none;stroke:#FFCC00;stroke-width:4;stroke-miterlimit:10;}
	.st15{fill:none;stroke:#3399FF;stroke-width:4;stroke-miterlimit:10;}
	.st16{fill:none;stroke:#FFFFFF;stroke-width:4;stroke-linejoin:round;}
	.st17{fill:none;stroke:#FFFFFF;stroke-width:4;stroke-linecap:round;stroke-linejoin:round;}
	.st18{fill:none;stroke:#330066;stroke-width:4;stroke-linecap:round;stroke-linejoin:round;}
	.st19{fill:none;stroke:#FFFFFF;stroke-width:4;stroke-miterlimit:10;stroke-dasharray:0,0,6,6;}
</style>
<path class="st0" d="M13,10h1472c5.5,0,10,4.5,10,10v761c0,5.5-4.5,10-10,10H13c-5.5,0-10-4.5-10-10V20C3,14.5,7.5,10,13,10z"/>
<path class="st1" d="M847,120h570c4.4,0,8,3.6,8,8v518c0,4.4-3.6,8-8,8H847c-4.4,0-8-3.6-8-8V128C839,123.6,842.6,120,847,120z"/>
<path class="st2" d="M847,120h570c4.4,0,8,3.6,8,8v518c0,4.4-3.6,8-8,8H847c-4.4,0-8-3.6-8-8V128C839,123.6,842.6,120,847,120z"/>
<g class="st3">
	<path class="st4" d="M912.9,186.6c0-0.6-0.2-1.2-0.5-1.6s-0.7-0.8-1.2-1.2c-0.5-0.3-1-0.7-1.5-1c-0.6-0.3-1.1-0.7-1.5-1.1
		c-0.5-0.4-0.9-0.9-1.2-1.5c-0.3-0.6-0.5-1.3-0.5-2.1c0-0.7,0.2-1.3,0.5-1.9c0.3-0.6,0.8-1.1,1.3-1.5c0.6-0.4,1.2-0.8,2-1
		c0.8-0.3,1.6-0.4,2.5-0.4c1.3,0,2.3,0.1,3,0.3c0.7,0.2,1.3,0.4,1.9,0.7l-0.9,2.2c-1-0.6-2.3-0.8-3.9-0.8c-1,0-1.8,0.2-2.5,0.6
		c-0.7,0.4-1,1.1-1,1.9c0,0.5,0.2,0.9,0.5,1.3c0.3,0.4,0.7,0.7,1.2,1.1c0.5,0.3,1,0.7,1.5,1c0.6,0.3,1.1,0.7,1.5,1.2
		c0.5,0.4,0.9,1,1.2,1.6c0.3,0.6,0.5,1.3,0.5,2.1c0,1.9-0.6,3.3-1.9,4.3c-1.3,1-2.9,1.5-5.1,1.5c-1.1,0-2.1-0.1-3-0.3
		c-0.9-0.2-1.6-0.5-2.2-0.8l1-2.3c0.5,0.3,1.1,0.6,1.9,0.8c0.8,0.2,1.6,0.3,2.4,0.3c1.2,0,2.1-0.3,2.8-0.8
		C912.5,188.5,912.9,187.7,912.9,186.6z"/>
	<path class="st4" d="M931.9,189.9c-0.8,0.7-1.8,1.3-3,1.6s-2.3,0.6-3.4,0.6c-1.9,0-3.4-0.6-4.3-1.7c-1-1.1-1.5-2.6-1.5-4.6
		s0.3-3.7,0.8-5.3c0.6-1.6,1.3-2.9,2.2-4c0.9-1.1,1.9-1.9,3.1-2.5c1.1-0.6,2.3-0.9,3.5-0.9c0.9,0,1.6,0.1,2.2,0.4
		c0.6,0.2,1.2,0.6,1.6,1c0.4,0.4,0.7,0.9,0.9,1.4c0.2,0.5,0.3,1.1,0.3,1.6c0,1.7-0.8,3-2.5,4c-1.7,1-4.1,1.5-7.2,1.5
		c-0.3,0-0.6,0-0.9,0c-0.3,0-0.6,0-1-0.1c-0.1,0.5-0.2,0.9-0.2,1.3c0,0.4-0.1,0.8-0.1,1.1c0,1.3,0.3,2.4,0.9,3.2
		c0.6,0.8,1.5,1.2,2.8,1.2c1.1,0,2-0.2,2.9-0.5c0.9-0.3,1.6-0.7,2-1.1L931.9,189.9z M928.8,175.6c-1.3,0-2.5,0.5-3.4,1.3
		c-1,0.9-1.7,2.2-2.2,4.1c0.9,0,1.9,0,2.8-0.1c1,0,1.9-0.2,2.7-0.4c0.8-0.2,1.5-0.5,2-1c0.5-0.4,0.8-1.1,0.8-1.9
		c0-0.2,0-0.5-0.1-0.7c-0.1-0.3-0.2-0.5-0.4-0.7c-0.2-0.2-0.5-0.4-0.8-0.5S929.4,175.6,928.8,175.6z"/>
	<path class="st4" d="M946.5,191.7l2.4-11.4c0.1-0.4,0.2-0.9,0.3-1.3c0.1-0.4,0.1-0.8,0.1-1.1c0-0.7-0.2-1.3-0.5-1.7
		c-0.3-0.4-0.9-0.6-1.8-0.6c-0.6,0-1.2,0.1-1.8,0.4s-1.2,0.7-1.7,1.1c-0.5,0.4-1,0.9-1.4,1.5c-0.4,0.5-0.8,1.1-1.1,1.6l-2.4,11.5
		h-2.7l3.8-18h1.9l-0.1,3.1h0.1c0.3-0.4,0.7-0.8,1.1-1.2c0.4-0.4,0.9-0.8,1.5-1.1c0.5-0.3,1.1-0.6,1.8-0.8c0.7-0.2,1.4-0.3,2.2-0.3
		c1.2,0,2.1,0.3,2.8,0.9c0.7,0.6,1,1.6,1,3c0,0.7-0.1,1.6-0.3,2.6l-2.6,12H946.5z"/>
	<path class="st4" d="M968.4,185.5c-0.2,0.9-0.3,1.8-0.4,2.6c-0.1,0.8-0.1,1.6-0.1,2.3c0,0.3,0,0.5,0,0.7s0,0.4,0.1,0.6h-1.8
		l-0.5-3.1h-0.1c-0.3,0.4-0.6,0.8-1.1,1.2c-0.4,0.4-0.9,0.8-1.4,1.1c-0.5,0.3-1.1,0.6-1.7,0.8c-0.6,0.2-1.2,0.3-1.8,0.3
		c-1.3,0-2.4-0.5-3.2-1.5c-0.8-1-1.2-2.5-1.2-4.6c0-1.4,0.2-2.9,0.6-4.4c0.4-1.5,1-2.9,1.8-4.1c0.8-1.2,1.8-2.2,3-3
		c1.2-0.8,2.6-1.2,4.1-1.2c0.4,0,0.8,0,1.1,0c0.3,0,0.6,0.1,0.9,0.1c0.3,0,0.5,0.1,0.8,0.2c0.2,0.1,0.5,0.2,0.8,0.3l1.6-7.5h2.7
		L968.4,185.5z M960.5,189.8c0.5,0,1-0.1,1.5-0.4c0.5-0.3,1-0.6,1.5-1s0.9-0.8,1.3-1.3s0.7-0.9,0.9-1.3l2-9.4
		c-0.4-0.3-0.9-0.5-1.4-0.6c-0.5-0.1-1.2-0.2-2-0.2c-1,0-1.8,0.3-2.6,0.9c-0.8,0.6-1.4,1.4-2,2.4c-0.5,1-1,2.1-1.2,3.4
		c-0.3,1.3-0.4,2.6-0.4,3.9c0,1,0.2,1.8,0.6,2.5C959,189.5,959.6,189.8,960.5,189.8z"/>
</g>
<g>
	<line class="st5" x1="1121" y1="304" x2="1121" y2="269"/>
	<polygon class="st4" points="1132.4,294.7 1130.4,292.8 1121,302.9 1111.6,292.8 1109.6,294.7 1121,307 	"/>
</g>
<g>
	<line class="st5" x1="1121" y1="471" x2="1121" y2="416"/>
	<polygon class="st4" points="1132.4,461.7 1130.4,459.8 1121,469.9 1111.6,459.8 1109.6,461.7 1121,474 	"/>
</g>
<g class="st3">
	<path class="st4" d="M338.9,743.4h2.7l0.8-3.6l2.9-0.8l-0.9,4.4h4.7l-0.5,2.3h-4.7l-2.3,10.9c0,0.3-0.1,0.6-0.1,0.8
		c0,0.2-0.1,0.5-0.1,0.6c0,0.6,0.1,1,0.4,1.2s0.7,0.3,1.2,0.3c0.6,0,1.1-0.1,1.6-0.2c0.5-0.1,1-0.4,1.4-0.6v2.2
		c-0.5,0.3-1.2,0.5-1.9,0.7s-1.5,0.3-2.3,0.3c-2.2,0-3.3-1-3.3-3c0-0.4,0.1-0.9,0.2-1.5l2.4-11.6h-2.7L338.9,743.4z"/>
	<path class="st4" d="M360.6,745.8c-0.2,0-0.4-0.1-0.7-0.1c-0.2,0-0.4,0-0.6,0c-1.2,0-2.3,0.4-3.2,1.2c-0.9,0.8-1.6,1.7-2.1,2.8
		l-2.5,11.8h-2.7l3.8-18h1.9v3.1h0.1c0.3-0.5,0.6-0.9,0.9-1.3c0.3-0.4,0.7-0.8,1.1-1.1c0.4-0.3,0.9-0.6,1.3-0.7
		c0.5-0.2,1-0.3,1.6-0.3c0.5,0,1.1,0.1,1.7,0.3L360.6,745.8z"/>
	<path class="st4" d="M367,743.4l-2.5,12c-0.1,0.6-0.2,1.2-0.2,1.8c0,0.7,0.1,1.2,0.4,1.7c0.3,0.4,0.7,0.7,1.4,0.7
		c0.6,0,1.2-0.1,1.7-0.4c0.6-0.3,1.2-0.7,1.7-1.1s1-1,1.5-1.5c0.4-0.6,0.8-1.1,1.1-1.6l2.4-11.4h2.7l-2.3,10.7
		c-0.1,0.4-0.2,0.9-0.3,1.5c-0.1,0.6-0.2,1.2-0.3,1.9c-0.1,0.6-0.1,1.3-0.2,1.9c0,0.6-0.1,1.1-0.1,1.6v0.5H372V758h-0.1
		c-0.4,0.5-0.8,0.9-1.2,1.4c-0.5,0.5-1,0.9-1.5,1.2s-1.2,0.7-1.8,0.9s-1.3,0.3-2.1,0.3c-0.5,0-1-0.1-1.5-0.2
		c-0.4-0.1-0.8-0.3-1.2-0.6c-0.3-0.3-0.6-0.7-0.8-1.2c-0.2-0.5-0.3-1.1-0.3-1.9c0-0.8,0.1-1.8,0.4-2.8l2.4-11.7H367z"/>
	<path class="st4" d="M387.1,756.3c0-0.6-0.2-1.2-0.5-1.6c-0.3-0.4-0.7-0.8-1.2-1.2c-0.5-0.3-1-0.7-1.5-1c-0.6-0.3-1.1-0.7-1.5-1.1
		c-0.5-0.4-0.9-0.9-1.2-1.5c-0.3-0.6-0.5-1.3-0.5-2.1c0-0.7,0.2-1.3,0.5-1.9c0.3-0.6,0.8-1.1,1.3-1.5s1.2-0.8,2-1
		c0.8-0.3,1.6-0.4,2.5-0.4c1.3,0,2.3,0.1,3,0.3c0.7,0.2,1.3,0.4,1.9,0.7l-0.9,2.2c-1-0.6-2.3-0.8-3.9-0.8c-1,0-1.8,0.2-2.5,0.6
		c-0.7,0.4-1,1.1-1,1.9c0,0.5,0.2,0.9,0.5,1.3c0.3,0.4,0.7,0.7,1.2,1.1c0.5,0.3,1,0.7,1.5,1c0.6,0.3,1.1,0.7,1.5,1.2
		c0.5,0.4,0.9,1,1.2,1.6c0.3,0.6,0.5,1.3,0.5,2.1c0,1.9-0.6,3.3-1.9,4.3c-1.3,1-2.9,1.5-5.1,1.5c-1.1,0-2.1-0.1-3-0.3
		c-0.9-0.2-1.6-0.5-2.2-0.8l1-2.3c0.5,0.3,1.1,0.6,1.9,0.8c0.8,0.2,1.6,0.3,2.4,0.3c1.2,0,2.1-0.3,2.8-0.8
		C386.7,758.3,387.1,757.4,387.1,756.3z"/>
	<path class="st4" d="M394.6,743.4h2.7l0.8-3.6l2.9-0.8l-0.9,4.4h4.7l-0.5,2.3h-4.7l-2.3,10.9c0,0.3-0.1,0.6-0.1,0.8
		c0,0.2-0.1,0.5-0.1,0.6c0,0.6,0.1,1,0.4,1.2s0.7,0.3,1.2,0.3c0.6,0,1.1-0.1,1.6-0.2c0.5-0.1,1-0.4,1.4-0.6v2.2
		c-0.5,0.3-1.2,0.5-1.9,0.7s-1.5,0.3-2.3,0.3c-2.2,0-3.3-1-3.3-3c0-0.4,0.1-0.9,0.2-1.5l2.4-11.6h-2.7L394.6,743.4z"/>
	<path class="st4" d="M417.3,759.7c-0.8,0.7-1.8,1.3-3,1.6c-1.1,0.4-2.3,0.6-3.4,0.6c-1.9,0-3.4-0.6-4.3-1.7c-1-1.1-1.5-2.6-1.5-4.6
		s0.3-3.7,0.8-5.3c0.6-1.6,1.3-2.9,2.2-4c0.9-1.1,1.9-1.9,3.1-2.5c1.1-0.6,2.3-0.9,3.5-0.9c0.9,0,1.6,0.1,2.2,0.4
		c0.6,0.2,1.2,0.6,1.6,1c0.4,0.4,0.7,0.9,0.9,1.4c0.2,0.5,0.3,1.1,0.3,1.6c0,1.7-0.8,3-2.5,4c-1.7,1-4.1,1.5-7.2,1.5
		c-0.3,0-0.6,0-0.9,0c-0.3,0-0.6,0-1-0.1c-0.1,0.5-0.2,0.9-0.2,1.3c0,0.4-0.1,0.8-0.1,1.1c0,1.3,0.3,2.4,0.9,3.2
		c0.6,0.8,1.5,1.2,2.8,1.2c1.1,0,2-0.2,2.9-0.5c0.9-0.3,1.6-0.7,2-1.1L417.3,759.7z M414.3,745.3c-1.3,0-2.5,0.5-3.4,1.3
		c-1,0.9-1.7,2.2-2.2,4.1c0.9,0,1.9,0,2.8-0.1c1,0,1.9-0.2,2.7-0.4c0.8-0.2,1.5-0.5,2-1c0.5-0.4,0.8-1.1,0.8-1.9
		c0-0.2,0-0.5-0.1-0.7c-0.1-0.3-0.2-0.5-0.4-0.7c-0.2-0.2-0.5-0.4-0.8-0.5C415.2,745.4,414.8,745.3,414.3,745.3z"/>
	<path class="st4" d="M435.1,755.2c-0.2,0.9-0.3,1.8-0.4,2.6c-0.1,0.8-0.1,1.6-0.1,2.3c0,0.3,0,0.5,0,0.7c0,0.2,0,0.4,0.1,0.6h-1.8
		l-0.5-3.1h-0.1c-0.3,0.4-0.6,0.8-1.1,1.2c-0.4,0.4-0.9,0.8-1.4,1.1s-1.1,0.6-1.7,0.8c-0.6,0.2-1.2,0.3-1.8,0.3
		c-1.3,0-2.4-0.5-3.1-1.5c-0.8-1-1.2-2.5-1.2-4.6c0-1.4,0.2-2.9,0.6-4.4c0.4-1.5,1-2.9,1.8-4.1c0.8-1.2,1.8-2.2,3-3s2.6-1.2,4.1-1.2
		c0.4,0,0.8,0,1.1,0c0.3,0,0.6,0.1,0.9,0.1s0.5,0.1,0.8,0.2c0.2,0.1,0.5,0.2,0.8,0.3l1.6-7.5h2.7L435.1,755.2z M427.1,759.5
		c0.5,0,1-0.1,1.5-0.4c0.5-0.3,1-0.6,1.5-1c0.5-0.4,0.9-0.8,1.3-1.3c0.4-0.5,0.7-0.9,0.9-1.3l2-9.4c-0.4-0.3-0.9-0.5-1.4-0.6
		c-0.5-0.1-1.2-0.2-2-0.2c-1,0-1.8,0.3-2.6,0.9s-1.4,1.4-2,2.4c-0.5,1-1,2.1-1.2,3.4c-0.3,1.3-0.4,2.6-0.4,3.9c0,1,0.2,1.8,0.6,2.5
		C425.6,759.2,426.3,759.5,427.1,759.5z"/>
	<path class="st4" d="M457.3,756.3c0-0.6-0.2-1.2-0.5-1.6c-0.3-0.4-0.7-0.8-1.2-1.2c-0.5-0.3-1-0.7-1.5-1c-0.6-0.3-1.1-0.7-1.5-1.1
		c-0.5-0.4-0.9-0.9-1.2-1.5c-0.3-0.6-0.5-1.3-0.5-2.1c0-0.7,0.2-1.3,0.5-1.9c0.3-0.6,0.8-1.1,1.3-1.5s1.2-0.8,2-1
		c0.8-0.3,1.6-0.4,2.5-0.4c1.3,0,2.3,0.1,3,0.3c0.7,0.2,1.3,0.4,1.9,0.7l-0.9,2.2c-1-0.6-2.3-0.8-3.9-0.8c-1,0-1.8,0.2-2.5,0.6
		c-0.7,0.4-1,1.1-1,1.9c0,0.5,0.2,0.9,0.5,1.3c0.3,0.4,0.7,0.7,1.2,1.1c0.5,0.3,1,0.7,1.5,1c0.6,0.3,1.1,0.7,1.5,1.2
		c0.5,0.4,0.9,1,1.2,1.6c0.3,0.6,0.5,1.3,0.5,2.1c0,1.9-0.6,3.3-1.9,4.3c-1.3,1-2.9,1.5-5.1,1.5c-1.1,0-2.1-0.1-3-0.3
		c-0.9-0.2-1.6-0.5-2.2-0.8l1-2.3c0.5,0.3,1.1,0.6,1.9,0.8c0.8,0.2,1.6,0.3,2.4,0.3c1.2,0,2.1-0.3,2.8-0.8
		C456.9,758.3,457.3,757.4,457.3,756.3z"/>
	<path class="st4" d="M468,743.4h2.7l-3.8,18h-2.7L468,743.4z M468.6,737.9c0-0.6,0.2-1,0.6-1.4c0.4-0.4,0.8-0.6,1.4-0.6
		s1,0.2,1.4,0.6c0.4,0.4,0.6,0.9,0.6,1.4s-0.2,1-0.6,1.4c-0.4,0.4-0.9,0.6-1.4,0.6s-1-0.2-1.4-0.6
		C468.8,738.9,468.6,738.5,468.6,737.9z"/>
	<path class="st4" d="M474.2,743.4h2.7l0.8-3.6l2.9-0.8l-0.9,4.4h4.7l-0.5,2.3H479l-2.3,10.9c0,0.3-0.1,0.6-0.1,0.8
		c0,0.2-0.1,0.5-0.1,0.6c0,0.6,0.1,1,0.4,1.2s0.7,0.3,1.2,0.3c0.6,0,1.1-0.1,1.6-0.2c0.5-0.1,1-0.4,1.4-0.6v2.2
		c-0.5,0.3-1.2,0.5-1.9,0.7s-1.5,0.3-2.3,0.3c-2.2,0-3.3-1-3.3-3c0-0.4,0.1-0.9,0.2-1.5l2.4-11.6h-2.7L474.2,743.4z"/>
	<path class="st4" d="M496.9,759.7c-0.8,0.7-1.8,1.3-3,1.6c-1.1,0.4-2.3,0.6-3.4,0.6c-1.9,0-3.4-0.6-4.3-1.7c-1-1.1-1.5-2.6-1.5-4.6
		s0.3-3.7,0.8-5.3c0.6-1.6,1.3-2.9,2.2-4c0.9-1.1,1.9-1.9,3.1-2.5c1.1-0.6,2.3-0.9,3.5-0.9c0.9,0,1.6,0.1,2.2,0.4
		c0.6,0.2,1.2,0.6,1.6,1c0.4,0.4,0.7,0.9,0.9,1.4c0.2,0.5,0.3,1.1,0.3,1.6c0,1.7-0.8,3-2.5,4c-1.7,1-4.1,1.5-7.2,1.5
		c-0.3,0-0.6,0-0.9,0c-0.3,0-0.6,0-1-0.1c-0.1,0.5-0.2,0.9-0.2,1.3c0,0.4-0.1,0.8-0.1,1.1c0,1.3,0.3,2.4,0.9,3.2
		c0.6,0.8,1.5,1.2,2.8,1.2c1.1,0,2-0.2,2.9-0.5c0.9-0.3,1.6-0.7,2-1.1L496.9,759.7z M493.8,745.3c-1.3,0-2.5,0.5-3.4,1.3
		c-1,0.9-1.7,2.2-2.2,4.1c0.9,0,1.9,0,2.8-0.1c1,0,1.9-0.2,2.7-0.4c0.8-0.2,1.5-0.5,2-1c0.5-0.4,0.8-1.1,0.8-1.9
		c0-0.2,0-0.5-0.1-0.7c-0.1-0.3-0.2-0.5-0.4-0.7c-0.2-0.2-0.5-0.4-0.8-0.5C494.8,745.4,494.3,745.3,493.8,745.3z"/>
</g>
<linearGradient id="SVGID_1_" gradientUnits="userSpaceOnUse" x1="73" y1="404.7048" x2="780.47" y2="404.7048" gradientTransform="matrix(1 0 0 -1 0 793.8898)">
	<stop  offset="0" style="stop-color:#981869"/>
	<stop  offset="0.19" style="stop-color:#771B65"/>
	<stop  offset="0.4" style="stop-color:#591F62"/>
	<stop  offset="0.61" style="stop-color:#43215F"/>
	<stop  offset="0.81" style="stop-color:#36235E"/>
	<stop  offset="1" style="stop-color:#32245E"/>
</linearGradient>
<path class="st6" d="M81,120.4h691.5c4.4,0,8,3.6,8,8V650c0,4.4-3.6,8-8,8H81c-4.4,0-8-3.6-8-8V128.4C73,124,76.6,120.4,81,120.4z"
	/>
<g>
	<path class="st7" d="M401.4,683.8c4.3-4.1,10-6.7,16.5-6.7c13,0,23.6,10.6,23.6,23.6s-10.6,23.6-23.6,23.6s-23.6-10.6-23.6-23.6
		c0-5.4,1.8-10.3,4.8-14.3"/>
	<g>
		<path class="st8" d="M417.3,711.9h-8.5c-1.2,0-1.6-0.5-1.6-1.6v-13c0-1.2,0.5-1.6,1.6-1.6h17c1.1,0,1.5,0.5,1.5,1.5v13
			c0,1.1-0.5,1.5-1.5,1.5C423,712,420.1,711.9,417.3,711.9L417.3,711.9z"/>
		<path class="st8" d="M408.6,694.6c0.2-3.6,1.8-6.7,5.3-8.3c4-1.7,10-0.3,11.6,5.7c0.2,0.8,0.3,1.5,0.5,2.4"/>
		<path class="st9" d="M415.9,706.4L415.9,706.4v1.7c0,0.3,0.1,0.5,0.5,0.5h1.7c0.5,0,0.6-0.1,0.6-0.5v-3.2c0-0.3,0.1-0.6,0.5-0.8
			c1.2-0.7,1.5-1.8,1.2-2.9c-0.4-1.1-1.5-1.9-2.9-1.9c-1.5-0.1-2.7,0.7-3.2,1.7c-0.5,1.1-0.1,2.3,1.1,3c0.5,0.3,0.6,0.5,0.5,1
			C415.9,705.5,415.9,705.9,415.9,706.4L415.9,706.4z"/>
	</g>
</g>
<g>
	<path class="st7" d="M411.1,101.8c4.3-4.1,10-6.7,16.5-6.7c13,0,23.6,10.6,23.6,23.6s-10.6,23.6-23.6,23.6s-23.6-10.6-23.6-23.6
		c0-5.4,1.8-10.3,4.8-14.3"/>
	<g>
		<path class="st8" d="M427,129.9h-8.5c-1.2,0-1.6-0.4-1.6-1.6v-13c0-1.2,0.5-1.6,1.6-1.6h17c1.1,0,1.5,0.4,1.5,1.6v13
			c0,1.1-0.5,1.6-1.5,1.6C432.6,130,429.8,129.9,427,129.9L427,129.9z"/>
		<path class="st8" d="M418.3,112.6c0.2-3.6,1.8-6.7,5.3-8.3c4-1.7,10-0.3,11.6,5.7c0.2,0.8,0.3,1.6,0.5,2.4"/>
		<path class="st9" d="M425.6,124.4L425.6,124.4v1.7c0,0.3,0.1,0.4,0.5,0.4h1.7c0.5,0,0.6-0.1,0.6-0.5v-3.2c0-0.3,0.1-0.6,0.5-0.8
			c1.2-0.7,1.5-1.8,1.2-2.9c-0.4-1.1-1.5-1.9-2.9-1.9c-1.5-0.1-2.7,0.7-3.2,1.7c-0.5,1.1-0.1,2.3,1.1,3c0.5,0.3,0.6,0.5,0.5,1
			C425.6,123.5,425.6,123.9,425.6,124.4L425.6,124.4z"/>
	</g>
</g>
<g>
	<path class="st10" d="M1133.5,722.8h-10.4c-1.4,0-2-0.5-2-2V705c0-1.4,0.6-2,2-2h20.8c1.3,0,1.9,0.5,1.9,1.9v16
		c0,1.3-0.6,1.9-1.9,1.9C1140.4,722.9,1136.9,722.8,1133.5,722.8L1133.5,722.8z"/>
	<path class="st10" d="M1123.6,701c-4.1-1.7-7.1-4.7-7.5-9.4c-0.4-5.3,3.6-11.7,11.2-11.2c1,0.1,1.9,0.3,2.9,0.4"/>
	<path class="st11" d="M1131.8,716L1131.8,716v2.1c0,0.4,0.2,0.5,0.6,0.5h2.1c0.6,0,0.7-0.2,0.7-0.6v-4c0-0.4,0.1-0.7,0.6-1
		c1.4-0.8,1.9-2.2,1.5-3.5c-0.5-1.3-1.8-2.3-3.6-2.4c-1.8-0.1-3.3,0.8-3.9,2.1c-0.6,1.3-0.1,2.8,1.3,3.7c0.6,0.3,0.7,0.6,0.6,1.2
		C1131.8,714.9,1131.8,715.5,1131.8,716L1131.8,716z"/>
</g>
<g class="st3">
	<path class="st4" d="M1043.1,742.4l-2.5,12c-0.1,0.6-0.2,1.2-0.2,1.8c0,0.7,0.1,1.2,0.4,1.7c0.3,0.4,0.7,0.7,1.4,0.7
		c0.6,0,1.2-0.1,1.7-0.4c0.6-0.3,1.2-0.7,1.7-1.1s1-1,1.5-1.5c0.4-0.6,0.8-1.1,1.1-1.6l2.4-11.4h2.7l-2.3,10.7
		c-0.1,0.4-0.2,0.9-0.3,1.5c-0.1,0.6-0.2,1.2-0.3,1.9c-0.1,0.6-0.2,1.3-0.2,1.9c0,0.6-0.1,1.1-0.1,1.6v0.5h-2.1V757h-0.1
		c-0.4,0.5-0.8,0.9-1.2,1.4s-1,0.9-1.5,1.2c-0.6,0.4-1.2,0.7-1.8,0.9c-0.6,0.2-1.3,0.3-2.1,0.3c-0.5,0-1-0.1-1.5-0.2
		s-0.8-0.3-1.2-0.6c-0.3-0.3-0.6-0.7-0.8-1.2c-0.2-0.5-0.3-1.1-0.3-1.9c0-0.8,0.1-1.8,0.4-2.8l2.4-11.7H1043.1z"/>
	<path class="st4" d="M1065.8,760.4l2.4-11.4c0.1-0.4,0.2-0.9,0.3-1.3c0.1-0.4,0.1-0.8,0.1-1.1c0-0.7-0.2-1.3-0.5-1.7
		c-0.3-0.4-0.9-0.6-1.8-0.6c-0.6,0-1.2,0.1-1.8,0.4s-1.2,0.7-1.7,1.1c-0.5,0.4-1,0.9-1.4,1.5c-0.4,0.5-0.8,1.1-1.1,1.6l-2.4,11.5
		h-2.7l3.8-18h1.9l-0.1,3.1h0.1c0.3-0.4,0.7-0.8,1.1-1.2c0.4-0.4,0.9-0.8,1.5-1.1c0.5-0.3,1.1-0.6,1.8-0.8c0.7-0.2,1.4-0.3,2.2-0.3
		c1.2,0,2.1,0.3,2.8,0.9c0.7,0.6,1,1.6,1,3c0,0.7-0.1,1.6-0.3,2.6l-2.6,12H1065.8z"/>
	<path class="st4" d="M1075.2,742.4h2.7l0.8-3.6l2.9-0.8l-0.9,4.4h4.7l-0.5,2.3h-4.7l-2.3,10.9c0,0.3-0.1,0.6-0.1,0.8
		c0,0.2-0.1,0.5-0.1,0.6c0,0.6,0.1,1,0.4,1.2c0.3,0.2,0.7,0.3,1.2,0.3c0.6,0,1.1-0.1,1.6-0.2c0.5-0.1,1-0.4,1.4-0.6v2.2
		c-0.5,0.3-1.2,0.5-1.9,0.7s-1.5,0.3-2.3,0.3c-2.2,0-3.3-1-3.3-3c0-0.4,0.1-0.9,0.2-1.5l2.4-11.6h-2.7L1075.2,742.4z"/>
	<path class="st4" d="M1097,744.8c-0.2,0-0.4-0.1-0.7-0.1c-0.2,0-0.4,0-0.6,0c-1.2,0-2.3,0.4-3.2,1.2c-0.9,0.8-1.6,1.7-2.1,2.8
		l-2.5,11.8h-2.7l3.8-18h1.9v3.1h0.1c0.3-0.5,0.6-0.9,0.9-1.3c0.3-0.4,0.7-0.8,1.1-1.1c0.4-0.3,0.9-0.6,1.3-0.7
		c0.5-0.2,1-0.3,1.6-0.3c0.5,0,1.1,0.1,1.7,0.3L1097,744.8z"/>
	<path class="st4" d="M1103.4,742.4l-2.5,12c-0.1,0.6-0.2,1.2-0.2,1.8c0,0.7,0.1,1.2,0.4,1.7c0.3,0.4,0.7,0.7,1.4,0.7
		c0.6,0,1.2-0.1,1.7-0.4c0.6-0.3,1.2-0.7,1.7-1.1s1-1,1.5-1.5c0.4-0.6,0.8-1.1,1.1-1.6l2.4-11.4h2.7l-2.3,10.7
		c-0.1,0.4-0.2,0.9-0.3,1.5c-0.1,0.6-0.2,1.2-0.3,1.9c-0.1,0.6-0.2,1.3-0.2,1.9c0,0.6-0.1,1.1-0.1,1.6v0.5h-2.1V757h-0.1
		c-0.4,0.5-0.8,0.9-1.2,1.4s-1,0.9-1.5,1.2c-0.6,0.4-1.2,0.7-1.8,0.9c-0.6,0.2-1.3,0.3-2.1,0.3c-0.5,0-1-0.1-1.5-0.2
		s-0.8-0.3-1.2-0.6c-0.3-0.3-0.6-0.7-0.8-1.2c-0.2-0.5-0.3-1.1-0.3-1.9c0-0.8,0.1-1.8,0.4-2.8l2.4-11.7H1103.4z"/>
	<path class="st4" d="M1123.4,755.3c0-0.6-0.2-1.2-0.5-1.6c-0.3-0.4-0.7-0.8-1.2-1.2s-1-0.7-1.5-1c-0.6-0.3-1.1-0.7-1.5-1.1
		c-0.5-0.4-0.9-0.9-1.2-1.5c-0.3-0.6-0.5-1.3-0.5-2.1c0-0.7,0.2-1.3,0.5-1.9c0.3-0.6,0.8-1.1,1.3-1.5c0.6-0.4,1.2-0.8,2-1
		c0.8-0.3,1.6-0.4,2.5-0.4c1.3,0,2.3,0.1,3,0.3s1.3,0.4,1.9,0.7l-0.9,2.2c-1-0.6-2.3-0.8-3.9-0.8c-1,0-1.8,0.2-2.5,0.6s-1,1.1-1,1.9
		c0,0.5,0.2,0.9,0.5,1.3c0.3,0.4,0.7,0.7,1.2,1.1c0.5,0.3,1,0.7,1.5,1s1.1,0.7,1.5,1.2c0.5,0.4,0.9,1,1.2,1.6
		c0.3,0.6,0.5,1.3,0.5,2.1c0,1.9-0.6,3.3-1.9,4.3c-1.3,1-2.9,1.5-5.1,1.5c-1.1,0-2.1-0.1-3-0.3c-0.9-0.2-1.6-0.5-2.2-0.8l1-2.3
		c0.5,0.3,1.1,0.6,1.9,0.8s1.6,0.3,2.4,0.3c1.2,0,2.1-0.3,2.8-0.8C1123.1,757.3,1123.4,756.4,1123.4,755.3z"/>
	<path class="st4" d="M1131,742.4h2.7l0.8-3.6l2.9-0.8l-0.9,4.4h4.7l-0.5,2.3h-4.7l-2.3,10.9c0,0.3-0.1,0.6-0.1,0.8
		c0,0.2-0.1,0.5-0.1,0.6c0,0.6,0.1,1,0.4,1.2c0.3,0.2,0.7,0.3,1.2,0.3c0.6,0,1.1-0.1,1.6-0.2c0.5-0.1,1-0.4,1.4-0.6v2.2
		c-0.5,0.3-1.2,0.5-1.9,0.7s-1.5,0.3-2.3,0.3c-2.2,0-3.3-1-3.3-3c0-0.4,0.1-0.9,0.2-1.5l2.4-11.6h-2.7L1131,742.4z"/>
	<path class="st4" d="M1153.7,758.7c-0.8,0.7-1.8,1.3-3,1.6c-1.1,0.4-2.3,0.6-3.4,0.6c-1.9,0-3.4-0.6-4.3-1.7s-1.5-2.6-1.5-4.6
		s0.3-3.7,0.8-5.3c0.6-1.6,1.3-2.9,2.2-4s1.9-1.9,3.1-2.5c1.1-0.6,2.3-0.9,3.5-0.9c0.9,0,1.6,0.1,2.2,0.4c0.6,0.2,1.2,0.6,1.6,1
		c0.4,0.4,0.7,0.9,0.9,1.4c0.2,0.5,0.3,1.1,0.3,1.6c0,1.7-0.8,3-2.5,4c-1.7,1-4.1,1.5-7.2,1.5c-0.3,0-0.6,0-0.9,0
		c-0.3,0-0.6,0-1-0.1c-0.1,0.5-0.2,0.9-0.2,1.3s-0.1,0.8-0.1,1.1c0,1.3,0.3,2.4,0.9,3.2s1.5,1.2,2.8,1.2c1.1,0,2-0.2,2.9-0.5
		s1.6-0.7,2-1.1L1153.7,758.7z M1150.6,744.3c-1.3,0-2.5,0.5-3.4,1.3c-1,0.9-1.7,2.2-2.2,4.1c0.9,0,1.9,0,2.8-0.1
		c1,0,1.9-0.2,2.7-0.4s1.5-0.5,2-1c0.5-0.4,0.8-1.1,0.8-1.9c0-0.2,0-0.5-0.1-0.7s-0.2-0.5-0.4-0.7s-0.5-0.4-0.8-0.5
		C1151.6,744.4,1151.2,744.3,1150.6,744.3z"/>
	<path class="st4" d="M1171.4,754.2c-0.2,0.9-0.3,1.8-0.4,2.6c-0.1,0.8-0.1,1.6-0.1,2.3c0,0.3,0,0.5,0,0.7s0,0.4,0.1,0.6h-1.8
		l-0.5-3.1h-0.1c-0.3,0.4-0.6,0.8-1.1,1.2c-0.4,0.4-0.9,0.8-1.4,1.1c-0.5,0.3-1.1,0.6-1.7,0.8c-0.6,0.2-1.2,0.3-1.8,0.3
		c-1.3,0-2.4-0.5-3.2-1.5c-0.8-1-1.2-2.5-1.2-4.6c0-1.4,0.2-2.9,0.6-4.4c0.4-1.5,1-2.9,1.8-4.1c0.8-1.2,1.8-2.2,3-3
		c1.2-0.8,2.6-1.2,4.1-1.2c0.4,0,0.8,0,1.1,0c0.3,0,0.6,0.1,0.9,0.1c0.3,0,0.5,0.1,0.8,0.2c0.2,0.1,0.5,0.2,0.8,0.3l1.6-7.5h2.7
		L1171.4,754.2z M1163.5,758.5c0.5,0,1-0.1,1.5-0.4c0.5-0.3,1-0.6,1.5-1s0.9-0.8,1.3-1.3s0.7-0.9,0.9-1.3l2-9.4
		c-0.4-0.3-0.9-0.5-1.4-0.6c-0.5-0.1-1.2-0.2-2-0.2c-1,0-1.8,0.3-2.6,0.9c-0.8,0.6-1.4,1.4-2,2.4c-0.5,1-1,2.1-1.2,3.4
		c-0.3,1.3-0.4,2.6-0.4,3.9c0,1,0.2,1.8,0.6,2.5C1162,758.2,1162.6,758.5,1163.5,758.5z"/>
	<path class="st4" d="M1193.6,755.3c0-0.6-0.2-1.2-0.5-1.6s-0.7-0.8-1.2-1.2c-0.5-0.3-1-0.7-1.5-1c-0.6-0.3-1.1-0.7-1.5-1.1
		c-0.5-0.4-0.9-0.9-1.2-1.5c-0.3-0.6-0.5-1.3-0.5-2.1c0-0.7,0.2-1.3,0.5-1.9c0.3-0.6,0.8-1.1,1.3-1.5c0.6-0.4,1.2-0.8,2-1
		c0.8-0.3,1.6-0.4,2.5-0.4c1.3,0,2.3,0.1,3,0.3c0.7,0.2,1.3,0.4,1.9,0.7l-0.9,2.2c-1-0.6-2.3-0.8-3.9-0.8c-1,0-1.8,0.2-2.5,0.6
		c-0.7,0.4-1,1.1-1,1.9c0,0.5,0.2,0.9,0.5,1.3c0.3,0.4,0.7,0.7,1.2,1.1c0.5,0.3,1,0.7,1.5,1c0.6,0.3,1.1,0.7,1.5,1.2
		c0.5,0.4,0.9,1,1.2,1.6c0.3,0.6,0.5,1.3,0.5,2.1c0,1.9-0.6,3.3-1.9,4.3c-1.3,1-2.9,1.5-5.1,1.5c-1.1,0-2.1-0.1-3-0.3
		c-0.9-0.2-1.6-0.5-2.2-0.8l1-2.3c0.5,0.3,1.1,0.6,1.9,0.8c0.8,0.2,1.6,0.3,2.4,0.3c1.2,0,2.1-0.3,2.8-0.8
		C1193.3,757.3,1193.6,756.4,1193.6,755.3z"/>
	<path class="st4" d="M1204.4,742.4h2.7l-3.8,18h-2.7L1204.4,742.4z M1205,736.9c0-0.6,0.2-1,0.6-1.4c0.4-0.4,0.8-0.6,1.4-0.6
		c0.6,0,1,0.2,1.4,0.6c0.4,0.4,0.6,0.9,0.6,1.4s-0.2,1-0.6,1.4c-0.4,0.4-0.9,0.6-1.4,0.6c-0.6,0-1-0.2-1.4-0.6
		C1205.1,737.9,1205,737.5,1205,736.9z"/>
	<path class="st4" d="M1210.5,742.4h2.7l0.8-3.6l2.9-0.8l-0.9,4.4h4.7l-0.5,2.3h-4.7l-2.3,10.9c0,0.3-0.1,0.6-0.1,0.8
		c0,0.2-0.1,0.5-0.1,0.6c0,0.6,0.1,1,0.4,1.2c0.3,0.2,0.7,0.3,1.2,0.3c0.6,0,1.1-0.1,1.6-0.2c0.5-0.1,1-0.4,1.4-0.6v2.2
		c-0.5,0.3-1.2,0.5-1.9,0.7s-1.5,0.3-2.3,0.3c-2.2,0-3.3-1-3.3-3c0-0.4,0.1-0.9,0.2-1.5l2.4-11.6h-2.7L1210.5,742.4z"/>
	<path class="st4" d="M1233.2,758.7c-0.8,0.7-1.8,1.3-3,1.6c-1.1,0.4-2.3,0.6-3.4,0.6c-1.9,0-3.4-0.6-4.3-1.7s-1.5-2.6-1.5-4.6
		s0.3-3.7,0.8-5.3c0.6-1.6,1.3-2.9,2.2-4s1.9-1.9,3.1-2.5c1.1-0.6,2.3-0.9,3.5-0.9c0.9,0,1.6,0.1,2.2,0.4c0.6,0.2,1.2,0.6,1.6,1
		c0.4,0.4,0.7,0.9,0.9,1.4c0.2,0.5,0.3,1.1,0.3,1.6c0,1.7-0.8,3-2.5,4c-1.7,1-4.1,1.5-7.2,1.5c-0.3,0-0.6,0-0.9,0
		c-0.3,0-0.6,0-1-0.1c-0.1,0.5-0.2,0.9-0.2,1.3s-0.1,0.8-0.1,1.1c0,1.3,0.3,2.4,0.9,3.2s1.5,1.2,2.8,1.2c1.1,0,2-0.2,2.9-0.5
		s1.6-0.7,2-1.1L1233.2,758.7z M1230.2,744.3c-1.3,0-2.5,0.5-3.4,1.3c-1,0.9-1.7,2.2-2.2,4.1c0.9,0,1.9,0,2.8-0.1
		c1,0,1.9-0.2,2.7-0.4s1.5-0.5,2-1c0.5-0.4,0.8-1.1,0.8-1.9c0-0.2,0-0.5-0.1-0.7s-0.2-0.5-0.4-0.7s-0.5-0.4-0.8-0.5
		C1231.1,744.4,1230.7,744.3,1230.2,744.3z"/>
</g>
<g>
	<g class="st3">
		<path class="st4" d="M1090.7,530.2l-3.6,0l-0.5-3.3c-0.5-0.5-1.1-0.9-1.8-1.2c-0.7-0.3-1.6-0.4-2.6-0.4c-2.1,0-3.8,0.8-4.9,2.3
			c-1.1,1.6-1.7,3.6-1.7,6.1l0,0.9c0,2.5,0.6,4.5,1.7,6.1c1.1,1.6,2.7,2.4,4.8,2.4c1,0,1.8-0.1,2.6-0.4c0.8-0.3,1.4-0.7,1.9-1.2
			l0.5-3.3l3.6,0l0,4.9c-1,1.2-2.2,2.1-3.8,2.8c-1.5,0.7-3.2,1-5.1,1c-3.3,0-6-1.1-8-3.4c-2.1-2.3-3.1-5.2-3.1-8.8l0-0.8
			c0-3.6,1-6.5,3.1-8.8c2.1-2.3,4.8-3.5,8.1-3.5c1.9,0,3.6,0.3,5.1,1c1.5,0.7,2.8,1.6,3.8,2.8L1090.7,530.2z"/>
		<path class="st4" d="M1092.7,543.5l1.7-0.3l7.4-21.4l5,0l7.4,21.4l1.7,0.3l0,3l-8.3,0l0-3l1.7-0.3l-1.1-3.4l-7.9,0l-1.1,3.4
			l1.7,0.3l0,3l-8.3,0L1092.7,543.5z M1101.6,536.2l5.6,0l-2.7-8.7h-0.1L1101.6,536.2z"/>
		<path class="st4" d="M1136.1,529.7l-3.7,0l-0.6-3.4c-0.4-0.3-1-0.5-1.9-0.7c-0.8-0.2-1.7-0.3-2.6-0.3c-1.3,0-2.4,0.3-3.1,0.9
			c-0.7,0.6-1.1,1.3-1.1,2.2c0,0.8,0.4,1.5,1.1,2.1c0.8,0.5,2.1,1.1,4,1.7c2.7,0.8,4.7,1.8,6.1,3c1.4,1.2,2.1,2.9,2.1,4.9
			c0,2.1-0.8,3.8-2.5,5c-1.7,1.2-3.8,1.8-6.5,1.8c-1.9,0-3.7-0.3-5.2-0.9c-1.6-0.6-2.9-1.5-3.9-2.6l0-5.1l3.8,0l0.5,3.5
			c0.5,0.4,1.2,0.7,2,1s1.8,0.4,2.8,0.4c1.3,0,2.4-0.3,3.1-0.8c0.7-0.6,1-1.3,1-2.2c0-0.9-0.3-1.7-1-2.3c-0.7-0.6-1.8-1.1-3.5-1.6
			c-2.9-0.8-5.1-1.8-6.6-3s-2.2-2.8-2.2-4.8c0-2,0.8-3.6,2.5-4.9c1.7-1.3,3.8-1.9,6.3-2c1.9,0,3.6,0.3,5.1,0.9
			c1.5,0.6,2.8,1.3,3.9,2.3L1136.1,529.7z"/>
	</g>
	<g>
		<path class="st12" d="M1185.4,523.9h-16.7c-0.8-3.4-3.9-5.9-7.5-5.9c-4.3,0-7.7,3.5-7.7,7.7s3.5,7.7,7.7,7.7
			c3.6,0,6.7-2.5,7.5-5.9h4.9l2.2,2.2l2.2-2.2h0.3l1.4,1.4l1.3-1.3l2.1,2.1l2.4-2.4l1.8-1.6L1185.4,523.9L1185.4,523.9z
			 M1158.2,527.8c-1.1,0-2.1-0.9-2.1-2s0.9-2,2.1-2s2.1,0.9,2.1,2S1159.4,527.8,1158.2,527.8z"/>
		<path class="st13" d="M1185.4,532.8h-16.7c-0.8-3.4-3.9-5.9-7.5-5.9c-4.3,0-7.7,3.5-7.7,7.7s3.5,7.7,7.7,7.7
			c3.6,0,6.7-2.5,7.5-5.9h4.9l2.2,2.2l2.2-2.2h0.3l1.4,1.4l1.3-1.3l2.1,2.1l2.4-2.4l1.8-1.6L1185.4,532.8L1185.4,532.8z
			 M1158.2,536.7c-1.1,0-2.1-0.9-2.1-2s0.9-2,2.1-2s2.1,0.9,2.1,2S1159.4,536.7,1158.2,536.7z"/>
		<path class="st9" d="M1185.4,541.7h-16.7c-0.8-3.4-3.9-5.9-7.5-5.9c-4.3,0-7.7,3.5-7.7,7.7s3.5,7.7,7.7,7.7c3.6,0,6.7-2.5,7.5-5.9
			h4.9l2.2,2.2l2.2-2.2h0.3l1.4,1.4l1.3-1.3l2.1,2.1l2.4-2.4l1.8-1.6L1185.4,541.7L1185.4,541.7z M1158.2,545.6
			c-1.1,0-2.1-0.9-2.1-2s0.9-2,2.1-2s2.1,0.9,2.1,2S1159.4,545.6,1158.2,545.6z"/>
	</g>
</g>
<path class="st14" d="M983.6,497.3h290c2.8,0,5,2.2,5,5v60.9c0,2.8-2.2,5-5,5h-290c-2.8,0-5-2.2-5-5v-60.9
	C978.6,499.5,980.8,497.3,983.6,497.3z"/>
<g class="st3">
	<path class="st4" d="M422.9,353.1l-3.1,0l-0.4-2.8c-0.4-0.4-0.9-0.8-1.6-1c-0.6-0.2-1.4-0.4-2.2-0.4c-1.8,0-3.3,0.7-4.2,2
		c-1,1.3-1.5,3.1-1.5,5.3v0.7c0,2.2,0.5,3.9,1.5,5.3c1,1.4,2.4,2,4.2,2c0.8,0,1.6-0.1,2.3-0.4c0.7-0.2,1.2-0.6,1.6-1l0.4-2.8l3.1,0
		l0,4.2c-0.9,1-1.9,1.8-3.3,2.4c-1.3,0.6-2.8,0.9-4.4,0.9c-2.8,0-5.2-1-7-3s-2.7-4.5-2.7-7.6v-0.7c0-3.1,0.9-5.6,2.7-7.6
		c1.8-2,4.1-3,7-3c1.6,0,3.1,0.3,4.4,0.9c1.3,0.6,2.4,1.4,3.3,2.4L422.9,353.1z"/>
	<path class="st4" d="M424.8,367.2l0-2.6l2.2-0.4l0-15.3l-2.2-0.4v-2.6l2.2,0l4.2,0l2.3,0v2.6l-2.3,0.4l0,15l6,0l0.2-2.7l3.2,0l0,6
		L424.8,367.2z"/>
	<path class="st4" d="M442.2,348.4v-2.6l8.7,0v2.6l-2.3,0.4l0,15.3l2.3,0.4l0,2.6l-8.7,0l0-2.6l2.3-0.4l0-15.3L442.2,348.4z"/>
</g>
<path class="st15" d="M339.3,320.7H517c2.8,0,5,2.2,5,5V394c0,2.8-2.2,5-5,5H339.3c-2.8,0-5-2.2-5-5v-68.3
	C334.3,322.9,336.5,320.7,339.3,320.7z"/>
<g class="st3">
	<path class="st4" d="M1114.9,353.1l-3.1,0l-0.4-2.8c-0.4-0.4-0.9-0.8-1.6-1c-0.6-0.2-1.4-0.4-2.2-0.4c-1.8,0-3.3,0.7-4.2,2
		c-1,1.3-1.5,3.1-1.5,5.3v0.7c0,2.2,0.5,3.9,1.5,5.3c1,1.4,2.4,2,4.2,2c0.8,0,1.6-0.1,2.3-0.4c0.7-0.2,1.2-0.6,1.6-1l0.4-2.8l3.1,0
		l0,4.2c-0.9,1-1.9,1.8-3.3,2.4c-1.3,0.6-2.8,0.9-4.4,0.9c-2.8,0-5.2-1-7-3c-1.8-2-2.7-4.5-2.7-7.6v-0.7c0-3.1,0.9-5.6,2.7-7.6
		c1.8-2,4.1-3,7-3c1.6,0,3.1,0.3,4.4,0.9c1.3,0.6,2.4,1.4,3.3,2.4L1114.9,353.1z"/>
	<path class="st4" d="M1116.8,367.2l0-2.6l2.2-0.4l0-15.3l-2.2-0.4v-2.6l2.2,0l4.2,0h2.3v2.6l-2.3,0.4l0,15l6,0l0.2-2.7l3.2,0l0,6
		L1116.8,367.2z"/>
	<path class="st4" d="M1134.2,348.4v-2.6l8.7,0v2.6l-2.3,0.4l0,15.3l2.3,0.4l0,2.6l-8.7,0l0-2.6l2.3-0.4l0-15.3L1134.2,348.4z"/>
</g>
<path class="st15" d="M1031.3,320.7H1209c2.8,0,5,2.2,5,5V394c0,2.8-2.2,5-5,5h-177.7c-2.8,0-5-2.2-5-5v-68.3
	C1026.3,322.9,1028.5,320.7,1031.3,320.7z"/>
<g class="st3">
	<path class="st4" d="M385.6,206.9l0-2.6l6.1,0l0.2,1.8c0.5-0.7,1-1.2,1.7-1.6c0.6-0.4,1.4-0.6,2.3-0.6c1.9,0,3.5,0.8,4.5,2.3
		c1.1,1.5,1.6,3.5,1.6,6v0.3c0,2.3-0.5,4.2-1.6,5.7c-1.1,1.4-2.6,2.1-4.5,2.1c-0.8,0-1.6-0.2-2.2-0.5c-0.6-0.3-1.2-0.8-1.6-1.4
		l0,4.6l2,0.4v2.6l-8.3,0v-2.6l2-0.4l0-15.9L385.6,206.9z M397.8,212.4c0-1.5-0.2-2.7-0.7-3.6c-0.5-0.9-1.2-1.4-2.3-1.4
		c-0.6,0-1.2,0.1-1.6,0.4c-0.4,0.3-0.8,0.6-1.1,1.1l0,6.9c0.3,0.4,0.6,0.8,1.1,1c0.5,0.2,1,0.4,1.7,0.4c1,0,1.8-0.4,2.3-1.2
		c0.5-0.8,0.7-1.9,0.7-3.3V212.4z"/>
</g>
<g class="st3">
	<path class="st4" d="M403.9,212.1c0-2.4,0.7-4.3,2-5.8c1.3-1.5,3.1-2.3,5.4-2.3c2.3,0,4.1,0.8,5.4,2.3c1.3,1.5,2,3.4,2,5.8v0.3
		c0,2.4-0.7,4.3-2,5.8c-1.3,1.5-3.1,2.2-5.4,2.2c-2.3,0-4.2-0.7-5.5-2.2c-1.3-1.5-2-3.4-2-5.8V212.1z M408.1,212.4
		c0,1.4,0.3,2.6,0.8,3.5c0.5,0.9,1.3,1.3,2.4,1.3c1.1,0,1.9-0.4,2.4-1.3s0.8-2,0.8-3.5v-0.3c0-1.4-0.3-2.6-0.8-3.4s-1.3-1.3-2.4-1.3
		c-1.1,0-1.9,0.4-2.4,1.3s-0.8,2-0.8,3.4V212.4z"/>
</g>
<g class="st3">
	<path class="st4" d="M419.8,199.9l0-2.6l6.5,0l0,19.8l2,0.4v2.6l-8.3,0v-2.6l2-0.4l0-16.8L419.8,199.9z"/>
	<path class="st4" d="M429.6,217.6l2-0.4l0-9.8l-2.3-0.4l0-2.6l6.5,0l0,12.8l2,0.4v2.6l-8.3,0V217.6z M435.9,200.5l-4.2,0l0-3.2
		l4.2,0L435.9,200.5z"/>
	<path class="st4" d="M446.7,217.2c0.8,0,1.4-0.2,1.8-0.7c0.5-0.4,0.7-1,0.7-1.8l3.8,0l0,0.1c0,1.6-0.6,2.9-1.8,4
		c-1.2,1.1-2.8,1.6-4.6,1.6c-2.3,0-4.1-0.7-5.4-2.2c-1.3-1.5-1.9-3.4-1.9-5.8v-0.4c0-2.3,0.6-4.3,1.9-5.8c1.3-1.5,3.2-2.3,5.6-2.3
		c1.3,0,2.4,0.2,3.4,0.6c1,0.4,1.8,0.9,2.5,1.6l0.1,4.2l-3.4,0l-0.7-2.5c-0.2-0.2-0.5-0.3-0.8-0.5s-0.7-0.2-1.1-0.2
		c-1.2,0-2,0.4-2.5,1.3c-0.5,0.9-0.7,2-0.7,3.4v0.4c0,1.4,0.2,2.6,0.7,3.4C444.7,216.8,445.5,217.2,446.7,217.2z"/>
	<path class="st4" d="M471.2,206.9l-1.5,0.2l-5.8,15.4c-0.5,1.1-1.1,2.1-1.8,2.9c-0.8,0.8-1.9,1.2-3.4,1.2c-0.4,0-0.7,0-1-0.1
		c-0.3-0.1-0.7-0.1-1.1-0.2l0.5-3.1c0.1,0,0.3,0,0.4,0.1c0.1,0,0.3,0,0.4,0c0.7,0,1.2-0.2,1.6-0.5c0.4-0.3,0.7-0.8,0.9-1.3l0.5-1.2
		l-5-13.1l-1.5-0.2l0-2.6l7.7,0l0,2.6l-1.8,0.3l2.1,6.3l0.2,1.1l0.1,0l2.5-7.5l-1.8-0.3l0-2.6l7.7,0L471.2,206.9z"/>
</g>
<g class="st3">
	<path class="st4" d="M329.9,510.9v-2.6l6.1,0l0.2,1.8c0.5-0.7,1-1.2,1.7-1.6s1.4-0.6,2.3-0.6c1.9,0,3.5,0.8,4.5,2.3s1.6,3.5,1.6,6
		v0.3c0,2.3-0.5,4.2-1.6,5.7c-1.1,1.4-2.6,2.1-4.5,2.1c-0.8,0-1.6-0.2-2.2-0.5c-0.6-0.3-1.2-0.8-1.6-1.4l0,4.6l2,0.4l0,2.6l-8.3,0
		l0-2.6l2-0.4l0-15.9L329.9,510.9z M342,516.4c0-1.5-0.2-2.7-0.7-3.6c-0.5-0.9-1.2-1.4-2.3-1.4c-0.6,0-1.2,0.1-1.6,0.4
		c-0.4,0.3-0.8,0.6-1.1,1.1l0,6.9c0.3,0.4,0.6,0.8,1.1,1c0.5,0.2,1,0.4,1.7,0.4c1,0,1.8-0.4,2.3-1.2c0.5-0.8,0.7-1.9,0.7-3.3V516.4z
		"/>
	<path class="st4" d="M359.1,522.2c-0.5,0.7-1.1,1.3-1.9,1.7c-0.7,0.4-1.6,0.6-2.5,0.6c-1.7,0-2.9-0.5-3.9-1.6
		c-0.9-1.1-1.4-2.7-1.4-5l0-6.5l-1.7-0.4v-2.6h1.7l4.2,0l0,9.6c0,1.2,0.2,2,0.6,2.5s1,0.8,1.7,0.8c0.7,0,1.2-0.1,1.7-0.3
		c0.5-0.2,0.9-0.5,1.2-0.9l0-8.5l-1.9-0.4v-2.6l1.9,0h4.2l0,12.8l1.9,0.4l0,2.6l-5.6,0L359.1,522.2z"/>
</g>
<g class="st3">
	<path class="st4" d="M381.9,516.7c0,2.4-0.5,4.3-1.6,5.7c-1,1.4-2.6,2.1-4.5,2.1c-0.9,0-1.7-0.2-2.4-0.6c-0.7-0.4-1.2-0.9-1.7-1.7
		l-0.3,1.9l-3.7,0l0-19.8l-2.2-0.4v-2.6l6.5,0l0,8.7c0.5-0.6,1-1.1,1.6-1.5c0.6-0.3,1.4-0.5,2.2-0.5c2,0,3.5,0.8,4.6,2.3
		c1,1.5,1.6,3.5,1.6,6.1V516.7z M377.6,516.4c0-1.5-0.2-2.8-0.7-3.7c-0.5-0.9-1.2-1.4-2.3-1.4c-0.7,0-1.2,0.1-1.7,0.4
		c-0.5,0.3-0.8,0.7-1.1,1.2l0,6.7c0.3,0.5,0.6,0.9,1.1,1.1c0.5,0.3,1,0.4,1.7,0.4c1.1,0,1.9-0.4,2.3-1.2c0.4-0.8,0.7-1.9,0.7-3.3
		V516.4z"/>
</g>
<g class="st3">
	<path class="st4" d="M383.1,503.9v-2.6l6.5,0l0,19.8l2,0.4l0,2.6l-8.3,0l0-2.6l2-0.4l0-16.8L383.1,503.9z"/>
	<path class="st4" d="M392.9,521.6l2-0.4l0-9.8l-2.3-0.4v-2.6l6.5,0l0,12.8l2,0.4l0,2.6l-8.3,0L392.9,521.6z M399.1,504.6l-4.2,0
		v-3.2l4.2,0V504.6z"/>
	<path class="st4" d="M409.9,521.2c0.8,0,1.4-0.2,1.8-0.7c0.5-0.4,0.7-1,0.7-1.8l3.8,0l0,0.1c0,1.6-0.6,2.9-1.8,4
		c-1.2,1.1-2.8,1.6-4.6,1.6c-2.3,0-4.1-0.7-5.4-2.2c-1.3-1.5-1.9-3.4-1.9-5.8v-0.4c0-2.3,0.6-4.3,1.9-5.8c1.3-1.5,3.2-2.3,5.6-2.3
		c1.3,0,2.4,0.2,3.4,0.6c1,0.4,1.8,0.9,2.5,1.6l0.1,4.2l-3.4,0L412,512c-0.2-0.2-0.5-0.3-0.8-0.5c-0.3-0.1-0.7-0.2-1.1-0.2
		c-1.2,0-2,0.4-2.5,1.3c-0.5,0.9-0.7,2-0.7,3.4v0.4c0,1.4,0.2,2.6,0.7,3.4C408,520.8,408.8,521.2,409.9,521.2z"/>
	<path class="st4" d="M420.1,526l-3.1,0l7.7-23.2l3.1,0L420.1,526z"/>
	<path class="st4" d="M428.7,510.9v-2.6l6.1,0l0.2,1.8c0.5-0.7,1-1.2,1.7-1.6s1.4-0.6,2.3-0.6c1.9,0,3.5,0.8,4.5,2.3s1.6,3.5,1.6,6
		v0.3c0,2.3-0.5,4.2-1.6,5.7c-1.1,1.4-2.6,2.1-4.5,2.1c-0.8,0-1.6-0.2-2.2-0.5c-0.6-0.3-1.2-0.8-1.6-1.4l0,4.6l2,0.4l0,2.6l-8.3,0
		l0-2.6l2-0.4l0-15.9L428.7,510.9z M440.9,516.4c0-1.5-0.2-2.7-0.7-3.6c-0.5-0.9-1.2-1.4-2.3-1.4c-0.6,0-1.2,0.1-1.6,0.4
		c-0.4,0.3-0.8,0.6-1.1,1.1l0,6.9c0.3,0.4,0.6,0.8,1.1,1c0.5,0.2,1,0.4,1.7,0.4c1,0,1.8-0.4,2.3-1.2s0.7-1.9,0.7-3.3V516.4z"/>
	<path class="st4" d="M447.4,521.6l2-0.4l0-9.8l-2.2-0.4v-2.6l6.2,0l0.2,2.3c0.4-0.8,0.8-1.5,1.4-1.9s1.3-0.7,2-0.7
		c0.2,0,0.5,0,0.7,0.1c0.2,0,0.5,0.1,0.6,0.1l-0.4,3.9l-1.7,0c-0.6,0-1.1,0.1-1.5,0.4c-0.4,0.2-0.7,0.6-0.9,1l0,7.7l2,0.4l0,2.6
		l-8.3,0L447.4,521.6z"/>
	<path class="st4" d="M459.4,521.6l2-0.4l0-9.8l-2.3-0.4v-2.6l6.5,0l0,12.8l2,0.4l0,2.6l-8.3,0L459.4,521.6z M465.7,504.5l-4.2,0
		v-3.2l4.2,0V504.5z"/>
</g>
<g class="st3">
	<path class="st4" d="M475.8,510.9l-1.5,0.3l2.1,7.1l0.3,1.5h0.1l0.3-1.5l2-7.1l-1.5-0.3v-2.6l7.1,0v2.6l-1.4,0.2l-4.6,13.1l-4,0
		l-4.6-13.1l-1.4-0.2v-2.6l7.1,0V510.9z"/>
</g>
<g class="st3">
	<path class="st4" d="M495.8,524.2c-0.1-0.3-0.2-0.5-0.3-0.8c-0.1-0.3-0.2-0.6-0.2-0.8c-0.5,0.6-1.1,1.1-1.8,1.4
		c-0.7,0.4-1.5,0.5-2.5,0.5c-1.5,0-2.8-0.4-3.7-1.3c-0.9-0.8-1.4-2-1.4-3.4c0-1.5,0.6-2.6,1.8-3.4c1.2-0.8,2.9-1.2,5.2-1.2h2.2v-1.6
		c0-0.8-0.2-1.4-0.7-1.8c-0.4-0.4-1.1-0.6-1.9-0.6c-0.5,0-0.9,0.1-1.3,0.2c-0.4,0.1-0.7,0.2-0.9,0.4l-0.3,1.7h-3.2l0-3.5
		c0.8-0.5,1.7-1,2.7-1.3c1-0.4,2.1-0.5,3.3-0.5c1.9,0,3.5,0.5,4.7,1.4c1.2,1,1.8,2.3,1.8,4.1l0,6.5c0,0.2,0,0.5,0,0.7s0,0.4,0.1,0.6
		l1.3,0.2l0,2.6L495.8,524.2z M492.1,521.3c0.6,0,1.2-0.1,1.7-0.4c0.5-0.3,0.9-0.6,1.2-1l0-2.4h-2.2c-0.9,0-1.6,0.2-2,0.6
		c-0.5,0.4-0.7,0.9-0.7,1.5c0,0.5,0.2,1,0.5,1.3C491.1,521.2,491.5,521.3,492.1,521.3z"/>
</g>
<g class="st3">
	<path class="st4" d="M507.2,504.4l0,3.9l2.8,0v3l-2.8,0l0,8.1c0,0.6,0.1,1.1,0.4,1.3c0.3,0.3,0.6,0.4,1,0.4c0.3,0,0.5,0,0.8,0
		s0.5-0.1,0.7-0.1l0.4,3.1c-0.5,0.1-0.9,0.3-1.4,0.3c-0.5,0.1-1,0.1-1.5,0.1c-1.5,0-2.6-0.4-3.4-1.2c-0.8-0.8-1.2-2.1-1.2-3.9l0-8.1
		h-2.3v-3h2.3l0-3.9L507.2,504.4z"/>
	<path class="st4" d="M519.6,524.5c-2.3,0-4.1-0.7-5.4-2.2c-1.4-1.5-2-3.3-2-5.6v-0.6c0-2.4,0.6-4.3,1.9-5.8c1.3-1.5,3-2.3,5.2-2.3
		c2.1,0,3.8,0.6,4.9,1.9c1.2,1.3,1.8,3,1.8,5.2v2.3l-9.4,0l0,0.1c0.1,1,0.4,1.9,1,2.6c0.6,0.7,1.4,1,2.5,1c0.9,0,1.7-0.1,2.3-0.3
		c0.6-0.2,1.3-0.5,2-0.9l1.1,2.6c-0.6,0.5-1.5,1-2.5,1.3C522,524.3,520.8,524.5,519.6,524.5z M519.2,511.3c-0.8,0-1.4,0.3-1.9,0.9
		s-0.7,1.4-0.8,2.4l0,0.1l5.2,0v-0.4c0-0.9-0.2-1.6-0.6-2.2C520.7,511.6,520,511.3,519.2,511.3z"/>
</g>
<g class="st3">
	<path class="st4" d="M371.2,539.9v-2.6l6.5,0l0,13.2h0.9l2.4-3.5l-1.4-0.2l0-2.6l7.7,0l0,2.6l-1.9,0.4l-2.8,3.9l4,6l1.6,0.3v2.6
		l-7.2,0v-2.6l0.9-0.1l-2.4-3.9h-1.8l0,3.6l1.8,0.4v2.6l-8.1,0v-2.6l2-0.4l0-16.8L371.2,539.9z"/>
</g>
<g class="st3">
	<path class="st4" d="M397,560.5c-2.3,0-4.1-0.7-5.4-2.2c-1.4-1.5-2-3.3-2-5.6v-0.6c0-2.4,0.6-4.3,1.9-5.8c1.3-1.5,3-2.3,5.2-2.3
		c2.1,0,3.8,0.6,4.9,1.9c1.2,1.3,1.8,3,1.8,5.2l0,2.3l-9.4,0l0,0.1c0.1,1,0.4,1.9,1,2.6c0.6,0.7,1.4,1,2.5,1c0.9,0,1.7-0.1,2.3-0.3
		c0.6-0.2,1.3-0.5,2-0.9l1.1,2.6c-0.6,0.5-1.5,1-2.5,1.3C399.4,560.3,398.3,560.5,397,560.5z M396.6,547.4c-0.8,0-1.4,0.3-1.9,0.9
		c-0.5,0.6-0.7,1.4-0.8,2.4l0,0.1l5.2,0v-0.4c0-0.9-0.2-1.6-0.6-2.2C398.1,547.6,397.5,547.4,396.6,547.4z"/>
</g>
<g class="st3">
	<path class="st4" d="M421.4,546.9l-1.5,0.2l-5.8,15.4c-0.5,1.1-1.1,2.1-1.8,2.9c-0.8,0.8-1.9,1.2-3.4,1.2c-0.4,0-0.7,0-1-0.1
		c-0.3-0.1-0.7-0.1-1.1-0.2l0.5-3.1c0.1,0,0.3,0,0.4,0.1c0.1,0,0.3,0,0.4,0c0.7,0,1.2-0.2,1.6-0.5s0.7-0.8,0.9-1.3l0.5-1.2l-5-13.1
		l-1.5-0.2l0-2.6l7.7,0l0,2.6l-1.8,0.3l2.1,6.3l0.2,1.1l0.1,0l2.5-7.5l-1.8-0.3l0-2.6l7.7,0L421.4,546.9z"/>
	<path class="st4" d="M429.7,546.9l0-2.6l6.1,0l0.2,1.8c0.5-0.7,1-1.2,1.7-1.6s1.4-0.6,2.3-0.6c1.9,0,3.5,0.8,4.5,2.3
		c1.1,1.5,1.6,3.5,1.6,6v0.3c0,2.3-0.5,4.2-1.6,5.7c-1.1,1.4-2.6,2.1-4.5,2.1c-0.8,0-1.6-0.2-2.2-0.5c-0.6-0.3-1.2-0.8-1.6-1.4
		l0,4.6l2,0.4v2.6l-8.3,0v-2.6l2-0.4l0-15.9L429.7,546.9z M441.9,552.4c0-1.5-0.2-2.7-0.7-3.6c-0.5-0.9-1.2-1.4-2.3-1.4
		c-0.6,0-1.2,0.1-1.6,0.4c-0.4,0.3-0.8,0.6-1.1,1.1l0,6.9c0.3,0.4,0.6,0.8,1.1,1c0.5,0.2,1,0.4,1.7,0.4c1,0,1.8-0.4,2.3-1.2
		s0.7-1.9,0.7-3.3V552.4z"/>
	<path class="st4" d="M458,560.2c-0.1-0.3-0.2-0.5-0.3-0.8c-0.1-0.3-0.2-0.6-0.2-0.8c-0.5,0.6-1.1,1.1-1.8,1.4
		c-0.7,0.4-1.5,0.5-2.5,0.5c-1.5,0-2.8-0.4-3.7-1.3c-0.9-0.8-1.4-2-1.4-3.5c0-1.5,0.6-2.6,1.8-3.4c1.2-0.8,2.9-1.2,5.2-1.2h2.2v-1.6
		c0-0.8-0.2-1.4-0.7-1.8c-0.4-0.4-1.1-0.6-1.9-0.6c-0.5,0-0.9,0.1-1.3,0.2c-0.4,0.1-0.7,0.2-0.9,0.4l-0.3,1.7H449l0-3.5
		c0.8-0.5,1.7-1,2.7-1.3c1-0.4,2.1-0.5,3.3-0.5c1.9,0,3.5,0.5,4.7,1.4s1.8,2.3,1.8,4.1l0,6.5c0,0.2,0,0.5,0,0.7c0,0.2,0,0.4,0.1,0.6
		l1.3,0.2v2.6L458,560.2z M454.3,557.3c0.6,0,1.2-0.1,1.7-0.4c0.5-0.3,0.9-0.6,1.2-1v-2.4h-2.2c-0.9,0-1.6,0.2-2,0.6
		c-0.5,0.4-0.7,0.9-0.7,1.5c0,0.5,0.2,1,0.5,1.3C453.2,557.2,453.7,557.3,454.3,557.3z"/>
	<path class="st4" d="M464.2,557.6l2-0.4l0-9.8l-2.3-0.4l0-2.6l6.5,0l0,12.8l2,0.4v2.6l-8.3,0V557.6z M470.4,540.5l-4.2,0l0-3.2
		l4.2,0L470.4,540.5z"/>
	<path class="st4" d="M474.2,557.6l2-0.4l0-9.8l-2.2-0.4l0-2.6l6.2,0l0.2,2.3c0.4-0.8,0.8-1.5,1.4-1.9s1.3-0.7,2-0.7
		c0.2,0,0.5,0,0.7,0.1c0.2,0,0.5,0.1,0.6,0.1l-0.4,3.9l-1.7,0c-0.6,0-1.1,0.1-1.5,0.4s-0.7,0.6-0.9,1l0,7.7l2,0.4v2.6l-8.3,0V557.6z
		"/>
</g>
<g class="st3">
	<path class="st4" d="M249.7,57.6c-0.4,0.3-0.8,0.6-1.2,0.8c-0.5,0.2-0.9,0.4-1.4,0.6c-0.5,0.2-1,0.3-1.5,0.4
		c-0.5,0.1-0.9,0.1-1.4,0.1c-1.2,0-2.1-0.2-2.9-0.6c-0.8-0.4-1.4-0.8-1.8-1.4c-0.4-0.6-0.7-1.2-0.9-1.9s-0.3-1.3-0.3-1.9
		c0-2,0.3-3.9,0.8-5.5s1.3-3,2.2-4.1c0.9-1.1,2-2,3.2-2.6c1.2-0.6,2.4-0.9,3.7-0.9c0.9,0,1.7,0.1,2.2,0.3c0.6,0.2,1.1,0.4,1.6,0.6
		l-1,2.2c-0.4-0.2-0.9-0.4-1.5-0.6c-0.6-0.1-1.2-0.2-1.9-0.2c-0.8,0-1.6,0.3-2.4,0.8c-0.8,0.6-1.5,1.3-2.1,2.2
		c-0.6,0.9-1.1,1.9-1.4,3.1c-0.4,1.2-0.5,2.4-0.5,3.6c0,1.6,0.3,2.7,1,3.5c0.6,0.7,1.5,1.1,2.6,1.1c0.7,0,1.5-0.2,2.3-0.5
		c0.8-0.3,1.4-0.7,1.9-1L249.7,57.6z"/>
	<path class="st4" d="M264.7,43.5c-0.2,0-0.4-0.1-0.7-0.1c-0.2,0-0.4,0-0.6,0c-1.2,0-2.3,0.4-3.2,1.2c-0.9,0.8-1.6,1.7-2.1,2.8
		l-2.5,11.8H253l3.8-18l1.9,0l0,3.1h0.1c0.3-0.5,0.6-0.9,0.9-1.3c0.3-0.4,0.7-0.8,1.1-1.1c0.4-0.3,0.9-0.6,1.3-0.7
		c0.5-0.2,1-0.3,1.6-0.3c0.5,0,1.1,0.1,1.7,0.3L264.7,43.5z"/>
	<path class="st4" d="M277.5,57.3c-0.8,0.7-1.8,1.3-3,1.6c-1.1,0.4-2.3,0.6-3.4,0.6c-1.9,0-3.4-0.6-4.3-1.7s-1.5-2.6-1.5-4.6
		c0-2,0.3-3.7,0.8-5.3c0.6-1.6,1.3-2.9,2.2-4c0.9-1.1,1.9-1.9,3.1-2.5c1.1-0.6,2.3-0.9,3.5-0.9c0.9,0,1.6,0.1,2.2,0.4
		c0.6,0.2,1.2,0.6,1.6,1c0.4,0.4,0.7,0.9,0.9,1.4c0.2,0.5,0.3,1.1,0.3,1.6c0,1.7-0.8,3-2.5,4c-1.7,1-4.1,1.5-7.2,1.5
		c-0.3,0-0.6,0-0.9,0c-0.3,0-0.6,0-1-0.1c-0.1,0.5-0.2,0.9-0.2,1.3c0,0.4-0.1,0.8-0.1,1.1c0,1.3,0.3,2.4,0.9,3.2
		c0.6,0.8,1.5,1.2,2.8,1.2c1.1,0,2-0.2,2.9-0.5c0.9-0.3,1.6-0.7,2-1.1L277.5,57.3z M274.4,43c-1.3,0-2.5,0.5-3.4,1.4
		c-1,0.9-1.7,2.2-2.2,4.1c0.9,0,1.9,0,2.8-0.1c1,0,1.9-0.2,2.7-0.4c0.8-0.2,1.5-0.5,2-1c0.5-0.4,0.8-1.1,0.8-1.9
		c0-0.2,0-0.5-0.1-0.7c-0.1-0.3-0.2-0.5-0.4-0.7c-0.2-0.2-0.5-0.4-0.8-0.5C275.4,43.1,274.9,43,274.4,43z"/>
	<path class="st4" d="M295,52c-0.2,0.9-0.3,1.8-0.4,2.7c-0.1,0.9-0.1,1.8-0.1,2.6c0,0.4,0,0.7,0,1c0,0.3,0,0.6,0.1,0.9h-2l-0.5-3.1
		h-0.1c-0.3,0.4-0.6,0.8-1.1,1.2c-0.4,0.4-0.9,0.8-1.4,1.1s-1,0.6-1.6,0.8c-0.6,0.2-1.2,0.3-1.8,0.3c-2.9,0-4.3-1.9-4.3-5.6
		c0-1.5,0.2-3.1,0.6-4.7c0.4-1.6,1-3,1.8-4.3c0.8-1.3,1.9-2.3,3.2-3.1c1.3-0.8,2.9-1.2,4.7-1.2c0.7,0,1.5,0.1,2.5,0.2
		c1,0.2,1.9,0.4,2.7,0.6L295,52z M286.9,57.2c0.6,0,1.1-0.1,1.7-0.4c0.5-0.3,1-0.6,1.5-1c0.5-0.4,0.9-0.8,1.2-1.3
		c0.4-0.5,0.6-0.9,0.9-1.3l2-9.7c-0.7-0.3-1.6-0.5-2.7-0.5c-1.1,0-2.1,0.3-2.9,1c-0.8,0.6-1.5,1.5-2.1,2.5c-0.6,1-1,2.2-1.3,3.5
		c-0.3,1.3-0.4,2.6-0.4,4c0,0.9,0.2,1.7,0.5,2.3C285.5,56.9,286.1,57.2,286.9,57.2z"/>
	<path class="st4" d="M300.2,41.1l2.7,0l0.8-3.6l2.9-0.8l-0.9,4.4l4.7,0l-0.5,2.3l-4.7,0l-2.3,10.9c0,0.3-0.1,0.6-0.1,0.8
		c0,0.2-0.1,0.5-0.1,0.6c0,0.6,0.1,1,0.4,1.2c0.3,0.2,0.7,0.3,1.2,0.3c0.6,0,1.1-0.1,1.6-0.2c0.5-0.1,1-0.4,1.4-0.6l0,2.2
		c-0.5,0.3-1.2,0.5-1.9,0.7s-1.5,0.3-2.3,0.3c-2.2,0-3.3-1-3.3-3c0-0.4,0.1-0.9,0.2-1.5l2.4-11.6l-2.7,0L300.2,41.1z"/>
	<path class="st4" d="M322.9,57.3c-0.8,0.7-1.8,1.3-3,1.6c-1.1,0.4-2.3,0.6-3.4,0.6c-1.9,0-3.4-0.6-4.3-1.7c-1-1.1-1.5-2.6-1.5-4.6
		c0-2,0.3-3.7,0.8-5.3c0.6-1.6,1.3-2.9,2.2-4c0.9-1.1,1.9-1.9,3.1-2.5c1.1-0.6,2.3-0.9,3.5-0.9c0.9,0,1.6,0.1,2.2,0.4
		c0.6,0.2,1.2,0.6,1.6,1c0.4,0.4,0.7,0.9,0.9,1.4c0.2,0.5,0.3,1.1,0.3,1.6c0,1.7-0.8,3-2.5,4c-1.7,1-4.1,1.5-7.2,1.5
		c-0.3,0-0.6,0-0.9,0c-0.3,0-0.6,0-1-0.1c-0.1,0.5-0.2,0.9-0.2,1.3c0,0.4-0.1,0.8-0.1,1.1c0,1.3,0.3,2.4,0.9,3.2
		c0.6,0.8,1.5,1.2,2.8,1.2c1.1,0,2-0.2,2.9-0.5s1.6-0.7,2-1.1L322.9,57.3z M319.9,43c-1.3,0-2.5,0.5-3.4,1.4c-1,0.9-1.7,2.2-2.2,4.1
		c0.9,0,1.9,0,2.8-0.1c1,0,1.9-0.2,2.7-0.4c0.8-0.2,1.5-0.5,2-1c0.5-0.4,0.8-1.1,0.8-1.9c0-0.2,0-0.5-0.1-0.7
		c-0.1-0.3-0.2-0.5-0.4-0.7c-0.2-0.2-0.5-0.4-0.8-0.5C320.8,43,320.4,43,319.9,43z"/>
</g>
<g class="st3">
	<path class="st4" d="M124,83c0-0.6-0.2-1.2-0.5-1.6c-0.3-0.4-0.7-0.8-1.2-1.2s-1-0.7-1.5-1c-0.6-0.3-1.1-0.7-1.5-1.1
		c-0.5-0.4-0.9-0.9-1.2-1.5c-0.3-0.6-0.5-1.3-0.5-2.1c0-0.7,0.2-1.3,0.5-1.9c0.3-0.6,0.8-1.1,1.3-1.5s1.2-0.8,2-1
		c0.8-0.3,1.6-0.4,2.5-0.4c1.3,0,2.3,0.1,3,0.3c0.7,0.2,1.3,0.4,1.9,0.7l-0.9,2.2c-1-0.6-2.3-0.8-3.9-0.8c-1,0-1.8,0.2-2.5,0.6
		c-0.7,0.4-1,1.1-1,1.9c0,0.5,0.2,0.9,0.5,1.3c0.3,0.4,0.7,0.7,1.2,1.1c0.5,0.3,1,0.7,1.5,1c0.6,0.3,1.1,0.7,1.5,1.2
		c0.5,0.4,0.9,1,1.2,1.6c0.3,0.6,0.5,1.3,0.5,2.1c0,1.9-0.6,3.3-1.9,4.3c-1.3,1-2.9,1.5-5.1,1.5c-1.1,0-2.1-0.1-3-0.3
		c-0.9-0.2-1.6-0.5-2.2-0.8l1-2.3c0.5,0.3,1.1,0.6,1.9,0.8c0.8,0.2,1.6,0.3,2.4,0.3c1.2,0,2.1-0.3,2.8-0.8C123.6,85,124,84.2,124,83
		z"/>
	<path class="st4" d="M134.7,70.1l2.7,0l-3.8,18h-2.7L134.7,70.1z M135.3,64.6c0-0.6,0.2-1,0.6-1.4c0.4-0.4,0.8-0.6,1.4-0.6
		s1,0.2,1.4,0.6c0.4,0.4,0.6,0.9,0.6,1.4s-0.2,1-0.6,1.4c-0.4,0.4-0.9,0.6-1.4,0.6s-1-0.2-1.4-0.6C135.5,65.6,135.3,65.2,135.3,64.6
		z"/>
	<path class="st4" d="M152.1,89c-0.5,2.4-1.4,4.1-2.6,5.2c-1.2,1.1-2.9,1.6-4.9,1.6c-1.6,0-2.8-0.2-3.8-0.6c-1-0.4-1.8-0.7-2.3-1
		l1.2-2c0.2,0.1,0.4,0.2,0.7,0.4s0.6,0.3,1,0.4c0.4,0.1,0.9,0.3,1.4,0.4c0.6,0.1,1.2,0.1,2,0.1c1.2,0,2.2-0.4,3-1.3
		c0.8-0.9,1.4-2.2,1.8-4.1l0.6-3h-0.1c-0.3,0.5-0.7,0.9-1.1,1.3s-0.8,0.8-1.3,1.1s-1,0.6-1.6,0.8c-0.6,0.2-1.2,0.3-1.9,0.3
		c-1.3,0-2.3-0.5-3.1-1.4s-1.2-2.3-1.2-4c0-1.6,0.2-3.2,0.7-4.8c0.4-1.6,1.1-3,2-4.3c0.9-1.3,2-2.3,3.2-3.1c1.3-0.8,2.8-1.2,4.4-1.2
		c1.3,0,2.4,0.1,3.3,0.3c0.9,0.2,1.7,0.5,2.3,0.8L152.1,89z M145.4,86.2c0.6,0,1.2-0.2,1.8-0.5c0.6-0.3,1.1-0.7,1.6-1.2
		c0.5-0.5,0.9-1,1.3-1.6c0.4-0.6,0.7-1.1,1-1.6l1.8-8.7c-0.4-0.2-0.9-0.4-1.4-0.4c-0.6-0.1-1.1-0.1-1.7-0.1c-1,0-1.9,0.3-2.7,0.9
		c-0.8,0.6-1.6,1.4-2.2,2.3c-0.6,1-1.1,2.1-1.5,3.4c-0.4,1.3-0.5,2.6-0.5,4c0,1.1,0.2,2,0.7,2.6C144,85.9,144.6,86.2,145.4,86.2z"/>
	<path class="st4" d="M168.4,88.1l2.4-11.4c0.1-0.4,0.2-0.9,0.3-1.3c0.1-0.4,0.1-0.8,0.1-1.1c0-0.7-0.2-1.3-0.5-1.7
		c-0.3-0.4-0.9-0.6-1.8-0.6c-0.6,0-1.2,0.1-1.8,0.4c-0.6,0.3-1.2,0.7-1.7,1.1c-0.5,0.4-1,0.9-1.4,1.5c-0.4,0.5-0.8,1.1-1.1,1.6
		l-2.4,11.5h-2.7l3.8-18l1.9,0l-0.1,3.1h0.1c0.3-0.4,0.7-0.8,1.1-1.2c0.4-0.4,0.9-0.8,1.5-1.1c0.5-0.3,1.1-0.6,1.8-0.8
		c0.7-0.2,1.4-0.3,2.2-0.3c1.2,0,2.1,0.3,2.8,0.9c0.7,0.6,1,1.6,1,3c0,0.7-0.1,1.6-0.3,2.6l-2.6,12L168.4,88.1z"/>
	<path class="st4" d="M189.3,86.4c-0.8,0.7-1.8,1.3-3,1.6c-1.1,0.4-2.3,0.6-3.4,0.6c-1.9,0-3.4-0.6-4.3-1.7s-1.5-2.6-1.5-4.6
		c0-2,0.3-3.7,0.8-5.3c0.6-1.6,1.3-2.9,2.2-4c0.9-1.1,1.9-1.9,3.1-2.5c1.1-0.6,2.3-0.9,3.5-0.9c0.9,0,1.6,0.1,2.2,0.4
		c0.6,0.2,1.2,0.6,1.6,1c0.4,0.4,0.7,0.9,0.9,1.4c0.2,0.5,0.3,1.1,0.3,1.6c0,1.7-0.8,3-2.5,4c-1.7,1-4.1,1.5-7.2,1.5
		c-0.3,0-0.6,0-0.9,0c-0.3,0-0.6,0-1-0.1c-0.1,0.5-0.2,0.9-0.2,1.3c0,0.4-0.1,0.8-0.1,1.1c0,1.3,0.3,2.4,0.9,3.2
		c0.6,0.8,1.5,1.2,2.8,1.2c1.1,0,2-0.2,2.9-0.5c0.9-0.3,1.6-0.7,2-1.1L189.3,86.4z M186.2,72c-1.3,0-2.5,0.5-3.4,1.4
		c-1,0.9-1.7,2.2-2.2,4.1c0.9,0,1.9,0,2.8-0.1c1,0,1.9-0.2,2.7-0.4c0.8-0.2,1.5-0.5,2-1c0.5-0.4,0.8-1.1,0.8-1.9
		c0-0.2,0-0.5-0.1-0.7c-0.1-0.3-0.2-0.5-0.4-0.7c-0.2-0.2-0.5-0.4-0.8-0.5C187.2,72.1,186.8,72,186.2,72z"/>
	<path class="st4" d="M207,81.9c-0.2,0.9-0.3,1.8-0.4,2.6c-0.1,0.8-0.1,1.6-0.1,2.3c0,0.3,0,0.5,0,0.7c0,0.2,0,0.4,0.1,0.6h-1.8
		l-0.5-3.1h-0.1c-0.3,0.4-0.6,0.8-1.1,1.2c-0.4,0.4-0.9,0.8-1.4,1.1s-1.1,0.6-1.7,0.8c-0.6,0.2-1.2,0.3-1.8,0.3
		c-1.3,0-2.4-0.5-3.1-1.5c-0.8-1-1.2-2.5-1.2-4.6c0-1.4,0.2-2.9,0.6-4.4c0.4-1.5,1-2.9,1.8-4.1c0.8-1.2,1.8-2.2,3-3s2.6-1.2,4.1-1.2
		c0.4,0,0.8,0,1.1,0c0.3,0,0.6,0.1,0.9,0.1s0.5,0.1,0.8,0.2c0.2,0.1,0.5,0.2,0.8,0.3l1.6-7.5h2.7L207,81.9z M199.1,86.3
		c0.5,0,1-0.1,1.5-0.4c0.5-0.3,1-0.6,1.5-1c0.5-0.4,0.9-0.8,1.3-1.3c0.4-0.5,0.7-0.9,0.9-1.3l2-9.4c-0.4-0.3-0.9-0.5-1.4-0.6
		c-0.5-0.1-1.2-0.2-2-0.2c-1,0-1.8,0.3-2.6,0.9s-1.4,1.4-2,2.4c-0.5,1-1,2.1-1.2,3.4c-0.3,1.3-0.4,2.6-0.4,3.9c0,1,0.2,1.8,0.6,2.5
		S198.2,86.3,199.1,86.3z"/>
	<path class="st4" d="M229.2,83c0-0.6-0.2-1.2-0.5-1.6c-0.3-0.4-0.7-0.8-1.2-1.2s-1-0.7-1.5-1c-0.6-0.3-1.1-0.7-1.5-1.1
		s-0.9-0.9-1.2-1.5c-0.3-0.6-0.5-1.3-0.5-2.1c0-0.7,0.2-1.3,0.5-1.9c0.3-0.6,0.8-1.1,1.3-1.5c0.6-0.4,1.2-0.8,2-1
		c0.8-0.3,1.6-0.4,2.5-0.4c1.3,0,2.3,0.1,3,0.3c0.7,0.2,1.3,0.4,1.9,0.7l-0.9,2.2c-1-0.6-2.3-0.8-3.9-0.8c-1,0-1.8,0.2-2.5,0.6
		c-0.7,0.4-1,1.1-1,1.9c0,0.5,0.2,0.9,0.5,1.3c0.3,0.4,0.7,0.7,1.2,1.1c0.5,0.3,1,0.7,1.5,1c0.6,0.3,1.1,0.7,1.5,1.2
		c0.5,0.4,0.9,1,1.2,1.6c0.3,0.6,0.5,1.3,0.5,2.1c0,1.9-0.6,3.3-1.9,4.3c-1.3,1-2.9,1.5-5.1,1.5c-1.1,0-2.1-0.1-3-0.3
		c-0.9-0.2-1.6-0.5-2.2-0.8l1-2.3c0.5,0.3,1.1,0.6,1.9,0.8c0.8,0.2,1.6,0.3,2.4,0.3c1.2,0,2.1-0.3,2.8-0.8
		C228.9,85,229.2,84.1,229.2,83z"/>
	<path class="st4" d="M248.2,86.4c-0.8,0.7-1.8,1.3-3,1.6c-1.1,0.4-2.3,0.6-3.4,0.6c-1.9,0-3.4-0.6-4.3-1.7s-1.5-2.6-1.5-4.6
		c0-2,0.3-3.7,0.8-5.3c0.6-1.6,1.3-2.9,2.2-4c0.9-1.1,1.9-1.9,3.1-2.5c1.1-0.6,2.3-0.9,3.5-0.9c0.9,0,1.6,0.1,2.2,0.4
		c0.6,0.2,1.2,0.6,1.6,1c0.4,0.4,0.7,0.9,0.9,1.4c0.2,0.5,0.3,1.1,0.3,1.6c0,1.7-0.8,3-2.5,4c-1.7,1-4.1,1.5-7.2,1.5
		c-0.3,0-0.6,0-0.9,0c-0.3,0-0.6,0-1-0.1c-0.1,0.5-0.2,0.9-0.2,1.3c0,0.4-0.1,0.8-0.1,1.1c0,1.3,0.3,2.4,0.9,3.2
		c0.6,0.8,1.5,1.2,2.8,1.2c1.1,0,2-0.2,2.9-0.5s1.6-0.7,2-1.1L248.2,86.4z M245.2,72c-1.3,0-2.5,0.5-3.4,1.3c-1,0.9-1.7,2.3-2.2,4.1
		c0.9,0,1.9,0,2.8-0.1c1,0,1.9-0.2,2.7-0.4c0.8-0.2,1.5-0.5,2-1c0.5-0.4,0.8-1.1,0.8-1.9c0-0.2,0-0.5-0.1-0.7
		c-0.1-0.3-0.2-0.5-0.4-0.7c-0.2-0.2-0.5-0.4-0.8-0.5C246.1,72.1,245.7,72,245.2,72z"/>
	<path class="st4" d="M260.2,83c0-0.6-0.2-1.2-0.5-1.6c-0.3-0.4-0.7-0.8-1.2-1.2c-0.5-0.3-1-0.7-1.5-1c-0.6-0.3-1.1-0.7-1.5-1.1
		c-0.5-0.4-0.9-0.9-1.2-1.5c-0.3-0.6-0.5-1.3-0.5-2.1c0-0.7,0.2-1.3,0.5-1.9c0.3-0.6,0.8-1.1,1.3-1.5s1.2-0.8,2-1
		c0.8-0.3,1.6-0.4,2.5-0.4c1.3,0,2.3,0.1,3,0.3c0.7,0.2,1.3,0.4,1.9,0.7l-0.9,2.2c-1-0.6-2.3-0.8-3.9-0.8c-1,0-1.8,0.2-2.5,0.6
		c-0.7,0.4-1,1.1-1,1.9c0,0.5,0.2,0.9,0.5,1.3c0.3,0.4,0.7,0.7,1.2,1.1c0.5,0.3,1,0.7,1.5,1c0.6,0.3,1.1,0.7,1.5,1.2
		c0.5,0.4,0.9,1,1.2,1.6c0.3,0.6,0.5,1.3,0.5,2.1c0,1.9-0.6,3.3-1.9,4.3c-1.3,1-2.9,1.5-5.1,1.5c-1.1,0-2.1-0.1-3-0.3
		s-1.6-0.5-2.2-0.8l1-2.3c0.5,0.3,1.1,0.6,1.9,0.8c0.8,0.2,1.6,0.3,2.4,0.3c1.2,0,2.1-0.3,2.8-0.8C259.9,84.9,260.2,84.1,260.2,83z"
		/>
	<path class="st4" d="M274.5,83c0-0.6-0.2-1.2-0.5-1.6c-0.3-0.4-0.7-0.8-1.2-1.2s-1-0.7-1.5-1c-0.6-0.3-1.1-0.7-1.5-1.1
		c-0.5-0.4-0.9-0.9-1.2-1.5c-0.3-0.6-0.5-1.3-0.5-2.1c0-0.7,0.2-1.3,0.5-1.9c0.3-0.6,0.8-1.1,1.3-1.5c0.6-0.4,1.2-0.8,2-1
		c0.8-0.3,1.6-0.4,2.5-0.4c1.3,0,2.3,0.1,3,0.3c0.7,0.2,1.3,0.4,1.9,0.7l-0.9,2.2c-1-0.6-2.3-0.8-3.9-0.8c-1,0-1.8,0.2-2.5,0.6
		c-0.7,0.4-1,1.1-1,1.9c0,0.5,0.2,0.9,0.5,1.3c0.3,0.4,0.7,0.7,1.2,1.1c0.5,0.3,1,0.7,1.5,1c0.6,0.3,1.1,0.7,1.5,1.2
		c0.5,0.4,0.9,1,1.2,1.6c0.3,0.6,0.5,1.3,0.5,2.1c0,1.9-0.6,3.3-1.9,4.3c-1.3,1-2.9,1.5-5.1,1.5c-1.1,0-2.1-0.1-3-0.3
		c-0.9-0.2-1.6-0.5-2.2-0.8l1-2.3c0.5,0.3,1.1,0.6,1.9,0.8c0.8,0.2,1.6,0.3,2.4,0.3c1.2,0,2.1-0.3,2.8-0.8
		C274.2,84.9,274.5,84.1,274.5,83z"/>
	<path class="st4" d="M285.3,70.1l2.7,0l-3.8,18h-2.7L285.3,70.1z M285.9,64.6c0-0.6,0.2-1,0.6-1.4c0.4-0.4,0.8-0.6,1.4-0.6
		s1,0.2,1.4,0.6c0.4,0.4,0.6,0.9,0.6,1.4s-0.2,1-0.6,1.4c-0.4,0.4-0.9,0.6-1.4,0.6s-1-0.2-1.4-0.6C286.1,65.6,285.9,65.2,285.9,64.6
		z"/>
	<path class="st4" d="M290.7,82.5c0-1.9,0.2-3.6,0.7-5.2s1.2-2.9,2-4.1c0.9-1.1,1.9-2,3-2.6c1.1-0.6,2.4-0.9,3.7-0.9
		c1,0,1.9,0.2,2.6,0.5c0.7,0.3,1.3,0.8,1.7,1.3c0.4,0.6,0.8,1.2,1,1.9c0.2,0.7,0.3,1.5,0.3,2.3c0,1.8-0.2,3.5-0.7,5
		c-0.5,1.6-1.1,2.9-1.9,4.1c-0.8,1.2-1.8,2.1-2.9,2.7c-1.1,0.7-2.3,1-3.6,1c-1.1,0-2-0.2-2.7-0.5c-0.7-0.3-1.3-0.8-1.8-1.4
		c-0.5-0.6-0.8-1.2-1-1.9C290.8,84,290.7,83.2,290.7,82.5z M293.5,81.8c0,1.4,0.3,2.5,0.8,3.3c0.5,0.8,1.4,1.1,2.5,1.1
		c0.8,0,1.5-0.3,2.2-0.8c0.7-0.6,1.3-1.3,1.9-2.3s1-2.1,1.3-3.3s0.5-2.5,0.5-3.9c0-1.2-0.2-2.2-0.7-2.9c-0.4-0.7-1.3-1.1-2.5-1.1
		c-0.8,0-1.5,0.3-2.3,0.8c-0.7,0.5-1.4,1.3-1.9,2.2c-0.6,0.9-1,2-1.3,3.1C293.7,79.3,293.5,80.6,293.5,81.8z"/>
	<path class="st4" d="M318.7,88.1l2.4-11.4c0.1-0.4,0.2-0.9,0.3-1.3c0.1-0.4,0.1-0.8,0.1-1.1c0-0.7-0.2-1.3-0.5-1.7
		c-0.3-0.4-0.9-0.6-1.8-0.6c-0.6,0-1.2,0.1-1.8,0.4c-0.6,0.3-1.2,0.7-1.7,1.1c-0.5,0.4-1,0.9-1.4,1.5c-0.4,0.5-0.8,1.1-1.1,1.6
		l-2.4,11.5l-2.7,0l3.8-18h1.9l-0.1,3.1h0.1c0.3-0.4,0.7-0.8,1.1-1.2c0.4-0.4,0.9-0.8,1.5-1.1c0.5-0.3,1.1-0.6,1.8-0.8
		c0.7-0.2,1.4-0.3,2.2-0.3c1.2,0,2.1,0.3,2.8,0.9c0.7,0.6,1,1.6,1,3c0,0.7-0.1,1.6-0.3,2.6l-2.6,12L318.7,88.1z"/>
</g>
<g class="st3">
	<path class="st4" d="M1232.1,41.1l-2.5,12c-0.1,0.6-0.2,1.2-0.2,1.8c0,0.7,0.1,1.2,0.4,1.7c0.3,0.4,0.7,0.7,1.4,0.7
		c0.6,0,1.2-0.1,1.7-0.4s1.2-0.7,1.7-1.1s1-1,1.5-1.5c0.4-0.6,0.8-1.1,1.1-1.6l2.4-11.4h2.7l-2.3,10.7c-0.1,0.4-0.2,0.9-0.3,1.5
		c-0.1,0.6-0.2,1.2-0.3,1.9c-0.1,0.6-0.2,1.3-0.2,1.9c0,0.6-0.1,1.1-0.1,1.6v0.5h-2.1l0-3.4h-0.1c-0.4,0.5-0.8,0.9-1.2,1.4
		c-0.5,0.5-1,0.9-1.5,1.2c-0.6,0.4-1.2,0.7-1.8,0.9c-0.6,0.2-1.3,0.3-2.1,0.3c-0.5,0-1-0.1-1.5-0.2c-0.4-0.1-0.8-0.3-1.2-0.6
		c-0.3-0.3-0.6-0.7-0.8-1.2c-0.2-0.5-0.3-1.1-0.3-1.9c0-0.8,0.1-1.8,0.4-2.8l2.4-11.7H1232.1z"/>
	<path class="st4" d="M1248,41.1h1.9l-0.2,3.1h0.1c0.3-0.4,0.7-0.9,1.1-1.3c0.4-0.4,0.9-0.8,1.4-1.1c0.5-0.3,1.1-0.6,1.7-0.8
		s1.2-0.3,1.9-0.3c0.6,0,1.1,0.1,1.6,0.3s0.9,0.5,1.3,0.9s0.7,1,0.9,1.7s0.3,1.5,0.3,2.6c0,2.1-0.3,4-0.9,5.7
		c-0.6,1.7-1.3,3.1-2.3,4.2s-2,2-3.2,2.6c-1.2,0.6-2.3,0.9-3.5,0.9c-0.8,0-1.6-0.1-2.2-0.2c-0.6-0.2-1.1-0.3-1.3-0.5l-1.6,7.5
		l-2.7,0L1248,41.1z M1254.9,43c-0.6,0-1.3,0.2-1.9,0.5c-0.6,0.3-1.1,0.8-1.6,1.2c-0.5,0.5-0.9,1-1.3,1.6c-0.4,0.6-0.7,1.1-0.9,1.6
		l-1.8,8.5c0.4,0.3,0.8,0.5,1.3,0.6c0.4,0.1,0.9,0.2,1.4,0.2c0.9,0,1.8-0.3,2.7-0.8c0.9-0.5,1.6-1.3,2.3-2.2c0.7-1,1.2-2.1,1.6-3.5
		c0.4-1.3,0.6-2.8,0.6-4.5c0-1-0.2-1.8-0.6-2.4C1256.3,43.3,1255.7,43,1254.9,43z"/>
	<path class="st4" d="M1265.9,54.8c-0.1,0.4-0.1,0.7-0.1,1c0,0.5,0.1,0.8,0.2,1c0.2,0.2,0.4,0.3,0.6,0.3c0.5,0,0.9,0,1.2-0.1
		c0.3-0.1,0.7-0.2,1.2-0.3l0,2.1c-0.2,0.1-0.5,0.2-0.8,0.3s-0.6,0.1-0.9,0.2c-0.3,0-0.6,0.1-0.9,0.1c-0.3,0-0.6,0.1-0.8,0.1
		c-0.8,0-1.5-0.2-2-0.6s-0.8-1.1-0.8-2.1c0-0.5,0.1-1.1,0.2-1.8l4.5-21.1h2.7L1265.9,54.8z"/>
	<path class="st4" d="M1272.6,53.5c0-1.9,0.2-3.6,0.7-5.2c0.5-1.6,1.2-2.9,2-4c0.9-1.1,1.9-2,3-2.6c1.1-0.6,2.4-0.9,3.7-0.9
		c1,0,1.9,0.2,2.6,0.5c0.7,0.3,1.3,0.8,1.7,1.3c0.4,0.6,0.8,1.2,1,1.9c0.2,0.7,0.3,1.5,0.3,2.3c0,1.8-0.2,3.5-0.7,5
		s-1.1,2.9-1.9,4.1c-0.8,1.2-1.8,2.1-2.9,2.7c-1.1,0.7-2.3,1-3.6,1c-1.1,0-2-0.2-2.7-0.5s-1.3-0.8-1.8-1.4c-0.5-0.6-0.8-1.2-1-1.9
		C1272.7,55,1272.6,54.2,1272.6,53.5z M1275.5,52.8c0,1.4,0.3,2.5,0.8,3.3c0.5,0.8,1.4,1.1,2.5,1.1c0.8,0,1.5-0.3,2.2-0.8
		c0.7-0.6,1.3-1.3,1.9-2.3c0.5-1,1-2.1,1.3-3.3c0.3-1.2,0.5-2.5,0.5-3.9c0-1.2-0.2-2.2-0.7-2.9c-0.4-0.7-1.3-1.1-2.5-1.1
		c-0.8,0-1.5,0.3-2.3,0.8c-0.7,0.5-1.4,1.3-1.9,2.2c-0.6,0.9-1,2-1.3,3.1C1275.7,50.3,1275.5,51.6,1275.5,52.8z"/>
	<path class="st4" d="M1303.6,52c-0.2,0.9-0.3,1.8-0.4,2.7c-0.1,0.9-0.1,1.8-0.1,2.6c0,0.4,0,0.7,0,1c0,0.3,0,0.6,0.1,0.9h-2
		l-0.5-3.1h-0.1c-0.3,0.4-0.6,0.8-1.1,1.2c-0.4,0.4-0.9,0.8-1.4,1.1s-1,0.6-1.6,0.8c-0.6,0.2-1.2,0.3-1.8,0.3
		c-2.9,0-4.3-1.9-4.3-5.6c0-1.5,0.2-3.1,0.6-4.7s1-3,1.8-4.3c0.8-1.3,1.9-2.3,3.2-3.1c1.3-0.8,2.9-1.2,4.7-1.2
		c0.7,0,1.5,0.1,2.5,0.2c1,0.2,1.9,0.4,2.7,0.6L1303.6,52z M1295.5,57.2c0.6,0,1.1-0.1,1.7-0.4c0.5-0.3,1-0.6,1.5-1s0.9-0.8,1.2-1.3
		c0.4-0.5,0.6-0.9,0.9-1.3l2-9.7c-0.7-0.3-1.6-0.5-2.7-0.5c-1.1,0-2.1,0.3-2.9,1c-0.8,0.6-1.5,1.5-2.1,2.5c-0.6,1-1,2.2-1.3,3.5
		c-0.3,1.3-0.4,2.6-0.4,4c0,0.9,0.2,1.7,0.5,2.3C1294.1,56.9,1294.7,57.2,1295.5,57.2z"/>
	<path class="st4" d="M1321.4,52.9c-0.2,0.9-0.3,1.8-0.4,2.6c-0.1,0.8-0.1,1.6-0.1,2.3c0,0.3,0,0.5,0,0.7s0,0.4,0.1,0.6h-1.8
		l-0.5-3.1h-0.1c-0.3,0.4-0.6,0.8-1.1,1.2c-0.4,0.4-0.9,0.8-1.4,1.1c-0.5,0.3-1.1,0.6-1.7,0.8c-0.6,0.2-1.2,0.3-1.8,0.3
		c-1.3,0-2.4-0.5-3.2-1.5c-0.8-1-1.2-2.5-1.2-4.6c0-1.4,0.2-2.9,0.6-4.4c0.4-1.5,1-2.9,1.8-4.1c0.8-1.2,1.8-2.2,3-3
		c1.2-0.8,2.6-1.2,4.1-1.2c0.4,0,0.8,0,1.1,0c0.3,0,0.6,0.1,0.9,0.1c0.3,0,0.5,0.1,0.8,0.2c0.2,0.1,0.5,0.2,0.8,0.3l1.6-7.5l2.7,0
		L1321.4,52.9z M1313.4,57.2c0.5,0,1-0.1,1.5-0.4c0.5-0.3,1-0.6,1.5-1c0.5-0.4,0.9-0.8,1.3-1.3c0.4-0.5,0.7-0.9,0.9-1.3l2-9.4
		c-0.4-0.3-0.9-0.5-1.4-0.6c-0.5-0.1-1.2-0.2-2-0.2c-1,0-1.8,0.3-2.6,0.9c-0.8,0.6-1.4,1.4-2,2.4c-0.5,1-1,2.1-1.2,3.4
		c-0.3,1.3-0.4,2.6-0.4,3.9c0,1,0.2,1.8,0.6,2.5C1311.9,56.9,1312.5,57.2,1313.4,57.2z"/>
</g>
<g class="st3">
	<path class="st4" d="M1123,83c0-0.6-0.2-1.2-0.5-1.6c-0.3-0.4-0.7-0.8-1.2-1.2s-1-0.7-1.5-1c-0.6-0.3-1.1-0.7-1.5-1.1
		c-0.5-0.4-0.9-0.9-1.2-1.5c-0.3-0.6-0.5-1.3-0.5-2.1c0-0.7,0.2-1.3,0.5-1.9c0.3-0.6,0.8-1.1,1.3-1.5c0.6-0.4,1.2-0.8,2-1
		c0.8-0.3,1.6-0.4,2.5-0.4c1.3,0,2.3,0.1,3,0.3s1.3,0.4,1.9,0.7l-0.9,2.2c-1-0.6-2.3-0.8-3.9-0.8c-1,0-1.8,0.2-2.5,0.6
		c-0.7,0.4-1,1.1-1,1.9c0,0.5,0.2,0.9,0.5,1.3c0.3,0.4,0.7,0.7,1.2,1.1c0.5,0.3,1,0.7,1.5,1c0.6,0.3,1.1,0.7,1.5,1.2
		c0.5,0.4,0.9,1,1.2,1.6c0.3,0.6,0.5,1.3,0.5,2.1c0,1.9-0.6,3.3-1.9,4.3c-1.3,1-2.9,1.5-5.1,1.5c-1.1,0-2.1-0.1-3-0.3
		c-0.9-0.2-1.6-0.5-2.2-0.8l1-2.3c0.5,0.3,1.1,0.6,1.9,0.8c0.8,0.2,1.6,0.3,2.4,0.3c1.2,0,2.1-0.3,2.8-0.8
		C1122.6,85,1123,84.2,1123,83z"/>
	<path class="st4" d="M1133.8,70.1l2.7,0l-3.8,18h-2.7L1133.8,70.1z M1134.3,64.6c0-0.6,0.2-1,0.6-1.4c0.4-0.4,0.8-0.6,1.4-0.6
		c0.6,0,1,0.2,1.4,0.6c0.4,0.4,0.6,0.9,0.6,1.4s-0.2,1-0.6,1.4s-0.9,0.6-1.4,0.6c-0.6,0-1-0.2-1.4-0.6S1134.3,65.2,1134.3,64.6z"/>
	<path class="st4" d="M1151.2,89c-0.5,2.4-1.4,4.1-2.6,5.2c-1.2,1.1-2.9,1.6-4.9,1.6c-1.6,0-2.8-0.2-3.8-0.6c-1-0.4-1.8-0.7-2.3-1
		l1.2-2c0.2,0.1,0.4,0.2,0.7,0.4c0.3,0.2,0.6,0.3,1,0.4c0.4,0.1,0.9,0.3,1.4,0.4c0.6,0.1,1.2,0.1,2,0.1c1.2,0,2.2-0.4,3-1.3
		c0.8-0.9,1.4-2.2,1.8-4.1l0.6-3h-0.1c-0.3,0.5-0.7,0.9-1.1,1.3c-0.4,0.4-0.8,0.8-1.3,1.1c-0.5,0.3-1,0.6-1.6,0.8
		c-0.6,0.2-1.2,0.3-1.9,0.3c-1.3,0-2.3-0.5-3.1-1.4s-1.2-2.3-1.2-4c0-1.6,0.2-3.2,0.7-4.8c0.4-1.6,1.1-3,2-4.3
		c0.9-1.3,2-2.3,3.2-3.1c1.3-0.8,2.8-1.2,4.4-1.2c1.3,0,2.4,0.1,3.3,0.3c0.9,0.2,1.7,0.5,2.3,0.8L1151.2,89z M1144.4,86.2
		c0.6,0,1.2-0.2,1.8-0.5c0.6-0.3,1.1-0.7,1.6-1.2c0.5-0.5,0.9-1,1.3-1.6c0.4-0.6,0.7-1.1,1-1.6l1.8-8.7c-0.4-0.2-0.9-0.4-1.4-0.4
		c-0.6-0.1-1.1-0.1-1.7-0.1c-1,0-1.9,0.3-2.7,0.9c-0.8,0.6-1.6,1.4-2.2,2.3c-0.6,1-1.1,2.1-1.5,3.4s-0.5,2.6-0.5,4
		c0,1.1,0.2,2,0.7,2.6C1143,85.9,1143.6,86.2,1144.4,86.2z"/>
	<path class="st4" d="M1167.4,88.1l2.4-11.4c0.1-0.4,0.2-0.9,0.3-1.3c0.1-0.4,0.1-0.8,0.1-1.1c0-0.7-0.2-1.3-0.5-1.7
		c-0.3-0.4-0.9-0.6-1.8-0.6c-0.6,0-1.2,0.1-1.8,0.4c-0.6,0.3-1.2,0.7-1.7,1.1s-1,0.9-1.4,1.5c-0.4,0.5-0.8,1.1-1.1,1.6l-2.4,11.5
		h-2.7l3.8-18l1.9,0l-0.1,3.1h0.1c0.3-0.4,0.7-0.8,1.1-1.2c0.4-0.4,0.9-0.8,1.5-1.1c0.5-0.3,1.1-0.6,1.8-0.8
		c0.7-0.2,1.4-0.3,2.2-0.3c1.2,0,2.1,0.3,2.8,0.9c0.7,0.6,1,1.6,1,3c0,0.7-0.1,1.6-0.3,2.6l-2.6,12L1167.4,88.1z"/>
	<path class="st4" d="M1188.3,86.4c-0.8,0.7-1.8,1.3-3,1.6c-1.1,0.4-2.3,0.6-3.4,0.6c-1.9,0-3.4-0.6-4.3-1.7c-1-1.1-1.5-2.6-1.5-4.6
		s0.3-3.7,0.8-5.3c0.6-1.6,1.3-2.9,2.2-4c0.9-1.1,1.9-1.9,3.1-2.5c1.1-0.6,2.3-0.9,3.5-0.9c0.9,0,1.6,0.1,2.2,0.4
		c0.6,0.2,1.2,0.6,1.6,1c0.4,0.4,0.7,0.9,0.9,1.4c0.2,0.5,0.3,1.1,0.3,1.6c0,1.7-0.8,3-2.5,4c-1.7,1-4.1,1.5-7.2,1.5
		c-0.3,0-0.6,0-0.9,0c-0.3,0-0.6,0-1-0.1c-0.1,0.5-0.2,0.9-0.2,1.3s-0.1,0.8-0.1,1.1c0,1.3,0.3,2.4,0.9,3.2c0.6,0.8,1.5,1.2,2.8,1.2
		c1.1,0,2-0.2,2.9-0.5c0.9-0.3,1.6-0.7,2-1.1L1188.3,86.4z M1185.2,72c-1.3,0-2.5,0.5-3.4,1.4c-1,0.9-1.7,2.2-2.2,4.1
		c0.9,0,1.9,0,2.8-0.1c1,0,1.9-0.2,2.7-0.4c0.8-0.2,1.5-0.5,2-1c0.5-0.4,0.8-1.1,0.8-1.9c0-0.2,0-0.5-0.1-0.7
		c-0.1-0.3-0.2-0.5-0.4-0.7c-0.2-0.2-0.5-0.4-0.8-0.5S1185.8,72,1185.2,72z"/>
	<path class="st4" d="M1206,81.9c-0.2,0.9-0.3,1.8-0.4,2.6c-0.1,0.8-0.1,1.6-0.1,2.3c0,0.3,0,0.5,0,0.7s0,0.4,0.1,0.6h-1.8l-0.5-3.1
		h-0.1c-0.3,0.4-0.6,0.8-1.1,1.2c-0.4,0.4-0.9,0.8-1.4,1.1c-0.5,0.3-1.1,0.6-1.7,0.8c-0.6,0.2-1.2,0.3-1.8,0.3
		c-1.3,0-2.4-0.5-3.2-1.5c-0.8-1-1.2-2.5-1.2-4.6c0-1.4,0.2-2.9,0.6-4.4c0.4-1.5,1-2.9,1.8-4.1c0.8-1.2,1.8-2.2,3-3
		c1.2-0.8,2.6-1.2,4.1-1.2c0.4,0,0.8,0,1.1,0c0.3,0,0.6,0.1,0.9,0.1c0.3,0,0.5,0.1,0.8,0.2c0.2,0.1,0.5,0.2,0.8,0.3l1.6-7.5h2.7
		L1206,81.9z M1198.1,86.3c0.5,0,1-0.1,1.5-0.4c0.5-0.3,1-0.6,1.5-1c0.5-0.4,0.9-0.8,1.3-1.3c0.4-0.5,0.7-0.9,0.9-1.3l2-9.4
		c-0.4-0.3-0.9-0.5-1.4-0.6c-0.5-0.1-1.2-0.2-2-0.2c-1,0-1.8,0.3-2.6,0.9c-0.8,0.6-1.4,1.4-2,2.4c-0.5,1-1,2.1-1.2,3.4
		c-0.3,1.3-0.4,2.6-0.4,3.9c0,1,0.2,1.8,0.6,2.5C1196.6,85.9,1197.2,86.3,1198.1,86.3z"/>
	<path class="st4" d="M1228.2,83c0-0.6-0.2-1.2-0.5-1.6s-0.7-0.8-1.2-1.2s-1-0.7-1.5-1c-0.6-0.3-1.1-0.7-1.5-1.1
		c-0.5-0.4-0.9-0.9-1.2-1.5c-0.3-0.6-0.5-1.3-0.5-2.1c0-0.7,0.2-1.3,0.5-1.9c0.3-0.6,0.8-1.1,1.3-1.5c0.6-0.4,1.2-0.8,2-1
		c0.8-0.3,1.6-0.4,2.5-0.4c1.3,0,2.3,0.1,3,0.3c0.7,0.2,1.3,0.4,1.9,0.7l-0.9,2.2c-1-0.6-2.3-0.8-3.9-0.8c-1,0-1.8,0.2-2.5,0.6
		s-1,1.1-1,1.9c0,0.5,0.2,0.9,0.5,1.3c0.3,0.4,0.7,0.7,1.2,1.1c0.5,0.3,1,0.7,1.5,1s1.1,0.7,1.5,1.2c0.5,0.4,0.9,1,1.2,1.6
		c0.3,0.6,0.5,1.3,0.5,2.1c0,1.9-0.6,3.3-1.9,4.3c-1.3,1-2.9,1.5-5.1,1.5c-1.1,0-2.1-0.1-3-0.3c-0.9-0.2-1.6-0.5-2.2-0.8l1-2.3
		c0.5,0.3,1.1,0.6,1.9,0.8c0.8,0.2,1.6,0.3,2.4,0.3c1.2,0,2.1-0.3,2.8-0.8C1227.9,85,1228.2,84.1,1228.2,83z"/>
	<path class="st4" d="M1247.2,86.4c-0.8,0.7-1.8,1.3-3,1.6s-2.3,0.6-3.4,0.6c-1.9,0-3.4-0.6-4.3-1.7c-1-1.1-1.5-2.6-1.5-4.6
		c0-2,0.3-3.7,0.8-5.3c0.6-1.6,1.3-2.9,2.2-4s1.9-1.9,3.1-2.5c1.1-0.6,2.3-0.9,3.5-0.9c0.9,0,1.6,0.1,2.2,0.4c0.6,0.2,1.2,0.6,1.6,1
		c0.4,0.4,0.7,0.9,0.9,1.4c0.2,0.5,0.3,1.1,0.3,1.6c0,1.7-0.8,3-2.5,4s-4.1,1.5-7.2,1.5c-0.3,0-0.6,0-0.9,0c-0.3,0-0.6,0-1-0.1
		c-0.1,0.5-0.2,0.9-0.2,1.3c0,0.4-0.1,0.8-0.1,1.1c0,1.3,0.3,2.4,0.9,3.2s1.5,1.2,2.8,1.2c1.1,0,2-0.2,2.9-0.5s1.6-0.7,2-1.1
		L1247.2,86.4z M1244.2,72c-1.3,0-2.5,0.5-3.4,1.3c-1,0.9-1.7,2.3-2.2,4.1c0.9,0,1.9,0,2.8-0.1c1,0,1.9-0.2,2.7-0.4
		c0.8-0.2,1.5-0.5,2-1c0.5-0.4,0.8-1.1,0.8-1.9c0-0.2,0-0.5-0.1-0.7s-0.2-0.5-0.4-0.7c-0.2-0.2-0.5-0.4-0.8-0.5
		C1245.1,72.1,1244.7,72,1244.2,72z"/>
	<path class="st4" d="M1259.2,83c0-0.6-0.2-1.2-0.5-1.6c-0.3-0.4-0.7-0.8-1.2-1.2c-0.5-0.3-1-0.7-1.5-1c-0.6-0.3-1.1-0.7-1.5-1.1
		c-0.5-0.4-0.9-0.9-1.2-1.5c-0.3-0.6-0.5-1.3-0.5-2.1c0-0.7,0.2-1.3,0.5-1.9c0.3-0.6,0.8-1.1,1.3-1.5c0.6-0.4,1.2-0.8,2-1
		c0.8-0.3,1.6-0.4,2.5-0.4c1.3,0,2.3,0.1,3,0.3s1.3,0.4,1.9,0.7l-0.9,2.2c-1-0.6-2.3-0.8-3.9-0.8c-1,0-1.8,0.2-2.5,0.6
		c-0.7,0.4-1,1.1-1,1.9c0,0.5,0.2,0.9,0.5,1.3c0.3,0.4,0.7,0.7,1.2,1.1c0.5,0.3,1,0.7,1.5,1c0.6,0.3,1.1,0.7,1.5,1.2
		c0.5,0.4,0.9,1,1.2,1.6c0.3,0.6,0.5,1.3,0.5,2.1c0,1.9-0.6,3.3-1.9,4.3c-1.3,1-2.9,1.5-5.1,1.5c-1.1,0-2.1-0.1-3-0.3
		c-0.9-0.2-1.6-0.5-2.2-0.8l1-2.3c0.5,0.3,1.1,0.6,1.9,0.8s1.6,0.3,2.4,0.3c1.2,0,2.1-0.3,2.8-0.8
		C1258.9,84.9,1259.2,84.1,1259.2,83z"/>
	<path class="st4" d="M1273.5,83c0-0.6-0.2-1.2-0.5-1.6s-0.7-0.8-1.2-1.2s-1-0.7-1.5-1c-0.6-0.3-1.1-0.7-1.5-1.1
		c-0.5-0.4-0.9-0.9-1.2-1.5c-0.3-0.6-0.5-1.3-0.5-2.1c0-0.7,0.2-1.3,0.5-1.9c0.3-0.6,0.8-1.1,1.3-1.5c0.6-0.4,1.2-0.8,2-1
		c0.8-0.3,1.6-0.4,2.5-0.4c1.3,0,2.3,0.1,3,0.3c0.7,0.2,1.3,0.4,1.9,0.7l-0.9,2.2c-1-0.6-2.3-0.8-3.9-0.8c-1,0-1.8,0.2-2.5,0.6
		s-1,1.1-1,1.9c0,0.5,0.2,0.9,0.5,1.3c0.3,0.4,0.7,0.7,1.2,1.1c0.5,0.3,1,0.7,1.5,1s1.1,0.7,1.5,1.2c0.5,0.4,0.9,1,1.2,1.6
		c0.3,0.6,0.5,1.3,0.5,2.1c0,1.9-0.6,3.3-1.9,4.3c-1.3,1-2.9,1.5-5.1,1.5c-1.1,0-2.1-0.1-3-0.3c-0.9-0.2-1.6-0.5-2.2-0.8l1-2.3
		c0.5,0.3,1.1,0.6,1.9,0.8c0.8,0.2,1.6,0.3,2.4,0.3c1.2,0,2.1-0.3,2.8-0.8C1273.2,84.9,1273.5,84.1,1273.5,83z"/>
	<path class="st4" d="M1284.3,70.1l2.7,0l-3.8,18h-2.7L1284.3,70.1z M1284.9,64.6c0-0.6,0.2-1,0.6-1.4c0.4-0.4,0.8-0.6,1.4-0.6
		c0.6,0,1,0.2,1.4,0.6c0.4,0.4,0.6,0.9,0.6,1.4s-0.2,1-0.6,1.4s-0.9,0.6-1.4,0.6c-0.6,0-1-0.2-1.4-0.6
		C1285.1,65.6,1284.9,65.2,1284.9,64.6z"/>
	<path class="st4" d="M1289.7,82.5c0-1.9,0.2-3.6,0.7-5.2c0.5-1.6,1.2-2.9,2-4.1c0.9-1.1,1.9-2,3-2.6c1.1-0.6,2.4-0.9,3.7-0.9
		c1,0,1.9,0.2,2.6,0.5s1.3,0.8,1.7,1.3c0.4,0.6,0.8,1.2,1,1.9c0.2,0.7,0.3,1.5,0.3,2.3c0,1.8-0.2,3.5-0.7,5
		c-0.5,1.6-1.1,2.9-1.9,4.1c-0.8,1.2-1.8,2.1-2.9,2.7c-1.1,0.7-2.3,1-3.6,1c-1.1,0-2-0.2-2.7-0.5c-0.7-0.3-1.3-0.8-1.8-1.4
		c-0.5-0.6-0.8-1.2-1-1.9C1289.8,84,1289.7,83.2,1289.7,82.5z M1292.6,81.8c0,1.4,0.3,2.5,0.8,3.3c0.5,0.8,1.4,1.1,2.5,1.1
		c0.8,0,1.5-0.3,2.2-0.8s1.3-1.3,1.9-2.3c0.5-1,1-2.1,1.3-3.3c0.3-1.2,0.5-2.5,0.5-3.9c0-1.2-0.2-2.2-0.7-2.9
		c-0.4-0.7-1.3-1.1-2.5-1.1c-0.8,0-1.5,0.3-2.3,0.8c-0.7,0.5-1.4,1.3-1.9,2.2c-0.6,0.9-1,2-1.3,3.1
		C1292.7,79.3,1292.6,80.5,1292.6,81.8z"/>
	<path class="st4" d="M1317.7,88.1l2.4-11.4c0.1-0.4,0.2-0.9,0.3-1.3c0.1-0.4,0.1-0.8,0.1-1.1c0-0.7-0.2-1.3-0.5-1.7
		c-0.3-0.4-0.9-0.6-1.8-0.6c-0.6,0-1.2,0.1-1.8,0.4s-1.2,0.7-1.7,1.1c-0.5,0.4-1,0.9-1.4,1.5c-0.4,0.5-0.8,1.1-1.1,1.6l-2.4,11.5
		l-2.7,0l3.8-18h1.9l-0.1,3.1h0.1c0.3-0.4,0.7-0.8,1.1-1.2c0.4-0.4,0.9-0.8,1.5-1.1c0.5-0.3,1.1-0.6,1.8-0.8
		c0.7-0.2,1.4-0.3,2.2-0.3c1.2,0,2.1,0.3,2.8,0.9c0.7,0.6,1,1.6,1,3c0,0.7-0.1,1.6-0.3,2.6l-2.6,12L1317.7,88.1z"/>
</g>
<g class="st3">
	<path class="st4" d="M663.7,343.8l-2.8,0l-0.5-2c-0.3-0.2-0.7-0.4-1.1-0.6c-0.4-0.2-0.9-0.2-1.5-0.2c-0.7,0-1.3,0.2-1.8,0.5
		c-0.4,0.3-0.7,0.8-0.7,1.3c0,0.5,0.2,0.9,0.6,1.2c0.4,0.3,1.2,0.6,2.5,0.8c1.9,0.4,3.4,1,4.3,1.7c0.9,0.8,1.4,1.8,1.4,3.1
		c0,1.4-0.6,2.6-1.8,3.5c-1.2,0.9-2.8,1.4-4.8,1.4c-1.2,0-2.3-0.2-3.3-0.5c-1-0.4-1.9-0.9-2.7-1.5l0-3.6l3,0l0.6,2.1
		c0.3,0.2,0.6,0.4,1,0.5c0.4,0.1,0.9,0.2,1.4,0.2c0.9,0,1.5-0.2,2-0.5s0.7-0.7,0.7-1.3c0-0.5-0.2-0.9-0.7-1.2
		c-0.5-0.3-1.3-0.6-2.5-0.9c-1.8-0.4-3.2-0.9-4.2-1.7c-0.9-0.7-1.4-1.8-1.4-3.1c0-1.3,0.5-2.5,1.6-3.4c1.1-1,2.6-1.4,4.6-1.4
		c1.2,0,2.4,0.2,3.5,0.5c1.1,0.3,1.9,0.8,2.6,1.3L663.7,343.8z"/>
	<path class="st4" d="M666,351.6l2-0.4l0-9.8l-2.3-0.4l0-2.6l6.5,0l0,12.8l2,0.4v2.6l-8.3,0V351.6z M672.3,334.6l-4.2,0l0-3.2l4.2,0
		L672.3,334.6z"/>
	<path class="st4" d="M676,346.4c0-2.5,0.5-4.5,1.6-6c1.1-1.5,2.6-2.3,4.5-2.3c0.9,0,1.7,0.2,2.3,0.6c0.7,0.4,1.2,1,1.7,1.7l0.3-2
		l3.7,0l0,15.4c0,2.1-0.6,3.8-1.9,5c-1.3,1.2-3.1,1.9-5.4,1.9c-0.8,0-1.6-0.1-2.5-0.3c-0.9-0.2-1.7-0.5-2.5-0.9l0.8-3
		c0.7,0.3,1.4,0.5,2,0.7c0.7,0.2,1.4,0.3,2.1,0.3c1,0,1.8-0.3,2.3-1s0.8-1.5,0.8-2.7v-1c-0.5,0.6-1,1-1.6,1.4
		c-0.6,0.3-1.3,0.5-2.2,0.5c-1.9,0-3.4-0.7-4.5-2.1c-1.1-1.4-1.6-3.3-1.6-5.6V346.4z M680.2,346.7c0,1.4,0.2,2.5,0.7,3.3
		c0.5,0.8,1.2,1.2,2.3,1.2c0.6,0,1.2-0.1,1.6-0.4s0.8-0.6,1.1-1l0-6.9c-0.3-0.5-0.6-0.8-1.1-1.1s-1-0.4-1.6-0.4
		c-1,0-1.8,0.5-2.3,1.4c-0.5,0.9-0.7,2.1-0.7,3.6V346.7z"/>
</g>
<g class="st3">
	<path class="st4" d="M692.5,351.6l2-0.4l0-9.8l-2.2-0.4l0-2.6l6.2,0l0.2,2.3c0.5-0.8,1.2-1.4,1.9-1.9c0.8-0.4,1.6-0.7,2.6-0.7
		c1.6,0,2.8,0.5,3.7,1.5c0.9,1,1.3,2.6,1.3,4.7l0,6.9l2,0.4v2.6l-8.1,0v-2.6l1.8-0.4l0-6.9c0-1.1-0.2-1.8-0.6-2.3
		c-0.4-0.4-1.1-0.7-1.9-0.7c-0.6,0-1.1,0.1-1.5,0.3c-0.4,0.2-0.8,0.6-1.1,1l0,8.5l1.7,0.4v2.6l-8,0V351.6z"/>
</g>
<g class="st3">
	<path class="st4" d="M718.9,354.5c-2.3,0-4.1-0.7-5.4-2.2c-1.4-1.5-2-3.3-2-5.6v-0.6c0-2.4,0.6-4.3,1.9-5.8c1.3-1.5,3-2.3,5.2-2.3
		c2.1,0,3.8,0.6,4.9,1.9c1.2,1.3,1.8,3,1.8,5.2v2.3l-9.4,0l0,0.1c0.1,1,0.4,1.9,1,2.6c0.6,0.7,1.4,1,2.5,1c0.9,0,1.7-0.1,2.3-0.3
		c0.6-0.2,1.3-0.5,2-0.9l1.1,2.6c-0.6,0.5-1.5,1-2.5,1.3C721.3,354.3,720.2,354.5,718.9,354.5z M718.5,341.3c-0.8,0-1.4,0.3-1.9,0.9
		c-0.5,0.6-0.7,1.4-0.8,2.4l0,0.1l5.2,0l0-0.4c0-0.9-0.2-1.6-0.6-2.2C720,341.6,719.4,341.3,718.5,341.3z"/>
	<path class="st4" d="M737.4,352.3c-0.5,0.7-1.1,1.3-1.7,1.7c-0.7,0.4-1.4,0.6-2.3,0.6c-1.9,0-3.4-0.7-4.5-2.1
		c-1.1-1.4-1.6-3.3-1.6-5.7v-0.3c0-2.5,0.5-4.5,1.6-6.1c1.1-1.5,2.6-2.3,4.5-2.3c0.8,0,1.5,0.2,2.1,0.5s1.2,0.8,1.7,1.5l0-5.7
		l-2.3-0.4l0-2.6l2.3,0l4.2,0l0,19.8l2,0.4v2.6l-5.7,0L737.4,352.3z M731.5,346.7c0,1.4,0.2,2.5,0.7,3.3c0.5,0.8,1.2,1.2,2.3,1.2
		c0.6,0,1.2-0.1,1.6-0.4s0.8-0.6,1.1-1.1l0-6.7c-0.3-0.5-0.7-0.9-1.1-1.2c-0.4-0.3-1-0.4-1.6-0.4c-1,0-1.8,0.5-2.3,1.4
		s-0.7,2.1-0.7,3.6V346.7z"/>
</g>
<g class="st3">
	<path class="st4" d="M657.3,379.8l-2.8,0l-0.5-2c-0.3-0.2-0.7-0.4-1.1-0.6c-0.4-0.2-0.9-0.2-1.5-0.2c-0.7,0-1.3,0.2-1.8,0.5
		c-0.4,0.3-0.7,0.8-0.7,1.3c0,0.5,0.2,0.9,0.6,1.2s1.2,0.6,2.5,0.8c1.9,0.4,3.4,1,4.3,1.7c0.9,0.8,1.4,1.8,1.4,3.1
		c0,1.4-0.6,2.6-1.8,3.5c-1.2,0.9-2.8,1.4-4.8,1.4c-1.2,0-2.3-0.2-3.3-0.5c-1-0.4-1.9-0.9-2.7-1.5l0-3.6l3,0l0.6,2.1
		c0.3,0.2,0.6,0.4,1,0.5c0.4,0.1,0.9,0.2,1.4,0.2c0.9,0,1.5-0.2,2-0.5c0.4-0.3,0.7-0.7,0.7-1.3c0-0.5-0.2-0.9-0.7-1.2
		c-0.5-0.3-1.3-0.6-2.5-0.9c-1.8-0.4-3.2-0.9-4.2-1.7c-0.9-0.7-1.4-1.8-1.4-3.1c0-1.3,0.5-2.5,1.6-3.4c1.1-1,2.6-1.4,4.6-1.4
		c1.2,0,2.4,0.2,3.5,0.5c1.1,0.3,1.9,0.8,2.6,1.3L657.3,379.8z"/>
	<path class="st4" d="M667.3,390.5c-2.3,0-4.1-0.7-5.4-2.2c-1.4-1.5-2-3.3-2-5.6v-0.6c0-2.4,0.6-4.3,1.9-5.8c1.3-1.5,3-2.3,5.2-2.3
		c2.1,0,3.8,0.6,4.9,1.9c1.2,1.3,1.8,3,1.8,5.2l0,2.3l-9.4,0l0,0.1c0.1,1,0.4,1.9,1,2.6c0.6,0.7,1.4,1,2.5,1c0.9,0,1.7-0.1,2.3-0.3
		c0.6-0.2,1.3-0.5,2-0.9l1.1,2.6c-0.6,0.5-1.5,1-2.5,1.3C669.7,390.3,668.5,390.5,667.3,390.5z M666.9,377.4c-0.8,0-1.4,0.3-1.9,0.9
		c-0.5,0.6-0.7,1.4-0.8,2.4l0,0.1l5.2,0v-0.4c0-0.9-0.2-1.6-0.6-2.2C668.4,377.6,667.7,377.4,666.9,377.4z"/>
	<path class="st4" d="M688.4,379.8l-2.8,0l-0.5-2c-0.3-0.2-0.7-0.4-1.1-0.6c-0.4-0.2-0.9-0.2-1.5-0.2c-0.7,0-1.3,0.2-1.8,0.5
		c-0.4,0.3-0.7,0.8-0.7,1.3c0,0.5,0.2,0.9,0.6,1.2c0.4,0.3,1.2,0.6,2.5,0.8c1.9,0.4,3.4,1,4.3,1.7c0.9,0.8,1.4,1.8,1.4,3.1
		c0,1.4-0.6,2.6-1.8,3.5c-1.2,0.9-2.8,1.4-4.8,1.4c-1.2,0-2.3-0.2-3.3-0.5c-1-0.4-1.9-0.9-2.7-1.5l0-3.6l3,0l0.6,2.1
		c0.3,0.2,0.6,0.4,1,0.5c0.4,0.1,0.9,0.2,1.4,0.2c0.9,0,1.5-0.2,2-0.5s0.7-0.7,0.7-1.3c0-0.5-0.2-0.9-0.7-1.2
		c-0.5-0.3-1.3-0.6-2.5-0.9c-1.8-0.4-3.2-0.9-4.2-1.7c-0.9-0.7-1.4-1.8-1.4-3.1c0-1.3,0.5-2.5,1.6-3.4c1.1-1,2.6-1.4,4.6-1.4
		c1.2,0,2.4,0.2,3.5,0.5c1.1,0.3,1.9,0.8,2.6,1.3L688.4,379.8z"/>
	<path class="st4" d="M703.6,379.8l-2.8,0l-0.5-2c-0.3-0.2-0.7-0.4-1.1-0.6c-0.4-0.2-0.9-0.2-1.5-0.2c-0.7,0-1.3,0.2-1.8,0.5
		c-0.4,0.3-0.7,0.8-0.7,1.3c0,0.5,0.2,0.9,0.6,1.2s1.2,0.6,2.5,0.8c1.9,0.4,3.4,1,4.3,1.7c0.9,0.8,1.4,1.8,1.4,3.1
		c0,1.4-0.6,2.6-1.8,3.5c-1.2,0.9-2.8,1.4-4.8,1.4c-1.2,0-2.3-0.2-3.3-0.5c-1-0.4-1.9-0.9-2.7-1.5l0-3.6l3,0l0.6,2.1
		c0.3,0.2,0.6,0.4,1,0.5c0.4,0.1,0.9,0.2,1.4,0.2c0.9,0,1.5-0.2,2-0.5s0.7-0.7,0.7-1.3c0-0.5-0.2-0.9-0.7-1.2
		c-0.5-0.3-1.3-0.6-2.5-0.9c-1.8-0.4-3.2-0.9-4.2-1.7c-0.9-0.7-1.4-1.8-1.4-3.1c0-1.3,0.5-2.5,1.6-3.4c1.1-1,2.6-1.4,4.6-1.4
		c1.2,0,2.4,0.2,3.5,0.5c1.1,0.3,1.9,0.8,2.6,1.3L703.6,379.8z"/>
	<path class="st4" d="M706,387.6l2-0.4l0-9.8l-2.3-0.4v-2.6l6.5,0l0,12.8l2,0.4l0,2.6l-8.3,0L706,387.6z M712.3,370.5l-4.2,0v-3.2
		l4.2,0V370.5z"/>
	<path class="st4" d="M715.7,382.1c0-2.4,0.7-4.3,2-5.8c1.3-1.5,3.1-2.3,5.4-2.3c2.3,0,4.1,0.8,5.4,2.3c1.3,1.5,2,3.4,2,5.8v0.3
		c0,2.4-0.7,4.3-2,5.8c-1.3,1.5-3.1,2.2-5.4,2.2c-2.3,0-4.2-0.7-5.5-2.2c-1.3-1.5-2-3.4-2-5.8V382.1z M719.9,382.4
		c0,1.4,0.3,2.6,0.8,3.5s1.3,1.3,2.4,1.3c1.1,0,1.9-0.4,2.4-1.3c0.5-0.9,0.8-2,0.8-3.5v-0.3c0-1.4-0.3-2.6-0.8-3.4
		c-0.5-0.9-1.3-1.3-2.4-1.3c-1.1,0-1.9,0.4-2.4,1.3c-0.5,0.9-0.8,2-0.8,3.4V382.4z"/>
	<path class="st4" d="M732.1,387.6l2-0.4l0-9.8l-2.2-0.4v-2.6l6.2,0l0.2,2.3c0.5-0.8,1.2-1.4,1.9-1.9c0.8-0.4,1.6-0.7,2.6-0.7
		c1.6,0,2.8,0.5,3.7,1.5s1.3,2.6,1.3,4.7l0,6.9l2,0.4l0,2.6l-8.1,0l0-2.6l1.8-0.4l0-6.9c0-1.1-0.2-1.8-0.6-2.3
		c-0.4-0.4-1.1-0.7-1.9-0.7c-0.6,0-1.1,0.1-1.5,0.3c-0.4,0.2-0.8,0.6-1.1,1l0,8.5l1.7,0.4l0,2.6l-8,0L732.1,387.6z"/>
</g>
<g class="st3">
	<path class="st4" d="M820.1,643.8c-0.3,0.1-0.5,0.2-0.8,0.3c-0.3,0.1-0.6,0.2-0.8,0.2c0.6,0.5,1.1,1.1,1.4,1.8
		c0.4,0.7,0.5,1.5,0.5,2.5c0,1.5-0.4,2.8-1.3,3.7c-0.8,0.9-2,1.4-3.5,1.4c-1.5,0-2.6-0.6-3.4-1.8c-0.8-1.2-1.2-2.9-1.2-5.2l0-2.2
		h-1.6c-0.8,0-1.4,0.2-1.8,0.7c-0.4,0.4-0.6,1.1-0.6,1.9c0,0.5,0.1,0.9,0.2,1.3c0.1,0.4,0.2,0.7,0.4,0.9l1.7,0.3l0,3.2l-3.5,0
		c-0.5-0.8-1-1.7-1.3-2.7c-0.4-1-0.5-2.1-0.5-3.3c0-1.9,0.5-3.5,1.4-4.7c1-1.2,2.3-1.8,4.1-1.8l6.5,0c0.2,0,0.5,0,0.7,0
		s0.4,0,0.6-0.1l0.2-1.3h2.6L820.1,643.8z M817.2,647.5c0-0.6-0.1-1.2-0.4-1.7c-0.3-0.5-0.6-0.9-1-1.2l-2.4,0l0,2.2
		c0,0.9,0.2,1.6,0.6,2c0.4,0.5,0.9,0.7,1.5,0.7c0.5,0,1-0.2,1.3-0.5C817.1,648.6,817.2,648.1,817.2,647.5z"/>
	<path class="st4" d="M800.4,631.4l0,4.2l-3.2,0l0-4.2L800.4,631.4z M817.5,637.6l-0.4-2l-9.8,0l-0.4,2.3h-2.6l0-6.5l12.8,0l0.4-2
		h2.6l0,8.3H817.5z"/>
	<path class="st4" d="M817.5,627.6l-0.4-2l-9.8,0l-0.4,2.2h-2.6l0-6.2l2.3-0.2c-0.8-0.4-1.5-0.8-1.9-1.4s-0.7-1.3-0.7-2
		c0-0.2,0-0.5,0.1-0.7c0-0.2,0.1-0.5,0.1-0.6l3.9,0.4l0,1.7c0,0.6,0.1,1.1,0.4,1.5s0.6,0.7,1,0.9l7.7,0l0.4-2h2.6l0,8.3H817.5z"/>
	<path class="st4" d="M812.3,607.9c-2.5,0-4.5-0.5-6-1.6c-1.5-1.1-2.3-2.6-2.3-4.5c0-0.9,0.2-1.7,0.6-2.3c0.4-0.7,1-1.2,1.7-1.7
		l-2-0.3l0-3.7l15.4,0c2.1,0,3.8,0.6,5,1.9c1.2,1.3,1.9,3.1,1.9,5.4c0,0.8-0.1,1.6-0.3,2.5c-0.2,0.9-0.5,1.7-0.9,2.5l-3-0.8
		c0.3-0.7,0.5-1.4,0.7-2s0.3-1.4,0.3-2.1c0-1-0.3-1.8-1-2.3s-1.5-0.8-2.7-0.8h-1c0.6,0.5,1,1,1.4,1.6c0.3,0.6,0.5,1.3,0.5,2.2
		c0,1.9-0.7,3.4-2.1,4.5c-1.4,1.1-3.3,1.6-5.6,1.6H812.3z M812.6,603.7c1.4,0,2.5-0.2,3.3-0.7s1.2-1.2,1.2-2.3
		c0-0.6-0.1-1.2-0.4-1.6c-0.2-0.4-0.6-0.8-1-1.1l-6.9,0c-0.5,0.3-0.8,0.6-1.1,1.1s-0.4,1-0.4,1.6c0,1,0.5,1.8,1.4,2.3
		c0.9,0.5,2.1,0.7,3.6,0.7H812.6z"/>
	<path class="st4" d="M820.1,581.2c-0.3,0.1-0.5,0.2-0.8,0.3c-0.3,0.1-0.6,0.2-0.8,0.2c0.6,0.5,1.1,1.1,1.4,1.8
		c0.4,0.7,0.5,1.5,0.5,2.5c0,1.5-0.4,2.8-1.3,3.7c-0.8,0.9-2,1.4-3.5,1.4c-1.5,0-2.6-0.6-3.4-1.8c-0.8-1.2-1.2-2.9-1.2-5.2l0-2.2
		h-1.6c-0.8,0-1.4,0.2-1.8,0.7c-0.4,0.4-0.6,1.1-0.6,1.9c0,0.5,0.1,0.9,0.2,1.3c0.1,0.4,0.2,0.7,0.4,0.9l1.7,0.3l0,3.2l-3.5,0
		c-0.5-0.8-1-1.7-1.3-2.7c-0.4-1-0.5-2.1-0.5-3.3c0-1.9,0.5-3.5,1.4-4.7c1-1.2,2.3-1.8,4.1-1.8l6.5,0c0.2,0,0.5,0,0.7,0
		s0.4,0,0.6-0.1l0.2-1.3h2.6L820.1,581.2z M817.2,584.9c0-0.6-0.1-1.2-0.4-1.7c-0.3-0.5-0.6-0.9-1-1.2l-2.4,0l0,2.2
		c0,0.9,0.2,1.6,0.6,2c0.4,0.5,0.9,0.7,1.5,0.7c0.5,0,1-0.2,1.3-0.5C817.1,585.9,817.2,585.5,817.2,584.9z"/>
	<path class="st4" d="M806.8,575.2h-2.6l0-6.1l1.8-0.2c-0.7-0.5-1.2-1-1.6-1.7s-0.6-1.4-0.6-2.3c0-1.9,0.8-3.5,2.3-4.5
		c1.5-1.1,3.5-1.6,6-1.6h0.3c2.3,0,4.2,0.5,5.7,1.6c1.4,1.1,2.1,2.6,2.1,4.5c0,0.8-0.2,1.6-0.5,2.2c-0.3,0.6-0.8,1.2-1.4,1.6l4.6,0
		l0.4-2l2.6,0l0,8.3l-2.6,0l-0.4-2l-15.9,0L806.8,575.2z M812.3,563c-1.5,0-2.7,0.2-3.6,0.7s-1.4,1.2-1.4,2.3c0,0.6,0.1,1.2,0.4,1.6
		c0.3,0.4,0.6,0.8,1.1,1.1l6.9,0c0.4-0.3,0.8-0.6,1-1.1c0.2-0.5,0.4-1,0.4-1.7c0-1-0.4-1.8-1.2-2.3s-1.9-0.7-3.3-0.7H812.3z"/>
	<path class="st4" d="M806.8,557.2h-2.6l0-6.1l1.8-0.2c-0.7-0.5-1.2-1-1.6-1.7c-0.4-0.6-0.6-1.4-0.6-2.3c0-1.9,0.8-3.5,2.3-4.5
		s3.5-1.6,6-1.6h0.3c2.3,0,4.2,0.5,5.7,1.6s2.1,2.6,2.1,4.5c0,0.8-0.2,1.6-0.5,2.2c-0.3,0.6-0.8,1.2-1.4,1.6l4.6,0l0.4-2l2.6,0
		l0,8.3l-2.6,0l-0.4-2l-15.9,0L806.8,557.2z M812.3,545c-1.5,0-2.7,0.2-3.6,0.7s-1.4,1.2-1.4,2.3c0,0.6,0.1,1.2,0.4,1.6
		c0.3,0.4,0.6,0.8,1.1,1.1l6.9,0c0.4-0.3,0.8-0.6,1-1.1c0.2-0.5,0.4-1,0.4-1.7c0-1-0.4-1.8-1.2-2.3s-1.9-0.7-3.3-0.7H812.3z"/>
	<path class="st4" d="M820.4,531.4c0,2.3-0.7,4.1-2.2,5.4s-3.3,2-5.6,2H812c-2.4,0-4.3-0.6-5.8-1.9c-1.5-1.3-2.3-3-2.3-5.2
		c0-2.1,0.6-3.8,1.9-4.9c1.3-1.2,3-1.8,5.2-1.8h2.3l0,9.4l0.1,0c1-0.1,1.9-0.4,2.6-1c0.7-0.6,1-1.4,1-2.5c0-0.9-0.1-1.7-0.3-2.3
		c-0.2-0.6-0.5-1.3-0.9-2l2.6-1.1c0.5,0.6,1,1.5,1.3,2.5C820.2,529,820.4,530.1,820.4,531.4z M807.2,531.8c0,0.8,0.3,1.4,0.9,1.9
		c0.6,0.5,1.4,0.7,2.4,0.8l0.1,0l0-5.2h-0.4c-0.9,0-1.6,0.2-2.2,0.6C807.5,530.3,807.2,530.9,807.2,531.8z"/>
	<path class="st4" d="M818.1,512.9c0.7,0.5,1.3,1.1,1.7,1.7c0.4,0.7,0.6,1.4,0.6,2.3c0,1.9-0.7,3.4-2.1,4.5
		c-1.4,1.1-3.3,1.6-5.7,1.6h-0.3c-2.5,0-4.5-0.5-6.1-1.6c-1.5-1.1-2.3-2.6-2.3-4.5c0-0.8,0.2-1.5,0.5-2.1c0.3-0.6,0.8-1.2,1.5-1.7
		l-5.7,0l-0.4,2.3l-2.6,0v-2.3l0-4.2l19.8,0l0.4-2h2.6l0,5.7L818.1,512.9z M812.6,518.8c1.4,0,2.5-0.2,3.3-0.7
		c0.8-0.5,1.2-1.2,1.2-2.3c0-0.6-0.1-1.2-0.4-1.6s-0.6-0.8-1.1-1.1l-6.7,0c-0.5,0.3-0.9,0.7-1.2,1.1c-0.3,0.4-0.4,1-0.4,1.6
		c0,1,0.5,1.8,1.4,2.3c0.9,0.5,2.1,0.7,3.6,0.7H812.6z"/>
</g>
<g>
	<line class="st5" x1="310" y1="357" x2="229" y2="357"/>
	<polygon class="st4" points="300.7,345.5 298.8,347.6 308.9,357 298.8,366.4 300.7,368.5 313,357 	"/>
</g>
<g>
	<line class="st5" x1="627" y1="357" x2="546" y2="357"/>
	<polygon class="st4" points="617.7,345.5 615.8,347.6 625.9,357 615.8,366.4 617.7,368.5 630,357 	"/>
</g>
<g>
	<line class="st5" x1="428" y1="420" x2="428" y2="460"/>
	<polygon class="st4" points="416.5,429.3 418.6,431.2 428,421.1 437.4,431.2 439.5,429.3 428,417 	"/>
</g>
<g>
	<line class="st5" x1="428" y1="300" x2="428" y2="260"/>
	<polygon class="st4" points="439.5,290.7 437.4,288.8 428,298.9 418.6,288.8 416.5,290.7 428,303 	"/>
</g>
<g>
	<path class="st4" d="M137.7,440.8h-2.8l-0.4-2c-0.3-0.2-0.6-0.4-1.1-0.6s-0.9-0.2-1.4-0.2c-0.7,0-1.3,0.2-1.8,0.5s-0.6,0.8-0.6,1.3
		c0,0.5,0.2,0.9,0.6,1.2c0.4,0.3,1.2,0.6,2.5,0.8c1.9,0.4,3.4,1,4.3,1.7c0.9,0.8,1.4,1.8,1.4,3.1c0,1.4-0.6,2.6-1.8,3.5
		c-1.2,0.9-2.8,1.4-4.8,1.4c-1.2,0-2.3-0.2-3.3-0.5c-1-0.4-1.9-0.9-2.7-1.5l0-3.6h2.9l0.6,2.1c0.2,0.2,0.6,0.4,1,0.5
		c0.4,0.1,0.9,0.1,1.4,0.1c0.9,0,1.5-0.2,2-0.5c0.4-0.3,0.7-0.7,0.7-1.3c0-0.5-0.2-0.9-0.7-1.2c-0.4-0.3-1.3-0.6-2.5-0.9
		c-1.8-0.4-3.2-0.9-4.2-1.7c-0.9-0.8-1.4-1.8-1.4-3c0-1.3,0.5-2.5,1.6-3.4c1.1-1,2.6-1.4,4.6-1.4c1.2,0,2.4,0.2,3.4,0.5
		c1.1,0.3,1.9,0.8,2.6,1.3L137.7,440.8L137.7,440.8z"/>
	<path class="st4" d="M147.6,451.5c-2.2,0-4.1-0.7-5.4-2.2s-2-3.3-2-5.6v-0.6c0-2.4,0.6-4.3,1.9-5.8s3-2.3,5.1-2.3
		c2.1,0,3.8,0.6,4.9,1.9c1.2,1.3,1.8,3,1.8,5.2v2.3h-9.3l0,0.1c0.1,1,0.4,1.9,1,2.6c0.6,0.7,1.4,1,2.5,1c0.9,0,1.7-0.1,2.3-0.3
		s1.3-0.5,2-0.9l1.1,2.6c-0.6,0.5-1.5,1-2.5,1.3S148.9,451.5,147.6,451.5L147.6,451.5z M147.3,438.4c-0.8,0-1.4,0.3-1.9,0.9
		c-0.4,0.6-0.7,1.4-0.8,2.4l0,0.1h5.2v-0.4c0-0.9-0.2-1.6-0.6-2.2S148.1,438.4,147.3,438.4L147.3,438.4z"/>
	<path class="st4" d="M168.7,440.8h-2.8l-0.4-2c-0.3-0.2-0.6-0.4-1.1-0.6c-0.4-0.2-0.9-0.2-1.4-0.2c-0.7,0-1.3,0.2-1.8,0.5
		c-0.4,0.3-0.6,0.8-0.6,1.3c0,0.5,0.2,0.9,0.6,1.2c0.4,0.3,1.2,0.6,2.5,0.8c1.9,0.4,3.4,1,4.3,1.7c0.9,0.8,1.4,1.8,1.4,3.1
		c0,1.4-0.6,2.6-1.8,3.5s-2.8,1.4-4.8,1.4c-1.2,0-2.3-0.2-3.3-0.5c-1-0.4-1.9-0.9-2.7-1.5l0-3.6h2.9l0.6,2.1c0.2,0.2,0.6,0.4,1,0.5
		c0.4,0.1,0.9,0.1,1.4,0.1c0.9,0,1.5-0.2,2-0.5c0.4-0.3,0.7-0.7,0.7-1.3c0-0.5-0.2-0.9-0.7-1.2c-0.4-0.3-1.3-0.6-2.5-0.9
		c-1.8-0.4-3.2-1-4.2-1.7c-0.9-0.8-1.4-1.8-1.4-3c0-1.3,0.5-2.5,1.6-3.4s2.6-1.4,4.6-1.4c1.2,0,2.4,0.2,3.4,0.5
		c1.1,0.3,1.9,0.8,2.6,1.3L168.7,440.8L168.7,440.8z"/>
	<path class="st4" d="M183.9,440.8h-2.8l-0.4-2c-0.3-0.2-0.6-0.4-1.1-0.6s-0.9-0.2-1.4-0.2c-0.7,0-1.3,0.2-1.8,0.5s-0.6,0.8-0.6,1.3
		c0,0.5,0.2,0.9,0.6,1.2c0.4,0.3,1.2,0.6,2.5,0.8c1.9,0.4,3.4,1,4.3,1.7c0.9,0.8,1.4,1.8,1.4,3.1c0,1.4-0.6,2.6-1.8,3.5
		c-1.2,0.9-2.8,1.4-4.8,1.4c-1.2,0-2.3-0.2-3.3-0.5c-1-0.4-1.9-0.9-2.7-1.5l0-3.6h2.9l0.6,2.1c0.2,0.2,0.6,0.4,1,0.5
		s0.9,0.1,1.4,0.1c0.9,0,1.5-0.2,2-0.5c0.4-0.3,0.7-0.7,0.7-1.3c0-0.5-0.2-0.9-0.7-1.2s-1.3-0.6-2.5-0.9c-1.8-0.4-3.2-0.9-4.2-1.7
		s-1.4-1.8-1.4-3c0-1.3,0.5-2.5,1.6-3.4c1.1-1,2.6-1.4,4.6-1.4c1.2,0,2.4,0.2,3.4,0.5c1.1,0.3,1.9,0.8,2.6,1.3L183.9,440.8
		L183.9,440.8z"/>
	<path class="st4" d="M186.2,448.6l2-0.4v-9.8l-2.3-0.4v-2.6h6.5v12.8l2,0.4v2.6h-8.3V448.6L186.2,448.6z M192.5,431.5h-4.2v-3.2
		h4.2V431.5z"/>
	<path class="st4" d="M195.9,443.1c0-2.4,0.6-4.3,2-5.8c1.3-1.5,3.1-2.3,5.4-2.3c2.3,0,4.1,0.8,5.4,2.2s2,3.4,2,5.8v0.3
		c0,2.4-0.6,4.3-2,5.8c-1.3,1.5-3.1,2.2-5.4,2.2s-4.1-0.8-5.4-2.2s-2-3.4-2-5.8V443.1L195.9,443.1z M200.1,443.4
		c0,1.5,0.2,2.6,0.8,3.5c0.5,0.9,1.3,1.3,2.4,1.3s1.9-0.4,2.4-1.3s0.8-2,0.8-3.5v-0.3c0-1.4-0.3-2.5-0.8-3.4
		c-0.5-0.9-1.3-1.3-2.4-1.3s-1.9,0.5-2.4,1.3c-0.5,0.9-0.8,2-0.8,3.4L200.1,443.4L200.1,443.4z"/>
	<path class="st4" d="M212.3,448.6l2-0.4v-9.8l-2.2-0.4v-2.6h6.2l0.2,2.3c0.5-0.8,1.2-1.4,1.9-1.9s1.6-0.7,2.6-0.7
		c1.6,0,2.8,0.5,3.7,1.5c0.9,1,1.3,2.6,1.3,4.7v6.9l2,0.4v2.6h-8.1v-2.6l1.8-0.4v-6.9c0-1.1-0.2-1.8-0.6-2.3
		c-0.4-0.4-1.1-0.7-1.9-0.7c-0.6,0-1.1,0.1-1.5,0.3s-0.8,0.5-1.1,1v8.5l1.7,0.4v2.6h-7.9L212.3,448.6L212.3,448.6z"/>
	<path class="st4" d="M126.1,473.1H123l-0.4-2.8c-0.4-0.4-0.9-0.8-1.6-1c-0.6-0.2-1.4-0.4-2.2-0.4c-1.8,0-3.2,0.7-4.2,2
		c-1,1.4-1.5,3.1-1.5,5.3v0.8c0,2.2,0.5,3.9,1.5,5.3c1,1.4,2.4,2,4.2,2c0.8,0,1.6-0.1,2.3-0.4s1.2-0.6,1.6-1l0.4-2.8h3.1v4.2
		c-0.8,1-1.9,1.8-3.2,2.4s-2.8,0.9-4.4,0.9c-2.8,0-5.1-1-6.9-3c-1.8-2-2.7-4.5-2.7-7.6v-0.7c0-3.1,0.9-5.6,2.7-7.6s4.1-3,6.9-3
		c1.6,0,3.1,0.3,4.4,0.9c1.3,0.6,2.4,1.4,3.2,2.4L126.1,473.1L126.1,473.1z"/>
	<path class="st4" d="M137.5,465.9c2.4,0,4.3,0.5,5.6,1.7c1.4,1.1,2,2.6,2,4.6c0,1.1-0.3,2-0.9,2.8s-1.4,1.4-2.5,1.9
		c1.2,0.4,2.1,1,2.7,1.9c0.5,0.9,0.8,1.9,0.8,3.2v1.1c0,0.5,0.1,0.8,0.3,1.1c0.2,0.3,0.5,0.4,0.9,0.5l0.5,0.1v2.6h-2.2
		c-1.4,0-2.4-0.4-2.9-1.1s-0.8-1.7-0.8-2.9v-1.2c0-1-0.3-1.9-0.8-2.4s-1.3-0.9-2.3-0.9h-3.4v5.6l2.2,0.4v2.6h-8.7v-2.6l2.2-0.4
		v-15.3l-2.2-0.4v-2.6L137.5,465.9L137.5,465.9z M134.5,475.3h2.9c1.2,0,2.1-0.2,2.6-0.8c0.6-0.5,0.9-1.2,0.9-2.2
		c0-1-0.3-1.7-0.9-2.3s-1.4-0.9-2.6-0.9h-3L134.5,475.3L134.5,475.3z"/>
	<path class="st4" d="M162,477.8h-7.1v6.1h6.8l0.2-2.5h3.2v5.8h-16.6v-2.6l2.2-0.4v-15.3l-2.2-0.4v-2.6H165v5.8h-3.2l-0.2-2.5h-6.7
		v5.4h7.1L162,477.8L162,477.8z"/>
	<path class="st4" d="M167.1,484.6l1.5-0.2l6.4-18.5h4.3l6.4,18.5l1.5,0.2v2.6H180v-2.6l1.5-0.3l-0.9-2.9h-6.8l-0.9,2.9l1.5,0.3v2.6
		h-7.2L167.1,484.6L167.1,484.6z M174.7,478.3h4.8l-2.4-7.5h-0.1L174.7,478.3L174.7,478.3z"/>
	<path class="st4" d="M204.9,465.9v5.7h-3.2l-0.2-2.4h-3.9v15l2.3,0.4v2.6h-8.7v-2.6l2.2-0.4v-15h-3.9l-0.2,2.4h-3.2v-5.7H204.9z"/>
	<path class="st4" d="M225.1,476.7c0,3.1-0.9,5.7-2.6,7.8s-4.1,3.1-6.9,3.1c-2.8,0-5.1-1-6.9-3.1s-2.6-4.6-2.6-7.8v-0.3
		c0-3.1,0.9-5.7,2.6-7.7s4-3.1,6.9-3.1c2.9,0,5.2,1,6.9,3.1c1.8,2,2.6,4.6,2.6,7.7L225.1,476.7L225.1,476.7z M220.9,476.3
		c0-2.2-0.4-4-1.4-5.4s-2.2-2.1-4-2.1c-1.8,0-3.1,0.7-4,2s-1.3,3.2-1.3,5.4v0.4c0,2.2,0.4,4.1,1.3,5.4s2.2,2.1,4,2.1
		c1.8,0,3.1-0.7,4-2.1c0.9-1.4,1.3-3.2,1.3-5.4L220.9,476.3L220.9,476.3z"/>
	<path class="st4" d="M236.2,465.9c2.4,0,4.3,0.5,5.6,1.7s2,2.6,2,4.6c0,1.1-0.3,2-0.9,2.8c-0.6,0.8-1.4,1.4-2.5,1.9
		c1.2,0.4,2.1,1,2.7,1.9c0.5,0.9,0.8,1.9,0.8,3.2v1.1c0,0.5,0.1,0.8,0.3,1.1c0.2,0.3,0.5,0.4,0.9,0.5l0.5,0.1v2.6h-2.2
		c-1.4,0-2.3-0.4-2.9-1.1s-0.8-1.7-0.8-2.9v-1.2c0-1-0.3-1.9-0.8-2.4c-0.5-0.6-1.3-0.9-2.3-0.9h-3.4v5.6l2.3,0.4v2.6h-8.7v-2.6
		l2.2-0.4v-15.3l-2.2-0.4v-2.6L236.2,465.9L236.2,465.9z M233.2,475.2h2.9c1.2,0,2.1-0.2,2.6-0.8c0.6-0.5,0.9-1.2,0.9-2.2
		c0-1-0.3-1.7-0.9-2.3s-1.4-0.9-2.6-0.9h-3V475.2L233.2,475.2z"/>
</g>
<g class="st3">
	<path class="st4" d="M1172.5,161.9l0-2.6l6.1,0l0.2,1.8c0.5-0.7,1-1.2,1.7-1.6c0.6-0.4,1.4-0.6,2.3-0.6c1.9,0,3.5,0.8,4.5,2.3
		c1.1,1.5,1.6,3.5,1.6,6v0.3c0,2.3-0.5,4.2-1.6,5.7c-1.1,1.4-2.6,2.1-4.5,2.1c-0.8,0-1.6-0.2-2.2-0.5c-0.6-0.3-1.2-0.8-1.6-1.4
		l0,4.6l2,0.4v2.6l-8.3,0v-2.6l2-0.4l0-15.9L1172.5,161.9z M1184.7,167.4c0-1.5-0.2-2.7-0.7-3.6c-0.5-0.9-1.2-1.4-2.3-1.4
		c-0.6,0-1.2,0.1-1.6,0.4c-0.4,0.3-0.8,0.6-1.1,1.1l0,6.9c0.3,0.4,0.6,0.8,1.1,1c0.5,0.2,1,0.4,1.7,0.4c1,0,1.8-0.4,2.3-1.2
		c0.5-0.8,0.7-1.9,0.7-3.3V167.4z"/>
</g>
<g class="st3">
	<path class="st4" d="M1191.1,172.6l2-0.4l0-9.8l-2.2-0.4l0-2.6l6.2,0l0.2,2.3c0.4-0.8,0.8-1.5,1.4-1.9c0.6-0.5,1.3-0.7,2-0.7
		c0.2,0,0.5,0,0.7,0.1c0.2,0,0.5,0.1,0.6,0.1l-0.4,3.9l-1.7,0c-0.6,0-1.1,0.1-1.5,0.4c-0.4,0.2-0.7,0.6-0.9,1l0,7.7l2,0.4v2.6
		l-8.3,0V172.6z"/>
</g>
<g class="st3">
	<path class="st4" d="M1203,167.1c0-2.4,0.7-4.3,2-5.8c1.3-1.5,3.1-2.3,5.4-2.3c2.3,0,4.1,0.8,5.4,2.3c1.3,1.5,2,3.4,2,5.8v0.3
		c0,2.4-0.7,4.3-2,5.8c-1.3,1.5-3.1,2.2-5.4,2.2c-2.3,0-4.2-0.7-5.5-2.2c-1.3-1.5-2-3.4-2-5.8V167.1z M1207.3,167.4
		c0,1.4,0.3,2.6,0.8,3.5c0.5,0.9,1.3,1.3,2.4,1.3c1.1,0,1.9-0.4,2.4-1.3s0.8-2,0.8-3.5v-0.3c0-1.4-0.3-2.6-0.8-3.4s-1.3-1.3-2.4-1.3
		c-1.1,0-1.9,0.4-2.4,1.3s-0.8,2-0.8,3.4V167.4z"/>
</g>
<g class="st3">
	<path class="st4" d="M1226.1,161.9l-1.5,0.3l2.1,7.1l0.3,1.5h0.1l0.3-1.5l2-7.1l-1.5-0.3l0-2.6l7.1,0l0,2.6l-1.4,0.2l-4.6,13.1
		l-4,0l-4.6-13.1l-1.4-0.2l0-2.6l7.1,0L1226.1,161.9z"/>
	<path class="st4" d="M1236.2,172.6l2-0.4l0-9.8l-2.3-0.4l0-2.6l6.5,0l0,12.8l2,0.4v2.6l-8.3,0V172.6z M1242.5,155.5l-4.2,0l0-3.2
		l4.2,0L1242.5,155.5z"/>
	<path class="st4" d="M1256.2,173.3c-0.5,0.7-1.1,1.3-1.7,1.7c-0.7,0.4-1.4,0.6-2.3,0.6c-1.9,0-3.4-0.7-4.5-2.1s-1.6-3.3-1.6-5.7
		v-0.3c0-2.5,0.5-4.5,1.6-6s2.6-2.3,4.5-2.3c0.8,0,1.5,0.2,2.1,0.5c0.6,0.3,1.2,0.8,1.7,1.5l0-5.7l-2.3-0.4l0-2.6l2.3,0l4.2,0
		l0,19.8l2,0.4v2.6l-5.7,0L1256.2,173.3z M1250.2,167.7c0,1.4,0.2,2.5,0.7,3.3c0.5,0.8,1.2,1.2,2.3,1.2c0.6,0,1.2-0.1,1.6-0.4
		s0.8-0.6,1.1-1.1l0-6.7c-0.3-0.5-0.7-0.9-1.1-1.2c-0.4-0.3-1-0.4-1.6-0.4c-1,0-1.8,0.5-2.3,1.4s-0.7,2.1-0.7,3.6V167.7z"/>
	<path class="st4" d="M1271,175.5c-2.3,0-4.1-0.7-5.4-2.2c-1.4-1.5-2-3.3-2-5.6v-0.6c0-2.4,0.6-4.3,1.9-5.8c1.3-1.5,3-2.3,5.2-2.3
		c2.1,0,3.8,0.6,4.9,1.9c1.2,1.3,1.8,3,1.8,5.2v2.3l-9.4,0l0,0.1c0.1,1,0.4,1.9,1,2.6c0.6,0.7,1.4,1,2.5,1c0.9,0,1.7-0.1,2.3-0.3
		c0.6-0.2,1.3-0.5,2-0.9l1.1,2.6c-0.6,0.5-1.5,1-2.5,1.3C1273.5,175.3,1272.3,175.5,1271,175.5z M1270.7,162.3
		c-0.8,0-1.4,0.3-1.9,0.9c-0.5,0.6-0.7,1.4-0.8,2.4l0,0.1l5.2,0v-0.4c0-0.9-0.2-1.6-0.6-2.2C1272.1,162.6,1271.5,162.3,1270.7,162.3
		z"/>
	<path class="st4" d="M1279.7,172.6l2-0.4l0-9.8l-2.2-0.4l0-2.6l6.2,0l0.2,2.3c0.4-0.8,0.8-1.5,1.4-1.9c0.6-0.5,1.3-0.7,2-0.7
		c0.2,0,0.5,0,0.7,0.1c0.2,0,0.5,0.1,0.6,0.1l-0.4,3.9l-1.7,0c-0.6,0-1.1,0.1-1.5,0.4s-0.7,0.6-0.9,1l0,7.7l2,0.4v2.6l-8.3,0V172.6z
		"/>
</g>
<g>
	<path class="st4" d="M184.2,348c-1.8,0-2.7,2-1.4,3.5c0.5,0.4,1,0.6,1.5,0.6c1,0,2-0.8,2-2C186.3,349,185.2,348,184.2,348
		L184.2,348L184.2,348z"/>
	<path class="st4" d="M170.9,348c-1.1,0-2,0.9-2,2s0.9,2,2,2s2-0.9,2-2S172,348,170.9,348L170.9,348z"/>
	<path class="st16" d="M189.2,377.2v6.3h2.5c0.8,0,1.7,0,2.5,0.2c3,0.4,5.7,1.6,8,3.5c2.7,2,4.5,5.1,4.5,8.6v13.1h-58.7v-13.1
		c0-3.5,1.7-6.5,4.5-8.6c2.2-1.8,5-3.1,8-3.5c0.8-0.2,1.7-0.2,2.5-0.2h2.5v-6.3"/>
	<path class="st17" d="M156.4,346.4c0,5,0.2,7.1,0.2,12.1c0,11.5,9.1,21.6,20.6,21.6S198,371,198,359.5v-13.8"/>
	<path class="st17" d="M155.8,345.7l1.7-13.1c4.1-1,23.2,10.4,31.9-3.9c0,0-2.2,7,9.2,15.2v1.8"/>
	<path class="st17" d="M204.7,352.3c0,3.3-2.9,6.1-6.1,6.1v-12.3C201.8,346.2,204.7,349,204.7,352.3z"/>
	<path class="st17" d="M150.5,350.8v2c0.4,2.9,2.6,5.1,5.3,5.1v-12.3C153.2,345.7,150.9,348,150.5,350.8L150.5,350.8z"/>
	<path class="st17" d="M171.3,365.1c1.2,1.8,3.5,3.1,5.9,3.1s4.5-1.2,5.9-3.1"/>
	<path class="st18" d="M149.7,348.1v-15.4c0-10.9,12.3-23.7,27.6-23.7s27.6,12.8,27.6,23.7v15.7"/>
	<path class="st17" d="M202.1,387.2c-2.2-1.8-5-3.1-8-3.5c-0.8-0.2-1.7-0.2-2.5-0.2h-2.5v-6.3H189c5.8-3.8,9.7-10.3,9.7-17.8V358
		c3.3,0,6.1-2.9,6.1-6.1c0-1.3-0.4-2.5-1.2-3.5h1.2v-15.7c0-10.9-12.3-23.7-27.6-23.7s-27.6,12.8-27.6,23.7v15.4h1.2
		c-0.6,0.8-1.1,1.7-1.2,2.7v2c0.4,2.9,3.1,5.1,6.1,5.1c0,0,0.2-3.9,0.2,0.4c0,7.7,4,14.8,10,18.8h-0.7v6.3h-2.5
		c-0.8,0-1.7,0-2.5,0.2c-3,0.4-5.7,1.6-8,3.5c-2.7,2-4.5,5.1-4.5,8.6v13.1h58.7v-13.1C206.6,392.3,204.8,389.2,202.1,387.2
		L202.1,387.2z"/>
</g>
<g>
	<path class="st13" d="M465.2,588.8h-16.7c-0.8-3.4-3.9-5.9-7.5-5.9c-4.3,0-7.7,3.5-7.7,7.7s3.5,7.7,7.7,7.7c3.6,0,6.7-2.5,7.5-5.9
		h4.9l2.2,2.2l2.2-2.2h0.3l1.4,1.4l1.3-1.3l2.1,2.1l2.4-2.4l1.8-1.6L465.2,588.8L465.2,588.8z M438,592.7c-1.1,0-2-0.9-2-2
		s0.9-2,2-2s2,0.9,2,2S439.2,592.7,438,592.7z"/>
	<path class="st9" d="M420.2,588.7h-16.7c-0.8-3.4-3.9-5.9-7.5-5.9c-4.3,0-7.7,3.5-7.7,7.7s3.5,7.7,7.7,7.7c3.6,0,6.7-2.5,7.5-5.9
		h4.9l2.2,2.2l2.2-2.2h0.3l1.4,1.4l1.3-1.3l2.1,2.1l2.4-2.4l1.8-1.6L420.2,588.7L420.2,588.7z M393,592.6c-1.1,0-2-0.9-2-2
		s0.9-2,2-2s2,0.9,2,2S394.2,592.6,393,592.6z"/>
</g>
<g>
	<path class="st11" d="M1100.7,189.9v10.3h40.9v-10.3H1100.7z M1126.8,194.6C1126.8,194.6,1126.8,194.6,1126.8,194.6l5.3-2.7
		c1.2,1,1.5,2.9,0.3,4.5C1130.3,198.5,1127,197.5,1126.8,194.6L1126.8,194.6z M1109.3,194.4c0-0.9,0.5-1.7,1.2-2.3l5,3.1
		c-0.1,0.5-0.4,1-0.8,1.4C1112.5,198.6,1109.3,197.3,1109.3,194.4L1109.3,194.4z"/>
	<path class="st17" d="M1097.2,195.9c0,2.8,2.5,5.3,5.3,5.3v-10.6C1099.6,190.6,1097.2,193.1,1097.2,195.9z"/>
	<path class="st17" d="M1144,194.7v1.8c-0.3,2.5-2.3,4.4-4.6,4.4v-10.6C1141.8,190.2,1143.7,192.2,1144,194.7L1144,194.7z"/>
	<path class="st18" d="M1144.8,192.3V179c0-9.4-10.6-20.5-23.8-20.5s-23.8,11.1-23.8,20.5v13.6"/>
	<g>
		<path class="st16" d="M1110.6,217.4v5.5h-2.2c-0.7,0-1.5,0-2.2,0.2c-2.6,0.4-4.9,1.4-6.9,3c-2.4,1.8-3.9,4.4-3.9,7.4v11.3h50.8
			v-11.3c0-3-1.5-5.6-3.9-7.4c-1.9-1.6-4.3-2.6-6.9-3c-0.7-0.2-1.5-0.2-2.2-0.2h-2.2v-5.5"/>
		<path class="st17" d="M1138.9,190.9c0,4.3-0.2,6.2-0.2,10.5c0,9.9-7.9,18.7-17.8,18.7c-9.9,0-18-7.9-18-17.8v-12"/>
		<path class="st17" d="M1139.5,190.2l-1.5-11.4c-3.5-0.9-20,9-27.6-3.4c0,0,1.9,6.1-8,13.2v1.6"/>
		<path class="st17" d="M1126.1,207c-1.1,1.6-3.1,2.7-5.3,2.7s-4-1.1-5.3-2.7"/>
		<path class="st11" d="M1120.9,158.4c13.2,0,23.8,11.1,23.8,20.5v13.3h-1.6c0.5,0.7,0.8,1.5,0.9,2.4v1.8c-0.2,1.6-1.1,3-2.4,3.8v0
			h-0.1c-0.6,0.4-1.3,0.6-2.1,0.6v-0.6h-0.7c0,0.3,0,0.7,0,1.1c0,6.7-3.6,12.8-8.9,16.1h1.4v5.5h2.2c0.7,0,1.5,0,2.2,0.2
			c2.6,0.4,4.9,1.4,6.9,3c2.4,1.8,3.9,4.4,3.9,7.4v11.3h-50.8v-11.3c0-3,1.5-5.6,3.9-7.4c1.9-1.6,4.3-2.6,6.9-3
			c0.7-0.2,1.5-0.2,2.2-0.2h2.2v-5.5h1.1c-5.2-3.1-8.7-8.7-8.7-15.3v-1.9h-0.5v1c-2.8,0-5.3-2.5-5.3-5.3c0-1.3,0.5-2.5,1.3-3.4h-1.4
			v-13.6C1097.1,169.5,1107.7,158.4,1120.9,158.4 M1120.9,152.4c-7.7,0-15.1,2.9-20.9,8.3c-5.7,5.2-8.9,11.8-8.9,18.2v13.6
			c0,0.6,0.1,1.1,0.2,1.7c-0.1,0.6-0.1,1.1-0.1,1.7c0,4.2,2.5,8,6,9.9c0.7,4.4,2.6,8.5,5.5,11.9c-2.6,0.7-4.9,2-7,3.6
			c-3.9,3-6.2,7.4-6.2,12.1v11.3c0,3.3,2.7,6,6,6h50.8c3.3,0,6-2.7,6-6v-11.3c0-4.7-2.2-9.2-6.2-12.1c-2.2-1.8-4.7-3.1-7.4-3.8
			c2.9-3.4,4.9-7.6,5.7-12c0.4-0.2,0.8-0.5,1.2-0.8c2.4-1.8,4.1-4.6,4.4-7.6c0-0.2,0-0.5,0-0.7v-1.2c0.5-0.9,0.7-1.8,0.7-2.9v-13.3
			c0-6.4-3.2-13-8.9-18.2C1136.1,155.4,1128.6,152.4,1120.9,152.4L1120.9,152.4L1120.9,152.4z"/>
		<path class="st17" d="M1099.4,226.1c1.9-1.6,4.3-2.6,6.9-3c0.7-0.2,1.5-0.2,2.2-0.2h2.2v-5.5h0.1c-5-3.3-8.4-8.9-8.4-15.4v-1.2
			c-2.8,0-5.3-2.5-5.3-5.3c0-1.1,0.4-2.1,1-3h-1V179c0-9.4,10.6-20.5,23.8-20.5s23.8,11.1,23.8,20.5v13.3h-1.1
			c0.5,0.7,0.9,1.5,1.1,2.4v1.8c-0.3,2.5-2.7,4.4-5.3,4.4c0,0-0.2-3.4-0.2,0.4c0,6.7-3.4,12.8-8.7,16.3h0.6v5.5h2.2
			c0.7,0,1.5,0,2.2,0.2c2.6,0.4,4.9,1.4,6.9,3c2.4,1.8,3.9,4.4,3.9,7.4v11.3h-50.8v-11.3C1095.5,230.5,1097,227.9,1099.4,226.1
			L1099.4,226.1z"/>
	</g>
</g>
<g>
	<polyline class="st19" points="767,357 906,357 906,209 1056,209 	"/>
	<polygon class="st4" points="1046.7,220.4 1044.8,218.4 1054.9,209 1044.8,199.6 1046.7,197.6 1059,209 	"/>
</g>
<g>
	<polyline class="st19" points="1342,33 1342,360 1244,360 	"/>
	<polygon class="st4" points="1253.3,348.5 1255.2,350.6 1245.1,360 1255.2,369.4 1253.3,371.5 1241,360 	"/>
</g>
<g>
	<line class="st19" x1="344" y1="36" x2="344" y2="303"/>
	<polygon class="st4" points="332.5,293.7 334.6,291.8 344,301.9 353.4,291.8 355.5,293.7 344,306 	"/>
</g>
</svg>
