<?xml version="1.0" encoding="utf-8"?>
<!-- Generator: Adobe Illustrator 24.0.0, SVG Export Plug-In . SVG Version: 6.00 Build 0)  -->
<svg version="1.1" id="Ebene_1" xmlns="http://www.w3.org/2000/svg" xmlns:xlink="http://www.w3.org/1999/xlink" x="0px" y="0px"
	 viewBox="0 0 610 210" style="enable-background:new 0 0 610 210;" xml:space="preserve">
<style type="text/css">
	.st0{opacity:0.2;fill:#FFCC99;enable-background:new    ;}
	.st1{opacity:0.7;fill:url(#SVGID_1_);enable-background:new    ;}
	.st2{fill:none;stroke:#CC3300;stroke-width:2;stroke-miterlimit:10;stroke-dasharray:2,2;}
	.st3{enable-background:new    ;}
	.st4{fill:#330066;}
	.st5{fill:none;stroke:#FF6633;stroke-width:2;stroke-linecap:round;stroke-linejoin:round;}
	.st6{fill:#FF6633;}
	.st7{fill:none;stroke:#FFCC00;stroke-width:2;stroke-miterlimit:10;}
	.st8{fill:#FFCC00;}
	.st9{fill:url(#SVGID_2_);}
	.st10{fill:none;stroke:#FFCC00;stroke-width:2;stroke-linecap:round;stroke-linejoin:round;}
	.st11{fill:#FFFFFF;stroke:#FFCC00;stroke-width:2;stroke-linecap:round;stroke-linejoin:round;}
	.st12{clip-path:url(#SVGID_4_);}
	.st13{clip-path:url(#SVGID_6_);}
	.st14{fill:#FFD138;}
	.st15{fill:#FDFEFF;}
	.st16{fill:#FFFFFF;}
	.st17{fill:url(#SVGID_7_);}
	.st18{clip-path:url(#SVGID_9_);}
	.st19{clip-path:url(#SVGID_11_);}
	.st20{fill:none;stroke:#FFCC00;stroke-width:2;stroke-miterlimit:10;stroke-dasharray:2,2;}
</style>
<g id="Ebene_1_1_">
	<path class="st0" d="M35.5,32.2h222.9c2.8,0,5,2.2,5,5v162.4c0,2.8-2.2,5-5,5H35.5c-2.8,0-5-2.2-5-5V37.2
		C30.5,34.5,32.7,32.2,35.5,32.2z"/>
</g>
<g id="Ebene_5">
	<path class="st0" d="M351.8,32.2h222.9c2.8,0,5,2.2,5,5v162.4c0,2.8-2.2,5-5,5H351.8c-2.8,0-5-2.2-5-5V37.2
		C346.8,34.5,349.1,32.2,351.8,32.2z"/>
</g>
<g id="Ebene_2_1_">
	
		<linearGradient id="SVGID_1_" gradientUnits="userSpaceOnUse" x1="-2226.78" y1="958.885" x2="-2079.2" y2="958.885" gradientTransform="matrix(-1 0 0 1 -1848.03 -835.22)">
		<stop  offset="0" style="stop-color:#990066"/>
		<stop  offset="0.19" style="stop-color:#780066"/>
		<stop  offset="0.4" style="stop-color:#5A0066"/>
		<stop  offset="0.61" style="stop-color:#440066"/>
		<stop  offset="0.81" style="stop-color:#370066"/>
		<stop  offset="1" style="stop-color:#330066"/>
	</linearGradient>
	<rect x="231.2" y="111.4" class="st1" width="147.6" height="24.5"/>
	<path class="st2" d="M351.8,32.2h222.9c2.8,0,5,2.2,5,5v162.4c0,2.8-2.2,5-5,5H351.8c-2.8,0-5-2.2-5-5V37.2
		C346.8,34.5,349.1,32.2,351.8,32.2z"/>
	<path class="st2" d="M35.5,32.2h222.9c2.8,0,5,2.2,5,5v162.4c0,2.8-2.2,5-5,5H35.5c-2.8,0-5-2.2-5-5V37.2
		C30.5,34.5,32.7,32.2,35.5,32.2z"/>
	<g class="st3">
		<path class="st4" d="M52.4,14.8v1L51.4,16v4.5c0,0.6,0.2,1,0.5,1.3s0.7,0.4,1.2,0.4c0.5,0,1-0.1,1.3-0.4s0.5-0.7,0.5-1.3V16
			L54,15.8v-1h3.5v1L56.6,16v4.5c0,1-0.3,1.7-0.9,2.2s-1.5,0.8-2.5,0.8c-1,0-1.8-0.3-2.5-0.8s-0.9-1.3-0.9-2.2V16l-0.9-0.2v-1h0.9
			h1.7H52.4z"/>
		<path class="st4" d="M57.9,22.3l0.8-0.2v-3.9L57.9,18v-1h2.5l0.1,0.9c0.2-0.3,0.5-0.6,0.8-0.8s0.7-0.3,1-0.3
			c0.6,0,1.1,0.2,1.5,0.6s0.5,1,0.5,1.9v2.8l0.8,0.2v1h-3.3v-1l0.7-0.2v-2.8c0-0.4-0.1-0.7-0.3-0.9s-0.4-0.3-0.8-0.3
			c-0.2,0-0.4,0-0.6,0.1s-0.3,0.2-0.5,0.4v3.4l0.7,0.2v1h-3.2V22.3z"/>
		<path class="st4" d="M68.2,15.4V17h1.1v1.2h-1.1v3.2c0,0.2,0.1,0.4,0.2,0.5s0.2,0.2,0.4,0.2c0.1,0,0.2,0,0.3,0s0.2,0,0.3,0
			l0.1,1.2c-0.2,0.1-0.4,0.1-0.6,0.1s-0.4,0-0.6,0c-0.6,0-1-0.2-1.4-0.5s-0.5-0.8-0.5-1.5v-3.2h-0.9V17h0.9v-1.6H68.2z"/>
		<path class="st4" d="M70.3,22.3l0.8-0.2v-3.9L70.2,18v-1h2.5l0.1,0.9c0.1-0.3,0.3-0.6,0.6-0.8s0.5-0.3,0.8-0.3c0.1,0,0.2,0,0.3,0
			s0.2,0,0.2,0l-0.2,1.6l-0.7,0c-0.3,0-0.5,0-0.6,0.1s-0.3,0.2-0.4,0.4v3.1l0.8,0.2v1h-3.4V22.3z"/>
		<path class="st4" d="M79.6,22.5c-0.2,0.3-0.5,0.5-0.8,0.7s-0.6,0.2-1,0.2c-0.7,0-1.2-0.2-1.6-0.6s-0.6-1.1-0.6-2v-2.6L75,18v-1
			h0.7h1.7v3.8c0,0.5,0.1,0.8,0.2,1s0.4,0.3,0.7,0.3c0.3,0,0.5,0,0.7-0.1s0.4-0.2,0.5-0.4v-3.4L78.8,18v-1h0.8h1.7v5.1l0.8,0.2v1
			h-2.3L79.6,22.5z"/>
		<path class="st4" d="M87.8,19.1h-1.1l-0.2-0.8c-0.1-0.1-0.3-0.2-0.4-0.2S85.7,18,85.5,18c-0.3,0-0.5,0.1-0.7,0.2s-0.3,0.3-0.3,0.5
			c0,0.2,0.1,0.4,0.3,0.5s0.5,0.2,1,0.3c0.8,0.2,1.4,0.4,1.7,0.7s0.6,0.7,0.6,1.3c0,0.6-0.2,1-0.7,1.4s-1.1,0.5-1.9,0.5
			c-0.5,0-0.9-0.1-1.3-0.2s-0.8-0.3-1.1-0.6l0-1.4h1.2l0.2,0.8c0.1,0.1,0.2,0.1,0.4,0.2s0.4,0.1,0.6,0.1c0.3,0,0.6-0.1,0.8-0.2
			s0.3-0.3,0.3-0.5c0-0.2-0.1-0.3-0.3-0.5s-0.5-0.3-1-0.4c-0.7-0.2-1.3-0.4-1.7-0.7s-0.6-0.7-0.6-1.2c0-0.5,0.2-1,0.7-1.4
			s1.1-0.6,1.9-0.6c0.5,0,1,0.1,1.4,0.2s0.8,0.3,1,0.5L87.8,19.1z"/>
		<path class="st4" d="M91.4,15.4V17h1.1v1.2h-1.1v3.2c0,0.2,0.1,0.4,0.2,0.5s0.2,0.2,0.4,0.2c0.1,0,0.2,0,0.3,0s0.2,0,0.3,0
			l0.1,1.2c-0.2,0.1-0.4,0.1-0.6,0.1s-0.4,0-0.6,0c-0.6,0-1-0.2-1.4-0.5s-0.5-0.8-0.5-1.5v-3.2h-0.9V17h0.9v-1.6H91.4z"/>
		<path class="st4" d="M96.4,23.4c-0.9,0-1.6-0.3-2.2-0.9s-0.8-1.3-0.8-2.2v-0.2c0-0.9,0.3-1.7,0.8-2.3s1.2-0.9,2.1-0.9
			c0.9,0,1.5,0.3,2,0.8s0.7,1.2,0.7,2.1v0.9h-3.8l0,0c0,0.4,0.2,0.8,0.4,1s0.6,0.4,1,0.4c0.4,0,0.7,0,0.9-0.1s0.5-0.2,0.8-0.4
			l0.5,1.1c-0.3,0.2-0.6,0.4-1,0.5S96.9,23.4,96.4,23.4z M96.2,18.2c-0.3,0-0.6,0.1-0.8,0.4s-0.3,0.6-0.3,1l0,0h2.1v-0.2
			c0-0.4-0.1-0.7-0.3-0.9S96.5,18.2,96.2,18.2z"/>
		<path class="st4" d="M103.8,22.5c-0.2,0.3-0.4,0.5-0.7,0.7s-0.6,0.2-0.9,0.2c-0.8,0-1.4-0.3-1.8-0.9s-0.6-1.3-0.6-2.3v-0.1
			c0-1,0.2-1.8,0.7-2.4s1-0.9,1.8-0.9c0.3,0,0.6,0.1,0.9,0.2s0.5,0.3,0.7,0.6v-2.3l-0.9-0.2v-1h0.9h1.7v7.9l0.8,0.2v1H104
			L103.8,22.5z M101.4,20.3c0,0.6,0.1,1,0.3,1.3s0.5,0.5,0.9,0.5c0.3,0,0.5-0.1,0.7-0.2s0.3-0.2,0.5-0.4v-2.7
			c-0.1-0.2-0.3-0.4-0.4-0.5s-0.4-0.2-0.6-0.2c-0.4,0-0.7,0.2-0.9,0.6s-0.3,0.9-0.3,1.5V20.3z"/>
		<path class="st4" d="M109.7,15.8v-1h3.5v1l-0.9,0.2v2.5h3.5V16l-0.9-0.2v-1h0.9h1.7h0.9v1l-0.9,0.2v6.1l0.9,0.2v1h-3.5v-1l0.9-0.2
			v-2.3h-3.5v2.3l0.9,0.2v1h-3.5v-1l0.9-0.2V16L109.7,15.8z"/>
		<path class="st4" d="M119.1,20.1c0-0.9,0.3-1.7,0.8-2.3s1.3-0.9,2.2-0.9c0.9,0,1.7,0.3,2.2,0.9s0.8,1.4,0.8,2.3v0.1
			c0,1-0.3,1.7-0.8,2.3s-1.3,0.9-2.2,0.9c-0.9,0-1.7-0.3-2.2-0.9s-0.8-1.4-0.8-2.3V20.1z M120.8,20.2c0,0.6,0.1,1,0.3,1.4
			s0.5,0.5,1,0.5c0.4,0,0.8-0.2,1-0.5s0.3-0.8,0.3-1.4v-0.1c0-0.6-0.1-1-0.3-1.4s-0.5-0.5-1-0.5s-0.8,0.2-1,0.5s-0.3,0.8-0.3,1.4
			V20.2z"/>
		<path class="st4" d="M131,19.1h-1.1l-0.2-0.8c-0.1-0.1-0.3-0.2-0.4-0.2s-0.4-0.1-0.6-0.1c-0.3,0-0.5,0.1-0.7,0.2s-0.3,0.3-0.3,0.5
			c0,0.2,0.1,0.4,0.3,0.5s0.5,0.2,1,0.3c0.8,0.2,1.4,0.4,1.7,0.7s0.6,0.7,0.6,1.3c0,0.6-0.2,1-0.7,1.4s-1.1,0.5-1.9,0.5
			c-0.5,0-0.9-0.1-1.3-0.2s-0.8-0.3-1.1-0.6l0-1.4h1.2l0.2,0.8c0.1,0.1,0.2,0.1,0.4,0.2s0.4,0.1,0.6,0.1c0.3,0,0.6-0.1,0.8-0.2
			s0.3-0.3,0.3-0.5c0-0.2-0.1-0.3-0.3-0.5s-0.5-0.3-1-0.4c-0.7-0.2-1.3-0.4-1.7-0.7s-0.6-0.7-0.6-1.2c0-0.5,0.2-1,0.7-1.4
			s1.1-0.6,1.9-0.6c0.5,0,1,0.1,1.4,0.2s0.8,0.3,1,0.5L131,19.1z"/>
		<path class="st4" d="M134.6,15.4V17h1.1v1.2h-1.1v3.2c0,0.2,0.1,0.4,0.2,0.5s0.2,0.2,0.4,0.2c0.1,0,0.2,0,0.3,0s0.2,0,0.3,0
			l0.1,1.2c-0.2,0.1-0.4,0.1-0.6,0.1s-0.4,0-0.6,0c-0.6,0-1-0.2-1.4-0.5s-0.5-0.8-0.5-1.5v-3.2h-0.9V17h0.9v-1.6H134.6z"/>
		<path class="st4" d="M140.2,24H139l3.1-9.3h1.3L140.2,24z"/>
		<path class="st4" d="M149.7,15.8l-0.7,0.1l1.5,5.1l0.1,0.5h0l0.1-0.5l1.5-5.1l-0.6-0.1v-1h3.1v1l-0.7,0.1l-2.5,7.4h-1.8l-2.5-7.4
			l-0.7-0.1v-1h3.1V15.8z"/>
		<path class="st4" d="M163.6,17L163.6,17l-2.3,6.3h-1.1l-2.3-6.3l0,0l0.2,3.7v1.3l0.9,0.2v1h-3.5v-1l0.9-0.2V16l-0.9-0.2v-1h0.9
			h2.2l2.2,6.3h0l2.2-6.3h3.2v1l-0.9,0.2v6.1l0.9,0.2v1h-3.5v-1l0.9-0.2v-1.3L163.6,17z"/>
		<path class="st4" d="M167.4,24h-1.3l3.1-9.3h1.3L167.4,24z"/>
		<path class="st4" d="M181,17.7h-1.3l-0.2-1.1c-0.2-0.2-0.4-0.3-0.6-0.4S178.3,16,178,16c-0.7,0-1.3,0.3-1.7,0.8s-0.6,1.2-0.6,2.1
			v0.3c0,0.9,0.2,1.6,0.6,2.1s1,0.8,1.7,0.8c0.3,0,0.6,0,0.9-0.1s0.5-0.2,0.6-0.4l0.2-1.1h1.3v1.7c-0.3,0.4-0.8,0.7-1.3,1
			s-1.1,0.4-1.8,0.4c-1.1,0-2.1-0.4-2.8-1.2s-1.1-1.8-1.1-3.1v-0.3c0-1.2,0.4-2.3,1.1-3.1s1.7-1.2,2.8-1.2c0.7,0,1.3,0.1,1.8,0.4
			s1,0.6,1.3,1V17.7z"/>
		<path class="st4" d="M181.8,20.1c0-0.9,0.3-1.7,0.8-2.3s1.3-0.9,2.2-0.9c0.9,0,1.7,0.3,2.2,0.9s0.8,1.4,0.8,2.3v0.1
			c0,1-0.3,1.7-0.8,2.3s-1.3,0.9-2.2,0.9c-0.9,0-1.7-0.3-2.2-0.9s-0.8-1.4-0.8-2.3V20.1z M183.5,20.2c0,0.6,0.1,1,0.3,1.4
			s0.5,0.5,1,0.5c0.4,0,0.8-0.2,1-0.5s0.3-0.8,0.3-1.4v-0.1c0-0.6-0.1-1-0.3-1.4s-0.5-0.5-1-0.5s-0.8,0.2-1,0.5s-0.3,0.8-0.3,1.4
			V20.2z"/>
		<path class="st4" d="M188.4,22.3l0.8-0.2v-3.9l-0.9-0.2v-1h2.5l0.1,0.9c0.2-0.3,0.5-0.6,0.8-0.8s0.7-0.3,1-0.3
			c0.6,0,1.1,0.2,1.5,0.6s0.5,1,0.5,1.9v2.8l0.8,0.2v1h-3.3v-1l0.7-0.2v-2.8c0-0.4-0.1-0.7-0.3-0.9s-0.4-0.3-0.8-0.3
			c-0.2,0-0.4,0-0.6,0.1s-0.3,0.2-0.5,0.4v3.4l0.7,0.2v1h-3.2V22.3z"/>
		<path class="st4" d="M198.7,15.4V17h1.1v1.2h-1.1v3.2c0,0.2,0.1,0.4,0.2,0.5s0.2,0.2,0.4,0.2c0.1,0,0.2,0,0.3,0s0.2,0,0.3,0
			l0.1,1.2c-0.2,0.1-0.4,0.1-0.6,0.1s-0.4,0-0.6,0c-0.6,0-1-0.2-1.4-0.5s-0.5-0.8-0.5-1.5v-3.2H196V17h0.9v-1.6H198.7z"/>
		<path class="st4" d="M204.6,23.3c0-0.1-0.1-0.2-0.1-0.3s-0.1-0.2-0.1-0.3c-0.2,0.2-0.5,0.4-0.7,0.6s-0.6,0.2-1,0.2
			c-0.6,0-1.1-0.2-1.5-0.5s-0.5-0.8-0.5-1.4c0-0.6,0.2-1.1,0.7-1.4s1.2-0.5,2.1-0.5h0.9v-0.6c0-0.3-0.1-0.5-0.3-0.7
			s-0.4-0.3-0.8-0.3c-0.2,0-0.4,0-0.5,0.1s-0.3,0.1-0.4,0.2l-0.1,0.7H201l0-1.4c0.3-0.2,0.7-0.4,1.1-0.5s0.8-0.2,1.3-0.2
			c0.8,0,1.4,0.2,1.9,0.6s0.7,0.9,0.7,1.6v2.6c0,0.1,0,0.2,0,0.3s0,0.2,0,0.2l0.5,0.1v1H204.6z M203.2,22.2c0.3,0,0.5-0.1,0.7-0.2
			s0.4-0.3,0.5-0.4v-1h-0.9c-0.4,0-0.6,0.1-0.8,0.3s-0.3,0.4-0.3,0.6c0,0.2,0.1,0.4,0.2,0.5S202.9,22.2,203.2,22.2z"/>
		<path class="st4" d="M207.1,22.3l0.8-0.2v-3.9l-0.9-0.2v-1h2.6v5.1l0.8,0.2v1h-3.4V22.3z M209.7,15.5H208v-1.3h1.7V15.5z"/>
	</g>
	<g class="st3">
		<path class="st4" d="M211,22.3l0.8-0.2v-3.9l-0.9-0.2v-1h2.5l0.1,0.9c0.2-0.3,0.5-0.6,0.8-0.8s0.7-0.3,1-0.3
			c0.6,0,1.1,0.2,1.5,0.6s0.5,1,0.5,1.9v2.8l0.8,0.2v1h-3.3v-1l0.7-0.2v-2.8c0-0.4-0.1-0.7-0.3-0.9s-0.4-0.3-0.8-0.3
			c-0.2,0-0.4,0-0.6,0.1s-0.3,0.2-0.5,0.4v3.4l0.7,0.2v1H211V22.3z"/>
	</g>
	<g class="st3">
		<path class="st4" d="M221.7,23.4c-0.9,0-1.6-0.3-2.2-0.9s-0.8-1.3-0.8-2.2v-0.2c0-0.9,0.3-1.7,0.8-2.3s1.2-0.9,2.1-0.9
			c0.9,0,1.5,0.3,2,0.8s0.7,1.2,0.7,2.1v0.9h-3.8l0,0c0,0.4,0.2,0.8,0.4,1s0.6,0.4,1,0.4c0.4,0,0.7,0,0.9-0.1s0.5-0.2,0.8-0.4
			l0.5,1.1c-0.3,0.2-0.6,0.4-1,0.5S222.2,23.4,221.7,23.4z M221.5,18.2c-0.3,0-0.6,0.1-0.8,0.4s-0.3,0.6-0.3,1l0,0h2.1v-0.2
			c0-0.4-0.1-0.7-0.3-0.9S221.8,18.2,221.5,18.2z"/>
		<path class="st4" d="M225.1,22.3l0.8-0.2v-3.9l-0.9-0.2v-1h2.5l0.1,0.9c0.1-0.3,0.3-0.6,0.6-0.8s0.5-0.3,0.8-0.3
			c0.1,0,0.2,0,0.3,0s0.2,0,0.2,0l-0.2,1.6l-0.7,0c-0.3,0-0.5,0-0.6,0.1s-0.3,0.2-0.4,0.4v3.1l0.8,0.2v1h-3.4V22.3z"/>
	</g>
	<path class="st5" d="M34.4,22.1h-4.2c-0.6,0-0.8-0.2-0.8-0.8v-6.5c0-0.6,0.2-0.8,0.8-0.8h8.5c0.5,0,0.8,0.2,0.8,0.8v6.5
		c0,0.5-0.2,0.8-0.8,0.8C37.2,22.2,35.8,22.1,34.4,22.1z"/>
	<path class="st5" d="M33,5.9c1.6-0.7,3.5-0.5,4.8,0.7c1.7,1.5,1.9,4.2,0.3,5.9c-0.2,0.2-0.3,0.3-0.5,0.5c-0.3,0.3-0.7,0.4-1,0.7"/>
	<path class="st6" d="M33.7,19.4L33.7,19.4v0.9c0,0.2,0.1,0.2,0.3,0.2h0.8c0.2,0,0.3-0.1,0.3-0.3v-1.6c0-0.2,0.1-0.3,0.2-0.4
		c0.5-0.3,0.8-0.9,0.6-1.4c-0.2-0.6-0.8-1-1.4-1c-0.7-0.1-1.3,0.3-1.6,0.9c-0.2,0.6,0,1.2,0.5,1.5c0.2,0.1,0.3,0.3,0.3,0.5
		C33.7,18.9,33.7,19.1,33.7,19.4z"/>
	<path class="st7" d="M305.2,111.4c3.8,0,6.8,5.4,6.8,12c0,6.6-3,12-6.8,12"/>
	<g class="st3">
		<path class="st8" d="M296.9,98.7h-1.3l-0.2-1.1c-0.2-0.2-0.4-0.3-0.6-0.4s-0.6-0.1-0.9-0.1c-0.8,0-1.3,0.3-1.7,0.8
			c-0.4,0.5-0.6,1.2-0.6,2.1v0.3c0,0.9,0.2,1.6,0.6,2.1c0.4,0.5,1,0.8,1.7,0.8c0.3,0,0.6,0,0.9-0.1s0.5-0.2,0.7-0.4l0.2-1.1h1.3v1.7
			c-0.3,0.4-0.8,0.7-1.3,1s-1.1,0.4-1.8,0.4c-1.2,0-2.1-0.4-2.8-1.2s-1.1-1.8-1.1-3.1V100c0-1.2,0.4-2.3,1.1-3.1
			c0.7-0.8,1.7-1.2,2.8-1.2c0.7,0,1.3,0.1,1.8,0.4s1,0.6,1.3,1V98.7z"/>
		<path class="st8" d="M303.3,100.6h-2.9v2.4h2.8l0.1-1h1.3v2.3h-6.8v-1l0.9-0.2v-6.1l-0.9-0.2v-1h0.9h5.9v2.3h-1.3l-0.1-1h-2.8v2.1
			h2.9V100.6z"/>
	</g>
	<g class="st3">
		<path class="st8" d="M309.3,95.9c1,0,1.7,0.2,2.3,0.7s0.8,1.1,0.8,1.8c0,0.4-0.1,0.8-0.3,1.1c-0.2,0.3-0.6,0.6-1,0.8
			c0.5,0.1,0.9,0.4,1.1,0.7c0.2,0.3,0.3,0.8,0.3,1.3v0.4c0,0.2,0,0.3,0.1,0.4c0.1,0.1,0.2,0.2,0.4,0.2l0.2,0v1h-0.9
			c-0.6,0-1-0.2-1.2-0.5c-0.2-0.3-0.3-0.7-0.3-1.2v-0.5c0-0.4-0.1-0.7-0.3-1c-0.2-0.2-0.5-0.4-0.9-0.4h-1.4v2.3l0.9,0.2v1h-3.6v-1
			l0.9-0.2v-6.1l-0.9-0.2v-1h0.9H309.3z M308.1,99.6h1.2c0.5,0,0.8-0.1,1.1-0.3c0.2-0.2,0.4-0.5,0.4-0.9s-0.1-0.7-0.4-0.9
			s-0.6-0.3-1.1-0.3h-1.2V99.6z"/>
	</g>
	<g class="st3">
		<path class="st8" d="M321.1,95.9v2.3h-1.3l-0.1-1h-1.6v6l0.9,0.2v1h-3.6v-1l0.9-0.2v-6h-1.6l-0.1,1h-1.3v-2.3H321.1z"/>
	</g>
	<g class="st3">
		<path class="st8" d="M301.1,144.7v2.3h-1.3l-0.1-1h-1.6v6l0.9,0.2v1h-3.6v-1l0.9-0.2v-6h-1.6l-0.1,1h-1.3v-2.3H301.1z"/>
		<path class="st8" d="M301.6,153.3v-1l0.9-0.2V146l-0.9-0.2v-1h0.9h1.7h0.9v1l-0.9,0.2v6h2.4l0.1-1.1h1.3v2.4H301.6z"/>
		<path class="st8" d="M315.3,147.5H314l-0.2-1.2c-0.2-0.1-0.4-0.2-0.7-0.2c-0.3-0.1-0.6-0.1-0.9-0.1c-0.5,0-0.8,0.1-1.1,0.3
			c-0.3,0.2-0.4,0.5-0.4,0.8c0,0.3,0.1,0.5,0.4,0.7c0.3,0.2,0.7,0.4,1.4,0.6c1,0.3,1.7,0.6,2.2,1c0.5,0.4,0.7,1,0.7,1.7
			c0,0.7-0.3,1.3-0.9,1.7s-1.4,0.6-2.3,0.6c-0.7,0-1.3-0.1-1.8-0.3s-1-0.5-1.4-0.9v-1.8h1.3l0.2,1.2c0.2,0.1,0.4,0.3,0.7,0.3
			c0.3,0.1,0.6,0.1,1,0.1c0.5,0,0.8-0.1,1.1-0.3c0.2-0.2,0.4-0.4,0.4-0.8c0-0.3-0.1-0.6-0.4-0.8c-0.2-0.2-0.6-0.4-1.2-0.6
			c-1-0.3-1.8-0.6-2.3-1c-0.5-0.4-0.8-1-0.8-1.7c0-0.7,0.3-1.3,0.9-1.7s1.3-0.7,2.2-0.7c0.7,0,1.3,0.1,1.8,0.3s1,0.5,1.4,0.8V147.5z
			"/>
	</g>
	
		<linearGradient id="SVGID_2_" gradientUnits="userSpaceOnUse" x1="62.38" y1="88.48" x2="234.17" y2="88.48" gradientTransform="matrix(1 0 0 -1 0 212)">
		<stop  offset="0" style="stop-color:#990066"/>
		<stop  offset="0.19" style="stop-color:#780066"/>
		<stop  offset="0.4" style="stop-color:#5A0066"/>
		<stop  offset="0.61" style="stop-color:#440066"/>
		<stop  offset="0.81" style="stop-color:#370066"/>
		<stop  offset="1" style="stop-color:#330066"/>
	</linearGradient>
	<path class="st9" d="M67.4,70.8h161.8c2.8,0,5,2.2,5,5v95.4c0,2.8-2.2,5-5,5H67.4c-2.8,0-5-2.2-5-5V75.8
		C62.4,73.1,64.6,70.8,67.4,70.8z"/>
	<path class="st10" d="M85.1,117.1h125.7c2.8,0,5,2.2,5,5v17.2c0,2.8-2.2,5-5,5H85.1c-2.8,0-5-2.2-5-5v-17.2
		C80.1,119.3,82.3,117.1,85.1,117.1z"/>
	<g class="st3">
		<path class="st8" d="M123.5,128.9h-1.2l-0.2-1.1c-0.1-0.1-0.3-0.2-0.6-0.2c-0.3-0.1-0.5-0.1-0.8-0.1c-0.4,0-0.8,0.1-1,0.3
			c-0.2,0.2-0.4,0.4-0.4,0.7c0,0.3,0.1,0.5,0.4,0.7s0.7,0.4,1.3,0.5c0.9,0.2,1.5,0.6,2,1c0.4,0.4,0.7,0.9,0.7,1.6
			c0,0.7-0.3,1.2-0.8,1.6c-0.5,0.4-1.2,0.6-2.1,0.6c-0.6,0-1.2-0.1-1.7-0.3c-0.5-0.2-0.9-0.5-1.2-0.8v-1.6h1.2l0.2,1.1
			c0.2,0.1,0.4,0.2,0.6,0.3s0.6,0.1,0.9,0.1c0.4,0,0.8-0.1,1-0.3c0.2-0.2,0.3-0.4,0.3-0.7c0-0.3-0.1-0.5-0.3-0.7
			c-0.2-0.2-0.6-0.4-1.1-0.5c-0.9-0.3-1.6-0.6-2.1-1c-0.5-0.4-0.7-0.9-0.7-1.5c0-0.6,0.3-1.2,0.8-1.6c0.5-0.4,1.2-0.6,2-0.6
			c0.6,0,1.1,0.1,1.6,0.3c0.5,0.2,0.9,0.4,1.2,0.7V128.9z"/>
		<path class="st8" d="M130.6,129.1h-1.2l-0.2-1c-0.2-0.2-0.3-0.3-0.6-0.4c-0.2-0.1-0.5-0.1-0.8-0.1c-0.7,0-1.2,0.2-1.6,0.7
			s-0.6,1.1-0.6,1.9v0.3c0,0.8,0.2,1.4,0.5,1.9s0.9,0.7,1.5,0.7c0.3,0,0.6,0,0.8-0.1c0.3-0.1,0.5-0.2,0.6-0.4l0.2-1h1.2v1.5
			c-0.3,0.4-0.7,0.7-1.2,0.9c-0.5,0.2-1,0.3-1.6,0.3c-1,0-1.9-0.4-2.6-1.1c-0.7-0.7-1-1.7-1-2.8v-0.3c0-1.1,0.3-2.1,1-2.8
			s1.5-1.1,2.6-1.1c0.6,0,1.2,0.1,1.6,0.3c0.5,0.2,0.9,0.5,1.2,0.9V129.1z"/>
		<path class="st8" d="M138.5,130.4c0,1.1-0.3,2.1-1,2.8s-1.5,1.1-2.6,1.1c-1.1,0-1.9-0.4-2.6-1.1c-0.7-0.7-1-1.7-1-2.8v-0.1
			c0-1.1,0.3-2.1,1-2.8c0.6-0.8,1.5-1.1,2.6-1.1c1.1,0,1.9,0.4,2.6,1.1s1,1.7,1,2.8V130.4z M136.9,130.3c0-0.8-0.2-1.5-0.5-2
			c-0.3-0.5-0.8-0.8-1.5-0.8c-0.7,0-1.2,0.3-1.5,0.8c-0.3,0.5-0.5,1.2-0.5,2v0.1c0,0.8,0.2,1.5,0.5,2c0.3,0.5,0.8,0.8,1.5,0.8
			c0.7,0,1.2-0.3,1.5-0.8s0.5-1.2,0.5-2V130.3z"/>
		<path class="st8" d="M147.1,126.4v0.9l-0.8,0.2v6.7h-1.6l-3.2-5.3l0,0v4.2l0.8,0.2v0.9h-3.2v-0.9l0.8-0.2v-5.6l-0.8-0.2v-0.9h0.8
			h1.6l3.2,5.3l0,0v-4.2l-0.8-0.2v-0.9h2.4H147.1z"/>
		<path class="st8" d="M152.6,130.8H150v2.2h2.5l0.1-0.9h1.2v2.1h-6.2v-0.9l0.8-0.2v-5.6l-0.8-0.2v-0.9h0.8h5.3v2.1h-1.2l-0.1-0.9
			H150v2h2.6V130.8z"/>
		<path class="st8" d="M163.7,129.1h-1.2l-0.2-1c-0.2-0.2-0.3-0.3-0.6-0.4c-0.2-0.1-0.5-0.1-0.8-0.1c-0.7,0-1.2,0.2-1.6,0.7
			c-0.4,0.5-0.6,1.1-0.6,1.9v0.3c0,0.8,0.2,1.4,0.5,1.9s0.9,0.7,1.5,0.7c0.3,0,0.6,0,0.8-0.1s0.5-0.2,0.6-0.4l0.2-1h1.2v1.5
			c-0.3,0.4-0.7,0.7-1.2,0.9c-0.5,0.2-1,0.3-1.6,0.3c-1,0-1.9-0.4-2.6-1.1c-0.7-0.7-1-1.7-1-2.8v-0.3c0-1.1,0.3-2.1,1-2.8
			s1.5-1.1,2.6-1.1c0.6,0,1.2,0.1,1.6,0.3c0.5,0.2,0.9,0.5,1.2,0.9V129.1z"/>
		<path class="st8" d="M164.4,133.3l0.6-0.1l2.4-6.8h1.6l2.4,6.8l0.6,0.1v0.9h-2.7v-0.9l0.5-0.1l-0.3-1.1h-2.5l-0.3,1.1l0.5,0.1v0.9
			h-2.7V133.3z M167.2,131h1.8l-0.9-2.8h0L167.2,131z"/>
		<path class="st8" d="M178.3,128.9h-1.2l-0.2-1.1c-0.1-0.1-0.3-0.2-0.6-0.2c-0.3-0.1-0.5-0.1-0.8-0.1c-0.4,0-0.8,0.1-1,0.3
			s-0.4,0.4-0.4,0.7c0,0.3,0.1,0.5,0.4,0.7c0.2,0.2,0.7,0.4,1.3,0.5c0.9,0.2,1.5,0.6,2,1c0.4,0.4,0.7,0.9,0.7,1.6
			c0,0.7-0.3,1.2-0.8,1.6c-0.5,0.4-1.2,0.6-2.1,0.6c-0.6,0-1.2-0.1-1.7-0.3c-0.5-0.2-0.9-0.5-1.2-0.8v-1.6h1.2l0.2,1.1
			c0.2,0.1,0.4,0.2,0.6,0.3c0.3,0.1,0.6,0.1,0.9,0.1c0.4,0,0.8-0.1,1-0.3c0.2-0.2,0.3-0.4,0.3-0.7c0-0.3-0.1-0.5-0.3-0.7
			c-0.2-0.2-0.6-0.4-1.1-0.5c-0.9-0.3-1.6-0.6-2.1-1c-0.5-0.4-0.7-0.9-0.7-1.5c0-0.6,0.3-1.2,0.8-1.6c0.5-0.4,1.2-0.6,2-0.6
			c0.6,0,1.1,0.1,1.6,0.3c0.5,0.2,0.9,0.4,1.2,0.7V128.9z"/>
	</g>
	<path class="st11" d="M139,59c4.6-4.5,12.1-4.5,16.6,0.1c4.5,4.6,4.5,12.1-0.1,16.6c-4.6,4.5-12.1,4.5-16.6-0.1
		c-2.2-2.2-3.4-5.1-3.4-8.2c0-2.6,0.8-5.1,2.4-7.1"/>
	<path class="st10" d="M147.2,73.1H143c-0.6,0-0.8-0.2-0.8-0.8v-6.5c0-0.6,0.2-0.8,0.8-0.8h8.5c0.6,0,0.8,0.2,0.8,0.8v6.5
		c0,0.5-0.2,0.8-0.8,0.8C150,73.1,148.6,73.1,147.2,73.1z"/>
	<path class="st10" d="M142.9,64.4c0-1.8,1-3.4,2.6-4.1c2.1-0.9,4.6,0,5.5,2.2c0.1,0.2,0.2,0.5,0.2,0.7c0.1,0.4,0.1,0.8,0.2,1.2"/>
	<path class="st8" d="M146.5,70.3L146.5,70.3v0.9c0,0.2,0.1,0.2,0.3,0.2h0.8c0.2,0,0.3-0.1,0.3-0.3v-1.6c0-0.2,0.1-0.3,0.2-0.4
		c0.5-0.3,0.8-0.9,0.6-1.4c-0.2-0.6-0.8-1-1.4-1c-0.7-0.1-1.3,0.3-1.6,0.9c-0.2,0.6,0,1.2,0.5,1.5c0.2,0.1,0.3,0.3,0.3,0.5
		C146.5,69.8,146.5,70.1,146.5,70.3z"/>
	<g id="Scone_logo_white">
		<g>
			<defs>
				<rect id="SVGID_3_" x="130.1" y="159.1" width="36.3" height="7.1"/>
			</defs>
			<clipPath id="SVGID_4_">
				<use xlink:href="#SVGID_3_"  style="overflow:visible;"/>
			</clipPath>
			<g class="st12">
				<g>
					<defs>
						<rect id="SVGID_5_" x="130.1" y="159.1" width="36.3" height="7.1"/>
					</defs>
					<clipPath id="SVGID_6_">
						<use xlink:href="#SVGID_5_"  style="overflow:visible;"/>
					</clipPath>
					<g class="st13">
						<path class="st14" d="M134.9,160.9h-0.8c-0.2,0-0.3,0.1-0.3,0.3c0,0,0,0,0,0v0.8c0,0.2,0.1,0.3,0.3,0.3h0.8
							c0.2,0,0.3-0.1,0.3-0.3c0,0,0,0,0,0v-0.8C135.2,161.1,135.1,160.9,134.9,160.9C134.9,160.9,134.9,160.9,134.9,160.9
							 M132.3,162.3h0.7c0.2,0,0.3-0.1,0.3-0.3v-0.8c0-0.2-0.1-0.3-0.3-0.3c0,0,0,0,0,0h-0.8c-0.2,0-0.3,0.1-0.3,0.3c0,0,0,0,0,0
							v0.8C131.9,162.2,132.1,162.3,132.3,162.3C132.2,162.3,132.2,162.3,132.3,162.3 M131.4,162v-0.8c0-0.2-0.1-0.3-0.3-0.3l0,0
							h-0.8c-0.2,0-0.3,0.1-0.3,0.3c0,0,0,0,0,0v0.8c0,0.2,0.1,0.3,0.3,0.3h0.8C131.3,162.3,131.4,162.2,131.4,162 M134.9,162.8
							c-0.1,0-0.2,0.1-0.2,0.2v0.9c0,0.1,0.1,0.2,0.2,0.2c0.1,0,0.2-0.1,0.2-0.2l0,0v-1C135.2,162.9,135.1,162.8,134.9,162.8
							 M132.9,163.1v0.8c0,0.2,0.1,0.3,0.3,0.3h0.8c0.2,0,0.3-0.1,0.3-0.3v-0.8c0-0.2-0.1-0.3-0.3-0.3h-0.8
							C133,162.8,132.9,162.9,132.9,163.1 M132.3,163.8v-0.8c0-0.2-0.1-0.3-0.3-0.3h-0.8c-0.2,0-0.3,0.1-0.3,0.3c0,0,0,0,0,0v0.8
							c0,0.2,0.1,0.3,0.3,0.3l0,0h0.8C132.2,164.1,132.3,164,132.3,163.8 M134.9,164.7h-0.8c-0.2,0-0.3,0.1-0.3,0.3v0.8
							c0,0.2,0.1,0.3,0.3,0.3h0.8c0.2,0,0.3-0.1,0.3-0.3c0,0,0,0,0,0V165C135.2,164.8,135.1,164.7,134.9,164.7
							C134.9,164.7,134.9,164.7,134.9,164.7 M132.9,164.7h-0.8c-0.2,0-0.3,0.1-0.3,0.3v0.8c0,0.2,0.1,0.3,0.3,0.3h0.8
							c0.2,0,0.3-0.1,0.3-0.3V165C133.2,164.8,133,164.7,132.9,164.7"/>
						<path class="st14" d="M135.8,160.6c0.3,0.3,0.7,0.4,1.2,0.4c0,0,0,0,0,0.1v2.1c0,0.8-1,1.3-1.2,1.4l0,0L135.8,160.6
							L135.8,160.6"/>
						<path class="st14" d="M133.5,160.5c1.6-0.1,1.9-0.6,1.9-0.6c0,0,0.1,0,0.1,0c0,0,0,0,0.1,0c0,0,0.3,0.6,1.9,0.6
							c0,0,0.1,0,0.1,0.1v2.8c0,0.9-1.7,1.9-1.7,1.9s-0.1,0-0.1,0v0.7c0,0,0.1,0.1,0.1,0c0.6-0.3,2.3-1.3,2.3-2.5V160
							c0-0.1-0.1-0.1-0.2-0.1c-2.1,0-2.4-0.8-2.4-0.8s-0.1,0-0.1,0s-0.1,0-0.1,0s-0.3,0.8-2.4,0.8c-0.1,0-0.1,0-0.1,0.1v0.4
							c0,0,0,0.1,0.1,0.1L133.5,160.5"/>
						<path class="st15" d="M139.7,165l0.8-0.3c0.2,0.4,0.6,0.6,1.1,0.6c0.2,0,0.4,0,0.6-0.1c0.2-0.1,0.3-0.3,0.3-0.4
							c0-0.4-0.6-0.7-1-0.9l0,0c-0.3-0.1-0.7-0.3-0.9-0.5c-0.3-0.2-0.5-0.6-0.5-1c0-0.4,0.2-0.8,0.5-1c0.3-0.3,0.8-0.4,1.2-0.4
							c0.7,0,1.3,0.3,1.6,0.9l-0.9,0.3c-0.1-0.1-0.2-0.2-0.3-0.3c-0.1-0.1-0.3-0.1-0.5-0.1c-0.5,0-0.8,0.3-0.8,0.6
							c0,0.2,0.1,0.4,0.3,0.5c0.2,0.1,0.5,0.3,0.7,0.4h0.1c0.6,0.3,1.4,0.6,1.4,1.4c0,0.4-0.2,0.8-0.6,1c-0.4,0.3-0.9,0.4-1.3,0.4
							C140.9,166.1,140.2,165.6,139.7,165"/>
						<path class="st15" d="M147,166.1c-0.3,0-0.7-0.1-1-0.2c-0.6-0.3-1.1-0.8-1.4-1.4c-0.1-0.3-0.2-0.7-0.2-1c0-0.3,0.1-0.7,0.2-1
							c0.1-0.3,0.3-0.6,0.6-0.8c0.2-0.2,0.5-0.4,0.8-0.6c0.3-0.1,0.7-0.2,1-0.2c0.4,0,0.8,0.1,1.2,0.3c0.3,0.2,0.7,0.4,0.9,0.8
							l-0.7,0.5c-0.2-0.2-0.4-0.4-0.6-0.5c-0.2-0.1-0.5-0.2-0.8-0.2c-1,0-1.8,0.7-1.8,1.7c0,0.5,0.2,1,0.5,1.3
							c0.6,0.6,1.4,0.7,2.1,0.3c0.3-0.2,0.5-0.4,0.6-0.6l0.8,0.4c-0.2,0.4-0.5,0.7-0.9,0.9C147.9,166,147.5,166.1,147,166.1"/>
						<path class="st15" d="M152.6,166.1c-0.3,0-0.7-0.1-1-0.2c-0.3-0.1-0.6-0.3-0.8-0.6c-0.2-0.2-0.4-0.5-0.6-0.8
							c-0.1-0.3-0.2-0.7-0.2-1c0-0.3,0.1-0.7,0.2-1c0.1-0.3,0.3-0.6,0.6-0.8c0.2-0.2,0.5-0.4,0.8-0.6c0.6-0.3,1.4-0.3,2,0
							c0.3,0.1,0.6,0.3,0.8,0.6c0.2,0.2,0.4,0.5,0.6,0.8c0.6,1.3-0.1,2.8-1.4,3.4C153.3,166.1,153,166.1,152.6,166.1 M152.6,161.8
							c-0.5,0-0.9,0.2-1.2,0.5c-0.3,0.3-0.5,0.8-0.5,1.2c0,1,0.8,1.7,1.7,1.7c0,0,0,0,0,0c0.5,0,0.9-0.2,1.2-0.5
							c0.3-0.3,0.5-0.8,0.5-1.2c0-0.5-0.2-0.9-0.5-1.2C153.5,162,153.1,161.8,152.6,161.8"/>
						<polygon class="st15" points="161.1,160.9 161.1,166.2 157.5,162.9 157.5,166 156.6,166 156.6,160.8 160.2,164.1 160.2,160.9 
													"/>
						<polygon class="st15" points="163.6,161.7 163.6,163.1 166.1,163.1 166.1,163.9 163.6,163.9 163.6,165.2 166.4,165.2 
							166.4,166 162.7,166 162.7,160.9 166.4,160.9 166.4,161.7 163.6,161.7 						"/>
					</g>
				</g>
			</g>
		</g>
	</g>
	<g class="st3">
		<path class="st16" d="M97.1,95.6v-1.1h3.6v1.1l-0.9,0.2v6.2l0.9,0.2v1h-3.6v-1l0.9-0.2v-6.2L97.1,95.6z"/>
		<path class="st16" d="M101.3,102.2l0.8-0.2v-4l-0.9-0.2v-1.1h2.6l0.1,0.9c0.2-0.3,0.5-0.6,0.8-0.8c0.3-0.2,0.7-0.3,1.1-0.3
			c0.7,0,1.2,0.2,1.5,0.6s0.5,1.1,0.5,1.9v2.8l0.8,0.2v1h-3.3v-1l0.7-0.2v-2.8c0-0.4-0.1-0.7-0.3-0.9c-0.2-0.2-0.4-0.3-0.8-0.3
			c-0.2,0-0.4,0-0.6,0.1c-0.2,0.1-0.3,0.2-0.5,0.4v3.5l0.7,0.2v1h-3.3V102.2z"/>
		<path class="st16" d="M111.7,95.2v1.6h1.1V98h-1.1v3.3c0,0.3,0.1,0.4,0.2,0.5s0.2,0.2,0.4,0.2c0.1,0,0.2,0,0.3,0
			c0.1,0,0.2,0,0.3-0.1l0.1,1.3c-0.2,0.1-0.4,0.1-0.6,0.1c-0.2,0-0.4,0-0.6,0c-0.6,0-1.1-0.2-1.4-0.5c-0.3-0.3-0.5-0.9-0.5-1.6V98
			h-1v-1.2h1v-1.6H111.7z"/>
		<path class="st16" d="M116.8,103.4c-0.9,0-1.7-0.3-2.2-0.9c-0.6-0.6-0.8-1.4-0.8-2.3V100c0-1,0.3-1.8,0.8-2.4
			c0.5-0.6,1.2-0.9,2.1-0.9c0.9,0,1.5,0.3,2,0.8c0.5,0.5,0.7,1.2,0.7,2.1v1h-3.9l0,0c0,0.4,0.2,0.8,0.4,1.1c0.3,0.3,0.6,0.4,1,0.4
			c0.4,0,0.7,0,1-0.1c0.3-0.1,0.5-0.2,0.8-0.4l0.5,1.1c-0.3,0.2-0.6,0.4-1,0.5S117.3,103.4,116.8,103.4z M116.6,98
			c-0.3,0-0.6,0.1-0.8,0.4c-0.2,0.2-0.3,0.6-0.3,1l0,0h2.1v-0.2c0-0.4-0.1-0.7-0.3-0.9C117.3,98.1,117,98,116.6,98z"/>
		<path class="st16" d="M120,95V94h2.7v8.1l0.8,0.2v1h-3.4v-1l0.8-0.2v-6.9L120,95z"/>
		<path class="st16" d="M133.7,97.4h-1.3l-0.2-1.2c-0.2-0.1-0.4-0.2-0.7-0.3c-0.3-0.1-0.6-0.1-0.9-0.1c-0.5,0-0.8,0.1-1.1,0.3
			c-0.3,0.2-0.4,0.5-0.4,0.8c0,0.3,0.1,0.5,0.4,0.7c0.3,0.2,0.7,0.4,1.4,0.6c1,0.3,1.7,0.6,2.2,1.1c0.5,0.4,0.7,1,0.7,1.7
			c0,0.7-0.3,1.3-0.9,1.8c-0.6,0.4-1.4,0.6-2.3,0.6c-0.7,0-1.3-0.1-1.9-0.3c-0.6-0.2-1-0.5-1.4-0.9v-1.8h1.4l0.2,1.2
			c0.2,0.1,0.4,0.3,0.7,0.4s0.6,0.1,1,0.1c0.5,0,0.8-0.1,1.1-0.3c0.2-0.2,0.4-0.5,0.4-0.8c0-0.3-0.1-0.6-0.4-0.8
			c-0.2-0.2-0.7-0.4-1.2-0.6c-1-0.3-1.8-0.7-2.3-1.1c-0.5-0.4-0.8-1-0.8-1.7c0-0.7,0.3-1.3,0.9-1.7s1.3-0.7,2.3-0.7
			c0.7,0,1.3,0.1,1.8,0.3s1,0.5,1.4,0.8V97.4z"/>
		<path class="st16" d="M141.7,102.3c-0.3,0.3-0.7,0.5-1.2,0.8c-0.5,0.2-1.2,0.3-2.1,0.3c-1.2,0-2.1-0.4-2.9-1.2
			c-0.7-0.8-1.1-1.8-1.1-3.1v-0.3c0-1.3,0.4-2.4,1.1-3.2c0.7-0.8,1.7-1.2,2.8-1.2c0.7,0,1.3,0.1,1.9,0.3c0.6,0.2,1,0.5,1.4,0.9v1.8
			h-1.3l-0.2-1.2c-0.2-0.1-0.4-0.2-0.6-0.3c-0.3-0.1-0.6-0.1-0.9-0.1c-0.8,0-1.4,0.3-1.8,0.8c-0.4,0.6-0.6,1.3-0.6,2.2v0.3
			c0,0.9,0.2,1.6,0.6,2.1c0.4,0.5,1,0.8,1.8,0.8c0.4,0,0.6,0,0.9-0.1s0.4-0.1,0.5-0.2v-1.5l-1.2-0.1V99h3V102.3z"/>
		<path class="st16" d="M142.5,102.2l0.7-0.1l2.3-3.2l-2.2-3.1l-0.7-0.1v-1.1h3.3v1.1l-0.7,0.1l1.3,2.1l1.4-2.1l-0.7-0.1v-1.1h3.4
			v1.1l-0.7,0.1l-2.2,3.1l2.3,3.2l0.8,0.1v1h-3.4v-1l0.7-0.1l-1.4-2.2l-1.4,2.2l0.7,0.1v1h-3.4V102.2z"/>
		<path class="st16" d="M159.8,99.5h-2.9v2.5h2.8l0.1-1h1.3v2.4h-6.9v-1l0.9-0.2v-6.2l-0.9-0.2v-1.1h0.9h5.9V97h-1.3l-0.1-1h-2.8
			v2.2h2.9V99.5z"/>
	</g>
	<g class="st3">
		<path class="st16" d="M162,102.2l0.8-0.2v-4l-0.9-0.2v-1.1h2.6l0.1,0.9c0.2-0.3,0.5-0.6,0.8-0.8c0.3-0.2,0.7-0.3,1.1-0.3
			c0.7,0,1.2,0.2,1.5,0.6s0.5,1.1,0.5,1.9v2.8l0.8,0.2v1h-3.3v-1l0.7-0.2v-2.8c0-0.4-0.1-0.7-0.3-0.9c-0.2-0.2-0.4-0.3-0.8-0.3
			c-0.2,0-0.4,0-0.6,0.1c-0.2,0.1-0.3,0.2-0.5,0.4v3.5l0.7,0.2v1H162V102.2z"/>
	</g>
	<g class="st3">
		<path class="st16" d="M172.8,102.1c0.3,0,0.6-0.1,0.7-0.3c0.2-0.2,0.3-0.4,0.3-0.7h1.6l0,0c0,0.7-0.2,1.2-0.7,1.6
			c-0.5,0.4-1.1,0.7-1.9,0.7c-1,0-1.7-0.3-2.2-0.9c-0.5-0.6-0.8-1.4-0.8-2.3V100c0-1,0.3-1.7,0.8-2.3c0.5-0.6,1.3-0.9,2.3-0.9
			c0.5,0,1,0.1,1.4,0.2c0.4,0.2,0.8,0.4,1,0.7l0,1.7h-1.4l-0.3-1c-0.1-0.1-0.2-0.1-0.3-0.2s-0.3-0.1-0.4-0.1c-0.5,0-0.8,0.2-1,0.5
			c-0.2,0.4-0.3,0.8-0.3,1.4v0.2c0,0.6,0.1,1,0.3,1.4C172,101.9,172.3,102.1,172.8,102.1z"/>
		<path class="st16" d="M176,95V94h2.7v8.1l0.8,0.2v1h-3.4v-1l0.8-0.2v-6.9L176,95z"/>
	</g>
	<g class="st3">
		<path class="st16" d="M184.2,103.3c0-0.1-0.1-0.2-0.1-0.3c0-0.1-0.1-0.2-0.1-0.3c-0.2,0.2-0.5,0.4-0.8,0.6s-0.6,0.2-1,0.2
			c-0.6,0-1.1-0.2-1.5-0.5s-0.6-0.8-0.6-1.4c0-0.6,0.2-1.1,0.7-1.4c0.5-0.3,1.2-0.5,2.1-0.5h0.9v-0.6c0-0.3-0.1-0.6-0.3-0.7
			c-0.2-0.2-0.4-0.3-0.8-0.3c-0.2,0-0.4,0-0.5,0.1c-0.2,0-0.3,0.1-0.4,0.2l-0.1,0.7h-1.3l0-1.4c0.3-0.2,0.7-0.4,1.1-0.5
			c0.4-0.1,0.9-0.2,1.3-0.2c0.8,0,1.5,0.2,2,0.6c0.5,0.4,0.8,1,0.8,1.7v2.7c0,0.1,0,0.2,0,0.3c0,0.1,0,0.2,0,0.3l0.5,0.1v1H184.2z
			 M182.7,102.1c0.3,0,0.5-0.1,0.7-0.2c0.2-0.1,0.4-0.3,0.5-0.4v-1h-0.9c-0.4,0-0.7,0.1-0.8,0.3s-0.3,0.4-0.3,0.6
			c0,0.2,0.1,0.4,0.2,0.5C182.3,102.1,182.5,102.1,182.7,102.1z"/>
	</g>
	<g class="st3">
		<path class="st16" d="M189.5,97.9l-0.6,0.1l0.9,2.9l0.1,0.6h0l0.1-0.6l0.8-2.9l-0.6-0.1v-1.1h2.9v1.1l-0.6,0.1l-1.9,5.3H189
			l-1.9-5.3l-0.6-0.1v-1.1h2.9V97.9z"/>
	</g>
	<g class="st3">
		<path class="st16" d="M196.8,103.4c-0.9,0-1.7-0.3-2.2-0.9c-0.6-0.6-0.8-1.4-0.8-2.3V100c0-1,0.3-1.8,0.8-2.4
			c0.5-0.6,1.2-0.9,2.1-0.9c0.9,0,1.5,0.3,2,0.8c0.5,0.5,0.7,1.2,0.7,2.1v1h-3.9l0,0c0,0.4,0.2,0.8,0.4,1.1c0.3,0.3,0.6,0.4,1,0.4
			c0.4,0,0.7,0,1-0.1c0.3-0.1,0.5-0.2,0.8-0.4l0.5,1.1c-0.3,0.2-0.6,0.4-1,0.5S197.3,103.4,196.8,103.4z M196.6,98
			c-0.3,0-0.6,0.1-0.8,0.4c-0.2,0.2-0.3,0.6-0.3,1l0,0h2.1v-0.2c0-0.4-0.1-0.7-0.3-0.9C197.2,98.1,197,98,196.6,98z"/>
	</g>
	<g class="st3">
		<path class="st4" d="M369.3,14.8v1l-0.9,0.2v4.5c0,0.6,0.2,1,0.5,1.3s0.7,0.4,1.2,0.4c0.5,0,1-0.1,1.3-0.4s0.5-0.7,0.5-1.3V16
			l-0.9-0.2v-1h3.5v1l-0.9,0.2v4.5c0,1-0.3,1.7-0.9,2.2s-1.5,0.8-2.5,0.8c-1,0-1.8-0.3-2.5-0.8s-0.9-1.3-0.9-2.2V16l-0.9-0.2v-1h0.9
			h1.7H369.3z"/>
		<path class="st4" d="M374.9,22.3l0.8-0.2v-3.9l-0.9-0.2v-1h2.5l0.1,0.9c0.2-0.3,0.5-0.6,0.8-0.8s0.7-0.3,1-0.3
			c0.6,0,1.1,0.2,1.5,0.6s0.5,1,0.5,1.9v2.8l0.8,0.2v1h-3.3v-1l0.7-0.2v-2.8c0-0.4-0.1-0.7-0.3-0.9s-0.4-0.3-0.8-0.3
			c-0.2,0-0.4,0-0.6,0.1s-0.3,0.2-0.5,0.4v3.4l0.7,0.2v1h-3.2V22.3z"/>
		<path class="st4" d="M385.1,15.4V17h1.1v1.2h-1.1v3.2c0,0.2,0.1,0.4,0.2,0.5s0.2,0.2,0.4,0.2c0.1,0,0.2,0,0.3,0s0.2,0,0.3,0
			l0.1,1.2c-0.2,0.1-0.4,0.1-0.6,0.1s-0.4,0-0.6,0c-0.6,0-1-0.2-1.4-0.5s-0.5-0.8-0.5-1.5v-3.2h-0.9V17h0.9v-1.6H385.1z"/>
		<path class="st4" d="M387.2,22.3l0.8-0.2v-3.9l-0.9-0.2v-1h2.5l0.1,0.9c0.1-0.3,0.3-0.6,0.6-0.8s0.5-0.3,0.8-0.3
			c0.1,0,0.2,0,0.3,0s0.2,0,0.2,0l-0.2,1.6l-0.7,0c-0.3,0-0.5,0-0.6,0.1s-0.3,0.2-0.4,0.4v3.1l0.8,0.2v1h-3.4V22.3z"/>
		<path class="st4" d="M396.6,22.5c-0.2,0.3-0.5,0.5-0.8,0.7s-0.6,0.2-1,0.2c-0.7,0-1.2-0.2-1.6-0.6s-0.6-1.1-0.6-2v-2.6l-0.7-0.2
			v-1h0.7h1.7v3.8c0,0.5,0.1,0.8,0.2,1s0.4,0.3,0.7,0.3c0.3,0,0.5,0,0.7-0.1s0.4-0.2,0.5-0.4v-3.4l-0.8-0.2v-1h0.8h1.7v5.1l0.8,0.2
			v1h-2.3L396.6,22.5z"/>
		<path class="st4" d="M404.8,19.1h-1.1l-0.2-0.8c-0.1-0.1-0.3-0.2-0.4-0.2s-0.4-0.1-0.6-0.1c-0.3,0-0.5,0.1-0.7,0.2
			s-0.3,0.3-0.3,0.5c0,0.2,0.1,0.4,0.3,0.5s0.5,0.2,1,0.3c0.8,0.2,1.4,0.4,1.7,0.7s0.6,0.7,0.6,1.3c0,0.6-0.2,1-0.7,1.4
			s-1.1,0.5-1.9,0.5c-0.5,0-0.9-0.1-1.3-0.2s-0.8-0.3-1.1-0.6l0-1.4h1.2l0.2,0.8c0.1,0.1,0.2,0.1,0.4,0.2s0.4,0.1,0.6,0.1
			c0.3,0,0.6-0.1,0.8-0.2s0.3-0.3,0.3-0.5c0-0.2-0.1-0.3-0.3-0.5s-0.5-0.3-1-0.4c-0.7-0.2-1.3-0.4-1.7-0.7s-0.6-0.7-0.6-1.2
			c0-0.5,0.2-1,0.7-1.4s1.1-0.6,1.9-0.6c0.5,0,1,0.1,1.4,0.2s0.8,0.3,1,0.5L404.8,19.1z"/>
		<path class="st4" d="M408.3,15.4V17h1.1v1.2h-1.1v3.2c0,0.2,0.1,0.4,0.2,0.5s0.2,0.2,0.4,0.2c0.1,0,0.2,0,0.3,0s0.2,0,0.3,0
			l0.1,1.2c-0.2,0.1-0.4,0.1-0.6,0.1s-0.4,0-0.6,0c-0.6,0-1-0.2-1.4-0.5s-0.5-0.8-0.5-1.5v-3.2h-0.9V17h0.9v-1.6H408.3z"/>
		<path class="st4" d="M413.3,23.4c-0.9,0-1.6-0.3-2.2-0.9s-0.8-1.3-0.8-2.2v-0.2c0-0.9,0.3-1.7,0.8-2.3s1.2-0.9,2.1-0.9
			c0.9,0,1.5,0.3,2,0.8s0.7,1.2,0.7,2.1v0.9h-3.8l0,0c0,0.4,0.2,0.8,0.4,1s0.6,0.4,1,0.4c0.4,0,0.7,0,0.9-0.1s0.5-0.2,0.8-0.4
			l0.5,1.1c-0.3,0.2-0.6,0.4-1,0.5S413.8,23.4,413.3,23.4z M413.1,18.2c-0.3,0-0.6,0.1-0.8,0.4s-0.3,0.6-0.3,1l0,0h2.1v-0.2
			c0-0.4-0.1-0.7-0.3-0.9S413.5,18.2,413.1,18.2z"/>
		<path class="st4" d="M420.8,22.5c-0.2,0.3-0.4,0.5-0.7,0.7s-0.6,0.2-0.9,0.2c-0.8,0-1.4-0.3-1.8-0.9s-0.6-1.3-0.6-2.3v-0.1
			c0-1,0.2-1.8,0.7-2.4s1-0.9,1.8-0.9c0.3,0,0.6,0.1,0.9,0.2s0.5,0.3,0.7,0.6v-2.3l-0.9-0.2v-1h0.9h1.7v7.9l0.8,0.2v1h-2.3
			L420.8,22.5z M418.4,20.3c0,0.6,0.1,1,0.3,1.3s0.5,0.5,0.9,0.5c0.3,0,0.5-0.1,0.7-0.2s0.3-0.2,0.5-0.4v-2.7
			c-0.1-0.2-0.3-0.4-0.4-0.5s-0.4-0.2-0.6-0.2c-0.4,0-0.7,0.2-0.9,0.6s-0.3,0.9-0.3,1.5V20.3z"/>
		<path class="st4" d="M426.7,15.8v-1h3.5v1l-0.9,0.2v2.5h3.5V16l-0.9-0.2v-1h0.9h1.7h0.9v1l-0.9,0.2v6.1l0.9,0.2v1h-3.5v-1l0.9-0.2
			v-2.3h-3.5v2.3l0.9,0.2v1h-3.5v-1l0.9-0.2V16L426.7,15.8z"/>
		<path class="st4" d="M436.1,20.1c0-0.9,0.3-1.7,0.8-2.3s1.3-0.9,2.2-0.9c0.9,0,1.7,0.3,2.2,0.9s0.8,1.4,0.8,2.3v0.1
			c0,1-0.3,1.7-0.8,2.3s-1.3,0.9-2.2,0.9c-0.9,0-1.7-0.3-2.2-0.9s-0.8-1.4-0.8-2.3V20.1z M437.8,20.2c0,0.6,0.1,1,0.3,1.4
			s0.5,0.5,1,0.5c0.4,0,0.8-0.2,1-0.5s0.3-0.8,0.3-1.4v-0.1c0-0.6-0.1-1-0.3-1.4s-0.5-0.5-1-0.5s-0.8,0.2-1,0.5s-0.3,0.8-0.3,1.4
			V20.2z"/>
		<path class="st4" d="M448,19.1h-1.1l-0.2-0.8c-0.1-0.1-0.3-0.2-0.4-0.2s-0.4-0.1-0.6-0.1c-0.3,0-0.5,0.1-0.7,0.2s-0.3,0.3-0.3,0.5
			c0,0.2,0.1,0.4,0.3,0.5s0.5,0.2,1,0.3c0.8,0.2,1.4,0.4,1.7,0.7s0.6,0.7,0.6,1.3c0,0.6-0.2,1-0.7,1.4s-1.1,0.5-1.9,0.5
			c-0.5,0-0.9-0.1-1.3-0.2s-0.8-0.3-1.1-0.6l0-1.4h1.2l0.2,0.8c0.1,0.1,0.2,0.1,0.4,0.2s0.4,0.1,0.6,0.1c0.3,0,0.6-0.1,0.8-0.2
			s0.3-0.3,0.3-0.5c0-0.2-0.1-0.3-0.3-0.5s-0.5-0.3-1-0.4c-0.7-0.2-1.3-0.4-1.7-0.7s-0.6-0.7-0.6-1.2c0-0.5,0.2-1,0.7-1.4
			s1.1-0.6,1.9-0.6c0.5,0,1,0.1,1.4,0.2s0.8,0.3,1,0.5L448,19.1z"/>
		<path class="st4" d="M451.5,15.4V17h1.1v1.2h-1.1v3.2c0,0.2,0.1,0.4,0.2,0.5s0.2,0.2,0.4,0.2c0.1,0,0.2,0,0.3,0s0.2,0,0.3,0
			l0.1,1.2c-0.2,0.1-0.4,0.1-0.6,0.1s-0.4,0-0.6,0c-0.6,0-1-0.2-1.4-0.5s-0.5-0.8-0.5-1.5v-3.2h-0.9V17h0.9v-1.6H451.5z"/>
		<path class="st4" d="M457.2,24h-1.3l3.1-9.3h1.3L457.2,24z"/>
		<path class="st4" d="M466.7,15.8l-0.7,0.1l1.5,5.1l0.1,0.5h0l0.1-0.5l1.5-5.1l-0.6-0.1v-1h3.1v1l-0.7,0.1l-2.5,7.4h-1.8l-2.5-7.4
			l-0.7-0.1v-1h3.1V15.8z"/>
		<path class="st4" d="M480.5,17L480.5,17l-2.3,6.3H477l-2.3-6.3l0,0l0.2,3.7v1.3l0.9,0.2v1h-3.5v-1l0.9-0.2V16l-0.9-0.2v-1h0.9h2.2
			l2.2,6.3h0l2.2-6.3h3.2v1l-0.9,0.2v6.1l0.9,0.2v1h-3.5v-1l0.9-0.2v-1.3L480.5,17z"/>
		<path class="st4" d="M484.4,24h-1.3l3.1-9.3h1.3L484.4,24z"/>
		<path class="st4" d="M497.9,17.7h-1.3l-0.2-1.1c-0.2-0.2-0.4-0.3-0.6-0.4s-0.6-0.1-0.9-0.1c-0.7,0-1.3,0.3-1.7,0.8
			s-0.6,1.2-0.6,2.1v0.3c0,0.9,0.2,1.6,0.6,2.1s1,0.8,1.7,0.8c0.3,0,0.6,0,0.9-0.1s0.5-0.2,0.6-0.4l0.2-1.1h1.3v1.7
			c-0.3,0.4-0.8,0.7-1.3,1s-1.1,0.4-1.8,0.4c-1.1,0-2.1-0.4-2.8-1.2s-1.1-1.8-1.1-3.1v-0.3c0-1.2,0.4-2.3,1.1-3.1s1.7-1.2,2.8-1.2
			c0.7,0,1.3,0.1,1.8,0.4s1,0.6,1.3,1V17.7z"/>
		<path class="st4" d="M498.7,20.1c0-0.9,0.3-1.7,0.8-2.3s1.3-0.9,2.2-0.9c0.9,0,1.7,0.3,2.2,0.9s0.8,1.4,0.8,2.3v0.1
			c0,1-0.3,1.7-0.8,2.3s-1.3,0.9-2.2,0.9c-0.9,0-1.7-0.3-2.2-0.9s-0.8-1.4-0.8-2.3V20.1z M500.4,20.2c0,0.6,0.1,1,0.3,1.4
			s0.5,0.5,1,0.5c0.4,0,0.8-0.2,1-0.5s0.3-0.8,0.3-1.4v-0.1c0-0.6-0.1-1-0.3-1.4s-0.5-0.5-1-0.5s-0.8,0.2-1,0.5s-0.3,0.8-0.3,1.4
			V20.2z"/>
		<path class="st4" d="M505.4,22.3l0.8-0.2v-3.9l-0.9-0.2v-1h2.5l0.1,0.9c0.2-0.3,0.5-0.6,0.8-0.8s0.7-0.3,1-0.3
			c0.6,0,1.1,0.2,1.5,0.6s0.5,1,0.5,1.9v2.8l0.8,0.2v1h-3.3v-1l0.7-0.2v-2.8c0-0.4-0.1-0.7-0.3-0.9s-0.4-0.3-0.8-0.3
			c-0.2,0-0.4,0-0.6,0.1s-0.3,0.2-0.5,0.4v3.4l0.7,0.2v1h-3.2V22.3z"/>
		<path class="st4" d="M515.6,15.4V17h1.1v1.2h-1.1v3.2c0,0.2,0.1,0.4,0.2,0.5s0.2,0.2,0.4,0.2c0.1,0,0.2,0,0.3,0s0.2,0,0.3,0
			l0.1,1.2c-0.2,0.1-0.4,0.1-0.6,0.1s-0.4,0-0.6,0c-0.6,0-1-0.2-1.4-0.5s-0.5-0.8-0.5-1.5v-3.2H513V17h0.9v-1.6H515.6z"/>
		<path class="st4" d="M521.6,23.3c0-0.1-0.1-0.2-0.1-0.3s-0.1-0.2-0.1-0.3c-0.2,0.2-0.5,0.4-0.7,0.6s-0.6,0.2-1,0.2
			c-0.6,0-1.1-0.2-1.5-0.5s-0.5-0.8-0.5-1.4c0-0.6,0.2-1.1,0.7-1.4s1.2-0.5,2.1-0.5h0.9v-0.6c0-0.3-0.1-0.5-0.3-0.7
			s-0.4-0.3-0.8-0.3c-0.2,0-0.4,0-0.5,0.1s-0.3,0.1-0.4,0.2l-0.1,0.7H518l0-1.4c0.3-0.2,0.7-0.4,1.1-0.5s0.8-0.2,1.3-0.2
			c0.8,0,1.4,0.2,1.9,0.6s0.7,0.9,0.7,1.6v2.6c0,0.1,0,0.2,0,0.3s0,0.2,0,0.2l0.5,0.1v1H521.6z M520.1,22.2c0.3,0,0.5-0.1,0.7-0.2
			s0.4-0.3,0.5-0.4v-1h-0.9c-0.4,0-0.6,0.1-0.8,0.3s-0.3,0.4-0.3,0.6c0,0.2,0.1,0.4,0.2,0.5S519.9,22.2,520.1,22.2z"/>
		<path class="st4" d="M524.1,22.3l0.8-0.2v-3.9L524,18v-1h2.6v5.1l0.8,0.2v1h-3.4V22.3z M526.6,15.5h-1.7v-1.3h1.7V15.5z"/>
	</g>
	<g class="st3">
		<path class="st4" d="M527.9,22.3l0.8-0.2v-3.9l-0.9-0.2v-1h2.5l0.1,0.9c0.2-0.3,0.5-0.6,0.8-0.8s0.7-0.3,1-0.3
			c0.6,0,1.1,0.2,1.5,0.6s0.5,1,0.5,1.9v2.8l0.8,0.2v1h-3.3v-1l0.7-0.2v-2.8c0-0.4-0.1-0.7-0.3-0.9s-0.4-0.3-0.8-0.3
			c-0.2,0-0.4,0-0.6,0.1s-0.3,0.2-0.5,0.4v3.4l0.7,0.2v1h-3.2V22.3z"/>
	</g>
	<g class="st3">
		<path class="st4" d="M538.6,23.4c-0.9,0-1.6-0.3-2.2-0.9s-0.8-1.3-0.8-2.2v-0.2c0-0.9,0.3-1.7,0.8-2.3s1.2-0.9,2.1-0.9
			c0.9,0,1.5,0.3,2,0.8s0.7,1.2,0.7,2.1v0.9h-3.8l0,0c0,0.4,0.2,0.8,0.4,1s0.6,0.4,1,0.4c0.4,0,0.7,0,0.9-0.1s0.5-0.2,0.8-0.4
			l0.5,1.1c-0.3,0.2-0.6,0.4-1,0.5S539.1,23.4,538.6,23.4z M538.4,18.2c-0.3,0-0.6,0.1-0.8,0.4s-0.3,0.6-0.3,1l0,0h2.1v-0.2
			c0-0.4-0.1-0.7-0.3-0.9S538.8,18.2,538.4,18.2z"/>
		<path class="st4" d="M542.1,22.3l0.8-0.2v-3.9L542,18v-1h2.5l0.1,0.9c0.1-0.3,0.3-0.6,0.6-0.8s0.5-0.3,0.8-0.3c0.1,0,0.2,0,0.3,0
			s0.2,0,0.2,0l-0.2,1.6l-0.7,0c-0.3,0-0.5,0-0.6,0.1s-0.3,0.2-0.4,0.4v3.1l0.8,0.2v1h-3.4V22.3z"/>
	</g>
	<path class="st5" d="M351.4,22.1h-4.3c-0.6,0-0.8-0.2-0.8-0.8v-6.5c0-0.6,0.2-0.8,0.8-0.8h8.5c0.5,0,0.8,0.2,0.8,0.8v6.5
		c0,0.5-0.2,0.8-0.8,0.8C354.1,22.2,352.7,22.1,351.4,22.1z"/>
	<path class="st5" d="M350,5.9c1.6-0.7,3.5-0.5,4.9,0.7c1.7,1.5,1.9,4.2,0.3,5.9c-0.2,0.2-0.4,0.4-0.6,0.5c-0.3,0.3-0.6,0.4-1,0.7"
		/>
	<path class="st6" d="M350.6,19.4L350.6,19.4v0.9c0,0.2,0.1,0.2,0.3,0.2h0.8c0.2,0,0.3-0.1,0.3-0.3v-1.6c0-0.2,0.1-0.3,0.2-0.4
		c0.5-0.3,0.8-0.9,0.6-1.4c-0.2-0.6-0.8-1-1.5-1c-0.7-0.1-1.3,0.3-1.6,0.9c-0.2,0.6,0,1.2,0.5,1.5c0.2,0.1,0.3,0.3,0.3,0.5
		C350.6,18.9,350.6,19.1,350.6,19.4z"/>
	
		<linearGradient id="SVGID_7_" gradientUnits="userSpaceOnUse" x1="378.75" y1="88.48" x2="550.54" y2="88.48" gradientTransform="matrix(1 0 0 -1 0 212)">
		<stop  offset="0" style="stop-color:#990066"/>
		<stop  offset="0.19" style="stop-color:#780066"/>
		<stop  offset="0.4" style="stop-color:#5A0066"/>
		<stop  offset="0.61" style="stop-color:#440066"/>
		<stop  offset="0.81" style="stop-color:#370066"/>
		<stop  offset="1" style="stop-color:#330066"/>
	</linearGradient>
	<path class="st17" d="M383.8,70.8h161.8c2.8,0,5,2.2,5,5v95.4c0,2.8-2.2,5-5,5H383.8c-2.8,0-5-2.2-5-5V75.8
		C378.8,73.1,381,70.8,383.8,70.8z"/>
	<path class="st10" d="M401,117.1h126.6c2.8,0,5,2.2,5,5v17.2c0,2.8-2.2,5-5,5H401c-2.8,0-5-2.2-5-5v-17.2
		C396,119.3,398.3,117.1,401,117.1z"/>
	<g class="st3">
		<path class="st8" d="M434.4,133.3l0.6-0.1l2.4-6.8h1.6l2.4,6.8l0.6,0.1v0.9h-2.7v-0.9l0.5-0.1l-0.3-1.1h-2.5l-0.3,1.1l0.5,0.1v0.9
			h-2.7V133.3z M437.2,131h1.8l-0.9-2.8h0L437.2,131z"/>
		<path class="st8" d="M442.3,129.4v-0.9h2.3l0.1,0.7c0.2-0.3,0.4-0.4,0.6-0.6c0.2-0.1,0.5-0.2,0.8-0.2c0.7,0,1.3,0.3,1.7,0.8
			c0.4,0.6,0.6,1.3,0.6,2.2v0.1c0,0.9-0.2,1.5-0.6,2.1c-0.4,0.5-1,0.8-1.7,0.8c-0.3,0-0.6-0.1-0.8-0.2c-0.2-0.1-0.4-0.3-0.6-0.5v1.7
			l0.8,0.2v0.9h-3.1v-0.9l0.8-0.2v-5.8L442.3,129.4z M446.8,131.4c0-0.5-0.1-1-0.3-1.3s-0.5-0.5-0.8-0.5c-0.2,0-0.4,0-0.6,0.1
			c-0.2,0.1-0.3,0.2-0.4,0.4v2.5c0.1,0.2,0.2,0.3,0.4,0.4c0.2,0.1,0.4,0.1,0.6,0.1c0.4,0,0.7-0.1,0.8-0.4c0.2-0.3,0.3-0.7,0.3-1.2
			V131.4z"/>
	</g>
	<g class="st3">
		<path class="st8" d="M448.9,129.4v-0.9h2.3l0.1,0.7c0.2-0.3,0.4-0.4,0.6-0.6s0.5-0.2,0.8-0.2c0.7,0,1.3,0.3,1.7,0.8
			c0.4,0.6,0.6,1.3,0.6,2.2v0.1c0,0.9-0.2,1.5-0.6,2.1c-0.4,0.5-1,0.8-1.7,0.8c-0.3,0-0.6-0.1-0.8-0.2c-0.2-0.1-0.4-0.3-0.6-0.5v1.7
			l0.8,0.2v0.9H449v-0.9l0.8-0.2v-5.8L448.9,129.4z M453.4,131.4c0-0.5-0.1-1-0.3-1.3s-0.5-0.5-0.8-0.5c-0.2,0-0.4,0-0.6,0.1
			c-0.2,0.1-0.3,0.2-0.4,0.4v2.5c0.1,0.2,0.2,0.3,0.4,0.4c0.2,0.1,0.4,0.1,0.6,0.1c0.4,0,0.7-0.1,0.8-0.4c0.2-0.3,0.3-0.7,0.3-1.2
			V131.4z"/>
	</g>
	<g class="st3">
		<path class="st8" d="M455.4,126.8v-0.9h2.4v7.3l0.8,0.2v0.9h-3.1v-0.9l0.8-0.2V127L455.4,126.8z"/>
		<path class="st8" d="M459.1,133.3l0.8-0.2v-3.6l-0.8-0.2v-0.9h2.4v4.7l0.8,0.2v0.9h-3.1V133.3z M461.4,127.1h-1.6v-1.2h1.6V127.1z
			"/>
		<path class="st8" d="M465.4,133.2c0.3,0,0.5-0.1,0.7-0.2c0.2-0.2,0.3-0.4,0.3-0.7h1.4l0,0c0,0.6-0.2,1.1-0.7,1.5
			c-0.5,0.4-1,0.6-1.7,0.6c-0.9,0-1.5-0.3-2-0.8c-0.5-0.5-0.7-1.3-0.7-2.1v-0.2c0-0.9,0.2-1.6,0.7-2.1s1.2-0.8,2.1-0.8
			c0.5,0,0.9,0.1,1.3,0.2c0.4,0.1,0.7,0.3,0.9,0.6l0,1.6h-1.3l-0.3-0.9c-0.1-0.1-0.2-0.1-0.3-0.2c-0.1,0-0.2-0.1-0.4-0.1
			c-0.4,0-0.8,0.2-0.9,0.5s-0.3,0.7-0.3,1.2v0.2c0,0.5,0.1,0.9,0.3,1.3C464.7,133,465,133.2,465.4,133.2z"/>
	</g>
	<g class="st3">
		<path class="st8" d="M472.1,134.3c0-0.1-0.1-0.2-0.1-0.3c0-0.1-0.1-0.2-0.1-0.3c-0.2,0.2-0.4,0.4-0.7,0.5
			c-0.3,0.1-0.6,0.2-0.9,0.2c-0.6,0-1-0.2-1.4-0.5s-0.5-0.7-0.5-1.3c0-0.5,0.2-1,0.7-1.3c0.4-0.3,1.1-0.4,1.9-0.4h0.8v-0.6
			c0-0.3-0.1-0.5-0.2-0.6s-0.4-0.2-0.7-0.2c-0.2,0-0.3,0-0.5,0.1s-0.3,0.1-0.3,0.1l-0.1,0.6h-1.2l0-1.3c0.3-0.2,0.6-0.4,1-0.5
			c0.4-0.1,0.8-0.2,1.2-0.2c0.7,0,1.3,0.2,1.8,0.5c0.4,0.4,0.7,0.9,0.7,1.5v2.4c0,0.1,0,0.2,0,0.3c0,0.1,0,0.2,0,0.2l0.5,0.1v0.9
			H472.1z M470.8,133.2c0.2,0,0.5-0.1,0.6-0.2c0.2-0.1,0.3-0.2,0.5-0.4v-0.9h-0.8c-0.3,0-0.6,0.1-0.8,0.2c-0.2,0.2-0.3,0.3-0.3,0.6
			c0,0.2,0.1,0.4,0.2,0.5C470.4,133.2,470.6,133.2,470.8,133.2z"/>
	</g>
	<g class="st3">
		<path class="st8" d="M476.4,127v1.4h1v1.1h-1v3c0,0.2,0,0.4,0.1,0.5c0.1,0.1,0.2,0.1,0.4,0.1c0.1,0,0.2,0,0.3,0c0.1,0,0.2,0,0.3,0
			l0.1,1.1c-0.2,0.1-0.3,0.1-0.5,0.1c-0.2,0-0.4,0-0.6,0c-0.5,0-1-0.1-1.2-0.4c-0.3-0.3-0.4-0.8-0.4-1.4v-3H474v-1.1h0.9V127H476.4z
			"/>
		<path class="st8" d="M478.1,133.3l0.8-0.2v-3.6l-0.8-0.2v-0.9h2.4v4.7l0.8,0.2v0.9h-3.1V133.3z M480.4,127.1h-1.6v-1.2h1.6V127.1z
			"/>
		<path class="st8" d="M481.7,131.3c0-0.9,0.2-1.6,0.7-2.1c0.5-0.6,1.2-0.8,2-0.8c0.9,0,1.5,0.3,2,0.8c0.5,0.6,0.7,1.3,0.7,2.1v0.1
			c0,0.9-0.2,1.6-0.7,2.1c-0.5,0.5-1.2,0.8-2,0.8c-0.9,0-1.5-0.3-2-0.8c-0.5-0.5-0.7-1.3-0.7-2.1V131.3z M483.3,131.4
			c0,0.5,0.1,1,0.3,1.3s0.5,0.5,0.9,0.5c0.4,0,0.7-0.2,0.9-0.5s0.3-0.7,0.3-1.3v-0.1c0-0.5-0.1-0.9-0.3-1.3
			c-0.2-0.3-0.5-0.5-0.9-0.5s-0.7,0.2-0.9,0.5s-0.3,0.7-0.3,1.3V131.4z"/>
		<path class="st8" d="M487.8,133.3l0.8-0.2v-3.6l-0.8-0.2v-0.9h2.3l0.1,0.8c0.2-0.3,0.4-0.5,0.7-0.7s0.6-0.2,1-0.2
			c0.6,0,1,0.2,1.4,0.6c0.3,0.4,0.5,0.9,0.5,1.7v2.5l0.8,0.2v0.9h-3v-0.9l0.7-0.2v-2.5c0-0.4-0.1-0.7-0.2-0.8s-0.4-0.2-0.7-0.2
			c-0.2,0-0.4,0-0.6,0.1c-0.2,0.1-0.3,0.2-0.4,0.4v3.1l0.6,0.2v0.9h-3V133.3z"/>
	</g>
	<path class="st11" d="M455.3,59c4.6-4.5,12.1-4.5,16.6,0.1c4.5,4.6,4.5,12.1-0.1,16.6c-4.6,4.5-12.1,4.5-16.6-0.1
		c-2.2-2.2-3.4-5.1-3.4-8.2c0-2.6,0.8-5.1,2.4-7.1"/>
	<path class="st10" d="M463.6,73.1h-4.3c-0.6,0-0.8-0.2-0.8-0.8v-6.5c0-0.6,0.2-0.8,0.8-0.8h8.5c0.5,0,0.8,0.2,0.8,0.8v6.5
		c0,0.5-0.2,0.8-0.8,0.8C466.4,73.1,465,73.1,463.6,73.1z"/>
	<path class="st10" d="M459.2,64.4c0-1.8,1-3.4,2.6-4.1c2.1-0.9,4.6,0,5.5,2.2c0.1,0.2,0.2,0.5,0.2,0.7c0.1,0.4,0.1,0.8,0.2,1.2"/>
	<path class="st8" d="M462.9,70.3L462.9,70.3v0.9c0,0.2,0.1,0.2,0.3,0.2h0.9c0.2,0,0.3-0.1,0.3-0.3v-1.6c0-0.2,0.1-0.3,0.2-0.4
		c0.5-0.3,0.8-0.9,0.6-1.4c-0.2-0.6-0.8-1-1.5-1c-0.7-0.1-1.3,0.3-1.6,0.9c-0.2,0.6,0,1.2,0.5,1.5c0.2,0.1,0.3,0.3,0.3,0.5
		C462.9,69.8,462.9,70.1,462.9,70.3z"/>
	<g id="Scone_logo_white-2">
		<g>
			<defs>
				<rect id="SVGID_8_" x="446.5" y="159.1" width="36.3" height="7.1"/>
			</defs>
			<clipPath id="SVGID_9_">
				<use xlink:href="#SVGID_8_"  style="overflow:visible;"/>
			</clipPath>
			<g class="st18">
				<g>
					<defs>
						<rect id="SVGID_10_" x="446.5" y="159.1" width="36.3" height="7.1"/>
					</defs>
					<clipPath id="SVGID_11_">
						<use xlink:href="#SVGID_10_"  style="overflow:visible;"/>
					</clipPath>
					<g class="st19">
						<path class="st14" d="M451.3,160.9h-0.8c-0.2,0-0.3,0.1-0.3,0.3c0,0,0,0,0,0v0.8c0,0.2,0.1,0.3,0.3,0.3l0,0h0.8
							c0.2,0,0.3-0.1,0.3-0.3c0,0,0,0,0,0v-0.8C451.6,161.1,451.5,160.9,451.3,160.9C451.3,160.9,451.3,160.9,451.3,160.9
							 M448.6,162.3h0.8c0.2,0,0.3-0.1,0.3-0.3l0,0v-0.8c0-0.2-0.1-0.3-0.3-0.3c0,0,0,0,0,0h-0.8c-0.2,0-0.3,0.1-0.3,0.3
							c0,0,0,0,0,0v0.8C448.3,162.2,448.5,162.3,448.6,162.3C448.6,162.3,448.6,162.3,448.6,162.3 M447.8,162v-0.8
							c0-0.2-0.1-0.3-0.3-0.3h-0.8c-0.2,0-0.3,0.1-0.3,0.3c0,0,0,0,0,0v0.8c0,0.2,0.1,0.3,0.3,0.3l0,0h0.8
							C447.7,162.3,447.8,162.2,447.8,162 M451.3,162.8c-0.1,0-0.2,0.1-0.2,0.2v0.9c0,0.1,0.1,0.2,0.2,0.2c0.1,0,0.2-0.1,0.2-0.2
							l0,0v-1C451.6,162.9,451.5,162.8,451.3,162.8 M449.2,163.1v0.8c0,0.2,0.1,0.3,0.3,0.3h0.8c0.2,0,0.3-0.1,0.3-0.3v-0.8
							c0-0.2-0.1-0.3-0.3-0.3h-0.8C449.4,162.8,449.2,162.9,449.2,163.1L449.2,163.1 M448.7,163.8v-0.8c0-0.2-0.1-0.3-0.3-0.3l0,0
							h-0.8c-0.2,0-0.3,0.1-0.3,0.3c0,0,0,0,0,0v0.8c0,0.2,0.1,0.3,0.3,0.3h0.8C448.6,164.1,448.7,164,448.7,163.8 M451.3,164.7
							h-0.8c-0.2,0-0.3,0.1-0.3,0.3l0,0v0.8c0,0.2,0.1,0.3,0.3,0.3l0,0h0.8c0.2,0,0.3-0.1,0.3-0.3c0,0,0,0,0,0V165
							C451.6,164.8,451.5,164.7,451.3,164.7C451.3,164.7,451.3,164.7,451.3,164.7 M449.3,164.7h-0.8c-0.2,0-0.3,0.1-0.3,0.3l0,0v0.8
							c0,0.2,0.1,0.3,0.3,0.3l0,0h0.8c0.2,0,0.3-0.1,0.3-0.3l0,0V165C449.6,164.8,449.4,164.7,449.3,164.7L449.3,164.7"/>
						<path class="st14" d="M452.2,160.6c0.3,0.3,0.8,0.4,1.2,0.4c0,0,0,0,0,0.1v2.1c0,0.8-1,1.3-1.2,1.4l0,0L452.2,160.6
							L452.2,160.6"/>
						<path class="st14" d="M449.9,160.5c1.6-0.1,1.9-0.6,1.9-0.6c0,0,0.1,0,0.1,0c0,0,0,0,0.1,0c0,0,0.3,0.6,1.9,0.6
							c0,0,0.1,0,0.1,0.1v2.8c0,0.9-1.7,1.9-1.7,1.9s-0.1,0-0.1,0v0.7c0,0,0.1,0.1,0.1,0c0.6-0.3,2.3-1.3,2.3-2.5V160
							c0-0.1-0.1-0.1-0.2-0.1c-2,0-2.4-0.8-2.4-0.8s-0.1,0-0.1,0s-0.1,0-0.1,0s-0.3,0.8-2.4,0.8c-0.1,0-0.1,0-0.1,0.1v0.4
							c0,0,0,0.1,0.1,0.1L449.9,160.5"/>
						<path class="st15" d="M456.1,165l0.8-0.3c0.2,0.4,0.6,0.6,1.1,0.6c0.2,0,0.4,0,0.6-0.1c0.2-0.1,0.3-0.3,0.3-0.4
							c0-0.4-0.6-0.7-1-0.9l0,0c-0.3-0.1-0.7-0.3-1-0.5c-0.3-0.2-0.5-0.6-0.5-1c0-0.4,0.2-0.8,0.5-1c0.3-0.3,0.8-0.4,1.2-0.4
							c0.7,0,1.3,0.3,1.6,0.9l-0.9,0.3c-0.1-0.1-0.2-0.2-0.3-0.3c-0.1-0.1-0.3-0.1-0.5-0.1c-0.5,0-0.8,0.3-0.8,0.6
							c0,0.2,0.1,0.4,0.3,0.5c0.2,0.1,0.5,0.3,0.7,0.4h0.1c0.6,0.3,1.4,0.6,1.4,1.4c0,0.4-0.2,0.8-0.6,1c-0.4,0.3-0.9,0.4-1.3,0.4
							C457.2,166.1,456.5,165.7,456.1,165"/>
						<path class="st15" d="M463.4,166.1c-0.3,0-0.7-0.1-1-0.2c-0.6-0.3-1.1-0.8-1.4-1.4c-0.1-0.3-0.2-0.7-0.2-1
							c0-0.3,0.1-0.7,0.2-1c0.1-0.3,0.3-0.6,0.6-0.8c0.2-0.2,0.5-0.4,0.8-0.6c0.3-0.1,0.7-0.2,1-0.2c0.4,0,0.8,0.1,1.2,0.3
							c0.3,0.2,0.7,0.4,0.9,0.8l-0.7,0.5c-0.2-0.2-0.4-0.4-0.6-0.5c-0.2-0.1-0.5-0.2-0.8-0.2c-1,0-1.8,0.7-1.8,1.7
							c0,0.5,0.2,1,0.5,1.3c0.6,0.6,1.4,0.7,2.1,0.3c0.3-0.2,0.5-0.4,0.6-0.6l0.8,0.4c-0.2,0.4-0.5,0.7-0.9,0.9
							C464.3,166,463.8,166.1,463.4,166.1"/>
						<path class="st15" d="M469,166.1c-0.3,0-0.7-0.1-1-0.2c-0.3-0.1-0.6-0.3-0.8-0.6c-0.2-0.2-0.4-0.5-0.5-0.8
							c-0.1-0.3-0.2-0.7-0.2-1c0-0.3,0.1-0.7,0.2-1c0.1-0.3,0.3-0.6,0.5-0.8c0.2-0.2,0.5-0.4,0.8-0.6c0.6-0.3,1.4-0.3,2,0
							c0.3,0.1,0.6,0.3,0.8,0.6c0.2,0.2,0.4,0.5,0.6,0.8c0.6,1.3-0.1,2.8-1.4,3.4C469.7,166.1,469.3,166.1,469,166.1 M469,161.8
							c-0.5,0-0.9,0.2-1.2,0.5c-0.3,0.3-0.5,0.8-0.5,1.2c0,1,0.8,1.7,1.7,1.7c0.5,0,0.9-0.2,1.2-0.5c0.3-0.3,0.5-0.8,0.5-1.2
							c0-0.5-0.2-0.9-0.5-1.2C469.9,162,469.5,161.8,469,161.8"/>
						<polygon class="st15" points="477.5,160.9 477.5,166.2 473.9,162.9 473.9,166 472.9,166 472.9,160.8 476.6,164.1 476.6,160.9 
													"/>
						<polygon class="st15" points="480,161.7 480,163.1 482.5,163.1 482.5,163.9 480,163.9 480,165.2 482.8,165.2 482.8,166 
							479,166 479,160.9 482.8,160.9 482.8,161.7 480,161.7 						"/>
					</g>
				</g>
			</g>
		</g>
	</g>
	<g class="st3">
		<path class="st16" d="M413.4,95.6v-1.1h3.6v1.1l-0.9,0.2v6.2l0.9,0.2v1h-3.6v-1l0.9-0.2v-6.2L413.4,95.6z"/>
		<path class="st16" d="M417.6,102.2l0.8-0.2v-4l-0.9-0.2v-1.1h2.6l0.1,0.9c0.2-0.3,0.5-0.6,0.8-0.8c0.3-0.2,0.7-0.3,1.1-0.3
			c0.7,0,1.2,0.2,1.5,0.6c0.4,0.4,0.5,1.1,0.5,1.9v2.8l0.8,0.2v1h-3.3v-1l0.7-0.2v-2.8c0-0.4-0.1-0.7-0.3-0.9
			c-0.2-0.2-0.4-0.3-0.8-0.3c-0.2,0-0.4,0-0.6,0.1c-0.2,0.1-0.3,0.2-0.5,0.4v3.5l0.7,0.2v1h-3.3V102.2z"/>
		<path class="st16" d="M428.1,95.2v1.6h1.1V98h-1.1v3.3c0,0.3,0.1,0.4,0.2,0.5s0.2,0.2,0.4,0.2c0.1,0,0.2,0,0.3,0
			c0.1,0,0.2,0,0.3-0.1l0.1,1.3c-0.2,0.1-0.4,0.1-0.6,0.1c-0.2,0-0.4,0-0.6,0c-0.6,0-1.1-0.2-1.4-0.5c-0.3-0.3-0.5-0.9-0.5-1.6V98
			h-1v-1.2h1v-1.6H428.1z"/>
		<path class="st16" d="M433.2,103.4c-0.9,0-1.7-0.3-2.2-0.9s-0.8-1.4-0.8-2.3V100c0-1,0.3-1.8,0.8-2.4c0.5-0.6,1.2-0.9,2.1-0.9
			c0.9,0,1.5,0.3,2,0.8c0.5,0.5,0.7,1.2,0.7,2.1v1h-3.9l0,0c0,0.4,0.2,0.8,0.4,1.1c0.3,0.3,0.6,0.4,1,0.4c0.4,0,0.7,0,1-0.1
			c0.3-0.1,0.5-0.2,0.8-0.4l0.5,1.1c-0.3,0.2-0.6,0.4-1,0.5C434.2,103.3,433.7,103.4,433.2,103.4z M433,98c-0.3,0-0.6,0.1-0.8,0.4
			c-0.2,0.2-0.3,0.6-0.3,1l0,0h2.1v-0.2c0-0.4-0.1-0.7-0.3-0.9C433.6,98.1,433.4,98,433,98z"/>
		<path class="st16" d="M436.4,95V94h2.7v8.1l0.8,0.2v1h-3.4v-1l0.8-0.2v-6.9L436.4,95z"/>
		<path class="st16" d="M450.1,97.4h-1.3l-0.2-1.2c-0.2-0.1-0.4-0.2-0.7-0.3s-0.6-0.1-0.9-0.1c-0.5,0-0.8,0.1-1.1,0.3
			s-0.4,0.5-0.4,0.8c0,0.3,0.1,0.5,0.4,0.7c0.3,0.2,0.7,0.4,1.4,0.6c1,0.3,1.7,0.6,2.2,1.1c0.5,0.4,0.7,1,0.7,1.7
			c0,0.7-0.3,1.3-0.9,1.8c-0.6,0.4-1.4,0.6-2.3,0.6c-0.7,0-1.3-0.1-1.9-0.3c-0.6-0.2-1-0.5-1.4-0.9v-1.8h1.4l0.2,1.2
			c0.2,0.1,0.4,0.3,0.7,0.4s0.6,0.1,1,0.1c0.5,0,0.8-0.1,1.1-0.3s0.4-0.5,0.4-0.8c0-0.3-0.1-0.6-0.4-0.8c-0.2-0.2-0.7-0.4-1.2-0.6
			c-1-0.3-1.8-0.7-2.3-1.1c-0.5-0.4-0.8-1-0.8-1.7c0-0.7,0.3-1.3,0.9-1.7s1.3-0.7,2.3-0.7c0.7,0,1.3,0.1,1.8,0.3s1,0.5,1.4,0.8V97.4
			z"/>
		<path class="st16" d="M458.1,102.3c-0.3,0.3-0.7,0.5-1.2,0.8c-0.5,0.2-1.2,0.3-2.1,0.3c-1.2,0-2.1-0.4-2.9-1.2s-1.1-1.8-1.1-3.1
			v-0.3c0-1.3,0.4-2.4,1.1-3.2c0.7-0.8,1.7-1.2,2.8-1.2c0.7,0,1.3,0.1,1.9,0.3c0.6,0.2,1,0.5,1.4,0.9v1.8h-1.3l-0.2-1.2
			c-0.2-0.1-0.4-0.2-0.6-0.3c-0.3-0.1-0.6-0.1-0.9-0.1c-0.8,0-1.4,0.3-1.8,0.8c-0.4,0.6-0.6,1.3-0.6,2.2v0.3c0,0.9,0.2,1.6,0.6,2.1
			c0.4,0.5,1,0.8,1.8,0.8c0.4,0,0.6,0,0.9-0.1c0.2-0.1,0.4-0.1,0.5-0.2v-1.5l-1.2-0.1V99h3V102.3z"/>
		<path class="st16" d="M458.8,102.2l0.7-0.1l2.3-3.2l-2.2-3.1l-0.7-0.1v-1.1h3.3v1.1l-0.7,0.1l1.3,2.1l1.4-2.1l-0.7-0.1v-1.1h3.4
			v1.1l-0.7,0.1l-2.2,3.1l2.3,3.2l0.8,0.1v1h-3.4v-1l0.7-0.1l-1.4-2.2l-1.4,2.2l0.7,0.1v1h-3.4V102.2z"/>
		<path class="st16" d="M476.2,99.5h-2.9v2.5h2.8l0.1-1h1.3v2.4h-6.9v-1l0.9-0.2v-6.2l-0.9-0.2v-1.1h0.9h5.9V97h-1.3l-0.1-1h-2.8
			v2.2h2.9V99.5z"/>
	</g>
	<g class="st3">
		<path class="st16" d="M478.3,102.2l0.8-0.2v-4l-0.9-0.2v-1.1h2.6l0.1,0.9c0.2-0.3,0.5-0.6,0.8-0.8c0.3-0.2,0.7-0.3,1.1-0.3
			c0.7,0,1.2,0.2,1.5,0.6s0.5,1.1,0.5,1.9v2.8l0.8,0.2v1h-3.3v-1l0.7-0.2v-2.8c0-0.4-0.1-0.7-0.3-0.9c-0.2-0.2-0.4-0.3-0.8-0.3
			c-0.2,0-0.4,0-0.6,0.1s-0.3,0.2-0.5,0.4v3.5l0.7,0.2v1h-3.3V102.2z"/>
	</g>
	<g class="st3">
		<path class="st16" d="M489.2,102.1c0.3,0,0.6-0.1,0.7-0.3c0.2-0.2,0.3-0.4,0.3-0.7h1.6l0,0c0,0.7-0.2,1.2-0.7,1.6
			c-0.5,0.4-1.1,0.7-1.9,0.7c-1,0-1.7-0.3-2.2-0.9s-0.8-1.4-0.8-2.3V100c0-1,0.3-1.7,0.8-2.3c0.5-0.6,1.3-0.9,2.3-0.9
			c0.5,0,1,0.1,1.4,0.2c0.4,0.2,0.8,0.4,1,0.7l0,1.7h-1.4l-0.3-1c-0.1-0.1-0.2-0.1-0.3-0.2c-0.1,0-0.3-0.1-0.4-0.1
			c-0.5,0-0.8,0.2-1,0.5c-0.2,0.4-0.3,0.8-0.3,1.4v0.2c0,0.6,0.1,1,0.3,1.4C488.4,101.9,488.7,102.1,489.2,102.1z"/>
		<path class="st16" d="M492.4,95V94h2.7v8.1l0.8,0.2v1h-3.4v-1l0.8-0.2v-6.9L492.4,95z"/>
	</g>
	<g class="st3">
		<path class="st16" d="M500.6,103.3c0-0.1-0.1-0.2-0.1-0.3c0-0.1-0.1-0.2-0.1-0.3c-0.2,0.2-0.5,0.4-0.8,0.6s-0.6,0.2-1,0.2
			c-0.6,0-1.1-0.2-1.5-0.5c-0.4-0.3-0.6-0.8-0.6-1.4c0-0.6,0.2-1.1,0.7-1.4c0.5-0.3,1.2-0.5,2.1-0.5h0.9v-0.6c0-0.3-0.1-0.6-0.3-0.7
			c-0.2-0.2-0.4-0.3-0.8-0.3c-0.2,0-0.4,0-0.5,0.1s-0.3,0.1-0.4,0.2l-0.1,0.7h-1.3l0-1.4c0.3-0.2,0.7-0.4,1.1-0.5s0.9-0.2,1.3-0.2
			c0.8,0,1.5,0.2,2,0.6c0.5,0.4,0.8,1,0.8,1.7v2.7c0,0.1,0,0.2,0,0.3c0,0.1,0,0.2,0,0.3l0.5,0.1v1H500.6z M499.1,102.1
			c0.3,0,0.5-0.1,0.7-0.2s0.4-0.3,0.5-0.4v-1h-0.9c-0.4,0-0.7,0.1-0.8,0.3s-0.3,0.4-0.3,0.6c0,0.2,0.1,0.4,0.2,0.5
			C498.7,102.1,498.9,102.1,499.1,102.1z"/>
	</g>
	<g class="st3">
		<path class="st16" d="M505.9,97.9l-0.6,0.1l0.9,2.9l0.1,0.6h0l0.1-0.6l0.8-2.9l-0.6-0.1v-1.1h2.9v1.1L509,98l-1.9,5.3h-1.7
			l-1.9-5.3l-0.6-0.1v-1.1h2.9V97.9z"/>
	</g>
	<g class="st3">
		<path class="st16" d="M513.1,103.4c-0.9,0-1.7-0.3-2.2-0.9c-0.6-0.6-0.8-1.4-0.8-2.3V100c0-1,0.3-1.8,0.8-2.4
			c0.5-0.6,1.2-0.9,2.1-0.9c0.9,0,1.5,0.3,2,0.8c0.5,0.5,0.7,1.2,0.7,2.1v1h-3.9l0,0c0,0.4,0.2,0.8,0.4,1.1c0.3,0.3,0.6,0.4,1,0.4
			c0.4,0,0.7,0,1-0.1c0.3-0.1,0.5-0.2,0.8-0.4l0.5,1.1c-0.3,0.2-0.6,0.4-1,0.5C514.1,103.3,513.7,103.4,513.1,103.4z M513,98
			c-0.3,0-0.6,0.1-0.8,0.4s-0.3,0.6-0.3,1l0,0h2.1v-0.2c0-0.4-0.1-0.7-0.3-0.9C513.6,98.1,513.3,98,513,98z"/>
	</g>
	<line class="st20" x1="329.2" y1="123.5" x2="281.9" y2="123.5"/>
	<polygon class="st8" points="324.6,117.8 323.6,118.8 328.7,123.5 323.6,128.2 324.6,129.2 330.8,123.5 	"/>
	<path class="st7" d="M545.5,70.8H383.8c-2.8,0-5,2.2-5,5v35.6H234.2V75.8c0-2.8-2.2-5-5-5H67.4c-2.8,0-5,2.2-5,5v95.4
		c0,2.8,2.2,5,5,5h161.8c2.8,0,5-2.2,5-5V136h144.6v35.3c0,2.8,2.2,5,5,5h161.8c2.8,0,5-2.2,5-5V75.8
		C550.5,73.1,548.3,70.8,545.5,70.8z"/>
</g>
</svg>
