<?xml version="1.0" encoding="utf-8"?>
<!-- Generator: Adobe Illustrator 24.0.0, SVG Export Plug-In . SVG Version: 6.00 Build 0)  -->
<svg version="1.1" id="Ebene_1" xmlns="http://www.w3.org/2000/svg" xmlns:xlink="http://www.w3.org/1999/xlink" x="0px" y="0px"
	 viewBox="0 0 591.1 300.5" style="enable-background:new 0 0 591.1 300.5;" xml:space="preserve">
<style type="text/css">
	.st0{opacity:0.2;fill:#FFCC99;enable-background:new    ;}
	.st1{fill:none;stroke:#CC3300;stroke-width:2;stroke-miterlimit:10;stroke-dasharray:2,2;}
	.st2{enable-background:new    ;}
	.st3{fill:#330066;}
	.st4{fill:none;stroke:#FF6633;stroke-width:2;stroke-linecap:round;stroke-linejoin:round;}
	.st5{fill:#FF6633;}
	.st6{fill:#FFFFFF;stroke:#FFCC00;stroke-width:2;stroke-miterlimit:10;}
	.st7{fill:#FFCC00;}
	.st8{fill:#FFFFFF;stroke:#330066;stroke-width:2;stroke-miterlimit:10;}
	.st9{fill:none;stroke:#FFCC00;stroke-width:2;stroke-miterlimit:10;}
	.st10{fill:none;stroke:#FFCC00;stroke-width:2;stroke-miterlimit:10;stroke-dasharray:1.97,1.97;}
	.st11{fill:none;stroke:#FFCC00;stroke-width:2;stroke-miterlimit:10;stroke-dasharray:2.02,2.02;}
	.st12{fill:none;stroke:#CC3300;stroke-width:2;stroke-miterlimit:10;}
	.st13{fill:#CC3300;}
	.st14{fill:#FFFFFF;stroke:#FFCC00;stroke-width:2;stroke-linecap:round;stroke-linejoin:round;}
	.st15{fill:none;stroke:#FFCC00;stroke-width:2;stroke-linecap:round;stroke-linejoin:round;}
	.st16{fill:#FFFFFF;}
	.st17{fill:none;stroke:#330066;stroke-linejoin:round;}
	.st18{fill:none;stroke:#330066;stroke-linecap:round;stroke-linejoin:round;}
</style>
<g id="Ebene_2_1_">
	<path class="st0" d="M43.2,30.8h500c2.8,0,5,2.2,5,5v244.4c0,2.8-2.2,5-5,5h-500c-2.8,0-5-2.2-5-5V35.8
		C38.2,33,40.4,30.8,43.2,30.8z"/>
	<path class="st1" d="M43.2,29.2h500c2.8,0,5,2.2,5,5v247.5c0,2.8-2.2,5-5,5h-500c-2.8,0-5-2.2-5-5V34.2
		C38.2,31.4,40.4,29.2,43.2,29.2z"/>
	<g class="st2">
		<path class="st3" d="M517.6,20.1l1-0.2v-8.4l-1.1-0.2V9.9h3.3v4.5c0.2-0.4,0.6-0.7,0.9-0.9c0.4-0.2,0.8-0.3,1.2-0.3
			c0.8,0,1.5,0.3,2,0.8c0.5,0.5,0.7,1.4,0.7,2.5v3.2l1,0.2v1.3h-4.1v-1.3l0.9-0.2v-3.2c0-0.6-0.1-1.1-0.3-1.3
			c-0.2-0.3-0.5-0.4-1-0.4c-0.3,0-0.6,0.1-0.8,0.2c-0.2,0.1-0.4,0.3-0.6,0.5v4.3l0.9,0.2v1.3h-4.1V20.1z"/>
	</g>
	<g class="st2">
		<path class="st3" d="M527.1,17.3c0-1.2,0.3-2.2,1-2.9c0.7-0.8,1.6-1.1,2.7-1.1c1.2,0,2.1,0.4,2.8,1.1c0.7,0.8,1,1.7,1,2.9v0.2
			c0,1.2-0.3,2.2-1,2.9c-0.7,0.8-1.6,1.1-2.7,1.1c-1.2,0-2.1-0.4-2.8-1.1c-0.7-0.7-1-1.7-1-2.9V17.3z M529.3,17.5
			c0,0.7,0.1,1.3,0.4,1.7c0.3,0.4,0.7,0.7,1.2,0.7c0.6,0,1-0.2,1.2-0.7c0.3-0.4,0.4-1,0.4-1.7v-0.2c0-0.7-0.1-1.3-0.4-1.7
			s-0.7-0.7-1.2-0.7s-1,0.2-1.2,0.7s-0.4,1-0.4,1.7V17.5z"/>
		<path class="st3" d="M542,16.2h-1.4l-0.2-1c-0.1-0.1-0.3-0.2-0.6-0.3c-0.2-0.1-0.5-0.1-0.7-0.1c-0.4,0-0.7,0.1-0.9,0.3
			c-0.2,0.2-0.3,0.4-0.3,0.6c0,0.2,0.1,0.4,0.3,0.6c0.2,0.2,0.6,0.3,1.3,0.4c1,0.2,1.7,0.5,2.2,0.9c0.5,0.4,0.7,0.9,0.7,1.6
			c0,0.7-0.3,1.3-0.9,1.7c-0.6,0.5-1.4,0.7-2.4,0.7c-0.6,0-1.2-0.1-1.7-0.3c-0.5-0.2-1-0.4-1.4-0.8l0-1.8h1.5l0.3,1
			c0.1,0.1,0.3,0.2,0.5,0.2c0.2,0.1,0.4,0.1,0.7,0.1c0.4,0,0.8-0.1,1-0.2c0.2-0.2,0.3-0.4,0.3-0.6c0-0.2-0.1-0.4-0.3-0.6
			c-0.2-0.2-0.7-0.3-1.3-0.5c-0.9-0.2-1.6-0.5-2.1-0.8c-0.5-0.4-0.7-0.9-0.7-1.5c0-0.7,0.3-1.2,0.8-1.7c0.5-0.5,1.3-0.7,2.3-0.7
			c0.6,0,1.2,0.1,1.7,0.2c0.5,0.2,1,0.4,1.3,0.6L542,16.2z"/>
		<path class="st3" d="M546.4,11.5v1.9h1.4v1.5h-1.4v4c0,0.3,0.1,0.5,0.2,0.7s0.3,0.2,0.5,0.2c0.1,0,0.3,0,0.4,0
			c0.1,0,0.2,0,0.4-0.1l0.2,1.5c-0.2,0.1-0.5,0.1-0.7,0.2c-0.2,0-0.5,0.1-0.8,0.1c-0.7,0-1.3-0.2-1.7-0.6c-0.4-0.4-0.6-1-0.6-1.9v-4
			h-1.2v-1.5h1.2v-1.9H546.4z"/>
	</g>
	<path class="st4" d="M502.5,19.9h-4.3c-0.6,0-0.8-0.2-0.8-0.8v-6.5c0-0.6,0.2-0.8,0.8-0.8h8.5c0.5,0,0.8,0.2,0.8,0.8v6.5
		c0,0.5-0.2,0.8-0.8,0.8C505.3,20,503.9,19.9,502.5,19.9z"/>
	<path class="st4" d="M501.1,3.7c1.6-0.7,3.5-0.5,4.9,0.7c1.7,1.6,1.9,4.2,0.3,5.9c-0.2,0.2-0.4,0.4-0.5,0.5c-0.3,0.3-0.6,0.4-1,0.7
		"/>
	<path class="st5" d="M501.8,17.1L501.8,17.1V18c0,0.2,0.1,0.2,0.3,0.2h0.8c0.2,0,0.3-0.1,0.3-0.3v-1.6c0-0.2,0.1-0.3,0.2-0.4
		c0.5-0.3,0.8-0.9,0.6-1.4c-0.2-0.6-0.8-1-1.5-1c-0.7-0.1-1.3,0.3-1.6,0.9c-0.3,0.6,0,1.3,0.5,1.6c0.2,0.1,0.3,0.3,0.3,0.5
		C501.8,16.7,501.8,16.9,501.8,17.1z"/>
	<g class="st2">
		<path class="st3" d="M199.7,242.5l0.6-0.1l2.6-7.4h1.8l2.6,7.4l0.6,0.1v1h-2.9v-1l0.6-0.1l-0.4-1.2h-2.8l-0.4,1.2l0.6,0.1v1h-2.9
			V242.5z M202.8,239.9h2l-1-3h0L202.8,239.9z"/>
	</g>
	<g class="st2">
		<path class="st3" d="M210.2,235.6v1.6h1.1v1.2h-1.1v3.2c0,0.2,0.1,0.4,0.2,0.5s0.2,0.2,0.4,0.2c0.1,0,0.2,0,0.3,0s0.2,0,0.3,0
			l0.1,1.2c-0.2,0.1-0.4,0.1-0.6,0.1s-0.4,0-0.6,0c-0.6,0-1-0.2-1.4-0.5s-0.5-0.8-0.5-1.5v-3.2h-0.9v-1.2h0.9v-1.6H210.2z"/>
		<path class="st3" d="M214.7,235.6v1.6h1.1v1.2h-1.1v3.2c0,0.2,0.1,0.4,0.2,0.5s0.2,0.2,0.4,0.2c0.1,0,0.2,0,0.3,0s0.2,0,0.3,0
			l0.1,1.2c-0.2,0.1-0.4,0.1-0.6,0.1s-0.4,0-0.6,0c-0.6,0-1-0.2-1.4-0.5s-0.5-0.8-0.5-1.5v-3.2h-0.9v-1.2h0.9v-1.6H214.7z"/>
		<path class="st3" d="M220.7,243.5c0-0.1-0.1-0.2-0.1-0.3s-0.1-0.2-0.1-0.3c-0.2,0.2-0.5,0.4-0.7,0.6s-0.6,0.2-1,0.2
			c-0.6,0-1.1-0.2-1.5-0.5s-0.5-0.8-0.5-1.4c0-0.6,0.2-1.1,0.7-1.4s1.2-0.5,2.1-0.5h0.9v-0.6c0-0.3-0.1-0.5-0.3-0.7
			s-0.4-0.3-0.8-0.3c-0.2,0-0.4,0-0.5,0.1s-0.3,0.1-0.4,0.2l-0.1,0.7h-1.3l0-1.4c0.3-0.2,0.7-0.4,1.1-0.5s0.8-0.2,1.3-0.2
			c0.8,0,1.4,0.2,1.9,0.6s0.7,0.9,0.7,1.6v2.6c0,0.1,0,0.2,0,0.3s0,0.2,0,0.2l0.5,0.1v1H220.7z M219.2,242.3c0.3,0,0.5-0.1,0.7-0.2
			s0.4-0.3,0.5-0.4v-1h-0.9c-0.4,0-0.6,0.1-0.8,0.3s-0.3,0.4-0.3,0.6c0,0.2,0.1,0.4,0.2,0.5S219,242.3,219.2,242.3z"/>
		<path class="st3" d="M226.2,242.3c0.3,0,0.5-0.1,0.7-0.3s0.3-0.4,0.3-0.7h1.5l0,0c0,0.6-0.2,1.2-0.7,1.6s-1.1,0.6-1.9,0.6
			c-0.9,0-1.7-0.3-2.2-0.9s-0.8-1.4-0.8-2.3v-0.2c0-0.9,0.3-1.7,0.8-2.3s1.3-0.9,2.2-0.9c0.5,0,1,0.1,1.4,0.2s0.7,0.4,1,0.6l0,1.7
			h-1.4l-0.3-1c-0.1-0.1-0.2-0.1-0.3-0.2s-0.3-0.1-0.4-0.1c-0.5,0-0.8,0.2-1,0.5s-0.3,0.8-0.3,1.4v0.2c0,0.6,0.1,1,0.3,1.4
			S225.8,242.3,226.2,242.3z"/>
	</g>
	<g class="st2">
		<path class="st3" d="M229.4,235.4v-1h2.6v5.3h0.4l1-1.4l-0.6-0.1v-1h3.1v1l-0.8,0.2l-1.1,1.6l1.6,2.4l0.7,0.1v1h-2.9v-1l0.4-0.1
			l-1-1.6H232v1.5l0.7,0.2v1h-3.3v-1l0.8-0.2v-6.7L229.4,235.4z"/>
	</g>
	<g class="st2">
		<path class="st3" d="M239.8,243.6c-0.9,0-1.6-0.3-2.2-0.9s-0.8-1.3-0.8-2.2v-0.2c0-0.9,0.3-1.7,0.8-2.3s1.2-0.9,2.1-0.9
			c0.9,0,1.5,0.3,2,0.8s0.7,1.2,0.7,2.1v0.9h-3.8l0,0c0,0.4,0.2,0.8,0.4,1s0.6,0.4,1,0.4c0.4,0,0.7,0,0.9-0.1s0.5-0.2,0.8-0.4
			l0.5,1.1c-0.3,0.2-0.6,0.4-1,0.5S240.3,243.6,239.8,243.6z M239.7,238.3c-0.3,0-0.6,0.1-0.8,0.4s-0.3,0.6-0.3,1l0,0h2.1v-0.2
			c0-0.4-0.1-0.7-0.3-0.9S240,238.3,239.7,238.3z"/>
		<path class="st3" d="M243.3,242.5l0.8-0.2v-3.9l-0.9-0.2v-1h2.5l0.1,0.9c0.1-0.3,0.3-0.6,0.6-0.8s0.5-0.3,0.8-0.3
			c0.1,0,0.2,0,0.3,0s0.2,0,0.2,0.1l-0.2,1.6l-0.7,0c-0.3,0-0.5,0-0.6,0.1s-0.3,0.2-0.4,0.4v3.1l0.8,0.2v1h-3.4V242.5z"/>
	</g>
	<g class="st2">
		<path class="st3" d="M188.5,254.4c0-1.5,0.3-2.9,0.9-3.9s1.3-1.8,2-2.2l0,0l0.2,0.7c-0.5,0.4-1,1.1-1.4,2s-0.6,2.1-0.6,3.4v0.1
			c0,1.4,0.2,2.5,0.6,3.4s0.9,1.6,1.4,2.1l-0.2,0.6h0c-0.7-0.4-1.3-1.1-2-2.2S188.5,256,188.5,254.4L188.5,254.4z"/>
	</g>
	<g class="st2">
		<path class="st3" d="M192.2,252.3v-0.7h2l0.1,0.9c0.2-0.3,0.4-0.6,0.7-0.8s0.6-0.3,0.9-0.3c0.1,0,0.2,0,0.3,0s0.2,0,0.2,0
			l-0.2,1.1l-0.7,0c-0.3,0-0.6,0.1-0.8,0.2s-0.4,0.3-0.5,0.6v3.6l1,0.2v0.7h-3.1v-0.7l1-0.2v-4.5L192.2,252.3z"/>
	</g>
	<g class="st2">
		<path class="st3" d="M197.1,254.7c0-0.9,0.3-1.7,0.8-2.3s1.2-0.9,2.1-0.9c0.9,0,1.6,0.3,2.1,0.9s0.8,1.4,0.8,2.3v0.1
			c0,0.9-0.3,1.7-0.8,2.3s-1.2,0.9-2.1,0.9c-0.9,0-1.6-0.3-2.1-0.9s-0.8-1.4-0.8-2.3V254.7z M198.2,254.8c0,0.7,0.1,1.2,0.4,1.7
			s0.7,0.7,1.3,0.7c0.5,0,1-0.2,1.2-0.7s0.4-1,0.4-1.7v-0.1c0-0.7-0.1-1.2-0.4-1.7s-0.7-0.7-1.3-0.7s-1,0.2-1.3,0.7s-0.4,1-0.4,1.7
			V254.8z"/>
		<path class="st3" d="M203.8,254.7c0-0.9,0.3-1.7,0.8-2.3s1.2-0.9,2.1-0.9c0.9,0,1.6,0.3,2.1,0.9s0.8,1.4,0.8,2.3v0.1
			c0,0.9-0.3,1.7-0.8,2.3s-1.2,0.9-2.1,0.9c-0.9,0-1.6-0.3-2.1-0.9s-0.8-1.4-0.8-2.3V254.7z M205,254.8c0,0.7,0.1,1.2,0.4,1.7
			s0.7,0.7,1.3,0.7c0.5,0,1-0.2,1.2-0.7s0.4-1,0.4-1.7v-0.1c0-0.7-0.1-1.2-0.4-1.7s-0.7-0.7-1.3-0.7s-1,0.2-1.3,0.7s-0.4,1-0.4,1.7
			V254.8z"/>
		<path class="st3" d="M212.6,250v1.5h1.2v0.9h-1.2v3.8c0,0.3,0.1,0.5,0.2,0.6s0.3,0.2,0.5,0.2c0.1,0,0.2,0,0.3,0s0.2,0,0.3-0.1
			l0.2,0.8c-0.1,0.1-0.3,0.1-0.5,0.2s-0.4,0.1-0.6,0.1c-0.5,0-0.8-0.1-1.1-0.4s-0.4-0.7-0.4-1.3v-3.8h-1v-0.9h1V250H212.6z"/>
		<path class="st3" d="M222,257.9c0-0.2-0.1-0.3-0.1-0.5s0-0.3,0-0.4c-0.2,0.3-0.5,0.5-0.8,0.7s-0.7,0.3-1.1,0.3
			c-0.7,0-1.2-0.2-1.5-0.5s-0.5-0.8-0.5-1.4c0-0.6,0.2-1.1,0.7-1.4s1.2-0.5,2-0.5h1.2v-0.7c0-0.4-0.1-0.7-0.4-0.9s-0.6-0.3-1-0.3
			c-0.3,0-0.5,0-0.8,0.1s-0.4,0.2-0.5,0.3l-0.1,0.7h-0.9v-1.2c0.3-0.2,0.6-0.4,1-0.6s0.9-0.2,1.3-0.2c0.7,0,1.3,0.2,1.7,0.6
			s0.7,0.9,0.7,1.6v3.1c0,0.1,0,0.2,0,0.2s0,0.2,0,0.2l0.5,0.1v0.7H222z M220.2,257c0.4,0,0.7-0.1,1-0.3s0.5-0.4,0.7-0.7v-1h-1.2
			c-0.5,0-0.8,0.1-1.1,0.3s-0.4,0.5-0.4,0.8c0,0.3,0.1,0.5,0.3,0.6S219.8,257,220.2,257z"/>
		<path class="st3" d="M227.4,257.1c0.4,0,0.7-0.1,1-0.4s0.4-0.5,0.4-0.9h1l0,0c0,0.5-0.2,1-0.7,1.5s-1.1,0.6-1.8,0.6
			c-0.9,0-1.6-0.3-2.1-0.9s-0.7-1.4-0.7-2.3v-0.2c0-0.9,0.2-1.7,0.7-2.3s1.2-0.9,2.1-0.9c0.5,0,1,0.1,1.4,0.3s0.7,0.4,1,0.7l0.1,1.4
			h-0.9l-0.3-1c-0.1-0.1-0.3-0.2-0.5-0.3s-0.5-0.1-0.7-0.1c-0.6,0-1,0.2-1.3,0.7s-0.4,1-0.4,1.6v0.2c0,0.6,0.1,1.2,0.4,1.6
			S226.8,257.1,227.4,257.1z"/>
		<path class="st3" d="M233.8,257.1c0.4,0,0.7-0.1,1-0.4s0.4-0.5,0.4-0.9h1l0,0c0,0.5-0.2,1-0.7,1.5s-1.1,0.6-1.8,0.6
			c-0.9,0-1.6-0.3-2.1-0.9s-0.7-1.4-0.7-2.3v-0.2c0-0.9,0.2-1.7,0.7-2.3s1.2-0.9,2.1-0.9c0.5,0,1,0.1,1.4,0.3s0.7,0.4,1,0.7l0.1,1.4
			h-0.9l-0.3-1c-0.1-0.1-0.3-0.2-0.5-0.3s-0.5-0.1-0.7-0.1c-0.6,0-1,0.2-1.3,0.7s-0.4,1-0.4,1.6v0.2c0,0.6,0.1,1.2,0.4,1.6
			S233.2,257.1,233.8,257.1z"/>
		<path class="st3" d="M240.4,258c-0.9,0-1.6-0.3-2.1-0.9s-0.8-1.4-0.8-2.3v-0.3c0-0.9,0.3-1.7,0.8-2.3s1.2-0.9,1.9-0.9
			c0.9,0,1.5,0.3,1.9,0.8s0.7,1.2,0.7,2.1v0.7h-4.1l0,0c0,0.6,0.2,1.1,0.5,1.5s0.7,0.6,1.2,0.6c0.4,0,0.7-0.1,1-0.2s0.5-0.3,0.8-0.5
			l0.5,0.8c-0.2,0.2-0.5,0.4-0.9,0.6S240.9,258,240.4,258z M240.2,252.3c-0.4,0-0.7,0.2-1,0.5s-0.4,0.7-0.5,1.2l0,0h2.9v-0.2
			c0-0.5-0.1-0.8-0.4-1.1S240.7,252.3,240.2,252.3z"/>
		<path class="st3" d="M248.8,253.5h-0.9l-0.2-0.8c-0.1-0.1-0.3-0.2-0.5-0.3s-0.5-0.1-0.7-0.1c-0.4,0-0.7,0.1-0.9,0.3
			s-0.3,0.4-0.3,0.7c0,0.3,0.1,0.4,0.3,0.6s0.5,0.3,1.1,0.4c0.8,0.2,1.4,0.4,1.8,0.7s0.6,0.7,0.6,1.2c0,0.6-0.2,1-0.7,1.4
			s-1,0.5-1.8,0.5c-0.5,0-0.9-0.1-1.3-0.2s-0.7-0.3-1-0.5l0-1.4h0.9l0.2,0.8c0.1,0.1,0.3,0.2,0.5,0.3s0.5,0.1,0.7,0.1
			c0.4,0,0.7-0.1,1-0.2s0.3-0.4,0.3-0.7c0-0.3-0.1-0.5-0.3-0.6s-0.6-0.3-1.1-0.4c-0.8-0.2-1.3-0.4-1.7-0.7s-0.6-0.7-0.6-1.2
			c0-0.5,0.2-1,0.7-1.3s1-0.5,1.7-0.5c0.5,0,0.9,0.1,1.3,0.2s0.7,0.3,1,0.5L248.8,253.5z"/>
		<path class="st3" d="M254.9,253.5H254l-0.2-0.8c-0.1-0.1-0.3-0.2-0.5-0.3s-0.5-0.1-0.7-0.1c-0.4,0-0.7,0.1-0.9,0.3
			s-0.3,0.4-0.3,0.7c0,0.3,0.1,0.4,0.3,0.6s0.5,0.3,1.1,0.4c0.8,0.2,1.4,0.4,1.8,0.7s0.6,0.7,0.6,1.2c0,0.6-0.2,1-0.7,1.4
			s-1,0.5-1.8,0.5c-0.5,0-0.9-0.1-1.3-0.2s-0.7-0.3-1-0.5l0-1.4h0.9l0.2,0.8c0.1,0.1,0.3,0.2,0.5,0.3s0.5,0.1,0.7,0.1
			c0.4,0,0.7-0.1,1-0.2s0.3-0.4,0.3-0.7c0-0.3-0.1-0.5-0.3-0.6s-0.6-0.3-1.1-0.4c-0.8-0.2-1.3-0.4-1.7-0.7s-0.6-0.7-0.6-1.2
			c0-0.5,0.2-1,0.7-1.3s1-0.5,1.7-0.5c0.5,0,0.9,0.1,1.3,0.2s0.7,0.3,1,0.5L254.9,253.5z"/>
		<path class="st3" d="M258.8,254.5c0,1.5-0.3,2.9-0.9,3.9s-1.3,1.8-2,2.2h0l-0.2-0.6c0.5-0.4,1-1.1,1.4-2s0.6-2.1,0.6-3.5v-0.1
			c0-1.3-0.2-2.5-0.6-3.4s-0.9-1.6-1.4-2.1l0.2-0.6h0c0.7,0.4,1.3,1.1,2,2.2S258.8,252.9,258.8,254.5L258.8,254.5z"/>
	</g>
	<g class="st2">
		<path class="st3" d="M247.8,210.2l0.8-0.2v-3.9l-0.9-0.2v-1h2.6v5.1l0.8,0.2v1h-3.4V210.2z M250.4,203.3h-1.7V202h1.7V203.3z"/>
		<path class="st3" d="M251.6,203.1v-1h2.6v7.9l0.8,0.2v1h-3.4v-1l0.8-0.2v-6.7L251.6,203.1z"/>
		<path class="st3" d="M255.4,203.1v-1h2.6v7.9l0.8,0.2v1h-3.4v-1l0.8-0.2v-6.7L255.4,203.1z"/>
		<path class="st3" d="M262.4,211.3c-0.9,0-1.6-0.3-2.2-0.9s-0.8-1.3-0.8-2.2V208c0-0.9,0.3-1.7,0.8-2.3s1.2-0.9,2.1-0.9
			c0.9,0,1.5,0.3,2,0.8s0.7,1.2,0.7,2.1v0.9h-3.8l0,0c0,0.4,0.2,0.8,0.4,1s0.6,0.4,1,0.4c0.4,0,0.7,0,0.9-0.1s0.5-0.2,0.8-0.4
			l0.5,1.1c-0.3,0.2-0.6,0.4-1,0.5S262.9,211.3,262.4,211.3z M262.3,206.1c-0.3,0-0.6,0.1-0.8,0.4s-0.3,0.6-0.3,1l0,0h2.1v-0.2
			c0-0.4-0.1-0.7-0.3-0.9S262.6,206.1,262.3,206.1z"/>
		<path class="st3" d="M265.9,208.1c0-1,0.2-1.8,0.7-2.4s1-0.9,1.8-0.9c0.4,0,0.7,0.1,0.9,0.2s0.5,0.4,0.7,0.7l0.1-0.8h1.5v6.2
			c0,0.8-0.3,1.5-0.8,2s-1.2,0.7-2.2,0.7c-0.3,0-0.7,0-1-0.1s-0.7-0.2-1-0.4l0.3-1.2c0.3,0.1,0.5,0.2,0.8,0.3s0.6,0.1,0.9,0.1
			c0.4,0,0.7-0.1,0.9-0.4s0.3-0.6,0.3-1.1v-0.4c-0.2,0.2-0.4,0.4-0.7,0.5s-0.5,0.2-0.9,0.2c-0.8,0-1.4-0.3-1.8-0.9s-0.7-1.3-0.7-2.3
			V208.1z M267.6,208.2c0,0.6,0.1,1,0.3,1.3s0.5,0.5,0.9,0.5c0.3,0,0.5,0,0.7-0.1s0.3-0.2,0.4-0.4v-2.8c-0.1-0.2-0.3-0.3-0.4-0.4
			s-0.4-0.2-0.7-0.2c-0.4,0-0.7,0.2-0.9,0.6s-0.3,0.9-0.3,1.5V208.2z"/>
		<path class="st3" d="M276.7,211.2c0-0.1-0.1-0.2-0.1-0.3s-0.1-0.2-0.1-0.3c-0.2,0.2-0.5,0.4-0.7,0.6s-0.6,0.2-1,0.2
			c-0.6,0-1.1-0.2-1.5-0.5s-0.5-0.8-0.5-1.4c0-0.6,0.2-1.1,0.7-1.4s1.2-0.5,2.1-0.5h0.9v-0.6c0-0.3-0.1-0.5-0.3-0.7
			s-0.4-0.3-0.8-0.3c-0.2,0-0.4,0-0.5,0.1s-0.3,0.1-0.4,0.2l-0.1,0.7h-1.3l0-1.4c0.3-0.2,0.7-0.4,1.1-0.5s0.8-0.2,1.3-0.2
			c0.8,0,1.4,0.2,1.9,0.6s0.7,0.9,0.7,1.6v2.6c0,0.1,0,0.2,0,0.3s0,0.2,0,0.2l0.5,0.1v1H276.7z M275.2,210c0.3,0,0.5-0.1,0.7-0.2
			s0.4-0.3,0.5-0.4v-1h-0.9c-0.4,0-0.6,0.1-0.8,0.3s-0.3,0.4-0.3,0.6c0,0.2,0.1,0.4,0.2,0.5S275,210,275.2,210z"/>
		<path class="st3" d="M279.1,203.1v-1h2.6v7.9l0.8,0.2v1h-3.4v-1l0.8-0.2v-6.7L279.1,203.1z"/>
		<path class="st3" d="M290,211.2c0-0.1-0.1-0.2-0.1-0.3s-0.1-0.2-0.1-0.3c-0.2,0.2-0.5,0.4-0.7,0.6s-0.6,0.2-1,0.2
			c-0.6,0-1.1-0.2-1.5-0.5s-0.5-0.8-0.5-1.4c0-0.6,0.2-1.1,0.7-1.4s1.2-0.5,2.1-0.5h0.9v-0.6c0-0.3-0.1-0.5-0.3-0.7
			s-0.4-0.3-0.8-0.3c-0.2,0-0.4,0-0.5,0.1s-0.3,0.1-0.4,0.2l-0.1,0.7h-1.3l0-1.4c0.3-0.2,0.7-0.4,1.1-0.5s0.8-0.2,1.3-0.2
			c0.8,0,1.4,0.2,1.9,0.6s0.7,0.9,0.7,1.6v2.6c0,0.1,0,0.2,0,0.3s0,0.2,0,0.2l0.5,0.1v1H290z M288.6,210c0.3,0,0.5-0.1,0.7-0.2
			s0.4-0.3,0.5-0.4v-1h-0.9c-0.4,0-0.6,0.1-0.8,0.3s-0.3,0.4-0.3,0.6c0,0.2,0.1,0.4,0.2,0.5S288.3,210,288.6,210z"/>
		<path class="st3" d="M295.6,210c0.3,0,0.5-0.1,0.7-0.3s0.3-0.4,0.3-0.7h1.5l0,0c0,0.6-0.2,1.2-0.7,1.6s-1.1,0.6-1.9,0.6
			c-0.9,0-1.7-0.3-2.2-0.9s-0.8-1.4-0.8-2.3v-0.2c0-0.9,0.3-1.7,0.8-2.3s1.3-0.9,2.2-0.9c0.5,0,1,0.1,1.4,0.2s0.7,0.4,1,0.6l0,1.7
			h-1.4l-0.3-1c-0.1-0.1-0.2-0.1-0.3-0.2s-0.3-0.1-0.4-0.1c-0.5,0-0.8,0.2-1,0.5s-0.3,0.8-0.3,1.4v0.2c0,0.6,0.1,1,0.3,1.4
			S295.1,210,295.6,210z"/>
		<path class="st3" d="M301.9,210c0.3,0,0.5-0.1,0.7-0.3s0.3-0.4,0.3-0.7h1.5l0,0c0,0.6-0.2,1.2-0.7,1.6s-1.1,0.6-1.9,0.6
			c-0.9,0-1.7-0.3-2.2-0.9s-0.8-1.4-0.8-2.3v-0.2c0-0.9,0.3-1.7,0.8-2.3s1.3-0.9,2.2-0.9c0.5,0,1,0.1,1.4,0.2s0.7,0.4,1,0.6l0,1.7
			H303l-0.3-1c-0.1-0.1-0.2-0.1-0.3-0.2s-0.3-0.1-0.4-0.1c-0.5,0-0.8,0.2-1,0.5s-0.3,0.8-0.3,1.4v0.2c0,0.6,0.1,1,0.3,1.4
			S301.4,210,301.9,210z"/>
		<path class="st3" d="M308.3,211.3c-0.9,0-1.6-0.3-2.2-0.9s-0.8-1.3-0.8-2.2V208c0-0.9,0.3-1.7,0.8-2.3s1.2-0.9,2.1-0.9
			c0.9,0,1.5,0.3,2,0.8s0.7,1.2,0.7,2.1v0.9H307l0,0c0,0.4,0.2,0.8,0.4,1s0.6,0.4,1,0.4c0.4,0,0.7,0,0.9-0.1s0.5-0.2,0.8-0.4
			l0.5,1.1c-0.3,0.2-0.6,0.4-1,0.5S308.8,211.3,308.3,211.3z M308.1,206.1c-0.3,0-0.6,0.1-0.8,0.4s-0.3,0.6-0.3,1l0,0h2.1v-0.2
			c0-0.4-0.1-0.7-0.3-0.9S308.5,206.1,308.1,206.1z"/>
		<path class="st3" d="M316.8,207h-1.1l-0.2-0.8c-0.1-0.1-0.3-0.2-0.4-0.2s-0.4-0.1-0.6-0.1c-0.3,0-0.5,0.1-0.7,0.2
			s-0.3,0.3-0.3,0.5c0,0.2,0.1,0.4,0.3,0.5s0.5,0.2,1,0.3c0.8,0.2,1.4,0.4,1.7,0.7s0.6,0.7,0.6,1.3c0,0.6-0.2,1-0.7,1.4
			s-1.1,0.5-1.9,0.5c-0.5,0-0.9-0.1-1.3-0.2s-0.8-0.3-1.1-0.6l0-1.4h1.2l0.2,0.8c0.1,0.1,0.2,0.1,0.4,0.2s0.4,0.1,0.6,0.1
			c0.3,0,0.6-0.1,0.8-0.2s0.3-0.3,0.3-0.5c0-0.2-0.1-0.3-0.3-0.5s-0.5-0.3-1-0.4c-0.7-0.2-1.3-0.4-1.7-0.7s-0.6-0.7-0.6-1.2
			c0-0.5,0.2-1,0.7-1.4s1.1-0.6,1.9-0.6c0.5,0,1,0.1,1.4,0.2s0.8,0.3,1,0.5L316.8,207z"/>
		<path class="st3" d="M323,207h-1.1l-0.2-0.8c-0.1-0.1-0.3-0.2-0.4-0.2s-0.4-0.1-0.6-0.1c-0.3,0-0.5,0.1-0.7,0.2s-0.3,0.3-0.3,0.5
			c0,0.2,0.1,0.4,0.3,0.5s0.5,0.2,1,0.3c0.8,0.2,1.4,0.4,1.7,0.7s0.6,0.7,0.6,1.3c0,0.6-0.2,1-0.7,1.4s-1.1,0.5-1.9,0.5
			c-0.5,0-0.9-0.1-1.3-0.2s-0.8-0.3-1.1-0.6l0-1.4h1.2l0.2,0.8c0.1,0.1,0.2,0.1,0.4,0.2s0.4,0.1,0.6,0.1c0.3,0,0.6-0.1,0.8-0.2
			s0.3-0.3,0.3-0.5c0-0.2-0.1-0.3-0.3-0.5s-0.5-0.3-1-0.4c-0.7-0.2-1.3-0.4-1.7-0.7s-0.6-0.7-0.6-1.2c0-0.5,0.2-1,0.7-1.4
			s1.1-0.6,1.9-0.6c0.5,0,1,0.1,1.4,0.2s0.8,0.3,1,0.5L323,207z"/>
	</g>
	<path class="st6" d="M71.6,54.3h156c2.8,0,5,2.2,5,5v64.3c0,2.8-2.2,5-5,5h-156c-2.8,0-5-2.2-5-5V59.3
		C66.6,56.6,68.8,54.3,71.6,54.3z"/>
	<g class="st2">
		<path class="st7" d="M127.6,90.7h-1.3l-0.2-1.1c-0.2-0.2-0.4-0.3-0.6-0.4S125,89,124.6,89c-0.7,0-1.3,0.3-1.7,0.8
			s-0.6,1.2-0.6,2.1v0.3c0,0.9,0.2,1.6,0.6,2.1s1,0.8,1.7,0.8c0.3,0,0.6,0,0.9-0.1s0.5-0.2,0.6-0.4l0.2-1.1h1.3v1.7
			c-0.3,0.4-0.8,0.7-1.3,1s-1.1,0.4-1.8,0.4c-1.1,0-2.1-0.4-2.8-1.2s-1.1-1.8-1.1-3.1v-0.3c0-1.2,0.4-2.3,1.1-3.1s1.7-1.2,2.8-1.2
			c0.7,0,1.3,0.1,1.8,0.4s1,0.6,1.3,1V90.7z"/>
		<path class="st7" d="M128.5,93.1c0-0.9,0.3-1.7,0.8-2.3s1.3-0.9,2.2-0.9c0.9,0,1.7,0.3,2.2,0.9s0.8,1.4,0.8,2.3v0.1
			c0,1-0.3,1.7-0.8,2.3s-1.3,0.9-2.2,0.9c-0.9,0-1.7-0.3-2.2-0.9s-0.8-1.4-0.8-2.3V93.1z M130.2,93.2c0,0.6,0.1,1,0.3,1.4
			s0.5,0.5,1,0.5c0.4,0,0.8-0.2,1-0.5s0.3-0.8,0.3-1.4v-0.1c0-0.6-0.1-1-0.3-1.4s-0.5-0.5-1-0.5s-0.8,0.2-1,0.5s-0.3,0.8-0.3,1.4
			V93.2z"/>
		<path class="st7" d="M135.1,95.3l0.8-0.2v-3.9L135,91v-1h2.5l0.1,0.9c0.2-0.3,0.5-0.6,0.8-0.8s0.7-0.3,1-0.3
			c0.6,0,1.1,0.2,1.5,0.6s0.5,1,0.5,1.9v2.8l0.8,0.2v1H139v-1l0.7-0.2v-2.8c0-0.4-0.1-0.7-0.3-0.9s-0.4-0.3-0.8-0.3
			c-0.2,0-0.4,0-0.6,0.1s-0.3,0.2-0.5,0.4v3.4l0.7,0.2v1h-3.2V95.3z"/>
		<path class="st7" d="M145.3,88.4V90h1.1v1.2h-1.1v3.2c0,0.2,0.1,0.4,0.2,0.5s0.2,0.2,0.4,0.2c0.1,0,0.2,0,0.3,0s0.2,0,0.3,0
			l0.1,1.2c-0.2,0.1-0.4,0.1-0.6,0.1s-0.4,0-0.6,0c-0.6,0-1-0.2-1.4-0.5s-0.5-0.8-0.5-1.5v-3.2h-0.9V90h0.9v-1.6H145.3z"/>
		<path class="st7" d="M151.3,96.3c0-0.1-0.1-0.2-0.1-0.3s-0.1-0.2-0.1-0.3c-0.2,0.2-0.5,0.4-0.7,0.6s-0.6,0.2-1,0.2
			c-0.6,0-1.1-0.2-1.5-0.5s-0.5-0.8-0.5-1.4c0-0.6,0.2-1.1,0.7-1.4s1.2-0.5,2.1-0.5h0.9v-0.6c0-0.3-0.1-0.5-0.3-0.7
			s-0.4-0.3-0.8-0.3c-0.2,0-0.4,0-0.5,0.1s-0.3,0.1-0.4,0.2L149,92h-1.3l0-1.4c0.3-0.2,0.7-0.4,1.1-0.5s0.8-0.2,1.3-0.2
			c0.8,0,1.4,0.2,1.9,0.6s0.7,0.9,0.7,1.6v2.6c0,0.1,0,0.2,0,0.3s0,0.2,0,0.2l0.5,0.1v1H151.3z M149.8,95.2c0.3,0,0.5-0.1,0.7-0.2
			s0.4-0.3,0.5-0.4v-1h-0.9c-0.4,0-0.6,0.1-0.8,0.3s-0.3,0.4-0.3,0.6c0,0.2,0.1,0.4,0.2,0.5S149.6,95.2,149.8,95.2z"/>
		<path class="st7" d="M153.8,95.3l0.8-0.2v-3.9l-0.9-0.2v-1h2.6v5.1l0.8,0.2v1h-3.4V95.3z M156.4,88.5h-1.7v-1.3h1.7V88.5z"/>
	</g>
	<g class="st2">
		<path class="st7" d="M157.6,95.3l0.8-0.2v-3.9l-0.9-0.2v-1h2.5l0.1,0.9c0.2-0.3,0.5-0.6,0.8-0.8s0.7-0.3,1-0.3
			c0.6,0,1.1,0.2,1.5,0.6s0.5,1,0.5,1.9v2.8l0.8,0.2v1h-3.3v-1l0.7-0.2v-2.8c0-0.4-0.1-0.7-0.3-0.9s-0.4-0.3-0.8-0.3
			c-0.2,0-0.4,0-0.6,0.1s-0.3,0.2-0.5,0.4v3.4l0.7,0.2v1h-3.2V95.3z"/>
	</g>
	<g class="st2">
		<path class="st7" d="M168.3,96.5c-0.9,0-1.6-0.3-2.2-0.9s-0.8-1.3-0.8-2.2v-0.2c0-0.9,0.3-1.7,0.8-2.3s1.2-0.9,2.1-0.9
			c0.9,0,1.5,0.3,2,0.8s0.7,1.2,0.7,2.1v0.9h-3.8l0,0c0,0.4,0.2,0.8,0.4,1s0.6,0.4,1,0.4c0.4,0,0.7,0,0.9-0.1s0.5-0.2,0.8-0.4
			l0.5,1.1c-0.3,0.2-0.6,0.4-1,0.5S168.8,96.5,168.3,96.5z M168.2,91.2c-0.3,0-0.6,0.1-0.8,0.4s-0.3,0.6-0.3,1l0,0h2.1v-0.2
			c0-0.4-0.1-0.7-0.3-0.9S168.5,91.2,168.2,91.2z"/>
		<path class="st7" d="M171.8,95.3l0.8-0.2v-3.9l-0.9-0.2v-1h2.5l0.1,0.9c0.1-0.3,0.3-0.6,0.6-0.8s0.5-0.3,0.8-0.3
			c0.1,0,0.2,0,0.3,0s0.2,0,0.2,0l-0.2,1.6l-0.7,0c-0.3,0-0.5,0-0.6,0.1s-0.3,0.2-0.4,0.4v3.1l0.8,0.2v1h-3.4V95.3z"/>
	</g>
	<path class="st8" d="M358.6,54.3h158.4c2.8,0,5,2.2,5,5v64.3c0,2.8-2.2,5-5,5H358.6c-2.8,0-5-2.2-5-5V59.3
		C353.6,56.6,355.9,54.3,358.6,54.3z"/>
	<g class="st2">
		<path class="st3" d="M406.3,86.5l0.6-0.1l2.6-7.4h1.8l2.6,7.4l0.6,0.1v1h-2.9v-1l0.6-0.1l-0.4-1.2H409l-0.4,1.2l0.6,0.1v1h-2.9
			V86.5z M409.4,83.9h2l-1-3h0L409.4,83.9z"/>
		<path class="st3" d="M414.9,82.2v-1h2.5l0.1,0.7c0.2-0.3,0.4-0.5,0.7-0.6s0.6-0.2,0.9-0.2c0.8,0,1.4,0.3,1.8,0.9s0.7,1.4,0.7,2.4
			v0.1c0,0.9-0.2,1.7-0.7,2.3s-1,0.9-1.8,0.9c-0.3,0-0.6-0.1-0.9-0.2s-0.5-0.3-0.7-0.5v1.8l0.8,0.2v1H415v-1l0.8-0.2v-6.4
			L414.9,82.2z M419.8,84.4c0-0.6-0.1-1.1-0.3-1.5s-0.5-0.6-0.9-0.6c-0.3,0-0.5,0.1-0.7,0.2s-0.3,0.3-0.4,0.5v2.8
			c0.1,0.2,0.2,0.3,0.4,0.4s0.4,0.1,0.7,0.1c0.4,0,0.7-0.2,0.9-0.5s0.3-0.8,0.3-1.3V84.4z"/>
	</g>
	<g class="st2">
		<path class="st3" d="M422.2,82.2v-1h2.5l0.1,0.7c0.2-0.3,0.4-0.5,0.7-0.6s0.6-0.2,0.9-0.2c0.8,0,1.4,0.3,1.8,0.9s0.7,1.4,0.7,2.4
			v0.1c0,0.9-0.2,1.7-0.7,2.3s-1,0.9-1.8,0.9c-0.3,0-0.6-0.1-0.9-0.2s-0.5-0.3-0.7-0.5v1.8l0.8,0.2v1h-3.4v-1l0.8-0.2v-6.4
			L422.2,82.2z M427.1,84.4c0-0.6-0.1-1.1-0.3-1.5s-0.5-0.6-0.9-0.6c-0.3,0-0.5,0.1-0.7,0.2s-0.3,0.3-0.4,0.5v2.8
			c0.1,0.2,0.2,0.3,0.4,0.4s0.4,0.1,0.7,0.1c0.4,0,0.7-0.2,0.9-0.5s0.3-0.8,0.3-1.3V84.4z"/>
	</g>
	<g class="st2">
		<path class="st3" d="M429.3,79.4v-1h2.6v7.9l0.8,0.2v1h-3.4v-1l0.8-0.2v-6.7L429.3,79.4z"/>
		<path class="st3" d="M433.2,86.5l0.8-0.2v-3.9l-0.9-0.2v-1h2.6v5.1l0.8,0.2v1h-3.4V86.5z M435.8,79.6H434v-1.3h1.7V79.6z"/>
		<path class="st3" d="M440.1,86.3c0.3,0,0.5-0.1,0.7-0.3s0.3-0.4,0.3-0.7h1.5l0,0c0,0.6-0.2,1.2-0.7,1.6s-1.1,0.6-1.9,0.6
			c-0.9,0-1.7-0.3-2.2-0.9s-0.8-1.4-0.8-2.3v-0.2c0-0.9,0.3-1.7,0.8-2.3s1.3-0.9,2.2-0.9c0.5,0,1,0.1,1.4,0.2s0.7,0.4,1,0.6l0,1.7
			h-1.4l-0.3-1c-0.1-0.1-0.2-0.1-0.3-0.2s-0.3-0.1-0.4-0.1c-0.5,0-0.8,0.2-1,0.5s-0.3,0.8-0.3,1.4v0.2c0,0.6,0.1,1,0.3,1.4
			S439.7,86.3,440.1,86.3z"/>
	</g>
	<g class="st2">
		<path class="st3" d="M447.5,87.5c0-0.1-0.1-0.2-0.1-0.3s-0.1-0.2-0.1-0.3c-0.2,0.2-0.5,0.4-0.7,0.6s-0.6,0.2-1,0.2
			c-0.6,0-1.1-0.2-1.5-0.5s-0.5-0.8-0.5-1.4c0-0.6,0.2-1.1,0.7-1.4s1.2-0.5,2.1-0.5h0.9v-0.6c0-0.3-0.1-0.5-0.3-0.7
			s-0.4-0.3-0.8-0.3c-0.2,0-0.4,0-0.5,0.1s-0.3,0.1-0.4,0.2l-0.1,0.7h-1.3l0-1.4c0.3-0.2,0.7-0.4,1.1-0.5s0.8-0.2,1.3-0.2
			c0.8,0,1.4,0.2,1.9,0.6s0.7,0.9,0.7,1.6v2.6c0,0.1,0,0.2,0,0.3s0,0.2,0,0.2l0.5,0.1v1H447.5z M446,86.4c0.3,0,0.5-0.1,0.7-0.2
			s0.4-0.3,0.5-0.4v-1h-0.9c-0.4,0-0.6,0.1-0.8,0.3s-0.3,0.4-0.3,0.6c0,0.2,0.1,0.4,0.2,0.5S445.8,86.4,446,86.4z"/>
	</g>
	<g class="st2">
		<path class="st3" d="M452.1,79.6v1.6h1.1v1.2h-1.1v3.2c0,0.2,0.1,0.4,0.2,0.5s0.2,0.2,0.4,0.2c0.1,0,0.2,0,0.3,0s0.2,0,0.3,0
			l0.1,1.2c-0.2,0.1-0.4,0.1-0.6,0.1s-0.4,0-0.6,0c-0.6,0-1-0.2-1.4-0.5s-0.5-0.8-0.5-1.5v-3.2h-0.9v-1.2h0.9v-1.6H452.1z"/>
		<path class="st3" d="M454,86.5l0.8-0.2v-3.9l-0.9-0.2v-1h2.6v5.1l0.8,0.2v1H454V86.5z M456.5,79.6h-1.7v-1.3h1.7V79.6z"/>
		<path class="st3" d="M457.9,84.3c0-0.9,0.3-1.7,0.8-2.3s1.3-0.9,2.2-0.9c0.9,0,1.7,0.3,2.2,0.9s0.8,1.4,0.8,2.3v0.1
			c0,1-0.3,1.7-0.8,2.3s-1.3,0.9-2.2,0.9c-0.9,0-1.7-0.3-2.2-0.9s-0.8-1.4-0.8-2.3V84.3z M459.6,84.4c0,0.6,0.1,1,0.3,1.4
			s0.5,0.5,1,0.5c0.4,0,0.8-0.2,1-0.5s0.3-0.8,0.3-1.4v-0.1c0-0.6-0.1-1-0.3-1.4s-0.5-0.5-1-0.5s-0.8,0.2-1,0.5s-0.3,0.8-0.3,1.4
			V84.4z"/>
		<path class="st3" d="M464.6,86.5l0.8-0.2v-3.9l-0.9-0.2v-1h2.5l0.1,0.9c0.2-0.3,0.5-0.6,0.8-0.8s0.7-0.3,1-0.3
			c0.6,0,1.1,0.2,1.5,0.6s0.5,1,0.5,1.9v2.8l0.8,0.2v1h-3.3v-1l0.7-0.2v-2.8c0-0.4-0.1-0.7-0.3-0.9s-0.4-0.3-0.8-0.3
			c-0.2,0-0.4,0-0.6,0.1s-0.3,0.2-0.5,0.4v3.4l0.7,0.2v1h-3.2V86.5z"/>
	</g>
	<g class="st2">
		<path class="st3" d="M400.8,98.1v-0.7h2.1v5.3h0.7l1.4-1.7l-0.6-0.1v-0.7h2.7v0.7l-0.8,0.2l-1.7,2l2,2.6l0.7,0.1v0.7h-2.6v-0.7
			l0.6-0.1l-1.7-2.1h-0.8v2l1,0.2v0.7h-3.1v-0.7l1-0.2v-7.3L400.8,98.1z"/>
	</g>
	<g class="st2">
		<path class="st3" d="M411,106.6c-0.9,0-1.6-0.3-2.1-0.9s-0.8-1.4-0.8-2.3v-0.3c0-0.9,0.3-1.7,0.8-2.3s1.2-0.9,1.9-0.9
			c0.9,0,1.5,0.3,1.9,0.8s0.7,1.2,0.7,2.1v0.7h-4.1l0,0c0,0.6,0.2,1.1,0.5,1.5s0.7,0.6,1.2,0.6c0.4,0,0.7-0.1,1-0.2s0.5-0.3,0.8-0.5
			l0.5,0.8c-0.2,0.2-0.5,0.4-0.9,0.6S411.5,106.6,411,106.6z M410.8,101c-0.4,0-0.7,0.2-1,0.5s-0.4,0.7-0.5,1.2l0,0h2.9v-0.2
			c0-0.5-0.1-0.8-0.4-1.1S411.3,101,410.8,101z"/>
	</g>
	<g class="st2">
		<path class="st3" d="M420.5,100.9l-0.6,0.1l-2.4,6.5c-0.2,0.4-0.4,0.8-0.7,1.1s-0.7,0.5-1.2,0.5c-0.1,0-0.2,0-0.4,0
			s-0.3,0-0.3-0.1l0.1-0.9c0,0,0,0,0.2,0s0.3,0,0.3,0c0.2,0,0.4-0.1,0.6-0.3s0.3-0.5,0.4-0.7l0.3-0.7l-2.1-5.4l-0.6-0.1v-0.7h2.6
			v0.7L416,101l1.1,3.1l0.2,0.8h0l1.3-3.9l-0.7-0.1v-0.7h2.6V100.9z"/>
	</g>
	<g class="st2">
		<path class="st3" d="M422.1,106.5H421v-1.2h1.2V106.5z"/>
		<path class="st3" d="M427.8,105.7c-0.2,0.3-0.5,0.5-0.8,0.7s-0.6,0.2-1,0.2c-0.8,0-1.4-0.3-1.8-0.8s-0.7-1.3-0.7-2.2v-0.1
			c0-1,0.2-1.8,0.7-2.5s1-0.9,1.8-0.9c0.4,0,0.7,0.1,1,0.2s0.5,0.3,0.7,0.6v-2.6l-1-0.2v-0.7h1h1.2v8.2l1,0.2v0.7h-2L427.8,105.7z
			 M424.7,103.6c0,0.6,0.1,1.1,0.4,1.5s0.7,0.6,1.2,0.6c0.3,0,0.6-0.1,0.9-0.2s0.4-0.4,0.6-0.7v-2.9c-0.1-0.3-0.3-0.5-0.6-0.6
			s-0.5-0.2-0.9-0.2c-0.6,0-1,0.2-1.2,0.7s-0.4,1.1-0.4,1.8V103.6z"/>
		<path class="st3" d="M434.9,106.5c0-0.2-0.1-0.3-0.1-0.5s0-0.3,0-0.4c-0.2,0.3-0.5,0.5-0.8,0.7s-0.7,0.3-1.1,0.3
			c-0.7,0-1.2-0.2-1.5-0.5s-0.5-0.8-0.5-1.4c0-0.6,0.2-1.1,0.7-1.4s1.2-0.5,2-0.5h1.2v-0.7c0-0.4-0.1-0.7-0.4-0.9s-0.6-0.3-1-0.3
			c-0.3,0-0.5,0-0.8,0.1s-0.4,0.2-0.5,0.3L432,102h-0.9v-1.2c0.3-0.2,0.6-0.4,1-0.6s0.9-0.2,1.3-0.2c0.7,0,1.3,0.2,1.7,0.6
			s0.7,0.9,0.7,1.6v3.1c0,0.1,0,0.2,0,0.2s0,0.2,0,0.2l0.5,0.1v0.7H434.9z M433,105.7c0.4,0,0.7-0.1,1-0.3s0.5-0.4,0.7-0.7v-1h-1.2
			c-0.5,0-0.8,0.1-1.1,0.3s-0.4,0.5-0.4,0.8c0,0.3,0.1,0.5,0.3,0.6S432.7,105.7,433,105.7z"/>
		<path class="st3" d="M439.4,98.6v1.5h1.2v0.9h-1.2v3.8c0,0.3,0.1,0.5,0.2,0.6s0.3,0.2,0.5,0.2c0.1,0,0.2,0,0.3,0s0.2,0,0.3-0.1
			l0.2,0.8c-0.1,0.1-0.3,0.1-0.5,0.2s-0.4,0.1-0.6,0.1c-0.5,0-0.8-0.1-1.1-0.4s-0.4-0.7-0.4-1.3V101h-1v-0.9h1v-1.5H439.4z"/>
		<path class="st3" d="M445.9,106.5c0-0.2-0.1-0.3-0.1-0.5s0-0.3,0-0.4c-0.2,0.3-0.5,0.5-0.8,0.7s-0.7,0.3-1.1,0.3
			c-0.7,0-1.2-0.2-1.5-0.5s-0.5-0.8-0.5-1.4c0-0.6,0.2-1.1,0.7-1.4s1.2-0.5,2-0.5h1.2v-0.7c0-0.4-0.1-0.7-0.4-0.9s-0.6-0.3-1-0.3
			c-0.3,0-0.5,0-0.8,0.1s-0.4,0.2-0.5,0.3L443,102h-0.9v-1.2c0.3-0.2,0.6-0.4,1-0.6s0.9-0.2,1.3-0.2c0.7,0,1.3,0.2,1.7,0.6
			s0.7,0.9,0.7,1.6v3.1c0,0.1,0,0.2,0,0.2s0,0.2,0,0.2l0.5,0.1v0.7H445.9z M444,105.7c0.4,0,0.7-0.1,1-0.3s0.5-0.4,0.7-0.7v-1h-1.2
			c-0.5,0-0.8,0.1-1.1,0.3s-0.4,0.5-0.4,0.8c0,0.3,0.1,0.5,0.3,0.6S443.7,105.7,444,105.7z"/>
		<path class="st3" d="M449.8,106.5h-1.2v-1.2h1.2V106.5z"/>
		<path class="st3" d="M454.1,105.7c0.4,0,0.7-0.1,1-0.4s0.4-0.5,0.4-0.9h1l0,0c0,0.5-0.2,1-0.7,1.5s-1.1,0.6-1.8,0.6
			c-0.9,0-1.6-0.3-2.1-0.9s-0.7-1.4-0.7-2.3v-0.2c0-0.9,0.2-1.7,0.7-2.3s1.2-0.9,2.1-0.9c0.5,0,1,0.1,1.4,0.3s0.7,0.4,1,0.7l0.1,1.4
			h-0.9l-0.3-1c-0.1-0.1-0.3-0.2-0.5-0.3s-0.5-0.1-0.7-0.1c-0.6,0-1,0.2-1.3,0.7s-0.4,1-0.4,1.6v0.2c0,0.6,0.1,1.2,0.4,1.6
			S453.5,105.7,454.1,105.7z"/>
		<path class="st3" d="M457.7,103.3c0-0.9,0.3-1.7,0.8-2.3s1.2-0.9,2.1-0.9c0.9,0,1.6,0.3,2.1,0.9s0.8,1.4,0.8,2.3v0.1
			c0,0.9-0.3,1.7-0.8,2.3s-1.2,0.9-2.1,0.9c-0.9,0-1.6-0.3-2.1-0.9s-0.8-1.4-0.8-2.3V103.3z M458.9,103.4c0,0.7,0.1,1.2,0.4,1.7
			s0.7,0.7,1.3,0.7c0.5,0,1-0.2,1.2-0.7s0.4-1,0.4-1.7v-0.1c0-0.7-0.1-1.2-0.4-1.7s-0.7-0.7-1.3-0.7s-1,0.2-1.3,0.7s-0.4,1-0.4,1.7
			V103.4z"/>
		<path class="st3" d="M468.7,105.7c-0.2,0.3-0.5,0.5-0.8,0.7s-0.6,0.2-1,0.2c-0.8,0-1.4-0.3-1.8-0.8s-0.7-1.3-0.7-2.2v-0.1
			c0-1,0.2-1.8,0.7-2.5s1-0.9,1.8-0.9c0.4,0,0.7,0.1,1,0.2s0.5,0.3,0.7,0.6v-2.6l-1-0.2v-0.7h1h1.2v8.2l1,0.2v0.7h-2L468.7,105.7z
			 M465.6,103.6c0,0.6,0.1,1.1,0.4,1.5s0.7,0.6,1.2,0.6c0.3,0,0.6-0.1,0.9-0.2s0.4-0.4,0.6-0.7v-2.9c-0.1-0.3-0.3-0.5-0.6-0.6
			s-0.5-0.2-0.9-0.2c-0.6,0-1,0.2-1.2,0.7s-0.4,1.1-0.4,1.8V103.6z"/>
		<path class="st3" d="M474.5,106.6c-0.9,0-1.6-0.3-2.1-0.9s-0.8-1.4-0.8-2.3v-0.3c0-0.9,0.3-1.7,0.8-2.3s1.2-0.9,1.9-0.9
			c0.9,0,1.5,0.3,1.9,0.8s0.7,1.2,0.7,2.1v0.7h-4.1l0,0c0,0.6,0.2,1.1,0.5,1.5s0.7,0.6,1.2,0.6c0.4,0,0.7-0.1,1-0.2s0.5-0.3,0.8-0.5
			l0.5,0.8c-0.2,0.2-0.5,0.4-0.9,0.6S475.1,106.6,474.5,106.6z M474.4,101c-0.4,0-0.7,0.2-1,0.5s-0.4,0.7-0.5,1.2l0,0h2.9v-0.2
			c0-0.5-0.1-0.8-0.4-1.1S474.8,101,474.4,101z"/>
	</g>
	<path class="st6" d="M357.1,197.9h158.4c2.8,0,5,2.2,5,5v64.3c0,2.8-2.2,5-5,5H357.1c-2.8,0-5-2.2-5-5v-64.3
		C352.1,200.2,354.3,197.9,357.1,197.9z"/>
	<g class="st2">
		<path class="st3" d="M403.6,238.9l0.9-0.2v-6.1l-0.9-0.2v-1h6.8v2.3h-1.3l-0.1-1h-2.8v2.3h3v1.3h-3v2.3l0.9,0.2v1h-3.5V238.9z"/>
		<path class="st3" d="M411,238.9l0.8-0.2v-3.9l-0.9-0.2v-1h2.6v5.1l0.8,0.2v1H411V238.9z M413.6,232.1h-1.7v-1.3h1.7V232.1z"/>
		<path class="st3" d="M414.8,231.9v-1h2.6v7.9l0.8,0.2v1h-3.4v-1l0.8-0.2V232L414.8,231.9z"/>
		<path class="st3" d="M421.8,240.1c-0.9,0-1.6-0.3-2.2-0.9s-0.8-1.3-0.8-2.2v-0.2c0-0.9,0.3-1.7,0.8-2.3s1.2-0.9,2.1-0.9
			c0.9,0,1.5,0.3,2,0.8s0.7,1.2,0.7,2.1v0.9h-3.8l0,0c0,0.4,0.2,0.8,0.4,1s0.6,0.4,1,0.4c0.4,0,0.7,0,0.9-0.1s0.5-0.2,0.8-0.4
			l0.5,1.1c-0.3,0.2-0.6,0.4-1,0.5S422.3,240.1,421.8,240.1z M421.7,234.8c-0.3,0-0.6,0.1-0.8,0.4s-0.3,0.6-0.3,1l0,0h2.1V236
			c0-0.4-0.1-0.7-0.3-0.9S422,234.8,421.7,234.8z"/>
		<path class="st3" d="M433.3,235.8h-1.1L432,235c-0.1-0.1-0.3-0.2-0.4-0.2s-0.4-0.1-0.6-0.1c-0.3,0-0.5,0.1-0.7,0.2
			s-0.3,0.3-0.3,0.5c0,0.2,0.1,0.4,0.3,0.5s0.5,0.2,1,0.3c0.8,0.2,1.4,0.4,1.7,0.7s0.6,0.7,0.6,1.3c0,0.6-0.2,1-0.7,1.4
			s-1.1,0.5-1.9,0.5c-0.5,0-0.9-0.1-1.3-0.2s-0.8-0.3-1.1-0.6l0-1.4h1.2l0.2,0.8c0.1,0.1,0.2,0.1,0.4,0.2s0.4,0.1,0.6,0.1
			c0.3,0,0.6-0.1,0.8-0.2s0.3-0.3,0.3-0.5c0-0.2-0.1-0.3-0.3-0.5s-0.5-0.3-1-0.4c-0.7-0.2-1.3-0.4-1.7-0.7s-0.6-0.7-0.6-1.2
			c0-0.5,0.2-1,0.7-1.4s1.1-0.6,1.9-0.6c0.5,0,1,0.1,1.4,0.2s0.8,0.3,1,0.5L433.3,235.8z"/>
		<path class="st3" d="M440.9,234.7l-0.6,0.1l-2.3,6.2c-0.2,0.5-0.4,0.8-0.7,1.1s-0.8,0.5-1.4,0.5c-0.1,0-0.3,0-0.4,0
			s-0.3-0.1-0.4-0.1l0.2-1.2c0.1,0,0.1,0,0.2,0s0.1,0,0.2,0c0.3,0,0.5-0.1,0.7-0.2s0.3-0.3,0.4-0.5l0.2-0.5l-2-5.2l-0.6-0.1v-1h3.1
			v1l-0.7,0.1l0.9,2.5l0.1,0.5l0,0l1-3l-0.7-0.1v-1h3.1V234.7z"/>
		<path class="st3" d="M446.6,235.8h-1.1l-0.2-0.8c-0.1-0.1-0.3-0.2-0.4-0.2s-0.4-0.1-0.6-0.1c-0.3,0-0.5,0.1-0.7,0.2
			s-0.3,0.3-0.3,0.5c0,0.2,0.1,0.4,0.3,0.5s0.5,0.2,1,0.3c0.8,0.2,1.4,0.4,1.7,0.7s0.6,0.7,0.6,1.3c0,0.6-0.2,1-0.7,1.4
			s-1.1,0.5-1.9,0.5c-0.5,0-0.9-0.1-1.3-0.2s-0.8-0.3-1.1-0.6l0-1.4h1.2l0.2,0.8c0.1,0.1,0.2,0.1,0.4,0.2s0.4,0.1,0.6,0.1
			c0.3,0,0.6-0.1,0.8-0.2s0.3-0.3,0.3-0.5c0-0.2-0.1-0.3-0.3-0.5s-0.5-0.3-1-0.4c-0.7-0.2-1.3-0.4-1.7-0.7s-0.6-0.7-0.6-1.2
			c0-0.5,0.2-1,0.7-1.4s1.1-0.6,1.9-0.6c0.5,0,1,0.1,1.4,0.2s0.8,0.3,1,0.5L446.6,235.8z"/>
		<path class="st3" d="M450.1,232.1v1.6h1.1v1.2h-1.1v3.2c0,0.2,0.1,0.4,0.2,0.5s0.2,0.2,0.4,0.2c0.1,0,0.2,0,0.3,0s0.2,0,0.3,0
			l0.1,1.2c-0.2,0.1-0.4,0.1-0.6,0.1s-0.4,0-0.6,0c-0.6,0-1-0.2-1.4-0.5s-0.5-0.8-0.5-1.5v-3.2h-0.9v-1.2h0.9v-1.6H450.1z"/>
		<path class="st3" d="M455.1,240.1c-0.9,0-1.6-0.3-2.2-0.9s-0.8-1.3-0.8-2.2v-0.2c0-0.9,0.3-1.7,0.8-2.3s1.2-0.9,2.1-0.9
			c0.9,0,1.5,0.3,2,0.8s0.7,1.2,0.7,2.1v0.9h-3.8l0,0c0,0.4,0.2,0.8,0.4,1s0.6,0.4,1,0.4c0.4,0,0.7,0,0.9-0.1s0.5-0.2,0.8-0.4
			l0.5,1.1c-0.3,0.2-0.6,0.4-1,0.5S455.6,240.1,455.1,240.1z M454.9,234.8c-0.3,0-0.6,0.1-0.8,0.4s-0.3,0.6-0.3,1l0,0h2.1V236
			c0-0.4-0.1-0.7-0.3-0.9S455.3,234.8,454.9,234.8z"/>
		<path class="st3" d="M458.2,234.7v-1h2.5l0.1,0.8c0.2-0.3,0.5-0.5,0.8-0.7s0.7-0.2,1.1-0.2c0.4,0,0.8,0.1,1,0.3s0.5,0.5,0.7,0.8
			c0.2-0.3,0.4-0.6,0.8-0.8s0.7-0.3,1.1-0.3c0.6,0,1.1,0.2,1.5,0.6s0.5,1.1,0.5,2v2.6l0.8,0.2v1h-3.3v-1l0.7-0.2v-2.6
			c0-0.5-0.1-0.8-0.2-1s-0.4-0.3-0.7-0.3c-0.2,0-0.5,0.1-0.6,0.2s-0.3,0.3-0.4,0.4c0,0.1,0,0.1,0,0.2s0,0.1,0,0.2v3l0.7,0.2v1h-3.1
			v-1l0.7-0.2v-2.6c0-0.5-0.1-0.8-0.2-1s-0.4-0.3-0.7-0.3c-0.2,0-0.4,0-0.6,0.1s-0.3,0.2-0.4,0.4v3.4l0.7,0.2v1h-3.3v-1l0.8-0.2
			v-3.9L458.2,234.7z"/>
	</g>
	<g class="st2">
		<path class="st7" d="M280.7,82.2c-0.3,0.2-0.7,0.4-1.1,0.5c-0.4,0.1-0.9,0.2-1.3,0.2c-0.6,0-1.1-0.1-1.5-0.3
			c-0.4-0.2-0.8-0.5-1-0.8c-0.3-0.3-0.4-0.8-0.6-1.3c-0.1-0.5-0.2-1-0.2-1.6c0-1.3,0.3-2.2,0.9-2.9c0.6-0.7,1.4-1,2.5-1
			c0.5,0,1,0,1.3,0.1s0.6,0.2,0.9,0.3l-0.5,1.6c-0.2-0.1-0.5-0.2-0.7-0.3c-0.2-0.1-0.5-0.1-0.8-0.1c-0.5,0-0.9,0.2-1.2,0.5
			c-0.3,0.4-0.4,0.9-0.4,1.7c0,0.3,0,0.6,0.1,0.9c0.1,0.3,0.2,0.5,0.3,0.7s0.3,0.4,0.5,0.5c0.2,0.1,0.5,0.2,0.8,0.2
			c0.3,0,0.6,0,0.8-0.1c0.2-0.1,0.4-0.2,0.6-0.3L280.7,82.2z"/>
		<path class="st7" d="M286.2,82.7v-4.1c0-0.7-0.1-1.2-0.2-1.5s-0.4-0.4-0.8-0.4c-0.3,0-0.6,0.1-0.8,0.3c-0.2,0.2-0.4,0.4-0.5,0.7v5
			h-2v-7.5h1.5l0.2,1h0.1c0.2-0.3,0.5-0.6,0.9-0.8c0.4-0.2,0.8-0.4,1.4-0.4c0.5,0,0.9,0.1,1.2,0.3c0.3,0.2,0.5,0.5,0.7,1
			c0.2-0.4,0.5-0.7,0.9-0.9c0.4-0.2,0.8-0.3,1.3-0.3c0.4,0,0.8,0,1.1,0.2c0.3,0.1,0.5,0.3,0.7,0.5c0.2,0.2,0.3,0.6,0.4,1
			s0.1,0.9,0.1,1.6v4.5h-2v-4.2c0-0.6-0.1-1-0.2-1.3c-0.1-0.3-0.4-0.4-0.8-0.4c-0.4,0-0.6,0.1-0.8,0.3c-0.2,0.2-0.4,0.5-0.5,0.8v4.9
			H286.2z"/>
		<path class="st7" d="M300.4,80c0,0.4,0,0.8,0,1.3c0,0.4,0.1,0.9,0.1,1.4h-1.4l-0.3-1h-0.1c-0.2,0.4-0.5,0.6-0.9,0.8
			s-0.8,0.3-1.3,0.3c-0.9,0-1.7-0.3-2.2-0.9s-0.8-1.6-0.8-2.9c0-1.3,0.3-2.3,0.9-3c0.6-0.7,1.4-1.1,2.5-1.1c0.3,0,0.6,0,0.8,0.1
			c0.2,0,0.4,0.1,0.6,0.2v-3h2V80z M297,81.2c0.4,0,0.7-0.1,0.9-0.3c0.2-0.2,0.4-0.5,0.5-0.8V77c-0.1-0.1-0.3-0.2-0.5-0.2
			s-0.4-0.1-0.7-0.1c-0.5,0-1,0.2-1.2,0.6s-0.4,1-0.4,1.9c0,0.6,0.1,1.2,0.3,1.5C296.2,81,296.6,81.2,297,81.2z"/>
	</g>
	<g class="st2">
		<path class="st3" d="M451.5,151.6c0.3-0.2,0.7-0.3,1.1-0.4s0.8-0.1,1.3-0.1c0.4,0,0.8,0.1,1,0.2c0.3,0.1,0.4,0.3,0.6,0.4
			c0.1,0.2,0.2,0.4,0.3,0.6c0,0.2,0.1,0.4,0.1,0.6c0,0.5,0,0.9,0,1.4c0,0.5,0,0.9,0,1.3c0,0.3,0,0.6,0,0.8c0,0.3,0.1,0.5,0.1,0.7
			h-0.7l-0.3-0.8h-0.1c-0.1,0.1-0.2,0.2-0.3,0.3c-0.1,0.1-0.2,0.2-0.4,0.3c-0.2,0.1-0.3,0.2-0.5,0.2c-0.2,0.1-0.4,0.1-0.7,0.1
			c-0.3,0-0.5,0-0.7-0.1c-0.2-0.1-0.4-0.2-0.6-0.3c-0.2-0.1-0.3-0.3-0.4-0.5c-0.1-0.2-0.1-0.4-0.1-0.7c0-0.4,0.1-0.6,0.2-0.9
			c0.1-0.2,0.3-0.4,0.6-0.6c0.3-0.1,0.6-0.2,0.9-0.3c0.4-0.1,0.8-0.1,1.2-0.1c0.1,0,0.2,0,0.3,0c0.1,0,0.2,0,0.3,0
			c0-0.2,0-0.5,0-0.6c0-0.4-0.1-0.7-0.3-0.9s-0.5-0.3-1-0.3c-0.1,0-0.3,0-0.4,0c-0.2,0-0.3,0-0.5,0.1s-0.3,0.1-0.5,0.1
			c-0.1,0.1-0.3,0.1-0.4,0.2L451.5,151.6z M453.2,156.5c0.2,0,0.4,0,0.6-0.1s0.3-0.1,0.5-0.2c0.1-0.1,0.2-0.2,0.3-0.3
			c0.1-0.1,0.1-0.2,0.2-0.3v-1c-0.1,0-0.2,0-0.3,0s-0.2,0-0.3,0c-0.2,0-0.5,0-0.7,0c-0.2,0-0.4,0.1-0.6,0.2s-0.3,0.2-0.4,0.3
			s-0.2,0.3-0.2,0.5c0,0.3,0.1,0.5,0.3,0.7C452.7,156.4,452.9,156.5,453.2,156.5z"/>
	</g>
	<g class="st2">
		<path class="st3" d="M461.7,156.8c-0.2,0.2-0.5,0.3-0.9,0.4c-0.3,0.1-0.7,0.1-1,0.1c-0.5,0-0.9-0.1-1.2-0.2
			c-0.3-0.1-0.6-0.4-0.8-0.6c-0.2-0.3-0.4-0.6-0.4-1s-0.1-0.8-0.1-1.3c0-1,0.2-1.8,0.7-2.3s1.1-0.8,1.9-0.8c0.4,0,0.7,0,1,0.1
			c0.3,0.1,0.5,0.1,0.7,0.3l-0.3,0.8c-0.2-0.1-0.4-0.2-0.6-0.2c-0.2-0.1-0.5-0.1-0.7-0.1c-1.1,0-1.7,0.8-1.7,2.3
			c0,0.3,0,0.6,0.1,0.9c0.1,0.3,0.2,0.5,0.3,0.7c0.1,0.2,0.3,0.4,0.6,0.5c0.2,0.1,0.5,0.2,0.8,0.2c0.3,0,0.5,0,0.8-0.1
			c0.2-0.1,0.4-0.2,0.6-0.3L461.7,156.8z"/>
		<path class="st3" d="M466.6,156.8c-0.2,0.2-0.5,0.3-0.9,0.4s-0.7,0.1-1,0.1c-0.5,0-0.9-0.1-1.2-0.2c-0.3-0.1-0.6-0.4-0.8-0.6
			c-0.2-0.3-0.4-0.6-0.4-1c-0.1-0.4-0.1-0.8-0.1-1.3c0-1,0.2-1.8,0.7-2.3c0.4-0.5,1.1-0.8,1.9-0.8c0.4,0,0.7,0,1,0.1
			c0.3,0.1,0.5,0.1,0.7,0.3l-0.3,0.8c-0.2-0.1-0.4-0.2-0.6-0.2c-0.2-0.1-0.5-0.1-0.7-0.1c-1.1,0-1.7,0.8-1.7,2.3
			c0,0.3,0,0.6,0.1,0.9c0.1,0.3,0.2,0.5,0.3,0.7c0.1,0.2,0.3,0.4,0.6,0.5c0.2,0.1,0.5,0.2,0.8,0.2c0.3,0,0.5,0,0.8-0.1
			c0.2-0.1,0.4-0.2,0.6-0.3L466.6,156.8z"/>
	</g>
	<g class="st2">
		<path class="st3" d="M472.2,156.7c-0.2,0.2-0.5,0.3-0.9,0.5c-0.4,0.1-0.8,0.2-1.2,0.2c-0.5,0-0.9-0.1-1.2-0.2
			c-0.3-0.1-0.6-0.4-0.8-0.6c-0.2-0.3-0.4-0.6-0.5-1s-0.2-0.8-0.2-1.3c0-1,0.2-1.8,0.7-2.3s1.1-0.8,2-0.8c0.3,0,0.5,0,0.8,0.1
			c0.3,0.1,0.5,0.2,0.7,0.3s0.4,0.4,0.5,0.7c0.1,0.3,0.2,0.7,0.2,1.2c0,0.3,0,0.6-0.1,0.9h-3.9c0,0.4,0,0.7,0.1,0.9
			c0.1,0.3,0.2,0.5,0.3,0.7c0.2,0.2,0.3,0.3,0.6,0.4c0.2,0.1,0.5,0.1,0.9,0.1c0.3,0,0.5,0,0.8-0.1c0.3-0.1,0.5-0.2,0.6-0.3
			L472.2,156.7z M470.2,151.9c-0.5,0-0.9,0.1-1.1,0.4c-0.3,0.2-0.5,0.7-0.5,1.3h3c0-0.6-0.1-1-0.3-1.3
			C470.9,152,470.6,151.9,470.2,151.9z"/>
		<path class="st3" d="M476.6,155.6c0-0.2-0.1-0.4-0.2-0.6c-0.1-0.1-0.3-0.3-0.5-0.3s-0.4-0.2-0.7-0.3s-0.5-0.2-0.7-0.3
			s-0.4-0.3-0.5-0.5c-0.1-0.2-0.2-0.5-0.2-0.8c0-0.6,0.2-1,0.5-1.3c0.3-0.3,0.8-0.4,1.4-0.4c0.4,0,0.8,0,1.1,0.1
			c0.3,0.1,0.5,0.2,0.8,0.3l-0.2,0.8c-0.2-0.1-0.4-0.2-0.7-0.2c-0.3-0.1-0.5-0.1-0.8-0.1c-0.4,0-0.6,0.1-0.8,0.2s-0.2,0.3-0.2,0.6
			c0,0.2,0.1,0.4,0.2,0.5c0.1,0.1,0.3,0.2,0.5,0.3s0.4,0.2,0.7,0.3s0.5,0.2,0.7,0.3s0.4,0.3,0.5,0.5c0.1,0.2,0.2,0.5,0.2,0.9
			c0,0.3,0,0.5-0.1,0.7c-0.1,0.2-0.2,0.4-0.4,0.6c-0.2,0.2-0.4,0.3-0.7,0.4c-0.3,0.1-0.6,0.1-0.9,0.1c-0.5,0-0.8,0-1.2-0.1
			c-0.3-0.1-0.6-0.2-0.8-0.3l0.3-0.8c0.2,0.1,0.4,0.2,0.7,0.3s0.6,0.1,0.9,0.1c0.3,0,0.6-0.1,0.9-0.2
			C476.5,156.2,476.6,155.9,476.6,155.6z"/>
		<path class="st3" d="M481.6,155.6c0-0.2-0.1-0.4-0.2-0.6c-0.1-0.1-0.3-0.3-0.5-0.3s-0.4-0.2-0.7-0.3s-0.5-0.2-0.7-0.3
			s-0.4-0.3-0.5-0.5c-0.1-0.2-0.2-0.5-0.2-0.8c0-0.6,0.2-1,0.5-1.3c0.3-0.3,0.8-0.4,1.4-0.4c0.4,0,0.8,0,1.1,0.1
			c0.3,0.1,0.5,0.2,0.8,0.3l-0.2,0.8c-0.2-0.1-0.4-0.2-0.7-0.2c-0.3-0.1-0.5-0.1-0.8-0.1c-0.4,0-0.6,0.1-0.8,0.2s-0.2,0.3-0.2,0.6
			c0,0.2,0.1,0.4,0.2,0.5c0.1,0.1,0.3,0.2,0.5,0.3s0.4,0.2,0.7,0.3s0.5,0.2,0.7,0.3s0.4,0.3,0.5,0.5c0.1,0.2,0.2,0.5,0.2,0.9
			c0,0.3,0,0.5-0.1,0.7c-0.1,0.2-0.2,0.4-0.4,0.6s-0.4,0.3-0.7,0.4s-0.6,0.1-0.9,0.1c-0.5,0-0.8,0-1.2-0.1c-0.3-0.1-0.6-0.2-0.8-0.3
			l0.3-0.8c0.2,0.1,0.4,0.2,0.7,0.3s0.6,0.1,0.9,0.1c0.3,0,0.6-0.1,0.9-0.2C481.5,156.2,481.6,155.9,481.6,155.6z"/>
	</g>
	<line class="st9" x1="345.5" y1="89.8" x2="344.5" y2="89.8"/>
	<line class="st10" x1="342.6" y1="89.8" x2="237.3" y2="89.8"/>
	<line class="st9" x1="236.4" y1="89.8" x2="235.4" y2="89.8"/>
	<polygon class="st7" points="338.9,81.7 337.5,83.1 344.8,89.8 337.5,96.5 338.9,98 347.7,89.8 	"/>
	<line class="st9" x1="436.9" y1="178.5" x2="436.9" y2="177.5"/>
	<line class="st11" x1="436.9" y1="175.5" x2="436.9" y2="136"/>
	<line class="st9" x1="436.9" y1="135" x2="436.9" y2="134"/>
	<polygon class="st7" points="445.1,171.9 443.6,170.5 436.9,177.8 430.2,170.5 428.8,171.9 436.9,180.7 	"/>
	<line class="st12" x1="346.6" y1="222.3" x2="246.7" y2="222.3"/>
	<polygon class="st13" points="340,214.1 338.6,215.5 345.8,222.3 338.6,229 340,230.4 348.8,222.3 	"/>
	<line class="st12" x1="348.3" y1="128.8" x2="247.7" y2="192.1"/>
	<polygon class="st13" points="338.4,125.4 338,127.4 347.7,129.2 345.1,138.7 347.1,139.3 350.2,127.6 	"/>
	<path class="st14" d="M428.1,188.4c4.6-4.5,12.1-4.5,16.6,0.2c4.5,4.6,4.5,12.1-0.2,16.6c-4.6,4.5-12.1,4.5-16.6-0.2
		c-2.1-2.2-3.4-5.1-3.4-8.2c0-2.6,0.8-5.1,2.4-7.1"/>
	<path class="st15" d="M436.3,202.5h-4.2c-0.6,0-0.8-0.2-0.8-0.8v-6.5c0-0.6,0.2-0.8,0.8-0.8h8.5c0.5,0,0.8,0.2,0.8,0.8v6.5
		c0,0.6-0.2,0.8-0.8,0.8C439.1,202.5,437.7,202.5,436.3,202.5z"/>
	<path class="st15" d="M432,193.8c0-1.8,1-3.4,2.6-4.1c2.1-0.9,4.6,0,5.5,2.1c0.1,0.2,0.2,0.5,0.2,0.7c0.1,0.4,0.1,0.8,0.2,1.2"/>
	<path class="st7" d="M435.6,199.7L435.6,199.7v0.9c0,0.2,0.1,0.2,0.3,0.2h0.8c0.2,0,0.3-0.1,0.3-0.3v-1.6c0-0.2,0.1-0.3,0.2-0.4
		c0.5-0.3,0.8-0.9,0.6-1.4c-0.2-0.6-0.8-1-1.5-1c-0.7-0.1-1.3,0.3-1.6,0.9c-0.2,0.6,0,1.2,0.5,1.5c0.2,0.1,0.3,0.3,0.3,0.5
		C435.6,199.2,435.6,199.5,435.6,199.7z"/>
	<path class="st16" d="M212.5,227.7c-0.6,0-1-0.4-1-1v-5.1c0-1.6,0.8-3.2,2.1-4.1c1-0.8,2.2-1.4,3.5-1.5c0.4-0.1,0.8-0.1,1.1-0.1
		v-1.1c-2.3-1.7-3.6-4.4-3.6-7.2c0-0.9,0-1.3,0-1.6c0-0.2,0-0.3,0-0.5h-0.2c-0.6,0-1-0.4-1-1v-5.6c0-0.2,0.1-0.4,0.2-0.5
		c0.6-3.9,3.2-7.1,6.9-8.4c2.3-0.8,4.7-0.8,7,0c1.5,0.5,2.8,1.4,3.9,2.5c1.6,1.6,2.7,3.7,3,5.9c0.1,0.1,0.1,0.3,0.1,0.5v5.6
		c0,0.6-0.4,1-1,1h-0.2v2.5c0,2.8-1.4,5.4-3.7,7v0.9c0.4,0,0.8,0,1.1,0.1c1.3,0.2,2.5,0.7,3.6,1.6c1.3,1,2.1,2.5,2.1,4.1v5.1
		c0,0.6-0.4,1-1,1L212.5,227.7z"/>
	<path class="st3" d="M223.9,190.3c1.1,0,2.2,0.2,3.2,0.5c1.3,0.5,2.5,1.2,3.5,2.3c1.6,1.5,2.5,3.5,2.8,5.7h0.1v5.6h-1.2v3.5
		c0,2.7-1.4,5.1-3.7,6.5v2.4h1c0.3,0,0.7,0,1,0.1c1.1,0.2,2.2,0.6,3.1,1.4c1.1,0.8,1.7,2,1.8,3.4v5.1h-22.9v-5.1
		c0-1.3,0.7-2.6,1.7-3.4c0.9-0.7,2-1.2,3.1-1.4c0.3-0.1,0.7-0.1,1-0.1h1v-2.5h0.1c-2.3-1.5-3.7-4.1-3.8-6.8c0-1.8-0.1-1.5-0.1-3.2
		h-1.2v-5.6h0.1c0.5-4.8,4.6-8.5,9.5-8.5 M224.1,188.3c-5.7-0.1-10.6,4.1-11.5,9.7c-0.1,0.3-0.2,0.6-0.2,0.9v5.6
		c0,0.8,0.5,1.5,1.3,1.9c0,0.3,0,0.6,0,1.3c0.1,2.8,1.3,5.5,3.4,7.4c-1.5,0.2-2.8,0.8-3.9,1.8c-1.6,1.1-2.5,3-2.5,4.9v5.1
		c0,1.1,0.9,2,2,2h22.9c1.1,0,2-0.9,2-2v-5.1c0-1.9-0.9-3.8-2.5-4.9c-1.1-0.9-2.4-1.5-3.7-1.7c2-1.8,3.2-4.4,3.2-7.1v-1.7
		c0.7-0.3,1.2-1,1.2-1.8v-5.6c0-0.3-0.1-0.6-0.2-0.9c-0.4-2.4-1.5-4.6-3.3-6.3c-1.2-1.2-2.7-2.2-4.3-2.7
		C226.6,188.6,225.3,188.4,224.1,188.3L224.1,188.3z"/>
	<polygon class="st3" points="214.2,202.9 214.2,207.3 222,207.3 223.9,207.3 225.9,207.3 233.6,207.3 233.6,202.9 	"/>
	<path class="st17" d="M215.6,203c0,1.9,0.1,2.7,0.1,4.6c0.1,4.5,3.8,8.2,8.3,8.2c4.5,0.2,8.2-3.3,8.4-7.8c0,0,0,0,0,0v-5.2"/>
	<path class="st17" d="M214.4,199.8c0-5.3,4.3-9.5,9.6-9.5c1.1,0,2.1,0.2,3.1,0.5c1.3,0.5,2.5,1.2,3.5,2.3c1.8,1.8,2.8,4.2,2.8,6.7"
		/>
	<rect x="214.4" y="199.4" class="st18" width="19.1" height="3.5"/>
	<line class="st18" x1="222.8" y1="210.9" x2="226.3" y2="210.9"/>
	<path class="st16" d="M220.4,203.8c-0.5,0.5-0.6,1.3-0.1,1.9c0.5,0.6,1.3,0.6,1.9,0.2c0.3-0.2,0.5-0.6,0.5-0.9l0,0L220.4,203.8z"/>
	<path class="st16" d="M229.5,203.8l-2.1,1.3c0.1,0.2,0.2,0.4,0.3,0.6c0.5,0.5,1.4,0.5,1.9,0c0.3-0.3,0.4-0.6,0.4-1
		C230,204.4,229.8,204.1,229.5,203.8z"/>
</g>
</svg>
