<?xml version="1.0" encoding="utf-8"?>
<!-- Generator: Adobe Illustrator 24.0.0, SVG Export Plug-In . SVG Version: 6.00 Build 0)  -->
<svg version="1.1" id="Ebene_1" xmlns="http://www.w3.org/2000/svg" xmlns:xlink="http://www.w3.org/1999/xlink" x="0px" y="0px"
	 viewBox="0 0 673.4 413.9" style="enable-background:new 0 0 673.4 413.9;" xml:space="preserve">
<style type="text/css">
	.st0{enable-background:new    ;}
	.st1{fill:#330066;}
	.st2{fill:none;stroke:#3399FF;stroke-width:2;stroke-miterlimit:10;}
	.st3{fill:url(#SVGID_1_);stroke:#FFCC00;stroke-width:2;stroke-miterlimit:10;}
	.st4{fill:#FFCC00;}
	.st5{fill:none;stroke:#330066;stroke-linejoin:round;}
	.st6{fill:none;stroke:#330066;stroke-linecap:round;stroke-linejoin:round;}
	.st7{fill:none;stroke:#CC3300;stroke-width:2;stroke-miterlimit:10;stroke-dasharray:2,2;}
	.st8{fill:#CC3300;}
	.st9{fill:#FFFFFF;stroke:#CC3300;stroke-width:2;stroke-miterlimit:10;}
	.st10{fill:none;stroke:#CC3300;stroke-width:2;stroke-miterlimit:10;}
	.st11{fill:#FFFFFF;}
	.st12{fill:#3399FF;}
	.st13{fill:url(#SVGID_2_);stroke:#FFCC00;stroke-width:2;stroke-miterlimit:10;}
	.st14{fill:#FFFFFF;stroke:#FFCC00;stroke-width:2;stroke-linecap:round;stroke-linejoin:round;}
	.st15{fill:none;stroke:#FFCC00;stroke-width:2;stroke-linecap:round;stroke-linejoin:round;}
	.st16{fill:url(#SVGID_3_);stroke:#990066;stroke-width:2;stroke-miterlimit:10;}
	.st17{fill:#FFFFFF;stroke:#990066;stroke-width:2;stroke-linecap:round;stroke-linejoin:round;}
	.st18{fill:none;stroke:#990066;stroke-width:2;stroke-linecap:round;stroke-linejoin:round;}
	.st19{fill:#990066;}
	.st20{fill:url(#SVGID_4_);stroke:#FFCC00;stroke-width:2;stroke-miterlimit:10;}
	.st21{fill:#FFCC00;stroke:#FFCC00;stroke-miterlimit:10;}
	.st22{fill:none;stroke:#990066;stroke-width:2;stroke-miterlimit:10;}
	.st23{fill:none;stroke:#330066;stroke-width:2;stroke-miterlimit:10;}
	.st24{fill:#33CC99;}
</style>
<g id="Ebene_2_1_">
	<g class="st0">
		<path class="st1" d="M267.7,123.6h0.8v-1.1l1.6-0.4v1.6h1.5v1.3h-1.5v2.3c0,0.4,0,0.7,0.1,0.9c0.1,0.2,0.2,0.3,0.5,0.3
			c0.2,0,0.3,0,0.4,0c0.1,0,0.2-0.1,0.4-0.1l0.3,1.2c-0.2,0.1-0.5,0.2-0.8,0.3c-0.3,0.1-0.6,0.1-0.9,0.1c-0.6,0-1-0.1-1.2-0.4
			c-0.3-0.3-0.4-0.8-0.4-1.4v-3h-0.8V123.6z"/>
		<path class="st1" d="M272.5,123.9c0.3-0.1,0.7-0.3,1.1-0.3s0.9-0.1,1.4-0.1c0.4,0,0.8,0,1,0.2c0.3,0.1,0.5,0.2,0.7,0.4
			s0.3,0.4,0.3,0.7c0.1,0.3,0.1,0.5,0.1,0.9c0,0.4,0,0.7,0,1.1c0,0.4,0,0.7,0,1c0,0.3,0,0.7,0,1c0,0.3,0.1,0.6,0.2,0.9H276l-0.3-0.8
			h-0.1c-0.2,0.2-0.4,0.5-0.7,0.6c-0.3,0.2-0.6,0.3-1.1,0.3c-0.3,0-0.5,0-0.8-0.1s-0.4-0.2-0.6-0.4c-0.2-0.2-0.3-0.3-0.4-0.6
			c-0.1-0.2-0.1-0.4-0.1-0.7c0-0.4,0.1-0.7,0.2-0.9s0.4-0.5,0.7-0.6c0.3-0.2,0.7-0.3,1.1-0.3c0.4-0.1,0.9-0.1,1.4-0.1
			c0.1-0.4,0-0.8-0.1-1s-0.4-0.3-0.8-0.3c-0.3,0-0.6,0-1,0.1c-0.3,0.1-0.6,0.1-0.9,0.3L272.5,123.9z M274.5,128.4
			c0.3,0,0.6-0.1,0.7-0.2c0.2-0.1,0.3-0.3,0.4-0.4V127c-0.2,0-0.5,0-0.7,0c-0.2,0-0.4,0.1-0.6,0.1c-0.2,0.1-0.3,0.1-0.4,0.2
			c-0.1,0.1-0.2,0.2-0.2,0.4c0,0.2,0.1,0.4,0.2,0.5S274.2,128.4,274.5,128.4z"/>
		<path class="st1" d="M283.5,129.6c0,0.9-0.2,1.5-0.7,1.9c-0.5,0.4-1.1,0.6-2,0.6c-0.6,0-1,0-1.4-0.1s-0.6-0.2-0.8-0.3l0.3-1.2
			c0.2,0.1,0.4,0.1,0.6,0.2c0.2,0.1,0.5,0.1,0.9,0.1c0.5,0,0.9-0.1,1.1-0.4c0.2-0.2,0.3-0.6,0.3-1v-0.4h0c-0.3,0.4-0.8,0.6-1.5,0.6
			c-0.8,0-1.4-0.2-1.7-0.7c-0.4-0.5-0.6-1.2-0.6-2.3c0-1.1,0.3-1.9,0.8-2.4c0.5-0.6,1.3-0.8,2.2-0.8c0.5,0,1,0,1.4,0.1
			c0.4,0.1,0.7,0.2,1,0.3V129.6z M280.9,128.4c0.3,0,0.5-0.1,0.7-0.2c0.2-0.1,0.3-0.3,0.4-0.6v-2.7c-0.2-0.1-0.6-0.2-0.9-0.2
			c-0.4,0-0.7,0.2-0.9,0.5s-0.3,0.8-0.3,1.4c0,0.6,0.1,1,0.3,1.3C280.3,128.3,280.5,128.4,280.9,128.4z"/>
	</g>
	<g class="st0">
		<path class="st1" d="M373.1,127.1h-0.4v2.5h-1.6v-8.4h1.6v5l0.4-0.2l1.4-2.4h1.7l-1.4,2.3l-0.6,0.5l0.7,0.5l1.6,2.8h-1.8
			L373.1,127.1z"/>
	</g>
	<g class="st0">
		<path class="st1" d="M381.6,129.1c-0.2,0.2-0.6,0.4-1,0.5s-0.9,0.2-1.3,0.2c-1,0-1.7-0.3-2.1-0.8c-0.4-0.6-0.7-1.3-0.7-2.3
			c0-1.1,0.3-1.8,0.8-2.4s1.2-0.8,2.1-0.8c0.3,0,0.6,0,0.9,0.1s0.5,0.2,0.8,0.4c0.2,0.2,0.4,0.4,0.5,0.7c0.1,0.3,0.2,0.7,0.2,1.2
			c0,0.2,0,0.3,0,0.5c0,0.2,0,0.4-0.1,0.6h-3.6c0,0.5,0.2,0.9,0.4,1.1s0.6,0.4,1.1,0.4c0.3,0,0.6,0,0.9-0.2c0.3-0.1,0.5-0.2,0.6-0.3
			L381.6,129.1z M379.4,124.7c-0.4,0-0.7,0.1-0.9,0.4c-0.2,0.2-0.3,0.6-0.4,1h2.2c0-0.4,0-0.8-0.2-1
			C380,124.8,379.8,124.7,379.4,124.7z"/>
	</g>
	<g class="st0">
		<path class="st1" d="M384.9,127l0.2,0.9h0.1l0.2-0.9l0.9-3.4h1.6l-1.8,5.4c-0.2,0.4-0.3,0.9-0.4,1.2c-0.1,0.4-0.3,0.7-0.5,1
			c-0.2,0.3-0.4,0.5-0.6,0.6c-0.2,0.1-0.4,0.2-0.7,0.2c-0.4,0-0.7-0.1-1-0.2l0.3-1.2c0.1,0,0.2,0.1,0.4,0.1c0.2,0,0.4-0.1,0.5-0.2
			c0.2-0.2,0.3-0.4,0.4-0.8l-2.5-6h1.9L384.9,127z"/>
	</g>
	<g class="st0">
		<path class="st1" d="M411.9,41.5l0.2-1.7H412l-0.5,1.3l-1.8,3.1h-0.5l-1.9-3.1l-0.5-1.3h-0.1l0.2,1.7v4.4h-1.6v-8.4h1.5l2.2,3.8
			l0.4,1h0l0.4-1l2.1-3.8h1.5v8.4h-1.6V41.5z"/>
		<path class="st1" d="M418.3,41.3c-0.2-0.1-0.5-0.1-0.7-0.1c-0.3,0-0.5,0.1-0.7,0.2c-0.2,0.1-0.3,0.3-0.4,0.6v3.9H415v-6h1.2
			l0.2,0.8h0c0.1-0.3,0.3-0.5,0.6-0.7c0.2-0.2,0.5-0.2,0.8-0.2c0.2,0,0.4,0,0.7,0.1L418.3,41.3z"/>
		<path class="st1" d="M419.2,37.4h5v1.5h-3.3v2h3v1.5h-3v2.1h3.4v1.5h-5V37.4z"/>
		<path class="st1" d="M429.1,45.8v-3.4c0-0.5-0.1-0.8-0.2-1.1s-0.4-0.3-0.7-0.3c-0.3,0-0.5,0.1-0.8,0.3c-0.2,0.2-0.3,0.4-0.4,0.6
			v3.9h-1.6v-6h1.2l0.2,0.8h0c0.2-0.3,0.4-0.5,0.7-0.7c0.3-0.2,0.7-0.3,1.2-0.3c0.3,0,0.6,0,0.8,0.1s0.4,0.2,0.6,0.4
			c0.2,0.2,0.3,0.4,0.4,0.8c0.1,0.3,0.1,0.7,0.1,1.2v3.7H429.1z"/>
		<path class="st1" d="M436.2,45.4c-0.2,0.2-0.5,0.3-0.9,0.4s-0.7,0.1-1,0.1c-0.5,0-0.9-0.1-1.2-0.2c-0.3-0.2-0.6-0.4-0.8-0.6
			c-0.2-0.3-0.4-0.6-0.4-1c-0.1-0.4-0.1-0.8-0.1-1.3c0-1,0.2-1.8,0.7-2.3s1.1-0.8,2-0.8c0.4,0,0.8,0,1.1,0.1
			c0.3,0.1,0.5,0.2,0.7,0.3l-0.4,1.3c-0.2-0.1-0.4-0.2-0.5-0.2c-0.2,0-0.4-0.1-0.6-0.1c-0.4,0-0.8,0.1-1,0.4
			c-0.2,0.3-0.3,0.7-0.3,1.4c0,0.3,0,0.5,0.1,0.7c0.1,0.2,0.1,0.4,0.3,0.6c0.1,0.2,0.3,0.3,0.4,0.4c0.2,0.1,0.4,0.1,0.6,0.1
			c0.3,0,0.5,0,0.7-0.1c0.2-0.1,0.3-0.1,0.5-0.2L436.2,45.4z"/>
		<path class="st1" d="M438.8,43.8c0,0.3,0,0.5,0.1,0.6s0.2,0.2,0.3,0.2c0.1,0,0.2,0,0.3,0c0.1,0,0.2-0.1,0.3-0.1l0.2,1.2
			c-0.1,0.1-0.3,0.1-0.6,0.2c-0.3,0.1-0.5,0.1-0.8,0.1c-0.5,0-0.8-0.1-1-0.3c-0.2-0.2-0.4-0.6-0.4-1v-7.2h1.6V43.8z"/>
		<path class="st1" d="M440.7,40.2c0.3-0.1,0.7-0.3,1.1-0.3c0.4-0.1,0.9-0.1,1.4-0.1c0.4,0,0.8,0,1,0.2c0.3,0.1,0.5,0.2,0.7,0.4
			s0.3,0.4,0.3,0.7s0.1,0.5,0.1,0.9c0,0.4,0,0.7,0,1.1c0,0.4,0,0.7,0,1c0,0.3,0,0.7,0,1c0,0.3,0.1,0.6,0.2,0.9h-1.3l-0.3-0.8h-0.1
			c-0.2,0.2-0.4,0.5-0.7,0.6c-0.3,0.2-0.7,0.3-1.1,0.3c-0.3,0-0.5,0-0.8-0.1c-0.2-0.1-0.4-0.2-0.6-0.4c-0.2-0.2-0.3-0.3-0.4-0.6
			c-0.1-0.2-0.1-0.4-0.1-0.7c0-0.4,0.1-0.7,0.2-0.9s0.4-0.5,0.7-0.6c0.3-0.2,0.7-0.3,1.1-0.3c0.4-0.1,0.9-0.1,1.4-0.1
			c0.1-0.4,0-0.8-0.1-1s-0.4-0.3-0.8-0.3c-0.3,0-0.6,0-1,0.1c-0.3,0.1-0.6,0.1-0.9,0.3L440.7,40.2z M442.6,44.6
			c0.3,0,0.6-0.1,0.7-0.2c0.2-0.1,0.3-0.3,0.4-0.4v-0.8c-0.2,0-0.5,0-0.7,0c-0.2,0-0.4,0.1-0.6,0.1c-0.2,0.1-0.3,0.1-0.4,0.2
			c-0.1,0.1-0.2,0.2-0.2,0.4c0,0.2,0.1,0.4,0.2,0.5S442.4,44.6,442.6,44.6z"/>
	</g>
	<g class="st0">
		<path class="st1" d="M448.7,43l0.2,0.9h0.1l0.2-0.9l1-3.1h1.7l-2.5,6.1h-0.9l-2.6-6.1h1.8L448.7,43z"/>
	</g>
	<g class="st0">
		<path class="st1" d="M457.1,45.3c-0.2,0.2-0.6,0.4-1,0.5s-0.8,0.2-1.3,0.2c-1,0-1.7-0.3-2.1-0.8c-0.4-0.6-0.7-1.3-0.7-2.3
			c0-1.1,0.3-1.8,0.8-2.4s1.2-0.8,2.1-0.8c0.3,0,0.6,0,0.9,0.1s0.5,0.2,0.8,0.4c0.2,0.2,0.4,0.4,0.5,0.7c0.1,0.3,0.2,0.7,0.2,1.2
			c0,0.2,0,0.3,0,0.5c0,0.2,0,0.4-0.1,0.6h-3.6c0,0.5,0.2,0.9,0.4,1.1c0.2,0.3,0.6,0.4,1.1,0.4c0.3,0,0.6,0,0.9-0.2
			c0.3-0.1,0.5-0.2,0.6-0.3L457.1,45.3z M454.9,40.9c-0.4,0-0.7,0.1-0.9,0.4c-0.2,0.2-0.3,0.6-0.4,1h2.2c0-0.4,0-0.8-0.2-1
			C455.5,41,455.2,40.9,454.9,40.9z"/>
	</g>
	<g class="st0">
		<path class="st1" d="M461.5,41.7h7.2V43h-7.2V41.7z"/>
	</g>
	<g class="st0">
		<path class="st1" d="M476.9,45.8v-3.4c0-0.3,0-0.6-0.1-0.8c0-0.2-0.1-0.4-0.2-0.6c-0.1-0.2-0.2-0.3-0.4-0.4s-0.4-0.1-0.6-0.1
			c-0.4,0-0.7,0.1-1,0.4c-0.3,0.2-0.5,0.6-0.6,0.9v4h-1v-8.4h1v3.1h0c0.2-0.2,0.5-0.4,0.8-0.6s0.7-0.2,1.1-0.2c0.3,0,0.6,0,0.9,0.1
			c0.2,0.1,0.5,0.2,0.6,0.4s0.3,0.5,0.4,0.8c0.1,0.3,0.1,0.7,0.1,1.2v3.6H476.9z"/>
		<path class="st1" d="M479.5,40.3c0.3-0.2,0.7-0.3,1.1-0.4c0.4-0.1,0.8-0.1,1.3-0.1c0.4,0,0.8,0.1,1,0.2s0.4,0.3,0.6,0.4
			c0.1,0.2,0.2,0.4,0.3,0.6c0,0.2,0.1,0.4,0.1,0.6c0,0.5,0,0.9,0,1.4c0,0.5,0,0.9,0,1.3c0,0.3,0,0.6,0,0.8c0,0.3,0.1,0.5,0.1,0.7
			h-0.7l-0.3-0.8h-0.1c-0.1,0.1-0.2,0.2-0.3,0.3c-0.1,0.1-0.2,0.2-0.4,0.3c-0.2,0.1-0.3,0.2-0.5,0.2c-0.2,0.1-0.4,0.1-0.7,0.1
			c-0.3,0-0.5,0-0.7-0.1c-0.2-0.1-0.4-0.2-0.6-0.3c-0.2-0.1-0.3-0.3-0.4-0.5c-0.1-0.2-0.1-0.4-0.1-0.7c0-0.4,0.1-0.6,0.2-0.9
			c0.1-0.2,0.3-0.4,0.6-0.6c0.3-0.1,0.6-0.2,0.9-0.3c0.4-0.1,0.8-0.1,1.2-0.1c0.1,0,0.2,0,0.3,0c0.1,0,0.2,0,0.3,0
			c0-0.2,0-0.5,0-0.6c0-0.4-0.1-0.7-0.3-0.9s-0.5-0.3-1-0.3c-0.1,0-0.3,0-0.4,0c-0.2,0-0.3,0-0.5,0.1s-0.3,0.1-0.5,0.1
			c-0.1,0.1-0.3,0.1-0.4,0.2L479.5,40.3z M481.2,45.1c0.2,0,0.4,0,0.6-0.1c0.2-0.1,0.3-0.1,0.5-0.2c0.1-0.1,0.2-0.2,0.3-0.3
			c0.1-0.1,0.1-0.2,0.2-0.3v-1c-0.1,0-0.2,0-0.3,0s-0.2,0-0.3,0c-0.2,0-0.5,0-0.7,0c-0.2,0-0.4,0.1-0.6,0.2
			c-0.2,0.1-0.3,0.2-0.4,0.3c-0.1,0.1-0.2,0.3-0.2,0.5c0,0.3,0.1,0.5,0.3,0.7C480.6,45,480.9,45.1,481.2,45.1z"/>
		<path class="st1" d="M488.2,44.2c0-0.2-0.1-0.4-0.2-0.6c-0.1-0.1-0.3-0.3-0.5-0.3s-0.4-0.2-0.7-0.3s-0.5-0.2-0.7-0.3
			s-0.4-0.3-0.5-0.5c-0.1-0.2-0.2-0.5-0.2-0.8c0-0.6,0.2-1,0.5-1.3c0.3-0.3,0.8-0.4,1.4-0.4c0.4,0,0.8,0,1.1,0.1
			c0.3,0.1,0.5,0.2,0.8,0.3l-0.2,0.8c-0.2-0.1-0.4-0.2-0.7-0.2c-0.3-0.1-0.5-0.1-0.8-0.1c-0.4,0-0.6,0.1-0.8,0.2s-0.2,0.3-0.2,0.6
			c0,0.2,0.1,0.4,0.2,0.5c0.1,0.1,0.3,0.2,0.5,0.3s0.4,0.2,0.7,0.3s0.5,0.2,0.7,0.3s0.4,0.3,0.5,0.5c0.1,0.2,0.2,0.5,0.2,0.9
			c0,0.3,0,0.5-0.1,0.7c-0.1,0.2-0.2,0.4-0.4,0.6s-0.4,0.3-0.7,0.4s-0.6,0.1-0.9,0.1c-0.5,0-0.8,0-1.2-0.1c-0.3-0.1-0.6-0.2-0.8-0.3
			l0.3-0.8c0.2,0.1,0.4,0.2,0.7,0.3s0.6,0.1,0.9,0.1c0.3,0,0.6-0.1,0.9-0.2C488.1,44.8,488.2,44.5,488.2,44.2z"/>
		<path class="st1" d="M494.5,45.8v-3.4c0-0.3,0-0.6-0.1-0.8c0-0.2-0.1-0.4-0.2-0.6s-0.2-0.3-0.4-0.4s-0.4-0.1-0.6-0.1
			c-0.4,0-0.7,0.1-1,0.4c-0.3,0.2-0.5,0.6-0.6,0.9v4h-1v-8.4h1v3.1h0c0.2-0.2,0.5-0.4,0.8-0.6c0.3-0.1,0.7-0.2,1.1-0.2
			c0.3,0,0.6,0,0.9,0.1c0.2,0.1,0.5,0.2,0.6,0.4c0.2,0.2,0.3,0.5,0.4,0.8c0.1,0.3,0.1,0.7,0.1,1.2v3.6H494.5z"/>
	</g>
	<g class="st0">
		<path class="st1" d="M500,42.8c0-1,0.2-1.8,0.7-2.3c0.5-0.5,1.1-0.8,1.9-0.8c0.4,0,0.8,0.1,1.2,0.2s0.6,0.4,0.8,0.6
			c0.2,0.3,0.4,0.6,0.5,1c0.1,0.4,0.2,0.8,0.2,1.3c0,1-0.2,1.8-0.7,2.3s-1.1,0.8-2,0.8c-0.4,0-0.8-0.1-1.2-0.2
			c-0.3-0.1-0.6-0.4-0.8-0.6c-0.2-0.3-0.4-0.6-0.5-1C500.1,43.7,500,43.3,500,42.8z M501,42.8c0,0.3,0,0.6,0.1,0.9s0.2,0.5,0.3,0.7
			s0.3,0.4,0.5,0.5s0.5,0.2,0.8,0.2c1.1,0,1.6-0.8,1.6-2.3c0-0.3,0-0.6-0.1-0.9s-0.2-0.5-0.3-0.7c-0.1-0.2-0.3-0.4-0.5-0.5
			c-0.2-0.1-0.5-0.2-0.8-0.2C501.6,40.5,501,41.3,501,42.8z"/>
	</g>
	<g class="st0">
		<path class="st1" d="M506,39.8h0.9v-0.3c0-0.4,0-0.7,0.1-1c0.1-0.3,0.2-0.5,0.3-0.7c0.1-0.2,0.3-0.3,0.5-0.4
			c0.2-0.1,0.5-0.1,0.8-0.1c0.3,0,0.5,0,0.7,0s0.4,0.1,0.6,0.2l-0.2,0.8c-0.2-0.1-0.4-0.1-0.5-0.2c-0.2,0-0.3,0-0.5,0
			c-0.2,0-0.4,0-0.5,0.1c-0.1,0.1-0.2,0.2-0.3,0.3c-0.1,0.1-0.1,0.3-0.1,0.5s0,0.4,0,0.6v0.2h1.6v0.8h-1.6v5.2h-1v-5.2H506V39.8z"/>
		<path class="st1" d="M513.7,38c0-0.2,0.1-0.3,0.2-0.5s0.3-0.2,0.5-0.2c0.2,0,0.4,0.1,0.5,0.2s0.2,0.3,0.2,0.5
			c0,0.2-0.1,0.3-0.2,0.5s-0.3,0.2-0.5,0.2c-0.2,0-0.3-0.1-0.5-0.2S513.7,38.2,513.7,38z M513.9,39.8h1v6h-1V39.8z"/>
		<path class="st1" d="M520.8,45.8v-3.4c0-0.6-0.1-1.1-0.3-1.4c-0.2-0.3-0.5-0.5-1-0.5c-0.4,0-0.8,0.1-1.1,0.3
			c-0.3,0.2-0.5,0.5-0.6,0.9v4.1h-1v-6h0.7l0.2,0.7h0c0.2-0.3,0.5-0.5,0.8-0.6c0.3-0.2,0.7-0.2,1.2-0.2c0.3,0,0.6,0,0.9,0.1
			c0.2,0.1,0.5,0.2,0.6,0.4s0.3,0.5,0.4,0.8c0.1,0.3,0.1,0.7,0.1,1.2v3.6H520.8z"/>
		<path class="st1" d="M523.5,38c0-0.2,0.1-0.3,0.2-0.5s0.3-0.2,0.5-0.2c0.2,0,0.4,0.1,0.5,0.2c0.1,0.1,0.2,0.3,0.2,0.5
			c0,0.2-0.1,0.3-0.2,0.5c-0.1,0.1-0.3,0.2-0.5,0.2c-0.2,0-0.4-0.1-0.5-0.2S523.5,38.2,523.5,38z M523.7,39.8h1v6h-1V39.8z"/>
		<path class="st1" d="M525.9,39.8h0.9v-1.2l1-0.3v1.5h1.6v0.8h-1.6V44c0,0.4,0.1,0.7,0.2,0.9c0.1,0.2,0.3,0.3,0.5,0.3
			c0.2,0,0.4,0,0.5-0.1c0.1,0,0.3-0.1,0.5-0.2l0.2,0.7c-0.2,0.1-0.5,0.2-0.7,0.3c-0.3,0.1-0.5,0.1-0.8,0.1c-0.5,0-0.8-0.1-1-0.4
			c-0.2-0.3-0.3-0.7-0.3-1.4v-3.5h-0.9V39.8z"/>
		<path class="st1" d="M530.8,38c0-0.2,0.1-0.3,0.2-0.5s0.3-0.2,0.5-0.2c0.2,0,0.4,0.1,0.5,0.2s0.2,0.3,0.2,0.5
			c0,0.2-0.1,0.3-0.2,0.5s-0.3,0.2-0.5,0.2c-0.2,0-0.3-0.1-0.5-0.2S530.8,38.2,530.8,38z M531,39.8h1v6h-1V39.8z"/>
		<path class="st1" d="M533.9,40.3c0.3-0.2,0.7-0.3,1.1-0.4s0.8-0.1,1.3-0.1c0.4,0,0.8,0.1,1,0.2c0.3,0.1,0.4,0.3,0.6,0.4
			c0.1,0.2,0.2,0.4,0.3,0.6c0,0.2,0.1,0.4,0.1,0.6c0,0.5,0,0.9,0,1.4c0,0.5,0,0.9,0,1.3c0,0.3,0,0.6,0,0.8c0,0.3,0.1,0.5,0.1,0.7
			h-0.7l-0.3-0.8h-0.1c-0.1,0.1-0.2,0.2-0.3,0.3c-0.1,0.1-0.2,0.2-0.4,0.3c-0.2,0.1-0.3,0.2-0.5,0.2c-0.2,0.1-0.4,0.1-0.7,0.1
			s-0.5,0-0.7-0.1c-0.2-0.1-0.4-0.2-0.6-0.3c-0.2-0.1-0.3-0.3-0.4-0.5c-0.1-0.2-0.1-0.4-0.1-0.7c0-0.4,0.1-0.6,0.2-0.9
			c0.1-0.2,0.3-0.4,0.6-0.6c0.3-0.1,0.6-0.2,0.9-0.3c0.4-0.1,0.8-0.1,1.2-0.1c0.1,0,0.2,0,0.3,0s0.2,0,0.3,0c0-0.2,0-0.5,0-0.6
			c0-0.4-0.1-0.7-0.3-0.9c-0.2-0.2-0.5-0.3-1-0.3c-0.1,0-0.3,0-0.4,0c-0.2,0-0.3,0-0.5,0.1s-0.3,0.1-0.5,0.1
			c-0.1,0.1-0.3,0.1-0.4,0.2L533.9,40.3z M535.6,45.1c0.2,0,0.4,0,0.6-0.1s0.3-0.1,0.5-0.2c0.1-0.1,0.2-0.2,0.3-0.3
			c0.1-0.1,0.1-0.2,0.2-0.3v-1c-0.1,0-0.2,0-0.3,0c-0.1,0-0.2,0-0.3,0c-0.2,0-0.5,0-0.7,0s-0.4,0.1-0.6,0.2s-0.3,0.2-0.4,0.3
			c-0.1,0.1-0.2,0.3-0.2,0.5c0,0.3,0.1,0.5,0.3,0.7C535,45,535.3,45.1,535.6,45.1z"/>
		<path class="st1" d="M541,44.3c0,0.3,0,0.5,0.1,0.6c0.1,0.1,0.2,0.2,0.4,0.2c0.1,0,0.2,0,0.3,0c0.1,0,0.3-0.1,0.4-0.1l0.1,0.8
			c-0.1,0.1-0.3,0.1-0.5,0.2c-0.2,0-0.4,0.1-0.6,0.1c-0.4,0-0.7-0.1-0.9-0.3c-0.2-0.2-0.3-0.5-0.3-1v-7.2h1V44.3z"/>
		<path class="st1" d="M546.6,39.8h0.7l0.2,0.7h0c0.2-0.3,0.4-0.5,0.7-0.6s0.6-0.2,1-0.2c0.8,0,1.4,0.2,1.8,0.7
			c0.4,0.5,0.6,1.2,0.6,2.3c0,0.5-0.1,1-0.2,1.4s-0.3,0.7-0.6,1c-0.2,0.3-0.5,0.5-0.9,0.6s-0.7,0.2-1.1,0.2c-0.3,0-0.5,0-0.7-0.1
			s-0.4-0.1-0.6-0.2v2.5h-1V39.8z M549.1,40.5c-0.4,0-0.7,0.1-1,0.3c-0.2,0.2-0.4,0.5-0.5,1v3c0.1,0.1,0.3,0.2,0.5,0.3
			c0.2,0.1,0.4,0.1,0.7,0.1c0.6,0,1-0.2,1.3-0.6c0.3-0.4,0.5-1,0.5-1.8c0-0.3,0-0.6-0.1-0.9c-0.1-0.3-0.1-0.5-0.3-0.7
			c-0.1-0.2-0.3-0.3-0.5-0.4C549.6,40.6,549.3,40.5,549.1,40.5z"/>
		<path class="st1" d="M556,40.7c-0.2-0.1-0.5-0.1-0.7-0.1c-0.3,0-0.6,0.1-0.8,0.3c-0.2,0.2-0.3,0.4-0.4,0.7v4.2h-1v-6h0.7l0.2,0.7
			h0c0.2-0.3,0.3-0.5,0.5-0.6c0.2-0.1,0.5-0.2,0.8-0.2c0.2,0,0.5,0,0.8,0.1L556,40.7z"/>
		<path class="st1" d="M556.9,42.8c0-1,0.2-1.8,0.7-2.3s1.1-0.8,2-0.8c0.4,0,0.8,0.1,1.2,0.2s0.6,0.4,0.8,0.6c0.2,0.3,0.4,0.6,0.5,1
			c0.1,0.4,0.2,0.8,0.2,1.3c0,1-0.2,1.8-0.7,2.3c-0.5,0.5-1.1,0.8-2,0.8c-0.4,0-0.8-0.1-1.2-0.2c-0.3-0.1-0.6-0.4-0.8-0.6
			c-0.2-0.3-0.4-0.6-0.5-1C556.9,43.7,556.9,43.3,556.9,42.8z M557.9,42.8c0,0.3,0,0.6,0.1,0.9c0.1,0.3,0.2,0.5,0.3,0.7
			s0.3,0.4,0.5,0.5s0.5,0.2,0.8,0.2c1.1,0,1.6-0.8,1.6-2.3c0-0.3,0-0.6-0.1-0.9s-0.2-0.5-0.3-0.7s-0.3-0.4-0.5-0.5s-0.5-0.2-0.8-0.2
			C558.4,40.5,557.9,41.3,557.9,42.8z"/>
	</g>
	<g class="st0">
		<path class="st1" d="M567.7,45.4c-0.2,0.2-0.5,0.3-0.9,0.4s-0.7,0.1-1,0.1c-0.5,0-0.9-0.1-1.2-0.2c-0.3-0.1-0.6-0.4-0.8-0.6
			c-0.2-0.3-0.4-0.6-0.4-1c-0.1-0.4-0.1-0.8-0.1-1.3c0-1,0.2-1.8,0.7-2.3c0.4-0.5,1.1-0.8,1.9-0.8c0.4,0,0.7,0,1,0.1
			c0.3,0.1,0.5,0.1,0.7,0.3l-0.3,0.8c-0.2-0.1-0.4-0.2-0.6-0.2c-0.2-0.1-0.5-0.1-0.7-0.1c-1.1,0-1.7,0.8-1.7,2.3
			c0,0.3,0,0.6,0.1,0.9c0.1,0.3,0.2,0.5,0.3,0.7c0.1,0.2,0.3,0.4,0.6,0.5c0.2,0.1,0.5,0.2,0.8,0.2c0.3,0,0.5,0,0.8-0.1
			c0.2-0.1,0.4-0.2,0.6-0.3L567.7,45.4z"/>
	</g>
	<g class="st0">
		<path class="st1" d="M573.2,45.3c-0.2,0.2-0.5,0.3-0.9,0.5c-0.4,0.1-0.8,0.2-1.2,0.2c-0.5,0-0.9-0.1-1.2-0.2
			c-0.3-0.1-0.6-0.4-0.8-0.6c-0.2-0.3-0.4-0.6-0.5-1s-0.2-0.8-0.2-1.3c0-1,0.2-1.8,0.7-2.3s1.1-0.8,2-0.8c0.3,0,0.5,0,0.8,0.1
			c0.3,0.1,0.5,0.2,0.7,0.3s0.4,0.4,0.5,0.7c0.1,0.3,0.2,0.7,0.2,1.2c0,0.3,0,0.6-0.1,0.9h-3.9c0,0.4,0,0.7,0.1,0.9
			c0.1,0.3,0.2,0.5,0.3,0.7c0.2,0.2,0.3,0.3,0.6,0.4c0.2,0.1,0.5,0.1,0.9,0.1c0.3,0,0.5,0,0.8-0.1c0.3-0.1,0.5-0.2,0.6-0.3
			L573.2,45.3z M571.1,40.5c-0.5,0-0.9,0.1-1.1,0.4c-0.3,0.2-0.5,0.7-0.5,1.3h3c0-0.6-0.1-1-0.3-1.3
			C571.8,40.6,571.5,40.5,571.1,40.5z"/>
		<path class="st1" d="M577.5,44.2c0-0.2-0.1-0.4-0.2-0.6c-0.1-0.1-0.3-0.3-0.5-0.3s-0.4-0.2-0.7-0.3s-0.5-0.2-0.7-0.3
			s-0.4-0.3-0.5-0.5c-0.1-0.2-0.2-0.5-0.2-0.8c0-0.6,0.2-1,0.5-1.3c0.3-0.3,0.8-0.4,1.4-0.4c0.4,0,0.8,0,1.1,0.1
			c0.3,0.1,0.5,0.2,0.8,0.3l-0.2,0.8c-0.2-0.1-0.4-0.2-0.7-0.2c-0.3-0.1-0.5-0.1-0.8-0.1c-0.4,0-0.6,0.1-0.8,0.2s-0.2,0.3-0.2,0.6
			c0,0.2,0.1,0.4,0.2,0.5c0.1,0.1,0.3,0.2,0.5,0.3s0.4,0.2,0.7,0.3s0.5,0.2,0.7,0.3s0.4,0.3,0.5,0.5c0.1,0.2,0.2,0.5,0.2,0.9
			c0,0.3,0,0.5-0.1,0.7c-0.1,0.2-0.2,0.4-0.4,0.6c-0.2,0.2-0.4,0.3-0.7,0.4c-0.3,0.1-0.6,0.1-0.9,0.1c-0.5,0-0.8,0-1.2-0.1
			c-0.3-0.1-0.6-0.2-0.8-0.3l0.3-0.8c0.2,0.1,0.4,0.2,0.7,0.3s0.6,0.1,0.9,0.1c0.3,0,0.6-0.1,0.9-0.2
			C577.4,44.8,577.5,44.5,577.5,44.2z"/>
		<path class="st1" d="M582.6,44.2c0-0.2-0.1-0.4-0.2-0.6c-0.1-0.1-0.3-0.3-0.5-0.3s-0.4-0.2-0.7-0.3s-0.5-0.2-0.7-0.3
			s-0.4-0.3-0.5-0.5c-0.1-0.2-0.2-0.5-0.2-0.8c0-0.6,0.2-1,0.5-1.3c0.3-0.3,0.8-0.4,1.4-0.4c0.4,0,0.8,0,1.1,0.1
			c0.3,0.1,0.5,0.2,0.8,0.3l-0.2,0.8c-0.2-0.1-0.4-0.2-0.7-0.2c-0.3-0.1-0.5-0.1-0.8-0.1c-0.4,0-0.6,0.1-0.8,0.2s-0.2,0.3-0.2,0.6
			c0,0.2,0.1,0.4,0.2,0.5c0.1,0.1,0.3,0.2,0.5,0.3s0.4,0.2,0.7,0.3s0.5,0.2,0.7,0.3s0.4,0.3,0.5,0.5c0.1,0.2,0.2,0.5,0.2,0.9
			c0,0.3,0,0.5-0.1,0.7c-0.1,0.2-0.2,0.4-0.4,0.6s-0.4,0.3-0.7,0.4s-0.6,0.1-0.9,0.1c-0.5,0-0.8,0-1.2-0.1c-0.3-0.1-0.6-0.2-0.8-0.3
			l0.3-0.8c0.2,0.1,0.4,0.2,0.7,0.3s0.6,0.1,0.9,0.1c0.3,0,0.6-0.1,0.9-0.2C582.4,44.8,582.6,44.5,582.6,44.2z"/>
		<path class="st1" d="M590.8,44.2c0-0.2-0.1-0.4-0.2-0.6c-0.1-0.1-0.3-0.3-0.5-0.3s-0.4-0.2-0.7-0.3s-0.5-0.2-0.7-0.3
			s-0.4-0.3-0.5-0.5c-0.1-0.2-0.2-0.5-0.2-0.8c0-0.6,0.2-1,0.5-1.3c0.3-0.3,0.8-0.4,1.4-0.4c0.4,0,0.8,0,1.1,0.1
			c0.3,0.1,0.5,0.2,0.8,0.3l-0.2,0.8c-0.2-0.1-0.4-0.2-0.7-0.2c-0.3-0.1-0.5-0.1-0.8-0.1c-0.4,0-0.6,0.1-0.8,0.2s-0.2,0.3-0.2,0.6
			c0,0.2,0.1,0.4,0.2,0.5c0.1,0.1,0.3,0.2,0.5,0.3s0.4,0.2,0.7,0.3s0.5,0.2,0.7,0.3s0.4,0.3,0.5,0.5c0.1,0.2,0.2,0.5,0.2,0.9
			c0,0.3,0,0.5-0.1,0.7c-0.1,0.2-0.2,0.4-0.4,0.6s-0.4,0.3-0.7,0.4S590,46,589.7,46c-0.5,0-0.8,0-1.2-0.1c-0.3-0.1-0.6-0.2-0.8-0.3
			l0.3-0.8c0.2,0.1,0.4,0.2,0.7,0.3s0.6,0.1,0.9,0.1c0.3,0,0.6-0.1,0.9-0.2C590.7,44.8,590.8,44.5,590.8,44.2z"/>
		<path class="st1" d="M592.4,39.8h0.9v-1.2l1-0.3v1.5h1.6v0.8h-1.6V44c0,0.4,0.1,0.7,0.2,0.9c0.1,0.2,0.3,0.3,0.5,0.3
			c0.2,0,0.4,0,0.5-0.1c0.1,0,0.3-0.1,0.5-0.2l0.2,0.7c-0.2,0.1-0.5,0.2-0.7,0.3c-0.3,0.1-0.5,0.1-0.8,0.1c-0.5,0-0.8-0.1-1-0.4
			c-0.2-0.3-0.3-0.7-0.3-1.4v-3.5h-0.9V39.8z"/>
		<path class="st1" d="M597.2,40.3c0.3-0.2,0.7-0.3,1.1-0.4c0.4-0.1,0.8-0.1,1.3-0.1c0.4,0,0.8,0.1,1,0.2s0.4,0.3,0.6,0.4
			c0.1,0.2,0.2,0.4,0.3,0.6c0,0.2,0.1,0.4,0.1,0.6c0,0.5,0,0.9,0,1.4c0,0.5,0,0.9,0,1.3c0,0.3,0,0.6,0,0.8c0,0.3,0.1,0.5,0.1,0.7
			h-0.7l-0.3-0.8h-0.1c-0.1,0.1-0.2,0.2-0.3,0.3c-0.1,0.1-0.2,0.2-0.4,0.3c-0.2,0.1-0.3,0.2-0.5,0.2c-0.2,0.1-0.4,0.1-0.7,0.1
			c-0.3,0-0.5,0-0.7-0.1c-0.2-0.1-0.4-0.2-0.6-0.3c-0.2-0.1-0.3-0.3-0.4-0.5c-0.1-0.2-0.1-0.4-0.1-0.7c0-0.4,0.1-0.6,0.2-0.9
			c0.1-0.2,0.3-0.4,0.6-0.6c0.3-0.1,0.6-0.2,0.9-0.3c0.4-0.1,0.8-0.1,1.2-0.1c0.1,0,0.2,0,0.3,0c0.1,0,0.2,0,0.3,0
			c0-0.2,0-0.5,0-0.6c0-0.4-0.1-0.7-0.3-0.9s-0.5-0.3-1-0.3c-0.1,0-0.3,0-0.4,0c-0.2,0-0.3,0-0.5,0.1s-0.3,0.1-0.5,0.1
			c-0.1,0.1-0.3,0.1-0.4,0.2L597.2,40.3z M598.9,45.1c0.2,0,0.4,0,0.6-0.1c0.2-0.1,0.3-0.1,0.5-0.2c0.1-0.1,0.2-0.2,0.3-0.3
			c0.1-0.1,0.1-0.2,0.2-0.3v-1c-0.1,0-0.2,0-0.3,0s-0.2,0-0.3,0c-0.2,0-0.5,0-0.7,0c-0.2,0-0.4,0.1-0.6,0.2
			c-0.2,0.1-0.3,0.2-0.4,0.3c-0.1,0.1-0.2,0.3-0.2,0.5c0,0.3,0.1,0.5,0.3,0.7C598.3,45,598.6,45.1,598.9,45.1z"/>
	</g>
	<g class="st0">
		<path class="st1" d="M602.5,39.8h0.9v-1.2l1-0.3v1.5h1.6v0.8h-1.6V44c0,0.4,0.1,0.7,0.2,0.9c0.1,0.2,0.3,0.3,0.5,0.3
			c0.2,0,0.4,0,0.5-0.1c0.1,0,0.3-0.1,0.5-0.2l0.2,0.7c-0.2,0.1-0.5,0.2-0.7,0.3c-0.3,0.1-0.5,0.1-0.8,0.1c-0.5,0-0.8-0.1-1-0.4
			c-0.2-0.3-0.3-0.7-0.3-1.4v-3.5h-0.9V39.8z"/>
	</g>
	<g class="st0">
		<path class="st1" d="M611.6,45.3c-0.2,0.2-0.5,0.3-0.9,0.5c-0.4,0.1-0.8,0.2-1.2,0.2c-0.5,0-0.9-0.1-1.2-0.2
			c-0.3-0.1-0.6-0.4-0.8-0.6c-0.2-0.3-0.4-0.6-0.5-1s-0.2-0.8-0.2-1.3c0-1,0.2-1.8,0.7-2.3s1.1-0.8,2-0.8c0.3,0,0.5,0,0.8,0.1
			c0.3,0.1,0.5,0.2,0.7,0.3s0.4,0.4,0.5,0.7c0.1,0.3,0.2,0.7,0.2,1.2c0,0.3,0,0.6-0.1,0.9h-3.9c0,0.4,0,0.7,0.1,0.9
			c0.1,0.3,0.2,0.5,0.3,0.7c0.2,0.2,0.4,0.3,0.6,0.4c0.2,0.1,0.5,0.1,0.9,0.1c0.3,0,0.5,0,0.8-0.1c0.3-0.1,0.5-0.2,0.6-0.3
			L611.6,45.3z M609.5,40.5c-0.5,0-0.8,0.1-1.1,0.4s-0.5,0.7-0.5,1.3h3c0-0.6-0.1-1-0.3-1.3C610.3,40.6,609.9,40.5,609.5,40.5z"/>
	</g>
	<path class="st2" d="M79.4,59.8h114.9c2.8,0,5,2.2,5,5v64.3c0,2.8-2.2,5-5,5H79.4c-2.8,0-5-2.2-5-5V64.8
		C74.4,62.1,76.6,59.8,79.4,59.8z"/>
	<g class="st0">
		<path class="st1" d="M123.9,78.7h-1.3l-0.2-1.2c-0.2-0.1-0.4-0.2-0.7-0.3c-0.3-0.1-0.6-0.1-0.9-0.1c-0.5,0-0.8,0.1-1.1,0.3
			c-0.3,0.2-0.4,0.5-0.4,0.8c0,0.3,0.1,0.5,0.4,0.7c0.3,0.2,0.7,0.4,1.4,0.6c1,0.3,1.7,0.6,2.2,1.1c0.5,0.4,0.7,1,0.7,1.7
			c0,0.7-0.3,1.3-0.9,1.8c-0.6,0.4-1.4,0.6-2.3,0.6c-0.7,0-1.3-0.1-1.9-0.3c-0.6-0.2-1-0.5-1.4-0.9v-1.8h1.4l0.2,1.2
			c0.2,0.1,0.4,0.3,0.7,0.4s0.6,0.1,1,0.1c0.5,0,0.8-0.1,1.1-0.3c0.2-0.2,0.4-0.5,0.4-0.8c0-0.3-0.1-0.6-0.4-0.8
			c-0.2-0.2-0.7-0.4-1.2-0.6c-1-0.3-1.8-0.7-2.3-1.1c-0.5-0.4-0.8-1-0.8-1.7c0-0.7,0.3-1.3,0.9-1.7s1.3-0.7,2.3-0.7
			c0.7,0,1.3,0.1,1.8,0.3s1,0.5,1.4,0.8V78.7z"/>
		<path class="st1" d="M124.7,83.6l0.8-0.2v-4l-0.9-0.2v-1.1h2.7v5.2l0.8,0.2v1h-3.4V83.6z M127.3,76.6h-1.7v-1.3h1.7V76.6z"/>
		<path class="st1" d="M128.8,81.5c0-1,0.2-1.8,0.7-2.5c0.4-0.6,1.1-0.9,1.9-0.9c0.4,0,0.7,0.1,1,0.2c0.3,0.2,0.5,0.4,0.7,0.7
			l0.1-0.8h1.5v6.3c0,0.9-0.3,1.5-0.8,2c-0.5,0.5-1.3,0.8-2.2,0.8c-0.3,0-0.7,0-1-0.1s-0.7-0.2-1-0.4l0.3-1.2
			c0.3,0.1,0.6,0.2,0.8,0.3c0.3,0.1,0.6,0.1,0.9,0.1c0.4,0,0.7-0.1,1-0.4c0.2-0.3,0.3-0.6,0.3-1.1V84c-0.2,0.2-0.4,0.4-0.7,0.6
			c-0.3,0.1-0.6,0.2-0.9,0.2c-0.8,0-1.4-0.3-1.9-0.9s-0.7-1.4-0.7-2.3V81.5z M130.6,81.6c0,0.6,0.1,1,0.3,1.3
			c0.2,0.3,0.5,0.5,0.9,0.5c0.3,0,0.5,0,0.7-0.1c0.2-0.1,0.3-0.2,0.4-0.4V80c-0.1-0.2-0.3-0.3-0.4-0.5c-0.2-0.1-0.4-0.2-0.7-0.2
			c-0.4,0-0.7,0.2-0.9,0.6c-0.2,0.4-0.3,0.9-0.3,1.5V81.6z"/>
	</g>
	<g class="st0">
		<path class="st1" d="M135.6,83.6l0.8-0.2v-4l-0.9-0.2v-1.1h2.6l0.1,0.9c0.2-0.3,0.5-0.6,0.8-0.8c0.3-0.2,0.7-0.3,1.1-0.3
			c0.7,0,1.2,0.2,1.5,0.6s0.5,1.1,0.5,1.9v2.8l0.8,0.2v1h-3.3v-1l0.7-0.2v-2.8c0-0.4-0.1-0.7-0.3-0.9c-0.2-0.2-0.4-0.3-0.8-0.3
			c-0.2,0-0.4,0-0.6,0.1c-0.2,0.1-0.3,0.2-0.5,0.4v3.5l0.7,0.2v1h-3.3V83.6z"/>
	</g>
	<g class="st0">
		<path class="st1" d="M146.5,84.8c-0.9,0-1.7-0.3-2.2-0.9c-0.6-0.6-0.8-1.4-0.8-2.3v-0.2c0-1,0.3-1.8,0.8-2.4
			c0.5-0.6,1.2-0.9,2.1-0.9c0.9,0,1.5,0.3,2,0.8c0.5,0.5,0.7,1.2,0.7,2.1v1h-3.9l0,0c0,0.4,0.2,0.8,0.4,1.1c0.3,0.3,0.6,0.4,1,0.4
			c0.4,0,0.7,0,1-0.1c0.3-0.1,0.5-0.2,0.8-0.4L149,84c-0.3,0.2-0.6,0.4-1,0.5S147,84.8,146.5,84.8z M146.4,79.4
			c-0.3,0-0.6,0.1-0.8,0.4c-0.2,0.2-0.3,0.6-0.3,1l0,0h2.1v-0.2c0-0.4-0.1-0.7-0.3-0.9C147,79.5,146.7,79.4,146.4,79.4z"/>
		<path class="st1" d="M154.1,83.9c-0.2,0.3-0.4,0.5-0.7,0.7s-0.6,0.2-0.9,0.2c-0.8,0-1.4-0.3-1.9-0.9c-0.4-0.6-0.7-1.4-0.7-2.3
			v-0.1c0-1,0.2-1.8,0.7-2.5c0.4-0.6,1.1-0.9,1.9-0.9c0.3,0,0.6,0.1,0.9,0.2c0.3,0.1,0.5,0.3,0.7,0.6v-2.3l-0.9-0.2v-1.1h0.9h1.7
			v8.1l0.8,0.2v1h-2.3L154.1,83.9z M151.7,81.6c0,0.6,0.1,1,0.3,1.3c0.2,0.3,0.5,0.5,0.9,0.5c0.3,0,0.5-0.1,0.7-0.2
			c0.2-0.1,0.3-0.3,0.5-0.4v-2.7c-0.1-0.2-0.3-0.4-0.5-0.5c-0.2-0.1-0.4-0.2-0.7-0.2c-0.4,0-0.7,0.2-0.9,0.6
			c-0.2,0.4-0.3,0.9-0.3,1.5V81.6z"/>
	</g>
	<g class="st0">
		<path class="st1" d="M112.4,100.4c0.3,0,0.6-0.1,0.7-0.3c0.2-0.2,0.3-0.4,0.3-0.7h1.6l0,0c0,0.7-0.2,1.2-0.7,1.6s-1.1,0.7-1.9,0.7
			c-1,0-1.7-0.3-2.2-0.9c-0.5-0.6-0.8-1.4-0.8-2.3v-0.2c0-1,0.3-1.7,0.8-2.3c0.5-0.6,1.3-0.9,2.3-0.9c0.5,0,1,0.1,1.4,0.2
			c0.4,0.2,0.8,0.4,1,0.7l0,1.7h-1.4l-0.3-1c-0.1-0.1-0.2-0.1-0.3-0.2c-0.1,0-0.3-0.1-0.4-0.1c-0.5,0-0.8,0.2-1,0.5
			c-0.2,0.4-0.3,0.8-0.3,1.4v0.2c0,0.6,0.1,1,0.3,1.4C111.6,100.3,112,100.4,112.4,100.4z"/>
		<path class="st1" d="M115.9,98.4c0-1,0.3-1.8,0.8-2.4c0.5-0.6,1.3-0.9,2.2-0.9c1,0,1.7,0.3,2.2,0.9c0.5,0.6,0.8,1.4,0.8,2.4v0.1
			c0,1-0.3,1.8-0.8,2.4s-1.3,0.9-2.2,0.9c-1,0-1.7-0.3-2.3-0.9s-0.8-1.4-0.8-2.4V98.4z M117.6,98.5c0,0.6,0.1,1.1,0.3,1.4
			s0.5,0.5,1,0.5c0.5,0,0.8-0.2,1-0.5s0.3-0.8,0.3-1.4v-0.1c0-0.6-0.1-1-0.3-1.4c-0.2-0.4-0.5-0.5-1-0.5s-0.8,0.2-1,0.5
			c-0.2,0.4-0.3,0.8-0.3,1.4V98.5z"/>
		<path class="st1" d="M122.6,100.6l0.8-0.2v-4l-0.9-0.2v-1.1h2.6l0.1,0.9c0.2-0.3,0.5-0.6,0.8-0.8c0.3-0.2,0.7-0.3,1.1-0.3
			c0.7,0,1.2,0.2,1.5,0.6c0.4,0.4,0.5,1.1,0.5,1.9v2.8l0.8,0.2v1h-3.3v-1l0.7-0.2v-2.8c0-0.4-0.1-0.7-0.3-0.9
			c-0.2-0.2-0.4-0.3-0.8-0.3c-0.2,0-0.4,0-0.6,0.1c-0.2,0.1-0.3,0.2-0.5,0.4v3.5l0.7,0.2v1h-3.3V100.6z"/>
		<path class="st1" d="M133.1,93.6v1.6h1.1v1.2h-1.1v3.3c0,0.3,0.1,0.4,0.2,0.5s0.2,0.2,0.4,0.2c0.1,0,0.2,0,0.3,0
			c0.1,0,0.2,0,0.3-0.1l0.1,1.3c-0.2,0.1-0.4,0.1-0.6,0.1c-0.2,0-0.4,0-0.6,0c-0.6,0-1.1-0.2-1.4-0.5c-0.3-0.3-0.5-0.9-0.5-1.6v-3.3
			h-1v-1.2h1v-1.6H133.1z"/>
		<path class="st1" d="M139.2,101.6c0-0.1-0.1-0.2-0.1-0.3c0-0.1-0.1-0.2-0.1-0.3c-0.2,0.2-0.5,0.4-0.8,0.6s-0.6,0.2-1,0.2
			c-0.6,0-1.1-0.2-1.5-0.5c-0.4-0.3-0.6-0.8-0.6-1.4c0-0.6,0.2-1.1,0.7-1.4c0.5-0.3,1.2-0.5,2.1-0.5h0.9v-0.6c0-0.3-0.1-0.6-0.3-0.7
			c-0.2-0.2-0.4-0.3-0.8-0.3c-0.2,0-0.4,0-0.5,0.1s-0.3,0.1-0.4,0.2l-0.1,0.7h-1.3l0-1.4c0.3-0.2,0.7-0.4,1.1-0.5s0.9-0.2,1.3-0.2
			c0.8,0,1.5,0.2,2,0.6c0.5,0.4,0.8,1,0.8,1.7v2.7c0,0.1,0,0.2,0,0.3c0,0.1,0,0.2,0,0.3l0.5,0.1v1H139.2z M137.7,100.5
			c0.3,0,0.5-0.1,0.7-0.2s0.4-0.3,0.5-0.4v-1H138c-0.4,0-0.7,0.1-0.8,0.3s-0.3,0.4-0.3,0.6c0,0.2,0.1,0.4,0.2,0.5
			C137.2,100.4,137.4,100.5,137.7,100.5z"/>
		<path class="st1" d="M141.7,100.6l0.8-0.2v-4l-0.9-0.2v-1.1h2.7v5.2l0.8,0.2v1h-3.4V100.6z M144.3,93.6h-1.7v-1.3h1.7V93.6z"/>
	</g>
	<g class="st0">
		<path class="st1" d="M145.6,100.6l0.8-0.2v-4l-0.9-0.2v-1.1h2.6l0.1,0.9c0.2-0.3,0.5-0.6,0.8-0.8c0.3-0.2,0.7-0.3,1.1-0.3
			c0.7,0,1.2,0.2,1.5,0.6s0.5,1.1,0.5,1.9v2.8l0.8,0.2v1h-3.3v-1l0.7-0.2v-2.8c0-0.4-0.1-0.7-0.3-0.9c-0.2-0.2-0.4-0.3-0.8-0.3
			c-0.2,0-0.4,0-0.6,0.1c-0.2,0.1-0.3,0.2-0.5,0.4v3.5l0.7,0.2v1h-3.3V100.6z"/>
	</g>
	<g class="st0">
		<path class="st1" d="M156.5,101.8c-0.9,0-1.7-0.3-2.2-0.9c-0.6-0.6-0.8-1.4-0.8-2.3v-0.2c0-1,0.3-1.8,0.8-2.4
			c0.5-0.6,1.2-0.9,2.1-0.9c0.9,0,1.5,0.3,2,0.8c0.5,0.5,0.7,1.2,0.7,2.1v1h-3.9l0,0c0,0.4,0.2,0.8,0.4,1.1c0.3,0.3,0.6,0.4,1,0.4
			c0.4,0,0.7,0,1-0.1c0.3-0.1,0.5-0.2,0.8-0.4l0.5,1.1c-0.3,0.2-0.6,0.4-1,0.5S157.1,101.8,156.5,101.8z M156.4,96.4
			c-0.3,0-0.6,0.1-0.8,0.4c-0.2,0.2-0.3,0.6-0.3,1l0,0h2.1v-0.2c0-0.4-0.1-0.7-0.3-0.9C157,96.5,156.7,96.4,156.4,96.4z"/>
		<path class="st1" d="M160.1,100.6l0.8-0.2v-4l-0.9-0.2v-1.1h2.6l0.1,0.9c0.2-0.3,0.3-0.6,0.6-0.8c0.2-0.2,0.5-0.3,0.8-0.3
			c0.1,0,0.2,0,0.3,0c0.1,0,0.2,0,0.3,0.1l-0.2,1.6l-0.7,0c-0.3,0-0.5,0-0.6,0.1c-0.2,0.1-0.3,0.2-0.4,0.4v3.1l0.8,0.2v1h-3.4V100.6
			z"/>
	</g>
	<g class="st0">
		<path class="st1" d="M119.4,117.6l0.8-0.2v-4l-0.9-0.2v-1.1h2.7v5.2l0.8,0.2v1h-3.4V117.6z M122,110.6h-1.7v-1.3h1.7V110.6z"/>
		<path class="st1" d="M123.2,113.2v-1.1h2.6l0.1,0.9c0.2-0.3,0.5-0.6,0.8-0.7c0.3-0.2,0.7-0.3,1.1-0.3c0.4,0,0.8,0.1,1.1,0.3
			c0.3,0.2,0.5,0.5,0.7,0.8c0.2-0.3,0.5-0.6,0.8-0.8s0.7-0.3,1.1-0.3c0.6,0,1.1,0.2,1.5,0.7c0.4,0.4,0.6,1.1,0.6,2v2.7l0.8,0.2v1
			h-3.3v-1l0.8-0.2v-2.7c0-0.5-0.1-0.8-0.2-1c-0.2-0.2-0.4-0.3-0.7-0.3c-0.2,0-0.5,0.1-0.6,0.2c-0.2,0.1-0.3,0.3-0.4,0.5
			c0,0.1,0,0.1,0,0.2c0,0.1,0,0.1,0,0.2v3l0.7,0.2v1h-3.1v-1l0.7-0.2v-2.7c0-0.5-0.1-0.8-0.2-1c-0.2-0.2-0.4-0.3-0.7-0.3
			c-0.2,0-0.4,0-0.6,0.1c-0.2,0.1-0.3,0.2-0.4,0.4v3.5l0.8,0.2v1h-3.3v-1l0.8-0.2v-4L123.2,113.2z"/>
		<path class="st1" d="M138.9,118.6c0-0.1-0.1-0.2-0.1-0.3c0-0.1-0.1-0.2-0.1-0.3c-0.2,0.2-0.5,0.4-0.8,0.6s-0.6,0.2-1,0.2
			c-0.6,0-1.1-0.2-1.5-0.5s-0.6-0.8-0.6-1.4c0-0.6,0.2-1.1,0.7-1.4c0.5-0.3,1.2-0.5,2.1-0.5h0.9v-0.6c0-0.3-0.1-0.6-0.3-0.7
			c-0.2-0.2-0.4-0.3-0.8-0.3c-0.2,0-0.4,0-0.5,0.1c-0.2,0-0.3,0.1-0.4,0.2l-0.1,0.7h-1.3l0-1.4c0.3-0.2,0.7-0.4,1.1-0.5
			c0.4-0.1,0.9-0.2,1.3-0.2c0.8,0,1.5,0.2,2,0.6c0.5,0.4,0.8,1,0.8,1.7v2.7c0,0.1,0,0.2,0,0.3c0,0.1,0,0.2,0,0.3l0.5,0.1v1H138.9z
			 M137.4,117.5c0.3,0,0.5-0.1,0.7-0.2c0.2-0.1,0.4-0.3,0.5-0.4v-1h-0.9c-0.4,0-0.7,0.1-0.8,0.3s-0.3,0.4-0.3,0.6
			c0,0.2,0.1,0.4,0.2,0.5C137,117.4,137.2,117.5,137.4,117.5z"/>
		<path class="st1" d="M141.6,115.5c0-1,0.2-1.8,0.7-2.5c0.4-0.6,1.1-0.9,1.9-0.9c0.4,0,0.7,0.1,1,0.2c0.3,0.2,0.5,0.4,0.7,0.7
			l0.1-0.8h1.5v6.3c0,0.9-0.3,1.5-0.8,2c-0.5,0.5-1.3,0.8-2.2,0.8c-0.3,0-0.7,0-1-0.1s-0.7-0.2-1-0.4l0.3-1.2
			c0.3,0.1,0.6,0.2,0.8,0.3c0.3,0.1,0.6,0.1,0.9,0.1c0.4,0,0.7-0.1,1-0.4c0.2-0.3,0.3-0.6,0.3-1.1V118c-0.2,0.2-0.4,0.4-0.7,0.6
			c-0.3,0.1-0.6,0.2-0.9,0.2c-0.8,0-1.4-0.3-1.9-0.9s-0.7-1.4-0.7-2.3V115.5z M143.4,115.6c0,0.6,0.1,1,0.3,1.3
			c0.2,0.3,0.5,0.5,0.9,0.5c0.3,0,0.5,0,0.7-0.1c0.2-0.1,0.3-0.2,0.4-0.4V114c-0.1-0.2-0.3-0.3-0.4-0.5c-0.2-0.1-0.4-0.2-0.7-0.2
			c-0.4,0-0.7,0.2-0.9,0.6c-0.2,0.4-0.3,0.9-0.3,1.5V115.6z"/>
		<path class="st1" d="M151.6,118.8c-0.9,0-1.7-0.3-2.2-0.9c-0.6-0.6-0.8-1.4-0.8-2.3v-0.2c0-1,0.3-1.8,0.8-2.4
			c0.5-0.6,1.2-0.9,2.1-0.9c0.9,0,1.5,0.3,2,0.8c0.5,0.5,0.7,1.2,0.7,2.1v1h-3.9l0,0c0,0.4,0.2,0.8,0.4,1.1c0.3,0.3,0.6,0.4,1,0.4
			c0.4,0,0.7,0,1-0.1c0.3-0.1,0.5-0.2,0.8-0.4l0.5,1.1c-0.3,0.2-0.6,0.4-1,0.5S152.1,118.8,151.6,118.8z M151.5,113.4
			c-0.3,0-0.6,0.1-0.8,0.4c-0.2,0.2-0.3,0.6-0.3,1l0,0h2.1v-0.2c0-0.4-0.1-0.7-0.3-0.9C152.1,113.5,151.8,113.4,151.5,113.4z"/>
	</g>
	
		<linearGradient id="SVGID_1_" gradientUnits="userSpaceOnUse" x1="267.55" y1="377.27" x2="389.39" y2="377.27" gradientTransform="matrix(1 0 0 -1 0 416)">
		<stop  offset="0" style="stop-color:#990066"/>
		<stop  offset="0.19" style="stop-color:#780066"/>
		<stop  offset="0.4" style="stop-color:#5A0066"/>
		<stop  offset="0.61" style="stop-color:#440066"/>
		<stop  offset="0.81" style="stop-color:#370066"/>
		<stop  offset="1" style="stop-color:#330066"/>
	</linearGradient>
	<path class="st3" d="M272.5,13.7h111.8c2.8,0,5,2.2,5,5v40c0,2.8-2.2,5-5,5H272.5c-2.8,0-5-2.2-5-5v-40
		C267.5,16,269.8,13.7,272.5,13.7z"/>
	<g class="st0">
		<path class="st4" d="M306.7,38.4v-1h2.5l0.1,0.7c0.2-0.3,0.4-0.5,0.7-0.6s0.6-0.2,0.9-0.2c0.8,0,1.4,0.3,1.8,0.9s0.7,1.4,0.7,2.4
			v0.1c0,0.9-0.2,1.7-0.7,2.3s-1,0.9-1.8,0.9c-0.3,0-0.6-0.1-0.9-0.2s-0.5-0.3-0.7-0.5V45l0.8,0.2v1h-3.4v-1l0.8-0.2v-6.4
			L306.7,38.4z M311.6,40.6c0-0.6-0.1-1.1-0.3-1.5s-0.5-0.6-0.9-0.6c-0.3,0-0.5,0.1-0.7,0.2s-0.3,0.3-0.4,0.5V42
			c0.1,0.2,0.2,0.3,0.4,0.4s0.4,0.1,0.7,0.1c0.4,0,0.7-0.2,0.9-0.5s0.3-0.8,0.3-1.3V40.6z"/>
	</g>
	<g class="st0">
		<path class="st4" d="M314.2,42.7l0.8-0.2v-3.9l-0.9-0.2v-1h2.5l0.1,0.9c0.1-0.3,0.3-0.6,0.6-0.8s0.5-0.3,0.8-0.3
			c0.1,0,0.2,0,0.3,0s0.2,0,0.2,0l-0.2,1.6l-0.7,0c-0.3,0-0.5,0-0.6,0.1s-0.3,0.2-0.4,0.4v3.1l0.8,0.2v1h-3.4V42.7z"/>
	</g>
	<g class="st0">
		<path class="st4" d="M319,40.5c0-0.9,0.3-1.7,0.8-2.3s1.3-0.9,2.2-0.9c0.9,0,1.7,0.3,2.2,0.9s0.8,1.4,0.8,2.3v0.1
			c0,1-0.3,1.7-0.8,2.3s-1.3,0.9-2.2,0.9c-0.9,0-1.7-0.3-2.2-0.9s-0.8-1.4-0.8-2.3V40.5z M320.8,40.6c0,0.6,0.1,1,0.3,1.4
			s0.5,0.5,1,0.5c0.4,0,0.8-0.2,1-0.5s0.3-0.8,0.3-1.4v-0.1c0-0.6-0.1-1-0.3-1.4s-0.5-0.5-1-0.5s-0.8,0.2-1,0.5s-0.3,0.8-0.3,1.4
			V40.6z"/>
		<path class="st4" d="M328.7,42.5c0.3,0,0.5-0.1,0.7-0.3s0.3-0.4,0.3-0.7h1.5l0,0c0,0.6-0.2,1.2-0.7,1.6s-1.1,0.6-1.9,0.6
			c-0.9,0-1.7-0.3-2.2-0.9s-0.8-1.4-0.8-2.3v-0.2c0-0.9,0.3-1.7,0.8-2.3s1.3-0.9,2.2-0.9c0.5,0,1,0.1,1.4,0.2s0.7,0.4,1,0.6l0,1.7
			h-1.4l-0.3-1c-0.1-0.1-0.2-0.1-0.3-0.2s-0.3-0.1-0.4-0.1c-0.5,0-0.8,0.2-1,0.5s-0.3,0.8-0.3,1.4v0.2c0,0.6,0.1,1,0.3,1.4
			S328.3,42.5,328.7,42.5z"/>
		<path class="st4" d="M335.1,43.9c-0.9,0-1.6-0.3-2.2-0.9s-0.8-1.3-0.8-2.2v-0.2c0-0.9,0.3-1.7,0.8-2.3s1.2-0.9,2.1-0.9
			c0.9,0,1.5,0.3,2,0.8s0.7,1.2,0.7,2.1v0.9h-3.8l0,0c0,0.4,0.2,0.8,0.4,1s0.6,0.4,1,0.4c0.4,0,0.7,0,0.9-0.1s0.5-0.2,0.8-0.4
			l0.5,1.1c-0.3,0.2-0.6,0.4-1,0.5S335.6,43.9,335.1,43.9z M335,38.6c-0.3,0-0.6,0.1-0.8,0.4s-0.3,0.6-0.3,1l0,0h2.1v-0.2
			c0-0.4-0.1-0.7-0.3-0.9S335.3,38.6,335,38.6z"/>
		<path class="st4" d="M343.7,39.6h-1.1l-0.2-0.8c-0.1-0.1-0.3-0.2-0.4-0.2s-0.4-0.1-0.6-0.1c-0.3,0-0.5,0.1-0.7,0.2
			s-0.3,0.3-0.3,0.5c0,0.2,0.1,0.4,0.3,0.5s0.5,0.2,1,0.3c0.8,0.2,1.4,0.4,1.7,0.7s0.6,0.7,0.6,1.3c0,0.6-0.2,1-0.7,1.4
			s-1.1,0.5-1.9,0.5c-0.5,0-0.9-0.1-1.3-0.2s-0.8-0.3-1.1-0.6l0-1.4h1.2l0.2,0.8c0.1,0.1,0.2,0.1,0.4,0.2s0.4,0.1,0.6,0.1
			c0.3,0,0.6-0.1,0.8-0.2s0.3-0.3,0.3-0.5c0-0.2-0.1-0.3-0.3-0.5s-0.5-0.3-1-0.4c-0.7-0.2-1.3-0.4-1.7-0.7s-0.6-0.7-0.6-1.2
			c0-0.5,0.2-1,0.7-1.4s1.1-0.6,1.9-0.6c0.5,0,1,0.1,1.4,0.2s0.8,0.3,1,0.5L343.7,39.6z"/>
		<path class="st4" d="M349.8,39.6h-1.1l-0.2-0.8c-0.1-0.1-0.3-0.2-0.4-0.2s-0.4-0.1-0.6-0.1c-0.3,0-0.5,0.1-0.7,0.2
			s-0.3,0.3-0.3,0.5c0,0.2,0.1,0.4,0.3,0.5s0.5,0.2,1,0.3c0.8,0.2,1.4,0.4,1.7,0.7s0.6,0.7,0.6,1.3c0,0.6-0.2,1-0.7,1.4
			s-1.1,0.5-1.9,0.5c-0.5,0-0.9-0.1-1.3-0.2s-0.8-0.3-1.1-0.6l0-1.4h1.2l0.2,0.8c0.1,0.1,0.2,0.1,0.4,0.2s0.4,0.1,0.6,0.1
			c0.3,0,0.6-0.1,0.8-0.2s0.3-0.3,0.3-0.5c0-0.2-0.1-0.3-0.3-0.5s-0.5-0.3-1-0.4c-0.7-0.2-1.3-0.4-1.7-0.7s-0.6-0.7-0.6-1.2
			c0-0.5,0.2-1,0.7-1.4s1.1-0.6,1.9-0.6c0.5,0,1,0.1,1.4,0.2s0.8,0.3,1,0.5L349.8,39.6z"/>
	</g>
	<g class="st0">
		<path class="st1" d="M18,308.3v3.4c0,0.5,0.1,0.8,0.2,1.1c0.1,0.2,0.3,0.3,0.7,0.3c0.3,0,0.5-0.1,0.7-0.3c0.2-0.2,0.3-0.4,0.4-0.6
			v-3.9h1.6v4.2c0,0.3,0,0.7,0,1c0,0.3,0.1,0.6,0.1,0.9h-1.2l-0.3-0.9h0c-0.2,0.3-0.4,0.6-0.8,0.8s-0.7,0.3-1.2,0.3
			c-0.3,0-0.6,0-0.8-0.1c-0.2-0.1-0.4-0.2-0.6-0.4c-0.2-0.2-0.3-0.4-0.4-0.7c-0.1-0.3-0.1-0.7-0.1-1.2v-3.7H18z"/>
		<path class="st1" d="M25.5,312.7c0-0.2-0.1-0.3-0.2-0.4s-0.3-0.2-0.5-0.3c-0.2-0.1-0.4-0.2-0.7-0.2c-0.2-0.1-0.5-0.2-0.7-0.3
			c-0.2-0.1-0.4-0.3-0.5-0.6c-0.1-0.2-0.2-0.5-0.2-0.9c0-0.6,0.2-1,0.5-1.4c0.4-0.3,0.9-0.5,1.5-0.5c0.5,0,0.9,0,1.2,0.1
			c0.4,0.1,0.7,0.2,0.9,0.3l-0.3,1.1c-0.2-0.1-0.4-0.1-0.7-0.2c-0.3-0.1-0.6-0.1-0.9-0.1c-0.5,0-0.7,0.2-0.7,0.5
			c0,0.1,0.1,0.3,0.2,0.3c0.1,0.1,0.3,0.2,0.5,0.2c0.2,0.1,0.4,0.2,0.7,0.2c0.2,0.1,0.5,0.2,0.7,0.3c0.2,0.1,0.4,0.3,0.5,0.5
			c0.1,0.2,0.2,0.5,0.2,0.9c0,0.6-0.2,1.1-0.6,1.4c-0.4,0.3-1,0.5-1.7,0.5c-0.4,0-0.8-0.1-1.2-0.2c-0.4-0.1-0.7-0.2-0.9-0.4l0.4-1.2
			c0.2,0.1,0.4,0.2,0.7,0.3c0.3,0.1,0.6,0.2,0.9,0.2c0.2,0,0.4,0,0.6-0.1C25.4,313,25.5,312.9,25.5,312.7z"/>
		<path class="st1" d="M32.8,313.8c-0.2,0.2-0.6,0.4-1,0.5s-0.9,0.2-1.3,0.2c-1,0-1.7-0.3-2.1-0.8c-0.4-0.6-0.7-1.3-0.7-2.3
			c0-1.1,0.3-1.8,0.8-2.4s1.2-0.8,2.1-0.8c0.3,0,0.6,0,0.9,0.1s0.5,0.2,0.8,0.4c0.2,0.2,0.4,0.4,0.5,0.7c0.1,0.3,0.2,0.7,0.2,1.2
			c0,0.2,0,0.3,0,0.5s0,0.4-0.1,0.6h-3.6c0,0.5,0.2,0.9,0.4,1.1c0.2,0.3,0.6,0.4,1.1,0.4c0.3,0,0.6,0,0.9-0.2
			c0.3-0.1,0.5-0.2,0.6-0.3L32.8,313.8z M30.6,309.4c-0.4,0-0.7,0.1-0.9,0.4s-0.3,0.6-0.4,1h2.2c0-0.4,0-0.8-0.2-1
			C31.2,309.5,31,309.4,30.6,309.4z"/>
		<path class="st1" d="M37.4,309.8c-0.2-0.1-0.5-0.1-0.7-0.1c-0.3,0-0.5,0.1-0.7,0.2c-0.2,0.1-0.3,0.3-0.4,0.6v3.9h-1.6v-6h1.2
			l0.2,0.8h0c0.1-0.3,0.3-0.5,0.6-0.7s0.5-0.2,0.8-0.2c0.2,0,0.4,0,0.7,0.1L37.4,309.8z"/>
	</g>
	<path class="st1" d="M29.5,273.9c0.4,0,0.7,0.3,0.7,0.7c0,0.4-0.3,0.7-0.7,0.7s-0.7-0.3-0.7-0.7C28.8,274.2,29.1,273.9,29.5,273.9z
		"/>
	<circle class="st1" cx="23.7" cy="274.6" r="0.7"/>
	<path class="st5" d="M30.8,283.5v2.2h0.9c0.3,0,0.6,0,0.9,0.1c1,0.1,2,0.6,2.8,1.2c1,0.7,1.6,1.8,1.6,3v4.6H16.3V290
		c0-1.2,0.6-2.3,1.6-3c0.8-0.7,1.8-1.1,2.8-1.2c0.3-0.1,0.6-0.1,0.9-0.1h0.9v-2.2"/>
	<path class="st6" d="M19,272.5c0,1.8,0.1,2.6,0.1,4.4c-0.1,4.2,3.3,7.7,7.5,7.8c4.1,0,7.5-3.3,7.5-7.4c0,0,0,0,0,0v-5"/>
	<path class="st6" d="M19,272.4l0.6-4.6c1.4-0.4,8.1,3.6,11.2-1.4c0,0-0.8,2.5,3.3,5.4v0.6"/>
	<path class="st6" d="M36.8,274.7c0,1.2-1,2.1-2.2,2.2v-4.3C35.8,272.6,36.8,273.5,36.8,274.7z"/>
	<path class="st6" d="M16.9,274.2v0.7c0.2,1,1.1,1.8,2.1,1.8v-4.3C18,272.4,17.1,273.2,16.9,274.2z"/>
	<path class="st6" d="M24.5,279.2c0.5,0.7,1.3,1.1,2.1,1.1c0.8,0,1.6-0.4,2.1-1.1"/>
	<path class="st6" d="M16.9,273.2v-5.4c0-3.8,4.3-8.4,9.7-8.4s9.7,4.5,9.7,8.4v5.5"/>
	<path class="st1" d="M26.6,259.5c5.4,0,9.7,4.5,9.7,8.4v5.5h-0.4c0.3,0.4,0.4,0.8,0.4,1.2c0,1.2-1,2.1-2.2,2.1v0.5
		c0,2.5-1.3,4.9-3.4,6.3h0.1v2.2h0.9c0.3,0,0.6,0,0.9,0.1c1,0.1,2,0.6,2.8,1.2c1,0.7,1.6,1.8,1.6,3v4.6H16.3V290
		c0-1.2,0.6-2.3,1.6-3c0.8-0.7,1.8-1.1,2.8-1.2c0.3-0.1,0.6-0.1,0.9-0.1h0.9v-2.2h0.3c-2.2-1.5-3.5-4-3.5-6.6c0-0.2,0-0.5,0-0.7
		c0,0.2,0,0.4,0,0.6c-1.1,0-2-0.7-2.2-1.8v-0.7c0-0.4,0.2-0.7,0.4-1h-0.4v-5.4C16.9,263.9,21.2,259.4,26.6,259.5 M26.6,257.4
		c-6.6,0-11.7,5.6-11.7,10.4v5.4c0,0.2,0,0.3,0.1,0.5c0,0.1,0,0.1,0,0.2c0,0.1,0,0.2,0,0.3v0.7c0,0.1,0,0.2,0,0.3
		c0.2,1.4,1.1,2.5,2.3,3.1c0.3,2.1,1.2,4.1,2.7,5.6c-1.2,0.2-2.4,0.8-3.4,1.6c-1.5,1.1-2.3,2.8-2.4,4.6v4.6c0,1.1,0.9,2,2,2h20.7
		c1.1,0,2-0.9,2-2V290c0-1.8-0.9-3.5-2.3-4.6c-0.9-0.8-2-1.3-3.2-1.5c1.5-1.5,2.5-3.5,2.7-5.7c1.3-0.7,2.2-2.1,2.2-3.6
		c0-0.2,0-0.5-0.1-0.7c0-0.2,0.1-0.3,0.1-0.5v-5.5C38.3,263,33.2,257.5,26.6,257.4L26.6,257.4z"/>
	<line class="st7" x1="423.5" y1="171.8" x2="593.2" y2="251.2"/>
	<polygon class="st8" points="425.3,179 426.6,178.5 424,172.1 430.6,169.9 430.1,168.6 422.1,171.2 	"/>
	<line class="st7" x1="505" y1="307.7" x2="593.2" y2="353.8"/>
	<polygon class="st8" points="506.5,314.9 507.8,314.4 505.5,307.9 512.1,306.1 511.8,304.8 503.7,307 	"/>
	<line class="st7" x1="415.5" y1="183.6" x2="595" y2="341.1"/>
	<polygon class="st8" points="415.2,190.9 416.6,190.8 415.9,183.9 422.8,183.7 422.7,182.3 414.3,182.6 	"/>
	<line class="st7" x1="504.6" y1="278.5" x2="593.2" y2="160.9"/>
	<polygon class="st8" points="511.9,278.3 511.7,276.9 504.9,278.1 504.2,271.3 502.8,271.4 503.7,279.8 	"/>
	<line class="st7" x1="510.6" y1="294.8" x2="593.2" y2="262.4"/>
	<polygon class="st8" points="517,298.4 517.5,297.1 511.1,294.6 514.1,288.4 512.8,287.8 509.2,295.4 	"/>
	<circle class="st9" cx="494.1" cy="293.5" r="7.8"/>
	<line class="st10" x1="499.6" y1="299" x2="488.6" y2="288"/>
	<circle class="st9" cx="405.4" cy="169.2" r="7.8"/>
	<line class="st10" x1="410.9" y1="174.7" x2="400" y2="163.7"/>
	
		<ellipse transform="matrix(0.1602 -0.9871 0.9871 0.1602 44.7478 387.8748)" class="st9" cx="250.3" cy="167.6" rx="7.8" ry="7.8"/>
	<line class="st10" x1="255.8" y1="173.1" x2="244.8" y2="162.1"/>
	<line class="st7" x1="231.4" y1="171.1" x2="59.8" y2="247.9"/>
	<polygon class="st8" points="224.8,167.8 224.4,169.1 230.9,171.3 228.2,177.7 229.5,178.2 232.8,170.5 	"/>
</g>
<g id="schrift">
	<g class="st0">
		<path class="st1" d="M591.1,185.9c0-0.2,0.1-0.4,0.3-0.6c0.2-0.2,0.4-0.2,0.7-0.2c0.3,0,0.5,0.1,0.7,0.2c0.2,0.2,0.3,0.4,0.3,0.6
			c0,0.2-0.1,0.4-0.3,0.6c-0.2,0.2-0.4,0.2-0.7,0.2c-0.3,0-0.5-0.1-0.7-0.2C591.2,186.3,591.1,186.1,591.1,185.9z M591.3,187.6h1.6
			v6h-1.6V187.6z"/>
		<path class="st1" d="M597.8,193.6v-3.3c0-0.6-0.1-0.9-0.2-1.2c-0.1-0.2-0.3-0.3-0.6-0.3c-0.3,0-0.5,0.1-0.7,0.2
			c-0.2,0.1-0.3,0.3-0.4,0.6v4h-1.6v-6h1.2l0.2,0.8h0c0.2-0.3,0.4-0.5,0.7-0.7c0.3-0.2,0.7-0.3,1.1-0.3c0.4,0,0.7,0.1,0.9,0.2
			c0.2,0.2,0.4,0.4,0.6,0.8c0.2-0.3,0.4-0.6,0.7-0.7c0.3-0.2,0.6-0.3,1-0.3c0.3,0,0.6,0,0.9,0.1s0.4,0.2,0.6,0.4
			c0.1,0.2,0.3,0.5,0.3,0.8c0.1,0.3,0.1,0.7,0.1,1.2v3.6h-1.6v-3.4c0-0.5-0.1-0.8-0.2-1.1c-0.1-0.2-0.3-0.4-0.7-0.4
			c-0.3,0-0.5,0.1-0.7,0.2c-0.2,0.2-0.3,0.4-0.4,0.6v3.9H597.8z"/>
		<path class="st1" d="M604.1,188c0.3-0.1,0.7-0.3,1.1-0.3c0.4-0.1,0.9-0.1,1.4-0.1c0.4,0,0.8,0,1,0.2c0.3,0.1,0.5,0.2,0.7,0.4
			s0.3,0.4,0.3,0.7c0.1,0.3,0.1,0.5,0.1,0.9c0,0.4,0,0.7,0,1.1c0,0.4,0,0.7,0,1c0,0.3,0,0.7,0,1c0,0.3,0.1,0.6,0.2,0.9h-1.3
			l-0.3-0.8h-0.1c-0.2,0.2-0.4,0.5-0.7,0.6c-0.3,0.2-0.6,0.3-1.1,0.3c-0.3,0-0.5,0-0.8-0.1s-0.4-0.2-0.6-0.4
			c-0.2-0.2-0.3-0.3-0.4-0.6c-0.1-0.2-0.1-0.4-0.1-0.7c0-0.4,0.1-0.7,0.2-0.9s0.4-0.5,0.7-0.6c0.3-0.2,0.7-0.3,1.1-0.3
			c0.4-0.1,0.9-0.1,1.4-0.1c0.1-0.4,0-0.8-0.1-1c-0.1-0.2-0.4-0.3-0.8-0.3c-0.3,0-0.6,0-1,0.1c-0.3,0.1-0.6,0.1-0.9,0.3L604.1,188z
			 M606,192.4c0.3,0,0.6-0.1,0.7-0.2c0.2-0.1,0.3-0.3,0.4-0.4V191c-0.2,0-0.5,0-0.7,0c-0.2,0-0.4,0.1-0.6,0.1
			c-0.2,0.1-0.3,0.1-0.4,0.2c-0.1,0.1-0.2,0.2-0.2,0.4c0,0.2,0.1,0.4,0.2,0.5C605.6,192.4,605.8,192.4,606,192.4z"/>
		<path class="st1" d="M615.1,193.6c0,0.9-0.2,1.5-0.7,1.9c-0.5,0.4-1.1,0.6-2,0.6c-0.6,0-1,0-1.4-0.1s-0.6-0.2-0.8-0.3l0.3-1.2
			c0.2,0.1,0.4,0.1,0.6,0.2c0.2,0.1,0.5,0.1,0.9,0.1c0.5,0,0.9-0.1,1.1-0.4c0.2-0.2,0.3-0.6,0.3-1v-0.4h0c-0.3,0.4-0.8,0.6-1.5,0.6
			c-0.8,0-1.4-0.2-1.7-0.7c-0.4-0.5-0.6-1.2-0.6-2.3c0-1.1,0.3-1.9,0.8-2.4c0.5-0.6,1.3-0.8,2.2-0.8c0.5,0,1,0,1.4,0.1
			c0.4,0.1,0.7,0.2,1,0.3V193.6z M612.5,192.5c0.3,0,0.5-0.1,0.7-0.2c0.2-0.1,0.3-0.3,0.4-0.6v-2.7c-0.2-0.1-0.6-0.2-0.9-0.2
			c-0.4,0-0.7,0.2-0.9,0.5c-0.2,0.3-0.3,0.8-0.3,1.4c0,0.6,0.1,1,0.3,1.3C611.8,192.3,612.1,192.5,612.5,192.5z"/>
		<path class="st1" d="M621.3,193.1c-0.2,0.2-0.6,0.4-1,0.5s-0.8,0.2-1.3,0.2c-1,0-1.7-0.3-2.1-0.8c-0.4-0.6-0.7-1.3-0.7-2.3
			c0-1.1,0.3-1.8,0.8-2.4s1.2-0.8,2.1-0.8c0.3,0,0.6,0,0.9,0.1c0.3,0.1,0.5,0.2,0.8,0.4c0.2,0.2,0.4,0.4,0.5,0.7
			c0.1,0.3,0.2,0.7,0.2,1.2c0,0.2,0,0.3,0,0.5s0,0.4-0.1,0.6h-3.6c0,0.5,0.2,0.9,0.4,1.1c0.2,0.3,0.6,0.4,1.1,0.4
			c0.3,0,0.6,0,0.9-0.2c0.3-0.1,0.5-0.2,0.6-0.3L621.3,193.1z M619,188.7c-0.4,0-0.7,0.1-0.9,0.4s-0.3,0.6-0.4,1h2.2
			c0-0.4,0-0.8-0.2-1C619.7,188.8,619.4,188.7,619,188.7z"/>
		<path class="st1" d="M629.9,193.2c-0.2,0.2-0.5,0.3-0.9,0.4c-0.3,0.1-0.7,0.1-1,0.1c-0.5,0-0.9-0.1-1.2-0.2
			c-0.3-0.2-0.6-0.4-0.8-0.6c-0.2-0.3-0.4-0.6-0.5-1c-0.1-0.4-0.1-0.8-0.1-1.3c0-1,0.2-1.8,0.7-2.3c0.5-0.5,1.1-0.8,2-0.8
			c0.4,0,0.8,0,1.1,0.1c0.3,0.1,0.5,0.2,0.7,0.3l-0.4,1.3c-0.2-0.1-0.4-0.2-0.5-0.2s-0.4-0.1-0.6-0.1c-0.4,0-0.8,0.1-1,0.4
			c-0.2,0.3-0.3,0.7-0.3,1.4c0,0.3,0,0.5,0.1,0.7c0.1,0.2,0.1,0.4,0.3,0.6c0.1,0.2,0.3,0.3,0.4,0.4s0.4,0.1,0.6,0.1
			c0.3,0,0.5,0,0.7-0.1c0.2-0.1,0.3-0.1,0.5-0.2L629.9,193.2z"/>
		<path class="st1" d="M634.1,189.1c-0.2-0.1-0.5-0.1-0.7-0.1c-0.3,0-0.5,0.1-0.7,0.2c-0.2,0.1-0.3,0.3-0.4,0.6v3.9h-1.6v-6h1.2
			l0.2,0.8h0c0.1-0.3,0.3-0.5,0.6-0.7c0.2-0.2,0.5-0.2,0.8-0.2c0.2,0,0.4,0,0.7,0.1L634.1,189.1z"/>
		<path class="st1" d="M639.8,193.1c-0.2,0.2-0.6,0.4-1,0.5s-0.9,0.2-1.3,0.2c-1,0-1.7-0.3-2.1-0.8c-0.4-0.6-0.7-1.3-0.7-2.3
			c0-1.1,0.3-1.8,0.8-2.4s1.2-0.8,2.1-0.8c0.3,0,0.6,0,0.9,0.1c0.3,0.1,0.5,0.2,0.8,0.4c0.2,0.2,0.4,0.4,0.5,0.7
			c0.1,0.3,0.2,0.7,0.2,1.2c0,0.2,0,0.3,0,0.5s0,0.4-0.1,0.6h-3.6c0,0.5,0.2,0.9,0.4,1.1c0.2,0.3,0.6,0.4,1.1,0.4
			c0.3,0,0.6,0,0.9-0.2c0.3-0.1,0.5-0.2,0.6-0.3L639.8,193.1z M637.6,188.7c-0.4,0-0.7,0.1-0.9,0.4s-0.3,0.6-0.4,1h2.2
			c0-0.4,0-0.8-0.2-1C638.2,188.8,637.9,188.7,637.6,188.7z"/>
		<path class="st1" d="M641.1,188c0.3-0.1,0.7-0.3,1.1-0.3c0.4-0.1,0.9-0.1,1.4-0.1c0.4,0,0.8,0,1,0.2c0.3,0.1,0.5,0.2,0.7,0.4
			s0.3,0.4,0.3,0.7c0.1,0.3,0.1,0.5,0.1,0.9c0,0.4,0,0.7,0,1.1c0,0.4,0,0.7,0,1c0,0.3,0,0.7,0,1c0,0.3,0.1,0.6,0.2,0.9h-1.3
			l-0.3-0.8h-0.1c-0.2,0.2-0.4,0.5-0.7,0.6c-0.3,0.2-0.6,0.3-1.1,0.3c-0.3,0-0.5,0-0.8-0.1s-0.4-0.2-0.6-0.4
			c-0.2-0.2-0.3-0.3-0.4-0.6c-0.1-0.2-0.1-0.4-0.1-0.7c0-0.4,0.1-0.7,0.2-0.9s0.4-0.5,0.7-0.6c0.3-0.2,0.7-0.3,1.1-0.3
			c0.4-0.1,0.9-0.1,1.4-0.1c0.1-0.4,0-0.8-0.1-1c-0.1-0.2-0.4-0.3-0.8-0.3c-0.3,0-0.6,0-1,0.1c-0.3,0.1-0.6,0.1-0.9,0.3L641.1,188z
			 M643.1,192.4c0.3,0,0.6-0.1,0.7-0.2c0.2-0.1,0.3-0.3,0.4-0.4V191c-0.2,0-0.5,0-0.7,0c-0.2,0-0.4,0.1-0.6,0.1
			c-0.2,0.1-0.3,0.1-0.4,0.2c-0.1,0.1-0.2,0.2-0.2,0.4c0,0.2,0.1,0.4,0.2,0.5C642.6,192.4,642.8,192.4,643.1,192.4z"/>
	</g>
	<g class="st0">
		<path class="st1" d="M646.4,187.6h0.8v-1.1l1.6-0.4v1.6h1.5v1.3h-1.5v2.3c0,0.4,0,0.7,0.1,0.9c0.1,0.2,0.2,0.3,0.5,0.3
			c0.2,0,0.3,0,0.4,0s0.2-0.1,0.4-0.1l0.3,1.2c-0.2,0.1-0.5,0.2-0.8,0.3c-0.3,0.1-0.6,0.1-0.9,0.1c-0.6,0-1-0.1-1.2-0.4
			c-0.3-0.3-0.4-0.8-0.4-1.4v-3h-0.8V187.6z"/>
	</g>
	<g class="st0">
		<path class="st1" d="M650.9,190.6c0-1,0.2-1.8,0.7-2.3c0.5-0.5,1.2-0.8,2.1-0.8c0.5,0,0.9,0.1,1.2,0.2c0.4,0.2,0.6,0.4,0.9,0.6
			c0.2,0.3,0.4,0.6,0.5,1s0.2,0.8,0.2,1.3c0,1-0.2,1.8-0.7,2.3c-0.5,0.5-1.2,0.8-2.1,0.8c-0.5,0-0.9-0.1-1.2-0.2
			c-0.4-0.2-0.6-0.4-0.9-0.6c-0.2-0.3-0.4-0.6-0.5-1C651,191.5,650.9,191.1,650.9,190.6z M652.5,190.6c0,0.3,0,0.5,0.1,0.7
			c0,0.2,0.1,0.4,0.2,0.6c0.1,0.2,0.2,0.3,0.4,0.4c0.2,0.1,0.3,0.1,0.6,0.1c0.4,0,0.7-0.1,0.9-0.4c0.2-0.3,0.3-0.8,0.3-1.4
			c0-0.6-0.1-1-0.3-1.3c-0.2-0.3-0.5-0.5-0.9-0.5c-0.4,0-0.7,0.1-0.9,0.4S652.5,190,652.5,190.6z"/>
		<path class="st1" d="M661,189.1c-0.2-0.1-0.5-0.1-0.7-0.1c-0.3,0-0.5,0.1-0.7,0.2c-0.2,0.1-0.3,0.3-0.4,0.6v3.9h-1.6v-6h1.2
			l0.2,0.8h0c0.1-0.3,0.3-0.5,0.6-0.7c0.2-0.2,0.5-0.2,0.8-0.2c0.2,0,0.4,0,0.7,0.1L661,189.1z"/>
	</g>
	<path class="st11" d="M615.6,176.7c-1.7,0-3-1.3-3-3v-4.6c0-2.1,0.9-4.1,2.4-5.4c0.2-0.1,0.3-0.3,0.5-0.4c-1.9-1.8-3-4.3-3-6.9
		v-0.3c-2-1.4-2.8-3.9-2-6.2l-1-3.3c-1-3.4-0.3-7,1.8-9.8c1.6-2.3,4.1-3.7,6.9-3.9h7.5c1.9,0,3.7,1,4.7,2.7c2.2,0.3,4.3,1.5,5.7,3.3
		c1.7,2.3,2,5.6,1,10.8c0.2,0.6,0.3,1.3,0.3,1.9c0,1.8-0.9,3.5-2.4,4.5v0.3c0.1,2.6-1,5-2.9,6.8c0.2,0.2,0.5,0.4,0.7,0.6
		c1.4,1.4,2.2,3.3,2.3,5.3v4.6c0,1.7-1.3,3-3,3L615.6,176.7z"/>
	<path class="st12" d="M625.8,134c1.7,0,3.3,1,4,2.6c2.2,0.4,4.2,1.1,5.5,3c1.5,2.1,1.8,5.2,0.8,10.3c0.3,0.6,0.4,1.2,0.4,1.8
		c0,1.6-1,3.2-2.4,3.9v0.9c0,2.7-1.3,5.3-3.5,6.9c0.6,0.3,1.2,0.7,1.6,1.2c1.3,1.2,2,2.8,2,4.6v4.6c0,1.1-0.9,2-2,2h-16.5
		c-1.1,0-2-0.9-2-2v-4.6c0.1-2.4,1.5-4.7,3.6-5.8c-2.3-1.6-3.7-4.2-3.7-7v-0.9c-2-1.1-2.8-3.5-1.9-5.6l-1.1-3.6
		c-0.9-3.1-0.3-6.4,1.7-8.9c1.4-2,3.6-3.3,6.1-3.5L625.8,134 M625.8,132h-7.5c-3.1,0.2-5.9,1.7-7.7,4.3c-2.3,3-3.1,7-2,10.7l0.9,3
		c-0.2,0.6-0.3,1.2-0.3,1.8c0,1.9,0.8,3.7,2.3,4.9c0,2.5,0.9,4.8,2.6,6.7c-1.6,1.6-2.5,3.7-2.5,5.9v4.6c0,2.2,1.8,4,4,4h16.5
		c2.2,0,4-1.8,4-4v-4.6c0-2.3-0.9-4.4-2.5-6c1.6-1.8,2.4-4.1,2.5-6.5c1.5-1.2,2.4-3.1,2.4-5c0-0.7-0.1-1.4-0.3-2
		c1-5.4,0.6-8.8-1.2-11.3c-1.4-1.9-3.5-3.2-5.8-3.6C629.9,133,627.9,131.9,625.8,132L625.8,132z"/>
	<path class="st11" d="M615.6,174.7c-0.6,0-1-0.4-1-1v-4.6c0-1.5,0.6-2.9,1.8-3.9c0.8-0.8,1.9-1.3,3-1.5c0.3-0.1,0.5-0.1,0.8-0.1
		v-0.1c-3.3-0.8-5.6-3.8-5.6-7.1v-1.5c-1.4-0.5-2.3-1.7-2.3-3.2c0-0.6,0.2-1.1,0.5-1.6l-1.2-4c-0.8-2.8-0.2-5.7,1.5-8
		c1.2-1.8,3.1-2.9,5.3-3.1h7.5c1.5,0,2.9,1,3.3,2.5c2.2,0.3,4.2,1,5.5,2.7c1.4,1.9,1.5,4.9,0.5,9.8c0,0,0,0.1,0,0.1
		c0.9,1.6,0.3,3.7-1.3,4.6c-0.2,0.1-0.4,0.2-0.7,0.3v1.6c0,3.3-2.2,6.3-5.4,7.1l0,0c0.3,0,0.6,0,0.9,0.1c1.1,0.2,2.2,0.7,2.9,1.6
		c1.1,1,1.7,2.4,1.7,3.9v4.6c0,0.6-0.4,1-1,1L615.6,174.7z"/>
	<path class="st1" d="M625.8,136c1.3,0,2.3,1,2.4,2.3c0,0,0,0.1,0,0.1c5.5,0.7,7.7,2.4,5.9,11.4h-0.6c0.6,0.5,1,1.2,1,2
		c0,1.3-1.1,2.3-2.4,2.4l-0.1,0.1v2.4c0,3.2-2.3,5.9-5.4,6.3v1.9h0.8c0.3,0,0.6,0,0.9,0.1c0.9,0.1,1.8,0.6,2.4,1.3
		c0.9,0.8,1.4,2,1.4,3.2v4.6h-16.5v-4.6c0-1.2,0.5-2.4,1.4-3.2c0.7-0.7,1.6-1.1,2.5-1.3c0.3-0.1,0.5-0.1,0.8-0.1h0.8v-1.9H621
		c-3.2-0.4-5.5-3.1-5.5-6.3v-2.4l0,0c-1.3,0-2.3-1.1-2.3-2.4c0-0.7,0.3-1.3,0.8-1.7c0.1-0.1,0.2-0.2,0.3-0.3h-0.7l-1.2-3.9
		c-1.5-5,2.5-9.8,5.8-9.8L625.8,136 M625.9,133.9h-7.5c-2.5,0.2-4.7,1.4-6.1,3.5c-1.9,2.5-2.6,5.8-1.7,8.9l1.1,3.6
		c-0.9,2.1-0.1,4.5,1.9,5.6v0.9c0,2.8,1.4,5.4,3.7,7c-0.6,0.3-1.1,0.7-1.6,1.1c-1.3,1.2-2.1,2.9-2.1,4.7v4.6c0,1.1,0.9,2,2,2h16.5
		c1.1,0,2-0.9,2-2v-4.6c0-1.7-0.7-3.4-2-4.6c-0.5-0.5-1-0.9-1.6-1.2c2.3-1.6,3.6-4.2,3.5-6.9v-0.9c1.5-0.7,2.4-2.2,2.4-3.9
		c0-0.6-0.1-1.2-0.4-1.8c1-5.1,0.8-8.2-0.8-10.3c-1.3-1.8-3.4-2.6-5.5-3C629.1,134.9,627.6,133.9,625.9,133.9L625.9,133.9z"/>
	<path class="st1" d="M627,150.5c0.4,0,0.7,0.3,0.7,0.7c0,0.4-0.3,0.7-0.7,0.7c-0.4,0-0.7-0.3-0.7-0.7
		C626.3,150.8,626.6,150.5,627,150.5C627,150.5,627,150.5,627,150.5z"/>
	<circle class="st1" cx="621.1" cy="151.2" r="0.7"/>
	<path class="st6" d="M626.8,156.5c-0.2,1.4-1.3,2.4-2.7,2.4c-1.4,0-2.6-1-2.8-2.4H626.8z"/>
	<polyline class="st6" points="615.6,149.3 615.6,148.5 615.6,146.4 	"/>
	<path class="st6" d="M615.6,154.1v-0.4"/>
	<path class="st6" d="M615.6,153.3v-4c-0.6,0-1.2,0.3-1.6,0.7c-0.4,0.4-0.7,1-0.7,1.7c0,1.3,1.1,2.4,2.4,2.4"/>
	<path class="st6" d="M632.4,149.6v4c0.6,0,1.3-0.2,1.7-0.7c0.4-0.4,0.7-1,0.7-1.7c0-1.3-1.1-2.4-2.4-2.4"/>
	<path class="st6" d="M621.3,156.5c0.2,1.4,1.4,2.4,2.8,2.4c1.4,0,2.6-1,2.7-2.4H621.3L621.3,156.5z"/>
	<path class="st6" d="M613.6,149.7l-1.2-4c-1.5-5.1,2.6-10,5.9-10h7.7c1.3,0,2.4,1,2.4,2.3c0,0,0,0.1,0,0.1c5.6,0.7,7.8,2.5,6,11.6"
		/>
	<path class="st6" d="M615.6,148.4h2.4c0.9,0,1.6-0.7,1.6-1.6c0-0.6,0.2-1.3,0.7-1.7c0.5-0.4,1.1-0.7,1.7-0.7h0.5
		c1.5,0,2.9-0.6,4-1.6l1.2-1.2v0.4c0,1.8,0.9,3.5,2.3,4.6l2.5,1.8"/>
	<path class="st6" d="M625.3,154.1h-4.1c-0.9,0-1.6,0.7-1.6,1.6v0.6c-0.1,0.6-0.6,1-1.2,1c-0.7,0-1.2-0.5-1.2-1.2v-1.2
		c0-0.9-0.7-1.6-1.6-1.6v3.2c0,3.2,2.4,6,5.6,6.4c0.2,0,0.6,0.1,0.8,0.1h4.7c3.3-0.3,5.7-3.1,5.7-6.4v-3.3c-0.9,0-1.6,0.7-1.6,1.6
		v1.2c0,0.7-0.5,1.2-1.2,1.2c-0.6,0-1.1-0.4-1.2-1v-0.6c0-0.9-0.7-1.6-1.6-1.6h-1.7"/>
	<path class="st6" d="M621.3,163.2v1.6h-0.8c-0.3,0-0.5,0-0.8,0.1c-1,0.2-1.9,0.6-2.6,1.3c-0.9,0.8-1.5,2-1.5,3.2v4.6h16.8v-4.6
		c0-1.2-0.5-2.4-1.4-3.2c-0.7-0.7-1.5-1.2-2.5-1.3c-0.3-0.1-0.6-0.1-0.9-0.1h-0.8v-1.6"/>
</g>
<g id="Ebene_4">
	<rect x="521.9" y="310.6" class="st11" width="68.7" height="17.8"/>
	<rect x="463.9" y="194.6" class="st11" width="68.7" height="17.8"/>
	
		<linearGradient id="SVGID_2_" gradientUnits="userSpaceOnUse" x1="183.16" y1="124.81" x2="253.16" y2="124.81" gradientTransform="matrix(1 0 0 -1 0 416)">
		<stop  offset="0" style="stop-color:#990066"/>
		<stop  offset="0.19" style="stop-color:#780066"/>
		<stop  offset="0.4" style="stop-color:#5A0066"/>
		<stop  offset="0.61" style="stop-color:#440066"/>
		<stop  offset="0.81" style="stop-color:#370066"/>
		<stop  offset="1" style="stop-color:#330066"/>
	</linearGradient>
	<path class="st13" d="M188.2,262.4h60c2.8,0,5,2.2,5,5V315c0,2.8-2.2,5-5,5h-60c-2.8,0-5-2.2-5-5v-47.6
		C183.2,264.6,185.4,262.4,188.2,262.4z"/>
	<g class="st0">
		<path class="st4" d="M211.5,290.3l-0.7,0.1l1.5,5.1l0.1,0.5h0l0.1-0.5l1.5-5.1l-0.6-0.1v-1h3.1v1l-0.7,0.1l-2.5,7.4h-1.8l-2.5-7.4
			l-0.7-0.1v-1h3.1V290.3z"/>
	</g>
	<g class="st0">
		<path class="st4" d="M216.8,294.6c0-0.9,0.3-1.7,0.8-2.3s1.3-0.9,2.2-0.9c0.9,0,1.7,0.3,2.2,0.9s0.8,1.4,0.8,2.3v0.1
			c0,1-0.3,1.7-0.8,2.3s-1.3,0.9-2.2,0.9c-0.9,0-1.7-0.3-2.2-0.9s-0.8-1.4-0.8-2.3V294.6z M218.6,294.7c0,0.6,0.1,1,0.3,1.4
			s0.5,0.5,1,0.5c0.4,0,0.8-0.2,1-0.5s0.3-0.8,0.3-1.4v-0.1c0-0.6-0.1-1-0.3-1.4s-0.5-0.5-1-0.5s-0.8,0.2-1,0.5s-0.3,0.8-0.3,1.4
			V294.7z"/>
	</g>
	<g class="st0">
		<path class="st4" d="M223.3,289.7v-1h2.6v7.9l0.8,0.2v1h-3.4v-1l0.8-0.2v-6.7L223.3,289.7z"/>
	</g>
	<path class="st14" d="M210,250.3c4.6-4.5,12.1-4.5,16.6,0.1c4.5,4.6,4.5,12.1-0.1,16.6c-4.6,4.5-12.1,4.5-16.6-0.1
		c-2.2-2.2-3.4-5.1-3.4-8.2c0-2.6,0.8-5.1,2.4-7.1"/>
	<path class="st15" d="M218.2,264.3H214c-0.6,0-0.8-0.2-0.8-0.8V257c0-0.6,0.2-0.8,0.8-0.8h8.4c0.6,0,0.8,0.2,0.8,0.8v6.5
		c0,0.5-0.2,0.8-0.8,0.8C221,264.3,219.6,264.3,218.2,264.3z"/>
	<path class="st15" d="M213.9,255.7c0-1.8,1-3.4,2.6-4.1c2.1-0.9,4.6,0,5.5,2.1c0.1,0.2,0.2,0.5,0.2,0.7c0.1,0.4,0.1,0.8,0.2,1.2"/>
	<path class="st4" d="M217.5,261.5L217.5,261.5v0.9c0,0.2,0.1,0.2,0.3,0.2h0.8c0.2,0,0.3-0.1,0.3-0.3v-1.6c0-0.2,0.1-0.3,0.2-0.4
		c0.5-0.3,0.8-0.9,0.6-1.4c-0.2-0.6-0.8-1-1.4-1c-0.7-0.1-1.3,0.3-1.6,0.9c-0.2,0.6,0,1.2,0.6,1.5c0.2,0.1,0.3,0.3,0.3,0.5
		C217.5,261,217.5,261.3,217.5,261.5z"/>
	
		<linearGradient id="SVGID_3_" gradientUnits="userSpaceOnUse" x1="406.83" y1="123.81" x2="476.83" y2="123.81" gradientTransform="matrix(1 0 0 -1 0 416)">
		<stop  offset="0" style="stop-color:#990066"/>
		<stop  offset="0.19" style="stop-color:#780066"/>
		<stop  offset="0.4" style="stop-color:#5A0066"/>
		<stop  offset="0.61" style="stop-color:#440066"/>
		<stop  offset="0.81" style="stop-color:#370066"/>
		<stop  offset="1" style="stop-color:#330066"/>
	</linearGradient>
	<path class="st16" d="M411.8,263.4h60c2.8,0,5,2.2,5,5V316c0,2.8-2.2,5-5,5h-60c-2.8,0-5-2.2-5-5v-47.6
		C406.8,265.6,409.1,263.4,411.8,263.4z"/>
	<g class="st0">
		<path class="st4" d="M435.1,291.3l-0.7,0.1l1.5,5.1l0.1,0.5h0l0.1-0.5l1.5-5.1l-0.6-0.1v-1h3.1v1l-0.7,0.1l-2.5,7.4h-1.8l-2.5-7.4
			l-0.7-0.1v-1h3.1V291.3z"/>
	</g>
	<g class="st0">
		<path class="st4" d="M440.5,295.6c0-0.9,0.3-1.7,0.8-2.3s1.3-0.9,2.2-0.9c0.9,0,1.7,0.3,2.2,0.9s0.8,1.4,0.8,2.3v0.1
			c0,1-0.3,1.7-0.8,2.3s-1.3,0.9-2.2,0.9c-0.9,0-1.7-0.3-2.2-0.9s-0.8-1.4-0.8-2.3V295.6z M442.2,295.7c0,0.6,0.1,1,0.3,1.4
			s0.5,0.5,1,0.5c0.4,0,0.8-0.2,1-0.5s0.3-0.8,0.3-1.4v-0.1c0-0.6-0.1-1-0.3-1.4s-0.5-0.5-1-0.5s-0.8,0.2-1,0.5s-0.3,0.8-0.3,1.4
			V295.7z"/>
	</g>
	<g class="st0">
		<path class="st4" d="M446.9,290.7v-1h2.6v7.9l0.8,0.2v1H447v-1l0.8-0.2v-6.7L446.9,290.7z"/>
	</g>
	<path class="st17" d="M433.7,251.3c4.6-4.5,12.1-4.5,16.6,0.2c4.5,4.6,4.5,12.1-0.2,16.6c-4.6,4.5-12.1,4.5-16.6-0.2
		c-2.1-2.2-3.4-5.1-3.4-8.2c0-2.6,0.8-5.1,2.4-7.1"/>
	<path class="st18" d="M441.9,265.3h-4.2c-0.6,0-0.8-0.2-0.8-0.8V258c0-0.6,0.2-0.8,0.8-0.8h8.5c0.5,0,0.8,0.2,0.8,0.8v6.5
		c0,0.5-0.2,0.8-0.8,0.8C444.7,265.3,443.3,265.3,441.9,265.3z"/>
	<path class="st18" d="M437.5,256.7c0-1.8,1-3.4,2.6-4.1c2.1-0.9,4.6,0,5.5,2.1c0.1,0.2,0.2,0.5,0.2,0.7c0.1,0.4,0.1,0.8,0.2,1.2"/>
	<path class="st19" d="M441.2,262.5L441.2,262.5v0.9c0,0.2,0.1,0.2,0.3,0.2h0.8c0.2,0,0.3-0.1,0.3-0.3v-1.6c0-0.2,0.1-0.3,0.2-0.4
		c0.5-0.3,0.8-0.9,0.6-1.4c-0.2-0.6-0.8-1-1.5-1c-0.7-0.1-1.3,0.3-1.6,0.9c-0.2,0.6,0,1.2,0.5,1.5c0.2,0.1,0.3,0.3,0.3,0.5
		C441.2,262,441.2,262.3,441.2,262.5z"/>
	
		<linearGradient id="SVGID_4_" gradientUnits="userSpaceOnUse" x1="264.64" y1="255.12" x2="389.39" y2="255.12" gradientTransform="matrix(1 0 0 -1 0 416)">
		<stop  offset="0" style="stop-color:#990066"/>
		<stop  offset="0.19" style="stop-color:#780066"/>
		<stop  offset="0.4" style="stop-color:#5A0066"/>
		<stop  offset="0.61" style="stop-color:#440066"/>
		<stop  offset="0.81" style="stop-color:#370066"/>
		<stop  offset="1" style="stop-color:#330066"/>
	</linearGradient>
	<path class="st20" d="M269.6,135.9h114.8c2.8,0,5,2.2,5,5v40c0,2.8-2.2,5-5,5H269.6c-2.8,0-5-2.2-5-5v-40
		C264.6,138.1,266.9,135.9,269.6,135.9z"/>
	<g class="st0">
		<path class="st4" d="M294.4,166.9l0.9-0.2v-6.1l-0.9-0.2v-1h6.8v2.3h-1.3l-0.1-1H297v2.3h3v1.3h-3v2.3l0.9,0.2v1h-3.5V166.9z"/>
		<path class="st4" d="M301.8,166.9l0.8-0.2v-3.9l-0.9-0.2v-1h2.6v5.1l0.8,0.2v1h-3.4V166.9z M304.3,160.1h-1.7v-1.3h1.7V160.1z"/>
		<path class="st4" d="M305.5,159.8v-1h2.6v7.9l0.8,0.2v1h-3.4v-1l0.8-0.2V160L305.5,159.8z"/>
		<path class="st4" d="M312.6,168.1c-0.9,0-1.6-0.3-2.2-0.9s-0.8-1.3-0.8-2.2v-0.2c0-0.9,0.3-1.7,0.8-2.3s1.2-0.9,2.1-0.9
			c0.9,0,1.5,0.3,2,0.8s0.7,1.2,0.7,2.1v0.9h-3.8l0,0c0,0.4,0.2,0.8,0.4,1s0.6,0.4,1,0.4c0.4,0,0.7,0,0.9-0.1s0.5-0.2,0.8-0.4
			l0.5,1.1c-0.3,0.2-0.6,0.4-1,0.5S313.1,168.1,312.6,168.1z M312.4,162.8c-0.3,0-0.6,0.1-0.8,0.4s-0.3,0.6-0.3,1l0,0h2.1V164
			c0-0.4-0.1-0.7-0.3-0.9S312.8,162.8,312.4,162.8z"/>
		<path class="st4" d="M324,163.8h-1.1l-0.2-0.8c-0.1-0.1-0.3-0.2-0.4-0.2s-0.4-0.1-0.6-0.1c-0.3,0-0.5,0.1-0.7,0.2
			s-0.3,0.3-0.3,0.5c0,0.2,0.1,0.4,0.3,0.5s0.5,0.2,1,0.3c0.8,0.2,1.4,0.4,1.7,0.7s0.6,0.7,0.6,1.3c0,0.6-0.2,1-0.7,1.4
			s-1.1,0.5-1.9,0.5c-0.5,0-0.9-0.1-1.3-0.2s-0.8-0.3-1.1-0.6l0-1.4h1.2l0.2,0.8c0.1,0.1,0.2,0.1,0.4,0.2s0.4,0.1,0.6,0.1
			c0.3,0,0.6-0.1,0.8-0.2s0.3-0.3,0.3-0.5c0-0.2-0.1-0.3-0.3-0.5s-0.5-0.3-1-0.4c-0.7-0.2-1.3-0.4-1.7-0.7s-0.6-0.7-0.6-1.2
			c0-0.5,0.2-1,0.7-1.4s1.1-0.6,1.9-0.6c0.5,0,1,0.1,1.4,0.2s0.8,0.3,1,0.5L324,163.8z"/>
		<path class="st4" d="M331.6,162.6l-0.6,0.1l-2.3,6.2c-0.2,0.5-0.4,0.8-0.7,1.1s-0.8,0.5-1.4,0.5c-0.1,0-0.3,0-0.4,0
			s-0.3-0.1-0.4-0.1l0.2-1.2c0.1,0,0.1,0,0.2,0s0.1,0,0.2,0c0.3,0,0.5-0.1,0.7-0.2s0.3-0.3,0.4-0.5l0.2-0.5l-2-5.2l-0.6-0.1v-1h3.1
			v1l-0.7,0.1l0.9,2.5l0.1,0.5l0,0l1-3l-0.7-0.1v-1h3.1V162.6z"/>
		<path class="st4" d="M337.3,163.8h-1.1L336,163c-0.1-0.1-0.3-0.2-0.4-0.2s-0.4-0.1-0.6-0.1c-0.3,0-0.5,0.1-0.7,0.2
			s-0.3,0.3-0.3,0.5c0,0.2,0.1,0.4,0.3,0.5s0.5,0.2,1,0.3c0.8,0.2,1.4,0.4,1.7,0.7s0.6,0.7,0.6,1.3c0,0.6-0.2,1-0.7,1.4
			s-1.1,0.5-1.9,0.5c-0.5,0-0.9-0.1-1.3-0.2s-0.8-0.3-1.1-0.6l0-1.4h1.2l0.2,0.8c0.1,0.1,0.2,0.1,0.4,0.2s0.4,0.1,0.6,0.1
			c0.3,0,0.6-0.1,0.8-0.2s0.3-0.3,0.3-0.5c0-0.2-0.1-0.3-0.3-0.5s-0.5-0.3-1-0.4c-0.7-0.2-1.3-0.4-1.7-0.7s-0.6-0.7-0.6-1.2
			c0-0.5,0.2-1,0.7-1.4s1.1-0.6,1.9-0.6c0.5,0,1,0.1,1.4,0.2s0.8,0.3,1,0.5L337.3,163.8z"/>
		<path class="st4" d="M340.8,160.1v1.6h1.1v1.2h-1.1v3.2c0,0.2,0.1,0.4,0.2,0.5s0.2,0.2,0.4,0.2c0.1,0,0.2,0,0.3,0s0.2,0,0.3,0
			l0.1,1.2c-0.2,0.1-0.4,0.1-0.6,0.1s-0.4,0-0.6,0c-0.6,0-1-0.2-1.4-0.5s-0.5-0.8-0.5-1.5v-3.2h-0.9v-1.2h0.9v-1.6H340.8z"/>
		<path class="st4" d="M345.8,168.1c-0.9,0-1.6-0.3-2.2-0.9s-0.8-1.3-0.8-2.2v-0.2c0-0.9,0.3-1.7,0.8-2.3s1.2-0.9,2.1-0.9
			c0.9,0,1.5,0.3,2,0.8s0.7,1.2,0.7,2.1v0.9h-3.8l0,0c0,0.4,0.2,0.8,0.4,1s0.6,0.4,1,0.4c0.4,0,0.7,0,0.9-0.1s0.5-0.2,0.8-0.4
			l0.5,1.1c-0.3,0.2-0.6,0.4-1,0.5S346.3,168.1,345.8,168.1z M345.7,162.8c-0.3,0-0.6,0.1-0.8,0.4s-0.3,0.6-0.3,1l0,0h2.1V164
			c0-0.4-0.1-0.7-0.3-0.9S346,162.8,345.7,162.8z"/>
		<path class="st4" d="M349,162.6v-1h2.5l0.1,0.8c0.2-0.3,0.5-0.5,0.8-0.7s0.7-0.2,1.1-0.2c0.4,0,0.8,0.1,1,0.3s0.5,0.5,0.7,0.8
			c0.2-0.3,0.4-0.6,0.8-0.8s0.7-0.3,1.1-0.3c0.6,0,1.1,0.2,1.5,0.6s0.5,1.1,0.5,2v2.6l0.8,0.2v1h-3.3v-1l0.7-0.2v-2.6
			c0-0.5-0.1-0.8-0.2-1s-0.4-0.3-0.7-0.3c-0.2,0-0.5,0.1-0.6,0.2s-0.3,0.3-0.4,0.4c0,0.1,0,0.1,0,0.2s0,0.1,0,0.2v3l0.7,0.2v1h-3.1
			v-1l0.7-0.2v-2.6c0-0.5-0.1-0.8-0.2-1s-0.4-0.3-0.7-0.3c-0.2,0-0.4,0-0.6,0.1s-0.3,0.2-0.4,0.4v3.4l0.7,0.2v1h-3.3v-1l0.8-0.2
			v-3.9L349,162.6z"/>
	</g>
	<path class="st14" d="M318.8,127.1c4.6-4.5,12.1-4.5,16.6,0.2c4.5,4.6,4.5,12.1-0.2,16.6c-4.6,4.5-12.1,4.5-16.6-0.2
		c-2.1-2.2-3.4-5.1-3.4-8.2c0-2.6,0.8-5.1,2.4-7.1"/>
	<path class="st15" d="M327,141.1h-4.3c-0.6,0-0.8-0.2-0.8-0.8v-6.5c0-0.6,0.2-0.8,0.8-0.8h8.5c0.5,0,0.8,0.2,0.8,0.8v6.5
		c0,0.6-0.2,0.8-0.8,0.8C329.8,141.1,328.4,141.1,327,141.1z"/>
	<path class="st15" d="M322.7,132.5c0-1.8,1-3.4,2.6-4.1c2.1-0.9,4.6,0,5.5,2.1c0.1,0.2,0.2,0.5,0.2,0.7c0.1,0.4,0.1,0.8,0.2,1.2"/>
	<path class="st21" d="M326.3,138.3L326.3,138.3v0.9c0,0.2,0.1,0.2,0.3,0.2h0.8c0.2,0,0.3-0.1,0.3-0.3v-1.6c0-0.2,0.1-0.3,0.2-0.4
		c0.5-0.3,0.8-0.9,0.6-1.4c-0.2-0.6-0.8-1-1.5-1c-0.7-0.1-1.3,0.3-1.6,0.9c-0.2,0.6,0,1.2,0.5,1.5c0.2,0.1,0.3,0.3,0.3,0.5
		C326.3,137.8,326.3,138.1,326.3,138.3z"/>
	<line class="st22" x1="211.9" y1="110.5" x2="252.6" y2="151.2"/>
	<polygon class="st19" points="245.3,152 245.3,150.6 252.2,150.9 251.9,144 253.3,143.9 253.6,152.3 	"/>
	<line class="st22" x1="211.9" y1="84.6" x2="252.6" y2="43.9"/>
	<polygon class="st19" points="253.4,51.2 251.9,51.2 252.2,44.3 245.3,44.5 245.3,43.2 253.6,42.8 	"/>
	<line class="st22" x1="307.6" y1="196.5" x2="244.9" y2="251.3"/>
	<polygon class="st19" points="244.6,243.9 246,244.1 245.3,250.9 252.2,251.1 252.2,252.5 243.8,252.3 	"/>
	<line class="st22" x1="347.2" y1="196.5" x2="409.9" y2="251.3"/>
	<polygon class="st19" points="402.6,252.5 402.6,251.1 409.5,250.9 408.8,244.1 410.2,243.9 411,252.3 	"/>
	<g class="st0">
		<path class="st1" d="M86.6,266.5c0-0.2,0.1-0.3,0.2-0.5s0.3-0.2,0.5-0.2s0.4,0.1,0.5,0.2c0.1,0.1,0.2,0.3,0.2,0.5
			c0,0.2-0.1,0.3-0.2,0.5c-0.1,0.1-0.3,0.2-0.5,0.2s-0.4-0.1-0.5-0.2S86.6,266.7,86.6,266.5z M86.8,268.3h1v6h-1V268.3z"/>
		<path class="st1" d="M93.6,274.3v-3.4c0-0.6-0.1-1.1-0.3-1.4c-0.2-0.3-0.5-0.5-1-0.5c-0.4,0-0.8,0.1-1.1,0.3
			c-0.3,0.2-0.5,0.5-0.6,0.9v4.1h-1v-6h0.7l0.2,0.7h0c0.2-0.3,0.4-0.5,0.8-0.6c0.3-0.2,0.7-0.2,1.2-0.2c0.3,0,0.6,0,0.9,0.1
			c0.2,0.1,0.5,0.2,0.6,0.4s0.3,0.5,0.4,0.8c0.1,0.3,0.1,0.7,0.1,1.2v3.6H93.6z"/>
		<path class="st1" d="M96.3,268.3H97l0.2,0.7h0c0.2-0.3,0.4-0.5,0.7-0.6s0.6-0.2,1-0.2c0.8,0,1.4,0.2,1.8,0.7
			c0.4,0.5,0.6,1.2,0.6,2.3c0,0.5-0.1,1-0.2,1.4s-0.3,0.7-0.6,1c-0.2,0.3-0.5,0.5-0.9,0.6c-0.3,0.2-0.7,0.2-1.1,0.2
			c-0.3,0-0.5,0-0.7-0.1s-0.4-0.1-0.6-0.2v2.5h-1V268.3z M98.8,269c-0.4,0-0.7,0.1-1,0.3s-0.4,0.5-0.5,1v3c0.1,0.1,0.3,0.2,0.5,0.3
			c0.2,0.1,0.4,0.1,0.7,0.1c0.6,0,1-0.2,1.3-0.6c0.3-0.4,0.5-1,0.5-1.8c0-0.3,0-0.6-0.1-0.9c-0.1-0.3-0.1-0.5-0.3-0.7
			c-0.1-0.2-0.3-0.3-0.5-0.4C99.3,269,99,269,98.8,269z"/>
		<path class="st1" d="M103.7,268.3v3.4c0,0.3,0,0.6,0.1,0.8c0,0.2,0.1,0.4,0.2,0.6s0.2,0.3,0.4,0.4c0.2,0.1,0.3,0.1,0.6,0.1
			c0.2,0,0.4,0,0.6-0.1s0.3-0.2,0.5-0.3c0.1-0.1,0.2-0.3,0.3-0.4s0.2-0.3,0.2-0.5v-4h1v4.3c0,0.3,0,0.6,0,0.9c0,0.3,0.1,0.6,0.1,0.8
			h-0.7l-0.2-0.9h-0.1c-0.2,0.3-0.4,0.6-0.7,0.8s-0.7,0.3-1.2,0.3c-0.3,0-0.6,0-0.8-0.1c-0.2-0.1-0.4-0.2-0.6-0.4
			c-0.2-0.2-0.3-0.5-0.4-0.8c-0.1-0.3-0.1-0.7-0.1-1.2v-3.6H103.7z"/>
		<path class="st1" d="M108.5,268.3h0.9v-1.2l1-0.3v1.5h1.6v0.8h-1.6v3.3c0,0.4,0.1,0.7,0.2,0.9s0.3,0.3,0.5,0.3
			c0.2,0,0.4,0,0.5-0.1c0.1,0,0.3-0.1,0.5-0.2l0.2,0.7c-0.2,0.1-0.5,0.2-0.7,0.3c-0.3,0.1-0.5,0.1-0.8,0.1c-0.5,0-0.8-0.1-1-0.4
			c-0.2-0.3-0.3-0.7-0.3-1.4v-3.5h-0.9V268.3z"/>
		<path class="st1" d="M121.2,268.3v6h-1v-5.2h-2.4v5.2h-1v-5.2h-0.9v-0.8h0.9V268c0-0.8,0.2-1.3,0.6-1.6c0.4-0.3,0.9-0.5,1.6-0.5
			c0.5,0,0.9,0,1.3,0.1c0.4,0.1,0.7,0.2,0.9,0.3l-0.3,0.8c-0.2-0.1-0.5-0.2-0.8-0.3c-0.3-0.1-0.6-0.1-0.9-0.1c-0.3,0-0.5,0-0.7,0.1
			s-0.3,0.2-0.4,0.3c-0.1,0.1-0.2,0.3-0.2,0.5c0,0.2,0,0.4,0,0.7H121.2z"/>
		<path class="st1" d="M124.1,272.8c0,0.3,0,0.5,0.1,0.6c0.1,0.1,0.2,0.2,0.4,0.2c0.1,0,0.2,0,0.3,0c0.1,0,0.3-0.1,0.4-0.1l0.1,0.8
			c-0.1,0.1-0.3,0.1-0.5,0.2s-0.4,0.1-0.6,0.1c-0.4,0-0.7-0.1-0.9-0.3s-0.3-0.5-0.3-1v-7.2h1V272.8z"/>
		<path class="st1" d="M130.9,273.8c-0.2,0.2-0.5,0.3-0.9,0.5c-0.4,0.1-0.8,0.2-1.2,0.2c-0.5,0-0.9-0.1-1.2-0.2
			c-0.3-0.1-0.6-0.4-0.8-0.6c-0.2-0.3-0.4-0.6-0.5-1c-0.1-0.4-0.2-0.8-0.2-1.3c0-1,0.2-1.8,0.7-2.3s1.1-0.8,2-0.8
			c0.3,0,0.5,0,0.8,0.1c0.3,0.1,0.5,0.2,0.7,0.3c0.2,0.2,0.4,0.4,0.5,0.7c0.1,0.3,0.2,0.7,0.2,1.2c0,0.3,0,0.6-0.1,0.9h-3.9
			c0,0.4,0,0.7,0.1,0.9c0.1,0.3,0.2,0.5,0.3,0.7c0.2,0.2,0.4,0.3,0.6,0.4c0.2,0.1,0.5,0.1,0.9,0.1c0.3,0,0.5,0,0.8-0.1
			s0.5-0.2,0.6-0.3L130.9,273.8z M128.9,269c-0.5,0-0.9,0.1-1.1,0.4c-0.3,0.2-0.5,0.7-0.5,1.3h3c0-0.6-0.1-1-0.3-1.3
			C129.6,269.1,129.3,269,128.9,269z"/>
		<path class="st1" d="M135.3,272.7c0-0.2-0.1-0.4-0.2-0.6c-0.1-0.1-0.3-0.3-0.5-0.3s-0.4-0.2-0.7-0.3s-0.5-0.2-0.7-0.3
			s-0.4-0.3-0.5-0.5s-0.2-0.5-0.2-0.8c0-0.6,0.2-1,0.5-1.3c0.3-0.3,0.8-0.4,1.4-0.4c0.4,0,0.8,0,1.1,0.1c0.3,0.1,0.5,0.2,0.8,0.3
			l-0.2,0.8c-0.2-0.1-0.4-0.2-0.7-0.2c-0.3-0.1-0.5-0.1-0.8-0.1c-0.4,0-0.6,0.1-0.8,0.2s-0.2,0.3-0.2,0.6c0,0.2,0.1,0.4,0.2,0.5
			s0.3,0.2,0.5,0.3s0.4,0.2,0.7,0.3s0.5,0.2,0.7,0.3s0.4,0.3,0.5,0.5s0.2,0.5,0.2,0.9c0,0.3,0,0.5-0.1,0.7c-0.1,0.2-0.2,0.4-0.4,0.6
			c-0.2,0.2-0.4,0.3-0.7,0.4c-0.3,0.1-0.6,0.1-0.9,0.1c-0.5,0-0.8,0-1.2-0.1s-0.6-0.2-0.8-0.3l0.3-0.8c0.2,0.1,0.4,0.2,0.7,0.3
			s0.6,0.1,0.9,0.1c0.3,0,0.6-0.1,0.9-0.2C135.2,273.3,135.3,273,135.3,272.7z"/>
	</g>
	<g class="st0">
		<path class="st1" d="M84,306.8c0-1,0.2-1.8,0.7-2.3c0.5-0.5,1.1-0.8,1.9-0.8c0.4,0,0.8,0.1,1.2,0.2c0.3,0.1,0.6,0.4,0.8,0.6
			s0.4,0.6,0.5,1c0.1,0.4,0.2,0.8,0.2,1.3c0,1-0.2,1.8-0.7,2.3c-0.5,0.5-1.1,0.8-2,0.8c-0.4,0-0.8-0.1-1.2-0.2
			c-0.3-0.1-0.6-0.4-0.8-0.6c-0.2-0.3-0.4-0.6-0.5-1C84.1,307.7,84,307.2,84,306.8z M85,306.8c0,0.3,0,0.6,0.1,0.9
			c0.1,0.3,0.2,0.5,0.3,0.7c0.1,0.2,0.3,0.4,0.5,0.5c0.2,0.1,0.5,0.2,0.8,0.2c1.1,0,1.6-0.8,1.6-2.3c0-0.3,0-0.6-0.1-0.9
			c-0.1-0.3-0.2-0.5-0.3-0.7c-0.1-0.2-0.3-0.4-0.5-0.5c-0.2-0.1-0.5-0.2-0.8-0.2C85.6,304.5,85,305.2,85,306.8z"/>
		<path class="st1" d="M91.7,303.8v3.4c0,0.3,0,0.6,0.1,0.8c0,0.2,0.1,0.4,0.2,0.6s0.2,0.3,0.4,0.4c0.2,0.1,0.3,0.1,0.6,0.1
			c0.2,0,0.4,0,0.6-0.1s0.3-0.2,0.5-0.3c0.1-0.1,0.2-0.3,0.3-0.4s0.2-0.3,0.2-0.5v-4h1v4.3c0,0.3,0,0.6,0,0.9c0,0.3,0.1,0.6,0.1,0.8
			h-0.7l-0.2-0.9h-0.1c-0.2,0.3-0.4,0.6-0.7,0.8c-0.3,0.2-0.7,0.3-1.2,0.3c-0.3,0-0.6,0-0.8-0.1c-0.2-0.1-0.4-0.2-0.6-0.4
			c-0.2-0.2-0.3-0.5-0.4-0.8c-0.1-0.3-0.1-0.7-0.1-1.2v-3.6H91.7z"/>
		<path class="st1" d="M96.5,303.8h0.9v-1.2l1-0.3v1.5h1.6v0.8h-1.6v3.3c0,0.4,0.1,0.7,0.2,0.9s0.3,0.3,0.5,0.3c0.2,0,0.4,0,0.5-0.1
			c0.1,0,0.3-0.1,0.5-0.2l0.2,0.7c-0.2,0.1-0.5,0.2-0.7,0.3c-0.3,0.1-0.5,0.1-0.8,0.1c-0.5,0-0.8-0.1-1-0.4
			c-0.2-0.3-0.3-0.7-0.3-1.4v-3.5h-0.9V303.8z"/>
		<path class="st1" d="M101.3,303.8h0.7l0.2,0.7h0c0.2-0.3,0.4-0.5,0.7-0.6s0.6-0.2,1-0.2c0.8,0,1.4,0.2,1.8,0.7s0.6,1.2,0.6,2.3
			c0,0.5-0.1,1-0.2,1.4s-0.3,0.7-0.6,1c-0.2,0.3-0.5,0.5-0.9,0.6c-0.3,0.2-0.7,0.2-1.1,0.2c-0.3,0-0.5,0-0.7-0.1
			c-0.2,0-0.4-0.1-0.6-0.2v2.5h-1V303.8z M103.8,304.5c-0.4,0-0.7,0.1-1,0.3c-0.2,0.2-0.4,0.5-0.5,1v3c0.1,0.1,0.3,0.2,0.5,0.3
			s0.4,0.1,0.7,0.1c0.6,0,1-0.2,1.3-0.6c0.3-0.4,0.5-1,0.5-1.8c0-0.3,0-0.6-0.1-0.9c-0.1-0.3-0.1-0.5-0.3-0.7
			c-0.1-0.2-0.3-0.3-0.5-0.4C104.3,304.5,104.1,304.5,103.8,304.5z"/>
		<path class="st1" d="M108.7,303.8v3.4c0,0.3,0,0.6,0.1,0.8c0,0.2,0.1,0.4,0.2,0.6s0.2,0.3,0.4,0.4c0.2,0.1,0.3,0.1,0.6,0.1
			c0.2,0,0.4,0,0.6-0.1s0.3-0.2,0.5-0.3c0.1-0.1,0.2-0.3,0.3-0.4s0.2-0.3,0.2-0.5v-4h1v4.3c0,0.3,0,0.6,0,0.9c0,0.3,0.1,0.6,0.1,0.8
			h-0.7l-0.2-0.9h-0.1c-0.2,0.3-0.4,0.6-0.7,0.8c-0.3,0.2-0.7,0.3-1.2,0.3c-0.3,0-0.6,0-0.8-0.1c-0.2-0.1-0.4-0.2-0.6-0.4
			c-0.2-0.2-0.3-0.5-0.4-0.8c-0.1-0.3-0.1-0.7-0.1-1.2v-3.6H108.7z"/>
		<path class="st1" d="M113.5,303.8h0.9v-1.2l1-0.3v1.5h1.6v0.8h-1.6v3.3c0,0.4,0.1,0.7,0.2,0.9s0.3,0.3,0.5,0.3
			c0.2,0,0.4,0,0.5-0.1c0.1,0,0.3-0.1,0.5-0.2l0.2,0.7c-0.2,0.1-0.5,0.2-0.7,0.3c-0.3,0.1-0.5,0.1-0.8,0.1c-0.5,0-0.8-0.1-1-0.4
			c-0.2-0.3-0.3-0.7-0.3-1.4v-3.5h-0.9V303.8z"/>
		<path class="st1" d="M126.2,303.8v6h-1v-5.2h-2.4v5.2h-1v-5.2h-0.9v-0.8h0.9v-0.3c0-0.8,0.2-1.3,0.6-1.6c0.4-0.3,0.9-0.5,1.6-0.5
			c0.5,0,0.9,0,1.3,0.1c0.4,0.1,0.7,0.2,0.9,0.3l-0.3,0.8c-0.2-0.1-0.5-0.2-0.8-0.3c-0.3-0.1-0.6-0.1-0.9-0.1c-0.3,0-0.5,0-0.7,0.1
			s-0.3,0.2-0.4,0.3c-0.1,0.1-0.2,0.3-0.2,0.5c0,0.2,0,0.4,0,0.7H126.2z"/>
		<path class="st1" d="M129.1,308.3c0,0.3,0,0.5,0.1,0.6c0.1,0.1,0.2,0.2,0.4,0.2c0.1,0,0.2,0,0.3,0c0.1,0,0.3-0.1,0.4-0.1l0.1,0.8
			c-0.1,0.1-0.3,0.1-0.5,0.2c-0.2,0-0.4,0.1-0.6,0.1c-0.4,0-0.7-0.1-0.9-0.3c-0.2-0.2-0.3-0.5-0.3-1v-7.2h1V308.3z"/>
		<path class="st1" d="M135.9,309.3c-0.2,0.2-0.5,0.3-0.9,0.5c-0.4,0.1-0.8,0.2-1.2,0.2c-0.5,0-0.9-0.1-1.2-0.2
			c-0.3-0.1-0.6-0.4-0.8-0.6c-0.2-0.3-0.4-0.6-0.5-1c-0.1-0.4-0.2-0.8-0.2-1.3c0-1,0.2-1.8,0.7-2.3c0.5-0.5,1.1-0.8,2-0.8
			c0.3,0,0.5,0,0.8,0.1c0.3,0.1,0.5,0.2,0.7,0.3c0.2,0.2,0.4,0.4,0.5,0.7c0.1,0.3,0.2,0.7,0.2,1.2c0,0.3,0,0.6-0.1,0.9h-3.9
			c0,0.4,0,0.7,0.1,0.9c0.1,0.3,0.2,0.5,0.3,0.7s0.4,0.3,0.6,0.4c0.2,0.1,0.5,0.2,0.9,0.2c0.3,0,0.5,0,0.8-0.1s0.5-0.2,0.6-0.3
			L135.9,309.3z M133.9,304.5c-0.5,0-0.9,0.1-1.1,0.4c-0.3,0.2-0.5,0.7-0.5,1.3h3c0-0.6-0.1-1-0.3-1.3
			C134.6,304.6,134.3,304.5,133.9,304.5z"/>
		<path class="st1" d="M140.3,308.1c0-0.2-0.1-0.4-0.2-0.6s-0.3-0.3-0.5-0.3s-0.4-0.2-0.7-0.3s-0.5-0.2-0.7-0.3
			c-0.2-0.1-0.4-0.3-0.5-0.5c-0.1-0.2-0.2-0.5-0.2-0.8c0-0.6,0.2-1,0.5-1.3c0.3-0.3,0.8-0.4,1.4-0.4c0.4,0,0.8,0,1.1,0.1
			c0.3,0.1,0.5,0.2,0.8,0.3l-0.2,0.8c-0.2-0.1-0.4-0.2-0.7-0.2c-0.3-0.1-0.5-0.1-0.8-0.1c-0.4,0-0.6,0.1-0.8,0.2
			c-0.2,0.1-0.2,0.3-0.2,0.6c0,0.2,0.1,0.4,0.2,0.5c0.1,0.1,0.3,0.2,0.5,0.3s0.4,0.2,0.7,0.3s0.5,0.2,0.7,0.3
			c0.2,0.1,0.4,0.3,0.5,0.5c0.1,0.2,0.2,0.5,0.2,0.9c0,0.3,0,0.5-0.1,0.7s-0.2,0.4-0.4,0.6c-0.2,0.2-0.4,0.3-0.7,0.4
			c-0.3,0.1-0.6,0.1-0.9,0.1c-0.5,0-0.8,0-1.2-0.1s-0.6-0.2-0.8-0.3l0.3-0.8c0.2,0.1,0.4,0.2,0.7,0.3s0.6,0.1,0.9,0.1
			c0.3,0,0.6-0.1,0.9-0.2C140.2,308.7,140.3,308.5,140.3,308.1z"/>
	</g>
	<g class="st0">
		<path class="st1" d="M370.2,283.3h0.8v-1.1l1.6-0.4v1.6h1.5v1.3h-1.5v2.3c0,0.4,0,0.7,0.1,0.9c0.1,0.2,0.2,0.3,0.5,0.3
			c0.2,0,0.3,0,0.4,0c0.1,0,0.2-0.1,0.4-0.1l0.3,1.2c-0.2,0.1-0.5,0.2-0.8,0.3c-0.3,0.1-0.6,0.1-0.9,0.1c-0.6,0-1-0.1-1.2-0.4
			c-0.3-0.3-0.4-0.8-0.4-1.4v-3h-0.8V283.3z"/>
		<path class="st1" d="M375,283.6c0.3-0.1,0.7-0.3,1.1-0.3c0.4-0.1,0.9-0.1,1.4-0.1c0.4,0,0.8,0,1,0.2c0.3,0.1,0.5,0.2,0.7,0.4
			s0.3,0.4,0.3,0.7c0.1,0.3,0.1,0.5,0.1,0.9c0,0.4,0,0.7,0,1.1c0,0.4,0,0.7,0,1c0,0.3,0,0.7,0,1s0.1,0.6,0.2,0.9h-1.3l-0.3-0.8h-0.1
			c-0.2,0.2-0.4,0.5-0.7,0.6s-0.6,0.3-1.1,0.3c-0.3,0-0.5,0-0.8-0.1c-0.2-0.1-0.4-0.2-0.6-0.4c-0.2-0.2-0.3-0.3-0.4-0.6
			c-0.1-0.2-0.1-0.4-0.1-0.7c0-0.4,0.1-0.7,0.2-0.9s0.4-0.5,0.7-0.6c0.3-0.2,0.7-0.3,1.1-0.3c0.4-0.1,0.9-0.1,1.4-0.1
			c0.1-0.4,0-0.8-0.1-1s-0.4-0.3-0.8-0.3c-0.3,0-0.6,0-1,0.1c-0.3,0.1-0.6,0.1-0.9,0.3L375,283.6z M377,288.1c0.3,0,0.6-0.1,0.7-0.2
			c0.2-0.1,0.3-0.3,0.4-0.4v-0.8c-0.2,0-0.5,0-0.7,0c-0.2,0-0.4,0.1-0.6,0.1c-0.2,0.1-0.3,0.1-0.4,0.2c-0.1,0.1-0.2,0.2-0.2,0.4
			c0,0.2,0.1,0.4,0.2,0.5S376.7,288.1,377,288.1z"/>
		<path class="st1" d="M386,289.3c0,0.9-0.2,1.5-0.7,1.9s-1.1,0.6-2,0.6c-0.6,0-1,0-1.4-0.1s-0.6-0.2-0.8-0.3l0.3-1.2
			c0.2,0.1,0.4,0.1,0.6,0.2c0.2,0.1,0.5,0.1,0.9,0.1c0.5,0,0.9-0.1,1.1-0.4c0.2-0.2,0.3-0.6,0.3-1v-0.4h0c-0.3,0.4-0.8,0.6-1.5,0.6
			c-0.8,0-1.4-0.2-1.7-0.7c-0.4-0.5-0.6-1.2-0.6-2.3c0-1.1,0.3-1.9,0.8-2.4c0.5-0.6,1.3-0.8,2.2-0.8c0.5,0,1,0,1.4,0.1
			s0.7,0.2,1,0.3V289.3z M383.4,288.1c0.3,0,0.5-0.1,0.7-0.2c0.2-0.1,0.3-0.3,0.4-0.6v-2.7c-0.2-0.1-0.6-0.2-0.9-0.2
			c-0.4,0-0.7,0.2-0.9,0.5c-0.2,0.3-0.3,0.8-0.3,1.4c0,0.6,0.1,1,0.3,1.3C382.8,287.9,383,288.1,383.4,288.1z"/>
		<path class="st1" d="M395.5,282.9c0,0.4-0.1,0.8-0.2,1.2c-0.1,0.4-0.3,0.8-0.6,1.2c-0.2,0.4-0.5,0.8-0.8,1.2
			c-0.3,0.4-0.5,0.7-0.8,1l-0.6,0.5v0.1l0.9-0.2h2.3v1.3h-5.1v-0.8c0.2-0.2,0.4-0.4,0.6-0.7c0.2-0.3,0.5-0.6,0.7-0.9
			c0.2-0.3,0.5-0.6,0.7-0.9c0.2-0.3,0.4-0.6,0.6-1c0.2-0.3,0.3-0.6,0.4-0.9c0.1-0.3,0.2-0.6,0.2-0.9c0-0.3-0.1-0.6-0.3-0.8
			c-0.2-0.2-0.5-0.3-0.9-0.3c-0.3,0-0.5,0.1-0.8,0.2c-0.3,0.1-0.5,0.2-0.7,0.4l-0.6-1.1c0.3-0.3,0.7-0.5,1.1-0.6
			c0.4-0.2,0.9-0.2,1.4-0.2c0.3,0,0.7,0,0.9,0.1c0.3,0.1,0.5,0.2,0.7,0.4s0.4,0.4,0.5,0.7C395.4,282.2,395.5,282.5,395.5,282.9z"/>
	</g>
	<g class="st0">
		<path class="st1" d="M372.4,301.2H372v2.5h-1.6v-8.4h1.6v5l0.4-0.2l1.4-2.4h1.7l-1.4,2.3l-0.6,0.5l0.7,0.5l1.6,2.8h-1.8
			L372.4,301.2z"/>
	</g>
	<g class="st0">
		<path class="st1" d="M381,303.1c-0.2,0.2-0.6,0.4-1,0.5s-0.9,0.2-1.3,0.2c-1,0-1.7-0.3-2.1-0.8c-0.4-0.6-0.7-1.3-0.7-2.3
			c0-1.1,0.3-1.8,0.8-2.4s1.2-0.8,2.1-0.8c0.3,0,0.6,0,0.9,0.1s0.5,0.2,0.8,0.4c0.2,0.2,0.4,0.4,0.5,0.7c0.1,0.3,0.2,0.7,0.2,1.2
			c0,0.2,0,0.3,0,0.5c0,0.2,0,0.4-0.1,0.6h-3.6c0,0.5,0.2,0.9,0.4,1.1s0.6,0.4,1.1,0.4c0.3,0,0.6,0,0.9-0.2c0.3-0.1,0.5-0.2,0.6-0.3
			L381,303.1z M378.7,298.7c-0.4,0-0.7,0.1-0.9,0.4c-0.2,0.2-0.3,0.6-0.4,1h2.2c0-0.4,0-0.8-0.2-1
			C379.4,298.8,379.1,298.7,378.7,298.7z"/>
	</g>
	<g class="st0">
		<path class="st1" d="M384.3,301l0.2,0.9h0.1l0.2-0.9l0.9-3.4h1.6l-1.8,5.4c-0.2,0.4-0.3,0.9-0.4,1.2s-0.3,0.7-0.5,1
			c-0.2,0.3-0.4,0.5-0.6,0.6c-0.2,0.1-0.4,0.2-0.7,0.2c-0.4,0-0.7-0.1-1-0.2l0.3-1.2c0.1,0,0.2,0.1,0.4,0.1c0.2,0,0.4-0.1,0.5-0.2
			c0.2-0.2,0.3-0.4,0.4-0.8l-2.5-6h1.9L384.3,301z"/>
	</g>
	<g class="st0">
		<path class="st1" d="M395.5,297.3c0,0.4-0.1,0.8-0.2,1.2c-0.1,0.4-0.3,0.8-0.6,1.2c-0.2,0.4-0.5,0.8-0.8,1.2
			c-0.3,0.4-0.5,0.7-0.8,1l-0.6,0.5v0.1l0.9-0.2h2.3v1.3h-5.1v-0.8c0.2-0.2,0.4-0.4,0.6-0.7c0.2-0.3,0.5-0.6,0.7-0.9
			c0.2-0.3,0.5-0.6,0.7-0.9c0.2-0.3,0.4-0.6,0.6-1c0.2-0.3,0.3-0.6,0.4-0.9c0.1-0.3,0.2-0.6,0.2-0.9c0-0.3-0.1-0.6-0.3-0.8
			c-0.2-0.2-0.5-0.3-0.9-0.3c-0.3,0-0.5,0.1-0.8,0.2c-0.3,0.1-0.5,0.2-0.7,0.4l-0.6-1.1c0.3-0.3,0.7-0.5,1.1-0.6
			c0.4-0.2,0.9-0.2,1.4-0.2c0.3,0,0.7,0,0.9,0.1s0.5,0.2,0.7,0.4s0.4,0.4,0.5,0.7C395.4,296.6,395.5,296.9,395.5,297.3z"/>
	</g>
	<g class="st0">
		<path class="st1" d="M263.4,283.3h0.8v-1.1l1.6-0.4v1.6h1.5v1.3h-1.5v2.3c0,0.4,0,0.7,0.1,0.9c0.1,0.2,0.2,0.3,0.5,0.3
			c0.2,0,0.3,0,0.4,0c0.1,0,0.2-0.1,0.4-0.1l0.3,1.2c-0.2,0.1-0.5,0.2-0.8,0.3c-0.3,0.1-0.6,0.1-0.9,0.1c-0.6,0-1-0.1-1.2-0.4
			c-0.3-0.3-0.4-0.8-0.4-1.4v-3h-0.8V283.3z"/>
		<path class="st1" d="M268.2,283.6c0.3-0.1,0.7-0.3,1.1-0.3s0.9-0.1,1.4-0.1c0.4,0,0.8,0,1,0.2c0.3,0.1,0.5,0.2,0.7,0.4
			s0.3,0.4,0.3,0.7c0.1,0.3,0.1,0.5,0.1,0.9c0,0.4,0,0.7,0,1.1c0,0.4,0,0.7,0,1c0,0.3,0,0.7,0,1c0,0.3,0.1,0.6,0.2,0.9h-1.3
			l-0.3-0.8h-0.1c-0.2,0.2-0.4,0.5-0.7,0.6c-0.3,0.2-0.6,0.3-1.1,0.3c-0.3,0-0.5,0-0.8-0.1s-0.4-0.2-0.6-0.4
			c-0.2-0.2-0.3-0.3-0.4-0.6c-0.1-0.2-0.1-0.4-0.1-0.7c0-0.4,0.1-0.7,0.2-0.9s0.4-0.5,0.7-0.6c0.3-0.2,0.7-0.3,1.1-0.3
			c0.4-0.1,0.9-0.1,1.4-0.1c0.1-0.4,0-0.8-0.1-1s-0.4-0.3-0.8-0.3c-0.3,0-0.6,0-1,0.1c-0.3,0.1-0.6,0.1-0.9,0.3L268.2,283.6z
			 M270.2,288.1c0.3,0,0.6-0.1,0.7-0.2c0.2-0.1,0.3-0.3,0.4-0.4v-0.8c-0.2,0-0.5,0-0.7,0c-0.2,0-0.4,0.1-0.6,0.1
			c-0.2,0.1-0.3,0.1-0.4,0.2c-0.1,0.1-0.2,0.2-0.2,0.4c0,0.2,0.1,0.4,0.2,0.5S270,288.1,270.2,288.1z"/>
		<path class="st1" d="M279.3,289.3c0,0.9-0.2,1.5-0.7,1.9c-0.5,0.4-1.1,0.6-2,0.6c-0.6,0-1,0-1.4-0.1s-0.6-0.2-0.8-0.3l0.3-1.2
			c0.2,0.1,0.4,0.1,0.6,0.2c0.2,0.1,0.5,0.1,0.9,0.1c0.5,0,0.9-0.1,1.1-0.4c0.2-0.2,0.3-0.6,0.3-1v-0.4h0c-0.3,0.4-0.8,0.6-1.5,0.6
			c-0.8,0-1.4-0.2-1.7-0.7c-0.4-0.5-0.6-1.2-0.6-2.3c0-1.1,0.3-1.9,0.8-2.4c0.5-0.6,1.3-0.8,2.2-0.8c0.5,0,1,0,1.4,0.1
			c0.4,0.1,0.7,0.2,1,0.3V289.3z M276.6,288.1c0.3,0,0.5-0.1,0.7-0.2c0.2-0.1,0.3-0.3,0.4-0.6v-2.7c-0.2-0.1-0.6-0.2-0.9-0.2
			c-0.4,0-0.7,0.2-0.9,0.5s-0.3,0.8-0.3,1.4c0,0.6,0.1,1,0.3,1.3C276,287.9,276.3,288.1,276.6,288.1z"/>
		<path class="st1" d="M284.2,287.9h1.7v-4.7l0.2-0.8l-0.6,0.7l-1.1,0.7l-0.7-0.9l2.7-2.2h0.9v7.2h1.6v1.3h-4.8V287.9z"/>
	</g>
	<g class="st0">
		<path class="st1" d="M266,301.2h-0.4v2.5h-1.6v-8.4h1.6v5l0.4-0.2l1.4-2.4h1.7l-1.4,2.3l-0.6,0.5l0.7,0.5l1.6,2.8h-1.8L266,301.2z
			"/>
	</g>
	<g class="st0">
		<path class="st1" d="M274.6,303.1c-0.2,0.2-0.6,0.4-1,0.5s-0.9,0.2-1.3,0.2c-1,0-1.7-0.3-2.1-0.8c-0.4-0.6-0.7-1.3-0.7-2.3
			c0-1.1,0.3-1.8,0.8-2.4s1.2-0.8,2.1-0.8c0.3,0,0.6,0,0.9,0.1s0.5,0.2,0.8,0.4c0.2,0.2,0.4,0.4,0.5,0.7c0.1,0.3,0.2,0.7,0.2,1.2
			c0,0.2,0,0.3,0,0.5s0,0.4-0.1,0.6h-3.6c0,0.5,0.2,0.9,0.4,1.1c0.2,0.3,0.6,0.4,1.1,0.4c0.3,0,0.6,0,0.9-0.2
			c0.3-0.1,0.5-0.2,0.6-0.3L274.6,303.1z M272.4,298.7c-0.4,0-0.7,0.1-0.9,0.4s-0.3,0.6-0.4,1h2.2c0-0.4,0-0.8-0.2-1
			C273,298.8,272.7,298.7,272.4,298.7z"/>
	</g>
	<g class="st0">
		<path class="st1" d="M277.9,301l0.2,0.9h0.1l0.2-0.9l0.9-3.4h1.6l-1.8,5.4c-0.2,0.4-0.3,0.9-0.4,1.2c-0.1,0.4-0.3,0.7-0.5,1
			c-0.2,0.3-0.4,0.5-0.6,0.6c-0.2,0.1-0.4,0.2-0.7,0.2c-0.4,0-0.7-0.1-1-0.2l0.3-1.2c0.1,0,0.2,0.1,0.4,0.1c0.2,0,0.4-0.1,0.5-0.2
			c0.2-0.2,0.3-0.4,0.4-0.8l-2.5-6h1.9L277.9,301z"/>
	</g>
	<g class="st0">
		<path class="st1" d="M284.6,302.3h1.7v-4.7l0.2-0.8l-0.6,0.7l-1.1,0.7l-0.7-0.9l2.7-2.2h0.9v7.2h1.6v1.3h-4.8V302.3z"/>
	</g>
	<line class="st23" x1="61.4" y1="294" x2="166.2" y2="294"/>
	<polygon class="st1" points="66,299.7 67,298.7 61.9,294 67,289.3 66,288.2 59.8,294 	"/>
	<g class="st0">
		<path class="st1" d="M484.9,137.8c-0.2,0.2-0.5,0.3-0.9,0.4c-0.3,0.1-0.7,0.1-1,0.1c-0.5,0-0.9-0.1-1.2-0.2
			c-0.3-0.1-0.6-0.4-0.8-0.6c-0.2-0.3-0.4-0.6-0.4-1s-0.1-0.8-0.1-1.3c0-1,0.2-1.8,0.7-2.3s1.1-0.8,1.9-0.8c0.4,0,0.7,0,1,0.1
			c0.3,0.1,0.5,0.1,0.7,0.3l-0.3,0.8c-0.2-0.1-0.4-0.2-0.6-0.2c-0.2-0.1-0.5-0.1-0.7-0.1c-1.1,0-1.7,0.8-1.7,2.3
			c0,0.3,0,0.6,0.1,0.9c0.1,0.3,0.2,0.5,0.3,0.7c0.1,0.2,0.3,0.4,0.6,0.5c0.2,0.1,0.5,0.2,0.8,0.2c0.3,0,0.5,0,0.8-0.1
			c0.2-0.1,0.4-0.2,0.6-0.3L484.9,137.8z"/>
		<path class="st1" d="M489,133.1c-0.2-0.1-0.5-0.1-0.7-0.1c-0.3,0-0.6,0.1-0.8,0.3c-0.2,0.2-0.3,0.4-0.4,0.7v4.2h-1v-6h0.7l0.2,0.7
			h0c0.2-0.3,0.3-0.5,0.5-0.6c0.2-0.1,0.5-0.2,0.8-0.2c0.2,0,0.5,0,0.8,0.1L489,133.1z"/>
		<path class="st1" d="M494.7,137.7c-0.2,0.2-0.5,0.3-0.9,0.5c-0.4,0.1-0.8,0.2-1.2,0.2c-0.5,0-0.9-0.1-1.2-0.2
			c-0.3-0.1-0.6-0.4-0.8-0.6c-0.2-0.3-0.4-0.6-0.5-1s-0.2-0.8-0.2-1.3c0-1,0.2-1.8,0.7-2.3s1.1-0.8,2-0.8c0.3,0,0.5,0,0.8,0.1
			c0.3,0.1,0.5,0.2,0.7,0.3s0.4,0.4,0.5,0.7c0.1,0.3,0.2,0.7,0.2,1.2c0,0.3,0,0.6-0.1,0.9h-3.9c0,0.4,0,0.7,0.1,0.9
			c0.1,0.3,0.2,0.5,0.3,0.7c0.2,0.2,0.3,0.3,0.6,0.4c0.2,0.1,0.5,0.1,0.9,0.1c0.3,0,0.5,0,0.8-0.1c0.3-0.1,0.5-0.2,0.6-0.3
			L494.7,137.7z M492.6,132.9c-0.5,0-0.9,0.1-1.1,0.4c-0.3,0.2-0.5,0.7-0.5,1.3h3c0-0.6-0.1-1-0.3-1.3
			C493.3,133,493,132.9,492.6,132.9z"/>
		<path class="st1" d="M496.3,132.7c0.3-0.2,0.7-0.3,1.1-0.4s0.8-0.1,1.3-0.1c0.4,0,0.8,0.1,1,0.2c0.3,0.1,0.4,0.3,0.6,0.4
			c0.1,0.2,0.2,0.4,0.3,0.6c0,0.2,0.1,0.4,0.1,0.6c0,0.5,0,0.9,0,1.4c0,0.5,0,0.9,0,1.3c0,0.3,0,0.6,0,0.8c0,0.3,0.1,0.5,0.1,0.7
			h-0.7l-0.3-0.8h-0.1c-0.1,0.1-0.2,0.2-0.3,0.3c-0.1,0.1-0.2,0.2-0.4,0.3c-0.2,0.1-0.3,0.2-0.5,0.2c-0.2,0.1-0.4,0.1-0.7,0.1
			s-0.5,0-0.7-0.1c-0.2-0.1-0.4-0.2-0.6-0.3c-0.2-0.1-0.3-0.3-0.4-0.5c-0.1-0.2-0.1-0.4-0.1-0.7c0-0.4,0.1-0.6,0.2-0.9
			c0.1-0.2,0.3-0.4,0.6-0.6c0.3-0.1,0.6-0.2,0.9-0.3c0.4-0.1,0.8-0.1,1.2-0.1c0.1,0,0.2,0,0.3,0s0.2,0,0.3,0c0-0.2,0-0.5,0-0.6
			c0-0.4-0.1-0.7-0.3-0.9c-0.2-0.2-0.5-0.3-1-0.3c-0.1,0-0.3,0-0.4,0c-0.2,0-0.3,0-0.5,0.1s-0.3,0.1-0.5,0.1
			c-0.1,0.1-0.3,0.1-0.4,0.2L496.3,132.7z M498,137.5c0.2,0,0.4,0,0.6-0.1s0.3-0.1,0.5-0.2c0.1-0.1,0.2-0.2,0.3-0.3
			c0.1-0.1,0.1-0.2,0.2-0.3v-1c-0.1,0-0.2,0-0.3,0c-0.1,0-0.2,0-0.3,0c-0.2,0-0.5,0-0.7,0s-0.4,0.1-0.6,0.2s-0.3,0.2-0.4,0.3
			c-0.1,0.1-0.2,0.3-0.2,0.5c0,0.3,0.1,0.5,0.3,0.7C497.4,137.4,497.7,137.5,498,137.5z"/>
	</g>
	<g class="st0">
		<path class="st1" d="M501.5,132.2h0.9V131l1-0.3v1.5h1.6v0.8h-1.6v3.3c0,0.4,0.1,0.7,0.2,0.9c0.1,0.2,0.3,0.3,0.5,0.3
			c0.2,0,0.4,0,0.5-0.1c0.1,0,0.3-0.1,0.5-0.2l0.2,0.7c-0.2,0.1-0.5,0.2-0.7,0.3c-0.3,0.1-0.5,0.1-0.8,0.1c-0.5,0-0.8-0.1-1-0.4
			c-0.2-0.3-0.3-0.7-0.3-1.4v-3.5h-0.9V132.2z"/>
	</g>
	<g class="st0">
		<path class="st1" d="M510.6,137.7c-0.2,0.2-0.5,0.3-0.9,0.5c-0.4,0.1-0.8,0.2-1.2,0.2c-0.5,0-0.9-0.1-1.2-0.2
			c-0.3-0.1-0.6-0.4-0.8-0.6c-0.2-0.3-0.4-0.6-0.5-1s-0.2-0.8-0.2-1.3c0-1,0.2-1.8,0.7-2.3s1.1-0.8,2-0.8c0.3,0,0.5,0,0.8,0.1
			c0.3,0.1,0.5,0.2,0.7,0.3s0.4,0.4,0.5,0.7c0.1,0.3,0.2,0.7,0.2,1.2c0,0.3,0,0.6-0.1,0.9h-3.9c0,0.4,0,0.7,0.1,0.9
			c0.1,0.3,0.2,0.5,0.3,0.7c0.2,0.2,0.3,0.3,0.6,0.4c0.2,0.1,0.5,0.1,0.9,0.1c0.3,0,0.5,0,0.8-0.1c0.3-0.1,0.5-0.2,0.6-0.3
			L510.6,137.7z M508.6,132.9c-0.5,0-0.9,0.1-1.1,0.4c-0.3,0.2-0.5,0.7-0.5,1.3h3c0-0.6-0.1-1-0.3-1.3
			C509.3,133,509,132.9,508.6,132.9z"/>
		<path class="st1" d="M515,136.6c0-0.2-0.1-0.4-0.2-0.6c-0.1-0.1-0.3-0.3-0.5-0.3s-0.4-0.2-0.7-0.3s-0.5-0.2-0.7-0.3
			s-0.4-0.3-0.5-0.5c-0.1-0.2-0.2-0.5-0.2-0.8c0-0.6,0.2-1,0.5-1.3c0.3-0.3,0.8-0.4,1.4-0.4c0.4,0,0.8,0,1.1,0.1
			c0.3,0.1,0.5,0.2,0.8,0.3l-0.2,0.8c-0.2-0.1-0.4-0.2-0.7-0.2c-0.3-0.1-0.5-0.1-0.8-0.1c-0.4,0-0.6,0.1-0.8,0.2s-0.2,0.3-0.2,0.6
			c0,0.2,0.1,0.4,0.2,0.5c0.1,0.1,0.3,0.2,0.5,0.3s0.4,0.2,0.7,0.3s0.5,0.2,0.7,0.3s0.4,0.3,0.5,0.5c0.1,0.2,0.2,0.5,0.2,0.9
			c0,0.3,0,0.5-0.1,0.7c-0.1,0.2-0.2,0.4-0.4,0.6c-0.2,0.2-0.4,0.3-0.7,0.4c-0.3,0.1-0.6,0.1-0.9,0.1c-0.5,0-0.8,0-1.2-0.1
			c-0.3-0.1-0.6-0.2-0.8-0.3l0.3-0.8c0.2,0.1,0.4,0.2,0.7,0.3s0.6,0.1,0.9,0.1c0.3,0,0.6-0.1,0.9-0.2
			C514.9,137.2,515,136.9,515,136.6z"/>
	</g>
	<g class="st0">
		<path class="st1" d="M481.1,205.5v-3.4c0-0.3,0-0.6,0-0.8c0-0.2-0.1-0.4-0.2-0.6s-0.2-0.3-0.3-0.4c-0.1-0.1-0.3-0.1-0.6-0.1
			c-0.4,0-0.7,0.1-0.9,0.3c-0.2,0.2-0.4,0.5-0.5,0.8v4.1h-1v-6h0.7l0.2,0.7h0c0.2-0.3,0.5-0.5,0.8-0.6c0.3-0.2,0.7-0.2,1.1-0.2
			c0.4,0,0.7,0.1,0.9,0.2s0.4,0.4,0.6,0.8c0.2-0.3,0.4-0.6,0.8-0.7s0.7-0.3,1.1-0.3c0.3,0,0.6,0,0.9,0.1c0.2,0.1,0.4,0.2,0.6,0.4
			c0.2,0.2,0.3,0.5,0.3,0.8c0.1,0.3,0.1,0.7,0.1,1.2v3.6h-1v-3.6c0-0.3,0-0.5,0-0.8s-0.1-0.4-0.2-0.5c-0.1-0.1-0.2-0.2-0.3-0.3
			c-0.1-0.1-0.3-0.1-0.6-0.1c-0.4,0-0.7,0.1-0.9,0.3c-0.2,0.2-0.4,0.5-0.5,1v4H481.1z"/>
		<path class="st1" d="M487,202.5c0-1,0.2-1.8,0.7-2.3c0.5-0.5,1.1-0.8,1.9-0.8c0.4,0,0.8,0.1,1.2,0.2c0.3,0.1,0.6,0.4,0.8,0.6
			c0.2,0.3,0.4,0.6,0.5,1c0.1,0.4,0.2,0.8,0.2,1.3c0,1-0.2,1.8-0.7,2.3s-1.1,0.8-2,0.8c-0.4,0-0.8-0.1-1.2-0.2
			c-0.3-0.1-0.6-0.4-0.8-0.6c-0.2-0.3-0.4-0.6-0.5-1S487,203,487,202.5z M488,202.5c0,0.3,0,0.6,0.1,0.9c0.1,0.3,0.2,0.5,0.3,0.7
			s0.3,0.4,0.5,0.5s0.5,0.2,0.8,0.2c1.1,0,1.6-0.8,1.6-2.3c0-0.3,0-0.6-0.1-0.9c-0.1-0.3-0.2-0.5-0.3-0.7s-0.3-0.4-0.5-0.5
			c-0.2-0.1-0.5-0.2-0.8-0.2C488.6,200.2,488,201,488,202.5z"/>
		<path class="st1" d="M498.4,203.5c0,0.4,0,0.8,0,1.1s0,0.7,0.1,1h-0.6l-0.2-0.9h0c-0.2,0.3-0.4,0.5-0.7,0.7
			c-0.3,0.2-0.7,0.3-1.1,0.3c-0.8,0-1.4-0.3-1.8-0.8c-0.4-0.5-0.6-1.3-0.6-2.4c0-1,0.2-1.8,0.7-2.3c0.5-0.5,1.1-0.8,2-0.8
			c0.3,0,0.5,0,0.7,0c0.2,0,0.4,0.1,0.6,0.2v-2.5h1V203.5z M496,204.9c0.4,0,0.7-0.1,1-0.3s0.4-0.5,0.5-1v-3
			c-0.1-0.1-0.3-0.2-0.5-0.2c-0.2,0-0.4-0.1-0.7-0.1c-0.6,0-1,0.2-1.3,0.5c-0.3,0.4-0.5,0.9-0.5,1.7c0,0.3,0,0.6,0.1,0.9
			c0.1,0.3,0.1,0.5,0.3,0.7s0.3,0.4,0.5,0.5C495.4,204.8,495.7,204.9,496,204.9z"/>
		<path class="st1" d="M500.2,197.7c0-0.2,0.1-0.3,0.2-0.5s0.3-0.2,0.5-0.2c0.2,0,0.4,0.1,0.5,0.2s0.2,0.3,0.2,0.5
			c0,0.2-0.1,0.3-0.2,0.5s-0.3,0.2-0.5,0.2c-0.2,0-0.3-0.1-0.5-0.2S500.2,197.9,500.2,197.7z M500.4,199.5h1v6h-1V199.5z"/>
		<path class="st1" d="M502.8,199.5h0.9v-0.3c0-0.4,0-0.7,0.1-1c0.1-0.3,0.2-0.5,0.3-0.7s0.3-0.3,0.5-0.4s0.5-0.1,0.8-0.1
			c0.3,0,0.5,0,0.7,0c0.2,0,0.4,0.1,0.6,0.2l-0.2,0.8c-0.2-0.1-0.4-0.1-0.5-0.2c-0.2,0-0.3,0-0.5,0c-0.2,0-0.4,0-0.5,0.1
			c-0.1,0.1-0.2,0.2-0.3,0.3c-0.1,0.1-0.1,0.3-0.1,0.5c0,0.2,0,0.4,0,0.6v0.2h1.6v0.8h-1.6v5.2h-1v-5.2h-0.9V199.5z"/>
	</g>
	<g class="st0">
		<path class="st1" d="M509.1,203.4l0.3,1.2h0.1l0.3-1.2l1.2-3.9h1l-1.8,5.4c-0.1,0.4-0.3,0.8-0.4,1.1c-0.1,0.4-0.3,0.7-0.4,1
			c-0.2,0.3-0.3,0.5-0.5,0.7c-0.2,0.2-0.4,0.3-0.7,0.3c-0.3,0-0.5,0-0.7-0.1l0.2-0.8c0.1,0,0.2,0.1,0.3,0.1c0.2,0,0.4-0.1,0.6-0.4
			c0.2-0.2,0.4-0.6,0.5-1.2l-2.4-6h1.1L509.1,203.4z"/>
	</g>
	<rect x="132.9" y="194.6" class="st11" width="68.7" height="17.8"/>
	<g class="st0">
		<path class="st1" d="M155.1,205.5v-3.4c0-0.3,0-0.6,0-0.8c0-0.2-0.1-0.4-0.2-0.6s-0.2-0.3-0.3-0.4s-0.3-0.1-0.6-0.1
			c-0.4,0-0.7,0.1-0.9,0.3c-0.2,0.2-0.4,0.5-0.5,0.8v4.1h-1v-6h0.7l0.2,0.7h0c0.2-0.3,0.5-0.5,0.8-0.6c0.3-0.2,0.7-0.2,1.1-0.2
			c0.4,0,0.7,0.1,0.9,0.2s0.4,0.4,0.6,0.8c0.2-0.3,0.4-0.6,0.8-0.7s0.7-0.3,1.1-0.3c0.3,0,0.6,0,0.9,0.1c0.2,0.1,0.4,0.2,0.6,0.4
			s0.3,0.5,0.3,0.8s0.1,0.7,0.1,1.2v3.6h-1v-3.6c0-0.3,0-0.5,0-0.8c0-0.2-0.1-0.4-0.2-0.5c-0.1-0.1-0.2-0.2-0.3-0.3
			c-0.1-0.1-0.3-0.1-0.6-0.1c-0.4,0-0.7,0.1-0.9,0.3s-0.4,0.5-0.5,1v4H155.1z"/>
		<path class="st1" d="M161,202.5c0-1,0.2-1.8,0.7-2.3c0.5-0.5,1.1-0.8,1.9-0.8c0.4,0,0.8,0.1,1.2,0.2c0.3,0.1,0.6,0.4,0.8,0.6
			c0.2,0.3,0.4,0.6,0.5,1s0.2,0.8,0.2,1.3c0,1-0.2,1.8-0.7,2.3c-0.5,0.5-1.1,0.8-2,0.8c-0.4,0-0.8-0.1-1.2-0.2
			c-0.3-0.1-0.6-0.4-0.8-0.6c-0.2-0.3-0.4-0.6-0.5-1C161.1,203.5,161,203,161,202.5z M162,202.5c0,0.3,0,0.6,0.1,0.9
			s0.2,0.5,0.3,0.7s0.3,0.4,0.5,0.5s0.5,0.2,0.8,0.2c1.1,0,1.6-0.8,1.6-2.3c0-0.3,0-0.6-0.1-0.9c-0.1-0.3-0.2-0.5-0.3-0.7
			s-0.3-0.4-0.5-0.5c-0.2-0.1-0.5-0.2-0.8-0.2C162.6,200.2,162,201,162,202.5z"/>
		<path class="st1" d="M172.4,203.5c0,0.4,0,0.8,0,1.1s0,0.7,0.1,1h-0.6l-0.2-0.9h0c-0.2,0.3-0.4,0.5-0.7,0.7
			c-0.3,0.2-0.7,0.3-1.1,0.3c-0.8,0-1.4-0.3-1.8-0.8s-0.6-1.3-0.6-2.4c0-1,0.2-1.8,0.7-2.3c0.5-0.5,1.1-0.8,2-0.8c0.3,0,0.5,0,0.7,0
			c0.2,0,0.4,0.1,0.6,0.2v-2.5h1V203.5z M170,204.9c0.4,0,0.7-0.1,1-0.3c0.2-0.2,0.4-0.5,0.5-1v-3c-0.1-0.1-0.3-0.2-0.5-0.2
			s-0.4-0.1-0.7-0.1c-0.6,0-1,0.2-1.3,0.5c-0.3,0.4-0.5,0.9-0.5,1.7c0,0.3,0,0.6,0.1,0.9c0.1,0.3,0.1,0.5,0.3,0.7s0.3,0.4,0.5,0.5
			C169.5,204.8,169.7,204.9,170,204.9z"/>
		<path class="st1" d="M174.2,197.7c0-0.2,0.1-0.3,0.2-0.5s0.3-0.2,0.5-0.2s0.4,0.1,0.5,0.2c0.1,0.1,0.2,0.3,0.2,0.5
			c0,0.2-0.1,0.3-0.2,0.5c-0.1,0.1-0.3,0.2-0.5,0.2s-0.4-0.1-0.5-0.2S174.2,197.9,174.2,197.7z M174.4,199.5h1v6h-1V199.5z"/>
		<path class="st1" d="M176.8,199.5h0.9v-0.3c0-0.4,0-0.7,0.1-1c0.1-0.3,0.2-0.5,0.3-0.7c0.1-0.2,0.3-0.3,0.5-0.4
			c0.2-0.1,0.5-0.1,0.8-0.1c0.3,0,0.5,0,0.7,0c0.2,0,0.4,0.1,0.6,0.2l-0.2,0.8c-0.2-0.1-0.4-0.1-0.5-0.2c-0.2,0-0.3,0-0.5,0
			c-0.2,0-0.4,0-0.5,0.1c-0.1,0.1-0.2,0.2-0.3,0.3s-0.1,0.3-0.1,0.5c0,0.2,0,0.4,0,0.6v0.2h1.6v0.8h-1.6v5.2h-1v-5.2h-0.9V199.5z"/>
	</g>
	<g class="st0">
		<path class="st1" d="M183.1,203.4l0.3,1.2h0.1l0.3-1.2l1.2-3.9h1l-1.8,5.4c-0.1,0.4-0.3,0.8-0.4,1.1c-0.1,0.4-0.3,0.7-0.4,1
			c-0.2,0.3-0.3,0.5-0.5,0.7c-0.2,0.2-0.4,0.3-0.7,0.3c-0.3,0-0.5,0-0.7-0.1l0.2-0.8c0.1,0,0.2,0.1,0.3,0.1c0.2,0,0.4-0.1,0.6-0.4
			c0.2-0.2,0.4-0.6,0.5-1.2l-2.4-6h1.1L183.1,203.4z"/>
	</g>
	<g class="st0">
		<path class="st1" d="M528.8,319.3c-0.2-0.1-0.5-0.1-0.7-0.1c-0.3,0-0.6,0.1-0.8,0.3c-0.2,0.2-0.3,0.4-0.4,0.7v4.2h-1v-6h0.7
			l0.2,0.7h0c0.2-0.3,0.3-0.5,0.5-0.6c0.2-0.1,0.5-0.2,0.8-0.2c0.2,0,0.5,0,0.8,0.1L528.8,319.3z"/>
		<path class="st1" d="M534.4,323.9c-0.2,0.2-0.5,0.3-0.9,0.5c-0.4,0.1-0.8,0.2-1.2,0.2c-0.5,0-0.9-0.1-1.2-0.2
			c-0.3-0.1-0.6-0.4-0.8-0.6c-0.2-0.3-0.4-0.6-0.5-1s-0.2-0.8-0.2-1.3c0-1,0.2-1.8,0.7-2.3s1.1-0.8,2-0.8c0.3,0,0.5,0,0.8,0.1
			c0.3,0.1,0.5,0.2,0.7,0.3s0.4,0.4,0.5,0.7c0.1,0.3,0.2,0.7,0.2,1.2c0,0.3,0,0.6-0.1,0.9h-3.9c0,0.4,0,0.7,0.1,0.9
			c0.1,0.3,0.2,0.5,0.3,0.7c0.2,0.2,0.3,0.3,0.6,0.4c0.2,0.1,0.5,0.1,0.9,0.1c0.3,0,0.5,0,0.8-0.1c0.3-0.1,0.5-0.2,0.6-0.3
			L534.4,323.9z M532.3,319.1c-0.5,0-0.9,0.1-1.1,0.4c-0.3,0.2-0.5,0.7-0.5,1.3h3c0-0.6-0.1-1-0.3-1.3
			C533.1,319.2,532.8,319.1,532.3,319.1z"/>
		<path class="st1" d="M536,318.8c0.3-0.2,0.7-0.3,1.1-0.4c0.4-0.1,0.8-0.1,1.3-0.1c0.4,0,0.8,0.1,1,0.2s0.4,0.3,0.6,0.4
			c0.1,0.2,0.2,0.4,0.3,0.6c0,0.2,0.1,0.4,0.1,0.6c0,0.5,0,0.9,0,1.4c0,0.5,0,0.9,0,1.3c0,0.3,0,0.6,0,0.8c0,0.3,0.1,0.5,0.1,0.7
			h-0.7l-0.3-0.8h-0.1c-0.1,0.1-0.2,0.2-0.3,0.3c-0.1,0.1-0.2,0.2-0.4,0.3c-0.2,0.1-0.3,0.2-0.5,0.2c-0.2,0.1-0.4,0.1-0.7,0.1
			c-0.3,0-0.5,0-0.7-0.1c-0.2-0.1-0.4-0.2-0.6-0.3c-0.2-0.1-0.3-0.3-0.4-0.5c-0.1-0.2-0.1-0.4-0.1-0.7c0-0.4,0.1-0.6,0.2-0.9
			c0.1-0.2,0.3-0.4,0.6-0.6c0.3-0.1,0.6-0.2,0.9-0.3c0.4-0.1,0.8-0.1,1.2-0.1c0.1,0,0.2,0,0.3,0c0.1,0,0.2,0,0.3,0
			c0-0.2,0-0.5,0-0.6c0-0.4-0.1-0.7-0.3-0.9s-0.5-0.3-1-0.3c-0.1,0-0.3,0-0.4,0c-0.2,0-0.3,0-0.5,0.1s-0.3,0.1-0.5,0.1
			c-0.1,0.1-0.3,0.1-0.4,0.2L536,318.8z M537.7,323.6c0.2,0,0.4,0,0.6-0.1c0.2-0.1,0.3-0.1,0.5-0.2c0.1-0.1,0.2-0.2,0.3-0.3
			c0.1-0.1,0.1-0.2,0.2-0.3v-1c-0.1,0-0.2,0-0.3,0s-0.2,0-0.3,0c-0.2,0-0.5,0-0.7,0c-0.2,0-0.4,0.1-0.6,0.2
			c-0.2,0.1-0.3,0.2-0.4,0.3c-0.1,0.1-0.2,0.3-0.2,0.5c0,0.3,0.1,0.5,0.3,0.7C537.1,323.5,537.4,323.6,537.7,323.6z"/>
		<path class="st1" d="M546.7,322.3c0,0.4,0,0.8,0,1.1s0,0.7,0.1,1h-0.6l-0.2-0.9h0c-0.2,0.3-0.4,0.5-0.7,0.7
			c-0.3,0.2-0.7,0.3-1.1,0.3c-0.8,0-1.4-0.3-1.8-0.8c-0.4-0.5-0.6-1.3-0.6-2.4c0-1,0.2-1.8,0.7-2.3c0.5-0.5,1.1-0.8,2-0.8
			c0.3,0,0.5,0,0.7,0c0.2,0,0.4,0.1,0.6,0.2V316h1V322.3z M544.2,323.7c0.4,0,0.7-0.1,1-0.3s0.4-0.5,0.5-1v-3
			c-0.1-0.1-0.3-0.2-0.5-0.2c-0.2,0-0.4-0.1-0.7-0.1c-0.6,0-1,0.2-1.3,0.5c-0.3,0.4-0.5,0.9-0.5,1.7c0,0.3,0,0.6,0.1,0.9
			c0.1,0.3,0.1,0.5,0.3,0.7s0.3,0.4,0.5,0.5C543.7,323.6,544,323.7,544.2,323.7z"/>
		<path class="st1" d="M551.5,315.8l0.8,0.3l-4.4,9.9l-0.8-0.3L551.5,315.8z"/>
		<path class="st1" d="M556.3,324.4V321c0-0.3,0-0.6,0-0.8c0-0.2-0.1-0.4-0.2-0.6s-0.2-0.3-0.3-0.4c-0.1-0.1-0.3-0.1-0.6-0.1
			c-0.4,0-0.7,0.1-0.9,0.3s-0.4,0.5-0.5,0.8v4.1h-1v-6h0.7l0.2,0.7h0c0.2-0.3,0.5-0.5,0.8-0.6c0.3-0.2,0.7-0.2,1.1-0.2
			c0.4,0,0.7,0.1,0.9,0.2s0.4,0.4,0.6,0.8c0.2-0.3,0.4-0.6,0.8-0.7s0.7-0.3,1.1-0.3c0.3,0,0.6,0,0.9,0.1c0.2,0.1,0.4,0.2,0.6,0.4
			c0.2,0.2,0.3,0.5,0.3,0.8c0.1,0.3,0.1,0.7,0.1,1.2v3.6h-1v-3.6c0-0.3,0-0.5,0-0.8c0-0.2-0.1-0.4-0.2-0.5c-0.1-0.1-0.2-0.2-0.3-0.3
			c-0.1-0.1-0.3-0.1-0.6-0.1c-0.4,0-0.7,0.1-0.9,0.3c-0.2,0.2-0.4,0.5-0.5,1v4H556.3z"/>
		<path class="st1" d="M562.2,321.4c0-1,0.2-1.8,0.7-2.3s1.1-0.8,2-0.8c0.4,0,0.8,0.1,1.2,0.2s0.6,0.4,0.8,0.6
			c0.2,0.3,0.4,0.6,0.5,1c0.1,0.4,0.2,0.8,0.2,1.3c0,1-0.2,1.8-0.7,2.3c-0.5,0.5-1.1,0.8-2,0.8c-0.4,0-0.8-0.1-1.2-0.2
			c-0.3-0.1-0.6-0.4-0.8-0.6c-0.2-0.3-0.4-0.6-0.5-1C562.2,322.3,562.2,321.8,562.2,321.4z M563.2,321.4c0,0.3,0,0.6,0.1,0.9
			c0.1,0.3,0.2,0.5,0.3,0.7s0.3,0.4,0.5,0.5s0.5,0.2,0.8,0.2c1.1,0,1.6-0.8,1.6-2.3c0-0.3,0-0.6-0.1-0.9s-0.2-0.5-0.3-0.7
			s-0.3-0.4-0.5-0.5s-0.5-0.2-0.8-0.2C563.7,319,563.2,319.8,563.2,321.4z"/>
		<path class="st1" d="M573.5,322.3c0,0.4,0,0.8,0,1.1s0,0.7,0.1,1H573l-0.2-0.9h0c-0.2,0.3-0.4,0.5-0.7,0.7
			c-0.3,0.2-0.7,0.3-1.1,0.3c-0.8,0-1.4-0.3-1.8-0.8c-0.4-0.5-0.6-1.3-0.6-2.4c0-1,0.2-1.8,0.7-2.3c0.5-0.5,1.2-0.8,2-0.8
			c0.3,0,0.5,0,0.7,0c0.2,0,0.4,0.1,0.6,0.2V316h1V322.3z M571.1,323.7c0.4,0,0.7-0.1,1-0.3c0.2-0.2,0.4-0.5,0.5-1v-3
			c-0.1-0.1-0.3-0.2-0.5-0.2c-0.2,0-0.4-0.1-0.7-0.1c-0.6,0-1,0.2-1.3,0.5s-0.5,0.9-0.5,1.7c0,0.3,0,0.6,0.1,0.9
			c0.1,0.3,0.1,0.5,0.3,0.7s0.3,0.4,0.5,0.5S570.8,323.7,571.1,323.7z"/>
		<path class="st1" d="M575.4,316.5c0-0.2,0.1-0.3,0.2-0.5s0.3-0.2,0.5-0.2c0.2,0,0.4,0.1,0.5,0.2c0.1,0.1,0.2,0.3,0.2,0.5
			c0,0.2-0.1,0.3-0.2,0.5c-0.1,0.1-0.3,0.2-0.5,0.2c-0.2,0-0.4-0.1-0.5-0.2S575.4,316.7,575.4,316.5z M575.6,318.4h1v6h-1V318.4z"/>
		<path class="st1" d="M578,318.4h0.9V318c0-0.4,0-0.7,0.1-1c0.1-0.3,0.2-0.5,0.3-0.7c0.1-0.2,0.3-0.3,0.5-0.4
			c0.2-0.1,0.5-0.1,0.8-0.1c0.3,0,0.5,0,0.7,0s0.4,0.1,0.6,0.2l-0.2,0.8c-0.2-0.1-0.4-0.1-0.5-0.2c-0.2,0-0.3,0-0.5,0
			c-0.2,0-0.4,0-0.5,0.1c-0.1,0.1-0.2,0.2-0.3,0.3c-0.1,0.1-0.1,0.3-0.1,0.5s0,0.4,0,0.6v0.2h1.6v0.8h-1.6v5.2h-1v-5.2H578V318.4z"
			/>
	</g>
	<g class="st0">
		<path class="st1" d="M584.2,322.2l0.3,1.2h0.1l0.3-1.2l1.2-3.9h1l-1.8,5.4c-0.1,0.4-0.3,0.8-0.4,1.1c-0.1,0.4-0.3,0.7-0.4,1
			c-0.2,0.3-0.3,0.5-0.5,0.7c-0.2,0.2-0.4,0.3-0.7,0.3c-0.3,0-0.5,0-0.7-0.1l0.2-0.8c0.1,0,0.2,0.1,0.3,0.1c0.2,0,0.4-0.1,0.6-0.4
			c0.2-0.2,0.4-0.6,0.5-1.2l-2.4-6h1.1L584.2,322.2z"/>
	</g>
	<line class="st23" x1="402.2" y1="147.2" x2="593.2" y2="147.2"/>
	<polygon class="st1" points="406.8,152.9 407.8,151.9 402.7,147.2 407.8,142.5 406.8,141.4 400.7,147.2 	"/>
	<line class="st23" x1="164.7" y1="282.1" x2="62.8" y2="282.1"/>
	<polygon class="st1" points="160.1,276.4 159.1,277.4 164.2,282.1 159.1,286.8 160.1,287.8 166.2,282.1 	"/>
	<g class="st0">
		<path class="st1" d="M597,391.5l0.7-0.1l2.8-8h1.9l2.8,8l0.7,0.1v1.1h-3.1v-1.1l0.6-0.1l-0.4-1.3h-3l-0.4,1.3l0.6,0.1v1.1H597
			V391.5z M600.4,388.7h2.1l-1-3.3h0L600.4,388.7z"/>
	</g>
	<g class="st0">
		<path class="st1" d="M608.5,384v1.7h1.2v1.3h-1.2v3.5c0,0.3,0.1,0.5,0.2,0.6s0.3,0.2,0.4,0.2c0.1,0,0.2,0,0.3,0
			c0.1,0,0.2,0,0.3-0.1l0.2,1.3c-0.2,0.1-0.4,0.1-0.6,0.1c-0.2,0-0.4,0-0.7,0c-0.6,0-1.1-0.2-1.5-0.5s-0.5-0.9-0.5-1.7V387h-1v-1.3
			h1V384H608.5z"/>
		<path class="st1" d="M613.3,384v1.7h1.2v1.3h-1.2v3.5c0,0.3,0.1,0.5,0.2,0.6s0.3,0.2,0.4,0.2c0.1,0,0.2,0,0.3,0
			c0.1,0,0.2,0,0.3-0.1l0.2,1.3c-0.2,0.1-0.4,0.1-0.6,0.1c-0.2,0-0.4,0-0.7,0c-0.6,0-1.1-0.2-1.5-0.5s-0.5-0.9-0.5-1.7V387h-1v-1.3
			h1V384H613.3z"/>
		<path class="st1" d="M619.8,392.6c-0.1-0.1-0.1-0.2-0.1-0.4c0-0.1-0.1-0.2-0.1-0.4c-0.2,0.3-0.5,0.5-0.8,0.6
			c-0.3,0.2-0.7,0.2-1.1,0.2c-0.7,0-1.2-0.2-1.6-0.5s-0.6-0.9-0.6-1.5c0-0.6,0.3-1.1,0.8-1.5s1.3-0.5,2.3-0.5h0.9V388
			c0-0.3-0.1-0.6-0.3-0.8s-0.5-0.3-0.8-0.3c-0.2,0-0.4,0-0.6,0.1s-0.3,0.1-0.4,0.2l-0.1,0.7h-1.4l0-1.5c0.3-0.2,0.7-0.4,1.2-0.6
			c0.4-0.2,0.9-0.2,1.4-0.2c0.9,0,1.5,0.2,2.1,0.6s0.8,1,0.8,1.8v2.8c0,0.1,0,0.2,0,0.3c0,0.1,0,0.2,0,0.3l0.6,0.1v1.1H619.8z
			 M618.2,391.4c0.3,0,0.5-0.1,0.8-0.2c0.2-0.1,0.4-0.3,0.5-0.5v-1h-0.9c-0.4,0-0.7,0.1-0.9,0.3c-0.2,0.2-0.3,0.4-0.3,0.7
			c0,0.2,0.1,0.4,0.2,0.5C617.7,391.3,617.9,391.4,618.2,391.4z"/>
		<path class="st1" d="M625.8,391.3c0.3,0,0.6-0.1,0.8-0.3c0.2-0.2,0.3-0.5,0.3-0.8h1.7l0,0c0,0.7-0.2,1.3-0.8,1.7s-1.2,0.7-2,0.7
			c-1,0-1.8-0.3-2.4-1c-0.6-0.6-0.8-1.5-0.8-2.5v-0.2c0-1,0.3-1.8,0.9-2.5c0.6-0.7,1.4-1,2.4-1c0.6,0,1.1,0.1,1.5,0.2
			c0.4,0.2,0.8,0.4,1.1,0.7l0,1.8H627l-0.3-1.1c-0.1-0.1-0.2-0.1-0.3-0.2c-0.1-0.1-0.3-0.1-0.5-0.1c-0.5,0-0.9,0.2-1.1,0.6
			c-0.2,0.4-0.3,0.9-0.3,1.5v0.2c0,0.6,0.1,1.1,0.3,1.5C624.9,391.1,625.3,391.3,625.8,391.3z"/>
	</g>
	<g class="st0">
		<path class="st1" d="M629.2,383.8v-1.1h2.8v5.7h0.4l1.1-1.5l-0.6-0.1v-1.1h3.4v1.1l-0.8,0.2l-1.2,1.7l1.7,2.6l0.7,0.1v1.1h-3.2
			v-1.1l0.4-0.1l-1.1-1.7h-0.8v1.6l0.8,0.2v1.1h-3.5v-1.1l0.9-0.2V384L629.2,383.8z"/>
	</g>
	<g class="st0">
		<path class="st1" d="M640.5,392.7c-1,0-1.8-0.3-2.4-1c-0.6-0.6-0.9-1.4-0.9-2.4v-0.3c0-1,0.3-1.9,0.8-2.5c0.6-0.7,1.3-1,2.3-1
			c0.9,0,1.6,0.3,2.2,0.8c0.5,0.6,0.8,1.3,0.8,2.3v1h-4.1l0,0c0,0.5,0.2,0.8,0.5,1.1c0.3,0.3,0.6,0.4,1.1,0.4c0.4,0,0.8,0,1-0.1
			c0.3-0.1,0.6-0.2,0.9-0.4l0.5,1.1c-0.3,0.2-0.7,0.4-1.1,0.6C641.6,392.7,641.1,392.7,640.5,392.7z M640.3,387
			c-0.3,0-0.6,0.1-0.8,0.4c-0.2,0.3-0.3,0.6-0.4,1l0,0h2.3v-0.2c0-0.4-0.1-0.7-0.3-0.9C641,387.2,640.7,387,640.3,387z"/>
		<path class="st1" d="M644.3,391.5l0.9-0.2V387l-1-0.2v-1.1h2.7l0.1,1c0.2-0.4,0.4-0.6,0.6-0.8c0.3-0.2,0.5-0.3,0.9-0.3
			c0.1,0,0.2,0,0.3,0c0.1,0,0.2,0,0.3,0.1l-0.2,1.7l-0.8,0c-0.3,0-0.5,0.1-0.7,0.2s-0.3,0.3-0.4,0.5v3.3l0.9,0.2v1.1h-3.6V391.5z"/>
	</g>
	<path class="st11" d="M611.8,374.4c-1.7,0-3-1.3-3-3v-5.1c0-2.3,1.1-4.4,3-5.8c0.8-0.6,1.7-1.1,2.6-1.5c-1.6-2-2.4-4.4-2.4-6.9
		c0-0.3,0-0.5,0-0.7c-0.8-0.6-1.3-1.5-1.3-2.5v-5.6c0-0.4,0.1-0.8,0.2-1.2c0.8-4.5,3.9-8.2,8.2-9.6c1.3-0.5,2.7-0.7,4.1-0.7
		c1.4,0,2.8,0.2,4.2,0.7c1.7,0.6,3.3,1.6,4.6,2.9c1.8,1.8,3.1,4.2,3.5,6.7c0.1,0.4,0.2,0.7,0.2,1.1v5.6c0,0.9-0.4,1.8-1.2,2.4v1.1
		c0,2.4-0.8,4.7-2.3,6.6c0.9,0.3,1.8,0.8,2.5,1.5c1.8,1.3,2.8,3.4,2.8,5.7v5.1c0,1.7-1.3,3-3,3H611.8z"/>
	<path class="st8" d="M623.3,333c1.3,0,2.6,0.2,3.8,0.7c1.6,0.6,3.1,1.5,4.3,2.7c1.7,1.7,2.9,3.9,3.3,6.3c0.1,0.3,0.2,0.5,0.2,0.8
		v5.6c0,0.8-0.5,1.5-1.2,1.8v1.7c0,2.7-1.2,5.3-3.2,7.1c1.4,0.2,2.7,0.8,3.8,1.7c1.6,1.1,2.5,3,2.5,4.9v5.1c0,1.1-0.9,2-2,2h-22.9
		c-1.1,0-2-0.9-2-2v-5.1c0-2,1-3.8,2.5-5c1.1-0.9,2.5-1.5,3.9-1.7c-2.1-1.9-3.3-4.6-3.3-7.4c0-0.6,0-1,0-1.3c-0.8-0.3-1.3-1-1.3-1.9
		v-5.6c0-0.3,0.1-0.6,0.2-0.9C612.8,337.1,617.6,333,623.3,333 M623.3,331c-6.5,0-12.1,4.7-13.3,11.1c-0.2,0.5-0.3,0.9-0.3,1.4v5.6
		c0,1.1,0.5,2.2,1.3,2.9v0.2c0,2.3,0.7,4.5,1.9,6.4c-0.6,0.3-1.2,0.7-1.7,1.1c-2.1,1.5-3.3,4-3.3,6.5v5.1c0,2.2,1.8,4,4,4h22.9
		c2.2,0,4-1.8,4-4v-5.1c0-2.5-1.2-4.9-3.3-6.5c-0.5-0.4-1.1-0.8-1.6-1.1c1.2-1.8,1.8-4,1.8-6.1v-0.7c0.8-0.8,1.2-1.8,1.2-2.9v-5.6
		c0-0.5-0.1-0.9-0.3-1.4c-0.5-2.7-1.8-5.2-3.8-7.1c-1.4-1.4-3.1-2.5-5-3.2C626.4,331.3,624.8,331,623.3,331L623.3,331z"/>
	<path class="st11" d="M611.8,372.4c-0.6,0-1-0.4-1-1v-5.1c0-1.6,0.8-3.2,2.2-4.1c1-0.8,2.2-1.4,3.5-1.5c0.4-0.1,0.8-0.1,1.1-0.1
		v-1.1c-2.3-1.7-3.6-4.4-3.6-7.2c0-0.9,0-1.3,0-1.6c0-0.2,0-0.3,0-0.5h-0.2c-0.6,0-1-0.4-1-1v-5.6c0-0.2,0.1-0.4,0.2-0.5
		c0.9-5.7,6.2-9.7,12-8.8c0.7,0.1,1.3,0.3,1.9,0.5c1.5,0.5,2.8,1.4,3.9,2.5c1.6,1.6,2.7,3.7,3,5.9c0.1,0.1,0.1,0.3,0.2,0.5v5.6
		c0,0.6-0.4,1-1,1h-0.2v2.5c0,2.8-1.4,5.4-3.7,7v0.9c0.4,0,0.8,0,1.1,0.1c1.3,0.2,2.5,0.7,3.5,1.6c1.3,1,2.1,2.5,2.1,4.1v5.1
		c0,0.6-0.4,1-1,1L611.8,372.4z"/>
	<path class="st1" d="M623.3,335c1.1,0,2.2,0.2,3.2,0.5c1.3,0.5,2.5,1.2,3.5,2.3c1.6,1.5,2.5,3.5,2.8,5.7h0.1v5.6h-1.2v3.5
		c0,2.7-1.4,5.1-3.7,6.5v2.4h1c0.3,0,0.7,0,1,0.1c1.1,0.2,2.2,0.7,3.1,1.4c1.1,0.8,1.7,2,1.8,3.4v5.1h-22.9v-5.1
		c0-1.3,0.7-2.6,1.8-3.4c0.9-0.7,2-1.2,3.1-1.4c0.3-0.1,0.7-0.1,1-0.1h1v-2.5h0.2c-2.3-1.5-3.7-4.1-3.8-6.8c0-1.8-0.1-1.5-0.1-3.2
		h-1.2v-5.6h0.1c0.3-3.7,2.8-6.8,6.3-8C621.2,335.2,622.3,335,623.3,335 M623.3,333c-5.6,0-10.4,4.1-11.4,9.6
		c-0.1,0.3-0.2,0.6-0.2,0.9v5.6c0,0.8,0.5,1.5,1.3,1.9c0,0.3,0,0.6,0,1.3c0,2.8,1.2,5.5,3.3,7.4c-1.4,0.2-2.8,0.8-3.9,1.8
		c-1.6,1.1-2.5,3-2.5,4.9v5.1c0,1.1,0.9,2,2,2h22.9c1.1,0,2-0.9,2-2v-5.1c0-1.9-0.9-3.8-2.5-4.9c-1.1-0.9-2.4-1.5-3.8-1.7
		c2-1.8,3.2-4.4,3.2-7.1v-1.7c0.7-0.3,1.2-1,1.2-1.8v-5.6c0-0.3-0.1-0.6-0.2-0.9c-0.4-2.4-1.5-4.6-3.3-6.3c-1.2-1.2-2.7-2.2-4.3-2.7
		C625.9,333.3,624.6,333,623.3,333L623.3,333z"/>
	<polygon class="st1" points="613.5,347.6 613.5,352 621.3,352 623.3,352 625.2,352 633,352 633,347.6 	"/>
	<path class="st5" d="M614.9,347.7c0,1.9,0.1,2.7,0.1,4.6c0.1,4.5,3.8,8.2,8.3,8.2c4.5,0.2,8.2-3.3,8.4-7.8c0,0,0,0,0,0v-5.2"/>
	<path class="st5" d="M613.8,344.5c0-5.3,4.3-9.5,9.6-9.5c1.1,0,2.1,0.2,3.1,0.5c1.3,0.5,2.5,1.2,3.5,2.3c1.8,1.8,2.8,4.2,2.8,6.7"
		/>
	<rect x="613.7" y="344.1" class="st6" width="19.1" height="3.5"/>
	<line class="st6" x1="622.2" y1="355.6" x2="625.7" y2="355.6"/>
	<path class="st11" d="M619.8,348.5c-0.5,0.5-0.6,1.3-0.1,1.9c0.5,0.6,1.3,0.6,1.9,0.2c0.3-0.2,0.4-0.6,0.5-0.9l0,0L619.8,348.5z"/>
	<path class="st11" d="M628.8,348.5l-2.1,1.3c0.1,0.2,0.2,0.4,0.3,0.6c0.5,0.5,1.4,0.5,1.9,0c0.3-0.3,0.4-0.6,0.4-1
		C629.3,349.1,629.1,348.8,628.8,348.5z"/>
	<g class="st0">
		<path class="st1" d="M608.4,281.3h-1.3l-0.2-1.2c-0.2-0.2-0.4-0.3-0.6-0.4c-0.3-0.1-0.6-0.2-0.9-0.2c-0.8,0-1.3,0.3-1.7,0.8
			c-0.4,0.6-0.6,1.3-0.6,2.2v0.3c0,0.9,0.2,1.6,0.6,2.2c0.4,0.6,1,0.8,1.7,0.8c0.3,0,0.7,0,0.9-0.1c0.3-0.1,0.5-0.2,0.7-0.4l0.2-1.2
			h1.3v1.7c-0.4,0.4-0.8,0.7-1.3,1c-0.5,0.2-1.2,0.4-1.8,0.4c-1.2,0-2.1-0.4-2.9-1.2s-1.1-1.8-1.1-3.1v-0.3c0-1.3,0.4-2.3,1.1-3.1
			s1.7-1.2,2.9-1.2c0.7,0,1.3,0.1,1.8,0.4c0.5,0.2,1,0.6,1.3,1V281.3z"/>
		<path class="st1" d="M609.1,278.7v-1.1h2.7v8.1l0.8,0.2v1h-3.4v-1l0.8-0.2v-6.9L609.1,278.7z"/>
		<path class="st1" d="M613.1,286l0.8-0.2v-4l-0.9-0.2v-1.1h2.7v5.2l0.8,0.2v1h-3.4V286z M615.7,279H614v-1.3h1.7V279z"/>
		<path class="st1" d="M620.2,287.1c-0.9,0-1.7-0.3-2.2-0.9c-0.6-0.6-0.8-1.4-0.8-2.3v-0.2c0-1,0.3-1.8,0.8-2.4
			c0.5-0.6,1.2-0.9,2.1-0.9c0.9,0,1.5,0.3,2,0.8s0.7,1.2,0.7,2.1v1H619l0,0c0,0.4,0.2,0.8,0.4,1.1c0.3,0.3,0.6,0.4,1,0.4
			c0.4,0,0.7,0,1-0.1c0.3-0.1,0.5-0.2,0.8-0.4l0.5,1.1c-0.3,0.2-0.6,0.4-1,0.5C621.2,287.1,620.8,287.1,620.2,287.1z M620.1,281.8
			c-0.3,0-0.6,0.1-0.8,0.4c-0.2,0.2-0.3,0.6-0.3,1l0,0h2.1V283c0-0.4-0.1-0.7-0.3-0.9C620.7,281.9,620.4,281.8,620.1,281.8z"/>
		<path class="st1" d="M623.6,286l0.8-0.2v-4l-0.9-0.2v-1.1h2.6l0.1,0.9c0.2-0.3,0.5-0.6,0.8-0.8c0.3-0.2,0.7-0.3,1.1-0.3
			c0.7,0,1.2,0.2,1.5,0.6c0.4,0.4,0.5,1.1,0.5,1.9v2.8l0.8,0.2v1h-3.3v-1l0.7-0.2V283c0-0.4-0.1-0.7-0.3-0.9s-0.4-0.3-0.8-0.3
			c-0.2,0-0.4,0-0.6,0.1s-0.3,0.2-0.5,0.4v3.5l0.7,0.2v1h-3.3V286z"/>
		<path class="st1" d="M634,279v1.6h1.1v1.2H634v3.3c0,0.3,0.1,0.4,0.2,0.5s0.2,0.2,0.4,0.2c0.1,0,0.2,0,0.3,0c0.1,0,0.2,0,0.3-0.1
			l0.1,1.3c-0.2,0.1-0.4,0.1-0.6,0.1c-0.2,0-0.4,0-0.6,0c-0.6,0-1.1-0.2-1.4-0.5c-0.3-0.3-0.5-0.9-0.5-1.6v-3.3h-1v-1.2h1V279H634z"
			/>
		<path class="st1" d="M639.1,287v-1.1l2.8-3c0.4-0.5,0.7-0.9,0.9-1.2c0.2-0.3,0.3-0.6,0.3-0.9c0-0.4-0.1-0.7-0.3-0.9
			s-0.5-0.3-0.8-0.3c-0.4,0-0.7,0.1-0.9,0.4c-0.2,0.3-0.3,0.6-0.3,1.1h-1.7l0,0c0-0.8,0.2-1.4,0.8-2c0.5-0.5,1.3-0.8,2.2-0.8
			c0.9,0,1.6,0.2,2.1,0.7c0.5,0.5,0.8,1.1,0.8,1.9c0,0.5-0.1,1-0.4,1.5c-0.3,0.4-0.8,1-1.4,1.7l-1.5,1.7l0,0h2.3l0.1-0.9h1.3v2.2
			H639.1z"/>
	</g>
	<path class="st24" d="M623.1,229.3c6.6,0,11.7,5.6,11.7,10.4v5.5c0,0.2,0,0.3-0.1,0.5c0.3,1.8-0.6,3.5-2.2,4.4
		c-0.2,2.1-1.2,4.1-2.7,5.7c1.2,0.3,2.3,0.8,3.2,1.6c1.4,1.1,2.3,2.8,2.3,4.6v4.6c0,1.1-0.9,2-2,2h-20.7c-1.1,0-2-0.9-2-2v-4.6
		c0-1.8,0.9-3.6,2.4-4.6c1-0.8,2.1-1.3,3.3-1.5c-1.5-1.5-2.4-3.5-2.8-5.6c-1.2-0.6-2.1-1.8-2.3-3.1c0-0.1,0-0.2,0-0.3V246
		c0-0.1,0-0.2,0-0.3v-0.2c0-0.2,0-0.3,0-0.5v-5.4C611.4,234.8,616.5,229.3,623.1,229.3 M623.1,227.3c-7.8,0-13.7,6.5-13.7,12.4v5.4
		c0,0.2,0,0.3,0,0.5c0,0.2,0,0.3,0,0.5v0.7c0,0.2,0,0.4,0,0.6c0.2,1.6,1.1,3.1,2.5,4.1c0.3,1.2,0.7,2.3,1.3,3.3
		c-0.5,0.3-0.9,0.6-1.4,0.9c-2,1.5-3.1,3.8-3.1,6.2v4.6c0,2.2,1.8,4,4,4h20.7c2.2,0,4-1.8,4-4v-4.6c0-2.4-1.1-4.7-3.1-6.1
		c-0.4-0.3-0.8-0.6-1.3-0.9c0.7-1.1,1.1-2.3,1.4-3.6c1.5-1.2,2.4-2.9,2.4-4.8c0-0.2,0-0.4,0-0.7c0-0.2,0-0.4,0-0.6v-5.5
		C636.8,233.8,630.9,227.3,623.1,227.3L623.1,227.3z"/>
	<path class="st1" d="M623.1,231.3c5.4,0,9.7,4.5,9.7,8.4v5.5h-0.4c0.3,0.4,0.4,0.8,0.4,1.2c0,1.2-1,2.1-2.2,2.2v0.5
		c0,2.5-1.3,4.9-3.4,6.3h0.1v2.2h0.9c0.3,0,0.6,0,0.9,0.1c1,0.1,2,0.6,2.8,1.2c1,0.7,1.6,1.8,1.6,3v4.6h-20.7v-4.6
		c0-1.2,0.6-2.3,1.6-3c0.8-0.7,1.8-1.1,2.8-1.2c0.3-0.1,0.6-0.1,0.9-0.1h0.9v-2.2h0.3c-2.2-1.5-3.5-4-3.5-6.6c0-0.2,0-0.5,0-0.7
		c0,0.2,0,0.4,0,0.6c-1.1,0-2-0.8-2.2-1.8V246c0-0.4,0.2-0.7,0.4-1h-0.4v-5.4C613.5,235.7,617.8,231.2,623.1,231.3 M623.2,229.2
		c-6.6,0-11.7,5.6-11.7,10.4v5.4c0,0.2,0,0.3,0,0.5v0.2c0,0.1,0,0.2,0,0.3v0.7c0,0.1,0,0.2,0,0.3c0.2,1.4,1.1,2.5,2.3,3.1
		c0.3,2.1,1.3,4,2.8,5.6c-1.2,0.2-2.4,0.8-3.4,1.6c-1.5,1.1-2.3,2.8-2.3,4.6v4.6c0,1.1,0.9,2,2,2h20.7c1.1,0,2-0.9,2-2v-4.6
		c0-1.8-0.9-3.5-2.3-4.6c-0.9-0.8-2-1.3-3.2-1.5c1.5-1.5,2.5-3.5,2.7-5.7c1.6-0.8,2.5-2.6,2.2-4.4c0-0.2,0.1-0.3,0.1-0.5v-5.5
		C634.9,234.8,629.8,229.2,623.2,229.2L623.2,229.2z"/>
	<path class="st1" d="M626,245.6c0.4,0,0.7,0.3,0.7,0.7c0,0.4-0.3,0.7-0.7,0.7c-0.4,0-0.7-0.3-0.7-0.7S625.6,245.6,626,245.6
		L626,245.6z"/>
	<circle class="st1" cx="620.3" cy="246.4" r="0.7"/>
	<path class="st5" d="M627.3,255.3v2.2h0.9c0.3,0,0.6,0,0.9,0.1c1,0.1,2,0.6,2.8,1.2c1,0.7,1.6,1.8,1.6,3v4.6h-20.7v-4.6
		c0-1.2,0.6-2.3,1.6-3c0.8-0.7,1.8-1.1,2.8-1.2c0.3-0.1,0.6-0.1,0.9-0.1h0.9v-2.2"/>
	<path class="st6" d="M615.6,244.3c0,1.8,0.1,2.6,0.1,4.4c-0.1,4.2,3.3,7.7,7.5,7.8c4.1,0,7.5-3.3,7.5-7.4c0,0,0,0,0-0.1v-5"/>
	<path class="st6" d="M615.6,244.2l0.6-4.6c1.4-0.4,8.2,3.6,11.2-1.4c0,0-0.8,2.5,3.3,5.4v0.6"/>
	<path class="st6" d="M632.8,246.5c0,1.2-1,2.1-2.2,2.1v-4.3C631.9,244.4,632.8,245.4,632.8,246.5z"/>
	<path class="st6" d="M613.4,246v0.7c0.2,1,1.1,1.8,2.2,1.8v-4.3C614.5,244.2,613.6,245,613.4,246z"/>
	<path class="st6" d="M621,251c0.5,0.7,1.3,1.1,2.1,1.1c0.8,0,1.6-0.4,2.1-1.1"/>
	<path class="st6" d="M613.4,245.1v-5.4c0-3.8,4.3-8.4,9.7-8.4s9.7,4.5,9.7,8.4v5.5"/>
</g>
</svg>
