<?xml version="1.0" encoding="utf-8"?>
<!-- Generator: Adobe Illustrator 24.0.0, SVG Export Plug-In . SVG Version: 6.00 Build 0)  -->
<svg version="1.1" id="Ebene_1" xmlns="http://www.w3.org/2000/svg" xmlns:xlink="http://www.w3.org/1999/xlink" x="0px" y="0px"
	 viewBox="0 0 636.5 118.7" style="enable-background:new 0 0 636.5 118.7;" xml:space="preserve">
<style type="text/css">
	.st0{enable-background:new    ;}
	.st1{fill:#990066;}
	.st2{fill:url(#SVGID_1_);}
	.st3{fill:none;stroke:#FFCC00;stroke-width:2;stroke-miterlimit:10;}
	.st4{fill:none;stroke:#FFCC00;stroke-width:2;stroke-linecap:round;stroke-linejoin:round;}
	.st5{fill:#FFCC00;}
	.st6{fill:#FFFFFF;stroke:#FFCC00;stroke-width:2;stroke-linecap:round;stroke-linejoin:round;}
	.st7{clip-path:url(#SVGID_3_);}
	.st8{clip-path:url(#SVGID_5_);}
	.st9{fill:#FFD138;}
	.st10{fill:#FDFEFF;}
	.st11{fill:none;stroke:#990066;stroke-width:2;stroke-miterlimit:10;}
</style>
<g id="Ebene_2_1_">
	<g class="st0">
		<path class="st1" d="M97.1,38.1h-1.5l3.7-10.8h1.5L97.1,38.1z"/>
		<path class="st1" d="M104.8,37.4c-1.1,0-1.9-0.3-2.6-1s-1-1.6-1-2.6v-0.3c0-1.1,0.3-2,0.9-2.7s1.4-1.1,2.4-1.1
			c1,0,1.8,0.3,2.3,0.9s0.8,1.4,0.8,2.4v1.1h-4.4l0,0c0,0.5,0.2,0.9,0.5,1.2s0.7,0.5,1.2,0.5c0.4,0,0.8,0,1.1-0.1
			c0.3-0.1,0.6-0.2,1-0.4l0.5,1.2c-0.3,0.2-0.7,0.4-1.2,0.6S105.4,37.4,104.8,37.4z M104.7,31.3c-0.4,0-0.7,0.1-0.9,0.4
			s-0.3,0.7-0.4,1.1l0,0h2.4v-0.2c0-0.4-0.1-0.8-0.3-1C105.4,31.4,105.1,31.3,104.7,31.3z"/>
	</g>
	<g class="st0">
		<path class="st1" d="M108.6,36.1l1-0.2v-4.6l-1.1-0.2v-1.2h2.9l0.1,1.1c0.2-0.4,0.5-0.7,0.9-0.9s0.8-0.3,1.2-0.3
			c0.7,0,1.3,0.2,1.8,0.7s0.6,1.2,0.6,2.2v3.2l1,0.2v1.2h-3.8v-1.2l0.9-0.2v-3.2c0-0.5-0.1-0.8-0.3-1.1c-0.2-0.2-0.5-0.3-0.9-0.3
			c-0.3,0-0.5,0.1-0.7,0.2c-0.2,0.1-0.4,0.3-0.5,0.5v4l0.8,0.2v1.2h-3.8V36.1z"/>
	</g>
	<g class="st0">
		<path class="st1" d="M121,35.9c0.4,0,0.6-0.1,0.9-0.3c0.2-0.2,0.3-0.5,0.3-0.8h1.8l0,0c0,0.7-0.3,1.4-0.8,1.9
			c-0.6,0.5-1.3,0.8-2.2,0.8c-1.1,0-2-0.3-2.5-1s-0.9-1.6-0.9-2.7v-0.2c0-1.1,0.3-2,0.9-2.7s1.5-1.1,2.6-1.1c0.6,0,1.1,0.1,1.6,0.3
			s0.9,0.4,1.2,0.8l0,2h-1.6l-0.3-1.2c-0.1-0.1-0.2-0.2-0.4-0.2c-0.1-0.1-0.3-0.1-0.5-0.1c-0.6,0-1,0.2-1.2,0.6s-0.3,0.9-0.3,1.6
			v0.2c0,0.7,0.1,1.2,0.3,1.6C120.1,35.7,120.5,35.9,121,35.9z"/>
	</g>
	<g class="st0">
		<path class="st1" d="M125.1,36.1l1-0.2v-4.6l-1.1-0.2v-1.2h2.9l0.1,1.1c0.2-0.4,0.4-0.7,0.7-0.9s0.6-0.3,1-0.3c0.1,0,0.2,0,0.3,0
			c0.1,0,0.2,0,0.3,0.1l-0.2,1.8l-0.8,0c-0.3,0-0.5,0.1-0.7,0.2s-0.3,0.3-0.4,0.5v3.6l1,0.2v1.2h-3.9V36.1z"/>
	</g>
	<g class="st0">
		<path class="st1" d="M138.6,31.1l-0.7,0.1l-2.7,7.2c-0.2,0.5-0.5,1-0.9,1.3c-0.4,0.4-0.9,0.5-1.6,0.5c-0.2,0-0.3,0-0.5,0
			c-0.1,0-0.3-0.1-0.5-0.1l0.2-1.5c0.1,0,0.1,0,0.2,0s0.1,0,0.2,0c0.3,0,0.6-0.1,0.8-0.2c0.2-0.2,0.3-0.4,0.4-0.6l0.2-0.6l-2.3-6.1
			l-0.7-0.1v-1.2h3.6v1.2l-0.8,0.1l1,3l0.1,0.5l0,0l1.2-3.5l-0.8-0.1v-1.2h3.6V31.1z"/>
		<path class="st1" d="M139.1,31.1v-1.2h2.9l0.1,0.9c0.2-0.3,0.5-0.6,0.8-0.7c0.3-0.2,0.7-0.3,1.1-0.3c0.9,0,1.6,0.4,2.1,1.1
			s0.8,1.7,0.8,2.8v0.1c0,1.1-0.3,2-0.8,2.6s-1.2,1-2.1,1c-0.4,0-0.7-0.1-1-0.2c-0.3-0.1-0.6-0.4-0.8-0.6v2.1l1,0.2v1.2h-3.9v-1.2
			l1-0.2v-7.4L139.1,31.1z M144.8,33.6c0-0.7-0.1-1.3-0.3-1.7s-0.6-0.6-1.1-0.6c-0.3,0-0.6,0.1-0.8,0.2s-0.4,0.3-0.5,0.5v3.2
			c0.1,0.2,0.3,0.4,0.5,0.5s0.5,0.2,0.8,0.2c0.5,0,0.8-0.2,1.1-0.6s0.3-0.9,0.3-1.5V33.6z"/>
		<path class="st1" d="M150.7,28v1.8h1.3v1.4h-1.3V35c0,0.3,0.1,0.5,0.2,0.6c0.1,0.1,0.3,0.2,0.5,0.2c0.1,0,0.3,0,0.4,0
			c0.1,0,0.2,0,0.3-0.1l0.2,1.4c-0.2,0.1-0.4,0.1-0.7,0.2c-0.2,0-0.5,0.1-0.7,0.1c-0.7,0-1.2-0.2-1.6-0.6c-0.4-0.4-0.6-1-0.6-1.8
			v-3.8h-1.1v-1.4h1.1V28H150.7z"/>
		<path class="st1" d="M156.5,37.4c-1.1,0-1.9-0.3-2.6-1c-0.6-0.7-1-1.6-1-2.6v-0.3c0-1.1,0.3-2,0.9-2.7c0.6-0.7,1.4-1.1,2.4-1.1
			c1,0,1.8,0.3,2.3,0.9c0.6,0.6,0.8,1.4,0.8,2.4v1.1H155l0,0c0,0.5,0.2,0.9,0.5,1.2c0.3,0.3,0.7,0.5,1.2,0.5c0.4,0,0.8,0,1.1-0.1
			c0.3-0.1,0.6-0.2,1-0.4l0.5,1.2c-0.3,0.2-0.7,0.4-1.2,0.6S157.1,37.4,156.5,37.4z M156.3,31.3c-0.4,0-0.7,0.1-0.9,0.4
			c-0.2,0.3-0.3,0.7-0.4,1.1l0,0h2.4v-0.2c0-0.4-0.1-0.8-0.3-1C157,31.4,156.7,31.3,156.3,31.3z"/>
		<path class="st1" d="M165.2,36.3c-0.2,0.3-0.5,0.6-0.8,0.8c-0.3,0.2-0.7,0.3-1.1,0.3c-0.9,0-1.6-0.3-2.1-1
			c-0.5-0.7-0.8-1.5-0.8-2.6v-0.1c0-1.2,0.3-2.1,0.8-2.8s1.2-1.1,2.1-1.1c0.4,0,0.7,0.1,1,0.2c0.3,0.2,0.6,0.4,0.8,0.7V28l-1.1-0.2
			v-1.2h1.1h2v9.3l1,0.2v1.2h-2.7L165.2,36.3z M162.4,33.8c0,0.6,0.1,1.2,0.3,1.5c0.2,0.4,0.6,0.6,1.1,0.6c0.3,0,0.5-0.1,0.8-0.2
			c0.2-0.1,0.4-0.3,0.5-0.5V32c-0.1-0.2-0.3-0.4-0.5-0.6c-0.2-0.1-0.5-0.2-0.7-0.2c-0.5,0-0.8,0.2-1.1,0.6c-0.2,0.4-0.3,1-0.3,1.7
			V33.8z"/>
		<path class="st1" d="M168.6,28.5v-1.2h4.1v1.2l-1.1,0.2v7.1l1.1,0.2v1.2h-4.1v-1.2l1.1-0.2v-7.1L168.6,28.5z"/>
		<path class="st1" d="M173.5,36.1l1-0.2v-4.6l-1.1-0.2v-1.2h2.9l0.1,1.1c0.2-0.4,0.5-0.7,0.9-0.9c0.4-0.2,0.8-0.3,1.2-0.3
			c0.7,0,1.3,0.2,1.8,0.7c0.4,0.5,0.6,1.2,0.6,2.2v3.2l1,0.2v1.2H178v-1.2l0.9-0.2v-3.2c0-0.5-0.1-0.8-0.3-1.1
			c-0.2-0.2-0.5-0.3-0.9-0.3c-0.3,0-0.5,0.1-0.7,0.2c-0.2,0.1-0.4,0.3-0.5,0.5v4l0.8,0.2v1.2h-3.8V36.1z"/>
		<path class="st1" d="M182.3,31.1v-1.2h2.9l0.1,0.9c0.2-0.3,0.5-0.6,0.8-0.7c0.3-0.2,0.7-0.3,1.1-0.3c0.9,0,1.6,0.4,2.1,1.1
			s0.8,1.7,0.8,2.8v0.1c0,1.1-0.3,2-0.8,2.6s-1.2,1-2.1,1c-0.4,0-0.7-0.1-1-0.2c-0.3-0.1-0.6-0.4-0.8-0.6v2.1l1,0.2v1.2h-3.9v-1.2
			l1-0.2v-7.4L182.3,31.1z M188,33.6c0-0.7-0.1-1.3-0.3-1.7s-0.6-0.6-1.1-0.6c-0.3,0-0.6,0.1-0.8,0.2s-0.4,0.3-0.5,0.5v3.2
			c0.1,0.2,0.3,0.4,0.5,0.5s0.5,0.2,0.8,0.2c0.5,0,0.8-0.2,1.1-0.6s0.3-0.9,0.3-1.5V33.6z"/>
		<path class="st1" d="M196.1,36.3c-0.2,0.3-0.5,0.6-0.9,0.8s-0.7,0.3-1.2,0.3c-0.8,0-1.4-0.2-1.8-0.7c-0.4-0.5-0.7-1.3-0.7-2.3
			v-3.1l-0.8-0.2v-1.2h0.8h2v4.5c0,0.5,0.1,0.9,0.3,1.2c0.2,0.2,0.4,0.4,0.8,0.4c0.3,0,0.6-0.1,0.8-0.2c0.2-0.1,0.4-0.2,0.6-0.4v-4
			l-0.9-0.2v-1.2h0.9h2v6l0.9,0.2v1.2h-2.6L196.1,36.3z"/>
		<path class="st1" d="M202.6,28v1.8h1.3v1.4h-1.3V35c0,0.3,0.1,0.5,0.2,0.6c0.1,0.1,0.3,0.2,0.5,0.2c0.1,0,0.3,0,0.4,0
			c0.1,0,0.2,0,0.3-0.1l0.2,1.4c-0.2,0.1-0.4,0.1-0.7,0.2c-0.2,0-0.5,0.1-0.7,0.1c-0.7,0-1.2-0.2-1.6-0.6c-0.4-0.4-0.6-1-0.6-1.8
			v-3.8h-1.1v-1.4h1.1V28H202.6z"/>
		<path class="st1" d="M210.9,32.4h-1.3l-0.2-0.9c-0.1-0.1-0.3-0.2-0.5-0.3c-0.2-0.1-0.4-0.1-0.7-0.1c-0.4,0-0.6,0.1-0.8,0.2
			c-0.2,0.2-0.3,0.4-0.3,0.6c0,0.2,0.1,0.4,0.3,0.6c0.2,0.1,0.6,0.3,1.2,0.4c0.9,0.2,1.6,0.5,2,0.8c0.4,0.4,0.7,0.8,0.7,1.5
			c0,0.7-0.3,1.2-0.9,1.6c-0.6,0.4-1.3,0.6-2.3,0.6c-0.6,0-1.1-0.1-1.6-0.2c-0.5-0.2-0.9-0.4-1.3-0.7l0-1.7h1.4l0.3,1
			c0.1,0.1,0.3,0.2,0.5,0.2c0.2,0,0.4,0.1,0.6,0.1c0.4,0,0.7-0.1,0.9-0.2s0.3-0.3,0.3-0.6c0-0.2-0.1-0.4-0.3-0.6
			c-0.2-0.2-0.6-0.3-1.2-0.4c-0.9-0.2-1.5-0.4-2-0.8c-0.4-0.3-0.7-0.8-0.7-1.4c0-0.6,0.3-1.2,0.8-1.6c0.5-0.4,1.2-0.7,2.2-0.7
			c0.6,0,1.1,0.1,1.6,0.2s0.9,0.4,1.2,0.6L210.9,32.4z"/>
	</g>
	<g class="st0">
		<path class="st1" d="M407.8,38.1h-1.5l3.7-10.8h1.5L407.8,38.1z"/>
		<path class="st1" d="M415.5,37.4c-1.1,0-1.9-0.3-2.6-1s-1-1.6-1-2.6v-0.3c0-1.1,0.3-2,0.9-2.7c0.6-0.7,1.4-1.1,2.4-1.1
			c1,0,1.8,0.3,2.3,0.9s0.8,1.4,0.8,2.4v1.1h-4.4l0,0c0,0.5,0.2,0.9,0.5,1.2c0.3,0.3,0.7,0.5,1.2,0.5c0.4,0,0.8,0,1.1-0.1
			c0.3-0.1,0.6-0.2,1-0.4l0.5,1.2c-0.3,0.2-0.7,0.4-1.2,0.6C416.7,37.3,416.1,37.4,415.5,37.4z M415.4,31.3c-0.4,0-0.7,0.1-0.9,0.4
			s-0.3,0.7-0.4,1.1l0,0h2.4v-0.2c0-0.4-0.1-0.8-0.3-1C416.1,31.4,415.8,31.3,415.4,31.3z"/>
	</g>
	<g class="st0">
		<path class="st1" d="M419.4,36.1l1-0.2v-4.6l-1.1-0.2v-1.2h2.9l0.1,1.1c0.2-0.4,0.5-0.7,0.9-0.9c0.4-0.2,0.8-0.3,1.2-0.3
			c0.7,0,1.3,0.2,1.8,0.7c0.4,0.5,0.6,1.2,0.6,2.2v3.2l1,0.2v1.2h-3.8v-1.2l0.9-0.2v-3.2c0-0.5-0.1-0.8-0.3-1.1
			c-0.2-0.2-0.5-0.3-0.9-0.3c-0.3,0-0.5,0.1-0.7,0.2c-0.2,0.1-0.4,0.3-0.5,0.5v4l0.8,0.2v1.2h-3.8V36.1z"/>
	</g>
	<g class="st0">
		<path class="st1" d="M431.8,35.9c0.4,0,0.6-0.1,0.9-0.3c0.2-0.2,0.3-0.5,0.3-0.8h1.8l0,0c0,0.7-0.3,1.4-0.8,1.9
			c-0.6,0.5-1.3,0.8-2.2,0.8c-1.1,0-2-0.3-2.5-1c-0.6-0.7-0.9-1.6-0.9-2.7v-0.2c0-1.1,0.3-2,0.9-2.7c0.6-0.7,1.5-1.1,2.6-1.1
			c0.6,0,1.1,0.1,1.6,0.3c0.5,0.2,0.9,0.4,1.2,0.8l0,2H433l-0.3-1.2c-0.1-0.1-0.2-0.2-0.4-0.2c-0.1-0.1-0.3-0.1-0.5-0.1
			c-0.6,0-1,0.2-1.2,0.6s-0.3,0.9-0.3,1.6v0.2c0,0.7,0.1,1.2,0.3,1.6C430.8,35.7,431.2,35.9,431.8,35.9z"/>
	</g>
	<g class="st0">
		<path class="st1" d="M435.8,36.1l1-0.2v-4.6l-1.1-0.2v-1.2h2.9l0.1,1.1c0.2-0.4,0.4-0.7,0.7-0.9s0.6-0.3,0.9-0.3
			c0.1,0,0.2,0,0.3,0c0.1,0,0.2,0,0.3,0.1l-0.2,1.8l-0.8,0c-0.3,0-0.5,0.1-0.7,0.2s-0.3,0.3-0.4,0.5v3.6l1,0.2v1.2h-3.9V36.1z"/>
	</g>
	<g class="st0">
		<path class="st1" d="M449.3,31.1l-0.7,0.1l-2.7,7.2c-0.2,0.5-0.5,1-0.9,1.3c-0.4,0.4-0.9,0.5-1.6,0.5c-0.2,0-0.3,0-0.5,0
			c-0.1,0-0.3-0.1-0.5-0.1l0.2-1.5c0.1,0,0.1,0,0.2,0s0.1,0,0.2,0c0.3,0,0.6-0.1,0.8-0.2c0.2-0.2,0.3-0.4,0.4-0.6l0.2-0.6l-2.3-6.1
			l-0.7-0.1v-1.2h3.6v1.2l-0.8,0.1l1,3l0.1,0.5l0,0l1.2-3.5l-0.8-0.1v-1.2h3.6V31.1z"/>
		<path class="st1" d="M449.8,31.1v-1.2h2.9l0.1,0.9c0.2-0.3,0.5-0.6,0.8-0.7c0.3-0.2,0.7-0.3,1.1-0.3c0.9,0,1.6,0.4,2.1,1.1
			s0.8,1.7,0.8,2.8v0.1c0,1.1-0.3,2-0.8,2.6s-1.2,1-2.1,1c-0.4,0-0.7-0.1-1-0.2c-0.3-0.1-0.6-0.4-0.8-0.6v2.1l1,0.2v1.2h-3.9v-1.2
			l1-0.2v-7.4L449.8,31.1z M455.5,33.6c0-0.7-0.1-1.3-0.3-1.7s-0.6-0.6-1.1-0.6c-0.3,0-0.6,0.1-0.8,0.2s-0.4,0.3-0.5,0.5v3.2
			c0.1,0.2,0.3,0.4,0.5,0.5s0.5,0.2,0.8,0.2c0.5,0,0.8-0.2,1.1-0.6s0.3-0.9,0.3-1.5V33.6z"/>
		<path class="st1" d="M461.4,28v1.8h1.3v1.4h-1.3V35c0,0.3,0.1,0.5,0.2,0.6c0.1,0.1,0.3,0.2,0.5,0.2c0.1,0,0.3,0,0.4,0
			c0.1,0,0.2,0,0.3-0.1l0.2,1.4c-0.2,0.1-0.4,0.1-0.7,0.2c-0.2,0-0.5,0.1-0.7,0.1c-0.7,0-1.2-0.2-1.6-0.6c-0.4-0.4-0.6-1-0.6-1.8
			v-3.8h-1.1v-1.4h1.1V28H461.4z"/>
		<path class="st1" d="M467.2,37.4c-1.1,0-1.9-0.3-2.6-1c-0.6-0.7-1-1.6-1-2.6v-0.3c0-1.1,0.3-2,0.9-2.7c0.6-0.7,1.4-1.1,2.4-1.1
			c1,0,1.8,0.3,2.3,0.9c0.6,0.6,0.8,1.4,0.8,2.4v1.1h-4.4l0,0c0,0.5,0.2,0.9,0.5,1.2c0.3,0.3,0.7,0.5,1.2,0.5c0.4,0,0.8,0,1.1-0.1
			c0.3-0.1,0.6-0.2,1-0.4l0.5,1.2c-0.3,0.2-0.7,0.4-1.2,0.6S467.8,37.4,467.2,37.4z M467,31.3c-0.4,0-0.7,0.1-0.9,0.4
			c-0.2,0.3-0.3,0.7-0.4,1.1l0,0h2.4v-0.2c0-0.4-0.1-0.8-0.3-1C467.7,31.4,467.4,31.3,467,31.3z"/>
		<path class="st1" d="M475.9,36.3c-0.2,0.3-0.5,0.6-0.8,0.8c-0.3,0.2-0.7,0.3-1.1,0.3c-0.9,0-1.6-0.3-2.1-1
			c-0.5-0.7-0.8-1.5-0.8-2.6v-0.1c0-1.2,0.3-2.1,0.8-2.8s1.2-1.1,2.1-1.1c0.4,0,0.7,0.1,1,0.2c0.3,0.2,0.6,0.4,0.8,0.7V28l-1.1-0.2
			v-1.2h1.1h2v9.3l1,0.2v1.2h-2.7L475.9,36.3z M473.1,33.8c0,0.6,0.1,1.2,0.3,1.5c0.2,0.4,0.6,0.6,1.1,0.6c0.3,0,0.5-0.1,0.8-0.2
			c0.2-0.1,0.4-0.3,0.5-0.5V32c-0.1-0.2-0.3-0.4-0.5-0.6c-0.2-0.1-0.5-0.2-0.7-0.2c-0.5,0-0.8,0.2-1.1,0.6c-0.2,0.4-0.3,1-0.3,1.7
			V33.8z"/>
		<path class="st1" d="M488.4,32.3c0,1.5-0.4,2.7-1.3,3.6s-1.9,1.4-3.3,1.4c-1.3,0-2.4-0.5-3.3-1.4s-1.2-2.2-1.2-3.6v-0.2
			c0-1.4,0.4-2.7,1.2-3.6c0.8-1,1.9-1.4,3.3-1.4c1.3,0,2.4,0.5,3.3,1.4c0.8,1,1.3,2.2,1.3,3.6V32.3z M486.5,32.2
			c0-1-0.2-1.9-0.6-2.5c-0.4-0.6-1.1-1-1.9-1c-0.8,0-1.5,0.3-1.9,1c-0.4,0.6-0.6,1.5-0.6,2.5v0.2c0,1,0.2,1.9,0.6,2.5
			c0.4,0.6,1,1,1.9,1c0.8,0,1.5-0.3,1.9-1c0.4-0.6,0.6-1.5,0.6-2.5V32.2z"/>
		<path class="st1" d="M494.5,36.3c-0.2,0.3-0.5,0.6-0.9,0.8s-0.7,0.3-1.2,0.3c-0.8,0-1.4-0.2-1.8-0.7c-0.4-0.5-0.7-1.3-0.7-2.3
			v-3.1l-0.8-0.2v-1.2h0.8h2v4.5c0,0.5,0.1,0.9,0.3,1.2c0.2,0.2,0.4,0.4,0.8,0.4c0.3,0,0.6-0.1,0.8-0.2c0.2-0.1,0.4-0.2,0.6-0.4v-4
			l-0.9-0.2v-1.2h0.9h2v6l0.9,0.2v1.2h-2.6L494.5,36.3z"/>
		<path class="st1" d="M501,28v1.8h1.3v1.4H501V35c0,0.3,0.1,0.5,0.2,0.6c0.1,0.1,0.3,0.2,0.5,0.2c0.1,0,0.3,0,0.4,0
			c0.1,0,0.2,0,0.3-0.1l0.2,1.4c-0.2,0.1-0.4,0.1-0.7,0.2c-0.2,0-0.5,0.1-0.7,0.1c-0.7,0-1.2-0.2-1.6-0.6c-0.4-0.4-0.6-1-0.6-1.8
			v-3.8h-1.1v-1.4h1.1V28H501z"/>
		<path class="st1" d="M503.1,31.1v-1.2h2.9l0.1,0.9c0.2-0.3,0.5-0.6,0.8-0.7c0.3-0.2,0.7-0.3,1.1-0.3c0.9,0,1.6,0.4,2.1,1.1
			s0.8,1.7,0.8,2.8v0.1c0,1.1-0.3,2-0.8,2.6s-1.2,1-2.1,1c-0.4,0-0.7-0.1-1-0.2c-0.3-0.1-0.6-0.4-0.8-0.6v2.1l1,0.2v1.2h-3.9v-1.2
			l1-0.2v-7.4L503.1,31.1z M508.8,33.6c0-0.7-0.1-1.3-0.3-1.7s-0.6-0.6-1.1-0.6c-0.3,0-0.6,0.1-0.8,0.2s-0.4,0.3-0.5,0.5v3.2
			c0.1,0.2,0.3,0.4,0.5,0.5s0.5,0.2,0.8,0.2c0.5,0,0.8-0.2,1.1-0.6s0.3-0.9,0.3-1.5V33.6z"/>
		<path class="st1" d="M516.9,36.3c-0.2,0.3-0.5,0.6-0.9,0.8s-0.7,0.3-1.2,0.3c-0.8,0-1.4-0.2-1.8-0.7c-0.4-0.5-0.7-1.3-0.7-2.3
			v-3.1l-0.8-0.2v-1.2h0.8h2v4.5c0,0.5,0.1,0.9,0.3,1.2c0.2,0.2,0.4,0.4,0.8,0.4c0.3,0,0.6-0.1,0.8-0.2c0.2-0.1,0.4-0.2,0.6-0.4v-4
			l-0.9-0.2v-1.2h0.9h2v6l0.9,0.2v1.2H517L516.9,36.3z"/>
		<path class="st1" d="M523.4,28v1.8h1.3v1.4h-1.3V35c0,0.3,0.1,0.5,0.2,0.6c0.1,0.1,0.3,0.2,0.5,0.2c0.1,0,0.3,0,0.4,0
			c0.1,0,0.2,0,0.3-0.1l0.2,1.4c-0.2,0.1-0.4,0.1-0.7,0.2c-0.2,0-0.5,0.1-0.7,0.1c-0.7,0-1.2-0.2-1.6-0.6c-0.4-0.4-0.6-1-0.6-1.8
			v-3.8h-1.1v-1.4h1.1V28H523.4z"/>
		<path class="st1" d="M531.7,32.4h-1.3l-0.2-0.9c-0.1-0.1-0.3-0.2-0.5-0.3c-0.2-0.1-0.4-0.1-0.7-0.1c-0.4,0-0.6,0.1-0.8,0.2
			c-0.2,0.2-0.3,0.4-0.3,0.6c0,0.2,0.1,0.4,0.3,0.6c0.2,0.1,0.6,0.3,1.2,0.4c0.9,0.2,1.6,0.5,2,0.8c0.4,0.4,0.7,0.8,0.7,1.5
			c0,0.7-0.3,1.2-0.9,1.6c-0.6,0.4-1.3,0.6-2.3,0.6c-0.6,0-1.1-0.1-1.6-0.2c-0.5-0.2-0.9-0.4-1.3-0.7l0-1.7h1.4l0.3,1
			c0.1,0.1,0.3,0.2,0.5,0.2c0.2,0,0.4,0.1,0.6,0.1c0.4,0,0.7-0.1,0.9-0.2s0.3-0.3,0.3-0.6c0-0.2-0.1-0.4-0.3-0.6
			c-0.2-0.2-0.6-0.3-1.2-0.4c-0.9-0.2-1.5-0.4-2-0.8c-0.4-0.3-0.7-0.8-0.7-1.4c0-0.6,0.3-1.2,0.8-1.6c0.5-0.4,1.2-0.7,2.2-0.7
			c0.6,0,1.1,0.1,1.6,0.2s0.9,0.4,1.2,0.6L531.7,32.4z"/>
	</g>
	<g class="st0">
		<path class="st1" d="M73.2,85.2v-1h1.2v-0.9c0-0.8,0.2-1.4,0.6-1.8c0.4-0.4,1-0.6,1.7-0.6c0.2,0,0.3,0,0.5,0
			c0.2,0,0.3,0.1,0.5,0.1l-0.2,1c-0.1,0-0.2,0-0.3,0s-0.2,0-0.4,0c-0.4,0-0.7,0.1-0.9,0.4c-0.2,0.2-0.3,0.6-0.3,1v0.9h1.5v1h-1.5
			v5.3l1.1,0.2v0.9h-3.6v-0.9l1.1-0.2v-5.3H73.2z"/>
		<path class="st1" d="M78.6,90.7l1.5-0.2v-7.5l-1.6,0v-0.8l2.9-0.6v8.9l1.5,0.2v0.9h-4.4V90.7z"/>
	</g>
	<g class="st0">
		<path class="st1" d="M86.1,93.7c-0.7,0-1.2-0.2-1.6-0.7c-0.4-0.4-0.6-1-0.6-1.7v-0.2c0-0.7,0.2-1.2,0.6-1.7
			c0.4-0.5,0.9-0.7,1.4-0.7c0.6,0,1.1,0.2,1.5,0.6c0.3,0.4,0.5,0.9,0.5,1.5v0.5h-3.1l0,0c0,0.5,0.1,0.8,0.3,1.1
			c0.2,0.3,0.5,0.4,0.9,0.4c0.3,0,0.5,0,0.8-0.1c0.2-0.1,0.4-0.2,0.6-0.3l0.3,0.6c-0.2,0.2-0.4,0.3-0.7,0.4
			C86.8,93.6,86.5,93.7,86.1,93.7z M85.9,89.4c-0.3,0-0.5,0.1-0.7,0.4c-0.2,0.2-0.3,0.6-0.4,0.9l0,0H87v-0.1c0-0.3-0.1-0.6-0.3-0.9
			S86.3,89.4,85.9,89.4z"/>
	</g>
	<g class="st0">
		<path class="st1" d="M88.6,93l0.7-0.1v-3.4l-0.7-0.1v-0.6h1.5l0.1,0.7c0.2-0.3,0.4-0.4,0.6-0.6c0.2-0.1,0.5-0.2,0.8-0.2
			c0.5,0,0.9,0.2,1.2,0.5c0.3,0.3,0.4,0.8,0.4,1.4v2.3l0.7,0.1v0.6h-2.3V93l0.7-0.1v-2.3c0-0.4-0.1-0.7-0.2-0.9
			c-0.2-0.2-0.4-0.3-0.8-0.3c-0.2,0-0.5,0.1-0.7,0.2s-0.3,0.3-0.5,0.5v2.8l0.7,0.1v0.6h-2.3V93z"/>
	</g>
	<g class="st0">
		<path class="st1" d="M96.6,93c0.3,0,0.5-0.1,0.8-0.3c0.2-0.2,0.3-0.4,0.3-0.7h0.8l0,0c0,0.4-0.2,0.8-0.5,1.1
			c-0.4,0.3-0.8,0.5-1.3,0.5c-0.7,0-1.2-0.2-1.6-0.7c-0.4-0.5-0.5-1-0.5-1.7v-0.2c0-0.7,0.2-1.2,0.5-1.7c0.4-0.5,0.9-0.7,1.6-0.7
			c0.4,0,0.7,0.1,1,0.2c0.3,0.1,0.6,0.3,0.8,0.5l0,1.1h-0.7l-0.2-0.7c-0.1-0.1-0.2-0.2-0.4-0.2s-0.3-0.1-0.5-0.1
			c-0.5,0-0.8,0.2-1,0.5c-0.2,0.3-0.3,0.7-0.3,1.2v0.2c0,0.5,0.1,0.9,0.3,1.2C95.8,92.8,96.2,93,96.6,93z"/>
	</g>
	<g class="st0">
		<path class="st1" d="M205.5,85.2v-1h1.2v-0.9c0-0.8,0.2-1.4,0.6-1.8c0.4-0.4,1-0.6,1.7-0.6c0.2,0,0.3,0,0.5,0
			c0.2,0,0.3,0.1,0.5,0.1l-0.2,1c-0.1,0-0.2,0-0.3,0s-0.2,0-0.4,0c-0.4,0-0.7,0.1-0.9,0.4c-0.2,0.2-0.3,0.6-0.3,1v0.9h1.5v1H208v5.3
			l1.1,0.2v0.9h-3.6v-0.9l1.1-0.2v-5.3H205.5z"/>
		<path class="st1" d="M210.4,90.7l1.1-0.2v-5.3l-1.1-0.2v-0.9h2.3l0.1,1.1c0.2-0.4,0.6-0.7,0.9-0.9c0.4-0.2,0.8-0.3,1.3-0.3
			c0.8,0,1.4,0.2,1.9,0.7c0.4,0.5,0.7,1.2,0.7,2.2v3.6l1.1,0.2v0.9H215v-0.9l1.1-0.2v-3.6c0-0.7-0.1-1.1-0.4-1.4s-0.7-0.4-1.2-0.4
			c-0.4,0-0.7,0.1-1,0.3s-0.5,0.4-0.7,0.8v4.3l1.1,0.2v0.9h-3.6V90.7z"/>
	</g>
	<g class="st0">
		<path class="st1" d="M221.5,93.7c-0.7,0-1.2-0.2-1.6-0.7c-0.4-0.4-0.6-1-0.6-1.7v-0.2c0-0.7,0.2-1.2,0.6-1.7
			c0.4-0.5,0.9-0.7,1.4-0.7c0.6,0,1.1,0.2,1.5,0.6c0.3,0.4,0.5,0.9,0.5,1.5v0.5h-3.1l0,0c0,0.5,0.1,0.8,0.3,1.1
			c0.2,0.3,0.5,0.4,0.9,0.4c0.3,0,0.5,0,0.8-0.1c0.2-0.1,0.4-0.2,0.6-0.3l0.3,0.6c-0.2,0.2-0.4,0.3-0.7,0.4
			C222.3,93.6,221.9,93.7,221.5,93.7z M221.4,89.4c-0.3,0-0.5,0.1-0.7,0.4c-0.2,0.2-0.3,0.6-0.4,0.9l0,0h2.2v-0.1
			c0-0.3-0.1-0.6-0.3-0.9S221.8,89.4,221.4,89.4z"/>
	</g>
	<g class="st0">
		<path class="st1" d="M224.1,93l0.7-0.1v-3.4l-0.7-0.1v-0.6h1.5l0.1,0.7c0.2-0.3,0.4-0.4,0.6-0.6c0.2-0.1,0.5-0.2,0.8-0.2
			c0.5,0,0.9,0.2,1.2,0.5c0.3,0.3,0.4,0.8,0.4,1.4v2.3l0.7,0.1v0.6h-2.3V93l0.7-0.1v-2.3c0-0.4-0.1-0.7-0.2-0.9
			c-0.2-0.2-0.4-0.3-0.8-0.3c-0.2,0-0.5,0.1-0.7,0.2s-0.3,0.3-0.5,0.5v2.8l0.7,0.1v0.6h-2.3V93z"/>
	</g>
	<g class="st0">
		<path class="st1" d="M232.1,93c0.3,0,0.5-0.1,0.8-0.3c0.2-0.2,0.3-0.4,0.3-0.7h0.8l0,0c0,0.4-0.2,0.8-0.5,1.1
			c-0.4,0.3-0.8,0.5-1.3,0.5c-0.7,0-1.2-0.2-1.6-0.7c-0.4-0.5-0.5-1-0.5-1.7v-0.2c0-0.7,0.2-1.2,0.5-1.7c0.4-0.5,0.9-0.7,1.6-0.7
			c0.4,0,0.7,0.1,1,0.2c0.3,0.1,0.6,0.3,0.8,0.5l0,1.1h-0.7l-0.2-0.7c-0.1-0.1-0.2-0.2-0.4-0.2s-0.3-0.1-0.5-0.1
			c-0.5,0-0.8,0.2-1,0.5c-0.2,0.3-0.3,0.7-0.3,1.2v0.2c0,0.5,0.1,0.9,0.3,1.2C231.3,92.8,231.6,93,232.1,93z"/>
	</g>
	<g class="st0">
		<path class="st1" d="M394.6,85.2v-1h1.2v-0.9c0-0.8,0.2-1.4,0.6-1.8c0.4-0.4,1-0.6,1.7-0.6c0.2,0,0.3,0,0.5,0
			c0.2,0,0.3,0.1,0.5,0.1l-0.2,1c-0.1,0-0.2,0-0.3,0s-0.2,0-0.4,0c-0.4,0-0.7,0.1-0.9,0.4c-0.2,0.2-0.3,0.6-0.3,1v0.9h1.5v1h-1.5
			v5.3l1.1,0.2v0.9h-3.6v-0.9l1.1-0.2v-5.3H394.6z"/>
		<path class="st1" d="M400,90.7l1.5-0.2v-7.5l-1.6,0v-0.8l2.9-0.6v8.9l1.5,0.2v0.9H400V90.7z"/>
	</g>
	<g class="st0">
		<path class="st1" d="M407.5,93.7c-0.7,0-1.2-0.2-1.6-0.7c-0.4-0.4-0.6-1-0.6-1.7v-0.2c0-0.7,0.2-1.2,0.6-1.7
			c0.4-0.5,0.9-0.7,1.4-0.7c0.6,0,1.1,0.2,1.5,0.6c0.3,0.4,0.5,0.9,0.5,1.5v0.5h-3.1l0,0c0,0.5,0.1,0.8,0.3,1.1
			c0.2,0.3,0.5,0.4,0.9,0.4c0.3,0,0.5,0,0.8-0.1c0.2-0.1,0.4-0.2,0.6-0.3l0.3,0.6c-0.2,0.2-0.4,0.3-0.7,0.4
			C408.2,93.6,407.9,93.7,407.5,93.7z M407.4,89.4c-0.3,0-0.5,0.1-0.7,0.4c-0.2,0.2-0.3,0.6-0.4,0.9l0,0h2.2v-0.1
			c0-0.3-0.1-0.6-0.3-0.9S407.7,89.4,407.4,89.4z"/>
	</g>
	<g class="st0">
		<path class="st1" d="M410,93l0.7-0.1v-3.4l-0.7-0.1v-0.6h1.5l0.1,0.7c0.2-0.3,0.4-0.4,0.6-0.6c0.2-0.1,0.5-0.2,0.8-0.2
			c0.5,0,0.9,0.2,1.2,0.5c0.3,0.3,0.4,0.8,0.4,1.4v2.3l0.7,0.1v0.6H413V93l0.7-0.1v-2.3c0-0.4-0.1-0.7-0.2-0.9
			c-0.2-0.2-0.4-0.3-0.8-0.3c-0.3,0-0.5,0.1-0.7,0.2s-0.3,0.3-0.5,0.5v2.8l0.7,0.1v0.6H410V93z"/>
	</g>
	<g class="st0">
		<path class="st1" d="M418,93c0.3,0,0.5-0.1,0.8-0.3c0.2-0.2,0.3-0.4,0.3-0.7h0.8l0,0c0,0.4-0.2,0.8-0.5,1.1
			c-0.4,0.3-0.8,0.5-1.3,0.5c-0.7,0-1.2-0.2-1.6-0.7c-0.4-0.5-0.5-1-0.5-1.7v-0.2c0-0.7,0.2-1.2,0.5-1.7c0.4-0.5,0.9-0.7,1.6-0.7
			c0.4,0,0.7,0.1,1,0.2c0.3,0.1,0.6,0.3,0.8,0.5l0,1.1h-0.7l-0.2-0.7c-0.1-0.1-0.2-0.2-0.4-0.2c-0.2-0.1-0.3-0.1-0.5-0.1
			c-0.5,0-0.8,0.2-1,0.5c-0.2,0.3-0.3,0.7-0.3,1.2v0.2c0,0.5,0.1,0.9,0.3,1.2C417.2,92.8,417.6,93,418,93z"/>
	</g>
	<g class="st0">
		<path class="st1" d="M526.9,85.2v-1h1.2v-0.9c0-0.8,0.2-1.4,0.6-1.8c0.4-0.4,1-0.6,1.7-0.6c0.2,0,0.3,0,0.5,0
			c0.2,0,0.3,0.1,0.5,0.1l-0.2,1c-0.1,0-0.2,0-0.3,0s-0.2,0-0.4,0c-0.4,0-0.7,0.1-0.9,0.4c-0.2,0.2-0.3,0.6-0.3,1v0.9h1.5v1h-1.5
			v5.3l1.1,0.2v0.9h-3.6v-0.9l1.1-0.2v-5.3H526.9z"/>
		<path class="st1" d="M531.8,90.7l1.1-0.2v-5.3l-1.1-0.2v-0.9h2.3l0.1,1.1c0.2-0.4,0.6-0.7,0.9-0.9c0.4-0.2,0.8-0.3,1.3-0.3
			c0.8,0,1.4,0.2,1.9,0.7c0.4,0.5,0.7,1.2,0.7,2.2v3.6l1.1,0.2v0.9h-3.6v-0.9l1.1-0.2v-3.6c0-0.7-0.1-1.1-0.4-1.4
			c-0.3-0.3-0.7-0.4-1.2-0.4c-0.4,0-0.7,0.1-1,0.3c-0.3,0.2-0.5,0.4-0.7,0.8v4.3l1.1,0.2v0.9h-3.6V90.7z"/>
	</g>
	<g class="st0">
		<path class="st1" d="M542.9,93.7c-0.7,0-1.2-0.2-1.6-0.7c-0.4-0.4-0.6-1-0.6-1.7v-0.2c0-0.7,0.2-1.2,0.6-1.7
			c0.4-0.5,0.9-0.7,1.4-0.7c0.6,0,1.1,0.2,1.5,0.6c0.3,0.4,0.5,0.9,0.5,1.5v0.5h-3.1l0,0c0,0.5,0.1,0.8,0.3,1.1
			c0.2,0.3,0.5,0.4,0.9,0.4c0.3,0,0.5,0,0.8-0.1c0.2-0.1,0.4-0.2,0.6-0.3l0.3,0.6c-0.2,0.2-0.4,0.3-0.7,0.4
			C543.7,93.6,543.3,93.7,542.9,93.7z M542.8,89.4c-0.3,0-0.5,0.1-0.7,0.4c-0.2,0.2-0.3,0.6-0.4,0.9l0,0h2.2v-0.1
			c0-0.3-0.1-0.6-0.3-0.9S543.2,89.4,542.8,89.4z"/>
	</g>
	<g class="st0">
		<path class="st1" d="M545.5,93l0.7-0.1v-3.4l-0.7-0.1v-0.6h1.5l0.1,0.7c0.2-0.3,0.4-0.4,0.6-0.6c0.2-0.1,0.5-0.2,0.8-0.2
			c0.5,0,0.9,0.2,1.2,0.5c0.3,0.3,0.4,0.8,0.4,1.4v2.3l0.7,0.1v0.6h-2.3V93l0.7-0.1v-2.3c0-0.4-0.1-0.7-0.2-0.9
			c-0.2-0.2-0.4-0.3-0.8-0.3c-0.2,0-0.5,0.1-0.7,0.2c-0.2,0.1-0.3,0.3-0.5,0.5v2.8l0.7,0.1v0.6h-2.3V93z"/>
	</g>
	<g class="st0">
		<path class="st1" d="M553.5,93c0.3,0,0.5-0.1,0.8-0.3c0.2-0.2,0.3-0.4,0.3-0.7h0.8l0,0c0,0.4-0.2,0.8-0.5,1.1
			c-0.4,0.3-0.8,0.5-1.3,0.5c-0.7,0-1.2-0.2-1.6-0.7c-0.4-0.5-0.5-1-0.5-1.7v-0.2c0-0.7,0.2-1.2,0.5-1.7c0.4-0.5,0.9-0.7,1.6-0.7
			c0.4,0,0.7,0.1,1,0.2c0.3,0.1,0.6,0.3,0.8,0.5l0,1.1h-0.7l-0.2-0.7c-0.1-0.1-0.2-0.2-0.4-0.2s-0.3-0.1-0.5-0.1
			c-0.5,0-0.8,0.2-1,0.5c-0.2,0.3-0.3,0.7-0.3,1.2v0.2c0,0.5,0.1,0.9,0.3,1.2C552.7,92.8,553,93,553.5,93z"/>
	</g>
	
		<linearGradient id="SVGID_1_" gradientUnits="userSpaceOnUse" x1="249.34" y1="60.92" x2="375" y2="60.92" gradientTransform="matrix(1 0 0 -1 0 120)">
		<stop  offset="0" style="stop-color:#990066"/>
		<stop  offset="0.19" style="stop-color:#780066"/>
		<stop  offset="0.4" style="stop-color:#5A0066"/>
		<stop  offset="0.61" style="stop-color:#440066"/>
		<stop  offset="0.81" style="stop-color:#370066"/>
		<stop  offset="1" style="stop-color:#330066"/>
	</linearGradient>
	<path class="st2" d="M254.3,21.3H370c2.8,0,5,2.2,5,5v65.5c0,2.8-2.2,5-5,5H254.3c-2.8,0-5-2.2-5-5V26.3
		C249.3,23.6,251.6,21.3,254.3,21.3z"/>
	<path class="st3" d="M254.3,21.3H370c2.8,0,5,2.2,5,5v65.5c0,2.8-2.2,5-5,5H254.3c-2.8,0-5-2.2-5-5V26.3
		C249.3,23.6,251.6,21.3,254.3,21.3z"/>
	<path class="st4" d="M267.1,45.6h89.3c2.8,0,5,2.2,5,5v17.2c0,2.8-2.2,5-5,5h-89.3c-2.8,0-5-2.2-5-5V50.6
		C262.1,47.8,264.4,45.6,267.1,45.6z"/>
	<g class="st0">
		<path class="st5" d="M281.3,61.7c0.3,0,0.5-0.1,0.7-0.2s0.3-0.4,0.3-0.7h1.4l0,0c0,0.6-0.2,1.1-0.7,1.5s-1,0.6-1.7,0.6
			c-0.9,0-1.5-0.3-2-0.8s-0.7-1.3-0.7-2.1v-0.2c0-0.9,0.2-1.6,0.7-2.1c0.5-0.6,1.2-0.8,2.1-0.8c0.5,0,0.9,0.1,1.3,0.2
			c0.4,0.1,0.7,0.3,0.9,0.6l0,1.6h-1.3l-0.3-0.9c-0.1-0.1-0.2-0.1-0.3-0.2s-0.2-0.1-0.4-0.1c-0.4,0-0.8,0.2-0.9,0.5
			s-0.3,0.7-0.3,1.2V60c0,0.5,0.1,0.9,0.3,1.3C280.6,61.5,280.9,61.7,281.3,61.7z"/>
		<path class="st5" d="M284.4,59.8c0-0.9,0.2-1.6,0.7-2.1c0.5-0.6,1.2-0.8,2-0.8c0.9,0,1.5,0.3,2,0.8c0.5,0.6,0.7,1.3,0.7,2.1v0.1
			c0,0.9-0.2,1.6-0.7,2.1c-0.5,0.5-1.2,0.8-2,0.8c-0.9,0-1.5-0.3-2-0.8c-0.5-0.5-0.7-1.3-0.7-2.1V59.8z M286,59.9
			c0,0.5,0.1,1,0.3,1.3s0.5,0.5,0.9,0.5c0.4,0,0.7-0.2,0.9-0.5c0.2-0.3,0.3-0.7,0.3-1.3v-0.1c0-0.5-0.1-0.9-0.3-1.3
			s-0.5-0.5-0.9-0.5s-0.7,0.2-0.9,0.5s-0.3,0.7-0.3,1.3V59.9z"/>
	</g>
	<g class="st0">
		<path class="st5" d="M290.4,57.9V57h2.3l0.1,0.7c0.2-0.3,0.4-0.4,0.6-0.6s0.5-0.2,0.8-0.2c0.7,0,1.3,0.3,1.7,0.8
			c0.4,0.6,0.6,1.3,0.6,2.2V60c0,0.9-0.2,1.5-0.6,2.1c-0.4,0.5-1,0.8-1.7,0.8c-0.3,0-0.6-0.1-0.8-0.2c-0.2-0.1-0.4-0.3-0.6-0.5v1.7
			l0.8,0.2V65h-3.1v-0.9l0.8-0.2v-5.8L290.4,57.9z M294.9,59.9c0-0.5-0.1-1-0.3-1.3s-0.5-0.5-0.8-0.5c-0.2,0-0.4,0-0.6,0.1
			c-0.2,0.1-0.3,0.2-0.4,0.4v2.5c0.1,0.2,0.2,0.3,0.4,0.4c0.2,0.1,0.4,0.1,0.6,0.1c0.4,0,0.7-0.1,0.8-0.4c0.2-0.3,0.3-0.7,0.3-1.2
			V59.9z"/>
	</g>
	<g class="st0">
		<path class="st5" d="M303.2,57.9l-0.5,0.1l-2.1,5.7c-0.2,0.4-0.4,0.8-0.7,1.1c-0.3,0.3-0.7,0.4-1.3,0.4c-0.1,0-0.3,0-0.4,0
			c-0.1,0-0.3-0.1-0.4-0.1l0.2-1.1c0.1,0,0.1,0,0.2,0c0.1,0,0.1,0,0.1,0c0.3,0,0.5-0.1,0.6-0.2s0.2-0.3,0.3-0.5l0.2-0.4l-1.8-4.8
			l-0.5-0.1V57h2.8v0.9l-0.6,0.1l0.8,2.3l0.1,0.4l0,0L301,58l-0.7-0.1V57h2.8V57.9z"/>
		<path class="st5" d="M311.1,59H310l-0.2-0.7c-0.1-0.1-0.2-0.2-0.4-0.2c-0.2-0.1-0.3-0.1-0.5-0.1c-0.3,0-0.5,0.1-0.7,0.2
			c-0.2,0.1-0.2,0.3-0.2,0.5c0,0.2,0.1,0.3,0.2,0.4s0.5,0.2,0.9,0.3c0.7,0.1,1.3,0.4,1.6,0.6s0.5,0.7,0.5,1.1c0,0.5-0.2,1-0.7,1.3
			c-0.4,0.3-1,0.5-1.8,0.5c-0.4,0-0.9-0.1-1.2-0.2c-0.4-0.1-0.7-0.3-1-0.6l0-1.3h1.1l0.2,0.8c0.1,0.1,0.2,0.1,0.4,0.2
			c0.2,0,0.3,0.1,0.5,0.1c0.3,0,0.6-0.1,0.7-0.2c0.2-0.1,0.2-0.3,0.2-0.5c0-0.2-0.1-0.3-0.3-0.4c-0.2-0.1-0.5-0.2-0.9-0.3
			c-0.7-0.1-1.2-0.3-1.5-0.6c-0.3-0.3-0.5-0.6-0.5-1.1c0-0.5,0.2-0.9,0.6-1.3s1-0.5,1.7-0.5c0.5,0,0.9,0.1,1.3,0.2
			c0.4,0.1,0.7,0.3,0.9,0.5L311.1,59z"/>
		<path class="st5" d="M314.8,62.9c-0.8,0-1.5-0.3-2-0.8s-0.8-1.2-0.8-2v-0.2c0-0.9,0.2-1.6,0.7-2.1c0.5-0.6,1.1-0.8,1.9-0.8
			c0.8,0,1.4,0.2,1.8,0.7s0.6,1.1,0.6,1.9v0.9h-3.5l0,0c0,0.4,0.2,0.7,0.4,0.9c0.2,0.2,0.5,0.4,0.9,0.4c0.3,0,0.6,0,0.9-0.1
			c0.2-0.1,0.5-0.2,0.8-0.3l0.4,1c-0.2,0.2-0.6,0.3-0.9,0.5C315.7,62.8,315.3,62.9,314.8,62.9z M314.7,58.1c-0.3,0-0.5,0.1-0.7,0.3
			c-0.2,0.2-0.3,0.5-0.3,0.9l0,0h1.9v-0.1c0-0.3-0.1-0.6-0.2-0.8C315.2,58.2,315,58.1,314.7,58.1z"/>
	</g>
	<g class="st0">
		<path class="st5" d="M318,61.8l0.8-0.2v-3.6l-0.8-0.2V57h2.3l0.1,0.8c0.1-0.3,0.3-0.5,0.5-0.7c0.2-0.2,0.5-0.3,0.7-0.3
			c0.1,0,0.2,0,0.3,0c0.1,0,0.2,0,0.2,0l-0.2,1.4l-0.6,0c-0.2,0-0.4,0-0.6,0.1s-0.3,0.2-0.3,0.4v2.8l0.8,0.2v0.9H318V61.8z"/>
	</g>
	<g class="st0">
		<path class="st5" d="M325.1,57.9l-0.5,0.1l0.8,2.6l0.1,0.5h0l0.1-0.5l0.8-2.6l-0.6-0.1V57h2.6v0.9l-0.5,0.1l-1.7,4.8h-1.5
			l-1.7-4.8l-0.5-0.1V57h2.6V57.9z"/>
		<path class="st5" d="M328.8,61.8l0.8-0.2v-3.6l-0.8-0.2V57h2.4v4.7l0.8,0.2v0.9h-3.1V61.8z M331.2,55.6h-1.6v-1.2h1.6V55.6z"/>
		<path class="st5" d="M335.2,61.7c0.3,0,0.5-0.1,0.7-0.2s0.3-0.4,0.3-0.7h1.4l0,0c0,0.6-0.2,1.1-0.7,1.5c-0.5,0.4-1,0.6-1.7,0.6
			c-0.9,0-1.5-0.3-2-0.8s-0.7-1.3-0.7-2.1v-0.2c0-0.9,0.2-1.6,0.7-2.1s1.2-0.8,2.1-0.8c0.5,0,0.9,0.1,1.3,0.2
			c0.4,0.1,0.7,0.3,0.9,0.6l0,1.6h-1.3l-0.3-0.9c-0.1-0.1-0.2-0.1-0.3-0.2s-0.2-0.1-0.4-0.1c-0.4,0-0.8,0.2-0.9,0.5
			s-0.3,0.7-0.3,1.2V60c0,0.5,0.1,0.9,0.3,1.3C334.4,61.5,334.7,61.7,335.2,61.7z"/>
		<path class="st5" d="M341,62.9c-0.8,0-1.5-0.3-2-0.8s-0.8-1.2-0.8-2v-0.2c0-0.9,0.2-1.6,0.7-2.1c0.5-0.6,1.1-0.8,1.9-0.8
			c0.8,0,1.4,0.2,1.8,0.7s0.7,1.1,0.7,1.9v0.9h-3.5l0,0c0,0.4,0.2,0.7,0.4,0.9c0.2,0.2,0.5,0.4,0.9,0.4c0.3,0,0.6,0,0.9-0.1
			c0.2-0.1,0.5-0.2,0.8-0.3l0.4,1c-0.2,0.2-0.6,0.3-0.9,0.5C341.9,62.8,341.5,62.9,341,62.9z M340.9,58.1c-0.3,0-0.5,0.1-0.7,0.3
			c-0.2,0.2-0.3,0.5-0.3,0.9l0,0h1.9v-0.1c0-0.3-0.1-0.6-0.2-0.8C341.4,58.2,341.2,58.1,340.9,58.1z"/>
	</g>
	<path class="st6" d="M304,10.6c4.6-4.5,12.1-4.5,16.6,0.2c4.5,4.6,4.5,12.1-0.2,16.6c-4.6,4.5-12.1,4.5-16.6-0.2
		c-2.1-2.2-3.4-5.1-3.4-8.2c0-2.6,0.8-5.1,2.4-7.1"/>
	<path class="st4" d="M312.2,24.6H308c-0.6,0-0.8-0.2-0.8-0.8v-6.5c0-0.6,0.2-0.8,0.8-0.8h8.5c0.5,0,0.8,0.2,0.8,0.8v6.5
		c0,0.5-0.2,0.8-0.8,0.8C315,24.6,313.6,24.6,312.2,24.6z"/>
	<path class="st4" d="M307.9,16c0-1.8,1-3.4,2.6-4.1c2.1-0.9,4.6,0,5.5,2.1c0.1,0.2,0.2,0.5,0.2,0.7c0.1,0.4,0.1,0.8,0.2,1.2"/>
	<path class="st5" d="M311.5,21.8L311.5,21.8v0.9c0,0.2,0.1,0.2,0.3,0.2h0.8c0.2,0,0.3-0.1,0.3-0.3V21c0-0.2,0.1-0.3,0.2-0.4
		c0.5-0.3,0.8-0.9,0.6-1.4c-0.2-0.6-0.8-1-1.5-1c-0.7-0.1-1.3,0.3-1.6,0.9c-0.2,0.6,0,1.2,0.5,1.5c0.2,0.1,0.3,0.3,0.3,0.5
		C311.5,21.3,311.5,21.6,311.5,21.8z"/>
	<g id="Scone_logo_white">
		<g>
			<defs>
				<rect id="SVGID_2_" x="293.6" y="81.6" width="36.3" height="7.1"/>
			</defs>
			<clipPath id="SVGID_3_">
				<use xlink:href="#SVGID_2_"  style="overflow:visible;"/>
			</clipPath>
			<g class="st7">
				<g>
					<defs>
						<rect id="SVGID_4_" x="293.6" y="81.6" width="36.3" height="7.1"/>
					</defs>
					<clipPath id="SVGID_5_">
						<use xlink:href="#SVGID_4_"  style="overflow:visible;"/>
					</clipPath>
					<g class="st8">
						<path class="st9" d="M298.4,83.4h-0.8c-0.2,0-0.3,0.1-0.3,0.3v0.8c0,0.2,0.1,0.3,0.3,0.3h0.8c0.2,0,0.3-0.1,0.3-0.3v0v-0.8
							C298.7,83.5,298.6,83.4,298.4,83.4C298.4,83.4,298.4,83.4,298.4,83.4 M295.8,84.8h0.8c0.2,0,0.3-0.1,0.3-0.3v0v-0.8
							c0-0.2-0.1-0.3-0.3-0.3c0,0,0,0,0,0h-0.8c-0.2,0-0.3,0.1-0.3,0.3c0,0,0,0,0,0v0.8C295.5,84.6,295.6,84.8,295.8,84.8
							L295.8,84.8 M295,84.5v-0.8c0-0.2-0.1-0.3-0.3-0.3c0,0,0,0,0,0h-0.8c-0.2,0-0.3,0.1-0.3,0.3c0,0,0,0,0,0v0.8
							c0,0.2,0.1,0.3,0.3,0.3c0,0,0,0,0,0h0.8C294.8,84.8,295,84.6,295,84.5L295,84.5 M298.5,85.3c-0.1,0-0.2,0.1-0.2,0.2v0.9
							c0,0.1,0.1,0.2,0.2,0.2l0,0c0.1,0,0.2-0.1,0.2-0.2v-0.9C298.7,85.4,298.6,85.3,298.5,85.3C298.5,85.3,298.5,85.3,298.5,85.3
							 M296.4,85.6v0.8c0,0.2,0.1,0.3,0.3,0.3h0.8c0.2,0,0.3-0.1,0.3-0.3v-0.8c0-0.2-0.1-0.3-0.3-0.3l0,0h-0.8
							C296.5,85.3,296.4,85.4,296.4,85.6 M295.8,86.4v-0.8c0-0.2-0.1-0.3-0.3-0.3l0,0h-0.8c-0.2,0-0.3,0.1-0.3,0.3v0v0.8
							c0,0.2,0.1,0.3,0.3,0.3h0.8C295.7,86.7,295.8,86.5,295.8,86.4 M298.4,87.2h-0.8c-0.2,0-0.3,0.1-0.3,0.3v0.8
							c0,0.2,0.1,0.3,0.3,0.3h0.8c0.2,0,0.3-0.1,0.3-0.3v0v-0.8C298.7,87.3,298.6,87.2,298.4,87.2L298.4,87.2 M296.4,87.2h-0.8
							c-0.2,0-0.3,0.1-0.3,0.3v0v0.8c0,0.2,0.1,0.3,0.3,0.3l0,0h0.8c0.2,0,0.3-0.1,0.3-0.3v0v-0.8C296.7,87.3,296.6,87.2,296.4,87.2
							L296.4,87.2"/>
						<path class="st9" d="M299.3,83.1c0.3,0.3,0.8,0.4,1.2,0.4c0,0,0,0,0,0.1v2.1c0,0.8-1,1.3-1.2,1.4l0,0L299.3,83.1L299.3,83.1"
							/>
						<path class="st9" d="M297,83c1.6-0.1,1.9-0.6,1.9-0.6c0,0,0,0,0.1-0.1c0,0,0.1,0,0.1,0s0.3,0.6,1.9,0.6c0,0,0.1,0,0.1,0.1v2.8
							c0,0.9-1.7,1.9-1.7,1.9s-0.1,0-0.1,0v0.7c0,0,0.1,0,0.1,0c0.6-0.3,2.3-1.3,2.3-2.5v-3.4c0-0.1-0.1-0.1-0.2-0.1
							c-2,0-2.4-0.8-2.4-0.8s-0.1,0-0.1,0s-0.1,0-0.1,0s-0.3,0.8-2.4,0.8c-0.1,0-0.1,0-0.1,0.1v0.4c0,0,0,0.1,0.1,0.1L297,83"/>
						<path class="st10" d="M303.2,87.5l0.8-0.3c0.2,0.4,0.6,0.6,1.1,0.6c0.2,0,0.4,0,0.6-0.1c0.2-0.1,0.3-0.3,0.3-0.4
							c0-0.4-0.6-0.7-1-0.9l0,0c-0.3-0.1-0.7-0.3-1-0.5c-0.3-0.2-0.5-0.6-0.5-1c0-0.4,0.2-0.8,0.5-1c0.3-0.3,0.8-0.4,1.2-0.4
							c0.7,0,1.3,0.3,1.6,0.9l-0.9,0.3c-0.1-0.1-0.2-0.2-0.3-0.3c-0.1-0.1-0.3-0.1-0.5-0.1c-0.5,0-0.8,0.3-0.8,0.6
							c0,0.2,0.1,0.4,0.3,0.5c0.2,0.1,0.5,0.3,0.7,0.4h0.1c0.6,0.3,1.4,0.6,1.4,1.4c0,0.4-0.2,0.8-0.5,1c-0.4,0.3-0.9,0.4-1.3,0.4
							C304.4,88.5,303.7,88.1,303.2,87.5"/>
						<path class="st10" d="M310.5,88.6c-0.3,0-0.7-0.1-1-0.2c-0.3-0.1-0.6-0.3-0.8-0.6c-0.2-0.2-0.4-0.5-0.5-0.8
							c-0.1-0.3-0.2-0.7-0.2-1c0-0.3,0.1-0.7,0.2-1c0.1-0.3,0.3-0.6,0.5-0.8c0.2-0.2,0.5-0.4,0.8-0.6c0.3-0.1,0.7-0.2,1-0.2
							c0.4,0,0.8,0.1,1.2,0.3c0.3,0.2,0.7,0.4,0.9,0.8l-0.7,0.5c-0.2-0.2-0.4-0.4-0.6-0.5c-0.2-0.1-0.5-0.2-0.8-0.2
							c-0.5,0-0.9,0.2-1.2,0.5c-0.7,0.7-0.7,1.8,0,2.5c0.6,0.5,1.4,0.6,2.1,0.3c0.3-0.2,0.5-0.4,0.6-0.7l0.8,0.4
							c-0.2,0.4-0.5,0.7-0.9,0.9C311.4,88.5,310.9,88.6,310.5,88.6"/>
						<path class="st10" d="M316.2,88.6c-0.3,0-0.7-0.1-1-0.2c-0.3-0.1-0.6-0.3-0.8-0.6c-0.5-0.5-0.8-1.1-0.8-1.8
							c0-0.3,0.1-0.7,0.2-1c0.1-0.3,0.3-0.6,0.6-0.8c0.2-0.2,0.5-0.4,0.8-0.6c0.6-0.3,1.4-0.3,2,0c0.3,0.1,0.6,0.3,0.8,0.6
							c0.2,0.2,0.4,0.5,0.6,0.8c0.4,1,0.2,2.1-0.6,2.8c-0.2,0.2-0.5,0.4-0.8,0.6C316.8,88.5,316.5,88.6,316.2,88.6 M316.2,84.2
							c-0.5,0-0.9,0.2-1.2,0.5c-0.3,0.3-0.5,0.8-0.5,1.2c0,1,0.7,1.8,1.7,1.8c0.5,0,1-0.2,1.3-0.5c0.3-0.3,0.5-0.8,0.5-1.2
							C317.9,85,317.1,84.3,316.2,84.2"/>
						<polygon class="st10" points="324.6,83.4 324.6,88.7 321,85.4 321,88.5 320.1,88.5 320.1,83.3 323.7,86.6 323.7,83.4 						
							"/>
						<polygon class="st10" points="327.1,84.2 327.1,85.6 329.6,85.6 329.6,86.3 327.1,86.3 327.1,87.7 329.9,87.7 329.9,88.5 
							326.2,88.5 326.2,83.4 329.9,83.4 329.9,84.2 327.1,84.2 						"/>
					</g>
				</g>
			</g>
		</g>
	</g>
</g>
<g id="Ebene_4">
	<line class="st11" x1="171.3" y1="48.5" x2="197.9" y2="75.2"/>
	<polygon class="st1" points="190.6,75.9 190.7,74.5 197.6,74.8 197.3,67.9 198.7,67.8 199,76.2 	"/>
	<line class="st11" x1="136" y1="48.5" x2="109.3" y2="75.2"/>
	<polygon class="st1" points="108.5,67.8 109.9,67.9 109.7,74.8 116.6,74.5 116.6,75.9 108.2,76.2 	"/>
	<line class="st11" x1="487.1" y1="48.5" x2="513.8" y2="75.2"/>
	<polygon class="st1" points="506.5,75.9 506.5,74.5 513.4,74.8 513.2,67.9 514.5,67.8 514.8,76.2 	"/>
	<line class="st11" x1="451.8" y1="48.5" x2="425.1" y2="75.2"/>
	<polygon class="st1" points="424.4,67.8 425.8,67.9 425.5,74.8 432.4,74.5 432.5,75.9 424.1,76.2 	"/>
</g>
</svg>
