<?xml version="1.0" encoding="utf-8"?>
<!-- Generator: Adobe Illustrator 24.0.0, SVG Export Plug-In . SVG Version: 6.00 Build 0)  -->
<svg version="1.1" id="Ebene_1" xmlns="http://www.w3.org/2000/svg" xmlns:xlink="http://www.w3.org/1999/xlink" x="0px" y="0px"
	 viewBox="0 0 356.4 258.2" style="enable-background:new 0 0 356.4 258.2;" xml:space="preserve">
<style type="text/css">
	.st0{enable-background:new    ;}
	.st1{fill:#330066;}
	.st2{fill:none;stroke:#FFCC00;stroke-width:2;stroke-miterlimit:10;}
	.st3{fill:#FFCC00;}
	.st4{fill:#E6E6E6;}
	.st5{opacity:0.2;}
	.st6{fill:#FFCC99;}
	.st7{clip-path:url(#SVGID_2_);}
	.st8{clip-path:url(#SVGID_4_);}
	.st9{fill:#FFD138;}
	.st10{fill:none;stroke:#CC3300;stroke-width:2;stroke-miterlimit:10;stroke-dasharray:2,2;}
	.st11{fill:url(#SVGID_5_);stroke:#FFCC00;stroke-width:2;stroke-miterlimit:10;}
	.st12{fill:#FFFFFF;}
</style>
<g id="Ebene_2_1_">
	<g class="st0">
		<path class="st1" d="M61,218.6c0,1.3-0.4,2.3-1.1,3.1s-1.7,1.2-2.8,1.2c-1.2,0-2.1-0.4-2.8-1.2s-1.1-1.8-1.1-3.1v-0.1
			c0-1.2,0.4-2.3,1.1-3.1s1.6-1.2,2.8-1.2c1.2,0,2.1,0.4,2.8,1.2s1.1,1.9,1.1,3.1V218.6z M59.3,218.4c0-0.9-0.2-1.6-0.6-2.2
			s-0.9-0.8-1.6-0.8s-1.3,0.3-1.6,0.8s-0.5,1.3-0.5,2.2v0.1c0,0.9,0.2,1.6,0.5,2.2s0.9,0.8,1.6,0.8c0.7,0,1.3-0.3,1.6-0.8
			s0.5-1.3,0.5-2.2V218.4z"/>
		<path class="st1" d="M61.6,217.5v-1h2.5l0.1,0.7c0.2-0.3,0.4-0.5,0.7-0.6s0.6-0.2,0.9-0.2c0.8,0,1.4,0.3,1.8,0.9s0.7,1.4,0.7,2.4
			v0.1c0,0.9-0.2,1.7-0.7,2.3s-1,0.9-1.8,0.9c-0.3,0-0.6-0.1-0.9-0.2s-0.5-0.3-0.7-0.5v1.8l0.8,0.2v1h-3.4v-1l0.8-0.2v-6.4
			L61.6,217.5z M66.5,219.7c0-0.6-0.1-1.1-0.3-1.5s-0.5-0.6-0.9-0.6c-0.3,0-0.5,0.1-0.7,0.2s-0.3,0.3-0.4,0.5v2.8
			c0.1,0.2,0.2,0.3,0.4,0.4s0.4,0.1,0.7,0.1c0.4,0,0.7-0.2,0.9-0.5s0.3-0.8,0.3-1.3V219.7z"/>
		<path class="st1" d="M72,222.9c-0.9,0-1.6-0.3-2.2-0.9s-0.8-1.3-0.8-2.2v-0.2c0-0.9,0.3-1.7,0.8-2.3s1.2-0.9,2.1-0.9
			c0.9,0,1.5,0.3,2,0.8s0.7,1.2,0.7,2.1v0.9h-3.8l0,0c0,0.4,0.2,0.8,0.4,1s0.6,0.4,1,0.4c0.4,0,0.7,0,0.9-0.1s0.5-0.2,0.8-0.4
			l0.5,1.1c-0.3,0.2-0.6,0.4-1,0.5S72.5,222.9,72,222.9z M71.9,217.6c-0.3,0-0.6,0.1-0.8,0.4s-0.3,0.6-0.3,1l0,0h2.1v-0.2
			c0-0.4-0.1-0.7-0.3-0.9S72.2,217.6,71.9,217.6z"/>
	</g>
	<g class="st0">
		<path class="st1" d="M75.5,221.8l0.8-0.2v-3.9l-0.9-0.2v-1h2.5l0.1,0.9c0.1-0.3,0.3-0.6,0.6-0.8s0.5-0.3,0.8-0.3
			c0.1,0,0.2,0,0.3,0s0.2,0,0.2,0l-0.2,1.6l-0.7,0c-0.3,0-0.5,0-0.6,0.1s-0.3,0.2-0.4,0.4v3.1l0.8,0.2v1h-3.4V221.8z"/>
	</g>
	<g class="st0">
		<path class="st1" d="M84.3,222.8c0-0.1-0.1-0.2-0.1-0.3s-0.1-0.2-0.1-0.3c-0.2,0.2-0.5,0.4-0.7,0.6s-0.6,0.2-1,0.2
			c-0.6,0-1.1-0.2-1.5-0.5s-0.5-0.8-0.5-1.4c0-0.6,0.2-1.1,0.7-1.4s1.2-0.5,2.1-0.5H84v-0.6c0-0.3-0.1-0.5-0.3-0.7s-0.4-0.3-0.8-0.3
			c-0.2,0-0.4,0-0.5,0.1s-0.3,0.1-0.4,0.2l-0.1,0.7h-1.3l0-1.4c0.3-0.2,0.7-0.4,1.1-0.5s0.8-0.2,1.3-0.2c0.8,0,1.4,0.2,1.9,0.6
			s0.7,0.9,0.7,1.6v2.6c0,0.1,0,0.2,0,0.3s0,0.2,0,0.2l0.5,0.1v1H84.3z M82.9,221.6c0.3,0,0.5-0.1,0.7-0.2s0.4-0.3,0.5-0.4v-1h-0.9
			c-0.4,0-0.6,0.1-0.8,0.3s-0.3,0.4-0.3,0.6c0,0.2,0.1,0.4,0.2,0.5S82.6,221.6,82.9,221.6z"/>
	</g>
	<g class="st0">
		<path class="st1" d="M88.9,214.9v1.6h1.1v1.2h-1.1v3.2c0,0.2,0.1,0.4,0.2,0.5s0.2,0.2,0.4,0.2c0.1,0,0.2,0,0.3,0s0.2,0,0.3,0
			l0.1,1.2c-0.2,0.1-0.4,0.1-0.6,0.1s-0.4,0-0.6,0c-0.6,0-1-0.2-1.4-0.5s-0.5-0.8-0.5-1.5v-3.2h-0.9v-1.2h0.9v-1.6H88.9z"/>
		<path class="st1" d="M90.8,221.8l0.8-0.2v-3.9l-0.9-0.2v-1h2.6v5.1l0.8,0.2v1h-3.4V221.8z M93.4,214.9h-1.7v-1.3h1.7V214.9z"/>
	</g>
	<g class="st0">
		<path class="st1" d="M94.7,221.8l0.8-0.2v-3.9l-0.9-0.2v-1h2.5l0.1,0.9c0.2-0.3,0.5-0.6,0.8-0.8s0.7-0.3,1-0.3
			c0.6,0,1.1,0.2,1.5,0.6s0.5,1,0.5,1.9v2.8l0.8,0.2v1h-3.3v-1l0.7-0.2v-2.8c0-0.4-0.1-0.7-0.3-0.9s-0.4-0.3-0.8-0.3
			c-0.2,0-0.4,0-0.6,0.1s-0.3,0.2-0.5,0.4v3.4l0.7,0.2v1h-3.2V221.8z"/>
	</g>
	<g class="st0">
		<path class="st1" d="M102.4,219.7c0-1,0.2-1.8,0.7-2.4s1-0.9,1.8-0.9c0.4,0,0.7,0.1,0.9,0.2s0.5,0.4,0.7,0.7l0.1-0.8h1.5v6.2
			c0,0.8-0.3,1.5-0.8,2s-1.2,0.7-2.2,0.7c-0.3,0-0.7,0-1-0.1s-0.7-0.2-1-0.4l0.3-1.2c0.3,0.1,0.5,0.2,0.8,0.3s0.6,0.1,0.9,0.1
			c0.4,0,0.7-0.1,0.9-0.4s0.3-0.6,0.3-1.1v-0.4c-0.2,0.2-0.4,0.4-0.7,0.5s-0.5,0.2-0.9,0.2c-0.8,0-1.4-0.3-1.8-0.9s-0.7-1.3-0.7-2.3
			V219.7z M104.1,219.8c0,0.6,0.1,1,0.3,1.3s0.5,0.5,0.9,0.5c0.3,0,0.5,0,0.7-0.1s0.3-0.2,0.4-0.4v-2.8c-0.1-0.2-0.3-0.3-0.4-0.4
			s-0.4-0.2-0.7-0.2c-0.4,0-0.7,0.2-0.9,0.6s-0.3,0.9-0.3,1.5V219.8z"/>
		<path class="st1" d="M118.6,217h-1.3l-0.2-1.2c-0.1-0.1-0.4-0.2-0.7-0.2s-0.6-0.1-0.9-0.1c-0.5,0-0.8,0.1-1.1,0.3
			s-0.4,0.5-0.4,0.8c0,0.3,0.1,0.5,0.4,0.7s0.7,0.4,1.4,0.6c0.9,0.3,1.7,0.6,2.1,1s0.7,1,0.7,1.7c0,0.7-0.3,1.3-0.9,1.7
			s-1.3,0.6-2.3,0.6c-0.7,0-1.3-0.1-1.8-0.3s-1-0.5-1.4-0.9v-1.8h1.3l0.2,1.2c0.2,0.1,0.4,0.3,0.7,0.3s0.6,0.1,1,0.1
			c0.5,0,0.8-0.1,1.1-0.3s0.4-0.4,0.4-0.8c0-0.3-0.1-0.6-0.3-0.8s-0.6-0.4-1.2-0.6c-1-0.3-1.8-0.6-2.3-1s-0.8-1-0.8-1.7
			c0-0.7,0.3-1.3,0.9-1.7s1.3-0.7,2.2-0.7c0.7,0,1.3,0.1,1.8,0.3s1,0.5,1.4,0.8V217z"/>
		<path class="st1" d="M126,217.5l-0.6,0.1l-2.3,6.2c-0.2,0.5-0.4,0.8-0.7,1.1s-0.8,0.5-1.4,0.5c-0.1,0-0.3,0-0.4,0
			s-0.3-0.1-0.4-0.1l0.2-1.2c0.1,0,0.1,0,0.2,0s0.1,0,0.2,0c0.3,0,0.5-0.1,0.7-0.2s0.3-0.3,0.4-0.5l0.2-0.5l-2-5.2l-0.6-0.1v-1h3.1
			v1l-0.7,0.1l0.9,2.5l0.1,0.5l0,0l1-3l-0.7-0.1v-1h3.1V217.5z"/>
		<path class="st1" d="M131.7,218.6h-1.1l-0.2-0.8c-0.1-0.1-0.3-0.2-0.4-0.2s-0.4-0.1-0.6-0.1c-0.3,0-0.5,0.1-0.7,0.2
			s-0.3,0.3-0.3,0.5c0,0.2,0.1,0.4,0.3,0.5s0.5,0.2,1,0.3c0.8,0.2,1.4,0.4,1.7,0.7s0.6,0.7,0.6,1.3c0,0.6-0.2,1-0.7,1.4
			s-1.1,0.5-1.9,0.5c-0.5,0-0.9-0.1-1.3-0.2s-0.8-0.3-1.1-0.6l0-1.4h1.2l0.2,0.8c0.1,0.1,0.2,0.1,0.4,0.2s0.4,0.1,0.6,0.1
			c0.3,0,0.6-0.1,0.8-0.2s0.3-0.3,0.3-0.5c0-0.2-0.1-0.3-0.3-0.5s-0.5-0.3-1-0.4c-0.7-0.2-1.3-0.4-1.7-0.7s-0.6-0.7-0.6-1.2
			c0-0.5,0.2-1,0.7-1.4s1.1-0.6,1.9-0.6c0.5,0,1,0.1,1.4,0.2s0.8,0.3,1,0.5L131.7,218.6z"/>
		<path class="st1" d="M135.2,214.9v1.6h1.1v1.2h-1.1v3.2c0,0.2,0.1,0.4,0.2,0.5s0.2,0.2,0.4,0.2c0.1,0,0.2,0,0.3,0s0.2,0,0.3,0
			l0.1,1.2c-0.2,0.1-0.4,0.1-0.6,0.1s-0.4,0-0.6,0c-0.6,0-1-0.2-1.4-0.5s-0.5-0.8-0.5-1.5v-3.2h-0.9v-1.2h0.9v-1.6H135.2z"/>
		<path class="st1" d="M140.2,222.9c-0.9,0-1.6-0.3-2.2-0.9s-0.8-1.3-0.8-2.2v-0.2c0-0.9,0.3-1.7,0.8-2.3s1.2-0.9,2.1-0.9
			c0.9,0,1.5,0.3,2,0.8s0.7,1.2,0.7,2.1v0.9h-3.8l0,0c0,0.4,0.2,0.8,0.4,1s0.6,0.4,1,0.4c0.4,0,0.7,0,0.9-0.1s0.5-0.2,0.8-0.4
			l0.5,1.1c-0.3,0.2-0.6,0.4-1,0.5S140.7,222.9,140.2,222.9z M140,217.6c-0.3,0-0.6,0.1-0.8,0.4s-0.3,0.6-0.3,1l0,0h2.1v-0.2
			c0-0.4-0.1-0.7-0.3-0.9S140.4,217.6,140,217.6z"/>
		<path class="st1" d="M143.3,217.5v-1h2.5l0.1,0.8c0.2-0.3,0.5-0.5,0.8-0.7s0.7-0.2,1.1-0.2c0.4,0,0.8,0.1,1,0.3s0.5,0.5,0.7,0.8
			c0.2-0.3,0.4-0.6,0.8-0.8s0.7-0.3,1.1-0.3c0.6,0,1.1,0.2,1.5,0.6s0.5,1.1,0.5,2v2.6l0.8,0.2v1h-3.3v-1l0.7-0.2v-2.6
			c0-0.5-0.1-0.8-0.2-1s-0.4-0.3-0.7-0.3c-0.2,0-0.5,0.1-0.6,0.2s-0.3,0.3-0.4,0.4c0,0.1,0,0.1,0,0.2s0,0.1,0,0.2v3l0.7,0.2v1h-3.1
			v-1l0.7-0.2v-2.6c0-0.5-0.1-0.8-0.2-1s-0.4-0.3-0.7-0.3c-0.2,0-0.4,0-0.6,0.1s-0.3,0.2-0.4,0.4v3.4l0.7,0.2v1h-3.3v-1l0.8-0.2
			v-3.9L143.3,217.5z"/>
	</g>
	<g class="st0">
		<path class="st1" d="M87.2,236.9c0-1.3,0.3-2.4,0.8-3.3s1.1-1.5,1.6-1.8l0,0l0.2,0.6c-0.4,0.3-0.8,0.9-1.2,1.7s-0.5,1.7-0.5,2.8
			v0.1c0,1.1,0.2,2.1,0.5,2.8c0.3,0.8,0.7,1.3,1.2,1.7l-0.2,0.5h0c-0.6-0.3-1.1-0.9-1.6-1.8C87.5,239.3,87.2,238.2,87.2,236.9
			L87.2,236.9z"/>
		<path class="st1" d="M90.2,239.8v-0.6L91,239v-5.6l-0.8-0.1v-0.6H91h1h0.8v0.6l-0.8,0.1v5.6h2.5l0.1-0.8h0.8v1.6H90.2z"/>
		<path class="st1" d="M96.2,239.2L97,239v-3.8l-0.8-0.1v-0.6h1.8v4.5l0.8,0.1v0.6h-2.6V239.2z M97.9,233.1h-1v-1h1V233.1z"/>
		<path class="st1" d="M99.3,239.2l0.8-0.1v-3.8l-0.8-0.1v-0.6h1.7l0.1,0.8c0.2-0.3,0.4-0.5,0.7-0.7c0.3-0.2,0.6-0.2,0.9-0.2
			c0.6,0,1,0.2,1.3,0.5c0.3,0.3,0.5,0.8,0.5,1.5v2.6l0.8,0.1v0.6h-2.6v-0.6l0.8-0.1v-2.6c0-0.5-0.1-0.8-0.3-1s-0.5-0.3-0.8-0.3
			c-0.3,0-0.5,0.1-0.7,0.2s-0.4,0.3-0.5,0.5v3.1l0.8,0.1v0.6h-2.6V239.2z"/>
		<path class="st1" d="M109.7,239c-0.2,0.3-0.4,0.5-0.6,0.7s-0.6,0.2-0.9,0.2c-0.6,0-1-0.2-1.3-0.6s-0.5-0.9-0.5-1.7v-2.4l-0.6-0.1
			v-0.6h0.6h1v3.1c0,0.6,0.1,1,0.2,1.2s0.4,0.3,0.8,0.3c0.3,0,0.6-0.1,0.8-0.2c0.2-0.1,0.4-0.3,0.5-0.6v-3.1l-0.7-0.1v-0.6h0.7h1
			v4.5l0.6,0.1v0.6h-1.5L109.7,239z"/>
		<path class="st1" d="M111.8,239.2l0.6-0.1l1.6-1.9l-1.5-1.9l-0.6-0.1v-0.6h2.1v0.6l-0.5,0.1l1,1.3l1-1.3l-0.5-0.1v-0.6h2.1v0.6
			l-0.6,0.1l-1.5,1.9l1.6,1.9l0.6,0.1v0.6H115v-0.6l0.5-0.1l-1-1.3l-1,1.3l0.5,0.1v0.6h-2.1V239.2z"/>
		<path class="st1" d="M120,236.9c0,1.3-0.3,2.4-0.8,3.3c-0.5,0.9-1.1,1.5-1.6,1.8h0l-0.2-0.5c0.4-0.3,0.8-0.9,1.2-1.7
			c0.3-0.8,0.5-1.7,0.5-2.9v-0.1c0-1.1-0.2-2.1-0.5-2.9s-0.7-1.4-1.1-1.7l0.2-0.5h0c0.6,0.3,1.1,0.9,1.6,1.8S120,235.6,120,236.9
			L120,236.9z"/>
	</g>
	<line class="st2" x1="103.3" y1="159.3" x2="103.3" y2="194.7"/>
	<polygon class="st3" points="97.6,163.9 98.6,164.9 103.3,159.9 108,164.9 109.1,163.9 103.3,157.8 	"/>
	<polygon class="st3" points="97.6,190.1 98.6,189.1 103.3,194.2 108,189.1 109.1,190.1 103.3,196.2 	"/>
	<g class="st0">
		<path class="st1" d="M26.3,180.3c0-0.3-0.1-0.6-0.3-0.8c-0.2-0.2-0.5-0.4-0.8-0.6c-0.3-0.2-0.6-0.3-1-0.5c-0.4-0.1-0.7-0.3-1-0.5
			c-0.3-0.2-0.6-0.5-0.8-0.8c-0.2-0.3-0.3-0.7-0.3-1.1c0-0.7,0.2-1.2,0.7-1.6s1.1-0.6,1.9-0.6c0.5,0,0.9,0,1.3,0.1
			c0.4,0.1,0.7,0.2,0.9,0.3l-0.3,0.9c-0.2-0.1-0.5-0.2-0.8-0.3c-0.4-0.1-0.8-0.1-1.2-0.1c-0.5,0-0.9,0.1-1.2,0.4
			c-0.3,0.2-0.4,0.5-0.4,0.8c0,0.3,0.1,0.6,0.3,0.8c0.2,0.2,0.5,0.4,0.8,0.6c0.3,0.2,0.6,0.3,1,0.5s0.7,0.3,1,0.6
			c0.3,0.2,0.6,0.5,0.8,0.8c0.2,0.3,0.3,0.7,0.3,1.1c0,0.4-0.1,0.7-0.2,1c-0.1,0.3-0.3,0.5-0.6,0.7s-0.5,0.4-0.9,0.5
			c-0.4,0.1-0.8,0.2-1.2,0.2c-0.6,0-1.1,0-1.5-0.1s-0.7-0.2-0.9-0.3l0.3-0.9c0.2,0.1,0.5,0.2,0.8,0.3c0.4,0.1,0.8,0.1,1.2,0.1
			c0.3,0,0.5,0,0.7-0.1c0.2-0.1,0.4-0.1,0.6-0.3c0.2-0.1,0.3-0.3,0.4-0.4C26.3,180.7,26.3,180.5,26.3,180.3z"/>
		<path class="st1" d="M32.7,182.4V179c0-0.3,0-0.6-0.1-0.8c0-0.2-0.1-0.4-0.2-0.6c-0.1-0.2-0.2-0.3-0.4-0.4s-0.4-0.1-0.6-0.1
			c-0.4,0-0.7,0.1-1,0.4c-0.3,0.2-0.5,0.6-0.6,0.9v4h-1V174h1v3.1h0c0.2-0.2,0.5-0.4,0.8-0.6c0.3-0.1,0.7-0.2,1.1-0.2
			c0.3,0,0.6,0,0.9,0.1c0.2,0.1,0.5,0.2,0.6,0.4c0.2,0.2,0.3,0.5,0.4,0.8c0.1,0.3,0.1,0.7,0.1,1.2v3.6H32.7z"/>
		<path class="st1" d="M35.3,176.9c0.3-0.2,0.7-0.3,1.1-0.4c0.4-0.1,0.8-0.1,1.3-0.1c0.4,0,0.8,0.1,1,0.2c0.3,0.1,0.4,0.3,0.6,0.4
			c0.1,0.2,0.2,0.4,0.3,0.6c0,0.2,0.1,0.4,0.1,0.6c0,0.5,0,0.9,0,1.4s0,0.9,0,1.3c0,0.3,0,0.6,0,0.8s0.1,0.5,0.1,0.7h-0.7l-0.3-0.8
			h-0.1c-0.1,0.1-0.2,0.2-0.3,0.3c-0.1,0.1-0.2,0.2-0.4,0.3s-0.3,0.2-0.5,0.2c-0.2,0.1-0.4,0.1-0.7,0.1c-0.3,0-0.5,0-0.7-0.1
			c-0.2-0.1-0.4-0.2-0.6-0.3c-0.2-0.1-0.3-0.3-0.4-0.5c-0.1-0.2-0.1-0.4-0.1-0.7c0-0.4,0.1-0.6,0.2-0.9c0.1-0.2,0.3-0.4,0.6-0.6
			c0.3-0.1,0.6-0.2,0.9-0.3c0.4-0.1,0.8-0.1,1.2-0.1c0.1,0,0.2,0,0.3,0c0.1,0,0.2,0,0.3,0c0-0.2,0-0.5,0-0.6c0-0.4-0.1-0.7-0.3-0.9
			c-0.2-0.2-0.5-0.3-1-0.3c-0.1,0-0.3,0-0.4,0c-0.2,0-0.3,0-0.5,0.1s-0.3,0.1-0.5,0.1s-0.3,0.1-0.4,0.2L35.3,176.9z M37,181.7
			c0.2,0,0.4,0,0.6-0.1c0.2-0.1,0.3-0.1,0.5-0.2c0.1-0.1,0.2-0.2,0.3-0.3c0.1-0.1,0.1-0.2,0.2-0.3v-1c-0.1,0-0.2,0-0.3,0
			c-0.1,0-0.2,0-0.3,0c-0.2,0-0.5,0-0.7,0c-0.2,0-0.4,0.1-0.6,0.2c-0.2,0.1-0.3,0.2-0.4,0.3s-0.2,0.3-0.2,0.5c0,0.3,0.1,0.5,0.3,0.7
			C36.4,181.6,36.7,181.7,37,181.7z"/>
		<path class="st1" d="M44.2,177.3c-0.2-0.1-0.5-0.1-0.7-0.1c-0.3,0-0.6,0.1-0.8,0.3c-0.2,0.2-0.3,0.4-0.4,0.7v4.2h-1v-6H42l0.2,0.7
			h0c0.2-0.3,0.3-0.5,0.5-0.6c0.2-0.1,0.5-0.2,0.8-0.2c0.2,0,0.5,0,0.8,0.1L44.2,177.3z"/>
		<path class="st1" d="M49.8,181.9c-0.2,0.2-0.5,0.3-0.9,0.5c-0.4,0.1-0.8,0.2-1.2,0.2c-0.5,0-0.9-0.1-1.2-0.2
			c-0.3-0.1-0.6-0.4-0.8-0.6c-0.2-0.3-0.4-0.6-0.5-1c-0.1-0.4-0.2-0.8-0.2-1.3c0-1,0.2-1.8,0.7-2.3s1.1-0.8,2-0.8
			c0.3,0,0.5,0,0.8,0.1c0.3,0.1,0.5,0.2,0.7,0.3c0.2,0.2,0.4,0.4,0.5,0.7c0.1,0.3,0.2,0.7,0.2,1.2c0,0.3,0,0.6-0.1,0.9h-3.9
			c0,0.4,0,0.7,0.1,0.9c0.1,0.3,0.2,0.5,0.3,0.7c0.2,0.2,0.4,0.3,0.6,0.4c0.2,0.1,0.5,0.1,0.9,0.1c0.3,0,0.5,0,0.8-0.1
			s0.5-0.2,0.6-0.3L49.8,181.9z M47.7,177.1c-0.5,0-0.9,0.1-1.1,0.4c-0.3,0.2-0.5,0.7-0.5,1.3h3c0-0.6-0.1-1-0.3-1.3
			C48.5,177.2,48.2,177.1,47.7,177.1z"/>
		<path class="st1" d="M56.1,180.3c0,0.4,0,0.8,0,1.1s0,0.7,0.1,1h-0.6l-0.2-0.9h0c-0.2,0.3-0.4,0.5-0.7,0.7
			c-0.3,0.2-0.7,0.3-1.1,0.3c-0.8,0-1.4-0.3-1.8-0.8s-0.6-1.3-0.6-2.4c0-1,0.2-1.8,0.7-2.3c0.5-0.5,1.1-0.8,2-0.8c0.3,0,0.5,0,0.7,0
			c0.2,0,0.4,0.1,0.6,0.2V174h1V180.3z M53.7,181.7c0.4,0,0.7-0.1,1-0.3c0.2-0.2,0.4-0.5,0.5-1v-3c-0.1-0.1-0.3-0.2-0.5-0.2
			s-0.4-0.1-0.7-0.1c-0.6,0-1,0.2-1.3,0.5c-0.3,0.4-0.5,0.9-0.5,1.7c0,0.3,0,0.6,0.1,0.9c0.1,0.3,0.1,0.5,0.3,0.7s0.3,0.4,0.5,0.5
			C53.2,181.7,53.4,181.7,53.7,181.7z"/>
		<path class="st1" d="M65.8,184.8h-1v-3h0c-0.2,0.2-0.4,0.4-0.6,0.6c-0.2,0.1-0.6,0.2-1,0.2c-0.8,0-1.4-0.3-1.8-0.8
			c-0.4-0.5-0.6-1.3-0.6-2.4c0-1,0.2-1.8,0.7-2.3c0.5-0.5,1.2-0.8,2.2-0.8c0.4,0,0.8,0,1.2,0.1c0.4,0.1,0.6,0.2,0.8,0.3V184.8z
			 M63.4,181.7c0.4,0,0.7-0.1,1-0.3s0.4-0.5,0.5-1v-3.1c-0.3-0.2-0.7-0.2-1.2-0.2c-0.6,0-1,0.2-1.3,0.6s-0.5,0.9-0.5,1.7
			c0,0.3,0,0.6,0.1,0.9c0.1,0.3,0.1,0.5,0.3,0.7c0.1,0.2,0.3,0.4,0.5,0.5C62.8,181.7,63.1,181.7,63.4,181.7z"/>
		<path class="st1" d="M68.5,176.4v3.4c0,0.3,0,0.6,0.1,0.8c0,0.2,0.1,0.4,0.2,0.6s0.2,0.3,0.4,0.4c0.2,0.1,0.3,0.1,0.6,0.1
			c0.2,0,0.4,0,0.6-0.1s0.3-0.2,0.5-0.3c0.1-0.1,0.2-0.3,0.3-0.4s0.2-0.3,0.2-0.5v-4h1v4.3c0,0.3,0,0.6,0,0.9c0,0.3,0.1,0.6,0.1,0.8
			h-0.7l-0.2-0.9h-0.1c-0.2,0.3-0.4,0.6-0.7,0.8s-0.7,0.3-1.2,0.3c-0.3,0-0.6,0-0.8-0.1c-0.2-0.1-0.4-0.2-0.6-0.4
			c-0.2-0.2-0.3-0.5-0.4-0.8c-0.1-0.3-0.1-0.7-0.1-1.2v-3.6H68.5z"/>
		<path class="st1" d="M78.5,181.9c-0.2,0.2-0.5,0.3-0.9,0.5c-0.4,0.1-0.8,0.2-1.2,0.2c-0.5,0-0.9-0.1-1.2-0.2
			c-0.3-0.1-0.6-0.4-0.8-0.6c-0.2-0.3-0.4-0.6-0.5-1c-0.1-0.4-0.2-0.8-0.2-1.3c0-1,0.2-1.8,0.7-2.3s1.1-0.8,2-0.8
			c0.3,0,0.5,0,0.8,0.1c0.3,0.1,0.5,0.2,0.7,0.3c0.2,0.2,0.4,0.4,0.5,0.7c0.1,0.3,0.2,0.7,0.2,1.2c0,0.3,0,0.6-0.1,0.9h-3.9
			c0,0.4,0,0.7,0.1,0.9c0.1,0.3,0.2,0.5,0.3,0.7c0.2,0.2,0.4,0.3,0.6,0.4c0.2,0.1,0.5,0.1,0.9,0.1c0.3,0,0.5,0,0.8-0.1
			s0.5-0.2,0.6-0.3L78.5,181.9z M76.4,177.1c-0.5,0-0.9,0.1-1.1,0.4c-0.3,0.2-0.5,0.7-0.5,1.3h3c0-0.6-0.1-1-0.3-1.3
			C77.1,177.2,76.8,177.1,76.4,177.1z"/>
		<path class="st1" d="M81,176.4v3.4c0,0.3,0,0.6,0.1,0.8c0,0.2,0.1,0.4,0.2,0.6s0.2,0.3,0.4,0.4c0.2,0.1,0.3,0.1,0.6,0.1
			c0.2,0,0.4,0,0.6-0.1s0.3-0.2,0.5-0.3c0.1-0.1,0.2-0.3,0.3-0.4s0.2-0.3,0.2-0.5v-4h1v4.3c0,0.3,0,0.6,0,0.9c0,0.3,0.1,0.6,0.1,0.8
			h-0.7l-0.2-0.9H84c-0.2,0.3-0.4,0.6-0.7,0.8s-0.7,0.3-1.2,0.3c-0.3,0-0.6,0-0.8-0.1c-0.2-0.1-0.4-0.2-0.6-0.4
			c-0.2-0.2-0.3-0.5-0.4-0.8c-0.1-0.3-0.1-0.7-0.1-1.2v-3.6H81z"/>
		<path class="st1" d="M91,181.9c-0.2,0.2-0.5,0.3-0.9,0.5c-0.4,0.1-0.8,0.2-1.2,0.2c-0.5,0-0.9-0.1-1.2-0.2
			c-0.3-0.1-0.6-0.4-0.8-0.6c-0.2-0.3-0.4-0.6-0.5-1c-0.1-0.4-0.2-0.8-0.2-1.3c0-1,0.2-1.8,0.7-2.3s1.1-0.8,2-0.8
			c0.3,0,0.5,0,0.8,0.1c0.3,0.1,0.5,0.2,0.7,0.3c0.2,0.2,0.4,0.4,0.5,0.7c0.1,0.3,0.2,0.7,0.2,1.2c0,0.3,0,0.6-0.1,0.9h-3.9
			c0,0.4,0,0.7,0.1,0.9c0.1,0.3,0.2,0.5,0.3,0.7c0.2,0.2,0.4,0.3,0.6,0.4c0.2,0.1,0.5,0.1,0.9,0.1c0.3,0,0.5,0,0.8-0.1
			s0.5-0.2,0.6-0.3L91,181.9z M89,177.1c-0.5,0-0.9,0.1-1.1,0.4c-0.3,0.2-0.5,0.7-0.5,1.3h3c0-0.6-0.1-1-0.3-1.3
			C89.7,177.2,89.4,177.1,89,177.1z"/>
	</g>
	<g class="st0">
		<path class="st1" d="M120.6,176.9l-0.4-1.2h0l-0.1,1.2l-1.2,5.5H118l1.8-8.5h0.5l2.6,5.6l0.4,1.2h0l0.1-1.2l1.2-5.5h0.9l-1.8,8.5
			h-0.4L120.6,176.9z"/>
		<path class="st1" d="M125.8,180.5c0-0.6,0.1-1.2,0.2-1.7c0.2-0.5,0.4-1,0.7-1.3s0.6-0.7,1-0.9s0.8-0.3,1.2-0.3
			c0.3,0,0.6,0.1,0.9,0.2c0.2,0.1,0.4,0.3,0.6,0.4c0.1,0.2,0.3,0.4,0.3,0.6c0.1,0.2,0.1,0.5,0.1,0.8c0,0.6-0.1,1.2-0.2,1.7
			c-0.2,0.5-0.4,1-0.6,1.4c-0.3,0.4-0.6,0.7-1,0.9c-0.4,0.2-0.8,0.3-1.2,0.3c-0.4,0-0.7-0.1-0.9-0.2c-0.2-0.1-0.4-0.3-0.6-0.5
			c-0.2-0.2-0.3-0.4-0.3-0.6C125.8,181,125.8,180.8,125.8,180.5z M126.8,180.3c0,0.5,0.1,0.8,0.3,1.1c0.2,0.3,0.5,0.4,0.8,0.4
			c0.3,0,0.5-0.1,0.8-0.3c0.2-0.2,0.4-0.4,0.6-0.8c0.2-0.3,0.3-0.7,0.4-1.1s0.2-0.8,0.2-1.3c0-0.4-0.1-0.7-0.2-1
			c-0.1-0.2-0.4-0.4-0.8-0.4c-0.3,0-0.5,0.1-0.8,0.3c-0.2,0.2-0.5,0.4-0.6,0.7c-0.2,0.3-0.3,0.7-0.4,1
			C126.8,179.5,126.8,179.9,126.8,180.3z"/>
		<path class="st1" d="M139,181.8c-0.3,0.2-0.6,0.4-1,0.5s-0.8,0.2-1.1,0.2c-0.6,0-1.1-0.2-1.4-0.6c-0.3-0.4-0.5-0.9-0.5-1.5
			c0-0.7,0.1-1.2,0.3-1.8c0.2-0.5,0.4-1,0.7-1.3c0.3-0.4,0.6-0.6,1-0.8c0.4-0.2,0.8-0.3,1.2-0.3c0.3,0,0.5,0,0.8,0.1
			c0.2,0.1,0.4,0.2,0.5,0.3s0.2,0.3,0.3,0.5c0.1,0.2,0.1,0.4,0.1,0.5c0,0.6-0.3,1-0.8,1.3s-1.4,0.5-2.4,0.5c-0.1,0-0.2,0-0.3,0
			c-0.1,0-0.2,0-0.3,0c0,0.2-0.1,0.3-0.1,0.4c0,0.1,0,0.3,0,0.4c0,0.4,0.1,0.8,0.3,1.1s0.5,0.4,0.9,0.4c0.4,0,0.7-0.1,1-0.2
			c0.3-0.1,0.5-0.2,0.7-0.4L139,181.8z M138,177c-0.4,0-0.8,0.2-1.1,0.5s-0.6,0.8-0.7,1.3c0.3,0,0.6,0,0.9,0c0.3,0,0.6-0.1,0.9-0.1
			c0.3-0.1,0.5-0.2,0.7-0.3c0.2-0.1,0.3-0.4,0.3-0.6c0-0.1,0-0.2,0-0.2c0-0.1-0.1-0.2-0.1-0.2c-0.1-0.1-0.2-0.1-0.3-0.2
			C138.3,177.1,138.2,177,138,177z"/>
		<path class="st1" d="M143.9,182.4l0.8-3.8c0-0.1,0.1-0.3,0.1-0.4c0-0.1,0-0.3,0-0.4c0-0.2-0.1-0.4-0.2-0.6
			c-0.1-0.1-0.3-0.2-0.6-0.2c-0.2,0-0.4,0-0.6,0.1c-0.2,0.1-0.4,0.2-0.6,0.4c-0.2,0.1-0.3,0.3-0.5,0.5c-0.1,0.2-0.3,0.4-0.4,0.5
			l-0.8,3.8h-0.9l1.3-6h0.6l0,1h0c0.1-0.1,0.2-0.3,0.4-0.4c0.1-0.1,0.3-0.3,0.5-0.4c0.2-0.1,0.4-0.2,0.6-0.3
			c0.2-0.1,0.5-0.1,0.7-0.1c0.4,0,0.7,0.1,0.9,0.3c0.2,0.2,0.3,0.5,0.3,1c0,0.2,0,0.5-0.1,0.9l-0.9,4H143.9z"/>
		<path class="st1" d="M150.6,181.9c-0.1,0.1-0.3,0.2-0.4,0.3c-0.2,0.1-0.3,0.1-0.5,0.2s-0.3,0.1-0.5,0.1s-0.3,0-0.5,0
			c-0.4,0-0.7-0.1-1-0.2s-0.5-0.3-0.6-0.5c-0.1-0.2-0.2-0.4-0.3-0.6c-0.1-0.2-0.1-0.4-0.1-0.6c0-0.7,0.1-1.3,0.3-1.8
			c0.2-0.5,0.4-1,0.7-1.4c0.3-0.4,0.7-0.7,1.1-0.9c0.4-0.2,0.8-0.3,1.2-0.3c0.3,0,0.6,0,0.8,0.1c0.2,0.1,0.4,0.1,0.5,0.2l-0.3,0.7
			c-0.1-0.1-0.3-0.1-0.5-0.2c-0.2,0-0.4-0.1-0.6-0.1c-0.3,0-0.5,0.1-0.8,0.3c-0.3,0.2-0.5,0.4-0.7,0.7c-0.2,0.3-0.4,0.6-0.5,1
			s-0.2,0.8-0.2,1.2c0,0.5,0.1,0.9,0.3,1.2c0.2,0.2,0.5,0.4,0.9,0.4c0.2,0,0.5-0.1,0.8-0.2c0.3-0.1,0.5-0.2,0.6-0.3L150.6,181.9z"/>
		<path class="st1" d="M152.8,181c0,0.1,0,0.2,0,0.3c0,0.2,0,0.3,0.1,0.3c0.1,0.1,0.1,0.1,0.2,0.1c0.2,0,0.3,0,0.4,0
			c0.1,0,0.2-0.1,0.4-0.1v0.7c-0.1,0-0.2,0.1-0.3,0.1c-0.1,0-0.2,0-0.3,0.1c-0.1,0-0.2,0-0.3,0c-0.1,0-0.2,0-0.3,0
			c-0.3,0-0.5-0.1-0.7-0.2s-0.3-0.4-0.3-0.7c0-0.2,0-0.4,0.1-0.6l1.5-7h0.9L152.8,181z"/>
		<path class="st1" d="M159.4,180c-0.1,0.3-0.1,0.6-0.1,0.9c0,0.3,0,0.6,0,0.9c0,0.1,0,0.2,0,0.3c0,0.1,0,0.2,0,0.3h-0.7l-0.2-1h0
			c-0.1,0.1-0.2,0.3-0.4,0.4c-0.1,0.1-0.3,0.3-0.5,0.4c-0.2,0.1-0.3,0.2-0.5,0.3c-0.2,0.1-0.4,0.1-0.6,0.1c-1,0-1.4-0.6-1.4-1.9
			c0-0.5,0.1-1,0.2-1.6c0.1-0.5,0.3-1,0.6-1.4s0.6-0.8,1.1-1c0.4-0.3,1-0.4,1.6-0.4c0.2,0,0.5,0,0.8,0.1c0.3,0.1,0.6,0.1,0.9,0.2
			L159.4,180z M156.7,181.8c0.2,0,0.4,0,0.6-0.1s0.3-0.2,0.5-0.3c0.2-0.1,0.3-0.3,0.4-0.4s0.2-0.3,0.3-0.4l0.7-3.2
			c-0.2-0.1-0.5-0.2-0.9-0.2s-0.7,0.1-1,0.3c-0.3,0.2-0.5,0.5-0.7,0.8c-0.2,0.3-0.3,0.7-0.4,1.2c-0.1,0.4-0.1,0.9-0.1,1.3
			c0,0.3,0.1,0.6,0.2,0.8C156.3,181.7,156.5,181.8,156.7,181.8z"/>
	</g>
	<g class="st0">
		<path class="st1" d="M162.6,179.9l0.1,1.1h0l0.5-1.2l2-3.5h1l-3.7,6.1h-0.4l-1.2-6.1h1L162.6,179.9z"/>
	</g>
	<g class="st0">
		<path class="st1" d="M170.1,181.8c-0.3,0.2-0.6,0.4-1,0.5c-0.4,0.1-0.8,0.2-1.1,0.2c-0.6,0-1.1-0.2-1.4-0.6
			c-0.3-0.4-0.5-0.9-0.5-1.5c0-0.7,0.1-1.2,0.3-1.8c0.2-0.5,0.4-1,0.7-1.3c0.3-0.4,0.6-0.6,1-0.8c0.4-0.2,0.8-0.3,1.2-0.3
			c0.3,0,0.5,0,0.8,0.1c0.2,0.1,0.4,0.2,0.5,0.3c0.1,0.1,0.2,0.3,0.3,0.5c0.1,0.2,0.1,0.4,0.1,0.5c0,0.6-0.3,1-0.8,1.3
			c-0.6,0.3-1.4,0.5-2.4,0.5c-0.1,0-0.2,0-0.3,0c-0.1,0-0.2,0-0.3,0c0,0.2-0.1,0.3-0.1,0.4c0,0.1,0,0.3,0,0.4c0,0.4,0.1,0.8,0.3,1.1
			c0.2,0.3,0.5,0.4,0.9,0.4c0.4,0,0.7-0.1,1-0.2s0.5-0.2,0.7-0.4L170.1,181.8z M169.1,177c-0.4,0-0.8,0.2-1.1,0.5
			c-0.3,0.3-0.6,0.8-0.7,1.3c0.3,0,0.6,0,0.9,0c0.3,0,0.6-0.1,0.9-0.1c0.3-0.1,0.5-0.2,0.7-0.3c0.2-0.1,0.3-0.4,0.3-0.6
			c0-0.1,0-0.2,0-0.2s-0.1-0.2-0.1-0.2c-0.1-0.1-0.2-0.1-0.3-0.2S169.3,177,169.1,177z"/>
	</g>
	<g class="st0">
		<path class="st1" d="M178.9,181.8c-0.3,0.2-0.6,0.4-1,0.5c-0.4,0.1-0.8,0.2-1.1,0.2c-0.6,0-1.1-0.2-1.4-0.6
			c-0.3-0.4-0.5-0.9-0.5-1.5c0-0.7,0.1-1.2,0.3-1.8c0.2-0.5,0.4-1,0.7-1.3c0.3-0.4,0.6-0.6,1-0.8c0.4-0.2,0.8-0.3,1.2-0.3
			c0.3,0,0.5,0,0.8,0.1c0.2,0.1,0.4,0.2,0.5,0.3s0.2,0.3,0.3,0.5s0.1,0.4,0.1,0.5c0,0.6-0.3,1-0.8,1.3c-0.6,0.3-1.4,0.5-2.4,0.5
			c-0.1,0-0.2,0-0.3,0s-0.2,0-0.3,0c0,0.2-0.1,0.3-0.1,0.4c0,0.1,0,0.3,0,0.4c0,0.4,0.1,0.8,0.3,1.1c0.2,0.3,0.5,0.4,0.9,0.4
			c0.4,0,0.7-0.1,1-0.2c0.3-0.1,0.5-0.2,0.7-0.4L178.9,181.8z M177.9,177c-0.4,0-0.8,0.2-1.1,0.5c-0.3,0.3-0.6,0.8-0.7,1.3
			c0.3,0,0.6,0,0.9,0c0.3,0,0.6-0.1,0.9-0.1c0.3-0.1,0.5-0.2,0.7-0.3c0.2-0.1,0.3-0.4,0.3-0.6c0-0.1,0-0.2,0-0.2
			c0-0.1-0.1-0.2-0.1-0.2c-0.1-0.1-0.2-0.1-0.3-0.2C178.2,177.1,178.1,177,177.9,177z"/>
	</g>
	<g class="st0">
		<path class="st1" d="M182,179.3l-1.3-2.9h1l0.7,1.7l0.2,0.7l0.5-0.7l1.4-1.7h1.1l-2.5,2.9l1.4,3.1h-1l-0.8-1.8l-0.2-0.7l-0.5,0.7
			l-1.6,1.8h-1.1L182,179.3z"/>
		<path class="st1" d="M187.3,176.4h0.9l-1.3,6H186L187.3,176.4z M187.5,174.6c0-0.2,0.1-0.3,0.2-0.5s0.3-0.2,0.5-0.2
			c0.2,0,0.3,0.1,0.5,0.2s0.2,0.3,0.2,0.5s-0.1,0.3-0.2,0.5s-0.3,0.2-0.5,0.2c-0.2,0-0.3-0.1-0.5-0.2S187.5,174.8,187.5,174.6z"/>
		<path class="st1" d="M189.4,176.4h0.9l0.3-1.2l1-0.3l-0.3,1.5h1.6l-0.2,0.8H191l-0.8,3.6c0,0.1,0,0.2,0,0.3c0,0.1,0,0.2,0,0.2
			c0,0.2,0,0.3,0.1,0.4c0.1,0.1,0.2,0.1,0.4,0.1c0.2,0,0.4,0,0.5-0.1s0.3-0.1,0.5-0.2v0.7c-0.2,0.1-0.4,0.2-0.6,0.2
			c-0.3,0.1-0.5,0.1-0.8,0.1c-0.7,0-1.1-0.3-1.1-1c0-0.1,0-0.3,0.1-0.5l0.8-3.9h-0.9L189.4,176.4z"/>
		<path class="st1" d="M195.4,180.7c0-0.2-0.1-0.4-0.2-0.5c-0.1-0.1-0.2-0.3-0.4-0.4c-0.2-0.1-0.3-0.2-0.5-0.3
			c-0.2-0.1-0.4-0.2-0.5-0.4s-0.3-0.3-0.4-0.5c-0.1-0.2-0.2-0.4-0.2-0.7c0-0.2,0.1-0.4,0.2-0.6c0.1-0.2,0.3-0.4,0.4-0.5
			c0.2-0.1,0.4-0.3,0.7-0.3c0.3-0.1,0.5-0.1,0.8-0.1c0.4,0,0.8,0,1,0.1c0.2,0.1,0.4,0.1,0.6,0.2l-0.3,0.7c-0.3-0.2-0.8-0.3-1.3-0.3
			c-0.3,0-0.6,0.1-0.8,0.2c-0.2,0.1-0.3,0.4-0.3,0.6c0,0.2,0.1,0.3,0.2,0.4c0.1,0.1,0.2,0.2,0.4,0.4c0.2,0.1,0.3,0.2,0.5,0.3
			c0.2,0.1,0.4,0.2,0.5,0.4c0.2,0.1,0.3,0.3,0.4,0.5c0.1,0.2,0.2,0.4,0.2,0.7c0,0.6-0.2,1.1-0.6,1.4s-1,0.5-1.7,0.5
			c-0.4,0-0.7,0-1-0.1c-0.3-0.1-0.5-0.2-0.7-0.3l0.3-0.8c0.2,0.1,0.4,0.2,0.6,0.3c0.3,0.1,0.5,0.1,0.8,0.1c0.4,0,0.7-0.1,0.9-0.3
			C195.3,181.4,195.4,181.1,195.4,180.7z"/>
	</g>
	<g class="st0">
		<path class="st1" d="M202.9,177.2l-1,5.6c0,0.3-0.1,0.6-0.2,0.8c-0.1,0.3-0.2,0.5-0.3,0.7c-0.1,0.2-0.3,0.3-0.5,0.4
			s-0.5,0.2-0.8,0.2c-0.2,0-0.5,0-0.7-0.1c-0.2,0-0.4-0.1-0.6-0.2l0.3-0.7c0.2,0.1,0.3,0.1,0.4,0.1c0.1,0,0.3,0,0.5,0
			c0.3,0,0.5-0.1,0.7-0.4c0.2-0.3,0.3-0.8,0.4-1.4l0.8-5.1H201l0.2-0.8h0.9l0.2-0.8c0.1-0.3,0.1-0.6,0.2-0.8s0.2-0.4,0.3-0.5
			c0.1-0.1,0.3-0.3,0.5-0.3c0.2-0.1,0.4-0.1,0.7-0.1c0.3,0,0.5,0,0.8,0.1s0.5,0.1,0.7,0.2l-0.3,0.7c-0.4-0.2-0.8-0.2-1.1-0.2
			c-0.3,0-0.5,0.1-0.6,0.3s-0.2,0.5-0.3,1l-0.1,0.5h1.2l-0.1,0.8H202.9z"/>
	</g>
	<g class="st0">
		<path class="st1" d="M204.2,180.5c0-0.6,0.1-1.2,0.2-1.7c0.2-0.5,0.4-1,0.7-1.3s0.6-0.7,1-0.9s0.8-0.3,1.2-0.3
			c0.3,0,0.6,0.1,0.9,0.2c0.2,0.1,0.4,0.3,0.6,0.4c0.1,0.2,0.3,0.4,0.3,0.6s0.1,0.5,0.1,0.8c0,0.6-0.1,1.2-0.2,1.7
			c-0.2,0.5-0.4,1-0.6,1.4c-0.3,0.4-0.6,0.7-1,0.9c-0.4,0.2-0.8,0.3-1.2,0.3c-0.4,0-0.7-0.1-0.9-0.2c-0.2-0.1-0.4-0.3-0.6-0.5
			c-0.2-0.2-0.3-0.4-0.3-0.6C204.2,181,204.2,180.8,204.2,180.5z M205.2,180.3c0,0.5,0.1,0.8,0.3,1.1s0.5,0.4,0.8,0.4
			c0.3,0,0.5-0.1,0.8-0.3c0.2-0.2,0.4-0.4,0.6-0.8s0.3-0.7,0.4-1.1c0.1-0.4,0.2-0.8,0.2-1.3c0-0.4-0.1-0.7-0.2-1
			c-0.1-0.2-0.4-0.4-0.8-0.4c-0.3,0-0.5,0.1-0.8,0.3c-0.2,0.2-0.5,0.4-0.6,0.7c-0.2,0.3-0.3,0.7-0.4,1
			C205.2,179.5,205.2,179.9,205.2,180.3z"/>
		<path class="st1" d="M213.9,177.2c-0.1,0-0.1,0-0.2,0s-0.1,0-0.2,0c-0.4,0-0.8,0.1-1.1,0.4s-0.5,0.6-0.7,0.9l-0.8,3.9H210l1.3-6
			h0.6v1h0c0.1-0.2,0.2-0.3,0.3-0.4c0.1-0.1,0.2-0.3,0.4-0.4c0.1-0.1,0.3-0.2,0.4-0.2c0.2-0.1,0.3-0.1,0.5-0.1c0.2,0,0.4,0,0.6,0.1
			L213.9,177.2z"/>
		<path class="st1" d="M219.8,180.7c0-0.2-0.1-0.4-0.2-0.5c-0.1-0.1-0.2-0.3-0.4-0.4c-0.2-0.1-0.3-0.2-0.5-0.3
			c-0.2-0.1-0.4-0.2-0.5-0.4s-0.3-0.3-0.4-0.5c-0.1-0.2-0.2-0.4-0.2-0.7c0-0.2,0.1-0.4,0.2-0.6c0.1-0.2,0.3-0.4,0.4-0.5
			c0.2-0.1,0.4-0.3,0.7-0.3c0.3-0.1,0.5-0.1,0.8-0.1c0.4,0,0.8,0,1,0.1c0.2,0.1,0.4,0.1,0.6,0.2l-0.3,0.7c-0.3-0.2-0.8-0.3-1.3-0.3
			c-0.3,0-0.6,0.1-0.8,0.2c-0.2,0.1-0.3,0.4-0.3,0.6c0,0.2,0.1,0.3,0.2,0.4c0.1,0.1,0.2,0.2,0.4,0.4c0.2,0.1,0.3,0.2,0.5,0.3
			c0.2,0.1,0.4,0.2,0.5,0.4c0.2,0.1,0.3,0.3,0.4,0.5c0.1,0.2,0.2,0.4,0.2,0.7c0,0.6-0.2,1.1-0.6,1.4s-1,0.5-1.7,0.5
			c-0.4,0-0.7,0-1-0.1c-0.3-0.1-0.5-0.2-0.7-0.3l0.3-0.8c0.2,0.1,0.4,0.2,0.6,0.3c0.3,0.1,0.5,0.1,0.8,0.1c0.4,0,0.7-0.1,0.9-0.3
			C219.7,181.4,219.8,181.1,219.8,180.7z"/>
		<path class="st1" d="M223.8,180.3l0.1,1.2h0.1l0.5-1.2l2-3.9h1l-2.8,5.4c-0.2,0.4-0.4,0.8-0.6,1.1s-0.4,0.7-0.6,1
			s-0.4,0.5-0.7,0.7c-0.2,0.2-0.5,0.3-0.7,0.3c-0.1,0-0.3,0-0.4,0c-0.1,0-0.2,0-0.3-0.1l0.3-0.8c0.1,0,0.2,0,0.3,0
			c0.2,0,0.5-0.1,0.7-0.4s0.5-0.6,0.8-1.2l-1-6h1L223.8,180.3z"/>
		<path class="st1" d="M229.9,180.7c0-0.2-0.1-0.4-0.2-0.5c-0.1-0.1-0.2-0.3-0.4-0.4c-0.2-0.1-0.3-0.2-0.5-0.3
			c-0.2-0.1-0.4-0.2-0.5-0.4s-0.3-0.3-0.4-0.5c-0.1-0.2-0.2-0.4-0.2-0.7c0-0.2,0.1-0.4,0.2-0.6c0.1-0.2,0.3-0.4,0.4-0.5
			c0.2-0.1,0.4-0.3,0.7-0.3c0.3-0.1,0.5-0.1,0.8-0.1c0.4,0,0.8,0,1,0.1c0.2,0.1,0.4,0.1,0.6,0.2l-0.3,0.7c-0.3-0.2-0.8-0.3-1.3-0.3
			c-0.3,0-0.6,0.1-0.8,0.2c-0.2,0.1-0.3,0.4-0.3,0.6c0,0.2,0.1,0.3,0.2,0.4c0.1,0.1,0.2,0.2,0.4,0.4c0.2,0.1,0.3,0.2,0.5,0.3
			c0.2,0.1,0.4,0.2,0.5,0.4c0.2,0.1,0.3,0.3,0.4,0.5c0.1,0.2,0.2,0.4,0.2,0.7c0,0.6-0.2,1.1-0.6,1.4s-1,0.5-1.7,0.5
			c-0.4,0-0.7,0-1-0.1c-0.3-0.1-0.5-0.2-0.7-0.3l0.3-0.8c0.2,0.1,0.4,0.2,0.6,0.3c0.3,0.1,0.5,0.1,0.8,0.1c0.4,0,0.7-0.1,0.9-0.3
			C229.7,181.4,229.9,181.1,229.9,180.7z"/>
	</g>
	<g class="st0">
		<path class="st1" d="M235.9,181.9c-0.1,0.1-0.3,0.2-0.4,0.3s-0.3,0.1-0.5,0.2s-0.3,0.1-0.5,0.1s-0.3,0-0.5,0c-0.4,0-0.7-0.1-1-0.2
			s-0.4-0.3-0.6-0.5c-0.1-0.2-0.2-0.4-0.3-0.6c-0.1-0.2-0.1-0.4-0.1-0.6c0-0.7,0.1-1.3,0.3-1.8c0.2-0.5,0.4-1,0.7-1.4
			c0.3-0.4,0.7-0.7,1.1-0.9c0.4-0.2,0.8-0.3,1.2-0.3c0.3,0,0.6,0,0.8,0.1c0.2,0.1,0.4,0.1,0.5,0.2l-0.3,0.7
			c-0.1-0.1-0.3-0.1-0.5-0.2s-0.4-0.1-0.6-0.1c-0.3,0-0.5,0.1-0.8,0.3c-0.3,0.2-0.5,0.4-0.7,0.7c-0.2,0.3-0.4,0.6-0.5,1
			c-0.1,0.4-0.2,0.8-0.2,1.2c0,0.5,0.1,0.9,0.3,1.2c0.2,0.2,0.5,0.4,0.9,0.4c0.2,0,0.5-0.1,0.8-0.2c0.3-0.1,0.5-0.2,0.6-0.3
			L235.9,181.9z"/>
	</g>
	<g class="st0">
		<path class="st1" d="M241.2,180c-0.1,0.3-0.1,0.6-0.1,0.9s0,0.6,0,0.9c0,0.1,0,0.2,0,0.3c0,0.1,0,0.2,0,0.3h-0.7l-0.2-1h0
			c-0.1,0.1-0.2,0.3-0.4,0.4c-0.1,0.1-0.3,0.3-0.5,0.4c-0.2,0.1-0.3,0.2-0.5,0.3c-0.2,0.1-0.4,0.1-0.6,0.1c-1,0-1.4-0.6-1.4-1.9
			c0-0.5,0.1-1,0.2-1.6c0.1-0.5,0.3-1,0.6-1.4s0.6-0.8,1.1-1c0.4-0.3,1-0.4,1.6-0.4c0.2,0,0.5,0,0.8,0.1c0.3,0.1,0.6,0.1,0.9,0.2
			L241.2,180z M238.5,181.8c0.2,0,0.4,0,0.6-0.1s0.3-0.2,0.5-0.3c0.2-0.1,0.3-0.3,0.4-0.4s0.2-0.3,0.3-0.4l0.7-3.2
			c-0.2-0.1-0.5-0.2-0.9-0.2s-0.7,0.1-1,0.3c-0.3,0.2-0.5,0.5-0.7,0.8c-0.2,0.3-0.3,0.7-0.4,1.2c-0.1,0.4-0.1,0.9-0.1,1.3
			c0,0.3,0.1,0.6,0.2,0.8C238,181.7,238.2,181.8,238.5,181.8z"/>
		<path class="st1" d="M243.7,181c0,0.1,0,0.2,0,0.3c0,0.2,0,0.3,0.1,0.3c0.1,0.1,0.1,0.1,0.2,0.1c0.2,0,0.3,0,0.4,0
			c0.1,0,0.2-0.1,0.4-0.1v0.7c-0.1,0-0.2,0.1-0.3,0.1c-0.1,0-0.2,0-0.3,0.1c-0.1,0-0.2,0-0.3,0c-0.1,0-0.2,0-0.3,0
			c-0.3,0-0.5-0.1-0.7-0.2s-0.3-0.4-0.3-0.7c0-0.2,0-0.4,0.1-0.6l1.5-7h0.9L243.7,181z"/>
		<path class="st1" d="M246.9,181c0,0.1,0,0.2,0,0.3c0,0.2,0,0.3,0.1,0.3c0.1,0.1,0.1,0.1,0.2,0.1c0.2,0,0.3,0,0.4,0
			c0.1,0,0.2-0.1,0.4-0.1v0.7c-0.1,0-0.2,0.1-0.3,0.1c-0.1,0-0.2,0-0.3,0.1c-0.1,0-0.2,0-0.3,0c-0.1,0-0.2,0-0.3,0
			c-0.3,0-0.5-0.1-0.7-0.2s-0.3-0.4-0.3-0.7c0-0.2,0-0.4,0.1-0.6l1.5-7h0.9L246.9,181z"/>
		<path class="st1" d="M251.7,180.7c0-0.2-0.1-0.4-0.2-0.5c-0.1-0.1-0.2-0.3-0.4-0.4s-0.3-0.2-0.5-0.3c-0.2-0.1-0.4-0.2-0.5-0.4
			s-0.3-0.3-0.4-0.5c-0.1-0.2-0.2-0.4-0.2-0.7c0-0.2,0.1-0.4,0.2-0.6s0.3-0.4,0.4-0.5c0.2-0.1,0.4-0.3,0.7-0.3
			c0.3-0.1,0.5-0.1,0.8-0.1c0.4,0,0.8,0,1,0.1c0.2,0.1,0.4,0.1,0.6,0.2l-0.3,0.7c-0.3-0.2-0.8-0.3-1.3-0.3c-0.3,0-0.6,0.1-0.8,0.2
			s-0.3,0.4-0.3,0.6c0,0.2,0.1,0.3,0.2,0.4c0.1,0.1,0.2,0.2,0.4,0.4c0.2,0.1,0.3,0.2,0.5,0.3c0.2,0.1,0.4,0.2,0.5,0.4
			c0.2,0.1,0.3,0.3,0.4,0.5c0.1,0.2,0.2,0.4,0.2,0.7c0,0.6-0.2,1.1-0.6,1.4s-1,0.5-1.7,0.5c-0.4,0-0.7,0-1-0.1s-0.5-0.2-0.7-0.3
			l0.3-0.8c0.2,0.1,0.4,0.2,0.6,0.3c0.3,0.1,0.5,0.1,0.8,0.1c0.4,0,0.7-0.1,0.9-0.3C251.5,181.4,251.7,181.1,251.7,180.7z"/>
		<path class="st1" d="M254.4,181.9c0-0.2,0.1-0.4,0.2-0.5s0.3-0.2,0.5-0.2s0.4,0.1,0.5,0.2s0.2,0.3,0.2,0.5c0,0.2-0.1,0.4-0.2,0.5
			s-0.3,0.2-0.5,0.2s-0.4-0.1-0.5-0.2S254.4,182.1,254.4,181.9z M256.2,174h1l-0.9,4.2l-0.6,2.1H255l0.2-2.1L256.2,174z"/>
	</g>
</g>
<g id="schrift">
	<path class="st4" d="M193.1,91.8h136.4c2.8,0,5,2.2,5,5v38.2c0,2.8-2.2,5-5,5H193.1c-2.8,0-5-2.2-5-5V96.8
		C188.1,94.1,190.3,91.8,193.1,91.8z"/>
	<g class="st0">
		<path class="st1" d="M212.1,109.5h-3.8l-0.8,3.9h-1l1.8-8.4h1l-0.8,3.7h3.8l0.8-3.7h1l-1.8,8.4h-1L212.1,109.5z"/>
		<path class="st1" d="M215.6,107.3h0.9l-1.3,6h-0.9L215.6,107.3z M215.8,105.5c0-0.2,0.1-0.3,0.2-0.5c0.1-0.1,0.3-0.2,0.5-0.2
			c0.2,0,0.3,0.1,0.5,0.2s0.2,0.3,0.2,0.5s-0.1,0.3-0.2,0.5s-0.3,0.2-0.5,0.2c-0.2,0-0.3-0.1-0.5-0.2
			C215.9,105.8,215.8,105.7,215.8,105.5z"/>
		<path class="st1" d="M221.4,113.6c-0.2,0.8-0.5,1.4-0.9,1.7s-1,0.5-1.6,0.5c-0.5,0-0.9-0.1-1.3-0.2s-0.6-0.2-0.8-0.3l0.4-0.7
			c0.1,0,0.1,0.1,0.2,0.1s0.2,0.1,0.3,0.2c0.1,0,0.3,0.1,0.5,0.1c0.2,0,0.4,0,0.7,0c0.4,0,0.7-0.1,1-0.4c0.3-0.3,0.5-0.7,0.6-1.4
			l0.2-1h0c-0.1,0.2-0.2,0.3-0.4,0.4c-0.1,0.1-0.3,0.3-0.4,0.4c-0.2,0.1-0.3,0.2-0.5,0.3c-0.2,0.1-0.4,0.1-0.6,0.1
			c-0.4,0-0.8-0.2-1-0.5c-0.3-0.3-0.4-0.8-0.4-1.3c0-0.5,0.1-1.1,0.2-1.6c0.1-0.5,0.4-1,0.7-1.4c0.3-0.4,0.7-0.8,1.1-1
			c0.4-0.3,0.9-0.4,1.5-0.4c0.4,0,0.8,0,1.1,0.1s0.6,0.2,0.8,0.3L221.4,113.6z M219.1,112.7c0.2,0,0.4-0.1,0.6-0.2
			c0.2-0.1,0.4-0.2,0.5-0.4c0.2-0.2,0.3-0.3,0.4-0.5c0.1-0.2,0.2-0.4,0.3-0.5l0.6-2.9c-0.1-0.1-0.3-0.1-0.5-0.1c-0.2,0-0.4,0-0.6,0
			c-0.3,0-0.6,0.1-0.9,0.3c-0.3,0.2-0.5,0.5-0.7,0.8c-0.2,0.3-0.4,0.7-0.5,1.1c-0.1,0.4-0.2,0.9-0.2,1.3c0,0.4,0.1,0.7,0.2,0.9
			S218.9,112.7,219.1,112.7z"/>
		<path class="st1" d="M226.9,113.3l0.7-3.4c0-0.2,0.1-0.5,0.1-0.6c0-0.2,0-0.4,0-0.5c0-0.3-0.1-0.5-0.2-0.6
			c-0.1-0.1-0.3-0.2-0.6-0.2c-0.2,0-0.4,0.1-0.6,0.2c-0.2,0.1-0.4,0.2-0.6,0.4c-0.2,0.2-0.4,0.4-0.5,0.6c-0.2,0.2-0.3,0.4-0.4,0.6
			l-0.8,3.6h-0.9l1.8-8.4h0.9l-0.7,3.4h0c0.1-0.1,0.2-0.3,0.4-0.4c0.1-0.1,0.3-0.3,0.5-0.4c0.2-0.1,0.4-0.2,0.6-0.3
			c0.2-0.1,0.5-0.1,0.7-0.1c0.4,0,0.7,0.1,0.9,0.3c0.2,0.2,0.3,0.5,0.3,1c0,0.3-0.1,0.7-0.2,1.2l-0.8,3.6H226.9z"/>
		<path class="st1" d="M234.1,107.3h0.6l-0.1,1h0c0.1-0.1,0.2-0.3,0.4-0.4c0.1-0.1,0.3-0.3,0.5-0.4c0.2-0.1,0.4-0.2,0.6-0.3
			s0.4-0.1,0.6-0.1c0.2,0,0.4,0,0.5,0.1c0.2,0.1,0.3,0.2,0.4,0.3s0.2,0.3,0.3,0.6c0.1,0.2,0.1,0.5,0.1,0.9c0,0.7-0.1,1.3-0.3,1.9
			c-0.2,0.6-0.4,1-0.8,1.4c-0.3,0.4-0.7,0.7-1.1,0.9s-0.8,0.3-1.2,0.3c-0.3,0-0.5,0-0.7-0.1c-0.2-0.1-0.4-0.1-0.4-0.2l-0.5,2.5h-0.9
			L234.1,107.3z M236.5,107.9c-0.2,0-0.4,0.1-0.6,0.2c-0.2,0.1-0.4,0.3-0.5,0.4c-0.2,0.2-0.3,0.3-0.4,0.5c-0.1,0.2-0.2,0.4-0.3,0.5
			l-0.6,2.8c0.1,0.1,0.3,0.2,0.4,0.2c0.1,0,0.3,0.1,0.5,0.1c0.3,0,0.6-0.1,0.9-0.3c0.3-0.2,0.5-0.4,0.8-0.7c0.2-0.3,0.4-0.7,0.5-1.2
			c0.1-0.4,0.2-0.9,0.2-1.5c0-0.3-0.1-0.6-0.2-0.8C236.9,108,236.7,107.9,236.5,107.9z"/>
		<path class="st1" d="M243.2,112.7c-0.3,0.2-0.6,0.4-1,0.5c-0.4,0.1-0.8,0.2-1.1,0.2c-0.6,0-1.1-0.2-1.4-0.6
			c-0.3-0.4-0.5-0.9-0.5-1.5c0-0.7,0.1-1.2,0.3-1.8c0.2-0.5,0.4-1,0.7-1.3c0.3-0.4,0.6-0.6,1-0.8c0.4-0.2,0.8-0.3,1.2-0.3
			c0.3,0,0.5,0,0.8,0.1c0.2,0.1,0.4,0.2,0.5,0.3s0.2,0.3,0.3,0.5s0.1,0.4,0.1,0.5c0,0.6-0.3,1-0.8,1.3c-0.6,0.3-1.4,0.5-2.4,0.5
			c-0.1,0-0.2,0-0.3,0c-0.1,0-0.2,0-0.3,0c0,0.2-0.1,0.3-0.1,0.4c0,0.1,0,0.3,0,0.4c0,0.4,0.1,0.8,0.3,1.1c0.2,0.3,0.5,0.4,0.9,0.4
			c0.4,0,0.7-0.1,1-0.2c0.3-0.1,0.5-0.2,0.7-0.4L243.2,112.7z M242.2,107.9c-0.4,0-0.8,0.2-1.1,0.5s-0.6,0.8-0.7,1.3
			c0.3,0,0.6,0,0.9,0c0.3,0,0.6-0.1,0.9-0.1c0.3-0.1,0.5-0.2,0.7-0.3c0.2-0.1,0.3-0.4,0.3-0.6c0-0.1,0-0.2,0-0.2
			c0-0.1-0.1-0.2-0.1-0.2c-0.1-0.1-0.2-0.1-0.3-0.2C242.5,108,242.3,107.9,242.2,107.9z"/>
		<path class="st1" d="M248.4,108.1c-0.1,0-0.1,0-0.2,0s-0.1,0-0.2,0c-0.4,0-0.8,0.1-1.1,0.4c-0.3,0.3-0.5,0.6-0.7,0.9l-0.8,3.9
			h-0.9l1.3-6h0.6v1h0c0.1-0.2,0.2-0.3,0.3-0.4c0.1-0.1,0.2-0.3,0.4-0.4c0.1-0.1,0.3-0.2,0.4-0.2c0.2-0.1,0.3-0.1,0.5-0.1
			c0.2,0,0.4,0,0.6,0.1L248.4,108.1z"/>
	</g>
	<g class="st0">
		<path class="st1" d="M250.6,108.1l-1,5.6c0,0.3-0.1,0.6-0.2,0.8c-0.1,0.3-0.2,0.5-0.3,0.7c-0.1,0.2-0.3,0.3-0.5,0.4
			c-0.2,0.1-0.5,0.2-0.8,0.2c-0.2,0-0.5,0-0.7-0.1c-0.2,0-0.4-0.1-0.6-0.2l0.3-0.7c0.2,0.1,0.3,0.1,0.4,0.1c0.1,0,0.3,0,0.5,0
			c0.3,0,0.5-0.1,0.7-0.4c0.2-0.3,0.3-0.8,0.4-1.4l0.8-5.1h-0.9l0.2-0.8h0.9l0.2-0.8c0.1-0.3,0.1-0.6,0.2-0.8s0.2-0.4,0.3-0.5
			c0.1-0.1,0.3-0.3,0.5-0.3c0.2-0.1,0.4-0.1,0.7-0.1c0.3,0,0.5,0,0.8,0.1s0.5,0.1,0.7,0.2l-0.3,0.7c-0.4-0.2-0.8-0.2-1.1-0.2
			c-0.3,0-0.5,0.1-0.6,0.3c-0.1,0.2-0.2,0.5-0.3,1l-0.1,0.5h1.2l-0.1,0.8H250.6z"/>
	</g>
	<g class="st0">
		<path class="st1" d="M251.9,111.4c0-0.6,0.1-1.2,0.2-1.7c0.2-0.5,0.4-1,0.7-1.3s0.6-0.7,1-0.9s0.8-0.3,1.2-0.3
			c0.3,0,0.6,0.1,0.9,0.2c0.2,0.1,0.4,0.3,0.6,0.4c0.1,0.2,0.3,0.4,0.3,0.6s0.1,0.5,0.1,0.8c0,0.6-0.1,1.2-0.2,1.7
			c-0.2,0.5-0.4,1-0.6,1.4c-0.3,0.4-0.6,0.7-1,0.9c-0.4,0.2-0.8,0.3-1.2,0.3c-0.4,0-0.7-0.1-0.9-0.2c-0.2-0.1-0.4-0.3-0.6-0.5
			c-0.2-0.2-0.3-0.4-0.3-0.6C252,111.9,251.9,111.7,251.9,111.4z M252.9,111.2c0,0.5,0.1,0.8,0.3,1.1s0.5,0.4,0.8,0.4
			c0.3,0,0.5-0.1,0.8-0.3c0.2-0.2,0.4-0.4,0.6-0.8s0.3-0.7,0.4-1.1c0.1-0.4,0.2-0.8,0.2-1.3c0-0.4-0.1-0.7-0.2-1
			c-0.1-0.2-0.4-0.4-0.8-0.4c-0.3,0-0.5,0.1-0.8,0.3c-0.2,0.2-0.5,0.4-0.6,0.7c-0.2,0.3-0.3,0.7-0.4,1
			C253,110.4,252.9,110.8,252.9,111.2z"/>
		<path class="st1" d="M261.7,108.1c-0.1,0-0.1,0-0.2,0s-0.1,0-0.2,0c-0.4,0-0.8,0.1-1.1,0.4s-0.5,0.6-0.7,0.9l-0.8,3.9h-0.9l1.3-6
			h0.6v1h0c0.1-0.2,0.2-0.3,0.3-0.4c0.1-0.1,0.2-0.3,0.4-0.4c0.1-0.1,0.3-0.2,0.4-0.2c0.2-0.1,0.3-0.1,0.5-0.1c0.2,0,0.4,0,0.6,0.1
			L261.7,108.1z"/>
		<path class="st1" d="M264.9,113.3l0.7-3.4c0.1-0.3,0.1-0.5,0.1-0.7c0-0.2,0-0.4,0-0.6c0-0.2,0-0.4-0.1-0.5
			c-0.1-0.1-0.2-0.2-0.4-0.2c-0.2,0-0.4,0.1-0.6,0.2c-0.2,0.1-0.4,0.2-0.5,0.4s-0.3,0.3-0.5,0.5c-0.1,0.2-0.3,0.3-0.3,0.5l-0.8,3.9
			h-0.9l1.3-6h0.6l-0.1,1h0c0.1-0.1,0.3-0.3,0.4-0.4c0.1-0.1,0.3-0.3,0.5-0.4s0.4-0.2,0.6-0.3c0.2-0.1,0.4-0.1,0.7-0.1
			c0.4,0,0.6,0.1,0.7,0.3c0.1,0.2,0.2,0.5,0.2,0.9c0.1-0.2,0.3-0.3,0.4-0.5c0.2-0.2,0.3-0.3,0.5-0.4c0.2-0.1,0.4-0.2,0.6-0.3
			c0.2-0.1,0.4-0.1,0.6-0.1c0.4,0,0.6,0.1,0.8,0.3s0.3,0.5,0.3,1c0,0.3-0.1,0.8-0.2,1.3l-0.8,3.6h-0.9l0.8-3.6
			c0-0.2,0.1-0.4,0.1-0.6c0-0.2,0-0.3,0-0.5c0-0.2,0-0.4-0.1-0.5s-0.2-0.2-0.4-0.2c-0.2,0-0.3,0.1-0.5,0.2c-0.2,0.1-0.4,0.2-0.5,0.4
			c-0.2,0.2-0.3,0.3-0.5,0.5c-0.1,0.2-0.3,0.4-0.3,0.5l-0.8,3.8H264.9z"/>
		<path class="st1" d="M275.4,110.9c-0.1,0.3-0.1,0.6-0.1,0.9s0,0.6,0,0.9c0,0.1,0,0.2,0,0.3c0,0.1,0,0.2,0,0.3h-0.7l-0.2-1h0
			c-0.1,0.1-0.2,0.3-0.4,0.4c-0.1,0.1-0.3,0.3-0.5,0.4c-0.2,0.1-0.3,0.2-0.5,0.3c-0.2,0.1-0.4,0.1-0.6,0.1c-1,0-1.4-0.6-1.4-1.9
			c0-0.5,0.1-1,0.2-1.6c0.1-0.5,0.3-1,0.6-1.4s0.6-0.8,1.1-1c0.4-0.3,1-0.4,1.6-0.4c0.2,0,0.5,0,0.8,0.1c0.3,0.1,0.6,0.1,0.9,0.2
			L275.4,110.9z M272.6,112.7c0.2,0,0.4,0,0.6-0.1s0.3-0.2,0.5-0.3c0.2-0.1,0.3-0.3,0.4-0.4s0.2-0.3,0.3-0.4l0.7-3.2
			c-0.2-0.1-0.5-0.2-0.9-0.2s-0.7,0.1-1,0.3c-0.3,0.2-0.5,0.5-0.7,0.8c-0.2,0.3-0.3,0.7-0.4,1.2c-0.1,0.4-0.1,0.9-0.1,1.3
			c0,0.3,0.1,0.6,0.2,0.8C272.2,112.6,272.4,112.7,272.6,112.7z"/>
		<path class="st1" d="M280.2,113.3l0.8-3.8c0-0.1,0.1-0.3,0.1-0.4c0-0.1,0-0.3,0-0.4c0-0.2-0.1-0.4-0.2-0.6
			c-0.1-0.1-0.3-0.2-0.6-0.2c-0.2,0-0.4,0-0.6,0.1c-0.2,0.1-0.4,0.2-0.6,0.4c-0.2,0.1-0.3,0.3-0.5,0.5c-0.1,0.2-0.3,0.4-0.4,0.5
			l-0.8,3.8h-0.9l1.3-6h0.6l0,1h0c0.1-0.1,0.2-0.3,0.4-0.4c0.1-0.1,0.3-0.3,0.5-0.4c0.2-0.1,0.4-0.2,0.6-0.3
			c0.2-0.1,0.5-0.1,0.7-0.1c0.4,0,0.7,0.1,0.9,0.3c0.2,0.2,0.3,0.5,0.3,1c0,0.2,0,0.5-0.1,0.9l-0.9,4H280.2z"/>
	</g>
	<g class="st0">
		<path class="st1" d="M286.9,112.8c-0.1,0.1-0.3,0.2-0.4,0.3c-0.2,0.1-0.3,0.1-0.5,0.2s-0.3,0.1-0.5,0.1s-0.3,0-0.5,0
			c-0.4,0-0.7-0.1-1-0.2s-0.5-0.3-0.6-0.5c-0.1-0.2-0.2-0.4-0.3-0.6c-0.1-0.2-0.1-0.4-0.1-0.6c0-0.7,0.1-1.3,0.3-1.8
			c0.2-0.5,0.4-1,0.7-1.4c0.3-0.4,0.7-0.7,1.1-0.9c0.4-0.2,0.8-0.3,1.2-0.3c0.3,0,0.6,0,0.8,0.1c0.2,0.1,0.4,0.1,0.5,0.2l-0.3,0.7
			c-0.1-0.1-0.3-0.1-0.5-0.2c-0.2,0-0.4-0.1-0.6-0.1c-0.3,0-0.5,0.1-0.8,0.3c-0.3,0.2-0.5,0.4-0.7,0.7c-0.2,0.3-0.4,0.6-0.5,1
			s-0.2,0.8-0.2,1.2c0,0.5,0.1,0.9,0.3,1.2c0.2,0.2,0.5,0.4,0.9,0.4c0.2,0,0.5-0.1,0.8-0.2c0.3-0.1,0.5-0.2,0.6-0.3L286.9,112.8z"/>
	</g>
	<g class="st0">
		<path class="st1" d="M291.9,112.7c-0.3,0.2-0.6,0.4-1,0.5s-0.8,0.2-1.1,0.2c-0.6,0-1.1-0.2-1.4-0.6c-0.3-0.4-0.5-0.9-0.5-1.5
			c0-0.7,0.1-1.2,0.3-1.8c0.2-0.5,0.4-1,0.7-1.3c0.3-0.4,0.6-0.6,1-0.8c0.4-0.2,0.8-0.3,1.2-0.3c0.3,0,0.5,0,0.8,0.1
			c0.2,0.1,0.4,0.2,0.5,0.3s0.2,0.3,0.3,0.5c0.1,0.2,0.1,0.4,0.1,0.5c0,0.6-0.3,1-0.8,1.3s-1.4,0.5-2.4,0.5c-0.1,0-0.2,0-0.3,0
			c-0.1,0-0.2,0-0.3,0c0,0.2-0.1,0.3-0.1,0.4c0,0.1,0,0.3,0,0.4c0,0.4,0.1,0.8,0.3,1.1s0.5,0.4,0.9,0.4c0.4,0,0.7-0.1,1-0.2
			c0.3-0.1,0.5-0.2,0.7-0.4L291.9,112.7z M290.8,107.9c-0.4,0-0.8,0.2-1.1,0.5s-0.6,0.8-0.7,1.3c0.3,0,0.6,0,0.9,0
			c0.3,0,0.6-0.1,0.9-0.1c0.3-0.1,0.5-0.2,0.7-0.3c0.2-0.1,0.3-0.4,0.3-0.6c0-0.1,0-0.2,0-0.2c0-0.1-0.1-0.2-0.1-0.2
			c-0.1-0.1-0.2-0.1-0.3-0.2C291.2,108,291,107.9,290.8,107.9z"/>
	</g>
	<g class="st0">
		<path class="st1" d="M209.1,126c0-0.2-0.1-0.4-0.2-0.5c-0.1-0.1-0.2-0.3-0.4-0.4s-0.3-0.2-0.5-0.3c-0.2-0.1-0.4-0.2-0.5-0.4
			s-0.3-0.3-0.4-0.5c-0.1-0.2-0.2-0.4-0.2-0.7c0-0.2,0.1-0.4,0.2-0.6c0.1-0.2,0.3-0.4,0.4-0.5c0.2-0.1,0.4-0.3,0.7-0.3
			c0.3-0.1,0.5-0.1,0.8-0.1c0.4,0,0.8,0,1,0.1c0.2,0.1,0.4,0.1,0.6,0.2l-0.3,0.7c-0.3-0.2-0.8-0.3-1.3-0.3c-0.3,0-0.6,0.1-0.8,0.2
			s-0.3,0.4-0.3,0.6c0,0.2,0.1,0.3,0.2,0.4c0.1,0.1,0.2,0.2,0.4,0.4c0.2,0.1,0.3,0.2,0.5,0.3c0.2,0.1,0.4,0.2,0.5,0.4
			c0.2,0.1,0.3,0.3,0.4,0.5c0.1,0.2,0.2,0.4,0.2,0.7c0,0.6-0.2,1.1-0.6,1.4s-1,0.5-1.7,0.5c-0.4,0-0.7,0-1-0.1s-0.5-0.2-0.7-0.3
			l0.3-0.8c0.2,0.1,0.4,0.2,0.6,0.3c0.3,0.1,0.5,0.1,0.8,0.1c0.4,0,0.7-0.1,0.9-0.3C209,126.7,209.1,126.4,209.1,126z"/>
		<path class="st1" d="M213.1,125.6l0.1,1.2h0.1l0.5-1.2l2-3.9h1l-2.8,5.4c-0.2,0.4-0.4,0.8-0.6,1.1c-0.2,0.4-0.4,0.7-0.6,1
			c-0.2,0.3-0.4,0.5-0.7,0.7c-0.2,0.2-0.5,0.3-0.7,0.3c-0.1,0-0.3,0-0.4,0c-0.1,0-0.2,0-0.3-0.1l0.3-0.8c0.1,0,0.2,0,0.3,0
			c0.2,0,0.5-0.1,0.7-0.4s0.5-0.6,0.8-1.2l-1-6h1L213.1,125.6z"/>
		<path class="st1" d="M219.2,126c0-0.2-0.1-0.4-0.2-0.5c-0.1-0.1-0.2-0.3-0.4-0.4c-0.2-0.1-0.3-0.2-0.5-0.3
			c-0.2-0.1-0.4-0.2-0.5-0.4s-0.3-0.3-0.4-0.5c-0.1-0.2-0.2-0.4-0.2-0.7c0-0.2,0.1-0.4,0.2-0.6c0.1-0.2,0.3-0.4,0.4-0.5
			c0.2-0.1,0.4-0.3,0.7-0.3c0.3-0.1,0.5-0.1,0.8-0.1c0.4,0,0.8,0,1,0.1c0.2,0.1,0.4,0.1,0.6,0.2l-0.3,0.7c-0.3-0.2-0.8-0.3-1.3-0.3
			c-0.3,0-0.6,0.1-0.8,0.2c-0.2,0.1-0.3,0.4-0.3,0.6c0,0.2,0.1,0.3,0.2,0.4c0.1,0.1,0.2,0.2,0.4,0.4c0.2,0.1,0.3,0.2,0.5,0.3
			c0.2,0.1,0.4,0.2,0.5,0.4c0.2,0.1,0.3,0.3,0.4,0.5c0.1,0.2,0.2,0.4,0.2,0.7c0,0.6-0.2,1.1-0.6,1.4s-1,0.5-1.7,0.5
			c-0.4,0-0.7,0-1-0.1c-0.3-0.1-0.5-0.2-0.7-0.3l0.3-0.8c0.2,0.1,0.4,0.2,0.6,0.3c0.3,0.1,0.5,0.1,0.8,0.1c0.4,0,0.7-0.1,0.9-0.3
			C219.1,126.7,219.2,126.4,219.2,126z"/>
	</g>
	<g class="st0">
		<path class="st1" d="M225.2,127.2c-0.1,0.1-0.3,0.2-0.4,0.3c-0.2,0.1-0.3,0.1-0.5,0.2s-0.3,0.1-0.5,0.1s-0.3,0-0.5,0
			c-0.4,0-0.7-0.1-1-0.2s-0.5-0.3-0.6-0.5c-0.1-0.2-0.2-0.4-0.3-0.6c-0.1-0.2-0.1-0.4-0.1-0.6c0-0.7,0.1-1.3,0.3-1.8
			c0.2-0.5,0.4-1,0.7-1.4c0.3-0.4,0.7-0.7,1.1-0.9c0.4-0.2,0.8-0.3,1.2-0.3c0.3,0,0.6,0,0.8,0.1c0.2,0.1,0.4,0.1,0.5,0.2l-0.3,0.7
			c-0.1-0.1-0.3-0.1-0.5-0.2c-0.2,0-0.4-0.1-0.6-0.1c-0.3,0-0.5,0.1-0.8,0.3c-0.3,0.2-0.5,0.4-0.7,0.7c-0.2,0.3-0.4,0.6-0.5,1
			s-0.2,0.8-0.2,1.2c0,0.5,0.1,0.9,0.3,1.2c0.2,0.2,0.5,0.4,0.9,0.4c0.2,0,0.5-0.1,0.8-0.2c0.3-0.1,0.5-0.2,0.6-0.3L225.2,127.2z"/>
	</g>
	<g class="st0">
		<path class="st1" d="M230.5,125.3c-0.1,0.3-0.1,0.6-0.1,0.9c0,0.3,0,0.6,0,0.9c0,0.1,0,0.2,0,0.3c0,0.1,0,0.2,0,0.3h-0.7l-0.2-1h0
			c-0.1,0.1-0.2,0.3-0.4,0.4c-0.1,0.1-0.3,0.3-0.5,0.4c-0.2,0.1-0.3,0.2-0.5,0.3c-0.2,0.1-0.4,0.1-0.6,0.1c-1,0-1.4-0.6-1.4-1.9
			c0-0.5,0.1-1,0.2-1.6c0.1-0.5,0.3-1,0.6-1.4s0.6-0.8,1.1-1c0.4-0.3,1-0.4,1.6-0.4c0.2,0,0.5,0,0.8,0.1c0.3,0.1,0.6,0.1,0.9,0.2
			L230.5,125.3z M227.8,127.1c0.2,0,0.4,0,0.6-0.1s0.3-0.2,0.5-0.3c0.2-0.1,0.3-0.3,0.4-0.4s0.2-0.3,0.3-0.4l0.7-3.2
			c-0.2-0.1-0.5-0.2-0.9-0.2s-0.7,0.1-1,0.3c-0.3,0.2-0.5,0.5-0.7,0.8c-0.2,0.3-0.3,0.7-0.4,1.2c-0.1,0.4-0.1,0.9-0.1,1.3
			c0,0.3,0.1,0.6,0.2,0.8C227.3,127,227.5,127.1,227.8,127.1z"/>
		<path class="st1" d="M233,126.3c0,0.1,0,0.2,0,0.3c0,0.2,0,0.3,0.1,0.3c0.1,0.1,0.1,0.1,0.2,0.1c0.2,0,0.3,0,0.4,0
			c0.1,0,0.2-0.1,0.4-0.1v0.7c-0.1,0-0.2,0.1-0.3,0.1c-0.1,0-0.2,0-0.3,0.1c-0.1,0-0.2,0-0.3,0c-0.1,0-0.2,0-0.3,0
			c-0.3,0-0.5-0.1-0.7-0.2s-0.3-0.4-0.3-0.7c0-0.2,0-0.4,0.1-0.6l1.5-7h0.9L233,126.3z"/>
		<path class="st1" d="M236.2,126.3c0,0.1,0,0.2,0,0.3c0,0.2,0,0.3,0.1,0.3c0.1,0.1,0.1,0.1,0.2,0.1c0.2,0,0.3,0,0.4,0
			c0.1,0,0.2-0.1,0.4-0.1v0.7c-0.1,0-0.2,0.1-0.3,0.1c-0.1,0-0.2,0-0.3,0.1c-0.1,0-0.2,0-0.3,0c-0.1,0-0.2,0-0.3,0
			c-0.3,0-0.5-0.1-0.7-0.2s-0.3-0.4-0.3-0.7c0-0.2,0-0.4,0.1-0.6l1.5-7h0.9L236.2,126.3z"/>
		<path class="st1" d="M243,121.7h0.9l-1.3,6h-0.9L243,121.7z M243.2,119.9c0-0.2,0.1-0.3,0.2-0.5s0.3-0.2,0.5-0.2
			c0.2,0,0.3,0.1,0.5,0.2s0.2,0.3,0.2,0.5s-0.1,0.3-0.2,0.5s-0.3,0.2-0.5,0.2c-0.2,0-0.3-0.1-0.5-0.2S243.2,120.1,243.2,119.9z"/>
		<path class="st1" d="M248.1,127.7l0.8-3.8c0-0.1,0.1-0.3,0.1-0.4c0-0.1,0-0.3,0-0.4c0-0.2-0.1-0.4-0.2-0.6
			c-0.1-0.1-0.3-0.2-0.6-0.2c-0.2,0-0.4,0-0.6,0.1c-0.2,0.1-0.4,0.2-0.6,0.4c-0.2,0.1-0.3,0.3-0.5,0.5s-0.3,0.4-0.4,0.5l-0.8,3.8
			h-0.9l1.3-6h0.6l0,1h0c0.1-0.1,0.2-0.3,0.4-0.4c0.1-0.1,0.3-0.3,0.5-0.4c0.2-0.1,0.4-0.2,0.6-0.3c0.2-0.1,0.5-0.1,0.7-0.1
			c0.4,0,0.7,0.1,0.9,0.3c0.2,0.2,0.3,0.5,0.3,1c0,0.2,0,0.5-0.1,0.9l-0.9,4H248.1z"/>
		<path class="st1" d="M251.3,121.7h0.9l0.3-1.2l1-0.3l-0.3,1.5h1.6l-0.2,0.8h-1.6l-0.8,3.6c0,0.1,0,0.2,0,0.3s0,0.2,0,0.2
			c0,0.2,0,0.3,0.1,0.4c0.1,0.1,0.2,0.1,0.4,0.1c0.2,0,0.4,0,0.5-0.1s0.3-0.1,0.5-0.2v0.7c-0.2,0.1-0.4,0.2-0.6,0.2
			c-0.3,0.1-0.5,0.1-0.8,0.1c-0.7,0-1.1-0.3-1.1-1c0-0.1,0-0.3,0.1-0.5l0.8-3.9h-0.9L251.3,121.7z"/>
		<path class="st1" d="M258.9,127.1c-0.3,0.2-0.6,0.4-1,0.5s-0.8,0.2-1.1,0.2c-0.6,0-1.1-0.2-1.4-0.6c-0.3-0.4-0.5-0.9-0.5-1.5
			c0-0.7,0.1-1.2,0.3-1.8c0.2-0.5,0.4-1,0.7-1.3c0.3-0.4,0.6-0.6,1-0.8c0.4-0.2,0.8-0.3,1.2-0.3c0.3,0,0.5,0,0.8,0.1
			c0.2,0.1,0.4,0.2,0.5,0.3s0.2,0.3,0.3,0.5c0.1,0.2,0.1,0.4,0.1,0.5c0,0.6-0.3,1-0.8,1.3s-1.4,0.5-2.4,0.5c-0.1,0-0.2,0-0.3,0
			c-0.1,0-0.2,0-0.3,0c0,0.2-0.1,0.3-0.1,0.4c0,0.1,0,0.3,0,0.4c0,0.4,0.1,0.8,0.3,1.1s0.5,0.4,0.9,0.4c0.4,0,0.7-0.1,1-0.2
			c0.3-0.1,0.5-0.2,0.7-0.4L258.9,127.1z M257.8,122.3c-0.4,0-0.8,0.2-1.1,0.5s-0.6,0.8-0.7,1.3c0.3,0,0.6,0,0.9,0
			c0.3,0,0.6-0.1,0.9-0.1c0.3-0.1,0.5-0.2,0.7-0.3c0.2-0.1,0.3-0.4,0.3-0.6c0-0.1,0-0.2,0-0.2c0-0.1-0.1-0.2-0.1-0.2
			c-0.1-0.1-0.2-0.1-0.3-0.2C258.2,122.4,258,122.3,257.8,122.3z"/>
		<path class="st1" d="M264.1,122.5c-0.1,0-0.1,0-0.2,0s-0.1,0-0.2,0c-0.4,0-0.8,0.1-1.1,0.4s-0.5,0.6-0.7,0.9l-0.8,3.9h-0.9l1.3-6
			h0.6v1h0c0.1-0.2,0.2-0.3,0.3-0.4c0.1-0.1,0.2-0.3,0.4-0.4c0.1-0.1,0.3-0.2,0.4-0.2c0.2-0.1,0.3-0.1,0.5-0.1c0.2,0,0.4,0,0.6,0.1
			L264.1,122.5z"/>
	</g>
	<g class="st0">
		<path class="st1" d="M266.3,122.5l-1,5.6c0,0.3-0.1,0.6-0.2,0.8c-0.1,0.3-0.2,0.5-0.3,0.7c-0.1,0.2-0.3,0.3-0.5,0.4
			s-0.5,0.2-0.8,0.2c-0.2,0-0.5,0-0.7-0.1c-0.2,0-0.4-0.1-0.6-0.2l0.3-0.7c0.2,0.1,0.3,0.1,0.4,0.1c0.1,0,0.3,0,0.5,0
			c0.3,0,0.5-0.1,0.7-0.4c0.2-0.3,0.3-0.8,0.4-1.4l0.8-5.1h-0.9l0.2-0.8h0.9l0.2-0.8c0.1-0.3,0.1-0.6,0.2-0.8s0.2-0.4,0.3-0.5
			c0.1-0.1,0.3-0.3,0.5-0.3c0.2-0.1,0.4-0.1,0.7-0.1c0.3,0,0.5,0,0.8,0.1s0.5,0.1,0.7,0.2l-0.3,0.7c-0.4-0.2-0.8-0.2-1.1-0.2
			c-0.3,0-0.5,0.1-0.6,0.3c-0.1,0.2-0.2,0.5-0.3,1l-0.1,0.5h1.2l-0.1,0.8H266.3z"/>
	</g>
	<g class="st0">
		<path class="st1" d="M272,125.3c-0.1,0.3-0.1,0.6-0.1,0.9c0,0.3,0,0.6,0,0.9c0,0.1,0,0.2,0,0.3c0,0.1,0,0.2,0,0.3h-0.7l-0.2-1h0
			c-0.1,0.1-0.2,0.3-0.4,0.4c-0.1,0.1-0.3,0.3-0.5,0.4c-0.2,0.1-0.3,0.2-0.5,0.3c-0.2,0.1-0.4,0.1-0.6,0.1c-1,0-1.4-0.6-1.4-1.9
			c0-0.5,0.1-1,0.2-1.6c0.1-0.5,0.3-1,0.6-1.4s0.6-0.8,1.1-1c0.4-0.3,1-0.4,1.6-0.4c0.2,0,0.5,0,0.8,0.1c0.3,0.1,0.6,0.1,0.9,0.2
			L272,125.3z M269.3,127.1c0.2,0,0.4,0,0.6-0.1s0.3-0.2,0.5-0.3c0.2-0.1,0.3-0.3,0.4-0.4s0.2-0.3,0.3-0.4l0.7-3.2
			c-0.2-0.1-0.5-0.2-0.9-0.2s-0.7,0.1-1,0.3c-0.3,0.2-0.5,0.5-0.7,0.8c-0.2,0.3-0.3,0.7-0.4,1.2c-0.1,0.4-0.1,0.9-0.1,1.3
			c0,0.3,0.1,0.6,0.2,0.8C268.8,127,269,127.1,269.3,127.1z"/>
	</g>
	<g class="st0">
		<path class="st1" d="M277.3,127.2c-0.1,0.1-0.3,0.2-0.4,0.3s-0.3,0.1-0.5,0.2s-0.3,0.1-0.5,0.1s-0.3,0-0.5,0c-0.4,0-0.7-0.1-1-0.2
			s-0.5-0.3-0.6-0.5c-0.1-0.2-0.2-0.4-0.3-0.6c-0.1-0.2-0.1-0.4-0.1-0.6c0-0.7,0.1-1.3,0.3-1.8c0.2-0.5,0.4-1,0.7-1.4
			c0.3-0.4,0.7-0.7,1.1-0.9s0.8-0.3,1.2-0.3c0.3,0,0.6,0,0.8,0.1c0.2,0.1,0.4,0.1,0.5,0.2l-0.3,0.7c-0.1-0.1-0.3-0.1-0.5-0.2
			s-0.4-0.1-0.6-0.1c-0.3,0-0.5,0.1-0.8,0.3c-0.3,0.2-0.5,0.4-0.7,0.7s-0.4,0.6-0.5,1c-0.1,0.4-0.2,0.8-0.2,1.2
			c0,0.5,0.1,0.9,0.3,1.2s0.5,0.4,0.9,0.4c0.2,0,0.5-0.1,0.8-0.2c0.3-0.1,0.5-0.2,0.6-0.3L277.3,127.2z"/>
	</g>
	<g class="st0">
		<path class="st1" d="M282.2,127.1c-0.3,0.2-0.6,0.4-1,0.5c-0.4,0.1-0.8,0.2-1.1,0.2c-0.6,0-1.1-0.2-1.4-0.6
			c-0.3-0.4-0.5-0.9-0.5-1.5c0-0.7,0.1-1.2,0.3-1.8c0.2-0.5,0.4-1,0.7-1.3c0.3-0.4,0.6-0.6,1-0.8c0.4-0.2,0.8-0.3,1.2-0.3
			c0.3,0,0.5,0,0.8,0.1c0.2,0.1,0.4,0.2,0.5,0.3s0.2,0.3,0.3,0.5s0.1,0.4,0.1,0.5c0,0.6-0.3,1-0.8,1.3c-0.6,0.3-1.4,0.5-2.4,0.5
			c-0.1,0-0.2,0-0.3,0c-0.1,0-0.2,0-0.3,0c0,0.2-0.1,0.3-0.1,0.4c0,0.1,0,0.3,0,0.4c0,0.4,0.1,0.8,0.3,1.1c0.2,0.3,0.5,0.4,0.9,0.4
			c0.4,0,0.7-0.1,1-0.2c0.3-0.1,0.5-0.2,0.7-0.4L282.2,127.1z M281.2,122.3c-0.4,0-0.8,0.2-1.1,0.5s-0.6,0.8-0.7,1.3
			c0.3,0,0.6,0,0.9,0c0.3,0,0.6-0.1,0.9-0.1c0.3-0.1,0.5-0.2,0.7-0.3c0.2-0.1,0.3-0.4,0.3-0.6c0-0.1,0-0.2,0-0.2
			c0-0.1-0.1-0.2-0.1-0.2c-0.1-0.1-0.2-0.1-0.3-0.2C281.5,122.4,281.4,122.3,281.2,122.3z"/>
	</g>
	<path class="st4" d="M193.1,33.6h136.4c2.8,0,5,2.2,5,5v38.2c0,2.8-2.2,5-5,5H193.1c-2.8,0-5-2.2-5-5V38.6
		C188.1,35.8,190.3,33.6,193.1,33.6z"/>
	<g class="st0">
		<path class="st1" d="M270.8,53.4c0-0.2-0.1-0.4-0.2-0.5c-0.1-0.1-0.2-0.3-0.4-0.4c-0.2-0.1-0.3-0.2-0.5-0.3
			c-0.2-0.1-0.4-0.2-0.5-0.4s-0.3-0.3-0.4-0.5c-0.1-0.2-0.2-0.4-0.2-0.7c0-0.2,0.1-0.4,0.2-0.6c0.1-0.2,0.3-0.4,0.4-0.5
			c0.2-0.1,0.4-0.3,0.7-0.3c0.3-0.1,0.5-0.1,0.8-0.1c0.4,0,0.8,0,1,0.1c0.2,0.1,0.4,0.1,0.6,0.2l-0.3,0.7c-0.3-0.2-0.8-0.3-1.3-0.3
			c-0.3,0-0.6,0.1-0.8,0.2c-0.2,0.1-0.3,0.4-0.3,0.6c0,0.2,0.1,0.3,0.2,0.4c0.1,0.1,0.2,0.2,0.4,0.4c0.2,0.1,0.3,0.2,0.5,0.3
			c0.2,0.1,0.4,0.2,0.5,0.4c0.2,0.1,0.3,0.3,0.4,0.5c0.1,0.2,0.2,0.4,0.2,0.7c0,0.6-0.2,1.1-0.6,1.4s-1,0.5-1.7,0.5
			c-0.4,0-0.7,0-1-0.1c-0.3-0.1-0.5-0.2-0.7-0.3l0.3-0.8c0.2,0.1,0.4,0.2,0.6,0.3c0.3,0.1,0.5,0.1,0.8,0.1c0.4,0,0.7-0.1,0.9-0.3
			C270.6,54,270.8,53.7,270.8,53.4z"/>
	</g>
	<g class="st0">
		<path class="st1" d="M276.8,54.5c-0.1,0.1-0.3,0.2-0.4,0.3c-0.2,0.1-0.3,0.1-0.5,0.2s-0.3,0.1-0.5,0.1s-0.3,0-0.5,0
			c-0.4,0-0.7-0.1-1-0.2s-0.5-0.3-0.6-0.5c-0.1-0.2-0.2-0.4-0.3-0.6c-0.1-0.2-0.1-0.4-0.1-0.6c0-0.7,0.1-1.3,0.3-1.8
			c0.2-0.5,0.4-1,0.7-1.4c0.3-0.4,0.7-0.7,1.1-0.9c0.4-0.2,0.8-0.3,1.2-0.3c0.3,0,0.6,0,0.8,0.1c0.2,0.1,0.4,0.1,0.5,0.2l-0.3,0.7
			c-0.1-0.1-0.3-0.1-0.5-0.2c-0.2,0-0.4-0.1-0.6-0.1c-0.3,0-0.5,0.1-0.8,0.3c-0.3,0.2-0.5,0.4-0.7,0.7c-0.2,0.3-0.4,0.6-0.5,1
			s-0.2,0.8-0.2,1.2c0,0.5,0.1,0.9,0.3,1.2c0.2,0.2,0.5,0.4,0.9,0.4c0.2,0,0.5-0.1,0.8-0.2c0.3-0.1,0.5-0.2,0.6-0.3L276.8,54.5z"/>
	</g>
	<g class="st0">
		<path class="st1" d="M282.1,52.7c-0.1,0.3-0.1,0.6-0.1,0.9c0,0.3,0,0.6,0,0.9c0,0.1,0,0.2,0,0.3c0,0.1,0,0.2,0,0.3h-0.7l-0.2-1h0
			c-0.1,0.1-0.2,0.3-0.4,0.4c-0.1,0.1-0.3,0.3-0.5,0.4c-0.2,0.1-0.3,0.2-0.5,0.3c-0.2,0.1-0.4,0.1-0.6,0.1c-1,0-1.4-0.6-1.4-1.9
			c0-0.5,0.1-1,0.2-1.6c0.1-0.5,0.3-1,0.6-1.4s0.6-0.8,1.1-1c0.4-0.3,1-0.4,1.6-0.4c0.2,0,0.5,0,0.8,0.1c0.3,0.1,0.6,0.1,0.9,0.2
			L282.1,52.7z M279.4,54.4c0.2,0,0.4,0,0.6-0.1s0.3-0.2,0.5-0.3c0.2-0.1,0.3-0.3,0.4-0.4s0.2-0.3,0.3-0.4l0.7-3.2
			c-0.2-0.1-0.5-0.2-0.9-0.2s-0.7,0.1-1,0.3c-0.3,0.2-0.5,0.5-0.7,0.8c-0.2,0.3-0.3,0.7-0.4,1.2c-0.1,0.4-0.1,0.9-0.1,1.3
			c0,0.3,0.1,0.6,0.2,0.8C278.9,54.3,279.1,54.4,279.4,54.4z"/>
		<path class="st1" d="M284.6,53.6c0,0.1,0,0.2,0,0.3c0,0.2,0,0.3,0.1,0.3c0.1,0.1,0.1,0.1,0.2,0.1c0.2,0,0.3,0,0.4,0
			c0.1,0,0.2-0.1,0.4-0.1v0.7c-0.1,0-0.2,0.1-0.3,0.1c-0.1,0-0.2,0-0.3,0.1c-0.1,0-0.2,0-0.3,0c-0.1,0-0.2,0-0.3,0
			c-0.3,0-0.5-0.1-0.7-0.2s-0.3-0.4-0.3-0.7c0-0.2,0-0.4,0.1-0.6l1.5-7h0.9L284.6,53.6z"/>
		<path class="st1" d="M290.9,54.5c-0.3,0.2-0.6,0.4-1,0.5s-0.8,0.2-1.1,0.2c-0.6,0-1.1-0.2-1.4-0.6c-0.3-0.4-0.5-0.9-0.5-1.5
			c0-0.7,0.1-1.2,0.3-1.8c0.2-0.5,0.4-1,0.7-1.3c0.3-0.4,0.6-0.6,1-0.8c0.4-0.2,0.8-0.3,1.2-0.3c0.3,0,0.5,0,0.8,0.1
			c0.2,0.1,0.4,0.2,0.5,0.3s0.2,0.3,0.3,0.5c0.1,0.2,0.1,0.4,0.1,0.5c0,0.6-0.3,1-0.8,1.3s-1.4,0.5-2.4,0.5c-0.1,0-0.2,0-0.3,0
			c-0.1,0-0.2,0-0.3,0c0,0.2-0.1,0.3-0.1,0.4c0,0.1,0,0.3,0,0.4c0,0.4,0.1,0.8,0.3,1.1s0.5,0.4,0.9,0.4c0.4,0,0.7-0.1,1-0.2
			c0.3-0.1,0.5-0.2,0.7-0.4L290.9,54.5z M289.9,49.7c-0.4,0-0.8,0.2-1.1,0.5s-0.6,0.8-0.7,1.3c0.3,0,0.6,0,0.9,0
			c0.3,0,0.6-0.1,0.9-0.1c0.3-0.1,0.5-0.2,0.7-0.3c0.2-0.1,0.3-0.4,0.3-0.6c0-0.1,0-0.2,0-0.2c0-0.1-0.1-0.2-0.1-0.2
			c-0.1-0.1-0.2-0.1-0.3-0.2C290.2,49.7,290,49.7,289.9,49.7z"/>
		<path class="st1" d="M294.9,53.4c0-0.2-0.1-0.4-0.2-0.5c-0.1-0.1-0.2-0.3-0.4-0.4s-0.3-0.2-0.5-0.3c-0.2-0.1-0.4-0.2-0.5-0.4
			s-0.3-0.3-0.4-0.5c-0.1-0.2-0.2-0.4-0.2-0.7c0-0.2,0.1-0.4,0.2-0.6s0.3-0.4,0.4-0.5c0.2-0.1,0.4-0.3,0.7-0.3
			c0.3-0.1,0.5-0.1,0.8-0.1c0.4,0,0.8,0,1,0.1c0.2,0.1,0.4,0.1,0.6,0.2l-0.3,0.7c-0.3-0.2-0.8-0.3-1.3-0.3c-0.3,0-0.6,0.1-0.8,0.2
			s-0.3,0.4-0.3,0.6c0,0.2,0.1,0.3,0.2,0.4c0.1,0.1,0.2,0.2,0.4,0.4c0.2,0.1,0.3,0.2,0.5,0.3c0.2,0.1,0.4,0.2,0.5,0.4
			c0.2,0.1,0.3,0.3,0.4,0.5c0.1,0.2,0.2,0.4,0.2,0.7c0,0.6-0.2,1.1-0.6,1.4s-1,0.5-1.7,0.5c-0.4,0-0.7,0-1-0.1s-0.5-0.2-0.7-0.3
			l0.3-0.8c0.2,0.1,0.4,0.2,0.6,0.3c0.3,0.1,0.5,0.1,0.8,0.1c0.4,0,0.7-0.1,0.9-0.3C294.7,54,294.9,53.7,294.9,53.4z"/>
	</g>
	<g class="st0">
		<path class="st1" d="M304.6,49.1l0.6,3.5l0,1.2h0l0.5-1.2l1.8-3.5h0.9l-3.2,6.1h-0.5l-0.6-4l0-1h0l-0.4,1l-2.3,3.9h-0.4l-0.7-6.1
			h0.9l0.4,3.5l0,1.2h0l0.5-1.2l2-3.5H304.6z"/>
	</g>
	<g class="st0">
		<path class="st1" d="M312.4,54.5c-0.3,0.2-0.6,0.4-1,0.5s-0.8,0.2-1.1,0.2c-0.6,0-1.1-0.2-1.4-0.6c-0.3-0.4-0.5-0.9-0.5-1.5
			c0-0.7,0.1-1.2,0.3-1.8c0.2-0.5,0.4-1,0.7-1.3c0.3-0.4,0.6-0.6,1-0.8c0.4-0.2,0.8-0.3,1.2-0.3c0.3,0,0.5,0,0.8,0.1
			c0.2,0.1,0.4,0.2,0.5,0.3c0.1,0.1,0.2,0.3,0.3,0.5s0.1,0.4,0.1,0.5c0,0.6-0.3,1-0.8,1.3c-0.6,0.3-1.4,0.5-2.4,0.5
			c-0.1,0-0.2,0-0.3,0c-0.1,0-0.2,0-0.3,0c0,0.2-0.1,0.3-0.1,0.4c0,0.1,0,0.3,0,0.4c0,0.4,0.1,0.8,0.3,1.1c0.2,0.3,0.5,0.4,0.9,0.4
			c0.4,0,0.7-0.1,1-0.2c0.3-0.1,0.5-0.2,0.7-0.4L312.4,54.5z M311.3,49.7c-0.4,0-0.8,0.2-1.1,0.5c-0.3,0.3-0.6,0.8-0.7,1.3
			c0.3,0,0.6,0,0.9,0c0.3,0,0.6-0.1,0.9-0.1c0.3-0.1,0.5-0.2,0.7-0.3c0.2-0.1,0.3-0.4,0.3-0.6c0-0.1,0-0.2,0-0.2
			c0-0.1-0.1-0.2-0.1-0.2c-0.1-0.1-0.2-0.1-0.3-0.2C311.7,49.7,311.5,49.7,311.3,49.7z"/>
		<path class="st1" d="M314.8,53.6c0,0.1,0,0.2,0,0.3c0,0.2,0,0.3,0.1,0.3c0.1,0.1,0.1,0.1,0.2,0.1c0.2,0,0.3,0,0.4,0
			c0.1,0,0.2-0.1,0.4-0.1v0.7c-0.1,0-0.2,0.1-0.3,0.1c-0.1,0-0.2,0-0.3,0.1s-0.2,0-0.3,0s-0.2,0-0.3,0c-0.3,0-0.5-0.1-0.7-0.2
			s-0.3-0.4-0.3-0.7c0-0.2,0-0.4,0.1-0.6l1.5-7h0.9L314.8,53.6z"/>
		<path class="st1" d="M318.1,53.6c0,0.1,0,0.2,0,0.3c0,0.2,0,0.3,0.1,0.3c0.1,0.1,0.1,0.1,0.2,0.1c0.2,0,0.3,0,0.4,0
			c0.1,0,0.2-0.1,0.4-0.1v0.7c-0.1,0-0.2,0.1-0.3,0.1c-0.1,0-0.2,0-0.3,0.1c-0.1,0-0.2,0-0.3,0c-0.1,0-0.2,0-0.3,0
			c-0.3,0-0.5-0.1-0.7-0.2s-0.3-0.4-0.3-0.7c0-0.2,0-0.4,0.1-0.6l1.5-7h0.9L318.1,53.6z"/>
	</g>
	<g class="st0">
		<path class="st1" d="M211,67.1c-0.1,0.3-0.1,0.6-0.1,0.9c0,0.3,0,0.6,0,0.9c0,0.1,0,0.2,0,0.3c0,0.1,0,0.2,0,0.3h-0.7l-0.2-1h0
			c-0.1,0.1-0.2,0.3-0.4,0.4c-0.1,0.1-0.3,0.3-0.5,0.4c-0.2,0.1-0.3,0.2-0.5,0.3c-0.2,0.1-0.4,0.1-0.6,0.1c-1,0-1.4-0.6-1.4-1.9
			c0-0.5,0.1-1,0.2-1.6c0.1-0.5,0.3-1,0.6-1.4s0.6-0.8,1.1-1c0.4-0.3,1-0.4,1.6-0.4c0.2,0,0.5,0,0.8,0.1c0.3,0.1,0.6,0.1,0.9,0.2
			L211,67.1z M208.3,68.8c0.2,0,0.4,0,0.6-0.1s0.3-0.2,0.5-0.3c0.2-0.1,0.3-0.3,0.4-0.4c0.1-0.2,0.2-0.3,0.3-0.4l0.7-3.2
			c-0.2-0.1-0.5-0.2-0.9-0.2c-0.4,0-0.7,0.1-1,0.3c-0.3,0.2-0.5,0.5-0.7,0.8c-0.2,0.3-0.3,0.7-0.4,1.2c-0.1,0.4-0.1,0.9-0.1,1.3
			c0,0.3,0.1,0.6,0.2,0.8C207.8,68.7,208,68.8,208.3,68.8z"/>
		<path class="st1" d="M216.2,68.9c-0.1,0.1-0.3,0.2-0.4,0.3s-0.3,0.1-0.5,0.2s-0.3,0.1-0.5,0.1s-0.3,0-0.5,0c-0.4,0-0.7-0.1-1-0.2
			s-0.4-0.3-0.6-0.5c-0.1-0.2-0.2-0.4-0.3-0.6c-0.1-0.2-0.1-0.4-0.1-0.6c0-0.7,0.1-1.3,0.3-1.8c0.2-0.5,0.4-1,0.7-1.4
			c0.3-0.4,0.7-0.7,1.1-0.9c0.4-0.2,0.8-0.3,1.2-0.3c0.3,0,0.6,0,0.8,0.1c0.2,0.1,0.4,0.1,0.5,0.2l-0.3,0.7
			c-0.1-0.1-0.3-0.1-0.5-0.2s-0.4-0.1-0.6-0.1c-0.3,0-0.5,0.1-0.8,0.3c-0.3,0.2-0.5,0.4-0.7,0.7c-0.2,0.3-0.4,0.6-0.5,1
			c-0.1,0.4-0.2,0.8-0.2,1.2c0,0.5,0.1,0.9,0.3,1.2c0.2,0.2,0.5,0.4,0.9,0.4c0.2,0,0.5-0.1,0.8-0.2c0.3-0.1,0.5-0.2,0.6-0.3
			L216.2,68.9z"/>
		<path class="st1" d="M221.2,64.3c-0.1,0-0.1,0-0.2,0s-0.1,0-0.2,0c-0.4,0-0.8,0.1-1.1,0.4s-0.5,0.6-0.7,0.9l-0.8,3.9h-0.9l1.3-6
			h0.6v1h0c0.1-0.2,0.2-0.3,0.3-0.4c0.1-0.1,0.2-0.3,0.4-0.4c0.1-0.1,0.3-0.2,0.4-0.2c0.2-0.1,0.3-0.1,0.5-0.1c0.2,0,0.4,0,0.6,0.1
			L221.2,64.3z"/>
		<path class="st1" d="M221.4,67.6c0-0.6,0.1-1.2,0.2-1.7c0.2-0.5,0.4-1,0.7-1.3c0.3-0.4,0.6-0.7,1-0.9c0.4-0.2,0.8-0.3,1.2-0.3
			c0.3,0,0.6,0.1,0.9,0.2c0.2,0.1,0.4,0.3,0.6,0.4c0.1,0.2,0.3,0.4,0.3,0.6s0.1,0.5,0.1,0.8c0,0.6-0.1,1.2-0.2,1.7
			c-0.2,0.5-0.4,1-0.6,1.4s-0.6,0.7-1,0.9c-0.4,0.2-0.8,0.3-1.2,0.3c-0.4,0-0.7-0.1-0.9-0.2c-0.2-0.1-0.4-0.3-0.6-0.5
			c-0.2-0.2-0.3-0.4-0.3-0.6C221.5,68.1,221.4,67.8,221.4,67.6z M222.4,67.4c0,0.5,0.1,0.8,0.3,1.1s0.5,0.4,0.8,0.4
			c0.3,0,0.5-0.1,0.8-0.3c0.2-0.2,0.4-0.4,0.6-0.8c0.2-0.3,0.3-0.7,0.4-1.1c0.1-0.4,0.2-0.8,0.2-1.3c0-0.4-0.1-0.7-0.2-1
			c-0.1-0.2-0.4-0.4-0.8-0.4c-0.3,0-0.5,0.1-0.8,0.3c-0.2,0.2-0.5,0.4-0.6,0.7s-0.3,0.7-0.4,1C222.4,66.5,222.4,66.9,222.4,67.4z"/>
		<path class="st1" d="M229.9,67.8c0-0.2-0.1-0.4-0.2-0.5c-0.1-0.1-0.2-0.3-0.4-0.4s-0.3-0.2-0.5-0.3c-0.2-0.1-0.4-0.2-0.5-0.4
			s-0.3-0.3-0.4-0.5s-0.2-0.4-0.2-0.7c0-0.2,0.1-0.4,0.2-0.6c0.1-0.2,0.3-0.4,0.4-0.5s0.4-0.3,0.7-0.3c0.3-0.1,0.5-0.1,0.8-0.1
			c0.4,0,0.8,0,1,0.1c0.2,0.1,0.4,0.1,0.6,0.2l-0.3,0.7c-0.3-0.2-0.8-0.3-1.3-0.3c-0.3,0-0.6,0.1-0.8,0.2c-0.2,0.1-0.3,0.4-0.3,0.6
			c0,0.2,0.1,0.3,0.2,0.4s0.2,0.2,0.4,0.4c0.2,0.1,0.3,0.2,0.5,0.3c0.2,0.1,0.4,0.2,0.5,0.4c0.2,0.1,0.3,0.3,0.4,0.5
			s0.2,0.4,0.2,0.7c0,0.6-0.2,1.1-0.6,1.4s-1,0.5-1.7,0.5c-0.4,0-0.7,0-1-0.1c-0.3-0.1-0.5-0.2-0.7-0.3l0.3-0.8
			c0.2,0.1,0.4,0.2,0.6,0.3c0.3,0.1,0.5,0.1,0.8,0.1c0.4,0,0.7-0.1,0.9-0.3C229.8,68.4,229.9,68.1,229.9,67.8z"/>
		<path class="st1" d="M234.7,67.8c0-0.2-0.1-0.4-0.2-0.5c-0.1-0.1-0.2-0.3-0.4-0.4c-0.2-0.1-0.3-0.2-0.5-0.3
			c-0.2-0.1-0.4-0.2-0.5-0.4s-0.3-0.3-0.4-0.5c-0.1-0.2-0.2-0.4-0.2-0.7c0-0.2,0.1-0.4,0.2-0.6c0.1-0.2,0.3-0.4,0.4-0.5
			c0.2-0.1,0.4-0.3,0.7-0.3c0.3-0.1,0.5-0.1,0.8-0.1c0.4,0,0.8,0,1,0.1c0.2,0.1,0.4,0.1,0.6,0.2l-0.3,0.7c-0.3-0.2-0.8-0.3-1.3-0.3
			c-0.3,0-0.6,0.1-0.8,0.2c-0.2,0.1-0.3,0.4-0.3,0.6c0,0.2,0.1,0.3,0.2,0.4c0.1,0.1,0.2,0.2,0.4,0.4c0.2,0.1,0.3,0.2,0.5,0.3
			c0.2,0.1,0.4,0.2,0.5,0.4c0.2,0.1,0.3,0.3,0.4,0.5c0.1,0.2,0.2,0.4,0.2,0.7c0,0.6-0.2,1.1-0.6,1.4s-1,0.5-1.7,0.5
			c-0.4,0-0.7,0-1-0.1c-0.3-0.1-0.5-0.2-0.7-0.3l0.3-0.8c0.2,0.1,0.4,0.2,0.6,0.3c0.3,0.1,0.5,0.1,0.8,0.1c0.4,0,0.7-0.1,0.9-0.3
			C234.6,68.4,234.7,68.1,234.7,67.8z"/>
		<path class="st1" d="M243.2,69.5l0.7-3.4c0.1-0.3,0.1-0.5,0.1-0.7c0-0.2,0-0.4,0-0.6c0-0.2,0-0.4-0.1-0.5s-0.2-0.2-0.4-0.2
			c-0.2,0-0.4,0.1-0.6,0.2c-0.2,0.1-0.4,0.2-0.5,0.4s-0.3,0.3-0.5,0.5c-0.1,0.2-0.3,0.3-0.3,0.5l-0.8,3.9H240l1.3-6h0.6l-0.1,1h0
			c0.1-0.1,0.3-0.3,0.4-0.4c0.1-0.1,0.3-0.3,0.5-0.4s0.4-0.2,0.6-0.3c0.2-0.1,0.4-0.1,0.7-0.1c0.4,0,0.6,0.1,0.7,0.3
			c0.1,0.2,0.2,0.5,0.2,0.9c0.1-0.2,0.3-0.3,0.4-0.5c0.2-0.2,0.3-0.3,0.5-0.4c0.2-0.1,0.4-0.2,0.6-0.3c0.2-0.1,0.4-0.1,0.6-0.1
			c0.4,0,0.6,0.1,0.8,0.3c0.2,0.2,0.3,0.5,0.3,1c0,0.3-0.1,0.8-0.2,1.3l-0.8,3.6h-0.9l0.8-3.6c0-0.2,0.1-0.4,0.1-0.6
			c0-0.2,0-0.3,0-0.5c0-0.2,0-0.4-0.1-0.5s-0.2-0.2-0.4-0.2c-0.2,0-0.3,0.1-0.5,0.2c-0.2,0.1-0.4,0.2-0.5,0.4
			c-0.2,0.2-0.3,0.3-0.5,0.5s-0.3,0.4-0.3,0.5l-0.8,3.8H243.2z"/>
		<path class="st1" d="M251.3,63.5l-0.8,4c0,0.2-0.1,0.4-0.1,0.6c0,0.2,0,0.4,0.1,0.6c0.1,0.1,0.2,0.2,0.5,0.2c0.2,0,0.4,0,0.6-0.1
			c0.2-0.1,0.4-0.2,0.6-0.4c0.2-0.2,0.3-0.3,0.5-0.5c0.1-0.2,0.3-0.4,0.4-0.5l0.8-3.8h0.9l-0.8,3.6c0,0.1-0.1,0.3-0.1,0.5
			c0,0.2-0.1,0.4-0.1,0.6c0,0.2,0,0.4-0.1,0.6c0,0.2,0,0.4,0,0.5v0.2h-0.7v-1.1h0c-0.1,0.2-0.3,0.3-0.4,0.5
			c-0.2,0.2-0.3,0.3-0.5,0.4c-0.2,0.1-0.4,0.2-0.6,0.3c-0.2,0.1-0.4,0.1-0.7,0.1c-0.2,0-0.3,0-0.5-0.1s-0.3-0.1-0.4-0.2
			c-0.1-0.1-0.2-0.2-0.3-0.4c-0.1-0.2-0.1-0.4-0.1-0.6c0-0.3,0-0.6,0.1-0.9l0.8-3.9H251.3z"/>
		<path class="st1" d="M256.4,68c0,0.1,0,0.2,0,0.3c0,0.2,0,0.3,0.1,0.3c0.1,0.1,0.1,0.1,0.2,0.1c0.2,0,0.3,0,0.4,0
			c0.1,0,0.2-0.1,0.4-0.1v0.7c-0.1,0-0.2,0.1-0.3,0.1c-0.1,0-0.2,0-0.3,0.1c-0.1,0-0.2,0-0.3,0c-0.1,0-0.2,0-0.3,0
			c-0.3,0-0.5-0.1-0.7-0.2s-0.3-0.4-0.3-0.7c0-0.2,0-0.4,0.1-0.6l1.5-7h0.9L256.4,68z"/>
		<path class="st1" d="M258.9,63.5h0.9l0.3-1.2l1-0.3l-0.3,1.5h1.6l-0.2,0.8h-1.6l-0.8,3.6c0,0.1,0,0.2,0,0.3s0,0.2,0,0.2
			c0,0.2,0,0.3,0.1,0.4c0.1,0.1,0.2,0.1,0.4,0.1c0.2,0,0.4,0,0.5-0.1s0.3-0.1,0.5-0.2v0.7c-0.2,0.1-0.4,0.2-0.6,0.2
			c-0.3,0.1-0.5,0.1-0.8,0.1c-0.7,0-1.1-0.3-1.1-1c0-0.1,0-0.3,0.1-0.5l0.8-3.9h-0.9L258.9,63.5z"/>
		<path class="st1" d="M263.8,63.5h0.9l-1.3,6h-0.9L263.8,63.5z M264,61.6c0-0.2,0.1-0.3,0.2-0.5c0.1-0.1,0.3-0.2,0.5-0.2
			c0.2,0,0.3,0.1,0.5,0.2s0.2,0.3,0.2,0.5s-0.1,0.3-0.2,0.5s-0.3,0.2-0.5,0.2c-0.2,0-0.3-0.1-0.5-0.2C264,62,264,61.8,264,61.6z"/>
		<path class="st1" d="M266.7,63.5h0.6l-0.1,1h0c0.1-0.1,0.2-0.3,0.4-0.4c0.1-0.1,0.3-0.3,0.5-0.4c0.2-0.1,0.4-0.2,0.6-0.3
			s0.4-0.1,0.6-0.1c0.2,0,0.4,0,0.5,0.1c0.2,0.1,0.3,0.2,0.4,0.3s0.2,0.3,0.3,0.6c0.1,0.2,0.1,0.5,0.1,0.9c0,0.7-0.1,1.3-0.3,1.9
			c-0.2,0.6-0.4,1-0.8,1.4c-0.3,0.4-0.7,0.7-1.1,0.9s-0.8,0.3-1.2,0.3c-0.3,0-0.5,0-0.7-0.1c-0.2-0.1-0.4-0.1-0.4-0.2l-0.5,2.5h-0.9
			L266.7,63.5z M269,64.1c-0.2,0-0.4,0.1-0.6,0.2c-0.2,0.1-0.4,0.3-0.5,0.4c-0.2,0.2-0.3,0.3-0.4,0.5c-0.1,0.2-0.2,0.4-0.3,0.5
			l-0.6,2.8c0.1,0.1,0.3,0.2,0.4,0.2c0.1,0,0.3,0.1,0.5,0.1c0.3,0,0.6-0.1,0.9-0.3c0.3-0.2,0.5-0.4,0.8-0.7c0.2-0.3,0.4-0.7,0.5-1.2
			c0.1-0.4,0.2-0.9,0.2-1.5c0-0.3-0.1-0.6-0.2-0.8C269.4,64.2,269.3,64.1,269,64.1z"/>
		<path class="st1" d="M272.6,68c0,0.1,0,0.2,0,0.3c0,0.2,0,0.3,0.1,0.3c0.1,0.1,0.1,0.1,0.2,0.1c0.2,0,0.3,0,0.4,0
			c0.1,0,0.2-0.1,0.4-0.1v0.7c-0.1,0-0.2,0.1-0.3,0.1c-0.1,0-0.2,0-0.3,0.1s-0.2,0-0.3,0s-0.2,0-0.3,0c-0.3,0-0.5-0.1-0.7-0.2
			s-0.3-0.4-0.3-0.7c0-0.2,0-0.4,0.1-0.6l1.5-7h0.9L272.6,68z"/>
		<path class="st1" d="M279,68.9c-0.3,0.2-0.6,0.4-1,0.5c-0.4,0.1-0.8,0.2-1.1,0.2c-0.6,0-1.1-0.2-1.4-0.6c-0.3-0.4-0.5-0.9-0.5-1.5
			c0-0.7,0.1-1.2,0.3-1.8c0.2-0.5,0.4-1,0.7-1.3c0.3-0.4,0.6-0.6,1-0.8c0.4-0.2,0.8-0.3,1.2-0.3c0.3,0,0.5,0,0.8,0.1
			c0.2,0.1,0.4,0.2,0.5,0.3s0.2,0.3,0.3,0.5s0.1,0.4,0.1,0.5c0,0.6-0.3,1-0.8,1.3c-0.6,0.3-1.4,0.5-2.4,0.5c-0.1,0-0.2,0-0.3,0
			c-0.1,0-0.2,0-0.3,0c0,0.2-0.1,0.3-0.1,0.4c0,0.1,0,0.3,0,0.4c0,0.4,0.1,0.8,0.3,1.1c0.2,0.3,0.5,0.4,0.9,0.4c0.4,0,0.7-0.1,1-0.2
			c0.3-0.1,0.5-0.2,0.7-0.4L279,68.9z M277.9,64.1c-0.4,0-0.8,0.2-1.1,0.5s-0.6,0.8-0.7,1.3c0.3,0,0.6,0,0.9,0
			c0.3,0,0.6-0.1,0.9-0.1c0.3-0.1,0.5-0.2,0.7-0.3c0.2-0.1,0.3-0.4,0.3-0.6c0-0.1,0-0.2,0-0.2c0-0.1-0.1-0.2-0.1-0.2
			c-0.1-0.1-0.2-0.1-0.3-0.2C278.3,64.1,278.1,64.1,277.9,64.1z"/>
	</g>
	<g class="st0">
		<path class="st1" d="M287.4,68.9c-0.1,0.1-0.3,0.2-0.4,0.3c-0.2,0.1-0.3,0.1-0.5,0.2s-0.3,0.1-0.5,0.1s-0.3,0-0.5,0
			c-0.4,0-0.7-0.1-1-0.2s-0.5-0.3-0.6-0.5c-0.1-0.2-0.2-0.4-0.3-0.6c-0.1-0.2-0.1-0.4-0.1-0.6c0-0.7,0.1-1.3,0.3-1.8
			c0.2-0.5,0.4-1,0.7-1.4c0.3-0.4,0.7-0.7,1.1-0.9c0.4-0.2,0.8-0.3,1.2-0.3c0.3,0,0.6,0,0.8,0.1c0.2,0.1,0.4,0.1,0.5,0.2l-0.3,0.7
			c-0.1-0.1-0.3-0.1-0.5-0.2c-0.2,0-0.4-0.1-0.6-0.1c-0.3,0-0.5,0.1-0.8,0.3c-0.3,0.2-0.5,0.4-0.7,0.7c-0.2,0.3-0.4,0.6-0.5,1
			s-0.2,0.8-0.2,1.2c0,0.5,0.1,0.9,0.3,1.2c0.2,0.2,0.5,0.4,0.9,0.4c0.2,0,0.5-0.1,0.8-0.2c0.3-0.1,0.5-0.2,0.6-0.3L287.4,68.9z"/>
	</g>
	<g class="st0">
		<path class="st1" d="M288.3,67.6c0-0.6,0.1-1.2,0.2-1.7c0.2-0.5,0.4-1,0.7-1.3s0.6-0.7,1-0.9s0.8-0.3,1.2-0.3
			c0.3,0,0.6,0.1,0.9,0.2c0.2,0.1,0.4,0.3,0.6,0.4c0.1,0.2,0.3,0.4,0.3,0.6c0.1,0.2,0.1,0.5,0.1,0.8c0,0.6-0.1,1.2-0.2,1.7
			c-0.2,0.5-0.4,1-0.6,1.4c-0.3,0.4-0.6,0.7-1,0.9c-0.4,0.2-0.8,0.3-1.2,0.3c-0.4,0-0.7-0.1-0.9-0.2c-0.2-0.1-0.4-0.3-0.6-0.5
			c-0.2-0.2-0.3-0.4-0.3-0.6C288.4,68.1,288.3,67.8,288.3,67.6z M289.3,67.4c0,0.5,0.1,0.8,0.3,1.1c0.2,0.3,0.5,0.4,0.8,0.4
			c0.3,0,0.5-0.1,0.8-0.3c0.2-0.2,0.4-0.4,0.6-0.8c0.2-0.3,0.3-0.7,0.4-1.1s0.2-0.8,0.2-1.3c0-0.4-0.1-0.7-0.2-1
			c-0.1-0.2-0.4-0.4-0.8-0.4c-0.3,0-0.5,0.1-0.8,0.3c-0.2,0.2-0.5,0.4-0.6,0.7c-0.2,0.3-0.3,0.7-0.4,1
			C289.4,66.5,289.3,66.9,289.3,67.4z"/>
		<path class="st1" d="M298.1,64.3c-0.1,0-0.1,0-0.2,0c-0.1,0-0.1,0-0.2,0c-0.4,0-0.8,0.1-1.1,0.4s-0.5,0.6-0.7,0.9l-0.8,3.9h-0.9
			l1.3-6h0.6v1h0c0.1-0.2,0.2-0.3,0.3-0.4c0.1-0.1,0.2-0.3,0.4-0.4c0.1-0.1,0.3-0.2,0.4-0.2c0.2-0.1,0.3-0.1,0.5-0.1
			c0.2,0,0.4,0,0.6,0.1L298.1,64.3z"/>
		<path class="st1" d="M302.3,68.9c-0.3,0.2-0.6,0.4-1,0.5c-0.4,0.1-0.8,0.2-1.1,0.2c-0.6,0-1.1-0.2-1.4-0.6
			c-0.3-0.4-0.5-0.9-0.5-1.5c0-0.7,0.1-1.2,0.3-1.8c0.2-0.5,0.4-1,0.7-1.3c0.3-0.4,0.6-0.6,1-0.8c0.4-0.2,0.8-0.3,1.2-0.3
			c0.3,0,0.5,0,0.8,0.1c0.2,0.1,0.4,0.2,0.5,0.3c0.1,0.1,0.2,0.3,0.3,0.5c0.1,0.2,0.1,0.4,0.1,0.5c0,0.6-0.3,1-0.8,1.3
			c-0.6,0.3-1.4,0.5-2.4,0.5c-0.1,0-0.2,0-0.3,0c-0.1,0-0.2,0-0.3,0c0,0.2-0.1,0.3-0.1,0.4c0,0.1,0,0.3,0,0.4c0,0.4,0.1,0.8,0.3,1.1
			c0.2,0.3,0.5,0.4,0.9,0.4c0.4,0,0.7-0.1,1-0.2s0.5-0.2,0.7-0.4L302.3,68.9z M301.3,64.1c-0.4,0-0.8,0.2-1.1,0.5
			c-0.3,0.3-0.6,0.8-0.7,1.3c0.3,0,0.6,0,0.9,0c0.3,0,0.6-0.1,0.9-0.1c0.3-0.1,0.5-0.2,0.7-0.3c0.2-0.1,0.3-0.4,0.3-0.6
			c0-0.1,0-0.2,0-0.2s-0.1-0.2-0.1-0.2c-0.1-0.1-0.2-0.1-0.3-0.2S301.5,64.1,301.3,64.1z"/>
		<path class="st1" d="M306.3,67.8c0-0.2-0.1-0.4-0.2-0.5c-0.1-0.1-0.2-0.3-0.4-0.4c-0.2-0.1-0.3-0.2-0.5-0.3
			c-0.2-0.1-0.4-0.2-0.5-0.4s-0.3-0.3-0.4-0.5c-0.1-0.2-0.2-0.4-0.2-0.7c0-0.2,0.1-0.4,0.2-0.6c0.1-0.2,0.3-0.4,0.4-0.5
			c0.2-0.1,0.4-0.3,0.7-0.3c0.3-0.1,0.5-0.1,0.8-0.1c0.4,0,0.8,0,1,0.1c0.2,0.1,0.4,0.1,0.6,0.2l-0.3,0.7c-0.3-0.2-0.8-0.3-1.3-0.3
			c-0.3,0-0.6,0.1-0.8,0.2c-0.2,0.1-0.3,0.4-0.3,0.6c0,0.2,0.1,0.3,0.2,0.4c0.1,0.1,0.2,0.2,0.4,0.4c0.2,0.1,0.3,0.2,0.5,0.3
			c0.2,0.1,0.4,0.2,0.5,0.4c0.2,0.1,0.3,0.3,0.4,0.5c0.1,0.2,0.2,0.4,0.2,0.7c0,0.6-0.2,1.1-0.6,1.4s-1,0.5-1.7,0.5
			c-0.4,0-0.7,0-1-0.1c-0.3-0.1-0.5-0.2-0.7-0.3l0.3-0.8c0.2,0.1,0.4,0.2,0.6,0.3c0.3,0.1,0.5,0.1,0.8,0.1c0.4,0,0.7-0.1,0.9-0.3
			C306.2,68.4,306.3,68.1,306.3,67.8z"/>
	</g>
</g>
<g id="Ebene_4">
	<g class="st5">
		<path class="st6" d="M46.6,202.9h114.2c2.8,0,5,2.2,5,5v37.9c0,2.8-2.2,5-5,5H46.6c-2.8,0-5-2.2-5-5v-37.9
			C41.6,205.1,43.8,202.9,46.6,202.9z"/>
	</g>
	<g id="Scone_logo_black">
		<g>
			<defs>
				<rect id="SVGID_1_" x="206" y="44.6" width="54.8" height="10.7"/>
			</defs>
			<clipPath id="SVGID_2_">
				<use xlink:href="#SVGID_1_"  style="overflow:visible;"/>
			</clipPath>
			<g class="st7">
				<g>
					<defs>
						<rect id="SVGID_3_" x="206" y="44.6" width="54.8" height="10.7"/>
					</defs>
					<clipPath id="SVGID_4_">
						<use xlink:href="#SVGID_3_"  style="overflow:visible;"/>
					</clipPath>
					<g class="st8">
						<path class="st9" d="M213.3,47.3h-1.1c-0.2,0-0.4,0.2-0.4,0.4l0,0v1.2c0,0.2,0.2,0.4,0.4,0.4l0,0h1.1c0.2,0,0.4-0.2,0.4-0.4
							l0,0v-1.2C213.7,47.5,213.5,47.3,213.3,47.3L213.3,47.3 M209.3,49.3h1.1c0.2,0,0.4-0.2,0.4-0.4l0,0v-1.2
							c0-0.2-0.2-0.4-0.4-0.4l0,0h-1.1c-0.2,0-0.4,0.2-0.4,0.4l0,0v1.2C208.8,49.1,209,49.3,209.3,49.3L209.3,49.3 M208,48.9v-1.2
							c0-0.2-0.2-0.4-0.4-0.4l0,0h-1.1c-0.2,0-0.4,0.2-0.4,0.4l0,0v1.2c0,0.2,0.2,0.4,0.4,0.4l0,0h1.1C207.9,49.3,208,49.1,208,48.9
							L208,48.9 M213.4,50.2c-0.2,0-0.3,0.1-0.3,0.3v0v1.4c0,0.2,0.1,0.3,0.3,0.3l0,0c0.2,0,0.3-0.1,0.3-0.3v-1.4
							C213.7,50.3,213.6,50.2,213.4,50.2C213.4,50.2,213.4,50.2,213.4,50.2 M210.2,50.6v1.2c0,0.2,0.2,0.4,0.4,0.4l0,0h1.1
							c0.2,0,0.4-0.2,0.4-0.4l0,0v-1.2c0-0.2-0.2-0.4-0.4-0.4l0,0h-1.1C210.4,50.2,210.2,50.4,210.2,50.6L210.2,50.6 M209.4,51.8
							v-1.2c0-0.2-0.2-0.4-0.4-0.4l0,0h-1.1c-0.2,0-0.4,0.2-0.4,0.4l0,0v1.2c0,0.2,0.2,0.4,0.4,0.4l0,0h1.2
							C209.2,52.2,209.4,52,209.4,51.8L209.4,51.8 M213.3,53h-1.1c-0.2,0-0.4,0.2-0.4,0.4l0,0v1.2c0,0.2,0.2,0.4,0.4,0.5h1.1
							c0.2,0,0.4-0.2,0.4-0.5v-1.1C213.7,53.2,213.5,53,213.3,53L213.3,53 M210.3,53h-1.1c-0.2,0-0.4,0.2-0.4,0.4l0,0v1.2
							c0,0.2,0.2,0.4,0.4,0.4c0,0,0,0,0,0h1.1c0.2,0,0.4-0.2,0.4-0.5v-1.2C210.7,53.2,210.5,53,210.3,53L210.3,53"/>
						<path class="st9" d="M214.7,46.8c0.5,0.4,1.1,0.6,1.8,0.6c0,0,0,0,0,0.1v3.2c0,1.2-1.5,2-1.8,2.2l0,0L214.7,46.8
							C214.6,46.9,214.6,46.8,214.7,46.8"/>
						<path class="st9" d="M211.2,46.7c2.4-0.1,2.8-0.9,2.8-0.9c0,0,0.1-0.1,0.1-0.1c0,0,0.1,0,0.1,0s0.4,0.9,2.8,0.9
							c0.1,0,0.1,0,0.1,0.1v4.2c0,1.3-2.5,2.8-2.6,2.8s-0.1,0.1-0.1,0.1v1c0,0,0.2,0.1,0.2,0c0.9-0.5,3.5-1.9,3.5-3.7v-5.2
							c0-0.1-0.2-0.2-0.2-0.2c-3.1,0-3.7-1.1-3.7-1.1s-0.1,0-0.2,0s-0.1,0-0.1,0s-0.5,1.2-3.6,1.2c-0.1,0-0.1,0-0.1,0.1v0.7
							c0,0,0,0.2,0.1,0.2S211.2,46.7,211.2,46.7"/>
						<path d="M220.6,53.5l1.2-0.5c0.3,0.6,0.9,1,1.6,0.9c0.3,0,0.7-0.1,1-0.2c0.2-0.1,0.4-0.4,0.4-0.7c0-0.7-0.9-1.1-1.6-1.3h-0.1
							c-0.5-0.2-1-0.5-1.4-0.8c-0.5-0.3-0.7-0.9-0.7-1.5c0-0.6,0.3-1.2,0.7-1.5c0.5-0.4,1.2-0.6,1.8-0.6c1,0,1.9,0.5,2.4,1.3
							l-1.3,0.5c-0.1-0.2-0.2-0.4-0.4-0.5c-0.2-0.1-0.5-0.2-0.7-0.2c-0.7,0-1.2,0.4-1.2,0.9c0,0.3,0.2,0.6,0.5,0.8
							c0.3,0.2,0.7,0.4,1.1,0.6l0.1,0.1c0.9,0.4,2.1,0.9,2.1,2.2c0,0.6-0.3,1.2-0.8,1.6c-0.6,0.4-1.3,0.6-2,0.6
							C222.2,55.2,221.1,54.5,220.6,53.5"/>
						<path d="M231.5,55.1c-0.5,0-1-0.1-1.5-0.3c-0.5-0.2-0.9-0.5-1.2-0.8c-0.4-0.4-0.6-0.8-0.8-1.2c-0.2-0.5-0.3-1-0.3-1.5
							c0-0.5,0.1-1,0.3-1.5c0.4-0.9,1.1-1.7,2.1-2.1c0.5-0.2,1-0.3,1.5-0.3c0.6,0,1.2,0.1,1.8,0.4c0.5,0.3,1,0.6,1.4,1.1l-1,0.8
							c-0.2-0.3-0.6-0.6-0.9-0.8c-0.4-0.2-0.8-0.3-1.2-0.3c-0.7,0-1.4,0.3-1.9,0.8c-1,1-1,2.7,0,3.7c0,0,0,0,0,0
							c0.5,0.5,1.2,0.8,1.9,0.8c0.5,0,0.9-0.1,1.3-0.4c0.4-0.2,0.8-0.6,1-1l1.1,0.6c-0.3,0.6-0.8,1.1-1.4,1.4
							C233,54.9,232.3,55.1,231.5,55.1"/>
						<path d="M240.1,55.1c-0.5,0-1-0.1-1.5-0.3c-0.5-0.2-0.9-0.5-1.2-0.8c-0.7-0.7-1.1-1.7-1.1-2.8c0-0.5,0.1-1,0.3-1.5
							c0.2-0.5,0.5-0.9,0.8-1.2c0.4-0.4,0.8-0.6,1.2-0.8c0.5-0.2,1-0.3,1.5-0.3c0.5,0,1,0.1,1.5,0.3c0.5,0.2,0.9,0.5,1.2,0.8
							c0.4,0.4,0.6,0.8,0.8,1.2c0.4,1,0.4,2,0,3c-0.2,0.5-0.5,0.9-0.8,1.2c-0.4,0.4-0.8,0.6-1.2,0.8C241.1,55,240.6,55.1,240.1,55.1
							 M240.1,48.6c-0.7,0-1.4,0.3-1.9,0.8c-0.5,0.5-0.8,1.2-0.8,1.9c0,0.7,0.3,1.4,0.8,1.8c1,1,2.7,1,3.7,0c0,0,0,0,0,0
							c0.5-0.5,0.8-1.2,0.8-1.8c0-0.7-0.3-1.4-0.8-1.9C241.4,48.8,240.8,48.6,240.1,48.6"/>
						<polygon points="252.9,47.3 252.9,55.3 247.4,50.3 247.4,55 246,55 246,47.1 251.5,52.1 251.5,47.3 						"/>
						<polygon points="256.6,48.5 256.6,50.6 260.4,50.6 260.4,51.8 256.6,51.8 256.6,53.8 260.9,53.8 260.9,55 255.2,55 
							255.2,47.3 260.9,47.3 260.9,48.5 256.6,48.5 						"/>
					</g>
				</g>
			</g>
		</g>
	</g>
	<path class="st10" d="M46.6,202.9h114.2c2.8,0,5,2.2,5,5v37.9c0,2.8-2.2,5-5,5H46.6c-2.8,0-5-2.2-5-5v-37.9
		C41.6,205.1,43.8,202.9,46.6,202.9z"/>
	
		<linearGradient id="SVGID_5_" gradientUnits="userSpaceOnUse" x1="41.18" y1="174.78" x2="165.72" y2="174.78" gradientTransform="matrix(1 0 0 -1 0 260)">
		<stop  offset="0" style="stop-color:#990066"/>
		<stop  offset="0.19" style="stop-color:#780066"/>
		<stop  offset="0.4" style="stop-color:#5A0066"/>
		<stop  offset="0.61" style="stop-color:#440066"/>
		<stop  offset="0.81" style="stop-color:#370066"/>
		<stop  offset="1" style="stop-color:#330066"/>
	</linearGradient>
	<path class="st11" d="M46.2,19.2h114.5c2.8,0,5,2.2,5,5v122.1c0,2.8-2.2,5-5,5H46.2c-2.8,0-5-2.2-5-5V24.2
		C41.2,21.4,43.4,19.2,46.2,19.2z"/>
	<g class="st0">
		<path class="st3" d="M76.5,37v0.9l-0.8,0.2v4.1c0,0.5,0.1,0.9,0.4,1.2s0.7,0.4,1.1,0.4c0.5,0,0.9-0.1,1.2-0.4s0.4-0.6,0.4-1.2
			v-4.1l-0.8-0.2V37h3.2v0.9l-0.8,0.2v4.1c0,0.9-0.3,1.6-0.9,2s-1.3,0.7-2.3,0.7c-0.9,0-1.7-0.2-2.3-0.7c-0.6-0.5-0.9-1.2-0.9-2
			v-4.1l-0.8-0.2V37h0.8h1.6H76.5z"/>
		<path class="st3" d="M81.6,43.9l0.8-0.2v-3.6l-0.8-0.2V39h2.3l0.1,0.8c0.2-0.3,0.4-0.5,0.7-0.7c0.3-0.2,0.6-0.2,1-0.2
			c0.6,0,1,0.2,1.4,0.6c0.3,0.4,0.5,0.9,0.5,1.7v2.5l0.8,0.2v0.9h-3v-0.9l0.7-0.2v-2.5c0-0.4-0.1-0.7-0.2-0.8
			c-0.2-0.2-0.4-0.2-0.7-0.2c-0.2,0-0.4,0-0.6,0.1c-0.2,0.1-0.3,0.2-0.4,0.4v3.1l0.6,0.2v0.9h-3V43.9z"/>
	</g>
	<g class="st0">
		<path class="st3" d="M88.5,39.9V39h2.3l0.1,0.8c0.2-0.3,0.4-0.5,0.7-0.6c0.3-0.2,0.6-0.2,1-0.2c0.4,0,0.7,0.1,1,0.2
			s0.5,0.4,0.6,0.7c0.2-0.3,0.4-0.6,0.7-0.7c0.3-0.2,0.6-0.3,1-0.3c0.6,0,1,0.2,1.4,0.6c0.3,0.4,0.5,1,0.5,1.8v2.4l0.8,0.2v0.9h-3
			v-0.9l0.7-0.2v-2.4c0-0.4-0.1-0.7-0.2-0.9s-0.4-0.3-0.6-0.3c-0.2,0-0.4,0-0.6,0.1c-0.2,0.1-0.3,0.2-0.4,0.4c0,0.1,0,0.1,0,0.2
			c0,0,0,0.1,0,0.1v2.7l0.6,0.2v0.9h-2.8v-0.9l0.6-0.2v-2.4c0-0.4-0.1-0.7-0.2-0.9c-0.1-0.2-0.4-0.3-0.6-0.3c-0.2,0-0.4,0-0.6,0.1
			c-0.2,0.1-0.3,0.2-0.4,0.3v3.1l0.7,0.2v0.9h-3v-0.9l0.8-0.2v-3.6L88.5,39.9z"/>
	</g>
	<g class="st0">
		<path class="st3" d="M98.8,41.8c0-0.9,0.2-1.6,0.7-2.1c0.5-0.6,1.2-0.8,2-0.8c0.9,0,1.5,0.3,2,0.8c0.5,0.6,0.7,1.3,0.7,2.1V42
			c0,0.9-0.2,1.6-0.7,2.1c-0.5,0.5-1.2,0.8-2,0.8c-0.9,0-1.5-0.3-2-0.8c-0.5-0.5-0.7-1.3-0.7-2.1V41.8z M100.4,42
			c0,0.5,0.1,1,0.3,1.3s0.5,0.5,0.9,0.5c0.4,0,0.7-0.2,0.9-0.5c0.2-0.3,0.3-0.7,0.3-1.3v-0.1c0-0.5-0.1-0.9-0.3-1.3
			s-0.5-0.5-0.9-0.5s-0.7,0.2-0.9,0.5s-0.3,0.7-0.3,1.3V42z"/>
		<path class="st3" d="M108.8,44.1c-0.2,0.3-0.4,0.5-0.6,0.6c-0.2,0.1-0.5,0.2-0.9,0.2c-0.7,0-1.3-0.3-1.7-0.8
			c-0.4-0.5-0.6-1.2-0.6-2.1v-0.1c0-0.9,0.2-1.7,0.6-2.2c0.4-0.6,1-0.8,1.7-0.8c0.3,0,0.6,0.1,0.8,0.2s0.4,0.3,0.6,0.5v-2.1
			l-0.8-0.2v-0.9h0.8h1.6v7.3l0.8,0.2v0.9h-2.1L108.8,44.1z M106.6,42.1c0,0.5,0.1,0.9,0.3,1.2c0.2,0.3,0.4,0.4,0.8,0.4
			c0.2,0,0.4,0,0.6-0.1s0.3-0.2,0.4-0.4v-2.5c-0.1-0.2-0.2-0.3-0.4-0.4c-0.2-0.1-0.4-0.2-0.6-0.2c-0.4,0-0.7,0.2-0.8,0.5
			s-0.3,0.8-0.3,1.3V42.1z"/>
		<path class="st3" d="M111.5,43.9l0.8-0.2v-3.6l-0.8-0.2V39h2.4v4.7l0.8,0.2v0.9h-3.1V43.9z M113.8,37.6h-1.6v-1.2h1.6V37.6z"/>
		<path class="st3" d="M114.9,40.1V39h0.9v-0.4c0-0.7,0.2-1.3,0.7-1.7c0.4-0.4,1.1-0.6,1.9-0.6c0.3,0,0.6,0,0.8,0.1s0.6,0.1,0.9,0.2
			l-0.2,1.2c-0.3-0.1-0.5-0.1-0.7-0.2c-0.2,0-0.5-0.1-0.7-0.1c-0.4,0-0.6,0.1-0.8,0.2c-0.2,0.2-0.3,0.4-0.3,0.7V39h3.5v4.7l0.8,0.2
			v0.9h-3.2v-0.9l0.8-0.2v-3.6h-2v3.6l0.8,0.2v0.9h-3.2v-0.9l0.8-0.2v-3.6H114.9z"/>
		<path class="st3" d="M125,44.9c-0.8,0-1.5-0.3-2-0.8s-0.8-1.2-0.8-2v-0.2c0-0.9,0.2-1.6,0.7-2.1c0.5-0.6,1.1-0.8,1.9-0.8
			c0.8,0,1.4,0.2,1.8,0.7s0.6,1.1,0.6,1.9v0.9h-3.5l0,0c0,0.4,0.2,0.7,0.4,0.9c0.2,0.2,0.5,0.4,0.9,0.4c0.3,0,0.6,0,0.9-0.1
			c0.2-0.1,0.5-0.2,0.8-0.3l0.4,1c-0.2,0.2-0.6,0.3-0.9,0.5C125.9,44.8,125.5,44.9,125,44.9z M124.9,40.1c-0.3,0-0.5,0.1-0.7,0.3
			c-0.2,0.2-0.3,0.5-0.3,0.9l0,0h1.9v-0.1c0-0.3-0.1-0.6-0.2-0.8C125.4,40.2,125.2,40.1,124.9,40.1z"/>
		<path class="st3" d="M131.9,44.1c-0.2,0.3-0.4,0.5-0.6,0.6c-0.2,0.1-0.5,0.2-0.9,0.2c-0.7,0-1.3-0.3-1.7-0.8
			c-0.4-0.5-0.6-1.2-0.6-2.1v-0.1c0-0.9,0.2-1.7,0.6-2.2c0.4-0.6,1-0.8,1.7-0.8c0.3,0,0.6,0.1,0.8,0.2s0.4,0.3,0.6,0.5v-2.1
			l-0.8-0.2v-0.9h0.8h1.6v7.3l0.8,0.2v0.9H132L131.9,44.1z M129.7,42.1c0,0.5,0.1,0.9,0.3,1.2c0.2,0.3,0.4,0.4,0.8,0.4
			c0.2,0,0.4,0,0.6-0.1s0.3-0.2,0.4-0.4v-2.5c-0.1-0.2-0.2-0.3-0.4-0.4c-0.2-0.1-0.4-0.2-0.6-0.2c-0.4,0-0.7,0.2-0.8,0.5
			s-0.3,0.8-0.3,1.3V42.1z"/>
	</g>
	<g class="st0">
		<path class="st3" d="M78.4,56.8c0-0.1-0.1-0.2-0.1-0.3c0-0.1-0.1-0.2-0.1-0.3c-0.2,0.2-0.4,0.4-0.7,0.5c-0.3,0.1-0.6,0.2-0.9,0.2
			c-0.6,0-1-0.2-1.4-0.5c-0.3-0.3-0.5-0.7-0.5-1.3c0-0.5,0.2-1,0.7-1.3s1.1-0.4,1.9-0.4h0.8v-0.6c0-0.3-0.1-0.5-0.2-0.6
			S77.5,52,77.2,52c-0.2,0-0.3,0-0.5,0.1s-0.3,0.1-0.3,0.1l-0.1,0.6h-1.2l0-1.3c0.3-0.2,0.6-0.4,1-0.5c0.4-0.1,0.8-0.2,1.2-0.2
			c0.7,0,1.3,0.2,1.8,0.5c0.4,0.4,0.7,0.9,0.7,1.5v2.4c0,0.1,0,0.2,0,0.3c0,0.1,0,0.2,0,0.2l0.5,0.1v0.9H78.4z M77.1,55.8
			c0.2,0,0.5-0.1,0.6-0.2c0.2-0.1,0.3-0.2,0.5-0.4v-0.9h-0.8c-0.3,0-0.6,0.1-0.8,0.2c-0.2,0.2-0.3,0.3-0.3,0.6
			c0,0.2,0.1,0.4,0.2,0.5C76.7,55.7,76.8,55.8,77.1,55.8z"/>
		<path class="st3" d="M80.7,51.9V51h2.3l0.1,0.7c0.2-0.3,0.4-0.4,0.6-0.6s0.5-0.2,0.8-0.2c0.7,0,1.3,0.3,1.7,0.8
			c0.4,0.6,0.6,1.3,0.6,2.2v0.1c0,0.9-0.2,1.5-0.6,2.1c-0.4,0.5-1,0.8-1.7,0.8c-0.3,0-0.6-0.1-0.8-0.2c-0.2-0.1-0.4-0.3-0.6-0.5v1.7
			l0.8,0.2V59h-3.1v-0.9l0.8-0.2v-5.8L80.7,51.9z M85.2,53.9c0-0.5-0.1-1-0.3-1.3s-0.5-0.5-0.8-0.5c-0.2,0-0.4,0-0.6,0.1
			c-0.2,0.1-0.3,0.2-0.4,0.4v2.5c0.1,0.2,0.2,0.3,0.4,0.4c0.2,0.1,0.4,0.1,0.6,0.1c0.4,0,0.7-0.1,0.8-0.4c0.2-0.3,0.3-0.7,0.3-1.2
			V53.9z"/>
	</g>
	<g class="st0">
		<path class="st3" d="M87.3,51.9V51h2.3l0.1,0.7c0.2-0.3,0.4-0.4,0.6-0.6s0.5-0.2,0.8-0.2c0.7,0,1.3,0.3,1.7,0.8
			c0.4,0.6,0.6,1.3,0.6,2.2v0.1c0,0.9-0.2,1.5-0.6,2.1c-0.4,0.5-1,0.8-1.7,0.8c-0.3,0-0.6-0.1-0.8-0.2c-0.2-0.1-0.4-0.3-0.6-0.5v1.7
			l0.8,0.2V59h-3.1v-0.9l0.8-0.2v-5.8L87.3,51.9z M91.8,53.9c0-0.5-0.1-1-0.3-1.3s-0.5-0.5-0.8-0.5c-0.2,0-0.4,0-0.6,0.1
			c-0.2,0.1-0.3,0.2-0.4,0.4v2.5c0.1,0.2,0.2,0.3,0.4,0.4c0.2,0.1,0.4,0.1,0.6,0.1c0.4,0,0.7-0.1,0.8-0.4c0.2-0.3,0.3-0.7,0.3-1.2
			V53.9z"/>
	</g>
	<g class="st0">
		<path class="st3" d="M93.8,49.4v-0.9h2.4v7.3l0.8,0.2v0.9h-3.1v-0.9l0.8-0.2v-6.2L93.8,49.4z"/>
		<path class="st3" d="M97.4,55.9l0.8-0.2v-3.6l-0.8-0.2V51h2.4v4.7l0.8,0.2v0.9h-3.1V55.9z M99.8,49.6h-1.6v-1.2h1.6V49.6z"/>
		<path class="st3" d="M103.8,55.7c0.3,0,0.5-0.1,0.7-0.2s0.3-0.4,0.3-0.7h1.4l0,0c0,0.6-0.2,1.1-0.7,1.5s-1,0.6-1.7,0.6
			c-0.9,0-1.5-0.3-2-0.8s-0.7-1.3-0.7-2.1v-0.2c0-0.9,0.2-1.6,0.7-2.1c0.5-0.6,1.2-0.8,2.1-0.8c0.5,0,0.9,0.1,1.3,0.2
			c0.4,0.1,0.7,0.3,0.9,0.6l0,1.6h-1.3l-0.3-0.9c-0.1-0.1-0.2-0.1-0.3-0.2s-0.2-0.1-0.4-0.1c-0.4,0-0.8,0.2-0.9,0.5
			s-0.3,0.7-0.3,1.2V54c0,0.5,0.1,0.9,0.3,1.3C103.1,55.6,103.3,55.7,103.8,55.7z"/>
	</g>
	<g class="st0">
		<path class="st3" d="M110.5,56.8c0-0.1-0.1-0.2-0.1-0.3c0-0.1-0.1-0.2-0.1-0.3c-0.2,0.2-0.4,0.4-0.7,0.5c-0.3,0.1-0.6,0.2-0.9,0.2
			c-0.6,0-1-0.2-1.4-0.5c-0.3-0.3-0.5-0.7-0.5-1.3c0-0.5,0.2-1,0.7-1.3s1.1-0.4,1.9-0.4h0.8v-0.6c0-0.3-0.1-0.5-0.2-0.6
			s-0.4-0.2-0.7-0.2c-0.2,0-0.3,0-0.5,0.1s-0.3,0.1-0.3,0.1l-0.1,0.6h-1.2l0-1.3c0.3-0.2,0.6-0.4,1-0.5c0.4-0.1,0.8-0.2,1.2-0.2
			c0.7,0,1.3,0.2,1.8,0.5c0.4,0.4,0.7,0.9,0.7,1.5v2.4c0,0.1,0,0.2,0,0.3c0,0.1,0,0.2,0,0.2l0.5,0.1v0.9H110.5z M109.2,55.8
			c0.2,0,0.5-0.1,0.6-0.2c0.2-0.1,0.3-0.2,0.5-0.4v-0.9h-0.8c-0.3,0-0.6,0.1-0.8,0.2c-0.2,0.2-0.3,0.3-0.3,0.6
			c0,0.2,0.1,0.4,0.2,0.5C108.8,55.7,109,55.8,109.2,55.8z"/>
	</g>
	<g class="st0">
		<path class="st3" d="M114.8,49.6V51h1v1.1h-1v3c0,0.2,0,0.4,0.1,0.5s0.2,0.1,0.4,0.1c0.1,0,0.2,0,0.3,0c0.1,0,0.2,0,0.3,0l0.1,1.1
			c-0.2,0.1-0.3,0.1-0.5,0.1c-0.2,0-0.4,0-0.6,0c-0.5,0-1-0.1-1.2-0.4c-0.3-0.3-0.4-0.8-0.4-1.4v-3h-0.9V51h0.9v-1.4H114.8z"/>
		<path class="st3" d="M116.5,55.9l0.8-0.2v-3.6l-0.8-0.2V51h2.4v4.7l0.8,0.2v0.9h-3.1V55.9z M118.8,49.6h-1.6v-1.2h1.6V49.6z"/>
		<path class="st3" d="M120.1,53.8c0-0.9,0.2-1.6,0.7-2.1c0.5-0.6,1.2-0.8,2-0.8c0.9,0,1.5,0.3,2,0.8c0.5,0.6,0.7,1.3,0.7,2.1V54
			c0,0.9-0.2,1.6-0.7,2.1c-0.5,0.5-1.2,0.8-2,0.8c-0.9,0-1.5-0.3-2-0.8c-0.5-0.5-0.7-1.3-0.7-2.1V53.8z M121.7,54
			c0,0.5,0.1,1,0.3,1.3s0.5,0.5,0.9,0.5c0.4,0,0.7-0.2,0.9-0.5c0.2-0.3,0.3-0.7,0.3-1.3v-0.1c0-0.5-0.1-0.9-0.3-1.3
			s-0.5-0.5-0.9-0.5s-0.7,0.2-0.9,0.5s-0.3,0.7-0.3,1.3V54z"/>
		<path class="st3" d="M126.2,55.9l0.8-0.2v-3.6l-0.8-0.2V51h2.3l0.1,0.8c0.2-0.3,0.4-0.5,0.7-0.7s0.6-0.2,1-0.2
			c0.6,0,1,0.2,1.4,0.6c0.3,0.4,0.5,0.9,0.5,1.7v2.5l0.8,0.2v0.9h-3v-0.9l0.7-0.2v-2.5c0-0.4-0.1-0.7-0.2-0.8s-0.4-0.2-0.7-0.2
			c-0.2,0-0.4,0-0.6,0.1s-0.3,0.2-0.4,0.4v3.1l0.6,0.2v0.9h-3V55.9z"/>
	</g>
	<g class="st0">
		<path class="st3" d="M98.4,5.5v1.9h-1.1l-0.1-0.8h-1.3v5l0.8,0.1v0.9h-3v-0.9l0.8-0.1v-5h-1.3l-0.1,0.8H92V5.5H98.4z"/>
		<path class="st3" d="M103.5,9.4h-2.4v2h2.3l0.1-0.8h1.1v1.9h-5.7v-0.9l0.8-0.1V6.5l-0.8-0.1V5.5h0.8h4.9v1.9h-1.1l-0.1-0.8h-2.3
			v1.8h2.4V9.4z"/>
		<path class="st3" d="M110,9.4h-2.4v2h2.3l0.1-0.8h1.1v1.9h-5.7v-0.9l0.8-0.1V6.5l-0.8-0.1V5.5h0.8h4.9v1.9h-1.1l-0.1-0.8h-2.3v1.8
			h2.4V9.4z"/>
	</g>
	<g class="st0">
		<path class="st12" d="M64.9,82.7c0.3-0.2,0.5-0.3,0.9-0.3c0.3-0.1,0.7-0.1,1.1-0.1c0.3,0,0.6,0,0.8,0.1c0.2,0.1,0.4,0.2,0.5,0.4
			c0.1,0.2,0.2,0.3,0.2,0.5s0.1,0.4,0.1,0.5c0,0.4,0,0.8,0,1.2s0,0.7,0,1.1c0,0.2,0,0.5,0,0.7s0.1,0.4,0.1,0.6h-0.6l-0.2-0.7h0
			c-0.1,0.1-0.1,0.2-0.2,0.3c-0.1,0.1-0.2,0.2-0.3,0.2s-0.3,0.1-0.4,0.2c-0.2,0-0.4,0.1-0.6,0.1s-0.4,0-0.6-0.1
			c-0.2-0.1-0.3-0.2-0.5-0.3c-0.1-0.1-0.2-0.3-0.3-0.4c-0.1-0.2-0.1-0.4-0.1-0.6c0-0.3,0.1-0.5,0.2-0.7c0.1-0.2,0.3-0.4,0.5-0.5
			c0.2-0.1,0.5-0.2,0.8-0.3s0.6-0.1,1-0.1c0.1,0,0.2,0,0.3,0c0.1,0,0.2,0,0.3,0c0-0.2,0-0.4,0-0.5c0-0.4-0.1-0.6-0.2-0.8
			c-0.1-0.1-0.4-0.2-0.8-0.2c-0.1,0-0.2,0-0.4,0c-0.1,0-0.3,0-0.4,0.1s-0.3,0.1-0.4,0.1c-0.1,0-0.2,0.1-0.3,0.1L64.9,82.7z
			 M66.3,86.7c0.2,0,0.4,0,0.5-0.1c0.1,0,0.3-0.1,0.4-0.2c0.1-0.1,0.2-0.2,0.3-0.3c0.1-0.1,0.1-0.2,0.2-0.3v-0.8c-0.1,0-0.2,0-0.3,0
			s-0.2,0-0.3,0c-0.2,0-0.4,0-0.6,0s-0.4,0.1-0.5,0.1c-0.1,0.1-0.3,0.1-0.4,0.3s-0.1,0.2-0.1,0.4c0,0.2,0.1,0.4,0.3,0.6
			C65.8,86.6,66.1,86.7,66.3,86.7z"/>
		<path class="st12" d="M69.9,82.3h0.5l0.2,0.6h0c0.2-0.2,0.4-0.4,0.6-0.5c0.2-0.1,0.5-0.2,0.8-0.2c0.7,0,1.2,0.2,1.5,0.6
			c0.3,0.4,0.5,1,0.5,1.9c0,0.4-0.1,0.8-0.2,1.1c-0.1,0.3-0.3,0.6-0.5,0.9s-0.4,0.4-0.7,0.5c-0.3,0.1-0.6,0.2-0.9,0.2
			c-0.2,0-0.4,0-0.6,0c-0.1,0-0.3-0.1-0.5-0.2v2.1h-0.8V82.3z M72,82.9c-0.3,0-0.6,0.1-0.8,0.3s-0.3,0.4-0.4,0.8v2.5
			c0.1,0.1,0.3,0.2,0.4,0.2s0.4,0.1,0.6,0.1c0.5,0,0.8-0.2,1.1-0.5c0.3-0.3,0.4-0.8,0.4-1.5c0-0.3,0-0.5-0.1-0.7
			c0-0.2-0.1-0.4-0.2-0.6c-0.1-0.2-0.2-0.3-0.4-0.4C72.4,82.9,72.2,82.9,72,82.9z"/>
		<path class="st12" d="M75.3,82.3h0.5l0.2,0.6h0c0.2-0.2,0.4-0.4,0.6-0.5c0.2-0.1,0.5-0.2,0.8-0.2c0.7,0,1.2,0.2,1.5,0.6
			c0.3,0.4,0.5,1,0.5,1.9c0,0.4-0.1,0.8-0.2,1.1c-0.1,0.3-0.3,0.6-0.5,0.9s-0.4,0.4-0.7,0.5c-0.3,0.1-0.6,0.2-0.9,0.2
			c-0.2,0-0.4,0-0.6,0c-0.1,0-0.3-0.1-0.5-0.2v2.1h-0.8V82.3z M77.4,82.9c-0.3,0-0.6,0.1-0.8,0.3s-0.3,0.4-0.4,0.8v2.5
			c0.1,0.1,0.3,0.2,0.4,0.2s0.4,0.1,0.6,0.1c0.5,0,0.8-0.2,1.1-0.5c0.3-0.3,0.4-0.8,0.4-1.5c0-0.3,0-0.5-0.1-0.7
			c0-0.2-0.1-0.4-0.2-0.6c-0.1-0.2-0.2-0.3-0.4-0.4C77.8,82.9,77.6,82.9,77.4,82.9z"/>
		<path class="st12" d="M81.6,86.1c0,0.2,0,0.4,0.1,0.5c0.1,0.1,0.2,0.2,0.3,0.2c0.1,0,0.2,0,0.3,0c0.1,0,0.2,0,0.3-0.1l0.1,0.6
			c-0.1,0.1-0.3,0.1-0.4,0.1c-0.2,0-0.4,0-0.5,0c-0.3,0-0.5-0.1-0.7-0.3s-0.3-0.5-0.3-0.9v-6h0.8V86.1z"/>
		<path class="st12" d="M83.7,80.8c0-0.2,0.1-0.3,0.2-0.4c0.1-0.1,0.2-0.2,0.4-0.2c0.2,0,0.3,0.1,0.4,0.2s0.2,0.2,0.2,0.4
			s-0.1,0.3-0.2,0.4c-0.1,0.1-0.3,0.1-0.4,0.1c-0.2,0-0.3,0-0.4-0.1C83.7,81.1,83.7,80.9,83.7,80.8z M83.8,82.3h0.8v5h-0.8V82.3z"/>
		<path class="st12" d="M89.8,87c-0.2,0.1-0.4,0.3-0.7,0.3c-0.3,0.1-0.6,0.1-0.9,0.1c-0.4,0-0.7-0.1-1-0.2c-0.3-0.1-0.5-0.3-0.7-0.5
			c-0.2-0.2-0.3-0.5-0.4-0.8s-0.1-0.7-0.1-1.1c0-0.8,0.2-1.5,0.6-1.9c0.4-0.4,0.9-0.7,1.6-0.7c0.3,0,0.6,0,0.8,0.1
			c0.2,0,0.4,0.1,0.6,0.2l-0.2,0.7c-0.2-0.1-0.3-0.2-0.5-0.2s-0.4-0.1-0.6-0.1c-0.9,0-1.4,0.6-1.4,1.9c0,0.3,0,0.5,0.1,0.7
			c0,0.2,0.1,0.4,0.3,0.6s0.3,0.3,0.5,0.4c0.2,0.1,0.4,0.2,0.7,0.2c0.2,0,0.5,0,0.6-0.1c0.2-0.1,0.3-0.2,0.5-0.3L89.8,87z"/>
		<path class="st12" d="M90.8,82.7c0.3-0.2,0.5-0.3,0.9-0.3c0.3-0.1,0.7-0.1,1.1-0.1c0.3,0,0.6,0,0.8,0.1c0.2,0.1,0.4,0.2,0.5,0.4
			c0.1,0.2,0.2,0.3,0.2,0.5s0.1,0.4,0.1,0.5c0,0.4,0,0.8,0,1.2s0,0.7,0,1.1c0,0.2,0,0.5,0,0.7s0.1,0.4,0.1,0.6h-0.6l-0.2-0.7h0
			c-0.1,0.1-0.1,0.2-0.2,0.3c-0.1,0.1-0.2,0.2-0.3,0.2s-0.3,0.1-0.4,0.2c-0.2,0-0.4,0.1-0.6,0.1s-0.4,0-0.6-0.1
			c-0.2-0.1-0.3-0.2-0.5-0.3c-0.1-0.1-0.2-0.3-0.3-0.4c-0.1-0.2-0.1-0.4-0.1-0.6c0-0.3,0.1-0.5,0.2-0.7c0.1-0.2,0.3-0.4,0.5-0.5
			c0.2-0.1,0.5-0.2,0.8-0.3s0.6-0.1,1-0.1c0.1,0,0.2,0,0.3,0c0.1,0,0.2,0,0.3,0c0-0.2,0-0.4,0-0.5c0-0.4-0.1-0.6-0.2-0.8
			c-0.1-0.1-0.4-0.2-0.8-0.2c-0.1,0-0.2,0-0.4,0c-0.1,0-0.3,0-0.4,0.1s-0.3,0.1-0.4,0.1c-0.1,0-0.2,0.1-0.3,0.1L90.8,82.7z
			 M92.2,86.7c0.2,0,0.4,0,0.5-0.1c0.1,0,0.3-0.1,0.4-0.2c0.1-0.1,0.2-0.2,0.3-0.3c0.1-0.1,0.1-0.2,0.2-0.3v-0.8c-0.1,0-0.2,0-0.3,0
			s-0.2,0-0.3,0c-0.2,0-0.4,0-0.6,0s-0.4,0.1-0.5,0.1c-0.1,0.1-0.3,0.1-0.4,0.3s-0.1,0.2-0.1,0.4c0,0.2,0.1,0.4,0.3,0.6
			C91.7,86.6,91.9,86.7,92.2,86.7z"/>
		<path class="st12" d="M95.2,82.3h0.8v-1l0.8-0.2v1.2h1.4V83h-1.4v2.8c0,0.3,0,0.6,0.1,0.7c0.1,0.1,0.2,0.2,0.4,0.2
			c0.2,0,0.3,0,0.4-0.1c0.1,0,0.3-0.1,0.4-0.1l0.2,0.6c-0.2,0.1-0.4,0.2-0.6,0.2s-0.4,0.1-0.7,0.1c-0.4,0-0.7-0.1-0.9-0.3
			c-0.2-0.2-0.3-0.6-0.3-1.2V83h-0.8V82.3z"/>
		<path class="st12" d="M99.2,80.8c0-0.2,0.1-0.3,0.2-0.4c0.1-0.1,0.2-0.2,0.4-0.2c0.2,0,0.3,0.1,0.4,0.2s0.2,0.2,0.2,0.4
			s-0.1,0.3-0.2,0.4c-0.1,0.1-0.3,0.1-0.4,0.1c-0.2,0-0.3,0-0.4-0.1C99.3,81.1,99.2,80.9,99.2,80.8z M99.4,82.3h0.8v5h-0.8V82.3z"/>
		<path class="st12" d="M101.6,84.8c0-0.8,0.2-1.5,0.6-1.9c0.4-0.4,0.9-0.7,1.6-0.7c0.4,0,0.7,0.1,1,0.2c0.3,0.1,0.5,0.3,0.7,0.5
			c0.2,0.2,0.3,0.5,0.4,0.8c0.1,0.3,0.1,0.7,0.1,1.1c0,0.8-0.2,1.5-0.6,1.9c-0.4,0.4-0.9,0.7-1.6,0.7c-0.4,0-0.7-0.1-1-0.2
			c-0.3-0.1-0.5-0.3-0.7-0.5c-0.2-0.2-0.3-0.5-0.4-0.8C101.7,85.6,101.6,85.2,101.6,84.8z M102.4,84.8c0,0.3,0,0.5,0.1,0.7
			s0.1,0.4,0.2,0.6c0.1,0.2,0.2,0.3,0.4,0.4c0.2,0.1,0.4,0.2,0.6,0.2c0.9,0,1.4-0.6,1.4-1.9c0-0.3,0-0.5-0.1-0.7
			c0-0.2-0.1-0.4-0.2-0.6c-0.1-0.2-0.2-0.3-0.4-0.4s-0.4-0.2-0.6-0.2C102.9,82.9,102.4,83.5,102.4,84.8z"/>
		<path class="st12" d="M110.5,87.3v-2.8c0-0.5-0.1-0.9-0.2-1.2c-0.1-0.3-0.4-0.4-0.8-0.4c-0.4,0-0.6,0.1-0.9,0.3
			c-0.2,0.2-0.4,0.4-0.5,0.7v3.4h-0.8v-5h0.6l0.1,0.6h0c0.2-0.2,0.4-0.4,0.6-0.5s0.6-0.2,1-0.2c0.3,0,0.5,0,0.7,0.1
			c0.2,0.1,0.4,0.2,0.5,0.3c0.1,0.2,0.2,0.4,0.3,0.6c0.1,0.3,0.1,0.6,0.1,1v3H110.5z"/>
		<path class="st12" d="M114.7,82.3h0.8v-1l0.8-0.2v1.2h1.4V83h-1.4v2.8c0,0.3,0,0.6,0.1,0.7c0.1,0.1,0.2,0.2,0.4,0.2
			c0.2,0,0.3,0,0.4-0.1c0.1,0,0.3-0.1,0.4-0.1l0.2,0.6c-0.2,0.1-0.4,0.2-0.6,0.2s-0.4,0.1-0.7,0.1c-0.4,0-0.7-0.1-0.9-0.3
			c-0.2-0.2-0.3-0.6-0.3-1.2V83h-0.8V82.3z"/>
		<path class="st12" d="M122,87.3v-2.8c0-0.3,0-0.5,0-0.7c0-0.2-0.1-0.4-0.2-0.5c-0.1-0.1-0.2-0.2-0.3-0.3c-0.1-0.1-0.3-0.1-0.5-0.1
			c-0.3,0-0.6,0.1-0.9,0.3c-0.3,0.2-0.4,0.5-0.5,0.8v3.3h-0.8v-7h0.8v2.6h0c0.2-0.2,0.4-0.4,0.6-0.5c0.2-0.1,0.5-0.2,0.9-0.2
			c0.3,0,0.5,0,0.7,0.1c0.2,0.1,0.4,0.2,0.5,0.3c0.1,0.2,0.2,0.4,0.3,0.6c0.1,0.3,0.1,0.6,0.1,1v3H122z"/>
		<path class="st12" d="M126.6,83.1c-0.2-0.1-0.4-0.1-0.6-0.1c-0.3,0-0.5,0.1-0.7,0.2c-0.2,0.2-0.3,0.4-0.3,0.6v3.5h-0.8v-5h0.6
			l0.1,0.6h0c0.1-0.2,0.3-0.4,0.5-0.5c0.2-0.1,0.4-0.2,0.7-0.2c0.2,0,0.4,0,0.6,0.1L126.6,83.1z"/>
		<path class="st12" d="M131.3,86.9c-0.2,0.2-0.5,0.3-0.8,0.4c-0.3,0.1-0.6,0.1-1,0.1c-0.4,0-0.7-0.1-1-0.2
			c-0.3-0.1-0.5-0.3-0.7-0.5c-0.2-0.2-0.3-0.5-0.4-0.8c-0.1-0.3-0.1-0.7-0.1-1.1c0-0.9,0.2-1.5,0.6-2c0.4-0.4,0.9-0.7,1.6-0.7
			c0.2,0,0.5,0,0.7,0.1c0.2,0,0.4,0.1,0.6,0.3c0.2,0.1,0.3,0.3,0.4,0.6s0.2,0.6,0.2,1c0,0.2,0,0.5-0.1,0.7h-3.2c0,0.3,0,0.6,0.1,0.8
			s0.2,0.4,0.3,0.6c0.1,0.2,0.3,0.3,0.5,0.4c0.2,0.1,0.5,0.1,0.7,0.1c0.2,0,0.5,0,0.7-0.1s0.4-0.2,0.5-0.3L131.3,86.9z M129.6,82.9
			c-0.4,0-0.7,0.1-0.9,0.3c-0.2,0.2-0.4,0.6-0.4,1.1h2.5c0-0.5-0.1-0.9-0.3-1.1C130.2,83,129.9,82.9,129.6,82.9z"/>
		<path class="st12" d="M132.7,82.7c0.3-0.2,0.5-0.3,0.9-0.3c0.3-0.1,0.7-0.1,1.1-0.1c0.3,0,0.6,0,0.8,0.1c0.2,0.1,0.4,0.2,0.5,0.4
			c0.1,0.2,0.2,0.3,0.2,0.5s0.1,0.4,0.1,0.5c0,0.4,0,0.8,0,1.2s0,0.7,0,1.1c0,0.2,0,0.5,0,0.7s0.1,0.4,0.1,0.6h-0.6l-0.2-0.7h0
			c-0.1,0.1-0.1,0.2-0.2,0.3c-0.1,0.1-0.2,0.2-0.3,0.2s-0.3,0.1-0.4,0.2c-0.2,0-0.4,0.1-0.6,0.1s-0.4,0-0.6-0.1
			c-0.2-0.1-0.3-0.2-0.5-0.3c-0.1-0.1-0.2-0.3-0.3-0.4c-0.1-0.2-0.1-0.4-0.1-0.6c0-0.3,0.1-0.5,0.2-0.7c0.1-0.2,0.3-0.4,0.5-0.5
			c0.2-0.1,0.5-0.2,0.8-0.3s0.6-0.1,1-0.1c0.1,0,0.2,0,0.3,0c0.1,0,0.2,0,0.3,0c0-0.2,0-0.4,0-0.5c0-0.4-0.1-0.6-0.2-0.8
			c-0.1-0.1-0.4-0.2-0.8-0.2c-0.1,0-0.2,0-0.4,0c-0.1,0-0.3,0-0.4,0.1s-0.3,0.1-0.4,0.1c-0.1,0-0.2,0.1-0.3,0.1L132.7,82.7z
			 M134.1,86.7c0.2,0,0.4,0,0.5-0.1c0.1,0,0.3-0.1,0.4-0.2c0.1-0.1,0.2-0.2,0.3-0.3c0.1-0.1,0.1-0.2,0.2-0.3v-0.8
			c-0.1,0-0.2,0-0.3,0s-0.2,0-0.3,0c-0.2,0-0.4,0-0.6,0s-0.4,0.1-0.5,0.1c-0.1,0.1-0.3,0.1-0.4,0.3s-0.1,0.2-0.1,0.4
			c0,0.2,0.1,0.4,0.3,0.6C133.6,86.6,133.8,86.7,134.1,86.7z"/>
		<path class="st12" d="M141.5,85.6c0,0.3,0,0.6,0,0.9c0,0.3,0,0.5,0.1,0.8h-0.5l-0.2-0.7h0c-0.1,0.2-0.3,0.4-0.6,0.6
			s-0.6,0.2-0.9,0.2c-0.7,0-1.2-0.2-1.5-0.6c-0.3-0.4-0.5-1.1-0.5-2c0-0.9,0.2-1.5,0.6-1.9c0.4-0.4,1-0.7,1.7-0.7c0.2,0,0.4,0,0.6,0
			c0.1,0,0.3,0.1,0.5,0.1v-2.1h0.8V85.6z M139.5,86.7c0.3,0,0.6-0.1,0.8-0.3c0.2-0.2,0.3-0.4,0.4-0.8v-2.5c-0.1-0.1-0.3-0.2-0.4-0.2
			s-0.4-0.1-0.6-0.1c-0.5,0-0.8,0.2-1.1,0.5c-0.3,0.3-0.4,0.8-0.4,1.5c0,0.3,0,0.5,0.1,0.8c0,0.2,0.1,0.4,0.2,0.6
			c0.1,0.2,0.2,0.3,0.4,0.4C139.1,86.7,139.3,86.7,139.5,86.7z"/>
	</g>
	<g class="st0">
		<path class="st12" d="M85.5,97.9c0-0.2-0.1-0.4-0.2-0.5s-0.3-0.2-0.4-0.3c-0.2-0.1-0.4-0.1-0.6-0.2s-0.4-0.2-0.6-0.3
			c-0.2-0.1-0.3-0.3-0.4-0.4c-0.1-0.2-0.2-0.4-0.2-0.7c0-0.5,0.1-0.8,0.4-1.1c0.3-0.2,0.7-0.3,1.1-0.3c0.4,0,0.7,0,0.9,0.1
			c0.2,0.1,0.5,0.1,0.6,0.2L86,95.2c-0.2-0.1-0.3-0.1-0.6-0.2c-0.2-0.1-0.4-0.1-0.7-0.1c-0.3,0-0.5,0-0.6,0.2
			c-0.1,0.1-0.2,0.3-0.2,0.5c0,0.2,0.1,0.3,0.2,0.4s0.3,0.2,0.4,0.3c0.2,0.1,0.4,0.2,0.6,0.2c0.2,0.1,0.4,0.2,0.6,0.3
			s0.3,0.3,0.4,0.5c0.1,0.2,0.2,0.4,0.2,0.7c0,0.2,0,0.4-0.1,0.6S86,98.9,85.9,99c-0.1,0.1-0.3,0.2-0.5,0.3
			c-0.2,0.1-0.5,0.1-0.8,0.1c-0.4,0-0.7,0-1-0.1s-0.5-0.2-0.7-0.3l0.2-0.7c0.2,0.1,0.4,0.2,0.6,0.2c0.2,0.1,0.5,0.1,0.8,0.1
			c0.3,0,0.5-0.1,0.7-0.2S85.5,98.2,85.5,97.9z"/>
		<path class="st12" d="M90.9,99c-0.2,0.1-0.4,0.3-0.7,0.3c-0.3,0.1-0.6,0.1-0.9,0.1c-0.4,0-0.7-0.1-1-0.2c-0.3-0.1-0.5-0.3-0.7-0.5
			c-0.2-0.2-0.3-0.5-0.4-0.8s-0.1-0.7-0.1-1.1c0-0.8,0.2-1.5,0.6-1.9c0.4-0.4,0.9-0.7,1.6-0.7c0.3,0,0.6,0,0.8,0.1
			c0.2,0,0.4,0.1,0.6,0.2l-0.2,0.7c-0.2-0.1-0.3-0.2-0.5-0.2s-0.4-0.1-0.6-0.1c-0.9,0-1.4,0.6-1.4,1.9c0,0.3,0,0.5,0.1,0.7
			c0,0.2,0.1,0.4,0.3,0.6s0.3,0.3,0.5,0.4c0.2,0.1,0.4,0.2,0.7,0.2c0.2,0,0.5,0,0.6-0.1c0.2-0.1,0.3-0.2,0.5-0.3L90.9,99z"/>
		<path class="st12" d="M95.2,99.3v-2.8c0-0.3,0-0.5,0-0.7c0-0.2-0.1-0.4-0.2-0.5c-0.1-0.1-0.2-0.2-0.3-0.3
			c-0.1-0.1-0.3-0.1-0.5-0.1c-0.3,0-0.6,0.1-0.9,0.3c-0.3,0.2-0.4,0.5-0.5,0.8v3.3H92v-7h0.8v2.6h0c0.2-0.2,0.4-0.4,0.6-0.5
			c0.2-0.1,0.5-0.2,0.9-0.2c0.3,0,0.5,0,0.7,0.1c0.2,0.1,0.4,0.2,0.5,0.3c0.1,0.2,0.2,0.4,0.3,0.6c0.1,0.3,0.1,0.6,0.1,1v3H95.2z"/>
		<path class="st12" d="M101.1,98.9c-0.2,0.2-0.5,0.3-0.8,0.4c-0.3,0.1-0.6,0.1-1,0.1c-0.4,0-0.7-0.1-1-0.2
			c-0.3-0.1-0.5-0.3-0.7-0.5c-0.2-0.2-0.3-0.5-0.4-0.8c-0.1-0.3-0.1-0.7-0.1-1.1c0-0.9,0.2-1.5,0.6-2c0.4-0.4,0.9-0.7,1.6-0.7
			c0.2,0,0.5,0,0.7,0.1c0.2,0,0.4,0.1,0.6,0.3c0.2,0.1,0.3,0.3,0.4,0.6s0.2,0.6,0.2,1c0,0.2,0,0.5-0.1,0.7H98c0,0.3,0,0.6,0.1,0.8
			s0.2,0.4,0.3,0.6c0.1,0.2,0.3,0.3,0.5,0.4c0.2,0.1,0.5,0.1,0.7,0.1c0.2,0,0.5,0,0.7-0.1s0.4-0.2,0.5-0.3L101.1,98.9z M99.4,94.9
			c-0.4,0-0.7,0.1-0.9,0.3c-0.2,0.2-0.4,0.6-0.4,1.1h2.5c0-0.5-0.1-0.9-0.3-1.1C100.1,95,99.8,94.9,99.4,94.9z"/>
		<path class="st12" d="M106.4,97.6c0,0.3,0,0.6,0,0.9c0,0.3,0,0.5,0.1,0.8H106l-0.2-0.7h0c-0.1,0.2-0.3,0.4-0.6,0.6
			s-0.6,0.2-0.9,0.2c-0.7,0-1.2-0.2-1.5-0.6c-0.3-0.4-0.5-1.1-0.5-2c0-0.9,0.2-1.5,0.6-1.9c0.4-0.4,1-0.7,1.7-0.7c0.2,0,0.4,0,0.6,0
			c0.1,0,0.3,0.1,0.5,0.1v-2.1h0.8V97.6z M104.4,98.7c0.3,0,0.6-0.1,0.8-0.3c0.2-0.2,0.3-0.4,0.4-0.8v-2.5c-0.1-0.1-0.3-0.2-0.4-0.2
			s-0.4-0.1-0.6-0.1c-0.5,0-0.8,0.2-1.1,0.5c-0.3,0.3-0.4,0.8-0.4,1.5c0,0.3,0,0.5,0.1,0.8c0,0.2,0.1,0.4,0.2,0.6
			c0.1,0.2,0.2,0.3,0.4,0.4C104,98.7,104.2,98.7,104.4,98.7z"/>
		<path class="st12" d="M108.7,94.3v2.8c0,0.3,0,0.5,0,0.7c0,0.2,0.1,0.4,0.2,0.5c0.1,0.1,0.2,0.2,0.3,0.3c0.1,0.1,0.3,0.1,0.5,0.1
			c0.2,0,0.3,0,0.5-0.1c0.1-0.1,0.3-0.1,0.4-0.2c0.1-0.1,0.2-0.2,0.3-0.3c0.1-0.1,0.2-0.3,0.2-0.4v-3.3h0.8v3.6c0,0.2,0,0.5,0,0.7
			s0,0.5,0.1,0.7h-0.5l-0.2-0.8h0c-0.2,0.3-0.4,0.5-0.6,0.7c-0.3,0.2-0.6,0.3-1,0.3c-0.3,0-0.5,0-0.7-0.1c-0.2-0.1-0.4-0.2-0.5-0.3
			c-0.1-0.2-0.2-0.4-0.3-0.6c-0.1-0.3-0.1-0.6-0.1-1v-3H108.7z"/>
		<path class="st12" d="M114.2,98.1c0,0.2,0,0.4,0.1,0.5c0.1,0.1,0.2,0.2,0.3,0.2c0.1,0,0.2,0,0.3,0c0.1,0,0.2,0,0.3-0.1l0.1,0.6
			c-0.1,0.1-0.3,0.1-0.4,0.1c-0.2,0-0.4,0-0.5,0c-0.3,0-0.5-0.1-0.7-0.3s-0.3-0.5-0.3-0.9v-6h0.8V98.1z"/>
		<path class="st12" d="M119.9,98.9c-0.2,0.2-0.5,0.3-0.8,0.4c-0.3,0.1-0.6,0.1-1,0.1c-0.4,0-0.7-0.1-1-0.2
			c-0.3-0.1-0.5-0.3-0.7-0.5c-0.2-0.2-0.3-0.5-0.4-0.8c-0.1-0.3-0.1-0.7-0.1-1.1c0-0.9,0.2-1.5,0.6-2c0.4-0.4,0.9-0.7,1.6-0.7
			c0.2,0,0.5,0,0.7,0.1c0.2,0,0.4,0.1,0.6,0.3c0.2,0.1,0.3,0.3,0.4,0.6s0.2,0.6,0.2,1c0,0.2,0,0.5-0.1,0.7h-3.2c0,0.3,0,0.6,0.1,0.8
			s0.2,0.4,0.3,0.6c0.1,0.2,0.3,0.3,0.5,0.4c0.2,0.1,0.5,0.1,0.7,0.1c0.2,0,0.5,0,0.7-0.1s0.4-0.2,0.5-0.3L119.9,98.9z M118.2,94.9
			c-0.4,0-0.7,0.1-0.9,0.3c-0.2,0.2-0.4,0.6-0.4,1.1h2.5c0-0.5-0.1-0.9-0.3-1.1C118.8,95,118.6,94.9,118.2,94.9z"/>
		<path class="st12" d="M123.7,95.1c-0.2-0.1-0.4-0.1-0.6-0.1c-0.3,0-0.5,0.1-0.7,0.2c-0.2,0.2-0.3,0.4-0.3,0.6v3.5h-0.8v-5h0.6
			l0.1,0.6h0c0.1-0.2,0.3-0.4,0.5-0.5c0.2-0.1,0.4-0.2,0.7-0.2c0.2,0,0.4,0,0.6,0.1L123.7,95.1z"/>
	</g>
	<g class="st0">
		<path class="st12" d="M55.8,138.5c0.3-0.2,0.5-0.3,0.9-0.3c0.3-0.1,0.7-0.1,1.1-0.1c0.3,0,0.6,0,0.8,0.1c0.2,0.1,0.4,0.2,0.5,0.4
			c0.1,0.2,0.2,0.3,0.2,0.5s0.1,0.4,0.1,0.5c0,0.4,0,0.8,0,1.2s0,0.7,0,1.1c0,0.2,0,0.5,0,0.7s0.1,0.4,0.1,0.6h-0.6l-0.2-0.7h0
			c-0.1,0.1-0.1,0.2-0.2,0.3c-0.1,0.1-0.2,0.2-0.3,0.2s-0.3,0.1-0.4,0.2c-0.2,0-0.4,0.1-0.6,0.1s-0.4,0-0.6-0.1
			c-0.2-0.1-0.3-0.2-0.5-0.3c-0.1-0.1-0.2-0.3-0.3-0.4c-0.1-0.2-0.1-0.4-0.1-0.6c0-0.3,0.1-0.5,0.2-0.7c0.1-0.2,0.3-0.4,0.5-0.5
			c0.2-0.1,0.5-0.2,0.8-0.3s0.6-0.1,1-0.1c0.1,0,0.2,0,0.3,0c0.1,0,0.2,0,0.3,0c0-0.2,0-0.4,0-0.5c0-0.4-0.1-0.6-0.2-0.8
			c-0.1-0.1-0.4-0.2-0.8-0.2c-0.1,0-0.2,0-0.4,0c-0.1,0-0.3,0-0.4,0.1s-0.3,0.1-0.4,0.1c-0.1,0-0.2,0.1-0.3,0.1L55.8,138.5z
			 M57.2,142.5c0.2,0,0.4,0,0.5-0.1c0.1,0,0.3-0.1,0.4-0.2c0.1-0.1,0.2-0.2,0.3-0.3c0.1-0.1,0.1-0.2,0.2-0.3v-0.8
			c-0.1,0-0.2,0-0.3,0s-0.2,0-0.3,0c-0.2,0-0.4,0-0.6,0s-0.4,0.1-0.5,0.1c-0.1,0.1-0.3,0.1-0.4,0.3s-0.1,0.2-0.1,0.4
			c0,0.2,0.1,0.4,0.3,0.6C56.7,142.4,57,142.5,57.2,142.5z"/>
		<path class="st12" d="M63,141.7c0-0.2-0.1-0.4-0.2-0.5s-0.3-0.2-0.4-0.3c-0.2-0.1-0.4-0.1-0.6-0.2s-0.4-0.2-0.6-0.3
			c-0.2-0.1-0.3-0.3-0.4-0.4c-0.1-0.2-0.2-0.4-0.2-0.7c0-0.5,0.1-0.8,0.4-1.1c0.3-0.2,0.7-0.3,1.1-0.3c0.4,0,0.7,0,0.9,0.1
			c0.2,0.1,0.5,0.1,0.6,0.2l-0.2,0.7c-0.2-0.1-0.3-0.1-0.6-0.2c-0.2-0.1-0.4-0.1-0.7-0.1c-0.3,0-0.5,0-0.6,0.2
			c-0.1,0.1-0.2,0.3-0.2,0.5c0,0.2,0.1,0.3,0.2,0.4s0.3,0.2,0.4,0.3c0.2,0.1,0.4,0.2,0.6,0.2c0.2,0.1,0.4,0.2,0.6,0.3
			s0.3,0.3,0.4,0.5c0.1,0.2,0.2,0.4,0.2,0.7c0,0.2,0,0.4-0.1,0.6s-0.2,0.3-0.3,0.5c-0.1,0.1-0.3,0.2-0.5,0.3
			c-0.2,0.1-0.5,0.1-0.8,0.1c-0.4,0-0.7,0-1-0.1s-0.5-0.2-0.7-0.3l0.2-0.7c0.2,0.1,0.4,0.2,0.6,0.2c0.2,0.1,0.5,0.1,0.8,0.1
			c0.3,0,0.5-0.1,0.7-0.2S63,142,63,141.7z"/>
		<path class="st12" d="M66.5,141.3l0.3,1h0.1l0.2-1l1-3.2h0.8l-1.5,4.5c-0.1,0.3-0.2,0.6-0.3,1c-0.1,0.3-0.2,0.6-0.4,0.8
			c-0.1,0.2-0.3,0.4-0.5,0.6s-0.4,0.2-0.6,0.2c-0.2,0-0.4,0-0.6-0.1l0.1-0.7c0.1,0,0.2,0,0.3,0c0.2,0,0.4-0.1,0.5-0.3
			c0.2-0.2,0.3-0.5,0.4-1l-2-5h0.9L66.5,141.3z"/>
		<path class="st12" d="M72.9,143.1v-2.8c0-0.5-0.1-0.9-0.2-1.2c-0.1-0.3-0.4-0.4-0.8-0.4c-0.4,0-0.6,0.1-0.9,0.3
			c-0.2,0.2-0.4,0.4-0.5,0.7v3.4h-0.8v-5h0.6l0.1,0.6h0c0.2-0.2,0.4-0.4,0.6-0.5s0.6-0.2,1-0.2c0.3,0,0.5,0,0.7,0.1
			c0.2,0.1,0.4,0.2,0.5,0.3c0.1,0.2,0.2,0.4,0.3,0.6c0.1,0.3,0.1,0.6,0.1,1v3H72.9z"/>
		<path class="st12" d="M78.6,142.8c-0.2,0.1-0.4,0.3-0.7,0.3c-0.3,0.1-0.6,0.1-0.9,0.1c-0.4,0-0.7-0.1-1-0.2
			c-0.3-0.1-0.5-0.3-0.7-0.5c-0.2-0.2-0.3-0.5-0.4-0.8s-0.1-0.7-0.1-1.1c0-0.8,0.2-1.5,0.6-1.9c0.4-0.4,0.9-0.7,1.6-0.7
			c0.3,0,0.6,0,0.8,0.1c0.2,0,0.4,0.1,0.6,0.2l-0.2,0.7c-0.2-0.1-0.3-0.2-0.5-0.2s-0.4-0.1-0.6-0.1c-0.9,0-1.4,0.6-1.4,1.9
			c0,0.3,0,0.5,0.1,0.7c0,0.2,0.1,0.4,0.3,0.6s0.3,0.3,0.5,0.4c0.2,0.1,0.4,0.2,0.7,0.2c0.2,0,0.5,0,0.6-0.1
			c0.2-0.1,0.3-0.2,0.5-0.3L78.6,142.8z"/>
		<path class="st12" d="M82.9,143.1v-2.8c0-0.3,0-0.5,0-0.7c0-0.2-0.1-0.4-0.2-0.5c-0.1-0.1-0.2-0.2-0.3-0.3
			c-0.1-0.1-0.3-0.1-0.5-0.1c-0.3,0-0.6,0.1-0.9,0.3c-0.3,0.2-0.4,0.5-0.5,0.8v3.3h-0.8v-7h0.8v2.6h0c0.2-0.2,0.4-0.4,0.6-0.5
			c0.2-0.1,0.5-0.2,0.9-0.2c0.3,0,0.5,0,0.7,0.1c0.2,0.1,0.4,0.2,0.5,0.3c0.1,0.2,0.2,0.4,0.3,0.6c0.1,0.3,0.1,0.6,0.1,1v3H82.9z"/>
		<path class="st12" d="M87.5,138.9c-0.2-0.1-0.4-0.1-0.6-0.1c-0.3,0-0.5,0.1-0.7,0.2c-0.2,0.2-0.3,0.4-0.3,0.6v3.5h-0.8v-5h0.6
			l0.1,0.6h0c0.1-0.2,0.3-0.4,0.5-0.5c0.2-0.1,0.4-0.2,0.7-0.2c0.2,0,0.4,0,0.6,0.1L87.5,138.9z"/>
		<path class="st12" d="M88.3,140.6c0-0.8,0.2-1.5,0.6-1.9c0.4-0.4,0.9-0.7,1.6-0.7c0.4,0,0.7,0.1,1,0.2c0.3,0.1,0.5,0.3,0.7,0.5
			c0.2,0.2,0.3,0.5,0.4,0.8c0.1,0.3,0.1,0.7,0.1,1.1c0,0.8-0.2,1.5-0.6,1.9c-0.4,0.4-0.9,0.7-1.6,0.7c-0.4,0-0.7-0.1-1-0.2
			c-0.3-0.1-0.5-0.3-0.7-0.5c-0.2-0.2-0.3-0.5-0.4-0.8C88.3,141.3,88.3,141,88.3,140.6z M89.1,140.6c0,0.3,0,0.5,0.1,0.7
			s0.1,0.4,0.2,0.6c0.1,0.2,0.2,0.3,0.4,0.4c0.2,0.1,0.4,0.2,0.6,0.2c0.9,0,1.4-0.6,1.4-1.9c0-0.3,0-0.5-0.1-0.7
			c0-0.2-0.1-0.4-0.2-0.6c-0.1-0.2-0.2-0.3-0.4-0.4s-0.4-0.2-0.6-0.2C89.6,138.7,89.1,139.3,89.1,140.6z"/>
		<path class="st12" d="M97.1,143.1v-2.8c0-0.5-0.1-0.9-0.2-1.2c-0.1-0.3-0.4-0.4-0.8-0.4c-0.4,0-0.6,0.1-0.9,0.3
			c-0.2,0.2-0.4,0.4-0.5,0.7v3.4h-0.8v-5h0.6l0.1,0.6h0c0.2-0.2,0.4-0.4,0.6-0.5s0.6-0.2,1-0.2c0.3,0,0.5,0,0.7,0.1
			c0.2,0.1,0.4,0.2,0.5,0.3c0.1,0.2,0.2,0.4,0.3,0.6c0.1,0.3,0.1,0.6,0.1,1v3H97.1z"/>
		<path class="st12" d="M99.1,140.6c0-0.8,0.2-1.5,0.6-1.9c0.4-0.4,0.9-0.7,1.6-0.7c0.4,0,0.7,0.1,1,0.2c0.3,0.1,0.5,0.3,0.7,0.5
			c0.2,0.2,0.3,0.5,0.4,0.8c0.1,0.3,0.1,0.7,0.1,1.1c0,0.8-0.2,1.5-0.6,1.9c-0.4,0.4-0.9,0.7-1.6,0.7c-0.4,0-0.7-0.1-1-0.2
			c-0.3-0.1-0.5-0.3-0.7-0.5c-0.2-0.2-0.3-0.5-0.4-0.8C99.1,141.3,99.1,141,99.1,140.6z M99.9,140.6c0,0.3,0,0.5,0.1,0.7
			s0.1,0.4,0.2,0.6c0.1,0.2,0.2,0.3,0.4,0.4c0.2,0.1,0.4,0.2,0.6,0.2c0.9,0,1.4-0.6,1.4-1.9c0-0.3,0-0.5-0.1-0.7
			c0-0.2-0.1-0.4-0.2-0.6c-0.1-0.2-0.2-0.3-0.4-0.4s-0.4-0.2-0.6-0.2C100.4,138.7,99.9,139.3,99.9,140.6z"/>
		<path class="st12" d="M105.5,138.1v2.8c0,0.3,0,0.5,0,0.7c0,0.2,0.1,0.4,0.2,0.5c0.1,0.1,0.2,0.2,0.3,0.3c0.1,0.1,0.3,0.1,0.5,0.1
			c0.2,0,0.3,0,0.5-0.1c0.1-0.1,0.3-0.1,0.4-0.2c0.1-0.1,0.2-0.2,0.3-0.3c0.1-0.1,0.2-0.3,0.2-0.4v-3.3h0.8v3.6c0,0.2,0,0.5,0,0.7
			s0,0.5,0.1,0.7h-0.5l-0.2-0.8h0c-0.2,0.3-0.4,0.5-0.6,0.7c-0.3,0.2-0.6,0.3-1,0.3c-0.3,0-0.5,0-0.7-0.1c-0.2-0.1-0.4-0.2-0.5-0.3
			c-0.1-0.2-0.2-0.4-0.3-0.6c-0.1-0.3-0.1-0.6-0.1-1v-3H105.5z"/>
		<path class="st12" d="M112.3,141.7c0-0.2-0.1-0.4-0.2-0.5s-0.3-0.2-0.4-0.3c-0.2-0.1-0.4-0.1-0.6-0.2s-0.4-0.2-0.6-0.3
			c-0.2-0.1-0.3-0.3-0.4-0.4c-0.1-0.2-0.2-0.4-0.2-0.7c0-0.5,0.1-0.8,0.4-1.1c0.3-0.2,0.7-0.3,1.1-0.3c0.4,0,0.7,0,0.9,0.1
			c0.2,0.1,0.5,0.1,0.6,0.2l-0.2,0.7c-0.2-0.1-0.3-0.1-0.6-0.2c-0.2-0.1-0.4-0.1-0.7-0.1c-0.3,0-0.5,0-0.6,0.2
			c-0.1,0.1-0.2,0.3-0.2,0.5c0,0.2,0.1,0.3,0.2,0.4s0.3,0.2,0.4,0.3c0.2,0.1,0.4,0.2,0.6,0.2c0.2,0.1,0.4,0.2,0.6,0.3
			s0.3,0.3,0.4,0.5c0.1,0.2,0.2,0.4,0.2,0.7c0,0.2,0,0.4-0.1,0.6s-0.2,0.3-0.3,0.5c-0.1,0.1-0.3,0.2-0.5,0.3
			c-0.2,0.1-0.5,0.1-0.8,0.1c-0.4,0-0.7,0-1-0.1s-0.5-0.2-0.7-0.3l0.2-0.7c0.2,0.1,0.4,0.2,0.6,0.2c0.2,0.1,0.5,0.1,0.8,0.1
			c0.3,0,0.5-0.1,0.7-0.2S112.3,142,112.3,141.7z"/>
		<path class="st12" d="M119.2,141.7c0-0.2-0.1-0.4-0.2-0.5s-0.3-0.2-0.4-0.3c-0.2-0.1-0.4-0.1-0.6-0.2s-0.4-0.2-0.6-0.3
			c-0.2-0.1-0.3-0.3-0.4-0.4c-0.1-0.2-0.2-0.4-0.2-0.7c0-0.5,0.1-0.8,0.4-1.1c0.3-0.2,0.7-0.3,1.1-0.3c0.4,0,0.7,0,0.9,0.1
			c0.2,0.1,0.5,0.1,0.6,0.2l-0.2,0.7c-0.2-0.1-0.3-0.1-0.6-0.2c-0.2-0.1-0.4-0.1-0.7-0.1c-0.3,0-0.5,0-0.6,0.2
			c-0.1,0.1-0.2,0.3-0.2,0.5c0,0.2,0.1,0.3,0.2,0.4s0.3,0.2,0.4,0.3c0.2,0.1,0.4,0.2,0.6,0.2c0.2,0.1,0.4,0.2,0.6,0.3
			s0.3,0.3,0.4,0.5c0.1,0.2,0.2,0.4,0.2,0.7c0,0.2,0,0.4-0.1,0.6s-0.2,0.3-0.3,0.5c-0.1,0.1-0.3,0.2-0.5,0.3
			c-0.2,0.1-0.5,0.1-0.8,0.1c-0.4,0-0.7,0-1-0.1s-0.5-0.2-0.7-0.3l0.2-0.7c0.2,0.1,0.4,0.2,0.6,0.2c0.2,0.1,0.5,0.1,0.8,0.1
			c0.3,0,0.5-0.1,0.7-0.2S119.2,142,119.2,141.7z"/>
		<path class="st12" d="M122.7,141.3l0.3,1h0.1l0.2-1l1-3.2h0.8l-1.5,4.5c-0.1,0.3-0.2,0.6-0.3,1c-0.1,0.3-0.2,0.6-0.4,0.8
			c-0.1,0.2-0.3,0.4-0.5,0.6s-0.4,0.2-0.6,0.2c-0.2,0-0.4,0-0.6-0.1l0.1-0.7c0.1,0,0.2,0,0.3,0c0.2,0,0.4-0.1,0.5-0.3
			c0.2-0.2,0.3-0.5,0.4-1l-2-5h0.9L122.7,141.3z"/>
		<path class="st12" d="M128.1,141.7c0-0.2-0.1-0.4-0.2-0.5s-0.3-0.2-0.4-0.3c-0.2-0.1-0.4-0.1-0.6-0.2s-0.4-0.2-0.6-0.3
			c-0.2-0.1-0.3-0.3-0.4-0.4c-0.1-0.2-0.2-0.4-0.2-0.7c0-0.5,0.1-0.8,0.4-1.1c0.3-0.2,0.7-0.3,1.1-0.3c0.4,0,0.7,0,0.9,0.1
			c0.2,0.1,0.5,0.1,0.6,0.2l-0.2,0.7c-0.2-0.1-0.3-0.1-0.6-0.2c-0.2-0.1-0.4-0.1-0.7-0.1c-0.3,0-0.5,0-0.6,0.2
			c-0.1,0.1-0.2,0.3-0.2,0.5c0,0.2,0.1,0.3,0.2,0.4s0.3,0.2,0.4,0.3c0.2,0.1,0.4,0.2,0.6,0.2c0.2,0.1,0.4,0.2,0.6,0.3
			s0.3,0.3,0.4,0.5c0.1,0.2,0.2,0.4,0.2,0.7c0,0.2,0,0.4-0.1,0.6s-0.2,0.3-0.3,0.5c-0.1,0.1-0.3,0.2-0.5,0.3
			c-0.2,0.1-0.5,0.1-0.8,0.1c-0.4,0-0.7,0-1-0.1s-0.5-0.2-0.7-0.3l0.2-0.7c0.2,0.1,0.4,0.2,0.6,0.2c0.2,0.1,0.5,0.1,0.8,0.1
			c0.3,0,0.5-0.1,0.7-0.2S128.1,142,128.1,141.7z"/>
		<path class="st12" d="M133.5,142.8c-0.2,0.1-0.4,0.3-0.7,0.3c-0.3,0.1-0.6,0.1-0.9,0.1c-0.4,0-0.7-0.1-1-0.2
			c-0.3-0.1-0.5-0.3-0.7-0.5c-0.2-0.2-0.3-0.5-0.4-0.8s-0.1-0.7-0.1-1.1c0-0.8,0.2-1.5,0.6-1.9c0.4-0.4,0.9-0.7,1.6-0.7
			c0.3,0,0.6,0,0.8,0.1c0.2,0,0.4,0.1,0.6,0.2l-0.2,0.7c-0.2-0.1-0.3-0.2-0.5-0.2s-0.4-0.1-0.6-0.1c-0.9,0-1.4,0.6-1.4,1.9
			c0,0.3,0,0.5,0.1,0.7c0,0.2,0.1,0.4,0.3,0.6s0.3,0.3,0.5,0.4c0.2,0.1,0.4,0.2,0.7,0.2c0.2,0,0.5,0,0.6-0.1
			c0.2-0.1,0.3-0.2,0.5-0.3L133.5,142.8z"/>
		<path class="st12" d="M134.5,138.5c0.3-0.2,0.5-0.3,0.9-0.3c0.3-0.1,0.7-0.1,1.1-0.1c0.3,0,0.6,0,0.8,0.1c0.2,0.1,0.4,0.2,0.5,0.4
			c0.1,0.2,0.2,0.3,0.2,0.5s0.1,0.4,0.1,0.5c0,0.4,0,0.8,0,1.2s0,0.7,0,1.1c0,0.2,0,0.5,0,0.7s0.1,0.4,0.1,0.6h-0.6l-0.2-0.7h0
			c-0.1,0.1-0.1,0.2-0.2,0.3c-0.1,0.1-0.2,0.2-0.3,0.2s-0.3,0.1-0.4,0.2c-0.2,0-0.4,0.1-0.6,0.1s-0.4,0-0.6-0.1
			c-0.2-0.1-0.3-0.2-0.5-0.3c-0.1-0.1-0.2-0.3-0.3-0.4c-0.1-0.2-0.1-0.4-0.1-0.6c0-0.3,0.1-0.5,0.2-0.7c0.1-0.2,0.3-0.4,0.5-0.5
			c0.2-0.1,0.5-0.2,0.8-0.3s0.6-0.1,1-0.1c0.1,0,0.2,0,0.3,0c0.1,0,0.2,0,0.3,0c0-0.2,0-0.4,0-0.5c0-0.4-0.1-0.6-0.2-0.8
			c-0.1-0.1-0.4-0.2-0.8-0.2c-0.1,0-0.2,0-0.4,0c-0.1,0-0.3,0-0.4,0.1s-0.3,0.1-0.4,0.1c-0.1,0-0.2,0.1-0.3,0.1L134.5,138.5z
			 M135.9,142.5c0.2,0,0.4,0,0.5-0.1c0.1,0,0.3-0.1,0.4-0.2c0.1-0.1,0.2-0.2,0.3-0.3c0.1-0.1,0.1-0.2,0.2-0.3v-0.8
			c-0.1,0-0.2,0-0.3,0s-0.2,0-0.3,0c-0.2,0-0.4,0-0.6,0s-0.4,0.1-0.5,0.1c-0.1,0.1-0.3,0.1-0.4,0.3s-0.1,0.2-0.1,0.4
			c0,0.2,0.1,0.4,0.3,0.6C135.5,142.4,135.7,142.5,135.9,142.5z"/>
		<path class="st12" d="M140.4,141.9c0,0.2,0,0.4,0.1,0.5c0.1,0.1,0.2,0.2,0.3,0.2c0.1,0,0.2,0,0.3,0c0.1,0,0.2,0,0.3-0.1l0.1,0.6
			c-0.1,0.1-0.3,0.1-0.4,0.1c-0.2,0-0.4,0-0.5,0c-0.3,0-0.5-0.1-0.7-0.3s-0.3-0.5-0.3-0.9v-6h0.8V141.9z"/>
		<path class="st12" d="M143.4,141.9c0,0.2,0,0.4,0.1,0.5c0.1,0.1,0.2,0.2,0.3,0.2c0.1,0,0.2,0,0.3,0c0.1,0,0.2,0,0.3-0.1l0.1,0.6
			c-0.1,0.1-0.3,0.1-0.4,0.1c-0.2,0-0.4,0-0.5,0c-0.3,0-0.5-0.1-0.7-0.3s-0.3-0.5-0.3-0.9v-6h0.8V141.9z"/>
		<path class="st12" d="M147.6,141.7c0-0.2-0.1-0.4-0.2-0.5s-0.3-0.2-0.4-0.3c-0.2-0.1-0.4-0.1-0.6-0.2s-0.4-0.2-0.6-0.3
			c-0.2-0.1-0.3-0.3-0.4-0.4c-0.1-0.2-0.2-0.4-0.2-0.7c0-0.5,0.1-0.8,0.4-1.1c0.3-0.2,0.7-0.3,1.1-0.3c0.4,0,0.7,0,0.9,0.1
			c0.2,0.1,0.5,0.1,0.6,0.2l-0.2,0.7c-0.2-0.1-0.3-0.1-0.6-0.2c-0.2-0.1-0.4-0.1-0.7-0.1c-0.3,0-0.5,0-0.6,0.2
			c-0.1,0.1-0.2,0.3-0.2,0.5c0,0.2,0.1,0.3,0.2,0.4s0.3,0.2,0.4,0.3c0.2,0.1,0.4,0.2,0.6,0.2c0.2,0.1,0.4,0.2,0.6,0.3
			s0.3,0.3,0.4,0.5c0.1,0.2,0.2,0.4,0.2,0.7c0,0.2,0,0.4-0.1,0.6s-0.2,0.3-0.3,0.5c-0.1,0.1-0.3,0.2-0.5,0.3
			c-0.2,0.1-0.5,0.1-0.8,0.1c-0.4,0-0.7,0-1-0.1s-0.5-0.2-0.7-0.3l0.2-0.7c0.2,0.1,0.4,0.2,0.6,0.2c0.2,0.1,0.5,0.1,0.8,0.1
			c0.3,0,0.5-0.1,0.7-0.2S147.6,142,147.6,141.7z"/>
	</g>
</g>
</svg>
