<?xml version="1.0" encoding="utf-8"?>
<!-- Generator: Adobe Illustrator 24.0.0, SVG Export Plug-In . SVG Version: 6.00 Build 0)  -->
<svg version="1.1" id="Ebene_1" xmlns="http://www.w3.org/2000/svg" xmlns:xlink="http://www.w3.org/1999/xlink" x="0px" y="0px"
	 viewBox="0 0 583.5 310.4" style="enable-background:new 0 0 583.5 310.4;" xml:space="preserve">
<style type="text/css">
	.st0{opacity:0.2;fill:#FFCC99;enable-background:new    ;}
	.st1{fill:none;stroke:#CC3300;stroke-width:2;stroke-miterlimit:10;stroke-dasharray:2,2;}
	.st2{enable-background:new    ;}
	.st3{fill:#330066;}
	.st4{fill:none;stroke:#FF6633;stroke-width:2;stroke-linecap:round;stroke-linejoin:round;}
	.st5{fill:#FF6633;}
	.st6{fill:#FFFFFF;}
	.st7{fill:none;stroke:#330066;stroke-width:2;stroke-miterlimit:10;}
	.st8{fill:url(#SVGID_1_);stroke:#FFCC00;stroke-width:2;stroke-miterlimit:10;}
	.st9{fill:#FFCC00;}
	.st10{fill:none;stroke:#FFCC00;stroke-width:2;stroke-miterlimit:10;}
	.st11{fill:none;stroke:#FFCC00;stroke-width:2;stroke-miterlimit:10;stroke-dasharray:1.97,1.97;}
	.st12{fill:#CC3300;}
	.st13{fill:#FFFFFF;stroke:#CC3300;stroke-width:2;stroke-miterlimit:10;}
	.st14{fill:none;stroke:#CC3300;stroke-width:2;stroke-miterlimit:10;}
	.st15{fill:none;stroke:#330066;stroke-linejoin:round;}
	.st16{fill:none;stroke:#330066;stroke-linecap:round;stroke-linejoin:round;}
</style>
<g id="Ebene_2_1_">
	<path class="st0" d="M43.2,40.7h500c2.8,0,5,2.2,5,5v244.4c0,2.8-2.2,5-5,5h-500c-2.8,0-5-2.2-5-5V45.7
		C38.2,42.9,40.4,40.7,43.2,40.7z"/>
	<path class="st1" d="M43.2,39.1h500c2.8,0,5,2.2,5,5v247.5c0,2.8-2.2,5-5,5h-500c-2.8,0-5-2.2-5-5V44.1
		C38.2,41.3,40.4,39.1,43.2,39.1z"/>
	<g class="st2">
		<path class="st3" d="M517.6,30l1-0.2v-8.4l-1.1-0.2v-1.3h3.3v4.5c0.2-0.4,0.6-0.7,0.9-0.9c0.4-0.2,0.8-0.3,1.2-0.3
			c0.8,0,1.5,0.3,2,0.8c0.5,0.5,0.7,1.4,0.7,2.5v3.2l1,0.2v1.3h-4.1V30l0.9-0.2v-3.2c0-0.6-0.1-1.1-0.3-1.3c-0.2-0.3-0.5-0.4-1-0.4
			c-0.3,0-0.6,0.1-0.8,0.2c-0.2,0.1-0.4,0.3-0.6,0.5v4.3l0.9,0.2v1.3h-4.1V30z"/>
	</g>
	<g class="st2">
		<path class="st3" d="M527.1,27.3c0-1.2,0.3-2.2,1-2.9c0.7-0.8,1.6-1.1,2.7-1.1c1.2,0,2.1,0.4,2.8,1.1c0.7,0.8,1,1.7,1,2.9v0.2
			c0,1.2-0.3,2.2-1,2.9c-0.7,0.8-1.6,1.1-2.7,1.1c-1.2,0-2.1-0.4-2.8-1.1c-0.7-0.7-1-1.7-1-2.9V27.3z M529.3,27.4
			c0,0.7,0.1,1.3,0.4,1.7c0.3,0.4,0.7,0.7,1.2,0.7c0.6,0,1-0.2,1.2-0.7c0.3-0.4,0.4-1,0.4-1.7v-0.2c0-0.7-0.1-1.3-0.4-1.7
			s-0.7-0.7-1.2-0.7s-1,0.2-1.2,0.7s-0.4,1-0.4,1.7V27.4z"/>
		<path class="st3" d="M542,26.1h-1.4l-0.2-1c-0.1-0.1-0.3-0.2-0.6-0.3c-0.2-0.1-0.5-0.1-0.7-0.1c-0.4,0-0.7,0.1-0.9,0.3
			c-0.2,0.2-0.3,0.4-0.3,0.6c0,0.2,0.1,0.4,0.3,0.6c0.2,0.2,0.6,0.3,1.3,0.4c1,0.2,1.7,0.5,2.2,0.9c0.5,0.4,0.7,0.9,0.7,1.6
			c0,0.7-0.3,1.3-0.9,1.7c-0.6,0.5-1.4,0.7-2.4,0.7c-0.6,0-1.2-0.1-1.7-0.3c-0.5-0.2-1-0.4-1.4-0.8l0-1.8h1.5l0.3,1
			c0.1,0.1,0.3,0.2,0.5,0.2c0.2,0.1,0.4,0.1,0.7,0.1c0.4,0,0.8-0.1,1-0.2c0.2-0.2,0.3-0.4,0.3-0.6c0-0.2-0.1-0.4-0.3-0.6
			c-0.2-0.2-0.7-0.3-1.3-0.5c-0.9-0.2-1.6-0.5-2.1-0.8c-0.5-0.4-0.7-0.9-0.7-1.5c0-0.7,0.3-1.2,0.8-1.7c0.5-0.5,1.3-0.7,2.3-0.7
			c0.6,0,1.2,0.1,1.7,0.2c0.5,0.2,1,0.4,1.3,0.6L542,26.1z"/>
		<path class="st3" d="M546.4,21.4v1.9h1.4v1.5h-1.4v4c0,0.3,0.1,0.5,0.2,0.7s0.3,0.2,0.5,0.2c0.1,0,0.3,0,0.4,0
			c0.1,0,0.2,0,0.4-0.1l0.2,1.5c-0.2,0.1-0.5,0.1-0.7,0.2c-0.2,0-0.5,0.1-0.8,0.1c-0.7,0-1.3-0.2-1.7-0.6c-0.4-0.4-0.6-1-0.6-1.9v-4
			h-1.2v-1.5h1.2v-1.9H546.4z"/>
	</g>
	<path class="st4" d="M502.5,29.8h-4.3c-0.6,0-0.8-0.2-0.8-0.8v-6.5c0-0.6,0.2-0.8,0.8-0.8h8.5c0.5,0,0.8,0.2,0.8,0.8V29
		c0,0.5-0.2,0.8-0.8,0.8C505.3,29.9,503.9,29.8,502.5,29.8z"/>
	<path class="st4" d="M501.1,13.6c1.6-0.7,3.5-0.5,4.9,0.7c1.7,1.6,1.9,4.2,0.3,5.9c-0.2,0.2-0.4,0.4-0.5,0.5
		c-0.3,0.3-0.6,0.4-1,0.7"/>
	<path class="st5" d="M501.8,27.1L501.8,27.1V28c0,0.2,0.1,0.2,0.3,0.2h0.8c0.2,0,0.3-0.1,0.3-0.3v-1.6c0-0.2,0.1-0.3,0.2-0.4
		c0.5-0.3,0.8-0.9,0.6-1.5c-0.2-0.6-0.8-1-1.5-1c-0.7-0.1-1.3,0.3-1.6,0.9c-0.2,0.6,0,1.2,0.5,1.5c0.2,0.1,0.3,0.3,0.3,0.5
		C501.8,26.6,501.8,26.8,501.8,27.1z"/>
	<g class="st2">
		<path class="st3" d="M197.7,253.1l0.7-0.1l2.8-8h1.9l2.8,8l0.7,0.1v1.1h-3.1v-1.1l0.6-0.1l-0.4-1.3h-3l-0.4,1.3l0.6,0.1v1.1h-3.1
			V253.1z M201,250.3h2.1l-1-3.3h0L201,250.3z"/>
	</g>
	<g class="st2">
		<path class="st3" d="M209.1,245.6v1.7h1.2v1.3h-1.2v3.5c0,0.3,0.1,0.5,0.2,0.6c0.1,0.1,0.3,0.2,0.4,0.2c0.1,0,0.2,0,0.3,0
			c0.1,0,0.2,0,0.3-0.1l0.2,1.3c-0.2,0.1-0.4,0.1-0.6,0.1c-0.2,0-0.4,0-0.7,0c-0.6,0-1.1-0.2-1.5-0.5s-0.5-0.9-0.5-1.7v-3.5h-1v-1.3
			h1v-1.7H209.1z"/>
		<path class="st3" d="M214,245.6v1.7h1.2v1.3H214v3.5c0,0.3,0.1,0.5,0.2,0.6c0.1,0.1,0.3,0.2,0.4,0.2c0.1,0,0.2,0,0.3,0
			c0.1,0,0.2,0,0.3-0.1l0.2,1.3c-0.2,0.1-0.4,0.1-0.6,0.1c-0.2,0-0.4,0-0.7,0c-0.6,0-1.1-0.2-1.5-0.5s-0.5-0.9-0.5-1.7v-3.5h-1v-1.3
			h1v-1.7H214z"/>
		<path class="st3" d="M220.5,254.2c-0.1-0.1-0.1-0.2-0.1-0.4c0-0.1-0.1-0.2-0.1-0.4c-0.2,0.3-0.5,0.5-0.8,0.6s-0.7,0.2-1.1,0.2
			c-0.7,0-1.2-0.2-1.6-0.5c-0.4-0.4-0.6-0.9-0.6-1.5c0-0.6,0.3-1.1,0.8-1.5c0.5-0.4,1.3-0.5,2.3-0.5h0.9v-0.7c0-0.3-0.1-0.6-0.3-0.8
			s-0.5-0.3-0.8-0.3c-0.2,0-0.4,0-0.6,0.1s-0.3,0.1-0.4,0.2l-0.1,0.7h-1.4l0-1.5c0.3-0.2,0.7-0.4,1.2-0.6c0.4-0.2,0.9-0.2,1.4-0.2
			c0.9,0,1.5,0.2,2.1,0.6s0.8,1,0.8,1.8v2.8c0,0.1,0,0.2,0,0.3c0,0.1,0,0.2,0,0.3l0.6,0.1v1.1H220.5z M218.9,252.9
			c0.3,0,0.5-0.1,0.8-0.2c0.2-0.1,0.4-0.3,0.5-0.5v-1h-0.9c-0.4,0-0.7,0.1-0.9,0.3c-0.2,0.2-0.3,0.4-0.3,0.7c0,0.2,0.1,0.4,0.2,0.5
			S218.6,252.9,218.9,252.9z"/>
		<path class="st3" d="M226.5,252.9c0.3,0,0.6-0.1,0.8-0.3c0.2-0.2,0.3-0.5,0.3-0.8h1.7l0,0c0,0.7-0.2,1.3-0.8,1.7
			c-0.5,0.5-1.2,0.7-2,0.7c-1,0-1.8-0.3-2.4-1c-0.6-0.6-0.8-1.5-0.8-2.5v-0.2c0-1,0.3-1.8,0.9-2.5s1.4-1,2.4-1
			c0.6,0,1.1,0.1,1.5,0.2c0.4,0.2,0.8,0.4,1.1,0.7l0,1.8h-1.5l-0.3-1.1c-0.1-0.1-0.2-0.1-0.3-0.2c-0.1-0.1-0.3-0.1-0.5-0.1
			c-0.5,0-0.9,0.2-1.1,0.6s-0.3,0.9-0.3,1.5v0.2c0,0.6,0.1,1.1,0.3,1.5C225.6,252.7,226,252.9,226.5,252.9z"/>
	</g>
	<g class="st2">
		<path class="st3" d="M229.9,245.4v-1.1h2.8v5.7h0.4l1.1-1.5l-0.6-0.1v-1.1h3.4v1.1l-0.8,0.2l-1.2,1.7l1.7,2.6l0.7,0.1v1.1h-3.2
			v-1.1l0.4-0.1l-1.1-1.7h-0.8v1.6l0.8,0.2v1.1H230v-1.1l0.9-0.2v-7.3L229.9,245.4z"/>
	</g>
	<g class="st2">
		<path class="st3" d="M241.2,254.3c-1,0-1.8-0.3-2.4-1s-0.9-1.4-0.9-2.4v-0.3c0-1,0.3-1.9,0.8-2.5c0.6-0.7,1.3-1,2.3-1
			c0.9,0,1.6,0.3,2.2,0.8s0.8,1.3,0.8,2.3v1h-4.1l0,0c0,0.5,0.2,0.8,0.5,1.1c0.3,0.3,0.6,0.4,1.1,0.4c0.4,0,0.8,0,1-0.1
			c0.3-0.1,0.6-0.2,0.9-0.4l0.5,1.1c-0.3,0.2-0.7,0.4-1.1,0.6C242.2,254.2,241.7,254.3,241.2,254.3z M241,248.6
			c-0.3,0-0.6,0.1-0.8,0.4c-0.2,0.3-0.3,0.6-0.4,1l0,0h2.3v-0.2c0-0.4-0.1-0.7-0.3-0.9C241.7,248.7,241.4,248.6,241,248.6z"/>
		<path class="st3" d="M244.9,253.1l0.9-0.2v-4.3l-1-0.2v-1.1h2.7l0.1,1c0.2-0.4,0.4-0.6,0.6-0.8c0.3-0.2,0.5-0.3,0.9-0.3
			c0.1,0,0.2,0,0.3,0c0.1,0,0.2,0,0.3,0.1l-0.2,1.7l-0.8,0c-0.3,0-0.5,0.1-0.7,0.2s-0.3,0.3-0.4,0.5v3.3l0.9,0.2v1.1h-3.6V253.1z"/>
	</g>
	<g class="st2">
		<path class="st3" d="M185.6,266c0-1.7,0.3-3.1,1-4.3c0.7-1.2,1.4-2,2.1-2.4l0,0l0.2,0.7c-0.6,0.5-1.1,1.2-1.5,2.2
			c-0.4,1-0.6,2.2-0.6,3.7v0.1c0,1.5,0.2,2.7,0.6,3.7c0.4,1,0.9,1.7,1.5,2.2l-0.2,0.7h0c-0.7-0.4-1.4-1.2-2.1-2.4
			C185.9,269.2,185.6,267.7,185.6,266L185.6,266z"/>
	</g>
	<g class="st2">
		<path class="st3" d="M189.6,263.7v-0.8h2.2l0.1,1c0.2-0.4,0.4-0.6,0.7-0.8c0.3-0.2,0.6-0.3,1-0.3c0.1,0,0.2,0,0.3,0
			c0.1,0,0.2,0,0.2,0L194,264l-0.7,0c-0.3,0-0.6,0.1-0.8,0.2s-0.4,0.4-0.5,0.7v3.9l1,0.2v0.8h-3.3V269l1-0.2v-4.9L189.6,263.7z"/>
	</g>
	<g class="st2">
		<path class="st3" d="M194.9,266.3c0-1,0.3-1.9,0.8-2.5s1.3-1,2.2-1c0.9,0,1.7,0.3,2.3,1c0.6,0.7,0.8,1.5,0.8,2.5v0.1
			c0,1-0.3,1.9-0.8,2.5s-1.3,1-2.2,1c-1,0-1.7-0.3-2.3-1c-0.6-0.7-0.8-1.5-0.8-2.5V266.3z M196.1,266.4c0,0.7,0.2,1.3,0.5,1.8
			c0.3,0.5,0.8,0.7,1.4,0.7c0.6,0,1-0.2,1.4-0.7s0.5-1.1,0.5-1.8v-0.1c0-0.7-0.2-1.3-0.5-1.8s-0.8-0.7-1.4-0.7s-1.1,0.2-1.4,0.7
			s-0.5,1.1-0.5,1.8V266.4z"/>
		<path class="st3" d="M202.2,266.3c0-1,0.3-1.9,0.8-2.5s1.3-1,2.2-1c0.9,0,1.7,0.3,2.3,1c0.6,0.7,0.8,1.5,0.8,2.5v0.1
			c0,1-0.3,1.9-0.8,2.5s-1.3,1-2.2,1c-1,0-1.7-0.3-2.3-1c-0.6-0.7-0.8-1.5-0.8-2.5V266.3z M203.4,266.4c0,0.7,0.2,1.3,0.5,1.8
			c0.3,0.5,0.8,0.7,1.4,0.7c0.6,0,1-0.2,1.4-0.7s0.5-1.1,0.5-1.8v-0.1c0-0.7-0.2-1.3-0.5-1.8s-0.8-0.7-1.4-0.7s-1.1,0.2-1.4,0.7
			s-0.5,1.1-0.5,1.8V266.4z"/>
		<path class="st3" d="M211.6,261.2v1.7h1.3v0.9h-1.3v4.2c0,0.3,0.1,0.5,0.2,0.7c0.1,0.1,0.3,0.2,0.5,0.2c0.1,0,0.2,0,0.4,0
			c0.1,0,0.3,0,0.3-0.1l0.2,0.9c-0.1,0.1-0.3,0.1-0.5,0.2s-0.5,0.1-0.7,0.1c-0.5,0-0.9-0.2-1.2-0.5s-0.5-0.8-0.5-1.4v-4.2h-1.1v-0.9
			h1.1v-1.7H211.6z"/>
		<path class="st3" d="M221.9,269.8c0-0.2-0.1-0.4-0.1-0.5c0-0.1,0-0.3,0-0.4c-0.2,0.3-0.5,0.6-0.9,0.8c-0.4,0.2-0.7,0.3-1.2,0.3
			c-0.7,0-1.3-0.2-1.6-0.5c-0.4-0.3-0.6-0.8-0.6-1.5c0-0.7,0.3-1.2,0.8-1.5c0.5-0.4,1.2-0.5,2.2-0.5h1.3v-0.8c0-0.4-0.1-0.7-0.4-1
			s-0.6-0.4-1.1-0.4c-0.3,0-0.6,0-0.8,0.1c-0.2,0.1-0.4,0.2-0.6,0.3l-0.1,0.7h-1v-1.3c0.3-0.3,0.7-0.4,1.1-0.6s0.9-0.2,1.4-0.2
			c0.8,0,1.4,0.2,1.9,0.6c0.5,0.4,0.7,1,0.7,1.7v3.3c0,0.1,0,0.2,0,0.3c0,0.1,0,0.2,0,0.3l0.5,0.1v0.8H221.9z M219.9,268.9
			c0.4,0,0.8-0.1,1.1-0.3c0.3-0.2,0.6-0.4,0.7-0.7v-1.1h-1.3c-0.5,0-0.9,0.1-1.2,0.4c-0.3,0.2-0.4,0.5-0.4,0.9
			c0,0.3,0.1,0.5,0.3,0.7C219.2,268.8,219.5,268.9,219.9,268.9z"/>
		<path class="st3" d="M227.7,268.9c0.4,0,0.8-0.1,1.1-0.4c0.3-0.3,0.5-0.6,0.5-0.9h1.1l0,0c0,0.6-0.2,1.1-0.8,1.6
			c-0.5,0.5-1.2,0.7-1.9,0.7c-1,0-1.8-0.3-2.3-1c-0.5-0.7-0.8-1.5-0.8-2.5v-0.3c0-1,0.3-1.8,0.8-2.4s1.3-1,2.3-1
			c0.6,0,1,0.1,1.5,0.3c0.4,0.2,0.8,0.4,1.1,0.8l0.1,1.5h-1l-0.3-1.1c-0.1-0.1-0.3-0.3-0.6-0.3c-0.2-0.1-0.5-0.1-0.8-0.1
			c-0.7,0-1.1,0.2-1.4,0.7c-0.3,0.5-0.4,1.1-0.4,1.7v0.3c0,0.7,0.1,1.3,0.4,1.8C226.5,268.7,227,268.9,227.7,268.9z"/>
		<path class="st3" d="M234.7,268.9c0.4,0,0.8-0.1,1.1-0.4c0.3-0.3,0.5-0.6,0.5-0.9h1.1l0,0c0,0.6-0.2,1.1-0.8,1.6
			c-0.5,0.5-1.2,0.7-1.9,0.7c-1,0-1.8-0.3-2.3-1c-0.5-0.7-0.8-1.5-0.8-2.5v-0.3c0-1,0.3-1.8,0.8-2.4s1.3-1,2.3-1
			c0.6,0,1,0.1,1.5,0.3c0.4,0.2,0.8,0.4,1.1,0.8l0.1,1.5h-1l-0.3-1.1c-0.1-0.1-0.3-0.3-0.6-0.3c-0.2-0.1-0.5-0.1-0.8-0.1
			c-0.7,0-1.1,0.2-1.4,0.7c-0.3,0.5-0.4,1.1-0.4,1.7v0.3c0,0.7,0.1,1.3,0.4,1.8C233.6,268.7,234,268.9,234.7,268.9z"/>
		<path class="st3" d="M241.7,269.9c-1,0-1.7-0.3-2.3-1c-0.6-0.6-0.8-1.5-0.8-2.5v-0.3c0-1,0.3-1.8,0.9-2.4c0.6-0.7,1.3-1,2.1-1
			c0.9,0,1.6,0.3,2.1,0.8c0.5,0.6,0.7,1.3,0.7,2.2v0.8h-4.5l0,0c0,0.7,0.2,1.2,0.5,1.6c0.3,0.4,0.8,0.6,1.4,0.6
			c0.4,0,0.8-0.1,1.1-0.2c0.3-0.1,0.6-0.3,0.8-0.5l0.5,0.8c-0.2,0.2-0.6,0.4-1,0.6C242.8,269.8,242.3,269.9,241.7,269.9z
			 M241.6,263.8c-0.4,0-0.8,0.2-1.1,0.5s-0.5,0.8-0.5,1.3l0,0h3.2v-0.2c0-0.5-0.1-0.9-0.4-1.2S242.1,263.8,241.6,263.8z"/>
		<path class="st3" d="M250.9,265.1h-0.9l-0.2-0.8c-0.2-0.1-0.3-0.3-0.6-0.3c-0.2-0.1-0.5-0.1-0.8-0.1c-0.4,0-0.8,0.1-1,0.3
			s-0.3,0.4-0.3,0.7c0,0.3,0.1,0.5,0.3,0.6s0.6,0.3,1.2,0.4c0.9,0.2,1.5,0.4,1.9,0.8c0.4,0.3,0.6,0.7,0.6,1.3c0,0.6-0.2,1.1-0.7,1.5
			c-0.5,0.4-1.1,0.6-1.9,0.6c-0.5,0-1-0.1-1.4-0.2s-0.8-0.3-1.1-0.5l0-1.6h0.9l0.2,0.9c0.1,0.1,0.3,0.2,0.6,0.3
			c0.2,0.1,0.5,0.1,0.8,0.1c0.4,0,0.8-0.1,1-0.3c0.3-0.2,0.4-0.4,0.4-0.7c0-0.3-0.1-0.5-0.3-0.7c-0.2-0.2-0.6-0.3-1.2-0.5
			c-0.8-0.2-1.5-0.4-1.9-0.7c-0.4-0.3-0.6-0.7-0.6-1.3c0-0.6,0.2-1,0.7-1.4c0.5-0.4,1.1-0.6,1.9-0.6c0.5,0,1,0.1,1.4,0.2
			c0.4,0.1,0.8,0.3,1,0.6L250.9,265.1z"/>
		<path class="st3" d="M257.5,265.1h-0.9l-0.2-0.8c-0.2-0.1-0.3-0.3-0.6-0.3c-0.2-0.1-0.5-0.1-0.8-0.1c-0.4,0-0.8,0.1-1,0.3
			s-0.3,0.4-0.3,0.7c0,0.3,0.1,0.5,0.3,0.6s0.6,0.3,1.2,0.4c0.9,0.2,1.5,0.4,1.9,0.8c0.4,0.3,0.6,0.7,0.6,1.3c0,0.6-0.2,1.1-0.7,1.5
			c-0.5,0.4-1.1,0.6-1.9,0.6c-0.5,0-1-0.1-1.4-0.2s-0.8-0.3-1.1-0.5l0-1.6h0.9l0.2,0.9c0.1,0.1,0.3,0.2,0.6,0.3
			c0.2,0.1,0.5,0.1,0.8,0.1c0.4,0,0.8-0.1,1-0.3c0.3-0.2,0.4-0.4,0.4-0.7c0-0.3-0.1-0.5-0.3-0.7c-0.2-0.2-0.6-0.3-1.2-0.5
			c-0.8-0.2-1.5-0.4-1.9-0.7c-0.4-0.3-0.6-0.7-0.6-1.3c0-0.6,0.2-1,0.7-1.4c0.5-0.4,1.1-0.6,1.9-0.6c0.5,0,1,0.1,1.4,0.2
			c0.4,0.1,0.8,0.3,1,0.6L257.5,265.1z"/>
		<path class="st3" d="M261.8,266.1c0,1.7-0.3,3.1-1,4.3c-0.7,1.2-1.4,2-2.1,2.4h0l-0.2-0.7c0.6-0.4,1.1-1.2,1.5-2.2
			s0.6-2.3,0.6-3.7V266c0-1.5-0.2-2.7-0.7-3.7s-0.9-1.8-1.5-2.2l0.2-0.7h0c0.7,0.4,1.4,1.2,2.1,2.4
			C261.4,262.9,261.8,264.4,261.8,266.1L261.8,266.1z"/>
	</g>
	<g class="st2">
		<path class="st3" d="M309.2,185.3l0.8-0.2v-3.9l-0.9-0.2v-1h2.5l0.1,0.9c0.2-0.3,0.5-0.6,0.8-0.8s0.7-0.3,1-0.3
			c0.6,0,1.1,0.2,1.5,0.6s0.5,1,0.5,1.9v2.8l0.8,0.2v1h-3.3v-1l0.7-0.2v-2.8c0-0.4-0.1-0.7-0.3-0.9s-0.4-0.3-0.8-0.3
			c-0.2,0-0.4,0-0.6,0.1s-0.3,0.2-0.5,0.4v3.4l0.7,0.2v1h-3.2V185.3z"/>
	</g>
	<g class="st2">
		<path class="st3" d="M316.8,183.1c0-0.9,0.3-1.7,0.8-2.3s1.3-0.9,2.2-0.9c0.9,0,1.7,0.3,2.2,0.9s0.8,1.4,0.8,2.3v0.1
			c0,1-0.3,1.7-0.8,2.3s-1.3,0.9-2.2,0.9c-0.9,0-1.7-0.3-2.2-0.9s-0.8-1.4-0.8-2.3V183.1z M318.5,183.2c0,0.6,0.1,1,0.3,1.4
			s0.5,0.5,1,0.5c0.4,0,0.8-0.2,1-0.5s0.3-0.8,0.3-1.4v-0.1c0-0.6-0.1-1-0.3-1.4s-0.5-0.5-1-0.5s-0.8,0.2-1,0.5s-0.3,0.8-0.3,1.4
			V183.2z"/>
	</g>
	<g class="st2">
		<path class="st3" d="M301.5,200.7c0-0.1-0.1-0.2-0.1-0.3s-0.1-0.2-0.1-0.3c-0.2,0.2-0.5,0.4-0.7,0.6s-0.6,0.2-1,0.2
			c-0.6,0-1.1-0.2-1.5-0.5s-0.5-0.8-0.5-1.4c0-0.6,0.2-1.1,0.7-1.4s1.2-0.5,2.1-0.5h0.9v-0.6c0-0.3-0.1-0.5-0.3-0.7
			s-0.4-0.3-0.8-0.3c-0.2,0-0.4,0-0.5,0.1s-0.3,0.1-0.4,0.2l-0.1,0.7h-1.3l0-1.4c0.3-0.2,0.7-0.4,1.1-0.5s0.8-0.2,1.3-0.2
			c0.8,0,1.4,0.2,1.9,0.6s0.7,0.9,0.7,1.6v2.6c0,0.1,0,0.2,0,0.3s0,0.2,0,0.2l0.5,0.1v1H301.5z M300,199.5c0.3,0,0.5-0.1,0.7-0.2
			s0.4-0.3,0.5-0.4v-1h-0.9c-0.4,0-0.6,0.1-0.8,0.3s-0.3,0.4-0.3,0.6c0,0.2,0.1,0.4,0.2,0.5S299.7,199.5,300,199.5z"/>
		<path class="st3" d="M307,199.5c0.3,0,0.5-0.1,0.7-0.3s0.3-0.4,0.3-0.7h1.5l0,0c0,0.6-0.2,1.2-0.7,1.6s-1.1,0.6-1.9,0.6
			c-0.9,0-1.7-0.3-2.2-0.9s-0.8-1.4-0.8-2.3v-0.2c0-0.9,0.3-1.7,0.8-2.3s1.3-0.9,2.2-0.9c0.5,0,1,0.1,1.4,0.2s0.7,0.4,1,0.6l0,1.7
			h-1.4l-0.3-1c-0.1-0.1-0.2-0.1-0.3-0.2s-0.3-0.1-0.4-0.1c-0.5,0-0.8,0.2-1,0.5s-0.3,0.8-0.3,1.4v0.2c0,0.6,0.1,1,0.3,1.4
			S306.5,199.5,307,199.5z"/>
		<path class="st3" d="M313.3,199.5c0.3,0,0.5-0.1,0.7-0.3s0.3-0.4,0.3-0.7h1.5l0,0c0,0.6-0.2,1.2-0.7,1.6s-1.1,0.6-1.9,0.6
			c-0.9,0-1.7-0.3-2.2-0.9s-0.8-1.4-0.8-2.3v-0.2c0-0.9,0.3-1.7,0.8-2.3s1.3-0.9,2.2-0.9c0.5,0,1,0.1,1.4,0.2s0.7,0.4,1,0.6l0,1.7
			h-1.4l-0.3-1c-0.1-0.1-0.2-0.1-0.3-0.2s-0.3-0.1-0.4-0.1c-0.5,0-0.8,0.2-1,0.5s-0.3,0.8-0.3,1.4v0.2c0,0.6,0.1,1,0.3,1.4
			S312.9,199.5,313.3,199.5z"/>
		<path class="st3" d="M319.7,200.8c-0.9,0-1.6-0.3-2.2-0.9s-0.8-1.3-0.8-2.2v-0.2c0-0.9,0.3-1.7,0.8-2.3s1.2-0.9,2.1-0.9
			c0.9,0,1.5,0.3,2,0.8s0.7,1.2,0.7,2.1v0.9h-3.8l0,0c0,0.4,0.2,0.8,0.4,1s0.6,0.4,1,0.4c0.4,0,0.7,0,0.9-0.1s0.5-0.2,0.8-0.4
			l0.5,1.1c-0.3,0.2-0.6,0.4-1,0.5S320.2,200.8,319.7,200.8z M319.5,195.6c-0.3,0-0.6,0.1-0.8,0.4s-0.3,0.6-0.3,1l0,0h2.1v-0.2
			c0-0.4-0.1-0.7-0.3-0.9S319.9,195.6,319.5,195.6z"/>
		<path class="st3" d="M328.2,196.5h-1.1l-0.2-0.8c-0.1-0.1-0.3-0.2-0.4-0.2s-0.4-0.1-0.6-0.1c-0.3,0-0.5,0.1-0.7,0.2
			s-0.3,0.3-0.3,0.5c0,0.2,0.1,0.4,0.3,0.5s0.5,0.2,1,0.3c0.8,0.2,1.4,0.4,1.7,0.7s0.6,0.7,0.6,1.3c0,0.6-0.2,1-0.7,1.4
			s-1.1,0.5-1.9,0.5c-0.5,0-0.9-0.1-1.3-0.2s-0.8-0.3-1.1-0.6l0-1.4h1.2l0.2,0.8c0.1,0.1,0.2,0.1,0.4,0.2s0.4,0.1,0.6,0.1
			c0.3,0,0.6-0.1,0.8-0.2s0.3-0.3,0.3-0.5c0-0.2-0.1-0.3-0.3-0.5s-0.5-0.3-1-0.4c-0.7-0.2-1.3-0.4-1.7-0.7s-0.6-0.7-0.6-1.2
			c0-0.5,0.2-1,0.7-1.4s1.1-0.6,1.9-0.6c0.5,0,1,0.1,1.4,0.2s0.8,0.3,1,0.5L328.2,196.5z"/>
		<path class="st3" d="M334.4,196.5h-1.1l-0.2-0.8c-0.1-0.1-0.3-0.2-0.4-0.2s-0.4-0.1-0.6-0.1c-0.3,0-0.5,0.1-0.7,0.2
			s-0.3,0.3-0.3,0.5c0,0.2,0.1,0.4,0.3,0.5s0.5,0.2,1,0.3c0.8,0.2,1.4,0.4,1.7,0.7s0.6,0.7,0.6,1.3c0,0.6-0.2,1-0.7,1.4
			s-1.1,0.5-1.9,0.5c-0.5,0-0.9-0.1-1.3-0.2s-0.8-0.3-1.1-0.6l0-1.4h1.2l0.2,0.8c0.1,0.1,0.2,0.1,0.4,0.2s0.4,0.1,0.6,0.1
			c0.3,0,0.6-0.1,0.8-0.2s0.3-0.3,0.3-0.5c0-0.2-0.1-0.3-0.3-0.5s-0.5-0.3-1-0.4c-0.7-0.2-1.3-0.4-1.7-0.7s-0.6-0.7-0.6-1.2
			c0-0.5,0.2-1,0.7-1.4s1.1-0.6,1.9-0.6c0.5,0,1,0.1,1.4,0.2s0.8,0.3,1,0.5L334.4,196.5z"/>
	</g>
	<path class="st6" d="M69.9,63.1h160.4c2.8,0,5,2.2,5,5v65.5c0,2.8-2.2,5-5,5H69.9c-2.8,0-5-2.2-5-5V68.1
		C64.9,65.3,67.1,63.1,69.9,63.1z"/>
	<path class="st7" d="M69.9,63.1h160.4c2.8,0,5,2.2,5,5v65.5c0,2.8-2.2,5-5,5H69.9c-2.8,0-5-2.2-5-5V68.1
		C64.9,65.3,67.1,63.1,69.9,63.1z"/>
	<g class="st2">
		<path class="st3" d="M112.2,99.6v-1.2h2.9l0.1,1c0.2-0.4,0.5-0.6,0.9-0.8c0.4-0.2,0.8-0.3,1.2-0.3c0.5,0,0.9,0.1,1.2,0.3
			s0.6,0.5,0.8,1c0.2-0.4,0.5-0.7,0.9-0.9s0.8-0.3,1.3-0.3c0.7,0,1.3,0.3,1.7,0.8c0.4,0.5,0.6,1.3,0.6,2.3v3.1l1,0.2v1.2H121v-1.2
			l0.9-0.2v-3.1c0-0.6-0.1-1-0.3-1.2s-0.5-0.3-0.8-0.3c-0.3,0-0.5,0.1-0.7,0.2c-0.2,0.1-0.4,0.3-0.5,0.5c0,0.1,0,0.2,0,0.2
			c0,0.1,0,0.1,0,0.2v3.5l0.8,0.2v1.2h-3.6v-1.2l0.8-0.2v-3.1c0-0.5-0.1-0.9-0.3-1.2c-0.2-0.2-0.5-0.3-0.8-0.3
			c-0.3,0-0.5,0.1-0.7,0.2c-0.2,0.1-0.4,0.2-0.5,0.4v4l0.9,0.2v1.2h-3.8v-1.2l1-0.2v-4.6L112.2,99.6z"/>
		<path class="st3" d="M133.1,99.6l-0.7,0.1l-2.7,7.2c-0.2,0.5-0.5,1-0.9,1.3s-0.9,0.5-1.6,0.5c-0.2,0-0.3,0-0.5,0s-0.3-0.1-0.5-0.1
			l0.2-1.5c0.1,0,0.1,0,0.2,0s0.1,0,0.2,0c0.3,0,0.6-0.1,0.8-0.2c0.2-0.2,0.3-0.4,0.4-0.6l0.2-0.6l-2.3-6.1l-0.7-0.1v-1.2h3.6v1.2
			l-0.8,0.1l1,3l0.1,0.5l0,0l1.2-3.5l-0.8-0.1v-1.2h3.6V99.6z"/>
		<path class="st3" d="M139.8,100.9h-1.3l-0.2-0.9c-0.1-0.1-0.3-0.2-0.5-0.3s-0.4-0.1-0.7-0.1c-0.4,0-0.6,0.1-0.8,0.2
			c-0.2,0.2-0.3,0.4-0.3,0.6c0,0.2,0.1,0.4,0.3,0.6c0.2,0.1,0.6,0.3,1.2,0.4c0.9,0.2,1.6,0.5,2,0.8c0.4,0.4,0.7,0.8,0.7,1.5
			c0,0.7-0.3,1.2-0.9,1.6c-0.6,0.4-1.3,0.6-2.3,0.6c-0.6,0-1.1-0.1-1.6-0.2c-0.5-0.2-0.9-0.4-1.3-0.7l0-1.7h1.4l0.3,1
			c0.1,0.1,0.3,0.2,0.5,0.2c0.2,0,0.4,0.1,0.6,0.1c0.4,0,0.7-0.1,0.9-0.2s0.3-0.3,0.3-0.6c0-0.2-0.1-0.4-0.3-0.6s-0.6-0.3-1.2-0.4
			c-0.9-0.2-1.5-0.4-2-0.8c-0.4-0.3-0.7-0.8-0.7-1.4c0-0.6,0.3-1.2,0.8-1.6c0.5-0.4,1.2-0.7,2.2-0.7c0.6,0,1.1,0.1,1.6,0.2
			s0.9,0.4,1.2,0.6L139.8,100.9z"/>
		<path class="st3" d="M144.5,105.9c-1.1,0-1.9-0.3-2.6-1s-1-1.6-1-2.6V102c0-1.1,0.3-2,0.9-2.7s1.4-1.1,2.4-1.1
			c1,0,1.8,0.3,2.3,0.9s0.8,1.4,0.8,2.4v1.1H143l0,0c0,0.5,0.2,0.9,0.5,1.2s0.7,0.5,1.2,0.5c0.4,0,0.8,0,1.1-0.1
			c0.3-0.1,0.6-0.2,1-0.4l0.5,1.2c-0.3,0.2-0.7,0.4-1.2,0.6S145.1,105.9,144.5,105.9z M144.3,99.8c-0.4,0-0.7,0.1-0.9,0.4
			s-0.3,0.7-0.4,1.1l0,0h2.4v-0.2c0-0.4-0.1-0.8-0.3-1C145,99.9,144.7,99.8,144.3,99.8z"/>
		<path class="st3" d="M151.9,104.4c0.4,0,0.6-0.1,0.9-0.3c0.2-0.2,0.3-0.5,0.3-0.8h1.8l0,0c0,0.7-0.3,1.4-0.8,1.9
			c-0.6,0.5-1.3,0.8-2.2,0.8c-1.1,0-2-0.3-2.5-1s-0.9-1.6-0.9-2.7V102c0-1.1,0.3-2,0.9-2.7s1.5-1.1,2.6-1.1c0.6,0,1.1,0.1,1.6,0.3
			s0.9,0.4,1.2,0.8l0,2h-1.6l-0.3-1.2c-0.1-0.1-0.2-0.2-0.4-0.2c-0.1-0.1-0.3-0.1-0.5-0.1c-0.6,0-1,0.2-1.2,0.6s-0.3,0.9-0.3,1.6
			v0.2c0,0.7,0.1,1.2,0.3,1.6C150.9,104.2,151.3,104.4,151.9,104.4z"/>
	</g>
	<g class="st2">
		<path class="st3" d="M155.9,104.6l1-0.2v-4.6l-1.1-0.2v-1.2h2.9l0.1,1.1c0.2-0.4,0.4-0.7,0.7-0.9s0.6-0.3,1-0.3c0.1,0,0.2,0,0.3,0
			c0.1,0,0.2,0,0.3,0.1l-0.2,1.8l-0.8,0c-0.3,0-0.5,0.1-0.7,0.2s-0.3,0.3-0.4,0.5v3.6l1,0.2v1.2h-3.9V104.6z"/>
	</g>
	<g class="st2">
		<path class="st3" d="M165.1,105.9c-1.1,0-1.9-0.3-2.6-1s-1-1.6-1-2.6V102c0-1.1,0.3-2,0.9-2.7s1.4-1.1,2.4-1.1
			c1,0,1.8,0.3,2.3,0.9s0.8,1.4,0.8,2.4v1.1h-4.4l0,0c0,0.5,0.2,0.9,0.5,1.2s0.7,0.5,1.2,0.5c0.4,0,0.8,0,1.1-0.1
			c0.3-0.1,0.6-0.2,1-0.4l0.5,1.2c-0.3,0.2-0.7,0.4-1.2,0.6S165.7,105.9,165.1,105.9z M164.9,99.8c-0.4,0-0.7,0.1-0.9,0.4
			s-0.3,0.7-0.4,1.1l0,0h2.4v-0.2c0-0.4-0.1-0.8-0.3-1C165.6,99.9,165.3,99.8,164.9,99.8z"/>
		<path class="st3" d="M171.9,96.6v1.8h1.3v1.4h-1.3v3.8c0,0.3,0.1,0.5,0.2,0.6s0.3,0.2,0.5,0.2c0.1,0,0.3,0,0.4,0
			c0.1,0,0.2,0,0.3-0.1l0.2,1.4c-0.2,0.1-0.4,0.1-0.7,0.2c-0.2,0-0.5,0.1-0.7,0.1c-0.7,0-1.2-0.2-1.6-0.6s-0.6-1-0.6-1.8v-3.8h-1.1
			v-1.4h1.1v-1.8H171.9z"/>
		<path class="st3" d="M176.6,105.8h-2V104h2V105.8z"/>
		<path class="st3" d="M181.2,104.4c0.4,0,0.6-0.1,0.9-0.3c0.2-0.2,0.3-0.5,0.3-0.8h1.8l0,0c0,0.7-0.3,1.4-0.8,1.9
			c-0.6,0.5-1.3,0.8-2.2,0.8c-1.1,0-2-0.3-2.5-1s-0.9-1.6-0.9-2.7V102c0-1.1,0.3-2,0.9-2.7s1.5-1.1,2.6-1.1c0.6,0,1.1,0.1,1.6,0.3
			s0.9,0.4,1.2,0.8l0,2h-1.6l-0.3-1.2c-0.1-0.1-0.2-0.2-0.4-0.2c-0.1-0.1-0.3-0.1-0.5-0.1c-0.6,0-1,0.2-1.2,0.6s-0.3,0.9-0.3,1.6
			v0.2c0,0.7,0.1,1.2,0.3,1.6C180.3,104.2,180.7,104.4,181.2,104.4z"/>
	</g>
	
		<linearGradient id="SVGID_1_" gradientUnits="userSpaceOnUse" x1="353.65" y1="210.585" x2="522.07" y2="210.585" gradientTransform="matrix(1 0 0 -1 0 312)">
		<stop  offset="0" style="stop-color:#990066"/>
		<stop  offset="0.19" style="stop-color:#780066"/>
		<stop  offset="0.4" style="stop-color:#5A0066"/>
		<stop  offset="0.61" style="stop-color:#440066"/>
		<stop  offset="0.81" style="stop-color:#370066"/>
		<stop  offset="1" style="stop-color:#330066"/>
	</linearGradient>
	<path class="st8" d="M358.6,64.3h158.4c2.8,0,5,2.2,5,5v64.3c0,2.8-2.2,5-5,5H358.6c-2.8,0-5-2.2-5-5V69.3
		C353.6,66.5,355.9,64.3,358.6,64.3z"/>
	<g class="st2">
		<path class="st9" d="M408.3,98.8v-1.2h2.9l0.1,1c0.2-0.4,0.5-0.6,0.9-0.8c0.4-0.2,0.8-0.3,1.2-0.3c0.5,0,0.9,0.1,1.2,0.3
			c0.3,0.2,0.6,0.5,0.8,1c0.2-0.4,0.5-0.7,0.9-0.9c0.4-0.2,0.8-0.3,1.3-0.3c0.7,0,1.3,0.3,1.7,0.8c0.4,0.5,0.6,1.3,0.6,2.3v3.1
			l1,0.2v1.2h-3.8v-1.2l0.9-0.2v-3.1c0-0.6-0.1-1-0.3-1.2c-0.2-0.2-0.5-0.3-0.8-0.3c-0.3,0-0.5,0.1-0.7,0.2
			c-0.2,0.1-0.4,0.3-0.5,0.5c0,0.1,0,0.2,0,0.2c0,0.1,0,0.1,0,0.2v3.5l0.8,0.2v1.2h-3.6v-1.2l0.8-0.2v-3.1c0-0.5-0.1-0.9-0.3-1.2
			c-0.2-0.2-0.5-0.3-0.8-0.3c-0.3,0-0.5,0.1-0.7,0.2c-0.2,0.1-0.4,0.2-0.5,0.4v4l0.9,0.2v1.2h-3.8v-1.2l1-0.2V99L408.3,98.8z"/>
		<path class="st9" d="M429.2,98.8l-0.7,0.1l-2.7,7.2c-0.2,0.5-0.5,1-0.9,1.3c-0.4,0.4-0.9,0.5-1.6,0.5c-0.2,0-0.3,0-0.5,0
			c-0.1,0-0.3-0.1-0.5-0.1l0.2-1.5c0.1,0,0.1,0,0.2,0s0.1,0,0.2,0c0.3,0,0.6-0.1,0.8-0.2c0.2-0.2,0.3-0.4,0.4-0.6l0.2-0.6l-2.3-6.1
			l-0.7-0.1v-1.2h3.6v1.2l-0.8,0.1l1,3l0.1,0.5l0,0l1.2-3.5l-0.8-0.1v-1.2h3.6V98.8z"/>
		<path class="st9" d="M435.9,100.1h-1.3l-0.2-0.9c-0.1-0.1-0.3-0.2-0.5-0.3c-0.2-0.1-0.4-0.1-0.7-0.1c-0.4,0-0.6,0.1-0.8,0.2
			c-0.2,0.2-0.3,0.4-0.3,0.6c0,0.2,0.1,0.4,0.3,0.6c0.2,0.1,0.6,0.3,1.2,0.4c0.9,0.2,1.6,0.5,2,0.8c0.4,0.4,0.7,0.8,0.7,1.5
			c0,0.7-0.3,1.2-0.9,1.6c-0.6,0.4-1.3,0.6-2.3,0.6c-0.6,0-1.1-0.1-1.6-0.2c-0.5-0.2-0.9-0.4-1.3-0.7l0-1.7h1.4l0.3,1
			c0.1,0.1,0.3,0.2,0.5,0.2c0.2,0,0.4,0.1,0.6,0.1c0.4,0,0.7-0.1,0.9-0.2s0.3-0.3,0.3-0.6c0-0.2-0.1-0.4-0.3-0.6
			c-0.2-0.2-0.6-0.3-1.2-0.4c-0.9-0.2-1.5-0.4-2-0.8c-0.4-0.3-0.7-0.8-0.7-1.4c0-0.6,0.3-1.2,0.8-1.6c0.5-0.4,1.2-0.7,2.2-0.7
			c0.6,0,1.1,0.1,1.6,0.2s0.9,0.4,1.2,0.6L435.9,100.1z"/>
		<path class="st9" d="M440.6,105.1c-1.1,0-1.9-0.3-2.6-1c-0.6-0.7-1-1.6-1-2.6v-0.3c0-1.1,0.3-2,0.9-2.7c0.6-0.7,1.4-1.1,2.4-1.1
			c1,0,1.8,0.3,2.3,0.9c0.6,0.6,0.8,1.4,0.8,2.4v1.1h-4.4l0,0c0,0.5,0.2,0.9,0.5,1.2c0.3,0.3,0.7,0.5,1.2,0.5c0.4,0,0.8,0,1.1-0.1
			c0.3-0.1,0.6-0.2,1-0.4l0.5,1.2c-0.3,0.2-0.7,0.4-1.2,0.6S441.2,105.1,440.6,105.1z M440.4,99c-0.4,0-0.7,0.1-0.9,0.4
			c-0.2,0.3-0.3,0.7-0.4,1.1l0,0h2.4v-0.2c0-0.4-0.1-0.8-0.3-1C441.1,99.1,440.8,99,440.4,99z"/>
		<path class="st9" d="M448,103.6c0.4,0,0.6-0.1,0.9-0.3c0.2-0.2,0.3-0.5,0.3-0.8h1.8l0,0c0,0.7-0.3,1.4-0.8,1.9
			c-0.6,0.5-1.3,0.8-2.2,0.8c-1.1,0-2-0.3-2.5-1c-0.6-0.7-0.9-1.6-0.9-2.7v-0.2c0-1.1,0.3-2,0.9-2.7c0.6-0.7,1.5-1.1,2.6-1.1
			c0.6,0,1.1,0.1,1.6,0.3c0.5,0.2,0.9,0.4,1.2,0.8l0,2h-1.6l-0.3-1.2c-0.1-0.1-0.2-0.2-0.4-0.2c-0.1-0.1-0.3-0.1-0.5-0.1
			c-0.6,0-1,0.2-1.2,0.6s-0.3,0.9-0.3,1.6v0.2c0,0.7,0.1,1.2,0.3,1.6C447,103.4,447.4,103.6,448,103.6z"/>
	</g>
	<g class="st2">
		<path class="st9" d="M452,103.8l1-0.2V99l-1.1-0.2v-1.2h2.9l0.1,1.1c0.2-0.4,0.4-0.7,0.7-0.9s0.6-0.3,1-0.3c0.1,0,0.2,0,0.3,0
			c0.1,0,0.2,0,0.3,0.1l-0.2,1.8l-0.8,0c-0.3,0-0.5,0.1-0.7,0.2s-0.3,0.3-0.4,0.5v3.6l1,0.2v1.2H452V103.8z"/>
	</g>
	<g class="st2">
		<path class="st9" d="M461.2,105.1c-1.1,0-1.9-0.3-2.6-1c-0.6-0.7-1-1.6-1-2.6v-0.3c0-1.1,0.3-2,0.9-2.7s1.4-1.1,2.4-1.1
			c1,0,1.8,0.3,2.3,0.9c0.6,0.6,0.8,1.4,0.8,2.4v1.1h-4.4l0,0c0,0.5,0.2,0.9,0.5,1.2s0.7,0.5,1.2,0.5c0.4,0,0.8,0,1.1-0.1
			c0.3-0.1,0.6-0.2,1-0.4l0.5,1.2c-0.3,0.2-0.7,0.4-1.2,0.6S461.8,105.1,461.2,105.1z M461,99c-0.4,0-0.7,0.1-0.9,0.4
			c-0.2,0.3-0.3,0.7-0.4,1.1l0,0h2.4v-0.2c0-0.4-0.1-0.8-0.3-1C461.7,99.1,461.4,99,461,99z"/>
		<path class="st9" d="M468,95.7v1.8h1.3V99H468v3.8c0,0.3,0.1,0.5,0.2,0.6c0.1,0.1,0.3,0.2,0.5,0.2c0.1,0,0.3,0,0.4,0
			c0.1,0,0.2,0,0.3-0.1l0.2,1.4c-0.2,0.1-0.4,0.1-0.7,0.2c-0.2,0-0.5,0.1-0.7,0.1c-0.7,0-1.2-0.2-1.6-0.6s-0.6-1-0.6-1.8V99h-1.1
			v-1.4h1.1v-1.8H468z"/>
	</g>
	<g class="st2">
		<path class="st3" d="M394.2,150.5v-0.7h3.1v0.7l-1,0.2v2.9h4.1v-2.9l-1-0.2v-0.7h1h1.2h1v0.7l-1,0.2v6.7l1,0.2v0.7h-3.1v-0.7
			l1-0.2v-2.9h-4.1v2.9l1,0.2v0.7h-3.1v-0.7l1-0.2v-6.7L394.2,150.5z"/>
		<path class="st3" d="M407.7,158.3c0-0.2-0.1-0.3-0.1-0.5s0-0.3,0-0.4c-0.2,0.3-0.5,0.5-0.8,0.7s-0.7,0.3-1.1,0.3
			c-0.7,0-1.2-0.2-1.5-0.5s-0.5-0.8-0.5-1.4c0-0.6,0.2-1.1,0.7-1.4s1.2-0.5,2-0.5h1.2v-0.7c0-0.4-0.1-0.7-0.4-0.9s-0.6-0.3-1-0.3
			c-0.3,0-0.5,0-0.8,0.1s-0.4,0.2-0.5,0.3l-0.1,0.7h-0.9v-1.2c0.3-0.2,0.6-0.4,1-0.6s0.9-0.2,1.3-0.2c0.7,0,1.3,0.2,1.7,0.6
			s0.7,0.9,0.7,1.6v3.1c0,0.1,0,0.2,0,0.2s0,0.2,0,0.2l0.5,0.1v0.7H407.7z M405.8,157.4c0.4,0,0.7-0.1,1-0.3s0.5-0.4,0.7-0.7v-1
			h-1.2c-0.5,0-0.8,0.1-1.1,0.3s-0.4,0.5-0.4,0.8c0,0.3,0.1,0.5,0.3,0.6S405.5,157.4,405.8,157.4z"/>
	</g>
	<g class="st2">
		<path class="st3" d="M410.2,152.7v-0.7h2l0.1,0.9c0.2-0.3,0.4-0.6,0.7-0.8s0.6-0.3,0.9-0.3c0.1,0,0.2,0,0.3,0s0.2,0,0.2,0
			l-0.2,1.1l-0.7,0c-0.3,0-0.6,0.1-0.8,0.2s-0.4,0.3-0.5,0.6v3.6l1,0.2v0.7h-3.1v-0.7l1-0.2v-4.5L410.2,152.7z"/>
	</g>
	<g class="st2">
		<path class="st3" d="M419.3,157.5c-0.2,0.3-0.5,0.5-0.8,0.7s-0.6,0.2-1,0.2c-0.8,0-1.4-0.3-1.8-0.8s-0.7-1.3-0.7-2.2v-0.1
			c0-1,0.2-1.8,0.7-2.5s1-0.9,1.8-0.9c0.4,0,0.7,0.1,1,0.2s0.5,0.3,0.7,0.6V150l-1-0.2v-0.7h1h1.2v8.2l1,0.2v0.7h-2L419.3,157.5z
			 M416.2,155.3c0,0.6,0.1,1.1,0.4,1.5s0.7,0.6,1.2,0.6c0.3,0,0.6-0.1,0.9-0.2s0.4-0.4,0.6-0.7v-2.9c-0.1-0.3-0.3-0.5-0.6-0.6
			s-0.5-0.2-0.9-0.2c-0.6,0-1,0.2-1.2,0.7s-0.4,1.1-0.4,1.8V155.3z"/>
		<path class="st3" d="M424.5,152.7l-0.7,0.1l0.8,3.2l0.1,0.8h0l0.2-0.8l1.3-4h0.9l1.3,4l0.2,0.9h0l0.2-0.9l0.8-3.2l-0.7-0.1v-0.7
			h2.4v0.7l-0.6,0.1l-1.6,5.5h-0.9l-1.2-3.9l-0.3-1.1l0,0l-0.2,1.1l-1.2,3.9h-0.9l-1.6-5.5l-0.6-0.1v-0.7h2.4V152.7z"/>
		<path class="st3" d="M436.3,158.3c0-0.2-0.1-0.3-0.1-0.5s0-0.3,0-0.4c-0.2,0.3-0.5,0.5-0.8,0.7s-0.7,0.3-1.1,0.3
			c-0.7,0-1.2-0.2-1.5-0.5s-0.5-0.8-0.5-1.4c0-0.6,0.2-1.1,0.7-1.4s1.2-0.5,2-0.5h1.2v-0.7c0-0.4-0.1-0.7-0.4-0.9s-0.6-0.3-1-0.3
			c-0.3,0-0.5,0-0.8,0.1s-0.4,0.2-0.5,0.3l-0.1,0.7h-0.9v-1.2c0.3-0.2,0.6-0.4,1-0.6s0.9-0.2,1.3-0.2c0.7,0,1.3,0.2,1.7,0.6
			s0.7,0.9,0.7,1.6v3.1c0,0.1,0,0.2,0,0.2s0,0.2,0,0.2l0.5,0.1v0.7H436.3z M434.4,157.4c0.4,0,0.7-0.1,1-0.3s0.5-0.4,0.7-0.7v-1
			h-1.2c-0.5,0-0.8,0.1-1.1,0.3s-0.4,0.5-0.4,0.8c0,0.3,0.1,0.5,0.3,0.6S434.1,157.4,434.4,157.4z"/>
	</g>
	<g class="st2">
		<path class="st3" d="M438.7,152.7v-0.7h2l0.1,0.9c0.2-0.3,0.4-0.6,0.7-0.8s0.6-0.3,0.9-0.3c0.1,0,0.2,0,0.3,0s0.2,0,0.2,0
			l-0.2,1.1l-0.7,0c-0.3,0-0.6,0.1-0.8,0.2s-0.4,0.3-0.5,0.6v3.6l1,0.2v0.7h-3.1v-0.7l1-0.2v-4.5L438.7,152.7z"/>
	</g>
	<g class="st2">
		<path class="st3" d="M446.5,158.4c-0.9,0-1.6-0.3-2.1-0.9s-0.8-1.4-0.8-2.3V155c0-0.9,0.3-1.7,0.8-2.3s1.2-0.9,1.9-0.9
			c0.9,0,1.5,0.3,1.9,0.8s0.7,1.2,0.7,2.1v0.7h-4.1l0,0c0,0.6,0.2,1.1,0.5,1.5s0.7,0.6,1.2,0.6c0.4,0,0.7-0.1,1-0.2s0.6-0.3,0.8-0.5
			l0.5,0.8c-0.2,0.2-0.5,0.4-0.9,0.6S447,158.4,446.5,158.4z M446.3,152.7c-0.4,0-0.7,0.2-1,0.5s-0.4,0.7-0.5,1.2l0,0h2.9v-0.2
			c0-0.5-0.1-0.8-0.4-1.1S446.8,152.7,446.3,152.7z"/>
	</g>
	<g class="st2">
		<path class="st3" d="M452.8,157.5l1-0.2v-4.5l-1-0.2v-0.7h2l0.1,0.8c0.2-0.3,0.5-0.5,0.8-0.7s0.7-0.2,1.1-0.2s0.8,0.1,1.1,0.3
			s0.5,0.5,0.7,0.9c0.2-0.4,0.5-0.6,0.8-0.9s0.7-0.3,1.1-0.3c0.6,0,1.2,0.2,1.5,0.7s0.6,1.1,0.6,2v2.9l1,0.2v0.7h-3.1v-0.7l1-0.2
			v-2.9c0-0.6-0.1-1.1-0.3-1.3s-0.5-0.4-1-0.4c-0.4,0-0.7,0.1-1,0.4s-0.4,0.6-0.4,1.1v3.1l1,0.2v0.7h-3.1v-0.7l1-0.2v-2.9
			c0-0.6-0.1-1-0.3-1.3s-0.5-0.4-1-0.4c-0.4,0-0.6,0.1-0.9,0.2s-0.4,0.3-0.5,0.6v3.8l1,0.2v0.7h-3.1V157.5z"/>
	</g>
	<g class="st2">
		<path class="st3" d="M464.3,155c0-0.9,0.3-1.7,0.8-2.3s1.2-0.9,2.1-0.9c0.9,0,1.6,0.3,2.1,0.9s0.8,1.4,0.8,2.3v0.1
			c0,0.9-0.3,1.7-0.8,2.3s-1.2,0.9-2.1,0.9c-0.9,0-1.6-0.3-2.1-0.9s-0.8-1.4-0.8-2.3V155z M465.5,155.2c0,0.7,0.1,1.2,0.4,1.7
			s0.7,0.7,1.3,0.7c0.5,0,1-0.2,1.2-0.7s0.4-1,0.4-1.7V155c0-0.7-0.1-1.2-0.4-1.7s-0.7-0.7-1.3-0.7s-1,0.2-1.3,0.7s-0.4,1-0.4,1.7
			V155.2z"/>
		<path class="st3" d="M475.3,157.5c-0.2,0.3-0.5,0.5-0.8,0.7s-0.6,0.2-1,0.2c-0.8,0-1.4-0.3-1.8-0.8s-0.7-1.3-0.7-2.2v-0.1
			c0-1,0.2-1.8,0.7-2.5s1-0.9,1.8-0.9c0.4,0,0.7,0.1,1,0.2s0.5,0.3,0.7,0.6V150l-1-0.2v-0.7h1h1.2v8.2l1,0.2v0.7h-2L475.3,157.5z
			 M472.2,155.3c0,0.6,0.1,1.1,0.4,1.5s0.7,0.6,1.2,0.6c0.3,0,0.6-0.1,0.9-0.2s0.4-0.4,0.6-0.7v-2.9c-0.1-0.3-0.3-0.5-0.6-0.6
			s-0.5-0.2-0.9-0.2c-0.6,0-1,0.2-1.2,0.7s-0.4,1.1-0.4,1.8V155.3z"/>
		<path class="st3" d="M481.1,158.4c-0.9,0-1.6-0.3-2.1-0.9s-0.8-1.4-0.8-2.3V155c0-0.9,0.3-1.7,0.8-2.3s1.2-0.9,1.9-0.9
			c0.9,0,1.5,0.3,1.9,0.8s0.7,1.2,0.7,2.1v0.7h-4.1l0,0c0,0.6,0.2,1.1,0.5,1.5s0.7,0.6,1.2,0.6c0.4,0,0.7-0.1,1-0.2s0.5-0.3,0.8-0.5
			l0.5,0.8c-0.2,0.2-0.5,0.4-0.9,0.6S481.6,158.4,481.1,158.4z M480.9,152.7c-0.4,0-0.7,0.2-1,0.5s-0.4,0.7-0.5,1.2l0,0h2.9v-0.2
			c0-0.5-0.1-0.8-0.4-1.1S481.4,152.7,480.9,152.7z"/>
	</g>
	<g class="st2">
		<path class="st3" d="M403.8,173.8c0-1.5,0.3-2.9,0.9-3.9s1.3-1.8,2-2.2l0,0l0.2,0.7c-0.5,0.4-1,1.1-1.4,2s-0.6,2.1-0.6,3.4v0.1
			c0,1.4,0.2,2.5,0.6,3.4s0.9,1.6,1.4,2.1l-0.2,0.6h0c-0.7-0.4-1.3-1.1-2-2.2S403.8,175.4,403.8,173.8L403.8,173.8z"/>
		<path class="st3" d="M407.4,179l1-0.2v-7l-1-0.2v-0.7h1.9l0.1,0.8c0.2-0.3,0.5-0.5,0.8-0.7s0.7-0.2,1.1-0.2c0.8,0,1.4,0.3,1.8,0.9
			s0.7,1.4,0.7,2.5v0.1c0,0.9-0.2,1.7-0.7,2.2s-1,0.8-1.8,0.8c-0.4,0-0.7-0.1-1-0.2s-0.5-0.3-0.8-0.6v2.2l1,0.2v0.7h-3.1V179z
			 M412.6,174.2c0-0.7-0.1-1.3-0.4-1.8s-0.7-0.7-1.3-0.7c-0.3,0-0.6,0.1-0.8,0.2s-0.4,0.4-0.6,0.6v3.1c0.1,0.3,0.3,0.5,0.6,0.6
			s0.5,0.2,0.9,0.2c0.5,0,1-0.2,1.2-0.6s0.4-0.9,0.4-1.6V174.2z"/>
	</g>
	<g class="st2">
		<path class="st3" d="M414.8,171.7v-0.7h2l0.1,0.9c0.2-0.3,0.4-0.6,0.7-0.8s0.6-0.3,0.9-0.3c0.1,0,0.2,0,0.3,0s0.2,0,0.2,0
			l-0.2,1.1l-0.7,0c-0.3,0-0.6,0.1-0.8,0.2s-0.4,0.3-0.5,0.6v3.6l1,0.2v0.7h-3.1v-0.7l1-0.2v-4.5L414.8,171.7z"/>
	</g>
	<g class="st2">
		<path class="st3" d="M422.6,177.4c-0.9,0-1.6-0.3-2.1-0.9s-0.8-1.4-0.8-2.3V174c0-0.9,0.3-1.7,0.8-2.3s1.2-0.9,1.9-0.9
			c0.9,0,1.5,0.3,1.9,0.8s0.7,1.2,0.7,2.1v0.7h-4.1l0,0c0,0.6,0.2,1.1,0.5,1.5s0.7,0.6,1.2,0.6c0.4,0,0.7-0.1,1-0.2s0.5-0.3,0.8-0.5
			l0.5,0.8c-0.2,0.2-0.5,0.4-0.9,0.6S423.1,177.4,422.6,177.4z M422.4,171.7c-0.4,0-0.7,0.2-1,0.5s-0.4,0.7-0.5,1.2l0,0h2.9v-0.2
			c0-0.5-0.1-0.8-0.4-1.1S422.9,171.7,422.4,171.7z"/>
		<path class="st3" d="M429.4,174.1h-2.9v-0.9h2.9V174.1z"/>
	</g>
	<g class="st2">
		<path class="st3" d="M430.8,171.7v-0.7h2l0.1,0.9c0.2-0.3,0.4-0.6,0.7-0.8s0.6-0.3,0.9-0.3c0.1,0,0.2,0,0.3,0s0.2,0,0.2,0
			l-0.2,1.1l-0.7,0c-0.3,0-0.6,0.1-0.8,0.2s-0.4,0.3-0.5,0.6v3.6l1,0.2v0.7h-3.1v-0.7l1-0.2v-4.5L430.8,171.7z"/>
	</g>
	<g class="st2">
		<path class="st3" d="M438.5,177.4c-0.9,0-1.6-0.3-2.1-0.9s-0.8-1.4-0.8-2.3V174c0-0.9,0.3-1.7,0.8-2.3s1.2-0.9,1.9-0.9
			c0.9,0,1.5,0.3,1.9,0.8s0.7,1.2,0.7,2.1v0.7h-4.1l0,0c0,0.6,0.2,1.1,0.5,1.5s0.7,0.6,1.2,0.6c0.4,0,0.7-0.1,1-0.2s0.5-0.3,0.8-0.5
			l0.5,0.8c-0.2,0.2-0.5,0.4-0.9,0.6S439.1,177.4,438.5,177.4z M438.4,171.7c-0.4,0-0.7,0.2-1,0.5s-0.4,0.7-0.5,1.2l0,0h2.9v-0.2
			c0-0.5-0.1-0.8-0.4-1.1S438.8,171.7,438.4,171.7z"/>
		<path class="st3" d="M441.9,168.9v-0.7h2.1v8.2l1,0.2v0.7h-3.1v-0.7l1-0.2V169L441.9,168.9z"/>
		<path class="st3" d="M448.8,177.4c-0.9,0-1.6-0.3-2.1-0.9s-0.8-1.4-0.8-2.3V174c0-0.9,0.3-1.7,0.8-2.3s1.2-0.9,1.9-0.9
			c0.9,0,1.5,0.3,1.9,0.8s0.7,1.2,0.7,2.1v0.7h-4.1l0,0c0,0.6,0.2,1.1,0.5,1.5s0.7,0.6,1.2,0.6c0.4,0,0.7-0.1,1-0.2s0.5-0.3,0.8-0.5
			l0.5,0.8c-0.2,0.2-0.5,0.4-0.9,0.6S449.3,177.4,448.8,177.4z M448.6,171.7c-0.4,0-0.7,0.2-1,0.5s-0.4,0.7-0.5,1.2l0,0h2.9v-0.2
			c0-0.5-0.1-0.8-0.4-1.1S449.1,171.7,448.6,171.7z"/>
		<path class="st3" d="M456.5,177.3c0-0.2-0.1-0.3-0.1-0.5s0-0.3,0-0.4c-0.2,0.3-0.5,0.5-0.8,0.7s-0.7,0.3-1.1,0.3
			c-0.7,0-1.2-0.2-1.5-0.5s-0.5-0.8-0.5-1.4c0-0.6,0.2-1.1,0.7-1.4s1.2-0.5,2-0.5h1.2v-0.7c0-0.4-0.1-0.7-0.4-0.9s-0.6-0.3-1-0.3
			c-0.3,0-0.5,0-0.8,0.1s-0.4,0.2-0.5,0.3l-0.1,0.7h-0.9v-1.2c0.3-0.2,0.6-0.4,1-0.6s0.9-0.2,1.3-0.2c0.7,0,1.3,0.2,1.7,0.6
			s0.7,0.9,0.7,1.6v3.1c0,0.1,0,0.2,0,0.2s0,0.2,0,0.2l0.5,0.1v0.7H456.5z M454.6,176.4c0.4,0,0.7-0.1,1-0.3s0.5-0.4,0.7-0.7v-1
			h-1.2c-0.5,0-0.8,0.1-1.1,0.3s-0.4,0.5-0.4,0.8c0,0.3,0.1,0.5,0.3,0.6S454.3,176.4,454.6,176.4z"/>
		<path class="st3" d="M463.8,172.9h-0.9l-0.2-0.8c-0.1-0.1-0.3-0.2-0.5-0.3s-0.5-0.1-0.7-0.1c-0.4,0-0.7,0.1-0.9,0.3
			s-0.3,0.4-0.3,0.7c0,0.3,0.1,0.4,0.3,0.6s0.5,0.3,1.1,0.4c0.8,0.2,1.4,0.4,1.8,0.7s0.6,0.7,0.6,1.2c0,0.6-0.2,1-0.7,1.4
			s-1,0.5-1.8,0.5c-0.5,0-0.9-0.1-1.3-0.2s-0.7-0.3-1-0.5l0-1.4h0.9l0.2,0.8c0.1,0.1,0.3,0.2,0.5,0.3s0.5,0.1,0.7,0.1
			c0.4,0,0.7-0.1,1-0.2s0.3-0.4,0.3-0.7c0-0.3-0.1-0.5-0.3-0.6s-0.6-0.3-1.1-0.4c-0.8-0.2-1.3-0.4-1.7-0.7s-0.6-0.7-0.6-1.2
			c0-0.5,0.2-1,0.7-1.3s1-0.5,1.7-0.5c0.5,0,0.9,0.1,1.3,0.2s0.7,0.3,1,0.5L463.8,172.9z"/>
		<path class="st3" d="M467.9,177.4c-0.9,0-1.6-0.3-2.1-0.9s-0.8-1.4-0.8-2.3V174c0-0.9,0.3-1.7,0.8-2.3s1.2-0.9,1.9-0.9
			c0.9,0,1.5,0.3,1.9,0.8s0.7,1.2,0.7,2.1v0.7h-4.1l0,0c0,0.6,0.2,1.1,0.5,1.5s0.7,0.6,1.2,0.6c0.4,0,0.7-0.1,1-0.2s0.5-0.3,0.8-0.5
			l0.5,0.8c-0.2,0.2-0.5,0.4-0.9,0.6S468.5,177.4,467.9,177.4z M467.8,171.7c-0.4,0-0.7,0.2-1,0.5s-0.4,0.7-0.5,1.2l0,0h2.9v-0.2
			c0-0.5-0.1-0.8-0.4-1.1S468.2,171.7,467.8,171.7z"/>
		<path class="st3" d="M474.2,173.9c0,1.5-0.3,2.9-0.9,3.9s-1.3,1.8-2,2.2h0l-0.2-0.6c0.5-0.4,1-1.1,1.4-2s0.6-2.1,0.6-3.5v-0.1
			c0-1.3-0.2-2.5-0.6-3.4s-0.9-1.6-1.4-2.1l0.2-0.6h0c0.7,0.4,1.3,1.1,2,2.2S474.2,172.3,474.2,173.9L474.2,173.9z"/>
	</g>
	<g class="st2">
		<path class="st9" d="M273,90.5c-0.3,0.2-0.6,0.4-1,0.5c-0.4,0.1-0.8,0.2-1.2,0.2c-0.6,0-1-0.1-1.4-0.3c-0.4-0.2-0.7-0.4-0.9-0.7
			c-0.2-0.3-0.4-0.7-0.5-1.2c-0.1-0.5-0.2-1-0.2-1.5c0-1.2,0.3-2.1,0.8-2.7c0.5-0.6,1.3-1,2.3-1c0.5,0,0.9,0,1.2,0.1
			c0.3,0.1,0.6,0.2,0.8,0.3l-0.4,1.5c-0.2-0.1-0.4-0.2-0.6-0.2s-0.5-0.1-0.7-0.1c-0.5,0-0.9,0.2-1.1,0.5s-0.4,0.9-0.4,1.6
			c0,0.3,0,0.6,0.1,0.8c0.1,0.3,0.2,0.5,0.3,0.7c0.1,0.2,0.3,0.3,0.5,0.4c0.2,0.1,0.5,0.2,0.7,0.2c0.3,0,0.6,0,0.8-0.1
			c0.2-0.1,0.4-0.2,0.6-0.3L273,90.5z"/>
	</g>
	<g class="st2">
		<path class="st9" d="M273.5,87.4c0-1.2,0.3-2.1,0.9-2.7c0.6-0.6,1.4-1,2.4-1c0.6,0,1,0.1,1.5,0.3c0.4,0.2,0.8,0.4,1,0.7
			c0.3,0.3,0.5,0.7,0.6,1.2s0.2,1,0.2,1.5c0,1.2-0.3,2.1-0.9,2.7c-0.6,0.6-1.4,1-2.4,1c-0.6,0-1-0.1-1.5-0.3c-0.4-0.2-0.8-0.4-1-0.7
			c-0.3-0.3-0.5-0.7-0.6-1.2C273.5,88.4,273.5,87.9,273.5,87.4z M275.4,87.4c0,0.3,0,0.6,0.1,0.9c0.1,0.3,0.1,0.5,0.3,0.7
			c0.1,0.2,0.3,0.3,0.4,0.5c0.2,0.1,0.4,0.2,0.7,0.2c0.5,0,0.8-0.2,1.1-0.5c0.2-0.3,0.4-0.9,0.4-1.6c0-0.6-0.1-1.2-0.3-1.6
			c-0.2-0.4-0.6-0.6-1.1-0.6c-0.4,0-0.8,0.2-1.1,0.5S275.4,86.6,275.4,87.4z"/>
		<path class="st9" d="M285.3,90.9v-3.8c0-0.6-0.1-1.1-0.2-1.4c-0.1-0.3-0.4-0.4-0.8-0.4c-0.3,0-0.6,0.1-0.8,0.3
			c-0.2,0.2-0.3,0.4-0.4,0.7v4.7h-1.8v-7h1.4l0.2,0.9h0.1c0.2-0.3,0.5-0.6,0.8-0.8c0.3-0.2,0.8-0.3,1.3-0.3c0.4,0,0.8,0.1,1.1,0.3
			c0.3,0.2,0.5,0.5,0.7,0.9c0.2-0.4,0.5-0.7,0.8-0.9s0.7-0.3,1.2-0.3c0.4,0,0.7,0,1,0.1c0.3,0.1,0.5,0.3,0.7,0.5
			c0.2,0.2,0.3,0.5,0.4,0.9s0.1,0.9,0.1,1.5v4.2h-1.8V87c0-0.6-0.1-1-0.2-1.2c-0.1-0.3-0.4-0.4-0.8-0.4c-0.3,0-0.6,0.1-0.8,0.3
			c-0.2,0.2-0.3,0.4-0.4,0.7v4.6H285.3z"/>
		<path class="st9" d="M292.6,83.9h1.3l0.2,0.8h0.1c0.2-0.4,0.5-0.6,0.9-0.8c0.3-0.2,0.7-0.3,1.2-0.3c0.9,0,1.5,0.3,2,0.8
			c0.4,0.6,0.7,1.4,0.7,2.7c0,0.6-0.1,1.1-0.2,1.6c-0.1,0.5-0.3,0.9-0.6,1.2s-0.6,0.6-1,0.8c-0.4,0.2-0.9,0.3-1.4,0.3
			c-0.3,0-0.5,0-0.7-0.1c-0.2,0-0.4-0.1-0.6-0.2v2.9h-1.8V83.9z M295.7,85.2c-0.4,0-0.6,0.1-0.8,0.3c-0.2,0.2-0.4,0.4-0.5,0.8v2.9
			c0.1,0.1,0.3,0.2,0.4,0.2c0.2,0.1,0.4,0.1,0.6,0.1c0.5,0,0.9-0.2,1.2-0.6c0.3-0.4,0.4-1,0.4-1.8c0-0.6-0.1-1.1-0.3-1.4
			C296.5,85.4,296.2,85.2,295.7,85.2z"/>
		<path class="st9" d="M300.1,81.9c0-0.3,0.1-0.5,0.3-0.7s0.5-0.3,0.8-0.3c0.4,0,0.6,0.1,0.9,0.3c0.2,0.2,0.3,0.4,0.3,0.7
			s-0.1,0.5-0.3,0.7c-0.2,0.2-0.5,0.3-0.9,0.3c-0.4,0-0.6-0.1-0.8-0.3S300.1,82.2,300.1,81.9z M300.3,83.9h1.8v7h-1.8V83.9z"/>
		<path class="st9" d="M305.8,88.5c0,0.3,0,0.6,0.1,0.7s0.2,0.2,0.4,0.2c0.1,0,0.2,0,0.3,0c0.1,0,0.2-0.1,0.4-0.1l0.2,1.4
			c-0.1,0.1-0.4,0.1-0.7,0.2c-0.3,0.1-0.6,0.1-1,0.1c-0.5,0-0.9-0.1-1.2-0.4c-0.3-0.2-0.4-0.7-0.4-1.2v-8.4h1.8V88.5z"/>
		<path class="st9" d="M313.6,90.3c-0.3,0.2-0.7,0.4-1.1,0.6c-0.5,0.2-1,0.2-1.5,0.2c-1.1,0-2-0.3-2.5-1c-0.5-0.7-0.8-1.6-0.8-2.7
			c0-1.2,0.3-2.2,0.9-2.8c0.6-0.6,1.4-0.9,2.5-0.9c0.4,0,0.7,0,1,0.1c0.3,0.1,0.6,0.2,0.9,0.5c0.3,0.2,0.5,0.5,0.6,0.9
			c0.2,0.4,0.2,0.8,0.2,1.4c0,0.2,0,0.4,0,0.6c0,0.2-0.1,0.5-0.1,0.7h-4.2c0,0.6,0.2,1,0.5,1.3s0.7,0.4,1.3,0.4c0.4,0,0.7-0.1,1-0.2
			c0.3-0.1,0.5-0.2,0.7-0.4L313.6,90.3z M311,85.1c-0.5,0-0.8,0.1-1.1,0.4c-0.2,0.3-0.4,0.7-0.4,1.1h2.6c0-0.5,0-0.9-0.2-1.2
			C311.8,85.3,311.5,85.1,311,85.1z"/>
	</g>
	<line class="st10" x1="345.5" y1="99.8" x2="344.5" y2="99.8"/>
	<line class="st11" x1="342.6" y1="99.8" x2="237.3" y2="99.8"/>
	<line class="st10" x1="236.4" y1="99.8" x2="235.4" y2="99.8"/>
	<polygon class="st9" points="338.9,91.6 337.5,93 344.8,99.8 337.5,106.5 338.9,107.9 347.7,99.8 	"/>
	<line class="st1" x1="328.6" y1="151.1" x2="244.9" y2="203.9"/>
	<polygon class="st12" points="318.6,147.8 318.2,149.7 327.9,151.6 325.4,161.1 327.3,161.6 330.4,150 	"/>
	<circle class="st13" cx="342.2" cy="142.6" r="7.8"/>
	<line class="st14" x1="347.7" y1="148.1" x2="336.7" y2="137.1"/>
	<path class="st6" d="M212.5,237.7c-0.6,0-1-0.4-1-1v-5.1c0-1.6,0.8-3.2,2.1-4.1c1-0.8,2.2-1.4,3.5-1.5c0.4-0.1,0.8-0.1,1.1-0.1
		v-1.1c-2.3-1.7-3.6-4.4-3.6-7.2c0-0.9,0-1.3,0-1.6c0-0.2,0-0.3,0-0.5h-0.2c-0.6,0-1-0.4-1-1v-5.6c0-0.2,0.1-0.4,0.2-0.5
		c0.6-3.9,3.2-7.1,6.9-8.4c2.3-0.8,4.7-0.8,7,0c1.5,0.5,2.8,1.4,3.9,2.5c1.6,1.6,2.7,3.7,3,5.9c0.1,0.1,0.1,0.3,0.1,0.5v5.6
		c0,0.6-0.4,1-1,1h-0.2v2.5c0,2.8-1.4,5.4-3.7,7v0.9c0.4,0,0.8,0,1.1,0.1c1.3,0.2,2.5,0.7,3.6,1.6c1.3,1,2.1,2.5,2.1,4.1v5.1
		c0,0.6-0.4,1-1,1L212.5,237.7z"/>
	<path class="st3" d="M223.9,200.3c1.1,0,2.2,0.2,3.2,0.5c1.3,0.5,2.5,1.2,3.5,2.3c1.6,1.5,2.5,3.5,2.8,5.7h0.1v5.6h-1.2v3.5
		c0,2.7-1.4,5.1-3.7,6.5v2.4h1c0.3,0,0.7,0,1,0.1c1.1,0.2,2.2,0.6,3.1,1.4c1.1,0.8,1.7,2,1.8,3.4v5.1h-22.9v-5.1
		c0-1.3,0.7-2.6,1.7-3.4c0.9-0.7,2-1.2,3.1-1.4c0.3-0.1,0.7-0.1,1-0.1h1v-2.5h0.1c-2.3-1.5-3.7-4.1-3.8-6.8c0-1.8-0.1-1.5-0.1-3.2
		h-1.2v-5.6h0.1c0.5-4.8,4.6-8.5,9.5-8.5 M224.1,198.3c-5.6,0-10.4,4.1-11.4,9.6c-0.1,0.3-0.2,0.6-0.2,0.9v5.6
		c0,0.8,0.5,1.5,1.3,1.9c0,0.3,0,0.6,0,1.3c0,2.8,1.2,5.5,3.3,7.4c-1.4,0.2-2.8,0.8-3.9,1.8c-1.6,1.1-2.5,3-2.5,4.9v5.1
		c0,1.1,0.9,2,2,2h22.9c1.1,0,2-0.9,2-2v-5.1c0-1.9-0.9-3.8-2.5-4.9c-1.1-0.9-2.4-1.5-3.7-1.7c2-1.8,3.2-4.4,3.2-7.1v-1.7
		c0.7-0.3,1.2-1,1.2-1.8v-5.6c0-0.3-0.1-0.6-0.2-0.9c-0.4-2.4-1.5-4.6-3.3-6.3c-1.2-1.2-2.7-2.2-4.3-2.7
		C226.6,198.5,225.3,198.3,224.1,198.3L224.1,198.3z"/>
	<polygon class="st3" points="214.2,212.9 214.2,217.2 222,217.2 223.9,217.2 225.9,217.2 233.6,217.2 233.6,212.9 	"/>
	<path class="st15" d="M215.6,212.9c0,1.9,0.1,2.7,0.1,4.6c0.1,4.5,3.8,8.2,8.3,8.2c4.5,0.2,8.2-3.3,8.4-7.8c0,0,0,0,0,0v-5.2"/>
	<path class="st15" d="M214.4,209.7c0-5.3,4.3-9.5,9.6-9.5c1.1,0,2.1,0.2,3.1,0.5c1.3,0.5,2.5,1.2,3.5,2.3c1.8,1.8,2.8,4.2,2.8,6.7"
		/>
	<rect x="214.4" y="209.4" class="st16" width="19.1" height="3.5"/>
	<line class="st16" x1="222.8" y1="220.8" x2="226.3" y2="220.8"/>
	<path class="st6" d="M220.4,213.7c-0.5,0.5-0.6,1.3-0.1,1.9c0.5,0.6,1.3,0.6,1.9,0.2c0.3-0.2,0.5-0.6,0.5-0.9l0,0L220.4,213.7z"/>
	<path class="st6" d="M229.5,213.8l-2.1,1.3c0.1,0.2,0.2,0.4,0.3,0.6c0.5,0.5,1.4,0.5,1.9,0c0.3-0.3,0.4-0.6,0.4-1
		C230,214.4,229.8,214,229.5,213.8z"/>
	<g class="st2">
		<path class="st3" d="M86.7,209.7v-0.8H89v5.7h0.8l1.5-1.8l-0.6-0.1v-0.8h2.9v0.8l-0.8,0.2l-1.8,2.2l2.2,2.8l0.8,0.2v0.8H91V218
			l0.6-0.1l-1.8-2.3H89v2.2l1,0.2v0.8h-3.3V218l1-0.2v-7.9L86.7,209.7z"/>
	</g>
	<g class="st2">
		<path class="st3" d="M97.8,218.9c-1,0-1.7-0.3-2.3-1c-0.6-0.6-0.8-1.5-0.8-2.5v-0.3c0-1,0.3-1.8,0.9-2.4c0.6-0.6,1.3-1,2.1-1
			c0.9,0,1.6,0.3,2.1,0.8c0.5,0.6,0.7,1.3,0.7,2.2v0.8H96l0,0c0,0.7,0.2,1.2,0.5,1.6c0.3,0.4,0.8,0.6,1.4,0.6c0.4,0,0.8-0.1,1.1-0.2
			c0.3-0.1,0.6-0.3,0.8-0.5l0.5,0.8c-0.2,0.2-0.6,0.4-1,0.6C98.9,218.9,98.4,218.9,97.8,218.9z M97.6,212.8c-0.4,0-0.8,0.2-1.1,0.5
			s-0.5,0.8-0.5,1.3l0,0h3.2v-0.2c0-0.5-0.1-0.9-0.4-1.2S98.1,212.8,97.6,212.8z"/>
		<path class="st3" d="M108,212.7l-0.6,0.1l-2.6,7c-0.2,0.5-0.4,0.9-0.7,1.2s-0.8,0.5-1.3,0.5c-0.1,0-0.2,0-0.4,0s-0.3,0-0.4-0.1
			l0.1-1c0,0,0,0,0.2,0c0.2,0,0.3,0,0.3,0c0.3,0,0.5-0.1,0.6-0.3s0.3-0.5,0.4-0.8l0.3-0.7l-2.3-5.8l-0.6-0.1v-0.8h2.8v0.8l-0.8,0.1
			l1.2,3.4l0.2,0.9h0l1.4-4.3l-0.8-0.1v-0.8h2.8V212.7z"/>
	</g>
	<g class="st2">
		<path class="st3" d="M113.5,218c-0.2,0.3-0.5,0.5-0.8,0.7c-0.3,0.2-0.7,0.2-1.1,0.2c-0.8,0-1.5-0.3-2-0.9
			c-0.5-0.6-0.7-1.4-0.7-2.4v-0.1c0-1.1,0.2-2,0.7-2.7c0.5-0.7,1.1-1,2-1c0.4,0,0.8,0.1,1.1,0.2c0.3,0.2,0.6,0.4,0.8,0.7v-2.8
			l-1-0.2v-0.8h1h1.3v8.9l1,0.2v0.8h-2.1L113.5,218z M110.1,215.6c0,0.7,0.1,1.2,0.4,1.7s0.7,0.6,1.3,0.6c0.4,0,0.7-0.1,0.9-0.3
			c0.3-0.2,0.5-0.4,0.6-0.7v-3.2c-0.2-0.3-0.4-0.5-0.6-0.7s-0.6-0.3-0.9-0.3c-0.6,0-1,0.2-1.3,0.7c-0.3,0.5-0.4,1.1-0.4,1.9V215.6z"
			/>
		<path class="st3" d="M121.6,217.8c-0.2,0.4-0.5,0.7-0.8,0.9c-0.3,0.2-0.7,0.3-1.2,0.3c-0.7,0-1.3-0.2-1.7-0.7s-0.6-1.2-0.6-2.2
			v-3.1l-0.8-0.2v-0.8h0.8h1.3v4.1c0,0.7,0.1,1.2,0.3,1.5s0.6,0.4,1,0.4c0.4,0,0.8-0.1,1.1-0.3c0.3-0.2,0.5-0.4,0.7-0.8v-4l-0.9-0.2
			v-0.8h0.9h1.3v5.9l0.8,0.2v0.8h-1.9L121.6,217.8z"/>
		<path class="st3" d="M124.3,218l1-0.2v-4.9l-1-0.2v-0.8h2.2l0.1,0.9c0.2-0.3,0.5-0.6,0.9-0.8s0.7-0.3,1.2-0.3s0.8,0.1,1.2,0.3
			c0.3,0.2,0.6,0.5,0.7,1c0.2-0.4,0.5-0.7,0.9-0.9s0.8-0.3,1.2-0.3c0.7,0,1.3,0.2,1.7,0.7s0.6,1.2,0.6,2.2v3.1l1,0.2v0.8h-3.3V218
			l1-0.2v-3.1c0-0.7-0.1-1.2-0.3-1.4s-0.6-0.4-1-0.4c-0.4,0-0.8,0.2-1.1,0.5c-0.3,0.3-0.4,0.7-0.5,1.2v3.4l1,0.2v0.8h-3.3V218l1-0.2
			v-3.1c0-0.6-0.1-1.1-0.4-1.4c-0.2-0.3-0.6-0.4-1-0.4c-0.4,0-0.7,0.1-0.9,0.2c-0.2,0.2-0.4,0.4-0.6,0.7v4.1l1,0.2v0.8h-3.3V218z"/>
		<path class="st3" d="M136.7,220.6l1-0.2v-7.5l-1-0.2v-0.8h2.1l0.1,0.8c0.2-0.3,0.5-0.6,0.8-0.7c0.3-0.2,0.7-0.2,1.1-0.2
			c0.9,0,1.5,0.3,2,1c0.5,0.7,0.7,1.6,0.7,2.7v0.1c0,1-0.2,1.8-0.7,2.4s-1.1,0.9-2,0.9c-0.4,0-0.8-0.1-1.1-0.2
			c-0.3-0.1-0.6-0.4-0.8-0.6v2.4l1,0.2v0.8h-3.3V220.6z M142.3,215.5c0-0.8-0.2-1.4-0.5-1.9s-0.8-0.7-1.4-0.7
			c-0.4,0-0.7,0.1-0.9,0.2s-0.5,0.4-0.6,0.7v3.3c0.2,0.3,0.4,0.5,0.6,0.7c0.3,0.2,0.6,0.2,0.9,0.2c0.6,0,1-0.2,1.3-0.6
			s0.5-1,0.5-1.7V215.5z"/>
		<path class="st3" d="M150,214.1h-0.9l-0.2-0.8c-0.2-0.1-0.3-0.3-0.6-0.3c-0.2-0.1-0.5-0.1-0.8-0.1c-0.4,0-0.8,0.1-1,0.3
			c-0.2,0.2-0.3,0.4-0.3,0.7c0,0.3,0.1,0.5,0.3,0.6c0.2,0.2,0.6,0.3,1.2,0.4c0.9,0.2,1.5,0.4,1.9,0.8s0.6,0.7,0.6,1.3
			c0,0.6-0.2,1.1-0.7,1.5c-0.5,0.4-1.1,0.6-1.9,0.6c-0.5,0-1-0.1-1.4-0.2c-0.4-0.1-0.8-0.3-1.1-0.5l0-1.6h0.9l0.2,0.9
			c0.1,0.1,0.3,0.2,0.6,0.3c0.2,0.1,0.5,0.1,0.8,0.1c0.4,0,0.8-0.1,1-0.3c0.3-0.2,0.4-0.4,0.4-0.7c0-0.3-0.1-0.5-0.3-0.7
			c-0.2-0.2-0.6-0.3-1.2-0.5c-0.8-0.2-1.5-0.4-1.9-0.7s-0.6-0.7-0.6-1.3c0-0.6,0.2-1,0.7-1.4c0.5-0.4,1.1-0.6,1.9-0.6
			c0.5,0,1,0.1,1.4,0.2s0.8,0.3,1,0.6L150,214.1z"/>
		<path class="st3" d="M153.5,210.3v1.7h1.3v0.9h-1.3v4.2c0,0.3,0.1,0.5,0.2,0.7c0.1,0.1,0.3,0.2,0.5,0.2c0.1,0,0.2,0,0.4,0
			c0.1,0,0.3,0,0.3-0.1l0.2,0.9c-0.1,0.1-0.3,0.1-0.5,0.2s-0.5,0.1-0.7,0.1c-0.5,0-0.9-0.2-1.2-0.5s-0.5-0.8-0.5-1.4v-4.2h-1.1v-0.9
			h1.1v-1.7H153.5z"/>
		<path class="st3" d="M160.6,218.8c0-0.2-0.1-0.4-0.1-0.5c0-0.1,0-0.3,0-0.4c-0.2,0.3-0.5,0.6-0.9,0.8c-0.4,0.2-0.7,0.3-1.2,0.3
			c-0.7,0-1.3-0.2-1.6-0.5c-0.4-0.3-0.6-0.8-0.6-1.5c0-0.7,0.3-1.2,0.8-1.5c0.5-0.4,1.2-0.5,2.2-0.5h1.3v-0.8c0-0.4-0.1-0.7-0.4-1
			c-0.3-0.2-0.6-0.4-1.1-0.4c-0.3,0-0.6,0-0.8,0.1c-0.2,0.1-0.4,0.2-0.6,0.3l-0.1,0.7h-1v-1.3c0.3-0.3,0.7-0.4,1.1-0.6
			s0.9-0.2,1.4-0.2c0.8,0,1.4,0.2,1.9,0.6s0.7,1,0.7,1.7v3.3c0,0.1,0,0.2,0,0.3c0,0.1,0,0.2,0,0.3l0.5,0.1v0.8H160.6z M158.6,217.9
			c0.4,0,0.8-0.1,1.1-0.3c0.3-0.2,0.6-0.4,0.7-0.7v-1.1h-1.3c-0.5,0-0.9,0.1-1.2,0.4c-0.3,0.2-0.4,0.5-0.4,0.9
			c0,0.3,0.1,0.5,0.3,0.7C157.9,217.8,158.2,217.9,158.6,217.9z"/>
		<path class="st3" d="M166.4,218c0.4,0,0.8-0.1,1.1-0.4c0.3-0.3,0.5-0.6,0.5-0.9h1.1l0,0c0,0.6-0.2,1.1-0.8,1.6
			c-0.5,0.5-1.2,0.7-1.9,0.7c-1,0-1.8-0.3-2.3-1c-0.5-0.7-0.8-1.5-0.8-2.5v-0.3c0-1,0.3-1.8,0.8-2.4c0.5-0.7,1.3-1,2.3-1
			c0.6,0,1,0.1,1.5,0.3c0.4,0.2,0.8,0.4,1.1,0.8l0.1,1.5h-1l-0.3-1.1c-0.1-0.1-0.3-0.3-0.6-0.3s-0.5-0.1-0.8-0.1
			c-0.7,0-1.1,0.2-1.4,0.7c-0.3,0.5-0.4,1.1-0.4,1.7v0.3c0,0.7,0.1,1.3,0.4,1.8S165.7,218,166.4,218z"/>
		<path class="st3" d="M170.1,209.7v-0.8h2.3v5.7h0.8l1.5-1.8l-0.6-0.1v-0.8h2.9v0.8l-0.8,0.2l-1.8,2.2l2.2,2.8l0.8,0.2v0.8h-2.9
			V218l0.6-0.1l-1.8-2.3h-0.8v2.2l1,0.2v0.8h-3.3V218l1-0.2v-7.9L170.1,209.7z"/>
		<path class="st3" d="M179.8,218.8h-1.3v-1.3h1.3V218.8z"/>
	</g>
	<g class="st2">
		<path class="st3" d="M181.2,220.6l1-0.2v-7.5l-1-0.2v-0.8h2.1l0.1,0.8c0.2-0.3,0.5-0.6,0.8-0.7c0.3-0.2,0.7-0.2,1.1-0.2
			c0.9,0,1.5,0.3,2,1c0.5,0.7,0.7,1.6,0.7,2.7v0.1c0,1-0.2,1.8-0.7,2.4c-0.5,0.6-1.1,0.9-2,0.9c-0.4,0-0.8-0.1-1.1-0.2
			s-0.6-0.4-0.8-0.6v2.4l1,0.2v0.8h-3.3V220.6z M186.8,215.5c0-0.8-0.2-1.4-0.5-1.9s-0.8-0.7-1.4-0.7c-0.4,0-0.7,0.1-0.9,0.2
			s-0.5,0.4-0.6,0.7v3.3c0.2,0.3,0.4,0.5,0.6,0.7s0.6,0.2,0.9,0.2c0.6,0,1-0.2,1.3-0.6s0.5-1,0.5-1.7V215.5z"/>
	</g>
	<g class="st2">
		<path class="st3" d="M195.7,212.7l-0.6,0.1l-2.6,7c-0.2,0.5-0.4,0.9-0.7,1.2s-0.8,0.5-1.3,0.5c-0.1,0-0.2,0-0.4,0s-0.3,0-0.4-0.1
			l0.1-1c0,0,0,0,0.2,0c0.2,0,0.3,0,0.3,0c0.3,0,0.5-0.1,0.6-0.3s0.3-0.5,0.4-0.8l0.3-0.7l-2.3-5.8l-0.6-0.1v-0.8h2.8v0.8l-0.8,0.1
			l1.2,3.4l0.2,0.9h0l1.4-4.3l-0.8-0.1v-0.8h2.8V212.7z"/>
	</g>
</g>
</svg>
