<?xml version="1.0" encoding="utf-8"?>
<!-- Generator: Adobe Illustrator 24.0.0, SVG Export Plug-In . SVG Version: 6.00 Build 0)  -->
<svg version="1.1" id="Ebene_1" xmlns="http://www.w3.org/2000/svg" xmlns:xlink="http://www.w3.org/1999/xlink" x="0px" y="0px"
	 viewBox="0 0 843.3 231.8" style="enable-background:new 0 0 843.3 231.8;" xml:space="preserve">
<style type="text/css">
	.st0{fill:url(#SVGID_1_);stroke:#FFCC00;stroke-width:2;stroke-miterlimit:10;}
	.st1{enable-background:new    ;}
	.st2{fill:#330066;}
	.st3{fill:none;stroke:#FFCC00;stroke-width:2;stroke-miterlimit:10;}
	.st4{fill:#FFFFFF;stroke:#FFCC00;stroke-width:2;stroke-miterlimit:10;}
	.st5{fill:url(#SVGID_2_);stroke:#FFCC00;stroke-width:2;stroke-miterlimit:10;}
	.st6{fill:#FFFFFF;stroke:#FFCC00;stroke-width:2;stroke-linecap:round;stroke-linejoin:round;}
	.st7{fill:none;stroke:#FFCC00;stroke-width:2;stroke-linecap:round;stroke-linejoin:round;}
	.st8{fill:#FFCC00;}
	.st9{clip-path:url(#SVGID_4_);}
	.st10{clip-path:url(#SVGID_6_);}
	.st11{fill:#FFD138;}
	.st12{fill:#FDFEFF;}
	.st13{fill:none;stroke:#3399FF;stroke-width:2;stroke-miterlimit:10;}
	.st14{fill:#3399FF;}
</style>
<g id="Ebene_2_1_">
	
		<linearGradient id="SVGID_1_" gradientUnits="userSpaceOnUse" x1="330.76" y1="119.735" x2="500.76" y2="119.735" gradientTransform="matrix(1 0 0 -1 0 234)">
		<stop  offset="0" style="stop-color:#990066"/>
		<stop  offset="0.19" style="stop-color:#780066"/>
		<stop  offset="0.4" style="stop-color:#5A0066"/>
		<stop  offset="0.61" style="stop-color:#440066"/>
		<stop  offset="0.81" style="stop-color:#370066"/>
		<stop  offset="1" style="stop-color:#330066"/>
	</linearGradient>
	<path class="st0" d="M495.8,133h-160c-2.8,0-5-2.2-5-5V95.5l0,0h170l0,0V128C500.8,130.8,498.5,133,495.8,133z"/>
	<g class="st1">
		<path class="st2" d="M391.7,155.4h1.7v-5.8l0.1-0.7l-0.5,0.6l-1.3,0.9l-0.5-0.6l2.6-2h0.4v7.7h1.6v0.9h-4.3V155.4z"/>
		<path class="st2" d="M401.1,147.9h1v3h0c0.2-0.2,0.4-0.4,0.7-0.5c0.3-0.1,0.6-0.2,0.9-0.2c0.8,0,1.4,0.2,1.7,0.7
			c0.4,0.5,0.6,1.3,0.6,2.3c0,1-0.3,1.8-0.8,2.4c-0.5,0.5-1.2,0.8-2.2,0.8c-0.4,0-0.9,0-1.2-0.1c-0.4-0.1-0.6-0.2-0.8-0.3V147.9z
			 M403.6,151c-0.4,0-0.7,0.1-1,0.3s-0.4,0.5-0.5,0.9v3c0.2,0.1,0.3,0.2,0.6,0.2s0.4,0.1,0.7,0.1c0.5,0,1-0.2,1.3-0.6
			c0.3-0.4,0.5-1,0.5-1.8c0-0.3,0-0.6-0.1-0.9c-0.1-0.3-0.1-0.5-0.3-0.7c-0.1-0.2-0.3-0.3-0.5-0.5S403.8,151,403.6,151z"/>
		<path class="st2" d="M407.6,148.5c0-0.2,0.1-0.3,0.2-0.5s0.3-0.2,0.5-0.2s0.4,0.1,0.5,0.2c0.1,0.1,0.2,0.3,0.2,0.5
			c0,0.2-0.1,0.3-0.2,0.5c-0.1,0.1-0.3,0.2-0.5,0.2s-0.4-0.1-0.5-0.2S407.6,148.7,407.6,148.5z M407.8,150.3h1v6h-1V150.3z"/>
		<path class="st2" d="M414.6,156.3v-3.4c0-0.6-0.1-1.1-0.3-1.4c-0.2-0.3-0.5-0.5-1-0.5c-0.4,0-0.8,0.1-1.1,0.3
			c-0.3,0.2-0.5,0.5-0.6,0.9v4.1h-1v-6h0.7l0.2,0.7h0c0.2-0.3,0.4-0.5,0.8-0.6c0.3-0.2,0.7-0.2,1.2-0.2c0.3,0,0.6,0,0.9,0.1
			c0.2,0.1,0.5,0.2,0.6,0.4s0.3,0.5,0.4,0.8c0.1,0.3,0.1,0.7,0.1,1.2v3.6H414.6z"/>
		<path class="st2" d="M417.3,150.8c0.3-0.2,0.7-0.3,1.1-0.4c0.4-0.1,0.8-0.1,1.3-0.1c0.4,0,0.8,0.1,1,0.2c0.3,0.1,0.4,0.3,0.6,0.4
			c0.1,0.2,0.2,0.4,0.3,0.6c0,0.2,0.1,0.4,0.1,0.6c0,0.5,0,0.9,0,1.4s0,0.9,0,1.3c0,0.3,0,0.6,0,0.8s0.1,0.5,0.1,0.7h-0.7l-0.3-0.8
			h-0.1c-0.1,0.1-0.2,0.2-0.3,0.3c-0.1,0.1-0.2,0.2-0.4,0.3s-0.3,0.2-0.5,0.2c-0.2,0.1-0.4,0.1-0.7,0.1c-0.3,0-0.5,0-0.7-0.1
			c-0.2-0.1-0.4-0.2-0.6-0.3c-0.2-0.1-0.3-0.3-0.4-0.5c-0.1-0.2-0.1-0.4-0.1-0.7c0-0.4,0.1-0.6,0.2-0.9c0.1-0.2,0.3-0.4,0.6-0.6
			c0.3-0.1,0.6-0.2,0.9-0.3c0.4-0.1,0.8-0.1,1.2-0.1c0.1,0,0.2,0,0.3,0c0.1,0,0.2,0,0.3,0c0-0.2,0-0.5,0-0.6c0-0.4-0.1-0.7-0.3-0.9
			c-0.2-0.2-0.5-0.3-1-0.3c-0.1,0-0.3,0-0.4,0c-0.2,0-0.3,0-0.5,0.1s-0.3,0.1-0.5,0.1s-0.3,0.1-0.4,0.2L417.3,150.8z M419,155.6
			c0.2,0,0.4,0,0.6-0.1c0.2-0.1,0.3-0.1,0.5-0.2c0.1-0.1,0.2-0.2,0.3-0.3c0.1-0.1,0.1-0.2,0.2-0.3v-1c-0.1,0-0.2,0-0.3,0
			c-0.1,0-0.2,0-0.3,0c-0.2,0-0.5,0-0.7,0c-0.2,0-0.4,0.1-0.6,0.2c-0.2,0.1-0.3,0.2-0.4,0.3s-0.2,0.3-0.2,0.5c0,0.3,0.1,0.5,0.3,0.7
			C418.4,155.5,418.7,155.6,419,155.6z"/>
		<path class="st2" d="M426.1,151.3c-0.2-0.1-0.5-0.1-0.7-0.1c-0.3,0-0.6,0.1-0.8,0.3c-0.2,0.2-0.3,0.4-0.4,0.7v4.2h-1v-6h0.7
			l0.2,0.7h0c0.2-0.3,0.3-0.5,0.5-0.6c0.2-0.1,0.5-0.2,0.8-0.2c0.2,0,0.5,0,0.8,0.1L426.1,151.3z"/>
	</g>
	<g class="st1">
		<path class="st2" d="M429.2,154.2l0.3,1.2h0.1l0.3-1.2l1.2-3.9h1l-1.8,5.4c-0.1,0.4-0.3,0.8-0.4,1.1c-0.1,0.4-0.3,0.7-0.4,1
			s-0.3,0.5-0.5,0.7s-0.4,0.3-0.7,0.3c-0.3,0-0.5,0-0.7-0.1l0.2-0.8c0.1,0,0.2,0.1,0.3,0.1c0.2,0,0.4-0.1,0.6-0.4
			c0.2-0.2,0.4-0.6,0.5-1.2l-2.4-6h1.1L429.2,154.2z"/>
	</g>
	<g class="st1">
		<path class="st2" d="M714.7,220.2c-0.2,0.2-0.5,0.3-0.9,0.5c-0.4,0.1-0.8,0.2-1.2,0.2c-0.5,0-0.9-0.1-1.2-0.2
			c-0.3-0.1-0.6-0.4-0.8-0.6c-0.2-0.3-0.4-0.6-0.5-1s-0.2-0.8-0.2-1.3c0-1,0.2-1.8,0.7-2.3s1.1-0.8,2-0.8c0.3,0,0.5,0,0.8,0.1
			c0.3,0.1,0.5,0.2,0.7,0.3s0.4,0.4,0.5,0.7c0.1,0.3,0.2,0.7,0.2,1.2c0,0.3,0,0.6-0.1,0.9H711c0,0.4,0,0.7,0.1,0.9
			c0.1,0.3,0.2,0.5,0.3,0.7c0.2,0.2,0.3,0.3,0.6,0.4c0.2,0.1,0.5,0.1,0.9,0.1c0.3,0,0.5,0,0.8-0.1c0.3-0.1,0.5-0.2,0.6-0.3
			L714.7,220.2z M712.7,215.4c-0.5,0-0.9,0.1-1.1,0.4c-0.3,0.2-0.5,0.7-0.5,1.3h3c0-0.6-0.1-1-0.3-1.3
			C713.4,215.5,713.1,215.4,712.7,215.4z"/>
		<path class="st2" d="M720.3,220.7v-3.4c0-0.6-0.1-1.1-0.3-1.4c-0.2-0.3-0.5-0.5-1-0.5c-0.4,0-0.8,0.1-1.1,0.3
			c-0.3,0.2-0.5,0.5-0.6,0.9v4.1h-1v-6h0.7l0.2,0.7h0c0.2-0.3,0.5-0.5,0.8-0.6c0.3-0.2,0.7-0.2,1.2-0.2c0.3,0,0.6,0,0.9,0.1
			c0.2,0.1,0.5,0.2,0.6,0.4s0.3,0.5,0.4,0.8c0.1,0.3,0.1,0.7,0.1,1.2v3.6H720.3z"/>
		<path class="st2" d="M727.1,220.3c-0.2,0.2-0.5,0.3-0.9,0.4s-0.7,0.1-1,0.1c-0.5,0-0.9-0.1-1.2-0.2c-0.3-0.1-0.6-0.4-0.8-0.6
			c-0.2-0.3-0.4-0.6-0.4-1c-0.1-0.4-0.1-0.8-0.1-1.3c0-1,0.2-1.8,0.7-2.3c0.4-0.5,1.1-0.8,1.9-0.8c0.4,0,0.7,0,1,0.1
			c0.3,0.1,0.5,0.1,0.7,0.3l-0.3,0.8c-0.2-0.1-0.4-0.2-0.6-0.2c-0.2-0.1-0.5-0.1-0.7-0.1c-1.1,0-1.7,0.8-1.7,2.3
			c0,0.3,0,0.6,0.1,0.9c0.1,0.3,0.2,0.5,0.3,0.7c0.1,0.2,0.3,0.4,0.6,0.5c0.2,0.1,0.5,0.2,0.8,0.2c0.3,0,0.5,0,0.8-0.1
			c0.2-0.1,0.4-0.2,0.6-0.3L727.1,220.3z"/>
		<path class="st2" d="M729.5,219.2c0,0.3,0,0.5,0.1,0.6s0.2,0.2,0.4,0.2c0.1,0,0.2,0,0.3,0c0.1,0,0.3-0.1,0.4-0.1l0.1,0.8
			c-0.1,0.1-0.3,0.1-0.5,0.2c-0.2,0-0.4,0.1-0.6,0.1c-0.4,0-0.7-0.1-0.9-0.3c-0.2-0.2-0.3-0.5-0.3-1v-7.2h1V219.2z"/>
		<path class="st2" d="M731.8,215.1c0.3-0.2,0.7-0.3,1.1-0.4s0.8-0.1,1.3-0.1c0.4,0,0.8,0.1,1,0.2c0.3,0.1,0.4,0.3,0.6,0.4
			c0.1,0.2,0.2,0.4,0.3,0.6c0,0.2,0.1,0.4,0.1,0.6c0,0.5,0,0.9,0,1.4c0,0.5,0,0.9,0,1.3c0,0.3,0,0.6,0,0.8c0,0.3,0.1,0.5,0.1,0.7
			h-0.7l-0.3-0.8h-0.1c-0.1,0.1-0.2,0.2-0.3,0.3c-0.1,0.1-0.2,0.2-0.4,0.3c-0.2,0.1-0.3,0.2-0.5,0.2c-0.2,0.1-0.4,0.1-0.7,0.1
			s-0.5,0-0.7-0.1c-0.2-0.1-0.4-0.2-0.6-0.3c-0.2-0.1-0.3-0.3-0.4-0.5c-0.1-0.2-0.1-0.4-0.1-0.7c0-0.4,0.1-0.6,0.2-0.9
			c0.1-0.2,0.3-0.4,0.6-0.6c0.3-0.1,0.6-0.2,0.9-0.3c0.4-0.1,0.8-0.1,1.2-0.1c0.1,0,0.2,0,0.3,0s0.2,0,0.3,0c0-0.2,0-0.5,0-0.6
			c0-0.4-0.1-0.7-0.3-0.9c-0.2-0.2-0.5-0.3-1-0.3c-0.1,0-0.3,0-0.4,0c-0.2,0-0.3,0-0.5,0.1s-0.3,0.1-0.5,0.1
			c-0.1,0.1-0.3,0.1-0.4,0.2L731.8,215.1z M733.5,219.9c0.2,0,0.4,0,0.6-0.1s0.3-0.1,0.5-0.2c0.1-0.1,0.2-0.2,0.3-0.3
			c0.1-0.1,0.1-0.2,0.2-0.3v-1c-0.1,0-0.2,0-0.3,0c-0.1,0-0.2,0-0.3,0c-0.2,0-0.5,0-0.7,0s-0.4,0.1-0.6,0.2s-0.3,0.2-0.4,0.3
			c-0.1,0.1-0.2,0.3-0.2,0.5c0,0.3,0.1,0.5,0.3,0.7C733,219.8,733.2,219.9,733.5,219.9z"/>
	</g>
	<g class="st1">
		<path class="st2" d="M739.6,218.2l0.3,1.1h0l0.3-1.2l1.3-3.5h1l-2.6,6.1h-0.4l-2.6-6.1h1.1L739.6,218.2z"/>
	</g>
	<g class="st1">
		<path class="st2" d="M747.9,220.2c-0.2,0.2-0.5,0.3-0.9,0.5c-0.4,0.1-0.8,0.2-1.2,0.2c-0.5,0-0.9-0.1-1.2-0.2
			c-0.3-0.1-0.6-0.4-0.8-0.6c-0.2-0.3-0.4-0.6-0.5-1c-0.1-0.4-0.2-0.8-0.2-1.3c0-1,0.2-1.8,0.7-2.3s1.1-0.8,2-0.8
			c0.3,0,0.5,0,0.8,0.1c0.3,0.1,0.5,0.2,0.7,0.3c0.2,0.2,0.4,0.4,0.5,0.7c0.1,0.3,0.2,0.7,0.2,1.2c0,0.3,0,0.6-0.1,0.9h-3.9
			c0,0.4,0,0.7,0.1,0.9c0.1,0.3,0.2,0.5,0.3,0.7c0.2,0.2,0.4,0.3,0.6,0.4c0.2,0.1,0.5,0.1,0.9,0.1c0.3,0,0.5,0,0.8-0.1
			c0.3-0.1,0.5-0.2,0.6-0.3L747.9,220.2z M745.9,215.4c-0.5,0-0.9,0.1-1.1,0.4s-0.5,0.7-0.5,1.3h3c0-0.6-0.1-1-0.3-1.3
			C746.6,215.5,746.3,215.4,745.9,215.4z"/>
	</g>
	<path class="st3" d="M18.6,21h160c2.8,0,5,2.2,5,5v20c0,2.8-2.2,5-5,5h-160c-2.8,0-5-2.2-5-5V26C13.6,23.2,15.9,21,18.6,21z"/>
	<g class="st1">
		<path class="st2" d="M65.9,39.3l0.6-0.1l2.6-7.4h1.8l2.6,7.4l0.6,0.1v1h-2.9v-1l0.6-0.1L71.3,38h-2.8l-0.4,1.2l0.6,0.1v1h-2.9
			V39.3z M69,36.7h2l-1-3h0L69,36.7z"/>
		<path class="st2" d="M74.5,35v-1H77l0.1,0.7c0.2-0.3,0.4-0.5,0.7-0.6s0.6-0.2,0.9-0.2c0.8,0,1.4,0.3,1.8,0.9s0.7,1.4,0.7,2.4v0.1
			c0,0.9-0.2,1.7-0.7,2.3s-1,0.9-1.8,0.9c-0.3,0-0.6-0.1-0.9-0.2s-0.5-0.3-0.7-0.5v1.8l0.8,0.2v1h-3.4v-1l0.8-0.2v-6.4L74.5,35z
			 M79.4,37.2c0-0.6-0.1-1.1-0.3-1.5s-0.5-0.6-0.9-0.6c-0.3,0-0.5,0.1-0.7,0.2s-0.3,0.3-0.4,0.5v2.8c0.1,0.2,0.2,0.3,0.4,0.4
			s0.4,0.1,0.7,0.1c0.4,0,0.7-0.2,0.9-0.5s0.3-0.8,0.3-1.3V37.2z"/>
	</g>
	<g class="st1">
		<path class="st2" d="M81.7,35v-1h2.5l0.1,0.7c0.2-0.3,0.4-0.5,0.7-0.6s0.6-0.2,0.9-0.2c0.8,0,1.4,0.3,1.8,0.9s0.7,1.4,0.7,2.4v0.1
			c0,0.9-0.2,1.7-0.7,2.3s-1,0.9-1.8,0.9c-0.3,0-0.6-0.1-0.9-0.2s-0.5-0.3-0.7-0.5v1.8l0.8,0.2v1h-3.4v-1l0.8-0.2v-6.4L81.7,35z
			 M86.7,37.2c0-0.6-0.1-1.1-0.3-1.5s-0.5-0.6-0.9-0.6c-0.3,0-0.5,0.1-0.7,0.2s-0.3,0.3-0.4,0.5v2.8c0.1,0.2,0.2,0.3,0.4,0.4
			s0.4,0.1,0.7,0.1c0.4,0,0.7-0.2,0.9-0.5s0.3-0.8,0.3-1.3V37.2z"/>
	</g>
	<g class="st1">
		<path class="st2" d="M88.8,32.2v-1h2.6v7.9l0.8,0.2v1h-3.4v-1l0.8-0.2v-6.7L88.8,32.2z"/>
		<path class="st2" d="M92.8,39.3l0.8-0.2v-3.9L92.7,35v-1h2.6v5.1l0.8,0.2v1h-3.4V39.3z M95.3,32.5h-1.7v-1.3h1.7V32.5z"/>
		<path class="st2" d="M99.7,39.1c0.3,0,0.5-0.1,0.7-0.3s0.3-0.4,0.3-0.7h1.5l0,0c0,0.6-0.2,1.2-0.7,1.6s-1.1,0.6-1.9,0.6
			c-0.9,0-1.7-0.3-2.2-0.9s-0.8-1.4-0.8-2.3v-0.2c0-0.9,0.3-1.7,0.8-2.3s1.3-0.9,2.2-0.9c0.5,0,1,0.1,1.4,0.2s0.7,0.4,1,0.6l0,1.7
			h-1.4l-0.3-1c-0.1-0.1-0.2-0.1-0.3-0.2s-0.3-0.1-0.4-0.1c-0.5,0-0.8,0.2-1,0.5s-0.3,0.8-0.3,1.4v0.2c0,0.6,0.1,1,0.3,1.4
			S99.2,39.1,99.7,39.1z"/>
	</g>
	<g class="st1">
		<path class="st2" d="M107.1,40.3c0-0.1-0.1-0.2-0.1-0.3s-0.1-0.2-0.1-0.3c-0.2,0.2-0.5,0.4-0.7,0.6s-0.6,0.2-1,0.2
			c-0.6,0-1.1-0.2-1.5-0.5s-0.5-0.8-0.5-1.4c0-0.6,0.2-1.1,0.7-1.4s1.2-0.5,2.1-0.5h0.9v-0.6c0-0.3-0.1-0.5-0.3-0.7
			s-0.4-0.3-0.8-0.3c-0.2,0-0.4,0-0.5,0.1s-0.3,0.1-0.4,0.2l-0.1,0.7h-1.3l0-1.4c0.3-0.2,0.7-0.4,1.1-0.5s0.8-0.2,1.3-0.2
			c0.8,0,1.4,0.2,1.9,0.6s0.7,0.9,0.7,1.6v2.6c0,0.1,0,0.2,0,0.3s0,0.2,0,0.2l0.5,0.1v1H107.1z M105.6,39.2c0.3,0,0.5-0.1,0.7-0.2
			s0.4-0.3,0.5-0.4v-1h-0.9c-0.4,0-0.6,0.1-0.8,0.3s-0.3,0.4-0.3,0.6c0,0.2,0.1,0.4,0.2,0.5S105.3,39.2,105.6,39.2z"/>
	</g>
	<g class="st1">
		<path class="st2" d="M111.7,32.4V34h1.1v1.2h-1.1v3.2c0,0.2,0.1,0.4,0.2,0.5s0.2,0.2,0.4,0.2c0.1,0,0.2,0,0.3,0s0.2,0,0.3,0
			l0.1,1.2c-0.2,0.1-0.4,0.1-0.6,0.1s-0.4,0-0.6,0c-0.6,0-1-0.2-1.4-0.5s-0.5-0.8-0.5-1.5v-3.2H109V34h0.9v-1.6H111.7z"/>
		<path class="st2" d="M113.6,39.3l0.8-0.2v-3.9l-0.9-0.2v-1h2.6v5.1l0.8,0.2v1h-3.4V39.3z M116.1,32.5h-1.7v-1.3h1.7V32.5z"/>
		<path class="st2" d="M117.5,37.1c0-0.9,0.3-1.7,0.8-2.3s1.3-0.9,2.2-0.9c0.9,0,1.7,0.3,2.2,0.9s0.8,1.4,0.8,2.3v0.1
			c0,1-0.3,1.7-0.8,2.3s-1.3,0.9-2.2,0.9c-0.9,0-1.7-0.3-2.2-0.9s-0.8-1.4-0.8-2.3V37.1z M119.2,37.2c0,0.6,0.1,1,0.3,1.4
			s0.5,0.5,1,0.5c0.4,0,0.8-0.2,1-0.5s0.3-0.8,0.3-1.4v-0.1c0-0.6-0.1-1-0.3-1.4s-0.5-0.5-1-0.5s-0.8,0.2-1,0.5s-0.3,0.8-0.3,1.4
			V37.2z"/>
		<path class="st2" d="M124.1,39.3l0.8-0.2v-3.9L124,35v-1h2.5l0.1,0.9c0.2-0.3,0.5-0.6,0.8-0.8s0.7-0.3,1-0.3
			c0.6,0,1.1,0.2,1.5,0.6s0.5,1,0.5,1.9v2.8l0.8,0.2v1H128v-1l0.7-0.2v-2.8c0-0.4-0.1-0.7-0.3-0.9s-0.4-0.3-0.8-0.3
			c-0.2,0-0.4,0-0.6,0.1s-0.3,0.2-0.5,0.4v3.4l0.7,0.2v1h-3.2V39.3z"/>
	</g>
	<path class="st3" d="M18.6,65.9h160c2.8,0,5,2.2,5,5v20c0,2.8-2.2,5-5,5h-160c-2.8,0-5-2.2-5-5v-20C13.6,68.1,15.9,65.9,18.6,65.9z
		"/>
	<g class="st1">
		<path class="st2" d="M40.6,84.2l0.6-0.1l2.6-7.4h1.8l2.6,7.4l0.6,0.1v1h-2.9v-1l0.6-0.1L46,82.9h-2.8l-0.4,1.2l0.6,0.1v1h-2.9
			V84.2z M43.7,81.7h2l-1-3h0L43.7,81.7z"/>
		<path class="st2" d="M49.2,79.9v-1h2.5l0.1,0.7c0.2-0.3,0.4-0.5,0.7-0.6s0.6-0.2,0.9-0.2c0.8,0,1.4,0.3,1.8,0.9s0.7,1.4,0.7,2.4
			v0.1c0,0.9-0.2,1.7-0.7,2.3s-1,0.9-1.8,0.9c-0.3,0-0.6-0.1-0.9-0.2s-0.5-0.3-0.7-0.5v1.8l0.8,0.2v1h-3.4v-1l0.8-0.2v-6.4
			L49.2,79.9z M54.1,82.1c0-0.6-0.1-1.1-0.3-1.5s-0.5-0.6-0.9-0.6c-0.3,0-0.5,0.1-0.7,0.2s-0.3,0.3-0.4,0.5v2.8
			c0.1,0.2,0.2,0.3,0.4,0.4s0.4,0.1,0.7,0.1c0.4,0,0.7-0.2,0.9-0.5s0.3-0.8,0.3-1.3V82.1z"/>
	</g>
	<g class="st1">
		<path class="st2" d="M56.5,79.9v-1h2.5l0.1,0.7c0.2-0.3,0.4-0.5,0.7-0.6s0.6-0.2,0.9-0.2c0.8,0,1.4,0.3,1.8,0.9s0.7,1.4,0.7,2.4
			v0.1c0,0.9-0.2,1.7-0.7,2.3s-1,0.9-1.8,0.9c-0.3,0-0.6-0.1-0.9-0.2s-0.5-0.3-0.7-0.5v1.8l0.8,0.2v1h-3.4v-1l0.8-0.2v-6.4
			L56.5,79.9z M61.4,82.1c0-0.6-0.1-1.1-0.3-1.5s-0.5-0.6-0.9-0.6c-0.3,0-0.5,0.1-0.7,0.2s-0.3,0.3-0.4,0.5v2.8
			c0.1,0.2,0.2,0.3,0.4,0.4s0.4,0.1,0.7,0.1c0.4,0,0.7-0.2,0.9-0.5s0.3-0.8,0.3-1.3V82.1z"/>
	</g>
	<g class="st1">
		<path class="st2" d="M63.6,77.1v-1h2.6V84l0.8,0.2v1h-3.4v-1l0.8-0.2v-6.7L63.6,77.1z"/>
		<path class="st2" d="M67.5,84.2l0.8-0.2v-3.9l-0.9-0.2v-1H70V84l0.8,0.2v1h-3.4V84.2z M70,77.4h-1.7v-1.3H70V77.4z"/>
		<path class="st2" d="M74.4,84.1c0.3,0,0.5-0.1,0.7-0.3s0.3-0.4,0.3-0.7H77l0,0c0,0.6-0.2,1.2-0.7,1.6s-1.1,0.6-1.9,0.6
			c-0.9,0-1.7-0.3-2.2-0.9s-0.8-1.4-0.8-2.3V82c0-0.9,0.3-1.7,0.8-2.3s1.3-0.9,2.2-0.9c0.5,0,1,0.1,1.4,0.2s0.7,0.4,1,0.6l0,1.7
			h-1.4l-0.3-1c-0.1-0.1-0.2-0.1-0.3-0.2s-0.3-0.1-0.4-0.1c-0.5,0-0.8,0.2-1,0.5s-0.3,0.8-0.3,1.4v0.2c0,0.6,0.1,1,0.3,1.4
			S73.9,84.1,74.4,84.1z"/>
	</g>
	<g class="st1">
		<path class="st2" d="M81.8,85.3c0-0.1-0.1-0.2-0.1-0.3s-0.1-0.2-0.1-0.3c-0.2,0.2-0.5,0.4-0.7,0.6s-0.6,0.2-1,0.2
			c-0.6,0-1.1-0.2-1.5-0.5s-0.5-0.8-0.5-1.4c0-0.6,0.2-1.1,0.7-1.4s1.2-0.5,2.1-0.5h0.9V81c0-0.3-0.1-0.5-0.3-0.7S80.8,80,80.5,80
			c-0.2,0-0.4,0-0.5,0.1s-0.3,0.1-0.4,0.2l-0.1,0.7h-1.3l0-1.4c0.3-0.2,0.7-0.4,1.1-0.5s0.8-0.2,1.3-0.2c0.8,0,1.4,0.2,1.9,0.6
			s0.7,0.9,0.7,1.6v2.6c0,0.1,0,0.2,0,0.3s0,0.2,0,0.2l0.5,0.1v1H81.8z M80.3,84.1c0.3,0,0.5-0.1,0.7-0.2s0.4-0.3,0.5-0.4v-1h-0.9
			c-0.4,0-0.6,0.1-0.8,0.3s-0.3,0.4-0.3,0.6c0,0.2,0.1,0.4,0.2,0.5S80.1,84.1,80.3,84.1z"/>
	</g>
	<g class="st1">
		<path class="st2" d="M86.4,77.4v1.6h1.1v1.2h-1.1v3.2c0,0.2,0.1,0.4,0.2,0.5S86.8,84,87,84c0.1,0,0.2,0,0.3,0s0.2,0,0.3,0l0.1,1.2
			c-0.2,0.1-0.4,0.1-0.6,0.1s-0.4,0-0.6,0c-0.6,0-1-0.2-1.4-0.5s-0.5-0.8-0.5-1.5v-3.2h-0.9v-1.2h0.9v-1.6H86.4z"/>
		<path class="st2" d="M88.3,84.2l0.8-0.2v-3.9l-0.9-0.2v-1h2.6V84l0.8,0.2v1h-3.4V84.2z M90.8,77.4h-1.7v-1.3h1.7V77.4z"/>
		<path class="st2" d="M92.2,82c0-0.9,0.3-1.7,0.8-2.3s1.3-0.9,2.2-0.9c0.9,0,1.7,0.3,2.2,0.9s0.8,1.4,0.8,2.3v0.1
			c0,1-0.3,1.7-0.8,2.3s-1.3,0.9-2.2,0.9c-0.9,0-1.7-0.3-2.2-0.9s-0.8-1.4-0.8-2.3V82z M93.9,82.1c0,0.6,0.1,1,0.3,1.4
			s0.5,0.5,1,0.5c0.4,0,0.8-0.2,1-0.5s0.3-0.8,0.3-1.4V82c0-0.6-0.1-1-0.3-1.4s-0.5-0.5-1-0.5s-0.8,0.2-1,0.5s-0.3,0.8-0.3,1.4V82.1
			z"/>
		<path class="st2" d="M98.9,84.2l0.8-0.2v-3.9l-0.9-0.2v-1h2.5l0.1,0.9c0.2-0.3,0.5-0.6,0.8-0.8s0.7-0.3,1-0.3
			c0.6,0,1.1,0.2,1.5,0.6s0.5,1,0.5,1.9V84l0.8,0.2v1h-3.3v-1l0.7-0.2v-2.8c0-0.4-0.1-0.7-0.3-0.9s-0.4-0.3-0.8-0.3
			c-0.2,0-0.4,0-0.6,0.1s-0.3,0.2-0.5,0.4V84l0.7,0.2v1h-3.2V84.2z"/>
		<path class="st2" d="M109.3,77.1v-1h2.6V84l0.8,0.2v1h-3.4v-1l0.8-0.2v-6.7L109.3,77.1z"/>
		<path class="st2" d="M113.3,84.2l0.8-0.2v-3.9l-0.9-0.2v-1h2.6V84l0.8,0.2v1h-3.4V84.2z M115.8,77.4h-1.7v-1.3h1.7V77.4z"/>
		<path class="st2" d="M123.3,82.3c0,0.9-0.2,1.7-0.6,2.3s-1,0.8-1.8,0.8c-0.4,0-0.7-0.1-1-0.2s-0.5-0.4-0.7-0.7l-0.1,0.8h-1.5v-7.9
			l-0.9-0.2v-1h2.6v3.5c0.2-0.3,0.4-0.4,0.7-0.6s0.5-0.2,0.9-0.2c0.8,0,1.4,0.3,1.8,0.9s0.6,1.4,0.6,2.4V82.3z M121.6,82.1
			c0-0.6-0.1-1.1-0.3-1.5s-0.5-0.5-0.9-0.5c-0.3,0-0.5,0.1-0.7,0.2s-0.3,0.3-0.4,0.5v2.7c0.1,0.2,0.3,0.3,0.4,0.4s0.4,0.2,0.7,0.2
			c0.4,0,0.8-0.2,0.9-0.5s0.3-0.8,0.3-1.3V82.1z"/>
	</g>
	<g class="st1">
		<path class="st2" d="M124.2,84.2l0.8-0.2v-3.9l-0.9-0.2v-1h2.5l0.1,0.9c0.1-0.3,0.3-0.6,0.6-0.8s0.5-0.3,0.8-0.3
			c0.1,0,0.2,0,0.3,0s0.2,0,0.2,0l-0.2,1.6l-0.7,0c-0.3,0-0.5,0-0.6,0.1s-0.3,0.2-0.4,0.4V84l0.8,0.2v1h-3.4V84.2z"/>
	</g>
	<g class="st1">
		<path class="st2" d="M133.1,85.3c0-0.1-0.1-0.2-0.1-0.3s-0.1-0.2-0.1-0.3c-0.2,0.2-0.5,0.4-0.7,0.6s-0.6,0.2-1,0.2
			c-0.6,0-1.1-0.2-1.5-0.5s-0.5-0.8-0.5-1.4c0-0.6,0.2-1.1,0.7-1.4s1.2-0.5,2.1-0.5h0.9V81c0-0.3-0.1-0.5-0.3-0.7s-0.4-0.3-0.8-0.3
			c-0.2,0-0.4,0-0.5,0.1s-0.3,0.1-0.4,0.2l-0.1,0.7h-1.3l0-1.4c0.3-0.2,0.7-0.4,1.1-0.5s0.8-0.2,1.3-0.2c0.8,0,1.4,0.2,1.9,0.6
			s0.7,0.9,0.7,1.6v2.6c0,0.1,0,0.2,0,0.3s0,0.2,0,0.2l0.5,0.1v1H133.1z M131.6,84.1c0.3,0,0.5-0.1,0.7-0.2s0.4-0.3,0.5-0.4v-1h-0.9
			c-0.4,0-0.6,0.1-0.8,0.3s-0.3,0.4-0.3,0.6c0,0.2,0.1,0.4,0.2,0.5S131.4,84.1,131.6,84.1z"/>
		<path class="st2" d="M135.8,84.2l0.8-0.2v-3.9l-0.9-0.2v-1h2.5l0.1,0.9c0.1-0.3,0.3-0.6,0.6-0.8s0.5-0.3,0.8-0.3
			c0.1,0,0.2,0,0.3,0s0.2,0,0.2,0l-0.2,1.6l-0.7,0c-0.3,0-0.5,0-0.6,0.1s-0.3,0.2-0.4,0.4V84l0.8,0.2v1h-3.4V84.2z"/>
		<path class="st2" d="M140.6,84.2l0.8-0.2v-3.9l-0.9-0.2v-1h2.6V84l0.8,0.2v1h-3.4V84.2z M143.2,77.4h-1.7v-1.3h1.7V77.4z"/>
		<path class="st2" d="M147.6,85.4c-0.9,0-1.6-0.3-2.2-0.9s-0.8-1.3-0.8-2.2V82c0-0.9,0.3-1.7,0.8-2.3s1.2-0.9,2.1-0.9
			c0.9,0,1.5,0.3,2,0.8s0.7,1.2,0.7,2.1v0.9h-3.8l0,0c0,0.4,0.2,0.8,0.4,1s0.6,0.4,1,0.4c0.4,0,0.7,0,0.9-0.1s0.5-0.2,0.8-0.4
			l0.5,1.1c-0.3,0.2-0.6,0.4-1,0.5S148.1,85.4,147.6,85.4z M147.5,80.1c-0.3,0-0.6,0.1-0.8,0.4s-0.3,0.6-0.3,1l0,0h2.1v-0.2
			c0-0.4-0.1-0.7-0.3-0.9S147.8,80.1,147.5,80.1z"/>
		<path class="st2" d="M156.1,81.1H155l-0.2-0.8c-0.1-0.1-0.3-0.2-0.4-0.2S154,80,153.8,80c-0.3,0-0.5,0.1-0.7,0.2s-0.3,0.3-0.3,0.5
			c0,0.2,0.1,0.4,0.3,0.5s0.5,0.2,1,0.3c0.8,0.2,1.4,0.4,1.7,0.7s0.6,0.7,0.6,1.3c0,0.6-0.2,1-0.7,1.4s-1.1,0.5-1.9,0.5
			c-0.5,0-0.9-0.1-1.3-0.2s-0.8-0.3-1.1-0.6l0-1.4h1.2l0.2,0.8c0.1,0.1,0.2,0.1,0.4,0.2s0.4,0.1,0.6,0.1c0.3,0,0.6-0.1,0.8-0.2
			s0.3-0.3,0.3-0.5c0-0.2-0.1-0.3-0.3-0.5s-0.5-0.3-1-0.4c-0.7-0.2-1.3-0.4-1.7-0.7s-0.6-0.7-0.6-1.2c0-0.5,0.2-1,0.7-1.4
			s1.1-0.6,1.9-0.6c0.5,0,1,0.1,1.4,0.2s0.8,0.3,1,0.5L156.1,81.1z"/>
	</g>
	<path class="st3" d="M18.6,109.8h160c2.8,0,5,2.2,5,5v20c0,2.8-2.2,5-5,5h-160c-2.8,0-5-2.2-5-5v-20
		C13.6,112.1,15.9,109.8,18.6,109.8z"/>
	<g class="st1">
		<path class="st2" d="M47.6,121.1v-1h2.6v7.9l0.8,0.2v1h-3.4v-1l0.8-0.2v-6.7L47.6,121.1z"/>
		<path class="st2" d="M51.5,128.1l0.8-0.2V124l-0.9-0.2v-1H54v5.1l0.8,0.2v1h-3.4V128.1z M54,121.3h-1.7V120H54V121.3z"/>
		<path class="st2" d="M61.6,126.2c0,0.9-0.2,1.7-0.6,2.3s-1,0.8-1.8,0.8c-0.4,0-0.7-0.1-1-0.2s-0.5-0.4-0.7-0.7l-0.1,0.8h-1.5v-7.9
			l-0.9-0.2v-1h2.6v3.5c0.2-0.3,0.4-0.4,0.7-0.6s0.5-0.2,0.9-0.2c0.8,0,1.4,0.3,1.8,0.9s0.6,1.4,0.6,2.4V126.2z M59.9,126
			c0-0.6-0.1-1.1-0.3-1.5s-0.5-0.5-0.9-0.5c-0.3,0-0.5,0.1-0.7,0.2s-0.3,0.3-0.4,0.5v2.7c0.1,0.2,0.3,0.3,0.4,0.4s0.4,0.2,0.7,0.2
			c0.4,0,0.8-0.2,0.9-0.5s0.3-0.8,0.3-1.3V126z"/>
		<path class="st2" d="M65.3,128c0.3,0,0.5-0.1,0.7-0.3s0.3-0.4,0.3-0.7h1.5l0,0c0,0.6-0.2,1.2-0.7,1.6s-1.1,0.6-1.9,0.6
			c-0.9,0-1.7-0.3-2.2-0.9s-0.8-1.4-0.8-2.3v-0.2c0-0.9,0.3-1.7,0.8-2.3s1.3-0.9,2.2-0.9c0.5,0,1,0.1,1.4,0.2s0.7,0.4,1,0.6l0,1.7
			h-1.4l-0.3-1c-0.1-0.1-0.2-0.1-0.3-0.2s-0.3-0.1-0.4-0.1c-0.5,0-0.8,0.2-1,0.5s-0.3,0.8-0.3,1.4v0.2c0,0.6,0.1,1,0.3,1.4
			S64.9,128,65.3,128z"/>
		<path class="st2" d="M71.8,125.7c0-1.5,0.3-2.8,0.9-3.9s1.3-1.8,2-2.1h0l0.3,0.9c-0.5,0.4-0.9,1-1.3,1.9s-0.5,1.9-0.5,3.3v0.2
			c0,1.3,0.2,2.4,0.5,3.3s0.8,1.5,1.3,1.9l-0.3,0.8h0c-0.8-0.3-1.4-1-2-2.1s-0.9-2.4-0.9-3.9V125.7z"/>
		<path class="st2" d="M83.4,125c0,1.3-0.4,2.3-1.1,3.1s-1.7,1.2-2.8,1.2c-1.2,0-2.1-0.4-2.8-1.2s-1.1-1.8-1.1-3.1v-0.1
			c0-1.2,0.4-2.3,1.1-3.1s1.6-1.2,2.8-1.2c1.2,0,2.1,0.4,2.8,1.2s1.1,1.9,1.1,3.1V125z M81.7,124.8c0-0.9-0.2-1.6-0.6-2.2
			s-0.9-0.8-1.6-0.8s-1.3,0.3-1.6,0.8s-0.5,1.3-0.5,2.2v0.1c0,0.9,0.2,1.6,0.5,2.2s0.9,0.8,1.6,0.8c0.7,0,1.3-0.3,1.6-0.8
			s0.5-1.3,0.5-2.2V124.8z"/>
		<path class="st2" d="M90.6,123.4h-1.3l-0.2-1.2c-0.1-0.1-0.4-0.2-0.7-0.2s-0.6-0.1-0.9-0.1c-0.5,0-0.8,0.1-1.1,0.3
			s-0.4,0.5-0.4,0.8c0,0.3,0.1,0.5,0.4,0.7s0.7,0.4,1.4,0.6c0.9,0.3,1.7,0.6,2.1,1s0.7,1,0.7,1.7c0,0.7-0.3,1.3-0.9,1.7
			s-1.3,0.6-2.3,0.6c-0.7,0-1.3-0.1-1.8-0.3s-1-0.5-1.4-0.9v-1.8h1.3l0.2,1.2c0.2,0.1,0.4,0.3,0.7,0.3s0.6,0.1,1,0.1
			c0.5,0,0.8-0.1,1.1-0.3s0.4-0.4,0.4-0.8c0-0.3-0.1-0.6-0.3-0.8s-0.6-0.4-1.2-0.6c-1-0.3-1.8-0.6-2.3-1s-0.8-1-0.8-1.7
			c0-0.7,0.3-1.3,0.9-1.7s1.3-0.7,2.2-0.7c0.7,0,1.3,0.1,1.8,0.3s1,0.5,1.4,0.8V123.4z"/>
		<path class="st2" d="M94.3,121.7v-1h3.5v1l-0.9,0.2v6.1l0.9,0.2v1h-3.5v-1l0.9-0.2v-6.1L94.3,121.7z"/>
		<path class="st2" d="M98.4,128.1l0.8-0.2V124l-0.9-0.2v-1h2.5l0.1,0.9c0.2-0.3,0.5-0.6,0.8-0.8s0.7-0.3,1-0.3
			c0.6,0,1.1,0.2,1.5,0.6s0.5,1,0.5,1.9v2.8l0.8,0.2v1h-3.3v-1l0.7-0.2v-2.8c0-0.4-0.1-0.7-0.3-0.9s-0.4-0.3-0.8-0.3
			c-0.2,0-0.4,0-0.6,0.1s-0.3,0.2-0.5,0.4v3.4l0.7,0.2v1h-3.2V128.1z"/>
		<path class="st2" d="M108.7,121.3v1.6h1.1v1.2h-1.1v3.2c0,0.2,0.1,0.4,0.2,0.5s0.2,0.2,0.4,0.2c0.1,0,0.2,0,0.3,0s0.2,0,0.3,0
			l0.1,1.2c-0.2,0.1-0.4,0.1-0.6,0.1s-0.4,0-0.6,0c-0.6,0-1-0.2-1.4-0.5s-0.5-0.8-0.5-1.5V124H106v-1.2h0.9v-1.6H108.7z"/>
		<path class="st2" d="M113.6,129.3c-0.9,0-1.6-0.3-2.2-0.9s-0.8-1.3-0.8-2.2v-0.2c0-0.9,0.3-1.7,0.8-2.3s1.2-0.9,2.1-0.9
			c0.9,0,1.5,0.3,2,0.8s0.7,1.2,0.7,2.1v0.9h-3.8l0,0c0,0.4,0.2,0.8,0.4,1s0.6,0.4,1,0.4c0.4,0,0.7,0,0.9-0.1s0.5-0.2,0.8-0.4
			l0.5,1.1c-0.3,0.2-0.6,0.4-1,0.5S114.2,129.3,113.6,129.3z M113.5,124c-0.3,0-0.6,0.1-0.8,0.4s-0.3,0.6-0.3,1l0,0h2.1v-0.2
			c0-0.4-0.1-0.7-0.3-0.9S113.8,124,113.5,124z"/>
	</g>
	<g class="st1">
		<path class="st2" d="M117.1,128.1l0.8-0.2V124l-0.9-0.2v-1h2.5l0.1,0.9c0.1-0.3,0.3-0.6,0.6-0.8s0.5-0.3,0.8-0.3
			c0.1,0,0.2,0,0.3,0s0.2,0,0.2,0l-0.2,1.6l-0.7,0c-0.3,0-0.5,0-0.6,0.1s-0.3,0.2-0.4,0.4v3.1l0.8,0.2v1h-3.4V128.1z"/>
	</g>
	<g class="st1">
		<path class="st2" d="M122.3,128.1l0.8-0.2V124h-0.9v-1.2h0.9v-0.7c0-0.7,0.2-1.3,0.6-1.6s1-0.6,1.7-0.6c0.1,0,0.3,0,0.4,0
			s0.3,0.1,0.5,0.1l-0.1,1.3c-0.1,0-0.2,0-0.3,0s-0.2,0-0.3,0c-0.3,0-0.5,0.1-0.6,0.2s-0.2,0.4-0.2,0.7v0.7h1.3v1.2h-1.3v3.9
			l0.8,0.2v1h-3.4V128.1z"/>
		<path class="st2" d="M130.7,129.2c0-0.1-0.1-0.2-0.1-0.3s-0.1-0.2-0.1-0.3c-0.2,0.2-0.5,0.4-0.7,0.6s-0.6,0.2-1,0.2
			c-0.6,0-1.1-0.2-1.5-0.5s-0.5-0.8-0.5-1.4c0-0.6,0.2-1.1,0.7-1.4s1.2-0.5,2.1-0.5h0.9v-0.6c0-0.3-0.1-0.5-0.3-0.7
			s-0.4-0.3-0.8-0.3c-0.2,0-0.4,0-0.5,0.1s-0.3,0.1-0.4,0.2l-0.1,0.7H127l0-1.4c0.3-0.2,0.7-0.4,1.1-0.5s0.8-0.2,1.3-0.2
			c0.8,0,1.4,0.2,1.9,0.6s0.7,0.9,0.7,1.6v2.6c0,0.1,0,0.2,0,0.3s0,0.2,0,0.2l0.5,0.1v1H130.7z M129.2,128c0.3,0,0.5-0.1,0.7-0.2
			s0.4-0.3,0.5-0.4v-1h-0.9c-0.4,0-0.6,0.1-0.8,0.3s-0.3,0.4-0.3,0.6c0,0.2,0.1,0.4,0.2,0.5S128.9,128,129.2,128z"/>
		<path class="st2" d="M136.2,128c0.3,0,0.5-0.1,0.7-0.3s0.3-0.4,0.3-0.7h1.5l0,0c0,0.6-0.2,1.2-0.7,1.6s-1.1,0.6-1.9,0.6
			c-0.9,0-1.7-0.3-2.2-0.9s-0.8-1.4-0.8-2.3v-0.2c0-0.9,0.3-1.7,0.8-2.3s1.3-0.9,2.2-0.9c0.5,0,1,0.1,1.4,0.2s0.7,0.4,1,0.6l0,1.7
			h-1.4l-0.3-1c-0.1-0.1-0.2-0.1-0.3-0.2s-0.3-0.1-0.4-0.1c-0.5,0-0.8,0.2-1,0.5s-0.3,0.8-0.3,1.4v0.2c0,0.6,0.1,1,0.3,1.4
			S135.7,128,136.2,128z"/>
		<path class="st2" d="M142.6,129.3c-0.9,0-1.6-0.3-2.2-0.9s-0.8-1.3-0.8-2.2v-0.2c0-0.9,0.3-1.7,0.8-2.3s1.2-0.9,2.1-0.9
			c0.9,0,1.5,0.3,2,0.8s0.7,1.2,0.7,2.1v0.9h-3.8l0,0c0,0.4,0.2,0.8,0.4,1s0.6,0.4,1,0.4c0.4,0,0.7,0,0.9-0.1s0.5-0.2,0.8-0.4
			l0.5,1.1c-0.3,0.2-0.6,0.4-1,0.5S143.1,129.3,142.6,129.3z M142.4,124c-0.3,0-0.6,0.1-0.8,0.4s-0.3,0.6-0.3,1l0,0h2.1v-0.2
			c0-0.4-0.1-0.7-0.3-0.9S142.8,124,142.4,124z"/>
		<path class="st2" d="M149.3,125.8c0,1.5-0.3,2.8-0.9,3.9s-1.3,1.8-2.1,2.1h0l-0.3-0.8c0.5-0.4,0.9-1,1.3-1.9s0.5-1.9,0.5-3.3v-0.2
			c0-1.3-0.2-2.4-0.5-3.3s-0.8-1.5-1.3-1.9l0.3-0.8h0c0.8,0.3,1.4,1,2.1,2.1s0.9,2.4,0.9,3.9V125.8z"/>
	</g>
	<path class="st4" d="M646.7,55.1h160c2.8,0,5,2.2,5,5v98.4c0,2.8-2.2,5-5,5h-160c-2.8,0-5-2.2-5-5V60.1
		C641.7,57.4,644,55.1,646.7,55.1z"/>
	
		<linearGradient id="SVGID_2_" gradientUnits="userSpaceOnUse" x1="626.3" y1="120.815" x2="830.56" y2="120.815" gradientTransform="matrix(1 0 0 -1 0 234)">
		<stop  offset="0" style="stop-color:#990066"/>
		<stop  offset="0.19" style="stop-color:#780066"/>
		<stop  offset="0.4" style="stop-color:#5A0066"/>
		<stop  offset="0.61" style="stop-color:#440066"/>
		<stop  offset="0.81" style="stop-color:#370066"/>
		<stop  offset="1" style="stop-color:#330066"/>
	</linearGradient>
	<path class="st5" d="M631.3,23.6h194.3c2.8,0,5,2.2,5,5v169.1c0,2.8-2.2,5-5,5H631.3c-2.8,0-5-2.2-5-5V28.6
		C626.3,25.9,628.5,23.6,631.3,23.6z"/>
	<path class="st6" d="M719,13.8c4.6-4.5,12.1-4.5,16.6,0.1s4.5,12.1-0.1,16.6s-12.1,4.5-16.6-0.1c-2.2-2.2-3.4-5.1-3.4-8.2
		c0-2.6,0.8-5.1,2.4-7.1"/>
	<path class="st7" d="M727.3,27.8H723c-0.6,0-0.8-0.2-0.8-0.8v-6.5c0-0.6,0.2-0.8,0.8-0.8h8.5c0.5,0,0.8,0.2,0.8,0.8V27
		c0,0.5-0.2,0.8-0.8,0.8C730.1,27.8,728.7,27.8,727.3,27.8z"/>
	<path class="st7" d="M722.9,19.2c0-1.8,1-3.4,2.6-4.2c2.1-0.9,4.6,0,5.5,2.1c0.1,0.2,0.2,0.5,0.2,0.7c0.1,0.4,0.1,0.8,0.2,1.2"/>
	<path class="st8" d="M726.6,25L726.6,25v0.9c0,0.2,0.1,0.2,0.3,0.2h0.8c0.2,0,0.3-0.1,0.3-0.3v-1.6c0-0.2,0.1-0.3,0.2-0.4
		c0.5-0.3,0.8-0.9,0.6-1.5c-0.2-0.6-0.8-1-1.5-1c-0.7-0.1-1.3,0.3-1.6,0.9c-0.2,0.6,0,1.2,0.5,1.5c0.2,0.1,0.3,0.3,0.3,0.5
		C726.6,24.5,726.6,24.8,726.6,25z"/>
	<g id="Scone_logo_white">
		<g>
			<defs>
				<rect id="SVGID_3_" x="698" y="181" width="53.6" height="10.5"/>
			</defs>
			<clipPath id="SVGID_4_">
				<use xlink:href="#SVGID_3_"  style="overflow:visible;"/>
			</clipPath>
			<g class="st9">
				<g>
					<defs>
						<rect id="SVGID_5_" x="698" y="181" width="53.6" height="10.5"/>
					</defs>
					<clipPath id="SVGID_6_">
						<use xlink:href="#SVGID_5_"  style="overflow:visible;"/>
					</clipPath>
					<g class="st10">
						<path class="st11" d="M705.1,183.6h-1.1c-0.2,0-0.4,0.2-0.4,0.4v1.1c0,0.2,0.2,0.4,0.4,0.4h1.1c0.2,0,0.4-0.2,0.4-0.4v-1.1
							C705.5,183.8,705.3,183.6,705.1,183.6 M701.2,185.6h1.1c0.2,0,0.4-0.2,0.4-0.4v-1.1c0-0.2-0.2-0.4-0.4-0.4h-1.1
							c-0.2,0-0.4,0.2-0.4,0.4v1.1C700.7,185.5,700.9,185.6,701.2,185.6 M699.9,185.2v-1.1c0-0.2-0.2-0.4-0.4-0.4h-1.1
							c-0.2,0-0.4,0.2-0.4,0.4v1.1c0,0.2,0.2,0.4,0.4,0.4h1.1C699.7,185.6,699.9,185.5,699.9,185.2 M705.1,186.4
							c-0.2,0-0.3,0.2-0.3,0.3v1.3c0,0.2,0.1,0.4,0.3,0.4c0.2,0,0.4-0.1,0.4-0.3c0,0,0-0.1,0-0.1v-1.3
							C705.5,186.6,705.4,186.5,705.1,186.4C705.2,186.4,705.2,186.4,705.1,186.4 M702.1,186.9v1.1c0,0.2,0.2,0.4,0.4,0.4h1.1
							c0.2,0,0.4-0.2,0.4-0.4v-1.1c0-0.2-0.2-0.4-0.4-0.4h-1.1C702.2,186.4,702,186.6,702.1,186.9 M701.2,188v-1.1
							c0-0.2-0.2-0.4-0.4-0.4h-1.1c-0.2,0-0.4,0.2-0.4,0.4v1.1c0,0.2,0.2,0.4,0.4,0.4h1.1C701.1,188.4,701.3,188.2,701.2,188
							 M705.1,189.2h-1.1c-0.2,0-0.4,0.2-0.4,0.4v1.1c0,0.2,0.2,0.4,0.4,0.4h1.1c0.2,0,0.4-0.2,0.4-0.4v-1.1
							C705.5,189.4,705.3,189.2,705.1,189.2 M702.1,189.2H701c-0.2,0-0.4,0.2-0.4,0.4v1.1c0,0.2,0.2,0.4,0.4,0.4h1.1
							c0.2,0,0.4-0.2,0.4-0.4v-1.1C702.5,189.4,702.4,189.2,702.1,189.2"/>
						<path class="st11" d="M706.4,183.2c0.5,0.4,1.1,0.6,1.8,0.5c0,0,0,0.1,0,0.1v3.1c0,1.2-1.5,1.9-1.8,2.1l0,0L706.4,183.2
							L706.4,183.2"/>
						<path class="st11" d="M703,183c2.4-0.1,2.8-0.9,2.8-0.9c0,0,0.1-0.1,0.1-0.1c0,0,0.1,0,0.1,0s0.4,0.9,2.7,0.9
							c0.1,0,0.1,0,0.1,0.1v4.1c0,1.3-2.5,2.8-2.5,2.8s-0.1,0.1-0.1,0.1v1c0,0,0.2,0.1,0.2,0c0.9-0.5,3.5-1.9,3.5-3.6v-5.2
							c0-0.1-0.2-0.2-0.2-0.2c-3,0-3.6-1.1-3.6-1.1s-0.1,0-0.2,0s-0.1,0-0.1,0s-0.5,1.1-3.5,1.1c-0.1,0-0.1,0-0.1,0.1v0.6
							c0,0,0,0.1,0.1,0.1S703,183,703,183"/>
						<path class="st12" d="M712.2,189.7l1.2-0.4c0.3,0.6,0.9,0.9,1.6,0.9c0.3,0,0.6-0.1,0.9-0.2c0.2-0.1,0.4-0.4,0.4-0.6
							c0-0.6-0.9-1-1.5-1.3l0,0c-0.5-0.2-1-0.4-1.4-0.8c-0.4-0.3-0.7-0.9-0.7-1.4c0-0.6,0.3-1.1,0.7-1.5c0.5-0.4,1.1-0.6,1.8-0.6
							c1-0.1,1.9,0.4,2.4,1.3l-1.3,0.5c-0.1-0.2-0.2-0.4-0.4-0.5c-0.2-0.1-0.5-0.1-0.7-0.1c-0.7,0-1.2,0.4-1.2,0.9
							c0,0.3,0.2,0.6,0.5,0.8c0.3,0.2,0.7,0.4,1.1,0.6l0.2,0.1c0.9,0.4,2.1,0.9,2.1,2.1c0,0.6-0.3,1.2-0.8,1.5
							c-0.6,0.4-1.3,0.6-2,0.6C713.8,191.4,712.7,190.7,712.2,189.7"/>
						<path class="st12" d="M722.9,191.3c-0.5,0-1-0.1-1.5-0.3c-0.5-0.2-0.9-0.5-1.2-0.8c-0.4-0.3-0.6-0.8-0.8-1.2c-0.4-1-0.4-2,0-3
							c0.2-0.5,0.5-0.9,0.8-1.2c0.3-0.4,0.8-0.6,1.2-0.8c0.5-0.2,1-0.3,1.5-0.3c1.2,0,2.3,0.6,3,1.5l-1,0.8
							c-0.2-0.3-0.5-0.6-0.9-0.7c-0.4-0.2-0.8-0.3-1.2-0.3c-1.4,0-2.6,1.2-2.6,2.6c0,0.7,0.3,1.3,0.7,1.8c0.8,0.8,2.1,1,3.1,0.4
							c0.4-0.2,0.7-0.6,0.9-0.9l1.1,0.6c-0.3,0.6-0.8,1.1-1.4,1.4C724.2,191.1,723.5,191.3,722.9,191.3"/>
						<path class="st12" d="M731.2,191.3c-0.5,0-1-0.1-1.5-0.3c-0.5-0.2-0.9-0.5-1.2-0.8c-0.7-0.7-1.1-1.7-1.1-2.7
							c0-0.5,0.1-1,0.3-1.5c0.4-0.9,1.1-1.6,2-2c0.5-0.2,1-0.3,1.5-0.3c0.5,0,1,0.1,1.5,0.3c0.5,0.2,0.9,0.5,1.2,0.8
							c1.5,1.5,1.5,3.9,0,5.4c0,0,0,0,0,0c-0.3,0.3-0.8,0.6-1.2,0.8C732.2,191.2,731.7,191.3,731.2,191.3 M731.2,184.9
							c-0.7,0-1.3,0.3-1.8,0.8c-0.5,0.5-0.7,1.1-0.8,1.8c0,0.7,0.3,1.3,0.8,1.8c1,1,2.6,1,3.6,0c0,0,0,0,0,0
							c0.5-0.5,0.7-1.1,0.8-1.8c0-0.7-0.3-1.3-0.8-1.8C732.5,185.2,731.9,184.9,731.2,184.9"/>
						<polygon class="st12" points="743.7,183.7 743.7,191.5 738.4,186.6 738.4,191.2 737,191.2 737,183.4 742.4,188.4 742.4,183.7 
													"/>
						<polygon class="st12" points="747.4,184.9 747.4,186.8 751.1,186.8 751.1,188 747.4,188 747.4,190 751.6,190 751.6,191.2 
							746,191.2 746,183.7 751.6,183.7 751.6,184.9 747.4,184.9 						"/>
					</g>
				</g>
			</g>
		</g>
	</g>
	<g class="st1">
		<path class="st8" d="M700.8,143.8h-1.3l-0.2-1.2c-0.1-0.1-0.4-0.2-0.7-0.2s-0.6-0.1-0.9-0.1c-0.5,0-0.8,0.1-1.1,0.3
			s-0.4,0.5-0.4,0.8c0,0.3,0.1,0.5,0.4,0.7s0.7,0.4,1.4,0.6c0.9,0.3,1.7,0.6,2.1,1s0.7,1,0.7,1.7c0,0.7-0.3,1.3-0.9,1.7
			s-1.3,0.6-2.3,0.6c-0.7,0-1.3-0.1-1.8-0.3s-1-0.5-1.4-0.9v-1.8h1.3l0.2,1.2c0.2,0.1,0.4,0.3,0.7,0.3s0.6,0.1,1,0.1
			c0.5,0,0.8-0.1,1.1-0.3s0.4-0.4,0.4-0.8c0-0.3-0.1-0.6-0.3-0.8s-0.6-0.4-1.2-0.6c-1-0.3-1.8-0.6-2.3-1s-0.8-1-0.8-1.7
			c0-0.7,0.3-1.3,0.9-1.7s1.3-0.7,2.2-0.7c0.7,0,1.3,0.1,1.8,0.3s1,0.5,1.4,0.8V143.8z"/>
		<path class="st8" d="M708.5,144h-1.3l-0.2-1.1c-0.2-0.2-0.4-0.3-0.6-0.4s-0.6-0.1-0.9-0.1c-0.7,0-1.3,0.3-1.7,0.8
			s-0.6,1.2-0.6,2.1v0.3c0,0.9,0.2,1.6,0.6,2.1s1,0.8,1.7,0.8c0.3,0,0.6,0,0.9-0.1s0.5-0.2,0.6-0.4l0.2-1.1h1.3v1.7
			c-0.3,0.4-0.8,0.7-1.3,1s-1.1,0.4-1.8,0.4c-1.1,0-2.1-0.4-2.8-1.2s-1.1-1.8-1.1-3.1v-0.3c0-1.2,0.4-2.3,1.1-3.1s1.7-1.2,2.8-1.2
			c0.7,0,1.3,0.1,1.8,0.4s1,0.6,1.3,1V144z"/>
		<path class="st8" d="M717.1,145.4c0,1.3-0.4,2.3-1.1,3.1s-1.7,1.2-2.8,1.2c-1.2,0-2.1-0.4-2.8-1.2s-1.1-1.8-1.1-3.1v-0.1
			c0-1.2,0.4-2.3,1.1-3.1s1.6-1.2,2.8-1.2c1.2,0,2.1,0.4,2.8,1.2s1.1,1.9,1.1,3.1V145.4z M715.4,145.3c0-0.9-0.2-1.6-0.6-2.2
			s-0.9-0.8-1.6-0.8s-1.3,0.3-1.6,0.8s-0.5,1.3-0.5,2.2v0.1c0,0.9,0.2,1.6,0.5,2.2s0.9,0.8,1.6,0.8c0.7,0,1.3-0.3,1.6-0.8
			s0.5-1.3,0.5-2.2V145.3z"/>
		<path class="st8" d="M726.5,141.1v1l-0.9,0.2v7.3h-1.7l-3.4-5.7l0,0v4.5l0.9,0.2v1h-3.5v-1l0.9-0.2v-6.1l-0.9-0.2v-1h0.9h1.7
			l3.4,5.7l0,0v-4.5l-0.9-0.2v-1h2.6H726.5z"/>
		<path class="st8" d="M732.6,145.9h-2.9v2.4h2.8l0.1-1h1.3v2.3h-6.8v-1l0.9-0.2v-6.1l-0.9-0.2v-1h0.9h5.8v2.3h-1.3l-0.1-1h-2.7v2.1
			h2.9V145.9z"/>
		<path class="st8" d="M737.5,141.5v-1h2.6v7.9l0.8,0.2v1h-3.4v-1l0.8-0.2v-6.7L737.5,141.5z"/>
		<path class="st8" d="M741.5,148.6l0.8-0.2v-3.9l-0.9-0.2v-1h2.6v5.1l0.8,0.2v1h-3.4V148.6z M744,141.8h-1.7v-1.3h1.7V141.8z"/>
		<path class="st8" d="M751.6,146.6c0,0.9-0.2,1.7-0.6,2.3s-1,0.8-1.8,0.8c-0.4,0-0.7-0.1-1-0.2s-0.5-0.4-0.7-0.7l-0.1,0.8h-1.5
			v-7.9l-0.9-0.2v-1h2.6v3.5c0.2-0.3,0.4-0.4,0.7-0.6s0.5-0.2,0.9-0.2c0.8,0,1.4,0.3,1.8,0.9s0.6,1.4,0.6,2.4V146.6z M749.8,146.5
			c0-0.6-0.1-1.1-0.3-1.5s-0.5-0.5-0.9-0.5c-0.3,0-0.5,0.1-0.7,0.2s-0.3,0.3-0.4,0.5v2.7c0.1,0.2,0.3,0.3,0.4,0.4s0.4,0.2,0.7,0.2
			c0.4,0,0.8-0.2,0.9-0.5s0.3-0.8,0.3-1.3V146.5z"/>
		<path class="st8" d="M755.3,148.4c0.3,0,0.5-0.1,0.7-0.3s0.3-0.4,0.3-0.7h1.5l0,0c0,0.6-0.2,1.2-0.7,1.6s-1.1,0.6-1.9,0.6
			c-0.9,0-1.7-0.3-2.2-0.9s-0.8-1.4-0.8-2.3v-0.2c0-0.9,0.3-1.7,0.8-2.3s1.3-0.9,2.2-0.9c0.5,0,1,0.1,1.4,0.2s0.7,0.4,1,0.6l0,1.7
			h-1.4l-0.3-1c-0.1-0.1-0.2-0.1-0.3-0.2s-0.3-0.1-0.4-0.1c-0.5,0-0.8,0.2-1,0.5s-0.3,0.8-0.3,1.4v0.2c0,0.6,0.1,1,0.3,1.4
			S754.9,148.4,755.3,148.4z"/>
	</g>
	<path class="st4" d="M646.7,53.4h160c2.8,0,5,2.2,5,5v67.4l0,0h-170l0,0V58.4C641.7,55.6,644,53.4,646.7,53.4z"/>
	<path class="st3" d="M806.7,162.9h-160c-2.8,0-5-2.2-5-5v-32.5l0,0h170l0,0v32.5C811.7,160.7,809.5,162.9,806.7,162.9z"/>
	<g class="st1">
		<path class="st2" d="M694,75.4l0.6-0.1l2.6-7.4h1.8l2.6,7.4l0.6,0.1v1h-2.9v-1l0.6-0.1l-0.4-1.2h-2.8l-0.4,1.2l0.6,0.1v1H694V75.4
			z M697,72.9h2l-1-3h0L697,72.9z"/>
		<path class="st2" d="M702.6,71.2v-1h2.5l0.1,0.7c0.2-0.3,0.4-0.5,0.7-0.6s0.6-0.2,0.9-0.2c0.8,0,1.4,0.3,1.8,0.9s0.7,1.4,0.7,2.4
			v0.1c0,0.9-0.2,1.7-0.7,2.3s-1,0.9-1.8,0.9c-0.3,0-0.6-0.1-0.9-0.2s-0.5-0.3-0.7-0.5v1.8l0.8,0.2v1h-3.4v-1l0.8-0.2v-6.4
			L702.6,71.2z M707.5,73.3c0-0.6-0.1-1.1-0.3-1.5s-0.5-0.6-0.9-0.6c-0.3,0-0.5,0.1-0.7,0.2s-0.3,0.3-0.4,0.5v2.8
			c0.1,0.2,0.2,0.3,0.4,0.4s0.4,0.1,0.7,0.1c0.4,0,0.7-0.2,0.9-0.5s0.3-0.8,0.3-1.3V73.3z"/>
	</g>
	<g class="st1">
		<path class="st2" d="M709.8,71.2v-1h2.5l0.1,0.7c0.2-0.3,0.4-0.5,0.7-0.6s0.6-0.2,0.9-0.2c0.8,0,1.4,0.3,1.8,0.9s0.7,1.4,0.7,2.4
			v0.1c0,0.9-0.2,1.7-0.7,2.3s-1,0.9-1.8,0.9c-0.3,0-0.6-0.1-0.9-0.2s-0.5-0.3-0.7-0.5v1.8l0.8,0.2v1h-3.4v-1l0.8-0.2v-6.4
			L709.8,71.2z M714.8,73.3c0-0.6-0.1-1.1-0.3-1.5s-0.5-0.6-0.9-0.6c-0.3,0-0.5,0.1-0.7,0.2s-0.3,0.3-0.4,0.5v2.8
			c0.1,0.2,0.2,0.3,0.4,0.4s0.4,0.1,0.7,0.1c0.4,0,0.7-0.2,0.9-0.5s0.3-0.8,0.3-1.3V73.3z"/>
	</g>
	<g class="st1">
		<path class="st2" d="M716.9,68.4v-1h2.6v7.9l0.8,0.2v1H717v-1l0.8-0.2v-6.7L716.9,68.4z"/>
		<path class="st2" d="M720.9,75.4l0.8-0.2v-3.9l-0.9-0.2v-1h2.6v5.1l0.8,0.2v1h-3.4V75.4z M723.4,68.6h-1.7v-1.3h1.7V68.6z"/>
		<path class="st2" d="M727.8,75.3c0.3,0,0.5-0.1,0.7-0.3s0.3-0.4,0.3-0.7h1.5l0,0c0,0.6-0.2,1.2-0.7,1.6s-1.1,0.6-1.9,0.6
			c-0.9,0-1.7-0.3-2.2-0.9s-0.8-1.4-0.8-2.3v-0.2c0-0.9,0.3-1.7,0.8-2.3s1.3-0.9,2.2-0.9c0.5,0,1,0.1,1.4,0.2s0.7,0.4,1,0.6l0,1.7
			h-1.4l-0.3-1c-0.1-0.1-0.2-0.1-0.3-0.2s-0.3-0.1-0.4-0.1c-0.5,0-0.8,0.2-1,0.5s-0.3,0.8-0.3,1.4v0.2c0,0.6,0.1,1,0.3,1.4
			S727.3,75.3,727.8,75.3z"/>
	</g>
	<g class="st1">
		<path class="st2" d="M735.2,76.5c0-0.1-0.1-0.2-0.1-0.3s-0.1-0.2-0.1-0.3c-0.2,0.2-0.5,0.4-0.7,0.6s-0.6,0.2-1,0.2
			c-0.6,0-1.1-0.2-1.5-0.5s-0.5-0.8-0.5-1.4c0-0.6,0.2-1.1,0.7-1.4s1.2-0.5,2.1-0.5h0.9v-0.6c0-0.3-0.1-0.5-0.3-0.7
			s-0.4-0.3-0.8-0.3c-0.2,0-0.4,0-0.5,0.1s-0.3,0.1-0.4,0.2l-0.1,0.7h-1.3l0-1.4c0.3-0.2,0.7-0.4,1.1-0.5s0.8-0.2,1.3-0.2
			c0.8,0,1.4,0.2,1.9,0.6s0.7,0.9,0.7,1.6v2.6c0,0.1,0,0.2,0,0.3s0,0.2,0,0.2l0.5,0.1v1H735.2z M733.7,75.3c0.3,0,0.5-0.1,0.7-0.2
			s0.4-0.3,0.5-0.4v-1H734c-0.4,0-0.6,0.1-0.8,0.3s-0.3,0.4-0.3,0.6c0,0.2,0.1,0.4,0.2,0.5S733.4,75.3,733.7,75.3z"/>
	</g>
	<g class="st1">
		<path class="st2" d="M739.8,68.6v1.6h1.1v1.2h-1.1v3.2c0,0.2,0.1,0.4,0.2,0.5s0.2,0.2,0.4,0.2c0.1,0,0.2,0,0.3,0s0.2,0,0.3,0
			l0.1,1.2c-0.2,0.1-0.4,0.1-0.6,0.1s-0.4,0-0.6,0c-0.6,0-1-0.2-1.4-0.5s-0.5-0.8-0.5-1.5v-3.2h-0.9v-1.2h0.9v-1.6H739.8z"/>
		<path class="st2" d="M741.7,75.4l0.8-0.2v-3.9l-0.9-0.2v-1h2.6v5.1l0.8,0.2v1h-3.4V75.4z M744.2,68.6h-1.7v-1.3h1.7V68.6z"/>
		<path class="st2" d="M745.6,73.2c0-0.9,0.3-1.7,0.8-2.3s1.3-0.9,2.2-0.9c0.9,0,1.7,0.3,2.2,0.9s0.8,1.4,0.8,2.3v0.1
			c0,1-0.3,1.7-0.8,2.3s-1.3,0.9-2.2,0.9c-0.9,0-1.7-0.3-2.2-0.9s-0.8-1.4-0.8-2.3V73.2z M747.3,73.4c0,0.6,0.1,1,0.3,1.4
			s0.5,0.5,1,0.5c0.4,0,0.8-0.2,1-0.5s0.3-0.8,0.3-1.4v-0.1c0-0.6-0.1-1-0.3-1.4s-0.5-0.5-1-0.5s-0.8,0.2-1,0.5s-0.3,0.8-0.3,1.4
			V73.4z"/>
		<path class="st2" d="M752.2,75.4l0.8-0.2v-3.9l-0.9-0.2v-1h2.5l0.1,0.9c0.2-0.3,0.5-0.6,0.8-0.8s0.7-0.3,1-0.3
			c0.6,0,1.1,0.2,1.5,0.6s0.5,1,0.5,1.9v2.8l0.8,0.2v1h-3.3v-1l0.7-0.2v-2.8c0-0.4-0.1-0.7-0.3-0.9s-0.4-0.3-0.8-0.3
			c-0.2,0-0.4,0-0.6,0.1s-0.3,0.2-0.5,0.4v3.4l0.7,0.2v1h-3.2V75.4z"/>
	</g>
	<g class="st1">
		<path class="st2" d="M668.7,112.4l0.6-0.1l2.6-7.4h1.8l2.6,7.4l0.6,0.1v1h-2.9v-1l0.6-0.1l-0.4-1.2h-2.8l-0.4,1.2l0.6,0.1v1h-2.9
			V112.4z M671.8,109.8h2l-1-3h0L671.8,109.8z"/>
		<path class="st2" d="M677.3,108.1v-1h2.5l0.1,0.7c0.2-0.3,0.4-0.5,0.7-0.6s0.6-0.2,0.9-0.2c0.8,0,1.4,0.3,1.8,0.9s0.7,1.4,0.7,2.4
			v0.1c0,0.9-0.2,1.7-0.7,2.3s-1,0.9-1.8,0.9c-0.3,0-0.6-0.1-0.9-0.2s-0.5-0.3-0.7-0.5v1.8l0.8,0.2v1h-3.4v-1l0.8-0.2v-6.4
			L677.3,108.1z M682.2,110.3c0-0.6-0.1-1.1-0.3-1.5s-0.5-0.6-0.9-0.6c-0.3,0-0.5,0.1-0.7,0.2s-0.3,0.3-0.4,0.5v2.8
			c0.1,0.2,0.2,0.3,0.4,0.4s0.4,0.1,0.7,0.1c0.4,0,0.7-0.2,0.9-0.5s0.3-0.8,0.3-1.3V110.3z"/>
	</g>
	<g class="st1">
		<path class="st2" d="M684.5,108.1v-1h2.5l0.1,0.7c0.2-0.3,0.4-0.5,0.7-0.6s0.6-0.2,0.9-0.2c0.8,0,1.4,0.3,1.8,0.9s0.7,1.4,0.7,2.4
			v0.1c0,0.9-0.2,1.7-0.7,2.3s-1,0.9-1.8,0.9c-0.3,0-0.6-0.1-0.9-0.2s-0.5-0.3-0.7-0.5v1.8l0.8,0.2v1h-3.4v-1l0.8-0.2v-6.4
			L684.5,108.1z M689.5,110.3c0-0.6-0.1-1.1-0.3-1.5s-0.5-0.6-0.9-0.6c-0.3,0-0.5,0.1-0.7,0.2s-0.3,0.3-0.4,0.5v2.8
			c0.1,0.2,0.2,0.3,0.4,0.4s0.4,0.1,0.7,0.1c0.4,0,0.7-0.2,0.9-0.5s0.3-0.8,0.3-1.3V110.3z"/>
	</g>
	<g class="st1">
		<path class="st2" d="M691.6,105.3v-1h2.6v7.9l0.8,0.2v1h-3.4v-1l0.8-0.2v-6.7L691.6,105.3z"/>
		<path class="st2" d="M695.6,112.4l0.8-0.2v-3.9l-0.9-0.2v-1h2.6v5.1l0.8,0.2v1h-3.4V112.4z M698.1,105.5h-1.7v-1.3h1.7V105.5z"/>
		<path class="st2" d="M702.5,112.2c0.3,0,0.5-0.1,0.7-0.3s0.3-0.4,0.3-0.7h1.5l0,0c0,0.6-0.2,1.2-0.7,1.6s-1.1,0.6-1.9,0.6
			c-0.9,0-1.7-0.3-2.2-0.9s-0.8-1.4-0.8-2.3v-0.2c0-0.9,0.3-1.7,0.8-2.3s1.3-0.9,2.2-0.9c0.5,0,1,0.1,1.4,0.2s0.7,0.4,1,0.6l0,1.7
			h-1.4l-0.3-1c-0.1-0.1-0.2-0.1-0.3-0.2s-0.3-0.1-0.4-0.1c-0.5,0-0.8,0.2-1,0.5s-0.3,0.8-0.3,1.4v0.2c0,0.6,0.1,1,0.3,1.4
			S702,112.2,702.5,112.2z"/>
	</g>
	<g class="st1">
		<path class="st2" d="M709.9,113.4c0-0.1-0.1-0.2-0.1-0.3s-0.1-0.2-0.1-0.3c-0.2,0.2-0.5,0.4-0.7,0.6s-0.6,0.2-1,0.2
			c-0.6,0-1.1-0.2-1.5-0.5s-0.5-0.8-0.5-1.4c0-0.6,0.2-1.1,0.7-1.4s1.2-0.5,2.1-0.5h0.9v-0.6c0-0.3-0.1-0.5-0.3-0.7
			s-0.4-0.3-0.8-0.3c-0.2,0-0.4,0-0.5,0.1s-0.3,0.1-0.4,0.2l-0.1,0.7h-1.3l0-1.4c0.3-0.2,0.7-0.4,1.1-0.5s0.8-0.2,1.3-0.2
			c0.8,0,1.4,0.2,1.9,0.6s0.7,0.9,0.7,1.6v2.6c0,0.1,0,0.2,0,0.3s0,0.2,0,0.2l0.5,0.1v1H709.9z M708.4,112.3c0.3,0,0.5-0.1,0.7-0.2
			s0.4-0.3,0.5-0.4v-1h-0.9c-0.4,0-0.6,0.1-0.8,0.3s-0.3,0.4-0.3,0.6c0,0.2,0.1,0.4,0.2,0.5S708.1,112.3,708.4,112.3z"/>
	</g>
	<g class="st1">
		<path class="st2" d="M714.5,105.5v1.6h1.1v1.2h-1.1v3.2c0,0.2,0.1,0.4,0.2,0.5s0.2,0.2,0.4,0.2c0.1,0,0.2,0,0.3,0s0.2,0,0.3,0
			l0.1,1.2c-0.2,0.1-0.4,0.1-0.6,0.1s-0.4,0-0.6,0c-0.6,0-1-0.2-1.4-0.5s-0.5-0.8-0.5-1.5v-3.2h-0.9v-1.2h0.9v-1.6H714.5z"/>
		<path class="st2" d="M716.4,112.4l0.8-0.2v-3.9l-0.9-0.2v-1h2.6v5.1l0.8,0.2v1h-3.4V112.4z M718.9,105.5h-1.7v-1.3h1.7V105.5z"/>
		<path class="st2" d="M720.3,110.2c0-0.9,0.3-1.7,0.8-2.3s1.3-0.9,2.2-0.9c0.9,0,1.7,0.3,2.2,0.9s0.8,1.4,0.8,2.3v0.1
			c0,1-0.3,1.7-0.8,2.3s-1.3,0.9-2.2,0.9c-0.9,0-1.7-0.3-2.2-0.9s-0.8-1.4-0.8-2.3V110.2z M722,110.3c0,0.6,0.1,1,0.3,1.4
			s0.5,0.5,1,0.5c0.4,0,0.8-0.2,1-0.5s0.3-0.8,0.3-1.4v-0.1c0-0.6-0.1-1-0.3-1.4s-0.5-0.5-1-0.5s-0.8,0.2-1,0.5s-0.3,0.8-0.3,1.4
			V110.3z"/>
		<path class="st2" d="M726.9,112.4l0.8-0.2v-3.9l-0.9-0.2v-1h2.5l0.1,0.9c0.2-0.3,0.5-0.6,0.8-0.8s0.7-0.3,1-0.3
			c0.6,0,1.1,0.2,1.5,0.6s0.5,1,0.5,1.9v2.8l0.8,0.2v1h-3.3v-1l0.7-0.2v-2.8c0-0.4-0.1-0.7-0.3-0.9s-0.4-0.3-0.8-0.3
			c-0.2,0-0.4,0-0.6,0.1s-0.3,0.2-0.5,0.4v3.4l0.7,0.2v1h-3.2V112.4z"/>
		<path class="st2" d="M737.4,105.3v-1h2.6v7.9l0.8,0.2v1h-3.4v-1l0.8-0.2v-6.7L737.4,105.3z"/>
		<path class="st2" d="M741.4,112.4l0.8-0.2v-3.9l-0.9-0.2v-1h2.6v5.1l0.8,0.2v1h-3.4V112.4z M743.9,105.5h-1.7v-1.3h1.7V105.5z"/>
		<path class="st2" d="M751.4,110.4c0,0.9-0.2,1.7-0.6,2.3s-1,0.8-1.8,0.8c-0.4,0-0.7-0.1-1-0.2s-0.5-0.4-0.7-0.7l-0.1,0.8h-1.5
			v-7.9l-0.9-0.2v-1h2.6v3.5c0.2-0.3,0.4-0.4,0.7-0.6s0.5-0.2,0.9-0.2c0.8,0,1.4,0.3,1.8,0.9s0.6,1.4,0.6,2.4V110.4z M749.7,110.3
			c0-0.6-0.1-1.1-0.3-1.5s-0.5-0.5-0.9-0.5c-0.3,0-0.5,0.1-0.7,0.2s-0.3,0.3-0.4,0.5v2.7c0.1,0.2,0.3,0.3,0.4,0.4s0.4,0.2,0.7,0.2
			c0.4,0,0.8-0.2,0.9-0.5s0.3-0.8,0.3-1.3V110.3z"/>
	</g>
	<g class="st1">
		<path class="st2" d="M752.3,112.4l0.8-0.2v-3.9l-0.9-0.2v-1h2.5l0.1,0.9c0.1-0.3,0.3-0.6,0.6-0.8s0.5-0.3,0.8-0.3
			c0.1,0,0.2,0,0.3,0s0.2,0,0.2,0l-0.2,1.6l-0.7,0c-0.3,0-0.5,0-0.6,0.1s-0.3,0.2-0.4,0.4v3.1l0.8,0.2v1h-3.4V112.4z"/>
	</g>
	<g class="st1">
		<path class="st2" d="M761.2,113.4c0-0.1-0.1-0.2-0.1-0.3s-0.1-0.2-0.1-0.3c-0.2,0.2-0.4,0.4-0.7,0.6s-0.6,0.2-1,0.2
			c-0.6,0-1.1-0.2-1.5-0.5s-0.5-0.8-0.5-1.4c0-0.6,0.2-1.1,0.7-1.4s1.2-0.5,2.1-0.5h0.9v-0.6c0-0.3-0.1-0.5-0.3-0.7
			s-0.4-0.3-0.8-0.3c-0.2,0-0.4,0-0.5,0.1s-0.3,0.1-0.4,0.2l-0.1,0.7h-1.3l0-1.4c0.3-0.2,0.7-0.4,1.1-0.5s0.8-0.2,1.3-0.2
			c0.8,0,1.4,0.2,1.9,0.6s0.7,0.9,0.7,1.6v2.6c0,0.1,0,0.2,0,0.3s0,0.2,0,0.2l0.5,0.1v1H761.2z M759.7,112.3c0.3,0,0.5-0.1,0.7-0.2
			s0.4-0.3,0.5-0.4v-1H760c-0.4,0-0.6,0.1-0.8,0.3s-0.3,0.4-0.3,0.6c0,0.2,0.1,0.4,0.2,0.5S759.4,112.3,759.7,112.3z"/>
		<path class="st2" d="M763.9,112.4l0.8-0.2v-3.9l-0.9-0.2v-1h2.5l0.1,0.9c0.1-0.3,0.3-0.6,0.6-0.8s0.5-0.3,0.8-0.3
			c0.1,0,0.2,0,0.3,0s0.2,0,0.2,0l-0.2,1.6l-0.7,0c-0.3,0-0.5,0-0.6,0.1s-0.3,0.2-0.4,0.4v3.1l0.8,0.2v1h-3.4V112.4z"/>
		<path class="st2" d="M768.7,112.4l0.8-0.2v-3.9l-0.9-0.2v-1h2.6v5.1l0.8,0.2v1h-3.4V112.4z M771.3,105.5h-1.7v-1.3h1.7V105.5z"/>
		<path class="st2" d="M775.7,113.5c-0.9,0-1.6-0.3-2.2-0.9s-0.8-1.3-0.8-2.2v-0.2c0-0.9,0.3-1.7,0.8-2.3s1.2-0.9,2.1-0.9
			c0.9,0,1.5,0.3,2,0.8s0.7,1.2,0.7,2.1v0.9h-3.8l0,0c0,0.4,0.2,0.8,0.4,1s0.6,0.4,1,0.4c0.4,0,0.7,0,0.9-0.1s0.5-0.2,0.8-0.4
			l0.5,1.1c-0.3,0.2-0.6,0.4-1,0.5S776.2,113.5,775.7,113.5z M775.5,108.3c-0.3,0-0.6,0.1-0.8,0.4s-0.3,0.6-0.3,1l0,0h2.1v-0.2
			c0-0.4-0.1-0.7-0.3-0.9S775.9,108.3,775.5,108.3z"/>
		<path class="st2" d="M784.2,109.2h-1.1l-0.2-0.8c-0.1-0.1-0.3-0.2-0.4-0.2s-0.4-0.1-0.6-0.1c-0.3,0-0.5,0.1-0.7,0.2
			s-0.3,0.3-0.3,0.5c0,0.2,0.1,0.4,0.3,0.5s0.5,0.2,1,0.3c0.8,0.2,1.4,0.4,1.7,0.7s0.6,0.7,0.6,1.3c0,0.6-0.2,1-0.7,1.4
			s-1.1,0.5-1.9,0.5c-0.5,0-0.9-0.1-1.3-0.2s-0.8-0.3-1.1-0.6l0-1.4h1.2l0.2,0.8c0.1,0.1,0.2,0.1,0.4,0.2s0.4,0.1,0.6,0.1
			c0.3,0,0.6-0.1,0.8-0.2s0.3-0.3,0.3-0.5c0-0.2-0.1-0.3-0.3-0.5s-0.5-0.3-1-0.4c-0.7-0.2-1.3-0.4-1.7-0.7s-0.6-0.7-0.6-1.2
			c0-0.5,0.2-1,0.7-1.4s1.1-0.6,1.9-0.6c0.5,0,1,0.1,1.4,0.2s0.8,0.3,1,0.5L784.2,109.2z"/>
	</g>
	<line class="st3" x1="641.4" y1="89.1" x2="810.6" y2="89.1"/>
	<g class="st1">
		<path class="st8" d="M389.8,114h-1.3l-0.2-1.2c-0.1-0.1-0.4-0.2-0.7-0.2s-0.6-0.1-0.9-0.1c-0.5,0-0.8,0.1-1.1,0.3
			s-0.4,0.5-0.4,0.8c0,0.3,0.1,0.5,0.4,0.7s0.7,0.4,1.4,0.6c0.9,0.3,1.7,0.6,2.1,1s0.7,1,0.7,1.7c0,0.7-0.3,1.3-0.9,1.7
			s-1.3,0.6-2.3,0.6c-0.7,0-1.3-0.1-1.8-0.3s-1-0.5-1.4-0.9v-1.8h1.3l0.2,1.2c0.2,0.1,0.4,0.3,0.7,0.3s0.6,0.1,1,0.1
			c0.5,0,0.8-0.1,1.1-0.3s0.4-0.4,0.4-0.8c0-0.3-0.1-0.6-0.3-0.8s-0.6-0.4-1.2-0.6c-1-0.3-1.8-0.6-2.3-1s-0.8-1-0.8-1.7
			c0-0.7,0.3-1.3,0.9-1.7s1.3-0.7,2.2-0.7c0.7,0,1.3,0.1,1.8,0.3s1,0.5,1.4,0.8V114z"/>
		<path class="st8" d="M397.6,114.1h-1.3l-0.2-1.1c-0.2-0.2-0.4-0.3-0.6-0.4s-0.6-0.1-0.9-0.1c-0.7,0-1.3,0.3-1.7,0.8
			s-0.6,1.2-0.6,2.1v0.3c0,0.9,0.2,1.6,0.6,2.1s1,0.8,1.7,0.8c0.3,0,0.6,0,0.9-0.1s0.5-0.2,0.6-0.4l0.2-1.1h1.3v1.7
			c-0.3,0.4-0.8,0.7-1.3,1s-1.1,0.4-1.8,0.4c-1.1,0-2.1-0.4-2.8-1.2s-1.1-1.8-1.1-3.1v-0.3c0-1.2,0.4-2.3,1.1-3.1s1.7-1.2,2.8-1.2
			c0.7,0,1.3,0.1,1.8,0.4s1,0.6,1.3,1V114.1z"/>
		<path class="st8" d="M406.1,115.6c0,1.3-0.4,2.3-1.1,3.1s-1.7,1.2-2.8,1.2c-1.2,0-2.1-0.4-2.8-1.2s-1.1-1.8-1.1-3.1v-0.1
			c0-1.2,0.4-2.3,1.1-3.1s1.6-1.2,2.8-1.2c1.2,0,2.1,0.4,2.8,1.2s1.1,1.9,1.1,3.1V115.6z M404.4,115.4c0-0.9-0.2-1.6-0.6-2.2
			s-0.9-0.8-1.6-0.8s-1.3,0.3-1.6,0.8s-0.5,1.3-0.5,2.2v0.1c0,0.9,0.2,1.6,0.5,2.2s0.9,0.8,1.6,0.8c0.7,0,1.3-0.3,1.6-0.8
			s0.5-1.3,0.5-2.2V115.4z"/>
		<path class="st8" d="M415.6,111.2v1l-0.9,0.2v7.3h-1.7l-3.4-5.7l0,0v4.5l0.9,0.2v1h-3.5v-1l0.9-0.2v-6.1l-0.9-0.2v-1h0.9h1.7
			l3.4,5.7l0,0v-4.5l-0.9-0.2v-1h2.6H415.6z"/>
		<path class="st8" d="M421.6,116h-2.9v2.4h2.8l0.1-1h1.3v2.3h-6.8v-1l0.9-0.2v-6.1l-0.9-0.2v-1h0.9h5.8v2.3h-1.3l-0.1-1h-2.7v2.1
			h2.9V116z"/>
		<path class="st8" d="M426.6,111.7v-1h2.6v7.9l0.8,0.2v1h-3.4v-1l0.8-0.2v-6.7L426.6,111.7z"/>
		<path class="st8" d="M430.5,118.7l0.8-0.2v-3.9l-0.9-0.2v-1h2.6v5.1l0.8,0.2v1h-3.4V118.7z M433.1,111.9h-1.7v-1.3h1.7V111.9z"/>
		<path class="st8" d="M440.6,116.8c0,0.9-0.2,1.7-0.6,2.3s-1,0.8-1.8,0.8c-0.4,0-0.7-0.1-1-0.2s-0.5-0.4-0.7-0.7l-0.1,0.8h-1.5
			v-7.9l-0.9-0.2v-1h2.6v3.5c0.2-0.3,0.4-0.4,0.7-0.6s0.5-0.2,0.9-0.2c0.8,0,1.4,0.3,1.8,0.9s0.6,1.4,0.6,2.4V116.8z M438.9,116.6
			c0-0.6-0.1-1.1-0.3-1.5s-0.5-0.5-0.9-0.5c-0.3,0-0.5,0.1-0.7,0.2s-0.3,0.3-0.4,0.5v2.7c0.1,0.2,0.3,0.3,0.4,0.4s0.4,0.2,0.7,0.2
			c0.4,0,0.8-0.2,0.9-0.5s0.3-0.8,0.3-1.3V116.6z"/>
		<path class="st8" d="M444.3,118.6c0.3,0,0.5-0.1,0.7-0.3s0.3-0.4,0.3-0.7h1.5l0,0c0,0.6-0.2,1.2-0.7,1.6s-1.1,0.6-1.9,0.6
			c-0.9,0-1.7-0.3-2.2-0.9s-0.8-1.4-0.8-2.3v-0.2c0-0.9,0.3-1.7,0.8-2.3s1.3-0.9,2.2-0.9c0.5,0,1,0.1,1.4,0.2s0.7,0.4,1,0.6l0,1.7
			h-1.4l-0.3-1c-0.1-0.1-0.2-0.1-0.3-0.2s-0.3-0.1-0.4-0.1c-0.5,0-0.8,0.2-1,0.5s-0.3,0.8-0.3,1.4v0.2c0,0.6,0.1,1,0.3,1.4
			S443.9,118.6,444.3,118.6z"/>
	</g>
	<path class="st4" d="M335.8,23.5h160c2.8,0,5,2.2,5,5v67.4l0,0h-170l0,0V28.5C330.8,25.7,333,23.5,335.8,23.5z"/>
	<g class="st1">
		<path class="st2" d="M383,45.6l0.6-0.1l2.6-7.4h1.8l2.6,7.4l0.6,0.1v1h-2.9v-1l0.6-0.1l-0.4-1.2h-2.8l-0.4,1.2l0.6,0.1v1H383V45.6
			z M386.1,43h2l-1-3h0L386.1,43z"/>
		<path class="st2" d="M391.6,41.3v-1h2.5l0.1,0.7c0.2-0.3,0.4-0.5,0.7-0.6s0.6-0.2,0.9-0.2c0.8,0,1.4,0.3,1.8,0.9s0.7,1.4,0.7,2.4
			v0.1c0,0.9-0.2,1.7-0.7,2.3s-1,0.9-1.8,0.9c-0.3,0-0.6-0.1-0.9-0.2s-0.5-0.3-0.7-0.5v1.8L395,48v1h-3.4v-1l0.8-0.2v-6.4
			L391.6,41.3z M396.5,43.5c0-0.6-0.1-1.1-0.3-1.5s-0.5-0.6-0.9-0.6c-0.3,0-0.5,0.1-0.7,0.2s-0.3,0.3-0.4,0.5v2.8
			c0.1,0.2,0.2,0.3,0.4,0.4s0.4,0.1,0.7,0.1c0.4,0,0.7-0.2,0.9-0.5s0.3-0.8,0.3-1.3V43.5z"/>
	</g>
	<g class="st1">
		<path class="st2" d="M398.9,41.3v-1h2.5l0.1,0.7c0.2-0.3,0.4-0.5,0.7-0.6s0.6-0.2,0.9-0.2c0.8,0,1.4,0.3,1.8,0.9s0.7,1.4,0.7,2.4
			v0.1c0,0.9-0.2,1.7-0.7,2.3s-1,0.9-1.8,0.9c-0.3,0-0.6-0.1-0.9-0.2s-0.5-0.3-0.7-0.5v1.8l0.8,0.2v1h-3.4v-1l0.8-0.2v-6.4
			L398.9,41.3z M403.8,43.5c0-0.6-0.1-1.1-0.3-1.5s-0.5-0.6-0.9-0.6c-0.3,0-0.5,0.1-0.7,0.2s-0.3,0.3-0.4,0.5v2.8
			c0.1,0.2,0.2,0.3,0.4,0.4s0.4,0.1,0.7,0.1c0.4,0,0.7-0.2,0.9-0.5s0.3-0.8,0.3-1.3V43.5z"/>
	</g>
	<g class="st1">
		<path class="st2" d="M405.9,38.5v-1h2.6v7.9l0.8,0.2v1H406v-1l0.8-0.2v-6.7L405.9,38.5z"/>
		<path class="st2" d="M409.9,45.6l0.8-0.2v-3.9l-0.9-0.2v-1h2.6v5.1l0.8,0.2v1h-3.4V45.6z M412.4,38.7h-1.7v-1.3h1.7V38.7z"/>
		<path class="st2" d="M416.8,45.4c0.3,0,0.5-0.1,0.7-0.3s0.3-0.4,0.3-0.7h1.5l0,0c0,0.6-0.2,1.2-0.7,1.6s-1.1,0.6-1.9,0.6
			c-0.9,0-1.7-0.3-2.2-0.9s-0.8-1.4-0.8-2.3v-0.2c0-0.9,0.3-1.7,0.8-2.3s1.3-0.9,2.2-0.9c0.5,0,1,0.1,1.4,0.2s0.7,0.4,1,0.6l0,1.7
			h-1.4l-0.3-1c-0.1-0.1-0.2-0.1-0.3-0.2s-0.3-0.1-0.4-0.1c-0.5,0-0.8,0.2-1,0.5s-0.3,0.8-0.3,1.4v0.2c0,0.6,0.1,1,0.3,1.4
			S416.3,45.4,416.8,45.4z"/>
	</g>
	<g class="st1">
		<path class="st2" d="M424.2,46.6c0-0.1-0.1-0.2-0.1-0.3S424,46,424,45.9c-0.2,0.2-0.5,0.4-0.7,0.6s-0.6,0.2-1,0.2
			c-0.6,0-1.1-0.2-1.5-0.5s-0.5-0.8-0.5-1.4c0-0.6,0.2-1.1,0.7-1.4s1.2-0.5,2.1-0.5h0.9v-0.6c0-0.3-0.1-0.5-0.3-0.7
			s-0.4-0.3-0.8-0.3c-0.2,0-0.4,0-0.5,0.1s-0.3,0.1-0.4,0.2l-0.1,0.7h-1.3l0-1.4c0.3-0.2,0.7-0.4,1.1-0.5s0.8-0.2,1.3-0.2
			c0.8,0,1.4,0.2,1.9,0.6s0.7,0.9,0.7,1.6V45c0,0.1,0,0.2,0,0.3s0,0.2,0,0.2l0.5,0.1v1H424.2z M422.7,45.4c0.3,0,0.5-0.1,0.7-0.2
			s0.4-0.3,0.5-0.4v-1H423c-0.4,0-0.6,0.1-0.8,0.3s-0.3,0.4-0.3,0.6c0,0.2,0.1,0.4,0.2,0.5S422.5,45.4,422.7,45.4z"/>
	</g>
	<g class="st1">
		<path class="st2" d="M428.8,38.7v1.6h1.1v1.2h-1.1v3.2c0,0.2,0.1,0.4,0.2,0.5s0.2,0.2,0.4,0.2c0.1,0,0.2,0,0.3,0s0.2,0,0.3,0
			l0.1,1.2c-0.2,0.1-0.4,0.1-0.6,0.1s-0.4,0-0.6,0c-0.6,0-1-0.2-1.4-0.5s-0.5-0.8-0.5-1.5v-3.2h-0.9v-1.2h0.9v-1.6H428.8z"/>
		<path class="st2" d="M430.7,45.6l0.8-0.2v-3.9l-0.9-0.2v-1h2.6v5.1l0.8,0.2v1h-3.4V45.6z M433.2,38.7h-1.7v-1.3h1.7V38.7z"/>
		<path class="st2" d="M434.6,43.4c0-0.9,0.3-1.7,0.8-2.3s1.3-0.9,2.2-0.9c0.9,0,1.7,0.3,2.2,0.9s0.8,1.4,0.8,2.3v0.1
			c0,1-0.3,1.7-0.8,2.3s-1.3,0.9-2.2,0.9c-0.9,0-1.7-0.3-2.2-0.9s-0.8-1.4-0.8-2.3V43.4z M436.3,43.5c0,0.6,0.1,1,0.3,1.4
			s0.5,0.5,1,0.5c0.4,0,0.8-0.2,1-0.5s0.3-0.8,0.3-1.4v-0.1c0-0.6-0.1-1-0.3-1.4s-0.5-0.5-1-0.5s-0.8,0.2-1,0.5s-0.3,0.8-0.3,1.4
			V43.5z"/>
		<path class="st2" d="M441.2,45.6l0.8-0.2v-3.9l-0.9-0.2v-1h2.5l0.1,0.9c0.2-0.3,0.5-0.6,0.8-0.8s0.7-0.3,1-0.3
			c0.6,0,1.1,0.2,1.5,0.6s0.5,1,0.5,1.9v2.8l0.8,0.2v1h-3.3v-1l0.7-0.2v-2.8c0-0.4-0.1-0.7-0.3-0.9s-0.4-0.3-0.8-0.3
			c-0.2,0-0.4,0-0.6,0.1s-0.3,0.2-0.5,0.4v3.4l0.7,0.2v1h-3.2V45.6z"/>
	</g>
	<g class="st1">
		<path class="st2" d="M357.7,82.5l0.6-0.1l2.6-7.4h1.8l2.6,7.4l0.6,0.1v1h-2.9v-1l0.6-0.1l-0.4-1.2h-2.8l-0.4,1.2l0.6,0.1v1h-2.9
			V82.5z M360.8,80h2l-1-3h0L360.8,80z"/>
		<path class="st2" d="M366.3,78.2v-1h2.5l0.1,0.7c0.2-0.3,0.4-0.5,0.7-0.6s0.6-0.2,0.9-0.2c0.8,0,1.4,0.3,1.8,0.9s0.7,1.4,0.7,2.4
			v0.1c0,0.9-0.2,1.7-0.7,2.3s-1,0.9-1.8,0.9c-0.3,0-0.6-0.1-0.9-0.2s-0.5-0.3-0.7-0.5v1.8l0.8,0.2v1h-3.4v-1l0.8-0.2v-6.4
			L366.3,78.2z M371.2,80.4c0-0.6-0.1-1.1-0.3-1.5s-0.5-0.6-0.9-0.6c-0.3,0-0.5,0.1-0.7,0.2s-0.3,0.3-0.4,0.5v2.8
			c0.1,0.2,0.2,0.3,0.4,0.4s0.4,0.1,0.7,0.1c0.4,0,0.7-0.2,0.9-0.5s0.3-0.8,0.3-1.3V80.4z"/>
	</g>
	<g class="st1">
		<path class="st2" d="M373.6,78.2v-1h2.5l0.1,0.7c0.2-0.3,0.4-0.5,0.7-0.6s0.6-0.2,0.9-0.2c0.8,0,1.4,0.3,1.8,0.9s0.7,1.4,0.7,2.4
			v0.1c0,0.9-0.2,1.7-0.7,2.3s-1,0.9-1.8,0.9c-0.3,0-0.6-0.1-0.9-0.2s-0.5-0.3-0.7-0.5v1.8l0.8,0.2v1h-3.4v-1l0.8-0.2v-6.4
			L373.6,78.2z M378.5,80.4c0-0.6-0.1-1.1-0.3-1.5s-0.5-0.6-0.9-0.6c-0.3,0-0.5,0.1-0.7,0.2s-0.3,0.3-0.4,0.5v2.8
			c0.1,0.2,0.2,0.3,0.4,0.4s0.4,0.1,0.7,0.1c0.4,0,0.7-0.2,0.9-0.5s0.3-0.8,0.3-1.3V80.4z"/>
	</g>
	<g class="st1">
		<path class="st2" d="M380.7,75.4v-1h2.6v7.9l0.8,0.2v1h-3.4v-1l0.8-0.2v-6.7L380.7,75.4z"/>
		<path class="st2" d="M384.6,82.5l0.8-0.2v-3.9l-0.9-0.2v-1h2.6v5.1l0.8,0.2v1h-3.4V82.5z M387.2,75.7h-1.7v-1.3h1.7V75.7z"/>
		<path class="st2" d="M391.5,82.3c0.3,0,0.5-0.1,0.7-0.3s0.3-0.4,0.3-0.7h1.5l0,0c0,0.6-0.2,1.2-0.7,1.6s-1.1,0.6-1.9,0.6
			c-0.9,0-1.7-0.3-2.2-0.9s-0.8-1.4-0.8-2.3v-0.2c0-0.9,0.3-1.7,0.8-2.3s1.3-0.9,2.2-0.9c0.5,0,1,0.1,1.4,0.2s0.7,0.4,1,0.6l0,1.7
			h-1.4l-0.3-1c-0.1-0.1-0.2-0.1-0.3-0.2s-0.3-0.1-0.4-0.1c-0.5,0-0.8,0.2-1,0.5s-0.3,0.8-0.3,1.4v0.2c0,0.6,0.1,1,0.3,1.4
			S391.1,82.3,391.5,82.3z"/>
	</g>
	<g class="st1">
		<path class="st2" d="M398.9,83.5c0-0.1-0.1-0.2-0.1-0.3s-0.1-0.2-0.1-0.3c-0.2,0.2-0.5,0.4-0.7,0.6s-0.6,0.2-1,0.2
			c-0.6,0-1.1-0.2-1.5-0.5s-0.5-0.8-0.5-1.4c0-0.6,0.2-1.1,0.7-1.4s1.2-0.5,2.1-0.5h0.9v-0.6c0-0.3-0.1-0.5-0.3-0.7
			s-0.4-0.3-0.8-0.3c-0.2,0-0.4,0-0.5,0.1s-0.3,0.1-0.4,0.2l-0.1,0.7h-1.3l0-1.4c0.3-0.2,0.7-0.4,1.1-0.5s0.8-0.2,1.3-0.2
			c0.8,0,1.4,0.2,1.9,0.6s0.7,0.9,0.7,1.6v2.6c0,0.1,0,0.2,0,0.3s0,0.2,0,0.2l0.5,0.1v1H398.9z M397.4,82.4c0.3,0,0.5-0.1,0.7-0.2
			s0.4-0.3,0.5-0.4v-1h-0.9c-0.4,0-0.6,0.1-0.8,0.3s-0.3,0.4-0.3,0.6c0,0.2,0.1,0.4,0.2,0.5S397.2,82.4,397.4,82.4z"/>
	</g>
	<g class="st1">
		<path class="st2" d="M403.5,75.6v1.6h1.1v1.2h-1.1v3.2c0,0.2,0.1,0.4,0.2,0.5s0.2,0.2,0.4,0.2c0.1,0,0.2,0,0.3,0s0.2,0,0.3,0
			l0.1,1.2c-0.2,0.1-0.4,0.1-0.6,0.1s-0.4,0-0.6,0c-0.6,0-1-0.2-1.4-0.5s-0.5-0.8-0.5-1.5v-3.2h-0.9v-1.2h0.9v-1.6H403.5z"/>
		<path class="st2" d="M405.4,82.5l0.8-0.2v-3.9l-0.9-0.2v-1h2.6v5.1l0.8,0.2v1h-3.4V82.5z M408,75.7h-1.7v-1.3h1.7V75.7z"/>
		<path class="st2" d="M409.3,80.3c0-0.9,0.3-1.7,0.8-2.3s1.3-0.9,2.2-0.9c0.9,0,1.7,0.3,2.2,0.9s0.8,1.4,0.8,2.3v0.1
			c0,1-0.3,1.7-0.8,2.3s-1.3,0.9-2.2,0.9c-0.9,0-1.7-0.3-2.2-0.9s-0.8-1.4-0.8-2.3V80.3z M411,80.4c0,0.6,0.1,1,0.3,1.4
			s0.5,0.5,1,0.5c0.4,0,0.8-0.2,1-0.5s0.3-0.8,0.3-1.4v-0.1c0-0.6-0.1-1-0.3-1.4s-0.5-0.5-1-0.5s-0.8,0.2-1,0.5s-0.3,0.8-0.3,1.4
			V80.4z"/>
		<path class="st2" d="M416,82.5l0.8-0.2v-3.9l-0.9-0.2v-1h2.5l0.1,0.9c0.2-0.3,0.5-0.6,0.8-0.8s0.7-0.3,1-0.3
			c0.6,0,1.1,0.2,1.5,0.6s0.5,1,0.5,1.9v2.8l0.8,0.2v1h-3.3v-1l0.7-0.2v-2.8c0-0.4-0.1-0.7-0.3-0.9s-0.4-0.3-0.8-0.3
			c-0.2,0-0.4,0-0.6,0.1s-0.3,0.2-0.5,0.4v3.4l0.7,0.2v1H416V82.5z"/>
		<path class="st2" d="M426.4,75.4v-1h2.6v7.9l0.8,0.2v1h-3.4v-1l0.8-0.2v-6.7L426.4,75.4z"/>
		<path class="st2" d="M430.4,82.5l0.8-0.2v-3.9l-0.9-0.2v-1h2.6v5.1l0.8,0.2v1h-3.4V82.5z M432.9,75.7h-1.7v-1.3h1.7V75.7z"/>
		<path class="st2" d="M440.4,80.5c0,0.9-0.2,1.7-0.6,2.3s-1,0.8-1.8,0.8c-0.4,0-0.7-0.1-1-0.2s-0.5-0.4-0.7-0.7l-0.1,0.8h-1.5v-7.9
			l-0.9-0.2v-1h2.6v3.5c0.2-0.3,0.4-0.4,0.7-0.6s0.5-0.2,0.9-0.2c0.8,0,1.4,0.3,1.8,0.9s0.6,1.4,0.6,2.4V80.5z M438.7,80.4
			c0-0.6-0.1-1.1-0.3-1.5s-0.5-0.5-0.9-0.5c-0.3,0-0.5,0.1-0.7,0.2s-0.3,0.3-0.4,0.5v2.7c0.1,0.2,0.3,0.3,0.4,0.4s0.4,0.2,0.7,0.2
			c0.4,0,0.8-0.2,0.9-0.5s0.3-0.8,0.3-1.3V80.4z"/>
	</g>
	<g class="st1">
		<path class="st2" d="M441.4,82.5l0.8-0.2v-3.9l-0.9-0.2v-1h2.5l0.1,0.9c0.1-0.3,0.3-0.6,0.6-0.8s0.5-0.3,0.8-0.3
			c0.1,0,0.2,0,0.3,0s0.2,0,0.2,0l-0.2,1.6l-0.7,0c-0.3,0-0.5,0-0.6,0.1s-0.3,0.2-0.4,0.4v3.1l0.8,0.2v1h-3.4V82.5z"/>
	</g>
	<g class="st1">
		<path class="st2" d="M450.2,83.5c0-0.1-0.1-0.2-0.1-0.3S450,83,450,82.9c-0.2,0.2-0.5,0.4-0.7,0.6s-0.6,0.2-1,0.2
			c-0.6,0-1.1-0.2-1.5-0.5s-0.5-0.8-0.5-1.4c0-0.6,0.2-1.1,0.7-1.4s1.2-0.5,2.1-0.5h0.9v-0.6c0-0.3-0.1-0.5-0.3-0.7
			s-0.4-0.3-0.8-0.3c-0.2,0-0.4,0-0.5,0.1s-0.3,0.1-0.4,0.2l-0.1,0.7h-1.3l0-1.4c0.3-0.2,0.7-0.4,1.1-0.5s0.8-0.2,1.3-0.2
			c0.8,0,1.4,0.2,1.9,0.6s0.7,0.9,0.7,1.6v2.6c0,0.1,0,0.2,0,0.3s0,0.2,0,0.2l0.5,0.1v1H450.2z M448.7,82.4c0.3,0,0.5-0.1,0.7-0.2
			s0.4-0.3,0.5-0.4v-1H449c-0.4,0-0.6,0.1-0.8,0.3s-0.3,0.4-0.3,0.6c0,0.2,0.1,0.4,0.2,0.5S448.5,82.4,448.7,82.4z"/>
		<path class="st2" d="M452.9,82.5l0.8-0.2v-3.9l-0.9-0.2v-1h2.5l0.1,0.9c0.1-0.3,0.3-0.6,0.6-0.8s0.5-0.3,0.8-0.3
			c0.1,0,0.2,0,0.3,0s0.2,0,0.2,0l-0.2,1.6l-0.7,0c-0.3,0-0.5,0-0.6,0.1s-0.3,0.2-0.4,0.4v3.1l0.8,0.2v1h-3.4V82.5z"/>
		<path class="st2" d="M457.8,82.5l0.8-0.2v-3.9l-0.9-0.2v-1h2.6v5.1l0.8,0.2v1h-3.4V82.5z M460.3,75.7h-1.7v-1.3h1.7V75.7z"/>
		<path class="st2" d="M464.7,83.7c-0.9,0-1.6-0.3-2.2-0.9s-0.8-1.3-0.8-2.2v-0.2c0-0.9,0.3-1.7,0.8-2.3s1.2-0.9,2.1-0.9
			c0.9,0,1.5,0.3,2,0.8s0.7,1.2,0.7,2.1v0.9h-3.8l0,0c0,0.4,0.2,0.8,0.4,1s0.6,0.4,1,0.4c0.4,0,0.7,0,0.9-0.1s0.5-0.2,0.8-0.4
			l0.5,1.1c-0.3,0.2-0.6,0.4-1,0.5S465.2,83.7,464.7,83.7z M464.6,78.4c-0.3,0-0.6,0.1-0.8,0.4s-0.3,0.6-0.3,1l0,0h2.1v-0.2
			c0-0.4-0.1-0.7-0.3-0.9S464.9,78.4,464.6,78.4z"/>
		<path class="st2" d="M473.2,79.4h-1.1l-0.2-0.8c-0.1-0.1-0.3-0.2-0.4-0.2s-0.4-0.1-0.6-0.1c-0.3,0-0.5,0.1-0.7,0.2
			s-0.3,0.3-0.3,0.5c0,0.2,0.1,0.4,0.3,0.5s0.5,0.2,1,0.3c0.8,0.2,1.4,0.4,1.7,0.7s0.6,0.7,0.6,1.3c0,0.6-0.2,1-0.7,1.4
			s-1.1,0.5-1.9,0.5c-0.5,0-0.9-0.1-1.3-0.2s-0.8-0.3-1.1-0.6l0-1.4h1.2l0.2,0.8c0.1,0.1,0.2,0.1,0.4,0.2s0.4,0.1,0.6,0.1
			c0.3,0,0.6-0.1,0.8-0.2s0.3-0.3,0.3-0.5c0-0.2-0.1-0.3-0.3-0.5s-0.5-0.3-1-0.4c-0.7-0.2-1.3-0.4-1.7-0.7s-0.6-0.7-0.6-1.2
			c0-0.5,0.2-1,0.7-1.4s1.1-0.6,1.9-0.6c0.5,0,1,0.1,1.4,0.2s0.8,0.3,1,0.5L473.2,79.4z"/>
	</g>
	<line class="st3" x1="330.4" y1="59.3" x2="499.7" y2="59.3"/>
</g>
<g id="schrift">
	<g class="st1">
		<path class="st2" d="M238.4,56.5c0-0.2-0.1-0.4-0.2-0.5c-0.1-0.1-0.2-0.3-0.4-0.4c-0.2-0.1-0.3-0.2-0.5-0.3
			c-0.2-0.1-0.4-0.2-0.5-0.4s-0.3-0.3-0.4-0.5s-0.2-0.4-0.2-0.7c0-0.2,0.1-0.4,0.2-0.6c0.1-0.2,0.3-0.4,0.4-0.5s0.4-0.3,0.7-0.3
			c0.3-0.1,0.5-0.1,0.8-0.1c0.4,0,0.8,0,1,0.1c0.2,0.1,0.4,0.1,0.6,0.2l-0.3,0.7c-0.3-0.2-0.8-0.3-1.3-0.3c-0.3,0-0.6,0.1-0.8,0.2
			c-0.2,0.1-0.3,0.4-0.3,0.6c0,0.2,0.1,0.3,0.2,0.4s0.2,0.2,0.4,0.4c0.2,0.1,0.3,0.2,0.5,0.3c0.2,0.1,0.4,0.2,0.5,0.4
			c0.2,0.1,0.3,0.3,0.4,0.5s0.2,0.4,0.2,0.7c0,0.6-0.2,1.1-0.6,1.4s-1,0.5-1.7,0.5c-0.4,0-0.7,0-1-0.1c-0.3-0.1-0.5-0.2-0.7-0.3
			l0.3-0.8c0.2,0.1,0.4,0.2,0.6,0.3c0.3,0.1,0.5,0.1,0.8,0.1c0.4,0,0.7-0.1,0.9-0.3C238.3,57.2,238.4,56.9,238.4,56.5z"/>
		<path class="st2" d="M240.9,52.2h0.9l0.3-1.2l1-0.3l-0.3,1.5h1.6l-0.2,0.8h-1.6l-0.8,3.6c0,0.1,0,0.2,0,0.3c0,0.1,0,0.2,0,0.2
			c0,0.2,0,0.3,0.1,0.4c0.1,0.1,0.2,0.1,0.4,0.1c0.2,0,0.4,0,0.5-0.1s0.3-0.1,0.5-0.2V58c-0.2,0.1-0.4,0.2-0.6,0.2
			c-0.3,0.1-0.5,0.1-0.8,0.1c-0.7,0-1.1-0.3-1.1-1c0-0.1,0-0.3,0.1-0.5l0.8-3.9h-0.9L240.9,52.2z"/>
		<path class="st2" d="M248.8,55.9c-0.1,0.3-0.1,0.6-0.1,0.9c0,0.3,0,0.6,0,0.9c0,0.1,0,0.2,0,0.3c0,0.1,0,0.2,0,0.3H248l-0.2-1h0
			c-0.1,0.1-0.2,0.3-0.4,0.4c-0.1,0.1-0.3,0.3-0.5,0.4c-0.2,0.1-0.3,0.2-0.5,0.3c-0.2,0.1-0.4,0.1-0.6,0.1c-1,0-1.4-0.6-1.4-1.9
			c0-0.5,0.1-1,0.2-1.6c0.1-0.5,0.3-1,0.6-1.4s0.6-0.8,1.1-1c0.4-0.3,1-0.4,1.6-0.4c0.2,0,0.5,0,0.8,0.1c0.3,0.1,0.6,0.1,0.9,0.2
			L248.8,55.9z M246.1,57.6c0.2,0,0.4,0,0.6-0.1s0.3-0.2,0.5-0.3c0.2-0.1,0.3-0.3,0.4-0.4s0.2-0.3,0.3-0.4l0.7-3.2
			c-0.2-0.1-0.5-0.2-0.9-0.2s-0.7,0.1-1,0.3c-0.3,0.2-0.5,0.5-0.7,0.8c-0.2,0.3-0.3,0.7-0.4,1.2c-0.1,0.4-0.1,0.9-0.1,1.3
			c0,0.3,0.1,0.6,0.2,0.8C245.7,57.5,245.8,57.6,246.1,57.6z"/>
		<path class="st2" d="M250.5,52.2h0.9l0.3-1.2l1-0.3l-0.3,1.5h1.6l-0.2,0.8h-1.6l-0.8,3.6c0,0.1,0,0.2,0,0.3c0,0.1,0,0.2,0,0.2
			c0,0.2,0,0.3,0.1,0.4c0.1,0.1,0.2,0.1,0.4,0.1c0.2,0,0.4,0,0.5-0.1s0.3-0.1,0.5-0.2V58c-0.2,0.1-0.4,0.2-0.6,0.2
			c-0.3,0.1-0.5,0.1-0.8,0.1c-0.7,0-1.1-0.3-1.1-1c0-0.1,0-0.3,0.1-0.5l0.8-3.9h-0.9L250.5,52.2z"/>
		<path class="st2" d="M255.4,52.2h0.9l-1.3,6h-0.9L255.4,52.2z M255.6,50.4c0-0.2,0.1-0.3,0.2-0.5s0.3-0.2,0.5-0.2s0.3,0.1,0.5,0.2
			s0.2,0.3,0.2,0.5s-0.1,0.3-0.2,0.5s-0.3,0.2-0.5,0.2s-0.3-0.1-0.5-0.2S255.6,50.6,255.6,50.4z"/>
	</g>
	<g class="st1">
		<path class="st2" d="M260.9,57.7c-0.1,0.1-0.3,0.2-0.4,0.3c-0.2,0.1-0.3,0.1-0.5,0.2s-0.3,0.1-0.5,0.1s-0.3,0-0.5,0
			c-0.4,0-0.7-0.1-1-0.2s-0.5-0.3-0.6-0.5c-0.1-0.2-0.2-0.4-0.3-0.6c-0.1-0.2-0.1-0.4-0.1-0.6c0-0.7,0.1-1.3,0.3-1.8s0.4-1,0.7-1.4
			c0.3-0.4,0.7-0.7,1.1-0.9c0.4-0.2,0.8-0.3,1.2-0.3c0.3,0,0.6,0,0.8,0.1c0.2,0.1,0.4,0.1,0.5,0.2l-0.3,0.7
			c-0.1-0.1-0.3-0.1-0.5-0.2c-0.2,0-0.4-0.1-0.6-0.1c-0.3,0-0.5,0.1-0.8,0.3c-0.3,0.2-0.5,0.4-0.7,0.7c-0.2,0.3-0.4,0.6-0.5,1
			c-0.1,0.4-0.2,0.8-0.2,1.2c0,0.5,0.1,0.9,0.3,1.2c0.2,0.2,0.5,0.4,0.9,0.4c0.2,0,0.5-0.1,0.8-0.2c0.3-0.1,0.5-0.2,0.6-0.3
			L260.9,57.7z"/>
	</g>
	<g class="st1">
		<path class="st2" d="M236.9,71.2c0,0.1,0,0.2,0,0.3c0,0.2,0,0.3,0.1,0.3c0.1,0.1,0.1,0.1,0.2,0.1c0.2,0,0.3,0,0.4,0
			c0.1,0,0.2-0.1,0.4-0.1v0.7c-0.1,0-0.2,0.1-0.3,0.1c-0.1,0-0.2,0-0.3,0.1c-0.1,0-0.2,0-0.3,0s-0.2,0-0.3,0c-0.3,0-0.5-0.1-0.7-0.2
			s-0.3-0.4-0.3-0.7c0-0.2,0-0.4,0.1-0.6l1.5-7h0.9L236.9,71.2z"/>
		<path class="st2" d="M240.5,66.6h0.9l-1.3,6h-0.9L240.5,66.6z M240.7,64.8c0-0.2,0.1-0.3,0.2-0.5s0.3-0.2,0.5-0.2s0.3,0.1,0.5,0.2
			s0.2,0.3,0.2,0.5s-0.1,0.3-0.2,0.5s-0.3,0.2-0.5,0.2s-0.3-0.1-0.5-0.2S240.7,65,240.7,64.8z"/>
		<path class="st2" d="M245.6,72.6l0.8-3.8c0-0.1,0.1-0.3,0.1-0.4s0-0.3,0-0.4c0-0.2-0.1-0.4-0.2-0.6c-0.1-0.1-0.3-0.2-0.6-0.2
			c-0.2,0-0.4,0-0.6,0.1c-0.2,0.1-0.4,0.2-0.6,0.4c-0.2,0.1-0.3,0.3-0.5,0.5c-0.1,0.2-0.3,0.4-0.4,0.5l-0.8,3.8h-0.9l1.3-6h0.6l0,1
			h0c0.1-0.1,0.2-0.3,0.4-0.4c0.1-0.1,0.3-0.3,0.5-0.4s0.4-0.2,0.6-0.3c0.2-0.1,0.5-0.1,0.7-0.1c0.4,0,0.7,0.1,0.9,0.3
			c0.2,0.2,0.3,0.5,0.3,1c0,0.2,0,0.5-0.1,0.9l-0.9,4H245.6z"/>
		<path class="st2" d="M250.5,69.9h-0.6l-0.6,2.7h-0.9l1.8-8.4h0.9l-1.1,5.1l0.5-0.1l2.2-2.6h1.1l-2.1,2.4l-0.6,0.4l0.5,0.5l1.4,2.7
			h-1L250.5,69.9z"/>
		<path class="st2" d="M255.2,66.6h0.9l-1.3,6H254L255.2,66.6z M255.4,64.8c0-0.2,0.1-0.3,0.2-0.5s0.3-0.2,0.5-0.2s0.3,0.1,0.5,0.2
			s0.2,0.3,0.2,0.5s-0.1,0.3-0.2,0.5s-0.3,0.2-0.5,0.2s-0.3-0.1-0.5-0.2S255.4,65,255.4,64.8z"/>
		<path class="st2" d="M260.4,72.6l0.8-3.8c0-0.1,0.1-0.3,0.1-0.4s0-0.3,0-0.4c0-0.2-0.1-0.4-0.2-0.6c-0.1-0.1-0.3-0.2-0.6-0.2
			c-0.2,0-0.4,0-0.6,0.1c-0.2,0.1-0.4,0.2-0.6,0.4c-0.2,0.1-0.3,0.3-0.5,0.5c-0.1,0.2-0.3,0.4-0.4,0.5l-0.8,3.8h-0.9l1.3-6h0.6l0,1
			h0c0.1-0.1,0.2-0.3,0.4-0.4c0.1-0.1,0.3-0.3,0.5-0.4s0.4-0.2,0.6-0.3c0.2-0.1,0.5-0.1,0.7-0.1c0.4,0,0.7,0.1,0.9,0.3
			c0.2,0.2,0.3,0.5,0.3,1c0,0.2,0,0.5-0.1,0.9l-0.9,4H260.4z"/>
		<path class="st2" d="M267.3,72.9c-0.2,0.8-0.5,1.4-0.9,1.7s-1,0.5-1.6,0.5c-0.5,0-0.9-0.1-1.3-0.2c-0.3-0.1-0.6-0.2-0.8-0.3
			l0.4-0.7c0.1,0,0.1,0.1,0.2,0.1s0.2,0.1,0.3,0.2c0.1,0,0.3,0.1,0.5,0.1c0.2,0,0.4,0,0.7,0c0.4,0,0.7-0.1,1-0.4
			c0.3-0.3,0.5-0.7,0.6-1.4l0.2-1h0c-0.1,0.2-0.2,0.3-0.4,0.4c-0.1,0.1-0.3,0.3-0.4,0.4c-0.2,0.1-0.3,0.2-0.5,0.3
			c-0.2,0.1-0.4,0.1-0.6,0.1c-0.4,0-0.8-0.2-1-0.5c-0.3-0.3-0.4-0.8-0.4-1.3c0-0.5,0.1-1.1,0.2-1.6c0.1-0.5,0.4-1,0.7-1.4
			c0.3-0.4,0.7-0.8,1.1-1c0.4-0.3,0.9-0.4,1.5-0.4c0.4,0,0.8,0,1.1,0.1s0.6,0.2,0.8,0.3L267.3,72.9z M265,72c0.2,0,0.4-0.1,0.6-0.2
			c0.2-0.1,0.4-0.2,0.5-0.4c0.2-0.2,0.3-0.3,0.4-0.5c0.1-0.2,0.2-0.4,0.3-0.5l0.6-2.9c-0.1-0.1-0.3-0.1-0.5-0.1c-0.2,0-0.4,0-0.6,0
			c-0.3,0-0.6,0.1-0.9,0.3c-0.3,0.2-0.5,0.5-0.7,0.8c-0.2,0.3-0.4,0.7-0.5,1.1c-0.1,0.4-0.2,0.9-0.2,1.3c0,0.4,0.1,0.7,0.2,0.9
			S264.8,72,265,72z"/>
	</g>
	<g class="st1">
		<path class="st2" d="M553.3,71.2c0,0.1,0,0.2,0,0.3c0,0.2,0,0.3,0.1,0.3c0.1,0.1,0.1,0.1,0.2,0.1c0.2,0,0.3,0,0.4,0
			c0.1,0,0.2-0.1,0.4-0.1v0.7c-0.1,0-0.2,0.1-0.3,0.1c-0.1,0-0.2,0-0.3,0.1c-0.1,0-0.2,0-0.3,0s-0.2,0-0.3,0c-0.3,0-0.5-0.1-0.7-0.2
			s-0.3-0.4-0.3-0.7c0-0.2,0-0.4,0.1-0.6l1.5-7h0.9L553.3,71.2z"/>
		<path class="st2" d="M555.5,70.7c0-0.6,0.1-1.2,0.2-1.7c0.2-0.5,0.4-1,0.7-1.3s0.6-0.7,1-0.9s0.8-0.3,1.2-0.3
			c0.3,0,0.6,0.1,0.9,0.2c0.2,0.1,0.4,0.3,0.6,0.4c0.1,0.2,0.3,0.4,0.3,0.6s0.1,0.5,0.1,0.8c0,0.6-0.1,1.2-0.2,1.7
			c-0.2,0.5-0.4,1-0.6,1.4c-0.3,0.4-0.6,0.7-1,0.9c-0.4,0.2-0.8,0.3-1.2,0.3c-0.4,0-0.7-0.1-0.9-0.2c-0.2-0.1-0.4-0.3-0.6-0.5
			c-0.2-0.2-0.3-0.4-0.3-0.6C555.6,71.2,555.5,71,555.5,70.7z M556.5,70.5c0,0.5,0.1,0.8,0.3,1.1s0.5,0.4,0.8,0.4
			c0.3,0,0.5-0.1,0.8-0.3c0.2-0.2,0.4-0.4,0.6-0.8c0.2-0.3,0.3-0.7,0.4-1.1c0.1-0.4,0.2-0.8,0.2-1.3c0-0.4-0.1-0.7-0.2-1
			c-0.1-0.2-0.4-0.4-0.8-0.4c-0.3,0-0.5,0.1-0.8,0.3c-0.2,0.2-0.5,0.4-0.6,0.7c-0.2,0.3-0.3,0.7-0.4,1
			C556.6,69.7,556.5,70.1,556.5,70.5z"/>
		<path class="st2" d="M565.9,70.3c-0.1,0.3-0.1,0.6-0.1,0.9c0,0.3,0,0.6,0,0.9c0,0.1,0,0.2,0,0.3c0,0.1,0,0.2,0,0.3h-0.7l-0.2-1h0
			c-0.1,0.1-0.2,0.3-0.4,0.4c-0.1,0.1-0.3,0.3-0.5,0.4c-0.2,0.1-0.3,0.2-0.5,0.3c-0.2,0.1-0.4,0.1-0.6,0.1c-1,0-1.4-0.6-1.4-1.9
			c0-0.5,0.1-1,0.2-1.6c0.1-0.5,0.3-1,0.6-1.4s0.6-0.8,1.1-1c0.4-0.3,1-0.4,1.6-0.4c0.2,0,0.5,0,0.8,0.1c0.3,0.1,0.6,0.1,0.9,0.2
			L565.9,70.3z M563.2,72c0.2,0,0.4,0,0.6-0.1s0.3-0.2,0.5-0.3c0.2-0.1,0.3-0.3,0.4-0.4s0.2-0.3,0.3-0.4l0.7-3.2
			c-0.2-0.1-0.5-0.2-0.9-0.2s-0.7,0.1-1,0.3c-0.3,0.2-0.5,0.5-0.7,0.8c-0.2,0.3-0.3,0.7-0.4,1.2c-0.1,0.4-0.1,0.9-0.1,1.3
			c0,0.3,0.1,0.6,0.2,0.8C562.7,71.9,562.9,72,563.2,72z"/>
		<path class="st2" d="M571.8,70.6c-0.1,0.3-0.1,0.6-0.1,0.9c0,0.3,0,0.5,0,0.8c0,0.1,0,0.2,0,0.2c0,0.1,0,0.1,0,0.2H571l-0.2-1h0
			c-0.1,0.1-0.2,0.3-0.4,0.4c-0.1,0.1-0.3,0.3-0.5,0.4c-0.2,0.1-0.4,0.2-0.6,0.3c-0.2,0.1-0.4,0.1-0.6,0.1c-0.4,0-0.8-0.2-1-0.5
			s-0.4-0.8-0.4-1.5c0-0.5,0.1-1,0.2-1.5c0.1-0.5,0.3-1,0.6-1.4s0.6-0.7,1-1c0.4-0.3,0.9-0.4,1.4-0.4c0.1,0,0.3,0,0.4,0
			c0.1,0,0.2,0,0.3,0c0.1,0,0.2,0,0.3,0.1c0.1,0,0.2,0.1,0.3,0.1l0.5-2.5h0.9L571.8,70.6z M569.1,72c0.2,0,0.3,0,0.5-0.1
			c0.2-0.1,0.3-0.2,0.5-0.3c0.2-0.1,0.3-0.3,0.4-0.4c0.1-0.2,0.2-0.3,0.3-0.4l0.7-3.1c-0.1-0.1-0.3-0.2-0.5-0.2s-0.4-0.1-0.7-0.1
			c-0.3,0-0.6,0.1-0.9,0.3s-0.5,0.5-0.7,0.8c-0.2,0.3-0.3,0.7-0.4,1.1c-0.1,0.4-0.1,0.9-0.1,1.3c0,0.3,0.1,0.6,0.2,0.8
			C568.6,71.9,568.9,72,569.1,72z"/>
	</g>
</g>
<g id="Ebene_4">
	<line class="st13" x1="219.3" y1="81.6" x2="285" y2="81.6"/>
	<polygon class="st14" points="280.4,87.3 279.4,86.3 284.5,81.6 279.4,76.9 280.4,75.9 286.5,81.6 	"/>
	<line class="st13" x1="529.7" y1="81.6" x2="595.4" y2="81.6"/>
	<polygon class="st14" points="590.8,87.3 589.8,86.3 594.9,81.6 589.8,76.9 590.8,75.9 596.9,81.6 	"/>
</g>
</svg>
