<?xml version="1.0" encoding="utf-8"?>
<!-- Generator: Adobe Illustrator 26.3.1, SVG Export Plug-In . SVG Version: 6.00 Build 0)  -->
<svg version="1.1" id="Ebene_1" xmlns="http://www.w3.org/2000/svg" xmlns:xlink="http://www.w3.org/1999/xlink" x="0px" y="0px"
	 viewBox="0 0 1638 1076" style="enable-background:new 0 0 1638 1076;" xml:space="preserve">
<style type="text/css">
	.st0{fill:url(#SVGID_1_);}
	.st1{opacity:0.4;fill:none;stroke:#FFFFFF;stroke-width:4;stroke-miterlimit:10;enable-background:new    ;}
	.st2{fill:none;stroke:#FFCC00;stroke-width:6;stroke-miterlimit:10;}
	.st3{enable-background:new    ;}
	.st4{fill:#FFFFFF;}
	.st5{fill:none;stroke:#FFCB00;stroke-width:6;stroke-linecap:round;stroke-linejoin:round;}
	.st6{fill:#FFCC00;}
	.st7{fill:none;stroke:#FFCC00;stroke-width:6;stroke-linejoin:round;}
	.st8{fill:none;stroke:#FFFFFF;stroke-width:6;stroke-miterlimit:10;}
	.st9{fill:#FF6633;}
	.st10{fill:none;stroke:#FFFFFF;stroke-width:4;stroke-linecap:round;stroke-linejoin:round;}
	.st11{fill:none;stroke:#330066;stroke-width:4;stroke-linecap:round;stroke-linejoin:round;}
	.st12{fill:none;stroke:#FFFFFF;stroke-width:4;stroke-linejoin:round;}
	.st13{fill:none;stroke:#FF6633;stroke-width:6;stroke-miterlimit:10;}
	.st14{fill:none;stroke:#FF6633;stroke-width:6;stroke-miterlimit:10;stroke-dasharray:0,0,12,12;}
	.st15{fill:#FDFEFF;}
	.st16{fill:none;stroke:#FDFEFF;stroke-width:4;stroke-linecap:round;stroke-linejoin:round;}
</style>
<g id="Ebene_1_00000107570110576211025660000008433238418947840439_">
	
		<linearGradient id="SVGID_1_" gradientUnits="userSpaceOnUse" x1="0" y1="540" x2="1638" y2="540" gradientTransform="matrix(1 0 0 -1 0 1078)">
		<stop  offset="0" style="stop-color:#681E64"/>
		<stop  offset="0.16" style="stop-color:#591F62"/>
		<stop  offset="0.45" style="stop-color:#43225F"/>
		<stop  offset="0.74" style="stop-color:#36235E"/>
		<stop  offset="1" style="stop-color:#32245E"/>
	</linearGradient>
	<path class="st0" d="M20,0h1598c11,0,20,9,20,20v1036c0,11-9,20-20,20H20c-11,0-20-9-20-20V20C0,9,9,0,20,0z"/>
	<path class="st1" d="M518,353h1000c4.4,0,8,3.6,8,8v373c0,4.4-3.6,8-8,8H518c-4.4,0-8-3.6-8-8V361C510,356.6,513.6,353,518,353z"/>
	<path class="st2" d="M558.5,480.9h496c2.8,0,5,2.2,5,5V620c0,2.8-2.2,5-5,5h-496c-2.8,0-5-2.2-5-5V485.9
		C553.5,483.2,555.7,480.9,558.5,480.9z"/>
	<g class="st3">
		<path class="st4" d="M717.4,564.3c-1.9,0-3.4-0.5-4.5-1.5c-1.1-1-1.7-2.4-1.7-4.1c0-1.2,0.3-2.2,1-3.1c0.7-0.9,1.6-1.6,2.9-2.1
			c1.3-0.5,2.8-0.8,4.7-0.8l2.5,0v-1.4c0-0.9-0.3-1.7-0.8-2.2c-0.5-0.6-1.3-0.9-2.4-0.9c-0.6,0-1,0.1-1.5,0.2s-0.8,0.3-1.2,0.6
			l-0.4,2.5l-3.7,0l-0.1-4.9c1-0.6,2.1-1,3.2-1.4c1.2-0.4,2.5-0.5,3.9-0.5c2.5,0,4.4,0.6,5.9,1.7c1.4,1.2,2.2,2.8,2.2,4.9l0,7.8
			c0,0.3,0,0.5,0,0.8s0,0.5,0.1,0.7l2,0.3l0,3.1l-6.4,0c-0.1-0.3-0.3-0.7-0.4-1.1s-0.2-0.8-0.3-1.1c-0.6,0.8-1.3,1.4-2.2,1.9
			C719.4,564.1,718.5,564.3,717.4,564.3z M718.7,560.5c0.7,0,1.4-0.2,2-0.5c0.6-0.3,1.1-0.7,1.5-1.3l0-3l-2.5,0
			c-1.1,0-2,0.3-2.6,0.8c-0.6,0.5-0.9,1.1-0.9,1.9c0,0.7,0.2,1.2,0.6,1.6S718,560.5,718.7,560.5z"/>
	</g>
	<g class="st3">
		<path class="st4" d="M731.2,571.3l0-3.1l2.5-0.5l0-19.1l-2.7-0.5l0-3.1l7.5,0l0.2,2.2c0.6-0.8,1.2-1.5,2-1.9
			c0.8-0.4,1.7-0.7,2.8-0.7c1.5,0,2.8,0.4,3.9,1.3c1.1,0.8,1.9,2,2.5,3.5s0.9,3.3,0.9,5.3v0.4c0,1.9-0.3,3.5-0.9,4.9
			c-0.6,1.4-1.4,2.5-2.5,3.3c-1.1,0.8-2.4,1.2-4,1.2c-1,0-1.9-0.2-2.7-0.6c-0.8-0.4-1.4-0.9-2-1.6l0,5.5l2.5,0.5l0,3.1L731.2,571.3z
			 M741.9,560.4c1.3,0,2.3-0.5,2.9-1.5c0.6-1,0.9-2.3,0.9-4v-0.4c0-1.2-0.1-2.3-0.4-3.2c-0.3-0.9-0.7-1.6-1.2-2.1s-1.3-0.8-2.1-0.8
			c-0.7,0-1.3,0.2-1.9,0.5s-1,0.8-1.3,1.4l0,8.3c0.3,0.5,0.7,0.9,1.3,1.2S741.2,560.4,741.9,560.4z"/>
	</g>
	<g class="st3">
		<path class="st4" d="M752.6,571.3l0-3.1l2.5-0.5l0-19.1l-2.7-0.5l0-3.1l7.5,0l0.2,2.2c0.6-0.8,1.2-1.5,2-1.9
			c0.8-0.4,1.7-0.7,2.8-0.7c1.5,0,2.8,0.4,3.9,1.3c1.1,0.8,1.9,2,2.5,3.5s0.9,3.3,0.9,5.3v0.4c0,1.9-0.3,3.5-0.9,4.9
			c-0.6,1.4-1.4,2.5-2.5,3.3c-1.1,0.8-2.4,1.2-4,1.2c-1,0-1.9-0.2-2.7-0.6c-0.8-0.4-1.4-0.9-2-1.6l0,5.5l2.5,0.5l0,3.1L752.6,571.3z
			 M763.4,560.4c1.3,0,2.3-0.5,2.9-1.5c0.6-1,0.9-2.3,0.9-4v-0.4c0-1.2-0.1-2.3-0.4-3.2c-0.3-0.9-0.7-1.6-1.2-2.1s-1.3-0.8-2.1-0.8
			c-0.7,0-1.3,0.2-1.9,0.5s-1,0.8-1.3,1.4l0,8.3c0.3,0.5,0.7,0.9,1.3,1.2S762.6,560.4,763.4,560.4z"/>
	</g>
	<g class="st3">
		<path class="st4" d="M773.9,564l0-3.1l2.5-0.5l0-20.2l-2.7-0.5l0-3.1l7.9,0l0,23.8l2.5,0.5l0,3.1L773.9,564z"/>
		<path class="st4" d="M785.5,564l0-3.1l2.5-0.5l0-11.8l-2.7-0.5l0-3.1l7.9,0l0,15.4l2.5,0.5l0,3.1L785.5,564z M787.8,540.9l0-4.4
			l5.3,0l0,4.4L787.8,540.9z"/>
		<path class="st4" d="M806.2,564.3c-1.8,0-3.4-0.4-4.7-1.2c-1.3-0.8-2.4-2-3.1-3.4c-0.7-1.4-1.1-3.1-1.1-5v-0.5
			c0-1.9,0.4-3.5,1.1-5c0.7-1.4,1.8-2.6,3.1-3.4c1.3-0.8,2.9-1.2,4.7-1.2c1.7,0,3.2,0.3,4.4,0.8c1.2,0.5,2.2,1.2,3,1.9l0,5.4l-3.9,0
			l-0.7-3.4c-0.3-0.3-0.6-0.5-1.1-0.7s-0.9-0.3-1.3-0.3c-0.9,0-1.7,0.2-2.3,0.7s-1.1,1.1-1.4,2c-0.3,0.9-0.5,1.9-0.5,3.1v0.5
			c0,1.3,0.2,2.4,0.5,3.2s0.8,1.5,1.4,1.9s1.2,0.6,1.9,0.6c0.9,0,1.6-0.2,2.2-0.7c0.5-0.5,0.9-1.1,1.1-2l4.4,0l0.1,0.1
			c-0.2,1.3-0.6,2.5-1.2,3.5c-0.6,1-1.4,1.7-2.5,2.3S807.9,564.3,806.2,564.3z"/>
	</g>
	<g class="st3">
		<path class="st4" d="M822.7,564.3c-1.9,0-3.4-0.5-4.5-1.5c-1.1-1-1.7-2.4-1.7-4.1c0-1.2,0.3-2.2,1-3.1c0.7-0.9,1.6-1.6,2.9-2.1
			c1.3-0.5,2.8-0.8,4.7-0.8l2.5,0v-1.4c0-0.9-0.3-1.7-0.8-2.2c-0.5-0.6-1.3-0.9-2.4-0.9c-0.6,0-1,0.1-1.5,0.2s-0.8,0.3-1.2,0.6
			l-0.4,2.5l-3.7,0l-0.1-4.9c1-0.6,2.1-1,3.2-1.4c1.2-0.4,2.5-0.5,3.9-0.5c2.5,0,4.4,0.6,5.9,1.7c1.4,1.2,2.2,2.8,2.2,4.9l0,7.8
			c0,0.3,0,0.5,0,0.8s0,0.5,0.1,0.7l2,0.3v3.1l-6.4,0c-0.1-0.3-0.3-0.7-0.4-1.1s-0.2-0.8-0.3-1.1c-0.6,0.8-1.3,1.4-2.2,1.9
			C824.7,564.1,823.8,564.3,822.7,564.3z M824,560.5c0.7,0,1.4-0.2,2-0.5c0.6-0.3,1.1-0.7,1.5-1.3v-3l-2.5,0c-1.1,0-2,0.3-2.6,0.8
			s-0.9,1.1-0.9,1.9c0,0.7,0.2,1.2,0.6,1.6S823.3,560.5,824,560.5z"/>
	</g>
	<g class="st3">
		<path class="st4" d="M843.4,564.3c-1.8,0-3.1-0.5-4.1-1.5s-1.4-2.5-1.4-4.6l0-9.7h-2.6l0-3.6h2.6l0-4.7l5.1,0l0,4.7l3.5,0l0,3.6
			l-3.5,0l0,9.7c0,0.7,0.2,1.3,0.5,1.6s0.7,0.5,1.3,0.5c0.3,0,0.6,0,0.9-0.1c0.3,0,0.6-0.1,0.8-0.1l0.4,3.7
			c-0.5,0.2-1.1,0.3-1.7,0.4S844,564.3,843.4,564.3z"/>
	</g>
	<g class="st3">
		<path class="st4" d="M849.1,563.9l0-3.1l2.5-0.5l0-11.8l-2.7-0.5l0-3.1l7.9,0l0,15.4l2.5,0.5l0,3.1L849.1,563.9z M851.4,540.9
			l0-4.4l5.3,0l0,4.4L851.4,540.9z"/>
		<path class="st4" d="M870,564.3c-1.9,0-3.5-0.4-4.8-1.2c-1.3-0.8-2.4-2-3.1-3.4s-1.1-3.1-1.1-5v-0.4c0-1.9,0.4-3.6,1.1-5
			s1.7-2.6,3.1-3.4c1.3-0.8,2.9-1.2,4.8-1.2c1.9,0,3.5,0.4,4.8,1.2c1.3,0.8,2.4,2,3.1,3.4s1.1,3.1,1.1,5v0.4c0,1.9-0.4,3.6-1.1,5
			s-1.7,2.6-3.1,3.4C873.5,563.9,871.9,564.3,870,564.3z M870,560.4c0.9,0,1.6-0.2,2.2-0.7s1-1.2,1.2-2s0.4-1.9,0.4-3v-0.4
			c0-1.1-0.1-2.1-0.4-3c-0.3-0.9-0.7-1.5-1.3-2s-1.3-0.7-2.2-0.7c-0.9,0-1.6,0.2-2.2,0.7s-1,1.2-1.3,2c-0.3,0.9-0.4,1.9-0.4,3v0.4
			c0,1.1,0.1,2.2,0.4,3s0.7,1.5,1.3,2S869.1,560.4,870,560.4z"/>
		<path class="st4" d="M881,563.9l0-3.1l2.5-0.5l0-11.8l-2.7-0.5l0-3.1l7.5,0l0.2,2.7c0.6-1,1.4-1.7,2.3-2.3c0.9-0.5,2-0.8,3.2-0.8
			c1.9,0,3.4,0.6,4.4,1.8c1.1,1.2,1.6,3.1,1.6,5.7l0,8.3l2.5,0.5l0,3.1l-9.8,0l0-3.1l2.2-0.5l0-8.3c0-1.3-0.3-2.2-0.8-2.7
			s-1.3-0.8-2.2-0.8c-0.7,0-1.4,0.2-1.9,0.5s-1,0.8-1.4,1.3l0,10l2.1,0.5l0,3.1L881,563.9z"/>
	</g>
	<g>
		<path class="st4" d="M721.3,242.5c-1.9,0-3.4-0.5-4.5-1.5c-1.1-1-1.7-2.4-1.7-4.1c0-1.2,0.3-2.2,1-3.1c0.7-0.9,1.6-1.6,2.9-2.1
			s2.8-0.8,4.7-0.8h2.5v-1.4c0-0.9-0.3-1.7-0.8-2.2s-1.3-0.9-2.4-0.9c-0.5,0-1,0.1-1.5,0.2c-0.4,0.1-0.8,0.3-1.2,0.6l-0.4,2.5h-3.7
			l-0.1-4.9c1-0.6,2.1-1,3.2-1.4s2.5-0.5,3.9-0.5c2.5,0,4.5,0.6,5.9,1.7s2.2,2.8,2.2,4.9v7.8c0,0.3,0,0.5,0,0.8s0,0.5,0.1,0.7l2,0.3
			v3.1H727c-0.1-0.3-0.3-0.7-0.4-1.1s-0.2-0.8-0.3-1.1c-0.6,0.8-1.3,1.4-2.2,1.9S722.4,242.5,721.3,242.5L721.3,242.5z M722.7,238.7
			c0.7,0,1.4-0.2,2-0.5c0.6-0.3,1.1-0.8,1.5-1.3v-3h-2.5c-1.1,0-2,0.3-2.6,0.8s-0.9,1.1-0.9,1.9c0,0.7,0.2,1.2,0.6,1.6
			S721.9,238.7,722.7,238.7L722.7,238.7z"/>
		<path class="st4" d="M735.1,249.4v-3.1l2.5-0.5v-19.1l-2.8-0.5v-3.1h7.5l0.2,2.2c0.6-0.8,1.2-1.4,2-1.9s1.8-0.7,2.8-0.7
			c1.5,0,2.8,0.4,3.9,1.3s1.9,2,2.5,3.5s0.9,3.2,0.9,5.3v0.4c0,1.9-0.3,3.5-0.9,4.9c-0.6,1.4-1.4,2.5-2.5,3.3s-2.4,1.2-4,1.2
			c-1,0-1.9-0.2-2.7-0.6c-0.8-0.4-1.4-0.9-2-1.6v5.5l2.5,0.5v3.1L735.1,249.4L735.1,249.4z M745.8,238.6c1.3,0,2.3-0.5,2.9-1.5
			c0.6-1,0.9-2.3,0.9-4v-0.4c0-1.2-0.1-2.3-0.4-3.2c-0.3-0.9-0.7-1.6-1.2-2.1s-1.3-0.8-2.1-0.8c-0.7,0-1.3,0.2-1.8,0.5
			c-0.5,0.3-1,0.8-1.3,1.4v8.3c0.3,0.5,0.7,0.9,1.3,1.2C744.5,238.4,745.1,238.5,745.8,238.6L745.8,238.6z"/>
		<path class="st4" d="M756.5,249.4v-3.1l2.5-0.5v-19.1l-2.8-0.5v-3.1h7.5l0.2,2.2c0.6-0.8,1.2-1.4,2-1.9s1.8-0.7,2.8-0.7
			c1.5,0,2.8,0.4,3.9,1.3s1.9,2,2.5,3.5s0.9,3.2,0.9,5.3v0.4c0,1.9-0.3,3.5-0.9,4.9c-0.6,1.4-1.4,2.5-2.5,3.3s-2.4,1.2-4,1.2
			c-1,0-1.9-0.2-2.7-0.6c-0.8-0.4-1.4-0.9-2-1.6v5.5l2.5,0.5v3.1H756.5L756.5,249.4z M767.3,238.6c1.3,0,2.3-0.5,2.9-1.5
			c0.6-1,0.9-2.3,0.9-4v-0.4c0-1.2-0.1-2.3-0.4-3.1c-0.3-0.9-0.7-1.6-1.2-2.1s-1.3-0.8-2.1-0.8c-0.7,0-1.3,0.2-1.8,0.5
			s-1,0.8-1.3,1.4v8.3c0.3,0.5,0.7,0.9,1.3,1.2S766.6,238.6,767.3,238.6L767.3,238.6z"/>
		<path class="st4" d="M777.8,242.1V239l2.5-0.5v-20.2l-2.8-0.5v-3.1h7.9v23.8l2.5,0.5v3.1L777.8,242.1L777.8,242.1z"/>
		<path class="st4" d="M789.4,242.1V239l2.5-0.5v-11.8l-2.8-0.5v-3.1h7.9v15.4l2.5,0.5v3.1L789.4,242.1L789.4,242.1z M791.7,219.1
			v-4.4h5.3v4.4H791.7z"/>
		<path class="st4" d="M810.2,242.5c-1.8,0-3.4-0.4-4.7-1.2c-1.3-0.8-2.3-1.9-3.1-3.4c-0.7-1.4-1.1-3.1-1.1-5v-0.5
			c0-1.9,0.4-3.5,1.1-5c0.7-1.4,1.8-2.6,3.1-3.4c1.3-0.8,2.9-1.2,4.7-1.2c1.7,0,3.2,0.3,4.4,0.8s2.2,1.1,3,1.9l0,5.4h-3.9l-0.7-3.4
			c-0.3-0.3-0.6-0.5-1.1-0.7s-0.9-0.3-1.3-0.3c-0.9,0-1.7,0.2-2.3,0.7s-1.1,1.1-1.4,2c-0.3,0.9-0.5,1.9-0.5,3.1v0.5
			c0,1.3,0.2,2.4,0.5,3.2s0.8,1.5,1.4,1.9s1.2,0.6,1.9,0.6c0.9,0,1.6-0.2,2.2-0.7s0.9-1.1,1.1-2h4.4l0,0.1c-0.2,1.4-0.6,2.5-1.2,3.5
			c-0.6,1-1.4,1.7-2.5,2.3C813.2,242.2,811.8,242.5,810.2,242.5L810.2,242.5z"/>
		<path class="st4" d="M826.6,242.5c-1.9,0-3.4-0.5-4.5-1.5s-1.7-2.4-1.7-4.1c0-1.2,0.3-2.2,1-3.1c0.7-0.9,1.6-1.6,2.9-2.1
			s2.8-0.8,4.7-0.8h2.5v-1.4c0-0.9-0.3-1.7-0.8-2.2s-1.3-0.9-2.4-0.9c-0.5,0-1,0.1-1.5,0.2s-0.8,0.3-1.2,0.6l-0.4,2.5h-3.7l-0.1-4.9
			c1-0.6,2.1-1,3.2-1.4c1.2-0.4,2.5-0.5,3.9-0.5c2.5,0,4.5,0.6,5.9,1.7s2.2,2.8,2.2,4.9v7.8c0,0.3,0,0.5,0,0.8s0,0.5,0.1,0.7l2,0.3
			v3.1h-6.4c-0.1-0.3-0.3-0.7-0.4-1.1s-0.2-0.8-0.3-1.1c-0.6,0.8-1.3,1.4-2.2,1.9S827.7,242.5,826.6,242.5L826.6,242.5z M828,238.7
			c0.7,0,1.4-0.2,2-0.5c0.6-0.3,1.1-0.8,1.5-1.3v-3H829c-1.1,0-2,0.3-2.6,0.8s-0.9,1.1-0.9,1.9c0,0.7,0.2,1.2,0.6,1.6
			S827.2,238.7,828,238.7L828,238.7z"/>
		<path class="st4" d="M847.3,242.5c-1.8,0-3.1-0.5-4.1-1.5s-1.4-2.5-1.4-4.6v-9.7h-2.6v-3.6h2.6v-4.7h5.1v4.7h3.5v3.6h-3.5v9.7
			c0,0.7,0.2,1.3,0.5,1.6s0.7,0.5,1.3,0.5c0.3,0,0.6,0,0.9-0.1s0.6-0.1,0.8-0.1l0.4,3.7c-0.5,0.1-1.1,0.3-1.7,0.4
			S847.9,242.5,847.3,242.5L847.3,242.5z"/>
		<path class="st4" d="M853.1,242.1V239l2.5-0.5v-11.8l-2.8-0.5v-3.1h7.9v15.4l2.5,0.5v3.1L853.1,242.1L853.1,242.1z M855.4,219.1
			v-4.4h5.3v4.4H855.4z"/>
		<path class="st4" d="M873.9,242.5c-1.9,0-3.5-0.4-4.8-1.2c-1.3-0.8-2.4-2-3.1-3.4c-0.7-1.5-1.1-3.1-1.1-5v-0.4
			c0-1.9,0.4-3.6,1.1-5s1.7-2.6,3.1-3.4c1.3-0.8,2.9-1.2,4.8-1.2c1.9,0,3.5,0.4,4.8,1.2s2.4,2,3.1,3.4c0.7,1.4,1.1,3.1,1.1,5v0.4
			c0,1.9-0.4,3.6-1.1,5c-0.7,1.5-1.7,2.6-3.1,3.4S875.8,242.5,873.9,242.5z M873.9,238.5c0.9,0,1.6-0.2,2.2-0.7s1-1.1,1.2-2
			s0.4-1.9,0.4-3v-0.4c0-1.1-0.1-2.1-0.4-3c-0.3-0.9-0.7-1.5-1.3-2s-1.3-0.7-2.2-0.7s-1.6,0.2-2.2,0.7s-1,1.2-1.3,2
			c-0.3,0.9-0.4,1.9-0.4,3v0.4c0,1.1,0.1,2.2,0.4,3s0.7,1.5,1.3,2S873,238.5,873.9,238.5L873.9,238.5z"/>
		<path class="st4" d="M885,242.1V239l2.5-0.5v-11.8l-2.7-0.5v-3.1h7.5l0.2,2.7c0.6-1,1.4-1.7,2.3-2.3c0.9-0.5,2-0.8,3.2-0.8
			c1.9,0,3.4,0.6,4.4,1.8c1.1,1.2,1.6,3.1,1.6,5.7v8.3l2.5,0.5v3.1h-9.8V239l2.2-0.5v-8.3c0-1.3-0.2-2.2-0.8-2.7s-1.2-0.8-2.2-0.8
			c-0.7,0-1.4,0.2-1.9,0.5s-1,0.8-1.4,1.3v10l2.1,0.5v3.1L885,242.1L885,242.1z"/>
		<path class="st4" d="M766,285.7c-1.9,0-3.5-0.4-4.8-1.2c-1.3-0.8-2.4-2-3.1-3.4c-0.7-1.5-1.1-3.1-1.1-5v-0.4c0-1.9,0.4-3.6,1.1-5
			s1.7-2.6,3.1-3.4s2.9-1.2,4.8-1.2c1.9,0,3.5,0.4,4.8,1.2c1.3,0.8,2.4,2,3.1,3.4c0.7,1.5,1.1,3.1,1.1,5v0.4c0,1.9-0.4,3.6-1.1,5
			s-1.7,2.6-3.1,3.4S767.9,285.7,766,285.7L766,285.7z M766,281.8c0.9,0,1.6-0.2,2.2-0.7s1-1.1,1.2-2c0.3-0.9,0.4-1.9,0.4-3v-0.4
			c0-1.1-0.1-2.1-0.4-3s-0.7-1.5-1.3-2s-1.3-0.7-2.2-0.7c-0.9,0-1.6,0.2-2.2,0.7s-1,1.2-1.3,2s-0.4,1.9-0.4,3v0.4
			c0,1.1,0.1,2.2,0.4,3c0.3,0.9,0.7,1.5,1.3,2S765.1,281.7,766,281.8L766,281.8z"/>
		<path class="st4" d="M783,285.3l-4.4-15.5l-2.3-0.4v-3.1h9.2v3.1l-2,0.4l1.8,7.4l0.3,1.5h0.1l0.5-1.5l3.9-10.9h3.5l3.8,11l0.5,1.5
			h0.1l0.5-1.5l2.1-7.5l-2.2-0.4v-3.1h9v3.1l-2.2,0.4l-4.8,15.5h-4.3l-3.5-9.4l-0.6-2.1h-0.1l-0.6,2.1l-3.4,9.4L783,285.3L783,285.3
			z"/>
		<path class="st4" d="M808.6,285.3v-3.1l2.5-0.5v-11.8l-2.7-0.5v-3.1h7.5l0.2,2.7c0.6-1,1.4-1.7,2.3-2.3s2-0.8,3.2-0.8
			c1.9,0,3.4,0.6,4.4,1.8s1.6,3.1,1.6,5.7v8.3l2.5,0.5v3.1h-9.8v-3.1l2.2-0.5v-8.3c0-1.3-0.2-2.2-0.8-2.7s-1.2-0.8-2.2-0.8
			c-0.7,0-1.4,0.2-1.9,0.5s-1,0.8-1.4,1.3v10l2.1,0.5v3.1L808.6,285.3L808.6,285.3z"/>
		<path class="st4" d="M840.7,285.7c-1.8,0-3.4-0.4-4.8-1.2s-2.4-1.9-3.2-3.3c-0.7-1.4-1.1-3-1.1-4.8v-0.7c0-1.9,0.3-3.6,1-5
			s1.7-2.6,3-3.5s2.8-1.2,4.5-1.2c1.7,0,3.2,0.3,4.3,1s2.1,1.7,2.7,2.9c0.6,1.3,0.9,2.8,0.9,4.6v2.8h-11.2l0,0.1
			c0.1,0.8,0.3,1.6,0.6,2.2c0.3,0.6,0.8,1.2,1.5,1.5s1.4,0.5,2.3,0.5c0.9,0,1.8-0.1,2.6-0.4s1.6-0.6,2.4-1.1l1.4,3.2
			c-0.8,0.6-1.8,1.2-3,1.6S842.2,285.7,840.7,285.7L840.7,285.7z M837,273.9h6.3v-0.5c0-0.8-0.1-1.4-0.3-2s-0.5-1-1-1.3
			c-0.5-0.3-1-0.5-1.8-0.5s-1.2,0.2-1.7,0.5s-0.8,0.9-1.1,1.5C837.2,272.4,837,273.1,837,273.9L837,273.9L837,273.9z"/>
		<path class="st4" d="M850.9,285.3v-3.1l2.5-0.5v-11.8l-2.7-0.5v-3.1h7.5l0.2,2.4l0,0.4c0.5-1,1-1.8,1.7-2.3s1.5-0.8,2.5-0.8
			c0.3,0,0.6,0,1,0.1s0.7,0.1,1,0.2l-0.5,4.7l-2.5-0.1c-0.7,0-1.3,0.1-1.8,0.4s-0.8,0.7-1.2,1.2v9.3l2.5,0.5v3.1H850.9L850.9,285.3z
			"/>
	</g>
	<g class="st3">
		<path class="st4" d="M738.3,1001.4l0-3.1l2.5-0.5l0-19.1l-2.7-0.5l0-3.1l7.5,0l0.2,2.2c0.6-0.8,1.2-1.5,2-1.9
			c0.8-0.4,1.7-0.7,2.8-0.7c1.5,0,2.8,0.4,3.9,1.3c1.1,0.8,1.9,2,2.5,3.5c0.6,1.5,0.9,3.3,0.9,5.3v0.4c0,1.9-0.3,3.5-0.9,4.9
			c-0.6,1.4-1.4,2.5-2.5,3.3c-1.1,0.8-2.4,1.2-4,1.2c-1,0-1.9-0.2-2.7-0.6c-0.8-0.4-1.4-0.9-2-1.6l0,5.5l2.5,0.5l0,3.1L738.3,1001.4
			z M749.1,990.6c1.3,0,2.3-0.5,2.9-1.5c0.6-1,0.9-2.3,0.9-4v-0.4c0-1.2-0.1-2.3-0.4-3.2s-0.7-1.6-1.2-2.1s-1.3-0.8-2.1-0.8
			c-0.7,0-1.3,0.2-1.9,0.5s-1,0.8-1.3,1.4l0,8.3c0.3,0.5,0.7,0.9,1.3,1.2S748.4,990.6,749.1,990.6z"/>
	</g>
	<g class="st3">
		<path class="st4" d="M760.6,994.1l0-3.1l2.5-0.5l0-11.8l-2.7-0.5l0-3.1l7.5,0l0.2,2.4l0,0.4c0.5-1,1-1.8,1.7-2.3
			c0.7-0.5,1.5-0.8,2.5-0.8c0.3,0,0.6,0,1,0.1s0.7,0.1,1,0.2l-0.5,4.7l-2.5-0.1c-0.7,0-1.3,0.1-1.8,0.4s-0.9,0.7-1.2,1.2l0,9.3
			l2.5,0.5l0,3.1L760.6,994.1z"/>
	</g>
	<g class="st3">
		<path class="st4" d="M784.5,994.5c-1.9,0-3.5-0.4-4.8-1.2c-1.3-0.8-2.4-2-3.1-3.4s-1.1-3.1-1.1-5v-0.4c0-1.9,0.4-3.6,1.1-5
			s1.7-2.6,3.1-3.4c1.3-0.8,2.9-1.2,4.8-1.2c1.9,0,3.5,0.4,4.8,1.2c1.3,0.8,2.4,2,3.1,3.4s1.1,3.1,1.1,5v0.4c0,1.9-0.4,3.6-1.1,5
			s-1.7,2.6-3.1,3.4S786.4,994.5,784.5,994.5z M784.5,990.6c0.9,0,1.6-0.2,2.2-0.7s1-1.2,1.2-2s0.4-1.9,0.4-3v-0.4
			c0-1.1-0.1-2.1-0.4-3c-0.3-0.9-0.7-1.5-1.3-2s-1.3-0.7-2.2-0.7c-0.9,0-1.6,0.2-2.2,0.7s-1,1.2-1.3,2c-0.3,0.9-0.4,1.9-0.4,3v0.4
			c0,1.1,0.1,2.2,0.4,3s0.7,1.5,1.3,2S783.6,990.6,784.5,990.6z"/>
	</g>
	<g class="st3">
		<path class="st4" d="M802.3,994.1l-5.8-15.6l-2.1-0.3l0-3.1h9.2l0,3.1l-2,0.4l2.9,8.6l0.4,1.5h0.1l0.5-1.5l3.1-8.6l-2.3-0.4l0-3.1
			h9.2l0,3.1l-2.1,0.4l-6,15.6L802.3,994.1z"/>
		<path class="st4" d="M817,994.1l0-3.1l2.5-0.5l0-11.8l-2.7-0.5l0-3.1h7.9l0,15.4l2.5,0.5v3.1H817z M819.3,971.1l0-4.4h5.3v4.4
			H819.3z"/>
		<path class="st4" d="M836.1,994.5c-1.5,0-2.8-0.4-3.9-1.2c-1.1-0.8-1.9-1.9-2.5-3.3s-0.9-3-0.9-4.9v-0.4c0-2,0.3-3.8,0.9-5.3
			s1.4-2.7,2.5-3.5c1.1-0.8,2.4-1.3,3.9-1.3c1,0,2,0.2,2.7,0.6c0.8,0.4,1.5,1,2,1.8l0-6.8l-2.7-0.5v-3.1l2.7,0h5.1l0,23.8l2.5,0.5
			v3.1h-6.9l-0.4-2.3c-0.6,0.9-1.3,1.5-2.1,2C838.2,994.3,837.2,994.5,836.1,994.5z M837.6,990.5c0.7,0,1.3-0.2,1.9-0.5
			s1-0.7,1.4-1.3l0-8.1c-0.4-0.6-0.8-1.1-1.3-1.4s-1.2-0.5-1.9-0.5c-0.9,0-1.6,0.3-2.1,0.8s-0.9,1.2-1.2,2.1c-0.3,0.9-0.4,2-0.4,3.1
			v0.4c0,1.7,0.3,3,0.8,3.9S836.3,990.5,837.6,990.5z"/>
		<path class="st4" d="M859.2,994.5c-1.8,0-3.4-0.4-4.8-1.2c-1.4-0.8-2.4-1.9-3.2-3.3c-0.7-1.4-1.1-3-1.1-4.8v-0.7
			c0-1.9,0.4-3.6,1.1-5s1.7-2.6,3-3.4s2.8-1.3,4.5-1.2c1.7,0,3.2,0.3,4.3,1c1.2,0.7,2.1,1.7,2.7,2.9s0.9,2.8,0.9,4.6l0,2.8l-11.2,0
			l0,0.1c0.1,0.8,0.3,1.6,0.6,2.2s0.8,1.2,1.5,1.5s1.4,0.6,2.3,0.6c0.9,0,1.8-0.1,2.6-0.4s1.6-0.6,2.4-1.1l1.4,3.2
			c-0.8,0.6-1.8,1.2-3,1.6S860.7,994.5,859.2,994.5z M855.5,982.7l6.3,0v-0.5c0-0.8-0.1-1.4-0.3-2s-0.5-1-1-1.3s-1-0.5-1.7-0.5
			c-0.7,0-1.3,0.2-1.7,0.5s-0.8,0.8-1.1,1.5C855.7,981.2,855.5,981.9,855.5,982.7L855.5,982.7z"/>
		<path class="st4" d="M869.4,994.1V991l2.5-0.5l0-11.8l-2.7-0.5l0-3.1l7.5,0l0.2,2.4l0,0.4c0.5-1,1-1.8,1.7-2.3
			c0.7-0.5,1.5-0.8,2.5-0.8c0.3,0,0.6,0,1,0.1s0.7,0.1,1,0.2l-0.5,4.7l-2.5-0.1c-0.7,0-1.3,0.1-1.8,0.4s-0.9,0.7-1.2,1.2l0,9.3
			l2.5,0.5v3.1L869.4,994.1z"/>
	</g>
	<g class="st3">
		<path class="st4" d="M93.6,654.5c-1.9,0-3.4-0.5-4.5-1.5c-1.1-1-1.7-2.4-1.7-4.1c0-1.2,0.3-2.2,1-3.1c0.7-0.9,1.6-1.6,2.9-2.1
			c1.3-0.5,2.8-0.8,4.7-0.8l2.5,0v-1.4c0-0.9-0.3-1.7-0.8-2.2c-0.5-0.6-1.3-0.9-2.4-0.9c-0.6,0-1,0.1-1.5,0.2s-0.8,0.3-1.2,0.6
			l-0.4,2.5l-3.7,0l-0.1-4.9c1-0.6,2.1-1,3.2-1.4c1.2-0.4,2.5-0.5,3.9-0.5c2.5,0,4.4,0.6,5.9,1.7c1.4,1.2,2.2,2.8,2.2,4.9l0,7.8
			c0,0.3,0,0.5,0,0.8s0,0.5,0.1,0.7l2,0.3l0,3.1l-6.4,0c-0.1-0.3-0.3-0.7-0.4-1.1s-0.2-0.8-0.3-1.1c-0.6,0.8-1.3,1.4-2.2,1.9
			C95.7,654.3,94.7,654.5,93.6,654.5z M95,650.7c0.7,0,1.4-0.2,2-0.5c0.6-0.3,1.1-0.7,1.5-1.3l0-3l-2.5,0c-1.1,0-2,0.3-2.6,0.8
			c-0.6,0.5-0.9,1.1-0.9,1.9c0,0.7,0.2,1.2,0.6,1.6S94.2,650.7,95,650.7z"/>
		<path class="st4" d="M114.8,654.5c-1.5,0-2.8-0.4-3.9-1.2s-1.9-1.9-2.5-3.3c-0.6-1.4-0.9-3-0.9-4.9v-0.4c0-2,0.3-3.8,0.9-5.3
			c0.6-1.5,1.4-2.7,2.5-3.5c1.1-0.8,2.4-1.3,3.9-1.3c1,0,2,0.2,2.7,0.6c0.8,0.4,1.5,1,2,1.8l0-6.8l-2.7-0.5l0-3.1h2.7l5.1,0l0,23.8
			l2.5,0.5l0,3.1l-6.9,0l-0.4-2.3c-0.6,0.9-1.3,1.5-2.1,2S115.9,654.5,114.8,654.5z M116.3,650.5c0.7,0,1.3-0.2,1.9-0.5
			s1-0.7,1.4-1.3l0-8.1c-0.4-0.6-0.8-1.1-1.3-1.4s-1.2-0.5-1.9-0.5c-0.9,0-1.6,0.3-2.1,0.8c-0.5,0.5-0.9,1.2-1.2,2.1
			c-0.3,0.9-0.4,2-0.4,3.1v0.4c0,1.7,0.3,3,0.8,3.9C114.1,650,115,650.5,116.3,650.5z"/>
	</g>
	<g class="st3">
		<path class="st4" d="M135.9,654.1l-5.8-15.6l-2.1-0.3l0-3.1l9.2,0l0,3.1l-2,0.4l2.9,8.6l0.4,1.5h0.1l0.5-1.5l3.1-8.6l-2.3-0.4
			l0-3.1l9.2,0l0,3.1l-2.1,0.4l-6,15.6L135.9,654.1z"/>
	</g>
	<g class="st3">
		<path class="st4" d="M159.5,654.5c-1.8,0-3.4-0.4-4.8-1.2c-1.4-0.8-2.4-1.9-3.2-3.3c-0.7-1.4-1.1-3-1.1-4.8v-0.7
			c0-1.9,0.4-3.6,1.1-5c0.7-1.5,1.7-2.6,3-3.4c1.3-0.8,2.8-1.3,4.5-1.2c1.7,0,3.2,0.3,4.3,1c1.2,0.7,2.1,1.7,2.7,2.9
			c0.6,1.3,0.9,2.8,0.9,4.6l0,2.8l-11.2,0l0,0.1c0.1,0.8,0.3,1.6,0.6,2.2s0.8,1.2,1.5,1.5s1.4,0.6,2.3,0.6c0.9,0,1.8-0.1,2.6-0.4
			s1.6-0.6,2.4-1.1l1.4,3.2c-0.8,0.6-1.8,1.2-3,1.6S161,654.5,159.5,654.5z M155.8,642.7l6.3,0v-0.5c0-0.8-0.1-1.4-0.3-2
			s-0.5-1-1-1.3s-1-0.5-1.7-0.5c-0.7,0-1.3,0.2-1.7,0.5s-0.8,0.8-1.1,1.5C156,641.2,155.8,641.9,155.8,642.7L155.8,642.7z"/>
		<path class="st4" d="M169.7,654.1l0-3.1l2.5-0.5l0-11.8l-2.7-0.5l0-3.1l7.5,0l0.2,2.4l0,0.4c0.5-1,1-1.8,1.7-2.3
			c0.7-0.5,1.5-0.8,2.5-0.8c0.3,0,0.6,0,1,0.1c0.4,0.1,0.7,0.1,1,0.2l-0.5,4.7l-2.5-0.1c-0.7,0-1.3,0.1-1.8,0.4s-0.9,0.7-1.2,1.2
			l0,9.3l2.5,0.5l0,3.1L169.7,654.1z"/>
		<path class="st4" d="M193.1,654.5c-1.4,0-2.7-0.1-4-0.4c-1.2-0.3-2.4-0.7-3.5-1.2l-0.1-5.4l3.6,0l0.7,2.7c0.4,0.2,0.8,0.4,1.3,0.5
			s1,0.2,1.6,0.2c1.1,0,2-0.2,2.4-0.6s0.7-0.8,0.7-1.4c0-0.5-0.2-1-0.7-1.4s-1.5-0.8-3-1.1c-2.2-0.5-3.9-1.2-5-2.2
			c-1.1-1-1.6-2.2-1.6-3.8c0-1.1,0.3-2,0.8-2.9c0.5-0.9,1.3-1.6,2.4-2.1c1.1-0.5,2.5-0.8,4.2-0.8c1.4,0,2.7,0.1,3.9,0.4
			c1.2,0.3,2.2,0.6,3,1.1l0.1,5.2l-3.6,0l-0.5-2.5c-0.3-0.2-0.7-0.4-1.1-0.5s-0.9-0.2-1.5-0.2c-0.9,0-1.6,0.2-2.1,0.5
			s-0.7,0.8-0.7,1.4c0,0.3,0.1,0.6,0.3,0.9c0.2,0.3,0.5,0.5,1,0.8s1.2,0.5,2.2,0.7c2.4,0.5,4.1,1.3,5.2,2.2c1.1,0.9,1.6,2.2,1.6,3.8
			c0,1.8-0.6,3.2-1.9,4.3C197.5,653.9,195.6,654.5,193.1,654.5z"/>
		<path class="st4" d="M209.4,654.5c-1.9,0-3.4-0.5-4.5-1.5c-1.1-1-1.7-2.4-1.7-4.1c0-1.2,0.3-2.2,1-3.1c0.7-0.9,1.6-1.6,2.9-2.1
			c1.3-0.5,2.8-0.8,4.7-0.8h2.5v-1.4c0-0.9-0.3-1.7-0.8-2.2s-1.3-0.9-2.4-0.9c-0.6,0-1,0.1-1.5,0.2s-0.8,0.3-1.2,0.6l-0.4,2.5
			l-3.7,0l-0.1-4.9c1-0.6,2.1-1,3.2-1.4c1.2-0.4,2.5-0.5,3.9-0.5c2.5,0,4.4,0.6,5.9,1.7c1.4,1.2,2.2,2.8,2.2,4.9l0,7.8
			c0,0.3,0,0.5,0,0.8s0,0.5,0.1,0.7l2,0.3l0,3.1l-6.4,0c-0.1-0.3-0.3-0.7-0.4-1.1s-0.2-0.8-0.3-1.1c-0.6,0.8-1.3,1.4-2.2,1.9
			S210.6,654.5,209.4,654.5z M210.8,650.7c0.7,0,1.4-0.2,2-0.5s1.1-0.7,1.5-1.3l0-3h-2.5c-1.1,0-2,0.3-2.6,0.8
			c-0.6,0.5-0.9,1.1-0.9,1.9c0,0.7,0.2,1.2,0.6,1.6S210,650.7,210.8,650.7z"/>
	</g>
	<g class="st3">
		<path class="st4" d="M223.7,654.1l0-3.1l2.5-0.5l0-11.8l-2.7-0.5l0-3.1l7.5,0l0.2,2.4l0,0.4c0.5-1,1-1.8,1.7-2.3
			c0.7-0.5,1.5-0.8,2.5-0.8c0.3,0,0.6,0,1,0.1s0.7,0.1,1,0.2l-0.5,4.7l-2.5-0.1c-0.7,0-1.3,0.1-1.8,0.4s-0.9,0.7-1.2,1.2l0,9.3
			l2.5,0.5l0,3.1L223.7,654.1z"/>
	</g>
	<g class="st3">
		<path class="st4" d="M244.5,661.8c-0.4,0-0.9,0-1.4-0.1s-1-0.2-1.4-0.3l0.6-3.8c0.2,0,0.5,0.1,0.7,0.1s0.5,0,0.7,0
			c0.7,0,1.4-0.2,1.9-0.6s0.9-0.9,1.2-1.7l0.4-1.2l-6.4-15.8l-2.3-0.3l0-3.1l10.1,0l0,3.1l-2.3,0.4l3,8.4l0.4,1h0.1l3.5-9.5
			l-2.3-0.3l0-3.1l9.4,0l0,3.1l-2.1,0.3l-7.3,18.5c-0.4,0.9-0.8,1.7-1.3,2.4c-0.5,0.7-1.2,1.3-2.1,1.8S245.7,661.8,244.5,661.8z"/>
	</g>
	<g>
		<path class="st2" d="M1221.5,543.4V562l0,0v0.3l0,0c0.6,5.1,14.2,9.1,30.4,9.1s29.8-4,30.4-9.1l0,0V562h0.3c0-0.1,0-0.1,0,0v-18.6
			"/>
		<path class="st2" d="M1221.5,563v18.6l0,0v0.3l0,0c0.6,5.1,14.2,9.1,30.4,9.1s29.8-4,30.4-9.1l0,0v-0.3h0.3c0-0.1,0-0.1,0,0V563"
			/>
		<path class="st2" d="M1221.5,524.7v18.6l0,0v0.3l0,0c0.6,5.1,14.2,9.1,30.4,9.1s29.8-4,30.4-9.1l0,0v-0.3h0.3c0-0.1,0-0.1,0,0
			v-18.6"/>
		<ellipse class="st2" cx="1252.1" cy="524.9" rx="30.7" ry="9.5"/>
	</g>
	<g>
		<polyline class="st5" points="1273.9,436.7 1294,451.3 1273.9,466 		"/>
		<polyline class="st5" points="1230.3,466 1210.2,451.3 1230.3,436.7 		"/>
		<line class="st5" x1="1260.1" y1="428.5" x2="1244.2" y2="474.8"/>
	</g>
	<g>
		<path class="st6" d="M1225.4,654.4c-2.7,0-5-2.2-5-5s2.2-5,5-5s5,2.2,5,5S1228.2,654.4,1225.4,654.4z"/>
		<path class="st7" d="M1288.5,647.8H1248c-2-8.2-9.4-14.3-18.2-14.3c-10.4,0-18.8,8.4-18.8,18.8s8.4,18.8,18.8,18.8
			c8.8,0,16.2-6.1,18.2-14.3h11.8l5.4,5.4l5.4-5.4h0.7l3.4,3.4l3.2-3.2l5.2,5.2l5.8-5.8l4.3-3.9L1288.5,647.8L1288.5,647.8z"/>
	</g>
	<g class="st3">
		<path class="st4" d="M1358.8,469.8c-1.8,0-3.4-0.4-4.7-1.2c-1.3-0.8-2.4-2-3.1-3.4c-0.7-1.4-1.1-3.1-1.1-5v-0.5
			c0-1.9,0.4-3.5,1.1-5c0.7-1.4,1.8-2.6,3.1-3.4c1.3-0.8,2.9-1.2,4.7-1.2c1.7,0,3.2,0.3,4.4,0.8s2.2,1.2,3,1.9l0,5.4l-3.9,0
			l-0.7-3.4c-0.3-0.3-0.6-0.5-1.1-0.7s-0.9-0.3-1.3-0.3c-0.9,0-1.7,0.2-2.3,0.7s-1.1,1.1-1.4,2s-0.5,1.9-0.5,3.1v0.5
			c0,1.3,0.2,2.4,0.5,3.2s0.8,1.5,1.4,1.9s1.2,0.6,1.9,0.6c0.9,0,1.6-0.2,2.2-0.7c0.5-0.5,0.9-1.1,1.1-2l4.4,0l0.1,0.1
			c-0.2,1.3-0.6,2.5-1.2,3.5c-0.6,1-1.4,1.7-2.5,2.3S1360.4,469.8,1358.8,469.8z"/>
	</g>
	<g class="st3">
		<path class="st4" d="M1377.9,469.8c-1.9,0-3.5-0.4-4.8-1.2c-1.3-0.8-2.4-2-3.1-3.4s-1.1-3.1-1.1-5v-0.4c0-1.9,0.4-3.6,1.1-5
			s1.7-2.6,3.1-3.4c1.3-0.8,2.9-1.2,4.8-1.2c1.9,0,3.5,0.4,4.8,1.2c1.3,0.8,2.4,2,3.1,3.4s1.1,3.1,1.1,5v0.4c0,1.9-0.4,3.6-1.1,5
			s-1.7,2.6-3.1,3.4S1379.8,469.8,1377.9,469.8z M1377.9,465.9c0.9,0,1.6-0.2,2.2-0.7s1-1.2,1.2-2s0.4-1.9,0.4-3v-0.4
			c0-1.1-0.1-2.1-0.4-3c-0.3-0.9-0.7-1.5-1.3-2s-1.3-0.7-2.2-0.7c-0.9,0-1.6,0.2-2.2,0.7s-1,1.2-1.3,2c-0.3,0.9-0.4,1.9-0.4,3v0.4
			c0,1.1,0.1,2.2,0.4,3s0.7,1.5,1.3,2S1377,465.9,1377.9,465.9z"/>
	</g>
	<g class="st3">
		<path class="st4" d="M1396.6,469.8c-1.5,0-2.8-0.4-3.9-1.2c-1.1-0.8-1.9-1.9-2.5-3.3c-0.6-1.4-0.9-3-0.9-4.9v-0.4
			c0-2,0.3-3.8,0.9-5.3c0.6-1.5,1.4-2.7,2.5-3.5c1.1-0.8,2.4-1.3,3.9-1.3c1,0,2,0.2,2.7,0.6c0.8,0.4,1.5,1,2,1.8l0-6.8l-2.7-0.5
			l0-3.1l2.7,0l5.1,0l0,23.8l2.5,0.5v3.1l-6.9,0l-0.4-2.3c-0.6,0.9-1.3,1.5-2.1,2C1398.7,469.6,1397.8,469.8,1396.6,469.8z
			 M1398.2,465.8c0.7,0,1.3-0.2,1.9-0.5s1-0.7,1.4-1.3l0-8.1c-0.4-0.6-0.8-1.1-1.3-1.4s-1.2-0.5-1.9-0.5c-0.9,0-1.6,0.3-2.1,0.8
			s-0.9,1.2-1.2,2.1s-0.4,2-0.4,3.1v0.4c0,1.7,0.3,3,0.8,3.9C1395.9,465.3,1396.9,465.8,1398.2,465.8z"/>
		<path class="st4" d="M1419.7,469.8c-1.8,0-3.4-0.4-4.8-1.2c-1.4-0.8-2.4-1.9-3.2-3.3c-0.7-1.4-1.1-3-1.1-4.8v-0.7
			c0-1.9,0.4-3.6,1.1-5c0.7-1.5,1.7-2.6,3-3.4s2.8-1.3,4.5-1.2c1.7,0,3.2,0.3,4.3,1s2.1,1.7,2.7,2.9c0.6,1.3,0.9,2.8,0.9,4.6l0,2.8
			l-11.2,0l0,0.1c0.1,0.8,0.3,1.6,0.6,2.2s0.8,1.2,1.5,1.5s1.4,0.6,2.3,0.6c0.9,0,1.8-0.1,2.6-0.4s1.6-0.6,2.4-1.1l1.4,3.2
			c-0.8,0.6-1.8,1.2-3,1.6S1421.3,469.8,1419.7,469.8z M1416.1,458.1l6.3,0v-0.5c0-0.8-0.1-1.4-0.3-2s-0.5-1-1-1.3s-1-0.5-1.7-0.5
			c-0.7,0-1.3,0.2-1.7,0.5s-0.8,0.8-1.1,1.5S1416.1,457.2,1416.1,458.1L1416.1,458.1z"/>
	</g>
	<g class="st3">
		<path class="st4" d="M1357.1,568.8c-1.5,0-2.8-0.4-3.9-1.2c-1.1-0.8-1.9-1.9-2.5-3.3c-0.6-1.4-0.9-3-0.9-4.9v-0.4
			c0-2,0.3-3.8,0.9-5.3c0.6-1.5,1.4-2.7,2.5-3.5c1.1-0.8,2.4-1.3,3.9-1.3c1,0,2,0.2,2.7,0.6c0.8,0.4,1.5,1,2,1.8l0-6.8l-2.7-0.5
			l0-3.1l2.7,0l5.1,0l0,23.8l2.5,0.5v3.1l-6.9,0l-0.4-2.3c-0.6,0.9-1.3,1.5-2.1,2C1359.2,568.6,1358.3,568.8,1357.1,568.8z
			 M1358.7,564.8c0.7,0,1.3-0.2,1.9-0.5s1-0.7,1.4-1.3l0-8.1c-0.4-0.6-0.8-1.1-1.3-1.4s-1.2-0.5-1.9-0.5c-0.9,0-1.6,0.3-2.1,0.8
			s-0.9,1.2-1.2,2.1s-0.4,2-0.4,3.1v0.4c0,1.7,0.3,3,0.8,3.9C1356.4,564.3,1357.4,564.8,1358.7,564.8z"/>
	</g>
	<g class="st3">
		<path class="st4" d="M1377.5,568.8c-1.9,0-3.4-0.5-4.5-1.5s-1.7-2.4-1.7-4.1c0-1.2,0.3-2.2,1-3.1s1.6-1.6,2.9-2.1
			c1.3-0.5,2.8-0.8,4.7-0.8l2.5,0v-1.4c0-0.9-0.3-1.7-0.8-2.2c-0.5-0.6-1.3-0.9-2.4-0.9c-0.6,0-1,0.1-1.5,0.2s-0.8,0.3-1.2,0.6
			l-0.4,2.5l-3.7,0l-0.1-4.9c1-0.6,2.1-1,3.2-1.4c1.2-0.4,2.5-0.5,3.9-0.5c2.5,0,4.4,0.6,5.9,1.7c1.4,1.2,2.2,2.8,2.2,4.9l0,7.8
			c0,0.3,0,0.5,0,0.8s0,0.5,0.1,0.7l2,0.3v3.1l-6.4,0c-0.1-0.3-0.3-0.7-0.4-1.1s-0.2-0.8-0.3-1.1c-0.6,0.8-1.3,1.4-2.2,1.9
			C1379.6,568.6,1378.6,568.8,1377.5,568.8z M1378.9,565c0.7,0,1.4-0.2,2-0.5c0.6-0.3,1.1-0.7,1.5-1.3v-3l-2.5,0
			c-1.1,0-2,0.3-2.6,0.8s-0.9,1.1-0.9,1.9c0,0.7,0.2,1.2,0.6,1.6S1378.1,565,1378.9,565z"/>
	</g>
	<g class="st3">
		<path class="st4" d="M1398.3,568.8c-1.8,0-3.1-0.5-4.1-1.5s-1.4-2.5-1.4-4.6l0-9.7h-2.6l0-3.6h2.6l0-4.7l5.1,0l0,4.7l3.5,0l0,3.6
			l-3.5,0l0,9.7c0,0.7,0.2,1.3,0.5,1.6s0.7,0.5,1.3,0.5c0.3,0,0.6,0,0.9-0.1c0.3,0,0.6-0.1,0.8-0.1l0.4,3.7
			c-0.5,0.2-1.1,0.3-1.7,0.4S1398.9,568.8,1398.3,568.8z"/>
		<path class="st4" d="M1410.1,568.8c-1.9,0-3.4-0.5-4.5-1.5c-1.1-1-1.7-2.4-1.7-4.1c0-1.2,0.3-2.2,1-3.1s1.6-1.6,2.9-2.1
			c1.3-0.5,2.8-0.8,4.7-0.8h2.5v-1.4c0-0.9-0.3-1.7-0.8-2.2s-1.3-0.9-2.4-0.9c-0.6,0-1,0.1-1.5,0.2s-0.8,0.3-1.2,0.6l-0.4,2.5
			l-3.7,0l-0.1-4.9c1-0.6,2.1-1,3.2-1.4s2.5-0.5,3.9-0.5c2.5,0,4.4,0.6,5.9,1.7c1.4,1.2,2.2,2.8,2.2,4.9l0,7.8c0,0.3,0,0.5,0,0.8
			s0,0.5,0.1,0.7l2,0.3v3.1l-6.4,0c-0.1-0.3-0.3-0.7-0.4-1.1s-0.2-0.8-0.3-1.1c-0.6,0.8-1.3,1.4-2.2,1.9S1411.2,568.8,1410.1,568.8z
			 M1411.4,565c0.7,0,1.4-0.2,2-0.5s1.1-0.7,1.5-1.3v-3h-2.5c-1.1,0-2,0.3-2.6,0.8s-0.9,1.1-0.9,1.9c0,0.7,0.2,1.2,0.6,1.6
			S1410.7,565,1411.4,565z"/>
	</g>
	<g class="st3">
		<path class="st4" d="M1358,667.8c-1.4,0-2.7-0.1-4-0.4c-1.2-0.3-2.4-0.7-3.5-1.2l-0.1-5.4h3.6l0.7,2.7c0.4,0.2,0.8,0.4,1.3,0.5
			s1,0.2,1.6,0.2c1.1,0,2-0.2,2.4-0.6c0.5-0.4,0.7-0.8,0.7-1.4c0-0.5-0.2-1-0.7-1.4c-0.5-0.4-1.5-0.8-3-1.1c-2.2-0.5-3.9-1.2-5-2.2
			c-1.1-1-1.6-2.2-1.6-3.8c0-1.1,0.3-2,0.8-2.9c0.5-0.9,1.3-1.6,2.4-2.1c1.1-0.5,2.5-0.8,4.2-0.8c1.4,0,2.7,0.1,3.9,0.4
			s2.2,0.6,3,1.1l0.1,5.2h-3.6l-0.5-2.5c-0.3-0.2-0.7-0.4-1.1-0.5c-0.4-0.1-0.9-0.2-1.5-0.2c-0.9,0-1.6,0.2-2.1,0.5
			s-0.7,0.8-0.7,1.4c0,0.3,0.1,0.6,0.3,0.9s0.5,0.5,1,0.8s1.2,0.5,2.2,0.7c2.4,0.5,4.1,1.3,5.2,2.2s1.6,2.2,1.6,3.8
			c0,1.8-0.6,3.2-1.9,4.3S1360.5,667.8,1358,667.8z"/>
		<path class="st4" d="M1377.1,667.8c-1.8,0-3.4-0.4-4.8-1.2c-1.4-0.8-2.4-1.9-3.2-3.3c-0.7-1.4-1.1-3-1.1-4.8v-0.7
			c0-1.9,0.4-3.6,1.1-5c0.7-1.5,1.7-2.6,3-3.4c1.3-0.8,2.8-1.3,4.5-1.2c1.7,0,3.2,0.3,4.3,1s2.1,1.7,2.7,2.9
			c0.6,1.3,0.9,2.8,0.9,4.6l0,2.8l-11.2,0l0,0.1c0.1,0.8,0.3,1.6,0.6,2.2s0.8,1.2,1.5,1.5s1.4,0.6,2.3,0.6c0.9,0,1.8-0.1,2.6-0.4
			s1.6-0.6,2.4-1.1l1.4,3.2c-0.8,0.6-1.8,1.2-3,1.6C1380,667.6,1378.6,667.8,1377.1,667.8z M1373.4,656.1l6.3,0v-0.5
			c0-0.8-0.1-1.4-0.3-2s-0.5-1-1-1.3s-1-0.5-1.7-0.5c-0.7,0-1.3,0.2-1.7,0.5s-0.8,0.8-1.1,1.5S1373.5,655.2,1373.4,656.1
			L1373.4,656.1z"/>
		<path class="st4" d="M1395.9,667.8c-1.8,0-3.4-0.4-4.7-1.2s-2.4-2-3.1-3.4c-0.7-1.4-1.1-3.1-1.1-5v-0.5c0-1.9,0.4-3.5,1.1-5
			c0.7-1.4,1.8-2.6,3.1-3.4s2.9-1.2,4.7-1.2c1.7,0,3.2,0.3,4.4,0.8s2.2,1.2,3,1.9l0,5.4h-3.9l-0.7-3.4c-0.3-0.3-0.6-0.5-1.1-0.7
			s-0.9-0.3-1.3-0.3c-0.9,0-1.7,0.2-2.3,0.7c-0.6,0.5-1.1,1.1-1.4,2s-0.5,1.9-0.5,3.1v0.5c0,1.3,0.2,2.4,0.5,3.2s0.8,1.5,1.4,1.9
			s1.2,0.6,1.9,0.6c0.9,0,1.6-0.2,2.2-0.7c0.5-0.5,0.9-1.1,1.1-2h4.4l0.1,0.1c-0.2,1.3-0.6,2.5-1.2,3.5s-1.4,1.7-2.5,2.3
			C1398.9,667.5,1397.6,667.8,1395.9,667.8z"/>
	</g>
	<g class="st3">
		<path class="st4" d="M1406.4,667.4v-3.1l2.5-0.5l0-11.8l-2.7-0.5l0-3.1l7.5,0l0.2,2.4l0,0.4c0.5-1,1-1.8,1.7-2.3
			c0.7-0.5,1.5-0.8,2.5-0.8c0.3,0,0.6,0,1,0.1s0.7,0.1,1,0.2l-0.5,4.7l-2.5-0.1c-0.7,0-1.3,0.1-1.8,0.4s-0.9,0.7-1.2,1.2l0,9.3
			l2.5,0.5v3.1L1406.4,667.4z"/>
	</g>
	<g class="st3">
		<path class="st4" d="M1430.3,667.8c-1.8,0-3.4-0.4-4.8-1.2c-1.4-0.8-2.4-1.9-3.2-3.3s-1.1-3-1.1-4.8v-0.7c0-1.9,0.4-3.6,1.1-5
			c0.7-1.5,1.7-2.6,3-3.4c1.3-0.8,2.8-1.3,4.5-1.2c1.7,0,3.2,0.3,4.3,1c1.2,0.7,2.1,1.7,2.7,2.9c0.6,1.3,0.9,2.8,0.9,4.6v2.8
			l-11.2,0l0,0.1c0.1,0.8,0.3,1.6,0.6,2.2s0.8,1.2,1.5,1.5s1.4,0.6,2.3,0.6c0.9,0,1.8-0.1,2.6-0.4s1.6-0.6,2.4-1.1l1.4,3.2
			c-0.8,0.6-1.8,1.2-3,1.6S1431.8,667.8,1430.3,667.8z M1426.6,656.1l6.3,0v-0.5c0-0.8-0.1-1.4-0.3-2s-0.5-1-1-1.3s-1-0.5-1.7-0.5
			c-0.7,0-1.3,0.2-1.7,0.5s-0.8,0.8-1.1,1.5C1426.8,654.5,1426.7,655.2,1426.6,656.1L1426.6,656.1z"/>
		<path class="st4" d="M1447.6,667.8c-1.8,0-3.1-0.5-4.1-1.5c-1-1-1.4-2.5-1.4-4.6l0-9.7h-2.6l0-3.6h2.6v-4.7l5.1,0v4.7l3.5,0l0,3.6
			l-3.5,0l0,9.7c0,0.7,0.2,1.3,0.5,1.6c0.3,0.3,0.7,0.5,1.3,0.5c0.3,0,0.6,0,0.9-0.1s0.6-0.1,0.8-0.1l0.4,3.7
			c-0.5,0.2-1.1,0.3-1.7,0.4S1448.2,667.8,1447.6,667.8z"/>
		<path class="st4" d="M1461.2,667.8c-1.4,0-2.7-0.1-4-0.4s-2.4-0.7-3.5-1.2l-0.1-5.4h3.6l0.7,2.7c0.4,0.2,0.8,0.4,1.3,0.5
			c0.5,0.1,1,0.2,1.6,0.2c1.1,0,2-0.2,2.4-0.6s0.7-0.8,0.7-1.4c0-0.5-0.2-1-0.7-1.4s-1.5-0.8-3-1.1c-2.2-0.5-3.9-1.2-5-2.2
			s-1.6-2.2-1.6-3.8c0-1.1,0.3-2,0.8-2.9s1.3-1.6,2.4-2.1s2.5-0.8,4.2-0.8c1.4,0,2.7,0.1,3.9,0.4c1.2,0.3,2.2,0.6,3,1.1l0.1,5.2
			l-3.6,0l-0.5-2.5c-0.3-0.2-0.7-0.4-1.1-0.5s-0.9-0.2-1.4-0.2c-0.9,0-1.6,0.2-2.1,0.5c-0.5,0.4-0.7,0.8-0.7,1.4
			c0,0.3,0.1,0.6,0.3,0.9c0.2,0.3,0.5,0.5,1,0.8s1.2,0.5,2.2,0.7c2.4,0.5,4.1,1.3,5.2,2.2s1.6,2.2,1.6,3.8c0,1.8-0.6,3.2-1.9,4.3
			C1465.7,667.3,1463.8,667.8,1461.2,667.8z"/>
	</g>
	<g>
		<path class="st4" d="M1035.3,281.8c-2.5,0-4.7-0.5-6.5-1.5c-1.8-1-3.3-2.5-4.3-4.4s-1.5-4.2-1.5-6.8v-0.9c0-2.5,0.5-4.7,1.4-6.6
			s2.3-3.4,4.1-4.5s3.9-1.6,6.4-1.6c1.7,0,3.4,0.2,4.9,0.7c1.5,0.5,2.9,1.2,4.1,2.2v6.2h-3.8l-0.5-3.9c-0.4-0.3-0.8-0.5-1.3-0.7
			s-0.9-0.4-1.5-0.5c-0.5-0.1-1.1-0.2-1.7-0.2c-1.4,0-2.7,0.4-3.7,1.1c-1,0.7-1.8,1.7-2.4,3c-0.6,1.3-0.8,2.9-0.8,4.6v0.9
			c0,1.8,0.3,3.4,0.9,4.7s1.4,2.3,2.5,3s2.4,1.1,3.8,1.1c0.7,0,1.5-0.1,2.2-0.3c0.7-0.2,1.4-0.4,2-0.7l0.5-3.6h3.8v6.1
			c-1,0.7-2.2,1.2-3.7,1.7S1037.1,281.8,1035.3,281.8L1035.3,281.8z"/>
		<path class="st4" d="M1058.1,281.8c-1.7,0-3.3-0.3-4.7-1c-1.4-0.6-2.6-1.5-3.7-2.7c-1-1.2-1.8-2.5-2.4-4.1s-0.8-3.3-0.8-5.2v-0.4
			c0-1.9,0.3-3.6,0.8-5.2c0.6-1.6,1.3-3,2.3-4.1c1-1.2,2.2-2.1,3.7-2.7c1.4-0.6,3-1,4.7-1c1.7,0,3.3,0.3,4.8,1s2.7,1.5,3.7,2.7
			c1,1.2,1.8,2.5,2.4,4.1c0.6,1.6,0.8,3.3,0.8,5.2v0.4c0,1.9-0.3,3.6-0.8,5.2s-1.3,3-2.4,4.1c-1,1.2-2.3,2.1-3.7,2.7
			S1059.8,281.8,1058.1,281.8L1058.1,281.8z M1058.1,277.8c1.4,0,2.7-0.4,3.6-1.1s1.7-1.8,2.2-3.1s0.7-2.9,0.7-4.7v-0.4
			c0-1.8-0.2-3.3-0.7-4.7c-0.5-1.3-1.2-2.4-2.2-3.1s-2.2-1.1-3.6-1.1c-1.4,0-2.6,0.4-3.6,1.1c-0.9,0.7-1.7,1.8-2.1,3.1
			s-0.7,2.9-0.7,4.7v0.4c0,1.8,0.2,3.4,0.7,4.7s1.2,2.4,2.2,3.1C1055.4,277.4,1056.6,277.8,1058.1,277.8L1058.1,277.8z"/>
		<path class="st4" d="M1071.7,281.4v-3.1l2.7-0.5v-18.4l-2.7-0.5v-3.1h7.9l11.2,17.8l0.1,0v-14.1l-3.3-0.5v-3.1h10.6v3.1l-2.7,0.5
			v22h-4.9l-11.4-17.6l-0.1,0v14l3.3,0.5v3.1H1071.7L1071.7,281.4z"/>
		<path class="st4" d="M1099.9,281.4v-3.1l2.7-0.5v-18.4l-2.7-0.5v-3.1h20.4v7h-3.9l-0.2-3.1h-8.3v7h9v4h-9v7l2.7,0.5v3.1
			L1099.9,281.4L1099.9,281.4z"/>
		<path class="st4" d="M1122.2,281.4v-3.1l2.7-0.5v-18.4l-2.7-0.5v-3.1h10.6v3.1l-2.7,0.5v18.4l2.7,0.5v3.1H1122.2z"/>
		<path class="st4" d="M1134.7,281.4v-3.1l2.8-0.6v-18.2l-2.8-0.6v-3.1h11.2c2.3,0,4.3,0.5,6.1,1.6s3.1,2.5,4.1,4.5
			c1,1.9,1.5,4.1,1.5,6.5v0.5c0,2.4-0.5,4.6-1.4,6.5c-1,1.9-2.3,3.4-4.1,4.5c-1.7,1.1-3.7,1.6-6,1.6L1134.7,281.4L1134.7,281.4z
			 M1142.6,277.5h3.2c1.4,0,2.6-0.4,3.6-1.1c1-0.7,1.7-1.8,2.3-3.1s0.8-2.8,0.8-4.5v-0.5c0-1.7-0.3-3.2-0.8-4.5s-1.3-2.3-2.3-3
			s-2.2-1.1-3.6-1.1h-3.2V277.5L1142.6,277.5z"/>
		<path class="st4" d="M1159.8,281.4v-3.1l2.7-0.5v-18.4l-2.7-0.5v-3.1h19.9v6.9h-3.9l-0.2-3h-7.8v6.4h8.7v4h-8.7v7.3h8.3l0.2-3.1
			h3.9v7L1159.8,281.4L1159.8,281.4z"/>
		<path class="st4" d="M1182.8,281.4v-3.1l2.7-0.5v-18.4l-2.7-0.5v-3.1h7.9l11.2,17.8l0.1,0v-14.1l-3.3-0.5v-3.1h10.6v3.1l-2.7,0.5
			v22h-4.9l-11.4-17.6l-0.1,0v14l3.3,0.5v3.1H1182.8L1182.8,281.4z"/>
		<path class="st4" d="M1216.9,281.4v-3.1l2.7-0.5v-18h-4.7l-0.3,3.1h-3.9v-7h22.8v7h-3.9l-0.3-3.1h-4.7v18l2.8,0.5v3.1H1216.9
			L1216.9,281.4z"/>
		<path class="st4" d="M1235.4,281.4v-3.1l2.7-0.5v-18.4l-2.7-0.5v-3.1h10.6v3.1l-2.7,0.5v18.4l2.7,0.5v3.1H1235.4z"/>
		<path class="st4" d="M1246,281.4v-3.1l1.8-0.3l8.1-22.3h5.3l8.1,22.3l1.8,0.3v3.1h-8.7v-3.1l1.8-0.3l-1.1-3.5h-9l-1.1,3.5l1.8,0.3
			v3.1H1246z M1255.3,270.7h6.6l-3-8.8l-0.2-0.8h-0.1l-0.3,0.8L1255.3,270.7L1255.3,270.7z"/>
		<path class="st4" d="M1272.8,281.4v-3.1l2.7-0.5v-18.4l-2.7-0.5v-3.1h10.9v3.1l-3.1,0.5v18h7.2l0.2-3.8h3.9v7.7L1272.8,281.4
			L1272.8,281.4z"/>
		<path class="st4" d="M1314.9,281.7c-2.5,0-4.7-0.5-6.5-1.5c-1.8-1-3.3-2.5-4.3-4.4s-1.5-4.2-1.5-6.8v-0.9c0-2.5,0.5-4.7,1.4-6.6
			s2.3-3.4,4.1-4.5s3.9-1.6,6.4-1.6c1.7,0,3.4,0.2,4.9,0.7c1.5,0.5,2.9,1.2,4.1,2.2v6.2h-3.8l-0.5-3.9c-0.4-0.3-0.8-0.5-1.3-0.7
			s-0.9-0.4-1.5-0.5c-0.5-0.1-1.1-0.2-1.7-0.2c-1.4,0-2.7,0.4-3.7,1.1c-1,0.7-1.8,1.7-2.4,3c-0.6,1.3-0.8,2.9-0.8,4.6v0.9
			c0,1.8,0.3,3.4,0.9,4.7s1.4,2.3,2.5,3s2.4,1.1,3.8,1.1c0.7,0,1.5-0.1,2.2-0.3c0.7-0.2,1.4-0.4,2-0.7l0.5-3.6h3.8v6.1
			c-1,0.7-2.2,1.2-3.7,1.7S1316.8,281.7,1314.9,281.7L1314.9,281.7z"/>
		<path class="st4" d="M1337.7,281.7c-1.7,0-3.3-0.3-4.7-1c-1.4-0.6-2.6-1.5-3.7-2.7c-1-1.2-1.8-2.5-2.4-4.1s-0.8-3.3-0.8-5.2v-0.4
			c0-1.9,0.3-3.6,0.8-5.2c0.6-1.6,1.3-3,2.3-4.1c1-1.2,2.2-2.1,3.7-2.7c1.4-0.6,3-1,4.7-1c1.7,0,3.3,0.3,4.8,1s2.7,1.5,3.7,2.7
			c1,1.2,1.8,2.5,2.4,4.1c0.6,1.6,0.8,3.3,0.8,5.2v0.4c0,1.9-0.3,3.6-0.8,5.2s-1.3,3-2.4,4.1c-1,1.2-2.3,2.1-3.7,2.7
			S1339.4,281.7,1337.7,281.7L1337.7,281.7z M1337.7,277.7c1.4,0,2.7-0.4,3.6-1.1s1.7-1.8,2.2-3.1s0.7-2.9,0.7-4.7v-0.4
			c0-1.8-0.2-3.3-0.7-4.7c-0.5-1.3-1.2-2.4-2.2-3.1s-2.2-1.1-3.6-1.1c-1.4,0-2.6,0.4-3.6,1.1c-0.9,0.7-1.7,1.8-2.1,3.1
			s-0.7,2.9-0.7,4.7v0.4c0,1.8,0.2,3.4,0.7,4.7s1.2,2.4,2.2,3.1C1335.1,277.4,1336.3,277.7,1337.7,277.7L1337.7,277.7z"/>
		<path class="st4" d="M1351.4,281.4v-3.1l2.7-0.5v-18.4l-2.7-0.5v-3.1h10.3l7,17.8h0.1l6.8-17.8h10.3v3.1l-2.7,0.5v18.4l2.8,0.5
			v3.1h-10.6v-3.1l2.9-0.5v-4.9l0.1-11.5l-0.1,0l-7.6,19.7h-3.9l-7.8-19.6l-0.1,0l0.3,10.9v5.4l3,0.5v3.1L1351.4,281.4L1351.4,281.4
			z"/>
		<path class="st4" d="M1387.7,281.4v-3.1l2.7-0.5v-18.4l-2.7-0.5v-3.1h12.2c2,0,3.6,0.3,5.1,1c1.4,0.7,2.5,1.6,3.3,2.9
			c0.8,1.2,1.1,2.6,1.1,4.3s-0.4,3.1-1.1,4.3c-0.8,1.2-1.8,2.2-3.3,2.9c-1.4,0.7-3.1,1-5.1,1h-4.3v5.7l2.7,0.5v3.1L1387.7,281.4
			L1387.7,281.4z M1395.6,268.1h4.3c1.4,0,2.5-0.4,3.2-1.2s1.1-1.8,1.1-3s-0.4-2.2-1.1-3s-1.8-1.2-3.2-1.2h-4.3V268.1L1395.6,268.1z
			"/>
		<path class="st4" d="M1423.7,281.7c-2,0-3.8-0.4-5.3-1c-1.5-0.7-2.7-1.7-3.6-3.1s-1.3-3-1.3-4.9v-13.4l-2.7-0.5v-3.1h10.6v3.1
			l-2.7,0.5v13.4c0,1.1,0.2,2.1,0.6,2.8s1,1.3,1.8,1.7s1.7,0.5,2.7,0.5c1.1,0,2-0.2,2.8-0.5s1.4-0.9,1.8-1.7s0.6-1.7,0.6-2.8v-13.4
			l-2.7-0.5v-3.1h10.6v3.1l-2.7,0.5v13.4c0,1.9-0.4,3.5-1.3,4.9s-2.1,2.4-3.6,3.1C1427.5,281.4,1425.7,281.7,1423.7,281.7
			L1423.7,281.7z"/>
		<path class="st4" d="M1444.2,281.3v-3.1l2.7-0.5v-18h-4.7l-0.3,3.1h-3.9v-7h22.8v7h-3.9l-0.3-3.1h-4.7v18l2.8,0.5v3.1H1444.2
			L1444.2,281.3z"/>
		<path class="st4" d="M1462.8,281.3v-3.1l2.7-0.5v-18.4l-2.7-0.5v-3.1h10.6v3.1l-2.7,0.5v18.4l2.7,0.5v3.1H1462.8z"/>
		<path class="st4" d="M1475.3,281.3v-3.1l2.7-0.5v-18.4l-2.7-0.5v-3.1h7.9l11.2,17.8l0.1,0v-14.1l-3.3-0.5v-3.1h10.6v3.1l-2.7,0.5
			v22h-4.9l-11.4-17.6l-0.1,0v14l3.3,0.5v3.1H1475.3L1475.3,281.3z"/>
		<path class="st4" d="M1515.4,281.7c-2.5,0-4.7-0.5-6.5-1.6s-3.2-2.5-4.1-4.4c-1-1.9-1.4-4-1.4-6.5v-0.9c0-2.5,0.5-4.8,1.4-6.8
			c0.9-2,2.3-3.5,4-4.6c1.7-1.1,3.8-1.6,6.2-1.6c1.8,0,3.6,0.2,5.2,0.8s3,1.3,4.2,2.3v5.7h-3.8l-0.7-3.4c-0.5-0.4-1.1-0.7-1.8-1
			s-1.7-0.4-2.7-0.4c-1.4,0-2.7,0.4-3.7,1.1c-1,0.8-1.8,1.8-2.4,3.1s-0.8,2.9-0.8,4.7v0.9c0,1.7,0.3,3.2,0.8,4.5s1.3,2.3,2.4,3
			s2.3,1,3.9,1c0.9,0,1.7-0.1,2.5-0.3s1.4-0.4,1.9-0.6v-4.3l-3.7-0.3v-3.6h8.8V279c-1.1,0.8-2.5,1.5-4.1,2
			C1519.4,281.4,1517.5,281.7,1515.4,281.7L1515.4,281.7z"/>
		<path class="st4" d="M1246.6,324.6v-3.1l2.7-0.5v-18.4l-2.7-0.5V299h19.9v6.9h-3.9l-0.2-3h-7.8v6.4h8.7v4h-8.7v7.3h8.3l0.2-3.1
			h3.9v7L1246.6,324.6L1246.6,324.6z"/>
		<path class="st4" d="M1269.6,324.6v-3.1l2.7-0.5v-18.4l-2.7-0.5V299h7.9l11.2,17.8l0.1,0v-14.1l-3.3-0.5V299h10.6v3.1l-2.7,0.5v22
			h-4.9l-11.4-17.6l-0.1,0v14l3.3,0.5v3.1L1269.6,324.6L1269.6,324.6z"/>
		<path class="st4" d="M1308,324.6l-8.2-22.2l-2.3-0.3V299h10.2v3.1l-2.3,0.4l5,15.1l0.4,1.4h0.1l0.4-1.4l5-15.1l-2.7-0.4V299h9.7
			v3.1l-2.3,0.3l-7.7,22.2H1308L1308,324.6z"/>
		<path class="st4" d="M1324.8,324.6v-3.1l2.7-0.5v-18.4l-2.7-0.5V299h10.6v3.1l-2.7,0.5V321l2.7,0.5v3.1H1324.8z"/>
		<path class="st4" d="M1337.4,324.6v-3.1l2.7-0.5v-18.4l-2.7-0.5V299h12.1c2,0,3.7,0.3,5.1,0.9c1.4,0.6,2.5,1.5,3.2,2.6
			c0.8,1.1,1.1,2.5,1.1,4.1c0,1.5-0.4,2.8-1.1,4c-0.8,1.2-1.8,2.1-3.1,2.8s-2.9,1-4.6,1h-4.8v6.5l2.7,0.5v3.1L1337.4,324.6
			L1337.4,324.6z M1345.2,310.5h4.2c1.5,0,2.6-0.3,3.3-0.9s1.1-1.5,1.1-2.7c0-1.2-0.4-2.1-1.1-2.8s-1.8-1.1-3.2-1.1h-4.3
			L1345.2,310.5L1345.2,310.5z M1353.8,324.6l-4.3-11.1l4.6-1.1l3.7,8.6l2.2,0.5v3.1L1353.8,324.6L1353.8,324.6z"/>
		<path class="st4" d="M1373.8,324.9c-1.7,0-3.3-0.3-4.7-1c-1.4-0.6-2.6-1.5-3.7-2.7c-1-1.2-1.8-2.5-2.4-4.1
			c-0.6-1.6-0.8-3.3-0.8-5.2v-0.4c0-1.9,0.3-3.6,0.8-5.2c0.6-1.6,1.3-3,2.3-4.1c1-1.2,2.2-2.1,3.7-2.7c1.4-0.6,3-1,4.7-1
			c1.7,0,3.3,0.3,4.8,1c1.4,0.6,2.7,1.5,3.7,2.7c1,1.2,1.8,2.5,2.4,4.1c0.6,1.6,0.8,3.3,0.8,5.2v0.4c0,1.9-0.3,3.6-0.8,5.2
			c-0.6,1.6-1.3,3-2.4,4.1c-1,1.2-2.3,2.1-3.7,2.7S1375.6,324.9,1373.8,324.9L1373.8,324.9z M1373.8,320.9c1.4,0,2.7-0.4,3.6-1.1
			c1-0.8,1.7-1.8,2.2-3.1s0.7-2.9,0.7-4.7v-0.4c0-1.8-0.2-3.3-0.7-4.7c-0.5-1.3-1.2-2.4-2.2-3.1s-2.2-1.1-3.6-1.1
			c-1.4,0-2.6,0.4-3.6,1.1s-1.7,1.8-2.1,3.1c-0.5,1.3-0.7,2.9-0.7,4.7v0.4c0,1.8,0.2,3.4,0.7,4.7s1.2,2.4,2.1,3.1
			C1371.2,320.6,1372.4,320.9,1373.8,320.9L1373.8,320.9z"/>
		<path class="st4" d="M1387.5,324.5v-3.1l2.7-0.5v-18.4l-2.7-0.5V299h7.9l11.2,17.8l0.1,0v-14.1l-3.3-0.5v-3.1h10.6v3.1l-2.7,0.5
			v22h-4.9L1395,307l-0.1,0v14l3.3,0.5v3.1H1387.5L1387.5,324.5z"/>
		<path class="st4" d="M1415.7,324.5v-3.1l2.7-0.5v-18.4l-2.7-0.5v-3.1h10.3l7,17.8h0.1l6.8-17.8h10.3v3.1l-2.7,0.5v18.4l2.8,0.5
			v3.1h-10.6v-3.1l2.9-0.5V316l0.1-11.5l-0.1,0l-7.6,19.7h-3.9l-7.8-19.6l-0.1,0l0.3,10.9v5.4l3,0.5v3.1L1415.7,324.5L1415.7,324.5z
			"/>
		<path class="st4" d="M1452,324.5v-3.1l2.7-0.5v-18.4l-2.7-0.5v-3.1h19.9v6.9h-3.9l-0.2-3h-7.8v6.4h8.7v4h-8.7v7.3h8.3l0.2-3.1h3.9
			v7L1452,324.5L1452,324.5z"/>
		<path class="st4" d="M1475,324.5v-3.1l2.7-0.5v-18.4l-2.7-0.5v-3.1h7.9l11.2,17.8l0.1,0v-14.1l-3.3-0.5v-3.1h10.6v3.1l-2.7,0.5v22
			h-4.9l-11.4-17.6l-0.1,0v14l3.3,0.5v3.1H1475L1475,324.5z"/>
		<path class="st4" d="M1509.1,324.5v-3.1l2.7-0.5v-18h-4.7l-0.3,3.1h-3.9v-7h22.8v7h-3.9l-0.3-3.1h-4.7v18l2.8,0.5v3.1H1509.1
			L1509.1,324.5z"/>
	</g>
	<g>
		<path class="st4" d="M794.6,127.8c1.4-1.6,0.5-3.9-1.6-3.9c-1.2,0-2.3,1.2-2.3,2.3C790.7,128.3,793,129.2,794.6,127.8L794.6,127.8
			z"/>
		<path class="st4" d="M817.9,128.5c1.3,0,2.3-1,2.3-2.3s-1-2.3-2.3-2.3s-2.3,1-2.3,2.3S816.6,128.5,817.9,128.5z"/>
		<path class="st4" d="M812.9,143.3c-0.6-0.4-1.4-0.2-1.8,0.4c-1.2,1.8-3.3,2.9-5.6,2.9c-2.8,0-4.6-1.6-5.6-2.9
			c-0.5-0.6-1.3-0.7-1.9-0.2c-0.6,0.4-0.7,1.3-0.2,1.9c2,2.6,4.7,4,7.7,4s6.1-1.6,7.8-4.1C813.6,144.5,813.5,143.7,812.9,143.3
			L812.9,143.3z"/>
		<path class="st4" d="M845.7,103.7c0.3-1.1,0.3-2,0.3-2.7c0-5.9-4.6-10.6-10.6-10.6c-0.4,0-0.9,0-1.3,0.1
			C827.6,80.3,816.2,74,803.8,74c-8.9,0-17.2,3.5-23.5,9.8c-6.3,6.3-9.8,14.7-9.8,23.5v13.3c-0.5,0.5-0.9,1.1-1.2,1.8
			c-1.3,1.6-2.1,3.6-2.1,5.8c0,0.4,0.1,0.8,0.2,1.1c0,0.1,0.1,0.3,0.1,0.4s0,0.1,0,0.2c0.5,3.2,2.8,5.8,5.8,6.8
			c0.8,0.4,1.6,0.8,2.5,1.1c0.6,4.8,2.4,9.3,5.2,13.2c3,4.3,7.1,7.7,11.9,9.8v1.7c-4.6,0.2-8.9,2.2-11.9,5.4
			c-3.4,3.4-5.4,8.1-5.4,12.7v15.2c0,1.6,1.3,3,3,3h53c1.7,0,3-1.3,3-3v-15.2c0-4.9-2-9.6-5.5-12.8c-3.4-3.4-8-5.4-12.6-5.4V161
			c3.7-1.6,6.7-3.7,9.3-6.3c4.7-4.7,7.6-10.6,8.5-16.9c4.3-1.2,7.5-5,7.8-9.6c5.3-2.2,8.9-7.4,8.9-13.2
			C851.1,110.6,849.1,106.5,845.7,103.7L845.7,103.7z M776.3,134.2c-0.6,0-1.2-0.1-1.8-0.3c-2.2-1.4-3.5-3.8-3.5-6.4
			c0-1.2,0.3-2.4,0.8-3.4c0.5-0.6,1.1-1,1.8-1.4c0.4,0,0.7-0.2,1-0.4c0.6-0.2,1.2-0.3,1.8-0.3c0.3,0,0.5-0.1,0.8-0.2v12
			c0,0.2,0,0.4,0,0.6C776.9,134.3,776.6,134.2,776.3,134.2z M826,171C826,171,826.1,171,826,171c2.6,2.4,4.1,5.9,4.1,9.6v13.7h-50
			v-13.7c0-3.5,1.5-6.9,4.1-9.6c0,0,0,0,0-0.1c2.3-2.6,5.8-4.1,9.5-4.1h2.5c0.8,0,1.5-0.7,1.5-1.5v-4.5c2.3,0.6,4.8,1,7.3,1
			s5-0.3,7.3-1v4.5c0,0.8,0.7,1.5,1.5,1.5h2.5C820,166.9,823.4,168.4,826,171L826,171z M830.1,133.8c0,6.6-2.6,12.9-7.4,17.6
			c-2.5,2.5-5.6,4.5-9.3,6c-2.6,0.9-5.4,1.4-8.3,1.4s-5.8-0.5-8.4-1.4c-10-3.4-16.7-12.9-16.7-23.6v-17.2c9-3.6,13.5-7.6,15.7-10.9
			c1.3,2.5,3.8,4.4,7,5.1c3.5,0.8,7.6,0.1,10.3-2.3c0.9,2.5,2.9,5.3,5.4,7.3c3.6,3,7.6,4,11.5,3.1L830.1,133.8L830.1,133.8z
			 M833.1,133.8v-12.6c2.4,0.6,4.3,2.5,4.7,4.8c0,0.3,0.1,0.7,0.2,0.9c0,0.2,0.1,0.4,0.1,0.5C838.1,130.6,836,133.1,833.1,133.8z
			 M839.6,123.6c-0.1,0-0.2,0.1-0.2,0.1c-1.1-2.4-3.5-4.2-6.3-4.7v-2c0-0.5-0.2-1-0.7-1.2c-0.4-0.3-1-0.3-1.4-0.1
			c-4.7,2-8.6-0.3-10.5-1.9c-3.5-2.9-5.2-6.9-4.8-8.5c0.2-0.8-0.3-1.5-1-1.8c-0.7-0.2-1.5,0.1-1.8,0.8c-1.5,3.4-5.9,4.5-9.3,3.7
			c-1.4-0.3-5.9-1.7-5.8-6.9c0-0.8-0.6-1.4-1.3-1.5c-0.8-0.1-1.5,0.4-1.6,1.2c-0.4,2.3-2.9,8.2-16.8,13.5c-0.6,0.2-1,0.8-1,1.4v3.6
			c-0.2-0.1-0.5-0.2-0.8-0.2c-0.4,0-0.9,0-1.3,0.1v-11.8c0-15.9,12.9-28.8,28.8-28.8c11.5,0,22,6.2,27.5,16.2
			c0.3,0.6,1.1,0.9,1.8,0.7c0.8-0.3,1.6-0.4,2.3-0.4c3.5,0,6.1,2.6,6.1,6.1c0,1.2-0.3,2.3-0.7,2.9c-0.3,0.3-0.4,0.8-0.3,1.2
			c0.1,0.4,0.3,0.8,0.7,1c3.3,1.9,5.3,5.2,5.3,8.8C846.5,119.6,844.1,122.7,839.6,123.6L839.6,123.6z"/>
		<path class="st4" d="M826.2,120.3h-17.7c-0.7,0-1.3,0.6-1.3,1.3v1.5c-0.7-0.3-1.4-0.5-2.2-0.5c-1,0-1.9,0.3-2.8,0.8v-1.9
			c0-0.7-0.6-1.3-1.3-1.3h-17.7c-0.7,0-1.3,0.6-1.3,1.3v11.6c0,1.3,1.1,2.4,2.4,2.4h15.5c1.4,0,2.5-1.1,2.5-2.5v-6.9
			c0.4,0.1,0.8,0,1.2-0.3c0.5-0.4,1-0.6,1.6-0.6s1.1,0.2,1.6,0.6c0.2,0.1,0.4,0.2,0.6,0.3v6.9c0,1.4,1.1,2.5,2.5,2.5h15.5
			c1.3,0,2.4-1.1,2.4-2.4v-11.6C827.5,120.9,827,120.3,826.2,120.3L826.2,120.3z M799.6,132.9h-15v-10h15V132.9z M824.9,132.9h-15
			v-10h15V132.9z"/>
	</g>
	<g class="st3">
		<path class="st4" d="M842.8,414.4c0-1.9,0.2-3.6,0.7-5.2c0.5-1.6,1.2-2.9,2-4c0.9-1.1,1.9-2,3-2.6c1.1-0.6,2.4-0.9,3.7-0.9
			c1,0,1.9,0.2,2.6,0.5c0.7,0.3,1.3,0.8,1.7,1.3c0.4,0.6,0.8,1.2,1,1.9c0.2,0.7,0.3,1.5,0.3,2.3c0,1.8-0.2,3.5-0.7,5
			c-0.5,1.6-1.1,2.9-1.9,4.1c-0.8,1.2-1.8,2.1-2.9,2.7c-1.1,0.7-2.3,1-3.6,1c-1.1,0-2-0.2-2.7-0.5s-1.3-0.8-1.8-1.4
			c-0.5-0.6-0.8-1.2-1-1.9C842.9,415.9,842.8,415.2,842.8,414.4z M845.7,413.8c0,1.4,0.3,2.5,0.8,3.3c0.5,0.8,1.4,1.1,2.5,1.1
			c0.8,0,1.5-0.3,2.2-0.8c0.7-0.6,1.3-1.3,1.9-2.3c0.5-1,1-2.1,1.3-3.3s0.5-2.5,0.5-3.9c0-1.2-0.2-2.2-0.7-2.9
			c-0.4-0.7-1.3-1.1-2.5-1.1c-0.8,0-1.5,0.3-2.3,0.8c-0.7,0.5-1.4,1.3-1.9,2.2c-0.6,0.9-1,2-1.3,3.1
			C845.8,411.2,845.7,412.5,845.7,413.8z"/>
	</g>
	<g class="st3">
		<path class="st4" d="M874.1,402l1.7,10.5l0.1,3.5h0l1.4-3.5l5.3-10.4h2.7l-9.7,18.4h-1.4l-1.9-11.9l0-3h-0.1l-1.3,3l-6.8,11.8
			h-1.3l-2.1-18.4h2.7l1.1,10.5l-0.1,3.5h0.1l1.5-3.6l5.9-10.4H874.1z"/>
		<path class="st4" d="M895.3,420l2.4-11.4c0.1-0.4,0.2-0.9,0.3-1.3c0.1-0.4,0.1-0.8,0.1-1.1c0-0.7-0.2-1.3-0.5-1.7
			c-0.3-0.4-0.9-0.6-1.8-0.6c-0.6,0-1.2,0.1-1.8,0.4s-1.2,0.7-1.7,1.1c-0.5,0.4-1,0.9-1.4,1.5c-0.4,0.5-0.8,1.1-1.1,1.6l-2.4,11.5
			h-2.7l3.8-18h1.9l-0.1,3.1h0.1c0.3-0.4,0.7-0.8,1.1-1.2c0.4-0.4,0.9-0.8,1.5-1.1c0.5-0.3,1.1-0.6,1.8-0.8c0.7-0.2,1.4-0.3,2.2-0.3
			c1.2,0,2.1,0.3,2.8,0.9c0.7,0.6,1,1.6,1,3c0,0.7-0.1,1.6-0.3,2.6l-2.6,12H895.3z"/>
		<path class="st4" d="M911.5,415c0-0.6-0.2-1.2-0.5-1.6s-0.7-0.8-1.2-1.2c-0.5-0.3-1-0.7-1.5-1c-0.6-0.3-1.1-0.7-1.5-1.1
			c-0.5-0.4-0.9-0.9-1.2-1.5c-0.3-0.6-0.5-1.3-0.5-2.1c0-0.7,0.2-1.3,0.5-1.9c0.3-0.6,0.8-1.1,1.3-1.5c0.6-0.4,1.2-0.8,2-1
			c0.8-0.3,1.6-0.4,2.5-0.4c1.3,0,2.3,0.1,3,0.3c0.7,0.2,1.3,0.4,1.9,0.7l-0.9,2.2c-1-0.6-2.3-0.8-3.9-0.8c-1,0-1.8,0.2-2.5,0.6
			c-0.7,0.4-1,1.1-1,1.9c0,0.5,0.2,0.9,0.5,1.3c0.3,0.4,0.7,0.7,1.2,1.1c0.5,0.3,1,0.7,1.5,1c0.6,0.3,1.1,0.7,1.5,1.2
			c0.5,0.4,0.9,1,1.2,1.6c0.3,0.6,0.5,1.3,0.5,2.1c0,1.9-0.6,3.3-1.9,4.3c-1.3,1-2.9,1.5-5.1,1.5c-1.1,0-2.1-0.1-3-0.3
			c-0.9-0.2-1.6-0.5-2.2-0.8l1-2.3c0.5,0.3,1.1,0.6,1.9,0.8c0.8,0.2,1.6,0.3,2.4,0.3c1.2,0,2.1-0.3,2.8-0.8
			C911.1,416.9,911.5,416.1,911.5,415z"/>
		<path class="st4" d="M931.9,394.4l2.1,1.1l-18.8,29.7l-2.1-1.2L931.9,394.4z"/>
		<path class="st4" d="M933.8,402h1.9l-0.2,3.1h0.1c0.3-0.4,0.7-0.9,1.1-1.3s0.9-0.8,1.4-1.1c0.5-0.3,1.1-0.6,1.7-0.8
			c0.6-0.2,1.2-0.3,1.9-0.3c0.6,0,1.1,0.1,1.6,0.3c0.5,0.2,0.9,0.5,1.3,0.9s0.7,1,0.9,1.7c0.2,0.7,0.3,1.5,0.3,2.6
			c0,2.1-0.3,4-0.9,5.7c-0.6,1.7-1.3,3.1-2.3,4.2c-0.9,1.2-2,2-3.2,2.6c-1.2,0.6-2.3,0.9-3.5,0.9c-0.8,0-1.6-0.1-2.2-0.2
			c-0.6-0.2-1.1-0.3-1.3-0.5l-1.6,7.5h-2.7L933.8,402z M940.7,403.9c-0.6,0-1.3,0.2-1.9,0.5c-0.6,0.3-1.1,0.8-1.6,1.2
			c-0.5,0.5-0.9,1-1.3,1.6c-0.4,0.6-0.7,1.1-0.9,1.6l-1.8,8.5c0.4,0.3,0.8,0.5,1.3,0.6s0.9,0.2,1.4,0.2c0.9,0,1.8-0.3,2.7-0.8
			c0.9-0.5,1.6-1.3,2.3-2.2c0.7-1,1.2-2.1,1.6-3.5c0.4-1.3,0.6-2.8,0.6-4.5c0-1-0.2-1.8-0.6-2.4
			C942.1,404.2,941.5,403.9,940.7,403.9z"/>
		<path class="st4" d="M959.9,404.4c-0.2,0-0.4-0.1-0.7-0.1c-0.2,0-0.4,0-0.6,0c-1.2,0-2.3,0.4-3.2,1.2c-0.9,0.8-1.6,1.7-2.1,2.8
			l-2.5,11.8h-2.7l3.8-18h1.9v3.1h0.1c0.3-0.5,0.6-0.9,0.9-1.3c0.3-0.4,0.7-0.8,1.1-1.1c0.4-0.3,0.9-0.6,1.3-0.7
			c0.5-0.2,1-0.3,1.6-0.3c0.5,0,1.1,0.1,1.7,0.3L959.9,404.4z"/>
		<path class="st4" d="M960.4,414.4c0-1.9,0.2-3.6,0.7-5.2c0.5-1.6,1.2-2.9,2-4c0.9-1.1,1.9-2,3-2.6c1.1-0.6,2.4-0.9,3.7-0.9
			c1,0,1.9,0.2,2.6,0.5c0.7,0.3,1.3,0.8,1.7,1.3c0.4,0.6,0.8,1.2,1,1.9c0.2,0.7,0.3,1.5,0.3,2.3c0,1.8-0.2,3.5-0.7,5
			c-0.5,1.6-1.1,2.9-1.9,4.1c-0.8,1.2-1.8,2.1-2.9,2.7c-1.1,0.7-2.3,1-3.6,1c-1.1,0-2-0.2-2.7-0.5c-0.7-0.3-1.3-0.8-1.8-1.4
			c-0.5-0.6-0.8-1.2-1-1.9S960.4,415.2,960.4,414.4z M963.3,413.8c0,1.4,0.3,2.5,0.8,3.3c0.5,0.8,1.4,1.1,2.5,1.1
			c0.8,0,1.5-0.3,2.2-0.8c0.7-0.6,1.3-1.3,1.9-2.3c0.5-1,1-2.1,1.3-3.3c0.3-1.2,0.5-2.5,0.5-3.9c0-1.2-0.2-2.2-0.7-2.9
			c-0.4-0.7-1.3-1.1-2.5-1.1c-0.8,0-1.5,0.3-2.3,0.8s-1.4,1.3-1.9,2.2c-0.6,0.9-1,2-1.3,3.1C963.5,411.2,963.3,412.5,963.3,413.8z"
			/>
		<path class="st4" d="M979.1,402h2.7l0.8-3.6l2.9-0.8l-0.9,4.4h4.7l-0.5,2.3H984l-2.3,10.9c0,0.3-0.1,0.6-0.1,0.8
			c0,0.2-0.1,0.5-0.1,0.6c0,0.6,0.1,1,0.4,1.2c0.3,0.2,0.7,0.3,1.2,0.3c0.6,0,1.1-0.1,1.6-0.2c0.5-0.1,1-0.4,1.4-0.6v2.2
			c-0.5,0.3-1.2,0.5-1.9,0.7s-1.5,0.3-2.3,0.3c-2.2,0-3.3-1-3.3-3c0-0.4,0.1-0.9,0.2-1.5l2.4-11.6h-2.7L979.1,402z"/>
		<path class="st4" d="M1001.8,418.3c-0.8,0.7-1.8,1.3-3,1.6s-2.3,0.6-3.4,0.6c-1.9,0-3.4-0.6-4.3-1.7c-1-1.1-1.5-2.6-1.5-4.6
			s0.3-3.7,0.8-5.3c0.6-1.6,1.3-2.9,2.2-4c0.9-1.1,1.9-1.9,3.1-2.5c1.1-0.6,2.3-0.9,3.5-0.9c0.9,0,1.6,0.1,2.2,0.4
			c0.6,0.2,1.2,0.6,1.6,1c0.4,0.4,0.7,0.9,0.9,1.4c0.2,0.5,0.3,1.1,0.3,1.6c0,1.7-0.8,3-2.5,4c-1.7,1-4.1,1.5-7.2,1.5
			c-0.3,0-0.6,0-0.9,0c-0.3,0-0.6,0-1-0.1c-0.1,0.5-0.2,0.9-0.2,1.3c0,0.4-0.1,0.8-0.1,1.1c0,1.3,0.3,2.4,0.9,3.2
			c0.6,0.8,1.5,1.2,2.8,1.2c1.1,0,2-0.2,2.9-0.5c0.9-0.3,1.6-0.7,2-1.1L1001.8,418.3z M998.8,403.9c-1.3,0-2.5,0.5-3.4,1.3
			c-1,0.9-1.7,2.2-2.2,4.1c0.9,0,1.9,0,2.8-0.1c1,0,1.9-0.2,2.7-0.4c0.8-0.2,1.5-0.5,2-1c0.5-0.4,0.8-1.1,0.8-1.9
			c0-0.2,0-0.5-0.1-0.7c-0.1-0.3-0.2-0.5-0.4-0.7c-0.2-0.2-0.5-0.4-0.8-0.5S999.3,403.9,998.8,403.9z"/>
		<path class="st4" d="M1017.6,418.5c-0.4,0.3-0.8,0.6-1.2,0.8s-0.9,0.4-1.4,0.6c-0.5,0.2-1,0.3-1.5,0.4c-0.5,0.1-0.9,0.1-1.4,0.1
			c-1.2,0-2.1-0.2-2.9-0.6s-1.4-0.8-1.8-1.4s-0.7-1.2-0.9-1.9s-0.3-1.3-0.3-1.9c0-2,0.3-3.9,0.8-5.5s1.3-3,2.2-4.1
			c0.9-1.1,2-2,3.2-2.6c1.2-0.6,2.4-0.9,3.7-0.9c0.9,0,1.7,0.1,2.2,0.3c0.6,0.2,1.1,0.4,1.6,0.6l-1,2.2c-0.4-0.2-0.9-0.4-1.5-0.6
			c-0.6-0.1-1.2-0.2-1.9-0.2c-0.8,0-1.6,0.3-2.4,0.8c-0.8,0.6-1.5,1.3-2.1,2.2c-0.6,0.9-1.1,1.9-1.4,3.1c-0.4,1.2-0.5,2.4-0.5,3.6
			c0,1.6,0.3,2.7,1,3.5c0.6,0.7,1.5,1.1,2.6,1.1c0.7,0,1.5-0.2,2.3-0.5c0.8-0.3,1.4-0.7,1.9-1L1017.6,418.5z"/>
		<path class="st4" d="M1022.2,402h2.7l0.8-3.6l2.9-0.8l-0.9,4.4h4.7l-0.5,2.3h-4.7l-2.3,10.9c0,0.3-0.1,0.6-0.1,0.8
			c0,0.2-0.1,0.5-0.1,0.6c0,0.6,0.1,1,0.4,1.2c0.3,0.2,0.7,0.3,1.2,0.3c0.6,0,1.1-0.1,1.6-0.2c0.5-0.1,1-0.4,1.4-0.6v2.2
			c-0.5,0.3-1.2,0.5-1.9,0.7s-1.5,0.3-2.3,0.3c-2.2,0-3.3-1-3.3-3c0-0.4,0.1-0.9,0.2-1.5l2.4-11.6h-2.7L1022.2,402z"/>
		<path class="st4" d="M1040.2,415c0-0.6-0.2-1.2-0.5-1.6c-0.3-0.4-0.7-0.8-1.2-1.2s-1-0.7-1.5-1c-0.6-0.3-1.1-0.7-1.5-1.1
			c-0.5-0.4-0.9-0.9-1.2-1.5c-0.3-0.6-0.5-1.3-0.5-2.1c0-0.7,0.2-1.3,0.5-1.9c0.3-0.6,0.8-1.1,1.3-1.5c0.6-0.4,1.2-0.8,2-1
			c0.8-0.3,1.6-0.4,2.5-0.4c1.3,0,2.3,0.1,3,0.3s1.3,0.4,1.9,0.7l-0.9,2.2c-1-0.6-2.3-0.8-3.9-0.8c-1,0-1.8,0.2-2.5,0.6
			s-1,1.1-1,1.9c0,0.5,0.2,0.9,0.5,1.3c0.3,0.4,0.7,0.7,1.2,1.1c0.5,0.3,1,0.7,1.5,1s1.1,0.7,1.5,1.2c0.5,0.4,0.9,1,1.2,1.6
			c0.3,0.6,0.5,1.3,0.5,2.1c0,1.9-0.6,3.3-1.9,4.3c-1.3,1-2.9,1.5-5.1,1.5c-1.1,0-2.1-0.1-3-0.3c-0.9-0.2-1.6-0.5-2.2-0.8l1-2.3
			c0.5,0.3,1.1,0.6,1.9,0.8s1.6,0.3,2.4,0.3c1.2,0,2.1-0.3,2.8-0.8C1039.9,416.9,1040.2,416.1,1040.2,415z"/>
	</g>
	<g class="st3">
		<path class="st4" d="M842.8,695.4c0-1.9,0.2-3.6,0.7-5.2c0.5-1.6,1.2-2.9,2-4c0.9-1.1,1.9-2,3-2.6c1.1-0.6,2.4-0.9,3.7-0.9
			c1,0,1.9,0.2,2.6,0.5c0.7,0.3,1.3,0.8,1.7,1.3c0.4,0.6,0.8,1.2,1,1.9c0.2,0.7,0.3,1.5,0.3,2.3c0,1.8-0.2,3.5-0.7,5
			c-0.5,1.6-1.1,2.9-1.9,4.1c-0.8,1.2-1.8,2.1-2.9,2.7c-1.1,0.7-2.3,1-3.6,1c-1.1,0-2-0.2-2.7-0.5s-1.3-0.8-1.8-1.4
			c-0.5-0.6-0.8-1.2-1-1.9C842.9,696.9,842.8,696.2,842.8,695.4z M845.7,694.8c0,1.4,0.3,2.5,0.8,3.3c0.5,0.8,1.4,1.1,2.5,1.1
			c0.8,0,1.5-0.3,2.2-0.8c0.7-0.6,1.3-1.3,1.9-2.3c0.5-1,1-2.1,1.3-3.3s0.5-2.5,0.5-3.9c0-1.2-0.2-2.2-0.7-2.9
			c-0.4-0.7-1.3-1.1-2.5-1.1c-0.8,0-1.5,0.3-2.3,0.8c-0.7,0.5-1.4,1.3-1.9,2.2c-0.6,0.9-1,2-1.3,3.1
			C845.8,692.2,845.7,693.5,845.7,694.8z"/>
		<path class="st4" d="M864.1,683h1.9l-0.2,3.1h0.1c0.3-0.4,0.7-0.9,1.1-1.3s0.9-0.8,1.4-1.1c0.5-0.3,1.1-0.6,1.7-0.8
			s1.2-0.3,1.9-0.3c0.6,0,1.1,0.1,1.6,0.3s0.9,0.5,1.3,0.9s0.7,1,0.9,1.7s0.3,1.5,0.3,2.6c0,2.1-0.3,4-0.9,5.7
			c-0.6,1.7-1.3,3.1-2.3,4.2c-0.9,1.2-2,2-3.2,2.6c-1.2,0.6-2.3,0.9-3.5,0.9c-0.8,0-1.6-0.1-2.2-0.2c-0.6-0.2-1.1-0.3-1.3-0.5
			l-1.6,7.5h-2.7L864.1,683z M871.1,684.9c-0.6,0-1.3,0.2-1.9,0.5s-1.1,0.8-1.6,1.2c-0.5,0.5-0.9,1-1.3,1.6
			c-0.4,0.6-0.7,1.1-0.9,1.6l-1.8,8.5c0.4,0.3,0.8,0.5,1.3,0.6s0.9,0.2,1.4,0.2c0.9,0,1.8-0.3,2.7-0.8c0.9-0.5,1.6-1.3,2.3-2.2
			c0.7-1,1.2-2.1,1.6-3.5c0.4-1.3,0.6-2.8,0.6-4.5c0-1-0.2-1.8-0.6-2.4C872.4,685.2,871.8,684.9,871.1,684.9z"/>
		<path class="st4" d="M891.2,699.3c-0.8,0.7-1.8,1.3-3,1.6c-1.1,0.4-2.3,0.6-3.4,0.6c-1.9,0-3.4-0.6-4.3-1.7
			c-1-1.1-1.5-2.6-1.5-4.6s0.3-3.7,0.8-5.3c0.6-1.6,1.3-2.9,2.2-4s1.9-1.9,3.1-2.5c1.1-0.6,2.3-0.9,3.5-0.9c0.9,0,1.6,0.1,2.2,0.4
			c0.6,0.2,1.2,0.6,1.6,1c0.4,0.4,0.7,0.9,0.9,1.4c0.2,0.5,0.3,1.1,0.3,1.6c0,1.7-0.8,3-2.5,4c-1.7,1-4.1,1.5-7.2,1.5
			c-0.3,0-0.6,0-0.9,0c-0.3,0-0.6,0-1-0.1c-0.1,0.5-0.2,0.9-0.2,1.3c0,0.4-0.1,0.8-0.1,1.1c0,1.3,0.3,2.4,0.9,3.2s1.5,1.2,2.8,1.2
			c1.1,0,2-0.2,2.9-0.5s1.6-0.7,2-1.1L891.2,699.3z M888.2,684.9c-1.3,0-2.5,0.5-3.4,1.3c-1,0.9-1.7,2.2-2.2,4.1
			c0.9,0,1.9,0,2.8-0.1c1,0,1.9-0.2,2.7-0.4c0.8-0.2,1.5-0.5,2-1c0.5-0.4,0.8-1.1,0.8-1.9c0-0.2,0-0.5-0.1-0.7s-0.2-0.5-0.4-0.7
			c-0.2-0.2-0.5-0.4-0.8-0.5S888.7,684.9,888.2,684.9z"/>
		<path class="st4" d="M906.9,685.4c-0.2,0-0.4-0.1-0.7-0.1c-0.2,0-0.4,0-0.6,0c-1.2,0-2.3,0.4-3.2,1.2c-0.9,0.8-1.6,1.7-2.1,2.8
			l-2.5,11.8h-2.7l3.8-18h1.9v3.1h0.1c0.3-0.5,0.6-0.9,0.9-1.3c0.3-0.4,0.7-0.8,1.1-1.1c0.4-0.3,0.9-0.6,1.3-0.7
			c0.5-0.2,1-0.3,1.6-0.3c0.5,0,1.1,0.1,1.7,0.3L906.9,685.4z"/>
		<path class="st4" d="M920.5,694c-0.2,0.9-0.3,1.8-0.4,2.7s-0.1,1.8-0.1,2.6c0,0.4,0,0.7,0,1c0,0.3,0,0.6,0.1,0.9h-2l-0.5-3.1h-0.1
			c-0.3,0.4-0.6,0.8-1.1,1.2c-0.4,0.4-0.9,0.8-1.4,1.1s-1,0.6-1.6,0.8c-0.6,0.2-1.2,0.3-1.8,0.3c-2.9,0-4.3-1.9-4.3-5.6
			c0-1.5,0.2-3.1,0.6-4.7c0.4-1.6,1-3,1.8-4.3c0.8-1.3,1.9-2.3,3.2-3.1c1.3-0.8,2.9-1.2,4.7-1.2c0.7,0,1.5,0.1,2.5,0.2
			c1,0.2,1.9,0.4,2.7,0.6L920.5,694z M912.4,699.2c0.6,0,1.1-0.1,1.7-0.4c0.5-0.3,1-0.6,1.5-1c0.5-0.4,0.9-0.8,1.2-1.3
			s0.6-0.9,0.9-1.3l2-9.7c-0.7-0.3-1.6-0.5-2.7-0.5c-1.1,0-2.1,0.3-2.9,1c-0.8,0.6-1.5,1.5-2.1,2.5s-1,2.2-1.3,3.5
			c-0.3,1.3-0.4,2.6-0.4,4c0,0.9,0.2,1.7,0.5,2.3C911.1,698.9,911.6,699.2,912.4,699.2z"/>
		<path class="st4" d="M925.7,683h2.7l0.8-3.6l2.9-0.8l-0.9,4.4h4.7l-0.5,2.3h-4.7l-2.3,10.9c0,0.3-0.1,0.6-0.1,0.8
			c0,0.2-0.1,0.5-0.1,0.6c0,0.6,0.1,1,0.4,1.2s0.7,0.3,1.2,0.3c0.6,0,1.1-0.1,1.6-0.2c0.5-0.1,1-0.4,1.4-0.6v2.2
			c-0.5,0.3-1.2,0.5-1.9,0.7c-0.8,0.2-1.5,0.3-2.3,0.3c-2.2,0-3.3-1-3.3-3c0-0.4,0.1-0.9,0.2-1.5l2.4-11.6h-2.7L925.7,683z"/>
		<path class="st4" d="M948.5,699.3c-0.8,0.7-1.8,1.3-3,1.6c-1.1,0.4-2.3,0.6-3.4,0.6c-1.9,0-3.4-0.6-4.3-1.7
			c-1-1.1-1.5-2.6-1.5-4.6s0.3-3.7,0.8-5.3c0.6-1.6,1.3-2.9,2.2-4c0.9-1.1,1.9-1.9,3.1-2.5c1.1-0.6,2.3-0.9,3.5-0.9
			c0.9,0,1.6,0.1,2.2,0.4c0.6,0.2,1.2,0.6,1.6,1c0.4,0.4,0.7,0.9,0.9,1.4c0.2,0.5,0.3,1.1,0.3,1.6c0,1.7-0.8,3-2.5,4
			c-1.7,1-4.1,1.5-7.2,1.5c-0.3,0-0.6,0-0.9,0c-0.3,0-0.6,0-1-0.1c-0.1,0.5-0.2,0.9-0.2,1.3s-0.1,0.8-0.1,1.1c0,1.3,0.3,2.4,0.9,3.2
			c0.6,0.8,1.5,1.2,2.8,1.2c1.1,0,2-0.2,2.9-0.5c0.9-0.3,1.6-0.7,2-1.1L948.5,699.3z M945.4,684.9c-1.3,0-2.5,0.5-3.4,1.3
			c-1,0.9-1.7,2.2-2.2,4.1c0.9,0,1.9,0,2.8-0.1c1,0,1.9-0.2,2.7-0.4s1.5-0.5,2-1c0.5-0.4,0.8-1.1,0.8-1.9c0-0.2,0-0.5-0.1-0.7
			c-0.1-0.3-0.2-0.5-0.4-0.7s-0.5-0.4-0.8-0.5C946.4,685,945.9,684.9,945.4,684.9z"/>
		<path class="st4" d="M960.4,696c0-0.6-0.2-1.2-0.5-1.6c-0.3-0.4-0.7-0.8-1.2-1.2c-0.5-0.3-1-0.7-1.5-1c-0.6-0.3-1.1-0.7-1.5-1.1
			c-0.5-0.4-0.9-0.9-1.2-1.5c-0.3-0.6-0.5-1.3-0.5-2.1c0-0.7,0.2-1.3,0.5-1.9c0.3-0.6,0.8-1.1,1.3-1.5s1.2-0.8,2-1
			c0.8-0.3,1.6-0.4,2.5-0.4c1.3,0,2.3,0.1,3,0.3c0.7,0.2,1.3,0.4,1.9,0.7l-0.9,2.2c-1-0.6-2.3-0.8-3.9-0.8c-1,0-1.8,0.2-2.5,0.6
			s-1,1.1-1,1.9c0,0.5,0.2,0.9,0.5,1.3c0.3,0.4,0.7,0.7,1.2,1.1c0.5,0.3,1,0.7,1.5,1c0.6,0.3,1.1,0.7,1.5,1.2c0.5,0.4,0.9,1,1.2,1.6
			c0.3,0.6,0.5,1.3,0.5,2.1c0,1.9-0.6,3.3-1.9,4.3c-1.3,1-2.9,1.5-5.1,1.5c-1.1,0-2.1-0.1-3-0.3c-0.9-0.2-1.6-0.5-2.2-0.8l1-2.3
			c0.5,0.3,1.1,0.6,1.9,0.8c0.8,0.2,1.6,0.3,2.4,0.3c1.2,0,2.1-0.3,2.8-0.8C960.1,697.9,960.4,697.1,960.4,696z"/>
	</g>
	<g class="st3">
		<path class="st4" d="M300.9,528.9c-0.2,0.9-0.3,1.8-0.4,2.7c-0.1,0.9-0.1,1.8-0.1,2.6c0,0.4,0,0.7,0,1c0,0.3,0,0.6,0.1,0.9h-2
			L298,533h-0.1c-0.3,0.4-0.6,0.8-1.1,1.2c-0.4,0.4-0.9,0.8-1.4,1.1s-1,0.6-1.6,0.8c-0.6,0.2-1.2,0.3-1.8,0.3
			c-2.9,0-4.3-1.9-4.3-5.6c0-1.5,0.2-3.1,0.6-4.7s1-3,1.8-4.3c0.8-1.3,1.9-2.3,3.2-3.1c1.3-0.8,2.9-1.2,4.7-1.2
			c0.7,0,1.5,0.1,2.5,0.2c1,0.2,1.9,0.4,2.7,0.6L300.9,528.9z M292.7,534.2c0.6,0,1.1-0.1,1.7-0.4c0.5-0.3,1-0.6,1.5-1
			c0.5-0.4,0.9-0.8,1.2-1.3s0.6-0.9,0.9-1.3l2-9.7c-0.7-0.3-1.6-0.5-2.7-0.5c-1.1,0-2.1,0.3-2.9,1c-0.8,0.6-1.5,1.5-2.1,2.5
			s-1,2.2-1.3,3.5c-0.3,1.3-0.4,2.6-0.4,4c0,0.9,0.2,1.7,0.5,2.3C291.4,533.9,292,534.2,292.7,534.2z"/>
		<path class="st4" d="M306.1,518h2.7l0.8-3.6l2.9-0.8l-0.9,4.4h4.7l-0.5,2.3h-4.7l-2.3,10.9c0,0.3-0.1,0.6-0.1,0.8
			c0,0.2-0.1,0.5-0.1,0.6c0,0.6,0.1,1,0.4,1.2s0.7,0.3,1.2,0.3c0.6,0,1.1-0.1,1.6-0.2c0.5-0.1,1-0.4,1.4-0.6v2.2
			c-0.5,0.3-1.2,0.5-1.9,0.7s-1.5,0.3-2.3,0.3c-2.2,0-3.3-1-3.3-3c0-0.4,0.1-0.9,0.2-1.5l2.4-11.6h-2.7L306.1,518z"/>
		<path class="st4" d="M317.4,518h2.7l0.8-3.6l2.9-0.8l-0.9,4.4h4.7l-0.5,2.3h-4.7l-2.3,10.9c0,0.3-0.1,0.6-0.1,0.8
			c0,0.2-0.1,0.5-0.1,0.6c0,0.6,0.1,1,0.4,1.2s0.7,0.3,1.2,0.3c0.6,0,1.1-0.1,1.6-0.2c0.5-0.1,1-0.4,1.4-0.6v2.2
			c-0.5,0.3-1.2,0.5-1.9,0.7s-1.5,0.3-2.3,0.3c-2.2,0-3.3-1-3.3-3c0-0.4,0.1-0.9,0.2-1.5l2.4-11.6h-2.7L317.4,518z"/>
		<path class="st4" d="M340.9,528.9c-0.2,0.9-0.3,1.8-0.4,2.7c-0.1,0.9-0.1,1.8-0.1,2.6c0,0.4,0,0.7,0,1c0,0.3,0,0.6,0.1,0.9h-2
			L338,533h-0.1c-0.3,0.4-0.6,0.8-1.1,1.2c-0.4,0.4-0.9,0.8-1.4,1.1s-1,0.6-1.6,0.8c-0.6,0.2-1.2,0.3-1.8,0.3
			c-2.9,0-4.3-1.9-4.3-5.6c0-1.5,0.2-3.1,0.6-4.7s1-3,1.8-4.3c0.8-1.3,1.9-2.3,3.2-3.1c1.3-0.8,2.9-1.2,4.7-1.2
			c0.7,0,1.5,0.1,2.5,0.2c1,0.2,1.9,0.4,2.7,0.6L340.9,528.9z M332.8,534.2c0.6,0,1.1-0.1,1.7-0.4c0.5-0.3,1-0.6,1.5-1
			c0.5-0.4,0.9-0.8,1.2-1.3s0.6-0.9,0.9-1.3l2-9.7c-0.7-0.3-1.6-0.5-2.7-0.5c-1.1,0-2.1,0.3-2.9,1c-0.8,0.6-1.5,1.5-2.1,2.5
			s-1,2.2-1.3,3.5c-0.3,1.3-0.4,2.6-0.4,4c0,0.9,0.2,1.7,0.5,2.3C331.5,533.9,332,534.2,332.8,534.2z"/>
		<path class="st4" d="M356.7,534.5c-0.4,0.3-0.8,0.6-1.2,0.8c-0.5,0.2-0.9,0.4-1.4,0.6c-0.5,0.2-1,0.3-1.5,0.4
			c-0.5,0.1-0.9,0.1-1.4,0.1c-1.2,0-2.1-0.2-2.9-0.6c-0.8-0.4-1.4-0.8-1.8-1.4c-0.4-0.6-0.7-1.2-0.9-1.9s-0.3-1.3-0.3-1.9
			c0-2,0.3-3.9,0.8-5.5c0.6-1.6,1.3-3,2.2-4.1c0.9-1.1,2-2,3.2-2.6c1.2-0.6,2.4-0.9,3.7-0.9c0.9,0,1.7,0.1,2.2,0.3
			c0.6,0.2,1.1,0.4,1.6,0.6l-1,2.2c-0.4-0.2-0.9-0.4-1.5-0.6c-0.6-0.1-1.2-0.2-1.9-0.2c-0.8,0-1.6,0.3-2.4,0.8
			c-0.8,0.6-1.5,1.3-2.1,2.2c-0.6,0.9-1.1,1.9-1.4,3.1c-0.4,1.2-0.5,2.4-0.5,3.6c0,1.6,0.3,2.7,1,3.5c0.6,0.7,1.5,1.1,2.6,1.1
			c0.7,0,1.5-0.2,2.3-0.5c0.8-0.3,1.4-0.7,1.9-1L356.7,534.5z"/>
	</g>
	<g class="st3">
		<path class="st4" d="M366.4,527.9h-1.9l-1.7,8.1H360l5.3-25.2h2.7l-3.3,15.3l1.5-0.4l6.5-7.7h3.3l-6.4,7.3l-1.7,1.2l1.4,1.4
			l4.1,8.1h-3L366.4,527.9z"/>
	</g>
	<g class="st3">
		<path class="st4" d="M971.9,859l2.4-11.4c0.1-0.4,0.2-0.9,0.3-1.3c0.1-0.4,0.1-0.8,0.1-1.1c0-0.7-0.2-1.3-0.5-1.7
			c-0.3-0.4-0.9-0.6-1.8-0.6c-0.6,0-1.2,0.1-1.8,0.4c-0.6,0.3-1.2,0.7-1.7,1.1c-0.5,0.4-1,0.9-1.4,1.5s-0.8,1.1-1.1,1.6L964,859
			h-2.7l3.8-18h1.9l-0.1,3.1h0.1c0.3-0.4,0.7-0.8,1.1-1.2c0.4-0.4,0.9-0.8,1.5-1.1c0.5-0.3,1.1-0.6,1.8-0.8c0.7-0.2,1.4-0.3,2.2-0.3
			c1.2,0,2.1,0.3,2.8,0.9c0.7,0.6,1,1.6,1,3c0,0.7-0.1,1.6-0.3,2.6l-2.6,12H971.9z"/>
		<path class="st4" d="M980.6,853.4c0-1.9,0.2-3.6,0.7-5.2c0.5-1.6,1.2-2.9,2-4c0.9-1.1,1.9-2,3-2.6c1.1-0.6,2.4-0.9,3.7-0.9
			c1,0,1.9,0.2,2.6,0.5c0.7,0.3,1.3,0.8,1.7,1.3c0.4,0.6,0.8,1.2,1,1.9c0.2,0.7,0.3,1.5,0.3,2.3c0,1.8-0.2,3.5-0.7,5
			c-0.5,1.6-1.1,2.9-1.9,4.1c-0.8,1.2-1.8,2.1-2.9,2.7c-1.1,0.7-2.3,1-3.6,1c-1.1,0-2-0.2-2.7-0.5s-1.3-0.8-1.8-1.4
			c-0.5-0.6-0.8-1.2-1-1.9S980.6,854.2,980.6,853.4z M983.5,852.8c0,1.4,0.3,2.5,0.8,3.3c0.5,0.8,1.4,1.1,2.5,1.1
			c0.8,0,1.5-0.3,2.2-0.8s1.3-1.3,1.9-2.3s1-2.1,1.3-3.3s0.5-2.5,0.5-3.9c0-1.2-0.2-2.2-0.7-2.9c-0.4-0.7-1.3-1.1-2.5-1.1
			c-0.8,0-1.5,0.3-2.3,0.8c-0.7,0.5-1.4,1.3-1.9,2.2s-1,2-1.3,3.1C983.6,850.2,983.5,851.5,983.5,852.8z"/>
		<path class="st4" d="M1021.2,852c-0.2,0.9-0.3,1.8-0.4,2.7s-0.1,1.8-0.1,2.6c0,0.4,0,0.7,0,1c0,0.3,0,0.6,0.1,0.9h-2l-0.5-3.1
			h-0.1c-0.3,0.4-0.6,0.8-1.1,1.2c-0.4,0.4-0.9,0.8-1.4,1.1s-1,0.6-1.6,0.8c-0.6,0.2-1.2,0.3-1.8,0.3c-2.9,0-4.3-1.9-4.3-5.6
			c0-1.5,0.2-3.1,0.6-4.7c0.4-1.6,1-3,1.8-4.3c0.8-1.3,1.9-2.3,3.2-3.1c1.3-0.8,2.9-1.2,4.7-1.2c0.7,0,1.5,0.1,2.5,0.2
			c1,0.2,1.9,0.4,2.7,0.6L1021.2,852z M1013.1,857.2c0.6,0,1.1-0.1,1.7-0.4c0.5-0.3,1-0.6,1.5-1c0.5-0.4,0.9-0.8,1.2-1.3
			s0.6-0.9,0.9-1.3l2-9.7c-0.7-0.3-1.6-0.5-2.7-0.5c-1.1,0-2.1,0.3-2.9,1c-0.8,0.6-1.5,1.5-2.1,2.5s-1,2.2-1.3,3.5
			c-0.3,1.3-0.4,2.6-0.4,4c0,0.9,0.2,1.7,0.5,2.3C1011.7,856.9,1012.3,857.2,1013.1,857.2z"/>
	</g>
	<g class="st3">
		<path class="st4" d="M1037,857.5c-0.4,0.3-0.8,0.6-1.2,0.8c-0.5,0.2-0.9,0.4-1.4,0.6c-0.5,0.2-1,0.3-1.5,0.4
			c-0.5,0.1-0.9,0.1-1.4,0.1c-1.2,0-2.1-0.2-2.9-0.6c-0.8-0.4-1.3-0.8-1.8-1.4c-0.4-0.6-0.7-1.2-0.9-1.9s-0.3-1.3-0.3-1.9
			c0-2,0.3-3.9,0.8-5.5c0.6-1.6,1.3-3,2.2-4.1c0.9-1.1,2-2,3.2-2.6c1.2-0.6,2.4-0.9,3.7-0.9c0.9,0,1.7,0.1,2.2,0.3s1.1,0.4,1.6,0.6
			l-1,2.2c-0.4-0.2-0.9-0.4-1.5-0.6s-1.2-0.2-1.9-0.2c-0.8,0-1.6,0.3-2.4,0.8s-1.5,1.3-2.1,2.2c-0.6,0.9-1.1,1.9-1.4,3.1
			c-0.4,1.2-0.5,2.4-0.5,3.6c0,1.6,0.3,2.7,1,3.5c0.6,0.7,1.5,1.1,2.6,1.1c0.7,0,1.5-0.2,2.3-0.5c0.8-0.3,1.4-0.7,1.9-1L1037,857.5z
			"/>
		<path class="st4" d="M1050,857.5c-0.4,0.3-0.8,0.6-1.2,0.8c-0.5,0.2-0.9,0.4-1.4,0.6c-0.5,0.2-1,0.3-1.5,0.4
			c-0.5,0.1-0.9,0.1-1.4,0.1c-1.2,0-2.1-0.2-2.9-0.6c-0.8-0.4-1.3-0.8-1.8-1.4c-0.4-0.6-0.7-1.2-0.9-1.9s-0.3-1.3-0.3-1.9
			c0-2,0.3-3.9,0.8-5.5c0.6-1.6,1.3-3,2.2-4.1c0.9-1.1,2-2,3.2-2.6c1.2-0.6,2.4-0.9,3.7-0.9c0.9,0,1.7,0.1,2.2,0.3s1.1,0.4,1.6,0.6
			l-1,2.2c-0.4-0.2-0.9-0.4-1.5-0.6s-1.2-0.2-1.9-0.2c-0.8,0-1.6,0.3-2.4,0.8s-1.5,1.3-2.1,2.2c-0.6,0.9-1.1,1.9-1.4,3.1
			c-0.4,1.2-0.5,2.4-0.5,3.6c0,1.6,0.3,2.7,1,3.5c0.6,0.7,1.5,1.1,2.6,1.1c0.7,0,1.5-0.2,2.3-0.5c0.8-0.3,1.4-0.7,1.9-1L1050,857.5z
			"/>
	</g>
	<g class="st3">
		<path class="st4" d="M1066,857.3c-0.8,0.7-1.8,1.3-3,1.6c-1.1,0.4-2.3,0.6-3.4,0.6c-1.9,0-3.4-0.6-4.3-1.7c-1-1.1-1.5-2.6-1.5-4.6
			s0.3-3.7,0.8-5.3c0.6-1.6,1.3-2.9,2.2-4s1.9-1.9,3.1-2.5c1.1-0.6,2.3-0.9,3.5-0.9c0.9,0,1.6,0.1,2.2,0.4c0.6,0.2,1.2,0.6,1.6,1
			c0.4,0.4,0.7,0.9,0.9,1.4c0.2,0.5,0.3,1.1,0.3,1.6c0,1.7-0.8,3-2.5,4c-1.7,1-4.1,1.5-7.2,1.5c-0.3,0-0.6,0-0.9,0
			c-0.3,0-0.6,0-1-0.1c-0.1,0.5-0.2,0.9-0.2,1.3c0,0.4-0.1,0.8-0.1,1.1c0,1.3,0.3,2.4,0.9,3.2s1.5,1.2,2.8,1.2c1.1,0,2-0.2,2.9-0.5
			s1.6-0.7,2-1.1L1066,857.3z M1063,842.9c-1.3,0-2.5,0.5-3.4,1.3c-1,0.9-1.7,2.2-2.2,4.1c0.9,0,1.9,0,2.8-0.1c1,0,1.9-0.2,2.7-0.4
			c0.8-0.2,1.5-0.5,2-1c0.5-0.4,0.8-1.1,0.8-1.9c0-0.2,0-0.5-0.1-0.7s-0.2-0.5-0.4-0.7c-0.2-0.2-0.5-0.4-0.8-0.5
			S1063.5,842.9,1063,842.9z"/>
		<path class="st4" d="M1078,854c0-0.6-0.2-1.2-0.5-1.6s-0.7-0.8-1.2-1.2s-1-0.7-1.5-1c-0.6-0.3-1.1-0.7-1.5-1.1
			c-0.5-0.4-0.9-0.9-1.2-1.5c-0.3-0.6-0.5-1.3-0.5-2.1c0-0.7,0.2-1.3,0.5-1.9c0.3-0.6,0.8-1.1,1.3-1.5s1.2-0.8,2-1
			c0.8-0.3,1.6-0.4,2.5-0.4c1.3,0,2.3,0.1,3,0.3s1.3,0.4,1.9,0.7l-0.9,2.2c-1-0.6-2.3-0.8-3.9-0.8c-1,0-1.8,0.2-2.5,0.6
			c-0.7,0.4-1,1.1-1,1.9c0,0.5,0.2,0.9,0.5,1.3c0.3,0.4,0.7,0.7,1.2,1.1c0.5,0.3,1,0.7,1.5,1c0.6,0.3,1.1,0.7,1.5,1.2
			c0.5,0.4,0.9,1,1.2,1.6c0.3,0.6,0.5,1.3,0.5,2.1c0,1.9-0.6,3.3-1.9,4.3c-1.3,1-2.9,1.5-5.1,1.5c-1.1,0-2.1-0.1-3-0.3
			c-0.9-0.2-1.6-0.5-2.2-0.8l1-2.3c0.5,0.3,1.1,0.6,1.9,0.8c0.8,0.2,1.6,0.3,2.4,0.3c1.2,0,2.1-0.3,2.8-0.8
			C1077.7,855.9,1078,855.1,1078,854z"/>
		<path class="st4" d="M1092.3,854c0-0.6-0.2-1.2-0.5-1.6c-0.3-0.4-0.7-0.8-1.2-1.2s-1-0.7-1.5-1c-0.6-0.3-1.1-0.7-1.5-1.1
			c-0.5-0.4-0.9-0.9-1.2-1.5c-0.3-0.6-0.5-1.3-0.5-2.1c0-0.7,0.2-1.3,0.5-1.9c0.3-0.6,0.8-1.1,1.3-1.5c0.6-0.4,1.2-0.8,2-1
			c0.8-0.3,1.6-0.4,2.5-0.4c1.3,0,2.3,0.1,3,0.3c0.7,0.2,1.3,0.4,1.9,0.7l-0.9,2.2c-1-0.6-2.3-0.8-3.9-0.8c-1,0-1.8,0.2-2.5,0.6
			c-0.7,0.4-1,1.1-1,1.9c0,0.5,0.2,0.9,0.5,1.3s0.7,0.7,1.2,1.1c0.5,0.3,1,0.7,1.5,1c0.6,0.3,1.1,0.7,1.5,1.2c0.5,0.4,0.9,1,1.2,1.6
			c0.3,0.6,0.5,1.3,0.5,2.1c0,1.9-0.6,3.3-1.9,4.3c-1.3,1-2.9,1.5-5.1,1.5c-1.1,0-2.1-0.1-3-0.3c-0.9-0.2-1.6-0.5-2.2-0.8l1-2.3
			c0.5,0.3,1.1,0.6,1.9,0.8c0.8,0.2,1.6,0.3,2.4,0.3c1.2,0,2.1-0.3,2.8-0.8C1092,855.9,1092.3,855.1,1092.3,854z"/>
	</g>
	<g>
		<line class="st8" x1="807.4" y1="446.4" x2="807.4" y2="320.4"/>
		<polygon class="st4" points="819.6,436.4 817.4,434.4 807.4,445.2 797.3,434.4 795.1,436.4 807.4,449.6 		"/>
	</g>
	<g>
		<line class="st8" x1="807.4" y1="662.6" x2="807.4" y2="788.6"/>
		<polygon class="st4" points="795.1,672.6 797.3,674.6 807.4,663.8 817.4,674.6 819.6,672.6 807.4,659.4 		"/>
	</g>
	<path class="st2" d="M1172,400H1144c-2.8,0-5,1.3-5,3v297c0,1.7,2.2,3,5,3h28.1"/>
	<g>
		<path class="st9" d="M143.1,523.9v13.7h54.4v-13.7H143.1z M177.8,530.1C177.8,530.1,177.8,530.1,177.8,530.1l7-3.5
			c1.5,1.4,1.9,3.9,0.4,6C182.5,535.3,178.1,533.9,177.8,530.1L177.8,530.1z M154.6,529.8c0-1.2,0.7-2.3,1.6-3.1l6.6,4.2
			c-0.2,0.7-0.5,1.3-1,1.9C158.8,535.3,154.6,533.6,154.6,529.8L154.6,529.8z"/>
		<path class="st10" d="M138.4,531.8c0,3.8,3.3,7,7.1,7v-14.1C141.7,524.8,138.4,528.1,138.4,531.8L138.4,531.8z"/>
		<path class="st10" d="M200.7,530.2v2.3c-0.4,3.3-3,5.9-6.1,5.9v-14.1C197.7,524.3,200.3,526.9,200.7,530.2L200.7,530.2z"/>
		<path class="st11" d="M201.7,527v-17.7c0-12.5-14.1-27.3-31.7-27.3c-17.6,0-31.7,14.7-31.7,27.3v18.1"/>
		<g>
			<path class="st12" d="M156.3,560.4v7.3h-2.9c-0.9,0-2,0-2.9,0.2c-3.4,0.5-6.6,1.9-9.1,4c-3.1,2.3-5.1,5.9-5.1,9.9v15h67.5v-15
				c0-4-2-7.5-5.1-9.9c-2.6-2.1-5.7-3.5-9.1-4c-0.9-0.2-2-0.2-2.9-0.2h-2.9v-7.3"/>
			<path class="st10" d="M193.9,525.1c0,5.7-0.2,8.2-0.2,13.9c0,13.2-10.5,24.8-23.7,24.8s-23.9-10.5-23.9-23.7v-15.9"/>
			<path class="st10" d="M194.7,524.3l-2-15.1c-4.7-1.2-26.6,11.9-36.7-4.5c0,0,2.5,8.1-10.6,17.5v2.1"/>
			<path class="st10" d="M176.8,546.6c-1.5,2.2-4.1,3.6-7,3.6s-5.3-1.5-7-3.6"/>
			<path class="st9" d="M170,482c17.6,0,31.7,14.7,31.7,27.3V527h-2.2c0.6,0.9,1.1,2,1.2,3.2v2.3c-0.3,2.2-1.5,4-3.2,5v0.1h-0.1
				c-0.9,0.5-1.8,0.8-2.8,0.8v-0.8h-1c0,0.5,0,0.9,0,1.4c0,8.9-4.8,17.1-11.9,21.5h1.9v7.3h2.9c0.9,0,2,0,2.9,0.2
				c3.4,0.5,6.6,1.9,9.1,4c3.1,2.3,5.1,5.9,5.1,9.9v15h-67.5v-15c0-4,2-7.5,5.1-9.9c2.6-2.1,5.7-3.5,9.1-4c0.9-0.2,2-0.2,2.9-0.2
				h2.9v-7.3h1.4c-6.9-4.1-11.6-11.6-11.6-20.3v-2.6h-0.6v1.3c-3.8,0-7.1-3.3-7.1-7c0-1.7,0.7-3.3,1.7-4.5h-1.9v-18
				C138.3,496.7,152.4,482,170,482 M170,476c-9.7,0-19.1,3.7-26.5,10.5c-7.1,6.5-11.2,14.8-11.2,22.8v18c0,0.7,0.1,1.4,0.4,2.1
				c-0.2,0.8-0.2,1.6-0.2,2.4c0,5.2,3.3,9.9,7.9,11.9c0.9,7.1,4.2,13.5,9.4,18.2c-0.1,0-0.2,0-0.3,0.1c-4.3,0.7-8.3,2.4-11.7,5.2
				c-4.7,3.6-7.4,8.9-7.4,14.6v15c0,3.3,2.7,6,6,6h67.5c3.3,0,6-2.7,6-6v-15c0-5.7-2.7-11-7.4-14.6c-3.4-2.7-7.4-4.5-11.7-5.2
				c-0.3-0.1-0.6-0.1-0.9-0.2l0,0c5.2-4.9,8.6-11.5,9.6-18.6c0.1,0,0.2-0.1,0.2-0.1c0.7-0.3,1.3-0.6,1.9-1.1
				c2.8-2.1,4.7-5.3,5.2-8.8c0-0.2,0-0.5,0-0.7v-2.2c0.6-1,1-2.1,1-3.3v-17.7c0-7.9-4.1-16.2-11.2-22.8
				C189.1,479.7,179.7,476,170,476L170,476L170,476z"/>
			<path class="st10" d="M141.4,572c2.6-2.1,5.7-3.5,9.1-4c0.9-0.2,2-0.2,2.9-0.2h2.9v-7.3h0.2c-6.7-4.3-11.1-11.8-11.1-20.4v-1.6
				c-3.8,0-7.1-3.3-7.1-7c0-1.5,0.5-2.8,1.3-4h-1.3v-18c0-12.5,14.1-27.3,31.7-27.3c17.6,0,31.7,14.7,31.7,27.3V527h-1.4
				c0.7,0.9,1.2,2,1.4,3.2v2.3c-0.5,3.3-3.5,5.9-7.1,5.9c0,0-0.2-4.5-0.2,0.5c0,8.8-4.6,17-11.5,21.6h0.8v7.3h2.9c0.9,0,2,0,2.9,0.2
				c3.4,0.5,6.6,1.9,9.1,4c3.1,2.3,5.1,5.9,5.1,9.9v15h-67.5v-15C136.3,577.8,138.3,574.3,141.4,572L141.4,572z"/>
		</g>
	</g>
	<g>
		<circle class="st13" cx="460.2" cy="552.7" r="23.7"/>
		<line class="st13" x1="476.9" y1="569.5" x2="443.4" y2="535.9"/>
	</g>
	<g>
		<circle class="st13" cx="1261.2" cy="784.7" r="23.7"/>
		<line class="st13" x1="1277.9" y1="801.5" x2="1244.4" y2="767.9"/>
	</g>
	<g>
		<line class="st14" x1="419.9" y1="553.5" x2="240" y2="553.5"/>
		<polygon class="st9" points="405.9,536.3 403.1,539.4 418.2,553.5 403.1,567.6 405.9,570.7 424.4,553.5 		"/>
	</g>
	<g>
		<polyline class="st14" points="883,880.5 1261,880.5 1261,833.5 		"/>
		<polygon class="st9" points="1278.2,847.5 1275.1,850.3 1261,835.2 1246.9,850.3 1243.8,847.5 1261,829 		"/>
	</g>
	<g>
		<path class="st10" d="M838.6,863.7h2c6-28.8-1-34.3-18.7-36.8c0-4.3-3.2-7.6-7.5-7.6l-24.3-0.2c-10.6-0.1-23.6,15.2-18.9,31.5
			l3.7,12.7l2.1,0c-0.4,0.3-0.8,0.6-1.1,1c-1.3,1.2-2.3,3.3-2.3,5.3c0,4,3.1,7.4,7.3,7.6v0l0,7.6c-0.1,10.4,7.5,19,17.5,20.3
			c0.1,0,0.2,0,0.2,0l0,8.8l-8.1,0c-0.8,0-1.8,0-2.5,0.2c-3,0.5-5.8,1.9-8.1,4.1c-2.8,2.4-4.6,6.1-4.6,10.2l0,7.3l0,7.3l7.6,0
			l49.8,0.3l7.6,0l0-7.3l0-7.3c0-3.9-1.7-7.6-4.5-10.3c-2-2.2-4.8-3.7-7.8-4.2c-1-0.2-8.3-0.3-9.1-0.3l-2.5,0l0-8.7
			c9.9-1.2,17.8-9.8,17.6-20l0-7.6l0.2-0.2c4,0,7.6-3.5,7.6-7.5C841.8,867.5,840.6,865,838.6,863.7L838.6,863.7z"/>
		<path class="st15" d="M817.7,866c1.1,0,2.3,1.2,2.3,2.3c0,2-2.3,2.9-3.9,1.6C814.7,868.2,815.7,866,817.7,866z"/>
		<circle class="st15" cx="798.8" cy="868.1" r="2.3"/>
		<path class="st10" d="M781.2,877.2v-1.3"/>
		<path class="st10" d="M780.2,874.2l0.1-12.9c-1.1,0.5-3.2,1.2-4.5,2.8c-1.3,1.3-2.3,3.3-2.4,5.4c0,4.1,3.3,7.8,7.7,7.8"/>
		<path class="st10" d="M835.2,860.4l-0.1,16.7c2.1,0,4.1-0.7,5.4-2.3c1.3-1.3,2.3-3.3,2.4-5.4c0-4.1-2.3-7.8-6.7-7.8"/>
		<path class="st10" d="M774.8,863l-3.8-12.9c-4.8-16.5,8.5-32.2,19.3-32.1l24.7,0.2c4.4,0,7.7,3.4,7.7,7.8
			c18,2.5,25.2,8.2,19.1,37.5"/>
		<path class="st10" d="M780.8,859.2l8.2,0.1c2.8,0,5.2-2.3,5.2-5.1c0-2.1,0.8-4.1,2.4-5.4s3.4-2.3,5.4-2.3h1.5
			c4.9,0,9.3-1.7,12.9-5l3.9-3.8v1c0,5.7,2.8,11.1,7.4,14.7l8,5.7"/>
		<path class="st10" d="M812.1,876l-13.1-0.1c-2.8,0-5.2,2.3-5.2,5.1v2.1c-0.3,1.8-1.8,3.1-3.9,3.1c-2.1,0-3.8-1.8-3.8-3.9V881
			l0-2.6c0-2.8-2.3-5.2-5.1-5.2v1.3l0,1.3l-0.1,7.7c-0.1,10.6,7.6,19.4,17.9,20.8c0.8,0,1.8,0.3,2.6,0.3l12.9,0.1l2.3,0
			c10.3-1,18.6-9.9,18.4-20.5l0.1-7.7v-1.5l0-1.3c-2.8,0-5.2,2.3-5.2,5.1l0,2.6v1.3c0,2.1-1.8,3.8-3.9,3.8c-1.8,0-3.3-1.3-3.8-3.1
			v-2.1c0-2.8-2.3-5.2-5.1-5.2l-5.4,0"/>
		<path class="st16" d="M814.3,887.8c-1.3,2-3.8,3.4-6.5,3.4s-4.9-1.3-6.5-3.4"/>
	</g>
</g>
</svg>
