<?xml version="1.0" encoding="utf-8"?>
<!-- Generator: Adobe Illustrator 24.0.0, SVG Export Plug-In . SVG Version: 6.00 Build 0)  -->
<svg version="1.1" id="Ebene_1" xmlns="http://www.w3.org/2000/svg" xmlns:xlink="http://www.w3.org/1999/xlink" x="0px" y="0px"
	 viewBox="0 0 267.9 263.5" style="enable-background:new 0 0 267.9 263.5;" xml:space="preserve">
<style type="text/css">
	.st0{enable-background:new    ;}
	.st1{fill:#330066;}
	.st2{fill:none;stroke:#FFCC00;stroke-width:2;stroke-linecap:round;stroke-linejoin:round;}
	.st3{fill:#FFCC00;}
	.st4{fill:url(#SVGID_1_);}
	.st5{fill:none;stroke:#FFCC00;stroke-width:2;stroke-miterlimit:10;}
	.st6{fill:#FFFFFF;stroke:#FFCC00;stroke-width:2;stroke-linecap:round;stroke-linejoin:round;}
	.st7{clip-path:url(#SVGID_3_);}
	.st8{clip-path:url(#SVGID_5_);}
	.st9{fill:#FFD138;}
	.st10{fill:#FDFEFF;}
	.st11{fill:#FFFFFF;}
</style>
<g id="Ebene_2_1_">
	<g class="st0">
		<path class="st1" d="M42,242h-1.3l-0.2-1.1c-0.2-0.2-0.4-0.3-0.6-0.4s-0.6-0.1-0.9-0.1c-0.7,0-1.3,0.3-1.7,0.8s-0.6,1.2-0.6,2.1
			v0.3c0,0.9,0.2,1.6,0.6,2.1s1,0.8,1.7,0.8c0.3,0,0.6,0,0.9-0.1s0.5-0.2,0.6-0.4l0.2-1.1H42v1.7c-0.3,0.4-0.8,0.7-1.3,1
			s-1.1,0.4-1.8,0.4c-1.1,0-2.1-0.4-2.8-1.2s-1.1-1.8-1.1-3.1v-0.3c0-1.2,0.4-2.3,1.1-3.1s1.7-1.2,2.8-1.2c0.7,0,1.3,0.1,1.8,0.4
			s1,0.6,1.3,1V242z"/>
		<path class="st1" d="M42.9,244.4c0-0.9,0.3-1.7,0.8-2.3s1.3-0.9,2.2-0.9c0.9,0,1.7,0.3,2.2,0.9s0.8,1.4,0.8,2.3v0.1
			c0,1-0.3,1.7-0.8,2.3s-1.3,0.9-2.2,0.9c-0.9,0-1.7-0.3-2.2-0.9s-0.8-1.4-0.8-2.3V244.4z M44.6,244.5c0,0.6,0.1,1,0.3,1.4
			s0.5,0.5,1,0.5c0.4,0,0.8-0.2,1-0.5s0.3-0.8,0.3-1.4v-0.1c0-0.6-0.1-1-0.3-1.4s-0.5-0.5-1-0.5s-0.8,0.2-1,0.5s-0.3,0.8-0.3,1.4
			V244.5z"/>
		<path class="st1" d="M49.5,246.6l0.8-0.2v-3.9l-0.9-0.2v-1h2.5l0.1,0.9c0.2-0.3,0.5-0.6,0.8-0.8s0.7-0.3,1-0.3
			c0.6,0,1.1,0.2,1.5,0.6s0.5,1,0.5,1.9v2.8l0.8,0.2v1h-3.3v-1l0.7-0.2v-2.8c0-0.4-0.1-0.7-0.3-0.9s-0.4-0.3-0.8-0.3
			c-0.2,0-0.4,0-0.6,0.1s-0.3,0.2-0.5,0.4v3.4l0.7,0.2v1h-3.2V246.6z"/>
		<path class="st1" d="M59.7,239.8v1.6h1.1v1.2h-1.1v3.2c0,0.2,0.1,0.4,0.2,0.5s0.2,0.2,0.4,0.2c0.1,0,0.2,0,0.3,0s0.2,0,0.3,0
			l0.1,1.2c-0.2,0.1-0.4,0.1-0.6,0.1s-0.4,0-0.6,0c-0.6,0-1-0.2-1.4-0.5s-0.5-0.8-0.5-1.5v-3.2h-0.9v-1.2H58v-1.6H59.7z"/>
		<path class="st1" d="M65.7,247.7c0-0.1-0.1-0.2-0.1-0.3s-0.1-0.2-0.1-0.3c-0.2,0.2-0.5,0.4-0.7,0.6s-0.6,0.2-1,0.2
			c-0.6,0-1.1-0.2-1.5-0.5s-0.5-0.8-0.5-1.4c0-0.6,0.2-1.1,0.7-1.4s1.2-0.5,2.1-0.5h0.9v-0.6c0-0.3-0.1-0.5-0.3-0.7
			s-0.4-0.3-0.8-0.3c-0.2,0-0.4,0-0.5,0.1s-0.3,0.1-0.4,0.2l-0.1,0.7h-1.3l0-1.4c0.3-0.2,0.7-0.4,1.1-0.5s0.8-0.2,1.3-0.2
			c0.8,0,1.4,0.2,1.9,0.6s0.7,0.9,0.7,1.6v2.6c0,0.1,0,0.2,0,0.3s0,0.2,0,0.2l0.5,0.1v1H65.7z M64.2,246.5c0.3,0,0.5-0.1,0.7-0.2
			s0.4-0.3,0.5-0.4v-1h-0.9c-0.4,0-0.6,0.1-0.8,0.3s-0.3,0.4-0.3,0.6c0,0.2,0.1,0.4,0.2,0.5S64,246.5,64.2,246.5z"/>
		<path class="st1" d="M68.2,246.6l0.8-0.2v-3.9l-0.9-0.2v-1h2.6v5.1l0.8,0.2v1h-3.4V246.6z M70.8,239.8H69v-1.3h1.7V239.8z"/>
	</g>
	<g class="st0">
		<path class="st1" d="M72,246.6l0.8-0.2v-3.9l-0.9-0.2v-1h2.5l0.1,0.9c0.2-0.3,0.5-0.6,0.8-0.8s0.7-0.3,1-0.3
			c0.6,0,1.1,0.2,1.5,0.6s0.5,1,0.5,1.9v2.8l0.8,0.2v1h-3.3v-1l0.7-0.2v-2.8c0-0.4-0.1-0.7-0.3-0.9s-0.4-0.3-0.8-0.3
			c-0.2,0-0.4,0-0.6,0.1s-0.3,0.2-0.5,0.4v3.4l0.7,0.2v1H72V246.6z"/>
	</g>
	<g class="st0">
		<path class="st1" d="M82.7,247.8c-0.9,0-1.6-0.3-2.2-0.9s-0.8-1.3-0.8-2.2v-0.2c0-0.9,0.3-1.7,0.8-2.3s1.2-0.9,2.1-0.9
			c0.9,0,1.5,0.3,2,0.8s0.7,1.2,0.7,2.1v0.9h-3.8l0,0c0,0.4,0.2,0.8,0.4,1s0.6,0.4,1,0.4c0.4,0,0.7,0,0.9-0.1s0.5-0.2,0.8-0.4
			l0.5,1.1c-0.3,0.2-0.6,0.4-1,0.5S83.2,247.8,82.7,247.8z M82.6,242.5c-0.3,0-0.6,0.1-0.8,0.4s-0.3,0.6-0.3,1l0,0h2.1v-0.2
			c0-0.4-0.1-0.7-0.3-0.9S82.9,242.5,82.6,242.5z"/>
		<path class="st1" d="M86.2,246.6l0.8-0.2v-3.9l-0.9-0.2v-1h2.5l0.1,0.9c0.1-0.3,0.3-0.6,0.6-0.8s0.5-0.3,0.8-0.3
			c0.1,0,0.2,0,0.3,0s0.2,0,0.2,0l-0.2,1.6l-0.7,0c-0.3,0-0.5,0-0.6,0.1s-0.3,0.2-0.4,0.4v3.1l0.8,0.2v1h-3.4V246.6z"/>
	</g>
	<path class="st2" d="M21.3,247.5H17c-0.6,0-0.8-0.2-0.8-0.8v-6.5c0-0.6,0.2-0.8,0.8-0.8h8.5c0.5,0,0.8,0.2,0.8,0.8v6.5
		c0,0.5-0.2,0.8-0.8,0.8C24.1,247.5,22.6,247.5,21.3,247.5z"/>
	<path class="st2" d="M16.9,238.8c0-1.8,1-3.4,2.6-4.1c2.1-0.9,4.6,0,5.5,2.2c0.1,0.2,0.2,0.5,0.2,0.7c0.1,0.4,0.1,0.8,0.2,1.2"/>
	<path class="st3" d="M20.6,244.7L20.6,244.7v0.9c0,0.2,0.1,0.2,0.3,0.2h0.8c0.2,0,0.3-0.1,0.3-0.3v-1.6c0-0.2,0.1-0.3,0.2-0.4
		c0.5-0.3,0.8-0.9,0.6-1.4c-0.2-0.6-0.8-1-1.5-1c-0.7-0.1-1.3,0.3-1.6,0.9c-0.2,0.6,0,1.2,0.5,1.5c0.2,0.1,0.3,0.3,0.3,0.5
		C20.6,244.2,20.6,244.5,20.6,244.7z"/>
	
		<linearGradient id="SVGID_1_" gradientUnits="userSpaceOnUse" x1="46.69" y1="124.68" x2="218.48" y2="124.68" gradientTransform="matrix(1 0 0 -1 0 266)">
		<stop  offset="0" style="stop-color:#990066"/>
		<stop  offset="0.19" style="stop-color:#780066"/>
		<stop  offset="0.4" style="stop-color:#5A0066"/>
		<stop  offset="0.61" style="stop-color:#440066"/>
		<stop  offset="0.81" style="stop-color:#370066"/>
		<stop  offset="1" style="stop-color:#330066"/>
	</linearGradient>
	<path class="st4" d="M51.7,88.6h161.8c2.8,0,5,2.2,5,5V189c0,2.8-2.2,5-5,5H51.7c-2.8,0-5-2.2-5-5V93.6
		C46.7,90.9,48.9,88.6,51.7,88.6z"/>
	<path class="st5" d="M51.7,88.6h161.8c2.8,0,5,2.2,5,5V189c0,2.8-2.2,5-5,5H51.7c-2.8,0-5-2.2-5-5V93.6
		C46.7,90.9,48.9,88.6,51.7,88.6z"/>
	<path class="st2" d="M69,134.9h126.6c2.8,0,5,2.2,5,5v17.2c0,2.8-2.2,5-5,5H69c-2.8,0-5-2.2-5-5v-17.2
		C64,137.1,66.2,134.9,69,134.9z"/>
	<g class="st0">
		<path class="st3" d="M99.6,151.8l0.6-0.1l2.6-7.4h1.8l2.6,7.4l0.6,0.1v1h-2.9v-1l0.6-0.1l-0.4-1.2h-2.8l-0.4,1.2l0.6,0.1v1h-2.9
			V151.8z M102.7,149.3h2l-1-3h0L102.7,149.3z"/>
		<path class="st3" d="M108.2,147.5v-1h2.5l0.1,0.7c0.2-0.3,0.4-0.5,0.7-0.6s0.6-0.2,0.9-0.2c0.8,0,1.4,0.3,1.8,0.9s0.7,1.4,0.7,2.4
			v0.1c0,0.9-0.2,1.7-0.7,2.3s-1,0.9-1.8,0.9c-0.3,0-0.6-0.1-0.9-0.2s-0.5-0.3-0.7-0.5v1.8l0.8,0.2v1h-3.4v-1l0.8-0.2v-6.4
			L108.2,147.5z M113.1,149.7c0-0.6-0.1-1.1-0.3-1.5s-0.5-0.6-0.9-0.6c-0.3,0-0.5,0.1-0.7,0.2s-0.3,0.3-0.4,0.5v2.8
			c0.1,0.2,0.2,0.3,0.4,0.4s0.4,0.1,0.7,0.1c0.4,0,0.7-0.2,0.9-0.5s0.3-0.8,0.3-1.3V149.7z"/>
	</g>
	<g class="st0">
		<path class="st3" d="M115.5,147.5v-1h2.5l0.1,0.7c0.2-0.3,0.4-0.5,0.7-0.6s0.6-0.2,0.9-0.2c0.8,0,1.4,0.3,1.8,0.9s0.7,1.4,0.7,2.4
			v0.1c0,0.9-0.2,1.7-0.7,2.3s-1,0.9-1.8,0.9c-0.3,0-0.6-0.1-0.9-0.2s-0.5-0.3-0.7-0.5v1.8l0.8,0.2v1h-3.4v-1l0.8-0.2v-6.4
			L115.5,147.5z M120.4,149.7c0-0.6-0.1-1.1-0.3-1.5s-0.5-0.6-0.9-0.6c-0.3,0-0.5,0.1-0.7,0.2s-0.3,0.3-0.4,0.5v2.8
			c0.1,0.2,0.2,0.3,0.4,0.4s0.4,0.1,0.7,0.1c0.4,0,0.7-0.2,0.9-0.5s0.3-0.8,0.3-1.3V149.7z"/>
	</g>
	<g class="st0">
		<path class="st3" d="M122.6,144.7v-1h2.6v7.9l0.8,0.2v1h-3.4v-1l0.8-0.2v-6.7L122.6,144.7z"/>
		<path class="st3" d="M126.5,151.8l0.8-0.2v-3.9l-0.9-0.2v-1h2.6v5.1l0.8,0.2v1h-3.4V151.8z M129,145h-1.7v-1.3h1.7V145z"/>
		<path class="st3" d="M133.4,151.6c0.3,0,0.5-0.1,0.7-0.3s0.3-0.4,0.3-0.7h1.5l0,0c0,0.6-0.2,1.2-0.7,1.6s-1.1,0.6-1.9,0.6
			c-0.9,0-1.7-0.3-2.2-0.9s-0.8-1.4-0.8-2.3v-0.2c0-0.9,0.3-1.7,0.8-2.3s1.3-0.9,2.2-0.9c0.5,0,1,0.1,1.4,0.2s0.7,0.4,1,0.6l0,1.7
			h-1.4l-0.3-1c-0.1-0.1-0.2-0.1-0.3-0.2s-0.3-0.1-0.4-0.1c-0.5,0-0.8,0.2-1,0.5s-0.3,0.8-0.3,1.4v0.2c0,0.6,0.1,1,0.3,1.4
			S132.9,151.6,133.4,151.6z"/>
	</g>
	<g class="st0">
		<path class="st3" d="M140.8,152.8c0-0.1-0.1-0.2-0.1-0.3s-0.1-0.2-0.1-0.3c-0.2,0.2-0.5,0.4-0.7,0.6s-0.6,0.2-1,0.2
			c-0.6,0-1.1-0.2-1.5-0.5s-0.5-0.8-0.5-1.4c0-0.6,0.2-1.1,0.7-1.4s1.2-0.5,2.1-0.5h0.9v-0.6c0-0.3-0.1-0.5-0.3-0.7
			s-0.4-0.3-0.8-0.3c-0.2,0-0.4,0-0.5,0.1s-0.3,0.1-0.4,0.2l-0.1,0.7h-1.3l0-1.4c0.3-0.2,0.7-0.4,1.1-0.5s0.8-0.2,1.3-0.2
			c0.8,0,1.4,0.2,1.9,0.6s0.7,0.9,0.7,1.6v2.6c0,0.1,0,0.2,0,0.3s0,0.2,0,0.2l0.5,0.1v1H140.8z M139.3,151.7c0.3,0,0.5-0.1,0.7-0.2
			s0.4-0.3,0.5-0.4v-1h-0.9c-0.4,0-0.6,0.1-0.8,0.3s-0.3,0.4-0.3,0.6c0,0.2,0.1,0.4,0.2,0.5S139.1,151.7,139.3,151.7z"/>
	</g>
	<g class="st0">
		<path class="st3" d="M145.4,144.9v1.6h1.1v1.2h-1.1v3.2c0,0.2,0.1,0.4,0.2,0.5s0.2,0.2,0.4,0.2c0.1,0,0.2,0,0.3,0s0.2,0,0.3,0
			l0.1,1.2c-0.2,0.1-0.4,0.1-0.6,0.1s-0.4,0-0.6,0c-0.6,0-1-0.2-1.4-0.5s-0.5-0.8-0.5-1.5v-3.2h-0.9v-1.2h0.9v-1.6H145.4z"/>
		<path class="st3" d="M147.3,151.8l0.8-0.2v-3.9l-0.9-0.2v-1h2.6v5.1l0.8,0.2v1h-3.4V151.8z M149.8,145h-1.7v-1.3h1.7V145z"/>
		<path class="st3" d="M151.2,149.6c0-0.9,0.3-1.7,0.8-2.3s1.3-0.9,2.2-0.9c0.9,0,1.7,0.3,2.2,0.9s0.8,1.4,0.8,2.3v0.1
			c0,1-0.3,1.7-0.8,2.3s-1.3,0.9-2.2,0.9c-0.9,0-1.7-0.3-2.2-0.9s-0.8-1.4-0.8-2.3V149.6z M152.9,149.7c0,0.6,0.1,1,0.3,1.4
			s0.5,0.5,1,0.5c0.4,0,0.8-0.2,1-0.5s0.3-0.8,0.3-1.4v-0.1c0-0.6-0.1-1-0.3-1.4s-0.5-0.5-1-0.5s-0.8,0.2-1,0.5s-0.3,0.8-0.3,1.4
			V149.7z"/>
		<path class="st3" d="M157.9,151.8l0.8-0.2v-3.9l-0.9-0.2v-1h2.5l0.1,0.9c0.2-0.3,0.5-0.6,0.8-0.8s0.7-0.3,1-0.3
			c0.6,0,1.1,0.2,1.5,0.6s0.5,1,0.5,1.9v2.8l0.8,0.2v1h-3.3v-1l0.7-0.2v-2.8c0-0.4-0.1-0.7-0.3-0.9s-0.4-0.3-0.8-0.3
			c-0.2,0-0.4,0-0.6,0.1s-0.3,0.2-0.5,0.4v3.4l0.7,0.2v1h-3.2V151.8z"/>
	</g>
	<path class="st6" d="M123.3,76.8c4.6-4.5,12.1-4.5,16.6,0.1s4.5,12.1-0.1,16.6c-4.6,4.5-12.1,4.5-16.6-0.1
		c-2.2-2.2-3.4-5.1-3.4-8.2c0-2.6,0.8-5.1,2.4-7.1"/>
	<path class="st2" d="M131.5,90.9h-4.3c-0.6,0-0.8-0.2-0.8-0.8v-6.5c0-0.6,0.2-0.8,0.8-0.8h8.5c0.6,0,0.8,0.2,0.8,0.8v6.5
		c0,0.6-0.2,0.8-0.8,0.8C134.3,90.9,132.9,90.9,131.5,90.9z"/>
	<path class="st2" d="M127.2,82.2c0-1.8,1-3.4,2.6-4.1c2.1-0.9,4.6,0,5.5,2.2c0.1,0.2,0.2,0.5,0.2,0.7c0.1,0.4,0.1,0.8,0.2,1.2"/>
	<path class="st3" d="M130.8,88.1L130.8,88.1V89c0,0.2,0.1,0.2,0.3,0.2h0.8c0.2,0,0.3-0.1,0.3-0.3v-1.6c0-0.2,0.1-0.3,0.2-0.4
		c0.5-0.3,0.8-0.9,0.6-1.4c-0.2-0.6-0.8-1-1.4-1c-0.7-0.1-1.3,0.3-1.6,0.9c-0.2,0.6,0,1.2,0.5,1.5c0.2,0.1,0.3,0.3,0.3,0.5
		C130.8,87.6,130.8,87.9,130.8,88.1z"/>
	<g id="Scone_logo_white">
		<g>
			<defs>
				<rect id="SVGID_2_" x="114.4" y="176.9" width="36.3" height="7.1"/>
			</defs>
			<clipPath id="SVGID_3_">
				<use xlink:href="#SVGID_2_"  style="overflow:visible;"/>
			</clipPath>
			<g class="st7">
				<g>
					<defs>
						<rect id="SVGID_4_" x="114.4" y="176.9" width="36.3" height="7.1"/>
					</defs>
					<clipPath id="SVGID_5_">
						<use xlink:href="#SVGID_4_"  style="overflow:visible;"/>
					</clipPath>
					<g class="st8">
						<path class="st9" d="M119.2,178.7h-0.8c-0.2,0-0.3,0.1-0.3,0.3v0.8c0,0.2,0.1,0.3,0.3,0.3h0.8c0.2,0,0.3-0.1,0.3-0.3V179
							C119.5,178.8,119.4,178.7,119.2,178.7 M116.6,180.1h0.8c0.2,0,0.3-0.1,0.3-0.3V179c0-0.2-0.1-0.3-0.3-0.3h-0.8
							c-0.2,0-0.3,0.1-0.3,0.3v0.8C116.3,179.9,116.4,180.1,116.6,180.1 M115.8,179.8V179c0-0.2-0.1-0.3-0.3-0.3c0,0,0,0,0,0h-0.8
							c-0.2,0-0.3,0.1-0.3,0.3v0.8c0,0.2,0.1,0.3,0.3,0.3h0.8C115.6,180.1,115.8,180,115.8,179.8
							C115.8,179.8,115.8,179.8,115.8,179.8 M119.3,180.6c-0.1,0-0.2,0.1-0.2,0.2v0.9c0,0.1,0.1,0.2,0.2,0.2c0.1,0,0.2-0.1,0.2-0.2
							v-0.9C119.5,180.7,119.4,180.6,119.3,180.6C119.3,180.6,119.3,180.6,119.3,180.6 M117.2,180.9v0.8c0,0.2,0.1,0.3,0.3,0.3h0.8
							c0.2,0,0.3-0.1,0.3-0.3c0,0,0,0,0,0v-0.8c0-0.2-0.1-0.3-0.3-0.3c0,0,0,0,0,0h-0.8C117.3,180.6,117.2,180.7,117.2,180.9
							 M116.7,181.7v-0.8c0-0.2-0.1-0.3-0.3-0.3h-0.8c-0.2,0-0.3,0.1-0.3,0.3v0.8c0,0.2,0.1,0.3,0.3,0.3h0.8
							C116.5,182,116.7,181.8,116.7,181.7 M119.2,182.5h-0.8c-0.2,0-0.3,0.1-0.3,0.3v0.8c0,0.2,0.1,0.3,0.3,0.3h0.8
							c0.2,0,0.3-0.1,0.3-0.3v-0.8C119.5,182.6,119.4,182.5,119.2,182.5 M117.2,182.5h-0.8c-0.2,0-0.3,0.1-0.3,0.3v0.8
							c0,0.2,0.1,0.3,0.3,0.3h0.8c0.2,0,0.3-0.1,0.3-0.3v-0.8C117.5,182.6,117.4,182.5,117.2,182.5"/>
						<path class="st9" d="M120.2,178.4c0.3,0.3,0.8,0.4,1.2,0.4c0,0,0,0,0,0.1v2.1c0,0.8-1,1.3-1.2,1.4l0,0L120.2,178.4
							L120.2,178.4"/>
						<path class="st9" d="M117.8,178.3c1.6-0.1,1.9-0.6,1.9-0.6c0,0,0.1,0,0.1,0c0,0,0,0,0.1,0s0.3,0.6,1.9,0.6c0,0,0.1,0,0.1,0.1
							v2.8c0,0.9-1.7,1.9-1.7,1.9l-0.1,0v0.7c0,0,0.1,0,0.2,0c0.6-0.3,2.3-1.3,2.3-2.5v-3.5c0-0.1-0.1-0.1-0.2-0.1
							c-2,0-2.4-0.7-2.4-0.7s-0.1,0-0.1,0s-0.1,0-0.1,0s-0.3,0.8-2.4,0.8c-0.1,0-0.1,0-0.1,0.1v0.4c0,0,0,0.1,0.1,0.1
							S117.8,178.3,117.8,178.3"/>
						<path class="st10" d="M124,182.8l0.8-0.3c0.2,0.4,0.6,0.6,1.1,0.6c0.2,0,0.4,0,0.6-0.1c0.2-0.1,0.3-0.3,0.3-0.4
							c0-0.4-0.6-0.7-1-0.9l0,0c-0.4-0.1-0.7-0.3-1-0.5c-0.3-0.2-0.5-0.6-0.5-1c0-0.4,0.2-0.8,0.5-1c0.3-0.3,0.8-0.4,1.2-0.4
							c0.7,0,1.3,0.3,1.6,0.9l-0.8,0.3c-0.1-0.1-0.2-0.2-0.3-0.3c-0.1-0.1-0.3-0.1-0.5-0.1c-0.5,0-0.8,0.3-0.8,0.6
							c0,0.2,0.1,0.4,0.3,0.5c0.2,0.1,0.5,0.3,0.7,0.4h0.1c0.6,0.3,1.4,0.6,1.4,1.4c0,0.4-0.2,0.8-0.6,1c-0.4,0.3-0.9,0.4-1.3,0.4
							C125.1,183.8,124.4,183.4,124,182.8"/>
						<path class="st10" d="M131.3,183.9c-0.3,0-0.7-0.1-1-0.2c-0.3-0.1-0.6-0.3-0.8-0.6c-0.2-0.2-0.4-0.5-0.6-0.8
							c-0.3-0.6-0.3-1.4,0-2c0.3-0.6,0.8-1.1,1.4-1.4c0.3-0.1,0.7-0.2,1-0.2c0.4,0,0.8,0.1,1.2,0.3c0.3,0.2,0.7,0.4,0.9,0.7
							l-0.7,0.5c-0.2-0.2-0.4-0.4-0.6-0.5c-0.2-0.1-0.5-0.2-0.8-0.2c-1,0-1.7,0.8-1.7,1.7c0,1,0.8,1.7,1.7,1.7
							c0.3,0,0.6-0.1,0.9-0.2c0.3-0.2,0.5-0.4,0.6-0.6l0.8,0.4c-0.2,0.4-0.5,0.8-0.9,1C132.2,183.8,131.8,184,131.3,183.9"/>
						<path class="st10" d="M137,183.9c-0.3,0-0.7-0.1-1-0.2c-0.3-0.1-0.6-0.3-0.8-0.6c-0.2-0.2-0.4-0.5-0.6-0.8
							c-0.1-0.3-0.2-0.7-0.2-1c0-0.3,0.1-0.7,0.2-1c0.1-0.3,0.3-0.6,0.6-0.8c0.2-0.2,0.5-0.4,0.8-0.6c0.6-0.3,1.4-0.3,2,0
							c0.3,0.1,0.6,0.3,0.8,0.6c0.2,0.2,0.4,0.5,0.6,0.8c0.1,0.3,0.2,0.7,0.2,1c0,0.3-0.1,0.7-0.2,1c-0.1,0.3-0.3,0.6-0.6,0.8
							c-0.2,0.2-0.5,0.4-0.8,0.6C137.7,183.8,137.3,183.9,137,183.9 M137,179.6c-0.5,0-0.9,0.2-1.2,0.5c-0.3,0.3-0.5,0.8-0.5,1.2
							c0,0.5,0.2,0.9,0.5,1.2c0.3,0.3,0.8,0.5,1.2,0.5c0.5,0,0.9-0.2,1.2-0.5c0.3-0.3,0.5-0.8,0.5-1.2c0-0.5-0.2-0.9-0.5-1.2
							C137.9,179.7,137.5,179.5,137,179.6"/>
						<polygon class="st10" points="145.4,178.8 145.4,184 141.8,180.7 141.8,183.8 140.9,183.8 140.9,178.6 144.5,181.9 
							144.5,178.8 						"/>
						<polygon class="st10" points="147.9,179.5 147.9,180.9 150.4,180.9 150.4,181.7 147.9,181.7 147.9,183 150.8,183 150.8,183.8 
							147,183.8 147,178.8 150.8,178.8 150.8,179.5 147.9,179.5 						"/>
					</g>
				</g>
			</g>
		</g>
	</g>
	<g class="st0">
		<path class="st11" d="M82.4,113.4v-1h3.5v1l-0.9,0.2v6.1l0.9,0.2v1h-3.5v-1l0.9-0.2v-6.1L82.4,113.4z"/>
		<path class="st11" d="M86.5,119.9l0.8-0.2v-3.9l-0.9-0.2v-1h2.5l0.1,0.9c0.2-0.3,0.5-0.6,0.8-0.8s0.7-0.3,1-0.3
			c0.6,0,1.1,0.2,1.5,0.6s0.5,1,0.5,1.9v2.8l0.8,0.2v1h-3.3v-1l0.7-0.2v-2.8c0-0.4-0.1-0.7-0.3-0.9s-0.4-0.3-0.8-0.3
			c-0.2,0-0.4,0-0.6,0.1s-0.3,0.2-0.5,0.4v3.4l0.7,0.2v1h-3.2V119.9z"/>
		<path class="st11" d="M96.7,113v1.6h1.1v1.2h-1.1v3.2c0,0.2,0.1,0.4,0.2,0.5s0.2,0.2,0.4,0.2c0.1,0,0.2,0,0.3,0s0.2,0,0.3,0
			l0.1,1.2c-0.2,0.1-0.4,0.1-0.6,0.1s-0.4,0-0.6,0c-0.6,0-1-0.2-1.4-0.5S95,119.7,95,119v-3.2h-0.9v-1.2H95V113H96.7z"/>
		<path class="st11" d="M101.7,121c-0.9,0-1.6-0.3-2.2-0.9s-0.8-1.3-0.8-2.2v-0.2c0-0.9,0.3-1.7,0.8-2.3s1.2-0.9,2.1-0.9
			c0.9,0,1.5,0.3,2,0.8s0.7,1.2,0.7,2.1v0.9h-3.8l0,0c0,0.4,0.2,0.8,0.4,1s0.6,0.4,1,0.4c0.4,0,0.7,0,0.9-0.1s0.5-0.2,0.8-0.4
			l0.5,1.1c-0.3,0.2-0.6,0.4-1,0.5S102.2,121,101.7,121z M101.6,115.8c-0.3,0-0.6,0.1-0.8,0.4s-0.3,0.6-0.3,1l0,0h2.1V117
			c0-0.4-0.1-0.7-0.3-0.9S101.9,115.8,101.6,115.8z"/>
		<path class="st11" d="M104.9,112.8v-1h2.6v7.9l0.8,0.2v1H105v-1l0.8-0.2V113L104.9,112.8z"/>
		<path class="st11" d="M118.3,115.1H117l-0.2-1.2c-0.1-0.1-0.4-0.2-0.7-0.2s-0.6-0.1-0.9-0.1c-0.5,0-0.8,0.1-1.1,0.3
			s-0.4,0.5-0.4,0.8c0,0.3,0.1,0.5,0.4,0.7s0.7,0.4,1.4,0.6c0.9,0.3,1.7,0.6,2.1,1s0.7,1,0.7,1.7c0,0.7-0.3,1.3-0.9,1.7
			s-1.3,0.6-2.3,0.6c-0.7,0-1.3-0.1-1.8-0.3s-1-0.5-1.4-0.9V118h1.3l0.2,1.2c0.2,0.1,0.4,0.3,0.7,0.3s0.6,0.1,1,0.1
			c0.5,0,0.8-0.1,1.1-0.3s0.4-0.4,0.4-0.8c0-0.3-0.1-0.6-0.3-0.8s-0.6-0.4-1.2-0.6c-1-0.3-1.8-0.6-2.3-1s-0.8-1-0.8-1.7
			c0-0.7,0.3-1.3,0.9-1.7s1.3-0.7,2.2-0.7c0.7,0,1.3,0.1,1.8,0.3s1,0.5,1.4,0.8V115.1z"/>
		<path class="st11" d="M126.2,120c-0.3,0.3-0.7,0.5-1.2,0.7s-1.2,0.3-2,0.3c-1.2,0-2.1-0.4-2.8-1.2s-1.1-1.8-1.1-3v-0.3
			c0-1.3,0.4-2.3,1.1-3.1s1.6-1.2,2.8-1.2c0.7,0,1.3,0.1,1.8,0.3s1,0.5,1.4,0.9v1.7h-1.3l-0.2-1.1c-0.2-0.1-0.4-0.2-0.6-0.3
			s-0.5-0.1-0.9-0.1c-0.7,0-1.3,0.3-1.7,0.8s-0.6,1.3-0.6,2.2v0.3c0,0.9,0.2,1.6,0.6,2.1s1,0.8,1.8,0.8c0.3,0,0.6,0,0.8-0.1
			s0.4-0.1,0.5-0.2V118l-1.2-0.1v-1.2h2.9V120z"/>
		<path class="st11" d="M126.9,119.9l0.7-0.1l2.3-3.1l-2.2-3.1l-0.7-0.1v-1h3.3v1l-0.7,0.1l1.3,2.1l1.3-2.1l-0.7-0.1v-1h3.3v1
			l-0.7,0.1l-2.2,3.1l2.3,3.1l0.8,0.1v1h-3.4v-1l0.7-0.1l-1.4-2.2l-1.4,2.2l0.7,0.1v1h-3.3V119.9z"/>
		<path class="st11" d="M143.9,117.1H141v2.4h2.8l0.1-1h1.3v2.3h-6.8v-1l0.9-0.2v-6.1l-0.9-0.2v-1h0.9h5.8v2.3h-1.3l-0.1-1H141v2.1
			h2.9V117.1z"/>
	</g>
	<g class="st0">
		<path class="st11" d="M146,119.9l0.8-0.2v-3.9l-0.9-0.2v-1h2.5l0.1,0.9c0.2-0.3,0.5-0.6,0.8-0.8s0.7-0.3,1-0.3
			c0.6,0,1.1,0.2,1.5,0.6s0.5,1,0.5,1.9v2.8l0.8,0.2v1h-3.3v-1l0.7-0.2v-2.8c0-0.4-0.1-0.7-0.3-0.9s-0.4-0.3-0.8-0.3
			c-0.2,0-0.4,0-0.6,0.1s-0.3,0.2-0.5,0.4v3.4l0.7,0.2v1H146V119.9z"/>
	</g>
	<g class="st0">
		<path class="st11" d="M156.6,119.7c0.3,0,0.5-0.1,0.7-0.3s0.3-0.4,0.3-0.7h1.5l0,0c0,0.6-0.2,1.2-0.7,1.6s-1.1,0.6-1.9,0.6
			c-0.9,0-1.7-0.3-2.2-0.9s-0.8-1.4-0.8-2.3v-0.2c0-0.9,0.3-1.7,0.8-2.3s1.3-0.9,2.2-0.9c0.5,0,1,0.1,1.4,0.2s0.7,0.4,1,0.6l0,1.7
			h-1.4l-0.3-1c-0.1-0.1-0.2-0.1-0.3-0.2s-0.3-0.1-0.4-0.1c-0.5,0-0.8,0.2-1,0.5s-0.3,0.8-0.3,1.4v0.2c0,0.6,0.1,1,0.3,1.4
			S156.2,119.7,156.6,119.7z"/>
		<path class="st11" d="M159.8,112.8v-1h2.6v7.9l0.8,0.2v1h-3.4v-1l0.8-0.2V113L159.8,112.8z"/>
	</g>
	<g class="st0">
		<path class="st11" d="M167.8,120.9c0-0.1-0.1-0.2-0.1-0.3s-0.1-0.2-0.1-0.3c-0.2,0.2-0.5,0.4-0.7,0.6s-0.6,0.2-1,0.2
			c-0.6,0-1.1-0.2-1.5-0.5s-0.5-0.8-0.5-1.4c0-0.6,0.2-1.1,0.7-1.4s1.2-0.5,2.1-0.5h0.9v-0.6c0-0.3-0.1-0.5-0.3-0.7
			s-0.4-0.3-0.8-0.3c-0.2,0-0.4,0-0.5,0.1s-0.3,0.1-0.4,0.2l-0.1,0.7h-1.3l0-1.4c0.3-0.2,0.7-0.4,1.1-0.5s0.8-0.2,1.3-0.2
			c0.8,0,1.4,0.2,1.9,0.6s0.7,0.9,0.7,1.6v2.6c0,0.1,0,0.2,0,0.3s0,0.2,0,0.2l0.5,0.1v1H167.8z M166.4,119.8c0.3,0,0.5-0.1,0.7-0.2
			s0.4-0.3,0.5-0.4v-1h-0.9c-0.4,0-0.6,0.1-0.8,0.3s-0.3,0.4-0.3,0.6c0,0.2,0.1,0.4,0.2,0.5S166.1,119.8,166.4,119.8z"/>
	</g>
	<g class="st0">
		<path class="st11" d="M173,115.6l-0.6,0.1l0.8,2.8l0.1,0.6h0l0.1-0.6l0.8-2.8l-0.6-0.1v-1h2.9v1l-0.6,0.1l-1.9,5.2h-1.6l-1.9-5.2
			l-0.6-0.1v-1h2.9V115.6z"/>
	</g>
	<g class="st0">
		<path class="st11" d="M180.1,121c-0.9,0-1.6-0.3-2.2-0.9s-0.8-1.3-0.8-2.2v-0.2c0-0.9,0.3-1.7,0.8-2.3s1.2-0.9,2.1-0.9
			c0.9,0,1.5,0.3,2,0.8s0.7,1.2,0.7,2.1v0.9h-3.8l0,0c0,0.4,0.2,0.8,0.4,1s0.6,0.4,1,0.4c0.4,0,0.7,0,0.9-0.1s0.5-0.2,0.8-0.4
			l0.5,1.1c-0.3,0.2-0.6,0.4-1,0.5S180.6,121,180.1,121z M180,115.8c-0.3,0-0.6,0.1-0.8,0.4s-0.3,0.6-0.3,1l0,0h2.1V117
			c0-0.4-0.1-0.7-0.3-0.9S180.3,115.8,180,115.8z"/>
	</g>
	<path class="st5" d="M22.5,51.7h222.9c2.8,0,5,2.2,5,5v162.4c0,2.8-2.2,5-5,5H22.5c-2.8,0-5-2.2-5-5V56.7
		C17.5,54,19.7,51.7,22.5,51.7z"/>
	<g class="st0">
		<path class="st1" d="M197.1,240.2h-1l3.6-9.3h1L197.1,240.2z"/>
		<path class="st1" d="M205.7,238.7c-0.2,0.3-0.5,0.5-0.8,0.7s-0.6,0.2-1,0.2c-0.8,0-1.4-0.3-1.8-0.8s-0.7-1.3-0.7-2.2v-0.1
			c0-1,0.2-1.8,0.7-2.5s1-0.9,1.8-0.9c0.4,0,0.7,0.1,1,0.2s0.5,0.3,0.7,0.6v-2.6l-1-0.2v-0.7h1h1.2v8.2l1,0.2v0.7h-2L205.7,238.7z
			 M202.6,236.6c0,0.6,0.1,1.1,0.4,1.5s0.7,0.6,1.2,0.6c0.3,0,0.6-0.1,0.9-0.2s0.4-0.4,0.6-0.7v-2.9c-0.1-0.3-0.3-0.5-0.6-0.6
			s-0.5-0.2-0.9-0.2c-0.6,0-1,0.2-1.2,0.7s-0.4,1.1-0.4,1.8V236.6z"/>
	</g>
	<g class="st0">
		<path class="st1" d="M211.6,239.6c-0.9,0-1.6-0.3-2.1-0.9s-0.8-1.3-0.8-2.3v-0.3c0-0.9,0.3-1.7,0.8-2.3s1.2-0.9,1.9-0.9
			c0.9,0,1.5,0.3,1.9,0.8s0.7,1.2,0.7,2.1v0.7h-4.1l0,0c0,0.6,0.2,1.1,0.5,1.5s0.7,0.6,1.2,0.6c0.4,0,0.7-0.1,1-0.2s0.5-0.3,0.8-0.5
			l0.5,0.8c-0.2,0.2-0.5,0.4-0.9,0.6S212.1,239.6,211.6,239.6z M211.4,233.9c-0.4,0-0.7,0.2-1,0.5s-0.4,0.7-0.5,1.2l0,0h2.9v-0.2
			c0-0.5-0.1-0.8-0.4-1.1S211.9,233.9,211.4,233.9z"/>
	</g>
	<g class="st0">
		<path class="st1" d="M217.2,233.9l-0.8,0.1l1.3,3.6l0.1,0.5h0l0.1-0.5l1.3-3.6l-0.8-0.1v-0.7h2.4v0.7l-0.5,0.1l-2.1,5.5h-0.9
			l-2.2-5.5l-0.5-0.1v-0.7h2.4V233.9z"/>
		<path class="st1" d="M222.2,240.2h-1l3.6-9.3h1L222.2,240.2z"/>
		<path class="st1" d="M226.6,238.7l1-0.2V234l-1-0.2v-0.7h2.1v5.4l1,0.2v0.7h-3.1V238.7z M228.7,231.5h-1.2v-1.2h1.2V231.5z"/>
		<path class="st1" d="M235.4,235.1h-0.9l-0.2-0.8c-0.1-0.1-0.3-0.2-0.5-0.3s-0.5-0.1-0.7-0.1c-0.4,0-0.7,0.1-0.9,0.3
			s-0.3,0.4-0.3,0.7c0,0.3,0.1,0.4,0.3,0.6s0.5,0.3,1.1,0.4c0.8,0.2,1.4,0.4,1.8,0.7s0.6,0.7,0.6,1.2c0,0.6-0.2,1-0.7,1.4
			s-1.1,0.5-1.8,0.5c-0.5,0-0.9-0.1-1.3-0.2s-0.7-0.3-1-0.5l0-1.4h0.9l0.2,0.8c0.1,0.1,0.3,0.2,0.5,0.3s0.5,0.1,0.7,0.1
			c0.4,0,0.7-0.1,1-0.3s0.3-0.4,0.3-0.7c0-0.3-0.1-0.5-0.3-0.6s-0.6-0.3-1.1-0.4c-0.8-0.2-1.3-0.4-1.7-0.7s-0.6-0.7-0.6-1.2
			c0-0.5,0.2-1,0.7-1.3s1-0.5,1.7-0.5c0.5,0,0.9,0.1,1.3,0.2s0.7,0.3,1,0.5L235.4,235.1z"/>
		<path class="st1" d="M236.6,236.4c0-1,0.2-1.8,0.7-2.5s1.1-0.9,1.8-0.9c0.4,0,0.7,0.1,1,0.2s0.6,0.4,0.8,0.7l0.1-0.8h1v6.3
			c0,0.8-0.2,1.5-0.7,1.9s-1.1,0.7-2,0.7c-0.3,0-0.6,0-1-0.1s-0.7-0.2-0.9-0.3l0.3-0.9c0.2,0.1,0.5,0.2,0.8,0.3s0.6,0.1,0.9,0.1
			c0.5,0,0.9-0.1,1.1-0.4s0.4-0.7,0.4-1.2v-0.6c-0.2,0.3-0.5,0.5-0.7,0.6s-0.6,0.2-1,0.2c-0.8,0-1.4-0.3-1.8-0.8s-0.7-1.3-0.7-2.2
			V236.4z M237.8,236.6c0,0.6,0.1,1.1,0.4,1.5s0.7,0.6,1.2,0.6c0.3,0,0.6-0.1,0.9-0.2s0.4-0.4,0.6-0.7v-2.9
			c-0.1-0.3-0.3-0.5-0.6-0.6s-0.5-0.2-0.9-0.2c-0.6,0-1,0.2-1.2,0.7s-0.4,1.1-0.4,1.8V236.6z"/>
		<path class="st1" d="M243.3,238.7l0.7-0.1l1.9-2.3L244,234l-0.7-0.1v-0.7h2.5v0.7l-0.6,0.1l1.2,1.5l1.2-1.5l-0.6-0.1v-0.7h2.5v0.7
			l-0.7,0.1l-1.8,2.3l1.9,2.3l0.7,0.1v0.7h-2.5v-0.7l0.6-0.1l-1.2-1.6l-1.2,1.6l0.6,0.1v0.7h-2.5V238.7z"/>
	</g>
	<g class="st0">
		<path d="M17.7,21.6v-1.5H23v1.5l-1.4,0.3v3.7h5.2v-3.7l-1.4-0.3v-1.5h1.4h2.6h1.4v1.5l-1.4,0.3v9.2l1.4,0.3v1.5h-5.3v-1.5l1.4-0.3
			v-3.5h-5.2v3.5l1.4,0.3v1.5h-5.3v-1.5l1.4-0.3v-9.2L17.7,21.6z"/>
		<path d="M31.7,31.3l0.9-0.1l3.9-11.1h2.6L43,31.2l0.9,0.1v1.5h-4.4v-1.5l0.9-0.2l-0.6-1.8h-4.1l-0.6,1.8l0.9,0.2v1.5h-4.4V31.3z
			 M36.3,27.5h2.9L37.8,23h-0.1L36.3,27.5z"/>
		<path d="M50.5,20.1c1.5,0,2.6,0.3,3.4,1s1.2,1.6,1.2,2.8c0,0.6-0.2,1.2-0.5,1.7s-0.9,0.9-1.5,1.2c0.8,0.2,1.3,0.6,1.6,1.1
			c0.3,0.5,0.5,1.2,0.5,1.9v0.7c0,0.3,0.1,0.5,0.2,0.7s0.3,0.2,0.6,0.3l0.3,0v1.5h-1.3c-0.8,0-1.4-0.2-1.8-0.7s-0.5-1-0.5-1.7v-0.7
			c0-0.6-0.2-1.1-0.5-1.5c-0.3-0.4-0.8-0.5-1.4-0.6h-2.1v3.4l1.4,0.3v1.5h-5.3v-1.5l1.4-0.3v-9.2l-1.4-0.3v-1.5h1.4H50.5z
			 M48.6,25.7h1.8c0.7,0,1.3-0.2,1.6-0.5s0.5-0.7,0.5-1.3s-0.2-1-0.5-1.4c-0.4-0.3-0.9-0.5-1.6-0.5h-1.8V25.7z"/>
		<path d="M62.8,20.1c1.6,0,2.9,0.5,3.9,1.5c1,1,1.5,2.3,1.5,3.8v2.1c0,1.6-0.5,2.9-1.5,3.8c-1,1-2.3,1.5-3.9,1.5h-5.8v-1.5l1.4-0.3
			v-9.2l-1.4-0.3v-1.5h1.4H62.8z M61,22.1v8.9h1.7c0.9,0,1.6-0.3,2.2-0.9s0.8-1.4,0.8-2.4v-2.1c0-1-0.3-1.8-0.8-2.4
			s-1.2-0.9-2.2-0.9H61z"/>
	</g>
	<g class="st0">
		<path d="M86.1,21.6L85,21.8l-2.6,11.1H80l-2.3-8.4h-0.1l-2.3,8.4h-2.4l-2.6-11.1l-1-0.1v-1.5H74v1.5l-1.2,0.2l1.5,7l0.1,0l2.4-8.8
			h1.9l2.4,8.8l0.1,0l1.5-7l-1.2-0.2v-1.5h4.7V21.6z"/>
	</g>
	<g class="st0">
		<path d="M85.2,31.3l0.9-0.1L90,20.1h2.6l3.9,11.1l0.9,0.1v1.5H93v-1.5l0.9-0.2l-0.6-1.8h-4.1l-0.6,1.8l0.9,0.2v1.5h-4.4V31.3z
			 M89.8,27.5h2.9L91.3,23h-0.1L89.8,27.5z"/>
		<path d="M104,20.1c1.5,0,2.6,0.3,3.4,1s1.2,1.6,1.2,2.8c0,0.6-0.2,1.2-0.5,1.7s-0.9,0.9-1.5,1.2c0.8,0.2,1.3,0.6,1.6,1.1
			c0.3,0.5,0.5,1.2,0.5,1.9v0.7c0,0.3,0.1,0.5,0.2,0.7s0.3,0.2,0.6,0.3l0.3,0v1.5h-1.3c-0.8,0-1.4-0.2-1.8-0.7s-0.5-1-0.5-1.7v-0.7
			c0-0.6-0.2-1.1-0.5-1.5c-0.3-0.4-0.8-0.5-1.4-0.6h-2.1v3.4l1.4,0.3v1.5h-5.3v-1.5l1.4-0.3v-9.2l-1.4-0.3v-1.5h1.4H104z
			 M102.2,25.7h1.8c0.7,0,1.3-0.2,1.6-0.5s0.5-0.7,0.5-1.3s-0.2-1-0.5-1.4c-0.4-0.3-0.9-0.5-1.6-0.5h-1.8V25.7z"/>
		<path d="M118.9,27.3h-4.3v3.7h4.1l0.1-1.5h2v3.5h-10.1v-1.5l1.4-0.3v-9.2l-1.4-0.3v-1.5h1.4h8.7v3.5h-2l-0.1-1.5h-4.1v3.2h4.3
			V27.3z"/>
		<path d="M138.9,23.4L138.9,23.4l-3.5,9.5h-1.7l-3.4-9.4l-0.1,0l0.2,5.6v2l1.4,0.3v1.5h-5.3v-1.5l1.4-0.3v-9.2l-1.4-0.3v-1.5h1.4
			h3.3l3.3,9.4h0.1l3.3-9.4h4.7v1.5l-1.4,0.3v9.2l1.4,0.3v1.5h-5.3v-1.5l1.4-0.3v-2L138.9,23.4z"/>
		<path d="M155.2,26.6c0,1.9-0.5,3.4-1.6,4.6s-2.5,1.8-4.2,1.8c-1.7,0-3.1-0.6-4.2-1.8s-1.6-2.8-1.6-4.6v-0.2c0-1.9,0.5-3.4,1.6-4.6
			s2.5-1.8,4.2-1.8c1.7,0,3.1,0.6,4.2,1.8s1.6,2.8,1.6,4.6V26.6z M152.6,26.4c0-1.3-0.3-2.4-0.8-3.2s-1.4-1.2-2.4-1.2
			s-1.9,0.4-2.4,1.2s-0.8,1.9-0.8,3.2v0.2c0,1.3,0.3,2.4,0.8,3.3s1.3,1.2,2.4,1.2c1.1,0,1.9-0.4,2.4-1.2s0.8-1.9,0.8-3.3V26.4z"/>
		<path d="M162,20.1c1.6,0,2.9,0.5,3.9,1.5c1,1,1.5,2.3,1.5,3.8v2.1c0,1.6-0.5,2.9-1.5,3.8c-1,1-2.3,1.5-3.9,1.5h-5.8v-1.5l1.4-0.3
			v-9.2l-1.4-0.3v-1.5h1.4H162z M160.1,22.1v8.9h1.7c0.9,0,1.6-0.3,2.2-0.9s0.8-1.4,0.8-2.4v-2.1c0-1-0.3-1.8-0.8-2.4
			s-1.2-0.9-2.2-0.9H160.1z"/>
		<path d="M176.9,27.3h-4.3v3.7h4.1l0.1-1.5h2v3.5h-10.1v-1.5l1.4-0.3v-9.2l-1.4-0.3v-1.5h1.4h8.7v3.5h-2l-0.1-1.5h-4.1v3.2h4.3
			V27.3z"/>
	</g>
</g>
</svg>
