<?xml version="1.0" encoding="utf-8"?>
<!-- Generator: Adobe Illustrator 24.0.0, SVG Export Plug-In . SVG Version: 6.00 Build 0)  -->
<svg version="1.1" id="Ebene_1" xmlns="http://www.w3.org/2000/svg" xmlns:xlink="http://www.w3.org/1999/xlink" x="0px" y="0px"
	 viewBox="0 0 843.3 252.5" style="enable-background:new 0 0 843.3 252.5;" xml:space="preserve">
<style type="text/css">
	.st0{fill:#FFFFFF;stroke:#FFCC00;stroke-width:2;stroke-miterlimit:10;}
	.st1{fill:url(#SVGID_1_);stroke:#FFCC00;stroke-width:2;stroke-miterlimit:10;}
	.st2{fill:#FFFFFF;stroke:#FFCC00;stroke-width:2;stroke-linecap:round;stroke-linejoin:round;}
	.st3{fill:none;stroke:#FFCC00;stroke-width:2;stroke-linecap:round;stroke-linejoin:round;}
	.st4{fill:#FFCC00;}
	.st5{clip-path:url(#SVGID_3_);}
	.st6{clip-path:url(#SVGID_5_);}
	.st7{fill:#FFD138;}
	.st8{fill:#FDFEFF;}
	.st9{enable-background:new    ;}
	.st10{fill:#330066;}
	.st11{fill:none;stroke:#FFCC00;stroke-width:2;stroke-miterlimit:10;}
	.st12{fill:none;stroke:#FFCC00;stroke-width:2;stroke-miterlimit:10;stroke-dasharray:2,2;}
	.st13{fill:url(#SVGID_6_);stroke:#FFCC00;stroke-width:2;stroke-miterlimit:10;}
	.st14{fill:none;stroke:#990066;stroke-width:2;stroke-miterlimit:10;}
	.st15{fill:#990066;}
</style>
<g id="Ebene_2_1_">
	<path class="st0" d="M646.7,53.6h160c2.8,0,5,2.2,5,5V157c0,2.8-2.2,5-5,5h-160c-2.8,0-5-2.2-5-5V58.6
		C641.7,55.8,644,53.6,646.7,53.6z"/>
	
		<linearGradient id="SVGID_1_" gradientUnits="userSpaceOnUse" x1="626.3" y1="142.345" x2="830.56" y2="142.345" gradientTransform="matrix(1 0 0 -1 0 254)">
		<stop  offset="0" style="stop-color:#990066"/>
		<stop  offset="0.19" style="stop-color:#780066"/>
		<stop  offset="0.4" style="stop-color:#5A0066"/>
		<stop  offset="0.61" style="stop-color:#440066"/>
		<stop  offset="0.81" style="stop-color:#370066"/>
		<stop  offset="1" style="stop-color:#330066"/>
	</linearGradient>
	<path class="st1" d="M631.3,22.1h194.3c2.8,0,5,2.2,5,5v169.1c0,2.8-2.2,5-5,5H631.3c-2.8,0-5-2.2-5-5V27.1
		C626.3,24.3,628.5,22.1,631.3,22.1z"/>
	<path class="st2" d="M719,12.3c4.6-4.5,12.1-4.5,16.6,0.1c4.5,4.6,4.5,12.1-0.1,16.6c-4.6,4.5-12.1,4.5-16.6-0.1
		c-2.2-2.2-3.4-5.1-3.4-8.2c0-2.6,0.8-5.1,2.4-7.1"/>
	<path class="st3" d="M727.3,26.3H723c-0.6,0-0.8-0.2-0.8-0.8V19c0-0.6,0.2-0.8,0.8-0.8h8.5c0.5,0,0.8,0.2,0.8,0.8v6.5
		c0,0.5-0.2,0.8-0.8,0.8C730.1,26.3,728.7,26.3,727.3,26.3z"/>
	<path class="st3" d="M722.9,17.6c0-1.8,1-3.4,2.6-4.1c2.1-0.9,4.6,0,5.5,2.1c0.1,0.2,0.2,0.5,0.2,0.7c0.1,0.4,0.1,0.8,0.2,1.2"/>
	<path class="st4" d="M726.6,23.5L726.6,23.5v0.9c0,0.2,0.1,0.2,0.3,0.2h0.8c0.2,0,0.3-0.1,0.3-0.3v-1.6c0-0.2,0.1-0.3,0.2-0.4
		c0.5-0.3,0.8-0.9,0.6-1.5c-0.2-0.6-0.8-1-1.5-1c-0.7-0.1-1.3,0.3-1.6,0.9c-0.2,0.6,0,1.2,0.5,1.5c0.2,0.1,0.3,0.3,0.3,0.5
		C726.6,23,726.6,23.3,726.6,23.5z"/>
	<g id="Scone_logo_white">
		<g>
			<defs>
				<rect id="SVGID_2_" x="698" y="179.4" width="53.6" height="10.5"/>
			</defs>
			<clipPath id="SVGID_3_">
				<use xlink:href="#SVGID_2_"  style="overflow:visible;"/>
			</clipPath>
			<g class="st5">
				<g>
					<defs>
						<rect id="SVGID_4_" x="698" y="179.4" width="53.6" height="10.5"/>
					</defs>
					<clipPath id="SVGID_5_">
						<use xlink:href="#SVGID_4_"  style="overflow:visible;"/>
					</clipPath>
					<g class="st6">
						<path class="st7" d="M705.1,182.1h-1.1c-0.2,0-0.4,0.2-0.4,0.4v1.1c0,0.2,0.2,0.4,0.4,0.4h1.1c0.2,0,0.4-0.2,0.4-0.4v-1.1
							C705.5,182.3,705.3,182.1,705.1,182.1 M701.2,184.1h1.1c0.2,0,0.4-0.2,0.4-0.4v-1.1c0-0.2-0.2-0.4-0.4-0.4h-1.1
							c-0.2,0-0.4,0.2-0.4,0.4v1.1C700.7,183.9,700.9,184.1,701.2,184.1 M699.9,183.7v-1.1c0-0.2-0.2-0.4-0.4-0.4h-1.1
							c-0.2,0-0.4,0.2-0.4,0.4l0,0v1.1c0,0.2,0.2,0.4,0.4,0.4h1.1C699.7,184.1,699.9,183.9,699.9,183.7 M705.1,184.9
							c-0.2,0-0.3,0.1-0.3,0.3v1.3c0,0.2,0.1,0.4,0.3,0.4c0.2,0,0.4-0.1,0.4-0.3c0,0,0-0.1,0-0.1v-1.3
							C705.5,185.1,705.3,184.9,705.1,184.9C705.2,184.9,705.2,184.9,705.1,184.9 M702.1,185.3v1.1c0,0.2,0.2,0.4,0.4,0.4h1.1
							c0.2,0,0.4-0.2,0.4-0.4v-1.1c0-0.2-0.2-0.4-0.4-0.4h-1.1C702.3,184.9,702.1,185.1,702.1,185.3 M701.3,186.5v-1.1
							c0-0.2-0.2-0.4-0.4-0.4h-1.1c-0.2,0-0.4,0.2-0.4,0.4v1.1c0,0.2,0.2,0.4,0.4,0.4h1.1C701.1,186.9,701.3,186.7,701.3,186.5
							 M705.1,187.7h-1.1c-0.2,0-0.4,0.2-0.4,0.4v1.1c0,0.2,0.2,0.4,0.4,0.4h1.1c0.2,0,0.4-0.2,0.4-0.4v-1.1
							C705.5,187.9,705.3,187.7,705.1,187.7 M702.1,187.7H701c-0.2,0-0.4,0.2-0.4,0.4v1.1c0,0.2,0.2,0.4,0.4,0.4h1.1
							c0.2,0,0.4-0.2,0.4-0.4v-1.1C702.5,187.9,702.4,187.7,702.1,187.7"/>
						<path class="st7" d="M706.4,181.7c0.5,0.4,1.1,0.6,1.8,0.5c0,0,0,0,0,0.1v3.1c0,1.2-1.5,1.9-1.8,2.1l0,0L706.4,181.7
							L706.4,181.7"/>
						<path class="st7" d="M703,181.5c2.4-0.1,2.8-0.9,2.8-0.9c0,0,0.1-0.1,0.1-0.1c0,0,0.1,0,0.1,0s0.4,0.9,2.7,0.9
							c0.1,0,0.1,0,0.1,0.1v4.1c0,1.3-2.5,2.8-2.5,2.8s-0.1,0.1-0.1,0.1v1c0,0,0.2,0.1,0.2,0c0.9-0.5,3.5-1.9,3.5-3.6v-5.2
							c0-0.1-0.2-0.1-0.2-0.1c-3,0-3.6-1.1-3.6-1.1s-0.1,0-0.2,0s-0.1,0-0.1,0s-0.5,1.1-3.5,1.1c-0.1,0-0.1,0-0.1,0.1v0.6
							c0,0,0,0.1,0.1,0.1S703,181.5,703,181.5"/>
						<path class="st8" d="M712.2,188.1l1.2-0.5c0.3,0.6,0.9,1,1.6,0.9c0.3,0,0.6-0.1,0.9-0.2c0.2-0.1,0.4-0.4,0.4-0.6
							c0-0.6-0.9-1-1.5-1.3l0,0c-0.5-0.2-1-0.4-1.4-0.8c-0.4-0.3-0.7-0.9-0.7-1.4c0-0.6,0.3-1.1,0.7-1.5c0.5-0.4,1.1-0.6,1.8-0.6
							c1,0,1.9,0.5,2.4,1.3l-1.3,0.5c-0.1-0.2-0.2-0.3-0.4-0.4c-0.2-0.1-0.5-0.1-0.7-0.1c-0.7,0-1.2,0.4-1.2,0.9
							c0,0.3,0.2,0.6,0.5,0.8c0.3,0.2,0.7,0.4,1.1,0.6l0.2,0.1c0.9,0.4,2.1,0.9,2.1,2.1c0,0.6-0.3,1.2-0.8,1.5
							c-0.6,0.4-1.3,0.6-2,0.6C713.8,189.9,712.7,189.2,712.2,188.1"/>
						<path class="st8" d="M722.9,189.8c-0.5,0-1-0.1-1.5-0.3c-0.5-0.2-0.9-0.5-1.2-0.8c-0.4-0.3-0.6-0.7-0.8-1.2
							c-0.2-0.5-0.3-1-0.3-1.5c0-0.5,0.1-1,0.3-1.5c0.2-0.5,0.5-0.9,0.8-1.2c0.3-0.4,0.8-0.6,1.2-0.8c0.5-0.2,1-0.3,1.5-0.3
							c0.6,0,1.2,0.1,1.7,0.4c0.5,0.3,1,0.6,1.3,1.1l-1,0.8c-0.2-0.3-0.5-0.6-0.9-0.7c-0.4-0.2-0.8-0.3-1.2-0.3
							c-1.4,0-2.6,1.2-2.6,2.6c0,0.7,0.3,1.3,0.7,1.8c0.8,0.8,2.1,1,3.1,0.4c0.4-0.2,0.7-0.6,0.9-0.9l1.1,0.6
							c-0.3,0.6-0.8,1.1-1.4,1.4C724.2,189.6,723.6,189.8,722.9,189.8"/>
						<path class="st8" d="M731.2,189.8c-0.5,0-1-0.1-1.5-0.3c-0.5-0.2-0.9-0.5-1.2-0.8c-0.7-0.7-1.1-1.7-1.1-2.7
							c0-0.5,0.1-1,0.3-1.5c0.2-0.5,0.5-0.9,0.8-1.2c0.3-0.3,0.8-0.6,1.2-0.8c0.5-0.2,1-0.3,1.5-0.3c0.5,0,1,0.1,1.5,0.3
							c0.5,0.2,0.9,0.5,1.2,0.8c0.4,0.3,0.6,0.8,0.8,1.2c0.6,1.4,0.3,3.1-0.8,4.2c-0.3,0.3-0.8,0.6-1.2,0.8
							C732.2,189.7,731.7,189.8,731.2,189.8 M731.2,183.4c-0.7,0-1.3,0.3-1.8,0.8c-0.5,0.5-0.7,1.1-0.8,1.8c0,0.7,0.3,1.3,0.8,1.8
							c1,1,2.6,1,3.6,0c0.5-0.5,0.7-1.1,0.8-1.8c0-0.7-0.3-1.3-0.8-1.8C732.6,183.6,731.9,183.4,731.2,183.4"/>
						<polygon class="st8" points="743.7,182.2 743.7,189.9 738.4,185 738.4,189.6 737,189.6 737,181.9 742.4,186.8 742.4,182.2 
													"/>
						<polygon class="st8" points="747.4,183.3 747.4,185.3 751.1,185.3 751.1,186.5 747.4,186.5 747.4,188.5 751.6,188.5 
							751.6,189.6 746,189.6 746,182.2 751.6,182.2 751.6,183.3 747.4,183.3 						"/>
					</g>
				</g>
			</g>
		</g>
	</g>
	<g class="st9">
		<path class="st10" d="M380.6,241.3c0-0.2-0.1-0.4-0.2-0.6c-0.1-0.1-0.3-0.3-0.5-0.3s-0.4-0.2-0.7-0.3s-0.5-0.2-0.7-0.3
			s-0.4-0.3-0.5-0.5s-0.2-0.5-0.2-0.8c0-0.6,0.2-1,0.5-1.3c0.3-0.3,0.8-0.4,1.4-0.4c0.4,0,0.8,0,1.1,0.1c0.3,0.1,0.5,0.2,0.8,0.3
			l-0.2,0.8c-0.2-0.1-0.4-0.2-0.7-0.2c-0.3-0.1-0.5-0.1-0.8-0.1c-0.4,0-0.6,0.1-0.8,0.2s-0.2,0.3-0.2,0.6c0,0.2,0.1,0.4,0.2,0.5
			s0.3,0.2,0.5,0.3s0.4,0.2,0.7,0.3s0.5,0.2,0.7,0.3s0.4,0.3,0.5,0.5s0.2,0.5,0.2,0.9c0,0.3,0,0.5-0.1,0.7c-0.1,0.2-0.2,0.4-0.4,0.6
			c-0.2,0.2-0.4,0.3-0.7,0.4c-0.3,0.1-0.6,0.1-0.9,0.1c-0.5,0-0.8,0-1.2-0.1s-0.6-0.2-0.8-0.3l0.3-0.8c0.2,0.1,0.4,0.2,0.7,0.3
			s0.6,0.1,0.9,0.1c0.3,0,0.6-0.1,0.9-0.2C380.5,241.9,380.6,241.6,380.6,241.3z"/>
		<path class="st10" d="M387.4,242.4c-0.2,0.2-0.5,0.3-0.9,0.5c-0.4,0.1-0.8,0.2-1.2,0.2c-0.5,0-0.9-0.1-1.2-0.2
			c-0.3-0.1-0.6-0.4-0.8-0.6c-0.2-0.3-0.4-0.6-0.5-1c-0.1-0.4-0.2-0.8-0.2-1.3c0-1,0.2-1.8,0.7-2.3s1.1-0.8,2-0.8
			c0.3,0,0.5,0,0.8,0.1c0.3,0.1,0.5,0.2,0.7,0.3c0.2,0.2,0.4,0.4,0.5,0.7c0.1,0.3,0.2,0.7,0.2,1.2c0,0.3,0,0.6-0.1,0.9h-3.9
			c0,0.4,0,0.7,0.1,0.9c0.1,0.3,0.2,0.5,0.3,0.7c0.2,0.2,0.4,0.3,0.6,0.4c0.2,0.1,0.5,0.1,0.9,0.1c0.3,0,0.5,0,0.8-0.1
			s0.5-0.2,0.6-0.3L387.4,242.4z M385.3,237.6c-0.5,0-0.9,0.1-1.1,0.4c-0.3,0.2-0.5,0.7-0.5,1.3h3c0-0.6-0.1-1-0.3-1.3
			C386.1,237.7,385.8,237.6,385.3,237.6z"/>
		<path class="st10" d="M389.1,236.9h0.7l0.2,0.7h0c0.2-0.3,0.4-0.5,0.7-0.6s0.6-0.2,1-0.2c0.8,0,1.4,0.2,1.8,0.7
			c0.4,0.5,0.6,1.2,0.6,2.3c0,0.5-0.1,1-0.2,1.4s-0.3,0.7-0.6,1c-0.2,0.3-0.5,0.5-0.9,0.6c-0.3,0.2-0.7,0.2-1.1,0.2
			c-0.3,0-0.5,0-0.7-0.1s-0.4-0.1-0.6-0.2v2.5h-1V236.9z M391.5,237.6c-0.4,0-0.7,0.1-1,0.3s-0.4,0.5-0.5,1v3
			c0.1,0.1,0.3,0.2,0.5,0.3c0.2,0.1,0.4,0.1,0.7,0.1c0.6,0,1-0.2,1.3-0.6c0.3-0.4,0.5-1,0.5-1.8c0-0.3,0-0.6-0.1-0.9
			c-0.1-0.3-0.1-0.5-0.3-0.7c-0.1-0.2-0.3-0.3-0.5-0.4C392.1,237.6,391.8,237.6,391.5,237.6z"/>
		<path class="st10" d="M395.5,237.3c0.3-0.2,0.7-0.3,1.1-0.4c0.4-0.1,0.8-0.1,1.3-0.1c0.4,0,0.8,0.1,1,0.2c0.3,0.1,0.4,0.3,0.6,0.4
			c0.1,0.2,0.2,0.4,0.3,0.6c0,0.2,0.1,0.4,0.1,0.6c0,0.5,0,0.9,0,1.4s0,0.9,0,1.3c0,0.3,0,0.6,0,0.8s0.1,0.5,0.1,0.7h-0.7l-0.3-0.8
			h-0.1c-0.1,0.1-0.2,0.2-0.3,0.3c-0.1,0.1-0.2,0.2-0.4,0.3s-0.3,0.2-0.5,0.2c-0.2,0.1-0.4,0.1-0.7,0.1c-0.3,0-0.5,0-0.7-0.1
			c-0.2-0.1-0.4-0.2-0.6-0.3c-0.2-0.1-0.3-0.3-0.4-0.5c-0.1-0.2-0.1-0.4-0.1-0.7c0-0.4,0.1-0.6,0.2-0.9c0.1-0.2,0.3-0.4,0.6-0.6
			c0.3-0.1,0.6-0.2,0.9-0.3c0.4-0.1,0.8-0.1,1.2-0.1c0.1,0,0.2,0,0.3,0c0.1,0,0.2,0,0.3,0c0-0.2,0-0.5,0-0.6c0-0.4-0.1-0.7-0.3-0.9
			c-0.2-0.2-0.5-0.3-1-0.3c-0.1,0-0.3,0-0.4,0c-0.2,0-0.3,0-0.5,0.1s-0.3,0.1-0.5,0.1s-0.3,0.1-0.4,0.2L395.5,237.3z M397.2,242.1
			c0.2,0,0.4,0,0.6-0.1c0.2-0.1,0.3-0.1,0.5-0.2c0.1-0.1,0.2-0.2,0.3-0.3c0.1-0.1,0.1-0.2,0.2-0.3v-1c-0.1,0-0.2,0-0.3,0
			c-0.1,0-0.2,0-0.3,0c-0.2,0-0.5,0-0.7,0c-0.2,0-0.4,0.1-0.6,0.2c-0.2,0.1-0.3,0.2-0.4,0.3s-0.2,0.3-0.2,0.5c0,0.3,0.1,0.5,0.3,0.7
			C396.6,242.1,396.9,242.1,397.2,242.1z"/>
		<path class="st10" d="M404.4,237.8c-0.2-0.1-0.5-0.1-0.7-0.1c-0.3,0-0.6,0.1-0.8,0.3c-0.2,0.2-0.3,0.4-0.4,0.7v4.2h-1v-6h0.7
			l0.2,0.7h0c0.2-0.3,0.3-0.5,0.5-0.6c0.2-0.1,0.5-0.2,0.8-0.2c0.2,0,0.5,0,0.8,0.1L404.4,237.8z"/>
		<path class="st10" d="M405.5,237.3c0.3-0.2,0.7-0.3,1.1-0.4c0.4-0.1,0.8-0.1,1.3-0.1c0.4,0,0.8,0.1,1,0.2c0.3,0.1,0.4,0.3,0.6,0.4
			c0.1,0.2,0.2,0.4,0.3,0.6c0,0.2,0.1,0.4,0.1,0.6c0,0.5,0,0.9,0,1.4s0,0.9,0,1.3c0,0.3,0,0.6,0,0.8s0.1,0.5,0.1,0.7h-0.7l-0.3-0.8
			h-0.1c-0.1,0.1-0.2,0.2-0.3,0.3c-0.1,0.1-0.2,0.2-0.4,0.3s-0.3,0.2-0.5,0.2c-0.2,0.1-0.4,0.1-0.7,0.1c-0.3,0-0.5,0-0.7-0.1
			c-0.2-0.1-0.4-0.2-0.6-0.3c-0.2-0.1-0.3-0.3-0.4-0.5c-0.1-0.2-0.1-0.4-0.1-0.7c0-0.4,0.1-0.6,0.2-0.9c0.1-0.2,0.3-0.4,0.6-0.6
			c0.3-0.1,0.6-0.2,0.9-0.3c0.4-0.1,0.8-0.1,1.2-0.1c0.1,0,0.2,0,0.3,0c0.1,0,0.2,0,0.3,0c0-0.2,0-0.5,0-0.6c0-0.4-0.1-0.7-0.3-0.9
			c-0.2-0.2-0.5-0.3-1-0.3c-0.1,0-0.3,0-0.4,0c-0.2,0-0.3,0-0.5,0.1s-0.3,0.1-0.5,0.1s-0.3,0.1-0.4,0.2L405.5,237.3z M407.2,242.1
			c0.2,0,0.4,0,0.6-0.1c0.2-0.1,0.3-0.1,0.5-0.2c0.1-0.1,0.2-0.2,0.3-0.3c0.1-0.1,0.1-0.2,0.2-0.3v-1c-0.1,0-0.2,0-0.3,0
			c-0.1,0-0.2,0-0.3,0c-0.2,0-0.5,0-0.7,0c-0.2,0-0.4,0.1-0.6,0.2c-0.2,0.1-0.3,0.2-0.4,0.3s-0.2,0.3-0.2,0.5c0,0.3,0.1,0.5,0.3,0.7
			C406.7,242.1,406.9,242.1,407.2,242.1z"/>
	</g>
	<g class="st9">
		<path class="st10" d="M410.8,236.9h0.9v-1.2l1-0.3v1.5h1.6v0.8h-1.6v3.3c0,0.4,0.1,0.7,0.2,0.9s0.3,0.3,0.5,0.3
			c0.2,0,0.4,0,0.5-0.1c0.1,0,0.3-0.1,0.5-0.2l0.2,0.7c-0.2,0.1-0.5,0.2-0.7,0.3c-0.3,0.1-0.5,0.1-0.8,0.1c-0.5,0-0.8-0.1-1-0.4
			c-0.2-0.3-0.3-0.7-0.3-1.4v-3.5h-0.9V236.9z"/>
	</g>
	<g class="st9">
		<path class="st10" d="M419.9,242.4c-0.2,0.2-0.5,0.3-0.9,0.5c-0.4,0.1-0.8,0.2-1.2,0.2c-0.5,0-0.9-0.1-1.2-0.2
			c-0.3-0.1-0.6-0.4-0.8-0.6c-0.2-0.3-0.4-0.6-0.5-1c-0.1-0.4-0.2-0.8-0.2-1.3c0-1,0.2-1.8,0.7-2.3s1.1-0.8,2-0.8
			c0.3,0,0.5,0,0.8,0.1c0.3,0.1,0.5,0.2,0.7,0.3c0.2,0.2,0.4,0.4,0.5,0.7c0.1,0.3,0.2,0.7,0.2,1.2c0,0.3,0,0.6-0.1,0.9h-3.9
			c0,0.4,0,0.7,0.1,0.9c0.1,0.3,0.2,0.5,0.3,0.7c0.2,0.2,0.4,0.3,0.6,0.4c0.2,0.1,0.5,0.1,0.9,0.1c0.3,0,0.5,0,0.8-0.1
			s0.5-0.2,0.6-0.3L419.9,242.4z M417.8,237.6c-0.5,0-0.9,0.1-1.1,0.4c-0.3,0.2-0.5,0.7-0.5,1.3h3c0-0.6-0.1-1-0.3-1.3
			C418.6,237.7,418.3,237.6,417.8,237.6z"/>
		<path class="st10" d="M429.4,236.9v6h-1v-5.2h-2.4v5.2h-1v-5.2h-0.9v-0.8h0.9v-0.3c0-0.8,0.2-1.3,0.6-1.6c0.4-0.3,0.9-0.5,1.6-0.5
			c0.5,0,0.9,0,1.3,0.1s0.7,0.2,0.9,0.3l-0.3,0.8c-0.2-0.1-0.5-0.2-0.8-0.3c-0.3-0.1-0.6-0.1-0.9-0.1c-0.3,0-0.5,0-0.7,0.1
			s-0.3,0.2-0.4,0.3c-0.1,0.1-0.2,0.3-0.2,0.5s0,0.4,0,0.7H429.4z"/>
		<path class="st10" d="M432.4,241.4c0,0.3,0,0.5,0.1,0.6s0.2,0.2,0.4,0.2c0.1,0,0.2,0,0.3,0c0.1,0,0.3-0.1,0.4-0.1l0.1,0.8
			c-0.1,0.1-0.3,0.1-0.5,0.2c-0.2,0-0.4,0.1-0.6,0.1c-0.4,0-0.7-0.1-0.9-0.3c-0.2-0.2-0.3-0.5-0.3-1v-7.2h1V241.4z"/>
		<path class="st10" d="M439.2,242.4c-0.2,0.2-0.5,0.3-0.9,0.5c-0.4,0.1-0.8,0.2-1.2,0.2c-0.5,0-0.9-0.1-1.2-0.2
			c-0.3-0.1-0.6-0.4-0.8-0.6c-0.2-0.3-0.4-0.6-0.5-1c-0.1-0.4-0.2-0.8-0.2-1.3c0-1,0.2-1.8,0.7-2.3s1.1-0.8,2-0.8
			c0.3,0,0.5,0,0.8,0.1c0.3,0.1,0.5,0.2,0.7,0.3c0.2,0.2,0.4,0.4,0.5,0.7c0.1,0.3,0.2,0.7,0.2,1.2c0,0.3,0,0.6-0.1,0.9h-3.9
			c0,0.4,0,0.7,0.1,0.9c0.1,0.3,0.2,0.5,0.3,0.7c0.2,0.2,0.4,0.3,0.6,0.4c0.2,0.1,0.5,0.1,0.9,0.1c0.3,0,0.5,0,0.8-0.1
			c0.3-0.1,0.5-0.2,0.6-0.3L439.2,242.4z M437.1,237.6c-0.5,0-0.9,0.1-1.1,0.4s-0.5,0.7-0.5,1.3h3c0-0.6-0.1-1-0.3-1.3
			C437.9,237.7,437.5,237.6,437.1,237.6z"/>
		<path class="st10" d="M443.5,241.3c0-0.2-0.1-0.4-0.2-0.6c-0.1-0.1-0.3-0.3-0.5-0.3s-0.4-0.2-0.7-0.3s-0.5-0.2-0.7-0.3
			s-0.4-0.3-0.5-0.5c-0.1-0.2-0.2-0.5-0.2-0.8c0-0.6,0.2-1,0.5-1.3c0.3-0.3,0.8-0.4,1.4-0.4c0.4,0,0.8,0,1.1,0.1
			c0.3,0.1,0.5,0.2,0.8,0.3l-0.2,0.8c-0.2-0.1-0.4-0.2-0.7-0.2c-0.3-0.1-0.5-0.1-0.8-0.1c-0.4,0-0.6,0.1-0.8,0.2s-0.2,0.3-0.2,0.6
			c0,0.2,0.1,0.4,0.2,0.5c0.1,0.1,0.3,0.2,0.5,0.3s0.4,0.2,0.7,0.3s0.5,0.2,0.7,0.3s0.4,0.3,0.5,0.5c0.1,0.2,0.2,0.5,0.2,0.9
			c0,0.3,0,0.5-0.1,0.7c-0.1,0.2-0.2,0.4-0.4,0.6c-0.2,0.2-0.4,0.3-0.7,0.4c-0.3,0.1-0.6,0.1-0.9,0.1c-0.5,0-0.8,0-1.2-0.1
			c-0.3-0.1-0.6-0.2-0.8-0.3l0.3-0.8c0.2,0.1,0.4,0.2,0.7,0.3s0.6,0.1,0.9,0.1c0.3,0,0.6-0.1,0.9-0.2
			C443.4,241.9,443.5,241.6,443.5,241.3z"/>
	</g>
	<g class="st9">
		<path class="st10" d="M714.7,242.4c-0.2,0.2-0.5,0.3-0.9,0.5c-0.4,0.1-0.8,0.2-1.2,0.2c-0.5,0-0.9-0.1-1.2-0.2
			c-0.3-0.1-0.6-0.4-0.8-0.6c-0.2-0.3-0.4-0.6-0.5-1s-0.2-0.8-0.2-1.3c0-1,0.2-1.8,0.7-2.3s1.1-0.8,2-0.8c0.3,0,0.5,0,0.8,0.1
			c0.3,0.1,0.5,0.2,0.7,0.3s0.4,0.4,0.5,0.7c0.1,0.3,0.2,0.7,0.2,1.2c0,0.3,0,0.6-0.1,0.9H711c0,0.4,0,0.7,0.1,0.9
			c0.1,0.3,0.2,0.5,0.3,0.7c0.2,0.2,0.3,0.3,0.6,0.4c0.2,0.1,0.5,0.1,0.9,0.1c0.3,0,0.5,0,0.8-0.1c0.3-0.1,0.5-0.2,0.6-0.3
			L714.7,242.4z M712.7,237.6c-0.5,0-0.9,0.1-1.1,0.4c-0.3,0.2-0.5,0.7-0.5,1.3h3c0-0.6-0.1-1-0.3-1.3
			C713.4,237.7,713.1,237.6,712.7,237.6z"/>
		<path class="st10" d="M720.3,242.9v-3.4c0-0.6-0.1-1.1-0.3-1.4c-0.2-0.3-0.5-0.5-1-0.5c-0.4,0-0.8,0.1-1.1,0.3
			c-0.3,0.2-0.5,0.5-0.6,0.9v4.1h-1v-6h0.7l0.2,0.7h0c0.2-0.3,0.5-0.5,0.8-0.6c0.3-0.2,0.7-0.2,1.2-0.2c0.3,0,0.6,0,0.9,0.1
			c0.2,0.1,0.5,0.2,0.6,0.4s0.3,0.5,0.4,0.8c0.1,0.3,0.1,0.7,0.1,1.2v3.6H720.3z"/>
		<path class="st10" d="M727.1,242.5c-0.2,0.2-0.5,0.3-0.9,0.4s-0.7,0.1-1,0.1c-0.5,0-0.9-0.1-1.2-0.2c-0.3-0.1-0.6-0.4-0.8-0.6
			c-0.2-0.3-0.4-0.6-0.4-1c-0.1-0.4-0.1-0.8-0.1-1.3c0-1,0.2-1.8,0.7-2.3c0.4-0.5,1.1-0.8,1.9-0.8c0.4,0,0.7,0,1,0.1
			c0.3,0.1,0.5,0.1,0.7,0.3l-0.3,0.8c-0.2-0.1-0.4-0.2-0.6-0.2c-0.2-0.1-0.5-0.1-0.7-0.1c-1.1,0-1.7,0.8-1.7,2.3
			c0,0.3,0,0.6,0.1,0.9c0.1,0.3,0.2,0.5,0.3,0.7c0.1,0.2,0.3,0.4,0.6,0.5c0.2,0.1,0.5,0.2,0.8,0.2c0.3,0,0.5,0,0.8-0.1
			c0.2-0.1,0.4-0.2,0.6-0.3L727.1,242.5z"/>
		<path class="st10" d="M729.5,241.4c0,0.3,0,0.5,0.1,0.6s0.2,0.2,0.4,0.2c0.1,0,0.2,0,0.3,0c0.1,0,0.3-0.1,0.4-0.1l0.1,0.8
			c-0.1,0.1-0.3,0.1-0.5,0.2c-0.2,0-0.4,0.1-0.6,0.1c-0.4,0-0.7-0.1-0.9-0.3c-0.2-0.2-0.3-0.5-0.3-1v-7.2h1V241.4z"/>
		<path class="st10" d="M731.8,237.3c0.3-0.2,0.7-0.3,1.1-0.4s0.8-0.1,1.3-0.1c0.4,0,0.8,0.1,1,0.2c0.3,0.1,0.4,0.3,0.6,0.4
			c0.1,0.2,0.2,0.4,0.3,0.6c0,0.2,0.1,0.4,0.1,0.6c0,0.5,0,0.9,0,1.4c0,0.5,0,0.9,0,1.3c0,0.3,0,0.6,0,0.8c0,0.3,0.1,0.5,0.1,0.7
			h-0.7l-0.3-0.8h-0.1c-0.1,0.1-0.2,0.2-0.3,0.3c-0.1,0.1-0.2,0.2-0.4,0.3c-0.2,0.1-0.3,0.2-0.5,0.2c-0.2,0.1-0.4,0.1-0.7,0.1
			s-0.5,0-0.7-0.1c-0.2-0.1-0.4-0.2-0.6-0.3c-0.2-0.1-0.3-0.3-0.4-0.5c-0.1-0.2-0.1-0.4-0.1-0.7c0-0.4,0.1-0.6,0.2-0.9
			c0.1-0.2,0.3-0.4,0.6-0.6c0.3-0.1,0.6-0.2,0.9-0.3c0.4-0.1,0.8-0.1,1.2-0.1c0.1,0,0.2,0,0.3,0s0.2,0,0.3,0c0-0.2,0-0.5,0-0.6
			c0-0.4-0.1-0.7-0.3-0.9c-0.2-0.2-0.5-0.3-1-0.3c-0.1,0-0.3,0-0.4,0c-0.2,0-0.3,0-0.5,0.1s-0.3,0.1-0.5,0.1
			c-0.1,0.1-0.3,0.1-0.4,0.2L731.8,237.3z M733.5,242.1c0.2,0,0.4,0,0.6-0.1s0.3-0.1,0.5-0.2c0.1-0.1,0.2-0.2,0.3-0.3
			c0.1-0.1,0.1-0.2,0.2-0.3v-1c-0.1,0-0.2,0-0.3,0c-0.1,0-0.2,0-0.3,0c-0.2,0-0.5,0-0.7,0s-0.4,0.1-0.6,0.2s-0.3,0.2-0.4,0.3
			c-0.1,0.1-0.2,0.3-0.2,0.5c0,0.3,0.1,0.5,0.3,0.7C733,242.1,733.2,242.1,733.5,242.1z"/>
	</g>
	<g class="st9">
		<path class="st10" d="M739.6,240.4l0.3,1.1h0l0.3-1.2l1.3-3.5h1l-2.6,6.1h-0.4l-2.6-6.1h1.1L739.6,240.4z"/>
	</g>
	<g class="st9">
		<path class="st10" d="M747.9,242.4c-0.2,0.2-0.5,0.3-0.9,0.5c-0.4,0.1-0.8,0.2-1.2,0.2c-0.5,0-0.9-0.1-1.2-0.2
			c-0.3-0.1-0.6-0.4-0.8-0.6c-0.2-0.3-0.4-0.6-0.5-1c-0.1-0.4-0.2-0.8-0.2-1.3c0-1,0.2-1.8,0.7-2.3s1.1-0.8,2-0.8
			c0.3,0,0.5,0,0.8,0.1c0.3,0.1,0.5,0.2,0.7,0.3c0.2,0.2,0.4,0.4,0.5,0.7c0.1,0.3,0.2,0.7,0.2,1.2c0,0.3,0,0.6-0.1,0.9h-3.9
			c0,0.4,0,0.7,0.1,0.9c0.1,0.3,0.2,0.5,0.3,0.7c0.2,0.2,0.4,0.3,0.6,0.4c0.2,0.1,0.5,0.1,0.9,0.1c0.3,0,0.5,0,0.8-0.1
			c0.3-0.1,0.5-0.2,0.6-0.3L747.9,242.4z M745.9,237.6c-0.5,0-0.9,0.1-1.1,0.4s-0.5,0.7-0.5,1.3h3c0-0.6-0.1-1-0.3-1.3
			C746.6,237.7,746.3,237.6,745.9,237.6z"/>
	</g>
	<path class="st11" d="M18.6,21h160c2.8,0,5,2.2,5,5v20c0,2.8-2.2,5-5,5h-160c-2.8,0-5-2.2-5-5V26C13.6,23.2,15.9,21,18.6,21z"/>
	<g class="st9">
		<path class="st10" d="M65.9,39.3l0.6-0.1l2.6-7.4h1.8l2.6,7.4l0.6,0.1v1h-2.9v-1l0.6-0.1L71.3,38h-2.8l-0.4,1.2l0.6,0.1v1h-2.9
			V39.3z M69,36.7h2l-1-3h0L69,36.7z"/>
		<path class="st10" d="M74.5,35v-1H77l0.1,0.7c0.2-0.3,0.4-0.5,0.7-0.6s0.6-0.2,0.9-0.2c0.8,0,1.4,0.3,1.8,0.9s0.7,1.4,0.7,2.4v0.1
			c0,0.9-0.2,1.7-0.7,2.3s-1,0.9-1.8,0.9c-0.3,0-0.6-0.1-0.9-0.2s-0.5-0.3-0.7-0.5v1.8l0.8,0.2v1h-3.4v-1l0.8-0.2v-6.4L74.5,35z
			 M79.4,37.2c0-0.6-0.1-1.1-0.3-1.5s-0.5-0.6-0.9-0.6c-0.3,0-0.5,0.1-0.7,0.2s-0.3,0.3-0.4,0.5v2.8c0.1,0.2,0.2,0.3,0.4,0.4
			s0.4,0.1,0.7,0.1c0.4,0,0.7-0.2,0.9-0.5s0.3-0.8,0.3-1.3V37.2z"/>
	</g>
	<g class="st9">
		<path class="st10" d="M81.7,35v-1h2.5l0.1,0.7c0.2-0.3,0.4-0.5,0.7-0.6s0.6-0.2,0.9-0.2c0.8,0,1.4,0.3,1.8,0.9s0.7,1.4,0.7,2.4
			v0.1c0,0.9-0.2,1.7-0.7,2.3s-1,0.9-1.8,0.9c-0.3,0-0.6-0.1-0.9-0.2s-0.5-0.3-0.7-0.5v1.8l0.8,0.2v1h-3.4v-1l0.8-0.2v-6.4L81.7,35z
			 M86.7,37.2c0-0.6-0.1-1.1-0.3-1.5s-0.5-0.6-0.9-0.6c-0.3,0-0.5,0.1-0.7,0.2s-0.3,0.3-0.4,0.5v2.8c0.1,0.2,0.2,0.3,0.4,0.4
			s0.4,0.1,0.7,0.1c0.4,0,0.7-0.2,0.9-0.5s0.3-0.8,0.3-1.3V37.2z"/>
	</g>
	<g class="st9">
		<path class="st10" d="M88.8,32.2v-1h2.6v7.9l0.8,0.2v1h-3.4v-1l0.8-0.2v-6.7L88.8,32.2z"/>
		<path class="st10" d="M92.8,39.3l0.8-0.2v-3.9L92.7,35v-1h2.6v5.1l0.8,0.2v1h-3.4V39.3z M95.3,32.5h-1.7v-1.3h1.7V32.5z"/>
		<path class="st10" d="M99.7,39.1c0.3,0,0.5-0.1,0.7-0.3s0.3-0.4,0.3-0.7h1.5l0,0c0,0.6-0.2,1.2-0.7,1.6s-1.1,0.6-1.9,0.6
			c-0.9,0-1.7-0.3-2.2-0.9s-0.8-1.4-0.8-2.3v-0.2c0-0.9,0.3-1.7,0.8-2.3s1.3-0.9,2.2-0.9c0.5,0,1,0.1,1.4,0.2s0.7,0.4,1,0.6l0,1.7
			h-1.4l-0.3-1c-0.1-0.1-0.2-0.1-0.3-0.2s-0.3-0.1-0.4-0.1c-0.5,0-0.8,0.2-1,0.5s-0.3,0.8-0.3,1.4v0.2c0,0.6,0.1,1,0.3,1.4
			S99.2,39.1,99.7,39.1z"/>
	</g>
	<g class="st9">
		<path class="st10" d="M107.1,40.3c0-0.1-0.1-0.2-0.1-0.3s-0.1-0.2-0.1-0.3c-0.2,0.2-0.5,0.4-0.7,0.6s-0.6,0.2-1,0.2
			c-0.6,0-1.1-0.2-1.5-0.5s-0.5-0.8-0.5-1.4c0-0.6,0.2-1.1,0.7-1.4s1.2-0.5,2.1-0.5h0.9v-0.6c0-0.3-0.1-0.5-0.3-0.7
			s-0.4-0.3-0.8-0.3c-0.2,0-0.4,0-0.5,0.1s-0.3,0.1-0.4,0.2l-0.1,0.7h-1.3l0-1.4c0.3-0.2,0.7-0.4,1.1-0.5s0.8-0.2,1.3-0.2
			c0.8,0,1.4,0.2,1.9,0.6s0.7,0.9,0.7,1.6v2.6c0,0.1,0,0.2,0,0.3s0,0.2,0,0.2l0.5,0.1v1H107.1z M105.6,39.2c0.3,0,0.5-0.1,0.7-0.2
			s0.4-0.3,0.5-0.4v-1h-0.9c-0.4,0-0.6,0.1-0.8,0.3s-0.3,0.4-0.3,0.6c0,0.2,0.1,0.4,0.2,0.5S105.3,39.2,105.6,39.2z"/>
	</g>
	<g class="st9">
		<path class="st10" d="M111.7,32.4V34h1.1v1.2h-1.1v3.2c0,0.2,0.1,0.4,0.2,0.5s0.2,0.2,0.4,0.2c0.1,0,0.2,0,0.3,0s0.2,0,0.3,0
			l0.1,1.2c-0.2,0.1-0.4,0.1-0.6,0.1s-0.4,0-0.6,0c-0.6,0-1-0.2-1.4-0.5s-0.5-0.8-0.5-1.5v-3.2H109V34h0.9v-1.6H111.7z"/>
		<path class="st10" d="M113.6,39.3l0.8-0.2v-3.9l-0.9-0.2v-1h2.6v5.1l0.8,0.2v1h-3.4V39.3z M116.1,32.5h-1.7v-1.3h1.7V32.5z"/>
		<path class="st10" d="M117.5,37.1c0-0.9,0.3-1.7,0.8-2.3s1.3-0.9,2.2-0.9c0.9,0,1.7,0.3,2.2,0.9s0.8,1.4,0.8,2.3v0.1
			c0,1-0.3,1.7-0.8,2.3s-1.3,0.9-2.2,0.9c-0.9,0-1.7-0.3-2.2-0.9s-0.8-1.4-0.8-2.3V37.1z M119.2,37.2c0,0.6,0.1,1,0.3,1.4
			s0.5,0.5,1,0.5c0.4,0,0.8-0.2,1-0.5s0.3-0.8,0.3-1.4v-0.1c0-0.6-0.1-1-0.3-1.4s-0.5-0.5-1-0.5s-0.8,0.2-1,0.5s-0.3,0.8-0.3,1.4
			V37.2z"/>
		<path class="st10" d="M124.1,39.3l0.8-0.2v-3.9L124,35v-1h2.5l0.1,0.9c0.2-0.3,0.5-0.6,0.8-0.8s0.7-0.3,1-0.3
			c0.6,0,1.1,0.2,1.5,0.6s0.5,1,0.5,1.9v2.8l0.8,0.2v1H128v-1l0.7-0.2v-2.8c0-0.4-0.1-0.7-0.3-0.9s-0.4-0.3-0.8-0.3
			c-0.2,0-0.4,0-0.6,0.1s-0.3,0.2-0.5,0.4v3.4l0.7,0.2v1h-3.2V39.3z"/>
	</g>
	<path class="st11" d="M18.6,65.9h160c2.8,0,5,2.2,5,5v20c0,2.8-2.2,5-5,5h-160c-2.8,0-5-2.2-5-5v-20C13.6,68.1,15.9,65.9,18.6,65.9
		z"/>
	<g class="st9">
		<path class="st10" d="M40.6,84.2l0.6-0.1l2.6-7.4h1.8l2.6,7.4l0.6,0.1v1h-2.9v-1l0.6-0.1L46,82.9h-2.8l-0.4,1.2l0.6,0.1v1h-2.9
			V84.2z M43.7,81.7h2l-1-3h0L43.7,81.7z"/>
		<path class="st10" d="M49.2,79.9v-1h2.5l0.1,0.7c0.2-0.3,0.4-0.5,0.7-0.6s0.6-0.2,0.9-0.2c0.8,0,1.4,0.3,1.8,0.9s0.7,1.4,0.7,2.4
			v0.1c0,0.9-0.2,1.7-0.7,2.3s-1,0.9-1.8,0.9c-0.3,0-0.6-0.1-0.9-0.2s-0.5-0.3-0.7-0.5v1.8l0.8,0.2v1h-3.4v-1l0.8-0.2v-6.4
			L49.2,79.9z M54.1,82.1c0-0.6-0.1-1.1-0.3-1.5s-0.5-0.6-0.9-0.6c-0.3,0-0.5,0.1-0.7,0.2s-0.3,0.3-0.4,0.5v2.8
			c0.1,0.2,0.2,0.3,0.4,0.4s0.4,0.1,0.7,0.1c0.4,0,0.7-0.2,0.9-0.5s0.3-0.8,0.3-1.3V82.1z"/>
	</g>
	<g class="st9">
		<path class="st10" d="M56.5,79.9v-1h2.5l0.1,0.7c0.2-0.3,0.4-0.5,0.7-0.6s0.6-0.2,0.9-0.2c0.8,0,1.4,0.3,1.8,0.9s0.7,1.4,0.7,2.4
			v0.1c0,0.9-0.2,1.7-0.7,2.3s-1,0.9-1.8,0.9c-0.3,0-0.6-0.1-0.9-0.2s-0.5-0.3-0.7-0.5v1.8l0.8,0.2v1h-3.4v-1l0.8-0.2v-6.4
			L56.5,79.9z M61.4,82.1c0-0.6-0.1-1.1-0.3-1.5s-0.5-0.6-0.9-0.6c-0.3,0-0.5,0.1-0.7,0.2s-0.3,0.3-0.4,0.5v2.8
			c0.1,0.2,0.2,0.3,0.4,0.4s0.4,0.1,0.7,0.1c0.4,0,0.7-0.2,0.9-0.5s0.3-0.8,0.3-1.3V82.1z"/>
	</g>
	<g class="st9">
		<path class="st10" d="M63.6,77.1v-1h2.6V84l0.8,0.2v1h-3.4v-1l0.8-0.2v-6.7L63.6,77.1z"/>
		<path class="st10" d="M67.5,84.2l0.8-0.2v-3.9l-0.9-0.2v-1H70V84l0.8,0.2v1h-3.4V84.2z M70,77.4h-1.7v-1.3H70V77.4z"/>
		<path class="st10" d="M74.4,84.1c0.3,0,0.5-0.1,0.7-0.3s0.3-0.4,0.3-0.7H77l0,0c0,0.6-0.2,1.2-0.7,1.6s-1.1,0.6-1.9,0.6
			c-0.9,0-1.7-0.3-2.2-0.9s-0.8-1.4-0.8-2.3V82c0-0.9,0.3-1.7,0.8-2.3s1.3-0.9,2.2-0.9c0.5,0,1,0.1,1.4,0.2s0.7,0.4,1,0.6l0,1.7
			h-1.4l-0.3-1c-0.1-0.1-0.2-0.1-0.3-0.2s-0.3-0.1-0.4-0.1c-0.5,0-0.8,0.2-1,0.5s-0.3,0.8-0.3,1.4v0.2c0,0.6,0.1,1,0.3,1.4
			S73.9,84.1,74.4,84.1z"/>
	</g>
	<g class="st9">
		<path class="st10" d="M81.8,85.3c0-0.1-0.1-0.2-0.1-0.3s-0.1-0.2-0.1-0.3c-0.2,0.2-0.5,0.4-0.7,0.6s-0.6,0.2-1,0.2
			c-0.6,0-1.1-0.2-1.5-0.5s-0.5-0.8-0.5-1.4c0-0.6,0.2-1.1,0.7-1.4s1.2-0.5,2.1-0.5h0.9V81c0-0.3-0.1-0.5-0.3-0.7S80.8,80,80.5,80
			c-0.2,0-0.4,0-0.5,0.1s-0.3,0.1-0.4,0.2l-0.1,0.7h-1.3l0-1.4c0.3-0.2,0.7-0.4,1.1-0.5s0.8-0.2,1.3-0.2c0.8,0,1.4,0.2,1.9,0.6
			s0.7,0.9,0.7,1.6v2.6c0,0.1,0,0.2,0,0.3s0,0.2,0,0.2l0.5,0.1v1H81.8z M80.3,84.1c0.3,0,0.5-0.1,0.7-0.2s0.4-0.3,0.5-0.4v-1h-0.9
			c-0.4,0-0.6,0.1-0.8,0.3s-0.3,0.4-0.3,0.6c0,0.2,0.1,0.4,0.2,0.5S80.1,84.1,80.3,84.1z"/>
	</g>
	<g class="st9">
		<path class="st10" d="M86.4,77.4v1.6h1.1v1.2h-1.1v3.2c0,0.2,0.1,0.4,0.2,0.5S86.8,84,87,84c0.1,0,0.2,0,0.3,0s0.2,0,0.3,0
			l0.1,1.2c-0.2,0.1-0.4,0.1-0.6,0.1s-0.4,0-0.6,0c-0.6,0-1-0.2-1.4-0.5s-0.5-0.8-0.5-1.5v-3.2h-0.9v-1.2h0.9v-1.6H86.4z"/>
		<path class="st10" d="M88.3,84.2l0.8-0.2v-3.9l-0.9-0.2v-1h2.6V84l0.8,0.2v1h-3.4V84.2z M90.8,77.4h-1.7v-1.3h1.7V77.4z"/>
		<path class="st10" d="M92.2,82c0-0.9,0.3-1.7,0.8-2.3s1.3-0.9,2.2-0.9c0.9,0,1.7,0.3,2.2,0.9s0.8,1.4,0.8,2.3v0.1
			c0,1-0.3,1.7-0.8,2.3s-1.3,0.9-2.2,0.9c-0.9,0-1.7-0.3-2.2-0.9s-0.8-1.4-0.8-2.3V82z M93.9,82.1c0,0.6,0.1,1,0.3,1.4
			s0.5,0.5,1,0.5c0.4,0,0.8-0.2,1-0.5s0.3-0.8,0.3-1.4V82c0-0.6-0.1-1-0.3-1.4s-0.5-0.5-1-0.5s-0.8,0.2-1,0.5s-0.3,0.8-0.3,1.4V82.1
			z"/>
		<path class="st10" d="M98.9,84.2l0.8-0.2v-3.9l-0.9-0.2v-1h2.5l0.1,0.9c0.2-0.3,0.5-0.6,0.8-0.8s0.7-0.3,1-0.3
			c0.6,0,1.1,0.2,1.5,0.6s0.5,1,0.5,1.9V84l0.8,0.2v1h-3.3v-1l0.7-0.2v-2.8c0-0.4-0.1-0.7-0.3-0.9s-0.4-0.3-0.8-0.3
			c-0.2,0-0.4,0-0.6,0.1s-0.3,0.2-0.5,0.4V84l0.7,0.2v1h-3.2V84.2z"/>
		<path class="st10" d="M109.3,77.1v-1h2.6V84l0.8,0.2v1h-3.4v-1l0.8-0.2v-6.7L109.3,77.1z"/>
		<path class="st10" d="M113.3,84.2l0.8-0.2v-3.9l-0.9-0.2v-1h2.6V84l0.8,0.2v1h-3.4V84.2z M115.8,77.4h-1.7v-1.3h1.7V77.4z"/>
		<path class="st10" d="M123.3,82.3c0,0.9-0.2,1.7-0.6,2.3s-1,0.8-1.8,0.8c-0.4,0-0.7-0.1-1-0.2s-0.5-0.4-0.7-0.7l-0.1,0.8h-1.5
			v-7.9l-0.9-0.2v-1h2.6v3.5c0.2-0.3,0.4-0.4,0.7-0.6s0.5-0.2,0.9-0.2c0.8,0,1.4,0.3,1.8,0.9s0.6,1.4,0.6,2.4V82.3z M121.6,82.1
			c0-0.6-0.1-1.1-0.3-1.5s-0.5-0.5-0.9-0.5c-0.3,0-0.5,0.1-0.7,0.2s-0.3,0.3-0.4,0.5v2.7c0.1,0.2,0.3,0.3,0.4,0.4s0.4,0.2,0.7,0.2
			c0.4,0,0.8-0.2,0.9-0.5s0.3-0.8,0.3-1.3V82.1z"/>
	</g>
	<g class="st9">
		<path class="st10" d="M124.2,84.2l0.8-0.2v-3.9l-0.9-0.2v-1h2.5l0.1,0.9c0.1-0.3,0.3-0.6,0.6-0.8s0.5-0.3,0.8-0.3
			c0.1,0,0.2,0,0.3,0s0.2,0,0.2,0l-0.2,1.6l-0.7,0c-0.3,0-0.5,0-0.6,0.1s-0.3,0.2-0.4,0.4V84l0.8,0.2v1h-3.4V84.2z"/>
	</g>
	<g class="st9">
		<path class="st10" d="M133.1,85.3c0-0.1-0.1-0.2-0.1-0.3s-0.1-0.2-0.1-0.3c-0.2,0.2-0.5,0.4-0.7,0.6s-0.6,0.2-1,0.2
			c-0.6,0-1.1-0.2-1.5-0.5s-0.5-0.8-0.5-1.4c0-0.6,0.2-1.1,0.7-1.4s1.2-0.5,2.1-0.5h0.9V81c0-0.3-0.1-0.5-0.3-0.7s-0.4-0.3-0.8-0.3
			c-0.2,0-0.4,0-0.5,0.1s-0.3,0.1-0.4,0.2l-0.1,0.7h-1.3l0-1.4c0.3-0.2,0.7-0.4,1.1-0.5s0.8-0.2,1.3-0.2c0.8,0,1.4,0.2,1.9,0.6
			s0.7,0.9,0.7,1.6v2.6c0,0.1,0,0.2,0,0.3s0,0.2,0,0.2l0.5,0.1v1H133.1z M131.6,84.1c0.3,0,0.5-0.1,0.7-0.2s0.4-0.3,0.5-0.4v-1h-0.9
			c-0.4,0-0.6,0.1-0.8,0.3s-0.3,0.4-0.3,0.6c0,0.2,0.1,0.4,0.2,0.5S131.4,84.1,131.6,84.1z"/>
		<path class="st10" d="M135.8,84.2l0.8-0.2v-3.9l-0.9-0.2v-1h2.5l0.1,0.9c0.1-0.3,0.3-0.6,0.6-0.8s0.5-0.3,0.8-0.3
			c0.1,0,0.2,0,0.3,0s0.2,0,0.2,0l-0.2,1.6l-0.7,0c-0.3,0-0.5,0-0.6,0.1s-0.3,0.2-0.4,0.4V84l0.8,0.2v1h-3.4V84.2z"/>
		<path class="st10" d="M140.6,84.2l0.8-0.2v-3.9l-0.9-0.2v-1h2.6V84l0.8,0.2v1h-3.4V84.2z M143.2,77.4h-1.7v-1.3h1.7V77.4z"/>
		<path class="st10" d="M147.6,85.4c-0.9,0-1.6-0.3-2.2-0.9s-0.8-1.3-0.8-2.2V82c0-0.9,0.3-1.7,0.8-2.3s1.2-0.9,2.1-0.9
			c0.9,0,1.5,0.3,2,0.8s0.7,1.2,0.7,2.1v0.9h-3.8l0,0c0,0.4,0.2,0.8,0.4,1s0.6,0.4,1,0.4c0.4,0,0.7,0,0.9-0.1s0.5-0.2,0.8-0.4
			l0.5,1.1c-0.3,0.2-0.6,0.4-1,0.5S148.1,85.4,147.6,85.4z M147.5,80.1c-0.3,0-0.6,0.1-0.8,0.4s-0.3,0.6-0.3,1l0,0h2.1v-0.2
			c0-0.4-0.1-0.7-0.3-0.9S147.8,80.1,147.5,80.1z"/>
		<path class="st10" d="M156.1,81.1H155l-0.2-0.8c-0.1-0.1-0.3-0.2-0.4-0.2S154,80,153.8,80c-0.3,0-0.5,0.1-0.7,0.2
			s-0.3,0.3-0.3,0.5c0,0.2,0.1,0.4,0.3,0.5s0.5,0.2,1,0.3c0.8,0.2,1.4,0.4,1.7,0.7s0.6,0.7,0.6,1.3c0,0.6-0.2,1-0.7,1.4
			s-1.1,0.5-1.9,0.5c-0.5,0-0.9-0.1-1.3-0.2s-0.8-0.3-1.1-0.6l0-1.4h1.2l0.2,0.8c0.1,0.1,0.2,0.1,0.4,0.2s0.4,0.1,0.6,0.1
			c0.3,0,0.6-0.1,0.8-0.2s0.3-0.3,0.3-0.5c0-0.2-0.1-0.3-0.3-0.5s-0.5-0.3-1-0.4c-0.7-0.2-1.3-0.4-1.7-0.7s-0.6-0.7-0.6-1.2
			c0-0.5,0.2-1,0.7-1.4s1.1-0.6,1.9-0.6c0.5,0,1,0.1,1.4,0.2s0.8,0.3,1,0.5L156.1,81.1z"/>
	</g>
	<path class="st11" d="M18.6,109.8h160c2.8,0,5,2.2,5,5v20c0,2.8-2.2,5-5,5h-160c-2.8,0-5-2.2-5-5v-20
		C13.6,112.1,15.9,109.8,18.6,109.8z"/>
	<g class="st9">
		<path class="st10" d="M47.6,121.1v-1h2.6v7.9l0.8,0.2v1h-3.4v-1l0.8-0.2v-6.7L47.6,121.1z"/>
		<path class="st10" d="M51.5,128.1l0.8-0.2V124l-0.9-0.2v-1H54v5.1l0.8,0.2v1h-3.4V128.1z M54,121.3h-1.7V120H54V121.3z"/>
		<path class="st10" d="M61.6,126.2c0,0.9-0.2,1.7-0.6,2.3s-1,0.8-1.8,0.8c-0.4,0-0.7-0.1-1-0.2s-0.5-0.4-0.7-0.7l-0.1,0.8h-1.5
			v-7.9l-0.9-0.2v-1h2.6v3.5c0.2-0.3,0.4-0.4,0.7-0.6s0.5-0.2,0.9-0.2c0.8,0,1.4,0.3,1.8,0.9s0.6,1.4,0.6,2.4V126.2z M59.9,126
			c0-0.6-0.1-1.1-0.3-1.5s-0.5-0.5-0.9-0.5c-0.3,0-0.5,0.1-0.7,0.2s-0.3,0.3-0.4,0.5v2.7c0.1,0.2,0.3,0.3,0.4,0.4s0.4,0.2,0.7,0.2
			c0.4,0,0.8-0.2,0.9-0.5s0.3-0.8,0.3-1.3V126z"/>
		<path class="st10" d="M65.3,128c0.3,0,0.5-0.1,0.7-0.3s0.3-0.4,0.3-0.7h1.5l0,0c0,0.6-0.2,1.2-0.7,1.6s-1.1,0.6-1.9,0.6
			c-0.9,0-1.7-0.3-2.2-0.9s-0.8-1.4-0.8-2.3v-0.2c0-0.9,0.3-1.7,0.8-2.3s1.3-0.9,2.2-0.9c0.5,0,1,0.1,1.4,0.2s0.7,0.4,1,0.6l0,1.7
			h-1.4l-0.3-1c-0.1-0.1-0.2-0.1-0.3-0.2s-0.3-0.1-0.4-0.1c-0.5,0-0.8,0.2-1,0.5s-0.3,0.8-0.3,1.4v0.2c0,0.6,0.1,1,0.3,1.4
			S64.9,128,65.3,128z"/>
		<path class="st10" d="M71.8,125.7c0-1.5,0.3-2.8,0.9-3.9s1.3-1.8,2-2.1h0l0.3,0.9c-0.5,0.4-0.9,1-1.3,1.9s-0.5,1.9-0.5,3.3v0.2
			c0,1.3,0.2,2.4,0.5,3.3s0.8,1.5,1.3,1.9l-0.3,0.8h0c-0.8-0.3-1.4-1-2-2.1s-0.9-2.4-0.9-3.9V125.7z"/>
		<path class="st10" d="M83.4,125c0,1.3-0.4,2.3-1.1,3.1s-1.7,1.2-2.8,1.2c-1.2,0-2.1-0.4-2.8-1.2s-1.1-1.8-1.1-3.1v-0.1
			c0-1.2,0.4-2.3,1.1-3.1s1.6-1.2,2.8-1.2c1.2,0,2.1,0.4,2.8,1.2s1.1,1.9,1.1,3.1V125z M81.7,124.8c0-0.9-0.2-1.6-0.6-2.2
			s-0.9-0.8-1.6-0.8s-1.3,0.3-1.6,0.8s-0.5,1.3-0.5,2.2v0.1c0,0.9,0.2,1.6,0.5,2.2s0.9,0.8,1.6,0.8c0.7,0,1.3-0.3,1.6-0.8
			s0.5-1.3,0.5-2.2V124.8z"/>
		<path class="st10" d="M90.6,123.4h-1.3l-0.2-1.2c-0.1-0.1-0.4-0.2-0.7-0.2s-0.6-0.1-0.9-0.1c-0.5,0-0.8,0.1-1.1,0.3
			s-0.4,0.5-0.4,0.8c0,0.3,0.1,0.5,0.4,0.7s0.7,0.4,1.4,0.6c0.9,0.3,1.7,0.6,2.1,1s0.7,1,0.7,1.7c0,0.7-0.3,1.3-0.9,1.7
			s-1.3,0.6-2.3,0.6c-0.7,0-1.3-0.1-1.8-0.3s-1-0.5-1.4-0.9v-1.8h1.3l0.2,1.2c0.2,0.1,0.4,0.3,0.7,0.3s0.6,0.1,1,0.1
			c0.5,0,0.8-0.1,1.1-0.3s0.4-0.4,0.4-0.8c0-0.3-0.1-0.6-0.3-0.8s-0.6-0.4-1.2-0.6c-1-0.3-1.8-0.6-2.3-1s-0.8-1-0.8-1.7
			c0-0.7,0.3-1.3,0.9-1.7s1.3-0.7,2.2-0.7c0.7,0,1.3,0.1,1.8,0.3s1,0.5,1.4,0.8V123.4z"/>
		<path class="st10" d="M94.3,121.7v-1h3.5v1l-0.9,0.2v6.1l0.9,0.2v1h-3.5v-1l0.9-0.2v-6.1L94.3,121.7z"/>
		<path class="st10" d="M98.4,128.1l0.8-0.2V124l-0.9-0.2v-1h2.5l0.1,0.9c0.2-0.3,0.5-0.6,0.8-0.8s0.7-0.3,1-0.3
			c0.6,0,1.1,0.2,1.5,0.6s0.5,1,0.5,1.9v2.8l0.8,0.2v1h-3.3v-1l0.7-0.2v-2.8c0-0.4-0.1-0.7-0.3-0.9s-0.4-0.3-0.8-0.3
			c-0.2,0-0.4,0-0.6,0.1s-0.3,0.2-0.5,0.4v3.4l0.7,0.2v1h-3.2V128.1z"/>
		<path class="st10" d="M108.7,121.3v1.6h1.1v1.2h-1.1v3.2c0,0.2,0.1,0.4,0.2,0.5s0.2,0.2,0.4,0.2c0.1,0,0.2,0,0.3,0s0.2,0,0.3,0
			l0.1,1.2c-0.2,0.1-0.4,0.1-0.6,0.1s-0.4,0-0.6,0c-0.6,0-1-0.2-1.4-0.5s-0.5-0.8-0.5-1.5V124H106v-1.2h0.9v-1.6H108.7z"/>
		<path class="st10" d="M113.6,129.3c-0.9,0-1.6-0.3-2.2-0.9s-0.8-1.3-0.8-2.2v-0.2c0-0.9,0.3-1.7,0.8-2.3s1.2-0.9,2.1-0.9
			c0.9,0,1.5,0.3,2,0.8s0.7,1.2,0.7,2.1v0.9h-3.8l0,0c0,0.4,0.2,0.8,0.4,1s0.6,0.4,1,0.4c0.4,0,0.7,0,0.9-0.1s0.5-0.2,0.8-0.4
			l0.5,1.1c-0.3,0.2-0.6,0.4-1,0.5S114.2,129.3,113.6,129.3z M113.5,124c-0.3,0-0.6,0.1-0.8,0.4s-0.3,0.6-0.3,1l0,0h2.1v-0.2
			c0-0.4-0.1-0.7-0.3-0.9S113.8,124,113.5,124z"/>
	</g>
	<g class="st9">
		<path class="st10" d="M117.1,128.1l0.8-0.2V124l-0.9-0.2v-1h2.5l0.1,0.9c0.1-0.3,0.3-0.6,0.6-0.8s0.5-0.3,0.8-0.3
			c0.1,0,0.2,0,0.3,0s0.2,0,0.2,0l-0.2,1.6l-0.7,0c-0.3,0-0.5,0-0.6,0.1s-0.3,0.2-0.4,0.4v3.1l0.8,0.2v1h-3.4V128.1z"/>
	</g>
	<g class="st9">
		<path class="st10" d="M122.3,128.1l0.8-0.2V124h-0.9v-1.2h0.9v-0.7c0-0.7,0.2-1.3,0.6-1.6s1-0.6,1.7-0.6c0.1,0,0.3,0,0.4,0
			s0.3,0.1,0.5,0.1l-0.1,1.3c-0.1,0-0.2,0-0.3,0s-0.2,0-0.3,0c-0.3,0-0.5,0.1-0.6,0.2s-0.2,0.4-0.2,0.7v0.7h1.3v1.2h-1.3v3.9
			l0.8,0.2v1h-3.4V128.1z"/>
		<path class="st10" d="M130.7,129.2c0-0.1-0.1-0.2-0.1-0.3s-0.1-0.2-0.1-0.3c-0.2,0.2-0.5,0.4-0.7,0.6s-0.6,0.2-1,0.2
			c-0.6,0-1.1-0.2-1.5-0.5s-0.5-0.8-0.5-1.4c0-0.6,0.2-1.1,0.7-1.4s1.2-0.5,2.1-0.5h0.9v-0.6c0-0.3-0.1-0.5-0.3-0.7
			s-0.4-0.3-0.8-0.3c-0.2,0-0.4,0-0.5,0.1s-0.3,0.1-0.4,0.2l-0.1,0.7H127l0-1.4c0.3-0.2,0.7-0.4,1.1-0.5s0.8-0.2,1.3-0.2
			c0.8,0,1.4,0.2,1.9,0.6s0.7,0.9,0.7,1.6v2.6c0,0.1,0,0.2,0,0.3s0,0.2,0,0.2l0.5,0.1v1H130.7z M129.2,128c0.3,0,0.5-0.1,0.7-0.2
			s0.4-0.3,0.5-0.4v-1h-0.9c-0.4,0-0.6,0.1-0.8,0.3s-0.3,0.4-0.3,0.6c0,0.2,0.1,0.4,0.2,0.5S128.9,128,129.2,128z"/>
		<path class="st10" d="M136.2,128c0.3,0,0.5-0.1,0.7-0.3s0.3-0.4,0.3-0.7h1.5l0,0c0,0.6-0.2,1.2-0.7,1.6s-1.1,0.6-1.9,0.6
			c-0.9,0-1.7-0.3-2.2-0.9s-0.8-1.4-0.8-2.3v-0.2c0-0.9,0.3-1.7,0.8-2.3s1.3-0.9,2.2-0.9c0.5,0,1,0.1,1.4,0.2s0.7,0.4,1,0.6l0,1.7
			h-1.4l-0.3-1c-0.1-0.1-0.2-0.1-0.3-0.2s-0.3-0.1-0.4-0.1c-0.5,0-0.8,0.2-1,0.5s-0.3,0.8-0.3,1.4v0.2c0,0.6,0.1,1,0.3,1.4
			S135.7,128,136.2,128z"/>
		<path class="st10" d="M142.6,129.3c-0.9,0-1.6-0.3-2.2-0.9s-0.8-1.3-0.8-2.2v-0.2c0-0.9,0.3-1.7,0.8-2.3s1.2-0.9,2.1-0.9
			c0.9,0,1.5,0.3,2,0.8s0.7,1.2,0.7,2.1v0.9h-3.8l0,0c0,0.4,0.2,0.8,0.4,1s0.6,0.4,1,0.4c0.4,0,0.7,0,0.9-0.1s0.5-0.2,0.8-0.4
			l0.5,1.1c-0.3,0.2-0.6,0.4-1,0.5S143.1,129.3,142.6,129.3z M142.4,124c-0.3,0-0.6,0.1-0.8,0.4s-0.3,0.6-0.3,1l0,0h2.1v-0.2
			c0-0.4-0.1-0.7-0.3-0.9S142.8,124,142.4,124z"/>
		<path class="st10" d="M149.3,125.8c0,1.5-0.3,2.8-0.9,3.9s-1.3,1.8-2.1,2.1h0l-0.3-0.8c0.5-0.4,0.9-1,1.3-1.9s0.5-1.9,0.5-3.3
			v-0.2c0-1.3-0.2-2.4-0.5-3.3s-0.8-1.5-1.3-1.9l0.3-0.8h0c0.8,0.3,1.4,1,2.1,2.1s0.9,2.4,0.9,3.9V125.8z"/>
	</g>
	<path class="st11" d="M332.7,21h160c2.8,0,5,2.2,5,5v20c0,2.8-2.2,5-5,5h-160c-2.8,0-5-2.2-5-5V26C327.7,23.2,329.9,21,332.7,21z"
		/>
	<g class="st9">
		<path class="st10" d="M379.9,39.3l0.6-0.1l2.6-7.4h1.8l2.6,7.4l0.6,0.1v1h-2.9v-1l0.6-0.1l-0.4-1.2h-2.8l-0.4,1.2l0.6,0.1v1h-2.9
			V39.3z M383,36.7h2l-1-3h0L383,36.7z"/>
		<path class="st10" d="M388.5,35v-1h2.5l0.1,0.7c0.2-0.3,0.4-0.5,0.7-0.6s0.6-0.2,0.9-0.2c0.8,0,1.4,0.3,1.8,0.9s0.7,1.4,0.7,2.4
			v0.1c0,0.9-0.2,1.7-0.7,2.3s-1,0.9-1.8,0.9c-0.3,0-0.6-0.1-0.9-0.2s-0.5-0.3-0.7-0.5v1.8l0.8,0.2v1h-3.4v-1l0.8-0.2v-6.4L388.5,35
			z M393.4,37.2c0-0.6-0.1-1.1-0.3-1.5s-0.5-0.6-0.9-0.6c-0.3,0-0.5,0.1-0.7,0.2s-0.3,0.3-0.4,0.5v2.8c0.1,0.2,0.2,0.3,0.4,0.4
			s0.4,0.1,0.7,0.1c0.4,0,0.7-0.2,0.9-0.5s0.3-0.8,0.3-1.3V37.2z"/>
	</g>
	<g class="st9">
		<path class="st10" d="M395.8,35v-1h2.5l0.1,0.7c0.2-0.3,0.4-0.5,0.7-0.6s0.6-0.2,0.9-0.2c0.8,0,1.4,0.3,1.8,0.9s0.7,1.4,0.7,2.4
			v0.1c0,0.9-0.2,1.7-0.7,2.3s-1,0.9-1.8,0.9c-0.3,0-0.6-0.1-0.9-0.2s-0.5-0.3-0.7-0.5v1.8l0.8,0.2v1h-3.4v-1l0.8-0.2v-6.4L395.8,35
			z M400.7,37.2c0-0.6-0.1-1.1-0.3-1.5s-0.5-0.6-0.9-0.6c-0.3,0-0.5,0.1-0.7,0.2s-0.3,0.3-0.4,0.5v2.8c0.1,0.2,0.2,0.3,0.4,0.4
			s0.4,0.1,0.7,0.1c0.4,0,0.7-0.2,0.9-0.5s0.3-0.8,0.3-1.3V37.2z"/>
	</g>
	<g class="st9">
		<path class="st10" d="M402.9,32.2v-1h2.6v7.9l0.8,0.2v1H403v-1l0.8-0.2v-6.7L402.9,32.2z"/>
		<path class="st10" d="M406.8,39.3l0.8-0.2v-3.9l-0.9-0.2v-1h2.6v5.1l0.8,0.2v1h-3.4V39.3z M409.4,32.5h-1.7v-1.3h1.7V32.5z"/>
		<path class="st10" d="M413.7,39.1c0.3,0,0.5-0.1,0.7-0.3s0.3-0.4,0.3-0.7h1.5l0,0c0,0.6-0.2,1.2-0.7,1.6s-1.1,0.6-1.9,0.6
			c-0.9,0-1.7-0.3-2.2-0.9s-0.8-1.4-0.8-2.3v-0.2c0-0.9,0.3-1.7,0.8-2.3s1.3-0.9,2.2-0.9c0.5,0,1,0.1,1.4,0.2s0.7,0.4,1,0.6l0,1.7
			h-1.4l-0.3-1c-0.1-0.1-0.2-0.1-0.3-0.2s-0.3-0.1-0.4-0.1c-0.5,0-0.8,0.2-1,0.5s-0.3,0.8-0.3,1.4v0.2c0,0.6,0.1,1,0.3,1.4
			S413.3,39.1,413.7,39.1z"/>
	</g>
	<g class="st9">
		<path class="st10" d="M421.1,40.3c0-0.1-0.1-0.2-0.1-0.3s-0.1-0.2-0.1-0.3c-0.2,0.2-0.5,0.4-0.7,0.6s-0.6,0.2-1,0.2
			c-0.6,0-1.1-0.2-1.5-0.5s-0.5-0.8-0.5-1.4c0-0.6,0.2-1.1,0.7-1.4s1.2-0.5,2.1-0.5h0.9v-0.6c0-0.3-0.1-0.5-0.3-0.7
			s-0.4-0.3-0.8-0.3c-0.2,0-0.4,0-0.5,0.1s-0.3,0.1-0.4,0.2l-0.1,0.7h-1.3l0-1.4c0.3-0.2,0.7-0.4,1.1-0.5s0.8-0.2,1.3-0.2
			c0.8,0,1.4,0.2,1.9,0.6s0.7,0.9,0.7,1.6v2.6c0,0.1,0,0.2,0,0.3s0,0.2,0,0.2l0.5,0.1v1H421.1z M419.6,39.2c0.3,0,0.5-0.1,0.7-0.2
			s0.4-0.3,0.5-0.4v-1H420c-0.4,0-0.6,0.1-0.8,0.3s-0.3,0.4-0.3,0.6c0,0.2,0.1,0.4,0.2,0.5S419.4,39.2,419.6,39.2z"/>
	</g>
	<g class="st9">
		<path class="st10" d="M425.7,32.4V34h1.1v1.2h-1.1v3.2c0,0.2,0.1,0.4,0.2,0.5s0.2,0.2,0.4,0.2c0.1,0,0.2,0,0.3,0s0.2,0,0.3,0
			l0.1,1.2c-0.2,0.1-0.4,0.1-0.6,0.1s-0.4,0-0.6,0c-0.6,0-1-0.2-1.4-0.5s-0.5-0.8-0.5-1.5v-3.2h-0.9V34h0.9v-1.6H425.7z"/>
		<path class="st10" d="M427.6,39.3l0.8-0.2v-3.9l-0.9-0.2v-1h2.6v5.1l0.8,0.2v1h-3.4V39.3z M430.2,32.5h-1.7v-1.3h1.7V32.5z"/>
		<path class="st10" d="M431.5,37.1c0-0.9,0.3-1.7,0.8-2.3s1.3-0.9,2.2-0.9c0.9,0,1.7,0.3,2.2,0.9s0.8,1.4,0.8,2.3v0.1
			c0,1-0.3,1.7-0.8,2.3s-1.3,0.9-2.2,0.9c-0.9,0-1.7-0.3-2.2-0.9s-0.8-1.4-0.8-2.3V37.1z M433.3,37.2c0,0.6,0.1,1,0.3,1.4
			s0.5,0.5,1,0.5c0.4,0,0.8-0.2,1-0.5s0.3-0.8,0.3-1.4v-0.1c0-0.6-0.1-1-0.3-1.4s-0.5-0.5-1-0.5s-0.8,0.2-1,0.5s-0.3,0.8-0.3,1.4
			V37.2z"/>
		<path class="st10" d="M438.2,39.3l0.8-0.2v-3.9l-0.9-0.2v-1h2.5l0.1,0.9c0.2-0.3,0.5-0.6,0.8-0.8s0.7-0.3,1-0.3
			c0.6,0,1.1,0.2,1.5,0.6s0.5,1,0.5,1.9v2.8l0.8,0.2v1h-3.3v-1l0.7-0.2v-2.8c0-0.4-0.1-0.7-0.3-0.9s-0.4-0.3-0.8-0.3
			c-0.2,0-0.4,0-0.6,0.1s-0.3,0.2-0.5,0.4v3.4l0.7,0.2v1h-3.2V39.3z"/>
	</g>
	<path class="st11" d="M332.7,65.9h160c2.8,0,5,2.2,5,5v20c0,2.8-2.2,5-5,5h-160c-2.8,0-5-2.2-5-5v-20
		C327.7,68.1,329.9,65.9,332.7,65.9z"/>
	<g class="st9">
		<path class="st10" d="M354.6,84.2l0.6-0.1l2.6-7.4h1.8l2.6,7.4l0.6,0.1v1h-2.9v-1l0.6-0.1l-0.4-1.2h-2.8l-0.4,1.2l0.6,0.1v1h-2.9
			V84.2z M357.7,81.7h2l-1-3h0L357.7,81.7z"/>
		<path class="st10" d="M363.2,79.9v-1h2.5l0.1,0.7c0.2-0.3,0.4-0.5,0.7-0.6s0.6-0.2,0.9-0.2c0.8,0,1.4,0.3,1.8,0.9s0.7,1.4,0.7,2.4
			v0.1c0,0.9-0.2,1.7-0.7,2.3s-1,0.9-1.8,0.9c-0.3,0-0.6-0.1-0.9-0.2s-0.5-0.3-0.7-0.5v1.8l0.8,0.2v1h-3.4v-1l0.8-0.2v-6.4
			L363.2,79.9z M368.2,82.1c0-0.6-0.1-1.1-0.3-1.5s-0.5-0.6-0.9-0.6c-0.3,0-0.5,0.1-0.7,0.2s-0.3,0.3-0.4,0.5v2.8
			c0.1,0.2,0.2,0.3,0.4,0.4s0.4,0.1,0.7,0.1c0.4,0,0.7-0.2,0.9-0.5s0.3-0.8,0.3-1.3V82.1z"/>
	</g>
	<g class="st9">
		<path class="st10" d="M370.5,79.9v-1h2.5l0.1,0.7c0.2-0.3,0.4-0.5,0.7-0.6s0.6-0.2,0.9-0.2c0.8,0,1.4,0.3,1.8,0.9s0.7,1.4,0.7,2.4
			v0.1c0,0.9-0.2,1.7-0.7,2.3s-1,0.9-1.8,0.9c-0.3,0-0.6-0.1-0.9-0.2s-0.5-0.3-0.7-0.5v1.8l0.8,0.2v1h-3.4v-1l0.8-0.2v-6.4
			L370.5,79.9z M375.4,82.1c0-0.6-0.1-1.1-0.3-1.5s-0.5-0.6-0.9-0.6c-0.3,0-0.5,0.1-0.7,0.2s-0.3,0.3-0.4,0.5v2.8
			c0.1,0.2,0.2,0.3,0.4,0.4s0.4,0.1,0.7,0.1c0.4,0,0.7-0.2,0.9-0.5s0.3-0.8,0.3-1.3V82.1z"/>
	</g>
	<g class="st9">
		<path class="st10" d="M377.6,77.1v-1h2.6V84l0.8,0.2v1h-3.4v-1l0.8-0.2v-6.7L377.6,77.1z"/>
		<path class="st10" d="M381.6,84.2l0.8-0.2v-3.9l-0.9-0.2v-1h2.6V84l0.8,0.2v1h-3.4V84.2z M384.1,77.4h-1.7v-1.3h1.7V77.4z"/>
		<path class="st10" d="M388.4,84.1c0.3,0,0.5-0.1,0.7-0.3s0.3-0.4,0.3-0.7h1.5l0,0c0,0.6-0.2,1.2-0.7,1.6s-1.1,0.6-1.9,0.6
			c-0.9,0-1.7-0.3-2.2-0.9s-0.8-1.4-0.8-2.3V82c0-0.9,0.3-1.7,0.8-2.3s1.3-0.9,2.2-0.9c0.5,0,1,0.1,1.4,0.2s0.7,0.4,1,0.6l0,1.7
			h-1.4l-0.3-1c-0.1-0.1-0.2-0.1-0.3-0.2s-0.3-0.1-0.4-0.1c-0.5,0-0.8,0.2-1,0.5s-0.3,0.8-0.3,1.4v0.2c0,0.6,0.1,1,0.3,1.4
			S388,84.1,388.4,84.1z"/>
	</g>
	<g class="st9">
		<path class="st10" d="M395.8,85.3c0-0.1-0.1-0.2-0.1-0.3s-0.1-0.2-0.1-0.3c-0.2,0.2-0.5,0.4-0.7,0.6s-0.6,0.2-1,0.2
			c-0.6,0-1.1-0.2-1.5-0.5s-0.5-0.8-0.5-1.4c0-0.6,0.2-1.1,0.7-1.4s1.2-0.5,2.1-0.5h0.9V81c0-0.3-0.1-0.5-0.3-0.7s-0.4-0.3-0.8-0.3
			c-0.2,0-0.4,0-0.5,0.1s-0.3,0.1-0.4,0.2l-0.1,0.7h-1.3l0-1.4c0.3-0.2,0.7-0.4,1.1-0.5s0.8-0.2,1.3-0.2c0.8,0,1.4,0.2,1.9,0.6
			s0.7,0.9,0.7,1.6v2.6c0,0.1,0,0.2,0,0.3s0,0.2,0,0.2l0.5,0.1v1H395.8z M394.4,84.1c0.3,0,0.5-0.1,0.7-0.2s0.4-0.3,0.5-0.4v-1h-0.9
			c-0.4,0-0.6,0.1-0.8,0.3s-0.3,0.4-0.3,0.6c0,0.2,0.1,0.4,0.2,0.5S394.1,84.1,394.4,84.1z"/>
	</g>
	<g class="st9">
		<path class="st10" d="M400.4,77.4v1.6h1.1v1.2h-1.1v3.2c0,0.2,0.1,0.4,0.2,0.5s0.2,0.2,0.4,0.2c0.1,0,0.2,0,0.3,0s0.2,0,0.3,0
			l0.1,1.2c-0.2,0.1-0.4,0.1-0.6,0.1s-0.4,0-0.6,0c-0.6,0-1-0.2-1.4-0.5s-0.5-0.8-0.5-1.5v-3.2h-0.9v-1.2h0.9v-1.6H400.4z"/>
		<path class="st10" d="M402.3,84.2l0.8-0.2v-3.9l-0.9-0.2v-1h2.6V84l0.8,0.2v1h-3.4V84.2z M404.9,77.4h-1.7v-1.3h1.7V77.4z"/>
		<path class="st10" d="M406.3,82c0-0.9,0.3-1.7,0.8-2.3s1.3-0.9,2.2-0.9c0.9,0,1.7,0.3,2.2,0.9s0.8,1.4,0.8,2.3v0.1
			c0,1-0.3,1.7-0.8,2.3s-1.3,0.9-2.2,0.9c-0.9,0-1.7-0.3-2.2-0.9s-0.8-1.4-0.8-2.3V82z M408,82.1c0,0.6,0.1,1,0.3,1.4s0.5,0.5,1,0.5
			c0.4,0,0.8-0.2,1-0.5s0.3-0.8,0.3-1.4V82c0-0.6-0.1-1-0.3-1.4s-0.5-0.5-1-0.5s-0.8,0.2-1,0.5S408,81.5,408,82V82.1z"/>
		<path class="st10" d="M412.9,84.2l0.8-0.2v-3.9l-0.9-0.2v-1h2.5l0.1,0.9c0.2-0.3,0.5-0.6,0.8-0.8s0.7-0.3,1-0.3
			c0.6,0,1.1,0.2,1.5,0.6s0.5,1,0.5,1.9V84l0.8,0.2v1h-3.3v-1l0.7-0.2v-2.8c0-0.4-0.1-0.7-0.3-0.9s-0.4-0.3-0.8-0.3
			c-0.2,0-0.4,0-0.6,0.1s-0.3,0.2-0.5,0.4V84l0.7,0.2v1h-3.2V84.2z"/>
		<path class="st10" d="M423.4,77.1v-1h2.6V84l0.8,0.2v1h-3.4v-1l0.8-0.2v-6.7L423.4,77.1z"/>
		<path class="st10" d="M427.3,84.2l0.8-0.2v-3.9l-0.9-0.2v-1h2.6V84l0.8,0.2v1h-3.4V84.2z M429.9,77.4h-1.7v-1.3h1.7V77.4z"/>
		<path class="st10" d="M437.4,82.3c0,0.9-0.2,1.7-0.6,2.3s-1,0.8-1.8,0.8c-0.4,0-0.7-0.1-1-0.2s-0.5-0.4-0.7-0.7l-0.1,0.8h-1.5
			v-7.9l-0.9-0.2v-1h2.6v3.5c0.2-0.3,0.4-0.4,0.7-0.6s0.5-0.2,0.9-0.2c0.8,0,1.4,0.3,1.8,0.9s0.6,1.4,0.6,2.4V82.3z M435.7,82.1
			c0-0.6-0.1-1.1-0.3-1.5s-0.5-0.5-0.9-0.5c-0.3,0-0.5,0.1-0.7,0.2s-0.3,0.3-0.4,0.5v2.7c0.1,0.2,0.3,0.3,0.4,0.4s0.4,0.2,0.7,0.2
			c0.4,0,0.8-0.2,0.9-0.5s0.3-0.8,0.3-1.3V82.1z"/>
	</g>
	<g class="st9">
		<path class="st10" d="M438.3,84.2l0.8-0.2v-3.9l-0.9-0.2v-1h2.5l0.1,0.9c0.1-0.3,0.3-0.6,0.6-0.8s0.5-0.3,0.8-0.3
			c0.1,0,0.2,0,0.3,0s0.2,0,0.2,0l-0.2,1.6l-0.7,0c-0.3,0-0.5,0-0.6,0.1s-0.3,0.2-0.4,0.4V84l0.8,0.2v1h-3.4V84.2z"/>
	</g>
	<g class="st9">
		<path class="st10" d="M447.1,85.3c0-0.1-0.1-0.2-0.1-0.3s-0.1-0.2-0.1-0.3c-0.2,0.2-0.5,0.4-0.7,0.6s-0.6,0.2-1,0.2
			c-0.6,0-1.1-0.2-1.5-0.5s-0.5-0.8-0.5-1.4c0-0.6,0.2-1.1,0.7-1.4s1.2-0.5,2.1-0.5h0.9V81c0-0.3-0.1-0.5-0.3-0.7s-0.4-0.3-0.8-0.3
			c-0.2,0-0.4,0-0.5,0.1s-0.3,0.1-0.4,0.2l-0.1,0.7h-1.3l0-1.4c0.3-0.2,0.7-0.4,1.1-0.5s0.8-0.2,1.3-0.2c0.8,0,1.4,0.2,1.9,0.6
			s0.7,0.9,0.7,1.6v2.6c0,0.1,0,0.2,0,0.3s0,0.2,0,0.2l0.5,0.1v1H447.1z M445.7,84.1c0.3,0,0.5-0.1,0.7-0.2s0.4-0.3,0.5-0.4v-1H446
			c-0.4,0-0.6,0.1-0.8,0.3s-0.3,0.4-0.3,0.6c0,0.2,0.1,0.4,0.2,0.5S445.4,84.1,445.7,84.1z"/>
		<path class="st10" d="M449.8,84.2l0.8-0.2v-3.9l-0.9-0.2v-1h2.5l0.1,0.9c0.1-0.3,0.3-0.6,0.6-0.8s0.5-0.3,0.8-0.3
			c0.1,0,0.2,0,0.3,0s0.2,0,0.3,0l-0.2,1.6l-0.7,0c-0.3,0-0.5,0-0.6,0.1s-0.3,0.2-0.4,0.4V84l0.8,0.2v1h-3.4V84.2z"/>
		<path class="st10" d="M454.7,84.2l0.8-0.2v-3.9l-0.9-0.2v-1h2.6V84l0.8,0.2v1h-3.4V84.2z M457.2,77.4h-1.7v-1.3h1.7V77.4z"/>
		<path class="st10" d="M461.6,85.4c-0.9,0-1.6-0.3-2.2-0.9s-0.8-1.3-0.8-2.2V82c0-0.9,0.3-1.7,0.8-2.3s1.2-0.9,2.1-0.9
			c0.9,0,1.5,0.3,2,0.8s0.7,1.2,0.7,2.1v0.9h-3.8l0,0c0,0.4,0.2,0.8,0.4,1s0.6,0.4,1,0.4c0.4,0,0.7,0,0.9-0.1s0.5-0.2,0.8-0.4
			l0.5,1.1c-0.3,0.2-0.6,0.4-1,0.5S462.2,85.4,461.6,85.4z M461.5,80.1c-0.3,0-0.6,0.1-0.8,0.4s-0.3,0.6-0.3,1l0,0h2.1v-0.2
			c0-0.4-0.1-0.7-0.3-0.9S461.8,80.1,461.5,80.1z"/>
		<path class="st10" d="M470.2,81.1H469l-0.2-0.8c-0.1-0.1-0.3-0.2-0.4-0.2S468,80,467.8,80c-0.3,0-0.5,0.1-0.7,0.2
			s-0.3,0.3-0.3,0.5c0,0.2,0.1,0.4,0.3,0.5s0.5,0.2,1,0.3c0.8,0.2,1.4,0.4,1.7,0.7s0.6,0.7,0.6,1.3c0,0.6-0.2,1-0.7,1.4
			s-1.1,0.5-1.9,0.5c-0.5,0-0.9-0.1-1.3-0.2s-0.8-0.3-1.1-0.6l0-1.4h1.2l0.2,0.8c0.1,0.1,0.2,0.1,0.4,0.2s0.4,0.1,0.6,0.1
			c0.3,0,0.6-0.1,0.8-0.2s0.3-0.3,0.3-0.5c0-0.2-0.1-0.3-0.3-0.5s-0.5-0.3-1-0.4c-0.7-0.2-1.3-0.4-1.7-0.7s-0.6-0.7-0.6-1.2
			c0-0.5,0.2-1,0.7-1.4s1.1-0.6,1.9-0.6c0.5,0,1,0.1,1.4,0.2s0.8,0.3,1,0.5L470.2,81.1z"/>
	</g>
	<path class="st12" d="M332.7,121.5h160c2.8,0,5,2.2,5,5v20c0,2.8-2.2,5-5,5h-160c-2.8,0-5-2.2-5-5v-20
		C327.7,123.7,329.9,121.5,332.7,121.5z"/>
	<g class="st9">
		<path class="st10" d="M361.6,132.7v-1h2.6v7.9l0.8,0.2v1h-3.4v-1l0.8-0.2v-6.7L361.6,132.7z"/>
		<path class="st10" d="M365.6,139.8l0.8-0.2v-3.9l-0.9-0.2v-1h2.6v5.1l0.8,0.2v1h-3.4V139.8z M368.1,132.9h-1.7v-1.3h1.7V132.9z"/>
		<path class="st10" d="M375.6,137.8c0,0.9-0.2,1.7-0.6,2.3s-1,0.8-1.8,0.8c-0.4,0-0.7-0.1-1-0.2s-0.5-0.4-0.7-0.7l-0.1,0.8h-1.5
			v-7.9l-0.9-0.2v-1h2.6v3.5c0.2-0.3,0.4-0.4,0.7-0.6s0.5-0.2,0.9-0.2c0.8,0,1.4,0.3,1.8,0.9s0.6,1.4,0.6,2.4V137.8z M373.9,137.7
			c0-0.6-0.1-1.1-0.3-1.5s-0.5-0.5-0.9-0.5c-0.3,0-0.5,0.1-0.7,0.2s-0.3,0.3-0.4,0.5v2.7c0.1,0.2,0.3,0.3,0.4,0.4s0.4,0.2,0.7,0.2
			c0.4,0,0.8-0.2,0.9-0.5s0.3-0.8,0.3-1.3V137.7z"/>
		<path class="st10" d="M379.4,139.6c0.3,0,0.5-0.1,0.7-0.3s0.3-0.4,0.3-0.7h1.5l0,0c0,0.6-0.2,1.2-0.7,1.6s-1.1,0.6-1.9,0.6
			c-0.9,0-1.7-0.3-2.2-0.9s-0.8-1.4-0.8-2.3v-0.2c0-0.9,0.3-1.7,0.8-2.3s1.3-0.9,2.2-0.9c0.5,0,1,0.1,1.4,0.2s0.7,0.4,1,0.6l0,1.7
			h-1.4l-0.3-1c-0.1-0.1-0.2-0.1-0.3-0.2s-0.3-0.1-0.4-0.1c-0.5,0-0.8,0.2-1,0.5s-0.3,0.8-0.3,1.4v0.2c0,0.6,0.1,1,0.3,1.4
			S378.9,139.6,379.4,139.6z"/>
		<path class="st10" d="M385.8,137.3c0-1.5,0.3-2.8,0.9-3.9s1.3-1.8,2-2.1h0l0.3,0.9c-0.5,0.4-0.9,1-1.3,1.9s-0.5,1.9-0.5,3.3v0.2
			c0,1.3,0.2,2.4,0.5,3.3s0.8,1.5,1.3,1.9l-0.3,0.8h0c-0.8-0.3-1.4-1-2-2.1s-0.9-2.4-0.9-3.9V137.3z"/>
		<path class="st10" d="M397.4,136.6c0,1.3-0.4,2.3-1.1,3.1s-1.7,1.2-2.8,1.2c-1.2,0-2.1-0.4-2.8-1.2s-1.1-1.8-1.1-3.1v-0.1
			c0-1.2,0.4-2.3,1.1-3.1s1.6-1.2,2.8-1.2c1.2,0,2.1,0.4,2.8,1.2s1.1,1.9,1.1,3.1V136.6z M395.7,136.5c0-0.9-0.2-1.6-0.6-2.2
			s-0.9-0.8-1.6-0.8s-1.3,0.3-1.6,0.8s-0.5,1.3-0.5,2.2v0.1c0,0.9,0.2,1.6,0.5,2.2s0.9,0.8,1.6,0.8c0.7,0,1.3-0.3,1.6-0.8
			s0.5-1.3,0.5-2.2V136.5z"/>
		<path class="st10" d="M404.6,135h-1.3l-0.2-1.2c-0.1-0.1-0.4-0.2-0.7-0.2s-0.6-0.1-0.9-0.1c-0.5,0-0.8,0.1-1.1,0.3
			s-0.4,0.5-0.4,0.8c0,0.3,0.1,0.5,0.4,0.7s0.7,0.4,1.4,0.6c0.9,0.3,1.7,0.6,2.1,1s0.7,1,0.7,1.7c0,0.7-0.3,1.3-0.9,1.7
			s-1.3,0.6-2.3,0.6c-0.7,0-1.3-0.1-1.8-0.3s-1-0.5-1.4-0.9v-1.8h1.3l0.2,1.2c0.2,0.1,0.4,0.3,0.7,0.3s0.6,0.1,1,0.1
			c0.5,0,0.8-0.1,1.1-0.3s0.4-0.4,0.4-0.8c0-0.3-0.1-0.6-0.3-0.8s-0.6-0.4-1.2-0.6c-1-0.3-1.8-0.6-2.3-1s-0.8-1-0.8-1.7
			c0-0.7,0.3-1.3,0.9-1.7s1.3-0.7,2.2-0.7c0.7,0,1.3,0.1,1.8,0.3s1,0.5,1.4,0.8V135z"/>
		<path class="st10" d="M408.3,133.3v-1h3.5v1l-0.9,0.2v6.1l0.9,0.2v1h-3.5v-1l0.9-0.2v-6.1L408.3,133.3z"/>
		<path class="st10" d="M412.5,139.8l0.8-0.2v-3.9l-0.9-0.2v-1h2.5l0.1,0.9c0.2-0.3,0.5-0.6,0.8-0.8s0.7-0.3,1-0.3
			c0.6,0,1.1,0.2,1.5,0.6s0.5,1,0.5,1.9v2.8l0.8,0.2v1h-3.3v-1l0.7-0.2v-2.8c0-0.4-0.1-0.7-0.3-0.9s-0.4-0.3-0.8-0.3
			c-0.2,0-0.4,0-0.6,0.1s-0.3,0.2-0.5,0.4v3.4l0.7,0.2v1h-3.2V139.8z"/>
		<path class="st10" d="M422.7,132.9v1.6h1.1v1.2h-1.1v3.2c0,0.2,0.1,0.4,0.2,0.5s0.2,0.2,0.4,0.2c0.1,0,0.2,0,0.3,0s0.2,0,0.3,0
			l0.1,1.2c-0.2,0.1-0.4,0.1-0.6,0.1s-0.4,0-0.6,0c-0.6,0-1-0.2-1.4-0.5s-0.5-0.8-0.5-1.5v-3.2h-0.9v-1.2h0.9v-1.6H422.7z"/>
		<path class="st10" d="M427.7,140.9c-0.9,0-1.6-0.3-2.2-0.9s-0.8-1.3-0.8-2.2v-0.2c0-0.9,0.3-1.7,0.8-2.3s1.2-0.9,2.1-0.9
			c0.9,0,1.5,0.3,2,0.8s0.7,1.2,0.7,2.1v0.9h-3.8l0,0c0,0.4,0.2,0.8,0.4,1s0.6,0.4,1,0.4c0.4,0,0.7,0,0.9-0.1s0.5-0.2,0.8-0.4
			l0.5,1.1c-0.3,0.2-0.6,0.4-1,0.5S428.2,140.9,427.7,140.9z M427.5,135.7c-0.3,0-0.6,0.1-0.8,0.4s-0.3,0.6-0.3,1l0,0h2.1v-0.2
			c0-0.4-0.1-0.7-0.3-0.9S427.9,135.7,427.5,135.7z"/>
	</g>
	<g class="st9">
		<path class="st10" d="M431.2,139.8l0.8-0.2v-3.9l-0.9-0.2v-1h2.5l0.1,0.9c0.1-0.3,0.3-0.6,0.6-0.8s0.5-0.3,0.8-0.3
			c0.1,0,0.2,0,0.3,0s0.2,0,0.2,0l-0.2,1.6l-0.7,0c-0.3,0-0.5,0-0.6,0.1s-0.3,0.2-0.4,0.4v3.1l0.8,0.2v1h-3.4V139.8z"/>
	</g>
	<g class="st9">
		<path class="st10" d="M436.3,139.8l0.8-0.2v-3.9h-0.9v-1.2h0.9v-0.7c0-0.7,0.2-1.3,0.6-1.6s1-0.6,1.7-0.6c0.1,0,0.3,0,0.4,0
			s0.3,0.1,0.5,0.1l-0.1,1.3c-0.1,0-0.2,0-0.3,0s-0.2,0-0.3,0c-0.3,0-0.5,0.1-0.6,0.2s-0.2,0.4-0.2,0.7v0.7h1.3v1.2h-1.3v3.9
			l0.8,0.2v1h-3.4V139.8z"/>
		<path class="st10" d="M444.7,140.8c0-0.1-0.1-0.2-0.1-0.3s-0.1-0.2-0.1-0.3c-0.2,0.2-0.5,0.4-0.7,0.6s-0.6,0.2-1,0.2
			c-0.6,0-1.1-0.2-1.5-0.5s-0.5-0.8-0.5-1.4c0-0.6,0.2-1.1,0.7-1.4s1.2-0.5,2.1-0.5h0.9v-0.6c0-0.3-0.1-0.5-0.3-0.7
			s-0.4-0.3-0.8-0.3c-0.2,0-0.4,0-0.5,0.1s-0.3,0.1-0.4,0.2l-0.1,0.7h-1.3l0-1.4c0.3-0.2,0.7-0.4,1.1-0.5s0.8-0.2,1.3-0.2
			c0.8,0,1.4,0.2,1.9,0.6s0.7,0.9,0.7,1.6v2.6c0,0.1,0,0.2,0,0.3s0,0.2,0,0.2l0.5,0.1v1H444.7z M443.2,139.7c0.3,0,0.5-0.1,0.7-0.2
			s0.4-0.3,0.5-0.4v-1h-0.9c-0.4,0-0.6,0.1-0.8,0.3s-0.3,0.4-0.3,0.6c0,0.2,0.1,0.4,0.2,0.5S443,139.7,443.2,139.7z"/>
		<path class="st10" d="M450.2,139.6c0.3,0,0.5-0.1,0.7-0.3s0.3-0.4,0.3-0.7h1.5l0,0c0,0.6-0.2,1.2-0.7,1.6s-1.1,0.6-1.9,0.6
			c-0.9,0-1.7-0.3-2.2-0.9s-0.8-1.4-0.8-2.3v-0.2c0-0.9,0.3-1.7,0.8-2.3s1.3-0.9,2.2-0.9c0.5,0,1,0.1,1.4,0.2s0.7,0.4,1,0.6l0,1.7
			h-1.4l-0.3-1c-0.1-0.1-0.2-0.1-0.3-0.2s-0.3-0.1-0.4-0.1c-0.5,0-0.8,0.2-1,0.5s-0.3,0.8-0.3,1.4v0.2c0,0.6,0.1,1,0.3,1.4
			S449.8,139.6,450.2,139.6z"/>
		<path class="st10" d="M456.6,140.9c-0.9,0-1.6-0.3-2.2-0.9s-0.8-1.3-0.8-2.2v-0.2c0-0.9,0.3-1.7,0.8-2.3s1.2-0.9,2.1-0.9
			c0.9,0,1.5,0.3,2,0.8s0.7,1.2,0.7,2.1v0.9h-3.8l0,0c0,0.4,0.2,0.8,0.4,1s0.6,0.4,1,0.4c0.4,0,0.7,0,0.9-0.1s0.5-0.2,0.8-0.4
			l0.5,1.1c-0.3,0.2-0.6,0.4-1,0.5S457.1,140.9,456.6,140.9z M456.5,135.7c-0.3,0-0.6,0.1-0.8,0.4s-0.3,0.6-0.3,1l0,0h2.1v-0.2
			c0-0.4-0.1-0.7-0.3-0.9S456.8,135.7,456.5,135.7z"/>
		<path class="st10" d="M463.3,137.5c0,1.5-0.3,2.8-0.9,3.9s-1.3,1.8-2.1,2.1h0l-0.3-0.8c0.5-0.4,0.9-1,1.3-1.9s0.5-1.9,0.5-3.3
			v-0.2c0-1.3-0.2-2.4-0.5-3.3s-0.8-1.5-1.3-1.9l0.3-0.8h0c0.8,0.3,1.4,1,2.1,2.1s0.9,2.4,0.9,3.9V137.5z"/>
	</g>
	
		<linearGradient id="SVGID_6_" gradientUnits="userSpaceOnUse" x1="327.69" y1="53.66" x2="497.69" y2="53.66" gradientTransform="matrix(1 0 0 -1 0 254)">
		<stop  offset="0" style="stop-color:#990066"/>
		<stop  offset="0.19" style="stop-color:#780066"/>
		<stop  offset="0.4" style="stop-color:#5A0066"/>
		<stop  offset="0.61" style="stop-color:#440066"/>
		<stop  offset="0.81" style="stop-color:#370066"/>
		<stop  offset="1" style="stop-color:#330066"/>
	</linearGradient>
	<path class="st13" d="M332.7,185.3h160c2.8,0,5,2.2,5,5v20c0,2.8-2.2,5-5,5h-160c-2.8,0-5-2.2-5-5v-20
		C327.7,187.6,329.9,185.3,332.7,185.3z"/>
	<g class="st9">
		<path class="st4" d="M387.2,198.9h-1.3l-0.2-1.2c-0.1-0.1-0.4-0.2-0.7-0.2s-0.6-0.1-0.9-0.1c-0.5,0-0.8,0.1-1.1,0.3
			s-0.4,0.5-0.4,0.8c0,0.3,0.1,0.5,0.4,0.7s0.7,0.4,1.4,0.6c0.9,0.3,1.7,0.6,2.1,1s0.7,1,0.7,1.7c0,0.7-0.3,1.3-0.9,1.7
			s-1.3,0.6-2.3,0.6c-0.7,0-1.3-0.1-1.8-0.3s-1-0.5-1.4-0.9v-1.8h1.3l0.2,1.2c0.2,0.1,0.4,0.3,0.7,0.3s0.6,0.1,1,0.1
			c0.5,0,0.8-0.1,1.1-0.3s0.4-0.4,0.4-0.8c0-0.3-0.1-0.6-0.3-0.8s-0.6-0.4-1.2-0.6c-1-0.3-1.8-0.6-2.3-1s-0.8-1-0.8-1.7
			c0-0.7,0.3-1.3,0.9-1.7s1.3-0.7,2.2-0.7c0.7,0,1.3,0.1,1.8,0.3s1,0.5,1.4,0.8V198.9z"/>
		<path class="st4" d="M395,199h-1.3l-0.2-1.1c-0.2-0.2-0.4-0.3-0.6-0.4s-0.6-0.1-0.9-0.1c-0.7,0-1.3,0.3-1.7,0.8s-0.6,1.2-0.6,2.1
			v0.3c0,0.9,0.2,1.6,0.6,2.1s1,0.8,1.7,0.8c0.3,0,0.6,0,0.9-0.1s0.5-0.2,0.6-0.4l0.2-1.1h1.3v1.7c-0.3,0.4-0.8,0.7-1.3,1
			s-1.1,0.4-1.8,0.4c-1.1,0-2.1-0.4-2.8-1.2s-1.1-1.8-1.1-3.1v-0.3c0-1.2,0.4-2.3,1.1-3.1s1.7-1.2,2.8-1.2c0.7,0,1.3,0.1,1.8,0.4
			s1,0.6,1.3,1V199z"/>
		<path class="st4" d="M403.6,200.5c0,1.3-0.4,2.3-1.1,3.1s-1.7,1.2-2.8,1.2c-1.2,0-2.1-0.4-2.8-1.2s-1.1-1.8-1.1-3.1v-0.1
			c0-1.2,0.4-2.3,1.1-3.1s1.6-1.2,2.8-1.2c1.2,0,2.1,0.4,2.8,1.2s1.1,1.9,1.1,3.1V200.5z M401.9,200.3c0-0.9-0.2-1.6-0.6-2.2
			s-0.9-0.8-1.6-0.8s-1.3,0.3-1.6,0.8s-0.5,1.3-0.5,2.2v0.1c0,0.9,0.2,1.6,0.5,2.2s0.9,0.8,1.6,0.8c0.7,0,1.3-0.3,1.6-0.8
			s0.5-1.3,0.5-2.2V200.3z"/>
		<path class="st4" d="M413,196.1v1l-0.9,0.2v7.3h-1.7l-3.4-5.7l0,0v4.5l0.9,0.2v1h-3.5v-1l0.9-0.2v-6.1l-0.9-0.2v-1h0.9h1.7
			l3.4,5.7l0,0v-4.5l-0.9-0.2v-1h2.6H413z"/>
		<path class="st4" d="M419.1,200.9h-2.9v2.4h2.8l0.1-1h1.3v2.3h-6.8v-1l0.9-0.2v-6.1l-0.9-0.2v-1h0.9h5.8v2.3H419l-0.1-1h-2.7v2.1
			h2.9V200.9z"/>
		<path class="st4" d="M424,196.6v-1h2.6v7.9l0.8,0.2v1h-3.4v-1l0.8-0.2v-6.7L424,196.6z"/>
		<path class="st4" d="M428,203.6l0.8-0.2v-3.9l-0.9-0.2v-1h2.6v5.1l0.8,0.2v1H428V203.6z M430.5,196.8h-1.7v-1.3h1.7V196.8z"/>
		<path class="st4" d="M438,201.7c0,0.9-0.2,1.7-0.6,2.3s-1,0.8-1.8,0.8c-0.4,0-0.7-0.1-1-0.2s-0.5-0.4-0.7-0.7l-0.1,0.8h-1.5v-7.9
			l-0.9-0.2v-1h2.6v3.5c0.2-0.3,0.4-0.4,0.7-0.6s0.5-0.2,0.9-0.2c0.8,0,1.4,0.3,1.8,0.9s0.6,1.4,0.6,2.4V201.7z M436.3,201.6
			c0-0.6-0.1-1.1-0.3-1.5s-0.5-0.5-0.9-0.5c-0.3,0-0.5,0.1-0.7,0.2s-0.3,0.3-0.4,0.5v2.7c0.1,0.2,0.3,0.3,0.4,0.4s0.4,0.2,0.7,0.2
			c0.4,0,0.8-0.2,0.9-0.5s0.3-0.8,0.3-1.3V201.6z"/>
		<path class="st4" d="M441.8,203.5c0.3,0,0.5-0.1,0.7-0.3s0.3-0.4,0.3-0.7h1.5l0,0c0,0.6-0.2,1.2-0.7,1.6s-1.1,0.6-1.9,0.6
			c-0.9,0-1.7-0.3-2.2-0.9s-0.8-1.4-0.8-2.3v-0.2c0-0.9,0.3-1.7,0.8-2.3s1.3-0.9,2.2-0.9c0.5,0,1,0.1,1.4,0.2s0.7,0.4,1,0.6l0,1.7
			h-1.4l-0.3-1c-0.1-0.1-0.2-0.1-0.3-0.2s-0.3-0.1-0.4-0.1c-0.5,0-0.8,0.2-1,0.5s-0.3,0.8-0.3,1.4v0.2c0,0.6,0.1,1,0.3,1.4
			S441.3,203.5,441.8,203.5z"/>
	</g>
	<g class="st9">
		<path class="st4" d="M700.8,142.3h-1.3l-0.2-1.2c-0.1-0.1-0.4-0.2-0.7-0.2s-0.6-0.1-0.9-0.1c-0.5,0-0.8,0.1-1.1,0.3
			s-0.4,0.5-0.4,0.8c0,0.3,0.1,0.5,0.4,0.7s0.7,0.4,1.4,0.6c0.9,0.3,1.7,0.6,2.1,1s0.7,1,0.7,1.7c0,0.7-0.3,1.3-0.9,1.7
			s-1.3,0.6-2.3,0.6c-0.7,0-1.3-0.1-1.8-0.3s-1-0.5-1.4-0.9v-1.8h1.3l0.2,1.2c0.2,0.1,0.4,0.3,0.7,0.3s0.6,0.1,1,0.1
			c0.5,0,0.8-0.1,1.1-0.3s0.4-0.4,0.4-0.8c0-0.3-0.1-0.6-0.3-0.8s-0.6-0.4-1.2-0.6c-1-0.3-1.8-0.6-2.3-1s-0.8-1-0.8-1.7
			c0-0.7,0.3-1.3,0.9-1.7s1.3-0.7,2.2-0.7c0.7,0,1.3,0.1,1.8,0.3s1,0.5,1.4,0.8V142.3z"/>
		<path class="st4" d="M708.5,142.4h-1.3l-0.2-1.1c-0.2-0.2-0.4-0.3-0.6-0.4s-0.6-0.1-0.9-0.1c-0.7,0-1.3,0.3-1.7,0.8
			s-0.6,1.2-0.6,2.1v0.3c0,0.9,0.2,1.6,0.6,2.1s1,0.8,1.7,0.8c0.3,0,0.6,0,0.9-0.1s0.5-0.2,0.6-0.4l0.2-1.1h1.3v1.7
			c-0.3,0.4-0.8,0.7-1.3,1s-1.1,0.4-1.8,0.4c-1.1,0-2.1-0.4-2.8-1.2s-1.1-1.8-1.1-3.1v-0.3c0-1.2,0.4-2.3,1.1-3.1s1.7-1.2,2.8-1.2
			c0.7,0,1.3,0.1,1.8,0.4s1,0.6,1.3,1V142.4z"/>
		<path class="st4" d="M717.1,143.9c0,1.3-0.4,2.3-1.1,3.1s-1.7,1.2-2.8,1.2c-1.2,0-2.1-0.4-2.8-1.2s-1.1-1.8-1.1-3.1v-0.1
			c0-1.2,0.4-2.3,1.1-3.1s1.6-1.2,2.8-1.2c1.2,0,2.1,0.4,2.8,1.2s1.1,1.9,1.1,3.1V143.9z M715.4,143.8c0-0.9-0.2-1.6-0.6-2.2
			s-0.9-0.8-1.6-0.8s-1.3,0.3-1.6,0.8s-0.5,1.3-0.5,2.2v0.1c0,0.9,0.2,1.6,0.5,2.2s0.9,0.8,1.6,0.8c0.7,0,1.3-0.3,1.6-0.8
			s0.5-1.3,0.5-2.2V143.8z"/>
		<path class="st4" d="M726.5,139.6v1l-0.9,0.2v7.3h-1.7l-3.4-5.7l0,0v4.5l0.9,0.2v1h-3.5v-1l0.9-0.2v-6.1l-0.9-0.2v-1h0.9h1.7
			l3.4,5.7l0,0v-4.5l-0.9-0.2v-1h2.6H726.5z"/>
		<path class="st4" d="M732.6,144.3h-2.9v2.4h2.8l0.1-1h1.3v2.3h-6.8v-1l0.9-0.2v-6.1l-0.9-0.2v-1h0.9h5.8v2.3h-1.3l-0.1-1h-2.7v2.1
			h2.9V144.3z"/>
		<path class="st4" d="M737.5,140v-1h2.6v7.9l0.8,0.2v1h-3.4v-1l0.8-0.2v-6.7L737.5,140z"/>
		<path class="st4" d="M741.5,147.1l0.8-0.2V143l-0.9-0.2v-1h2.6v5.1l0.8,0.2v1h-3.4V147.1z M744,140.2h-1.7V139h1.7V140.2z"/>
		<path class="st4" d="M751.6,145.1c0,0.9-0.2,1.7-0.6,2.3s-1,0.8-1.8,0.8c-0.4,0-0.7-0.1-1-0.2s-0.5-0.4-0.7-0.7l-0.1,0.8h-1.5
			v-7.9l-0.9-0.2v-1h2.6v3.5c0.2-0.3,0.4-0.4,0.7-0.6s0.5-0.2,0.9-0.2c0.8,0,1.4,0.3,1.8,0.9s0.6,1.4,0.6,2.4V145.1z M749.8,145
			c0-0.6-0.1-1.1-0.3-1.5s-0.5-0.5-0.9-0.5c-0.3,0-0.5,0.1-0.7,0.2s-0.3,0.3-0.4,0.5v2.7c0.1,0.2,0.3,0.3,0.4,0.4s0.4,0.2,0.7,0.2
			c0.4,0,0.8-0.2,0.9-0.5s0.3-0.8,0.3-1.3V145z"/>
		<path class="st4" d="M755.3,146.9c0.3,0,0.5-0.1,0.7-0.3s0.3-0.4,0.3-0.7h1.5l0,0c0,0.6-0.2,1.2-0.7,1.6s-1.1,0.6-1.9,0.6
			c-0.9,0-1.7-0.3-2.2-0.9s-0.8-1.4-0.8-2.3v-0.2c0-0.9,0.3-1.7,0.8-2.3s1.3-0.9,2.2-0.9c0.5,0,1,0.1,1.4,0.2s0.7,0.4,1,0.6l0,1.7
			h-1.4l-0.3-1c-0.1-0.1-0.2-0.1-0.3-0.2s-0.3-0.1-0.4-0.1c-0.5,0-0.8,0.2-1,0.5s-0.3,0.8-0.3,1.4v0.2c0,0.6,0.1,1,0.3,1.4
			S754.9,146.9,755.3,146.9z"/>
	</g>
	<path class="st0" d="M646.7,51.8h160c2.8,0,5,2.2,5,5v67.4l0,0h-170l0,0V56.8C641.7,54.1,644,51.8,646.7,51.8z"/>
	<path class="st11" d="M806.7,161.4h-160c-2.8,0-5-2.2-5-5v-32.5l0,0h170l0,0v32.5C811.7,159.1,809.5,161.4,806.7,161.4z"/>
	<g class="st9">
		<path class="st10" d="M694,73.9l0.6-0.1l2.6-7.4h1.8l2.6,7.4l0.6,0.1v1h-2.9v-1l0.6-0.1l-0.4-1.2h-2.8l-0.4,1.2l0.6,0.1v1H694
			V73.9z M697,71.4h2l-1-3h0L697,71.4z"/>
		<path class="st10" d="M702.6,69.6v-1h2.5l0.1,0.7c0.2-0.3,0.4-0.5,0.7-0.6s0.6-0.2,0.9-0.2c0.8,0,1.4,0.3,1.8,0.9s0.7,1.4,0.7,2.4
			v0.1c0,0.9-0.2,1.7-0.7,2.3s-1,0.9-1.8,0.9c-0.3,0-0.6-0.1-0.9-0.2s-0.5-0.3-0.7-0.5v1.8l0.8,0.2v1h-3.4v-1l0.8-0.2v-6.4
			L702.6,69.6z M707.5,71.8c0-0.6-0.1-1.1-0.3-1.5s-0.5-0.6-0.9-0.6c-0.3,0-0.5,0.1-0.7,0.2s-0.3,0.3-0.4,0.5v2.8
			c0.1,0.2,0.2,0.3,0.4,0.4s0.4,0.1,0.7,0.1c0.4,0,0.7-0.2,0.9-0.5s0.3-0.8,0.3-1.3V71.8z"/>
	</g>
	<g class="st9">
		<path class="st10" d="M709.8,69.6v-1h2.5l0.1,0.7c0.2-0.3,0.4-0.5,0.7-0.6s0.6-0.2,0.9-0.2c0.8,0,1.4,0.3,1.8,0.9s0.7,1.4,0.7,2.4
			v0.1c0,0.9-0.2,1.7-0.7,2.3s-1,0.9-1.8,0.9c-0.3,0-0.6-0.1-0.9-0.2s-0.5-0.3-0.7-0.5v1.8l0.8,0.2v1h-3.4v-1l0.8-0.2v-6.4
			L709.8,69.6z M714.8,71.8c0-0.6-0.1-1.1-0.3-1.5s-0.5-0.6-0.9-0.6c-0.3,0-0.5,0.1-0.7,0.2s-0.3,0.3-0.4,0.5v2.8
			c0.1,0.2,0.2,0.3,0.4,0.4s0.4,0.1,0.7,0.1c0.4,0,0.7-0.2,0.9-0.5s0.3-0.8,0.3-1.3V71.8z"/>
	</g>
	<g class="st9">
		<path class="st10" d="M716.9,66.8v-1h2.6v7.9l0.8,0.2v1H717v-1l0.8-0.2V67L716.9,66.8z"/>
		<path class="st10" d="M720.9,73.9l0.8-0.2v-3.9l-0.9-0.2v-1h2.6v5.1l0.8,0.2v1h-3.4V73.9z M723.4,67.1h-1.7v-1.3h1.7V67.1z"/>
		<path class="st10" d="M727.8,73.7c0.3,0,0.5-0.1,0.7-0.3s0.3-0.4,0.3-0.7h1.5l0,0c0,0.6-0.2,1.2-0.7,1.6s-1.1,0.6-1.9,0.6
			c-0.9,0-1.7-0.3-2.2-0.9s-0.8-1.4-0.8-2.3v-0.2c0-0.9,0.3-1.7,0.8-2.3s1.3-0.9,2.2-0.9c0.5,0,1,0.1,1.4,0.2s0.7,0.4,1,0.6l0,1.7
			h-1.4l-0.3-1c-0.1-0.1-0.2-0.1-0.3-0.2s-0.3-0.1-0.4-0.1c-0.5,0-0.8,0.2-1,0.5s-0.3,0.8-0.3,1.4v0.2c0,0.6,0.1,1,0.3,1.4
			S727.3,73.7,727.8,73.7z"/>
	</g>
	<g class="st9">
		<path class="st10" d="M735.2,74.9c0-0.1-0.1-0.2-0.1-0.3s-0.1-0.2-0.1-0.3c-0.2,0.2-0.5,0.4-0.7,0.6s-0.6,0.2-1,0.2
			c-0.6,0-1.1-0.2-1.5-0.5s-0.5-0.8-0.5-1.4c0-0.6,0.2-1.1,0.7-1.4s1.2-0.5,2.1-0.5h0.9v-0.6c0-0.3-0.1-0.5-0.3-0.7
			s-0.4-0.3-0.8-0.3c-0.2,0-0.4,0-0.5,0.1s-0.3,0.1-0.4,0.2l-0.1,0.7h-1.3l0-1.4c0.3-0.2,0.7-0.4,1.1-0.5s0.8-0.2,1.3-0.2
			c0.8,0,1.4,0.2,1.9,0.6s0.7,0.9,0.7,1.6v2.6c0,0.1,0,0.2,0,0.3s0,0.2,0,0.2l0.5,0.1v1H735.2z M733.7,73.8c0.3,0,0.5-0.1,0.7-0.2
			s0.4-0.3,0.5-0.4v-1H734c-0.4,0-0.6,0.1-0.8,0.3s-0.3,0.4-0.3,0.6c0,0.2,0.1,0.4,0.2,0.5S733.4,73.8,733.7,73.8z"/>
	</g>
	<g class="st9">
		<path class="st10" d="M739.8,67v1.6h1.1v1.2h-1.1V73c0,0.2,0.1,0.4,0.2,0.5s0.2,0.2,0.4,0.2c0.1,0,0.2,0,0.3,0s0.2,0,0.3,0
			l0.1,1.2c-0.2,0.1-0.4,0.1-0.6,0.1s-0.4,0-0.6,0c-0.6,0-1-0.2-1.4-0.5s-0.5-0.8-0.5-1.5v-3.2h-0.9v-1.2h0.9V67H739.8z"/>
		<path class="st10" d="M741.7,73.9l0.8-0.2v-3.9l-0.9-0.2v-1h2.6v5.1l0.8,0.2v1h-3.4V73.9z M744.2,67.1h-1.7v-1.3h1.7V67.1z"/>
		<path class="st10" d="M745.6,71.7c0-0.9,0.3-1.7,0.8-2.3s1.3-0.9,2.2-0.9c0.9,0,1.7,0.3,2.2,0.9s0.8,1.4,0.8,2.3v0.1
			c0,1-0.3,1.7-0.8,2.3s-1.3,0.9-2.2,0.9c-0.9,0-1.7-0.3-2.2-0.9s-0.8-1.4-0.8-2.3V71.7z M747.3,71.8c0,0.6,0.1,1,0.3,1.4
			s0.5,0.5,1,0.5c0.4,0,0.8-0.2,1-0.5s0.3-0.8,0.3-1.4v-0.1c0-0.6-0.1-1-0.3-1.4s-0.5-0.5-1-0.5s-0.8,0.2-1,0.5s-0.3,0.8-0.3,1.4
			V71.8z"/>
		<path class="st10" d="M752.2,73.9l0.8-0.2v-3.9l-0.9-0.2v-1h2.5l0.1,0.9c0.2-0.3,0.5-0.6,0.8-0.8s0.7-0.3,1-0.3
			c0.6,0,1.1,0.2,1.5,0.6s0.5,1,0.5,1.9v2.8l0.8,0.2v1h-3.3v-1l0.7-0.2V71c0-0.4-0.1-0.7-0.3-0.9s-0.4-0.3-0.8-0.3
			c-0.2,0-0.4,0-0.6,0.1s-0.3,0.2-0.5,0.4v3.4l0.7,0.2v1h-3.2V73.9z"/>
	</g>
	<g class="st9">
		<path class="st10" d="M668.7,110.8l0.6-0.1l2.6-7.4h1.8l2.6,7.4l0.6,0.1v1h-2.9v-1l0.6-0.1l-0.4-1.2h-2.8l-0.4,1.2l0.6,0.1v1h-2.9
			V110.8z M671.8,108.3h2l-1-3h0L671.8,108.3z"/>
		<path class="st10" d="M677.3,106.6v-1h2.5l0.1,0.7c0.2-0.3,0.4-0.5,0.7-0.6s0.6-0.2,0.9-0.2c0.8,0,1.4,0.3,1.8,0.9
			s0.7,1.4,0.7,2.4v0.1c0,0.9-0.2,1.7-0.7,2.3s-1,0.9-1.8,0.9c-0.3,0-0.6-0.1-0.9-0.2s-0.5-0.3-0.7-0.5v1.8l0.8,0.2v1h-3.4v-1
			l0.8-0.2v-6.4L677.3,106.6z M682.2,108.8c0-0.6-0.1-1.1-0.3-1.5s-0.5-0.6-0.9-0.6c-0.3,0-0.5,0.1-0.7,0.2s-0.3,0.3-0.4,0.5v2.8
			c0.1,0.2,0.2,0.3,0.4,0.4s0.4,0.1,0.7,0.1c0.4,0,0.7-0.2,0.9-0.5s0.3-0.8,0.3-1.3V108.8z"/>
	</g>
	<g class="st9">
		<path class="st10" d="M684.5,106.6v-1h2.5l0.1,0.7c0.2-0.3,0.4-0.5,0.7-0.6s0.6-0.2,0.9-0.2c0.8,0,1.4,0.3,1.8,0.9
			s0.7,1.4,0.7,2.4v0.1c0,0.9-0.2,1.7-0.7,2.3s-1,0.9-1.8,0.9c-0.3,0-0.6-0.1-0.9-0.2s-0.5-0.3-0.7-0.5v1.8l0.8,0.2v1h-3.4v-1
			l0.8-0.2v-6.4L684.5,106.6z M689.5,108.8c0-0.6-0.1-1.1-0.3-1.5s-0.5-0.6-0.9-0.6c-0.3,0-0.5,0.1-0.7,0.2s-0.3,0.3-0.4,0.5v2.8
			c0.1,0.2,0.2,0.3,0.4,0.4s0.4,0.1,0.7,0.1c0.4,0,0.7-0.2,0.9-0.5s0.3-0.8,0.3-1.3V108.8z"/>
	</g>
	<g class="st9">
		<path class="st10" d="M691.6,103.8v-1h2.6v7.9l0.8,0.2v1h-3.4v-1l0.8-0.2v-6.7L691.6,103.8z"/>
		<path class="st10" d="M695.6,110.8l0.8-0.2v-3.9l-0.9-0.2v-1h2.6v5.1l0.8,0.2v1h-3.4V110.8z M698.1,104h-1.7v-1.3h1.7V104z"/>
		<path class="st10" d="M702.5,110.7c0.3,0,0.5-0.1,0.7-0.3s0.3-0.4,0.3-0.7h1.5l0,0c0,0.6-0.2,1.2-0.7,1.6s-1.1,0.6-1.9,0.6
			c-0.9,0-1.7-0.3-2.2-0.9s-0.8-1.4-0.8-2.3v-0.2c0-0.9,0.3-1.7,0.8-2.3s1.3-0.9,2.2-0.9c0.5,0,1,0.1,1.4,0.2s0.7,0.4,1,0.6l0,1.7
			h-1.4l-0.3-1c-0.1-0.1-0.2-0.1-0.3-0.2s-0.3-0.1-0.4-0.1c-0.5,0-0.8,0.2-1,0.5s-0.3,0.8-0.3,1.4v0.2c0,0.6,0.1,1,0.3,1.4
			S702,110.7,702.5,110.7z"/>
	</g>
	<g class="st9">
		<path class="st10" d="M709.9,111.9c0-0.1-0.1-0.2-0.1-0.3s-0.1-0.2-0.1-0.3c-0.2,0.2-0.5,0.4-0.7,0.6s-0.6,0.2-1,0.2
			c-0.6,0-1.1-0.2-1.5-0.5s-0.5-0.8-0.5-1.4c0-0.6,0.2-1.1,0.7-1.4s1.2-0.5,2.1-0.5h0.9v-0.6c0-0.3-0.1-0.5-0.3-0.7
			s-0.4-0.3-0.8-0.3c-0.2,0-0.4,0-0.5,0.1s-0.3,0.1-0.4,0.2l-0.1,0.7h-1.3l0-1.4c0.3-0.2,0.7-0.4,1.1-0.5s0.8-0.2,1.3-0.2
			c0.8,0,1.4,0.2,1.9,0.6s0.7,0.9,0.7,1.6v2.6c0,0.1,0,0.2,0,0.3s0,0.2,0,0.2l0.5,0.1v1H709.9z M708.4,110.7c0.3,0,0.5-0.1,0.7-0.2
			s0.4-0.3,0.5-0.4v-1h-0.9c-0.4,0-0.6,0.1-0.8,0.3s-0.3,0.4-0.3,0.6c0,0.2,0.1,0.4,0.2,0.5S708.1,110.7,708.4,110.7z"/>
	</g>
	<g class="st9">
		<path class="st10" d="M714.5,104v1.6h1.1v1.2h-1.1v3.2c0,0.2,0.1,0.4,0.2,0.5s0.2,0.2,0.4,0.2c0.1,0,0.2,0,0.3,0s0.2,0,0.3,0
			l0.1,1.2c-0.2,0.1-0.4,0.1-0.6,0.1s-0.4,0-0.6,0c-0.6,0-1-0.2-1.4-0.5s-0.5-0.8-0.5-1.5v-3.2h-0.9v-1.2h0.9V104H714.5z"/>
		<path class="st10" d="M716.4,110.8l0.8-0.2v-3.9l-0.9-0.2v-1h2.6v5.1l0.8,0.2v1h-3.4V110.8z M718.9,104h-1.7v-1.3h1.7V104z"/>
		<path class="st10" d="M720.3,108.6c0-0.9,0.3-1.7,0.8-2.3s1.3-0.9,2.2-0.9c0.9,0,1.7,0.3,2.2,0.9s0.8,1.4,0.8,2.3v0.1
			c0,1-0.3,1.7-0.8,2.3s-1.3,0.9-2.2,0.9c-0.9,0-1.7-0.3-2.2-0.9s-0.8-1.4-0.8-2.3V108.6z M722,108.8c0,0.6,0.1,1,0.3,1.4
			s0.5,0.5,1,0.5c0.4,0,0.8-0.2,1-0.5s0.3-0.8,0.3-1.4v-0.1c0-0.6-0.1-1-0.3-1.4s-0.5-0.5-1-0.5s-0.8,0.2-1,0.5s-0.3,0.8-0.3,1.4
			V108.8z"/>
		<path class="st10" d="M726.9,110.8l0.8-0.2v-3.9l-0.9-0.2v-1h2.5l0.1,0.9c0.2-0.3,0.5-0.6,0.8-0.8s0.7-0.3,1-0.3
			c0.6,0,1.1,0.2,1.5,0.6s0.5,1,0.5,1.9v2.8l0.8,0.2v1h-3.3v-1l0.7-0.2v-2.8c0-0.4-0.1-0.7-0.3-0.9s-0.4-0.3-0.8-0.3
			c-0.2,0-0.4,0-0.6,0.1s-0.3,0.2-0.5,0.4v3.4l0.7,0.2v1h-3.2V110.8z"/>
		<path class="st10" d="M737.4,103.8v-1h2.6v7.9l0.8,0.2v1h-3.4v-1l0.8-0.2v-6.7L737.4,103.8z"/>
		<path class="st10" d="M741.4,110.8l0.8-0.2v-3.9l-0.9-0.2v-1h2.6v5.1l0.8,0.2v1h-3.4V110.8z M743.9,104h-1.7v-1.3h1.7V104z"/>
		<path class="st10" d="M751.4,108.9c0,0.9-0.2,1.7-0.6,2.3s-1,0.8-1.8,0.8c-0.4,0-0.7-0.1-1-0.2s-0.5-0.4-0.7-0.7l-0.1,0.8h-1.5
			v-7.9l-0.9-0.2v-1h2.6v3.5c0.2-0.3,0.4-0.4,0.7-0.6s0.5-0.2,0.9-0.2c0.8,0,1.4,0.3,1.8,0.9s0.6,1.4,0.6,2.4V108.9z M749.7,108.8
			c0-0.6-0.1-1.1-0.3-1.5s-0.5-0.5-0.9-0.5c-0.3,0-0.5,0.1-0.7,0.2s-0.3,0.3-0.4,0.5v2.7c0.1,0.2,0.3,0.3,0.4,0.4s0.4,0.2,0.7,0.2
			c0.4,0,0.8-0.2,0.9-0.5s0.3-0.8,0.3-1.3V108.8z"/>
	</g>
	<g class="st9">
		<path class="st10" d="M752.3,110.8l0.8-0.2v-3.9l-0.9-0.2v-1h2.5l0.1,0.9c0.1-0.3,0.3-0.6,0.6-0.8s0.5-0.3,0.8-0.3
			c0.1,0,0.2,0,0.3,0s0.2,0,0.2,0l-0.2,1.6l-0.7,0c-0.3,0-0.5,0-0.6,0.1s-0.3,0.2-0.4,0.4v3.1l0.8,0.2v1h-3.4V110.8z"/>
	</g>
	<g class="st9">
		<path class="st10" d="M761.2,111.9c0-0.1-0.1-0.2-0.1-0.3s-0.1-0.2-0.1-0.3c-0.2,0.2-0.4,0.4-0.7,0.6s-0.6,0.2-1,0.2
			c-0.6,0-1.1-0.2-1.5-0.5s-0.5-0.8-0.5-1.4c0-0.6,0.2-1.1,0.7-1.4s1.2-0.5,2.1-0.5h0.9v-0.6c0-0.3-0.1-0.5-0.3-0.7
			s-0.4-0.3-0.8-0.3c-0.2,0-0.4,0-0.5,0.1s-0.3,0.1-0.4,0.2l-0.1,0.7h-1.3l0-1.4c0.3-0.2,0.7-0.4,1.1-0.5s0.8-0.2,1.3-0.2
			c0.8,0,1.4,0.2,1.9,0.6s0.7,0.9,0.7,1.6v2.6c0,0.1,0,0.2,0,0.3s0,0.2,0,0.2l0.5,0.1v1H761.2z M759.7,110.7c0.3,0,0.5-0.1,0.7-0.2
			s0.4-0.3,0.5-0.4v-1H760c-0.4,0-0.6,0.1-0.8,0.3s-0.3,0.4-0.3,0.6c0,0.2,0.1,0.4,0.2,0.5S759.4,110.7,759.7,110.7z"/>
		<path class="st10" d="M763.9,110.8l0.8-0.2v-3.9l-0.9-0.2v-1h2.5l0.1,0.9c0.1-0.3,0.3-0.6,0.6-0.8s0.5-0.3,0.8-0.3
			c0.1,0,0.2,0,0.3,0s0.2,0,0.2,0l-0.2,1.6l-0.7,0c-0.3,0-0.5,0-0.6,0.1s-0.3,0.2-0.4,0.4v3.1l0.8,0.2v1h-3.4V110.8z"/>
		<path class="st10" d="M768.7,110.8l0.8-0.2v-3.9l-0.9-0.2v-1h2.6v5.1l0.8,0.2v1h-3.4V110.8z M771.3,104h-1.7v-1.3h1.7V104z"/>
		<path class="st10" d="M775.7,112c-0.9,0-1.6-0.3-2.2-0.9s-0.8-1.3-0.8-2.2v-0.2c0-0.9,0.3-1.7,0.8-2.3s1.2-0.9,2.1-0.9
			c0.9,0,1.5,0.3,2,0.8s0.7,1.2,0.7,2.1v0.9h-3.8l0,0c0,0.4,0.2,0.8,0.4,1s0.6,0.4,1,0.4c0.4,0,0.7,0,0.9-0.1s0.5-0.2,0.8-0.4
			l0.5,1.1c-0.3,0.2-0.6,0.4-1,0.5S776.2,112,775.7,112z M775.5,106.7c-0.3,0-0.6,0.1-0.8,0.4s-0.3,0.6-0.3,1l0,0h2.1v-0.2
			c0-0.4-0.1-0.7-0.3-0.9S775.9,106.7,775.5,106.7z"/>
		<path class="st10" d="M784.2,107.7h-1.1l-0.2-0.8c-0.1-0.1-0.3-0.2-0.4-0.2s-0.4-0.1-0.6-0.1c-0.3,0-0.5,0.1-0.7,0.2
			s-0.3,0.3-0.3,0.5c0,0.2,0.1,0.4,0.3,0.5s0.5,0.2,1,0.3c0.8,0.2,1.4,0.4,1.7,0.7s0.6,0.7,0.6,1.3c0,0.6-0.2,1-0.7,1.4
			s-1.1,0.5-1.9,0.5c-0.5,0-0.9-0.1-1.3-0.2s-0.8-0.3-1.1-0.6l0-1.4h1.2l0.2,0.8c0.1,0.1,0.2,0.1,0.4,0.2s0.4,0.1,0.6,0.1
			c0.3,0,0.6-0.1,0.8-0.2s0.3-0.3,0.3-0.5c0-0.2-0.1-0.3-0.3-0.5s-0.5-0.3-1-0.4c-0.7-0.2-1.3-0.4-1.7-0.7s-0.6-0.7-0.6-1.2
			c0-0.5,0.2-1,0.7-1.4s1.1-0.6,1.9-0.6c0.5,0,1,0.1,1.4,0.2s0.8,0.3,1,0.5L784.2,107.7z"/>
	</g>
	<line class="st11" x1="641.4" y1="87.6" x2="810.6" y2="87.6"/>
</g>
<g id="schrift">
	<g class="st9">
		<path class="st10" d="M234.3,56.2c-0.1,0.3-0.1,0.6-0.1,0.9c0,0.3,0,0.5,0,0.8c0,0.1,0,0.2,0,0.2c0,0.1,0,0.1,0,0.2h-0.6l-0.2-1h0
			c-0.1,0.1-0.2,0.3-0.4,0.4c-0.1,0.1-0.3,0.3-0.5,0.4c-0.2,0.1-0.4,0.2-0.6,0.3c-0.2,0.1-0.4,0.1-0.6,0.1c-0.4,0-0.8-0.2-1-0.5
			c-0.3-0.3-0.4-0.8-0.4-1.5c0-0.5,0.1-1,0.2-1.5c0.1-0.5,0.3-1,0.6-1.4c0.3-0.4,0.6-0.7,1-1s0.9-0.4,1.4-0.4c0.1,0,0.3,0,0.4,0
			c0.1,0,0.2,0,0.3,0c0.1,0,0.2,0,0.3,0.1c0.1,0,0.2,0.1,0.3,0.1l0.5-2.5h0.9L234.3,56.2z M231.7,57.6c0.2,0,0.3,0,0.5-0.1
			c0.2-0.1,0.3-0.2,0.5-0.3c0.2-0.1,0.3-0.3,0.4-0.4s0.2-0.3,0.3-0.4l0.7-3.1c-0.1-0.1-0.3-0.2-0.5-0.2s-0.4-0.1-0.7-0.1
			c-0.3,0-0.6,0.1-0.9,0.3s-0.5,0.5-0.7,0.8c-0.2,0.3-0.3,0.7-0.4,1.1c-0.1,0.4-0.1,0.9-0.1,1.3c0,0.3,0.1,0.6,0.2,0.8
			C231.2,57.5,231.4,57.6,231.7,57.6z"/>
		<path class="st10" d="M237.8,56.1l0.1,1.2h0.1l0.5-1.2l2-3.9h1l-2.8,5.4c-0.2,0.4-0.4,0.8-0.6,1.1c-0.2,0.4-0.4,0.7-0.6,1
			c-0.2,0.3-0.4,0.5-0.7,0.7c-0.2,0.2-0.5,0.3-0.7,0.3c-0.1,0-0.3,0-0.4,0c-0.1,0-0.2,0-0.3-0.1l0.3-0.8c0.1,0,0.2,0,0.3,0
			c0.2,0,0.5-0.1,0.7-0.4c0.2-0.2,0.5-0.6,0.8-1.2l-1-6h1L237.8,56.1z"/>
		<path class="st10" d="M244.7,58.2l0.8-3.8c0-0.1,0.1-0.3,0.1-0.4s0-0.3,0-0.4c0-0.2-0.1-0.4-0.2-0.6c-0.1-0.1-0.3-0.2-0.6-0.2
			c-0.2,0-0.4,0-0.6,0.1c-0.2,0.1-0.4,0.2-0.6,0.4c-0.2,0.1-0.3,0.3-0.5,0.5c-0.1,0.2-0.3,0.4-0.4,0.5l-0.8,3.8h-0.9l1.3-6h0.6l0,1
			h0c0.1-0.1,0.2-0.3,0.4-0.4c0.1-0.1,0.3-0.3,0.5-0.4s0.4-0.2,0.6-0.3c0.2-0.1,0.5-0.1,0.7-0.1c0.4,0,0.7,0.1,0.9,0.3
			c0.2,0.2,0.3,0.5,0.3,1c0,0.2,0,0.5-0.1,0.9l-0.9,4H244.7z"/>
		<path class="st10" d="M251.9,55.9c-0.1,0.3-0.1,0.6-0.1,0.9c0,0.3,0,0.6,0,0.9c0,0.1,0,0.2,0,0.3c0,0.1,0,0.2,0,0.3h-0.7l-0.2-1h0
			c-0.1,0.1-0.2,0.3-0.4,0.4c-0.1,0.1-0.3,0.3-0.5,0.4c-0.2,0.1-0.3,0.2-0.5,0.3c-0.2,0.1-0.4,0.1-0.6,0.1c-1,0-1.4-0.6-1.4-1.9
			c0-0.5,0.1-1,0.2-1.6c0.1-0.5,0.3-1,0.6-1.4s0.6-0.8,1.1-1c0.4-0.3,1-0.4,1.6-0.4c0.2,0,0.5,0,0.8,0.1c0.3,0.1,0.6,0.1,0.9,0.2
			L251.9,55.9z M249.2,57.6c0.2,0,0.4,0,0.6-0.1s0.3-0.2,0.5-0.3c0.2-0.1,0.3-0.3,0.4-0.4s0.2-0.3,0.3-0.4l0.7-3.2
			c-0.2-0.1-0.5-0.2-0.9-0.2s-0.7,0.1-1,0.3c-0.3,0.2-0.5,0.5-0.7,0.8c-0.2,0.3-0.3,0.7-0.4,1.2c-0.1,0.4-0.1,0.9-0.1,1.3
			c0,0.3,0.1,0.6,0.2,0.8C248.8,57.5,248.9,57.6,249.2,57.6z"/>
		<path class="st10" d="M256.5,58.2l0.7-3.4c0.1-0.3,0.1-0.5,0.1-0.7c0-0.2,0-0.4,0-0.6c0-0.2,0-0.4-0.1-0.5
			c-0.1-0.1-0.2-0.2-0.4-0.2c-0.2,0-0.4,0.1-0.6,0.2c-0.2,0.1-0.4,0.2-0.5,0.4s-0.3,0.3-0.5,0.5c-0.1,0.2-0.3,0.3-0.3,0.5l-0.8,3.9
			h-0.9l1.3-6h0.6l-0.1,1h0c0.1-0.1,0.3-0.3,0.4-0.4c0.1-0.1,0.3-0.3,0.5-0.4c0.2-0.1,0.4-0.2,0.6-0.3c0.2-0.1,0.4-0.1,0.7-0.1
			c0.4,0,0.6,0.1,0.7,0.3c0.1,0.2,0.2,0.5,0.2,0.9c0.1-0.2,0.3-0.3,0.4-0.5c0.2-0.2,0.3-0.3,0.5-0.4c0.2-0.1,0.4-0.2,0.6-0.3
			c0.2-0.1,0.4-0.1,0.6-0.1c0.4,0,0.6,0.1,0.8,0.3c0.2,0.2,0.3,0.5,0.3,1c0,0.3-0.1,0.8-0.2,1.3l-0.8,3.6h-0.9l0.8-3.6
			c0-0.2,0.1-0.4,0.1-0.6c0-0.2,0-0.3,0-0.5c0-0.2,0-0.4-0.1-0.5s-0.2-0.2-0.4-0.2c-0.2,0-0.3,0.1-0.5,0.2c-0.2,0.1-0.4,0.2-0.5,0.4
			c-0.2,0.2-0.3,0.3-0.5,0.5s-0.3,0.4-0.3,0.5l-0.8,3.8H256.5z"/>
		<path class="st10" d="M263.9,52.2h0.9l-1.3,6h-0.9L263.9,52.2z M264.1,50.4c0-0.2,0.1-0.3,0.2-0.5s0.3-0.2,0.5-0.2
			s0.3,0.1,0.5,0.2s0.2,0.3,0.2,0.5s-0.1,0.3-0.2,0.5s-0.3,0.2-0.5,0.2s-0.3-0.1-0.5-0.2S264.1,50.6,264.1,50.4z"/>
	</g>
	<g class="st9">
		<path class="st10" d="M269.4,57.7c-0.1,0.1-0.3,0.2-0.4,0.3c-0.2,0.1-0.3,0.1-0.5,0.2s-0.3,0.1-0.5,0.1s-0.3,0-0.5,0
			c-0.4,0-0.7-0.1-1-0.2s-0.5-0.3-0.6-0.5c-0.1-0.2-0.2-0.4-0.3-0.6c-0.1-0.2-0.1-0.4-0.1-0.6c0-0.7,0.1-1.3,0.3-1.8s0.4-1,0.7-1.4
			c0.3-0.4,0.7-0.7,1.1-0.9c0.4-0.2,0.8-0.3,1.2-0.3c0.3,0,0.6,0,0.8,0.1c0.2,0.1,0.4,0.1,0.5,0.2l-0.3,0.7
			c-0.1-0.1-0.3-0.1-0.5-0.2c-0.2,0-0.4-0.1-0.6-0.1c-0.3,0-0.5,0.1-0.8,0.3c-0.3,0.2-0.5,0.4-0.7,0.7c-0.2,0.3-0.4,0.6-0.5,1
			c-0.1,0.4-0.2,0.8-0.2,1.2c0,0.5,0.1,0.9,0.3,1.2c0.2,0.2,0.5,0.4,0.9,0.4c0.2,0,0.5-0.1,0.8-0.2c0.3-0.1,0.5-0.2,0.6-0.3
			L269.4,57.7z"/>
	</g>
	<g class="st9">
		<path class="st10" d="M230.9,71.2c0,0.1,0,0.2,0,0.3c0,0.2,0,0.3,0.1,0.3c0.1,0.1,0.1,0.1,0.2,0.1c0.2,0,0.3,0,0.4,0
			c0.1,0,0.2-0.1,0.4-0.1v0.7c-0.1,0-0.2,0.1-0.3,0.1c-0.1,0-0.2,0-0.3,0.1c-0.1,0-0.2,0-0.3,0s-0.2,0-0.3,0c-0.3,0-0.5-0.1-0.7-0.2
			s-0.3-0.4-0.3-0.7c0-0.2,0-0.4,0.1-0.6l1.5-7h0.9L230.9,71.2z"/>
		<path class="st10" d="M234.5,66.6h0.9l-1.3,6h-0.9L234.5,66.6z M234.7,64.8c0-0.2,0.1-0.3,0.2-0.5s0.3-0.2,0.5-0.2
			s0.3,0.1,0.5,0.2s0.2,0.3,0.2,0.5s-0.1,0.3-0.2,0.5s-0.3,0.2-0.5,0.2s-0.3-0.1-0.5-0.2S234.7,65,234.7,64.8z"/>
		<path class="st10" d="M239.6,72.6l0.8-3.8c0-0.1,0.1-0.3,0.1-0.4s0-0.3,0-0.4c0-0.2-0.1-0.4-0.2-0.6c-0.1-0.1-0.3-0.2-0.6-0.2
			c-0.2,0-0.4,0-0.6,0.1c-0.2,0.1-0.4,0.2-0.6,0.4c-0.2,0.1-0.3,0.3-0.5,0.5c-0.1,0.2-0.3,0.4-0.4,0.5l-0.8,3.8h-0.9l1.3-6h0.6l0,1
			h0c0.1-0.1,0.2-0.3,0.4-0.4c0.1-0.1,0.3-0.3,0.5-0.4s0.4-0.2,0.6-0.3c0.2-0.1,0.5-0.1,0.7-0.1c0.4,0,0.7,0.1,0.9,0.3
			c0.2,0.2,0.3,0.5,0.3,1c0,0.2,0,0.5-0.1,0.9l-0.9,4H239.6z"/>
		<path class="st10" d="M244.5,69.9h-0.6l-0.6,2.7h-0.9l1.8-8.4h0.9l-1.1,5.1l0.5-0.1l2.2-2.6h1.1l-2.1,2.4l-0.6,0.4l0.5,0.5
			l1.4,2.7h-1L244.5,69.9z"/>
		<path class="st10" d="M249.2,66.6h0.9l-1.3,6H248L249.2,66.6z M249.4,64.8c0-0.2,0.1-0.3,0.2-0.5s0.3-0.2,0.5-0.2s0.3,0.1,0.5,0.2
			s0.2,0.3,0.2,0.5s-0.1,0.3-0.2,0.5s-0.3,0.2-0.5,0.2s-0.3-0.1-0.5-0.2S249.4,65,249.4,64.8z"/>
		<path class="st10" d="M254.4,72.6l0.8-3.8c0-0.1,0.1-0.3,0.1-0.4s0-0.3,0-0.4c0-0.2-0.1-0.4-0.2-0.6c-0.1-0.1-0.3-0.2-0.6-0.2
			c-0.2,0-0.4,0-0.6,0.1c-0.2,0.1-0.4,0.2-0.6,0.4c-0.2,0.1-0.3,0.3-0.5,0.5c-0.1,0.2-0.3,0.4-0.4,0.5l-0.8,3.8h-0.9l1.3-6h0.6l0,1
			h0c0.1-0.1,0.2-0.3,0.4-0.4c0.1-0.1,0.3-0.3,0.5-0.4s0.4-0.2,0.6-0.3c0.2-0.1,0.5-0.1,0.7-0.1c0.4,0,0.7,0.1,0.9,0.3
			c0.2,0.2,0.3,0.5,0.3,1c0,0.2,0,0.5-0.1,0.9l-0.9,4H254.4z"/>
		<path class="st10" d="M261.3,72.9c-0.2,0.8-0.5,1.4-0.9,1.7s-1,0.5-1.6,0.5c-0.5,0-0.9-0.1-1.3-0.2c-0.3-0.1-0.6-0.2-0.8-0.3
			l0.4-0.7c0.1,0,0.1,0.1,0.2,0.1s0.2,0.1,0.3,0.2c0.1,0,0.3,0.1,0.5,0.1c0.2,0,0.4,0,0.7,0c0.4,0,0.7-0.1,1-0.4
			c0.3-0.3,0.5-0.7,0.6-1.4l0.2-1h0c-0.1,0.2-0.2,0.3-0.4,0.4c-0.1,0.1-0.3,0.3-0.4,0.4c-0.2,0.1-0.3,0.2-0.5,0.3
			c-0.2,0.1-0.4,0.1-0.6,0.1c-0.4,0-0.8-0.2-1-0.5c-0.3-0.3-0.4-0.8-0.4-1.3c0-0.5,0.1-1.1,0.2-1.6c0.1-0.5,0.4-1,0.7-1.4
			c0.3-0.4,0.7-0.8,1.1-1c0.4-0.3,0.9-0.4,1.5-0.4c0.4,0,0.8,0,1.1,0.1s0.6,0.2,0.8,0.3L261.3,72.9z M259,72c0.2,0,0.4-0.1,0.6-0.2
			c0.2-0.1,0.4-0.2,0.5-0.4c0.2-0.2,0.3-0.3,0.4-0.5c0.1-0.2,0.2-0.4,0.3-0.5l0.6-2.9c-0.1-0.1-0.3-0.1-0.5-0.1c-0.2,0-0.4,0-0.6,0
			c-0.3,0-0.6,0.1-0.9,0.3c-0.3,0.2-0.5,0.5-0.7,0.8c-0.2,0.3-0.4,0.7-0.5,1.1c-0.1,0.4-0.2,0.9-0.2,1.3c0,0.4,0.1,0.7,0.2,0.9
			S258.8,72,259,72z"/>
	</g>
	<g class="st9">
		<path class="st10" d="M547.7,56.2c-0.1,0.3-0.1,0.6-0.1,0.9c0,0.3,0,0.5,0,0.8c0,0.1,0,0.2,0,0.2c0,0.1,0,0.1,0,0.2H547l-0.2-1h0
			c-0.1,0.1-0.2,0.3-0.4,0.4c-0.1,0.1-0.3,0.3-0.5,0.4c-0.2,0.1-0.4,0.2-0.6,0.3c-0.2,0.1-0.4,0.1-0.6,0.1c-0.4,0-0.8-0.2-1-0.5
			c-0.3-0.3-0.4-0.8-0.4-1.5c0-0.5,0.1-1,0.2-1.5c0.1-0.5,0.3-1,0.6-1.4c0.3-0.4,0.6-0.7,1-1c0.4-0.3,0.9-0.4,1.4-0.4
			c0.1,0,0.3,0,0.4,0s0.2,0,0.3,0c0.1,0,0.2,0,0.3,0.1c0.1,0,0.2,0.1,0.3,0.1l0.5-2.5h0.9L547.7,56.2z M545.1,57.6
			c0.2,0,0.3,0,0.5-0.1s0.3-0.2,0.5-0.3c0.2-0.1,0.3-0.3,0.4-0.4c0.1-0.2,0.2-0.3,0.3-0.4l0.7-3.1c-0.1-0.1-0.3-0.2-0.5-0.2
			s-0.4-0.1-0.7-0.1c-0.3,0-0.6,0.1-0.9,0.3s-0.5,0.5-0.7,0.8s-0.3,0.7-0.4,1.1s-0.1,0.9-0.1,1.3c0,0.3,0.1,0.6,0.2,0.8
			C544.6,57.5,544.8,57.6,545.1,57.6z"/>
		<path class="st10" d="M551.1,56.1l0.1,1.2h0.1l0.5-1.2l2-3.9h1l-2.8,5.4c-0.2,0.4-0.4,0.8-0.6,1.1s-0.4,0.7-0.6,1
			c-0.2,0.3-0.4,0.5-0.7,0.7c-0.2,0.2-0.5,0.3-0.7,0.3c-0.1,0-0.3,0-0.4,0c-0.1,0-0.2,0-0.3-0.1l0.3-0.8c0.1,0,0.2,0,0.3,0
			c0.2,0,0.5-0.1,0.7-0.4s0.5-0.6,0.8-1.2l-1-6h1L551.1,56.1z"/>
		<path class="st10" d="M558.1,58.2l0.8-3.8c0-0.1,0.1-0.3,0.1-0.4c0-0.1,0-0.3,0-0.4c0-0.2-0.1-0.4-0.2-0.6
			c-0.1-0.1-0.3-0.2-0.6-0.2c-0.2,0-0.4,0-0.6,0.1c-0.2,0.1-0.4,0.2-0.6,0.4c-0.2,0.1-0.3,0.3-0.5,0.5c-0.1,0.2-0.3,0.4-0.4,0.5
			l-0.8,3.8h-0.9l1.3-6h0.6l0,1h0c0.1-0.1,0.2-0.3,0.4-0.4c0.1-0.1,0.3-0.3,0.5-0.4c0.2-0.1,0.4-0.2,0.6-0.3
			c0.2-0.1,0.5-0.1,0.7-0.1c0.4,0,0.7,0.1,0.9,0.3c0.2,0.2,0.3,0.5,0.3,1c0,0.2,0,0.5-0.1,0.9l-0.9,4H558.1z"/>
		<path class="st10" d="M565.3,55.9c-0.1,0.3-0.1,0.6-0.1,0.9c0,0.3,0,0.6,0,0.9c0,0.1,0,0.2,0,0.3c0,0.1,0,0.2,0,0.3h-0.7l-0.2-1h0
			c-0.1,0.1-0.2,0.3-0.4,0.4c-0.1,0.1-0.3,0.3-0.5,0.4c-0.2,0.1-0.3,0.2-0.5,0.3c-0.2,0.1-0.4,0.1-0.6,0.1c-1,0-1.4-0.6-1.4-1.9
			c0-0.5,0.1-1,0.2-1.6c0.1-0.5,0.3-1,0.6-1.4s0.6-0.8,1.1-1c0.4-0.3,1-0.4,1.6-0.4c0.2,0,0.5,0,0.8,0.1c0.3,0.1,0.6,0.1,0.9,0.2
			L565.3,55.9z M562.6,57.6c0.2,0,0.4,0,0.6-0.1s0.3-0.2,0.5-0.3c0.2-0.1,0.3-0.3,0.4-0.4s0.2-0.3,0.3-0.4L565,53
			c-0.2-0.1-0.5-0.2-0.9-0.2s-0.7,0.1-1,0.3c-0.3,0.2-0.5,0.5-0.7,0.8c-0.2,0.3-0.3,0.7-0.4,1.2c-0.1,0.4-0.1,0.9-0.1,1.3
			c0,0.3,0.1,0.6,0.2,0.8C562.1,57.5,562.3,57.6,562.6,57.6z"/>
		<path class="st10" d="M569.9,58.2l0.7-3.4c0.1-0.3,0.1-0.5,0.1-0.7c0-0.2,0-0.4,0-0.6c0-0.2,0-0.4-0.1-0.5
			c-0.1-0.1-0.2-0.2-0.4-0.2c-0.2,0-0.4,0.1-0.6,0.2c-0.2,0.1-0.4,0.2-0.5,0.4s-0.3,0.3-0.5,0.5s-0.3,0.3-0.3,0.5l-0.8,3.9h-0.9
			l1.3-6h0.6l-0.1,1h0c0.1-0.1,0.3-0.3,0.4-0.4c0.1-0.1,0.3-0.3,0.5-0.4c0.2-0.1,0.4-0.2,0.6-0.3c0.2-0.1,0.4-0.1,0.7-0.1
			c0.4,0,0.6,0.1,0.7,0.3c0.1,0.2,0.2,0.5,0.2,0.9c0.1-0.2,0.3-0.3,0.4-0.5c0.2-0.2,0.3-0.3,0.5-0.4c0.2-0.1,0.4-0.2,0.6-0.3
			c0.2-0.1,0.4-0.1,0.6-0.1c0.4,0,0.7,0.1,0.8,0.3c0.2,0.2,0.3,0.5,0.3,1c0,0.3-0.1,0.8-0.2,1.3l-0.8,3.6h-0.9l0.8-3.6
			c0-0.2,0.1-0.4,0.1-0.6c0-0.2,0-0.3,0-0.5c0-0.2,0-0.4-0.1-0.5s-0.2-0.2-0.4-0.2c-0.2,0-0.3,0.1-0.5,0.2c-0.2,0.1-0.4,0.2-0.5,0.4
			c-0.2,0.2-0.3,0.3-0.5,0.5s-0.3,0.4-0.3,0.5l-0.8,3.8H569.9z"/>
		<path class="st10" d="M577.3,52.2h0.9l-1.3,6H576L577.3,52.2z M577.5,50.4c0-0.2,0.1-0.3,0.2-0.5s0.3-0.2,0.5-0.2s0.3,0.1,0.5,0.2
			c0.1,0.1,0.2,0.3,0.2,0.5s-0.1,0.3-0.2,0.5c-0.1,0.1-0.3,0.2-0.5,0.2s-0.3-0.1-0.5-0.2S577.5,50.6,577.5,50.4z"/>
	</g>
	<g class="st9">
		<path class="st10" d="M582.8,57.7c-0.1,0.1-0.3,0.2-0.4,0.3s-0.3,0.1-0.5,0.2s-0.3,0.1-0.5,0.1s-0.3,0-0.5,0c-0.4,0-0.7-0.1-1-0.2
			s-0.5-0.3-0.6-0.5c-0.1-0.2-0.2-0.4-0.3-0.6c-0.1-0.2-0.1-0.4-0.1-0.6c0-0.7,0.1-1.3,0.3-1.8s0.4-1,0.7-1.4
			c0.3-0.4,0.7-0.7,1.1-0.9c0.4-0.2,0.8-0.3,1.2-0.3c0.3,0,0.6,0,0.8,0.1c0.2,0.1,0.4,0.1,0.5,0.2l-0.3,0.7
			c-0.1-0.1-0.3-0.1-0.5-0.2c-0.2,0-0.4-0.1-0.6-0.1c-0.3,0-0.5,0.1-0.8,0.3c-0.3,0.2-0.5,0.4-0.7,0.7c-0.2,0.3-0.4,0.6-0.5,1
			s-0.2,0.8-0.2,1.2c0,0.5,0.1,0.9,0.3,1.2c0.2,0.2,0.5,0.4,0.9,0.4c0.2,0,0.5-0.1,0.8-0.2c0.3-0.1,0.5-0.2,0.6-0.3L582.8,57.7z"/>
	</g>
	<g class="st9">
		<path class="st10" d="M544.3,71.2c0,0.1,0,0.2,0,0.3c0,0.2,0,0.3,0.1,0.3c0.1,0.1,0.1,0.1,0.2,0.1c0.2,0,0.3,0,0.4,0
			c0.1,0,0.2-0.1,0.4-0.1v0.7c-0.1,0-0.2,0.1-0.3,0.1c-0.1,0-0.2,0-0.3,0.1c-0.1,0-0.2,0-0.3,0s-0.2,0-0.3,0c-0.3,0-0.5-0.1-0.7-0.2
			s-0.3-0.4-0.3-0.7c0-0.2,0-0.4,0.1-0.6l1.5-7h0.9L544.3,71.2z"/>
		<path class="st10" d="M546.5,70.7c0-0.6,0.1-1.2,0.2-1.7c0.2-0.5,0.4-1,0.7-1.3s0.6-0.7,1-0.9s0.8-0.3,1.2-0.3
			c0.3,0,0.6,0.1,0.9,0.2c0.2,0.1,0.4,0.3,0.6,0.4c0.1,0.2,0.3,0.4,0.3,0.6s0.1,0.5,0.1,0.8c0,0.6-0.1,1.2-0.2,1.7
			c-0.2,0.5-0.4,1-0.6,1.4c-0.3,0.4-0.6,0.7-1,0.9c-0.4,0.2-0.8,0.3-1.2,0.3c-0.4,0-0.7-0.1-0.9-0.2c-0.2-0.1-0.4-0.3-0.6-0.5
			c-0.2-0.2-0.3-0.4-0.3-0.6C546.6,71.2,546.5,71,546.5,70.7z M547.5,70.5c0,0.5,0.1,0.8,0.3,1.1s0.5,0.4,0.8,0.4
			c0.3,0,0.5-0.1,0.8-0.3c0.2-0.2,0.4-0.4,0.6-0.8c0.2-0.3,0.3-0.7,0.4-1.1c0.1-0.4,0.2-0.8,0.2-1.3c0-0.4-0.1-0.7-0.2-1
			c-0.1-0.2-0.4-0.4-0.8-0.4c-0.3,0-0.5,0.1-0.8,0.3c-0.2,0.2-0.5,0.4-0.6,0.7c-0.2,0.3-0.3,0.7-0.4,1
			C547.6,69.7,547.5,70.1,547.5,70.5z"/>
		<path class="st10" d="M556.9,70.3c-0.1,0.3-0.1,0.6-0.1,0.9c0,0.3,0,0.6,0,0.9c0,0.1,0,0.2,0,0.3c0,0.1,0,0.2,0,0.3h-0.7l-0.2-1h0
			c-0.1,0.1-0.2,0.3-0.4,0.4c-0.1,0.1-0.3,0.3-0.5,0.4c-0.2,0.1-0.3,0.2-0.5,0.3c-0.2,0.1-0.4,0.1-0.6,0.1c-1,0-1.4-0.6-1.4-1.9
			c0-0.5,0.1-1,0.2-1.6c0.1-0.5,0.3-1,0.6-1.4s0.6-0.8,1.1-1c0.4-0.3,1-0.4,1.6-0.4c0.2,0,0.5,0,0.8,0.1c0.3,0.1,0.6,0.1,0.9,0.2
			L556.9,70.3z M554.2,72c0.2,0,0.4,0,0.6-0.1s0.3-0.2,0.5-0.3c0.2-0.1,0.3-0.3,0.4-0.4s0.2-0.3,0.3-0.4l0.7-3.2
			c-0.2-0.1-0.5-0.2-0.9-0.2s-0.7,0.1-1,0.3c-0.3,0.2-0.5,0.5-0.7,0.8c-0.2,0.3-0.3,0.7-0.4,1.2c-0.1,0.4-0.1,0.9-0.1,1.3
			c0,0.3,0.1,0.6,0.2,0.8C553.7,71.9,553.9,72,554.2,72z"/>
		<path class="st10" d="M562.8,70.6c-0.1,0.3-0.1,0.6-0.1,0.9c0,0.3,0,0.5,0,0.8c0,0.1,0,0.2,0,0.2c0,0.1,0,0.1,0,0.2H562l-0.2-1h0
			c-0.1,0.1-0.2,0.3-0.4,0.4c-0.1,0.1-0.3,0.3-0.5,0.4c-0.2,0.1-0.4,0.2-0.6,0.3c-0.2,0.1-0.4,0.1-0.6,0.1c-0.4,0-0.8-0.2-1-0.5
			s-0.4-0.8-0.4-1.5c0-0.5,0.1-1,0.2-1.5c0.1-0.5,0.3-1,0.6-1.4s0.6-0.7,1-1c0.4-0.3,0.9-0.4,1.4-0.4c0.1,0,0.3,0,0.4,0
			c0.1,0,0.2,0,0.3,0c0.1,0,0.2,0,0.3,0.1c0.1,0,0.2,0.1,0.3,0.1l0.5-2.5h0.9L562.8,70.6z M560.1,72c0.2,0,0.3,0,0.5-0.1
			c0.2-0.1,0.3-0.2,0.5-0.3c0.2-0.1,0.3-0.3,0.4-0.4c0.1-0.2,0.2-0.3,0.3-0.4l0.7-3.1c-0.1-0.1-0.3-0.2-0.5-0.2s-0.4-0.1-0.7-0.1
			c-0.3,0-0.6,0.1-0.9,0.3s-0.5,0.5-0.7,0.8c-0.2,0.3-0.3,0.7-0.4,1.1c-0.1,0.4-0.1,0.9-0.1,1.3c0,0.3,0.1,0.6,0.2,0.8
			C559.6,71.9,559.9,72,560.1,72z"/>
		<path class="st10" d="M568.5,72c-0.3,0.2-0.6,0.4-1,0.5s-0.8,0.2-1.1,0.2c-0.6,0-1.1-0.2-1.4-0.6c-0.3-0.4-0.5-0.9-0.5-1.5
			c0-0.7,0.1-1.2,0.3-1.8c0.2-0.5,0.4-1,0.7-1.3c0.3-0.4,0.6-0.6,1-0.8c0.4-0.2,0.8-0.3,1.2-0.3c0.3,0,0.5,0,0.8,0.1
			c0.2,0.1,0.4,0.2,0.5,0.3c0.1,0.1,0.2,0.3,0.3,0.5s0.1,0.4,0.1,0.5c0,0.6-0.3,1-0.8,1.3c-0.6,0.3-1.4,0.5-2.4,0.5
			c-0.1,0-0.2,0-0.3,0c-0.1,0-0.2,0-0.3,0c0,0.2-0.1,0.3-0.1,0.4c0,0.1,0,0.3,0,0.4c0,0.4,0.1,0.8,0.3,1.1c0.2,0.3,0.5,0.4,0.9,0.4
			c0.4,0,0.7-0.1,1-0.2c0.3-0.1,0.5-0.2,0.7-0.4L568.5,72z M567.5,67.2c-0.4,0-0.8,0.2-1.1,0.5c-0.3,0.3-0.6,0.8-0.7,1.3
			c0.3,0,0.6,0,0.9,0c0.3,0,0.6-0.1,0.9-0.1c0.3-0.1,0.5-0.2,0.7-0.3c0.2-0.1,0.3-0.4,0.3-0.6c0-0.1,0-0.2,0-0.2
			c0-0.1-0.1-0.2-0.1-0.2c-0.1-0.1-0.2-0.1-0.3-0.2C567.8,67.3,567.7,67.2,567.5,67.2z"/>
		<path class="st10" d="M573.8,67.4c-0.1,0-0.1,0-0.2,0c-0.1,0-0.1,0-0.2,0c-0.4,0-0.8,0.1-1.1,0.4c-0.3,0.3-0.5,0.6-0.7,0.9
			l-0.8,3.9h-0.9l1.3-6h0.6v1h0c0.1-0.2,0.2-0.3,0.3-0.4c0.1-0.1,0.2-0.3,0.4-0.4c0.1-0.1,0.3-0.2,0.4-0.2c0.2-0.1,0.3-0.1,0.5-0.1
			c0.2,0,0.4,0,0.6,0.1L573.8,67.4z"/>
	</g>
</g>
<g id="Ebene_4">
	<line class="st14" x1="216.3" y1="81.6" x2="282" y2="81.6"/>
	<polygon class="st15" points="277.4,87.3 276.4,86.3 281.5,81.6 276.4,76.9 277.4,75.9 283.5,81.6 	"/>
	<line class="st11" x1="412.4" y1="157.8" x2="412.4" y2="178.3"/>
	<polygon class="st4" points="406.7,173.7 407.7,172.7 412.4,177.8 417.1,172.7 418.1,173.7 412.4,179.8 	"/>
	<line class="st14" x1="529.7" y1="81.6" x2="595.4" y2="81.6"/>
	<polygon class="st15" points="590.8,87.3 589.8,86.3 594.9,81.6 589.8,76.9 590.8,75.9 596.9,81.6 	"/>
	<path class="st11" d="M322,80.1c-10.3-12.4-9.8-30.4,1-42.3"/>
	<polygon class="st4" points="323.7,72.9 322.3,72.8 321.7,79.7 314.9,78.5 314.7,79.9 323,81.3 	"/>
	<path class="st11" d="M318.3,136.1c-25.3-28.8-24.8-72,1-100.2"/>
	<polygon class="st4" points="319.8,128.8 318.4,128.8 318,135.7 311.1,134.8 311,136.2 319.3,137.2 	"/>
</g>
</svg>
