<?xml version="1.0" encoding="utf-8"?>
<!-- Generator: Adobe Illustrator 26.3.1, SVG Export Plug-In . SVG Version: 6.00 Build 0)  -->
<svg version="1.1" id="Ebene_1" xmlns="http://www.w3.org/2000/svg" xmlns:xlink="http://www.w3.org/1999/xlink" x="0px" y="0px"
	 viewBox="0 0 1316.5 1316.5" style="enable-background:new 0 0 1316.5 1316.5;" xml:space="preserve">
<style type="text/css">
	.st0{fill:url(#SVGID_1_);}
	.st1{fill:url(#SVGID_00000145034013627991869730000001146747960996136626_);}
	.st2{opacity:0.25;}
	.st3{fill:#FFFFFF;}
	.st4{enable-background:new    ;}
	.st5{fill:none;stroke:#FFCC00;stroke-width:4;stroke-miterlimit:10;}
	.st6{fill:none;stroke:#FFCC00;stroke-width:6;stroke-miterlimit:10;}
	.st7{fill:none;stroke:#FFCB00;stroke-width:6;stroke-linecap:round;stroke-linejoin:round;}
	.st8{fill:#FFCC00;}
	.st9{fill:none;stroke:#FFCC00;stroke-width:6;stroke-linejoin:round;}
</style>
<linearGradient id="SVGID_1_" gradientUnits="userSpaceOnUse" x1="11.25" y1="657.75" x2="1305.25" y2="657.75" gradientTransform="matrix(1 0 0 -1 0 1316)">
	<stop  offset="0" style="stop-color:#981869"/>
	<stop  offset="0.19" style="stop-color:#771B65"/>
	<stop  offset="0.4" style="stop-color:#591F62"/>
	<stop  offset="0.61" style="stop-color:#43215F"/>
	<stop  offset="0.81" style="stop-color:#36235E"/>
	<stop  offset="1" style="stop-color:#32245E"/>
</linearGradient>
<circle class="st0" cx="658.2" cy="658.2" r="647"/>
<linearGradient id="SVGID_00000047057573633255499670000004200420186639637680_" gradientUnits="userSpaceOnUse" x1="159.25" y1="657.75" x2="1157.25" y2="657.75" gradientTransform="matrix(1 0 0 -1 0 1316)">
	<stop  offset="0" style="stop-color:#981869"/>
	<stop  offset="0.19" style="stop-color:#771B65"/>
	<stop  offset="0.4" style="stop-color:#591F62"/>
	<stop  offset="0.61" style="stop-color:#43215F"/>
	<stop  offset="0.81" style="stop-color:#36235E"/>
	<stop  offset="1" style="stop-color:#32245E"/>
</linearGradient>
<circle style="fill:url(#SVGID_00000047057573633255499670000004200420186639637680_);" cx="658.2" cy="658.2" r="499"/>
<g class="st2">
	<path class="st3" d="M658.2,131.1c291.1,0,527.1,236,527.1,527.1s-236,527.1-527.1,527.1s-527.1-236-527.1-527.1
		S367.1,131.1,658.2,131.1 M658.2,11.1C571,11.1,486.2,28.3,406.3,62c-38.4,16.2-75.4,36.3-110,59.7c-34.2,23.1-66.4,49.7-95.7,78.9
		c-29.2,29.2-55.8,61.5-78.9,95.7C98.4,331,78.3,368,62,406.3C28.3,486.2,11.1,571,11.1,658.3S28.3,830.3,62,910.2
		c16.2,38.4,36.3,75.4,59.7,110c23.1,34.2,49.7,66.4,78.9,95.7c29.2,29.2,61.5,55.8,95.7,78.9c34.6,23.4,71.6,43.5,110,59.7
		c79.9,33.8,164.6,50.9,251.9,50.9s172.1-17.1,251.9-50.9c38.4-16.2,75.4-36.3,110-59.7c34.2-23.1,66.4-49.7,95.7-78.9
		c29.2-29.2,55.8-61.4,78.9-95.7c23.4-34.6,43.4-71.6,59.7-110c33.8-79.8,50.9-164.6,50.9-251.9s-17.1-172.1-50.9-251.9
		c-16.2-38.4-36.3-75.4-59.7-110c-23.1-34.2-49.7-66.4-78.9-95.7c-29.2-29.2-61.4-55.8-95.7-78.9c-34.6-23.4-71.6-43.4-110-59.7
		C830.3,28.3,745.6,11.2,658.2,11.1L658.2,11.1L658.2,11.1z"/>
</g>
<g class="st4">
	<path class="st3" d="M355,1176.8c-3.6-2.1-6.2-4.7-8-7.7c-1.8-3.1-2.6-6.4-2.4-10s1.4-7.3,3.6-11l0.7-1.2c2.1-3.6,4.7-6.3,7.7-8.2
		c3-1.9,6.3-2.9,9.8-3s7,1,10.6,3.1c2.5,1.5,4.6,3.2,6.4,5.2c1.8,2,3.1,4.2,3.9,6.7l-5.3,8.9l-5.5-3.2l2.5-6
		c-0.3-0.7-0.7-1.4-1.2-2.1c-0.5-0.7-1.1-1.3-1.7-1.9c-0.7-0.6-1.5-1.2-2.4-1.7c-2.1-1.2-4.2-1.8-6.3-1.6c-2.1,0.1-4.1,0.9-6,2.3
		c-1.9,1.4-3.6,3.4-5.2,6l-0.8,1.3c-1.5,2.6-2.4,5.1-2.7,7.4c-0.3,2.4,0.1,4.6,1,6.5c0.9,2,2.5,3.6,4.6,4.8c1.1,0.6,2.2,1.1,3.4,1.5
		c1.2,0.4,2.4,0.6,3.5,0.8l3.8-4.7l5.5,3.2l-5.2,8.8c-2,0.1-4.2-0.2-6.8-0.8C360.2,1179.4,357.6,1178.3,355,1176.8z"/>
</g>
<g class="st4">
	<path class="st3" d="M386.1,1193.8c-2.8-1.4-4.9-3.3-6.3-5.5c-1.4-2.2-2.1-4.7-2-7.4s0.8-5.5,2.2-8.3l0.3-0.6
		c1.4-2.8,3.2-5,5.4-6.7c2.2-1.6,4.6-2.5,7.2-2.8c2.6-0.2,5.3,0.4,8.1,1.8c2.8,1.4,4.9,3.3,6.3,5.5c1.4,2.2,2,4.7,2,7.4
		c0,2.7-0.8,5.5-2.2,8.3l-0.3,0.5c-1.4,2.8-3.2,5.1-5.4,6.7c-2.2,1.6-4.6,2.5-7.2,2.8C391.5,1195.8,388.8,1195.2,386.1,1193.8z
		 M389.1,1187.9c1.3,0.7,2.6,0.9,3.8,0.6c1.2-0.3,2.3-1,3.4-2c1.1-1.1,2-2.5,2.9-4.2l0.3-0.6c0.9-1.7,1.4-3.3,1.7-4.7
		c0.3-1.5,0.1-2.8-0.3-4c-0.5-1.2-1.4-2.1-2.7-2.8c-1.3-0.7-2.6-0.9-3.8-0.6c-1.2,0.3-2.4,1-3.4,2.1c-1,1.1-2,2.5-2.8,4.1l-0.3,0.5
		c-0.9,1.7-1.4,3.3-1.7,4.8c-0.3,1.5-0.1,2.8,0.3,3.9S387.7,1187.2,389.1,1187.9z"/>
</g>
<g class="st4">
	<path class="st3" d="M404.3,1202.3l2-4.7l4.1,0.8l7.8-18.1l-3.8-2.6l2-4.7l11.5,5l-1.5,4.3c1.6-1.1,3.3-1.7,5.1-1.9
		c1.8-0.2,3.6,0.1,5.4,0.9c2.9,1.2,4.8,3.2,5.6,5.7c0.8,2.6,0.4,5.8-1.3,9.8l-5.5,12.7l3.4,2.4l-2,4.7l-15-6.5l2-4.7l3.7,0.6
		l5.5-12.7c0.8-2,1.1-3.5,0.6-4.7c-0.4-1.2-1.4-2.1-2.9-2.7c-1.1-0.5-2.2-0.7-3.3-0.6c-1,0.1-2,0.5-3,1.1l-6.6,15.3l2.8,2.2l-2,4.7
		L404.3,1202.3z"/>
</g>
<g class="st4">
	<path class="st3" d="M440.8,1217.9l1.7-4.8l4.6,0.7l6.6-18.6l-4.5-1.6l2-5.7l4.5,1.6l0.7-2c1.3-3.8,3.5-6.3,6.5-7.5
		c3-1.2,6.6-1.1,10.8,0.4c1.4,0.5,2.8,1.2,4.1,1.9c1.3,0.8,2.8,1.8,4.4,3l-3.4,6c-1.1-0.8-2.2-1.6-3.3-2.2c-1.1-0.6-2.2-1.2-3.4-1.6
		c-2-0.7-3.6-0.8-4.9-0.3c-1.3,0.5-2.2,1.6-2.8,3.2l-0.7,2l18.1,6.4l-8.6,24.3l4,2.3l-1.7,4.8l-16.3-5.8l1.7-4.8l4.2,0.5l6.6-18.6
		l-10.1-3.6l-6.6,18.6l3.6,2.2l-1.7,4.8L440.8,1217.9z"/>
</g>
<g class="st4">
	<path class="st3" d="M491.7,1235.5c-2.4-0.7-4.3-1.9-5.7-3.6c-1.4-1.7-2.2-3.9-2.5-6.4c-0.3-2.5,0-5.3,0.8-8.3l0.2-0.6
		c0.9-3.2,2.2-5.9,3.8-8.1c1.6-2.1,3.5-3.7,5.6-4.5c2.1-0.9,4.4-0.9,6.8-0.3c1.7,0.5,3.1,1.2,4.1,2.2c1.1,1,1.9,2.3,2.5,3.8l3.1-11
		l-4.2-2.1l1.4-5l4.4,1.2l8.2,2.3l-10.8,38.3l3.7,2l-1.4,4.9l-11.1-3.1l0.4-3.9c-1.4,1.1-2.8,1.9-4.3,2.3
		C495.2,1236.1,493.5,1236,491.7,1235.5z M496,1229.8c1.1,0.3,2.2,0.4,3.2,0.1c1-0.2,1.9-0.7,2.8-1.5l3.6-13
		c-0.3-1.1-0.8-2.1-1.5-2.9c-0.7-0.8-1.6-1.3-2.8-1.6c-1.4-0.4-2.6-0.3-3.7,0.3c-1.1,0.6-2.1,1.5-2.9,2.9c-0.8,1.3-1.5,3-2,4.9
		l-0.2,0.6c-0.8,2.7-0.9,4.9-0.4,6.7C492.6,1228,493.9,1229.2,496,1229.8z"/>
</g>
<g class="st4">
	<path class="st3" d="M530.6,1245.3c-3-0.6-5.4-1.9-7.3-3.7c-1.9-1.8-3.3-4-4-6.5s-0.7-5.3-0.1-8.3l0.2-1.1c0.7-3.1,1.8-5.7,3.5-7.8
		c1.7-2.1,3.7-3.6,6.1-4.6c2.4-0.9,5-1,7.9-0.4c2.8,0.6,5,1.7,6.7,3.2c1.7,1.5,2.8,3.4,3.3,5.7c0.5,2.3,0.5,4.9-0.2,7.9l-1,4.6
		l-18.2-4l-0.1,0.2c-0.2,1.4-0.1,2.7,0.2,3.8c0.3,1.2,0.9,2.2,1.8,3c0.9,0.8,2.1,1.4,3.6,1.7c1.5,0.3,3,0.4,4.4,0.3
		c1.4-0.1,2.8-0.4,4.3-0.9l1.1,5.7c-1.5,0.8-3.3,1.3-5.4,1.5C535.4,1246,533.1,1245.8,530.6,1245.3z M528.8,1224.8l10.3,2.3l0.2-0.7
		c0.3-1.3,0.3-2.4,0.2-3.4c-0.1-1-0.5-1.8-1.1-2.5s-1.5-1.1-2.7-1.4c-1.1-0.2-2.1-0.2-3,0.3c-0.9,0.4-1.7,1.1-2.3,2
		c-0.7,0.9-1.2,2-1.6,3.2L528.8,1224.8z"/>
</g>
<g class="st4">
	<path class="st3" d="M548,1248.4l0.8-5.1l4.2-0.2l3-19.5l-4.4-1.6l0.8-5.1l12.4,1.9l-0.3,4.6c1.3-1.4,2.8-2.5,4.5-3.1
		c1.7-0.6,3.5-0.8,5.5-0.5c3.1,0.5,5.4,1.9,6.8,4.1c1.5,2.3,1.8,5.5,1.2,9.8l-2.1,13.7l3.9,1.5l-0.8,5.1l-16.2-2.5l0.8-5.1l3.8-0.3
		l2.1-13.6c0.3-2.1,0.1-3.7-0.6-4.7c-0.7-1-1.9-1.6-3.5-1.9c-1.2-0.2-2.3-0.1-3.3,0.3c-1,0.4-1.8,1-2.6,1.8l-2.6,16.5l3.3,1.4
		l-0.8,5.1L548,1248.4z"/>
</g>
<g class="st4">
	<path class="st3" d="M598.9,1256c-2.9-0.3-5.1-1.3-6.5-3.1c-1.4-1.8-1.9-4.4-1.6-7.9l1.7-16.1l-4.3-0.5l0.6-6l4.3,0.5l0.8-7.7
		l8.5,0.9l-0.8,7.7l5.8,0.6l-0.6,6l-5.8-0.6l-1.7,16.1c-0.1,1.2,0,2.1,0.5,2.7c0.5,0.6,1.1,0.9,2,1c0.5,0,1,0.1,1.5,0.1
		c0.6,0,1,0,1.4-0.1l0.1,6.2c-0.9,0.2-1.9,0.3-2.9,0.3C600.9,1256.1,599.9,1256.1,598.9,1256z"/>
</g>
<g class="st4">
	<path class="st3" d="M609.4,1256.3l0.3-5.1l4.2-0.6l1.3-19.6l-4.5-1.2l0.3-5.2l13.1,0.9l-1.7,25.7l4,1.2l-0.3,5.1L609.4,1256.3z
		 M615.8,1218.2l0.5-7.3l8.8,0.6l-0.5,7.3L615.8,1218.2z"/>
</g>
<g class="st4">
	<path class="st3" d="M640.8,1258.6c-3.1-0.1-5.6-1-7.5-2.7c-1.8-1.7-2.7-4.1-2.6-7c0-2,0.6-3.7,1.7-5.2c1.1-1.5,2.7-2.6,4.9-3.4
		c2.1-0.8,4.8-1.2,7.9-1.1l4.2,0.1l0-2.3c0-1.5-0.4-2.8-1.3-3.7c-0.9-1-2.2-1.5-4-1.5c-0.9,0-1.7,0.1-2.5,0.3
		c-0.7,0.2-1.4,0.5-2,0.9l-0.8,4.2l-6.2-0.1l0.1-8.2c1.7-0.9,3.5-1.6,5.4-2.2c1.9-0.5,4.1-0.8,6.5-0.7c4.1,0.1,7.4,1.1,9.8,3.1
		c2.4,2,3.5,4.8,3.4,8.3l-0.3,13.1c0,0.4,0,0.9,0,1.3c0,0.4,0,0.8,0.1,1.2l3.3,0.5l-0.1,5.1l-10.6-0.2c-0.2-0.6-0.4-1.1-0.6-1.8
		c-0.2-0.6-0.3-1.3-0.4-1.9c-1,1.3-2.3,2.3-3.7,3C644.3,1258.3,642.7,1258.7,640.8,1258.6z M643.2,1252.3c1.2,0,2.3-0.2,3.4-0.7
		c1.1-0.5,1.9-1.2,2.5-2.1l0.1-5l-4.2-0.1c-1.9,0-3.3,0.4-4.3,1.2c-1,0.8-1.5,1.9-1.5,3.1c0,1.1,0.3,2,1,2.7
		C641,1252,642,1252.3,643.2,1252.3z"/>
</g>
<g class="st4">
	<path class="st3" d="M664.7,1258.3l-0.1-5.1l4.1-1l-0.8-33.7l-4.6-0.8l-0.1-5.2l13.1-0.3l1,39.8l4.2,0.8l0.1,5.1L664.7,1258.3z"/>
</g>
<g class="st4">
	<path class="st3" d="M721.1,1255.6c-4.1,0.4-7.8-0.1-11-1.5c-3.2-1.4-5.8-3.6-7.8-6.6c-2-3-3.2-6.7-3.6-11l-0.1-1.4
		c-0.4-4.1,0-7.9,1.3-11.2c1.3-3.3,3.3-6.1,6.1-8.2s6.3-3.4,10.4-3.8c2.9-0.3,5.6-0.1,8.2,0.4c2.6,0.6,5,1.6,7.1,3.1l1,10.3
		l-6.3,0.6l-1.5-6.4c-0.7-0.4-1.4-0.7-2.2-1c-0.8-0.3-1.6-0.4-2.5-0.5c-0.9-0.1-1.9-0.1-2.9,0c-2.4,0.2-4.4,1-6,2.4
		c-1.6,1.4-2.8,3.2-3.5,5.4s-0.9,4.9-0.6,7.9l0.1,1.5c0.3,3,1,5.5,2.2,7.6c1.2,2.1,2.7,3.6,4.7,4.7c1.9,1,4.1,1.4,6.5,1.2
		c1.2-0.1,2.4-0.4,3.7-0.8c1.2-0.4,2.3-0.9,3.3-1.4l0.3-6.1l6.3-0.6l1,10.2c-1.5,1.3-3.5,2.4-5.9,3.4
		C726.8,1254.7,724.1,1255.3,721.1,1255.6z"/>
</g>
<g class="st4">
	<path class="st3" d="M756.2,1250.9c-3.1,0.5-5.9,0.3-8.3-0.7c-2.4-1-4.4-2.6-6-4.8c-1.6-2.2-2.6-4.9-3.1-8l-0.1-0.6
		c-0.5-3.1-0.4-6,0.4-8.6c0.8-2.6,2.2-4.8,4.2-6.5c2-1.7,4.5-2.8,7.6-3.3c3.1-0.5,5.9-0.3,8.3,0.7c2.4,1,4.4,2.6,6,4.8
		c1.6,2.2,2.6,4.9,3.1,8l0.1,0.6c0.5,3.1,0.4,6-0.4,8.6c-0.8,2.6-2.2,4.8-4.1,6.5C761.8,1249.3,759.2,1250.4,756.2,1250.9z
		 M755.1,1244.4c1.5-0.2,2.6-0.8,3.4-1.8c0.8-0.9,1.3-2.2,1.5-3.7c0.2-1.5,0.2-3.2-0.1-5.1l-0.1-0.6c-0.3-1.9-0.8-3.5-1.5-4.8
		c-0.7-1.3-1.5-2.3-2.6-3c-1.1-0.6-2.3-0.8-3.8-0.6c-1.4,0.2-2.6,0.8-3.4,1.8c-0.8,1-1.3,2.2-1.5,3.7c-0.2,1.5-0.2,3.2,0.2,5
		l0.1,0.6c0.3,1.9,0.8,3.5,1.5,4.9c0.7,1.4,1.5,2.3,2.6,3C752.3,1244.5,753.6,1244.7,755.1,1244.4z"/>
</g>
<g class="st4">
	<path class="st3" d="M776.3,1247.2l-1.2-5l3.8-1.8l-4.7-19.1l-4.7,0.2l-1.2-5l12.2-3l1.3,4c0.6-1.7,1.6-3.2,2.9-4.3
		c1.3-1.2,2.9-2,4.9-2.5c2-0.5,3.8-0.5,5.4,0.1c1.6,0.5,3,1.6,4.2,3.2c0.5-1.9,1.5-3.5,2.8-4.8c1.3-1.3,3-2.2,5-2.7
		c3-0.7,5.7-0.3,8,1.3c2.3,1.6,3.9,4.6,5,8.8l3.2,13l4.2-0.1l1.2,5l-15.9,3.9l-1.2-5l3.4-1.7l-3.2-13c-0.6-2.3-1.3-3.8-2.3-4.5
		c-1-0.7-2.2-0.9-3.6-0.5c-1.3,0.3-2.3,1-3,1.9c-0.7,1-1.1,2.1-1.2,3.4l3.7,15.1l3.6,0l1.2,5l-15,3.7l-1.2-5l3.2-1.7l-3.2-13
		c-0.5-2.2-1.3-3.7-2.3-4.4c-1-0.7-2.2-0.9-3.7-0.6c-1.2,0.3-2.1,0.8-2.9,1.5c-0.7,0.7-1.3,1.5-1.6,2.6l4,16.3l3.8,0l1.2,5
		L776.3,1247.2z"/>
</g>
<g class="st4">
	<path class="st3" d="M836.8,1244.2l-1.6-4.9l3.6-2.1l-10.1-30.2l-4.6,0.6l-1.6-4.9l11.8-3.9l1.6,3.4c0.5-1.6,1.2-3,2.2-4.1
		c1-1.1,2.4-2,4.2-2.6c2.4-0.8,4.7-0.8,6.9-0.1c2.2,0.8,4.1,2.2,5.8,4.2c1.7,2.1,3.1,4.7,4.2,7.9l0.2,0.6c1,3,1.4,5.7,1.2,8.2
		c-0.2,2.5-0.9,4.7-2.2,6.5s-3.2,3.1-5.7,3.9c-1.6,0.5-3.1,0.7-4.6,0.6c-1.4-0.2-2.8-0.7-4-1.5l2.9,8.7l4.2-0.5l1.6,4.9
		L836.8,1244.2z M848.1,1221.3c2.1-0.7,3.3-2,3.7-3.8s0.2-4.1-0.7-6.7l-0.2-0.6c-0.6-1.9-1.4-3.5-2.3-4.8c-0.9-1.3-1.9-2.2-3.1-2.7
		c-1.2-0.5-2.4-0.5-3.8-0.1c-1.1,0.4-2,1-2.7,1.7c-0.7,0.8-1.1,1.7-1.3,2.8l4.4,13.2c0.8,0.7,1.7,1.1,2.7,1.3
		C845.9,1221.8,847,1221.7,848.1,1221.3z"/>
</g>
<g class="st4">
	<path class="st3" d="M881.9,1215.8c-3.1,1.3-5.9,1.3-8.5,0s-4.7-3.9-6.4-8.1l-5-12.3l-3.6,0.5l-2-4.8l3.2-1.3l7.9-3.2l7.3,17.9
		c0.9,2.1,1.8,3.5,2.9,4.1c1.1,0.6,2.4,0.6,3.9,0c1.2-0.5,2.1-1.1,2.8-2c0.7-0.8,1.2-1.8,1.4-2.9l-6.3-15.5l-3.8,0.6l-2-4.8l3.5-1.4
		l7.9-3.2l9.7,23.8l3.9-0.6l1.9,4.8l-10.5,4.3l-2.1-3.5c-0.4,1.8-1.1,3.3-2.2,4.6C885.1,1214.1,883.7,1215.1,881.9,1215.8z"/>
</g>
<g class="st4">
	<path class="st3" d="M916.5,1200.7c-2.7,1.3-5.1,1.5-7.2,0.7c-2.1-0.8-3.9-2.8-5.4-6l-6.9-14.7l-4,1.9l-2.6-5.4l4-1.9l-3.3-7
		l7.7-3.6l3.3,7l5.3-2.5l2.6,5.4l-5.3,2.5l6.9,14.6c0.5,1.1,1.1,1.8,1.8,2.1s1.4,0.2,2.3-0.2c0.4-0.2,0.9-0.4,1.3-0.7
		c0.5-0.3,0.9-0.6,1.2-0.8l3.3,5.3c-0.7,0.6-1.5,1.2-2.3,1.8C918.3,1199.7,917.4,1200.2,916.5,1200.7z"/>
</g>
<g class="st4">
	<path class="st3" d="M911.5,1159.6l-3.4-6.5l7.9-4.1l3.3,6.5L911.5,1159.6z M925.7,1195.5l-2.4-4.6l3.3-2.7l-9-17.5l-4.5,1.3
		l-2.4-4.6l11.7-6l11.8,22.9l4.1-1.1l2.4,4.6L925.7,1195.5z"/>
</g>
<g class="st4">
	<path class="st3" d="M944.1,1186.2l-2.6-4.4l3.1-2.8l-9.9-17l-4.4,1.5l-2.6-4.5l10.8-6.3l2.6,3.7c0.1-1.9,0.6-3.7,1.5-5.2
		c0.9-1.6,2.2-2.8,3.9-3.8c2.7-1.6,5.4-2,7.9-1.1c2.6,0.8,4.9,3.1,7.1,6.9l6.9,11.9l4-1.3l2.6,4.4l-14.2,8.2l-2.6-4.4l2.7-2.6
		l-6.9-11.9c-1.1-1.8-2.2-2.9-3.4-3.3c-1.2-0.3-2.5-0.1-3.9,0.7c-1.1,0.6-1.9,1.4-2.4,2.3s-0.8,1.9-0.9,3.1l8.4,14.4l3.4-1l2.6,4.4
		L944.1,1186.2z"/>
</g>
<g class="st4">
	<path class="st3" d="M997.3,1168.8c-1.3,0.9-2.9,1.7-4.8,2.5c-1.9,0.8-3.7,1.3-5.4,1.5l-2.1-6c1.5-0.3,2.9-0.7,4.4-1.3
		s2.8-1.2,3.9-2c1.9-1.3,2.9-2.7,3.1-4.4c0.2-1.6-0.4-3.4-1.6-5.3l-1.2-1.7c-0.1,1.5-0.5,2.9-1.2,4.1c-0.7,1.2-1.7,2.3-3.1,3.2
		c-2.1,1.4-4.4,2.1-6.6,2.1c-2.3,0-4.5-0.8-6.6-2.2c-2.1-1.4-4-3.4-5.8-6l-0.3-0.5c-1.9-2.8-3.1-5.5-3.7-8.1c-0.6-2.6-0.5-5,0.2-7.2
		c0.7-2.2,2.2-4,4.3-5.4c1.6-1.1,3.2-1.6,4.7-1.7c1.6-0.1,3.2,0.2,4.8,0.9l-1.7-3.7l6.2-4.1l17.1,25.6c1.6,2.3,2.4,4.7,2.6,7
		c0.2,2.4-0.4,4.6-1.6,6.8C1001.8,1165.1,999.9,1167.1,997.3,1168.8z M987.6,1152.6c1-0.7,1.7-1.5,2.2-2.3c0.5-0.9,0.7-1.9,0.6-2.9
		l-7.7-11.5c-1-0.5-2-0.7-3-0.7c-1,0.1-2,0.4-3,1.1c-1.2,0.8-2,1.8-2.3,3.1c-0.3,1.2-0.2,2.6,0.3,4.1c0.5,1.5,1.3,3.1,2.4,4.7
		l0.3,0.5c1.5,2.3,3.2,3.9,4.8,4.7C984,1154.1,985.7,1153.8,987.6,1152.6z M987.4,1129.3l-6.5-3.1l7.1-4.8l2.9,4.3L987.4,1129.3z"/>
</g>
<circle class="st5" cx="658.2" cy="658.2" r="243"/>
<circle class="st5" cx="658.2" cy="658.2" r="243"/>
<path class="st5" d="M539.2,556.2h227c2.8,0,5,2.2,5,5v56.1c0,2.8-2.2,5-5,5h-227c-2.8,0-5-2.2-5-5v-56.1
	C534.2,558.4,536.5,556.2,539.2,556.2z"/>
<g class="st4">
	<path class="st3" d="M563.6,596.6c-1.9,0-3.4-0.5-4.5-1.5c-1.1-1-1.7-2.4-1.7-4.1c0-1.2,0.3-2.2,1-3.1c0.7-0.9,1.6-1.6,2.9-2.1
		c1.3-0.5,2.8-0.8,4.7-0.8l2.5,0v-1.4c0-0.9-0.3-1.7-0.8-2.2c-0.5-0.6-1.3-0.9-2.4-0.9c-0.6,0-1,0.1-1.5,0.2s-0.8,0.3-1.2,0.6
		l-0.4,2.5l-3.7,0l-0.1-4.9c1-0.6,2.1-1,3.2-1.4c1.2-0.4,2.5-0.5,3.9-0.5c2.5,0,4.4,0.6,5.9,1.7c1.4,1.2,2.2,2.8,2.2,4.9l0,7.8
		c0,0.3,0,0.5,0,0.8s0,0.5,0.1,0.7l2,0.3l0,3.1l-6.4,0c-0.1-0.3-0.3-0.7-0.4-1.1s-0.2-0.8-0.3-1.1c-0.6,0.8-1.3,1.4-2.2,1.9
		C565.7,596.4,564.7,596.6,563.6,596.6z M565,592.8c0.7,0,1.4-0.2,2-0.5c0.6-0.3,1.1-0.7,1.5-1.3l0-3l-2.5,0c-1.1,0-2,0.3-2.6,0.8
		c-0.6,0.5-0.9,1.1-0.9,1.9c0,0.7,0.2,1.2,0.6,1.6S564.2,592.8,565,592.8z"/>
</g>
<g class="st4">
	<path class="st3" d="M577.4,603.5v-3.1l2.5-0.5l0-19.1l-2.7-0.5l0-3.1l7.5,0l0.2,2.2c0.6-0.8,1.2-1.5,2-1.9
		c0.8-0.4,1.7-0.7,2.8-0.7c1.5,0,2.8,0.4,3.9,1.3c1.1,0.8,1.9,2,2.5,3.5c0.6,1.5,0.9,3.3,0.9,5.3v0.4c0,1.9-0.3,3.5-0.9,4.9
		s-1.4,2.5-2.5,3.3c-1.1,0.8-2.4,1.2-4,1.2c-1,0-1.9-0.2-2.7-0.6c-0.8-0.4-1.4-0.9-2-1.6l0,5.5l2.5,0.5v3.1L577.4,603.5z
		 M588.2,592.6c1.3,0,2.3-0.5,2.9-1.5s0.9-2.3,0.9-4v-0.4c0-1.2-0.1-2.3-0.4-3.2c-0.3-0.9-0.7-1.6-1.2-2.1s-1.3-0.8-2.1-0.8
		c-0.7,0-1.3,0.2-1.9,0.5s-1,0.8-1.3,1.4l0,8.3c0.3,0.5,0.7,0.9,1.3,1.2S587.4,592.6,588.2,592.6z"/>
</g>
<g class="st4">
	<path class="st3" d="M598.9,603.5v-3.1l2.5-0.5l0-19.1l-2.7-0.5l0-3.1l7.5,0l0.2,2.2c0.6-0.8,1.2-1.5,2-1.9
		c0.8-0.4,1.7-0.7,2.8-0.7c1.5,0,2.8,0.4,3.9,1.3c1.1,0.8,1.9,2,2.5,3.5c0.6,1.5,0.9,3.3,0.9,5.3v0.4c0,1.9-0.3,3.5-0.9,4.9
		s-1.4,2.5-2.5,3.3c-1.1,0.8-2.4,1.2-4,1.2c-1,0-1.9-0.2-2.7-0.6c-0.8-0.4-1.4-0.9-2-1.6l0,5.5l2.5,0.5v3.1L598.9,603.5z
		 M609.6,592.6c1.3,0,2.3-0.5,2.9-1.5s0.9-2.3,0.9-4v-0.4c0-1.2-0.1-2.3-0.4-3.2c-0.3-0.9-0.7-1.6-1.2-2.1s-1.3-0.8-2.1-0.8
		c-0.7,0-1.3,0.2-1.9,0.5s-1,0.8-1.3,1.4l0,8.3c0.3,0.5,0.7,0.9,1.3,1.2S608.9,592.6,609.6,592.6z"/>
</g>
<g class="st4">
	<path class="st3" d="M620.1,596.2l0-3.1l2.5-0.5l0-20.2l-2.7-0.5l0-3.1l7.9,0l0,23.8l2.5,0.5l0,3.1L620.1,596.2z"/>
	<path class="st3" d="M631.7,596.2l0-3.1l2.5-0.5l0-11.8l-2.7-0.5l0-3.1l7.9,0l0,15.4l2.5,0.5l0,3.1L631.7,596.2z M634,573.2l0-4.4
		l5.3,0l0,4.4L634,573.2z"/>
	<path class="st3" d="M652.5,596.6c-1.8,0-3.4-0.4-4.7-1.2c-1.3-0.8-2.4-2-3.1-3.4c-0.7-1.4-1.1-3.1-1.1-5v-0.5c0-1.9,0.4-3.5,1.1-5
		c0.7-1.4,1.8-2.6,3.1-3.4c1.3-0.8,2.9-1.2,4.7-1.2c1.7,0,3.2,0.3,4.4,0.8c1.2,0.5,2.2,1.2,3,1.9l0,5.4l-3.9,0l-0.7-3.4
		c-0.3-0.3-0.6-0.5-1.1-0.7s-0.9-0.3-1.3-0.3c-0.9,0-1.7,0.2-2.3,0.7s-1.1,1.1-1.4,2c-0.3,0.9-0.5,1.9-0.5,3.1v0.5
		c0,1.3,0.2,2.4,0.5,3.2s0.8,1.5,1.4,1.9s1.2,0.6,1.9,0.6c0.9,0,1.6-0.2,2.2-0.7c0.5-0.5,0.9-1.1,1.1-2l4.4,0l0.1,0.1
		c-0.2,1.3-0.6,2.5-1.2,3.5c-0.6,1-1.4,1.7-2.5,2.3S654.1,596.6,652.5,596.6z"/>
</g>
<g class="st4">
	<path class="st3" d="M668.9,596.6c-1.9,0-3.4-0.5-4.5-1.5s-1.7-2.4-1.7-4.1c0-1.2,0.3-2.2,1-3.1s1.6-1.6,2.9-2.1
		c1.3-0.5,2.8-0.8,4.7-0.8l2.5,0v-1.4c0-0.9-0.3-1.7-0.8-2.2c-0.5-0.6-1.3-0.9-2.4-0.9c-0.6,0-1,0.1-1.5,0.2s-0.8,0.3-1.2,0.6
		l-0.4,2.5l-3.7,0l-0.1-4.9c1-0.6,2.1-1,3.2-1.4c1.2-0.4,2.5-0.5,3.9-0.5c2.5,0,4.4,0.6,5.9,1.7c1.4,1.2,2.2,2.8,2.2,4.9l0,7.8
		c0,0.3,0,0.5,0,0.8s0,0.5,0.1,0.7l2,0.3v3.1l-6.4,0c-0.1-0.3-0.3-0.7-0.4-1.1s-0.2-0.8-0.3-1.1c-0.6,0.8-1.3,1.4-2.2,1.9
		C671,596.3,670,596.6,668.9,596.6z M670.3,592.8c0.7,0,1.4-0.2,2-0.5c0.6-0.3,1.1-0.7,1.5-1.3v-3l-2.5,0c-1.1,0-2,0.3-2.6,0.8
		s-0.9,1.1-0.9,1.9c0,0.7,0.2,1.2,0.6,1.6S669.5,592.8,670.3,592.8z"/>
</g>
<g class="st4">
	<path class="st3" d="M689.7,596.6c-1.8,0-3.1-0.5-4.1-1.5c-1-1-1.4-2.5-1.4-4.6l0-9.7h-2.6l0-3.6h2.6v-4.7l5.1,0v4.7l3.5,0l0,3.6
		l-3.5,0l0,9.7c0,0.7,0.2,1.3,0.5,1.6s0.7,0.5,1.3,0.5c0.3,0,0.6,0,0.9-0.1c0.3,0,0.6-0.1,0.8-0.1l0.4,3.7c-0.5,0.2-1.1,0.3-1.7,0.4
		S690.3,596.6,689.7,596.6z"/>
</g>
<g class="st4">
	<path class="st3" d="M695.4,596.2v-3.1l2.5-0.5l0-11.8l-2.7-0.5l0-3.1l7.9,0l0,15.4l2.5,0.5v3.1L695.4,596.2z M697.7,573.2l0-4.4
		l5.3,0l0,4.4L697.7,573.2z"/>
	<path class="st3" d="M716.2,596.6c-1.9,0-3.5-0.4-4.8-1.2c-1.3-0.8-2.4-2-3.1-3.4c-0.7-1.5-1.1-3.1-1.1-5v-0.4c0-1.9,0.4-3.6,1.1-5
		c0.7-1.5,1.7-2.6,3.1-3.4c1.3-0.8,2.9-1.2,4.8-1.2c1.9,0,3.5,0.4,4.8,1.2c1.3,0.8,2.4,2,3.1,3.4c0.7,1.5,1.1,3.1,1.1,5v0.4
		c0,1.9-0.4,3.6-1.1,5c-0.7,1.5-1.7,2.6-3.1,3.4C719.7,596.2,718.1,596.6,716.2,596.6z M716.2,592.6c0.9,0,1.6-0.2,2.2-0.7
		c0.6-0.5,1-1.2,1.2-2s0.4-1.9,0.4-3v-0.4c0-1.1-0.1-2.1-0.4-3s-0.7-1.5-1.3-2s-1.3-0.7-2.2-0.7c-0.9,0-1.6,0.2-2.2,0.7
		s-1,1.2-1.3,2s-0.4,1.9-0.4,3v0.4c0,1.1,0.1,2.2,0.4,3s0.7,1.5,1.3,2C714.6,592.4,715.3,592.6,716.2,592.6z"/>
	<path class="st3" d="M727.3,596.2v-3.1l2.5-0.5l0-11.8l-2.7-0.5l0-3.1l7.5,0l0.2,2.7c0.6-1,1.4-1.7,2.3-2.3s2-0.8,3.2-0.8
		c1.9,0,3.4,0.6,4.4,1.8c1.1,1.2,1.6,3.1,1.6,5.7l0,8.3l2.5,0.5v3.1l-9.8,0v-3.1l2.2-0.5l0-8.3c0-1.3-0.3-2.2-0.8-2.7
		s-1.3-0.8-2.2-0.8c-0.7,0-1.4,0.2-1.9,0.5s-1,0.8-1.4,1.3l0,10l2.1,0.5v3.1L727.3,596.2z"/>
</g>
<g class="st4">
	<path class="st3" d="M533.9,304.6c-2.5,0-4.6-0.5-6.5-1.6c-1.8-1-3.3-2.5-4.3-4.4c-1-1.9-1.5-4.2-1.5-6.8l0-0.9
		c0-2.5,0.5-4.7,1.4-6.6s2.3-3.4,4.1-4.5c1.8-1.1,3.9-1.6,6.4-1.6c1.7,0,3.4,0.2,4.9,0.7c1.5,0.5,2.9,1.2,4.1,2.2l0,6.2h-3.8
		l-0.5-3.9c-0.4-0.3-0.8-0.5-1.3-0.7c-0.5-0.2-1-0.4-1.5-0.5s-1.1-0.2-1.7-0.2c-1.5,0-2.7,0.4-3.7,1.1c-1,0.7-1.8,1.7-2.4,3
		c-0.6,1.3-0.8,2.9-0.8,4.6l0,0.9c0,1.8,0.3,3.3,0.9,4.7c0.6,1.3,1.4,2.3,2.5,3c1.1,0.7,2.4,1.1,3.8,1.1c0.7,0,1.5-0.1,2.2-0.3
		s1.4-0.4,2-0.7l0.5-3.6h3.8l0,6.1c-1,0.7-2.2,1.2-3.7,1.7C537.3,304.4,535.7,304.6,533.9,304.6z"/>
	<path class="st3" d="M554.1,304.6c-1.9,0-3.5-0.4-4.8-1.2c-1.3-0.8-2.4-2-3.1-3.4c-0.7-1.5-1.1-3.1-1.1-5v-0.4c0-1.9,0.4-3.6,1.1-5
		c0.7-1.5,1.7-2.6,3.1-3.4c1.3-0.8,2.9-1.2,4.8-1.2c1.9,0,3.5,0.4,4.8,1.2c1.3,0.8,2.4,2,3.1,3.4c0.7,1.5,1.1,3.1,1.1,5v0.4
		c0,1.9-0.4,3.6-1.1,5c-0.7,1.5-1.7,2.6-3.1,3.4C557.6,304.2,556,304.6,554.1,304.6z M554.1,300.7c0.9,0,1.6-0.2,2.2-0.7
		c0.6-0.5,1-1.2,1.2-2s0.4-1.9,0.4-3v-0.4c0-1.1-0.1-2.1-0.4-3c-0.3-0.9-0.7-1.5-1.3-2s-1.3-0.7-2.2-0.7c-0.9,0-1.6,0.2-2.2,0.7
		s-1,1.2-1.3,2c-0.3,0.9-0.4,1.9-0.4,3v0.4c0,1.1,0.1,2.2,0.4,3s0.7,1.5,1.3,2C552.5,300.4,553.2,300.7,554.1,300.7z"/>
	<path class="st3" d="M565.1,304.2l0-3.1l2.5-0.5l0-11.8l-2.7-0.5l0-3.1l7.5,0l0.2,2.5c0.6-0.9,1.4-1.6,2.3-2.1
		c0.9-0.5,2-0.7,3.2-0.7c1.2,0,2.3,0.3,3.1,0.8c0.9,0.5,1.5,1.4,2,2.4c0.6-1,1.3-1.8,2.3-2.4c0.9-0.6,2-0.9,3.3-0.9
		c1.9,0,3.4,0.6,4.4,1.9c1.1,1.3,1.6,3.2,1.6,5.8l0,8l2.5,0.5l0,3.1l-9.8,0l0-3.1l2.2-0.5l0-8c0-1.4-0.2-2.4-0.7-2.9s-1.1-0.8-2-0.8
		c-0.8,0-1.5,0.2-2,0.7s-0.9,1-1.2,1.8l0,9.3l2.1,0.5l0,3.1l-9.3,0l0-3.1l2.1-0.5l0-8c0-1.4-0.2-2.3-0.7-2.9s-1.1-0.8-2-0.8
		c-0.7,0-1.4,0.1-1.9,0.4s-1,0.7-1.3,1.3l0,10.1l2.2,0.5l0,3.1L565.1,304.2z"/>
</g>
<g class="st4">
	<path class="st3" d="M598.8,304.2l0-3.1l2.5-0.5l0-11.8l-2.7-0.5l0-3.1l7.5,0l0.2,2.5c0.6-0.9,1.4-1.6,2.3-2.1
		c0.9-0.5,2-0.7,3.2-0.7c1.2,0,2.3,0.3,3.1,0.8c0.9,0.5,1.5,1.4,2,2.4c0.6-1,1.3-1.8,2.3-2.4c0.9-0.6,2-0.9,3.3-0.9
		c1.9,0,3.4,0.6,4.4,1.9s1.6,3.2,1.6,5.8l0,8l2.5,0.5l0,3.1l-9.8,0l0-3.1l2.2-0.5l0-8c0-1.4-0.2-2.4-0.7-2.9s-1.1-0.8-2-0.8
		c-0.8,0-1.5,0.2-2,0.7s-0.9,1-1.2,1.8l0,9.3l2.1,0.5l0,3.1l-9.3,0l0-3.1l2.1-0.5l0-8c0-1.4-0.2-2.3-0.7-2.9s-1.1-0.8-2-0.8
		c-0.7,0-1.4,0.1-1.9,0.4s-1,0.7-1.3,1.3l0,10.1l2.2,0.5l0,3.1L598.8,304.2z"/>
</g>
<g class="st4">
	<path class="st3" d="M640,304.6c-2,0-3.6-0.6-4.7-1.9c-1.1-1.3-1.7-3.2-1.7-5.9l0-7.9l-2.1-0.5l0-3.1h2.1l5.1,0l0,11.6
		c0,1.4,0.2,2.3,0.7,2.9c0.5,0.6,1.2,0.9,2.2,0.9c0.8,0,1.4-0.2,2-0.4s1.1-0.7,1.4-1.3l0-10.1l-2.3-0.5l0-3.1h2.3l5.1,0l0,15.4
		l2.3,0.5l0,3.1l-6.8,0l-0.4-2.4c-0.6,0.9-1.3,1.6-2.2,2.1S641.1,304.6,640,304.6z"/>
	<path class="st3" d="M654.2,304.2l0-3.1l2.5-0.5l0-11.8l-2.7-0.5l0-3.1l7.5,0l0.2,2.7c0.6-1,1.4-1.7,2.3-2.3c0.9-0.5,2-0.8,3.2-0.8
		c1.9,0,3.4,0.6,4.4,1.8c1.1,1.2,1.6,3.1,1.6,5.7l0,8.3l2.5,0.5l0,3.1l-9.8,0l0-3.1l2.2-0.5l0-8.3c0-1.3-0.3-2.2-0.8-2.7
		s-1.3-0.8-2.2-0.8c-0.7,0-1.4,0.2-1.9,0.5s-1,0.8-1.4,1.3l0,10l2.1,0.5l0,3.1L654.2,304.2z"/>
	<path class="st3" d="M677.2,304.2l0-3.1l2.5-0.5l0-11.8l-2.7-0.5l0-3.1l7.9,0l0,15.4l2.5,0.5l0,3.1L677.2,304.2z M679.5,281.2
		l0-4.4l5.3,0l0,4.4L679.5,281.2z"/>
	<path class="st3" d="M697.9,304.6c-1.8,0-3.4-0.4-4.7-1.2c-1.3-0.8-2.4-2-3.1-3.4s-1.1-3.1-1.1-5v-0.5c0-1.9,0.4-3.5,1.1-5
		s1.8-2.6,3.1-3.4c1.3-0.8,2.9-1.2,4.7-1.2c1.7,0,3.2,0.3,4.4,0.8c1.2,0.5,2.2,1.2,3,1.9l0,5.4l-3.9,0l-0.7-3.4
		c-0.3-0.3-0.6-0.5-1.1-0.7s-0.9-0.3-1.3-0.3c-0.9,0-1.7,0.2-2.3,0.7s-1.1,1.1-1.4,2c-0.3,0.9-0.5,1.9-0.5,3.1v0.5
		c0,1.3,0.2,2.4,0.5,3.2s0.8,1.5,1.4,1.9s1.2,0.6,1.9,0.6c0.9,0,1.6-0.2,2.2-0.7s0.9-1.1,1.1-2l4.4,0l0.1,0.1
		c-0.2,1.3-0.6,2.5-1.2,3.5c-0.6,1-1.4,1.7-2.5,2.3S699.5,304.6,697.9,304.6z"/>
</g>
<g class="st4">
	<path class="st3" d="M714.3,304.6c-1.9,0-3.4-0.5-4.5-1.5s-1.7-2.4-1.7-4.1c0-1.2,0.3-2.2,1-3.1s1.6-1.6,2.9-2.1
		c1.3-0.5,2.8-0.8,4.7-0.8l2.5,0v-1.4c0-0.9-0.3-1.7-0.8-2.2c-0.5-0.6-1.3-0.9-2.4-0.9c-0.6,0-1,0.1-1.5,0.2s-0.8,0.3-1.2,0.6
		l-0.4,2.5l-3.7,0l-0.1-4.9c1-0.6,2.1-1,3.2-1.4c1.2-0.4,2.5-0.5,3.9-0.5c2.5,0,4.4,0.6,5.9,1.7c1.4,1.2,2.2,2.8,2.2,4.9l0,7.8
		c0,0.3,0,0.5,0,0.8s0,0.5,0.1,0.7l2,0.3v3.1l-6.4,0c-0.1-0.3-0.3-0.7-0.4-1.1s-0.2-0.8-0.3-1.1c-0.6,0.8-1.3,1.4-2.2,1.9
		C716.4,304.3,715.4,304.6,714.3,304.6z M715.7,300.8c0.7,0,1.4-0.2,2-0.5c0.6-0.3,1.1-0.7,1.5-1.3v-3l-2.5,0c-1.1,0-2,0.3-2.6,0.8
		s-0.9,1.1-0.9,1.9c0,0.7,0.2,1.2,0.6,1.6S714.9,300.8,715.7,300.8z"/>
</g>
<g class="st4">
	<path class="st3" d="M735.1,304.6c-1.8,0-3.1-0.5-4.1-1.5c-1-1-1.4-2.5-1.4-4.6l0-9.7h-2.6l0-3.6h2.6v-4.7l5.1,0v4.7l3.5,0l0,3.6
		l-3.5,0l0,9.7c0,0.7,0.2,1.3,0.5,1.6s0.7,0.5,1.3,0.5c0.3,0,0.6,0,0.9-0.1c0.3,0,0.6-0.1,0.8-0.1l0.4,3.7c-0.5,0.2-1.1,0.3-1.7,0.4
		S735.7,304.6,735.1,304.6z"/>
</g>
<g class="st4">
	<path class="st3" d="M740.8,304.2v-3.1l2.5-0.5l0-11.8l-2.7-0.5l0-3.1l7.9,0l0,15.4l2.5,0.5v3.1L740.8,304.2z M743.1,281.1v-4.4
		l5.3,0v4.4L743.1,281.1z"/>
	<path class="st3" d="M761.7,304.6c-1.9,0-3.5-0.4-4.8-1.2c-1.3-0.8-2.4-2-3.1-3.4s-1.1-3.1-1.1-5v-0.4c0-1.9,0.4-3.6,1.1-5
		s1.7-2.6,3.1-3.4c1.3-0.8,2.9-1.2,4.8-1.2c1.9,0,3.5,0.4,4.8,1.2c1.3,0.8,2.4,2,3.1,3.4s1.1,3.1,1.1,5v0.4c0,1.9-0.4,3.6-1.1,5
		s-1.7,2.6-3.1,3.4C765.1,304.1,763.5,304.6,761.7,304.6z M761.7,300.6c0.9,0,1.6-0.2,2.2-0.7s1-1.2,1.2-2s0.4-1.9,0.4-3v-0.4
		c0-1.1-0.1-2.1-0.4-3s-0.7-1.5-1.3-2s-1.3-0.7-2.2-0.7c-0.9,0-1.6,0.2-2.2,0.7s-1,1.2-1.3,2c-0.3,0.9-0.4,1.9-0.4,3v0.4
		c0,1.1,0.1,2.2,0.4,3s0.7,1.5,1.3,2S760.8,300.6,761.7,300.6z"/>
	<path class="st3" d="M772.7,304.2v-3.1l2.5-0.5l0-11.8l-2.7-0.5l0-3.1l7.5,0l0.2,2.7c0.6-1,1.4-1.7,2.3-2.3s2-0.8,3.2-0.8
		c1.9,0,3.4,0.6,4.4,1.8c1.1,1.2,1.6,3.1,1.6,5.7l0,8.3l2.5,0.5v3.1l-9.8,0v-3.1l2.2-0.5l0-8.3c0-1.3-0.3-2.2-0.8-2.7
		s-1.3-0.8-2.2-0.8c-0.7,0-1.4,0.2-1.9,0.5s-1,0.8-1.4,1.3l0,10l2.1,0.5v3.1L772.7,304.2z"/>
</g>
<g class="st4">
	<path class="st3" d="M926.2,878.6c-1.9,0-3.6-0.2-5.2-0.6c-1.5-0.4-3.1-1.2-4.6-2.2l0-6.2l4,0l0.5,3.6c0.5,0.4,1.3,0.8,2.2,1.1
		s1.9,0.4,3,0.4c0.9,0,1.7-0.1,2.3-0.4s1.1-0.6,1.5-1.1s0.5-1,0.5-1.7c0-0.6-0.2-1.2-0.4-1.6s-0.8-0.9-1.5-1.3s-1.6-0.8-2.8-1.1
		c-2-0.6-3.7-1.3-5-2c-1.3-0.7-2.3-1.6-3-2.5s-1-2.2-1-3.6c0-1.4,0.4-2.6,1.2-3.7s1.8-1.9,3.2-2.5c1.4-0.6,2.9-0.9,4.7-0.9
		c2,0,3.7,0.2,5.2,0.7c1.5,0.5,2.8,1.2,3.9,2.1l0,5.8l-3.8,0l-0.7-3.5c-0.4-0.3-1-0.5-1.8-0.7s-1.6-0.3-2.6-0.3
		c-0.8,0-1.5,0.1-2.2,0.4s-1.1,0.6-1.5,1.1s-0.5,1-0.5,1.7c0,0.6,0.2,1.1,0.5,1.5s0.8,0.8,1.6,1.2s1.8,0.8,3.1,1.2
		c2.8,0.8,5,1.8,6.4,3.1s2.2,3,2.2,5.1c0,1.5-0.4,2.7-1.2,3.8c-0.8,1.1-1.9,1.9-3.3,2.5C929.7,878.3,928.1,878.6,926.2,878.6z"/>
	<path class="st3" d="M946.8,878.6c-1.9,0-3.5-0.4-4.8-1.2c-1.3-0.8-2.4-2-3.1-3.4s-1.1-3.1-1.1-5v-0.4c0-1.9,0.4-3.6,1.1-5
		s1.7-2.6,3.1-3.4c1.3-0.8,2.9-1.2,4.8-1.2c1.9,0,3.5,0.4,4.8,1.2c1.3,0.8,2.4,2,3.1,3.4s1.1,3.1,1.1,5v0.4c0,1.9-0.4,3.6-1.1,5
		s-1.7,2.6-3.1,3.4S948.7,878.6,946.8,878.6z M946.8,874.7c0.9,0,1.6-0.2,2.2-0.7s1-1.2,1.2-2s0.4-1.9,0.4-3v-0.4
		c0-1.1-0.1-2.1-0.4-3c-0.3-0.9-0.7-1.5-1.3-2s-1.3-0.7-2.2-0.7c-0.9,0-1.6,0.2-2.2,0.7s-1,1.2-1.3,2c-0.3,0.9-0.4,1.9-0.4,3v0.4
		c0,1.1,0.1,2.2,0.4,3s0.7,1.5,1.3,2S945.9,874.7,946.8,874.7z"/>
	<path class="st3" d="M958.4,878.2l0-3.1l2.5-0.5l0-11.8l-2.8,0l0-3.6l2.8,0v-2.1c0-2.1,0.6-3.8,1.8-4.9s2.9-1.7,5.1-1.7
		c0.6,0,1.1,0,1.7,0.1s1.1,0.2,1.6,0.3l-0.4,3.8c-0.3-0.1-0.6-0.1-1-0.2s-0.7-0.1-1.1-0.1c-0.9,0-1.6,0.2-2,0.7s-0.7,1.1-0.7,2v2.1
		h4.3l0,3.6H966l0,11.8l3.4,0.5l0,3.1L958.4,878.2z"/>
	<path class="st3" d="M979.6,878.6c-1.8,0-3.1-0.5-4.1-1.5c-1-1-1.4-2.5-1.4-4.6l0-9.7h-2.6l0-3.6h2.6v-4.7l5.1,0v4.7l3.5,0l0,3.6
		l-3.5,0l0,9.7c0,0.7,0.2,1.3,0.5,1.6s0.7,0.5,1.3,0.5c0.3,0,0.6,0,0.9-0.1c0.3,0,0.6-0.1,0.8-0.1l0.4,3.7c-0.5,0.2-1.1,0.3-1.7,0.4
		C980.8,878.5,980.2,878.6,979.6,878.6z"/>
	<path class="st3" d="M991.3,878.2l-4.4-15.5l-2.3-0.4l0-3.1l9.2,0l0,3.1l-2,0.4l1.8,7.4l0.4,1.5h0.1l0.5-1.5l3.9-10.9l3.4,0l3.8,11
		l0.5,1.5h0.1l0.5-1.5l2.1-7.5l-2.2-0.4l0-3.1l9,0l0,3.1l-2.2,0.4l-4.8,15.5l-4.3,0l-3.5-9.4l-0.6-2.1h-0.1l-0.6,2.1l-3.4,9.4
		L991.3,878.2z"/>
	<path class="st3" d="M1023.4,878.6c-1.9,0-3.4-0.5-4.5-1.5c-1.1-1-1.7-2.4-1.7-4.1c0-1.2,0.3-2.2,1-3.1c0.7-0.9,1.6-1.6,2.9-2.1
		c1.3-0.5,2.8-0.8,4.7-0.8l2.5,0v-1.4c0-0.9-0.3-1.7-0.8-2.2s-1.3-0.9-2.4-0.9c-0.6,0-1,0.1-1.5,0.2s-0.8,0.3-1.2,0.6l-0.4,2.5
		l-3.7,0l-0.1-4.9c1-0.6,2.1-1,3.2-1.4c1.2-0.4,2.5-0.5,3.9-0.5c2.5,0,4.4,0.6,5.9,1.7c1.4,1.2,2.2,2.8,2.2,4.9l0,7.8
		c0,0.3,0,0.5,0,0.8s0,0.5,0.1,0.7l2,0.3l0,3.1l-6.4,0c-0.1-0.3-0.3-0.7-0.4-1.1s-0.2-0.8-0.3-1.1c-0.6,0.8-1.3,1.4-2.2,1.9
		C1025.5,878.3,1024.5,878.6,1023.4,878.6z M1024.8,874.8c0.7,0,1.4-0.2,2-0.5c0.6-0.3,1.1-0.7,1.5-1.3l0-3l-2.5,0
		c-1.1,0-2,0.3-2.6,0.8c-0.6,0.5-0.9,1.1-0.9,1.9c0,0.7,0.2,1.2,0.6,1.6S1024,874.8,1024.8,874.8z"/>
</g>
<g class="st4">
	<path class="st3" d="M1037.7,878.2l0-3.1l2.5-0.5l0-11.8l-2.7-0.5l0-3.1l7.5,0l0.2,2.4l0,0.4c0.5-1,1-1.8,1.7-2.3
		c0.7-0.5,1.5-0.8,2.5-0.8c0.3,0,0.6,0,1,0.1s0.7,0.1,1,0.2l-0.5,4.7l-2.5-0.1c-0.7,0-1.3,0.1-1.8,0.4s-0.9,0.7-1.2,1.2l0,9.3
		l2.5,0.5l0,3.1L1037.7,878.2z"/>
</g>
<g class="st4">
	<path class="st3" d="M1061.7,878.6c-1.8,0-3.4-0.4-4.8-1.2c-1.4-0.8-2.4-1.9-3.2-3.3s-1.1-3-1.1-4.8v-0.7c0-1.9,0.4-3.6,1.1-5
		s1.7-2.6,3-3.4c1.3-0.8,2.8-1.3,4.5-1.2c1.7,0,3.2,0.3,4.3,1c1.2,0.7,2.1,1.7,2.7,2.9c0.6,1.3,0.9,2.8,0.9,4.6v2.8l-11.2,0l0,0.1
		c0.1,0.8,0.3,1.6,0.6,2.2s0.8,1.2,1.5,1.5s1.4,0.6,2.3,0.6c0.9,0,1.8-0.1,2.6-0.4s1.6-0.6,2.4-1.1l1.4,3.2c-0.8,0.6-1.8,1.2-3,1.6
		S1063.2,878.6,1061.7,878.6z M1058,866.8l6.3,0v-0.5c0-0.8-0.1-1.4-0.3-2s-0.5-1-1-1.3s-1-0.5-1.7-0.5c-0.7,0-1.3,0.2-1.7,0.5
		s-0.8,0.8-1.1,1.5C1058.2,865.3,1058,866,1058,866.8L1058,866.8z"/>
</g>
<g class="st4">
	<path class="st3" d="M237.3,880.2l0-3.1l2.7-0.5l0-18.4l-2.7-0.5l0-3.1l10.6,0l0,3.1l-2.7,0.5l0,7.4l10.4,0l0-7.4l-2.7-0.5l0-3.1
		l2.7,0l5.1,0h2.7l0,3.1l-2.7,0.5l0,18.4l2.7,0.5l0,3.1l-10.6,0l0-3.1l2.7-0.5l0-7l-10.4,0l0,7l2.7,0.5l0,3.1L237.3,880.2z"/>
	<path class="st3" d="M271.9,880.6c-1.9,0-3.4-0.5-4.5-1.5c-1.1-1-1.7-2.4-1.7-4.1c0-1.2,0.3-2.2,1-3.1c0.7-0.9,1.6-1.6,2.9-2.1
		c1.3-0.5,2.8-0.8,4.7-0.8l2.5,0v-1.4c0-0.9-0.3-1.7-0.8-2.2s-1.3-0.9-2.4-0.9c-0.6,0-1,0.1-1.5,0.2s-0.8,0.3-1.2,0.6l-0.4,2.5
		l-3.7,0l-0.1-4.9c1-0.6,2.1-1,3.2-1.4c1.2-0.4,2.5-0.5,3.9-0.5c2.5,0,4.4,0.6,5.9,1.7c1.4,1.2,2.2,2.8,2.2,4.9l0,7.8
		c0,0.3,0,0.5,0,0.8s0,0.5,0.1,0.7l2,0.3l0,3.1l-6.4,0c-0.1-0.3-0.3-0.7-0.4-1.1s-0.2-0.8-0.3-1.1c-0.6,0.8-1.3,1.4-2.2,1.9
		C274,880.3,273,880.6,271.9,880.6z M273.3,876.8c0.7,0,1.4-0.2,2-0.5c0.6-0.3,1.1-0.7,1.5-1.3l0-3l-2.5,0c-1.1,0-2,0.3-2.6,0.8
		c-0.6,0.5-0.9,1.1-0.9,1.9c0,0.7,0.2,1.2,0.6,1.6S272.5,876.8,273.3,876.8z"/>
</g>
<g class="st4">
	<path class="st3" d="M286.2,880.2l0-3.1l2.5-0.5l0-11.8l-2.7-0.5l0-3.1l7.5,0l0.2,2.4l0,0.4c0.5-1,1-1.8,1.7-2.3
		c0.7-0.5,1.5-0.8,2.5-0.8c0.3,0,0.6,0,1,0.1s0.7,0.1,1,0.2l-0.5,4.7l-2.5-0.1c-0.7,0-1.3,0.1-1.8,0.4s-0.9,0.7-1.2,1.2l0,9.3
		l2.5,0.5l0,3.1L286.2,880.2z"/>
</g>
<g class="st4">
	<path class="st3" d="M308.4,880.6c-1.5,0-2.8-0.4-3.9-1.2c-1.1-0.8-1.9-1.9-2.5-3.3c-0.6-1.4-0.9-3-0.9-4.9v-0.4
		c0-2,0.3-3.8,0.9-5.3s1.4-2.7,2.5-3.5c1.1-0.8,2.4-1.3,3.9-1.3c1,0,2,0.2,2.7,0.6c0.8,0.4,1.5,1,2,1.8l0-6.8l-2.7-0.5l0-3.1l2.7,0
		l5.1,0l0,23.8l2.5,0.5l0,3.1l-6.9,0l-0.4-2.3c-0.6,0.9-1.3,1.5-2.1,2C310.5,880.3,309.5,880.6,308.4,880.6z M309.9,876.6
		c0.7,0,1.3-0.2,1.9-0.5s1-0.7,1.4-1.3l0-8.1c-0.4-0.6-0.8-1.1-1.3-1.4s-1.2-0.5-1.9-0.5c-0.9,0-1.6,0.3-2.1,0.8s-0.9,1.2-1.2,2.1
		c-0.3,0.9-0.4,2-0.4,3.1v0.4c0,1.7,0.3,3,0.8,3.9C307.7,876.1,308.6,876.6,309.9,876.6z"/>
	<path class="st3" d="M328.6,880.2l-4.4-15.5l-2.3-0.4l0-3.1l9.2,0l0,3.1l-2,0.4l1.8,7.4l0.4,1.5h0.1l0.5-1.5l3.9-10.9l3.4,0l3.8,11
		l0.5,1.5h0.1l0.5-1.5l2.1-7.5l-2.2-0.4l0-3.1l9,0l0,3.1l-2.2,0.4l-4.8,15.5l-4.3,0l-3.5-9.4l-0.6-2.1h-0.1l-0.6,2.1l-3.4,9.4H328.6
		z"/>
	<path class="st3" d="M360.7,880.5c-1.9,0-3.4-0.5-4.5-1.5c-1.1-1-1.7-2.4-1.7-4.1c0-1.2,0.3-2.2,1-3.1c0.7-0.9,1.6-1.6,2.9-2.1
		c1.3-0.5,2.8-0.8,4.7-0.8h2.5v-1.4c0-0.9-0.3-1.7-0.8-2.2s-1.3-0.9-2.4-0.9c-0.6,0-1,0.1-1.5,0.2s-0.8,0.3-1.2,0.6l-0.4,2.5l-3.7,0
		l-0.1-4.9c1-0.6,2.1-1,3.2-1.4c1.2-0.4,2.5-0.5,3.9-0.5c2.5,0,4.4,0.6,5.9,1.7c1.4,1.2,2.2,2.8,2.2,4.9l0,7.8c0,0.3,0,0.5,0,0.8
		s0,0.5,0.1,0.7l2,0.3l0,3.1l-6.4,0c-0.1-0.3-0.3-0.7-0.4-1.1s-0.2-0.8-0.3-1.1c-0.6,0.8-1.3,1.4-2.2,1.9S361.9,880.5,360.7,880.5z
		 M362.1,876.8c0.7,0,1.4-0.2,2-0.5s1.1-0.7,1.5-1.3l0-3h-2.5c-1.1,0-2,0.3-2.6,0.8c-0.6,0.5-0.9,1.1-0.9,1.9c0,0.7,0.2,1.2,0.6,1.6
		S361.4,876.8,362.1,876.8z"/>
</g>
<g class="st4">
	<path class="st3" d="M375.1,880.2l0-3.1l2.5-0.5l0-11.8l-2.7-0.5l0-3.1l7.5,0l0.2,2.4l0,0.4c0.5-1,1-1.8,1.7-2.3
		c0.7-0.5,1.5-0.8,2.5-0.8c0.3,0,0.6,0,1,0.1s0.7,0.1,1,0.2l-0.5,4.7l-2.5-0.1c-0.7,0-1.3,0.1-1.8,0.4s-0.9,0.7-1.2,1.2l0,9.3
		l2.5,0.5l0,3.1L375.1,880.2z"/>
</g>
<g class="st4">
	<path class="st3" d="M399,880.5c-1.8,0-3.4-0.4-4.8-1.2c-1.4-0.8-2.4-1.9-3.2-3.3c-0.7-1.4-1.1-3-1.1-4.8v-0.7c0-1.9,0.4-3.6,1.1-5
		c0.7-1.5,1.7-2.6,3-3.4c1.3-0.8,2.8-1.3,4.5-1.2c1.7,0,3.2,0.3,4.3,1c1.2,0.7,2.1,1.7,2.7,2.9c0.6,1.3,0.9,2.8,0.9,4.6l0,2.8
		l-11.2,0l0,0.1c0.1,0.8,0.3,1.6,0.6,2.2s0.8,1.2,1.5,1.5s1.4,0.6,2.3,0.6c0.9,0,1.8-0.1,2.6-0.4s1.6-0.6,2.4-1.1l1.4,3.2
		c-0.8,0.6-1.8,1.2-3,1.6S400.5,880.5,399,880.5z M395.3,868.8l6.3,0v-0.5c0-0.8-0.1-1.4-0.3-2s-0.5-1-1-1.3s-1-0.5-1.7-0.5
		c-0.7,0-1.3,0.2-1.7,0.5s-0.8,0.8-1.1,1.5C395.5,867.2,395.4,867.9,395.3,868.8L395.3,868.8z"/>
</g>
<g>
	<path class="st6" d="M628.7,691.8v15.6l0,0v0.3l0,0c0.5,4.3,11.9,7.7,25.5,7.7s25-3.4,25.5-7.7l0,0v-0.3h0.2c0-0.1,0-0.1,0,0v-15.6
		"/>
	<path class="st6" d="M628.7,708.2v15.6l0,0v0.3l0,0c0.5,4.3,11.9,7.7,25.5,7.7s25-3.4,25.5-7.7l0,0v-0.3h0.2c0-0.1,0-0.1,0,0v-15.6
		"/>
	<path class="st6" d="M628.7,676v15.6l0,0v0.3l0,0c0.5,4.3,11.9,7.7,25.5,7.7s25-3.4,25.5-7.7l0,0v-0.3h0.2c0-0.1,0-0.1,0,0V676"/>
	<ellipse class="st6" cx="654.4" cy="676.2" rx="25.7" ry="8"/>
</g>
<g>
	<polyline class="st7" points="556.5,687.4 573.3,699.7 556.5,712 	"/>
	<polyline class="st7" points="519.9,712 503,699.7 519.9,687.4 	"/>
	<line class="st7" x1="544.9" y1="680.6" x2="531.5" y2="719.4"/>
</g>
<g>
	<path class="st8" d="M751.4,701.7c-2.3,0-4.2-1.9-4.2-4.2s1.9-4.2,4.2-4.2s4.2,1.9,4.2,4.2S753.7,701.7,751.4,701.7z"/>
	<path class="st9" d="M804.3,696.2h-34c-1.7-6.9-7.9-12-15.3-12c-8.7,0-15.8,7.1-15.8,15.8s7.1,15.8,15.8,15.8
		c7.4,0,13.6-5.1,15.3-12h9.9l4.5,4.5l4.5-4.5h0.6l2.9,2.9l2.7-2.7l4.3,4.3l4.9-4.9l3.7-3.3L804.3,696.2L804.3,696.2z"/>
</g>
<g class="st4">
	<path class="st3" d="M517.2,779.8c-1.3,0-2.4-0.3-3.3-0.9c-0.9-0.6-1.7-1.4-2.2-2.4s-0.8-2.2-0.8-3.5v-0.4c0-1.3,0.3-2.5,0.8-3.5
		c0.5-1,1.2-1.8,2.2-2.4s2-0.9,3.3-0.9c1.2,0,2.2,0.2,3.1,0.6c0.9,0.4,1.6,0.8,2.1,1.3l0,3.8l-2.7,0l-0.5-2.4
		c-0.2-0.2-0.4-0.4-0.8-0.5c-0.3-0.1-0.6-0.2-0.9-0.2c-0.7,0-1.2,0.2-1.6,0.5c-0.4,0.3-0.8,0.8-1,1.4c-0.2,0.6-0.3,1.3-0.3,2.2v0.4
		c0,0.9,0.1,1.7,0.4,2.3c0.2,0.6,0.6,1,1,1.3c0.4,0.3,0.8,0.4,1.3,0.4c0.6,0,1.1-0.2,1.5-0.5c0.4-0.3,0.6-0.8,0.8-1.4l3.1,0l0,0.1
		c-0.1,0.9-0.4,1.8-0.8,2.5c-0.4,0.7-1,1.2-1.8,1.6C519.3,779.6,518.4,779.8,517.2,779.8z"/>
</g>
<g class="st4">
	<path class="st3" d="M530.7,779.8c-1.3,0-2.4-0.3-3.4-0.9s-1.7-1.4-2.2-2.4s-0.8-2.2-0.8-3.5v-0.3c0-1.3,0.3-2.5,0.8-3.5
		c0.5-1,1.2-1.8,2.2-2.4s2.1-0.9,3.4-0.9c1.3,0,2.5,0.3,3.4,0.9c0.9,0.6,1.7,1.4,2.2,2.4c0.5,1,0.8,2.2,0.8,3.5v0.3
		c0,1.3-0.3,2.5-0.8,3.5c-0.5,1-1.2,1.8-2.2,2.4C533.1,779.5,532,779.8,530.7,779.8z M530.7,777c0.6,0,1.1-0.2,1.5-0.5
		c0.4-0.3,0.7-0.8,0.9-1.4c0.2-0.6,0.3-1.3,0.3-2.1v-0.3c0-0.8-0.1-1.5-0.3-2.1c-0.2-0.6-0.5-1.1-0.9-1.4c-0.4-0.3-0.9-0.5-1.5-0.5
		c-0.6,0-1.1,0.2-1.5,0.5c-0.4,0.3-0.7,0.8-0.9,1.4c-0.2,0.6-0.3,1.3-0.3,2.1v0.3c0,0.8,0.1,1.5,0.3,2.1s0.5,1.1,0.9,1.4
		C529.5,776.8,530,777,530.7,777z"/>
</g>
<g class="st4">
	<path class="st3" d="M543.8,779.8c-1.1,0-2-0.3-2.7-0.8c-0.8-0.5-1.3-1.3-1.7-2.3c-0.4-1-0.6-2.1-0.6-3.5v-0.3
		c0-1.4,0.2-2.6,0.6-3.7c0.4-1.1,1-1.9,1.7-2.5c0.8-0.6,1.7-0.9,2.7-0.9c0.7,0,1.4,0.1,1.9,0.4c0.6,0.3,1,0.7,1.4,1.2l0-4.8
		l-1.9-0.4l0-2.2h1.9l3.6,0l0,16.7l1.7,0.4l0,2.2l-4.9,0l-0.3-1.6c-0.4,0.6-0.9,1.1-1.5,1.4C545.3,779.6,544.6,779.8,543.8,779.8z
		 M544.9,777c0.5,0,0.9-0.1,1.3-0.3c0.4-0.2,0.7-0.5,1-0.9l0-5.7c-0.2-0.4-0.6-0.8-0.9-1s-0.8-0.4-1.3-0.4c-0.6,0-1.1,0.2-1.5,0.5
		c-0.4,0.4-0.7,0.9-0.8,1.5c-0.2,0.6-0.3,1.4-0.3,2.2v0.3c0,1.2,0.2,2.1,0.6,2.8S544,777,544.9,777z"/>
	<path class="st3" d="M560,779.8c-1.3,0-2.4-0.3-3.3-0.8s-1.7-1.3-2.2-2.3c-0.5-1-0.8-2.1-0.8-3.4v-0.5c0-1.3,0.2-2.5,0.7-3.5
		c0.5-1,1.2-1.8,2.1-2.4c0.9-0.6,2-0.9,3.2-0.9c1.2,0,2.2,0.2,3,0.7c0.8,0.5,1.4,1.2,1.9,2.1c0.4,0.9,0.6,2,0.6,3.3l0,2l-7.9,0
		l0,0.1c0,0.6,0.2,1.1,0.4,1.6c0.2,0.5,0.6,0.8,1,1.1c0.4,0.3,1,0.4,1.6,0.4c0.7,0,1.3-0.1,1.8-0.3c0.6-0.2,1.1-0.4,1.7-0.7l1,2.2
		c-0.6,0.4-1.2,0.8-2.1,1.1C562.1,779.6,561.1,779.8,560,779.8z M557.5,771.5l4.5,0v-0.3c0-0.5-0.1-1-0.2-1.4s-0.4-0.7-0.7-0.9
		s-0.7-0.3-1.2-0.3c-0.5,0-0.9,0.1-1.2,0.4c-0.3,0.3-0.6,0.6-0.8,1C557.6,770.4,557.5,770.9,557.5,771.5L557.5,771.5z"/>
</g>
<g class="st4">
	<path class="st3" d="M634.3,779.8c-1.1,0-2-0.3-2.7-0.8s-1.3-1.3-1.7-2.3s-0.6-2.1-0.6-3.5v-0.3c0-1.4,0.2-2.6,0.6-3.7
		c0.4-1.1,1-1.9,1.7-2.5c0.8-0.6,1.7-0.9,2.7-0.9c0.7,0,1.4,0.1,1.9,0.4c0.6,0.3,1,0.7,1.4,1.2l0-4.8l-1.9-0.4v-2.2h1.9l3.6,0
		l0,16.7l1.7,0.4l0,2.2l-4.9,0l-0.3-1.6c-0.4,0.6-0.9,1.1-1.5,1.4C635.7,779.6,635.1,779.8,634.3,779.8z M635.3,777
		c0.5,0,0.9-0.1,1.3-0.3c0.4-0.2,0.7-0.5,1-0.9l0-5.7c-0.2-0.4-0.6-0.8-0.9-1s-0.8-0.4-1.3-0.4c-0.6,0-1.1,0.2-1.5,0.5
		c-0.4,0.4-0.7,0.9-0.8,1.5s-0.3,1.4-0.3,2.2v0.3c0,1.2,0.2,2.1,0.6,2.8C633.8,776.6,634.4,777,635.3,777z"/>
</g>
<g class="st4">
	<path class="st3" d="M648.6,779.8c-1.3,0-2.4-0.4-3.2-1.1s-1.2-1.7-1.2-2.9c0-0.8,0.2-1.6,0.7-2.2c0.5-0.6,1.1-1.1,2-1.5
		c0.9-0.4,2-0.5,3.3-0.5h1.8v-1c0-0.6-0.2-1.2-0.6-1.6c-0.4-0.4-0.9-0.6-1.7-0.6c-0.4,0-0.7,0-1,0.1s-0.6,0.2-0.8,0.4l-0.3,1.8H645
		l0-3.5c0.7-0.4,1.5-0.7,2.3-1s1.7-0.4,2.7-0.4c1.7,0,3.1,0.4,4.1,1.2c1,0.8,1.5,2,1.5,3.5l0,5.5c0,0.2,0,0.4,0,0.5
		c0,0.2,0,0.3,0,0.5l1.4,0.2l0,2.2l-4.5,0c-0.1-0.2-0.2-0.5-0.3-0.7c-0.1-0.3-0.2-0.5-0.2-0.8c-0.4,0.5-0.9,1-1.5,1.3
		S649.3,779.8,648.6,779.8z M649.5,777.1c0.5,0,1-0.1,1.4-0.3c0.5-0.2,0.8-0.5,1-0.9l0-2.1h-1.8c-0.8,0-1.4,0.2-1.8,0.5
		c-0.4,0.4-0.6,0.8-0.6,1.3c0,0.5,0.2,0.8,0.5,1.1S649,777.1,649.5,777.1z"/>
</g>
<g class="st4">
	<path class="st3" d="M663.1,779.8c-1.2,0-2.2-0.3-2.9-1c-0.7-0.7-1-1.8-1-3.2l0-6.8h-1.8l0-2.5h1.8l0-3.3l3.6,0l0,3.3h2.5l0,2.5
		h-2.5l0,6.8c0,0.5,0.1,0.9,0.3,1.1c0.2,0.2,0.5,0.3,0.9,0.3c0.2,0,0.4,0,0.6,0c0.2,0,0.4-0.1,0.6-0.1l0.3,2.6
		c-0.4,0.1-0.8,0.2-1.2,0.3C664,779.7,663.6,779.8,663.1,779.8z"/>
	<path class="st3" d="M671.4,779.8c-1.3,0-2.4-0.4-3.2-1.1c-0.8-0.7-1.2-1.7-1.2-2.9c0-0.8,0.2-1.6,0.7-2.2c0.5-0.6,1.1-1.1,2-1.5
		c0.9-0.4,2-0.5,3.3-0.5l1.8,0v-1c0-0.6-0.2-1.2-0.6-1.6c-0.4-0.4-0.9-0.6-1.7-0.6c-0.4,0-0.7,0-1,0.1c-0.3,0.1-0.6,0.2-0.8,0.4
		l-0.3,1.8l-2.6,0l0-3.5c0.7-0.4,1.5-0.7,2.3-1s1.7-0.4,2.7-0.4c1.7,0,3.1,0.4,4.1,1.2c1,0.8,1.5,2,1.5,3.5l0,5.5c0,0.2,0,0.4,0,0.5
		c0,0.2,0,0.3,0,0.5l1.4,0.2l0,2.2l-4.5,0c-0.1-0.2-0.2-0.5-0.3-0.7c-0.1-0.3-0.2-0.5-0.2-0.8c-0.4,0.5-0.9,1-1.5,1.3
		C672.9,779.6,672.2,779.8,671.4,779.8z M672.4,777.1c0.5,0,1-0.1,1.4-0.3c0.5-0.2,0.8-0.5,1-0.9l0-2.1l-1.8,0
		c-0.8,0-1.4,0.2-1.8,0.5c-0.4,0.4-0.6,0.8-0.6,1.3c0,0.5,0.2,0.8,0.5,1.1C671.4,777,671.9,777.1,672.4,777.1z"/>
</g>
<g class="st4">
	<path class="st3" d="M737.7,779.8c-1,0-1.9-0.1-2.8-0.3c-0.9-0.2-1.7-0.5-2.5-0.8l0-3.8h2.5l0.5,1.9c0.3,0.1,0.6,0.3,0.9,0.3
		c0.3,0.1,0.7,0.1,1.1,0.1c0.8,0,1.4-0.1,1.7-0.4c0.3-0.3,0.5-0.6,0.5-1c0-0.4-0.2-0.7-0.5-1c-0.3-0.3-1-0.5-2.1-0.7
		c-1.6-0.3-2.7-0.8-3.5-1.5c-0.8-0.7-1.1-1.6-1.1-2.7c0-0.7,0.2-1.4,0.6-2s0.9-1.1,1.7-1.5c0.8-0.4,1.8-0.6,3-0.6
		c1,0,1.9,0.1,2.8,0.3s1.5,0.4,2.1,0.8l0,3.7l-2.5,0l-0.4-1.8c-0.2-0.2-0.5-0.3-0.8-0.4c-0.3-0.1-0.6-0.1-1-0.1
		c-0.6,0-1.1,0.1-1.5,0.4c-0.3,0.3-0.5,0.6-0.5,1c0,0.2,0.1,0.4,0.2,0.6c0.1,0.2,0.4,0.4,0.7,0.6c0.4,0.2,0.9,0.3,1.5,0.5
		c1.7,0.4,2.9,0.9,3.6,1.5c0.8,0.6,1.1,1.5,1.1,2.6c0,1.2-0.5,2.2-1.4,3C740.8,779.4,739.4,779.8,737.7,779.8z"/>
	<path class="st3" d="M751.1,779.8c-1.3,0-2.4-0.3-3.3-0.8c-1-0.6-1.7-1.3-2.2-2.3c-0.5-1-0.8-2.1-0.8-3.4v-0.5
		c0-1.3,0.2-2.5,0.7-3.5c0.5-1,1.2-1.8,2.1-2.4c0.9-0.6,2-0.9,3.2-0.9c1.2,0,2.2,0.2,3,0.7c0.8,0.5,1.4,1.2,1.9,2.1
		c0.4,0.9,0.6,2,0.6,3.3v2l-7.8,0l0,0.1c0,0.6,0.2,1.1,0.4,1.6c0.2,0.5,0.6,0.8,1,1.1c0.4,0.3,1,0.4,1.6,0.4c0.7,0,1.3-0.1,1.8-0.3
		c0.6-0.2,1.1-0.4,1.7-0.7l1,2.2c-0.6,0.4-1.2,0.8-2.1,1.1C753.1,779.6,752.2,779.8,751.1,779.8z M748.5,771.5h4.5v-0.3
		c0-0.5-0.1-1-0.2-1.4s-0.4-0.7-0.7-0.9c-0.3-0.2-0.7-0.3-1.2-0.3c-0.5,0-0.9,0.1-1.2,0.4c-0.3,0.3-0.6,0.6-0.8,1
		S748.5,770.9,748.5,771.5L748.5,771.5z"/>
	<path class="st3" d="M764.3,779.8c-1.3,0-2.4-0.3-3.3-0.9c-0.9-0.6-1.7-1.4-2.2-2.4c-0.5-1-0.8-2.2-0.8-3.5v-0.4
		c0-1.3,0.3-2.5,0.8-3.5c0.5-1,1.2-1.8,2.2-2.4c0.9-0.6,2-0.9,3.3-0.9c1.2,0,2.2,0.2,3.1,0.6c0.9,0.4,1.6,0.8,2.1,1.3l0,3.8h-2.7
		l-0.5-2.4c-0.2-0.2-0.4-0.4-0.8-0.5c-0.3-0.1-0.6-0.2-0.9-0.2c-0.7,0-1.2,0.2-1.6,0.5s-0.8,0.8-1,1.4c-0.2,0.6-0.3,1.3-0.3,2.2v0.4
		c0,0.9,0.1,1.7,0.4,2.3c0.2,0.6,0.6,1,1,1.3c0.4,0.3,0.8,0.4,1.3,0.4c0.6,0,1.1-0.2,1.5-0.5c0.4-0.3,0.6-0.8,0.8-1.4h3.1l0,0.1
		c-0.1,0.9-0.4,1.8-0.8,2.5c-0.4,0.7-1,1.2-1.8,1.6C766.4,779.6,765.4,779.8,764.3,779.8z"/>
</g>
<g class="st4">
	<path class="st3" d="M771.6,779.5v-2.2l1.7-0.4l0-8.3l-1.9-0.4l0-2.2l5.3,0l0.1,1.7l0,0.3c0.3-0.7,0.7-1.3,1.2-1.6
		c0.5-0.4,1.1-0.6,1.7-0.6c0.2,0,0.4,0,0.7,0.1c0.3,0,0.5,0.1,0.7,0.1l-0.4,3.3l-1.8-0.1c-0.5,0-0.9,0.1-1.2,0.3
		c-0.3,0.2-0.6,0.5-0.8,0.9l0,6.5l1.7,0.4v2.2L771.6,779.5z"/>
</g>
<g class="st4">
	<path class="st3" d="M788.4,779.8c-1.3,0-2.4-0.3-3.3-0.8c-1-0.6-1.7-1.3-2.2-2.3c-0.5-1-0.8-2.1-0.8-3.4v-0.5
		c0-1.3,0.2-2.5,0.7-3.5c0.5-1,1.2-1.8,2.1-2.4c0.9-0.6,2-0.9,3.2-0.9c1.2,0,2.2,0.2,3,0.7c0.8,0.5,1.4,1.2,1.9,2.1
		c0.4,0.9,0.6,2,0.6,3.3v2l-7.9,0l0,0.1c0,0.6,0.2,1.1,0.4,1.6c0.2,0.5,0.6,0.8,1,1.1c0.4,0.3,1,0.4,1.6,0.4c0.7,0,1.3-0.1,1.8-0.3
		s1.1-0.4,1.7-0.7l1,2.2c-0.6,0.4-1.2,0.8-2.1,1.1S789.5,779.8,788.4,779.8z M785.9,771.5l4.5,0v-0.3c0-0.5-0.1-1-0.2-1.4
		c-0.1-0.4-0.4-0.7-0.7-0.9c-0.3-0.2-0.7-0.3-1.2-0.3c-0.5,0-0.9,0.1-1.2,0.4c-0.3,0.3-0.6,0.6-0.8,1
		C786,770.4,785.9,770.9,785.9,771.5L785.9,771.5z"/>
	<path class="st3" d="M800.6,779.8c-1.2,0-2.2-0.3-2.9-1c-0.7-0.7-1-1.8-1-3.2l0-6.8h-1.8v-2.5h1.8v-3.3l3.6,0v3.3h2.5v2.5h-2.5
		l0,6.8c0,0.5,0.1,0.9,0.3,1.1c0.2,0.2,0.5,0.3,0.9,0.3c0.2,0,0.4,0,0.6,0c0.2,0,0.4-0.1,0.6-0.1l0.3,2.6c-0.4,0.1-0.8,0.2-1.2,0.3
		C801.4,779.7,801,779.8,800.6,779.8z"/>
	<path class="st3" d="M810.2,779.8c-1,0-1.9-0.1-2.8-0.3c-0.9-0.2-1.7-0.5-2.5-0.8l0-3.8h2.5l0.5,1.9c0.3,0.1,0.6,0.3,0.9,0.3
		c0.3,0.1,0.7,0.1,1.1,0.1c0.8,0,1.4-0.1,1.7-0.4c0.3-0.3,0.5-0.6,0.5-1c0-0.4-0.2-0.7-0.5-1c-0.3-0.3-1-0.5-2.1-0.7
		c-1.6-0.3-2.7-0.8-3.5-1.5c-0.7-0.7-1.1-1.6-1.1-2.7c0-0.7,0.2-1.4,0.6-2c0.4-0.6,0.9-1.1,1.7-1.5s1.8-0.6,3-0.6
		c1,0,1.9,0.1,2.8,0.3c0.8,0.2,1.5,0.4,2.1,0.8l0,3.7l-2.5,0l-0.4-1.8c-0.2-0.2-0.5-0.3-0.8-0.4c-0.3-0.1-0.6-0.1-1-0.1
		c-0.6,0-1.1,0.1-1.5,0.4c-0.3,0.3-0.5,0.6-0.5,1c0,0.2,0.1,0.4,0.2,0.6c0.1,0.2,0.4,0.4,0.7,0.6c0.4,0.2,0.9,0.3,1.5,0.5
		c1.7,0.4,2.9,0.9,3.6,1.5c0.8,0.6,1.1,1.5,1.1,2.6c0,1.2-0.5,2.2-1.4,3C813.3,779.4,811.9,779.8,810.2,779.8z"/>
</g>
<g class="st4">
	<path class="st3" d="M275.9,474.7c-2.5,0-4.6-0.5-6.5-1.6c-1.8-1-3.3-2.5-4.3-4.4c-1-1.9-1.5-4.2-1.5-6.8l0-0.9
		c0-2.5,0.5-4.7,1.4-6.6s2.3-3.4,4.1-4.5c1.8-1.1,3.9-1.6,6.4-1.6c1.7,0,3.4,0.2,4.9,0.7c1.5,0.5,2.9,1.2,4.1,2.2l0,6.2h-3.8
		l-0.5-3.9c-0.4-0.3-0.8-0.5-1.3-0.7c-0.5-0.2-1-0.4-1.5-0.5s-1.1-0.2-1.7-0.2c-1.5,0-2.7,0.4-3.7,1.1c-1,0.7-1.8,1.7-2.4,3
		c-0.6,1.3-0.8,2.9-0.8,4.6l0,0.9c0,1.8,0.3,3.3,0.9,4.7c0.6,1.3,1.4,2.3,2.5,3c1.1,0.7,2.4,1.1,3.8,1.1c0.7,0,1.5-0.1,2.2-0.3
		s1.4-0.4,2-0.7l0.5-3.6h3.8l0,6.1c-1,0.7-2.2,1.2-3.7,1.7C279.4,474.5,277.7,474.7,275.9,474.7z"/>
	<path class="st3" d="M298.7,474.7c-1.7,0-3.3-0.3-4.7-1s-2.6-1.5-3.7-2.7c-1-1.2-1.8-2.5-2.4-4.1c-0.6-1.6-0.8-3.3-0.8-5.2v-0.4
		c0-1.9,0.3-3.6,0.8-5.2c0.6-1.6,1.3-3,2.4-4.1c1-1.2,2.2-2.1,3.7-2.7s3-1,4.7-1c1.7,0,3.3,0.3,4.7,1s2.7,1.6,3.7,2.7
		c1,1.2,1.8,2.5,2.4,4.1c0.6,1.6,0.8,3.3,0.8,5.2v0.4c0,1.9-0.3,3.6-0.8,5.2c-0.6,1.6-1.4,2.9-2.4,4.1c-1,1.2-2.3,2.1-3.7,2.7
		S300.4,474.7,298.7,474.7z M298.7,470.8c1.5,0,2.7-0.4,3.6-1.1c1-0.8,1.7-1.8,2.2-3.1c0.5-1.3,0.7-2.9,0.7-4.7v-0.4
		c0-1.8-0.2-3.3-0.7-4.7c-0.5-1.3-1.2-2.4-2.2-3.1c-1-0.7-2.2-1.1-3.6-1.1c-1.4,0-2.6,0.4-3.6,1.1c-0.9,0.7-1.7,1.8-2.1,3.1
		c-0.5,1.3-0.7,2.9-0.7,4.7v0.4c0,1.8,0.2,3.4,0.7,4.7c0.5,1.3,1.2,2.4,2.1,3.1C296,470.4,297.2,470.8,298.7,470.8z"/>
	<path class="st3" d="M312.4,474.4l0-3.1l2.7-0.5l0-18.4l-2.7-0.5l0-3.1l2.7,0l5.2,0l11.1,17.8l0.1,0l0-14.1l-3.3-0.5l0-3.1l7.9,0
		h2.7l0,3.1l-2.7,0.5l0,22l-5,0l-11.4-17.6l-0.1,0l0,14l3.3,0.5l0,3.1L312.4,474.4z"/>
	<path class="st3" d="M340.5,474.4l0-3.1l2.7-0.5l0-18.4l-2.7-0.5l0-3.1l20.4,0l0,7l-3.9,0l-0.2-3.1l-8.3,0l0,7l9,0l0,4l-9,0l0,7
		l2.7,0.5l0,3.1L340.5,474.4z"/>
	<path class="st3" d="M362.8,474.4l0-3.1l2.7-0.5l0-18.4l-2.7-0.5l0-3.1l10.6,0l0,3.1l-2.7,0.5l0,18.4l2.7,0.5l0,3.1L362.8,474.4z"
		/>
	<path class="st3" d="M375.3,474.4l0-3.1l2.8-0.6l0-18.2l-2.8-0.6l0-3.1h2.8l8.5,0c2.3,0,4.3,0.5,6,1.6c1.7,1.1,3.1,2.6,4.1,4.4
		c1,1.9,1.5,4.1,1.5,6.5v0.5c0,2.4-0.5,4.6-1.4,6.5c-1,1.9-2.3,3.4-4.1,4.5c-1.7,1.1-3.7,1.6-6,1.6L375.3,474.4z M383.2,470.4l3.1,0
		c1.4,0,2.6-0.4,3.6-1.1c1-0.7,1.7-1.8,2.3-3.1c0.5-1.3,0.8-2.8,0.8-4.4v-0.5c0-1.7-0.3-3.2-0.8-4.5c-0.5-1.3-1.3-2.3-2.3-3
		s-2.2-1.1-3.6-1.1l-3.1,0L383.2,470.4z"/>
	<path class="st3" d="M400.4,474.4l0-3.1l2.7-0.5l0-18.4l-2.7-0.5l0-3.1l19.9,0l0,6.9l-3.9,0l-0.2-3l-7.8,0l0,6.4l8.7,0l0,4l-8.7,0
		l0,7.3l8.3,0l0.2-3.1l3.9,0l0,7L400.4,474.4z"/>
	<path class="st3" d="M423.4,474.4l0-3.1l2.7-0.5l0-18.4l-2.7-0.5l0-3.1l2.7,0l5.2,0l11.1,17.8l0.1,0l0-14.1l-3.3-0.5l0-3.1l7.9,0
		l2.7,0l0,3.1l-2.7,0.5l0,22h-5l-11.4-17.6l-0.1,0l0,14l3.3,0.5l0,3.1L423.4,474.4z"/>
	<path class="st3" d="M452.9,465.4l0-4l9.9,0l0,4L452.9,465.4z"/>
</g>
<g class="st4">
	<path class="st3" d="M297.4,517.6l0-3.1l2.7-0.5l0-18l-4.7,0l-0.3,3.1h-3.9l0-7l22.8,0l0,7l-3.9,0l-0.3-3.1l-4.7,0l0,18l2.8,0.5
		l0,3.1L297.4,517.6z"/>
</g>
<g class="st4">
	<path class="st3" d="M315.9,517.6l0-3.1l2.7-0.5l0-18.4l-2.7-0.5l0-3.1l10.6,0l0,3.1l-2.7,0.5l0,18.4l2.7,0.5l0,3.1L315.9,517.6z"
		/>
</g>
<g class="st4">
	<path class="st3" d="M326.5,517.6l0-3.1l1.8-0.3l8.1-22.3l5.3,0l8.1,22.3l1.8,0.3l0,3.1l-8.7,0l0-3.1l1.8-0.3l-1.1-3.5l-9,0
		l-1.1,3.5l1.8,0.3l0,3.1L326.5,517.6z M335.8,506.9l6.6,0l-3-8.8l-0.2-0.8H339l-0.3,0.8L335.8,506.9z"/>
	<path class="st3" d="M353.3,517.6l0-3.1l2.7-0.5l0-18.4l-2.7-0.5l0-3.1l2.7,0l5.1,0h3.1l0,3.1l-3.1,0.5l0,18l7.2,0l0.2-3.7l3.9,0
		l0,7.7L353.3,517.6z"/>
	<path class="st3" d="M374.4,517.6l0-3.1l2.7-0.5l0-18.4l-2.7-0.5l0-3.1l10.6,0l0,3.1l-2.7,0.5l0,18.4l2.7,0.5l0,3.1L374.4,517.6z"
		/>
</g>
<g class="st4">
	<path class="st3" d="M392.9,517.6l0-3.1l2.7-0.5l0-18l-4.7,0l-0.3,3.1h-3.9l0-7l22.8,0l0,7l-3.9,0l-0.3-3.1l-4.7,0l0,18l2.8,0.5
		l0,3.1L392.9,517.6z"/>
</g>
<g class="st4">
	<path class="st3" d="M418.6,517.6l0-3.1l2.7-0.5l0-5.2l-7.6-13.4l-2.5-0.4l0-3.1l10.2,0l0,3.1l-2.1,0.3l4.3,8.2l0.4,0.8l0.1,0
		l0.4-0.8l4.7-8.2l-2.8-0.3l0-3.1l10,0l0,3.1l-2.5,0.4l-7.5,13l0,5.6l2.7,0.5l0,3.1L418.6,517.6z"/>
</g>
<g class="st4">
	<path class="st3" d="M864.4,474.4v-3.1l2.7-0.5l0-18.4l-2.7-0.5v-3.1l10.6,0v3.1l-2.7,0.5l0,18.4l2.7,0.5v3.1L864.4,474.4z"/>
	<path class="st3" d="M877,474.4v-3.1l2.7-0.5l0-18.4l-2.7-0.5v-3.1h2.7l5.2,0l11.1,17.8l0.1,0l0-14.1l-3.3-0.5v-3.1l7.9,0l2.7,0
		v3.1l-2.7,0.5l0,22l-5,0l-11.4-17.6l-0.1,0l0,14l3.3,0.5v3.1L877,474.4z"/>
	<path class="st3" d="M911.1,474.4v-3.1l2.7-0.5l0-18l-4.7,0l-0.3,3.1l-3.9,0l0-7l22.8,0l0,7l-3.9,0l-0.3-3.1l-4.7,0l0,18l2.8,0.5
		v3.1L911.1,474.4z"/>
	<path class="st3" d="M929.6,474.4v-3.1l2.7-0.5l0-18.4l-2.7-0.5v-3.1l19.9,0l0,6.9l-3.9,0l-0.2-3l-7.8,0l0,6.4l8.7,0v4l-8.7,0
		l0,7.3l8.3,0l0.2-3.1l3.9,0v7L929.6,474.4z"/>
	<path class="st3" d="M964.5,474.7c-2.5,0-4.7-0.5-6.5-1.6c-1.8-1.1-3.2-2.5-4.1-4.4c-1-1.9-1.4-4-1.4-6.5v-0.9
		c0-2.6,0.5-4.8,1.4-6.8s2.3-3.5,4-4.6c1.7-1.1,3.8-1.6,6.2-1.6c1.8,0,3.6,0.3,5.2,0.8c1.6,0.5,3,1.3,4.2,2.3l0,5.7h-3.8l-0.7-3.4
		c-0.5-0.4-1.1-0.7-1.8-1c-0.8-0.2-1.7-0.4-2.7-0.4c-1.4,0-2.7,0.4-3.7,1.1s-1.8,1.8-2.4,3.1c-0.6,1.3-0.8,2.9-0.8,4.7v0.9
		c0,1.7,0.3,3.2,0.8,4.5c0.5,1.3,1.3,2.3,2.4,3s2.3,1.1,3.9,1.1c0.9,0,1.7-0.1,2.5-0.3s1.4-0.4,1.9-0.6l0-4.3l-3.7-0.3l0-3.6l8.8,0
		l0,10.4c-1.1,0.8-2.5,1.5-4.1,2C968.4,474.5,966.6,474.7,964.5,474.7z"/>
	<path class="st3" d="M976.7,474.4v-3.1l2.7-0.5l0-18.4l-2.7-0.5v-3.1l12.1,0c2,0,3.7,0.3,5.1,0.9s2.5,1.5,3.2,2.6
		c0.8,1.1,1.1,2.5,1.1,4.1c0,1.5-0.4,2.8-1.1,4c-0.8,1.2-1.8,2.1-3.1,2.8s-2.9,1-4.6,1l-4.8,0l0,6.5l2.7,0.5v3.1L976.7,474.4z
		 M984.6,460.3l4.2,0c1.5,0,2.6-0.3,3.3-0.9c0.7-0.6,1.1-1.5,1.1-2.7c0-1.2-0.4-2.1-1.1-2.8c-0.7-0.7-1.8-1.1-3.2-1.1l-4.3,0
		L984.6,460.3z M993.2,474.4l-4.3-11.1l4.6-1.1l3.7,8.6l2.2,0.5v3.1L993.2,474.4z"/>
	<path class="st3" d="M1001.5,474.4v-3.1l2.7-0.5l0-18.4l-2.7-0.5v-3.1l10.6,0v3.1l-2.7,0.5l0,18.4l2.7,0.5v3.1L1001.5,474.4z"/>
</g>
<g class="st4">
	<path class="st3" d="M1019.9,474.4l0-3.1l2.7-0.5l0-18l-4.7,0l-0.3,3.1h-3.9l0-7l22.8,0l0,7l-3.9,0l-0.3-3.1l-4.7,0l0,18l2.8,0.5
		l0,3.1L1019.9,474.4z"/>
</g>
<g class="st4">
	<path class="st3" d="M1045.7,474.3v-3.1l2.7-0.5l0-5.2l-7.6-13.4l-2.5-0.4v-3.1l10.2,0v3.1l-2.1,0.3l4.3,8.2l0.4,0.8l0.1,0l0.4-0.8
		l4.7-8.2l-2.8-0.3v-3.1l10,0v3.1l-2.5,0.4l-7.5,13l0,5.6l2.7,0.5v3.1L1045.7,474.3z"/>
</g>
<g class="st4">
	<path class="st3" d="M546.7,971.7c-2.5,0-4.6-0.5-6.5-1.6c-1.8-1-3.3-2.5-4.3-4.4c-1-1.9-1.5-4.2-1.5-6.8l0-0.9
		c0-2.5,0.5-4.7,1.4-6.6s2.3-3.4,4.1-4.5c1.8-1.1,3.9-1.6,6.4-1.6c1.7,0,3.4,0.2,4.9,0.7c1.5,0.5,2.9,1.2,4.1,2.2l0,6.2h-3.8
		l-0.5-3.9c-0.4-0.3-0.8-0.5-1.3-0.7c-0.5-0.2-1-0.4-1.5-0.5s-1.1-0.2-1.7-0.2c-1.5,0-2.7,0.4-3.7,1.1c-1,0.7-1.8,1.7-2.4,3
		c-0.6,1.3-0.8,2.9-0.8,4.6l0,0.9c0,1.8,0.3,3.3,0.9,4.7c0.6,1.3,1.4,2.3,2.5,3c1.1,0.7,2.4,1.1,3.8,1.1c0.7,0,1.5-0.1,2.2-0.3
		s1.4-0.4,2-0.7l0.5-3.6h3.8l0,6.1c-1,0.7-2.2,1.2-3.7,1.7C550.2,971.5,548.5,971.7,546.7,971.7z"/>
	<path class="st3" d="M569.5,971.7c-1.7,0-3.3-0.3-4.7-1s-2.6-1.5-3.7-2.7c-1-1.2-1.8-2.5-2.4-4.1c-0.6-1.6-0.8-3.3-0.8-5.2v-0.4
		c0-1.9,0.3-3.6,0.8-5.2c0.6-1.6,1.3-3,2.4-4.1c1-1.2,2.2-2.1,3.7-2.7s3-1,4.7-1c1.7,0,3.3,0.3,4.7,1s2.7,1.6,3.7,2.7
		c1,1.2,1.8,2.5,2.4,4.1c0.6,1.6,0.8,3.3,0.8,5.2v0.4c0,1.9-0.3,3.6-0.8,5.2c-0.6,1.6-1.4,2.9-2.4,4.1c-1,1.2-2.3,2.1-3.7,2.7
		S571.2,971.7,569.5,971.7z M569.5,967.7c1.5,0,2.7-0.4,3.6-1.1c1-0.8,1.7-1.8,2.2-3.1c0.5-1.3,0.7-2.9,0.7-4.7v-0.4
		c0-1.8-0.2-3.3-0.7-4.7c-0.5-1.3-1.2-2.4-2.2-3.1c-1-0.7-2.2-1.1-3.6-1.1c-1.4,0-2.6,0.4-3.6,1.1c-0.9,0.7-1.7,1.8-2.1,3.1
		c-0.5,1.3-0.7,2.9-0.7,4.7v0.4c0,1.8,0.2,3.4,0.7,4.7c0.5,1.3,1.2,2.4,2.1,3.1C566.9,967.4,568.1,967.7,569.5,967.7z"/>
	<path class="st3" d="M583.2,971.4l0-3.1l2.7-0.5l0-18.4l-2.7-0.5l0-3.1l2.7,0l5.2,0l11.1,17.8l0.1,0l0-14.1l-3.3-0.5l0-3.1l7.9,0
		h2.7l0,3.1l-2.7,0.5l0,22l-5,0l-11.4-17.6l-0.1,0l0,14l3.3,0.5l0,3.1L583.2,971.4z"/>
	<path class="st3" d="M621.8,971.7c-1.9,0-3.6-0.2-5.2-0.6c-1.5-0.4-3.1-1.2-4.6-2.2l0-6.2h4l0.5,3.6c0.5,0.4,1.3,0.8,2.2,1.1
		s1.9,0.4,3,0.4c0.9,0,1.7-0.1,2.3-0.4s1.1-0.6,1.5-1.1c0.3-0.5,0.5-1,0.5-1.7c0-0.6-0.1-1.2-0.4-1.6s-0.8-0.9-1.5-1.3
		s-1.6-0.8-2.8-1.1c-2-0.6-3.7-1.3-5-2c-1.3-0.7-2.3-1.6-3-2.5c-0.7-1-1-2.2-1-3.6c0-1.4,0.4-2.6,1.2-3.7c0.8-1.1,1.8-1.9,3.2-2.5
		c1.4-0.6,2.9-0.9,4.7-1c2,0,3.7,0.2,5.2,0.7s2.8,1.2,3.9,2.1l0,5.8l-3.8,0l-0.7-3.5c-0.4-0.3-1-0.5-1.8-0.7
		c-0.8-0.2-1.6-0.3-2.6-0.3c-0.8,0-1.5,0.1-2.2,0.4c-0.6,0.2-1.1,0.6-1.5,1.1s-0.5,1-0.5,1.7c0,0.6,0.2,1.1,0.5,1.5s0.8,0.8,1.6,1.2
		c0.7,0.4,1.8,0.8,3.1,1.2c2.8,0.8,5,1.8,6.4,3.1c1.5,1.3,2.2,3,2.2,5.1c0,1.5-0.4,2.7-1.2,3.8c-0.8,1.1-1.9,1.9-3.3,2.5
		S623.7,971.7,621.8,971.7z"/>
	<path class="st3" d="M633.3,971.3l0-3.1l2.7-0.5l0-18.4l-2.7-0.5l0-3.1l10.6,0l0,3.1l-2.7,0.5l0,18.4l2.7,0.5l0,3.1L633.3,971.3z"
		/>
	<path class="st3" d="M656.3,971.7c-1.9,0-3.6-0.2-5.2-0.6c-1.5-0.4-3.1-1.2-4.6-2.2l0-6.2h4l0.5,3.6c0.5,0.4,1.3,0.8,2.2,1.1
		s1.9,0.4,3,0.4c0.9,0,1.7-0.1,2.3-0.4s1.1-0.6,1.5-1.1c0.3-0.5,0.5-1,0.5-1.7c0-0.6-0.1-1.2-0.4-1.6s-0.8-0.9-1.5-1.3
		s-1.6-0.8-2.8-1.1c-2-0.6-3.7-1.3-5-2c-1.3-0.7-2.3-1.6-3-2.5c-0.7-1-1-2.2-1-3.6c0-1.4,0.4-2.6,1.2-3.7c0.8-1.1,1.8-1.9,3.2-2.5
		c1.4-0.6,2.9-0.9,4.7-0.9c2,0,3.7,0.2,5.2,0.7c1.5,0.5,2.8,1.2,3.9,2.1l0,5.8l-3.8,0l-0.7-3.5c-0.4-0.3-1-0.5-1.8-0.7
		c-0.8-0.2-1.6-0.3-2.6-0.3c-0.8,0-1.5,0.1-2.2,0.4c-0.6,0.2-1.1,0.6-1.5,1.1s-0.5,1-0.5,1.7c0,0.6,0.2,1.1,0.5,1.5s0.8,0.8,1.6,1.2
		c0.7,0.4,1.8,0.8,3.1,1.2c2.8,0.8,5,1.8,6.4,3.1c1.5,1.3,2.2,3,2.2,5.1c0,1.5-0.4,2.7-1.2,3.8s-1.9,1.9-3.3,2.5
		C659.8,971.4,658.2,971.7,656.3,971.7z"/>
	<path class="st3" d="M673.7,971.3v-3.1l2.7-0.5l0-18l-4.7,0l-0.3,3.1l-3.9,0l0-7l22.8,0l0,7l-3.9,0l-0.3-3.1l-4.7,0l0,18l2.8,0.5
		v3.1L673.7,971.3z"/>
	<path class="st3" d="M692.2,971.3v-3.1l2.7-0.5l0-18.4l-2.7-0.5v-3.1l19.9,0l0,6.9h-3.9l-0.2-3l-7.8,0l0,6.4l8.7,0v4l-8.7,0l0,7.3
		l8.3,0l0.2-3.1h3.9l0,7L692.2,971.3z"/>
	<path class="st3" d="M715.2,971.3v-3.1l2.7-0.5l0-18.4l-2.7-0.5v-3.1h2.7l5.2,0l11.1,17.8l0.1,0l0-14.1l-3.3-0.5v-3.1l7.9,0l2.7,0
		v3.1l-2.7,0.5l0,22l-5,0l-11.4-17.6l-0.1,0l0,14l3.3,0.5v3.1L715.2,971.3z"/>
	<path class="st3" d="M755.6,971.7c-2.5,0-4.6-0.5-6.5-1.6s-3.3-2.5-4.3-4.4c-1-1.9-1.5-4.2-1.5-6.8v-0.9c0-2.5,0.5-4.7,1.4-6.6
		c1-1.9,2.3-3.4,4.1-4.5s3.9-1.6,6.4-1.6c1.7,0,3.4,0.2,4.9,0.7s2.9,1.2,4.1,2.2l0,6.2l-3.8,0l-0.5-3.9c-0.4-0.3-0.8-0.5-1.3-0.7
		c-0.5-0.2-1-0.4-1.5-0.5c-0.5-0.1-1.1-0.2-1.7-0.2c-1.5,0-2.7,0.4-3.7,1.1c-1,0.7-1.8,1.7-2.4,3s-0.8,2.9-0.8,4.6v0.9
		c0,1.8,0.3,3.3,0.9,4.7s1.4,2.3,2.5,3c1.1,0.7,2.4,1.1,3.8,1.1c0.7,0,1.5-0.1,2.2-0.3c0.7-0.2,1.4-0.4,2-0.7l0.5-3.6l3.8,0l0,6.1
		c-1,0.7-2.2,1.2-3.7,1.7S757.4,971.7,755.6,971.7z"/>
	<path class="st3" d="M773.6,971.3v-3.1l2.7-0.5l0-5.2l-7.6-13.4l-2.5-0.4v-3.1l10.2,0v3.1l-2.1,0.3l4.3,8.2l0.4,0.8l0.1,0l0.4-0.8
		l4.7-8.2l-2.8-0.3v-3.1l10,0v3.1l-2.5,0.4l-7.5,13l0,5.6l2.7,0.5v3.1L773.6,971.3z"/>
</g>
<path class="st5" d="M205.9,440.3c9.9-20.5,21.1-40.2,33.6-59"/>
<path class="st5" d="M239.5,381.2c89.9-135.6,243.9-225,418.7-225s328.8,89.4,418.7,225"/>
<path class="st5" d="M1111.9,443c-10.2-21.5-21.9-42.1-34.9-61.8"/>
<path class="st5" d="M1111.9,443c31,65.2,48.4,138.2,48.4,215.2c0,263.6-203.2,479.8-461.5,500.4"/>
<path class="st5" d="M205.9,440.3c-31.8,65.9-49.7,139.9-49.7,218c0,264.6,204.8,481.4,464.5,500.6"/>
<path class="st5" d="M698.7,1158.6c-13.3,1.1-26.8,1.6-40.5,1.6c-12.6,0-25.1-0.5-37.5-1.4"/>
<line class="st5" x1="239.5" y1="381.2" x2="1077" y2="381.2"/>
<line class="st5" x1="205.9" y1="440.3" x2="620.8" y2="1158.9"/>
<line class="st5" x1="1111.9" y1="443" x2="698.7" y2="1158.6"/>
</svg>
