<?xml version="1.0" encoding="utf-8"?>
<!-- Generator: Adobe Illustrator 24.0.0, SVG Export Plug-In . SVG Version: 6.00 Build 0)  -->
<svg version="1.1" id="Ebene_1" xmlns="http://www.w3.org/2000/svg" xmlns:xlink="http://www.w3.org/1999/xlink" x="0px" y="0px"
	 viewBox="0 0 636.5 118.7" style="enable-background:new 0 0 636.5 118.7;" xml:space="preserve">
<style type="text/css">
	.st0{enable-background:new    ;}
	.st1{fill:#FFCC00;}
	.st2{fill:#990066;}
	.st3{fill:none;stroke:#FFCC00;stroke-width:2;stroke-miterlimit:10;}
	.st4{fill:none;stroke:#990066;stroke-width:2;stroke-miterlimit:10;}
</style>
<g id="Ebene_2_1_">
	<g class="st0">
		<path class="st1" d="M125.9,38.1h-1.5l3.7-10.8h1.5L125.9,38.1z"/>
		<path class="st1" d="M130.1,28.5v-1.2h4.1v1.2l-1.1,0.2v7.1l1.1,0.2v1.2h-4.1v-1.2l1.1-0.2v-7.1L130.1,28.5z"/>
		<path class="st1" d="M145.1,27.3v1.2l-1.1,0.2v8.5h-2l-4-6.7l0,0v5.3l1.1,0.2v1.2H135v-1.2l1.1-0.2v-7.1l-1.1-0.2v-1.2h1.1h2
			l4,6.7l0,0v-5.3l-1.1-0.2v-1.2h3.1H145.1z"/>
		<path class="st1" d="M150.5,27.3c1.1,0,2,0.3,2.7,0.9c0.7,0.6,1,1.4,1,2.3c0,1-0.3,1.7-1,2.3s-1.6,0.9-2.7,0.9h-1.7v2.2l1.1,0.2
			v1.2h-4.1v-1.2l1.1-0.2v-7.1l-1.1-0.2v-1.2h1.1H150.5z M148.8,32.1h1.7c0.6,0,1-0.2,1.3-0.5c0.3-0.3,0.4-0.7,0.4-1.2
			c0-0.5-0.1-0.9-0.4-1.2c-0.3-0.3-0.7-0.5-1.3-0.5h-1.7V32.1z"/>
		<path class="st1" d="M158.8,27.3v1.2l-1.1,0.2v5.2c0,0.7,0.2,1.1,0.5,1.5c0.4,0.3,0.8,0.5,1.5,0.5c0.6,0,1.1-0.2,1.5-0.5
			s0.5-0.8,0.5-1.5v-5.2l-1.1-0.2v-1.2h4.1v1.2l-1.1,0.2v5.2c0,1.1-0.4,2-1.1,2.6s-1.7,0.9-2.9,0.9c-1.2,0-2.1-0.3-2.9-0.9
			s-1.1-1.5-1.1-2.6v-5.2l-1.1-0.2v-1.2h1.1h2H158.8z"/>
	</g>
	<g class="st0">
		<path class="st1" d="M174.2,27.3v2.7h-1.5l-0.1-1.1h-1.8v7l1.1,0.2v1.2h-4.1v-1.2l1.1-0.2v-7h-1.8l-0.1,1.1h-1.5v-2.7H174.2z"/>
	</g>
	<g class="st0">
		<path class="st1" d="M182.3,30.5h-1.5l-0.3-1.4c-0.2-0.1-0.4-0.2-0.8-0.3s-0.7-0.1-1.1-0.1c-0.5,0-1,0.1-1.3,0.3
			c-0.3,0.2-0.4,0.5-0.4,0.9c0,0.3,0.2,0.6,0.5,0.8c0.3,0.2,0.9,0.4,1.6,0.7c1.1,0.3,1.9,0.7,2.5,1.2s0.9,1.2,0.9,2
			c0,0.9-0.3,1.5-1,2s-1.6,0.7-2.7,0.7c-0.8,0-1.5-0.1-2.1-0.4s-1.2-0.6-1.6-1v-2.1h1.5l0.2,1.4c0.2,0.2,0.5,0.3,0.8,0.4
			c0.3,0.1,0.7,0.2,1.2,0.2c0.5,0,1-0.1,1.2-0.3s0.4-0.5,0.4-0.9c0-0.4-0.1-0.7-0.4-0.9s-0.7-0.5-1.4-0.7c-1.2-0.3-2.1-0.7-2.7-1.2
			s-0.9-1.1-0.9-1.9c0-0.8,0.3-1.5,1-2c0.7-0.5,1.5-0.8,2.6-0.8c0.8,0,1.5,0.1,2.1,0.3s1.2,0.5,1.6,0.9V30.5z"/>
	</g>
	<g class="st0">
		<path class="st1" d="M434.6,38.1h-1.5l3.7-10.8h1.5L434.6,38.1z"/>
		<path class="st1" d="M447.8,32.3c0,1.5-0.4,2.7-1.3,3.6s-1.9,1.4-3.3,1.4c-1.3,0-2.4-0.5-3.3-1.4c-0.8-1-1.2-2.2-1.2-3.6v-0.2
			c0-1.4,0.4-2.7,1.2-3.6s1.9-1.4,3.3-1.4c1.3,0,2.4,0.5,3.3,1.4c0.8,1,1.3,2.2,1.3,3.6V32.3z M445.9,32.2c0-1-0.2-1.9-0.6-2.5
			s-1.1-1-1.9-1s-1.5,0.3-1.9,1c-0.4,0.6-0.6,1.5-0.6,2.5v0.2c0,1,0.2,1.9,0.6,2.5c0.4,0.6,1,1,1.9,1c0.8,0,1.5-0.3,1.9-1
			c0.4-0.6,0.6-1.5,0.6-2.5V32.2z"/>
		<path class="st1" d="M452.7,27.3v1.2l-1.1,0.2v5.2c0,0.7,0.2,1.1,0.5,1.5c0.4,0.3,0.8,0.5,1.5,0.5c0.6,0,1.1-0.2,1.5-0.5
			s0.5-0.8,0.5-1.5v-5.2l-1.1-0.2v-1.2h4.1v1.2l-1.1,0.2v5.2c0,1.1-0.4,2-1.1,2.6c-0.7,0.6-1.7,0.9-2.9,0.9c-1.2,0-2.2-0.3-2.9-0.9
			c-0.7-0.6-1.1-1.5-1.1-2.6v-5.2l-1.1-0.2v-1.2h1.1h2H452.7z"/>
		<path class="st1" d="M468,27.3v2.7h-1.5l-0.1-1.1h-1.8v7l1.1,0.2v1.2h-4.1v-1.2l1.1-0.2v-7h-1.8l-0.1,1.1h-1.5v-2.7H468z"/>
		<path class="st1" d="M473.4,27.3c1.1,0,2,0.3,2.7,0.9c0.7,0.6,1,1.4,1,2.3c0,1-0.3,1.7-1,2.3c-0.7,0.6-1.6,0.9-2.7,0.9h-1.7v2.2
			l1.1,0.2v1.2h-4.1v-1.2l1.1-0.2v-7.1l-1.1-0.2v-1.2h1.1H473.4z M471.7,32.1h1.7c0.6,0,1-0.2,1.3-0.5c0.3-0.3,0.4-0.7,0.4-1.2
			c0-0.5-0.1-0.9-0.4-1.2c-0.3-0.3-0.7-0.5-1.3-0.5h-1.7V32.1z"/>
		<path class="st1" d="M481.7,27.3v1.2l-1.1,0.2v5.2c0,0.7,0.2,1.1,0.5,1.5c0.4,0.3,0.8,0.5,1.5,0.5c0.6,0,1.1-0.2,1.5-0.5
			s0.5-0.8,0.5-1.5v-5.2l-1.1-0.2v-1.2h4.1v1.2l-1.1,0.2v5.2c0,1.1-0.4,2-1.1,2.6c-0.7,0.6-1.7,0.9-2.9,0.9c-1.2,0-2.1-0.3-2.9-0.9
			c-0.7-0.6-1.1-1.5-1.1-2.6v-5.2l-1.1-0.2v-1.2h1.1h2H481.7z"/>
	</g>
	<g class="st0">
		<path class="st1" d="M497,27.3v2.7h-1.5l-0.1-1.1h-1.8v7l1.1,0.2v1.2h-4.1v-1.2l1.1-0.2v-7h-1.8l-0.1,1.1h-1.5v-2.7H497z"/>
	</g>
	<g class="st0">
		<path class="st1" d="M505.1,30.5h-1.5l-0.3-1.4c-0.2-0.1-0.4-0.2-0.8-0.3c-0.3-0.1-0.7-0.1-1.1-0.1c-0.5,0-1,0.1-1.3,0.3
			c-0.3,0.2-0.4,0.5-0.4,0.9c0,0.3,0.2,0.6,0.5,0.8c0.3,0.2,0.9,0.4,1.6,0.7c1.1,0.3,1.9,0.7,2.5,1.2s0.9,1.2,0.9,2
			c0,0.9-0.3,1.5-1,2c-0.7,0.5-1.6,0.7-2.7,0.7c-0.8,0-1.5-0.1-2.1-0.4s-1.2-0.6-1.6-1v-2.1h1.5l0.2,1.4c0.2,0.2,0.5,0.3,0.8,0.4
			c0.3,0.1,0.7,0.2,1.2,0.2c0.5,0,1-0.1,1.2-0.3s0.4-0.5,0.4-0.9c0-0.4-0.1-0.7-0.4-0.9s-0.7-0.5-1.4-0.7c-1.2-0.3-2.1-0.7-2.7-1.2
			c-0.6-0.5-0.9-1.1-0.9-1.9c0-0.8,0.3-1.5,1-2c0.7-0.5,1.5-0.8,2.6-0.8c0.8,0,1.5,0.1,2.1,0.3s1.2,0.5,1.6,0.9V30.5z"/>
	</g>
	<g class="st0">
		<path class="st1" d="M282.6,53.1c0.4,0,0.8-0.1,1.1-0.4c0.3-0.3,0.5-0.6,0.5-0.9h1.1l0,0c0,0.6-0.2,1.1-0.8,1.6
			c-0.5,0.5-1.2,0.7-1.9,0.7c-1,0-1.8-0.3-2.3-1c-0.5-0.7-0.8-1.5-0.8-2.5v-0.3c0-1,0.3-1.8,0.8-2.4c0.5-0.7,1.3-1,2.3-1
			c0.6,0,1,0.1,1.5,0.3c0.4,0.2,0.8,0.4,1.1,0.8l0.1,1.5h-1l-0.3-1.1c-0.1-0.1-0.3-0.3-0.6-0.3s-0.5-0.1-0.8-0.1
			c-0.7,0-1.1,0.2-1.4,0.7c-0.3,0.5-0.4,1.1-0.4,1.7v0.3c0,0.7,0.1,1.3,0.4,1.8S281.9,53.1,282.6,53.1z"/>
		<path class="st1" d="M286.5,50.4c0-1,0.3-1.9,0.8-2.5s1.3-1,2.2-1c0.9,0,1.7,0.3,2.3,1c0.6,0.7,0.8,1.5,0.8,2.5v0.1
			c0,1-0.3,1.9-0.8,2.5c-0.6,0.7-1.3,1-2.2,1c-1,0-1.7-0.3-2.3-1c-0.6-0.7-0.8-1.5-0.8-2.5V50.4z M287.8,50.6c0,0.7,0.2,1.3,0.5,1.8
			c0.3,0.5,0.8,0.7,1.4,0.7c0.6,0,1-0.2,1.4-0.7c0.3-0.5,0.5-1.1,0.5-1.8v-0.1c0-0.7-0.2-1.3-0.5-1.8s-0.8-0.7-1.4-0.7
			s-1.1,0.2-1.4,0.7s-0.5,1.1-0.5,1.8V50.6z"/>
	</g>
	<g class="st0">
		<path class="st1" d="M293.7,55.8l1-0.2V48l-1-0.2v-0.8h2.1l0.1,0.8c0.2-0.3,0.5-0.6,0.8-0.7c0.3-0.2,0.7-0.2,1.1-0.2
			c0.9,0,1.5,0.3,2,1s0.7,1.6,0.7,2.7v0.1c0,1-0.2,1.8-0.7,2.4c-0.5,0.6-1.1,0.9-2,0.9c-0.4,0-0.8-0.1-1.1-0.2
			c-0.3-0.1-0.6-0.4-0.8-0.6v2.4l1,0.2v0.8h-3.3V55.8z M299.3,50.6c0-0.8-0.2-1.4-0.5-1.9s-0.8-0.7-1.4-0.7c-0.4,0-0.7,0.1-0.9,0.2
			s-0.5,0.4-0.6,0.7v3.3c0.2,0.3,0.4,0.5,0.6,0.7c0.3,0.2,0.6,0.2,0.9,0.2c0.6,0,1-0.2,1.3-0.6s0.5-1,0.5-1.7V50.6z"/>
	</g>
	<g class="st0">
		<path class="st1" d="M308.1,47.9l-0.6,0.1l-2.6,7c-0.2,0.5-0.4,0.9-0.7,1.2s-0.8,0.5-1.3,0.5c-0.1,0-0.2,0-0.4,0s-0.3,0-0.4-0.1
			l0.1-1c0,0,0,0,0.2,0c0.2,0,0.3,0,0.3,0c0.3,0,0.5-0.1,0.6-0.3s0.3-0.5,0.4-0.8l0.3-0.7l-2.3-5.8l-0.6-0.1v-0.8h2.8v0.8l-0.8,0.1
			l1.2,3.4l0.2,0.9h0l1.4-4.3l-0.8-0.1v-0.8h2.8V47.9z"/>
	</g>
	<g class="st0">
		<path class="st1" d="M316,44.7c1.2,0,2.2,0.4,2.9,1.1c0.7,0.7,1.1,1.7,1.1,2.9v1.3c0,1.2-0.4,2.1-1.1,2.9
			c-0.7,0.7-1.7,1.1-2.9,1.1h-3.9v-0.8l1-0.2v-7.3l-1-0.2v-0.8h1H316z M314.4,45.7V53h1.6c0.9,0,1.5-0.3,2-0.8
			c0.5-0.6,0.7-1.3,0.7-2.2v-1.3c0-0.9-0.2-1.6-0.7-2.2c-0.5-0.6-1.2-0.8-2-0.8H314.4z"/>
	</g>
	<g class="st0">
		<path class="st1" d="M320.5,53.1l0.7-0.1l3.2-8.3h1.1l3.2,8.3l0.7,0.1v0.8h-2.7v-0.8l0.7-0.1l-0.6-1.7h-3.7l-0.6,1.7l0.7,0.1v0.8
			h-2.6V53.1z M323.5,50.3h2.9l-1.4-4h0L323.5,50.3z"/>
		<path class="st1" d="M330.1,55.8l1-0.2V48l-1-0.2v-0.8h2.1l0.1,0.8c0.2-0.3,0.5-0.6,0.8-0.7c0.3-0.2,0.7-0.2,1.1-0.2
			c0.9,0,1.5,0.3,2,1s0.7,1.6,0.7,2.7v0.1c0,1-0.2,1.8-0.7,2.4c-0.5,0.6-1.1,0.9-2,0.9c-0.4,0-0.8-0.1-1.1-0.2
			c-0.3-0.1-0.6-0.4-0.8-0.6v2.4l1,0.2v0.8h-3.3V55.8z M335.7,50.6c0-0.8-0.2-1.4-0.5-1.9s-0.8-0.7-1.4-0.7c-0.4,0-0.7,0.1-0.9,0.2
			s-0.5,0.4-0.6,0.7v3.3c0.2,0.3,0.4,0.5,0.6,0.7c0.3,0.2,0.6,0.2,0.9,0.2c0.6,0,1-0.2,1.3-0.6s0.5-1,0.5-1.7V50.6z"/>
		<path class="st1" d="M338,55.8l1-0.2V48l-1-0.2v-0.8h2.1l0.1,0.8c0.2-0.3,0.5-0.6,0.8-0.7c0.3-0.2,0.7-0.2,1.1-0.2
			c0.9,0,1.5,0.3,2,1s0.7,1.6,0.7,2.7v0.1c0,1-0.2,1.8-0.7,2.4c-0.5,0.6-1.1,0.9-2,0.9c-0.4,0-0.8-0.1-1.1-0.2
			c-0.3-0.1-0.6-0.4-0.8-0.6v2.4l1,0.2v0.8H338V55.8z M343.6,50.6c0-0.8-0.2-1.4-0.5-1.9s-0.8-0.7-1.4-0.7c-0.4,0-0.7,0.1-0.9,0.2
			s-0.5,0.4-0.6,0.7v3.3c0.2,0.3,0.4,0.5,0.6,0.7c0.3,0.2,0.6,0.2,0.9,0.2c0.6,0,1-0.2,1.3-0.6s0.5-1,0.5-1.7V50.6z"/>
	</g>
	<g class="st0">
		<path class="st2" d="M92,85.2v-1h1.2v-0.9c0-0.8,0.2-1.4,0.6-1.8c0.4-0.4,1-0.6,1.7-0.6c0.2,0,0.3,0,0.5,0c0.2,0,0.3,0.1,0.5,0.1
			l-0.2,1c-0.1,0-0.2,0-0.3,0s-0.2,0-0.4,0c-0.4,0-0.7,0.1-0.9,0.4c-0.2,0.2-0.3,0.6-0.3,1v0.9H96v1h-1.5v5.3l1.1,0.2v0.9H92v-0.9
			l1.1-0.2v-5.3H92z"/>
		<path class="st2" d="M97.3,90.7l1.5-0.2v-7.5l-1.6,0v-0.8l2.9-0.6v8.9l1.5,0.2v0.9h-4.4V90.7z"/>
	</g>
	<g class="st0">
		<path class="st2" d="M202.2,85.2v-1h1.2v-0.9c0-0.8,0.2-1.4,0.6-1.8c0.4-0.4,1-0.6,1.7-0.6c0.2,0,0.3,0,0.5,0
			c0.2,0,0.3,0.1,0.5,0.1l-0.2,1c-0.1,0-0.2,0-0.3,0s-0.2,0-0.4,0c-0.4,0-0.7,0.1-0.9,0.4c-0.2,0.2-0.3,0.6-0.3,1v0.9h1.5v1h-1.5
			v5.3l1.1,0.2v0.9h-3.6v-0.9l1.1-0.2v-5.3H202.2z"/>
		<path class="st2" d="M207.1,90.7l1.1-0.2v-5.3l-1.1-0.2v-0.9h2.3l0.1,1.1c0.2-0.4,0.6-0.7,0.9-0.9c0.4-0.2,0.8-0.3,1.3-0.3
			c0.8,0,1.4,0.2,1.9,0.7c0.4,0.5,0.7,1.2,0.7,2.2v3.6l1.1,0.2v0.9h-3.6v-0.9l1.1-0.2v-3.6c0-0.7-0.1-1.1-0.4-1.4s-0.7-0.4-1.2-0.4
			c-0.4,0-0.7,0.1-1,0.3s-0.5,0.4-0.7,0.8v4.3l1.1,0.2v0.9h-3.6V90.7z"/>
	</g>
	<g class="st0">
		<path class="st2" d="M407.8,85.2v-1h1.2v-0.9c0-0.8,0.2-1.4,0.6-1.8c0.4-0.4,1-0.6,1.7-0.6c0.2,0,0.3,0,0.5,0
			c0.2,0,0.3,0.1,0.5,0.1l-0.2,1c-0.1,0-0.2,0-0.3,0s-0.2,0-0.4,0c-0.4,0-0.7,0.1-0.9,0.4c-0.2,0.2-0.3,0.6-0.3,1v0.9h1.5v1h-1.5
			v5.3l1.1,0.2v0.9h-3.6v-0.9l1.1-0.2v-5.3H407.8z"/>
		<path class="st2" d="M413.2,90.7l1.5-0.2v-7.5l-1.6,0v-0.8l2.9-0.6v8.9l1.5,0.2v0.9h-4.4V90.7z"/>
	</g>
	<g class="st0">
		<path class="st2" d="M518,85.2v-1h1.2v-0.9c0-0.8,0.2-1.4,0.6-1.8c0.4-0.4,1-0.6,1.7-0.6c0.2,0,0.3,0,0.5,0c0.2,0,0.3,0.1,0.5,0.1
			l-0.2,1c-0.1,0-0.2,0-0.3,0c-0.1,0-0.2,0-0.4,0c-0.4,0-0.7,0.1-0.9,0.4c-0.2,0.2-0.3,0.6-0.3,1v0.9h1.5v1h-1.5v5.3l1.1,0.2v0.9
			h-3.6v-0.9l1.1-0.2v-5.3H518z"/>
		<path class="st2" d="M522.9,90.7l1.1-0.2v-5.3l-1.1-0.2v-0.9h2.3l0.1,1.1c0.2-0.4,0.6-0.7,0.9-0.9c0.4-0.2,0.8-0.3,1.3-0.3
			c0.8,0,1.4,0.2,1.9,0.7c0.4,0.5,0.7,1.2,0.7,2.2v3.6l1.1,0.2v0.9h-3.6v-0.9l1.1-0.2v-3.6c0-0.7-0.1-1.1-0.4-1.4
			c-0.3-0.3-0.7-0.4-1.2-0.4c-0.4,0-0.7,0.1-1,0.3c-0.3,0.2-0.5,0.4-0.7,0.8v4.3l1.1,0.2v0.9h-3.6V90.7z"/>
	</g>
</g>
<g id="Ebene_4">
	<line class="st3" x1="265.3" y1="32.3" x2="363" y2="32.3"/>
	<polygon class="st1" points="358.3,38 357.4,37 362.4,32.3 357.4,27.6 358.3,26.5 364.5,32.3 	"/>
	<line class="st4" x1="171.3" y1="48.5" x2="197.9" y2="75.2"/>
	<polygon class="st2" points="190.6,75.9 190.7,74.5 197.6,74.8 197.3,67.9 198.7,67.8 199,76.2 	"/>
	<line class="st4" x1="136" y1="48.5" x2="109.3" y2="75.2"/>
	<polygon class="st2" points="108.5,67.8 109.9,67.9 109.7,74.8 116.6,74.5 116.6,75.9 108.2,76.2 	"/>
	<line class="st4" x1="487.1" y1="48.5" x2="513.8" y2="75.2"/>
	<polygon class="st2" points="506.5,75.9 506.5,74.5 513.4,74.8 513.2,67.9 514.5,67.8 514.8,76.2 	"/>
	<line class="st4" x1="451.8" y1="48.5" x2="425.1" y2="75.2"/>
	<polygon class="st2" points="424.4,67.8 425.8,67.9 425.5,74.8 432.4,74.5 432.5,75.9 424.1,76.2 	"/>
</g>
</svg>
