<?xml version="1.0" encoding="utf-8"?>
<!-- Generator: Adobe Illustrator 24.0.0, SVG Export Plug-In . SVG Version: 6.00 Build 0)  -->
<svg version="1.1" id="Ebene_1" xmlns="http://www.w3.org/2000/svg" xmlns:xlink="http://www.w3.org/1999/xlink" x="0px" y="0px"
	 viewBox="0 0 747.8 392.2" style="enable-background:new 0 0 747.8 392.2;" xml:space="preserve">
<style type="text/css">
	.st0{opacity:0.2;fill:#FFCC99;enable-background:new    ;}
	.st1{fill:none;stroke:#CC3300;stroke-width:2;stroke-miterlimit:10;stroke-dasharray:2,2;}
	.st2{enable-background:new    ;}
	.st3{fill:#330066;}
	.st4{fill:none;stroke:#FF6633;stroke-width:2;stroke-linecap:round;stroke-linejoin:round;}
	.st5{fill:#FF6633;}
	.st6{fill:url(#SVGID_1_);}
	.st7{fill:none;stroke:#FFCC00;stroke-width:2;stroke-miterlimit:10;}
	.st8{fill:none;stroke:#FFCC00;stroke-width:2;stroke-linecap:round;stroke-linejoin:round;}
	.st9{fill:#FFCC00;}
	.st10{fill:#FFFFFF;stroke:#FFCC00;stroke-width:2;stroke-linecap:round;stroke-linejoin:round;}
	.st11{clip-path:url(#SVGID_3_);}
	.st12{clip-path:url(#SVGID_5_);}
	.st13{fill:#FFD138;}
	.st14{fill:#FDFEFF;}
	.st15{fill:url(#SVGID_6_);}
	.st16{clip-path:url(#SVGID_8_);}
	.st17{clip-path:url(#SVGID_10_);}
	.st18{fill:url(#SVGID_11_);stroke:#FFCC00;stroke-width:2;stroke-miterlimit:10;}
	.st19{fill:none;stroke:#FFCC00;stroke-width:2;stroke-miterlimit:10;stroke-dasharray:1.97,1.97;}
	.st20{fill:none;stroke:#FFCC00;stroke-width:2;stroke-miterlimit:10;stroke-dasharray:2.02,2.02;}
	.st21{fill:none;stroke:#FFCC00;stroke-width:2;stroke-miterlimit:10;stroke-dasharray:1.92,1.92;}
	.st22{fill:none;stroke:#330066;stroke-linejoin:round;}
	.st23{fill:none;stroke:#330066;stroke-linecap:round;stroke-linejoin:round;}
	.st24{fill:none;stroke:#330066;stroke-width:2;stroke-miterlimit:10;}
	.st25{fill:url(#SVGID_12_);stroke:#FFCC00;stroke-width:2;stroke-miterlimit:10;}
	.st26{fill:#FFFFFF;stroke:#330066;stroke-width:2;stroke-linecap:round;stroke-linejoin:round;}
	.st27{fill:none;stroke:#330066;stroke-width:2;stroke-linecap:round;stroke-linejoin:round;}
</style>
<g id="Ebene_2_1_">
	<path class="st0" d="M124.4,35.9h500c2.8,0,5,2.2,5,5v335.9c0,2.8-2.2,5-5,5h-500c-2.8,0-5-2.2-5-5V40.9
		C119.4,38.2,121.6,35.9,124.4,35.9z"/>
	<path class="st1" d="M124.4,34.3h500c2.8,0,5,2.2,5,5v337.5c0,2.8-2.2,5-5,5h-500c-2.8,0-5-2.2-5-5V39.3
		C119.4,36.5,121.6,34.3,124.4,34.3z"/>
	<g class="st2">
		<path class="st3" d="M396.4,13.4v-1.3h3.3V22l1,0.2v1.3h-4.2v-1.3l1-0.2v-8.4L396.4,13.4z"/>
	</g>
	<g class="st2">
		<path class="st3" d="M401.3,19.5c0-1.2,0.3-2.2,1-2.9c0.7-0.8,1.6-1.1,2.7-1.1c1.2,0,2.1,0.4,2.8,1.1c0.7,0.8,1,1.7,1,2.9v0.2
			c0,1.2-0.3,2.2-1,2.9c-0.7,0.8-1.6,1.1-2.7,1.1c-1.2,0-2.1-0.4-2.8-1.1c-0.7-0.7-1-1.7-1-2.9V19.5z M403.5,19.6
			c0,0.7,0.1,1.3,0.4,1.7c0.3,0.4,0.7,0.7,1.2,0.7c0.6,0,1-0.2,1.2-0.7c0.3-0.4,0.4-1,0.4-1.7v-0.2c0-0.7-0.1-1.3-0.4-1.7
			s-0.7-0.7-1.2-0.7s-1,0.2-1.2,0.7s-0.4,1-0.4,1.7V19.6z"/>
		<path class="st3" d="M413.4,22c0.4,0,0.7-0.1,0.9-0.3c0.2-0.2,0.3-0.5,0.3-0.9h1.9l0,0c0,0.8-0.3,1.5-0.9,2
			c-0.6,0.5-1.4,0.8-2.3,0.8c-1.2,0-2.1-0.4-2.7-1.1s-1-1.7-1-2.9v-0.2c0-1.2,0.3-2.1,1-2.9c0.7-0.8,1.6-1.1,2.8-1.1
			c0.6,0,1.2,0.1,1.7,0.3c0.5,0.2,0.9,0.5,1.3,0.8l0,2.1h-1.7l-0.4-1.2c-0.1-0.1-0.2-0.2-0.4-0.2c-0.2-0.1-0.3-0.1-0.5-0.1
			c-0.6,0-1,0.2-1.3,0.7s-0.4,1-0.4,1.7v0.2c0,0.7,0.1,1.3,0.3,1.7C412.5,21.8,412.9,22,413.4,22z"/>
		<path class="st3" d="M422.7,23.5c-0.1-0.1-0.1-0.3-0.2-0.4c0-0.1-0.1-0.3-0.1-0.4c-0.3,0.3-0.6,0.5-0.9,0.7
			c-0.4,0.2-0.8,0.3-1.2,0.3c-0.8,0-1.4-0.2-1.8-0.6c-0.5-0.4-0.7-1-0.7-1.7c0-0.7,0.3-1.3,0.9-1.7s1.5-0.6,2.6-0.6h1.1v-0.8
			c0-0.4-0.1-0.7-0.3-0.9s-0.5-0.3-1-0.3c-0.2,0-0.5,0-0.7,0.1c-0.2,0.1-0.3,0.1-0.5,0.2l-0.1,0.8h-1.6l0-1.8
			c0.4-0.3,0.8-0.5,1.3-0.7c0.5-0.2,1.1-0.3,1.7-0.3c1,0,1.8,0.2,2.4,0.7c0.6,0.5,0.9,1.2,0.9,2.1v3.3c0,0.1,0,0.2,0,0.3
			c0,0.1,0,0.2,0,0.3l0.7,0.1v1.3H422.7z M420.8,22.1c0.3,0,0.6-0.1,0.9-0.2c0.3-0.1,0.5-0.3,0.6-0.5v-1.2h-1.1
			c-0.5,0-0.8,0.1-1,0.3c-0.2,0.2-0.4,0.5-0.4,0.8c0,0.3,0.1,0.5,0.3,0.6C420.3,22,420.5,22.1,420.8,22.1z"/>
		<path class="st3" d="M425.6,13.4v-1.3h3.3V22l1,0.2v1.3h-4.2v-1.3l1-0.2v-8.4L425.6,13.4z"/>
		<path class="st3" d="M434.3,19.5c0-1.2,0.3-2.2,1-2.9c0.7-0.8,1.6-1.1,2.7-1.1c1.2,0,2.1,0.4,2.8,1.1c0.7,0.8,1,1.7,1,2.9v0.2
			c0,1.2-0.3,2.2-1,2.9c-0.7,0.8-1.6,1.1-2.7,1.1c-1.2,0-2.1-0.4-2.8-1.1c-0.7-0.7-1-1.7-1-2.9V19.5z M436.5,19.6
			c0,0.7,0.1,1.3,0.4,1.7c0.3,0.4,0.7,0.7,1.2,0.7c0.6,0,1-0.2,1.2-0.7c0.3-0.4,0.4-1,0.4-1.7v-0.2c0-0.7-0.1-1.3-0.4-1.7
			s-0.7-0.7-1.2-0.7s-1,0.2-1.2,0.7s-0.4,1-0.4,1.7V19.6z"/>
		<path class="st3" d="M442.9,22.2l1-0.2v-4.9l-1.1-0.2v-1.3h3.1l0.1,1.2c0.2-0.4,0.4-0.7,0.7-1s0.6-0.3,1-0.3c0.1,0,0.2,0,0.4,0
			c0.1,0,0.2,0,0.3,0.1l-0.2,1.9l-0.9,0c-0.3,0-0.6,0.1-0.8,0.2s-0.4,0.3-0.5,0.5V22l1,0.2v1.3h-4.2V22.2z"/>
	</g>
	<g class="st2">
		<path class="st3" d="M452.9,22.2l1-0.2v-4.9l-1.1-0.2v-1.3h3.1l0.1,1.2c0.2-0.4,0.4-0.7,0.7-1s0.6-0.3,1-0.3c0.1,0,0.2,0,0.4,0
			c0.1,0,0.2,0,0.3,0.1l-0.2,1.9l-0.9,0c-0.3,0-0.6,0.1-0.8,0.2s-0.4,0.3-0.5,0.5V22l1,0.2v1.3h-4.2V22.2z"/>
	</g>
	<g class="st2">
		<path class="st3" d="M462.7,23.6c-1.1,0-2.1-0.4-2.7-1.1s-1-1.7-1-2.8v-0.3c0-1.2,0.3-2.1,1-2.9c0.6-0.8,1.5-1.1,2.6-1.1
			c1.1,0,1.9,0.3,2.5,1s0.9,1.5,0.9,2.6v1.2h-4.7l0,0c0,0.5,0.2,1,0.5,1.3c0.3,0.3,0.7,0.5,1.3,0.5c0.5,0,0.9,0,1.2-0.1
			c0.3-0.1,0.7-0.2,1-0.5l0.6,1.3c-0.3,0.3-0.8,0.5-1.3,0.7C463.9,23.6,463.3,23.6,462.7,23.6z M462.5,17.1c-0.4,0-0.7,0.2-0.9,0.5
			s-0.4,0.7-0.4,1.2l0,0h2.6v-0.2c0-0.5-0.1-0.8-0.3-1.1C463.2,17.2,462.9,17.1,462.5,17.1z"/>
	</g>
	<g class="st2">
		<path class="st3" d="M466.6,16.9v-1.3h3.1l0.1,1c0.3-0.4,0.6-0.7,1-0.9c0.4-0.2,0.8-0.3,1.3-0.3c0.5,0,0.9,0.1,1.3,0.3
			s0.6,0.6,0.8,1c0.2-0.4,0.6-0.8,1-1c0.4-0.2,0.8-0.4,1.4-0.4c0.8,0,1.4,0.3,1.8,0.8c0.5,0.5,0.7,1.4,0.7,2.5V22l1,0.2v1.3h-4.1
			v-1.3L477,22v-3.3c0-0.6-0.1-1-0.3-1.3s-0.5-0.4-0.9-0.4c-0.3,0-0.6,0.1-0.8,0.2c-0.2,0.1-0.4,0.3-0.5,0.6c0,0.1,0,0.2,0,0.2
			c0,0.1,0,0.1,0,0.2V22l0.9,0.2v1.3h-3.9v-1.3l0.9-0.2v-3.3c0-0.6-0.1-1-0.3-1.2c-0.2-0.2-0.5-0.4-0.9-0.4c-0.3,0-0.5,0.1-0.8,0.2
			c-0.2,0.1-0.4,0.3-0.5,0.5V22l0.9,0.2v1.3h-4.1v-1.3l1-0.2v-4.9L466.6,16.9z"/>
	</g>
	<g class="st2">
		<path class="st3" d="M480.8,19.5c0-1.2,0.3-2.2,1-2.9c0.7-0.8,1.6-1.1,2.7-1.1c1.2,0,2.1,0.4,2.8,1.1c0.7,0.8,1,1.7,1,2.9v0.2
			c0,1.2-0.3,2.2-1,2.9c-0.7,0.8-1.6,1.1-2.7,1.1c-1.2,0-2.1-0.4-2.8-1.1c-0.7-0.7-1-1.7-1-2.9V19.5z M482.9,19.6
			c0,0.7,0.1,1.3,0.4,1.7c0.3,0.4,0.7,0.7,1.2,0.7c0.6,0,1-0.2,1.2-0.7c0.3-0.4,0.4-1,0.4-1.7v-0.2c0-0.7-0.1-1.3-0.4-1.7
			s-0.7-0.7-1.2-0.7s-1,0.2-1.2,0.7s-0.4,1-0.4,1.7V19.6z"/>
		<path class="st3" d="M492.3,13.6v1.9h1.4v1.5h-1.4v4c0,0.3,0.1,0.5,0.2,0.7s0.3,0.2,0.5,0.2c0.1,0,0.3,0,0.4,0
			c0.1,0,0.2,0,0.4-0.1l0.2,1.5c-0.2,0.1-0.5,0.1-0.7,0.2c-0.2,0-0.5,0.1-0.8,0.1c-0.7,0-1.3-0.2-1.7-0.6c-0.4-0.4-0.6-1-0.6-1.9v-4
			H489v-1.5h1.2v-1.9H492.3z"/>
		<path class="st3" d="M498.6,23.6c-1.1,0-2.1-0.4-2.7-1.1s-1-1.7-1-2.8v-0.3c0-1.2,0.3-2.1,1-2.9c0.6-0.8,1.5-1.1,2.6-1.1
			c1.1,0,1.9,0.3,2.5,1s0.9,1.5,0.9,2.6v1.2H497l0,0c0,0.5,0.2,1,0.5,1.3c0.3,0.3,0.7,0.5,1.3,0.5c0.5,0,0.9,0,1.2-0.1
			c0.3-0.1,0.7-0.2,1-0.5l0.6,1.3c-0.3,0.3-0.8,0.5-1.3,0.7C499.8,23.6,499.2,23.6,498.6,23.6z M498.4,17.1c-0.4,0-0.7,0.2-0.9,0.5
			s-0.4,0.7-0.4,1.2l0,0h2.6v-0.2c0-0.5-0.1-0.8-0.3-1.1C499.1,17.2,498.8,17.1,498.4,17.1z"/>
		<path class="st3" d="M514.5,16.2h-1.6l-0.3-1.5c-0.2-0.1-0.5-0.2-0.8-0.3s-0.7-0.1-1.1-0.1c-0.6,0-1,0.1-1.4,0.4
			c-0.3,0.2-0.5,0.6-0.5,1c0,0.4,0.2,0.7,0.5,0.9c0.3,0.2,0.9,0.5,1.7,0.7c1.2,0.3,2.1,0.8,2.7,1.3c0.6,0.5,0.9,1.2,0.9,2.1
			c0,0.9-0.4,1.6-1.1,2.2s-1.7,0.8-2.9,0.8c-0.8,0-1.6-0.1-2.3-0.4c-0.7-0.3-1.2-0.6-1.7-1.1v-2.2h1.7l0.2,1.5
			c0.2,0.2,0.5,0.3,0.9,0.4c0.4,0.1,0.8,0.2,1.2,0.2c0.6,0,1-0.1,1.3-0.4c0.3-0.2,0.5-0.6,0.5-1c0-0.4-0.1-0.7-0.4-1
			c-0.3-0.3-0.8-0.5-1.5-0.7c-1.3-0.4-2.2-0.8-2.9-1.3c-0.6-0.5-1-1.2-1-2.1c0-0.9,0.4-1.6,1.1-2.1c0.7-0.5,1.7-0.8,2.8-0.8
			c0.8,0,1.6,0.1,2.2,0.4c0.7,0.3,1.2,0.6,1.7,1V16.2z"/>
		<path class="st3" d="M524.3,22.3c-0.3,0.3-0.9,0.7-1.5,0.9c-0.7,0.3-1.5,0.4-2.5,0.4c-1.4,0-2.6-0.5-3.5-1.4
			c-0.9-1-1.4-2.2-1.4-3.8v-0.4c0-1.6,0.4-2.9,1.3-3.9c0.9-1,2.1-1.5,3.5-1.5c0.8,0,1.6,0.1,2.3,0.4c0.7,0.3,1.3,0.6,1.7,1.1v2.1
			h-1.6l-0.3-1.4c-0.2-0.2-0.5-0.3-0.8-0.4c-0.3-0.1-0.7-0.2-1.1-0.2c-0.9,0-1.7,0.3-2.2,1c-0.5,0.7-0.8,1.6-0.8,2.7v0.4
			c0,1.1,0.3,1.9,0.8,2.6c0.5,0.6,1.2,1,2.2,1c0.4,0,0.8,0,1-0.1c0.3-0.1,0.5-0.2,0.6-0.3v-1.8l-1.5-0.1v-1.5h3.7V22.3z"/>
	</g>
	<g class="st2">
		<path class="st3" d="M525.2,22.2l0.9-0.2l2.8-3.9l-2.7-3.8l-0.9-0.2v-1.3h4.1v1.3l-0.9,0.1l1.6,2.6l1.7-2.6l-0.9-0.1v-1.3h4.1v1.3
			l-0.9,0.2l-2.7,3.8l2.9,3.9l0.9,0.2v1.3h-4.2v-1.3l0.8-0.1l-1.7-2.7l-1.7,2.7l0.9,0.1v1.3h-4.1V22.2z"/>
	</g>
	<g class="st2">
		<path class="st3" d="M539.2,19.8H535v-1.6h4.1V19.8z"/>
		<path class="st3" d="M544.2,22c0.4,0,0.7-0.1,0.9-0.3c0.2-0.2,0.3-0.5,0.3-0.9h1.9l0,0c0,0.8-0.3,1.5-0.9,2
			c-0.6,0.5-1.4,0.8-2.3,0.8c-1.2,0-2.1-0.4-2.7-1.1s-1-1.7-1-2.9v-0.2c0-1.2,0.3-2.1,1-2.9c0.7-0.8,1.6-1.1,2.8-1.1
			c0.6,0,1.2,0.1,1.7,0.3c0.5,0.2,0.9,0.5,1.3,0.8l0,2.1h-1.7l-0.4-1.2c-0.1-0.1-0.2-0.2-0.4-0.2c-0.2-0.1-0.3-0.1-0.5-0.1
			c-0.6,0-1,0.2-1.3,0.7s-0.4,1-0.4,1.7v0.2c0,0.7,0.1,1.3,0.3,1.7C543.2,21.8,543.6,22,544.2,22z"/>
		<path class="st3" d="M553.5,23.5c-0.1-0.1-0.1-0.3-0.2-0.4c0-0.1-0.1-0.3-0.1-0.4c-0.3,0.3-0.6,0.5-0.9,0.7
			c-0.4,0.2-0.8,0.3-1.2,0.3c-0.8,0-1.4-0.2-1.8-0.6c-0.5-0.4-0.7-1-0.7-1.7c0-0.7,0.3-1.3,0.9-1.7s1.5-0.6,2.6-0.6h1.1v-0.8
			c0-0.4-0.1-0.7-0.3-0.9s-0.5-0.3-1-0.3c-0.2,0-0.5,0-0.7,0.1c-0.2,0.1-0.3,0.1-0.5,0.2l-0.1,0.8h-1.6l0-1.8
			c0.4-0.3,0.8-0.5,1.3-0.7c0.5-0.2,1.1-0.3,1.7-0.3c1,0,1.8,0.2,2.4,0.7c0.6,0.5,0.9,1.2,0.9,2.1v3.3c0,0.1,0,0.2,0,0.3
			c0,0.1,0,0.2,0,0.3l0.7,0.1v1.3H553.5z M551.6,22.1c0.3,0,0.6-0.1,0.9-0.2c0.3-0.1,0.5-0.3,0.6-0.5v-1.2H552c-0.5,0-0.8,0.1-1,0.3
			c-0.2,0.2-0.4,0.5-0.4,0.8c0,0.3,0.1,0.5,0.3,0.6C551,22,551.3,22.1,551.6,22.1z"/>
		<path class="st3" d="M556.5,16.9v-1.3h3.1l0.1,0.9c0.2-0.3,0.5-0.6,0.8-0.8s0.7-0.3,1.1-0.3c1,0,1.7,0.4,2.3,1.1
			c0.5,0.8,0.8,1.8,0.8,3v0.2c0,1.2-0.3,2.1-0.8,2.8c-0.5,0.7-1.3,1.1-2.3,1.1c-0.4,0-0.8-0.1-1.1-0.2c-0.3-0.2-0.6-0.4-0.8-0.7V25
			l1,0.2v1.3h-4.2v-1.3l1-0.2v-8L556.5,16.9z M562.6,19.6c0-0.7-0.1-1.4-0.4-1.8s-0.6-0.7-1.1-0.7c-0.3,0-0.6,0.1-0.8,0.2
			c-0.2,0.1-0.4,0.3-0.5,0.6v3.5c0.1,0.2,0.3,0.4,0.5,0.5c0.2,0.1,0.5,0.2,0.8,0.2c0.5,0,0.9-0.2,1.1-0.6c0.2-0.4,0.4-1,0.4-1.6
			V19.6z"/>
	</g>
	<g class="st2">
		<path class="st3" d="M570.8,23.5c-0.1-0.1-0.1-0.3-0.2-0.4c0-0.1-0.1-0.3-0.1-0.4c-0.3,0.3-0.6,0.5-0.9,0.7
			c-0.4,0.2-0.8,0.3-1.3,0.3c-0.8,0-1.4-0.2-1.8-0.6c-0.5-0.4-0.7-1-0.7-1.7c0-0.7,0.3-1.3,0.9-1.7s1.5-0.6,2.6-0.6h1.1v-0.8
			c0-0.4-0.1-0.7-0.3-0.9c-0.2-0.2-0.5-0.3-1-0.3c-0.2,0-0.5,0-0.7,0.1c-0.2,0.1-0.3,0.1-0.5,0.2l-0.1,0.8h-1.6l0-1.8
			c0.4-0.3,0.8-0.5,1.3-0.7c0.5-0.2,1.1-0.3,1.7-0.3c1,0,1.8,0.2,2.4,0.7c0.6,0.5,0.9,1.2,0.9,2.1v3.3c0,0.1,0,0.2,0,0.3
			c0,0.1,0,0.2,0,0.3l0.7,0.1v1.3H570.8z M568.9,22.1c0.3,0,0.6-0.1,0.9-0.2c0.3-0.1,0.5-0.3,0.6-0.5v-1.2h-1.1
			c-0.5,0-0.8,0.1-1,0.3c-0.2,0.2-0.4,0.5-0.4,0.8c0,0.3,0.1,0.5,0.3,0.6S568.6,22.1,568.9,22.1z"/>
	</g>
	<g class="st2">
		<path class="st3" d="M581.4,19.7c0,1.2-0.3,2.1-0.8,2.8s-1.3,1.1-2.3,1.1c-0.5,0-0.9-0.1-1.2-0.3c-0.3-0.2-0.6-0.5-0.9-0.8l-0.2,1
			h-1.8v-9.9l-1.1-0.2v-1.3h3.3v4.3c0.2-0.3,0.5-0.6,0.8-0.7s0.7-0.3,1.1-0.3c1,0,1.8,0.4,2.3,1.1c0.5,0.8,0.8,1.8,0.8,3V19.7z
			 M579.3,19.6c0-0.8-0.1-1.4-0.3-1.8c-0.2-0.5-0.6-0.7-1.2-0.7c-0.3,0-0.6,0.1-0.8,0.2c-0.2,0.1-0.4,0.3-0.5,0.6v3.3
			c0.1,0.2,0.3,0.4,0.5,0.6c0.2,0.1,0.5,0.2,0.9,0.2c0.6,0,0.9-0.2,1.2-0.6c0.2-0.4,0.3-0.9,0.3-1.7V19.6z"/>
	</g>
	<g class="st2">
		<path class="st3" d="M582,13.4v-1.3h3.3V22l1,0.2v1.3h-4.2v-1.3l1-0.2v-8.4L582,13.4z"/>
		<path class="st3" d="M590.8,23.6c-1.1,0-2.1-0.4-2.7-1.1s-1-1.7-1-2.8v-0.3c0-1.2,0.3-2.1,1-2.9c0.6-0.8,1.5-1.1,2.6-1.1
			c1.1,0,1.9,0.3,2.5,1s0.9,1.5,0.9,2.6v1.2h-4.7l0,0c0,0.5,0.2,1,0.5,1.3c0.3,0.3,0.7,0.5,1.3,0.5c0.5,0,0.9,0,1.2-0.1
			c0.3-0.1,0.7-0.2,1-0.5l0.6,1.3c-0.3,0.3-0.8,0.5-1.3,0.7C592,23.6,591.5,23.6,590.8,23.6z M590.6,17.1c-0.4,0-0.7,0.2-0.9,0.5
			s-0.4,0.7-0.4,1.2l0,0h2.6v-0.2c0-0.5-0.1-0.8-0.3-1.1C591.4,17.2,591.1,17.1,590.6,17.1z"/>
	</g>
	<g class="st2">
		<path class="st3" d="M598.6,22.2l1-0.2v-8.4l-1.1-0.2v-1.3h3.3v4.5c0.2-0.4,0.6-0.7,0.9-0.9c0.4-0.2,0.8-0.3,1.2-0.3
			c0.8,0,1.5,0.3,2,0.8c0.5,0.5,0.7,1.4,0.7,2.5V22l1,0.2v1.3h-4.1v-1.3l0.9-0.2v-3.2c0-0.6-0.1-1.1-0.3-1.3c-0.2-0.3-0.5-0.4-1-0.4
			c-0.3,0-0.6,0.1-0.8,0.2c-0.2,0.1-0.4,0.3-0.6,0.5V22l0.9,0.2v1.3h-4.1V22.2z"/>
	</g>
	<g class="st2">
		<path class="st3" d="M608.2,19.5c0-1.2,0.3-2.2,1-2.9c0.7-0.8,1.6-1.1,2.7-1.1c1.2,0,2.1,0.4,2.8,1.1s1,1.7,1,2.9v0.2
			c0,1.2-0.3,2.2-1,2.9c-0.7,0.8-1.6,1.1-2.7,1.1c-1.2,0-2.1-0.4-2.8-1.1c-0.7-0.7-1-1.7-1-2.9V19.5z M610.3,19.6
			c0,0.7,0.1,1.3,0.4,1.7c0.3,0.4,0.7,0.7,1.2,0.7c0.6,0,1-0.2,1.2-0.7s0.4-1,0.4-1.7v-0.2c0-0.7-0.1-1.3-0.4-1.7
			c-0.3-0.4-0.7-0.7-1.2-0.7s-1,0.2-1.2,0.7s-0.4,1-0.4,1.7V19.6z"/>
		<path class="st3" d="M623,18.3h-1.4l-0.2-1c-0.1-0.1-0.3-0.2-0.6-0.3c-0.2-0.1-0.5-0.1-0.7-0.1c-0.4,0-0.7,0.1-0.9,0.3
			c-0.2,0.2-0.3,0.4-0.3,0.6c0,0.2,0.1,0.4,0.3,0.6c0.2,0.2,0.6,0.3,1.3,0.4c1,0.2,1.7,0.5,2.2,0.9c0.5,0.4,0.7,0.9,0.7,1.6
			c0,0.7-0.3,1.3-0.9,1.7c-0.6,0.5-1.4,0.7-2.4,0.7c-0.6,0-1.2-0.1-1.7-0.3c-0.5-0.2-1-0.4-1.4-0.8l0-1.8h1.5l0.3,1
			c0.1,0.1,0.3,0.2,0.5,0.2c0.2,0.1,0.4,0.1,0.7,0.1c0.4,0,0.8-0.1,1-0.2s0.3-0.4,0.3-0.6c0-0.2-0.1-0.4-0.3-0.6
			c-0.2-0.2-0.7-0.3-1.3-0.5c-0.9-0.2-1.6-0.5-2.1-0.8c-0.5-0.4-0.7-0.9-0.7-1.5c0-0.7,0.3-1.2,0.8-1.7c0.5-0.5,1.3-0.7,2.3-0.7
			c0.6,0,1.2,0.1,1.7,0.2c0.5,0.2,1,0.4,1.3,0.6L623,18.3z"/>
		<path class="st3" d="M627.4,13.6v1.9h1.4v1.5h-1.4v4c0,0.3,0.1,0.5,0.2,0.7s0.3,0.2,0.5,0.2c0.1,0,0.3,0,0.4,0
			c0.1,0,0.2,0,0.4-0.1l0.2,1.5c-0.2,0.1-0.5,0.1-0.7,0.2c-0.2,0-0.5,0.1-0.8,0.1c-0.7,0-1.3-0.2-1.7-0.6c-0.4-0.4-0.6-1-0.6-1.9v-4
			h-1.2v-1.5h1.2v-1.9H627.4z"/>
	</g>
	<path class="st4" d="M381.8,23h-4.3c-0.6,0-0.8-0.2-0.8-0.8v-6.4c0-0.6,0.2-0.8,0.8-0.8h8.5c0.5,0,0.8,0.2,0.8,0.8v6.5
		c0,0.5-0.2,0.8-0.8,0.8C384.6,23.1,383.2,23,381.8,23z"/>
	<path class="st4" d="M380.4,6.8c1.6-0.7,3.5-0.5,4.9,0.7c1.7,1.6,1.9,4.2,0.3,5.9c-0.2,0.2-0.3,0.4-0.5,0.5c-0.3,0.3-0.6,0.4-1,0.7
		"/>
	<path class="st5" d="M381.1,20.3L381.1,20.3v0.9c0,0.2,0.1,0.2,0.3,0.2h0.8c0.2,0,0.3-0.1,0.3-0.3v-1.6c0-0.2,0.1-0.3,0.2-0.4
		c0.5-0.3,0.8-0.9,0.6-1.5c-0.2-0.6-0.8-1-1.5-1c-0.7-0.1-1.3,0.3-1.6,0.9c-0.2,0.6,0,1.2,0.5,1.5c0.2,0.1,0.3,0.3,0.3,0.5
		C381.1,19.8,381.1,20,381.1,20.3z"/>
	<g class="st2">
		<path class="st3" d="M658.3,84.6h-2.6l-0.6,1.9h-1.6l3-8.5h1.2l3,8.5h-1.7L658.3,84.6z M656.1,83.3h1.8l-0.6-1.9l-0.3-1.3H657
			l-0.3,1.3L656.1,83.3z"/>
		<path class="st3" d="M661.3,80.5h1.1l0.2,0.7h0c0.2-0.3,0.5-0.5,0.7-0.7c0.3-0.1,0.6-0.2,1-0.2c0.8,0,1.3,0.2,1.7,0.7
			c0.4,0.5,0.6,1.2,0.6,2.3c0,0.5-0.1,1-0.2,1.4c-0.1,0.4-0.3,0.8-0.5,1c-0.2,0.3-0.5,0.5-0.9,0.7c-0.3,0.2-0.7,0.2-1.2,0.2
			c-0.2,0-0.5,0-0.6-0.1s-0.3-0.1-0.5-0.2v2.5h-1.6V80.5z M664,81.7c-0.3,0-0.5,0.1-0.7,0.2c-0.2,0.2-0.3,0.4-0.4,0.7v2.5
			c0.1,0.1,0.2,0.2,0.4,0.2c0.1,0.1,0.3,0.1,0.5,0.1c0.4,0,0.8-0.2,1-0.5s0.3-0.8,0.3-1.6c0-0.5-0.1-0.9-0.3-1.2
			S664.4,81.7,664,81.7z"/>
		<path class="st3" d="M667.8,80.5h1.1l0.2,0.7h0c0.2-0.3,0.5-0.5,0.7-0.7c0.3-0.1,0.6-0.2,1-0.2c0.8,0,1.3,0.2,1.7,0.7
			c0.4,0.5,0.6,1.2,0.6,2.3c0,0.5-0.1,1-0.2,1.4s-0.3,0.8-0.5,1s-0.5,0.5-0.9,0.7c-0.3,0.2-0.7,0.2-1.2,0.2c-0.2,0-0.5,0-0.6-0.1
			c-0.2,0-0.3-0.1-0.5-0.2v2.5h-1.6V80.5z M670.5,81.7c-0.3,0-0.5,0.1-0.7,0.2c-0.2,0.2-0.3,0.4-0.4,0.7v2.5
			c0.1,0.1,0.2,0.2,0.4,0.2c0.1,0.1,0.3,0.1,0.5,0.1c0.4,0,0.8-0.2,1-0.5c0.2-0.3,0.3-0.8,0.3-1.6c0-0.5-0.1-0.9-0.3-1.2
			S670.9,81.7,670.5,81.7z"/>
		<path class="st3" d="M675.9,84.5c0,0.3,0,0.5,0.1,0.6c0.1,0.1,0.2,0.2,0.3,0.2c0.1,0,0.2,0,0.3,0c0.1,0,0.2-0.1,0.3-0.1l0.2,1.2
			c-0.1,0.1-0.3,0.1-0.6,0.2c-0.3,0.1-0.5,0.1-0.8,0.1c-0.5,0-0.8-0.1-1-0.3s-0.4-0.6-0.4-1v-7.2h1.6V84.5z"/>
		<path class="st3" d="M677.7,78.8c0-0.2,0.1-0.4,0.3-0.6c0.2-0.2,0.4-0.2,0.7-0.2c0.3,0,0.5,0.1,0.7,0.2c0.2,0.2,0.3,0.4,0.3,0.6
			c0,0.2-0.1,0.4-0.3,0.6c-0.2,0.2-0.4,0.2-0.7,0.2c-0.3,0-0.5-0.1-0.7-0.2C677.8,79.2,677.7,79,677.7,78.8z M678,80.5h1.6v6H678
			V80.5z"/>
		<path class="st3" d="M685.3,86.1c-0.2,0.2-0.5,0.3-0.9,0.4s-0.7,0.1-1,0.1c-0.5,0-0.9-0.1-1.2-0.2c-0.3-0.2-0.6-0.4-0.8-0.6
			c-0.2-0.3-0.4-0.6-0.4-1c-0.1-0.4-0.1-0.8-0.1-1.3c0-1,0.2-1.8,0.7-2.3s1.1-0.8,2-0.8c0.4,0,0.8,0,1.1,0.1
			c0.3,0.1,0.5,0.2,0.7,0.3l-0.4,1.3c-0.2-0.1-0.4-0.2-0.5-0.2c-0.2,0-0.4-0.1-0.6-0.1c-0.4,0-0.8,0.1-1,0.4
			c-0.2,0.3-0.3,0.7-0.3,1.4c0,0.3,0,0.5,0.1,0.7c0.1,0.2,0.1,0.4,0.3,0.6c0.1,0.2,0.3,0.3,0.4,0.4c0.2,0.1,0.4,0.1,0.6,0.1
			c0.3,0,0.5,0,0.7-0.1c0.2-0.1,0.3-0.1,0.5-0.2L685.3,86.1z"/>
		<path class="st3" d="M686.2,80.8c0.3-0.1,0.7-0.3,1.1-0.3c0.4-0.1,0.9-0.1,1.4-0.1c0.4,0,0.8,0,1,0.2c0.3,0.1,0.5,0.2,0.7,0.4
			s0.3,0.4,0.3,0.7s0.1,0.5,0.1,0.9c0,0.4,0,0.7,0,1.1c0,0.4,0,0.7,0,1c0,0.3,0,0.7,0,1c0,0.3,0.1,0.6,0.2,0.9h-1.3l-0.3-0.8h-0.1
			c-0.2,0.2-0.4,0.5-0.7,0.6c-0.3,0.2-0.7,0.3-1.1,0.3c-0.3,0-0.5,0-0.8-0.1c-0.2-0.1-0.4-0.2-0.6-0.4c-0.2-0.2-0.3-0.3-0.4-0.6
			c-0.1-0.2-0.1-0.4-0.1-0.7c0-0.4,0.1-0.7,0.2-0.9s0.4-0.5,0.7-0.6c0.3-0.2,0.7-0.3,1.1-0.3c0.4-0.1,0.9-0.1,1.4-0.1
			c0.1-0.4,0-0.8-0.1-1s-0.4-0.3-0.8-0.3c-0.3,0-0.6,0-1,0.1c-0.3,0.1-0.6,0.1-0.9,0.3L686.2,80.8z M688.2,85.3
			c0.3,0,0.6-0.1,0.7-0.2c0.2-0.1,0.3-0.3,0.4-0.4v-0.8c-0.2,0-0.5,0-0.7,0c-0.2,0-0.4,0.1-0.6,0.1c-0.2,0.1-0.3,0.1-0.4,0.2
			c-0.1,0.1-0.2,0.2-0.2,0.4c0,0.2,0.1,0.4,0.2,0.5S688,85.3,688.2,85.3z"/>
		<path class="st3" d="M691.6,80.5h0.8v-1.1l1.6-0.4v1.6h1.5v1.3H694v2.3c0,0.4,0,0.7,0.1,0.9c0.1,0.2,0.2,0.3,0.5,0.3
			c0.2,0,0.3,0,0.4,0s0.2-0.1,0.4-0.1l0.3,1.2c-0.2,0.1-0.5,0.2-0.8,0.3c-0.3,0.1-0.6,0.1-0.9,0.1c-0.6,0-1-0.1-1.2-0.4
			c-0.3-0.3-0.4-0.8-0.4-1.4v-3h-0.8V80.5z"/>
		<path class="st3" d="M696.3,78.8c0-0.2,0.1-0.4,0.3-0.6s0.4-0.2,0.7-0.2s0.5,0.1,0.7,0.2c0.2,0.2,0.3,0.4,0.3,0.6
			c0,0.2-0.1,0.4-0.3,0.6c-0.2,0.2-0.4,0.2-0.7,0.2s-0.5-0.1-0.7-0.2C696.4,79.2,696.3,79,696.3,78.8z M696.5,80.5h1.6v6h-1.6V80.5z
			"/>
		<path class="st3" d="M699.3,83.5c0-1,0.2-1.8,0.7-2.3c0.5-0.5,1.2-0.8,2.1-0.8c0.5,0,0.9,0.1,1.2,0.2c0.4,0.2,0.6,0.4,0.9,0.6
			c0.2,0.3,0.4,0.6,0.5,1s0.2,0.8,0.2,1.3c0,1-0.2,1.8-0.7,2.3c-0.5,0.5-1.2,0.8-2.1,0.8c-0.5,0-0.9-0.1-1.2-0.2
			c-0.4-0.2-0.6-0.4-0.9-0.6c-0.2-0.3-0.4-0.6-0.5-1C699.4,84.4,699.3,84,699.3,83.5z M700.9,83.5c0,0.3,0,0.5,0.1,0.7
			c0,0.2,0.1,0.4,0.2,0.6c0.1,0.2,0.2,0.3,0.4,0.4c0.2,0.1,0.3,0.1,0.6,0.1c0.4,0,0.7-0.1,0.9-0.4c0.2-0.3,0.3-0.8,0.3-1.4
			c0-0.6-0.1-1-0.3-1.3c-0.2-0.3-0.5-0.5-0.9-0.5c-0.4,0-0.7,0.1-0.9,0.4S700.9,82.8,700.9,83.5z"/>
		<path class="st3" d="M709.7,86.5v-3.4c0-0.5-0.1-0.8-0.2-1.1s-0.4-0.3-0.7-0.3c-0.3,0-0.5,0.1-0.8,0.3c-0.2,0.2-0.3,0.4-0.4,0.6
			v3.9h-1.6v-6h1.2l0.2,0.8h0c0.2-0.3,0.4-0.5,0.7-0.7c0.3-0.2,0.7-0.3,1.2-0.3c0.3,0,0.6,0,0.8,0.1s0.4,0.2,0.6,0.4
			c0.2,0.2,0.3,0.4,0.4,0.8c0.1,0.3,0.1,0.7,0.1,1.2v3.7H709.7z"/>
	</g>
	<g class="st2">
		<path class="st3" d="M657.2,95.8c-0.2-0.1-0.5-0.1-0.7-0.1c-0.3,0-0.6,0.1-0.8,0.3c-0.2,0.2-0.3,0.4-0.4,0.7v4.2h-1v-6h0.7
			l0.2,0.7h0c0.2-0.3,0.3-0.5,0.5-0.6c0.2-0.1,0.5-0.2,0.8-0.2c0.2,0,0.5,0,0.8,0.1L657.2,95.8z"/>
		<path class="st3" d="M659.3,94.9v3.4c0,0.3,0,0.6,0.1,0.8s0.1,0.4,0.2,0.6s0.2,0.3,0.4,0.4c0.2,0.1,0.3,0.1,0.6,0.1
			c0.2,0,0.4,0,0.6-0.1s0.3-0.2,0.5-0.3c0.1-0.1,0.2-0.3,0.3-0.4c0.1-0.2,0.2-0.3,0.2-0.5v-4h1v4.3c0,0.3,0,0.6,0,0.9
			c0,0.3,0.1,0.6,0.1,0.8h-0.7l-0.2-0.9h-0.1c-0.2,0.3-0.4,0.6-0.7,0.8c-0.3,0.2-0.7,0.3-1.2,0.3c-0.3,0-0.6,0-0.8-0.1
			c-0.2-0.1-0.4-0.2-0.6-0.4c-0.2-0.2-0.3-0.5-0.4-0.8c-0.1-0.3-0.1-0.7-0.1-1.2v-3.6H659.3z"/>
		<path class="st3" d="M668.7,100.9v-3.4c0-0.6-0.1-1.1-0.3-1.4c-0.2-0.3-0.5-0.5-1-0.5c-0.4,0-0.8,0.1-1,0.3
			c-0.3,0.2-0.5,0.5-0.6,0.9v4.1h-1v-6h0.7l0.2,0.7h0c0.2-0.3,0.4-0.5,0.8-0.6c0.3-0.2,0.7-0.2,1.2-0.2c0.3,0,0.6,0,0.9,0.1
			c0.2,0.1,0.5,0.2,0.6,0.4s0.3,0.5,0.4,0.8c0.1,0.3,0.1,0.7,0.1,1.2v3.6H668.7z"/>
		<path class="st3" d="M674.1,99.3c0-0.2-0.1-0.4-0.2-0.6c-0.1-0.1-0.3-0.3-0.5-0.3s-0.4-0.2-0.7-0.3s-0.5-0.2-0.7-0.3
			s-0.4-0.3-0.5-0.5c-0.1-0.2-0.2-0.5-0.2-0.8c0-0.6,0.2-1,0.5-1.3c0.3-0.3,0.8-0.4,1.4-0.4c0.4,0,0.8,0,1.1,0.1
			c0.3,0.1,0.5,0.2,0.8,0.3l-0.2,0.8c-0.2-0.1-0.4-0.2-0.7-0.2c-0.3-0.1-0.5-0.1-0.8-0.1c-0.4,0-0.6,0.1-0.8,0.2s-0.2,0.3-0.2,0.6
			c0,0.2,0.1,0.4,0.2,0.5c0.1,0.1,0.3,0.2,0.5,0.3s0.4,0.2,0.7,0.3s0.5,0.2,0.7,0.3s0.4,0.3,0.5,0.5c0.1,0.2,0.2,0.5,0.2,0.9
			c0,0.3,0,0.5-0.1,0.7c-0.1,0.2-0.2,0.4-0.4,0.6c-0.2,0.2-0.4,0.3-0.7,0.4c-0.3,0.1-0.6,0.1-0.9,0.1c-0.5,0-0.8,0-1.2-0.1
			c-0.3-0.1-0.6-0.2-0.8-0.3l0.3-0.8c0.2,0.1,0.4,0.2,0.7,0.3s0.6,0.1,0.9,0.1c0.3,0,0.6-0.1,0.9-0.2
			C674,99.9,674.1,99.6,674.1,99.3z"/>
		<path class="st3" d="M679.7,93.1c0-0.2,0.1-0.3,0.2-0.5s0.3-0.2,0.5-0.2c0.2,0,0.4,0.1,0.5,0.2s0.2,0.3,0.2,0.5
			c0,0.2-0.1,0.3-0.2,0.5s-0.3,0.2-0.5,0.2c-0.2,0-0.3-0.1-0.5-0.2S679.7,93.3,679.7,93.1z M679.9,94.9h1v6h-1V94.9z"/>
		<path class="st3" d="M686.8,100.9v-3.4c0-0.6-0.1-1.1-0.3-1.4c-0.2-0.3-0.5-0.5-1-0.5c-0.4,0-0.8,0.1-1.1,0.3
			c-0.3,0.2-0.5,0.5-0.6,0.9v4.1h-1v-6h0.7l0.2,0.7h0c0.2-0.3,0.5-0.5,0.8-0.6c0.3-0.2,0.7-0.2,1.2-0.2c0.3,0,0.6,0,0.9,0.1
			c0.2,0.1,0.5,0.2,0.6,0.4s0.3,0.5,0.4,0.8c0.1,0.3,0.1,0.7,0.1,1.2v3.6H686.8z"/>
		<path class="st3" d="M692.1,99.3c0-0.2-0.1-0.4-0.2-0.6c-0.1-0.1-0.3-0.3-0.5-0.3s-0.4-0.2-0.7-0.3s-0.5-0.2-0.7-0.3
			s-0.4-0.3-0.5-0.5c-0.1-0.2-0.2-0.5-0.2-0.8c0-0.6,0.2-1,0.5-1.3c0.3-0.3,0.8-0.4,1.4-0.4c0.4,0,0.8,0,1.1,0.1
			c0.3,0.1,0.5,0.2,0.8,0.3l-0.2,0.8c-0.2-0.1-0.4-0.2-0.7-0.2c-0.3-0.1-0.5-0.1-0.8-0.1c-0.4,0-0.6,0.1-0.8,0.2s-0.2,0.3-0.2,0.6
			c0,0.2,0.1,0.4,0.2,0.5c0.1,0.1,0.3,0.2,0.5,0.3s0.4,0.2,0.7,0.3s0.5,0.2,0.7,0.3s0.4,0.3,0.5,0.5c0.1,0.2,0.2,0.5,0.2,0.9
			c0,0.3,0,0.5-0.1,0.7c-0.1,0.2-0.2,0.4-0.4,0.6s-0.4,0.3-0.7,0.4s-0.6,0.1-0.9,0.1c-0.5,0-0.8,0-1.2-0.1c-0.3-0.1-0.6-0.2-0.8-0.3
			l0.3-0.8c0.2,0.1,0.4,0.2,0.7,0.3s0.6,0.1,0.9,0.1c0.3,0,0.6-0.1,0.9-0.2C692,99.9,692.1,99.6,692.1,99.3z"/>
		<path class="st3" d="M694.5,93.1c0-0.2,0.1-0.3,0.2-0.5s0.3-0.2,0.5-0.2c0.2,0,0.4,0.1,0.5,0.2c0.1,0.1,0.2,0.3,0.2,0.5
			c0,0.2-0.1,0.3-0.2,0.5c-0.1,0.1-0.3,0.2-0.5,0.2c-0.2,0-0.4-0.1-0.5-0.2S694.5,93.3,694.5,93.1z M694.7,94.9h1v6h-1V94.9z"/>
		<path class="st3" d="M702.3,98.8c0,0.4,0,0.8,0,1.1s0,0.7,0.1,1h-0.6l-0.2-0.9h0c-0.2,0.3-0.4,0.5-0.7,0.7
			c-0.3,0.2-0.7,0.3-1.1,0.3c-0.8,0-1.4-0.3-1.8-0.8c-0.4-0.5-0.6-1.3-0.6-2.4c0-1,0.2-1.8,0.7-2.3c0.5-0.5,1.2-0.8,2-0.8
			c0.3,0,0.5,0,0.7,0c0.2,0,0.4,0.1,0.6,0.2v-2.5h1V98.8z M699.9,100.2c0.4,0,0.7-0.1,1-0.3c0.2-0.2,0.4-0.5,0.5-1v-3
			c-0.1-0.1-0.3-0.2-0.5-0.2c-0.2,0-0.4-0.1-0.7-0.1c-0.6,0-1,0.2-1.3,0.5s-0.5,0.9-0.5,1.7c0,0.3,0,0.6,0.1,0.9
			c0.1,0.3,0.1,0.5,0.3,0.7s0.3,0.4,0.5,0.5S699.6,100.2,699.9,100.2z"/>
		<path class="st3" d="M708.6,100.4c-0.2,0.2-0.5,0.3-0.9,0.5c-0.4,0.1-0.8,0.2-1.2,0.2c-0.5,0-0.9-0.1-1.2-0.2
			c-0.3-0.1-0.6-0.4-0.8-0.6c-0.2-0.3-0.4-0.6-0.5-1c-0.1-0.4-0.2-0.8-0.2-1.3c0-1,0.2-1.8,0.7-2.3s1.1-0.8,2-0.8
			c0.3,0,0.5,0,0.8,0.1c0.3,0.1,0.5,0.2,0.7,0.3c0.2,0.2,0.4,0.4,0.5,0.7c0.1,0.3,0.2,0.7,0.2,1.2c0,0.3,0,0.6-0.1,0.9h-3.9
			c0,0.4,0,0.7,0.1,0.9c0.1,0.3,0.2,0.5,0.3,0.7c0.2,0.2,0.4,0.3,0.6,0.4c0.2,0.1,0.5,0.1,0.9,0.1c0.3,0,0.5,0,0.8-0.1
			c0.3-0.1,0.5-0.2,0.6-0.3L708.6,100.4z M706.5,95.6c-0.5,0-0.9,0.1-1.1,0.4s-0.5,0.7-0.5,1.3h3c0-0.6-0.1-1-0.3-1.3
			C707.3,95.7,706.9,95.6,706.5,95.6z"/>
	</g>
	<g class="st2">
		<path class="st3" d="M658.2,113.2c0-0.3-0.1-0.6-0.3-0.8s-0.5-0.4-0.8-0.6c-0.3-0.2-0.6-0.3-1-0.5c-0.4-0.1-0.7-0.3-1-0.5
			s-0.5-0.5-0.8-0.8s-0.3-0.7-0.3-1.1c0-0.7,0.2-1.2,0.7-1.6s1.1-0.6,1.9-0.6c0.5,0,0.9,0,1.3,0.1c0.4,0.1,0.7,0.2,0.9,0.3l-0.3,0.9
			c-0.2-0.1-0.5-0.2-0.8-0.3c-0.4-0.1-0.8-0.1-1.2-0.1c-0.5,0-0.9,0.1-1.2,0.4c-0.3,0.2-0.4,0.5-0.4,0.8c0,0.3,0.1,0.6,0.3,0.8
			c0.2,0.2,0.5,0.4,0.8,0.6s0.6,0.3,1,0.5c0.4,0.2,0.7,0.3,1,0.6s0.5,0.5,0.8,0.8s0.3,0.7,0.3,1.1c0,0.4-0.1,0.7-0.2,1
			c-0.1,0.3-0.3,0.5-0.6,0.7s-0.5,0.4-0.9,0.5c-0.4,0.1-0.8,0.2-1.2,0.2c-0.6,0-1.1,0-1.5-0.1c-0.4-0.1-0.7-0.2-0.9-0.3l0.3-0.9
			c0.2,0.1,0.5,0.2,0.8,0.3c0.4,0.1,0.8,0.1,1.2,0.1c0.3,0,0.5,0,0.7-0.1c0.2-0.1,0.4-0.1,0.6-0.3c0.2-0.1,0.3-0.3,0.4-0.4
			C658.2,113.6,658.2,113.4,658.2,113.2z"/>
		<path class="st3" d="M663.6,111.1h2.8v3.7c-0.1,0.1-0.3,0.2-0.5,0.3c-0.2,0.1-0.4,0.1-0.6,0.2c-0.2,0.1-0.4,0.1-0.6,0.1
			c-0.2,0-0.4,0-0.6,0c-0.5,0-1-0.1-1.5-0.3s-0.8-0.4-1.2-0.8c-0.3-0.4-0.6-0.8-0.8-1.4c-0.2-0.5-0.3-1.2-0.3-1.9
			c0-0.8,0.1-1.4,0.3-2c0.2-0.6,0.5-1,0.9-1.3s0.8-0.6,1.2-0.8s0.9-0.2,1.3-0.2c0.5,0,0.9,0,1.2,0.1c0.3,0.1,0.6,0.1,0.8,0.2
			l-0.3,0.9c-0.4-0.2-0.9-0.3-1.6-0.3c-0.3,0-0.7,0.1-1,0.2c-0.3,0.1-0.6,0.3-0.9,0.6c-0.3,0.3-0.5,0.6-0.6,1.1
			c-0.2,0.4-0.3,1-0.3,1.6c0,0.6,0.1,1.1,0.2,1.5c0.1,0.4,0.3,0.8,0.6,1.1c0.2,0.3,0.5,0.5,0.9,0.6c0.3,0.1,0.7,0.2,1.1,0.2
			c0.5,0,0.9-0.1,1.3-0.3v-2.3l-2-0.2V111.1z"/>
	</g>
	<g class="st2">
		<path class="st3" d="M670.2,111l-2.6-4.1h1.2l1.7,2.8l0.3,0.7l0.3-0.7l1.8-2.8h1.1l-2.6,4l2.8,4.4H673l-1.9-3l-0.3-0.7l-0.3,0.7
			l-1.9,3h-1.1L670.2,111z"/>
	</g>
	<g class="st2">
		<path class="st3" d="M682.7,114.8c-0.2,0.2-0.5,0.3-0.9,0.5c-0.4,0.1-0.8,0.2-1.2,0.2c-0.5,0-0.9-0.1-1.2-0.2
			c-0.3-0.1-0.6-0.4-0.8-0.6c-0.2-0.3-0.4-0.6-0.5-1s-0.2-0.8-0.2-1.3c0-1,0.2-1.8,0.7-2.3s1.1-0.8,2-0.8c0.3,0,0.5,0,0.8,0.1
			c0.3,0.1,0.5,0.2,0.7,0.3s0.4,0.4,0.5,0.7c0.1,0.3,0.2,0.7,0.2,1.2c0,0.3,0,0.6-0.1,0.9H679c0,0.4,0,0.7,0.1,0.9
			c0.1,0.3,0.2,0.5,0.3,0.7c0.2,0.2,0.3,0.3,0.6,0.4c0.2,0.1,0.5,0.1,0.9,0.1c0.3,0,0.5,0,0.8-0.1c0.3-0.1,0.5-0.2,0.6-0.3
			L682.7,114.8z M680.6,110c-0.5,0-0.9,0.1-1.1,0.4c-0.3,0.2-0.5,0.7-0.5,1.3h3c0-0.6-0.1-1-0.3-1.3C681.4,110.1,681,110,680.6,110z
			"/>
		<path class="st3" d="M688.2,115.3v-3.4c0-0.6-0.1-1.1-0.3-1.4c-0.2-0.3-0.5-0.5-1-0.5c-0.4,0-0.8,0.1-1.1,0.3
			c-0.3,0.2-0.5,0.5-0.6,0.9v4.1h-1v-6h0.7l0.2,0.7h0c0.2-0.3,0.5-0.5,0.8-0.6c0.3-0.2,0.7-0.2,1.2-0.2c0.3,0,0.6,0,0.9,0.1
			c0.2,0.1,0.5,0.2,0.6,0.4s0.3,0.5,0.4,0.8c0.1,0.3,0.1,0.7,0.1,1.2v3.6H688.2z"/>
		<path class="st3" d="M695,114.9c-0.2,0.2-0.5,0.3-0.9,0.4c-0.3,0.1-0.7,0.1-1,0.1c-0.5,0-0.9-0.1-1.2-0.2
			c-0.3-0.1-0.6-0.4-0.8-0.6c-0.2-0.3-0.4-0.6-0.4-1s-0.1-0.8-0.1-1.3c0-1,0.2-1.8,0.7-2.3s1.1-0.8,1.9-0.8c0.4,0,0.7,0,1,0.1
			c0.3,0.1,0.5,0.1,0.7,0.3l-0.3,0.8c-0.2-0.1-0.4-0.2-0.6-0.2c-0.2-0.1-0.5-0.1-0.7-0.1c-1.1,0-1.7,0.8-1.7,2.3
			c0,0.3,0,0.6,0.1,0.9c0.1,0.3,0.2,0.5,0.3,0.7c0.1,0.2,0.3,0.4,0.6,0.5c0.2,0.1,0.5,0.2,0.8,0.2c0.3,0,0.5,0,0.8-0.1
			c0.2-0.1,0.4-0.2,0.6-0.3L695,114.9z"/>
		<path class="st3" d="M697.4,113.8c0,0.3,0,0.5,0.1,0.6s0.2,0.2,0.4,0.2c0.1,0,0.2,0,0.3,0c0.1,0,0.3-0.1,0.4-0.1l0.1,0.8
			c-0.1,0.1-0.3,0.1-0.5,0.2c-0.2,0-0.4,0.1-0.6,0.1c-0.4,0-0.7-0.1-0.9-0.3c-0.2-0.2-0.3-0.5-0.3-1v-7.2h1V113.8z"/>
		<path class="st3" d="M699.8,109.7c0.3-0.2,0.7-0.3,1.1-0.4s0.8-0.1,1.3-0.1c0.4,0,0.8,0.1,1,0.2c0.3,0.1,0.4,0.3,0.6,0.4
			c0.1,0.2,0.2,0.4,0.3,0.6c0,0.2,0.1,0.4,0.1,0.6c0,0.5,0,0.9,0,1.4c0,0.5,0,0.9,0,1.3c0,0.3,0,0.6,0,0.8c0,0.3,0.1,0.5,0.1,0.7
			h-0.7l-0.3-0.8h-0.1c-0.1,0.1-0.2,0.2-0.3,0.3c-0.1,0.1-0.2,0.2-0.4,0.3c-0.2,0.1-0.3,0.2-0.5,0.2c-0.2,0.1-0.4,0.1-0.7,0.1
			s-0.5,0-0.7-0.1c-0.2-0.1-0.4-0.2-0.6-0.3c-0.2-0.1-0.3-0.3-0.4-0.5c-0.1-0.2-0.1-0.4-0.1-0.7c0-0.4,0.1-0.6,0.2-0.9
			c0.1-0.2,0.3-0.4,0.6-0.6c0.3-0.1,0.6-0.2,0.9-0.3c0.4-0.1,0.8-0.1,1.2-0.1c0.1,0,0.2,0,0.3,0s0.2,0,0.3,0c0-0.2,0-0.5,0-0.6
			c0-0.4-0.1-0.7-0.3-0.9c-0.2-0.2-0.5-0.3-1-0.3c-0.1,0-0.3,0-0.4,0c-0.2,0-0.3,0-0.5,0.1s-0.3,0.1-0.5,0.1
			c-0.1,0.1-0.3,0.1-0.4,0.2L699.8,109.7z M701.5,114.6c0.2,0,0.4,0,0.6-0.1s0.3-0.1,0.5-0.2c0.1-0.1,0.2-0.2,0.3-0.3
			c0.1-0.1,0.1-0.2,0.2-0.3v-1c-0.1,0-0.2,0-0.3,0c-0.1,0-0.2,0-0.3,0c-0.2,0-0.5,0-0.7,0s-0.4,0.1-0.6,0.2s-0.3,0.2-0.4,0.3
			c-0.1,0.1-0.2,0.3-0.2,0.5c0,0.3,0.1,0.5,0.3,0.7C700.9,114.5,701.2,114.6,701.5,114.6z"/>
	</g>
	<g class="st2">
		<path class="st3" d="M707.6,112.8l0.3,1.1h0l0.3-1.2l1.3-3.5h1l-2.6,6.1h-0.4l-2.6-6.1h1.1L707.6,112.8z"/>
	</g>
	<g class="st2">
		<path class="st3" d="M715.9,114.8c-0.2,0.2-0.5,0.3-0.9,0.5c-0.4,0.1-0.8,0.2-1.2,0.2c-0.5,0-0.9-0.1-1.2-0.2
			c-0.3-0.1-0.6-0.4-0.8-0.6c-0.2-0.3-0.4-0.6-0.5-1s-0.2-0.8-0.2-1.3c0-1,0.2-1.8,0.7-2.3s1.1-0.8,2-0.8c0.3,0,0.5,0,0.8,0.1
			c0.3,0.1,0.5,0.2,0.7,0.3s0.4,0.4,0.5,0.7c0.1,0.3,0.2,0.7,0.2,1.2c0,0.3,0,0.6-0.1,0.9h-3.9c0,0.4,0,0.7,0.1,0.9
			c0.1,0.3,0.2,0.5,0.3,0.7c0.2,0.2,0.3,0.3,0.6,0.4c0.2,0.1,0.5,0.1,0.9,0.1c0.3,0,0.5,0,0.8-0.1c0.3-0.1,0.5-0.2,0.6-0.3
			L715.9,114.8z M713.8,110c-0.5,0-0.9,0.1-1.1,0.4c-0.3,0.2-0.5,0.7-0.5,1.3h3c0-0.6-0.1-1-0.3-1.3
			C714.5,110.1,714.2,110,713.8,110z"/>
	</g>
	<g class="st2">
		<path class="st3" d="M653.9,223.5c0-1.4,0.3-2.5,0.9-3.2c0.6-0.8,1.5-1.1,2.6-1.1c0.6,0,1.1,0.1,1.6,0.3s0.8,0.5,1.1,0.9
			s0.5,0.8,0.7,1.4c0.1,0.5,0.2,1.1,0.2,1.8c0,1.4-0.3,2.5-0.9,3.2c-0.6,0.8-1.5,1.1-2.6,1.1c-0.6,0-1.1-0.1-1.6-0.3
			c-0.4-0.2-0.8-0.5-1.1-0.9c-0.3-0.4-0.5-0.8-0.7-1.4C653.9,224.8,653.9,224.2,653.9,223.5z M655.6,223.5c0,0.4,0,0.8,0.1,1.2
			c0.1,0.4,0.2,0.7,0.3,0.9c0.1,0.3,0.3,0.5,0.6,0.6c0.2,0.1,0.5,0.2,0.8,0.2c0.6,0,1-0.2,1.4-0.7c0.3-0.5,0.5-1.2,0.5-2.2
			c0-0.4,0-0.8-0.1-1.1c-0.1-0.4-0.2-0.7-0.3-0.9c-0.1-0.3-0.3-0.5-0.6-0.6c-0.2-0.1-0.5-0.2-0.9-0.2c-0.6,0-1,0.2-1.4,0.7
			C655.7,221.8,655.6,222.5,655.6,223.5z"/>
		<path class="st3" d="M665.8,227.7v-3.4c0-0.5-0.1-0.8-0.2-1.1s-0.4-0.3-0.7-0.3c-0.3,0-0.5,0.1-0.8,0.3c-0.2,0.2-0.3,0.4-0.4,0.6
			v3.9h-1.6v-6h1.2l0.2,0.8h0c0.2-0.3,0.4-0.5,0.7-0.7c0.3-0.2,0.7-0.3,1.2-0.3c0.3,0,0.6,0,0.8,0.1s0.4,0.2,0.6,0.4
			c0.2,0.2,0.3,0.4,0.4,0.8c0.1,0.3,0.1,0.7,0.1,1.2v3.7H665.8z"/>
		<path class="st3" d="M670.3,225.7c0,0.3,0,0.5,0.1,0.6c0.1,0.1,0.2,0.2,0.3,0.2c0.1,0,0.2,0,0.3,0c0.1,0,0.2-0.1,0.3-0.1l0.2,1.2
			c-0.1,0.1-0.3,0.1-0.6,0.2c-0.3,0.1-0.5,0.1-0.8,0.1c-0.5,0-0.8-0.1-1-0.3s-0.4-0.6-0.4-1v-7.2h1.6V225.7z"/>
	</g>
	<g class="st2">
		<path class="st3" d="M674.4,225.1l0.2,0.9h0.1l0.2-0.9l0.9-3.4h1.6l-1.8,5.4c-0.2,0.4-0.3,0.9-0.4,1.2s-0.3,0.7-0.5,1
			c-0.2,0.3-0.4,0.5-0.6,0.6c-0.2,0.1-0.4,0.2-0.7,0.2c-0.4,0-0.7-0.1-1-0.2l0.3-1.2c0.1,0,0.2,0.1,0.4,0.1c0.2,0,0.4-0.1,0.5-0.2
			c0.2-0.2,0.3-0.4,0.4-0.8l-2.5-6h1.9L674.4,225.1z"/>
	</g>
	<g class="st2">
		<path class="st3" d="M679.9,221.7h0.8v-1.1l1.6-0.4v1.6h1.5v1.3h-1.5v2.3c0,0.4,0,0.7,0.1,0.9c0.1,0.2,0.2,0.3,0.5,0.3
			c0.2,0,0.3,0,0.4,0c0.1,0,0.2-0.1,0.4-0.1l0.3,1.2c-0.2,0.1-0.5,0.2-0.8,0.3c-0.3,0.1-0.6,0.1-0.9,0.1c-0.6,0-1-0.1-1.2-0.4
			c-0.3-0.3-0.4-0.8-0.4-1.4v-3h-0.8V221.7z"/>
		<path class="st3" d="M688.4,227.7v-3.4c0-0.5-0.1-0.8-0.2-1.1c-0.1-0.2-0.4-0.3-0.7-0.3c-0.3,0-0.5,0.1-0.7,0.3
			c-0.2,0.2-0.4,0.4-0.4,0.7v3.8h-1.6v-8.4h1.6v3.1h0c0.2-0.3,0.4-0.5,0.7-0.6c0.3-0.2,0.6-0.2,1.1-0.2c0.3,0,0.6,0,0.8,0.1
			c0.2,0.1,0.4,0.2,0.6,0.4c0.2,0.2,0.3,0.4,0.3,0.8c0.1,0.3,0.1,0.7,0.1,1.2v3.7H688.4z"/>
		<path class="st3" d="M696.1,227.2c-0.2,0.2-0.6,0.4-1,0.5s-0.9,0.2-1.3,0.2c-1,0-1.7-0.3-2.1-0.8c-0.4-0.6-0.7-1.3-0.7-2.3
			c0-1.1,0.3-1.8,0.8-2.4s1.2-0.8,2.1-0.8c0.3,0,0.6,0,0.9,0.1c0.3,0.1,0.5,0.2,0.8,0.4c0.2,0.2,0.4,0.4,0.5,0.7
			c0.1,0.3,0.2,0.7,0.2,1.2c0,0.2,0,0.3,0,0.5s0,0.4-0.1,0.6h-3.6c0,0.5,0.2,0.9,0.4,1.1c0.2,0.3,0.6,0.4,1.1,0.4
			c0.3,0,0.6,0,0.9-0.2c0.3-0.1,0.5-0.2,0.6-0.3L696.1,227.2z M693.8,222.8c-0.4,0-0.7,0.1-0.9,0.4s-0.3,0.6-0.4,1h2.2
			c0-0.4,0-0.8-0.2-1C694.4,222.9,694.2,222.8,693.8,222.8z"/>
	</g>
	<g class="st2">
		<path class="st3" d="M654,236.4c0.3-0.1,0.7-0.3,1.1-0.3c0.4-0.1,0.9-0.1,1.4-0.1c0.4,0,0.8,0,1,0.2c0.3,0.1,0.5,0.2,0.7,0.4
			s0.3,0.4,0.3,0.7s0.1,0.5,0.1,0.9c0,0.4,0,0.7,0,1.1c0,0.4,0,0.7,0,1c0,0.3,0,0.7,0,1c0,0.3,0.1,0.6,0.2,0.9h-1.3l-0.3-0.8h-0.1
			c-0.2,0.2-0.4,0.5-0.7,0.6c-0.3,0.2-0.7,0.3-1.1,0.3c-0.3,0-0.5,0-0.8-0.1c-0.2-0.1-0.4-0.2-0.6-0.4c-0.2-0.2-0.3-0.3-0.4-0.6
			c-0.1-0.2-0.1-0.4-0.1-0.7c0-0.4,0.1-0.7,0.2-0.9s0.4-0.5,0.7-0.6c0.3-0.2,0.7-0.3,1.1-0.3c0.4-0.1,0.9-0.1,1.4-0.1
			c0.1-0.4,0-0.8-0.1-1s-0.4-0.3-0.8-0.3c-0.3,0-0.6,0-1,0.1c-0.3,0.1-0.6,0.1-0.9,0.3L654,236.4z M656,240.9c0.3,0,0.6-0.1,0.7-0.2
			c0.2-0.1,0.3-0.3,0.4-0.4v-0.8c-0.2,0-0.5,0-0.7,0c-0.2,0-0.4,0.1-0.6,0.1c-0.2,0.1-0.3,0.1-0.4,0.2c-0.1,0.1-0.2,0.2-0.2,0.4
			c0,0.2,0.1,0.4,0.2,0.5S655.8,240.9,656,240.9z"/>
		<path class="st3" d="M660,236.1h1.1l0.2,0.7h0c0.2-0.3,0.5-0.5,0.7-0.7c0.3-0.1,0.6-0.2,1-0.2c0.8,0,1.3,0.2,1.7,0.7
			c0.4,0.5,0.6,1.2,0.6,2.3c0,0.5-0.1,1-0.2,1.4s-0.3,0.8-0.5,1s-0.5,0.5-0.9,0.7c-0.3,0.2-0.7,0.2-1.2,0.2c-0.2,0-0.5,0-0.6-0.1
			c-0.2,0-0.3-0.1-0.5-0.2v2.5H660V236.1z M662.7,237.3c-0.3,0-0.5,0.1-0.7,0.2c-0.2,0.2-0.3,0.4-0.4,0.7v2.5
			c0.1,0.1,0.2,0.2,0.4,0.2c0.1,0.1,0.3,0.1,0.5,0.1c0.4,0,0.8-0.2,1-0.5c0.2-0.3,0.3-0.8,0.3-1.6c0-0.5-0.1-0.9-0.3-1.2
			S663.1,237.3,662.7,237.3z"/>
		<path class="st3" d="M666.5,236.1h1.1l0.2,0.7h0c0.2-0.3,0.5-0.5,0.7-0.7c0.3-0.1,0.6-0.2,1-0.2c0.8,0,1.3,0.2,1.7,0.7
			c0.4,0.5,0.6,1.2,0.6,2.3c0,0.5-0.1,1-0.2,1.4c-0.1,0.4-0.3,0.8-0.5,1c-0.2,0.3-0.5,0.5-0.9,0.7c-0.3,0.2-0.7,0.2-1.2,0.2
			c-0.2,0-0.5,0-0.6-0.1s-0.3-0.1-0.5-0.2v2.5h-1.6V236.1z M669.2,237.3c-0.3,0-0.5,0.1-0.7,0.2c-0.2,0.2-0.3,0.4-0.4,0.7v2.5
			c0.1,0.1,0.2,0.2,0.4,0.2c0.1,0.1,0.3,0.1,0.5,0.1c0.4,0,0.8-0.2,1-0.5s0.3-0.8,0.3-1.6c0-0.5-0.1-0.9-0.3-1.2
			S669.6,237.3,669.2,237.3z"/>
		<path class="st3" d="M674.6,240.1c0,0.3,0,0.5,0.1,0.6s0.2,0.2,0.3,0.2c0.1,0,0.2,0,0.3,0c0.1,0,0.2-0.1,0.3-0.1l0.2,1.2
			c-0.1,0.1-0.3,0.1-0.6,0.2c-0.3,0.1-0.5,0.1-0.8,0.1c-0.5,0-0.8-0.1-1-0.3c-0.2-0.2-0.4-0.6-0.4-1v-7.2h1.6V240.1z"/>
		<path class="st3" d="M676.4,234.4c0-0.2,0.1-0.4,0.3-0.6s0.4-0.2,0.7-0.2s0.5,0.1,0.7,0.2c0.2,0.2,0.3,0.4,0.3,0.6
			c0,0.2-0.1,0.4-0.3,0.6c-0.2,0.2-0.4,0.2-0.7,0.2s-0.5-0.1-0.7-0.2C676.5,234.8,676.4,234.6,676.4,234.4z M676.7,236.1h1.6v6h-1.6
			V236.1z"/>
		<path class="st3" d="M684,241.7c-0.2,0.2-0.5,0.3-0.9,0.4c-0.3,0.1-0.7,0.1-1,0.1c-0.5,0-0.9-0.1-1.2-0.2
			c-0.3-0.2-0.6-0.4-0.8-0.6c-0.2-0.3-0.4-0.6-0.5-1c-0.1-0.4-0.1-0.8-0.1-1.3c0-1,0.2-1.8,0.7-2.3s1.1-0.8,2-0.8
			c0.4,0,0.8,0,1.1,0.1c0.3,0.1,0.5,0.2,0.7,0.3l-0.4,1.3c-0.2-0.1-0.4-0.2-0.5-0.2s-0.4-0.1-0.6-0.1c-0.4,0-0.8,0.1-1,0.4
			c-0.2,0.3-0.3,0.7-0.3,1.4c0,0.3,0,0.5,0.1,0.7c0.1,0.2,0.1,0.4,0.3,0.6c0.1,0.2,0.3,0.3,0.4,0.4s0.4,0.1,0.6,0.1
			c0.3,0,0.5,0,0.7-0.1c0.2-0.1,0.3-0.1,0.5-0.2L684,241.7z"/>
		<path class="st3" d="M684.9,236.4c0.3-0.1,0.7-0.3,1.1-0.3c0.4-0.1,0.9-0.1,1.4-0.1c0.4,0,0.8,0,1,0.2c0.3,0.1,0.5,0.2,0.7,0.4
			s0.3,0.4,0.3,0.7s0.1,0.5,0.1,0.9c0,0.4,0,0.7,0,1.1c0,0.4,0,0.7,0,1c0,0.3,0,0.7,0,1c0,0.3,0.1,0.6,0.2,0.9h-1.3l-0.3-0.8h-0.1
			c-0.2,0.2-0.4,0.5-0.7,0.6c-0.3,0.2-0.7,0.3-1.1,0.3c-0.3,0-0.5,0-0.8-0.1c-0.2-0.1-0.4-0.2-0.6-0.4c-0.2-0.2-0.3-0.3-0.4-0.6
			c-0.1-0.2-0.1-0.4-0.1-0.7c0-0.4,0.1-0.7,0.2-0.9s0.4-0.5,0.7-0.6c0.3-0.2,0.7-0.3,1.1-0.3c0.4-0.1,0.9-0.1,1.4-0.1
			c0.1-0.4,0-0.8-0.1-1s-0.4-0.3-0.8-0.3c-0.3,0-0.6,0-1,0.1c-0.3,0.1-0.6,0.1-0.9,0.3L684.9,236.4z M686.9,240.9
			c0.3,0,0.6-0.1,0.7-0.2c0.2-0.1,0.3-0.3,0.4-0.4v-0.8c-0.2,0-0.5,0-0.7,0c-0.2,0-0.4,0.1-0.6,0.1c-0.2,0.1-0.3,0.1-0.4,0.2
			c-0.1,0.1-0.2,0.2-0.2,0.4c0,0.2,0.1,0.4,0.2,0.5S686.7,240.9,686.9,240.9z"/>
		<path class="st3" d="M690.3,236.1h0.8V235l1.6-0.4v1.6h1.5v1.3h-1.5v2.3c0,0.4,0,0.7,0.1,0.9c0.1,0.2,0.2,0.3,0.5,0.3
			c0.2,0,0.3,0,0.4,0c0.1,0,0.2-0.1,0.4-0.1l0.3,1.2c-0.2,0.1-0.5,0.2-0.8,0.3c-0.3,0.1-0.6,0.1-0.9,0.1c-0.6,0-1-0.1-1.2-0.4
			c-0.3-0.3-0.4-0.8-0.4-1.4v-3h-0.8V236.1z"/>
		<path class="st3" d="M695,234.4c0-0.2,0.1-0.4,0.3-0.6c0.2-0.2,0.4-0.2,0.7-0.2c0.3,0,0.5,0.1,0.7,0.2c0.2,0.2,0.3,0.4,0.3,0.6
			c0,0.2-0.1,0.4-0.3,0.6c-0.2,0.2-0.4,0.2-0.7,0.2c-0.3,0-0.5-0.1-0.7-0.2C695.1,234.8,695,234.6,695,234.4z M695.2,236.1h1.6v6
			h-1.6V236.1z"/>
		<path class="st3" d="M698,239.1c0-1,0.2-1.8,0.7-2.3s1.2-0.8,2.1-0.8c0.5,0,0.9,0.1,1.2,0.2c0.4,0.2,0.6,0.4,0.9,0.6
			c0.2,0.3,0.4,0.6,0.5,1c0.1,0.4,0.2,0.8,0.2,1.3c0,1-0.2,1.8-0.7,2.3c-0.5,0.5-1.2,0.8-2.1,0.8c-0.5,0-0.9-0.1-1.2-0.2
			c-0.4-0.2-0.6-0.4-0.9-0.6c-0.2-0.3-0.4-0.6-0.5-1C698.1,240,698,239.6,698,239.1z M699.6,239.1c0,0.3,0,0.5,0.1,0.7
			c0,0.2,0.1,0.4,0.2,0.6c0.1,0.2,0.2,0.3,0.4,0.4s0.3,0.1,0.6,0.1c0.4,0,0.7-0.1,0.9-0.4s0.3-0.8,0.3-1.4c0-0.6-0.1-1-0.3-1.3
			c-0.2-0.3-0.5-0.5-0.9-0.5c-0.4,0-0.7,0.1-0.9,0.4C699.7,238,699.6,238.4,699.6,239.1z"/>
		<path class="st3" d="M708.4,242.1v-3.4c0-0.5-0.1-0.8-0.2-1.1c-0.1-0.2-0.4-0.3-0.7-0.3c-0.3,0-0.5,0.1-0.8,0.3
			c-0.2,0.2-0.4,0.4-0.4,0.6v3.9h-1.6v-6h1.2l0.2,0.8h0c0.2-0.3,0.4-0.5,0.7-0.7c0.3-0.2,0.7-0.3,1.2-0.3c0.3,0,0.6,0,0.8,0.1
			c0.2,0.1,0.4,0.2,0.6,0.4c0.2,0.2,0.3,0.4,0.4,0.8c0.1,0.3,0.1,0.7,0.1,1.2v3.7H708.4z"/>
	</g>
	<g class="st2">
		<path class="st3" d="M718.8,241.7c-0.2,0.2-0.5,0.3-0.9,0.4c-0.3,0.1-0.7,0.1-1,0.1c-0.5,0-0.9-0.1-1.2-0.2
			c-0.3-0.1-0.6-0.4-0.8-0.6c-0.2-0.3-0.4-0.6-0.4-1s-0.1-0.8-0.1-1.3c0-1,0.2-1.8,0.7-2.3s1.1-0.8,1.9-0.8c0.4,0,0.7,0,1,0.1
			c0.3,0.1,0.5,0.1,0.7,0.3l-0.3,0.8c-0.2-0.1-0.4-0.2-0.6-0.2c-0.2-0.1-0.5-0.1-0.7-0.1c-1.1,0-1.7,0.8-1.7,2.3
			c0,0.3,0,0.6,0.1,0.9c0.1,0.3,0.2,0.5,0.3,0.7c0.1,0.2,0.3,0.4,0.6,0.5c0.2,0.1,0.5,0.2,0.8,0.2c0.3,0,0.5,0,0.8-0.1
			c0.2-0.1,0.4-0.2,0.6-0.3L718.8,241.7z"/>
		<path class="st3" d="M720.1,236.5c0.3-0.2,0.7-0.3,1.1-0.4c0.4-0.1,0.8-0.1,1.3-0.1c0.4,0,0.8,0.1,1,0.2s0.4,0.3,0.6,0.4
			c0.1,0.2,0.2,0.4,0.3,0.6c0,0.2,0.1,0.4,0.1,0.6c0,0.5,0,0.9,0,1.4c0,0.5,0,0.9,0,1.3c0,0.3,0,0.6,0,0.8c0,0.3,0.1,0.5,0.1,0.7
			h-0.7l-0.3-0.8h-0.1c-0.1,0.1-0.2,0.2-0.3,0.3c-0.1,0.1-0.2,0.2-0.4,0.3c-0.2,0.1-0.3,0.2-0.5,0.2c-0.2,0.1-0.4,0.1-0.7,0.1
			c-0.3,0-0.5,0-0.7-0.1c-0.2-0.1-0.4-0.2-0.6-0.3c-0.2-0.1-0.3-0.3-0.4-0.5c-0.1-0.2-0.1-0.4-0.1-0.7c0-0.4,0.1-0.6,0.2-0.9
			c0.1-0.2,0.3-0.4,0.6-0.6c0.3-0.1,0.6-0.2,0.9-0.3c0.4-0.1,0.8-0.1,1.2-0.1c0.1,0,0.2,0,0.3,0c0.1,0,0.2,0,0.3,0
			c0-0.2,0-0.5,0-0.6c0-0.4-0.1-0.7-0.3-0.9s-0.5-0.3-1-0.3c-0.1,0-0.3,0-0.4,0c-0.2,0-0.3,0-0.5,0.1s-0.3,0.1-0.5,0.1
			c-0.1,0.1-0.3,0.1-0.4,0.2L720.1,236.5z M721.8,241.4c0.2,0,0.4,0,0.6-0.1c0.2-0.1,0.3-0.1,0.5-0.2c0.1-0.1,0.2-0.2,0.3-0.3
			c0.1-0.1,0.1-0.2,0.2-0.3v-1c-0.1,0-0.2,0-0.3,0s-0.2,0-0.3,0c-0.2,0-0.5,0-0.7,0c-0.2,0-0.4,0.1-0.6,0.2
			c-0.2,0.1-0.3,0.2-0.4,0.3c-0.1,0.1-0.2,0.3-0.2,0.5c0,0.3,0.1,0.5,0.3,0.7C721.2,241.3,721.4,241.4,721.8,241.4z"/>
		<path class="st3" d="M730,242.1v-3.4c0-0.6-0.1-1.1-0.3-1.4c-0.2-0.3-0.5-0.5-1-0.5c-0.4,0-0.8,0.1-1.1,0.3
			c-0.3,0.2-0.5,0.5-0.6,0.9v4.1h-1v-6h0.7l0.2,0.7h0c0.2-0.3,0.5-0.5,0.8-0.6c0.3-0.2,0.7-0.2,1.2-0.2c0.3,0,0.6,0,0.9,0.1
			c0.2,0.1,0.5,0.2,0.6,0.4s0.3,0.5,0.4,0.8c0.1,0.3,0.1,0.7,0.1,1.2v3.6H730z"/>
	</g>
	<g class="st2">
		<path class="st3" d="M654.2,250.9c0.3-0.2,0.7-0.3,1.1-0.4s0.8-0.1,1.3-0.1c0.4,0,0.8,0.1,1,0.2c0.3,0.1,0.4,0.3,0.6,0.4
			c0.1,0.2,0.2,0.4,0.3,0.6c0,0.2,0.1,0.4,0.1,0.6c0,0.5,0,0.9,0,1.4c0,0.5,0,0.9,0,1.3c0,0.3,0,0.6,0,0.8c0,0.3,0.1,0.5,0.1,0.7
			h-0.7l-0.3-0.8h-0.1c-0.1,0.1-0.2,0.2-0.3,0.3c-0.1,0.1-0.2,0.2-0.4,0.3c-0.2,0.1-0.3,0.2-0.5,0.2c-0.2,0.1-0.4,0.1-0.7,0.1
			s-0.5,0-0.7-0.1c-0.2-0.1-0.4-0.2-0.6-0.3c-0.2-0.1-0.3-0.3-0.4-0.5c-0.1-0.2-0.1-0.4-0.1-0.7c0-0.4,0.1-0.6,0.2-0.9
			c0.1-0.2,0.3-0.4,0.6-0.6c0.3-0.1,0.6-0.2,0.9-0.3c0.4-0.1,0.8-0.1,1.2-0.1c0.1,0,0.2,0,0.3,0s0.2,0,0.3,0c0-0.2,0-0.5,0-0.6
			c0-0.4-0.1-0.7-0.3-0.9c-0.2-0.2-0.5-0.3-1-0.3c-0.1,0-0.3,0-0.4,0c-0.2,0-0.3,0-0.5,0.1s-0.3,0.1-0.5,0.1
			c-0.1,0.1-0.3,0.1-0.4,0.2L654.2,250.9z M655.9,255.8c0.2,0,0.4,0,0.6-0.1s0.3-0.1,0.5-0.2c0.1-0.1,0.2-0.2,0.3-0.3
			c0.1-0.1,0.1-0.2,0.2-0.3v-1c-0.1,0-0.2,0-0.3,0c-0.1,0-0.2,0-0.3,0c-0.2,0-0.5,0-0.7,0s-0.4,0.1-0.6,0.2s-0.3,0.2-0.4,0.3
			c-0.1,0.1-0.2,0.3-0.2,0.5c0,0.3,0.1,0.5,0.3,0.7C655.4,255.7,655.6,255.8,655.9,255.8z"/>
	</g>
	<g class="st2">
		<path class="st3" d="M664.4,256.1c-0.2,0.2-0.5,0.3-0.9,0.4s-0.7,0.1-1,0.1c-0.5,0-0.9-0.1-1.2-0.2c-0.3-0.1-0.6-0.4-0.8-0.6
			c-0.2-0.3-0.4-0.6-0.4-1s-0.1-0.8-0.1-1.3c0-1,0.2-1.8,0.7-2.3c0.4-0.5,1.1-0.8,1.9-0.8c0.4,0,0.7,0,1,0.1
			c0.3,0.1,0.5,0.1,0.7,0.3l-0.3,0.8c-0.2-0.1-0.4-0.2-0.6-0.2c-0.2-0.1-0.5-0.1-0.7-0.1c-1.1,0-1.7,0.8-1.7,2.3
			c0,0.3,0,0.6,0.1,0.9c0.1,0.3,0.2,0.5,0.3,0.7c0.1,0.2,0.3,0.4,0.6,0.5s0.5,0.2,0.8,0.2c0.3,0,0.5,0,0.8-0.1s0.4-0.2,0.6-0.3
			L664.4,256.1z"/>
		<path class="st3" d="M669.3,256.1c-0.2,0.2-0.5,0.3-0.9,0.4s-0.7,0.1-1,0.1c-0.5,0-0.9-0.1-1.2-0.2c-0.3-0.1-0.6-0.4-0.8-0.6
			c-0.2-0.3-0.4-0.6-0.4-1c-0.1-0.4-0.1-0.8-0.1-1.3c0-1,0.2-1.8,0.7-2.3c0.4-0.5,1.1-0.8,1.9-0.8c0.4,0,0.7,0,1,0.1
			c0.3,0.1,0.5,0.1,0.7,0.3l-0.3,0.8c-0.2-0.1-0.4-0.2-0.6-0.2c-0.2-0.1-0.5-0.1-0.7-0.1c-1.1,0-1.7,0.8-1.7,2.3
			c0,0.3,0,0.6,0.1,0.9s0.2,0.5,0.3,0.7c0.1,0.2,0.3,0.4,0.6,0.5c0.2,0.1,0.5,0.2,0.8,0.2c0.3,0,0.5,0,0.8-0.1
			c0.2-0.1,0.4-0.2,0.6-0.3L669.3,256.1z"/>
	</g>
	<g class="st2">
		<path class="st3" d="M674.9,256c-0.2,0.2-0.5,0.3-0.9,0.5c-0.4,0.1-0.8,0.2-1.2,0.2c-0.5,0-0.9-0.1-1.2-0.2
			c-0.3-0.1-0.6-0.4-0.8-0.6c-0.2-0.3-0.4-0.6-0.5-1c-0.1-0.4-0.2-0.8-0.2-1.3c0-1,0.2-1.8,0.7-2.3s1.1-0.8,2-0.8
			c0.3,0,0.5,0,0.8,0.1c0.3,0.1,0.5,0.2,0.7,0.3c0.2,0.2,0.4,0.4,0.5,0.7c0.1,0.3,0.2,0.7,0.2,1.2c0,0.3,0,0.6-0.1,0.9h-3.9
			c0,0.4,0,0.7,0.1,0.9c0.1,0.3,0.2,0.5,0.3,0.7c0.2,0.2,0.4,0.3,0.6,0.4c0.2,0.1,0.5,0.1,0.9,0.1c0.3,0,0.5,0,0.8-0.1
			c0.3-0.1,0.5-0.2,0.6-0.3L674.9,256z M672.9,251.2c-0.5,0-0.9,0.1-1.1,0.4s-0.5,0.7-0.5,1.3h3c0-0.6-0.1-1-0.3-1.3
			C673.6,251.3,673.3,251.2,672.9,251.2z"/>
		<path class="st3" d="M679.3,254.9c0-0.2-0.1-0.4-0.2-0.6c-0.1-0.1-0.3-0.3-0.5-0.3s-0.4-0.2-0.7-0.3s-0.5-0.2-0.7-0.3
			s-0.4-0.3-0.5-0.5c-0.1-0.2-0.2-0.5-0.2-0.8c0-0.6,0.2-1,0.5-1.3c0.3-0.3,0.8-0.4,1.4-0.4c0.4,0,0.8,0,1.1,0.1
			c0.3,0.1,0.5,0.2,0.8,0.3l-0.2,0.8c-0.2-0.1-0.4-0.2-0.7-0.2c-0.3-0.1-0.5-0.1-0.8-0.1c-0.4,0-0.6,0.1-0.8,0.2s-0.2,0.3-0.2,0.6
			c0,0.2,0.1,0.4,0.2,0.5c0.1,0.1,0.3,0.2,0.5,0.3s0.4,0.2,0.7,0.3s0.5,0.2,0.7,0.3s0.4,0.3,0.5,0.5c0.1,0.2,0.2,0.5,0.2,0.9
			c0,0.3,0,0.5-0.1,0.7c-0.1,0.2-0.2,0.4-0.4,0.6s-0.4,0.3-0.7,0.4s-0.6,0.1-0.9,0.1c-0.5,0-0.8,0-1.2-0.1c-0.3-0.1-0.6-0.2-0.8-0.3
			l0.3-0.8c0.2,0.1,0.4,0.2,0.7,0.3s0.6,0.1,0.9,0.1c0.3,0,0.6-0.1,0.9-0.2C679.2,255.5,679.3,255.2,679.3,254.9z"/>
		<path class="st3" d="M684.3,254.9c0-0.2-0.1-0.4-0.2-0.6c-0.1-0.1-0.3-0.3-0.5-0.3s-0.4-0.2-0.7-0.3s-0.5-0.2-0.7-0.3
			s-0.4-0.3-0.5-0.5c-0.1-0.2-0.2-0.5-0.2-0.8c0-0.6,0.2-1,0.5-1.3c0.3-0.3,0.8-0.4,1.4-0.4c0.4,0,0.8,0,1.1,0.1
			c0.3,0.1,0.5,0.2,0.8,0.3l-0.2,0.8c-0.2-0.1-0.4-0.2-0.7-0.2c-0.3-0.1-0.5-0.1-0.8-0.1c-0.4,0-0.6,0.1-0.8,0.2s-0.2,0.3-0.2,0.6
			c0,0.2,0.1,0.4,0.2,0.5c0.1,0.1,0.3,0.2,0.5,0.3s0.4,0.2,0.7,0.3s0.5,0.2,0.7,0.3s0.4,0.3,0.5,0.5c0.1,0.2,0.2,0.5,0.2,0.9
			c0,0.3,0,0.5-0.1,0.7c-0.1,0.2-0.2,0.4-0.4,0.6c-0.2,0.2-0.4,0.3-0.7,0.4c-0.3,0.1-0.6,0.1-0.9,0.1c-0.5,0-0.8,0-1.2-0.1
			c-0.3-0.1-0.6-0.2-0.8-0.3l0.3-0.8c0.2,0.1,0.4,0.2,0.7,0.3s0.6,0.1,0.9,0.1c0.3,0,0.6-0.1,0.9-0.2
			C684.2,255.5,684.3,255.2,684.3,254.9z"/>
		<path class="st3" d="M694.6,250.5v6h-1v-5.2h-2.4v5.2h-1v-5.2h-0.9v-0.8h0.9v-0.3c0-0.8,0.2-1.3,0.6-1.6c0.4-0.3,0.9-0.5,1.6-0.5
			c0.5,0,0.9,0,1.3,0.1s0.7,0.2,0.9,0.3l-0.3,0.8c-0.2-0.1-0.5-0.2-0.8-0.3c-0.3-0.1-0.6-0.1-0.9-0.1c-0.3,0-0.5,0-0.7,0.1
			s-0.3,0.2-0.4,0.3c-0.1,0.1-0.2,0.3-0.2,0.5s0,0.4,0,0.7H694.6z"/>
		<path class="st3" d="M697.5,255c0,0.3,0,0.5,0.1,0.6s0.2,0.2,0.4,0.2c0.1,0,0.2,0,0.3,0c0.1,0,0.3-0.1,0.4-0.1l0.1,0.8
			c-0.1,0.1-0.3,0.1-0.5,0.2c-0.2,0-0.4,0.1-0.6,0.1c-0.4,0-0.7-0.1-0.9-0.3c-0.2-0.2-0.3-0.5-0.3-1v-7.2h1V255z"/>
		<path class="st3" d="M704.3,256c-0.2,0.2-0.5,0.3-0.9,0.5c-0.4,0.1-0.8,0.2-1.2,0.2c-0.5,0-0.9-0.1-1.2-0.2
			c-0.3-0.1-0.6-0.4-0.8-0.6c-0.2-0.3-0.4-0.6-0.5-1c-0.1-0.4-0.2-0.8-0.2-1.3c0-1,0.2-1.8,0.7-2.3s1.1-0.8,2-0.8
			c0.3,0,0.5,0,0.8,0.1c0.3,0.1,0.5,0.2,0.7,0.3c0.2,0.2,0.4,0.4,0.5,0.7c0.1,0.3,0.2,0.7,0.2,1.2c0,0.3,0,0.6-0.1,0.9h-3.9
			c0,0.4,0,0.7,0.1,0.9c0.1,0.3,0.2,0.5,0.3,0.7c0.2,0.2,0.4,0.3,0.6,0.4c0.2,0.1,0.5,0.1,0.9,0.1c0.3,0,0.5,0,0.8-0.1
			c0.3-0.1,0.5-0.2,0.6-0.3L704.3,256z M702.2,251.2c-0.5,0-0.9,0.1-1.1,0.4s-0.5,0.7-0.5,1.3h3c0-0.6-0.1-1-0.3-1.3
			C703,251.3,702.7,251.2,702.2,251.2z"/>
		<path class="st3" d="M708.7,254.9c0-0.2-0.1-0.4-0.2-0.6c-0.1-0.1-0.3-0.3-0.5-0.3s-0.4-0.2-0.7-0.3s-0.5-0.2-0.7-0.3
			s-0.4-0.3-0.5-0.5c-0.1-0.2-0.2-0.5-0.2-0.8c0-0.6,0.2-1,0.5-1.3c0.3-0.3,0.8-0.4,1.4-0.4c0.4,0,0.8,0,1.1,0.1
			c0.3,0.1,0.5,0.2,0.8,0.3l-0.2,0.8c-0.2-0.1-0.4-0.2-0.7-0.2c-0.3-0.1-0.5-0.1-0.8-0.1c-0.4,0-0.6,0.1-0.8,0.2s-0.2,0.3-0.2,0.6
			c0,0.2,0.1,0.4,0.2,0.5c0.1,0.1,0.3,0.2,0.5,0.3s0.4,0.2,0.7,0.3s0.5,0.2,0.7,0.3s0.4,0.3,0.5,0.5c0.1,0.2,0.2,0.5,0.2,0.9
			c0,0.3,0,0.5-0.1,0.7c-0.1,0.2-0.2,0.4-0.4,0.6s-0.4,0.3-0.7,0.4s-0.6,0.1-0.9,0.1c-0.5,0-0.8,0-1.2-0.1c-0.3-0.1-0.6-0.2-0.8-0.3
			l0.3-0.8c0.2,0.1,0.4,0.2,0.7,0.3s0.6,0.1,0.9,0.1c0.3,0,0.6-0.1,0.9-0.2C708.6,255.5,708.7,255.2,708.7,254.9z"/>
	</g>
	
		<linearGradient id="SVGID_1_" gradientUnits="userSpaceOnUse" x1="146.1" y1="298" x2="316.54" y2="298" gradientTransform="matrix(1 0 0 -1 0 394)">
		<stop  offset="0" style="stop-color:#990066"/>
		<stop  offset="0.19" style="stop-color:#780066"/>
		<stop  offset="0.4" style="stop-color:#5A0066"/>
		<stop  offset="0.61" style="stop-color:#440066"/>
		<stop  offset="0.81" style="stop-color:#370066"/>
		<stop  offset="1" style="stop-color:#330066"/>
	</linearGradient>
	<path class="st6" d="M151.1,58.3h160.4c2.8,0,5,2.2,5,5v65.5c0,2.8-2.2,5-5,5H151.1c-2.8,0-5-2.2-5-5V63.3
		C146.1,60.5,148.3,58.3,151.1,58.3z"/>
	<path class="st7" d="M151.1,58.3h160.4c2.8,0,5,2.2,5,5v65.5c0,2.8-2.2,5-5,5H151.1c-2.8,0-5-2.2-5-5V63.3
		C146.1,60.5,148.3,58.3,151.1,58.3z"/>
	<path class="st8" d="M168.4,80.5h124.6c2.8,0,5,2.2,5,5v17.2c0,2.8-2.2,5-5,5H168.4c-2.8,0-5-2.2-5-5V85.5
		C163.4,82.8,165.7,80.5,168.4,80.5z"/>
	<g class="st2">
		<path class="st9" d="M210.5,92.5h-1.2l-0.2-1c-0.2-0.2-0.3-0.3-0.6-0.4c-0.2-0.1-0.5-0.1-0.8-0.1c-0.7,0-1.2,0.2-1.6,0.7
			c-0.4,0.5-0.6,1.1-0.6,1.9v0.3c0,0.8,0.2,1.4,0.5,1.9s0.9,0.7,1.5,0.7c0.3,0,0.6,0,0.8-0.1c0.3-0.1,0.5-0.2,0.6-0.4l0.2-1h1.2v1.5
			c-0.3,0.4-0.7,0.7-1.2,0.9c-0.5,0.2-1,0.3-1.6,0.3c-1,0-1.9-0.4-2.6-1.1s-1-1.7-1-2.8v-0.3c0-1.1,0.3-2.1,1-2.8s1.5-1.1,2.6-1.1
			c0.6,0,1.2,0.1,1.6,0.3c0.5,0.2,0.9,0.5,1.2,0.9V92.5z"/>
		<path class="st9" d="M211.3,94.7c0-0.9,0.2-1.6,0.7-2.1c0.5-0.6,1.2-0.8,2-0.8c0.9,0,1.5,0.3,2,0.8c0.5,0.6,0.7,1.3,0.7,2.1v0.1
			c0,0.9-0.2,1.6-0.7,2.1c-0.5,0.5-1.2,0.8-2,0.8c-0.9,0-1.5-0.3-2-0.8c-0.5-0.5-0.7-1.3-0.7-2.1V94.7z M212.9,94.8
			c0,0.5,0.1,1,0.3,1.3s0.5,0.5,0.9,0.5c0.4,0,0.7-0.2,0.9-0.5c0.2-0.3,0.3-0.7,0.3-1.3v-0.1c0-0.5-0.1-0.9-0.3-1.3S214.5,93,214,93
			s-0.7,0.2-0.9,0.5s-0.3,0.7-0.3,1.3V94.8z"/>
		<path class="st9" d="M217.4,96.8l0.8-0.2V93l-0.8-0.2v-0.9h2.3l0.1,0.8c0.2-0.3,0.4-0.5,0.7-0.7s0.6-0.2,1-0.2
			c0.6,0,1,0.2,1.4,0.6c0.3,0.4,0.5,0.9,0.5,1.7v2.5l0.8,0.2v0.9h-3v-0.9l0.7-0.2v-2.5c0-0.4-0.1-0.7-0.2-0.8S221,93,220.7,93
			c-0.2,0-0.4,0-0.6,0.1s-0.3,0.2-0.4,0.4v3.1l0.6,0.2v0.9h-3V96.8z"/>
		<path class="st9" d="M226.8,90.5v1.4h1V93h-1v3c0,0.2,0,0.4,0.1,0.5s0.2,0.1,0.4,0.1c0.1,0,0.2,0,0.3,0c0.1,0,0.2,0,0.3,0l0.1,1.1
			c-0.2,0.1-0.3,0.1-0.5,0.1c-0.2,0-0.4,0-0.6,0c-0.5,0-1-0.1-1.2-0.4c-0.3-0.3-0.4-0.8-0.4-1.4v-3h-0.9v-1.1h0.9v-1.4H226.8z"/>
		<path class="st9" d="M232.3,97.7c0-0.1-0.1-0.2-0.1-0.3c0-0.1-0.1-0.2-0.1-0.3c-0.2,0.2-0.4,0.4-0.7,0.5c-0.3,0.1-0.6,0.2-0.9,0.2
			c-0.6,0-1-0.2-1.4-0.5c-0.3-0.3-0.5-0.7-0.5-1.3c0-0.5,0.2-1,0.7-1.3s1.1-0.4,1.9-0.4h0.8v-0.6c0-0.3-0.1-0.5-0.2-0.6
			s-0.4-0.2-0.7-0.2c-0.2,0-0.3,0-0.5,0.1s-0.3,0.1-0.3,0.1l-0.1,0.6h-1.2l0-1.3c0.3-0.2,0.6-0.4,1-0.5c0.4-0.1,0.8-0.2,1.2-0.2
			c0.7,0,1.3,0.2,1.8,0.5c0.4,0.4,0.7,0.9,0.7,1.5v2.4c0,0.1,0,0.2,0,0.3c0,0.1,0,0.2,0,0.2l0.5,0.1v0.9H232.3z M230.9,96.6
			c0.2,0,0.5-0.1,0.6-0.2c0.2-0.1,0.3-0.2,0.5-0.4v-0.9h-0.8c-0.3,0-0.6,0.1-0.8,0.2c-0.2,0.2-0.3,0.3-0.3,0.6
			c0,0.2,0.1,0.4,0.2,0.5C230.5,96.6,230.7,96.6,230.9,96.6z"/>
		<path class="st9" d="M234.6,96.8l0.8-0.2V93l-0.8-0.2v-0.9h2.4v4.7l0.8,0.2v0.9h-3.1V96.8z M236.9,90.5h-1.6v-1.2h1.6V90.5z"/>
	</g>
	<g class="st2">
		<path class="st9" d="M238.1,96.8l0.8-0.2V93l-0.8-0.2v-0.9h2.3l0.1,0.8c0.2-0.3,0.4-0.5,0.7-0.7s0.6-0.2,1-0.2
			c0.6,0,1,0.2,1.4,0.6c0.3,0.4,0.5,0.9,0.5,1.7v2.5l0.8,0.2v0.9h-3v-0.9l0.7-0.2v-2.5c0-0.4-0.1-0.7-0.2-0.8s-0.4-0.2-0.7-0.2
			c-0.2,0-0.4,0-0.6,0.1s-0.3,0.2-0.4,0.4v3.1l0.6,0.2v0.9h-3V96.8z"/>
	</g>
	<g class="st2">
		<path class="st9" d="M247.9,97.8c-0.8,0-1.5-0.3-2-0.8c-0.5-0.5-0.8-1.2-0.8-2v-0.2c0-0.9,0.2-1.6,0.7-2.1s1.1-0.8,1.9-0.8
			c0.8,0,1.4,0.2,1.8,0.7c0.4,0.5,0.7,1.1,0.7,1.9v0.9h-3.5l0,0c0,0.4,0.2,0.7,0.4,0.9s0.5,0.4,0.9,0.4c0.3,0,0.6,0,0.9-0.1
			c0.2-0.1,0.5-0.2,0.8-0.3l0.4,1c-0.2,0.2-0.6,0.3-0.9,0.5C248.8,97.7,248.3,97.8,247.9,97.8z M247.7,93c-0.3,0-0.5,0.1-0.7,0.3
			c-0.2,0.2-0.3,0.5-0.3,0.9l0,0h1.9v-0.1c0-0.3-0.1-0.6-0.2-0.8C248.3,93.1,248,93,247.7,93z"/>
		<path class="st9" d="M251.1,96.8l0.8-0.2V93l-0.8-0.2v-0.9h2.3l0.1,0.8c0.1-0.3,0.3-0.5,0.5-0.7c0.2-0.2,0.5-0.3,0.7-0.3
			c0.1,0,0.2,0,0.3,0c0.1,0,0.2,0,0.2,0l-0.2,1.4l-0.6,0c-0.2,0-0.4,0-0.6,0.1s-0.3,0.2-0.3,0.4v2.8l0.8,0.2v0.9h-3.1V96.8z"/>
	</g>
	<path class="st8" d="M27.5,184.1H87c2.8,0,5,2.2,5,5v17.2c0,2.8-2.2,5-5,5H27.5c-2.8,0-5-2.2-5-5v-17.2
		C22.5,186.4,24.7,184.1,27.5,184.1z"/>
	<g class="st2">
		<path class="st3" d="M39,194.4l-0.6,0.1l1.4,4.7l0.1,0.4h0l0.1-0.4l1.4-4.7l-0.6-0.1v-0.9h2.9v0.9l-0.7,0.1l-2.3,6.8h-1.6
			l-2.3-6.8l-0.6-0.1v-0.9H39V194.4z"/>
	</g>
	<g class="st2">
		<path class="st3" d="M43.9,198.3c0-0.9,0.2-1.6,0.7-2.1c0.5-0.6,1.2-0.8,2-0.8c0.9,0,1.5,0.3,2,0.8c0.5,0.6,0.7,1.3,0.7,2.1v0.1
			c0,0.9-0.2,1.6-0.7,2.1c-0.5,0.5-1.2,0.8-2,0.8c-0.9,0-1.5-0.3-2-0.8c-0.5-0.5-0.7-1.3-0.7-2.1V198.3z M45.5,198.5
			c0,0.5,0.1,1,0.3,1.3s0.5,0.5,0.9,0.5c0.4,0,0.7-0.2,0.9-0.5c0.2-0.3,0.3-0.7,0.3-1.3v-0.1c0-0.5-0.1-0.9-0.3-1.3
			s-0.5-0.5-0.9-0.5s-0.7,0.2-0.9,0.5s-0.3,0.7-0.3,1.3V198.5z"/>
	</g>
	<g class="st2">
		<path class="st3" d="M49.8,193.9v-0.9h2.4v7.3l0.8,0.2v0.9h-3.1v-0.9l0.8-0.2V194L49.8,193.9z"/>
		<path class="st3" d="M57.6,200.6c-0.2,0.3-0.4,0.5-0.7,0.6c-0.3,0.1-0.6,0.2-0.9,0.2c-0.6,0-1.1-0.2-1.4-0.6
			c-0.3-0.4-0.5-1-0.5-1.8v-2.4l-0.6-0.2v-0.9H54h1.6v3.5c0,0.4,0.1,0.7,0.2,0.9c0.1,0.2,0.4,0.3,0.6,0.3c0.2,0,0.5,0,0.6-0.1
			c0.2-0.1,0.3-0.2,0.4-0.3v-3.1l-0.7-0.2v-0.9h0.7h1.6v4.7l0.7,0.2v0.9h-2.1L57.6,200.6z"/>
	</g>
	<g class="st2">
		<path class="st3" d="M60.2,196.4v-0.9h2.3l0.1,0.8c0.2-0.3,0.4-0.5,0.7-0.6c0.3-0.2,0.6-0.2,1-0.2c0.4,0,0.7,0.1,1,0.2
			s0.5,0.4,0.6,0.7c0.2-0.3,0.4-0.6,0.7-0.7c0.3-0.2,0.6-0.3,1-0.3c0.6,0,1,0.2,1.4,0.6c0.3,0.4,0.5,1,0.5,1.8v2.4l0.8,0.2v0.9h-3
			v-0.9l0.7-0.2v-2.4c0-0.4-0.1-0.7-0.2-0.9s-0.4-0.3-0.6-0.3c-0.2,0-0.4,0-0.6,0.1c-0.2,0.1-0.3,0.2-0.4,0.4c0,0.1,0,0.1,0,0.2
			c0,0,0,0.1,0,0.1v2.7l0.6,0.2v0.9h-2.8v-0.9l0.6-0.2v-2.4c0-0.4-0.1-0.7-0.2-0.9c-0.1-0.2-0.4-0.3-0.6-0.3c-0.2,0-0.4,0-0.6,0.1
			c-0.2,0.1-0.3,0.2-0.4,0.3v3.1l0.7,0.2v0.9h-3v-0.9l0.8-0.2v-3.6L60.2,196.4z"/>
	</g>
	<g class="st2">
		<path class="st3" d="M73.3,201.4c-0.8,0-1.5-0.3-2-0.8c-0.5-0.5-0.8-1.2-0.8-2v-0.2c0-0.9,0.2-1.6,0.7-2.1
			c0.5-0.6,1.1-0.8,1.9-0.8c0.8,0,1.4,0.2,1.8,0.7c0.4,0.5,0.6,1.1,0.6,1.9v0.9h-3.5l0,0c0,0.4,0.2,0.7,0.4,0.9
			c0.2,0.2,0.5,0.4,0.9,0.4c0.3,0,0.6,0,0.9-0.1c0.2-0.1,0.5-0.2,0.8-0.3l0.4,1c-0.2,0.2-0.6,0.3-0.9,0.5
			C74.2,201.3,73.8,201.4,73.3,201.4z M73.2,196.6c-0.3,0-0.5,0.1-0.7,0.3c-0.2,0.2-0.3,0.5-0.3,0.9l0,0h1.9v-0.1
			c0-0.3-0.1-0.6-0.2-0.8C73.8,196.7,73.5,196.6,73.2,196.6z"/>
	</g>
	<path class="st10" d="M222.6,47.5c4.6-4.5,12.1-4.5,16.6,0.1c4.5,4.6,4.5,12.1-0.1,16.6c-4.6,4.5-12.1,4.5-16.6-0.1
		c-2.2-2.2-3.4-5.1-3.4-8.2c0-2.6,0.8-5.1,2.4-7.1"/>
	<path class="st8" d="M230.9,61.5h-4.3c-0.6,0-0.8-0.2-0.8-0.8v-6.5c0-0.6,0.2-0.8,0.8-0.8h8.5c0.5,0,0.8,0.2,0.8,0.8v6.5
		c0,0.5-0.2,0.8-0.8,0.8C233.7,61.5,232.3,61.5,230.9,61.5z"/>
	<path class="st8" d="M226.5,52.9c0-1.8,1-3.4,2.6-4.1c2.1-0.9,4.6,0,5.5,2.1c0.1,0.2,0.2,0.5,0.2,0.7c0.1,0.4,0.1,0.8,0.2,1.2"/>
	<path class="st9" d="M230.2,58.7L230.2,58.7v0.9c0,0.2,0.1,0.2,0.3,0.2h0.8c0.2,0,0.3-0.1,0.3-0.3V58c0-0.2,0.1-0.3,0.2-0.4
		c0.5-0.3,0.8-0.9,0.6-1.5c-0.2-0.6-0.8-1-1.4-1c-0.7-0.1-1.3,0.3-1.6,0.9c-0.2,0.6,0,1.2,0.6,1.5c0.2,0.1,0.3,0.3,0.3,0.5
		C230.2,58.3,230.2,58.5,230.2,58.7z"/>
	<g id="Scone_logo_white">
		<g>
			<defs>
				<rect id="SVGID_2_" x="212.3" y="118.5" width="36.3" height="7.1"/>
			</defs>
			<clipPath id="SVGID_3_">
				<use xlink:href="#SVGID_2_"  style="overflow:visible;"/>
			</clipPath>
			<g class="st11">
				<g>
					<defs>
						<rect id="SVGID_4_" x="212.3" y="118.5" width="36.3" height="7.1"/>
					</defs>
					<clipPath id="SVGID_5_">
						<use xlink:href="#SVGID_4_"  style="overflow:visible;"/>
					</clipPath>
					<g class="st12">
						<path class="st13" d="M217.1,120.3h-0.8c-0.2,0-0.3,0.1-0.3,0.3v0.8c0,0.2,0.1,0.3,0.3,0.3h0.8c0.2,0,0.3-0.1,0.3-0.3v-0.8
							C217.4,120.4,217.2,120.3,217.1,120.3 M214.4,121.7h0.8c0.2,0,0.3-0.1,0.3-0.3v-0.8c0-0.2-0.1-0.3-0.3-0.3h-0.8
							c-0.2,0-0.3,0.1-0.3,0.3v0.8C214.1,121.5,214.3,121.7,214.4,121.7 M213.6,121.4v-0.8c0-0.2-0.1-0.3-0.3-0.3h-0.8
							c-0.2,0-0.3,0.1-0.3,0.3v0.8c0,0.2,0.1,0.3,0.3,0.3h0.8C213.5,121.7,213.6,121.5,213.6,121.4 M217.1,122.2
							c-0.1,0-0.2,0.1-0.2,0.2l0,0v0.9c0,0.1,0.1,0.2,0.2,0.2s0.2-0.1,0.2-0.2l0,0v-0.9C217.4,122.3,217.3,122.2,217.1,122.2
							C217.2,122.2,217.1,122.2,217.1,122.2 M215.1,122.5v0.8c0,0.2,0.1,0.3,0.3,0.3h0.8c0.2,0,0.3-0.1,0.3-0.3v-0.8
							c0-0.2-0.1-0.3-0.3-0.3h-0.8C215.2,122.2,215.1,122.3,215.1,122.5 M214.5,123.3v-0.8c0-0.2-0.1-0.3-0.3-0.3h-0.8
							c-0.2,0-0.3,0.1-0.3,0.3v0.8c0,0.2,0.1,0.3,0.3,0.3h0.8C214.4,123.6,214.5,123.4,214.5,123.3 M217.1,124.1h-0.8
							c-0.2,0-0.3,0.1-0.3,0.3v0.8c0,0.2,0.1,0.3,0.3,0.3h0.8c0.2,0,0.3-0.1,0.3-0.3v-0.8C217.4,124.2,217.2,124.1,217.1,124.1
							 M215.1,124.1h-0.8c-0.2,0-0.3,0.1-0.3,0.3v0.8c0,0.2,0.1,0.3,0.3,0.3h0.8c0.2,0,0.3-0.1,0.3-0.3v-0.8
							C215.4,124.2,215.2,124.1,215.1,124.1"/>
						<path class="st13" d="M218,120c0.3,0.3,0.8,0.4,1.2,0.4c0,0,0,0,0,0.1v2.1c0,0.8-1,1.3-1.2,1.4l0,0L218,120L218,120"/>
						<path class="st13" d="M215.7,119.9c1.6-0.1,1.9-0.6,1.9-0.6c0,0,0,0,0.1,0c0,0,0.1,0,0.1,0s0.3,0.6,1.9,0.6c0,0,0.1,0,0.1,0.1
							v2.8c0,0.9-1.7,1.9-1.7,1.9s-0.1,0-0.1,0.1v0.7c0,0,0.1,0,0.1,0c0.6-0.3,2.3-1.3,2.3-2.5v-3.5c0-0.1-0.1-0.1-0.2-0.1
							c-2.1,0-2.4-0.7-2.4-0.7s-0.1,0-0.1,0s-0.1,0-0.1,0s-0.3,0.8-2.4,0.8c-0.1,0-0.1,0-0.1,0.1v0.4c0,0,0,0.1,0.1,0.1
							S215.7,119.9,215.7,119.9"/>
						<path class="st14" d="M221.9,124.4l0.8-0.3c0.4,0.6,1.1,0.8,1.7,0.5c0.2-0.1,0.3-0.3,0.3-0.4c0-0.4-0.6-0.7-1-0.9l0,0
							c-0.4-0.1-0.7-0.3-1-0.5c-0.3-0.2-0.5-0.6-0.5-1c0-0.4,0.2-0.8,0.5-1c0.3-0.3,0.8-0.4,1.2-0.4c0.7,0,1.3,0.3,1.6,0.9l-0.8,0.3
							c-0.1-0.1-0.2-0.2-0.3-0.3c-0.1-0.1-0.3-0.1-0.5-0.1c-0.5,0-0.8,0.3-0.8,0.6c0,0.2,0.1,0.4,0.3,0.5c0.2,0.2,0.5,0.3,0.7,0.4
							h0.1c0.6,0.3,1.4,0.6,1.4,1.4c0,0.4-0.2,0.8-0.6,1c-0.4,0.3-0.9,0.4-1.3,0.4c-0.8,0-1.5-0.4-1.9-1.1"/>
						<path class="st14" d="M229.1,125.5c-0.3,0-0.7-0.1-1-0.2c-0.3-0.1-0.6-0.3-0.8-0.6c-0.2-0.2-0.4-0.5-0.6-0.8
							c-0.3-0.6-0.3-1.4,0-2c0.1-0.3,0.3-0.6,0.6-0.8c0.2-0.2,0.5-0.4,0.8-0.6c0.3-0.1,0.7-0.2,1-0.2c0.4,0,0.8,0.1,1.2,0.3
							c0.4,0.2,0.7,0.4,0.9,0.7l-0.7,0.5c-0.3-0.4-0.8-0.7-1.4-0.7c-1,0-1.7,0.8-1.7,1.7l0,0c0,0.5,0.2,0.9,0.5,1.2
							c0.3,0.3,0.8,0.5,1.2,0.5c0.3,0,0.6-0.1,0.9-0.3c0.3-0.2,0.5-0.4,0.6-0.6l0.7,0.4c-0.2,0.4-0.5,0.8-0.9,1
							C230.1,125.4,229.6,125.6,229.1,125.5"/>
						<path class="st14" d="M234.8,125.5c-0.3,0-0.7-0.1-1-0.2c-0.3-0.1-0.6-0.3-0.8-0.6c-0.2-0.2-0.4-0.5-0.6-0.8
							c-0.1-0.3-0.2-0.7-0.2-1c0-0.3,0.1-0.7,0.2-1c0.1-0.3,0.3-0.6,0.6-0.8c0.2-0.2,0.5-0.4,0.8-0.6c0.3-0.1,0.7-0.2,1-0.2
							c0.3,0,0.7,0.1,1,0.2c0.3,0.1,0.6,0.3,0.8,0.6c0.2,0.2,0.4,0.5,0.6,0.8c0.1,0.3,0.2,0.7,0.2,1c0,0.3-0.1,0.7-0.2,1
							c-0.1,0.3-0.3,0.6-0.6,0.8C236.2,125.2,235.5,125.5,234.8,125.5 M234.8,121.2c-0.5,0-0.9,0.2-1.2,0.5
							c-0.3,0.3-0.5,0.8-0.5,1.2c0,1,0.8,1.7,1.7,1.7l0,0c0.5,0,0.9-0.2,1.2-0.5c0.3-0.3,0.5-0.8,0.5-1.2c0-0.5-0.2-0.9-0.5-1.2
							C235.7,121.3,235.3,121.2,234.8,121.2"/>
						<polygon class="st14" points="243.3,120.3 243.3,125.6 239.7,122.3 239.7,125.4 238.7,125.4 238.7,120.2 242.4,123.5 
							242.4,120.3 						"/>
						<polygon class="st14" points="245.8,121.1 245.8,122.5 248.3,122.5 248.3,123.3 245.8,123.3 245.8,124.6 248.6,124.6 
							248.6,125.4 244.8,125.4 244.8,120.3 248.6,120.3 248.6,121.1 245.8,121.1 						"/>
					</g>
				</g>
			</g>
		</g>
	</g>
	
		<linearGradient id="SVGID_6_" gradientUnits="userSpaceOnUse" x1="432.42" y1="298" x2="602.86" y2="298" gradientTransform="matrix(1 0 0 -1 0 394)">
		<stop  offset="0" style="stop-color:#990066"/>
		<stop  offset="0.19" style="stop-color:#780066"/>
		<stop  offset="0.4" style="stop-color:#5A0066"/>
		<stop  offset="0.61" style="stop-color:#440066"/>
		<stop  offset="0.81" style="stop-color:#370066"/>
		<stop  offset="1" style="stop-color:#330066"/>
	</linearGradient>
	<path class="st15" d="M437.4,58.3h160.4c2.8,0,5,2.2,5,5v65.5c0,2.8-2.2,5-5,5H437.4c-2.8,0-5-2.2-5-5V63.3
		C432.4,60.5,434.7,58.3,437.4,58.3z"/>
	<path class="st7" d="M437.4,58.3h160.4c2.8,0,5,2.2,5,5v65.5c0,2.8-2.2,5-5,5H437.4c-2.8,0-5-2.2-5-5V63.3
		C432.4,60.5,434.7,58.3,437.4,58.3z"/>
	<path class="st8" d="M454.8,80.5h124.6c2.8,0,5,2.2,5,5v17.2c0,2.8-2.2,5-5,5H454.8c-2.8,0-5-2.2-5-5V85.5
		C449.8,82.8,452,80.5,454.8,80.5z"/>
	<g class="st2">
		<path class="st9" d="M485.9,96.8l0.6-0.1l2.4-6.8h1.6l2.4,6.8l0.6,0.1v0.9h-2.7v-0.9l0.5-0.1l-0.3-1.1h-2.5l-0.3,1.1l0.5,0.1v0.9
			h-2.7V96.8z M488.7,94.4h1.8l-0.9-2.8h0L488.7,94.4z"/>
		<path class="st9" d="M493.8,92.8v-0.9h2.3l0.1,0.7c0.2-0.3,0.4-0.4,0.6-0.6c0.2-0.1,0.5-0.2,0.8-0.2c0.7,0,1.3,0.3,1.7,0.8
			c0.4,0.6,0.6,1.3,0.6,2.2v0.1c0,0.9-0.2,1.5-0.6,2.1c-0.4,0.5-1,0.8-1.7,0.8c-0.3,0-0.6-0.1-0.8-0.2c-0.2-0.1-0.4-0.3-0.6-0.5v1.7
			l0.8,0.2v0.9h-3.1V99l0.8-0.2V93L493.8,92.8z M498.3,94.8c0-0.5-0.1-1-0.3-1.3s-0.5-0.5-0.8-0.5c-0.2,0-0.4,0-0.6,0.1
			c-0.2,0.1-0.3,0.2-0.4,0.4v2.5c0.1,0.2,0.2,0.3,0.4,0.4c0.2,0.1,0.4,0.1,0.6,0.1c0.4,0,0.7-0.1,0.8-0.4c0.2-0.3,0.3-0.7,0.3-1.2
			V94.8z"/>
	</g>
	<g class="st2">
		<path class="st9" d="M500.5,92.8v-0.9h2.3l0.1,0.7c0.2-0.3,0.4-0.4,0.6-0.6c0.2-0.1,0.5-0.2,0.8-0.2c0.7,0,1.3,0.3,1.7,0.8
			c0.4,0.6,0.6,1.3,0.6,2.2v0.1c0,0.9-0.2,1.5-0.6,2.1c-0.4,0.5-1,0.8-1.7,0.8c-0.3,0-0.6-0.1-0.8-0.2c-0.2-0.1-0.4-0.3-0.6-0.5v1.7
			l0.8,0.2v0.9h-3.1V99l0.8-0.2V93L500.5,92.8z M505,94.8c0-0.5-0.1-1-0.3-1.3c-0.2-0.3-0.5-0.5-0.8-0.5c-0.2,0-0.4,0-0.6,0.1
			s-0.3,0.2-0.4,0.4v2.5c0.1,0.2,0.2,0.3,0.4,0.4s0.4,0.1,0.6,0.1c0.4,0,0.7-0.1,0.8-0.4c0.2-0.3,0.3-0.7,0.3-1.2V94.8z"/>
	</g>
	<g class="st2">
		<path class="st9" d="M507,90.3v-0.9h2.4v7.3l0.8,0.2v0.9H507v-0.9l0.8-0.2v-6.2L507,90.3z"/>
		<path class="st9" d="M510.6,96.8l0.8-0.2V93l-0.8-0.2v-0.9h2.4v4.7l0.8,0.2v0.9h-3.1V96.8z M512.9,90.5h-1.6v-1.2h1.6V90.5z"/>
		<path class="st9" d="M516.9,96.6c0.3,0,0.5-0.1,0.7-0.2c0.2-0.2,0.3-0.4,0.3-0.7h1.4l0,0c0,0.6-0.2,1.1-0.7,1.5
			c-0.5,0.4-1,0.6-1.7,0.6c-0.9,0-1.5-0.3-2-0.8c-0.5-0.5-0.7-1.3-0.7-2.1v-0.2c0-0.9,0.2-1.6,0.7-2.1c0.5-0.6,1.2-0.8,2.1-0.8
			c0.5,0,0.9,0.1,1.3,0.2c0.4,0.1,0.7,0.3,0.9,0.6l0,1.6h-1.3l-0.3-0.9c-0.1-0.1-0.2-0.1-0.3-0.2c-0.1,0-0.2-0.1-0.4-0.1
			c-0.4,0-0.8,0.2-0.9,0.5s-0.3,0.7-0.3,1.2v0.2c0,0.5,0.1,0.9,0.3,1.3C516.2,96.4,516.5,96.6,516.9,96.6z"/>
	</g>
	<g class="st2">
		<path class="st9" d="M523.7,97.7c0-0.1-0.1-0.2-0.1-0.3c0-0.1-0.1-0.2-0.1-0.3c-0.2,0.2-0.4,0.4-0.7,0.5s-0.6,0.2-0.9,0.2
			c-0.6,0-1-0.2-1.4-0.5c-0.3-0.3-0.5-0.7-0.5-1.3c0-0.5,0.2-1,0.7-1.3c0.4-0.3,1.1-0.4,1.9-0.4h0.8v-0.6c0-0.3-0.1-0.5-0.2-0.6
			s-0.4-0.2-0.7-0.2c-0.2,0-0.3,0-0.5,0.1s-0.3,0.1-0.3,0.1l-0.1,0.6h-1.2l0-1.3c0.3-0.2,0.6-0.4,1-0.5c0.4-0.1,0.8-0.2,1.2-0.2
			c0.7,0,1.3,0.2,1.8,0.5s0.7,0.9,0.7,1.5v2.4c0,0.1,0,0.2,0,0.3c0,0.1,0,0.2,0,0.2l0.5,0.1v0.9H523.7z M522.3,96.6
			c0.2,0,0.5-0.1,0.6-0.2c0.2-0.1,0.3-0.2,0.5-0.4v-0.9h-0.8c-0.3,0-0.6,0.1-0.8,0.2c-0.2,0.2-0.3,0.3-0.3,0.6
			c0,0.2,0.1,0.4,0.2,0.5S522.1,96.6,522.3,96.6z"/>
	</g>
	<g class="st2">
		<path class="st9" d="M527.9,90.5v1.4h1V93h-1v3c0,0.2,0,0.4,0.1,0.5c0.1,0.1,0.2,0.1,0.4,0.1c0.1,0,0.2,0,0.3,0c0.1,0,0.2,0,0.3,0
			l0.1,1.1c-0.2,0.1-0.3,0.1-0.5,0.1c-0.2,0-0.4,0-0.6,0c-0.5,0-1-0.1-1.2-0.4c-0.3-0.3-0.4-0.8-0.4-1.4v-3h-0.9v-1.1h0.9v-1.4
			H527.9z"/>
		<path class="st9" d="M529.6,96.8l0.8-0.2V93l-0.8-0.2v-0.9h2.4v4.7l0.8,0.2v0.9h-3.1V96.8z M532,90.5h-1.6v-1.2h1.6V90.5z"/>
		<path class="st9" d="M533.2,94.7c0-0.9,0.2-1.6,0.7-2.1c0.5-0.6,1.2-0.8,2-0.8c0.9,0,1.5,0.3,2,0.8c0.5,0.6,0.7,1.3,0.7,2.1v0.1
			c0,0.9-0.2,1.6-0.7,2.1c-0.5,0.5-1.2,0.8-2,0.8c-0.9,0-1.5-0.3-2-0.8c-0.5-0.5-0.7-1.3-0.7-2.1V94.7z M534.8,94.8
			c0,0.5,0.1,1,0.3,1.3c0.2,0.3,0.5,0.5,0.9,0.5c0.4,0,0.7-0.2,0.9-0.5c0.2-0.3,0.3-0.7,0.3-1.3v-0.1c0-0.5-0.1-0.9-0.3-1.3
			c-0.2-0.3-0.5-0.5-0.9-0.5s-0.7,0.2-0.9,0.5c-0.2,0.3-0.3,0.7-0.3,1.3V94.8z"/>
		<path class="st9" d="M539.3,96.8l0.8-0.2V93l-0.8-0.2v-0.9h2.3l0.1,0.8c0.2-0.3,0.4-0.5,0.7-0.7c0.3-0.2,0.6-0.2,1-0.2
			c0.6,0,1,0.2,1.4,0.6c0.3,0.4,0.5,0.9,0.5,1.7v2.5l0.8,0.2v0.9h-3v-0.9l0.7-0.2v-2.5c0-0.4-0.1-0.7-0.2-0.8
			c-0.2-0.2-0.4-0.2-0.7-0.2c-0.2,0-0.4,0-0.6,0.1c-0.2,0.1-0.3,0.2-0.4,0.4v3.1l0.6,0.2v0.9h-3V96.8z"/>
	</g>
	<path class="st10" d="M508.9,47.5c4.6-4.5,12.1-4.5,16.6,0.1s4.5,12.1-0.1,16.6s-12.1,4.5-16.6-0.1c-2.2-2.2-3.4-5.1-3.4-8.2
		c0-2.6,0.8-5.1,2.4-7.1"/>
	<path class="st8" d="M517.2,61.5h-4.3c-0.6,0-0.8-0.2-0.8-0.8v-6.5c0-0.6,0.2-0.8,0.8-0.8h8.5c0.5,0,0.8,0.2,0.8,0.8v6.5
		c0,0.5-0.2,0.8-0.8,0.8C520,61.5,518.6,61.5,517.2,61.5z"/>
	<path class="st8" d="M512.8,52.9c0-1.8,1-3.4,2.6-4.1c2.1-0.9,4.6,0,5.5,2.2c0.1,0.2,0.2,0.5,0.2,0.7c0.1,0.4,0.1,0.8,0.2,1.2"/>
	<path class="st9" d="M516.5,58.7L516.5,58.7v0.9c0,0.2,0.1,0.2,0.3,0.2h0.8c0.2,0,0.3-0.1,0.3-0.3V58c0-0.2,0.1-0.3,0.2-0.4
		c0.5-0.3,0.8-0.9,0.6-1.5c-0.2-0.6-0.8-1-1.5-1c-0.7-0.1-1.3,0.3-1.6,0.9c-0.2,0.6,0,1.2,0.5,1.5c0.2,0.1,0.3,0.3,0.3,0.5
		C516.5,58.3,516.5,58.5,516.5,58.7z"/>
	<g id="Scone_logo_white-2">
		<g>
			<defs>
				<rect id="SVGID_7_" x="498.6" y="118.5" width="36.3" height="7.1"/>
			</defs>
			<clipPath id="SVGID_8_">
				<use xlink:href="#SVGID_7_"  style="overflow:visible;"/>
			</clipPath>
			<g class="st16">
				<g>
					<defs>
						<rect id="SVGID_9_" x="498.6" y="118.5" width="36.3" height="7.1"/>
					</defs>
					<clipPath id="SVGID_10_">
						<use xlink:href="#SVGID_9_"  style="overflow:visible;"/>
					</clipPath>
					<g class="st17">
						<path class="st13" d="M503.4,120.3h-0.8c-0.2,0-0.3,0.1-0.3,0.3v0v0.8c0,0.2,0.1,0.3,0.3,0.3l0,0h0.8c0.2,0,0.3-0.1,0.3-0.3v0
							v-0.8C503.7,120.4,503.6,120.3,503.4,120.3L503.4,120.3 M500.8,121.7h0.8c0.2,0,0.3-0.1,0.3-0.3v-0.8c0-0.2-0.1-0.3-0.3-0.3
							h-0.8c-0.2,0-0.3,0.1-0.3,0.3v0v0.8C500.5,121.5,500.6,121.7,500.8,121.7L500.8,121.7 M499.9,121.4v-0.8
							c0-0.2-0.1-0.3-0.3-0.3l0,0h-0.8c-0.2,0-0.3,0.1-0.3,0.3v0v0.8c0,0.2,0.1,0.3,0.3,0.3l0,0h0.8
							C499.8,121.7,499.9,121.5,499.9,121.4L499.9,121.4 M503.5,122.2c-0.1,0-0.2,0.1-0.2,0.2l0,0v0.9c0,0.1,0.1,0.2,0.2,0.2
							s0.2-0.1,0.2-0.2l0,0v-0.9C503.7,122.3,503.6,122.2,503.5,122.2C503.5,122.2,503.5,122.2,503.5,122.2 M501.4,122.5v0.8
							c0,0.2,0.1,0.3,0.3,0.3l0,0h0.8c0.2,0,0.3-0.1,0.3-0.3v0v-0.8c0-0.2-0.1-0.3-0.3-0.3l0,0h-0.8
							C501.5,122.2,501.4,122.3,501.4,122.5L501.4,122.5 M500.8,123.3v-0.8c0-0.2-0.1-0.3-0.3-0.3h-0.8c-0.2,0-0.3,0.1-0.3,0.3v0
							v0.8c0,0.2,0.1,0.3,0.3,0.3l0,0h0.8C500.7,123.6,500.8,123.4,500.8,123.3 M503.4,124.1h-0.8c-0.2,0-0.3,0.1-0.3,0.3v0.8
							c0,0.2,0.1,0.3,0.3,0.3h0.8c0.2,0,0.3-0.1,0.3-0.3v-0.8C503.7,124.2,503.6,124.1,503.4,124.1 M501.4,124.1h-0.8
							c-0.2,0-0.3,0.1-0.3,0.3v0.8c0,0.2,0.1,0.3,0.3,0.3h0.8c0.2,0,0.3-0.1,0.3-0.3v-0.8C501.7,124.2,501.6,124.1,501.4,124.1"/>
						<path class="st13" d="M504.3,120c0.3,0.3,0.8,0.4,1.2,0.4c0,0,0,0,0,0.1v2.1c0,0.8-1,1.3-1.2,1.4l0,0L504.3,120L504.3,120"/>
						<path class="st13" d="M502,119.9c1.6-0.1,1.9-0.6,1.9-0.6c0,0,0,0,0.1,0c0,0,0.1,0,0.1,0s0.3,0.6,1.9,0.6c0,0,0.1,0,0.1,0.1
							v2.8c0,0.9-1.7,1.9-1.7,1.9s0,0,0,0.1v0.7c0,0,0.1,0,0.1,0c0.6-0.3,2.3-1.3,2.3-2.5v-3.5c0-0.1-0.1-0.1-0.2-0.1
							c-2,0-2.4-0.7-2.4-0.7s-0.1,0-0.1,0s-0.1,0-0.1,0s-0.3,0.8-2.4,0.8c-0.1,0-0.1,0-0.1,0.1v0.4c0,0,0,0.1,0,0.1
							S502,119.9,502,119.9"/>
						<path class="st14" d="M508.2,124.4l0.8-0.3c0.2,0.4,0.6,0.6,1.1,0.6c0.2,0,0.4,0,0.6-0.2c0.2-0.1,0.3-0.3,0.3-0.4
							c0-0.4-0.6-0.7-1-0.9l0,0c-0.3-0.1-0.7-0.3-1-0.5c-0.3-0.2-0.5-0.6-0.5-1c0-0.4,0.2-0.8,0.5-1c0.3-0.3,0.8-0.4,1.2-0.4
							c0.7,0,1.3,0.3,1.6,0.9l-0.9,0.3c-0.1-0.1-0.2-0.2-0.3-0.3c-0.1-0.1-0.3-0.1-0.5-0.1c-0.5,0-0.8,0.3-0.8,0.6
							c0,0.2,0.1,0.4,0.3,0.5c0.2,0.2,0.5,0.3,0.7,0.4h0.1c0.6,0.3,1.4,0.6,1.4,1.4c0,0.4-0.2,0.8-0.6,1c-0.4,0.3-0.9,0.4-1.3,0.4
							c-0.8,0.1-1.5-0.4-1.9-1.1"/>
						<path class="st14" d="M515.5,125.5c-0.3,0-0.7-0.1-1-0.2c-0.3-0.1-0.6-0.3-0.8-0.6c-0.2-0.2-0.4-0.5-0.6-0.8
							c-0.3-0.6-0.3-1.4,0-2c0.1-0.3,0.3-0.6,0.6-0.8c0.2-0.2,0.5-0.4,0.8-0.6c0.3-0.1,0.7-0.2,1-0.2c0.4,0,0.8,0.1,1.2,0.3
							c0.3,0.2,0.7,0.4,0.9,0.7l-0.7,0.5c-0.3-0.4-0.8-0.7-1.4-0.7c-1,0-1.7,0.8-1.7,1.7c0,0.5,0.2,0.9,0.5,1.2
							c0.3,0.3,0.8,0.5,1.2,0.5c0.3,0,0.6-0.1,0.9-0.3c0.3-0.2,0.5-0.4,0.6-0.6l0.7,0.4c-0.2,0.4-0.5,0.8-0.9,1
							C516.4,125.4,515.9,125.6,515.5,125.5"/>
						<path class="st14" d="M521.1,125.5c-0.3,0-0.7-0.1-1-0.2c-0.3-0.1-0.6-0.3-0.8-0.6c-0.2-0.2-0.4-0.5-0.6-0.8
							c-0.1-0.3-0.2-0.7-0.2-1c0-0.3,0.1-0.7,0.2-1c0.1-0.3,0.3-0.6,0.6-0.8c0.2-0.2,0.5-0.4,0.8-0.6c0.6-0.3,1.4-0.3,2,0
							c0.3,0.1,0.6,0.3,0.8,0.6c0.2,0.2,0.4,0.5,0.5,0.8c0.1,0.3,0.2,0.7,0.2,1c0,0.3-0.1,0.7-0.2,1c-0.1,0.3-0.3,0.6-0.5,0.8
							c-0.2,0.2-0.5,0.4-0.8,0.6C521.8,125.4,521.5,125.5,521.1,125.5 M521.1,121.2c-0.5,0-0.9,0.2-1.2,0.5
							c-0.3,0.3-0.5,0.8-0.5,1.2c0,1,0.8,1.7,1.7,1.7c0.5,0,0.9-0.2,1.2-0.5c0.3-0.3,0.5-0.8,0.5-1.2c0-0.5-0.2-0.9-0.5-1.2
							C522,121.3,521.6,121.2,521.1,121.2"/>
						<polygon class="st14" points="529.6,120.3 529.6,125.6 526,122.3 526,125.4 525.1,125.4 525.1,120.2 528.7,123.5 528.7,120.3 
													"/>
						<polygon class="st14" points="532.1,121.1 532.1,122.5 534.6,122.5 534.6,123.3 532.1,123.3 532.1,124.6 534.9,124.6 
							534.9,125.4 531.2,125.4 531.2,120.3 534.9,120.3 534.9,121.1 532.1,121.1 						"/>
					</g>
				</g>
			</g>
		</g>
	</g>
	
		<linearGradient id="SVGID_11_" gradientUnits="userSpaceOnUse" x1="433.25" y1="153.805" x2="601.67" y2="153.805" gradientTransform="matrix(1 0 0 -1 0 394)">
		<stop  offset="0" style="stop-color:#990066"/>
		<stop  offset="0.19" style="stop-color:#780066"/>
		<stop  offset="0.4" style="stop-color:#5A0066"/>
		<stop  offset="0.61" style="stop-color:#440066"/>
		<stop  offset="0.81" style="stop-color:#370066"/>
		<stop  offset="1" style="stop-color:#330066"/>
	</linearGradient>
	<path class="st18" d="M438.3,203.1h158.4c2.8,0,5,2.2,5,5v64.3c0,2.8-2.2,5-5,5H438.3c-2.8,0-5-2.2-5-5v-64.3
		C433.3,205.3,435.5,203.1,438.3,203.1z"/>
	<g class="st2">
		<path class="st9" d="M484.2,244.2l0.9-0.2v-6.2l-0.9-0.2v-1.1h6.9v2.4h-1.3l-0.1-1h-2.8v2.4h3v1.3h-3v2.4l0.9,0.2v1h-3.6V244.2z"
			/>
		<path class="st9" d="M491.7,244.2l0.8-0.2v-4l-0.9-0.2v-1.1h2.7v5.2l0.8,0.2v1h-3.4V244.2z M494.3,237.2h-1.7v-1.3h1.7V237.2z"/>
		<path class="st9" d="M495.5,237v-1.1h2.7v8.1l0.8,0.2v1h-3.4v-1l0.8-0.2v-6.9L495.5,237z"/>
		<path class="st9" d="M502.7,245.4c-0.9,0-1.7-0.3-2.2-0.9s-0.8-1.4-0.8-2.3V242c0-1,0.3-1.8,0.8-2.4c0.5-0.6,1.2-0.9,2.1-0.9
			c0.9,0,1.5,0.3,2,0.8c0.5,0.5,0.7,1.2,0.7,2.1v1h-3.9l0,0c0,0.4,0.2,0.8,0.4,1.1c0.3,0.3,0.6,0.4,1,0.4c0.4,0,0.7,0,1-0.1
			c0.3-0.1,0.5-0.2,0.8-0.4l0.5,1.1c-0.3,0.2-0.6,0.4-1,0.5C503.7,245.3,503.2,245.4,502.7,245.4z M502.6,240
			c-0.3,0-0.6,0.1-0.8,0.4c-0.2,0.2-0.3,0.6-0.3,1l0,0h2.1v-0.2c0-0.4-0.1-0.7-0.3-0.9C503.2,240.1,502.9,240,502.6,240z"/>
		<path class="st9" d="M514.4,241h-1.2l-0.2-0.8c-0.1-0.1-0.3-0.2-0.5-0.2c-0.2-0.1-0.4-0.1-0.6-0.1c-0.3,0-0.5,0.1-0.7,0.2
			c-0.2,0.1-0.3,0.3-0.3,0.5c0,0.2,0.1,0.4,0.3,0.5c0.2,0.1,0.5,0.2,1,0.3c0.8,0.2,1.4,0.4,1.8,0.7s0.6,0.7,0.6,1.3
			c0,0.6-0.3,1.1-0.8,1.4c-0.5,0.4-1.2,0.6-2,0.6c-0.5,0-1-0.1-1.4-0.2c-0.4-0.1-0.8-0.4-1.1-0.6l0-1.5h1.2l0.2,0.8
			c0.1,0.1,0.2,0.2,0.4,0.2c0.2,0,0.4,0.1,0.6,0.1c0.4,0,0.6-0.1,0.8-0.2c0.2-0.1,0.3-0.3,0.3-0.5c0-0.2-0.1-0.4-0.3-0.5
			c-0.2-0.1-0.5-0.3-1-0.4c-0.8-0.2-1.3-0.4-1.7-0.7c-0.4-0.3-0.6-0.7-0.6-1.2c0-0.5,0.2-1,0.7-1.4s1.1-0.6,1.9-0.6
			c0.5,0,1,0.1,1.4,0.2s0.8,0.3,1.1,0.5L514.4,241z"/>
		<path class="st9" d="M522.1,239.8l-0.6,0.1l-2.4,6.3c-0.2,0.5-0.4,0.9-0.8,1.2c-0.3,0.3-0.8,0.5-1.4,0.5c-0.1,0-0.3,0-0.4,0
			c-0.1,0-0.3-0.1-0.5-0.1l0.2-1.3c0.1,0,0.1,0,0.2,0c0.1,0,0.1,0,0.2,0c0.3,0,0.5-0.1,0.7-0.2c0.2-0.1,0.3-0.3,0.4-0.5l0.2-0.5
			l-2-5.3l-0.6-0.1v-1.1h3.2v1.1l-0.7,0.1l0.9,2.6l0.1,0.5l0,0l1-3.1l-0.7-0.1v-1.1h3.2V239.8z"/>
		<path class="st9" d="M528,241h-1.2l-0.2-0.8c-0.1-0.1-0.3-0.2-0.5-0.2c-0.2-0.1-0.4-0.1-0.6-0.1c-0.3,0-0.5,0.1-0.7,0.2
			c-0.2,0.1-0.3,0.3-0.3,0.5c0,0.2,0.1,0.4,0.3,0.5c0.2,0.1,0.5,0.2,1,0.3c0.8,0.2,1.4,0.4,1.8,0.7s0.6,0.7,0.6,1.3
			c0,0.6-0.3,1.1-0.8,1.4c-0.5,0.4-1.2,0.6-2,0.6c-0.5,0-1-0.1-1.4-0.2c-0.4-0.1-0.8-0.4-1.1-0.6l0-1.5h1.2l0.2,0.8
			c0.1,0.1,0.2,0.2,0.4,0.2c0.2,0,0.4,0.1,0.6,0.1c0.4,0,0.6-0.1,0.8-0.2c0.2-0.1,0.3-0.3,0.3-0.5c0-0.2-0.1-0.4-0.3-0.5
			c-0.2-0.1-0.5-0.3-1-0.4c-0.8-0.2-1.3-0.4-1.7-0.7c-0.4-0.3-0.6-0.7-0.6-1.2c0-0.5,0.2-1,0.7-1.4s1.1-0.6,1.9-0.6
			c0.5,0,1,0.1,1.4,0.2s0.8,0.3,1.1,0.5L528,241z"/>
		<path class="st9" d="M531.6,237.2v1.6h1.1v1.2h-1.1v3.3c0,0.3,0.1,0.4,0.2,0.5s0.2,0.2,0.4,0.2c0.1,0,0.2,0,0.3,0
			c0.1,0,0.2,0,0.3-0.1l0.1,1.3c-0.2,0.1-0.4,0.1-0.6,0.1c-0.2,0-0.4,0-0.6,0c-0.6,0-1.1-0.2-1.4-0.5c-0.3-0.3-0.5-0.9-0.5-1.6V240
			h-1v-1.2h1v-1.6H531.6z"/>
		<path class="st9" d="M536.6,245.4c-0.9,0-1.7-0.3-2.2-0.9s-0.8-1.4-0.8-2.3V242c0-1,0.3-1.8,0.8-2.4c0.5-0.6,1.2-0.9,2.1-0.9
			c0.9,0,1.5,0.3,2,0.8c0.5,0.5,0.7,1.2,0.7,2.1v1h-3.9l0,0c0,0.4,0.2,0.8,0.4,1.1c0.3,0.3,0.6,0.4,1,0.4c0.4,0,0.7,0,1-0.1
			c0.3-0.1,0.5-0.2,0.8-0.4l0.5,1.1c-0.3,0.2-0.6,0.4-1,0.5C537.6,245.3,537.2,245.4,536.6,245.4z M536.5,240
			c-0.3,0-0.6,0.1-0.8,0.4c-0.2,0.2-0.3,0.6-0.3,1l0,0h2.1v-0.2c0-0.4-0.1-0.7-0.3-0.9C537.1,240.1,536.8,240,536.5,240z"/>
		<path class="st9" d="M539.9,239.8v-1.1h2.6l0.1,0.9c0.2-0.3,0.5-0.6,0.8-0.7c0.3-0.2,0.7-0.3,1.1-0.3c0.4,0,0.8,0.1,1.1,0.3
			c0.3,0.2,0.5,0.5,0.7,0.8c0.2-0.3,0.5-0.6,0.8-0.8c0.3-0.2,0.7-0.3,1.1-0.3c0.6,0,1.1,0.2,1.5,0.7s0.6,1.1,0.6,2v2.7l0.8,0.2v1
			h-3.3v-1l0.8-0.2v-2.7c0-0.5-0.1-0.8-0.2-1c-0.2-0.2-0.4-0.3-0.7-0.3c-0.2,0-0.5,0.1-0.6,0.2c-0.2,0.1-0.3,0.3-0.4,0.5
			c0,0.1,0,0.1,0,0.2c0,0.1,0,0.1,0,0.2v3l0.7,0.2v1h-3.1v-1l0.7-0.2v-2.7c0-0.5-0.1-0.8-0.2-1s-0.4-0.3-0.7-0.3
			c-0.2,0-0.4,0-0.6,0.1c-0.2,0.1-0.3,0.2-0.4,0.4v3.5l0.8,0.2v1H540v-1l0.8-0.2v-4L539.9,239.8z"/>
	</g>
	<g class="st2">
		<path class="st9" d="M363.8,84.4c-0.3,0.2-0.7,0.4-1.2,0.5c-0.5,0.1-1,0.1-1.5,0.1c-0.6,0-1.2-0.1-1.8-0.3
			c-0.6-0.2-1.1-0.5-1.5-0.9c-0.4-0.4-0.8-1-1-1.7c-0.3-0.7-0.4-1.5-0.4-2.5c0-1,0.1-1.9,0.4-2.6c0.3-0.7,0.7-1.3,1.1-1.7
			s1-0.7,1.5-0.9c0.6-0.2,1.1-0.3,1.7-0.3c0.6,0,1.1,0,1.5,0.1s0.8,0.2,1,0.3l-0.4,1.7c-0.2-0.1-0.5-0.2-0.8-0.2
			c-0.3,0-0.7-0.1-1.1-0.1c-0.8,0-1.5,0.3-2,0.9c-0.5,0.6-0.8,1.5-0.8,2.8c0,0.5,0.1,1,0.2,1.5c0.1,0.4,0.3,0.8,0.5,1.1
			c0.2,0.3,0.5,0.6,0.9,0.7c0.4,0.2,0.8,0.3,1.3,0.3c0.4,0,0.8,0,1.1-0.1s0.6-0.2,0.8-0.3L363.8,84.4z"/>
		<path class="st9" d="M373.2,79.3l0.2-2.1h-0.1l-0.6,1.7l-2.2,3.9h-0.7l-2.4-3.9l-0.7-1.7h-0.1l0.3,2.1v5.5h-2V74.3h1.9l2.8,4.8
			l0.5,1.2h0.1l0.5-1.2l2.7-4.8h1.9v10.5h-2.1V79.3z"/>
	</g>
	<g class="st2">
		<path class="st9" d="M377,74.3c0.2,0,0.4-0.1,0.7-0.1c0.3,0,0.5,0,0.8,0c0.3,0,0.6,0,0.8,0c0.3,0,0.5,0,0.7,0
			c0.9,0,1.7,0.1,2.4,0.4c0.7,0.3,1.2,0.6,1.6,1.1s0.7,1,0.9,1.7c0.2,0.7,0.3,1.4,0.3,2.1c0,0.7-0.1,1.4-0.3,2.1s-0.5,1.2-0.9,1.8
			c-0.4,0.5-1,0.9-1.7,1.2s-1.5,0.5-2.5,0.5c-0.2,0-0.4,0-0.6,0c-0.3,0-0.5,0-0.8,0c-0.3,0-0.6,0-0.8,0c-0.3,0-0.5,0-0.6-0.1V74.3z
			 M380.3,76c-0.2,0-0.4,0-0.7,0c-0.2,0-0.4,0-0.5,0v7c0,0,0.1,0,0.2,0c0.1,0,0.2,0,0.3,0c0.1,0,0.2,0,0.3,0c0.1,0,0.2,0,0.2,0
			c0.6,0,1.1-0.1,1.4-0.3c0.4-0.2,0.7-0.5,0.9-0.8c0.2-0.3,0.4-0.7,0.5-1.2c0.1-0.4,0.1-0.9,0.1-1.4c0-0.4,0-0.8-0.1-1.2
			s-0.2-0.8-0.4-1.1c-0.2-0.3-0.5-0.6-0.9-0.8S380.8,76,380.3,76z"/>
	</g>
	<line class="st7" x1="426.7" y1="94.9" x2="425.7" y2="94.9"/>
	<line class="st19" x1="423.8" y1="94.9" x2="318.5" y2="94.9"/>
	<line class="st7" x1="317.5" y1="94.9" x2="316.5" y2="94.9"/>
	<polygon class="st9" points="420.1,86.8 418.7,88.2 426,94.9 418.7,101.7 420.1,103.1 428.9,94.9 	"/>
	<line class="st7" x1="518.1" y1="183.6" x2="518.1" y2="182.6"/>
	<line class="st20" x1="518.1" y1="180.6" x2="518.1" y2="141.2"/>
	<line class="st7" x1="518.1" y1="140.1" x2="518.1" y2="139.1"/>
	<polygon class="st9" points="526.3,177 524.8,175.6 518.1,182.9 511.4,175.6 509.9,177 518.1,185.8 	"/>
	<path class="st10" d="M509.3,193.6c4.6-4.5,12.1-4.5,16.6,0.2c4.5,4.6,4.5,12.1-0.2,16.6c-4.6,4.5-12.1,4.5-16.6-0.2
		c-2.1-2.2-3.3-5.1-3.4-8.2c0-2.6,0.8-5.1,2.4-7.1"/>
	<path class="st8" d="M517.5,207.6h-4.2c-0.6,0-0.8-0.2-0.8-0.8v-6.5c0-0.6,0.2-0.8,0.8-0.8h8.5c0.5,0,0.8,0.2,0.8,0.8v6.5
		c0,0.5-0.2,0.8-0.8,0.8C520.3,207.6,518.9,207.6,517.5,207.6z"/>
	<path class="st8" d="M513.1,199c0-1.8,1-3.4,2.6-4.1c2.1-0.9,4.6,0,5.5,2.1c0.1,0.2,0.2,0.5,0.2,0.7c0.1,0.4,0.1,0.8,0.2,1.2"/>
	<path class="st9" d="M516.8,204.8L516.8,204.8v0.9c0,0.2,0.1,0.2,0.3,0.2h0.8c0.2,0,0.3-0.1,0.3-0.3v-1.6c0-0.2,0.1-0.3,0.2-0.4
		c0.5-0.3,0.8-0.9,0.6-1.4c-0.2-0.6-0.8-1-1.5-1c-0.7-0.1-1.3,0.3-1.6,0.9c-0.2,0.6,0,1.2,0.5,1.5c0.2,0.1,0.3,0.3,0.3,0.5
		C516.8,204.3,516.8,204.6,516.8,204.8z"/>
	<line class="st7" x1="518.1" y1="308.2" x2="518.1" y2="307.2"/>
	<line class="st21" x1="518.1" y1="305.3" x2="518.1" y2="279.3"/>
	<line class="st7" x1="518.1" y1="278.3" x2="518.1" y2="277.3"/>
	<polygon class="st9" points="526.3,301.5 524.8,300.2 518.1,307.4 511.4,300.2 509.9,301.5 518.1,310.3 	"/>
	<g class="st2">
		<path class="st3" d="M46.2,113.1v1.1l-0.9,0.2v4.5c0,0.6,0.2,1,0.5,1.3c0.3,0.3,0.7,0.4,1.3,0.4c0.5,0,1-0.1,1.3-0.4
			c0.3-0.3,0.5-0.7,0.5-1.3v-4.5l-0.9-0.2v-1.1h3.6v1.1l-0.9,0.2v4.5c0,1-0.3,1.7-1,2.3c-0.6,0.5-1.5,0.8-2.5,0.8
			c-1,0-1.9-0.3-2.5-0.8c-0.6-0.5-1-1.3-1-2.3v-4.5l-0.9-0.2v-1.1h0.9h1.7H46.2z"/>
		<path class="st3" d="M57.3,117.6h-1.2l-0.2-0.8c-0.1-0.1-0.3-0.2-0.5-0.2c-0.2-0.1-0.4-0.1-0.6-0.1c-0.3,0-0.5,0.1-0.7,0.2
			s-0.3,0.3-0.3,0.5c0,0.2,0.1,0.4,0.3,0.5c0.2,0.1,0.5,0.2,1,0.3c0.8,0.2,1.4,0.4,1.8,0.7c0.4,0.3,0.6,0.7,0.6,1.3
			c0,0.6-0.3,1.1-0.8,1.4c-0.5,0.4-1.2,0.6-2,0.6c-0.5,0-1-0.1-1.4-0.2s-0.8-0.4-1.1-0.6l0-1.5h1.2l0.2,0.8c0.1,0.1,0.2,0.2,0.4,0.2
			c0.2,0,0.4,0.1,0.6,0.1c0.4,0,0.6-0.1,0.8-0.2c0.2-0.1,0.3-0.3,0.3-0.5c0-0.2-0.1-0.4-0.3-0.5c-0.2-0.1-0.5-0.3-1-0.4
			c-0.8-0.2-1.3-0.4-1.7-0.7c-0.4-0.3-0.6-0.7-0.6-1.2c0-0.5,0.2-1,0.7-1.4s1.1-0.6,1.9-0.6c0.5,0,1,0.1,1.4,0.2s0.8,0.3,1.1,0.5
			L57.3,117.6z"/>
		<path class="st3" d="M61.4,122c-0.9,0-1.7-0.3-2.2-0.9c-0.6-0.6-0.8-1.4-0.8-2.3v-0.2c0-1,0.3-1.8,0.8-2.4
			c0.5-0.6,1.2-0.9,2.1-0.9c0.9,0,1.5,0.3,2,0.8c0.5,0.5,0.7,1.2,0.7,2.1v1h-3.9l0,0c0,0.4,0.2,0.8,0.4,1.1c0.3,0.3,0.6,0.4,1,0.4
			c0.4,0,0.7,0,1-0.1c0.3-0.1,0.5-0.2,0.8-0.4l0.5,1.1c-0.3,0.2-0.6,0.4-1,0.5S61.9,122,61.4,122z M61.3,116.6
			c-0.3,0-0.6,0.1-0.8,0.4c-0.2,0.2-0.3,0.6-0.3,1l0,0h2.1v-0.2c0-0.4-0.1-0.7-0.3-0.9C61.9,116.7,61.6,116.6,61.3,116.6z"/>
		<path class="st3" d="M65,120.8l0.8-0.2v-4l-0.9-0.2v-1.1h2.6l0.1,0.9c0.2-0.3,0.3-0.6,0.6-0.8c0.2-0.2,0.5-0.3,0.8-0.3
			c0.1,0,0.2,0,0.3,0c0.1,0,0.2,0,0.3,0.1l-0.2,1.6l-0.7,0c-0.3,0-0.5,0-0.6,0.1c-0.2,0.1-0.3,0.2-0.4,0.4v3.1l0.8,0.2v1H65V120.8z"
			/>
	</g>
	<path class="st3" d="M59.8,81.1c0.4,0,0.7,0.3,0.7,0.7c0,0.4-0.3,0.7-0.7,0.7s-0.7-0.3-0.7-0.7C59.1,81.5,59.5,81.1,59.8,81.1z"/>
	<circle class="st3" cx="54.1" cy="81.9" r="0.7"/>
	<path class="st22" d="M61.2,90.8V93H62c0.3,0,0.6,0,0.9,0.1c1,0.1,2,0.6,2.8,1.2c1,0.7,1.6,1.8,1.6,3v4.6H46.6v-4.6
		c0-1.2,0.6-2.3,1.6-3c0.8-0.7,1.8-1.1,2.8-1.2c0.3-0.1,0.6-0.1,0.9-0.1h0.9v-2.2"/>
	<path class="st23" d="M49.4,79.8c0,1.8,0.1,2.6,0.1,4.4c-0.1,4.2,3.3,7.7,7.5,7.8c4.1,0,7.5-3.3,7.5-7.4c0,0,0,0,0-0.1v-5"/>
	<path class="st23" d="M49.4,79.7l0.6-4.6c1.4-0.4,8.2,3.7,11.3-1.4c0,0-0.8,2.5,3.3,5.3v0.7"/>
	<path class="st23" d="M66.7,82c0,1.2-1,2.1-2.2,2.2v-4.3C65.7,79.9,66.6,80.8,66.7,82z"/>
	<path class="st23" d="M47.3,81.5v0.7c0.2,1,1.1,1.8,2.1,1.8v-4.3C48.4,79.7,47.5,80.5,47.3,81.5z"/>
	<path class="st23" d="M54.9,86.5c0.5,0.7,1.3,1.1,2.1,1.1c0.8,0,1.6-0.4,2.1-1.1"/>
	<path class="st23" d="M47.3,80.5v-5.4c0-3.8,4.3-8.3,9.7-8.3s9.7,4.5,9.7,8.3v5.5"/>
	<path class="st9" d="M57,64.8c6.6,0,11.7,5.6,11.7,10.3v5.5c0,0.2,0,0.3-0.1,0.5c0,0.2,0.1,0.5,0.1,0.7c0,1.5-0.9,2.9-2.2,3.7
		c-0.2,2.1-1.2,4.2-2.7,5.7c1.2,0.3,2.3,0.8,3.2,1.6c1.4,1.1,2.3,2.8,2.3,4.6v4.6c0,1.1-0.9,2-2,2H46.6c-1.1,0-2-0.9-2-2v-4.6
		c0-1.8,0.9-3.5,2.4-4.6c1-0.8,2.1-1.3,3.3-1.5c-1.5-1.5-2.4-3.5-2.8-5.6c-1.2-0.6-2.1-1.7-2.3-3.1c0-0.1,0-0.2,0-0.3v-0.7
		c0-0.1,0-0.2,0-0.3V81c0-0.2,0-0.3,0-0.5v-5.4C45.3,70.3,50.4,64.8,57,64.8 M57,62.8c-7.8,0-13.7,6.5-13.7,12.3v5.4
		c0,0.2,0,0.3,0,0.5c0,0.2,0,0.3,0,0.5v0.7c0,0.2,0,0.4,0,0.6c0.2,1.6,1.1,3.1,2.5,4.1c0.3,1.2,0.7,2.3,1.3,3.3
		c-0.5,0.3-0.9,0.6-1.4,0.9c-2,1.5-3.1,3.8-3.1,6.2v4.6c0,2.2,1.8,4,4,4h20.7c2.2,0,4-1.8,4-4v-4.6c0-2.4-1.1-4.7-3.1-6.1
		c-0.4-0.3-0.8-0.6-1.2-0.9c0.7-1.1,1.1-2.3,1.4-3.6c1.5-1.2,2.4-2.9,2.4-4.8c0-0.2,0-0.5,0-0.7c0-0.2,0-0.4,0-0.6v-5.5
		C70.7,69.3,64.9,62.8,57,62.8L57,62.8z"/>
	<path class="st3" d="M57,66.8c5.4,0,9.7,4.5,9.7,8.3v5.5h-0.4c0.3,0.4,0.4,0.8,0.4,1.2c0,1.2-1,2.1-2.2,2.1v0.5
		c0,2.5-1.3,4.9-3.4,6.3h0.1V93H62c0.3,0,0.6,0,0.9,0.1c1,0.1,2,0.6,2.8,1.2c1,0.7,1.6,1.8,1.6,3v4.6H46.6v-4.6c0-1.2,0.6-2.3,1.6-3
		c0.8-0.7,1.8-1.1,2.8-1.2c0.3-0.1,0.6-0.1,0.9-0.1h0.9v-2.2H53c-2.2-1.5-3.5-4-3.5-6.6c0-0.2,0-0.5,0-0.7c0,0.2-0.1,0.4-0.1,0.6
		c-1.1,0-2-0.8-2.2-1.8v-0.7c0-0.4,0.2-0.7,0.4-1h-0.4v-5.4C47.3,71.3,51.6,66.8,57,66.8 M57,64.8c-6.6,0-11.7,5.6-11.7,10.3v5.4
		c0,0.2,0,0.3,0,0.5v0.2c0,0.1,0,0.2,0,0.3v0.7c0,0.1,0,0.2,0,0.3c0.2,1.4,1.1,2.5,2.3,3.1c0.3,2.1,1.3,4,2.8,5.6
		c-1.2,0.2-2.4,0.8-3.3,1.6c-1.5,1.1-2.3,2.8-2.3,4.6v4.6c0,1.1,0.9,2,2,2h20.6c1.1,0,2-0.9,2-2v-4.6c0-1.8-0.9-3.5-2.3-4.6
		c-0.9-0.8-2-1.3-3.2-1.5c1.5-1.5,2.5-3.5,2.7-5.7c1.6-0.8,2.4-2.6,2.1-4.4c0-0.2,0.1-0.3,0.1-0.5v-5.5C68.7,70.3,63.6,64.8,57,64.8
		L57,64.8z"/>
</g>
<g id="Ebene_4">
	<g class="st2">
		<path class="st3" d="M82.7,91.2c-0.3,0.2-0.6,0.3-0.9,0.4c-0.3,0.1-0.7,0.1-1.1,0.1c-0.5,0-0.9-0.1-1.3-0.3
			c-0.4-0.2-0.7-0.4-0.9-0.7c-0.3-0.3-0.5-0.7-0.6-1.1c-0.1-0.4-0.2-0.9-0.2-1.4c0-0.9,0.1-1.7,0.4-2.3s0.6-1.2,1-1.6
			c0.4-0.4,0.9-0.8,1.5-1c0.5-0.2,1.1-0.3,1.6-0.3c0.5,0,0.8,0,1.1,0.1c0.3,0.1,0.5,0.1,0.7,0.2l-0.4,0.9c-0.2-0.1-0.4-0.2-0.6-0.2
			c-0.3-0.1-0.6-0.1-0.9-0.1c-0.4,0-0.9,0.1-1.3,0.3c-0.4,0.2-0.8,0.5-1.1,0.8s-0.6,0.8-0.7,1.3c-0.2,0.5-0.3,1.1-0.3,1.8
			c0,0.4,0,0.7,0.1,1.1s0.2,0.6,0.4,0.8c0.2,0.2,0.4,0.4,0.7,0.6c0.3,0.1,0.6,0.2,0.9,0.2c0.4,0,0.7,0,0.9-0.1
			c0.2-0.1,0.5-0.2,0.7-0.3L82.7,91.2z"/>
		<path class="st3" d="M88.7,91.6h-3.8H84l1.8-8.4h1l-1.6,7.5h3.8L88.7,91.6z"/>
		<path class="st3" d="M91.9,83.2h1l-1.8,8.4h-1L91.9,83.2z"/>
		<path class="st3" d="M93.8,91c0-0.2,0.1-0.4,0.2-0.5s0.3-0.2,0.5-0.2c0.2,0,0.4,0.1,0.5,0.2s0.2,0.3,0.2,0.5
			c0,0.2-0.1,0.4-0.2,0.5s-0.3,0.2-0.5,0.2c-0.2,0-0.4-0.1-0.5-0.2S93.8,91.2,93.8,91z M94.8,86.2c0-0.2,0.1-0.4,0.2-0.5
			c0.1-0.1,0.3-0.2,0.5-0.2s0.4,0.1,0.5,0.2c0.1,0.1,0.2,0.3,0.2,0.5c0,0.2-0.1,0.4-0.2,0.5s-0.3,0.2-0.5,0.2s-0.4-0.1-0.5-0.2
			S94.8,86.4,94.8,86.2z"/>
		<path class="st3" d="M103.5,86.4c-0.1,0-0.1,0-0.2,0c-0.1,0-0.1,0-0.2,0c-0.4,0-0.8,0.1-1.1,0.4s-0.5,0.6-0.7,0.9l-0.8,3.9h-0.9
			l1.3-6h0.6v1h0c0.1-0.2,0.2-0.3,0.3-0.4c0.1-0.1,0.2-0.3,0.4-0.4c0.1-0.1,0.3-0.2,0.4-0.2c0.2-0.1,0.3-0.1,0.5-0.1
			c0.2,0,0.4,0,0.6,0.1L103.5,86.4z"/>
		<path class="st3" d="M105.6,85.6l-0.8,4c0,0.2-0.1,0.4-0.1,0.6c0,0.2,0,0.4,0.1,0.6c0.1,0.1,0.2,0.2,0.5,0.2c0.2,0,0.4,0,0.6-0.1
			c0.2-0.1,0.4-0.2,0.6-0.4c0.2-0.2,0.3-0.3,0.5-0.5c0.1-0.2,0.3-0.4,0.4-0.5l0.8-3.8h0.9l-0.8,3.6c0,0.1-0.1,0.3-0.1,0.5
			c0,0.2-0.1,0.4-0.1,0.6c0,0.2,0,0.4-0.1,0.6c0,0.2,0,0.4,0,0.5v0.2h-0.7v-1.1h0c-0.1,0.2-0.3,0.3-0.4,0.5
			c-0.2,0.2-0.3,0.3-0.5,0.4s-0.4,0.2-0.6,0.3c-0.2,0.1-0.4,0.1-0.7,0.1c-0.2,0-0.3,0-0.5-0.1c-0.1,0-0.3-0.1-0.4-0.2
			c-0.1-0.1-0.2-0.2-0.3-0.4c-0.1-0.2-0.1-0.4-0.1-0.6c0-0.3,0-0.6,0.1-0.9l0.8-3.9H105.6z"/>
		<path class="st3" d="M113.1,91.6l0.8-3.8c0-0.1,0.1-0.3,0.1-0.4s0-0.3,0-0.4c0-0.2-0.1-0.4-0.2-0.6c-0.1-0.1-0.3-0.2-0.6-0.2
			c-0.2,0-0.4,0-0.6,0.1c-0.2,0.1-0.4,0.2-0.6,0.4c-0.2,0.1-0.3,0.3-0.5,0.5c-0.1,0.2-0.3,0.4-0.4,0.5l-0.8,3.8h-0.9l1.3-6h0.6l0,1
			h0c0.1-0.1,0.2-0.3,0.4-0.4c0.1-0.1,0.3-0.3,0.5-0.4s0.4-0.2,0.6-0.3c0.2-0.1,0.5-0.1,0.7-0.1c0.4,0,0.7,0.1,0.9,0.3
			c0.2,0.2,0.3,0.5,0.3,1c0,0.2,0,0.5-0.1,0.9l-0.9,4H113.1z"/>
	</g>
	<g class="st2">
		<path class="st3" d="M66.6,153.2c-0.3,0.2-0.6,0.4-1,0.5c-0.4,0.1-0.8,0.2-1.1,0.2c-0.6,0-1.1-0.2-1.4-0.6
			c-0.3-0.4-0.5-0.9-0.5-1.5c0-0.7,0.1-1.2,0.3-1.8c0.2-0.5,0.4-1,0.7-1.3c0.3-0.4,0.6-0.6,1-0.8c0.4-0.2,0.8-0.3,1.2-0.3
			c0.3,0,0.5,0,0.8,0.1c0.2,0.1,0.4,0.2,0.5,0.3c0.1,0.1,0.2,0.3,0.3,0.5s0.1,0.4,0.1,0.5c0,0.6-0.3,1-0.8,1.3
			c-0.6,0.3-1.4,0.5-2.4,0.5c-0.1,0-0.2,0-0.3,0s-0.2,0-0.3,0c0,0.2-0.1,0.3-0.1,0.4c0,0.1,0,0.3,0,0.4c0,0.4,0.1,0.8,0.3,1.1
			c0.2,0.3,0.5,0.4,0.9,0.4c0.4,0,0.7-0.1,1-0.2c0.3-0.1,0.5-0.2,0.7-0.4L66.6,153.2z M65.6,148.4c-0.4,0-0.8,0.2-1.1,0.5
			c-0.3,0.3-0.6,0.8-0.7,1.3c0.3,0,0.6,0,0.9,0c0.3,0,0.6-0.1,0.9-0.1c0.3-0.1,0.5-0.2,0.7-0.3c0.2-0.1,0.3-0.4,0.3-0.6
			c0-0.1,0-0.2,0-0.2c0-0.1-0.1-0.2-0.1-0.2c-0.1-0.1-0.2-0.1-0.3-0.2C65.9,148.4,65.8,148.4,65.6,148.4z"/>
		<path class="st3" d="M71.5,153.8l0.8-3.8c0-0.1,0.1-0.3,0.1-0.4s0-0.3,0-0.4c0-0.2-0.1-0.4-0.2-0.6c-0.1-0.1-0.3-0.2-0.6-0.2
			c-0.2,0-0.4,0-0.6,0.1c-0.2,0.1-0.4,0.2-0.6,0.4c-0.2,0.1-0.3,0.3-0.5,0.5c-0.1,0.2-0.3,0.4-0.4,0.5l-0.8,3.8h-0.9l1.3-6h0.6l0,1
			h0c0.1-0.1,0.2-0.3,0.4-0.4c0.1-0.1,0.3-0.3,0.5-0.4s0.4-0.2,0.6-0.3c0.2-0.1,0.5-0.1,0.7-0.1c0.4,0,0.7,0.1,0.9,0.3
			c0.2,0.2,0.3,0.5,0.3,1c0,0.2,0,0.5-0.1,0.9l-0.9,4H71.5z"/>
		<path class="st3" d="M78.2,153.3c-0.1,0.1-0.3,0.2-0.4,0.3c-0.2,0.1-0.3,0.1-0.5,0.2s-0.3,0.1-0.5,0.1s-0.3,0-0.5,0
			c-0.4,0-0.7-0.1-1-0.2s-0.5-0.3-0.6-0.5c-0.1-0.2-0.2-0.4-0.3-0.6c-0.1-0.2-0.1-0.4-0.1-0.6c0-0.7,0.1-1.3,0.3-1.8s0.4-1,0.7-1.4
			c0.3-0.4,0.7-0.7,1.1-0.9c0.4-0.2,0.8-0.3,1.2-0.3c0.3,0,0.6,0,0.8,0.1c0.2,0.1,0.4,0.1,0.5,0.2l-0.3,0.7
			c-0.1-0.1-0.3-0.1-0.5-0.2c-0.2,0-0.4-0.1-0.6-0.1c-0.3,0-0.5,0.1-0.8,0.3c-0.3,0.2-0.5,0.4-0.7,0.7c-0.2,0.3-0.4,0.6-0.5,1
			c-0.1,0.4-0.2,0.8-0.2,1.2c0,0.5,0.1,0.9,0.3,1.2c0.2,0.2,0.5,0.4,0.9,0.4c0.2,0,0.5-0.1,0.8-0.2c0.3-0.1,0.5-0.2,0.6-0.3
			L78.2,153.3z"/>
		<path class="st3" d="M83.2,148.6c-0.1,0-0.1,0-0.2,0c-0.1,0-0.1,0-0.2,0c-0.4,0-0.8,0.1-1.1,0.4s-0.5,0.6-0.7,0.9l-0.8,3.9h-0.9
			l1.3-6h0.6v1h0c0.1-0.2,0.2-0.3,0.3-0.4c0.1-0.1,0.2-0.3,0.4-0.4c0.1-0.1,0.3-0.2,0.4-0.2c0.2-0.1,0.3-0.1,0.5-0.1
			c0.2,0,0.4,0,0.6,0.1L83.2,148.6z"/>
		<path class="st3" d="M85.1,151.7l0.1,1.2h0.1l0.5-1.2l2-3.9h1l-2.8,5.4c-0.2,0.4-0.4,0.8-0.6,1.1c-0.2,0.4-0.4,0.7-0.6,1
			c-0.2,0.3-0.4,0.5-0.7,0.7c-0.2,0.2-0.5,0.3-0.7,0.3c-0.1,0-0.3,0-0.4,0c-0.1,0-0.2,0-0.3-0.1l0.3-0.8c0.1,0,0.2,0,0.3,0
			c0.2,0,0.5-0.1,0.7-0.4c0.2-0.2,0.5-0.6,0.8-1.2l-1-6h1L85.1,151.7z"/>
		<path class="st3" d="M89.7,147.8h0.6l-0.1,1h0c0.1-0.1,0.2-0.3,0.4-0.4c0.1-0.1,0.3-0.3,0.5-0.4c0.2-0.1,0.4-0.2,0.6-0.3
			c0.2-0.1,0.4-0.1,0.6-0.1c0.2,0,0.4,0,0.5,0.1c0.2,0.1,0.3,0.2,0.4,0.3s0.2,0.3,0.3,0.6c0.1,0.2,0.1,0.5,0.1,0.9
			c0,0.7-0.1,1.3-0.3,1.9c-0.2,0.6-0.4,1-0.8,1.4c-0.3,0.4-0.7,0.7-1.1,0.9s-0.8,0.3-1.2,0.3c-0.3,0-0.5,0-0.7-0.1
			c-0.2-0.1-0.4-0.1-0.4-0.2l-0.5,2.5H88L89.7,147.8z M92.1,148.4c-0.2,0-0.4,0.1-0.6,0.2c-0.2,0.1-0.4,0.3-0.5,0.4
			c-0.2,0.2-0.3,0.3-0.4,0.5c-0.1,0.2-0.2,0.4-0.3,0.5l-0.6,2.8c0.1,0.1,0.3,0.2,0.4,0.2c0.1,0,0.3,0.1,0.5,0.1
			c0.3,0,0.6-0.1,0.9-0.3c0.3-0.2,0.5-0.4,0.8-0.7c0.2-0.3,0.4-0.7,0.5-1.2c0.1-0.4,0.2-0.9,0.2-1.5c0-0.3-0.1-0.6-0.2-0.8
			C92.5,148.5,92.3,148.4,92.1,148.4z"/>
		<path class="st3" d="M95,147.8h0.9l0.3-1.2l1-0.3l-0.3,1.5h1.6l-0.2,0.8h-1.6l-0.8,3.6c0,0.1,0,0.2,0,0.3c0,0.1,0,0.2,0,0.2
			c0,0.2,0,0.3,0.1,0.4c0.1,0.1,0.2,0.1,0.4,0.1c0.2,0,0.4,0,0.5-0.1s0.3-0.1,0.5-0.2v0.7c-0.2,0.1-0.4,0.2-0.6,0.2
			c-0.3,0.1-0.5,0.1-0.8,0.1c-0.7,0-1.1-0.3-1.1-1c0-0.1,0-0.3,0.1-0.5l0.8-3.9h-0.9L95,147.8z"/>
	</g>
	<line class="st24" x1="78.9" y1="95.4" x2="140.9" y2="95.4"/>
	<polygon class="st3" points="136.3,101.2 135.4,100.1 140.4,95.4 135.4,90.7 136.3,89.7 142.5,95.4 	"/>
	<line class="st24" x1="56.4" y1="131.4" x2="56.4" y2="172.3"/>
	<polygon class="st3" points="50.7,167.7 51.7,166.8 56.4,171.8 61.1,166.8 62.1,167.7 56.4,173.9 	"/>
	<path class="st24" d="M56.4,221.6v115.1c0,2.8,2.2,5,5,5h366"/>
	<polygon class="st3" points="422.7,347.4 421.8,346.4 426.8,341.7 421.8,337 422.7,336 428.9,341.7 	"/>
	<g class="st2">
		<path class="st3" d="M65.7,248.1h0.6l-0.1,1h0c0.1-0.1,0.2-0.3,0.4-0.4c0.1-0.1,0.3-0.3,0.5-0.4c0.2-0.1,0.4-0.2,0.6-0.3
			c0.2-0.1,0.4-0.1,0.6-0.1c0.2,0,0.4,0,0.5,0.1c0.2,0.1,0.3,0.2,0.4,0.3s0.2,0.3,0.3,0.6c0.1,0.2,0.1,0.5,0.1,0.9
			c0,0.7-0.1,1.3-0.3,1.9c-0.2,0.6-0.4,1-0.8,1.4c-0.3,0.4-0.7,0.7-1.1,0.9s-0.8,0.3-1.2,0.3c-0.3,0-0.5,0-0.7-0.1
			c-0.2-0.1-0.4-0.1-0.4-0.2l-0.5,2.5h-0.9L65.7,248.1z M68,248.7c-0.2,0-0.4,0.1-0.6,0.2c-0.2,0.1-0.4,0.3-0.5,0.4
			c-0.2,0.2-0.3,0.3-0.4,0.5c-0.1,0.2-0.2,0.4-0.3,0.5l-0.6,2.8c0.1,0.1,0.3,0.2,0.4,0.2c0.1,0,0.3,0.1,0.5,0.1
			c0.3,0,0.6-0.1,0.9-0.3c0.3-0.2,0.5-0.4,0.8-0.7c0.2-0.3,0.4-0.7,0.5-1.2c0.1-0.4,0.2-0.9,0.2-1.5c0-0.3-0.1-0.6-0.2-0.8
			C68.5,248.8,68.3,248.7,68,248.7z"/>
		<path class="st3" d="M72.6,248.1l-0.8,4c0,0.2-0.1,0.4-0.1,0.6c0,0.2,0,0.4,0.1,0.6c0.1,0.1,0.2,0.2,0.5,0.2c0.2,0,0.4,0,0.6-0.1
			c0.2-0.1,0.4-0.2,0.6-0.4c0.2-0.2,0.3-0.3,0.5-0.5c0.1-0.2,0.3-0.4,0.4-0.5l0.8-3.8H76l-0.8,3.6c0,0.1-0.1,0.3-0.1,0.5
			c0,0.2-0.1,0.4-0.1,0.6c0,0.2,0,0.4-0.1,0.6c0,0.2,0,0.4,0,0.5v0.2h-0.7v-1.1h0c-0.1,0.2-0.3,0.3-0.4,0.5
			c-0.2,0.2-0.3,0.3-0.5,0.4s-0.4,0.2-0.6,0.3c-0.2,0.1-0.4,0.1-0.7,0.1c-0.2,0-0.3,0-0.5-0.1c-0.1,0-0.3-0.1-0.4-0.2
			c-0.1-0.1-0.2-0.2-0.3-0.4c-0.1-0.2-0.1-0.4-0.1-0.6c0-0.3,0-0.6,0.1-0.9l0.8-3.9H72.6z"/>
		<path class="st3" d="M79.3,252.4c0-0.2-0.1-0.4-0.2-0.5c-0.1-0.1-0.2-0.3-0.4-0.4c-0.2-0.1-0.3-0.2-0.5-0.3
			c-0.2-0.1-0.4-0.2-0.5-0.4s-0.3-0.3-0.4-0.5s-0.2-0.4-0.2-0.7c0-0.2,0.1-0.4,0.2-0.6c0.1-0.2,0.3-0.4,0.4-0.5s0.4-0.3,0.7-0.3
			c0.3-0.1,0.5-0.1,0.8-0.1c0.4,0,0.8,0,1,0.1c0.2,0.1,0.4,0.1,0.6,0.2l-0.3,0.7c-0.3-0.2-0.8-0.3-1.3-0.3c-0.3,0-0.6,0.1-0.8,0.2
			c-0.2,0.1-0.3,0.4-0.3,0.6c0,0.2,0.1,0.3,0.2,0.4s0.2,0.2,0.4,0.4c0.2,0.1,0.3,0.2,0.5,0.3c0.2,0.1,0.4,0.2,0.5,0.4
			c0.2,0.1,0.3,0.3,0.4,0.5s0.2,0.4,0.2,0.7c0,0.6-0.2,1.1-0.6,1.4s-1,0.5-1.7,0.5c-0.4,0-0.7,0-1-0.1c-0.3-0.1-0.5-0.2-0.7-0.3
			l0.3-0.8c0.2,0.1,0.4,0.2,0.6,0.3c0.3,0.1,0.5,0.1,0.8,0.1c0.4,0,0.7-0.1,0.9-0.3C79.2,253,79.3,252.7,79.3,252.4z"/>
		<path class="st3" d="M85.1,254.1l0.7-3.4c0-0.2,0.1-0.5,0.1-0.6c0-0.2,0-0.4,0-0.5c0-0.3-0.1-0.5-0.2-0.6
			c-0.1-0.1-0.3-0.2-0.6-0.2c-0.2,0-0.4,0.1-0.6,0.2c-0.2,0.1-0.4,0.2-0.6,0.4c-0.2,0.2-0.4,0.4-0.5,0.6c-0.2,0.2-0.3,0.4-0.4,0.6
			l-0.8,3.6h-0.9l1.8-8.4h0.9l-0.7,3.4h0c0.1-0.1,0.2-0.3,0.4-0.4c0.1-0.1,0.3-0.3,0.5-0.4c0.2-0.1,0.4-0.2,0.6-0.3
			c0.2-0.1,0.5-0.1,0.7-0.1c0.4,0,0.7,0.1,0.9,0.3c0.2,0.2,0.3,0.5,0.3,1c0,0.3-0.1,0.7-0.2,1.2l-0.8,3.6H85.1z"/>
	</g>
	
		<linearGradient id="SVGID_12_" gradientUnits="userSpaceOnUse" x1="433.61" y1="52.43" x2="601.67" y2="52.43" gradientTransform="matrix(1 0 0 -1 0 394)">
		<stop  offset="0" style="stop-color:#990066"/>
		<stop  offset="0.19" style="stop-color:#780066"/>
		<stop  offset="0.4" style="stop-color:#5A0066"/>
		<stop  offset="0.61" style="stop-color:#440066"/>
		<stop  offset="0.81" style="stop-color:#370066"/>
		<stop  offset="1" style="stop-color:#330066"/>
	</linearGradient>
	<path class="st25" d="M438.6,326.3h158.1c2.8,0,5,2.2,5,5v20.6c0,2.8-2.2,5-5,5H438.6c-2.8,0-5-2.2-5-5v-20.6
		C433.6,328.5,435.8,326.3,438.6,326.3z"/>
	<g class="st2">
		<path class="st9" d="M511.8,341.3l-0.6,0.1l1.4,4.7l0.1,0.4h0l0.1-0.4l1.4-4.7l-0.6-0.1v-0.9h2.9v0.9l-0.7,0.1l-2.3,6.8h-1.6
			l-2.3-6.8l-0.6-0.1v-0.9h2.9V341.3z"/>
	</g>
	<g class="st2">
		<path class="st9" d="M516.7,345.3c0-0.9,0.2-1.6,0.7-2.1c0.5-0.6,1.2-0.8,2-0.8c0.9,0,1.5,0.3,2,0.8c0.5,0.6,0.7,1.3,0.7,2.1v0.1
			c0,0.9-0.2,1.6-0.7,2.1c-0.5,0.5-1.2,0.8-2,0.8c-0.9,0-1.5-0.3-2-0.8c-0.5-0.5-0.7-1.3-0.7-2.1V345.3z M518.3,345.4
			c0,0.5,0.1,1,0.3,1.3c0.2,0.3,0.5,0.5,0.9,0.5c0.4,0,0.7-0.2,0.9-0.5c0.2-0.3,0.3-0.7,0.3-1.3v-0.1c0-0.5-0.1-0.9-0.3-1.3
			c-0.2-0.3-0.5-0.5-0.9-0.5s-0.7,0.2-0.9,0.5c-0.2,0.3-0.3,0.7-0.3,1.3V345.4z"/>
	</g>
	<g class="st2">
		<path class="st9" d="M522.6,340.8v-0.9h2.4v7.3l0.8,0.2v0.9h-3.1v-0.9l0.8-0.2v-6.2L522.6,340.8z"/>
	</g>
	<path class="st10" d="M510.3,313.8c4.6-4.5,12.1-4.5,16.6,0.2c4.5,4.6,4.5,12.1-0.2,16.6c-4.6,4.5-12.1,4.5-16.6-0.2
		c-2.1-2.2-3.4-5.1-3.4-8.2c0-2.6,0.8-5.1,2.4-7.1"/>
	<path class="st8" d="M518.5,327.8h-4.2c-0.6,0-0.8-0.2-0.8-0.8v-6.5c0-0.6,0.2-0.8,0.8-0.8h8.5c0.5,0,0.8,0.2,0.8,0.8v6.5
		c0,0.5-0.2,0.8-0.8,0.8C521.3,327.8,519.9,327.8,518.5,327.8z"/>
	<path class="st8" d="M514.1,319.1c0-1.8,1-3.4,2.6-4.1c2.1-0.9,4.6,0,5.5,2.1c0.1,0.2,0.2,0.5,0.2,0.7c0.1,0.4,0.1,0.8,0.2,1.2"/>
	<path class="st9" d="M517.8,325L517.8,325v0.9c0,0.2,0.1,0.2,0.3,0.2h0.8c0.2,0,0.3-0.1,0.3-0.3v-1.6c0-0.2,0.1-0.3,0.2-0.4
		c0.5-0.3,0.8-0.9,0.6-1.5c-0.2-0.6-0.8-1-1.5-1c-0.7-0.1-1.3,0.3-1.6,0.9c-0.2,0.6,0,1.2,0.5,1.5c0.2,0.1,0.3,0.3,0.3,0.5
		C517.8,324.5,517.8,324.7,517.8,325z"/>
	<path class="st26" d="M227.6,334c4.6-4.5,12.1-4.5,16.6,0.2c4.5,4.6,4.5,12.1-0.2,16.6c-4.6,4.5-12.1,4.5-16.6-0.2
		c-2.1-2.2-3.4-5.1-3.4-8.2c0-2.6,0.8-5.1,2.4-7.1"/>
	<path class="st27" d="M235.9,348.1h-4.2c-0.6,0-0.8-0.2-0.8-0.8v-6.5c0-0.6,0.2-0.8,0.8-0.8h8.4c0.6,0,0.8,0.2,0.8,0.8v6.5
		c0,0.5-0.2,0.8-0.8,0.8C238.7,348.1,237.3,348.1,235.9,348.1z"/>
	<path class="st27" d="M231.5,339.4c0-1.8,1-3.4,2.6-4.1c2.1-0.9,4.6,0,5.5,2.1c0.1,0.2,0.2,0.5,0.2,0.7c0.1,0.4,0.1,0.8,0.2,1.2"/>
	<path class="st3" d="M235.2,345.3L235.2,345.3v0.9c0,0.2,0.1,0.2,0.3,0.2h0.8c0.2,0,0.3-0.1,0.3-0.3v-1.6c0-0.2,0.1-0.3,0.2-0.4
		c0.5-0.3,0.8-0.9,0.6-1.5c-0.2-0.6-0.8-1-1.4-1c-0.7-0.1-1.3,0.3-1.6,0.9c-0.2,0.6,0,1.2,0.6,1.5c0.2,0.1,0.3,0.3,0.3,0.5
		C235.2,344.8,235.2,345,235.2,345.3z"/>
</g>
</svg>
