<?xml version="1.0" encoding="utf-8"?>
<!-- Generator: Adobe Illustrator 24.0.0, SVG Export Plug-In . SVG Version: 6.00 Build 0)  -->
<svg version="1.1" id="Ebene_1" xmlns="http://www.w3.org/2000/svg" xmlns:xlink="http://www.w3.org/1999/xlink" x="0px" y="0px"
	 viewBox="0 0 1084 718" style="enable-background:new 0 0 1084 718;" xml:space="preserve">
<style type="text/css">
	.st0{fill:url(#SVGID_1_);stroke:#FFCC00;stroke-width:6;stroke-miterlimit:10;}
	.st1{fill:none;stroke:#3399FF;stroke-width:6;stroke-miterlimit:10;}
	.st2{fill:none;stroke:#FFCC00;stroke-width:6;stroke-miterlimit:10;}
	.st3{fill:#FFFFFF;stroke:#FFCC00;stroke-width:6;stroke-miterlimit:10;}
	.st4{fill:#FFFFFF;stroke:#FFCB03;stroke-width:6;stroke-linecap:round;stroke-linejoin:round;}
	.st5{fill:none;stroke:#FFCB03;stroke-width:6;stroke-linecap:round;stroke-linejoin:round;}
	.st6{fill:#FFCB03;}
	.st7{fill:none;stroke:#FFCC00;stroke-width:15;stroke-linecap:round;stroke-miterlimit:10;}
	.st8{enable-background:new    ;}
	.st9{fill:#330066;}
	.st10{fill:#FFFFFF;}
	.st11{fill:#FFCC00;}
	.st12{fill:none;stroke:#FFCC00;stroke-width:6;stroke-linecap:round;stroke-linejoin:round;}
	.st13{fill:none;stroke:#330066;stroke-width:6;stroke-miterlimit:10;}
	.st14{fill:#3399FF;}
	.st15{fill:#FFFFFF;stroke:#FFCC00;stroke-width:6;stroke-linecap:round;stroke-linejoin:round;}
</style>
<title>Sconify image Details</title>
<linearGradient id="SVGID_1_" gradientUnits="userSpaceOnUse" x1="79.41" y1="-92.98" x2="579.41" y2="-92.98" gradientTransform="matrix(6.123234e-17 -1 -1 -6.123234e-17 783.02 633.41)">
	<stop  offset="0" style="stop-color:#990066"/>
	<stop  offset="0.19" style="stop-color:#780066"/>
	<stop  offset="0.4" style="stop-color:#5A0066"/>
	<stop  offset="0.61" style="stop-color:#440066"/>
	<stop  offset="0.81" style="stop-color:#370066"/>
	<stop  offset="1" style="stop-color:#330066"/>
</linearGradient>
<path class="st0" d="M726,546V62c0-4.4,3.6-8,8-8h284c4.4,0,8,3.6,8,8v484c0,4.4-3.6,8-8,8H734C729.6,554,726,550.4,726,546z"/>
<path class="st1" d="M989.8,86v441c0,4.4-3.6,8-8,8H841.2c-4.4,0-8-3.6-8-8V86c0-4.4,3.6-8,8-8h140.5C986.2,78,989.8,81.6,989.8,86z
	"/>
<path class="st2" d="M474,545.4v-484c0-4.4,3.6-8,8-8h84c4.4,0,8,3.6,8,8v484c0,4.4-3.6,8-8,8h-84C477.6,553.4,474,549.8,474,545.4z
	"/>
<path class="st3" d="M863,474v-94c0-3.3,2.7-6,6-6h86c3.3,0,6,2.7,6,6v94c0,3.3-2.7,6-6,6h-86C865.7,480,863,477.3,863,474z"/>
<path class="st4" d="M710.2,291.9c10.5-10.4,27.5-10.2,37.9,0.3c10.4,10.5,10.2,27.5-0.3,37.9c-10.5,10.4-27.5,10.2-37.9-0.3
	c-4.9-5-7.7-11.8-7.7-18.8c0-5.9,1.9-11.6,5.5-16.2"/>
<path class="st5" d="M728.3,324h-9.7c-1.3,0-1.8-0.5-1.8-1.8v-14.8c0-1.3,0.5-1.8,1.8-1.8h19.3c1.3,0,1.8,0.5,1.8,1.8v14.8
	c0,1.3-0.5,1.8-1.8,1.8C734.7,324.1,731.5,324,728.3,324z"/>
<path class="st5" d="M718.4,306.3c0.3-4.1,2-7.7,6-9.5c4.8-2.1,10.4,0,12.6,4.8c0,0,0,0,0,0.1c0.2,0.5,0.4,1.1,0.6,1.6
	c0.2,0.9,0.3,1.8,0.5,2.7"/>
<path class="st6" d="M726.7,317.7L726.7,317.7v2c0,0.4,0.1,0.5,0.6,0.5h1.9c0.5,0,0.7-0.1,0.7-0.6v-3.7c0-0.4,0.2-0.7,0.5-0.9
	c1.2-0.6,1.8-2,1.4-3.3c-0.6-1.3-1.9-2.2-3.3-2.2c-1.5-0.1-2.9,0.7-3.7,2c-0.5,1.3,0,2.8,1.3,3.5c0.4,0.2,0.7,0.6,0.6,1.1V317.7z"/>
<polyline class="st7" points="647.8,290 668.3,310.5 647.8,331 "/>
<line class="st7" x1="616.3" y1="310.5" x2="657.8" y2="310.5"/>
<polyline class="st7" points="423.8,290 444.3,310.5 423.8,331 "/>
<line class="st7" x1="392.3" y1="310.5" x2="433.8" y2="310.5"/>
<g class="st8">
	<path class="st9" d="M522.7,405.6v3.2l-2.9,0.6c-0.2,0.4-0.4,0.9-0.6,1.6s-0.3,1.5-0.3,2.3c0,1.2,0.2,2.1,0.7,2.7
		c0.5,0.6,1.1,1,1.9,1c0.7,0,1.3-0.3,1.8-1c0.5-0.7,1-1.8,1.5-3.5c0.7-2.4,1.5-4.1,2.6-5.4c1.1-1.2,2.5-1.8,4.2-1.8
		c1.8,0,3.3,0.7,4.3,2.2s1.6,3.3,1.6,5.7c0,1.7-0.3,3.2-0.8,4.6c-0.5,1.4-1.3,2.5-2.2,3.4h-4.5v-3.3l3-0.5c0.4-0.4,0.6-1,0.9-1.8
		c0.2-0.7,0.3-1.6,0.3-2.5c0-1.2-0.2-2.1-0.7-2.7c-0.5-0.6-1.1-0.9-1.9-0.9c-0.8,0-1.5,0.3-2,0.9c-0.5,0.6-1,1.6-1.4,3.1
		c-0.7,2.5-1.6,4.4-2.6,5.7s-2.4,1.9-4.1,1.9c-1.7,0-3.1-0.7-4.2-2.2c-1.1-1.5-1.7-3.3-1.7-5.5c0-1.6,0.2-3.1,0.7-4.5s1.2-2.5,2-3.4
		H522.7z"/>
	<path class="st9" d="M523.1,386.1v3.2l-2.8,0.4c-0.4,0.4-0.8,0.9-1,1.6c-0.2,0.6-0.4,1.4-0.4,2.3c0,1.9,0.7,3.3,2,4.3
		c1.3,1,3.1,1.5,5.3,1.5h0.7c2.2,0,3.9-0.5,5.3-1.5s2-2.4,2-4.2c0-0.8-0.1-1.6-0.4-2.3c-0.2-0.7-0.6-1.2-1-1.6l-2.8-0.4v-3.2h4.2
		c1,0.9,1.8,2,2.4,3.3c0.6,1.3,0.9,2.8,0.9,4.5c0,2.9-1,5.2-3,7s-4.5,2.7-7.6,2.7h-0.7c-3.1,0-5.6-0.9-7.6-2.7s-3-4.2-3-7
		c0-1.7,0.3-3.1,0.9-4.5c0.6-1.3,1.4-2.4,2.4-3.3H523.1z"/>
	<path class="st9" d="M526.8,364.6c3.1,0,5.7,0.9,7.7,2.7s3.1,4.1,3.1,7c0,2.9-1,5.2-3.1,7c-2,1.8-4.6,2.7-7.7,2.7h-0.3
		c-3.1,0-5.7-0.9-7.7-2.7s-3.1-4.1-3.1-7c0-2.9,1-5.2,3.1-7c2.1-1.8,4.6-2.7,7.7-2.7H526.8z M526.4,368.9c-2.2,0-4,0.5-5.4,1.4
		s-2.1,2.3-2.1,4.1s0.7,3.1,2.1,4c1.4,0.9,3.2,1.3,5.4,1.3h0.4c2.2,0,4.1-0.4,5.4-1.3c1.4-0.9,2.1-2.2,2.1-4c0-1.8-0.7-3.2-2.1-4.1
		c-1.4-0.9-3.2-1.4-5.4-1.4H526.4z"/>
	<path class="st9" d="M515.9,341.1h2.6l0.4,2.3h18.3v4.3l-14.4,8.6l0,0.1h11.3l0.4-2.3h2.6v8.8h-2.6l-0.4-2.3h-15.3l-0.4,2.3h-2.6
		v-2.3v-4.3l14.4-8.6l0-0.1h-11.3l-0.4,2.3h-2.6v-6.5V341.1z"/>
	<path class="st9" d="M518.5,339.8h-2.6v-8.8h2.6l0.4,2.3h15.3l0.4-2.3h2.6v8.8h-2.6l-0.4-2.3h-15.3L518.5,339.8z"/>
	<path class="st9" d="M534.7,329.3l-0.4-2.3h-15.3l-0.4,2.3h-2.6v-17h5.8v3.3l-2.5,0.2v7h5.9v-7.5h3.3v7.5h5.9l0.4-2.3h2.6v8.8
		H534.7z"/>
	<path class="st9" d="M518.5,303l0.2,1.7l7-3.3v-0.1l-7-3.3l-0.2,1.7h-2.6v-8.1h2.6l0.3,1.8l11,5.8h4.5l0.4-2.3h2.6v8.8h-2.6
		l-0.4-2.3h-4.7l-10.7,5.7l-0.3,1.8h-2.6V303H518.5z"/>
	<path class="st9" d="M518.5,283h-2.6v-8.8h2.6l0.4,2.3h15.3l0.4-2.3h2.6v8.8h-2.6l-0.4-2.3h-15.3L518.5,283z"/>
	<path class="st9" d="M521.5,251.9L521.5,251.9l15.8,5.8v2.9l-15.7,5.7l0,0.1l9.4-0.4h3.4l0.4-2.3h2.6v8.8h-2.6l-0.4-2.3h-15.3
		l-0.4,2.3h-2.6v-2.3v-5.6l15.7-5.4v-0.1l-15.7-5.5v-7.9h2.6l0.4,2.3h15.3l0.4-2.3h2.6v8.8h-2.6l-0.4-2.3h-3.4L521.5,251.9z"/>
</g>
<g class="st8">
	<path class="st9" d="M534.7,244.5l-0.2-1.5l-18.5-6.5v-4.4l18.5-6.4l0.2-1.5h2.6v7.3h-2.6l-0.3-1.5l-2.9,0.9v6.9l2.9,0.9l0.3-1.5
		h2.6v7.3H534.7z M528.4,236.7v-4.9l-7.5,2.4v0.1L528.4,236.7z"/>
</g>
<g class="st8">
	<path class="st9" d="M534.9,205.9c0.7,0.7,1.3,1.7,1.9,3c0.6,1.3,0.8,3,0.8,5c0,2.9-1,5.2-2.9,7c-1.9,1.8-4.4,2.7-7.5,2.7h-0.7
		c-3.2,0-5.8-0.9-7.8-2.7s-3-4.1-3-7c0-1.7,0.3-3.2,0.8-4.6c0.5-1.4,1.3-2.5,2.2-3.4h4.3v3.2l-2.9,0.6c-0.3,0.4-0.6,0.9-0.8,1.5
		s-0.3,1.4-0.3,2.2c0,1.9,0.7,3.3,2.1,4.4s3.2,1.6,5.4,1.6h0.8c2.2,0,3.9-0.5,5.2-1.5s1.9-2.5,1.9-4.4c0-0.9-0.1-1.6-0.2-2.1
		s-0.3-0.9-0.5-1.3h-3.6l-0.2,3h-3v-7.3H534.9z"/>
	<path class="st9" d="M527.9,190v7.2h6.1v-6.9l-2.5-0.2v-3.3h5.8v16.9h-2.6l-0.4-2.3h-15.3l-0.4,2.3h-2.6v-2.3v-14.6h5.8v3.3
		l-2.5,0.2v6.8h5.4V190H527.9z"/>
</g>
<g class="st8">
	<path class="st10" d="M784.1,465.8v3.3l-2.8,0.5c-0.4,0.4-0.7,1-1,1.7c-0.2,0.7-0.4,1.5-0.4,2.4c0,1.9,0.7,3.4,2,4.5
		c1.3,1,3,1.6,5.2,1.6h0.7c2.1,0,3.9-0.5,5.2-1.6c1.3-1,2-2.5,2-4.4c0-0.9-0.1-1.7-0.4-2.4s-0.6-1.3-1-1.7l-2.8-0.5v-3.3h4.1
		c1,0.9,1.8,2.1,2.3,3.4s0.9,3,0.9,4.7c0,3-1,5.5-2.9,7.4c-1.9,1.9-4.4,2.9-7.5,2.9h-0.7c-3,0-5.5-1-7.5-2.9c-2-1.9-2.9-4.4-2.9-7.4
		c0-1.7,0.3-3.3,0.9-4.7c0.6-1.4,1.4-2.5,2.3-3.5H784.1z"/>
	<path class="st10" d="M790.1,463.7c-2.3,0-4.2-0.7-5.7-2.1c-1.5-1.4-2.2-3.3-2.2-5.8c0-2.5,0.7-4.4,2.2-5.8
		c1.5-1.4,3.4-2.1,5.7-2.1h0.3c2.3,0,4.2,0.7,5.7,2.1s2.2,3.3,2.2,5.7c0,2.5-0.7,4.4-2.2,5.8c-1.5,1.4-3.4,2.1-5.7,2.1H790.1z
		 M790.4,459.2c1.4,0,2.6-0.3,3.4-0.8c0.9-0.5,1.3-1.4,1.3-2.6c0-1.2-0.4-2-1.3-2.5c-0.9-0.5-2-0.8-3.4-0.8h-0.3
		c-1.4,0-2.5,0.3-3.4,0.8s-1.3,1.4-1.3,2.6s0.4,2,1.3,2.6c0.9,0.5,2,0.8,3.4,0.8H790.4z"/>
	<path class="st10" d="M795.5,446.3l-0.4-2.2h-9.6l-0.4,2.4h-2.5v-6.6l2.2-0.2c-0.8-0.6-1.4-1.2-1.9-2c-0.4-0.8-0.7-1.7-0.7-2.7
		c0-1.7,0.5-3,1.5-3.9s2.5-1.4,4.6-1.4h6.8l0.4-2.2h2.5v8.6h-2.5l-0.4-1.9h-6.7c-1,0-1.8,0.2-2.2,0.7c-0.4,0.5-0.7,1.1-0.7,2
		c0,0.6,0.1,1.1,0.3,1.6c0.2,0.5,0.5,0.9,1,1.2h8.3l0.4-1.8h2.5v8.5H795.5z"/>
	<path class="st10" d="M785.4,426.5h-2.9V424h-1.1c-2,0-3.5-0.6-4.5-1.9c-1.1-1.3-1.6-3.1-1.6-5.4c0-0.8,0.1-1.6,0.2-2.4
		s0.4-1.7,0.6-2.7l3.3,0.6c-0.2,0.7-0.4,1.4-0.5,2c-0.1,0.6-0.2,1.3-0.2,2.1c0,1,0.2,1.8,0.7,2.3s1.1,0.8,1.9,0.8h1.1v-10.1h12.6
		l0.4-2.4h2.5v9h-2.5l-0.4-2.2h-9.6v5.6h9.6l0.4-2.2h2.5v9h-2.5l-0.4-2.4h-9.6V426.5z"/>
	<path class="st10" d="M796.1,394.7c0.7,0.5,1.3,1.1,1.6,1.9c0.4,0.7,0.6,1.5,0.6,2.4c0,2-0.7,3.6-2.1,4.8s-3.2,1.7-5.5,1.7h-0.3
		c-2.5,0-4.4-0.6-5.9-1.7c-1.5-1.1-2.3-2.7-2.3-4.8c0-0.8,0.2-1.6,0.5-2.2s0.8-1.3,1.4-1.8h-5.6l-0.4,2.4h-2.5v-2.4v-4.5h19.5
		l0.4-2.2h2.5v6L796.1,394.7z M790.7,401c1.4,0,2.4-0.2,3.2-0.7s1.2-1.3,1.2-2.4c0-0.7-0.1-1.2-0.4-1.7c-0.2-0.5-0.6-0.9-1.1-1.2
		H787c-0.5,0.3-0.9,0.7-1.2,1.2c-0.3,0.5-0.4,1-0.4,1.7c0,1.1,0.5,1.9,1.4,2.4c0.9,0.5,2.1,0.8,3.6,0.8H790.7z"/>
	<path class="st10" d="M798.3,378.9c0,2.4-0.7,4.3-2.2,5.7c-1.4,1.4-3.3,2.2-5.5,2.2h-0.6c-2.3,0-4.2-0.7-5.7-2
		c-1.5-1.4-2.2-3.2-2.2-5.5c0-2.2,0.6-4,1.9-5.2c1.3-1.2,3-1.9,5.1-1.9h2.3v9.9l0.1,0c1-0.1,1.9-0.4,2.5-1.1c0.7-0.7,1-1.5,1-2.7
		c0-1-0.1-1.8-0.3-2.5c-0.2-0.7-0.5-1.4-0.9-2.2l2.6-1.2c0.5,0.7,0.9,1.6,1.3,2.7C798.1,376.4,798.3,377.6,798.3,378.9z
		 M785.4,379.3c0,0.8,0.3,1.5,0.9,2c0.6,0.5,1.4,0.8,2.3,0.9l0.1,0v-5.5h-0.4c-0.9,0-1.6,0.2-2.1,0.7S785.4,378.4,785.4,379.3z"/>
	<path class="st10" d="M795.5,370.4l-0.4-2.2h-9.6l-0.4,2.4h-2.5V364l2.2-0.2c-0.8-0.6-1.4-1.2-1.9-2c-0.4-0.8-0.7-1.7-0.7-2.7
		c0-1.7,0.5-3,1.5-3.9c1-0.9,2.5-1.4,4.6-1.4h6.8l0.4-2.2h2.5v8.6h-2.5l-0.4-1.9h-6.7c-1,0-1.8,0.2-2.2,0.7c-0.4,0.5-0.7,1.1-0.7,2
		c0,0.6,0.1,1.1,0.3,1.6c0.2,0.5,0.5,0.9,1,1.2h8.3l0.4-1.8h2.5v8.5H795.5z"/>
	<path class="st10" d="M778.7,343.5h3.8v-2.9h2.9v2.9h7.9c0.6,0,1-0.1,1.3-0.4c0.3-0.3,0.4-0.6,0.4-1.1c0-0.3,0-0.6,0-0.8
		s-0.1-0.5-0.1-0.8l3-0.4c0.1,0.5,0.3,1,0.3,1.5c0.1,0.5,0.1,1,0.1,1.6c0,1.5-0.4,2.7-1.2,3.6c-0.8,0.8-2.1,1.3-3.8,1.3h-7.9v2.4
		h-2.9V348h-3.8V343.5z"/>
	<path class="st10" d="M778.7,331.9v4.5h-3.1v-4.5H778.7z M795.5,338.5l-0.4-2.2h-9.6l-0.4,2.4h-2.5v-6.9h12.6l0.4-2.2h2.5v8.8
		H795.5z"/>
	<path class="st10" d="M798,317.7c-0.3,0.1-0.5,0.2-0.8,0.3c-0.3,0.1-0.5,0.2-0.8,0.2c0.6,0.5,1,1.2,1.4,1.9
		c0.4,0.8,0.5,1.6,0.5,2.6c0,1.6-0.4,2.9-1.2,3.9c-0.8,1-2,1.4-3.4,1.4c-1.5,0-2.6-0.6-3.4-1.9c-0.8-1.2-1.2-3.1-1.2-5.5v-2.3h-1.5
		c-0.7,0-1.3,0.2-1.7,0.7c-0.4,0.5-0.6,1.1-0.6,2c0,0.5,0.1,1,0.2,1.4c0.1,0.4,0.2,0.7,0.4,1l1.7,0.3v3.4l-3.4,0
		c-0.5-0.8-1-1.8-1.3-2.8c-0.4-1.1-0.5-2.2-0.5-3.5c0-2.1,0.5-3.7,1.4-5c0.9-1.3,2.3-1.9,4-1.9h6.4c0.2,0,0.5,0,0.7,0
		c0.2,0,0.4,0,0.6-0.1l0.2-1.4h2.5V317.7z M795.2,321.6c0-0.7-0.1-1.3-0.4-1.8c-0.3-0.6-0.6-1-1-1.3h-2.4v2.3c0,1,0.2,1.7,0.6,2.2
		c0.4,0.5,0.9,0.7,1.5,0.7c0.5,0,0.9-0.2,1.2-0.5S795.2,322.2,795.2,321.6z"/>
	<path class="st10" d="M778.1,311.5h-2.5v-6.9h19.5l0.4-2.2h2.5v8.8h-2.5l-0.4-2.2h-16.5L778.1,311.5z"/>
	<path class="st10" d="M795.5,293.6l-0.2-1.6l-18.2-6.8v-4.6l18.2-6.8l0.2-1.6h2.5v7.6h-2.5l-0.3-1.6l-2.9,1v7.3l2.9,1l0.3-1.6h2.5
		v7.6H795.5z M789.3,285.5v-5.1l-7.4,2.5v0.1L789.3,285.5z"/>
	<path class="st10" d="M785,271h-2.5v-6.5l1.8-0.2c-0.7-0.5-1.2-1.1-1.6-1.8c-0.4-0.7-0.5-1.5-0.5-2.4c0-2.1,0.8-3.7,2.3-4.8
		c1.5-1.1,3.5-1.7,5.9-1.7h0.3c2.3,0,4.1,0.6,5.5,1.7c1.4,1.1,2.1,2.7,2.1,4.8c0,0.9-0.2,1.6-0.5,2.3c-0.3,0.7-0.7,1.3-1.3,1.7h4.5
		l0.4-2.2h2.5v8.8h-2.5l-0.4-2.2h-15.6L785,271z M790.4,258.1c-1.5,0-2.7,0.3-3.6,0.8c-0.9,0.5-1.4,1.3-1.4,2.4
		c0,0.7,0.1,1.3,0.4,1.7c0.3,0.5,0.6,0.9,1.1,1.1h6.8c0.4-0.3,0.8-0.7,1-1.1c0.2-0.5,0.3-1.1,0.3-1.8c0-1.1-0.4-1.9-1.2-2.4
		c-0.8-0.5-1.9-0.8-3.2-0.8H790.4z"/>
</g>
<g class="st8">
	<path class="st10" d="M785,251.9h-2.5v-6.5l1.8-0.2c-0.7-0.5-1.2-1.1-1.6-1.8c-0.4-0.7-0.5-1.5-0.5-2.4c0-2.1,0.8-3.7,2.3-4.8
		c1.5-1.1,3.5-1.7,5.9-1.7h0.3c2.3,0,4.1,0.6,5.5,1.7c1.4,1.1,2.1,2.7,2.1,4.8c0,0.9-0.2,1.6-0.5,2.3c-0.3,0.7-0.7,1.3-1.3,1.7h4.5
		l0.4-2.2h2.5v8.8h-2.5l-0.4-2.2h-15.6L785,251.9z M790.4,239c-1.5,0-2.7,0.3-3.6,0.8c-0.9,0.5-1.4,1.3-1.4,2.4
		c0,0.7,0.1,1.3,0.4,1.7c0.3,0.5,0.6,0.9,1.1,1.1h6.8c0.4-0.3,0.8-0.7,1-1.1c0.2-0.5,0.3-1.1,0.3-1.8c0-1.1-0.4-1.9-1.2-2.4
		c-0.8-0.5-1.9-0.8-3.2-0.8H790.4z"/>
</g>
<g class="st8">
	<path class="st10" d="M778.1,233.3h-2.5v-6.9h19.5l0.4-2.2h2.5v8.8h-2.5l-0.4-2.2h-16.5L778.1,233.3z"/>
	<path class="st10" d="M778.7,216.3v4.5h-3.1v-4.5H778.7z M795.5,222.9l-0.4-2.2h-9.6l-0.4,2.4h-2.5v-6.9h12.6l0.4-2.2h2.5v8.8
		H795.5z"/>
	<path class="st10" d="M795.1,204.8c0-0.8-0.2-1.4-0.7-1.9s-1-0.7-1.7-0.7v-4.1l0.1,0c1.6,0,2.9,0.6,3.9,1.9
		c1.1,1.3,1.6,2.9,1.6,4.9c0,2.5-0.7,4.4-2.2,5.7c-1.5,1.3-3.3,2-5.6,2H790c-2.3,0-4.2-0.7-5.6-2.1c-1.5-1.4-2.2-3.3-2.2-5.9
		c0-1.3,0.2-2.5,0.6-3.6c0.4-1.1,0.9-2,1.6-2.7l4.2-0.1v3.6l-2.4,0.7c-0.2,0.2-0.3,0.5-0.5,0.8c-0.1,0.3-0.2,0.7-0.2,1.1
		c0,1.3,0.4,2.2,1.3,2.7s2,0.8,3.3,0.8h0.4c1.4,0,2.5-0.2,3.4-0.7C794.7,206.9,795.1,206,795.1,204.8z"/>
</g>
<g class="st8">
	<path class="st10" d="M798,185.5c-0.3,0.1-0.5,0.2-0.8,0.3c-0.3,0.1-0.5,0.2-0.8,0.2c0.6,0.5,1,1.2,1.4,1.9
		c0.4,0.8,0.5,1.6,0.5,2.6c0,1.6-0.4,2.9-1.2,3.9c-0.8,1-2,1.4-3.4,1.4c-1.5,0-2.6-0.6-3.4-1.9c-0.8-1.2-1.2-3.1-1.2-5.5v-2.3h-1.5
		c-0.7,0-1.3,0.2-1.7,0.7c-0.4,0.5-0.6,1.1-0.6,2c0,0.5,0.1,1,0.2,1.4c0.1,0.4,0.2,0.7,0.4,1l1.7,0.3v3.4l-3.4,0
		c-0.5-0.8-1-1.8-1.3-2.8c-0.4-1.1-0.5-2.2-0.5-3.5c0-2.1,0.5-3.7,1.4-5c0.9-1.3,2.3-1.9,4-1.9h6.4c0.2,0,0.5,0,0.7,0
		c0.2,0,0.4,0,0.6-0.1l0.2-1.4h2.5V185.5z M795.2,189.4c0-0.7-0.1-1.3-0.4-1.8c-0.3-0.6-0.6-1-1-1.3h-2.4v2.3c0,1,0.2,1.7,0.6,2.2
		c0.4,0.5,0.9,0.7,1.5,0.7c0.5,0,0.9-0.2,1.2-0.5S795.2,190,795.2,189.4z"/>
</g>
<g class="st8">
	<path class="st10" d="M778.7,173.4h3.8v-2.9h2.9v2.9h7.9c0.6,0,1-0.1,1.3-0.4c0.3-0.3,0.4-0.6,0.4-1.1c0-0.3,0-0.6,0-0.8
		s-0.1-0.5-0.1-0.8l3-0.4c0.1,0.5,0.3,1,0.3,1.5c0.1,0.5,0.1,1,0.1,1.6c0,1.5-0.4,2.7-1.2,3.6c-0.8,0.8-2.1,1.3-3.8,1.3h-7.9v2.4
		h-2.9v-2.4h-3.8V173.4z"/>
	<path class="st10" d="M778.7,161.7v4.5h-3.1v-4.5H778.7z M795.5,168.4l-0.4-2.2h-9.6l-0.4,2.4h-2.5v-6.9h12.6l0.4-2.2h2.5v8.8
		H795.5z"/>
	<path class="st10" d="M790.1,158.1c-2.3,0-4.2-0.7-5.7-2.1c-1.5-1.4-2.2-3.3-2.2-5.8c0-2.5,0.7-4.4,2.2-5.8
		c1.5-1.4,3.4-2.1,5.7-2.1h0.3c2.3,0,4.2,0.7,5.7,2.1s2.2,3.3,2.2,5.7c0,2.5-0.7,4.4-2.2,5.8c-1.5,1.4-3.4,2.1-5.7,2.1H790.1z
		 M790.4,153.6c1.4,0,2.6-0.3,3.4-0.8c0.9-0.5,1.3-1.4,1.3-2.6c0-1.2-0.4-2-1.3-2.5c-0.9-0.5-2-0.8-3.4-0.8h-0.3
		c-1.4,0-2.5,0.3-3.4,0.8s-1.3,1.4-1.3,2.6c0,1.2,0.4,2,1.3,2.6c0.9,0.5,2,0.8,3.4,0.8H790.4z"/>
	<path class="st10" d="M795.5,140.7l-0.4-2.2h-9.6L785,141h-2.5v-6.6l2.2-0.2c-0.8-0.6-1.4-1.2-1.9-2c-0.4-0.8-0.7-1.7-0.7-2.7
		c0-1.7,0.5-3,1.5-3.9c1-0.9,2.5-1.4,4.6-1.4h6.8l0.4-2.2h2.5v8.6h-2.5l-0.4-1.9h-6.7c-1,0-1.8,0.2-2.2,0.7c-0.4,0.5-0.7,1.1-0.7,2
		c0,0.6,0.1,1.1,0.3,1.6c0.2,0.5,0.5,0.9,1,1.2h8.3l0.4-1.8h2.5v8.5H795.5z"/>
</g>
<g class="st8">
	<path class="st9" d="M94.9,415.1h2.6l0.4,2.3h18.3v4.3l-14.4,8.6l0,0.1h11.3l0.4-2.3h2.6v8.8h-2.6l-0.4-2.3H97.9l-0.4,2.3h-2.6
		v-2.3v-4.3l14.4-8.6l0-0.1H97.9l-0.4,2.3h-2.6v-6.5V415.1z"/>
	<path class="st9" d="M108.2,413.6c-2.4,0-4.3-0.7-5.8-2c-1.5-1.3-2.3-3.2-2.3-5.5c0-2.3,0.8-4.2,2.3-5.5c1.5-1.3,3.4-2,5.8-2h0.3
		c2.4,0,4.3,0.7,5.8,2c1.5,1.3,2.2,3.1,2.2,5.5c0,2.4-0.7,4.2-2.2,5.5c-1.5,1.3-3.4,2-5.8,2H108.2z M108.5,409.3
		c1.4,0,2.6-0.3,3.5-0.8c0.9-0.5,1.3-1.3,1.3-2.5c0-1.1-0.4-1.9-1.3-2.4c-0.9-0.5-2-0.8-3.5-0.8h-0.3c-1.4,0-2.6,0.3-3.4,0.8
		s-1.3,1.3-1.3,2.4s0.4,1.9,1.3,2.4s2,0.8,3.4,0.8H108.5z"/>
	<path class="st9" d="M114.3,386.5c0.7,0.5,1.3,1.1,1.7,1.8c0.4,0.7,0.6,1.5,0.6,2.3c0,2-0.7,3.5-2.1,4.5c-1.4,1.1-3.3,1.6-5.7,1.6
		h-0.3c-2.5,0-4.5-0.5-6-1.6s-2.3-2.6-2.3-4.6c0-0.8,0.2-1.5,0.5-2.1c0.3-0.6,0.8-1.2,1.5-1.7h-5.7L96,389h-2.6v-2.3v-4.3h19.8
		l0.4-2.1h2.6v5.8L114.3,386.5z M108.8,392.5c1.4,0,2.5-0.2,3.3-0.7c0.8-0.5,1.2-1.2,1.2-2.3c0-0.6-0.1-1.2-0.4-1.6
		s-0.6-0.8-1.1-1.1H105c-0.5,0.3-0.9,0.7-1.2,1.1c-0.3,0.5-0.4,1-0.4,1.6c0,1,0.5,1.8,1.4,2.3s2.1,0.7,3.6,0.7H108.8z"/>
	<path class="st9" d="M116.6,371.4c0,2.3-0.7,4.1-2.2,5.5s-3.3,2.1-5.6,2.1h-0.6c-2.4,0-4.3-0.6-5.8-1.9c-1.5-1.3-2.3-3-2.3-5.2
		c0-2.1,0.6-3.8,1.9-5s3-1.8,5.2-1.8h2.3v9.5l0.1,0c1-0.1,1.9-0.4,2.6-1c0.7-0.6,1-1.5,1-2.5c0-0.9-0.1-1.7-0.3-2.4
		c-0.2-0.6-0.5-1.3-0.9-2.1l2.6-1.2c0.5,0.7,1,1.5,1.3,2.5C116.4,369,116.6,370.2,116.6,371.4z M103.4,371.8c0,0.8,0.3,1.4,0.9,1.9
		s1.4,0.7,2.4,0.8l0.1,0v-5.2h-0.4c-0.9,0-1.6,0.2-2.2,0.6C103.7,370.3,103.4,371,103.4,371.8z"/>
	<path class="st9" d="M104.4,346.5v-5.3h3.7v5.3h6.1v4.1h-6.1v5.3h-3.7v-5.3h-5.8v-4.1H104.4z"/>
	<path class="st9" d="M113.7,332.6l-0.2-1.5l-18.5-6.5v-4.4l18.5-6.4l0.2-1.5h2.6v7.3h-2.6l-0.3-1.5l-2.9,0.9v6.9l2.9,0.9l0.3-1.5
		h2.6v7.3H113.7z M107.4,324.8V320l-7.5,2.4v0.1L107.4,324.8z"/>
	<path class="st9" d="M103,311h-2.6v-6.2l1.8-0.2c-0.7-0.5-1.2-1-1.6-1.7s-0.6-1.4-0.6-2.3c0-2,0.8-3.5,2.3-4.6s3.5-1.6,6-1.6h0.3
		c2.3,0,4.2,0.5,5.7,1.6s2.1,2.6,2.1,4.5c0,0.8-0.2,1.6-0.5,2.2c-0.3,0.6-0.8,1.2-1.4,1.7h4.6l0.4-2.1h2.6v8.4h-2.6l-0.4-2.1h-15.9
		L103,311z M108.5,298.7c-1.5,0-2.7,0.2-3.6,0.7s-1.4,1.3-1.4,2.3c0,0.6,0.1,1.2,0.4,1.6s0.6,0.8,1.1,1.1h6.9c0.4-0.3,0.8-0.6,1-1.1
		s0.4-1,0.4-1.7c0-1-0.4-1.8-1.2-2.3s-1.9-0.7-3.3-0.7H108.5z"/>
</g>
<g class="st8">
	<path class="st9" d="M103,292.9h-2.6v-6.2l1.8-0.2c-0.7-0.5-1.2-1-1.6-1.7s-0.6-1.4-0.6-2.3c0-2,0.8-3.5,2.3-4.6s3.5-1.6,6-1.6h0.3
		c2.3,0,4.2,0.5,5.7,1.6s2.1,2.6,2.1,4.5c0,0.8-0.2,1.6-0.5,2.2c-0.3,0.6-0.8,1.2-1.4,1.7h4.6l0.4-2.1h2.6v8.4h-2.6l-0.4-2.1h-15.9
		L103,292.9z M108.5,280.6c-1.5,0-2.7,0.2-3.6,0.7s-1.4,1.3-1.4,2.3c0,0.6,0.1,1.2,0.4,1.6s0.6,0.8,1.1,1.1h6.9
		c0.4-0.3,0.8-0.6,1-1.1s0.4-1,0.4-1.7c0-1-0.4-1.8-1.2-2.3s-1.9-0.7-3.3-0.7H108.5z"/>
</g>
<g class="st8">
	<path class="st9" d="M96,275.1h-2.6v-6.6h19.8l0.4-2.1h2.6v8.4h-2.6l-0.4-2.1H96.4L96,275.1z"/>
	<path class="st9" d="M96.6,258.9v4.3h-3.2v-4.3H96.6z M113.7,265.2l-0.4-2.1h-9.8l-0.4,2.3h-2.6v-6.6h12.8l0.4-2.1h2.6v8.4H113.7z"
		/>
	<path class="st9" d="M113.3,248c0-0.8-0.2-1.4-0.7-1.8c-0.4-0.5-1-0.7-1.8-0.7v-3.9l0.1,0c1.6,0,2.9,0.6,4,1.8s1.6,2.8,1.6,4.6
		c0,2.4-0.7,4.2-2.2,5.5s-3.4,1.9-5.8,1.9h-0.4c-2.3,0-4.3-0.7-5.8-2s-2.3-3.2-2.3-5.6c0-1.3,0.2-2.4,0.6-3.4s0.9-1.9,1.6-2.5
		l4.2-0.1v3.5l-2.5,0.7c-0.2,0.2-0.3,0.5-0.5,0.8c-0.1,0.3-0.2,0.7-0.2,1.1c0,1.2,0.4,2.1,1.3,2.6s2,0.7,3.4,0.7h0.4
		c1.4,0,2.6-0.2,3.4-0.7C112.9,250,113.3,249.2,113.3,248z"/>
</g>
<g class="st8">
	<path class="st9" d="M116.3,229.5c-0.3,0.1-0.5,0.2-0.8,0.3c-0.3,0.1-0.6,0.2-0.8,0.2c0.6,0.5,1.1,1.1,1.4,1.9s0.5,1.6,0.5,2.5
		c0,1.6-0.4,2.8-1.3,3.7s-2,1.4-3.5,1.4c-1.5,0-2.6-0.6-3.4-1.8s-1.2-2.9-1.2-5.2v-2.2h-1.6c-0.8,0-1.4,0.2-1.8,0.7
		s-0.6,1.1-0.6,1.9c0,0.5,0.1,0.9,0.2,1.3s0.2,0.7,0.4,0.9l1.7,0.3v3.2l-3.5,0c-0.5-0.8-1-1.7-1.3-2.7s-0.5-2.1-0.5-3.3
		c0-2,0.5-3.6,1.4-4.8s2.3-1.8,4.1-1.8h6.5c0.2,0,0.5,0,0.7,0s0.4,0,0.6-0.1l0.2-1.3h2.6V229.5z M113.4,233.3c0-0.6-0.1-1.2-0.4-1.8
		c-0.3-0.5-0.6-0.9-1-1.2h-2.4v2.2c0,0.9,0.2,1.6,0.6,2.1c0.4,0.5,0.9,0.7,1.5,0.7c0.5,0,1-0.2,1.3-0.5S113.4,233.9,113.4,233.3z"/>
</g>
<g class="st8">
	<path class="st9" d="M96.5,218h3.9v-2.8h3v2.8h8.1c0.6,0,1.1-0.1,1.3-0.4s0.4-0.6,0.4-1c0-0.3,0-0.5,0-0.8s-0.1-0.5-0.1-0.7
		l3.1-0.4c0.1,0.5,0.3,1,0.3,1.4c0.1,0.5,0.1,1,0.1,1.5c0,1.5-0.4,2.6-1.2,3.4s-2.1,1.2-3.9,1.2h-8.1v2.3h-3v-2.3h-3.9V218z"/>
	<path class="st9" d="M96.6,206.9v4.3h-3.2v-4.3H96.6z M113.7,213.3l-0.4-2.1h-9.8l-0.4,2.3h-2.6v-6.6h12.8l0.4-2.1h2.6v8.4H113.7z"
		/>
	<path class="st9" d="M108.2,203.5c-2.4,0-4.3-0.7-5.8-2c-1.5-1.3-2.3-3.2-2.3-5.5c0-2.3,0.8-4.2,2.3-5.5s3.4-2,5.8-2h0.3
		c2.4,0,4.3,0.7,5.8,2c1.5,1.3,2.2,3.1,2.2,5.5c0,2.4-0.7,4.2-2.2,5.5c-1.5,1.3-3.4,2-5.8,2H108.2z M108.5,199.2
		c1.4,0,2.6-0.3,3.5-0.8c0.9-0.5,1.3-1.3,1.3-2.5c0-1.1-0.4-1.9-1.3-2.4s-2-0.8-3.5-0.8h-0.3c-1.4,0-2.6,0.3-3.4,0.8
		s-1.3,1.3-1.3,2.4s0.4,1.9,1.3,2.4s2,0.8,3.4,0.8H108.5z"/>
	<path class="st9" d="M113.7,186.9l-0.4-2.1h-9.8l-0.4,2.3h-2.6v-6.3l2.3-0.2c-0.8-0.5-1.4-1.2-1.9-1.9s-0.7-1.6-0.7-2.6
		c0-1.6,0.5-2.9,1.5-3.8s2.6-1.3,4.7-1.3h6.9l0.4-2.1h2.6v8.2h-2.6l-0.4-1.8h-6.9c-1.1,0-1.8,0.2-2.3,0.6s-0.7,1.1-0.7,1.9
		c0,0.6,0.1,1.1,0.3,1.5s0.6,0.8,1,1.1h8.5l0.4-1.7h2.6v8.1H113.7z"/>
</g>
<g class="st8">
	<path class="st11" d="M428.7,254.6l-0.4-2.1h-9.8l-0.4,2.3h-2.6v-6.3l2.3-0.2c-0.8-0.4-1.5-0.8-1.9-1.4s-0.7-1.3-0.7-2
		c0-0.2,0-0.5,0.1-0.7c0-0.2,0.1-0.5,0.1-0.6l3.9,0.5l0,1.8c0,0.6,0.1,1.1,0.4,1.6s0.6,0.7,1,0.9h7.7l0.4-2.1h2.6v8.4H428.7z"/>
</g>
<g class="st8">
	<path class="st11" d="M431.6,235c0,2.3-0.7,4.1-2.2,5.5s-3.3,2.1-5.6,2.1h-0.6c-2.4,0-4.3-0.6-5.8-1.9s-2.3-3-2.3-5.2
		c0-2.1,0.6-3.8,1.9-5s3-1.8,5.2-1.8h2.3v9.5l0.1,0c1-0.1,1.9-0.4,2.6-1s1-1.5,1-2.5c0-0.9-0.1-1.7-0.3-2.4
		c-0.2-0.6-0.5-1.3-0.9-2.1l2.6-1.2c0.5,0.7,1,1.5,1.3,2.5S431.6,233.7,431.6,235z M418.4,235.4c0,0.8,0.3,1.4,0.9,1.9
		s1.4,0.7,2.4,0.8l0.1,0v-5.2h-0.4c-0.9,0-1.6,0.2-2.2,0.6C418.7,233.8,418.4,234.5,418.4,235.4z"/>
	<path class="st11" d="M431.3,216.5c-0.3,0.1-0.5,0.2-0.8,0.3c-0.3,0.1-0.6,0.2-0.8,0.2c0.6,0.5,1.1,1.1,1.4,1.9s0.5,1.6,0.5,2.5
		c0,1.6-0.4,2.8-1.3,3.7s-2,1.4-3.5,1.4c-1.5,0-2.6-0.6-3.4-1.8s-1.2-2.9-1.2-5.2v-2.2h-1.6c-0.8,0-1.4,0.2-1.8,0.7
		s-0.6,1.1-0.6,1.9c0,0.5,0.1,0.9,0.2,1.3s0.2,0.7,0.4,0.9l1.7,0.3v3.2l-3.5,0c-0.5-0.8-1-1.7-1.3-2.7s-0.5-2.1-0.5-3.3
		c0-2,0.5-3.6,1.4-4.8s2.3-1.8,4.1-1.8h6.5c0.2,0,0.5,0,0.7,0s0.4,0,0.6-0.1l0.2-1.3h2.6V216.5z M428.4,220.2c0-0.6-0.1-1.2-0.4-1.8
		c-0.3-0.5-0.6-0.9-1-1.2h-2.4v2.2c0,0.9,0.2,1.6,0.6,2.1c0.4,0.5,0.9,0.7,1.5,0.7c0.5,0,1-0.2,1.3-0.5S428.4,220.8,428.4,220.2z"/>
	<path class="st11" d="M429.3,199.8c0.7,0.5,1.3,1.1,1.7,1.8s0.6,1.5,0.6,2.3c0,2-0.7,3.5-2.1,4.5s-3.3,1.6-5.7,1.6h-0.3
		c-2.5,0-4.5-0.5-6-1.6s-2.3-2.6-2.3-4.6c0-0.8,0.2-1.5,0.5-2.1c0.3-0.6,0.8-1.2,1.5-1.7h-5.7l-0.4,2.3h-2.6V200v-4.3h19.8l0.4-2.1
		h2.6v5.8L429.3,199.8z M423.8,205.8c1.4,0,2.5-0.2,3.3-0.7s1.2-1.2,1.2-2.3c0-0.6-0.1-1.2-0.4-1.6s-0.6-0.8-1.1-1.1H420
		c-0.5,0.3-0.9,0.7-1.2,1.1c-0.3,0.5-0.4,1-0.4,1.6c0,1,0.5,1.8,1.4,2.3s2.1,0.7,3.6,0.7H423.8z"/>
</g>
<g class="st8">
	<path class="st11" d="M639,232.3l0.2,1.6l13.1,3.3v3.6l-9.4,2.9v0.1l9.4,2.9v3.6l-13.1,3.3l-0.2,1.6h-2.6v-7.2h2.6l0.3,1.7l7.3-1.5
		v-0.1l-10.2-3v-2.9l10.2-3v-0.1l-7.3-1.5l-0.3,1.7h-2.6v-7.2H639z"/>
	<path class="st11" d="M649.7,230.5l-0.4-2.1h-9.8l-0.4,2.3h-2.6v-6.3l2.3-0.2c-0.8-0.4-1.5-0.8-1.9-1.4s-0.7-1.3-0.7-2
		c0-0.2,0-0.5,0.1-0.7c0-0.2,0.1-0.5,0.1-0.6l3.9,0.5l0,1.8c0,0.6,0.1,1.1,0.4,1.6s0.6,0.7,1,0.9h7.7l0.4-2.1h2.6v8.4H649.7z"/>
	<path class="st11" d="M632.6,212v4.3h-3.2V212H632.6z M649.7,218.4l-0.4-2.1h-9.8l-0.4,2.3h-2.6V212h12.8l0.4-2.1h2.6v8.4H649.7z"
		/>
	<path class="st11" d="M632.5,202.2h3.9v-2.8h3v2.8h8.1c0.6,0,1.1-0.1,1.3-0.4s0.4-0.6,0.4-1c0-0.3,0-0.5,0-0.8s-0.1-0.5-0.1-0.7
		l3.1-0.4c0.1,0.5,0.3,1,0.3,1.4c0.1,0.5,0.1,1,0.1,1.5c0,1.5-0.4,2.6-1.2,3.4s-2.1,1.2-3.9,1.2h-8.1v2.3h-3v-2.3h-3.9V202.2z"/>
	<path class="st11" d="M652.6,189.8c0,2.3-0.7,4.1-2.2,5.5s-3.3,2.1-5.6,2.1h-0.6c-2.4,0-4.3-0.6-5.8-1.9s-2.3-3-2.3-5.2
		c0-2.1,0.6-3.8,1.9-5s3-1.8,5.2-1.8h2.3v9.5l0.1,0c1-0.1,1.9-0.4,2.6-1s1-1.5,1-2.5c0-0.9-0.1-1.7-0.3-2.4
		c-0.2-0.6-0.5-1.3-0.9-2.1l2.6-1.2c0.5,0.7,1,1.5,1.3,2.5S652.6,188.5,652.6,189.8z M639.4,190.2c0,0.8,0.3,1.4,0.9,1.9
		s1.4,0.7,2.4,0.8l0.1,0v-5.2h-0.4c-0.9,0-1.6,0.2-2.2,0.6C639.7,188.7,639.4,189.3,639.4,190.2z"/>
</g>
<g class="st8">
	<path class="st9" d="M475.4,607.5l2.4-0.4v-11.3l-2.4-0.4v-1.9h5.3v13.6l2.4,0.4v1.8h-7.7V607.5z M480.7,589.4h-2.9v-2.9h2.9V589.4
		z"/>
	<path class="st9" d="M484.7,607.5l2.4-0.4v-11.3l-2.4-0.4v-1.9h5l0.2,2.1c0.5-0.8,1.2-1.3,2-1.7s1.7-0.6,2.8-0.6s2,0.2,2.7,0.7
		s1.3,1.2,1.7,2.2c0.5-0.9,1.2-1.6,2-2.1s1.8-0.8,2.9-0.8c1.6,0,2.9,0.6,3.8,1.7c0.9,1.1,1.4,2.8,1.4,5v7.2l2.4,0.4v1.8h-7.7v-1.8
		l2.4-0.4v-7.3c0-1.6-0.3-2.7-0.8-3.3s-1.3-1-2.4-1c-1,0-1.8,0.4-2.4,1.1s-1,1.6-1.1,2.7v7.8l2.4,0.4v1.8h-7.7v-1.8l2.4-0.4v-7.3
		c0-1.5-0.3-2.6-0.8-3.3c-0.6-0.7-1.4-1-2.4-1c-0.9,0-1.6,0.2-2.2,0.5s-1,0.9-1.3,1.5v9.5l2.4,0.4v1.8h-7.7V607.5z"/>
	<path class="st9" d="M523.9,609.3c-0.1-0.4-0.2-0.8-0.2-1.2s-0.1-0.7-0.1-1c-0.6,0.7-1.3,1.3-2.1,1.8c-0.8,0.5-1.7,0.7-2.7,0.7
		c-1.7,0-2.9-0.4-3.8-1.2c-0.9-0.8-1.3-1.9-1.3-3.4c0-1.5,0.6-2.7,1.8-3.5s2.9-1.2,5-1.2h3v-1.8c0-0.9-0.3-1.7-0.9-2.2
		c-0.6-0.5-1.4-0.8-2.4-0.8c-0.7,0-1.4,0.1-1.9,0.3s-1,0.4-1.3,0.8l-0.3,1.7h-2.2v-3.1c0.7-0.6,1.6-1,2.6-1.4c1-0.3,2.1-0.5,3.3-0.5
		c1.8,0,3.3,0.5,4.4,1.4s1.7,2.2,1.7,3.9v7.6c0,0.2,0,0.4,0,0.6s0,0.4,0,0.6l1.2,0.2v1.8H523.9z M519.3,607.2c1,0,1.8-0.2,2.6-0.7
		s1.4-1,1.7-1.7v-2.6h-3.1c-1.2,0-2.1,0.3-2.8,0.8s-1,1.2-1,2c0,0.7,0.2,1.2,0.6,1.6C517.8,607,518.4,607.2,519.3,607.2z"/>
	<path class="st9" d="M530.1,601.7c0-2.5,0.6-4.6,1.7-6.2s2.7-2.3,4.6-2.3c1,0,1.9,0.2,2.6,0.6s1.4,1,1.9,1.7l0.3-2h2.4v15.6
		c0,2.1-0.6,3.7-1.7,4.8c-1.1,1.2-2.8,1.8-4.9,1.8c-0.8,0-1.6-0.1-2.5-0.3s-1.7-0.5-2.3-0.9l0.7-2.2c0.5,0.3,1.2,0.5,1.9,0.7
		s1.4,0.3,2.1,0.3c1.3,0,2.2-0.4,2.8-1.1s0.9-1.8,0.9-3.1v-1.5c-0.5,0.7-1.1,1.2-1.9,1.5s-1.6,0.5-2.5,0.5c-1.9,0-3.5-0.7-4.6-2.1
		s-1.7-3.2-1.7-5.5V601.7z M533,602c0,1.6,0.3,2.9,1,3.8s1.7,1.5,3.1,1.5c0.9,0,1.6-0.2,2.2-0.6c0.6-0.4,1.1-1,1.5-1.7v-7.3
		c-0.4-0.7-0.9-1.2-1.5-1.6c-0.6-0.4-1.3-0.6-2.2-0.6c-1.4,0-2.4,0.6-3.1,1.7s-1,2.6-1,4.4V602z"/>
	<path class="st9" d="M554.3,609.6c-2.2,0-4-0.7-5.3-2.2s-2-3.4-2-5.7v-0.6c0-2.3,0.7-4.1,2-5.6c1.3-1.5,2.9-2.2,4.8-2.2
		c2.1,0,3.7,0.6,4.8,1.9s1.6,3,1.6,5.2v1.8h-10.3l0,0.1c0,1.5,0.4,2.8,1.2,3.8c0.7,1,1.8,1.5,3.1,1.5c1,0,1.8-0.1,2.6-0.4
		c0.7-0.3,1.4-0.7,1.9-1.2l1.1,1.9c-0.6,0.5-1.3,1-2.2,1.4C556.8,609.4,555.7,609.6,554.3,609.6z M553.9,595.4c-1,0-1.8,0.4-2.5,1.2
		s-1.1,1.8-1.3,3.1l0,0.1h7.3v-0.4c0-1.1-0.3-2.1-0.9-2.8S555.1,595.4,553.9,595.4z"/>
	<path class="st9" d="M564.4,611.2h-2.4l8.9-23.2h2.4L564.4,611.2z"/>
</g>
<g class="st8">
	<path class="st9" d="M489.9,638c0,2.3-0.5,4.1-1.6,5.5c-1.1,1.4-2.6,2.1-4.5,2.1c-1,0-1.9-0.2-2.7-0.6c-0.8-0.4-1.4-1-1.9-1.8
		l-0.3,2h-2.5v-20.6l-2.4-0.4v-1.9h5.3v8.9c0.5-0.7,1.1-1.2,1.9-1.6s1.6-0.6,2.6-0.6c2,0,3.5,0.8,4.6,2.3s1.6,3.6,1.6,6.2V638z
		 M487,637.7c0-1.8-0.3-3.3-1-4.5s-1.7-1.7-3-1.7c-0.9,0-1.6,0.2-2.2,0.6s-1.1,1-1.5,1.7v7c0.4,0.7,0.9,1.3,1.5,1.7s1.4,0.6,2.3,0.6
		c1.4,0,2.4-0.5,3-1.5s1-2.2,1-3.8V637.7z"/>
	<path class="st9" d="M492.8,643.5l2.4-0.4v-11.3l-2.4-0.4v-1.9h5.3v13.6l2.4,0.4v1.8h-7.7V643.5z M498.1,625.4h-2.9v-2.9h2.9V625.4
		z"/>
	<path class="st9" d="M502.2,643.5l2.4-0.4v-11.3l-2.4-0.4v-1.9h5l0.2,2.4c0.5-0.8,1.2-1.5,2-2c0.8-0.5,1.7-0.7,2.7-0.7
		c1.7,0,3,0.5,4,1.5s1.4,2.5,1.4,4.6v7.7l2.4,0.4v1.8h-7.7v-1.8l2.4-0.4v-7.7c0-1.4-0.3-2.4-0.8-3s-1.4-0.9-2.5-0.9
		c-0.8,0-1.6,0.2-2.2,0.6s-1.1,0.9-1.5,1.6v9.3l2.4,0.4v1.8h-7.7V643.5z"/>
	<path class="st9" d="M532.3,645.3c-0.1-0.4-0.2-0.8-0.2-1.2s-0.1-0.7-0.1-1c-0.6,0.7-1.3,1.3-2.1,1.8c-0.8,0.5-1.7,0.7-2.7,0.7
		c-1.7,0-2.9-0.4-3.8-1.2c-0.9-0.8-1.3-1.9-1.3-3.4c0-1.5,0.6-2.7,1.8-3.5s2.9-1.2,5-1.2h3v-1.8c0-0.9-0.3-1.7-0.9-2.2
		c-0.6-0.5-1.4-0.8-2.4-0.8c-0.7,0-1.4,0.1-1.9,0.3s-1,0.4-1.3,0.8l-0.3,1.7h-2.2v-3.1c0.7-0.6,1.6-1,2.6-1.4c1-0.3,2.1-0.5,3.3-0.5
		c1.8,0,3.3,0.5,4.4,1.4s1.7,2.2,1.7,3.9v7.6c0,0.2,0,0.4,0,0.6s0,0.4,0,0.6l1.2,0.2v1.8H532.3z M527.6,643.2c1,0,1.8-0.2,2.6-0.7
		s1.4-1,1.7-1.7v-2.6h-3.1c-1.2,0-2.1,0.3-2.8,0.8s-1,1.2-1,2c0,0.7,0.2,1.2,0.6,1.6C526.1,643,526.8,643.2,527.6,643.2z"/>
</g>
<g class="st8">
	<path class="st9" d="M538.5,631.3v-1.9h5l0.3,2.3c0.4-0.8,1-1.4,1.7-1.9s1.4-0.7,2.3-0.7c0.2,0,0.5,0,0.7,0.1
		c0.2,0,0.4,0.1,0.5,0.1l-0.4,2.7l-1.6-0.1c-0.8,0-1.4,0.2-1.9,0.5s-0.9,0.9-1.2,1.5v9.1l2.4,0.4v1.8h-7.7v-1.8l2.4-0.4v-11.3
		L538.5,631.3z"/>
</g>
<g class="st8">
	<path class="st9" d="M566.2,631.3l-1.4,0.2l-6,16.2c-0.4,1.1-1,2-1.7,2.8s-1.8,1.2-3,1.2c-0.2,0-0.5,0-0.9-0.1s-0.6-0.1-0.8-0.2
		l0.3-2.3c-0.1,0,0.1,0,0.5,0s0.7,0,0.8,0c0.6,0,1.1-0.3,1.5-0.8c0.4-0.5,0.7-1.1,1-1.8l0.7-1.6l-5.2-13.4l-1.5-0.2v-1.9h6.4v1.9
		l-1.8,0.3l2.7,7.8l0.5,2h0.1l3.3-9.8l-1.8-0.3v-1.9h6.4V631.3z"/>
</g>
<g class="st8">
	<path class="st9" d="M480.4,661.6v3.8h3v2.1h-3v9.6c0,0.7,0.2,1.3,0.5,1.6s0.7,0.5,1.2,0.5c0.3,0,0.5,0,0.9-0.1
		c0.3,0,0.6-0.1,0.8-0.1l0.4,2c-0.3,0.2-0.7,0.3-1.2,0.4s-1.1,0.2-1.6,0.2c-1.2,0-2.1-0.4-2.8-1.1s-1-1.8-1-3.3v-9.6h-2.5v-2.1h2.5
		v-3.8H480.4z"/>
	<path class="st9" d="M486.4,667.3v-1.9h5l0.3,2.3c0.4-0.8,1-1.4,1.7-1.9s1.4-0.7,2.3-0.7c0.2,0,0.5,0,0.7,0.1
		c0.2,0,0.4,0.1,0.5,0.1l-0.4,2.7l-1.6-0.1c-0.8,0-1.4,0.2-1.9,0.5s-0.9,0.9-1.2,1.5v9.1l2.4,0.4v1.8h-7.7v-1.8l2.4-0.4v-11.3
		L486.4,667.3z"/>
	<path class="st9" d="M509.1,681.3c-0.1-0.4-0.2-0.8-0.2-1.2s-0.1-0.7-0.1-1c-0.6,0.7-1.3,1.3-2.1,1.8c-0.8,0.5-1.7,0.7-2.7,0.7
		c-1.7,0-2.9-0.4-3.8-1.2c-0.9-0.8-1.3-1.9-1.3-3.4c0-1.5,0.6-2.7,1.8-3.5s2.9-1.2,5-1.2h3v-1.8c0-0.9-0.3-1.7-0.9-2.2
		c-0.6-0.5-1.4-0.8-2.4-0.8c-0.7,0-1.4,0.1-1.9,0.3s-1,0.4-1.3,0.8l-0.3,1.7h-2.2v-3.1c0.7-0.6,1.6-1,2.6-1.4c1-0.3,2.1-0.5,3.3-0.5
		c1.8,0,3.3,0.5,4.4,1.4s1.7,2.2,1.7,3.9v7.6c0,0.2,0,0.4,0,0.6s0,0.4,0,0.6l1.2,0.2v1.8H509.1z M504.5,679.2c1,0,1.8-0.2,2.6-0.7
		s1.4-1,1.7-1.7v-2.6h-3.1c-1.2,0-2.1,0.3-2.8,0.8s-1,1.2-1,2c0,0.7,0.2,1.2,0.6,1.6C503,679,503.6,679.2,504.5,679.2z"/>
	<path class="st9" d="M514.9,679.5l2.4-0.4v-11.3l-2.4-0.4v-1.9h5l0.2,2.4c0.5-0.8,1.2-1.5,2-2c0.8-0.5,1.7-0.7,2.7-0.7
		c1.7,0,3,0.5,4,1.5s1.4,2.5,1.4,4.6v7.7l2.4,0.4v1.8h-7.7v-1.8l2.4-0.4v-7.7c0-1.4-0.3-2.4-0.8-3s-1.4-0.9-2.5-0.9
		c-0.8,0-1.6,0.2-2.2,0.6s-1.1,0.9-1.5,1.6v9.3l2.4,0.4v1.8h-7.7V679.5z"/>
	<path class="st9" d="M546.8,670.5h-2.2l-0.5-1.9c-0.4-0.3-0.8-0.6-1.3-0.8c-0.5-0.2-1.1-0.3-1.8-0.3c-1,0-1.8,0.2-2.3,0.7
		s-0.7,1-0.7,1.6c0,0.6,0.2,1.1,0.7,1.5s1.3,0.7,2.7,1c2,0.4,3.5,1,4.5,1.8s1.5,1.7,1.5,3c0,1.4-0.6,2.5-1.7,3.4s-2.6,1.3-4.5,1.3
		c-1.2,0-2.3-0.1-3.2-0.4c-1-0.3-1.8-0.7-2.6-1.2l0-3.6h2.2l0.5,2.1c0.3,0.3,0.8,0.5,1.4,0.7s1.2,0.2,1.8,0.2c1,0,1.8-0.2,2.4-0.6
		s0.9-1,0.9-1.6c0-0.6-0.2-1.2-0.7-1.6s-1.4-0.8-2.7-1.1c-1.9-0.4-3.4-1-4.4-1.7s-1.5-1.7-1.5-2.9c0-1.3,0.5-2.4,1.6-3.3
		s2.5-1.4,4.3-1.4c1.2,0,2.3,0.2,3.2,0.5s1.8,0.7,2.4,1.3L546.8,670.5z"/>
	<path class="st9" d="M549.5,660.3v-1.9h5.3v20.6l2.4,0.4v1.8h-7.7v-1.8l2.4-0.4v-18.3L549.5,660.3z"/>
	<path class="st9" d="M569.7,681.3c-0.1-0.4-0.2-0.8-0.2-1.2s-0.1-0.7-0.1-1c-0.6,0.7-1.3,1.3-2.1,1.8c-0.8,0.5-1.7,0.7-2.7,0.7
		c-1.7,0-2.9-0.4-3.8-1.2c-0.9-0.8-1.3-1.9-1.3-3.4c0-1.5,0.6-2.7,1.8-3.5s2.9-1.2,5-1.2h3v-1.8c0-0.9-0.3-1.7-0.9-2.2
		c-0.6-0.5-1.4-0.8-2.4-0.8c-0.7,0-1.4,0.1-1.9,0.3s-1,0.4-1.3,0.8l-0.3,1.7h-2.2v-3.1c0.7-0.6,1.6-1,2.6-1.4c1-0.3,2.1-0.5,3.3-0.5
		c1.8,0,3.3,0.5,4.4,1.4s1.7,2.2,1.7,3.9v7.6c0,0.2,0,0.4,0,0.6s0,0.4,0,0.6l1.2,0.2v1.8H569.7z M565.1,679.2c1,0,1.8-0.2,2.6-0.7
		s1.4-1,1.7-1.7v-2.6h-3.1c-1.2,0-2.1,0.3-2.8,0.8s-1,1.2-1,2c0,0.7,0.2,1.2,0.6,1.6C563.5,679,564.2,679.2,565.1,679.2z"/>
	<path class="st9" d="M580.9,661.6v3.8h3v2.1h-3v9.6c0,0.7,0.2,1.3,0.5,1.6s0.7,0.5,1.2,0.5c0.3,0,0.5,0,0.9-0.1
		c0.3,0,0.6-0.1,0.8-0.1l0.4,2c-0.3,0.2-0.7,0.3-1.2,0.4s-1.1,0.2-1.6,0.2c-1.2,0-2.1-0.4-2.8-1.1s-1-1.8-1-3.3v-9.6h-2.5v-2.1h2.5
		v-3.8H580.9z"/>
	<path class="st9" d="M586.9,679.5l2.4-0.4v-11.3l-2.4-0.4v-1.9h5.3v13.6l2.4,0.4v1.8h-7.7V679.5z M592.2,661.4h-2.9v-2.9h2.9V661.4
		z"/>
	<path class="st9" d="M596.8,673.2c0-2.3,0.6-4.3,1.9-5.8c1.3-1.5,3-2.3,5.2-2.3c2.2,0,3.9,0.8,5.2,2.3s1.9,3.4,1.9,5.8v0.3
		c0,2.4-0.6,4.3-1.9,5.8s-3,2.3-5.2,2.3c-2.2,0-3.9-0.8-5.2-2.3c-1.3-1.5-1.9-3.4-1.9-5.8V673.2z M599.6,673.6
		c0,1.7,0.4,3.1,1.1,4.2s1.8,1.6,3.2,1.6c1.4,0,2.4-0.5,3.1-1.6s1.1-2.5,1.1-4.2v-0.3c0-1.7-0.4-3-1.1-4.1s-1.8-1.7-3.1-1.7
		s-2.4,0.6-3.1,1.7s-1.1,2.5-1.1,4.1V673.6z"/>
	<path class="st9" d="M613.1,679.5l2.4-0.4v-11.3l-2.4-0.4v-1.9h5l0.2,2.4c0.5-0.8,1.2-1.5,2-2c0.8-0.5,1.7-0.7,2.7-0.7
		c1.7,0,3,0.5,4,1.5s1.4,2.5,1.4,4.6v7.7l2.4,0.4v1.8h-7.7v-1.8l2.4-0.4v-7.7c0-1.4-0.3-2.4-0.8-3s-1.4-0.9-2.5-0.9
		c-0.8,0-1.6,0.2-2.2,0.6s-1.2,0.9-1.5,1.6v9.3l2.4,0.4v1.8h-7.7V679.5z"/>
</g>
<g class="st8">
	<path class="st9" d="M751,592.2L751,592.2l-7,17.1h-1.9l-6.9-17.1l-0.1,0l0.3,8.6v6.2l2.4,0.4v1.8h-7.7v-1.8l2.4-0.4v-16.8
		l-2.4-0.4V588h2.4h3.7l6.8,17.3h0.1l6.8-17.3h6.1v1.9l-2.4,0.4v16.8l2.4,0.4v1.8h-7.7v-1.8l2.4-0.4v-6.2L751,592.2z"/>
	<path class="st9" d="M758.3,595.3v-1.9h5l0.3,2.3c0.4-0.8,1-1.4,1.7-1.9s1.4-0.7,2.3-0.7c0.2,0,0.5,0,0.7,0.1
		c0.2,0,0.4,0.1,0.5,0.1l-0.4,2.7l-1.6-0.1c-0.8,0-1.4,0.2-1.9,0.5s-0.9,0.9-1.2,1.5v9.1l2.4,0.4v1.8h-7.7v-1.8l2.4-0.4v-11.3
		L758.3,595.3z"/>
	<path class="st9" d="M770.5,609.3v-1.8l2.4-0.4v-16.8l-2.4-0.4V588h16.4v5.1h-2.5l-0.2-2.9h-8.4v6.9h8.2v2.3h-8.2v7.6h8.6l0.2-2.9
		h2.5v5.1H770.5z"/>
</g>
<g class="st8">
	<path class="st9" d="M789.4,607.5l2.4-0.4v-11.3l-2.4-0.4v-1.9h5l0.2,2.4c0.5-0.8,1.2-1.5,2-2c0.8-0.5,1.7-0.7,2.7-0.7
		c1.7,0,3,0.5,4,1.5s1.4,2.5,1.4,4.6v7.7l2.4,0.4v1.8h-7.7v-1.8l2.4-0.4v-7.7c0-1.4-0.3-2.4-0.8-3s-1.4-0.9-2.5-0.9
		c-0.8,0-1.6,0.2-2.2,0.6s-1.1,0.9-1.5,1.6v9.3l2.4,0.4v1.8h-7.7V607.5z"/>
</g>
<g class="st8">
	<path class="st9" d="M816.1,607.4c1,0,1.8-0.3,2.5-0.9s1.1-1.3,1.1-2.2h2.6l0,0.1c0,1.4-0.6,2.6-1.8,3.6s-2.7,1.6-4.4,1.6
		c-2.3,0-4.1-0.8-5.3-2.3s-1.8-3.4-1.8-5.7v-0.6c0-2.3,0.6-4.1,1.8-5.6c1.2-1.5,3-2.3,5.3-2.3c1.3,0,2.4,0.2,3.4,0.6s1.8,1,2.5,1.7
		l0.1,3.5h-2.3l-0.6-2.5c-0.3-0.3-0.8-0.6-1.3-0.8s-1.1-0.3-1.8-0.3c-1.5,0-2.6,0.5-3.2,1.6s-1,2.4-1,4v0.6c0,1.6,0.3,3,1,4.1
		S814.6,607.4,816.1,607.4z"/>
	<path class="st9" d="M824.8,588.3v-1.9h5.3v20.6l2.4,0.4v1.8h-7.7v-1.8l2.4-0.4v-18.3L824.8,588.3z"/>
</g>
<g class="st8">
	<path class="st9" d="M845,609.3c-0.1-0.4-0.2-0.8-0.2-1.2s-0.1-0.7-0.1-1c-0.6,0.7-1.3,1.3-2.1,1.8c-0.8,0.5-1.7,0.7-2.7,0.7
		c-1.7,0-2.9-0.4-3.8-1.2c-0.9-0.8-1.3-1.9-1.3-3.4c0-1.5,0.6-2.7,1.8-3.5s2.9-1.2,5-1.2h3v-1.8c0-0.9-0.3-1.7-0.9-2.2
		c-0.6-0.5-1.4-0.8-2.4-0.8c-0.7,0-1.4,0.1-1.9,0.3s-1,0.4-1.3,0.8l-0.3,1.7h-2.2v-3.1c0.7-0.6,1.6-1,2.6-1.4c1-0.3,2.1-0.5,3.3-0.5
		c1.8,0,3.3,0.5,4.4,1.4s1.7,2.2,1.7,3.9v7.6c0,0.2,0,0.4,0,0.6s0,0.4,0,0.6l1.2,0.2v1.8H845z M840.3,607.2c1,0,1.8-0.2,2.6-0.7
		s1.4-1,1.7-1.7v-2.6h-3.1c-1.2,0-2.1,0.3-2.8,0.8s-1,1.2-1,2c0,0.7,0.2,1.2,0.6,1.6C838.8,607,839.5,607.2,840.3,607.2z"/>
</g>
<g class="st8">
	<path class="st9" d="M856.4,595.3l-1.9,0.3l3.3,9l0.3,1.1h0.1l0.3-1.1l3.2-9l-1.9-0.3v-1.9h6.1v1.9l-1.3,0.2l-5.3,13.8h-2.2
		l-5.4-13.8l-1.3-0.2v-1.9h6.1V595.3z"/>
</g>
<g class="st8">
	<path class="st9" d="M874.7,609.6c-2.2,0-4-0.7-5.3-2.2s-2-3.4-2-5.7v-0.6c0-2.3,0.7-4.1,2-5.6c1.3-1.5,2.9-2.2,4.8-2.2
		c2.1,0,3.7,0.6,4.8,1.9s1.6,3,1.6,5.2v1.8h-10.3l0,0.1c0,1.5,0.4,2.8,1.2,3.8c0.7,1,1.8,1.5,3.1,1.5c1,0,1.8-0.1,2.6-0.4
		c0.7-0.3,1.4-0.7,1.9-1.2l1.1,1.9c-0.6,0.5-1.3,1-2.2,1.4C877.1,609.4,876,609.6,874.7,609.6z M874.3,595.4c-1,0-1.8,0.4-2.5,1.2
		s-1.1,1.8-1.3,3.1l0,0.1h7.3v-0.4c0-1.1-0.3-2.1-0.9-2.8S875.5,595.4,874.3,595.4z"/>
	<path class="st9" d="M891.1,601.2c0-2.3,0.6-4.3,1.9-5.8c1.3-1.5,3-2.3,5.2-2.3c2.2,0,3.9,0.8,5.2,2.3s1.9,3.4,1.9,5.8v0.3
		c0,2.4-0.6,4.3-1.9,5.8s-3,2.3-5.2,2.3c-2.2,0-3.9-0.8-5.2-2.3c-1.3-1.5-1.9-3.4-1.9-5.8V601.2z M894,601.6c0,1.7,0.4,3.1,1.1,4.2
		s1.8,1.6,3.2,1.6c1.4,0,2.4-0.5,3.1-1.6s1.1-2.5,1.1-4.2v-0.3c0-1.7-0.4-3-1.1-4.1s-1.8-1.7-3.1-1.7s-2.4,0.6-3.1,1.7
		s-1.1,2.5-1.1,4.1V601.6z"/>
	<path class="st9" d="M907.6,595.6v-2.1h2.5v-2c0-1.7,0.4-3,1.3-3.9c0.9-0.9,2.1-1.4,3.7-1.4c0.3,0,0.7,0,1,0.1s0.7,0.1,1.1,0.2
		l-0.4,2.2c-0.2,0-0.4-0.1-0.6-0.1s-0.5,0-0.8,0c-0.8,0-1.5,0.3-1.9,0.8c-0.4,0.5-0.6,1.2-0.6,2.2v2h3.3v2.1H913v11.5l2.4,0.4v1.8
		h-7.7v-1.8l2.4-0.4v-11.5H907.6z"/>
</g>
<g class="st8">
	<path class="st9" d="M925.6,607.5l2.4-0.4v-11.3l-2.4-0.4v-1.9h5l0.2,2.4c0.5-0.8,1.2-1.5,2-2c0.8-0.5,1.7-0.7,2.7-0.7
		c1.7,0,3,0.5,4,1.5s1.4,2.5,1.4,4.6v7.7l2.4,0.4v1.8h-7.7v-1.8l2.4-0.4v-7.7c0-1.4-0.3-2.4-0.8-3s-1.4-0.9-2.5-0.9
		c-0.8,0-1.6,0.2-2.2,0.6s-1.2,0.9-1.5,1.6v9.3l2.4,0.4v1.8h-7.7V607.5z"/>
</g>
<g class="st8">
	<path class="st9" d="M945.2,601.2c0-2.3,0.6-4.3,1.9-5.8c1.3-1.5,3-2.3,5.2-2.3c2.2,0,3.9,0.8,5.2,2.3s1.9,3.4,1.9,5.8v0.3
		c0,2.4-0.6,4.3-1.9,5.8s-3,2.3-5.2,2.3c-2.2,0-3.9-0.8-5.2-2.3c-1.3-1.5-1.9-3.4-1.9-5.8V601.2z M948.1,601.6
		c0,1.7,0.4,3.1,1.1,4.2s1.8,1.6,3.2,1.6c1.4,0,2.4-0.5,3.1-1.6s1.1-2.5,1.1-4.2v-0.3c0-1.7-0.4-3-1.1-4.1s-1.8-1.7-3.1-1.7
		s-2.4,0.6-3.1,1.7s-1.1,2.5-1.1,4.1V601.6z"/>
	<path class="st9" d="M972.7,607.4c-0.5,0.7-1.1,1.3-1.9,1.6s-1.6,0.6-2.6,0.6c-1.9,0-3.4-0.7-4.5-2.1c-1.1-1.4-1.6-3.2-1.6-5.5
		v-0.3c0-2.5,0.5-4.6,1.6-6.2s2.6-2.3,4.6-2.3c0.9,0,1.8,0.2,2.5,0.5c0.7,0.3,1.3,0.8,1.8,1.5v-6.5l-2.4-0.4v-1.9h2.4h2.9v20.6
		l2.4,0.4v1.8h-4.9L972.7,607.4z M964.9,602c0,1.6,0.3,2.9,1,3.8s1.7,1.5,3,1.5c0.9,0,1.6-0.2,2.2-0.6s1.1-0.9,1.5-1.7v-7.4
		c-0.4-0.7-0.9-1.2-1.5-1.6s-1.3-0.6-2.1-0.6c-1.4,0-2.4,0.6-3.1,1.7s-1,2.6-1,4.5V602z"/>
</g>
<g class="st8">
	<path class="st9" d="M987.3,609.6c-2.2,0-4-0.7-5.3-2.2c-1.3-1.5-2-3.4-2-5.7v-0.6c0-2.3,0.7-4.1,2-5.6c1.3-1.5,2.9-2.2,4.8-2.2
		c2.1,0,3.7,0.6,4.8,1.9c1.1,1.3,1.6,3,1.6,5.2v1.8H983l0,0.1c0,1.5,0.4,2.8,1.2,3.8c0.7,1,1.8,1.5,3.1,1.5c1,0,1.8-0.1,2.6-0.4
		c0.7-0.3,1.4-0.7,1.9-1.2l1.1,1.9c-0.6,0.5-1.3,1-2.2,1.4C989.7,609.4,988.6,609.6,987.3,609.6z M986.8,595.4c-1,0-1.8,0.4-2.5,1.2
		s-1.1,1.8-1.3,3.1l0,0.1h7.3v-0.4c0-1.1-0.3-2.1-0.9-2.8S988,595.4,986.8,595.4z"/>
</g>
<g class="st8">
	<path class="st9" d="M999.6,589.2c0,1-0.2,2-0.7,3s-1.1,1.9-1.9,2.6l-1.6-1.1c0.5-0.7,0.8-1.4,1-2.1c0.2-0.7,0.4-1.5,0.4-2.4v-2.7
		h2.9V589.2z"/>
</g>
<g class="st8">
	<path class="st9" d="M741.1,643.4c-0.5,0.7-1.1,1.3-1.9,1.6s-1.6,0.6-2.6,0.6c-1.9,0-3.4-0.7-4.5-2.1c-1.1-1.4-1.6-3.2-1.6-5.5
		v-0.3c0-2.5,0.5-4.6,1.6-6.2s2.6-2.3,4.6-2.3c0.9,0,1.8,0.2,2.5,0.5c0.7,0.3,1.3,0.8,1.8,1.5v-6.5l-2.4-0.4v-1.9h2.4h2.9v20.6
		l2.4,0.4v1.8h-4.9L741.1,643.4z M733.3,638c0,1.6,0.3,2.9,1,3.8s1.7,1.5,3,1.5c0.9,0,1.6-0.2,2.2-0.6s1.1-0.9,1.5-1.7v-7.4
		c-0.4-0.7-0.9-1.2-1.5-1.6s-1.3-0.6-2.1-0.6c-1.4,0-2.4,0.6-3.1,1.7s-1,2.6-1,4.5V638z"/>
	<path class="st9" d="M755.6,645.6c-2.2,0-4-0.7-5.3-2.2s-2-3.4-2-5.7v-0.6c0-2.3,0.7-4.1,2-5.6c1.3-1.5,2.9-2.2,4.8-2.2
		c2.1,0,3.7,0.6,4.8,1.9s1.6,3,1.6,5.2v1.8h-10.3l0,0.1c0,1.5,0.4,2.8,1.2,3.8c0.7,1,1.8,1.5,3.1,1.5c1,0,1.8-0.1,2.6-0.4
		c0.7-0.3,1.4-0.7,1.9-1.2l1.1,1.9c-0.6,0.5-1.3,1-2.2,1.4C758.1,645.4,757,645.6,755.6,645.6z M755.2,631.4c-1,0-1.8,0.4-2.5,1.2
		s-1.1,1.8-1.3,3.1l0,0.1h7.3v-0.4c0-1.1-0.3-2.1-0.9-2.8S756.4,631.4,755.2,631.4z"/>
	<path class="st9" d="M764.2,649.6l2.4-0.4v-17.4l-2.4-0.4v-1.9h4.9l0.3,1.9c0.5-0.7,1.2-1.3,1.9-1.7s1.6-0.6,2.6-0.6
		c2,0,3.5,0.8,4.6,2.3c1.1,1.6,1.6,3.6,1.6,6.2v0.3c0,2.3-0.5,4.1-1.6,5.5c-1.1,1.4-2.6,2.1-4.5,2.1c-1,0-1.8-0.2-2.6-0.5
		c-0.7-0.3-1.4-0.8-1.9-1.5v5.5l2.4,0.4v1.9h-7.7V649.6z M777.2,637.7c0-1.8-0.4-3.3-1.1-4.4s-1.7-1.7-3.1-1.7
		c-0.8,0-1.5,0.2-2.1,0.6s-1.1,0.9-1.4,1.5v7.7c0.4,0.7,0.8,1.2,1.4,1.5s1.3,0.5,2.1,0.5c1.4,0,2.4-0.5,3.1-1.5s1.1-2.3,1.1-3.9
		V637.7z"/>
	<path class="st9" d="M789.9,645.6c-2.2,0-4-0.7-5.3-2.2s-2-3.4-2-5.7v-0.6c0-2.3,0.7-4.1,2-5.6c1.3-1.5,2.9-2.2,4.8-2.2
		c2.1,0,3.7,0.6,4.8,1.9s1.6,3,1.6,5.2v1.8h-10.3l0,0.1c0,1.5,0.4,2.8,1.2,3.8c0.7,1,1.8,1.5,3.1,1.5c1,0,1.8-0.1,2.6-0.4
		c0.7-0.3,1.4-0.7,1.9-1.2l1.1,1.9c-0.6,0.5-1.3,1-2.2,1.4C792.4,645.4,791.2,645.6,789.9,645.6z M789.5,631.4c-1,0-1.8,0.4-2.5,1.2
		s-1.1,1.8-1.3,3.1l0,0.1h7.3v-0.4c0-1.1-0.3-2.1-0.9-2.8S790.7,631.4,789.5,631.4z"/>
</g>
<g class="st8">
	<path class="st9" d="M798.4,643.5l2.4-0.4v-11.3l-2.4-0.4v-1.9h5l0.2,2.4c0.5-0.8,1.2-1.5,2-2c0.8-0.5,1.7-0.7,2.7-0.7
		c1.7,0,3,0.5,4,1.5s1.4,2.5,1.4,4.6v7.7l2.4,0.4v1.8h-7.7v-1.8l2.4-0.4v-7.7c0-1.4-0.3-2.4-0.8-3s-1.4-0.9-2.5-0.9
		c-0.8,0-1.6,0.2-2.2,0.6s-1.2,0.9-1.5,1.6v9.3l2.4,0.4v1.8h-7.7V643.5z"/>
</g>
<g class="st8">
	<path class="st9" d="M828.7,643.4c-0.5,0.7-1.1,1.3-1.9,1.6s-1.6,0.6-2.6,0.6c-1.9,0-3.4-0.7-4.5-2.1c-1.1-1.4-1.6-3.2-1.6-5.5
		v-0.3c0-2.5,0.5-4.6,1.6-6.2s2.6-2.3,4.6-2.3c0.9,0,1.8,0.2,2.5,0.5c0.7,0.3,1.3,0.8,1.8,1.5v-6.5l-2.4-0.4v-1.9h2.4h2.9v20.6
		l2.4,0.4v1.8h-4.9L828.7,643.4z M820.9,638c0,1.6,0.3,2.9,1,3.8s1.7,1.5,3,1.5c0.9,0,1.6-0.2,2.2-0.6s1.1-0.9,1.5-1.7v-7.4
		c-0.4-0.7-0.9-1.2-1.5-1.6s-1.3-0.6-2.1-0.6c-1.4,0-2.4,0.6-3.1,1.7s-1,2.6-1,4.5V638z"/>
	<path class="st9" d="M848.1,634.5h-2.2l-0.5-1.9c-0.4-0.3-0.8-0.6-1.3-0.8c-0.5-0.2-1.1-0.3-1.8-0.3c-1,0-1.8,0.2-2.3,0.7
		s-0.7,1-0.7,1.6c0,0.6,0.2,1.1,0.7,1.5s1.3,0.7,2.7,1c2,0.4,3.5,1,4.5,1.8s1.5,1.7,1.5,3c0,1.4-0.6,2.5-1.7,3.4s-2.6,1.3-4.5,1.3
		c-1.2,0-2.3-0.1-3.2-0.4c-1-0.3-1.8-0.7-2.6-1.2l0-3.6h2.2l0.5,2.1c0.3,0.3,0.8,0.5,1.4,0.7s1.2,0.2,1.8,0.2c1,0,1.8-0.2,2.4-0.6
		s0.9-1,0.9-1.6c0-0.6-0.2-1.2-0.7-1.6s-1.4-0.8-2.7-1.1c-1.9-0.4-3.4-1-4.4-1.7s-1.5-1.7-1.5-2.9c0-1.3,0.5-2.4,1.6-3.3
		s2.5-1.4,4.3-1.4c1.2,0,2.3,0.2,3.2,0.5s1.8,0.7,2.4,1.3L848.1,634.5z"/>
	<path class="st9" d="M858.8,637.2c0-2.3,0.6-4.3,1.9-5.8c1.3-1.5,3-2.3,5.2-2.3c2.2,0,3.9,0.8,5.2,2.3s1.9,3.4,1.9,5.8v0.3
		c0,2.4-0.6,4.3-1.9,5.8s-3,2.3-5.2,2.3c-2.2,0-3.9-0.8-5.2-2.3c-1.3-1.5-1.9-3.4-1.9-5.8V637.2z M861.6,637.6
		c0,1.7,0.4,3.1,1.1,4.2s1.8,1.6,3.2,1.6c1.4,0,2.4-0.5,3.1-1.6s1.1-2.5,1.1-4.2v-0.3c0-1.7-0.4-3-1.1-4.1s-1.8-1.7-3.1-1.7
		s-2.4,0.6-3.1,1.7s-1.1,2.5-1.1,4.1V637.6z"/>
	<path class="st9" d="M875.1,643.5l2.4-0.4v-11.3l-2.4-0.4v-1.9h5l0.2,2.4c0.5-0.8,1.2-1.5,2-2c0.8-0.5,1.7-0.7,2.7-0.7
		c1.7,0,3,0.5,4,1.5s1.4,2.5,1.4,4.6v7.7l2.4,0.4v1.8h-7.7v-1.8l2.4-0.4v-7.7c0-1.4-0.3-2.4-0.8-3s-1.4-0.9-2.5-0.9
		c-0.8,0-1.6,0.2-2.2,0.6s-1.2,0.9-1.5,1.6v9.3l2.4,0.4v1.8h-7.7V643.5z"/>
</g>
<g class="st8">
	<path class="st9" d="M730,679.5l2.4-0.4v-11.3l-2.4-0.4v-1.9h5l0.2,2.4c0.5-0.8,1.2-1.5,2-2c0.8-0.5,1.7-0.7,2.7-0.7
		c1.7,0,3,0.5,4,1.5s1.4,2.5,1.4,4.6v7.7l2.4,0.4v1.8H740v-1.8l2.4-0.4v-7.7c0-1.4-0.3-2.4-0.8-3s-1.4-0.9-2.5-0.9
		c-0.8,0-1.6,0.2-2.2,0.6s-1.2,0.9-1.5,1.6v9.3l2.4,0.4v1.8H730V679.5z"/>
</g>
<g class="st8">
	<path class="st9" d="M749.6,673.2c0-2.3,0.6-4.3,1.9-5.8c1.3-1.5,3-2.3,5.2-2.3c2.2,0,3.9,0.8,5.2,2.3s1.9,3.4,1.9,5.8v0.3
		c0,2.4-0.6,4.3-1.9,5.8s-3,2.3-5.2,2.3c-2.2,0-3.9-0.8-5.2-2.3c-1.3-1.5-1.9-3.4-1.9-5.8V673.2z M752.5,673.6
		c0,1.7,0.4,3.1,1.1,4.2s1.8,1.6,3.2,1.6c1.4,0,2.4-0.5,3.1-1.6s1.1-2.5,1.1-4.2v-0.3c0-1.7-0.4-3-1.1-4.1s-1.8-1.7-3.1-1.7
		s-2.4,0.6-3.1,1.7s-1.1,2.5-1.1,4.1V673.6z"/>
	<path class="st9" d="M777.1,679.4c-0.5,0.7-1.1,1.3-1.9,1.6s-1.6,0.6-2.6,0.6c-1.9,0-3.4-0.7-4.5-2.1c-1.1-1.4-1.6-3.2-1.6-5.5
		v-0.3c0-2.5,0.5-4.6,1.6-6.2s2.6-2.3,4.6-2.3c0.9,0,1.8,0.2,2.5,0.5c0.7,0.3,1.3,0.8,1.8,1.5v-6.5l-2.4-0.4v-1.9h2.4h2.9v20.6
		l2.4,0.4v1.8h-4.9L777.1,679.4z M769.3,674c0,1.6,0.3,2.9,1,3.8s1.7,1.5,3,1.5c0.9,0,1.6-0.2,2.2-0.6s1.1-0.9,1.5-1.7v-7.4
		c-0.4-0.7-0.9-1.2-1.5-1.6s-1.3-0.6-2.1-0.6c-1.4,0-2.4,0.6-3.1,1.7s-1,2.6-1,4.5V674z"/>
	<path class="st9" d="M791.6,681.6c-2.2,0-4-0.7-5.3-2.2s-2-3.4-2-5.7v-0.6c0-2.3,0.7-4.1,2-5.6c1.3-1.5,2.9-2.2,4.8-2.2
		c2.1,0,3.7,0.6,4.8,1.9s1.6,3,1.6,5.2v1.8h-10.3l0,0.1c0,1.5,0.4,2.8,1.2,3.8c0.7,1,1.8,1.5,3.1,1.5c1,0,1.8-0.1,2.6-0.4
		c0.7-0.3,1.4-0.7,1.9-1.2l1.1,1.9c-0.6,0.5-1.3,1-2.2,1.4C794.1,681.4,792.9,681.6,791.6,681.6z M791.2,667.4c-1,0-1.8,0.4-2.5,1.2
		s-1.1,1.8-1.3,3.1l0,0.1h7.3v-0.4c0-1.1-0.3-2.1-0.9-2.8S792.4,667.4,791.2,667.4z"/>
	<path class="st9" d="M803.8,680.3c0,1-0.2,2-0.7,3s-1.1,1.9-1.9,2.6l-1.6-1.1c0.5-0.7,0.8-1.4,1-2.2s0.4-1.5,0.4-2.3v-2.2h2.9
		V680.3z"/>
	<path class="st9" d="M826,670.5h-2.2l-0.5-1.9c-0.4-0.3-0.8-0.6-1.3-0.8c-0.5-0.2-1.1-0.3-1.8-0.3c-1,0-1.8,0.2-2.3,0.7
		s-0.7,1-0.7,1.6c0,0.6,0.2,1.1,0.7,1.5s1.3,0.7,2.7,1c2,0.4,3.5,1,4.5,1.8s1.5,1.7,1.5,3c0,1.4-0.6,2.5-1.7,3.4s-2.6,1.3-4.5,1.3
		c-1.2,0-2.3-0.1-3.2-0.4c-1-0.3-1.8-0.7-2.6-1.2l0-3.6h2.2l0.5,2.1c0.3,0.3,0.8,0.5,1.4,0.7s1.2,0.2,1.8,0.2c1,0,1.8-0.2,2.4-0.6
		s0.9-1,0.9-1.6c0-0.6-0.2-1.2-0.7-1.6s-1.4-0.8-2.7-1.1c-1.9-0.4-3.4-1-4.4-1.7s-1.5-1.7-1.5-2.9c0-1.3,0.5-2.4,1.6-3.3
		s2.5-1.4,4.3-1.4c1.2,0,2.3,0.2,3.2,0.5s1.8,0.7,2.4,1.3L826,670.5z"/>
	<path class="st9" d="M836.3,679.4c1,0,1.8-0.3,2.5-0.9s1.1-1.3,1.1-2.2h2.6l0,0.1c0,1.4-0.6,2.6-1.8,3.6s-2.7,1.6-4.4,1.6
		c-2.3,0-4.1-0.8-5.3-2.3s-1.8-3.4-1.8-5.7v-0.6c0-2.3,0.6-4.1,1.8-5.6c1.2-1.5,3-2.3,5.3-2.3c1.3,0,2.4,0.2,3.4,0.6s1.8,1,2.5,1.7
		l0.1,3.5h-2.3l-0.6-2.5c-0.3-0.3-0.8-0.6-1.3-0.8s-1.1-0.3-1.8-0.3c-1.5,0-2.6,0.5-3.2,1.6s-1,2.4-1,4v0.6c0,1.6,0.3,3,1,4.1
		S834.8,679.4,836.3,679.4z"/>
	<path class="st9" d="M845.4,673.2c0-2.3,0.6-4.3,1.9-5.8c1.3-1.5,3-2.3,5.2-2.3c2.2,0,3.9,0.8,5.2,2.3s1.9,3.4,1.9,5.8v0.3
		c0,2.4-0.6,4.3-1.9,5.8s-3,2.3-5.2,2.3c-2.2,0-3.9-0.8-5.2-2.3c-1.3-1.5-1.9-3.4-1.9-5.8V673.2z M848.3,673.6
		c0,1.7,0.4,3.1,1.1,4.2s1.8,1.6,3.2,1.6c1.4,0,2.4-0.5,3.1-1.6s1.1-2.5,1.1-4.2v-0.3c0-1.7-0.4-3-1.1-4.1s-1.8-1.7-3.1-1.7
		s-2.4,0.6-3.1,1.7s-1.1,2.5-1.1,4.1V673.6z"/>
</g>
<g class="st8">
	<path class="st9" d="M861.8,679.5l2.4-0.4v-11.3l-2.4-0.4v-1.9h5l0.2,2.4c0.5-0.8,1.2-1.5,2-2c0.8-0.5,1.7-0.7,2.7-0.7
		c1.7,0,3,0.5,4,1.5s1.4,2.5,1.4,4.6v7.7l2.4,0.4v1.8h-7.7v-1.8l2.4-0.4v-7.7c0-1.4-0.3-2.4-0.8-3s-1.4-0.9-2.5-0.9
		c-0.8,0-1.6,0.2-2.2,0.6s-1.2,0.9-1.5,1.6v9.3l2.4,0.4v1.8h-7.7V679.5z"/>
</g>
<g class="st8">
	<path class="st9" d="M888.6,681.6c-2.2,0-4-0.7-5.3-2.2s-2-3.4-2-5.7v-0.6c0-2.3,0.7-4.1,2-5.6c1.3-1.5,2.9-2.2,4.8-2.2
		c2.1,0,3.7,0.6,4.8,1.9s1.6,3,1.6,5.2v1.8h-10.3l0,0.1c0,1.5,0.4,2.8,1.2,3.8c0.7,1,1.8,1.5,3.1,1.5c1,0,1.8-0.1,2.6-0.4
		c0.7-0.3,1.4-0.7,1.9-1.2l1.1,1.9c-0.6,0.5-1.3,1-2.2,1.4C891,681.4,889.9,681.6,888.6,681.6z M888.2,667.4c-1,0-1.8,0.4-2.5,1.2
		s-1.1,1.8-1.3,3.1l0,0.1h7.3v-0.4c0-1.1-0.3-2.1-0.9-2.8S889.3,667.4,888.2,667.4z"/>
	<path class="st9" d="M900.8,680.3c0,1-0.2,2-0.7,3s-1.1,1.9-1.9,2.6l-1.6-1.1c0.5-0.7,0.8-1.4,1-2.2s0.4-1.5,0.4-2.3v-2.2h2.9
		V680.3z"/>
	<path class="st9" d="M915.8,682.6c0,1.6-0.4,2.9-1.3,3.8c-0.8,0.9-2,1.3-3.5,1.3c-0.3,0-0.6,0-0.8-0.1c-0.3,0-0.5-0.1-0.8-0.2
		l0.2-2.3c0.1,0,0.3,0.1,0.6,0.1c0.3,0,0.5,0.1,0.6,0.1c0.6,0,1.1-0.2,1.5-0.6s0.6-1.1,0.6-2.1v-14.9l-2.4-0.4v-1.9h5.3V682.6z
		 M915.7,661.4h-2.9v-2.9h2.9V661.4z"/>
	<path class="st9" d="M931.3,670.5h-2.2l-0.5-1.9c-0.4-0.3-0.8-0.6-1.3-0.8c-0.5-0.2-1.1-0.3-1.8-0.3c-1,0-1.8,0.2-2.3,0.7
		s-0.7,1-0.7,1.6c0,0.6,0.2,1.1,0.7,1.5s1.3,0.7,2.7,1c2,0.4,3.5,1,4.5,1.8s1.5,1.7,1.5,3c0,1.4-0.6,2.5-1.7,3.4s-2.6,1.3-4.5,1.3
		c-1.2,0-2.3-0.1-3.2-0.4c-1-0.3-1.8-0.7-2.6-1.2l0-3.6h2.2l0.5,2.1c0.3,0.3,0.8,0.5,1.4,0.7s1.2,0.2,1.8,0.2c1,0,1.8-0.2,2.4-0.6
		s0.9-1,0.9-1.6c0-0.6-0.2-1.2-0.7-1.6s-1.4-0.8-2.7-1.1c-1.9-0.4-3.4-1-4.4-1.7s-1.5-1.7-1.5-2.9c0-1.3,0.5-2.4,1.6-3.3
		s2.5-1.4,4.3-1.4c1.2,0,2.3,0.2,3.2,0.5s1.8,0.7,2.4,1.3L931.3,670.5z"/>
	<path class="st9" d="M935,679.5l3.3-0.4v-16l-3.4,0.1v-1.8l6.2-1.3v19.1l3.3,0.4v1.8H935V679.5z"/>
	<path class="st9" d="M950.2,680.3c0,1-0.2,2-0.7,3s-1.1,1.9-1.9,2.6l-1.6-1.1c0.5-0.7,0.8-1.4,1-2.2s0.4-1.5,0.4-2.3v-2.2h2.9
		V680.3z"/>
	<path class="st9" d="M965.2,682.6c0,1.6-0.4,2.9-1.3,3.8c-0.8,0.9-2,1.3-3.5,1.3c-0.3,0-0.6,0-0.8-0.1c-0.3,0-0.5-0.1-0.8-0.2
		l0.2-2.3c0.1,0,0.3,0.1,0.6,0.1c0.3,0,0.5,0.1,0.6,0.1c0.6,0,1.1-0.2,1.5-0.6s0.6-1.1,0.6-2.1v-14.9l-2.4-0.4v-1.9h5.3V682.6z
		 M965.1,661.4h-2.9v-2.9h2.9V661.4z"/>
	<path class="st9" d="M980.7,670.5h-2.2l-0.5-1.9c-0.4-0.3-0.8-0.6-1.3-0.8c-0.5-0.2-1.1-0.3-1.8-0.3c-1,0-1.8,0.2-2.3,0.7
		s-0.7,1-0.7,1.6c0,0.6,0.2,1.1,0.7,1.5s1.3,0.7,2.7,1c2,0.4,3.5,1,4.5,1.8s1.5,1.7,1.5,3c0,1.4-0.6,2.5-1.7,3.4s-2.6,1.3-4.5,1.3
		c-1.2,0-2.3-0.1-3.2-0.4c-1-0.3-1.8-0.7-2.6-1.2l0-3.6h2.2l0.5,2.1c0.3,0.3,0.8,0.5,1.4,0.7s1.2,0.2,1.8,0.2c1,0,1.8-0.2,2.4-0.6
		s0.9-1,0.9-1.6c0-0.6-0.2-1.2-0.7-1.6s-1.4-0.8-2.7-1.1c-1.9-0.4-3.4-1-4.4-1.7s-1.5-1.7-1.5-2.9c0-1.3,0.5-2.4,1.6-3.3
		s2.5-1.4,4.3-1.4c1.2,0,2.3,0.2,3.2,0.5s1.8,0.7,2.4,1.3L980.7,670.5z"/>
	<path class="st9" d="M984,681.3v-2l7-7.8c1.3-1.4,2.1-2.5,2.5-3.3s0.7-1.7,0.7-2.5c0-1.1-0.3-2-0.9-2.7s-1.5-1.1-2.5-1.1
		c-1.5,0-2.6,0.4-3.3,1.1s-1,1.8-1,3.2h-2.8l0-0.1c0-1.8,0.6-3.4,1.8-4.6s3-1.9,5.3-1.9c1.9,0,3.5,0.6,4.6,1.7
		c1.1,1.1,1.7,2.5,1.7,4.3c0,1.2-0.3,2.3-1,3.5s-1.7,2.4-2.9,3.8l-5.6,6.1l0,0.1h7.6l0.2-2.4h2.4v4.7H984z"/>
</g>
<path class="st12" d="M261.9,101.1h-69.4c-2,0-3.6,1.6-3.6,3.5c0,0,0,0,0,0.1V202c0,2,1.5,3.6,3.5,3.6c0,0,0,0,0.1,0h90.9
	c2,0,3.6-1.5,3.6-3.5c0,0,0-0.1,0-0.1v-77.5"/>
<polygon class="st12" points="287,124.5 261.9,124.5 261.9,101.1 "/>
<g class="st8">
	<path class="st9" d="M226.9,165.7c0,1.6-0.4,2.8-1.3,3.7c-0.9,0.9-2,1.3-3.6,1.3c-0.3,0-0.7,0-0.9-0.1s-0.6-0.1-0.9-0.2l0.2-2.8
		c0.2,0.1,0.4,0.1,0.6,0.1s0.4,0,0.6,0c0.5,0,0.9-0.2,1.2-0.5c0.3-0.4,0.4-0.9,0.4-1.6v-11.6l-2-0.4v-2.2h5.7V165.7z M226.8,148.1
		h-3.7v-2.8h3.7V148.1z"/>
	<path class="st9" d="M240.2,156.2h-2.5l-0.4-1.7c-0.3-0.2-0.6-0.4-1-0.5s-0.8-0.2-1.3-0.2c-0.7,0-1.2,0.1-1.5,0.4
		c-0.4,0.3-0.6,0.7-0.6,1.1c0,0.4,0.2,0.8,0.5,1c0.4,0.3,1.1,0.5,2.2,0.7c1.7,0.3,3,0.8,3.8,1.5c0.8,0.7,1.2,1.6,1.2,2.7
		c0,1.2-0.5,2.2-1.6,3c-1.1,0.8-2.5,1.2-4.2,1.2c-1.1,0-2-0.2-2.9-0.5c-0.9-0.3-1.7-0.8-2.4-1.3l0-3.1h2.6l0.5,1.8
		c0.2,0.2,0.5,0.3,0.9,0.4c0.4,0.1,0.8,0.1,1.2,0.1c0.8,0,1.3-0.1,1.7-0.4s0.6-0.6,0.6-1.1c0-0.4-0.2-0.8-0.6-1.1s-1.1-0.6-2.2-0.8
		c-1.6-0.3-2.8-0.8-3.7-1.5c-0.8-0.6-1.2-1.5-1.2-2.6c0-1.2,0.5-2.1,1.4-3c0.9-0.8,2.3-1.3,4-1.3c1.1,0,2.1,0.1,3,0.4
		s1.7,0.7,2.2,1.1L240.2,156.2z"/>
	<path class="st9" d="M242.5,165.2v-2.4l6-6.4c0.9-1,1.5-1.8,1.8-2.5c0.4-0.7,0.5-1.3,0.5-1.9c0-0.8-0.2-1.4-0.6-1.9
		c-0.4-0.5-1-0.7-1.8-0.7c-0.9,0-1.5,0.3-1.9,0.9c-0.4,0.6-0.7,1.4-0.7,2.3h-3.6l0-0.1c0-1.7,0.5-3.1,1.6-4.2
		c1.1-1.2,2.7-1.7,4.6-1.7c1.9,0,3.4,0.5,4.5,1.5s1.6,2.3,1.6,4c0,1.1-0.3,2.1-0.9,3.1s-1.6,2.2-3.1,3.7l-3.3,3.6l0,0.1h4.8l0.2-1.8
		h2.8v4.7H242.5z"/>
</g>
<path class="st13" d="M60.5,545.4v-484c0-4.4,3.6-8,8-8h284c4.4,0,8,3.6,8,8v484c0,4.4-3.6,8-8,8h-284
	C64.1,553.4,60.5,549.8,60.5,545.4z"/>
<path class="st12" d="M262,240.1h-69.4c-2,0-3.6,1.5-3.6,3.5c0,0,0,0,0,0.1l-0.1,97.4c0,2,1.5,3.6,3.5,3.6c0,0,0.1,0,0.1,0l90.9,0.1
	c2,0,3.6-1.5,3.6-3.5c0-0.1,0-0.1,0-0.2v-77.5"/>
<polygon class="st12" points="287,263.5 262,263.5 262,240.1 "/>
<g class="st8">
	<path class="st9" d="M228.3,304.6c0,1.6-0.4,2.8-1.3,3.7c-0.9,0.9-2,1.3-3.6,1.3c-0.3,0-0.7,0-0.9-0.1c-0.3,0-0.6-0.1-0.9-0.2
		l0.2-2.8c0.2,0.1,0.4,0.1,0.6,0.1c0.2,0,0.4,0,0.6,0c0.5,0,0.9-0.2,1.2-0.5c0.3-0.4,0.4-0.9,0.4-1.6l0-11.6l-2-0.4l0-2.2l5.7,0
		L228.3,304.6z M228.2,287l-3.7,0l0-2.8l3.7,0L228.2,287z"/>
	<path class="st9" d="M241.6,295.1l-2.5,0l-0.4-1.7c-0.3-0.2-0.6-0.4-1-0.5c-0.4-0.1-0.8-0.2-1.3-0.2c-0.7,0-1.2,0.1-1.5,0.4
		c-0.4,0.3-0.6,0.7-0.6,1.1c0,0.4,0.2,0.8,0.5,1s1.1,0.5,2.2,0.7c1.7,0.3,3,0.8,3.8,1.5s1.2,1.6,1.2,2.7c0,1.2-0.5,2.2-1.6,3
		c-1.1,0.8-2.5,1.2-4.2,1.2c-1.1,0-2-0.2-2.9-0.5c-0.9-0.3-1.7-0.8-2.4-1.3l0-3.1l2.6,0l0.5,1.8c0.2,0.2,0.5,0.3,0.9,0.4
		c0.4,0.1,0.8,0.1,1.2,0.1c0.8,0,1.3-0.1,1.7-0.4c0.4-0.3,0.6-0.6,0.6-1.1c0-0.4-0.2-0.8-0.6-1.1c-0.4-0.3-1.1-0.6-2.2-0.8
		c-1.6-0.3-2.8-0.8-3.7-1.5c-0.8-0.6-1.2-1.5-1.2-2.6c0-1.2,0.5-2.1,1.4-3c0.9-0.8,2.3-1.2,4.1-1.2c1.1,0,2.1,0.1,3,0.4
		c1,0.3,1.7,0.7,2.2,1.1L241.6,295.1z"/>
	<path class="st9" d="M243.8,301.9l3.1-0.4l0-12.5l-3.2,0l0-2.1l6.9-1.2l0,15.9l3.1,0.4l0,2.2l-9.9,0L243.8,301.9z"/>
</g>
<path class="st1" d="M291,387v85c0,4.4-3.6,8-8,8h-87c-4.4,0-8-3.6-8-8v-85c0-4.4,3.6-8,8-8h87C287.4,379,291,382.6,291,387z"/>
<g class="st8">
	<path class="st14" d="M208.8,433.8l1.8-0.4l0-8.5l-2-0.4l0-2.2l5.4,0l0.2,2c0.5-0.7,1-1.2,1.7-1.6c0.7-0.4,1.4-0.6,2.2-0.6
		c1.4,0,2.5,0.4,3.2,1.3c0.8,0.9,1.2,2.2,1.2,4.1l0,6l1.8,0.4l0,2.2l-7.1,0l0-2.2l1.6-0.4l0-6c0-0.9-0.2-1.6-0.6-2
		c-0.4-0.4-0.9-0.6-1.7-0.6c-0.5,0-0.9,0.1-1.3,0.3c-0.4,0.2-0.7,0.5-1,0.8l0,7.4l1.5,0.4l0,2.2l-7,0L208.8,433.8z"/>
</g>
<g class="st8">
	<path class="st14" d="M225.3,429.1c0-2,0.6-3.7,1.7-5c1.1-1.3,2.7-2,4.8-2c2,0,3.6,0.7,4.8,2c1.1,1.3,1.7,3,1.7,5v0.3
		c0,2.1-0.6,3.7-1.7,5c-1.1,1.3-2.7,1.9-4.7,1.9c-2,0-3.6-0.7-4.8-2c-1.1-1.3-1.7-3-1.7-5V429.1z M229.1,429.3c0,1.3,0.2,2.3,0.7,3
		c0.4,0.8,1.1,1.1,2.1,1.1c1,0,1.7-0.4,2.1-1.1c0.4-0.8,0.7-1.8,0.7-3v-0.3c0-1.2-0.2-2.2-0.7-3c-0.4-0.8-1.2-1.2-2.1-1.2
		c-1,0-1.7,0.4-2.1,1.2c-0.4,0.8-0.7,1.8-0.7,3V429.3z"/>
	<path class="st14" d="M248.9,434.4c-0.4,0.6-0.9,1.1-1.5,1.4c-0.6,0.3-1.3,0.5-2,0.5c-1.7,0-3-0.6-3.9-1.9
		c-0.9-1.2-1.4-2.9-1.4-4.9v-0.3c0-2.2,0.5-3.9,1.4-5.2c0.9-1.3,2.3-2,4-2c0.7,0,1.3,0.2,1.9,0.5c0.5,0.3,1,0.7,1.4,1.3l0-4.9
		l-2-0.4l0-2.2l2,0l3.7,0l0,17.2l1.8,0.4l0,2.2l-5,0L248.9,434.4z M243.7,429.6c0,1.2,0.2,2.1,0.6,2.8c0.4,0.7,1.1,1,2,1
		c0.5,0,1-0.1,1.4-0.3c0.4-0.2,0.7-0.5,1-1l0-5.8c-0.3-0.4-0.6-0.8-1-1c-0.4-0.2-0.9-0.4-1.4-0.4c-0.9,0-1.6,0.4-2,1.2
		c-0.4,0.8-0.6,1.9-0.6,3.1V429.6z"/>
	<path class="st14" d="M261.9,436.4c-2,0-3.6-0.6-4.7-1.9c-1.2-1.3-1.8-2.9-1.8-4.8v-0.5c0-2,0.6-3.7,1.7-5c1.1-1.3,2.6-2,4.5-2
		c1.9,0,3.3,0.6,4.3,1.7c1,1.1,1.5,2.6,1.5,4.5l0,2l-8.2,0l0,0.1c0.1,0.9,0.4,1.7,0.9,2.2c0.5,0.6,1.3,0.9,2.2,0.9
		c0.8,0,1.5-0.1,2-0.2c0.5-0.2,1.1-0.4,1.8-0.8l1,2.3c-0.6,0.4-1.3,0.8-2.2,1.1C264,436.2,263,436.4,261.9,436.4z M261.6,425
		c-0.7,0-1.2,0.3-1.6,0.8c-0.4,0.5-0.6,1.2-0.7,2.1l0,0.1l4.5,0v-0.3c0-0.8-0.2-1.4-0.6-1.9C262.9,425.2,262.3,425,261.6,425z"/>
</g>
<path class="st15" d="M934.9,101.1h-69.4c-2,0-3.6,1.6-3.6,3.5c0,0,0,0,0,0.1V202c0,2,1.5,3.6,3.5,3.6c0,0,0,0,0.1,0h90.9
	c2,0,3.6-1.5,3.6-3.5c0,0,0-0.1,0-0.1v-77.5"/>
<polygon class="st15" points="960,124.5 934.9,124.5 934.9,101.1 "/>
<g class="st8">
	<path class="st9" d="M899.9,165.7c0,1.6-0.4,2.8-1.3,3.7c-0.9,0.9-2,1.3-3.6,1.3c-0.3,0-0.7,0-0.9-0.1c-0.3,0-0.6-0.1-0.9-0.2
		l0.2-2.8c0.2,0.1,0.4,0.1,0.6,0.1c0.2,0,0.4,0,0.6,0c0.5,0,0.9-0.2,1.2-0.5c0.3-0.4,0.4-0.9,0.4-1.6v-11.6l-2-0.4v-2.2h5.7V165.7z
		 M899.8,148.1h-3.7v-2.8h3.7V148.1z"/>
	<path class="st9" d="M913.2,156.2h-2.5l-0.4-1.7c-0.3-0.2-0.6-0.4-1-0.5c-0.4-0.1-0.8-0.2-1.3-0.2c-0.7,0-1.2,0.1-1.5,0.4
		c-0.4,0.3-0.6,0.7-0.6,1.1c0,0.4,0.2,0.8,0.5,1c0.4,0.3,1.1,0.5,2.2,0.7c1.7,0.3,3,0.8,3.8,1.5c0.8,0.7,1.2,1.6,1.2,2.7
		c0,1.2-0.5,2.2-1.6,3c-1.1,0.8-2.5,1.2-4.2,1.2c-1.1,0-2-0.2-2.9-0.5c-0.9-0.3-1.7-0.8-2.4-1.3l0-3.1h2.6l0.5,1.8
		c0.2,0.2,0.5,0.3,0.9,0.4c0.4,0.1,0.8,0.1,1.2,0.1c0.8,0,1.3-0.1,1.7-0.4s0.6-0.6,0.6-1.1c0-0.4-0.2-0.8-0.6-1.1
		c-0.4-0.3-1.1-0.6-2.2-0.8c-1.6-0.3-2.8-0.8-3.7-1.5c-0.8-0.6-1.2-1.5-1.2-2.6c0-1.2,0.5-2.1,1.4-3c0.9-0.8,2.3-1.3,4-1.3
		c1.1,0,2.1,0.1,3,0.4s1.7,0.7,2.2,1.1L913.2,156.2z"/>
	<path class="st9" d="M915.5,165.2v-2.4l6-6.4c0.9-1,1.5-1.8,1.8-2.5c0.4-0.7,0.5-1.3,0.5-1.9c0-0.8-0.2-1.4-0.6-1.9
		c-0.4-0.5-1-0.7-1.8-0.7c-0.9,0-1.5,0.3-1.9,0.9c-0.4,0.6-0.7,1.4-0.7,2.3h-3.6l0-0.1c0-1.7,0.5-3.1,1.6-4.2
		c1.1-1.2,2.7-1.7,4.6-1.7c1.9,0,3.4,0.5,4.5,1.5s1.6,2.3,1.6,4c0,1.1-0.3,2.1-0.9,3.1c-0.6,0.9-1.6,2.2-3.1,3.7l-3.3,3.6l0,0.1h4.8
		l0.2-1.8h2.8v4.7H915.5z"/>
</g>
<path class="st15" d="M935,240.1h-69.4c-2,0-3.6,1.5-3.6,3.5c0,0,0,0,0,0.1l-0.1,97.4c0,2,1.5,3.6,3.5,3.6c0,0,0.1,0,0.1,0l90.9,0.1
	c2,0,3.6-1.5,3.6-3.5c0-0.1,0-0.1,0-0.2v-77.5"/>
<polygon class="st15" points="960,263.5 935,263.5 935,240.1 "/>
<g class="st8">
	<path class="st9" d="M901.3,304.6c0,1.6-0.4,2.8-1.3,3.7c-0.9,0.9-2,1.3-3.6,1.3c-0.3,0-0.7,0-0.9-0.1c-0.3,0-0.6-0.1-0.9-0.2
		l0.2-2.8c0.2,0.1,0.4,0.1,0.6,0.1c0.2,0,0.4,0,0.6,0c0.5,0,0.9-0.2,1.2-0.5c0.3-0.4,0.4-0.9,0.4-1.6l0-11.6l-2-0.4l0-2.2l5.7,0
		L901.3,304.6z M901.2,287l-3.7,0l0-2.8l3.7,0L901.2,287z"/>
	<path class="st9" d="M914.6,295.1l-2.5,0l-0.4-1.7c-0.3-0.2-0.6-0.4-1-0.5c-0.4-0.1-0.8-0.2-1.3-0.2c-0.7,0-1.2,0.1-1.5,0.4
		c-0.4,0.3-0.6,0.7-0.6,1.1c0,0.4,0.2,0.8,0.5,1c0.4,0.3,1.1,0.5,2.2,0.7c1.7,0.3,3,0.8,3.8,1.5s1.2,1.6,1.2,2.7
		c0,1.2-0.5,2.2-1.6,3c-1.1,0.8-2.5,1.2-4.2,1.2c-1.1,0-2-0.2-2.9-0.5c-0.9-0.3-1.7-0.8-2.4-1.3l0-3.1l2.6,0l0.5,1.8
		c0.2,0.2,0.5,0.3,0.9,0.4c0.4,0.1,0.8,0.1,1.2,0.1c0.8,0,1.3-0.1,1.7-0.4c0.4-0.3,0.6-0.6,0.6-1.1c0-0.4-0.2-0.8-0.6-1.1
		c-0.4-0.3-1.1-0.6-2.2-0.8c-1.6-0.3-2.8-0.8-3.7-1.5c-0.8-0.6-1.2-1.5-1.2-2.6c0-1.2,0.5-2.1,1.4-3c0.9-0.8,2.3-1.2,4.1-1.2
		c1.1,0,2.1,0.1,3,0.4c1,0.3,1.7,0.7,2.2,1.1L914.6,295.1z"/>
	<path class="st9" d="M916.8,301.9l3.1-0.4l0-12.5l-3.2,0l0-2.1l6.9-1.2l0,15.9l3.1,0.4l0,2.2l-9.9,0L916.8,301.9z"/>
</g>
<g class="st8">
	<path class="st14" d="M879.2,516.8l1.8-0.4l0-8.5l-2-0.4l0-2.2l5.4,0l0.2,2c0.5-0.7,1-1.2,1.7-1.6c0.7-0.4,1.4-0.6,2.2-0.6
		c1.4,0,2.5,0.4,3.2,1.3c0.8,0.9,1.2,2.2,1.2,4.1l0,6l1.8,0.4l0,2.2l-7.1,0l0-2.2l1.6-0.4l0-6c0-0.9-0.2-1.6-0.6-2
		c-0.4-0.4-0.9-0.6-1.7-0.6c-0.5,0-0.9,0.1-1.3,0.3c-0.4,0.2-0.7,0.5-1,0.8l0,7.4l1.5,0.4l0,2.2l-7,0L879.2,516.8z"/>
</g>
<g class="st8">
	<path class="st14" d="M895.8,512.1c0-2,0.6-3.7,1.7-5c1.1-1.3,2.7-2,4.8-2c2,0,3.6,0.7,4.8,2c1.1,1.3,1.7,3,1.7,5v0.3
		c0,2.1-0.6,3.7-1.7,5c-1.1,1.3-2.7,1.9-4.7,1.9c-2,0-3.6-0.7-4.8-2c-1.1-1.3-1.7-3-1.7-5V512.1z M899.5,512.3c0,1.3,0.2,2.3,0.7,3
		c0.4,0.8,1.2,1.1,2.1,1.1c1,0,1.7-0.4,2.1-1.1c0.4-0.8,0.7-1.8,0.7-3v-0.3c0-1.2-0.2-2.2-0.7-3c-0.4-0.8-1.2-1.2-2.1-1.2
		c-1,0-1.7,0.4-2.1,1.2c-0.4,0.8-0.7,1.8-0.7,3V512.3z"/>
	<path class="st14" d="M919.3,517.4c-0.4,0.6-0.9,1.1-1.5,1.4c-0.6,0.3-1.3,0.5-2,0.5c-1.7,0-3-0.6-3.9-1.9s-1.4-2.9-1.4-4.9v-0.3
		c0-2.2,0.5-3.9,1.4-5.2s2.3-2,4-2c0.7,0,1.3,0.2,1.9,0.5s1,0.7,1.4,1.3l0-4.9l-2-0.4l0-2.2l2,0l3.7,0l0,17.2l1.8,0.4l0,2.2l-5,0
		L919.3,517.4z M914.2,512.6c0,1.2,0.2,2.1,0.6,2.8c0.4,0.7,1.1,1,2,1c0.5,0,1-0.1,1.4-0.3c0.4-0.2,0.7-0.5,1-1l0-5.8
		c-0.3-0.4-0.6-0.8-1-1c-0.4-0.2-0.9-0.4-1.4-0.4c-0.9,0-1.6,0.4-2,1.2c-0.4,0.8-0.6,1.9-0.6,3.1V512.6z"/>
</g>
<g class="st8">
	<path class="st14" d="M932.4,519.4c-2,0-3.6-0.6-4.7-1.9c-1.2-1.3-1.8-2.9-1.8-4.8v-0.5c0-2,0.6-3.7,1.7-5c1.1-1.3,2.6-2,4.5-2
		c1.9,0,3.3,0.6,4.3,1.7s1.5,2.6,1.5,4.5l0,2l-8.2,0l0,0.1c0.1,0.9,0.4,1.7,0.9,2.2s1.3,0.9,2.2,0.9c0.8,0,1.5-0.1,2-0.2
		c0.5-0.2,1.1-0.4,1.8-0.8l1,2.3c-0.6,0.4-1.3,0.8-2.2,1.1C934.5,519.2,933.5,519.4,932.4,519.4z M932,508c-0.7,0-1.2,0.3-1.6,0.8
		s-0.6,1.2-0.7,2.1l0,0.1l4.5,0v-0.3c0-0.8-0.2-1.4-0.6-1.9C933.3,508.2,932.8,508,932,508z"/>
</g>
<g class="st8">
	<path class="st14" d="M942.8,501.7c0,0.8-0.2,1.7-0.7,2.7c-0.4,0.9-1,1.7-1.6,2.3l-1.8-1c0.3-0.6,0.6-1.2,0.8-1.8
		c0.2-0.6,0.3-1.3,0.3-2.1l0-2.4l3.1,0L942.8,501.7z"/>
</g>
<g class="st8">
	<path class="st9" d="M887.3,415.7l-2.5,0l-0.4-1.7c-0.3-0.2-0.6-0.4-1-0.5c-0.4-0.1-0.8-0.2-1.3-0.2c-0.7,0-1.2,0.1-1.5,0.4
		c-0.4,0.3-0.6,0.7-0.6,1.1c0,0.4,0.2,0.8,0.5,1c0.4,0.3,1.1,0.5,2.2,0.7c1.7,0.3,3,0.8,3.8,1.5c0.8,0.7,1.2,1.6,1.2,2.7
		c0,1.2-0.5,2.2-1.6,3c-1.1,0.8-2.5,1.2-4.2,1.2c-1.1,0-2-0.2-2.9-0.5c-0.9-0.3-1.7-0.8-2.4-1.3l0-3.1l2.6,0l0.5,1.8
		c0.2,0.2,0.5,0.3,0.9,0.4c0.4,0.1,0.8,0.1,1.2,0.1c0.8,0,1.3-0.1,1.7-0.4s0.6-0.6,0.6-1.1c0-0.4-0.2-0.8-0.6-1.1
		c-0.4-0.3-1.1-0.6-2.2-0.8c-1.6-0.3-2.8-0.8-3.7-1.5c-0.8-0.6-1.2-1.5-1.2-2.6c0-1.2,0.5-2.1,1.4-3c0.9-0.8,2.3-1.2,4.1-1.2
		c1.1,0,2.1,0.1,3,0.4s1.7,0.7,2.2,1.1L887.3,415.7z"/>
	<path class="st9" d="M896,422.1c0.7,0,1.2-0.2,1.6-0.6c0.4-0.4,0.6-0.9,0.6-1.5l3.4,0l0,0.1c0,1.4-0.5,2.5-1.6,3.5s-2.4,1.4-4,1.4
		c-2,0-3.6-0.7-4.7-1.9c-1.1-1.3-1.7-3-1.7-5v-0.4c0-2,0.6-3.7,1.7-5c1.1-1.3,2.8-2,4.9-2c1.1,0,2.1,0.2,3,0.5
		c0.9,0.3,1.6,0.8,2.2,1.4l0,3.7l-3,0l-0.6-2.1c-0.2-0.2-0.4-0.3-0.7-0.4c-0.3-0.1-0.6-0.2-0.9-0.2c-1,0-1.8,0.4-2.2,1.1
		c-0.4,0.8-0.6,1.7-0.6,2.9v0.4c0,1.2,0.2,2.2,0.6,3C894.3,421.7,895,422.1,896,422.1z"/>
	<path class="st9" d="M903.2,417.7c0-2,0.6-3.7,1.7-5c1.1-1.3,2.7-2,4.8-2c2,0,3.6,0.7,4.8,2s1.7,3,1.7,5v0.3c0,2.1-0.6,3.7-1.7,5
		c-1.1,1.3-2.7,1.9-4.7,1.9c-2,0-3.6-0.7-4.8-2c-1.1-1.3-1.7-3-1.7-5V417.7z M906.9,418c0,1.3,0.2,2.3,0.7,3
		c0.4,0.8,1.1,1.1,2.1,1.1c1,0,1.7-0.4,2.1-1.1s0.7-1.8,0.7-3v-0.3c0-1.2-0.2-2.2-0.7-3s-1.2-1.2-2.1-1.2c-1,0-1.7,0.4-2.1,1.2
		s-0.7,1.8-0.7,3V418z"/>
</g>
<g class="st8">
	<path class="st9" d="M917.6,422.5l1.8-0.4l0-8.5l-2-0.4l0-2.2l5.4,0l0.2,2c0.5-0.7,1-1.2,1.7-1.6c0.7-0.4,1.4-0.6,2.2-0.6
		c1.4,0,2.5,0.4,3.2,1.3c0.8,0.9,1.2,2.2,1.2,4.1l0,6l1.8,0.4l0,2.2l-7.1,0l0-2.2l1.6-0.4l0-6c0-0.9-0.2-1.6-0.6-2
		c-0.4-0.4-0.9-0.6-1.7-0.6c-0.5,0-0.9,0.1-1.3,0.3c-0.4,0.2-0.7,0.5-1,0.8l0,7.4l1.5,0.4l0,2.2l-7,0L917.6,422.5z"/>
</g>
<g class="st8">
	<path class="st9" d="M940.7,425c-2,0-3.6-0.6-4.7-1.9c-1.2-1.3-1.8-2.9-1.8-4.8v-0.5c0-2,0.6-3.7,1.7-5c1.1-1.3,2.6-2,4.5-2
		c1.9,0,3.3,0.6,4.3,1.7c1,1.1,1.5,2.6,1.5,4.5l0,2l-8.2,0l0,0.1c0.1,0.9,0.4,1.7,0.9,2.2s1.3,0.9,2.2,0.9c0.8,0,1.5-0.1,2-0.2
		c0.5-0.2,1.1-0.4,1.8-0.8l1,2.3c-0.6,0.4-1.3,0.8-2.2,1.1S941.8,425,940.7,425z M940.4,413.6c-0.7,0-1.2,0.3-1.6,0.8
		c-0.4,0.5-0.6,1.2-0.7,2.1l0,0.1l4.5,0v-0.3c0-0.8-0.2-1.4-0.6-1.9C941.7,413.8,941.1,413.6,940.4,413.6z"/>
</g>
<g class="st8">
	<path class="st9" d="M901.9,451.5l1.8-0.4l0-8.5l-2-0.4l0-2.2l5.4,0l0.2,2c0.3-0.7,0.7-1.3,1.2-1.7c0.5-0.4,1.1-0.6,1.8-0.6
		c0.2,0,0.4,0,0.6,0c0.2,0,0.4,0.1,0.5,0.1l-0.4,3.4l-1.5,0c-0.5,0-1,0.1-1.3,0.3c-0.4,0.2-0.6,0.5-0.8,0.9l0,6.7l1.8,0.4l0,2.2
		l-7.3,0L901.9,451.5z"/>
</g>
<g class="st8">
	<path class="st9" d="M918.3,436.6l0,3.4l2.4,0l0,2.6l-2.4,0l0,7c0,0.5,0.1,0.9,0.3,1.1s0.5,0.3,0.9,0.3c0.3,0,0.5,0,0.7,0
		c0.2,0,0.4-0.1,0.6-0.1l0.3,2.7c-0.4,0.1-0.8,0.2-1.2,0.3c-0.4,0.1-0.8,0.1-1.3,0.1c-1.3,0-2.3-0.4-3-1.1c-0.7-0.7-1-1.8-1-3.3l0-7
		l-2,0l0-2.6l2,0l0-3.4L918.3,436.6z"/>
</g>
</svg>
