<?xml version="1.0" encoding="utf-8"?>
<!-- Generator: Adobe Illustrator 25.2.0, SVG Export Plug-In . SVG Version: 6.00 Build 0)  -->
<svg version="1.1" id="Ebene_1" xmlns="http://www.w3.org/2000/svg" xmlns:xlink="http://www.w3.org/1999/xlink" x="0px" y="0px"
	 viewBox="0 0 717 797" style="enable-background:new 0 0 717 797;" xml:space="preserve">
<style type="text/css">
	.st0{fill:url(#SVGID_1_);stroke:#FFCC00;stroke-width:6;stroke-miterlimit:10;}
	.st1{fill:none;stroke:#FFCC00;stroke-width:6;stroke-miterlimit:10;}
	.st2{fill:none;stroke:#330066;stroke-width:6;stroke-miterlimit:10;}
	.st3{fill:#FFFFFF;stroke:#FFCB03;stroke-width:6;stroke-linecap:round;stroke-linejoin:round;}
	.st4{fill:none;stroke:#FFCB03;stroke-width:6;stroke-linecap:round;stroke-linejoin:round;}
	.st5{fill:#FFCB03;}
	.st6{fill:none;stroke:#FFCC00;stroke-width:15;stroke-linecap:round;stroke-miterlimit:10;}
	.st7{fill:none;stroke:#990066;stroke-width:15;stroke-linecap:round;stroke-miterlimit:10;}
	.st8{enable-background:new    ;}
	.st9{fill:#330066;}
	.st10{fill:#FFCC00;}
	.st11{fill:#FFFFFF;}
</style>
<linearGradient id="SVGID_1_" gradientUnits="userSpaceOnUse" x1="43.6" y1="990" x2="543.6" y2="990" gradientTransform="matrix(1 0 0 1 0 -282)">
	<stop  offset="0" style="stop-color:#990066"/>
	<stop  offset="0.19" style="stop-color:#780066"/>
	<stop  offset="0.4" style="stop-color:#5A0066"/>
	<stop  offset="0.61" style="stop-color:#440066"/>
	<stop  offset="0.81" style="stop-color:#370066"/>
	<stop  offset="1" style="stop-color:#330066"/>
</linearGradient>
<path class="st0" d="M51.6,658h484c4.4,0,8,3.6,8,8v84c0,4.4-3.6,8-8,8h-484c-4.4,0-8-3.6-8-8v-84C43.6,661.6,47.2,658,51.6,658z"/>
<path class="st1" d="M52,393h484c4.4,0,8,3.6,8,8v84c0,4.4-3.6,8-8,8H52c-4.4,0-8-3.6-8-8v-84C44,396.6,47.6,393,52,393z"/>
<path class="st2" d="M52,167h484c4.4,0,8,3.6,8,8v84c0,4.4-3.6,8-8,8H52c-4.4,0-8-3.6-8-8v-84C44,170.6,47.6,167,52,167z"/>
<path class="st3" d="M267.6,630.8c10.5-10.4,27.5-10.2,37.9,0.3s10.2,27.5-0.3,37.9s-27.5,10.2-37.9-0.3c-4.9-5-7.7-11.8-7.7-18.8
	c0-5.9,1.9-11.6,5.5-16.2"/>
<path class="st4" d="M285.7,663H276c-1.3,0-1.8-0.5-1.8-1.8v-14.8c0-1.3,0.5-1.8,1.8-1.8h19.3c1.3,0,1.8,0.5,1.8,1.8v14.8
	c0,1.3-0.5,1.8-1.8,1.8C292.1,663,288.9,663,285.7,663z"/>
<path class="st4" d="M275.8,645.3c0.3-4.1,2-7.7,6-9.5c4.8-2.1,10.4,0,12.6,4.8c0,0,0,0,0,0.1c0.2,0.5,0.4,1.1,0.6,1.6
	c0.2,0.9,0.3,1.8,0.5,2.7"/>
<path class="st5" d="M284.1,656.7L284.1,656.7v2c0,0.4,0.1,0.5,0.6,0.5h1.9c0.5,0,0.7-0.1,0.7-0.6v-3.7c0-0.4,0.2-0.7,0.5-0.9
	c1.2-0.6,1.8-2,1.4-3.3c-0.6-1.3-1.9-2.2-3.3-2.2c-1.5-0.1-2.9,0.7-3.7,2c-0.5,1.3,0,2.8,1.3,3.5c0.4,0.2,0.7,0.6,0.6,1.1V656.7z"/>
<polyline class="st6" points="307.4,568.8 286.9,589.3 266.4,568.8 "/>
<line class="st6" x1="286.9" y1="537.3" x2="286.9" y2="578.8"/>
<polyline class="st6" points="307.4,337.8 286.9,358.3 266.4,337.8 "/>
<line class="st6" x1="286.9" y1="306.3" x2="286.9" y2="347.8"/>
<polyline class="st7" points="307.4,111.8 286.9,132.3 266.4,111.8 "/>
<line class="st7" x1="286.9" y1="80.3" x2="286.9" y2="121.8"/>
<g class="st8">
	<path class="st9" d="M192.7,441.7h-3.2l-0.6-2.9c-0.4-0.2-0.9-0.4-1.6-0.6s-1.5-0.3-2.3-0.3c-1.2,0-2.1,0.2-2.7,0.7
		c-0.6,0.5-1,1.1-1,1.9c0,0.7,0.3,1.3,1,1.8s1.8,1,3.5,1.5c2.4,0.7,4.1,1.5,5.4,2.6s1.8,2.5,1.8,4.2c0,1.8-0.7,3.3-2.2,4.3
		s-3.3,1.6-5.7,1.6c-1.7,0-3.2-0.3-4.6-0.8s-2.5-1.3-3.4-2.2V449h3.3l0.5,3c0.4,0.4,1,0.6,1.8,0.9s1.6,0.3,2.5,0.3
		c1.2,0,2.1-0.2,2.7-0.7s0.9-1.1,0.9-1.9s-0.3-1.5-0.9-2s-1.6-1-3.1-1.4c-2.5-0.7-4.4-1.6-5.7-2.6s-1.9-2.4-1.9-4.1s0.7-3.1,2.2-4.2
		s3.3-1.7,5.5-1.7c1.6,0,3.1,0.2,4.5,0.7s2.5,1.2,3.4,2L192.7,441.7L192.7,441.7z"/>
	<path class="st9" d="M212.2,442.1H209l-0.4-2.8c-0.4-0.4-0.9-0.8-1.6-1s-1.4-0.4-2.3-0.4c-1.9,0-3.3,0.7-4.3,2s-1.5,3.1-1.5,5.3
		v0.7c0,2.2,0.5,3.9,1.5,5.3s2.4,2,4.2,2c0.8,0,1.6-0.1,2.3-0.4s1.2-0.6,1.6-1l0.4-2.8h3.2v4.2c-0.9,1-2,1.8-3.3,2.4
		s-2.8,0.9-4.5,0.9c-2.9,0-5.2-1-7-3s-2.7-4.5-2.7-7.6v-0.7c0-3.1,0.9-5.6,2.7-7.6s4.2-3,7-3c1.7,0,3.1,0.3,4.5,0.9
		c1.3,0.6,2.4,1.4,3.3,2.4v4.2H212.2z"/>
	<path class="st9" d="M233.6,445.7c0,3.1-0.9,5.7-2.7,7.7s-4.1,3.1-7,3.1s-5.2-1-7-3.1s-2.7-4.6-2.7-7.7v-0.3c0-3.1,0.9-5.7,2.7-7.7
		s4.1-3.1,7-3.1s5.2,1,7,3.1s2.7,4.6,2.7,7.7V445.7z M229.4,445.4c0-2.2-0.5-4-1.4-5.4s-2.3-2.1-4.1-2.1s-3.1,0.7-4,2.1
		s-1.3,3.2-1.3,5.4v0.4c0,2.2,0.4,4.1,1.3,5.4c0.9,1.4,2.2,2.1,4,2.1s3.2-0.7,4.1-2.1c0.9-1.4,1.4-3.2,1.4-5.4V445.4z"/>
	<path class="st9" d="M257.2,434.9v2.6l-2.3,0.4v18.3h-4.3l-8.6-14.4h-0.1v11.3l2.3,0.4v2.6h-8.8v-2.6l2.3-0.4v-15.3l-2.3-0.4v-2.6
		h2.3h4.3l8.6,14.4h0.1v-11.3l-2.3-0.4v-2.6h6.5H257.2z"/>
	<path class="st9" d="M258.5,437.5v-2.6h8.8v2.6l-2.3,0.4v15.3l2.3,0.4v2.6h-8.8v-2.6l2.3-0.4v-15.3L258.5,437.5z"/>
	<path class="st9" d="M269,453.7l2.3-0.4V438l-2.3-0.4V435h17v5.8h-3.3l-0.2-2.5h-7v5.9h7.5v3.3h-7.5v5.9l2.3,0.4v2.6H269V453.7z"/>
	<path class="st9" d="M295.3,437.5l-1.7,0.2l3.3,7h0.1l3.3-7l-1.7-0.2v-2.6h8.1v2.6l-1.8,0.3l-5.8,11v4.5l2.3,0.4v2.6h-8.8v-2.6
		l2.3-0.4v-4.7l-5.7-10.7l-1.8-0.3V435h8.1v2.5H295.3z"/>
	<path class="st9" d="M315.3,437.5v-2.6h8.8v2.6l-2.3,0.4v15.3l2.3,0.4v2.6h-8.8v-2.6l2.3-0.4v-15.3L315.3,437.5z"/>
	<path class="st9" d="M346.4,440.5L346.4,440.5l-5.8,15.8h-2.9l-5.7-15.7h-0.1l0.4,9.4v3.4l2.3,0.4v2.6h-8.8v-2.6l2.3-0.4v-15.3
		l-2.3-0.4v-2.6h2.3h5.6l5.4,15.7h0.1l5.5-15.7h7.9v2.6l-2.3,0.4v15.3l2.3,0.4v2.6h-8.8v-2.6l2.3-0.4V450L346.4,440.5z"/>
</g>
<g class="st8">
	<path class="st9" d="M353.8,453.7l1.5-0.2l6.5-18.5h4.4l6.4,18.5l1.5,0.2v2.6h-7.3v-2.6l1.5-0.3l-0.9-2.9h-6.9l-0.9,2.9l1.5,0.3
		v2.6h-7.3L353.8,453.7L353.8,453.7z M361.6,447.3h4.9l-2.4-7.5H364L361.6,447.3z"/>
</g>
<g class="st8">
	<path class="st9" d="M392.4,453.9c-0.7,0.7-1.7,1.3-3,1.9s-3,0.8-5,0.8c-2.9,0-5.2-1-7-2.9s-2.7-4.4-2.7-7.5v-0.7
		c0-3.2,0.9-5.8,2.7-7.8s4.1-3,7-3c1.7,0,3.2,0.3,4.6,0.8s2.5,1.3,3.4,2.2v4.3h-3.2l-0.6-2.9c-0.4-0.3-0.9-0.6-1.5-0.8
		s-1.4-0.3-2.2-0.3c-1.9,0-3.3,0.7-4.4,2.1s-1.6,3.2-1.6,5.4v0.8c0,2.2,0.5,3.9,1.5,5.2s2.5,1.9,4.4,1.9c0.9,0,1.6-0.1,2.1-0.2
		s0.9-0.3,1.3-0.5v-3.6l-3-0.2v-3h7.3L392.4,453.9L392.4,453.9z"/>
	<path class="st9" d="M408.3,446.9h-7.2v6.1h6.9l0.2-2.5h3.3v5.8h-16.9v-2.6l2.3-0.4V438l-2.3-0.4V435h2.3h14.6v5.8h-3.3l-0.2-2.5
		h-6.8v5.4h7.2v3.2H408.3z"/>
</g>
<g class="st8">
	<path class="st10" d="M342.8,342.7l2.1-0.4v-9.8l-2.3-0.4v-2.6h6.3l0.2,2.3c0.4-0.8,0.8-1.5,1.4-1.9s1.3-0.7,2-0.7
		c0.2,0,0.5,0,0.7,0.1c0.2,0,0.5,0.1,0.6,0.1l-0.5,3.9h-1.8c-0.6,0-1.1,0.1-1.6,0.4s-0.7,0.6-0.9,1v7.7l2.1,0.4v2.6h-8.4
		L342.8,342.7L342.8,342.7z"/>
</g>
<g class="st8">
	<path class="st10" d="M362.4,345.5c-2.3,0-4.1-0.7-5.5-2.2s-2.1-3.3-2.1-5.6v-0.6c0-2.4,0.6-4.3,1.9-5.8s3-2.3,5.2-2.3
		c2.1,0,3.8,0.6,5,1.9s1.8,3,1.8,5.2v2.3h-9.5v0.1c0.1,1,0.4,1.9,1,2.6s1.5,1,2.5,1c0.9,0,1.7-0.1,2.4-0.3c0.6-0.2,1.3-0.5,2.1-0.9
		l1.2,2.6c-0.7,0.5-1.5,1-2.5,1.3S363.7,345.5,362.4,345.5z M362,332.4c-0.8,0-1.4,0.3-1.9,0.9s-0.7,1.4-0.8,2.4v0.1h5.2v-0.4
		c0-0.9-0.2-1.6-0.6-2.2C363.6,332.7,362.9,332.4,362,332.4z"/>
	<path class="st10" d="M380.9,345.2c-0.1-0.3-0.2-0.5-0.3-0.8c-0.1-0.3-0.2-0.6-0.2-0.8c-0.5,0.6-1.1,1.1-1.9,1.4s-1.6,0.5-2.5,0.5
		c-1.6,0-2.8-0.4-3.7-1.3s-1.4-2-1.4-3.5s0.6-2.6,1.8-3.4s2.9-1.2,5.2-1.2h2.2v-1.6c0-0.8-0.2-1.4-0.7-1.8s-1.1-0.6-1.9-0.6
		c-0.5,0-0.9,0.1-1.3,0.2s-0.7,0.2-0.9,0.4l-0.3,1.7h-3.2v-3.5c0.8-0.5,1.7-1,2.7-1.3s2.1-0.5,3.3-0.5c2,0,3.6,0.5,4.8,1.4
		s1.8,2.3,1.8,4.1v6.5c0,0.2,0,0.5,0,0.7s0,0.4,0.1,0.6l1.3,0.2v2.6L380.9,345.2L380.9,345.2z M377.2,342.4c0.6,0,1.2-0.1,1.8-0.4
		c0.5-0.3,0.9-0.6,1.2-1v-2.4H378c-0.9,0-1.6,0.2-2.1,0.6s-0.7,0.9-0.7,1.5c0,0.5,0.2,1,0.5,1.3S376.6,342.4,377.2,342.4z"/>
	<path class="st10" d="M397.6,343.3c-0.5,0.7-1.1,1.3-1.8,1.7s-1.5,0.6-2.3,0.6c-2,0-3.5-0.7-4.5-2.1s-1.6-3.3-1.6-5.7v-0.3
		c0-2.5,0.5-4.5,1.6-6s2.6-2.3,4.6-2.3c0.8,0,1.5,0.2,2.1,0.5s1.2,0.8,1.7,1.5v-5.7l-2.3-0.4v-2.6h2.3h4.3v19.8l2.1,0.4v2.6H398
		L397.6,343.3z M391.6,337.7c0,1.4,0.2,2.5,0.7,3.3s1.2,1.2,2.3,1.2c0.6,0,1.2-0.1,1.6-0.4s0.8-0.6,1.1-1.1V334
		c-0.3-0.5-0.7-0.9-1.1-1.2c-0.5-0.3-1-0.4-1.6-0.4c-1,0-1.8,0.5-2.3,1.4s-0.7,2.1-0.7,3.6V337.7z"/>
</g>
<g class="st8">
	<path class="st10" d="M365.1,560l-1.6,0.2l-3.3,13.1h-3.6l-2.9-9.4h-0.1l-2.9,9.4h-3.6l-3.3-13.1l-1.6-0.2v-2.6h7.2v2.6l-1.7,0.3
		l1.5,7.3h0.1l3-10.2h2.9l3,10.2h0.1l1.5-7.3l-1.7-0.3v-2.6h7.2v2.6H365.1z"/>
	<path class="st10" d="M366.9,570.7l2.1-0.4v-9.8l-2.3-0.4v-2.6h6.3l0.2,2.3c0.4-0.8,0.8-1.5,1.4-1.9s1.3-0.7,2-0.7
		c0.2,0,0.5,0,0.7,0.1c0.2,0,0.5,0.1,0.6,0.1l-0.5,3.9h-1.8c-0.6,0-1.1,0.1-1.6,0.4s-0.7,0.6-0.9,1v7.7l2.1,0.4v2.6h-8.4
		L366.9,570.7L366.9,570.7z"/>
	<path class="st10" d="M379,570.7l2.1-0.4v-9.8l-2.3-0.4v-2.6h6.6v12.8l2.1,0.4v2.6H379V570.7z M385.4,553.6h-4.3v-3.2h4.3V553.6z"
		/>
	<path class="st10" d="M395.2,553.5v3.9h2.8v3h-2.8v8.1c0,0.6,0.1,1.1,0.4,1.3s0.6,0.4,1,0.4c0.3,0,0.5,0,0.8,0
		c0.2,0,0.5-0.1,0.7-0.1l0.4,3.1c-0.5,0.1-1,0.3-1.4,0.3c-0.5,0.1-1,0.1-1.5,0.1c-1.5,0-2.6-0.4-3.4-1.2s-1.2-2.1-1.2-3.9v-8.1h-2.3
		v-3h2.3v-3.9L395.2,553.5L395.2,553.5z"/>
	<path class="st10" d="M407.6,573.5c-2.3,0-4.1-0.7-5.5-2.2s-2.1-3.3-2.1-5.6v-0.6c0-2.4,0.6-4.3,1.9-5.8s3-2.3,5.2-2.3
		c2.1,0,3.8,0.6,5,1.9s1.8,3,1.8,5.2v2.3h-9.5v0.1c0.1,1,0.4,1.9,1,2.6s1.5,1,2.5,1c0.9,0,1.7-0.1,2.4-0.3c0.6-0.2,1.3-0.5,2.1-0.9
		l1.2,2.6c-0.7,0.5-1.5,1-2.5,1.3S408.9,573.5,407.6,573.5z M407.2,560.4c-0.8,0-1.4,0.3-1.9,0.9s-0.7,1.4-0.8,2.4v0.1h5.2v-0.4
		c0-0.9-0.2-1.6-0.6-2.2C408.7,560.7,408.1,560.4,407.2,560.4z"/>
</g>
<g class="st8">
	<path class="st9" d="M572.6,226.8v-1.9h7.7v1.9l-2.4,0.4V244l2.4,0.4v1.8h-7.7v-1.8l2.4-0.4v-16.8L572.6,226.8z"/>
	<path class="st9" d="M582,244.4l2.4-0.4v-11.3l-2.4-0.4v-1.9h5l0.2,2.1c0.5-0.8,1.2-1.3,2-1.7s1.7-0.6,2.8-0.6s2,0.2,2.7,0.7
		s1.3,1.2,1.7,2.2c0.5-0.9,1.2-1.6,2-2.1s1.8-0.8,2.9-0.8c1.6,0,2.9,0.6,3.8,1.7c0.9,1.1,1.4,2.8,1.4,5v7.2l2.4,0.4v1.8h-7.7v-1.8
		l2.4-0.4v-7.3c0-1.6-0.3-2.7-0.8-3.3s-1.3-1-2.4-1c-1,0-1.8,0.4-2.4,1.1s-1,1.6-1.1,2.7v7.8l2.4,0.4v1.8h-7.7v-1.8l2.4-0.4v-7.3
		c0-1.5-0.3-2.6-0.8-3.3c-0.6-0.7-1.3-1-2.4-1c-0.9,0-1.6,0.2-2.2,0.5s-1,0.9-1.3,1.5v9.5l2.4,0.4v1.8H582V244.4z"/>
	<path class="st9" d="M621.3,246.2c-0.1-0.4-0.2-0.8-0.2-1.2s-0.1-0.7-0.1-1c-0.6,0.7-1.3,1.3-2.1,1.8s-1.7,0.7-2.7,0.7
		c-1.7,0-2.9-0.4-3.8-1.2c-0.9-0.8-1.3-1.9-1.3-3.4s0.6-2.7,1.8-3.5s2.9-1.2,5-1.2h3v-1.8c0-0.9-0.3-1.7-0.9-2.2
		c-0.6-0.5-1.4-0.8-2.4-0.8c-0.7,0-1.4,0.1-1.9,0.3s-1,0.4-1.3,0.8l-0.3,1.7h-2.2V232c0.7-0.6,1.6-1,2.6-1.4c1-0.3,2.1-0.5,3.3-0.5
		c1.8,0,3.3,0.5,4.4,1.4s1.7,2.2,1.7,3.9v7.6c0,0.2,0,0.4,0,0.6s0,0.4,0,0.6l1.2,0.2v1.8L621.3,246.2L621.3,246.2z M616.6,244.1
		c1,0,1.8-0.2,2.6-0.7s1.4-1,1.7-1.7v-2.6h-3.1c-1.2,0-2.1,0.3-2.8,0.8s-1,1.2-1,2c0,0.7,0.2,1.2,0.6,1.6
		C615.1,243.9,615.7,244.1,616.6,244.1z"/>
	<path class="st9" d="M627.5,238.6c0-2.5,0.6-4.6,1.7-6.2s2.7-2.3,4.6-2.3c1,0,1.9,0.2,2.6,0.6s1.4,1,1.9,1.7l0.3-2h2.4V246
		c0,2.1-0.6,3.7-1.7,4.8c-1.1,1.2-2.8,1.8-4.9,1.8c-0.8,0-1.6-0.1-2.5-0.3s-1.7-0.5-2.3-0.9l0.7-2.2c0.5,0.3,1.2,0.5,1.9,0.7
		s1.4,0.3,2.1,0.3c1.3,0,2.2-0.4,2.8-1.1s0.9-1.8,0.9-3.1v-1.5c-0.5,0.7-1.1,1.2-1.9,1.5s-1.6,0.5-2.5,0.5c-1.9,0-3.5-0.7-4.6-2.1
		s-1.7-3.2-1.7-5.5v-0.3H627.5z M630.3,238.9c0,1.6,0.3,2.9,1,3.8s1.7,1.5,3.1,1.5c0.9,0,1.6-0.2,2.2-0.6c0.6-0.4,1.1-1,1.5-1.7
		v-7.3c-0.4-0.7-0.9-1.2-1.5-1.6c-0.6-0.4-1.3-0.6-2.2-0.6c-1.4,0-2.4,0.6-3.1,1.7s-1,2.6-1,4.4V238.9z"/>
	<path class="st9" d="M651.7,246.5c-2.2,0-4-0.7-5.3-2.2s-2-3.4-2-5.7V238c0-2.3,0.7-4.1,2-5.6s2.9-2.2,4.8-2.2
		c2.1,0,3.7,0.6,4.8,1.9s1.6,3,1.6,5.2v1.8h-10.3v0.1c0,1.5,0.4,2.8,1.2,3.8c0.7,1,1.8,1.5,3.1,1.5c1,0,1.8-0.1,2.6-0.4
		c0.7-0.3,1.4-0.7,1.9-1.2l1.1,1.9c-0.6,0.5-1.3,1-2.2,1.4C654.1,246.3,653,246.5,651.7,246.5z M651.2,232.4c-1,0-1.8,0.4-2.5,1.2
		s-1.1,1.8-1.3,3.1v0.1h7.3v-0.4c0-1.1-0.3-2.1-0.9-2.8S652.4,232.4,651.2,232.4z"/>
</g>
<g class="st8">
	<path class="st9" d="M572.6,436.8v-1.9h7.7v1.9l-2.4,0.4V454l2.4,0.4v1.8h-7.7v-1.8l2.4-0.4v-16.8L572.6,436.8z"/>
	<path class="st9" d="M582,454.4l2.4-0.4v-11.3l-2.4-0.4v-1.9h5l0.2,2.1c0.5-0.8,1.2-1.3,2-1.7s1.7-0.6,2.8-0.6s2,0.2,2.7,0.7
		s1.3,1.2,1.7,2.2c0.5-0.9,1.2-1.6,2-2.1s1.8-0.8,2.9-0.8c1.6,0,2.9,0.6,3.8,1.7c0.9,1.1,1.4,2.8,1.4,5v7.2l2.4,0.4v1.8h-7.7v-1.8
		l2.4-0.4v-7.3c0-1.6-0.3-2.7-0.8-3.3s-1.3-1-2.4-1c-1,0-1.8,0.4-2.4,1.1s-1,1.6-1.1,2.7v7.8l2.4,0.4v1.8h-7.7v-1.8l2.4-0.4v-7.3
		c0-1.5-0.3-2.6-0.8-3.3c-0.6-0.7-1.3-1-2.4-1c-0.9,0-1.6,0.2-2.2,0.5s-1,0.9-1.3,1.5v9.5l2.4,0.4v1.8H582V454.4z"/>
	<path class="st9" d="M621.3,456.2c-0.1-0.4-0.2-0.8-0.2-1.2s-0.1-0.7-0.1-1c-0.6,0.7-1.3,1.3-2.1,1.8s-1.7,0.7-2.7,0.7
		c-1.7,0-2.9-0.4-3.8-1.2c-0.9-0.8-1.3-1.9-1.3-3.4s0.6-2.7,1.8-3.5s2.9-1.2,5-1.2h3v-1.8c0-0.9-0.3-1.7-0.9-2.2
		c-0.6-0.5-1.4-0.8-2.4-0.8c-0.7,0-1.4,0.1-1.9,0.3s-1,0.4-1.3,0.8l-0.3,1.7h-2.2V442c0.7-0.6,1.6-1,2.6-1.4c1-0.3,2.1-0.5,3.3-0.5
		c1.8,0,3.3,0.5,4.4,1.4s1.7,2.2,1.7,3.9v7.6c0,0.2,0,0.4,0,0.6s0,0.4,0,0.6l1.2,0.2v1.8H621.3z M616.6,454.1c1,0,1.8-0.2,2.6-0.7
		s1.4-1,1.7-1.7v-2.6h-3.1c-1.2,0-2.1,0.3-2.8,0.8s-1,1.2-1,2c0,0.7,0.2,1.2,0.6,1.6C615.1,453.9,615.7,454.1,616.6,454.1z"/>
	<path class="st9" d="M627.5,448.6c0-2.5,0.6-4.6,1.7-6.2s2.7-2.3,4.6-2.3c1,0,1.9,0.2,2.6,0.6s1.4,1,1.9,1.7l0.3-2h2.4V456
		c0,2.1-0.6,3.7-1.7,4.8c-1.1,1.2-2.8,1.8-4.9,1.8c-0.8,0-1.6-0.1-2.5-0.3s-1.7-0.5-2.3-0.9l0.7-2.2c0.5,0.3,1.2,0.5,1.9,0.7
		s1.4,0.3,2.1,0.3c1.3,0,2.2-0.4,2.8-1.1s0.9-1.8,0.9-3.1v-1.5c-0.5,0.7-1.1,1.2-1.9,1.5s-1.6,0.5-2.5,0.5c-1.9,0-3.5-0.7-4.6-2.1
		s-1.7-3.2-1.7-5.5v-0.3H627.5z M630.3,448.9c0,1.6,0.3,2.9,1,3.8s1.7,1.5,3.1,1.5c0.9,0,1.6-0.2,2.2-0.6c0.6-0.4,1.1-1,1.5-1.7
		v-7.3c-0.4-0.7-0.9-1.2-1.5-1.6s-1.3-0.6-2.2-0.6c-1.4,0-2.4,0.6-3.1,1.7s-1,2.6-1,4.4V448.9z"/>
	<path class="st9" d="M651.7,456.5c-2.2,0-4-0.7-5.3-2.2s-2-3.4-2-5.7V448c0-2.3,0.7-4.1,2-5.6s2.9-2.2,4.8-2.2
		c2.1,0,3.7,0.6,4.8,1.9s1.6,3,1.6,5.2v1.8h-10.3v0.1c0,1.5,0.4,2.8,1.2,3.8c0.7,1,1.8,1.5,3.1,1.5c1,0,1.8-0.1,2.6-0.4
		c0.7-0.3,1.4-0.7,1.9-1.2l1.1,1.9c-0.6,0.5-1.3,1-2.2,1.4C654.1,456.3,653,456.5,651.7,456.5z M651.2,442.4c-1,0-1.8,0.4-2.5,1.2
		s-1.1,1.8-1.3,3.1v0.1h7.3v-0.4c0-1.1-0.3-2.1-0.9-2.8S652.4,442.4,651.2,442.4z"/>
</g>
<g class="st8">
	<path class="st9" d="M591.6,693.7c0,3.1-0.9,5.7-2.7,7.7s-4.1,3.1-6.9,3.1c-2.8,0-5-1-6.7-3.1s-2.6-4.6-2.6-7.7v-0.3
		c0-3.1,0.9-5.7,2.6-7.7s4-3.1,6.7-3.1c2.8,0,5.1,1,6.9,3.1s2.7,4.6,2.7,7.7V693.7z M588.7,693.4c0-2.5-0.6-4.5-1.8-6.1
		s-2.8-2.4-4.9-2.4c-2,0-3.6,0.8-4.7,2.4s-1.7,3.6-1.7,6.1v0.3c0,2.5,0.6,4.5,1.7,6.1c1.1,1.6,2.7,2.4,4.7,2.4c2.1,0,3.8-0.8,5-2.3
		s1.8-3.6,1.8-6.1L588.7,693.4L588.7,693.4z"/>
	<path class="st9" d="M605.4,701.9c-0.5,0.8-1.1,1.5-1.9,2s-1.7,0.7-2.7,0.7c-1.7,0-3.1-0.6-4-1.7s-1.5-2.8-1.5-5.2v-7.1l-1.8-0.4
		v-1.9h1.8h2.9v9.4c0,1.7,0.2,2.9,0.7,3.5s1.3,1,2.3,1s1.9-0.2,2.5-0.6c0.7-0.4,1.2-1,1.5-1.8v-9.2l-2.1-0.4v-1.9h2.1h2.9V702
		l1.8,0.4v1.8h-4.4L605.4,701.9z"/>
	<path class="st9" d="M617.3,684.6v3.8h3v2.1h-3v9.6c0,0.7,0.2,1.3,0.5,1.6s0.7,0.5,1.2,0.5c0.3,0,0.5,0,0.9-0.1
		c0.3,0,0.6-0.1,0.8-0.1l0.4,2c-0.3,0.2-0.7,0.3-1.2,0.4c-0.5,0.1-1.1,0.2-1.6,0.2c-1.2,0-2.1-0.4-2.8-1.1c-0.7-0.7-1-1.8-1-3.3
		v-9.6H612v-2.1h2.5v-3.8h2.8V684.6z"/>
	<path class="st9" d="M622.9,708.5l2.4-0.4v-17.4l-2.4-0.4v-1.9h4.9l0.3,1.9c0.5-0.7,1.2-1.3,1.9-1.7s1.6-0.6,2.6-0.6
		c2,0,3.5,0.8,4.6,2.3c1.1,1.6,1.6,3.6,1.6,6.2v0.3c0,2.3-0.5,4.1-1.6,5.5s-2.6,2.1-4.5,2.1c-1,0-1.8-0.2-2.6-0.5s-1.4-0.8-1.9-1.5
		v5.5l2.4,0.4v1.9h-7.7V708.5z M635.9,696.6c0-1.8-0.4-3.3-1.1-4.4s-1.7-1.7-3.1-1.7c-0.8,0-1.5,0.2-2.1,0.6s-1.1,0.9-1.4,1.5v7.7
		c0.4,0.7,0.8,1.2,1.4,1.5c0.6,0.4,1.3,0.5,2.1,0.5c1.4,0,2.4-0.5,3.1-1.5s1.1-2.3,1.1-3.9V696.6z"/>
	<path class="st9" d="M652.8,701.9c-0.5,0.8-1.1,1.5-1.9,2s-1.7,0.7-2.7,0.7c-1.7,0-3.1-0.6-4-1.7s-1.5-2.8-1.5-5.2v-7.1l-1.8-0.4
		v-1.9h1.8h2.9v9.4c0,1.7,0.2,2.9,0.7,3.5s1.3,1,2.3,1s1.9-0.2,2.5-0.6c0.7-0.4,1.2-1,1.5-1.8v-9.2l-2.1-0.4v-1.9h2.1h2.9V702
		l1.8,0.4v1.8h-4.4L652.8,701.9z"/>
	<path class="st9" d="M664.7,684.6v3.8h3v2.1h-3v9.6c0,0.7,0.2,1.3,0.5,1.6s0.7,0.5,1.2,0.5c0.3,0,0.5,0,0.9-0.1
		c0.3,0,0.6-0.1,0.8-0.1l0.4,2c-0.3,0.2-0.7,0.3-1.2,0.4c-0.5,0.1-1.1,0.2-1.6,0.2c-1.2,0-2.1-0.4-2.8-1.1c-0.7-0.7-1-1.8-1-3.3
		v-9.6h-2.5v-2.1h2.5v-3.8h2.8V684.6z"/>
</g>
<g class="st8">
	<path class="st9" d="M572.6,720.8v-1.9h7.7v1.9l-2.4,0.4V738l2.4,0.4v1.8h-7.7v-1.8l2.4-0.4v-16.8L572.6,720.8z"/>
	<path class="st9" d="M582,738.4l2.4-0.4v-11.3l-2.4-0.4v-1.9h5l0.2,2.1c0.5-0.8,1.2-1.3,2-1.7s1.7-0.6,2.8-0.6s2,0.2,2.7,0.7
		s1.3,1.2,1.7,2.2c0.5-0.9,1.2-1.6,2-2.1s1.8-0.8,2.9-0.8c1.6,0,2.9,0.6,3.8,1.7c0.9,1.1,1.4,2.8,1.4,5v7.2l2.4,0.4v1.8h-7.7v-1.8
		l2.4-0.4v-7.3c0-1.6-0.3-2.7-0.8-3.3c-0.5-0.7-1.3-1-2.4-1c-1,0-1.8,0.4-2.4,1.1c-0.6,0.7-1,1.6-1.1,2.7v7.8l2.4,0.4v1.8h-7.7v-1.8
		l2.4-0.4v-7.3c0-1.5-0.3-2.6-0.8-3.3c-0.6-0.7-1.3-1-2.4-1c-0.9,0-1.6,0.2-2.2,0.5s-1,0.9-1.3,1.5v9.5l2.4,0.4v1.8H582V738.4z"/>
	<path class="st9" d="M621.3,740.2c-0.1-0.4-0.2-0.8-0.2-1.2s-0.1-0.7-0.1-1c-0.6,0.7-1.3,1.3-2.1,1.8s-1.7,0.7-2.7,0.7
		c-1.7,0-2.9-0.4-3.8-1.2c-0.9-0.8-1.3-1.9-1.3-3.4s0.6-2.7,1.8-3.5s2.9-1.2,5-1.2h3v-1.8c0-0.9-0.3-1.7-0.9-2.2
		c-0.6-0.5-1.4-0.8-2.4-0.8c-0.7,0-1.4,0.1-1.9,0.3s-1,0.4-1.3,0.8l-0.3,1.7h-2.2V726c0.7-0.6,1.6-1,2.6-1.4c1-0.3,2.1-0.5,3.3-0.5
		c1.8,0,3.3,0.5,4.4,1.4s1.7,2.2,1.7,3.9v7.6c0,0.2,0,0.4,0,0.6s0,0.4,0,0.6l1.2,0.2v1.8L621.3,740.2L621.3,740.2z M616.6,738.1
		c1,0,1.8-0.2,2.6-0.7s1.4-1,1.7-1.7v-2.6h-3.1c-1.2,0-2.1,0.3-2.8,0.8s-1,1.2-1,2c0,0.7,0.2,1.2,0.6,1.6
		C615.1,737.9,615.7,738.1,616.6,738.1z"/>
	<path class="st9" d="M627.5,732.6c0-2.5,0.6-4.6,1.7-6.2s2.7-2.3,4.6-2.3c1,0,1.9,0.2,2.6,0.6s1.4,1,1.9,1.7l0.3-2h2.4V740
		c0,2.1-0.6,3.7-1.7,4.8c-1.1,1.2-2.8,1.8-4.9,1.8c-0.8,0-1.6-0.1-2.5-0.3s-1.7-0.5-2.3-0.9l0.7-2.2c0.5,0.3,1.2,0.5,1.9,0.7
		s1.4,0.3,2.1,0.3c1.3,0,2.2-0.4,2.8-1.1s0.9-1.8,0.9-3.1v-1.5c-0.5,0.7-1.1,1.2-1.9,1.5s-1.6,0.5-2.5,0.5c-1.9,0-3.5-0.7-4.6-2.1
		s-1.7-3.2-1.7-5.5v-0.3H627.5z M630.3,732.9c0,1.6,0.3,2.9,1,3.8s1.7,1.4,3.1,1.4c0.9,0,1.6-0.2,2.2-0.6c0.6-0.4,1.1-1,1.5-1.7
		v-7.3c-0.4-0.7-0.9-1.2-1.5-1.6c-0.6-0.4-1.3-0.6-2.2-0.6c-1.4,0-2.4,0.6-3.1,1.7s-1,2.6-1,4.4V732.9z"/>
	<path class="st9" d="M651.7,740.5c-2.2,0-4-0.7-5.3-2.2s-2-3.4-2-5.7V732c0-2.3,0.7-4.1,2-5.6s2.9-2.2,4.8-2.2
		c2.1,0,3.7,0.6,4.8,1.9s1.6,3,1.6,5.2v1.8h-10.3v0.1c0,1.5,0.4,2.8,1.2,3.8c0.7,1,1.8,1.5,3.1,1.5c1,0,1.8-0.1,2.6-0.4
		c0.7-0.3,1.4-0.7,1.9-1.2l1.1,1.9c-0.6,0.5-1.3,1-2.2,1.4C654.1,740.3,653,740.5,651.7,740.5z M651.2,726.4c-1,0-1.8,0.4-2.5,1.2
		s-1.1,1.8-1.3,3.1v0.1h7.3v-0.4c0-1.1-0.3-2.1-0.9-2.8S652.4,726.4,651.2,726.4z"/>
</g>
<g class="st8">
	<path class="st9" d="M290.6,33.1h-3.2l-0.4-2.8c-0.4-0.4-0.9-0.8-1.6-1s-1.4-0.4-2.3-0.4c-1.9,0-3.3,0.7-4.3,2
		c-1,1.3-1.5,3.1-1.5,5.3v0.7c0,2.2,0.5,3.9,1.5,5.3s2.4,2,4.2,2c0.8,0,1.6-0.1,2.3-0.4s1.2-0.6,1.6-1l0.4-2.8h3.2v4.2
		c-0.9,1-2,1.8-3.3,2.4c-1.3,0.6-2.8,0.9-4.5,0.9c-2.9,0-5.2-1-7-3S273,40,273,36.9v-0.7c0-3.1,0.9-5.6,2.7-7.6s4.2-3,7-3
		c1.7,0,3.1,0.3,4.5,0.9c1.3,0.6,2.4,1.4,3.3,2.4L290.6,33.1L290.6,33.1z"/>
	<path class="st9" d="M292.6,28.5v-2.6h8.8v2.6l-2.3,0.4v15.3l2.3,0.4v2.6h-8.8v-2.6l2.3-0.4V28.9L292.6,28.5z"/>
</g>
<g>
	<g>
		<path class="st11" d="M164.5,719.2c-2.1,0-3.9-0.4-5.4-1.3c-1.5-0.9-2.7-2.1-3.6-3.7c-0.8-1.6-1.3-3.5-1.3-5.6v-0.7
			c0-2.1,0.4-3.9,1.2-5.5c0.8-1.6,2-2.8,3.4-3.8s3.3-1.4,5.3-1.4c1.4,0,2.8,0.2,4.1,0.6s2.4,1,3.4,1.9v5.2h-3.2l-0.4-3.2
			c-0.3-0.2-0.7-0.4-1.1-0.6s-0.8-0.3-1.2-0.4s-0.9-0.1-1.4-0.1c-1.2,0-2.3,0.3-3.1,0.9s-1.5,1.4-2,2.5c-0.5,1.1-0.7,2.4-0.7,3.9
			v0.7c0,1.5,0.2,2.8,0.7,3.9s1.2,1.9,2.1,2.5c0.9,0.6,2,0.9,3.2,0.9c0.6,0,1.2-0.1,1.9-0.2c0.6-0.1,1.2-0.3,1.7-0.5l0.4-3h3.2v5.1
			c-0.8,0.5-1.9,1-3.1,1.4C167.4,719,166,719.2,164.5,719.2z"/>
		<path class="st11" d="M181.4,719.2c-1.6,0-2.9-0.3-4-1s-2-1.6-2.6-2.8c-0.6-1.2-0.9-2.6-0.9-4.2v-0.3c0-1.6,0.3-3,0.9-4.2
			c0.6-1.2,1.5-2.2,2.6-2.9c1.1-0.7,2.5-1,4-1c1.6,0,2.9,0.3,4,1c1.1,0.7,2,1.6,2.6,2.8s0.9,2.6,0.9,4.2v0.3c0,1.6-0.3,3-0.9,4.2
			c-0.6,1.2-1.5,2.2-2.6,2.8S182.9,719.2,181.4,719.2z M181.4,715.9c0.7,0,1.3-0.2,1.8-0.6s0.8-1,1-1.7c0.2-0.7,0.3-1.6,0.3-2.5
			v-0.3c0-0.9-0.1-1.8-0.3-2.5c-0.2-0.7-0.6-1.3-1-1.7c-0.5-0.4-1.1-0.6-1.8-0.6c-0.7,0-1.3,0.2-1.8,0.6s-0.8,1-1,1.7
			c-0.2,0.7-0.3,1.5-0.3,2.5v0.3c0,1,0.1,1.8,0.3,2.5c0.2,0.7,0.6,1.3,1,1.7C180,715.7,180.6,715.9,181.4,715.9z"/>
		<path class="st11" d="M190.6,718.9v-2.6l2.1-0.4v-9.8l-2.3-0.4v-2.6h6.3l0.2,2.3c0.5-0.8,1.2-1.4,2-1.9c0.8-0.4,1.7-0.7,2.7-0.7
			c1.6,0,2.8,0.5,3.7,1.5s1.3,2.6,1.3,4.7v6.9l2.1,0.4v2.6h-8.2v-2.6l1.8-0.4V709c0-1.1-0.2-1.8-0.6-2.3s-1-0.7-1.9-0.7
			c-0.6,0-1.1,0.1-1.6,0.4c-0.5,0.3-0.8,0.6-1.1,1.1v8.3l1.7,0.4v2.6H190.6z"/>
		<path class="st11" d="M209.5,718.9v-2.6l2.3-0.4v-9.8h-2.4v-3h2.4V702c0-2,0.6-3.5,1.8-4.6c1.2-1.1,2.9-1.6,5.1-1.6
			c0.8,0,1.5,0.1,2.3,0.2s1.6,0.4,2.6,0.7L223,700c-0.7-0.2-1.3-0.4-1.9-0.5c-0.6-0.1-1.2-0.2-1.8-0.2c-1.1,0-1.9,0.2-2.4,0.7
			s-0.8,1.1-0.8,2v1.1h9.6v12.8l2.3,0.4v2.6h-8.6v-2.6l2.1-0.4v-9.8h-5.3v9.8l2.1,0.4v2.6H209.5z"/>
		<path class="st11" d="M235.6,719.2c-1.3,0-2.3-0.3-3.2-1s-1.6-1.6-2.1-2.7s-0.7-2.5-0.7-4.1v-0.3c0-1.7,0.2-3.1,0.7-4.4
			c0.5-1.2,1.2-2.2,2.1-2.9c0.9-0.7,2-1,3.2-1c0.9,0,1.6,0.2,2.3,0.5c0.7,0.3,1.2,0.8,1.7,1.5v-5.7l-2.3-0.4V696h2.3h4.3v19.8
			l2.1,0.4v2.6h-5.8l-0.3-1.9c-0.5,0.7-1.1,1.3-1.8,1.7C237.3,719,236.5,719.2,235.6,719.2z M236.8,715.9c0.6,0,1.1-0.1,1.6-0.4
			s0.8-0.6,1.1-1.1v-6.7c-0.3-0.5-0.7-0.9-1.1-1.2c-0.4-0.3-1-0.4-1.6-0.4c-0.7,0-1.3,0.2-1.8,0.6c-0.5,0.4-0.8,1-1,1.8
			c-0.2,0.8-0.3,1.6-0.3,2.6v0.3c0,1.4,0.2,2.5,0.7,3.3S235.8,715.9,236.8,715.9z"/>
		<path class="st11" d="M254.8,719.2c-1.5,0-2.8-0.3-4-1s-2-1.6-2.6-2.8c-0.6-1.2-0.9-2.5-0.9-4v-0.6c0-1.6,0.3-3,0.9-4.2
			c0.6-1.2,1.4-2.2,2.5-2.9c1.1-0.7,2.3-1,3.8-1c1.4,0,2.6,0.3,3.6,0.8s1.7,1.4,2.2,2.4s0.8,2.4,0.8,3.9v2.3h-9.3l0,0.1
			c0.1,0.7,0.2,1.3,0.5,1.9c0.3,0.5,0.7,1,1.2,1.3c0.5,0.3,1.2,0.5,1.9,0.5c0.8,0,1.5-0.1,2.2-0.3s1.3-0.5,2-0.9l1.2,2.6
			c-0.7,0.5-1.5,1-2.5,1.3C257.2,719,256.1,719.2,254.8,719.2z M251.7,709.4h5.3V709c0-0.6-0.1-1.2-0.3-1.7
			c-0.2-0.5-0.4-0.8-0.8-1.1s-0.9-0.4-1.5-0.4c-0.6,0-1,0.1-1.4,0.4s-0.7,0.7-0.9,1.2C251.9,708.1,251.8,708.7,251.7,709.4
			L251.7,709.4z"/>
		<path class="st11" d="M262.9,718.9v-2.6l2.1-0.4v-9.8l-2.3-0.4v-2.6h6.3l0.2,2.3c0.5-0.8,1.2-1.4,2-1.9c0.8-0.4,1.7-0.7,2.7-0.7
			c1.6,0,2.8,0.5,3.7,1.5s1.3,2.6,1.3,4.7v6.9l2.1,0.4v2.6h-8.2v-2.6l1.8-0.4V709c0-1.1-0.2-1.8-0.6-2.3s-1-0.7-1.9-0.7
			c-0.6,0-1.1,0.1-1.6,0.4c-0.5,0.3-0.8,0.6-1.1,1.1v8.3l1.7,0.4v2.6H262.9z"/>
		<path class="st11" d="M288.4,719.2c-1.5,0-2.6-0.4-3.4-1.2s-1.2-2.1-1.2-3.9v-8.1h-2.2v-3h2.2v-3.9h4.3v3.9h2.9v3H288v8.1
			c0,0.6,0.1,1.1,0.4,1.3s0.6,0.4,1.1,0.4c0.2,0,0.5,0,0.8-0.1c0.3,0,0.5-0.1,0.7-0.1l0.4,3.1c-0.4,0.1-0.9,0.2-1.4,0.3
			C289.4,719.2,288.9,719.2,288.4,719.2z"/>
		<path class="st11" d="M292.8,718.9v-2.6l2.1-0.4v-9.8l-2.3-0.4v-2.6h6.6v12.8l2.1,0.4v2.6H292.8z M294.7,699.7V696h4.4v3.6H294.7z
			"/>
		<path class="st11" d="M307.9,719.2c-1.6,0-2.8-0.4-3.8-1.3s-1.4-2-1.4-3.5c0-1,0.3-1.9,0.8-2.6c0.5-0.8,1.3-1.3,2.4-1.8
			s2.4-0.6,3.9-0.6h2.1v-1.2c0-0.8-0.2-1.4-0.7-1.9c-0.4-0.5-1.1-0.7-2-0.7c-0.5,0-0.9,0.1-1.2,0.2c-0.4,0.1-0.7,0.3-1,0.5l-0.3,2.1
			h-3.1l-0.1-4.1c0.8-0.5,1.7-0.8,2.7-1.1s2-0.4,3.2-0.4c2.1,0,3.7,0.5,4.9,1.4s1.8,2.3,1.8,4.1v6.5c0,0.2,0,0.4,0,0.6
			c0,0.2,0,0.4,0.1,0.6l1.7,0.2v2.6h-5.3c-0.1-0.3-0.2-0.6-0.3-0.9s-0.2-0.6-0.2-0.9c-0.5,0.6-1.1,1.2-1.8,1.5
			C309.6,719,308.8,719.2,307.9,719.2z M309.1,716c0.6,0,1.2-0.1,1.7-0.4c0.5-0.3,1-0.6,1.2-1.1v-2.5h-2.1c-0.9,0-1.6,0.2-2.1,0.6
			c-0.5,0.4-0.7,0.9-0.7,1.6c0,0.6,0.2,1,0.5,1.3C307.9,715.9,308.4,716,309.1,716z"/>
		<path class="st11" d="M319.3,718.9v-2.6l2.1-0.4v-16.8l-2.3-0.4V696h6.6v19.8l2.1,0.4v2.6H319.3z"/>
		<path class="st11" d="M345,719.2c-1.6,0-3-0.2-4.3-0.5s-2.6-1-3.8-1.8v-5.2h3.3l0.5,3c0.4,0.4,1,0.7,1.8,0.9s1.6,0.3,2.5,0.3
			c0.8,0,1.4-0.1,2-0.3s0.9-0.5,1.2-0.9c0.3-0.4,0.4-0.9,0.4-1.4c0-0.5-0.1-1-0.4-1.4c-0.2-0.4-0.7-0.8-1.2-1.1
			c-0.6-0.3-1.3-0.6-2.3-0.9c-1.7-0.5-3.1-1-4.2-1.6c-1.1-0.6-1.9-1.3-2.5-2.1c-0.6-0.8-0.8-1.8-0.8-3c0-1.2,0.3-2.2,1-3.1
			s1.5-1.6,2.7-2.1s2.4-0.8,3.9-0.8c1.6,0,3.1,0.2,4.4,0.6c1.3,0.4,2.4,1,3.3,1.7v4.8h-3.2l-0.6-2.9c-0.4-0.2-0.9-0.4-1.5-0.6
			c-0.6-0.2-1.3-0.3-2.1-0.3c-0.7,0-1.3,0.1-1.8,0.3c-0.5,0.2-0.9,0.5-1.2,0.9s-0.5,0.9-0.5,1.4c0,0.5,0.1,0.9,0.4,1.3
			c0.3,0.4,0.7,0.7,1.3,1c0.6,0.3,1.5,0.7,2.6,1c2.4,0.7,4.1,1.5,5.4,2.6c1.2,1.1,1.8,2.5,1.8,4.2c0,1.2-0.3,2.3-1,3.1
			s-1.6,1.6-2.8,2S346.6,719.2,345,719.2z"/>
		<path class="st11" d="M362.3,719.2c-1.5,0-2.8-0.3-4-1c-1.1-0.7-2-1.6-2.6-2.8c-0.6-1.2-0.9-2.5-0.9-4v-0.6c0-1.6,0.3-3,0.9-4.2
			c0.6-1.2,1.4-2.2,2.5-2.9c1.1-0.7,2.3-1,3.8-1c1.4,0,2.6,0.3,3.6,0.8s1.7,1.4,2.2,2.4s0.8,2.4,0.8,3.9v2.3h-9.3l0,0.1
			c0.1,0.7,0.2,1.3,0.5,1.9c0.3,0.5,0.7,1,1.2,1.3c0.5,0.3,1.2,0.5,1.9,0.5c0.8,0,1.5-0.1,2.2-0.3s1.3-0.5,2-0.9l1.2,2.6
			c-0.7,0.5-1.5,1-2.5,1.3C364.7,719,363.6,719.2,362.3,719.2z M359.2,709.4h5.3V709c0-0.6-0.1-1.2-0.3-1.7
			c-0.2-0.5-0.4-0.8-0.8-1.1s-0.9-0.4-1.5-0.4c-0.6,0-1,0.1-1.4,0.4s-0.7,0.7-0.9,1.2C359.4,708.1,359.3,708.7,359.2,709.4
			L359.2,709.4z"/>
		<path class="st11" d="M370.8,718.9v-2.6l2.1-0.4v-9.8l-2.3-0.4v-2.6h6.3l0.2,2l0,0.4c0.4-0.9,0.9-1.5,1.5-1.9s1.3-0.7,2.1-0.7
			c0.3,0,0.5,0,0.8,0.1c0.3,0,0.6,0.1,0.8,0.2l-0.5,3.9l-2.1-0.1c-0.6,0-1.1,0.1-1.5,0.3s-0.7,0.6-1,1v7.8l2.1,0.4v2.6H370.8z"/>
		<path class="st11" d="M389.4,718.9l-4.8-13l-1.7-0.3v-2.6h7.7v2.6l-1.7,0.3l2.4,7.2l0.4,1.2h0.1l0.4-1.2l2.6-7.2l-1.9-0.3v-2.6
			h7.7v2.6l-1.8,0.3l-5,13H389.4z"/>
		<path class="st11" d="M401.6,718.9v-2.6l2.1-0.4v-9.8l-2.3-0.4v-2.6h6.6v12.8l2.1,0.4v2.6H401.6z M403.5,699.7V696h4.4v3.6H403.5z
			"/>
		<path class="st11" d="M418.9,719.2c-1.5,0-2.8-0.3-3.9-1c-1.1-0.7-2-1.6-2.6-2.8c-0.6-1.2-0.9-2.6-0.9-4.1v-0.4
			c0-1.6,0.3-2.9,0.9-4.1s1.5-2.1,2.6-2.8c1.1-0.7,2.4-1,3.9-1c1.4,0,2.7,0.2,3.7,0.7c1,0.4,1.9,1,2.5,1.5l0,4.5h-3.2l-0.6-2.8
			c-0.2-0.2-0.5-0.4-0.9-0.6s-0.7-0.2-1.1-0.2c-0.8,0-1.4,0.2-1.9,0.6c-0.5,0.4-0.9,0.9-1.1,1.7s-0.4,1.6-0.4,2.6v0.4
			c0,1.1,0.1,2,0.4,2.7c0.3,0.7,0.7,1.2,1.1,1.5s1,0.5,1.6,0.5c0.8,0,1.4-0.2,1.8-0.6c0.5-0.4,0.8-1,0.9-1.7h3.7l0,0.1
			c-0.2,1.1-0.5,2.1-1,2.9c-0.5,0.8-1.2,1.5-2.1,1.9C421.4,719,420.2,719.2,418.9,719.2z"/>
		<path class="st11" d="M434.9,719.2c-1.5,0-2.8-0.3-4-1s-2-1.6-2.6-2.8c-0.6-1.2-0.9-2.5-0.9-4v-0.6c0-1.6,0.3-3,0.9-4.2
			c0.6-1.2,1.4-2.2,2.5-2.9c1.1-0.7,2.3-1,3.8-1c1.4,0,2.6,0.3,3.6,0.8s1.7,1.4,2.2,2.4s0.8,2.4,0.8,3.9v2.3h-9.3l0,0.1
			c0.1,0.7,0.2,1.3,0.5,1.9c0.3,0.5,0.7,1,1.2,1.3c0.5,0.3,1.2,0.5,1.9,0.5c0.8,0,1.5-0.1,2.2-0.3s1.3-0.5,2-0.9l1.2,2.6
			c-0.7,0.5-1.5,1-2.5,1.3C437.3,719,436.1,719.2,434.9,719.2z M431.8,709.4h5.3V709c0-0.6-0.1-1.2-0.3-1.7
			c-0.2-0.5-0.4-0.8-0.8-1.1s-0.9-0.4-1.5-0.4c-0.6,0-1,0.1-1.4,0.4s-0.7,0.7-0.9,1.2C432,708.1,431.8,708.7,431.8,709.4
			L431.8,709.4z"/>
	</g>
</g>
<g>
	<g>
		<path class="st9" d="M244.9,225.2c-1.6,0-3-0.2-4.3-0.5s-2.6-1-3.8-1.8v-5.2h3.3l0.5,3c0.4,0.4,1,0.7,1.8,0.9s1.6,0.3,2.5,0.3
			c0.8,0,1.4-0.1,2-0.3s0.9-0.5,1.2-0.9s0.4-0.9,0.4-1.4c0-0.5-0.1-1-0.4-1.4s-0.7-0.8-1.2-1.1s-1.3-0.6-2.3-0.9
			c-1.7-0.5-3.1-1-4.2-1.6s-1.9-1.3-2.5-2.1s-0.8-1.8-0.8-3c0-1.2,0.3-2.2,1-3.1s1.5-1.6,2.7-2.1s2.4-0.8,3.9-0.8
			c1.6,0,3.1,0.2,4.4,0.6s2.4,1,3.3,1.7v4.8H249l-0.6-2.9c-0.4-0.2-0.9-0.4-1.5-0.6s-1.3-0.3-2.1-0.3c-0.7,0-1.3,0.1-1.8,0.3
			s-0.9,0.5-1.2,0.9s-0.5,0.9-0.5,1.4c0,0.5,0.1,0.9,0.4,1.3s0.7,0.7,1.3,1s1.5,0.7,2.6,1c2.4,0.7,4.1,1.5,5.4,2.6s1.8,2.5,1.8,4.2
			c0,1.2-0.3,2.3-1,3.1s-1.6,1.6-2.8,2S246.5,225.2,244.9,225.2z"/>
		<path class="st9" d="M262.2,225.2c-1.5,0-2.8-0.3-4-1s-2-1.6-2.6-2.8s-0.9-2.5-0.9-4v-0.6c0-1.6,0.3-3,0.9-4.2s1.4-2.2,2.5-2.9
			s2.3-1,3.8-1c1.4,0,2.6,0.3,3.6,0.8s1.7,1.4,2.2,2.4s0.8,2.4,0.8,3.9v2.3h-9.3l0,0.1c0.1,0.7,0.2,1.3,0.5,1.9s0.7,1,1.2,1.3
			s1.2,0.5,1.9,0.5c0.8,0,1.5-0.1,2.2-0.3s1.3-0.5,2-0.9l1.2,2.6c-0.7,0.5-1.5,1-2.5,1.3S263.5,225.2,262.2,225.2z M259.1,215.4h5.3
			V215c0-0.6-0.1-1.2-0.3-1.7s-0.4-0.8-0.8-1.1s-0.9-0.4-1.5-0.4c-0.6,0-1,0.1-1.4,0.4s-0.7,0.7-0.9,1.2S259.1,214.7,259.1,215.4
			L259.1,215.4z"/>
		<path class="st9" d="M270.7,224.9v-2.6l2.1-0.4v-9.8l-2.3-0.4v-2.6h6.3l0.2,2l0,0.4c0.4-0.9,0.9-1.5,1.5-1.9s1.3-0.7,2.1-0.7
			c0.3,0,0.5,0,0.8,0.1s0.6,0.1,0.8,0.2l-0.5,3.9l-2.1-0.1c-0.6,0-1.1,0.1-1.5,0.3s-0.7,0.6-1,1v7.8l2.1,0.4v2.6H270.7z"/>
		<path class="st9" d="M289.3,224.9l-4.8-13l-1.7-0.3v-2.6h7.7v2.6l-1.7,0.3l2.4,7.2l0.4,1.2h0.1l0.4-1.2l2.6-7.2l-1.9-0.3v-2.6h7.7
			v2.6l-1.8,0.3l-5,13H289.3z"/>
		<path class="st9" d="M301.5,224.9v-2.6l2.1-0.4v-9.8l-2.3-0.4v-2.6h6.6v12.8l2.1,0.4v2.6H301.5z M303.4,205.7V202h4.4v3.6H303.4z"
			/>
		<path class="st9" d="M318.8,225.2c-1.5,0-2.8-0.3-3.9-1s-2-1.6-2.6-2.8s-0.9-2.6-0.9-4.1v-0.4c0-1.6,0.3-2.9,0.9-4.1
			s1.5-2.1,2.6-2.8s2.4-1,3.9-1c1.4,0,2.7,0.2,3.7,0.7s1.9,1,2.5,1.5l0,4.5h-3.2l-0.6-2.8c-0.2-0.2-0.5-0.4-0.9-0.6
			s-0.7-0.2-1.1-0.2c-0.8,0-1.4,0.2-1.9,0.6s-0.9,0.9-1.1,1.7s-0.4,1.6-0.4,2.6v0.4c0,1.1,0.1,2,0.4,2.7s0.7,1.2,1.1,1.5
			s1,0.5,1.6,0.5c0.8,0,1.4-0.2,1.8-0.6s0.8-1,0.9-1.7h3.7l0,0.1c-0.2,1.1-0.5,2.1-1,2.9s-1.2,1.5-2.1,1.9S320.1,225.2,318.8,225.2z
			"/>
		<path class="st9" d="M334.7,225.2c-1.5,0-2.8-0.3-4-1s-2-1.6-2.6-2.8s-0.9-2.5-0.9-4v-0.6c0-1.6,0.3-3,0.9-4.2s1.4-2.2,2.5-2.9
			s2.3-1,3.8-1c1.4,0,2.6,0.3,3.6,0.8s1.7,1.4,2.2,2.4s0.8,2.4,0.8,3.9v2.3h-9.3l0,0.1c0.1,0.7,0.2,1.3,0.5,1.9s0.7,1,1.2,1.3
			s1.2,0.5,1.9,0.5c0.8,0,1.5-0.1,2.2-0.3s1.3-0.5,2-0.9l1.2,2.6c-0.7,0.5-1.5,1-2.5,1.3S336,225.2,334.7,225.2z M331.7,215.4h5.3
			V215c0-0.6-0.1-1.2-0.3-1.7s-0.4-0.8-0.8-1.1s-0.9-0.4-1.5-0.4c-0.6,0-1,0.1-1.4,0.4s-0.7,0.7-0.9,1.2S331.7,214.7,331.7,215.4
			L331.7,215.4z"/>
	</g>
</g>
</svg>
