<svg id="Ebene_1" data-name="Ebene 1" xmlns="http://www.w3.org/2000/svg" xmlns:xlink="http://www.w3.org/1999/xlink" viewBox="0 0 1840 403"><defs><style>.cls-1,.cls-13,.cls-4,.cls-6{fill:none;}.cls-2,.cls-4,.cls-6,.cls-8,.cls-9{stroke:#fc0;}.cls-2,.cls-4,.cls-8,.cls-9{stroke-miterlimit:10;stroke-width:8px;}.cls-2{fill:url(#Unbenannter_Verlauf_5);}.cls-12,.cls-3{fill:#fff;}.cls-5{fill:#306;}.cls-12,.cls-13,.cls-6{stroke-linecap:round;stroke-linejoin:round;stroke-width:6px;}.cls-7{fill:#fc0;}.cls-8{fill:url(#Unbenannter_Verlauf_5-2);}.cls-9{fill:url(#Unbenannter_Verlauf_5-3);}.cls-10{clip-path:url(#clip-path);}.cls-11{fill:#ffd138;}.cls-12,.cls-13{stroke:#ffcb03;}.cls-14{fill:#ffcb03;}</style><linearGradient id="Unbenannter_Verlauf_5" x1="505.24" y1="204.5" x2="868.59" y2="204.5" gradientUnits="userSpaceOnUse"><stop offset="0" stop-color="#906"/><stop offset="0.19" stop-color="#780066"/><stop offset="0.4" stop-color="#5a0066"/><stop offset="0.61" stop-color="#406"/><stop offset="0.81" stop-color="#370066"/><stop offset="1" stop-color="#306"/></linearGradient><linearGradient id="Unbenannter_Verlauf_5-2" x1="1414.22" x2="1777.58" xlink:href="#Unbenannter_Verlauf_5"/><linearGradient id="Unbenannter_Verlauf_5-3" x1="57.24" x2="420.59" xlink:href="#Unbenannter_Verlauf_5"/><clipPath id="clip-path"><rect class="cls-1" x="277" y="345" width="122.55" height="24"/></clipPath></defs><rect class="cls-2" x="505.24" y="130" width="363.36" height="149" rx="8"/><path class="cls-3" d="M645,197.08a5.52,5.52,0,0,1-1.85,1.64,5.18,5.18,0,0,1-2.43.56,5.78,5.78,0,0,1-4.76-2.1,8.56,8.56,0,0,1-1.69-5.54v-.31a9.64,9.64,0,0,1,1.7-5.93,5.64,5.64,0,0,1,4.78-2.25,4.86,4.86,0,0,1,2.24.51,5.41,5.41,0,0,1,1.74,1.44v-5.57l-2.39-.43v-2.53h6.87V196l2.14.43V199h-6Zm-6.26-5.44a6.1,6.1,0,0,0,.73,3.21,2.59,2.59,0,0,0,2.38,1.17,3.61,3.61,0,0,0,1.7-.38,3,3,0,0,0,1.18-1.07V188a3.17,3.17,0,0,0-2.85-1.56,2.53,2.53,0,0,0-2.39,1.36,7.38,7.38,0,0,0-.75,3.56Z"/><path class="cls-3" d="M660.74,199.28a7.71,7.71,0,0,1-5.73-2.16,7.42,7.42,0,0,1-2.15-5.47v-.57a8.17,8.17,0,0,1,2-5.7,7.94,7.94,0,0,1,10.66-.34,7.06,7.06,0,0,1,1.85,5.13v2.29h-9.9l0,.08a3.91,3.91,0,0,0,1.1,2.53,3.54,3.54,0,0,0,2.64,1,9.08,9.08,0,0,0,2.47-.28,12,12,0,0,0,2.14-.88l1.21,2.58a9.09,9.09,0,0,1-2.65,1.28A12.21,12.21,0,0,1,660.74,199.28Zm-.4-12.9a2.39,2.39,0,0,0-2,.89,4.42,4.42,0,0,0-.89,2.34l0,.07H663v-.37a3.18,3.18,0,0,0-.67-2.13A2.47,2.47,0,0,0,660.34,186.38Z"/><path class="cls-3" d="M669.18,186v-2.52h6.5l.21,1.81a5.32,5.32,0,0,1,1.76-1.56,5.07,5.07,0,0,1,2.39-.54,5.63,5.63,0,0,1,4.78,2.25,9.57,9.57,0,0,1,1.7,5.93v.31a8.5,8.5,0,0,1-1.7,5.54,5.76,5.76,0,0,1-4.75,2.1,5.63,5.63,0,0,1-2.31-.46A4.74,4.74,0,0,1,676,197.5V202l2.16.43V205h-8.78v-2.53l2.16-.43v-15.6Zm12.87,5.37a7.14,7.14,0,0,0-.78-3.56,2.57,2.57,0,0,0-2.39-1.36,3.57,3.57,0,0,0-1.73.39,2.76,2.76,0,0,0-1.12,1.1v6.81a2.65,2.65,0,0,0,1.12,1,4,4,0,0,0,1.76.35,2.62,2.62,0,0,0,2.38-1.19,5.94,5.94,0,0,0,.76-3.23Z"/><path class="cls-3" d="M687.73,179.1v-2.53h6.87V196l2.16.43V199H688v-2.51l2.17-.43v-16.5Z"/><path class="cls-3" d="M697.91,191.06a8,8,0,0,1,2.08-5.69,7.45,7.45,0,0,1,5.73-2.22,7.53,7.53,0,0,1,5.76,2.21,8,8,0,0,1,2.07,5.7v.3a8,8,0,0,1-2.07,5.71,8.57,8.57,0,0,1-11.49,0,8,8,0,0,1-2.08-5.71Zm4.47.3a6.4,6.4,0,0,0,.8,3.41,3.18,3.18,0,0,0,5.11,0,6.35,6.35,0,0,0,.81-3.41v-.3a6.3,6.3,0,0,0-.82-3.37,2.79,2.79,0,0,0-2.56-1.31,2.76,2.76,0,0,0-2.54,1.31,6.39,6.39,0,0,0-.8,3.37Z"/><path class="cls-3" d="M732.43,186l-1.55.22-6.09,15.12a8.41,8.41,0,0,1-1.93,2.82,5.13,5.13,0,0,1-3.62,1.13,6.1,6.1,0,0,1-1.07-.09q-.49-.07-1.17-.24l.52-3.06.45.06.4,0a2.57,2.57,0,0,0,1.71-.51,3.36,3.36,0,0,0,.92-1.27l.51-1.18-5.26-12.8L714.7,186v-2.52h8.12V186l-1.85.29,2.27,6.21.23,1.12h.09l2.62-7.34-1.87-.29v-2.52h8.12Z"/><path class="cls-3" d="M607.44,234.27v-2.52l2.38-.43v-15l-2.38-.43v-2.53h9.24v2.53l-2.39.43v14.73h6.3l.22-2.63h3.41v5.85Z"/><path class="cls-3" d="M625.6,231.75l1.59-.21L634,213.36h4.58l6.75,18.18,1.59.21v2.52h-7.6v-2.52l1.55-.25-1-2.88h-7.24l-1,2.88,1.55.25v2.52h-7.6Zm8.09-6.21h5.12l-2.51-7.37h-.1Z"/><path class="cls-3" d="M665.32,220H662l-.58-2.88a6.19,6.19,0,0,0-1.7-.6,10.72,10.72,0,0,0-2.38-.26,4.75,4.75,0,0,0-2.84.73,2.21,2.21,0,0,0-1,1.87,2,2,0,0,0,1,1.75,15.45,15.45,0,0,0,3.62,1.44,14.56,14.56,0,0,1,5.6,2.54,5.15,5.15,0,0,1,1.91,4.15,4.88,4.88,0,0,1-2.27,4.24,10.41,10.41,0,0,1-6,1.55,13.63,13.63,0,0,1-4.79-.79A10,10,0,0,1,649,231.6v-4.37h3.47l.47,3a5.57,5.57,0,0,0,1.83.86,9.44,9.44,0,0,0,2.59.34,4.67,4.67,0,0,0,2.79-.71,2.21,2.21,0,0,0,1-1.88,2.37,2.37,0,0,0-.91-1.94,9.43,9.43,0,0,0-3.2-1.38,18.77,18.77,0,0,1-6-2.55,4.74,4.74,0,0,1-2-4.05,4.9,4.9,0,0,1,2.3-4.16,10,10,0,0,1,5.77-1.66,14.47,14.47,0,0,1,4.69.73,11,11,0,0,1,3.56,2Z"/><path class="cls-3" d="M683,231.35a2.73,2.73,0,0,0,1.92-.65,2.25,2.25,0,0,0,.72-1.74h4l0,.08a4.73,4.73,0,0,1-1.88,3.94,7.41,7.41,0,0,1-4.85,1.59,7.33,7.33,0,0,1-5.71-2.2,8,8,0,0,1-2-5.64v-.43a8,8,0,0,1,2.06-5.65,7.68,7.68,0,0,1,5.88-2.21,10.88,10.88,0,0,1,3.6.56,7.25,7.25,0,0,1,2.65,1.58l.06,4.15h-3.63l-.73-2.42a2.88,2.88,0,0,0-.83-.46,3.25,3.25,0,0,0-1.12-.18,2.86,2.86,0,0,0-2.68,1.3,6.36,6.36,0,0,0-.78,3.33v.43a6.74,6.74,0,0,0,.72,3.35A2.64,2.64,0,0,0,683,231.35Z"/><path class="cls-3" d="M691.49,231.75l2.16-.43v-16.5l-2.39-.43v-2.52h6.85v8.84A5.54,5.54,0,0,1,700,219a5.33,5.33,0,0,1,2.52-.6,5.26,5.26,0,0,1,4.08,1.62c1,1.07,1.48,2.74,1.48,5v6.27l2.14.43v2.52h-8.55v-2.52l1.93-.43V225a3.76,3.76,0,0,0-.68-2.56,2.57,2.57,0,0,0-2-.76,4,4,0,0,0-1.63.32,3.23,3.23,0,0,0-1.17.89v8.41l1.93.43v2.52h-8.55Z"/><path class="cls-3" d="M722.24,234.27a7.85,7.85,0,0,1-.32-.8,6.17,6.17,0,0,1-.21-.82,6.41,6.41,0,0,1-1.94,1.39,6.22,6.22,0,0,1-2.62.53,5.67,5.67,0,0,1-3.86-1.24,4.24,4.24,0,0,1-1.44-3.38,3.8,3.8,0,0,1,1.87-3.38,10.36,10.36,0,0,1,5.49-1.19h2.28v-1.52a2.21,2.21,0,0,0-.69-1.74,3,3,0,0,0-2-.62,5.11,5.11,0,0,0-1.36.17,3.9,3.9,0,0,0-1,.39l-.29,1.67h-3.37l0-3.45A12.81,12.81,0,0,1,715.6,219a10.94,10.94,0,0,1,3.45-.53,8.22,8.22,0,0,1,5,1.42,4.7,4.7,0,0,1,1.92,4v6.41c0,.24,0,.47,0,.68a3.83,3.83,0,0,0,0,.6l1.37.17v2.52Zm-3.88-2.8a4.11,4.11,0,0,0,1.84-.41,3.55,3.55,0,0,0,1.29-1v-2.37h-2.28a3.24,3.24,0,0,0-2.16.63,1.89,1.89,0,0,0-.74,1.5,1.48,1.48,0,0,0,.55,1.23A2.28,2.28,0,0,0,718.36,231.47Z"/><path class="cls-3" d="M729.26,231.75l2.14-.43v-9.63l-2.37-.43v-2.53h6.54l.2,2.27a4.93,4.93,0,0,1,1.5-1.88,3.54,3.54,0,0,1,2.13-.68,6.59,6.59,0,0,1,.75.05,5.71,5.71,0,0,1,.65.13l-.48,3.81-1.84,0a3.29,3.29,0,0,0-1.62.36,2.35,2.35,0,0,0-1,1v7.55l2.14.43v2.52h-8.76Z"/><path class="cls-3" d="M749.1,214.92v3.81H752v2.94H749.1v7.92a1.73,1.73,0,0,0,.4,1.29,1.47,1.47,0,0,0,1.07.39c.31,0,.58,0,.81,0a6.66,6.66,0,0,0,.77-.12l.38,3a11.54,11.54,0,0,1-1.48.32,11.28,11.28,0,0,1-1.6.11,5,5,0,0,1-3.56-1.19,5,5,0,0,1-1.25-3.78v-7.93h-2.43v-2.94h2.43v-3.81Z"/><path class="cls-3" d="M758.39,220.4l-4.63-1.28.87-2.54,4.55,1.76-.27-5h2.88l-.31,5.07,4.46-1.72.86,2.58-4.69,1.28,3.07,3.8L762.86,226l-2.68-4.16-2.65,4-2.33-1.52Z"/><rect class="cls-4" x="955.22" y="130" width="363.36" height="149" rx="8"/><path class="cls-5" d="M58,352.1l.66,1,.48,1.4.56-1.43.64-1,1.28.65-.69,1.08-1.23,1.2,1.82-.3h1.28v1.4H61.55l-1.71-.3,1.23,1.2.62,1-1.26.7-.69-1.05-.62-1.52-.5,1.45-.67,1-1.33-.7.72-1.05,1.12-1-1.55.3H55.58v-1.4h1.33l1.65.3-1.2-1.1-.69-1.15Z"/><path class="cls-5" d="M72.22,359.4a5,5,0,0,0-1.52-.25,2.65,2.65,0,0,0-1.81.59,2.48,2.48,0,0,0-.83,1.48V370H65.93v-12.5h1.49l.4,1.53h.11a3.84,3.84,0,0,1,1.21-1.31,3.21,3.21,0,0,1,1.8-.47,7.21,7.21,0,0,1,1.73.25Z"/><path class="cls-5" d="M84.73,369a5.87,5.87,0,0,1-2,.95,9,9,0,0,1-2.58.35,6.88,6.88,0,0,1-2.64-.46,4.78,4.78,0,0,1-1.84-1.32,5.81,5.81,0,0,1-1.07-2.07,9.78,9.78,0,0,1-.34-2.7,7,7,0,0,1,1.52-4.87,5.56,5.56,0,0,1,4.35-1.68,9.27,9.27,0,0,1,1.81.19,4.27,4.27,0,0,1,1.63.71,3.78,3.78,0,0,1,1.17,1.49,6.05,6.05,0,0,1,.45,2.54,11.13,11.13,0,0,1-.16,1.82H76.46a7.25,7.25,0,0,0,.24,2,3.69,3.69,0,0,0,.75,1.43,3.3,3.3,0,0,0,1.32.9,5.51,5.51,0,0,0,2,.31,5.72,5.72,0,0,0,1.81-.3,3.9,3.9,0,0,0,1.36-.7Zm-4.59-10.05a3.83,3.83,0,0,0-2.52.78,3.75,3.75,0,0,0-1.13,2.65H83.1a3.65,3.65,0,0,0-.77-2.66A3,3,0,0,0,80.14,358.92Z"/><path class="cls-5" d="M98.47,375H96.33v-6.25h-.1a3.67,3.67,0,0,1-1.35,1.16,5,5,0,0,1-2.15.39,4.75,4.75,0,0,1-3.94-1.58,7.74,7.74,0,0,1-1.28-4.92A5.8,5.8,0,0,1,94,357.25a13.18,13.18,0,0,1,2.65.25,9.06,9.06,0,0,1,1.83.52Zm-5.36-6.45a3.24,3.24,0,0,0,2.13-.64,3.62,3.62,0,0,0,1.09-2v-6.41a6.45,6.45,0,0,0-2.72-.47,3.63,3.63,0,0,0-2.86,1.16,5.29,5.29,0,0,0-1,3.59,9.05,9.05,0,0,0,.19,1.94,4.58,4.58,0,0,0,.58,1.51,2.84,2.84,0,0,0,1,1A3.18,3.18,0,0,0,93.11,368.52Z"/><path class="cls-5" d="M104.5,357.47v7.13a10.73,10.73,0,0,0,.12,1.71,3.42,3.42,0,0,0,.41,1.23,1.82,1.82,0,0,0,.8.73,2.83,2.83,0,0,0,1.28.25,3.62,3.62,0,0,0,1.28-.21,3.34,3.34,0,0,0,1-.59,4.23,4.23,0,0,0,.77-.86,4.5,4.5,0,0,0,.55-1v-8.35h2.13v8.95c0,.6,0,1.23.07,1.87a11.77,11.77,0,0,0,.23,1.68h-1.47l-.53-2H111a5,5,0,0,1-1.65,1.62,4.83,4.83,0,0,1-2.64.65,6.67,6.67,0,0,1-1.88-.23,2.91,2.91,0,0,1-1.36-.84,3.89,3.89,0,0,1-.83-1.61,10.17,10.17,0,0,1-.28-2.57v-7.55Z"/><path class="cls-5" d="M117,353.67a1.32,1.32,0,0,1,.42-1,1.39,1.39,0,0,1,1-.42,1.53,1.53,0,0,1,1.09.42,1.29,1.29,0,0,1,.46,1,1.17,1.17,0,0,1-.46.95,1.59,1.59,0,0,1-1.09.38,1.44,1.44,0,0,1-1-.38A1.19,1.19,0,0,1,117,353.67Zm.46,3.8h2.13V370h-2.13Z"/><path class="cls-5" d="M130.4,359.4a5,5,0,0,0-1.52-.25,2.67,2.67,0,0,0-1.82.59,2.53,2.53,0,0,0-.83,1.48V370H124.1v-12.5h1.49L126,359h.11a3.94,3.94,0,0,1,1.21-1.31,3.27,3.27,0,0,1,1.81-.47,7.28,7.28,0,0,1,1.73.25Z"/><path class="cls-5" d="M142.91,369a6,6,0,0,1-2,.95,9,9,0,0,1-2.57.35,6.81,6.81,0,0,1-2.64-.46,4.7,4.7,0,0,1-1.84-1.32,5.66,5.66,0,0,1-1.07-2.07,9.76,9.76,0,0,1-.35-2.7,7,7,0,0,1,1.52-4.87,5.58,5.58,0,0,1,4.35-1.68,9.19,9.19,0,0,1,1.81.19,4.2,4.2,0,0,1,1.63.71,3.89,3.89,0,0,1,1.18,1.49,6.05,6.05,0,0,1,.45,2.54,11.13,11.13,0,0,1-.16,1.82h-8.56a7.25,7.25,0,0,0,.24,2,3.81,3.81,0,0,0,.74,1.43,3.3,3.3,0,0,0,1.32.9,5.58,5.58,0,0,0,2,.31,5.78,5.78,0,0,0,1.82-.3,4,4,0,0,0,1.36-.7Zm-4.59-10.05a3.3,3.3,0,0,0-3.66,3.43h6.62a3.64,3.64,0,0,0-.78-2.66A3,3,0,0,0,138.32,358.92Z"/><path class="cls-5" d="M152.59,366.57a1.47,1.47,0,0,0-.48-1.17,4.17,4.17,0,0,0-1.19-.71c-.47-.19-1-.38-1.55-.55a7.41,7.41,0,0,1-1.54-.68,3.9,3.9,0,0,1-1.19-1.06,2.88,2.88,0,0,1-.48-1.75,3.11,3.11,0,0,1,1.09-2.64,4.9,4.9,0,0,1,3-.84,10.34,10.34,0,0,1,2.42.24,10.45,10.45,0,0,1,1.69.56l-.5,1.65a9,9,0,0,0-1.49-.48,7.75,7.75,0,0,0-1.85-.22,3.08,3.08,0,0,0-1.72.38,1.47,1.47,0,0,0-.55,1.3,1.19,1.19,0,0,0,.48,1,5.3,5.3,0,0,0,1.19.65c.47.19,1,.38,1.55.56a7,7,0,0,1,1.54.73,4,4,0,0,1,1.19,1.14,3.1,3.1,0,0,1,.48,1.81,4,4,0,0,1-.28,1.5,2.93,2.93,0,0,1-.86,1.2,4.43,4.43,0,0,1-1.46.79,6.58,6.58,0,0,1-2,.28,10.73,10.73,0,0,1-2.59-.27,8.25,8.25,0,0,1-1.78-.65l.64-1.7a7.72,7.72,0,0,0,1.6.6,7.48,7.48,0,0,0,2,.27,3.83,3.83,0,0,0,1.89-.42A1.6,1.6,0,0,0,152.59,366.57Z"/><path class="cls-5" d="M164.86,358.4a7.92,7.92,0,0,1,2.36-.85,14.24,14.24,0,0,1,2.81-.28,6,6,0,0,1,2.23.35,3.09,3.09,0,0,1,1.28.92,3.05,3.05,0,0,1,.59,1.23,6.88,6.88,0,0,1,.14,1.35c0,1,0,2-.08,2.93s-.08,1.85-.08,2.7c0,.62,0,1.2.08,1.75a7.58,7.58,0,0,0,.3,1.52h-1.58l-.56-1.75h-.13a3.8,3.8,0,0,1-.6.69,3.52,3.52,0,0,1-.87.6,5.49,5.49,0,0,1-1.17.44,5.89,5.89,0,0,1-1.52.17,4.82,4.82,0,0,1-1.59-.25,3.67,3.67,0,0,1-1.27-.71,3.54,3.54,0,0,1-.84-1.11,3.49,3.49,0,0,1-.3-1.48,3.28,3.28,0,0,1,.48-1.83,3.43,3.43,0,0,1,1.34-1.18A7,7,0,0,1,168,363a16.89,16.89,0,0,1,2.68-.19h.73a6.11,6.11,0,0,1,.73.05,11.27,11.27,0,0,0,.08-1.35,2.59,2.59,0,0,0-.58-1.93,3.2,3.2,0,0,0-2.14-.55,8.68,8.68,0,0,0-1,.07c-.35,0-.7.1-1.07.18a10.52,10.52,0,0,0-1,.28,6,6,0,0,0-.87.37Zm3.79,10a4.55,4.55,0,0,0,1.33-.18,4.12,4.12,0,0,0,1-.48,2.94,2.94,0,0,0,.71-.64,2.57,2.57,0,0,0,.41-.67v-2.07l-.76,0-.76,0a14.08,14.08,0,0,0-1.61.09,5.35,5.35,0,0,0-1.39.33,2.4,2.4,0,0,0-1,.65,1.5,1.5,0,0,0-.36,1,1.77,1.77,0,0,0,.67,1.44A2.52,2.52,0,0,0,168.65,368.42Z"/><path class="cls-5" d="M187.4,369.15a6,6,0,0,1-1.9.84,9,9,0,0,1-2.29.28,6.52,6.52,0,0,1-2.61-.46,4.39,4.39,0,0,1-1.75-1.32,5.66,5.66,0,0,1-1-2.08,11.17,11.17,0,0,1-.31-2.69,7.1,7.1,0,0,1,1.5-4.86,5.44,5.44,0,0,1,4.29-1.69,11.18,11.18,0,0,1,2.18.19,7.42,7.42,0,0,1,1.61.54l-.61,1.72a6.38,6.38,0,0,0-3-.7q-3.8,0-3.79,4.8a7.69,7.69,0,0,0,.2,1.82,4.11,4.11,0,0,0,.67,1.52,3.39,3.39,0,0,0,1.22,1.06,4,4,0,0,0,1.88.4,5.09,5.09,0,0,0,1.72-.27,4.62,4.62,0,0,0,1.24-.63Z"/><path class="cls-5" d="M198.81,369.15a5.84,5.84,0,0,1-1.89.84,9,9,0,0,1-2.29.28,6.54,6.54,0,0,1-2.62-.46,4.54,4.54,0,0,1-1.75-1.32,5.49,5.49,0,0,1-1-2.08,10.69,10.69,0,0,1-.31-2.69,7.15,7.15,0,0,1,1.49-4.86,5.46,5.46,0,0,1,4.3-1.69,11.07,11.07,0,0,1,2.17.19,7.33,7.33,0,0,1,1.62.54l-.62,1.72a6.62,6.62,0,0,0-1.36-.51,6.75,6.75,0,0,0-1.6-.19q-3.78,0-3.78,4.8a7.69,7.69,0,0,0,.2,1.82,4.26,4.26,0,0,0,.66,1.52,3.34,3.34,0,0,0,1.23,1.06,4,4,0,0,0,1.88.4,5.13,5.13,0,0,0,1.72-.27,4.62,4.62,0,0,0,1.24-.63Z"/><path class="cls-5" d="M210.87,369a5.87,5.87,0,0,1-2,.95,9,9,0,0,1-2.58.35,6.88,6.88,0,0,1-2.64-.46,4.78,4.78,0,0,1-1.84-1.32,5.81,5.81,0,0,1-1.07-2.07,9.78,9.78,0,0,1-.34-2.7,7,7,0,0,1,1.52-4.87,5.56,5.56,0,0,1,4.35-1.68,9.35,9.35,0,0,1,1.81.19,4.27,4.27,0,0,1,1.63.71,3.78,3.78,0,0,1,1.17,1.49,6.05,6.05,0,0,1,.45,2.54,11.13,11.13,0,0,1-.16,1.82H202.6a7.25,7.25,0,0,0,.24,2,3.69,3.69,0,0,0,.75,1.43,3.3,3.3,0,0,0,1.32.9,5.51,5.51,0,0,0,2,.31,5.77,5.77,0,0,0,1.81-.3,3.9,3.9,0,0,0,1.36-.7Zm-4.59-10.05a3.83,3.83,0,0,0-2.52.78,3.75,3.75,0,0,0-1.13,2.65h6.61a3.65,3.65,0,0,0-.77-2.66A3,3,0,0,0,206.28,358.92Z"/><path class="cls-5" d="M220.55,366.57a1.47,1.47,0,0,0-.48-1.17,4.11,4.11,0,0,0-1.18-.71c-.48-.19-1-.38-1.55-.55a7.5,7.5,0,0,1-1.55-.68,3.9,3.9,0,0,1-1.19-1.06,2.88,2.88,0,0,1-.48-1.75,3.12,3.12,0,0,1,1.1-2.64,4.88,4.88,0,0,1,3-.84,10.25,10.25,0,0,1,2.41.24,10.59,10.59,0,0,1,1.7.56l-.51,1.65a8.89,8.89,0,0,0-1.48-.48,7.88,7.88,0,0,0-1.85-.22,3.06,3.06,0,0,0-1.72.38,1.45,1.45,0,0,0-.55,1.3,1.19,1.19,0,0,0,.48,1,5.08,5.08,0,0,0,1.19.65c.47.19,1,.38,1.54.56a7.12,7.12,0,0,1,1.55.73,4.17,4.17,0,0,1,1.19,1.14,3.1,3.1,0,0,1,.48,1.81,4.16,4.16,0,0,1-.28,1.5,3,3,0,0,1-.87,1.2,4.38,4.38,0,0,1-1.45.79,6.58,6.58,0,0,1-2,.28,10.67,10.67,0,0,1-2.59-.27,8.36,8.36,0,0,1-1.79-.65l.64-1.7a7.72,7.72,0,0,0,1.6.6,7.59,7.59,0,0,0,2,.27,3.84,3.84,0,0,0,1.9-.42A1.61,1.61,0,0,0,220.55,366.57Z"/><path class="cls-5" d="M231.78,366.57a1.47,1.47,0,0,0-.48-1.17,4.11,4.11,0,0,0-1.18-.71c-.48-.19-1-.38-1.55-.55a7.5,7.5,0,0,1-1.55-.68,3.9,3.9,0,0,1-1.19-1.06,2.88,2.88,0,0,1-.48-1.75,3.12,3.12,0,0,1,1.1-2.64,4.88,4.88,0,0,1,3-.84,10.25,10.25,0,0,1,2.41.24,10.59,10.59,0,0,1,1.7.56l-.51,1.65a8.89,8.89,0,0,0-1.48-.48,7.88,7.88,0,0,0-1.85-.22,3.12,3.12,0,0,0-1.73.38,1.47,1.47,0,0,0-.54,1.3,1.19,1.19,0,0,0,.48,1,5.08,5.08,0,0,0,1.19.65c.47.19,1,.38,1.54.56a7.12,7.12,0,0,1,1.55.73,4.17,4.17,0,0,1,1.19,1.14,3.1,3.1,0,0,1,.48,1.81,4.16,4.16,0,0,1-.28,1.5,3,3,0,0,1-.87,1.2,4.38,4.38,0,0,1-1.45.79,6.6,6.6,0,0,1-2,.28,10.64,10.64,0,0,1-2.58-.27,8.36,8.36,0,0,1-1.79-.65l.64-1.7a7.72,7.72,0,0,0,1.6.6,7.59,7.59,0,0,0,2,.27,3.84,3.84,0,0,0,1.9-.42A1.61,1.61,0,0,0,231.78,366.57Z"/><path class="cls-5" d="M242.51,357.47h2.08V355l2.13-.58v3.05h3.63v1.75h-3.63v6.93a3.58,3.58,0,0,0,.35,1.84,1.27,1.27,0,0,0,1.17.53,4.39,4.39,0,0,0,1.17-.13c.32-.09.68-.22,1.07-.37l.48,1.53a8,8,0,0,1-1.57.52,7.75,7.75,0,0,1-1.84.2,2.73,2.73,0,0,1-2.3-.86,4.82,4.82,0,0,1-.66-2.89v-7.3h-2.08Z"/><path class="cls-5" d="M252.27,363.72a7.1,7.1,0,0,1,1.5-4.86,5.54,5.54,0,0,1,4.34-1.69,6.7,6.7,0,0,1,2.6.47,4.74,4.74,0,0,1,1.83,1.32A5.61,5.61,0,0,1,263.6,361a9.77,9.77,0,0,1,.35,2.68,7.07,7.07,0,0,1-1.51,4.87,5.51,5.51,0,0,1-4.33,1.68,6.67,6.67,0,0,1-2.6-.46,4.74,4.74,0,0,1-1.83-1.32,5.78,5.78,0,0,1-1.07-2.08A9.8,9.8,0,0,1,252.27,363.72Zm2.21,0a8.34,8.34,0,0,0,.2,1.83,4.43,4.43,0,0,0,.63,1.52,3.14,3.14,0,0,0,1.12,1.05,3.27,3.27,0,0,0,1.68.4q3.63,0,3.63-4.8a8.37,8.37,0,0,0-.2-1.84,4.82,4.82,0,0,0-.63-1.53,3.2,3.2,0,0,0-1.12-1,3.37,3.37,0,0,0-1.68-.39Q254.48,358.91,254.48,363.72Z"/><path class="cls-5" d="M416.66,358.4a8,8,0,0,1,2.36-.85,14.34,14.34,0,0,1,2.82-.28,5.93,5.93,0,0,1,2.22.35,3.09,3.09,0,0,1,1.28.92,2.93,2.93,0,0,1,.59,1.23,6.21,6.21,0,0,1,.15,1.35c0,1,0,2-.08,2.93s-.08,1.85-.08,2.7a16.2,16.2,0,0,0,.08,1.75,7.59,7.59,0,0,0,.29,1.52h-1.57l-.56-1.75H424a3.8,3.8,0,0,1-.6.69,3.66,3.66,0,0,1-.86.6,5.59,5.59,0,0,1-1.18.44,5.84,5.84,0,0,1-1.52.17,4.82,4.82,0,0,1-1.59-.25,3.62,3.62,0,0,1-1.26-.71,3.27,3.27,0,0,1-.84-1.11,3.35,3.35,0,0,1-.31-1.48,3.28,3.28,0,0,1,.48-1.83,3.39,3.39,0,0,1,1.35-1.18,6.89,6.89,0,0,1,2.08-.62,17,17,0,0,1,2.68-.19h.73a6.27,6.27,0,0,1,.74.05c.05-.5.08-1,.08-1.35a2.59,2.59,0,0,0-.59-1.93,3.17,3.17,0,0,0-2.13-.55,8.68,8.68,0,0,0-1,.07,10.68,10.68,0,0,0-1.06.18,10,10,0,0,0-1.05.28,6.34,6.34,0,0,0-.86.37Zm3.79,10a4.51,4.51,0,0,0,1.33-.18,4.38,4.38,0,0,0,1-.48,2.89,2.89,0,0,0,.7-.64,2.63,2.63,0,0,0,.42-.67v-2.07l-.76,0-.76,0a14.26,14.26,0,0,0-1.62.09,5.37,5.37,0,0,0-1.38.33,2.4,2.4,0,0,0-1,.65,1.46,1.46,0,0,0-.36,1,1.79,1.79,0,0,0,.66,1.44A2.55,2.55,0,0,0,420.45,368.42Z"/><path class="cls-5" d="M430.1,357.47h1.47l.4,1.5h.11a4,4,0,0,1,1.59-1.33,5.87,5.87,0,0,1,6.2,1q1.31,1.47,1.3,4.82a8.42,8.42,0,0,1-.44,2.84,5.94,5.94,0,0,1-1.24,2.14,5.43,5.43,0,0,1-1.93,1.35,6.43,6.43,0,0,1-2.52.47,8.07,8.07,0,0,1-1.56-.11,5.84,5.84,0,0,1-1.24-.39V375H430.1Zm5.39,1.45a3.22,3.22,0,0,0-2.14.67,3.57,3.57,0,0,0-1.11,2v6.2a3.83,3.83,0,0,0,1.09.54,6,6,0,0,0,1.63.18,3.6,3.6,0,0,0,2.92-1.28,5.77,5.77,0,0,0,1.08-3.79,8.25,8.25,0,0,0-.19-1.86,3.79,3.79,0,0,0-.6-1.43,2.83,2.83,0,0,0-1.06-.91A3.6,3.6,0,0,0,435.49,358.92Z"/><path class="cls-5" d="M444.53,357.47H446l.4,1.5h.11a4,4,0,0,1,1.59-1.33,5.87,5.87,0,0,1,6.2,1q1.31,1.47,1.3,4.82a8.42,8.42,0,0,1-.44,2.84,5.94,5.94,0,0,1-1.24,2.14A5.43,5.43,0,0,1,452,369.8a6.43,6.43,0,0,1-2.52.47,8.07,8.07,0,0,1-1.56-.11,5.84,5.84,0,0,1-1.24-.39V375h-2.14Zm5.39,1.45a3.22,3.22,0,0,0-2.14.67,3.57,3.57,0,0,0-1.11,2v6.2a3.83,3.83,0,0,0,1.09.54,6,6,0,0,0,1.63.18,3.6,3.6,0,0,0,2.92-1.28,5.77,5.77,0,0,0,1.08-3.79,8.25,8.25,0,0,0-.19-1.86,3.79,3.79,0,0,0-.6-1.43,2.83,2.83,0,0,0-1.06-.91A3.6,3.6,0,0,0,449.92,358.92Z"/><path class="cls-5" d="M464.83,366.57a1.47,1.47,0,0,0-.48-1.17,4.11,4.11,0,0,0-1.18-.71c-.48-.19-1-.38-1.55-.55a7.5,7.5,0,0,1-1.55-.68,4,4,0,0,1-1.19-1.06,2.88,2.88,0,0,1-.48-1.75,3.12,3.12,0,0,1,1.1-2.64,4.88,4.88,0,0,1,3-.84,10.25,10.25,0,0,1,2.41.24,10.59,10.59,0,0,1,1.7.56l-.51,1.65a8.89,8.89,0,0,0-1.48-.48,7.88,7.88,0,0,0-1.85-.22,3.06,3.06,0,0,0-1.72.38,1.45,1.45,0,0,0-.55,1.3,1.19,1.19,0,0,0,.48,1,5.08,5.08,0,0,0,1.19.65c.47.19,1,.38,1.54.56a7.12,7.12,0,0,1,1.55.73,4.17,4.17,0,0,1,1.19,1.14,3.1,3.1,0,0,1,.48,1.81,4.16,4.16,0,0,1-.28,1.5,3,3,0,0,1-.87,1.2,4.38,4.38,0,0,1-1.45.79,6.58,6.58,0,0,1-2,.28,10.67,10.67,0,0,1-2.59-.27,8.36,8.36,0,0,1-1.79-.65l.64-1.7a7.72,7.72,0,0,0,1.6.6,7.59,7.59,0,0,0,2,.27,3.84,3.84,0,0,0,1.9-.42A1.61,1.61,0,0,0,464.83,366.57Z"/><line class="cls-6" x1="886.53" y1="211.62" x2="930.73" y2="211.62"/><polygon class="cls-7" points="916.81 228.8 913.95 225.72 929.12 211.63 913.95 197.53 916.81 194.45 935.28 211.63 916.81 228.8"/><rect class="cls-8" x="1414.22" y="130" width="363.36" height="149" rx="8"/><path class="cls-3" d="M1511.41,196.06a2.76,2.76,0,0,0,1.91-.65,2.26,2.26,0,0,0,.72-1.75h4l0,.09a4.74,4.74,0,0,1-1.88,3.94,8.36,8.36,0,0,1-10.56-.61,8.06,8.06,0,0,1-2-5.65V191a8,8,0,0,1,2.06-5.64,7.68,7.68,0,0,1,5.88-2.21,10.63,10.63,0,0,1,3.6.56,7.12,7.12,0,0,1,2.65,1.58l.06,4.15h-3.63l-.73-2.43a3,3,0,0,0-.83-.45,3.25,3.25,0,0,0-1.12-.18,2.87,2.87,0,0,0-2.68,1.29,6.36,6.36,0,0,0-.78,3.33v.43a6.81,6.81,0,0,0,.72,3.36A2.65,2.65,0,0,0,1511.41,196.06Z"/><path class="cls-3" d="M1520.16,191.06a8,8,0,0,1,2.07-5.69,8.56,8.56,0,0,1,11.49,0,8,8,0,0,1,2.08,5.7v.3a8,8,0,0,1-2.08,5.71,7.47,7.47,0,0,1-5.72,2.21,7.56,7.56,0,0,1-5.77-2.21,8,8,0,0,1-2.07-5.71Zm4.47.3a6.4,6.4,0,0,0,.8,3.41,3.18,3.18,0,0,0,5.11,0,6.45,6.45,0,0,0,.8-3.41v-.3a6.3,6.3,0,0,0-.81-3.37,2.8,2.8,0,0,0-2.56-1.31,2.76,2.76,0,0,0-2.54,1.31,6.39,6.39,0,0,0-.8,3.37Z"/><path class="cls-3" d="M1537.5,196.46l2.15-.43v-9.64l-2.38-.43v-2.52h6.54l.2,2.22a5.91,5.91,0,0,1,2-1.85,5.57,5.57,0,0,1,2.71-.66,5.16,5.16,0,0,1,3.93,1.48,6.52,6.52,0,0,1,1.41,4.64V196l2.14.43V199h-8.55v-2.51l1.92-.43v-6.75a3,3,0,0,0-.68-2.22,2.85,2.85,0,0,0-2-.65,3.57,3.57,0,0,0-1.59.34,3.21,3.21,0,0,0-1.18.95V196l1.81.43V199h-8.43Z"/><path class="cls-3" d="M1557.22,186.38v-2.94h2.47v-1.07a5.5,5.5,0,0,1,1.91-4.51,8.15,8.15,0,0,1,5.37-1.59,12.49,12.49,0,0,1,2.36.22c.77.15,1.67.36,2.69.64l-.64,3.3c-.75-.21-1.42-.37-2-.48a10.92,10.92,0,0,0-2.09-.18,3.49,3.49,0,0,0-2.32.66,2.42,2.42,0,0,0-.78,1.94v1.07h10V196l2.38.43V199h-9v-2.51l2.16-.43v-9.65h-5.58V196l2.16.43V199h-9v-2.51l2.39-.43v-9.65Z"/><path class="cls-3" d="M1588.94,197.08a5.42,5.42,0,0,1-1.85,1.64,5.18,5.18,0,0,1-2.43.56,5.76,5.76,0,0,1-4.75-2.1,8.56,8.56,0,0,1-1.7-5.54v-.31a9.64,9.64,0,0,1,1.7-5.93,5.66,5.66,0,0,1,4.79-2.25,4.82,4.82,0,0,1,2.23.51,5.34,5.34,0,0,1,1.75,1.44v-5.57l-2.39-.43v-2.53h6.86V196l2.15.43V199h-6Zm-6.25-5.44a6,6,0,0,0,.73,3.21,2.58,2.58,0,0,0,2.38,1.17,3.64,3.64,0,0,0,1.7-.38,3.1,3.1,0,0,0,1.18-1.07V188a3.38,3.38,0,0,0-1.17-1.15,3.27,3.27,0,0,0-1.68-.41,2.53,2.53,0,0,0-2.39,1.36,7.38,7.38,0,0,0-.75,3.56Z"/><path class="cls-3" d="M1604.66,199.28a7.71,7.71,0,0,1-5.73-2.16,7.42,7.42,0,0,1-2.14-5.47v-.57a8.16,8.16,0,0,1,2-5.7,7.94,7.94,0,0,1,10.66-.34,7,7,0,0,1,1.86,5.13v2.29h-9.9l0,.08a3.9,3.9,0,0,0,1.09,2.53,3.54,3.54,0,0,0,2.64,1,9,9,0,0,0,2.47-.28,12.06,12.06,0,0,0,2.15-.88l1.21,2.58a9.16,9.16,0,0,1-2.66,1.28A12.17,12.17,0,0,1,1604.66,199.28Zm-.4-12.9a2.39,2.39,0,0,0-2,.89,4.42,4.42,0,0,0-.89,2.34l0,.07h5.48v-.37a3.23,3.23,0,0,0-.66-2.13A2.5,2.5,0,0,0,1604.26,186.38Z"/><path class="cls-3" d="M1613.2,196.46l2.14-.43v-9.64L1613,186v-2.52h6.55l.2,2.22a5.91,5.91,0,0,1,2-1.85,5.55,5.55,0,0,1,2.71-.66,5.15,5.15,0,0,1,3.92,1.48,6.52,6.52,0,0,1,1.41,4.64V196l2.15.43V199h-8.56v-2.51l1.92-.43v-6.75a3,3,0,0,0-.67-2.22,2.85,2.85,0,0,0-2-.65,3.61,3.61,0,0,0-1.6.34,3.21,3.21,0,0,0-1.18.95V196l1.81.43V199h-8.42Z"/><path class="cls-3" d="M1640,179.63v3.81h2.92v2.94H1640v7.91a1.74,1.74,0,0,0,.4,1.29,1.49,1.49,0,0,0,1.08.39c.3,0,.57,0,.8,0l.77-.12.39,3a11.68,11.68,0,0,1-1.49.32,11.24,11.24,0,0,1-1.59.11,5,5,0,0,1-3.57-1.2,5,5,0,0,1-1.25-3.77v-7.93h-2.43v-2.94h2.43v-3.81Z"/><path class="cls-3" d="M1644.93,196.46l2.16-.43v-9.64l-2.39-.43v-2.52h6.86V196l2.15.43V199h-8.78Zm6.63-16.74h-4.47v-3.15h4.47Z"/><path class="cls-3" d="M1665.74,199a6.91,6.91,0,0,1-.33-.79,6.31,6.31,0,0,1-.21-.83,6,6,0,0,1-4.55,1.93,5.72,5.72,0,0,1-3.87-1.25,4.24,4.24,0,0,1-1.43-3.38,3.77,3.77,0,0,1,1.87-3.37,10.2,10.2,0,0,1,5.48-1.2H1665v-1.52a2.2,2.2,0,0,0-.69-1.73,2.93,2.93,0,0,0-2-.62,5.21,5.21,0,0,0-1.37.16,3.47,3.47,0,0,0-1,.4l-.29,1.66h-3.37V185a12.79,12.79,0,0,1,2.81-1.31,11,11,0,0,1,3.46-.53,8.25,8.25,0,0,1,5,1.41,4.72,4.72,0,0,1,1.92,4V195c0,.24,0,.47,0,.68a5.54,5.54,0,0,0,.06.6l1.36.17V199Zm-3.88-2.8a4,4,0,0,0,1.84-.41,3.53,3.53,0,0,0,1.29-1v-2.37h-2.29a3.29,3.29,0,0,0-2.16.62,1.91,1.91,0,0,0-.73,1.5,1.52,1.52,0,0,0,.54,1.24A2.3,2.3,0,0,0,1661.86,196.17Z"/><path class="cls-3" d="M1671.94,179.1v-2.53h6.87V196l2.16.43V199h-8.8v-2.51l2.16-.43v-16.5Z"/><path class="cls-3" d="M1533.26,231.35a2.72,2.72,0,0,0,1.91-.65,2.25,2.25,0,0,0,.72-1.74h4l0,.08a4.7,4.7,0,0,1-1.88,3.94,8.36,8.36,0,0,1-10.56-.61,8,8,0,0,1-2-5.64v-.43a8,8,0,0,1,2.06-5.65,7.68,7.68,0,0,1,5.88-2.21,10.88,10.88,0,0,1,3.6.56,7.25,7.25,0,0,1,2.65,1.58l.06,4.15h-3.63l-.73-2.42a2.75,2.75,0,0,0-.83-.46,3.25,3.25,0,0,0-1.12-.18,2.86,2.86,0,0,0-2.68,1.3,6.36,6.36,0,0,0-.78,3.33v.43a6.74,6.74,0,0,0,.72,3.35A2.65,2.65,0,0,0,1533.26,231.35Z"/><path class="cls-3" d="M1542,226.36a8,8,0,0,1,2.07-5.7,8.56,8.56,0,0,1,11.49,0,8,8,0,0,1,2.08,5.71v.3a8,8,0,0,1-2.08,5.71,7.47,7.47,0,0,1-5.72,2.2,7.55,7.55,0,0,1-5.77-2.2,8,8,0,0,1-2.07-5.71Zm4.47.3a6.45,6.45,0,0,0,.8,3.41,2.81,2.81,0,0,0,2.57,1.28,2.77,2.77,0,0,0,2.54-1.29,6.43,6.43,0,0,0,.8-3.4v-.3a6.34,6.34,0,0,0-.81-3.38,2.8,2.8,0,0,0-2.56-1.31,2.76,2.76,0,0,0-2.54,1.31,6.43,6.43,0,0,0-.8,3.38Z"/><path class="cls-3" d="M1559.35,231.75l2.15-.43v-9.63l-2.38-.43v-2.53h6.54l.2,2.23a5.84,5.84,0,0,1,2-1.86,5.57,5.57,0,0,1,2.71-.66,5.19,5.19,0,0,1,3.93,1.48,6.54,6.54,0,0,1,1.41,4.64v6.76l2.14.43v2.52h-8.55v-2.52l1.92-.43v-6.74a3,3,0,0,0-.68-2.22,2.81,2.81,0,0,0-2-.66,3.71,3.71,0,0,0-1.59.34,3.13,3.13,0,0,0-1.18,1v8.32l1.81.43v2.52h-8.43Z"/><path class="cls-3" d="M1586.12,214.92v3.81H1589v2.94h-2.91v7.92a1.73,1.73,0,0,0,.4,1.29,1.45,1.45,0,0,0,1.07.39c.31,0,.58,0,.8,0a6.49,6.49,0,0,0,.78-.12l.38,3a11.54,11.54,0,0,1-1.48.32,11.38,11.38,0,0,1-1.6.11,5,5,0,0,1-3.56-1.19,5,5,0,0,1-1.25-3.78v-7.93h-2.44v-2.94h2.44v-3.81Z"/><path class="cls-3" d="M1601.78,234.27a7.85,7.85,0,0,1-.32-.8,6.23,6.23,0,0,1-.22-.82,6,6,0,0,1-4.55,1.92,5.71,5.71,0,0,1-3.87-1.24,4.27,4.27,0,0,1-1.43-3.38,3.78,3.78,0,0,1,1.87-3.38,10.34,10.34,0,0,1,5.49-1.19H1601v-1.52a2.21,2.21,0,0,0-.69-1.74,3,3,0,0,0-2-.62,5.11,5.11,0,0,0-1.36.17,3.9,3.9,0,0,0-1,.39l-.29,1.67h-3.37l0-3.45a12.81,12.81,0,0,1,2.81-1.31,10.9,10.9,0,0,1,3.45-.53,8.22,8.22,0,0,1,5,1.42,4.7,4.7,0,0,1,1.92,4v6.41c0,.24,0,.47,0,.68a3.83,3.83,0,0,0,0,.6l1.36.17v2.52Zm-3.88-2.8a4.11,4.11,0,0,0,1.84-.41,3.55,3.55,0,0,0,1.29-1v-2.37h-2.28a3.27,3.27,0,0,0-2.17.63,1.88,1.88,0,0,0-.73,1.5,1.5,1.5,0,0,0,.54,1.23A2.32,2.32,0,0,0,1597.9,231.47Z"/><path class="cls-3" d="M1608.32,231.75l2.16-.43v-9.63l-2.39-.43v-2.53H1615v12.59l2.14.43v2.52h-8.78ZM1615,215h-4.48v-3.14H1615Z"/><path class="cls-3" d="M1618.33,231.75l2.14-.43v-9.63l-2.37-.43v-2.53h6.54l.2,2.23a5.84,5.84,0,0,1,2-1.86,5.55,5.55,0,0,1,2.71-.66,5.17,5.17,0,0,1,3.92,1.48,6.54,6.54,0,0,1,1.41,4.64v6.76l2.15.43v2.52h-8.55v-2.52l1.91-.43v-6.74a3,3,0,0,0-.67-2.22,2.81,2.81,0,0,0-2-.66,3.71,3.71,0,0,0-1.59.34,3.06,3.06,0,0,0-1.18,1v8.32l1.8.43v2.52h-8.42Z"/><path class="cls-3" d="M1646.28,234.57a7.79,7.79,0,0,1-5.74-2.15,7.48,7.48,0,0,1-2.14-5.48v-.57a8.17,8.17,0,0,1,2-5.7,7.93,7.93,0,0,1,10.66-.33,7,7,0,0,1,1.85,5.12v2.29H1643l0,.08a3.91,3.91,0,0,0,1.1,2.53,3.54,3.54,0,0,0,2.64,1,9.08,9.08,0,0,0,2.47-.28,11.29,11.29,0,0,0,2.14-.88l1.21,2.59a9.09,9.09,0,0,1-2.65,1.27A11.9,11.9,0,0,1,1646.28,234.57Zm-.4-12.9a2.39,2.39,0,0,0-2,.89,4.48,4.48,0,0,0-.89,2.35l0,.07h5.49v-.38a3.18,3.18,0,0,0-.67-2.13A2.47,2.47,0,0,0,1645.88,221.67Z"/><path class="cls-3" d="M1655.39,231.75l2.15-.43v-9.63l-2.38-.43v-2.53h6.55l.2,2.27a4.75,4.75,0,0,1,1.5-1.88,3.5,3.5,0,0,1,2.13-.68,6.57,6.57,0,0,1,.74.05,5.29,5.29,0,0,1,.65.13l-.47,3.81-1.84,0a3.31,3.31,0,0,0-1.63.36,2.41,2.41,0,0,0-1,1v7.55l2.15.43v2.52h-8.77Z"/><line class="cls-6" x1="1345.53" y1="211.62" x2="1389.73" y2="211.62"/><polygon class="cls-7" points="1375.81 228.8 1372.95 225.72 1388.12 211.63 1372.95 197.53 1375.81 194.45 1394.28 211.63 1375.81 228.8"/><rect class="cls-9" x="57.24" y="130" width="363.36" height="149" rx="8"/><path class="cls-3" d="M200.86,197.08a5.42,5.42,0,0,1-1.85,1.64,5.14,5.14,0,0,1-2.42.56,5.76,5.76,0,0,1-4.76-2.1,8.56,8.56,0,0,1-1.69-5.54v-.31a9.57,9.57,0,0,1,1.7-5.93,5.63,5.63,0,0,1,4.78-2.25,4.82,4.82,0,0,1,2.23.51,5.34,5.34,0,0,1,1.75,1.44v-5.57l-2.39-.43v-2.53h6.86V196l2.15.43V199h-6Zm-6.25-5.44a6,6,0,0,0,.73,3.21,2.58,2.58,0,0,0,2.38,1.17,3.64,3.64,0,0,0,1.7-.38,3.1,3.1,0,0,0,1.18-1.07V188a3.38,3.38,0,0,0-1.17-1.15,3.27,3.27,0,0,0-1.68-.41,2.53,2.53,0,0,0-2.39,1.36,7.38,7.38,0,0,0-.75,3.56Z"/><path class="cls-3" d="M216.58,199.28a7.71,7.71,0,0,1-5.73-2.16,7.42,7.42,0,0,1-2.14-5.47v-.57a8.12,8.12,0,0,1,2-5.7,7.93,7.93,0,0,1,10.65-.34,7,7,0,0,1,1.86,5.13v2.29h-9.9l0,.08a4,4,0,0,0,1.09,2.53,3.55,3.55,0,0,0,2.65,1,9,9,0,0,0,2.46-.28,12.06,12.06,0,0,0,2.15-.88l1.21,2.58a9,9,0,0,1-2.66,1.28A12.17,12.17,0,0,1,216.58,199.28Zm-.4-12.9a2.4,2.4,0,0,0-2,.89,4.5,4.5,0,0,0-.89,2.34l0,.07h5.49v-.37a3.23,3.23,0,0,0-.67-2.13A2.5,2.5,0,0,0,216.18,186.38Z"/><path class="cls-3" d="M225,186v-2.52h6.49l.22,1.81a5.23,5.23,0,0,1,1.76-1.56,5,5,0,0,1,2.39-.54,5.64,5.64,0,0,1,4.78,2.25,9.64,9.64,0,0,1,1.7,5.93v.31a8.56,8.56,0,0,1-1.7,5.54,5.77,5.77,0,0,1-4.75,2.1,5.6,5.6,0,0,1-2.31-.46,4.69,4.69,0,0,1-1.74-1.32V202l2.17.43V205h-8.79v-2.53l2.17-.43v-15.6Zm12.87,5.37a7,7,0,0,0-.79-3.56,2.56,2.56,0,0,0-2.39-1.36,3.55,3.55,0,0,0-1.72.39,2.84,2.84,0,0,0-1.13,1.1v6.81a2.73,2.73,0,0,0,1.13,1,4,4,0,0,0,1.75.35,2.64,2.64,0,0,0,2.39-1.19,6,6,0,0,0,.76-3.23Z"/><path class="cls-3" d="M243.58,179.1v-2.53h6.87V196l2.16.43V199h-8.8v-2.51L246,196v-16.5Z"/><path class="cls-3" d="M253.76,191.06a8,8,0,0,1,2.07-5.69,8.56,8.56,0,0,1,11.49,0,8,8,0,0,1,2.08,5.7v.3a8,8,0,0,1-2.08,5.71,7.47,7.47,0,0,1-5.72,2.21,7.56,7.56,0,0,1-5.77-2.21,8,8,0,0,1-2.07-5.71Zm4.47.3a6.4,6.4,0,0,0,.8,3.41,3.18,3.18,0,0,0,5.11,0,6.45,6.45,0,0,0,.8-3.41v-.3a6.3,6.3,0,0,0-.81-3.37,2.8,2.8,0,0,0-2.56-1.31,2.76,2.76,0,0,0-2.54,1.31,6.39,6.39,0,0,0-.8,3.37Z"/><path class="cls-3" d="M288.28,186l-1.55.22-6.1,15.12a8.39,8.39,0,0,1-1.92,2.82,5.14,5.14,0,0,1-3.63,1.13,6,6,0,0,1-1.06-.09q-.5-.07-1.17-.24l.52-3.06.44.06.4,0a2.58,2.58,0,0,0,1.72-.51,3.47,3.47,0,0,0,.92-1.27l.5-1.18-5.25-12.8-1.55-.23v-2.52h8.12V186l-1.85.29,2.26,6.21.23,1.12h.1l2.62-7.34-1.87-.29v-2.52h8.12Z"/><path class="cls-3" d="M165.15,220H161.8l-.59-2.88a6,6,0,0,0-1.7-.6,10.56,10.56,0,0,0-2.37-.26,4.71,4.71,0,0,0-2.84.73,2.22,2.22,0,0,0-1,1.87,2,2,0,0,0,1.05,1.75,15.38,15.38,0,0,0,3.63,1.44,14.63,14.63,0,0,1,5.6,2.54,5.14,5.14,0,0,1,1.9,4.15,4.87,4.87,0,0,1-2.26,4.24,10.47,10.47,0,0,1-6,1.55,13.67,13.67,0,0,1-4.79-.79,10,10,0,0,1-3.56-2.18v-4.37h3.46l.48,3a5.57,5.57,0,0,0,1.83.86,9.37,9.37,0,0,0,2.58.34,4.68,4.68,0,0,0,2.8-.71,2.23,2.23,0,0,0,.95-1.88,2.37,2.37,0,0,0-.91-1.94,9.46,9.46,0,0,0-3.19-1.38,18.74,18.74,0,0,1-6-2.55,4.74,4.74,0,0,1-2-4.05,4.9,4.9,0,0,1,2.3-4.16,10,10,0,0,1,5.78-1.66,14.51,14.51,0,0,1,4.69.73,10.9,10.9,0,0,1,3.55,2Z"/><path class="cls-3" d="M185.73,231.94a10.07,10.07,0,0,1-3.17,1.82,14.7,14.7,0,0,1-5.27.81,9.72,9.72,0,0,1-10.19-10.21v-.72a10.65,10.65,0,0,1,2.79-7.64,9.63,9.63,0,0,1,7.31-2.94,14,14,0,0,1,4.78.78,10.39,10.39,0,0,1,3.61,2.12v4.21h-3.31l-.63-2.8a4.57,4.57,0,0,0-1.61-.79,8.48,8.48,0,0,0-2.31-.29,5.5,5.5,0,0,0-4.55,2,8.23,8.23,0,0,0-1.62,5.3v.75a7.69,7.69,0,0,0,1.59,5.09,5.64,5.64,0,0,0,4.6,1.9,9.22,9.22,0,0,0,2.18-.21,4.89,4.89,0,0,0,1.31-.51v-3.54l-3.19-.23v-3h7.68Z"/><path class="cls-3" d="M187.61,231.75l1.89-.34,5.9-7.68-5.75-7.48-1.87-.36v-2.53h8.57v2.53l-1.83.18L198,221.2l3.47-5.13-1.8-.18v-2.53h8.6v2.53l-1.87.36-5.75,7.48,6,7.67,2,.35v2.52h-8.78v-2.52l1.78-.17L198,226.3l-3.6,5.28,1.8.17v2.52h-8.62Z"/><path class="cls-3" d="M216.79,226.94h-8.64v-3.23h8.64Z"/><path class="cls-3" d="M230.1,213.36a9.17,9.17,0,0,1,6.05,1.84,6,6,0,0,1,2.21,4.84,5.91,5.91,0,0,1-2.21,4.82,9.22,9.22,0,0,1-6.05,1.83h-3.77v4.63l2.4.43v2.52h-9.24v-2.52l2.37-.43v-15l-2.37-.43v-2.53H230.1Zm-3.77,10.09h3.77a3.83,3.83,0,0,0,2.83-.95,3.29,3.29,0,0,0,1-2.43,3.44,3.44,0,0,0-1-2.5,3.8,3.8,0,0,0-2.83-1h-3.77Z"/><path class="cls-3" d="M239.42,214.39v-2.52h6.87v19.45l2.16.43v2.52h-8.8v-2.52l2.16-.43v-16.5Z"/><path class="cls-3" d="M261.5,232.3a5.39,5.39,0,0,1-2,1.68,5.89,5.89,0,0,1-2.67.59,5.37,5.37,0,0,1-4.11-1.57,6.93,6.93,0,0,1-1.48-4.89v-6.42l-1.83-.43v-2.53h6.3v9.41a3.87,3.87,0,0,0,.6,2.43,2.22,2.22,0,0,0,1.81.74A4.87,4.87,0,0,0,260,231a3.29,3.29,0,0,0,1.26-.93v-8.37l-2-.43v-2.53h6.43v12.59l2,.43v2.52h-5.93Z"/><path class="cls-3" d="M269.76,226.63a9.55,9.55,0,0,1,1.71-5.93,5.64,5.64,0,0,1,4.79-2.26,5.1,5.1,0,0,1,2.45.58,5.38,5.38,0,0,1,1.81,1.66l.32-2h3.89v15.08a6.23,6.23,0,0,1-2.06,4.9,8.23,8.23,0,0,1-5.66,1.83,11.7,11.7,0,0,1-2.67-.32,12.61,12.61,0,0,1-2.6-.88l.82-3a14.89,14.89,0,0,0,2.15.69,10.32,10.32,0,0,0,2.27.25,3.05,3.05,0,0,0,2.45-.94,3.82,3.82,0,0,0,.81-2.6v-1a5.06,5.06,0,0,1-1.73,1.33,5.37,5.37,0,0,1-2.28.46,5.79,5.79,0,0,1-4.76-2.1,8.53,8.53,0,0,1-1.71-5.54Zm4.47.3a6,6,0,0,0,.74,3.21,2.61,2.61,0,0,0,2.39,1.17,4,4,0,0,0,1.74-.35,2.9,2.9,0,0,0,1.14-1v-6.75a3.05,3.05,0,0,0-1.14-1.09,3.54,3.54,0,0,0-1.71-.39,2.56,2.56,0,0,0-2.4,1.37,7.34,7.34,0,0,0-.76,3.56Z"/><path class="cls-3" d="M287.27,231.75l2.16-.43v-9.63l-2.39-.43v-2.53h6.87v12.59l2.14.43v2.52h-8.78ZM293.91,215h-4.48v-3.14h4.48Z"/><path class="cls-3" d="M297.28,231.75l2.14-.43v-9.63l-2.37-.43v-2.53h6.54l.2,2.23a5.84,5.84,0,0,1,2-1.86,5.57,5.57,0,0,1,2.71-.66,5.17,5.17,0,0,1,3.92,1.48,6.54,6.54,0,0,1,1.41,4.64v6.76l2.15.43v2.52h-8.55v-2.52l1.91-.43v-6.74a3,3,0,0,0-.67-2.22,2.81,2.81,0,0,0-2-.66,3.71,3.71,0,0,0-1.59.34,3.13,3.13,0,0,0-1.18,1v8.32l1.81.43v2.52h-8.43Z"/><path class="cls-3" d="M321.63,220.4,317,219.12l.87-2.54,4.55,1.76-.27-5H325l-.31,5.07,4.46-1.72.86,2.58-4.69,1.28,3.07,3.8L326.1,226l-2.68-4.16-2.65,4-2.33-1.52Z"/><line class="cls-6" x1="438.53" y1="211.62" x2="482.73" y2="211.62"/><polygon class="cls-7" points="468.81 228.8 465.95 225.72 481.12 211.63 465.95 197.53 468.81 194.45 487.28 211.63 468.81 228.8"/><path d="M487.51,30.58a11.72,11.72,0,0,1,8.59,3.33,11.46,11.46,0,0,1,3.38,8.55v4.71a11.4,11.4,0,0,1-3.38,8.54A11.74,11.74,0,0,1,487.51,59H474.72V55.6l3-.58V34.61l-3-.59V30.58h12.79ZM483.45,35V54.65h3.77a5.93,5.93,0,0,0,4.8-2.07,8.14,8.14,0,0,0,1.74-5.41V42.42A8.06,8.06,0,0,0,492,37.05a5.93,5.93,0,0,0-4.8-2.07Z"/><path d="M512.53,59.43a9.51,9.51,0,0,1-7.31-2.93,10.47,10.47,0,0,1-2.73-7.44v-.78a11.52,11.52,0,0,1,2.59-7.75,9.64,9.64,0,0,1,13.58-.45,9.88,9.88,0,0,1,2.37,7v3.1H508.41l0,.12a5.47,5.47,0,0,0,1.4,3.44,4.33,4.33,0,0,0,3.36,1.35,11.11,11.11,0,0,0,3.15-.38A14.81,14.81,0,0,0,519,53.47L520.56,57a11.44,11.44,0,0,1-3.39,1.74A14.44,14.44,0,0,1,512.53,59.43ZM512,41.89a3,3,0,0,0-2.5,1.21,6.31,6.31,0,0,0-1.13,3.19l.06.09h7v-.5a4.55,4.55,0,0,0-.85-2.9A3,3,0,0,0,512,41.89Z"/><path d="M523.29,41.33V37.89h8.28l.28,2.46a6.8,6.8,0,0,1,2.24-2.11,6.12,6.12,0,0,1,3-.74,7,7,0,0,1,6.09,3.06,13.68,13.68,0,0,1,2.17,8.07V49a12.1,12.1,0,0,1-2.17,7.54,7.16,7.16,0,0,1-6.05,2.85,6.76,6.76,0,0,1-2.95-.61A6.1,6.1,0,0,1,532,57v6.11l2.76.59v3.44h-11.2V63.71l2.76-.59V41.91Zm16.41,7.3a10.12,10.12,0,0,0-1-4.84,3.25,3.25,0,0,0-3.05-1.86,4.28,4.28,0,0,0-2.19.53A3.72,3.72,0,0,0,532,44v9.26a3.46,3.46,0,0,0,1.44,1.37,4.84,4.84,0,0,0,2.23.47,3.28,3.28,0,0,0,3-1.62,8.52,8.52,0,0,0,1-4.4Z"/><path d="M546.94,32V28.55h8.75V55l2.76.58V59H547.24V55.6L550,55V32.58Z"/><path d="M559.91,48.26a11.28,11.28,0,0,1,2.65-7.74,10.41,10.41,0,0,1,14.65,0,11.31,11.31,0,0,1,2.64,7.75v.41a11.29,11.29,0,0,1-2.64,7.76,10.44,10.44,0,0,1-14.65,0,11.24,11.24,0,0,1-2.65-7.76Zm5.71.41a9.18,9.18,0,0,0,1,4.64,3.52,3.52,0,0,0,3.28,1.75,3.47,3.47,0,0,0,3.23-1.76,9.07,9.07,0,0,0,1-4.63v-.41a9,9,0,0,0-1-4.59,3.86,3.86,0,0,0-6.5,0,9.15,9.15,0,0,0-1,4.59Z"/><path d="M603.92,41.33l-2,.29-7.77,20.57A11.36,11.36,0,0,1,591.72,66a6.24,6.24,0,0,1-4.62,1.55,7.4,7.4,0,0,1-1.36-.12c-.42-.08-.92-.19-1.49-.33l.66-4.16.57.08.51,0a3.12,3.12,0,0,0,2.18-.69,4.63,4.63,0,0,0,1.18-1.73L590,59l-6.7-17.4-2-.31V37.89h10.35v3.44l-2.36.39,2.89,8.43.29,1.53.12,0,3.34-10-2.39-.39V37.89h10.36Z"/><path d="M605.05,41.33V37.89h8.34l.23,2.79a7.15,7.15,0,0,1,2.55-2.35,7.39,7.39,0,0,1,3.55-.83,6.43,6.43,0,0,1,3.47.9,5.48,5.48,0,0,1,2.19,2.71,7.27,7.27,0,0,1,2.54-2.65,6.88,6.88,0,0,1,3.67-1,6.08,6.08,0,0,1,4.93,2.16q1.82,2.16,1.81,6.57V55l2.75.58V59H630.17V55.6l2.46-.58V46.21a5.34,5.34,0,0,0-.78-3.34,2.86,2.86,0,0,0-2.33-.94A3.81,3.81,0,0,0,626,44a6.13,6.13,0,0,0,0,.64c0,.17,0,.35,0,.53V55l2.31.58V59H618.06V55.6l2.3-.58V46.21a5.36,5.36,0,0,0-.78-3.31,2.81,2.81,0,0,0-2.34-1,4.5,4.5,0,0,0-2,.44,4,4,0,0,0-1.43,1.24V55l2.46.58V59h-10.9V55.6L608.1,55V41.91Z"/><path d="M652.84,59.43a9.47,9.47,0,0,1-7.3-2.93,10.44,10.44,0,0,1-2.74-7.44v-.78a11.57,11.57,0,0,1,2.59-7.75A9.64,9.64,0,0,1,659,40.08a9.88,9.88,0,0,1,2.37,7v3.1H648.72l0,.12a5.53,5.53,0,0,0,1.4,3.44,4.34,4.34,0,0,0,3.37,1.35,11.08,11.08,0,0,0,3.14-.38,14.88,14.88,0,0,0,2.74-1.21L660.87,57a11.2,11.2,0,0,1-3.39,1.74A14.4,14.4,0,0,1,652.84,59.43Zm-.51-17.54a3,3,0,0,0-2.5,1.21,6.31,6.31,0,0,0-1.13,3.19l.06.09h7v-.5a4.55,4.55,0,0,0-.85-2.9A3,3,0,0,0,652.33,41.89Z"/><path d="M663.72,55.6l2.74-.58V41.91l-3-.58V37.89h8.34l.25,3a7.71,7.71,0,0,1,2.6-2.52,6.74,6.74,0,0,1,3.46-.9,6.37,6.37,0,0,1,5,2q1.78,2,1.79,6.31V55l2.74.58V59h-10.9V55.6l2.44-.58V45.84a4.29,4.29,0,0,0-.86-3,3.47,3.47,0,0,0-2.6-.89,4.36,4.36,0,0,0-2,.46,4.17,4.17,0,0,0-1.5,1.3V55l2.3.58V59H663.72Z"/><path d="M697.84,32.71v5.18h3.71v4h-3.71V52.65a2.48,2.48,0,0,0,.51,1.76,1.81,1.81,0,0,0,1.37.53,9.93,9.93,0,0,0,1,0,9,9,0,0,0,1-.17l.49,4.13a14.86,14.86,0,0,1-1.9.44,14.17,14.17,0,0,1-2,.14,6.07,6.07,0,0,1-4.54-1.62q-1.59-1.62-1.59-5.14V41.89h-3.11v-4h3.11V32.71Z"/><path d="M714,55.6l3-.58V34.61L714,34V30.58h22.64v7.8h-4.37L732,35h-9.28v7.83h10v4.4h-10V55l3,.58V59H714Z"/><path d="M738.25,32V28.55H747V55l2.76.58V59H738.54V55.6L741.3,55V32.58Z"/><path d="M751.22,48.26a11.28,11.28,0,0,1,2.65-7.74,10.41,10.41,0,0,1,14.65,0,11.31,11.31,0,0,1,2.64,7.75v.41a11.29,11.29,0,0,1-2.64,7.76,10.44,10.44,0,0,1-14.65,0,11.24,11.24,0,0,1-2.65-7.76Zm5.7.41a9.17,9.17,0,0,0,1,4.64,3.52,3.52,0,0,0,3.28,1.75,3.47,3.47,0,0,0,3.23-1.76,9.07,9.07,0,0,0,1-4.63v-.41a9,9,0,0,0-1-4.59,3.86,3.86,0,0,0-6.5,0,9.15,9.15,0,0,0-1,4.59Z"/><path d="M803.76,41.33l-2.13.27L797.22,59h-4.77l-3.92-12.58h-.12L784.48,59h-4.74L775.3,41.6l-2.13-.27V37.89h9.57v3.44l-2.24.43,2,9.66h.12l3.94-13.53h3.83l4,13.57h.11l2-9.68-2.27-.45V37.89h9.57Z"/><path d="M816,47.46a26.41,26.41,0,0,1,3-13q3-5.34,6.72-6.92h.12l1,2.85a14.16,14.16,0,0,0-4.3,6.17,29,29,0,0,0-1.74,10.86v.51a29,29,0,0,0,1.74,10.87,14.66,14.66,0,0,0,4.3,6.22l-1,2.79h-.12Q822,66.24,819,60.9a26.4,26.4,0,0,1-3-13Z"/><path d="M828.47,55.6l2-.29,8.65-24.73H845l8.59,24.73,2,.29V59h-9.69V55.6l2-.35-1.25-3.9h-9.22l-1.25,3.9,2,.35V59h-9.68Zm10.31-8.45h6.52l-3.2-10H842Z"/><path d="M857.49,55.6l3-.58V34.61l-3-.59V30.58h11.62V34l-2.89.59v7.6h2.48l5.47-8L872.49,34V30.58h11.27V34l-3.09.53-7,9.33,7.85,11.24,2.85.48V59H873.12V55.6l1.75-.23-5.47-8.22h-3.18V55l2.89.58V59H857.49Z"/><path d="M907.69,39.67h-4.28l-.74-3.91a7.59,7.59,0,0,0-2.17-.82,12.84,12.84,0,0,0-3-.35,5.86,5.86,0,0,0-3.62,1,3.07,3.07,0,0,0-1.28,2.55,2.78,2.78,0,0,0,1.34,2.38,18.39,18.39,0,0,0,4.62,2,17.89,17.89,0,0,1,7.13,3.46,7.14,7.14,0,0,1,2.44,5.64,6.75,6.75,0,0,1-2.89,5.76,12.62,12.62,0,0,1-7.62,2.11,16.67,16.67,0,0,1-6.11-1.07,12.71,12.71,0,0,1-4.54-3V49.45h4.42l.6,4a7,7,0,0,0,2.34,1.17,11.22,11.22,0,0,0,3.29.46,5.66,5.66,0,0,0,3.56-1,3.07,3.07,0,0,0,1.22-2.56A3.3,3.3,0,0,0,901.21,49a11.67,11.67,0,0,0-4.07-1.87,23.31,23.31,0,0,1-7.66-3.48,6.6,6.6,0,0,1-2.6-5.51,6.77,6.77,0,0,1,2.93-5.65,12.21,12.21,0,0,1,7.37-2.26,17.15,17.15,0,0,1,6,1,13.75,13.75,0,0,1,4.54,2.66Z"/><path d="M917.06,58.26a9.39,9.39,0,0,1-1.12,4.22,12,12,0,0,1-2.75,3.65l-2.81-1.52a12.94,12.94,0,0,0,1.17-2.82,11.83,11.83,0,0,0,.41-3.26V54.28h5.12Z"/><path d="M930,55.6l3-.58V34.61L930,34V30.58h11.62V34l-2.89.59v7.6h2.48l5.47-8L945,34V30.58h11.27V34l-3.09.53-7,9.33L954,55.12l2.86.48V59H945.6V55.6l1.75-.23-5.47-8.22H938.7V55l2.89.58V59H930Z"/><path d="M973,56.35a6.87,6.87,0,0,1-5.92,3.08,6.64,6.64,0,0,1-5.24-2.14Q960,55.16,960,50.64V41.91l-2.32-.58V37.89h8V50.68a5.54,5.54,0,0,0,.77,3.31,2.73,2.73,0,0,0,2.3,1,5.7,5.7,0,0,0,2.33-.44,4,4,0,0,0,1.62-1.26V41.91l-2.5-.58V37.89h8.2V55l2.56.58V59h-7.56Z"/><path d="M1003.64,49a12.35,12.35,0,0,1-2.11,7.56,7.11,7.11,0,0,1-6.09,2.83,6.47,6.47,0,0,1-3.22-.77,6.58,6.58,0,0,1-2.31-2.24L989.5,59h-4.92V32.58l-3-.59V28.55h8.71V40.13a6.67,6.67,0,0,1,2.2-2,6.19,6.19,0,0,1,2.94-.68,7,7,0,0,1,6.13,3,13.89,13.89,0,0,1,2.11,8.09ZM998,48.63a10.91,10.91,0,0,0-.91-4.89A3.18,3.18,0,0,0,994,41.93a4.27,4.27,0,0,0-2.25.56,3.93,3.93,0,0,0-1.45,1.59V53a3.65,3.65,0,0,0,1.46,1.48A4.67,4.67,0,0,0,994,55a3.25,3.25,0,0,0,3.09-1.55A9,9,0,0,0,998,49Z"/><path d="M1016.4,59.43a9.51,9.51,0,0,1-7.31-2.93,10.47,10.47,0,0,1-2.73-7.44v-.78a11.52,11.52,0,0,1,2.59-7.75,9.64,9.64,0,0,1,13.58-.45,9.92,9.92,0,0,1,2.36,7v3.1h-12.61l0,.12a5.52,5.52,0,0,0,1.39,3.44,4.36,4.36,0,0,0,3.37,1.35,11.2,11.2,0,0,0,3.15-.38,14.81,14.81,0,0,0,2.73-1.21l1.54,3.52a11.26,11.26,0,0,1-3.38,1.74A14.44,14.44,0,0,1,1016.4,59.43Zm-.51-17.54a3,3,0,0,0-2.5,1.21,6.31,6.31,0,0,0-1.13,3.19l0,.09h7v-.5a4.61,4.61,0,0,0-.85-2.9A3.06,3.06,0,0,0,1015.89,41.89Z"/><path d="M1028,55.6l2.73-.58V41.91l-3-.58V37.89h8.34l.26,3.08a6.59,6.59,0,0,1,1.91-2.55,4.24,4.24,0,0,1,2.72-.92,6.22,6.22,0,0,1,.94.07,5.57,5.57,0,0,1,.83.16l-.6,5.2-2.34-.06a3.92,3.92,0,0,0-2.07.49,3.1,3.1,0,0,0-1.25,1.38V55l2.73.58V59H1028Z"/><path d="M1044.11,55.6l2.74-.58V41.91l-3-.58V37.89h8.34l.25,3a7.81,7.81,0,0,1,2.6-2.52,6.74,6.74,0,0,1,3.46-.9,6.37,6.37,0,0,1,5,2c1.2,1.34,1.79,3.44,1.79,6.31V55l2.74.58V59h-10.9V55.6l2.44-.58V45.84a4.29,4.29,0,0,0-.86-3,3.47,3.47,0,0,0-2.6-.89,4.36,4.36,0,0,0-2,.46,4.17,4.17,0,0,0-1.5,1.3V55l2.3.58V59h-10.74Z"/><path d="M1079.74,59.43a9.49,9.49,0,0,1-7.31-2.93,10.47,10.47,0,0,1-2.73-7.44v-.78a11.52,11.52,0,0,1,2.59-7.75,9.64,9.64,0,0,1,13.58-.45,9.92,9.92,0,0,1,2.36,7v3.1h-12.61l0,.12a5.52,5.52,0,0,0,1.39,3.44,4.36,4.36,0,0,0,3.37,1.35,11.2,11.2,0,0,0,3.15-.38,14.81,14.81,0,0,0,2.73-1.21l1.54,3.52a11.26,11.26,0,0,1-3.38,1.74A14.44,14.44,0,0,1,1079.74,59.43Zm-.51-17.54a3,3,0,0,0-2.5,1.21,6.31,6.31,0,0,0-1.13,3.19l.05.09h7v-.5a4.61,4.61,0,0,0-.85-2.9A3.06,3.06,0,0,0,1079.23,41.89Z"/><path d="M1099.35,32.71v5.18h3.71v4h-3.71V52.65a2.49,2.49,0,0,0,.5,1.76,1.83,1.83,0,0,0,1.37.53,10.29,10.29,0,0,0,1,0,8.82,8.82,0,0,0,1-.17l.49,4.13a15.11,15.11,0,0,1-1.89.44,14.42,14.42,0,0,1-2,.14,6.1,6.1,0,0,1-4.54-1.62q-1.59-1.62-1.59-5.14V41.89h-3.1v-4h3.1V32.71Z"/><path d="M1116,59.43a9.51,9.51,0,0,1-7.31-2.93,10.47,10.47,0,0,1-2.73-7.44v-.78a11.52,11.52,0,0,1,2.59-7.75,9.64,9.64,0,0,1,13.58-.45,9.92,9.92,0,0,1,2.36,7v3.1h-12.61l0,.12a5.52,5.52,0,0,0,1.39,3.44,4.36,4.36,0,0,0,3.37,1.35,11.2,11.2,0,0,0,3.15-.38,14.81,14.81,0,0,0,2.73-1.21L1124,57a11.26,11.26,0,0,1-3.38,1.74A14.44,14.44,0,0,1,1116,59.43Zm-.51-17.54a3,3,0,0,0-2.5,1.21,6.31,6.31,0,0,0-1.13,3.19l.05.09h7v-.5A4.61,4.61,0,0,0,1118,43,3.06,3.06,0,0,0,1115.46,41.89Z"/><path d="M1144.4,45.15h-3.82l-.61-2.63a5.09,5.09,0,0,0-1.47-.78,5.9,5.9,0,0,0-2-.32,3.82,3.82,0,0,0-2.38.68,2,2,0,0,0-.88,1.69,1.91,1.91,0,0,0,.84,1.59,9,9,0,0,0,3.36,1.12,13.62,13.62,0,0,1,5.82,2.3,5.06,5.06,0,0,1,1.9,4.17,5.52,5.52,0,0,1-2.46,4.65,10.56,10.56,0,0,1-6.45,1.81,13.62,13.62,0,0,1-4.48-.71,11.75,11.75,0,0,1-3.63-2l-.05-4.75h4l.78,2.76a3.39,3.39,0,0,0,1.39.63,7.84,7.84,0,0,0,1.83.21,4.65,4.65,0,0,0,2.65-.63,2,2,0,0,0,.91-1.7,2,2,0,0,0-.92-1.62,9.26,9.26,0,0,0-3.38-1.21,13.48,13.48,0,0,1-5.63-2.26,4.89,4.89,0,0,1-1.91-4.07,5.9,5.9,0,0,1,2.19-4.58,9.14,9.14,0,0,1,6.23-1.92,16.15,16.15,0,0,1,4.66.66,9.92,9.92,0,0,1,3.45,1.7Z"/><path d="M1154.33,58.26a9.41,9.41,0,0,1-1.13,4.22,12,12,0,0,1-2.74,3.65l-2.81-1.52a14,14,0,0,0,1.17-2.82,12.22,12.22,0,0,0,.41-3.26V54.28h5.12Z"/><path d="M1194.68,38l-.12,0L1186.94,59h-3.82l-7.58-21-.12,0,.55,12.48V55l3,.58V59h-11.77V55.6l3-.58V34.61l-3-.59V30.58h10.47l7.24,21h.12l7.3-21h10.51V34l-3.05.59V55l3.05.58V59H1191.1V55.6l3-.58V50.54Z"/><path d="M1204.87,55.6l2.76-.58V41.91l-3.05-.58V37.89h8.75V55l2.73.58V59h-11.19Zm8.46-22.77h-5.7V28.55h5.7Z"/><path d="M1217.63,55.6l2.73-.58V41.91l-3-.58V37.89h8.34l.26,3a7.71,7.71,0,0,1,2.6-2.52,6.7,6.7,0,0,1,3.45-.9,6.36,6.36,0,0,1,5,2q1.8,2,1.8,6.31V55l2.73.58V59h-10.89V55.6l2.44-.58V45.84a4.29,4.29,0,0,0-.86-3,3.48,3.48,0,0,0-2.6-.89,4.34,4.34,0,0,0-2,.46,4.28,4.28,0,0,0-1.51,1.3V55l2.31.58V59h-10.74Z"/><path d="M1243.15,55.6l2.76-.58V41.91l-3.05-.58V37.89h8.75V55l2.74.58V59h-11.2Zm8.46-22.77h-5.7V28.55h5.7Z"/><path d="M1256.08,55.6l3-.58V34.61l-3-.59V30.58h11.63V34l-2.9.59v7.6h2.48l5.47-8-1.68-.24V30.58h11.27V34l-3.08.53-7,9.33,7.85,11.24,2.85.48V59h-11.27V55.6l1.76-.23L1268,47.15h-3.19V55l2.9.58V59h-11.63Z"/><path d="M1299.15,56.35a7,7,0,0,1-2.51,2.28,7.15,7.15,0,0,1-3.41.8,6.61,6.61,0,0,1-5.23-2.14c-1.26-1.42-1.9-3.64-1.9-6.65V41.91l-2.32-.58V37.89h8V50.68a5.47,5.47,0,0,0,.77,3.31,2.71,2.71,0,0,0,2.29,1,5.78,5.78,0,0,0,2.34-.44,4.09,4.09,0,0,0,1.61-1.26V41.91l-2.5-.58V37.89h8.2V55l2.56.58V59h-7.56Z"/><path d="M1329.76,49a12.41,12.41,0,0,1-2.11,7.56,7.14,7.14,0,0,1-6.1,2.83,6.14,6.14,0,0,1-5.52-3l-.41,2.6h-4.93V32.58l-3-.59V28.55h8.71V40.13a6.55,6.55,0,0,1,2.19-2,6.25,6.25,0,0,1,2.94-.68,7,7,0,0,1,6.14,3,14,14,0,0,1,2.11,8.09Zm-5.69-.41a10.91,10.91,0,0,0-.91-4.89,3.17,3.17,0,0,0-3.09-1.81,4.27,4.27,0,0,0-2.25.56,3.84,3.84,0,0,0-1.44,1.59V53a3.57,3.57,0,0,0,1.45,1.48,4.69,4.69,0,0,0,2.28.51,3.24,3.24,0,0,0,3.08-1.55,9,9,0,0,0,.88-4.41Z"/><path d="M1342.51,59.43a9.47,9.47,0,0,1-7.3-2.93,10.44,10.44,0,0,1-2.74-7.44v-.78a11.52,11.52,0,0,1,2.59-7.75,9.64,9.64,0,0,1,13.58-.45,9.88,9.88,0,0,1,2.37,7v3.1h-12.62l0,.12a5.47,5.47,0,0,0,1.4,3.44,4.34,4.34,0,0,0,3.37,1.35,11.08,11.08,0,0,0,3.14-.38,14.81,14.81,0,0,0,2.73-1.21l1.55,3.52a11.2,11.2,0,0,1-3.39,1.74A14.4,14.4,0,0,1,1342.51,59.43ZM1342,41.89a3,3,0,0,0-2.5,1.21,6.31,6.31,0,0,0-1.13,3.19l.06.09h7v-.5a4.55,4.55,0,0,0-.85-2.9A3,3,0,0,0,1342,41.89Z"/><path d="M1364.79,47.89a25.73,25.73,0,0,1-3.08,12.92q-3.09,5.43-6.88,7h-.11L1353.66,65a14.49,14.49,0,0,0,4.28-6.19,29,29,0,0,0,1.76-10.9v-.51a28.76,28.76,0,0,0-1.78-10.87,14.87,14.87,0,0,0-4.26-6.24l1.06-2.77h.11q3.8,1.56,6.88,7a25.75,25.75,0,0,1,3.08,12.91Z"/><g id="Scone_logo_black" data-name="Scone logo black"><g class="cls-10"><g class="cls-10"><path class="cls-11" d="M293.24,351.08h-2.57a1,1,0,0,0-1,1v2.62a1,1,0,0,0,1,1h2.57a1,1,0,0,0,1-1v-2.62a1,1,0,0,0-1-1m-8.94,4.59h2.57a1,1,0,0,0,1-1v-2.62a1,1,0,0,0-1-1H284.3a1,1,0,0,0-1,1v2.62a1,1,0,0,0,1,1m-2.76-1v-2.62a1,1,0,0,0-1-1H278a1,1,0,0,0-1,1v2.62a1,1,0,0,0,1,1h2.56a1,1,0,0,0,1-1m11.9,2.81a.75.75,0,0,0-.74.74v3.06a.74.74,0,0,0,1.48,0v-3.06a.7.7,0,0,0-.74-.74m-7.06,1v2.61a1,1,0,0,0,1,1h2.56a1,1,0,0,0,1-1v-2.61a1,1,0,0,0-1-1h-2.56a1,1,0,0,0-1,1m-1.83,2.61v-2.61a1,1,0,0,0-1-1H281a1,1,0,0,0-1,1v2.61a1,1,0,0,0,1,1h2.56a1,1,0,0,0,1-1m8.69,2.82h-2.57a1,1,0,0,0-1,1v2.62a1,1,0,0,0,1,1h2.57a1,1,0,0,0,1-1V364.9a1,1,0,0,0-1-1m-6.66,0H284a1,1,0,0,0-1,1v2.62a1,1,0,0,0,1,1h2.57a1,1,0,0,0,1-1V364.9a1,1,0,0,0-1-1"/><path class="cls-11" d="M296.35,350.05a5.89,5.89,0,0,0,4,1.23c.09,0,0,.1,0,.2v7.06c0,2.71-3.31,4.39-4.1,4.83-.1.05-.1-.05-.1-.05l.05-13.22c-.05,0,.05-.1.1-.05"/><path class="cls-11" d="M288.6,349.7c5.43-.2,6.32-2.07,6.32-2.07a.26.26,0,0,1,.24-.15c.1,0,.2,0,.25.1s.84,2,6.27,2c.15,0,.2.1.2.25v9.28c0,3-5.63,6.32-5.73,6.37s-.2.14-.2.19V368c0,.1.35.15.5.1,2.07-1.13,7.89-4.34,7.89-8.29V348c0-.19-.34-.34-.54-.34-6.91,0-8.19-2.52-8.19-2.52-.05-.15-.3-.1-.45-.1s-.24-.05-.29.05-1.14,2.62-8,2.62c-.25,0-.29.1-.29.29v1.48s-.05.35.19.35,1.83-.1,1.83-.1"/><path d="M309.48,364.85l2.76-1a3.79,3.79,0,0,0,3.6,2.07,4.07,4.07,0,0,0,2.13-.49,1.68,1.68,0,0,0,.88-1.48c0-1.48-2-2.37-3.5-3l-.1,0a13.23,13.23,0,0,1-3.21-1.78,4,4,0,0,1-1.58-3.26,4.35,4.35,0,0,1,1.63-3.4,6.33,6.33,0,0,1,4.1-1.39,5.91,5.91,0,0,1,5.43,3l-2.86,1.09a2.31,2.31,0,0,0-1-1,4.08,4.08,0,0,0-1.58-.34c-1.58,0-2.67.84-2.67,2a2.23,2.23,0,0,0,1.09,1.78,14.28,14.28,0,0,0,2.47,1.28l.34.15c2.13.89,4.74,2,4.74,4.89a4.11,4.11,0,0,1-1.87,3.5,7.58,7.58,0,0,1-4.5,1.29c-3-.05-5.38-1.44-6.31-3.76"/><path d="M334,368.56a9,9,0,0,1-3.41-.69,9,9,0,0,1-4.64-4.64,8.77,8.77,0,0,1,0-6.82,9,9,0,0,1,4.64-4.64,9,9,0,0,1,3.41-.69,8.51,8.51,0,0,1,4,.94,8.74,8.74,0,0,1,3,2.52l-2.32,1.73a5.89,5.89,0,0,0-2-1.68,6.1,6.1,0,0,0-2.66-.64,5.87,5.87,0,0,0-5.87,5.87,5.78,5.78,0,0,0,1.72,4.15,5.77,5.77,0,0,0,7.11.88,5.88,5.88,0,0,0,2.12-2.17l2.52,1.43a8.54,8.54,0,0,1-3.16,3.21,8,8,0,0,1-4.39,1.24"/><path d="M353.06,368.61a8.89,8.89,0,0,1-3.41-.7,8,8,0,0,1-2.76-1.87,8.66,8.66,0,0,1-2.57-6.17,8.16,8.16,0,0,1,.69-3.41,9,9,0,0,1,1.88-2.76,9.34,9.34,0,0,1,2.76-1.88,8.75,8.75,0,0,1,6.81,0,8.15,8.15,0,0,1,2.77,1.88,8.71,8.71,0,0,1,0,12.34,9,9,0,0,1-2.77,1.87,8.8,8.8,0,0,1-3.4.7m0-14.66a5.69,5.69,0,0,0-4.15,1.72,5.9,5.9,0,0,0-1.72,4.15,5.69,5.69,0,0,0,1.72,4.15,5.87,5.87,0,0,0,8.3,0,5.9,5.9,0,0,0,1.72-4.15,6,6,0,0,0-1.72-4.15,5.9,5.9,0,0,0-4.15-1.72"/><polygon points="381.64 351.23 381.64 369 369.4 357.75 369.4 368.31 366.29 368.31 366.29 350.59 378.53 361.89 378.53 351.23 381.64 351.23"/><polygon points="389.98 353.85 389.98 358.39 398.52 358.39 398.52 361.05 389.98 361.05 389.98 365.64 399.55 365.64 399.55 368.31 386.87 368.31 386.87 351.23 399.55 351.23 399.55 353.9 389.98 353.9 389.98 353.85"/></g></g></g><path class="cls-5" d="M1099,193.08a5.42,5.42,0,0,1-1.85,1.64,5.18,5.18,0,0,1-2.43.56,5.78,5.78,0,0,1-4.76-2.1,8.62,8.62,0,0,1-1.69-5.54v-.31a9.64,9.64,0,0,1,1.7-5.93,5.64,5.64,0,0,1,4.78-2.25,4.83,4.83,0,0,1,2.24.51,5.44,5.44,0,0,1,1.75,1.44v-5.57l-2.4-.43v-2.53h6.87V192l2.14.43V195h-6Zm-6.25-5.44a6.11,6.11,0,0,0,.72,3.21,2.59,2.59,0,0,0,2.38,1.17,3.66,3.66,0,0,0,1.71-.38,3.1,3.1,0,0,0,1.18-1.07V184a3.33,3.33,0,0,0-1.18-1.15,3.21,3.21,0,0,0-1.67-.41,2.52,2.52,0,0,0-2.39,1.36,7.38,7.38,0,0,0-.75,3.56Z"/><path class="cls-5" d="M1114.67,195.28a7.71,7.71,0,0,1-5.73-2.16,7.42,7.42,0,0,1-2.15-5.47v-.57a8.17,8.17,0,0,1,2-5.7,7.94,7.94,0,0,1,10.66-.34,7.06,7.06,0,0,1,1.85,5.13v2.29h-9.9l0,.08a4,4,0,0,0,1.1,2.53,3.54,3.54,0,0,0,2.64,1,9,9,0,0,0,2.47-.28,12,12,0,0,0,2.14-.88l1.21,2.58a9.09,9.09,0,0,1-2.65,1.28A12.17,12.17,0,0,1,1114.67,195.28Zm-.4-12.9a2.39,2.39,0,0,0-2,.89,4.42,4.42,0,0,0-.89,2.34l0,.07H1117v-.37a3.18,3.18,0,0,0-.67-2.13A2.47,2.47,0,0,0,1114.27,182.38Z"/><path class="cls-5" d="M1123.11,182v-2.52h6.5l.21,1.81a5.32,5.32,0,0,1,1.76-1.56,5.07,5.07,0,0,1,2.39-.54,5.63,5.63,0,0,1,4.78,2.25,9.57,9.57,0,0,1,1.71,5.93v.31a8.51,8.51,0,0,1-1.71,5.54,5.76,5.76,0,0,1-4.75,2.1,5.67,5.67,0,0,1-2.31-.46,4.74,4.74,0,0,1-1.73-1.32V198l2.16.43V201h-8.78v-2.53l2.16-.43v-15.6Zm12.87,5.37a7.14,7.14,0,0,0-.78-3.56,2.57,2.57,0,0,0-2.39-1.36,3.53,3.53,0,0,0-1.72.39,2.78,2.78,0,0,0-1.13,1.1v6.81a2.67,2.67,0,0,0,1.13,1,4,4,0,0,0,1.75.35,2.62,2.62,0,0,0,2.38-1.19,5.94,5.94,0,0,0,.76-3.23Z"/><path class="cls-5" d="M1141.67,175.1v-2.53h6.86V192l2.16.43V195h-8.79v-2.51l2.16-.43v-16.5Z"/><path class="cls-5" d="M1151.84,187.06a8,8,0,0,1,2.08-5.69,8.56,8.56,0,0,1,11.49,0,8,8,0,0,1,2.08,5.7v.3a8,8,0,0,1-2.08,5.71,8.57,8.57,0,0,1-11.49,0,8,8,0,0,1-2.08-5.71Zm4.47.3a6.4,6.4,0,0,0,.8,3.41,2.8,2.8,0,0,0,2.58,1.29,2.76,2.76,0,0,0,2.53-1.29,6.35,6.35,0,0,0,.81-3.41v-.3a6.21,6.21,0,0,0-.82-3.37,3.14,3.14,0,0,0-5.1,0,6.39,6.39,0,0,0-.8,3.37Z"/><path class="cls-5" d="M1186.36,182l-1.55.22-6.09,15.12a8.27,8.27,0,0,1-1.93,2.82,5.13,5.13,0,0,1-3.62,1.13,5.9,5.9,0,0,1-1.06-.09c-.34,0-.73-.13-1.18-.24l.52-3.06.45.06.4,0a2.57,2.57,0,0,0,1.71-.51,3.36,3.36,0,0,0,.92-1.27l.51-1.18-5.26-12.8-1.55-.23v-2.52h8.13V182l-1.86.29,2.27,6.21.23,1.12h.09l2.62-7.34-1.87-.29v-2.52h8.12Z"/><path class="cls-5" d="M981.11,227.35a2.72,2.72,0,0,0,1.91-.65,2.25,2.25,0,0,0,.72-1.74h4l0,.08A4.67,4.67,0,0,1,986,229a8.36,8.36,0,0,1-10.56-.61,8,8,0,0,1-2-5.64v-.43a8,8,0,0,1,2.07-5.65,7.64,7.64,0,0,1,5.87-2.21,10.88,10.88,0,0,1,3.6.56,7.25,7.25,0,0,1,2.65,1.58l.06,4.15H984l-.73-2.42a2.75,2.75,0,0,0-.83-.46,3.25,3.25,0,0,0-1.12-.18,2.86,2.86,0,0,0-2.68,1.3,6.36,6.36,0,0,0-.78,3.33v.43a6.74,6.74,0,0,0,.72,3.35A2.65,2.65,0,0,0,981.11,227.35Z"/><path class="cls-5" d="M989.86,222.36a8,8,0,0,1,2.07-5.7,8.56,8.56,0,0,1,11.49,0,8,8,0,0,1,2.08,5.71v.3a8,8,0,0,1-2.08,5.71,7.47,7.47,0,0,1-5.72,2.2,7.55,7.55,0,0,1-5.77-2.2,8,8,0,0,1-2.07-5.71Zm4.47.3a6.45,6.45,0,0,0,.8,3.41,2.81,2.81,0,0,0,2.57,1.28,2.77,2.77,0,0,0,2.54-1.29,6.43,6.43,0,0,0,.8-3.4v-.3a6.34,6.34,0,0,0-.81-3.38,2.79,2.79,0,0,0-2.56-1.31,2.76,2.76,0,0,0-2.54,1.31,6.43,6.43,0,0,0-.8,3.38Z"/><path class="cls-5" d="M1007.2,227.75l2.15-.43v-9.63l-2.38-.43v-2.53h6.54l.2,2.23a6,6,0,0,1,2-1.86,5.57,5.57,0,0,1,2.71-.66,5.19,5.19,0,0,1,3.93,1.48,6.54,6.54,0,0,1,1.41,4.64v6.76l2.14.43v2.52h-8.55v-2.52l1.92-.43v-6.74a3,3,0,0,0-.68-2.22,2.81,2.81,0,0,0-2-.66,3.71,3.71,0,0,0-1.59.34,3.13,3.13,0,0,0-1.18,1v8.32l1.81.43v2.52h-8.43Z"/><path class="cls-5" d="M1026.92,217.67v-2.94h2.47v-1.06a5.55,5.55,0,0,1,1.91-4.52,8.15,8.15,0,0,1,5.37-1.59,12.5,12.5,0,0,1,2.36.23c.77.14,1.67.36,2.69.63l-.64,3.31c-.75-.21-1.42-.38-2-.49a11,11,0,0,0-2.09-.17,3.49,3.49,0,0,0-2.32.66,2.4,2.4,0,0,0-.78,1.94v1.06h10.05v12.59l2.38.43v2.52h-9v-2.52l2.16-.43v-9.65h-5.58v9.65l2.16.43v2.52h-9v-2.52l2.39-.43v-9.65Z"/><path class="cls-5" d="M1058.64,228.37a5.32,5.32,0,0,1-1.85,1.64,5.17,5.17,0,0,1-2.42.56,5.76,5.76,0,0,1-4.76-2.1,8.52,8.52,0,0,1-1.7-5.54v-.3a9.55,9.55,0,0,1,1.71-5.93,5.61,5.61,0,0,1,4.78-2.26,4.82,4.82,0,0,1,2.23.51,5.25,5.25,0,0,1,1.75,1.45v-5.58l-2.39-.43v-2.52h6.86v19.45l2.15.43v2.52h-6Zm-6.25-5.44a6,6,0,0,0,.73,3.21,2.58,2.58,0,0,0,2.38,1.17,3.64,3.64,0,0,0,1.7-.37,3.13,3.13,0,0,0,1.18-1.08v-6.59a3.33,3.33,0,0,0-1.17-1.16,3.37,3.37,0,0,0-1.68-.41,2.54,2.54,0,0,0-2.39,1.37,7.35,7.35,0,0,0-.75,3.56Z"/><path class="cls-5" d="M1074.36,230.57a7.75,7.75,0,0,1-5.73-2.15,7.44,7.44,0,0,1-2.14-5.48v-.57a8.12,8.12,0,0,1,2-5.7,7.91,7.91,0,0,1,10.65-.33,7,7,0,0,1,1.86,5.12v2.29h-9.9l0,.08a3.9,3.9,0,0,0,1.09,2.53,3.55,3.55,0,0,0,2.65,1,9,9,0,0,0,2.46-.28,11.36,11.36,0,0,0,2.15-.88l1.21,2.59a9.15,9.15,0,0,1-2.66,1.27A11.86,11.86,0,0,1,1074.36,230.57Zm-.4-12.9a2.39,2.39,0,0,0-2,.89,4.48,4.48,0,0,0-.89,2.35l.05.07h5.48v-.38a3.23,3.23,0,0,0-.66-2.13A2.5,2.5,0,0,0,1074,217.67Z"/><path class="cls-5" d="M1082.9,227.75l2.14-.43v-9.63l-2.37-.43v-2.53h6.54l.2,2.23a5.84,5.84,0,0,1,2-1.86,5.55,5.55,0,0,1,2.71-.66,5.19,5.19,0,0,1,3.92,1.48,6.54,6.54,0,0,1,1.41,4.64v6.76l2.15.43v2.52h-8.55v-2.52l1.91-.43v-6.74a3,3,0,0,0-.67-2.22,2.81,2.81,0,0,0-2-.66,3.71,3.71,0,0,0-1.59.34,3,3,0,0,0-1.18,1v8.32l1.8.43v2.52h-8.42Z"/><path class="cls-5" d="M1109.66,210.92v3.81h2.92v2.94h-2.92v7.92a1.78,1.78,0,0,0,.4,1.29,1.49,1.49,0,0,0,1.08.39c.3,0,.57,0,.8,0a6.35,6.35,0,0,0,.77-.12l.39,3a11.68,11.68,0,0,1-1.49.32,11.24,11.24,0,0,1-1.59.11,5,5,0,0,1-3.56-1.19,5,5,0,0,1-1.25-3.78v-7.93h-2.44v-2.94h2.44v-3.81Z"/><path class="cls-5" d="M1114.63,227.75l2.16-.43v-9.63l-2.39-.43v-2.53h6.86v12.59l2.15.43v2.52h-8.78Zm6.63-16.74h-4.47v-3.14h4.47Z"/><path class="cls-5" d="M1135.44,230.27a6.07,6.07,0,0,1-.32-.8,5,5,0,0,1-.22-.82A6.29,6.29,0,0,1,1133,230a6.18,6.18,0,0,1-2.61.53,5.71,5.71,0,0,1-3.87-1.24,4.27,4.27,0,0,1-1.43-3.38,3.78,3.78,0,0,1,1.87-3.38,10.3,10.3,0,0,1,5.48-1.19h2.29v-1.52a2.21,2.21,0,0,0-.69-1.74,3,3,0,0,0-2-.62,5.05,5.05,0,0,0-1.36.17,3.9,3.9,0,0,0-1,.39l-.29,1.67H1126v-3.45a13.26,13.26,0,0,1,2.81-1.31,11,11,0,0,1,3.46-.53,8.18,8.18,0,0,1,5,1.42,4.68,4.68,0,0,1,1.93,4V227a5.54,5.54,0,0,0,.06.6l1.36.17v2.52Zm-3.88-2.8a4.14,4.14,0,0,0,1.84-.41,3.55,3.55,0,0,0,1.29-1v-2.37h-2.29a3.24,3.24,0,0,0-2.16.63,1.88,1.88,0,0,0-.73,1.5,1.5,1.5,0,0,0,.54,1.23A2.3,2.3,0,0,0,1131.56,227.47Z"/><path class="cls-5" d="M1141.64,210.39v-2.52h6.87v19.45l2.16.43v2.52h-8.8v-2.52l2.16-.43v-16.5Z"/><path class="cls-5" d="M1167.6,227.35a2.7,2.7,0,0,0,1.91-.65,2.25,2.25,0,0,0,.72-1.74h4l0,.08a4.71,4.71,0,0,1-1.89,3.94,8.36,8.36,0,0,1-10.56-.61,8,8,0,0,1-2-5.64v-.43a8,8,0,0,1,2.06-5.65,7.64,7.64,0,0,1,5.87-2.21,10.88,10.88,0,0,1,3.6.56,7.3,7.3,0,0,1,2.66,1.58l.06,4.15h-3.63l-.74-2.42a2.64,2.64,0,0,0-.83-.46,3.21,3.21,0,0,0-1.12-.18,2.87,2.87,0,0,0-2.68,1.3,6.36,6.36,0,0,0-.78,3.33v.43a6.74,6.74,0,0,0,.72,3.35A2.65,2.65,0,0,0,1167.6,227.35Z"/><path class="cls-5" d="M1176.35,222.36a8,8,0,0,1,2.07-5.7,8.57,8.57,0,0,1,11.5,0,8,8,0,0,1,2.07,5.71v.3a8,8,0,0,1-2.07,5.71,8.61,8.61,0,0,1-11.5,0,8,8,0,0,1-2.07-5.71Zm4.47.3a6.45,6.45,0,0,0,.8,3.41,2.81,2.81,0,0,0,2.57,1.28,2.77,2.77,0,0,0,2.54-1.29,6.34,6.34,0,0,0,.8-3.4v-.3a6.34,6.34,0,0,0-.81-3.38,2.79,2.79,0,0,0-2.56-1.31,2.76,2.76,0,0,0-2.54,1.31,6.43,6.43,0,0,0-.8,3.38Z"/><path class="cls-5" d="M1193.69,227.75l2.15-.43v-9.63l-2.38-.43v-2.53H1200l.2,2.23a5.9,5.9,0,0,1,2-1.86,5.61,5.61,0,0,1,2.72-.66,5.19,5.19,0,0,1,3.92,1.48,6.54,6.54,0,0,1,1.41,4.64v6.76l2.14.43v2.52h-8.55v-2.52l1.92-.43v-6.74a3,3,0,0,0-.67-2.22,2.83,2.83,0,0,0-2-.66,3.72,3.72,0,0,0-1.6.34,3.13,3.13,0,0,0-1.18,1v8.32l1.81.43v2.52h-8.43Z"/><path class="cls-5" d="M1220.46,210.92v3.81h2.91v2.94h-2.91v7.92a1.78,1.78,0,0,0,.4,1.29,1.47,1.47,0,0,0,1.07.39c.31,0,.58,0,.81,0a6.35,6.35,0,0,0,.77-.12l.38,3a11.54,11.54,0,0,1-1.48.32,11.28,11.28,0,0,1-1.6.11,5,5,0,0,1-3.56-1.19,5,5,0,0,1-1.25-3.78v-7.93h-2.43v-2.94H1216v-3.81Z"/><path class="cls-5" d="M1236.12,230.27a7.85,7.85,0,0,1-.32-.8,6.17,6.17,0,0,1-.21-.82,6.41,6.41,0,0,1-1.94,1.39,6.18,6.18,0,0,1-2.61.53,5.68,5.68,0,0,1-3.87-1.24,4.24,4.24,0,0,1-1.44-3.38,3.8,3.8,0,0,1,1.87-3.38,10.36,10.36,0,0,1,5.49-1.19h2.28v-1.52a2.21,2.21,0,0,0-.69-1.74,3,3,0,0,0-2-.62,5.11,5.11,0,0,0-1.36.17,3.9,3.9,0,0,0-1,.39l-.29,1.67h-3.37l0-3.45a13,13,0,0,1,2.81-1.31,11,11,0,0,1,3.46-.53,8.18,8.18,0,0,1,5,1.42,4.7,4.7,0,0,1,1.92,4v6.41c0,.24,0,.47,0,.68a3.83,3.83,0,0,0,.05.6l1.37.17v2.52Zm-3.87-2.8a4.1,4.1,0,0,0,1.83-.41,3.46,3.46,0,0,0,1.29-1v-2.37h-2.28a3.24,3.24,0,0,0-2.16.63,1.89,1.89,0,0,0-.74,1.5,1.48,1.48,0,0,0,.55,1.23A2.29,2.29,0,0,0,1232.25,227.47Z"/><path class="cls-5" d="M1242.67,227.75l2.16-.43v-9.63l-2.39-.43v-2.53h6.86v12.59l2.15.43v2.52h-8.78ZM1249.3,211h-4.47v-3.14h4.47Z"/><path class="cls-5" d="M1252.67,227.75l2.15-.43v-9.63l-2.38-.43v-2.53H1259l.2,2.23a5.84,5.84,0,0,1,2-1.86,5.57,5.57,0,0,1,2.71-.66,5.19,5.19,0,0,1,3.93,1.48,6.59,6.59,0,0,1,1.4,4.64v6.76l2.15.43v2.52h-8.55v-2.52l1.92-.43v-6.74a3,3,0,0,0-.68-2.22,2.81,2.81,0,0,0-2-.66,3.71,3.71,0,0,0-1.59.34,3.13,3.13,0,0,0-1.18,1v8.32l1.81.43v2.52h-8.43Z"/><path class="cls-5" d="M1280.62,230.57a7.75,7.75,0,0,1-5.73-2.15,7.45,7.45,0,0,1-2.15-5.48v-.57a8.17,8.17,0,0,1,2-5.7,7,7,0,0,1,12.51,4.79v2.29h-9.89l0,.08a3.9,3.9,0,0,0,1.09,2.53,3.54,3.54,0,0,0,2.64,1,9,9,0,0,0,2.47-.28,11.63,11.63,0,0,0,2.15-.88l1.21,2.59a9.15,9.15,0,0,1-2.66,1.27A11.86,11.86,0,0,1,1280.62,230.57Zm-.4-12.9a2.39,2.39,0,0,0-2,.89,4.48,4.48,0,0,0-.89,2.35l.05.07h5.48v-.38a3.23,3.23,0,0,0-.66-2.13A2.5,2.5,0,0,0,1280.22,217.67Z"/><path class="cls-5" d="M1289.74,227.75l2.14-.43v-9.63l-2.37-.43v-2.53h6.54l.2,2.27a4.93,4.93,0,0,1,1.5-1.88,3.5,3.5,0,0,1,2.13-.68,6.42,6.42,0,0,1,.74.05,5.29,5.29,0,0,1,.65.13l-.47,3.81-1.84,0a3.29,3.29,0,0,0-1.62.36,2.35,2.35,0,0,0-1,1v7.55l2.14.43v2.52h-8.76Z"/><path class="cls-12" d="M1573.32,105a26.8,26.8,0,1,1-8,19.1,26.21,26.21,0,0,1,5.5-16.2"/><path class="cls-13" d="M1591.42,137.13h-9.7c-1.3,0-1.8-.5-1.8-1.8v-14.8c0-1.3.5-1.8,1.8-1.8H1601c1.3,0,1.8.5,1.8,1.8v14.8c0,1.3-.5,1.8-1.8,1.8C1597.82,137.23,1594.62,137.13,1591.42,137.13Z"/><path class="cls-13" d="M1581.52,119.43c.3-4.1,2-7.7,6-9.5a9.53,9.53,0,0,1,12.6,4.9c.2.5.4,1.1.6,1.6.2.9.3,1.8.5,2.7"/><path class="cls-14" d="M1589.82,130.83h0v2c0,.4.1.5.6.5h1.9c.5,0,.7-.1.7-.6V129a1.05,1.05,0,0,1,.5-.9,2.78,2.78,0,0,0,1.4-3.3,3.61,3.61,0,0,0-3.3-2.2,4,4,0,0,0-3.7,2,2.81,2.81,0,0,0,1.3,3.5,1,1,0,0,1,.6,1.1Z"/></svg>