<svg id="Ebene_1" data-name="Ebene 1" xmlns="http://www.w3.org/2000/svg" xmlns:xlink="http://www.w3.org/1999/xlink" viewBox="0 0 1388 336"><defs><style>.cls-1,.cls-2,.cls-4{fill:none;}.cls-2,.cls-4,.cls-6{stroke:#fc0;}.cls-2,.cls-6{stroke-miterlimit:10;stroke-width:8px;}.cls-3{fill:#306;}.cls-4{stroke-linecap:round;stroke-linejoin:round;stroke-width:6px;}.cls-5{fill:#fc0;}.cls-6{fill:url(#Unbenannter_Verlauf_5);}.cls-7{fill:#fff;}.cls-8{clip-path:url(#clip-path);}.cls-9{fill:#ffd138;}.cls-10{fill:#326de6;}</style><linearGradient id="Unbenannter_Verlauf_5" x1="57.24" y1="137.5" x2="420.59" y2="137.5" gradientUnits="userSpaceOnUse"><stop offset="0" stop-color="#906"/><stop offset="0.19" stop-color="#780066"/><stop offset="0.4" stop-color="#5a0066"/><stop offset="0.61" stop-color="#406"/><stop offset="0.81" stop-color="#370066"/><stop offset="1" stop-color="#306"/></linearGradient><clipPath id="clip-path"><rect class="cls-1" x="277" y="278" width="122.55" height="24"/></clipPath></defs><rect class="cls-2" x="505.22" y="63" width="363.36" height="149" rx="8"/><path class="cls-3" d="M58,285.1l.66,1,.48,1.4.56-1.43.64-1,1.28.65-.69,1.08-1.23,1.2,1.82-.3h1.28v1.4H61.55l-1.71-.3,1.23,1.2.62,1-1.26.7-.69-1.05-.62-1.52-.5,1.45-.67,1-1.33-.7.72-1.05,1.12-1-1.55.3H55.58v-1.4h1.33l1.65.3-1.2-1.1-.69-1.15Z"/><path class="cls-3" d="M72.22,292.4a5,5,0,0,0-1.52-.25,2.65,2.65,0,0,0-1.81.59,2.48,2.48,0,0,0-.83,1.48V303H65.93v-12.5h1.49l.4,1.53h.11a3.84,3.84,0,0,1,1.21-1.31,3.21,3.21,0,0,1,1.8-.47,7.21,7.21,0,0,1,1.73.25Z"/><path class="cls-3" d="M84.73,302a5.87,5.87,0,0,1-2,.95,9,9,0,0,1-2.58.35,6.88,6.88,0,0,1-2.64-.46,4.78,4.78,0,0,1-1.84-1.32,5.81,5.81,0,0,1-1.07-2.07,9.78,9.78,0,0,1-.34-2.7,7,7,0,0,1,1.52-4.87,5.56,5.56,0,0,1,4.35-1.68,9.27,9.27,0,0,1,1.81.19,4.27,4.27,0,0,1,1.63.71,3.78,3.78,0,0,1,1.17,1.49,6.05,6.05,0,0,1,.45,2.54,11.13,11.13,0,0,1-.16,1.82H76.46a7.25,7.25,0,0,0,.24,2,3.69,3.69,0,0,0,.75,1.43,3.3,3.3,0,0,0,1.32.9,5.51,5.51,0,0,0,2,.31,5.72,5.72,0,0,0,1.81-.3,3.9,3.9,0,0,0,1.36-.7Zm-4.59-10.05a3.83,3.83,0,0,0-2.52.78,3.75,3.75,0,0,0-1.13,2.65H83.1a3.65,3.65,0,0,0-.77-2.66A3,3,0,0,0,80.14,291.92Z"/><path class="cls-3" d="M98.47,308H96.33v-6.25h-.1a3.67,3.67,0,0,1-1.35,1.16,5,5,0,0,1-2.15.39,4.75,4.75,0,0,1-3.94-1.58,7.74,7.74,0,0,1-1.28-4.92A5.8,5.8,0,0,1,94,290.25a13.18,13.18,0,0,1,2.65.25,9.06,9.06,0,0,1,1.83.52Zm-5.36-6.45a3.24,3.24,0,0,0,2.13-.64,3.62,3.62,0,0,0,1.09-2v-6.41a6.45,6.45,0,0,0-2.72-.47,3.63,3.63,0,0,0-2.86,1.16,5.29,5.29,0,0,0-1,3.59,9.05,9.05,0,0,0,.19,1.94,4.58,4.58,0,0,0,.58,1.51,2.84,2.84,0,0,0,1,1A3.18,3.18,0,0,0,93.11,301.52Z"/><path class="cls-3" d="M104.5,290.47v7.13a10.73,10.73,0,0,0,.12,1.71,3.42,3.42,0,0,0,.41,1.23,1.82,1.82,0,0,0,.8.73,2.83,2.83,0,0,0,1.28.25,3.62,3.62,0,0,0,1.28-.21,3.34,3.34,0,0,0,1-.59,4.23,4.23,0,0,0,.77-.86,4.5,4.5,0,0,0,.55-1v-8.35h2.13v8.95c0,.6,0,1.23.07,1.87a11.77,11.77,0,0,0,.23,1.68h-1.47l-.53-2H111a5,5,0,0,1-1.65,1.62,4.83,4.83,0,0,1-2.64.65,6.67,6.67,0,0,1-1.88-.23,2.91,2.91,0,0,1-1.36-.84,3.89,3.89,0,0,1-.83-1.61,10.17,10.17,0,0,1-.28-2.57v-7.55Z"/><path class="cls-3" d="M117,286.67a1.32,1.32,0,0,1,.42-1,1.39,1.39,0,0,1,1-.42,1.53,1.53,0,0,1,1.09.42,1.29,1.29,0,0,1,.46,1,1.17,1.17,0,0,1-.46.95,1.59,1.59,0,0,1-1.09.38,1.44,1.44,0,0,1-1-.38A1.19,1.19,0,0,1,117,286.67Zm.46,3.8h2.13V303h-2.13Z"/><path class="cls-3" d="M130.4,292.4a5,5,0,0,0-1.52-.25,2.67,2.67,0,0,0-1.82.59,2.53,2.53,0,0,0-.83,1.48V303H124.1v-12.5h1.49L126,292h.11a3.94,3.94,0,0,1,1.21-1.31,3.27,3.27,0,0,1,1.81-.47,7.28,7.28,0,0,1,1.73.25Z"/><path class="cls-3" d="M142.91,302a6,6,0,0,1-2,.95,9,9,0,0,1-2.57.35,6.81,6.81,0,0,1-2.64-.46,4.7,4.7,0,0,1-1.84-1.32,5.66,5.66,0,0,1-1.07-2.07,9.76,9.76,0,0,1-.35-2.7,7,7,0,0,1,1.52-4.87,5.58,5.58,0,0,1,4.35-1.68,9.19,9.19,0,0,1,1.81.19,4.2,4.2,0,0,1,1.63.71,3.89,3.89,0,0,1,1.18,1.49,6.05,6.05,0,0,1,.45,2.54,11.13,11.13,0,0,1-.16,1.82h-8.56a7.25,7.25,0,0,0,.24,2,3.81,3.81,0,0,0,.74,1.43,3.3,3.3,0,0,0,1.32.9,5.58,5.58,0,0,0,2,.31,5.78,5.78,0,0,0,1.82-.3,4,4,0,0,0,1.36-.7Zm-4.59-10.05a3.3,3.3,0,0,0-3.66,3.43h6.62a3.64,3.64,0,0,0-.78-2.66A3,3,0,0,0,138.32,291.92Z"/><path class="cls-3" d="M152.59,299.57a1.47,1.47,0,0,0-.48-1.17,4.17,4.17,0,0,0-1.19-.71c-.47-.19-1-.38-1.55-.55a7.41,7.41,0,0,1-1.54-.68,3.9,3.9,0,0,1-1.19-1.06,2.88,2.88,0,0,1-.48-1.75,3.11,3.11,0,0,1,1.09-2.64,4.9,4.9,0,0,1,3-.84,10.34,10.34,0,0,1,2.42.24,10.45,10.45,0,0,1,1.69.56l-.5,1.65a9,9,0,0,0-1.49-.48,7.75,7.75,0,0,0-1.85-.22,3.08,3.08,0,0,0-1.72.38,1.47,1.47,0,0,0-.55,1.3,1.19,1.19,0,0,0,.48,1,5.3,5.3,0,0,0,1.19.65c.47.19,1,.38,1.55.56a7,7,0,0,1,1.54.73,4,4,0,0,1,1.19,1.14,3.1,3.1,0,0,1,.48,1.81,4,4,0,0,1-.28,1.5,2.93,2.93,0,0,1-.86,1.2,4.43,4.43,0,0,1-1.46.79,6.58,6.58,0,0,1-2,.28,10.73,10.73,0,0,1-2.59-.27,8.25,8.25,0,0,1-1.78-.65l.64-1.7a7.72,7.72,0,0,0,1.6.6,7.48,7.48,0,0,0,2,.27,3.83,3.83,0,0,0,1.89-.42A1.6,1.6,0,0,0,152.59,299.57Z"/><path class="cls-3" d="M164.86,291.4a7.92,7.92,0,0,1,2.36-.85,14.24,14.24,0,0,1,2.81-.28,6,6,0,0,1,2.23.35,3.09,3.09,0,0,1,1.28.92,3.05,3.05,0,0,1,.59,1.23,6.88,6.88,0,0,1,.14,1.35c0,1,0,2-.08,2.93s-.08,1.85-.08,2.7c0,.62,0,1.2.08,1.75a7.58,7.58,0,0,0,.3,1.52h-1.58l-.56-1.75h-.13a3.8,3.8,0,0,1-.6.69,3.52,3.52,0,0,1-.87.6,5.49,5.49,0,0,1-1.17.44,5.89,5.89,0,0,1-1.52.17,4.82,4.82,0,0,1-1.59-.25,3.67,3.67,0,0,1-1.27-.71,3.54,3.54,0,0,1-.84-1.11,3.49,3.49,0,0,1-.3-1.48,3.28,3.28,0,0,1,.48-1.83,3.43,3.43,0,0,1,1.34-1.18A7,7,0,0,1,168,296a16.89,16.89,0,0,1,2.68-.19h.73a6.11,6.11,0,0,1,.73.05,11.27,11.27,0,0,0,.08-1.35,2.59,2.59,0,0,0-.58-1.93,3.2,3.2,0,0,0-2.14-.55,8.68,8.68,0,0,0-1,.07c-.35,0-.7.1-1.07.18a10.52,10.52,0,0,0-1,.28,6,6,0,0,0-.87.37Zm3.79,10a4.55,4.55,0,0,0,1.33-.18,4.12,4.12,0,0,0,1-.48,2.94,2.94,0,0,0,.71-.64,2.57,2.57,0,0,0,.41-.67v-2.07l-.76,0-.76,0a14.08,14.08,0,0,0-1.61.09,5.35,5.35,0,0,0-1.39.33,2.4,2.4,0,0,0-1,.65,1.5,1.5,0,0,0-.36,1,1.77,1.77,0,0,0,.67,1.44A2.52,2.52,0,0,0,168.65,301.42Z"/><path class="cls-3" d="M187.4,302.15a6,6,0,0,1-1.9.84,9,9,0,0,1-2.29.28,6.52,6.52,0,0,1-2.61-.46,4.39,4.39,0,0,1-1.75-1.32,5.66,5.66,0,0,1-1-2.08,11.17,11.17,0,0,1-.31-2.69,7.1,7.1,0,0,1,1.5-4.86,5.44,5.44,0,0,1,4.29-1.69,11.18,11.18,0,0,1,2.18.19,7.42,7.42,0,0,1,1.61.54l-.61,1.72a6.38,6.38,0,0,0-3-.7q-3.8,0-3.79,4.8a7.69,7.69,0,0,0,.2,1.82,4.11,4.11,0,0,0,.67,1.52,3.39,3.39,0,0,0,1.22,1.06,4,4,0,0,0,1.88.4,5.09,5.09,0,0,0,1.72-.27,4.62,4.62,0,0,0,1.24-.63Z"/><path class="cls-3" d="M198.81,302.15a5.84,5.84,0,0,1-1.89.84,9,9,0,0,1-2.29.28,6.54,6.54,0,0,1-2.62-.46,4.54,4.54,0,0,1-1.75-1.32,5.49,5.49,0,0,1-1-2.08,10.69,10.69,0,0,1-.31-2.69,7.15,7.15,0,0,1,1.49-4.86,5.46,5.46,0,0,1,4.3-1.69,11.07,11.07,0,0,1,2.17.19,7.33,7.33,0,0,1,1.62.54l-.62,1.72a6.62,6.62,0,0,0-1.36-.51,6.75,6.75,0,0,0-1.6-.19q-3.78,0-3.78,4.8a7.69,7.69,0,0,0,.2,1.82,4.26,4.26,0,0,0,.66,1.52,3.34,3.34,0,0,0,1.23,1.06,4,4,0,0,0,1.88.4,5.13,5.13,0,0,0,1.72-.27,4.62,4.62,0,0,0,1.24-.63Z"/><path class="cls-3" d="M210.87,302a5.87,5.87,0,0,1-2,.95,9,9,0,0,1-2.58.35,6.88,6.88,0,0,1-2.64-.46,4.78,4.78,0,0,1-1.84-1.32,5.81,5.81,0,0,1-1.07-2.07,9.78,9.78,0,0,1-.34-2.7,7,7,0,0,1,1.52-4.87,5.56,5.56,0,0,1,4.35-1.68,9.35,9.35,0,0,1,1.81.19,4.27,4.27,0,0,1,1.63.71,3.78,3.78,0,0,1,1.17,1.49,6.05,6.05,0,0,1,.45,2.54,11.13,11.13,0,0,1-.16,1.82H202.6a7.25,7.25,0,0,0,.24,2,3.69,3.69,0,0,0,.75,1.43,3.3,3.3,0,0,0,1.32.9,5.51,5.51,0,0,0,2,.31,5.77,5.77,0,0,0,1.81-.3,3.9,3.9,0,0,0,1.36-.7Zm-4.59-10.05a3.83,3.83,0,0,0-2.52.78,3.75,3.75,0,0,0-1.13,2.65h6.61a3.65,3.65,0,0,0-.77-2.66A3,3,0,0,0,206.28,291.92Z"/><path class="cls-3" d="M220.55,299.57a1.47,1.47,0,0,0-.48-1.17,4.11,4.11,0,0,0-1.18-.71c-.48-.19-1-.38-1.55-.55a7.5,7.5,0,0,1-1.55-.68,3.9,3.9,0,0,1-1.19-1.06,2.88,2.88,0,0,1-.48-1.75,3.12,3.12,0,0,1,1.1-2.64,4.88,4.88,0,0,1,3-.84,10.25,10.25,0,0,1,2.41.24,10.59,10.59,0,0,1,1.7.56l-.51,1.65a8.89,8.89,0,0,0-1.48-.48,7.88,7.88,0,0,0-1.85-.22,3.06,3.06,0,0,0-1.72.38,1.45,1.45,0,0,0-.55,1.3,1.19,1.19,0,0,0,.48,1,5.08,5.08,0,0,0,1.19.65c.47.19,1,.38,1.54.56a7.12,7.12,0,0,1,1.55.73,4.17,4.17,0,0,1,1.19,1.14,3.1,3.1,0,0,1,.48,1.81,4.16,4.16,0,0,1-.28,1.5,3,3,0,0,1-.87,1.2,4.38,4.38,0,0,1-1.45.79,6.58,6.58,0,0,1-2,.28,10.67,10.67,0,0,1-2.59-.27,8.36,8.36,0,0,1-1.79-.65l.64-1.7a7.72,7.72,0,0,0,1.6.6,7.59,7.59,0,0,0,2,.27,3.84,3.84,0,0,0,1.9-.42A1.61,1.61,0,0,0,220.55,299.57Z"/><path class="cls-3" d="M231.78,299.57a1.47,1.47,0,0,0-.48-1.17,4.11,4.11,0,0,0-1.18-.71c-.48-.19-1-.38-1.55-.55a7.5,7.5,0,0,1-1.55-.68,3.9,3.9,0,0,1-1.19-1.06,2.88,2.88,0,0,1-.48-1.75,3.12,3.12,0,0,1,1.1-2.64,4.88,4.88,0,0,1,3-.84,10.25,10.25,0,0,1,2.41.24,10.59,10.59,0,0,1,1.7.56l-.51,1.65a8.89,8.89,0,0,0-1.48-.48,7.88,7.88,0,0,0-1.85-.22,3.12,3.12,0,0,0-1.73.38,1.47,1.47,0,0,0-.54,1.3,1.19,1.19,0,0,0,.48,1,5.08,5.08,0,0,0,1.19.65c.47.19,1,.38,1.54.56a7.12,7.12,0,0,1,1.55.73,4.17,4.17,0,0,1,1.19,1.14,3.1,3.1,0,0,1,.48,1.81,4.16,4.16,0,0,1-.28,1.5,3,3,0,0,1-.87,1.2,4.38,4.38,0,0,1-1.45.79,6.6,6.6,0,0,1-2,.28,10.64,10.64,0,0,1-2.58-.27,8.36,8.36,0,0,1-1.79-.65l.64-1.7a7.72,7.72,0,0,0,1.6.6,7.59,7.59,0,0,0,2,.27,3.84,3.84,0,0,0,1.9-.42A1.61,1.61,0,0,0,231.78,299.57Z"/><path class="cls-3" d="M242.51,290.47h2.08V288l2.13-.58v3.05h3.63v1.75h-3.63v6.93a3.58,3.58,0,0,0,.35,1.84,1.27,1.27,0,0,0,1.17.53,4.39,4.39,0,0,0,1.17-.13c.32-.09.68-.22,1.07-.37l.48,1.53a8,8,0,0,1-1.57.52,7.75,7.75,0,0,1-1.84.2,2.73,2.73,0,0,1-2.3-.86,4.82,4.82,0,0,1-.66-2.89v-7.3h-2.08Z"/><path class="cls-3" d="M252.27,296.72a7.1,7.1,0,0,1,1.5-4.86,5.54,5.54,0,0,1,4.34-1.69,6.7,6.7,0,0,1,2.6.47,4.74,4.74,0,0,1,1.83,1.32A5.61,5.61,0,0,1,263.6,294a9.77,9.77,0,0,1,.35,2.68,7.07,7.07,0,0,1-1.51,4.87,5.51,5.51,0,0,1-4.33,1.68,6.67,6.67,0,0,1-2.6-.46,4.74,4.74,0,0,1-1.83-1.32,5.78,5.78,0,0,1-1.07-2.08A9.8,9.8,0,0,1,252.27,296.72Zm2.21,0a8.34,8.34,0,0,0,.2,1.83,4.43,4.43,0,0,0,.63,1.52,3.14,3.14,0,0,0,1.12,1.05,3.27,3.27,0,0,0,1.68.4q3.63,0,3.63-4.8a8.37,8.37,0,0,0-.2-1.84,4.82,4.82,0,0,0-.63-1.53,3.2,3.2,0,0,0-1.12-1,3.37,3.37,0,0,0-1.68-.39Q254.48,291.91,254.48,296.72Z"/><path class="cls-3" d="M416.66,291.4a8,8,0,0,1,2.36-.85,14.34,14.34,0,0,1,2.82-.28,5.93,5.93,0,0,1,2.22.35,3.09,3.09,0,0,1,1.28.92,2.93,2.93,0,0,1,.59,1.23,6.21,6.21,0,0,1,.15,1.35c0,1,0,2-.08,2.93s-.08,1.85-.08,2.7a16.2,16.2,0,0,0,.08,1.75,7.59,7.59,0,0,0,.29,1.52h-1.57l-.56-1.75H424a3.8,3.8,0,0,1-.6.69,3.66,3.66,0,0,1-.86.6,5.59,5.59,0,0,1-1.18.44,5.84,5.84,0,0,1-1.52.17,4.82,4.82,0,0,1-1.59-.25,3.62,3.62,0,0,1-1.26-.71,3.27,3.27,0,0,1-.84-1.11,3.35,3.35,0,0,1-.31-1.48,3.28,3.28,0,0,1,.48-1.83,3.39,3.39,0,0,1,1.35-1.18,6.89,6.89,0,0,1,2.08-.62,17,17,0,0,1,2.68-.19h.73a6.27,6.27,0,0,1,.74.05c.05-.5.08-1,.08-1.35a2.59,2.59,0,0,0-.59-1.93,3.17,3.17,0,0,0-2.13-.55,8.68,8.68,0,0,0-1,.07,10.68,10.68,0,0,0-1.06.18,10,10,0,0,0-1.05.28,6.34,6.34,0,0,0-.86.37Zm3.79,10a4.51,4.51,0,0,0,1.33-.18,4.38,4.38,0,0,0,1-.48,2.89,2.89,0,0,0,.7-.64,2.63,2.63,0,0,0,.42-.67v-2.07l-.76,0-.76,0a14.26,14.26,0,0,0-1.62.09,5.37,5.37,0,0,0-1.38.33,2.4,2.4,0,0,0-1,.65,1.46,1.46,0,0,0-.36,1,1.79,1.79,0,0,0,.66,1.44A2.55,2.55,0,0,0,420.45,301.42Z"/><path class="cls-3" d="M430.1,290.47h1.47l.4,1.5h.11a4,4,0,0,1,1.59-1.33,5.87,5.87,0,0,1,6.2,1q1.31,1.47,1.3,4.82a8.42,8.42,0,0,1-.44,2.84,5.94,5.94,0,0,1-1.24,2.14,5.43,5.43,0,0,1-1.93,1.35,6.43,6.43,0,0,1-2.52.47,8.07,8.07,0,0,1-1.56-.11,5.84,5.84,0,0,1-1.24-.39V308H430.1Zm5.39,1.45a3.22,3.22,0,0,0-2.14.67,3.57,3.57,0,0,0-1.11,2v6.2a3.83,3.83,0,0,0,1.09.54,6,6,0,0,0,1.63.18,3.6,3.6,0,0,0,2.92-1.28,5.77,5.77,0,0,0,1.08-3.79,8.25,8.25,0,0,0-.19-1.86,3.79,3.79,0,0,0-.6-1.43,2.83,2.83,0,0,0-1.06-.91A3.6,3.6,0,0,0,435.49,291.92Z"/><path class="cls-3" d="M444.53,290.47H446l.4,1.5h.11a4,4,0,0,1,1.59-1.33,5.87,5.87,0,0,1,6.2,1q1.31,1.47,1.3,4.82a8.42,8.42,0,0,1-.44,2.84,5.94,5.94,0,0,1-1.24,2.14A5.43,5.43,0,0,1,452,302.8a6.43,6.43,0,0,1-2.52.47,8.07,8.07,0,0,1-1.56-.11,5.84,5.84,0,0,1-1.24-.39V308h-2.14Zm5.39,1.45a3.22,3.22,0,0,0-2.14.67,3.57,3.57,0,0,0-1.11,2v6.2a3.83,3.83,0,0,0,1.09.54,6,6,0,0,0,1.63.18,3.6,3.6,0,0,0,2.92-1.28,5.77,5.77,0,0,0,1.08-3.79,8.25,8.25,0,0,0-.19-1.86,3.79,3.79,0,0,0-.6-1.43,2.83,2.83,0,0,0-1.06-.91A3.6,3.6,0,0,0,449.92,291.92Z"/><path class="cls-3" d="M464.83,299.57a1.47,1.47,0,0,0-.48-1.17,4.11,4.11,0,0,0-1.18-.71c-.48-.19-1-.38-1.55-.55a7.5,7.5,0,0,1-1.55-.68,4,4,0,0,1-1.19-1.06,2.88,2.88,0,0,1-.48-1.75,3.12,3.12,0,0,1,1.1-2.64,4.88,4.88,0,0,1,3-.84,10.25,10.25,0,0,1,2.41.24,10.59,10.59,0,0,1,1.7.56l-.51,1.65a8.89,8.89,0,0,0-1.48-.48,7.88,7.88,0,0,0-1.85-.22,3.06,3.06,0,0,0-1.72.38,1.45,1.45,0,0,0-.55,1.3,1.19,1.19,0,0,0,.48,1,5.08,5.08,0,0,0,1.19.65c.47.19,1,.38,1.54.56a7.12,7.12,0,0,1,1.55.73,4.17,4.17,0,0,1,1.19,1.14,3.1,3.1,0,0,1,.48,1.81,4.16,4.16,0,0,1-.28,1.5,3,3,0,0,1-.87,1.2,4.38,4.38,0,0,1-1.45.79,6.58,6.58,0,0,1-2,.28,10.67,10.67,0,0,1-2.59-.27,8.36,8.36,0,0,1-1.79-.65l.64-1.7a7.72,7.72,0,0,0,1.6.6,7.59,7.59,0,0,0,2,.27,3.84,3.84,0,0,0,1.9-.42A1.61,1.61,0,0,0,464.83,299.57Z"/><rect class="cls-2" x="964.22" y="63" width="363.36" height="149" rx="8"/><line class="cls-4" x1="895.53" y1="144.62" x2="939.73" y2="144.62"/><polygon class="cls-5" points="925.81 161.8 922.95 158.72 938.12 144.63 922.95 130.53 925.81 127.45 944.28 144.63 925.81 161.8"/><rect class="cls-6" x="57.24" y="63" width="363.36" height="149" rx="8"/><path class="cls-7" d="M198.13,121.78h-3l-.47-1.94a4.33,4.33,0,0,0-1.16-.58A5,5,0,0,0,192,119a3.14,3.14,0,0,0-1.87.49,1.49,1.49,0,0,0-.69,1.24,1.39,1.39,0,0,0,.66,1.17,7.41,7.41,0,0,0,2.63.83,11,11,0,0,1,4.57,1.69,3.61,3.61,0,0,1,1.49,3.06,4,4,0,0,1-1.93,3.43,8.78,8.78,0,0,1-5.06,1.33,11.25,11.25,0,0,1-3.52-.53,9.29,9.29,0,0,1-2.84-1.5l-.05-3.49h3.13l.61,2a2.68,2.68,0,0,0,1.09.46,6.76,6.76,0,0,0,1.44.15,3.84,3.84,0,0,0,2.08-.46,1.41,1.41,0,0,0,.71-1.24,1.46,1.46,0,0,0-.72-1.2,7.78,7.78,0,0,0-2.65-.89,10.84,10.84,0,0,1-4.42-1.66,3.5,3.5,0,0,1-1.49-3,4.27,4.27,0,0,1,1.71-3.37,7.5,7.5,0,0,1,4.89-1.41,13.14,13.14,0,0,1,3.65.49,7.86,7.86,0,0,1,2.71,1.25Z"/><path class="cls-7" d="M208.54,129.06a2.76,2.76,0,0,0,1.91-.65,2.26,2.26,0,0,0,.72-1.75h4.05l0,.09a4.69,4.69,0,0,1-1.88,3.94,8.36,8.36,0,0,1-10.56-.61,8.05,8.05,0,0,1-2-5.65V124a7.92,7.92,0,0,1,2.06-5.64,7.64,7.64,0,0,1,5.87-2.21,10.63,10.63,0,0,1,3.6.56,7,7,0,0,1,2.65,1.58l.07,4.15h-3.64L210.7,120a3,3,0,0,0-.83-.45,3.25,3.25,0,0,0-1.12-.18,2.88,2.88,0,0,0-2.68,1.29,6.36,6.36,0,0,0-.78,3.33v.43a6.81,6.81,0,0,0,.72,3.36A2.65,2.65,0,0,0,208.54,129.06Z"/><path class="cls-7" d="M217.29,124.06a8,8,0,0,1,2.07-5.69,8.57,8.57,0,0,1,11.5,0,8,8,0,0,1,2.07,5.7v.3a8,8,0,0,1-2.07,5.71,8.59,8.59,0,0,1-11.5,0,8,8,0,0,1-2.07-5.71Zm4.47.3a6.4,6.4,0,0,0,.8,3.41,3.18,3.18,0,0,0,5.11,0,6.45,6.45,0,0,0,.8-3.41v-.3a6.3,6.3,0,0,0-.81-3.37,2.79,2.79,0,0,0-2.56-1.31,2.76,2.76,0,0,0-2.54,1.31,6.39,6.39,0,0,0-.8,3.37Z"/><path class="cls-7" d="M234.63,129.46l2.15-.43v-9.64L234.4,119v-2.52H241l.19,2.22a6.09,6.09,0,0,1,2-1.85,5.57,5.57,0,0,1,2.71-.66,5.16,5.16,0,0,1,3.93,1.48,6.52,6.52,0,0,1,1.41,4.64V129l2.14.43V132h-8.55v-2.51l1.92-.43v-6.75a3,3,0,0,0-.68-2.22,2.85,2.85,0,0,0-2-.65,3.57,3.57,0,0,0-1.59.34,3.21,3.21,0,0,0-1.18,1V129l1.81.43V132h-8.43Z"/><path class="cls-7" d="M254.66,129.46l2.16-.43v-9.64l-2.39-.43v-2.52h6.86V129l2.15.43V132h-8.78Zm6.63-16.74h-4.47v-3.15h4.47Z"/><path class="cls-7" d="M265.15,129.46l2.17-.43v-9.65h-2.47v-2.94h2.47v-1.73a5.1,5.1,0,0,1,1.6-4,6.65,6.65,0,0,1,4.52-1.41,9.17,9.17,0,0,1,1.16.08c.39.05.83.13,1.3.22l-.39,3.12-.71-.1a6.22,6.22,0,0,0-.8,0,2.24,2.24,0,0,0-1.65.56,2.2,2.2,0,0,0-.56,1.61v1.73h3.29v2.94h-3.29V129l2.16.43V132h-8.8Z"/><path class="cls-7" d="M293.75,119l-1.55.22-6.1,15.12a8.39,8.39,0,0,1-1.92,2.82,5.14,5.14,0,0,1-3.63,1.13,6,6,0,0,1-1.06-.09q-.5-.07-1.17-.24l.52-3.06.44.06.4,0a2.58,2.58,0,0,0,1.72-.51,3.58,3.58,0,0,0,.92-1.27l.5-1.18-5.25-12.8L276,119v-2.52h8.12V119l-1.85.29,2.26,6.21.23,1.12h.1l2.62-7.34-1.87-.29v-2.52h8.12Z"/><path class="cls-7" d="M187.15,164.75l2.16-.43v-9.63l-2.39-.43v-2.53h6.86v12.59l2.15.43v2.52h-8.78ZM193.78,148h-4.47v-3.14h4.47Z"/><path class="cls-7" d="M196.88,154.26v-2.53h6.54l.18,2.05a5.55,5.55,0,0,1,2-1.73,6.18,6.18,0,0,1,2.78-.61,5.31,5.31,0,0,1,2.73.66,4.15,4.15,0,0,1,1.72,2,5.55,5.55,0,0,1,2-1.95,5.69,5.69,0,0,1,2.88-.71,4.94,4.94,0,0,1,3.87,1.59,7.11,7.11,0,0,1,1.42,4.83v6.46l2.16.43v2.52h-8.57v-2.52l1.93-.43v-6.47a3.74,3.74,0,0,0-.61-2.46,2.32,2.32,0,0,0-1.82-.69,3.2,3.2,0,0,0-1.65.4,2.86,2.86,0,0,0-1.11,1.1c0,.18,0,.33,0,.46s0,.26,0,.4v7.26l1.81.43v2.52h-8.08v-2.52l1.81-.43v-6.47a3.77,3.77,0,0,0-.61-2.44,2.31,2.31,0,0,0-1.84-.71,3.64,3.64,0,0,0-1.59.33,2.84,2.84,0,0,0-1.12.91v8.38l1.93.43v2.52h-8.55v-2.52l2.16-.43v-9.63Z"/><path class="cls-7" d="M237.15,167.27a7.92,7.92,0,0,1-.33-.8,6.17,6.17,0,0,1-.21-.82,6.29,6.29,0,0,1-1.94,1.39,6.18,6.18,0,0,1-2.61.53,5.68,5.68,0,0,1-3.87-1.24,4.23,4.23,0,0,1-1.43-3.38,3.78,3.78,0,0,1,1.87-3.38,10.3,10.3,0,0,1,5.48-1.19h2.28v-1.52a2.24,2.24,0,0,0-.68-1.74,3,3,0,0,0-2-.62,5.19,5.19,0,0,0-1.37.17,3.66,3.66,0,0,0-1,.39l-.29,1.67h-3.37v-3.45A13.26,13.26,0,0,1,230.5,152a11,11,0,0,1,3.46-.53,8.18,8.18,0,0,1,5,1.42,4.7,4.7,0,0,1,1.92,4v6.41c0,.24,0,.47,0,.68a3.81,3.81,0,0,0,.06.6l1.36.17v2.52Zm-3.88-2.8a4.14,4.14,0,0,0,1.84-.41,3.43,3.43,0,0,0,1.28-1v-2.37h-2.28a3.24,3.24,0,0,0-2.16.63,1.88,1.88,0,0,0-.73,1.5,1.5,1.5,0,0,0,.54,1.23A2.3,2.3,0,0,0,233.27,164.47Z"/><path class="cls-7" d="M244.1,159.63a9.55,9.55,0,0,1,1.71-5.93,5.64,5.64,0,0,1,4.79-2.26,5.07,5.07,0,0,1,2.45.58,5.38,5.38,0,0,1,1.81,1.66l.32-2h3.89v15.08a6.23,6.23,0,0,1-2.06,4.9,8.22,8.22,0,0,1-5.66,1.83,11.7,11.7,0,0,1-2.67-.32,12.82,12.82,0,0,1-2.6-.88l.83-3a14.77,14.77,0,0,0,2.14.69,10.39,10.39,0,0,0,2.27.25,3.05,3.05,0,0,0,2.45-.94,3.82,3.82,0,0,0,.81-2.6v-1a5.06,5.06,0,0,1-1.73,1.33,5.31,5.31,0,0,1-2.28.46,5.79,5.79,0,0,1-4.76-2.1,8.53,8.53,0,0,1-1.71-5.54Zm4.48.3a6,6,0,0,0,.73,3.21,2.61,2.61,0,0,0,2.39,1.17,3.94,3.94,0,0,0,1.74-.35,2.77,2.77,0,0,0,1.14-1v-6.75a2.91,2.91,0,0,0-1.14-1.09,3.49,3.49,0,0,0-1.71-.39,2.56,2.56,0,0,0-2.4,1.37,7.35,7.35,0,0,0-.75,3.56Z"/><path class="cls-7" d="M269.69,167.57a7.75,7.75,0,0,1-5.73-2.15,7.45,7.45,0,0,1-2.15-5.48v-.57a8.17,8.17,0,0,1,2-5.7,7.06,7.06,0,0,1,12.52,4.79v2.29h-9.9l0,.08a3.9,3.9,0,0,0,1.09,2.53,3.55,3.55,0,0,0,2.65,1,9,9,0,0,0,2.46-.28,11.36,11.36,0,0,0,2.15-.88l1.21,2.59a9.15,9.15,0,0,1-2.66,1.27A11.86,11.86,0,0,1,269.69,167.57Zm-.4-12.9a2.39,2.39,0,0,0-2,.89,4.48,4.48,0,0,0-.89,2.35l.05.07H272v-.38a3.23,3.23,0,0,0-.66-2.13A2.5,2.5,0,0,0,269.29,154.67Z"/><path class="cls-7" d="M282.65,153.4,278,152.12l.87-2.54,4.55,1.76-.28-5h2.89l-.31,5.07,4.46-1.72.86,2.58-4.69,1.28,3.06,3.8L287.13,159l-2.68-4.16-2.65,4-2.33-1.52Z"/><line class="cls-4" x1="438.53" y1="144.62" x2="482.73" y2="144.62"/><polygon class="cls-5" points="468.81 161.8 465.95 158.72 481.12 144.63 465.95 130.53 468.81 127.45 487.28 144.63 468.81 161.8"/><g id="Scone_logo_black" data-name="Scone logo black"><g class="cls-8"><g class="cls-8"><path class="cls-9" d="M293.24,284.08h-2.57a1,1,0,0,0-1,1v2.62a1,1,0,0,0,1,1h2.57a1,1,0,0,0,1-1v-2.62a1,1,0,0,0-1-1m-8.94,4.59h2.57a1,1,0,0,0,1-1v-2.62a1,1,0,0,0-1-1H284.3a1,1,0,0,0-1,1v2.62a1,1,0,0,0,1,1m-2.76-1v-2.62a1,1,0,0,0-1-1H278a1,1,0,0,0-1,1v2.62a1,1,0,0,0,1,1h2.56a1,1,0,0,0,1-1m11.9,2.81a.75.75,0,0,0-.74.74v3.06a.74.74,0,0,0,1.48,0v-3.06a.7.7,0,0,0-.74-.74m-7.06,1v2.61a1,1,0,0,0,1,1h2.56a1,1,0,0,0,1-1v-2.61a1,1,0,0,0-1-1h-2.56a1,1,0,0,0-1,1m-1.83,2.61v-2.61a1,1,0,0,0-1-1H281a1,1,0,0,0-1,1v2.61a1,1,0,0,0,1,1h2.56a1,1,0,0,0,1-1m8.69,2.82h-2.57a1,1,0,0,0-1,1v2.62a1,1,0,0,0,1,1h2.57a1,1,0,0,0,1-1V297.9a1,1,0,0,0-1-1m-6.66,0H284a1,1,0,0,0-1,1v2.62a1,1,0,0,0,1,1h2.57a1,1,0,0,0,1-1V297.9a1,1,0,0,0-1-1"/><path class="cls-9" d="M296.35,283.05a5.89,5.89,0,0,0,4,1.23c.09,0,0,.1,0,.2v7.06c0,2.71-3.31,4.39-4.1,4.83-.1.05-.1-.05-.1-.05l.05-13.22c-.05,0,.05-.1.1-.05"/><path class="cls-9" d="M288.6,282.7c5.43-.2,6.32-2.07,6.32-2.07a.26.26,0,0,1,.24-.15c.1,0,.2,0,.25.1s.84,2,6.27,2c.15,0,.2.1.2.25v9.28c0,3-5.63,6.32-5.73,6.37s-.2.14-.2.19V301c0,.1.35.15.5.1,2.07-1.13,7.89-4.34,7.89-8.29V281c0-.19-.34-.34-.54-.34-6.91,0-8.19-2.52-8.19-2.52-.05-.15-.3-.1-.45-.1s-.24-.05-.29.05-1.14,2.62-8,2.62c-.25,0-.29.1-.29.29v1.48s-.05.35.19.35,1.83-.1,1.83-.1"/><path d="M309.48,297.85l2.76-1a3.79,3.79,0,0,0,3.6,2.07,4.07,4.07,0,0,0,2.13-.49,1.68,1.68,0,0,0,.88-1.48c0-1.48-2-2.37-3.5-3l-.1,0a13.23,13.23,0,0,1-3.21-1.78,4,4,0,0,1-1.58-3.26,4.35,4.35,0,0,1,1.63-3.4,6.33,6.33,0,0,1,4.1-1.39,5.91,5.91,0,0,1,5.43,3l-2.86,1.09a2.31,2.31,0,0,0-1-1,4.08,4.08,0,0,0-1.58-.34c-1.58,0-2.67.84-2.67,2a2.23,2.23,0,0,0,1.09,1.78,14.28,14.28,0,0,0,2.47,1.28l.34.15c2.13.89,4.74,2,4.74,4.89a4.11,4.11,0,0,1-1.87,3.5,7.58,7.58,0,0,1-4.5,1.29c-3-.05-5.38-1.44-6.31-3.76"/><path d="M334,301.56a9,9,0,0,1-3.41-.69,9,9,0,0,1-4.64-4.64,8.77,8.77,0,0,1,0-6.82,9,9,0,0,1,4.64-4.64,9,9,0,0,1,3.41-.69,8.51,8.51,0,0,1,4,.94,8.74,8.74,0,0,1,3,2.52l-2.32,1.73a5.89,5.89,0,0,0-2-1.68,6.1,6.1,0,0,0-2.66-.64,5.87,5.87,0,0,0-5.87,5.87,5.78,5.78,0,0,0,1.72,4.15,5.77,5.77,0,0,0,7.11.88,5.88,5.88,0,0,0,2.12-2.17l2.52,1.43a8.54,8.54,0,0,1-3.16,3.21,8,8,0,0,1-4.39,1.24"/><path d="M353.06,301.61a8.89,8.89,0,0,1-3.41-.7,8,8,0,0,1-2.76-1.87,8.66,8.66,0,0,1-2.57-6.17,8.16,8.16,0,0,1,.69-3.41,9,9,0,0,1,1.88-2.76,9.34,9.34,0,0,1,2.76-1.88,8.75,8.75,0,0,1,6.81,0,8.15,8.15,0,0,1,2.77,1.88,8.71,8.71,0,0,1,0,12.34,9,9,0,0,1-2.77,1.87,8.8,8.8,0,0,1-3.4.7m0-14.66a5.69,5.69,0,0,0-4.15,1.72,5.9,5.9,0,0,0-1.72,4.15,5.69,5.69,0,0,0,1.72,4.15,5.87,5.87,0,0,0,8.3,0,5.9,5.9,0,0,0,1.72-4.15,6,6,0,0,0-1.72-4.15,5.9,5.9,0,0,0-4.15-1.72"/><polygon points="381.64 284.23 381.64 302 369.4 290.75 369.4 301.31 366.29 301.31 366.29 283.59 378.53 294.89 378.53 284.23 381.64 284.23"/><polygon points="389.98 286.85 389.98 291.39 398.52 291.39 398.52 294.05 389.98 294.05 389.98 298.64 399.55 298.64 399.55 301.31 386.87 301.31 386.87 284.23 399.55 284.23 399.55 286.9 389.98 286.9 389.98 286.85"/></g></g></g><path class="cls-3" d="M621.27,139v-2.52h6.55l.18,2.05a5.45,5.45,0,0,1,2-1.73,6,6,0,0,1,2.78-.61,5.36,5.36,0,0,1,2.73.66,4.13,4.13,0,0,1,1.71,2,5.52,5.52,0,0,1,2-2,5.64,5.64,0,0,1,2.88-.7,4.94,4.94,0,0,1,3.87,1.59,7.07,7.07,0,0,1,1.41,4.83V149l2.16.43V152H641v-2.51l1.93-.43v-6.48a3.79,3.79,0,0,0-.61-2.45,2.32,2.32,0,0,0-1.83-.69,3.29,3.29,0,0,0-1.64.39,3,3,0,0,0-1.12,1.1c0,.18,0,.34,0,.47s0,.26,0,.39V149l1.8.43V152h-8.07v-2.51l1.81-.43v-6.48a3.72,3.72,0,0,0-.62-2.43,2.31,2.31,0,0,0-1.84-.71,3.71,3.71,0,0,0-1.58.32,3.06,3.06,0,0,0-1.13.91V149l1.93.43V152H621.5v-2.51l2.16-.43v-9.64Z"/><path class="cls-3" d="M661.54,152a6.86,6.86,0,0,1-.32-.79,6.31,6.31,0,0,1-.21-.83,6.27,6.27,0,0,1-1.94,1.4,6.19,6.19,0,0,1-2.62.53,5.67,5.67,0,0,1-3.86-1.25,4.21,4.21,0,0,1-1.44-3.38,3.79,3.79,0,0,1,1.87-3.37,10.26,10.26,0,0,1,5.49-1.2h2.28v-1.52a2.2,2.2,0,0,0-.69-1.73,2.93,2.93,0,0,0-2-.62,5.13,5.13,0,0,0-1.36.16,3.54,3.54,0,0,0-1,.4l-.29,1.66h-3.37l0-3.44a12.37,12.37,0,0,1,2.81-1.31,10.94,10.94,0,0,1,3.45-.53,8.26,8.26,0,0,1,5,1.41,4.72,4.72,0,0,1,1.92,4V148c0,.24,0,.47,0,.68a3.83,3.83,0,0,0,.05.6l1.37.17V152Zm-3.87-2.8a4,4,0,0,0,1.83-.41,3.44,3.44,0,0,0,1.29-1v-2.37h-2.28a3.29,3.29,0,0,0-2.16.62,1.92,1.92,0,0,0-.74,1.5,1.5,1.5,0,0,0,.55,1.24A2.28,2.28,0,0,0,657.67,149.17Z"/><path class="cls-3" d="M668,149.46l2.14-.43v-9.64l-2.37-.43v-2.52h6.54l.2,2.22a5.91,5.91,0,0,1,2-1.85,5.55,5.55,0,0,1,2.71-.66,5.15,5.15,0,0,1,3.92,1.48,6.52,6.52,0,0,1,1.41,4.64V149l2.15.43V152h-8.55v-2.51l1.91-.43v-6.75a3,3,0,0,0-.67-2.22,2.85,2.85,0,0,0-2-.65,3.57,3.57,0,0,0-1.59.34,3.13,3.13,0,0,0-1.18.95V149l1.8.43V152H668Z"/><path class="cls-3" d="M688,149.46l2.16-.43v-9.64l-2.39-.43v-2.52h6.87V149l2.14.43V152H688Zm6.64-16.74h-4.48v-3.15h4.48Z"/><path class="cls-3" d="M698.5,149.46l2.16-.43v-9.65h-2.47v-2.94h2.47v-1.73a5.11,5.11,0,0,1,1.61-4,6.63,6.63,0,0,1,4.52-1.41,9.3,9.3,0,0,1,1.16.08c.39.05.82.13,1.29.22l-.38,3.12-.71-.1a6.27,6.27,0,0,0-.81-.05,2.27,2.27,0,0,0-1.65.56,2.2,2.2,0,0,0-.56,1.61v1.73h3.3v2.94h-3.3V149l2.16.43V152H698.5Z"/><path class="cls-3" d="M717.5,152.28a7.71,7.71,0,0,1-5.73-2.16,7.42,7.42,0,0,1-2.15-5.47v-.57a8.17,8.17,0,0,1,2-5.7,7.94,7.94,0,0,1,10.66-.34,7,7,0,0,1,1.86,5.13v2.29h-9.9l0,.08a3.9,3.9,0,0,0,1.09,2.53,3.54,3.54,0,0,0,2.64,1,9,9,0,0,0,2.47-.28,12.06,12.06,0,0,0,2.15-.88l1.21,2.58a9.16,9.16,0,0,1-2.66,1.28A12.17,12.17,0,0,1,717.5,152.28Zm-.4-12.9a2.39,2.39,0,0,0-2,.89,4.42,4.42,0,0,0-.89,2.34l0,.07h5.48v-.37a3.23,3.23,0,0,0-.66-2.13A2.5,2.5,0,0,0,717.1,139.38Z"/><path class="cls-3" d="M739.81,141.78h-3l-.48-1.94a4.19,4.19,0,0,0-1.16-.58,4.94,4.94,0,0,0-1.54-.22,3.13,3.13,0,0,0-1.86.49,1.49,1.49,0,0,0-.69,1.24,1.4,1.4,0,0,0,.65,1.17,7.41,7.41,0,0,0,2.64.83,11,11,0,0,1,4.57,1.69,3.61,3.61,0,0,1,1.48,3.06A4,4,0,0,1,738.5,151a8.78,8.78,0,0,1-5.06,1.33,11.25,11.25,0,0,1-3.52-.53,9.07,9.07,0,0,1-2.84-1.5l-.05-3.49h3.13l.61,2a2.62,2.62,0,0,0,1.09.46,6.76,6.76,0,0,0,1.44.15,3.78,3.78,0,0,0,2.07-.46,1.4,1.4,0,0,0,.72-1.24,1.46,1.46,0,0,0-.72-1.2,7.86,7.86,0,0,0-2.65-.89,10.89,10.89,0,0,1-4.43-1.66,3.52,3.52,0,0,1-1.49-3,4.25,4.25,0,0,1,1.72-3.37,7.49,7.49,0,0,1,4.88-1.41,13.21,13.21,0,0,1,3.66.49,7.72,7.72,0,0,1,2.7,1.25Z"/><path class="cls-3" d="M749,132.63v3.81H752v2.94H749v7.91a1.74,1.74,0,0,0,.4,1.29,1.48,1.48,0,0,0,1.07.39q.46,0,.81,0l.77-.12.39,3a11.68,11.68,0,0,1-1.49.32,11.24,11.24,0,0,1-1.59.11,5,5,0,0,1-3.57-1.2,5,5,0,0,1-1.25-3.77v-7.93h-2.43v-2.94h2.43v-3.81Z"/><path class="cls-3" d="M1112.75,130.08a5.39,5.39,0,0,1-1.84,1.64,5.18,5.18,0,0,1-2.43.56,5.76,5.76,0,0,1-4.76-2.1,8.56,8.56,0,0,1-1.69-5.54v-.31a9.57,9.57,0,0,1,1.7-5.93,5.64,5.64,0,0,1,4.78-2.25,4.86,4.86,0,0,1,2.24.51,5.41,5.41,0,0,1,1.74,1.44v-5.57l-2.39-.43v-2.53H1117V129l2.14.43V132h-6Zm-6.25-5.44a6,6,0,0,0,.73,3.21,2.58,2.58,0,0,0,2.38,1.17,3.61,3.61,0,0,0,1.7-.38,3,3,0,0,0,1.18-1.07V121a3.3,3.3,0,0,0-1.17-1.15,3.24,3.24,0,0,0-1.68-.41,2.53,2.53,0,0,0-2.39,1.36,7.38,7.38,0,0,0-.75,3.56Z"/><path class="cls-3" d="M1128.47,132.28a7.71,7.71,0,0,1-5.73-2.16,7.42,7.42,0,0,1-2.14-5.47v-.57a8.12,8.12,0,0,1,2-5.7,7.94,7.94,0,0,1,10.66-.34,7.06,7.06,0,0,1,1.85,5.13v2.29h-9.9l0,.08a3.91,3.91,0,0,0,1.1,2.53,3.52,3.52,0,0,0,2.64,1,9.08,9.08,0,0,0,2.47-.28,12,12,0,0,0,2.14-.88l1.21,2.58a9,9,0,0,1-2.66,1.28A12.12,12.12,0,0,1,1128.47,132.28Zm-.39-12.9a2.41,2.41,0,0,0-2,.89,4.41,4.41,0,0,0-.88,2.34l0,.07h5.49v-.37a3.18,3.18,0,0,0-.67-2.13A2.48,2.48,0,0,0,1128.08,119.38Z"/><path class="cls-3" d="M1136.92,119v-2.52h6.49l.22,1.81a5.32,5.32,0,0,1,1.76-1.56,5,5,0,0,1,2.39-.54,5.64,5.64,0,0,1,4.78,2.25,9.57,9.57,0,0,1,1.7,5.93v.31a8.5,8.5,0,0,1-1.7,5.54,5.77,5.77,0,0,1-4.75,2.1,5.6,5.6,0,0,1-2.31-.46,4.65,4.65,0,0,1-1.73-1.32V135l2.16.43V138h-8.78v-2.53l2.16-.43v-15.6Zm12.87,5.37a7.14,7.14,0,0,0-.78-3.56,2.57,2.57,0,0,0-2.39-1.36,3.57,3.57,0,0,0-1.73.39,2.76,2.76,0,0,0-1.12,1.1v6.81a2.65,2.65,0,0,0,1.12,1,4,4,0,0,0,1.76.35,2.63,2.63,0,0,0,2.38-1.19,5.94,5.94,0,0,0,.76-3.23Z"/><path class="cls-3" d="M1155.47,112.1v-2.53h6.87V129l2.16.43V132h-8.8v-2.51l2.16-.43v-16.5Z"/><path class="cls-3" d="M1165.65,124.06a8,8,0,0,1,2.07-5.69,8.56,8.56,0,0,1,11.49,0,8,8,0,0,1,2.08,5.7v.3a8,8,0,0,1-2.08,5.71,7.47,7.47,0,0,1-5.72,2.21,7.56,7.56,0,0,1-5.77-2.21,8,8,0,0,1-2.07-5.71Zm4.47.3a6.4,6.4,0,0,0,.8,3.41,3.18,3.18,0,0,0,5.11,0,6.45,6.45,0,0,0,.8-3.41v-.3a6.3,6.3,0,0,0-.81-3.37,2.79,2.79,0,0,0-2.56-1.31,2.76,2.76,0,0,0-2.54,1.31,6.39,6.39,0,0,0-.8,3.37Z"/><path class="cls-3" d="M1200.17,119l-1.55.22-6.1,15.12a8.39,8.39,0,0,1-1.92,2.82,5.13,5.13,0,0,1-3.62,1.13,6,6,0,0,1-1.07-.09q-.5-.07-1.17-.24l.52-3.06.44.06.4,0a2.58,2.58,0,0,0,1.72-.51,3.47,3.47,0,0,0,.92-1.27l.5-1.18-5.25-12.8-1.55-.23v-2.52h8.12V119l-1.85.29,2.26,6.21.24,1.12h.09l2.62-7.34-1.87-.29v-2.52h8.12Z"/><path class="cls-3" d="M1232.9,119l-1.67.2L1227.77,132H1224l-3.08-9.24h-.1l-3.08,9.24h-3.72l-3.48-12.81-1.67-.2v-2.52h7.51V119l-1.76.32,1.56,7.11h.09l3.1-10h3l3.13,10h.09l1.55-7.13-1.78-.33v-2.52h7.51Z"/><path class="cls-3" d="M1234.29,129.46l2.16-.43v-9.64l-2.39-.43v-2.52h6.87V129l2.14.43V132h-8.78Zm6.64-16.74h-4.48v-3.15h4.48Z"/><path class="cls-3" d="M1251.15,112.63v3.81h2.91v2.94h-2.91v7.91a1.75,1.75,0,0,0,.39,1.29,1.49,1.49,0,0,0,1.08.39c.3,0,.57,0,.8,0l.78-.12.38,3a11.68,11.68,0,0,1-1.49.32,11.24,11.24,0,0,1-1.59.11,4.33,4.33,0,0,1-4.81-5v-7.93h-2.44v-2.94h2.44v-3.81Z"/><path class="cls-3" d="M1256,129.46l2.17-.43v-16.5l-2.4-.43v-2.53h6.85v8.85a5.51,5.51,0,0,1,1.92-1.68,5.37,5.37,0,0,1,2.51-.59,5.3,5.3,0,0,1,4.09,1.61,7.24,7.24,0,0,1,1.47,5V129l2.15.43V132h-8.55v-2.51l1.93-.43v-6.3a3.86,3.86,0,0,0-.68-2.57,2.61,2.61,0,0,0-2-.75,3.89,3.89,0,0,0-1.63.31,3.29,3.29,0,0,0-1.18.9V129l1.93.43V132H1256Z"/><path class="cls-3" d="M1101.49,147.39v-2.52h6.85v13h1l2.57-3.41-1.46-.18v-2.53h8.16v2.53l-2,.41-3,3.85,4.18,5.9,1.7.33v2.52h-7.66v-2.52l.92-.14-2.55-3.85h-1.91v3.56l1.93.43v2.52h-8.55v-2.52l2.16-.43v-16.5Z"/><path class="cls-3" d="M1132.7,165.3a5.31,5.31,0,0,1-2,1.68,5.89,5.89,0,0,1-2.67.59A5.37,5.37,0,0,1,1124,166a6.93,6.93,0,0,1-1.48-4.89v-6.42l-1.83-.43v-2.53h6.3v9.41a3.8,3.8,0,0,0,.61,2.43,2.19,2.19,0,0,0,1.8.74,4.87,4.87,0,0,0,1.83-.32,3.22,3.22,0,0,0,1.26-.93v-8.37l-2-.43v-2.53h6.44v12.59l2,.43v2.52H1133Z"/><path class="cls-3" d="M1156.71,159.93a8.7,8.7,0,0,1-1.65,5.56,5.74,5.74,0,0,1-4.78,2.08,5.31,5.31,0,0,1-2.53-.57,5,5,0,0,1-1.81-1.64l-.32,1.91h-3.86V147.82l-2.38-.43v-2.52h6.84v8.51a4.91,4.91,0,0,1,1.72-1.43,5,5,0,0,1,2.31-.51,5.62,5.62,0,0,1,4.81,2.24,9.76,9.76,0,0,1,1.65,5.95Zm-4.46-.3a7.62,7.62,0,0,0-.71-3.6,2.53,2.53,0,0,0-2.43-1.33,3.55,3.55,0,0,0-1.76.41,2.83,2.83,0,0,0-1.13,1.17v6.57a2.72,2.72,0,0,0,1.14,1.09,3.84,3.84,0,0,0,1.78.37,2.58,2.58,0,0,0,2.42-1.14,6.19,6.19,0,0,0,.69-3.24Z"/><path class="cls-3" d="M1166.72,167.57a7.75,7.75,0,0,1-5.73-2.15,7.45,7.45,0,0,1-2.15-5.48v-.57a8.17,8.17,0,0,1,2-5.7,7,7,0,0,1,12.51,4.79v2.29h-9.89l0,.08a3.9,3.9,0,0,0,1.09,2.53,3.54,3.54,0,0,0,2.64,1,9,9,0,0,0,2.47-.28,11.63,11.63,0,0,0,2.15-.88l1.21,2.59a9.15,9.15,0,0,1-2.66,1.27A11.86,11.86,0,0,1,1166.72,167.57Zm-.4-12.9a2.39,2.39,0,0,0-2,.89,4.48,4.48,0,0,0-.89,2.35l0,.07H1169v-.38a3.23,3.23,0,0,0-.66-2.13A2.5,2.5,0,0,0,1166.32,154.67Z"/><path class="cls-3" d="M1183.28,164.35a2.73,2.73,0,0,0,1.92-.65,2.25,2.25,0,0,0,.72-1.74h4l0,.08a4.73,4.73,0,0,1-1.88,3.94,7.43,7.43,0,0,1-4.85,1.59,7.33,7.33,0,0,1-5.71-2.2,8,8,0,0,1-2-5.64v-.43a8,8,0,0,1,2.06-5.65,7.68,7.68,0,0,1,5.88-2.21,10.88,10.88,0,0,1,3.6.56,7.34,7.34,0,0,1,2.65,1.58l.06,4.15h-3.63l-.74-2.42a2.7,2.7,0,0,0-.82-.46,3.25,3.25,0,0,0-1.12-.18,2.86,2.86,0,0,0-2.68,1.3,6.27,6.27,0,0,0-.78,3.33v.43a6.74,6.74,0,0,0,.72,3.35A2.64,2.64,0,0,0,1183.28,164.35Z"/><path class="cls-3" d="M1198.64,147.92v3.81h2.91v2.94h-2.91v7.92a1.73,1.73,0,0,0,.4,1.29,1.45,1.45,0,0,0,1.07.39c.3,0,.57,0,.8,0a6.81,6.81,0,0,0,.78-.12l.38,3a11.68,11.68,0,0,1-1.49.32,11.24,11.24,0,0,1-1.59.11,4.32,4.32,0,0,1-4.81-5v-7.93h-2.44v-2.94h2.44v-3.81Z"/><path class="cls-3" d="M1203.26,147.39v-2.52h6.87v19.45l2.16.43v2.52h-8.8v-2.52l2.16-.43v-16.5Z"/><path class="cls-10" d="M1041,163.16a4.14,4.14,0,0,1-3.26-1.58l-12.27-15.25a4.1,4.1,0,0,1-.81-3.58l4.38-19a4.19,4.19,0,0,1,2.28-2.85l17.75-8.48a4.08,4.08,0,0,1,1.82-.42,4.16,4.16,0,0,1,1.83.42l17.74,8.45a4.14,4.14,0,0,1,2.28,2.84l4.38,19a4.25,4.25,0,0,1-.8,3.58l-12.28,15.26a4.23,4.23,0,0,1-3.26,1.57l-19.78,0Z"/><path class="cls-7" d="M1050.9,112.83a3.39,3.39,0,0,1,1.43.32l17.75,8.45a3.42,3.42,0,0,1,1.82,2.28l4.39,19a3.3,3.3,0,0,1-.67,2.88l-12.27,15.25a3.35,3.35,0,0,1-2.63,1.27H1041a3.35,3.35,0,0,1-2.63-1.27l-12.27-15.25a3.53,3.53,0,0,1-.67-2.88l4.39-19a3.33,3.33,0,0,1,1.82-2.28l17.74-8.49a4.41,4.41,0,0,1,1.48-.28Zm0-1.64h0a5.24,5.24,0,0,0-2.18.49L1031,120.16a5,5,0,0,0-2.74,3.41l-4.38,19a5,5,0,0,0,1,4.28l12.27,15.25A5,5,0,0,0,1041,164h19.67a4.94,4.94,0,0,0,3.89-1.86l12.28-15.25a5,5,0,0,0,1-4.28l-4.38-19a5,5,0,0,0-2.74-3.41L1053,111.68a5,5,0,0,0-2.14-.49Z"/><path class="cls-7" d="M1068.68,141.42h0s-.07,0-.07,0-.14,0-.21,0a4,4,0,0,0-.66-.07,1.2,1.2,0,0,1-.36,0h0a8.84,8.84,0,0,1-1.89-.32.66.66,0,0,1-.39-.38s0,0,0-.07h0l-.45-.14a13.82,13.82,0,0,0-.25-5,14.38,14.38,0,0,0-2-4.59l.35-.32v-.07a.78.78,0,0,1,.18-.52,10.14,10.14,0,0,1,1.57-1.09h0c.11-.07.21-.1.32-.17a6.35,6.35,0,0,0,.6-.36s.1-.07.17-.14.07,0,.07-.07h0a1.16,1.16,0,0,0,.25-1.57,1,1,0,0,0-.81-.39,1.32,1.32,0,0,0-.77.28h0l-.07.07c-.07,0-.11.11-.18.14-.17.18-.31.32-.45.49a1.47,1.47,0,0,1-.25.25h0a9.68,9.68,0,0,1-1.4,1.26.59.59,0,0,1-.32.11.39.39,0,0,1-.21,0h-.07l-.42.28a16.32,16.32,0,0,0-1.44-1.33,13.92,13.92,0,0,0-7.33-2.91l0-.46-.07-.07a.68.68,0,0,1-.28-.45,11.7,11.7,0,0,1,.1-1.9v0a1.36,1.36,0,0,1,.07-.35c0-.21.07-.42.11-.67v-.32h0a1.07,1.07,0,0,0-1.86-.8,1.11,1.11,0,0,0-.32.8h0v.28a2,2,0,0,0,.11.67,2.7,2.7,0,0,1,.07.35v0a9.07,9.07,0,0,1,.11,1.89.75.75,0,0,1-.29.46l-.07.07h0l0,.45a17.59,17.59,0,0,0-1.89.28,13.6,13.6,0,0,0-6.95,3.93l-.35-.24h-.07l-.21,0a.49.49,0,0,1-.31-.11,9,9,0,0,1-1.41-1.29h0a1.85,1.85,0,0,0-.24-.25c-.14-.17-.28-.31-.46-.49,0,0-.1-.07-.17-.14s-.07,0-.07-.07h0a1.28,1.28,0,0,0-.78-.28,1,1,0,0,0-.8.39,1.16,1.16,0,0,0,.24,1.57h0s0,0,.07,0,.11.1.18.14a6.08,6.08,0,0,0,.59.35,1.14,1.14,0,0,1,.32.18h0a10.28,10.28,0,0,1,1.58,1.08.67.67,0,0,1,.17.53v.07h0l.35.31a1.23,1.23,0,0,0-.17.28,13.68,13.68,0,0,0-2,9.26l-.46.14s0,0,0,.07a.83.83,0,0,1-.38.39,9.3,9.3,0,0,1-1.9.31h0a1,1,0,0,0-.35,0,4.24,4.24,0,0,0-.67.07c-.07,0-.14,0-.21,0a.13.13,0,0,0-.1,0h0a1.15,1.15,0,0,0-.91,1.3,1.07,1.07,0,0,0,1.12.8.92.92,0,0,0,.28,0h0s.07,0,.07,0,.14,0,.21,0a3.18,3.18,0,0,0,.63-.25c.11,0,.21-.1.32-.14h0a9,9,0,0,1,1.82-.52h.07a.78.78,0,0,1,.46.17s0,0,.07,0h0l.49-.07a13.86,13.86,0,0,0,4.6,6.59,14.69,14.69,0,0,0,1.5,1l-.21.45s0,0,0,.07a.72.72,0,0,1,.07.56,9.87,9.87,0,0,1-.91,1.65v0c-.07.1-.14.17-.21.28a6.79,6.79,0,0,0-.39.56.57.57,0,0,0-.1.18s0,.07,0,.07h0a1.1,1.1,0,0,0,.46,1.5.94.94,0,0,0,.42.11,1.25,1.25,0,0,0,1-.67h0a.15.15,0,0,1,0-.07.62.62,0,0,1,.11-.17c.1-.25.14-.42.21-.63l.1-.32h0a8.77,8.77,0,0,1,.74-1.75.92.92,0,0,1,.46-.32s0,0,.07,0h0l.24-.46a13.66,13.66,0,0,0,4.91.91,12.47,12.47,0,0,0,3-.35,14.22,14.22,0,0,0,1.83-.53l.21.39s0,0,.07,0a.63.63,0,0,1,.45.31,12.8,12.8,0,0,1,.74,1.75v0l.11.32a3.88,3.88,0,0,0,.21.63c0,.07.07.1.1.17a.1.1,0,0,0,0,.07h0a1.19,1.19,0,0,0,1,.67.94.94,0,0,0,.42-.11,1.05,1.05,0,0,0,.52-.63,1.25,1.25,0,0,0-.07-.87h0s0,0,0-.07a.56.56,0,0,0-.11-.18,2.76,2.76,0,0,0-.38-.56c-.07-.11-.14-.18-.21-.28v0a7.23,7.23,0,0,1-.91-1.65,1,1,0,0,1,0-.56s0,0,0-.07h0l-.18-.42a13.85,13.85,0,0,0,6.1-7.68l.42.07s0,0,.07,0a.91.91,0,0,1,.46-.18h.07a8.27,8.27,0,0,1,1.82.53h0c.1,0,.21.1.31.14a3.7,3.7,0,0,0,.64.24c.07,0,.14,0,.21,0a.13.13,0,0,1,.1,0h0a.7.7,0,0,0,.28,0,1.17,1.17,0,0,0,1.12-.81,1.33,1.33,0,0,0-1-1.15Zm-16.24-1.72-1.54.73-1.55-.73-.38-1.65,1-1.33h1.72l1,1.33-.35,1.65Zm9.15-3.65a11.21,11.21,0,0,1,.25,3.54l-5.37-1.54a.94.94,0,0,1-.66-1.12.79.79,0,0,1,.21-.39l4.24-3.82a11.06,11.06,0,0,1,1.33,3.33Zm-3-5.44-4.6,3.27a.94.94,0,0,1-1.22-.21.82.82,0,0,1-.18-.39l-.32-5.72a10.7,10.7,0,0,1,6.32,3.05Zm-10.17-2.87,1.12-.21-.32,5.61a1,1,0,0,1-.94.91.82.82,0,0,1-.42-.1l-4.67-3.34a10.72,10.72,0,0,1,5.23-2.87Zm-6.91,5,4.17,3.72a.93.93,0,0,1,.11,1.29.7.7,0,0,1-.42.28l-5.44,1.58a11.31,11.31,0,0,1,1.58-6.87Zm-1,9.5,5.58-.94a1,1,0,0,1,1,.73,1,1,0,0,1,0,.56h0l-2.13,5.16a11,11,0,0,1-4.39-5.51Zm12.8,7a11.09,11.09,0,0,1-2.45.28,11.87,11.87,0,0,1-3.54-.56l2.77-5a.91.91,0,0,1,1.12-.25,1.75,1.75,0,0,1,.42.39h0l2.7,4.87c-.32.11-.67.18-1,.28Zm6.84-4.87a11.16,11.16,0,0,1-3.37,3.4l-2.21-5.3a.94.94,0,0,1,.5-1.08,1.1,1.1,0,0,1,.49-.11l5.61.95a7,7,0,0,1-1,2.14Z"/></svg>