<svg id="Ebene_1" data-name="Ebene 1" xmlns="http://www.w3.org/2000/svg" xmlns:xlink="http://www.w3.org/1999/xlink" viewBox="0 0 1840 422"><defs><style>.cls-1{fill:#306;}.cls-2,.cls-5,.cls-7,.cls-9{fill:none;}.cls-2,.cls-3,.cls-5,.cls-7{stroke:#fc0;}.cls-2,.cls-3{stroke-miterlimit:10;}.cls-2,.cls-3,.cls-7{stroke-width:8px;}.cls-3{fill:url(#Unbenannter_Verlauf_5);}.cls-4,.cls-8{fill:#fff;}.cls-5,.cls-7,.cls-8,.cls-9{stroke-linecap:round;stroke-linejoin:round;}.cls-5,.cls-8,.cls-9{stroke-width:6px;}.cls-6{fill:#fc0;}.cls-8,.cls-9{stroke:#ffcb03;}.cls-10{fill:#ffcb03;}</style><linearGradient id="Unbenannter_Verlauf_5" x1="1185.24" y1="220.5" x2="1548.59" y2="220.5" gradientUnits="userSpaceOnUse"><stop offset="0" stop-color="#906"/><stop offset="0.19" stop-color="#780066"/><stop offset="0.4" stop-color="#5a0066"/><stop offset="0.61" stop-color="#406"/><stop offset="0.81" stop-color="#370066"/><stop offset="1" stop-color="#306"/></linearGradient></defs><path class="cls-1" d="M883,213.08a5.42,5.42,0,0,1-1.85,1.64,5.18,5.18,0,0,1-2.43.56,5.78,5.78,0,0,1-4.76-2.1,8.56,8.56,0,0,1-1.69-5.54v-.31a9.64,9.64,0,0,1,1.7-5.93,5.66,5.66,0,0,1,4.78-2.25,4.86,4.86,0,0,1,2.24.51,5.44,5.44,0,0,1,1.75,1.44v-5.57l-2.39-.43v-2.53h6.86V212l2.15.43V215h-6Zm-6.26-5.44a6.1,6.1,0,0,0,.73,3.21,2.6,2.6,0,0,0,2.39,1.17,3.64,3.64,0,0,0,1.7-.38,3.1,3.1,0,0,0,1.18-1.07V204a3.33,3.33,0,0,0-1.18-1.15,3.21,3.21,0,0,0-1.67-.41,2.52,2.52,0,0,0-2.39,1.36,7.26,7.26,0,0,0-.76,3.56Z"/><path class="cls-1" d="M898.67,215.28a7.71,7.71,0,0,1-5.73-2.16,7.42,7.42,0,0,1-2.15-5.47v-.57a8.17,8.17,0,0,1,2-5.7,7.94,7.94,0,0,1,10.66-.34,7.06,7.06,0,0,1,1.85,5.13v2.29h-9.9l0,.08a4,4,0,0,0,1.1,2.53,3.54,3.54,0,0,0,2.64,1,9,9,0,0,0,2.47-.28,12,12,0,0,0,2.14-.88l1.22,2.58a9.28,9.28,0,0,1-2.66,1.28A12.17,12.17,0,0,1,898.67,215.28Zm-.4-12.9a2.39,2.39,0,0,0-2,.89,4.42,4.42,0,0,0-.89,2.34l.05.07H901v-.37a3.18,3.18,0,0,0-.67-2.13A2.47,2.47,0,0,0,898.27,202.38Z"/><path class="cls-1" d="M907.11,202v-2.52h6.5l.21,1.81a5.32,5.32,0,0,1,1.76-1.56,5.07,5.07,0,0,1,2.39-.54,5.63,5.63,0,0,1,4.78,2.25,9.57,9.57,0,0,1,1.71,5.93v.31a8.51,8.51,0,0,1-1.71,5.54,5.76,5.76,0,0,1-4.75,2.1,5.67,5.67,0,0,1-2.31-.46A4.74,4.74,0,0,1,914,213.5V218l2.16.43V221h-8.78v-2.53l2.16-.43v-15.6ZM920,207.33a7.14,7.14,0,0,0-.78-3.56,2.57,2.57,0,0,0-2.39-1.36,3.53,3.53,0,0,0-1.72.39,2.78,2.78,0,0,0-1.13,1.1v6.81a2.67,2.67,0,0,0,1.13,1,4,4,0,0,0,1.75.35,2.62,2.62,0,0,0,2.38-1.19,5.94,5.94,0,0,0,.76-3.23Z"/><path class="cls-1" d="M925.67,195.1v-2.53h6.86V212l2.16.43V215H925.9v-2.51l2.16-.43v-16.5Z"/><path class="cls-1" d="M935.84,207.06a8,8,0,0,1,2.08-5.69,8.56,8.56,0,0,1,11.49,0,8,8,0,0,1,2.08,5.7v.3a8,8,0,0,1-2.08,5.71,8.57,8.57,0,0,1-11.49,0,8,8,0,0,1-2.08-5.71Zm4.47.3a6.4,6.4,0,0,0,.8,3.41,2.8,2.8,0,0,0,2.58,1.29,2.76,2.76,0,0,0,2.53-1.29,6.35,6.35,0,0,0,.81-3.41v-.3a6.21,6.21,0,0,0-.82-3.37,3.14,3.14,0,0,0-5.1,0,6.39,6.39,0,0,0-.8,3.37Z"/><path class="cls-1" d="M970.36,202l-1.55.22-6.09,15.12a8.27,8.27,0,0,1-1.93,2.82,5.13,5.13,0,0,1-3.62,1.13,6.1,6.1,0,0,1-1.07-.09q-.5-.07-1.17-.24l.52-3.06.45.06.4,0a2.57,2.57,0,0,0,1.71-.51,3.36,3.36,0,0,0,.92-1.27l.51-1.18-5.26-12.8-1.55-.23v-2.52h8.13V202l-1.86.29,2.27,6.21.23,1.12h.09l2.62-7.34-1.87-.29v-2.52h8.12Z"/><path class="cls-1" d="M765.11,247.35a2.72,2.72,0,0,0,1.91-.65,2.25,2.25,0,0,0,.72-1.74h4l0,.08A4.7,4.7,0,0,1,770,249a8.36,8.36,0,0,1-10.56-.61,8,8,0,0,1-2-5.64v-.43a8,8,0,0,1,2.07-5.65,7.64,7.64,0,0,1,5.87-2.21,10.88,10.88,0,0,1,3.6.56,7.25,7.25,0,0,1,2.65,1.58l.06,4.15H768l-.73-2.42a2.75,2.75,0,0,0-.83-.46,3.25,3.25,0,0,0-1.12-.18,2.86,2.86,0,0,0-2.68,1.3,6.36,6.36,0,0,0-.78,3.33v.43a6.74,6.74,0,0,0,.72,3.35A2.65,2.65,0,0,0,765.11,247.35Z"/><path class="cls-1" d="M773.86,242.36a8,8,0,0,1,2.07-5.7,8.56,8.56,0,0,1,11.49,0,8,8,0,0,1,2.08,5.71v.3a8,8,0,0,1-2.08,5.71,7.47,7.47,0,0,1-5.72,2.2,7.55,7.55,0,0,1-5.77-2.2,8,8,0,0,1-2.07-5.71Zm4.47.3a6.45,6.45,0,0,0,.8,3.41,2.81,2.81,0,0,0,2.57,1.28,2.77,2.77,0,0,0,2.54-1.29,6.43,6.43,0,0,0,.8-3.4v-.3a6.34,6.34,0,0,0-.81-3.38,2.79,2.79,0,0,0-2.56-1.31,2.76,2.76,0,0,0-2.54,1.31,6.43,6.43,0,0,0-.8,3.38Z"/><path class="cls-1" d="M791.2,247.75l2.15-.43v-9.63l-2.38-.43v-2.53h6.54l.2,2.23a5.93,5.93,0,0,1,2-1.86,5.57,5.57,0,0,1,2.71-.66,5.19,5.19,0,0,1,3.93,1.48,6.54,6.54,0,0,1,1.41,4.64v6.76l2.14.43v2.52h-8.55v-2.52l1.92-.43v-6.74a3,3,0,0,0-.68-2.22,2.81,2.81,0,0,0-2-.66A3.71,3.71,0,0,0,799,238a3.13,3.13,0,0,0-1.18,1v8.32l1.81.43v2.52H791.2Z"/><path class="cls-1" d="M810.92,237.67v-2.94h2.47v-1.06a5.52,5.52,0,0,1,1.91-4.52,8.15,8.15,0,0,1,5.37-1.59,12.5,12.5,0,0,1,2.36.23c.77.14,1.67.36,2.69.63l-.64,3.31c-.75-.21-1.42-.38-2-.49a11,11,0,0,0-2.09-.17,3.49,3.49,0,0,0-2.32.66,2.4,2.4,0,0,0-.78,1.94v1.06h10v12.59l2.38.43v2.52h-9v-2.52l2.16-.43v-9.65h-5.58v9.65l2.16.43v2.52h-9v-2.52l2.39-.43v-9.65Z"/><path class="cls-1" d="M842.64,248.37a5.32,5.32,0,0,1-1.85,1.64,5.18,5.18,0,0,1-2.43.56,5.76,5.76,0,0,1-4.75-2.1,8.52,8.52,0,0,1-1.7-5.54v-.3a9.61,9.61,0,0,1,1.7-5.93,5.64,5.64,0,0,1,4.79-2.26,4.82,4.82,0,0,1,2.23.51,5.25,5.25,0,0,1,1.75,1.45v-5.58l-2.39-.43v-2.52h6.86v19.45l2.15.43v2.52h-6Zm-6.25-5.44a6,6,0,0,0,.73,3.21,2.58,2.58,0,0,0,2.38,1.17,3.64,3.64,0,0,0,1.7-.37,3.13,3.13,0,0,0,1.18-1.08v-6.59a3.33,3.33,0,0,0-1.17-1.16,3.37,3.37,0,0,0-1.68-.41,2.54,2.54,0,0,0-2.39,1.37,7.35,7.35,0,0,0-.75,3.56Z"/><path class="cls-1" d="M858.36,250.57a7.75,7.75,0,0,1-5.73-2.15,7.44,7.44,0,0,1-2.14-5.48v-.57a8.12,8.12,0,0,1,2-5.7,7.91,7.91,0,0,1,10.65-.33,7,7,0,0,1,1.86,5.12v2.29h-9.9l0,.08a3.9,3.9,0,0,0,1.09,2.53,3.55,3.55,0,0,0,2.65,1,9,9,0,0,0,2.46-.28,11.36,11.36,0,0,0,2.15-.88l1.21,2.59a9.15,9.15,0,0,1-2.66,1.27A11.86,11.86,0,0,1,858.36,250.57Zm-.4-12.9a2.4,2.4,0,0,0-2,.89,4.57,4.57,0,0,0-.89,2.35l0,.07h5.48v-.38a3.23,3.23,0,0,0-.66-2.13A2.5,2.5,0,0,0,858,237.67Z"/><path class="cls-1" d="M866.9,247.75l2.14-.43v-9.63l-2.37-.43v-2.53h6.54l.2,2.23a5.84,5.84,0,0,1,2-1.86,5.55,5.55,0,0,1,2.71-.66,5.19,5.19,0,0,1,3.92,1.48,6.54,6.54,0,0,1,1.41,4.64v6.76l2.15.43v2.52h-8.55v-2.52l1.91-.43v-6.74a3,3,0,0,0-.67-2.22,2.81,2.81,0,0,0-2-.66,3.71,3.71,0,0,0-1.59.34,3.06,3.06,0,0,0-1.18,1v8.32l1.8.43v2.52H866.9Z"/><path class="cls-1" d="M893.66,230.92v3.81h2.92v2.94h-2.92v7.92a1.78,1.78,0,0,0,.4,1.29,1.49,1.49,0,0,0,1.08.39c.3,0,.57,0,.8,0a6.35,6.35,0,0,0,.77-.12l.39,3a11.68,11.68,0,0,1-1.49.32,11.24,11.24,0,0,1-1.59.11,4.31,4.31,0,0,1-4.81-5v-7.93h-2.44v-2.94h2.44v-3.81Z"/><path class="cls-1" d="M898.63,247.75l2.16-.43v-9.63l-2.39-.43v-2.53h6.86v12.59l2.15.43v2.52h-8.78ZM905.26,231h-4.47v-3.14h4.47Z"/><path class="cls-1" d="M919.44,250.27a6.07,6.07,0,0,1-.32-.8,5,5,0,0,1-.22-.82A6.29,6.29,0,0,1,917,250a6.18,6.18,0,0,1-2.61.53,5.71,5.71,0,0,1-3.87-1.24,4.27,4.27,0,0,1-1.43-3.38,3.78,3.78,0,0,1,1.87-3.38,10.3,10.3,0,0,1,5.48-1.19h2.29v-1.52a2.21,2.21,0,0,0-.69-1.74,3,3,0,0,0-2-.62,5.05,5.05,0,0,0-1.36.17,3.75,3.75,0,0,0-1,.39l-.29,1.67H910v-3.45a13.26,13.26,0,0,1,2.81-1.31,11,11,0,0,1,3.46-.53,8.18,8.18,0,0,1,5,1.42,4.7,4.7,0,0,1,1.93,4V247a5.54,5.54,0,0,0,.06.6l1.36.17v2.52Zm-3.88-2.8a4.14,4.14,0,0,0,1.84-.41,3.55,3.55,0,0,0,1.29-1v-2.37H916.4a3.24,3.24,0,0,0-2.16.63,1.88,1.88,0,0,0-.73,1.5,1.5,1.5,0,0,0,.54,1.23A2.3,2.3,0,0,0,915.56,247.47Z"/><path class="cls-1" d="M925.64,230.39v-2.52h6.87v19.45l2.16.43v2.52h-8.8v-2.52l2.16-.43v-16.5Z"/><path class="cls-1" d="M951.6,247.35a2.7,2.7,0,0,0,1.91-.65,2.25,2.25,0,0,0,.72-1.74h4l.05.08a4.71,4.71,0,0,1-1.89,3.94,8.36,8.36,0,0,1-10.56-.61,8.05,8.05,0,0,1-2-5.64v-.43a8,8,0,0,1,2.06-5.65,7.64,7.64,0,0,1,5.87-2.21,10.88,10.88,0,0,1,3.6.56,7.3,7.3,0,0,1,2.66,1.58l.06,4.15H954.5l-.74-2.42a2.64,2.64,0,0,0-.83-.46,3.21,3.21,0,0,0-1.12-.18,2.87,2.87,0,0,0-2.68,1.3,6.36,6.36,0,0,0-.78,3.33v.43a6.74,6.74,0,0,0,.72,3.35A2.65,2.65,0,0,0,951.6,247.35Z"/><path class="cls-1" d="M960.35,242.36a8,8,0,0,1,2.07-5.7,8.57,8.57,0,0,1,11.5,0,8,8,0,0,1,2.07,5.71v.3a8,8,0,0,1-2.07,5.71,8.61,8.61,0,0,1-11.5,0,8,8,0,0,1-2.07-5.71Zm4.47.3a6.45,6.45,0,0,0,.8,3.41,2.81,2.81,0,0,0,2.57,1.28,2.77,2.77,0,0,0,2.54-1.29,6.34,6.34,0,0,0,.8-3.4v-.3a6.34,6.34,0,0,0-.81-3.38,2.79,2.79,0,0,0-2.56-1.31,2.76,2.76,0,0,0-2.54,1.31,6.43,6.43,0,0,0-.8,3.38Z"/><path class="cls-1" d="M977.69,247.75l2.15-.43v-9.63l-2.38-.43v-2.53H984l.2,2.23a5.9,5.9,0,0,1,2-1.86,5.61,5.61,0,0,1,2.72-.66,5.19,5.19,0,0,1,3.92,1.48,6.54,6.54,0,0,1,1.41,4.64v6.76l2.14.43v2.52h-8.55v-2.52l1.92-.43v-6.74a3,3,0,0,0-.68-2.22,2.79,2.79,0,0,0-2-.66,3.72,3.72,0,0,0-1.6.34,3.13,3.13,0,0,0-1.18,1v8.32l1.81.43v2.52h-8.43Z"/><path class="cls-1" d="M1004.46,230.92v3.81h2.91v2.94h-2.91v7.92a1.78,1.78,0,0,0,.4,1.29,1.47,1.47,0,0,0,1.07.39c.31,0,.58,0,.81,0a6.35,6.35,0,0,0,.77-.12l.38,3a11.54,11.54,0,0,1-1.48.32,11.28,11.28,0,0,1-1.6.11,5,5,0,0,1-3.56-1.19,5,5,0,0,1-1.25-3.78v-7.93h-2.43v-2.94H1000v-3.81Z"/><path class="cls-1" d="M1020.12,250.27a7.85,7.85,0,0,1-.32-.8,6.17,6.17,0,0,1-.21-.82,6.41,6.41,0,0,1-1.94,1.39,6.18,6.18,0,0,1-2.61.53,5.68,5.68,0,0,1-3.87-1.24,4.24,4.24,0,0,1-1.44-3.38,3.8,3.8,0,0,1,1.87-3.38,10.36,10.36,0,0,1,5.49-1.19h2.28v-1.52a2.21,2.21,0,0,0-.69-1.74,3,3,0,0,0-2-.62,5.11,5.11,0,0,0-1.36.17,3.9,3.9,0,0,0-1,.39l-.29,1.67h-3.37l0-3.45a13,13,0,0,1,2.81-1.31,11,11,0,0,1,3.46-.53,8.18,8.18,0,0,1,5,1.42,4.7,4.7,0,0,1,1.92,4v6.41c0,.24,0,.47,0,.68a3.83,3.83,0,0,0,0,.6l1.37.17v2.52Zm-3.87-2.8a4.1,4.1,0,0,0,1.83-.41,3.46,3.46,0,0,0,1.29-1v-2.37h-2.28a3.24,3.24,0,0,0-2.16.63,1.89,1.89,0,0,0-.74,1.5,1.48,1.48,0,0,0,.55,1.23A2.29,2.29,0,0,0,1016.25,247.47Z"/><path class="cls-1" d="M1026.67,247.75l2.16-.43v-9.63l-2.39-.43v-2.53h6.86v12.59l2.15.43v2.52h-8.78ZM1033.3,231h-4.47v-3.14h4.47Z"/><path class="cls-1" d="M1036.67,247.75l2.15-.43v-9.63l-2.38-.43v-2.53H1043l.2,2.23a5.84,5.84,0,0,1,2-1.86,5.57,5.57,0,0,1,2.71-.66,5.19,5.19,0,0,1,3.93,1.48,6.59,6.59,0,0,1,1.4,4.64v6.76l2.15.43v2.52h-8.55v-2.52l1.92-.43v-6.74a3,3,0,0,0-.68-2.22,2.81,2.81,0,0,0-2-.66,3.71,3.71,0,0,0-1.59.34,3.13,3.13,0,0,0-1.18,1v8.32l1.81.43v2.52h-8.43Z"/><path class="cls-1" d="M1064.62,250.57a7.75,7.75,0,0,1-5.73-2.15,7.45,7.45,0,0,1-2.15-5.48v-.57a8.17,8.17,0,0,1,2-5.7,7,7,0,0,1,12.51,4.79v2.29h-9.89l0,.08a3.9,3.9,0,0,0,1.09,2.53,3.54,3.54,0,0,0,2.64,1,9,9,0,0,0,2.47-.28,11.63,11.63,0,0,0,2.15-.88l1.21,2.59a9.15,9.15,0,0,1-2.66,1.27A11.86,11.86,0,0,1,1064.62,250.57Zm-.4-12.9a2.39,2.39,0,0,0-2,.89,4.48,4.48,0,0,0-.89,2.35l.05.07h5.48v-.38a3.23,3.23,0,0,0-.66-2.13A2.5,2.5,0,0,0,1064.22,237.67Z"/><path class="cls-1" d="M1073.74,247.75l2.14-.43v-9.63l-2.37-.43v-2.53h6.54l.2,2.27a4.93,4.93,0,0,1,1.5-1.88,3.5,3.5,0,0,1,2.13-.68,6.42,6.42,0,0,1,.74.05,5.29,5.29,0,0,1,.65.13l-.47,3.81-1.84,0a3.29,3.29,0,0,0-1.62.36,2.35,2.35,0,0,0-1,1v7.55l2.14.43v2.52h-8.76Z"/><rect class="cls-2" x="741" y="146" width="360" height="149" rx="8"/><rect class="cls-3" x="1185.24" y="146" width="363.36" height="149" rx="8"/><path class="cls-4" d="M1282.42,212.06a2.76,2.76,0,0,0,1.91-.65,2.26,2.26,0,0,0,.72-1.75h4l0,.09a4.69,4.69,0,0,1-1.88,3.94,8.36,8.36,0,0,1-10.56-.61,8.05,8.05,0,0,1-2-5.65V207a7.92,7.92,0,0,1,2.06-5.64,7.64,7.64,0,0,1,5.87-2.21,10.63,10.63,0,0,1,3.6.56,7,7,0,0,1,2.65,1.58l.07,4.15h-3.64l-.73-2.43a3,3,0,0,0-.83-.45,3.25,3.25,0,0,0-1.12-.18,2.88,2.88,0,0,0-2.68,1.29,6.36,6.36,0,0,0-.78,3.33v.43a6.81,6.81,0,0,0,.72,3.36A2.65,2.65,0,0,0,1282.42,212.06Z"/><path class="cls-4" d="M1291.17,207.06a8,8,0,0,1,2.07-5.69,8.57,8.57,0,0,1,11.5,0,8,8,0,0,1,2.07,5.7v.3a8,8,0,0,1-2.07,5.71,8.59,8.59,0,0,1-11.5,0,8,8,0,0,1-2.07-5.71Zm4.47.3a6.4,6.4,0,0,0,.8,3.41,3.18,3.18,0,0,0,5.11,0,6.45,6.45,0,0,0,.8-3.41v-.3a6.3,6.3,0,0,0-.81-3.37,2.79,2.79,0,0,0-2.56-1.31,2.76,2.76,0,0,0-2.54,1.31,6.39,6.39,0,0,0-.8,3.37Z"/><path class="cls-4" d="M1308.51,212.46l2.15-.43v-9.64l-2.38-.43v-2.52h6.55l.2,2.22a6,6,0,0,1,2-1.85,5.59,5.59,0,0,1,2.72-.66,5.15,5.15,0,0,1,3.92,1.48,6.52,6.52,0,0,1,1.41,4.64V212l2.14.43V215h-8.55v-2.51l1.92-.43v-6.75a3,3,0,0,0-.68-2.22,2.84,2.84,0,0,0-2-.65,3.58,3.58,0,0,0-1.6.34,3.21,3.21,0,0,0-1.18.95V212l1.81.43V215h-8.43Z"/><path class="cls-4" d="M1328.23,202.38v-2.94h2.47v-1.07a5.53,5.53,0,0,1,1.91-4.51,8.15,8.15,0,0,1,5.37-1.59,12.41,12.41,0,0,1,2.36.22c.77.15,1.67.36,2.7.64l-.65,3.3c-.74-.21-1.42-.37-2-.48a10.85,10.85,0,0,0-2.09-.18,3.49,3.49,0,0,0-2.32.66,2.42,2.42,0,0,0-.78,1.94v1.07h10.06V212l2.37.43V215h-9v-2.51l2.16-.43v-9.65h-5.58V212l2.16.43V215h-9v-2.51l2.39-.43v-9.65Z"/><path class="cls-4" d="M1360,213.08a5.42,5.42,0,0,1-1.85,1.64,5.17,5.17,0,0,1-2.42.56,5.76,5.76,0,0,1-4.76-2.1,8.56,8.56,0,0,1-1.7-5.54v-.31a9.57,9.57,0,0,1,1.71-5.93,5.63,5.63,0,0,1,4.78-2.25,4.82,4.82,0,0,1,2.23.51,5.34,5.34,0,0,1,1.75,1.44v-5.57l-2.39-.43v-2.53h6.86V212l2.15.43V215h-6Zm-6.25-5.44a6,6,0,0,0,.73,3.21,2.58,2.58,0,0,0,2.38,1.17,3.64,3.64,0,0,0,1.7-.38,3.1,3.1,0,0,0,1.18-1.07V204a3.38,3.38,0,0,0-1.17-1.15,3.27,3.27,0,0,0-1.68-.41,2.53,2.53,0,0,0-2.39,1.36,7.38,7.38,0,0,0-.75,3.56Z"/><path class="cls-4" d="M1375.67,215.28a7.71,7.71,0,0,1-5.73-2.16,7.42,7.42,0,0,1-2.14-5.47v-.57a8.12,8.12,0,0,1,2-5.7,7.93,7.93,0,0,1,10.65-.34,7,7,0,0,1,1.86,5.13v2.29h-9.9l0,.08a4,4,0,0,0,1.09,2.53,3.55,3.55,0,0,0,2.65,1,9,9,0,0,0,2.46-.28,12.06,12.06,0,0,0,2.15-.88l1.21,2.58a9,9,0,0,1-2.66,1.28A12.17,12.17,0,0,1,1375.67,215.28Zm-.4-12.9a2.4,2.4,0,0,0-2,.89,4.5,4.5,0,0,0-.89,2.34l0,.07H1378v-.37a3.23,3.23,0,0,0-.67-2.13A2.5,2.5,0,0,0,1375.27,202.38Z"/><path class="cls-4" d="M1384.21,212.46l2.14-.43v-9.64L1384,202v-2.52h6.54l.2,2.22a5.91,5.91,0,0,1,2-1.85,5.55,5.55,0,0,1,2.71-.66,5.15,5.15,0,0,1,3.92,1.48,6.52,6.52,0,0,1,1.41,4.64V212l2.15.43V215h-8.55v-2.51l1.91-.43v-6.75a3,3,0,0,0-.67-2.22,2.85,2.85,0,0,0-2-.65,3.57,3.57,0,0,0-1.59.34,3.13,3.13,0,0,0-1.18.95V212l1.8.43V215h-8.42Z"/><path class="cls-4" d="M1411,195.63v3.81h2.91v2.94H1411v7.91a1.75,1.75,0,0,0,.39,1.29,1.49,1.49,0,0,0,1.08.39c.3,0,.57,0,.8,0l.78-.12.38,3a11.68,11.68,0,0,1-1.49.32,11.24,11.24,0,0,1-1.59.11,4.33,4.33,0,0,1-4.81-5v-7.93h-2.44v-2.94h2.44v-3.81Z"/><path class="cls-4" d="M1415.94,212.46l2.16-.43v-9.64l-2.39-.43v-2.52h6.86V212l2.15.43V215h-8.78Zm6.63-16.74h-4.47v-3.15h4.47Z"/><path class="cls-4" d="M1436.75,215a5.44,5.44,0,0,1-.32-.79,5.09,5.09,0,0,1-.22-.83,6,6,0,0,1-1.94,1.4,6.18,6.18,0,0,1-2.61.53,5.72,5.72,0,0,1-3.87-1.25,4.24,4.24,0,0,1-1.43-3.38,3.77,3.77,0,0,1,1.87-3.37,10.2,10.2,0,0,1,5.48-1.2H1436v-1.52a2.2,2.2,0,0,0-.69-1.73,2.93,2.93,0,0,0-2-.62,5.08,5.08,0,0,0-1.36.16,3.54,3.54,0,0,0-1,.4l-.29,1.66h-3.37V201a12.66,12.66,0,0,1,2.82-1.31,10.85,10.85,0,0,1,3.45-.53,8.25,8.25,0,0,1,5,1.41,4.7,4.7,0,0,1,1.93,4v7.1a5.54,5.54,0,0,0,.06.6l1.36.17V215Zm-3.88-2.8a4,4,0,0,0,1.84-.41,3.53,3.53,0,0,0,1.29-1v-2.37h-2.29a3.29,3.29,0,0,0-2.16.62,1.91,1.91,0,0,0-.73,1.5,1.52,1.52,0,0,0,.54,1.24A2.3,2.3,0,0,0,1432.87,212.17Z"/><path class="cls-4" d="M1443,195.1v-2.53h6.87V212l2.16.43V215h-8.8v-2.51l2.16-.43v-16.5Z"/><path class="cls-4" d="M1304.27,247.35a2.72,2.72,0,0,0,1.91-.65,2.25,2.25,0,0,0,.72-1.74h4l0,.08a4.71,4.71,0,0,1-1.89,3.94,8.36,8.36,0,0,1-10.56-.61,8,8,0,0,1-2-5.64v-.43a8,8,0,0,1,2.06-5.65,7.64,7.64,0,0,1,5.87-2.21,10.88,10.88,0,0,1,3.6.56,7.17,7.17,0,0,1,2.65,1.58l.07,4.15h-3.64l-.73-2.42a2.75,2.75,0,0,0-.83-.46,3.25,3.25,0,0,0-1.12-.18,2.87,2.87,0,0,0-2.68,1.3,6.36,6.36,0,0,0-.78,3.33v.43a6.74,6.74,0,0,0,.72,3.35A2.65,2.65,0,0,0,1304.27,247.35Z"/><path class="cls-4" d="M1313,242.36a8,8,0,0,1,2.07-5.7,8.57,8.57,0,0,1,11.5,0,8,8,0,0,1,2.07,5.71v.3a8,8,0,0,1-2.07,5.71,8.61,8.61,0,0,1-11.5,0,8,8,0,0,1-2.07-5.71Zm4.47.3a6.45,6.45,0,0,0,.8,3.41,2.81,2.81,0,0,0,2.57,1.28,2.77,2.77,0,0,0,2.54-1.29,6.34,6.34,0,0,0,.8-3.4v-.3a6.34,6.34,0,0,0-.81-3.38,2.79,2.79,0,0,0-2.56-1.31,2.76,2.76,0,0,0-2.54,1.31,6.43,6.43,0,0,0-.8,3.38Z"/><path class="cls-4" d="M1330.36,247.75l2.15-.43v-9.63l-2.38-.43v-2.53h6.55l.19,2.23a6,6,0,0,1,2-1.86,5.57,5.57,0,0,1,2.71-.66,5.19,5.19,0,0,1,3.93,1.48,6.54,6.54,0,0,1,1.41,4.64v6.76l2.14.43v2.52h-8.55v-2.52l1.92-.43v-6.74a3,3,0,0,0-.68-2.22,2.8,2.8,0,0,0-2-.66,3.72,3.72,0,0,0-1.6.34,3.13,3.13,0,0,0-1.18,1v8.32l1.81.43v2.52h-8.43Z"/><path class="cls-4" d="M1357.13,230.92v3.81H1360v2.94h-2.91v7.92a1.73,1.73,0,0,0,.4,1.29,1.45,1.45,0,0,0,1.07.39c.31,0,.58,0,.81,0a6.66,6.66,0,0,0,.77-.12l.38,3a11.54,11.54,0,0,1-1.48.32,11.28,11.28,0,0,1-1.6.11,5,5,0,0,1-3.56-1.19,5,5,0,0,1-1.25-3.78v-7.93h-2.43v-2.94h2.43v-3.81Z"/><path class="cls-4" d="M1372.79,250.27a7.85,7.85,0,0,1-.32-.8,8.3,8.3,0,0,1-.22-.82,6,6,0,0,1-4.55,1.92,5.71,5.71,0,0,1-3.87-1.24,4.27,4.27,0,0,1-1.43-3.38,3.8,3.8,0,0,1,1.87-3.38,10.36,10.36,0,0,1,5.49-1.19H1372v-1.52a2.21,2.21,0,0,0-.69-1.74,3,3,0,0,0-2-.62,5.11,5.11,0,0,0-1.36.17,3.9,3.9,0,0,0-1,.39l-.29,1.67h-3.37l0-3.45a12.81,12.81,0,0,1,2.81-1.31,10.94,10.94,0,0,1,3.45-.53,8.22,8.22,0,0,1,5,1.42,4.7,4.7,0,0,1,1.92,4v6.41c0,.24,0,.47,0,.68a3.83,3.83,0,0,0,0,.6l1.37.17v2.52Zm-3.88-2.8a4.11,4.11,0,0,0,1.84-.41,3.55,3.55,0,0,0,1.29-1v-2.37h-2.28a3.24,3.24,0,0,0-2.16.63,1.89,1.89,0,0,0-.74,1.5,1.48,1.48,0,0,0,.55,1.23A2.28,2.28,0,0,0,1368.91,247.47Z"/><path class="cls-4" d="M1379.33,247.75l2.16-.43v-9.63l-2.39-.43v-2.53H1386v12.59l2.14.43v2.52h-8.78ZM1386,231h-4.48v-3.14H1386Z"/><path class="cls-4" d="M1389.34,247.75l2.14-.43v-9.63l-2.37-.43v-2.53h6.54l.2,2.23a5.84,5.84,0,0,1,2-1.86,5.57,5.57,0,0,1,2.71-.66,5.17,5.17,0,0,1,3.92,1.48,6.54,6.54,0,0,1,1.41,4.64v6.76l2.15.43v2.52h-8.55v-2.52l1.91-.43v-6.74a3,3,0,0,0-.67-2.22,2.81,2.81,0,0,0-2-.66,3.71,3.71,0,0,0-1.59.34,3.13,3.13,0,0,0-1.18,1v8.32l1.81.43v2.52h-8.43Z"/><path class="cls-4" d="M1417.29,250.57a7.75,7.75,0,0,1-5.73-2.15,7.45,7.45,0,0,1-2.15-5.48v-.57a8.17,8.17,0,0,1,2-5.7,7.93,7.93,0,0,1,10.66-.33,7,7,0,0,1,1.85,5.12v2.29h-9.9l0,.08a4,4,0,0,0,1.1,2.53,3.54,3.54,0,0,0,2.64,1,9,9,0,0,0,2.47-.28,11.29,11.29,0,0,0,2.14-.88l1.22,2.59a9.28,9.28,0,0,1-2.66,1.27A11.86,11.86,0,0,1,1417.29,250.57Zm-.4-12.9a2.39,2.39,0,0,0-2,.89,4.48,4.48,0,0,0-.89,2.35l0,.07h5.48v-.38a3.18,3.18,0,0,0-.67-2.13A2.47,2.47,0,0,0,1416.89,237.67Z"/><path class="cls-4" d="M1426.4,247.75l2.15-.43v-9.63l-2.37-.43v-2.53h6.54l.2,2.27a4.84,4.84,0,0,1,1.5-1.88,3.5,3.5,0,0,1,2.13-.68,6.57,6.57,0,0,1,.74.05,5.29,5.29,0,0,1,.65.13l-.47,3.81-1.84,0a3.33,3.33,0,0,0-1.63.36,2.47,2.47,0,0,0-1,1v7.55l2.15.43v2.52h-8.77Z"/><line class="cls-5" x1="1120.53" y1="227.62" x2="1164.73" y2="227.62"/><polygon class="cls-6" points="1150.81 244.8 1147.95 241.72 1163.12 227.63 1147.95 213.53 1150.81 210.45 1169.28 227.63 1150.81 244.8"/><polyline class="cls-7" points="1578.53 227.62 1627.28 227.62 1627.28 364 207 364 207 220.5 263.99 220.5"/><polygon class="cls-6" points="245.44 243.4 241.62 239.3 261.84 220.5 241.62 201.7 245.44 197.6 270.06 220.5 245.44 243.4"/><path class="cls-1" d="M436.39,212.06a2.79,2.79,0,0,0,1.92-.65,2.26,2.26,0,0,0,.72-1.75h4l.05.09a4.72,4.72,0,0,1-1.89,3.94,8.36,8.36,0,0,1-10.56-.61,8.1,8.1,0,0,1-2-5.65V207a7.92,7.92,0,0,1,2.06-5.64,7.64,7.64,0,0,1,5.87-2.21,10.73,10.73,0,0,1,3.61.56,7.2,7.2,0,0,1,2.65,1.58l.06,4.15h-3.63l-.74-2.43a2.84,2.84,0,0,0-.83-.45,3.21,3.21,0,0,0-1.12-.18,2.88,2.88,0,0,0-2.68,1.29,6.36,6.36,0,0,0-.78,3.33v.43a6.81,6.81,0,0,0,.72,3.36A2.65,2.65,0,0,0,436.39,212.06Z"/><path class="cls-1" d="M444.89,212.46l2.16-.43v-16.5l-2.39-.43v-2.53h6.85v8.85a5.51,5.51,0,0,1,1.92-1.68,5.37,5.37,0,0,1,2.51-.59,5.3,5.3,0,0,1,4.09,1.61,7.24,7.24,0,0,1,1.47,5V212l2.15.43V215H455.1v-2.51L457,212v-6.3a3.86,3.86,0,0,0-.68-2.57,2.61,2.61,0,0,0-2-.75,3.89,3.89,0,0,0-1.63.31,3.29,3.29,0,0,0-1.18.9V212l1.93.43V215h-8.55Z"/><path class="cls-1" d="M472.87,215.28a7.71,7.71,0,0,1-5.73-2.16,7.42,7.42,0,0,1-2.14-5.47v-.57a8.12,8.12,0,0,1,2-5.7,7.93,7.93,0,0,1,10.65-.34,7,7,0,0,1,1.86,5.13v2.29h-9.9l0,.08a3.91,3.91,0,0,0,1.1,2.53,3.51,3.51,0,0,0,2.64,1,9,9,0,0,0,2.46-.28,12.06,12.06,0,0,0,2.15-.88l1.21,2.58a9,9,0,0,1-2.66,1.28A12.17,12.17,0,0,1,472.87,215.28Zm-.4-12.9a2.4,2.4,0,0,0-2,.89,4.5,4.5,0,0,0-.89,2.34l.05.07h5.49v-.37a3.23,3.23,0,0,0-.67-2.13A2.49,2.49,0,0,0,472.47,202.38Z"/><path class="cls-1" d="M489.44,212.06a2.76,2.76,0,0,0,1.91-.65,2.26,2.26,0,0,0,.72-1.75h4.05l0,.09a4.71,4.71,0,0,1-1.88,3.94,8.36,8.36,0,0,1-10.56-.61,8.06,8.06,0,0,1-2-5.65V207a7.93,7.93,0,0,1,2.07-5.64,7.64,7.64,0,0,1,5.87-2.21,10.63,10.63,0,0,1,3.6.56,7.12,7.12,0,0,1,2.65,1.58l.06,4.15h-3.63L491.6,203a3,3,0,0,0-.83-.45,3.25,3.25,0,0,0-1.12-.18,2.87,2.87,0,0,0-2.68,1.29,6.36,6.36,0,0,0-.78,3.33v.43a6.81,6.81,0,0,0,.72,3.36A2.65,2.65,0,0,0,489.44,212.06Z"/><path class="cls-1" d="M497.71,195.1v-2.53h6.85v13h1l2.57-3.4-1.45-.19v-2.52h8.15V202l-2,.42-3,3.85,4.18,5.9,1.7.33V215H508.1v-2.51l.92-.14-2.54-3.85h-1.92V212l1.93.43V215h-8.55v-2.51l2.16-.43v-16.5Z"/><path class="cls-1" d="M359.87,247.75l2.14-.43v-9.63l-2.37-.43v-2.53h6.54l.2,2.27a4.93,4.93,0,0,1,1.5-1.88,3.54,3.54,0,0,1,2.13-.68,6.42,6.42,0,0,1,.74.05,5.5,5.5,0,0,1,.66.13l-.48,3.81-1.84,0a3.29,3.29,0,0,0-1.62.36,2.35,2.35,0,0,0-1,1v7.55l2.14.43v2.52h-8.76Z"/><path class="cls-1" d="M380.39,250.57a7.77,7.77,0,0,1-5.74-2.15,7.44,7.44,0,0,1-2.14-5.48v-.57a8.17,8.17,0,0,1,2-5.7,7.93,7.93,0,0,1,10.66-.33,7,7,0,0,1,1.85,5.12v2.29h-9.9l0,.08a3.91,3.91,0,0,0,1.1,2.53,3.54,3.54,0,0,0,2.64,1,9.08,9.08,0,0,0,2.47-.28,11.29,11.29,0,0,0,2.14-.88l1.21,2.59a9,9,0,0,1-2.66,1.27A11.79,11.79,0,0,1,380.39,250.57Zm-.4-12.9a2.39,2.39,0,0,0-2,.89,4.48,4.48,0,0,0-.89,2.35l0,.07h5.49v-.38a3.18,3.18,0,0,0-.67-2.13A2.47,2.47,0,0,0,380,237.67Z"/><path class="cls-1" d="M389.44,242.63a9.55,9.55,0,0,1,1.71-5.93,5.64,5.64,0,0,1,4.79-2.26,5.07,5.07,0,0,1,2.45.58,5.38,5.38,0,0,1,1.81,1.66l.32-2h3.89v15.08a6.23,6.23,0,0,1-2.06,4.9,8.22,8.22,0,0,1-5.66,1.83,11.7,11.7,0,0,1-2.67-.32,12.61,12.61,0,0,1-2.6-.88l.83-3a14.77,14.77,0,0,0,2.14.69,10.39,10.39,0,0,0,2.27.25,3.05,3.05,0,0,0,2.45-.94,3.82,3.82,0,0,0,.81-2.6v-1a5.06,5.06,0,0,1-1.73,1.33,5.31,5.31,0,0,1-2.28.46,5.79,5.79,0,0,1-4.76-2.1,8.53,8.53,0,0,1-1.71-5.54Zm4.48.3a6,6,0,0,0,.73,3.21,2.61,2.61,0,0,0,2.39,1.17,3.94,3.94,0,0,0,1.74-.35,2.77,2.77,0,0,0,1.14-1v-6.75a2.91,2.91,0,0,0-1.14-1.09,3.49,3.49,0,0,0-1.71-.39,2.56,2.56,0,0,0-2.4,1.37,7.35,7.35,0,0,0-.75,3.56Z"/><path class="cls-1" d="M407,247.75l2.16-.43v-9.63l-2.39-.43v-2.53h6.86v12.59l2.15.43v2.52H407ZM413.59,231h-4.47v-3.14h4.47Z"/><path class="cls-1" d="M430.74,240.07h-3l-.47-1.94a3.92,3.92,0,0,0-1.16-.57,5,5,0,0,0-1.54-.23,3.14,3.14,0,0,0-1.87.49,1.5,1.5,0,0,0-.69,1.25,1.39,1.39,0,0,0,.66,1.17,7.45,7.45,0,0,0,2.64.82,11.25,11.25,0,0,1,4.56,1.69,3.62,3.62,0,0,1,1.49,3.07,4,4,0,0,1-1.92,3.42,8.74,8.74,0,0,1-5.07,1.33,11.15,11.15,0,0,1-3.51-.52,9,9,0,0,1-2.85-1.51l0-3.48h3.12l.62,2a2.57,2.57,0,0,0,1.08.47,6.76,6.76,0,0,0,1.44.15,3.91,3.91,0,0,0,2.08-.46,1.4,1.4,0,0,0,0-2.44,7.56,7.56,0,0,0-2.65-.89,11.19,11.19,0,0,1-4.42-1.66,3.53,3.53,0,0,1-1.49-3,4.23,4.23,0,0,1,1.71-3.36,7.48,7.48,0,0,1,4.89-1.42A13.21,13.21,0,0,1,428,235a8,8,0,0,1,2.7,1.25Z"/><path class="cls-1" d="M440,230.92v3.81h2.91v2.94H440v7.92a1.73,1.73,0,0,0,.4,1.29,1.45,1.45,0,0,0,1.07.39c.31,0,.58,0,.81,0a6.66,6.66,0,0,0,.77-.12l.38,3a11.54,11.54,0,0,1-1.48.32,11.38,11.38,0,0,1-1.6.11,5,5,0,0,1-3.56-1.19,5,5,0,0,1-1.25-3.78v-7.93h-2.44v-2.94h2.44v-3.81Z"/><path class="cls-1" d="M445.4,247.75l2.14-.43v-9.63l-2.37-.43v-2.53h6.54l.2,2.27a4.93,4.93,0,0,1,1.5-1.88,3.54,3.54,0,0,1,2.13-.68,6.59,6.59,0,0,1,.75.05,5.71,5.71,0,0,1,.65.13l-.48,3.81-1.84,0a3.29,3.29,0,0,0-1.62.36,2.35,2.35,0,0,0-1,1v7.55l2.14.43v2.52H445.4Z"/><path class="cls-1" d="M475.71,237.26l-1.55.21-6.1,15.12a8.39,8.39,0,0,1-1.92,2.82,5.09,5.09,0,0,1-3.62,1.13,6,6,0,0,1-1.07-.08c-.33-.06-.72-.14-1.17-.25l.52-3,.44.05.4,0a2.58,2.58,0,0,0,1.72-.51,3.38,3.38,0,0,0,.92-1.27l.5-1.18-5.25-12.79-1.55-.23v-2.53h8.12v2.53l-1.85.28,2.26,6.21.23,1.12h.1l2.62-7.34-1.87-.28v-2.53h8.12Z"/><path class="cls-1" d="M496.41,248.3a5.39,5.39,0,0,1-2,1.68,5.89,5.89,0,0,1-2.67.59,5.37,5.37,0,0,1-4.11-1.57,6.93,6.93,0,0,1-1.49-4.89v-6.42l-1.82-.43v-2.53h6.3v9.41a3.87,3.87,0,0,0,.6,2.43,2.22,2.22,0,0,0,1.8.74,4.79,4.79,0,0,0,1.83-.32,3.25,3.25,0,0,0,1.27-.93v-8.37l-2-.43v-2.53h6.43v12.59l2,.43v2.52H496.7Z"/><path class="cls-1" d="M504.06,237.26v-2.53h6.49l.22,1.81a5.09,5.09,0,0,1,1.76-1.55,4.93,4.93,0,0,1,2.39-.55,5.63,5.63,0,0,1,4.78,2.26,9.61,9.61,0,0,1,1.7,5.93v.3a8.52,8.52,0,0,1-1.7,5.54,5.77,5.77,0,0,1-4.75,2.1,5.6,5.6,0,0,1-2.31-.45,4.71,4.71,0,0,1-1.74-1.33v4.49l2.16.43v2.53h-8.78v-2.53l2.17-.43V237.69Zm12.87,5.37a7,7,0,0,0-.79-3.56,2.57,2.57,0,0,0-2.39-1.37,3.55,3.55,0,0,0-1.72.39,2.94,2.94,0,0,0-1.13,1.11V246a2.76,2.76,0,0,0,1.13,1,4,4,0,0,0,1.75.34,2.62,2.62,0,0,0,2.39-1.19,6,6,0,0,0,.76-3.23Z"/><path class="cls-1" d="M534.18,248.37a5.32,5.32,0,0,1-1.85,1.64,5.18,5.18,0,0,1-2.43.56,5.76,5.76,0,0,1-4.75-2.1,8.52,8.52,0,0,1-1.7-5.54v-.3a9.61,9.61,0,0,1,1.7-5.93,5.64,5.64,0,0,1,4.79-2.26,4.82,4.82,0,0,1,2.23.51,5.25,5.25,0,0,1,1.75,1.45v-5.58l-2.39-.43v-2.52h6.86v19.45l2.15.43v2.52h-6Zm-6.25-5.44a6,6,0,0,0,.73,3.21,2.58,2.58,0,0,0,2.38,1.17,3.64,3.64,0,0,0,1.7-.37,3.13,3.13,0,0,0,1.18-1.08v-6.59a3.33,3.33,0,0,0-1.17-1.16,3.37,3.37,0,0,0-1.68-.41,2.54,2.54,0,0,0-2.39,1.37,7.35,7.35,0,0,0-.75,3.56Z"/><path class="cls-1" d="M552.52,250.27a7.85,7.85,0,0,1-.32-.8,8.3,8.3,0,0,1-.22-.82,6,6,0,0,1-4.55,1.92,5.71,5.71,0,0,1-3.87-1.24,4.27,4.27,0,0,1-1.43-3.38,3.78,3.78,0,0,1,1.87-3.38,10.36,10.36,0,0,1,5.49-1.19h2.28v-1.52a2.21,2.21,0,0,0-.69-1.74,3,3,0,0,0-2-.62,5.11,5.11,0,0,0-1.36.17,3.9,3.9,0,0,0-1,.39l-.29,1.67h-3.37l0-3.45a12.81,12.81,0,0,1,2.81-1.31,10.94,10.94,0,0,1,3.45-.53,8.22,8.22,0,0,1,5,1.42,4.7,4.7,0,0,1,1.92,4v6.41c0,.24,0,.47,0,.68a3.83,3.83,0,0,0,.05.6l1.36.17v2.52Zm-3.88-2.8a4.11,4.11,0,0,0,1.84-.41,3.55,3.55,0,0,0,1.29-1v-2.37h-2.28a3.24,3.24,0,0,0-2.16.63,1.89,1.89,0,0,0-.74,1.5,1.5,1.5,0,0,0,.54,1.23A2.32,2.32,0,0,0,548.64,247.47Z"/><path class="cls-1" d="M564.58,230.92v3.81h2.91v2.94h-2.91v7.92a1.73,1.73,0,0,0,.4,1.29,1.45,1.45,0,0,0,1.07.39c.31,0,.57,0,.8,0a6.81,6.81,0,0,0,.78-.12l.38,3a10.81,10.81,0,0,1-3.08.43,5,5,0,0,1-3.56-1.19,5,5,0,0,1-1.25-3.78v-7.93h-2.44v-2.94h2.44v-3.81Z"/><path class="cls-1" d="M577.62,250.57a7.75,7.75,0,0,1-5.73-2.15,7.45,7.45,0,0,1-2.15-5.48v-.57a8.17,8.17,0,0,1,2-5.7,7,7,0,0,1,12.51,4.79v2.29h-9.89l0,.08a4,4,0,0,0,1.1,2.53,3.54,3.54,0,0,0,2.64,1,9,9,0,0,0,2.47-.28,11.63,11.63,0,0,0,2.15-.88l1.21,2.59a9.15,9.15,0,0,1-2.66,1.27A11.86,11.86,0,0,1,577.62,250.57Zm-.4-12.9a2.39,2.39,0,0,0-2,.89,4.48,4.48,0,0,0-.89,2.35l0,.07h5.48v-.38a3.23,3.23,0,0,0-.66-2.13A2.5,2.5,0,0,0,577.22,237.67Z"/><rect class="cls-2" x="292" y="146" width="360" height="149" rx="8"/><line class="cls-5" x1="671.53" y1="227.62" x2="715.73" y2="227.62"/><polygon class="cls-6" points="701.81 244.8 698.95 241.72 714.12 227.63 698.95 213.53 701.81 210.45 720.28 227.63 701.81 244.8"/><path d="M474.89,30.58a11.19,11.19,0,0,1,7.7,2.51,8.38,8.38,0,0,1,2.83,6.58,8.28,8.28,0,0,1-2.83,6.56,11.28,11.28,0,0,1-7.7,2.48h-4.81V55l3.05.58V59H461.35V55.6l3-.58V34.61l-3-.59V30.58h13.54Zm-4.81,13.73h4.81a4.71,4.71,0,0,0,3.6-1.29,4.62,4.62,0,0,0,1.22-3.31,4.8,4.8,0,0,0-1.22-3.39,4.59,4.59,0,0,0-3.6-1.34h-4.81Z"/><path d="M487.8,55.6l2.73-.58V41.91l-3-.58V37.89h8.34L496.1,41A6.59,6.59,0,0,1,498,38.42a4.24,4.24,0,0,1,2.72-.92,6.45,6.45,0,0,1,.95.07,6.14,6.14,0,0,1,.83.16l-.61,5.2-2.34-.06a3.92,3.92,0,0,0-2.07.49,3.1,3.1,0,0,0-1.25,1.38V55l2.73.58V59H487.8Z"/><path d="M503.81,48.26a11.33,11.33,0,0,1,2.65-7.74,10.41,10.41,0,0,1,14.65,0,11.32,11.32,0,0,1,2.65,7.75v.41a11.29,11.29,0,0,1-2.65,7.76,10.44,10.44,0,0,1-14.65,0,11.29,11.29,0,0,1-2.65-7.76Zm5.71.41a9.28,9.28,0,0,0,1,4.64,3.91,3.91,0,0,0,6.52,0,9.18,9.18,0,0,0,1-4.63v-.41a9,9,0,0,0-1-4.59,3.51,3.51,0,0,0-3.26-1.78,3.48,3.48,0,0,0-3.25,1.78,9.26,9.26,0,0,0-1,4.59Z"/><path d="M540,56.44a7,7,0,0,1-2.36,2.23,6.15,6.15,0,0,1-3.09.76,7.17,7.17,0,0,1-6.07-2.85A12.16,12.16,0,0,1,526.31,49v-.41a13.76,13.76,0,0,1,2.17-8.07,7.05,7.05,0,0,1,6.1-3.06,5.89,5.89,0,0,1,2.85.69,7,7,0,0,1,2.22,2V32.58l-3-.59V28.55h8.75V55l2.73.58V59h-7.67ZM532,49a8.68,8.68,0,0,0,.93,4.37A3.23,3.23,0,0,0,536,55a4.38,4.38,0,0,0,2.17-.51,4.11,4.11,0,0,0,1.5-1.46v-9a4.25,4.25,0,0,0-1.49-1.57,4,4,0,0,0-2.14-.56,3.21,3.21,0,0,0-3,1.86,10.66,10.66,0,0,0-1,4.84Z"/><path d="M564.69,56.35a6.92,6.92,0,0,1-2.51,2.28,7.11,7.11,0,0,1-3.4.8,6.62,6.62,0,0,1-5.24-2.14q-1.89-2.13-1.89-6.65V41.91l-2.33-.58V37.89h8V50.68a5.54,5.54,0,0,0,.77,3.31,2.73,2.73,0,0,0,2.3,1,5.76,5.76,0,0,0,2.33-.44,4,4,0,0,0,1.61-1.26V41.91l-2.5-.58V37.89h8.2V55l2.56.58V59h-7.56Z"/><path d="M584.79,55.06a3.36,3.36,0,0,0,2.44-.89,3.16,3.16,0,0,0,.92-2.38h5.16l.06.12A6.58,6.58,0,0,1,591,57.27a10.14,10.14,0,0,1-13.45-.83A11.35,11.35,0,0,1,575,48.77v-.59a11.23,11.23,0,0,1,2.62-7.67,9.41,9.41,0,0,1,7.49-3,12.92,12.92,0,0,1,4.59.76A9,9,0,0,1,593,40.41l.08,5.64h-4.63l-.94-3.3a3.34,3.34,0,0,0-1-.61,3.76,3.76,0,0,0-1.43-.25,3.59,3.59,0,0,0-3.41,1.76,9,9,0,0,0-1,4.53v.59a9.74,9.74,0,0,0,.92,4.56A3.33,3.33,0,0,0,584.79,55.06Z"/><path d="M604.36,32.71v5.18h3.71v4h-3.71V52.65a2.48,2.48,0,0,0,.51,1.76,1.81,1.81,0,0,0,1.37.53,9.93,9.93,0,0,0,1,0,9.38,9.38,0,0,0,1-.17l.49,4.13a14.86,14.86,0,0,1-1.9.44,14.17,14.17,0,0,1-2,.14,6.07,6.07,0,0,1-4.54-1.62q-1.59-1.62-1.59-5.14V41.89h-3.11v-4h3.11V32.71Z"/><path d="M610.69,55.6l2.75-.58V41.91l-3-.58V37.89h8.75V55l2.73.58V59H610.69Zm8.46-22.77h-5.71V28.55h5.71Z"/><path d="M623.76,48.26a11.32,11.32,0,0,1,2.64-7.74,10.41,10.41,0,0,1,14.65,0,11.32,11.32,0,0,1,2.65,7.75v.41a11.29,11.29,0,0,1-2.65,7.76,9.22,9.22,0,0,1-7.29,3,9.31,9.31,0,0,1-7.36-3,11.29,11.29,0,0,1-2.64-7.76Zm5.7.41a9.28,9.28,0,0,0,1,4.64,3.53,3.53,0,0,0,3.29,1.75A3.48,3.48,0,0,0,637,53.3a9.18,9.18,0,0,0,1-4.63v-.41a9,9,0,0,0-1-4.59,3.51,3.51,0,0,0-3.26-1.78,3.48,3.48,0,0,0-3.25,1.78,9.26,9.26,0,0,0-1,4.59Z"/><path d="M645.87,55.6,648.6,55V41.91l-3-.58V37.89h8.34l.26,3a7.69,7.69,0,0,1,2.59-2.52,6.74,6.74,0,0,1,3.46-.9,6.36,6.36,0,0,1,5,2q1.8,2,1.8,6.31V55l2.73.58V59h-10.9V55.6l2.44-.58V45.84a4.29,4.29,0,0,0-.85-3,3.48,3.48,0,0,0-2.6-.89,4.34,4.34,0,0,0-2,.46,4.28,4.28,0,0,0-1.51,1.3V55l2.31.58V59H645.87Z"/><path d="M694,30.58a11.72,11.72,0,0,1,8.59,3.33A11.46,11.46,0,0,1,706,42.46v4.71a11.4,11.4,0,0,1-3.38,8.54A11.74,11.74,0,0,1,694,59H681.24V55.6l3-.58V34.61l-3-.59V30.58H694ZM690,35V54.65h3.77a5.93,5.93,0,0,0,4.8-2.07,8.14,8.14,0,0,0,1.74-5.41V42.42a8.06,8.06,0,0,0-1.74-5.37,5.93,5.93,0,0,0-4.8-2.07Z"/><path d="M719.05,59.43a9.51,9.51,0,0,1-7.31-2.93A10.47,10.47,0,0,1,709,49.06v-.78a11.52,11.52,0,0,1,2.59-7.75,9.64,9.64,0,0,1,13.58-.45,9.88,9.88,0,0,1,2.36,7v3.1H714.93l0,.12a5.47,5.47,0,0,0,1.4,3.44,4.32,4.32,0,0,0,3.36,1.35,11.11,11.11,0,0,0,3.15-.38,14.81,14.81,0,0,0,2.73-1.21L727.08,57a11.44,11.44,0,0,1-3.39,1.74A14.44,14.44,0,0,1,719.05,59.43Zm-.51-17.54A3,3,0,0,0,716,43.1a6.31,6.31,0,0,0-1.13,3.19l.06.09h7v-.5a4.55,4.55,0,0,0-.85-2.9A3,3,0,0,0,718.54,41.89Z"/><path d="M729.81,41.33V37.89h8.28l.28,2.46a6.8,6.8,0,0,1,2.24-2.11,6.12,6.12,0,0,1,3-.74,7,7,0,0,1,6.09,3.06,13.68,13.68,0,0,1,2.17,8.07V49a12.1,12.1,0,0,1-2.17,7.54,7.16,7.16,0,0,1-6,2.85,6.76,6.76,0,0,1-3-.61A6.1,6.1,0,0,1,738.54,57v6.11l2.75.59v3.44H730.1V63.71l2.76-.59V41.91Zm16.41,7.3a10.24,10.24,0,0,0-1-4.84,3.25,3.25,0,0,0-3.05-1.86,4.28,4.28,0,0,0-2.19.53,3.72,3.72,0,0,0-1.44,1.5v9.26A3.46,3.46,0,0,0,740,54.59a4.84,4.84,0,0,0,2.23.47,3.28,3.28,0,0,0,3-1.62,8.62,8.62,0,0,0,1-4.4Z"/><path d="M753.46,32V28.55h8.75V55l2.76.58V59H753.76V55.6l2.75-.58V32.58Z"/><path d="M766.43,48.26a11.28,11.28,0,0,1,2.65-7.74,10.41,10.41,0,0,1,14.65,0,11.31,11.31,0,0,1,2.64,7.75v.41a11.29,11.29,0,0,1-2.64,7.76,10.44,10.44,0,0,1-14.65,0,11.24,11.24,0,0,1-2.65-7.76Zm5.7.41a9.17,9.17,0,0,0,1,4.64,3.52,3.52,0,0,0,3.28,1.75,3.47,3.47,0,0,0,3.23-1.76,9.07,9.07,0,0,0,1-4.63v-.41a9,9,0,0,0-1-4.59,3.86,3.86,0,0,0-6.5,0,9.15,9.15,0,0,0-1,4.59Z"/><path d="M810.44,41.33l-2,.29-7.77,20.57A11.36,11.36,0,0,1,798.24,66a6.24,6.24,0,0,1-4.62,1.55,7.32,7.32,0,0,1-1.36-.12c-.42-.08-.92-.19-1.49-.33l.66-4.16L792,63l.51,0a3.12,3.12,0,0,0,2.18-.69,4.63,4.63,0,0,0,1.18-1.73l.64-1.6-6.7-17.4-2-.31V37.89h10.35v3.44l-2.36.39,2.89,8.43.29,1.53.12,0,3.34-10-2.39-.39V37.89h10.36Z"/><path d="M811.57,41.33V37.89h8.34l.23,2.79a7.15,7.15,0,0,1,2.55-2.35,7.39,7.39,0,0,1,3.55-.83,6.43,6.43,0,0,1,3.47.9,5.48,5.48,0,0,1,2.19,2.71,7.27,7.27,0,0,1,2.54-2.65,6.88,6.88,0,0,1,3.67-1A6.08,6.08,0,0,1,843,39.66q1.82,2.16,1.81,6.57V55l2.75.58V59H836.69V55.6l2.46-.58V46.21a5.34,5.34,0,0,0-.78-3.34,2.86,2.86,0,0,0-2.33-.94,3.81,3.81,0,0,0-3.51,2c0,.25,0,.46,0,.64a4.61,4.61,0,0,1,0,.53V55l2.31.58V59H824.58V55.6l2.3-.58V46.21a5.36,5.36,0,0,0-.78-3.31,2.81,2.81,0,0,0-2.34-1,4.5,4.5,0,0,0-2,.44,3.88,3.88,0,0,0-1.43,1.24V55l2.46.58V59h-10.9V55.6l2.76-.58V41.91Z"/><path d="M859.36,59.43a9.47,9.47,0,0,1-7.3-2.93,10.44,10.44,0,0,1-2.74-7.44v-.78a11.52,11.52,0,0,1,2.59-7.75,9.64,9.64,0,0,1,13.58-.45,9.88,9.88,0,0,1,2.37,7v3.1H855.24l0,.12a5.53,5.53,0,0,0,1.4,3.44A4.34,4.34,0,0,0,860,55.06a11.08,11.08,0,0,0,3.14-.38,14.88,14.88,0,0,0,2.74-1.21L867.39,57A11.2,11.2,0,0,1,864,58.73,14.4,14.4,0,0,1,859.36,59.43Zm-.51-17.54a3,3,0,0,0-2.5,1.21,6.31,6.31,0,0,0-1.13,3.19l.06.09h7v-.5a4.55,4.55,0,0,0-.85-2.9A3,3,0,0,0,858.85,41.89Z"/><path d="M870.24,55.6,873,55V41.91l-3-.58V37.89h8.34l.25,3a7.71,7.71,0,0,1,2.6-2.52,6.74,6.74,0,0,1,3.46-.9,6.37,6.37,0,0,1,5,2q1.78,2,1.79,6.31V55l2.74.58V59h-10.9V55.6l2.44-.58V45.84a4.29,4.29,0,0,0-.86-3,3.47,3.47,0,0,0-2.6-.89,4.36,4.36,0,0,0-2,.46,4.17,4.17,0,0,0-1.5,1.3V55l2.3.58V59H870.24Z"/><path d="M904.36,32.71v5.18h3.71v4h-3.71V52.65a2.48,2.48,0,0,0,.51,1.76,1.81,1.81,0,0,0,1.37.53,9.93,9.93,0,0,0,1,0,9.38,9.38,0,0,0,1-.17l.49,4.13a14.86,14.86,0,0,1-1.9.44,14.17,14.17,0,0,1-2,.14,6.07,6.07,0,0,1-4.54-1.62q-1.59-1.62-1.59-5.14V41.89h-3.11v-4h3.11V32.71Z"/><path d="M921.18,47.46a26.41,26.41,0,0,1,3-13q3-5.34,6.72-6.92H931l1,2.85a14.16,14.16,0,0,0-4.3,6.17A29,29,0,0,0,926,47.42v.51a29,29,0,0,0,1.74,10.87A14.66,14.66,0,0,0,932,65l-1,2.79h-.11q-3.75-1.57-6.72-6.91a26.4,26.4,0,0,1-3-13Z"/><path d="M933.62,55.6l2-.29,8.65-24.73h5.84l8.6,24.73,2,.29V59h-9.69V55.6l2-.35-1.25-3.9h-9.22l-1.25,3.9,2,.35V59h-9.69Zm10.31-8.45h6.53l-3.21-10h-.12Z"/><path d="M970.34,54.65h5.9l.23-2.82h4.36V59H963.27V55.66L973.33,42.3h-5.18l-.21,2.8h-4.38V37.89h16.91v3.26Z"/><path d="M998.46,56.35A6.92,6.92,0,0,1,996,58.63a7.12,7.12,0,0,1-3.41.8,6.61,6.61,0,0,1-5.23-2.14q-1.89-2.13-1.89-6.65V41.91l-2.33-.58V37.89h8V50.68a5.54,5.54,0,0,0,.77,3.31,2.73,2.73,0,0,0,2.3,1,5.76,5.76,0,0,0,2.33-.44,4,4,0,0,0,1.61-1.26V41.91l-2.5-.58V37.89h8.2V55l2.56.58V59h-7.56Z"/><path d="M1009.07,55.6l2.73-.58V41.91l-3-.58V37.89h8.34l.25,3.08a6.59,6.59,0,0,1,1.91-2.55,4.24,4.24,0,0,1,2.72-.92,6.45,6.45,0,0,1,1,.07,6.14,6.14,0,0,1,.83.16l-.61,5.2-2.34-.06a3.92,3.92,0,0,0-2.07.49,3.1,3.1,0,0,0-1.25,1.38V55l2.73.58V59h-11.17Z"/><path d="M1035.22,59.43a9.47,9.47,0,0,1-7.3-2.93,10.44,10.44,0,0,1-2.74-7.44v-.78a11.52,11.52,0,0,1,2.59-7.75,9.64,9.64,0,0,1,13.58-.45,9.88,9.88,0,0,1,2.37,7v3.1H1031.1l0,.12a5.53,5.53,0,0,0,1.4,3.44,4.34,4.34,0,0,0,3.37,1.35,11.08,11.08,0,0,0,3.14-.38,14.88,14.88,0,0,0,2.74-1.21l1.54,3.52a11.2,11.2,0,0,1-3.39,1.74A14.4,14.4,0,0,1,1035.22,59.43Zm-.51-17.54a3,3,0,0,0-2.5,1.21,6.31,6.31,0,0,0-1.13,3.19l.06.09h7v-.5a4.55,4.55,0,0,0-.85-2.9A3,3,0,0,0,1034.71,41.89Z"/><path d="M1055.79,55.6l2-.29,8.65-24.73h5.84l8.59,24.73,2,.29V59h-9.69V55.6l2-.35-1.25-3.9h-9.22l-1.25,3.9,2,.35V59h-9.68Zm10.31-8.45h6.52l-3.2-10h-.12Z"/><path d="M1084.81,55.6l3-.58V34.61l-3-.59V30.58h11.62V34l-2.89.59v7.6H1096l5.47-8-1.68-.24V30.58h11.27V34l-3.09.53-7,9.33,7.85,11.24,2.86.48V59h-11.27V55.6l1.75-.23-5.47-8.22h-3.18V55l2.89.58V59h-11.62Z"/><path d="M1135,39.67h-4.28l-.74-3.91a7.59,7.59,0,0,0-2.17-.82,12.84,12.84,0,0,0-3-.35,5.86,5.86,0,0,0-3.62,1,3.09,3.09,0,0,0-1.28,2.55,2.78,2.78,0,0,0,1.34,2.38,18.39,18.39,0,0,0,4.62,2,17.89,17.89,0,0,1,7.13,3.46,7.14,7.14,0,0,1,2.44,5.64,6.75,6.75,0,0,1-2.89,5.76,12.62,12.62,0,0,1-7.62,2.11,16.7,16.7,0,0,1-6.11-1.07,12.71,12.71,0,0,1-4.54-3V49.45h4.42l.6,4a7,7,0,0,0,2.34,1.17,11.22,11.22,0,0,0,3.29.46,5.66,5.66,0,0,0,3.56-1,3.07,3.07,0,0,0,1.22-2.56,3.3,3.3,0,0,0-1.16-2.64,11.67,11.67,0,0,0-4.07-1.87,23.31,23.31,0,0,1-7.66-3.48,6.59,6.59,0,0,1-2.59-5.51,6.76,6.76,0,0,1,2.92-5.65,12.21,12.21,0,0,1,7.37-2.26,17.15,17.15,0,0,1,6,1,13.75,13.75,0,0,1,4.54,2.66Z"/><path d="M1144.38,58.26a9.39,9.39,0,0,1-1.12,4.22,12,12,0,0,1-2.75,3.65l-2.81-1.52a12.94,12.94,0,0,0,1.17-2.82,11.83,11.83,0,0,0,.41-3.26V54.28h5.12Z"/><path d="M1157.29,55.6l3-.58V34.61l-3-.59V30.58h11.62V34l-2.89.59v7.6h2.48l5.47-8-1.68-.24V30.58h11.27V34l-3.09.53-7,9.33,7.85,11.24,2.86.48V59h-11.27V55.6l1.75-.23-5.46-8.22H1166V55l2.89.58V59h-11.62Z"/><path d="M1200.36,56.35a6.87,6.87,0,0,1-5.92,3.08,6.6,6.6,0,0,1-5.23-2.14q-1.9-2.13-1.9-6.65V41.91l-2.32-.58V37.89h8V50.68a5.46,5.46,0,0,0,.78,3.31,2.7,2.7,0,0,0,2.29,1,5.7,5.7,0,0,0,2.33-.44A4,4,0,0,0,1200,53.3V41.91l-2.5-.58V37.89h8.2V55l2.56.58V59h-7.56Z"/><path d="M1231,49a12.35,12.35,0,0,1-2.11,7.56,7.11,7.11,0,0,1-6.09,2.83,6.47,6.47,0,0,1-3.22-.77,6.58,6.58,0,0,1-2.31-2.24l-.41,2.6h-4.92V32.58l-3-.59V28.55h8.71V40.13a6.67,6.67,0,0,1,2.2-2,6.19,6.19,0,0,1,2.94-.68,7,7,0,0,1,6.13,3,13.89,13.89,0,0,1,2.11,8.09Zm-5.68-.41a10.91,10.91,0,0,0-.91-4.89,3.18,3.18,0,0,0-3.09-1.81,4.27,4.27,0,0,0-2.25.56,3.93,3.93,0,0,0-1.45,1.59V53a3.65,3.65,0,0,0,1.46,1.48,4.67,4.67,0,0,0,2.27.51,3.25,3.25,0,0,0,3.09-1.55,9,9,0,0,0,.88-4.41Z"/><path d="M1243.72,59.43a9.51,9.51,0,0,1-7.31-2.93,10.47,10.47,0,0,1-2.73-7.44v-.78a11.52,11.52,0,0,1,2.59-7.75,9.64,9.64,0,0,1,13.58-.45,9.92,9.92,0,0,1,2.36,7v3.1H1239.6l0,.12a5.52,5.52,0,0,0,1.39,3.44,4.36,4.36,0,0,0,3.37,1.35,11.2,11.2,0,0,0,3.15-.38,14.81,14.81,0,0,0,2.73-1.21l1.54,3.52a11.26,11.26,0,0,1-3.38,1.74A14.44,14.44,0,0,1,1243.72,59.43Zm-.51-17.54a3,3,0,0,0-2.5,1.21,6.31,6.31,0,0,0-1.13,3.19l.05.09h7v-.5a4.61,4.61,0,0,0-.85-2.9A3.06,3.06,0,0,0,1243.21,41.89Z"/><path d="M1255.34,55.6l2.73-.58V41.91l-3-.58V37.89h8.34l.26,3.08a6.59,6.59,0,0,1,1.91-2.55,4.24,4.24,0,0,1,2.72-.92,6.22,6.22,0,0,1,.94.07,5.57,5.57,0,0,1,.83.16l-.6,5.2-2.34-.06a3.92,3.92,0,0,0-2.07.49,3.1,3.1,0,0,0-1.25,1.38V55l2.73.58V59h-11.17Z"/><path d="M1271.43,55.6l2.74-.58V41.91l-3-.58V37.89h8.34l.25,3a7.81,7.81,0,0,1,2.6-2.52,6.74,6.74,0,0,1,3.46-.9,6.37,6.37,0,0,1,5,2c1.2,1.34,1.79,3.44,1.79,6.31V55l2.74.58V59h-10.9V55.6l2.44-.58V45.84a4.24,4.24,0,0,0-.86-3,3.47,3.47,0,0,0-2.6-.89,4.36,4.36,0,0,0-2,.46,4.17,4.17,0,0,0-1.5,1.3V55l2.3.58V59h-10.74Z"/><path d="M1307.06,59.43a9.51,9.51,0,0,1-7.31-2.93,10.47,10.47,0,0,1-2.73-7.44v-.78a11.52,11.52,0,0,1,2.59-7.75,9.64,9.64,0,0,1,13.58-.45,9.92,9.92,0,0,1,2.36,7v3.1h-12.61l0,.12a5.52,5.52,0,0,0,1.39,3.44,4.36,4.36,0,0,0,3.37,1.35,11.2,11.2,0,0,0,3.15-.38,14.81,14.81,0,0,0,2.73-1.21l1.54,3.52a11.26,11.26,0,0,1-3.38,1.74A14.44,14.44,0,0,1,1307.06,59.43Zm-.51-17.54a3,3,0,0,0-2.5,1.21,6.31,6.31,0,0,0-1.13,3.19l0,.09h7v-.5a4.61,4.61,0,0,0-.85-2.9A3.06,3.06,0,0,0,1306.55,41.89Z"/><path d="M1326.67,32.71v5.18h3.71v4h-3.71V52.65a2.49,2.49,0,0,0,.5,1.76,1.83,1.83,0,0,0,1.37.53,10.29,10.29,0,0,0,1,0,8.82,8.82,0,0,0,1-.17l.49,4.13a15.11,15.11,0,0,1-1.89.44,14.38,14.38,0,0,1-2,.14,6.11,6.11,0,0,1-4.55-1.62q-1.59-1.62-1.59-5.14V41.89h-3.1v-4h3.1V32.71Z"/><path d="M1343.29,59.43A9.51,9.51,0,0,1,1336,56.5a10.47,10.47,0,0,1-2.73-7.44v-.78a11.52,11.52,0,0,1,2.59-7.75,9.64,9.64,0,0,1,13.58-.45,9.88,9.88,0,0,1,2.36,7v3.1h-12.61l0,.12a5.52,5.52,0,0,0,1.39,3.44,4.36,4.36,0,0,0,3.37,1.35,11.16,11.16,0,0,0,3.15-.38,14.81,14.81,0,0,0,2.73-1.21l1.54,3.52a11.26,11.26,0,0,1-3.38,1.74A14.44,14.44,0,0,1,1343.29,59.43Zm-.51-17.54a3,3,0,0,0-2.5,1.21,6.31,6.31,0,0,0-1.13,3.19l.06.09h7v-.5a4.61,4.61,0,0,0-.85-2.9A3.06,3.06,0,0,0,1342.78,41.89Z"/><path d="M1371.72,45.15h-3.82l-.61-2.63a5.09,5.09,0,0,0-1.47-.78,5.9,5.9,0,0,0-2-.32,3.82,3.82,0,0,0-2.38.68,2,2,0,0,0-.88,1.69,1.91,1.91,0,0,0,.84,1.59,9,9,0,0,0,3.36,1.12,13.62,13.62,0,0,1,5.82,2.3,5.06,5.06,0,0,1,1.9,4.17,5.52,5.52,0,0,1-2.46,4.65,10.56,10.56,0,0,1-6.45,1.81,13.62,13.62,0,0,1-4.48-.71,11.75,11.75,0,0,1-3.63-2l0-4.75h4l.78,2.76a3.39,3.39,0,0,0,1.39.63,7.84,7.84,0,0,0,1.83.21,4.65,4.65,0,0,0,2.65-.63,2,2,0,0,0,.91-1.7,2,2,0,0,0-.92-1.62,9.26,9.26,0,0,0-3.38-1.21,13.48,13.48,0,0,1-5.63-2.26,4.89,4.89,0,0,1-1.91-4.07,5.9,5.9,0,0,1,2.19-4.58,9.16,9.16,0,0,1,6.23-1.92,16.15,16.15,0,0,1,4.66.66,9.92,9.92,0,0,1,3.45,1.7Z"/><path d="M1386.16,47.89a25.74,25.74,0,0,1-3.09,12.92q-3.09,5.43-6.87,7h-.12L1375,65a14.48,14.48,0,0,0,4.27-6.19,29,29,0,0,0,1.76-10.9v-.51a28.56,28.56,0,0,0-1.78-10.87,15,15,0,0,0-4.25-6.24l1-2.77h.12q3.78,1.56,6.87,7a25.75,25.75,0,0,1,3.09,12.91Z"/><path class="cls-8" d="M1348.32,121a26.8,26.8,0,1,1-8,19.1,26.21,26.21,0,0,1,5.5-16.2"/><path class="cls-9" d="M1366.42,153.13h-9.7c-1.3,0-1.8-.5-1.8-1.8v-14.8c0-1.3.5-1.8,1.8-1.8H1376c1.3,0,1.8.5,1.8,1.8v14.8c0,1.3-.5,1.8-1.8,1.8C1372.82,153.23,1369.62,153.13,1366.42,153.13Z"/><path class="cls-9" d="M1356.52,135.43c.3-4.1,2-7.7,6-9.5a9.53,9.53,0,0,1,12.6,4.9c.2.5.4,1.1.6,1.6.2.9.3,1.8.5,2.7"/><path class="cls-10" d="M1364.82,146.83h0v2c0,.4.1.5.6.5h1.9c.5,0,.7-.1.7-.6V145a1.05,1.05,0,0,1,.5-.9,2.78,2.78,0,0,0,1.4-3.3,3.61,3.61,0,0,0-3.3-2.2,4,4,0,0,0-3.7,2,2.81,2.81,0,0,0,1.3,3.5,1,1,0,0,1,.6,1.1Z"/></svg>