<svg id="Ebene_1" data-name="Ebene 1" xmlns="http://www.w3.org/2000/svg" xmlns:xlink="http://www.w3.org/1999/xlink" viewBox="0 0 2750 337"><defs><style>.cls-1,.cls-2,.cls-3{fill:none;}.cls-12,.cls-14,.cls-16,.cls-2,.cls-3,.cls-5,.cls-6{stroke:#fc0;}.cls-12,.cls-14,.cls-16,.cls-2,.cls-5,.cls-6{stroke-miterlimit:10;stroke-width:8px;}.cls-3{stroke-linecap:round;stroke-linejoin:round;stroke-width:6px;}.cls-4{fill:#fc0;}.cls-5{fill:url(#Unbenannter_Verlauf_5);}.cls-6{fill:url(#Unbenannter_Verlauf_5-2);}.cls-7{fill:#fff;}.cls-8{fill:#306;}.cls-9{clip-path:url(#clip-path);}.cls-10{fill:#ffd138;}.cls-11{fill:#fdfeff;}.cls-12{fill:url(#Unbenannter_Verlauf_5-3);}.cls-13{clip-path:url(#clip-path-3);}.cls-14{fill:url(#Unbenannter_Verlauf_5-4);}.cls-15{clip-path:url(#clip-path-5);}.cls-16{fill:url(#Unbenannter_Verlauf_5-5);}.cls-17{clip-path:url(#clip-path-7);}</style><linearGradient id="Unbenannter_Verlauf_5" x1="512.24" y1="204.5" x2="875.59" y2="204.5" gradientUnits="userSpaceOnUse"><stop offset="0" stop-color="#906"/><stop offset="0.19" stop-color="#780066"/><stop offset="0.4" stop-color="#5a0066"/><stop offset="0.61" stop-color="#406"/><stop offset="0.81" stop-color="#370066"/><stop offset="1" stop-color="#306"/></linearGradient><linearGradient id="Unbenannter_Verlauf_5-2" x1="64.24" x2="427.59" xlink:href="#Unbenannter_Verlauf_5"/><clipPath id="clip-path"><rect class="cls-1" x="607" y="168" width="166.6" height="32.63"/></clipPath><linearGradient id="Unbenannter_Verlauf_5-3" x1="960.66" x2="1324.02" xlink:href="#Unbenannter_Verlauf_5"/><clipPath id="clip-path-3"><rect class="cls-1" x="1014" y="208" width="166.6" height="32.63"/></clipPath><linearGradient id="Unbenannter_Verlauf_5-4" x1="1869.66" x2="2233.02" xlink:href="#Unbenannter_Verlauf_5"/><clipPath id="clip-path-5"><rect class="cls-1" x="1923" y="165" width="166.6" height="32.63"/></clipPath><linearGradient id="Unbenannter_Verlauf_5-5" x1="2321.66" x2="2685.02" xlink:href="#Unbenannter_Verlauf_5"/><clipPath id="clip-path-7"><rect class="cls-1" x="2375" y="165" width="166.6" height="32.63"/></clipPath></defs><rect class="cls-2" x="1410.22" y="130" width="363.36" height="149" rx="8"/><line class="cls-3" x1="1341.53" y1="211.62" x2="1385.73" y2="211.62"/><polygon class="cls-4" points="1371.81 228.8 1368.95 225.72 1384.12 211.63 1368.95 197.53 1371.81 194.45 1390.28 211.63 1371.81 228.8"/><line class="cls-3" x1="1800.53" y1="211.62" x2="1844.73" y2="211.62"/><polygon class="cls-4" points="1830.81 228.8 1827.95 225.72 1843.12 211.63 1827.95 197.53 1830.81 194.45 1849.28 211.63 1830.81 228.8"/><rect class="cls-5" x="512.24" y="130" width="363.36" height="149" rx="8"/><line class="cls-3" x1="893.53" y1="211.62" x2="937.73" y2="211.62"/><polygon class="cls-4" points="923.81 228.8 920.95 225.72 936.12 211.63 920.95 197.53 923.81 194.45 942.28 211.63 923.81 228.8"/><rect class="cls-6" x="64.24" y="130" width="363.36" height="149" rx="8"/><path class="cls-7" d="M201.29,188.78h-3l-.47-1.94a4.19,4.19,0,0,0-1.16-.58,5,5,0,0,0-1.54-.22,3.16,3.16,0,0,0-1.87.49,1.49,1.49,0,0,0-.69,1.24,1.39,1.39,0,0,0,.66,1.17,7.41,7.41,0,0,0,2.64.83,11,11,0,0,1,4.56,1.69,3.59,3.59,0,0,1,1.49,3.06A4,4,0,0,1,200,198a8.79,8.79,0,0,1-5.07,1.33,11.19,11.19,0,0,1-3.51-.53,9.23,9.23,0,0,1-2.85-1.5l0-3.49h3.12l.62,2a2.62,2.62,0,0,0,1.09.46,6.63,6.63,0,0,0,1.44.15,3.8,3.8,0,0,0,2.07-.46,1.39,1.39,0,0,0,.71-1.24,1.46,1.46,0,0,0-.72-1.2,7.78,7.78,0,0,0-2.65-.89,10.89,10.89,0,0,1-4.42-1.66,3.52,3.52,0,0,1-1.49-3,4.25,4.25,0,0,1,1.72-3.37,7.49,7.49,0,0,1,4.88-1.41,13.21,13.21,0,0,1,3.66.49,7.72,7.72,0,0,1,2.7,1.25Z"/><path class="cls-7" d="M211.69,196.06a2.77,2.77,0,0,0,1.92-.65,2.26,2.26,0,0,0,.72-1.75h4l0,.09a4.72,4.72,0,0,1-1.89,3.94,8.35,8.35,0,0,1-10.55-.61,8.06,8.06,0,0,1-2-5.65V191a8,8,0,0,1,2.06-5.64,7.65,7.65,0,0,1,5.88-2.21,10.71,10.71,0,0,1,3.6.56,7.2,7.2,0,0,1,2.65,1.58l.06,4.15h-3.63l-.74-2.43a2.84,2.84,0,0,0-.83-.45,3.19,3.19,0,0,0-1.11-.18,2.9,2.9,0,0,0-2.69,1.29,6.36,6.36,0,0,0-.78,3.33v.43a6.81,6.81,0,0,0,.72,3.36A2.66,2.66,0,0,0,211.69,196.06Z"/><path class="cls-7" d="M220.44,191.06a8,8,0,0,1,2.08-5.69,8.56,8.56,0,0,1,11.49,0,8,8,0,0,1,2.08,5.7v.3a8,8,0,0,1-2.08,5.71,8.57,8.57,0,0,1-11.49,0,8,8,0,0,1-2.08-5.71Zm4.48.3a6.4,6.4,0,0,0,.79,3.41,2.8,2.8,0,0,0,2.58,1.29,2.76,2.76,0,0,0,2.53-1.29,6.35,6.35,0,0,0,.81-3.41v-.3a6.21,6.21,0,0,0-.82-3.37,3.14,3.14,0,0,0-5.1,0,6.39,6.39,0,0,0-.79,3.37Z"/><path class="cls-7" d="M237.79,196.46l2.14-.43v-9.64l-2.37-.43v-2.52h6.54l.2,2.22a5.91,5.91,0,0,1,2-1.85,5.55,5.55,0,0,1,2.71-.66,5.15,5.15,0,0,1,3.92,1.48,6.52,6.52,0,0,1,1.41,4.64V196l2.15.43V199H248v-2.51l1.91-.43v-6.75a3,3,0,0,0-.67-2.22,2.85,2.85,0,0,0-2-.65,3.57,3.57,0,0,0-1.59.34,3.13,3.13,0,0,0-1.18.95V196l1.8.43V199h-8.42Z"/><path class="cls-7" d="M257.81,196.46,260,196v-9.64l-2.39-.43v-2.52h6.87V196l2.14.43V199h-8.78Zm6.64-16.74H260v-3.15h4.48Z"/><path class="cls-7" d="M268.31,196.46l2.16-.43v-9.65H268v-2.94h2.47v-1.73a5.11,5.11,0,0,1,1.61-4,6.63,6.63,0,0,1,4.52-1.41,9,9,0,0,1,1.15.08c.4.05.83.13,1.3.22l-.38,3.12-.72-.1a6.1,6.1,0,0,0-.8-.05,2.26,2.26,0,0,0-1.65.56,2.2,2.2,0,0,0-.56,1.61v1.73h3.3v2.94h-3.3V196l2.16.43V199h-8.79Z"/><path class="cls-7" d="M296.9,186l-1.55.22-6.1,15.12a8.39,8.39,0,0,1-1.92,2.82,5.13,5.13,0,0,1-3.62,1.13,6,6,0,0,1-1.07-.09q-.5-.07-1.17-.24l.52-3.06.45.06.39,0a2.58,2.58,0,0,0,1.72-.51,3.36,3.36,0,0,0,.92-1.27L286,199l-5.26-12.8-1.55-.23v-2.52h8.12V186l-1.85.29,2.27,6.21.23,1.12H288l2.62-7.34-1.87-.29v-2.52h8.12Z"/><path class="cls-7" d="M194.15,231.75l2.16-.43v-9.63l-2.39-.43v-2.53h6.86v12.59l2.15.43v2.52h-8.78ZM200.78,215h-4.47v-3.14h4.47Z"/><path class="cls-7" d="M203.88,221.26v-2.53h6.54l.18,2.05a5.55,5.55,0,0,1,2-1.73,6.18,6.18,0,0,1,2.78-.61,5.31,5.31,0,0,1,2.73.66,4.15,4.15,0,0,1,1.72,2,5.55,5.55,0,0,1,2-1.95,5.69,5.69,0,0,1,2.88-.71,4.94,4.94,0,0,1,3.87,1.59,7.11,7.11,0,0,1,1.42,4.83v6.46l2.16.43v2.52h-8.57v-2.52l1.93-.43v-6.47a3.74,3.74,0,0,0-.61-2.46,2.32,2.32,0,0,0-1.82-.69,3.2,3.2,0,0,0-1.65.4,2.86,2.86,0,0,0-1.11,1.1c0,.18,0,.33,0,.46s0,.26,0,.4v7.26l1.81.43v2.52h-8.08v-2.52l1.81-.43v-6.47a3.77,3.77,0,0,0-.61-2.44,2.31,2.31,0,0,0-1.84-.71,3.64,3.64,0,0,0-1.59.33,2.84,2.84,0,0,0-1.12.91v8.38l1.93.43v2.52h-8.55v-2.52l2.16-.43v-9.63Z"/><path class="cls-7" d="M244.15,234.27a7.92,7.92,0,0,1-.33-.8,6.17,6.17,0,0,1-.21-.82,6.29,6.29,0,0,1-1.94,1.39,6.18,6.18,0,0,1-2.61.53,5.68,5.68,0,0,1-3.87-1.24,4.23,4.23,0,0,1-1.43-3.38,3.78,3.78,0,0,1,1.87-3.38,10.3,10.3,0,0,1,5.48-1.19h2.28v-1.52a2.24,2.24,0,0,0-.68-1.74,3,3,0,0,0-2-.62,5.19,5.19,0,0,0-1.37.17,3.66,3.66,0,0,0-1,.39l-.29,1.67h-3.37v-3.45A13.26,13.26,0,0,1,237.5,219a11,11,0,0,1,3.46-.53,8.18,8.18,0,0,1,5,1.42,4.7,4.7,0,0,1,1.92,4v6.41c0,.24,0,.47,0,.68a3.81,3.81,0,0,0,.06.6l1.36.17v2.52Zm-3.88-2.8a4.14,4.14,0,0,0,1.84-.41,3.43,3.43,0,0,0,1.28-1v-2.37h-2.28a3.24,3.24,0,0,0-2.16.63,1.88,1.88,0,0,0-.73,1.5,1.5,1.5,0,0,0,.54,1.23A2.3,2.3,0,0,0,240.27,231.47Z"/><path class="cls-7" d="M251.1,226.63a9.55,9.55,0,0,1,1.71-5.93,5.64,5.64,0,0,1,4.79-2.26,5.07,5.07,0,0,1,2.45.58,5.38,5.38,0,0,1,1.81,1.66l.32-2h3.89v15.08a6.23,6.23,0,0,1-2.06,4.9,8.22,8.22,0,0,1-5.66,1.83,11.7,11.7,0,0,1-2.67-.32,12.82,12.82,0,0,1-2.6-.88l.83-3a14.77,14.77,0,0,0,2.14.69,10.39,10.39,0,0,0,2.27.25,3.05,3.05,0,0,0,2.45-.94,3.82,3.82,0,0,0,.81-2.6v-1a5.06,5.06,0,0,1-1.73,1.33,5.31,5.31,0,0,1-2.28.46,5.79,5.79,0,0,1-4.76-2.1,8.53,8.53,0,0,1-1.71-5.54Zm4.48.3a6,6,0,0,0,.73,3.21,2.61,2.61,0,0,0,2.39,1.17,3.94,3.94,0,0,0,1.74-.35,2.77,2.77,0,0,0,1.14-1v-6.75a2.91,2.91,0,0,0-1.14-1.09,3.49,3.49,0,0,0-1.71-.39,2.56,2.56,0,0,0-2.4,1.37,7.35,7.35,0,0,0-.75,3.56Z"/><path class="cls-7" d="M276.69,234.57a7.75,7.75,0,0,1-5.73-2.15,7.45,7.45,0,0,1-2.15-5.48v-.57a8.17,8.17,0,0,1,2-5.7,7.06,7.06,0,0,1,12.52,4.79v2.29h-9.9l0,.08a3.9,3.9,0,0,0,1.09,2.53,3.55,3.55,0,0,0,2.65,1,9,9,0,0,0,2.46-.28,11.36,11.36,0,0,0,2.15-.88l1.21,2.59a9.15,9.15,0,0,1-2.66,1.27A11.86,11.86,0,0,1,276.69,234.57Zm-.4-12.9a2.39,2.39,0,0,0-2,.89,4.48,4.48,0,0,0-.89,2.35l.05.07H279v-.38a3.23,3.23,0,0,0-.66-2.13A2.5,2.5,0,0,0,276.29,221.67Z"/><path class="cls-7" d="M289.65,220.4,285,219.12l.87-2.54,4.55,1.76-.28-5h2.89l-.31,5.07,4.46-1.72.86,2.58-4.69,1.28,3.06,3.8L294.13,226l-2.68-4.16-2.65,4-2.33-1.52Z"/><line class="cls-3" x1="445.53" y1="211.62" x2="489.73" y2="211.62"/><polygon class="cls-4" points="475.81 228.8 472.95 225.72 488.12 211.63 472.95 197.53 475.81 194.45 494.28 211.63 475.81 228.8"/><path d="M1240.24,55.86a12.69,12.69,0,0,1-4,2.47,17.74,17.74,0,0,1-6.72,1.1,12.23,12.23,0,0,1-9.37-3.86,14.07,14.07,0,0,1-3.62-10v-1a15,15,0,0,1,3.57-10.39,11.87,11.87,0,0,1,9.31-4,16.84,16.84,0,0,1,6.1,1.07,13.26,13.26,0,0,1,4.6,2.88v5.72h-4.22l-.8-3.81A6,6,0,0,0,1233,35a9.72,9.72,0,0,0-2.94-.4,6.85,6.85,0,0,0-5.8,2.75,11.7,11.7,0,0,0-2.07,7.21v1a10.88,10.88,0,0,0,2,6.93,7,7,0,0,0,5.86,2.59,10.56,10.56,0,0,0,2.78-.3,5.93,5.93,0,0,0,1.67-.68V49.26l-4.06-.32v-4h9.78Z"/><path d="M1253.35,59.43A9.51,9.51,0,0,1,1246,56.5a10.47,10.47,0,0,1-2.73-7.44v-.78a11.52,11.52,0,0,1,2.59-7.75,9.64,9.64,0,0,1,13.58-.45,9.88,9.88,0,0,1,2.37,7v3.1h-12.62l0,.12a5.47,5.47,0,0,0,1.4,3.44,4.34,4.34,0,0,0,3.37,1.35,11.08,11.08,0,0,0,3.14-.38,14.81,14.81,0,0,0,2.73-1.21l1.55,3.52a11.32,11.32,0,0,1-3.39,1.74A14.4,14.4,0,0,1,1253.35,59.43Zm-.51-17.54a3,3,0,0,0-2.5,1.21,6.31,6.31,0,0,0-1.13,3.19l.06.09h7v-.5a4.55,4.55,0,0,0-.85-2.9A3,3,0,0,0,1252.84,41.89Z"/><path d="M1264.23,55.6,1267,55V41.91l-3-.58V37.89h8.34l.25,3a7.71,7.71,0,0,1,2.6-2.52,6.73,6.73,0,0,1,3.45-.9,6.34,6.34,0,0,1,5,2q1.8,2,1.8,6.31V55l2.74.58V59h-10.9V55.6l2.44-.58V45.84a4.29,4.29,0,0,0-.86-3,3.47,3.47,0,0,0-2.6-.89,4.36,4.36,0,0,0-2,.46,4.17,4.17,0,0,0-1.5,1.3V55l2.3.58V59h-10.74Z"/><path d="M1299.85,59.43a9.49,9.49,0,0,1-7.3-2.93,10.48,10.48,0,0,1-2.74-7.44v-.78a11.57,11.57,0,0,1,2.59-7.75,9.65,9.65,0,0,1,13.59-.45,9.92,9.92,0,0,1,2.36,7v3.1h-12.62l0,.12a5.53,5.53,0,0,0,1.4,3.44,4.36,4.36,0,0,0,3.37,1.35,11.08,11.08,0,0,0,3.14-.38,14.59,14.59,0,0,0,2.74-1.21l1.54,3.52a11.2,11.2,0,0,1-3.39,1.74A14.35,14.35,0,0,1,1299.85,59.43Zm-.5-17.54a3,3,0,0,0-2.5,1.21,6.31,6.31,0,0,0-1.14,3.19l.06.09h7v-.5a4.55,4.55,0,0,0-.85-2.9A3,3,0,0,0,1299.35,41.89Z"/><path d="M1311.47,55.6l2.74-.58V41.91l-3-.58V37.89h8.34l.26,3.08a6.59,6.59,0,0,1,1.91-2.55,4.23,4.23,0,0,1,2.71-.92,6.35,6.35,0,0,1,.95.07,5.84,5.84,0,0,1,.83.16l-.6,5.2-2.35-.06a4,4,0,0,0-2.07.49,3.22,3.22,0,0,0-1.25,1.38V55l2.74.58V59h-11.18Z"/><path d="M1341,59a8.27,8.27,0,0,1-.41-1.08,8.88,8.88,0,0,1-.28-1.13,7.63,7.63,0,0,1-2.47,1.9,7.41,7.41,0,0,1-3.33.72,7,7,0,0,1-4.93-1.69,5.94,5.94,0,0,1-1.82-4.6,5.22,5.22,0,0,1,2.38-4.59q2.39-1.62,7-1.62H1340V44.86a3.1,3.1,0,0,0-.88-2.36,3.61,3.61,0,0,0-2.6-.84,6.06,6.06,0,0,0-1.73.22,4.65,4.65,0,0,0-1.24.54l-.37,2.27h-4.29l0-4.69a15.54,15.54,0,0,1,3.58-1.78,13.06,13.06,0,0,1,4.4-.72,10,10,0,0,1,6.38,1.92,6.55,6.55,0,0,1,2.45,5.48v8.73c0,.33,0,.63,0,.92a7,7,0,0,0,.07.82l1.74.23V59ZM1336,55.21a4.93,4.93,0,0,0,2.34-.55,4.54,4.54,0,0,0,1.64-1.4V50h-2.91a3.94,3.94,0,0,0-2.75.85,2.63,2.63,0,0,0-.94,2,2.14,2.14,0,0,0,.69,1.68A2.86,2.86,0,0,0,1336,55.21Z"/><path d="M1356.32,32.71v5.18H1360v4h-3.71V52.65a2.48,2.48,0,0,0,.51,1.76,1.79,1.79,0,0,0,1.36.53,10.14,10.14,0,0,0,1,0,9.38,9.38,0,0,0,1-.17l.48,4.13a14.71,14.71,0,0,1-1.89.44,14.28,14.28,0,0,1-2,.14,6.07,6.07,0,0,1-4.54-1.62c-1.06-1.08-1.6-2.79-1.6-5.14V41.89h-3.1v-4h3.1V32.71Z"/><path d="M1372.94,59.43a9.51,9.51,0,0,1-7.31-2.93,10.47,10.47,0,0,1-2.73-7.44v-.78a11.52,11.52,0,0,1,2.59-7.75,9.64,9.64,0,0,1,13.58-.45,9.88,9.88,0,0,1,2.37,7v3.1h-12.62l0,.12a5.47,5.47,0,0,0,1.4,3.44,4.33,4.33,0,0,0,3.36,1.35,11.11,11.11,0,0,0,3.15-.38,14.81,14.81,0,0,0,2.73-1.21L1381,57a11.44,11.44,0,0,1-3.39,1.74A14.4,14.4,0,0,1,1372.94,59.43Zm-.51-17.54a3,3,0,0,0-2.5,1.21,6.31,6.31,0,0,0-1.13,3.19l.06.09h7v-.5A4.55,4.55,0,0,0,1375,43,3,3,0,0,0,1372.43,41.89Z"/><path d="M1397.88,56.44a7,7,0,0,1-2.35,2.23,6.22,6.22,0,0,1-3.1.76,7.17,7.17,0,0,1-6.06-2.85,12.16,12.16,0,0,1-2.16-7.54v-.41a13.68,13.68,0,0,1,2.17-8.07,7,7,0,0,1,6.09-3.06,5.84,5.84,0,0,1,2.85.69,7,7,0,0,1,2.23,2V32.58l-3-.59V28.55h8.75V55l2.74.58V59h-7.68Zm-8-7.4a8.68,8.68,0,0,0,.93,4.37,3.24,3.24,0,0,0,3,1.59,4.37,4.37,0,0,0,2.16-.51,4.06,4.06,0,0,0,1.51-1.46v-9a4.28,4.28,0,0,0-1.5-1.57,4,4,0,0,0-2.13-.56,3.2,3.2,0,0,0-3.05,1.86,10.52,10.52,0,0,0-1,4.84Z"/><path d="M1431,30.58a11.19,11.19,0,0,1,7.7,2.51,8.4,8.4,0,0,1,2.82,6.58,8.3,8.3,0,0,1-2.82,6.56,11.28,11.28,0,0,1-7.7,2.48h-4.81V55l3,.58V59h-11.78V55.6l3-.58V34.61l-3-.59V30.58H1431Zm-4.81,13.73H1431a4.73,4.73,0,0,0,3.6-1.29,4.66,4.66,0,0,0,1.22-3.31,4.85,4.85,0,0,0-1.22-3.39A4.61,4.61,0,0,0,1431,35h-4.81Z"/><path d="M1443.23,48.26a11.28,11.28,0,0,1,2.65-7.74,10.41,10.41,0,0,1,14.65,0,11.31,11.31,0,0,1,2.64,7.75v.41a11.29,11.29,0,0,1-2.64,7.76,10.44,10.44,0,0,1-14.65,0,11.24,11.24,0,0,1-2.65-7.76Zm5.71.41a9.18,9.18,0,0,0,1,4.64,3.52,3.52,0,0,0,3.28,1.75,3.47,3.47,0,0,0,3.23-1.76,9.07,9.07,0,0,0,1-4.63v-.41a9,9,0,0,0-1-4.59,3.53,3.53,0,0,0-3.27-1.78,3.47,3.47,0,0,0-3.24,1.78,9.15,9.15,0,0,0-1,4.59Z"/><path d="M1464.66,32V28.55h8.75V55l2.75.58V59H1465V55.6l2.76-.58V32.58Z"/><path d="M1477.84,55.6l2.76-.58V41.91l-3-.58V37.89h8.75V55l2.73.58V59h-11.19Zm8.46-22.77h-5.7V28.55h5.7Z"/><path d="M1500.83,55.06a3.36,3.36,0,0,0,2.44-.89,3.16,3.16,0,0,0,.92-2.38h5.16l.05.12a6.54,6.54,0,0,1-2.4,5.36,10.16,10.16,0,0,1-13.46-.83,11.4,11.4,0,0,1-2.55-7.67v-.59a11.23,11.23,0,0,1,2.62-7.67q2.63-3,7.49-3a12.92,12.92,0,0,1,4.59.76,9,9,0,0,1,3.38,2.15l.08,5.64h-4.63l-.94-3.3a3.34,3.34,0,0,0-1-.61,3.76,3.76,0,0,0-1.43-.25,3.59,3.59,0,0,0-3.41,1.76,9,9,0,0,0-1,4.53v.59a9.74,9.74,0,0,0,.92,4.56A3.33,3.33,0,0,0,1500.83,55.06Z"/><path d="M1533.86,41.33l-2,.29-7.77,20.57a11.36,11.36,0,0,1-2.45,3.82,6.24,6.24,0,0,1-4.62,1.55,7.4,7.4,0,0,1-1.36-.12c-.42-.08-.92-.19-1.49-.33l.66-4.16.57.08.51,0a3.16,3.16,0,0,0,2.19-.69,4.73,4.73,0,0,0,1.17-1.73l.64-1.6-6.7-17.4-2-.31V37.89h10.35v3.44l-2.36.39,2.89,8.43.29,1.53.12,0,3.34-10-2.38-.39V37.89h10.35Z"/><path class="cls-8" d="M1520.06,195a6.86,6.86,0,0,1-.32-.79,6.36,6.36,0,0,1-.22-.83,6,6,0,0,1-1.94,1.4,6.18,6.18,0,0,1-2.61.53,5.72,5.72,0,0,1-3.87-1.25,4.24,4.24,0,0,1-1.43-3.38,3.77,3.77,0,0,1,1.87-3.37,10.26,10.26,0,0,1,5.49-1.2h2.28v-1.52a2.2,2.2,0,0,0-.69-1.73,2.93,2.93,0,0,0-2-.62,5.13,5.13,0,0,0-1.36.16,3.54,3.54,0,0,0-1,.4l-.29,1.66h-3.37l0-3.44a12.37,12.37,0,0,1,2.81-1.31,10.9,10.9,0,0,1,3.45-.53,8.28,8.28,0,0,1,5,1.41,4.72,4.72,0,0,1,1.92,4V191c0,.24,0,.47,0,.68a3.83,3.83,0,0,0,0,.6l1.36.17V195Zm-3.88-2.8a4,4,0,0,0,1.84-.41,3.53,3.53,0,0,0,1.29-1v-2.37H1517a3.29,3.29,0,0,0-2.16.62,1.92,1.92,0,0,0-.74,1.5,1.52,1.52,0,0,0,.54,1.24A2.32,2.32,0,0,0,1516.18,192.17Z"/><path class="cls-8" d="M1526.4,182v-2.52h6.5l.21,1.81a5.36,5.36,0,0,1,1.77-1.56,5,5,0,0,1,2.39-.54,5.66,5.66,0,0,1,4.78,2.25,9.64,9.64,0,0,1,1.7,5.93v.31a8.56,8.56,0,0,1-1.7,5.54,5.78,5.78,0,0,1-4.75,2.1,5.68,5.68,0,0,1-2.32-.46,4.74,4.74,0,0,1-1.73-1.32V198l2.16.43V201h-8.78v-2.53l2.16-.43v-15.6Zm12.87,5.37a7.14,7.14,0,0,0-.78-3.56,2.57,2.57,0,0,0-2.39-1.36,3.53,3.53,0,0,0-1.72.39,2.78,2.78,0,0,0-1.13,1.1v6.81a2.67,2.67,0,0,0,1.13,1,4,4,0,0,0,1.75.35,2.64,2.64,0,0,0,2.39-1.19,6,6,0,0,0,.75-3.23Z"/><path class="cls-8" d="M1545.4,182v-2.52h6.5l.21,1.81a5.36,5.36,0,0,1,1.77-1.56,5,5,0,0,1,2.39-.54,5.66,5.66,0,0,1,4.78,2.25,9.64,9.64,0,0,1,1.7,5.93v.31a8.56,8.56,0,0,1-1.7,5.54,5.78,5.78,0,0,1-4.75,2.1,5.68,5.68,0,0,1-2.32-.46,4.74,4.74,0,0,1-1.73-1.32V198l2.16.43V201h-8.78v-2.53l2.16-.43v-15.6Zm12.87,5.37a7.14,7.14,0,0,0-.78-3.56,2.57,2.57,0,0,0-2.39-1.36,3.53,3.53,0,0,0-1.72.39,2.78,2.78,0,0,0-1.13,1.1v6.81a2.67,2.67,0,0,0,1.13,1,4,4,0,0,0,1.75.35,2.64,2.64,0,0,0,2.39-1.19,6,6,0,0,0,.75-3.23Z"/><path class="cls-8" d="M1564,175.1v-2.53h6.86V192l2.16.43V195h-8.79v-2.51l2.16-.43v-16.5Z"/><path class="cls-8" d="M1574.3,192.46l2.16-.43v-9.64l-2.39-.43v-2.52h6.87V192l2.14.43V195h-8.78Zm6.64-16.74h-4.48v-3.15h4.48Z"/><path class="cls-8" d="M1592.34,192.06a2.76,2.76,0,0,0,1.91-.65,2.26,2.26,0,0,0,.72-1.75h4l0,.09a4.74,4.74,0,0,1-1.88,3.94,8.36,8.36,0,0,1-10.56-.61,8.06,8.06,0,0,1-2-5.65V187a8,8,0,0,1,2.06-5.64,7.68,7.68,0,0,1,5.88-2.21,10.63,10.63,0,0,1,3.6.56,7.12,7.12,0,0,1,2.65,1.58l.06,4.15h-3.63l-.73-2.43a3,3,0,0,0-.83-.45,3.25,3.25,0,0,0-1.12-.18,2.87,2.87,0,0,0-2.68,1.29,6.36,6.36,0,0,0-.78,3.33v.43a6.81,6.81,0,0,0,.72,3.36A2.65,2.65,0,0,0,1592.34,192.06Z"/><path class="cls-8" d="M1611.64,195a6.86,6.86,0,0,1-.32-.79,6.31,6.31,0,0,1-.21-.83,6,6,0,0,1-4.55,1.93,5.68,5.68,0,0,1-3.87-1.25,4.21,4.21,0,0,1-1.44-3.38,3.79,3.79,0,0,1,1.87-3.37,10.26,10.26,0,0,1,5.49-1.2h2.28v-1.52a2.2,2.2,0,0,0-.69-1.73,2.93,2.93,0,0,0-2-.62,5.13,5.13,0,0,0-1.36.16,3.34,3.34,0,0,0-1,.4l-.3,1.66h-3.37l0-3.44a12.57,12.57,0,0,1,2.81-1.31,11,11,0,0,1,3.46-.53,8.25,8.25,0,0,1,5,1.41,4.72,4.72,0,0,1,1.92,4V191c0,.24,0,.47,0,.68a3.83,3.83,0,0,0,0,.6l1.37.17V195Zm-3.87-2.8a4,4,0,0,0,1.84-.41,3.41,3.41,0,0,0,1.28-1v-2.37h-2.28a3.29,3.29,0,0,0-2.16.62,1.92,1.92,0,0,0-.74,1.5,1.5,1.5,0,0,0,.55,1.24A2.28,2.28,0,0,0,1607.77,192.17Z"/><path class="cls-8" d="M1623.7,175.63v3.81h2.91v2.94h-2.91v7.91a1.7,1.7,0,0,0,.4,1.29,1.47,1.47,0,0,0,1.07.39q.46,0,.81,0l.77-.12.38,3a11.54,11.54,0,0,1-1.48.32,11.28,11.28,0,0,1-1.6.11,4.93,4.93,0,0,1-3.56-1.2,5,5,0,0,1-1.25-3.77v-7.93h-2.43v-2.94h2.43v-3.81Z"/><path class="cls-8" d="M1628.67,192.46l2.16-.43v-9.64l-2.39-.43v-2.52h6.86V192l2.15.43V195h-8.78Zm6.63-16.74h-4.47v-3.15h4.47Z"/><path class="cls-8" d="M1638.92,187.06a8,8,0,0,1,2.07-5.69,8.57,8.57,0,0,1,11.5,0,8,8,0,0,1,2.07,5.7v.3a8,8,0,0,1-2.07,5.71,8.59,8.59,0,0,1-11.5,0,8,8,0,0,1-2.07-5.71Zm4.47.3a6.4,6.4,0,0,0,.8,3.41,3.18,3.18,0,0,0,5.11,0,6.45,6.45,0,0,0,.8-3.41v-.3a6.3,6.3,0,0,0-.81-3.37,2.79,2.79,0,0,0-2.56-1.31,2.76,2.76,0,0,0-2.54,1.31,6.39,6.39,0,0,0-.8,3.37Z"/><path class="cls-8" d="M1656.26,192.46l2.15-.43v-9.64L1656,182v-2.52h6.55l.19,2.22a6.09,6.09,0,0,1,2-1.85,5.57,5.57,0,0,1,2.71-.66,5.16,5.16,0,0,1,3.93,1.48,6.52,6.52,0,0,1,1.41,4.64V192l2.14.43V195h-8.55v-2.51l1.92-.43v-6.75a3,3,0,0,0-.68-2.22,2.85,2.85,0,0,0-2-.65,3.57,3.57,0,0,0-1.59.34,3.21,3.21,0,0,0-1.18.95V192l1.81.43V195h-8.43Z"/><path class="cls-8" d="M1540.09,220.07h-3l-.47-1.94a4,4,0,0,0-1.16-.57,5,5,0,0,0-1.54-.23,3.14,3.14,0,0,0-1.87.49,1.5,1.5,0,0,0-.69,1.25,1.39,1.39,0,0,0,.66,1.17,7.46,7.46,0,0,0,2.63.82,11.24,11.24,0,0,1,4.57,1.69,3.62,3.62,0,0,1,1.49,3.07,4,4,0,0,1-1.93,3.42,8.7,8.7,0,0,1-5.06,1.33,11.25,11.25,0,0,1-3.52-.52,9.1,9.1,0,0,1-2.84-1.51l0-3.48h3.12l.61,2a2.68,2.68,0,0,0,1.09.47,6.76,6.76,0,0,0,1.44.15,3.93,3.93,0,0,0,2.08-.46,1.4,1.4,0,0,0,0-2.44,7.56,7.56,0,0,0-2.65-.89,11.19,11.19,0,0,1-4.42-1.66,3.51,3.51,0,0,1-1.49-3,4.23,4.23,0,0,1,1.71-3.36,7.48,7.48,0,0,1,4.89-1.42,13.09,13.09,0,0,1,3.65.49,8.05,8.05,0,0,1,2.71,1.25Z"/><path class="cls-8" d="M1549.32,210.92v3.81h2.91v2.94h-2.91v7.92a1.73,1.73,0,0,0,.4,1.29,1.45,1.45,0,0,0,1.07.39c.31,0,.57,0,.8,0a6.81,6.81,0,0,0,.78-.12l.38,3a11.68,11.68,0,0,1-1.49.32,11.24,11.24,0,0,1-1.59.11,5,5,0,0,1-3.56-1.19,5,5,0,0,1-1.25-3.78v-7.93h-2.44v-2.94h2.44v-3.81Z"/><path class="cls-8" d="M1565,230.27a7.85,7.85,0,0,1-.32-.8,5,5,0,0,1-.22-.82,6.29,6.29,0,0,1-1.94,1.39,6.18,6.18,0,0,1-2.61.53,5.71,5.71,0,0,1-3.87-1.24,4.27,4.27,0,0,1-1.43-3.38,3.78,3.78,0,0,1,1.87-3.38,10.32,10.32,0,0,1,5.48-1.19h2.29v-1.52a2.21,2.21,0,0,0-.69-1.74,3,3,0,0,0-2-.62,5.11,5.11,0,0,0-1.36.17,3.9,3.9,0,0,0-1,.39l-.29,1.67h-3.37v-3.45a13.12,13.12,0,0,1,2.82-1.31,10.85,10.85,0,0,1,3.45-.53,8.18,8.18,0,0,1,5,1.42,4.68,4.68,0,0,1,1.93,4V227a5.54,5.54,0,0,0,.06.6l1.36.17v2.52Zm-3.88-2.8a4.11,4.11,0,0,0,1.84-.41,3.55,3.55,0,0,0,1.29-1v-2.37h-2.29a3.24,3.24,0,0,0-2.16.63,1.88,1.88,0,0,0-.73,1.5,1.5,1.5,0,0,0,.54,1.23A2.32,2.32,0,0,0,1561.1,227.47Z"/><path class="cls-8" d="M1572,227.75l2.14-.43v-9.63l-2.37-.43v-2.53h6.54l.2,2.27a4.93,4.93,0,0,1,1.5-1.88,3.5,3.5,0,0,1,2.13-.68,6.42,6.42,0,0,1,.74.05,5.29,5.29,0,0,1,.65.13l-.47,3.81-1.84,0a3.29,3.29,0,0,0-1.62.36,2.35,2.35,0,0,0-1,1v7.55l2.14.43v2.52H1572Z"/><path class="cls-8" d="M1591.84,210.92v3.81h2.91v2.94h-2.91v7.92a1.73,1.73,0,0,0,.4,1.29,1.45,1.45,0,0,0,1.07.39c.31,0,.57,0,.8,0a6.81,6.81,0,0,0,.78-.12l.38,3a10.81,10.81,0,0,1-3.08.43,5,5,0,0,1-3.56-1.19,5,5,0,0,1-1.25-3.78v-7.93h-2.44v-2.94h2.44v-3.81Z"/><path class="cls-8" d="M1610.47,220.07h-3l-.48-1.94a3.86,3.86,0,0,0-1.15-.57,5,5,0,0,0-1.54-.23,3.14,3.14,0,0,0-1.87.49,1.5,1.5,0,0,0-.69,1.25,1.39,1.39,0,0,0,.66,1.17,7.31,7.31,0,0,0,2.63.82,11.3,11.3,0,0,1,4.57,1.69,3.61,3.61,0,0,1,1.48,3.07,4,4,0,0,1-1.92,3.42,8.7,8.7,0,0,1-5.06,1.33,11.25,11.25,0,0,1-3.52-.52,8.89,8.89,0,0,1-2.84-1.51l0-3.48h3.13l.61,2a2.68,2.68,0,0,0,1.09.47,6.76,6.76,0,0,0,1.44.15,3.93,3.93,0,0,0,2.08-.46,1.4,1.4,0,0,0,0-2.44,7.64,7.64,0,0,0-2.65-.89,11.13,11.13,0,0,1-4.42-1.66,3.51,3.51,0,0,1-1.5-3,4.22,4.22,0,0,1,1.72-3.36,7.44,7.44,0,0,1,4.89-1.42,13.19,13.19,0,0,1,3.65.49,7.9,7.9,0,0,1,2.7,1.25Z"/><path class="cls-8" d="M1632.38,228.3a5.39,5.39,0,0,1-2,1.68,5.89,5.89,0,0,1-2.67.59,5.37,5.37,0,0,1-4.11-1.57,6.93,6.93,0,0,1-1.48-4.89v-6.42l-1.83-.43v-2.53h6.3v9.41a3.8,3.8,0,0,0,.61,2.43,2.19,2.19,0,0,0,1.8.74,4.87,4.87,0,0,0,1.83-.32,3.29,3.29,0,0,0,1.26-.93v-8.37l-2-.43v-2.53h6.44v12.59l2,.43v2.52h-5.93Z"/><path class="cls-8" d="M1640,217.26v-2.53h6.5l.21,1.81a5.18,5.18,0,0,1,1.76-1.55,5,5,0,0,1,2.39-.55,5.61,5.61,0,0,1,4.78,2.26,9.55,9.55,0,0,1,1.7,5.93v.3a8.47,8.47,0,0,1-1.7,5.54,5.76,5.76,0,0,1-4.75,2.1,5.6,5.6,0,0,1-2.31-.45,4.68,4.68,0,0,1-1.73-1.33v4.49l2.16.43v2.53h-8.78v-2.53l2.16-.43V217.69Zm12.87,5.37a7.11,7.11,0,0,0-.78-3.56,2.58,2.58,0,0,0-2.39-1.37,3.57,3.57,0,0,0-1.73.39,2.85,2.85,0,0,0-1.12,1.11V226a2.67,2.67,0,0,0,1.12,1,4,4,0,0,0,1.76.34,2.61,2.61,0,0,0,2.38-1.19,5.92,5.92,0,0,0,.76-3.23Z"/><line class="cls-3" x1="2252.53" y1="211.62" x2="2296.73" y2="211.62"/><polygon class="cls-4" points="2282.81 228.8 2279.95 225.72 2295.12 211.63 2279.95 197.53 2282.81 194.45 2301.28 211.63 2282.81 228.8"/><path class="cls-7" d="M647.79,228.26v-2.53h6.5l.21,1.81a5.18,5.18,0,0,1,1.76-1.55,5,5,0,0,1,2.39-.55,5.61,5.61,0,0,1,4.78,2.26,9.55,9.55,0,0,1,1.71,5.93v.3a8.47,8.47,0,0,1-1.71,5.54,5.76,5.76,0,0,1-4.75,2.1,5.63,5.63,0,0,1-2.31-.45,4.76,4.76,0,0,1-1.73-1.33v4.49l2.16.43v2.53H648v-2.53l2.16-.43V228.69Zm12.87,5.37a7.11,7.11,0,0,0-.78-3.56,2.58,2.58,0,0,0-2.39-1.37,3.5,3.5,0,0,0-1.72.39,2.87,2.87,0,0,0-1.13,1.11V237a2.7,2.7,0,0,0,1.13,1,4,4,0,0,0,1.75.34,2.6,2.6,0,0,0,2.38-1.19,5.92,5.92,0,0,0,.76-3.23Z"/><path class="cls-7" d="M667.13,233.36a8,8,0,0,1,2.07-5.7,8.57,8.57,0,0,1,11.5,0,8,8,0,0,1,2.07,5.71v.3a8,8,0,0,1-2.07,5.71,8.61,8.61,0,0,1-11.5,0,8,8,0,0,1-2.07-5.71Zm4.47.3a6.45,6.45,0,0,0,.8,3.41,2.81,2.81,0,0,0,2.57,1.28,2.77,2.77,0,0,0,2.54-1.29,6.43,6.43,0,0,0,.8-3.4v-.3a6.34,6.34,0,0,0-.81-3.38,2.79,2.79,0,0,0-2.56-1.31A2.76,2.76,0,0,0,672.4,230a6.43,6.43,0,0,0-.8,3.38Z"/><path class="cls-7" d="M683.94,221.39v-2.52h6.86v19.45l2.16.43v2.52h-8.79v-2.52l2.16-.43v-16.5Z"/><path class="cls-7" d="M694.28,238.75l2.16-.43v-9.63l-2.39-.43v-2.53h6.86v12.59l2.15.43v2.52h-8.78ZM700.91,222h-4.47v-3.14h4.47Z"/><path class="cls-7" d="M712.31,238.35a2.73,2.73,0,0,0,1.92-.65A2.25,2.25,0,0,0,715,236h4l0,.08a4.73,4.73,0,0,1-1.88,3.94,7.43,7.43,0,0,1-4.85,1.59,7.33,7.33,0,0,1-5.71-2.2,8,8,0,0,1-2-5.64v-.43a8,8,0,0,1,2.06-5.65,7.66,7.66,0,0,1,5.88-2.21,10.88,10.88,0,0,1,3.6.56,7.34,7.34,0,0,1,2.65,1.58l.06,4.15h-3.63l-.74-2.42a2.7,2.7,0,0,0-.82-.46,3.25,3.25,0,0,0-1.12-.18,2.86,2.86,0,0,0-2.68,1.3,6.36,6.36,0,0,0-.79,3.33v.43a6.63,6.63,0,0,0,.73,3.35A2.64,2.64,0,0,0,712.31,238.35Z"/><path class="cls-7" d="M738.22,228.26l-1.54.21-6.1,15.12a8.27,8.27,0,0,1-1.93,2.82,5.07,5.07,0,0,1-3.62,1.13,5.93,5.93,0,0,1-1.06-.08c-.34-.06-.73-.14-1.18-.25l.52-3.05.45.05.4,0a2.55,2.55,0,0,0,1.71-.51,3.28,3.28,0,0,0,.92-1.27l.51-1.18L722,228.49l-1.54-.23v-2.53h8.12v2.53l-1.86.28,2.27,6.21.23,1.12h.09l2.62-7.34-1.87-.28v-2.53h8.12Z"/><g id="Scone_logo_white" data-name="Scone logo white"><g class="cls-9"><g class="cls-9"><path class="cls-10" d="M629.07,176.27h-3.48a1.35,1.35,0,0,0-1.35,1.34v3.56a1.35,1.35,0,0,0,1.35,1.34h3.48a1.35,1.35,0,0,0,1.35-1.34v-3.56a1.35,1.35,0,0,0-1.35-1.34m-12.14,6.24h3.49a1.34,1.34,0,0,0,1.34-1.34v-3.56a1.34,1.34,0,0,0-1.34-1.34h-3.49a1.34,1.34,0,0,0-1.34,1.34v3.56a1.34,1.34,0,0,0,1.34,1.34m-3.76-1.34v-3.56a1.34,1.34,0,0,0-1.34-1.34h-3.49a1.34,1.34,0,0,0-1.34,1.34v3.56a1.34,1.34,0,0,0,1.34,1.34h3.49a1.34,1.34,0,0,0,1.34-1.34M629.34,185a1,1,0,0,0-1,1v4.16a1,1,0,0,0,2,0V186a1,1,0,0,0-1-1m-9.59,1.34v3.56a1.34,1.34,0,0,0,1.34,1.34h3.49a1.34,1.34,0,0,0,1.34-1.34v-3.56a1.35,1.35,0,0,0-1.34-1.34h-3.49a1.35,1.35,0,0,0-1.34,1.34m-2.48,3.56v-3.56a1.36,1.36,0,0,0-1.35-1.34h-3.49a1.35,1.35,0,0,0-1.34,1.34v3.56a1.35,1.35,0,0,0,1.34,1.34h3.49a1.35,1.35,0,0,0,1.35-1.34m11.8,3.82h-3.48a1.36,1.36,0,0,0-1.35,1.35v3.55a1.35,1.35,0,0,0,1.35,1.34h3.48a1.35,1.35,0,0,0,1.35-1.34v-3.55a1.36,1.36,0,0,0-1.35-1.35m-9.05,0h-3.49a1.35,1.35,0,0,0-1.34,1.35v3.55a1.34,1.34,0,0,0,1.34,1.34H620a1.35,1.35,0,0,0,1.34-1.34v-3.55a1.36,1.36,0,0,0-1.34-1.35"/><path class="cls-10" d="M633.3,174.86a8,8,0,0,0,5.44,1.68c.13,0,.06.13.06.27v9.59c0,3.69-4.49,6-5.57,6.58-.13.06-.13-.07-.13-.07l.07-18c-.07,0,.06-.14.13-.07"/><path class="cls-10" d="M622.77,174.39c7.38-.27,8.59-2.82,8.59-2.82a.36.36,0,0,1,.33-.2c.14,0,.27,0,.34.14s1.14,2.75,8.52,2.75c.2,0,.27.13.27.33v12.62c0,4-7.65,8.58-7.79,8.65s-.27.2-.27.27v3.15c0,.14.47.2.68.14,2.81-1.55,10.73-5.91,10.73-11.27V172c0-.27-.47-.47-.74-.47-9.39,0-11.14-3.42-11.14-3.42-.06-.2-.4-.13-.6-.13s-.33-.07-.4.06-1.54,3.56-10.87,3.56c-.34,0-.4.13-.4.4v2s-.07.47.26.47,2.49-.14,2.49-.14"/><path class="cls-11" d="M651.15,195l3.76-1.41a5.14,5.14,0,0,0,4.89,2.82,5.43,5.43,0,0,0,2.89-.67,2.31,2.31,0,0,0,1.21-2c0-2-2.75-3.22-4.77-4l-.13-.07a17.35,17.35,0,0,1-4.36-2.41,5.46,5.46,0,0,1-2.15-4.43,5.94,5.94,0,0,1,2.21-4.63,8.6,8.6,0,0,1,5.57-1.88,8,8,0,0,1,7.38,4l-3.89,1.47a3.09,3.09,0,0,0-1.34-1.41,5.28,5.28,0,0,0-2.15-.47c-2.14,0-3.62,1.14-3.62,2.69a3,3,0,0,0,1.48,2.41,19.84,19.84,0,0,0,3.35,1.75l.47.2c2.89,1.21,6.44,2.75,6.44,6.64a5.57,5.57,0,0,1-2.55,4.76,10.26,10.26,0,0,1-6.1,1.75c-4-.07-7.32-2-8.59-5.1"/><path class="cls-11" d="M684.43,200a12,12,0,0,1-4.63-.94,10.91,10.91,0,0,1-3.76-2.55,11,11,0,0,1-2.55-3.76,11.85,11.85,0,0,1,0-9.25,11,11,0,0,1,2.55-3.76,10.91,10.91,0,0,1,3.76-2.55,12,12,0,0,1,4.63-.94,11.54,11.54,0,0,1,5.37,1.27,12,12,0,0,1,4.09,3.43l-3.16,2.34A8.22,8.22,0,0,0,688,181a8.53,8.53,0,0,0-3.62-.87,8,8,0,0,0-8,8,7.81,7.81,0,0,0,2.34,5.63,7.84,7.84,0,0,0,9.67,1.21,8.22,8.22,0,0,0,2.88-3l3.42,1.94a11.58,11.58,0,0,1-4.29,4.36,10.88,10.88,0,0,1-6,1.68"/><path class="cls-11" d="M710.39,200.09a12.24,12.24,0,0,1-4.63-.94A11.11,11.11,0,0,1,702,196.6a11.81,11.81,0,0,1-2.55-3.76,12,12,0,0,1-.94-4.63,11,11,0,0,1,.94-4.63,11.77,11.77,0,0,1,2.55-3.75,12.18,12.18,0,0,1,3.75-2.55,11.87,11.87,0,0,1,9.26,0,10.77,10.77,0,0,1,3.76,2.55,11.93,11.93,0,0,1,2.55,3.75,11.87,11.87,0,0,1,0,9.26,12,12,0,0,1-2.55,3.76,12.59,12.59,0,0,1-3.76,2.55,12.2,12.2,0,0,1-4.63.94m0-19.93a7.7,7.7,0,0,0-5.63,2.35,8,8,0,0,0-2.35,5.64,7.66,7.66,0,0,0,2.35,5.63,7.93,7.93,0,0,0,11.27,0,7.94,7.94,0,0,0,2.35-5.63,8.07,8.07,0,0,0-2.35-5.64,8,8,0,0,0-5.64-2.35"/><polygon class="cls-11" points="749.24 176.47 749.24 200.63 732.6 185.33 732.6 199.69 728.38 199.69 728.38 175.6 745.01 190.96 745.01 176.47 749.24 176.47"/><polygon class="cls-11" points="760.58 180.03 760.58 186.2 772.19 186.2 772.19 189.82 760.58 189.82 760.58 196.06 773.6 196.06 773.6 199.69 756.35 199.69 756.35 176.47 773.6 176.47 773.6 180.09 760.58 180.09 760.58 180.03"/></g></g></g><rect class="cls-12" x="960.66" y="130" width="363.36" height="149" rx="8"/><path class="cls-7" d="M1091.52,184v-2.52h6.5l.21,1.81a5.32,5.32,0,0,1,1.76-1.56,5.07,5.07,0,0,1,2.39-.54,5.63,5.63,0,0,1,4.78,2.25,9.57,9.57,0,0,1,1.7,5.93v.31a8.5,8.5,0,0,1-1.7,5.54,5.76,5.76,0,0,1-4.75,2.1,5.6,5.6,0,0,1-2.31-.46,4.74,4.74,0,0,1-1.73-1.32V200l2.16.43V203h-8.78v-2.53l2.16-.43v-15.6Zm12.87,5.37a7.14,7.14,0,0,0-.78-3.56,2.57,2.57,0,0,0-2.39-1.36,3.57,3.57,0,0,0-1.73.39,2.76,2.76,0,0,0-1.12,1.1v6.81a2.65,2.65,0,0,0,1.12,1,4,4,0,0,0,1.76.35,2.62,2.62,0,0,0,2.38-1.19,5.94,5.94,0,0,0,.76-3.23Z"/><path class="cls-7" d="M1122.46,195a5.67,5.67,0,0,1-2,1.68,6,6,0,0,1-2.68.59,5.37,5.37,0,0,1-4.1-1.58c-1-1-1.49-2.67-1.49-4.89v-6.42l-1.82-.43v-2.52h6.29v9.4a3.91,3.91,0,0,0,.61,2.44,2.19,2.19,0,0,0,1.8.74,4.67,4.67,0,0,0,1.83-.33,3,3,0,0,0,1.26-.92v-8.38l-2-.43v-2.52h6.44V194l2,.43V197h-5.93Z"/><path class="cls-7" d="M1144,186.78h-3l-.48-1.94a4.19,4.19,0,0,0-1.16-.58,5,5,0,0,0-1.54-.22,3.16,3.16,0,0,0-1.87.49,1.49,1.49,0,0,0-.69,1.24,1.39,1.39,0,0,0,.66,1.17,7.41,7.41,0,0,0,2.64.83,11.07,11.07,0,0,1,4.57,1.69,3.61,3.61,0,0,1,1.48,3.06,4,4,0,0,1-1.92,3.43,8.79,8.79,0,0,1-5.07,1.33,11.23,11.23,0,0,1-3.51-.53,9.07,9.07,0,0,1-2.84-1.5l0-3.49h3.12l.62,2a2.62,2.62,0,0,0,1.09.46,6.76,6.76,0,0,0,1.44.15,3.78,3.78,0,0,0,2.07-.46,1.4,1.4,0,0,0,.72-1.24,1.47,1.47,0,0,0-.73-1.2,7.78,7.78,0,0,0-2.65-.89,10.89,10.89,0,0,1-4.42-1.66,3.52,3.52,0,0,1-1.49-3,4.25,4.25,0,0,1,1.72-3.37,7.49,7.49,0,0,1,4.88-1.41,13.21,13.21,0,0,1,3.66.49,7.72,7.72,0,0,1,2.7,1.25Z"/><path class="cls-7" d="M1146.34,194.46l2.16-.43v-16.5l-2.39-.43v-2.53H1153v8.85a5.51,5.51,0,0,1,1.92-1.68,5.37,5.37,0,0,1,2.51-.59,5.26,5.26,0,0,1,4.08,1.61,7.19,7.19,0,0,1,1.48,5V194l2.15.43V197h-8.55v-2.51l1.93-.43v-6.3a3.86,3.86,0,0,0-.68-2.57,2.61,2.61,0,0,0-2-.75,4,4,0,0,0-1.64.31,3.34,3.34,0,0,0-1.17.9V194l1.93.43V197h-8.55Z"/><path class="cls-7" d="M1180.83,177.63v3.81h2.92v2.94h-2.92v7.91a1.74,1.74,0,0,0,.4,1.29,1.49,1.49,0,0,0,1.08.39c.3,0,.57,0,.8,0l.77-.12.39,3a11.68,11.68,0,0,1-1.49.32,11.24,11.24,0,0,1-1.59.11,4.32,4.32,0,0,1-4.81-5v-7.93h-2.44v-2.94h2.44v-3.81Z"/><path class="cls-7" d="M1185.48,189.06a8,8,0,0,1,2.07-5.69,8.57,8.57,0,0,1,11.5,0,8,8,0,0,1,2.07,5.7v.3a8,8,0,0,1-2.07,5.71,8.59,8.59,0,0,1-11.5,0,8,8,0,0,1-2.07-5.71Zm4.47.3a6.4,6.4,0,0,0,.8,3.41,3.18,3.18,0,0,0,5.11,0,6.35,6.35,0,0,0,.8-3.41v-.3a6.3,6.3,0,0,0-.81-3.37,2.79,2.79,0,0,0-2.56-1.31,2.76,2.76,0,0,0-2.54,1.31,6.39,6.39,0,0,0-.8,3.37Z"/><path class="cls-7" d="M1213.84,227.12h-3.32l-.46-2.79a4.84,4.84,0,0,0-1.66-1A7,7,0,0,0,1206,223a5.38,5.38,0,0,0-4.48,2,8,8,0,0,0-1.57,5.17v.73a8.17,8.17,0,0,0,1.56,5.18,5.28,5.28,0,0,0,4.41,2,7.67,7.67,0,0,0,2.41-.36,4,4,0,0,0,1.7-1l.46-2.78h3.32v4.13a9.53,9.53,0,0,1-3.44,2.34,12,12,0,0,1-4.68.87,9.88,9.88,0,0,1-7.35-2.92,10.23,10.23,0,0,1-2.87-7.48v-.71a10.3,10.3,0,0,1,2.85-7.48,9.84,9.84,0,0,1,7.37-2.93,11.87,11.87,0,0,1,4.68.89,10.05,10.05,0,0,1,3.44,2.33Z"/><path class="cls-7" d="M1215.67,238.46l1.59-.21,6.79-18.19h4.58l6.74,18.19,1.59.21V241h-7.6v-2.51l1.55-.26-1-2.87h-7.23l-1,2.87,1.55.26V241h-7.6Zm8.09-6.22h5.11l-2.51-7.36h-.09Z"/><path class="cls-7" d="M1255.38,226.74H1252l-.59-2.87a6,6,0,0,0-1.7-.6,10,10,0,0,0-2.37-.26,4.78,4.78,0,0,0-2.84.72,2.23,2.23,0,0,0-1,1.88,2,2,0,0,0,1,1.74,14.88,14.88,0,0,0,3.63,1.45,14.63,14.63,0,0,1,5.6,2.54,5.13,5.13,0,0,1,1.9,4.15,4.88,4.88,0,0,1-2.26,4.24,10.47,10.47,0,0,1-6,1.55,13.91,13.91,0,0,1-4.79-.79,10,10,0,0,1-3.56-2.19v-4.36h3.46l.48,3a5.57,5.57,0,0,0,1.83.85,9,9,0,0,0,2.58.34,4.68,4.68,0,0,0,2.8-.7,2.21,2.21,0,0,0,1-1.88,2.35,2.35,0,0,0-.91-1.94,9.46,9.46,0,0,0-3.19-1.38,18.72,18.72,0,0,1-6-2.56,4.72,4.72,0,0,1-2-4,4.88,4.88,0,0,1,2.3-4.15,10,10,0,0,1,5.78-1.66,14.24,14.24,0,0,1,4.69.73,11.07,11.07,0,0,1,3.55,2Z"/><g id="Scone_logo_white-2" data-name="Scone logo white"><g class="cls-13"><g class="cls-13"><path class="cls-10" d="M1036.07,216.27h-3.48a1.35,1.35,0,0,0-1.35,1.34v3.56a1.35,1.35,0,0,0,1.35,1.34h3.48a1.35,1.35,0,0,0,1.35-1.34v-3.56a1.35,1.35,0,0,0-1.35-1.34m-12.14,6.24h3.49a1.34,1.34,0,0,0,1.34-1.34v-3.56a1.34,1.34,0,0,0-1.34-1.34h-3.49a1.34,1.34,0,0,0-1.34,1.34v3.56a1.34,1.34,0,0,0,1.34,1.34m-3.76-1.34v-3.56a1.34,1.34,0,0,0-1.34-1.34h-3.49a1.34,1.34,0,0,0-1.34,1.34v3.56a1.34,1.34,0,0,0,1.34,1.34h3.49a1.34,1.34,0,0,0,1.34-1.34m16.17,3.82a1,1,0,0,0-1,1v4.16a1,1,0,0,0,2,0V226a1,1,0,0,0-1-1m-9.59,1.34v3.56a1.34,1.34,0,0,0,1.34,1.34h3.49a1.34,1.34,0,0,0,1.34-1.34v-3.56a1.35,1.35,0,0,0-1.34-1.34h-3.49a1.35,1.35,0,0,0-1.34,1.34m-2.48,3.56v-3.56a1.36,1.36,0,0,0-1.35-1.34h-3.49a1.35,1.35,0,0,0-1.34,1.34v3.56a1.35,1.35,0,0,0,1.34,1.34h3.49a1.35,1.35,0,0,0,1.35-1.34m11.8,3.82h-3.48a1.36,1.36,0,0,0-1.35,1.35v3.55a1.35,1.35,0,0,0,1.35,1.34h3.48a1.35,1.35,0,0,0,1.35-1.34v-3.55a1.36,1.36,0,0,0-1.35-1.35m-9,0h-3.49a1.35,1.35,0,0,0-1.34,1.35v3.55a1.34,1.34,0,0,0,1.34,1.34H1027a1.35,1.35,0,0,0,1.34-1.34v-3.55a1.36,1.36,0,0,0-1.34-1.35"/><path class="cls-10" d="M1040.3,214.86a8,8,0,0,0,5.44,1.68c.13,0,.06.13.06.27v9.59c0,3.69-4.49,6-5.57,6.58-.13.06-.13-.07-.13-.07l.07-18c-.07,0,.06-.14.13-.07"/><path class="cls-10" d="M1029.77,214.39c7.38-.27,8.59-2.82,8.59-2.82a.36.36,0,0,1,.33-.2c.14,0,.27,0,.34.14s1.14,2.75,8.52,2.75c.2,0,.27.13.27.33v12.62c0,4-7.65,8.58-7.79,8.65s-.27.2-.27.27v3.15c0,.14.47.2.68.14,2.81-1.55,10.73-5.91,10.73-11.27V212c0-.27-.47-.47-.74-.47-9.39,0-11.14-3.42-11.14-3.42-.06-.2-.4-.13-.6-.13s-.33-.07-.4.06-1.54,3.56-10.87,3.56c-.34,0-.4.13-.4.4v2s-.07.47.26.47,2.49-.14,2.49-.14"/><path class="cls-11" d="M1058.15,235l3.76-1.41a5.14,5.14,0,0,0,4.89,2.82,5.43,5.43,0,0,0,2.89-.67,2.31,2.31,0,0,0,1.21-2c0-2-2.75-3.22-4.77-4l-.13-.07a17.35,17.35,0,0,1-4.36-2.41,5.46,5.46,0,0,1-2.15-4.43,5.94,5.94,0,0,1,2.21-4.63,8.6,8.6,0,0,1,5.57-1.88,8,8,0,0,1,7.38,4l-3.89,1.47a3.09,3.09,0,0,0-1.34-1.41,5.28,5.28,0,0,0-2.15-.47c-2.14,0-3.62,1.14-3.62,2.69a3,3,0,0,0,1.48,2.41,19.84,19.84,0,0,0,3.35,1.75l.47.2c2.89,1.21,6.44,2.75,6.44,6.64a5.57,5.57,0,0,1-2.55,4.76,10.26,10.26,0,0,1-6.1,1.75c-4-.07-7.32-2-8.59-5.1"/><path class="cls-11" d="M1091.43,240a12,12,0,0,1-4.63-.94,10.91,10.91,0,0,1-3.76-2.55,11,11,0,0,1-2.55-3.76,11.85,11.85,0,0,1,0-9.25,11,11,0,0,1,2.55-3.76,10.91,10.91,0,0,1,3.76-2.55,12,12,0,0,1,4.63-.94,11.54,11.54,0,0,1,5.37,1.27,12,12,0,0,1,4.09,3.43l-3.16,2.34A8.22,8.22,0,0,0,1095,221a8.53,8.53,0,0,0-3.62-.87,8,8,0,0,0-8,8,7.81,7.81,0,0,0,2.34,5.63,7.84,7.84,0,0,0,9.67,1.21,8.22,8.22,0,0,0,2.88-3l3.42,1.94a11.58,11.58,0,0,1-4.29,4.36,10.88,10.88,0,0,1-6,1.68"/><path class="cls-11" d="M1117.39,240.09a12.24,12.24,0,0,1-4.63-.94,11.11,11.11,0,0,1-3.75-2.55,11.81,11.81,0,0,1-2.55-3.76,12,12,0,0,1-.94-4.63,11,11,0,0,1,.94-4.63,11.77,11.77,0,0,1,2.55-3.75,12.18,12.18,0,0,1,3.75-2.55,11.87,11.87,0,0,1,9.26,0,10.77,10.77,0,0,1,3.76,2.55,11.93,11.93,0,0,1,2.55,3.75,11.87,11.87,0,0,1,0,9.26,12,12,0,0,1-2.55,3.76,12.59,12.59,0,0,1-3.76,2.55,12.2,12.2,0,0,1-4.63.94m0-19.93a7.7,7.7,0,0,0-5.63,2.35,8,8,0,0,0-2.35,5.64,7.66,7.66,0,0,0,2.35,5.63,7.93,7.93,0,0,0,11.27,0,7.94,7.94,0,0,0,2.35-5.63,8.07,8.07,0,0,0-2.35-5.64,8,8,0,0,0-5.64-2.35"/><polygon class="cls-11" points="1156.24 216.47 1156.24 240.63 1139.6 225.33 1139.6 239.69 1135.38 239.69 1135.38 215.6 1152.01 230.96 1152.01 216.47 1156.24 216.47"/><polygon class="cls-11" points="1167.58 220.03 1167.58 226.2 1179.19 226.2 1179.19 229.82 1167.58 229.82 1167.58 236.06 1180.6 236.06 1180.6 239.69 1163.35 239.69 1163.35 216.47 1180.6 216.47 1180.6 220.09 1167.58 220.09 1167.58 220.03"/></g></g></g><rect class="cls-14" x="1869.66" y="130" width="363.36" height="149" rx="8"/><path class="cls-7" d="M2129.29,184.12H2126l-.46-2.79a4.74,4.74,0,0,0-1.66-1,7,7,0,0,0-2.37-.36,5.4,5.4,0,0,0-4.48,2,8,8,0,0,0-1.57,5.17v.73a8.17,8.17,0,0,0,1.56,5.18,5.28,5.28,0,0,0,4.41,2,7.73,7.73,0,0,0,2.42-.36,4,4,0,0,0,1.69-1l.46-2.78h3.33v4.13a9.57,9.57,0,0,1-3.45,2.34,12,12,0,0,1-4.68.87,9.88,9.88,0,0,1-7.35-2.92,10.23,10.23,0,0,1-2.87-7.48v-.71a10.3,10.3,0,0,1,2.85-7.48,9.84,9.84,0,0,1,7.37-2.93,11.87,11.87,0,0,1,4.68.89,10,10,0,0,1,3.45,2.33Z"/><path class="cls-7" d="M2131.11,195.46l1.59-.21,6.79-18.19h4.58l6.74,18.19,1.6.21V198h-7.6v-2.51l1.54-.26-1-2.87h-7.23l-1,2.87,1.55.26V198h-7.6Zm8.09-6.22h5.12l-2.52-7.36h-.09Z"/><path class="cls-7" d="M2170.82,183.74h-3.35l-.58-2.87a6.19,6.19,0,0,0-1.7-.6,10.16,10.16,0,0,0-2.38-.26,4.81,4.81,0,0,0-2.84.72,2.23,2.23,0,0,0-1,1.88,2,2,0,0,0,1.05,1.74,14.88,14.88,0,0,0,3.63,1.45,14.56,14.56,0,0,1,5.6,2.54,5.13,5.13,0,0,1,1.91,4.15,4.89,4.89,0,0,1-2.27,4.24,10.44,10.44,0,0,1-6,1.55,13.91,13.91,0,0,1-4.79-.79,10,10,0,0,1-3.56-2.19v-4.36H2158l.48,3a5.57,5.57,0,0,0,1.83.85,9,9,0,0,0,2.58.34,4.68,4.68,0,0,0,2.8-.7,2.22,2.22,0,0,0,1-1.88,2.36,2.36,0,0,0-.92-1.94,9.36,9.36,0,0,0-3.19-1.38,18.72,18.72,0,0,1-6-2.56,4.71,4.71,0,0,1-2-4,4.87,4.87,0,0,1,2.29-4.15,10,10,0,0,1,5.78-1.66,14.2,14.2,0,0,1,4.69.73,11.07,11.07,0,0,1,3.55,2Z"/><path class="cls-7" d="M1961.85,242a6.86,6.86,0,0,1-.32-.79,6.36,6.36,0,0,1-.22-.83,6,6,0,0,1-4.55,1.93,5.72,5.72,0,0,1-3.87-1.25,4.24,4.24,0,0,1-1.43-3.38,3.77,3.77,0,0,1,1.87-3.37,10.22,10.22,0,0,1,5.48-1.2h2.29v-1.52a2.2,2.2,0,0,0-.69-1.73,2.93,2.93,0,0,0-2-.62,5.13,5.13,0,0,0-1.36.16,3.54,3.54,0,0,0-1,.4l-.29,1.66h-3.37V228a12.66,12.66,0,0,1,2.82-1.31,10.9,10.9,0,0,1,3.45-.53,8.25,8.25,0,0,1,5,1.41,4.7,4.7,0,0,1,1.93,4V238c0,.24,0,.47,0,.68a3.83,3.83,0,0,0,.05.6l1.36.17V242Zm-3.88-2.8a4,4,0,0,0,1.84-.41,3.53,3.53,0,0,0,1.29-1v-2.37h-2.29a3.31,3.31,0,0,0-2.16.62,1.91,1.91,0,0,0-.73,1.5,1.52,1.52,0,0,0,.54,1.24A2.32,2.32,0,0,0,1958,239.17Z"/><path class="cls-7" d="M1973.91,222.63v3.81h2.91v2.94h-2.91v7.91a1.7,1.7,0,0,0,.4,1.29,1.45,1.45,0,0,0,1.07.39c.31,0,.57,0,.8,0l.78-.12.38,3a11.68,11.68,0,0,1-1.49.32,11.24,11.24,0,0,1-1.59.11,4.93,4.93,0,0,1-3.56-1.2,5,5,0,0,1-1.25-3.77v-7.93H1967v-2.94h2.44v-3.81Z"/><path class="cls-7" d="M1985.61,222.63v3.81h2.92v2.94h-2.92v7.91a1.74,1.74,0,0,0,.4,1.29,1.49,1.49,0,0,0,1.08.39c.3,0,.57,0,.8,0l.77-.12.39,3a11.68,11.68,0,0,1-1.49.32,11.24,11.24,0,0,1-1.59.11,4.32,4.32,0,0,1-4.81-5v-7.93h-2.44v-2.94h2.44v-3.81Z"/><path class="cls-7" d="M1998.65,242.28a7.71,7.71,0,0,1-5.73-2.16,7.42,7.42,0,0,1-2.14-5.47v-.57a8.17,8.17,0,0,1,2-5.7,7.93,7.93,0,0,1,10.65-.34,7,7,0,0,1,1.86,5.13v2.29h-9.9l0,.08a3.91,3.91,0,0,0,1.1,2.53,3.52,3.52,0,0,0,2.64,1,9.08,9.08,0,0,0,2.47-.28,12.3,12.3,0,0,0,2.14-.88l1.21,2.58a9,9,0,0,1-2.66,1.28A12.12,12.12,0,0,1,1998.65,242.28Zm-.39-12.9a2.41,2.41,0,0,0-2,.89,4.41,4.41,0,0,0-.88,2.34l0,.07h5.49v-.37a3.23,3.23,0,0,0-.67-2.13A2.48,2.48,0,0,0,1998.26,229.38Z"/><path class="cls-7" d="M2021,231.78h-3l-.47-1.94a4.33,4.33,0,0,0-1.16-.58,5,5,0,0,0-1.54-.22,3.14,3.14,0,0,0-1.87.49,1.49,1.49,0,0,0-.69,1.24,1.39,1.39,0,0,0,.66,1.17,7.41,7.41,0,0,0,2.63.83,11,11,0,0,1,4.57,1.69,3.61,3.61,0,0,1,1.49,3.06,4,4,0,0,1-1.93,3.43,8.78,8.78,0,0,1-5.06,1.33,11.25,11.25,0,0,1-3.52-.53,9.29,9.29,0,0,1-2.84-1.5l0-3.49h3.12l.61,2a2.68,2.68,0,0,0,1.09.46,6.76,6.76,0,0,0,1.44.15,3.84,3.84,0,0,0,2.08-.46,1.41,1.41,0,0,0,.71-1.24,1.46,1.46,0,0,0-.72-1.2,7.78,7.78,0,0,0-2.65-.89,10.89,10.89,0,0,1-4.42-1.66,3.5,3.5,0,0,1-1.49-3,4.27,4.27,0,0,1,1.71-3.37,7.52,7.52,0,0,1,4.89-1.41,13.14,13.14,0,0,1,3.65.49,7.86,7.86,0,0,1,2.71,1.25Z"/><path class="cls-7" d="M2030.19,222.63v3.81h2.91v2.94h-2.91v7.91a1.7,1.7,0,0,0,.4,1.29,1.45,1.45,0,0,0,1.07.39c.3,0,.57,0,.8,0l.78-.12.38,3a11,11,0,0,1-3.08.43,4.93,4.93,0,0,1-3.56-1.2,5,5,0,0,1-1.25-3.77v-7.93h-2.44v-2.94h2.44v-3.81Z"/><path class="cls-7" d="M2048.82,231.78h-3l-.48-1.94a4.12,4.12,0,0,0-1.15-.58,5,5,0,0,0-1.54-.22,3.14,3.14,0,0,0-1.87.49,1.49,1.49,0,0,0-.69,1.24,1.39,1.39,0,0,0,.66,1.17,7.26,7.26,0,0,0,2.63.83,11,11,0,0,1,4.57,1.69,3.61,3.61,0,0,1,1.48,3.06,4,4,0,0,1-1.92,3.43,8.78,8.78,0,0,1-5.06,1.33,11.25,11.25,0,0,1-3.52-.53,9.07,9.07,0,0,1-2.84-1.5l0-3.49h3.13l.61,2a2.62,2.62,0,0,0,1.09.46,6.76,6.76,0,0,0,1.44.15,3.78,3.78,0,0,0,2.07-.46,1.4,1.4,0,0,0,.72-1.24,1.46,1.46,0,0,0-.72-1.2,7.86,7.86,0,0,0-2.65-.89,10.84,10.84,0,0,1-4.42-1.66,3.51,3.51,0,0,1-1.5-3,4.25,4.25,0,0,1,1.72-3.37,7.5,7.5,0,0,1,4.89-1.41,13.19,13.19,0,0,1,3.65.49,7.72,7.72,0,0,1,2.7,1.25Z"/><path class="cls-7" d="M2058.79,229v-2.52h6.5l.22,1.81a5.23,5.23,0,0,1,1.76-1.56,5,5,0,0,1,2.39-.54,5.64,5.64,0,0,1,4.78,2.25,9.64,9.64,0,0,1,1.7,5.93v.31a8.56,8.56,0,0,1-1.7,5.54,5.77,5.77,0,0,1-4.75,2.1,5.6,5.6,0,0,1-2.31-.46,4.77,4.77,0,0,1-1.74-1.32V245l2.16.43V248H2059v-2.53l2.16-.43v-15.6Zm12.88,5.37a7,7,0,0,0-.79-3.56,2.56,2.56,0,0,0-2.39-1.36,3.55,3.55,0,0,0-1.72.39,2.84,2.84,0,0,0-1.13,1.1v6.81a2.73,2.73,0,0,0,1.13,1,4,4,0,0,0,1.76.35,2.63,2.63,0,0,0,2.38-1.19,6,6,0,0,0,.76-3.23Z"/><path class="cls-7" d="M2078.13,234.06a8,8,0,0,1,2.08-5.69,8.56,8.56,0,0,1,11.49,0,8,8,0,0,1,2.08,5.7v.3a8,8,0,0,1-2.08,5.71,8.57,8.57,0,0,1-11.49,0,8,8,0,0,1-2.08-5.71Zm4.48.3a6.4,6.4,0,0,0,.79,3.41,2.8,2.8,0,0,0,2.58,1.29,2.76,2.76,0,0,0,2.53-1.29,6.35,6.35,0,0,0,.81-3.41v-.3a6.3,6.3,0,0,0-.81-3.37,2.81,2.81,0,0,0-2.56-1.31,2.76,2.76,0,0,0-2.55,1.31,6.39,6.39,0,0,0-.79,3.37Z"/><path class="cls-7" d="M2094.94,222.1v-2.53h6.87V239l2.16.43V242h-8.8v-2.51l2.16-.43v-16.5Z"/><path class="cls-7" d="M2105.28,239.46l2.16-.43v-9.64l-2.39-.43v-2.52h6.87V239l2.14.43V242h-8.78Zm6.64-16.74h-4.48v-3.15h4.48Z"/><path class="cls-7" d="M2123.32,239.06a2.75,2.75,0,0,0,1.91-.65,2.26,2.26,0,0,0,.72-1.75H2130l0,.09a4.69,4.69,0,0,1-1.88,3.94,8.36,8.36,0,0,1-10.56-.61,8.05,8.05,0,0,1-2-5.65V234a7.92,7.92,0,0,1,2.06-5.64,7.64,7.64,0,0,1,5.87-2.21,10.63,10.63,0,0,1,3.6.56,7.16,7.16,0,0,1,2.66,1.58l.06,4.15h-3.64l-.73-2.43a3,3,0,0,0-.83-.45,3.25,3.25,0,0,0-1.12-.18,2.88,2.88,0,0,0-2.68,1.29,6.36,6.36,0,0,0-.78,3.33v.43a6.81,6.81,0,0,0,.72,3.36A2.65,2.65,0,0,0,2123.32,239.06Z"/><path class="cls-7" d="M2149.23,229l-1.55.22-6.1,15.12a8.39,8.39,0,0,1-1.92,2.82,5.13,5.13,0,0,1-3.62,1.13,6,6,0,0,1-1.07-.09q-.49-.07-1.17-.24l.52-3.06.44.06.4,0a2.58,2.58,0,0,0,1.72-.51,3.47,3.47,0,0,0,.92-1.27l.5-1.18-5.25-12.8-1.55-.23v-2.52h8.12V229l-1.85.29,2.27,6.21.23,1.12h.09l2.62-7.34-1.87-.29v-2.52h8.12Z"/><g id="Scone_logo_white-3" data-name="Scone logo white"><g class="cls-15"><g class="cls-15"><path class="cls-10" d="M1945.07,173.27h-3.48a1.35,1.35,0,0,0-1.35,1.34v3.56a1.35,1.35,0,0,0,1.35,1.34h3.48a1.35,1.35,0,0,0,1.35-1.34v-3.56a1.35,1.35,0,0,0-1.35-1.34m-12.14,6.24h3.49a1.34,1.34,0,0,0,1.34-1.34v-3.56a1.34,1.34,0,0,0-1.34-1.34h-3.49a1.34,1.34,0,0,0-1.34,1.34v3.56a1.34,1.34,0,0,0,1.34,1.34m-3.76-1.34v-3.56a1.34,1.34,0,0,0-1.34-1.34h-3.49a1.34,1.34,0,0,0-1.34,1.34v3.56a1.34,1.34,0,0,0,1.34,1.34h3.49a1.34,1.34,0,0,0,1.34-1.34m16.17,3.82a1,1,0,0,0-1,1v4.16a1,1,0,0,0,2,0V183a1,1,0,0,0-1-1m-9.59,1.34v3.56a1.34,1.34,0,0,0,1.34,1.34h3.49a1.34,1.34,0,0,0,1.34-1.34v-3.56a1.35,1.35,0,0,0-1.34-1.34h-3.49a1.35,1.35,0,0,0-1.34,1.34m-2.48,3.56v-3.56a1.36,1.36,0,0,0-1.35-1.34h-3.49a1.35,1.35,0,0,0-1.34,1.34v3.56a1.35,1.35,0,0,0,1.34,1.34h3.49a1.35,1.35,0,0,0,1.35-1.34m11.8,3.82h-3.48a1.36,1.36,0,0,0-1.35,1.35v3.55a1.35,1.35,0,0,0,1.35,1.34h3.48a1.35,1.35,0,0,0,1.35-1.34v-3.55a1.36,1.36,0,0,0-1.35-1.35m-9,0h-3.49a1.35,1.35,0,0,0-1.34,1.35v3.55a1.34,1.34,0,0,0,1.34,1.34H1936a1.35,1.35,0,0,0,1.34-1.34v-3.55a1.36,1.36,0,0,0-1.34-1.35"/><path class="cls-10" d="M1949.3,171.86a8,8,0,0,0,5.44,1.68c.13,0,.06.13.06.27v9.59c0,3.69-4.49,6-5.57,6.58-.13.06-.13-.07-.13-.07l.07-18c-.07,0,.06-.14.13-.07"/><path class="cls-10" d="M1938.77,171.39c7.38-.27,8.59-2.82,8.59-2.82a.36.36,0,0,1,.33-.2c.14,0,.27,0,.34.14s1.14,2.75,8.52,2.75c.2,0,.27.13.27.33v12.62c0,4-7.65,8.58-7.79,8.65s-.27.2-.27.27v3.15c0,.14.47.2.68.14,2.81-1.55,10.73-5.91,10.73-11.27V169c0-.27-.47-.47-.74-.47-9.39,0-11.14-3.42-11.14-3.42-.06-.2-.4-.13-.6-.13s-.33-.07-.4.06-1.54,3.56-10.87,3.56c-.34,0-.4.13-.4.4v2s-.07.47.26.47,2.49-.14,2.49-.14"/><path class="cls-11" d="M1967.15,192l3.76-1.41a5.14,5.14,0,0,0,4.89,2.82,5.43,5.43,0,0,0,2.89-.67,2.31,2.31,0,0,0,1.21-2c0-2-2.75-3.22-4.77-4l-.13-.07a17.35,17.35,0,0,1-4.36-2.41,5.46,5.46,0,0,1-2.15-4.43,5.94,5.94,0,0,1,2.21-4.63,8.6,8.6,0,0,1,5.57-1.88,8,8,0,0,1,7.38,4l-3.89,1.47a3.09,3.09,0,0,0-1.34-1.41,5.28,5.28,0,0,0-2.15-.47c-2.14,0-3.62,1.14-3.62,2.69a3,3,0,0,0,1.48,2.41,19.84,19.84,0,0,0,3.35,1.75l.47.2c2.89,1.21,6.44,2.75,6.44,6.64a5.57,5.57,0,0,1-2.55,4.76,10.26,10.26,0,0,1-6.1,1.75c-4-.07-7.32-2-8.59-5.1"/><path class="cls-11" d="M2000.43,197a12,12,0,0,1-4.63-.94,10.91,10.91,0,0,1-3.76-2.55,11,11,0,0,1-2.55-3.76,11.85,11.85,0,0,1,0-9.25,11,11,0,0,1,2.55-3.76,10.91,10.91,0,0,1,3.76-2.55,12,12,0,0,1,4.63-.94,11.54,11.54,0,0,1,5.37,1.27,12,12,0,0,1,4.09,3.43l-3.16,2.34A8.22,8.22,0,0,0,2004,178a8.53,8.53,0,0,0-3.62-.87,8,8,0,0,0-8,8,7.81,7.81,0,0,0,2.34,5.63,7.84,7.84,0,0,0,9.67,1.21,8.22,8.22,0,0,0,2.88-3l3.42,1.94a11.58,11.58,0,0,1-4.29,4.36,10.88,10.88,0,0,1-6,1.68"/><path class="cls-11" d="M2026.39,197.09a12.24,12.24,0,0,1-4.63-.94,11.11,11.11,0,0,1-3.75-2.55,11.81,11.81,0,0,1-2.55-3.76,12,12,0,0,1-.94-4.63,11,11,0,0,1,.94-4.63,11.77,11.77,0,0,1,2.55-3.75,12.18,12.18,0,0,1,3.75-2.55,11.87,11.87,0,0,1,9.26,0,10.77,10.77,0,0,1,3.76,2.55,11.93,11.93,0,0,1,2.55,3.75,11.87,11.87,0,0,1,0,9.26,12,12,0,0,1-2.55,3.76,12.59,12.59,0,0,1-3.76,2.55,12.2,12.2,0,0,1-4.63.94m0-19.93a7.7,7.7,0,0,0-5.63,2.35,8,8,0,0,0-2.35,5.64,7.66,7.66,0,0,0,2.35,5.63,7.93,7.93,0,0,0,11.27,0,7.94,7.94,0,0,0,2.35-5.63,8.07,8.07,0,0,0-2.35-5.64,8,8,0,0,0-5.64-2.35"/><polygon class="cls-11" points="2065.24 173.47 2065.24 197.63 2048.6 182.33 2048.6 196.69 2044.38 196.69 2044.38 172.6 2061.01 187.96 2061.01 173.47 2065.24 173.47"/><polygon class="cls-11" points="2076.58 177.03 2076.58 183.2 2088.19 183.2 2088.19 186.82 2076.58 186.82 2076.58 193.06 2089.6 193.06 2089.6 196.69 2072.35 196.69 2072.35 173.47 2089.6 173.47 2089.6 177.09 2076.58 177.09 2076.58 177.03"/></g></g></g><rect class="cls-16" x="2321.66" y="130" width="363.36" height="149" rx="8"/><path class="cls-7" d="M2581.29,184.12H2578l-.46-2.79a4.74,4.74,0,0,0-1.66-1,7,7,0,0,0-2.37-.36,5.4,5.4,0,0,0-4.48,2,8,8,0,0,0-1.57,5.17v.73a8.17,8.17,0,0,0,1.56,5.18,5.28,5.28,0,0,0,4.41,2,7.73,7.73,0,0,0,2.42-.36,4,4,0,0,0,1.69-1l.46-2.78h3.33v4.13a9.57,9.57,0,0,1-3.45,2.34,12,12,0,0,1-4.68.87,9.88,9.88,0,0,1-7.35-2.92,10.23,10.23,0,0,1-2.87-7.48v-.71a10.3,10.3,0,0,1,2.85-7.48,9.84,9.84,0,0,1,7.37-2.93,11.87,11.87,0,0,1,4.68.89,10,10,0,0,1,3.45,2.33Z"/><path class="cls-7" d="M2583.11,195.46l1.59-.21,6.79-18.19h4.58l6.74,18.19,1.6.21V198h-7.6v-2.51l1.54-.26-1-2.87h-7.23l-1,2.87,1.55.26V198h-7.6Zm8.09-6.22h5.12l-2.52-7.36h-.09Z"/><path class="cls-7" d="M2622.82,183.74h-3.35l-.58-2.87a6.19,6.19,0,0,0-1.7-.6,10.16,10.16,0,0,0-2.38-.26,4.81,4.81,0,0,0-2.84.72,2.23,2.23,0,0,0-1,1.88,2,2,0,0,0,1.05,1.74,14.88,14.88,0,0,0,3.63,1.45,14.56,14.56,0,0,1,5.6,2.54,5.13,5.13,0,0,1,1.91,4.15,4.89,4.89,0,0,1-2.27,4.24,10.44,10.44,0,0,1-6,1.55,13.91,13.91,0,0,1-4.79-.79,10,10,0,0,1-3.56-2.19v-4.36H2610l.48,3a5.57,5.57,0,0,0,1.83.85,9,9,0,0,0,2.58.34,4.68,4.68,0,0,0,2.8-.7,2.22,2.22,0,0,0,1-1.88,2.36,2.36,0,0,0-.92-1.94,9.36,9.36,0,0,0-3.19-1.38,18.72,18.72,0,0,1-6-2.56,4.71,4.71,0,0,1-2-4,4.87,4.87,0,0,1,2.29-4.15,10,10,0,0,1,5.78-1.66,14.2,14.2,0,0,1,4.69.73,11.07,11.07,0,0,1,3.55,2Z"/><path class="cls-7" d="M2366.75,229v-2.52h6.49l.22,1.81a5.32,5.32,0,0,1,1.76-1.56,5,5,0,0,1,2.39-.54,5.64,5.64,0,0,1,4.78,2.25,9.57,9.57,0,0,1,1.7,5.93v.31a8.5,8.5,0,0,1-1.7,5.54,5.77,5.77,0,0,1-4.75,2.1,5.6,5.6,0,0,1-2.31-.46,4.65,4.65,0,0,1-1.73-1.32V245l2.16.43V248H2367v-2.53l2.16-.43v-15.6Zm12.87,5.37a7.14,7.14,0,0,0-.78-3.56,2.58,2.58,0,0,0-2.39-1.36,3.57,3.57,0,0,0-1.73.39,2.76,2.76,0,0,0-1.12,1.1v6.81a2.65,2.65,0,0,0,1.12,1,4,4,0,0,0,1.76.35,2.63,2.63,0,0,0,2.38-1.19,5.94,5.94,0,0,0,.76-3.23Z"/><path class="cls-7" d="M2386.42,239.46l2.15-.43v-9.64l-2.38-.43v-2.52h6.54l.2,2.27a5,5,0,0,1,1.5-1.89,3.53,3.53,0,0,1,2.13-.67,6.59,6.59,0,0,1,.75,0,4,4,0,0,1,.65.12l-.48,3.82-1.84,0a3.29,3.29,0,0,0-1.62.36,2.35,2.35,0,0,0-1,1V239l2.15.43V242h-8.77Z"/><path class="cls-7" d="M2399,234.06a8,8,0,0,1,2.08-5.69,8.56,8.56,0,0,1,11.49,0,8,8,0,0,1,2.08,5.7v.3a8,8,0,0,1-2.08,5.71,7.47,7.47,0,0,1-5.72,2.21,7.56,7.56,0,0,1-5.77-2.21,8,8,0,0,1-2.08-5.71Zm4.48.3a6.31,6.31,0,0,0,.8,3.41,3.18,3.18,0,0,0,5.11,0,6.45,6.45,0,0,0,.8-3.41v-.3a6.3,6.3,0,0,0-.81-3.37,2.8,2.8,0,0,0-2.56-1.31,2.75,2.75,0,0,0-2.54,1.31,6.3,6.3,0,0,0-.8,3.37Z"/><path class="cls-7" d="M2423.38,229l-1.56.28,2.19,6.95.29,1.46h.09l.32-1.46,2.16-6.94-1.59-.29v-2.52h7.52V229l-1.44.22L2426.47,242h-4.27l-4.9-12.79-1.44-.22v-2.52h7.52Z"/><path class="cls-7" d="M2434.09,239.46l2.16-.43v-9.64l-2.39-.43v-2.52h6.86V239l2.15.43V242h-8.78Zm6.63-16.74h-4.47v-3.15h4.47Z"/><path class="cls-7" d="M2457.87,231.78h-3l-.48-1.94a4.19,4.19,0,0,0-1.16-.58,4.92,4.92,0,0,0-1.53-.22,3.14,3.14,0,0,0-1.87.49,1.49,1.49,0,0,0-.69,1.24,1.4,1.4,0,0,0,.65,1.17,7.41,7.41,0,0,0,2.64.83,11,11,0,0,1,4.57,1.69,3.61,3.61,0,0,1,1.48,3.06,4,4,0,0,1-1.92,3.43,8.78,8.78,0,0,1-5.06,1.33,11.25,11.25,0,0,1-3.52-.53,9.07,9.07,0,0,1-2.84-1.5l0-3.49h3.13l.61,2a2.62,2.62,0,0,0,1.09.46,6.76,6.76,0,0,0,1.44.15,3.78,3.78,0,0,0,2.07-.46,1.4,1.4,0,0,0,.72-1.24,1.46,1.46,0,0,0-.72-1.2,7.86,7.86,0,0,0-2.65-.89,10.78,10.78,0,0,1-4.42-1.66,3.51,3.51,0,0,1-1.5-3,4.25,4.25,0,0,1,1.72-3.37,7.49,7.49,0,0,1,4.88-1.41,13.21,13.21,0,0,1,3.66.49,7.72,7.72,0,0,1,2.7,1.25Z"/><path class="cls-7" d="M2460.35,239.46l2.16-.43v-9.64l-2.39-.43v-2.52H2467V239l2.14.43V242h-8.78Zm6.64-16.74h-4.48v-3.15H2467Z"/><path class="cls-7" d="M2470.6,234.06a8,8,0,0,1,2.08-5.69,8.56,8.56,0,0,1,11.49,0,8,8,0,0,1,2.08,5.7v.3a8,8,0,0,1-2.08,5.71,8.57,8.57,0,0,1-11.49,0,8,8,0,0,1-2.08-5.71Zm4.48.3a6.4,6.4,0,0,0,.79,3.41,2.8,2.8,0,0,0,2.58,1.29,2.76,2.76,0,0,0,2.53-1.29,6.35,6.35,0,0,0,.81-3.41v-.3a6.3,6.3,0,0,0-.81-3.37,2.81,2.81,0,0,0-2.56-1.31,2.76,2.76,0,0,0-2.55,1.31,6.39,6.39,0,0,0-.79,3.37Z"/><path class="cls-7" d="M2488,239.46l2.14-.43v-9.64l-2.37-.43v-2.52h6.54l.2,2.22a5.91,5.91,0,0,1,2-1.85,5.55,5.55,0,0,1,2.71-.66,5.15,5.15,0,0,1,3.92,1.48,6.52,6.52,0,0,1,1.41,4.64V239l2.15.43V242h-8.55v-2.51l1.91-.43v-6.75a3,3,0,0,0-.67-2.22,2.85,2.85,0,0,0-2-.65,3.57,3.57,0,0,0-1.59.34,3.13,3.13,0,0,0-1.18.95V239l1.81.43V242H2488Z"/><path class="cls-7" d="M2521.64,231.78h-3l-.48-1.94a4.12,4.12,0,0,0-1.15-.58,5,5,0,0,0-1.54-.22,3.14,3.14,0,0,0-1.87.49,1.49,1.49,0,0,0-.69,1.24,1.39,1.39,0,0,0,.66,1.17,7.34,7.34,0,0,0,2.63.83,11,11,0,0,1,4.57,1.69,3.61,3.61,0,0,1,1.49,3.06,4,4,0,0,1-1.93,3.43,8.78,8.78,0,0,1-5.06,1.33,11.25,11.25,0,0,1-3.52-.53,9.18,9.18,0,0,1-2.84-1.5l0-3.49H2512l.61,2a2.68,2.68,0,0,0,1.09.46,6.76,6.76,0,0,0,1.44.15,3.84,3.84,0,0,0,2.08-.46,1.41,1.41,0,0,0,.71-1.24,1.46,1.46,0,0,0-.72-1.2,7.86,7.86,0,0,0-2.65-.89,10.84,10.84,0,0,1-4.42-1.66,3.51,3.51,0,0,1-1.5-3,4.28,4.28,0,0,1,1.72-3.37,7.5,7.5,0,0,1,4.89-1.41,13.19,13.19,0,0,1,3.65.49,7.86,7.86,0,0,1,2.71,1.25Z"/><path class="cls-7" d="M2545.48,231.78h-3l-.47-1.94a4.33,4.33,0,0,0-1.16-.58,5,5,0,0,0-1.54-.22,3.14,3.14,0,0,0-1.87.49,1.49,1.49,0,0,0-.69,1.24,1.39,1.39,0,0,0,.66,1.17,7.41,7.41,0,0,0,2.63.83,11,11,0,0,1,4.57,1.69,3.61,3.61,0,0,1,1.49,3.06,4,4,0,0,1-1.93,3.43,8.78,8.78,0,0,1-5.06,1.33,11.25,11.25,0,0,1-3.52-.53,9.29,9.29,0,0,1-2.84-1.5l0-3.49h3.12l.61,2a2.68,2.68,0,0,0,1.09.46,6.76,6.76,0,0,0,1.44.15,3.84,3.84,0,0,0,2.08-.46,1.41,1.41,0,0,0,.71-1.24,1.46,1.46,0,0,0-.72-1.2,7.78,7.78,0,0,0-2.65-.89A10.84,10.84,0,0,1,2534,234a3.51,3.51,0,0,1-1.5-3,4.28,4.28,0,0,1,1.72-3.37,7.5,7.5,0,0,1,4.89-1.41,13.14,13.14,0,0,1,3.65.49,7.86,7.86,0,0,1,2.71,1.25Z"/><path class="cls-7" d="M2556,242.28a7.71,7.71,0,0,1-5.73-2.16,7.42,7.42,0,0,1-2.14-5.47v-.57a8.12,8.12,0,0,1,2-5.7,7.93,7.93,0,0,1,10.65-.34,7,7,0,0,1,1.86,5.13v2.29h-9.9l0,.08a3.9,3.9,0,0,0,1.09,2.53,3.55,3.55,0,0,0,2.65,1,9,9,0,0,0,2.46-.28,12.06,12.06,0,0,0,2.15-.88l1.21,2.58a9.16,9.16,0,0,1-2.66,1.28A12.17,12.17,0,0,1,2556,242.28Zm-.4-12.9a2.4,2.4,0,0,0-2,.89,4.5,4.5,0,0,0-.89,2.34l.05.07h5.48v-.37a3.23,3.23,0,0,0-.66-2.13A2.5,2.5,0,0,0,2555.64,229.38Z"/><path class="cls-7" d="M2572.61,239.06a2.76,2.76,0,0,0,1.91-.65,2.26,2.26,0,0,0,.72-1.75h4.05l0,.09a4.74,4.74,0,0,1-1.88,3.94,8.36,8.36,0,0,1-10.56-.61,8.06,8.06,0,0,1-2-5.65V234a8,8,0,0,1,2.06-5.64,7.68,7.68,0,0,1,5.88-2.21,10.63,10.63,0,0,1,3.6.56,7.12,7.12,0,0,1,2.65,1.58l.06,4.15h-3.63l-.73-2.43a3,3,0,0,0-.83-.45,3.25,3.25,0,0,0-1.12-.18,2.87,2.87,0,0,0-2.68,1.29,6.36,6.36,0,0,0-.78,3.33v.43a6.81,6.81,0,0,0,.72,3.36A2.65,2.65,0,0,0,2572.61,239.06Z"/><path class="cls-7" d="M2581.69,239.46l2.15-.43v-9.64l-2.38-.43v-2.52H2588l.2,2.27a4.89,4.89,0,0,1,1.51-1.89,3.49,3.49,0,0,1,2.13-.67,6.57,6.57,0,0,1,.74,0,4,4,0,0,1,.65.12l-.48,3.82-1.83,0a3.31,3.31,0,0,0-1.63.36,2.41,2.41,0,0,0-1,1V239l2.15.43V242h-8.77Z"/><path class="cls-7" d="M2602.21,242.28a7.71,7.71,0,0,1-5.73-2.16,7.42,7.42,0,0,1-2.15-5.47v-.57a8.17,8.17,0,0,1,2-5.7A7.94,7.94,0,0,1,2607,228a7,7,0,0,1,1.85,5.13v2.29H2599l0,.08a4,4,0,0,0,1.1,2.53,3.54,3.54,0,0,0,2.64,1,9,9,0,0,0,2.47-.28,12,12,0,0,0,2.14-.88l1.22,2.58a9.16,9.16,0,0,1-2.66,1.28A12.17,12.17,0,0,1,2602.21,242.28Zm-.4-12.9a2.39,2.39,0,0,0-2,.89,4.42,4.42,0,0,0-.89,2.34l.05.07h5.48v-.37a3.18,3.18,0,0,0-.67-2.13A2.47,2.47,0,0,0,2601.81,229.38Z"/><path class="cls-7" d="M2617.59,222.63v3.81h2.91v2.94h-2.91v7.91a1.74,1.74,0,0,0,.4,1.29,1.47,1.47,0,0,0,1.07.39q.46,0,.81,0l.77-.12.39,3a12.06,12.06,0,0,1-1.49.32,11.24,11.24,0,0,1-1.59.11,4.94,4.94,0,0,1-3.57-1.2,5,5,0,0,1-1.25-3.77v-7.93h-2.43v-2.94h2.43v-3.81Z"/><path class="cls-7" d="M2636.22,231.78h-3l-.47-1.94a4.33,4.33,0,0,0-1.16-.58,5,5,0,0,0-1.54-.22,3.14,3.14,0,0,0-1.87.49,1.49,1.49,0,0,0-.69,1.24,1.39,1.39,0,0,0,.66,1.17,7.41,7.41,0,0,0,2.64.83,11,11,0,0,1,4.56,1.69,3.61,3.61,0,0,1,1.49,3.06,4,4,0,0,1-1.93,3.43,8.78,8.78,0,0,1-5.06,1.33,11.25,11.25,0,0,1-3.52-.53,9.29,9.29,0,0,1-2.84-1.5l0-3.49h3.12l.61,2a2.68,2.68,0,0,0,1.09.46,6.76,6.76,0,0,0,1.44.15,3.84,3.84,0,0,0,2.08-.46,1.41,1.41,0,0,0,.71-1.24,1.46,1.46,0,0,0-.72-1.2,7.78,7.78,0,0,0-2.65-.89,10.89,10.89,0,0,1-4.42-1.66,3.5,3.5,0,0,1-1.49-3,4.27,4.27,0,0,1,1.71-3.37,7.54,7.54,0,0,1,4.89-1.41,13.09,13.09,0,0,1,3.65.49,7.78,7.78,0,0,1,2.71,1.25Z"/><g id="Scone_logo_white-4" data-name="Scone logo white"><g class="cls-17"><g class="cls-17"><path class="cls-10" d="M2397.07,173.27h-3.48a1.35,1.35,0,0,0-1.35,1.34v3.56a1.35,1.35,0,0,0,1.35,1.34h3.48a1.35,1.35,0,0,0,1.35-1.34v-3.56a1.35,1.35,0,0,0-1.35-1.34m-12.14,6.24h3.49a1.34,1.34,0,0,0,1.34-1.34v-3.56a1.34,1.34,0,0,0-1.34-1.34h-3.49a1.34,1.34,0,0,0-1.34,1.34v3.56a1.34,1.34,0,0,0,1.34,1.34m-3.76-1.34v-3.56a1.34,1.34,0,0,0-1.34-1.34h-3.49a1.34,1.34,0,0,0-1.34,1.34v3.56a1.34,1.34,0,0,0,1.34,1.34h3.49a1.34,1.34,0,0,0,1.34-1.34m16.17,3.82a1,1,0,0,0-1,1v4.16a1,1,0,0,0,2,0V183a1,1,0,0,0-1-1m-9.59,1.34v3.56a1.34,1.34,0,0,0,1.34,1.34h3.49a1.34,1.34,0,0,0,1.34-1.34v-3.56a1.35,1.35,0,0,0-1.34-1.34h-3.49a1.35,1.35,0,0,0-1.34,1.34m-2.48,3.56v-3.56a1.36,1.36,0,0,0-1.35-1.34h-3.49a1.35,1.35,0,0,0-1.34,1.34v3.56a1.35,1.35,0,0,0,1.34,1.34h3.49a1.35,1.35,0,0,0,1.35-1.34m11.8,3.82h-3.48a1.36,1.36,0,0,0-1.35,1.35v3.55a1.35,1.35,0,0,0,1.35,1.34h3.48a1.35,1.35,0,0,0,1.35-1.34v-3.55a1.36,1.36,0,0,0-1.35-1.35m-9.05,0h-3.49a1.35,1.35,0,0,0-1.34,1.35v3.55a1.34,1.34,0,0,0,1.34,1.34H2388a1.35,1.35,0,0,0,1.34-1.34v-3.55a1.36,1.36,0,0,0-1.34-1.35"/><path class="cls-10" d="M2401.3,171.86a8,8,0,0,0,5.44,1.68c.13,0,.06.13.06.27v9.59c0,3.69-4.49,6-5.57,6.58-.13.06-.13-.07-.13-.07l.07-18c-.07,0,.06-.14.13-.07"/><path class="cls-10" d="M2390.77,171.39c7.38-.27,8.59-2.82,8.59-2.82a.36.36,0,0,1,.33-.2c.14,0,.27,0,.34.14s1.14,2.75,8.52,2.75c.2,0,.27.13.27.33v12.62c0,4-7.65,8.58-7.79,8.65s-.27.2-.27.27v3.15c0,.14.47.2.68.14,2.81-1.55,10.73-5.91,10.73-11.27V169c0-.27-.47-.47-.74-.47-9.39,0-11.14-3.42-11.14-3.42-.06-.2-.4-.13-.6-.13s-.33-.07-.4.06-1.54,3.56-10.87,3.56c-.34,0-.4.13-.4.4v2s-.07.47.26.47,2.49-.14,2.49-.14"/><path class="cls-11" d="M2419.15,192l3.76-1.41a5.14,5.14,0,0,0,4.89,2.82,5.43,5.43,0,0,0,2.89-.67,2.31,2.31,0,0,0,1.21-2c0-2-2.75-3.22-4.77-4l-.13-.07a17.35,17.35,0,0,1-4.36-2.41,5.46,5.46,0,0,1-2.15-4.43,5.94,5.94,0,0,1,2.21-4.63,8.6,8.6,0,0,1,5.57-1.88,8,8,0,0,1,7.38,4l-3.89,1.47a3.09,3.09,0,0,0-1.34-1.41,5.28,5.28,0,0,0-2.15-.47c-2.14,0-3.62,1.14-3.62,2.69a3,3,0,0,0,1.48,2.41,19.84,19.84,0,0,0,3.35,1.75l.47.2c2.89,1.21,6.44,2.75,6.44,6.64a5.57,5.57,0,0,1-2.55,4.76,10.26,10.26,0,0,1-6.1,1.75c-4-.07-7.32-2-8.59-5.1"/><path class="cls-11" d="M2452.43,197a12,12,0,0,1-4.63-.94,10.91,10.91,0,0,1-3.76-2.55,11,11,0,0,1-2.55-3.76,11.85,11.85,0,0,1,0-9.25,11,11,0,0,1,2.55-3.76,10.91,10.91,0,0,1,3.76-2.55,12,12,0,0,1,4.63-.94,11.54,11.54,0,0,1,5.37,1.27,12,12,0,0,1,4.09,3.43l-3.16,2.34A8.22,8.22,0,0,0,2456,178a8.53,8.53,0,0,0-3.62-.87,8,8,0,0,0-8,8,7.81,7.81,0,0,0,2.34,5.63,7.84,7.84,0,0,0,9.67,1.21,8.22,8.22,0,0,0,2.88-3l3.42,1.94a11.58,11.58,0,0,1-4.29,4.36,10.88,10.88,0,0,1-6,1.68"/><path class="cls-11" d="M2478.39,197.09a12.24,12.24,0,0,1-4.63-.94,11.11,11.11,0,0,1-3.75-2.55,11.81,11.81,0,0,1-2.55-3.76,12,12,0,0,1-.94-4.63,11,11,0,0,1,.94-4.63,11.77,11.77,0,0,1,2.55-3.75,12.18,12.18,0,0,1,3.75-2.55,11.87,11.87,0,0,1,9.26,0,10.77,10.77,0,0,1,3.76,2.55,11.93,11.93,0,0,1,2.55,3.75,11.87,11.87,0,0,1,0,9.26,12,12,0,0,1-2.55,3.76,12.59,12.59,0,0,1-3.76,2.55,12.2,12.2,0,0,1-4.63.94m0-19.93a7.7,7.7,0,0,0-5.63,2.35,8,8,0,0,0-2.35,5.64,7.66,7.66,0,0,0,2.35,5.63,7.93,7.93,0,0,0,11.27,0,7.94,7.94,0,0,0,2.35-5.63,8.07,8.07,0,0,0-2.35-5.64,8,8,0,0,0-5.64-2.35"/><polygon class="cls-11" points="2517.24 173.47 2517.24 197.63 2500.6 182.33 2500.6 196.69 2496.38 196.69 2496.38 172.6 2513.01 187.96 2513.01 173.47 2517.24 173.47"/><polygon class="cls-11" points="2528.58 177.03 2528.58 183.2 2540.19 183.2 2540.19 186.82 2528.58 186.82 2528.58 193.06 2541.6 193.06 2541.6 196.69 2524.35 196.69 2524.35 173.47 2541.6 173.47 2541.6 177.09 2528.58 177.09 2528.58 177.03"/></g></g></g></svg>