<svg id="Ebene_1" data-name="Ebene 1" xmlns="http://www.w3.org/2000/svg" xmlns:xlink="http://www.w3.org/1999/xlink" viewBox="0 0 484 370"><defs><style>.cls-1,.cls-10,.cls-12,.cls-13,.cls-14,.cls-16,.cls-21{fill:none;}.cls-10,.cls-15,.cls-16,.cls-17,.cls-2{stroke:#fc0;}.cls-10,.cls-14,.cls-17,.cls-2,.cls-21{stroke-miterlimit:10;}.cls-10,.cls-14,.cls-15,.cls-16,.cls-17,.cls-2,.cls-20,.cls-21{stroke-width:2px;}.cls-2{fill:url(#Unbenannter_Verlauf_12);}.cls-3{clip-path:url(#clip-path);}.cls-4{fill:#ffd138;}.cls-5{fill:#fdfeff;}.cls-15,.cls-20,.cls-6{fill:#fff;}.cls-7{fill:#fc0;}.cls-8{fill:#39f;}.cls-9{fill:#3c9;}.cls-11{fill:#306;}.cls-12,.cls-13,.cls-21{stroke:#306;}.cls-12,.cls-15,.cls-16,.cls-20{stroke-linecap:round;}.cls-12,.cls-13,.cls-15,.cls-16,.cls-20{stroke-linejoin:round;}.cls-14,.cls-20{stroke:#635384;}.cls-14{opacity:0.6;}.cls-17{fill:url(#Unbenannter_Verlauf_12-2);}.cls-18{clip-path:url(#clip-path-3);}.cls-19{fill:#635384;}</style><linearGradient id="Unbenannter_Verlauf_12" x1="304.48" y1="202.26" x2="219.22" y2="202.26" gradientUnits="userSpaceOnUse"><stop offset="0" stop-color="#906"/><stop offset="0.19" stop-color="#780066"/><stop offset="0.4" stop-color="#5a0066"/><stop offset="0.61" stop-color="#406"/><stop offset="0.81" stop-color="#370066"/><stop offset="1" stop-color="#306"/></linearGradient><clipPath id="clip-path"><rect class="cls-1" x="244" y="225" width="36.34" height="7.12"/></clipPath><linearGradient id="Unbenannter_Verlauf_12-2" x1="227.48" y1="94.26" x2="142.22" y2="94.26" xlink:href="#Unbenannter_Verlauf_12"/><clipPath id="clip-path-3"><rect class="cls-1" x="167" y="117" width="36.34" height="7.12"/></clipPath></defs><title>Running external Services 1</title><rect class="cls-2" x="219.22" y="166.52" width="85.27" height="71.48" rx="4"/><g id="Scone_logo_white" data-name="Scone logo white"><g class="cls-3"><g class="cls-3"><path class="cls-4" d="M248.81,226.8h-.76a.3.3,0,0,0-.29.3v.77a.29.29,0,0,0,.29.29h.76a.29.29,0,0,0,.3-.29v-.77a.3.3,0,0,0-.3-.3m-2.64,1.36h.76a.29.29,0,0,0,.29-.29v-.77a.3.3,0,0,0-.29-.3h-.76a.3.3,0,0,0-.3.3v.77a.29.29,0,0,0,.3.29m-.82-.29v-.77a.31.31,0,0,0-.3-.3h-.76a.3.3,0,0,0-.29.3v.77a.29.29,0,0,0,.29.29h.76a.3.3,0,0,0,.3-.29m3.52.84a.23.23,0,0,0-.22.22v.9a.23.23,0,0,0,.22.22.22.22,0,0,0,.22-.22v-.9a.2.2,0,0,0-.22-.22m-2.09.29v.77a.29.29,0,0,0,.29.3h.76a.29.29,0,0,0,.3-.3V229a.29.29,0,0,0-.3-.29h-.76a.29.29,0,0,0-.29.29m-.54.77V229a.29.29,0,0,0-.29-.29h-.76a.29.29,0,0,0-.3.29v.77a.29.29,0,0,0,.3.3H246a.29.29,0,0,0,.29-.3m2.57.84h-.76a.29.29,0,0,0-.29.29v.78a.29.29,0,0,0,.29.29h.76a.29.29,0,0,0,.3-.29v-.78a.29.29,0,0,0-.3-.29m-2,0h-.76a.29.29,0,0,0-.29.29v.78a.29.29,0,0,0,.29.29h.76a.29.29,0,0,0,.29-.29v-.78a.29.29,0,0,0-.29-.29"/><path class="cls-4" d="M249.74,226.5a1.77,1.77,0,0,0,1.18.36s0,0,0,.06V229c0,.81-1,1.31-1.22,1.44a0,0,0,0,1,0,0l0-3.92s0,0,0,0"/><path class="cls-4" d="M247.44,226.39c1.61,0,1.87-.61,1.87-.61a.09.09,0,0,1,.08,0,.1.1,0,0,1,.07,0s.25.6,1.86.6c0,0,.06,0,.06.08v2.75c0,.88-1.67,1.87-1.7,1.89s-.06,0-.06.06v.68s.1.05.15,0c.61-.33,2.34-1.29,2.34-2.46v-3.51c0-.06-.1-.1-.16-.1-2,0-2.43-.75-2.43-.75s-.09,0-.13,0-.08,0-.09,0-.34.77-2.37.77c-.08,0-.09,0-.09.09v.44s0,.1.06.1l.54,0"/><path class="cls-5" d="M253.63,230.89l.82-.31a1.11,1.11,0,0,0,1.07.61,1.2,1.2,0,0,0,.63-.14.51.51,0,0,0,.26-.44c0-.44-.6-.7-1-.88h0a4.25,4.25,0,0,1-1-.53,1.2,1.2,0,0,1-.47-1,1.3,1.3,0,0,1,.49-1,1.86,1.86,0,0,1,1.21-.41,1.76,1.76,0,0,1,1.61.88l-.85.32a.65.65,0,0,0-.29-.3,1.12,1.12,0,0,0-.47-.11c-.47,0-.79.25-.79.59a.66.66,0,0,0,.32.53,5.53,5.53,0,0,0,.73.38l.11,0c.63.26,1.4.6,1.4,1.45a1.22,1.22,0,0,1-.56,1,2.21,2.21,0,0,1-1.33.38,2,2,0,0,1-1.87-1.11"/><path class="cls-5" d="M260.89,232a2.67,2.67,0,0,1-1-.2,2.68,2.68,0,0,1-1.38-1.38,2.64,2.64,0,0,1-.2-1,2.71,2.71,0,0,1,.2-1,2.5,2.5,0,0,1,.56-.82,2.42,2.42,0,0,1,.82-.55,2.68,2.68,0,0,1,1-.21,2.52,2.52,0,0,1,1.17.28,2.59,2.59,0,0,1,.89.75l-.69.51a1.83,1.83,0,0,0-.6-.5,1.91,1.91,0,0,0-.79-.19,1.74,1.74,0,0,0-1.23,3,1.73,1.73,0,0,0,2.74-.38l.75.43a2.59,2.59,0,0,1-.94,1,2.34,2.34,0,0,1-1.3.36"/><path class="cls-5" d="M266.55,232a2.5,2.5,0,0,1-1-.21,2.47,2.47,0,0,1-.82-.55,2.69,2.69,0,0,1-.55-.82,2.5,2.5,0,0,1-.21-1,2.35,2.35,0,0,1,.21-1,2.57,2.57,0,0,1,.55-.82,2.72,2.72,0,0,1,.82-.56,2.65,2.65,0,0,1,2,0,2.31,2.31,0,0,1,.82.56,2.44,2.44,0,0,1,.56.82,2.65,2.65,0,0,1,0,2,2.55,2.55,0,0,1-.56.82,2.69,2.69,0,0,1-.82.55,2.5,2.5,0,0,1-1,.21m0-4.35a1.7,1.7,0,0,0-1.23.51,1.78,1.78,0,0,0-.51,1.23,1.73,1.73,0,0,0,3,1.23,1.74,1.74,0,0,0,.51-1.23,1.79,1.79,0,0,0-.51-1.23,1.74,1.74,0,0,0-1.23-.51"/><polygon class="cls-5" points="275.03 226.85 275.03 232.12 271.4 228.78 271.4 231.91 270.47 231.91 270.47 226.66 274.1 230.01 274.1 226.85 275.03 226.85"/><polygon class="cls-5" points="277.5 227.62 277.5 228.97 280.03 228.97 280.03 229.76 277.5 229.76 277.5 231.12 280.34 231.12 280.34 231.91 276.58 231.91 276.58 226.85 280.34 226.85 280.34 227.64 277.5 227.64 277.5 227.62"/></g></g></g><path class="cls-6" d="M239.65,199.1h-1.27L238.2,198a1.84,1.84,0,0,0-.63-.4,2.52,2.52,0,0,0-.91-.14,2,2,0,0,0-1.71.8,3.47,3.47,0,0,0-.6,2.11v.3a3.5,3.5,0,0,0,.59,2.12,2,2,0,0,0,1.69.81,3,3,0,0,0,.92-.14,1.64,1.64,0,0,0,.65-.4l.18-1.14h1.27v1.69a3.7,3.7,0,0,1-1.32,1,4.3,4.3,0,0,1-1.79.35,3.63,3.63,0,0,1-2.81-1.19,4.33,4.33,0,0,1-1.1-3.05v-.29a4.4,4.4,0,0,1,1.09-3.05,3.67,3.67,0,0,1,2.82-1.19,4.3,4.3,0,0,1,1.79.36,3.79,3.79,0,0,1,1.32.95Z"/><path class="cls-6" d="M240.35,203.73l.61-.09,2.59-7.42h1.75l2.58,7.42.61.09v1h-2.91v-1l.6-.11-.38-1.17H243l-.38,1.17.59.11v1h-2.9Zm3.09-2.54h2l-1-3h0Z"/><path class="cls-6" d="M255.53,198.94h-1.28l-.22-1.17a2.48,2.48,0,0,0-.65-.24,3.84,3.84,0,0,0-.91-.11,1.74,1.74,0,0,0-1.09.3.92.92,0,0,0-.38.76.82.82,0,0,0,.4.71,5.16,5.16,0,0,0,1.39.59,5.41,5.41,0,0,1,2.14,1,2.16,2.16,0,0,1,.73,1.69,2,2,0,0,1-.87,1.73,3.81,3.81,0,0,1-2.29.63,4.89,4.89,0,0,1-1.83-.32,3.7,3.7,0,0,1-1.36-.89v-1.78h1.32l.19,1.21a2,2,0,0,0,.7.35,3.31,3.31,0,0,0,1,.14,1.71,1.71,0,0,0,1.07-.29.92.92,0,0,0,.37-.77,1,1,0,0,0-.35-.79,3.58,3.58,0,0,0-1.22-.56,7,7,0,0,1-2.3-1,2,2,0,0,1-.78-1.65,2,2,0,0,1,.88-1.7,3.65,3.65,0,0,1,2.21-.68,5.09,5.09,0,0,1,1.79.3,4.11,4.11,0,0,1,1.36.8Z"/><path class="cls-6" d="M259.37,204.75v-1.12l2.76-3a6.6,6.6,0,0,0,.85-1.15,1.88,1.88,0,0,0,.25-.88,1.28,1.28,0,0,0-.29-.88,1,1,0,0,0-.82-.34,1,1,0,0,0-.9.4,1.66,1.66,0,0,0-.31,1.07h-1.66v0a2.55,2.55,0,0,1,.76-1.95,2.8,2.8,0,0,1,2.12-.8,3,3,0,0,1,2.07.68,2.34,2.34,0,0,1,.76,1.83,2.53,2.53,0,0,1-.43,1.43,13.12,13.12,0,0,1-1.4,1.71l-1.52,1.66v0h2.21l.07-.85h1.31v2.16Z"/><path class="cls-7" d="M291.61,204.05H281.43a4.72,4.72,0,1,0,0,2.28h3l1.35,1.35,1.36-1.35h.18l.86.86.8-.8,1.3,1.29,1.45-1.45,1.09-1ZM275,206.44a1.25,1.25,0,1,1,1.24-1.25A1.25,1.25,0,0,1,275,206.44Z"/><path class="cls-8" d="M291.61,199.77H281.43a4.73,4.73,0,1,0,0,2.27h3l1.35,1.36,1.36-1.36h.18l.86.87.8-.81,1.3,1.3,1.45-1.45,1.09-1ZM275,202.15a1.25,1.25,0,1,1,1.24-1.24A1.24,1.24,0,0,1,275,202.15Z"/><path class="cls-9" d="M291.61,195.25H281.43a4.72,4.72,0,1,0,0,2.28h3l1.35,1.35,1.36-1.35h.18l.86.86.8-.8,1.3,1.29,1.45-1.45,1.09-1ZM275,197.64a1.25,1.25,0,1,1,1.24-1.25A1.25,1.25,0,0,1,275,197.64Z"/><rect class="cls-10" x="68.22" y="165.52" width="85.27" height="71.48" rx="4"/><path class="cls-11" d="M84.55,197.22a3.34,3.34,0,0,1,2.31.75,2.49,2.49,0,0,1,.85,2,2.47,2.47,0,0,1-.85,2,3.34,3.34,0,0,1-2.31.75H83.11v1.89l.91.18v1H80.49v-1l.91-.18v-6.12l-.91-.18v-1h4.06Zm-1.44,4.12h1.44a1.4,1.4,0,0,0,1.08-.39,1.37,1.37,0,0,0,.37-1,1.44,1.44,0,0,0-.37-1,1.37,1.37,0,0,0-1.08-.4H83.11Z"/><path class="cls-11" d="M88.22,202.52A3.38,3.38,0,0,1,89,200.2a3.11,3.11,0,0,1,4.4,0,3.37,3.37,0,0,1,.79,2.32v.13a3.35,3.35,0,0,1-.79,2.32,2.77,2.77,0,0,1-2.19.9A2.8,2.8,0,0,1,89,205a3.35,3.35,0,0,1-.79-2.32Zm1.71.13a2.81,2.81,0,0,0,.3,1.39,1.07,1.07,0,0,0,1,.52,1,1,0,0,0,1-.53,2.76,2.76,0,0,0,.31-1.38v-.13a2.75,2.75,0,0,0-.31-1.37,1.16,1.16,0,0,0-2,0,2.75,2.75,0,0,0-.3,1.37Z"/><path class="cls-11" d="M94.65,197.64v-1h2.62v7.94l.83.18v1H94.73v-1l.83-.18v-6.73Z"/><path class="cls-11" d="M98.6,204.73l.83-.18v-3.93l-.92-.18v-1h2.63v5.14l.82.18v1H98.6Zm2.54-6.84H99.43v-1.28h1.71Z"/><path class="cls-11" d="M105.5,204.56a1,1,0,0,0,.73-.27.94.94,0,0,0,.28-.71h1.54l0,0a2,2,0,0,1-.72,1.61,3.07,3.07,0,0,1-4-.25,3.45,3.45,0,0,1-.77-2.31v-.17a3.4,3.4,0,0,1,.79-2.3,2.82,2.82,0,0,1,2.25-.91,4,4,0,0,1,1.38.23,2.71,2.71,0,0,1,1,.65l0,1.69h-1.38l-.29-1a.94.94,0,0,0-.31-.18,1.18,1.18,0,0,0-.43-.08,1.1,1.1,0,0,0-1,.53,2.83,2.83,0,0,0-.29,1.36v.17a3,3,0,0,0,.27,1.37A1,1,0,0,0,105.5,204.56Z"/><path class="cls-11" d="M115.41,200.44l-.6.09-2.33,6.17a3.43,3.43,0,0,1-.73,1.15,1.88,1.88,0,0,1-1.39.46,2.73,2.73,0,0,1-.41,0l-.44-.1.2-1.25.17,0H110a1,1,0,0,0,.65-.2,1.47,1.47,0,0,0,.36-.52l.19-.48-2-5.22-.59-.1v-1h3.1v1l-.71.12.87,2.53.09.46h0l1-3-.72-.12v-1h3.11Z"/><path class="cls-7" d="M141.61,201.05H131.43a4.72,4.72,0,1,0,0,2.28h3l1.35,1.35,1.36-1.35h.18l.86.86.8-.8,1.3,1.29,1.45-1.45,1.09-1ZM125,203.44a1.25,1.25,0,1,1,1.24-1.25A1.25,1.25,0,0,1,125,203.44Z"/><path class="cls-11" d="M220.19,353.71H219l-.19-.81a1.37,1.37,0,0,0-.45-.24,1.89,1.89,0,0,0-.6-.1,1.15,1.15,0,0,0-.73.21.63.63,0,0,0-.27.52.59.59,0,0,0,.26.48,2.69,2.69,0,0,0,1,.35,4.2,4.2,0,0,1,1.78.7,1.53,1.53,0,0,1,.58,1.28,1.69,1.69,0,0,1-.75,1.42,3.25,3.25,0,0,1-2,.56,4.32,4.32,0,0,1-1.37-.22,3.8,3.8,0,0,1-1.11-.63v-1.45h1.21l.24.84a1,1,0,0,0,.43.2,2.6,2.6,0,0,0,.56.06,1.41,1.41,0,0,0,.81-.19.62.62,0,0,0,.28-.52.64.64,0,0,0-.28-.5,2.91,2.91,0,0,0-1-.37,4,4,0,0,1-1.72-.69,1.48,1.48,0,0,1-.58-1.24,1.81,1.81,0,0,1,.67-1.41,2.79,2.79,0,0,1,1.9-.59,4.8,4.8,0,0,1,1.43.21,2.86,2.86,0,0,1,1,.52Z"/><path class="cls-11" d="M223.79,349.9v1.58h1.14v1.23h-1.14V356a.74.74,0,0,0,.16.54.53.53,0,0,0,.41.16h.32l.3-.06.15,1.27a4.35,4.35,0,0,1-.58.13,4,4,0,0,1-.62.05,1.86,1.86,0,0,1-1.39-.5,2.16,2.16,0,0,1-.49-1.57v-3.3h-1v-1.23h1V349.9Z"/><path class="cls-11" d="M229.9,358c-.05-.11-.09-.22-.13-.33s-.06-.23-.08-.35a2.3,2.3,0,0,1-.76.58,2.42,2.42,0,0,1-2.53-.29,1.85,1.85,0,0,1-.55-1.41,1.58,1.58,0,0,1,.73-1.4,3.79,3.79,0,0,1,2.13-.5h.9v-.63a1,1,0,0,0-.27-.73,1.13,1.13,0,0,0-.8-.25,2.15,2.15,0,0,0-.53.06,1.49,1.49,0,0,0-.38.17l-.11.69h-1.31v-1.43a4.71,4.71,0,0,1,1.1-.55,4.15,4.15,0,0,1,1.35-.22,3.08,3.08,0,0,1,2,.59,2,2,0,0,1,.75,1.68v2.95a2,2,0,0,0,0,.25l.53.07V358Zm-1.51-1.17a1.41,1.41,0,0,0,.71-.17,1.34,1.34,0,0,0,.51-.42v-1h-.9a1.24,1.24,0,0,0-.84.26.8.8,0,0,0-.28.62.66.66,0,0,0,.21.52A.87.87,0,0,0,228.39,356.78Z"/><path class="cls-11" d="M232.32,349.68v-1.06H235V354h.39l1-1.42-.56-.08v-1H239v1l-.77.18-1.16,1.6,1.63,2.46.66.13V358h-3V356.9l.36-.06-1-1.6H235v1.48l.76.18V358h-3.34V356.9l.84-.18v-6.86Z"/><path class="cls-11" d="M243,358.08a2.92,2.92,0,0,1-2.24-.9,3.25,3.25,0,0,1-.83-2.28v-.24a3.52,3.52,0,0,1,.79-2.37,3,3,0,0,1,4.16-.14,3.06,3.06,0,0,1,.72,2.14v.95h-3.86v0a1.66,1.66,0,0,0,.42,1.05,1.33,1.33,0,0,0,1,.42,3.33,3.33,0,0,0,1-.12,4.81,4.81,0,0,0,.84-.37l.47,1.08a3.49,3.49,0,0,1-1,.53A4.5,4.5,0,0,1,243,358.08Zm-.16-5.37a.9.9,0,0,0-.76.37,2,2,0,0,0-.35,1l0,0h2.14v-.15a1.43,1.43,0,0,0-.26-.89A.94.94,0,0,0,242.79,352.71Z"/><path class="cls-11" d="M246.28,356.9l.84-.18v-6.86l-.93-.18v-1.06h2.67v3.69a2.18,2.18,0,0,1,.75-.7,2,2,0,0,1,1-.25,2,2,0,0,1,1.59.68,3.08,3.08,0,0,1,.58,2.07v2.61l.84.18V358h-3.34V356.9l.75-.18V354.1a1.66,1.66,0,0,0-.26-1.07,1,1,0,0,0-.79-.31,1.41,1.41,0,0,0-.64.13,1.37,1.37,0,0,0-.46.37v3.5l.76.18V358h-3.34Z"/><path class="cls-11" d="M254.1,354.66a3.44,3.44,0,0,1,.81-2.37,2.81,2.81,0,0,1,2.24-.93,2.84,2.84,0,0,1,2.24.92,3.49,3.49,0,0,1,.81,2.38v.12a3.47,3.47,0,0,1-.81,2.38,2.82,2.82,0,0,1-2.23.92,2.85,2.85,0,0,1-2.25-.92,3.47,3.47,0,0,1-.81-2.38Zm1.74.12a2.9,2.9,0,0,0,.31,1.42,1.09,1.09,0,0,0,1,.54,1.06,1.06,0,0,0,1-.54,2.79,2.79,0,0,0,.31-1.42v-.12a2.68,2.68,0,0,0-.32-1.41,1.19,1.19,0,0,0-2,0,2.89,2.89,0,0,0-.31,1.41Z"/><path class="cls-11" d="M260.66,349.68v-1.06h2.67v8.1l.85.18V358h-3.43V356.9l.84-.18v-6.86Z"/><path class="cls-11" d="M269,357.16a2,2,0,0,1-.72.68,1.83,1.83,0,0,1-.94.24,2.21,2.21,0,0,1-1.86-.88,3.72,3.72,0,0,1-.66-2.3v-.13a4.22,4.22,0,0,1,.66-2.47,2.16,2.16,0,0,1,1.87-.94,1.81,1.81,0,0,1,.87.21,2.28,2.28,0,0,1,.68.6v-2.31l-.93-.18v-1.06h2.68v8.1l.83.18V358h-2.35Zm-2.44-2.26a2.62,2.62,0,0,0,.29,1.33,1,1,0,0,0,.93.49,1.29,1.29,0,0,0,.66-.16,1.17,1.17,0,0,0,.46-.45v-2.74a1.25,1.25,0,0,0-.46-.48,1.23,1.23,0,0,0-.65-.17,1,1,0,0,0-.93.57,3.16,3.16,0,0,0-.3,1.48Z"/><path class="cls-11" d="M275.09,358.08a2.91,2.91,0,0,1-2.24-.9,3.21,3.21,0,0,1-.84-2.28v-.24a3.57,3.57,0,0,1,.79-2.37,3,3,0,0,1,4.16-.14,3,3,0,0,1,.73,2.14v.95h-3.87v0a1.67,1.67,0,0,0,.43,1.05,1.32,1.32,0,0,0,1,.42,3.21,3.21,0,0,0,1-.12,4.24,4.24,0,0,0,.84-.37l.47,1.08a3.31,3.31,0,0,1-1,.53A4.55,4.55,0,0,1,275.09,358.08Zm-.16-5.37a.89.89,0,0,0-.76.37,1.87,1.87,0,0,0-.35,1l0,0H276v-.15a1.43,1.43,0,0,0-.26-.89A1,1,0,0,0,274.93,352.71Z"/><path class="cls-11" d="M278.64,356.9l.84-.18v-4l-.93-.18v-1h2.56l.07.95a2,2,0,0,1,.59-.79,1.36,1.36,0,0,1,.83-.28l.29,0,.25.05L283,353h-.72a1.22,1.22,0,0,0-.63.15.94.94,0,0,0-.39.42v3.14l.84.18V358h-3.42Z"/><path class="cls-11" d="M293.23,352h-1.3l-.23-1.2a2.12,2.12,0,0,0-.66-.25,4,4,0,0,0-.93-.11,1.79,1.79,0,0,0-1.11.3.94.94,0,0,0-.39.78.84.84,0,0,0,.41.73,5.5,5.5,0,0,0,1.41.6,5.59,5.59,0,0,1,2.19,1.06,2.21,2.21,0,0,1,.74,1.73,2.06,2.06,0,0,1-.88,1.76,3.89,3.89,0,0,1-2.34.65,5,5,0,0,1-1.86-.33,3.91,3.91,0,0,1-1.39-.91V355h1.35l.18,1.24a2.2,2.2,0,0,0,.72.35,3.14,3.14,0,0,0,1,.14,1.69,1.69,0,0,0,1.09-.29.94.94,0,0,0,.38-.78,1,1,0,0,0-.36-.81,3.6,3.6,0,0,0-1.24-.57,7.09,7.09,0,0,1-2.35-1.07,2,2,0,0,1-.79-1.68,2.07,2.07,0,0,1,.9-1.73,3.67,3.67,0,0,1,2.25-.69,5.32,5.32,0,0,1,1.83.3,4.23,4.23,0,0,1,1.38.81Z"/><path class="cls-11" d="M294.05,350.3v-1.05h3.6v1.05l-.93.18V353h3.55v-2.51l-.93-.18v-1.05h3.6v1.05l-.93.18v6.24l.93.18V358h-3.6V356.9l.93-.18v-2.39h-3.55v2.39l.93.18V358h-3.6V356.9l.92-.18v-6.24Z"/><path class="cls-11" d="M303.67,356.9l1.47-.18v-5.89h-1.49v-1l3.23-.58v7.47l1.47.18V358h-4.68Z"/><path class="cls-7" d="M261.78,299.71c6.59,0,11.7,5.56,11.7,10.34v5.53a2.22,2.22,0,0,1-.06.51,4.17,4.17,0,0,1,.06.71,4.22,4.22,0,0,1-2.2,3.66,9.41,9.41,0,0,1-2.71,5.67,7.66,7.66,0,0,1,3.23,1.56,5.7,5.7,0,0,1,2.31,4.57v4.6a2,2,0,0,1-2,2H251.45a2,2,0,0,1-2-2v-4.6a5.77,5.77,0,0,1,2.38-4.63,7.5,7.5,0,0,1,3.34-1.54,10.22,10.22,0,0,1-2.76-5.54,4.1,4.1,0,0,1-2.31-3.11,1.27,1.27,0,0,1,0-.28v-.72a1.32,1.32,0,0,1,0-.28l0-.21a2.42,2.42,0,0,1,0-.47v-5.43c0-4.78,5.11-10.34,11.7-10.34m0-2c-7.84,0-13.7,6.52-13.7,12.34v5.43a3.87,3.87,0,0,0,0,.48,4.12,4.12,0,0,0,0,.48v.72a3.64,3.64,0,0,0,0,.57,6.07,6.07,0,0,0,2.5,4.08,12.18,12.18,0,0,0,1.34,3.33,9.93,9.93,0,0,0-1.37.92,7.73,7.73,0,0,0-3.14,6.2v4.6a4,4,0,0,0,4,4h20.66a4,4,0,0,0,4-4v-4.6a7.77,7.77,0,0,0-3.07-6.15,10.29,10.29,0,0,0-1.28-.87,11.18,11.18,0,0,0,1.36-3.62,6.13,6.13,0,0,0,2.36-4.82c0-.22,0-.45,0-.67a5.07,5.07,0,0,0,0-.55v-5.53c0-5.82-5.86-12.34-13.7-12.34Z"/><path class="cls-11" d="M261.78,301.71c5.39,0,9.7,4.51,9.7,8.35v5.52h-.41a2,2,0,0,1,.41,1.22,2.21,2.21,0,0,1-2.15,2.16v.5a7.42,7.42,0,0,1-3.4,6.25H266v2.23h.88a3.65,3.65,0,0,1,.87.07,5.64,5.64,0,0,1,2.81,1.23,3.76,3.76,0,0,1,1.57,3v4.6H251.45v-4.6a3.76,3.76,0,0,1,1.57-3,5.68,5.68,0,0,1,2.81-1.23,3.65,3.65,0,0,1,.87-.07h.88v-2.23h.25a8,8,0,0,1-3.52-6.61,2.68,2.68,0,0,0,0-.71,5.48,5.48,0,0,0-.05.57,2.17,2.17,0,0,1-2.15-1.8v-.72a2,2,0,0,1,.42-1h-.42v-5.42c0-3.84,4.31-8.35,9.7-8.35m0-2c-6.59,0-11.7,5.56-11.7,10.35v5.42a2.42,2.42,0,0,0,0,.47l0,.21a1.32,1.32,0,0,0,0,.28v.72a1.27,1.27,0,0,0,0,.28,4.1,4.1,0,0,0,2.31,3.11,10.29,10.29,0,0,0,2.76,5.55,7.6,7.6,0,0,0-3.38,1.56,5.75,5.75,0,0,0-2.34,4.6v4.6a2,2,0,0,0,2,2h20.66a2,2,0,0,0,2-2v-4.6a5.75,5.75,0,0,0-2.34-4.6,7.67,7.67,0,0,0-3.2-1.53,9.41,9.41,0,0,0,2.71-5.67,4.22,4.22,0,0,0,2.2-3.66,4.17,4.17,0,0,0-.06-.71,2.22,2.22,0,0,0,.06-.51v-5.52c0-4.79-5.11-10.35-11.7-10.35Z"/><path class="cls-11" d="M264.66,316.08a.77.77,0,0,1,.71.72.72.72,0,1,1-.71-.72Z"/><circle class="cls-11" cx="258.91" cy="316.8" r="0.72"/><path class="cls-12" d="M254.23,314.65l.6-4.62c1.44-.36,8.16,3.65,11.25-1.39,0,0-.78,2.48,3.25,5.36v.65"/><path class="cls-12" d="M271.48,317a2.2,2.2,0,0,1-2.15,2.15V314.8A2.21,2.21,0,0,1,271.48,317Z"/><path class="cls-12" d="M252.08,316.44v.72a2.17,2.17,0,0,0,2.15,1.8v-4.31A2.17,2.17,0,0,0,252.08,316.44Z"/><path class="cls-12" d="M252.08,315.48v-5.42c0-3.84,4.31-8.35,9.7-8.35s9.7,4.51,9.7,8.35v5.52"/><path class="cls-13" d="M266,325.71v2.23h.88a3.78,3.78,0,0,1,.88.07,5.65,5.65,0,0,1,2.8,1.23,3.76,3.76,0,0,1,1.57,3v4.6H251.45v-4.6a3.76,3.76,0,0,1,1.57-3,5.68,5.68,0,0,1,2.81-1.23,3.65,3.65,0,0,1,.87-.07h.88v-2.23"/><path class="cls-12" d="M254.23,314.72c0,1.79.08,2.59.08,4.38a7.74,7.74,0,0,0,7.47,7.84,7.49,7.49,0,0,0,7.55-7.48v-5"/><path class="cls-12" d="M259.7,321.47a2.51,2.51,0,0,0,2.08,1.08,2.6,2.6,0,0,0,2.08-1.08"/><path class="cls-11" d="M193.32,281.89h2.09V276l.22-1-.72.88-1.33.92-.83-1.13,3.42-2.76h1.1v9h2v1.65h-6Z"/><path class="cls-11" d="M200.94,282.55a1.07,1.07,0,0,1,.33-.83,1.2,1.2,0,0,1,.87-.31,1.25,1.25,0,0,1,.9.31,1.07,1.07,0,0,1,.33.83,1.11,1.11,0,0,1-.33.84,1.25,1.25,0,0,1-.9.32,1.21,1.21,0,0,1-.87-.32A1.11,1.11,0,0,1,200.94,282.55Z"/><path class="cls-11" d="M210.89,281.57a6.46,6.46,0,0,0-.11.75c0,.25,0,.49,0,.71v.29a1.66,1.66,0,0,0,0,.24h-.55l-.14-.87h0a4.11,4.11,0,0,1-.29.35,3,3,0,0,1-.39.31,2.38,2.38,0,0,1-.45.23,1.7,1.7,0,0,1-.51.08c-.79,0-1.19-.52-1.19-1.55a5.34,5.34,0,0,1,.17-1.3,4.1,4.1,0,0,1,.5-1.19,3.07,3.07,0,0,1,.89-.87,2.42,2.42,0,0,1,1.32-.34,3.81,3.81,0,0,1,.68.07,5.18,5.18,0,0,1,.75.17ZM208.63,283a1,1,0,0,0,.46-.11,2.42,2.42,0,0,0,.42-.29,2.31,2.31,0,0,0,.34-.36,2.85,2.85,0,0,0,.24-.37l.56-2.7a1.84,1.84,0,0,0-.76-.14,1.32,1.32,0,0,0-.81.27,2.31,2.31,0,0,0-.59.71,3.55,3.55,0,0,0-.36,1,5.15,5.15,0,0,0-.12,1.1,1.33,1.33,0,0,0,.15.65A.51.51,0,0,0,208.63,283Z"/><path class="cls-11" d="M212.34,278.54h.74l.21-1,.8-.23-.26,1.22h1.31l-.15.64h-1.3l-.63,3,0,.22a1.41,1.41,0,0,0,0,.18.42.42,0,0,0,.11.33.52.52,0,0,0,.33.09,1.51,1.51,0,0,0,.44-.06,1.59,1.59,0,0,0,.4-.18v.61a2,2,0,0,1-.54.2,2.83,2.83,0,0,1-.63.07c-.6,0-.91-.28-.91-.83a2.6,2.6,0,0,1,0-.42l.68-3.23h-.75Z"/><path class="cls-11" d="M215.47,278.54h.74l.21-1,.8-.23-.26,1.22h1.31l-.15.64h-1.3l-.63,3,0,.22a1.41,1.41,0,0,0,0,.18.42.42,0,0,0,.11.33.54.54,0,0,0,.33.09A1.51,1.51,0,0,0,217,283a1.59,1.59,0,0,0,.4-.18v.61a2,2,0,0,1-.54.2,2.83,2.83,0,0,1-.63.07c-.61,0-.91-.28-.91-.83a2.6,2.6,0,0,1,0-.42l.68-3.23h-.75Z"/><path class="cls-11" d="M221.78,283.05a2.53,2.53,0,0,1-.82.46,3.2,3.2,0,0,1-1,.15,1.5,1.5,0,0,1-1.2-.46,1.87,1.87,0,0,1-.41-1.28,4.45,4.45,0,0,1,.23-1.47,3.74,3.74,0,0,1,.61-1.1,2.64,2.64,0,0,1,.85-.69,2.11,2.11,0,0,1,1-.24,1.74,1.74,0,0,1,.63.1,1.32,1.32,0,0,1,.43.27,1,1,0,0,1,.25.38,1.12,1.12,0,0,1,.08.45,1.25,1.25,0,0,1-.69,1.12,4,4,0,0,1-2,.4h-.25l-.27,0q0,.19-.06.36c0,.11,0,.21,0,.3a1.48,1.48,0,0,0,.25.9.9.9,0,0,0,.78.34,2.38,2.38,0,0,0,.81-.14,2.19,2.19,0,0,0,.56-.31Zm-.85-4a1.35,1.35,0,0,0-1,.38,2.35,2.35,0,0,0-.62,1.12l.79,0a4.13,4.13,0,0,0,.75-.1,1.49,1.49,0,0,0,.55-.27.65.65,0,0,0,.22-.52.69.69,0,0,0,0-.2.47.47,0,0,0-.12-.19.49.49,0,0,0-.22-.14A1,1,0,0,0,220.93,279.06Z"/><path class="cls-11" d="M225.11,282.13a.73.73,0,0,0-.13-.45,1.26,1.26,0,0,0-.33-.32,3.58,3.58,0,0,0-.43-.29,4.25,4.25,0,0,1-.43-.31,1.86,1.86,0,0,1-.33-.41,1.27,1.27,0,0,1-.13-.58,1.1,1.1,0,0,1,.14-.53,1.49,1.49,0,0,1,.37-.43,1.55,1.55,0,0,1,.56-.28,2.23,2.23,0,0,1,.7-.11,3.45,3.45,0,0,1,.82.07,1.88,1.88,0,0,1,.52.2l-.25.6a2.21,2.21,0,0,0-1.09-.23,1.22,1.22,0,0,0-.69.18.57.57,0,0,0-.28.53.62.62,0,0,0,.13.37,1.9,1.9,0,0,0,.33.29l.43.29a2,2,0,0,1,.43.33,1.27,1.27,0,0,1,.33.43,1.22,1.22,0,0,1,.13.59,1.41,1.41,0,0,1-.52,1.19,2.25,2.25,0,0,1-1.41.4,3.49,3.49,0,0,1-.82-.09,2.36,2.36,0,0,1-.61-.23l.28-.63a1.76,1.76,0,0,0,.53.22,2.46,2.46,0,0,0,.67.09,1.28,1.28,0,0,0,.79-.22A.79.79,0,0,0,225.11,282.13Z"/><path class="cls-11" d="M227.21,278.54H228l.21-1,.8-.23-.26,1.22H230l-.15.64h-1.3l-.63,3,0,.22a1.41,1.41,0,0,0,0,.18.42.42,0,0,0,.11.33.5.5,0,0,0,.33.09,1.51,1.51,0,0,0,.44-.06,1.76,1.76,0,0,0,.4-.18v.61a2,2,0,0,1-.54.2,2.83,2.83,0,0,1-.63.07c-.61,0-.91-.28-.91-.83a2.6,2.6,0,0,1,0-.42l.68-3.23h-.75Z"/><path class="cls-11" d="M237.08,283.25a2.12,2.12,0,0,1-.72.32,3.84,3.84,0,0,1-.88.09,2.26,2.26,0,0,1-1.83-.81,2.94,2.94,0,0,1-.49-.91,3.78,3.78,0,0,1-.17-1.14,5.24,5.24,0,0,1,.33-1.95,4,4,0,0,1,.87-1.37,3.45,3.45,0,0,1,1.22-.8,3.82,3.82,0,0,1,1.36-.26,4.65,4.65,0,0,1,.93.08,2.73,2.73,0,0,1,.59.19l-.36.73a2.23,2.23,0,0,0-.52-.18,3.38,3.38,0,0,0-.75-.08,2.37,2.37,0,0,0-1.07.25,2.56,2.56,0,0,0-.91.7,3.46,3.46,0,0,0-.62,1.12,4.55,4.55,0,0,0-.23,1.48,2.82,2.82,0,0,0,.13.89,2,2,0,0,0,.36.7,1.65,1.65,0,0,0,.58.46,1.78,1.78,0,0,0,.78.16,2.46,2.46,0,0,0,.78-.1,3.24,3.24,0,0,0,.56-.25Z"/><path class="cls-11" d="M241.5,281.6h-2.45L238,283.54h-.84l4-7.11h.37l1,7.11h-.77Zm-2.05-.72h2l-.29-2.13,0-1.06h0l-.45,1.08Z"/><path class="cls-11" d="M246.91,281.74a1,1,0,0,0-.18-.61,2,2,0,0,0-.47-.45c-.19-.14-.39-.27-.6-.4a3.78,3.78,0,0,1-.61-.44,2,2,0,0,1-.46-.59,1.68,1.68,0,0,1-.19-.84,1.85,1.85,0,0,1,.2-.91,1.67,1.67,0,0,1,.53-.62,2.11,2.11,0,0,1,.79-.35,4.21,4.21,0,0,1,1-.11,5.44,5.44,0,0,1,1,.09,2.65,2.65,0,0,1,.72.23l-.4.71a2.94,2.94,0,0,0-.59-.21,3.65,3.65,0,0,0-.92-.1,1.76,1.76,0,0,0-1.07.3,1.12,1.12,0,0,0-.23,1.5,2,2,0,0,0,.46.46c.19.13.39.26.61.39a4.19,4.19,0,0,1,.6.44,2.06,2.06,0,0,1,.47.58,2,2,0,0,1-.52,2.33,3.32,3.32,0,0,1-2,.52,5.07,5.07,0,0,1-1.13-.11,3.08,3.08,0,0,1-.71-.26l.41-.73a3.34,3.34,0,0,0,.63.26,3.18,3.18,0,0,0,.93.12,4.32,4.32,0,0,0,.62-.05,2,2,0,0,0,.56-.2,1.22,1.22,0,0,0,.41-.37A1,1,0,0,0,246.91,281.74Z"/><path class="cls-11" d="M282.13,275.61a4.69,4.69,0,0,1-.28,1.54,9.58,9.58,0,0,1-.71,1.53,14.94,14.94,0,0,1-.94,1.45c-.35.46-.68.89-1,1.28l-.8.62v.07l1.08-.21h2.88v1.65H276v-1c.24-.25.5-.55.81-.88s.6-.69.9-1.07.61-.76.89-1.16a10.87,10.87,0,0,0,.79-1.21,6.72,6.72,0,0,0,.54-1.17,3.13,3.13,0,0,0,.21-1.08,1.48,1.48,0,0,0-.36-1,1.43,1.43,0,0,0-1.11-.39,2.54,2.54,0,0,0-1,.2,2.72,2.72,0,0,0-.84.52l-.78-1.38a5.11,5.11,0,0,1,1.32-.78,4.9,4.9,0,0,1,1.75-.29,3.76,3.76,0,0,1,1.19.18,2.75,2.75,0,0,1,.93.53,2.48,2.48,0,0,1,.61.86A3,3,0,0,1,282.13,275.61Z"/><path class="cls-11" d="M284.13,282.55a1.11,1.11,0,0,1,.33-.83,1.23,1.23,0,0,1,.88-.31,1.26,1.26,0,0,1,.9.31,1.06,1.06,0,0,1,.32.83,1.1,1.1,0,0,1-.32.84,1.27,1.27,0,0,1-.9.32,1.24,1.24,0,0,1-.88-.32A1.14,1.14,0,0,1,284.13,282.55Z"/><path class="cls-11" d="M293.61,283.11a2.12,2.12,0,0,1-.35.23,2.83,2.83,0,0,1-.4.17,3.45,3.45,0,0,1-.4.11,1.78,1.78,0,0,1-.39,0,1.87,1.87,0,0,1-.8-.15,1.32,1.32,0,0,1-.49-.4,1.2,1.2,0,0,1-.25-.52,2,2,0,0,1-.07-.53,4.5,4.5,0,0,1,.23-1.52,3.49,3.49,0,0,1,.61-1.15,2.77,2.77,0,0,1,.89-.72,2.41,2.41,0,0,1,1.65-.18,4.72,4.72,0,0,1,.45.16l-.29.62a1.15,1.15,0,0,0-.42-.15,2.23,2.23,0,0,0-.54-.06,1.17,1.17,0,0,0-.66.23,2.26,2.26,0,0,0-.58.61,3.41,3.41,0,0,0-.4.86,3.3,3.3,0,0,0-.15,1,1.39,1.39,0,0,0,.28,1,.9.9,0,0,0,.72.31,1.62,1.62,0,0,0,.63-.13,2.54,2.54,0,0,0,.53-.28Z"/><path class="cls-11" d="M297.78,279.2l-.19,0h-.18a1.28,1.28,0,0,0-.87.32,2.16,2.16,0,0,0-.58.78l-.69,3.28h-.75l1.05-5h.53v.86h0a3.18,3.18,0,0,1,.26-.35,2.27,2.27,0,0,1,.32-.3,1.27,1.27,0,0,1,.36-.2,1.33,1.33,0,0,1,.45-.08,1.5,1.5,0,0,1,.45.07Z"/><path class="cls-11" d="M301.31,283.05a2.43,2.43,0,0,1-.82.46,3.19,3.19,0,0,1-.95.15,1.51,1.51,0,0,1-1.21-.46,1.87,1.87,0,0,1-.41-1.28,4.45,4.45,0,0,1,.23-1.47,3.74,3.74,0,0,1,.61-1.1,2.64,2.64,0,0,1,.85-.69,2.14,2.14,0,0,1,1-.24,1.74,1.74,0,0,1,.63.1,1.22,1.22,0,0,1,.43.27.87.87,0,0,1,.25.38,1.12,1.12,0,0,1,.08.45,1.26,1.26,0,0,1-.68,1.12,4.1,4.1,0,0,1-2,.4H299l-.27,0q0,.19-.06.36c0,.11,0,.21,0,.3a1.55,1.55,0,0,0,.25.9.91.91,0,0,0,.79.34,2.28,2.28,0,0,0,.8-.14,2.19,2.19,0,0,0,.56-.31Zm-.85-4a1.36,1.36,0,0,0-.95.38,2.44,2.44,0,0,0-.62,1.12l.79,0a4,4,0,0,0,.75-.1,1.42,1.42,0,0,0,.55-.27.65.65,0,0,0,.23-.52.71.71,0,0,0,0-.2.39.39,0,0,0-.12-.19.44.44,0,0,0-.22-.14A1,1,0,0,0,300.46,279.06Z"/><path class="cls-11" d="M306.18,281.57a6.46,6.46,0,0,0-.11.75c0,.25,0,.49,0,.71v.29a1.66,1.66,0,0,0,0,.24h-.55l-.13-.87h-.05a2.82,2.82,0,0,1-.29.35,3,3,0,0,1-.39.31,2.64,2.64,0,0,1-.44.23,1.77,1.77,0,0,1-.52.08c-.79,0-1.19-.52-1.19-1.55a5.34,5.34,0,0,1,.17-1.3,3.86,3.86,0,0,1,.51-1.19,2.85,2.85,0,0,1,.89-.87,2.39,2.39,0,0,1,1.31-.34,3.81,3.81,0,0,1,.68.07,5.18,5.18,0,0,1,.75.17ZM303.92,283a1,1,0,0,0,.46-.11,2.42,2.42,0,0,0,.42-.29,2.31,2.31,0,0,0,.34-.36,2.85,2.85,0,0,0,.24-.37l.56-2.7a1.84,1.84,0,0,0-.76-.14,1.27,1.27,0,0,0-.8.27,2.06,2.06,0,0,0-.59.71,3.56,3.56,0,0,0-.37,1,5.15,5.15,0,0,0-.12,1.1,1.23,1.23,0,0,0,.16.65A.49.49,0,0,0,303.92,283Z"/><path class="cls-11" d="M307.63,278.54h.75l.2-1,.8-.23-.25,1.22h1.3l-.14.64H309l-.63,3,0,.22a1.41,1.41,0,0,0,0,.18.42.42,0,0,0,.11.33.54.54,0,0,0,.33.09,1.51,1.51,0,0,0,.44-.06,1.59,1.59,0,0,0,.4-.18v.61a2,2,0,0,1-.54.2,2.76,2.76,0,0,1-.63.07c-.6,0-.91-.28-.91-.83a2.6,2.6,0,0,1,.05-.42l.68-3.23h-.75Z"/><path class="cls-11" d="M313.94,283.05a2.43,2.43,0,0,1-.82.46,3.2,3.2,0,0,1-1,.15,1.5,1.5,0,0,1-1.2-.46,1.87,1.87,0,0,1-.41-1.28,4.2,4.2,0,0,1,.24-1.47,3.51,3.51,0,0,1,.6-1.1,2.64,2.64,0,0,1,.85-.69,2.14,2.14,0,0,1,1-.24,1.7,1.7,0,0,1,.63.1,1.22,1.22,0,0,1,.43.27.87.87,0,0,1,.25.38,1.12,1.12,0,0,1,.08.45,1.23,1.23,0,0,1-.69,1.12,4,4,0,0,1-2,.4h-.25l-.27,0q0,.19-.06.36c0,.11,0,.21,0,.3a1.55,1.55,0,0,0,.25.9.9.9,0,0,0,.78.34,2.29,2.29,0,0,0,.81-.14,2.47,2.47,0,0,0,.57-.31Zm-.85-4a1.36,1.36,0,0,0-.95.38,2.35,2.35,0,0,0-.62,1.12l.79,0a4,4,0,0,0,.75-.1,1.42,1.42,0,0,0,.55-.27.65.65,0,0,0,.22-.52.69.69,0,0,0,0-.2.39.39,0,0,0-.12-.19.44.44,0,0,0-.22-.14A1,1,0,0,0,313.09,279.06Z"/><path class="cls-11" d="M318.79,278.54h.52l-.05.86h0a3.49,3.49,0,0,1,.32-.35,2.3,2.3,0,0,1,.38-.32,2,2,0,0,1,.46-.22,1.61,1.61,0,0,1,.54-.09,1.33,1.33,0,0,1,.45.08.84.84,0,0,1,.37.25,1.13,1.13,0,0,1,.26.46,2.41,2.41,0,0,1,.09.71,4.86,4.86,0,0,1-.24,1.58,3.83,3.83,0,0,1-.63,1.17,2.87,2.87,0,0,1-.87.74,2.06,2.06,0,0,1-1,.25,2.8,2.8,0,0,1-.61-.06,1.1,1.1,0,0,1-.36-.14l-.44,2.08h-.75Zm1.93.52a1,1,0,0,0-.51.14,1.88,1.88,0,0,0-.45.35,2.61,2.61,0,0,0-.37.44c-.1.15-.19.3-.26.43l-.49,2.37a1,1,0,0,0,.35.18,1.6,1.6,0,0,0,.39,0,1.47,1.47,0,0,0,.75-.21,2.06,2.06,0,0,0,.63-.62,3.28,3.28,0,0,0,.45-1,4.41,4.41,0,0,0,.16-1.25,1.2,1.2,0,0,0-.16-.66A.55.55,0,0,0,320.72,279.06Z"/><path class="cls-11" d="M322.93,282a4.64,4.64,0,0,1,.21-1.44,3.62,3.62,0,0,1,.56-1.13,2.64,2.64,0,0,1,.84-.73,2.11,2.11,0,0,1,1-.26,1.74,1.74,0,0,1,.72.14,1.27,1.27,0,0,1,.48.37,1.36,1.36,0,0,1,.26.54,2.18,2.18,0,0,1,.08.63,4.84,4.84,0,0,1-.19,1.4,3.82,3.82,0,0,1-.54,1.13,2.78,2.78,0,0,1-.81.76,1.92,1.92,0,0,1-1,.27,1.82,1.82,0,0,1-.75-.14,1.5,1.5,0,0,1-.5-.39,1.55,1.55,0,0,1-.28-.54A2.1,2.1,0,0,1,322.93,282Zm.8-.18a1.65,1.65,0,0,0,.22.91.79.79,0,0,0,.7.31,1,1,0,0,0,.63-.23,2.11,2.11,0,0,0,.52-.64,3.93,3.93,0,0,0,.36-.91,4.32,4.32,0,0,0,.13-1.08,1.51,1.51,0,0,0-.18-.8.76.76,0,0,0-.71-.3,1,1,0,0,0-.63.23,2.23,2.23,0,0,0-.53.6,3.19,3.19,0,0,0-.37.88A3.88,3.88,0,0,0,323.73,281.8Z"/><path class="cls-11" d="M328.74,282.35a1.67,1.67,0,0,0,0,.28.43.43,0,0,0,.07.28.21.21,0,0,0,.17.08l.34,0a1.89,1.89,0,0,0,.32-.1v.57l-.21.09-.24.05-.25,0h-.23a.89.89,0,0,1-.56-.16.7.7,0,0,1-.21-.59,2.49,2.49,0,0,1,.06-.49l1.24-5.85H330Z"/><path class="cls-11" d="M331.71,278.54h.75l-1.06,5h-.75Zm.16-1.53a.57.57,0,0,1,.16-.39.49.49,0,0,1,.38-.16.5.5,0,0,1,.39.16.54.54,0,0,1-.39.93.52.52,0,0,1-.38-.15A.57.57,0,0,1,331.87,277Z"/><path class="cls-11" d="M336.35,283.11a1.69,1.69,0,0,1-.34.23,2.83,2.83,0,0,1-.4.17,3.11,3.11,0,0,1-.41.11,1.69,1.69,0,0,1-.38,0,1.87,1.87,0,0,1-.8-.15,1.45,1.45,0,0,1-.5-.4,1.47,1.47,0,0,1-.25-.52,2.58,2.58,0,0,1-.07-.53,4.76,4.76,0,0,1,.23-1.52,3.71,3.71,0,0,1,.62-1.15,2.74,2.74,0,0,1,.88-.72,2.27,2.27,0,0,1,1-.25,2.19,2.19,0,0,1,.63.07,3.72,3.72,0,0,1,.44.16l-.28.62a1.15,1.15,0,0,0-.42-.15,2.23,2.23,0,0,0-.54-.06,1.17,1.17,0,0,0-.66.23,2.26,2.26,0,0,0-.58.61,3.41,3.41,0,0,0-.4.86,3.3,3.3,0,0,0-.15,1,1.45,1.45,0,0,0,.27,1,.92.92,0,0,0,.73.31,1.65,1.65,0,0,0,.63-.13,2.83,2.83,0,0,0,.53-.28Z"/><path class="cls-11" d="M338.86,281.78l.05,1h0l.38-1,1.66-3.23h.8L339.44,283q-.26.5-.51,1a7.94,7.94,0,0,1-.53.83,2.83,2.83,0,0,1-.56.58,1,1,0,0,1-.6.22l-.29,0a.88.88,0,0,1-.23-.07l.24-.69a.67.67,0,0,0,.24,0,.81.81,0,0,0,.58-.3,4.19,4.19,0,0,0,.65-1l-.86-5h.8Z"/><path class="cls-11" d="M344.49,282.8h1.33l1-4.84.22-.59-.49.47-1.2.79-.28-.51,2.47-1.7h.35l-1.36,6.38h1.3l-.15.74h-3.38Z"/><path class="cls-11" d="M344.62,92.1a1.87,1.87,0,0,0,1.41-.49,1.63,1.63,0,0,0,.49-1.2,1.51,1.51,0,0,0-.51-1.26,2.58,2.58,0,0,0-1.6-.41h-1.08v-1l1.81-2.48.86-.67-1.19.13h-2.52V83H348v1.07l-2.11,2.83-.66.41v.07l.63-.09a3.34,3.34,0,0,1,1,.24,2.48,2.48,0,0,1,.83.56,2.86,2.86,0,0,1,.56.91,3.45,3.45,0,0,1,.21,1.25,3.76,3.76,0,0,1-.29,1.53,3.14,3.14,0,0,1-.81,1.08,3.43,3.43,0,0,1-1.21.64,5,5,0,0,1-1.48.21,8.1,8.1,0,0,1-1.37-.12,4,4,0,0,1-1.14-.34l.53-1.62a4.14,4.14,0,0,0,.86.31A4.24,4.24,0,0,0,344.62,92.1Z"/><path class="cls-11" d="M350.13,92.55a1.11,1.11,0,0,1,.33-.83,1.23,1.23,0,0,1,.88-.31,1.26,1.26,0,0,1,.9.31,1.06,1.06,0,0,1,.32.83,1.1,1.1,0,0,1-.32.84,1.27,1.27,0,0,1-.9.32,1.24,1.24,0,0,1-.88-.32A1.14,1.14,0,0,1,350.13,92.55Z"/><path class="cls-11" d="M360.14,91.82a7.21,7.21,0,0,0-.11.73,5,5,0,0,0,0,.63c0,.07,0,.14,0,.2s0,.12,0,.18h-.5l-.13-.87h-.05A4.11,4.11,0,0,1,359,93a3.9,3.9,0,0,1-.4.31,2.92,2.92,0,0,1-.47.23,1.7,1.7,0,0,1-.51.08,1.06,1.06,0,0,1-.87-.4,2,2,0,0,1-.32-1.29,4.31,4.31,0,0,1,.17-1.21,3.66,3.66,0,0,1,.5-1.14,2.74,2.74,0,0,1,.82-.84,2,2,0,0,1,1.14-.33h.31l.25,0a.79.79,0,0,1,.22.06l.2.07.44-2.08h.75Zm-2.2,1.2a1.05,1.05,0,0,0,.43-.11,2.78,2.78,0,0,0,.41-.29,2.38,2.38,0,0,0,.35-.36c.1-.13.18-.26.25-.37l.56-2.6a1.32,1.32,0,0,0-.39-.15,2.79,2.79,0,0,0-.57,0,1.15,1.15,0,0,0-.72.25,2.06,2.06,0,0,0-.54.65,3.59,3.59,0,0,0-.34.94,4.4,4.4,0,0,0-.13,1.09,1.58,1.58,0,0,0,.16.71A.57.57,0,0,0,357.94,93Z"/><path class="cls-11" d="M364.93,93.05a2.43,2.43,0,0,1-.82.46,3.2,3.2,0,0,1-1,.15,1.5,1.5,0,0,1-1.2-.46,1.87,1.87,0,0,1-.41-1.28,4.2,4.2,0,0,1,.24-1.47,3.51,3.51,0,0,1,.6-1.1,2.64,2.64,0,0,1,.85-.69,2.15,2.15,0,0,1,1-.24,1.68,1.68,0,0,1,.62.1,1.22,1.22,0,0,1,.43.27.87.87,0,0,1,.25.38,1.12,1.12,0,0,1,.08.45,1.23,1.23,0,0,1-.69,1.12,4,4,0,0,1-2,.4h-.25l-.26,0c0,.13-.05.25-.07.36s0,.21,0,.3a1.55,1.55,0,0,0,.25.9.9.9,0,0,0,.78.34,2.29,2.29,0,0,0,.81-.14,2.47,2.47,0,0,0,.57-.31Zm-.85-4a1.36,1.36,0,0,0-.95.38,2.35,2.35,0,0,0-.62,1.12l.79,0a4,4,0,0,0,.75-.1,1.42,1.42,0,0,0,.55-.27.65.65,0,0,0,.22-.52.69.69,0,0,0,0-.2.39.39,0,0,0-.12-.19.44.44,0,0,0-.22-.14A1,1,0,0,0,364.08,89.06Z"/><path class="cls-11" d="M367.12,88.54h.51l-.05.86h.05a2.51,2.51,0,0,1,.31-.35,2.3,2.3,0,0,1,.38-.32,1.84,1.84,0,0,1,.47-.22,1.51,1.51,0,0,1,.53-.09,1.33,1.33,0,0,1,.45.08.84.84,0,0,1,.37.25,1.13,1.13,0,0,1,.26.46,2.41,2.41,0,0,1,.09.71,4.86,4.86,0,0,1-.24,1.58,4,4,0,0,1-.62,1.17,2.9,2.9,0,0,1-.88.74,2.05,2.05,0,0,1-1,.25,2.83,2.83,0,0,1-.62-.06,1.21,1.21,0,0,1-.36-.14l-.43,2.08h-.75Zm1.92.52a1.06,1.06,0,0,0-.51.14,2.1,2.1,0,0,0-.45.35,2.61,2.61,0,0,0-.37.44,3.36,3.36,0,0,0-.25.43l-.5,2.37a1,1,0,0,0,.35.18,1.62,1.62,0,0,0,.4,0,1.46,1.46,0,0,0,.74-.21,2.06,2.06,0,0,0,.63-.62,3.28,3.28,0,0,0,.45-1,4.41,4.41,0,0,0,.16-1.25,1.2,1.2,0,0,0-.16-.66A.55.55,0,0,0,369,89.06Z"/><path class="cls-11" d="M372.08,92.35a1.67,1.67,0,0,0,0,.28.5.5,0,0,0,.07.28.21.21,0,0,0,.17.08l.34,0a2.3,2.3,0,0,0,.33-.1v.57l-.22.09-.24,0-.25,0H372a.89.89,0,0,1-.56-.16.7.7,0,0,1-.21-.59,2.49,2.49,0,0,1,.06-.49l1.24-5.85h.75Z"/><path class="cls-11" d="M374,92a4.64,4.64,0,0,1,.2-1.44,3.62,3.62,0,0,1,.56-1.13,2.64,2.64,0,0,1,.84-.73,2.11,2.11,0,0,1,1-.26,1.71,1.71,0,0,1,.72.14,1.19,1.19,0,0,1,.48.37,1.52,1.52,0,0,1,.27.54,2.59,2.59,0,0,1,.08.63,4.83,4.83,0,0,1-.2,1.4,3.82,3.82,0,0,1-.54,1.13,2.78,2.78,0,0,1-.81.76,1.9,1.9,0,0,1-1,.27,1.86,1.86,0,0,1-.75-.14,1.5,1.5,0,0,1-.5-.39,1.55,1.55,0,0,1-.28-.54A2.09,2.09,0,0,1,374,92Zm.79-.18a1.65,1.65,0,0,0,.22.91.81.81,0,0,0,.7.31,1,1,0,0,0,.63-.23,2.11,2.11,0,0,0,.52-.64,3.93,3.93,0,0,0,.36-.91,4.32,4.32,0,0,0,.13-1.08,1.51,1.51,0,0,0-.18-.8.76.76,0,0,0-.71-.3,1.06,1.06,0,0,0-.63.23,2.23,2.23,0,0,0-.53.6,3.19,3.19,0,0,0-.37.88A3.88,3.88,0,0,0,374.75,91.8Z"/><path class="cls-11" d="M380.2,91.78l0,1h.05l.38-1,1.66-3.23h.8L380.77,93q-.25.5-.51,1a7.94,7.94,0,0,1-.53.83,2.83,2.83,0,0,1-.56.58,1,1,0,0,1-.6.22l-.29,0a.88.88,0,0,1-.23-.07l.24-.69a.69.69,0,0,0,.25,0,.84.84,0,0,0,.58-.3,4.56,4.56,0,0,0,.64-1l-.86-5h.81Z"/><path class="cls-11" d="M385.23,92.13a.73.73,0,0,0-.13-.45,1.12,1.12,0,0,0-.33-.32,3.58,3.58,0,0,0-.43-.29,4.25,4.25,0,0,1-.43-.31,1.65,1.65,0,0,1-.33-.41,1.27,1.27,0,0,1-.13-.58,1.1,1.1,0,0,1,.14-.53,1.49,1.49,0,0,1,.37-.43,1.84,1.84,0,0,1,.56-.28,2.28,2.28,0,0,1,.7-.11,3.45,3.45,0,0,1,.82.07,1.88,1.88,0,0,1,.52.2l-.25.6a2.21,2.21,0,0,0-1.09-.23,1.22,1.22,0,0,0-.69.18.59.59,0,0,0-.28.53.62.62,0,0,0,.13.37,1.9,1.9,0,0,0,.33.29l.43.29a2,2,0,0,1,.43.33,1.27,1.27,0,0,1,.33.43,1.22,1.22,0,0,1,.13.59,1.41,1.41,0,0,1-.52,1.19,2.25,2.25,0,0,1-1.41.4,3.49,3.49,0,0,1-.82-.09,2.36,2.36,0,0,1-.61-.23l.28-.63a1.88,1.88,0,0,0,.53.22,2.52,2.52,0,0,0,.67.09,1.28,1.28,0,0,0,.79-.22A.79.79,0,0,0,385.23,92.13Z"/><path class="cls-11" d="M82.29,147.12H80.64V150H78.83v-2.92H74.29V146L79,139.47h1.6v6.09h1.65Zm-3.46-3.86L79,142h0l-.52,1.08-1.55,2-.75.57,1-.12h1.79Z"/><path class="cls-11" d="M83.13,149.05a1.11,1.11,0,0,1,.33-.83,1.23,1.23,0,0,1,.88-.31,1.26,1.26,0,0,1,.9.31,1.06,1.06,0,0,1,.32.83,1.1,1.1,0,0,1-.32.84,1.27,1.27,0,0,1-.9.32,1.24,1.24,0,0,1-.88-.32A1.14,1.14,0,0,1,83.13,149.05Z"/><path class="cls-11" d="M92.79,150.27a2.65,2.65,0,0,1-.72,1.44,2,2,0,0,1-1.36.45,3,3,0,0,1-1.07-.16,6.13,6.13,0,0,1-.64-.29l.33-.56.2.11.28.12a2.58,2.58,0,0,0,.4.1,3,3,0,0,0,.55,0,1.13,1.13,0,0,0,.85-.36,2.53,2.53,0,0,0,.51-1.13l.17-.84h0a2.6,2.6,0,0,1-.3.36,2.25,2.25,0,0,1-.37.31,1.56,1.56,0,0,1-.43.21,1.72,1.72,0,0,1-.52.08,1.1,1.1,0,0,1-.87-.39,1.67,1.67,0,0,1-.32-1.11,5,5,0,0,1,.18-1.33,3.88,3.88,0,0,1,.55-1.18,3,3,0,0,1,.9-.86A2.26,2.26,0,0,1,92.3,145a3.94,3.94,0,0,1,.91.09,3.53,3.53,0,0,1,.65.22Zm-1.88-.76a1,1,0,0,0,.5-.13,2.36,2.36,0,0,0,.45-.33,3.16,3.16,0,0,0,.37-.45,3.82,3.82,0,0,0,.27-.45l.51-2.41a1,1,0,0,0-.38-.12,3.87,3.87,0,0,0-.48,0,1.34,1.34,0,0,0-.76.24,2.22,2.22,0,0,0-.6.65,3.59,3.59,0,0,0-.41.93,4.44,4.44,0,0,0-.15,1.11,1.29,1.29,0,0,0,.19.73A.58.58,0,0,0,90.91,149.51Z"/><path class="cls-11" d="M94.5,148.48a4.64,4.64,0,0,1,.21-1.44,3.85,3.85,0,0,1,.56-1.13,2.64,2.64,0,0,1,.84-.73,2.12,2.12,0,0,1,1-.26,1.73,1.73,0,0,1,.71.14,1.19,1.19,0,0,1,.48.37,1.36,1.36,0,0,1,.26.54,2.18,2.18,0,0,1,.08.63,4.84,4.84,0,0,1-.19,1.4,3.82,3.82,0,0,1-.54,1.13,2.87,2.87,0,0,1-.8.76,2,2,0,0,1-1,.27,1.84,1.84,0,0,1-.76-.14,1.5,1.5,0,0,1-.5-.39,1.55,1.55,0,0,1-.28-.54A2.1,2.1,0,0,1,94.5,148.48Zm.8-.18a1.65,1.65,0,0,0,.22.91.79.79,0,0,0,.7.31,1,1,0,0,0,.63-.23,2.11,2.11,0,0,0,.52-.64,3.93,3.93,0,0,0,.36-.91,4.32,4.32,0,0,0,.14-1.08,1.5,1.5,0,0,0-.19-.8.76.76,0,0,0-.71-.3,1,1,0,0,0-.63.23,2.23,2.23,0,0,0-.53.6,3.19,3.19,0,0,0-.37.88A3.88,3.88,0,0,0,95.3,148.3Z"/><path class="cls-11" d="M100.72,148l.09.95h0l.43-1L103,145h.85l-3.12,5.11h-.31l-1-5.11h.81Z"/><path class="cls-11" d="M107,149.55a2.43,2.43,0,0,1-.82.46,3.19,3.19,0,0,1-1,.15,1.51,1.51,0,0,1-1.21-.46,1.87,1.87,0,0,1-.41-1.28,4.45,4.45,0,0,1,.23-1.47,3.74,3.74,0,0,1,.61-1.1,2.64,2.64,0,0,1,.85-.69,2.14,2.14,0,0,1,1-.24,1.74,1.74,0,0,1,.63.1,1.22,1.22,0,0,1,.43.27.87.87,0,0,1,.25.38,1.12,1.12,0,0,1,.08.45,1.26,1.26,0,0,1-.68,1.12,4.1,4.1,0,0,1-2,.4h-.25l-.27,0q0,.19-.06.36c0,.11,0,.21,0,.3a1.55,1.55,0,0,0,.25.9.91.91,0,0,0,.79.34,2.28,2.28,0,0,0,.8-.14,2.19,2.19,0,0,0,.56-.31Zm-.85-4a1.36,1.36,0,0,0-.95.38,2.44,2.44,0,0,0-.62,1.12l.79,0a4,4,0,0,0,.75-.1,1.42,1.42,0,0,0,.55-.27.65.65,0,0,0,.23-.52.71.71,0,0,0,0-.2.39.39,0,0,0-.12-.19.44.44,0,0,0-.22-.14A1,1,0,0,0,106.13,145.56Z"/><path class="cls-11" d="M111.34,145.7l-.18,0H111a1.32,1.32,0,0,0-.88.32,2.28,2.28,0,0,0-.58.78l-.69,3.28h-.75l1.06-5h.52v.86h0a2.22,2.22,0,0,1,.25-.35,2.91,2.91,0,0,1,.31-.3,1.48,1.48,0,0,1,.37-.2,1.27,1.27,0,0,1,.44-.08,1.51,1.51,0,0,1,.46.07Z"/><path class="cls-11" d="M114.3,150l.67-3.16c0-.12,0-.24.07-.35a2,2,0,0,0,0-.32.77.77,0,0,0-.13-.47.6.6,0,0,0-.51-.18,1.19,1.19,0,0,0-.51.12,2.24,2.24,0,0,0-.47.31,3,3,0,0,0-.39.41,2.86,2.86,0,0,0-.3.44l-.66,3.2h-.75l1.06-5h.52l0,.86h0a3.13,3.13,0,0,1,.31-.33,2.15,2.15,0,0,1,.41-.32,2.54,2.54,0,0,1,.5-.23,1.79,1.79,0,0,1,.62-.1,1.18,1.18,0,0,1,.79.24,1,1,0,0,1,.29.84,3.52,3.52,0,0,1-.09.72l-.71,3.32Z"/><path class="cls-11" d="M120.1,149.55a2.43,2.43,0,0,1-.82.46,3.2,3.2,0,0,1-1,.15,1.5,1.5,0,0,1-1.2-.46,1.87,1.87,0,0,1-.41-1.28,4.45,4.45,0,0,1,.23-1.47,3.74,3.74,0,0,1,.61-1.1,2.64,2.64,0,0,1,.85-.69,2.11,2.11,0,0,1,1-.24,1.74,1.74,0,0,1,.63.1,1.22,1.22,0,0,1,.43.27.87.87,0,0,1,.25.38,1.12,1.12,0,0,1,.08.45,1.25,1.25,0,0,1-.69,1.12,4,4,0,0,1-2,.4h-.25l-.27,0-.06.36c0,.11,0,.21,0,.3a1.55,1.55,0,0,0,.25.9.9.9,0,0,0,.78.34,2.33,2.33,0,0,0,.81-.14,2.19,2.19,0,0,0,.56-.31Zm-.85-4a1.36,1.36,0,0,0-1,.38,2.35,2.35,0,0,0-.62,1.12l.79,0a4.13,4.13,0,0,0,.75-.1,1.42,1.42,0,0,0,.55-.27.65.65,0,0,0,.22-.52.69.69,0,0,0,0-.2.39.39,0,0,0-.12-.19.49.49,0,0,0-.22-.14A1,1,0,0,0,119.25,145.56Z"/><path class="cls-11" d="M125,148.32c0,.26-.09.5-.12.73s0,.44,0,.63,0,.14,0,.2,0,.12,0,.18h-.5l-.14-.87h0a3,3,0,0,1-.3.35,2.5,2.5,0,0,1-.4.31,2.47,2.47,0,0,1-.46.23,1.75,1.75,0,0,1-.51.08,1,1,0,0,1-.87-.4,2,2,0,0,1-.33-1.29,4.71,4.71,0,0,1,.17-1.21,4.2,4.2,0,0,1,.5-1.14,2.89,2.89,0,0,1,.83-.84A2,2,0,0,1,124,145h.31l.25,0a.65.65,0,0,1,.21.06l.21.07.44-2.08h.75Zm-2.21,1.2a1,1,0,0,0,.43-.11,2.42,2.42,0,0,0,.42-.29,3,3,0,0,0,.35-.36,2.85,2.85,0,0,0,.24-.37l.56-2.6a1.16,1.16,0,0,0-.38-.15,2.86,2.86,0,0,0-.57,0,1.15,1.15,0,0,0-.72.25,2.06,2.06,0,0,0-.54.65,3.6,3.6,0,0,0-.35.94,4.92,4.92,0,0,0-.12,1.09,1.58,1.58,0,0,0,.16.71A.56.56,0,0,0,122.82,149.52Z"/><path class="cls-11" d="M130.45,143h.75l-.61,2.86h0a3.49,3.49,0,0,1,.32-.35,2.44,2.44,0,0,1,.4-.32,2.23,2.23,0,0,1,.47-.22,1.61,1.61,0,0,1,.54-.09.94.94,0,0,1,.86.42,1.85,1.85,0,0,1,.27,1,4.67,4.67,0,0,1-.25,1.6,3.5,3.5,0,0,1-.66,1.17,2.81,2.81,0,0,1-.93.73,2.44,2.44,0,0,1-1.08.25,3.3,3.3,0,0,1-.94-.12,1.68,1.68,0,0,1-.6-.28Zm1.67,2.52a1.13,1.13,0,0,0-.51.13,2.42,2.42,0,0,0-.49.32,2.63,2.63,0,0,0-.43.45,3,3,0,0,0-.32.47l-.5,2.35a1.48,1.48,0,0,0,.85.21,1.34,1.34,0,0,0,.67-.19,2,2,0,0,0,.64-.57,3.19,3.19,0,0,0,.48-.92,4,4,0,0,0,.18-1.25,1.45,1.45,0,0,0-.15-.75A.46.46,0,0,0,132.12,145.56Z"/><path class="cls-11" d="M135.57,148.28l.05,1h0l.38-1,1.66-3.23h.8l-2.36,4.46q-.26.5-.51,1a7.94,7.94,0,0,1-.53.83,2.83,2.83,0,0,1-.56.58,1,1,0,0,1-.6.22l-.29,0a.78.78,0,0,1-.23-.07l.24-.69a.67.67,0,0,0,.24,0,.81.81,0,0,0,.58-.3,4.19,4.19,0,0,0,.65-1l-.86-5h.8Z"/><path class="cls-11" d="M341.6,122.28a7.3,7.3,0,0,1,.94-4.11,3.15,3.15,0,0,1,2.72-1.34,3.1,3.1,0,0,1,2.78,1.33,7.55,7.55,0,0,1,.88,4.12,7.22,7.22,0,0,1-.95,4.12,3.13,3.13,0,0,1-2.72,1.35,3,3,0,0,1-2.76-1.42A7.56,7.56,0,0,1,341.6,122.28Zm1.95,0a7.74,7.74,0,0,0,.4,2.82,1.37,1.37,0,0,0,2.61.09,7.67,7.67,0,0,0,.41-2.91,8,8,0,0,0-.39-2.81,1.36,1.36,0,0,0-1.33-1,1.33,1.33,0,0,0-1.3.93A7.64,7.64,0,0,0,343.55,122.28Z"/><path class="cls-11" d="M350.13,126.55a1.11,1.11,0,0,1,.33-.83,1.23,1.23,0,0,1,.88-.31,1.26,1.26,0,0,1,.9.31,1.06,1.06,0,0,1,.32.83,1.1,1.1,0,0,1-.32.84,1.27,1.27,0,0,1-.9.32,1.24,1.24,0,0,1-.88-.32A1.14,1.14,0,0,1,350.13,126.55Z"/><path class="cls-11" d="M360.14,125.82a7.21,7.21,0,0,0-.11.73,5,5,0,0,0,0,.63c0,.07,0,.14,0,.2s0,.12,0,.18h-.5l-.13-.87h-.05a4.11,4.11,0,0,1-.29.35,3.9,3.9,0,0,1-.4.31,2.92,2.92,0,0,1-.47.23,1.7,1.7,0,0,1-.51.08,1.06,1.06,0,0,1-.87-.4,2,2,0,0,1-.32-1.29,4.31,4.31,0,0,1,.17-1.21,3.66,3.66,0,0,1,.5-1.14,2.74,2.74,0,0,1,.82-.84,2,2,0,0,1,1.14-.33h.31l.25,0a.79.79,0,0,1,.22.06l.2.07.44-2.08h.75Zm-2.2,1.2a1.05,1.05,0,0,0,.43-.11,2.78,2.78,0,0,0,.41-.29,2.38,2.38,0,0,0,.35-.36c.1-.13.18-.26.25-.37l.56-2.6a1.32,1.32,0,0,0-.39-.15,2.79,2.79,0,0,0-.57,0,1.15,1.15,0,0,0-.72.25,2.06,2.06,0,0,0-.54.65,3.59,3.59,0,0,0-.34.94,4.4,4.4,0,0,0-.13,1.09,1.58,1.58,0,0,0,.16.71A.57.57,0,0,0,357.94,127Z"/><path class="cls-11" d="M364.93,127.05a2.43,2.43,0,0,1-.82.46,3.2,3.2,0,0,1-1,.15,1.5,1.5,0,0,1-1.2-.46,1.87,1.87,0,0,1-.41-1.28,4.2,4.2,0,0,1,.24-1.47,3.51,3.51,0,0,1,.6-1.1,2.64,2.64,0,0,1,.85-.69,2.15,2.15,0,0,1,1-.24,1.68,1.68,0,0,1,.62.1,1.22,1.22,0,0,1,.43.27.87.87,0,0,1,.25.38,1.12,1.12,0,0,1,.08.45,1.23,1.23,0,0,1-.69,1.12,4,4,0,0,1-2,.4h-.25l-.26,0c0,.13-.05.25-.07.36s0,.21,0,.3a1.55,1.55,0,0,0,.25.9.9.9,0,0,0,.78.34,2.29,2.29,0,0,0,.81-.14,2.47,2.47,0,0,0,.57-.31Zm-.85-4a1.36,1.36,0,0,0-.95.38,2.35,2.35,0,0,0-.62,1.12l.79,0a4,4,0,0,0,.75-.1,1.42,1.42,0,0,0,.55-.27.65.65,0,0,0,.22-.52.69.69,0,0,0,0-.2.39.39,0,0,0-.12-.19.44.44,0,0,0-.22-.14A1,1,0,0,0,364.08,123.06Z"/><path class="cls-11" d="M367.12,122.54h.51l-.05.86h.05a2.51,2.51,0,0,1,.31-.35,2.3,2.3,0,0,1,.38-.32,1.84,1.84,0,0,1,.47-.22,1.51,1.51,0,0,1,.53-.09,1.33,1.33,0,0,1,.45.08.84.84,0,0,1,.37.25,1.13,1.13,0,0,1,.26.46,2.41,2.41,0,0,1,.09.71,4.86,4.86,0,0,1-.24,1.58,4,4,0,0,1-.62,1.17,2.9,2.9,0,0,1-.88.74,2.05,2.05,0,0,1-1,.25,2.83,2.83,0,0,1-.62-.06,1.21,1.21,0,0,1-.36-.14l-.43,2.08h-.75Zm1.92.52a1.06,1.06,0,0,0-.51.14,2.1,2.1,0,0,0-.45.35,2.61,2.61,0,0,0-.37.44,3.36,3.36,0,0,0-.25.43l-.5,2.37a1,1,0,0,0,.35.18,1.62,1.62,0,0,0,.4,0,1.46,1.46,0,0,0,.74-.21,2.06,2.06,0,0,0,.63-.62,3.28,3.28,0,0,0,.45-1,4.41,4.41,0,0,0,.16-1.25,1.2,1.2,0,0,0-.16-.66A.55.55,0,0,0,369,123.06Z"/><path class="cls-11" d="M372.08,126.35a1.67,1.67,0,0,0,0,.28.5.5,0,0,0,.07.28.21.21,0,0,0,.17.08l.34,0a2.3,2.3,0,0,0,.33-.1v.57l-.22.09-.24,0-.25,0H372a.89.89,0,0,1-.56-.16.7.7,0,0,1-.21-.59,2.49,2.49,0,0,1,.06-.49l1.24-5.85h.75Z"/><path class="cls-11" d="M374,126a4.64,4.64,0,0,1,.2-1.44,3.62,3.62,0,0,1,.56-1.13,2.64,2.64,0,0,1,.84-.73,2.11,2.11,0,0,1,1-.26,1.71,1.71,0,0,1,.72.14,1.19,1.19,0,0,1,.48.37,1.52,1.52,0,0,1,.27.54,2.59,2.59,0,0,1,.08.63,4.83,4.83,0,0,1-.2,1.4,3.82,3.82,0,0,1-.54,1.13,2.78,2.78,0,0,1-.81.76,1.9,1.9,0,0,1-1,.27,1.86,1.86,0,0,1-.75-.14,1.5,1.5,0,0,1-.5-.39,1.55,1.55,0,0,1-.28-.54A2.09,2.09,0,0,1,374,126Zm.79-.18a1.65,1.65,0,0,0,.22.91.81.81,0,0,0,.7.31,1,1,0,0,0,.63-.23,2.11,2.11,0,0,0,.52-.64,3.93,3.93,0,0,0,.36-.91,4.32,4.32,0,0,0,.13-1.08,1.51,1.51,0,0,0-.18-.8.76.76,0,0,0-.71-.3,1.06,1.06,0,0,0-.63.23,2.23,2.23,0,0,0-.53.6,3.19,3.19,0,0,0-.37.88A3.88,3.88,0,0,0,374.75,125.8Z"/><path class="cls-11" d="M380.2,125.78l0,1h.05l.38-1,1.66-3.23h.8L380.77,127q-.25.5-.51,1a7.94,7.94,0,0,1-.53.83,2.83,2.83,0,0,1-.56.58,1,1,0,0,1-.6.22l-.29,0a.88.88,0,0,1-.23-.07l.24-.69a.69.69,0,0,0,.25,0,.84.84,0,0,0,.58-.3,4.56,4.56,0,0,0,.64-1l-.86-5h.81Z"/><path class="cls-11" d="M385.23,126.13a.73.73,0,0,0-.13-.45,1.12,1.12,0,0,0-.33-.32,3.58,3.58,0,0,0-.43-.29,4.25,4.25,0,0,1-.43-.31,1.65,1.65,0,0,1-.33-.41,1.27,1.27,0,0,1-.13-.58,1.1,1.1,0,0,1,.14-.53,1.49,1.49,0,0,1,.37-.43,1.84,1.84,0,0,1,.56-.28,2.28,2.28,0,0,1,.7-.11,3.45,3.45,0,0,1,.82.07,1.88,1.88,0,0,1,.52.2l-.25.6a2.21,2.21,0,0,0-1.09-.23,1.22,1.22,0,0,0-.69.18.59.59,0,0,0-.28.53.62.62,0,0,0,.13.37,1.9,1.9,0,0,0,.33.29l.43.29a2,2,0,0,1,.43.33,1.27,1.27,0,0,1,.33.43,1.22,1.22,0,0,1,.13.59,1.41,1.41,0,0,1-.52,1.19,2.25,2.25,0,0,1-1.41.4,3.49,3.49,0,0,1-.82-.09,2.36,2.36,0,0,1-.61-.23l.28-.63a1.88,1.88,0,0,0,.53.22,2.52,2.52,0,0,0,.67.09,1.28,1.28,0,0,0,.79-.22A.79.79,0,0,0,385.23,126.13Z"/><path class="cls-11" d="M403.62,131.18a2,2,0,0,1-2-2V123.7a7.16,7.16,0,0,1,2.31-5.32,7.49,7.49,0,0,1,3.45-1.93,10.5,10.5,0,0,1-4.27-6.2l-.25-.12a4.43,4.43,0,0,1-2.48-4,4.26,4.26,0,0,1,.18-1.23,5.22,5.22,0,0,1,3-8.37,10.53,10.53,0,0,1,19.55,0,5.27,5.27,0,0,1,4,5.1,5.34,5.34,0,0,1-1,3.1,4.4,4.4,0,0,1,.21,1.36,4.47,4.47,0,0,1-2.73,4.09,10.53,10.53,0,0,1-4.29,6.22,7,7,0,0,1,3.46,2.06,7.42,7.42,0,0,1,2.18,5.18v5.48a2,2,0,0,1-2,2Z"/><path class="cls-8" d="M413.34,92a8.52,8.52,0,0,1,8.27,6.49h.26a3.26,3.26,0,0,1,3.25,3.25,3.36,3.36,0,0,1-1.53,2.75,2.4,2.4,0,0,1,.71,1.71,2.43,2.43,0,0,1-2.37,2.43l-.12.15a8.55,8.55,0,0,1-5.15,6.9v2.59h.75a5.19,5.19,0,0,1,3.86,1.65,5.43,5.43,0,0,1,1.65,3.83v5.48h-19.3V123.7a5.13,5.13,0,0,1,1.65-3.83,5.5,5.5,0,0,1,3.86-1.65h.92v-2.37h.18v-.14a8.53,8.53,0,0,1-5.36-7l-.1-.15a2.12,2.12,0,0,1-1-.24,2.41,2.41,0,0,1-1.38-2.19,2.47,2.47,0,0,1,.85-1.84l-.08-.41-.18.55a3.35,3.35,0,0,1-1.55-2.76,3.26,3.26,0,0,1,3.25-3.25h.18l.32-.4A8.53,8.53,0,0,1,413.34,92h0m0-4a12.61,12.61,0,0,0-11.21,7,7.21,7.21,0,0,0-3.7,10.44,5.51,5.51,0,0,0-.05.81,6.41,6.41,0,0,0,3,5.46,12.29,12.29,0,0,0,2.39,4.3,9.55,9.55,0,0,0-4.19,7.79v5.48a4,4,0,0,0,4,4h19.3a4,4,0,0,0,4-4V123.7a9.48,9.48,0,0,0-2.77-6.6,8.57,8.57,0,0,0-1.32-1.16,12.58,12.58,0,0,0,2.44-4.34,6.46,6.46,0,0,0,3-5.45,5.66,5.66,0,0,0-.08-1,7.16,7.16,0,0,0,.9-3.45A7.28,7.28,0,0,0,424.59,95a12.48,12.48,0,0,0-11.25-7Z"/><path class="cls-6" d="M403.62,130.18a1,1,0,0,1-1-1V123.7a6.13,6.13,0,0,1,2-4.57,6.55,6.55,0,0,1,4.45-1.91v-.94a9.49,9.49,0,0,1-5.08-6.79,3.56,3.56,0,0,1-.66-.25,3.45,3.45,0,0,1-1.93-3.09,3.4,3.4,0,0,1,.32-1.44,4.32,4.32,0,0,1-1.28-3,4.26,4.26,0,0,1,3.89-4.24,9.52,9.52,0,0,1,18.07,0,4.23,4.23,0,0,1,2.55,7.14,3.3,3.3,0,0,1,.37,1.54,3.46,3.46,0,0,1-2.59,3.33,9.53,9.53,0,0,1-5,6.78v1a6.18,6.18,0,0,1,4.35,2,6.47,6.47,0,0,1,1.91,4.51v5.48a1,1,0,0,1-1,1Z"/><path class="cls-11" d="M413.34,92a8.52,8.52,0,0,1,8.27,6.49h.26a3.26,3.26,0,0,1,3.25,3.25,3.36,3.36,0,0,1-1.53,2.75,2.4,2.4,0,0,1,.71,1.71,2.43,2.43,0,0,1-2.37,2.43l-.12.15a8.55,8.55,0,0,1-5.15,6.9v2.59h.75a5.19,5.19,0,0,1,3.86,1.65,5.43,5.43,0,0,1,1.65,3.83v5.48h-19.3V123.7a5.13,5.13,0,0,1,1.65-3.83,5.5,5.5,0,0,1,3.86-1.65h.92v-2.37h.18v-.14a8.53,8.53,0,0,1-5.36-7l-.1-.15a2.12,2.12,0,0,1-1-.24,2.41,2.41,0,0,1-1.38-2.19,2.47,2.47,0,0,1,.85-1.84l-.08-.41-.18.55a3.35,3.35,0,0,1-1.55-2.76,3.26,3.26,0,0,1,3.25-3.25h.18l.32-.4A8.53,8.53,0,0,1,413.34,92h0m0-2a10.6,10.6,0,0,0-9.77,6.6,5.22,5.22,0,0,0-3,8.37,4.26,4.26,0,0,0-.18,1.23,4.43,4.43,0,0,0,2.48,4l.25.12a10.5,10.5,0,0,0,4.27,6.2,7.55,7.55,0,0,0-3.48,2,7.14,7.14,0,0,0-2.28,5.28v5.48a2,2,0,0,0,2,2h19.3a2,2,0,0,0,2-2V123.7a7.49,7.49,0,0,0-2.21-5.22,7.1,7.1,0,0,0-3.43-2,10.5,10.5,0,0,0,4.29-6.22,4.47,4.47,0,0,0,2.73-4.09,4.4,4.4,0,0,0-.21-1.36,5.34,5.34,0,0,0,1-3.1,5.27,5.27,0,0,0-4-5.1A10.5,10.5,0,0,0,413.34,90Z"/><path class="cls-12" d="M410.05,115.76v2.39h-.92a5.5,5.5,0,0,0-3.86,1.65,5.19,5.19,0,0,0-1.65,3.86v5.52h19.3v-5.52a5.5,5.5,0,0,0-1.65-3.86,5.19,5.19,0,0,0-3.86-1.65h-.92v-2.39"/><path class="cls-12" d="M411.52,111.41a2.29,2.29,0,0,0,1.91,1,2.39,2.39,0,0,0,1.92-1"/><path class="cls-11" d="M416.8,105.85a.88.88,0,0,1,.81.82.81.81,0,1,1-.81-.82Z"/><circle class="cls-11" cx="410.06" cy="106.67" r="0.81"/><path class="cls-12" d="M422.92,104a2.44,2.44,0,0,1-1.05,4.63v-4.87A2.26,2.26,0,0,1,422.92,104Z"/><path class="cls-12" d="M403.76,108.34a2.43,2.43,0,0,1,1.05-4.62v4.87A2.14,2.14,0,0,1,403.76,108.34Z"/><path class="cls-12" d="M411.28,103a.81.81,0,1,1,0,1.62h-2.44a.81.81,0,0,1,0-1.62Z"/><path class="cls-12" d="M418.83,103.82a.86.86,0,0,1-.81.81h-2.43a.81.81,0,1,1,0-1.62H418A.87.87,0,0,1,418.83,103.82Z"/><path class="cls-12" d="M403,104.45a3.35,3.35,0,0,1-1.55-2.76,3.26,3.26,0,0,1,3.25-3.25H405"/><path class="cls-12" d="M423.57,104.45a3.34,3.34,0,0,0,1.55-2.76,3.26,3.26,0,0,0-3.25-3.25h-.33"/><rect class="cls-12" x="404.81" y="91.95" width="17.05" height="24.36" rx="8.13"/><path class="cls-11" d="M371.22,147.31h-1.17l-.18-.81a1.59,1.59,0,0,0-.45-.24,1.93,1.93,0,0,0-.6-.09,1.15,1.15,0,0,0-.73.2.63.63,0,0,0-.27.52.6.6,0,0,0,.25.49,2.87,2.87,0,0,0,1,.34,4.14,4.14,0,0,1,1.78.7,1.55,1.55,0,0,1,.58,1.28,1.68,1.68,0,0,1-.75,1.42,3.24,3.24,0,0,1-2,.56,4.23,4.23,0,0,1-1.37-.22,3.37,3.37,0,0,1-1.11-.63l0-1.45h1.22l.24.84a.92.92,0,0,0,.42.2,2.6,2.6,0,0,0,.56.06,1.38,1.38,0,0,0,.81-.19.59.59,0,0,0,.28-.52.61.61,0,0,0-.28-.5,2.92,2.92,0,0,0-1-.37,4,4,0,0,1-1.73-.69,1.48,1.48,0,0,1-.58-1.24,1.81,1.81,0,0,1,.67-1.41,2.81,2.81,0,0,1,1.91-.58,4.73,4.73,0,0,1,1.42.2,3,3,0,0,1,1.06.52Z"/><path class="cls-11" d="M374.82,143.5v1.58H376v1.23h-1.14v3.29a.79.79,0,0,0,.16.54.54.54,0,0,0,.42.16h.31l.3,0,.15,1.26a4.35,4.35,0,0,1-1.2.18,1.88,1.88,0,0,1-1.39-.5,2.19,2.19,0,0,1-.49-1.57v-3.3h-.95v-1.23h.95V143.5Z"/><path class="cls-11" d="M380.93,151.55a2.19,2.19,0,0,1-.12-.33,2.14,2.14,0,0,1-.09-.34,2.29,2.29,0,0,1-.75.58,2.39,2.39,0,0,1-1,.22,2.14,2.14,0,0,1-1.51-.52,1.82,1.82,0,0,1-.56-1.41,1.59,1.59,0,0,1,.73-1.4,3.82,3.82,0,0,1,2.14-.5h.89v-.63a1,1,0,0,0-.27-.73,1.1,1.1,0,0,0-.79-.25,1.81,1.81,0,0,0-.54.07,1.28,1.28,0,0,0-.37.16l-.12.69h-1.31v-1.43a4.51,4.51,0,0,1,1.1-.54,3.9,3.9,0,0,1,1.35-.23,3.08,3.08,0,0,1,1.95.59,2,2,0,0,1,.75,1.68v3a1.9,1.9,0,0,0,0,.25l.53.08v1Zm-1.51-1.16a1.59,1.59,0,0,0,.72-.17,1.52,1.52,0,0,0,.5-.43v-1h-.89a1.22,1.22,0,0,0-.84.26.8.8,0,0,0-.29.63.64.64,0,0,0,.21.51A.89.89,0,0,0,379.42,150.39Z"/><path class="cls-11" d="M383.36,143.28v-1.05H386v5.4h.39l1-1.42-.57-.07v-1.06H390v1.06l-.76.17-1.17,1.6,1.63,2.46.67.14v1h-3v-1l.36-.06-1-1.61H386v1.49l.75.18v1h-3.33v-1l.84-.18v-6.87Z"/><path class="cls-11" d="M394,151.68a2.9,2.9,0,0,1-2.23-.9,3.21,3.21,0,0,1-.84-2.28v-.24a3.57,3.57,0,0,1,.79-2.37,3,3,0,0,1,4.16-.14,3.06,3.06,0,0,1,.72,2.14v1h-3.86v0a1.67,1.67,0,0,0,.43,1.06,1.33,1.33,0,0,0,1,.41,3.21,3.21,0,0,0,1-.12,4.24,4.24,0,0,0,.84-.37l.47,1.08a3.37,3.37,0,0,1-1,.53A4.19,4.19,0,0,1,394,151.68Zm-.15-5.37a.92.92,0,0,0-.77.37,2,2,0,0,0-.34,1v0h2.15v-.15a1.43,1.43,0,0,0-.26-.89A1,1,0,0,0,393.83,146.31Z"/><path class="cls-11" d="M397.31,150.51l.85-.18v-6.87l-.94-.18v-1.05h2.68v3.68a2.24,2.24,0,0,1,.74-.7,2.07,2.07,0,0,1,1-.25,2,2,0,0,1,1.6.68,3.14,3.14,0,0,1,.57,2.07v2.62l.84.18v1h-3.34v-1l.76-.18V147.7a1.66,1.66,0,0,0-.27-1.07,1,1,0,0,0-.79-.31,1.47,1.47,0,0,0-.64.13,1.24,1.24,0,0,0-.45.37v3.51l.75.18v1h-3.34Z"/><path class="cls-11" d="M405.13,148.26a3.44,3.44,0,0,1,.81-2.37,2.82,2.82,0,0,1,2.24-.93,2.87,2.87,0,0,1,2.25.92,3.54,3.54,0,0,1,.81,2.38v.12a3.5,3.5,0,0,1-.81,2.38,3.2,3.2,0,0,1-4.49,0,3.45,3.45,0,0,1-.81-2.38Zm1.75.12a2.77,2.77,0,0,0,.31,1.42,1.19,1.19,0,0,0,2,0,2.79,2.79,0,0,0,.32-1.42v-.12a2.8,2.8,0,0,0-.32-1.41,1.08,1.08,0,0,0-1-.54,1.06,1.06,0,0,0-1,.54,2.81,2.81,0,0,0-.31,1.41Z"/><path class="cls-11" d="M411.69,143.28v-1.05h2.68v8.1l.84.18v1h-3.43v-1l.84-.18v-6.87Z"/><path class="cls-11" d="M420,150.76a2.2,2.2,0,0,1-.72.68,1.89,1.89,0,0,1-.95.24,2.18,2.18,0,0,1-1.86-.88,3.72,3.72,0,0,1-.66-2.3v-.13a4.15,4.15,0,0,1,.67-2.47,2.16,2.16,0,0,1,1.86-.94,1.68,1.68,0,0,1,.87.22,2,2,0,0,1,.68.6v-2.32l-.93-.18v-1.05h2.68v8.1l.84.18v1h-2.35Zm-2.44-2.26a2.63,2.63,0,0,0,.28,1.33,1,1,0,0,0,.93.49,1.41,1.41,0,0,0,.67-.15,1.29,1.29,0,0,0,.45-.45V147a1.3,1.3,0,0,0-.45-.48,1.27,1.27,0,0,0-.66-.17,1,1,0,0,0-.93.57,3.3,3.3,0,0,0-.29,1.48Z"/><path class="cls-11" d="M426.12,151.68a2.92,2.92,0,0,1-2.24-.9,3.25,3.25,0,0,1-.83-2.28v-.24a3.52,3.52,0,0,1,.79-2.37,3,3,0,0,1,4.16-.14,3.06,3.06,0,0,1,.72,2.14v1h-3.86v0a1.71,1.71,0,0,0,.42,1.06,1.36,1.36,0,0,0,1,.41,3.33,3.33,0,0,0,1-.12,4.81,4.81,0,0,0,.84-.37l.47,1.08a3.49,3.49,0,0,1-1,.53A4.23,4.23,0,0,1,426.12,151.68Zm-.16-5.37a.9.9,0,0,0-.76.37,2,2,0,0,0-.35,1l0,0H427v-.15a1.43,1.43,0,0,0-.26-.89A.94.94,0,0,0,426,146.31Z"/><path class="cls-11" d="M429.68,150.51l.83-.18v-4l-.92-.17v-1.06h2.55l.08.95a1.9,1.9,0,0,1,.58-.78,1.31,1.31,0,0,1,.83-.29l.29,0,.26.06-.19,1.59-.71,0a1.24,1.24,0,0,0-.64.15,1,1,0,0,0-.38.42v3.15l.84.18v1h-3.42Z"/><path class="cls-11" d="M444.27,145.63H443l-.23-1.2a2.4,2.4,0,0,0-.66-.25,4,4,0,0,0-.93-.11,1.73,1.73,0,0,0-1.11.31.94.94,0,0,0-.39.78.86.86,0,0,0,.41.72,5.67,5.67,0,0,0,1.41.6,5.52,5.52,0,0,1,2.19,1.06,2.18,2.18,0,0,1,.74,1.73,2.06,2.06,0,0,1-.88,1.76,3.87,3.87,0,0,1-2.33.65,5.06,5.06,0,0,1-1.87-.33,3.78,3.78,0,0,1-1.39-.91v-1.82h1.35l.19,1.24a2.24,2.24,0,0,0,.71.36,3.52,3.52,0,0,0,1,.14,1.71,1.71,0,0,0,1.09-.3.92.92,0,0,0,.37-.78,1,1,0,0,0-.35-.81,3.77,3.77,0,0,0-1.25-.57,6.92,6.92,0,0,1-2.34-1.07,2,2,0,0,1-.8-1.68,2.07,2.07,0,0,1,.9-1.73,3.72,3.72,0,0,1,2.25-.69,5.32,5.32,0,0,1,1.83.3,4.41,4.41,0,0,1,1.39.82Z"/><path class="cls-11" d="M445.08,143.9v-1.05h3.61v1.05l-.94.18v2.51h3.55v-2.51l-.93-.18v-1.05H454v1.05l-.94.18v6.25l.94.18v1h-3.61v-1l.93-.18v-2.39h-3.55v2.39l.94.18v1h-3.61v-1l.93-.18v-6.25Z"/><path class="cls-11" d="M456.6,146.46h1a1.19,1.19,0,0,0,.92-.33,1.27,1.27,0,0,0,.29-.9,1.2,1.2,0,0,0-.29-.85,1.14,1.14,0,0,0-.87-.31,1.25,1.25,0,0,0-.83.28,1,1,0,0,0-.33.76h-1.69v0a1.94,1.94,0,0,1,.78-1.68,3.09,3.09,0,0,1,2-.67,3.37,3.37,0,0,1,2.16.65,2.23,2.23,0,0,1,.8,1.84,1.84,1.84,0,0,1-.36,1.08,2.36,2.36,0,0,1-1,.8,2.21,2.21,0,0,1,1.1.79,2.06,2.06,0,0,1,.38,1.23,2.25,2.25,0,0,1-.87,1.88,3.47,3.47,0,0,1-2.23.69,3.39,3.39,0,0,1-2.08-.65,2,2,0,0,1-.84-1.81v0h1.69a1.05,1.05,0,0,0,.36.83,1.46,1.46,0,0,0,1.86,0,1.16,1.16,0,0,0,.35-.91,1.3,1.3,0,0,0-.34-1,1.41,1.41,0,0,0-1-.32h-1Z"/><path class="cls-6" d="M403.62,130.18a1,1,0,0,1-1-1V123.7a6.13,6.13,0,0,1,2-4.57,6.55,6.55,0,0,1,4.45-1.91v-.94a9.49,9.49,0,0,1-5.08-6.79,3.56,3.56,0,0,1-.66-.25,3.45,3.45,0,0,1-1.93-3.09,3.4,3.4,0,0,1,.32-1.44,4.32,4.32,0,0,1-1.28-3,4.26,4.26,0,0,1,3.89-4.24,9.52,9.52,0,0,1,18.07,0,4.23,4.23,0,0,1,2.55,7.14,3.3,3.3,0,0,1,.37,1.54,3.46,3.46,0,0,1-2.59,3.33,9.53,9.53,0,0,1-5,6.78v1a6.18,6.18,0,0,1,4.35,2,6.47,6.47,0,0,1,1.91,4.51v5.48a1,1,0,0,1-1,1Z"/><path class="cls-11" d="M413.34,92a8.52,8.52,0,0,1,8.27,6.49h.26a3.26,3.26,0,0,1,3.25,3.25,3.36,3.36,0,0,1-1.53,2.75,2.4,2.4,0,0,1,.71,1.71,2.43,2.43,0,0,1-2.37,2.43l-.12.15a8.55,8.55,0,0,1-5.15,6.9v2.59h.75a5.19,5.19,0,0,1,3.86,1.65,5.43,5.43,0,0,1,1.65,3.83v5.48h-19.3V123.7a5.13,5.13,0,0,1,1.65-3.83,5.5,5.5,0,0,1,3.86-1.65h.92v-2.37h.18v-.14a8.53,8.53,0,0,1-5.36-7l-.1-.15a2.12,2.12,0,0,1-1-.24,2.41,2.41,0,0,1-1.38-2.19,2.47,2.47,0,0,1,.85-1.84l-.08-.41-.18.55a3.35,3.35,0,0,1-1.55-2.76,3.26,3.26,0,0,1,3.25-3.25h.18l.32-.4A8.53,8.53,0,0,1,413.34,92h0m0-2a10.6,10.6,0,0,0-9.77,6.6,5.22,5.22,0,0,0-3,8.37,4.26,4.26,0,0,0-.18,1.23,4.43,4.43,0,0,0,2.48,4l.25.12a10.5,10.5,0,0,0,4.27,6.2,7.55,7.55,0,0,0-3.48,2,7.14,7.14,0,0,0-2.28,5.28v5.48a2,2,0,0,0,2,2h19.3a2,2,0,0,0,2-2V123.7a7.49,7.49,0,0,0-2.21-5.22,7.1,7.1,0,0,0-3.43-2,10.5,10.5,0,0,0,4.29-6.22,4.47,4.47,0,0,0,2.73-4.09,4.4,4.4,0,0,0-.21-1.36,5.34,5.34,0,0,0,1-3.1,5.27,5.27,0,0,0-4-5.1A10.5,10.5,0,0,0,413.34,90Z"/><path class="cls-12" d="M410.05,115.76v2.39h-.92a5.5,5.5,0,0,0-3.86,1.65,5.19,5.19,0,0,0-1.65,3.86v5.52h19.3v-5.52a5.5,5.5,0,0,0-1.65-3.86,5.19,5.19,0,0,0-3.86-1.65h-.92v-2.39"/><path class="cls-12" d="M411.52,111.41a2.29,2.29,0,0,0,1.91,1,2.39,2.39,0,0,0,1.92-1"/><path class="cls-11" d="M416.8,105.85a.88.88,0,0,1,.81.82.81.81,0,1,1-.81-.82Z"/><circle class="cls-11" cx="410.06" cy="106.67" r="0.81"/><path class="cls-12" d="M422.92,104a2.44,2.44,0,0,1-1.05,4.63v-4.87A2.26,2.26,0,0,1,422.92,104Z"/><path class="cls-12" d="M403.76,108.34a2.43,2.43,0,0,1,1.05-4.62v4.87A2.14,2.14,0,0,1,403.76,108.34Z"/><path class="cls-12" d="M411.28,103a.81.81,0,1,1,0,1.62h-2.44a.81.81,0,0,1,0-1.62Z"/><path class="cls-12" d="M418.83,103.82a.86.86,0,0,1-.81.81h-2.43a.81.81,0,1,1,0-1.62H418A.87.87,0,0,1,418.83,103.82Z"/><path class="cls-12" d="M403,104.45a3.35,3.35,0,0,1-1.55-2.76,3.26,3.26,0,0,1,3.25-3.25H405"/><path class="cls-12" d="M423.57,104.45a3.34,3.34,0,0,0,1.55-2.76,3.26,3.26,0,0,0-3.25-3.25h-.33"/><rect class="cls-12" x="404.81" y="91.95" width="17.05" height="24.36" rx="8.13"/><rect class="cls-14" x="38" y="34" width="295" height="229" rx="5"/><path class="cls-15" d="M253.25,158.87a11.73,11.73,0,1,1-3.52,8.38,11.51,11.51,0,0,1,2.4-7.09"/><path class="cls-16" d="M261.17,172.9h-4.25c-.58,0-.8-.23-.8-.8v-6.47c0-.58.22-.8.8-.8h8.46c.54,0,.77.22.77.77v6.5c0,.54-.23.77-.77.77C264,172.93,262.55,172.9,261.17,172.9Z"/><path class="cls-16" d="M256.81,164.27a4.52,4.52,0,0,1,2.64-4.14,4.19,4.19,0,0,1,5.77,2.85c.1.39.14.78.24,1.19"/><path class="cls-7" d="M260.46,170.13h0V171c0,.16.07.23.26.23h.83c.23,0,.29-.07.29-.26v-1.61a.37.37,0,0,1,.23-.38,1.21,1.21,0,0,0,.61-1.45,1.53,1.53,0,0,0-1.45-1,1.61,1.61,0,0,0-1.6.86,1.19,1.19,0,0,0,.54,1.51.42.42,0,0,1,.26.49A5.7,5.7,0,0,1,260.46,170.13Z"/><rect class="cls-17" x="142.22" y="58.52" width="85.27" height="71.48" rx="4"/><g id="Scone_logo_white-2" data-name="Scone logo white"><g class="cls-18"><g class="cls-18"><path class="cls-4" d="M171.81,118.8h-.76a.3.3,0,0,0-.29.3v.77a.29.29,0,0,0,.29.29h.76a.29.29,0,0,0,.3-.29v-.77a.3.3,0,0,0-.3-.3m-2.64,1.36h.76a.29.29,0,0,0,.29-.29v-.77a.3.3,0,0,0-.29-.3h-.76a.3.3,0,0,0-.3.3v.77a.29.29,0,0,0,.3.29m-.82-.29v-.77a.31.31,0,0,0-.3-.3h-.76a.3.3,0,0,0-.29.3v.77a.29.29,0,0,0,.29.29h.76a.3.3,0,0,0,.3-.29m3.52.84a.23.23,0,0,0-.22.22v.9a.23.23,0,0,0,.22.22.22.22,0,0,0,.22-.22v-.9a.2.2,0,0,0-.22-.22m-2.09.29v.77a.29.29,0,0,0,.29.3h.76a.29.29,0,0,0,.3-.3V121a.29.29,0,0,0-.3-.29h-.76a.29.29,0,0,0-.29.29m-.54.77V121a.29.29,0,0,0-.29-.29h-.76a.29.29,0,0,0-.3.29v.77a.29.29,0,0,0,.3.3H169a.29.29,0,0,0,.29-.3m2.57.84h-.76a.29.29,0,0,0-.29.29v.78a.29.29,0,0,0,.29.29h.76a.29.29,0,0,0,.3-.29v-.78a.29.29,0,0,0-.3-.29m-2,0h-.76a.29.29,0,0,0-.29.29v.78a.29.29,0,0,0,.29.29h.76a.29.29,0,0,0,.29-.29v-.78a.29.29,0,0,0-.29-.29"/><path class="cls-4" d="M172.74,118.5a1.77,1.77,0,0,0,1.18.36s0,0,0,.06V121c0,.81-1,1.31-1.22,1.44a0,0,0,0,1,0,0l0-3.92s0,0,0,0"/><path class="cls-4" d="M170.44,118.39c1.61,0,1.87-.61,1.87-.61a.09.09,0,0,1,.08,0,.1.1,0,0,1,.07,0s.25.6,1.86.6c0,0,.06,0,.06.08v2.75c0,.88-1.67,1.87-1.7,1.89s-.06,0-.06.06v.68s.1.05.15,0c.61-.33,2.34-1.29,2.34-2.46v-3.51c0-.06-.1-.1-.16-.1-2,0-2.43-.75-2.43-.75s-.09,0-.13,0-.08,0-.09,0-.34.77-2.37.77c-.08,0-.09,0-.09.09v.44s0,.1.06.1l.54,0"/><path class="cls-5" d="M176.63,122.89l.82-.31a1.11,1.11,0,0,0,1.07.61,1.2,1.2,0,0,0,.63-.14.51.51,0,0,0,.26-.44c0-.44-.6-.7-1-.88h0a4.25,4.25,0,0,1-1-.53,1.2,1.2,0,0,1-.47-1,1.3,1.3,0,0,1,.49-1,1.86,1.86,0,0,1,1.21-.41,1.76,1.76,0,0,1,1.61.88l-.85.32a.65.65,0,0,0-.29-.3,1.12,1.12,0,0,0-.47-.11c-.47,0-.79.25-.79.59a.66.66,0,0,0,.32.53,5.53,5.53,0,0,0,.73.38l.11,0c.63.26,1.4.6,1.4,1.45a1.22,1.22,0,0,1-.56,1,2.21,2.21,0,0,1-1.33.38,2,2,0,0,1-1.87-1.11"/><path class="cls-5" d="M183.89,124a2.67,2.67,0,0,1-1-.2,2.68,2.68,0,0,1-1.38-1.38,2.64,2.64,0,0,1-.2-1,2.71,2.71,0,0,1,.2-1,2.5,2.5,0,0,1,.56-.82,2.42,2.42,0,0,1,.82-.55,2.68,2.68,0,0,1,1-.21,2.52,2.52,0,0,1,1.17.28,2.59,2.59,0,0,1,.89.75l-.69.51a1.83,1.83,0,0,0-.6-.5,1.91,1.91,0,0,0-.79-.19,1.74,1.74,0,0,0-1.23,3,1.73,1.73,0,0,0,2.74-.38l.75.43a2.59,2.59,0,0,1-.94,1,2.34,2.34,0,0,1-1.3.36"/><path class="cls-5" d="M189.55,124a2.5,2.5,0,0,1-1-.21,2.47,2.47,0,0,1-.82-.55,2.69,2.69,0,0,1-.55-.82,2.5,2.5,0,0,1-.21-1,2.35,2.35,0,0,1,.21-1,2.57,2.57,0,0,1,.55-.82,2.72,2.72,0,0,1,.82-.56,2.65,2.65,0,0,1,2,0,2.31,2.31,0,0,1,.82.56,2.44,2.44,0,0,1,.56.82,2.65,2.65,0,0,1,0,2,2.55,2.55,0,0,1-.56.82,2.69,2.69,0,0,1-.82.55,2.5,2.5,0,0,1-1,.21m0-4.35a1.7,1.7,0,0,0-1.23.51,1.78,1.78,0,0,0-.51,1.23,1.73,1.73,0,0,0,3,1.23,1.74,1.74,0,0,0,.51-1.23,1.79,1.79,0,0,0-.51-1.23,1.74,1.74,0,0,0-1.23-.51"/><polygon class="cls-5" points="198.03 118.85 198.03 124.12 194.4 120.78 194.4 123.91 193.47 123.91 193.47 118.66 197.1 122.01 197.1 118.85 198.03 118.85"/><polygon class="cls-5" points="200.5 119.62 200.5 120.97 203.03 120.97 203.03 121.76 200.5 121.76 200.5 123.12 203.34 123.12 203.34 123.91 199.58 123.91 199.58 118.85 203.34 118.85 203.34 119.64 200.5 119.64 200.5 119.62"/></g></g></g><path class="cls-6" d="M162.46,86.1h-1.27L161,85a1.79,1.79,0,0,0-.64-.4,2.42,2.42,0,0,0-.9-.15,2,2,0,0,0-1.72.81,3.45,3.45,0,0,0-.6,2.11v.3a3.5,3.5,0,0,0,.6,2.12,2,2,0,0,0,1.69.81,2.69,2.69,0,0,0,.92-.15A1.52,1.52,0,0,0,161,90l.18-1.14h1.27v1.69a3.93,3.93,0,0,1-1.32,1,4.47,4.47,0,0,1-1.79.35,3.63,3.63,0,0,1-2.81-1.19,4.33,4.33,0,0,1-1.1-3.05v-.29a4.4,4.4,0,0,1,1.09-3,3.64,3.64,0,0,1,2.82-1.19,4.3,4.3,0,0,1,1.79.36,3.79,3.79,0,0,1,1.32,1Z"/><path class="cls-6" d="M163.28,88.52a3.39,3.39,0,0,1,.8-2.32,3.1,3.1,0,0,1,4.39,0,3.37,3.37,0,0,1,.8,2.32v.12a3.38,3.38,0,0,1-.8,2.33,3.13,3.13,0,0,1-4.39,0,3.38,3.38,0,0,1-.8-2.33Zm1.71.12a2.82,2.82,0,0,0,.31,1.4,1.17,1.17,0,0,0,1.95,0,2.68,2.68,0,0,0,.31-1.39v-.12a2.71,2.71,0,0,0-.31-1.38,1.06,1.06,0,0,0-1-.53,1,1,0,0,0-1,.53,2.82,2.82,0,0,0-.31,1.38Z"/><path class="cls-6" d="M169.92,90.72l.82-.17V86.62l-.91-.18v-1h2.5l.08.91a2.26,2.26,0,0,1,.78-.76,2,2,0,0,1,1-.27,1.89,1.89,0,0,1,1.5.61,2.77,2.77,0,0,1,.54,1.89v2.76l.82.17v1h-3.27v-1l.73-.17V87.79a1.29,1.29,0,0,0-.25-.9,1,1,0,0,0-.78-.27,1.34,1.34,0,0,0-.61.14,1.2,1.2,0,0,0-.45.39v3.4l.69.17v1h-3.22Z"/><path class="cls-6" d="M180.15,83.86v1.55h1.12v1.2h-1.12v3.23a.76.76,0,0,0,.15.53.58.58,0,0,0,.41.16l.31,0,.3-.05.14,1.24a4.09,4.09,0,0,1-.56.13,3.91,3.91,0,0,1-.61,0,1.86,1.86,0,0,1-1.37-.48,2.18,2.18,0,0,1-.47-1.54V86.61h-.93v-1.2h.93V83.86Z"/><path class="cls-6" d="M186.14,91.75a1.85,1.85,0,0,1-.12-.33,2,2,0,0,1-.08-.33,2.52,2.52,0,0,1-.75.57,2.25,2.25,0,0,1-1,.21,2.1,2.1,0,0,1-1.48-.5,1.78,1.78,0,0,1-.55-1.38,1.57,1.57,0,0,1,.71-1.38,3.79,3.79,0,0,1,2.1-.49h.87V87.5a.93.93,0,0,0-.26-.71,1.14,1.14,0,0,0-.78-.25,1.68,1.68,0,0,0-.52.07,1.28,1.28,0,0,0-.37.16l-.11.68h-1.29V86a4.64,4.64,0,0,1,1.07-.53,4,4,0,0,1,1.32-.22,3,3,0,0,1,1.91.58,1.93,1.93,0,0,1,.74,1.64v2.9c0,.08,0,.17,0,.24l.53.07v1Zm-1.48-1.14a1.48,1.48,0,0,0,.7-.17,1.27,1.27,0,0,0,.49-.42v-1H185a1.21,1.21,0,0,0-.83.26.81.81,0,0,0-.28.61.65.65,0,0,0,.21.51A.86.86,0,0,0,184.66,90.61Z"/><path class="cls-6" d="M188.64,90.72l.83-.17V86.62l-.92-.18v-1h2.63v5.14l.82.17v1h-3.36Zm2.54-6.83h-1.71V82.61h1.71Z"/><path class="cls-6" d="M192.47,90.72l.82-.17V86.62l-.91-.18v-1h2.5l.08.91a2.26,2.26,0,0,1,.78-.76,2,2,0,0,1,1-.27,1.89,1.89,0,0,1,1.5.61,2.82,2.82,0,0,1,.53,1.89v2.76l.82.17v1h-3.26v-1l.73-.17V87.79a1.29,1.29,0,0,0-.26-.9,1,1,0,0,0-.78-.27,1.34,1.34,0,0,0-.61.14,1.2,1.2,0,0,0-.45.39v3.4l.69.17v1h-3.22Z"/><path class="cls-6" d="M203.16,91.87A2.86,2.86,0,0,1,201,91a3.16,3.16,0,0,1-.82-2.23v-.23a3.47,3.47,0,0,1,.78-2.33,2.89,2.89,0,0,1,4.08-.13,3,3,0,0,1,.71,2.09v.93h-3.79v0a1.65,1.65,0,0,0,.42,1,1.3,1.3,0,0,0,1,.4,3.51,3.51,0,0,0,.94-.11,5,5,0,0,0,.82-.36l.46,1a3.3,3.3,0,0,1-1,.52A4.36,4.36,0,0,1,203.16,91.87ZM203,86.61a.91.91,0,0,0-.75.36,2.07,2.07,0,0,0-.34,1l0,0H204v-.15a1.35,1.35,0,0,0-.26-.87A.9.9,0,0,0,203,86.61Z"/><path class="cls-6" d="M206.64,90.72l.82-.17V86.62l-.91-.18v-1h2.51l.07.93a1.94,1.94,0,0,1,.58-.77,1.23,1.23,0,0,1,.81-.28l.29,0,.24,0-.18,1.56-.7,0a1.16,1.16,0,0,0-.62.15,1,1,0,0,0-.38.42v3.08l.82.17v1h-3.35Z"/><path class="cls-6" d="M213.43,86.92h-1.7v-1.5h1.7Zm0,4.83h-1.7v-1.5h1.7Z"/><path class="cls-6" d="M166.06,100.34h-1.28l-.22-1.17a2.48,2.48,0,0,0-.65-.24,3.84,3.84,0,0,0-.91-.11,1.74,1.74,0,0,0-1.09.3.92.92,0,0,0-.38.76.82.82,0,0,0,.4.71,5.51,5.51,0,0,0,1.39.59,5.41,5.41,0,0,1,2.14,1,2.16,2.16,0,0,1,.73,1.69,2,2,0,0,1-.87,1.73,3.81,3.81,0,0,1-2.29.63,4.89,4.89,0,0,1-1.83-.32,3.7,3.7,0,0,1-1.36-.89v-1.78h1.33l.18,1.21a2,2,0,0,0,.7.35,3.31,3.31,0,0,0,1,.14,1.71,1.71,0,0,0,1.07-.29.92.92,0,0,0,.37-.77,1,1,0,0,0-.35-.79,3.58,3.58,0,0,0-1.22-.56,7,7,0,0,1-2.3-1,2,2,0,0,1-.78-1.65,2,2,0,0,1,.88-1.7,3.65,3.65,0,0,1,2.21-.68,5.05,5.05,0,0,1,1.79.3,4.11,4.11,0,0,1,1.36.8Z"/><path class="cls-6" d="M169.94,106.27a2.82,2.82,0,0,1-2.19-.88,3.12,3.12,0,0,1-.83-2.23v-.23a3.47,3.47,0,0,1,.78-2.33,2.89,2.89,0,0,1,4.08-.13,3,3,0,0,1,.71,2.09v.93H168.7v0a1.65,1.65,0,0,0,.42,1,1.3,1.3,0,0,0,1,.4,3.51,3.51,0,0,0,.94-.11,5,5,0,0,0,.82-.36l.46,1.05a3.3,3.3,0,0,1-1,.52A4.36,4.36,0,0,1,169.94,106.27Zm-.16-5.26a.89.89,0,0,0-.75.37,2,2,0,0,0-.34,1l0,0h2.1v-.15a1.35,1.35,0,0,0-.26-.87A.9.9,0,0,0,169.78,101Z"/><path class="cls-6" d="M173.42,105.13l.82-.18V101l-.91-.18v-1h2.51l.07.93a1.94,1.94,0,0,1,.58-.77,1.28,1.28,0,0,1,.81-.28l.29,0,.24.05-.18,1.56-.7,0a1.16,1.16,0,0,0-.62.15,1,1,0,0,0-.38.42V105l.82.18v1h-3.35Z"/><path class="cls-6" d="M181.14,100.84l-.6.11.84,2.84.11.6h0l.12-.6.83-2.83-.61-.12v-1h2.87v1l-.55.09-1.87,5.22h-1.63l-1.88-5.22-.55-.09v-1h2.88Z"/><path class="cls-6" d="M185.24,105.13l.82-.18V101l-.91-.18v-1h2.62V105l.82.18v1h-3.35Zm2.53-6.84h-1.71V97h1.71Z"/><path class="cls-6" d="M192.13,105a1,1,0,0,0,.73-.27.91.91,0,0,0,.28-.71h1.55v0a2,2,0,0,1-.72,1.61,2.71,2.71,0,0,1-1.85.64,2.73,2.73,0,0,1-2.18-.89,3.39,3.39,0,0,1-.77-2.31v-.17a3.33,3.33,0,0,1,.79-2.3,2.78,2.78,0,0,1,2.24-.91,4,4,0,0,1,1.38.23,2.63,2.63,0,0,1,1,.65l0,1.69h-1.39l-.28-1a1.23,1.23,0,0,0-.32-.19,1.38,1.38,0,0,0-.43-.07,1.08,1.08,0,0,0-1,.53,2.71,2.71,0,0,0-.3,1.36v.17a2.82,2.82,0,0,0,.28,1.37A1,1,0,0,0,192.13,105Z"/><path class="cls-6" d="M198.51,106.27a2.85,2.85,0,0,1-2.19-.88,3.12,3.12,0,0,1-.82-2.23v-.23a3.47,3.47,0,0,1,.78-2.33,2.57,2.57,0,0,1,2.08-.91,2.54,2.54,0,0,1,2,.78,2.93,2.93,0,0,1,.71,2.09v.93h-3.78l0,0a1.77,1.77,0,0,0,.42,1,1.31,1.31,0,0,0,1,.4,3.59,3.59,0,0,0,.95-.11,5,5,0,0,0,.82-.36l.46,1.05a3.24,3.24,0,0,1-1,.52A4.32,4.32,0,0,1,198.51,106.27Zm-.15-5.26a.87.87,0,0,0-.75.37,1.89,1.89,0,0,0-.34,1l0,0h2.1v-.15a1.35,1.35,0,0,0-.26-.87A.92.92,0,0,0,198.36,101Z"/><path class="cls-6" d="M204.82,105.13l1.44-.18V99.17h-1.45v-1l3.16-.57V105l1.44.18v1h-4.59Z"/><path class="cls-15" d="M176.25,50.87a11.73,11.73,0,1,1-3.52,8.38,11.51,11.51,0,0,1,2.4-7.09"/><path class="cls-16" d="M184.17,64.9h-4.25c-.58,0-.8-.23-.8-.8V57.63c0-.58.22-.8.8-.8h8.46c.54,0,.77.22.77.77v6.5c0,.54-.23.77-.77.77C187,64.93,185.55,64.9,184.17,64.9Z"/><path class="cls-16" d="M179.81,56.27a4.52,4.52,0,0,1,2.64-4.14A4.19,4.19,0,0,1,188.22,55c.1.39.14.78.24,1.19"/><path class="cls-7" d="M183.46,62.13h0V63c0,.16.07.23.26.23h.83c.23,0,.29-.07.29-.26V61.36a.37.37,0,0,1,.23-.38,1.21,1.21,0,0,0,.61-1.45,1.53,1.53,0,0,0-1.45-1,1.61,1.61,0,0,0-1.6.86,1.19,1.19,0,0,0,.54,1.51.42.42,0,0,1,.26.49A5.7,5.7,0,0,1,183.46,62.13Z"/><path class="cls-19" d="M25,283.59a1,1,0,0,0,.75-.27,1,1,0,0,0,.28-.73h1.57l0,0a2,2,0,0,1-.73,1.64,2.79,2.79,0,0,1-1.89.66,2.77,2.77,0,0,1-2.23-.92,3.48,3.48,0,0,1-.78-2.34v-.18a3.4,3.4,0,0,1,.8-2.35,2.85,2.85,0,0,1,2.29-.92,3.94,3.94,0,0,1,1.41.23,2.61,2.61,0,0,1,1,.66l0,1.72H26.1l-.29-1a1.22,1.22,0,0,0-.32-.18,1.23,1.23,0,0,0-.44-.08,1.09,1.09,0,0,0-1,.54,2.73,2.73,0,0,0-.31,1.39v.18a2.94,2.94,0,0,0,.28,1.39A1,1,0,0,0,25,283.59Z"/><path class="cls-19" d="M28.2,276.53v-1h2.67v8.1l.85.18v1H28.29v-1l.84-.18v-6.87Z"/><path class="cls-19" d="M32.17,281.51a3.44,3.44,0,0,1,.81-2.37,2.79,2.79,0,0,1,2.23-.92,2.82,2.82,0,0,1,2.25.92,3.44,3.44,0,0,1,.81,2.37v.12a3.45,3.45,0,0,1-.81,2.38A3.19,3.19,0,0,1,33,284a3.45,3.45,0,0,1-.81-2.38Zm1.74.12a2.77,2.77,0,0,0,.31,1.42,1.07,1.07,0,0,0,1,.54,1.06,1.06,0,0,0,1-.54,2.9,2.9,0,0,0,.31-1.42v-.12a2.83,2.83,0,0,0-.32-1.41,1.19,1.19,0,0,0-2,0,2.83,2.83,0,0,0-.31,1.41Z"/><path class="cls-19" d="M43.55,284a2,2,0,0,1-.76.7,2.14,2.14,0,0,1-1,.25,2,2,0,0,1-1.6-.66,3,3,0,0,1-.58-2v-2.67l-.71-.18v-1.06h2.46v3.92a1.65,1.65,0,0,0,.23,1,.82.82,0,0,0,.7.31,1.75,1.75,0,0,0,.72-.13,1.25,1.25,0,0,0,.49-.39v-3.48l-.76-.18v-1.06H45.2v5.25l.78.18v1H43.67Z"/><path class="cls-19" d="M50.88,284a2.35,2.35,0,0,1-.72.69,2,2,0,0,1-.95.23,2.2,2.2,0,0,1-1.86-.87,3.75,3.75,0,0,1-.66-2.31v-.13a4.15,4.15,0,0,1,.67-2.47,2.15,2.15,0,0,1,1.86-.93,1.81,1.81,0,0,1,.87.21,2,2,0,0,1,.68.6v-2.32l-.93-.18v-1h2.68v8.1l.84.18v1H51Zm-2.44-2.26a2.63,2.63,0,0,0,.28,1.33,1,1,0,0,0,.93.49,1.34,1.34,0,0,0,.66-.15,1.24,1.24,0,0,0,.46-.45v-2.75a1.38,1.38,0,0,0-.45-.48,1.3,1.3,0,0,0-.66-.17,1,1,0,0,0-.93.57,3.3,3.3,0,0,0-.29,1.48Z"/><path class="cls-20" d="M33.46,257.73a2.88,2.88,0,0,0-3.61-1.19c-2.25.87-1.26,3.63-1.26,3.63s-5.14-.07-4.57,5.19c.41,3.85,4.57,3.63,4.42,3.63-6.19,0,12.39.05,18.59,0a4.59,4.59,0,0,0,2.63-1A3.94,3.94,0,0,0,51,263.2c-.65-1.83-3-2.78-4.87-2.88,0,0,1.1-4.88-2.41-7a6.63,6.63,0,0,0-8.1.6A7.48,7.48,0,0,0,33.46,257.73Z"/><line class="cls-21" x1="267.68" y1="291.67" x2="267.02" y2="245.15"/><polygon class="cls-11" points="272.81 249.71 271.8 250.68 267.03 245.69 262.4 250.81 261.36 249.87 267 243.63 272.81 249.71"/><line class="cls-21" x1="147" y1="138.64" x2="147" y2="156.48"/><polygon class="cls-11" points="141.27 151.84 142.3 150.89 147 155.94 151.7 150.89 152.72 151.84 147 158 141.27 151.84"/><line class="cls-21" x1="256.68" y1="291.67" x2="256.02" y2="245.15"/><polygon class="cls-11" points="261.81 249.71 260.8 250.68 256.03 245.69 251.4 250.81 250.36 249.87 256 243.63 261.81 249.71"/><line class="cls-21" x1="391.5" y1="100" x2="237.52" y2="100.67"/><polygon class="cls-11" points="242.13 94.93 243.09 95.95 238.06 100.67 243.13 105.35 242.18 106.38 236 100.68 242.13 94.93"/><polyline class="cls-21" points="391.5 109 288 109 288 159.48"/><polygon class="cls-11" points="282.27 154.84 283.3 153.89 288 158.94 292.7 153.89 293.72 154.84 288 161 282.27 154.84"/></svg>