<?xml version="1.0" encoding="utf-8"?>
<!-- Generator: Adobe Illustrator 24.0.0, SVG Export Plug-In . SVG Version: 6.00 Build 0)  -->
<svg version="1.1" id="Ebene_1" xmlns="http://www.w3.org/2000/svg" xmlns:xlink="http://www.w3.org/1999/xlink" x="0px" y="0px"
	 viewBox="0 0 549.4 320" style="enable-background:new 0 0 549.4 320;" xml:space="preserve">
<style type="text/css">
	.st0{opacity:0.2;}
	.st1{fill:#FFCC99;}
	.st2{fill:none;stroke:#CC3300;stroke-width:2;stroke-miterlimit:10;stroke-dasharray:2,2;}
	.st3{fill:#FFFFFF;stroke:#330066;stroke-width:2;stroke-miterlimit:10;}
	.st4{fill:none;stroke:#FFCC00;stroke-width:2;stroke-miterlimit:10;}
	.st5{fill:url(#SVGID_1_);}
	.st6{opacity:0.4;fill:#86C2EB;enable-background:new    ;}
	.st7{enable-background:new    ;}
	.st8{fill:#330066;}
	.st9{fill:#FFCC00;}
	.st10{clip-path:url(#SVGID_3_);}
	.st11{clip-path:url(#SVGID_5_);}
	.st12{fill:#FFD138;}
	.st13{fill:#FDFEFF;}
	.st14{fill:#FFFFFF;}
	.st15{fill:#FFFFFF;stroke:#CC3300;stroke-width:2;stroke-linecap:round;stroke-linejoin:round;}
	.st16{fill:none;stroke:#FFCC00;stroke-width:2;stroke-linecap:round;stroke-linejoin:round;}
	.st17{fill:none;stroke:#CC3300;stroke-width:2;stroke-linecap:round;stroke-linejoin:round;}
	.st18{fill:#CC3300;}
	.st19{fill:#E6E6E6;}
</style>
<g id="Ebene_2_1_">
	<g class="st0">
		<path class="st1" d="M393.6,261.5v20.7c0,4.6,2.2,8.3,5,8.3h100c2.8,0,5-3.7,5-8.3V70.3c0-4.6-2.2-8.3-5-8.3h-100
			c-2.8,0-5,3.7-5,8.3V95"/>
	</g>
	<path class="st2" d="M393.6,89.9v192.2c0,4.6,2.2,8.3,5,8.3h100c2.8,0,5-3.7,5-8.3V70.3c0-4.6-2.2-8.3-5-8.3h-100
		c-2.8,0-5,3.7-5,8.3v21.6"/>
	<path class="st3" d="M417.6,149.1h62c2.8,0,5,2.2,5,5v41.8c0,2.8-2.2,5-5,5h-62c-2.8,0-5-2.2-5-5v-41.8
		C412.6,151.3,414.8,149.1,417.6,149.1z"/>
	<path class="st4" d="M44.1,62h204.2c2.8,0,5,2.2,5,5v220.1c0,2.8-2.2,5-5,5H44.1c-2.8,0-5-2.2-5-5V67C39.1,64.3,41.3,62,44.1,62z"
		/>
	
		<linearGradient id="SVGID_1_" gradientUnits="userSpaceOnUse" x1="52.34" y1="146.05" x2="240.26" y2="146.05" gradientTransform="matrix(1 0 0 -1 0 322)">
		<stop  offset="0" style="stop-color:#990066"/>
		<stop  offset="0.19" style="stop-color:#780066"/>
		<stop  offset="0.4" style="stop-color:#5A0066"/>
		<stop  offset="0.61" style="stop-color:#440066"/>
		<stop  offset="0.81" style="stop-color:#370066"/>
		<stop  offset="1" style="stop-color:#330066"/>
	</linearGradient>
	<path class="st5" d="M240.3,256.3V82.6c0-2.8-0.9-5-4.5-5h-179c-3.6,0-4.5,2.2-4.5,5v186.7c0,2.8,1.9,5,5.5,5h178
		c3.6,0,4.5-2.2,4.5-5v-13.1"/>
	<path class="st4" d="M240.3,256.3V82.6c0-2.8-0.9-5-4.5-5h-179c-3.6,0-4.5,2.2-4.5,5v186.7c0,2.8,1.9,5,5.5,5h178
		c3.6,0,4.5-2.2,4.5-5v-13.1"/>
	<path class="st6" d="M98.1,150.3h96.5c2.8,0,5,2.2,5,5V197c0,2.8-2.2,5-5,5H98.1c-2.8,0-5-2.2-5-5v-41.7
		C93.1,152.5,95.3,150.3,98.1,150.3z"/>
	<g class="st7">
		<path class="st8" d="M274.6,143.8h-1.1l-0.2-0.8c-0.1-0.1-0.3-0.2-0.4-0.2s-0.4-0.1-0.6-0.1c-0.3,0-0.5,0.1-0.7,0.2
			s-0.3,0.3-0.3,0.5c0,0.2,0.1,0.4,0.3,0.5s0.5,0.2,1,0.3c0.8,0.2,1.4,0.4,1.7,0.7s0.6,0.7,0.6,1.3c0,0.6-0.2,1-0.7,1.4
			s-1.1,0.5-1.9,0.5c-0.5,0-0.9-0.1-1.3-0.2s-0.8-0.3-1.1-0.6l0-1.4h1.2l0.2,0.8c0.1,0.1,0.2,0.1,0.4,0.2s0.4,0.1,0.6,0.1
			c0.3,0,0.6-0.1,0.8-0.2s0.3-0.3,0.3-0.5c0-0.2-0.1-0.3-0.3-0.5s-0.5-0.3-1-0.4c-0.7-0.2-1.3-0.4-1.7-0.7s-0.6-0.7-0.6-1.2
			c0-0.5,0.2-1,0.7-1.4s1.1-0.6,1.9-0.6c0.5,0,1,0.1,1.4,0.2s0.8,0.3,1,0.5L274.6,143.8z"/>
		<path class="st8" d="M280.8,143.8h-1.1l-0.2-0.8c-0.1-0.1-0.3-0.2-0.4-0.2s-0.4-0.1-0.6-0.1c-0.3,0-0.5,0.1-0.7,0.2
			s-0.3,0.3-0.3,0.5c0,0.2,0.1,0.4,0.3,0.5s0.5,0.2,1,0.3c0.8,0.2,1.4,0.4,1.7,0.7s0.6,0.7,0.6,1.3c0,0.6-0.2,1-0.7,1.4
			s-1.1,0.5-1.9,0.5c-0.5,0-0.9-0.1-1.3-0.2s-0.8-0.3-1.1-0.6l0-1.4h1.2l0.2,0.8c0.1,0.1,0.2,0.1,0.4,0.2s0.4,0.1,0.6,0.1
			c0.3,0,0.6-0.1,0.8-0.2s0.3-0.3,0.3-0.5c0-0.2-0.1-0.3-0.3-0.5s-0.5-0.3-1-0.4c-0.7-0.2-1.3-0.4-1.7-0.7s-0.6-0.7-0.6-1.2
			c0-0.5,0.2-1,0.7-1.4s1.1-0.6,1.9-0.6c0.5,0,1,0.1,1.4,0.2s0.8,0.3,1,0.5L280.8,143.8z"/>
		<path class="st8" d="M281.7,146.9l0.8-0.2V140l-0.9-0.2v-1h2.6v3.6c0.2-0.3,0.4-0.5,0.7-0.7s0.6-0.2,1-0.2c0.7,0,1.2,0.2,1.6,0.7
			s0.6,1.1,0.6,2v2.6l0.8,0.2v1h-3.3v-1l0.7-0.2v-2.6c0-0.5-0.1-0.8-0.3-1s-0.4-0.3-0.8-0.3c-0.2,0-0.4,0-0.6,0.1s-0.3,0.2-0.4,0.4
			v3.4l0.7,0.2v1h-3.3V146.9z"/>
		<path class="st8" d="M292.2,142.7v-1h2.5l0.1,0.7c0.2-0.3,0.4-0.5,0.7-0.6s0.6-0.2,0.9-0.2c0.8,0,1.4,0.3,1.8,0.9s0.7,1.4,0.7,2.4
			v0.1c0,0.9-0.2,1.7-0.7,2.3s-1,0.9-1.8,0.9c-0.3,0-0.6-0.1-0.9-0.2s-0.5-0.3-0.7-0.5v1.8l0.8,0.2v1h-3.4v-1l0.8-0.2v-6.4
			L292.2,142.7z M297.1,144.9c0-0.6-0.1-1.1-0.3-1.5s-0.5-0.6-0.9-0.6c-0.3,0-0.5,0.1-0.7,0.2s-0.3,0.3-0.4,0.5v2.8
			c0.1,0.2,0.2,0.3,0.4,0.4s0.4,0.1,0.7,0.1c0.4,0,0.7-0.2,0.9-0.5s0.3-0.8,0.3-1.3V144.9z"/>
		<path class="st8" d="M303.6,148c0-0.1-0.1-0.2-0.1-0.3s-0.1-0.2-0.1-0.3c-0.2,0.2-0.5,0.4-0.7,0.6s-0.6,0.2-1,0.2
			c-0.6,0-1.1-0.2-1.5-0.5s-0.5-0.8-0.5-1.4c0-0.6,0.2-1.1,0.7-1.4s1.2-0.5,2.1-0.5h0.9v-0.6c0-0.3-0.1-0.5-0.3-0.7
			s-0.4-0.3-0.8-0.3c-0.2,0-0.4,0-0.5,0.1s-0.3,0.1-0.4,0.2l-0.1,0.7H300l0-1.4c0.3-0.2,0.7-0.4,1.1-0.5s0.8-0.2,1.3-0.2
			c0.8,0,1.4,0.2,1.9,0.6s0.7,0.9,0.7,1.6v2.6c0,0.1,0,0.2,0,0.3s0,0.2,0,0.2l0.5,0.1v1H303.6z M302.2,146.8c0.3,0,0.5-0.1,0.7-0.2
			s0.4-0.3,0.5-0.4v-1h-0.9c-0.4,0-0.6,0.1-0.8,0.3s-0.3,0.4-0.3,0.6c0,0.2,0.1,0.4,0.2,0.5S301.9,146.8,302.2,146.8z"/>
		<path class="st8" d="M311.4,143.8h-1.1L310,143c-0.1-0.1-0.3-0.2-0.4-0.2s-0.4-0.1-0.6-0.1c-0.3,0-0.5,0.1-0.7,0.2
			s-0.3,0.3-0.3,0.5c0,0.2,0.1,0.4,0.3,0.5s0.5,0.2,1,0.3c0.8,0.2,1.4,0.4,1.7,0.7s0.6,0.7,0.6,1.3c0,0.6-0.2,1-0.7,1.4
			s-1.1,0.5-1.9,0.5c-0.5,0-0.9-0.1-1.3-0.2s-0.8-0.3-1.1-0.6l0-1.4h1.2l0.2,0.8c0.1,0.1,0.2,0.1,0.4,0.2s0.4,0.1,0.6,0.1
			c0.3,0,0.6-0.1,0.8-0.2s0.3-0.3,0.3-0.5c0-0.2-0.1-0.3-0.3-0.5s-0.5-0.3-1-0.4c-0.7-0.2-1.3-0.4-1.7-0.7s-0.6-0.7-0.6-1.2
			c0-0.5,0.2-1,0.7-1.4s1.1-0.6,1.9-0.6c0.5,0,1,0.1,1.4,0.2s0.8,0.3,1,0.5L311.4,143.8z"/>
		<path class="st8" d="M317.5,143.8h-1.1l-0.2-0.8c-0.1-0.1-0.3-0.2-0.4-0.2s-0.4-0.1-0.6-0.1c-0.3,0-0.5,0.1-0.7,0.2
			s-0.3,0.3-0.3,0.5c0,0.2,0.1,0.4,0.3,0.5s0.5,0.2,1,0.3c0.8,0.2,1.4,0.4,1.7,0.7s0.6,0.7,0.6,1.3c0,0.6-0.2,1-0.7,1.4
			s-1.1,0.5-1.9,0.5c-0.5,0-0.9-0.1-1.3-0.2s-0.8-0.3-1.1-0.6l0-1.4h1.2l0.2,0.8c0.1,0.1,0.2,0.1,0.4,0.2s0.4,0.1,0.6,0.1
			c0.3,0,0.6-0.1,0.8-0.2s0.3-0.3,0.3-0.5c0-0.2-0.1-0.3-0.3-0.5s-0.5-0.3-1-0.4c-0.7-0.2-1.3-0.4-1.7-0.7s-0.6-0.7-0.6-1.2
			c0-0.5,0.2-1,0.7-1.4s1.1-0.6,1.9-0.6c0.5,0,1,0.1,1.4,0.2s0.8,0.3,1,0.5L317.5,143.8z"/>
		<path class="st8" d="M327.6,142.7l-0.6,0.1l-1.3,5.2h-1.4l-1.2-3.8h0l-1.2,3.8h-1.4l-1.3-5.2l-0.6-0.1v-1h2.9v1l-0.7,0.1l0.6,2.9
			h0l1.2-4.1h1.1l1.2,4.1h0l0.6-2.9l-0.7-0.1v-1h2.9V142.7z"/>
		<path class="st8" d="M328.2,144.7c0-0.9,0.3-1.7,0.8-2.3s1.3-0.9,2.2-0.9c0.9,0,1.7,0.3,2.2,0.9s0.8,1.4,0.8,2.3v0.1
			c0,1-0.3,1.7-0.8,2.3s-1.3,0.9-2.2,0.9c-0.9,0-1.7-0.3-2.2-0.9s-0.8-1.4-0.8-2.3V144.7z M329.9,144.9c0,0.6,0.1,1,0.3,1.4
			s0.5,0.5,1,0.5c0.4,0,0.8-0.2,1-0.5s0.3-0.8,0.3-1.4v-0.1c0-0.6-0.1-1-0.3-1.4s-0.5-0.5-1-0.5s-0.8,0.2-1,0.5s-0.3,0.8-0.3,1.4
			V144.9z"/>
	</g>
	<g class="st7">
		<path class="st8" d="M335,146.9l0.8-0.2v-3.9l-0.9-0.2v-1h2.5l0.1,0.9c0.1-0.3,0.3-0.6,0.6-0.8s0.5-0.3,0.8-0.3c0.1,0,0.2,0,0.3,0
			s0.2,0,0.2,0l-0.2,1.6l-0.7,0c-0.3,0-0.5,0-0.6,0.1s-0.3,0.2-0.4,0.4v3.1l0.8,0.2v1H335V146.9z"/>
	</g>
	<g class="st7">
		<path class="st8" d="M344,147.2c-0.2,0.3-0.4,0.5-0.7,0.7s-0.6,0.2-0.9,0.2c-0.8,0-1.4-0.3-1.8-0.9s-0.6-1.3-0.6-2.3v-0.1
			c0-1,0.2-1.8,0.7-2.4s1-0.9,1.8-0.9c0.3,0,0.6,0.1,0.9,0.2s0.5,0.3,0.7,0.6V140l-0.9-0.2v-1h0.9h1.7v7.9l0.8,0.2v1h-2.3L344,147.2
			z M341.6,145c0,0.6,0.1,1,0.3,1.3s0.5,0.5,0.9,0.5c0.3,0,0.5-0.1,0.7-0.2s0.3-0.2,0.5-0.4v-2.7c-0.1-0.2-0.3-0.4-0.4-0.5
			s-0.4-0.2-0.6-0.2c-0.4,0-0.7,0.2-0.9,0.6s-0.3,0.9-0.3,1.5V145z"/>
		<path class="st8" d="M346.8,139.9v-1h2.6v7.9l0.8,0.2v1h-3.4v-1l0.8-0.2V140L346.8,139.9z"/>
		<path class="st8" d="M353.8,148.1c-0.9,0-1.6-0.3-2.2-0.9s-0.8-1.3-0.8-2.2v-0.2c0-0.9,0.3-1.7,0.8-2.3s1.2-0.9,2.1-0.9
			c0.9,0,1.5,0.3,2,0.8s0.7,1.2,0.7,2.1v0.9h-3.8l0,0c0,0.4,0.2,0.8,0.4,1s0.6,0.4,1,0.4c0.4,0,0.7,0,0.9-0.1s0.5-0.2,0.8-0.4
			l0.5,1.1c-0.3,0.2-0.6,0.4-1,0.5S354.3,148.1,353.8,148.1z M353.6,142.8c-0.3,0-0.6,0.1-0.8,0.4s-0.3,0.6-0.3,1l0,0h2.1V144
			c0-0.4-0.1-0.7-0.3-0.9S354,142.8,353.6,142.8z"/>
		<path class="st8" d="M362.3,143.8h-1.1L361,143c-0.1-0.1-0.3-0.2-0.4-0.2s-0.4-0.1-0.6-0.1c-0.3,0-0.5,0.1-0.7,0.2
			s-0.3,0.3-0.3,0.5c0,0.2,0.1,0.4,0.3,0.5s0.5,0.2,1,0.3c0.8,0.2,1.4,0.4,1.7,0.7s0.6,0.7,0.6,1.3c0,0.6-0.2,1-0.7,1.4
			s-1.1,0.5-1.9,0.5c-0.5,0-0.9-0.1-1.3-0.2s-0.8-0.3-1.1-0.6l0-1.4h1.2l0.2,0.8c0.1,0.1,0.2,0.1,0.4,0.2s0.4,0.1,0.6,0.1
			c0.3,0,0.6-0.1,0.8-0.2s0.3-0.3,0.3-0.5c0-0.2-0.1-0.3-0.3-0.5s-0.5-0.3-1-0.4c-0.7-0.2-1.3-0.4-1.7-0.7s-0.6-0.7-0.6-1.2
			c0-0.5,0.2-1,0.7-1.4s1.1-0.6,1.9-0.6c0.5,0,1,0.1,1.4,0.2s0.8,0.3,1,0.5L362.3,143.8z"/>
		<path class="st8" d="M368.5,143.8h-1.1l-0.2-0.8c-0.1-0.1-0.3-0.2-0.4-0.2s-0.4-0.1-0.6-0.1c-0.3,0-0.5,0.1-0.7,0.2
			s-0.3,0.3-0.3,0.5c0,0.2,0.1,0.4,0.3,0.5s0.5,0.2,1,0.3c0.8,0.2,1.4,0.4,1.7,0.7s0.6,0.7,0.6,1.3c0,0.6-0.2,1-0.7,1.4
			s-1.1,0.5-1.9,0.5c-0.5,0-0.9-0.1-1.3-0.2s-0.8-0.3-1.1-0.6l0-1.4h1.2l0.2,0.8c0.1,0.1,0.2,0.1,0.4,0.2s0.4,0.1,0.6,0.1
			c0.3,0,0.6-0.1,0.8-0.2s0.3-0.3,0.3-0.5c0-0.2-0.1-0.3-0.3-0.5s-0.5-0.3-1-0.4c-0.7-0.2-1.3-0.4-1.7-0.7s-0.6-0.7-0.6-1.2
			c0-0.5,0.2-1,0.7-1.4s1.1-0.6,1.9-0.6c0.5,0,1,0.1,1.4,0.2s0.8,0.3,1,0.5L368.5,143.8z"/>
	</g>
	<g class="st7">
		<path class="st8" d="M269.2,156.9v-1h2.6v7.9l0.8,0.2v1h-3.4v-1l0.8-0.2V157L269.2,156.9z"/>
	</g>
	<g class="st7">
		<path class="st8" d="M273.1,161.7c0-0.9,0.3-1.7,0.8-2.3s1.3-0.9,2.2-0.9c0.9,0,1.7,0.3,2.2,0.9s0.8,1.4,0.8,2.3v0.1
			c0,1-0.3,1.7-0.8,2.3s-1.3,0.9-2.2,0.9c-0.9,0-1.7-0.3-2.2-0.9s-0.8-1.4-0.8-2.3V161.7z M274.8,161.9c0,0.6,0.1,1,0.3,1.4
			s0.5,0.5,1,0.5c0.4,0,0.8-0.2,1-0.5s0.3-0.8,0.3-1.4v-0.1c0-0.6-0.1-1-0.3-1.4s-0.5-0.5-1-0.5s-0.8,0.2-1,0.5s-0.3,0.8-0.3,1.4
			V161.9z"/>
		<path class="st8" d="M280,161.9c0-1,0.2-1.8,0.7-2.4s1-0.9,1.8-0.9c0.4,0,0.7,0.1,0.9,0.2s0.5,0.4,0.7,0.7l0.1-0.8h1.5v6.2
			c0,0.8-0.3,1.5-0.8,2s-1.2,0.7-2.2,0.7c-0.3,0-0.7,0-1-0.1s-0.7-0.2-1-0.4l0.3-1.2c0.3,0.1,0.5,0.2,0.8,0.3s0.6,0.1,0.9,0.1
			c0.4,0,0.7-0.1,0.9-0.4s0.3-0.6,0.3-1.1v-0.4c-0.2,0.2-0.4,0.4-0.7,0.5s-0.5,0.2-0.9,0.2c-0.8,0-1.4-0.3-1.8-0.9s-0.7-1.3-0.7-2.3
			V161.9z M281.7,162c0,0.6,0.1,1,0.3,1.3s0.5,0.5,0.9,0.5c0.3,0,0.5,0,0.7-0.1s0.3-0.2,0.4-0.4v-2.8c-0.1-0.2-0.3-0.3-0.4-0.4
			s-0.4-0.2-0.7-0.2c-0.4,0-0.7,0.2-0.9,0.6s-0.3,0.9-0.3,1.5V162z"/>
		<path class="st8" d="M286.7,163.9l0.8-0.2v-3.9l-0.9-0.2v-1h2.6v5.1l0.8,0.2v1h-3.4V163.9z M289.2,157.1h-1.7v-1.3h1.7V157.1z"/>
		<path class="st8" d="M290.5,163.9l0.8-0.2v-3.9l-0.9-0.2v-1h2.5l0.1,0.9c0.2-0.3,0.5-0.6,0.8-0.8s0.7-0.3,1-0.3
			c0.6,0,1.1,0.2,1.5,0.6s0.5,1,0.5,1.9v2.8l0.8,0.2v1h-3.3v-1l0.7-0.2V161c0-0.4-0.1-0.7-0.3-0.9s-0.4-0.3-0.8-0.3
			c-0.2,0-0.4,0-0.6,0.1s-0.3,0.2-0.5,0.4v3.4l0.7,0.2v1h-3.2V163.9z"/>
	</g>
	<g class="st7">
		<path class="st9" d="M170.5,230h-1l-0.1-0.9c-0.1-0.1-0.3-0.2-0.5-0.3c-0.2-0.1-0.4-0.1-0.7-0.1c-0.6,0-1,0.2-1.3,0.6
			s-0.5,0.9-0.5,1.6v0.2c0,0.7,0.1,1.2,0.4,1.6s0.7,0.6,1.3,0.6c0.3,0,0.5,0,0.7-0.1c0.2-0.1,0.4-0.2,0.5-0.3l0.1-0.9h1v1.3
			c-0.3,0.3-0.6,0.5-1,0.7c-0.4,0.2-0.8,0.3-1.3,0.3c-0.9,0-1.6-0.3-2.1-0.9s-0.8-1.4-0.8-2.3v-0.2c0-0.9,0.3-1.7,0.8-2.3
			s1.2-0.9,2.1-0.9c0.5,0,0.9,0.1,1.3,0.3c0.4,0.2,0.7,0.4,1,0.7V230z"/>
		<path class="st9" d="M171.1,234.2v-0.8l0.7-0.1v-4.6l-0.7-0.1v-0.8h0.7h1.3h0.7v0.8l-0.7,0.1v4.5h1.8l0.1-0.8h1v1.8H171.1z"/>
		<path class="st9" d="M176.4,228.6v-0.8h2.6v0.8l-0.7,0.1v4.6l0.7,0.1v0.8h-2.6v-0.8l0.7-0.1v-4.6L176.4,228.6z"/>
	</g>
	<g class="st7">
		<path class="st9" d="M123.4,243.6c0-1.1,0.2-2.1,0.7-2.9c0.4-0.8,0.9-1.3,1.5-1.6h0l0.2,0.6c-0.4,0.3-0.7,0.8-1,1.4
			s-0.4,1.5-0.4,2.4v0.1c0,1,0.1,1.8,0.4,2.4c0.3,0.6,0.6,1.1,1,1.4l-0.2,0.6h0c-0.6-0.2-1.1-0.8-1.5-1.6S123.4,244.8,123.4,243.6
			L123.4,243.6z"/>
		<path class="st9" d="M128.5,245.3c0.2,0,0.4-0.1,0.5-0.2c0.1-0.1,0.2-0.3,0.2-0.5h1.2l0,0c0,0.5-0.2,0.9-0.5,1.2
			c-0.4,0.3-0.8,0.5-1.4,0.5c-0.7,0-1.3-0.2-1.6-0.7s-0.6-1-0.6-1.7v-0.1c0-0.7,0.2-1.3,0.6-1.7c0.4-0.5,1-0.7,1.7-0.7
			c0.4,0,0.7,0.1,1,0.2c0.3,0.1,0.6,0.3,0.8,0.5l0,1.3h-1l-0.2-0.7c-0.1-0.1-0.1-0.1-0.2-0.1c-0.1,0-0.2-0.1-0.3-0.1
			c-0.4,0-0.6,0.1-0.8,0.4s-0.2,0.6-0.2,1v0.1c0,0.4,0.1,0.8,0.2,1C128,245.2,128.2,245.3,128.5,245.3z"/>
		<path class="st9" d="M131,243.8c0-0.7,0.2-1.3,0.6-1.7c0.4-0.5,0.9-0.7,1.6-0.7c0.7,0,1.3,0.2,1.6,0.7s0.6,1,0.6,1.7v0.1
			c0,0.7-0.2,1.3-0.6,1.7c-0.4,0.4-0.9,0.7-1.6,0.7c-0.7,0-1.3-0.2-1.7-0.7C131.2,245.2,131,244.6,131,243.8L131,243.8z
			 M132.3,243.9c0,0.4,0.1,0.8,0.2,1c0.2,0.3,0.4,0.4,0.7,0.4c0.3,0,0.6-0.1,0.7-0.4c0.2-0.3,0.2-0.6,0.2-1v-0.1
			c0-0.4-0.1-0.8-0.2-1s-0.4-0.4-0.7-0.4s-0.6,0.1-0.7,0.4S132.3,243.4,132.3,243.9L132.3,243.9z"/>
		<path class="st9" d="M136,245.4l0.6-0.1v-2.9l-0.7-0.1v-0.8h1.9l0.1,0.7c0.2-0.2,0.4-0.4,0.6-0.6s0.5-0.2,0.8-0.2
			c0.5,0,0.9,0.2,1.1,0.5c0.3,0.3,0.4,0.8,0.4,1.4v2.1l0.6,0.1v0.8h-2.5v-0.8l0.5-0.1v-2.1c0-0.3-0.1-0.5-0.2-0.7
			c-0.1-0.1-0.3-0.2-0.6-0.2c-0.2,0-0.3,0-0.5,0.1c-0.1,0.1-0.2,0.2-0.3,0.3v2.5l0.5,0.1v0.8H136V245.4z"/>
		<path class="st9" d="M143.7,240.3v1.2h0.8v0.9h-0.8v2.4c0,0.2,0,0.3,0.1,0.4s0.2,0.1,0.3,0.1c0.1,0,0.2,0,0.2,0c0.1,0,0.1,0,0.2,0
			l0.1,0.9c-0.1,0-0.3,0.1-0.4,0.1c-0.1,0-0.3,0-0.5,0c-0.4,0-0.8-0.1-1-0.4s-0.4-0.6-0.4-1.2v-2.4h-0.7v-0.9h0.7v-1.2H143.7z"/>
		<path class="st9" d="M148.2,246.2c0-0.1-0.1-0.2-0.1-0.2c0-0.1,0-0.2-0.1-0.3c-0.2,0.2-0.3,0.3-0.6,0.4s-0.5,0.2-0.7,0.2
			c-0.5,0-0.8-0.1-1.1-0.4c-0.3-0.3-0.4-0.6-0.4-1c0-0.4,0.2-0.8,0.5-1s0.9-0.4,1.6-0.4h0.7V243c0-0.2-0.1-0.4-0.2-0.5
			s-0.3-0.2-0.6-0.2c-0.1,0-0.3,0-0.4,0c-0.1,0-0.2,0.1-0.3,0.1l-0.1,0.5h-1l0-1.1c0.2-0.2,0.5-0.3,0.8-0.4c0.3-0.1,0.6-0.2,1-0.2
			c0.6,0,1.1,0.1,1.4,0.4c0.4,0.3,0.6,0.7,0.6,1.2v2c0,0.1,0,0.1,0,0.2s0,0.1,0,0.2l0.4,0.1v0.8H148.2z M147.1,245.3
			c0.2,0,0.4,0,0.5-0.1c0.2-0.1,0.3-0.2,0.4-0.3v-0.7h-0.7c-0.3,0-0.5,0.1-0.6,0.2c-0.1,0.1-0.2,0.3-0.2,0.5c0,0.2,0.1,0.3,0.2,0.4
			S146.9,245.3,147.1,245.3z"/>
		<path class="st9" d="M150.1,245.4l0.6-0.1v-2.9l-0.7-0.1v-0.8h2v3.9l0.6,0.1v0.8h-2.5V245.4z M152,240.3h-1.3v-1h1.3V240.3z"/>
	</g>
	<g class="st7">
		<path class="st9" d="M152.9,245.4l0.6-0.1v-2.9l-0.7-0.1v-0.8h1.9l0.1,0.7c0.2-0.2,0.4-0.4,0.6-0.6s0.5-0.2,0.8-0.2
			c0.5,0,0.9,0.2,1.1,0.5c0.3,0.3,0.4,0.8,0.4,1.4v2.1l0.6,0.1v0.8h-2.5v-0.8l0.5-0.1v-2.1c0-0.3-0.1-0.5-0.2-0.7
			c-0.1-0.1-0.3-0.2-0.6-0.2c-0.2,0-0.3,0-0.5,0.1c-0.1,0.1-0.2,0.2-0.3,0.3v2.5l0.5,0.1v0.8h-2.4V245.4z"/>
	</g>
	<g class="st7">
		<path class="st9" d="M161,246.3c-0.7,0-1.2-0.2-1.6-0.7s-0.6-1-0.6-1.7v-0.2c0-0.7,0.2-1.3,0.6-1.7c0.4-0.5,0.9-0.7,1.6-0.7
			c0.6,0,1.1,0.2,1.5,0.6s0.5,0.9,0.5,1.6v0.7H160l0,0c0,0.3,0.1,0.6,0.3,0.8c0.2,0.2,0.4,0.3,0.8,0.3c0.3,0,0.5,0,0.7-0.1
			c0.2-0.1,0.4-0.1,0.6-0.3l0.3,0.8c-0.2,0.2-0.5,0.3-0.8,0.4C161.7,246.2,161.3,246.3,161,246.3z M160.8,242.3
			c-0.2,0-0.4,0.1-0.6,0.3c-0.1,0.2-0.2,0.4-0.3,0.7l0,0h1.6v-0.1c0-0.3-0.1-0.5-0.2-0.7C161.3,242.4,161.1,242.3,160.8,242.3z"/>
		<path class="st9" d="M163.6,245.4l0.6-0.1v-2.9l-0.7-0.1v-0.8h1.9l0.1,0.7c0.1-0.2,0.3-0.4,0.4-0.6c0.2-0.1,0.4-0.2,0.6-0.2
			c0.1,0,0.1,0,0.2,0c0.1,0,0.1,0,0.2,0l-0.1,1.2l-0.5,0c-0.2,0-0.3,0-0.5,0.1s-0.2,0.2-0.3,0.3v2.3l0.6,0.1v0.8h-2.5V245.4z"/>
		<path class="st9" d="M169.8,243.7c0,1.1-0.2,2.1-0.7,2.9c-0.5,0.8-1,1.3-1.5,1.6h0l-0.2-0.6c0.4-0.3,0.7-0.8,1-1.4
			s0.4-1.5,0.4-2.5v-0.1c0-1-0.1-1.8-0.4-2.4c-0.3-0.6-0.6-1.1-1-1.4l0.2-0.6h0c0.6,0.2,1.1,0.8,1.5,1.6
			C169.5,241.5,169.8,242.5,169.8,243.7L169.8,243.7z"/>
	</g>
	<g id="Scone_logo_white">
		<g>
			<defs>
				<rect id="SVGID_2_" x="114.8" y="225.2" width="45.7" height="8.9"/>
			</defs>
			<clipPath id="SVGID_3_">
				<use xlink:href="#SVGID_2_"  style="overflow:visible;"/>
			</clipPath>
			<g class="st10">
				<g>
					<defs>
						<rect id="SVGID_4_" x="114.8" y="225.2" width="45.7" height="8.9"/>
					</defs>
					<clipPath id="SVGID_5_">
						<use xlink:href="#SVGID_4_"  style="overflow:visible;"/>
					</clipPath>
					<g class="st11">
						<path class="st12" d="M120.8,227.5h-1c-0.2,0-0.4,0.2-0.4,0.4v1c0,0.2,0.2,0.4,0.4,0.4h1c0.2,0,0.4-0.2,0.4-0.3c0,0,0,0,0,0
							v-1C121.2,227.6,121,227.5,120.8,227.5 M117.5,229.2h1c0.2,0,0.4-0.2,0.4-0.4v-1c0-0.2-0.2-0.4-0.4-0.4h-1
							c-0.2,0-0.4,0.2-0.4,0.4v1C117.1,229,117.3,229.2,117.5,229.2C117.5,229.2,117.5,229.2,117.5,229.2 M116.5,228.8v-1
							c0-0.2-0.2-0.4-0.4-0.4h-1c-0.2,0-0.4,0.2-0.4,0.4v1c0,0.2,0.2,0.4,0.4,0.4h1C116.3,229.2,116.5,229,116.5,228.8 M120.9,229.8
							c-0.2,0-0.3,0.1-0.3,0.3v1.1c0,0.2,0.1,0.3,0.3,0.3c0.2,0,0.3-0.1,0.3-0.3v-1.1C121.2,230,121.1,229.8,120.9,229.8
							C120.9,229.8,120.9,229.8,120.9,229.8 M118.3,230.2v1c0,0.2,0.2,0.4,0.4,0.4c0,0,0,0,0,0h1c0.2,0,0.4-0.2,0.4-0.4v-1
							c0-0.2-0.2-0.4-0.4-0.4h-1C118.5,229.8,118.3,230,118.3,230.2 M117.6,231.2v-1c0-0.2-0.2-0.4-0.4-0.4h-1
							c-0.2,0-0.4,0.2-0.4,0.4v1c0,0.2,0.2,0.4,0.4,0.4l0,0h1C117.4,231.6,117.6,231.4,117.6,231.2 M120.8,232.2h-1
							c-0.2,0-0.4,0.2-0.4,0.4v1c0,0.2,0.2,0.4,0.4,0.4h1c0.2,0,0.4-0.2,0.4-0.4v-1C121.2,232.4,121,232.2,120.8,232.2
							C120.8,232.2,120.8,232.2,120.8,232.2 M118.4,232.2h-1c-0.2,0-0.4,0.2-0.4,0.3c0,0,0,0,0,0v1c0,0.2,0.2,0.4,0.4,0.4h1
							c0.2,0,0.4-0.2,0.4-0.4v-1C118.7,232.3,118.6,232.2,118.4,232.2"/>
						<path class="st12" d="M122,227.1c0.4,0.3,1,0.5,1.5,0.5c0,0,0,0,0,0.1v2.6c0,1-1.2,1.6-1.5,1.8l0,0L122,227.1L122,227.1"/>
						<path class="st12" d="M119.1,227c2-0.1,2.3-0.8,2.3-0.8c0,0,0.1-0.1,0.1-0.1c0,0,0.1,0,0.1,0s0.3,0.8,2.3,0.8
							c0.1,0,0.1,0,0.1,0.1v3.5c0,1.1-2.1,2.4-2.1,2.4c0,0-0.1,0-0.1,0.1v0.9c0,0,0.1,0.1,0.2,0c0.8-0.4,2.9-1.6,2.9-3.1v-4.4
							c0-0.1-0.1-0.1-0.2-0.1c-2.6,0-3-0.9-3-0.9s-0.1,0-0.2,0s-0.1,0-0.1,0s-0.4,1-3,1c-0.1,0-0.1,0-0.1,0.1v0.6c0,0,0,0.1,0.1,0.1
							H119.1"/>
						<path class="st13" d="M126.9,232.6l1-0.4c0.3,0.5,0.8,0.8,1.3,0.8c0.3,0,0.5,0,0.8-0.2c0.2-0.1,0.3-0.3,0.3-0.6
							c0-0.6-0.8-0.9-1.3-1.1l0,0c-0.4-0.2-0.8-0.4-1.2-0.7c-0.4-0.3-0.6-0.7-0.6-1.2c0-0.5,0.2-1,0.6-1.3c0.4-0.3,1-0.5,1.5-0.5
							c0.8,0,1.6,0.4,2,1.1l-1.1,0.4c-0.1-0.2-0.2-0.3-0.4-0.4c-0.2-0.1-0.4-0.1-0.6-0.1c-0.6,0-1,0.3-1,0.7c0,0.3,0.2,0.5,0.4,0.7
							c0.3,0.2,0.6,0.4,0.9,0.5l0.1,0.1c0.8,0.3,1.8,0.8,1.8,1.8c0,0.5-0.3,1-0.7,1.3c-0.5,0.3-1.1,0.5-1.7,0.5
							C128.2,234.1,127.3,233.5,126.9,232.6"/>
						<path class="st13" d="M136,234c-0.4,0-0.9-0.1-1.3-0.3c-0.4-0.2-0.7-0.4-1-0.7c-0.3-0.3-0.5-0.6-0.7-1
							c-0.2-0.4-0.3-0.8-0.3-1.3c0-0.4,0.1-0.9,0.3-1.3c0.2-0.4,0.4-0.7,0.7-1c0.3-0.3,0.6-0.5,1-0.7c0.4-0.2,0.8-0.3,1.3-0.3
							c0.5,0,1,0.1,1.5,0.4c0.4,0.2,0.8,0.5,1.1,0.9l-0.9,0.6c-0.2-0.3-0.5-0.5-0.8-0.6c-0.3-0.2-0.7-0.2-1-0.2
							c-1.2,0-2.2,1-2.2,2.2c0,0.6,0.2,1.1,0.6,1.6c0.4,0.4,1,0.7,1.5,0.6c0.4,0,0.8-0.1,1.1-0.3c0.3-0.2,0.6-0.5,0.8-0.8l0.9,0.5
							c-0.3,0.5-0.7,0.9-1.2,1.2C137.1,233.9,136.6,234,136,234"/>
						<path class="st13" d="M143.1,234c-0.4,0-0.9-0.1-1.3-0.3c-0.4-0.2-0.7-0.4-1-0.7c-0.3-0.3-0.5-0.6-0.7-1
							c-0.2-0.4-0.3-0.8-0.3-1.3c0-0.4,0.1-0.9,0.3-1.3c0.2-0.4,0.4-0.7,0.7-1c0.3-0.3,0.6-0.5,1-0.7c0.4-0.2,0.8-0.3,1.3-0.3
							c0.4,0,0.9,0.1,1.3,0.3c0.4,0.2,0.7,0.4,1,0.7c0.3,0.3,0.5,0.6,0.7,1c0.2,0.4,0.2,0.8,0.3,1.3c0,0.4-0.1,0.9-0.3,1.3
							c-0.2,0.4-0.4,0.7-0.7,1C144.8,233.7,143.9,234,143.1,234 M143.1,228.5c-0.6,0-1.1,0.2-1.6,0.6c-0.4,0.4-0.6,1-0.6,1.6
							c0,0.6,0.2,1.1,0.6,1.5c0.4,0.4,1,0.7,1.6,0.6c0.6,0,1.1-0.2,1.5-0.6c0.4-0.4,0.6-1,0.6-1.5c0-0.6-0.2-1.1-0.6-1.6
							C144.2,228.8,143.7,228.5,143.1,228.5"/>
						<polygon class="st13" points="153.8,227.5 153.8,234.1 149.2,230 149.2,233.9 148,233.9 148,227.3 152.6,231.5 152.6,227.5 
													"/>
						<polygon class="st13" points="156.9,228.5 156.9,230.2 160.1,230.2 160.1,231.2 156.9,231.2 156.9,232.9 160.4,232.9 
							160.4,233.9 155.7,233.9 155.7,227.5 160.4,227.5 160.4,228.5 156.9,228.5 						"/>
					</g>
				</g>
			</g>
		</g>
	</g>
	<g class="st7">
		<path class="st9" d="M133.7,172.6h-1.2l2.9-8.5h1.2L133.7,172.6z"/>
		<path class="st9" d="M139.7,170.8c0.3,0,0.5-0.1,0.7-0.2s0.3-0.4,0.3-0.7h1.4l0,0c0,0.6-0.2,1.1-0.7,1.5s-1,0.6-1.7,0.6
			c-0.9,0-1.5-0.3-2-0.8s-0.7-1.3-0.7-2.1v-0.2c0-0.9,0.2-1.6,0.7-2.1c0.5-0.6,1.2-0.8,2.1-0.8c0.5,0,0.9,0.1,1.3,0.2
			c0.4,0.1,0.7,0.3,0.9,0.6l0,1.6h-1.3l-0.3-0.9c-0.1-0.1-0.2-0.1-0.3-0.2s-0.2-0.1-0.4-0.1c-0.4,0-0.8,0.2-0.9,0.5
			s-0.3,0.7-0.3,1.2v0.2c0,0.5,0.1,0.9,0.3,1.3C139,170.7,139.3,170.8,139.7,170.8z"/>
		<path class="st9" d="M142.8,169c0-0.9,0.2-1.6,0.7-2.1c0.5-0.6,1.2-0.8,2-0.8c0.9,0,1.5,0.3,2,0.8c0.5,0.6,0.7,1.3,0.7,2.1v0.1
			c0,0.9-0.2,1.6-0.7,2.1c-0.5,0.5-1.2,0.8-2,0.8c-0.9,0-1.5-0.3-2-0.8c-0.5-0.5-0.7-1.3-0.7-2.1V169z M144.4,169.1
			c0,0.5,0.1,1,0.3,1.3s0.5,0.5,0.9,0.5c0.4,0,0.7-0.2,0.9-0.5c0.2-0.3,0.3-0.7,0.3-1.3V169c0-0.5-0.1-0.9-0.3-1.3s-0.5-0.5-0.9-0.5
			s-0.7,0.2-0.9,0.5s-0.3,0.7-0.3,1.3V169.1z"/>
		<path class="st9" d="M148.9,171l0.8-0.2v-3.6l-0.8-0.2v-0.9h2.3l0.1,0.8c0.2-0.3,0.4-0.5,0.7-0.7s0.6-0.2,1-0.2
			c0.6,0,1,0.2,1.4,0.6c0.3,0.4,0.5,0.9,0.5,1.7v2.5l0.8,0.2v0.9h-3V171l0.7-0.2v-2.5c0-0.4-0.1-0.7-0.2-0.8s-0.4-0.2-0.7-0.2
			c-0.2,0-0.4,0-0.6,0.1s-0.3,0.2-0.4,0.4v3.1l0.6,0.2v0.9h-3V171z"/>
		<path class="st9" d="M156,171l0.8-0.2v-3.6h-0.9v-1.1h0.9v-0.6c0-0.7,0.2-1.2,0.6-1.5s0.9-0.5,1.6-0.5c0.1,0,0.3,0,0.4,0
			c0.1,0,0.3,0,0.5,0.1l-0.1,1.2c-0.1,0-0.2,0-0.2,0c-0.1,0-0.2,0-0.3,0c-0.3,0-0.4,0.1-0.6,0.2c-0.1,0.1-0.2,0.3-0.2,0.6v0.6h1.2
			v1.1h-1.2v3.6l0.8,0.2v0.9H156V171z"/>
	</g>
	<g class="st7">
		<path class="st14" d="M123.1,183.3h-0.7l-0.2-0.6c-0.1-0.1-0.3-0.2-0.4-0.3c-0.2-0.1-0.4-0.1-0.6-0.1c-0.3,0-0.6,0.1-0.8,0.2
			s-0.2,0.3-0.2,0.5c0,0.2,0.1,0.4,0.2,0.5s0.4,0.2,0.9,0.3c0.7,0.1,1.2,0.3,1.5,0.6c0.3,0.2,0.5,0.6,0.5,1c0,0.5-0.2,0.8-0.6,1.1
			s-0.9,0.4-1.5,0.4c-0.4,0-0.8,0-1.1-0.1c-0.3-0.1-0.6-0.2-0.9-0.4l0-1.2h0.7l0.2,0.7c0.1,0.1,0.3,0.2,0.5,0.2s0.4,0.1,0.6,0.1
			c0.3,0,0.6-0.1,0.8-0.2c0.2-0.1,0.3-0.3,0.3-0.5c0-0.2-0.1-0.4-0.2-0.5s-0.5-0.3-0.9-0.4c-0.6-0.1-1.1-0.3-1.5-0.6s-0.5-0.6-0.5-1
			c0-0.4,0.2-0.8,0.5-1.1s0.8-0.5,1.4-0.5c0.4,0,0.8,0.1,1.1,0.2s0.6,0.2,0.8,0.4L123.1,183.3z"/>
		<path class="st14" d="M128.2,183.3h-0.7l-0.2-0.6c-0.1-0.1-0.3-0.2-0.4-0.3c-0.2-0.1-0.4-0.1-0.6-0.1c-0.3,0-0.6,0.1-0.8,0.2
			s-0.2,0.3-0.2,0.5c0,0.2,0.1,0.4,0.2,0.5s0.4,0.2,0.9,0.3c0.7,0.1,1.2,0.3,1.5,0.6c0.3,0.2,0.5,0.6,0.5,1c0,0.5-0.2,0.8-0.6,1.1
			s-0.9,0.4-1.5,0.4c-0.4,0-0.8,0-1.1-0.1c-0.3-0.1-0.6-0.2-0.9-0.4l0-1.2h0.7l0.2,0.7c0.1,0.1,0.3,0.2,0.5,0.2s0.4,0.1,0.6,0.1
			c0.3,0,0.6-0.1,0.8-0.2c0.2-0.1,0.3-0.3,0.3-0.5c0-0.2-0.1-0.4-0.2-0.5s-0.5-0.3-0.9-0.4c-0.6-0.1-1.1-0.3-1.5-0.6s-0.5-0.6-0.5-1
			c0-0.4,0.2-0.8,0.5-1.1s0.8-0.5,1.4-0.5c0.4,0,0.8,0.1,1.1,0.2s0.6,0.2,0.8,0.4L128.2,183.3z"/>
		<path class="st14" d="M129.1,186.3l0.8-0.1v-6.1l-0.8-0.1v-0.6h1.8v3c0.2-0.3,0.4-0.5,0.7-0.6s0.6-0.2,0.9-0.2
			c0.6,0,1,0.2,1.3,0.5s0.5,0.9,0.5,1.6v2.6l0.8,0.1v0.6h-2.6v-0.6l0.8-0.1v-2.6c0-0.4-0.1-0.8-0.3-1s-0.5-0.3-0.8-0.3
			c-0.3,0-0.5,0.1-0.7,0.2c-0.2,0.1-0.4,0.3-0.5,0.5v3.1l0.8,0.1v0.6h-2.6V186.3z"/>
	</g>
	<g class="st7">
		<path class="st14" d="M138.1,179.9v-0.6h1.8v4.4h0.6l1.1-1.4l-0.5-0.1v-0.6h2.2v0.6l-0.6,0.1l-1.4,1.7l1.7,2.1l0.6,0.1v0.6h-2.2
			v-0.6l0.5-0.1l-1.4-1.8h-0.6v1.7l0.8,0.1v0.6h-2.6v-0.6l0.8-0.1v-6.1L138.1,179.9z"/>
	</g>
	<g class="st7">
		<path class="st14" d="M146.6,187c-0.7,0-1.3-0.2-1.8-0.7c-0.4-0.5-0.7-1.1-0.7-1.9v-0.2c0-0.8,0.2-1.4,0.7-1.9
			c0.4-0.5,1-0.8,1.6-0.8c0.7,0,1.2,0.2,1.6,0.6s0.5,1,0.5,1.7v0.6h-3.4l0,0c0,0.5,0.1,0.9,0.4,1.3c0.2,0.3,0.6,0.5,1,0.5
			c0.3,0,0.6,0,0.9-0.1c0.2-0.1,0.5-0.2,0.6-0.4l0.4,0.6c-0.2,0.2-0.4,0.3-0.7,0.5C147.4,187,147,187,146.6,187z M146.5,182.3
			c-0.3,0-0.6,0.1-0.8,0.4c-0.2,0.3-0.4,0.6-0.4,1l0,0h2.4v-0.1c0-0.4-0.1-0.7-0.3-0.9C147.2,182.4,146.9,182.3,146.5,182.3z"/>
	</g>
	<g class="st7">
		<path class="st14" d="M154.5,182.3l-0.5,0.1l-2,5.4c-0.1,0.4-0.3,0.7-0.6,0.9s-0.6,0.4-1,0.4c-0.1,0-0.2,0-0.3,0
			c-0.1,0-0.2,0-0.3-0.1l0.1-0.8c0,0,0,0,0.2,0s0.2,0,0.3,0c0.2,0,0.4-0.1,0.5-0.3c0.1-0.2,0.2-0.4,0.3-0.6l0.2-0.5l-1.7-4.5
			l-0.5-0.1v-0.6h2.1v0.6l-0.6,0.1l0.9,2.6l0.2,0.7h0l1.1-3.3l-0.6-0.1v-0.6h2.1V182.3z"/>
		<path class="st14" d="M155.1,188.3l0.8-0.1v-5.8l-0.8-0.1v-0.6h1.6l0.1,0.6c0.2-0.2,0.4-0.4,0.6-0.6s0.5-0.2,0.9-0.2
			c0.7,0,1.2,0.3,1.5,0.8c0.4,0.5,0.5,1.2,0.5,2.1v0.1c0,0.8-0.2,1.4-0.5,1.8c-0.4,0.5-0.9,0.7-1.5,0.7c-0.3,0-0.6-0.1-0.9-0.2
			c-0.2-0.1-0.5-0.3-0.6-0.5v1.8l0.8,0.1v0.6h-2.6V188.3z M159.4,184.4c0-0.6-0.1-1.1-0.4-1.5s-0.6-0.6-1-0.6
			c-0.3,0-0.5,0.1-0.7,0.2s-0.4,0.3-0.5,0.5v2.6c0.1,0.2,0.3,0.4,0.5,0.5c0.2,0.1,0.4,0.2,0.7,0.2c0.5,0,0.8-0.2,1-0.5
			s0.4-0.8,0.4-1.3V184.4z"/>
		<path class="st14" d="M164.7,186.9c0-0.1-0.1-0.3-0.1-0.4s0-0.2,0-0.3c-0.2,0.2-0.4,0.4-0.7,0.6c-0.3,0.2-0.6,0.2-0.9,0.2
			c-0.6,0-1-0.1-1.3-0.4c-0.3-0.3-0.4-0.6-0.4-1.1c0-0.5,0.2-0.9,0.6-1.2c0.4-0.3,1-0.4,1.7-0.4h1v-0.6c0-0.3-0.1-0.6-0.3-0.7
			c-0.2-0.2-0.5-0.3-0.8-0.3c-0.2,0-0.5,0-0.6,0.1s-0.3,0.1-0.4,0.3l-0.1,0.6h-0.7v-1c0.2-0.2,0.5-0.3,0.9-0.5
			c0.3-0.1,0.7-0.2,1.1-0.2c0.6,0,1.1,0.2,1.5,0.5s0.6,0.7,0.6,1.3v2.5c0,0.1,0,0.1,0,0.2s0,0.1,0,0.2l0.4,0.1v0.6H164.7z
			 M163.1,186.2c0.3,0,0.6-0.1,0.9-0.2s0.5-0.3,0.6-0.6v-0.9h-1c-0.4,0-0.7,0.1-0.9,0.3s-0.3,0.4-0.3,0.7c0,0.2,0.1,0.4,0.2,0.5
			C162.6,186.2,162.8,186.2,163.1,186.2z"/>
		<path class="st14" d="M166.7,186.3l0.8-0.1v-3.8l-0.8-0.1v-0.6h1.8v4.5l0.8,0.1v0.6h-2.6V186.3z M168.5,180.3h-1v-1h1V180.3z"/>
		<path class="st14" d="M170,182.3v-0.6h1.7l0.1,0.8c0.1-0.3,0.3-0.5,0.6-0.6s0.5-0.2,0.8-0.2c0.1,0,0.2,0,0.2,0c0.1,0,0.1,0,0.2,0
			l-0.1,0.9l-0.5,0c-0.3,0-0.5,0.1-0.6,0.2c-0.2,0.1-0.3,0.3-0.4,0.5v3l0.8,0.1v0.6H170v-0.6l0.8-0.1v-3.8L170,182.3z"/>
	</g>
	<line class="st4" x1="409.2" y1="176" x2="199.6" y2="176"/>
	<polygon class="st9" points="402.6,167.8 401.2,169.3 408.5,176 401.2,182.7 402.6,184.2 411.4,176 	"/>
	<line class="st4" x1="102.8" y1="140.6" x2="102.8" y2="105.2"/>
	<polygon class="st9" points="111,133.9 109.6,132.6 102.8,139.8 96.1,132.6 94.7,133.9 102.8,142.7 	"/>
	<g class="st7">
		<path class="st8" d="M428.7,170.5l0.8-0.2v-4l-0.9-0.2v-1.1h2.6l0.1,0.9c0.2-0.3,0.3-0.6,0.6-0.8c0.2-0.2,0.5-0.3,0.8-0.3
			c0.1,0,0.2,0,0.3,0c0.1,0,0.2,0,0.3,0.1l-0.2,1.6l-0.7,0c-0.3,0-0.5,0-0.6,0.1s-0.3,0.2-0.4,0.4v3.1l0.8,0.2v1h-3.4V170.5z"/>
	</g>
	<g class="st7">
		<path class="st8" d="M436.7,171.7c-0.9,0-1.7-0.3-2.2-0.9c-0.6-0.6-0.8-1.4-0.8-2.3v-0.2c0-1,0.3-1.8,0.8-2.4
			c0.5-0.6,1.2-0.9,2.1-0.9c0.9,0,1.5,0.3,2,0.8c0.5,0.5,0.7,1.2,0.7,2.1v1h-3.9l0,0c0,0.4,0.2,0.8,0.4,1.1c0.3,0.3,0.6,0.4,1,0.4
			c0.4,0,0.7,0,1-0.1c0.3-0.1,0.5-0.2,0.8-0.4l0.5,1.1c-0.3,0.2-0.6,0.4-1,0.5S437.2,171.7,436.7,171.7z M436.5,166.3
			c-0.3,0-0.6,0.1-0.8,0.4s-0.3,0.6-0.3,1l0,0h2.1v-0.2c0-0.4-0.1-0.7-0.3-0.9C437.1,166.5,436.9,166.3,436.5,166.3z"/>
	</g>
	<g class="st7">
		<path class="st8" d="M439.9,166.2v-1.1h2.6l0.1,0.9c0.2-0.3,0.5-0.6,0.8-0.7c0.3-0.2,0.7-0.3,1.1-0.3c0.4,0,0.8,0.1,1.1,0.3
			c0.3,0.2,0.5,0.5,0.7,0.8c0.2-0.3,0.5-0.6,0.8-0.8c0.3-0.2,0.7-0.3,1.1-0.3c0.6,0,1.1,0.2,1.5,0.7c0.4,0.4,0.6,1.1,0.6,2v2.7
			l0.8,0.2v1h-3.3v-1l0.8-0.2v-2.7c0-0.5-0.1-0.8-0.2-1c-0.2-0.2-0.4-0.3-0.7-0.3c-0.2,0-0.5,0.1-0.6,0.2c-0.2,0.1-0.3,0.3-0.4,0.5
			c0,0.1,0,0.1,0,0.2s0,0.1,0,0.2v3l0.7,0.2v1h-3.1v-1l0.7-0.2v-2.7c0-0.5-0.1-0.8-0.2-1c-0.2-0.2-0.4-0.3-0.7-0.3
			c-0.2,0-0.4,0-0.6,0.1c-0.2,0.1-0.3,0.2-0.4,0.4v3.5l0.8,0.2v1H440v-1l0.8-0.2v-4L439.9,166.2z"/>
	</g>
	<g class="st7">
		<path class="st8" d="M451.4,168.3c0-1,0.3-1.8,0.8-2.4c0.5-0.6,1.3-0.9,2.2-0.9c1,0,1.7,0.3,2.2,0.9c0.5,0.6,0.8,1.4,0.8,2.4v0.1
			c0,1-0.3,1.8-0.8,2.4c-0.5,0.6-1.3,0.9-2.2,0.9c-1,0-1.7-0.3-2.3-0.9c-0.5-0.6-0.8-1.4-0.8-2.4V168.3z M453.2,168.4
			c0,0.6,0.1,1.1,0.3,1.4s0.5,0.5,1,0.5c0.5,0,0.8-0.2,1-0.5c0.2-0.4,0.3-0.8,0.3-1.4v-0.1c0-0.6-0.1-1-0.3-1.4
			c-0.2-0.4-0.5-0.5-1-0.5c-0.5,0-0.8,0.2-1,0.5c-0.2,0.4-0.3,0.8-0.3,1.4V168.4z"/>
		<path class="st8" d="M460.9,163.5v1.6h1.1v1.2h-1.1v3.3c0,0.3,0.1,0.4,0.2,0.5s0.2,0.2,0.4,0.2c0.1,0,0.2,0,0.3,0
			c0.1,0,0.2,0,0.3-0.1l0.2,1.3c-0.2,0.1-0.4,0.1-0.6,0.1c-0.2,0-0.4,0-0.6,0c-0.6,0-1.1-0.2-1.4-0.5c-0.3-0.3-0.5-0.9-0.5-1.6v-3.3
			h-1v-1.2h1v-1.6H460.9z"/>
		<path class="st8" d="M466,171.7c-0.9,0-1.7-0.3-2.2-0.9c-0.6-0.6-0.8-1.4-0.8-2.3v-0.2c0-1,0.3-1.8,0.8-2.4
			c0.5-0.6,1.2-0.9,2.1-0.9c0.9,0,1.5,0.3,2,0.8c0.5,0.5,0.7,1.2,0.7,2.1v1h-3.9l0,0c0,0.4,0.2,0.8,0.4,1.1c0.3,0.3,0.6,0.4,1,0.4
			c0.4,0,0.7,0,1-0.1c0.3-0.1,0.5-0.2,0.8-0.4l0.5,1.1c-0.3,0.2-0.6,0.4-1,0.5S466.5,171.7,466,171.7z M465.8,166.3
			c-0.3,0-0.6,0.1-0.8,0.4s-0.3,0.6-0.3,1l0,0h2.1v-0.2c0-0.4-0.1-0.7-0.3-0.9C466.4,166.5,466.2,166.3,465.8,166.3z"/>
	</g>
	<g class="st7">
		<path class="st8" d="M436.1,185.5l0.8-0.2v-6.9l-0.9-0.2v-1.1h2.7v3.7c0.2-0.3,0.5-0.5,0.7-0.7c0.3-0.2,0.6-0.2,1-0.2
			c0.7,0,1.2,0.2,1.6,0.7s0.6,1.1,0.6,2.1v2.6l0.8,0.2v1h-3.3v-1l0.8-0.2v-2.6c0-0.5-0.1-0.9-0.3-1.1s-0.4-0.3-0.8-0.3
			c-0.2,0-0.5,0-0.6,0.1c-0.2,0.1-0.3,0.2-0.5,0.4v3.5l0.8,0.2v1h-3.3V185.5z"/>
	</g>
	<g class="st7">
		<path class="st8" d="M444,183.3c0-1,0.3-1.8,0.8-2.4c0.5-0.6,1.3-0.9,2.2-0.9c1,0,1.7,0.3,2.2,0.9c0.5,0.6,0.8,1.4,0.8,2.4v0.1
			c0,1-0.3,1.8-0.8,2.4s-1.3,0.9-2.2,0.9c-1,0-1.7-0.3-2.3-0.9s-0.8-1.4-0.8-2.4V183.3z M445.7,183.4c0,0.6,0.1,1.1,0.3,1.4
			s0.5,0.5,1,0.5c0.5,0,0.8-0.2,1-0.5s0.3-0.8,0.3-1.4v-0.1c0-0.6-0.1-1-0.3-1.4c-0.2-0.4-0.5-0.5-1-0.5s-0.8,0.2-1,0.5
			c-0.2,0.4-0.3,0.8-0.3,1.4V183.4z"/>
		<path class="st8" d="M456.1,182.3h-1.2l-0.2-0.8c-0.1-0.1-0.3-0.2-0.5-0.2c-0.2-0.1-0.4-0.1-0.6-0.1c-0.3,0-0.5,0.1-0.7,0.2
			c-0.2,0.1-0.3,0.3-0.3,0.5c0,0.2,0.1,0.4,0.3,0.5c0.2,0.1,0.5,0.2,1,0.3c0.8,0.2,1.4,0.4,1.8,0.7s0.6,0.7,0.6,1.3
			c0,0.6-0.3,1.1-0.8,1.4c-0.5,0.4-1.2,0.6-2,0.6c-0.5,0-1-0.1-1.4-0.2c-0.4-0.1-0.8-0.4-1.1-0.6l0-1.5h1.2l0.2,0.8
			c0.1,0.1,0.2,0.2,0.4,0.2c0.2,0,0.4,0.1,0.6,0.1c0.4,0,0.6-0.1,0.8-0.2c0.2-0.1,0.3-0.3,0.3-0.5c0-0.2-0.1-0.4-0.3-0.5
			c-0.2-0.1-0.5-0.3-1-0.4c-0.8-0.2-1.3-0.4-1.7-0.7c-0.4-0.3-0.6-0.7-0.6-1.2c0-0.5,0.2-1,0.7-1.4s1.1-0.6,1.9-0.6
			c0.5,0,1,0.1,1.4,0.2s0.8,0.3,1.1,0.5L456.1,182.3z"/>
		<path class="st8" d="M459.7,178.5v1.6h1.1v1.2h-1.1v3.3c0,0.3,0.1,0.4,0.2,0.5s0.2,0.2,0.4,0.2c0.1,0,0.2,0,0.3,0
			c0.1,0,0.2,0,0.3-0.1l0.1,1.3c-0.2,0.1-0.4,0.1-0.6,0.1c-0.2,0-0.4,0-0.6,0c-0.6,0-1.1-0.2-1.4-0.5c-0.3-0.3-0.5-0.9-0.5-1.6v-3.3
			h-1v-1.2h1v-1.6H459.7z"/>
	</g>
	<g class="st7">
		<path class="st8" d="M427.9,207.5v-0.6h2.6v0.6l-0.8,0.1v5.6l0.8,0.1v0.6h-2.6v-0.6l0.8-0.1v-5.6L427.9,207.5z"/>
		<path class="st8" d="M434.4,206.9c0.8,0,1.3,0.2,1.8,0.6c0.4,0.4,0.6,0.9,0.6,1.5c0,0.6-0.2,1.2-0.6,1.5c-0.4,0.4-1,0.6-1.8,0.6
			h-1.5v2.1l0.8,0.1v0.6h-2.6v-0.6l0.8-0.1v-5.6l-0.8-0.1v-0.6h0.8H434.4z M432.8,210.4h1.5c0.5,0,0.8-0.1,1.1-0.4
			c0.2-0.3,0.4-0.6,0.4-1s-0.1-0.7-0.4-1s-0.6-0.4-1.1-0.4h-1.5V210.4z"/>
		<path class="st8" d="M438.8,209.7h-1v-1h1V209.7z M438.8,214h-1v-1h1V214z"/>
		<path class="st8" d="M442.2,213.3l1.1-0.1v-5.3l-1.1,0v-0.6l2.1-0.4v6.4l1.1,0.1v0.6h-3.2V213.3z"/>
		<path class="st8" d="M447.4,214h-1v-1h1V214z"/>
		<path class="st8" d="M448.6,214v-0.7l2.3-2.6c0.4-0.5,0.7-0.8,0.8-1.1c0.1-0.3,0.2-0.6,0.2-0.8c0-0.4-0.1-0.7-0.3-0.9
			c-0.2-0.2-0.5-0.4-0.8-0.4c-0.5,0-0.9,0.1-1.1,0.4c-0.2,0.3-0.3,0.6-0.3,1.1h-0.9l0,0c0-0.6,0.2-1.1,0.6-1.5
			c0.4-0.4,1-0.6,1.8-0.6c0.6,0,1.2,0.2,1.5,0.6c0.4,0.4,0.6,0.8,0.6,1.4c0,0.4-0.1,0.8-0.3,1.2s-0.6,0.8-1,1.3l-1.9,2l0,0h2.5
			l0.1-0.8h0.8v1.6H448.6z"/>
		<path class="st8" d="M455.3,214h-1v-1h1V214z"/>
		<path class="st8" d="M457.9,210h0.8c0.4,0,0.7-0.1,0.9-0.3c0.2-0.2,0.3-0.5,0.3-0.9c0-0.4-0.1-0.7-0.3-0.9
			c-0.2-0.2-0.5-0.3-0.9-0.3c-0.4,0-0.7,0.1-0.9,0.3c-0.2,0.2-0.3,0.5-0.3,0.9h-0.9l0,0c0-0.5,0.2-1,0.6-1.4
			c0.4-0.4,0.9-0.6,1.6-0.6c0.7,0,1.2,0.2,1.6,0.5c0.4,0.4,0.6,0.8,0.6,1.5c0,0.3-0.1,0.6-0.3,0.9c-0.2,0.3-0.4,0.5-0.8,0.7
			c0.4,0.1,0.7,0.4,0.9,0.7c0.2,0.3,0.3,0.6,0.3,1c0,0.6-0.2,1.2-0.6,1.5s-1,0.6-1.6,0.6c-0.7,0-1.2-0.2-1.6-0.5
			c-0.4-0.4-0.6-0.8-0.6-1.4l0,0h0.9c0,0.4,0.1,0.7,0.3,0.9s0.5,0.3,0.9,0.3c0.4,0,0.7-0.1,1-0.3c0.2-0.2,0.3-0.5,0.3-1
			c0-0.4-0.1-0.8-0.3-1s-0.5-0.3-1-0.3h-0.8V210z"/>
		<path class="st8" d="M463.2,214h-1v-1h1V214z"/>
		<path class="st8" d="M468.3,211.6h1v0.8h-1v0.9l0.8,0.1v0.6h-2.5v-0.6l0.8-0.1v-0.9h-3.2v-0.5l3.1-4.9h1V211.6z M465.2,211.6h2.2
			v-3.3l0,0l-0.1,0.3L465.2,211.6z"/>
	</g>
	<g class="st7">
		<path class="st14" d="M118.3,109.2h-2.4v-0.8h2.4V109.2z"/>
	</g>
	<g class="st7">
		<path class="st14" d="M121.9,111.2l0.8-0.1V105l-0.8-0.1v-0.6h1.8v3c0.2-0.3,0.4-0.5,0.7-0.6s0.6-0.2,0.9-0.2c0.6,0,1,0.2,1.3,0.5
			s0.5,0.9,0.5,1.6v2.6l0.8,0.1v0.6h-2.6v-0.6l0.8-0.1v-2.6c0-0.4-0.1-0.8-0.3-1s-0.5-0.3-0.8-0.3c-0.3,0-0.5,0.1-0.7,0.2
			c-0.2,0.1-0.4,0.3-0.5,0.5v3.1l0.8,0.1v0.6h-2.6V111.2z"/>
	</g>
	<g class="st7">
		<path class="st14" d="M128.4,109.2c0-0.8,0.2-1.4,0.6-1.9c0.4-0.5,1-0.8,1.7-0.8c0.7,0,1.3,0.3,1.7,0.8s0.6,1.1,0.6,1.9v0.1
			c0,0.8-0.2,1.4-0.6,1.9c-0.4,0.5-1,0.8-1.7,0.8c-0.7,0-1.3-0.3-1.7-0.8c-0.4-0.5-0.6-1.1-0.6-1.9V109.2z M129.4,109.3
			c0,0.6,0.1,1,0.4,1.4c0.2,0.4,0.6,0.5,1.1,0.5c0.5,0,0.8-0.2,1-0.5c0.2-0.4,0.4-0.8,0.4-1.4v-0.1c0-0.6-0.1-1-0.4-1.4
			c-0.2-0.4-0.6-0.6-1-0.6c-0.5,0-0.8,0.2-1,0.6s-0.4,0.8-0.4,1.4V109.3z"/>
		<path class="st14" d="M138.1,108.2h-0.7l-0.2-0.6c-0.1-0.1-0.3-0.2-0.4-0.3c-0.2-0.1-0.4-0.1-0.6-0.1c-0.3,0-0.6,0.1-0.8,0.2
			s-0.2,0.3-0.2,0.5c0,0.2,0.1,0.4,0.2,0.5s0.4,0.2,0.9,0.3c0.7,0.1,1.2,0.3,1.5,0.6c0.3,0.2,0.5,0.6,0.5,1c0,0.5-0.2,0.8-0.6,1.1
			c-0.4,0.3-0.9,0.4-1.5,0.4c-0.4,0-0.8,0-1.1-0.1c-0.3-0.1-0.6-0.2-0.9-0.4l0-1.2h0.7l0.2,0.7c0.1,0.1,0.3,0.2,0.5,0.2
			s0.4,0.1,0.6,0.1c0.3,0,0.6-0.1,0.8-0.2c0.2-0.1,0.3-0.3,0.3-0.5c0-0.2-0.1-0.4-0.2-0.5s-0.5-0.3-0.9-0.4
			c-0.6-0.1-1.1-0.3-1.5-0.6c-0.3-0.2-0.5-0.6-0.5-1c0-0.4,0.2-0.8,0.5-1.1s0.8-0.5,1.4-0.5c0.4,0,0.8,0.1,1.1,0.2
			c0.3,0.1,0.6,0.2,0.8,0.4L138.1,108.2z"/>
		<path class="st14" d="M140.8,105.3v1.3h1v0.7h-1v3.2c0,0.2,0.1,0.4,0.2,0.5s0.2,0.2,0.4,0.2c0.1,0,0.2,0,0.3,0c0.1,0,0.2,0,0.3,0
			l0.1,0.7c-0.1,0.1-0.2,0.1-0.4,0.1c-0.2,0-0.4,0.1-0.5,0.1c-0.4,0-0.7-0.1-0.9-0.4c-0.2-0.2-0.3-0.6-0.3-1.1v-3.2H139v-0.7h0.8
			v-1.3H140.8z"/>
		<path class="st14" d="M142.6,111.2l0.8-0.1v-3.8l-0.8-0.1v-0.6h1.7l0.1,0.8c0.2-0.3,0.4-0.5,0.7-0.7c0.3-0.2,0.6-0.2,0.9-0.2
			c0.6,0,1,0.2,1.3,0.5c0.3,0.3,0.5,0.8,0.5,1.5v2.6l0.8,0.1v0.6H146v-0.6l0.8-0.1v-2.6c0-0.5-0.1-0.8-0.3-1
			c-0.2-0.2-0.5-0.3-0.8-0.3c-0.3,0-0.5,0.1-0.7,0.2c-0.2,0.1-0.4,0.3-0.5,0.5v3.1l0.8,0.1v0.6h-2.6V111.2z"/>
		<path class="st14" d="M152.7,111.9c0-0.1-0.1-0.3-0.1-0.4c0-0.1,0-0.2,0-0.3c-0.2,0.2-0.4,0.4-0.7,0.6c-0.3,0.2-0.6,0.2-0.9,0.2
			c-0.5,0-1-0.1-1.3-0.4c-0.3-0.3-0.4-0.6-0.4-1.1c0-0.5,0.2-0.9,0.6-1.2c0.4-0.3,1-0.4,1.7-0.4h1v-0.6c0-0.3-0.1-0.6-0.3-0.7
			c-0.2-0.2-0.5-0.3-0.8-0.3c-0.2,0-0.5,0-0.6,0.1c-0.2,0.1-0.3,0.1-0.4,0.3l-0.1,0.6h-0.7v-1c0.2-0.2,0.5-0.3,0.9-0.5
			c0.3-0.1,0.7-0.2,1.1-0.2c0.6,0,1.1,0.2,1.5,0.5s0.6,0.7,0.6,1.3v2.5c0,0.1,0,0.1,0,0.2c0,0.1,0,0.1,0,0.2l0.4,0.1v0.6H152.7z
			 M151.1,111.1c0.3,0,0.6-0.1,0.9-0.2s0.5-0.3,0.6-0.6v-0.9h-1c-0.4,0-0.7,0.1-0.9,0.3s-0.3,0.4-0.3,0.7c0,0.2,0.1,0.4,0.2,0.5
			C150.6,111.1,150.8,111.1,151.1,111.1z"/>
	</g>
	<g class="st7">
		<path class="st14" d="M154.5,111.2l0.8-0.1v-3.8l-0.8-0.1v-0.6h1.7l0.1,0.7c0.2-0.3,0.4-0.4,0.7-0.6s0.6-0.2,0.9-0.2
			s0.7,0.1,0.9,0.2s0.4,0.4,0.6,0.7c0.2-0.3,0.4-0.5,0.7-0.7s0.6-0.3,1-0.3c0.5,0,1,0.2,1.3,0.6c0.3,0.4,0.5,0.9,0.5,1.7v2.4
			l0.8,0.1v0.6h-2.6v-0.6l0.8-0.1v-2.4c0-0.5-0.1-0.9-0.3-1.1c-0.2-0.2-0.4-0.3-0.8-0.3c-0.3,0-0.6,0.1-0.8,0.4
			c-0.2,0.2-0.3,0.5-0.4,0.9v2.6l0.8,0.1v0.6h-2.6v-0.6l0.8-0.1v-2.4c0-0.5-0.1-0.9-0.3-1.1c-0.2-0.2-0.5-0.3-0.8-0.3
			c-0.3,0-0.5,0.1-0.7,0.2s-0.3,0.3-0.4,0.5v3.2l0.8,0.1v0.6h-2.6V111.2z"/>
	</g>
	<g class="st7">
		<path class="st14" d="M166.5,112c-0.7,0-1.3-0.2-1.8-0.7c-0.4-0.5-0.7-1.1-0.7-1.9v-0.2c0-0.8,0.2-1.4,0.7-1.9
			c0.4-0.5,1-0.8,1.6-0.8c0.7,0,1.2,0.2,1.6,0.6s0.5,1,0.5,1.7v0.6h-3.4l0,0c0,0.5,0.1,0.9,0.4,1.3c0.2,0.3,0.6,0.5,1,0.5
			c0.3,0,0.6,0,0.9-0.1c0.2-0.1,0.5-0.2,0.6-0.4l0.4,0.6c-0.2,0.2-0.4,0.3-0.7,0.5C167.3,111.9,167,112,166.5,112z M166.4,107.2
			c-0.3,0-0.6,0.1-0.8,0.4c-0.2,0.3-0.4,0.6-0.4,1l0,0h2.4v-0.1c0-0.4-0.1-0.7-0.3-0.9S166.8,107.2,166.4,107.2z"/>
		<path class="st14" d="M172.1,111.2l1.1-0.1v-5.3l-1.1,0v-0.6l2.1-0.4v6.4l1.1,0.1v0.6h-3.2V111.2z"/>
		<path class="st14" d="M177.3,111.9h-1v-1h1V111.9z"/>
		<path class="st14" d="M178.6,111.9v-0.7l2.3-2.6c0.4-0.5,0.7-0.8,0.8-1.1s0.2-0.6,0.2-0.8c0-0.4-0.1-0.7-0.3-0.9
			c-0.2-0.2-0.5-0.4-0.8-0.4c-0.5,0-0.9,0.1-1.1,0.4s-0.3,0.6-0.3,1.1h-0.9l0,0c0-0.6,0.2-1.1,0.6-1.5s1-0.6,1.8-0.6
			c0.6,0,1.2,0.2,1.5,0.6c0.4,0.4,0.6,0.8,0.6,1.4c0,0.4-0.1,0.8-0.3,1.2s-0.6,0.8-1,1.3l-1.9,2l0,0h2.5l0.1-0.8h0.8v1.6H178.6z"/>
		<path class="st14" d="M185.3,111.9h-1v-1h1V111.9z"/>
		<path class="st14" d="M187.8,107.9h0.8c0.4,0,0.7-0.1,0.9-0.3c0.2-0.2,0.3-0.5,0.3-0.9c0-0.4-0.1-0.7-0.3-0.9s-0.5-0.3-0.9-0.3
			c-0.4,0-0.7,0.1-0.9,0.3c-0.2,0.2-0.3,0.5-0.3,0.9h-0.9l0,0c0-0.5,0.2-1,0.6-1.4c0.4-0.4,0.9-0.6,1.6-0.6c0.7,0,1.2,0.2,1.6,0.5
			c0.4,0.4,0.6,0.8,0.6,1.5c0,0.3-0.1,0.6-0.3,0.9c-0.2,0.3-0.4,0.5-0.8,0.7c0.4,0.1,0.7,0.4,0.9,0.7s0.3,0.6,0.3,1
			c0,0.6-0.2,1.2-0.6,1.5s-1,0.6-1.6,0.6c-0.7,0-1.2-0.2-1.6-0.5c-0.4-0.4-0.6-0.8-0.6-1.4l0,0h0.9c0,0.4,0.1,0.7,0.3,0.9
			s0.5,0.3,0.9,0.3c0.4,0,0.7-0.1,1-0.3s0.3-0.5,0.3-1c0-0.4-0.1-0.8-0.3-1s-0.5-0.3-1-0.3h-0.8V107.9z"/>
		<path class="st14" d="M193.1,111.9h-1v-1h1V111.9z"/>
		<path class="st14" d="M198.3,109.5h1v0.8h-1v0.9l0.8,0.1v0.6h-2.5v-0.6l0.8-0.1v-0.9h-3.2v-0.5l3.1-4.9h1V109.5z M195.1,109.5h2.2
			v-3.3l0,0l-0.1,0.3L195.1,109.5z"/>
	</g>
	<g class="st7">
		<path class="st14" d="M118.3,124.2h-2.4v-0.8h2.4V124.2z"/>
		<path class="st14" d="M125.4,126.9c0-0.1-0.1-0.3-0.1-0.4s0-0.2,0-0.3c-0.2,0.2-0.4,0.4-0.7,0.6c-0.3,0.2-0.6,0.2-0.9,0.2
			c-0.6,0-1-0.1-1.3-0.4c-0.3-0.3-0.4-0.6-0.4-1.1c0-0.5,0.2-0.9,0.6-1.2c0.4-0.3,1-0.4,1.7-0.4h1v-0.6c0-0.3-0.1-0.6-0.3-0.7
			c-0.2-0.2-0.5-0.3-0.8-0.3c-0.2,0-0.5,0-0.6,0.1s-0.3,0.1-0.4,0.3l-0.1,0.6h-0.7v-1c0.2-0.2,0.5-0.3,0.9-0.5
			c0.3-0.1,0.7-0.2,1.1-0.2c0.6,0,1.1,0.2,1.5,0.5s0.6,0.7,0.6,1.3v2.5c0,0.1,0,0.1,0,0.2s0,0.1,0,0.2l0.4,0.1v0.6H125.4z
			 M123.9,126.1c0.3,0,0.6-0.1,0.9-0.2s0.5-0.3,0.6-0.6v-0.9h-1c-0.4,0-0.7,0.1-0.9,0.3s-0.3,0.4-0.3,0.7c0,0.2,0.1,0.4,0.2,0.5
			C123.4,126.1,123.6,126.1,123.9,126.1z"/>
		<path class="st14" d="M127.4,119.9v-0.6h1.8v6.9l0.8,0.1v0.6h-2.6v-0.6l0.8-0.1V120L127.4,119.9z"/>
		<path class="st14" d="M130.7,126.2l0.8-0.1v-3.8l-0.8-0.1v-0.6h1.8v4.5l0.8,0.1v0.6h-2.6V126.2z M132.4,120.2h-1v-1h1V120.2z"/>
		<path class="st14" d="M137.4,126.9c0-0.1-0.1-0.3-0.1-0.4s0-0.2,0-0.3c-0.2,0.2-0.4,0.4-0.7,0.6c-0.3,0.2-0.6,0.2-0.9,0.2
			c-0.6,0-1-0.1-1.3-0.4c-0.3-0.3-0.4-0.6-0.4-1.1c0-0.5,0.2-0.9,0.6-1.2c0.4-0.3,1-0.4,1.7-0.4h1v-0.6c0-0.3-0.1-0.6-0.3-0.7
			c-0.2-0.2-0.5-0.3-0.8-0.3c-0.2,0-0.5,0-0.6,0.1s-0.3,0.1-0.4,0.3l-0.1,0.6h-0.7v-1c0.2-0.2,0.5-0.3,0.9-0.5
			c0.3-0.1,0.7-0.2,1.1-0.2c0.6,0,1.1,0.2,1.5,0.5s0.6,0.7,0.6,1.3v2.5c0,0.1,0,0.1,0,0.2s0,0.1,0,0.2l0.4,0.1v0.6H137.4z
			 M135.8,126.1c0.3,0,0.6-0.1,0.9-0.2s0.5-0.3,0.6-0.6v-0.9h-1c-0.4,0-0.7,0.1-0.9,0.3s-0.3,0.4-0.3,0.7c0,0.2,0.1,0.4,0.2,0.5
			C135.3,126.1,135.6,126.1,135.8,126.1z"/>
		<path class="st14" d="M143.5,123.2h-0.7l-0.2-0.6c-0.1-0.1-0.3-0.2-0.4-0.3c-0.2-0.1-0.4-0.1-0.6-0.1c-0.3,0-0.6,0.1-0.8,0.2
			s-0.2,0.3-0.2,0.5c0,0.2,0.1,0.4,0.2,0.5s0.4,0.2,0.9,0.3c0.7,0.1,1.2,0.3,1.5,0.6c0.3,0.2,0.5,0.6,0.5,1c0,0.5-0.2,0.8-0.6,1.1
			s-0.9,0.4-1.5,0.4c-0.4,0-0.8,0-1.1-0.1c-0.3-0.1-0.6-0.2-0.9-0.4l0-1.2h0.7l0.2,0.7c0.1,0.1,0.3,0.2,0.5,0.2s0.4,0.1,0.6,0.1
			c0.3,0,0.6-0.1,0.8-0.2c0.2-0.1,0.3-0.3,0.3-0.5c0-0.2-0.1-0.4-0.2-0.5s-0.5-0.3-0.9-0.4c-0.6-0.1-1.1-0.3-1.5-0.6s-0.5-0.6-0.5-1
			c0-0.4,0.2-0.8,0.5-1.1s0.8-0.5,1.4-0.5c0.4,0,0.8,0.1,1.1,0.2s0.6,0.2,0.8,0.4L143.5,123.2z"/>
		<path class="st14" d="M149.4,126.2c0.3,0,0.6-0.1,0.8-0.3c0.2-0.2,0.4-0.4,0.4-0.7h0.9l0,0c0,0.5-0.2,0.9-0.6,1.2
			c-0.4,0.4-0.9,0.5-1.5,0.5c-0.8,0-1.4-0.3-1.8-0.8s-0.6-1.1-0.6-1.9v-0.2c0-0.8,0.2-1.4,0.6-1.9c0.4-0.5,1-0.8,1.8-0.8
			c0.4,0,0.8,0.1,1.1,0.2s0.6,0.3,0.8,0.6l0,1.2h-0.8l-0.2-0.8c-0.1-0.1-0.3-0.2-0.4-0.3s-0.4-0.1-0.6-0.1c-0.5,0-0.9,0.2-1.1,0.5
			c-0.2,0.4-0.3,0.8-0.3,1.3v0.2c0,0.5,0.1,1,0.3,1.3C148.5,126,148.9,126.2,149.4,126.2z"/>
		<path class="st14" d="M155.9,126.9c0-0.1-0.1-0.3-0.1-0.4s0-0.2,0-0.3c-0.2,0.2-0.4,0.4-0.7,0.6c-0.3,0.2-0.6,0.2-0.9,0.2
			c-0.6,0-1-0.1-1.3-0.4c-0.3-0.3-0.4-0.6-0.4-1.1c0-0.5,0.2-0.9,0.6-1.2c0.4-0.3,1-0.4,1.7-0.4h1v-0.6c0-0.3-0.1-0.6-0.3-0.7
			c-0.2-0.2-0.5-0.3-0.8-0.3c-0.2,0-0.5,0-0.6,0.1s-0.3,0.1-0.4,0.3l-0.1,0.6h-0.7v-1c0.2-0.2,0.5-0.3,0.9-0.5
			c0.3-0.1,0.7-0.2,1.1-0.2c0.6,0,1.1,0.2,1.5,0.5s0.6,0.7,0.6,1.3v2.5c0,0.1,0,0.1,0,0.2s0,0.1,0,0.2l0.4,0.1v0.6H155.9z
			 M154.3,126.1c0.3,0,0.6-0.1,0.9-0.2s0.5-0.3,0.6-0.6v-0.9h-1c-0.4,0-0.7,0.1-0.9,0.3s-0.3,0.4-0.3,0.7c0,0.2,0.1,0.4,0.2,0.5
			C153.8,126.1,154,126.1,154.3,126.1z"/>
	</g>
	<g class="st7">
		<path class="st14" d="M157.9,122.2v-0.6h1.7l0.1,0.8c0.1-0.3,0.3-0.5,0.6-0.6s0.5-0.2,0.8-0.2c0.1,0,0.2,0,0.2,0
			c0.1,0,0.1,0,0.2,0l-0.1,0.9l-0.5,0c-0.3,0-0.5,0.1-0.6,0.2c-0.2,0.1-0.3,0.3-0.4,0.5v3l0.8,0.1v0.6h-2.6v-0.6l0.8-0.1v-3.8
			L157.9,122.2z"/>
		<path class="st14" d="M161.9,124.2c0-0.8,0.2-1.4,0.6-1.9c0.4-0.5,1-0.8,1.7-0.8c0.7,0,1.3,0.3,1.7,0.8s0.6,1.1,0.6,1.9v0.1
			c0,0.8-0.2,1.4-0.6,1.9s-1,0.8-1.7,0.8c-0.7,0-1.3-0.3-1.7-0.8c-0.4-0.5-0.6-1.1-0.6-1.9V124.2z M162.8,124.3c0,0.6,0.1,1,0.4,1.4
			s0.6,0.5,1.1,0.5c0.5,0,0.8-0.2,1-0.5s0.4-0.8,0.4-1.4v-0.1c0-0.6-0.1-1-0.4-1.4s-0.6-0.6-1-0.6s-0.8,0.2-1,0.6s-0.4,0.8-0.4,1.4
			V124.3z"/>
	</g>
	<g class="st7">
		<path class="st14" d="M167.4,119.9v-0.6h1.8v6.9l0.8,0.1v0.6h-2.6v-0.6l0.8-0.1V120L167.4,119.9z"/>
		<path class="st14" d="M170.6,126.2l0.8-0.1v-3.8l-0.8-0.1v-0.6h1.8v4.5l0.8,0.1v0.6h-2.6V126.2z M172.4,120.2h-1v-1h1V120.2z"/>
	</g>
	<g class="st7">
		<path class="st14" d="M173.8,126.2l0.8-0.1v-3.8l-0.8-0.1v-0.6h1.7l0.1,0.8c0.2-0.3,0.4-0.5,0.7-0.7c0.3-0.2,0.6-0.2,0.9-0.2
			c0.6,0,1,0.2,1.3,0.5c0.3,0.3,0.5,0.8,0.5,1.5v2.6l0.8,0.1v0.6h-2.6v-0.6l0.8-0.1v-2.6c0-0.5-0.1-0.8-0.3-1
			c-0.2-0.2-0.5-0.3-0.8-0.3c-0.3,0-0.5,0.1-0.7,0.2c-0.2,0.1-0.4,0.3-0.5,0.5v3.1l0.8,0.1v0.6h-2.6V126.2z"/>
	</g>
	<g class="st7">
		<path class="st14" d="M182.7,127c-0.7,0-1.3-0.2-1.8-0.7c-0.4-0.5-0.7-1.1-0.7-1.9v-0.2c0-0.8,0.2-1.4,0.7-1.9
			c0.4-0.5,1-0.8,1.6-0.8c0.7,0,1.2,0.2,1.6,0.6s0.5,1,0.5,1.7v0.6h-3.4l0,0c0,0.5,0.1,0.9,0.4,1.3c0.2,0.3,0.6,0.5,1,0.5
			c0.3,0,0.6,0,0.9-0.1c0.2-0.1,0.5-0.2,0.6-0.4l0.4,0.6c-0.2,0.2-0.4,0.3-0.7,0.5C183.5,126.9,183.2,127,182.7,127z M182.6,122.2
			c-0.3,0-0.6,0.1-0.8,0.4c-0.2,0.3-0.4,0.6-0.4,1l0,0h2.4v-0.1c0-0.4-0.1-0.7-0.3-0.9S183,122.2,182.6,122.2z"/>
	</g>
	<g class="st7">
		<path class="st14" d="M118.3,139.2h-2.4v-0.8h2.4V139.2z"/>
		<path class="st14" d="M125.8,141.1c-0.2,0.3-0.4,0.5-0.6,0.7s-0.6,0.2-0.9,0.2c-0.6,0-1-0.2-1.3-0.6s-0.5-0.9-0.5-1.7v-2.4
			l-0.6-0.1v-0.6h0.6h1v3.1c0,0.6,0.1,1,0.2,1.2s0.4,0.3,0.8,0.3c0.3,0,0.6-0.1,0.8-0.2c0.2-0.1,0.4-0.3,0.5-0.6v-3.1l-0.7-0.1v-0.6
			h0.7h1v4.5l0.6,0.1v0.6h-1.5L125.8,141.1z"/>
		<path class="st14" d="M132.1,138.2h-0.7l-0.2-0.6c-0.1-0.1-0.3-0.2-0.4-0.3c-0.2-0.1-0.4-0.1-0.6-0.1c-0.3,0-0.6,0.1-0.8,0.2
			s-0.2,0.3-0.2,0.5c0,0.2,0.1,0.4,0.2,0.5s0.4,0.2,0.9,0.3c0.7,0.1,1.2,0.3,1.5,0.6c0.3,0.2,0.5,0.6,0.5,1c0,0.5-0.2,0.8-0.6,1.1
			s-0.9,0.4-1.5,0.4c-0.4,0-0.8,0-1.1-0.1c-0.3-0.1-0.6-0.2-0.9-0.4l0-1.2h0.7l0.2,0.7c0.1,0.1,0.3,0.2,0.5,0.2s0.4,0.1,0.6,0.1
			c0.3,0,0.6-0.1,0.8-0.2c0.2-0.1,0.3-0.3,0.3-0.5c0-0.2-0.1-0.4-0.2-0.5s-0.5-0.3-0.9-0.4c-0.6-0.1-1.1-0.3-1.5-0.6s-0.5-0.6-0.5-1
			c0-0.4,0.2-0.8,0.5-1.1s0.8-0.5,1.4-0.5c0.4,0,0.8,0.1,1.1,0.2s0.6,0.2,0.8,0.4L132.1,138.2z"/>
		<path class="st14" d="M135.6,142c-0.7,0-1.3-0.2-1.8-0.7c-0.4-0.5-0.7-1.1-0.7-1.9v-0.2c0-0.8,0.2-1.4,0.7-1.9
			c0.4-0.5,1-0.8,1.6-0.8c0.7,0,1.2,0.2,1.6,0.6s0.5,1,0.5,1.7v0.6h-3.4l0,0c0,0.5,0.1,0.9,0.4,1.3c0.2,0.3,0.6,0.5,1,0.5
			c0.3,0,0.6,0,0.9-0.1c0.2-0.1,0.5-0.2,0.6-0.4l0.4,0.6c-0.2,0.2-0.4,0.3-0.7,0.5C136.4,141.9,136,142,135.6,142z M135.4,137.2
			c-0.3,0-0.6,0.1-0.8,0.4c-0.2,0.3-0.4,0.6-0.4,1l0,0h2.4v-0.1c0-0.4-0.1-0.7-0.3-0.9S135.8,137.2,135.4,137.2z"/>
		<path class="st14" d="M138.5,137.2v-0.6h1.7l0.1,0.8c0.1-0.3,0.3-0.5,0.6-0.6s0.5-0.2,0.8-0.2c0.1,0,0.2,0,0.2,0
			c0.1,0,0.1,0,0.2,0l-0.1,0.9l-0.5,0c-0.3,0-0.5,0.1-0.6,0.2c-0.2,0.1-0.3,0.3-0.4,0.5v3l0.8,0.1v0.6h-2.6v-0.6l0.8-0.1v-3.8
			L138.5,137.2z"/>
		<path class="st14" d="M148.9,141.1c-0.2,0.3-0.4,0.5-0.6,0.7s-0.6,0.2-0.9,0.2c-0.6,0-1-0.2-1.3-0.6s-0.5-0.9-0.5-1.7v-2.4
			l-0.6-0.1v-0.6h0.6h1v3.1c0,0.6,0.1,1,0.2,1.2s0.4,0.3,0.8,0.3c0.3,0,0.6-0.1,0.8-0.2c0.2-0.1,0.4-0.3,0.5-0.6v-3.1l-0.7-0.1v-0.6
			h0.7h1v4.5l0.6,0.1v0.6H149L148.9,141.1z"/>
		<path class="st14" d="M156.1,139.4c0,0.8-0.2,1.4-0.5,1.8c-0.4,0.5-0.9,0.7-1.5,0.7c-0.3,0-0.6-0.1-0.9-0.2
			c-0.3-0.1-0.5-0.3-0.6-0.6l-0.1,0.7h-0.8V135l-0.8-0.1v-0.6h1.8v3c0.2-0.2,0.4-0.4,0.6-0.5s0.5-0.2,0.9-0.2c0.7,0,1.2,0.3,1.5,0.8
			s0.5,1.2,0.5,2.1V139.4z M155.1,139.3c0-0.6-0.1-1.1-0.3-1.5s-0.6-0.6-1-0.6c-0.3,0-0.5,0.1-0.7,0.2s-0.4,0.3-0.5,0.6v2.3
			c0.1,0.2,0.3,0.4,0.5,0.6s0.5,0.2,0.8,0.2c0.5,0,0.8-0.2,1-0.5s0.3-0.7,0.3-1.3V139.3z"/>
		<path class="st14" d="M160.8,141.1c-0.2,0.3-0.4,0.5-0.6,0.7s-0.6,0.2-0.9,0.2c-0.6,0-1-0.2-1.3-0.6s-0.5-0.9-0.5-1.7v-2.4
			l-0.6-0.1v-0.6h0.6h1v3.1c0,0.6,0.1,1,0.2,1.2s0.4,0.3,0.8,0.3c0.3,0,0.6-0.1,0.8-0.2c0.2-0.1,0.4-0.3,0.5-0.6v-3.1l-0.7-0.1v-0.6
			h0.7h1v4.5l0.6,0.1v0.6h-1.5L160.8,141.1z"/>
		<path class="st14" d="M163,141.2l0.8-0.1v-3.8l-0.8-0.1v-0.6h1.7l0.1,0.8c0.2-0.3,0.4-0.5,0.7-0.7c0.3-0.2,0.6-0.2,0.9-0.2
			c0.6,0,1,0.2,1.3,0.5c0.3,0.3,0.5,0.8,0.5,1.5v2.6l0.8,0.1v0.6h-2.6v-0.6l0.8-0.1v-2.6c0-0.5-0.1-0.8-0.3-1s-0.5-0.3-0.8-0.3
			c-0.3,0-0.5,0.1-0.7,0.2s-0.4,0.3-0.5,0.5v3.1l0.8,0.1v0.6H163V141.2z"/>
		<path class="st14" d="M171.2,135.3v1.3h1v0.7h-1v3.2c0,0.2,0.1,0.4,0.2,0.5s0.2,0.2,0.4,0.2c0.1,0,0.2,0,0.3,0c0.1,0,0.2,0,0.3,0
			l0.1,0.7c-0.1,0.1-0.2,0.1-0.4,0.1c-0.2,0-0.4,0.1-0.5,0.1c-0.4,0-0.7-0.1-0.9-0.4c-0.2-0.2-0.3-0.6-0.3-1.1v-3.2h-0.8v-0.7h0.8
			v-1.3H171.2z"/>
		<path class="st14" d="M177,141.1c-0.2,0.3-0.4,0.5-0.6,0.7s-0.6,0.2-0.9,0.2c-0.6,0-1-0.2-1.3-0.6s-0.5-0.9-0.5-1.7v-2.4l-0.6-0.1
			v-0.6h0.6h1v3.1c0,0.6,0.1,1,0.2,1.2s0.4,0.3,0.8,0.3c0.3,0,0.6-0.1,0.8-0.2c0.2-0.1,0.4-0.3,0.5-0.6v-3.1l-0.7-0.1v-0.6h0.7h1
			v4.5l0.6,0.1v0.6h-1.5L177,141.1z"/>
	</g>
	<g class="st7">
		<path class="st14" d="M98.7,96.3c0-0.1-0.1-0.3-0.1-0.4c0-0.1,0-0.2,0-0.3c-0.2,0.2-0.4,0.4-0.7,0.6c-0.3,0.2-0.6,0.2-0.9,0.2
			c-0.6,0-1-0.1-1.3-0.4c-0.3-0.3-0.4-0.6-0.4-1.1c0-0.5,0.2-0.9,0.6-1.2c0.4-0.3,1-0.4,1.7-0.4h1v-0.6c0-0.3-0.1-0.6-0.3-0.7
			c-0.2-0.2-0.5-0.3-0.8-0.3c-0.2,0-0.5,0-0.6,0.1c-0.2,0.1-0.3,0.1-0.4,0.3l-0.1,0.6h-0.7v-1c0.2-0.2,0.5-0.3,0.9-0.5
			c0.3-0.1,0.7-0.2,1.1-0.2c0.6,0,1.1,0.2,1.5,0.5s0.6,0.7,0.6,1.3v2.5c0,0.1,0,0.1,0,0.2c0,0.1,0,0.1,0,0.2l0.4,0.1v0.6H98.7z
			 M97.1,95.6c0.3,0,0.6-0.1,0.9-0.2s0.5-0.3,0.6-0.6V94h-1c-0.4,0-0.7,0.1-0.9,0.3s-0.3,0.4-0.3,0.7c0,0.2,0.1,0.4,0.2,0.5
			C96.6,95.6,96.8,95.6,97.1,95.6z"/>
		<path class="st14" d="M104.3,95.7c-0.2,0.2-0.4,0.4-0.6,0.5s-0.5,0.2-0.9,0.2c-0.6,0-1.1-0.2-1.5-0.7c-0.4-0.5-0.5-1.1-0.5-1.8
			v-0.1c0-0.8,0.2-1.5,0.5-2.1c0.4-0.5,0.9-0.8,1.5-0.8c0.3,0,0.6,0.1,0.8,0.2c0.2,0.1,0.4,0.3,0.6,0.5v-2.2l-0.8-0.1v-0.6h0.8h1
			v6.9l0.8,0.1v0.6h-1.6L104.3,95.7z M101.7,93.9c0,0.5,0.1,1,0.3,1.3c0.2,0.3,0.6,0.5,1,0.5c0.3,0,0.5-0.1,0.7-0.2s0.4-0.3,0.5-0.6
			v-2.5c-0.1-0.2-0.3-0.4-0.5-0.5c-0.2-0.1-0.4-0.2-0.7-0.2c-0.5,0-0.8,0.2-1,0.6s-0.3,0.9-0.3,1.5V93.9z"/>
		<path class="st14" d="M110.3,95.7c-0.2,0.2-0.4,0.4-0.6,0.5s-0.5,0.2-0.9,0.2c-0.6,0-1.1-0.2-1.5-0.7c-0.4-0.5-0.5-1.1-0.5-1.8
			v-0.1c0-0.8,0.2-1.5,0.5-2.1c0.4-0.5,0.9-0.8,1.5-0.8c0.3,0,0.6,0.1,0.8,0.2c0.2,0.1,0.4,0.3,0.6,0.5v-2.2l-0.8-0.1v-0.6h0.8h1
			v6.9l0.8,0.1v0.6h-1.6L110.3,95.7z M107.7,93.9c0,0.5,0.1,1,0.3,1.3c0.2,0.3,0.6,0.5,1,0.5c0.3,0,0.5-0.1,0.7-0.2s0.4-0.3,0.5-0.6
			v-2.5c-0.1-0.2-0.3-0.4-0.5-0.5c-0.2-0.1-0.4-0.2-0.7-0.2c-0.5,0-0.8,0.2-1,0.6s-0.3,0.9-0.3,1.5V93.9z"/>
		<path class="st14" d="M115.4,93.7H113V93h2.4V93.7z"/>
	</g>
	<g class="st7">
		<path class="st14" d="M116.5,95.7l0.8-0.1v-6.1l-0.8-0.1v-0.6h1.8v3c0.2-0.3,0.4-0.5,0.7-0.6s0.6-0.2,0.9-0.2c0.6,0,1,0.2,1.3,0.5
			s0.5,0.9,0.5,1.6v2.6l0.8,0.1v0.6h-2.6v-0.6l0.8-0.1V93c0-0.4-0.1-0.8-0.3-1s-0.5-0.3-0.8-0.3c-0.3,0-0.5,0.1-0.7,0.2
			c-0.2,0.1-0.4,0.3-0.5,0.5v3.1l0.8,0.1v0.6h-2.6V95.7z"/>
	</g>
	<g class="st7">
		<path class="st14" d="M123,93.6c0-0.8,0.2-1.4,0.6-1.9c0.4-0.5,1-0.8,1.7-0.8c0.7,0,1.3,0.3,1.7,0.8s0.6,1.1,0.6,1.9v0.1
			c0,0.8-0.2,1.4-0.6,1.9s-1,0.8-1.7,0.8c-0.7,0-1.3-0.3-1.7-0.8c-0.4-0.5-0.6-1.1-0.6-1.9V93.6z M124,93.8c0,0.6,0.1,1,0.4,1.4
			s0.6,0.5,1.1,0.5c0.5,0,0.8-0.2,1-0.5s0.4-0.8,0.4-1.4v-0.1c0-0.6-0.1-1-0.4-1.4s-0.6-0.6-1-0.6s-0.8,0.2-1,0.6s-0.4,0.8-0.4,1.4
			V93.8z"/>
		<path class="st14" d="M132.7,92.7H132l-0.2-0.6c-0.1-0.1-0.3-0.2-0.4-0.3c-0.2-0.1-0.4-0.1-0.6-0.1c-0.3,0-0.6,0.1-0.8,0.2
			s-0.2,0.3-0.2,0.5c0,0.2,0.1,0.4,0.2,0.5s0.4,0.2,0.9,0.3c0.7,0.1,1.2,0.3,1.5,0.6c0.3,0.2,0.5,0.6,0.5,1c0,0.5-0.2,0.8-0.6,1.1
			s-0.9,0.4-1.5,0.4c-0.4,0-0.8,0-1.1-0.1c-0.3-0.1-0.6-0.2-0.9-0.4l0-1.2h0.7l0.2,0.7c0.1,0.1,0.3,0.2,0.5,0.2s0.4,0.1,0.6,0.1
			c0.3,0,0.6-0.1,0.8-0.2c0.2-0.1,0.3-0.3,0.3-0.5c0-0.2-0.1-0.4-0.2-0.5s-0.5-0.3-0.9-0.4c-0.6-0.1-1.1-0.3-1.5-0.6s-0.5-0.6-0.5-1
			c0-0.4,0.2-0.8,0.5-1.1s0.8-0.5,1.4-0.5c0.4,0,0.8,0.1,1.1,0.2s0.6,0.2,0.8,0.4L132.7,92.7z"/>
		<path class="st14" d="M135.4,89.8v1.3h1v0.7h-1V95c0,0.2,0.1,0.4,0.2,0.5s0.2,0.2,0.4,0.2c0.1,0,0.2,0,0.3,0c0.1,0,0.2,0,0.3,0
			l0.1,0.7c-0.1,0.1-0.2,0.1-0.4,0.1c-0.2,0-0.4,0.1-0.5,0.1c-0.4,0-0.7-0.1-0.9-0.4c-0.2-0.2-0.3-0.6-0.3-1.1v-3.2h-0.8v-0.7h0.8
			v-1.3H135.4z"/>
	</g>
</g>
<g id="schrift">
	<path class="st15" d="M498.7,60.2c-0.7-1.3-2.3-1.8-3.6-1.2c-2.3,0.9-1.3,3.6-1.3,3.6s-5.1-0.1-4.6,5.2c0.4,3.8,4.6,3.6,4.4,3.6
		c-6.2,0,12.4,0,18.6,0c1-0.1,1.9-0.4,2.6-1c1.5-1.1,2-3.1,1.3-4.7c-0.7-1.8-3-2.8-4.9-2.9c0,0,1.1-4.9-2.4-7
		c-2.5-1.7-5.8-1.4-8.1,0.6C499.7,57.4,499,58.7,498.7,60.2z"/>
	<path class="st16" d="M27.5,31.1h-4.3c-0.6,0-0.8-0.2-0.8-0.8v-6.5c0-0.6,0.2-0.8,0.8-0.8h8.5c0.5,0,0.8,0.2,0.8,0.8v6.5
		c0,0.5-0.2,0.8-0.8,0.8C30.3,31.2,28.9,31.1,27.5,31.1z"/>
	<path class="st16" d="M23.2,22.5c0-1.8,1-3.4,2.6-4.1c2.1-0.9,4.6,0,5.5,2.1c0.1,0.2,0.2,0.5,0.2,0.7c0.1,0.4,0.1,0.8,0.2,1.2"/>
	<path class="st9" d="M26.8,28.4L26.8,28.4v0.9c0,0.2,0.1,0.2,0.3,0.2h0.8c0.2,0,0.3-0.1,0.3-0.3v-1.6c0-0.2,0.1-0.3,0.2-0.4
		c0.5-0.3,0.8-0.9,0.6-1.4c-0.2-0.6-0.8-1-1.5-1c-0.7-0.1-1.3,0.3-1.6,0.9c-0.2,0.6,0,1.2,0.5,1.5c0.2,0.1,0.3,0.3,0.3,0.5
		C26.8,27.9,26.8,28.1,26.8,28.4z"/>
	<path class="st17" d="M516.9,29.8h-4.3c-0.6,0-0.8-0.2-0.8-0.8v-6.5c0-0.6,0.2-0.8,0.8-0.8h8.5c0.5,0,0.8,0.2,0.8,0.8v6.5
		c0,0.5-0.2,0.8-0.8,0.8C519.7,29.8,518.2,29.8,516.9,29.8z"/>
	<path class="st17" d="M515.5,13.5c1.6-0.7,3.5-0.5,4.9,0.7c1.7,1.5,1.9,4.2,0.3,5.9c-0.2,0.2-0.4,0.4-0.6,0.5
		c-0.3,0.3-0.7,0.4-1,0.7"/>
	<path class="st18" d="M516.2,27L516.2,27v0.9c0,0.2,0.1,0.2,0.3,0.2h0.8c0.2,0,0.3-0.1,0.3-0.3v-1.6c0-0.2,0.1-0.3,0.2-0.4
		c0.5-0.3,0.8-0.9,0.6-1.4c-0.2-0.6-0.8-1-1.5-1c-0.7-0.1-1.3,0.3-1.6,0.9c-0.2,0.6,0,1.2,0.5,1.5c0.2,0.1,0.3,0.3,0.3,0.5
		C516.1,26.5,516.2,26.7,516.2,27z"/>
	<g class="st7">
		<path class="st8" d="M450.5,21.4v1l-0.9,0.2V27c0,0.6,0.2,1,0.5,1.3s0.7,0.4,1.2,0.4c0.5,0,1-0.1,1.3-0.4s0.5-0.7,0.5-1.3v-4.5
			l-0.9-0.2v-1h3.5v1l-0.9,0.2V27c0,1-0.3,1.7-0.9,2.2s-1.5,0.8-2.5,0.8c-1,0-1.8-0.3-2.5-0.8s-0.9-1.3-0.9-2.2v-4.5l-0.9-0.2v-1
			h0.9h1.7H450.5z"/>
		<path class="st8" d="M456.1,28.9l0.8-0.2v-3.9l-0.9-0.2v-1h2.5l0.1,0.9c0.2-0.3,0.5-0.6,0.8-0.8s0.7-0.3,1-0.3
			c0.6,0,1.1,0.2,1.5,0.6s0.5,1,0.5,1.9v2.8l0.8,0.2v1H460v-1l0.7-0.2V26c0-0.4-0.1-0.7-0.3-0.9s-0.4-0.3-0.8-0.3
			c-0.2,0-0.4,0-0.6,0.1s-0.3,0.2-0.5,0.4v3.4l0.7,0.2v1h-3.2V28.9z"/>
		<path class="st8" d="M466.3,22v1.6h1.1v1.2h-1.1V28c0,0.2,0.1,0.4,0.2,0.5s0.2,0.2,0.4,0.2c0.1,0,0.2,0,0.3,0s0.2,0,0.3,0l0.1,1.2
			c-0.2,0.1-0.4,0.1-0.6,0.1s-0.4,0-0.6,0c-0.6,0-1-0.2-1.4-0.5s-0.5-0.8-0.5-1.5v-3.2h-0.9v-1.2h0.9V22H466.3z"/>
		<path class="st8" d="M468.4,28.9l0.8-0.2v-3.9l-0.9-0.2v-1h2.5l0.1,0.9c0.1-0.3,0.3-0.6,0.6-0.8s0.5-0.3,0.8-0.3
			c0.1,0,0.2,0,0.3,0s0.2,0,0.2,0l-0.2,1.6l-0.7,0c-0.3,0-0.5,0-0.6,0.1s-0.3,0.2-0.4,0.4v3.1l0.8,0.2v1h-3.4V28.9z"/>
		<path class="st8" d="M477.8,29.1c-0.2,0.3-0.5,0.5-0.8,0.7s-0.6,0.2-1,0.2c-0.7,0-1.2-0.2-1.6-0.6s-0.6-1.1-0.6-2v-2.6l-0.7-0.2
			v-1h0.7h1.7v3.8c0,0.5,0.1,0.8,0.2,1s0.4,0.3,0.7,0.3c0.3,0,0.5,0,0.7-0.1s0.4-0.2,0.5-0.4v-3.4l-0.8-0.2v-1h0.8h1.7v5.1l0.8,0.2
			v1h-2.3L477.8,29.1z"/>
		<path class="st8" d="M486,25.8h-1.1l-0.2-0.8c-0.1-0.1-0.3-0.2-0.4-0.2s-0.4-0.1-0.6-0.1c-0.3,0-0.5,0.1-0.7,0.2s-0.3,0.3-0.3,0.5
			c0,0.2,0.1,0.4,0.3,0.5s0.5,0.2,1,0.3c0.8,0.2,1.4,0.4,1.7,0.7s0.6,0.7,0.6,1.3c0,0.6-0.2,1-0.7,1.4s-1.1,0.5-1.9,0.5
			c-0.5,0-0.9-0.1-1.3-0.2s-0.8-0.3-1.1-0.6l0-1.4h1.2l0.2,0.8c0.1,0.1,0.2,0.1,0.4,0.2s0.4,0.1,0.6,0.1c0.3,0,0.6-0.1,0.8-0.2
			s0.3-0.3,0.3-0.5c0-0.2-0.1-0.3-0.3-0.5s-0.5-0.3-1-0.4c-0.7-0.2-1.3-0.4-1.7-0.7s-0.6-0.7-0.6-1.2c0-0.5,0.2-1,0.7-1.4
			s1.1-0.6,1.9-0.6c0.5,0,1,0.1,1.4,0.2s0.8,0.3,1,0.5L486,25.8z"/>
		<path class="st8" d="M489.5,22v1.6h1.1v1.2h-1.1V28c0,0.2,0.1,0.4,0.2,0.5s0.2,0.2,0.4,0.2c0.1,0,0.2,0,0.3,0s0.2,0,0.3,0l0.1,1.2
			c-0.2,0.1-0.4,0.1-0.6,0.1s-0.4,0-0.6,0c-0.6,0-1-0.2-1.4-0.5s-0.5-0.8-0.5-1.5v-3.2h-0.9v-1.2h0.9V22H489.5z"/>
		<path class="st8" d="M494.5,30c-0.9,0-1.6-0.3-2.2-0.9s-0.8-1.3-0.8-2.2v-0.2c0-0.9,0.3-1.7,0.8-2.3s1.2-0.9,2.1-0.9
			c0.9,0,1.5,0.3,2,0.8s0.7,1.2,0.7,2.1v0.9h-3.8l0,0c0,0.4,0.2,0.8,0.4,1s0.6,0.4,1,0.4c0.4,0,0.7,0,0.9-0.1s0.5-0.2,0.8-0.4
			l0.5,1.1c-0.3,0.2-0.6,0.4-1,0.5S495,30,494.5,30z M494.4,24.8c-0.3,0-0.6,0.1-0.8,0.4s-0.3,0.6-0.3,1l0,0h2.1V26
			c0-0.4-0.1-0.7-0.3-0.9S494.7,24.8,494.4,24.8z"/>
		<path class="st8" d="M502,29.1c-0.2,0.3-0.4,0.5-0.7,0.7s-0.6,0.2-0.9,0.2c-0.8,0-1.4-0.3-1.8-0.9s-0.6-1.3-0.6-2.3v-0.1
			c0-1,0.2-1.8,0.7-2.4s1-0.9,1.8-0.9c0.3,0,0.6,0.1,0.9,0.2s0.5,0.3,0.7,0.6V22l-0.9-0.2v-1h0.9h1.7v7.9l0.8,0.2v1h-2.3L502,29.1z
			 M499.6,26.9c0,0.6,0.1,1,0.3,1.3s0.5,0.5,0.9,0.5c0.3,0,0.5-0.1,0.7-0.2s0.3-0.2,0.5-0.4v-2.7c-0.1-0.2-0.3-0.4-0.4-0.5
			s-0.4-0.2-0.6-0.2c-0.4,0-0.7,0.2-0.9,0.6s-0.3,0.9-0.3,1.5V26.9z"/>
	</g>
	<g class="st7">
		<path class="st8" d="M401.1,43.3l0.8-0.2v-3.9L401,39v-1h2.5l0.1,0.9c0.1-0.3,0.3-0.6,0.6-0.8s0.5-0.3,0.8-0.3c0.1,0,0.2,0,0.3,0
			s0.2,0,0.3,0l-0.2,1.6l-0.7,0c-0.3,0-0.5,0-0.6,0.1s-0.3,0.2-0.4,0.4v3.1l0.8,0.2v1h-3.4V43.3z"/>
	</g>
	<g class="st7">
		<path class="st8" d="M408.9,44.4c-0.9,0-1.6-0.3-2.2-0.9s-0.8-1.3-0.8-2.2v-0.2c0-0.9,0.3-1.7,0.8-2.3s1.2-0.9,2.1-0.9
			c0.9,0,1.5,0.3,2,0.8s0.7,1.2,0.7,2.1v0.9h-3.8l0,0c0,0.4,0.2,0.8,0.4,1s0.6,0.4,1,0.4c0.4,0,0.7,0,0.9-0.1s0.5-0.2,0.8-0.4
			l0.5,1.1c-0.3,0.2-0.6,0.4-1,0.5S409.4,44.4,408.9,44.4z M408.8,39.2c-0.3,0-0.6,0.1-0.8,0.4s-0.3,0.6-0.3,1l0,0h2.1v-0.2
			c0-0.4-0.1-0.7-0.3-0.9S409.1,39.2,408.8,39.2z"/>
	</g>
	<g class="st7">
		<path class="st8" d="M412.1,39v-1h2.5l0.1,0.8c0.2-0.3,0.5-0.5,0.8-0.7s0.7-0.2,1.1-0.2c0.4,0,0.8,0.1,1,0.3s0.5,0.5,0.7,0.8
			c0.2-0.3,0.4-0.6,0.8-0.8s0.7-0.3,1.1-0.3c0.6,0,1.1,0.2,1.5,0.6s0.5,1.1,0.5,2v2.6l0.8,0.2v1h-3.3v-1l0.7-0.2v-2.6
			c0-0.5-0.1-0.8-0.2-1s-0.4-0.3-0.7-0.3c-0.2,0-0.5,0.1-0.6,0.2s-0.3,0.3-0.4,0.4c0,0.1,0,0.1,0,0.2s0,0.1,0,0.2v3l0.7,0.2v1H416
			v-1l0.7-0.2v-2.6c0-0.5-0.1-0.8-0.2-1s-0.4-0.3-0.7-0.3c-0.2,0-0.4,0-0.6,0.1s-0.3,0.2-0.4,0.4v3.4l0.7,0.2v1h-3.3v-1l0.8-0.2
			v-3.9L412.1,39z"/>
	</g>
	<g class="st7">
		<path class="st8" d="M423.4,41.1c0-0.9,0.3-1.7,0.8-2.3s1.3-0.9,2.2-0.9c0.9,0,1.7,0.3,2.2,0.9s0.8,1.4,0.8,2.3v0.1
			c0,1-0.3,1.7-0.8,2.3s-1.3,0.9-2.2,0.9c-0.9,0-1.7-0.3-2.2-0.9s-0.8-1.4-0.8-2.3V41.1z M425.1,41.2c0,0.6,0.1,1,0.3,1.4
			s0.5,0.5,1,0.5c0.4,0,0.8-0.2,1-0.5s0.3-0.8,0.3-1.4v-0.1c0-0.6-0.1-1-0.3-1.4s-0.5-0.5-1-0.5s-0.8,0.2-1,0.5s-0.3,0.8-0.3,1.4
			V41.2z"/>
		<path class="st8" d="M432.6,36.4V38h1.1v1.2h-1.1v3.2c0,0.2,0.1,0.4,0.2,0.5s0.2,0.2,0.4,0.2c0.1,0,0.2,0,0.3,0s0.2,0,0.3,0
			l0.1,1.2c-0.2,0.1-0.4,0.1-0.6,0.1s-0.4,0-0.6,0c-0.6,0-1-0.2-1.4-0.5s-0.5-0.8-0.5-1.5v-3.2H430V38h0.9v-1.6H432.6z"/>
		<path class="st8" d="M437.6,44.4c-0.9,0-1.6-0.3-2.2-0.9s-0.8-1.3-0.8-2.2v-0.2c0-0.9,0.3-1.7,0.8-2.3s1.2-0.9,2.1-0.9
			c0.9,0,1.5,0.3,2,0.8s0.7,1.2,0.7,2.1v0.9h-3.8l0,0c0,0.4,0.2,0.8,0.4,1s0.6,0.4,1,0.4c0.4,0,0.7,0,0.9-0.1s0.5-0.2,0.8-0.4
			l0.5,1.1c-0.3,0.2-0.6,0.4-1,0.5S438.1,44.4,437.6,44.4z M437.5,39.2c-0.3,0-0.6,0.1-0.8,0.4s-0.3,0.6-0.3,1l0,0h2.1v-0.2
			c0-0.4-0.1-0.7-0.3-0.9S437.8,39.2,437.5,39.2z"/>
		<path class="st8" d="M446.9,43.1c0.3,0,0.5-0.1,0.7-0.3s0.3-0.4,0.3-0.7h1.5l0,0c0,0.6-0.2,1.2-0.7,1.6s-1.1,0.6-1.9,0.6
			c-0.9,0-1.7-0.3-2.2-0.9s-0.8-1.4-0.8-2.3v-0.2c0-0.9,0.3-1.7,0.8-2.3s1.3-0.9,2.2-0.9c0.5,0,1,0.1,1.4,0.2s0.7,0.4,1,0.6l0,1.7
			H448l-0.3-1c-0.1-0.1-0.2-0.1-0.3-0.2s-0.3-0.1-0.4-0.1c-0.5,0-0.8,0.2-1,0.5s-0.3,0.8-0.3,1.4v0.2c0,0.6,0.1,1,0.3,1.4
			S446.4,43.1,446.9,43.1z"/>
		<path class="st8" d="M450.2,41.1c0-0.9,0.3-1.7,0.8-2.3s1.3-0.9,2.2-0.9c0.9,0,1.7,0.3,2.2,0.9s0.8,1.4,0.8,2.3v0.1
			c0,1-0.3,1.7-0.8,2.3s-1.3,0.9-2.2,0.9c-0.9,0-1.7-0.3-2.2-0.9s-0.8-1.4-0.8-2.3V41.1z M451.9,41.2c0,0.6,0.1,1,0.3,1.4
			s0.5,0.5,1,0.5c0.4,0,0.8-0.2,1-0.5s0.3-0.8,0.3-1.4v-0.1c0-0.6-0.1-1-0.3-1.4s-0.5-0.5-1-0.5s-0.8,0.2-1,0.5s-0.3,0.8-0.3,1.4
			V41.2z"/>
		<path class="st8" d="M456.8,39v-1h2.5l0.1,0.8c0.2-0.3,0.5-0.5,0.8-0.7s0.7-0.2,1.1-0.2c0.4,0,0.8,0.1,1,0.3s0.5,0.5,0.7,0.8
			c0.2-0.3,0.4-0.6,0.8-0.8s0.7-0.3,1.1-0.3c0.6,0,1.1,0.2,1.5,0.6s0.5,1.1,0.5,2v2.6l0.8,0.2v1h-3.3v-1l0.7-0.2v-2.6
			c0-0.5-0.1-0.8-0.2-1s-0.4-0.3-0.7-0.3c-0.2,0-0.5,0.1-0.6,0.2s-0.3,0.3-0.4,0.4c0,0.1,0,0.1,0,0.2s0,0.1,0,0.2v3l0.7,0.2v1h-3.1
			v-1l0.7-0.2v-2.6c0-0.5-0.1-0.8-0.2-1s-0.4-0.3-0.7-0.3c-0.2,0-0.4,0-0.6,0.1s-0.3,0.2-0.4,0.4v3.4l0.7,0.2v1h-3.3v-1l0.8-0.2
			v-3.9L456.8,39z"/>
		<path class="st8" d="M468,39v-1h2.5l0.1,0.7c0.2-0.3,0.4-0.5,0.7-0.6s0.6-0.2,0.9-0.2c0.8,0,1.4,0.3,1.8,0.9s0.7,1.4,0.7,2.4v0.1
			c0,0.9-0.2,1.7-0.7,2.3s-1,0.9-1.8,0.9c-0.3,0-0.6-0.1-0.9-0.2s-0.5-0.3-0.7-0.5v1.8l0.8,0.2v1h-3.4v-1l0.8-0.2v-6.4L468,39z
			 M472.9,41.2c0-0.6-0.1-1.1-0.3-1.5s-0.5-0.6-0.9-0.6c-0.3,0-0.5,0.1-0.7,0.2s-0.3,0.3-0.4,0.5v2.8c0.1,0.2,0.2,0.3,0.4,0.4
			s0.4,0.1,0.7,0.1c0.4,0,0.7-0.2,0.9-0.5s0.3-0.8,0.3-1.3V41.2z"/>
		<path class="st8" d="M479.8,43.5c-0.2,0.3-0.5,0.5-0.8,0.7s-0.6,0.2-1,0.2c-0.7,0-1.2-0.2-1.6-0.6s-0.6-1.1-0.6-2v-2.6l-0.7-0.2
			v-1h0.7h1.7v3.8c0,0.5,0.1,0.8,0.2,1s0.4,0.3,0.7,0.3c0.3,0,0.5,0,0.7-0.1s0.4-0.2,0.5-0.4v-3.4L479,39v-1h0.8h1.7v5.1l0.8,0.2v1
			h-2.3L479.8,43.5z"/>
		<path class="st8" d="M485.4,36.4V38h1.1v1.2h-1.1v3.2c0,0.2,0.1,0.4,0.2,0.5s0.2,0.2,0.4,0.2c0.1,0,0.2,0,0.3,0s0.2,0,0.3,0
			l0.1,1.2c-0.2,0.1-0.4,0.1-0.6,0.1s-0.4,0-0.6,0c-0.6,0-1-0.2-1.4-0.5s-0.5-0.8-0.5-1.5v-3.2h-0.9V38h0.9v-1.6H485.4z"/>
		<path class="st8" d="M490.4,44.4c-0.9,0-1.6-0.3-2.2-0.9s-0.8-1.3-0.8-2.2v-0.2c0-0.9,0.3-1.7,0.8-2.3s1.2-0.9,2.1-0.9
			c0.9,0,1.5,0.3,2,0.8s0.7,1.2,0.7,2.1v0.9h-3.8l0,0c0,0.4,0.2,0.8,0.4,1s0.6,0.4,1,0.4c0.4,0,0.7,0,0.9-0.1s0.5-0.2,0.8-0.4
			l0.5,1.1c-0.3,0.2-0.6,0.4-1,0.5S490.9,44.4,490.4,44.4z M490.2,39.2c-0.3,0-0.6,0.1-0.8,0.4s-0.3,0.6-0.3,1l0,0h2.1v-0.2
			c0-0.4-0.1-0.7-0.3-0.9S490.6,39.2,490.2,39.2z"/>
		<path class="st8" d="M493.9,43.3l0.8-0.2v-3.9l-0.9-0.2v-1h2.5l0.1,0.9c0.1-0.3,0.3-0.6,0.6-0.8s0.5-0.3,0.8-0.3
			c0.1,0,0.2,0,0.3,0s0.2,0,0.2,0l-0.2,1.6l-0.7,0c-0.3,0-0.5,0-0.6,0.1s-0.3,0.2-0.4,0.4v3.1l0.8,0.2v1h-3.4V43.3z"/>
		<path class="st8" d="M504,40.2h-1.1l-0.2-0.8c-0.1-0.1-0.3-0.2-0.4-0.2s-0.4-0.1-0.6-0.1c-0.3,0-0.5,0.1-0.7,0.2s-0.3,0.3-0.3,0.5
			c0,0.2,0.1,0.4,0.3,0.5s0.5,0.2,1,0.3c0.8,0.2,1.4,0.4,1.7,0.7s0.6,0.7,0.6,1.3c0,0.6-0.2,1-0.7,1.4s-1.1,0.5-1.9,0.5
			c-0.5,0-0.9-0.1-1.3-0.2s-0.8-0.3-1.1-0.6l0-1.4h1.2l0.2,0.8c0.1,0.1,0.2,0.1,0.4,0.2s0.4,0.1,0.6,0.1c0.3,0,0.6-0.1,0.8-0.2
			s0.3-0.3,0.3-0.5c0-0.2-0.1-0.3-0.3-0.5s-0.5-0.3-1-0.4c-0.7-0.2-1.3-0.4-1.7-0.7s-0.6-0.7-0.6-1.2c0-0.5,0.2-1,0.7-1.4
			s1.1-0.6,1.9-0.6c0.5,0,1,0.1,1.4,0.2s0.8,0.3,1,0.5L504,40.2z"/>
	</g>
	<g class="st7">
		<path class="st8" d="M47.6,21.9v2.3h-1.3l-0.1-1h-1.6v6l0.9,0.2v1H42v-1l0.9-0.2v-6h-1.6l-0.1,1H40v-2.3H47.6z"/>
	</g>
	<g class="st7">
		<path class="st8" d="M47.9,29.4l0.8-0.2v-3.9l-0.9-0.2v-1h2.5l0.1,0.9c0.1-0.3,0.3-0.6,0.6-0.8s0.5-0.3,0.8-0.3c0.1,0,0.2,0,0.3,0
			s0.2,0,0.2,0l-0.2,1.6l-0.7,0c-0.3,0-0.5,0-0.6,0.1s-0.3,0.2-0.4,0.4v3.1l0.8,0.2v1h-3.4V29.4z"/>
		<path class="st8" d="M57.3,29.6c-0.2,0.3-0.5,0.5-0.8,0.7s-0.6,0.2-1,0.2c-0.7,0-1.2-0.2-1.6-0.6s-0.6-1.1-0.6-2v-2.6l-0.7-0.2v-1
			h0.7h1.7v3.8c0,0.5,0.1,0.8,0.2,1s0.4,0.3,0.7,0.3c0.3,0,0.5,0,0.7-0.1s0.4-0.2,0.5-0.4v-3.4l-0.8-0.2v-1h0.8h1.7v5.1l0.8,0.2v1
			h-2.3L57.3,29.6z"/>
		<path class="st8" d="M65.5,26.3h-1.1l-0.2-0.8c-0.1-0.1-0.3-0.2-0.4-0.2s-0.4-0.1-0.6-0.1c-0.3,0-0.5,0.1-0.7,0.2
			s-0.3,0.3-0.3,0.5c0,0.2,0.1,0.4,0.3,0.5s0.5,0.2,1,0.3c0.8,0.2,1.4,0.4,1.7,0.7s0.6,0.7,0.6,1.3c0,0.6-0.2,1-0.7,1.4
			s-1.1,0.5-1.9,0.5c-0.5,0-0.9-0.1-1.3-0.2S61,30,60.7,29.7l0-1.4h1.2l0.2,0.8c0.1,0.1,0.2,0.1,0.4,0.2s0.4,0.1,0.6,0.1
			c0.3,0,0.6-0.1,0.8-0.2s0.3-0.3,0.3-0.5c0-0.2-0.1-0.3-0.3-0.5s-0.5-0.3-1-0.4c-0.7-0.2-1.3-0.4-1.7-0.7s-0.6-0.7-0.6-1.2
			c0-0.5,0.2-1,0.7-1.4s1.1-0.6,1.9-0.6c0.5,0,1,0.1,1.4,0.2s0.8,0.3,1,0.5L65.5,26.3z"/>
		<path class="st8" d="M69.1,22.6v1.6h1.1v1.2h-1.1v3.2c0,0.2,0.1,0.4,0.2,0.5s0.2,0.2,0.4,0.2c0.1,0,0.2,0,0.3,0s0.2,0,0.3,0
			l0.1,1.2c-0.2,0.1-0.4,0.1-0.6,0.1s-0.4,0-0.6,0c-0.6,0-1-0.2-1.4-0.5s-0.5-0.8-0.5-1.5v-3.2h-0.9v-1.2h0.9v-1.6H69.1z"/>
		<path class="st8" d="M74,30.6c-0.9,0-1.6-0.3-2.2-0.9S71,28.4,71,27.5v-0.2c0-0.9,0.3-1.7,0.8-2.3S73,24,73.9,24
			c0.9,0,1.5,0.3,2,0.8s0.7,1.2,0.7,2.1v0.9h-3.8l0,0c0,0.4,0.2,0.8,0.4,1s0.6,0.4,1,0.4c0.4,0,0.7,0,0.9-0.1s0.5-0.2,0.8-0.4
			l0.5,1.1c-0.3,0.2-0.6,0.4-1,0.5S74.6,30.6,74,30.6z M73.9,25.3c-0.3,0-0.6,0.1-0.8,0.4s-0.3,0.6-0.3,1l0,0h2.1v-0.2
			c0-0.4-0.1-0.7-0.3-0.9S74.2,25.3,73.9,25.3z"/>
		<path class="st8" d="M81.5,29.7c-0.2,0.3-0.4,0.5-0.7,0.7s-0.6,0.2-0.9,0.2c-0.8,0-1.4-0.3-1.8-0.9s-0.6-1.3-0.6-2.3v-0.1
			c0-1,0.2-1.8,0.7-2.4s1-0.9,1.8-0.9c0.3,0,0.6,0.1,0.9,0.2s0.5,0.3,0.7,0.6v-2.3l-0.9-0.2v-1h0.9h1.7v7.9l0.8,0.2v1h-2.3
			L81.5,29.7z M79.1,27.5c0,0.6,0.1,1,0.3,1.3s0.5,0.5,0.9,0.5c0.3,0,0.5-0.1,0.7-0.2s0.3-0.2,0.5-0.4V26c-0.1-0.2-0.3-0.4-0.4-0.5
			s-0.4-0.2-0.6-0.2c-0.4,0-0.7,0.2-0.9,0.6s-0.3,0.9-0.3,1.5V27.5z"/>
	</g>
	<g class="st7">
		<path class="st8" d="M43.1,43.7c0.3,0,0.5-0.1,0.7-0.3s0.3-0.4,0.3-0.7h1.5l0,0c0,0.6-0.2,1.2-0.7,1.6S43.8,45,43.1,45
			c-0.9,0-1.7-0.3-2.2-0.9s-0.8-1.4-0.8-2.3v-0.2c0-0.9,0.3-1.7,0.8-2.3s1.3-0.9,2.2-0.9c0.5,0,1,0.1,1.4,0.2s0.7,0.4,1,0.6l0,1.7
			h-1.4l-0.3-1c-0.1-0.1-0.2-0.1-0.3-0.2s-0.3-0.1-0.4-0.1c-0.5,0-0.8,0.2-1,0.5s-0.3,0.8-0.3,1.4v0.2c0,0.6,0.1,1,0.3,1.4
			S42.6,43.7,43.1,43.7z"/>
		<path class="st8" d="M46.3,36.7v-1h2.6v7.9l0.8,0.2v1h-3.4v-1l0.8-0.2v-6.7L46.3,36.7z"/>
		<path class="st8" d="M50.2,43.8l0.8-0.2v-3.9l-0.9-0.2v-1h2.6v5.1l0.8,0.2v1h-3.4V43.8z M52.8,37h-1.7v-1.3h1.7V37z"/>
		<path class="st8" d="M57.2,45c-0.9,0-1.6-0.3-2.2-0.9s-0.8-1.3-0.8-2.2v-0.2c0-0.9,0.3-1.7,0.8-2.3s1.2-0.9,2.1-0.9
			c0.9,0,1.5,0.3,2,0.8s0.7,1.2,0.7,2.1v0.9h-3.8l0,0c0,0.4,0.2,0.8,0.4,1s0.6,0.4,1,0.4c0.4,0,0.7,0,0.9-0.1s0.5-0.2,0.8-0.4
			l0.5,1.1c-0.3,0.2-0.6,0.4-1,0.5S57.7,45,57.2,45z M57,39.7c-0.3,0-0.6,0.1-0.8,0.4s-0.3,0.6-0.3,1l0,0h2.1v-0.2
			c0-0.4-0.1-0.7-0.3-0.9S57.4,39.7,57,39.7z"/>
		<path class="st8" d="M60.4,43.8l0.8-0.2v-3.9l-0.9-0.2v-1h2.5l0.1,0.9c0.2-0.3,0.5-0.6,0.8-0.8s0.7-0.3,1-0.3
			c0.6,0,1.1,0.2,1.5,0.6s0.5,1,0.5,1.9v2.8l0.8,0.2v1h-3.3v-1l0.7-0.2v-2.8c0-0.4-0.1-0.7-0.3-0.9s-0.4-0.3-0.8-0.3
			c-0.2,0-0.4,0-0.6,0.1s-0.3,0.2-0.5,0.4v3.4l0.7,0.2v1h-3.2V43.8z"/>
		<path class="st8" d="M70.7,37v1.6h1.1v1.2h-1.1v3.2c0,0.2,0.1,0.4,0.2,0.5s0.2,0.2,0.4,0.2c0.1,0,0.2,0,0.3,0s0.2,0,0.3,0l0.1,1.2
			c-0.2,0.1-0.4,0.1-0.6,0.1s-0.4,0-0.6,0c-0.6,0-1-0.2-1.4-0.5S69,43.6,69,42.9v-3.2H68v-1.2H69V37H70.7z"/>
		<path class="st8" d="M78.5,43.7c0.3,0,0.5-0.1,0.7-0.3s0.3-0.4,0.3-0.7h1.5l0,0c0,0.6-0.2,1.2-0.7,1.6S79.3,45,78.5,45
			c-0.9,0-1.7-0.3-2.2-0.9s-0.8-1.4-0.8-2.3v-0.2c0-0.9,0.3-1.7,0.8-2.3s1.3-0.9,2.2-0.9c0.5,0,1,0.1,1.4,0.2s0.7,0.4,1,0.6l0,1.7
			h-1.4l-0.3-1c-0.1-0.1-0.2-0.1-0.3-0.2s-0.3-0.1-0.4-0.1c-0.5,0-0.8,0.2-1,0.5s-0.3,0.8-0.3,1.4v0.2c0,0.6,0.1,1,0.3,1.4
			S78.1,43.7,78.5,43.7z"/>
		<path class="st8" d="M81.9,41.6c0-0.9,0.3-1.7,0.8-2.3s1.3-0.9,2.2-0.9c0.9,0,1.7,0.3,2.2,0.9s0.8,1.4,0.8,2.3v0.1
			c0,1-0.3,1.7-0.8,2.3S85.8,45,84.9,45c-0.9,0-1.7-0.3-2.2-0.9s-0.8-1.4-0.8-2.3V41.6z M83.6,41.7c0,0.6,0.1,1,0.3,1.4
			s0.5,0.5,1,0.5c0.4,0,0.8-0.2,1-0.5s0.3-0.8,0.3-1.4v-0.1c0-0.6-0.1-1-0.3-1.4s-0.5-0.5-1-0.5s-0.8,0.2-1,0.5s-0.3,0.8-0.3,1.4
			V41.7z"/>
		<path class="st8" d="M88.4,39.5v-1h2.5l0.1,0.8c0.2-0.3,0.5-0.5,0.8-0.7s0.7-0.2,1.1-0.2c0.4,0,0.8,0.1,1,0.3s0.5,0.5,0.7,0.8
			c0.2-0.3,0.4-0.6,0.8-0.8s0.7-0.3,1.1-0.3c0.6,0,1.1,0.2,1.5,0.6s0.5,1.1,0.5,2v2.6l0.8,0.2v1H96v-1l0.7-0.2V41
			c0-0.5-0.1-0.8-0.2-1s-0.4-0.3-0.7-0.3c-0.2,0-0.5,0.1-0.6,0.2s-0.3,0.3-0.4,0.4c0,0.1,0,0.1,0,0.2s0,0.1,0,0.2v3l0.7,0.2v1h-3.1
			v-1l0.7-0.2V41c0-0.5-0.1-0.8-0.2-1s-0.4-0.3-0.7-0.3c-0.2,0-0.4,0-0.6,0.1s-0.3,0.2-0.4,0.4v3.4l0.7,0.2v1h-3.3v-1l0.8-0.2v-3.9
			L88.4,39.5z"/>
		<path class="st8" d="M99.7,39.5v-1h2.5l0.1,0.7c0.2-0.3,0.4-0.5,0.7-0.6s0.6-0.2,0.9-0.2c0.8,0,1.4,0.3,1.8,0.9s0.7,1.4,0.7,2.4
			v0.1c0,0.9-0.2,1.7-0.7,2.3s-1,0.9-1.8,0.9c-0.3,0-0.6-0.1-0.9-0.2s-0.5-0.3-0.7-0.5v1.8l0.8,0.2v1h-3.4v-1l0.8-0.2v-6.4
			L99.7,39.5z M104.6,41.7c0-0.6-0.1-1.1-0.3-1.5s-0.5-0.6-0.9-0.6c-0.3,0-0.5,0.1-0.7,0.2s-0.3,0.3-0.4,0.5v2.8
			c0.1,0.2,0.2,0.3,0.4,0.4s0.4,0.1,0.7,0.1c0.4,0,0.7-0.2,0.9-0.5s0.3-0.8,0.3-1.3V41.7z"/>
		<path class="st8" d="M111.5,44c-0.2,0.3-0.5,0.5-0.8,0.7s-0.6,0.2-1,0.2c-0.7,0-1.2-0.2-1.6-0.6s-0.6-1.1-0.6-2v-2.6l-0.7-0.2v-1
			h0.7h1.7v3.8c0,0.5,0.1,0.8,0.2,1s0.4,0.3,0.7,0.3c0.3,0,0.5,0,0.7-0.1s0.4-0.2,0.5-0.4v-3.4l-0.8-0.2v-1h0.8h1.7v5.1l0.8,0.2v1
			h-2.3L111.5,44z"/>
		<path class="st8" d="M117.1,37v1.6h1.1v1.2h-1.1v3.2c0,0.2,0.1,0.4,0.2,0.5s0.2,0.2,0.4,0.2c0.1,0,0.2,0,0.3,0s0.2,0,0.3,0
			l0.1,1.2c-0.2,0.1-0.4,0.1-0.6,0.1s-0.4,0-0.6,0c-0.6,0-1-0.2-1.4-0.5s-0.5-0.8-0.5-1.5v-3.2h-0.9v-1.2h0.9V37H117.1z"/>
		<path class="st8" d="M122,45c-0.9,0-1.6-0.3-2.2-0.9s-0.8-1.3-0.8-2.2v-0.2c0-0.9,0.3-1.7,0.8-2.3s1.2-0.9,2.1-0.9
			c0.9,0,1.5,0.3,2,0.8s0.7,1.2,0.7,2.1v0.9h-3.8l0,0c0,0.4,0.2,0.8,0.4,1s0.6,0.4,1,0.4c0.4,0,0.7,0,0.9-0.1s0.5-0.2,0.8-0.4
			l0.5,1.1c-0.3,0.2-0.6,0.4-1,0.5S122.6,45,122,45z M121.9,39.7c-0.3,0-0.6,0.1-0.8,0.4s-0.3,0.6-0.3,1l0,0h2.1v-0.2
			c0-0.4-0.1-0.7-0.3-0.9S122.2,39.7,121.9,39.7z"/>
		<path class="st8" d="M125.5,43.8l0.8-0.2v-3.9l-0.9-0.2v-1h2.5l0.1,0.9c0.1-0.3,0.3-0.6,0.6-0.8s0.5-0.3,0.8-0.3
			c0.1,0,0.2,0,0.3,0s0.2,0,0.2,0l-0.2,1.6l-0.7,0c-0.3,0-0.5,0-0.6,0.1s-0.3,0.2-0.4,0.4v3.1l0.8,0.2v1h-3.4V43.8z"/>
	</g>
	<path class="st19" d="M75.3,252.7h140.5c0.6,0,1,0.4,1,1v10.8c0,0.6-0.4,1-1,1H75.3c-0.6,0-1-0.4-1-1v-10.8
		C74.3,253.2,74.8,252.7,75.3,252.7z"/>
</g>
<g id="Ebene_4">
	<g class="st7">
		<path d="M85.1,258.6c0-0.1,0-0.1,0-0.1c0,0,0.1,0,0.1,0c0,0,0.1,0,0.1,0c0,0,0,0.1,0,0.2v0.5c0,0.1,0,0.1,0,0.1s-0.1,0-0.1,0
			c0,0-0.1,0-0.1,0c0,0,0-0.1,0-0.1c0-0.1-0.1-0.3-0.2-0.3c-0.2-0.1-0.4-0.2-0.7-0.2c-0.3,0-0.6,0.1-0.7,0.2
			c-0.1,0.1-0.2,0.2-0.2,0.3c0,0.1,0.1,0.3,0.2,0.3c0.1,0.1,0.3,0.1,0.6,0.1c0.4,0,0.7,0.1,0.8,0.1c0.2,0.1,0.4,0.2,0.5,0.3
			c0.1,0.1,0.2,0.3,0.2,0.5c0,0.2-0.1,0.5-0.4,0.7s-0.6,0.3-1,0.3s-0.8-0.1-1.1-0.3c0,0.1,0,0.1,0,0.2s0,0,0,0.1c0,0-0.1,0-0.1,0
			c0,0-0.1,0-0.1,0c0,0,0-0.1,0-0.1v-0.6c0-0.1,0-0.1,0-0.1c0,0,0.1,0,0.1,0c0,0,0.1,0,0.1,0c0,0,0,0.1,0,0.1c0,0.1,0,0.2,0.1,0.3
			c0.1,0.1,0.2,0.2,0.4,0.3c0.2,0.1,0.4,0.1,0.6,0.1c0.4,0,0.7-0.1,0.8-0.2s0.3-0.3,0.3-0.4c0-0.2-0.1-0.3-0.3-0.4
			c-0.2-0.1-0.5-0.2-0.8-0.2c-0.4,0-0.6-0.1-0.8-0.1c-0.2-0.1-0.3-0.1-0.4-0.3c-0.1-0.1-0.1-0.2-0.1-0.4c0-0.2,0.1-0.4,0.4-0.6
			s0.5-0.2,0.9-0.2C84.5,258.3,84.9,258.4,85.1,258.6z"/>
		<path d="M89.6,258.7L89.6,258.7c0-0.2,0-0.2,0-0.2c0,0,0.1,0,0.1,0c0,0,0.1,0,0.1,0c0,0,0,0.1,0,0.2v0.7c0,0.1,0,0.1,0,0.2
			c0,0-0.1,0-0.1,0c0,0-0.1,0-0.1,0c0,0,0-0.1,0-0.1c0-0.2-0.1-0.3-0.3-0.5c-0.2-0.1-0.5-0.2-0.8-0.2c-0.4,0-0.7,0.1-1,0.4
			s-0.3,0.6-0.3,0.9c0,0.4,0.1,0.7,0.4,0.9c0.2,0.2,0.6,0.4,0.9,0.4c0.2,0,0.5,0,0.7-0.1c0.2-0.1,0.4-0.2,0.6-0.4
			c0,0,0.1-0.1,0.1-0.1c0,0,0.1,0,0.1,0c0,0,0,0.1,0,0.1c0,0.1-0.1,0.2-0.3,0.4c-0.4,0.2-0.8,0.4-1.2,0.4c-0.5,0-0.8-0.1-1.1-0.4
			c-0.3-0.3-0.4-0.7-0.4-1.1c0-0.5,0.2-0.8,0.5-1.2c0.3-0.3,0.7-0.5,1.1-0.5C88.9,258.3,89.3,258.4,89.6,258.7z"/>
		<path d="M94.2,259.9c0,0.4-0.2,0.8-0.5,1.1c-0.3,0.3-0.7,0.5-1.1,0.5c-0.4,0-0.8-0.2-1.1-0.5c-0.3-0.3-0.5-0.7-0.5-1.1
			c0-0.4,0.2-0.8,0.5-1.1c0.3-0.3,0.7-0.5,1.1-0.5c0.4,0,0.8,0.2,1.1,0.5C94,259.1,94.2,259.4,94.2,259.9z M93.9,259.9
			c0-0.4-0.1-0.7-0.4-0.9c-0.3-0.3-0.6-0.4-0.9-0.4s-0.7,0.1-0.9,0.4c-0.3,0.3-0.4,0.6-0.4,0.9c0,0.4,0.1,0.7,0.4,0.9
			c0.3,0.3,0.6,0.4,0.9,0.4s0.7-0.1,0.9-0.4C93.8,260.6,93.9,260.2,93.9,259.9z"/>
		<path d="M95.8,258.4v0.4c0.2-0.2,0.4-0.3,0.5-0.4s0.3-0.1,0.5-0.1c0.2,0,0.4,0,0.6,0.1c0.1,0.1,0.2,0.2,0.3,0.3
			c0.1,0.2,0.2,0.3,0.2,0.5v1.8h0.2c0.1,0,0.1,0,0.1,0s0,0.1,0,0.1c0,0,0,0.1,0,0.1s-0.1,0-0.1,0h-0.8c-0.1,0-0.1,0-0.2,0
			s0-0.1,0-0.1c0,0,0-0.1,0-0.1s0.1,0,0.2,0h0.2v-1.8c0-0.2-0.1-0.4-0.2-0.5c-0.1-0.1-0.3-0.2-0.6-0.2c-0.2,0-0.4,0-0.5,0.1
			s-0.3,0.3-0.6,0.6v1.8h0.3c0.1,0,0.1,0,0.1,0s0,0.1,0,0.1c0,0,0,0.1,0,0.1s-0.1,0-0.1,0h-0.9c-0.1,0-0.1,0-0.1,0s0-0.1,0-0.1
			c0,0,0-0.1,0-0.1s0.1,0,0.1,0h0.3v-2.4h-0.2c-0.1,0-0.1,0-0.1,0s0-0.1,0-0.1c0,0,0-0.1,0-0.1s0.1,0,0.1,0H95.8z"/>
		<path d="M102.5,259.9h-2.9c0.1,0.4,0.2,0.7,0.5,0.9c0.3,0.2,0.6,0.3,1,0.3c0.2,0,0.4,0,0.7-0.1s0.4-0.2,0.6-0.3
			c0,0,0.1-0.1,0.1-0.1c0,0,0.1,0,0.1,0s0,0.1,0,0.1c0,0,0,0.1-0.1,0.1c-0.1,0.1-0.3,0.2-0.6,0.3c-0.3,0.1-0.6,0.1-0.9,0.1
			c-0.5,0-0.9-0.2-1.2-0.5c-0.3-0.3-0.5-0.7-0.5-1.2c0-0.4,0.2-0.8,0.5-1.1c0.3-0.3,0.7-0.4,1.1-0.4c0.5,0,0.9,0.2,1.2,0.5
			S102.5,259.5,102.5,259.9z M102.2,259.7c-0.1-0.3-0.2-0.6-0.4-0.8c-0.2-0.2-0.5-0.3-0.9-0.3s-0.6,0.1-0.9,0.3
			c-0.2,0.2-0.4,0.5-0.5,0.8H102.2z"/>
		<path d="M106.4,258.7L106.4,258.7c0-0.2,0-0.2,0-0.2c0,0,0.1,0,0.1,0c0,0,0.1,0,0.1,0c0,0,0,0.1,0,0.2v0.7c0,0.1,0,0.1,0,0.2
			c0,0-0.1,0-0.1,0c0,0-0.1,0-0.1,0c0,0,0-0.1,0-0.1c0-0.2-0.1-0.3-0.3-0.5c-0.2-0.1-0.5-0.2-0.8-0.2c-0.4,0-0.7,0.1-1,0.4
			s-0.3,0.6-0.3,0.9c0,0.4,0.1,0.7,0.4,0.9c0.2,0.2,0.6,0.4,0.9,0.4c0.2,0,0.5,0,0.7-0.1c0.2-0.1,0.4-0.2,0.6-0.4
			c0,0,0.1-0.1,0.1-0.1c0,0,0.1,0,0.1,0c0,0,0,0.1,0,0.1c0,0.1-0.1,0.2-0.3,0.4c-0.4,0.2-0.8,0.4-1.2,0.4c-0.5,0-0.8-0.1-1.1-0.4
			c-0.3-0.3-0.4-0.7-0.4-1.1c0-0.5,0.2-0.8,0.5-1.2c0.3-0.3,0.7-0.5,1.1-0.5C105.7,258.3,106.1,258.4,106.4,258.7z"/>
		<path d="M110.4,261.4v-0.4c-0.4,0.4-0.8,0.5-1.3,0.5c-0.3,0-0.5-0.1-0.6-0.2c-0.2-0.2-0.3-0.4-0.3-0.7v-1.9h-0.4
			c-0.1,0-0.1,0-0.1,0s0-0.1,0-0.1c0,0,0-0.1,0-0.1s0.1,0,0.1,0h0.7v2.1c0,0.2,0.1,0.3,0.2,0.5s0.3,0.2,0.4,0.2
			c0.5,0,0.9-0.2,1.3-0.6v-1.9h-0.5c-0.1,0-0.1,0-0.1,0s0-0.1,0-0.1c0,0,0-0.1,0-0.1s0.1,0,0.1,0h0.8v2.7h0.2c0.1,0,0.1,0,0.1,0
			s0,0.1,0,0.1c0,0,0,0.1,0,0.1s-0.1,0-0.1,0H110.4z"/>
		<path d="M113.2,258.4v0.7c0.4-0.3,0.7-0.6,0.8-0.7c0.2-0.1,0.4-0.1,0.5-0.1c0.2,0,0.3,0.1,0.5,0.2c0.1,0.1,0.2,0.2,0.2,0.3
			c0,0,0,0.1,0,0.1c0,0-0.1,0-0.1,0c0,0,0,0-0.1,0s0,0-0.1-0.1c-0.1-0.1-0.1-0.1-0.2-0.2s-0.1,0-0.2,0c-0.1,0-0.3,0-0.5,0.2
			c-0.2,0.1-0.5,0.3-0.9,0.7v1.6h1.3c0.1,0,0.1,0,0.2,0s0,0.1,0,0.1c0,0,0,0.1,0,0.1s-0.1,0-0.2,0h-2.3c-0.1,0-0.1,0-0.1,0
			s0-0.1,0-0.1c0,0,0-0.1,0-0.1c0,0,0.1,0,0.1,0h0.7v-2.4h-0.5c-0.1,0-0.1,0-0.1,0s0-0.1,0-0.1c0,0,0-0.1,0-0.1c0,0,0.1,0,0.1,0
			H113.2z"/>
		<path d="M118.6,261.4v-0.4c-0.4,0.4-0.9,0.5-1.3,0.5c-0.3,0-0.6-0.1-0.8-0.3c-0.2-0.2-0.3-0.4-0.3-0.6c0-0.3,0.1-0.5,0.4-0.7
			s0.6-0.3,1.1-0.3c0.1,0,0.3,0,0.4,0c0.2,0,0.3,0,0.5,0.1v-0.5c0-0.2-0.1-0.3-0.2-0.4s-0.4-0.2-0.7-0.2c-0.2,0-0.5,0.1-0.9,0.2
			c-0.1,0-0.1,0-0.1,0c0,0-0.1,0-0.1,0c0,0,0-0.1,0-0.1c0,0,0-0.1,0-0.1c0,0,0.2-0.1,0.4-0.1c0.4-0.1,0.6-0.1,0.8-0.1
			c0.4,0,0.6,0.1,0.8,0.3s0.3,0.4,0.3,0.6v1.9h0.4c0.1,0,0.1,0,0.2,0s0,0.1,0,0.1c0,0,0,0.1,0,0.1s-0.1,0-0.2,0H118.6z M118.6,259.9
			c-0.1,0-0.3-0.1-0.4-0.1c-0.2,0-0.3,0-0.5,0c-0.4,0-0.7,0.1-1,0.3c-0.2,0.1-0.3,0.3-0.3,0.5c0,0.2,0.1,0.3,0.2,0.4
			c0.1,0.1,0.3,0.2,0.6,0.2c0.2,0,0.5,0,0.7-0.1c0.2-0.1,0.4-0.3,0.7-0.5V259.9z"/>
		<path d="M121.4,258.4h1.6c0.1,0,0.1,0,0.1,0s0,0.1,0,0.1c0,0,0,0.1,0,0.1s-0.1,0-0.1,0h-1.6v1.9c0,0.2,0.1,0.3,0.2,0.4
			c0.1,0.1,0.3,0.2,0.6,0.2c0.2,0,0.4,0,0.6-0.1c0.2-0.1,0.4-0.1,0.5-0.2c0,0,0.1,0,0.1,0c0,0,0.1,0,0.1,0s0,0.1,0,0.1
			c0,0,0,0.1,0,0.1c-0.1,0.1-0.3,0.2-0.5,0.2c-0.3,0.1-0.6,0.1-0.8,0.1c-0.3,0-0.6-0.1-0.8-0.2s-0.3-0.4-0.3-0.6v-1.9h-0.5
			c-0.1,0-0.1,0-0.1,0s0-0.1,0-0.1c0,0,0-0.1,0-0.1s0.1,0,0.1,0h0.5v-0.8c0-0.1,0-0.1,0-0.1c0,0,0.1,0,0.1,0c0,0,0.1,0,0.1,0
			c0,0,0,0.1,0,0.1V258.4z"/>
		<path d="M127.7,259.9h-2.9c0.1,0.4,0.2,0.7,0.5,0.9c0.3,0.2,0.6,0.3,1,0.3c0.2,0,0.4,0,0.7-0.1s0.4-0.2,0.6-0.3
			c0,0,0.1-0.1,0.1-0.1c0,0,0.1,0,0.1,0s0,0.1,0,0.1c0,0,0,0.1-0.1,0.1c-0.1,0.1-0.3,0.2-0.6,0.3c-0.3,0.1-0.6,0.1-0.9,0.1
			c-0.5,0-0.9-0.2-1.2-0.5c-0.3-0.3-0.5-0.7-0.5-1.2c0-0.4,0.2-0.8,0.5-1.1c0.3-0.3,0.7-0.4,1.1-0.4c0.5,0,0.9,0.2,1.2,0.5
			S127.7,259.5,127.7,259.9z M127.4,259.7c-0.1-0.3-0.2-0.6-0.4-0.8c-0.2-0.2-0.5-0.3-0.9-0.3s-0.6,0.1-0.9,0.3
			c-0.2,0.2-0.4,0.5-0.5,0.8H127.4z"/>
		<path d="M131.8,257.1v4h0.4c0.1,0,0.1,0,0.2,0s0,0.1,0,0.1c0,0,0,0.1,0,0.1s-0.1,0-0.2,0h-0.7v-0.6c-0.3,0.5-0.8,0.7-1.3,0.7
			c-0.3,0-0.5-0.1-0.7-0.2c-0.2-0.1-0.4-0.3-0.6-0.6c-0.1-0.3-0.2-0.5-0.2-0.8c0-0.3,0.1-0.5,0.2-0.8c0.1-0.3,0.3-0.5,0.6-0.6
			c0.2-0.1,0.5-0.2,0.8-0.2c0.5,0,0.9,0.2,1.3,0.7v-1.6h-0.4c-0.1,0-0.1,0-0.2,0s0-0.1,0-0.1c0,0,0-0.1,0-0.1s0.1,0,0.2,0H131.8z
			 M131.5,259.9c0-0.4-0.1-0.7-0.4-0.9c-0.2-0.3-0.5-0.4-0.9-0.4c-0.3,0-0.6,0.1-0.9,0.4c-0.2,0.3-0.4,0.6-0.4,0.9
			c0,0.4,0.1,0.7,0.4,0.9s0.5,0.4,0.9,0.4c0.3,0,0.6-0.1,0.9-0.4S131.5,260.2,131.5,259.9z"/>
		<path d="M134.7,258.4v2.7h1.1c0.1,0,0.1,0,0.2,0s0,0.1,0,0.1c0,0,0,0.1,0,0.1s-0.1,0-0.2,0h-2.5c-0.1,0-0.1,0-0.1,0s0-0.1,0-0.1
			c0,0,0-0.1,0-0.1s0.1,0,0.1,0h1.1v-2.4h-0.8c-0.1,0-0.1,0-0.1,0c0,0,0-0.1,0-0.1c0,0,0-0.1,0-0.1s0.1,0,0.2,0H134.7z M134.7,256.9
			v0.7h-0.4v-0.7H134.7z"/>
		<path d="M137.5,258.4v0.3c0.2-0.3,0.5-0.4,0.7-0.4c0.1,0,0.3,0,0.4,0.1c0.1,0.1,0.2,0.2,0.3,0.4c0.1-0.2,0.3-0.3,0.4-0.4
			c0.1-0.1,0.3-0.1,0.4-0.1c0.2,0,0.4,0.1,0.5,0.2c0.2,0.2,0.2,0.4,0.2,0.6v2h0.2c0.1,0,0.1,0,0.1,0s0,0.1,0,0.1c0,0,0,0.1,0,0.1
			s-0.1,0-0.1,0h-0.5v-2.3c0-0.1,0-0.3-0.1-0.4s-0.2-0.1-0.3-0.1c-0.1,0-0.2,0-0.3,0.1c-0.1,0.1-0.2,0.2-0.4,0.5v1.9h0.2
			c0.1,0,0.1,0,0.1,0s0,0.1,0,0.1c0,0,0,0.1,0,0.1s-0.1,0-0.1,0h-0.5v-2.2c0-0.2,0-0.3-0.1-0.4c-0.1-0.1-0.2-0.1-0.3-0.1
			c-0.1,0-0.2,0-0.3,0.1c-0.1,0.1-0.3,0.3-0.4,0.5v1.9h0.2c0.1,0,0.1,0,0.1,0s0,0.1,0,0.1c0,0,0,0.1,0,0.1s-0.1,0-0.1,0h-0.8
			c-0.1,0-0.1,0-0.1,0s0-0.1,0-0.1c0,0,0-0.1,0-0.1s0.1,0,0.1,0h0.2v-2.4h-0.2c-0.1,0-0.1,0-0.1,0s0-0.1,0-0.1c0,0,0-0.1,0-0.1
			s0.1,0,0.1,0H137.5z"/>
		<path d="M143.8,261.4v-0.4c-0.4,0.4-0.9,0.5-1.3,0.5c-0.3,0-0.6-0.1-0.8-0.3c-0.2-0.2-0.3-0.4-0.3-0.6c0-0.3,0.1-0.5,0.4-0.7
			s0.6-0.3,1.1-0.3c0.1,0,0.3,0,0.4,0c0.2,0,0.3,0,0.5,0.1v-0.5c0-0.2-0.1-0.3-0.2-0.4s-0.4-0.2-0.7-0.2c-0.2,0-0.5,0.1-0.9,0.2
			c-0.1,0-0.1,0-0.1,0c0,0-0.1,0-0.1,0c0,0,0-0.1,0-0.1c0,0,0-0.1,0-0.1c0,0,0.2-0.1,0.4-0.1c0.4-0.1,0.6-0.1,0.8-0.1
			c0.4,0,0.6,0.1,0.8,0.3s0.3,0.4,0.3,0.6v1.9h0.4c0.1,0,0.1,0,0.2,0s0,0.1,0,0.1c0,0,0,0.1,0,0.1s-0.1,0-0.2,0H143.8z M143.8,259.9
			c-0.1,0-0.3-0.1-0.4-0.1c-0.2,0-0.3,0-0.5,0c-0.4,0-0.7,0.1-1,0.3c-0.2,0.1-0.3,0.3-0.3,0.5c0,0.2,0.1,0.3,0.2,0.4
			c0.1,0.1,0.3,0.2,0.6,0.2c0.2,0,0.5,0,0.7-0.1c0.2-0.1,0.4-0.3,0.7-0.5V259.9z"/>
		<path d="M148.1,258.9v-0.5h0.7c0.1,0,0.1,0,0.1,0s0,0.1,0,0.1c0,0,0,0.1,0,0.1s-0.1,0-0.1,0h-0.4v2.9c0,0.2,0,0.4-0.1,0.5
			c-0.1,0.1-0.1,0.2-0.3,0.3c-0.1,0.1-0.2,0.2-0.3,0.2s-0.2,0.1-0.4,0.1h-0.8c-0.1,0-0.1,0-0.1,0s0-0.1,0-0.1s0-0.1,0-0.1
			s0.1,0,0.1,0l0.8,0c0.2,0,0.3,0,0.5-0.1c0.1-0.1,0.2-0.2,0.3-0.4c0.1-0.1,0.1-0.2,0.1-0.4v-0.9c-0.3,0.4-0.7,0.6-1.2,0.6
			c-0.4,0-0.7-0.1-1-0.4c-0.3-0.3-0.4-0.6-0.4-1.1c0-0.4,0.1-0.8,0.4-1.1c0.3-0.3,0.6-0.4,1-0.4
			C147.4,258.3,147.8,258.5,148.1,258.9z M148.1,259.8c0-0.3-0.1-0.6-0.3-0.9c-0.2-0.2-0.5-0.3-0.8-0.3s-0.6,0.1-0.8,0.3
			s-0.3,0.5-0.3,0.9c0,0.3,0.1,0.6,0.3,0.9s0.5,0.4,0.8,0.4s0.6-0.1,0.8-0.4C148,260.4,148.1,260.1,148.1,259.8z"/>
		<path d="M152.9,259.9H150c0.1,0.4,0.2,0.7,0.5,0.9c0.3,0.2,0.6,0.3,1,0.3c0.2,0,0.4,0,0.7-0.1s0.4-0.2,0.6-0.3
			c0,0,0.1-0.1,0.1-0.1c0,0,0.1,0,0.1,0s0,0.1,0,0.1c0,0,0,0.1-0.1,0.1c-0.1,0.1-0.3,0.2-0.6,0.3c-0.3,0.1-0.6,0.1-0.9,0.1
			c-0.5,0-0.9-0.2-1.2-0.5c-0.3-0.3-0.5-0.7-0.5-1.2c0-0.4,0.2-0.8,0.5-1.1c0.3-0.3,0.7-0.4,1.1-0.4c0.5,0,0.9,0.2,1.2,0.5
			S152.9,259.5,152.9,259.9z M152.6,259.7c-0.1-0.3-0.2-0.6-0.4-0.8c-0.2-0.2-0.5-0.3-0.9-0.3s-0.6,0.1-0.9,0.3
			c-0.2,0.2-0.4,0.5-0.5,0.8H152.6z"/>
		<path d="M156.5,258.6c0-0.1,0-0.1,0-0.1c0,0,0.1,0,0.1,0c0,0,0.1,0,0.1,0c0,0,0,0.1,0,0.2v0.5c0,0.1,0,0.1,0,0.1s-0.1,0-0.1,0
			c0,0-0.1,0-0.1,0c0,0,0-0.1,0-0.1c0-0.1-0.1-0.3-0.2-0.3c-0.2-0.1-0.4-0.2-0.7-0.2c-0.3,0-0.6,0.1-0.7,0.2
			c-0.1,0.1-0.2,0.2-0.2,0.3c0,0.1,0.1,0.3,0.2,0.3c0.1,0.1,0.3,0.1,0.6,0.1c0.4,0,0.7,0.1,0.8,0.1c0.2,0.1,0.4,0.2,0.5,0.3
			c0.1,0.1,0.2,0.3,0.2,0.5c0,0.2-0.1,0.5-0.4,0.7s-0.6,0.3-1,0.3s-0.8-0.1-1.1-0.3c0,0.1,0,0.1,0,0.2s0,0,0,0.1c0,0-0.1,0-0.1,0
			c0,0-0.1,0-0.1,0c0,0,0-0.1,0-0.1v-0.6c0-0.1,0-0.1,0-0.1c0,0,0.1,0,0.1,0c0,0,0.1,0,0.1,0c0,0,0,0.1,0,0.1c0,0.1,0,0.2,0.1,0.3
			c0.1,0.1,0.2,0.2,0.4,0.3c0.2,0.1,0.4,0.1,0.6,0.1c0.4,0,0.7-0.1,0.8-0.2s0.3-0.3,0.3-0.4c0-0.2-0.1-0.3-0.3-0.4
			c-0.2-0.1-0.5-0.2-0.8-0.2c-0.4,0-0.6-0.1-0.8-0.1c-0.2-0.1-0.3-0.1-0.4-0.3c-0.1-0.1-0.1-0.2-0.1-0.4c0-0.2,0.1-0.4,0.4-0.6
			s0.5-0.2,0.9-0.2C156,258.3,156.3,258.4,156.5,258.6z"/>
		<path d="M161.1,256.9l-2.3,4.9c0,0.1-0.1,0.1-0.2,0.1c0,0-0.1,0-0.1,0c0,0,0-0.1,0-0.1c0,0,0-0.1,0-0.1l2.3-4.9
			c0-0.1,0-0.1,0.1-0.1s0.1,0,0.1,0c0,0,0.1,0,0.1,0c0,0,0,0.1,0,0.1C161.1,256.8,161.1,256.8,161.1,256.9z"/>
		<path d="M164.1,258.4v2.7h1.1c0.1,0,0.1,0,0.2,0s0,0.1,0,0.1c0,0,0,0.1,0,0.1s-0.1,0-0.2,0h-2.5c-0.1,0-0.1,0-0.1,0s0-0.1,0-0.1
			c0,0,0-0.1,0-0.1s0.1,0,0.1,0h1.1v-2.4H163c-0.1,0-0.1,0-0.1,0c0,0,0-0.1,0-0.1c0,0,0-0.1,0-0.1s0.1,0,0.2,0H164.1z M164.1,256.9
			v0.7h-0.4v-0.7H164.1z"/>
		<path d="M169.7,259.9h-2.9c0.1,0.4,0.2,0.7,0.5,0.9c0.3,0.2,0.6,0.3,1,0.3c0.2,0,0.4,0,0.7-0.1s0.4-0.2,0.6-0.3
			c0,0,0.1-0.1,0.1-0.1c0,0,0.1,0,0.1,0s0,0.1,0,0.1c0,0,0,0.1-0.1,0.1c-0.1,0.1-0.3,0.2-0.6,0.3c-0.3,0.1-0.6,0.1-0.9,0.1
			c-0.5,0-0.9-0.2-1.2-0.5c-0.3-0.3-0.5-0.7-0.5-1.2c0-0.4,0.2-0.8,0.5-1.1c0.3-0.3,0.7-0.4,1.1-0.4c0.5,0,0.9,0.2,1.2,0.5
			S169.7,259.5,169.7,259.9z M169.4,259.7c-0.1-0.3-0.2-0.6-0.4-0.8c-0.2-0.2-0.5-0.3-0.9-0.3s-0.6,0.1-0.9,0.3
			c-0.2,0.2-0.4,0.5-0.5,0.8H169.4z"/>
		<path d="M172.6,259.8l1.3,1.3c0.1,0,0.1,0,0.2,0s0,0,0.1,0c0,0,0,0.1,0,0.1c0,0,0,0.1,0,0.1s-0.1,0-0.2,0H173c-0.1,0-0.1,0-0.2,0
			s0-0.1,0-0.1c0,0,0-0.1,0-0.1s0.1,0,0.2,0h0.5l-1.1-1.1l-1.1,1.1h0.5c0.1,0,0.1,0,0.1,0s0,0.1,0,0.1c0,0,0,0.1,0,0.1s-0.1,0-0.1,0
			h-0.9c-0.1,0-0.1,0-0.1,0s0-0.1,0-0.1c0,0,0-0.1,0-0.1c0,0,0,0,0.1,0c0,0,0.1,0,0.2,0l1.3-1.3l-1.2-1.1c-0.1,0-0.1,0-0.2,0
			c0,0,0,0-0.1-0.1c0,0,0-0.1,0-0.1c0,0,0-0.1,0-0.1s0.1,0,0.2,0h0.8c0.1,0,0.1,0,0.1,0c0,0,0,0.1,0,0.1c0,0,0,0.1,0,0.1
			c0,0-0.1,0-0.1,0h-0.3l1,0.9l1-0.9H173c-0.1,0-0.1,0-0.1,0c0,0,0-0.1,0-0.1c0,0,0-0.1,0-0.1s0.1,0,0.2,0h0.8c0.1,0,0.1,0,0.1,0
			s0,0.1,0,0.1c0,0,0,0.1,0,0.1c0,0,0,0-0.1,0.1c0,0-0.1,0-0.2,0L172.6,259.8z"/>
		<path d="M178.1,259.9h-2.9c0.1,0.4,0.2,0.7,0.5,0.9c0.3,0.2,0.6,0.3,1,0.3c0.2,0,0.4,0,0.7-0.1s0.4-0.2,0.6-0.3
			c0,0,0.1-0.1,0.1-0.1c0,0,0.1,0,0.1,0s0,0.1,0,0.1c0,0,0,0.1-0.1,0.1c-0.1,0.1-0.3,0.2-0.6,0.3c-0.3,0.1-0.6,0.1-0.9,0.1
			c-0.5,0-0.9-0.2-1.2-0.5c-0.3-0.3-0.5-0.7-0.5-1.2c0-0.4,0.2-0.8,0.5-1.1c0.3-0.3,0.7-0.4,1.1-0.4c0.5,0,0.9,0.2,1.2,0.5
			S178.1,259.5,178.1,259.9z M177.8,259.7c-0.1-0.3-0.2-0.6-0.4-0.8c-0.2-0.2-0.5-0.3-0.9-0.3s-0.6,0.1-0.9,0.3
			c-0.2,0.2-0.4,0.5-0.5,0.8H177.8z"/>
		<path d="M182,258.7L182,258.7c0-0.2,0-0.2,0-0.2c0,0,0.1,0,0.1,0c0,0,0.1,0,0.1,0c0,0,0,0.1,0,0.2v0.7c0,0.1,0,0.1,0,0.2
			c0,0-0.1,0-0.1,0c0,0-0.1,0-0.1,0c0,0,0-0.1,0-0.1c0-0.2-0.1-0.3-0.3-0.5c-0.2-0.1-0.5-0.2-0.8-0.2c-0.4,0-0.7,0.1-1,0.4
			s-0.3,0.6-0.3,0.9c0,0.4,0.1,0.7,0.4,0.9c0.2,0.2,0.6,0.4,0.9,0.4c0.2,0,0.5,0,0.7-0.1c0.2-0.1,0.4-0.2,0.6-0.4
			c0,0,0.1-0.1,0.1-0.1c0,0,0.1,0,0.1,0c0,0,0,0.1,0,0.1c0,0.1-0.1,0.2-0.3,0.4c-0.4,0.2-0.8,0.4-1.2,0.4c-0.5,0-0.8-0.1-1.1-0.4
			c-0.3-0.3-0.4-0.7-0.4-1.1c0-0.5,0.2-0.8,0.5-1.2c0.3-0.3,0.7-0.5,1.1-0.5C181.3,258.3,181.7,258.4,182,258.7z"/>
		<path d="M185.9,258.6c0-0.1,0-0.1,0-0.1c0,0,0.1,0,0.1,0c0,0,0.1,0,0.1,0c0,0,0,0.1,0,0.2v0.5c0,0.1,0,0.1,0,0.1s-0.1,0-0.1,0
			c0,0-0.1,0-0.1,0c0,0,0-0.1,0-0.1c0-0.1-0.1-0.3-0.2-0.3c-0.2-0.1-0.4-0.2-0.7-0.2c-0.3,0-0.6,0.1-0.7,0.2
			c-0.1,0.1-0.2,0.2-0.2,0.3c0,0.1,0.1,0.3,0.2,0.3c0.1,0.1,0.3,0.1,0.6,0.1c0.4,0,0.7,0.1,0.8,0.1c0.2,0.1,0.4,0.2,0.5,0.3
			c0.1,0.1,0.2,0.3,0.2,0.5c0,0.2-0.1,0.5-0.4,0.7s-0.6,0.3-1,0.3s-0.8-0.1-1.1-0.3c0,0.1,0,0.1,0,0.2s0,0,0,0.1c0,0-0.1,0-0.1,0
			c0,0-0.1,0-0.1,0c0,0,0-0.1,0-0.1v-0.6c0-0.1,0-0.1,0-0.1c0,0,0.1,0,0.1,0c0,0,0.1,0,0.1,0c0,0,0,0.1,0,0.1c0,0.1,0,0.2,0.1,0.3
			c0.1,0.1,0.2,0.2,0.4,0.3c0.2,0.1,0.4,0.1,0.6,0.1c0.4,0,0.7-0.1,0.8-0.2s0.3-0.3,0.3-0.4c0-0.2-0.1-0.3-0.3-0.4
			c-0.2-0.1-0.5-0.2-0.8-0.2c-0.4,0-0.6-0.1-0.8-0.1c-0.2-0.1-0.3-0.1-0.4-0.3c-0.1-0.1-0.1-0.2-0.1-0.4c0-0.2,0.1-0.4,0.4-0.6
			s0.5-0.2,0.9-0.2C185.4,258.3,185.7,258.4,185.9,258.6z"/>
		<path d="M190.2,258.9v-0.5h0.7c0.1,0,0.1,0,0.1,0s0,0.1,0,0.1c0,0,0,0.1,0,0.1s-0.1,0-0.1,0h-0.4v2.9c0,0.2,0,0.4-0.1,0.5
			c-0.1,0.1-0.1,0.2-0.3,0.3c-0.1,0.1-0.2,0.2-0.3,0.2s-0.2,0.1-0.4,0.1h-0.8c-0.1,0-0.1,0-0.1,0s0-0.1,0-0.1s0-0.1,0-0.1
			s0.1,0,0.1,0l0.8,0c0.2,0,0.3,0,0.5-0.1c0.1-0.1,0.2-0.2,0.3-0.4c0.1-0.1,0.1-0.2,0.1-0.4v-0.9c-0.3,0.4-0.7,0.6-1.2,0.6
			c-0.4,0-0.7-0.1-1-0.4c-0.3-0.3-0.4-0.6-0.4-1.1c0-0.4,0.1-0.8,0.4-1.1c0.3-0.3,0.6-0.4,1-0.4
			C189.4,258.3,189.8,258.5,190.2,258.9z M190.2,259.8c0-0.3-0.1-0.6-0.3-0.9c-0.2-0.2-0.5-0.3-0.8-0.3s-0.6,0.1-0.8,0.3
			s-0.3,0.5-0.3,0.9c0,0.3,0.1,0.6,0.3,0.9s0.5,0.4,0.8,0.4s0.6-0.1,0.8-0.4C190,260.4,190.2,260.1,190.2,259.8z"/>
		<path d="M193.6,259.8l1.3,1.3c0.1,0,0.1,0,0.2,0s0,0,0.1,0c0,0,0,0.1,0,0.1c0,0,0,0.1,0,0.1s-0.1,0-0.2,0H194c-0.1,0-0.1,0-0.2,0
			s0-0.1,0-0.1c0,0,0-0.1,0-0.1s0.1,0,0.2,0h0.5l-1.1-1.1l-1.1,1.1h0.5c0.1,0,0.1,0,0.1,0s0,0.1,0,0.1c0,0,0,0.1,0,0.1s-0.1,0-0.1,0
			h-0.9c-0.1,0-0.1,0-0.1,0s0-0.1,0-0.1c0,0,0-0.1,0-0.1c0,0,0,0,0.1,0c0,0,0.1,0,0.2,0l1.3-1.3l-1.2-1.1c-0.1,0-0.1,0-0.2,0
			c0,0,0,0-0.1-0.1c0,0,0-0.1,0-0.1c0,0,0-0.1,0-0.1s0.1,0,0.2,0h0.8c0.1,0,0.1,0,0.1,0c0,0,0,0.1,0,0.1c0,0,0,0.1,0,0.1
			c0,0-0.1,0-0.1,0h-0.3l1,0.9l1-0.9H194c-0.1,0-0.1,0-0.1,0c0,0,0-0.1,0-0.1c0,0,0-0.1,0-0.1s0.1,0,0.2,0h0.8c0.1,0,0.1,0,0.1,0
			s0,0.1,0,0.1c0,0,0,0.1,0,0.1c0,0,0,0-0.1,0.1c0,0-0.1,0-0.2,0L193.6,259.8z"/>
		<path d="M197.5,258.4h0.1c0.1,0,0.2,0,0.3,0.1s0.1,0.2,0.1,0.3c0,0.1,0,0.2-0.1,0.3c-0.1,0.1-0.2,0.1-0.3,0.1h-0.1
			c-0.1,0-0.2,0-0.3-0.1s-0.1-0.2-0.1-0.3c0-0.1,0-0.2,0.1-0.3C197.3,258.4,197.4,258.4,197.5,258.4z M197.5,260.5h0.1
			c0.1,0,0.2,0,0.3,0.1s0.1,0.2,0.1,0.3c0,0.1,0,0.2-0.1,0.3c-0.1,0.1-0.2,0.1-0.3,0.1h-0.1c-0.1,0-0.2,0-0.3-0.1s-0.1-0.2-0.1-0.3
			c0-0.1,0-0.2,0.1-0.3C197.3,260.6,197.4,260.5,197.5,260.5z"/>
		<path d="M203,258.7L203,258.7c0-0.2,0-0.2,0-0.2c0,0,0.1,0,0.1,0c0,0,0.1,0,0.1,0c0,0,0,0.1,0,0.2v0.7c0,0.1,0,0.1,0,0.2
			c0,0-0.1,0-0.1,0c0,0-0.1,0-0.1,0c0,0,0-0.1,0-0.1c0-0.2-0.1-0.3-0.3-0.5c-0.2-0.1-0.5-0.2-0.8-0.2c-0.4,0-0.7,0.1-1,0.4
			s-0.3,0.6-0.3,0.9c0,0.4,0.1,0.7,0.4,0.9c0.2,0.2,0.6,0.4,0.9,0.4c0.2,0,0.5,0,0.7-0.1c0.2-0.1,0.4-0.2,0.6-0.4
			c0,0,0.1-0.1,0.1-0.1c0,0,0.1,0,0.1,0c0,0,0,0.1,0,0.1c0,0.1-0.1,0.2-0.3,0.4c-0.4,0.2-0.8,0.4-1.2,0.4c-0.5,0-0.8-0.1-1.1-0.4
			c-0.3-0.3-0.4-0.7-0.4-1.1c0-0.5,0.2-0.8,0.5-1.2c0.3-0.3,0.7-0.5,1.1-0.5C202.3,258.3,202.7,258.4,203,258.7z"/>
		<path d="M206.1,257.1v4h1.1c0.1,0,0.1,0,0.2,0s0,0.1,0,0.1c0,0,0,0.1,0,0.1s-0.1,0-0.2,0h-2.5c-0.1,0-0.1,0-0.1,0s0-0.1,0-0.1
			c0,0,0-0.1,0-0.1s0.1,0,0.1,0h1.1v-3.7H205c-0.1,0-0.1,0-0.1,0c0,0,0-0.1,0-0.1c0,0,0-0.1,0-0.1s0.1,0,0.2,0H206.1z"/>
		<path d="M210.3,258.4v2.7h1.1c0.1,0,0.1,0,0.2,0s0,0.1,0,0.1c0,0,0,0.1,0,0.1s-0.1,0-0.2,0h-2.5c-0.1,0-0.1,0-0.1,0s0-0.1,0-0.1
			c0,0,0-0.1,0-0.1s0.1,0,0.1,0h1.1v-2.4h-0.8c-0.1,0-0.1,0-0.1,0c0,0,0-0.1,0-0.1c0,0,0-0.1,0-0.1s0.1,0,0.2,0H210.3z M210.3,256.9
			v0.7h-0.4v-0.7H210.3z"/>
	</g>
</g>
</svg>
