<?xml version="1.0" encoding="utf-8"?>
<!-- Generator: Adobe Illustrator 24.0.0, SVG Export Plug-In . SVG Version: 6.00 Build 0)  -->
<svg version="1.1" id="Ebene_1" xmlns="http://www.w3.org/2000/svg" xmlns:xlink="http://www.w3.org/1999/xlink" x="0px" y="0px"
	 viewBox="0 0 633.3 342.8" style="enable-background:new 0 0 633.3 342.8;" xml:space="preserve">
<style type="text/css">
	.st0{fill:none;stroke:#FFCC00;stroke-width:2;stroke-miterlimit:10;}
	.st1{fill:none;stroke:#FFCC00;stroke-width:2;stroke-linecap:round;stroke-linejoin:round;}
	.st2{fill:none;stroke:#FFCC00;stroke-width:2;stroke-miterlimit:10;stroke-dasharray:2,2;}
	.st3{fill:#FFCC00;}
	.st4{enable-background:new    ;}
	.st5{fill:#330066;}
	.st6{opacity:0.4;fill:none;stroke:#330066;stroke-width:2;stroke-miterlimit:10;enable-background:new    ;}
	.st7{fill:none;stroke:#330066;stroke-width:2;stroke-miterlimit:10;}
	.st8{fill:#FFCC03;}
	.st9{fill:#E6E6E6;}
	.st10{fill:#FFFFFF;}
	.st11{fill:none;stroke:#330066;stroke-linecap:round;stroke-linejoin:round;}
</style>
<g id="Ebene_2_1_">
	<line class="st0" x1="138" y1="127.4" x2="238.8" y2="127.4"/>
	<line class="st1" x1="137.9" y1="101.7" x2="238.8" y2="101.7"/>
	<line class="st2" x1="125.8" y1="114.6" x2="251.6" y2="114.6"/>
	<polygon class="st3" points="130.4,120.3 131.4,119.3 126.3,114.6 131.4,109.8 130.4,108.8 124.3,114.6 	"/>
	<polygon class="st3" points="246.9,120.3 246,119.3 251,114.6 246,109.8 246.9,108.8 253.1,114.6 	"/>
	<line class="st0" x1="394.8" y1="127.4" x2="495.6" y2="127.4"/>
	<line class="st1" x1="394.7" y1="101.7" x2="495.6" y2="101.7"/>
	<line class="st2" x1="382.6" y1="114.6" x2="503.3" y2="114.6"/>
	<polygon class="st3" points="387.2,120.3 388.2,119.3 383.1,114.6 388.2,109.8 387.2,108.8 381,114.6 	"/>
	<polygon class="st3" points="498.7,120.3 497.7,119.3 502.8,114.6 497.7,109.8 498.7,108.8 504.8,114.6 	"/>
	<g class="st4">
		<path class="st5" d="M304.2,270.1h-0.8l-0.2-1.1c-0.2-0.1-0.4-0.2-0.6-0.3c-0.3-0.1-0.6-0.1-0.9-0.1c-0.6,0-1,0.1-1.3,0.4
			s-0.5,0.5-0.5,0.9c0,0.3,0.2,0.6,0.5,0.9c0.3,0.2,0.8,0.4,1.5,0.6c0.8,0.2,1.4,0.5,1.9,0.9c0.4,0.4,0.6,0.9,0.6,1.5
			c0,0.6-0.3,1.1-0.8,1.5c-0.5,0.4-1.2,0.6-2,0.6c-0.6,0-1.1-0.1-1.6-0.3c-0.5-0.2-0.8-0.5-1.1-0.8v-1.5h0.8l0.2,1.1
			c0.2,0.2,0.4,0.3,0.7,0.4s0.6,0.2,1,0.2c0.5,0,1-0.1,1.3-0.3c0.3-0.2,0.5-0.5,0.5-0.9c0-0.4-0.1-0.7-0.4-0.9
			c-0.3-0.2-0.7-0.4-1.4-0.6c-0.8-0.2-1.5-0.5-1.9-0.9s-0.7-0.9-0.7-1.4c0-0.6,0.3-1.1,0.8-1.5s1.2-0.6,2-0.6c0.5,0,1,0.1,1.5,0.3
			c0.4,0.2,0.8,0.4,1.1,0.7V270.1z"/>
		<path class="st5" d="M307.4,270.5l-0.7,0.1l0.8,2.9l0.1,0.7h0l0.2-0.7l1.2-3.7h0.8l1.2,3.7l0.2,0.8h0l0.2-0.8l0.7-2.9l-0.7-0.1
			v-0.7h2.2v0.7l-0.5,0.1l-1.5,5.1h-0.9l-1.1-3.5l-0.2-1l0,0l-0.2,1l-1.1,3.5h-0.9l-1.5-5.1l-0.5-0.1v-0.7h2.2V270.5z"/>
		<path class="st5" d="M318.2,275.7c0-0.2-0.1-0.3-0.1-0.4c0-0.1,0-0.3,0-0.4c-0.2,0.3-0.5,0.5-0.8,0.7c-0.3,0.2-0.6,0.3-1,0.3
			c-0.6,0-1.1-0.1-1.4-0.4c-0.3-0.3-0.5-0.7-0.5-1.2c0-0.6,0.2-1,0.7-1.3c0.4-0.3,1.1-0.4,1.8-0.4h1.1v-0.7c0-0.3-0.1-0.6-0.3-0.8
			c-0.2-0.2-0.5-0.3-0.9-0.3c-0.3,0-0.5,0-0.7,0.1c-0.2,0.1-0.4,0.2-0.5,0.3l-0.1,0.6h-0.8v-1.1c0.3-0.2,0.6-0.4,1-0.5
			s0.8-0.2,1.2-0.2c0.7,0,1.2,0.2,1.6,0.5s0.6,0.8,0.6,1.4v2.8c0,0.1,0,0.1,0,0.2c0,0.1,0,0.1,0,0.2l0.4,0.1v0.7H318.2z
			 M316.5,274.9c0.4,0,0.7-0.1,1-0.3c0.3-0.2,0.5-0.4,0.6-0.6v-1H317c-0.4,0-0.8,0.1-1,0.3c-0.3,0.2-0.4,0.4-0.4,0.7
			c0,0.3,0.1,0.4,0.2,0.6C316,274.8,316.2,274.9,316.5,274.9z"/>
		<path class="st5" d="M320.5,270.5v-0.7h1.8l0.1,0.8c0.2-0.3,0.4-0.5,0.6-0.7c0.2-0.2,0.5-0.3,0.8-0.3c0.1,0,0.2,0,0.3,0
			s0.2,0,0.2,0l-0.1,1l-0.6,0c-0.3,0-0.5,0.1-0.7,0.2c-0.2,0.1-0.3,0.3-0.4,0.6v3.3l0.9,0.2v0.7h-2.8V275l0.9-0.2v-4.2L320.5,270.5z
			"/>
		<path class="st5" d="M324.8,275l0.9-0.2v-4.2l-0.9-0.2v-0.7h1.8l0.1,0.8c0.2-0.3,0.4-0.5,0.7-0.6c0.3-0.2,0.6-0.2,1-0.2
			s0.7,0.1,1,0.3c0.3,0.2,0.5,0.4,0.6,0.8c0.2-0.3,0.4-0.6,0.7-0.8s0.7-0.3,1.1-0.3c0.6,0,1.1,0.2,1.4,0.6s0.5,1,0.5,1.8v2.6
			l0.9,0.2v0.7h-2.8V275l0.9-0.2v-2.7c0-0.6-0.1-1-0.3-1.2c-0.2-0.2-0.5-0.4-0.9-0.4c-0.4,0-0.7,0.1-0.9,0.4c-0.2,0.3-0.4,0.6-0.4,1
			v2.9l0.9,0.2v0.7h-2.8V275l0.9-0.2v-2.7c0-0.5-0.1-0.9-0.3-1.2c-0.2-0.3-0.5-0.4-0.9-0.4c-0.3,0-0.6,0.1-0.8,0.2
			c-0.2,0.1-0.4,0.3-0.5,0.6v3.5l0.9,0.2v0.7h-2.8V275z"/>
	</g>
	<g class="st4">
		<path class="st5" d="M307.2,115.5L307.2,115.5l-4-1.4v-1.8l6,2.5v1.6l-6,2.5V117L307.2,115.5z"/>
		<path class="st5" d="M313.5,115.6c0-1.2,0.3-2.1,0.8-2.8s1.2-1.1,2.1-1.1c0.4,0,0.8,0.1,1.1,0.3c0.3,0.2,0.6,0.4,0.8,0.8l0.1-0.9
			h1.7v7.2c0,1-0.3,1.8-0.9,2.3c-0.6,0.6-1.5,0.9-2.5,0.9c-0.4,0-0.8-0.1-1.2-0.2c-0.4-0.1-0.8-0.2-1.2-0.4l0.4-1.4
			c0.3,0.1,0.6,0.2,1,0.3c0.3,0.1,0.7,0.1,1,0.1c0.5,0,0.9-0.1,1.1-0.4c0.2-0.3,0.4-0.7,0.4-1.2v-0.5c-0.2,0.3-0.5,0.5-0.8,0.6
			s-0.6,0.2-1,0.2c-0.9,0-1.6-0.3-2.1-1c-0.5-0.7-0.8-1.5-0.8-2.6V115.6z M315.5,115.7c0,0.6,0.1,1.2,0.3,1.5
			c0.2,0.4,0.6,0.6,1.1,0.6c0.3,0,0.6-0.1,0.8-0.2c0.2-0.1,0.4-0.3,0.5-0.5v-3.2c-0.1-0.2-0.3-0.4-0.5-0.5s-0.5-0.2-0.8-0.2
			c-0.5,0-0.8,0.2-1.1,0.6s-0.3,1-0.3,1.7V115.7z"/>
		<path class="st5" d="M321.3,118l1-0.2v-4.6l-1.1-0.2v-1.2h3.1v6l1,0.2v1.2h-3.9V118z M324.3,110.1h-2v-1.5h2V110.1z"/>
		<path class="st5" d="M328.8,110v1.8h1.3v1.4h-1.3v3.8c0,0.3,0.1,0.5,0.2,0.6s0.3,0.2,0.5,0.2c0.1,0,0.3,0,0.4,0
			c0.1,0,0.2,0,0.3-0.1l0.2,1.4c-0.2,0.1-0.4,0.1-0.7,0.2c-0.2,0-0.5,0.1-0.7,0.1c-0.7,0-1.2-0.2-1.6-0.6c-0.4-0.4-0.6-1-0.6-1.8
			v-3.8h-1.1v-1.4h1.1V110H328.8z"/>
	</g>
	<g class="st4">
		<path class="st5" d="M54.6,115.5L54.6,115.5l-4-1.4v-1.8l6,2.5v1.6l-6,2.5V117L54.6,115.5z"/>
		<path class="st5" d="M66.8,114.4h-1.3l-0.2-0.9c-0.1-0.1-0.3-0.2-0.5-0.3s-0.4-0.1-0.7-0.1c-0.4,0-0.6,0.1-0.8,0.2
			c-0.2,0.2-0.3,0.4-0.3,0.6c0,0.2,0.1,0.4,0.3,0.6c0.2,0.1,0.6,0.3,1.2,0.4c0.9,0.2,1.6,0.5,2,0.8c0.4,0.4,0.7,0.8,0.7,1.5
			c0,0.7-0.3,1.2-0.9,1.6c-0.6,0.4-1.3,0.6-2.3,0.6c-0.6,0-1.1-0.1-1.6-0.2c-0.5-0.2-0.9-0.4-1.3-0.7l0-1.7h1.4l0.3,1
			c0.1,0.1,0.3,0.2,0.5,0.2c0.2,0,0.4,0.1,0.6,0.1c0.4,0,0.7-0.1,0.9-0.2s0.3-0.3,0.3-0.6c0-0.2-0.1-0.4-0.3-0.6s-0.6-0.3-1.2-0.4
			c-0.9-0.2-1.5-0.4-2-0.8c-0.4-0.3-0.7-0.8-0.7-1.4c0-0.6,0.3-1.2,0.8-1.6c0.5-0.4,1.2-0.7,2.2-0.7c0.6,0,1.1,0.1,1.6,0.2
			s0.9,0.4,1.2,0.6L66.8,114.4z"/>
		<path class="st5" d="M71.5,117.8c0.4,0,0.6-0.1,0.9-0.3c0.2-0.2,0.3-0.5,0.3-0.8h1.8l0,0c0,0.7-0.3,1.4-0.8,1.9
			c-0.6,0.5-1.3,0.8-2.2,0.8c-1.1,0-2-0.3-2.5-1s-0.9-1.6-0.9-2.7v-0.2c0-1.1,0.3-2,0.9-2.7s1.5-1.1,2.6-1.1c0.6,0,1.1,0.1,1.6,0.3
			s0.9,0.4,1.2,0.8l0,2h-1.6l-0.3-1.2c-0.1-0.1-0.2-0.2-0.4-0.2c-0.1-0.1-0.3-0.1-0.5-0.1c-0.6,0-1,0.2-1.2,0.6s-0.3,0.9-0.3,1.6
			v0.2c0,0.7,0.1,1.2,0.3,1.6C70.5,117.6,70.9,117.8,71.5,117.8z"/>
		<path class="st5" d="M75.4,115.5c0-1.1,0.3-2,0.9-2.7c0.6-0.7,1.5-1.1,2.6-1.1c1.1,0,1.9,0.4,2.6,1.1s0.9,1.6,0.9,2.7v0.1
			c0,1.1-0.3,2-0.9,2.7c-0.6,0.7-1.5,1-2.6,1c-1.1,0-2-0.3-2.6-1c-0.6-0.7-0.9-1.6-0.9-2.7V115.5z M77.4,115.6
			c0,0.7,0.1,1.2,0.4,1.6c0.2,0.4,0.6,0.6,1.1,0.6c0.5,0,0.9-0.2,1.1-0.6s0.4-1,0.4-1.6v-0.1c0-0.7-0.1-1.2-0.4-1.6
			s-0.6-0.6-1.1-0.6s-0.9,0.2-1.1,0.6s-0.4,1-0.4,1.6V115.6z"/>
	</g>
	<g class="st4">
		<path class="st5" d="M83.1,118l1-0.2v-4.6L83,113v-1.2h2.9l0.1,1.1c0.2-0.4,0.5-0.7,0.9-0.9c0.4-0.2,0.8-0.3,1.2-0.3
			c0.7,0,1.3,0.2,1.8,0.7c0.4,0.5,0.6,1.2,0.6,2.2v3.2l1,0.2v1.2h-3.8V118l0.9-0.2v-3.2c0-0.5-0.1-0.8-0.3-1.1
			c-0.2-0.2-0.5-0.3-0.9-0.3c-0.3,0-0.5,0.1-0.7,0.2c-0.2,0.1-0.4,0.3-0.5,0.5v4l0.8,0.2v1.2h-3.8V118z"/>
	</g>
	<g class="st4">
		<path class="st5" d="M95.6,119.4c-1.1,0-1.9-0.3-2.6-1s-1-1.6-1-2.6v-0.3c0-1.1,0.3-2,0.9-2.7s1.4-1.1,2.4-1.1
			c1,0,1.8,0.3,2.3,0.9s0.8,1.4,0.8,2.4v1.1h-4.4l0,0c0,0.5,0.2,0.9,0.5,1.2s0.7,0.5,1.2,0.5c0.4,0,0.8,0,1.1-0.1
			c0.3-0.1,0.6-0.2,1-0.4l0.5,1.2c-0.3,0.2-0.7,0.4-1.2,0.6S96.2,119.4,95.6,119.4z M95.4,113.2c-0.4,0-0.7,0.1-0.9,0.4
			s-0.3,0.7-0.4,1.1l0,0h2.4v-0.2c0-0.4-0.1-0.8-0.3-1C96.1,113.4,95.8,113.2,95.4,113.2z"/>
	</g>
	<g class="st4">
		<path class="st5" d="M546.8,115.5L546.8,115.5l-4-1.4v-1.8l6,2.5v1.6l-6,2.5V117L546.8,115.5z"/>
		<path class="st5" d="M559,114.4h-1.3l-0.2-0.9c-0.1-0.1-0.3-0.2-0.5-0.3c-0.2-0.1-0.4-0.1-0.7-0.1c-0.4,0-0.6,0.1-0.8,0.2
			c-0.2,0.2-0.3,0.4-0.3,0.6c0,0.2,0.1,0.4,0.3,0.6c0.2,0.1,0.6,0.3,1.2,0.4c0.9,0.2,1.6,0.5,2,0.8c0.4,0.4,0.7,0.8,0.7,1.5
			c0,0.7-0.3,1.2-0.9,1.6c-0.6,0.4-1.3,0.6-2.3,0.6c-0.6,0-1.1-0.1-1.6-0.2c-0.5-0.2-0.9-0.4-1.3-0.7l0-1.7h1.4l0.3,1
			c0.1,0.1,0.3,0.2,0.5,0.2c0.2,0,0.4,0.1,0.6,0.1c0.4,0,0.7-0.1,0.9-0.2s0.3-0.3,0.3-0.6c0-0.2-0.1-0.4-0.3-0.6
			c-0.2-0.2-0.6-0.3-1.2-0.4c-0.9-0.2-1.5-0.4-2-0.8c-0.4-0.3-0.7-0.8-0.7-1.4c0-0.6,0.3-1.2,0.8-1.6c0.5-0.4,1.2-0.7,2.2-0.7
			c0.6,0,1.1,0.1,1.6,0.2s0.9,0.4,1.2,0.6L559,114.4z"/>
		<path class="st5" d="M566.3,114.4h-1.3l-0.2-0.9c-0.1-0.1-0.3-0.2-0.5-0.3c-0.2-0.1-0.4-0.1-0.7-0.1c-0.4,0-0.6,0.1-0.8,0.2
			c-0.2,0.2-0.3,0.4-0.3,0.6c0,0.2,0.1,0.4,0.3,0.6c0.2,0.1,0.6,0.3,1.2,0.4c0.9,0.2,1.6,0.5,2,0.8c0.4,0.4,0.7,0.8,0.7,1.5
			c0,0.7-0.3,1.2-0.9,1.6c-0.6,0.4-1.3,0.6-2.3,0.6c-0.6,0-1.1-0.1-1.6-0.2c-0.5-0.2-0.9-0.4-1.3-0.7l0-1.7h1.4l0.3,1
			c0.1,0.1,0.3,0.2,0.5,0.2c0.2,0,0.4,0.1,0.6,0.1c0.4,0,0.7-0.1,0.9-0.2s0.3-0.3,0.3-0.6c0-0.2-0.1-0.4-0.3-0.6
			c-0.2-0.2-0.6-0.3-1.2-0.4c-0.9-0.2-1.5-0.4-2-0.8c-0.4-0.3-0.7-0.8-0.7-1.4c0-0.6,0.3-1.2,0.8-1.6c0.5-0.4,1.2-0.7,2.2-0.7
			c0.6,0,1.1,0.1,1.6,0.2s0.9,0.4,1.2,0.6L566.3,114.4z"/>
		<path class="st5" d="M567.3,118l1-0.2V110l-1.1-0.2v-1.2h3.1v4.2c0.2-0.3,0.5-0.6,0.9-0.8c0.3-0.2,0.7-0.3,1.1-0.3
			c0.8,0,1.4,0.3,1.8,0.8c0.4,0.5,0.7,1.3,0.7,2.4v3l1,0.2v1.2h-3.8V118l0.9-0.2v-3c0-0.6-0.1-1-0.3-1.2c-0.2-0.2-0.5-0.4-0.9-0.4
			c-0.3,0-0.5,0-0.7,0.2c-0.2,0.1-0.4,0.2-0.5,0.4v4l0.9,0.2v1.2h-3.8V118z"/>
	</g>
	<path class="st2" d="M395.2,101.7V74.2c0-2.8-2.2-5-5-5H244.4c-2.8,0-5,2.2-5,5v27.5"/>
	<path class="st2" d="M239.4,101.7v173.2c0,3.2,2.2,5.8,5,5.8h145.8c2.8,0,5-2.6,5-5.8V101.7"/>
	<path class="st1" d="M137.9,100.8V88c0-1.8-2.2-3.2-5-3.2H16.1c-2.8,0-5,1.4-5,3.2v51c0,1.8,2.2,3.3,5,3.3h116.8c2.8,0,5-1.5,5-3.3
		v-10.5"/>
	<path class="st1" d="M495.6,100.8V88c0-1.8,2.2-3.2,5-3.2h116.8c2.8,0,5,1.4,5,3.2v51c0,1.8-2.2,3.3-5,3.3H500.6
		c-2.8,0-5-1.5-5-3.3v-11.5"/>
	<path class="st6" d="M257.9,224.2h118.8c2.8,0,5,2.2,5,5V242c0,2.8-2.2,5-5,5H257.9c-2.8,0-5-2.2-5-5v-12.8
		C252.9,226.4,255.1,224.2,257.9,224.2z"/>
	<g class="st4">
		<path class="st5" d="M300.3,238.9l0.8-0.2v-3.9l-0.9-0.2v-1h2.5l0.1,0.9c0.2-0.3,0.5-0.6,0.8-0.8s0.7-0.3,1-0.3
			c0.6,0,1.1,0.2,1.5,0.6s0.5,1,0.5,1.9v2.8l0.8,0.2v1h-3.3v-1l0.7-0.2V236c0-0.4-0.1-0.7-0.3-0.9s-0.4-0.3-0.8-0.3
			c-0.2,0-0.4,0-0.6,0.1s-0.3,0.2-0.5,0.4v3.4l0.7,0.2v1h-3.2V238.9z"/>
	</g>
	<g class="st4">
		<path class="st5" d="M308,236.7c0-0.9,0.3-1.7,0.8-2.3s1.3-0.9,2.2-0.9c0.9,0,1.7,0.3,2.2,0.9s0.8,1.4,0.8,2.3v0.1
			c0,1-0.3,1.7-0.8,2.3s-1.3,0.9-2.2,0.9c-0.9,0-1.7-0.3-2.2-0.9s-0.8-1.4-0.8-2.3V236.7z M309.7,236.8c0,0.6,0.1,1,0.3,1.4
			s0.5,0.5,1,0.5c0.4,0,0.8-0.2,1-0.5s0.3-0.8,0.3-1.4v-0.1c0-0.6-0.1-1-0.3-1.4s-0.5-0.5-1-0.5s-0.8,0.2-1,0.5s-0.3,0.8-0.3,1.4
			V236.8z"/>
		<path class="st5" d="M318.8,239.1c-0.2,0.3-0.4,0.5-0.7,0.7s-0.6,0.2-0.9,0.2c-0.8,0-1.4-0.3-1.8-0.9s-0.6-1.3-0.6-2.3v-0.1
			c0-1,0.2-1.8,0.7-2.4s1-0.9,1.8-0.9c0.3,0,0.6,0.1,0.9,0.2s0.5,0.3,0.7,0.6V232l-0.9-0.2v-1h0.9h1.7v7.9l0.8,0.2v1H319
			L318.8,239.1z M316.5,236.9c0,0.6,0.1,1,0.3,1.3s0.5,0.5,0.9,0.5c0.3,0,0.5-0.1,0.7-0.2s0.3-0.2,0.5-0.4v-2.7
			c-0.1-0.2-0.3-0.4-0.4-0.5s-0.4-0.2-0.6-0.2c-0.4,0-0.7,0.2-0.9,0.6s-0.3,0.9-0.3,1.5V236.9z"/>
		<path class="st5" d="M324.9,240c-0.9,0-1.6-0.3-2.2-0.9s-0.8-1.3-0.8-2.2v-0.2c0-0.9,0.3-1.7,0.8-2.3s1.2-0.9,2.1-0.9
			c0.9,0,1.5,0.3,2,0.8s0.7,1.2,0.7,2.1v0.9h-3.8l0,0c0,0.4,0.2,0.8,0.4,1s0.6,0.4,1,0.4c0.4,0,0.7,0,0.9-0.1s0.5-0.2,0.8-0.4
			l0.5,1.1c-0.3,0.2-0.6,0.4-1,0.5S325.4,240,324.9,240z M324.7,234.8c-0.3,0-0.6,0.1-0.8,0.4s-0.3,0.6-0.3,1l0,0h2.1V236
			c0-0.4-0.1-0.7-0.3-0.9S325,234.8,324.7,234.8z"/>
		<path class="st5" d="M333.3,236.7h1v1.1h-1v0.8l0.9,0.2v1h-3.5v-1l0.9-0.2v-0.8h-3.5l-0.1-0.8l3.5-5.7h1.7V236.7z M329.7,236.7h2
			v-3.1l0,0l-0.1,0.2L329.7,236.7z"/>
	</g>
	<path class="st6" d="M257.9,194.8h118.8c2.8,0,5,2.2,5,5v12.8c0,2.8-2.2,5-5,5H257.9c-2.8,0-5-2.2-5-5v-12.8
		C252.9,197.1,255.1,194.8,257.9,194.8z"/>
	<g class="st4">
		<path class="st5" d="M299,209.5l0.8-0.2v-3.9l-0.9-0.2v-1h2.5l0.1,0.9c0.2-0.3,0.5-0.6,0.8-0.8s0.7-0.3,1-0.3
			c0.6,0,1.1,0.2,1.5,0.6s0.5,1,0.5,1.9v2.8l0.8,0.2v1h-3.3v-1l0.7-0.2v-2.8c0-0.4-0.1-0.7-0.3-0.9s-0.4-0.3-0.8-0.3
			c-0.2,0-0.4,0-0.6,0.1s-0.3,0.2-0.5,0.4v3.4l0.7,0.2v1H299V209.5z"/>
	</g>
	<g class="st4">
		<path class="st5" d="M306.6,207.3c0-0.9,0.3-1.7,0.8-2.3s1.3-0.9,2.2-0.9c0.9,0,1.7,0.3,2.2,0.9s0.8,1.4,0.8,2.3v0.1
			c0,1-0.3,1.7-0.8,2.3s-1.3,0.9-2.2,0.9c-0.9,0-1.7-0.3-2.2-0.9s-0.8-1.4-0.8-2.3V207.3z M308.4,207.5c0,0.6,0.1,1,0.3,1.4
			s0.5,0.5,1,0.5c0.4,0,0.8-0.2,1-0.5s0.3-0.8,0.3-1.4v-0.1c0-0.6-0.1-1-0.3-1.4s-0.5-0.5-1-0.5s-0.8,0.2-1,0.5s-0.3,0.8-0.3,1.4
			V207.5z"/>
		<path class="st5" d="M317.5,209.8c-0.2,0.3-0.4,0.5-0.7,0.7s-0.6,0.2-0.9,0.2c-0.8,0-1.4-0.3-1.8-0.9s-0.6-1.3-0.6-2.3v-0.1
			c0-1,0.2-1.8,0.7-2.4s1-0.9,1.8-0.9c0.3,0,0.6,0.1,0.9,0.2s0.5,0.3,0.7,0.6v-2.3l-0.9-0.2v-1h0.9h1.7v7.9l0.8,0.2v1h-2.3
			L317.5,209.8z M315.1,207.6c0,0.6,0.1,1,0.3,1.3s0.5,0.5,0.9,0.5c0.3,0,0.5-0.1,0.7-0.2s0.3-0.2,0.5-0.4v-2.7
			c-0.1-0.2-0.3-0.4-0.4-0.5s-0.4-0.2-0.6-0.2c-0.4,0-0.7,0.2-0.9,0.6s-0.3,0.9-0.3,1.5V207.6z"/>
		<path class="st5" d="M323.5,210.7c-0.9,0-1.6-0.3-2.2-0.9s-0.8-1.3-0.8-2.2v-0.2c0-0.9,0.3-1.7,0.8-2.3s1.2-0.9,2.1-0.9
			c0.9,0,1.5,0.3,2,0.8s0.7,1.2,0.7,2.1v0.9h-3.8l0,0c0,0.4,0.2,0.8,0.4,1s0.6,0.4,1,0.4c0.4,0,0.7,0,0.9-0.1s0.5-0.2,0.8-0.4
			l0.5,1.1c-0.3,0.2-0.6,0.4-1,0.5S324,210.7,323.5,210.7z M323.3,205.4c-0.3,0-0.6,0.1-0.8,0.4s-0.3,0.6-0.3,1l0,0h2.1v-0.2
			c0-0.4-0.1-0.7-0.3-0.9S323.7,205.4,323.3,205.4z"/>
		<path class="st5" d="M331.7,205.6h1c0.4,0,0.7-0.1,0.9-0.3s0.3-0.5,0.3-0.9c0-0.3-0.1-0.6-0.3-0.8s-0.5-0.3-0.8-0.3
			c-0.3,0-0.6,0.1-0.8,0.3s-0.3,0.4-0.3,0.7h-1.7l0,0c0-0.7,0.2-1.2,0.8-1.7s1.2-0.7,2-0.7c0.9,0,1.6,0.2,2.1,0.6s0.8,1,0.8,1.8
			c0,0.4-0.1,0.7-0.4,1.1s-0.6,0.6-1,0.8c0.5,0.2,0.8,0.4,1.1,0.8s0.4,0.8,0.4,1.2c0,0.8-0.3,1.4-0.9,1.8s-1.3,0.7-2.2,0.7
			c-0.8,0-1.5-0.2-2-0.6s-0.8-1-0.8-1.8l0,0h1.7c0,0.3,0.1,0.6,0.4,0.8s0.5,0.3,0.9,0.3c0.4,0,0.7-0.1,0.9-0.3s0.3-0.5,0.3-0.9
			c0-0.4-0.1-0.8-0.3-1s-0.6-0.3-1-0.3h-1V205.6z"/>
	</g>
	<path class="st6" d="M257.9,165h118.8c2.8,0,5,2.2,5,5v12.8c0,2.8-2.2,5-5,5H257.9c-2.8,0-5-2.2-5-5V170
		C252.9,167.2,255.1,165,257.9,165z"/>
	<g class="st4">
		<path class="st5" d="M298.9,179.7l0.8-0.2v-3.9l-0.9-0.2v-1h2.5l0.1,0.9c0.2-0.3,0.5-0.6,0.8-0.8s0.7-0.3,1-0.3
			c0.6,0,1.1,0.2,1.5,0.6s0.5,1,0.5,1.9v2.8l0.8,0.2v1h-3.3v-1l0.7-0.2v-2.8c0-0.4-0.1-0.7-0.3-0.9s-0.4-0.3-0.8-0.3
			c-0.2,0-0.4,0-0.6,0.1s-0.3,0.2-0.5,0.4v3.4l0.7,0.2v1h-3.2V179.7z"/>
	</g>
	<g class="st4">
		<path class="st5" d="M306.6,177.5c0-0.9,0.3-1.7,0.8-2.3s1.3-0.9,2.2-0.9c0.9,0,1.7,0.3,2.2,0.9s0.8,1.4,0.8,2.3v0.1
			c0,1-0.3,1.7-0.8,2.3s-1.3,0.9-2.2,0.9c-0.9,0-1.7-0.3-2.2-0.9s-0.8-1.4-0.8-2.3V177.5z M308.3,177.6c0,0.6,0.1,1,0.3,1.4
			s0.5,0.5,1,0.5c0.4,0,0.8-0.2,1-0.5s0.3-0.8,0.3-1.4v-0.1c0-0.6-0.1-1-0.3-1.4s-0.5-0.5-1-0.5s-0.8,0.2-1,0.5s-0.3,0.8-0.3,1.4
			V177.6z"/>
		<path class="st5" d="M317.4,180c-0.2,0.3-0.4,0.5-0.7,0.7s-0.6,0.2-0.9,0.2c-0.8,0-1.4-0.3-1.8-0.9s-0.6-1.3-0.6-2.3v-0.1
			c0-1,0.2-1.8,0.7-2.4s1-0.9,1.8-0.9c0.3,0,0.6,0.1,0.9,0.2s0.5,0.3,0.7,0.6v-2.3l-0.9-0.2v-1h0.9h1.7v7.9l0.8,0.2v1h-2.3
			L317.4,180z M315,177.7c0,0.6,0.1,1,0.3,1.3s0.5,0.5,0.9,0.5c0.3,0,0.5-0.1,0.7-0.2s0.3-0.2,0.5-0.4v-2.7
			c-0.1-0.2-0.3-0.4-0.4-0.5s-0.4-0.2-0.6-0.2c-0.4,0-0.7,0.2-0.9,0.6s-0.3,0.9-0.3,1.5V177.7z"/>
		<path class="st5" d="M323.4,180.9c-0.9,0-1.6-0.3-2.2-0.9s-0.8-1.3-0.8-2.2v-0.2c0-0.9,0.3-1.7,0.8-2.3s1.2-0.9,2.1-0.9
			c0.9,0,1.5,0.3,2,0.8s0.7,1.2,0.7,2.1v0.9h-3.8l0,0c0,0.4,0.2,0.8,0.4,1s0.6,0.4,1,0.4c0.4,0,0.7,0,0.9-0.1s0.5-0.2,0.8-0.4
			l0.5,1.1c-0.3,0.2-0.6,0.4-1,0.5S324,180.9,323.4,180.9z M323.3,175.6c-0.3,0-0.6,0.1-0.8,0.4s-0.3,0.6-0.3,1l0,0h2.1v-0.2
			c0-0.4-0.1-0.7-0.3-0.9S323.6,175.6,323.3,175.6z"/>
		<path class="st5" d="M329.8,180.7v-1.1l2.8-3c0.4-0.5,0.7-0.8,0.8-1.2s0.3-0.6,0.3-0.9c0-0.4-0.1-0.7-0.3-0.9s-0.5-0.3-0.8-0.3
			c-0.4,0-0.7,0.1-0.9,0.4s-0.3,0.6-0.3,1.1h-1.7l0,0c0-0.8,0.2-1.4,0.8-2s1.2-0.8,2.1-0.8c0.9,0,1.6,0.2,2.1,0.7s0.8,1.1,0.8,1.8
			c0,0.5-0.1,1-0.4,1.4s-0.8,1-1.4,1.7l-1.5,1.7l0,0h2.2l0.1-0.8h1.3v2.2H329.8z"/>
	</g>
	<path class="st7" d="M257.9,135.6h118.8c2.8,0,5,2.2,5,5v12.8c0,2.8-2.2,5-5,5H257.9c-2.8,0-5-2.2-5-5v-12.8
		C252.9,137.9,255.1,135.6,257.9,135.6z"/>
	<g class="st4">
		<path class="st5" d="M292.4,146.1v-1h2.5l0.1,0.8c0.2-0.3,0.5-0.5,0.8-0.7s0.7-0.2,1.1-0.2c0.4,0,0.8,0.1,1,0.3s0.5,0.5,0.7,0.8
			c0.2-0.3,0.4-0.6,0.8-0.8s0.7-0.3,1.1-0.3c0.6,0,1.1,0.2,1.5,0.6s0.5,1.1,0.5,2v2.6l0.8,0.2v1h-3.3v-1l0.7-0.2v-2.6
			c0-0.5-0.1-0.8-0.2-1s-0.4-0.3-0.7-0.3c-0.2,0-0.5,0.1-0.6,0.2s-0.3,0.3-0.4,0.4c0,0.1,0,0.1,0,0.2s0,0.1,0,0.2v3l0.7,0.2v1h-3.1
			v-1l0.7-0.2v-2.6c0-0.5-0.1-0.8-0.2-1s-0.4-0.3-0.7-0.3c-0.2,0-0.4,0-0.6,0.1s-0.3,0.2-0.4,0.4v3.4l0.7,0.2v1h-3.3v-1l0.8-0.2
			v-3.9L292.4,146.1z"/>
		<path class="st5" d="M307.8,151.4c0-0.1-0.1-0.2-0.1-0.3s-0.1-0.2-0.1-0.3c-0.2,0.2-0.5,0.4-0.7,0.6s-0.6,0.2-1,0.2
			c-0.6,0-1.1-0.2-1.5-0.5s-0.5-0.8-0.5-1.4c0-0.6,0.2-1.1,0.7-1.4s1.2-0.5,2.1-0.5h0.9v-0.6c0-0.3-0.1-0.5-0.3-0.7
			s-0.4-0.3-0.8-0.3c-0.2,0-0.4,0-0.5,0.1s-0.3,0.1-0.4,0.2l-0.1,0.7h-1.3l0-1.4c0.3-0.2,0.7-0.4,1.1-0.5s0.8-0.2,1.3-0.2
			c0.8,0,1.4,0.2,1.9,0.6s0.7,0.9,0.7,1.6v2.6c0,0.1,0,0.2,0,0.3s0,0.2,0,0.2l0.5,0.1v1H307.8z M306.3,150.2c0.3,0,0.5-0.1,0.7-0.2
			s0.4-0.3,0.5-0.4v-1h-0.9c-0.4,0-0.6,0.1-0.8,0.3s-0.3,0.4-0.3,0.6c0,0.2,0.1,0.4,0.2,0.5S306,150.2,306.3,150.2z"/>
		<path class="st5" d="M310.2,150.4l0.8-0.2v-3.9l-0.9-0.2v-1h2.5l0.1,0.9c0.2-0.3,0.5-0.6,0.8-0.8s0.7-0.3,1-0.3
			c0.6,0,1.1,0.2,1.5,0.6s0.5,1,0.5,1.9v2.8l0.8,0.2v1h-3.3v-1l0.7-0.2v-2.8c0-0.4-0.1-0.7-0.3-0.9s-0.4-0.3-0.8-0.3
			c-0.2,0-0.4,0-0.6,0.1s-0.3,0.2-0.5,0.4v3.4l0.7,0.2v1h-3.2V150.4z"/>
		<path class="st5" d="M322,151.4c0-0.1-0.1-0.2-0.1-0.3s-0.1-0.2-0.1-0.3c-0.2,0.2-0.5,0.4-0.7,0.6s-0.6,0.2-1,0.2
			c-0.6,0-1.1-0.2-1.5-0.5s-0.5-0.8-0.5-1.4c0-0.6,0.2-1.1,0.7-1.4s1.2-0.5,2.1-0.5h0.9v-0.6c0-0.3-0.1-0.5-0.3-0.7
			s-0.4-0.3-0.8-0.3c-0.2,0-0.4,0-0.5,0.1s-0.3,0.1-0.4,0.2l-0.1,0.7h-1.3l0-1.4c0.3-0.2,0.7-0.4,1.1-0.5s0.8-0.2,1.3-0.2
			c0.8,0,1.4,0.2,1.9,0.6s0.7,0.9,0.7,1.6v2.6c0,0.1,0,0.2,0,0.3s0,0.2,0,0.2l0.5,0.1v1H322z M320.5,150.2c0.3,0,0.5-0.1,0.7-0.2
			s0.4-0.3,0.5-0.4v-1h-0.9c-0.4,0-0.6,0.1-0.8,0.3s-0.3,0.4-0.3,0.6c0,0.2,0.1,0.4,0.2,0.5S320.2,150.2,320.5,150.2z"/>
		<path class="st5" d="M324.6,148.3c0-1,0.2-1.8,0.7-2.4s1-0.9,1.8-0.9c0.4,0,0.7,0.1,0.9,0.2s0.5,0.4,0.7,0.7l0.1-0.8h1.5v6.2
			c0,0.8-0.3,1.5-0.8,2s-1.2,0.7-2.2,0.7c-0.3,0-0.7,0-1-0.1s-0.7-0.2-1-0.4l0.3-1.2c0.3,0.1,0.5,0.2,0.8,0.3s0.6,0.1,0.9,0.1
			c0.4,0,0.7-0.1,0.9-0.4s0.3-0.6,0.3-1.1v-0.4c-0.2,0.2-0.4,0.4-0.7,0.5s-0.5,0.2-0.9,0.2c-0.8,0-1.4-0.3-1.8-0.9s-0.7-1.3-0.7-2.3
			V148.3z M326.3,148.4c0,0.6,0.1,1,0.3,1.3s0.5,0.5,0.9,0.5c0.3,0,0.5,0,0.7-0.1s0.3-0.2,0.4-0.4v-2.8c-0.1-0.2-0.3-0.3-0.4-0.4
			s-0.4-0.2-0.7-0.2c-0.4,0-0.7,0.2-0.9,0.6s-0.3,0.9-0.3,1.5V148.4z"/>
		<path class="st5" d="M334.4,151.5c-0.9,0-1.6-0.3-2.2-0.9s-0.8-1.3-0.8-2.2v-0.2c0-0.9,0.3-1.7,0.8-2.3s1.2-0.9,2.1-0.9
			c0.9,0,1.5,0.3,2,0.8s0.7,1.2,0.7,2.1v0.9h-3.8l0,0c0,0.4,0.2,0.8,0.4,1s0.6,0.4,1,0.4c0.4,0,0.7,0,0.9-0.1s0.5-0.2,0.8-0.4
			l0.5,1.1c-0.3,0.2-0.6,0.4-1,0.5S334.9,151.5,334.4,151.5z M334.3,146.3c-0.3,0-0.6,0.1-0.8,0.4s-0.3,0.6-0.3,1l0,0h2.1v-0.2
			c0-0.4-0.1-0.7-0.3-0.9S334.6,146.3,334.3,146.3z"/>
		<path class="st5" d="M337.9,150.4l0.8-0.2v-3.9l-0.9-0.2v-1h2.5l0.1,0.9c0.1-0.3,0.3-0.6,0.6-0.8s0.5-0.3,0.8-0.3
			c0.1,0,0.2,0,0.3,0s0.2,0,0.2,0l-0.2,1.6l-0.7,0c-0.3,0-0.5,0-0.6,0.1s-0.3,0.2-0.4,0.4v3.1l0.8,0.2v1h-3.4V150.4z"/>
	</g>
</g>
<g id="schrift">
	<g class="st4">
		<path class="st8" d="M162,82.5h-1.3l-0.2-1.2c-0.2-0.1-0.4-0.2-0.7-0.2s-0.6-0.1-0.9-0.1c-0.5,0-0.8,0.1-1.1,0.3
			c-0.3,0.2-0.4,0.5-0.4,0.8c0,0.3,0.1,0.5,0.4,0.7c0.3,0.2,0.7,0.4,1.4,0.6c1,0.3,1.7,0.6,2.2,1s0.7,1,0.7,1.7
			c0,0.7-0.3,1.3-0.9,1.7s-1.4,0.6-2.3,0.6c-0.7,0-1.3-0.1-1.8-0.3s-1-0.5-1.4-0.9v-1.8h1.3l0.2,1.2c0.2,0.1,0.4,0.3,0.7,0.3
			s0.6,0.1,1,0.1c0.5,0,0.8-0.1,1.1-0.3s0.4-0.4,0.4-0.8c0-0.3-0.1-0.6-0.4-0.8c-0.2-0.2-0.6-0.4-1.2-0.6c-1-0.3-1.8-0.6-2.3-1
			c-0.5-0.4-0.8-1-0.8-1.7c0-0.7,0.3-1.3,0.9-1.7s1.3-0.7,2.2-0.7c0.7,0,1.3,0.1,1.8,0.3s1,0.5,1.4,0.8V82.5z"/>
		<path class="st8" d="M169.4,82.5h-1.3l-0.2-1.2c-0.2-0.1-0.4-0.2-0.7-0.2s-0.6-0.1-0.9-0.1c-0.5,0-0.8,0.1-1.1,0.3
			c-0.3,0.2-0.4,0.5-0.4,0.8c0,0.3,0.1,0.5,0.4,0.7c0.3,0.2,0.7,0.4,1.4,0.6c1,0.3,1.7,0.6,2.2,1s0.7,1,0.7,1.7
			c0,0.7-0.3,1.3-0.9,1.7s-1.4,0.6-2.3,0.6c-0.7,0-1.3-0.1-1.8-0.3s-1-0.5-1.4-0.9v-1.8h1.3l0.2,1.2c0.2,0.1,0.4,0.3,0.7,0.3
			s0.6,0.1,1,0.1c0.5,0,0.8-0.1,1.1-0.3s0.4-0.4,0.4-0.8c0-0.3-0.1-0.6-0.4-0.8c-0.2-0.2-0.6-0.4-1.2-0.6c-1-0.3-1.8-0.6-2.3-1
			c-0.5-0.4-0.8-1-0.8-1.7c0-0.7,0.3-1.3,0.9-1.7s1.3-0.7,2.2-0.7c0.7,0,1.3,0.1,1.8,0.3s1,0.5,1.4,0.8V82.5z"/>
		<path class="st8" d="M170.2,80.8v-1h3.6v1l-0.9,0.2v2.5h3.5v-2.5l-0.9-0.2v-1h0.9h1.7h0.9v1l-0.9,0.2v6.1l0.9,0.2v1h-3.6v-1
			l0.9-0.2v-2.3h-3.5v2.3l0.9,0.2v1h-3.6v-1l0.9-0.2v-6.1L170.2,80.8z"/>
		<path class="st8" d="M185.2,80.4v1.6h1.1v1.2h-1.1v3.2c0,0.2,0.1,0.4,0.2,0.5s0.2,0.2,0.4,0.2c0.1,0,0.2,0,0.3,0s0.2,0,0.3,0
			l0.1,1.2c-0.2,0.1-0.4,0.1-0.6,0.1c-0.2,0-0.4,0-0.6,0c-0.6,0-1.1-0.2-1.4-0.5s-0.5-0.8-0.5-1.5v-3.2h-0.9v-1.2h0.9v-1.6H185.2z"
			/>
		<path class="st8" d="M191.7,87.5c-0.2,0.3-0.5,0.5-0.8,0.7s-0.6,0.2-1,0.2c-0.7,0-1.2-0.2-1.6-0.6s-0.6-1.1-0.6-2v-2.6L187,83v-1
			h0.7h1.7v3.8c0,0.5,0.1,0.8,0.2,1s0.4,0.3,0.7,0.3c0.3,0,0.5,0,0.7-0.1s0.4-0.2,0.5-0.4v-3.4l-0.8-0.2v-1h0.8h1.7v5.1l0.8,0.2v1
			h-2.3L191.7,87.5z"/>
		<path class="st8" d="M194.7,87.2l0.8-0.2v-3.9l-0.9-0.2v-1h2.5l0.1,0.9c0.2-0.3,0.5-0.6,0.8-0.8c0.3-0.2,0.7-0.3,1-0.3
			c0.6,0,1.2,0.2,1.5,0.6c0.4,0.4,0.5,1,0.5,1.9v2.8l0.8,0.2v1h-3.3v-1l0.7-0.2v-2.8c0-0.4-0.1-0.7-0.3-0.9
			c-0.2-0.2-0.4-0.3-0.8-0.3c-0.2,0-0.4,0-0.6,0.1c-0.2,0.1-0.3,0.2-0.5,0.4v3.4l0.7,0.2v1h-3.3V87.2z"/>
	</g>
	<g class="st4">
		<path class="st8" d="M202.4,87.2l0.8-0.2v-3.9l-0.9-0.2v-1h2.5l0.1,0.9c0.2-0.3,0.5-0.6,0.8-0.8c0.3-0.2,0.7-0.3,1-0.3
			c0.6,0,1.2,0.2,1.5,0.6c0.4,0.4,0.5,1,0.5,1.9v2.8l0.8,0.2v1h-3.3v-1l0.7-0.2v-2.8c0-0.4-0.1-0.7-0.3-0.9
			c-0.2-0.2-0.4-0.3-0.8-0.3c-0.2,0-0.4,0-0.6,0.1c-0.2,0.1-0.3,0.2-0.5,0.4v3.4l0.7,0.2v1h-3.3V87.2z"/>
	</g>
	<g class="st4">
		<path class="st8" d="M213.1,88.4c-0.9,0-1.7-0.3-2.2-0.9s-0.8-1.3-0.8-2.2V85c0-0.9,0.3-1.7,0.8-2.3c0.5-0.6,1.2-0.9,2.1-0.9
			c0.9,0,1.5,0.3,2,0.8c0.5,0.5,0.7,1.2,0.7,2.1v0.9h-3.8l0,0c0,0.4,0.2,0.8,0.4,1s0.6,0.4,1,0.4c0.4,0,0.7,0,1-0.1s0.5-0.2,0.8-0.4
			l0.5,1.1c-0.3,0.2-0.6,0.4-1,0.5C214.1,88.3,213.7,88.4,213.1,88.4z M213,83.1c-0.3,0-0.6,0.1-0.8,0.4s-0.3,0.6-0.3,1l0,0h2.1
			v-0.2c0-0.4-0.1-0.7-0.3-0.9C213.6,83.2,213.3,83.1,213,83.1z"/>
		<path class="st8" d="M216.4,80.2v-1h2.7v7.9l0.8,0.2v1h-3.4v-1l0.8-0.2v-6.7L216.4,80.2z"/>
	</g>
	<g class="st4">
		<path class="st8" d="M418.8,82.5h-1.3l-0.2-1.2c-0.2-0.1-0.4-0.2-0.7-0.2s-0.6-0.1-0.9-0.1c-0.5,0-0.8,0.1-1.1,0.3
			c-0.3,0.2-0.4,0.5-0.4,0.8c0,0.3,0.1,0.5,0.4,0.7c0.3,0.2,0.7,0.4,1.4,0.6c1,0.3,1.7,0.6,2.2,1s0.7,1,0.7,1.7
			c0,0.7-0.3,1.3-0.9,1.7s-1.4,0.6-2.3,0.6c-0.7,0-1.3-0.1-1.8-0.3c-0.5-0.2-1-0.5-1.4-0.9v-1.8h1.3l0.2,1.2
			c0.2,0.1,0.4,0.3,0.7,0.3s0.6,0.1,1,0.1c0.5,0,0.8-0.1,1.1-0.3s0.4-0.4,0.4-0.8c0-0.3-0.1-0.6-0.4-0.8s-0.6-0.4-1.2-0.6
			c-1-0.3-1.8-0.6-2.3-1c-0.5-0.4-0.8-1-0.8-1.7c0-0.7,0.3-1.3,0.9-1.7s1.3-0.7,2.2-0.7c0.7,0,1.3,0.1,1.8,0.3
			c0.5,0.2,1,0.5,1.4,0.8V82.5z"/>
		<path class="st8" d="M426.1,82.5h-1.3l-0.2-1.2c-0.2-0.1-0.4-0.2-0.7-0.2c-0.3-0.1-0.6-0.1-0.9-0.1c-0.5,0-0.8,0.1-1.1,0.3
			c-0.3,0.2-0.4,0.5-0.4,0.8c0,0.3,0.1,0.5,0.4,0.7c0.3,0.2,0.7,0.4,1.4,0.6c1,0.3,1.7,0.6,2.2,1c0.5,0.4,0.7,1,0.7,1.7
			c0,0.7-0.3,1.3-0.9,1.7s-1.4,0.6-2.3,0.6c-0.7,0-1.3-0.1-1.8-0.3s-1-0.5-1.4-0.9v-1.8h1.3l0.2,1.2c0.2,0.1,0.4,0.3,0.7,0.3
			c0.3,0.1,0.6,0.1,1,0.1c0.5,0,0.8-0.1,1.1-0.3c0.2-0.2,0.4-0.4,0.4-0.8c0-0.3-0.1-0.6-0.4-0.8c-0.2-0.2-0.6-0.4-1.2-0.6
			c-1-0.3-1.8-0.6-2.3-1c-0.5-0.4-0.8-1-0.8-1.7c0-0.7,0.3-1.3,0.9-1.7s1.3-0.7,2.2-0.7c0.7,0,1.3,0.1,1.8,0.3s1,0.5,1.4,0.8V82.5z"
			/>
		<path class="st8" d="M426.9,80.8v-1h3.6v1l-0.9,0.2v2.5h3.5v-2.5l-0.9-0.2v-1h0.9h1.7h0.9v1l-0.9,0.2v6.1l0.9,0.2v1h-3.6v-1
			l0.9-0.2v-2.3h-3.5v2.3l0.9,0.2v1h-3.6v-1l0.9-0.2v-6.1L426.9,80.8z"/>
		<path class="st8" d="M442,80.4v1.6h1.1v1.2H442v3.2c0,0.2,0.1,0.4,0.2,0.5c0.1,0.1,0.2,0.2,0.4,0.2c0.1,0,0.2,0,0.3,0s0.2,0,0.3,0
			l0.1,1.2c-0.2,0.1-0.4,0.1-0.6,0.1s-0.4,0-0.6,0c-0.6,0-1.1-0.2-1.4-0.5c-0.3-0.3-0.5-0.8-0.5-1.5v-3.2h-0.9v-1.2h0.9v-1.6H442z"
			/>
		<path class="st8" d="M448.4,87.5c-0.2,0.3-0.5,0.5-0.8,0.7s-0.6,0.2-1,0.2c-0.7,0-1.2-0.2-1.6-0.6s-0.6-1.1-0.6-2v-2.6l-0.7-0.2
			v-1h0.7h1.7v3.8c0,0.5,0.1,0.8,0.2,1c0.2,0.2,0.4,0.3,0.7,0.3c0.3,0,0.5,0,0.7-0.1s0.4-0.2,0.5-0.4v-3.4l-0.8-0.2v-1h0.8h1.7v5.1
			l0.8,0.2v1h-2.3L448.4,87.5z"/>
		<path class="st8" d="M451.4,87.2l0.8-0.2v-3.9l-0.9-0.2v-1h2.5l0.1,0.9c0.2-0.3,0.5-0.6,0.8-0.8c0.3-0.2,0.7-0.3,1-0.3
			c0.6,0,1.2,0.2,1.5,0.6c0.4,0.4,0.5,1,0.5,1.9v2.8l0.8,0.2v1h-3.3v-1l0.7-0.2v-2.8c0-0.4-0.1-0.7-0.3-0.9
			c-0.2-0.2-0.4-0.3-0.8-0.3c-0.2,0-0.4,0-0.6,0.1s-0.3,0.2-0.5,0.4v3.4l0.7,0.2v1h-3.3V87.2z"/>
	</g>
	<g class="st4">
		<path class="st8" d="M459.1,87.2l0.8-0.2v-3.9L459,83v-1h2.5l0.1,0.9c0.2-0.3,0.5-0.6,0.8-0.8s0.7-0.3,1-0.3
			c0.6,0,1.2,0.2,1.5,0.6c0.4,0.4,0.5,1,0.5,1.9v2.8l0.8,0.2v1H463v-1l0.7-0.2v-2.8c0-0.4-0.1-0.7-0.3-0.9s-0.4-0.3-0.8-0.3
			c-0.2,0-0.4,0-0.6,0.1s-0.3,0.2-0.5,0.4v3.4l0.7,0.2v1h-3.3V87.2z"/>
	</g>
	<g class="st4">
		<path class="st8" d="M469.9,88.4c-0.9,0-1.7-0.3-2.2-0.9c-0.6-0.6-0.8-1.3-0.8-2.2V85c0-0.9,0.3-1.7,0.8-2.3
			c0.5-0.6,1.2-0.9,2.1-0.9c0.9,0,1.5,0.3,2,0.8c0.5,0.5,0.7,1.2,0.7,2.1v0.9h-3.8l0,0c0,0.4,0.2,0.8,0.4,1c0.3,0.3,0.6,0.4,1,0.4
			c0.4,0,0.7,0,1-0.1c0.3-0.1,0.5-0.2,0.8-0.4l0.5,1.1c-0.3,0.2-0.6,0.4-1,0.5C470.9,88.3,470.4,88.4,469.9,88.4z M469.7,83.1
			c-0.3,0-0.6,0.1-0.8,0.4s-0.3,0.6-0.3,1l0,0h2.1v-0.2c0-0.4-0.1-0.7-0.3-0.9C470.4,83.2,470.1,83.1,469.7,83.1z"/>
		<path class="st8" d="M473.1,80.2v-1h2.7v7.9l0.8,0.2v1h-3.4v-1l0.8-0.2v-6.7L473.1,80.2z"/>
	</g>
	<path class="st9" d="M178.3,303.6h278c2.8,0,5,2.2,5,5v20.2c0,2.8-2.2,5-5,5h-278c-2.8,0-5-2.2-5-5v-20.2
		C173.3,305.8,175.5,303.6,178.3,303.6z"/>
	<g class="st4">
		<path class="st5" d="M256.8,313.3c0.3-0.1,0.7-0.1,1-0.1s0.6,0,0.9,0c0.3,0,0.6,0,0.9,0.1s0.5,0.2,0.8,0.4
			c0.2,0.2,0.4,0.4,0.5,0.6s0.2,0.6,0.2,1c0,0.7-0.2,1.3-0.6,1.8c-0.4,0.5-1,0.8-1.8,0.9l0.4,0.4l1.3,3.3h-1l-1.4-3.6l-1.1-0.2
			l-0.8,3.8h-1L256.8,313.3z M258.6,314c-0.2,0-0.4,0-0.6,0c-0.2,0-0.4,0-0.5,0.1l-0.7,3.1h0.8c0.3,0,0.6,0,0.8-0.1
			c0.3-0.1,0.5-0.2,0.7-0.3c0.2-0.1,0.4-0.3,0.5-0.6c0.1-0.2,0.2-0.6,0.2-0.9c0-0.1,0-0.3-0.1-0.4c-0.1-0.1-0.1-0.3-0.3-0.4
			c-0.1-0.1-0.3-0.2-0.4-0.3C259.1,314.1,258.9,314,258.6,314z"/>
	</g>
	<g class="st4">
		<path class="st5" d="M265.5,321.1c-0.3,0.2-0.6,0.4-1,0.5c-0.4,0.1-0.8,0.2-1.1,0.2c-0.6,0-1.1-0.2-1.4-0.6
			c-0.3-0.4-0.5-0.9-0.5-1.5c0-0.7,0.1-1.2,0.3-1.8c0.2-0.5,0.4-1,0.7-1.3c0.3-0.4,0.6-0.6,1-0.8c0.4-0.2,0.8-0.3,1.2-0.3
			c0.3,0,0.5,0,0.8,0.1c0.2,0.1,0.4,0.2,0.5,0.3c0.1,0.1,0.2,0.3,0.3,0.5s0.1,0.4,0.1,0.5c0,0.6-0.3,1-0.8,1.3
			c-0.6,0.3-1.4,0.5-2.4,0.5c-0.1,0-0.2,0-0.3,0s-0.2,0-0.3,0c0,0.2-0.1,0.3-0.1,0.4c0,0.1,0,0.3,0,0.4c0,0.4,0.1,0.8,0.3,1.1
			c0.2,0.3,0.5,0.4,0.9,0.4c0.4,0,0.7-0.1,1-0.2c0.3-0.1,0.5-0.2,0.7-0.4L265.5,321.1z M264.5,316.3c-0.4,0-0.8,0.2-1.1,0.5
			c-0.3,0.3-0.6,0.8-0.7,1.3c0.3,0,0.6,0,0.9,0c0.3,0,0.6-0.1,0.9-0.1c0.3-0.1,0.5-0.2,0.7-0.3c0.2-0.1,0.3-0.4,0.3-0.6
			c0-0.1,0-0.2,0-0.2c0-0.1-0.1-0.2-0.1-0.2c-0.1-0.1-0.2-0.1-0.3-0.2C264.8,316.3,264.6,316.3,264.5,316.3z"/>
	</g>
	<g class="st4">
		<path class="st5" d="M270.8,321.1c-0.1,0.1-0.3,0.2-0.4,0.3c-0.2,0.1-0.3,0.1-0.5,0.2s-0.3,0.1-0.5,0.1s-0.3,0-0.5,0
			c-0.4,0-0.7-0.1-1-0.2s-0.5-0.3-0.6-0.5c-0.1-0.2-0.2-0.4-0.3-0.6c-0.1-0.2-0.1-0.4-0.1-0.6c0-0.7,0.1-1.3,0.3-1.8s0.4-1,0.7-1.4
			c0.3-0.4,0.7-0.7,1.1-0.9c0.4-0.2,0.8-0.3,1.2-0.3c0.3,0,0.6,0,0.8,0.1c0.2,0.1,0.4,0.1,0.5,0.2l-0.3,0.7
			c-0.1-0.1-0.3-0.1-0.5-0.2c-0.2,0-0.4-0.1-0.6-0.1c-0.3,0-0.5,0.1-0.8,0.3c-0.3,0.2-0.5,0.4-0.7,0.7c-0.2,0.3-0.4,0.6-0.5,1
			c-0.1,0.4-0.2,0.8-0.2,1.2c0,0.5,0.1,0.9,0.3,1.2c0.2,0.2,0.5,0.4,0.9,0.4c0.2,0,0.5-0.1,0.8-0.2c0.3-0.1,0.5-0.2,0.6-0.3
			L270.8,321.1z"/>
	</g>
	<g class="st4">
		<path class="st5" d="M271.7,319.8c0-0.6,0.1-1.2,0.2-1.7c0.2-0.5,0.4-1,0.7-1.3s0.6-0.7,1-0.9s0.8-0.3,1.2-0.3
			c0.3,0,0.6,0.1,0.9,0.2c0.2,0.1,0.4,0.3,0.6,0.4c0.1,0.2,0.3,0.4,0.3,0.6c0.1,0.2,0.1,0.5,0.1,0.8c0,0.6-0.1,1.2-0.2,1.7
			c-0.2,0.5-0.4,1-0.6,1.4s-0.6,0.7-1,0.9c-0.4,0.2-0.8,0.3-1.2,0.3c-0.4,0-0.7-0.1-0.9-0.2c-0.2-0.1-0.4-0.3-0.6-0.5
			c-0.2-0.2-0.3-0.4-0.3-0.6C271.7,320.3,271.7,320,271.7,319.8z M272.6,319.6c0,0.5,0.1,0.8,0.3,1.1c0.2,0.3,0.5,0.4,0.8,0.4
			c0.3,0,0.5-0.1,0.8-0.3c0.2-0.2,0.4-0.4,0.6-0.8c0.2-0.3,0.3-0.7,0.4-1.1c0.1-0.4,0.2-0.8,0.2-1.3c0-0.4-0.1-0.7-0.2-1
			c-0.1-0.2-0.4-0.4-0.8-0.4c-0.3,0-0.5,0.1-0.8,0.3c-0.2,0.2-0.5,0.4-0.6,0.7s-0.3,0.7-0.4,1C272.7,318.7,272.6,319.1,272.6,319.6z
			"/>
		<path class="st5" d="M280.7,321.7l0.7-3.4c0.1-0.3,0.1-0.5,0.1-0.7c0-0.2,0-0.4,0-0.6c0-0.2,0-0.4-0.1-0.5
			c-0.1-0.1-0.2-0.2-0.4-0.2c-0.2,0-0.4,0.1-0.6,0.2c-0.2,0.1-0.4,0.2-0.5,0.4s-0.3,0.3-0.5,0.5c-0.1,0.2-0.3,0.3-0.3,0.5l-0.8,3.9
			h-0.9l1.3-6h0.6l-0.1,1h0c0.1-0.1,0.3-0.3,0.4-0.4c0.1-0.1,0.3-0.3,0.5-0.4c0.2-0.1,0.4-0.2,0.6-0.3c0.2-0.1,0.4-0.1,0.7-0.1
			c0.4,0,0.6,0.1,0.7,0.3c0.1,0.2,0.2,0.5,0.2,0.9c0.1-0.2,0.3-0.3,0.4-0.5c0.2-0.2,0.3-0.3,0.5-0.4c0.2-0.1,0.4-0.2,0.6-0.3
			c0.2-0.1,0.4-0.1,0.6-0.1c0.4,0,0.6,0.1,0.8,0.3c0.2,0.2,0.3,0.5,0.3,1c0,0.3-0.1,0.8-0.2,1.3l-0.8,3.6h-0.9l0.8-3.6
			c0-0.2,0.1-0.4,0.1-0.6c0-0.2,0-0.3,0-0.5c0-0.2,0-0.4-0.1-0.5s-0.2-0.2-0.4-0.2c-0.2,0-0.3,0.1-0.5,0.2c-0.2,0.1-0.4,0.2-0.5,0.4
			c-0.2,0.2-0.3,0.3-0.5,0.5s-0.3,0.4-0.3,0.5l-0.8,3.8H280.7z"/>
		<path class="st5" d="M289.9,321.7l0.7-3.4c0.1-0.3,0.1-0.5,0.1-0.7c0-0.2,0-0.4,0-0.6c0-0.2,0-0.4-0.1-0.5
			c-0.1-0.1-0.2-0.2-0.4-0.2c-0.2,0-0.4,0.1-0.6,0.2c-0.2,0.1-0.4,0.2-0.5,0.4s-0.3,0.3-0.5,0.5c-0.1,0.2-0.3,0.3-0.3,0.5l-0.8,3.9
			h-0.9l1.3-6h0.6l-0.1,1h0c0.1-0.1,0.3-0.3,0.4-0.4c0.1-0.1,0.3-0.3,0.5-0.4c0.2-0.1,0.4-0.2,0.6-0.3c0.2-0.1,0.4-0.1,0.7-0.1
			c0.4,0,0.6,0.1,0.7,0.3c0.1,0.2,0.2,0.5,0.2,0.9c0.1-0.2,0.3-0.3,0.4-0.5c0.2-0.2,0.3-0.3,0.5-0.4c0.2-0.1,0.4-0.2,0.6-0.3
			c0.2-0.1,0.4-0.1,0.6-0.1c0.4,0,0.6,0.1,0.8,0.3c0.2,0.2,0.3,0.5,0.3,1c0,0.3-0.1,0.8-0.2,1.3l-0.8,3.6h-0.9l0.8-3.6
			c0-0.2,0.1-0.4,0.1-0.6c0-0.2,0-0.3,0-0.5c0-0.2,0-0.4-0.1-0.5s-0.2-0.2-0.4-0.2c-0.2,0-0.3,0.1-0.5,0.2c-0.2,0.1-0.4,0.2-0.5,0.4
			c-0.2,0.2-0.3,0.3-0.5,0.5s-0.3,0.4-0.3,0.5l-0.8,3.8H289.9z"/>
		<path class="st5" d="M300,321.1c-0.3,0.2-0.6,0.4-1,0.5c-0.4,0.1-0.8,0.2-1.1,0.2c-0.6,0-1.1-0.2-1.4-0.6
			c-0.3-0.4-0.5-0.9-0.5-1.5c0-0.7,0.1-1.2,0.3-1.8c0.2-0.5,0.4-1,0.7-1.3c0.3-0.4,0.6-0.6,1-0.8c0.4-0.2,0.8-0.3,1.2-0.3
			c0.3,0,0.5,0,0.8,0.1c0.2,0.1,0.4,0.2,0.5,0.3c0.1,0.1,0.2,0.3,0.3,0.5s0.1,0.4,0.1,0.5c0,0.6-0.3,1-0.8,1.3
			c-0.6,0.3-1.4,0.5-2.4,0.5c-0.1,0-0.2,0-0.3,0s-0.2,0-0.3,0c0,0.2-0.1,0.3-0.1,0.4c0,0.1,0,0.3,0,0.4c0,0.4,0.1,0.8,0.3,1.1
			c0.2,0.3,0.5,0.4,0.9,0.4c0.4,0,0.7-0.1,1-0.2c0.3-0.1,0.5-0.2,0.7-0.4L300,321.1z M299,316.3c-0.4,0-0.8,0.2-1.1,0.5
			c-0.3,0.3-0.6,0.8-0.7,1.3c0.3,0,0.6,0,0.9,0c0.3,0,0.6-0.1,0.9-0.1c0.3-0.1,0.5-0.2,0.7-0.3c0.2-0.1,0.3-0.4,0.3-0.6
			c0-0.1,0-0.2,0-0.2c0-0.1-0.1-0.2-0.1-0.2c-0.1-0.1-0.2-0.1-0.3-0.2C299.3,316.3,299.2,316.3,299,316.3z"/>
		<path class="st5" d="M304.9,321.7l0.8-3.8c0-0.1,0.1-0.3,0.1-0.4s0-0.3,0-0.4c0-0.2-0.1-0.4-0.2-0.6c-0.1-0.1-0.3-0.2-0.6-0.2
			c-0.2,0-0.4,0-0.6,0.1c-0.2,0.1-0.4,0.2-0.6,0.4c-0.2,0.1-0.3,0.3-0.5,0.5c-0.1,0.2-0.3,0.4-0.4,0.5l-0.8,3.8h-0.9l1.3-6h0.6l0,1
			h0c0.1-0.1,0.2-0.3,0.4-0.4c0.1-0.1,0.3-0.3,0.5-0.4s0.4-0.2,0.6-0.3c0.2-0.1,0.5-0.1,0.7-0.1c0.4,0,0.7,0.1,0.9,0.3
			c0.2,0.2,0.3,0.5,0.3,1c0,0.2,0,0.5-0.1,0.9l-0.9,4H304.9z"/>
		<path class="st5" d="M312.2,319.6c-0.1,0.3-0.1,0.6-0.1,0.9c0,0.3,0,0.5,0,0.8c0,0.1,0,0.2,0,0.2c0,0.1,0,0.1,0,0.2h-0.6l-0.2-1h0
			c-0.1,0.1-0.2,0.3-0.4,0.4c-0.1,0.1-0.3,0.3-0.5,0.4c-0.2,0.1-0.4,0.2-0.6,0.3c-0.2,0.1-0.4,0.1-0.6,0.1c-0.4,0-0.8-0.2-1-0.5
			c-0.3-0.3-0.4-0.8-0.4-1.5c0-0.5,0.1-1,0.2-1.5c0.1-0.5,0.3-1,0.6-1.4c0.3-0.4,0.6-0.7,1-1s0.9-0.4,1.4-0.4c0.1,0,0.3,0,0.4,0
			c0.1,0,0.2,0,0.3,0c0.1,0,0.2,0,0.3,0.1c0.1,0,0.2,0.1,0.3,0.1l0.5-2.5h0.9L312.2,319.6z M309.6,321c0.2,0,0.3,0,0.5-0.1
			c0.2-0.1,0.3-0.2,0.5-0.3c0.2-0.1,0.3-0.3,0.4-0.4s0.2-0.3,0.3-0.4l0.7-3.1c-0.1-0.1-0.3-0.2-0.5-0.2s-0.4-0.1-0.7-0.1
			c-0.3,0-0.6,0.1-0.9,0.3s-0.5,0.5-0.7,0.8c-0.2,0.3-0.3,0.7-0.4,1.1c-0.1,0.4-0.1,0.9-0.1,1.3c0,0.3,0.1,0.6,0.2,0.8
			C309.1,320.9,309.3,321,309.6,321z"/>
		<path class="st5" d="M318,321.1c-0.3,0.2-0.6,0.4-1,0.5c-0.4,0.1-0.8,0.2-1.1,0.2c-0.6,0-1.1-0.2-1.4-0.6
			c-0.3-0.4-0.5-0.9-0.5-1.5c0-0.7,0.1-1.2,0.3-1.8c0.2-0.5,0.4-1,0.7-1.3c0.3-0.4,0.6-0.6,1-0.8c0.4-0.2,0.8-0.3,1.2-0.3
			c0.3,0,0.5,0,0.8,0.1c0.2,0.1,0.4,0.2,0.5,0.3c0.1,0.1,0.2,0.3,0.3,0.5c0.1,0.2,0.1,0.4,0.1,0.5c0,0.6-0.3,1-0.8,1.3
			c-0.6,0.3-1.4,0.5-2.4,0.5c-0.1,0-0.2,0-0.3,0s-0.2,0-0.3,0c0,0.2-0.1,0.3-0.1,0.4c0,0.1,0,0.3,0,0.4c0,0.4,0.1,0.8,0.3,1.1
			c0.2,0.3,0.5,0.4,0.9,0.4c0.4,0,0.7-0.1,1-0.2c0.3-0.1,0.5-0.2,0.7-0.4L318,321.1z M316.9,316.3c-0.4,0-0.8,0.2-1.1,0.5
			c-0.3,0.3-0.6,0.8-0.7,1.3c0.3,0,0.6,0,0.9,0c0.3,0,0.6-0.1,0.9-0.1c0.3-0.1,0.5-0.2,0.7-0.3c0.2-0.1,0.3-0.4,0.3-0.6
			c0-0.1,0-0.2,0-0.2c0-0.1-0.1-0.2-0.1-0.2c-0.1-0.1-0.2-0.1-0.3-0.2C317.3,316.3,317.1,316.3,316.9,316.3z"/>
		<path class="st5" d="M323.9,319.6c-0.1,0.3-0.1,0.6-0.1,0.9c0,0.3,0,0.5,0,0.8c0,0.1,0,0.2,0,0.2c0,0.1,0,0.1,0,0.2h-0.6l-0.2-1h0
			c-0.1,0.1-0.2,0.3-0.4,0.4c-0.1,0.1-0.3,0.3-0.5,0.4c-0.2,0.1-0.4,0.2-0.6,0.3c-0.2,0.1-0.4,0.1-0.6,0.1c-0.4,0-0.8-0.2-1-0.5
			s-0.4-0.8-0.4-1.5c0-0.5,0.1-1,0.2-1.5c0.1-0.5,0.3-1,0.6-1.4s0.6-0.7,1-1c0.4-0.3,0.9-0.4,1.4-0.4c0.1,0,0.3,0,0.4,0
			c0.1,0,0.2,0,0.3,0c0.1,0,0.2,0,0.3,0.1c0.1,0,0.2,0.1,0.3,0.1l0.5-2.5h0.9L323.9,319.6z M321.2,321c0.2,0,0.3,0,0.5-0.1
			c0.2-0.1,0.3-0.2,0.5-0.3c0.2-0.1,0.3-0.3,0.4-0.4s0.2-0.3,0.3-0.4l0.7-3.1c-0.1-0.1-0.3-0.2-0.5-0.2s-0.4-0.1-0.7-0.1
			c-0.3,0-0.6,0.1-0.9,0.3s-0.5,0.5-0.7,0.8s-0.3,0.7-0.4,1.1s-0.1,0.9-0.1,1.3c0,0.3,0.1,0.6,0.2,0.8
			C320.7,320.9,320.9,321,321.2,321z"/>
		<path class="st5" d="M333.1,319.3c-0.1,0.3-0.1,0.6-0.1,0.9c0,0.3,0,0.6,0,0.9c0,0.1,0,0.2,0,0.3c0,0.1,0,0.2,0,0.3h-0.7l-0.2-1h0
			c-0.1,0.1-0.2,0.3-0.4,0.4c-0.1,0.1-0.3,0.3-0.5,0.4c-0.2,0.1-0.3,0.2-0.5,0.3c-0.2,0.1-0.4,0.1-0.6,0.1c-1,0-1.4-0.6-1.4-1.9
			c0-0.5,0.1-1,0.2-1.6c0.1-0.5,0.3-1,0.6-1.4s0.6-0.8,1.1-1c0.4-0.3,1-0.4,1.6-0.4c0.2,0,0.5,0,0.8,0.1c0.3,0.1,0.6,0.1,0.9,0.2
			L333.1,319.3z M330.4,321c0.2,0,0.4,0,0.6-0.1s0.3-0.2,0.5-0.3c0.2-0.1,0.3-0.3,0.4-0.4s0.2-0.3,0.3-0.4l0.7-3.2
			c-0.2-0.1-0.5-0.2-0.9-0.2s-0.7,0.1-1,0.3c-0.3,0.2-0.5,0.5-0.7,0.8c-0.2,0.3-0.3,0.7-0.4,1.2c-0.1,0.4-0.1,0.9-0.1,1.3
			c0,0.3,0.1,0.6,0.2,0.8C330,320.9,330.1,321,330.4,321z"/>
		<path class="st5" d="M335.6,320.2c0,0.1,0,0.2,0,0.3c0,0.2,0,0.3,0.1,0.3c0.1,0.1,0.1,0.1,0.2,0.1c0.2,0,0.3,0,0.4,0
			c0.1,0,0.2-0.1,0.4-0.1v0.7c-0.1,0-0.2,0.1-0.3,0.1c-0.1,0-0.2,0-0.3,0.1c-0.1,0-0.2,0-0.3,0c-0.1,0-0.2,0-0.3,0
			c-0.3,0-0.5-0.1-0.7-0.2s-0.3-0.4-0.3-0.7c0-0.2,0-0.4,0.1-0.6l1.5-7h0.9L335.6,320.2z"/>
		<path class="st5" d="M338.1,315.7h0.9l0.3-1.2l1-0.3l-0.3,1.5h1.6l-0.2,0.8h-1.6l-0.8,3.6c0,0.1,0,0.2,0,0.3s0,0.2,0,0.2
			c0,0.2,0,0.3,0.1,0.4c0.1,0.1,0.2,0.1,0.4,0.1c0.2,0,0.4,0,0.5-0.1s0.3-0.1,0.5-0.2v0.7c-0.2,0.1-0.4,0.2-0.6,0.2
			c-0.3,0.1-0.5,0.1-0.8,0.1c-0.7,0-1.1-0.3-1.1-1c0-0.1,0-0.3,0.1-0.5l0.8-3.9h-0.9L338.1,315.7z"/>
		<path class="st5" d="M345.7,321.1c-0.3,0.2-0.6,0.4-1,0.5s-0.8,0.2-1.1,0.2c-0.6,0-1.1-0.2-1.4-0.6c-0.3-0.4-0.5-0.9-0.5-1.5
			c0-0.7,0.1-1.2,0.3-1.8c0.2-0.5,0.4-1,0.7-1.3c0.3-0.4,0.6-0.6,1-0.8c0.4-0.2,0.8-0.3,1.2-0.3c0.3,0,0.5,0,0.8,0.1
			c0.2,0.1,0.4,0.2,0.5,0.3s0.2,0.3,0.3,0.5c0.1,0.2,0.1,0.4,0.1,0.5c0,0.6-0.3,1-0.8,1.3s-1.4,0.5-2.4,0.5c-0.1,0-0.2,0-0.3,0
			c-0.1,0-0.2,0-0.3,0c0,0.2-0.1,0.3-0.1,0.4c0,0.1,0,0.3,0,0.4c0,0.4,0.1,0.8,0.3,1.1s0.5,0.4,0.9,0.4c0.4,0,0.7-0.1,1-0.2
			c0.3-0.1,0.5-0.2,0.7-0.4L345.7,321.1z M344.6,316.3c-0.4,0-0.8,0.2-1.1,0.5s-0.6,0.8-0.7,1.3c0.3,0,0.6,0,0.9,0
			c0.3,0,0.6-0.1,0.9-0.1c0.3-0.1,0.5-0.2,0.7-0.3c0.2-0.1,0.3-0.4,0.3-0.6c0-0.1,0-0.2,0-0.2c0-0.1-0.1-0.2-0.1-0.2
			c-0.1-0.1-0.2-0.1-0.3-0.2C345,316.3,344.8,316.3,344.6,316.3z"/>
		<path class="st5" d="M350.9,316.5c-0.1,0-0.1,0-0.2,0c-0.1,0-0.1,0-0.2,0c-0.4,0-0.8,0.1-1.1,0.4s-0.5,0.6-0.7,0.9l-0.8,3.9H347
			l1.3-6h0.6v1h0c0.1-0.2,0.2-0.3,0.3-0.4c0.1-0.1,0.2-0.3,0.4-0.4c0.1-0.1,0.3-0.2,0.4-0.2c0.2-0.1,0.3-0.1,0.5-0.1
			c0.2,0,0.4,0,0.6,0.1L350.9,316.5z"/>
		<path class="st5" d="M354.4,321.7l0.8-3.8c0-0.1,0.1-0.3,0.1-0.4c0-0.1,0-0.3,0-0.4c0-0.2-0.1-0.4-0.2-0.6
			c-0.1-0.1-0.3-0.2-0.6-0.2c-0.2,0-0.4,0-0.6,0.1c-0.2,0.1-0.4,0.2-0.6,0.4c-0.2,0.1-0.3,0.3-0.5,0.5s-0.3,0.4-0.4,0.5l-0.8,3.8
			h-0.9l1.3-6h0.6l0,1h0c0.1-0.1,0.2-0.3,0.4-0.4c0.1-0.1,0.3-0.3,0.5-0.4c0.2-0.1,0.4-0.2,0.6-0.3c0.2-0.1,0.5-0.1,0.7-0.1
			c0.4,0,0.7,0.1,0.9,0.3c0.2,0.2,0.3,0.5,0.3,1c0,0.2,0,0.5-0.1,0.9l-0.9,4H354.4z"/>
		<path class="st5" d="M361.7,319.3c-0.1,0.3-0.1,0.6-0.1,0.9s0,0.6,0,0.9c0,0.1,0,0.2,0,0.3c0,0.1,0,0.2,0,0.3h-0.7l-0.2-1h0
			c-0.1,0.1-0.2,0.3-0.4,0.4c-0.1,0.1-0.3,0.3-0.5,0.4c-0.2,0.1-0.3,0.2-0.5,0.3c-0.2,0.1-0.4,0.1-0.6,0.1c-1,0-1.4-0.6-1.4-1.9
			c0-0.5,0.1-1,0.2-1.6c0.1-0.5,0.3-1,0.6-1.4s0.6-0.8,1.1-1c0.4-0.3,1-0.4,1.6-0.4c0.2,0,0.5,0,0.8,0.1c0.3,0.1,0.6,0.1,0.9,0.2
			L361.7,319.3z M359,321c0.2,0,0.4,0,0.6-0.1s0.3-0.2,0.5-0.3c0.2-0.1,0.3-0.3,0.4-0.4s0.2-0.3,0.3-0.4l0.7-3.2
			c-0.2-0.1-0.5-0.2-0.9-0.2s-0.7,0.1-1,0.3c-0.3,0.2-0.5,0.5-0.7,0.8c-0.2,0.3-0.3,0.7-0.4,1.2c-0.1,0.4-0.1,0.9-0.1,1.3
			c0,0.3,0.1,0.6,0.2,0.8C358.5,320.9,358.7,321,359,321z"/>
		<path class="st5" d="M363.4,315.7h0.9l0.3-1.2l1-0.3l-0.3,1.5h1.6l-0.2,0.8h-1.6l-0.8,3.6c0,0.1,0,0.2,0,0.3c0,0.1,0,0.2,0,0.2
			c0,0.2,0,0.3,0.1,0.4c0.1,0.1,0.2,0.1,0.4,0.1c0.2,0,0.4,0,0.5-0.1s0.3-0.1,0.5-0.2v0.7c-0.2,0.1-0.4,0.2-0.6,0.2
			c-0.3,0.1-0.5,0.1-0.8,0.1c-0.7,0-1.1-0.3-1.1-1c0-0.1,0-0.3,0.1-0.5l0.8-3.9h-0.9L363.4,315.7z"/>
		<path class="st5" d="M368.3,315.7h0.9l-1.3,6H367L368.3,315.7z M368.4,313.8c0-0.2,0.1-0.3,0.2-0.5s0.3-0.2,0.5-0.2
			c0.2,0,0.3,0.1,0.5,0.2s0.2,0.3,0.2,0.5s-0.1,0.3-0.2,0.5s-0.3,0.2-0.5,0.2c-0.2,0-0.3-0.1-0.5-0.2S368.4,314,368.4,313.8z"/>
	</g>
	<g class="st4">
		<path class="st5" d="M371.7,319.2l0.1,1.1h0l0.5-1.2l2-3.5h1l-3.7,6.1h-0.4l-1.2-6.1h1L371.7,319.2z"/>
	</g>
	<g class="st4">
		<path class="st5" d="M379.3,321.1c-0.3,0.2-0.6,0.4-1,0.5c-0.4,0.1-0.8,0.2-1.1,0.2c-0.6,0-1.1-0.2-1.4-0.6
			c-0.3-0.4-0.5-0.9-0.5-1.5c0-0.7,0.1-1.2,0.3-1.8c0.2-0.5,0.4-1,0.7-1.3c0.3-0.4,0.6-0.6,1-0.8c0.4-0.2,0.8-0.3,1.2-0.3
			c0.3,0,0.5,0,0.8,0.1c0.2,0.1,0.4,0.2,0.5,0.3c0.1,0.1,0.2,0.3,0.3,0.5c0.1,0.2,0.1,0.4,0.1,0.5c0,0.6-0.3,1-0.8,1.3
			c-0.6,0.3-1.4,0.5-2.4,0.5c-0.1,0-0.2,0-0.3,0c-0.1,0-0.2,0-0.3,0c0,0.2-0.1,0.3-0.1,0.4c0,0.1,0,0.3,0,0.4c0,0.4,0.1,0.8,0.3,1.1
			c0.2,0.3,0.5,0.4,0.9,0.4c0.4,0,0.7-0.1,1-0.2s0.5-0.2,0.7-0.4L379.3,321.1z M378.2,316.3c-0.4,0-0.8,0.2-1.1,0.5
			c-0.3,0.3-0.6,0.8-0.7,1.3c0.3,0,0.6,0,0.9,0c0.3,0,0.6-0.1,0.9-0.1c0.3-0.1,0.5-0.2,0.7-0.3c0.2-0.1,0.3-0.4,0.3-0.6
			c0-0.1,0-0.2,0-0.2s-0.1-0.2-0.1-0.2c-0.1-0.1-0.2-0.1-0.3-0.2S378.4,316.3,378.2,316.3z"/>
	</g>
	<path class="st10" d="M68.3,54.5c-0.6,0-1-0.4-1-1V49c0-1.5,0.6-2.9,1.8-3.9c0.8-0.8,1.9-1.3,3-1.5c0.3-0.1,0.5-0.1,0.8-0.1v-0.1
		c-3.3-0.8-5.6-3.8-5.6-7.1v-1.6C65.9,34.2,65,33,65,31.5c0-0.6,0.2-1.1,0.4-1.6l-1.2-4c-0.8-2.8-0.2-5.7,1.5-8
		c1.2-1.8,3.1-2.9,5.2-3.1h7.6c1.5,0,2.9,1,3.3,2.5c2.2,0.3,4.2,1,5.4,2.7c1.4,1.9,1.5,4.9,0.5,9.8c0,0,0,0.1,0,0.1
		c0.3,0.5,0.4,1.1,0.4,1.7c0,1.5-1,2.8-2.4,3.2v1.6c0,3.3-2.2,6.3-5.4,7.1l0,0c0.3,0,0.6,0,0.9,0.1c1.1,0.2,2.2,0.7,2.9,1.6
		c1.1,1,1.6,2.4,1.6,3.9v4.5c0,0.6-0.4,1-1,1L68.3,54.5z"/>
	<path class="st5" d="M78.5,15.8c1.3,0,2.3,1,2.4,2.3c0,0,0,0.1,0,0.1c5.5,0.7,7.7,2.4,5.9,11.4h-0.6c0.6,0.5,1,1.2,1,2
		c0,1.3-1.1,2.3-2.4,2.4L84.7,34v2.4c0,3.2-2.3,5.8-5.4,6.3v1.9h0.8c0.3,0,0.6,0,0.9,0.1c0.9,0.1,1.8,0.6,2.5,1.2
		c0.9,0.8,1.4,2,1.4,3.2v4.5H68.3V49c0-1.2,0.5-2.4,1.4-3.2c0.7-0.7,1.6-1.1,2.5-1.3c0.3-0.1,0.5-0.1,0.8-0.1h0.8v-1.9h-0.1
		c-3.2-0.4-5.5-3.1-5.5-6.3v-2.4l0,0C67,33.8,66,32.8,66,31.5c0-0.6,0.3-1.2,0.7-1.6c0.1-0.1,0.2-0.2,0.3-0.3h-0.7l-1.2-3.9
		c-1.5-5,2.5-9.8,5.8-9.8L78.5,15.8 M78.6,13.8H71c-2.5,0.2-4.7,1.4-6.1,3.5c-1.9,2.5-2.6,5.8-1.7,8.9l1.1,3.6
		c-0.2,0.5-0.4,1.1-0.4,1.7c0,1.6,0.9,3.1,2.3,3.8v0.9c0,2.8,1.4,5.4,3.7,7c-0.6,0.3-1.1,0.7-1.6,1.1c-1.3,1.2-2.1,2.9-2.1,4.7v4.5
		c0,1.1,0.9,2,2,2h16.5c1.1,0,2-0.9,2-2V49c0-1.7-0.7-3.4-2-4.6c-0.5-0.5-1-0.9-1.6-1.2c2.3-1.6,3.6-4.2,3.6-6.9v-0.8
		c1.5-0.7,2.4-2.2,2.4-3.9c0-0.6-0.1-1.2-0.4-1.8c1-5.1,0.8-8.2-0.7-10.3c-1.3-1.8-3.4-2.6-5.5-3C81.8,14.8,80.3,13.8,78.6,13.8
		L78.6,13.8z"/>
	<g class="st4">
		<path class="st5" d="M51,65c1.1,0,1.9,0.3,2.6,1c0.7,0.7,1,1.6,1,2.6v1.4c0,1.1-0.3,1.9-1,2.6c-0.7,0.7-1.6,1-2.6,1h-3.9v-1
			l0.9-0.2v-6.2L47.1,66V65h0.9H51z M49.8,66.3v6h1.2c0.6,0,1.1-0.2,1.5-0.6c0.4-0.4,0.5-1,0.5-1.7v-1.5c0-0.7-0.2-1.2-0.5-1.6
			c-0.4-0.4-0.8-0.6-1.5-0.6H49.8z"/>
	</g>
	<g class="st4">
		<path class="st5" d="M58.7,73.8c-0.9,0-1.7-0.3-2.2-0.9s-0.8-1.4-0.8-2.3v-0.2c0-1,0.3-1.8,0.8-2.4c0.5-0.6,1.2-0.9,2.1-0.9
			c0.9,0,1.5,0.3,2,0.8c0.5,0.5,0.7,1.2,0.7,2.1v1h-3.9l0,0c0,0.4,0.2,0.8,0.4,1.1c0.3,0.3,0.6,0.4,1,0.4c0.4,0,0.7,0,1-0.1
			c0.3-0.1,0.5-0.2,0.8-0.4l0.5,1.1c-0.3,0.2-0.6,0.4-1,0.5C59.7,73.7,59.2,73.8,58.7,73.8z M58.5,68.4c-0.3,0-0.6,0.1-0.8,0.4
			c-0.2,0.2-0.3,0.6-0.3,1l0,0h2.1v-0.2c0-0.4-0.1-0.7-0.3-0.9C59.1,68.5,58.9,68.4,58.5,68.4z"/>
		<path class="st5" d="M64.7,68.3l-0.6,0.1l0.9,2.9l0.1,0.6h0l0.1-0.6l0.8-2.9l-0.6-0.1v-1.1h2.9v1.1l-0.6,0.1l-1.9,5.3h-1.7
			l-1.9-5.3l-0.6-0.1v-1.1h2.9V68.3z"/>
	</g>
	<g class="st4">
		<path class="st5" d="M72,73.8c-0.9,0-1.7-0.3-2.2-0.9c-0.6-0.6-0.8-1.4-0.8-2.3v-0.2c0-1,0.3-1.8,0.8-2.4c0.5-0.6,1.2-0.9,2.1-0.9
			c0.9,0,1.5,0.3,2,0.8c0.5,0.5,0.7,1.2,0.7,2.1v1h-3.9l0,0c0,0.4,0.2,0.8,0.4,1.1c0.3,0.3,0.6,0.4,1,0.4c0.4,0,0.7,0,1-0.1
			c0.3-0.1,0.5-0.2,0.8-0.4l0.5,1.1c-0.3,0.2-0.6,0.4-1,0.5S72.6,73.8,72,73.8z M71.9,68.4c-0.3,0-0.6,0.1-0.8,0.4
			c-0.2,0.2-0.3,0.6-0.3,1l0,0h2.1v-0.2c0-0.4-0.1-0.7-0.3-0.9C72.5,68.5,72.2,68.4,71.9,68.4z"/>
	</g>
	<g class="st4">
		<path class="st5" d="M75.3,65.4v-1.1H78v8.1l0.8,0.2v1h-3.4v-1l0.8-0.2v-6.9L75.3,65.4z"/>
	</g>
	<g class="st4">
		<path class="st5" d="M79.2,70.4c0-1,0.3-1.8,0.8-2.4c0.5-0.6,1.3-0.9,2.2-0.9c1,0,1.7,0.3,2.2,0.9c0.5,0.6,0.8,1.4,0.8,2.4v0.1
			c0,1-0.3,1.8-0.8,2.4c-0.5,0.6-1.3,0.9-2.2,0.9c-1,0-1.7-0.3-2.3-0.9c-0.5-0.6-0.8-1.4-0.8-2.4V70.4z M81,70.5
			c0,0.6,0.1,1.1,0.3,1.4c0.2,0.4,0.5,0.5,1,0.5c0.5,0,0.8-0.2,1-0.5c0.2-0.4,0.3-0.8,0.3-1.4v-0.1c0-0.6-0.1-1-0.3-1.4
			c-0.2-0.4-0.5-0.5-1-0.5c-0.5,0-0.8,0.2-1,0.5c-0.2,0.4-0.3,0.8-0.3,1.4V70.5z"/>
		<path class="st5" d="M86,68.3v-1.1h2.5l0.1,0.8c0.2-0.3,0.4-0.5,0.7-0.6c0.3-0.2,0.6-0.2,0.9-0.2c0.8,0,1.4,0.3,1.9,0.9
			c0.4,0.6,0.7,1.4,0.7,2.5v0.1c0,1-0.2,1.7-0.7,2.3s-1.1,0.9-1.9,0.9c-0.3,0-0.6-0.1-0.9-0.2c-0.3-0.1-0.5-0.3-0.7-0.6v1.9l0.8,0.2
			v1.1h-3.4v-1.1l0.8-0.2v-6.5L86,68.3z M91,70.5c0-0.6-0.1-1.1-0.3-1.5c-0.2-0.4-0.5-0.6-0.9-0.6c-0.3,0-0.5,0.1-0.7,0.2
			c-0.2,0.1-0.3,0.3-0.4,0.5v2.8c0.1,0.2,0.3,0.3,0.4,0.4c0.2,0.1,0.4,0.1,0.7,0.1c0.4,0,0.7-0.2,0.9-0.5c0.2-0.3,0.3-0.8,0.3-1.3
			V70.5z"/>
		<path class="st5" d="M96.6,73.8c-0.9,0-1.7-0.3-2.2-0.9c-0.6-0.6-0.8-1.4-0.8-2.3v-0.2c0-1,0.3-1.8,0.8-2.4
			c0.5-0.6,1.2-0.9,2.1-0.9c0.9,0,1.5,0.3,2,0.8c0.5,0.5,0.7,1.2,0.7,2.1v1h-3.9l0,0c0,0.4,0.2,0.8,0.4,1.1c0.3,0.3,0.6,0.4,1,0.4
			c0.4,0,0.7,0,1-0.1c0.3-0.1,0.5-0.2,0.8-0.4l0.5,1.1c-0.3,0.2-0.6,0.4-1,0.5S97.1,73.8,96.6,73.8z M96.5,68.4
			c-0.3,0-0.6,0.1-0.8,0.4c-0.2,0.2-0.3,0.6-0.3,1l0,0h2.1v-0.2c0-0.4-0.1-0.7-0.3-0.9C97.1,68.5,96.8,68.4,96.5,68.4z"/>
		<path class="st5" d="M100.2,72.6l0.8-0.2v-4l-0.9-0.2v-1.1h2.6l0.1,0.9c0.2-0.3,0.3-0.6,0.6-0.8c0.2-0.2,0.5-0.3,0.8-0.3
			c0.1,0,0.2,0,0.3,0c0.1,0,0.2,0,0.3,0.1l-0.2,1.6l-0.7,0c-0.3,0-0.5,0-0.6,0.1c-0.2,0.1-0.3,0.2-0.4,0.4v3.1l0.8,0.2v1h-3.4V72.6z
			"/>
	</g>
	<path class="st5" d="M79.7,30.3c0.4,0,0.7,0.3,0.7,0.7c0,0.4-0.3,0.7-0.7,0.7S79,31.4,79,31C79,30.6,79.3,30.3,79.7,30.3z"/>
	<circle class="st5" cx="73.8" cy="31" r="0.7"/>
	<path class="st11" d="M79.5,36.3c-0.2,1.4-1.3,2.4-2.7,2.4c-1.4,0-2.5-1-2.8-2.4H79.5z"/>
	<polyline class="st11" points="68.3,29.1 68.3,28.3 68.3,26.3 	"/>
	<path class="st11" d="M68.3,33.9v-0.4"/>
	<path class="st11" d="M85.2,33.5v0.4"/>
	<polyline class="st11" points="85.2,26.3 85.2,28.1 85.2,29.1 	"/>
	<path class="st11" d="M85.2,33.1v-4c0.5,0,1,0.1,1.4,0.4c0.6,0.5,1,1.2,1,2c0,1.3-1.1,2.4-2.4,2.4"/>
	<path class="st11" d="M68.3,33.1v-4c-0.6,0-1.3,0.2-1.7,0.7c-0.5,0.4-0.7,1-0.7,1.7c0,1.3,1.1,2.4,2.4,2.4"/>
	<path class="st11" d="M74,36.3c0.2,1.4,1.4,2.4,2.8,2.4c1.4,0,2.6-1,2.7-2.4H74z"/>
	<path class="st11" d="M66.3,29.5l-1.2-4c-1.5-5.1,2.6-10,5.9-10h7.7c1.3,0,2.4,1,2.4,2.3c0,0,0,0.1,0,0.1c5.6,0.7,7.9,2.5,6,11.6"
		/>
	<path class="st11" d="M68.3,28.3h2.4c0.9,0,1.6-0.7,1.6-1.6c0-0.6,0.2-1.3,0.7-1.7c0.5-0.4,1.1-0.7,1.7-0.7h0.5
		c1.5,0,2.9-0.6,4-1.6l1.2-1.2v0.3c0,1.8,0.9,3.5,2.3,4.6l2.5,1.8"/>
	<path class="st11" d="M78,33.9h-4.1c-0.9,0-1.6,0.7-1.6,1.6v0.6c-0.1,0.6-0.6,1-1.2,1c-0.7,0-1.2-0.5-1.2-1.2v-1.2
		c0-0.9-0.7-1.6-1.6-1.6v3.2c0,3.2,2.4,6,5.6,6.4c0.2,0,0.6,0.1,0.8,0.1h4.7c3.3-0.4,5.7-3.1,5.7-6.4v-3.3c-0.9,0-1.6,0.7-1.6,1.6
		v1.2c0,0.7-0.6,1.2-1.2,1.2c-0.6,0-1.1-0.4-1.2-1v-0.6c0-0.9-0.7-1.6-1.6-1.6h-1.7"/>
	<path class="st11" d="M74,43v1.6h-0.8c-0.3,0-0.5,0-0.8,0.1c-1,0.2-1.9,0.6-2.6,1.3c-0.9,0.8-1.5,2-1.4,3.3v4.6h16.8v-4.6
		c0-1.2-0.5-2.4-1.4-3.3c-0.7-0.7-1.5-1.2-2.5-1.3c-0.3-0.1-0.6-0.1-0.9-0.1h-0.8V43"/>
	<path class="st10" d="M551.5,54.5c-0.6,0-1-0.4-1-1V49c0-1.5,0.6-2.9,1.8-3.9c0.8-0.8,1.9-1.3,3-1.5c0.3-0.1,0.5-0.1,0.8-0.1v-0.1
		c-3.3-0.8-5.6-3.8-5.6-7.1v-1.6c-1.4-0.5-2.3-1.7-2.3-3.2c0-0.6,0.2-1.1,0.5-1.6l-1.2-4c-0.8-2.8-0.2-5.7,1.5-8
		c1.2-1.8,3.1-2.9,5.3-3.1h7.5c1.5,0,2.8,1,3.2,2.5c2.2,0.3,4.2,1,5.5,2.7c1.4,1.9,1.5,4.9,0.5,9.8c0,0,0,0.1,0,0.1
		c0.3,0.5,0.4,1.1,0.4,1.7c0,1.5-1,2.8-2.4,3.2v1.6c0,3.3-2.2,6.3-5.4,7.1l0,0c0.3,0,0.6,0,0.9,0.1c1.1,0.2,2.2,0.7,2.9,1.6
		c1,1,1.6,2.4,1.6,3.9v4.5c0,0.6-0.4,1-1,1L551.5,54.5z"/>
	<path class="st5" d="M561.7,15.8c1.3,0,2.3,1,2.4,2.3c0,0,0,0.1,0,0.1c5.5,0.7,7.7,2.4,5.9,11.4h-0.6c0.7,0.5,1,1.2,1,2
		c-0.1,1.3-1.1,2.3-2.3,2.3l-0.1,0.1v2.4c0,3.2-2.3,5.8-5.4,6.3v1.9h0.8c0.3,0,0.6,0,0.9,0.1c0.9,0.1,1.8,0.6,2.4,1.3
		c0.9,0.8,1.4,2,1.4,3.2v4.5h-16.5V49c0-1.2,0.5-2.4,1.4-3.2c0.7-0.7,1.6-1.1,2.5-1.3c0.3-0.1,0.5-0.1,0.8-0.1h0.8v-1.9h-0.1
		c-3.2-0.4-5.5-3.1-5.5-6.3v-2.4l0,0c-1.3,0-2.3-1.1-2.3-2.4c0-0.6,0.3-1.2,0.7-1.6c0.1-0.1,0.2-0.2,0.3-0.3h-0.7l-1.2-3.9
		c-1.5-5,2.5-9.8,5.8-9.8L561.7,15.8 M561.7,13.8h-7.5c-2.5,0.2-4.7,1.4-6.1,3.5c-1.9,2.5-2.6,5.8-1.7,8.9l1.1,3.6
		c-0.9,2.1-0.1,4.5,1.9,5.5v0.9c0,2.8,1.4,5.4,3.7,7c-0.6,0.3-1.1,0.7-1.6,1.1c-1.3,1.2-2.1,2.9-2.1,4.7v4.5c0,1.1,0.9,2,2,2H568
		c1.1,0,2-0.9,2-2V49c0-1.7-0.7-3.4-2-4.6c-0.5-0.5-1-0.9-1.6-1.2c2.3-1.6,3.6-4.2,3.5-6.9v-0.8c1.5-0.7,2.4-2.2,2.4-3.9
		c0-0.6-0.1-1.2-0.4-1.8c1-5.1,0.8-8.2-0.8-10.3c-1.3-1.8-3.4-2.6-5.5-3C565,14.8,563.4,13.8,561.7,13.8L561.7,13.8z"/>
	<g class="st4">
		<path class="st5" d="M534.2,65c1.1,0,1.9,0.3,2.6,1c0.7,0.7,1,1.6,1,2.6v1.4c0,1.1-0.3,1.9-1,2.6c-0.7,0.7-1.6,1-2.6,1h-3.9v-1
			l0.9-0.2v-6.2l-0.9-0.2V65h0.9H534.2z M533,66.3v6h1.2c0.6,0,1.1-0.2,1.5-0.6c0.4-0.4,0.5-1,0.5-1.7v-1.5c0-0.7-0.2-1.2-0.5-1.6
			c-0.4-0.4-0.8-0.6-1.5-0.6H533z"/>
	</g>
	<g class="st4">
		<path class="st5" d="M541.9,73.8c-0.9,0-1.7-0.3-2.2-0.9c-0.6-0.6-0.8-1.4-0.8-2.3v-0.2c0-1,0.3-1.8,0.8-2.4
			c0.5-0.6,1.2-0.9,2.1-0.9c0.9,0,1.5,0.3,2,0.8c0.5,0.5,0.7,1.2,0.7,2.1v1h-3.9l0,0c0,0.4,0.2,0.8,0.4,1.1c0.3,0.3,0.6,0.4,1,0.4
			c0.4,0,0.7,0,1-0.1c0.3-0.1,0.5-0.2,0.8-0.4l0.5,1.1c-0.3,0.2-0.6,0.4-1,0.5C542.9,73.7,542.4,73.8,541.9,73.8z M541.7,68.4
			c-0.3,0-0.6,0.1-0.8,0.4s-0.3,0.6-0.3,1l0,0h2.1v-0.2c0-0.4-0.1-0.7-0.3-0.9C542.3,68.5,542.1,68.4,541.7,68.4z"/>
		<path class="st5" d="M547.8,68.3l-0.6,0.1l0.9,2.9l0.1,0.6h0l0.1-0.6l0.8-2.9l-0.6-0.1v-1.1h2.9v1.1l-0.6,0.1l-1.9,5.3h-1.7
			l-1.9-5.3l-0.6-0.1v-1.1h2.9V68.3z"/>
	</g>
	<g class="st4">
		<path class="st5" d="M555.2,73.8c-0.9,0-1.7-0.3-2.2-0.9s-0.8-1.4-0.8-2.3v-0.2c0-1,0.3-1.8,0.8-2.4c0.5-0.6,1.2-0.9,2.1-0.9
			c0.9,0,1.5,0.3,2,0.8c0.5,0.5,0.7,1.2,0.7,2.1v1H554l0,0c0,0.4,0.2,0.8,0.4,1.1c0.3,0.3,0.6,0.4,1,0.4c0.4,0,0.7,0,1-0.1
			c0.3-0.1,0.5-0.2,0.8-0.4l0.5,1.1c-0.3,0.2-0.6,0.4-1,0.5C556.2,73.7,555.8,73.8,555.2,73.8z M555.1,68.4c-0.3,0-0.6,0.1-0.8,0.4
			c-0.2,0.2-0.3,0.6-0.3,1l0,0h2.1v-0.2c0-0.4-0.1-0.7-0.3-0.9C555.7,68.5,555.4,68.4,555.1,68.4z"/>
	</g>
	<g class="st4">
		<path class="st5" d="M558.5,65.4v-1.1h2.7v8.1l0.8,0.2v1h-3.4v-1l0.8-0.2v-6.9L558.5,65.4z"/>
	</g>
	<g class="st4">
		<path class="st5" d="M562.4,70.4c0-1,0.3-1.8,0.8-2.4c0.5-0.6,1.3-0.9,2.2-0.9c1,0,1.7,0.3,2.2,0.9c0.5,0.6,0.8,1.4,0.8,2.4v0.1
			c0,1-0.3,1.8-0.8,2.4c-0.5,0.6-1.3,0.9-2.2,0.9c-1,0-1.7-0.3-2.3-0.9c-0.5-0.6-0.8-1.4-0.8-2.4V70.4z M564.2,70.5
			c0,0.6,0.1,1.1,0.3,1.4s0.5,0.5,1,0.5c0.5,0,0.8-0.2,1-0.5c0.2-0.4,0.3-0.8,0.3-1.4v-0.1c0-0.6-0.1-1-0.3-1.4
			c-0.2-0.4-0.5-0.5-1-0.5c-0.5,0-0.8,0.2-1,0.5c-0.2,0.4-0.3,0.8-0.3,1.4V70.5z"/>
		<path class="st5" d="M569.2,68.3v-1.1h2.5l0.1,0.8c0.2-0.3,0.4-0.5,0.7-0.6s0.6-0.2,0.9-0.2c0.8,0,1.4,0.3,1.9,0.9
			c0.4,0.6,0.7,1.4,0.7,2.5v0.1c0,1-0.2,1.7-0.7,2.3s-1.1,0.9-1.9,0.9c-0.3,0-0.6-0.1-0.9-0.2c-0.3-0.1-0.5-0.3-0.7-0.6v1.9l0.8,0.2
			v1.1h-3.4v-1.1l0.8-0.2v-6.5L569.2,68.3z M574.2,70.5c0-0.6-0.1-1.1-0.3-1.5c-0.2-0.4-0.5-0.6-0.9-0.6c-0.3,0-0.5,0.1-0.7,0.2
			s-0.3,0.3-0.4,0.5v2.8c0.1,0.2,0.3,0.3,0.4,0.4s0.4,0.1,0.7,0.1c0.4,0,0.7-0.2,0.9-0.5c0.2-0.3,0.3-0.8,0.3-1.3V70.5z"/>
		<path class="st5" d="M579.8,73.8c-0.9,0-1.7-0.3-2.2-0.9s-0.8-1.4-0.8-2.3v-0.2c0-1,0.3-1.8,0.8-2.4c0.5-0.6,1.2-0.9,2.1-0.9
			c0.9,0,1.6,0.3,2,0.8c0.5,0.5,0.7,1.2,0.7,2.1v1h-3.9l0,0c0,0.4,0.2,0.8,0.4,1.1c0.3,0.3,0.6,0.4,1,0.4c0.4,0,0.7,0,1-0.1
			c0.3-0.1,0.5-0.2,0.8-0.4l0.5,1.1c-0.3,0.2-0.6,0.4-1,0.5S580.3,73.8,579.8,73.8z M579.6,68.4c-0.3,0-0.6,0.1-0.8,0.4
			c-0.2,0.2-0.3,0.6-0.3,1l0,0h2.1v-0.2c0-0.4-0.1-0.7-0.3-0.9C580.3,68.5,580,68.4,579.6,68.4z"/>
		<path class="st5" d="M583.4,72.6l0.8-0.2v-4l-0.9-0.2v-1.1h2.6l0.1,0.9c0.2-0.3,0.3-0.6,0.6-0.8c0.2-0.2,0.5-0.3,0.8-0.3
			c0.1,0,0.2,0,0.3,0c0.1,0,0.2,0,0.3,0.1l-0.2,1.6l-0.7,0c-0.3,0-0.5,0-0.6,0.1c-0.2,0.1-0.3,0.2-0.4,0.4v3.1l0.8,0.2v1h-3.4V72.6z
			"/>
	</g>
	<path class="st5" d="M562.9,30.3c0.4,0,0.7,0.3,0.7,0.7c0,0.4-0.3,0.7-0.7,0.7s-0.7-0.3-0.7-0.7C562.2,30.6,562.5,30.3,562.9,30.3z
		"/>
	<circle class="st5" cx="557" cy="31" r="0.7"/>
	<path class="st11" d="M562.7,36.3c-0.2,1.4-1.3,2.4-2.7,2.4c-1.4,0-2.6-1-2.8-2.4H562.7z"/>
	<polyline class="st11" points="551.5,29.1 551.5,28.3 551.5,26.3 	"/>
	<path class="st11" d="M551.5,33.9v-0.4"/>
	<path class="st11" d="M568.4,33.5v0.4"/>
	<polyline class="st11" points="568.4,26.3 568.4,28.1 568.4,29.1 	"/>
	<path class="st11" d="M568.4,33.1v-4c0.5,0,1,0.1,1.4,0.4c0.6,0.5,1,1.2,1,2c0,1.3-1.1,2.4-2.4,2.4"/>
	<path class="st11" d="M551.5,33.1v-4c-0.6,0-1.3,0.2-1.7,0.7c-0.4,0.4-0.7,1-0.7,1.7c0,1.3,1.1,2.4,2.4,2.4"/>
	<path class="st11" d="M557.1,36.3c0.2,1.4,1.4,2.5,2.9,2.4c1.4,0,2.6-1,2.7-2.4H557.1L557.1,36.3z"/>
	<path class="st11" d="M549.5,29.5l-1.2-4c-1.5-5.1,2.6-10,5.9-10h7.7c1.3,0,2.4,1,2.4,2.3c0,0,0,0,0,0.1c5.6,0.7,7.8,2.5,6,11.6"/>
	<path class="st11" d="M551.5,28.3h2.4c0.9,0,1.6-0.7,1.6-1.6c0-0.6,0.2-1.3,0.7-1.7c0.5-0.4,1.1-0.7,1.7-0.7h0.5
		c1.5,0,2.9-0.6,4-1.6l1.2-1.2v0.3c0,1.8,0.9,3.5,2.4,4.6l2.5,1.8"/>
	<path class="st11" d="M561.2,33.9h-4.1c-0.9,0-1.6,0.7-1.6,1.6v0.6c-0.1,0.6-0.6,1-1.2,1c-0.7,0-1.2-0.5-1.2-1.2v-1.2
		c0-0.9-0.7-1.6-1.6-1.6v3.2c0,3.2,2.4,6,5.6,6.4c0.2,0,0.6,0.1,0.8,0.1h4.7c3.3-0.4,5.7-3.1,5.7-6.4v-3.3c-0.9,0-1.6,0.7-1.6,1.6
		v1.2c0,0.7-0.5,1.2-1.2,1.2c-0.6,0-1.1-0.4-1.2-1v-0.6c0-0.9-0.7-1.6-1.6-1.6H561"/>
	<path class="st11" d="M557.1,43v1.6h-0.8c-0.3,0-0.5,0-0.8,0.1c-1,0.2-1.8,0.6-2.5,1.3c-0.9,0.8-1.5,2-1.5,3.3v4.6h16.8v-4.6
		c0-1.2-0.5-2.4-1.4-3.3c-0.7-0.7-1.5-1.2-2.5-1.3c-0.3-0.1-0.6-0.1-0.9-0.1h-0.8V43"/>
</g>
</svg>
