<?xml version="1.0" encoding="utf-8"?>
<!-- Generator: Adobe Illustrator 24.0.0, SVG Export Plug-In . SVG Version: 6.00 Build 0)  -->
<svg version="1.1" id="Ebene_1" xmlns="http://www.w3.org/2000/svg" xmlns:xlink="http://www.w3.org/1999/xlink" x="0px" y="0px"
	 viewBox="0 0 537.2 380.9" style="enable-background:new 0 0 537.2 380.9;" xml:space="preserve">
<style type="text/css">
	.st0{fill:none;stroke:#330066;stroke-width:2;stroke-miterlimit:10;}
	.st1{enable-background:new    ;}
	.st2{fill:#330066;}
	.st3{fill:#FFFFFF;stroke:#330066;stroke-width:2;stroke-linecap:round;stroke-linejoin:round;}
	.st4{fill:none;stroke:#330066;stroke-width:2;stroke-linecap:round;stroke-linejoin:round;}
	.st5{fill:#FFCC00;stroke:#330066;stroke-miterlimit:10;}
	.st6{fill:none;stroke:#3399FF;stroke-width:2;stroke-miterlimit:10;}
	.st7{fill:none;stroke:#990066;stroke-width:2;stroke-miterlimit:10;}
	.st8{fill:url(#SVGID_1_);stroke:#FFCC00;stroke-width:2;stroke-miterlimit:10;}
	.st9{fill:#FFCC00;}
	.st10{fill:#FFFFFF;stroke:#FFCC00;stroke-width:2;stroke-linecap:round;stroke-linejoin:round;}
	.st11{fill:none;stroke:#FFCC00;stroke-width:2;stroke-linecap:round;stroke-linejoin:round;}
	.st12{clip-path:url(#SVGID_3_);}
	.st13{clip-path:url(#SVGID_5_);}
	.st14{fill:#FFD138;}
	.st15{fill:#FDFEFF;}
	.st16{clip-path:url(#SVGID_7_);}
	.st17{clip-path:url(#SVGID_9_);}
	.st18{fill:#FFFFFF;}
	.st19{fill:#33CC99;}
	.st20{fill:none;stroke:#330066;stroke-linecap:round;stroke-linejoin:round;}
	.st21{fill:url(#SVGID_10_);stroke:#FFCC00;stroke-width:2;stroke-miterlimit:10;}
	.st22{clip-path:url(#SVGID_12_);}
	.st23{clip-path:url(#SVGID_14_);}
	.st24{fill:#3399FF;}
</style>
<g id="Ebene_2_1_">
	<path class="st0" d="M366.9,119.7h115c2.8,0,5,2.2,5,5v50c0,2.8-2.2,5-5,5h-115c-2.8,0-5-2.2-5-5v-50
		C361.9,121.9,364.1,119.7,366.9,119.7z"/>
	<g class="st1">
		<path class="st2" d="M391,146.7l0.6-0.1l2.6-7.6h1.8l2.6,7.6l0.6,0.1v1h-3v-1l0.6-0.1l-0.4-1.2h-2.8l-0.4,1.2l0.6,0.1v1h-3V146.7z
			 M394.2,144.1h2l-1-3.1h0L394.2,144.1z"/>
		<path class="st2" d="M399.8,142.3v-1.1h2.5l0.1,0.8c0.2-0.3,0.4-0.5,0.7-0.6c0.3-0.2,0.6-0.2,0.9-0.2c0.8,0,1.4,0.3,1.9,0.9
			c0.4,0.6,0.7,1.4,0.7,2.5v0.1c0,1-0.2,1.7-0.7,2.3s-1.1,0.9-1.9,0.9c-0.3,0-0.6-0.1-0.9-0.2c-0.3-0.1-0.5-0.3-0.7-0.6v1.9l0.8,0.2
			v1.1h-3.4v-1.1l0.8-0.2v-6.5L399.8,142.3z M404.8,144.6c0-0.6-0.1-1.1-0.3-1.5c-0.2-0.4-0.5-0.6-0.9-0.6c-0.3,0-0.5,0.1-0.7,0.2
			c-0.2,0.1-0.3,0.3-0.4,0.5v2.8c0.1,0.2,0.3,0.3,0.4,0.4c0.2,0.1,0.4,0.1,0.7,0.1c0.4,0,0.7-0.2,0.9-0.5c0.2-0.3,0.3-0.8,0.3-1.3
			V144.6z"/>
	</g>
	<g class="st1">
		<path class="st2" d="M407.2,142.3v-1.1h2.5l0.1,0.8c0.2-0.3,0.4-0.5,0.7-0.6s0.6-0.2,0.9-0.2c0.8,0,1.4,0.3,1.9,0.9
			c0.4,0.6,0.7,1.4,0.7,2.5v0.1c0,1-0.2,1.7-0.7,2.3s-1.1,0.9-1.9,0.9c-0.3,0-0.6-0.1-0.9-0.2c-0.3-0.1-0.5-0.3-0.7-0.6v1.9l0.8,0.2
			v1.1h-3.4v-1.1l0.8-0.2v-6.5L407.2,142.3z M412.3,144.6c0-0.6-0.1-1.1-0.3-1.5c-0.2-0.4-0.5-0.6-0.9-0.6c-0.3,0-0.5,0.1-0.7,0.2
			s-0.3,0.3-0.4,0.5v2.8c0.1,0.2,0.3,0.3,0.4,0.4s0.4,0.1,0.7,0.1c0.4,0,0.7-0.2,0.9-0.5c0.2-0.3,0.3-0.8,0.3-1.3V144.6z"/>
	</g>
	<g class="st1">
		<path class="st2" d="M414.5,139.5v-1.1h2.7v8.1l0.8,0.2v1h-3.4v-1l0.8-0.2v-6.9L414.5,139.5z"/>
		<path class="st2" d="M418.5,146.7l0.8-0.2v-4l-0.9-0.2v-1.1h2.7v5.2l0.8,0.2v1h-3.4V146.7z M421.1,139.7h-1.7v-1.3h1.7V139.7z"/>
		<path class="st2" d="M425.5,146.5c0.3,0,0.6-0.1,0.7-0.3c0.2-0.2,0.3-0.4,0.3-0.7h1.6l0,0c0,0.7-0.2,1.2-0.7,1.6
			c-0.5,0.4-1.1,0.7-1.9,0.7c-1,0-1.7-0.3-2.2-0.9c-0.5-0.6-0.8-1.4-0.8-2.3v-0.2c0-1,0.3-1.7,0.8-2.3c0.5-0.6,1.3-0.9,2.3-0.9
			c0.5,0,1,0.1,1.4,0.2c0.4,0.2,0.8,0.4,1,0.7l0,1.7h-1.4l-0.3-1c-0.1-0.1-0.2-0.1-0.3-0.2c-0.1,0-0.3-0.1-0.4-0.1
			c-0.5,0-0.8,0.2-1,0.5c-0.2,0.4-0.3,0.8-0.3,1.4v0.2c0,0.6,0.1,1,0.3,1.4S425.1,146.5,425.5,146.5z"/>
	</g>
	<g class="st1">
		<path class="st2" d="M433.1,147.8c0-0.1-0.1-0.2-0.1-0.3c0-0.1-0.1-0.2-0.1-0.3c-0.2,0.2-0.5,0.4-0.8,0.6s-0.6,0.2-1,0.2
			c-0.6,0-1.1-0.2-1.5-0.5c-0.4-0.3-0.6-0.8-0.6-1.4c0-0.6,0.2-1.1,0.7-1.4c0.5-0.3,1.2-0.5,2.1-0.5h0.9v-0.6c0-0.3-0.1-0.6-0.3-0.7
			c-0.2-0.2-0.4-0.3-0.8-0.3c-0.2,0-0.4,0-0.5,0.1s-0.3,0.1-0.4,0.2l-0.1,0.7h-1.3l0-1.4c0.3-0.2,0.7-0.4,1.1-0.5s0.9-0.2,1.3-0.2
			c0.8,0,1.5,0.2,2,0.6c0.5,0.4,0.8,1,0.8,1.7v2.7c0,0.1,0,0.2,0,0.3c0,0.1,0,0.2,0,0.3l0.5,0.1v1H433.1z M431.6,146.6
			c0.3,0,0.5-0.1,0.7-0.2s0.4-0.3,0.5-0.4v-1h-0.9c-0.4,0-0.7,0.1-0.8,0.3s-0.3,0.4-0.3,0.6c0,0.2,0.1,0.4,0.2,0.5
			C431.1,146.5,431.3,146.6,431.6,146.6z"/>
	</g>
	<g class="st1">
		<path class="st2" d="M437.8,139.7v1.6h1.1v1.2h-1.1v3.3c0,0.3,0.1,0.4,0.2,0.5s0.2,0.2,0.4,0.2c0.1,0,0.2,0,0.3,0
			c0.1,0,0.2,0,0.3-0.1l0.1,1.3c-0.2,0.1-0.4,0.1-0.6,0.1c-0.2,0-0.4,0-0.6,0c-0.6,0-1.1-0.2-1.4-0.5c-0.3-0.3-0.5-0.9-0.5-1.6v-3.3
			h-1v-1.2h1v-1.6H437.8z"/>
		<path class="st2" d="M439.7,146.7l0.8-0.2v-4l-0.9-0.2v-1.1h2.7v5.2l0.8,0.2v1h-3.4V146.7z M442.3,139.7h-1.7v-1.3h1.7V139.7z"/>
		<path class="st2" d="M443.7,144.5c0-1,0.3-1.8,0.8-2.4c0.5-0.6,1.3-0.9,2.2-0.9c1,0,1.7,0.3,2.2,0.9c0.5,0.6,0.8,1.4,0.8,2.4v0.1
			c0,1-0.3,1.8-0.8,2.4c-0.5,0.6-1.3,0.9-2.2,0.9c-1,0-1.7-0.3-2.3-0.9c-0.5-0.6-0.8-1.4-0.8-2.4V144.5z M445.5,144.6
			c0,0.6,0.1,1.1,0.3,1.4c0.2,0.4,0.5,0.5,1,0.5c0.5,0,0.8-0.2,1-0.5c0.2-0.4,0.3-0.8,0.3-1.4v-0.1c0-0.6-0.1-1-0.3-1.4
			c-0.2-0.4-0.5-0.5-1-0.5c-0.5,0-0.8,0.2-1,0.5c-0.2,0.4-0.3,0.8-0.3,1.4V144.6z"/>
		<path class="st2" d="M450.5,146.7l0.8-0.2v-4l-0.9-0.2v-1.1h2.6l0.1,0.9c0.2-0.3,0.5-0.6,0.8-0.8c0.3-0.2,0.7-0.3,1.1-0.3
			c0.7,0,1.2,0.2,1.5,0.6c0.4,0.4,0.5,1.1,0.5,1.9v2.8l0.8,0.2v1h-3.3v-1l0.7-0.2v-2.8c0-0.4-0.1-0.7-0.3-0.9
			c-0.2-0.2-0.4-0.3-0.8-0.3c-0.2,0-0.4,0-0.6,0.1s-0.3,0.2-0.5,0.4v3.5l0.7,0.2v1h-3.3V146.7z"/>
	</g>
	<g class="st1">
		<path class="st2" d="M392.7,159.5v-1.2h1v-0.4c0-0.8,0.2-1.4,0.7-1.9c0.5-0.4,1.2-0.7,2.1-0.7c0.3,0,0.6,0,0.9,0.1
			s0.7,0.2,1.1,0.3l-0.3,1.4c-0.3-0.1-0.6-0.2-0.8-0.2c-0.2,0-0.5-0.1-0.8-0.1c-0.4,0-0.7,0.1-0.9,0.3s-0.3,0.5-0.3,0.8v0.4h3.9v5.2
			l0.9,0.2v1h-3.5v-1l0.8-0.2v-4h-2.2v4l0.8,0.2v1h-3.5v-1l0.9-0.2v-4H392.7z"/>
		<path class="st2" d="M400.7,156.5v-1.1h2.7v8.1l0.8,0.2v1h-3.4v-1l0.8-0.2v-6.9L400.7,156.5z"/>
		<path class="st2" d="M407.9,164.9c-0.9,0-1.7-0.3-2.2-0.9c-0.6-0.6-0.8-1.4-0.8-2.3v-0.2c0-1,0.3-1.8,0.8-2.4
			c0.5-0.6,1.2-0.9,2.1-0.9c0.9,0,1.5,0.3,2,0.8c0.5,0.5,0.7,1.2,0.7,2.1v1h-3.9l0,0c0,0.4,0.2,0.8,0.4,1.1c0.3,0.3,0.6,0.4,1,0.4
			c0.4,0,0.7,0,1-0.1c0.3-0.1,0.5-0.2,0.8-0.4l0.5,1.1c-0.3,0.2-0.6,0.4-1,0.5S408.4,164.9,407.9,164.9z M407.7,159.5
			c-0.3,0-0.6,0.1-0.8,0.4s-0.3,0.6-0.3,1l0,0h2.1v-0.2c0-0.4-0.1-0.7-0.3-0.9C408.3,159.6,408.1,159.5,407.7,159.5z"/>
		<path class="st2" d="M419.6,160.5h-1.2l-0.2-0.8c-0.1-0.1-0.3-0.2-0.5-0.2s-0.4-0.1-0.6-0.1c-0.3,0-0.5,0.1-0.7,0.2
			c-0.2,0.1-0.3,0.3-0.3,0.5c0,0.2,0.1,0.4,0.3,0.5c0.2,0.1,0.5,0.2,1,0.3c0.8,0.2,1.4,0.4,1.8,0.7c0.4,0.3,0.6,0.7,0.6,1.3
			c0,0.6-0.3,1.1-0.8,1.4c-0.5,0.4-1.2,0.6-2,0.6c-0.5,0-1-0.1-1.4-0.2s-0.8-0.4-1.1-0.6l0-1.5h1.2l0.2,0.8c0.1,0.1,0.2,0.2,0.4,0.2
			c0.2,0,0.4,0.1,0.6,0.1c0.4,0,0.6-0.1,0.8-0.2c0.2-0.1,0.3-0.3,0.3-0.5c0-0.2-0.1-0.4-0.3-0.5c-0.2-0.1-0.5-0.3-1-0.4
			c-0.8-0.2-1.3-0.4-1.7-0.7s-0.6-0.7-0.6-1.2c0-0.5,0.2-1,0.7-1.4s1.1-0.6,1.9-0.6c0.5,0,1,0.1,1.4,0.2s0.8,0.3,1.1,0.5
			L419.6,160.5z"/>
		<path class="st2" d="M427.3,159.3l-0.6,0.1l-2.4,6.3c-0.2,0.5-0.4,0.9-0.8,1.2c-0.3,0.3-0.8,0.5-1.4,0.5c-0.1,0-0.3,0-0.4,0
			c-0.1,0-0.3-0.1-0.5-0.1l0.2-1.3c0.1,0,0.1,0,0.2,0c0.1,0,0.1,0,0.2,0c0.3,0,0.5-0.1,0.7-0.2c0.2-0.1,0.3-0.3,0.4-0.5l0.2-0.5
			l-2-5.3l-0.6-0.1v-1.1h3.2v1.1l-0.7,0.1l0.9,2.6l0.1,0.5l0,0l1-3.1l-0.7-0.1v-1.1h3.2V159.3z"/>
		<path class="st2" d="M433.1,160.5h-1.2l-0.2-0.8c-0.1-0.1-0.3-0.2-0.5-0.2s-0.4-0.1-0.6-0.1c-0.3,0-0.5,0.1-0.7,0.2
			c-0.2,0.1-0.3,0.3-0.3,0.5c0,0.2,0.1,0.4,0.3,0.5c0.2,0.1,0.5,0.2,1,0.3c0.8,0.2,1.4,0.4,1.8,0.7c0.4,0.3,0.6,0.7,0.6,1.3
			c0,0.6-0.3,1.1-0.8,1.4c-0.5,0.4-1.2,0.6-2,0.6c-0.5,0-1-0.1-1.4-0.2s-0.8-0.4-1.1-0.6l0-1.5h1.2l0.2,0.8c0.1,0.1,0.2,0.2,0.4,0.2
			c0.2,0,0.4,0.1,0.6,0.1c0.4,0,0.6-0.1,0.8-0.2c0.2-0.1,0.3-0.3,0.3-0.5c0-0.2-0.1-0.4-0.3-0.5c-0.2-0.1-0.5-0.3-1-0.4
			c-0.8-0.2-1.3-0.4-1.7-0.7s-0.6-0.7-0.6-1.2c0-0.5,0.2-1,0.7-1.4s1.1-0.6,1.9-0.6c0.5,0,1,0.1,1.4,0.2s0.8,0.3,1.1,0.5
			L433.1,160.5z"/>
		<path class="st2" d="M436.7,156.7v1.6h1.1v1.2h-1.1v3.3c0,0.3,0.1,0.4,0.2,0.5s0.2,0.2,0.4,0.2c0.1,0,0.2,0,0.3,0
			c0.1,0,0.2,0,0.3-0.1l0.1,1.3c-0.2,0.1-0.4,0.1-0.6,0.1c-0.2,0-0.4,0-0.6,0c-0.6,0-1.1-0.2-1.4-0.5c-0.3-0.3-0.5-0.9-0.5-1.6v-3.3
			h-1v-1.2h1v-1.6H436.7z"/>
		<path class="st2" d="M441.8,164.9c-0.9,0-1.7-0.3-2.2-0.9s-0.8-1.4-0.8-2.3v-0.2c0-1,0.3-1.8,0.8-2.4c0.5-0.6,1.2-0.9,2.1-0.9
			c0.9,0,1.6,0.3,2,0.8c0.5,0.5,0.7,1.2,0.7,2.1v1h-3.9l0,0c0,0.4,0.2,0.8,0.4,1.1c0.3,0.3,0.6,0.4,1,0.4c0.4,0,0.7,0,1-0.1
			c0.3-0.1,0.5-0.2,0.8-0.4l0.5,1.1c-0.3,0.2-0.6,0.4-1,0.5S442.3,164.9,441.8,164.9z M441.6,159.5c-0.3,0-0.6,0.1-0.8,0.4
			c-0.2,0.2-0.3,0.6-0.3,1l0,0h2.1v-0.2c0-0.4-0.1-0.7-0.3-0.9C442.3,159.6,442,159.5,441.6,159.5z"/>
		<path class="st2" d="M445,159.3v-1.1h2.6l0.1,0.9c0.2-0.3,0.5-0.6,0.8-0.7c0.3-0.2,0.7-0.3,1.1-0.3c0.4,0,0.8,0.1,1.1,0.3
			c0.3,0.2,0.5,0.5,0.7,0.8c0.2-0.3,0.5-0.6,0.8-0.8s0.7-0.3,1.1-0.3c0.6,0,1.1,0.2,1.5,0.7s0.6,1.1,0.6,2v2.7l0.8,0.2v1h-3.3v-1
			l0.8-0.2v-2.7c0-0.5-0.1-0.8-0.2-1s-0.4-0.3-0.7-0.3c-0.2,0-0.5,0.1-0.6,0.2c-0.2,0.1-0.3,0.3-0.4,0.5c0,0.1,0,0.1,0,0.2
			c0,0.1,0,0.1,0,0.2v3l0.7,0.2v1H449v-1l0.7-0.2v-2.7c0-0.5-0.1-0.8-0.2-1c-0.2-0.2-0.4-0.3-0.7-0.3c-0.2,0-0.4,0-0.6,0.1
			c-0.2,0.1-0.3,0.2-0.4,0.4v3.5l0.8,0.2v1h-3.3v-1l0.8-0.2v-4L445,159.3z"/>
	</g>
	<path class="st3" d="M416.2,110.1c4.6-4.5,12.1-4.5,16.6,0.1c4.5,4.6,4.5,12.1-0.1,16.6c-4.6,4.5-12.1,4.5-16.6-0.1
		c-2.2-2.2-3.4-5.1-3.4-8.2c0-2.6,0.8-5.1,2.4-7.1"/>
	<path class="st4" d="M424.4,124.1h-4.3c-0.6,0-0.8-0.2-0.8-0.8v-6.5c0-0.6,0.2-0.8,0.8-0.8h8.5c0.5,0,0.8,0.2,0.8,0.8v6.5
		c0,0.6-0.2,0.8-0.8,0.8C427.2,124.1,425.8,124.1,424.4,124.1z"/>
	<path class="st4" d="M420,115.4c0-1.8,1-3.4,2.6-4.1c2.1-0.9,4.6,0,5.5,2.1c0.1,0.2,0.2,0.5,0.2,0.7c0.1,0.4,0.1,0.8,0.2,1.2"/>
	<path class="st5" d="M423.7,121.3L423.7,121.3v0.9c0,0.2,0.1,0.2,0.3,0.2h0.8c0.2,0,0.3-0.1,0.3-0.3v-1.6c0-0.2,0.1-0.3,0.2-0.4
		c0.5-0.3,0.8-0.9,0.6-1.4c-0.2-0.6-0.8-1-1.5-1c-0.7-0.1-1.3,0.3-1.6,0.9c-0.2,0.6,0,1.2,0.5,1.5c0.2,0.1,0.3,0.3,0.3,0.5
		C423.7,120.8,423.7,121.1,423.7,121.3z"/>
	<path class="st0" d="M366,308.2h115c2.8,0,5,2.2,5,5v50c0,2.8-2.2,5-5,5H366c-2.8,0-5-2.2-5-5v-50C361,310.5,363.2,308.2,366,308.2
		z"/>
	<g class="st1">
		<path class="st2" d="M418.9,330.5h-1.3l-0.2-1.2c-0.2-0.2-0.4-0.3-0.6-0.4s-0.6-0.1-0.9-0.1c-0.8,0-1.3,0.3-1.7,0.8
			s-0.6,1.3-0.6,2.2v0.3c0,0.9,0.2,1.6,0.6,2.2s1,0.8,1.7,0.8c0.3,0,0.7,0,0.9-0.1c0.3-0.1,0.5-0.2,0.7-0.4l0.2-1.2h1.3v1.7
			c-0.4,0.4-0.8,0.7-1.3,1s-1.2,0.4-1.8,0.4c-1.2,0-2.1-0.4-2.9-1.2s-1.1-1.8-1.1-3.1v-0.3c0-1.3,0.4-2.3,1.1-3.1
			c0.7-0.8,1.7-1.2,2.9-1.2c0.7,0,1.3,0.1,1.8,0.4c0.5,0.2,1,0.6,1.3,1V330.5z"/>
		<path class="st2" d="M419.6,335.2l0.6-0.1l2.6-7.6h1.8l2.6,7.6l0.6,0.1v1h-3v-1l0.6-0.1l-0.4-1.2h-2.8l-0.4,1.2l0.6,0.1v1h-3
			V335.2z M422.7,332.7h2l-1-3.1h0L422.7,332.7z"/>
		<path class="st2" d="M435.1,330.4h-1.3l-0.2-1.2c-0.2-0.1-0.4-0.2-0.7-0.3s-0.6-0.1-0.9-0.1c-0.5,0-0.8,0.1-1.1,0.3
			s-0.4,0.5-0.4,0.8c0,0.3,0.1,0.5,0.4,0.7c0.3,0.2,0.7,0.4,1.4,0.6c1,0.3,1.7,0.6,2.2,1.1c0.5,0.4,0.7,1,0.7,1.7
			c0,0.7-0.3,1.3-0.9,1.8c-0.6,0.4-1.4,0.6-2.3,0.6c-0.7,0-1.3-0.1-1.9-0.3c-0.6-0.2-1-0.5-1.4-0.9v-1.8h1.4l0.2,1.2
			c0.2,0.1,0.4,0.3,0.7,0.4s0.6,0.1,1,0.1c0.5,0,0.8-0.1,1.1-0.3s0.4-0.5,0.4-0.8c0-0.3-0.1-0.6-0.4-0.8c-0.2-0.2-0.7-0.4-1.2-0.6
			c-1-0.3-1.8-0.7-2.3-1.1c-0.5-0.4-0.8-1-0.8-1.7c0-0.7,0.3-1.3,0.9-1.7s1.3-0.7,2.3-0.7c0.7,0,1.3,0.1,1.8,0.3s1,0.5,1.4,0.8
			V330.4z"/>
	</g>
	<g class="st1">
		<path class="st2" d="M391.8,348v-1.2h1v-0.4c0-0.8,0.2-1.4,0.7-1.9c0.5-0.4,1.2-0.7,2.1-0.7c0.3,0,0.6,0,0.9,0.1s0.7,0.2,1.1,0.3
			l-0.3,1.4c-0.3-0.1-0.6-0.2-0.8-0.2c-0.2,0-0.5-0.1-0.8-0.1c-0.4,0-0.7,0.1-0.9,0.3s-0.3,0.5-0.3,0.8v0.4h3.9v5.2l0.9,0.2v1h-3.5
			v-1l0.8-0.2v-4h-2.2v4l0.8,0.2v1h-3.5v-1l0.9-0.2v-4H391.8z"/>
		<path class="st2" d="M399.8,345V344h2.7v8.1l0.8,0.2v1h-3.4v-1l0.8-0.2v-6.9L399.8,345z"/>
		<path class="st2" d="M407,353.4c-0.9,0-1.7-0.3-2.2-0.9s-0.8-1.4-0.8-2.3V350c0-1,0.3-1.8,0.8-2.4c0.5-0.6,1.2-0.9,2.1-0.9
			c0.9,0,1.5,0.3,2,0.8c0.5,0.5,0.7,1.2,0.7,2.1v1h-3.9l0,0c0,0.4,0.2,0.8,0.4,1.1c0.3,0.3,0.6,0.4,1,0.4c0.4,0,0.7,0,1-0.1
			c0.3-0.1,0.5-0.2,0.8-0.4l0.5,1.1c-0.3,0.2-0.6,0.4-1,0.5C408,353.3,407.5,353.4,407,353.4z M406.8,348c-0.3,0-0.6,0.1-0.8,0.4
			c-0.2,0.2-0.3,0.6-0.3,1l0,0h2.1v-0.2c0-0.4-0.1-0.7-0.3-0.9C407.4,348.2,407.2,348,406.8,348z"/>
		<path class="st2" d="M418.7,349h-1.2l-0.2-0.8c-0.1-0.1-0.3-0.2-0.5-0.2c-0.2-0.1-0.4-0.1-0.6-0.1c-0.3,0-0.5,0.1-0.7,0.2
			c-0.2,0.1-0.3,0.3-0.3,0.5c0,0.2,0.1,0.4,0.3,0.5c0.2,0.1,0.5,0.2,1,0.3c0.8,0.2,1.4,0.4,1.8,0.7s0.6,0.7,0.6,1.3
			c0,0.6-0.3,1.1-0.8,1.4c-0.5,0.4-1.2,0.6-2,0.6c-0.5,0-1-0.1-1.4-0.2c-0.4-0.1-0.8-0.4-1.1-0.6l0-1.5h1.2l0.2,0.8
			c0.1,0.1,0.2,0.2,0.4,0.2c0.2,0,0.4,0.1,0.6,0.1c0.4,0,0.6-0.1,0.8-0.2c0.2-0.1,0.3-0.3,0.3-0.5c0-0.2-0.1-0.4-0.3-0.5
			c-0.2-0.1-0.5-0.3-1-0.4c-0.8-0.2-1.3-0.4-1.7-0.7c-0.4-0.3-0.6-0.7-0.6-1.2c0-0.5,0.2-1,0.7-1.4s1.1-0.6,1.9-0.6
			c0.5,0,1,0.1,1.4,0.2s0.8,0.3,1.1,0.5L418.7,349z"/>
		<path class="st2" d="M426.4,347.9l-0.6,0.1l-2.4,6.3c-0.2,0.5-0.4,0.9-0.8,1.2c-0.3,0.3-0.8,0.5-1.4,0.5c-0.1,0-0.3,0-0.4,0
			c-0.1,0-0.3-0.1-0.5-0.1l0.2-1.3c0.1,0,0.1,0,0.2,0c0.1,0,0.1,0,0.2,0c0.3,0,0.5-0.1,0.7-0.2c0.2-0.1,0.3-0.3,0.4-0.5l0.2-0.5
			l-2-5.3l-0.6-0.1v-1.1h3.2v1.1l-0.7,0.1l0.9,2.6l0.1,0.5l0,0l1-3.1l-0.7-0.1v-1.1h3.2V347.9z"/>
		<path class="st2" d="M432.2,349H431l-0.2-0.8c-0.1-0.1-0.3-0.2-0.5-0.2c-0.2-0.1-0.4-0.1-0.6-0.1c-0.3,0-0.5,0.1-0.7,0.2
			c-0.2,0.1-0.3,0.3-0.3,0.5c0,0.2,0.1,0.4,0.3,0.5c0.2,0.1,0.5,0.2,1,0.3c0.8,0.2,1.4,0.4,1.8,0.7s0.6,0.7,0.6,1.3
			c0,0.6-0.3,1.1-0.8,1.4c-0.5,0.4-1.2,0.6-2,0.6c-0.5,0-1-0.1-1.4-0.2c-0.4-0.1-0.8-0.4-1.1-0.6l0-1.5h1.2l0.2,0.8
			c0.1,0.1,0.2,0.2,0.4,0.2c0.2,0,0.4,0.1,0.6,0.1c0.4,0,0.6-0.1,0.8-0.2c0.2-0.1,0.3-0.3,0.3-0.5c0-0.2-0.1-0.4-0.3-0.5
			c-0.2-0.1-0.5-0.3-1-0.4c-0.8-0.2-1.3-0.4-1.7-0.7c-0.4-0.3-0.6-0.7-0.6-1.2c0-0.5,0.2-1,0.7-1.4s1.1-0.6,1.9-0.6
			c0.5,0,1,0.1,1.4,0.2s0.8,0.3,1.1,0.5L432.2,349z"/>
		<path class="st2" d="M435.8,345.2v1.6h1.1v1.2h-1.1v3.3c0,0.3,0.1,0.4,0.2,0.5s0.2,0.2,0.4,0.2c0.1,0,0.2,0,0.3,0
			c0.1,0,0.2,0,0.3-0.1l0.1,1.3c-0.2,0.1-0.4,0.1-0.6,0.1c-0.2,0-0.4,0-0.6,0c-0.6,0-1.1-0.2-1.4-0.5c-0.3-0.3-0.5-0.9-0.5-1.6V348
			h-1v-1.2h1v-1.6H435.8z"/>
		<path class="st2" d="M440.9,353.4c-0.9,0-1.7-0.3-2.2-0.9s-0.8-1.4-0.8-2.3V350c0-1,0.3-1.8,0.8-2.4c0.5-0.6,1.2-0.9,2.1-0.9
			c0.9,0,1.5,0.3,2,0.8c0.5,0.5,0.7,1.2,0.7,2.1v1h-3.9l0,0c0,0.4,0.2,0.8,0.4,1.1c0.3,0.3,0.6,0.4,1,0.4c0.4,0,0.7,0,1-0.1
			c0.3-0.1,0.5-0.2,0.8-0.4l0.5,1.1c-0.3,0.2-0.6,0.4-1,0.5C441.9,353.3,441.4,353.4,440.9,353.4z M440.7,348
			c-0.3,0-0.6,0.1-0.8,0.4c-0.2,0.2-0.3,0.6-0.3,1l0,0h2.1v-0.2c0-0.4-0.1-0.7-0.3-0.9C441.4,348.2,441.1,348,440.7,348z"/>
		<path class="st2" d="M444.1,347.9v-1.1h2.6l0.1,0.9c0.2-0.3,0.5-0.6,0.8-0.7c0.3-0.2,0.7-0.3,1.1-0.3c0.4,0,0.8,0.1,1.1,0.3
			c0.3,0.2,0.5,0.5,0.7,0.8c0.2-0.3,0.5-0.6,0.8-0.8c0.3-0.2,0.7-0.3,1.1-0.3c0.6,0,1.1,0.2,1.5,0.7s0.6,1.1,0.6,2v2.7l0.8,0.2v1
			h-3.3v-1l0.8-0.2v-2.7c0-0.5-0.1-0.8-0.2-1c-0.2-0.2-0.4-0.3-0.7-0.3c-0.2,0-0.5,0.1-0.6,0.2c-0.2,0.1-0.3,0.3-0.4,0.5
			c0,0.1,0,0.1,0,0.2c0,0.1,0,0.1,0,0.2v3l0.7,0.2v1h-3.1v-1l0.7-0.2v-2.7c0-0.5-0.1-0.8-0.2-1s-0.4-0.3-0.7-0.3
			c-0.2,0-0.4,0-0.6,0.1c-0.2,0.1-0.3,0.2-0.4,0.4v3.5l0.8,0.2v1h-3.3v-1l0.8-0.2v-4L444.1,347.9z"/>
	</g>
	<path class="st3" d="M415.3,300.6c4.6-4.5,12.1-4.5,16.6,0.2c4.5,4.6,4.5,12.1-0.2,16.6c-4.6,4.5-12.1,4.5-16.6-0.2
		c-2.1-2.2-3.4-5.1-3.4-8.2c0-2.6,0.8-5.1,2.4-7.1"/>
	<path class="st4" d="M423.5,314.6h-4.2c-0.6,0-0.8-0.2-0.8-0.8v-6.5c0-0.6,0.2-0.8,0.8-0.8h8.5c0.5,0,0.8,0.2,0.8,0.8v6.5
		c0,0.5-0.2,0.8-0.8,0.8C426.3,314.6,424.9,314.6,423.5,314.6z"/>
	<path class="st4" d="M419.1,306c0-1.8,1-3.4,2.6-4.1c2.1-0.9,4.6,0,5.5,2.1c0.1,0.2,0.2,0.5,0.2,0.7c0.1,0.4,0.1,0.8,0.2,1.2"/>
	<path class="st5" d="M422.8,311.9L422.8,311.9v0.9c0,0.2,0.1,0.2,0.3,0.2h0.8c0.2,0,0.3-0.1,0.3-0.3v-1.6c0-0.2,0.1-0.3,0.2-0.4
		c0.5-0.3,0.8-0.9,0.6-1.5c-0.2-0.6-0.8-1-1.4-1c-0.7-0.1-1.3,0.3-1.6,0.9c-0.2,0.6,0,1.2,0.5,1.5c0.2,0.1,0.3,0.3,0.3,0.5
		C422.8,311.3,422.8,311.6,422.8,311.9z"/>
	<path class="st6" d="M157.2,77.8h115c2.8,0,5,2.2,5,5v50c0,2.8-2.2,5-5,5h-115c-2.8,0-5-2.2-5-5v-50
		C152.2,80,154.5,77.8,157.2,77.8z"/>
	<g class="st1">
		<path class="st2" d="M181.4,101.5l0.6-0.1l2.6-7.6h1.8l2.6,7.6l0.6,0.1v1h-3v-1l0.6-0.1l-0.4-1.2h-2.8l-0.4,1.2l0.6,0.1v1h-3
			V101.5z M184.5,98.9h2l-1-3.1h0L184.5,98.9z"/>
		<path class="st2" d="M190.2,97.1v-1.1h2.5l0.1,0.8c0.2-0.3,0.4-0.5,0.7-0.6c0.3-0.2,0.6-0.2,0.9-0.2c0.8,0,1.4,0.3,1.9,0.9
			c0.4,0.6,0.7,1.4,0.7,2.5v0.1c0,1-0.2,1.7-0.7,2.3s-1.1,0.9-1.9,0.9c-0.3,0-0.6-0.1-0.9-0.2c-0.3-0.1-0.5-0.3-0.7-0.6v1.9l0.8,0.2
			v1.1h-3.4V104l0.8-0.2v-6.5L190.2,97.1z M195.2,99.4c0-0.6-0.1-1.1-0.3-1.5c-0.2-0.4-0.5-0.6-0.9-0.6c-0.3,0-0.5,0.1-0.7,0.2
			c-0.2,0.1-0.3,0.3-0.4,0.5v2.8c0.1,0.2,0.3,0.3,0.4,0.4c0.2,0.1,0.4,0.1,0.7,0.1c0.4,0,0.7-0.2,0.9-0.5c0.2-0.3,0.3-0.8,0.3-1.3
			V99.4z"/>
	</g>
	<g class="st1">
		<path class="st2" d="M197.6,97.1v-1.1h2.5l0.1,0.8c0.2-0.3,0.4-0.5,0.7-0.6c0.3-0.2,0.6-0.2,0.9-0.2c0.8,0,1.4,0.3,1.9,0.9
			c0.4,0.6,0.7,1.4,0.7,2.5v0.1c0,1-0.2,1.7-0.7,2.3s-1.1,0.9-1.9,0.9c-0.3,0-0.6-0.1-0.9-0.2c-0.3-0.1-0.5-0.3-0.7-0.6v1.9l0.8,0.2
			v1.1h-3.4V104l0.8-0.2v-6.5L197.6,97.1z M202.6,99.4c0-0.6-0.1-1.1-0.3-1.5c-0.2-0.4-0.5-0.6-0.9-0.6c-0.3,0-0.5,0.1-0.7,0.2
			c-0.2,0.1-0.3,0.3-0.4,0.5v2.8c0.1,0.2,0.3,0.3,0.4,0.4c0.2,0.1,0.4,0.1,0.7,0.1c0.4,0,0.7-0.2,0.9-0.5c0.2-0.3,0.3-0.8,0.3-1.3
			V99.4z"/>
	</g>
	<g class="st1">
		<path class="st2" d="M204.8,94.3v-1.1h2.7v8.1l0.8,0.2v1h-3.4v-1l0.8-0.2v-6.9L204.8,94.3z"/>
		<path class="st2" d="M208.9,101.5l0.8-0.2v-4l-0.9-0.2v-1.1h2.7v5.2l0.8,0.2v1h-3.4V101.5z M211.5,94.5h-1.7v-1.3h1.7V94.5z"/>
		<path class="st2" d="M215.9,101.3c0.3,0,0.6-0.1,0.7-0.3c0.2-0.2,0.3-0.4,0.3-0.7h1.6l0,0c0,0.7-0.2,1.2-0.7,1.6
			c-0.5,0.4-1.1,0.7-1.9,0.7c-1,0-1.7-0.3-2.2-0.9c-0.5-0.6-0.8-1.4-0.8-2.3v-0.2c0-1,0.3-1.7,0.8-2.3c0.5-0.6,1.3-0.9,2.3-0.9
			c0.5,0,1,0.1,1.4,0.2c0.4,0.2,0.8,0.4,1,0.7l0,1.7H217l-0.3-1c-0.1-0.1-0.2-0.1-0.3-0.2s-0.3-0.1-0.4-0.1c-0.5,0-0.8,0.2-1,0.5
			c-0.2,0.4-0.3,0.8-0.3,1.4v0.2c0,0.6,0.1,1,0.3,1.4C215.1,101.1,215.4,101.3,215.9,101.3z"/>
	</g>
	<g class="st1">
		<path class="st2" d="M223.4,102.5c0-0.1-0.1-0.2-0.1-0.3c0-0.1-0.1-0.2-0.1-0.3c-0.2,0.2-0.5,0.4-0.8,0.6s-0.6,0.2-1,0.2
			c-0.6,0-1.1-0.2-1.5-0.5s-0.6-0.8-0.6-1.4c0-0.6,0.2-1.1,0.7-1.4c0.5-0.3,1.2-0.5,2.1-0.5h0.9v-0.6c0-0.3-0.1-0.6-0.3-0.7
			c-0.2-0.2-0.4-0.3-0.8-0.3c-0.2,0-0.4,0-0.5,0.1c-0.2,0-0.3,0.1-0.4,0.2l-0.1,0.7h-1.3l0-1.4c0.3-0.2,0.7-0.4,1.1-0.5
			c0.4-0.1,0.9-0.2,1.3-0.2c0.8,0,1.5,0.2,2,0.6c0.5,0.4,0.8,1,0.8,1.7v2.7c0,0.1,0,0.2,0,0.3c0,0.1,0,0.2,0,0.3l0.5,0.1v1H223.4z
			 M221.9,101.4c0.3,0,0.5-0.1,0.7-0.2c0.2-0.1,0.4-0.3,0.5-0.4v-1h-0.9c-0.4,0-0.7,0.1-0.8,0.3s-0.3,0.4-0.3,0.6
			c0,0.2,0.1,0.4,0.2,0.5C221.5,101.3,221.7,101.4,221.9,101.4z"/>
	</g>
	<g class="st1">
		<path class="st2" d="M228.1,94.5v1.6h1.1v1.2h-1.1v3.3c0,0.3,0.1,0.4,0.2,0.5s0.2,0.2,0.4,0.2c0.1,0,0.2,0,0.3,0
			c0.1,0,0.2,0,0.3-0.1l0.1,1.3c-0.2,0.1-0.4,0.1-0.6,0.1c-0.2,0-0.4,0-0.6,0c-0.6,0-1.1-0.2-1.4-0.5c-0.3-0.3-0.5-0.9-0.5-1.6v-3.3
			h-1v-1.2h1v-1.6H228.1z"/>
		<path class="st2" d="M230.1,101.5l0.8-0.2v-4l-0.9-0.2v-1.1h2.7v5.2l0.8,0.2v1h-3.4V101.5z M232.7,94.5h-1.7v-1.3h1.7V94.5z"/>
		<path class="st2" d="M234.1,99.2c0-1,0.3-1.8,0.8-2.4c0.5-0.6,1.3-0.9,2.2-0.9c1,0,1.7,0.3,2.2,0.9c0.5,0.6,0.8,1.4,0.8,2.4v0.1
			c0,1-0.3,1.8-0.8,2.4c-0.5,0.6-1.3,0.9-2.2,0.9c-1,0-1.7-0.3-2.3-0.9c-0.5-0.6-0.8-1.4-0.8-2.4V99.2z M235.8,99.4
			c0,0.6,0.1,1.1,0.3,1.4c0.2,0.4,0.5,0.5,1,0.5c0.5,0,0.8-0.2,1-0.5c0.2-0.4,0.3-0.8,0.3-1.4v-0.1c0-0.6-0.1-1-0.3-1.4
			c-0.2-0.4-0.5-0.5-1-0.5c-0.5,0-0.8,0.2-1,0.5c-0.2,0.4-0.3,0.8-0.3,1.4V99.4z"/>
		<path class="st2" d="M240.8,101.5l0.8-0.2v-4l-0.9-0.2v-1.1h2.6l0.1,0.9c0.2-0.3,0.5-0.6,0.8-0.8c0.3-0.2,0.7-0.3,1.1-0.3
			c0.7,0,1.2,0.2,1.5,0.6s0.5,1.1,0.5,1.9v2.8l0.8,0.2v1h-3.3v-1l0.7-0.2v-2.8c0-0.4-0.1-0.7-0.3-0.9c-0.2-0.2-0.4-0.3-0.8-0.3
			c-0.2,0-0.4,0-0.6,0.1c-0.2,0.1-0.3,0.2-0.5,0.4v3.5l0.7,0.2v1h-3.3V101.5z"/>
	</g>
	<g class="st1">
		<path class="st2" d="M185.9,115.3h-1.2l-0.2-0.8c-0.1-0.1-0.3-0.2-0.5-0.2c-0.2-0.1-0.4-0.1-0.6-0.1c-0.3,0-0.5,0.1-0.7,0.2
			s-0.3,0.3-0.3,0.5c0,0.2,0.1,0.4,0.3,0.5c0.2,0.1,0.5,0.2,1,0.3c0.8,0.2,1.4,0.4,1.8,0.7c0.4,0.3,0.6,0.7,0.6,1.3
			c0,0.6-0.3,1.1-0.8,1.4c-0.5,0.4-1.2,0.6-2,0.6c-0.5,0-1-0.1-1.4-0.2s-0.8-0.4-1.1-0.6l0-1.5h1.2l0.2,0.8c0.1,0.1,0.2,0.2,0.4,0.2
			c0.2,0,0.4,0.1,0.6,0.1c0.4,0,0.6-0.1,0.8-0.2c0.2-0.1,0.3-0.3,0.3-0.5c0-0.2-0.1-0.4-0.3-0.5c-0.2-0.1-0.5-0.3-1-0.4
			c-0.8-0.2-1.3-0.4-1.7-0.7c-0.4-0.3-0.6-0.7-0.6-1.2c0-0.5,0.2-1,0.7-1.4s1.1-0.6,1.9-0.6c0.5,0,1,0.1,1.4,0.2s0.8,0.3,1.1,0.5
			L185.9,115.3z"/>
		<path class="st2" d="M187,116.2c0-1,0.3-1.8,0.8-2.4c0.5-0.6,1.3-0.9,2.2-0.9c1,0,1.7,0.3,2.2,0.9c0.5,0.6,0.8,1.4,0.8,2.4v0.1
			c0,1-0.3,1.8-0.8,2.4c-0.5,0.6-1.3,0.9-2.2,0.9c-1,0-1.7-0.3-2.3-0.9c-0.5-0.6-0.8-1.4-0.8-2.4V116.2z M188.7,116.4
			c0,0.6,0.1,1.1,0.3,1.4c0.2,0.4,0.5,0.5,1,0.5c0.5,0,0.8-0.2,1-0.5c0.2-0.4,0.3-0.8,0.3-1.4v-0.1c0-0.6-0.1-1-0.3-1.4
			c-0.2-0.4-0.5-0.5-1-0.5c-0.5,0-0.8,0.2-1,0.5c-0.2,0.4-0.3,0.8-0.3,1.4V116.4z"/>
		<path class="st2" d="M198.4,118.7c-0.2,0.3-0.5,0.5-0.8,0.7c-0.3,0.2-0.7,0.2-1,0.2c-0.7,0-1.2-0.2-1.6-0.7
			c-0.4-0.4-0.6-1.1-0.6-2v-2.7l-0.7-0.2v-1.1h0.7h1.7v3.9c0,0.5,0.1,0.8,0.2,1s0.4,0.3,0.7,0.3c0.3,0,0.5,0,0.7-0.1
			c0.2-0.1,0.4-0.2,0.5-0.4v-3.5l-0.8-0.2v-1.1h0.8h1.7v5.2l0.8,0.2v1h-2.3L198.4,118.7z"/>
	</g>
	<g class="st1">
		<path class="st2" d="M201.6,118.5l0.8-0.2v-4l-0.9-0.2v-1.1h2.6l0.1,0.9c0.2-0.3,0.3-0.6,0.6-0.8c0.2-0.2,0.5-0.3,0.8-0.3
			c0.1,0,0.2,0,0.3,0c0.1,0,0.2,0,0.3,0.1l-0.2,1.6l-0.7,0c-0.3,0-0.5,0-0.6,0.1c-0.2,0.1-0.3,0.2-0.4,0.4v3.1l0.8,0.2v1h-3.4V118.5
			z"/>
	</g>
	<g class="st1">
		<path class="st2" d="M209.5,118.3c0.3,0,0.6-0.1,0.7-0.3c0.2-0.2,0.3-0.4,0.3-0.7h1.6l0,0c0,0.7-0.2,1.2-0.7,1.6
			c-0.5,0.4-1.1,0.7-1.9,0.7c-1,0-1.7-0.3-2.2-0.9c-0.5-0.6-0.8-1.4-0.8-2.3v-0.2c0-1,0.3-1.7,0.8-2.3c0.5-0.6,1.3-0.9,2.3-0.9
			c0.5,0,1,0.1,1.4,0.2c0.4,0.2,0.8,0.4,1,0.7l0,1.7h-1.4l-0.3-1c-0.1-0.1-0.2-0.1-0.3-0.2s-0.3-0.1-0.4-0.1c-0.5,0-0.8,0.2-1,0.5
			c-0.2,0.4-0.3,0.8-0.3,1.4v0.2c0,0.6,0.1,1,0.3,1.4C208.7,118.1,209.1,118.3,209.5,118.3z"/>
		<path class="st2" d="M216.1,119.7c-0.9,0-1.7-0.3-2.2-0.9c-0.6-0.6-0.8-1.4-0.8-2.3v-0.2c0-1,0.3-1.8,0.8-2.4
			c0.5-0.6,1.2-0.9,2.1-0.9c0.9,0,1.5,0.3,2,0.8c0.5,0.5,0.7,1.2,0.7,2.1v1h-3.9l0,0c0,0.4,0.2,0.8,0.4,1.1c0.3,0.3,0.6,0.4,1,0.4
			c0.4,0,0.7,0,1-0.1c0.3-0.1,0.5-0.2,0.8-0.4l0.5,1.1c-0.3,0.2-0.6,0.4-1,0.5S216.6,119.7,216.1,119.7z M215.9,114.3
			c-0.3,0-0.6,0.1-0.8,0.4c-0.2,0.2-0.3,0.6-0.3,1l0,0h2.1v-0.2c0-0.4-0.1-0.7-0.3-0.9C216.5,114.4,216.2,114.3,215.9,114.3z"/>
		<path class="st2" d="M225.5,118.3c0.3,0,0.6-0.1,0.7-0.3c0.2-0.2,0.3-0.4,0.3-0.7h1.6l0,0c0,0.7-0.2,1.2-0.7,1.6
			c-0.5,0.4-1.1,0.7-1.9,0.7c-1,0-1.7-0.3-2.2-0.9c-0.5-0.6-0.8-1.4-0.8-2.3v-0.2c0-1,0.3-1.7,0.8-2.3c0.5-0.6,1.3-0.9,2.3-0.9
			c0.5,0,1,0.1,1.4,0.2c0.4,0.2,0.8,0.4,1,0.7l0,1.7h-1.4l-0.3-1c-0.1-0.1-0.2-0.1-0.3-0.2s-0.3-0.1-0.4-0.1c-0.5,0-0.8,0.2-1,0.5
			c-0.2,0.4-0.3,0.8-0.3,1.4v0.2c0,0.6,0.1,1,0.3,1.4C224.7,118.1,225,118.3,225.5,118.3z"/>
		<path class="st2" d="M228.9,116.2c0-1,0.3-1.8,0.8-2.4c0.5-0.6,1.3-0.9,2.2-0.9c1,0,1.7,0.3,2.2,0.9c0.5,0.6,0.8,1.4,0.8,2.4v0.1
			c0,1-0.3,1.8-0.8,2.4c-0.5,0.6-1.3,0.9-2.2,0.9c-1,0-1.7-0.3-2.3-0.9c-0.5-0.6-0.8-1.4-0.8-2.4V116.2z M230.7,116.4
			c0,0.6,0.1,1.1,0.3,1.4c0.2,0.4,0.5,0.5,1,0.5c0.5,0,0.8-0.2,1-0.5c0.2-0.4,0.3-0.8,0.3-1.4v-0.1c0-0.6-0.1-1-0.3-1.4
			c-0.2-0.4-0.5-0.5-1-0.5c-0.5,0-0.8,0.2-1,0.5c-0.2,0.4-0.3,0.8-0.3,1.4V116.4z"/>
		<path class="st2" d="M240,118.7c-0.2,0.3-0.4,0.5-0.7,0.7s-0.6,0.2-0.9,0.2c-0.8,0-1.4-0.3-1.9-0.9c-0.4-0.6-0.7-1.4-0.7-2.3v-0.1
			c0-1,0.2-1.8,0.7-2.5c0.4-0.6,1.1-0.9,1.9-0.9c0.3,0,0.6,0.1,0.9,0.2c0.3,0.1,0.5,0.3,0.7,0.6v-2.3l-0.9-0.2v-1.1h0.9h1.7v8.1
			l0.8,0.2v1h-2.3L240,118.7z M237.6,116.5c0,0.6,0.1,1,0.3,1.3c0.2,0.3,0.5,0.5,0.9,0.5c0.3,0,0.5-0.1,0.7-0.2
			c0.2-0.1,0.3-0.3,0.5-0.4V115c-0.1-0.2-0.3-0.4-0.5-0.5c-0.2-0.1-0.4-0.2-0.7-0.2c-0.4,0-0.7,0.2-0.9,0.6
			c-0.2,0.4-0.3,0.9-0.3,1.5V116.5z"/>
		<path class="st2" d="M246.1,119.7c-0.9,0-1.7-0.3-2.2-0.9c-0.6-0.6-0.8-1.4-0.8-2.3v-0.2c0-1,0.3-1.8,0.8-2.4
			c0.5-0.6,1.2-0.9,2.1-0.9c0.9,0,1.5,0.3,2,0.8c0.5,0.5,0.7,1.2,0.7,2.1v1h-3.9l0,0c0,0.4,0.2,0.8,0.4,1.1c0.3,0.3,0.6,0.4,1,0.4
			c0.4,0,0.7,0,1-0.1c0.3-0.1,0.5-0.2,0.8-0.4l0.5,1.1c-0.3,0.2-0.6,0.4-1,0.5S246.6,119.7,246.1,119.7z M246,114.3
			c-0.3,0-0.6,0.1-0.8,0.4c-0.2,0.2-0.3,0.6-0.3,1l0,0h2.1v-0.2c0-0.4-0.1-0.7-0.3-0.9C246.6,114.4,246.3,114.3,246,114.3z"/>
	</g>
	<path class="st7" d="M157.2,251.4h115c2.8,0,5,2.2,5,5v50c0,2.8-2.2,5-5,5h-115c-2.8,0-5-2.2-5-5v-50
		C152.2,253.6,154.5,251.4,157.2,251.4z"/>
	<g class="st1">
		<path class="st2" d="M239.7,271.3h-1.3l-0.2-1.2c-0.2-0.2-0.4-0.3-0.6-0.4c-0.3-0.1-0.6-0.1-0.9-0.1c-0.8,0-1.3,0.3-1.7,0.8
			s-0.6,1.3-0.6,2.2v0.3c0,0.9,0.2,1.6,0.6,2.2s1,0.8,1.7,0.8c0.3,0,0.7,0,0.9-0.1c0.3-0.1,0.5-0.2,0.7-0.4l0.2-1.2h1.3v1.7
			c-0.4,0.4-0.8,0.7-1.3,1s-1.2,0.4-1.8,0.4c-1.2,0-2.1-0.4-2.9-1.2s-1.1-1.8-1.1-3.1v-0.3c0-1.3,0.4-2.3,1.1-3.1
			c0.7-0.8,1.7-1.2,2.9-1.2c0.7,0,1.3,0.1,1.8,0.4c0.5,0.2,1,0.6,1.3,1V271.3z"/>
		<path class="st2" d="M240.4,276.1l0.6-0.1l2.6-7.6h1.8l2.6,7.6l0.6,0.1v1h-3v-1l0.6-0.1l-0.4-1.2h-2.8l-0.4,1.2l0.6,0.1v1h-3
			V276.1z M243.5,273.5h2l-1-3.1h0L243.5,273.5z"/>
		<path class="st2" d="M255.9,271.2h-1.3l-0.2-1.2c-0.2-0.1-0.4-0.2-0.7-0.3c-0.3-0.1-0.6-0.1-0.9-0.1c-0.5,0-0.8,0.1-1.1,0.3
			c-0.3,0.2-0.4,0.5-0.4,0.8c0,0.3,0.1,0.5,0.4,0.7c0.3,0.2,0.7,0.4,1.4,0.6c1,0.3,1.7,0.6,2.2,1.1c0.5,0.4,0.7,1,0.7,1.7
			c0,0.7-0.3,1.3-0.9,1.8c-0.6,0.4-1.4,0.6-2.3,0.6c-0.7,0-1.3-0.1-1.9-0.3c-0.6-0.2-1-0.5-1.4-0.9v-1.8h1.4l0.2,1.2
			c0.2,0.1,0.4,0.3,0.7,0.4s0.6,0.1,1,0.1c0.5,0,0.8-0.1,1.1-0.3c0.2-0.2,0.4-0.5,0.4-0.8c0-0.3-0.1-0.6-0.4-0.8
			c-0.2-0.2-0.7-0.4-1.2-0.6c-1-0.3-1.8-0.7-2.3-1.1c-0.5-0.4-0.8-1-0.8-1.7c0-0.7,0.3-1.3,0.9-1.7s1.3-0.7,2.3-0.7
			c0.7,0,1.3,0.1,1.8,0.3s1,0.5,1.4,0.8V271.2z"/>
	</g>
	<g class="st1">
		<path class="st2" d="M185.9,289.9h-1.2l-0.2-0.8c-0.1-0.1-0.3-0.2-0.5-0.2c-0.2-0.1-0.4-0.1-0.6-0.1c-0.3,0-0.5,0.1-0.7,0.2
			s-0.3,0.3-0.3,0.5c0,0.2,0.1,0.4,0.3,0.5c0.2,0.1,0.5,0.2,1,0.3c0.8,0.2,1.4,0.4,1.8,0.7c0.4,0.3,0.6,0.7,0.6,1.3
			c0,0.6-0.3,1.1-0.8,1.4c-0.5,0.4-1.2,0.6-2,0.6c-0.5,0-1-0.1-1.4-0.2s-0.8-0.4-1.1-0.6l0-1.5h1.2l0.2,0.8c0.1,0.1,0.2,0.2,0.4,0.2
			c0.2,0,0.4,0.1,0.6,0.1c0.4,0,0.6-0.1,0.8-0.2c0.2-0.1,0.3-0.3,0.3-0.5c0-0.2-0.1-0.4-0.3-0.5c-0.2-0.1-0.5-0.3-1-0.4
			c-0.8-0.2-1.3-0.4-1.7-0.7c-0.4-0.3-0.6-0.7-0.6-1.2c0-0.5,0.2-1,0.7-1.4s1.1-0.6,1.9-0.6c0.5,0,1,0.1,1.4,0.2s0.8,0.3,1.1,0.5
			L185.9,289.9z"/>
		<path class="st2" d="M187,290.8c0-1,0.3-1.8,0.8-2.4c0.5-0.6,1.3-0.9,2.2-0.9c1,0,1.7,0.3,2.2,0.9c0.5,0.6,0.8,1.4,0.8,2.4v0.1
			c0,1-0.3,1.8-0.8,2.4c-0.5,0.6-1.3,0.9-2.2,0.9c-1,0-1.7-0.3-2.3-0.9c-0.5-0.6-0.8-1.4-0.8-2.4V290.8z M188.7,290.9
			c0,0.6,0.1,1.1,0.3,1.4c0.2,0.4,0.5,0.5,1,0.5c0.5,0,0.8-0.2,1-0.5c0.2-0.4,0.3-0.8,0.3-1.4v-0.1c0-0.6-0.1-1-0.3-1.4
			c-0.2-0.4-0.5-0.5-1-0.5c-0.5,0-0.8,0.2-1,0.5c-0.2,0.4-0.3,0.8-0.3,1.4V290.9z"/>
		<path class="st2" d="M198.4,293.3c-0.2,0.3-0.5,0.5-0.8,0.7c-0.3,0.2-0.7,0.2-1,0.2c-0.7,0-1.2-0.2-1.6-0.7
			c-0.4-0.4-0.6-1.1-0.6-2v-2.7l-0.7-0.2v-1.1h0.7h1.7v3.9c0,0.5,0.1,0.8,0.2,1s0.4,0.3,0.7,0.3c0.3,0,0.5,0,0.7-0.1
			c0.2-0.1,0.4-0.2,0.5-0.4v-3.5l-0.8-0.2v-1.1h0.8h1.7v5.2l0.8,0.2v1h-2.3L198.4,293.3z"/>
	</g>
	<g class="st1">
		<path class="st2" d="M201.6,293.1l0.8-0.2v-4l-0.9-0.2v-1.1h2.6l0.1,0.9c0.2-0.3,0.3-0.6,0.6-0.8c0.2-0.2,0.5-0.3,0.8-0.3
			c0.1,0,0.2,0,0.3,0c0.1,0,0.2,0,0.3,0.1l-0.2,1.6l-0.7,0c-0.3,0-0.5,0-0.6,0.1c-0.2,0.1-0.3,0.2-0.4,0.4v3.1l0.8,0.2v1h-3.4V293.1
			z"/>
	</g>
	<g class="st1">
		<path class="st2" d="M209.5,292.9c0.3,0,0.6-0.1,0.7-0.3c0.2-0.2,0.3-0.4,0.3-0.7h1.6l0,0c0,0.7-0.2,1.2-0.7,1.6
			c-0.5,0.4-1.1,0.7-1.9,0.7c-1,0-1.7-0.3-2.2-0.9c-0.5-0.6-0.8-1.4-0.8-2.3v-0.2c0-1,0.3-1.7,0.8-2.3c0.5-0.6,1.3-0.9,2.3-0.9
			c0.5,0,1,0.1,1.4,0.2c0.4,0.2,0.8,0.4,1,0.7l0,1.7h-1.4l-0.3-1c-0.1-0.1-0.2-0.1-0.3-0.2s-0.3-0.1-0.4-0.1c-0.5,0-0.8,0.2-1,0.5
			c-0.2,0.4-0.3,0.8-0.3,1.4v0.2c0,0.6,0.1,1,0.3,1.4C208.7,292.7,209.1,292.9,209.5,292.9z"/>
		<path class="st2" d="M216.1,294.2c-0.9,0-1.7-0.3-2.2-0.9c-0.6-0.6-0.8-1.4-0.8-2.3v-0.2c0-1,0.3-1.8,0.8-2.4
			c0.5-0.6,1.2-0.9,2.1-0.9c0.9,0,1.5,0.3,2,0.8c0.5,0.5,0.7,1.2,0.7,2.1v1h-3.9l0,0c0,0.4,0.2,0.8,0.4,1.1c0.3,0.3,0.6,0.4,1,0.4
			c0.4,0,0.7,0,1-0.1c0.3-0.1,0.5-0.2,0.8-0.4l0.5,1.1c-0.3,0.2-0.6,0.4-1,0.5S216.6,294.2,216.1,294.2z M215.9,288.9
			c-0.3,0-0.6,0.1-0.8,0.4c-0.2,0.2-0.3,0.6-0.3,1l0,0h2.1v-0.2c0-0.4-0.1-0.7-0.3-0.9C216.5,289,216.2,288.9,215.9,288.9z"/>
		<path class="st2" d="M225.5,292.9c0.3,0,0.6-0.1,0.7-0.3c0.2-0.2,0.3-0.4,0.3-0.7h1.6l0,0c0,0.7-0.2,1.2-0.7,1.6
			c-0.5,0.4-1.1,0.7-1.9,0.7c-1,0-1.7-0.3-2.2-0.9c-0.5-0.6-0.8-1.4-0.8-2.3v-0.2c0-1,0.3-1.7,0.8-2.3c0.5-0.6,1.3-0.9,2.3-0.9
			c0.5,0,1,0.1,1.4,0.2c0.4,0.2,0.8,0.4,1,0.7l0,1.7h-1.4l-0.3-1c-0.1-0.1-0.2-0.1-0.3-0.2s-0.3-0.1-0.4-0.1c-0.5,0-0.8,0.2-1,0.5
			c-0.2,0.4-0.3,0.8-0.3,1.4v0.2c0,0.6,0.1,1,0.3,1.4C224.7,292.7,225,292.9,225.5,292.9z"/>
		<path class="st2" d="M228.9,290.8c0-1,0.3-1.8,0.8-2.4c0.5-0.6,1.3-0.9,2.2-0.9c1,0,1.7,0.3,2.2,0.9c0.5,0.6,0.8,1.4,0.8,2.4v0.1
			c0,1-0.3,1.8-0.8,2.4c-0.5,0.6-1.3,0.9-2.2,0.9c-1,0-1.7-0.3-2.3-0.9c-0.5-0.6-0.8-1.4-0.8-2.4V290.8z M230.7,290.9
			c0,0.6,0.1,1.1,0.3,1.4c0.2,0.4,0.5,0.5,1,0.5c0.5,0,0.8-0.2,1-0.5c0.2-0.4,0.3-0.8,0.3-1.4v-0.1c0-0.6-0.1-1-0.3-1.4
			c-0.2-0.4-0.5-0.5-1-0.5c-0.5,0-0.8,0.2-1,0.5c-0.2,0.4-0.3,0.8-0.3,1.4V290.9z"/>
		<path class="st2" d="M240,293.3c-0.2,0.3-0.4,0.5-0.7,0.7s-0.6,0.2-0.9,0.2c-0.8,0-1.4-0.3-1.9-0.9c-0.4-0.6-0.7-1.4-0.7-2.3v-0.1
			c0-1,0.2-1.8,0.7-2.5c0.4-0.6,1.1-0.9,1.9-0.9c0.3,0,0.6,0.1,0.9,0.2c0.3,0.1,0.5,0.3,0.7,0.6V286l-0.9-0.2v-1.1h0.9h1.7v8.1
			l0.8,0.2v1h-2.3L240,293.3z M237.6,291.1c0,0.6,0.1,1,0.3,1.3c0.2,0.3,0.5,0.5,0.9,0.5c0.3,0,0.5-0.1,0.7-0.2
			c0.2-0.1,0.3-0.3,0.5-0.4v-2.7c-0.1-0.2-0.3-0.4-0.5-0.5c-0.2-0.1-0.4-0.2-0.7-0.2c-0.4,0-0.7,0.2-0.9,0.6
			c-0.2,0.4-0.3,0.9-0.3,1.5V291.1z"/>
		<path class="st2" d="M246.1,294.2c-0.9,0-1.7-0.3-2.2-0.9c-0.6-0.6-0.8-1.4-0.8-2.3v-0.2c0-1,0.3-1.8,0.8-2.4
			c0.5-0.6,1.2-0.9,2.1-0.9c0.9,0,1.5,0.3,2,0.8c0.5,0.5,0.7,1.2,0.7,2.1v1h-3.9l0,0c0,0.4,0.2,0.8,0.4,1.1c0.3,0.3,0.6,0.4,1,0.4
			c0.4,0,0.7,0,1-0.1c0.3-0.1,0.5-0.2,0.8-0.4l0.5,1.1c-0.3,0.2-0.6,0.4-1,0.5S246.6,294.2,246.1,294.2z M246,288.9
			c-0.3,0-0.6,0.1-0.8,0.4c-0.2,0.2-0.3,0.6-0.3,1l0,0h2.1v-0.2c0-0.4-0.1-0.7-0.3-0.9C246.6,289,246.3,288.9,246,288.9z"/>
	</g>
	
		<linearGradient id="SVGID_1_" gradientUnits="userSpaceOnUse" x1="361.48" y1="328.73" x2="486.48" y2="328.73" gradientTransform="matrix(1 0 0 -1 0 382)">
		<stop  offset="0" style="stop-color:#990066"/>
		<stop  offset="0.19" style="stop-color:#780066"/>
		<stop  offset="0.4" style="stop-color:#5A0066"/>
		<stop  offset="0.61" style="stop-color:#440066"/>
		<stop  offset="0.81" style="stop-color:#370066"/>
		<stop  offset="1" style="stop-color:#330066"/>
	</linearGradient>
	<path class="st8" d="M366.5,23.3h115c2.8,0,5,2.2,5,5v50c0,2.8-2.2,5-5,5h-115c-2.8,0-5-2.2-5-5v-50
		C361.5,25.5,363.7,23.3,366.5,23.3z"/>
	<g class="st1">
		<path class="st9" d="M392.8,55.9l0.6-0.1l2.4-6.8h1.6l2.4,6.8l0.6,0.1v0.9h-2.7v-0.9l0.5-0.1l-0.3-1.1h-2.5l-0.3,1.1l0.5,0.1v0.9
			h-2.7V55.9z M395.6,53.6h1.8l-0.9-2.8h0L395.6,53.6z"/>
		<path class="st9" d="M400.7,52V51h2.3l0.1,0.7c0.2-0.3,0.4-0.4,0.6-0.6c0.2-0.1,0.5-0.2,0.8-0.2c0.7,0,1.3,0.3,1.7,0.8
			c0.4,0.6,0.6,1.3,0.6,2.2v0.1c0,0.9-0.2,1.5-0.6,2.1c-0.4,0.5-1,0.8-1.7,0.8c-0.3,0-0.6-0.1-0.8-0.2c-0.2-0.1-0.4-0.3-0.6-0.5v1.7
			l0.8,0.2v0.9h-3.1v-0.9l0.8-0.2v-5.8L400.7,52z M405.2,54c0-0.5-0.1-1-0.3-1.3s-0.5-0.5-0.8-0.5c-0.2,0-0.4,0-0.6,0.1
			c-0.2,0.1-0.3,0.2-0.4,0.4v2.5c0.1,0.2,0.2,0.3,0.4,0.4c0.2,0.1,0.4,0.1,0.6,0.1c0.4,0,0.7-0.1,0.8-0.4c0.2-0.3,0.3-0.7,0.3-1.2
			V54z"/>
	</g>
	<g class="st1">
		<path class="st9" d="M407.4,52V51h2.3l0.1,0.7c0.2-0.3,0.4-0.4,0.6-0.6c0.2-0.1,0.5-0.2,0.8-0.2c0.7,0,1.3,0.3,1.7,0.8
			c0.4,0.6,0.6,1.3,0.6,2.2v0.1c0,0.9-0.2,1.5-0.6,2.1c-0.4,0.5-1,0.8-1.7,0.8c-0.3,0-0.6-0.1-0.8-0.2c-0.2-0.1-0.4-0.3-0.6-0.5v1.7
			l0.8,0.2v0.9h-3.1v-0.9l0.8-0.2v-5.8L407.4,52z M411.9,54c0-0.5-0.1-1-0.3-1.3s-0.5-0.5-0.8-0.5c-0.2,0-0.4,0-0.6,0.1
			c-0.2,0.1-0.3,0.2-0.4,0.4v2.5c0.1,0.2,0.2,0.3,0.4,0.4c0.2,0.1,0.4,0.1,0.6,0.1c0.4,0,0.7-0.1,0.8-0.4c0.2-0.3,0.3-0.7,0.3-1.2
			V54z"/>
	</g>
	<g class="st1">
		<path class="st9" d="M413.9,49.4v-0.9h2.4v7.3l0.8,0.2v0.9H414v-0.9l0.8-0.2v-6.2L413.9,49.4z"/>
		<path class="st9" d="M417.5,55.9l0.8-0.2v-3.6l-0.8-0.2V51h2.4v4.7l0.8,0.2v0.9h-3.1V55.9z M419.8,49.6h-1.6v-1.2h1.6V49.6z"/>
		<path class="st9" d="M423.8,55.7c0.3,0,0.5-0.1,0.7-0.2c0.2-0.2,0.3-0.4,0.3-0.7h1.4l0,0c0,0.6-0.2,1.1-0.7,1.5
			c-0.5,0.4-1,0.6-1.7,0.6c-0.9,0-1.5-0.3-2-0.8c-0.5-0.5-0.7-1.3-0.7-2.1v-0.2c0-0.9,0.2-1.6,0.7-2.1c0.5-0.6,1.2-0.8,2.1-0.8
			c0.5,0,0.9,0.1,1.3,0.2c0.4,0.1,0.7,0.3,0.9,0.6l0,1.6h-1.3l-0.3-0.9c-0.1-0.1-0.2-0.1-0.3-0.2c-0.1,0-0.2-0.1-0.4-0.1
			c-0.4,0-0.8,0.2-0.9,0.5s-0.3,0.7-0.3,1.2V54c0,0.5,0.1,0.9,0.3,1.3C423.1,55.6,423.4,55.7,423.8,55.7z"/>
	</g>
	<g class="st1">
		<path class="st9" d="M430.6,56.8c0-0.1-0.1-0.2-0.1-0.3c0-0.1-0.1-0.2-0.1-0.3c-0.2,0.2-0.4,0.4-0.7,0.5s-0.6,0.2-0.9,0.2
			c-0.6,0-1-0.2-1.4-0.5c-0.3-0.3-0.5-0.7-0.5-1.3c0-0.5,0.2-1,0.7-1.3c0.4-0.3,1.1-0.4,1.9-0.4h0.8v-0.6c0-0.3-0.1-0.5-0.2-0.6
			s-0.4-0.2-0.7-0.2c-0.2,0-0.3,0-0.5,0.1s-0.3,0.1-0.3,0.1l-0.1,0.6h-1.2l0-1.3c0.3-0.2,0.6-0.4,1-0.5c0.4-0.1,0.8-0.2,1.2-0.2
			c0.7,0,1.3,0.2,1.8,0.5s0.7,0.9,0.7,1.5v2.4c0,0.1,0,0.2,0,0.3c0,0.1,0,0.2,0,0.2l0.5,0.1v0.9H430.6z M429.2,55.8
			c0.2,0,0.5-0.1,0.6-0.2c0.2-0.1,0.3-0.2,0.5-0.4v-0.9h-0.8c-0.3,0-0.6,0.1-0.8,0.2c-0.2,0.2-0.3,0.3-0.3,0.6
			c0,0.2,0.1,0.4,0.2,0.5S429,55.8,429.2,55.8z"/>
	</g>
	<g class="st1">
		<path class="st9" d="M434.8,49.6V51h1v1.1h-1v3c0,0.2,0,0.4,0.1,0.5s0.2,0.1,0.4,0.1c0.1,0,0.2,0,0.3,0c0.1,0,0.2,0,0.3,0l0.1,1.1
			c-0.2,0.1-0.3,0.1-0.5,0.1c-0.2,0-0.4,0-0.6,0c-0.5,0-1-0.1-1.2-0.4s-0.4-0.8-0.4-1.4v-3h-0.9V51h0.9v-1.4H434.8z"/>
		<path class="st9" d="M436.6,55.9l0.8-0.2v-3.6l-0.8-0.2V51h2.4v4.7l0.8,0.2v0.9h-3.1V55.9z M438.9,49.6h-1.6v-1.2h1.6V49.6z"/>
		<path class="st9" d="M440.2,53.9c0-0.9,0.2-1.6,0.7-2.1c0.5-0.6,1.2-0.8,2-0.8c0.9,0,1.5,0.3,2,0.8s0.7,1.3,0.7,2.1V54
			c0,0.9-0.2,1.6-0.7,2.1s-1.2,0.8-2,0.8c-0.9,0-1.5-0.3-2-0.8c-0.5-0.5-0.7-1.3-0.7-2.1V53.9z M441.7,54c0,0.5,0.1,1,0.3,1.3
			c0.2,0.3,0.5,0.5,0.9,0.5c0.4,0,0.7-0.2,0.9-0.5c0.2-0.3,0.3-0.7,0.3-1.3v-0.1c0-0.5-0.1-0.9-0.3-1.3s-0.5-0.5-0.9-0.5
			s-0.7,0.2-0.9,0.5c-0.2,0.3-0.3,0.7-0.3,1.3V54z"/>
		<path class="st9" d="M446.2,55.9l0.8-0.2v-3.6l-0.8-0.2V51h2.3l0.1,0.8c0.2-0.3,0.4-0.5,0.7-0.7c0.3-0.2,0.6-0.2,1-0.2
			c0.6,0,1,0.2,1.4,0.6c0.3,0.4,0.5,0.9,0.5,1.7v2.5l0.8,0.2v0.9h-3v-0.9l0.7-0.2v-2.5c0-0.4-0.1-0.7-0.2-0.8
			c-0.2-0.2-0.4-0.2-0.7-0.2c-0.2,0-0.4,0-0.6,0.1s-0.3,0.2-0.4,0.4v3.1l0.6,0.2v0.9h-3V55.9z"/>
	</g>
	<path class="st10" d="M415.9,13.6c4.6-4.5,12.1-4.5,16.6,0.2c4.5,4.6,4.5,12.1-0.2,16.6c-4.6,4.5-12.1,4.5-16.6-0.2
		c-2.1-2.2-3.4-5.1-3.4-8.2c0-2.6,0.8-5.1,2.4-7.1"/>
	<path class="st11" d="M424.1,27.6h-4.2c-0.6,0-0.8-0.2-0.8-0.8v-6.5c0-0.6,0.2-0.8,0.8-0.8h8.5c0.5,0,0.8,0.2,0.8,0.8v6.5
		c0,0.5-0.2,0.8-0.8,0.8C426.9,27.7,425.5,27.6,424.1,27.6z"/>
	<path class="st11" d="M419.7,19c0-1.8,1-3.4,2.6-4.1c2.1-0.9,4.6,0,5.5,2.1c0.1,0.2,0.2,0.5,0.2,0.7c0.1,0.4,0.1,0.8,0.2,1.2"/>
	<path class="st9" d="M423.4,24.9L423.4,24.9v0.9c0,0.2,0.1,0.2,0.3,0.2h0.8c0.2,0,0.3-0.1,0.3-0.3v-1.6c0-0.2,0.1-0.3,0.2-0.4
		c0.5-0.3,0.8-0.9,0.6-1.5c-0.2-0.6-0.8-1-1.4-1c-0.7-0.1-1.3,0.3-1.6,0.9c-0.2,0.6,0,1.2,0.5,1.5c0.2,0.1,0.3,0.3,0.3,0.5
		C423.4,24.4,423.4,24.6,423.4,24.9z"/>
	<g id="Scone_logo_white">
		<g>
			<defs>
				<rect id="SVGID_2_" x="405.5" y="68.6" width="36.3" height="7.1"/>
			</defs>
			<clipPath id="SVGID_3_">
				<use xlink:href="#SVGID_2_"  style="overflow:visible;"/>
			</clipPath>
			<g class="st12">
				<g>
					<defs>
						<rect id="SVGID_4_" x="405.5" y="68.6" width="36.3" height="7.1"/>
					</defs>
					<clipPath id="SVGID_5_">
						<use xlink:href="#SVGID_4_"  style="overflow:visible;"/>
					</clipPath>
					<g class="st13">
						<path class="st14" d="M410.3,70.4h-0.8c-0.2,0-0.3,0.1-0.3,0.3v0v0.8c0,0.2,0.1,0.3,0.3,0.3l0,0h0.8c0.2,0,0.3-0.1,0.3-0.3v0
							v-0.8C410.6,70.6,410.5,70.4,410.3,70.4L410.3,70.4 M407.7,71.8h0.8c0.2,0,0.3-0.1,0.3-0.3v0v-0.8c0-0.2-0.1-0.3-0.3-0.3l0,0
							h-0.8c-0.2,0-0.3,0.1-0.3,0.3v0.8C407.4,71.7,407.5,71.8,407.7,71.8 M406.9,71.5v-0.8c0-0.2-0.1-0.3-0.3-0.3h-0.8
							c-0.2,0-0.3,0.1-0.3,0.3v0v0.8c0,0.2,0.1,0.3,0.3,0.3l0,0h0.8C406.7,71.8,406.8,71.7,406.9,71.5 M410.4,72.3
							c-0.1,0-0.2,0.1-0.2,0.2v0.9c0,0.1,0.1,0.2,0.2,0.2c0.1,0,0.2-0.1,0.2-0.2l0,0v-0.9C410.6,72.5,410.5,72.4,410.4,72.3
							C410.4,72.3,410.4,72.3,410.4,72.3 M408.3,72.6v0.8c0,0.2,0.1,0.3,0.3,0.3l0,0h0.8c0.2,0,0.3-0.1,0.3-0.3c0,0,0,0,0,0v-0.8
							c0-0.2-0.1-0.3-0.3-0.3c0,0,0,0,0,0h-0.8C408.4,72.3,408.3,72.5,408.3,72.6C408.3,72.6,408.3,72.6,408.3,72.6 M407.7,73.4
							v-0.8c0-0.2-0.1-0.3-0.3-0.3c0,0,0,0,0,0h-0.8c-0.2,0-0.3,0.1-0.3,0.3c0,0,0,0,0,0v0.8c0,0.2,0.1,0.3,0.3,0.3c0,0,0,0,0,0h0.8
							C407.6,73.7,407.7,73.6,407.7,73.4L407.7,73.4 M410.3,74.3h-0.8c-0.2,0-0.3,0.1-0.3,0.3v0v0.8c0,0.2,0.1,0.3,0.3,0.3h0.8
							c0.2,0,0.3-0.1,0.3-0.3v-0.8C410.6,74.4,410.5,74.3,410.3,74.3L410.3,74.3 M408.3,74.3h-0.8c-0.2,0-0.3,0.1-0.3,0.3v0v0.8
							c0,0.2,0.1,0.3,0.3,0.3h0.8c0.2,0,0.3-0.1,0.3-0.3v-0.8C408.6,74.4,408.5,74.3,408.3,74.3L408.3,74.3"/>
						<path class="st14" d="M411.2,70.1c0.3,0.3,0.8,0.4,1.2,0.4c0,0,0,0,0,0.1v2.1c0,0.8-1,1.3-1.2,1.4l0,0L411.2,70.1L411.2,70.1"
							/>
						<path class="st14" d="M408.9,70c1.6-0.1,1.9-0.6,1.9-0.6c0,0,0.1,0,0.1,0c0,0,0,0,0.1,0s0.3,0.6,1.9,0.6c0,0,0.1,0,0.1,0.1
							v2.8c0,0.9-1.7,1.9-1.7,1.9s-0.1,0.1-0.1,0.1v0.7c0,0,0.1,0,0.1,0c0.6-0.3,2.3-1.3,2.3-2.5v-3.5c0-0.1-0.1-0.1-0.2-0.1
							c-2,0-2.4-0.8-2.4-0.8s-0.1,0-0.1,0s-0.1,0-0.1,0s-0.3,0.8-2.4,0.8c-0.1,0-0.1,0-0.1,0.1V70c0,0,0,0.1,0.1,0.1L408.9,70"/>
						<path class="st15" d="M415.1,74.5l0.8-0.3c0.2,0.4,0.6,0.6,1.1,0.6c0.2,0,0.4,0,0.6-0.2c0.2-0.1,0.3-0.3,0.3-0.4
							c0-0.4-0.6-0.7-1-0.9l0,0c-0.3-0.1-0.7-0.3-1-0.5c-0.3-0.2-0.5-0.6-0.5-1c0-0.4,0.2-0.8,0.5-1c0.3-0.3,0.8-0.4,1.2-0.4
							c0.7,0,1.3,0.3,1.6,0.9l-0.9,0.3c-0.1-0.1-0.2-0.2-0.3-0.3c-0.1-0.1-0.3-0.1-0.5-0.1c-0.5,0-0.8,0.3-0.8,0.6
							c0,0.2,0.1,0.4,0.3,0.5c0.2,0.2,0.5,0.3,0.7,0.4h0.1c0.6,0.3,1.4,0.6,1.4,1.4c0,0.4-0.2,0.8-0.6,1c-0.4,0.3-0.9,0.4-1.3,0.4
							C416.3,75.6,415.5,75.1,415.1,74.5"/>
						<path class="st15" d="M422.4,75.6c-0.3,0-0.7-0.1-1-0.2c-0.6-0.3-1.1-0.8-1.4-1.4c-0.3-0.6-0.3-1.4,0-2
							c0.1-0.3,0.3-0.6,0.6-0.8c0.2-0.2,0.5-0.4,0.8-0.6c0.7-0.3,1.5-0.3,2.2,0.1c0.3,0.2,0.7,0.4,0.9,0.7l-0.7,0.5
							c-0.2-0.2-0.4-0.4-0.6-0.5c-0.2-0.1-0.5-0.2-0.8-0.2c-1,0-1.7,0.8-1.7,1.7c0,0.5,0.2,0.9,0.5,1.2c0.7,0.7,1.8,0.7,2.5,0
							c0.1-0.1,0.2-0.2,0.3-0.4l0.8,0.4c-0.2,0.4-0.5,0.8-0.9,1C423.3,75.5,422.8,75.6,422.4,75.6"/>
						<path class="st15" d="M428,75.6c-0.3,0-0.7-0.1-1-0.2c-0.3-0.1-0.6-0.3-0.8-0.6c-0.2-0.2-0.4-0.5-0.5-0.8
							c-0.1-0.3-0.2-0.7-0.2-1c0-0.3,0.1-0.7,0.2-1c0.1-0.3,0.3-0.6,0.5-0.8c0.2-0.2,0.5-0.4,0.8-0.6c0.6-0.3,1.4-0.3,2,0
							c0.3,0.1,0.6,0.3,0.8,0.6c0.2,0.2,0.4,0.5,0.6,0.8c0.3,0.6,0.3,1.4,0,2c-0.1,0.3-0.3,0.6-0.6,0.8c-0.2,0.2-0.5,0.4-0.8,0.6
							C428.7,75.6,428.4,75.6,428,75.6 M428,71.3c-0.5,0-0.9,0.2-1.2,0.5c-0.3,0.3-0.5,0.8-0.5,1.2c0,1,0.8,1.7,1.7,1.7
							c0.5,0,0.9-0.2,1.2-0.5c0.3-0.3,0.5-0.8,0.5-1.2c0-0.5-0.2-0.9-0.5-1.2C429,71.5,428.5,71.3,428,71.3"/>
						<polygon class="st15" points="436.5,70.5 436.5,75.8 432.9,72.4 432.9,75.6 432,75.6 432,70.3 435.6,73.6 435.6,70.5 						
							"/>
						<polygon class="st15" points="439,71.3 439,72.6 441.5,72.6 441.5,73.4 439,73.4 439,74.8 441.8,74.8 441.8,75.6 438.1,75.6 
							438.1,70.5 441.8,70.5 441.8,71.3 439,71.3 						"/>
					</g>
				</g>
			</g>
		</g>
	</g>
	<g id="Scone_logo_black">
		<g>
			<defs>
				<rect id="SVGID_6_" x="167.3" y="265.8" width="58.3" height="11.4"/>
			</defs>
			<clipPath id="SVGID_7_">
				<use xlink:href="#SVGID_6_"  style="overflow:visible;"/>
			</clipPath>
			<g class="st16">
				<g>
					<defs>
						<rect id="SVGID_8_" x="167.3" y="265.8" width="58.3" height="11.4"/>
					</defs>
					<clipPath id="SVGID_9_">
						<use xlink:href="#SVGID_8_"  style="overflow:visible;"/>
					</clipPath>
					<g class="st17">
						<path class="st14" d="M175,268.7h-1.2c-0.3,0-0.5,0.2-0.5,0.5l0,0v1.2c0,0.3,0.2,0.5,0.5,0.5l0,0h1.2c0.3,0,0.5-0.2,0.5-0.5
							l0,0v-1.2C175.5,268.9,175.3,268.7,175,268.7L175,268.7 M170.8,270.9h1.3c0.3,0,0.5-0.2,0.5-0.5l0,0v-1.2
							c0-0.3-0.2-0.5-0.5-0.5l0,0h-1.2c-0.3,0-0.5,0.2-0.5,0.5l0,0v1.2C170.3,270.6,170.5,270.9,170.8,270.9L170.8,270.9
							 M169.5,270.4v-1.2c0-0.3-0.2-0.5-0.5-0.5l0,0h-1.2c-0.3,0-0.5,0.2-0.5,0.5l0,0v1.2c0,0.3,0.2,0.5,0.5,0.5l0,0h1.2
							C169.3,270.9,169.5,270.6,169.5,270.4L169.5,270.4 M175.1,271.7c-0.2,0-0.3,0.2-0.4,0.4v1.5c0,0.2,0.2,0.3,0.4,0.3
							c0.2,0,0.3-0.2,0.3-0.3v-1.5C175.5,271.9,175.3,271.7,175.1,271.7C175.1,271.7,175.1,271.7,175.1,271.7 M171.8,272.2v1.2
							c0,0.3,0.2,0.5,0.5,0.5l0,0h1.2c0.3,0,0.5-0.2,0.5-0.5v-1.2c0-0.3-0.2-0.5-0.5-0.5h-1.2C172,271.7,171.8,271.9,171.8,272.2
							L171.8,272.2 M170.9,273.4v-1.2c0-0.3-0.2-0.5-0.5-0.5l0,0h-1.2c-0.3,0-0.5,0.2-0.5,0.5l0,0v1.2c0,0.3,0.2,0.5,0.5,0.5l0,0
							h1.2C170.7,273.9,170.9,273.7,170.9,273.4L170.9,273.4 M175,274.8h-1.2c-0.3,0-0.5,0.2-0.5,0.5l0,0v1.2c0,0.3,0.2,0.5,0.5,0.5
							l0,0h1.2c0.3,0,0.5-0.2,0.5-0.5l0,0v-1.2C175.5,275,175.3,274.8,175,274.8L175,274.8 M171.8,274.8h-1.2
							c-0.3,0-0.5,0.2-0.5,0.5l0,0v1.2c0,0.3,0.2,0.5,0.5,0.5l0,0h1.2c0.3,0,0.5-0.2,0.5-0.5l0,0v-1.2
							C172.3,275,172.1,274.8,171.8,274.8L171.8,274.8"/>
						<path class="st14" d="M176.5,268.2c0.5,0.4,1.2,0.6,1.9,0.6c0,0,0,0,0,0.1v3.4c0,1.3-1.6,2.1-1.9,2.3l0,0L176.5,268.2
							C176.4,268.2,176.4,268.2,176.5,268.2"/>
						<path class="st14" d="M172.8,268c2.6-0.1,3-1,3-1c0,0,0.1-0.1,0.1-0.1c0.1,0,0.1,0,0.1,0s0.4,1,3,1c0.1,0,0.1,0,0.1,0.1v4.4
							c0,1.4-2.7,3-2.7,3s-0.1,0.1-0.1,0.1v1.1c0,0,0.2,0.1,0.2,0c1-0.5,3.8-2.1,3.8-4v-5.6c0-0.1-0.2-0.2-0.3-0.2
							c-3.3,0-3.9-1.2-3.9-1.2s-0.1,0-0.2,0s-0.1,0-0.1,0s-0.5,1.2-3.8,1.2c-0.1,0-0.1,0-0.1,0.1v0.7c0,0,0,0.2,0.1,0.2
							S172.8,268,172.8,268"/>
						<path d="M182.7,275.2l1.3-0.5c0.3,0.6,1,1,1.7,1c0.3,0,0.7-0.1,1-0.2c0.3-0.1,0.4-0.4,0.4-0.7c0-0.7-1-1.1-1.7-1.4h-0.1
							c-0.5-0.2-1.1-0.5-1.5-0.8c-0.5-0.4-0.8-0.9-0.8-1.5c0-0.6,0.3-1.2,0.8-1.6c0.6-0.4,1.2-0.7,1.9-0.7c1.1-0.1,2.1,0.5,2.6,1.4
							l-1.4,0.5c-0.1-0.2-0.3-0.4-0.5-0.5c-0.2-0.1-0.5-0.2-0.8-0.2c-0.8,0-1.3,0.4-1.3,0.9c0,0.3,0.2,0.7,0.5,0.8
							c0.4,0.2,0.8,0.4,1.2,0.6l0.2,0.1c1,0.4,2.3,1,2.3,2.3c0,0.7-0.3,1.3-0.9,1.7c-0.6,0.4-1.4,0.6-2.1,0.6
							C184.4,277.1,183.2,276.4,182.7,275.2"/>
						<path d="M194.3,277c-0.6,0-1.1-0.1-1.6-0.3c-0.5-0.2-0.9-0.5-1.3-0.9c-0.4-0.4-0.7-0.8-0.9-1.3c-0.2-0.5-0.3-1.1-0.3-1.6
							c0-0.6,0.1-1.1,0.3-1.6c0.4-1,1.2-1.8,2.2-2.2c0.5-0.2,1.1-0.3,1.6-0.3c0.7,0,1.3,0.1,1.9,0.5c0.6,0.3,1.1,0.7,1.4,1.2
							l-1.1,0.8c-0.5-0.7-1.4-1.1-2.2-1.1c-1.5,0-2.8,1.3-2.8,2.8c0,1.5,1.3,2.8,2.8,2.8c0.5,0,1-0.1,1.4-0.4c0.4-0.2,0.8-0.6,1-1
							l1.2,0.7c-0.4,0.6-0.9,1.2-1.5,1.5C195.8,276.8,195.1,277.1,194.3,277"/>
						<path d="M203.4,277c-0.6,0-1.1-0.1-1.6-0.3c-0.5-0.2-0.9-0.5-1.3-0.9c-0.4-0.4-0.7-0.8-0.9-1.3c-0.2-0.5-0.3-1.1-0.3-1.6
							c0-0.6,0.1-1.1,0.3-1.6c0.2-0.5,0.5-0.9,0.9-1.3c0.4-0.4,0.8-0.7,1.3-0.9c0.5-0.2,1.1-0.3,1.6-0.3c0.5,0,1.1,0.1,1.6,0.3
							c0.5,0.2,0.9,0.5,1.3,0.9c0.4,0.4,0.7,0.8,0.9,1.3c0.2,0.5,0.3,1.1,0.3,1.6c0,1.7-1,3.2-2.5,3.8
							C204.5,276.9,203.9,277,203.4,277 M203.4,270c-0.8,0-1.5,0.3-2,0.8c-0.5,0.5-0.8,1.3-0.8,2c0,0.8,0.3,1.5,0.8,2
							c0.5,0.5,1.2,0.8,2,0.8c0.8,0,1.5-0.3,2-0.8c0.5-0.5,0.8-1.2,0.8-2C206.2,271.3,204.9,270,203.4,270"/>
						<polygon points="217,268.7 217,277.2 211.2,271.8 211.2,276.9 209.7,276.9 209.7,268.4 215.5,273.8 215.5,268.7 						"/>
						<polygon points="221,270 221,272.1 225,272.1 225,273.4 221,273.4 221,275.6 225.5,275.6 225.5,276.9 219.5,276.9 
							219.5,268.7 225.5,268.7 225.5,270 221,270 						"/>
					</g>
				</g>
			</g>
		</g>
	</g>
</g>
<g id="Ebene_4">
	<path class="st18" d="M42.6,181.8c-1.7,0-3-1.3-3-3v-4.4c0-2,0.8-3.9,2.3-5.3c0.3-0.3,0.6-0.5,0.8-0.7c-1.3-1.3-2.3-3-2.7-4.8
		c-1.7-0.9-2.7-2.7-2.7-4.6c0-0.6,0.1-1.2,0.3-1.8l0,0c-0.8-1.1-1.2-2.5-1.1-3.9c0.1-1.2,0.6-2.3,1.5-3.2c-0.4-2,0.5-4,2.3-4.9l2-1
		l4.6-2c2.1-0.9,4.5-0.9,6.6,0l4.5,2l1.8,0.9c2,1,3,3.3,2.2,5.4l0.3,0.3c2.1,1.6,2.6,4.5,1.2,6.8l-0.5,0.9c0,0.2,0,0.4,0,0.6
		c0,1.6-0.7,3.2-2,4.2c-0.3,2.1-1.3,4-2.9,5.4c0.3,0.2,0.6,0.5,0.8,0.8c1.3,1.4,2,3.1,2,5v4.4c0,1.7-1.3,3-3,3L42.6,181.8z"/>
	<path class="st19" d="M50.2,142.4c1,0,2,0.2,2.9,0.6l4.5,2l1.7,0.9c1.7,0.9,2.4,2.9,1.6,4.6c0,0,0,0,0,0l-0.1,0.2l0.9,0.8
		c1.7,1.3,2.1,3.7,1,5.5l-0.8,1.1c0.1,0.3,0.1,0.6,0.1,0.9c0,1.5-0.8,2.9-2.1,3.6c-0.3,2.5-1.6,4.7-3.7,6.1h0.1
		c0.1,0.1,0.3,0.1,0.4,0.2c0.5,0.3,1,0.7,1.4,1.1c1.2,1.2,1.8,2.8,1.9,4.4v4.4c0,1.1-0.9,2-2,2H42.6c-1.1,0-2-0.9-2-2v-4.4
		c0-1.7,0.7-3.4,2-4.6c0.3-0.3,0.6-0.6,1-0.9l0.1-0.1c0.2-0.1,0.4-0.3,0.7-0.4l0,0c-0.3-0.3-0.6-0.5-0.9-0.8c-1.3-1.3-2.3-3-2.7-4.9
		c-1.5-0.7-2.5-2.2-2.5-3.9c0-0.7,0.2-1.4,0.5-2l-0.4-0.5c-0.7-0.9-1-2-0.9-3.1c0.1-1.1,0.7-2.2,1.6-2.9l0,0l0-0.4
		c-0.4-1.6,0.3-3.2,1.8-4l2-1l4.5-2C48.2,142.6,49.2,142.4,50.2,142.4 M50.2,140.4c-1.3,0-2.5,0.3-3.7,0.8l-4.5,2l-2.1,1
		c-2,1.1-3.2,3.3-2.9,5.6c-0.8,0.9-1.3,2.1-1.5,3.4c-0.2,1.5,0.2,3,1,4.2c-0.1,0.5-0.2,1.1-0.2,1.6c0,2.1,1.1,4.1,2.8,5.2
		c0.4,1.5,1.2,2.9,2.2,4.1l-0.1,0.1c-1.7,1.6-2.6,3.7-2.6,6v4.4c0,2.2,1.8,4,4,4H58c2.2,0,4-1.8,4-4v-4.4c0-2.1-0.8-4.2-2.3-5.7
		l-0.1-0.2c1.2-1.3,2-3,2.4-4.8c1.4-1.2,2.2-2.9,2.2-4.7c0-0.1,0-0.3,0-0.4l0.4-0.6c1.6-2.6,1.1-6-1.2-8c0.5-2.4-0.7-4.8-2.9-5.9
		l-1.8-0.9l-4.6-2C52.8,140.6,51.6,140.3,50.2,140.4L50.2,140.4z"/>
	<path class="st18" d="M42.6,179.8c-0.6,0-1-0.4-1-1v-4.4c0-1.5,0.6-2.8,1.7-3.8c0.3-0.3,0.6-0.5,1-0.8c0.2-0.1,0.4-0.2,0.6-0.3
		c0.1,0,0.1-0.1,0.2-0.1c0.1-0.1,0.2-0.1,0.2-0.1c0.5-0.2,1-0.2,1.5-0.3v-0.2c-0.9-0.4-1.8-1-2.5-1.7c-1.3-1.3-2.2-3.1-2.5-4.9
		c-1.7-0.4-2.8-2.2-2.4-3.9c0.1-0.5,0.3-0.9,0.6-1.3l-0.9-1.1c-0.5-0.7-0.8-1.5-0.7-2.4c0.1-0.9,0.5-1.6,1.2-2.2l0.6-0.4l-0.2-1.1
		c-0.3-1.1,0.2-2.3,1.3-2.8l1.9-1l4.6-2c1.6-0.7,3.4-0.7,5,0l4.5,2l1.7,0.8c1.2,0.6,1.7,2.1,1.1,3.3l-0.4,0.9l1.6,1.3
		c1.3,1,1.6,2.8,0.7,4.2l-1,1.5c0.1,0.3,0.2,0.7,0.2,1c0,1.3-0.8,2.5-2,3c-0.1,4.3-3.6,6.3-5.2,6.9v0.2c0.5,0,1.1,0.1,1.6,0.4
		l0.4,0.2l0.3,0.1l0.2,0.1c0.4,0.2,0.8,0.6,1.1,0.9c1,1,1.5,2.3,1.6,3.7v4.4c0,0.6-0.4,1-1,1H42.6z"/>
	<path class="st2" d="M50.2,144.4c0.7,0,1.4,0.1,2.1,0.4l4.5,2l1.6,0.8c0.7,0.4,1,1.3,0.7,2c0,0,0,0,0,0l-0.8,1.6l2.2,1.8
		c0.9,0.7,1.1,1.9,0.5,2.9l-1.3,2c0.2,0.3,0.3,0.7,0.3,1.1c0,1.1-0.9,2.1-2.1,2.1v0.1c0.3,5.3-5.2,6.9-5.2,6.9l0,0v1.8h0.7
		c0.5,0,1,0.1,1.5,0.3c0.2,0.1,0.5,0.2,0.7,0.3c0.3,0.2,0.6,0.4,0.9,0.7c0.9,0.8,1.4,1.9,1.4,3.1v4.4H42.6v-4.4
		c0-1.2,0.5-2.3,1.3-3.1c0.3-0.3,0.6-0.5,0.9-0.7c0.2-0.1,0.5-0.2,0.7-0.4c0.5-0.1,1-0.2,1.5-0.2h0.7v-1.9l0,0h0.1l0,0h-0.1l0,0l0,0
		c-1-0.4-2-1-2.8-1.8c-1.4-1.4-2.3-3.4-2.3-5.4l-0.1-0.1v0.4c-1.2,0-2.2-1-2.2-2.2c0-0.8,0.4-1.5,1.1-1.9l-1.5-1.8
		c-0.7-1-0.6-2.4,0.4-3.2l1.1-0.8l-0.4-1.8c-0.2-0.7,0.1-1.4,0.7-1.7l1.9-0.9l4.5-2C48.8,144.5,49.6,144.4,50.2,144.4 M50.3,142.4
		c-1,0-2,0.2-2.9,0.6l-4.5,2l-0.1,0.1l-1.9,0.9c-1.4,0.7-2.2,2.3-1.8,3.9v0.1l0.1,0.5l0,0c-1.8,1.5-2.2,4.1-0.8,6l0.4,0.6
		c-0.3,0.6-0.5,1.3-0.5,2c0,1.7,1,3.2,2.5,3.9c0.4,1.9,1.3,3.6,2.7,4.9c0.3,0.3,0.6,0.5,0.9,0.8h-0.1c-0.2,0.1-0.5,0.2-0.7,0.4
		l-0.1,0.1c-0.4,0.3-0.7,0.6-1.1,0.9c-1.2,1.2-1.9,2.8-1.9,4.5v4.4c0,1.1,0.9,2,2,2H58c1.1,0,2-0.9,2-2v-4.4c0-1.6-0.7-3.2-1.8-4.4
		c-0.4-0.5-0.8-0.8-1.4-1.1c-0.1-0.1-0.3-0.1-0.4-0.2c0,0-0.1,0-0.1,0c2-1.4,3.4-3.6,3.7-6c1.3-0.8,2.1-2.1,2.1-3.6
		c0-0.3,0-0.6-0.1-0.9l0.7-1.1c1.1-1.8,0.7-4.2-1-5.5l-0.9-0.7l0.1-0.2c0.9-1.7,0.2-3.8-1.6-4.7l-1.6-0.8l-0.1-0.1l-4.5-2
		c-0.9-0.4-1.9-0.6-2.9-0.6L50.3,142.4z"/>
	<g class="st1">
		<path class="st2" d="M31,198.4l0.6-0.1l2.6-7.6h1.8l2.6,7.6l0.6,0.1v1h-3v-1l0.6-0.1l-0.4-1.2h-2.8l-0.4,1.2l0.6,0.1v1h-3V198.4z
			 M34.2,195.8h2l-1-3.1h0L34.2,195.8z"/>
	</g>
	<g class="st1">
		<path class="st2" d="M43.8,198.7c-0.2,0.3-0.5,0.5-0.8,0.7c-0.3,0.2-0.7,0.2-1,0.2c-0.7,0-1.2-0.2-1.6-0.7c-0.4-0.4-0.6-1.1-0.6-2
			v-2.7l-0.7-0.2V193h0.7h1.7v3.9c0,0.5,0.1,0.8,0.2,1s0.4,0.3,0.7,0.3c0.3,0,0.5,0,0.7-0.1c0.2-0.1,0.4-0.2,0.5-0.4v-3.5l-0.8-0.2
			V193h0.8h1.7v5.2l0.8,0.2v1h-2.3L43.8,198.7z"/>
		<path class="st2" d="M51.1,198.7c-0.2,0.3-0.4,0.5-0.7,0.7c-0.3,0.2-0.6,0.2-0.9,0.2c-0.8,0-1.4-0.3-1.9-0.9
			c-0.4-0.6-0.7-1.3-0.7-2.3v-0.1c0-1,0.2-1.8,0.7-2.5c0.4-0.6,1.1-0.9,1.9-0.9c0.3,0,0.6,0.1,0.9,0.2c0.3,0.1,0.5,0.3,0.7,0.6v-2.3
			l-0.9-0.2v-1.1H51h1.7v8.1l0.8,0.2v1h-2.3L51.1,198.7z M48.7,196.4c0,0.6,0.1,1,0.3,1.3c0.2,0.3,0.5,0.5,0.9,0.5
			c0.3,0,0.5-0.1,0.7-0.2c0.2-0.1,0.3-0.3,0.5-0.4v-2.7c-0.1-0.2-0.3-0.4-0.5-0.5c-0.2-0.1-0.4-0.2-0.7-0.2c-0.4,0-0.7,0.2-0.9,0.6
			s-0.3,0.9-0.3,1.5V196.4z"/>
		<path class="st2" d="M54.1,198.4l0.8-0.2v-4l-0.9-0.2V193h2.7v5.2l0.8,0.2v1h-3.4V198.4z M56.7,191.5H55v-1.3h1.7V191.5z"/>
	</g>
	<g class="st1">
		<path class="st2" d="M60.7,191.4v1.6h1.1v1.2h-1.1v3.3c0,0.3,0.1,0.4,0.2,0.5s0.2,0.2,0.4,0.2c0.1,0,0.2,0,0.3,0
			c0.1,0,0.2,0,0.3-0.1l0.1,1.3c-0.2,0.1-0.4,0.1-0.6,0.1s-0.4,0-0.6,0c-0.6,0-1.1-0.2-1.4-0.5s-0.5-0.9-0.5-1.6v-3.3h-1V193h1v-1.6
			H60.7z"/>
	</g>
	<g class="st1">
		<path class="st2" d="M62.5,196.2c0-1,0.3-1.8,0.8-2.4c0.5-0.6,1.3-0.9,2.2-0.9c1,0,1.7,0.3,2.2,0.9c0.5,0.6,0.8,1.4,0.8,2.4v0.1
			c0,1-0.3,1.8-0.8,2.4c-0.5,0.6-1.3,0.9-2.2,0.9c-1,0-1.7-0.3-2.3-0.9c-0.5-0.6-0.8-1.4-0.8-2.4V196.2z M64.3,196.3
			c0,0.6,0.1,1.1,0.3,1.4c0.2,0.4,0.5,0.5,1,0.5c0.5,0,0.8-0.2,1-0.5c0.2-0.4,0.3-0.8,0.3-1.4v-0.1c0-0.6-0.1-1-0.3-1.4
			c-0.2-0.4-0.5-0.5-1-0.5c-0.5,0-0.8,0.2-1,0.5c-0.2,0.4-0.3,0.8-0.3,1.4V196.3z"/>
		<path class="st2" d="M69.5,198.4l0.8-0.2v-4l-0.9-0.2V193H72L72,194c0.2-0.3,0.3-0.6,0.6-0.8c0.2-0.2,0.5-0.3,0.8-0.3
			c0.1,0,0.2,0,0.3,0c0.1,0,0.2,0,0.3,0.1l-0.2,1.6l-0.7,0c-0.3,0-0.5,0.1-0.6,0.2c-0.2,0.1-0.3,0.2-0.4,0.4v3.1l0.8,0.2v1h-3.4
			V198.4z"/>
	</g>
	<g class="st1">
		<path class="st2" d="M11.2,213.7c-0.3-0.3-0.6-0.7-0.8-1.1c-0.2-0.4-0.4-0.8-0.5-1.2c-0.1-0.4-0.2-0.8-0.3-1.2s-0.1-0.8-0.1-1.2
			c0-0.4,0-0.8,0.1-1.2s0.2-0.8,0.3-1.2c0.1-0.4,0.3-0.8,0.5-1.2c0.2-0.4,0.5-0.8,0.8-1.1l0.5,0.4c-0.3,0.3-0.5,0.7-0.7,1.1
			c-0.2,0.4-0.3,0.7-0.4,1.1c-0.1,0.4-0.2,0.7-0.2,1.1c0,0.4-0.1,0.7-0.1,1.1c0,0.3,0,0.7,0.1,1c0,0.4,0.1,0.8,0.2,1.1
			c0.1,0.4,0.3,0.7,0.4,1.1s0.4,0.7,0.6,1L11.2,213.7z"/>
	</g>
	<g class="st1">
		<path class="st2" d="M15.8,211.2c-0.2,0.1-0.4,0.3-0.7,0.3c-0.3,0.1-0.6,0.1-0.9,0.1c-0.4,0-0.7-0.1-1-0.2
			c-0.3-0.1-0.5-0.3-0.7-0.5s-0.3-0.5-0.4-0.8c-0.1-0.3-0.1-0.7-0.1-1.1c0-0.8,0.2-1.5,0.6-1.9c0.4-0.4,0.9-0.7,1.6-0.7
			c0.3,0,0.6,0,0.8,0.1c0.2,0,0.4,0.1,0.6,0.2l-0.2,0.7c-0.2-0.1-0.3-0.2-0.5-0.2c-0.2,0-0.4-0.1-0.6-0.1c-0.9,0-1.4,0.6-1.4,1.9
			c0,0.3,0,0.5,0.1,0.7s0.1,0.4,0.3,0.6c0.1,0.2,0.3,0.3,0.5,0.4s0.4,0.2,0.7,0.2c0.2,0,0.5,0,0.6-0.1c0.2-0.1,0.3-0.2,0.5-0.3
			L15.8,211.2z"/>
		<path class="st2" d="M20.1,211.5v-2.8c0-0.3,0-0.5,0-0.7c0-0.2-0.1-0.4-0.2-0.5s-0.2-0.2-0.3-0.3s-0.3-0.1-0.5-0.1
			c-0.3,0-0.6,0.1-0.9,0.3s-0.4,0.5-0.5,0.8v3.3h-0.8v-7h0.8v2.6h0c0.2-0.2,0.4-0.4,0.6-0.5c0.2-0.1,0.5-0.2,0.9-0.2
			c0.3,0,0.5,0,0.7,0.1c0.2,0.1,0.4,0.2,0.5,0.3c0.1,0.2,0.2,0.4,0.3,0.6c0.1,0.3,0.1,0.6,0.1,1v3H20.1z"/>
	</g>
	<g class="st1">
		<path class="st2" d="M26,211.1c-0.2,0.2-0.5,0.3-0.8,0.4c-0.3,0.1-0.6,0.1-1,0.1c-0.4,0-0.7-0.1-1-0.2c-0.3-0.1-0.5-0.3-0.7-0.5
			s-0.3-0.5-0.4-0.8c-0.1-0.3-0.1-0.7-0.1-1.1c0-0.9,0.2-1.5,0.6-2c0.4-0.4,0.9-0.7,1.6-0.7c0.2,0,0.5,0,0.7,0.1
			c0.2,0,0.4,0.1,0.6,0.3c0.2,0.1,0.3,0.3,0.4,0.6c0.1,0.3,0.2,0.6,0.2,1c0,0.2,0,0.5-0.1,0.7h-3.2c0,0.3,0,0.6,0.1,0.8
			s0.2,0.4,0.3,0.6c0.1,0.2,0.3,0.3,0.5,0.4c0.2,0.1,0.5,0.1,0.7,0.1c0.2,0,0.5,0,0.7-0.1s0.4-0.2,0.5-0.3L26,211.1z M24.3,207.1
			c-0.4,0-0.7,0.1-0.9,0.3c-0.2,0.2-0.4,0.6-0.4,1.1h2.5c0-0.5-0.1-0.9-0.3-1.1S24.7,207.1,24.3,207.1z"/>
	</g>
	<g class="st1">
		<path class="st2" d="M30.8,211.2c-0.2,0.1-0.4,0.3-0.7,0.3c-0.3,0.1-0.6,0.1-0.9,0.1c-0.4,0-0.7-0.1-1-0.2
			c-0.3-0.1-0.5-0.3-0.7-0.5s-0.3-0.5-0.4-0.8c-0.1-0.3-0.1-0.7-0.1-1.1c0-0.8,0.2-1.5,0.6-1.9c0.4-0.4,0.9-0.7,1.6-0.7
			c0.3,0,0.6,0,0.8,0.1c0.2,0,0.4,0.1,0.6,0.2l-0.2,0.7c-0.2-0.1-0.3-0.2-0.5-0.2c-0.2,0-0.4-0.1-0.6-0.1c-0.9,0-1.4,0.6-1.4,1.9
			c0,0.3,0,0.5,0.1,0.7s0.1,0.4,0.3,0.6c0.1,0.2,0.3,0.3,0.5,0.4s0.4,0.2,0.7,0.2c0.2,0,0.5,0,0.6-0.1c0.2-0.1,0.3-0.2,0.5-0.3
			L30.8,211.2z"/>
		<path class="st2" d="M33.1,209.2h-0.5v2.3h-0.8v-7h0.8v4.3l0.4-0.1l1.5-2.1h0.9l-1.5,2l-0.4,0.3l0.5,0.4l1.7,2.3h-1L33.1,209.2z"
			/>
		<path class="st2" d="M38.9,210.1c0-0.2-0.1-0.4-0.2-0.5s-0.3-0.2-0.4-0.3c-0.2-0.1-0.4-0.2-0.6-0.2s-0.4-0.2-0.6-0.3
			c-0.2-0.1-0.3-0.3-0.4-0.4c-0.1-0.2-0.2-0.4-0.2-0.7c0-0.5,0.1-0.8,0.4-1.1c0.3-0.2,0.7-0.3,1.1-0.3c0.4,0,0.7,0,0.9,0.1
			c0.2,0.1,0.5,0.1,0.6,0.2l-0.2,0.7c-0.2-0.1-0.3-0.1-0.6-0.2c-0.2-0.1-0.4-0.1-0.7-0.1c-0.3,0-0.5,0-0.6,0.2
			c-0.1,0.1-0.2,0.3-0.2,0.5c0,0.2,0.1,0.3,0.2,0.4c0.1,0.1,0.3,0.2,0.4,0.3c0.2,0.1,0.4,0.2,0.6,0.2c0.2,0.1,0.4,0.2,0.6,0.3
			c0.2,0.1,0.3,0.3,0.4,0.5c0.1,0.2,0.2,0.4,0.2,0.7c0,0.2,0,0.4-0.1,0.6c-0.1,0.2-0.2,0.3-0.3,0.5s-0.3,0.2-0.5,0.3
			c-0.2,0.1-0.5,0.1-0.8,0.1c-0.4,0-0.7,0-1-0.1c-0.3-0.1-0.5-0.2-0.7-0.3l0.2-0.7c0.2,0.1,0.4,0.2,0.6,0.2c0.2,0.1,0.5,0.1,0.8,0.1
			c0.3,0,0.5-0.1,0.7-0.2S38.9,210.4,38.9,210.1z"/>
		<path class="st2" d="M45.7,210.1c0-0.2-0.1-0.4-0.2-0.5s-0.3-0.2-0.4-0.3c-0.2-0.1-0.4-0.2-0.6-0.2s-0.4-0.2-0.6-0.3
			c-0.2-0.1-0.3-0.3-0.4-0.4c-0.1-0.2-0.2-0.4-0.2-0.7c0-0.5,0.1-0.8,0.4-1.1c0.3-0.2,0.7-0.3,1.1-0.3c0.4,0,0.7,0,0.9,0.1
			c0.2,0.1,0.5,0.1,0.6,0.2l-0.2,0.7c-0.2-0.1-0.3-0.1-0.6-0.2c-0.2-0.1-0.4-0.1-0.7-0.1c-0.3,0-0.5,0-0.6,0.2
			c-0.1,0.1-0.2,0.3-0.2,0.5c0,0.2,0.1,0.3,0.2,0.4c0.1,0.1,0.3,0.2,0.4,0.3c0.2,0.1,0.4,0.2,0.6,0.2c0.2,0.1,0.4,0.2,0.6,0.3
			c0.2,0.1,0.3,0.3,0.4,0.5c0.1,0.2,0.2,0.4,0.2,0.7c0,0.2,0,0.4-0.1,0.6c-0.1,0.2-0.2,0.3-0.3,0.5s-0.3,0.2-0.5,0.3
			c-0.2,0.1-0.5,0.1-0.8,0.1c-0.4,0-0.7,0-1-0.1c-0.3-0.1-0.5-0.2-0.7-0.3l0.2-0.7c0.2,0.1,0.4,0.2,0.6,0.2c0.2,0.1,0.5,0.1,0.8,0.1
			c0.3,0,0.5-0.1,0.7-0.2S45.7,210.4,45.7,210.1z"/>
		<path class="st2" d="M47.5,209c0-0.8,0.2-1.5,0.6-1.9c0.4-0.4,0.9-0.7,1.6-0.7c0.4,0,0.7,0.1,1,0.2c0.3,0.1,0.5,0.3,0.7,0.5
			c0.2,0.2,0.3,0.5,0.4,0.8c0.1,0.3,0.1,0.7,0.1,1.1c0,0.8-0.2,1.5-0.6,1.9c-0.4,0.4-0.9,0.7-1.6,0.7c-0.4,0-0.7-0.1-1-0.2
			c-0.3-0.1-0.5-0.3-0.7-0.5s-0.3-0.5-0.4-0.8C47.5,209.7,47.5,209.4,47.5,209z M48.3,209c0,0.3,0,0.5,0.1,0.7
			c0,0.2,0.1,0.4,0.2,0.6s0.2,0.3,0.4,0.4s0.4,0.2,0.6,0.2c0.9,0,1.4-0.6,1.4-1.9c0-0.3,0-0.5-0.1-0.7c0-0.2-0.1-0.4-0.2-0.6
			c-0.1-0.2-0.2-0.3-0.4-0.4s-0.4-0.2-0.6-0.2C48.7,207.1,48.3,207.7,48.3,209z"/>
		<path class="st2" d="M53.8,206.5v2.8c0,0.3,0,0.5,0,0.7c0,0.2,0.1,0.4,0.2,0.5c0.1,0.1,0.2,0.2,0.3,0.3c0.1,0.1,0.3,0.1,0.5,0.1
			c0.2,0,0.3,0,0.5-0.1c0.1-0.1,0.3-0.1,0.4-0.2c0.1-0.1,0.2-0.2,0.3-0.3c0.1-0.1,0.2-0.3,0.2-0.4v-3.3h0.8v3.6c0,0.2,0,0.5,0,0.7
			c0,0.3,0,0.5,0.1,0.7h-0.5l-0.2-0.8h0c-0.2,0.3-0.4,0.5-0.6,0.7c-0.3,0.2-0.6,0.3-1,0.3c-0.3,0-0.5,0-0.7-0.1
			c-0.2-0.1-0.4-0.2-0.5-0.3s-0.2-0.4-0.3-0.6c-0.1-0.3-0.1-0.6-0.1-1v-3H53.8z"/>
		<path class="st2" d="M60.8,207.3c-0.2-0.1-0.4-0.1-0.6-0.1c-0.3,0-0.5,0.1-0.7,0.2s-0.3,0.4-0.3,0.6v3.5h-0.8v-5H59l0.1,0.6h0
			c0.1-0.2,0.3-0.4,0.5-0.5c0.2-0.1,0.4-0.2,0.7-0.2c0.2,0,0.4,0,0.6,0.1L60.8,207.3z"/>
	</g>
	<g class="st1">
		<path class="st2" d="M65.3,211.2c-0.2,0.1-0.4,0.3-0.7,0.3c-0.3,0.1-0.6,0.1-0.9,0.1c-0.4,0-0.7-0.1-1-0.2
			c-0.3-0.1-0.5-0.3-0.7-0.5s-0.3-0.5-0.4-0.8c-0.1-0.3-0.1-0.7-0.1-1.1c0-0.8,0.2-1.5,0.6-1.9c0.4-0.4,0.9-0.7,1.6-0.7
			c0.3,0,0.6,0,0.8,0.1c0.2,0,0.4,0.1,0.6,0.2l-0.2,0.7c-0.2-0.1-0.3-0.2-0.5-0.2c-0.2,0-0.4-0.1-0.6-0.1c-0.9,0-1.4,0.6-1.4,1.9
			c0,0.3,0,0.5,0.1,0.7s0.1,0.4,0.3,0.6c0.1,0.2,0.3,0.3,0.5,0.4s0.4,0.2,0.7,0.2c0.2,0,0.5,0,0.6-0.1c0.2-0.1,0.3-0.2,0.5-0.3
			L65.3,211.2z"/>
	</g>
	<g class="st1">
		<path class="st2" d="M69.8,211.1c-0.2,0.2-0.5,0.3-0.8,0.4c-0.3,0.1-0.6,0.1-1,0.1c-0.4,0-0.7-0.1-1-0.2c-0.3-0.1-0.5-0.3-0.7-0.5
			s-0.3-0.5-0.4-0.8c-0.1-0.3-0.1-0.7-0.1-1.1c0-0.9,0.2-1.5,0.6-2c0.4-0.4,0.9-0.7,1.6-0.7c0.2,0,0.5,0,0.7,0.1
			c0.2,0,0.4,0.1,0.6,0.3c0.2,0.1,0.3,0.3,0.4,0.6c0.1,0.3,0.2,0.6,0.2,1c0,0.2,0,0.5-0.1,0.7h-3.2c0,0.3,0,0.6,0.1,0.8
			s0.2,0.4,0.3,0.6c0.1,0.2,0.3,0.3,0.5,0.4c0.2,0.1,0.5,0.1,0.7,0.1c0.2,0,0.5,0,0.7-0.1s0.4-0.2,0.5-0.3L69.8,211.1z M68.1,207.1
			c-0.4,0-0.7,0.1-0.9,0.3c-0.2,0.2-0.4,0.6-0.4,1.1h2.5c0-0.5-0.1-0.9-0.3-1.1S68.5,207.1,68.1,207.1z"/>
	</g>
	<g class="st1">
		<path class="st2" d="M77.3,211.2c-0.2,0.1-0.4,0.3-0.7,0.3c-0.3,0.1-0.6,0.1-0.9,0.1c-0.4,0-0.7-0.1-1-0.2
			c-0.3-0.1-0.5-0.3-0.7-0.5s-0.3-0.5-0.4-0.8c-0.1-0.3-0.1-0.7-0.1-1.1c0-0.8,0.2-1.5,0.6-1.9c0.4-0.4,0.9-0.7,1.6-0.7
			c0.3,0,0.6,0,0.8,0.1c0.2,0,0.4,0.1,0.6,0.2l-0.2,0.7c-0.2-0.1-0.3-0.2-0.5-0.2c-0.2,0-0.4-0.1-0.6-0.1c-0.9,0-1.4,0.6-1.4,1.9
			c0,0.3,0,0.5,0.1,0.7s0.1,0.4,0.3,0.6c0.1,0.2,0.3,0.3,0.5,0.4s0.4,0.2,0.7,0.2c0.2,0,0.5,0,0.6-0.1c0.2-0.1,0.3-0.2,0.5-0.3
			L77.3,211.2z"/>
	</g>
	<g class="st1">
		<path class="st2" d="M77.9,209c0-0.8,0.2-1.5,0.6-1.9c0.4-0.4,0.9-0.7,1.6-0.7c0.4,0,0.7,0.1,1,0.2c0.3,0.1,0.5,0.3,0.7,0.5
			c0.2,0.2,0.3,0.5,0.4,0.8c0.1,0.3,0.1,0.7,0.1,1.1c0,0.8-0.2,1.5-0.6,1.9c-0.4,0.4-0.9,0.7-1.6,0.7c-0.4,0-0.7-0.1-1-0.2
			c-0.3-0.1-0.5-0.3-0.7-0.5s-0.3-0.5-0.4-0.8C78,209.7,77.9,209.4,77.9,209z M78.8,209c0,0.3,0,0.5,0.1,0.7c0,0.2,0.1,0.4,0.2,0.6
			s0.2,0.3,0.4,0.4s0.4,0.2,0.6,0.2c0.9,0,1.4-0.6,1.4-1.9c0-0.3,0-0.5-0.1-0.7c0-0.2-0.1-0.4-0.2-0.6c-0.1-0.2-0.2-0.3-0.4-0.4
			s-0.4-0.2-0.6-0.2C79.2,207.1,78.8,207.7,78.8,209z"/>
		<path class="st2" d="M87.4,209.8c0,0.3,0,0.6,0,0.9c0,0.3,0,0.5,0.1,0.8H87l-0.2-0.7h0c-0.1,0.2-0.3,0.4-0.6,0.6
			c-0.3,0.2-0.6,0.2-0.9,0.2c-0.7,0-1.2-0.2-1.5-0.6c-0.3-0.4-0.5-1.1-0.5-2c0-0.9,0.2-1.5,0.6-1.9c0.4-0.4,1-0.7,1.7-0.7
			c0.2,0,0.4,0,0.6,0c0.1,0,0.3,0.1,0.5,0.1v-2.1h0.8V209.8z M85.4,210.9c0.3,0,0.6-0.1,0.8-0.3c0.2-0.2,0.3-0.4,0.4-0.8v-2.5
			c-0.1-0.1-0.3-0.2-0.4-0.2c-0.2,0-0.4-0.1-0.6-0.1c-0.5,0-0.8,0.2-1.1,0.5c-0.3,0.3-0.4,0.8-0.4,1.5c0,0.3,0,0.5,0.1,0.8
			c0,0.2,0.1,0.4,0.2,0.6c0.1,0.2,0.2,0.3,0.4,0.4C84.9,210.9,85.1,210.9,85.4,210.9z"/>
		<path class="st2" d="M92.6,211.1c-0.2,0.2-0.5,0.3-0.8,0.4c-0.3,0.1-0.6,0.1-1,0.1c-0.4,0-0.7-0.1-1-0.2c-0.3-0.1-0.5-0.3-0.7-0.5
			s-0.3-0.5-0.4-0.8c-0.1-0.3-0.1-0.7-0.1-1.1c0-0.9,0.2-1.5,0.6-2c0.4-0.4,0.9-0.7,1.6-0.7c0.2,0,0.5,0,0.7,0.1
			c0.2,0,0.4,0.1,0.6,0.3c0.2,0.1,0.3,0.3,0.4,0.6c0.1,0.3,0.2,0.6,0.2,1c0,0.2,0,0.5-0.1,0.7h-3.2c0,0.3,0,0.6,0.1,0.8
			s0.2,0.4,0.3,0.6c0.1,0.2,0.3,0.3,0.5,0.4c0.2,0.1,0.5,0.1,0.7,0.1c0.2,0,0.5,0,0.7-0.1s0.4-0.2,0.5-0.3L92.6,211.1z M90.9,207.1
			c-0.4,0-0.7,0.1-0.9,0.3c-0.2,0.2-0.4,0.6-0.4,1.1H92c0-0.5-0.1-0.9-0.3-1.1S91.2,207.1,90.9,207.1z"/>
		<path class="st2" d="M93.8,204.4c0.3,0.3,0.6,0.7,0.8,1.1c0.2,0.4,0.4,0.8,0.5,1.2c0.1,0.4,0.2,0.8,0.3,1.2s0.1,0.8,0.1,1.2
			c0,0.4,0,0.8-0.1,1.2s-0.2,0.8-0.3,1.2s-0.3,0.8-0.5,1.2s-0.5,0.8-0.8,1.1l-0.5-0.3c0.3-0.3,0.5-0.7,0.7-1.1s0.3-0.7,0.4-1.1
			c0.1-0.4,0.2-0.7,0.2-1.1c0-0.4,0.1-0.7,0.1-1.1c0-0.3,0-0.7-0.1-1c-0.1-0.4-0.1-0.8-0.2-1.1c-0.1-0.4-0.3-0.8-0.4-1.1
			c-0.2-0.4-0.4-0.7-0.6-1L93.8,204.4z"/>
	</g>
	<path class="st2" d="M53.3,157.8c0.4,0,0.7,0.3,0.7,0.7c0,0.4-0.3,0.7-0.7,0.7c-0.4,0-0.7-0.3-0.7-0.7
		C52.6,158.1,52.9,157.8,53.3,157.8z"/>
	<circle class="st2" cx="47.5" cy="158.5" r="0.7"/>
	<path class="st20" d="M48.3,163.2c0.5,0.7,1.3,1.1,2.1,1.1c0.8,0,1.6-0.4,2.1-1.1"/>
	<path class="st20" d="M41,157.4c0.9-0.7,2.2-0.7,3.1,0"/>
	<path class="st20" d="M56.6,157.1c0.4-0.3,0.4-0.2,0.9-0.2c0.5,0,1,0.1,1.4,0.4"/>
	<path class="st20" d="M52.6,168v1.9h0.7c0.5,0,1,0.1,1.5,0.3c0.2,0.1,0.5,0.2,0.7,0.3c0.3,0.2,0.6,0.4,0.9,0.7
		c0.8,0.8,1.3,1.9,1.3,3.1v4.4H42.3v-4.4c0-1.2,0.5-2.3,1.3-3.1c0.3-0.3,0.6-0.5,0.9-0.7c0.2-0.1,0.5-0.2,0.7-0.4
		c0.5-0.1,1-0.2,1.5-0.2h0.7V168"/>
	<path class="st20" d="M58.3,156.6L58.3,156.6c0.7,0,1.4,0.5,1.7,1.2c0.5,1.1,0,2.5-1.1,3c-0.2,0.1-0.5,0.2-0.8,0.2l0,0"/>
	<path class="st20" d="M41.2,157c-1.1,0.6-1.4,1.9-0.8,3c0.4,0.7,1.1,1.1,1.9,1.1v-4.4C41.9,156.7,41.5,156.8,41.2,157z"/>
	<path class="st20" d="M41.2,157l-1.5-1.8c-0.7-1-0.6-2.4,0.4-3.1l1.1-0.8l-0.4-1.8c-0.2-0.7,0.1-1.4,0.7-1.7l1.9-0.9l4.5-2
		c1.3-0.6,2.8-0.6,4.2,0l4.5,2l1.6,0.8c0.7,0.4,1,1.2,0.7,2c0,0,0,0,0,0l-0.8,1.6l2.2,1.8c0.9,0.7,1.1,1.9,0.5,2.9l-1.2,1.2"/>
	<path class="st20" d="M55,154.6c-3.3-0.1-6.6-0.8-9.6-2.2c-0.6,1.7-1.6,3.2-2.9,4.4v4c0,2,0.8,4,2.3,5.4c0.8,0.8,1.8,1.4,2.9,1.8
		l0,0c0.8,0.3,1.7,0.4,2.6,0.4c0.7,0,1.4-0.1,2-0.3c0.2-0.1,0.4-0.1,0.5-0.1l0,0c3-1,5-3.8,5.1-6.9v-4.4"/>
	<path class="st20" d="M54.4,152.7c0.1,0.6,0.3,1.3,0.6,1.8c0.5,1.1,1.5,1.9,2.7,2.2"/>
	<path class="st20" d="M49.4,158.1c0.4-0.2,0.9-0.3,1.3-0.3c0.3,0,0.5,0.2,0.7,0.3"/>
	<ellipse class="st20" cx="46.9" cy="158.1" rx="2.5" ry="2"/>
	<ellipse class="st20" cx="53.9" cy="158.1" rx="2.5" ry="2"/>
	<g class="st1">
		<path class="st2" d="M107.8,233.7c-0.1,0.1-0.2,0.2-0.3,0.2c-0.1,0.1-0.3,0.1-0.4,0.2c-0.1,0-0.3,0.1-0.4,0.1c-0.1,0-0.3,0-0.4,0
			c-0.3,0-0.6,0-0.8-0.2c-0.2-0.1-0.4-0.2-0.5-0.4c-0.1-0.2-0.2-0.3-0.3-0.5c0-0.2-0.1-0.4-0.1-0.5c0-0.6,0.1-1.1,0.2-1.5
			c0.2-0.5,0.4-0.8,0.6-1.1c0.3-0.3,0.5-0.6,0.9-0.7c0.3-0.2,0.7-0.3,1-0.3c0.3,0,0.5,0,0.6,0.1c0.2,0,0.3,0.1,0.4,0.2l-0.3,0.6
			c-0.1-0.1-0.3-0.1-0.4-0.2c-0.2,0-0.3-0.1-0.5-0.1c-0.2,0-0.4,0.1-0.7,0.2c-0.2,0.2-0.4,0.4-0.6,0.6c-0.2,0.3-0.3,0.5-0.4,0.9
			s-0.1,0.7-0.1,1c0,0.4,0.1,0.8,0.3,1s0.4,0.3,0.7,0.3c0.2,0,0.4,0,0.6-0.1c0.2-0.1,0.4-0.2,0.5-0.3L107.8,233.7z"/>
		<path class="st2" d="M111.8,234.1l0.6-2.9c0-0.2,0.1-0.4,0.1-0.5c0-0.2,0-0.3,0-0.4c0-0.2-0.1-0.4-0.2-0.5
			c-0.1-0.1-0.3-0.2-0.5-0.2c-0.2,0-0.3,0-0.5,0.1c-0.2,0.1-0.4,0.2-0.5,0.3c-0.2,0.1-0.3,0.3-0.4,0.5c-0.1,0.2-0.2,0.3-0.3,0.5
			l-0.6,3l-0.8,0l1.5-7l0.8,0l-0.6,2.9h0c0.1-0.1,0.2-0.2,0.3-0.3c0.1-0.1,0.3-0.2,0.4-0.3c0.2-0.1,0.3-0.2,0.5-0.2
			c0.2-0.1,0.4-0.1,0.6-0.1c0.3,0,0.6,0.1,0.8,0.2c0.2,0.2,0.3,0.4,0.3,0.9c0,0.3,0,0.6-0.1,1l-0.6,3L111.8,234.1z"/>
		<path class="st2" d="M117.5,233.6c-0.2,0.2-0.5,0.4-0.8,0.5c-0.3,0.1-0.6,0.2-1,0.2c-0.5,0-0.9-0.1-1.2-0.5
			c-0.3-0.3-0.4-0.7-0.4-1.3c0-0.5,0.1-1,0.2-1.5c0.2-0.4,0.4-0.8,0.6-1.1c0.2-0.3,0.5-0.5,0.8-0.7c0.3-0.2,0.6-0.2,1-0.2
			c0.2,0,0.4,0,0.6,0.1c0.2,0.1,0.3,0.2,0.4,0.3c0.1,0.1,0.2,0.2,0.3,0.4c0.1,0.1,0.1,0.3,0.1,0.5c0,0.5-0.2,0.8-0.7,1.1
			c-0.5,0.3-1.1,0.4-2,0.4c-0.1,0-0.2,0-0.3,0c-0.1,0-0.2,0-0.3,0c0,0.1,0,0.2-0.1,0.4c0,0.1,0,0.2,0,0.3c0,0.4,0.1,0.7,0.3,0.9
			c0.2,0.2,0.4,0.3,0.8,0.3c0.3,0,0.6-0.1,0.8-0.1s0.4-0.2,0.6-0.3L117.5,233.6z M116.7,229.6c-0.4,0-0.7,0.1-1,0.4
			s-0.5,0.6-0.6,1.1c0.3,0,0.5,0,0.8,0c0.3,0,0.5-0.1,0.7-0.1c0.2-0.1,0.4-0.1,0.6-0.3c0.1-0.1,0.2-0.3,0.2-0.5c0-0.1,0-0.1,0-0.2
			c0-0.1-0.1-0.1-0.1-0.2c-0.1-0.1-0.1-0.1-0.2-0.1C116.9,229.6,116.8,229.6,116.7,229.6z"/>
		<path class="st2" d="M121.9,233.7c-0.1,0.1-0.2,0.2-0.3,0.2c-0.1,0.1-0.3,0.1-0.4,0.2s-0.3,0.1-0.4,0.1c-0.1,0-0.3,0-0.4,0
			c-0.3,0-0.6,0-0.8-0.2s-0.4-0.2-0.5-0.4c-0.1-0.2-0.2-0.3-0.3-0.5s-0.1-0.4-0.1-0.5c0-0.6,0.1-1.1,0.2-1.5
			c0.2-0.5,0.4-0.8,0.6-1.1c0.3-0.3,0.5-0.6,0.9-0.7c0.3-0.2,0.7-0.3,1-0.3c0.3,0,0.5,0,0.6,0.1c0.2,0,0.3,0.1,0.4,0.2l-0.3,0.6
			c-0.1-0.1-0.3-0.1-0.4-0.2c-0.2,0-0.3-0.1-0.5-0.1c-0.2,0-0.4,0.1-0.7,0.2c-0.2,0.2-0.4,0.4-0.6,0.6s-0.3,0.5-0.4,0.9
			c-0.1,0.3-0.1,0.7-0.1,1c0,0.4,0.1,0.8,0.3,1c0.2,0.2,0.4,0.3,0.7,0.3c0.2,0,0.4,0,0.6-0.1c0.2-0.1,0.4-0.2,0.5-0.3L121.9,233.7z"
			/>
		<path class="st2" d="M124.6,231.8l-0.5,0l-0.5,2.3l-0.8,0l1.5-7l0.8,0l-0.9,4.3l0.4-0.1l1.8-2.2l0.9,0l-1.8,2l-0.5,0.3l0.4,0.4
			l1.1,2.2l-0.8,0L124.6,231.8z"/>
		<path class="st2" d="M129.5,232.6c0-0.2,0-0.3-0.1-0.4c-0.1-0.1-0.2-0.2-0.3-0.3s-0.3-0.2-0.4-0.3c-0.2-0.1-0.3-0.2-0.4-0.3
			c-0.1-0.1-0.2-0.3-0.3-0.4s-0.1-0.3-0.1-0.6c0-0.2,0-0.4,0.1-0.5c0.1-0.2,0.2-0.3,0.4-0.4c0.2-0.1,0.3-0.2,0.6-0.3
			c0.2-0.1,0.5-0.1,0.7-0.1c0.4,0,0.6,0,0.8,0.1c0.2,0,0.4,0.1,0.5,0.2l-0.2,0.6c-0.3-0.2-0.6-0.2-1.1-0.2c-0.3,0-0.5,0.1-0.7,0.2
			c-0.2,0.1-0.3,0.3-0.3,0.5c0,0.1,0,0.3,0.1,0.4c0.1,0.1,0.2,0.2,0.3,0.3c0.1,0.1,0.3,0.2,0.4,0.3c0.2,0.1,0.3,0.2,0.4,0.3
			c0.1,0.1,0.2,0.3,0.3,0.4c0.1,0.2,0.1,0.4,0.1,0.6c0,0.5-0.2,0.9-0.5,1.2c-0.3,0.3-0.8,0.4-1.4,0.4c-0.3,0-0.6,0-0.8-0.1
			c-0.3-0.1-0.5-0.1-0.6-0.2l0.3-0.6c0.1,0.1,0.3,0.2,0.5,0.2c0.2,0.1,0.4,0.1,0.7,0.1c0.3,0,0.6-0.1,0.8-0.2
			C129.4,233.2,129.5,232.9,129.5,232.6z"/>
	</g>
	<g class="st1">
		<path class="st2" d="M107.8,157.3c-0.1,0.1-0.2,0.2-0.3,0.2c-0.1,0.1-0.3,0.1-0.4,0.2c-0.1,0-0.3,0.1-0.4,0.1c-0.1,0-0.3,0-0.4,0
			c-0.3,0-0.6,0-0.8-0.2c-0.2-0.1-0.4-0.2-0.5-0.4c-0.1-0.2-0.2-0.3-0.3-0.5c0-0.2-0.1-0.4-0.1-0.5c0-0.6,0.1-1.1,0.2-1.5
			c0.2-0.5,0.4-0.8,0.6-1.1c0.3-0.3,0.5-0.6,0.9-0.7c0.3-0.2,0.7-0.3,1-0.3c0.3,0,0.5,0,0.6,0.1c0.2,0,0.3,0.1,0.4,0.2l-0.3,0.6
			c-0.1-0.1-0.3-0.1-0.4-0.2c-0.2,0-0.3-0.1-0.5-0.1c-0.2,0-0.4,0.1-0.7,0.2c-0.2,0.2-0.4,0.4-0.6,0.6c-0.2,0.3-0.3,0.5-0.4,0.9
			s-0.1,0.7-0.1,1c0,0.4,0.1,0.8,0.3,1s0.4,0.3,0.7,0.3c0.2,0,0.4,0,0.6-0.1c0.2-0.1,0.4-0.2,0.5-0.3L107.8,157.3z"/>
		<path class="st2" d="M111.8,157.7l0.6-2.9c0-0.2,0.1-0.4,0.1-0.5c0-0.2,0-0.3,0-0.4c0-0.2-0.1-0.4-0.2-0.5
			c-0.1-0.1-0.3-0.2-0.5-0.2c-0.2,0-0.3,0-0.5,0.1c-0.2,0.1-0.4,0.2-0.5,0.3c-0.2,0.1-0.3,0.3-0.4,0.5c-0.1,0.2-0.2,0.3-0.3,0.5
			l-0.6,3l-0.8,0l1.5-7l0.8,0l-0.6,2.9h0c0.1-0.1,0.2-0.2,0.3-0.3c0.1-0.1,0.3-0.2,0.4-0.3c0.2-0.1,0.3-0.2,0.5-0.2
			c0.2-0.1,0.4-0.1,0.6-0.1c0.3,0,0.6,0.1,0.8,0.2c0.2,0.2,0.3,0.4,0.3,0.9c0,0.3,0,0.6-0.1,1l-0.6,3L111.8,157.7z"/>
		<path class="st2" d="M117.5,157.2c-0.2,0.2-0.5,0.4-0.8,0.5c-0.3,0.1-0.6,0.2-1,0.2c-0.5,0-0.9-0.1-1.2-0.5
			c-0.3-0.3-0.4-0.7-0.4-1.3c0-0.5,0.1-1,0.2-1.5c0.2-0.4,0.4-0.8,0.6-1.1c0.2-0.3,0.5-0.5,0.8-0.7c0.3-0.2,0.6-0.2,1-0.2
			c0.2,0,0.4,0,0.6,0.1c0.2,0.1,0.3,0.2,0.4,0.3c0.1,0.1,0.2,0.2,0.3,0.4c0.1,0.1,0.1,0.3,0.1,0.5c0,0.5-0.2,0.8-0.7,1.1
			c-0.5,0.3-1.1,0.4-2,0.4c-0.1,0-0.2,0-0.3,0c-0.1,0-0.2,0-0.3,0c0,0.1,0,0.2-0.1,0.4c0,0.1,0,0.2,0,0.3c0,0.4,0.1,0.7,0.3,0.9
			c0.2,0.2,0.4,0.3,0.8,0.3c0.3,0,0.6-0.1,0.8-0.1s0.4-0.2,0.6-0.3L117.5,157.2z M116.7,153.2c-0.4,0-0.7,0.1-1,0.4
			s-0.5,0.6-0.6,1.1c0.3,0,0.5,0,0.8,0c0.3,0,0.5-0.1,0.7-0.1c0.2-0.1,0.4-0.1,0.6-0.3c0.1-0.1,0.2-0.3,0.2-0.5c0-0.1,0-0.1,0-0.2
			c0-0.1-0.1-0.1-0.1-0.2c-0.1-0.1-0.1-0.1-0.2-0.1C116.9,153.2,116.8,153.2,116.7,153.2z"/>
		<path class="st2" d="M121.9,157.2c-0.1,0.1-0.2,0.2-0.3,0.2c-0.1,0.1-0.3,0.1-0.4,0.2s-0.3,0.1-0.4,0.1c-0.1,0-0.3,0-0.4,0
			c-0.3,0-0.6,0-0.8-0.2s-0.4-0.2-0.5-0.4c-0.1-0.2-0.2-0.3-0.3-0.5s-0.1-0.4-0.1-0.5c0-0.6,0.1-1.1,0.2-1.5
			c0.2-0.5,0.4-0.8,0.6-1.1c0.3-0.3,0.5-0.6,0.9-0.7c0.3-0.2,0.7-0.3,1-0.3c0.3,0,0.5,0,0.6,0.1c0.2,0,0.3,0.1,0.4,0.2l-0.3,0.6
			c-0.1-0.1-0.3-0.1-0.4-0.2c-0.2,0-0.3-0.1-0.5-0.1c-0.2,0-0.4,0.1-0.7,0.2c-0.2,0.2-0.4,0.4-0.6,0.6s-0.3,0.5-0.4,0.9
			c-0.1,0.3-0.1,0.7-0.1,1c0,0.4,0.1,0.8,0.3,1c0.2,0.2,0.4,0.3,0.7,0.3c0.2,0,0.4,0,0.6-0.1c0.2-0.1,0.4-0.2,0.5-0.3L121.9,157.2z"
			/>
		<path class="st2" d="M124.6,155.4l-0.5,0l-0.5,2.3l-0.8,0l1.5-7l0.8,0l-0.9,4.3l0.4-0.1l1.8-2.2l0.9,0l-1.8,2L125,155l0.4,0.4
			l1.1,2.2l-0.8,0L124.6,155.4z"/>
		<path class="st2" d="M129.5,156.2c0-0.2,0-0.3-0.1-0.4c-0.1-0.1-0.2-0.2-0.3-0.3s-0.3-0.2-0.4-0.3c-0.2-0.1-0.3-0.2-0.4-0.3
			c-0.1-0.1-0.2-0.3-0.3-0.4s-0.1-0.3-0.1-0.6c0-0.2,0-0.4,0.1-0.5c0.1-0.2,0.2-0.3,0.4-0.4c0.2-0.1,0.3-0.2,0.6-0.3
			c0.2-0.1,0.5-0.1,0.7-0.1c0.4,0,0.6,0,0.8,0.1c0.2,0,0.4,0.1,0.5,0.2l-0.2,0.6c-0.3-0.2-0.6-0.2-1.1-0.2c-0.3,0-0.5,0.1-0.7,0.2
			c-0.2,0.1-0.3,0.3-0.3,0.5c0,0.1,0,0.3,0.1,0.4c0.1,0.1,0.2,0.2,0.3,0.3c0.1,0.1,0.3,0.2,0.4,0.3c0.2,0.1,0.3,0.2,0.4,0.3
			c0.1,0.1,0.2,0.3,0.3,0.4c0.1,0.2,0.1,0.4,0.1,0.6c0,0.5-0.2,0.9-0.5,1.2c-0.3,0.3-0.8,0.4-1.4,0.4c-0.3,0-0.6,0-0.8-0.1
			c-0.3-0.1-0.5-0.1-0.6-0.2l0.3-0.6c0.1,0.1,0.3,0.2,0.5,0.2c0.2,0.1,0.4,0.1,0.7,0.1c0.3,0,0.6-0.1,0.8-0.2
			C129.4,156.7,129.5,156.5,129.5,156.2z"/>
	</g>
	<line class="st0" x1="87.3" y1="226.1" x2="133.9" y2="272.7"/>
	<polygon class="st2" points="126.6,273.5 126.6,272.1 133.5,272.4 133.3,265.5 134.7,265.4 135,273.8 	"/>
	<line class="st0" x1="87.3" y1="161" x2="133.9" y2="114.4"/>
	<polygon class="st2" points="134.7,121.8 133.3,121.7 133.5,114.8 126.6,115.1 126.6,113.7 135,113.4 	"/>
	<g class="st1">
		<path class="st2" d="M316.9,120.8c-0.1,0.2-0.1,0.5-0.1,0.8c0,0.3,0,0.5,0,0.7c0,0.1,0,0.2,0,0.3c0,0.1,0,0.2,0,0.2l-0.5,0
			l-0.1-0.9h0c-0.1,0.1-0.2,0.2-0.3,0.3s-0.2,0.2-0.4,0.3c-0.1,0.1-0.3,0.2-0.5,0.2c-0.2,0.1-0.3,0.1-0.5,0.1
			c-0.8,0-1.2-0.5-1.2-1.5c0-0.4,0.1-0.9,0.2-1.3c0.1-0.4,0.3-0.8,0.5-1.2c0.2-0.4,0.5-0.6,0.9-0.9c0.4-0.2,0.8-0.3,1.3-0.3
			c0.2,0,0.4,0,0.7,0.1c0.3,0,0.5,0.1,0.8,0.2L316.9,120.8z M314.6,122.2c0.2,0,0.3,0,0.5-0.1c0.1-0.1,0.3-0.2,0.4-0.3
			c0.1-0.1,0.2-0.2,0.3-0.4c0.1-0.1,0.2-0.3,0.2-0.4l0.5-2.7c-0.2-0.1-0.5-0.1-0.8-0.1c-0.3,0-0.6,0.1-0.8,0.3
			c-0.2,0.2-0.4,0.4-0.6,0.7s-0.3,0.6-0.4,1c-0.1,0.4-0.1,0.7-0.1,1.1c0,0.3,0.1,0.5,0.2,0.6C314.2,122.1,314.4,122.2,314.6,122.2z"
			/>
		<path class="st2" d="M319,117.7l0.5,0l0,0.9h0c0.1-0.1,0.2-0.2,0.3-0.4c0.1-0.1,0.2-0.2,0.4-0.3c0.1-0.1,0.3-0.2,0.5-0.2
			c0.2-0.1,0.3-0.1,0.5-0.1c0.2,0,0.3,0,0.5,0.1c0.1,0,0.3,0.1,0.4,0.2c0.1,0.1,0.2,0.3,0.3,0.5c0.1,0.2,0.1,0.4,0.1,0.7
			c0,0.6-0.1,1.1-0.2,1.6c-0.2,0.5-0.4,0.9-0.6,1.2s-0.5,0.6-0.9,0.7c-0.3,0.2-0.6,0.3-1,0.3c-0.2,0-0.4,0-0.6-0.1s-0.3-0.1-0.4-0.1
			l-0.4,2.1l-0.8,0L319,117.7z M321,118.2c-0.2,0-0.4,0-0.5,0.1c-0.2,0.1-0.3,0.2-0.4,0.3c-0.1,0.1-0.3,0.3-0.4,0.4
			c-0.1,0.2-0.2,0.3-0.3,0.4l-0.5,2.4c0.1,0.1,0.2,0.1,0.4,0.2c0.1,0,0.3,0,0.4,0c0.3,0,0.5-0.1,0.7-0.2c0.2-0.1,0.4-0.3,0.6-0.6
			c0.2-0.3,0.3-0.6,0.4-1s0.2-0.8,0.2-1.3c0-0.3-0.1-0.5-0.2-0.7S321.2,118.2,321,118.2z"/>
		<path class="st2" d="M324.1,117.7l0.5,0l0,0.9h0c0.1-0.1,0.2-0.2,0.3-0.4c0.1-0.1,0.2-0.2,0.4-0.3c0.1-0.1,0.3-0.2,0.5-0.2
			c0.2-0.1,0.3-0.1,0.5-0.1c0.2,0,0.3,0,0.5,0.1c0.1,0,0.3,0.1,0.4,0.2c0.1,0.1,0.2,0.3,0.3,0.5c0.1,0.2,0.1,0.4,0.1,0.7
			c0,0.6-0.1,1.1-0.2,1.6c-0.2,0.5-0.4,0.9-0.6,1.2s-0.5,0.6-0.9,0.7c-0.3,0.2-0.6,0.3-1,0.3c-0.2,0-0.4,0-0.6-0.1s-0.3-0.1-0.4-0.1
			l-0.4,2.1l-0.8,0L324.1,117.7z M326.1,118.2c-0.2,0-0.4,0-0.5,0.1c-0.2,0.1-0.3,0.2-0.4,0.3c-0.1,0.1-0.3,0.3-0.4,0.4
			c-0.1,0.2-0.2,0.3-0.3,0.4L324,122c0.1,0.1,0.2,0.1,0.4,0.2c0.1,0,0.3,0,0.4,0c0.3,0,0.5-0.1,0.7-0.2c0.2-0.1,0.4-0.3,0.6-0.6
			c0.2-0.3,0.3-0.6,0.4-1s0.2-0.8,0.2-1.3c0-0.3-0.1-0.5-0.2-0.7S326.3,118.2,326.1,118.2z"/>
		<path class="st2" d="M331.4,118.3c-0.1,0-0.1,0-0.2,0c-0.1,0-0.1,0-0.2,0c-0.3,0-0.6,0.1-0.9,0.3c-0.2,0.2-0.4,0.5-0.6,0.8
			l-0.7,3.3l-0.8,0l1-5l0.5,0l0,0.9h0c0.1-0.1,0.2-0.2,0.3-0.4c0.1-0.1,0.2-0.2,0.3-0.3c0.1-0.1,0.2-0.2,0.4-0.2
			c0.1,0,0.3-0.1,0.4-0.1c0.1,0,0.3,0,0.5,0.1L331.4,118.3z"/>
	</g>
	<g class="st1">
		<path class="st2" d="M331.5,121.1c0-0.5,0.1-1,0.2-1.4c0.1-0.4,0.3-0.8,0.6-1.1c0.2-0.3,0.5-0.6,0.8-0.7c0.3-0.2,0.7-0.3,1-0.3
			c0.3,0,0.5,0,0.7,0.1s0.4,0.2,0.5,0.4s0.2,0.3,0.3,0.5c0.1,0.2,0.1,0.4,0.1,0.6c0,0.5-0.1,1-0.2,1.4c-0.1,0.4-0.3,0.8-0.5,1.1
			s-0.5,0.6-0.8,0.8c-0.3,0.2-0.6,0.3-1,0.3c-0.3,0-0.6,0-0.8-0.1c-0.2-0.1-0.4-0.2-0.5-0.4c-0.1-0.2-0.2-0.3-0.3-0.5
			C331.6,121.5,331.5,121.3,331.5,121.1z M332.3,120.9c0,0.4,0.1,0.7,0.2,0.9c0.1,0.2,0.4,0.3,0.7,0.3c0.2,0,0.4-0.1,0.6-0.2
			c0.2-0.2,0.4-0.4,0.5-0.6c0.1-0.3,0.3-0.6,0.4-0.9c0.1-0.3,0.1-0.7,0.1-1.1c0-0.3-0.1-0.6-0.2-0.8c-0.1-0.2-0.4-0.3-0.7-0.3
			c-0.2,0-0.4,0.1-0.6,0.2c-0.2,0.1-0.4,0.4-0.5,0.6s-0.3,0.5-0.4,0.9S332.3,120.6,332.3,120.9z"/>
		<path class="st2" d="M337.6,120.6l0.1,1h0l0.4-1l1.7-2.9l0.9,0l-3.1,5.1l-0.3,0l-1-5.1l0.8,0L337.6,120.6z"/>
	</g>
	<g class="st1">
		<path class="st2" d="M344,122.1c-0.2,0.2-0.5,0.4-0.8,0.5c-0.3,0.1-0.6,0.2-1,0.2c-0.5,0-0.9-0.1-1.2-0.5
			c-0.3-0.3-0.4-0.7-0.4-1.3s0.1-1,0.2-1.5c0.2-0.4,0.4-0.8,0.6-1.1c0.2-0.3,0.5-0.5,0.8-0.7c0.3-0.2,0.6-0.2,1-0.2
			c0.2,0,0.4,0,0.6,0.1c0.2,0.1,0.3,0.2,0.4,0.3c0.1,0.1,0.2,0.2,0.3,0.4s0.1,0.3,0.1,0.5c0,0.5-0.2,0.8-0.7,1.1
			c-0.5,0.3-1.1,0.4-2,0.4c-0.1,0-0.2,0-0.3,0c-0.1,0-0.2,0-0.3,0c0,0.1,0,0.2-0.1,0.4c0,0.1,0,0.2,0,0.3c0,0.4,0.1,0.7,0.3,0.9
			s0.4,0.3,0.8,0.3c0.3,0,0.6-0.1,0.8-0.1c0.2-0.1,0.4-0.2,0.6-0.3L344,122.1z M343.2,118.2c-0.4,0-0.7,0.1-1,0.4
			c-0.3,0.3-0.5,0.6-0.6,1.1c0.3,0,0.5,0,0.8,0c0.3,0,0.5,0,0.7-0.1c0.2-0.1,0.4-0.1,0.6-0.3c0.1-0.1,0.2-0.3,0.2-0.5
			c0-0.1,0-0.1,0-0.2c0-0.1-0.1-0.1-0.1-0.2c-0.1-0.1-0.1-0.1-0.2-0.1S343.3,118.2,343.2,118.2z"/>
		<path class="st2" d="M347.4,121.2c0-0.2,0-0.3-0.1-0.4c-0.1-0.1-0.2-0.2-0.3-0.3c-0.1-0.1-0.3-0.2-0.4-0.3
			c-0.2-0.1-0.3-0.2-0.4-0.3c-0.1-0.1-0.2-0.3-0.3-0.4c-0.1-0.2-0.1-0.4-0.1-0.6c0-0.2,0-0.4,0.1-0.5c0.1-0.2,0.2-0.3,0.4-0.4
			c0.2-0.1,0.3-0.2,0.6-0.3c0.2-0.1,0.5-0.1,0.7-0.1c0.4,0,0.6,0,0.8,0.1c0.2,0,0.4,0.1,0.5,0.2l-0.2,0.6c-0.3-0.2-0.6-0.2-1.1-0.2
			c-0.3,0-0.5,0.1-0.7,0.2c-0.2,0.1-0.3,0.3-0.3,0.5c0,0.1,0,0.3,0.1,0.4s0.2,0.2,0.3,0.3c0.1,0.1,0.3,0.2,0.4,0.3
			c0.2,0.1,0.3,0.2,0.4,0.3c0.1,0.1,0.2,0.3,0.3,0.4c0.1,0.2,0.1,0.4,0.1,0.6c0,0.5-0.2,0.9-0.5,1.2c-0.3,0.3-0.8,0.4-1.4,0.4
			c-0.3,0-0.6,0-0.8-0.1c-0.3-0.1-0.5-0.1-0.6-0.2l0.3-0.6c0.1,0.1,0.3,0.2,0.5,0.2c0.2,0.1,0.4,0.1,0.7,0.1c0.3,0,0.6-0.1,0.8-0.2
			S347.4,121.5,347.4,121.2z"/>
	</g>
	<g class="st1">
		<path class="st2" d="M316.9,88.7c-0.1,0.2-0.1,0.5-0.1,0.8c0,0.3,0,0.5,0,0.7c0,0.1,0,0.2,0,0.3c0,0.1,0,0.2,0,0.2l-0.5,0
			l-0.1-0.9h0c-0.1,0.1-0.2,0.2-0.3,0.3s-0.2,0.2-0.4,0.3c-0.1,0.1-0.3,0.2-0.5,0.2c-0.2,0.1-0.3,0.1-0.5,0.1
			c-0.8,0-1.2-0.5-1.2-1.5c0-0.4,0.1-0.9,0.2-1.3c0.1-0.4,0.3-0.8,0.5-1.2c0.2-0.4,0.5-0.6,0.9-0.9c0.4-0.2,0.8-0.3,1.3-0.3
			c0.2,0,0.4,0,0.7,0.1c0.3,0,0.5,0.1,0.8,0.2L316.9,88.7z M314.6,90.1c0.2,0,0.3,0,0.5-0.1c0.1-0.1,0.3-0.2,0.4-0.3
			c0.1-0.1,0.2-0.2,0.3-0.4c0.1-0.1,0.2-0.3,0.2-0.4l0.5-2.7c-0.2-0.1-0.5-0.1-0.8-0.1c-0.3,0-0.6,0.1-0.8,0.3
			c-0.2,0.2-0.4,0.4-0.6,0.7s-0.3,0.6-0.4,1c-0.1,0.4-0.1,0.7-0.1,1.1c0,0.3,0.1,0.5,0.2,0.6C314.2,90,314.4,90.1,314.6,90.1z"/>
		<path class="st2" d="M319,85.6l0.5,0l0,0.9h0c0.1-0.1,0.2-0.2,0.3-0.4c0.1-0.1,0.2-0.2,0.4-0.3c0.1-0.1,0.3-0.2,0.5-0.2
			c0.2-0.1,0.3-0.1,0.5-0.1c0.2,0,0.3,0,0.5,0.1c0.1,0,0.3,0.1,0.4,0.2c0.1,0.1,0.2,0.3,0.3,0.5c0.1,0.2,0.1,0.4,0.1,0.7
			c0,0.6-0.1,1.1-0.2,1.6c-0.2,0.5-0.4,0.9-0.6,1.2s-0.5,0.6-0.9,0.7c-0.3,0.2-0.6,0.3-1,0.3c-0.2,0-0.4,0-0.6-0.1s-0.3-0.1-0.4-0.1
			l-0.4,2.1l-0.8,0L319,85.6z M321,86.1c-0.2,0-0.4,0-0.5,0.1c-0.2,0.1-0.3,0.2-0.4,0.3c-0.1,0.1-0.3,0.3-0.4,0.4
			c-0.1,0.2-0.2,0.3-0.3,0.4l-0.5,2.4c0.1,0.1,0.2,0.1,0.4,0.2c0.1,0,0.3,0,0.4,0c0.3,0,0.5-0.1,0.7-0.2c0.2-0.1,0.4-0.3,0.6-0.6
			c0.2-0.3,0.3-0.6,0.4-1s0.2-0.8,0.2-1.3c0-0.3-0.1-0.5-0.2-0.7S321.2,86.1,321,86.1z"/>
		<path class="st2" d="M324.1,85.6l0.5,0l0,0.9h0c0.1-0.1,0.2-0.2,0.3-0.4c0.1-0.1,0.2-0.2,0.4-0.3c0.1-0.1,0.3-0.2,0.5-0.2
			c0.2-0.1,0.3-0.1,0.5-0.1c0.2,0,0.3,0,0.5,0.1c0.1,0,0.3,0.1,0.4,0.2c0.1,0.1,0.2,0.3,0.3,0.5c0.1,0.2,0.1,0.4,0.1,0.7
			c0,0.6-0.1,1.1-0.2,1.6c-0.2,0.5-0.4,0.9-0.6,1.2s-0.5,0.6-0.9,0.7c-0.3,0.2-0.6,0.3-1,0.3c-0.2,0-0.4,0-0.6-0.1s-0.3-0.1-0.4-0.1
			l-0.4,2.1l-0.8,0L324.1,85.6z M326.1,86.1c-0.2,0-0.4,0-0.5,0.1c-0.2,0.1-0.3,0.2-0.4,0.3c-0.1,0.1-0.3,0.3-0.4,0.4
			c-0.1,0.2-0.2,0.3-0.3,0.4l-0.5,2.4c0.1,0.1,0.2,0.1,0.4,0.2c0.1,0,0.3,0,0.4,0c0.3,0,0.5-0.1,0.7-0.2c0.2-0.1,0.4-0.3,0.6-0.6
			c0.2-0.3,0.3-0.6,0.4-1s0.2-0.8,0.2-1.3c0-0.3-0.1-0.5-0.2-0.7S326.3,86.1,326.1,86.1z"/>
		<path class="st2" d="M331.4,86.2c-0.1,0-0.1,0-0.2,0c-0.1,0-0.1,0-0.2,0c-0.3,0-0.6,0.1-0.9,0.3c-0.2,0.2-0.4,0.5-0.6,0.8
			l-0.7,3.3l-0.8,0l1-5l0.5,0l0,0.9h0c0.1-0.1,0.2-0.2,0.3-0.4c0.1-0.1,0.2-0.2,0.3-0.3c0.1-0.1,0.2-0.2,0.4-0.2
			c0.1,0,0.3-0.1,0.4-0.1c0.1,0,0.3,0,0.5,0.1L331.4,86.2z"/>
	</g>
	<g class="st1">
		<path class="st2" d="M331.5,89c0-0.5,0.1-1,0.2-1.4c0.1-0.4,0.3-0.8,0.6-1.1c0.2-0.3,0.5-0.6,0.8-0.7c0.3-0.2,0.7-0.3,1-0.3
			c0.3,0,0.5,0,0.7,0.1s0.4,0.2,0.5,0.4s0.2,0.3,0.3,0.5c0.1,0.2,0.1,0.4,0.1,0.6c0,0.5-0.1,1-0.2,1.4c-0.1,0.4-0.3,0.8-0.5,1.1
			s-0.5,0.6-0.8,0.8c-0.3,0.2-0.6,0.3-1,0.3c-0.3,0-0.6,0-0.8-0.1c-0.2-0.1-0.4-0.2-0.5-0.4c-0.1-0.2-0.2-0.3-0.3-0.5
			C331.6,89.4,331.5,89.2,331.5,89z M332.3,88.8c0,0.4,0.1,0.7,0.2,0.9c0.1,0.2,0.4,0.3,0.7,0.3c0.2,0,0.4-0.1,0.6-0.2
			c0.2-0.2,0.4-0.4,0.5-0.6c0.1-0.3,0.3-0.6,0.4-0.9c0.1-0.3,0.1-0.7,0.1-1.1c0-0.3-0.1-0.6-0.2-0.8c-0.1-0.2-0.4-0.3-0.7-0.3
			c-0.2,0-0.4,0.1-0.6,0.2c-0.2,0.1-0.4,0.4-0.5,0.6s-0.3,0.5-0.4,0.9S332.3,88.5,332.3,88.8z"/>
		<path class="st2" d="M337.6,88.5l0.1,1h0l0.4-1l1.7-2.9l0.9,0l-3.1,5.1l-0.3,0l-1-5.1l0.8,0L337.6,88.5z"/>
	</g>
	<g class="st1">
		<path class="st2" d="M344,90c-0.2,0.2-0.5,0.4-0.8,0.5c-0.3,0.1-0.6,0.2-1,0.2c-0.5,0-0.9-0.1-1.2-0.5c-0.3-0.3-0.4-0.7-0.4-1.3
			s0.1-1,0.2-1.5c0.2-0.4,0.4-0.8,0.6-1.1c0.2-0.3,0.5-0.5,0.8-0.7c0.3-0.2,0.6-0.2,1-0.2c0.2,0,0.4,0,0.6,0.1
			c0.2,0.1,0.3,0.2,0.4,0.3c0.1,0.1,0.2,0.2,0.3,0.4s0.1,0.3,0.1,0.5c0,0.5-0.2,0.8-0.7,1.1c-0.5,0.3-1.1,0.4-2,0.4
			c-0.1,0-0.2,0-0.3,0c-0.1,0-0.2,0-0.3,0c0,0.1,0,0.2-0.1,0.4c0,0.1,0,0.2,0,0.3c0,0.4,0.1,0.7,0.3,0.9s0.4,0.3,0.8,0.3
			c0.3,0,0.6-0.1,0.8-0.1c0.2-0.1,0.4-0.2,0.6-0.3L344,90z M343.2,86c-0.4,0-0.7,0.1-1,0.4c-0.3,0.3-0.5,0.6-0.6,1.1
			c0.3,0,0.5,0,0.8,0c0.3,0,0.5,0,0.7-0.1c0.2-0.1,0.4-0.1,0.6-0.3c0.1-0.1,0.2-0.3,0.2-0.5c0-0.1,0-0.1,0-0.2
			c0-0.1-0.1-0.1-0.1-0.2c-0.1-0.1-0.1-0.1-0.2-0.1S343.3,86,343.2,86z"/>
		<path class="st2" d="M347.4,89.1c0-0.2,0-0.3-0.1-0.4c-0.1-0.1-0.2-0.2-0.3-0.3c-0.1-0.1-0.3-0.2-0.4-0.3
			c-0.2-0.1-0.3-0.2-0.4-0.3c-0.1-0.1-0.2-0.3-0.3-0.4c-0.1-0.2-0.1-0.4-0.1-0.6c0-0.2,0-0.4,0.1-0.5c0.1-0.2,0.2-0.3,0.4-0.4
			c0.2-0.1,0.3-0.2,0.6-0.3c0.2-0.1,0.5-0.1,0.7-0.1c0.4,0,0.6,0,0.8,0.1c0.2,0,0.4,0.1,0.5,0.2l-0.2,0.6c-0.3-0.2-0.6-0.2-1.1-0.2
			c-0.3,0-0.5,0.1-0.7,0.2c-0.2,0.1-0.3,0.3-0.3,0.5c0,0.1,0,0.3,0.1,0.4s0.2,0.2,0.3,0.3c0.1,0.1,0.3,0.2,0.4,0.3
			c0.2,0.1,0.3,0.2,0.4,0.3c0.1,0.1,0.2,0.3,0.3,0.4c0.1,0.2,0.1,0.4,0.1,0.6c0,0.5-0.2,0.9-0.5,1.2c-0.3,0.3-0.8,0.4-1.4,0.4
			c-0.3,0-0.6,0-0.8-0.1c-0.3-0.1-0.5-0.1-0.6-0.2l0.3-0.6c0.1,0.1,0.3,0.2,0.5,0.2c0.2,0.1,0.4,0.1,0.7,0.1c0.3,0,0.6-0.1,0.8-0.2
			S347.4,89.4,347.4,89.1z"/>
	</g>
	<line class="st0" x1="293.9" y1="114.7" x2="340.5" y2="161.3"/>
	<polygon class="st2" points="333.2,162.1 333.3,160.7 340.1,160.9 339.9,154.1 341.3,154 341.6,162.4 	"/>
	<line class="st0" x1="293.9" y1="94.3" x2="340.5" y2="47.7"/>
	<polygon class="st2" points="341.3,55 339.9,55 340.1,48.1 333.3,48.3 333.2,46.9 341.6,46.6 	"/>
	<g class="st1">
		<path class="st2" d="M316.9,299.1c-0.1,0.2-0.1,0.5-0.1,0.8c0,0.3,0,0.5,0,0.7c0,0.1,0,0.2,0,0.3c0,0.1,0,0.2,0,0.2l-0.5,0
			l-0.1-0.9h0c-0.1,0.1-0.2,0.2-0.3,0.3s-0.2,0.2-0.4,0.3c-0.1,0.1-0.3,0.2-0.5,0.2c-0.2,0.1-0.3,0.1-0.5,0.1
			c-0.8,0-1.2-0.5-1.2-1.5c0-0.4,0.1-0.9,0.2-1.3c0.1-0.4,0.3-0.8,0.5-1.2c0.2-0.4,0.5-0.6,0.9-0.9c0.4-0.2,0.8-0.3,1.3-0.3
			c0.2,0,0.4,0,0.7,0.1c0.3,0,0.5,0.1,0.8,0.2L316.9,299.1z M314.6,300.6c0.2,0,0.3,0,0.5-0.1c0.1-0.1,0.3-0.2,0.4-0.3
			c0.1-0.1,0.2-0.2,0.3-0.4c0.1-0.1,0.2-0.3,0.2-0.4l0.5-2.7c-0.2-0.1-0.5-0.1-0.8-0.1c-0.3,0-0.6,0.1-0.8,0.3
			c-0.2,0.2-0.4,0.4-0.6,0.7s-0.3,0.6-0.4,1c-0.1,0.4-0.1,0.7-0.1,1.1c0,0.3,0.1,0.5,0.2,0.6C314.2,300.5,314.4,300.6,314.6,300.6z"
			/>
		<path class="st2" d="M319,296.1l0.5,0l0,0.9h0c0.1-0.1,0.2-0.2,0.3-0.4c0.1-0.1,0.2-0.2,0.4-0.3c0.1-0.1,0.3-0.2,0.5-0.2
			c0.2-0.1,0.3-0.1,0.5-0.1c0.2,0,0.3,0,0.5,0.1c0.1,0,0.3,0.1,0.4,0.2c0.1,0.1,0.2,0.3,0.3,0.5c0.1,0.2,0.1,0.4,0.1,0.7
			c0,0.6-0.1,1.1-0.2,1.6c-0.2,0.5-0.4,0.9-0.6,1.2s-0.5,0.6-0.9,0.7c-0.3,0.2-0.6,0.3-1,0.3c-0.2,0-0.4,0-0.6-0.1s-0.3-0.1-0.4-0.1
			l-0.4,2.1l-0.8,0L319,296.1z M321,296.6c-0.2,0-0.4,0-0.5,0.1c-0.2,0.1-0.3,0.2-0.4,0.3c-0.1,0.1-0.3,0.3-0.4,0.4
			c-0.1,0.2-0.2,0.3-0.3,0.4l-0.5,2.4c0.1,0.1,0.2,0.1,0.4,0.2c0.1,0,0.3,0,0.4,0c0.3,0,0.5-0.1,0.7-0.2c0.2-0.1,0.4-0.3,0.6-0.6
			c0.2-0.3,0.3-0.6,0.4-1s0.2-0.8,0.2-1.3c0-0.3-0.1-0.5-0.2-0.7S321.2,296.6,321,296.6z"/>
		<path class="st2" d="M324.1,296.1l0.5,0l0,0.9h0c0.1-0.1,0.2-0.2,0.3-0.4c0.1-0.1,0.2-0.2,0.4-0.3c0.1-0.1,0.3-0.2,0.5-0.2
			c0.2-0.1,0.3-0.1,0.5-0.1c0.2,0,0.3,0,0.5,0.1c0.1,0,0.3,0.1,0.4,0.2c0.1,0.1,0.2,0.3,0.3,0.5c0.1,0.2,0.1,0.4,0.1,0.7
			c0,0.6-0.1,1.1-0.2,1.6c-0.2,0.5-0.4,0.9-0.6,1.2s-0.5,0.6-0.9,0.7c-0.3,0.2-0.6,0.3-1,0.3c-0.2,0-0.4,0-0.6-0.1s-0.3-0.1-0.4-0.1
			l-0.4,2.1l-0.8,0L324.1,296.1z M326.1,296.6c-0.2,0-0.4,0-0.5,0.1c-0.2,0.1-0.3,0.2-0.4,0.3c-0.1,0.1-0.3,0.3-0.4,0.4
			c-0.1,0.2-0.2,0.3-0.3,0.4l-0.5,2.4c0.1,0.1,0.2,0.1,0.4,0.2c0.1,0,0.3,0,0.4,0c0.3,0,0.5-0.1,0.7-0.2c0.2-0.1,0.4-0.3,0.6-0.6
			c0.2-0.3,0.3-0.6,0.4-1s0.2-0.8,0.2-1.3c0-0.3-0.1-0.5-0.2-0.7S326.3,296.6,326.1,296.6z"/>
		<path class="st2" d="M331.4,296.7c-0.1,0-0.1,0-0.2,0c-0.1,0-0.1,0-0.2,0c-0.3,0-0.6,0.1-0.9,0.3c-0.2,0.2-0.4,0.5-0.6,0.8
			l-0.7,3.3l-0.8,0l1-5l0.5,0l0,0.9h0c0.1-0.1,0.2-0.2,0.3-0.4c0.1-0.1,0.2-0.2,0.3-0.3c0.1-0.1,0.2-0.2,0.4-0.2
			c0.1,0,0.3-0.1,0.4-0.1c0.1,0,0.3,0,0.5,0.1L331.4,296.7z"/>
	</g>
	<g class="st1">
		<path class="st2" d="M331.5,299.5c0-0.5,0.1-1,0.2-1.4c0.1-0.4,0.3-0.8,0.6-1.1c0.2-0.3,0.5-0.6,0.8-0.7c0.3-0.2,0.7-0.3,1-0.3
			c0.3,0,0.5,0,0.7,0.1s0.4,0.2,0.5,0.4s0.2,0.3,0.3,0.5c0.1,0.2,0.1,0.4,0.1,0.6c0,0.5-0.1,1-0.2,1.4c-0.1,0.4-0.3,0.8-0.5,1.1
			s-0.5,0.6-0.8,0.8c-0.3,0.2-0.6,0.3-1,0.3c-0.3,0-0.6,0-0.8-0.1c-0.2-0.1-0.4-0.2-0.5-0.4c-0.1-0.2-0.2-0.3-0.3-0.5
			C331.6,299.9,331.5,299.7,331.5,299.5z M332.3,299.3c0,0.4,0.1,0.7,0.2,0.9c0.1,0.2,0.4,0.3,0.7,0.3c0.2,0,0.4-0.1,0.6-0.2
			c0.2-0.2,0.4-0.4,0.5-0.6c0.1-0.3,0.3-0.6,0.4-0.9c0.1-0.3,0.1-0.7,0.1-1.1c0-0.3-0.1-0.6-0.2-0.8c-0.1-0.2-0.4-0.3-0.7-0.3
			c-0.2,0-0.4,0.1-0.6,0.2c-0.2,0.1-0.4,0.4-0.5,0.6s-0.3,0.5-0.4,0.9S332.3,298.9,332.3,299.3z"/>
		<path class="st2" d="M337.6,298.9l0.1,1h0l0.4-1l1.7-2.9l0.9,0l-3.1,5.1l-0.3,0l-1-5.1l0.8,0L337.6,298.9z"/>
	</g>
	<g class="st1">
		<path class="st2" d="M344,300.5c-0.2,0.2-0.5,0.4-0.8,0.5c-0.3,0.1-0.6,0.2-1,0.2c-0.5,0-0.9-0.1-1.2-0.5
			c-0.3-0.3-0.4-0.7-0.4-1.3s0.1-1,0.2-1.5c0.2-0.4,0.4-0.8,0.6-1.1c0.2-0.3,0.5-0.5,0.8-0.7c0.3-0.2,0.6-0.2,1-0.2
			c0.2,0,0.4,0,0.6,0.1c0.2,0.1,0.3,0.2,0.4,0.3c0.1,0.1,0.2,0.2,0.3,0.4s0.1,0.3,0.1,0.5c0,0.5-0.2,0.8-0.7,1.1
			c-0.5,0.3-1.1,0.4-2,0.4c-0.1,0-0.2,0-0.3,0c-0.1,0-0.2,0-0.3,0c0,0.1,0,0.2-0.1,0.4c0,0.1,0,0.2,0,0.3c0,0.4,0.1,0.7,0.3,0.9
			s0.4,0.3,0.8,0.3c0.3,0,0.6-0.1,0.8-0.1c0.2-0.1,0.4-0.2,0.6-0.3L344,300.5z M343.2,296.5c-0.4,0-0.7,0.1-1,0.4
			c-0.3,0.3-0.5,0.6-0.6,1.1c0.3,0,0.5,0,0.8,0c0.3,0,0.5,0,0.7-0.1c0.2-0.1,0.4-0.1,0.6-0.3c0.1-0.1,0.2-0.3,0.2-0.5
			c0-0.1,0-0.1,0-0.2c0-0.1-0.1-0.1-0.1-0.2c-0.1-0.1-0.1-0.1-0.2-0.1S343.3,296.5,343.2,296.5z"/>
		<path class="st2" d="M347.4,299.6c0-0.2,0-0.3-0.1-0.4c-0.1-0.1-0.2-0.2-0.3-0.3c-0.1-0.1-0.3-0.2-0.4-0.3
			c-0.2-0.1-0.3-0.2-0.4-0.3c-0.1-0.1-0.2-0.3-0.3-0.4c-0.1-0.2-0.1-0.4-0.1-0.6c0-0.2,0-0.4,0.1-0.5c0.1-0.2,0.2-0.3,0.4-0.4
			c0.2-0.1,0.3-0.2,0.6-0.3c0.2-0.1,0.5-0.1,0.7-0.1c0.4,0,0.6,0,0.8,0.1c0.2,0,0.4,0.1,0.5,0.2l-0.2,0.6c-0.3-0.2-0.6-0.2-1.1-0.2
			c-0.3,0-0.5,0.1-0.7,0.2c-0.2,0.1-0.3,0.3-0.3,0.5c0,0.1,0,0.3,0.1,0.4s0.2,0.2,0.3,0.3c0.1,0.1,0.3,0.2,0.4,0.3
			c0.2,0.1,0.3,0.2,0.4,0.3c0.1,0.1,0.2,0.3,0.3,0.4c0.1,0.2,0.1,0.4,0.1,0.6c0,0.5-0.2,0.9-0.5,1.2c-0.3,0.3-0.8,0.4-1.4,0.4
			c-0.3,0-0.6,0-0.8-0.1c-0.3-0.1-0.5-0.1-0.6-0.2l0.3-0.6c0.1,0.1,0.3,0.2,0.5,0.2c0.2,0.1,0.4,0.1,0.7,0.1c0.3,0,0.6-0.1,0.8-0.2
			S347.4,299.9,347.4,299.6z"/>
	</g>
	<g class="st1">
		<path class="st2" d="M316.9,267c-0.1,0.2-0.1,0.5-0.1,0.8c0,0.3,0,0.5,0,0.7c0,0.1,0,0.2,0,0.3c0,0.1,0,0.2,0,0.2l-0.5,0l-0.1-0.9
			h0c-0.1,0.1-0.2,0.2-0.3,0.3s-0.2,0.2-0.4,0.3c-0.1,0.1-0.3,0.2-0.5,0.2c-0.2,0.1-0.3,0.1-0.5,0.1c-0.8,0-1.2-0.5-1.2-1.5
			c0-0.4,0.1-0.9,0.2-1.3c0.1-0.4,0.3-0.8,0.5-1.2c0.2-0.4,0.5-0.6,0.9-0.9c0.4-0.2,0.8-0.3,1.3-0.3c0.2,0,0.4,0,0.7,0.1
			c0.3,0,0.5,0.1,0.8,0.2L316.9,267z M314.6,268.5c0.2,0,0.3,0,0.5-0.1c0.1-0.1,0.3-0.2,0.4-0.3c0.1-0.1,0.2-0.2,0.3-0.4
			c0.1-0.1,0.2-0.3,0.2-0.4l0.5-2.7c-0.2-0.1-0.5-0.1-0.8-0.1c-0.3,0-0.6,0.1-0.8,0.3c-0.2,0.2-0.4,0.4-0.6,0.7s-0.3,0.6-0.4,1
			c-0.1,0.4-0.1,0.7-0.1,1.1c0,0.3,0.1,0.5,0.2,0.6C314.2,268.4,314.4,268.5,314.6,268.5z"/>
		<path class="st2" d="M319,264l0.5,0l0,0.9h0c0.1-0.1,0.2-0.2,0.3-0.4c0.1-0.1,0.2-0.2,0.4-0.3c0.1-0.1,0.3-0.2,0.5-0.2
			c0.2-0.1,0.3-0.1,0.5-0.1c0.2,0,0.3,0,0.5,0.1c0.1,0,0.3,0.1,0.4,0.2c0.1,0.1,0.2,0.3,0.3,0.5c0.1,0.2,0.1,0.4,0.1,0.7
			c0,0.6-0.1,1.1-0.2,1.6c-0.2,0.5-0.4,0.9-0.6,1.2s-0.5,0.6-0.9,0.7c-0.3,0.2-0.6,0.3-1,0.3c-0.2,0-0.4,0-0.6-0.1s-0.3-0.1-0.4-0.1
			l-0.4,2.1l-0.8,0L319,264z M321,264.5c-0.2,0-0.4,0-0.5,0.1c-0.2,0.1-0.3,0.2-0.4,0.3c-0.1,0.1-0.3,0.3-0.4,0.4
			c-0.1,0.2-0.2,0.3-0.3,0.4l-0.5,2.4c0.1,0.1,0.2,0.1,0.4,0.2c0.1,0,0.3,0,0.4,0c0.3,0,0.5-0.1,0.7-0.2c0.2-0.1,0.4-0.3,0.6-0.6
			c0.2-0.3,0.3-0.6,0.4-1s0.2-0.8,0.2-1.3c0-0.3-0.1-0.5-0.2-0.7S321.2,264.5,321,264.5z"/>
		<path class="st2" d="M324.1,263.9l0.5,0l0,0.9h0c0.1-0.1,0.2-0.2,0.3-0.4c0.1-0.1,0.2-0.2,0.4-0.3c0.1-0.1,0.3-0.2,0.5-0.2
			c0.2-0.1,0.3-0.1,0.5-0.1c0.2,0,0.3,0,0.5,0.1c0.1,0,0.3,0.1,0.4,0.2c0.1,0.1,0.2,0.3,0.3,0.5c0.1,0.2,0.1,0.4,0.1,0.7
			c0,0.6-0.1,1.1-0.2,1.6c-0.2,0.5-0.4,0.9-0.6,1.2s-0.5,0.6-0.9,0.7c-0.3,0.2-0.6,0.3-1,0.3c-0.2,0-0.4,0-0.6-0.1s-0.3-0.1-0.4-0.1
			l-0.4,2.1l-0.8,0L324.1,263.9z M326.1,264.5c-0.2,0-0.4,0-0.5,0.1c-0.2,0.1-0.3,0.2-0.4,0.3c-0.1,0.1-0.3,0.3-0.4,0.4
			c-0.1,0.2-0.2,0.3-0.3,0.4l-0.5,2.4c0.1,0.1,0.2,0.1,0.4,0.2c0.1,0,0.3,0,0.4,0c0.3,0,0.5-0.1,0.7-0.2c0.2-0.1,0.4-0.3,0.6-0.6
			c0.2-0.3,0.3-0.6,0.4-1s0.2-0.8,0.2-1.3c0-0.3-0.1-0.5-0.2-0.7S326.3,264.5,326.1,264.5z"/>
		<path class="st2" d="M331.4,264.6c-0.1,0-0.1,0-0.2,0c-0.1,0-0.1,0-0.2,0c-0.3,0-0.6,0.1-0.9,0.3c-0.2,0.2-0.4,0.5-0.6,0.8
			l-0.7,3.3l-0.8,0l1-5l0.5,0l0,0.9h0c0.1-0.1,0.2-0.2,0.3-0.4c0.1-0.1,0.2-0.2,0.3-0.3c0.1-0.1,0.2-0.2,0.4-0.2
			c0.1,0,0.3-0.1,0.4-0.1c0.1,0,0.3,0,0.5,0.1L331.4,264.6z"/>
	</g>
	<g class="st1">
		<path class="st2" d="M331.5,267.4c0-0.5,0.1-1,0.2-1.4c0.1-0.4,0.3-0.8,0.6-1.1c0.2-0.3,0.5-0.6,0.8-0.7c0.3-0.2,0.7-0.3,1-0.3
			c0.3,0,0.5,0,0.7,0.1s0.4,0.2,0.5,0.4s0.2,0.3,0.3,0.5c0.1,0.2,0.1,0.4,0.1,0.6c0,0.5-0.1,1-0.2,1.4c-0.1,0.4-0.3,0.8-0.5,1.1
			s-0.5,0.6-0.8,0.8c-0.3,0.2-0.6,0.3-1,0.3c-0.3,0-0.6,0-0.8-0.1c-0.2-0.1-0.4-0.2-0.5-0.4c-0.1-0.2-0.2-0.3-0.3-0.5
			C331.6,267.8,331.5,267.6,331.5,267.4z M332.3,267.2c0,0.4,0.1,0.7,0.2,0.9c0.1,0.2,0.4,0.3,0.7,0.3c0.2,0,0.4-0.1,0.6-0.2
			c0.2-0.2,0.4-0.4,0.5-0.6c0.1-0.3,0.3-0.6,0.4-0.9c0.1-0.3,0.1-0.7,0.1-1.1c0-0.3-0.1-0.6-0.2-0.8c-0.1-0.2-0.4-0.3-0.7-0.3
			c-0.2,0-0.4,0.1-0.6,0.2c-0.2,0.1-0.4,0.4-0.5,0.6s-0.3,0.5-0.4,0.9S332.3,266.8,332.3,267.2z"/>
		<path class="st2" d="M337.6,266.8l0.1,1h0l0.4-1l1.7-2.9l0.9,0l-3.1,5.1l-0.3,0l-1-5.1l0.8,0L337.6,266.8z"/>
	</g>
	<g class="st1">
		<path class="st2" d="M344,268.4c-0.2,0.2-0.5,0.4-0.8,0.5c-0.3,0.1-0.6,0.2-1,0.2c-0.5,0-0.9-0.1-1.2-0.5
			c-0.3-0.3-0.4-0.7-0.4-1.3s0.1-1,0.2-1.5c0.2-0.4,0.4-0.8,0.6-1.1c0.2-0.3,0.5-0.5,0.8-0.7c0.3-0.2,0.6-0.2,1-0.2
			c0.2,0,0.4,0,0.6,0.1c0.2,0.1,0.3,0.2,0.4,0.3c0.1,0.1,0.2,0.2,0.3,0.4s0.1,0.3,0.1,0.5c0,0.5-0.2,0.8-0.7,1.1
			c-0.5,0.3-1.1,0.4-2,0.4c-0.1,0-0.2,0-0.3,0c-0.1,0-0.2,0-0.3,0c0,0.1,0,0.2-0.1,0.4c0,0.1,0,0.2,0,0.3c0,0.4,0.1,0.7,0.3,0.9
			s0.4,0.3,0.8,0.3c0.3,0,0.6-0.1,0.8-0.1c0.2-0.1,0.4-0.2,0.6-0.3L344,268.4z M343.2,264.4c-0.4,0-0.7,0.1-1,0.4
			c-0.3,0.3-0.5,0.6-0.6,1.1c0.3,0,0.5,0,0.8,0c0.3,0,0.5,0,0.7-0.1c0.2-0.1,0.4-0.1,0.6-0.3c0.1-0.1,0.2-0.3,0.2-0.5
			c0-0.1,0-0.1,0-0.2c0-0.1-0.1-0.1-0.1-0.2c-0.1-0.1-0.1-0.1-0.2-0.1S343.3,264.4,343.2,264.4z"/>
		<path class="st2" d="M347.4,267.4c0-0.2,0-0.3-0.1-0.4c-0.1-0.1-0.2-0.2-0.3-0.3c-0.1-0.1-0.3-0.2-0.4-0.3
			c-0.2-0.1-0.3-0.2-0.4-0.3c-0.1-0.1-0.2-0.3-0.3-0.4c-0.1-0.2-0.1-0.4-0.1-0.6c0-0.2,0-0.4,0.1-0.5c0.1-0.2,0.2-0.3,0.4-0.4
			c0.2-0.1,0.3-0.2,0.6-0.3c0.2-0.1,0.5-0.1,0.7-0.1c0.4,0,0.6,0,0.8,0.1c0.2,0,0.4,0.1,0.5,0.2l-0.2,0.6c-0.3-0.2-0.6-0.2-1.1-0.2
			c-0.3,0-0.5,0.1-0.7,0.2c-0.2,0.1-0.3,0.3-0.3,0.5c0,0.1,0,0.3,0.1,0.4s0.2,0.2,0.3,0.3c0.1,0.1,0.3,0.2,0.4,0.3
			c0.2,0.1,0.3,0.2,0.4,0.3c0.1,0.1,0.2,0.3,0.3,0.4c0.1,0.2,0.1,0.4,0.1,0.6c0,0.5-0.2,0.9-0.5,1.2c-0.3,0.3-0.8,0.4-1.4,0.4
			c-0.3,0-0.6,0-0.8-0.1c-0.3-0.1-0.5-0.1-0.6-0.2l0.3-0.6c0.1,0.1,0.3,0.2,0.5,0.2c0.2,0.1,0.4,0.1,0.7,0.1c0.3,0,0.6-0.1,0.8-0.2
			S347.4,267.8,347.4,267.4z"/>
	</g>
	<line class="st0" x1="293.9" y1="293.1" x2="340.5" y2="339.7"/>
	<polygon class="st2" points="333.2,340.5 333.3,339 340.1,339.3 339.9,332.4 341.3,332.4 341.6,340.8 	"/>
	<line class="st0" x1="293.9" y1="272.6" x2="340.5" y2="226"/>
	<polygon class="st2" points="341.3,233.4 339.9,233.3 340.1,226.4 333.3,226.7 333.2,225.3 341.6,225 	"/>
	
		<linearGradient id="SVGID_10_" gradientUnits="userSpaceOnUse" x1="361.87" y1="137.71" x2="486.87" y2="137.71" gradientTransform="matrix(1 0 0 -1 0 382)">
		<stop  offset="0" style="stop-color:#990066"/>
		<stop  offset="0.19" style="stop-color:#780066"/>
		<stop  offset="0.4" style="stop-color:#5A0066"/>
		<stop  offset="0.61" style="stop-color:#440066"/>
		<stop  offset="0.81" style="stop-color:#370066"/>
		<stop  offset="1" style="stop-color:#330066"/>
	</linearGradient>
	<path class="st21" d="M366.9,214.3h115c2.8,0,5,2.2,5,5v50c0,2.8-2.2,5-5,5h-115c-2.8,0-5-2.2-5-5v-50
		C361.9,216.5,364.1,214.3,366.9,214.3z"/>
	<g class="st1">
		<path class="st18" d="M407.2,241.1H406l-0.2-1.1c-0.2-0.2-0.4-0.3-0.6-0.4s-0.6-0.1-0.9-0.1c-0.7,0-1.3,0.3-1.7,0.8
			s-0.6,1.2-0.6,2.1v0.3c0,0.9,0.2,1.6,0.6,2.1s1,0.8,1.7,0.8c0.3,0,0.6,0,0.9-0.1s0.5-0.2,0.6-0.4l0.2-1.1h1.3v1.7
			c-0.3,0.4-0.8,0.7-1.3,1s-1.1,0.4-1.8,0.4c-1.1,0-2.1-0.4-2.8-1.2s-1.1-1.8-1.1-3.1v-0.3c0-1.2,0.4-2.3,1.1-3.1s1.7-1.2,2.8-1.2
			c0.7,0,1.3,0.1,1.8,0.4s1,0.6,1.3,1V241.1z"/>
		<path class="st18" d="M407.9,245.7l0.6-0.1l2.6-7.4h1.8l2.6,7.4l0.6,0.1v1h-2.9v-1l0.6-0.1l-0.4-1.2h-2.8l-0.4,1.2l0.6,0.1v1h-2.9
			V245.7z M411,243.2h2l-1-3h0L411,243.2z"/>
		<path class="st18" d="M423.1,241h-1.3l-0.2-1.2c-0.1-0.1-0.4-0.2-0.7-0.2s-0.6-0.1-0.9-0.1c-0.5,0-0.8,0.1-1.1,0.3
			s-0.4,0.5-0.4,0.8c0,0.3,0.1,0.5,0.4,0.7s0.7,0.4,1.4,0.6c0.9,0.3,1.7,0.6,2.1,1s0.7,1,0.7,1.7c0,0.7-0.3,1.3-0.9,1.7
			s-1.3,0.6-2.3,0.6c-0.7,0-1.3-0.1-1.8-0.3s-1-0.5-1.4-0.9v-1.8h1.3l0.2,1.2c0.2,0.1,0.4,0.3,0.7,0.3s0.6,0.1,1,0.1
			c0.5,0,0.8-0.1,1.1-0.3s0.4-0.4,0.4-0.8c0-0.3-0.1-0.6-0.3-0.8s-0.6-0.4-1.2-0.6c-1-0.3-1.8-0.6-2.3-1s-0.8-1-0.8-1.7
			c0-0.7,0.3-1.3,0.9-1.7s1.3-0.7,2.2-0.7c0.7,0,1.3,0.1,1.8,0.3s1,0.5,1.4,0.8V241z"/>
	</g>
	<g id="Scone_logo_white-2">
		<g>
			<defs>
				<rect id="SVGID_11_" x="410.6" y="255.4" width="25.7" height="5"/>
			</defs>
			<clipPath id="SVGID_12_">
				<use xlink:href="#SVGID_11_"  style="overflow:visible;"/>
			</clipPath>
			<g class="st22">
				<g>
					<defs>
						<rect id="SVGID_13_" x="410.6" y="255.4" width="25.7" height="5"/>
					</defs>
					<clipPath id="SVGID_14_">
						<use xlink:href="#SVGID_13_"  style="overflow:visible;"/>
					</clipPath>
					<g class="st23">
						<path class="st14" d="M414,256.7h-0.5c-0.1,0-0.2,0.1-0.2,0.2v0.5c0,0.1,0.1,0.2,0.2,0.2h0.5c0.1,0,0.2-0.1,0.2-0.2v0v-0.5
							C414.2,256.8,414.1,256.7,414,256.7C414,256.7,414,256.7,414,256.7 M412.1,257.7h0.5c0.1,0,0.2-0.1,0.2-0.2v0v-0.5
							c0-0.1-0.1-0.2-0.2-0.2c0,0,0,0,0,0h-0.5c-0.1,0-0.2,0.1-0.2,0.2v0.5C411.9,257.6,412,257.7,412.1,257.7
							C412.1,257.7,412.1,257.7,412.1,257.7 M411.6,257.5v-0.5c0-0.1-0.1-0.2-0.2-0.2h-0.5c-0.1,0-0.2,0.1-0.2,0.2v0.5
							c0,0.1,0.1,0.2,0.2,0.2c0,0,0,0,0,0h0.5C411.5,257.7,411.5,257.6,411.6,257.5C411.5,257.5,411.6,257.5,411.6,257.5 M414,258.1
							c-0.1,0-0.2,0.1-0.2,0.2v0.6c0,0.1,0.1,0.2,0.2,0.2c0.1,0,0.2-0.1,0.1-0.2v-0.6C414.2,258.1,414.1,258.1,414,258.1
							C414,258.1,414,258.1,414,258.1 M412.6,258.3v0.5c0,0.1,0.1,0.2,0.2,0.2h0.5c0.1,0,0.2-0.1,0.2-0.2v-0.5
							c0-0.1-0.1-0.2-0.2-0.2h-0.5C412.7,258.1,412.6,258.2,412.6,258.3 M412.2,258.8v-0.5c0-0.1,0-0.2-0.1-0.3c0,0,0,0-0.1,0h-0.5
							c-0.1,0-0.2,0.1-0.2,0.2v0.5c0,0.1,0.1,0.2,0.2,0.2h0.5C412.1,259,412.2,258.9,412.2,258.8 M414,259.3h-0.5
							c-0.1,0-0.2,0.1-0.2,0.2v0.5c0,0.1,0.1,0.2,0.2,0.2h0.5c0.1,0,0.2-0.1,0.2-0.2c0,0,0,0,0,0v-0.5
							C414.2,259.4,414.1,259.3,414,259.3L414,259.3 M412.6,259.3h-0.5c-0.1,0-0.2,0.1-0.2,0.2c0,0,0,0,0,0v0.5
							c0,0.1,0.1,0.2,0.2,0.2h0.5c0.1,0,0.2-0.1,0.2-0.2v-0.5C412.8,259.4,412.7,259.3,412.6,259.3
							C412.6,259.3,412.6,259.3,412.6,259.3"/>
						<path class="st14" d="M414.7,256.5c0.2,0.2,0.5,0.3,0.8,0.3l0,0v1.5c0,0.6-0.7,0.9-0.9,1s0,0,0,0L414.7,256.5L414.7,256.5"/>
						<path class="st14" d="M413.1,256.4c1.1,0,1.3-0.4,1.3-0.4c0,0,0,0,0,0c0,0,0,0,0,0s0.2,0.4,1.3,0.4c0,0,0,0,0,0v2
							c0,0.6-1.2,1.3-1.2,1.3l0,0v0.5c0,0,0.1,0,0.1,0c0.4-0.2,1.6-0.9,1.6-1.7V256c0,0-0.1-0.1-0.1-0.1c-1.5,0-1.7-0.5-1.7-0.5
							s-0.1,0-0.1,0s0,0-0.1,0s-0.2,0.6-1.7,0.6c-0.1,0-0.1,0-0.1,0.1v0.3v0.1L413.1,256.4"/>
						<path class="st15" d="M417.4,259.6l0.6-0.2c0.1,0.3,0.4,0.5,0.8,0.4c0.2,0,0.3,0,0.4-0.1c0.1-0.1,0.2-0.2,0.2-0.3
							c0-0.3-0.4-0.5-0.7-0.6l0,0c-0.2-0.1-0.5-0.2-0.7-0.4c-0.2-0.2-0.3-0.4-0.3-0.7c0-0.3,0.1-0.5,0.3-0.7
							c0.2-0.2,0.5-0.3,0.9-0.3c0.5,0,0.9,0.2,1.1,0.6l-0.6,0.2c0-0.1-0.1-0.2-0.2-0.2c-0.1,0-0.2-0.1-0.3-0.1
							c-0.3,0-0.6,0.2-0.6,0.4c0,0.2,0.1,0.3,0.2,0.4c0.2,0.1,0.3,0.2,0.5,0.3h0.1c0.5,0.2,1,0.4,1,1c0,0.3-0.1,0.6-0.4,0.7
							c-0.3,0.2-0.6,0.3-0.9,0.3C418.2,260.4,417.7,260,417.4,259.6"/>
						<path class="st15" d="M422.6,260.4c-0.2,0-0.5-0.1-0.7-0.1c-0.2-0.1-0.4-0.2-0.6-0.4c-0.2-0.2-0.3-0.4-0.4-0.6
							c-0.2-0.5-0.2-1,0-1.4c0.1-0.2,0.2-0.4,0.4-0.6c0.2-0.2,0.4-0.3,0.6-0.4c0.5-0.2,1.1-0.2,1.5,0c0.2,0.1,0.5,0.3,0.6,0.5
							l-0.5,0.4c-0.1-0.2-0.3-0.3-0.4-0.4c-0.2-0.1-0.4-0.1-0.6-0.1c-0.3,0-0.6,0.1-0.9,0.4c-0.2,0.2-0.4,0.5-0.4,0.9
							c0,0.3,0.1,0.6,0.4,0.9c0.2,0.2,0.5,0.4,0.9,0.4c0.2,0,0.4-0.1,0.6-0.2c0.2-0.1,0.3-0.3,0.5-0.5l0.5,0.3
							c-0.2,0.3-0.4,0.5-0.7,0.7C423.2,260.3,422.9,260.4,422.6,260.4"/>
						<path class="st15" d="M426.6,260.4c-0.2,0-0.5-0.1-0.7-0.1c-0.2-0.1-0.4-0.2-0.6-0.4c-0.2-0.2-0.3-0.4-0.4-0.6
							c-0.1-0.2-0.2-0.5-0.1-0.7c0-0.2,0-0.5,0.1-0.7c0.1-0.2,0.2-0.4,0.4-0.6c0.2-0.2,0.4-0.3,0.6-0.4c0.2-0.1,0.5-0.2,0.7-0.1
							c0.2,0,0.5,0,0.7,0.1c0.2,0.1,0.4,0.2,0.6,0.4c0.2,0.2,0.3,0.4,0.4,0.6c0.2,0.5,0.2,1,0,1.4c-0.1,0.2-0.2,0.4-0.4,0.6
							C427.5,260.2,427,260.4,426.6,260.4 M426.6,257.3c-0.3,0-0.6,0.1-0.9,0.4c-0.2,0.2-0.4,0.5-0.4,0.9c0,0.3,0.1,0.6,0.4,0.9
							c0.5,0.5,1.3,0.5,1.7,0c0,0,0,0,0,0c0.2-0.2,0.4-0.5,0.4-0.9c0-0.3-0.1-0.6-0.4-0.9C427.2,257.4,426.9,257.3,426.6,257.3"/>
						<polygon class="st15" points="432.5,256.7 432.5,260.4 430,258.1 430,260.3 429.3,260.3 429.3,256.6 431.9,259 431.9,256.7 
													"/>
						<polygon class="st15" points="434.3,257.3 434.3,258.2 436.1,258.2 436.1,258.8 434.3,258.8 434.3,259.7 436.3,259.7 
							436.3,260.3 433.6,260.3 433.6,256.7 436.3,256.7 436.3,257.3 434.3,257.3 						"/>
					</g>
				</g>
			</g>
		</g>
	</g>
	<path class="st24" d="M449.9,240.9h-10.2c-0.6-2.5-3.2-4.1-5.7-3.4c-2.5,0.6-4.1,3.2-3.4,5.7s3.2,4.1,5.7,3.4
		c1.7-0.4,3-1.7,3.4-3.4h3l1.4,1.4l1.4-1.4h0.2l0.9,0.9l0.8-0.8l1.3,1.3l1.5-1.4l1.1-1L449.9,240.9z M433.3,243.3
		c-0.7,0-1.3-0.5-1.3-1.2c0-0.7,0.5-1.3,1.2-1.3c0.7,0,1.3,0.5,1.3,1.2c0,0,0,0,0,0C434.6,242.7,434,243.3,433.3,243.3z"/>
	<path class="st10" d="M415.3,205.9c4.6-4.5,12.1-4.5,16.6,0.1c4.5,4.6,4.5,12.1-0.1,16.6c-4.6,4.5-12.1,4.5-16.6-0.1
		c-2.2-2.2-3.4-5.1-3.4-8.2c0-2.6,0.8-5.1,2.4-7.1"/>
	<path class="st11" d="M423.5,219.9h-4.2c-0.6,0-0.8-0.2-0.8-0.8v-6.5c0-0.6,0.2-0.8,0.8-0.8h8.5c0.5,0,0.8,0.2,0.8,0.8v6.5
		c0,0.6-0.2,0.8-0.8,0.8C426.3,220,424.9,219.9,423.5,219.9z"/>
	<path class="st11" d="M419.1,211.3c0-1.8,1-3.4,2.6-4.1c2.1-0.9,4.6,0,5.5,2.2c0.1,0.2,0.2,0.5,0.2,0.7c0.1,0.4,0.1,0.8,0.2,1.2"/>
	<path class="st9" d="M422.8,217.2L422.8,217.2v0.8c0,0.2,0.1,0.2,0.3,0.2h0.8c0.2,0,0.3-0.1,0.3-0.3v-1.6c0-0.2,0.1-0.3,0.2-0.4
		c0.5-0.3,0.8-0.9,0.6-1.4c-0.2-0.6-0.8-1-1.4-1c-0.7-0.1-1.3,0.3-1.6,0.9c-0.2,0.6,0,1.2,0.5,1.5c0.2,0.1,0.3,0.3,0.3,0.5
		C422.8,216.7,422.8,216.9,422.8,217.2z"/>
</g>
</svg>
