<?xml version="1.0" encoding="utf-8"?>
<!-- Generator: Adobe Illustrator 24.0.0, SVG Export Plug-In . SVG Version: 6.00 Build 0)  -->
<svg version="1.1" id="Ebene_1" xmlns="http://www.w3.org/2000/svg" xmlns:xlink="http://www.w3.org/1999/xlink" x="0px" y="0px"
	 viewBox="0 0 375 233.9" style="enable-background:new 0 0 375 233.9;" xml:space="preserve">
<style type="text/css">
	.st0{opacity:0.2;fill:#FFCC99;enable-background:new    ;}
	.st1{opacity:0.7;}
	.st2{fill:url(#SVGID_1_);}
	.st3{fill:none;stroke:#CC3300;stroke-width:2;stroke-miterlimit:10;stroke-dasharray:2,2;}
	.st4{fill:#FFFFFF;stroke:#CC3300;stroke-width:2;stroke-linecap:round;stroke-linejoin:round;}
	.st5{fill:url(#SVGID_2_);}
	.st6{fill:none;stroke:#FFCC00;stroke-width:2;stroke-miterlimit:10;}
	.st7{fill:none;stroke:#CC3300;stroke-width:2;stroke-linecap:round;stroke-linejoin:round;}
	.st8{fill:#CC3300;}
	.st9{fill:none;stroke:#FFCC00;stroke-width:2;stroke-miterlimit:10;stroke-dasharray:2.05,2.05;}
	.st10{fill:#FFCC00;}
	.st11{fill:none;stroke:#FFCC00;stroke-width:2;stroke-miterlimit:10;stroke-dasharray:2,2;}
	.st12{enable-background:new    ;}
	.st13{fill:#FFFFFF;}
	.st14{fill:#330066;}
	.st15{fill:none;stroke:#FFCC00;stroke-width:2;stroke-miterlimit:10;stroke-dasharray:1.92,1.92;}
	.st16{fill:none;stroke:#FFCC00;stroke-width:2;stroke-miterlimit:10;stroke-dasharray:2.16,2.16;}
	.st17{fill:none;stroke:#FFFFFF;stroke-width:2;stroke-miterlimit:10;}
</style>
<g id="Ebene_2_1_">
	<path class="st0" d="M240.1,60.8h98.2c2.8,0,5,2.2,5,5v151.5c0,2.8-2.2,5-5,5h-98.2c-2.8,0-5-2.2-5-5V65.8
		C235.1,63,237.3,60.8,240.1,60.8z"/>
	<path class="st0" d="M36.8,60.8h122.5c2.8,0,5,2.2,5,5v151.5c0,2.8-2.2,5-5,5H36.8c-2.8,0-5-2.2-5-5V65.8
		C31.8,63,34,60.8,36.8,60.8z"/>
	<g class="st1">
		
			<linearGradient id="SVGID_1_" gradientUnits="userSpaceOnUse" x1="152.53" y1="94.58" x2="329.82" y2="94.58" gradientTransform="matrix(1 0 0 -1 0 236)">
			<stop  offset="0" style="stop-color:#990066"/>
			<stop  offset="0.19" style="stop-color:#780066"/>
			<stop  offset="0.4" style="stop-color:#5A0066"/>
			<stop  offset="0.61" style="stop-color:#440066"/>
			<stop  offset="0.81" style="stop-color:#370066"/>
			<stop  offset="1" style="stop-color:#330066"/>
		</linearGradient>
		<path class="st2" d="M324.8,90.5H152.5v25.7H241c2.7,0,4.9,2.2,4.9,4.9v40.6c0,2.7-2.2,4.9-4.9,4.9c0,0,0,0,0,0h-88.5v25.7h172.3
			c2.8,0,5-2.2,5-5V95.5C329.8,92.8,327.6,90.5,324.8,90.5z"/>
	</g>
	<path class="st3" d="M233.5,192.3v25.2c0,3.3,2.2,5.9,5,5.9h100c2.8,0,5-2.7,5-5.9V65.3c0-3.3-2.2-6-5-6h-100c-2.8,0-5,2.7-5,6
		v25.3"/>
	<path class="st4" d="M338.6,56.5c-0.7-1.2-2.3-1.8-3.6-1.2c-2.3,0.9-1.3,3.6-1.3,3.6s-5.1-0.1-4.6,5.2c0.4,3.8,4.6,3.6,4.4,3.6
		c-6.2,0,12.4,0,18.6,0c1,0,1.9-0.4,2.6-1c1.5-1.1,2-3.1,1.3-4.7c-0.7-1.8-3-2.8-4.9-2.9c0,0,1.1-4.9-2.4-7.1
		c-2.5-1.7-5.8-1.4-8.1,0.6C339.6,53.7,338.9,55,338.6,56.5z"/>
	
		<linearGradient id="SVGID_2_" gradientUnits="userSpaceOnUse" x1="42.53" y1="94.56" x2="152.53" y2="94.56" gradientTransform="matrix(1 0 0 -1 0 236)">
		<stop  offset="0" style="stop-color:#990066"/>
		<stop  offset="0.19" style="stop-color:#780066"/>
		<stop  offset="0.4" style="stop-color:#5A0066"/>
		<stop  offset="0.61" style="stop-color:#440066"/>
		<stop  offset="0.81" style="stop-color:#370066"/>
		<stop  offset="1" style="stop-color:#330066"/>
	</linearGradient>
	<path class="st5" d="M152.5,91.3V77.4c0-2.8-2.2-5-5-5h-100c-2.8,0-5,2.2-5,5v128c0,2.8,2.2,5,5,5h100c2.8,0,5-2.2,5-5v-14.1"/>
	<path class="st6" d="M152.5,91.3V77.4c0-2.8-2.2-5-5-5h-100c-2.8,0-5,2.2-5,5v128c0,2.8,2.2,5,5,5h100c2.8,0,5-2.2,5-5v-14.1"/>
	<path class="st7" d="M356.7,26.7h-4.3c-0.6,0-0.8-0.2-0.8-0.8v-6.5c0-0.6,0.2-0.8,0.8-0.8h8.5c0.5,0,0.8,0.2,0.8,0.8v6.5
		c0,0.5-0.2,0.8-0.8,0.8C359.5,26.8,358.1,26.7,356.7,26.7z"/>
	<path class="st7" d="M355.4,10.5c1.6-0.7,3.5-0.5,4.9,0.7c1.7,1.6,1.9,4.2,0.3,5.9c-0.2,0.2-0.4,0.4-0.5,0.5
		c-0.3,0.3-0.6,0.4-1,0.7"/>
	<path class="st8" d="M356,24L356,24v0.9c0,0.2,0.1,0.2,0.3,0.2h0.8c0.2,0,0.3-0.1,0.3-0.3v-1.7c0-0.2,0.1-0.3,0.2-0.4
		c0.5-0.3,0.8-0.9,0.6-1.5c-0.2-0.6-0.8-1-1.5-1c-0.7-0.1-1.3,0.3-1.6,0.9c-0.2,0.6,0,1.2,0.5,1.5c0.2,0.1,0.3,0.3,0.3,0.5
		C356,23.5,356,23.7,356,24z"/>
	<path class="st7" d="M16,26.7h-4.3c-0.6,0-0.8-0.2-0.8-0.8v-6.5c0-0.6,0.2-0.8,0.8-0.8h8.5c0.5,0,0.8,0.2,0.8,0.8v6.5
		c0,0.5-0.2,0.8-0.8,0.8C18.8,26.8,17.4,26.7,16,26.7z"/>
	<path class="st7" d="M14.6,10.5c1.6-0.7,3.5-0.5,4.9,0.7c1.7,1.6,1.9,4.2,0.3,5.9c-0.2,0.2-0.4,0.4-0.5,0.5c-0.3,0.3-0.6,0.4-1,0.7
		"/>
	<path class="st8" d="M15.3,24L15.3,24v0.9c0,0.2,0.1,0.2,0.3,0.2h0.8c0.2,0,0.3-0.1,0.3-0.3v-1.7c0-0.2,0.1-0.3,0.2-0.4
		c0.5-0.3,0.8-0.9,0.6-1.5c-0.2-0.6-0.8-1-1.5-1c-0.7-0.1-1.3,0.3-1.6,0.9c-0.3,0.6,0,1.3,0.6,1.5c0.2,0.1,0.3,0.3,0.3,0.5
		C15.3,23.5,15.3,23.7,15.3,24z"/>
	<path class="st6" d="M152.5,116.2H241c2.7,0,4.9,2.2,4.9,4.9v40.6c0,2.7-2.2,4.9-4.9,4.9c0,0,0,0,0,0h-88.5V116.2z"/>
	<path class="st6" d="M152.5,192.3h172.3c2.8,0,5-2.2,5-5V95.5c0-2.8-2.2-5-5-5H152.5"/>
	<line class="st3" x1="233.5" y1="116.6" x2="233.5" y2="165"/>
	<path class="st3" d="M164.3,192.3v25.2c0,3.3-2.7,6-6,5.9H37.1c-3.3,0-6-2.6-6.1-5.9c0,0,0,0,0,0V65.3c0-3.3,2.7-6,6-6
		c0,0,0,0,0.1,0h121.1c3.3,0,6,2.7,6,6v25.3"/>
	<line class="st3" x1="164.3" y1="116.6" x2="164.3" y2="165"/>
	<line class="st6" x1="128.3" y1="103.8" x2="129.3" y2="103.8"/>
	<line class="st9" x1="131.4" y1="103.8" x2="204" y2="103.8"/>
	<line class="st6" x1="205" y1="103.8" x2="206" y2="103.8"/>
	<polygon class="st10" points="201.4,109.5 200.4,108.5 205.5,103.8 200.4,99.1 201.4,98.1 207.5,103.8 	"/>
	<line class="st11" x1="207.1" y1="179" x2="143.4" y2="179"/>
	<polygon class="st10" points="148,173.3 149,174.3 143.9,179 149,183.7 148,184.8 141.8,179 	"/>
</g>
<g id="schrift">
	<g class="st12">
		<path class="st10" d="M175.4,137.5c0-0.1-0.1-0.2-0.1-0.3c0-0.1-0.1-0.2-0.1-0.3c-0.2,0.2-0.4,0.4-0.6,0.5
			c-0.2,0.1-0.5,0.2-0.8,0.2c-0.5,0-0.9-0.1-1.2-0.4c-0.3-0.3-0.5-0.7-0.5-1.2c0-0.5,0.2-0.9,0.6-1.1c0.4-0.3,1-0.4,1.8-0.4h0.7
			v-0.5c0-0.3-0.1-0.5-0.2-0.6c-0.1-0.1-0.4-0.2-0.7-0.2c-0.2,0-0.3,0-0.4,0.1c-0.1,0-0.2,0.1-0.3,0.1l-0.1,0.6h-1.1l0-1.2
			c0.3-0.2,0.6-0.3,0.9-0.4c0.3-0.1,0.7-0.2,1.1-0.2c0.7,0,1.2,0.2,1.6,0.5s0.6,0.8,0.6,1.4v2.2c0,0.1,0,0.2,0,0.2
			c0,0.1,0,0.1,0,0.2l0.4,0.1v0.9H175.4z M174.1,136.5c0.2,0,0.4,0,0.6-0.1s0.3-0.2,0.4-0.3v-0.8h-0.7c-0.3,0-0.5,0.1-0.7,0.2
			s-0.2,0.3-0.2,0.5c0,0.2,0.1,0.3,0.2,0.4C173.8,136.5,173.9,136.5,174.1,136.5z"/>
		<path class="st10" d="M177.4,130.7v-0.9h2.2v6.6l0.7,0.1v0.9h-2.8v-0.9l0.7-0.1v-5.6L177.4,130.7z"/>
		<path class="st10" d="M188.4,133.1l-0.5,0.1l-1.1,4.4h-1.2l-1-3.1h0l-1,3.1h-1.2l-1.1-4.4l-0.5-0.1v-0.9h2.4v0.9l-0.6,0.1l0.5,2.4
			h0l1-3.4h1l1,3.4h0l0.5-2.4l-0.6-0.1v-0.9h2.4V133.1z"/>
	</g>
	<g class="st12">
		<path class="st10" d="M192.2,137.5c0-0.1-0.1-0.2-0.1-0.3s-0.1-0.2-0.1-0.3c-0.2,0.2-0.4,0.4-0.6,0.5c-0.2,0.1-0.5,0.2-0.8,0.2
			c-0.5,0-0.9-0.1-1.2-0.4c-0.3-0.3-0.5-0.7-0.5-1.2c0-0.5,0.2-0.9,0.6-1.1c0.4-0.3,1-0.4,1.8-0.4h0.7v-0.5c0-0.3-0.1-0.5-0.2-0.6
			c-0.1-0.1-0.4-0.2-0.7-0.2c-0.2,0-0.3,0-0.4,0.1c-0.1,0-0.2,0.1-0.3,0.1l-0.1,0.6h-1.1l0-1.2c0.3-0.2,0.6-0.3,0.9-0.4
			c0.3-0.1,0.7-0.2,1.1-0.2c0.7,0,1.2,0.2,1.6,0.5s0.6,0.8,0.6,1.4v2.2c0,0.1,0,0.2,0,0.2c0,0.1,0,0.1,0,0.2l0.4,0.1v0.9H192.2z
			 M191,136.5c0.2,0,0.4,0,0.6-0.1s0.3-0.2,0.4-0.3v-0.8h-0.7c-0.3,0-0.5,0.1-0.7,0.2c-0.2,0.1-0.2,0.3-0.2,0.5
			c0,0.2,0.1,0.3,0.2,0.4C190.6,136.5,190.8,136.5,191,136.5z"/>
	</g>
	<g class="st12">
		<path class="st10" d="M199.8,133.1l-0.5,0.1l-2,5.1c-0.2,0.4-0.4,0.7-0.6,1c-0.3,0.3-0.6,0.4-1.2,0.4c-0.1,0-0.2,0-0.3,0
			c-0.1,0-0.2,0-0.4-0.1l0.2-1c0,0,0.1,0,0.1,0c0,0,0.1,0,0.1,0c0.2,0,0.4-0.1,0.6-0.2c0.1-0.1,0.2-0.3,0.3-0.4l0.2-0.4l-1.7-4.3
			l-0.5-0.1v-0.9h2.6v0.9l-0.6,0.1l0.7,2.1l0.1,0.4l0,0l0.8-2.5l-0.6-0.1v-0.9h2.6V133.1z"/>
		<path class="st10" d="M204.7,134h-1l-0.2-0.7c-0.1-0.1-0.2-0.1-0.4-0.2c-0.2-0.1-0.3-0.1-0.5-0.1c-0.3,0-0.5,0.1-0.6,0.2
			s-0.2,0.3-0.2,0.4c0,0.2,0.1,0.3,0.2,0.4c0.1,0.1,0.4,0.2,0.8,0.3c0.7,0.1,1.2,0.3,1.5,0.6c0.3,0.3,0.5,0.6,0.5,1
			c0,0.5-0.2,0.9-0.6,1.2c-0.4,0.3-1,0.5-1.6,0.5c-0.4,0-0.8-0.1-1.1-0.2s-0.6-0.3-0.9-0.5l0-1.2h1l0.2,0.7c0.1,0.1,0.2,0.1,0.3,0.2
			c0.1,0,0.3,0.1,0.5,0.1c0.3,0,0.5-0.1,0.7-0.2c0.2-0.1,0.2-0.2,0.2-0.4c0-0.2-0.1-0.3-0.2-0.4c-0.2-0.1-0.4-0.2-0.9-0.3
			c-0.6-0.1-1.1-0.3-1.4-0.6s-0.5-0.6-0.5-1c0-0.4,0.2-0.8,0.6-1.1c0.4-0.3,0.9-0.5,1.6-0.5c0.4,0,0.8,0.1,1.2,0.2
			c0.4,0.1,0.7,0.3,0.9,0.4L204.7,134z"/>
	</g>
	<g class="st12">
		<path class="st10" d="M174.5,149.6c-0.8,0-1.4-0.2-1.8-0.7c-0.5-0.5-0.7-1.1-0.7-1.9v-0.2c0-0.8,0.2-1.4,0.7-1.9s1-0.8,1.8-0.8
			c0.7,0,1.3,0.2,1.7,0.6c0.4,0.4,0.6,1,0.6,1.7v0.8h-3.2l0,0c0,0.3,0.1,0.6,0.4,0.9c0.2,0.2,0.5,0.3,0.9,0.3c0.3,0,0.6,0,0.8-0.1
			s0.4-0.2,0.7-0.3l0.4,0.9c-0.2,0.2-0.5,0.3-0.9,0.4S175,149.6,174.5,149.6z M174.4,145.2c-0.3,0-0.5,0.1-0.6,0.3
			c-0.2,0.2-0.3,0.5-0.3,0.8l0,0h1.8v-0.1c0-0.3-0.1-0.5-0.2-0.7S174.7,145.2,174.4,145.2z"/>
	</g>
	<g class="st12">
		<path class="st10" d="M177.3,148.6l0.7-0.1v-3.3l-0.8-0.1v-0.9h2.1l0.1,0.8c0.2-0.3,0.4-0.5,0.7-0.6c0.3-0.2,0.6-0.2,0.9-0.2
			c0.5,0,1,0.2,1.3,0.5c0.3,0.3,0.5,0.9,0.5,1.6v2.3l0.7,0.1v0.9h-2.8v-0.9l0.6-0.1v-2.3c0-0.4-0.1-0.6-0.2-0.8
			c-0.1-0.1-0.4-0.2-0.7-0.2c-0.2,0-0.4,0-0.5,0.1c-0.2,0.1-0.3,0.2-0.4,0.3v2.8l0.6,0.1v0.9h-2.7V148.6z"/>
	</g>
	<g class="st12">
		<path class="st10" d="M186.2,148.5c0.3,0,0.5-0.1,0.6-0.2c0.2-0.1,0.2-0.3,0.2-0.6h1.3l0,0c0,0.5-0.2,1-0.6,1.3s-0.9,0.5-1.6,0.5
			c-0.8,0-1.4-0.2-1.8-0.7s-0.6-1.1-0.6-1.9v-0.1c0-0.8,0.2-1.4,0.7-1.9c0.4-0.5,1.1-0.8,1.9-0.8c0.4,0,0.8,0.1,1.2,0.2
			s0.6,0.3,0.9,0.5l0,1.4h-1.2l-0.2-0.8c-0.1-0.1-0.2-0.1-0.3-0.2c-0.1,0-0.2-0.1-0.4-0.1c-0.4,0-0.7,0.1-0.9,0.4s-0.3,0.7-0.3,1.1
			v0.1c0,0.5,0.1,0.9,0.2,1.1C185.6,148.3,185.8,148.5,186.2,148.5z"/>
	</g>
	<g class="st12">
		<path class="st10" d="M189.1,148.6l0.7-0.1v-3.3l-0.8-0.1v-0.9h2.1l0.1,0.8c0.1-0.3,0.3-0.5,0.5-0.6c0.2-0.2,0.4-0.2,0.7-0.2
			c0.1,0,0.2,0,0.2,0s0.2,0,0.2,0l-0.2,1.3l-0.6,0c-0.2,0-0.4,0-0.5,0.1c-0.1,0.1-0.2,0.2-0.3,0.3v2.6l0.7,0.1v0.9h-2.8V148.6z"/>
	</g>
	<g class="st12">
		<path class="st10" d="M198.9,145.1l-0.5,0.1l-2,5.1c-0.2,0.4-0.4,0.7-0.6,1c-0.3,0.3-0.6,0.4-1.2,0.4c-0.1,0-0.2,0-0.3,0
			c-0.1,0-0.2,0-0.4-0.1l0.2-1c0,0,0.1,0,0.1,0c0,0,0.1,0,0.1,0c0.2,0,0.4-0.1,0.6-0.2c0.1-0.1,0.2-0.3,0.3-0.4l0.2-0.4l-1.7-4.3
			l-0.5-0.1v-0.9h2.6v0.9l-0.6,0.1l0.7,2.1l0.1,0.4l0,0l0.8-2.5l-0.6-0.1v-0.9h2.6V145.1z"/>
		<path class="st10" d="M199.3,145.1v-0.9h2.1l0.1,0.6c0.2-0.2,0.3-0.4,0.6-0.5c0.2-0.1,0.5-0.2,0.8-0.2c0.7,0,1.2,0.3,1.5,0.8
			c0.4,0.5,0.5,1.2,0.5,2v0.1c0,0.8-0.2,1.4-0.5,1.9c-0.4,0.5-0.9,0.7-1.5,0.7c-0.3,0-0.5-0.1-0.7-0.2c-0.2-0.1-0.4-0.3-0.6-0.5v1.5
			l0.7,0.1v0.9h-2.8v-0.9l0.7-0.1v-5.3L199.3,145.1z M203.4,146.9c0-0.5-0.1-0.9-0.3-1.2c-0.2-0.3-0.4-0.5-0.8-0.5
			c-0.2,0-0.4,0-0.6,0.1c-0.2,0.1-0.3,0.2-0.4,0.4v2.3c0.1,0.2,0.2,0.3,0.4,0.3c0.2,0.1,0.3,0.1,0.6,0.1c0.3,0,0.6-0.1,0.8-0.4
			c0.2-0.3,0.2-0.6,0.2-1.1V146.9z"/>
		<path class="st10" d="M207.6,142.9v1.3h0.9v1h-0.9v2.7c0,0.2,0,0.4,0.1,0.4s0.2,0.1,0.3,0.1c0.1,0,0.2,0,0.3,0c0.1,0,0.2,0,0.3,0
			l0.1,1c-0.2,0-0.3,0.1-0.5,0.1s-0.3,0-0.5,0c-0.5,0-0.9-0.1-1.1-0.4c-0.3-0.3-0.4-0.7-0.4-1.3v-2.7h-0.8v-1h0.8v-1.3H207.6z"/>
		<path class="st10" d="M211.8,149.6c-0.8,0-1.4-0.2-1.8-0.7c-0.5-0.5-0.7-1.1-0.7-1.9v-0.2c0-0.8,0.2-1.4,0.7-1.9s1-0.8,1.8-0.8
			c0.7,0,1.3,0.2,1.7,0.6c0.4,0.4,0.6,1,0.6,1.7v0.8h-3.2l0,0c0,0.3,0.1,0.6,0.4,0.9s0.5,0.3,0.9,0.3c0.3,0,0.6,0,0.8-0.1
			s0.4-0.2,0.7-0.3l0.4,0.9c-0.2,0.2-0.5,0.3-0.9,0.4S212.2,149.6,211.8,149.6z M211.7,145.2c-0.3,0-0.5,0.1-0.6,0.3
			c-0.2,0.2-0.3,0.5-0.3,0.8l0,0h1.8v-0.1c0-0.3-0.1-0.5-0.2-0.7C212.2,145.3,212,145.2,211.7,145.2z"/>
		<path class="st10" d="M218.1,148.8c-0.2,0.2-0.4,0.4-0.6,0.6s-0.5,0.2-0.8,0.2c-0.7,0-1.2-0.2-1.5-0.7c-0.4-0.5-0.5-1.1-0.5-1.9
			v-0.1c0-0.8,0.2-1.5,0.5-2c0.4-0.5,0.9-0.8,1.5-0.8c0.3,0,0.5,0.1,0.7,0.2c0.2,0.1,0.4,0.3,0.6,0.5v-1.9l-0.8-0.1v-0.9h0.8h1.4
			v6.6l0.7,0.1v0.9h-1.9L218.1,148.8z M216.1,147c0,0.5,0.1,0.8,0.2,1.1c0.2,0.3,0.4,0.4,0.8,0.4c0.2,0,0.4,0,0.5-0.1
			c0.2-0.1,0.3-0.2,0.4-0.4v-2.2c-0.1-0.2-0.2-0.3-0.4-0.4s-0.3-0.1-0.5-0.1c-0.4,0-0.6,0.2-0.8,0.5c-0.2,0.3-0.2,0.7-0.2,1.2V147z"
			/>
	</g>
	<g class="st12">
		<path class="st13" d="M57.5,88.3c0.3-0.2,0.6-0.3,1-0.4s0.8-0.1,1.2-0.1c0.4,0,0.7,0.1,0.9,0.2s0.4,0.2,0.5,0.4s0.2,0.3,0.2,0.5
			c0,0.2,0.1,0.4,0.1,0.6c0,0.4,0,0.9,0,1.3s0,0.8,0,1.2c0,0.3,0,0.5,0,0.8c0,0.2,0.1,0.5,0.1,0.7h-0.6l-0.2-0.8h-0.1
			c-0.1,0.1-0.1,0.2-0.2,0.3c-0.1,0.1-0.2,0.2-0.4,0.3s-0.3,0.1-0.5,0.2c-0.2,0.1-0.4,0.1-0.6,0.1c-0.2,0-0.5,0-0.7-0.1
			s-0.4-0.2-0.5-0.3c-0.1-0.1-0.3-0.3-0.3-0.5c-0.1-0.2-0.1-0.4-0.1-0.6c0-0.3,0.1-0.6,0.2-0.8c0.1-0.2,0.3-0.4,0.6-0.5
			c0.2-0.1,0.5-0.2,0.9-0.3c0.3-0.1,0.7-0.1,1.1-0.1c0.1,0,0.2,0,0.3,0c0.1,0,0.2,0,0.3,0c0-0.2,0-0.4,0-0.6c0-0.4-0.1-0.7-0.2-0.8
			c-0.2-0.2-0.5-0.2-0.9-0.2c-0.1,0-0.3,0-0.4,0c-0.1,0-0.3,0-0.4,0.1c-0.2,0-0.3,0.1-0.4,0.1s-0.3,0.1-0.4,0.2L57.5,88.3z
			 M59.1,92.7c0.2,0,0.4,0,0.6-0.1c0.2-0.1,0.3-0.1,0.4-0.2c0.1-0.1,0.2-0.2,0.3-0.3s0.1-0.2,0.2-0.3v-0.9c-0.1,0-0.2,0-0.3,0
			s-0.2,0-0.3,0c-0.2,0-0.4,0-0.7,0s-0.4,0.1-0.6,0.1c-0.2,0.1-0.3,0.2-0.4,0.3c-0.1,0.1-0.1,0.3-0.1,0.5c0,0.3,0.1,0.5,0.3,0.6
			C58.6,92.6,58.8,92.7,59.1,92.7z"/>
		<path class="st13" d="M63.1,87.9h0.6l0.2,0.7h0c0.2-0.3,0.4-0.5,0.7-0.6s0.6-0.2,0.9-0.2c0.7,0,1.3,0.2,1.6,0.6
			c0.4,0.4,0.5,1.1,0.5,2.1c0,0.5-0.1,0.9-0.2,1.2s-0.3,0.7-0.5,0.9c-0.2,0.3-0.5,0.5-0.8,0.6c-0.3,0.1-0.7,0.2-1,0.2
			c-0.3,0-0.5,0-0.6,0c-0.2,0-0.3-0.1-0.5-0.2v2.3h-0.9V87.9z M65.3,88.5c-0.4,0-0.7,0.1-0.9,0.3s-0.4,0.5-0.5,0.9v2.7
			c0.1,0.1,0.3,0.2,0.5,0.2c0.2,0.1,0.4,0.1,0.7,0.1c0.5,0,0.9-0.2,1.2-0.6c0.3-0.4,0.4-0.9,0.4-1.7c0-0.3,0-0.6-0.1-0.8
			s-0.1-0.5-0.2-0.6s-0.3-0.3-0.4-0.4C65.8,88.6,65.6,88.5,65.3,88.5z"/>
		<path class="st13" d="M69,87.9h0.6l0.2,0.7h0c0.2-0.3,0.4-0.5,0.7-0.6s0.6-0.2,0.9-0.2c0.7,0,1.3,0.2,1.6,0.6
			c0.4,0.4,0.5,1.1,0.5,2.1c0,0.5-0.1,0.9-0.2,1.2s-0.3,0.7-0.5,0.9c-0.2,0.3-0.5,0.5-0.8,0.6c-0.3,0.1-0.7,0.2-1,0.2
			c-0.3,0-0.5,0-0.6,0c-0.2,0-0.3-0.1-0.5-0.2v2.3H69V87.9z M71.3,88.5c-0.4,0-0.7,0.1-0.9,0.3s-0.4,0.5-0.5,0.9v2.7
			c0.1,0.1,0.3,0.2,0.5,0.2c0.2,0.1,0.4,0.1,0.7,0.1c0.5,0,0.9-0.2,1.2-0.6c0.3-0.4,0.4-0.9,0.4-1.7c0-0.3,0-0.6-0.1-0.8
			s-0.1-0.5-0.2-0.6s-0.3-0.3-0.4-0.4C71.8,88.6,71.5,88.5,71.3,88.5z"/>
		<path class="st13" d="M76,92c0,0.3,0,0.4,0.1,0.5c0.1,0.1,0.2,0.2,0.4,0.2c0.1,0,0.2,0,0.3,0c0.1,0,0.2,0,0.4-0.1l0.1,0.7
			c-0.1,0.1-0.3,0.1-0.5,0.1c-0.2,0-0.4,0.1-0.5,0.1c-0.3,0-0.6-0.1-0.8-0.3c-0.2-0.2-0.3-0.5-0.3-1v-6.6H76V92z"/>
		<path class="st13" d="M78.2,86.2c0-0.2,0.1-0.3,0.2-0.4s0.3-0.2,0.4-0.2c0.2,0,0.3,0.1,0.5,0.2c0.1,0.1,0.2,0.3,0.2,0.4
			s-0.1,0.3-0.2,0.4c-0.1,0.1-0.3,0.2-0.5,0.2c-0.2,0-0.3-0.1-0.4-0.2S78.2,86.4,78.2,86.2z M78.4,87.9h0.9v5.5h-0.9V87.9z"/>
		<path class="st13" d="M84.9,93c-0.2,0.2-0.5,0.3-0.8,0.4c-0.3,0.1-0.6,0.1-0.9,0.1c-0.4,0-0.8-0.1-1.1-0.2s-0.5-0.3-0.7-0.6
			c-0.2-0.3-0.3-0.6-0.4-0.9c-0.1-0.4-0.1-0.8-0.1-1.2c0-0.9,0.2-1.6,0.6-2.1s1-0.7,1.8-0.7c0.4,0,0.7,0,0.9,0.1
			c0.2,0.1,0.5,0.1,0.7,0.2l-0.3,0.8c-0.2-0.1-0.4-0.2-0.6-0.2c-0.2-0.1-0.4-0.1-0.7-0.1c-1,0-1.6,0.7-1.6,2.1c0,0.3,0,0.5,0.1,0.8
			c0.1,0.3,0.1,0.5,0.3,0.7c0.1,0.2,0.3,0.3,0.5,0.5c0.2,0.1,0.5,0.2,0.8,0.2c0.3,0,0.5,0,0.7-0.1s0.4-0.2,0.5-0.3L84.9,93z"/>
		<path class="st13" d="M86,88.3c0.3-0.2,0.6-0.3,1-0.4s0.8-0.1,1.2-0.1c0.4,0,0.7,0.1,0.9,0.2s0.4,0.2,0.5,0.4s0.2,0.3,0.2,0.5
			c0,0.2,0.1,0.4,0.1,0.6c0,0.4,0,0.9,0,1.3s0,0.8,0,1.2c0,0.3,0,0.5,0,0.8c0,0.2,0.1,0.5,0.1,0.7h-0.6l-0.2-0.8h-0.1
			c-0.1,0.1-0.1,0.2-0.2,0.3c-0.1,0.1-0.2,0.2-0.4,0.3s-0.3,0.1-0.5,0.2c-0.2,0.1-0.4,0.1-0.6,0.1c-0.2,0-0.5,0-0.7-0.1
			s-0.4-0.2-0.5-0.3c-0.1-0.1-0.3-0.3-0.3-0.5c-0.1-0.2-0.1-0.4-0.1-0.6c0-0.3,0.1-0.6,0.2-0.8c0.1-0.2,0.3-0.4,0.6-0.5
			c0.2-0.1,0.5-0.2,0.9-0.3c0.3-0.1,0.7-0.1,1.1-0.1c0.1,0,0.2,0,0.3,0c0.1,0,0.2,0,0.3,0c0-0.2,0-0.4,0-0.6c0-0.4-0.1-0.7-0.2-0.8
			c-0.2-0.2-0.5-0.2-0.9-0.2c-0.1,0-0.3,0-0.4,0c-0.1,0-0.3,0-0.4,0.1c-0.2,0-0.3,0.1-0.4,0.1s-0.3,0.1-0.4,0.2L86,88.3z M87.6,92.7
			c0.2,0,0.4,0,0.6-0.1c0.2-0.1,0.3-0.1,0.4-0.2c0.1-0.1,0.2-0.2,0.3-0.3s0.1-0.2,0.2-0.3v-0.9c-0.1,0-0.2,0-0.3,0s-0.2,0-0.3,0
			c-0.2,0-0.4,0-0.7,0s-0.4,0.1-0.6,0.1c-0.2,0.1-0.3,0.2-0.4,0.3c-0.1,0.1-0.1,0.3-0.1,0.5c0,0.3,0.1,0.5,0.3,0.6
			C87.1,92.6,87.3,92.7,87.6,92.7z"/>
		<path class="st13" d="M90.8,87.9h0.9v-1.1l0.9-0.3v1.3h1.5v0.8h-1.5v3c0,0.4,0,0.7,0.1,0.8c0.1,0.2,0.3,0.2,0.5,0.2
			c0.2,0,0.4,0,0.5-0.1c0.1,0,0.3-0.1,0.4-0.2l0.2,0.7c-0.2,0.1-0.4,0.2-0.6,0.2s-0.5,0.1-0.8,0.1c-0.4,0-0.8-0.1-0.9-0.4
			c-0.2-0.3-0.3-0.7-0.3-1.3v-3.2h-0.9V87.9z"/>
		<path class="st13" d="M95.3,86.2c0-0.2,0.1-0.3,0.2-0.4s0.3-0.2,0.4-0.2c0.2,0,0.3,0.1,0.5,0.2c0.1,0.1,0.2,0.3,0.2,0.4
			s-0.1,0.3-0.2,0.4c-0.1,0.1-0.3,0.2-0.5,0.2c-0.2,0-0.3-0.1-0.4-0.2S95.3,86.4,95.3,86.2z M95.5,87.9h0.9v5.5h-0.9V87.9z"/>
		<path class="st13" d="M97.9,90.6c0-0.9,0.2-1.6,0.6-2.1c0.4-0.5,1-0.7,1.8-0.7c0.4,0,0.8,0.1,1.1,0.2s0.6,0.3,0.8,0.6
			c0.2,0.3,0.3,0.6,0.4,0.9s0.1,0.8,0.1,1.2c0,0.9-0.2,1.6-0.6,2.1c-0.4,0.5-1,0.7-1.8,0.7c-0.4,0-0.8-0.1-1.1-0.2s-0.6-0.3-0.8-0.6
			c-0.2-0.3-0.3-0.6-0.4-0.9C98,91.5,97.9,91.1,97.9,90.6z M98.9,90.6c0,0.3,0,0.5,0.1,0.8c0.1,0.3,0.1,0.5,0.3,0.7
			c0.1,0.2,0.3,0.3,0.5,0.5c0.2,0.1,0.4,0.2,0.7,0.2c1,0,1.5-0.7,1.5-2.1c0-0.3,0-0.6-0.1-0.8c-0.1-0.3-0.1-0.5-0.3-0.7
			c-0.1-0.2-0.3-0.3-0.5-0.5c-0.2-0.1-0.4-0.2-0.7-0.2C99.4,88.5,98.9,89.2,98.9,90.6z"/>
		<path class="st13" d="M107.7,93.4v-3.1c0-0.6-0.1-1-0.2-1.3c-0.2-0.3-0.5-0.4-0.9-0.4c-0.4,0-0.7,0.1-1,0.3
			c-0.3,0.2-0.4,0.5-0.5,0.8v3.8h-0.9v-5.5h0.6l0.2,0.7h0c0.2-0.2,0.4-0.4,0.7-0.6c0.3-0.2,0.7-0.2,1.1-0.2c0.3,0,0.6,0,0.8,0.1
			c0.2,0.1,0.4,0.2,0.6,0.4s0.3,0.4,0.3,0.7s0.1,0.7,0.1,1.1v3.3H107.7z"/>
		<path class="st13" d="M109.9,92.9c0-0.2,0.1-0.4,0.2-0.5c0.1-0.1,0.3-0.2,0.5-0.2c0.2,0,0.4,0.1,0.5,0.2c0.1,0.1,0.2,0.3,0.2,0.5
			c0,0.2-0.1,0.3-0.2,0.5c-0.1,0.1-0.3,0.2-0.5,0.2c-0.2,0-0.3-0.1-0.5-0.2S109.9,93.1,109.9,92.9z"/>
	</g>
	<g class="st12">
		<path class="st13" d="M112.5,87.9h0.6l0.2,0.7h0c0.2-0.3,0.4-0.5,0.7-0.6s0.6-0.2,0.9-0.2c0.7,0,1.3,0.2,1.6,0.6
			c0.4,0.4,0.5,1.1,0.5,2.1c0,0.5-0.1,0.9-0.2,1.2s-0.3,0.7-0.5,0.9c-0.2,0.3-0.5,0.5-0.8,0.6c-0.3,0.1-0.7,0.2-1,0.2
			c-0.3,0-0.5,0-0.6,0c-0.2,0-0.3-0.1-0.5-0.2v2.3h-0.9V87.9z M114.7,88.5c-0.4,0-0.7,0.1-0.9,0.3s-0.4,0.5-0.5,0.9v2.7
			c0.1,0.1,0.3,0.2,0.5,0.2c0.2,0.1,0.4,0.1,0.7,0.1c0.5,0,0.9-0.2,1.2-0.6c0.3-0.4,0.4-0.9,0.4-1.7c0-0.3,0-0.6-0.1-0.8
			s-0.1-0.5-0.2-0.6s-0.3-0.3-0.4-0.4C115.2,88.6,115,88.5,114.7,88.5z"/>
	</g>
	<g class="st12">
		<path class="st13" d="M120,91.4l0.3,1.1h0.1l0.2-1.1l1.1-3.6h0.9l-1.6,4.9c-0.1,0.4-0.2,0.7-0.4,1c-0.1,0.3-0.3,0.6-0.4,0.9
			c-0.1,0.3-0.3,0.5-0.5,0.6c-0.2,0.2-0.4,0.2-0.6,0.2c-0.3,0-0.5,0-0.6-0.1l0.2-0.8c0.1,0,0.2,0.1,0.3,0.1c0.2,0,0.4-0.1,0.6-0.3
			c0.2-0.2,0.3-0.6,0.5-1.1l-2.2-5.5h1L120,91.4z"/>
	</g>
	<g class="st12">
		<path class="st13" d="M103.4,101.1v3.1c0,0.3,0,0.5,0,0.8c0,0.2,0.1,0.4,0.2,0.5c0.1,0.1,0.2,0.3,0.3,0.3s0.3,0.1,0.5,0.1
			c0.2,0,0.4,0,0.5-0.1c0.2-0.1,0.3-0.1,0.4-0.3c0.1-0.1,0.2-0.2,0.3-0.4c0.1-0.1,0.2-0.3,0.2-0.5v-3.7h0.9v3.9c0,0.3,0,0.5,0,0.8
			c0,0.3,0,0.5,0.1,0.7h-0.6l-0.2-0.9h-0.1c-0.2,0.3-0.4,0.5-0.7,0.7c-0.3,0.2-0.6,0.3-1.1,0.3c-0.3,0-0.6,0-0.8-0.1
			s-0.4-0.2-0.6-0.4s-0.3-0.4-0.3-0.7s-0.1-0.7-0.1-1.1v-3.3H103.4z"/>
		<path class="st13" d="M107.8,101.1h0.9V100l0.9-0.3v1.3h1.5v0.8h-1.5v3c0,0.4,0,0.7,0.1,0.8c0.1,0.2,0.3,0.2,0.5,0.2
			c0.2,0,0.4,0,0.5-0.1c0.1,0,0.3-0.1,0.4-0.2l0.2,0.7c-0.2,0.1-0.4,0.2-0.6,0.2s-0.5,0.1-0.8,0.1c-0.4,0-0.8-0.1-0.9-0.4
			c-0.2-0.3-0.3-0.7-0.3-1.3v-3.2h-0.9V101.1z"/>
		<path class="st13" d="M112.3,99.4c0-0.2,0.1-0.3,0.2-0.4s0.3-0.2,0.4-0.2c0.2,0,0.3,0.1,0.5,0.2c0.1,0.1,0.2,0.3,0.2,0.4
			s-0.1,0.3-0.2,0.4c-0.1,0.1-0.3,0.2-0.5,0.2c-0.2,0-0.3-0.1-0.4-0.2S112.3,99.6,112.3,99.4z M112.5,101.1h0.9v5.5h-0.9V101.1z"/>
		<path class="st13" d="M116.2,105.2c0,0.3,0,0.4,0.1,0.5c0.1,0.1,0.2,0.2,0.4,0.2c0.1,0,0.2,0,0.3,0c0.1,0,0.2,0,0.4-0.1l0.1,0.7
			c-0.1,0.1-0.3,0.1-0.5,0.1c-0.2,0-0.4,0.1-0.5,0.1c-0.3,0-0.6-0.1-0.8-0.3c-0.2-0.2-0.3-0.5-0.3-1v-6.6h0.9V105.2z"/>
		<path class="st13" d="M120.9,105.1c0-0.2-0.1-0.4-0.2-0.5c-0.1-0.1-0.3-0.2-0.5-0.3c-0.2-0.1-0.4-0.2-0.6-0.2s-0.4-0.2-0.6-0.3
			c-0.2-0.1-0.4-0.3-0.5-0.5s-0.2-0.4-0.2-0.8c0-0.5,0.1-0.9,0.5-1.2c0.3-0.2,0.7-0.4,1.3-0.4c0.4,0,0.7,0,1,0.1s0.5,0.2,0.7,0.2
			l-0.2,0.7c-0.2-0.1-0.4-0.2-0.6-0.2s-0.5-0.1-0.8-0.1c-0.3,0-0.6,0.1-0.7,0.2c-0.2,0.1-0.2,0.3-0.2,0.6c0,0.2,0.1,0.3,0.2,0.4
			c0.1,0.1,0.3,0.2,0.5,0.3s0.4,0.2,0.6,0.2c0.2,0.1,0.4,0.2,0.6,0.3s0.4,0.3,0.5,0.5c0.1,0.2,0.2,0.5,0.2,0.8c0,0.2,0,0.5-0.1,0.7
			c-0.1,0.2-0.2,0.4-0.4,0.5c-0.2,0.1-0.4,0.3-0.6,0.3c-0.2,0.1-0.5,0.1-0.8,0.1c-0.4,0-0.8,0-1.1-0.1c-0.3-0.1-0.5-0.2-0.7-0.3
			l0.3-0.7c0.2,0.1,0.4,0.2,0.7,0.3c0.3,0.1,0.5,0.1,0.8,0.1c0.3,0,0.6-0.1,0.8-0.2C120.8,105.6,120.9,105.4,120.9,105.1z"/>
	</g>
	<g class="st12">
		<path class="st13" d="M49.3,114.3h0.6l0.2,0.7h0c0.2-0.3,0.4-0.5,0.7-0.6s0.6-0.2,0.9-0.2c0.7,0,1.3,0.2,1.6,0.6
			c0.4,0.4,0.5,1.1,0.5,2.1c0,0.5-0.1,0.9-0.2,1.2c-0.1,0.4-0.3,0.7-0.5,0.9c-0.2,0.3-0.5,0.5-0.8,0.6c-0.3,0.1-0.7,0.2-1,0.2
			c-0.3,0-0.5,0-0.6,0c-0.2,0-0.3-0.1-0.5-0.2v2.3h-0.9V114.3z M51.5,114.9c-0.4,0-0.7,0.1-0.9,0.3c-0.2,0.2-0.4,0.5-0.5,0.9v2.7
			c0.1,0.1,0.3,0.2,0.5,0.2c0.2,0.1,0.4,0.1,0.7,0.1c0.5,0,0.9-0.2,1.2-0.6c0.3-0.4,0.4-0.9,0.4-1.7c0-0.3,0-0.6-0.1-0.8
			c-0.1-0.2-0.1-0.5-0.2-0.6c-0.1-0.2-0.3-0.3-0.4-0.4C52,115,51.8,114.9,51.5,114.9z"/>
	</g>
	<g class="st12">
		<path class="st13" d="M56.8,117.8l0.3,1.1h0.1l0.2-1.1l1.1-3.6h0.9l-1.6,4.9c-0.1,0.4-0.2,0.7-0.4,1c-0.1,0.3-0.3,0.6-0.4,0.9
			c-0.1,0.3-0.3,0.5-0.5,0.6c-0.2,0.2-0.4,0.2-0.6,0.2c-0.3,0-0.5,0-0.6-0.1l0.2-0.8c0.1,0,0.2,0.1,0.3,0.1c0.2,0,0.4-0.1,0.6-0.3
			c0.2-0.2,0.3-0.6,0.5-1.1l-2.2-5.5h1L56.8,117.8z"/>
		<path class="st13" d="M59.5,114.3h0.9v-1.1l0.9-0.3v1.3h1.5v0.8h-1.5v3c0,0.4,0,0.7,0.1,0.8c0.1,0.2,0.3,0.2,0.5,0.2
			c0.2,0,0.4,0,0.5-0.1c0.1,0,0.3-0.1,0.4-0.2l0.2,0.7c-0.2,0.1-0.4,0.2-0.6,0.2s-0.5,0.1-0.8,0.1c-0.4,0-0.8-0.1-0.9-0.4
			c-0.2-0.3-0.3-0.7-0.3-1.3V115h-0.9V114.3z"/>
		<path class="st13" d="M67.5,119.8v-3.1c0-0.3,0-0.5,0-0.8c0-0.2-0.1-0.4-0.2-0.5c-0.1-0.1-0.2-0.3-0.4-0.3s-0.3-0.1-0.6-0.1
			c-0.3,0-0.7,0.1-0.9,0.3c-0.3,0.2-0.5,0.5-0.5,0.9v3.7H64v-7.7h0.9v2.8h0c0.2-0.2,0.4-0.4,0.7-0.5s0.6-0.2,1-0.2
			c0.3,0,0.6,0,0.8,0.1c0.2,0.1,0.4,0.2,0.6,0.4c0.1,0.2,0.3,0.4,0.3,0.7s0.1,0.7,0.1,1.1v3.3H67.5z"/>
		<path class="st13" d="M69.7,117c0-0.9,0.2-1.6,0.6-2.1c0.4-0.5,1-0.7,1.8-0.7c0.4,0,0.8,0.1,1.1,0.2s0.6,0.3,0.8,0.6
			c0.2,0.3,0.3,0.6,0.4,0.9s0.1,0.8,0.1,1.2c0,0.9-0.2,1.6-0.6,2.1c-0.4,0.5-1,0.7-1.8,0.7c-0.4,0-0.8-0.1-1.1-0.2s-0.6-0.3-0.8-0.6
			c-0.2-0.3-0.3-0.6-0.4-0.9C69.7,117.9,69.7,117.5,69.7,117z M70.6,117c0,0.3,0,0.5,0.1,0.8c0.1,0.3,0.1,0.5,0.3,0.7
			c0.1,0.2,0.3,0.3,0.5,0.5c0.2,0.1,0.4,0.2,0.7,0.2c1,0,1.5-0.7,1.5-2.1c0-0.3,0-0.6-0.1-0.8c-0.1-0.3-0.1-0.5-0.3-0.7
			c-0.1-0.2-0.3-0.3-0.5-0.5c-0.2-0.1-0.4-0.2-0.7-0.2C71.1,114.9,70.6,115.6,70.6,117z"/>
		<path class="st13" d="M79.4,119.8v-3.1c0-0.6-0.1-1-0.2-1.3c-0.2-0.3-0.5-0.4-0.9-0.4c-0.4,0-0.7,0.1-1,0.3
			c-0.3,0.2-0.4,0.5-0.5,0.8v3.8h-0.9v-5.5h0.6l0.2,0.7h0c0.2-0.2,0.4-0.4,0.7-0.6c0.3-0.2,0.7-0.2,1.1-0.2c0.3,0,0.6,0,0.8,0.1
			c0.2,0.1,0.4,0.2,0.6,0.4s0.3,0.4,0.3,0.7s0.1,0.7,0.1,1.1v3.3H79.4z"/>
		<path class="st13" d="M85.8,118.4c0,0.3,0,0.4,0.1,0.5c0.1,0.1,0.2,0.2,0.4,0.2c0.1,0,0.2,0,0.3,0c0.1,0,0.2,0,0.4-0.1l0.1,0.7
			c-0.1,0.1-0.3,0.1-0.5,0.1c-0.2,0-0.4,0.1-0.5,0.1c-0.3,0-0.6-0.1-0.8-0.3c-0.2-0.2-0.3-0.5-0.3-1v-6.6h0.9V118.4z"/>
		<path class="st13" d="M88.1,112.6c0-0.2,0.1-0.3,0.2-0.4s0.3-0.2,0.4-0.2c0.2,0,0.3,0.1,0.5,0.2c0.1,0.1,0.2,0.3,0.2,0.4
			s-0.1,0.3-0.2,0.4c-0.1,0.1-0.3,0.2-0.5,0.2c-0.2,0-0.3-0.1-0.4-0.2S88.1,112.8,88.1,112.6z M88.3,114.3h0.9v5.5h-0.9V114.3z"/>
		<path class="st13" d="M91,112.1h0.9v2.7h0c0.2-0.2,0.4-0.4,0.6-0.5s0.5-0.2,0.9-0.2c0.7,0,1.2,0.2,1.6,0.7
			c0.4,0.5,0.5,1.2,0.5,2.1c0,1-0.2,1.7-0.7,2.2c-0.5,0.5-1.1,0.7-2,0.7c-0.4,0-0.8,0-1.1-0.1c-0.3-0.1-0.6-0.2-0.8-0.3V112.1z
			 M93.3,114.9c-0.4,0-0.7,0.1-0.9,0.3c-0.2,0.2-0.4,0.5-0.5,0.9v2.8c0.1,0.1,0.3,0.1,0.5,0.2c0.2,0,0.4,0.1,0.6,0.1
			c0.5,0,0.9-0.2,1.2-0.5c0.3-0.4,0.4-0.9,0.4-1.6c0-0.3,0-0.6-0.1-0.8c-0.1-0.2-0.1-0.5-0.2-0.6s-0.3-0.3-0.4-0.4
			C93.7,115,93.5,114.9,93.3,114.9z"/>
		<path class="st13" d="M99.6,115.1c-0.2-0.1-0.4-0.1-0.6-0.1c-0.3,0-0.6,0.1-0.7,0.3c-0.2,0.2-0.3,0.4-0.3,0.7v3.9H97v-5.5h0.6
			l0.2,0.7h0c0.1-0.2,0.3-0.4,0.5-0.6s0.4-0.2,0.7-0.2c0.2,0,0.5,0,0.7,0.1L99.6,115.1z"/>
		<path class="st13" d="M100.6,114.7c0.3-0.2,0.6-0.3,1-0.4s0.8-0.1,1.2-0.1c0.4,0,0.7,0.1,0.9,0.2s0.4,0.2,0.5,0.4s0.2,0.3,0.2,0.5
			c0,0.2,0.1,0.4,0.1,0.6c0,0.4,0,0.9,0,1.3s0,0.8,0,1.2c0,0.3,0,0.5,0,0.8c0,0.2,0.1,0.5,0.1,0.7h-0.6l-0.2-0.8h-0.1
			c-0.1,0.1-0.1,0.2-0.2,0.3c-0.1,0.1-0.2,0.2-0.4,0.3s-0.3,0.1-0.5,0.2c-0.2,0.1-0.4,0.1-0.6,0.1c-0.2,0-0.5,0-0.7-0.1
			s-0.4-0.2-0.5-0.3c-0.1-0.1-0.3-0.3-0.3-0.5c-0.1-0.2-0.1-0.4-0.1-0.6c0-0.3,0.1-0.6,0.2-0.8c0.1-0.2,0.3-0.4,0.6-0.5
			c0.2-0.1,0.5-0.2,0.9-0.3c0.3-0.1,0.7-0.1,1.1-0.1c0.1,0,0.2,0,0.3,0c0.1,0,0.2,0,0.3,0c0-0.2,0-0.4,0-0.6c0-0.4-0.1-0.7-0.2-0.8
			c-0.2-0.2-0.5-0.2-0.9-0.2c-0.1,0-0.3,0-0.4,0c-0.1,0-0.3,0-0.4,0.1c-0.2,0-0.3,0.1-0.4,0.1s-0.3,0.1-0.4,0.2L100.6,114.7z
			 M102.2,119.1c0.2,0,0.4,0,0.6-0.1c0.2-0.1,0.3-0.1,0.4-0.2c0.1-0.1,0.2-0.2,0.3-0.3s0.1-0.2,0.2-0.3v-0.9c-0.1,0-0.2,0-0.3,0
			s-0.2,0-0.3,0c-0.2,0-0.4,0-0.7,0s-0.4,0.1-0.6,0.1c-0.2,0.1-0.3,0.2-0.4,0.3c-0.1,0.1-0.1,0.3-0.1,0.5c0,0.3,0.1,0.5,0.3,0.6
			C101.7,119,101.9,119.1,102.2,119.1z"/>
		<path class="st13" d="M108.8,115.1c-0.2-0.1-0.4-0.1-0.6-0.1c-0.3,0-0.6,0.1-0.7,0.3c-0.2,0.2-0.3,0.4-0.3,0.7v3.9h-0.9v-5.5h0.6
			l0.2,0.7h0c0.1-0.2,0.3-0.4,0.5-0.6s0.4-0.2,0.7-0.2c0.2,0,0.5,0,0.7,0.1L108.8,115.1z"/>
		<path class="st13" d="M109.9,112.6c0-0.2,0.1-0.3,0.2-0.4s0.3-0.2,0.4-0.2c0.2,0,0.3,0.1,0.5,0.2c0.1,0.1,0.2,0.3,0.2,0.4
			s-0.1,0.3-0.2,0.4c-0.1,0.1-0.3,0.2-0.5,0.2c-0.2,0-0.3-0.1-0.4-0.2S109.9,112.8,109.9,112.6z M110.1,114.3h0.9v5.5h-0.9V114.3z"
			/>
		<path class="st13" d="M116.9,119.3c-0.2,0.2-0.5,0.3-0.8,0.4c-0.3,0.1-0.7,0.2-1.1,0.2c-0.4,0-0.8-0.1-1.1-0.2
			c-0.3-0.1-0.6-0.3-0.8-0.6c-0.2-0.3-0.3-0.6-0.4-0.9c-0.1-0.4-0.1-0.7-0.1-1.2c0-0.9,0.2-1.7,0.6-2.1s1-0.7,1.8-0.7
			c0.2,0,0.5,0,0.7,0.1c0.2,0.1,0.5,0.2,0.7,0.3c0.2,0.2,0.4,0.4,0.5,0.7c0.1,0.3,0.2,0.7,0.2,1.1c0,0.2,0,0.5-0.1,0.8h-3.5
			c0,0.3,0,0.6,0.1,0.9c0.1,0.2,0.2,0.5,0.3,0.6c0.1,0.2,0.3,0.3,0.5,0.4s0.5,0.1,0.8,0.1c0.2,0,0.5,0,0.7-0.1
			c0.2-0.1,0.4-0.2,0.6-0.3L116.9,119.3z M115,114.9c-0.4,0-0.8,0.1-1,0.3c-0.3,0.2-0.4,0.6-0.5,1.2h2.7c0-0.6-0.1-0.9-0.3-1.2
			C115.7,115,115.4,114.9,115,114.9z"/>
		<path class="st13" d="M120.9,118.3c0-0.2-0.1-0.4-0.2-0.5c-0.1-0.1-0.3-0.2-0.5-0.3c-0.2-0.1-0.4-0.2-0.6-0.2s-0.4-0.2-0.6-0.3
			c-0.2-0.1-0.4-0.3-0.5-0.5s-0.2-0.4-0.2-0.8c0-0.5,0.1-0.9,0.5-1.2c0.3-0.2,0.7-0.4,1.3-0.4c0.4,0,0.7,0,1,0.1s0.5,0.2,0.7,0.2
			l-0.2,0.7c-0.2-0.1-0.4-0.2-0.6-0.2s-0.5-0.1-0.8-0.1c-0.3,0-0.6,0.1-0.7,0.2c-0.2,0.1-0.2,0.3-0.2,0.6c0,0.2,0.1,0.3,0.2,0.4
			c0.1,0.1,0.3,0.2,0.5,0.3s0.4,0.2,0.6,0.2c0.2,0.1,0.4,0.2,0.6,0.3s0.4,0.3,0.5,0.5c0.1,0.2,0.2,0.5,0.2,0.8c0,0.2,0,0.5-0.1,0.7
			c-0.1,0.2-0.2,0.4-0.4,0.5c-0.2,0.1-0.4,0.3-0.6,0.3c-0.2,0.1-0.5,0.1-0.8,0.1c-0.4,0-0.8,0-1.1-0.1c-0.3-0.1-0.5-0.2-0.7-0.3
			l0.3-0.7c0.2,0.1,0.4,0.2,0.7,0.3c0.3,0.1,0.5,0.1,0.8,0.1c0.3,0,0.6-0.1,0.8-0.2C120.7,118.8,120.9,118.6,120.9,118.3z"/>
	</g>
	<g class="st12">
		<path class="st13" d="M56.1,198.5c0-0.2-0.1-0.4-0.2-0.5c-0.1-0.1-0.3-0.2-0.5-0.3c-0.2-0.1-0.4-0.2-0.6-0.2s-0.4-0.2-0.6-0.3
			c-0.2-0.1-0.4-0.3-0.5-0.5s-0.2-0.4-0.2-0.8c0-0.5,0.1-0.9,0.5-1.2c0.3-0.2,0.7-0.4,1.3-0.4c0.4,0,0.7,0,1,0.1s0.5,0.2,0.7,0.2
			l-0.2,0.7c-0.2-0.1-0.4-0.2-0.6-0.2s-0.5-0.1-0.8-0.1c-0.3,0-0.6,0.1-0.7,0.2c-0.2,0.1-0.2,0.3-0.2,0.6c0,0.2,0.1,0.3,0.2,0.4
			c0.1,0.1,0.3,0.2,0.5,0.3s0.4,0.2,0.6,0.2c0.2,0.1,0.4,0.2,0.6,0.3s0.4,0.3,0.5,0.5c0.1,0.2,0.2,0.5,0.2,0.8c0,0.2,0,0.5-0.1,0.7
			c-0.1,0.2-0.2,0.4-0.4,0.5c-0.2,0.1-0.4,0.3-0.6,0.3c-0.2,0.1-0.5,0.1-0.8,0.1c-0.4,0-0.8,0-1.1-0.1c-0.3-0.1-0.5-0.2-0.7-0.3
			l0.3-0.7c0.2,0.1,0.4,0.2,0.7,0.3c0.3,0.1,0.5,0.1,0.8,0.1c0.3,0,0.6-0.1,0.8-0.2C56,199,56.1,198.8,56.1,198.5z"/>
		<path class="st13" d="M58.3,192.8c0-0.2,0.1-0.3,0.2-0.4s0.3-0.2,0.4-0.2c0.2,0,0.3,0.1,0.5,0.2c0.1,0.1,0.2,0.3,0.2,0.4
			s-0.1,0.3-0.2,0.4c-0.1,0.1-0.3,0.2-0.5,0.2c-0.2,0-0.3-0.1-0.4-0.2S58.3,193,58.3,192.8z M58.5,194.5h0.9v5.5h-0.9V194.5z"/>
		<path class="st13" d="M64.4,200v-3.1c0-0.3,0-0.5,0-0.8c0-0.2-0.1-0.4-0.1-0.5s-0.2-0.3-0.3-0.3s-0.3-0.1-0.5-0.1
			c-0.3,0-0.6,0.1-0.8,0.3s-0.4,0.5-0.5,0.8v3.8h-0.9v-5.5h0.6l0.2,0.7h0c0.2-0.2,0.4-0.4,0.7-0.6s0.6-0.2,1-0.2
			c0.4,0,0.6,0.1,0.9,0.2c0.2,0.1,0.4,0.4,0.5,0.7c0.2-0.3,0.4-0.5,0.7-0.7s0.6-0.2,1-0.2c0.3,0,0.6,0,0.8,0.1
			c0.2,0.1,0.4,0.2,0.5,0.4s0.2,0.4,0.3,0.7c0.1,0.3,0.1,0.7,0.1,1.1v3.3h-0.9v-3.3c0-0.3,0-0.5,0-0.7s-0.1-0.4-0.2-0.5
			s-0.2-0.2-0.3-0.3c-0.1-0.1-0.3-0.1-0.5-0.1c-0.4,0-0.7,0.1-0.9,0.3c-0.2,0.2-0.4,0.5-0.4,0.9v3.7H64.4z"/>
		<path class="st13" d="M70.2,194.5h0.6l0.2,0.7h0c0.2-0.3,0.4-0.5,0.7-0.6s0.6-0.2,0.9-0.2c0.7,0,1.3,0.2,1.6,0.6
			c0.4,0.4,0.5,1.1,0.5,2.1c0,0.5-0.1,0.9-0.2,1.2s-0.3,0.7-0.5,0.9c-0.2,0.3-0.5,0.5-0.8,0.6c-0.3,0.1-0.7,0.2-1,0.2
			c-0.3,0-0.5,0-0.6,0c-0.2,0-0.3-0.1-0.5-0.2v2.3h-0.9V194.5z M72.4,195.1c-0.4,0-0.7,0.1-0.9,0.3s-0.4,0.5-0.5,0.9v2.7
			c0.1,0.1,0.3,0.2,0.5,0.2c0.2,0.1,0.4,0.1,0.7,0.1c0.5,0,0.9-0.2,1.2-0.6c0.3-0.4,0.4-0.9,0.4-1.7c0-0.3,0-0.6-0.1-0.8
			s-0.1-0.5-0.2-0.6s-0.3-0.3-0.4-0.4C72.9,195.2,72.6,195.1,72.4,195.1z"/>
		<path class="st13" d="M77.1,198.6c0,0.3,0,0.4,0.1,0.5c0.1,0.1,0.2,0.2,0.4,0.2c0.1,0,0.2,0,0.3,0c0.1,0,0.2,0,0.4-0.1l0.1,0.7
			c-0.1,0.1-0.3,0.1-0.5,0.1c-0.2,0-0.4,0.1-0.5,0.1c-0.3,0-0.6-0.1-0.8-0.3c-0.2-0.2-0.3-0.5-0.3-1v-6.6h0.9V198.6z"/>
		<path class="st13" d="M83.3,199.5c-0.2,0.2-0.5,0.3-0.8,0.4c-0.3,0.1-0.7,0.2-1.1,0.2c-0.4,0-0.8-0.1-1.1-0.2
			c-0.3-0.1-0.6-0.3-0.8-0.6c-0.2-0.3-0.3-0.6-0.4-0.9c-0.1-0.4-0.1-0.7-0.1-1.2c0-0.9,0.2-1.7,0.6-2.1s1-0.7,1.8-0.7
			c0.2,0,0.5,0,0.7,0.1c0.2,0.1,0.5,0.2,0.7,0.3c0.2,0.2,0.4,0.4,0.5,0.7c0.1,0.3,0.2,0.7,0.2,1.1c0,0.2,0,0.5-0.1,0.8h-3.5
			c0,0.3,0,0.6,0.1,0.9c0.1,0.2,0.2,0.5,0.3,0.6c0.1,0.2,0.3,0.3,0.5,0.4s0.5,0.1,0.8,0.1c0.2,0,0.5,0,0.7-0.1
			c0.2-0.1,0.4-0.2,0.6-0.3L83.3,199.5z M81.4,195.1c-0.4,0-0.8,0.1-1,0.3c-0.3,0.2-0.4,0.6-0.5,1.2h2.7c0-0.6-0.1-0.9-0.3-1.2
			C82.1,195.2,81.8,195.1,81.4,195.1z"/>
		<path class="st13" d="M84.1,201.5h4.5v0.8h-4.5V201.5z"/>
		<path class="st13" d="M91.8,198.5c0-0.2-0.1-0.4-0.2-0.5c-0.1-0.1-0.3-0.2-0.5-0.3c-0.2-0.1-0.4-0.2-0.6-0.2s-0.4-0.2-0.6-0.3
			c-0.2-0.1-0.4-0.3-0.5-0.5s-0.2-0.4-0.2-0.8c0-0.5,0.1-0.9,0.5-1.2c0.3-0.2,0.7-0.4,1.3-0.4c0.4,0,0.7,0,1,0.1s0.5,0.2,0.7,0.2
			l-0.2,0.7c-0.2-0.1-0.4-0.2-0.6-0.2s-0.5-0.1-0.8-0.1c-0.3,0-0.6,0.1-0.7,0.2c-0.2,0.1-0.2,0.3-0.2,0.6c0,0.2,0.1,0.3,0.2,0.4
			c0.1,0.1,0.3,0.2,0.5,0.3s0.4,0.2,0.6,0.2c0.2,0.1,0.4,0.2,0.6,0.3s0.4,0.3,0.5,0.5c0.1,0.2,0.2,0.5,0.2,0.8c0,0.2,0,0.5-0.1,0.7
			c-0.1,0.2-0.2,0.4-0.4,0.5c-0.2,0.1-0.4,0.3-0.6,0.3c-0.2,0.1-0.5,0.1-0.8,0.1c-0.4,0-0.8,0-1.1-0.1c-0.3-0.1-0.5-0.2-0.7-0.3
			l0.3-0.7c0.2,0.1,0.4,0.2,0.7,0.3c0.3,0.1,0.5,0.1,0.8,0.1c0.3,0,0.6-0.1,0.8-0.2C91.7,199,91.8,198.8,91.8,198.5z"/>
		<path class="st13" d="M94,194.5h0.6l0.2,0.7h0c0.2-0.3,0.4-0.5,0.7-0.6s0.6-0.2,0.9-0.2c0.7,0,1.3,0.2,1.6,0.6
			c0.4,0.4,0.5,1.1,0.5,2.1c0,0.5-0.1,0.9-0.2,1.2s-0.3,0.7-0.5,0.9c-0.2,0.3-0.5,0.5-0.8,0.6c-0.3,0.1-0.7,0.2-1,0.2
			c-0.3,0-0.5,0-0.6,0c-0.2,0-0.3-0.1-0.5-0.2v2.3H94V194.5z M96.2,195.1c-0.4,0-0.7,0.1-0.9,0.3s-0.4,0.5-0.5,0.9v2.7
			c0.1,0.1,0.3,0.2,0.5,0.2c0.2,0.1,0.4,0.1,0.7,0.1c0.5,0,0.9-0.2,1.2-0.6c0.3-0.4,0.4-0.9,0.4-1.7c0-0.3,0-0.6-0.1-0.8
			s-0.1-0.5-0.2-0.6s-0.3-0.3-0.4-0.4C96.7,195.2,96.5,195.1,96.2,195.1z"/>
		<path class="st13" d="M103.5,200v-3.1c0-0.3,0-0.5,0-0.8c0-0.2-0.1-0.4-0.2-0.5c-0.1-0.1-0.2-0.3-0.4-0.3s-0.3-0.1-0.6-0.1
			c-0.3,0-0.7,0.1-0.9,0.3c-0.3,0.2-0.5,0.5-0.5,0.9v3.7H100v-7.7h0.9v2.8h0c0.2-0.2,0.4-0.4,0.7-0.5s0.6-0.2,1-0.2
			c0.3,0,0.6,0,0.8,0.1c0.2,0.1,0.4,0.2,0.6,0.4c0.1,0.2,0.3,0.4,0.3,0.7s0.1,0.7,0.1,1.1v3.3H103.5z"/>
		<path class="st13" d="M110,199.5c-0.2,0.2-0.5,0.3-0.8,0.4c-0.3,0.1-0.7,0.2-1.1,0.2c-0.4,0-0.8-0.1-1.1-0.2
			c-0.3-0.1-0.6-0.3-0.8-0.6c-0.2-0.3-0.3-0.6-0.4-0.9c-0.1-0.4-0.1-0.7-0.1-1.2c0-0.9,0.2-1.7,0.6-2.1s1-0.7,1.8-0.7
			c0.2,0,0.5,0,0.7,0.1c0.2,0.1,0.5,0.2,0.7,0.3c0.2,0.2,0.4,0.4,0.5,0.7c0.1,0.3,0.2,0.7,0.2,1.1c0,0.2,0,0.5-0.1,0.8h-3.5
			c0,0.3,0,0.6,0.1,0.9c0.1,0.2,0.2,0.5,0.3,0.6c0.1,0.2,0.3,0.3,0.5,0.4s0.5,0.1,0.8,0.1c0.2,0,0.5,0,0.7-0.1
			c0.2-0.1,0.4-0.2,0.6-0.3L110,199.5z M108.1,195.1c-0.4,0-0.8,0.1-1,0.3c-0.3,0.2-0.4,0.6-0.5,1.2h2.7c0-0.6-0.1-0.9-0.3-1.2
			C108.8,195.2,108.5,195.1,108.1,195.1z"/>
		<path class="st13" d="M114.2,195.3c-0.2-0.1-0.4-0.1-0.6-0.1c-0.3,0-0.6,0.1-0.7,0.3c-0.2,0.2-0.3,0.4-0.3,0.7v3.8h-0.9v-5.5h0.6
			l0.2,0.7h0c0.1-0.2,0.3-0.4,0.5-0.6s0.4-0.2,0.7-0.2c0.2,0,0.5,0,0.7,0.1L114.2,195.3z"/>
		<path class="st13" d="M119.3,199.5c-0.2,0.2-0.5,0.3-0.8,0.4c-0.3,0.1-0.7,0.2-1.1,0.2c-0.4,0-0.8-0.1-1.1-0.2
			c-0.3-0.1-0.6-0.3-0.8-0.6c-0.2-0.3-0.3-0.6-0.4-0.9c-0.1-0.4-0.1-0.7-0.1-1.2c0-0.9,0.2-1.7,0.6-2.1s1-0.7,1.8-0.7
			c0.2,0,0.5,0,0.7,0.1c0.2,0.1,0.5,0.2,0.7,0.3c0.2,0.2,0.4,0.4,0.5,0.7c0.1,0.3,0.2,0.7,0.2,1.1c0,0.2,0,0.5-0.1,0.8h-3.5
			c0,0.3,0,0.6,0.1,0.9c0.1,0.2,0.2,0.5,0.3,0.6c0.1,0.2,0.3,0.3,0.5,0.4s0.5,0.1,0.8,0.1c0.2,0,0.5,0,0.7-0.1
			c0.2-0.1,0.4-0.2,0.6-0.3L119.3,199.5z M117.4,195.1c-0.4,0-0.8,0.1-1,0.3c-0.3,0.2-0.4,0.6-0.5,1.2h2.7c0-0.6-0.1-0.9-0.3-1.2
			C118.1,195.2,117.8,195.1,117.4,195.1z"/>
		<path class="st13" d="M120.6,199.5c0-0.2,0.1-0.4,0.2-0.5c0.1-0.1,0.3-0.2,0.5-0.2c0.2,0,0.4,0.1,0.5,0.2c0.1,0.1,0.2,0.3,0.2,0.5
			c0,0.2-0.1,0.3-0.2,0.5c-0.1,0.1-0.3,0.2-0.5,0.2c-0.2,0-0.3-0.1-0.5-0.2S120.6,199.7,120.6,199.5z"/>
		<path class="st13" d="M123.3,194.5h0.6l0.2,0.7h0c0.2-0.3,0.4-0.5,0.7-0.6s0.6-0.2,0.9-0.2c0.7,0,1.3,0.2,1.6,0.6
			c0.4,0.4,0.5,1.1,0.5,2.1c0,0.5-0.1,0.9-0.2,1.2s-0.3,0.7-0.5,0.9c-0.2,0.3-0.5,0.5-0.8,0.6c-0.3,0.1-0.7,0.2-1,0.2
			c-0.3,0-0.5,0-0.6,0c-0.2,0-0.3-0.1-0.5-0.2v2.3h-0.9V194.5z M125.5,195.1c-0.4,0-0.7,0.1-0.9,0.3s-0.4,0.5-0.5,0.9v2.7
			c0.1,0.1,0.3,0.2,0.5,0.2c0.2,0.1,0.4,0.1,0.7,0.1c0.5,0,0.9-0.2,1.2-0.6c0.3-0.4,0.4-0.9,0.4-1.7c0-0.3,0-0.6-0.1-0.8
			s-0.1-0.5-0.2-0.6s-0.3-0.3-0.4-0.4C126,195.2,125.8,195.1,125.5,195.1z"/>
		<path class="st13" d="M132.7,200v-3.1c0-0.6-0.1-1-0.2-1.3c-0.2-0.3-0.5-0.4-0.9-0.4c-0.4,0-0.7,0.1-1,0.3
			c-0.3,0.2-0.4,0.5-0.5,0.8v3.8h-0.9v-5.5h0.6l0.2,0.7h0c0.2-0.2,0.4-0.4,0.7-0.6c0.3-0.2,0.7-0.2,1.1-0.2c0.3,0,0.6,0,0.8,0.1
			c0.2,0.1,0.4,0.2,0.6,0.4s0.3,0.4,0.3,0.7s0.1,0.7,0.1,1.1v3.3H132.7z"/>
		<path class="st13" d="M139.4,200.2c0,0.7-0.2,1.2-0.6,1.6c-0.4,0.3-0.9,0.5-1.7,0.5c-0.4,0-0.8,0-1.1-0.1
			c-0.3-0.1-0.5-0.1-0.7-0.2l0.2-0.7c0.2,0.1,0.4,0.1,0.6,0.2c0.2,0.1,0.5,0.1,0.8,0.1c0.3,0,0.6,0,0.8-0.1s0.4-0.1,0.5-0.3
			c0.1-0.1,0.2-0.3,0.2-0.5c0-0.2,0.1-0.4,0.1-0.7v-0.5h0c-0.1,0.2-0.3,0.4-0.6,0.5c-0.2,0.1-0.5,0.2-0.9,0.2
			c-0.7,0-1.3-0.2-1.6-0.7c-0.3-0.5-0.5-1.2-0.5-2.2c0-0.9,0.2-1.7,0.7-2.1c0.4-0.5,1.1-0.7,2-0.7c0.4,0,0.8,0,1.1,0.1
			c0.3,0.1,0.6,0.1,0.8,0.2V200.2z M137.2,199.3c0.4,0,0.7-0.1,0.9-0.3c0.2-0.2,0.4-0.5,0.5-0.9v-2.8c-0.3-0.1-0.7-0.2-1.1-0.2
			c-0.5,0-0.9,0.2-1.2,0.5c-0.3,0.3-0.4,0.9-0.4,1.6c0,0.3,0,0.6,0.1,0.8s0.1,0.5,0.2,0.7c0.1,0.2,0.3,0.3,0.4,0.4
			C136.8,199.3,137,199.3,137.2,199.3z"/>
	</g>
	<g class="st12">
		<path class="st13" d="M216.8,106c-0.2,0.2-0.5,0.3-0.8,0.4c-0.3,0.1-0.7,0.2-1.1,0.2c-0.4,0-0.8-0.1-1.1-0.2s-0.6-0.3-0.8-0.6
			c-0.2-0.3-0.3-0.6-0.4-0.9c-0.1-0.4-0.1-0.7-0.1-1.2c0-0.9,0.2-1.7,0.6-2.1s1-0.7,1.8-0.7c0.2,0,0.5,0,0.7,0.1
			c0.2,0.1,0.5,0.2,0.7,0.3c0.2,0.2,0.4,0.4,0.5,0.7c0.1,0.3,0.2,0.7,0.2,1.1c0,0.2,0,0.5-0.1,0.8h-3.5c0,0.3,0,0.6,0.1,0.9
			s0.2,0.5,0.3,0.6c0.1,0.2,0.3,0.3,0.5,0.4s0.5,0.1,0.8,0.1c0.2,0,0.5,0,0.7-0.1c0.2-0.1,0.4-0.2,0.6-0.3L216.8,106z M214.9,101.6
			c-0.4,0-0.8,0.1-1,0.3c-0.3,0.2-0.4,0.6-0.5,1.2h2.7c0-0.6-0.1-0.9-0.3-1.2C215.6,101.7,215.3,101.6,214.9,101.6z"/>
		<path class="st13" d="M221.9,106.5v-3.1c0-0.6-0.1-1-0.2-1.3c-0.2-0.3-0.5-0.4-0.9-0.4c-0.4,0-0.7,0.1-1,0.3
			c-0.3,0.2-0.4,0.5-0.5,0.8v3.8h-0.9V101h0.6l0.2,0.7h0c0.2-0.2,0.4-0.4,0.7-0.6c0.3-0.2,0.7-0.2,1.1-0.2c0.3,0,0.6,0,0.8,0.1
			c0.2,0.1,0.4,0.2,0.6,0.4s0.3,0.4,0.3,0.7s0.1,0.7,0.1,1.1v3.3H221.9z"/>
		<path class="st13" d="M228.1,106.1c-0.2,0.2-0.5,0.3-0.8,0.4c-0.3,0.1-0.6,0.1-0.9,0.1c-0.4,0-0.8-0.1-1.1-0.2
			c-0.3-0.1-0.5-0.3-0.7-0.6c-0.2-0.3-0.3-0.6-0.4-0.9c-0.1-0.4-0.1-0.8-0.1-1.2c0-0.9,0.2-1.6,0.6-2.1c0.4-0.5,1-0.7,1.8-0.7
			c0.4,0,0.7,0,0.9,0.1c0.2,0.1,0.5,0.1,0.7,0.2l-0.3,0.8c-0.2-0.1-0.4-0.2-0.6-0.2c-0.2-0.1-0.4-0.1-0.7-0.1c-1,0-1.6,0.7-1.6,2.1
			c0,0.3,0,0.5,0.1,0.8c0.1,0.3,0.1,0.5,0.3,0.7s0.3,0.3,0.5,0.5c0.2,0.1,0.5,0.2,0.8,0.2c0.3,0,0.5,0,0.7-0.1s0.4-0.2,0.5-0.3
			L228.1,106.1z"/>
		<path class="st13" d="M231.9,101.8c-0.2-0.1-0.4-0.1-0.6-0.1c-0.3,0-0.6,0.1-0.7,0.3c-0.2,0.2-0.3,0.4-0.3,0.7v3.8h-0.9V101h0.6
			l0.2,0.7h0c0.1-0.2,0.3-0.4,0.5-0.6s0.4-0.2,0.7-0.2c0.2,0,0.5,0,0.7,0.1L231.9,101.8z"/>
		<path class="st13" d="M234.7,104.5l0.3,1.1h0.1l0.2-1.1l1.1-3.6h0.9l-1.6,4.9c-0.1,0.4-0.2,0.7-0.4,1c-0.1,0.3-0.3,0.6-0.4,0.9
			c-0.1,0.3-0.3,0.5-0.5,0.6c-0.2,0.2-0.4,0.2-0.6,0.2c-0.3,0-0.5,0-0.6-0.1l0.2-0.8c0.1,0,0.2,0.1,0.3,0.1c0.2,0,0.4-0.1,0.6-0.3
			c0.2-0.2,0.3-0.6,0.5-1.1l-2.2-5.5h1L234.7,104.5z"/>
		<path class="st13" d="M238.2,101h0.6l0.2,0.7h0c0.2-0.3,0.4-0.5,0.7-0.6s0.6-0.2,0.9-0.2c0.7,0,1.3,0.2,1.6,0.6
			c0.4,0.4,0.5,1.1,0.5,2.1c0,0.5-0.1,0.9-0.2,1.2s-0.3,0.7-0.5,0.9s-0.5,0.5-0.8,0.6c-0.3,0.1-0.7,0.2-1,0.2c-0.3,0-0.5,0-0.6,0
			c-0.2,0-0.3-0.1-0.5-0.2v2.3h-0.9V101z M240.4,101.6c-0.4,0-0.7,0.1-0.9,0.3c-0.2,0.2-0.4,0.5-0.5,0.9v2.7
			c0.1,0.1,0.3,0.2,0.5,0.2c0.2,0.1,0.4,0.1,0.7,0.1c0.5,0,0.9-0.2,1.2-0.6c0.3-0.4,0.4-0.9,0.4-1.7c0-0.3,0-0.6-0.1-0.8
			c-0.1-0.2-0.1-0.5-0.2-0.6c-0.1-0.2-0.3-0.3-0.4-0.4C240.9,101.7,240.7,101.6,240.4,101.6z"/>
	</g>
	<g class="st12">
		<path class="st13" d="M243.4,101h0.9v-1.1l0.9-0.3v1.3h1.5v0.8h-1.5v3c0,0.4,0,0.7,0.1,0.8c0.1,0.2,0.3,0.2,0.5,0.2
			c0.2,0,0.4,0,0.5-0.1s0.3-0.1,0.4-0.2l0.2,0.7c-0.2,0.1-0.4,0.2-0.6,0.2c-0.2,0.1-0.5,0.1-0.8,0.1c-0.4,0-0.8-0.1-0.9-0.4
			c-0.2-0.3-0.3-0.7-0.3-1.3v-3.2h-0.9V101z"/>
	</g>
	<g class="st12">
		<path class="st13" d="M251.8,106c-0.2,0.2-0.5,0.3-0.8,0.4c-0.3,0.1-0.7,0.2-1.1,0.2c-0.4,0-0.8-0.1-1.1-0.2
			c-0.3-0.1-0.6-0.3-0.8-0.6s-0.3-0.6-0.4-0.9c-0.1-0.4-0.1-0.7-0.1-1.2c0-0.9,0.2-1.7,0.6-2.1s1-0.7,1.8-0.7c0.2,0,0.5,0,0.7,0.1
			c0.2,0.1,0.5,0.2,0.7,0.3c0.2,0.2,0.4,0.4,0.5,0.7s0.2,0.7,0.2,1.1c0,0.2,0,0.5-0.1,0.8h-3.5c0,0.3,0,0.6,0.1,0.9
			c0.1,0.2,0.2,0.5,0.3,0.6c0.1,0.2,0.3,0.3,0.5,0.4s0.5,0.1,0.8,0.1c0.2,0,0.5,0,0.7-0.1c0.2-0.1,0.4-0.2,0.6-0.3L251.8,106z
			 M249.9,101.6c-0.4,0-0.8,0.1-1,0.3c-0.3,0.2-0.4,0.6-0.5,1.2h2.7c0-0.6-0.1-0.9-0.3-1.2S250.2,101.6,249.9,101.6z"/>
		<path class="st13" d="M257.5,104.6c0,0.4,0,0.7,0,1c0,0.3,0,0.6,0.1,0.9h-0.6l-0.2-0.8h0c-0.1,0.3-0.4,0.5-0.6,0.6
			c-0.3,0.2-0.6,0.3-1,0.3c-0.7,0-1.3-0.2-1.6-0.7c-0.4-0.5-0.5-1.2-0.5-2.2c0-0.9,0.2-1.7,0.7-2.1c0.4-0.5,1.1-0.7,1.8-0.7
			c0.3,0,0.5,0,0.6,0c0.2,0,0.3,0.1,0.5,0.1v-2.3h0.9V104.6z M255.3,105.8c0.4,0,0.7-0.1,0.9-0.3s0.4-0.5,0.5-0.9v-2.7
			c-0.1-0.1-0.3-0.2-0.5-0.2s-0.4-0.1-0.7-0.1c-0.5,0-0.9,0.2-1.2,0.5c-0.3,0.3-0.4,0.9-0.4,1.6c0,0.3,0,0.6,0.1,0.8
			s0.1,0.5,0.2,0.7c0.1,0.2,0.3,0.3,0.4,0.4C254.9,105.8,255.1,105.8,255.3,105.8z"/>
		<path class="st13" d="M266.4,104.6c0,0.4,0,0.7,0,1c0,0.3,0,0.6,0.1,0.9h-0.6l-0.2-0.8h0c-0.1,0.3-0.4,0.5-0.6,0.6s-0.6,0.3-1,0.3
			c-0.7,0-1.3-0.2-1.6-0.7c-0.4-0.5-0.5-1.2-0.5-2.2c0-0.9,0.2-1.7,0.7-2.1c0.4-0.5,1.1-0.7,1.8-0.7c0.3,0,0.5,0,0.6,0
			c0.2,0,0.3,0.1,0.5,0.1v-2.3h0.9V104.6z M264.2,105.8c0.4,0,0.7-0.1,0.9-0.3c0.2-0.2,0.4-0.5,0.5-0.9v-2.7
			c-0.1-0.1-0.3-0.2-0.5-0.2c-0.2,0-0.4-0.1-0.7-0.1c-0.5,0-0.9,0.2-1.2,0.5c-0.3,0.3-0.4,0.9-0.4,1.6c0,0.3,0,0.6,0.1,0.8
			s0.1,0.5,0.2,0.7c0.1,0.2,0.3,0.3,0.4,0.4C263.7,105.8,263.9,105.8,264.2,105.8z"/>
		<path class="st13" d="M268,101.4c0.3-0.2,0.6-0.3,1-0.4s0.8-0.1,1.2-0.1c0.4,0,0.7,0.1,0.9,0.2c0.2,0.1,0.4,0.2,0.5,0.4
			s0.2,0.3,0.2,0.5c0,0.2,0.1,0.4,0.1,0.6c0,0.4,0,0.9,0,1.3c0,0.4,0,0.8,0,1.2c0,0.3,0,0.5,0,0.8c0,0.2,0.1,0.5,0.1,0.7h-0.6
			l-0.2-0.8H271c-0.1,0.1-0.1,0.2-0.2,0.3c-0.1,0.1-0.2,0.2-0.4,0.3c-0.1,0.1-0.3,0.1-0.5,0.2c-0.2,0.1-0.4,0.1-0.6,0.1
			c-0.2,0-0.5,0-0.7-0.1c-0.2-0.1-0.4-0.2-0.5-0.3c-0.1-0.1-0.3-0.3-0.3-0.5c-0.1-0.2-0.1-0.4-0.1-0.6c0-0.3,0.1-0.6,0.2-0.8
			c0.1-0.2,0.3-0.4,0.6-0.5c0.2-0.1,0.5-0.2,0.9-0.3c0.3-0.1,0.7-0.1,1.1-0.1c0.1,0,0.2,0,0.3,0s0.2,0,0.3,0c0-0.2,0-0.4,0-0.6
			c0-0.4-0.1-0.7-0.2-0.8c-0.2-0.2-0.5-0.2-0.9-0.2c-0.1,0-0.3,0-0.4,0c-0.1,0-0.3,0-0.4,0.1c-0.2,0-0.3,0.1-0.4,0.1
			s-0.3,0.1-0.4,0.2L268,101.4z M269.6,105.8c0.2,0,0.4,0,0.6-0.1c0.2-0.1,0.3-0.1,0.4-0.2c0.1-0.1,0.2-0.2,0.3-0.3s0.1-0.2,0.2-0.3
			V104c-0.1,0-0.2,0-0.3,0s-0.2,0-0.3,0c-0.2,0-0.4,0-0.7,0c-0.2,0-0.4,0.1-0.6,0.1c-0.2,0.1-0.3,0.2-0.4,0.3s-0.1,0.3-0.1,0.5
			c0,0.3,0.1,0.5,0.3,0.6C269.1,105.7,269.3,105.8,269.6,105.8z"/>
		<path class="st13" d="M272.8,101h0.9v-1.1l0.9-0.3v1.3h1.5v0.8h-1.5v3c0,0.4,0,0.7,0.1,0.8c0.1,0.2,0.3,0.2,0.5,0.2
			c0.2,0,0.4,0,0.5-0.1s0.3-0.1,0.4-0.2l0.2,0.7c-0.2,0.1-0.4,0.2-0.6,0.2c-0.2,0.1-0.5,0.1-0.8,0.1c-0.4,0-0.8-0.1-0.9-0.4
			c-0.2-0.3-0.3-0.7-0.3-1.3v-3.2h-0.9V101z"/>
		<path class="st13" d="M277.2,101.4c0.3-0.2,0.6-0.3,1-0.4s0.8-0.1,1.2-0.1c0.4,0,0.7,0.1,0.9,0.2c0.2,0.1,0.4,0.2,0.5,0.4
			s0.2,0.3,0.2,0.5c0,0.2,0.1,0.4,0.1,0.6c0,0.4,0,0.9,0,1.3c0,0.4,0,0.8,0,1.2c0,0.3,0,0.5,0,0.8c0,0.2,0.1,0.5,0.1,0.7h-0.6
			l-0.2-0.8h-0.1c-0.1,0.1-0.1,0.2-0.2,0.3c-0.1,0.1-0.2,0.2-0.4,0.3c-0.1,0.1-0.3,0.1-0.5,0.2c-0.2,0.1-0.4,0.1-0.6,0.1
			c-0.2,0-0.5,0-0.7-0.1c-0.2-0.1-0.4-0.2-0.5-0.3c-0.1-0.1-0.3-0.3-0.3-0.5c-0.1-0.2-0.1-0.4-0.1-0.6c0-0.3,0.1-0.6,0.2-0.8
			c0.1-0.2,0.3-0.4,0.6-0.5c0.2-0.1,0.5-0.2,0.9-0.3c0.3-0.1,0.7-0.1,1.1-0.1c0.1,0,0.2,0,0.3,0s0.2,0,0.3,0c0-0.2,0-0.4,0-0.6
			c0-0.4-0.1-0.7-0.2-0.8c-0.2-0.2-0.5-0.2-0.9-0.2c-0.1,0-0.3,0-0.4,0c-0.1,0-0.3,0-0.4,0.1c-0.2,0-0.3,0.1-0.4,0.1
			s-0.3,0.1-0.4,0.2L277.2,101.4z M278.8,105.8c0.2,0,0.4,0,0.6-0.1c0.2-0.1,0.3-0.1,0.4-0.2c0.1-0.1,0.2-0.2,0.3-0.3
			s0.1-0.2,0.2-0.3V104c-0.1,0-0.2,0-0.3,0s-0.2,0-0.3,0c-0.2,0-0.4,0-0.7,0c-0.2,0-0.4,0.1-0.6,0.1c-0.2,0.1-0.3,0.2-0.4,0.3
			s-0.1,0.3-0.1,0.5c0,0.3,0.1,0.5,0.3,0.6C278.2,105.7,278.5,105.8,278.8,105.8z"/>
	</g>
	<g class="st12">
		<path class="st13" d="M216.8,181.7c-0.2,0.2-0.5,0.3-0.8,0.4c-0.3,0.1-0.7,0.2-1.1,0.2c-0.4,0-0.8-0.1-1.1-0.2s-0.6-0.3-0.8-0.6
			c-0.2-0.3-0.3-0.6-0.4-0.9c-0.1-0.4-0.1-0.7-0.1-1.2c0-0.9,0.2-1.7,0.6-2.1s1-0.7,1.8-0.7c0.2,0,0.5,0,0.7,0.1
			c0.2,0.1,0.5,0.2,0.7,0.3c0.2,0.2,0.4,0.4,0.5,0.7c0.1,0.3,0.2,0.7,0.2,1.1c0,0.2,0,0.5-0.1,0.8h-3.5c0,0.3,0,0.6,0.1,0.9
			s0.2,0.5,0.3,0.6c0.1,0.2,0.3,0.3,0.5,0.4s0.5,0.1,0.8,0.1c0.2,0,0.5,0,0.7-0.1c0.2-0.1,0.4-0.2,0.6-0.3L216.8,181.7z
			 M214.9,177.3c-0.4,0-0.8,0.1-1,0.3c-0.3,0.2-0.4,0.6-0.5,1.2h2.7c0-0.6-0.1-0.9-0.3-1.2C215.6,177.4,215.3,177.3,214.9,177.3z"/>
		<path class="st13" d="M221.9,182.2V179c0-0.6-0.1-1-0.2-1.3c-0.2-0.3-0.5-0.4-0.9-0.4c-0.4,0-0.7,0.1-1,0.3
			c-0.3,0.2-0.4,0.5-0.5,0.8v3.8h-0.9v-5.5h0.6l0.2,0.7h0c0.2-0.2,0.4-0.4,0.7-0.6c0.3-0.2,0.7-0.2,1.1-0.2c0.3,0,0.6,0,0.8,0.1
			c0.2,0.1,0.4,0.2,0.6,0.4s0.3,0.4,0.3,0.7s0.1,0.7,0.1,1.1v3.3H221.9z"/>
		<path class="st13" d="M228.1,181.8c-0.2,0.2-0.5,0.3-0.8,0.4c-0.3,0.1-0.6,0.1-0.9,0.1c-0.4,0-0.8-0.1-1.1-0.2
			c-0.3-0.1-0.5-0.3-0.7-0.6c-0.2-0.3-0.3-0.6-0.4-0.9c-0.1-0.4-0.1-0.8-0.1-1.2c0-0.9,0.2-1.6,0.6-2.1c0.4-0.5,1-0.7,1.8-0.7
			c0.4,0,0.7,0,0.9,0.1c0.2,0.1,0.5,0.1,0.7,0.2l-0.3,0.8c-0.2-0.1-0.4-0.2-0.6-0.2c-0.2-0.1-0.4-0.1-0.7-0.1c-1,0-1.6,0.7-1.6,2.1
			c0,0.3,0,0.5,0.1,0.8c0.1,0.3,0.1,0.5,0.3,0.7s0.3,0.3,0.5,0.5c0.2,0.1,0.5,0.2,0.8,0.2c0.3,0,0.5,0,0.7-0.1s0.4-0.2,0.5-0.3
			L228.1,181.8z"/>
		<path class="st13" d="M231.9,177.5c-0.2-0.1-0.4-0.1-0.6-0.1c-0.3,0-0.6,0.1-0.7,0.3c-0.2,0.2-0.3,0.4-0.3,0.7v3.8h-0.9v-5.5h0.6
			l0.2,0.7h0c0.1-0.2,0.3-0.4,0.5-0.6s0.4-0.2,0.7-0.2c0.2,0,0.5,0,0.7,0.1L231.9,177.5z"/>
		<path class="st13" d="M234.7,180.2l0.3,1.1h0.1l0.2-1.1l1.1-3.6h0.9l-1.6,4.9c-0.1,0.4-0.2,0.7-0.4,1c-0.1,0.3-0.3,0.6-0.4,0.9
			c-0.1,0.3-0.3,0.5-0.5,0.6c-0.2,0.2-0.4,0.2-0.6,0.2c-0.3,0-0.5,0-0.6-0.1l0.2-0.8c0.1,0,0.2,0.1,0.3,0.1c0.2,0,0.4-0.1,0.6-0.3
			c0.2-0.2,0.3-0.6,0.5-1.1l-2.2-5.5h1L234.7,180.2z"/>
		<path class="st13" d="M238.2,176.7h0.6l0.2,0.7h0c0.2-0.3,0.4-0.5,0.7-0.6s0.6-0.2,0.9-0.2c0.7,0,1.3,0.2,1.6,0.6
			c0.4,0.4,0.5,1.1,0.5,2.1c0,0.5-0.1,0.9-0.2,1.2s-0.3,0.7-0.5,0.9s-0.5,0.5-0.8,0.6c-0.3,0.1-0.7,0.2-1,0.2c-0.3,0-0.5,0-0.6,0
			c-0.2,0-0.3-0.1-0.5-0.2v2.3h-0.9V176.7z M240.4,177.3c-0.4,0-0.7,0.1-0.9,0.3c-0.2,0.2-0.4,0.5-0.5,0.9v2.7
			c0.1,0.1,0.3,0.2,0.5,0.2c0.2,0.1,0.4,0.1,0.7,0.1c0.5,0,0.9-0.2,1.2-0.6c0.3-0.4,0.4-0.9,0.4-1.7c0-0.3,0-0.6-0.1-0.8
			c-0.1-0.2-0.1-0.5-0.2-0.6c-0.1-0.2-0.3-0.3-0.4-0.4C240.9,177.4,240.7,177.3,240.4,177.3z"/>
	</g>
	<g class="st12">
		<path class="st13" d="M243.4,176.7h0.9v-1.1l0.9-0.3v1.3h1.5v0.8h-1.5v3c0,0.4,0,0.7,0.1,0.8c0.1,0.2,0.3,0.2,0.5,0.2
			c0.2,0,0.4,0,0.5-0.1s0.3-0.1,0.4-0.2l0.2,0.7c-0.2,0.1-0.4,0.2-0.6,0.2c-0.2,0.1-0.5,0.1-0.8,0.1c-0.4,0-0.8-0.1-0.9-0.4
			c-0.2-0.3-0.3-0.7-0.3-1.3v-3.2h-0.9V176.7z"/>
	</g>
	<g class="st12">
		<path class="st13" d="M251.8,181.7c-0.2,0.2-0.5,0.3-0.8,0.4c-0.3,0.1-0.7,0.2-1.1,0.2c-0.4,0-0.8-0.1-1.1-0.2
			c-0.3-0.1-0.6-0.3-0.8-0.6s-0.3-0.6-0.4-0.9c-0.1-0.4-0.1-0.7-0.1-1.2c0-0.9,0.2-1.7,0.6-2.1s1-0.7,1.8-0.7c0.2,0,0.5,0,0.7,0.1
			c0.2,0.1,0.5,0.2,0.7,0.3c0.2,0.2,0.4,0.4,0.5,0.7s0.2,0.7,0.2,1.1c0,0.2,0,0.5-0.1,0.8h-3.5c0,0.3,0,0.6,0.1,0.9
			c0.1,0.2,0.2,0.5,0.3,0.6c0.1,0.2,0.3,0.3,0.5,0.4s0.5,0.1,0.8,0.1c0.2,0,0.5,0,0.7-0.1c0.2-0.1,0.4-0.2,0.6-0.3L251.8,181.7z
			 M249.9,177.3c-0.4,0-0.8,0.1-1,0.3c-0.3,0.2-0.4,0.6-0.5,1.2h2.7c0-0.6-0.1-0.9-0.3-1.2S250.2,177.3,249.9,177.3z"/>
		<path class="st13" d="M257.5,180.3c0,0.4,0,0.7,0,1c0,0.3,0,0.6,0.1,0.9h-0.6l-0.2-0.8h0c-0.1,0.3-0.4,0.5-0.6,0.6
			c-0.3,0.2-0.6,0.3-1,0.3c-0.7,0-1.3-0.2-1.6-0.7c-0.4-0.5-0.5-1.2-0.5-2.2c0-0.9,0.2-1.7,0.7-2.1c0.4-0.5,1.1-0.7,1.8-0.7
			c0.3,0,0.5,0,0.6,0c0.2,0,0.3,0.1,0.5,0.1v-2.3h0.9V180.3z M255.3,181.5c0.4,0,0.7-0.1,0.9-0.3s0.4-0.5,0.5-0.9v-2.7
			c-0.1-0.1-0.3-0.2-0.5-0.2s-0.4-0.1-0.7-0.1c-0.5,0-0.9,0.2-1.2,0.5c-0.3,0.3-0.4,0.9-0.4,1.6c0,0.3,0,0.6,0.1,0.8
			s0.1,0.5,0.2,0.7c0.1,0.2,0.3,0.3,0.4,0.4C254.9,181.5,255.1,181.5,255.3,181.5z"/>
		<path class="st13" d="M262.2,176.7h0.6l0.2,0.7h0c0.2-0.3,0.4-0.5,0.7-0.6s0.6-0.2,0.9-0.2c0.7,0,1.3,0.2,1.6,0.6
			c0.4,0.4,0.5,1.1,0.5,2.1c0,0.5-0.1,0.9-0.2,1.2s-0.3,0.7-0.5,0.9s-0.5,0.5-0.8,0.6c-0.3,0.1-0.7,0.2-1,0.2c-0.3,0-0.5,0-0.6,0
			c-0.2,0-0.3-0.1-0.5-0.2v2.3h-0.9V176.7z M264.4,177.3c-0.4,0-0.7,0.1-0.9,0.3c-0.2,0.2-0.4,0.5-0.5,0.9v2.7
			c0.1,0.1,0.3,0.2,0.5,0.2c0.2,0.1,0.4,0.1,0.7,0.1c0.5,0,0.9-0.2,1.2-0.6c0.3-0.4,0.4-0.9,0.4-1.7c0-0.3,0-0.6-0.1-0.8
			c-0.1-0.2-0.1-0.5-0.2-0.6c-0.1-0.2-0.3-0.3-0.4-0.4C264.9,177.4,264.7,177.3,264.4,177.3z"/>
		<path class="st13" d="M270.7,177.5c-0.2-0.1-0.4-0.1-0.6-0.1c-0.3,0-0.6,0.1-0.7,0.3c-0.2,0.2-0.3,0.4-0.3,0.7v3.8h-0.9v-5.5h0.6
			l0.2,0.7h0c0.1-0.2,0.3-0.4,0.5-0.6s0.4-0.2,0.7-0.2c0.2,0,0.5,0,0.7,0.1L270.7,177.5z"/>
		<path class="st13" d="M271.6,179.4c0-0.9,0.2-1.6,0.6-2.1c0.4-0.5,1-0.7,1.8-0.7c0.4,0,0.8,0.1,1.1,0.2c0.3,0.1,0.6,0.3,0.8,0.6
			s0.3,0.6,0.4,0.9c0.1,0.4,0.1,0.8,0.1,1.2c0,0.9-0.2,1.6-0.6,2.1c-0.4,0.5-1,0.7-1.8,0.7c-0.4,0-0.8-0.1-1.1-0.2
			c-0.3-0.1-0.6-0.3-0.8-0.6s-0.3-0.6-0.4-0.9C271.6,180.3,271.6,179.9,271.6,179.4z M272.5,179.4c0,0.3,0,0.5,0.1,0.8
			c0.1,0.3,0.1,0.5,0.3,0.7c0.1,0.2,0.3,0.3,0.5,0.5c0.2,0.1,0.4,0.2,0.7,0.2c1,0,1.5-0.7,1.5-2.1c0-0.3,0-0.6-0.1-0.8
			c-0.1-0.3-0.1-0.5-0.3-0.7c-0.1-0.2-0.3-0.3-0.5-0.5c-0.2-0.1-0.4-0.2-0.7-0.2C273,177.3,272.5,178,272.5,179.4z"/>
	</g>
	<g class="st12">
		<path class="st13" d="M281.5,181.8c-0.2,0.2-0.5,0.3-0.8,0.4c-0.3,0.1-0.6,0.1-0.9,0.1c-0.4,0-0.8-0.1-1.1-0.2s-0.5-0.3-0.7-0.6
			c-0.2-0.3-0.3-0.6-0.4-0.9c-0.1-0.4-0.1-0.8-0.1-1.2c0-0.9,0.2-1.6,0.6-2.1c0.4-0.5,1-0.7,1.8-0.7c0.4,0,0.7,0,0.9,0.1
			c0.2,0.1,0.5,0.1,0.7,0.2l-0.3,0.8c-0.2-0.1-0.4-0.2-0.6-0.2c-0.2-0.1-0.4-0.1-0.7-0.1c-1,0-1.6,0.7-1.6,2.1c0,0.3,0,0.5,0.1,0.8
			c0.1,0.3,0.1,0.5,0.3,0.7s0.3,0.3,0.5,0.5c0.2,0.1,0.5,0.2,0.8,0.2c0.3,0,0.5,0,0.7-0.1s0.4-0.2,0.5-0.3L281.5,181.8z"/>
	</g>
	<g class="st12">
		<path class="st13" d="M286.5,181.7c-0.2,0.2-0.5,0.3-0.8,0.4c-0.3,0.1-0.7,0.2-1.1,0.2c-0.4,0-0.8-0.1-1.1-0.2
			c-0.3-0.1-0.6-0.3-0.8-0.6s-0.3-0.6-0.4-0.9c-0.1-0.4-0.1-0.7-0.1-1.2c0-0.9,0.2-1.7,0.6-2.1s1-0.7,1.8-0.7c0.2,0,0.5,0,0.7,0.1
			c0.2,0.1,0.5,0.2,0.7,0.3c0.2,0.2,0.4,0.4,0.5,0.7s0.2,0.7,0.2,1.1c0,0.2,0,0.5-0.1,0.8h-3.5c0,0.3,0,0.6,0.1,0.9
			c0.1,0.2,0.2,0.5,0.3,0.6c0.1,0.2,0.3,0.3,0.5,0.4s0.5,0.1,0.8,0.1c0.2,0,0.5,0,0.7-0.1c0.2-0.1,0.4-0.2,0.6-0.3L286.5,181.7z
			 M284.6,177.3c-0.4,0-0.8,0.1-1,0.3c-0.3,0.2-0.4,0.6-0.5,1.2h2.7c0-0.6-0.1-0.9-0.3-1.2S285,177.3,284.6,177.3z"/>
		<path class="st13" d="M290.5,180.7c0-0.2-0.1-0.4-0.2-0.5c-0.1-0.1-0.3-0.2-0.5-0.3c-0.2-0.1-0.4-0.2-0.6-0.2
			c-0.2-0.1-0.4-0.2-0.6-0.3s-0.4-0.3-0.5-0.5s-0.2-0.4-0.2-0.8c0-0.5,0.2-0.9,0.5-1.2c0.3-0.2,0.7-0.4,1.3-0.4c0.4,0,0.7,0,1,0.1
			s0.5,0.2,0.7,0.2l-0.2,0.7c-0.2-0.1-0.4-0.2-0.6-0.2s-0.5-0.1-0.8-0.1c-0.3,0-0.6,0.1-0.7,0.2c-0.2,0.1-0.2,0.3-0.2,0.6
			c0,0.2,0.1,0.3,0.2,0.4s0.3,0.2,0.5,0.3s0.4,0.2,0.6,0.2c0.2,0.1,0.4,0.2,0.6,0.3s0.4,0.3,0.5,0.5c0.1,0.2,0.2,0.5,0.2,0.8
			c0,0.2,0,0.5-0.1,0.7c-0.1,0.2-0.2,0.4-0.4,0.5c-0.2,0.1-0.4,0.3-0.6,0.3c-0.2,0.1-0.5,0.1-0.8,0.1c-0.4,0-0.8,0-1.1-0.1
			c-0.3-0.1-0.5-0.2-0.7-0.3l0.3-0.7c0.2,0.1,0.4,0.2,0.7,0.3c0.3,0.1,0.5,0.1,0.8,0.1c0.3,0,0.6-0.1,0.8-0.2
			C290.4,181.2,290.5,181,290.5,180.7z"/>
		<path class="st13" d="M295.1,180.7c0-0.2-0.1-0.4-0.2-0.5c-0.1-0.1-0.3-0.2-0.5-0.3c-0.2-0.1-0.4-0.2-0.6-0.2
			c-0.2-0.1-0.4-0.2-0.6-0.3s-0.4-0.3-0.5-0.5s-0.2-0.4-0.2-0.8c0-0.5,0.2-0.9,0.5-1.2c0.3-0.2,0.7-0.4,1.3-0.4c0.4,0,0.7,0,1,0.1
			s0.5,0.2,0.7,0.2l-0.2,0.7c-0.2-0.1-0.4-0.2-0.6-0.2s-0.5-0.1-0.8-0.1c-0.3,0-0.6,0.1-0.7,0.2c-0.2,0.1-0.2,0.3-0.2,0.6
			c0,0.2,0.1,0.3,0.2,0.4s0.3,0.2,0.5,0.3s0.4,0.2,0.6,0.2c0.2,0.1,0.4,0.2,0.6,0.3s0.4,0.3,0.5,0.5c0.1,0.2,0.2,0.5,0.2,0.8
			c0,0.2,0,0.5-0.1,0.7c-0.1,0.2-0.2,0.4-0.4,0.5c-0.2,0.1-0.4,0.3-0.6,0.3c-0.2,0.1-0.5,0.1-0.8,0.1c-0.4,0-0.8,0-1.1-0.1
			c-0.3-0.1-0.5-0.2-0.7-0.3l0.3-0.7c0.2,0.1,0.4,0.2,0.7,0.3c0.3,0.1,0.5,0.1,0.8,0.1c0.3,0,0.6-0.1,0.8-0.2
			C295,181.2,295.1,181,295.1,180.7z"/>
		<path class="st13" d="M297.3,175c0-0.2,0.1-0.3,0.2-0.4c0.1-0.1,0.3-0.2,0.4-0.2s0.3,0.1,0.5,0.2s0.2,0.3,0.2,0.4
			s-0.1,0.3-0.2,0.4s-0.3,0.2-0.5,0.2s-0.3-0.1-0.4-0.2C297.4,175.3,297.3,175.2,297.3,175z M297.5,176.7h0.9v5.5h-0.9V176.7z"/>
		<path class="st13" d="M303.8,182.2V179c0-0.6-0.1-1-0.2-1.3c-0.2-0.3-0.5-0.4-0.9-0.4c-0.4,0-0.7,0.1-1,0.3s-0.4,0.5-0.5,0.8v3.8
			h-0.9v-5.5h0.6l0.2,0.7h0c0.2-0.2,0.4-0.4,0.7-0.6s0.7-0.2,1.1-0.2c0.3,0,0.6,0,0.8,0.1s0.4,0.2,0.6,0.4s0.3,0.4,0.3,0.7
			s0.1,0.7,0.1,1.1v3.3H303.8z"/>
		<path class="st13" d="M310.5,182.4c0,0.7-0.2,1.2-0.6,1.6c-0.4,0.3-0.9,0.5-1.7,0.5c-0.4,0-0.8,0-1.1-0.1
			c-0.3-0.1-0.5-0.1-0.7-0.2l0.2-0.7c0.2,0.1,0.4,0.1,0.6,0.2s0.5,0.1,0.8,0.1c0.3,0,0.6,0,0.8-0.1s0.3-0.1,0.5-0.3
			c0.1-0.1,0.2-0.3,0.2-0.5c0-0.2,0.1-0.4,0.1-0.7v-0.5h0c-0.1,0.2-0.3,0.4-0.6,0.5c-0.2,0.1-0.5,0.2-0.9,0.2
			c-0.7,0-1.3-0.2-1.6-0.7s-0.5-1.2-0.5-2.2c0-0.9,0.2-1.7,0.7-2.1c0.4-0.5,1.1-0.7,2-0.7c0.4,0,0.8,0,1.1,0.1s0.6,0.1,0.8,0.2
			V182.4z M308.3,181.5c0.4,0,0.7-0.1,0.9-0.3c0.2-0.2,0.4-0.5,0.5-0.9v-2.8c-0.3-0.1-0.7-0.2-1.1-0.2c-0.5,0-0.9,0.2-1.2,0.5
			c-0.3,0.3-0.4,0.9-0.4,1.6c0,0.3,0,0.6,0.1,0.8c0.1,0.3,0.1,0.5,0.2,0.7c0.1,0.2,0.3,0.3,0.4,0.4S308,181.5,308.3,181.5z"/>
	</g>
	<g class="st12">
		<path class="st14" d="M290.4,18.4v1l-0.9,0.2V24c0,0.6,0.2,1,0.5,1.3s0.7,0.4,1.2,0.4c0.5,0,1-0.1,1.3-0.4s0.5-0.7,0.5-1.3v-4.5
			l-0.9-0.2v-1h3.5v1l-0.9,0.2V24c0,1-0.3,1.7-0.9,2.2s-1.5,0.8-2.5,0.8c-1,0-1.8-0.3-2.5-0.8s-0.9-1.3-0.9-2.2v-4.5l-0.9-0.2v-1
			h0.9h1.7H290.4z"/>
		<path class="st14" d="M296,25.9l0.8-0.2v-3.9l-0.9-0.2v-1h2.5l0.1,0.9c0.2-0.3,0.5-0.6,0.8-0.8s0.7-0.3,1-0.3
			c0.6,0,1.1,0.2,1.5,0.6s0.5,1,0.5,1.9v2.8l0.8,0.2v1h-3.3v-1l0.7-0.2v-2.8c0-0.4-0.1-0.7-0.3-0.9s-0.4-0.3-0.8-0.3
			c-0.2,0-0.4,0-0.6,0.1s-0.3,0.2-0.5,0.4v3.4l0.7,0.2v1H296V25.9z"/>
		<path class="st14" d="M306.2,19v1.6h1.1v1.2h-1.1V25c0,0.2,0.1,0.4,0.2,0.5s0.2,0.2,0.4,0.2c0.1,0,0.2,0,0.3,0s0.2,0,0.3,0
			l0.1,1.2c-0.2,0.1-0.4,0.1-0.6,0.1s-0.4,0-0.6,0c-0.6,0-1-0.2-1.4-0.5s-0.5-0.8-0.5-1.5v-3.2h-0.9v-1.2h0.9V19H306.2z"/>
		<path class="st14" d="M308.3,25.9l0.8-0.2v-3.9l-0.9-0.2v-1h2.5l0.1,0.9c0.1-0.3,0.3-0.6,0.6-0.8s0.5-0.3,0.8-0.3
			c0.1,0,0.2,0,0.3,0s0.2,0,0.2,0l-0.2,1.6l-0.7,0c-0.3,0-0.5,0-0.6,0.1s-0.3,0.2-0.4,0.4v3.1l0.8,0.2v1h-3.4V25.9z"/>
		<path class="st14" d="M317.6,26.1c-0.2,0.3-0.5,0.5-0.8,0.7s-0.6,0.2-1,0.2c-0.7,0-1.2-0.2-1.6-0.6s-0.6-1.1-0.6-2v-2.6l-0.7-0.2
			v-1h0.7h1.7v3.8c0,0.5,0.1,0.8,0.2,1s0.4,0.3,0.7,0.3c0.3,0,0.5,0,0.7-0.1s0.4-0.2,0.5-0.4v-3.4l-0.8-0.2v-1h0.8h1.7v5.1l0.8,0.2
			v1h-2.3L317.6,26.1z"/>
		<path class="st14" d="M325.9,22.7h-1.1l-0.2-0.8c-0.1-0.1-0.3-0.2-0.4-0.2s-0.4-0.1-0.6-0.1c-0.3,0-0.5,0.1-0.7,0.2
			s-0.3,0.3-0.3,0.5c0,0.2,0.1,0.4,0.3,0.5s0.5,0.2,1,0.3c0.8,0.2,1.4,0.4,1.7,0.7s0.6,0.7,0.6,1.3c0,0.6-0.2,1-0.7,1.4
			s-1.1,0.5-1.9,0.5c-0.5,0-0.9-0.1-1.3-0.2s-0.8-0.3-1.1-0.6l0-1.4h1.2l0.2,0.8c0.1,0.1,0.2,0.1,0.4,0.2s0.4,0.1,0.6,0.1
			c0.3,0,0.6-0.1,0.8-0.2s0.3-0.3,0.3-0.5c0-0.2-0.1-0.3-0.3-0.5s-0.5-0.3-1-0.4c-0.7-0.2-1.3-0.4-1.7-0.7s-0.6-0.7-0.6-1.2
			c0-0.5,0.2-1,0.7-1.4s1.1-0.6,1.9-0.6c0.5,0,1,0.1,1.4,0.2s0.8,0.3,1,0.5L325.9,22.7z"/>
		<path class="st14" d="M329.4,19v1.6h1.1v1.2h-1.1V25c0,0.2,0.1,0.4,0.2,0.5s0.2,0.2,0.4,0.2c0.1,0,0.2,0,0.3,0s0.2,0,0.3,0
			l0.1,1.2c-0.2,0.1-0.4,0.1-0.6,0.1s-0.4,0-0.6,0c-0.6,0-1-0.2-1.4-0.5s-0.5-0.8-0.5-1.5v-3.2h-0.9v-1.2h0.9V19H329.4z"/>
		<path class="st14" d="M334.4,27c-0.9,0-1.6-0.3-2.2-0.9s-0.8-1.3-0.8-2.2v-0.2c0-0.9,0.3-1.7,0.8-2.3s1.2-0.9,2.1-0.9
			c0.9,0,1.5,0.3,2,0.8s0.7,1.2,0.7,2.1v0.9h-3.8l0,0c0,0.4,0.2,0.8,0.4,1s0.6,0.4,1,0.4c0.4,0,0.7,0,0.9-0.1s0.5-0.2,0.8-0.4
			l0.5,1.1c-0.3,0.2-0.6,0.4-1,0.5S334.9,27,334.4,27z M334.2,21.8c-0.3,0-0.6,0.1-0.8,0.4s-0.3,0.6-0.3,1l0,0h2.1V23
			c0-0.4-0.1-0.7-0.3-0.9S334.6,21.8,334.2,21.8z"/>
		<path class="st14" d="M341.9,26.1c-0.2,0.3-0.4,0.5-0.7,0.7s-0.6,0.2-0.9,0.2c-0.8,0-1.4-0.3-1.8-0.9s-0.6-1.3-0.6-2.3v-0.1
			c0-1,0.2-1.8,0.7-2.4s1-0.9,1.8-0.9c0.3,0,0.6,0.1,0.9,0.2s0.5,0.3,0.7,0.6V19l-0.9-0.2v-1h0.9h1.7v7.9l0.8,0.2v1H342L341.9,26.1z
			 M339.5,23.9c0,0.6,0.1,1,0.3,1.3s0.5,0.5,0.9,0.5c0.3,0,0.5-0.1,0.7-0.2s0.3-0.2,0.5-0.4v-2.7c-0.1-0.2-0.3-0.4-0.4-0.5
			s-0.4-0.2-0.6-0.2c-0.4,0-0.7,0.2-0.9,0.6s-0.3,0.9-0.3,1.5V23.9z"/>
	</g>
	<g class="st12">
		<path class="st14" d="M240.9,40.3l0.8-0.2v-3.9l-0.9-0.2v-1h2.5l0.1,0.9c0.1-0.3,0.3-0.6,0.6-0.8s0.5-0.3,0.8-0.3
			c0.1,0,0.2,0,0.3,0s0.2,0,0.2,0l-0.2,1.6l-0.7,0c-0.3,0-0.5,0-0.6,0.1s-0.3,0.2-0.4,0.4v3.1l0.8,0.2v1h-3.4V40.3z"/>
	</g>
	<g class="st12">
		<path class="st14" d="M248.8,41.4c-0.9,0-1.6-0.3-2.2-0.9s-0.8-1.3-0.8-2.2v-0.2c0-0.9,0.3-1.7,0.8-2.3s1.2-0.9,2.1-0.9
			c0.9,0,1.5,0.3,2,0.8s0.7,1.2,0.7,2.1v0.9h-3.8l0,0c0,0.4,0.2,0.8,0.4,1s0.6,0.4,1,0.4c0.4,0,0.7,0,0.9-0.1s0.5-0.2,0.8-0.4
			l0.5,1.1c-0.3,0.2-0.6,0.4-1,0.5S249.3,41.4,248.8,41.4z M248.6,36.2c-0.3,0-0.6,0.1-0.8,0.4s-0.3,0.6-0.3,1l0,0h2.1v-0.2
			c0-0.4-0.1-0.7-0.3-0.9S249,36.2,248.6,36.2z"/>
	</g>
	<g class="st12">
		<path class="st14" d="M251.9,36v-1h2.5l0.1,0.8c0.2-0.3,0.5-0.5,0.8-0.7s0.7-0.2,1.1-0.2c0.4,0,0.8,0.1,1,0.3s0.5,0.5,0.7,0.8
			c0.2-0.3,0.4-0.6,0.8-0.8s0.7-0.3,1.1-0.3c0.6,0,1.1,0.2,1.5,0.6s0.5,1.1,0.5,2v2.6l0.8,0.2v1h-3.3v-1l0.7-0.2v-2.6
			c0-0.5-0.1-0.8-0.2-1s-0.4-0.3-0.7-0.3c-0.2,0-0.5,0.1-0.6,0.2s-0.3,0.3-0.4,0.4c0,0.1,0,0.1,0,0.2s0,0.1,0,0.2v3l0.7,0.2v1h-3.1
			v-1l0.7-0.2v-2.6c0-0.5-0.1-0.8-0.2-1s-0.4-0.3-0.7-0.3c-0.2,0-0.4,0-0.6,0.1s-0.3,0.2-0.4,0.4v3.4l0.7,0.2v1H252v-1l0.8-0.2v-3.9
			L251.9,36z"/>
	</g>
	<g class="st12">
		<path class="st14" d="M263.2,38.1c0-0.9,0.3-1.7,0.8-2.3s1.3-0.9,2.2-0.9c0.9,0,1.7,0.3,2.2,0.9s0.8,1.4,0.8,2.3v0.1
			c0,1-0.3,1.7-0.8,2.3s-1.3,0.9-2.2,0.9c-0.9,0-1.7-0.3-2.2-0.9s-0.8-1.4-0.8-2.3V38.1z M265,38.2c0,0.6,0.1,1,0.3,1.4
			s0.5,0.5,1,0.5c0.4,0,0.8-0.2,1-0.5s0.3-0.8,0.3-1.4v-0.1c0-0.6-0.1-1-0.3-1.4s-0.5-0.5-1-0.5s-0.8,0.2-1,0.5s-0.3,0.8-0.3,1.4
			V38.2z"/>
		<path class="st14" d="M272.5,33.4V35h1.1v1.2h-1.1v3.2c0,0.2,0.1,0.4,0.2,0.5s0.2,0.2,0.4,0.2c0.1,0,0.2,0,0.3,0s0.2,0,0.3,0
			l0.1,1.2c-0.2,0.1-0.4,0.1-0.6,0.1s-0.4,0-0.6,0c-0.6,0-1-0.2-1.4-0.5s-0.5-0.8-0.5-1.5v-3.2h-0.9V35h0.9v-1.6H272.5z"/>
		<path class="st14" d="M277.5,41.4c-0.9,0-1.6-0.3-2.2-0.9s-0.8-1.3-0.8-2.2v-0.2c0-0.9,0.3-1.7,0.8-2.3s1.2-0.9,2.1-0.9
			c0.9,0,1.5,0.3,2,0.8s0.7,1.2,0.7,2.1v0.9h-3.8l0,0c0,0.4,0.2,0.8,0.4,1s0.6,0.4,1,0.4c0.4,0,0.7,0,0.9-0.1s0.5-0.2,0.8-0.4
			l0.5,1.1c-0.3,0.2-0.6,0.4-1,0.5S278,41.4,277.5,41.4z M277.3,36.2c-0.3,0-0.6,0.1-0.8,0.4s-0.3,0.6-0.3,1l0,0h2.1v-0.2
			c0-0.4-0.1-0.7-0.3-0.9S277.7,36.2,277.3,36.2z"/>
		<path class="st14" d="M286.8,40.1c0.3,0,0.5-0.1,0.7-0.3s0.3-0.4,0.3-0.7h1.5l0,0c0,0.6-0.2,1.2-0.7,1.6s-1.1,0.6-1.9,0.6
			c-0.9,0-1.7-0.3-2.2-0.9s-0.8-1.4-0.8-2.3V38c0-0.9,0.3-1.7,0.8-2.3s1.3-0.9,2.2-0.9c0.5,0,1,0.1,1.4,0.2s0.7,0.4,1,0.6l0,1.7
			h-1.4l-0.3-1c-0.1-0.1-0.2-0.1-0.3-0.2s-0.3-0.1-0.4-0.1c-0.5,0-0.8,0.2-1,0.5s-0.3,0.8-0.3,1.4v0.2c0,0.6,0.1,1,0.3,1.4
			S286.3,40.1,286.8,40.1z"/>
		<path class="st14" d="M290.1,38.1c0-0.9,0.3-1.7,0.8-2.3s1.3-0.9,2.2-0.9c0.9,0,1.7,0.3,2.2,0.9s0.8,1.4,0.8,2.3v0.1
			c0,1-0.3,1.7-0.8,2.3s-1.3,0.9-2.2,0.9c-0.9,0-1.7-0.3-2.2-0.9s-0.8-1.4-0.8-2.3V38.1z M291.8,38.2c0,0.6,0.1,1,0.3,1.4
			s0.5,0.5,1,0.5c0.4,0,0.8-0.2,1-0.5s0.3-0.8,0.3-1.4v-0.1c0-0.6-0.1-1-0.3-1.4s-0.5-0.5-1-0.5s-0.8,0.2-1,0.5s-0.3,0.8-0.3,1.4
			V38.2z"/>
		<path class="st14" d="M296.6,36v-1h2.5l0.1,0.8c0.2-0.3,0.5-0.5,0.8-0.7s0.7-0.2,1.1-0.2c0.4,0,0.8,0.1,1,0.3s0.5,0.5,0.7,0.8
			c0.2-0.3,0.4-0.6,0.8-0.8s0.7-0.3,1.1-0.3c0.6,0,1.1,0.2,1.5,0.6s0.5,1.1,0.5,2v2.6l0.8,0.2v1h-3.3v-1l0.7-0.2v-2.6
			c0-0.5-0.1-0.8-0.2-1s-0.4-0.3-0.7-0.3c-0.2,0-0.5,0.1-0.6,0.2s-0.3,0.3-0.4,0.4c0,0.1,0,0.1,0,0.2s0,0.1,0,0.2v3l0.7,0.2v1h-3.1
			v-1l0.7-0.2v-2.6c0-0.5-0.1-0.8-0.2-1s-0.4-0.3-0.7-0.3c-0.2,0-0.4,0-0.6,0.1s-0.3,0.2-0.4,0.4v3.4l0.7,0.2v1h-3.3v-1l0.8-0.2
			v-3.9L296.6,36z"/>
		<path class="st14" d="M307.9,36v-1h2.5l0.1,0.7c0.2-0.3,0.4-0.5,0.7-0.6s0.6-0.2,0.9-0.2c0.8,0,1.4,0.3,1.8,0.9s0.7,1.4,0.7,2.4
			v0.1c0,0.9-0.2,1.7-0.7,2.3s-1,0.9-1.8,0.9c-0.3,0-0.6-0.1-0.9-0.2s-0.5-0.3-0.7-0.5v1.8l0.8,0.2v1h-3.4v-1l0.8-0.2v-6.4L307.9,36
			z M312.8,38.2c0-0.6-0.1-1.1-0.3-1.5s-0.5-0.6-0.9-0.6c-0.3,0-0.5,0.1-0.7,0.2s-0.3,0.3-0.4,0.5v2.8c0.1,0.2,0.2,0.3,0.4,0.4
			s0.4,0.1,0.7,0.1c0.4,0,0.7-0.2,0.9-0.5s0.3-0.8,0.3-1.3V38.2z"/>
		<path class="st14" d="M319.7,40.5c-0.2,0.3-0.5,0.5-0.8,0.7s-0.6,0.2-1,0.2c-0.7,0-1.2-0.2-1.6-0.6s-0.6-1.1-0.6-2v-2.6l-0.7-0.2
			v-1h0.7h1.7v3.8c0,0.5,0.1,0.8,0.2,1s0.4,0.3,0.7,0.3c0.3,0,0.5,0,0.7-0.1s0.4-0.2,0.5-0.4v-3.4l-0.8-0.2v-1h0.8h1.7v5.1l0.8,0.2
			v1h-2.3L319.7,40.5z"/>
		<path class="st14" d="M325.3,33.4V35h1.1v1.2h-1.1v3.2c0,0.2,0.1,0.4,0.2,0.5s0.2,0.2,0.4,0.2c0.1,0,0.2,0,0.3,0s0.2,0,0.3,0
			l0.1,1.2c-0.2,0.1-0.4,0.1-0.6,0.1s-0.4,0-0.6,0c-0.6,0-1-0.2-1.4-0.5s-0.5-0.8-0.5-1.5v-3.2h-0.9V35h0.9v-1.6H325.3z"/>
		<path class="st14" d="M330.3,41.4c-0.9,0-1.6-0.3-2.2-0.9s-0.8-1.3-0.8-2.2v-0.2c0-0.9,0.3-1.7,0.8-2.3s1.2-0.9,2.1-0.9
			c0.9,0,1.5,0.3,2,0.8s0.7,1.2,0.7,2.1v0.9H329l0,0c0,0.4,0.2,0.8,0.4,1s0.6,0.4,1,0.4c0.4,0,0.7,0,0.9-0.1s0.5-0.2,0.8-0.4
			l0.5,1.1c-0.3,0.2-0.6,0.4-1,0.5S330.8,41.4,330.3,41.4z M330.1,36.2c-0.3,0-0.6,0.1-0.8,0.4s-0.3,0.6-0.3,1l0,0h2.1v-0.2
			c0-0.4-0.1-0.7-0.3-0.9S330.4,36.2,330.1,36.2z"/>
		<path class="st14" d="M333.7,40.3l0.8-0.2v-3.9l-0.9-0.2v-1h2.5l0.1,0.9c0.1-0.3,0.3-0.6,0.6-0.8s0.5-0.3,0.8-0.3
			c0.1,0,0.2,0,0.3,0s0.2,0,0.2,0l-0.2,1.6l-0.7,0c-0.3,0-0.5,0-0.6,0.1s-0.3,0.2-0.4,0.4v3.1l0.8,0.2v1h-3.4V40.3z"/>
		<path class="st14" d="M343.8,37.1h-1.1l-0.2-0.8c-0.1-0.1-0.3-0.2-0.4-0.2s-0.4-0.1-0.6-0.1c-0.3,0-0.5,0.1-0.7,0.2
			s-0.3,0.3-0.3,0.5c0,0.2,0.1,0.4,0.3,0.5s0.5,0.2,1,0.3c0.8,0.2,1.4,0.4,1.7,0.7s0.6,0.7,0.6,1.3c0,0.6-0.2,1-0.7,1.4
			s-1.1,0.5-1.9,0.5c-0.5,0-0.9-0.1-1.3-0.2s-0.8-0.3-1.1-0.6l0-1.4h1.2l0.2,0.8c0.1,0.1,0.2,0.1,0.4,0.2s0.4,0.1,0.6,0.1
			c0.3,0,0.6-0.1,0.8-0.2s0.3-0.3,0.3-0.5c0-0.2-0.1-0.3-0.3-0.5s-0.5-0.3-1-0.4c-0.7-0.2-1.3-0.4-1.7-0.7s-0.6-0.7-0.6-1.2
			c0-0.5,0.2-1,0.7-1.4s1.1-0.6,1.9-0.6c0.5,0,1,0.1,1.4,0.2s0.8,0.3,1,0.5L343.8,37.1z"/>
	</g>
	<g class="st12">
		<path class="st14" d="M33.2,17.9v1l-0.9,0.2v4.5c0,0.6,0.2,1,0.5,1.3s0.7,0.4,1.2,0.4c0.5,0,1-0.1,1.3-0.4s0.5-0.7,0.5-1.3v-4.5
			l-0.9-0.2v-1h3.5v1l-0.9,0.2v4.5c0,1-0.3,1.7-0.9,2.2S35,26.5,34,26.5c-1,0-1.8-0.3-2.5-0.8s-0.9-1.3-0.9-2.2v-4.5l-0.9-0.2v-1
			h0.9h1.7H33.2z"/>
		<path class="st14" d="M38.8,25.4l0.8-0.2v-3.9l-0.9-0.2v-1h2.5l0.1,0.9c0.2-0.3,0.5-0.6,0.8-0.8s0.7-0.3,1-0.3
			c0.6,0,1.1,0.2,1.5,0.6s0.5,1,0.5,1.9v2.8l0.8,0.2v1h-3.3v-1l0.7-0.2v-2.8c0-0.4-0.1-0.7-0.3-0.9s-0.4-0.3-0.8-0.3
			c-0.2,0-0.4,0-0.6,0.1s-0.3,0.2-0.5,0.4v3.4l0.7,0.2v1h-3.2V25.4z"/>
		<path class="st14" d="M49,18.5v1.6h1.1v1.2H49v3.2c0,0.2,0.1,0.4,0.2,0.5s0.2,0.2,0.4,0.2c0.1,0,0.2,0,0.3,0s0.2,0,0.3,0l0.1,1.2
			c-0.2,0.1-0.4,0.1-0.6,0.1s-0.4,0-0.6,0c-0.6,0-1-0.2-1.4-0.5s-0.5-0.8-0.5-1.5v-3.2h-0.9v-1.2h0.9v-1.6H49z"/>
		<path class="st14" d="M51.1,25.4l0.8-0.2v-3.9L51,21.1v-1h2.5l0.1,0.9c0.1-0.3,0.3-0.6,0.6-0.8s0.5-0.3,0.8-0.3c0.1,0,0.2,0,0.3,0
			s0.2,0,0.2,0l-0.2,1.6l-0.7,0c-0.3,0-0.5,0-0.6,0.1s-0.3,0.2-0.4,0.4v3.1l0.8,0.2v1h-3.4V25.4z"/>
		<path class="st14" d="M60.4,25.6c-0.2,0.3-0.5,0.5-0.8,0.7s-0.6,0.2-1,0.2c-0.7,0-1.2-0.2-1.6-0.6s-0.6-1.1-0.6-2v-2.6l-0.7-0.2
			v-1h0.7h1.7v3.8c0,0.5,0.1,0.8,0.2,1s0.4,0.3,0.7,0.3c0.3,0,0.5,0,0.7-0.1s0.4-0.2,0.5-0.4v-3.4l-0.8-0.2v-1h0.8H62v5.1l0.8,0.2v1
			h-2.3L60.4,25.6z"/>
		<path class="st14" d="M68.7,22.3h-1.1l-0.2-0.8c-0.1-0.1-0.3-0.2-0.4-0.2s-0.4-0.1-0.6-0.1c-0.3,0-0.5,0.1-0.7,0.2
			s-0.3,0.3-0.3,0.5c0,0.2,0.1,0.4,0.3,0.5s0.5,0.2,1,0.3c0.8,0.2,1.4,0.4,1.7,0.7s0.6,0.7,0.6,1.3c0,0.6-0.2,1-0.7,1.4
			s-1.1,0.5-1.9,0.5c-0.5,0-0.9-0.1-1.3-0.2s-0.8-0.3-1.1-0.6l0-1.4H65l0.2,0.8c0.1,0.1,0.2,0.1,0.4,0.2s0.4,0.1,0.6,0.1
			c0.3,0,0.6-0.1,0.8-0.2s0.3-0.3,0.3-0.5c0-0.2-0.1-0.3-0.3-0.5s-0.5-0.3-1-0.4c-0.7-0.2-1.3-0.4-1.7-0.7s-0.6-0.7-0.6-1.2
			c0-0.5,0.2-1,0.7-1.4s1.1-0.6,1.9-0.6c0.5,0,1,0.1,1.4,0.2s0.8,0.3,1,0.5L68.7,22.3z"/>
		<path class="st14" d="M72.2,18.5v1.6h1.1v1.2h-1.1v3.2c0,0.2,0.1,0.4,0.2,0.5s0.2,0.2,0.4,0.2c0.1,0,0.2,0,0.3,0s0.2,0,0.3,0
			l0.1,1.2c-0.2,0.1-0.4,0.1-0.6,0.1s-0.4,0-0.6,0c-0.6,0-1-0.2-1.4-0.5s-0.5-0.8-0.5-1.5v-3.2h-0.9v-1.2h0.9v-1.6H72.2z"/>
		<path class="st14" d="M77.2,26.5c-0.9,0-1.6-0.3-2.2-0.9s-0.8-1.3-0.8-2.2v-0.2c0-0.9,0.3-1.7,0.8-2.3S76.1,20,77,20
			c0.9,0,1.5,0.3,2,0.8s0.7,1.2,0.7,2.1v0.9h-3.8l0,0c0,0.4,0.2,0.8,0.4,1s0.6,0.4,1,0.4c0.4,0,0.7,0,0.9-0.1s0.5-0.2,0.8-0.4
			l0.5,1.1c-0.3,0.2-0.6,0.4-1,0.5S77.7,26.5,77.2,26.5z M77,21.3c-0.3,0-0.6,0.1-0.8,0.4s-0.3,0.6-0.3,1l0,0H78v-0.2
			c0-0.4-0.1-0.7-0.3-0.9S77.4,21.3,77,21.3z"/>
		<path class="st14" d="M84.6,25.6c-0.2,0.3-0.4,0.5-0.7,0.7s-0.6,0.2-0.9,0.2c-0.8,0-1.4-0.3-1.8-0.9s-0.6-1.3-0.6-2.3v-0.1
			c0-1,0.2-1.8,0.7-2.4s1-0.9,1.8-0.9c0.3,0,0.6,0.1,0.9,0.2s0.5,0.3,0.7,0.6v-2.3l-0.9-0.2v-1h0.9h1.7v7.9l0.8,0.2v1h-2.3
			L84.6,25.6z M82.3,23.4c0,0.6,0.1,1,0.3,1.3s0.5,0.5,0.9,0.5c0.3,0,0.5-0.1,0.7-0.2s0.3-0.2,0.5-0.4v-2.7
			c-0.1-0.2-0.3-0.4-0.4-0.5s-0.4-0.2-0.6-0.2c-0.4,0-0.7,0.2-0.9,0.6s-0.3,0.9-0.3,1.5V23.4z"/>
	</g>
	<g class="st12">
		<path class="st14" d="M32.8,39.6c0.3,0,0.5-0.1,0.7-0.3s0.3-0.4,0.3-0.7h1.5l0,0c0,0.6-0.2,1.2-0.7,1.6s-1.1,0.6-1.9,0.6
			c-0.9,0-1.7-0.3-2.2-0.9s-0.8-1.4-0.8-2.3v-0.2c0-0.9,0.3-1.7,0.8-2.3s1.3-0.9,2.2-0.9c0.5,0,1,0.1,1.4,0.2s0.7,0.4,1,0.6l0,1.7
			h-1.4l-0.3-1c-0.1-0.1-0.2-0.1-0.3-0.2s-0.3-0.1-0.4-0.1c-0.5,0-0.8,0.2-1,0.5s-0.3,0.8-0.3,1.4v0.2c0,0.6,0.1,1,0.3,1.4
			S32.3,39.6,32.8,39.6z"/>
		<path class="st14" d="M35.9,32.7v-1h2.6v7.9l0.8,0.2v1H36v-1l0.8-0.2v-6.7L35.9,32.7z"/>
		<path class="st14" d="M39.9,39.8l0.8-0.2v-3.9l-0.9-0.2v-1h2.6v5.1l0.8,0.2v1h-3.4V39.8z M42.4,33h-1.7v-1.3h1.7V33z"/>
		<path class="st14" d="M46.8,40.9c-0.9,0-1.6-0.3-2.2-0.9s-0.8-1.3-0.8-2.2v-0.2c0-0.9,0.3-1.7,0.8-2.3s1.2-0.9,2.1-0.9
			c0.9,0,1.5,0.3,2,0.8s0.7,1.2,0.7,2.1v0.9h-3.8l0,0c0,0.4,0.2,0.8,0.4,1s0.6,0.4,1,0.4c0.4,0,0.7,0,0.9-0.1s0.5-0.2,0.8-0.4
			l0.5,1.1c-0.3,0.2-0.6,0.4-1,0.5S47.3,40.9,46.8,40.9z M46.7,35.7c-0.3,0-0.6,0.1-0.8,0.4s-0.3,0.6-0.3,1l0,0h2.1v-0.2
			c0-0.4-0.1-0.7-0.3-0.9S47,35.7,46.7,35.7z"/>
		<path class="st14" d="M50.1,39.8l0.8-0.2v-3.9L50,35.5v-1h2.5l0.1,0.9c0.2-0.3,0.5-0.6,0.8-0.8s0.7-0.3,1-0.3
			c0.6,0,1.1,0.2,1.5,0.6s0.5,1,0.5,1.9v2.8l0.8,0.2v1H54v-1l0.7-0.2v-2.8c0-0.4-0.1-0.7-0.3-0.9s-0.4-0.3-0.8-0.3
			c-0.2,0-0.4,0-0.6,0.1s-0.3,0.2-0.5,0.4v3.4l0.7,0.2v1h-3.2V39.8z"/>
		<path class="st14" d="M60.3,32.9v1.6h1.1v1.2h-1.1v3.2c0,0.2,0.1,0.4,0.2,0.5s0.2,0.2,0.4,0.2c0.1,0,0.2,0,0.3,0s0.2,0,0.3,0
			l0.1,1.2c-0.2,0.1-0.4,0.1-0.6,0.1s-0.4,0-0.6,0c-0.6,0-1-0.2-1.4-0.5s-0.5-0.8-0.5-1.5v-3.2h-0.9v-1.2h0.9v-1.6H60.3z"/>
		<path class="st14" d="M68.2,39.6c0.3,0,0.5-0.1,0.7-0.3s0.3-0.4,0.3-0.7h1.5l0,0c0,0.6-0.2,1.2-0.7,1.6s-1.1,0.6-1.9,0.6
			c-0.9,0-1.7-0.3-2.2-0.9s-0.8-1.4-0.8-2.3v-0.2c0-0.9,0.3-1.7,0.8-2.3s1.3-0.9,2.2-0.9c0.5,0,1,0.1,1.4,0.2s0.7,0.4,1,0.6l0,1.7
			h-1.4l-0.3-1c-0.1-0.1-0.2-0.1-0.3-0.2s-0.3-0.1-0.4-0.1c-0.5,0-0.8,0.2-1,0.5S67,37,67,37.6v0.2c0,0.6,0.1,1,0.3,1.4
			S67.7,39.6,68.2,39.6z"/>
		<path class="st14" d="M71.5,37.6c0-0.9,0.3-1.7,0.8-2.3s1.3-0.9,2.2-0.9c0.9,0,1.7,0.3,2.2,0.9s0.8,1.4,0.8,2.3v0.1
			c0,1-0.3,1.7-0.8,2.3s-1.3,0.9-2.2,0.9c-0.9,0-1.7-0.3-2.2-0.9s-0.8-1.4-0.8-2.3V37.6z M73.3,37.7c0,0.6,0.1,1,0.3,1.4
			s0.5,0.5,1,0.5c0.4,0,0.8-0.2,1-0.5s0.3-0.8,0.3-1.4v-0.1c0-0.6-0.1-1-0.3-1.4s-0.5-0.5-1-0.5s-0.8,0.2-1,0.5s-0.3,0.8-0.3,1.4
			V37.7z"/>
		<path class="st14" d="M78.1,35.5v-1h2.5l0.1,0.8c0.2-0.3,0.5-0.5,0.8-0.7s0.7-0.2,1.1-0.2c0.4,0,0.8,0.1,1,0.3s0.5,0.5,0.7,0.8
			c0.2-0.3,0.4-0.6,0.8-0.8s0.7-0.3,1.1-0.3c0.6,0,1.1,0.2,1.5,0.6s0.5,1.1,0.5,2v2.6l0.8,0.2v1h-3.3v-1l0.7-0.2V37
			c0-0.5-0.1-0.8-0.2-1s-0.4-0.3-0.7-0.3c-0.2,0-0.5,0.1-0.6,0.2s-0.3,0.3-0.4,0.4c0,0.1,0,0.1,0,0.2s0,0.1,0,0.2v3l0.7,0.2v1H82v-1
			l0.7-0.2V37c0-0.5-0.1-0.8-0.2-1s-0.4-0.3-0.7-0.3c-0.2,0-0.4,0-0.6,0.1s-0.3,0.2-0.4,0.4v3.4l0.7,0.2v1h-3.3v-1l0.8-0.2v-3.9
			L78.1,35.5z"/>
		<path class="st14" d="M89.3,35.5v-1h2.5l0.1,0.7c0.2-0.3,0.4-0.5,0.7-0.6s0.6-0.2,0.9-0.2c0.8,0,1.4,0.3,1.8,0.9s0.7,1.4,0.7,2.4
			v0.1c0,0.9-0.2,1.7-0.7,2.3s-1,0.9-1.8,0.9c-0.3,0-0.6-0.1-0.9-0.2s-0.5-0.3-0.7-0.5v1.8l0.8,0.2v1h-3.4v-1l0.8-0.2v-6.4
			L89.3,35.5z M94.2,37.7c0-0.6-0.1-1.1-0.3-1.5s-0.5-0.6-0.9-0.6c-0.3,0-0.5,0.1-0.7,0.2s-0.3,0.3-0.4,0.5v2.8
			c0.1,0.2,0.2,0.3,0.4,0.4s0.4,0.1,0.7,0.1c0.4,0,0.7-0.2,0.9-0.5s0.3-0.8,0.3-1.3V37.7z"/>
		<path class="st14" d="M101.1,40c-0.2,0.3-0.5,0.5-0.8,0.7s-0.6,0.2-1,0.2c-0.7,0-1.2-0.2-1.6-0.6s-0.6-1.1-0.6-2v-2.6l-0.7-0.2v-1
			h0.7h1.7v3.8c0,0.5,0.1,0.8,0.2,1s0.4,0.3,0.7,0.3c0.3,0,0.5,0,0.7-0.1s0.4-0.2,0.5-0.4v-3.4l-0.8-0.2v-1h0.8h1.7v5.1l0.8,0.2v1
			h-2.3L101.1,40z"/>
		<path class="st14" d="M106.7,32.9v1.6h1.1v1.2h-1.1v3.2c0,0.2,0.1,0.4,0.2,0.5s0.2,0.2,0.4,0.2c0.1,0,0.2,0,0.3,0s0.2,0,0.3,0
			l0.1,1.2c-0.2,0.1-0.4,0.1-0.6,0.1s-0.4,0-0.6,0c-0.6,0-1-0.2-1.4-0.5s-0.5-0.8-0.5-1.5v-3.2h-0.9v-1.2h0.9v-1.6H106.7z"/>
		<path class="st14" d="M111.7,40.9c-0.9,0-1.6-0.3-2.2-0.9s-0.8-1.3-0.8-2.2v-0.2c0-0.9,0.3-1.7,0.8-2.3s1.2-0.9,2.1-0.9
			c0.9,0,1.5,0.3,2,0.8s0.7,1.2,0.7,2.1v0.9h-3.8l0,0c0,0.4,0.2,0.8,0.4,1s0.6,0.4,1,0.4c0.4,0,0.7,0,0.9-0.1s0.5-0.2,0.8-0.4
			l0.5,1.1c-0.3,0.2-0.6,0.4-1,0.5S112.2,40.9,111.7,40.9z M111.5,35.7c-0.3,0-0.6,0.1-0.8,0.4s-0.3,0.6-0.3,1l0,0h2.1v-0.2
			c0-0.4-0.1-0.7-0.3-0.9S111.9,35.7,111.5,35.7z"/>
		<path class="st14" d="M115.2,39.8l0.8-0.2v-3.9l-0.9-0.2v-1h2.5l0.1,0.9c0.1-0.3,0.3-0.6,0.6-0.8s0.5-0.3,0.8-0.3
			c0.1,0,0.2,0,0.3,0s0.2,0,0.2,0l-0.2,1.6l-0.7,0c-0.3,0-0.5,0-0.6,0.1s-0.3,0.2-0.4,0.4v3.1l0.8,0.2v1h-3.4V39.8z"/>
	</g>
	<line class="st6" x1="128.3" y1="91.1" x2="129.3" y2="91.1"/>
	<line class="st15" x1="131.3" y1="91.1" x2="138" y2="91.1"/>
	<polyline class="st6" points="138.9,91.1 139.9,91.1 139.9,92.1 	"/>
	<line class="st16" x1="139.9" y1="94.3" x2="139.9" y2="114.8"/>
	<polyline class="st6" points="139.9,115.9 139.9,116.9 138.9,116.9 	"/>
	<line class="st15" x1="137" y1="116.9" x2="130.3" y2="116.9"/>
	<line class="st6" x1="129.3" y1="116.9" x2="128.3" y2="116.9"/>
	<rect x="82.5" y="164.5" class="st17" width="30" height="20"/>
	<polygon class="st13" points="85.9,181.2 91.5,176.2 94.7,178.7 101.1,172.5 109.4,181.2 	"/>
	<circle class="st13" cx="88.9" cy="169.9" r="1.9"/>
</g>
</svg>
