<?xml version="1.0" encoding="utf-8"?>
<!-- Generator: Adobe Illustrator 24.0.0, SVG Export Plug-In . SVG Version: 6.00 Build 0)  -->
<svg version="1.1" id="Ebene_1" xmlns="http://www.w3.org/2000/svg" xmlns:xlink="http://www.w3.org/1999/xlink" x="0px" y="0px"
	 viewBox="0 0 435.1 253" style="enable-background:new 0 0 435.1 253;" xml:space="preserve">
<style type="text/css">
	.st0{fill:#990066;stroke:#FFCC00;stroke-width:2;stroke-miterlimit:10;}
	.st1{fill:#330066;stroke:#FFCC00;stroke-width:2;stroke-miterlimit:10;}
	.st2{opacity:0.7;}
	.st3{fill:url(#SVGID_1_);}
	.st4{fill:url(#SVGID_2_);stroke:#FFCC00;stroke-width:2;stroke-miterlimit:10;}
	.st5{fill:url(#SVGID_3_);}
	.st6{fill:none;stroke:#FFCC00;stroke-width:2;stroke-miterlimit:10;}
	.st7{enable-background:new    ;}
	.st8{fill:#FFCC00;}
	.st9{fill:#FFFFFF;stroke:#FFCC00;stroke-width:2;stroke-linecap:round;stroke-linejoin:round;}
	.st10{fill:none;stroke:#FFCC00;stroke-width:2;stroke-linecap:round;stroke-linejoin:round;}
	.st11{clip-path:url(#SVGID_5_);}
	.st12{clip-path:url(#SVGID_7_);}
	.st13{fill:#FFD138;}
	.st14{fill:#FDFEFF;}
	.st15{clip-path:url(#SVGID_9_);}
	.st16{clip-path:url(#SVGID_11_);}
	.st17{fill:url(#SVGID_12_);stroke:#FFCC00;stroke-width:2;stroke-miterlimit:10;}
	.st18{fill:url(#SVGID_13_);}
	.st19{clip-path:url(#SVGID_15_);}
	.st20{clip-path:url(#SVGID_17_);}
	.st21{clip-path:url(#SVGID_19_);}
	.st22{clip-path:url(#SVGID_21_);}
	.st23{fill:none;stroke:#FFCC00;stroke-width:2;stroke-miterlimit:10;stroke-dasharray:2,2;}
	.st24{fill:#FFFFFF;}
	.st25{fill:#990066;}
	.st26{fill:#3399FF;}
	.st27{fill:#33CC99;}
	.st28{fill:#330066;}
</style>
<g id="Ebene_2_1_">
	<path class="st0" d="M409.3,228.2H270.1c-2.8,0-5-2.2-5-5V20.8c0-2.8,2.2-5,5-5h139.2c2.8,0,5,2.2,5,5v202.4
		C414.3,225.9,412.1,228.2,409.3,228.2z"/>
	<path class="st1" d="M25.3,15.8h140.6c2.8,0,5,2.2,5,5v202.4c0,2.8-2.2,5-5,5H25.3c-2.8,0-5-2.2-5-5V20.8
		C20.3,18,22.5,15.8,25.3,15.8z"/>
	<g class="st2">
		
			<linearGradient id="SVGID_1_" gradientUnits="userSpaceOnUse" x1="-1320.98" y1="902.8" x2="-1201.54" y2="902.8" gradientTransform="matrix(-1 0 0 1 -1042.52 -725.6)">
			<stop  offset="0" style="stop-color:#990066"/>
			<stop  offset="0.19" style="stop-color:#780066"/>
			<stop  offset="0.4" style="stop-color:#5A0066"/>
			<stop  offset="0.61" style="stop-color:#440066"/>
			<stop  offset="0.81" style="stop-color:#370066"/>
			<stop  offset="1" style="stop-color:#330066"/>
		</linearGradient>
		<polyline class="st3" points="159,190.1 278.5,190.1 278.5,164.4 159,164.4 		"/>
	</g>
	
		<linearGradient id="SVGID_2_" gradientUnits="userSpaceOnUse" x1="34.06" y1="188.945" x2="158.83" y2="188.945" gradientTransform="matrix(1 0 0 -1 0 254)">
		<stop  offset="0" style="stop-color:#990066"/>
		<stop  offset="0.19" style="stop-color:#780066"/>
		<stop  offset="0.4" style="stop-color:#5A0066"/>
		<stop  offset="0.61" style="stop-color:#440066"/>
		<stop  offset="0.81" style="stop-color:#370066"/>
		<stop  offset="1" style="stop-color:#330066"/>
	</linearGradient>
	<path class="st4" d="M39.1,39.6h114.8c2.8,0,5,2.2,5,5v41c0,2.8-2.2,5-5,5H39.1c-2.8,0-5-2.2-5-5v-41
		C34.1,41.8,36.3,39.6,39.1,39.6z"/>
	
		<linearGradient id="SVGID_3_" gradientUnits="userSpaceOnUse" x1="34.32" y1="76.75" x2="160" y2="76.75" gradientTransform="matrix(1 0 0 -1 0 254)">
		<stop  offset="0" style="stop-color:#990066"/>
		<stop  offset="0.19" style="stop-color:#780066"/>
		<stop  offset="0.4" style="stop-color:#5A0066"/>
		<stop  offset="0.61" style="stop-color:#440066"/>
		<stop  offset="0.81" style="stop-color:#370066"/>
		<stop  offset="1" style="stop-color:#330066"/>
	</linearGradient>
	<path class="st5" d="M160,190.1V210c0,2.8-2.2,5-5,5H39.3c-2.8,0-5-2.2-5-5v-65.5c0-2.8,2.2-5,5-5H155c2.8,0,5,2.2,5,5v19.9"/>
	<path class="st6" d="M160,190.1V210c0,2.8-2.2,5-5,5H39.3c-2.8,0-5-2.2-5-5v-65.5c0-2.8,2.2-5,5-5H155c2.8,0,5,2.2,5,5v19.9"/>
	<g class="st7">
		<path class="st8" d="M68.7,174.3L68.7,174.3l-2.3,6.3h-1.1l-2.3-6.3l0,0l0.2,3.7v1.3l0.9,0.2v1h-3.5v-1l0.9-0.2v-6.1l-0.9-0.2v-1
			h0.9h2.2l2.2,6.3h0l2.2-6.3h3.2v1l-0.9,0.2v6.1l0.9,0.2v1h-3.5v-1l0.9-0.2v-1.3L68.7,174.3z"/>
		<path class="st8" d="M71.8,179.6l0.8-0.2v-3.9l-0.9-0.2v-1h2.6v5.1l0.8,0.2v1h-3.4V179.6z M74.3,172.8h-1.7v-1.3h1.7V172.8z"/>
		<path class="st8" d="M78.7,179.5c0.3,0,0.5-0.1,0.7-0.3s0.3-0.4,0.3-0.7h1.5l0,0c0,0.6-0.2,1.2-0.7,1.6s-1.1,0.6-1.9,0.6
			c-0.9,0-1.7-0.3-2.2-0.9s-0.8-1.4-0.8-2.3v-0.2c0-0.9,0.3-1.7,0.8-2.3s1.3-0.9,2.2-0.9c0.5,0,1,0.1,1.4,0.2s0.7,0.4,1,0.6l0,1.7
			h-1.4l-0.3-1c-0.1-0.1-0.2-0.1-0.3-0.2s-0.3-0.1-0.4-0.1c-0.5,0-0.8,0.2-1,0.5s-0.3,0.8-0.3,1.4v0.2c0,0.6,0.1,1,0.3,1.4
			S78.2,179.5,78.7,179.5z"/>
	</g>
	<g class="st7">
		<path class="st8" d="M82.1,179.6l0.8-0.2v-3.9l-0.9-0.2v-1h2.5l0.1,0.9c0.1-0.3,0.3-0.6,0.6-0.8s0.5-0.3,0.8-0.3
			c0.1,0,0.2,0,0.3,0s0.2,0,0.2,0l-0.2,1.6l-0.7,0c-0.3,0-0.5,0-0.6,0.1s-0.3,0.2-0.4,0.4v3.1l0.8,0.2v1h-3.4V179.6z"/>
	</g>
	<g class="st7">
		<path class="st8" d="M87,177.4c0-0.9,0.3-1.7,0.8-2.3s1.3-0.9,2.2-0.9c0.9,0,1.7,0.3,2.2,0.9s0.8,1.4,0.8,2.3v0.1
			c0,1-0.3,1.7-0.8,2.3s-1.3,0.9-2.2,0.9c-0.9,0-1.7-0.3-2.2-0.9s-0.8-1.4-0.8-2.3V177.4z M88.7,177.6c0,0.6,0.1,1,0.3,1.4
			s0.5,0.5,1,0.5c0.4,0,0.8-0.2,1-0.5s0.3-0.8,0.3-1.4v-0.1c0-0.6-0.1-1-0.3-1.4s-0.5-0.5-1-0.5s-0.8,0.2-1,0.5s-0.3,0.8-0.3,1.4
			V177.6z"/>
		<path class="st8" d="M98.9,176.5h-1.1l-0.2-0.8c-0.1-0.1-0.3-0.2-0.4-0.2s-0.4-0.1-0.6-0.1c-0.3,0-0.5,0.1-0.7,0.2
			s-0.3,0.3-0.3,0.5c0,0.2,0.1,0.4,0.3,0.5s0.5,0.2,1,0.3c0.8,0.2,1.4,0.4,1.7,0.7s0.6,0.7,0.6,1.3c0,0.6-0.2,1-0.7,1.4
			s-1.1,0.5-1.9,0.5c-0.5,0-0.9-0.1-1.3-0.2s-0.8-0.3-1.1-0.6l0-1.4h1.2l0.2,0.8c0.1,0.1,0.2,0.1,0.4,0.2s0.4,0.1,0.6,0.1
			c0.3,0,0.6-0.1,0.8-0.2s0.3-0.3,0.3-0.5c0-0.2-0.1-0.3-0.3-0.5s-0.5-0.3-1-0.4c-0.7-0.2-1.3-0.4-1.7-0.7s-0.6-0.7-0.6-1.2
			c0-0.5,0.2-1,0.7-1.4s1.1-0.6,1.9-0.6c0.5,0,1,0.1,1.4,0.2s0.8,0.3,1,0.5L98.9,176.5z"/>
		<path class="st8" d="M102.9,180.8c-0.9,0-1.6-0.3-2.2-0.9s-0.8-1.3-0.8-2.2v-0.2c0-0.9,0.3-1.7,0.8-2.3s1.2-0.9,2.1-0.9
			c0.9,0,1.5,0.3,2,0.8s0.7,1.2,0.7,2.1v0.9h-3.8l0,0c0,0.4,0.2,0.8,0.4,1s0.6,0.4,1,0.4c0.4,0,0.7,0,0.9-0.1s0.5-0.2,0.8-0.4
			l0.5,1.1c-0.3,0.2-0.6,0.4-1,0.5S103.4,180.8,102.9,180.8z M102.7,175.5c-0.3,0-0.6,0.1-0.8,0.4s-0.3,0.6-0.3,1l0,0h2.1v-0.2
			c0-0.4-0.1-0.7-0.3-0.9S103.1,175.5,102.7,175.5z"/>
	</g>
	<g class="st7">
		<path class="st8" d="M106.4,179.6l0.8-0.2v-3.9l-0.9-0.2v-1h2.5l0.1,0.9c0.1-0.3,0.3-0.6,0.6-0.8s0.5-0.3,0.8-0.3
			c0.1,0,0.2,0,0.3,0s0.2,0,0.2,0l-0.2,1.6l-0.7,0c-0.3,0-0.5,0-0.6,0.1s-0.3,0.2-0.4,0.4v3.1l0.8,0.2v1h-3.4V179.6z"/>
	</g>
	<g class="st7">
		<path class="st8" d="M114.1,175.4l-0.6,0.1l0.8,2.8l0.1,0.6h0l0.1-0.6l0.8-2.8l-0.6-0.1v-1h2.9v1l-0.6,0.1l-1.9,5.2h-1.6l-1.9-5.2
			l-0.6-0.1v-1h2.9V175.4z"/>
		<path class="st8" d="M118.2,179.6l0.8-0.2v-3.9l-0.9-0.2v-1h2.6v5.1l0.8,0.2v1h-3.4V179.6z M120.7,172.8H119v-1.3h1.7V172.8z"/>
		<path class="st8" d="M125.1,179.5c0.3,0,0.5-0.1,0.7-0.3s0.3-0.4,0.3-0.7h1.5l0,0c0,0.6-0.2,1.2-0.7,1.6s-1.1,0.6-1.9,0.6
			c-0.9,0-1.7-0.3-2.2-0.9s-0.8-1.4-0.8-2.3v-0.2c0-0.9,0.3-1.7,0.8-2.3s1.3-0.9,2.2-0.9c0.5,0,1,0.1,1.4,0.2s0.7,0.4,1,0.6l0,1.7
			h-1.4l-0.3-1c-0.1-0.1-0.2-0.1-0.3-0.2s-0.3-0.1-0.4-0.1c-0.5,0-0.8,0.2-1,0.5s-0.3,0.8-0.3,1.4v0.2c0,0.6,0.1,1,0.3,1.4
			S124.6,179.5,125.1,179.5z"/>
		<path class="st8" d="M131.5,180.8c-0.9,0-1.6-0.3-2.2-0.9s-0.8-1.3-0.8-2.2v-0.2c0-0.9,0.3-1.7,0.8-2.3s1.2-0.9,2.1-0.9
			c0.9,0,1.5,0.3,2,0.8s0.7,1.2,0.7,2.1v0.9h-3.8l0,0c0,0.4,0.2,0.8,0.4,1s0.6,0.4,1,0.4c0.4,0,0.7,0,0.9-0.1s0.5-0.2,0.8-0.4
			l0.5,1.1c-0.3,0.2-0.6,0.4-1,0.5S132,180.8,131.5,180.8z M131.3,175.5c-0.3,0-0.6,0.1-0.8,0.4s-0.3,0.6-0.3,1l0,0h2.1v-0.2
			c0-0.4-0.1-0.7-0.3-0.9S131.7,175.5,131.3,175.5z"/>
	</g>
	<path class="st9" d="M88.6,128.7c4.6-4.5,12.1-4.5,16.6,0.2c4.5,4.6,4.5,12.1-0.2,16.6c-4.6,4.5-12.1,4.5-16.6-0.2
		c-2.1-2.2-3.4-5.1-3.4-8.2c0-2.6,0.8-5.1,2.4-7.1"/>
	<path class="st10" d="M96.4,142.7h-4.2c-0.6,0-0.8-0.2-0.8-0.8v-6.5c0-0.6,0.2-0.8,0.8-0.8h8.5c0.5,0,0.8,0.2,0.8,0.8v6.5
		c0,0.6-0.2,0.8-0.8,0.8C99.2,142.7,97.8,142.7,96.4,142.7z"/>
	<path class="st10" d="M92.1,134.1c0-1.8,1-3.4,2.6-4.1c2.1-0.9,4.6,0,5.5,2.2c0.1,0.2,0.2,0.5,0.2,0.7c0.1,0.4,0.1,0.8,0.2,1.2"/>
	<path class="st8" d="M95.7,139.9L95.7,139.9v0.9c0,0.2,0.1,0.2,0.3,0.2h0.8c0.2,0,0.3-0.1,0.3-0.3v-1.6c0-0.2,0.1-0.3,0.2-0.4
		c0.5-0.3,0.8-0.9,0.6-1.4c-0.2-0.6-0.8-1-1.4-1c-0.7-0.1-1.3,0.3-1.6,0.9c-0.2,0.6,0,1.2,0.6,1.5c0.2,0.1,0.3,0.3,0.3,0.5
		C95.7,139.4,95.7,139.7,95.7,139.9z"/>
	<g id="Scone_logo_white">
		<g>
			<defs>
				<rect id="SVGID_4_" x="78.2" y="201.7" width="36.3" height="7.1"/>
			</defs>
			<clipPath id="SVGID_5_">
				<use xlink:href="#SVGID_4_"  style="overflow:visible;"/>
			</clipPath>
			<g class="st11">
				<g>
					<defs>
						<rect id="SVGID_6_" x="78.2" y="201.7" width="36.3" height="7.1"/>
					</defs>
					<clipPath id="SVGID_7_">
						<use xlink:href="#SVGID_6_"  style="overflow:visible;"/>
					</clipPath>
					<g class="st12">
						<path class="st13" d="M83.1,203.5h-0.8c-0.2,0-0.3,0.1-0.3,0.3v0.8c0,0.2,0.1,0.3,0.3,0.3h0.8c0.2,0,0.3-0.1,0.3-0.3v-0.8
							C83.3,203.6,83.2,203.5,83.1,203.5 M80.4,204.9h0.8c0.2,0,0.3-0.1,0.3-0.3v-0.8c0-0.2-0.1-0.3-0.3-0.3h-0.8
							c-0.2,0-0.3,0.1-0.3,0.3v0.8C80.1,204.7,80.2,204.9,80.4,204.9 M79.6,204.6v-0.8c0-0.2-0.1-0.3-0.3-0.3h-0.8
							c-0.2,0-0.3,0.1-0.3,0.3l0,0v0.8c0,0.2,0.1,0.3,0.3,0.3c0,0,0,0,0,0h0.8C79.5,204.9,79.6,204.7,79.6,204.6 M83.1,205.4
							c-0.1,0-0.2,0.1-0.2,0.2l0,0v0.9c0,0.1,0.1,0.2,0.2,0.2l0,0c0.1,0,0.2-0.1,0.2-0.2v-0.9C83.3,205.5,83.2,205.4,83.1,205.4
							C83.1,205.4,83.1,205.4,83.1,205.4 M81,205.7v0.8c0,0.2,0.1,0.3,0.3,0.3h0h0.8c0.2,0,0.3-0.1,0.3-0.3c0,0,0,0,0,0v-0.8
							c0-0.2-0.1-0.3-0.3-0.3h-0.8C81.1,205.4,81,205.5,81,205.7 M80.5,206.5v-0.8c0-0.2-0.1-0.3-0.3-0.3h-0.8
							c-0.2,0-0.3,0.1-0.3,0.3v0.8c0,0.2,0.1,0.3,0.3,0.3c0,0,0,0,0,0h0.8C80.3,206.8,80.5,206.7,80.5,206.5
							C80.5,206.5,80.5,206.5,80.5,206.5 M83.1,207.3h-0.8c-0.2,0-0.3,0.1-0.3,0.3v0.8c0,0.2,0.1,0.3,0.3,0.3h0.8
							c0.2,0,0.3-0.1,0.3-0.3v-0.8C83.3,207.4,83.2,207.3,83.1,207.3 M81.1,207.3h-0.8c-0.2,0-0.3,0.1-0.3,0.3v0.8
							c0,0.2,0.1,0.3,0.3,0.3h0.8c0.2,0,0.3-0.1,0.3-0.3v-0.8C81.3,207.4,81.2,207.3,81.1,207.3"/>
						<path class="st13" d="M84,203.2c0.3,0.3,0.8,0.4,1.2,0.4c0,0,0,0,0,0.1v2.1c0,0.8-1,1.3-1.2,1.4l0,0L84,203.2L84,203.2"/>
						<path class="st13" d="M81.7,203.1c1.6,0,1.9-0.6,1.9-0.6c0,0,0,0,0.1,0c0,0,0.1,0,0.1,0s0.3,0.6,1.9,0.6c0,0,0.1,0,0.1,0.1
							v2.8c0,0.9-1.7,1.9-1.7,1.9s-0.1,0-0.1,0.1v0.7c0,0,0.1,0.1,0.2,0c0.6-0.3,2.3-1.3,2.3-2.5v-3.5c0-0.1-0.1-0.1-0.2-0.1
							c-2.1,0-2.4-0.8-2.4-0.8s-0.1,0-0.1,0s-0.1,0-0.1,0s-0.3,0.8-2.4,0.8c-0.1,0-0.1,0-0.1,0.1v0.4c0,0,0,0.1,0.1,0.1H81.7"/>
						<path class="st14" d="M87.9,207.6l0.8-0.3c0.2,0.4,0.6,0.6,1.1,0.6c0.2,0,0.4,0,0.6-0.1c0.2-0.1,0.3-0.3,0.3-0.4
							c0-0.4-0.6-0.7-1-0.9l0,0c-0.3-0.1-0.7-0.3-0.9-0.5c-0.3-0.2-0.5-0.6-0.5-1c0-0.4,0.2-0.8,0.5-1c0.3-0.3,0.8-0.4,1.2-0.4
							c0.7,0,1.3,0.3,1.6,0.9l-0.8,0.3c-0.1-0.1-0.2-0.2-0.3-0.3c-0.1-0.1-0.3-0.1-0.5-0.1c-0.5,0-0.8,0.3-0.8,0.6
							c0,0.2,0.1,0.4,0.3,0.5c0.2,0.1,0.5,0.3,0.7,0.4h0.1c0.6,0.3,1.4,0.6,1.4,1.4c0,0.4-0.2,0.8-0.6,1c-0.4,0.3-0.9,0.4-1.3,0.4
							C89,208.7,88.3,208.2,87.9,207.6"/>
						<path class="st14" d="M95.1,208.7c-0.3,0-0.7-0.1-1-0.2c-0.3-0.1-0.6-0.3-0.8-0.6c-0.2-0.2-0.4-0.5-0.6-0.8
							c-0.1-0.3-0.2-0.7-0.2-1c0-0.3,0.1-0.7,0.2-1c0.1-0.3,0.3-0.6,0.6-0.8c0.2-0.2,0.5-0.4,0.8-0.6c0.3-0.1,0.7-0.2,1-0.2
							c0.4,0,0.8,0.1,1.2,0.3c0.3,0.2,0.7,0.4,0.9,0.8l-0.7,0.5c-0.2-0.2-0.4-0.4-0.6-0.5c-0.2-0.1-0.5-0.2-0.8-0.2
							c-1,0-1.7,0.8-1.7,1.7l0,0c0,0.9,0.7,1.7,1.7,1.7c0.3,0,0.7-0.1,0.9-0.3c0.3-0.2,0.5-0.4,0.6-0.6l0.8,0.4
							c-0.2,0.4-0.5,0.8-0.9,1C96.1,208.6,95.6,208.8,95.1,208.7"/>
						<path class="st14" d="M100.8,208.7c-0.3,0-0.7-0.1-1-0.2c-0.3-0.1-0.6-0.3-0.8-0.5c-0.2-0.2-0.4-0.5-0.6-0.8
							c-0.1-0.3-0.2-0.7-0.2-1c0-0.3,0.1-0.7,0.2-1c0.1-0.3,0.3-0.6,0.6-0.8c0.2-0.2,0.5-0.4,0.8-0.6c0.6-0.3,1.4-0.3,2,0
							c0.3,0.1,0.6,0.3,0.8,0.6c0.2,0.2,0.4,0.5,0.6,0.8c0.3,0.6,0.3,1.4,0,2c-0.1,0.3-0.3,0.6-0.6,0.8
							C102.2,208.5,101.5,208.8,100.8,208.7 M100.8,204.4c-0.5,0-0.9,0.2-1.2,0.5c-0.3,0.3-0.6,0.7-0.6,1.2c0,1,0.7,1.8,1.7,1.8
							c0.5,0,1-0.2,1.3-0.6c0.3-0.3,0.5-0.8,0.5-1.2c0-0.5-0.2-0.9-0.5-1.2C101.7,204.5,101.2,204.4,100.8,204.4"/>
						<polygon class="st14" points="109.3,203.6 109.3,208.8 105.6,205.5 105.6,208.6 104.7,208.6 104.7,203.4 108.3,206.7 
							108.3,203.6 						"/>
						<polygon class="st14" points="111.7,204.3 111.7,205.7 114.3,205.7 114.3,206.5 111.7,206.5 111.7,207.8 114.6,207.8 
							114.6,208.6 110.8,208.6 110.8,203.6 114.6,203.6 114.6,204.4 111.7,204.4 						"/>
					</g>
				</g>
			</g>
		</g>
	</g>
	<g id="Scone_logo_white-2">
		<g>
			<defs>
				<rect id="SVGID_8_" x="78.2" y="77" width="36.3" height="7.1"/>
			</defs>
			<clipPath id="SVGID_9_">
				<use xlink:href="#SVGID_8_"  style="overflow:visible;"/>
			</clipPath>
			<g class="st15">
				<g>
					<defs>
						<rect id="SVGID_10_" x="78.2" y="77" width="36.3" height="7.1"/>
					</defs>
					<clipPath id="SVGID_11_">
						<use xlink:href="#SVGID_10_"  style="overflow:visible;"/>
					</clipPath>
					<g class="st16">
						<path class="st13" d="M83.1,78.8h-0.8c-0.2,0-0.3,0.1-0.3,0.3v0.8c0,0.2,0.1,0.3,0.3,0.3h0.8c0.2,0,0.3-0.1,0.3-0.3l0,0v-0.8
							C83.3,78.9,83.2,78.8,83.1,78.8L83.1,78.8 M80.4,80.2h0.8c0.2,0,0.3-0.1,0.3-0.3l0,0v-0.8c0-0.2-0.1-0.3-0.3-0.3l0,0h-0.8
							c-0.2,0-0.3,0.1-0.3,0.3l0,0v0.8C80.1,80,80.2,80.2,80.4,80.2L80.4,80.2 M79.6,79.9v-0.8c0-0.2-0.1-0.3-0.3-0.3l0,0h-0.8
							c-0.2,0-0.3,0.1-0.3,0.3c0,0,0,0,0,0v0.8c0,0.2,0.1,0.3,0.3,0.3c0,0,0,0,0,0h0.8C79.5,80.2,79.6,80,79.6,79.9L79.6,79.9
							 M83.1,80.7c-0.1,0-0.2,0.1-0.2,0.2l0,0v0.9c0,0.1,0.1,0.2,0.2,0.2c0.1,0,0.2-0.1,0.2-0.2v-0.9C83.3,80.8,83.2,80.7,83.1,80.7
							C83.1,80.7,83.1,80.7,83.1,80.7 M81,81v0.8c0,0.2,0.1,0.3,0.3,0.3h0.8c0.2,0,0.3-0.1,0.3-0.3l0,0V81c0-0.2-0.1-0.3-0.3-0.3
							l0,0h-0.8C81.1,80.7,81,80.8,81,81 M80.5,81.8V81c0-0.2-0.1-0.3-0.3-0.3l0,0h-0.8c-0.2,0-0.3,0.1-0.3,0.3l0,0v0.8
							c0,0.2,0.1,0.3,0.3,0.3l0,0h0.8C80.3,82.1,80.5,81.9,80.5,81.8L80.5,81.8 M83,82.6h-0.8c-0.2,0-0.3,0.1-0.3,0.3v0.8
							c0,0.2,0.1,0.3,0.3,0.3H83c0.2,0,0.3-0.1,0.3-0.3l0,0v-0.8C83.3,82.7,83.2,82.6,83,82.6L83,82.6 M81,82.6h-0.8
							c-0.2,0-0.3,0.1-0.3,0.3l0,0v0.8c0,0.2,0.1,0.3,0.3,0.3l0,0H81c0.2,0,0.3-0.1,0.3-0.3l0,0v-0.8C81.3,82.7,81.2,82.6,81,82.6
							L81,82.6"/>
						<path class="st13" d="M84,78.5c0.3,0.3,0.8,0.4,1.2,0.4c0,0,0,0,0,0.1V81c0,0.8-1,1.3-1.2,1.4l0,0L84,78.5L84,78.5"/>
						<path class="st13" d="M81.7,78.4c1.6-0.1,1.9-0.6,1.9-0.6c0,0,0,0,0.1,0c0,0,0.1,0,0.1,0s0.3,0.6,1.9,0.6c0,0,0.1,0,0.1,0.1
							v2.8c0,0.9-1.7,1.9-1.7,1.9s-0.1,0-0.1,0.1v0.7c0,0,0.1,0,0.2,0c0.6-0.3,2.3-1.3,2.3-2.5v-3.5c0-0.1-0.1-0.1-0.2-0.1
							c-2.1,0-2.4-0.7-2.4-0.7s-0.1,0-0.1,0s-0.1,0-0.1,0s-0.3,0.8-2.4,0.8c-0.1,0-0.1,0-0.1,0.1v0.4c0,0,0,0.1,0.1,0.1
							S81.7,78.4,81.7,78.4"/>
						<path class="st14" d="M87.9,82.9l0.8-0.3c0.2,0.4,0.6,0.6,1.1,0.6c0.2,0,0.4,0,0.6-0.2c0.2-0.1,0.3-0.3,0.3-0.4
							c0-0.4-0.6-0.7-1-0.9l0,0c-0.3-0.1-0.7-0.3-0.9-0.5c-0.3-0.2-0.5-0.6-0.5-1c0-0.4,0.2-0.8,0.5-1c0.3-0.3,0.8-0.4,1.2-0.4
							c0.7,0,1.3,0.3,1.6,0.9L90.7,80c-0.1-0.1-0.2-0.2-0.3-0.3c-0.1-0.1-0.3-0.1-0.5-0.1c-0.5,0-0.8,0.3-0.8,0.6
							c0,0.2,0.1,0.4,0.3,0.5c0.2,0.2,0.5,0.3,0.7,0.4h0.1c0.6,0.3,1.4,0.6,1.4,1.4c0,0.4-0.2,0.8-0.6,1c-0.4,0.3-0.9,0.4-1.3,0.4
							c-0.8,0-1.5-0.4-1.9-1.1"/>
						<path class="st14" d="M95.1,84c-0.3,0-0.7-0.1-1-0.2c-0.3-0.1-0.6-0.3-0.8-0.6c-0.2-0.2-0.4-0.5-0.6-0.8c-0.3-0.6-0.3-1.4,0-2
							c0.1-0.3,0.3-0.6,0.6-0.8c0.2-0.2,0.5-0.4,0.8-0.6c0.3-0.1,0.7-0.2,1-0.2c0.4,0,0.8,0.1,1.2,0.3c0.4,0.2,0.7,0.4,0.9,0.7
							l-0.7,0.5c-0.2-0.2-0.4-0.4-0.6-0.5c-0.2-0.1-0.5-0.2-0.8-0.2c-1,0-1.7,0.8-1.7,1.7c0,1,0.8,1.7,1.7,1.7
							c0.6,0,1.2-0.3,1.5-0.9l0.8,0.4c-0.2,0.4-0.5,0.7-0.9,0.9C96,83.9,95.6,84,95.1,84"/>
						<path class="st14" d="M100.8,84c-0.3,0-0.7-0.1-1-0.2c-0.3-0.1-0.6-0.3-0.8-0.6c-0.2-0.2-0.4-0.5-0.6-0.8
							c-0.1-0.3-0.2-0.7-0.2-1c0-0.3,0.1-0.7,0.2-1c0.1-0.3,0.3-0.6,0.6-0.8c0.7-0.8,1.9-1,2.8-0.6c0.3,0.1,0.6,0.3,0.8,0.6
							c0.2,0.2,0.4,0.5,0.6,0.8c0.3,0.6,0.3,1.4,0,2c-0.1,0.3-0.3,0.6-0.6,0.8c-0.2,0.2-0.5,0.4-0.8,0.6
							C101.5,83.9,101.1,84,100.8,84 M100.8,79.7c-0.5,0-0.9,0.2-1.2,0.5c-0.3,0.3-0.6,0.7-0.6,1.2c0,0.5,0.2,0.9,0.5,1.2
							c0.7,0.7,1.8,0.7,2.5,0s0.7-1.8,0-2.5C101.7,79.8,101.2,79.6,100.8,79.7"/>
						<polygon class="st14" points="109.3,78.8 109.3,84.1 105.6,80.8 105.6,83.9 104.7,83.9 104.7,78.6 108.3,82 108.3,78.8 						
							"/>
						<polygon class="st14" points="111.7,79.6 111.7,80.9 114.3,80.9 114.3,81.7 111.7,81.7 111.7,83.1 114.6,83.1 114.6,83.9 
							110.8,83.9 110.8,78.8 114.6,78.8 114.6,79.6 111.7,79.6 						"/>
					</g>
				</g>
			</g>
		</g>
	</g>
	<line class="st6" x1="97" y1="97.6" x2="97" y2="118.9"/>
	<polygon class="st8" points="91.3,102.2 92.3,103.2 97,98.1 101.7,103.2 102.7,102.2 97,96.1 	"/>
	<polygon class="st8" points="91.3,114.2 92.3,113.3 97,118.3 101.7,113.3 102.7,114.2 97,120.4 	"/>
	
		<linearGradient id="SVGID_12_" gradientUnits="userSpaceOnUse" x1="277.86" y1="188.945" x2="402.63" y2="188.945" gradientTransform="matrix(1 0 0 -1 0 254)">
		<stop  offset="0" style="stop-color:#990066"/>
		<stop  offset="0.19" style="stop-color:#780066"/>
		<stop  offset="0.4" style="stop-color:#5A0066"/>
		<stop  offset="0.61" style="stop-color:#440066"/>
		<stop  offset="0.81" style="stop-color:#370066"/>
		<stop  offset="1" style="stop-color:#330066"/>
	</linearGradient>
	<path class="st17" d="M282.9,39.6h114.8c2.8,0,5,2.2,5,5v41c0,2.8-2.2,5-5,5H282.9c-2.8,0-5-2.2-5-5v-41
		C277.9,41.8,280.1,39.6,282.9,39.6z"/>
	
		<linearGradient id="SVGID_13_" gradientUnits="userSpaceOnUse" x1="-1076.22" y1="902.825" x2="-1201.88" y2="902.825" gradientTransform="matrix(-1 0 0 1 -798.1 -725.6)">
		<stop  offset="0" style="stop-color:#990066"/>
		<stop  offset="0.19" style="stop-color:#780066"/>
		<stop  offset="0.4" style="stop-color:#5A0066"/>
		<stop  offset="0.61" style="stop-color:#440066"/>
		<stop  offset="0.81" style="stop-color:#370066"/>
		<stop  offset="1" style="stop-color:#330066"/>
	</linearGradient>
	<path class="st18" d="M278.1,164.4v-19.9c0-2.8,2.2-5,5-5h115.7c2.8,0,5,2.2,5,5V210c0,2.8-2.2,5-5,5H283.1c-2.8,0-5-2.2-5-5v-19.9
		"/>
	<path class="st6" d="M278.1,164.4v-19.9c0-2.8,2.2-5,5-5h115.7c2.8,0,5,2.2,5,5V210c0,2.8-2.2,5-5,5H283.1c-2.8,0-5-2.2-5-5v-19.9"
		/>
	<g class="st7">
		<path class="st8" d="M312.5,174.3L312.5,174.3l-2.3,6.3h-1.1l-2.3-6.3l0,0l0.2,3.7v1.3l0.9,0.2v1h-3.5v-1l0.9-0.2v-6.1l-0.9-0.2
			v-1h0.9h2.2l2.2,6.3h0l2.2-6.3h3.2v1l-0.9,0.2v6.1l0.9,0.2v1h-3.5v-1l0.9-0.2v-1.3L312.5,174.3z"/>
		<path class="st8" d="M315.6,179.6l0.8-0.2v-3.9l-0.9-0.2v-1h2.6v5.1l0.8,0.2v1h-3.4V179.6z M318.1,172.8h-1.7v-1.3h1.7V172.8z"/>
		<path class="st8" d="M322.5,179.5c0.3,0,0.5-0.1,0.7-0.3s0.3-0.4,0.3-0.7h1.5l0,0c0,0.6-0.2,1.2-0.7,1.6s-1.1,0.6-1.9,0.6
			c-0.9,0-1.7-0.3-2.2-0.9s-0.8-1.4-0.8-2.3v-0.2c0-0.9,0.3-1.7,0.8-2.3s1.3-0.9,2.2-0.9c0.5,0,1,0.1,1.4,0.2s0.7,0.4,1,0.6l0,1.7
			h-1.4l-0.3-1c-0.1-0.1-0.2-0.1-0.3-0.2s-0.3-0.1-0.4-0.1c-0.5,0-0.8,0.2-1,0.5s-0.3,0.8-0.3,1.4v0.2c0,0.6,0.1,1,0.3,1.4
			S322,179.5,322.5,179.5z"/>
	</g>
	<g class="st7">
		<path class="st8" d="M325.9,179.6l0.8-0.2v-3.9l-0.9-0.2v-1h2.5l0.1,0.9c0.1-0.3,0.3-0.6,0.6-0.8s0.5-0.3,0.8-0.3
			c0.1,0,0.2,0,0.3,0s0.2,0,0.2,0l-0.2,1.6l-0.7,0c-0.3,0-0.5,0-0.6,0.1s-0.3,0.2-0.4,0.4v3.1l0.8,0.2v1h-3.4V179.6z"/>
	</g>
	<g class="st7">
		<path class="st8" d="M330.8,177.4c0-0.9,0.3-1.7,0.8-2.3s1.3-0.9,2.2-0.9c0.9,0,1.7,0.3,2.2,0.9s0.8,1.4,0.8,2.3v0.1
			c0,1-0.3,1.7-0.8,2.3s-1.3,0.9-2.2,0.9c-0.9,0-1.7-0.3-2.2-0.9s-0.8-1.4-0.8-2.3V177.4z M332.5,177.6c0,0.6,0.1,1,0.3,1.4
			s0.5,0.5,1,0.5c0.4,0,0.8-0.2,1-0.5s0.3-0.8,0.3-1.4v-0.1c0-0.6-0.1-1-0.3-1.4s-0.5-0.5-1-0.5s-0.8,0.2-1,0.5s-0.3,0.8-0.3,1.4
			V177.6z"/>
		<path class="st8" d="M342.7,176.5h-1.1l-0.2-0.8c-0.1-0.1-0.3-0.2-0.4-0.2s-0.4-0.1-0.6-0.1c-0.3,0-0.5,0.1-0.7,0.2
			s-0.3,0.3-0.3,0.5c0,0.2,0.1,0.4,0.3,0.5s0.5,0.2,1,0.3c0.8,0.2,1.4,0.4,1.7,0.7s0.6,0.7,0.6,1.3c0,0.6-0.2,1-0.7,1.4
			s-1.1,0.5-1.9,0.5c-0.5,0-0.9-0.1-1.3-0.2s-0.8-0.3-1.1-0.6l0-1.4h1.2l0.2,0.8c0.1,0.1,0.2,0.1,0.4,0.2s0.4,0.1,0.6,0.1
			c0.3,0,0.6-0.1,0.8-0.2s0.3-0.3,0.3-0.5c0-0.2-0.1-0.3-0.3-0.5s-0.5-0.3-1-0.4c-0.7-0.2-1.3-0.4-1.7-0.7s-0.6-0.7-0.6-1.2
			c0-0.5,0.2-1,0.7-1.4s1.1-0.6,1.9-0.6c0.5,0,1,0.1,1.4,0.2s0.8,0.3,1,0.5L342.7,176.5z"/>
		<path class="st8" d="M346.7,180.8c-0.9,0-1.6-0.3-2.2-0.9s-0.8-1.3-0.8-2.2v-0.2c0-0.9,0.3-1.7,0.8-2.3s1.2-0.9,2.1-0.9
			c0.9,0,1.5,0.3,2,0.8s0.7,1.2,0.7,2.1v0.9h-3.8l0,0c0,0.4,0.2,0.8,0.4,1s0.6,0.4,1,0.4c0.4,0,0.7,0,0.9-0.1s0.5-0.2,0.8-0.4
			l0.5,1.1c-0.3,0.2-0.6,0.4-1,0.5S347.2,180.8,346.7,180.8z M346.5,175.5c-0.3,0-0.6,0.1-0.8,0.4s-0.3,0.6-0.3,1l0,0h2.1v-0.2
			c0-0.4-0.1-0.7-0.3-0.9S346.9,175.5,346.5,175.5z"/>
	</g>
	<g class="st7">
		<path class="st8" d="M350.2,179.6l0.8-0.2v-3.9l-0.9-0.2v-1h2.5l0.1,0.9c0.1-0.3,0.3-0.6,0.6-0.8s0.5-0.3,0.8-0.3
			c0.1,0,0.2,0,0.3,0s0.2,0,0.2,0l-0.2,1.6l-0.7,0c-0.3,0-0.5,0-0.6,0.1s-0.3,0.2-0.4,0.4v3.1l0.8,0.2v1h-3.4V179.6z"/>
	</g>
	<g class="st7">
		<path class="st8" d="M357.9,175.4l-0.6,0.1l0.8,2.8l0.1,0.6h0l0.1-0.6l0.8-2.8l-0.6-0.1v-1h2.9v1l-0.6,0.1l-1.9,5.2h-1.6l-1.9-5.2
			l-0.6-0.1v-1h2.9V175.4z"/>
		<path class="st8" d="M362,179.6l0.8-0.2v-3.9l-0.9-0.2v-1h2.6v5.1l0.8,0.2v1H362V179.6z M364.5,172.8h-1.7v-1.3h1.7V172.8z"/>
		<path class="st8" d="M368.9,179.5c0.3,0,0.5-0.1,0.7-0.3s0.3-0.4,0.3-0.7h1.5l0,0c0,0.6-0.2,1.2-0.7,1.6s-1.1,0.6-1.9,0.6
			c-0.9,0-1.7-0.3-2.2-0.9s-0.8-1.4-0.8-2.3v-0.2c0-0.9,0.3-1.7,0.8-2.3s1.3-0.9,2.2-0.9c0.5,0,1,0.1,1.4,0.2s0.7,0.4,1,0.6l0,1.7
			H370l-0.3-1c-0.1-0.1-0.2-0.1-0.3-0.2s-0.3-0.1-0.4-0.1c-0.5,0-0.8,0.2-1,0.5s-0.3,0.8-0.3,1.4v0.2c0,0.6,0.1,1,0.3,1.4
			S368.4,179.5,368.9,179.5z"/>
		<path class="st8" d="M375.3,180.8c-0.9,0-1.6-0.3-2.2-0.9s-0.8-1.3-0.8-2.2v-0.2c0-0.9,0.3-1.7,0.8-2.3s1.2-0.9,2.1-0.9
			c0.9,0,1.5,0.3,2,0.8s0.7,1.2,0.7,2.1v0.9H374l0,0c0,0.4,0.2,0.8,0.4,1s0.6,0.4,1,0.4c0.4,0,0.7,0,0.9-0.1s0.5-0.2,0.8-0.4
			l0.5,1.1c-0.3,0.2-0.6,0.4-1,0.5S375.8,180.8,375.3,180.8z M375.1,175.5c-0.3,0-0.6,0.1-0.8,0.4s-0.3,0.6-0.3,1l0,0h2.1v-0.2
			c0-0.4-0.1-0.7-0.3-0.9S375.5,175.5,375.1,175.5z"/>
	</g>
	<path class="st9" d="M332.3,128.7c4.6-4.5,12.1-4.5,16.6,0.2c4.5,4.6,4.5,12.1-0.2,16.6c-4.6,4.5-12.1,4.5-16.6-0.2
		c-2.1-2.2-3.4-5.1-3.4-8.2c0-2.6,0.8-5.1,2.4-7.1"/>
	<path class="st10" d="M340.2,142.7H336c-0.6,0-0.8-0.2-0.8-0.8v-6.5c0-0.6,0.2-0.8,0.8-0.8h8.5c0.5,0,0.8,0.2,0.8,0.8v6.5
		c0,0.6-0.2,0.8-0.8,0.8C343,142.7,341.6,142.7,340.2,142.7z"/>
	<path class="st10" d="M335.9,134.1c0-1.8,1-3.4,2.6-4.1c2.1-0.9,4.6,0,5.5,2.1c0.1,0.2,0.2,0.5,0.2,0.7c0.1,0.4,0.1,0.8,0.2,1.2"/>
	<path class="st8" d="M339.5,139.9L339.5,139.9v0.9c0,0.2,0.1,0.2,0.3,0.2h0.8c0.2,0,0.3-0.1,0.3-0.3v-1.6c0-0.2,0.1-0.3,0.2-0.4
		c0.5-0.3,0.8-0.9,0.6-1.4c-0.2-0.6-0.8-1-1.5-1c-0.7-0.1-1.3,0.3-1.6,0.9c-0.2,0.6,0,1.2,0.5,1.5c0.2,0.1,0.3,0.3,0.3,0.5
		C339.5,139.4,339.5,139.7,339.5,139.9z"/>
	<g id="Scone_logo_white-3">
		<g>
			<defs>
				<rect id="SVGID_14_" x="322" y="201.7" width="36.3" height="7.1"/>
			</defs>
			<clipPath id="SVGID_15_">
				<use xlink:href="#SVGID_14_"  style="overflow:visible;"/>
			</clipPath>
			<g class="st19">
				<g>
					<defs>
						<rect id="SVGID_16_" x="322" y="201.7" width="36.3" height="7.1"/>
					</defs>
					<clipPath id="SVGID_17_">
						<use xlink:href="#SVGID_16_"  style="overflow:visible;"/>
					</clipPath>
					<g class="st20">
						<path class="st13" d="M326.9,203.5h-0.8c-0.2,0-0.3,0.1-0.3,0.3v0.8c0,0.2,0.1,0.3,0.3,0.3h0.8c0.2,0,0.3-0.1,0.3-0.3l0,0
							v-0.8C327.1,203.6,327,203.5,326.9,203.5 M324.2,204.9h0.8c0.2,0,0.3-0.1,0.3-0.3l0,0v-0.8c0-0.2-0.1-0.3-0.3-0.3h-0.8
							c-0.2,0-0.3,0.1-0.3,0.3v0.8C323.9,204.7,324.1,204.9,324.2,204.9L324.2,204.9 M323.4,204.6v-0.8c0-0.2-0.1-0.3-0.3-0.3h-0.8
							c-0.2,0-0.3,0.1-0.3,0.3v0.8c0,0.2,0.1,0.3,0.3,0.3h0.8C323.3,204.9,323.4,204.7,323.4,204.6L323.4,204.6 M326.9,205.4
							c-0.1,0-0.2,0.1-0.2,0.2l0,0v0.9c0,0.1,0.1,0.2,0.2,0.2l0,0c0.1,0,0.2-0.1,0.2-0.2v-0.9C327.2,205.5,327.1,205.4,326.9,205.4
							C327,205.4,327,205.4,326.9,205.4 M324.8,205.7v0.8c0,0.2,0.1,0.3,0.3,0.3h0.8c0.2,0,0.3-0.1,0.3-0.3c0,0,0,0,0,0v-0.8
							c0-0.2-0.1-0.3-0.3-0.3l0,0h-0.8C325,205.4,324.9,205.5,324.8,205.7 M324.3,206.5v-0.8c0-0.2-0.1-0.3-0.3-0.3l0,0h-0.8
							c-0.2,0-0.3,0.1-0.3,0.3l0,0v0.8c0,0.2,0.1,0.3,0.3,0.3c0,0,0,0,0,0h0.7C324.2,206.8,324.3,206.7,324.3,206.5
							C324.3,206.5,324.3,206.5,324.3,206.5 M326.9,207.3h-0.8c-0.2,0-0.3,0.1-0.3,0.3v0.8c0,0.2,0.1,0.3,0.3,0.3h0.8
							c0.2,0,0.3-0.1,0.3-0.3l0,0v-0.8C327.2,207.4,327,207.3,326.9,207.3L326.9,207.3 M324.9,207.3h-0.8c-0.2,0-0.3,0.1-0.3,0.3
							l0,0v0.8c0,0.2,0.1,0.3,0.3,0.3l0,0h0.8c0.2,0,0.3-0.1,0.3-0.3v-0.8C325.2,207.4,325,207.3,324.9,207.3"/>
						<path class="st13" d="M327.8,203.2c0.3,0.3,0.8,0.4,1.2,0.4c0,0,0,0,0,0.1v2.1c0,0.8-1,1.3-1.2,1.4l0,0L327.8,203.2
							L327.8,203.2"/>
						<path class="st13" d="M325.5,203.1c1.6,0,1.9-0.6,1.9-0.6c0,0,0,0,0.1,0c0,0,0.1,0,0.1,0s0.3,0.6,1.9,0.6c0,0,0.1,0,0.1,0.1
							v2.8c0,0.9-1.7,1.9-1.7,1.9s-0.1,0-0.1,0.1v0.7c0,0,0.1,0.1,0.1,0c0.6-0.3,2.3-1.3,2.3-2.5v-3.5c0-0.1-0.1-0.1-0.2-0.1
							c-2,0-2.4-0.8-2.4-0.8s-0.1,0-0.1,0s-0.1,0-0.1,0s-0.3,0.8-2.4,0.8c-0.1,0-0.1,0-0.1,0.1v0.4c0,0,0,0.1,0.1,0.1H325.5"/>
						<path class="st14" d="M331.7,207.6l0.8-0.3c0.2,0.4,0.6,0.6,1.1,0.6c0.2,0,0.4,0,0.6-0.1c0.2-0.1,0.3-0.3,0.3-0.4
							c0-0.4-0.6-0.7-1-0.9l0,0c-0.4-0.1-0.7-0.3-1-0.5c-0.3-0.2-0.5-0.6-0.5-1c0-0.4,0.2-0.8,0.5-1c0.3-0.3,0.8-0.4,1.2-0.4
							c0.7,0,1.3,0.3,1.6,0.9l-0.9,0.3c-0.1-0.1-0.2-0.2-0.3-0.3c-0.1-0.1-0.3-0.1-0.5-0.1c-0.5,0-0.8,0.3-0.8,0.6
							c0,0.2,0.1,0.4,0.3,0.5c0.2,0.1,0.5,0.3,0.7,0.4h0.1c0.6,0.3,1.4,0.6,1.4,1.4c0,0.4-0.2,0.8-0.5,1c-0.4,0.3-0.9,0.4-1.3,0.4
							C332.8,208.7,332,208.2,331.7,207.6"/>
						<path class="st14" d="M338.9,208.7c-0.3,0-0.7-0.1-1-0.2c-0.3-0.1-0.6-0.3-0.8-0.6c-0.2-0.2-0.4-0.5-0.5-0.8
							c-0.1-0.3-0.2-0.7-0.2-1c0-0.3,0.1-0.7,0.2-1c0.1-0.3,0.3-0.6,0.5-0.8c0.2-0.2,0.5-0.4,0.8-0.6c0.3-0.1,0.7-0.2,1-0.2
							c0.4,0,0.8,0.1,1.2,0.3c0.4,0.2,0.7,0.4,0.9,0.8l-0.7,0.5c-0.3-0.4-0.8-0.7-1.4-0.7c-1,0-1.7,0.8-1.7,1.7c0,1,0.8,1.7,1.7,1.8
							c0.3,0,0.6-0.1,0.9-0.3c0.3-0.2,0.5-0.4,0.6-0.6l0.8,0.4c-0.2,0.4-0.5,0.8-0.9,1C339.8,208.6,339.4,208.8,338.9,208.7"/>
						<path class="st14" d="M344.6,208.7c-0.3,0-0.7-0.1-1-0.2c-0.3-0.1-0.6-0.3-0.8-0.6c-0.2-0.2-0.4-0.5-0.6-0.8
							c-0.1-0.3-0.2-0.7-0.2-1c0-0.3,0.1-0.7,0.2-1c0.1-0.3,0.3-0.6,0.6-0.8c0.2-0.2,0.5-0.4,0.8-0.6c0.3-0.1,0.7-0.2,1-0.2
							c0.3,0,0.7,0.1,1,0.2c0.3,0.1,0.6,0.3,0.8,0.6c0.2,0.2,0.4,0.5,0.6,0.8c0.3,0.6,0.3,1.4,0,2
							C346.6,208.1,345.6,208.7,344.6,208.7 M344.6,204.4c-0.5,0-0.9,0.2-1.2,0.5c-0.3,0.3-0.5,0.8-0.5,1.2c0,1,0.7,1.8,1.7,1.8
							c0.5,0,1-0.2,1.3-0.6c0.3-0.3,0.5-0.8,0.5-1.2c0-0.5-0.2-0.9-0.5-1.2C345.5,204.5,345.1,204.4,344.6,204.4"/>
						<polygon class="st14" points="353.1,203.6 353.1,208.8 349.4,205.5 349.4,208.6 348.5,208.6 348.5,203.4 352.1,206.7 
							352.1,203.6 						"/>
						<polygon class="st14" points="355.5,204.3 355.5,205.7 358.1,205.7 358.1,206.5 355.5,206.5 355.5,207.8 358.4,207.8 
							358.4,208.6 354.6,208.6 354.6,203.6 358.4,203.6 358.4,204.4 355.5,204.4 						"/>
					</g>
				</g>
			</g>
		</g>
	</g>
	<g id="Scone_logo_white-4">
		<g>
			<defs>
				<rect id="SVGID_18_" x="322" y="77" width="36.3" height="7.1"/>
			</defs>
			<clipPath id="SVGID_19_">
				<use xlink:href="#SVGID_18_"  style="overflow:visible;"/>
			</clipPath>
			<g class="st21">
				<g>
					<defs>
						<rect id="SVGID_20_" x="322" y="77" width="36.3" height="7.1"/>
					</defs>
					<clipPath id="SVGID_21_">
						<use xlink:href="#SVGID_20_"  style="overflow:visible;"/>
					</clipPath>
					<g class="st22">
						<path class="st13" d="M326.9,78.8h-0.8c-0.2,0-0.3,0.1-0.3,0.3v0.8c0,0.2,0.1,0.3,0.3,0.3h0.8c0.2,0,0.3-0.1,0.3-0.3v0v-0.8
							C327.1,78.9,327,78.8,326.9,78.8L326.9,78.8 M324.2,80.2h0.8c0.2,0,0.3-0.1,0.3-0.3v0v-0.8c0-0.2-0.1-0.3-0.3-0.3l0,0h-0.8
							c-0.2,0-0.3,0.1-0.3,0.3v0v0.8C323.9,80,324.1,80.2,324.2,80.2L324.2,80.2 M323.4,79.9v-0.8c0-0.2-0.1-0.3-0.3-0.3l0,0h-0.8
							c-0.2,0-0.3,0.1-0.3,0.3v0.8c0,0.2,0.1,0.3,0.3,0.3h0.8C323.3,80.2,323.4,80,323.4,79.9L323.4,79.9 M326.9,80.7
							c-0.1,0-0.2,0.1-0.2,0.2l0,0v0.9c0,0.1,0.1,0.2,0.2,0.2c0.1,0,0.2-0.1,0.2-0.2v-0.9C327.2,80.8,327.1,80.7,326.9,80.7
							C327,80.7,327,80.7,326.9,80.7 M324.8,81v0.8c0,0.2,0.1,0.3,0.3,0.3h0.8c0.2,0,0.3-0.1,0.3-0.3v0V81c0-0.2-0.1-0.3-0.3-0.3
							l0,0h-0.8C325,80.7,324.9,80.8,324.8,81 M324.3,81.8V81c0-0.2-0.1-0.3-0.3-0.3l0,0h-0.8c-0.2,0-0.3,0.1-0.3,0.3v0v0.8
							c0,0.2,0.1,0.3,0.3,0.3l0,0h0.7C324.2,82.1,324.3,81.9,324.3,81.8L324.3,81.8 M326.9,82.6h-0.8c-0.2,0-0.3,0.1-0.3,0.3v0.8
							c0,0.2,0.1,0.3,0.3,0.3h0.8c0.2,0,0.3-0.1,0.3-0.3v0v-0.8C327.2,82.7,327,82.6,326.9,82.6L326.9,82.6 M324.9,82.6h-0.8
							c-0.2,0-0.3,0.1-0.3,0.3v0v0.8c0,0.2,0.1,0.3,0.3,0.3l0,0h0.8c0.2,0,0.3-0.1,0.3-0.3v-0.8C325.2,82.7,325,82.6,324.9,82.6"/>
						<path class="st13" d="M327.8,78.5c0.3,0.3,0.8,0.4,1.2,0.4c0,0,0,0,0,0.1V81c0,0.8-1,1.3-1.2,1.4l0,0L327.8,78.5L327.8,78.5"
							/>
						<path class="st13" d="M325.5,78.4c1.6-0.1,1.9-0.6,1.9-0.6c0,0,0,0,0.1,0c0,0,0.1,0,0.1,0s0.3,0.6,1.9,0.6c0,0,0.1,0,0.1,0.1
							v2.8c0,0.9-1.7,1.9-1.7,1.9s-0.1,0-0.1,0.1v0.7c0,0,0.1,0,0.1,0c0.6-0.3,2.3-1.3,2.3-2.5v-3.5c0-0.1-0.1-0.1-0.2-0.1
							c-2,0-2.4-0.7-2.4-0.7s-0.1,0-0.1,0s-0.1,0-0.1,0s-0.3,0.8-2.4,0.8c-0.1,0-0.1,0-0.1,0.1v0.4c0,0,0,0.1,0.1,0.1
							S325.5,78.4,325.5,78.4"/>
						<path class="st14" d="M331.7,82.9l0.8-0.3c0.2,0.4,0.6,0.6,1.1,0.6c0.2,0,0.4,0,0.6-0.2c0.2-0.1,0.3-0.3,0.3-0.4
							c0-0.4-0.6-0.7-1-0.9l0,0c-0.4-0.1-0.7-0.3-1-0.5c-0.3-0.2-0.5-0.6-0.5-1c0-0.4,0.2-0.8,0.5-1c0.3-0.3,0.8-0.4,1.2-0.4
							c0.7,0,1.3,0.3,1.6,0.9l-0.9,0.3c-0.1-0.1-0.2-0.2-0.3-0.3c-0.1-0.1-0.3-0.1-0.5-0.1c-0.5,0-0.8,0.3-0.8,0.6
							c0,0.2,0.1,0.4,0.3,0.5c0.2,0.2,0.5,0.3,0.7,0.4h0.1c0.6,0.3,1.4,0.6,1.4,1.4c0,0.4-0.2,0.8-0.5,1c-0.4,0.3-0.9,0.4-1.3,0.4
							c-0.8,0-1.5-0.4-1.9-1.1"/>
						<path class="st14" d="M338.9,84c-0.3,0-0.7-0.1-1-0.2c-0.3-0.1-0.6-0.3-0.8-0.6c-0.2-0.2-0.4-0.5-0.5-0.8
							c-0.3-0.6-0.3-1.4,0-2c0.1-0.3,0.3-0.6,0.5-0.8c0.2-0.2,0.5-0.4,0.8-0.6c0.3-0.1,0.7-0.2,1-0.2c0.4,0,0.8,0.1,1.2,0.3
							c0.4,0.2,0.7,0.4,0.9,0.7l-0.7,0.5c-0.2-0.2-0.4-0.4-0.6-0.5c-0.2-0.1-0.5-0.2-0.8-0.2c-1,0-1.7,0.8-1.7,1.7s0.8,1.7,1.7,1.7
							c0.3,0,0.6-0.1,0.9-0.3c0.3-0.2,0.5-0.4,0.6-0.6l0.8,0.4c-0.2,0.4-0.5,0.7-0.9,0.9C339.8,83.9,339.4,84,338.9,84"/>
						<path class="st14" d="M344.6,84c-0.3,0-0.7-0.1-1-0.2c-0.3-0.1-0.6-0.3-0.8-0.6c-0.2-0.2-0.4-0.5-0.6-0.8
							c-0.1-0.3-0.2-0.7-0.2-1c0-0.3,0.1-0.7,0.2-1c0.3-0.6,0.7-1.1,1.4-1.4c0.3-0.1,0.7-0.2,1-0.2c0.3,0,0.7,0.1,1,0.2
							c0.3,0.1,0.6,0.3,0.8,0.6c0.2,0.2,0.4,0.5,0.6,0.8c0.3,0.6,0.3,1.4,0,2c-0.1,0.3-0.3,0.6-0.6,0.8c-0.2,0.2-0.5,0.4-0.8,0.6
							C345.3,83.9,344.9,83.9,344.6,84 M344.6,79.6c-0.5,0-0.9,0.2-1.2,0.5c-0.3,0.3-0.5,0.8-0.5,1.2c0,0.5,0.2,0.9,0.5,1.2
							c0.6,0.7,1.7,0.8,2.5,0.2s0.8-1.7,0.2-2.5c-0.1-0.1-0.1-0.1-0.2-0.2C345.5,79.8,345,79.6,344.6,79.6"/>
						<polygon class="st14" points="353.1,78.8 353.1,84.1 349.4,80.8 349.4,83.9 348.5,83.9 348.5,78.6 352.1,82 352.1,78.8 						
							"/>
						<polygon class="st14" points="355.5,79.6 355.5,80.9 358.1,80.9 358.1,81.7 355.5,81.7 355.5,83.1 358.4,83.1 358.4,83.9 
							354.6,83.9 354.6,78.8 358.4,78.8 358.4,79.6 355.5,79.6 						"/>
					</g>
				</g>
			</g>
		</g>
	</g>
	<line class="st6" x1="340.8" y1="97.6" x2="340.8" y2="118.9"/>
	<polygon class="st8" points="335,102.2 336.1,103.2 340.8,98.1 345.5,103.2 346.5,102.2 340.8,96.1 	"/>
	<polygon class="st8" points="335,114.2 336.1,113.3 340.8,118.3 345.5,113.3 346.5,114.2 340.8,120.4 	"/>
	<line class="st6" x1="159" y1="190.1" x2="278.5" y2="190.1"/>
	<line class="st6" x1="159" y1="164.4" x2="278.5" y2="164.4"/>
	<path class="st9" d="M88.6,29.2c4.6-4.5,12.1-4.5,16.6,0.2s4.5,12.1-0.2,16.6S93,50.4,88.5,45.8c-2.1-2.2-3.4-5.1-3.4-8.2
		c0-2.6,0.8-5.1,2.4-7.1"/>
	<path class="st10" d="M96.5,43.2h-4.3c-0.6,0-0.8-0.2-0.8-0.8V36c0-0.6,0.2-0.8,0.8-0.8h8.5c0.6,0,0.8,0.2,0.8,0.8v6.5
		c0,0.5-0.2,0.8-0.8,0.8C99.3,43.3,97.9,43.2,96.5,43.2z"/>
	<path class="st10" d="M92.2,34.6c0-1.8,1-3.4,2.6-4.1c2.1-0.9,4.6,0,5.5,2.2c0.1,0.2,0.2,0.5,0.2,0.7c0.1,0.4,0.1,0.8,0.2,1.2"/>
	<path class="st8" d="M95.8,40.5L95.8,40.5v0.9c0,0.2,0.1,0.2,0.3,0.2h0.8c0.2,0,0.3-0.1,0.3-0.3v-1.6c0-0.2,0.1-0.3,0.2-0.4
		c0.5-0.3,0.8-0.9,0.6-1.5c-0.2-0.6-0.8-1-1.4-1c-0.7-0.1-1.3,0.3-1.6,0.9c-0.2,0.6,0,1.2,0.5,1.5c0.2,0.1,0.3,0.3,0.3,0.5
		C95.8,40,95.8,40.2,95.8,40.5z"/>
	<path class="st9" d="M331.5,29.2c4.6-4.6,12-4.5,16.6,0.1c4.6,4.6,4.5,12-0.1,16.6s-12,4.5-16.6-0.1c-2.2-2.2-3.4-5.1-3.4-8.2
		c0-2.6,0.8-5.1,2.4-7.1"/>
	<path class="st10" d="M339.4,43.2h-4.2c-0.6,0-0.8-0.2-0.8-0.8V36c0-0.6,0.2-0.8,0.8-0.8h8.5c0.5,0,0.8,0.2,0.8,0.8v6.5
		c0,0.5-0.2,0.8-0.8,0.8C342.2,43.3,340.8,43.2,339.4,43.2z"/>
	<path class="st10" d="M335,34.6c0-1.8,1-3.4,2.6-4.1c2.1-0.9,4.6,0,5.5,2.1c0.1,0.2,0.2,0.5,0.2,0.7c0.1,0.4,0.1,0.8,0.2,1.2"/>
	<path class="st8" d="M338.7,40.5L338.7,40.5v0.9c0,0.2,0.1,0.2,0.3,0.2h0.8c0.2,0,0.3-0.1,0.3-0.3v-1.6c0-0.2,0.1-0.3,0.2-0.4
		c0.5-0.3,0.8-0.9,0.6-1.5c-0.2-0.6-0.8-1-1.5-1c-0.7-0.1-1.3,0.3-1.6,0.9c-0.2,0.6,0,1.2,0.5,1.5c0.2,0.1,0.3,0.3,0.3,0.5
		C338.7,40,338.7,40.2,338.7,40.5z"/>
	<line class="st23" x1="150.2" y1="177.2" x2="287.9" y2="177.2"/>
	<polygon class="st8" points="154.8,182.9 155.8,181.9 150.7,177.2 155.8,172.5 154.8,171.5 148.7,177.2 	"/>
	<polygon class="st8" points="283.3,182.9 282.3,181.9 287.4,177.2 282.3,172.5 283.3,171.5 289.4,177.2 	"/>
</g>
<g id="schrift">
	<g class="st7">
		<path class="st8" d="M195.4,149.2v2.3h-1.3l-0.1-1h-1.6v6l0.9,0.2v1h-3.6v-1l0.9-0.2v-6h-1.6l-0.1,1h-1.3v-2.3H195.4z"/>
		<path class="st8" d="M196,157.7v-1l0.9-0.2v-6.1l-0.9-0.2v-1h0.9h1.7h0.9v1l-0.9,0.2v6h2.4l0.1-1.1h1.3v2.4H196z"/>
		<path class="st8" d="M209.6,151.9h-1.3l-0.2-1.2c-0.2-0.1-0.4-0.2-0.7-0.2s-0.6-0.1-0.9-0.1c-0.5,0-0.8,0.1-1.1,0.3
			c-0.3,0.2-0.4,0.5-0.4,0.8c0,0.3,0.1,0.5,0.4,0.7c0.3,0.2,0.7,0.4,1.4,0.6c1,0.3,1.7,0.6,2.2,1s0.7,1,0.7,1.7
			c0,0.7-0.3,1.3-0.9,1.7s-1.4,0.6-2.3,0.6c-0.7,0-1.3-0.1-1.8-0.3s-1-0.5-1.4-0.9v-1.8h1.3l0.2,1.2c0.2,0.1,0.4,0.3,0.7,0.3
			s0.6,0.1,1,0.1c0.5,0,0.8-0.1,1.1-0.3s0.4-0.4,0.4-0.8c0-0.3-0.1-0.6-0.4-0.8c-0.2-0.2-0.6-0.4-1.2-0.6c-1-0.3-1.8-0.6-2.3-1
			c-0.5-0.4-0.8-1-0.8-1.7c0-0.7,0.3-1.3,0.9-1.7s1.3-0.7,2.2-0.7c0.7,0,1.3,0.1,1.8,0.3s1,0.5,1.4,0.8V151.9z"/>
		<path class="st8" d="M214.2,154.7h-3.3v-1.3h3.3V154.7z"/>
		<path class="st8" d="M221.5,154.7c0,0.9-0.2,1.7-0.6,2.3s-1,0.8-1.8,0.8c-0.4,0-0.7-0.1-1-0.2c-0.3-0.2-0.5-0.4-0.7-0.7l-0.1,0.8
			h-1.5v-7.9l-0.9-0.2v-1h2.6v3.5c0.2-0.3,0.4-0.4,0.7-0.6s0.6-0.2,0.9-0.2c0.8,0,1.4,0.3,1.9,0.9s0.6,1.4,0.6,2.4V154.7z
			 M219.7,154.6c0-0.6-0.1-1.1-0.3-1.5s-0.5-0.5-0.9-0.5c-0.3,0-0.5,0.1-0.7,0.2c-0.2,0.1-0.3,0.3-0.4,0.5v2.7
			c0.1,0.2,0.3,0.3,0.4,0.4c0.2,0.1,0.4,0.2,0.7,0.2c0.4,0,0.8-0.2,0.9-0.5c0.2-0.3,0.3-0.8,0.3-1.3V154.6z"/>
		<path class="st8" d="M226.3,157.7c0-0.1-0.1-0.2-0.1-0.3s-0.1-0.2-0.1-0.3c-0.2,0.2-0.5,0.4-0.7,0.6c-0.3,0.1-0.6,0.2-1,0.2
			c-0.6,0-1.1-0.2-1.5-0.5s-0.6-0.8-0.6-1.4c0-0.6,0.2-1.1,0.7-1.4c0.5-0.3,1.2-0.5,2.1-0.5h0.9v-0.6c0-0.3-0.1-0.5-0.3-0.7
			s-0.4-0.3-0.8-0.3c-0.2,0-0.4,0-0.5,0.1s-0.3,0.1-0.4,0.2l-0.1,0.7h-1.3l0-1.4c0.3-0.2,0.7-0.4,1.1-0.5s0.9-0.2,1.3-0.2
			c0.8,0,1.4,0.2,1.9,0.6s0.7,0.9,0.7,1.6v2.6c0,0.1,0,0.2,0,0.3c0,0.1,0,0.2,0,0.2l0.5,0.1v1H226.3z M224.8,156.6
			c0.3,0,0.5-0.1,0.7-0.2c0.2-0.1,0.4-0.3,0.5-0.4v-1h-0.9c-0.4,0-0.6,0.1-0.8,0.3c-0.2,0.2-0.3,0.4-0.3,0.6c0,0.2,0.1,0.4,0.2,0.5
			S224.6,156.6,224.8,156.6z"/>
		<path class="st8" d="M234.1,153.6H233l-0.2-0.8c-0.1-0.1-0.3-0.2-0.4-0.2s-0.4-0.1-0.6-0.1c-0.3,0-0.5,0.1-0.7,0.2
			c-0.2,0.1-0.3,0.3-0.3,0.5c0,0.2,0.1,0.4,0.3,0.5c0.2,0.1,0.5,0.2,1,0.3c0.8,0.2,1.4,0.4,1.8,0.7c0.4,0.3,0.6,0.7,0.6,1.3
			c0,0.6-0.2,1-0.7,1.4s-1.1,0.5-2,0.5c-0.5,0-0.9-0.1-1.4-0.2s-0.8-0.3-1.1-0.6l0-1.4h1.2l0.2,0.8c0.1,0.1,0.2,0.1,0.4,0.2
			c0.2,0,0.4,0.1,0.6,0.1c0.4,0,0.6-0.1,0.8-0.2s0.3-0.3,0.3-0.5c0-0.2-0.1-0.3-0.3-0.5c-0.2-0.1-0.5-0.3-1-0.4
			c-0.8-0.2-1.3-0.4-1.7-0.7s-0.6-0.7-0.6-1.2c0-0.5,0.2-1,0.7-1.4s1.1-0.6,1.9-0.6c0.5,0,1,0.1,1.4,0.2c0.4,0.1,0.8,0.3,1,0.5
			L234.1,153.6z"/>
		<path class="st8" d="M238.2,157.8c-0.9,0-1.7-0.3-2.2-0.9s-0.8-1.3-0.8-2.2v-0.2c0-0.9,0.3-1.7,0.8-2.3c0.5-0.6,1.2-0.9,2.1-0.9
			c0.9,0,1.5,0.3,2,0.8c0.5,0.5,0.7,1.2,0.7,2.1v0.9H237l0,0c0,0.4,0.2,0.8,0.4,1s0.6,0.4,1,0.4c0.4,0,0.7,0,1-0.1s0.5-0.2,0.8-0.4
			l0.5,1.1c-0.3,0.2-0.6,0.4-1,0.5C239.2,157.8,238.7,157.8,238.2,157.8z M238.1,152.6c-0.3,0-0.6,0.1-0.8,0.4s-0.3,0.6-0.3,1l0,0
			h2.1v-0.2c0-0.4-0.1-0.7-0.3-0.9C238.7,152.7,238.4,152.6,238.1,152.6z"/>
		<path class="st8" d="M245.8,156.9c-0.2,0.3-0.4,0.5-0.7,0.7c-0.3,0.2-0.6,0.2-0.9,0.2c-0.8,0-1.4-0.3-1.8-0.9
			c-0.4-0.6-0.7-1.3-0.7-2.3v-0.1c0-1,0.2-1.8,0.7-2.4c0.4-0.6,1.1-0.9,1.8-0.9c0.3,0,0.6,0.1,0.9,0.2s0.5,0.3,0.7,0.6v-2.3
			l-0.9-0.2v-1h0.9h1.7v7.9l0.8,0.2v1h-2.3L245.8,156.9z M243.4,154.7c0,0.6,0.1,1,0.3,1.3c0.2,0.3,0.5,0.5,0.9,0.5
			c0.3,0,0.5-0.1,0.7-0.2s0.3-0.2,0.5-0.4v-2.7c-0.1-0.2-0.3-0.4-0.5-0.5s-0.4-0.2-0.6-0.2c-0.4,0-0.7,0.2-0.9,0.6s-0.3,0.9-0.3,1.5
			V154.7z"/>
	</g>
	<g class="st7">
		<path class="st8" d="M191.6,205.7c0-0.1-0.1-0.2-0.1-0.3c0-0.1-0.1-0.2-0.1-0.3c-0.2,0.2-0.5,0.4-0.7,0.6s-0.6,0.2-1,0.2
			c-0.6,0-1.1-0.2-1.5-0.5s-0.6-0.8-0.6-1.4c0-0.6,0.2-1.1,0.7-1.4c0.5-0.3,1.2-0.5,2.1-0.5h0.9v-0.6c0-0.3-0.1-0.5-0.3-0.7
			s-0.4-0.3-0.8-0.3c-0.2,0-0.4,0-0.5,0.1s-0.3,0.1-0.4,0.2l-0.1,0.7H188l0-1.4c0.3-0.2,0.7-0.4,1.1-0.5s0.9-0.2,1.3-0.2
			c0.8,0,1.4,0.2,1.9,0.6s0.7,0.9,0.7,1.6v2.6c0,0.1,0,0.2,0,0.3c0,0.1,0,0.2,0,0.2l0.5,0.1v1H191.6z M190.1,204.6
			c0.3,0,0.5-0.1,0.7-0.2c0.2-0.1,0.4-0.3,0.5-0.4v-1h-0.9c-0.4,0-0.6,0.1-0.8,0.3c-0.2,0.2-0.3,0.4-0.3,0.6c0,0.2,0.1,0.4,0.2,0.5
			S189.9,204.6,190.1,204.6z"/>
	</g>
	<g class="st7">
		<path class="st8" d="M196.3,197.8v1.6h1.1v1.2h-1.1v3.2c0,0.2,0.1,0.4,0.2,0.5s0.2,0.2,0.4,0.2c0.1,0,0.2,0,0.3,0s0.2,0,0.3,0
			l0.1,1.2c-0.2,0.1-0.4,0.1-0.6,0.1c-0.2,0-0.4,0-0.6,0c-0.6,0-1.1-0.2-1.4-0.5s-0.5-0.8-0.5-1.5v-3.2h-0.9v-1.2h0.9v-1.6H196.3z"
			/>
		<path class="st8" d="M200.8,197.8v1.6h1.1v1.2h-1.1v3.2c0,0.2,0.1,0.4,0.2,0.5s0.2,0.2,0.4,0.2c0.1,0,0.2,0,0.3,0s0.2,0,0.3,0
			l0.1,1.2c-0.2,0.1-0.4,0.1-0.6,0.1c-0.2,0-0.4,0-0.6,0c-0.6,0-1.1-0.2-1.4-0.5s-0.5-0.8-0.5-1.5v-3.2h-0.9v-1.2h0.9v-1.6H200.8z"
			/>
		<path class="st8" d="M205.8,205.8c-0.9,0-1.7-0.3-2.2-0.9s-0.8-1.3-0.8-2.2v-0.2c0-0.9,0.3-1.7,0.8-2.3c0.5-0.6,1.2-0.9,2.1-0.9
			c0.9,0,1.5,0.3,2,0.8c0.5,0.5,0.7,1.2,0.7,2.1v0.9h-3.8l0,0c0,0.4,0.2,0.8,0.4,1s0.6,0.4,1,0.4c0.4,0,0.7,0,1-0.1s0.5-0.2,0.8-0.4
			l0.5,1.1c-0.3,0.2-0.6,0.4-1,0.5C206.8,205.8,206.3,205.8,205.8,205.8z M205.7,200.6c-0.3,0-0.6,0.1-0.8,0.4s-0.3,0.6-0.3,1l0,0
			h2.1v-0.2c0-0.4-0.1-0.7-0.3-0.9C206.3,200.7,206,200.6,205.7,200.6z"/>
		<path class="st8" d="M214.4,201.6h-1.2l-0.2-0.8c-0.1-0.1-0.3-0.2-0.4-0.2s-0.4-0.1-0.6-0.1c-0.3,0-0.5,0.1-0.7,0.2
			c-0.2,0.1-0.3,0.3-0.3,0.5c0,0.2,0.1,0.4,0.3,0.5c0.2,0.1,0.5,0.2,1,0.3c0.8,0.2,1.4,0.4,1.8,0.7c0.4,0.3,0.6,0.7,0.6,1.3
			c0,0.6-0.2,1-0.7,1.4s-1.1,0.5-2,0.5c-0.5,0-0.9-0.1-1.4-0.2s-0.8-0.3-1.1-0.6l0-1.4h1.2l0.2,0.8c0.1,0.1,0.2,0.1,0.4,0.2
			c0.2,0,0.4,0.1,0.6,0.1c0.4,0,0.6-0.1,0.8-0.2c0.2-0.1,0.3-0.3,0.3-0.5c0-0.2-0.1-0.3-0.3-0.5c-0.2-0.1-0.5-0.3-1-0.4
			c-0.8-0.2-1.3-0.4-1.7-0.7c-0.4-0.3-0.6-0.7-0.6-1.2c0-0.5,0.2-1,0.7-1.4s1.1-0.6,1.9-0.6c0.5,0,1,0.1,1.4,0.2s0.8,0.3,1,0.5
			L214.4,201.6z"/>
		<path class="st8" d="M218,197.8v1.6h1.1v1.2H218v3.2c0,0.2,0.1,0.4,0.2,0.5s0.2,0.2,0.4,0.2c0.1,0,0.2,0,0.3,0s0.2,0,0.3,0
			l0.1,1.2c-0.2,0.1-0.4,0.1-0.6,0.1c-0.2,0-0.4,0-0.6,0c-0.6,0-1.1-0.2-1.4-0.5s-0.5-0.8-0.5-1.5v-3.2h-0.9v-1.2h0.9v-1.6H218z"/>
	</g>
	<g class="st7">
		<path class="st8" d="M224.1,205.7c0-0.1-0.1-0.2-0.1-0.3s-0.1-0.2-0.1-0.3c-0.2,0.2-0.5,0.4-0.7,0.6s-0.6,0.2-1,0.2
			c-0.6,0-1.1-0.2-1.5-0.5s-0.6-0.8-0.6-1.4c0-0.6,0.2-1.1,0.7-1.4c0.5-0.3,1.2-0.5,2.1-0.5h0.9v-0.6c0-0.3-0.1-0.5-0.3-0.7
			s-0.4-0.3-0.8-0.3c-0.2,0-0.4,0-0.5,0.1c-0.2,0-0.3,0.1-0.4,0.2l-0.1,0.7h-1.3l0-1.4c0.3-0.2,0.7-0.4,1.1-0.5s0.9-0.2,1.3-0.2
			c0.8,0,1.4,0.2,1.9,0.6c0.5,0.4,0.7,0.9,0.7,1.6v2.6c0,0.1,0,0.2,0,0.3c0,0.1,0,0.2,0,0.2l0.5,0.1v1H224.1z M222.6,204.6
			c0.3,0,0.5-0.1,0.7-0.2s0.4-0.3,0.5-0.4v-1h-0.9c-0.4,0-0.6,0.1-0.8,0.3c-0.2,0.2-0.3,0.4-0.3,0.6c0,0.2,0.1,0.4,0.2,0.5
			C222.1,204.5,222.3,204.6,222.6,204.6z"/>
	</g>
	<g class="st7">
		<path class="st8" d="M228.7,197.8v1.6h1.1v1.2h-1.1v3.2c0,0.2,0.1,0.4,0.2,0.5s0.2,0.2,0.4,0.2c0.1,0,0.2,0,0.3,0
			c0.1,0,0.2,0,0.3,0l0.1,1.2c-0.2,0.1-0.4,0.1-0.6,0.1c-0.2,0-0.4,0-0.6,0c-0.6,0-1.1-0.2-1.4-0.5s-0.5-0.8-0.5-1.5v-3.2H226v-1.2
			h0.9v-1.6H228.7z"/>
		<path class="st8" d="M230.6,204.7l0.8-0.2v-3.9l-0.9-0.2v-1h2.7v5.1l0.8,0.2v1h-3.4V204.7z M233.2,197.9h-1.7v-1.3h1.7V197.9z"/>
		<path class="st8" d="M234.6,202.5c0-0.9,0.3-1.7,0.8-2.3c0.5-0.6,1.3-0.9,2.2-0.9c0.9,0,1.7,0.3,2.2,0.9c0.5,0.6,0.8,1.4,0.8,2.3
			v0.1c0,1-0.3,1.7-0.8,2.3c-0.5,0.6-1.3,0.9-2.2,0.9c-1,0-1.7-0.3-2.2-0.9c-0.5-0.6-0.8-1.4-0.8-2.3V202.5z M236.3,202.6
			c0,0.6,0.1,1,0.3,1.4s0.5,0.5,1,0.5c0.4,0,0.8-0.2,1-0.5s0.3-0.8,0.3-1.4v-0.1c0-0.6-0.1-1-0.3-1.4s-0.5-0.5-1-0.5s-0.8,0.2-1,0.5
			s-0.3,0.8-0.3,1.4V202.6z"/>
		<path class="st8" d="M241.3,204.7l0.8-0.2v-3.9l-0.9-0.2v-1h2.5l0.1,0.9c0.2-0.3,0.5-0.6,0.8-0.8s0.7-0.3,1-0.3
			c0.6,0,1.2,0.2,1.5,0.6c0.4,0.4,0.5,1,0.5,1.9v2.8l0.8,0.2v1h-3.3v-1l0.7-0.2v-2.8c0-0.4-0.1-0.7-0.3-0.9s-0.4-0.3-0.8-0.3
			c-0.2,0-0.4,0-0.6,0.1s-0.3,0.2-0.5,0.4v3.4l0.7,0.2v1h-3.3V204.7z"/>
	</g>
</g>
<g id="Ebene_4">
	<g class="st7">
		<path class="st24" d="M52.2,62.2h-1.3l-0.2-1.1c-0.2-0.2-0.4-0.3-0.6-0.4s-0.6-0.1-0.9-0.1c-0.7,0-1.3,0.3-1.7,0.8
			s-0.6,1.2-0.6,2.1v0.3c0,0.9,0.2,1.6,0.6,2.1s1,0.8,1.7,0.8c0.3,0,0.6,0,0.9-0.1s0.5-0.2,0.6-0.4l0.2-1.1h1.3v1.7
			c-0.3,0.4-0.8,0.7-1.3,1S49.7,68,49.1,68c-1.1,0-2.1-0.4-2.8-1.2s-1.1-1.8-1.1-3.1v-0.3c0-1.2,0.4-2.3,1.1-3.1s1.7-1.2,2.8-1.2
			c0.7,0,1.3,0.1,1.8,0.4s1,0.6,1.3,1V62.2z"/>
		<path class="st24" d="M52.9,66.9l0.6-0.1l2.6-7.4h1.8l2.6,7.4l0.6,0.1v1h-2.9v-1l0.6-0.1l-0.4-1.2h-2.8l-0.4,1.2l0.6,0.1v1h-2.9
			V66.9z M56,64.3h2l-1-3h0L56,64.3z"/>
		<path class="st24" d="M68.1,62.1h-1.3l-0.2-1.2c-0.1-0.1-0.4-0.2-0.7-0.2s-0.6-0.1-0.9-0.1c-0.5,0-0.8,0.1-1.1,0.3
			s-0.4,0.5-0.4,0.8c0,0.3,0.1,0.5,0.4,0.7s0.7,0.4,1.4,0.6c0.9,0.3,1.7,0.6,2.1,1s0.7,1,0.7,1.7c0,0.7-0.3,1.3-0.9,1.7S66,68,65,68
			c-0.7,0-1.3-0.1-1.8-0.3s-1-0.5-1.4-0.9V65h1.3l0.2,1.2c0.2,0.1,0.4,0.3,0.7,0.3s0.6,0.1,1,0.1c0.5,0,0.8-0.1,1.1-0.3
			s0.4-0.4,0.4-0.8c0-0.3-0.1-0.6-0.3-0.8s-0.6-0.4-1.2-0.6c-1-0.3-1.8-0.6-2.3-1s-0.8-1-0.8-1.7c0-0.7,0.3-1.3,0.9-1.7
			s1.3-0.7,2.2-0.7c0.7,0,1.3,0.1,1.8,0.3s1,0.5,1.4,0.8V62.1z"/>
	</g>
	<path class="st25" d="M148.5,63h-10.2c-0.6-2.5-3.2-4.1-5.7-3.4c-2.5,0.6-4.1,3.2-3.4,5.7s3.2,4.1,5.7,3.4c1.7-0.4,3-1.7,3.4-3.4h3
		l1.4,1.4l1.3-1.3h0.2l0.9,0.9l0.8-0.8l1.3,1.3l1.4-1.5l1.1-1L148.5,63z M149.9,65.4c-0.7,0-1.3-0.5-1.3-1.2c0-0.7,0.5-1.3,1.2-1.3
		s1.3,0.5,1.3,1.2c0,0,0,0,0,0C151.2,64.8,150.6,65.4,149.9,65.4C149.9,65.4,149.9,65.4,149.9,65.4L149.9,65.4z"/>
	<path class="st26" d="M121.7,63h-10.2c-0.6-2.5-3.2-4.1-5.7-3.4c-2.5,0.6-4.1,3.2-3.4,5.7c0.6,2.5,3.2,4.1,5.7,3.4
		c1.7-0.4,3-1.7,3.4-3.4h3l1.4,1.4l1.3-1.4h0.2l0.9,0.9l0.8-0.8l1.3,1.3l1.4-1.5l1.1-1L121.7,63z M105.1,65.4
		c-0.7,0-1.3-0.6-1.3-1.3c0-0.7,0.6-1.3,1.3-1.3s1.3,0.6,1.3,1.3C106.3,64.8,105.8,65.4,105.1,65.4z"/>
	<path class="st27" d="M94.9,63H84.7c-0.6-2.5-3.2-4.1-5.7-3.4c-2.5,0.6-4.1,3.2-3.4,5.7c0.6,2.5,3.2,4.1,5.7,3.4
		c1.7-0.4,3-1.7,3.4-3.4h3l1.3,1.4l1.4-1.4h0.2l0.9,0.9l0.8-0.8l1.3,1.3l1.5-1.5l1.1-1L94.9,63z M78.3,65.4c-0.7,0-1.3-0.6-1.3-1.3
		c0-0.7,0.6-1.3,1.3-1.3s1.3,0.6,1.3,1.3C79.5,64.8,79,65.4,78.3,65.4z"/>
	<g class="st7">
		<path class="st24" d="M294.3,62.2H293l-0.2-1.1c-0.2-0.2-0.4-0.3-0.6-0.4s-0.6-0.1-0.9-0.1c-0.7,0-1.3,0.3-1.7,0.8
			s-0.6,1.2-0.6,2.1v0.3c0,0.9,0.2,1.6,0.6,2.1s1,0.8,1.7,0.8c0.3,0,0.6,0,0.9-0.1s0.5-0.2,0.6-0.4L293,65h1.3v1.7
			c-0.3,0.4-0.8,0.7-1.3,1s-1.1,0.4-1.8,0.4c-1.1,0-2.1-0.4-2.8-1.2s-1.1-1.8-1.1-3.1v-0.3c0-1.2,0.4-2.3,1.1-3.1s1.7-1.2,2.8-1.2
			c0.7,0,1.3,0.1,1.8,0.4s1,0.6,1.3,1V62.2z"/>
		<path class="st24" d="M295,66.9l0.6-0.1l2.6-7.4h1.8l2.6,7.4l0.6,0.1v1h-2.9v-1l0.6-0.1l-0.4-1.2h-2.8l-0.4,1.2l0.6,0.1v1H295
			V66.9z M298.1,64.3h2l-1-3h0L298.1,64.3z"/>
		<path class="st24" d="M310.2,62.1h-1.3l-0.2-1.2c-0.1-0.1-0.4-0.2-0.7-0.2s-0.6-0.1-0.9-0.1c-0.5,0-0.8,0.1-1.1,0.3
			s-0.4,0.5-0.4,0.8c0,0.3,0.1,0.5,0.4,0.7s0.7,0.4,1.4,0.6c0.9,0.3,1.7,0.6,2.1,1s0.7,1,0.7,1.7c0,0.7-0.3,1.3-0.9,1.7
			s-1.3,0.6-2.3,0.6c-0.7,0-1.3-0.1-1.8-0.3s-1-0.5-1.4-0.9V65h1.3l0.2,1.2c0.2,0.1,0.4,0.3,0.7,0.3s0.6,0.1,1,0.1
			c0.5,0,0.8-0.1,1.1-0.3s0.4-0.4,0.4-0.8c0-0.3-0.1-0.6-0.3-0.8s-0.6-0.4-1.2-0.6c-1-0.3-1.8-0.6-2.3-1s-0.8-1-0.8-1.7
			c0-0.7,0.3-1.3,0.9-1.7s1.3-0.7,2.2-0.7c0.7,0,1.3,0.1,1.8,0.3s1,0.5,1.4,0.8V62.1z"/>
	</g>
	<path class="st25" d="M390.6,63h-10.2c-0.6-2.5-3.2-4.1-5.7-3.4c-2.5,0.6-4.1,3.2-3.4,5.7c0.6,2.5,3.2,4.1,5.7,3.4
		c1.7-0.4,3-1.7,3.4-3.4h3l1.4,1.4l1.4-1.4h0.2l0.9,0.9l0.8-0.8l1.3,1.3l1.5-1.5l1.1-1L390.6,63z M392,65.4c-0.7,0-1.3-0.6-1.3-1.3
		c0-0.7,0.6-1.3,1.3-1.3s1.3,0.6,1.3,1.3C393.3,64.8,392.7,65.4,392,65.4C392,65.4,392,65.4,392,65.4z"/>
	<path class="st26" d="M363.8,63h-10.2c-0.6-2.5-3.2-4.1-5.7-3.4c-2.5,0.6-4.1,3.2-3.4,5.7c0.6,2.5,3.2,4.1,5.7,3.4
		c1.7-0.4,3-1.7,3.4-3.4h3l1.4,1.4l1.4-1.4h0.2l0.9,0.9l0.8-0.8l1.3,1.3l1.5-1.5l1.1-1L363.8,63z M347.2,65.4
		c-0.7,0-1.3-0.6-1.3-1.3c0-0.7,0.6-1.3,1.3-1.3s1.3,0.6,1.3,1.3C348.5,64.8,347.9,65.4,347.2,65.4
		C347.2,65.4,347.2,65.4,347.2,65.4L347.2,65.4z"/>
	<path class="st27" d="M337,63h-10.2c-0.6-2.5-3.2-4.1-5.7-3.4c-2.5,0.6-4.1,3.2-3.4,5.7c0.6,2.5,3.2,4.1,5.7,3.4
		c1.7-0.4,3-1.7,3.4-3.4h3l1.4,1.4l1.4-1.4h0.2l0.9,0.9l0.8-0.8l1.3,1.3l1.5-1.5l1.1-1L337,63z M320.4,65.4c-0.7,0-1.3-0.5-1.3-1.2
		c0-0.7,0.5-1.3,1.2-1.3s1.3,0.5,1.3,1.2c0,0,0,0,0,0C321.7,64.8,321.1,65.4,320.4,65.4C320.4,65.4,320.4,65.4,320.4,65.4
		L320.4,65.4z"/>
	<g class="st7">
		<path class="st28" d="M78.8,240.4v-1h2.5l0.1,0.7c0.2-0.3,0.4-0.5,0.7-0.6s0.6-0.2,0.9-0.2c0.8,0,1.4,0.3,1.8,0.9s0.7,1.4,0.7,2.4
			v0.1c0,0.9-0.2,1.7-0.7,2.3s-1,0.9-1.8,0.9c-0.3,0-0.6-0.1-0.9-0.2s-0.5-0.3-0.7-0.5v1.8l0.8,0.2v1h-3.4v-1l0.8-0.2v-6.4
			L78.8,240.4z M83.8,242.5c0-0.6-0.1-1.1-0.3-1.5s-0.5-0.6-0.9-0.6c-0.3,0-0.5,0.1-0.7,0.2s-0.3,0.3-0.4,0.5v2.8
			c0.1,0.2,0.2,0.3,0.4,0.4s0.4,0.1,0.7,0.1c0.4,0,0.7-0.2,0.9-0.5s0.3-0.8,0.3-1.3V242.5z"/>
		<path class="st28" d="M89.3,245.8c-0.9,0-1.6-0.3-2.2-0.9s-0.8-1.3-0.8-2.2v-0.2c0-0.9,0.3-1.7,0.8-2.3s1.2-0.9,2.1-0.9
			c0.9,0,1.5,0.3,2,0.8s0.7,1.2,0.7,2.1v0.9H88l0,0c0,0.4,0.2,0.8,0.4,1s0.6,0.4,1,0.4c0.4,0,0.7,0,0.9-0.1s0.5-0.2,0.8-0.4l0.5,1.1
			c-0.3,0.2-0.6,0.4-1,0.5S89.8,245.8,89.3,245.8z M89.1,240.5c-0.3,0-0.6,0.1-0.8,0.4s-0.3,0.6-0.3,1l0,0h2.1v-0.2
			c0-0.4-0.1-0.7-0.3-0.9S89.5,240.5,89.1,240.5z"/>
		<path class="st28" d="M95.7,245.8c-0.9,0-1.6-0.3-2.2-0.9s-0.8-1.3-0.8-2.2v-0.2c0-0.9,0.3-1.7,0.8-2.3s1.2-0.9,2.1-0.9
			c0.9,0,1.5,0.3,2,0.8s0.7,1.2,0.7,2.1v0.9h-3.8l0,0c0,0.4,0.2,0.8,0.4,1s0.6,0.4,1,0.4c0.4,0,0.7,0,0.9-0.1s0.5-0.2,0.8-0.4
			l0.5,1.1c-0.3,0.2-0.6,0.4-1,0.5S96.2,245.8,95.7,245.8z M95.5,240.5c-0.3,0-0.6,0.1-0.8,0.4s-0.3,0.6-0.3,1l0,0h2.1v-0.2
			c0-0.4-0.1-0.7-0.3-0.9S95.9,240.5,95.5,240.5z"/>
		<path class="st28" d="M99.1,244.6l0.8-0.2v-3.9l-0.9-0.2v-1h2.5l0.1,0.9c0.1-0.3,0.3-0.6,0.6-0.8s0.5-0.3,0.8-0.3
			c0.1,0,0.2,0,0.3,0s0.2,0,0.2,0l-0.2,1.6l-0.7,0c-0.3,0-0.5,0-0.6,0.1s-0.3,0.2-0.4,0.4v3.1l0.8,0.2v1h-3.4V244.6z"/>
		<path class="st28" d="M106.9,244.6l0.6-0.1l2.6-7.4h1.8l2.6,7.4l0.6,0.1v1h-2.9v-1l0.6-0.1l-0.4-1.2h-2.8l-0.4,1.2l0.6,0.1v1h-2.9
			V244.6z M110,242.1h2l-1-3h0L110,242.1z"/>
	</g>
	<g class="st7">
		<path class="st25" d="M323,240.4v-1h2.5l0.1,0.7c0.2-0.3,0.4-0.5,0.7-0.6s0.6-0.2,0.9-0.2c0.8,0,1.4,0.3,1.8,0.9s0.7,1.4,0.7,2.4
			v0.1c0,0.9-0.2,1.7-0.7,2.3s-1,0.9-1.8,0.9c-0.3,0-0.6-0.1-0.9-0.2s-0.5-0.3-0.7-0.5v1.8l0.8,0.2v1h-3.4v-1l0.8-0.2v-6.4
			L323,240.4z M327.9,242.5c0-0.6-0.1-1.1-0.3-1.5s-0.5-0.6-0.9-0.6c-0.3,0-0.5,0.1-0.7,0.2s-0.3,0.3-0.4,0.5v2.8
			c0.1,0.2,0.2,0.3,0.4,0.4s0.4,0.1,0.7,0.1c0.4,0,0.7-0.2,0.9-0.5s0.3-0.8,0.3-1.3V242.5z"/>
		<path class="st25" d="M333.4,245.8c-0.9,0-1.6-0.3-2.2-0.9s-0.8-1.3-0.8-2.2v-0.2c0-0.9,0.3-1.7,0.8-2.3s1.2-0.9,2.1-0.9
			c0.9,0,1.5,0.3,2,0.8s0.7,1.2,0.7,2.1v0.9h-3.8l0,0c0,0.4,0.2,0.8,0.4,1s0.6,0.4,1,0.4c0.4,0,0.7,0,0.9-0.1s0.5-0.2,0.8-0.4
			l0.5,1.1c-0.3,0.2-0.6,0.4-1,0.5S333.9,245.8,333.4,245.8z M333.3,240.5c-0.3,0-0.6,0.1-0.8,0.4s-0.3,0.6-0.3,1l0,0h2.1v-0.2
			c0-0.4-0.1-0.7-0.3-0.9S333.6,240.5,333.3,240.5z"/>
		<path class="st25" d="M339.8,245.8c-0.9,0-1.6-0.3-2.2-0.9s-0.8-1.3-0.8-2.2v-0.2c0-0.9,0.3-1.7,0.8-2.3s1.2-0.9,2.1-0.9
			c0.9,0,1.5,0.3,2,0.8s0.7,1.2,0.7,2.1v0.9h-3.8l0,0c0,0.4,0.2,0.8,0.4,1s0.6,0.4,1,0.4c0.4,0,0.7,0,0.9-0.1s0.5-0.2,0.8-0.4
			l0.5,1.1c-0.3,0.2-0.6,0.4-1,0.5S340.3,245.8,339.8,245.8z M339.7,240.5c-0.3,0-0.6,0.1-0.8,0.4s-0.3,0.6-0.3,1l0,0h2.1v-0.2
			c0-0.4-0.1-0.7-0.3-0.9S340,240.5,339.7,240.5z"/>
		<path class="st25" d="M343.3,244.6l0.8-0.2v-3.9l-0.9-0.2v-1h2.5l0.1,0.9c0.1-0.3,0.3-0.6,0.6-0.8s0.5-0.3,0.8-0.3
			c0.1,0,0.2,0,0.3,0s0.2,0,0.2,0l-0.2,1.6l-0.7,0c-0.3,0-0.5,0-0.6,0.1s-0.3,0.2-0.4,0.4v3.1l0.8,0.2v1h-3.4V244.6z"/>
		<path class="st25" d="M354.9,237.1c1,0,1.8,0.2,2.3,0.6s0.8,1,0.8,1.8c0,0.4-0.1,0.7-0.3,1.1s-0.5,0.5-0.9,0.7
			c0.5,0.1,0.9,0.3,1.2,0.7s0.4,0.8,0.4,1.2c0,0.8-0.3,1.4-0.8,1.9s-1.3,0.6-2.3,0.6h-4.2v-1l0.9-0.2v-6.1l-0.9-0.2v-1h0.9H354.9z
			 M353.7,240.7h1.2c0.5,0,0.8-0.1,1.1-0.3s0.4-0.5,0.4-0.8c0-0.4-0.1-0.7-0.4-0.9s-0.6-0.3-1.1-0.3h-1.2V240.7z M353.7,241.9v2.5
			h1.6c0.5,0,0.8-0.1,1-0.3s0.4-0.5,0.4-0.9c0-0.4-0.1-0.7-0.3-1s-0.5-0.3-1-0.3H353.7z"/>
	</g>
</g>
</svg>
