<?xml version="1.0" encoding="utf-8"?>
<!-- Generator: Adobe Illustrator 24.0.0, SVG Export Plug-In . SVG Version: 6.00 Build 0)  -->
<svg version="1.1" id="Ebene_1" xmlns="http://www.w3.org/2000/svg" xmlns:xlink="http://www.w3.org/1999/xlink" x="0px" y="0px"
	 viewBox="0 0 717.7 118.7" style="enable-background:new 0 0 717.7 118.7;" xml:space="preserve">
<style type="text/css">
	.st0{enable-background:new    ;}
	.st1{fill:#330066;}
	.st2{fill:none;stroke:#CC3300;stroke-width:2;stroke-miterlimit:10;stroke-dasharray:2,2;}
	.st3{fill:#CC3300;}
	.st4{fill:#FFFFFF;stroke:#CC3300;stroke-width:2;stroke-miterlimit:10;}
	.st5{fill:none;stroke:#CC3300;stroke-width:2;stroke-miterlimit:10;}
	.st6{fill:#FFFFFF;}
	.st7{fill:none;stroke:#330066;stroke-linejoin:round;}
	.st8{fill:none;stroke:#330066;stroke-linecap:round;stroke-linejoin:round;}
	.st9{fill:url(#SVGID_1_);stroke:#FFCC00;stroke-width:2;stroke-miterlimit:10;}
	.st10{fill:#FFCC00;}
	.st11{fill:none;stroke:#330066;stroke-width:2;stroke-miterlimit:10;}
</style>
<g id="Ebene_2_1_">
	<g class="st0">
		<path class="st1" d="M566.3,89.4l0.7-0.1l2.8-8h1.9l2.8,8l0.7,0.1v1.1H572v-1.1l0.6-0.1l-0.4-1.3h-3l-0.4,1.3l0.6,0.1v1.1h-3.1
			V89.4z M569.7,86.6h2.1l-1-3.3h0L569.7,86.6z"/>
	</g>
	<g class="st0">
		<path class="st1" d="M577.8,81.9v1.7h1.2v1.3h-1.2v3.5c0,0.3,0.1,0.5,0.2,0.6c0.1,0.1,0.3,0.2,0.4,0.2c0.1,0,0.2,0,0.3,0
			c0.1,0,0.2,0,0.3-0.1l0.2,1.3c-0.2,0.1-0.4,0.1-0.6,0.1c-0.2,0-0.4,0-0.7,0c-0.6,0-1.1-0.2-1.5-0.5s-0.5-0.9-0.5-1.7v-3.5h-1v-1.3
			h1v-1.7H577.8z"/>
		<path class="st1" d="M582.6,81.9v1.7h1.2v1.3h-1.2v3.5c0,0.3,0.1,0.5,0.2,0.6c0.1,0.1,0.3,0.2,0.4,0.2c0.1,0,0.2,0,0.3,0
			c0.1,0,0.2,0,0.3-0.1l0.2,1.3c-0.2,0.1-0.4,0.1-0.6,0.1c-0.2,0-0.4,0-0.7,0c-0.6,0-1.1-0.2-1.5-0.5s-0.5-0.9-0.5-1.7v-3.5h-1v-1.3
			h1v-1.7H582.6z"/>
		<path class="st1" d="M589.1,90.5c-0.1-0.1-0.1-0.2-0.1-0.4c0-0.1-0.1-0.2-0.1-0.4c-0.2,0.3-0.5,0.5-0.8,0.6s-0.7,0.2-1.1,0.2
			c-0.7,0-1.2-0.2-1.6-0.5c-0.4-0.4-0.6-0.9-0.6-1.5c0-0.6,0.3-1.1,0.8-1.5c0.5-0.4,1.3-0.5,2.3-0.5h0.9v-0.7c0-0.3-0.1-0.6-0.3-0.8
			s-0.5-0.3-0.8-0.3c-0.2,0-0.4,0-0.6,0.1s-0.3,0.1-0.4,0.2l-0.1,0.7h-1.4l0-1.5c0.3-0.2,0.7-0.4,1.2-0.6c0.4-0.2,0.9-0.2,1.4-0.2
			c0.9,0,1.5,0.2,2.1,0.6c0.5,0.4,0.8,1,0.8,1.8v2.8c0,0.1,0,0.2,0,0.3c0,0.1,0,0.2,0,0.3l0.6,0.1v1.1H589.1z M587.5,89.2
			c0.3,0,0.5-0.1,0.8-0.2c0.2-0.1,0.4-0.3,0.5-0.5v-1h-0.9c-0.4,0-0.7,0.1-0.9,0.3s-0.3,0.4-0.3,0.7c0,0.2,0.1,0.4,0.2,0.5
			S587.3,89.2,587.5,89.2z"/>
		<path class="st1" d="M595.1,89.2c0.3,0,0.6-0.1,0.8-0.3c0.2-0.2,0.3-0.4,0.3-0.8h1.7l0,0c0,0.7-0.2,1.3-0.8,1.7
			c-0.5,0.5-1.2,0.7-2,0.7c-1,0-1.8-0.3-2.4-1c-0.6-0.6-0.8-1.5-0.8-2.5V87c0-1,0.3-1.8,0.9-2.5c0.6-0.7,1.4-1,2.4-1
			c0.6,0,1.1,0.1,1.5,0.2c0.4,0.2,0.8,0.4,1.1,0.7l0,1.8h-1.5l-0.3-1.1c-0.1-0.1-0.2-0.1-0.3-0.2c-0.1-0.1-0.3-0.1-0.5-0.1
			c-0.5,0-0.9,0.2-1.1,0.6s-0.3,0.9-0.3,1.5v0.2c0,0.6,0.1,1.1,0.3,1.5C594.3,89,594.6,89.2,595.1,89.2z"/>
	</g>
	<g class="st0">
		<path class="st1" d="M598.5,81.7v-1.1h2.8v5.7h0.4l1.1-1.5l-0.6-0.1v-1.1h3.4v1.1l-0.8,0.2l-1.2,1.7l1.7,2.6l0.7,0.1v1.1h-3.2
			v-1.1l0.4-0.1l-1.1-1.7h-0.8v1.6l0.8,0.2v1.1h-3.5v-1.1l0.9-0.2v-7.3L598.5,81.7z"/>
	</g>
	<g class="st0">
		<path class="st1" d="M609.8,90.6c-1,0-1.8-0.3-2.4-1c-0.6-0.6-0.9-1.4-0.9-2.4V87c0-1,0.3-1.9,0.8-2.5s1.3-1,2.3-1
			c0.9,0,1.6,0.3,2.2,0.8c0.5,0.6,0.8,1.3,0.8,2.3v1h-4.1l0,0c0,0.5,0.2,0.8,0.5,1.1c0.3,0.3,0.6,0.4,1.1,0.4c0.4,0,0.8,0,1-0.1
			c0.3-0.1,0.6-0.2,0.9-0.4l0.5,1.1c-0.3,0.2-0.7,0.4-1.1,0.6C610.9,90.5,610.4,90.6,609.8,90.6z M609.7,84.9
			c-0.3,0-0.6,0.1-0.8,0.4c-0.2,0.3-0.3,0.6-0.4,1l0,0h2.3v-0.2c0-0.4-0.1-0.7-0.3-0.9C610.3,85,610,84.9,609.7,84.9z"/>
		<path class="st1" d="M613.6,89.4l0.9-0.2v-4.3l-1-0.2v-1.1h2.7l0.1,1c0.2-0.4,0.4-0.6,0.6-0.8s0.5-0.3,0.9-0.3c0.1,0,0.2,0,0.3,0
			c0.1,0,0.2,0,0.3,0.1l-0.2,1.7l-0.8,0c-0.3,0-0.5,0.1-0.7,0.2s-0.3,0.3-0.4,0.5v3.3l0.9,0.2v1.1h-3.6V89.4z"/>
	</g>
	<g class="st0">
		<path class="st1" d="M517.7,102.3c0-1.7,0.3-3.1,1-4.3s1.4-2,2.1-2.4l0,0l0.2,0.7c-0.6,0.5-1.1,1.2-1.5,2.2
			c-0.4,1-0.6,2.2-0.6,3.7v0.1c0,1.5,0.2,2.7,0.6,3.7c0.4,1,0.9,1.7,1.5,2.2l-0.2,0.7h0c-0.7-0.4-1.4-1.2-2.1-2.4
			S517.7,104.1,517.7,102.3L517.7,102.3z"/>
		<path class="st1" d="M521.4,105.3l1-0.2v-4.9l-1-0.2v-0.8h2.2l0.1,0.9c0.2-0.3,0.5-0.6,0.9-0.8c0.3-0.2,0.7-0.3,1.2-0.3
			s0.8,0.1,1.2,0.3c0.3,0.2,0.6,0.5,0.7,1c0.2-0.4,0.5-0.7,0.9-0.9s0.8-0.3,1.2-0.3c0.7,0,1.3,0.2,1.7,0.7s0.6,1.2,0.6,2.2v3.1
			l1,0.2v0.8h-3.3v-0.8l1-0.2V102c0-0.7-0.1-1.2-0.3-1.4c-0.2-0.3-0.6-0.4-1-0.4c-0.4,0-0.8,0.2-1.1,0.5c-0.3,0.3-0.4,0.7-0.5,1.2
			v3.4l1,0.2v0.8h-3.3v-0.8l1-0.2V102c0-0.6-0.1-1.1-0.4-1.4c-0.2-0.3-0.6-0.4-1-0.4c-0.4,0-0.7,0.1-0.9,0.2
			c-0.2,0.2-0.4,0.4-0.6,0.7v4.1l1,0.2v0.8h-3.3V105.3z"/>
		<path class="st1" d="M534,105.3l1-0.2v-4.9l-1-0.2v-0.8h2.3v5.9l1,0.2v0.8H534V105.3z M536.3,97.5H535v-1.3h1.3V97.5z"/>
		<path class="st1" d="M538.3,102.8c0-1.1,0.2-2,0.7-2.7s1.1-1,2-1c0.4,0,0.8,0.1,1.1,0.3c0.3,0.2,0.6,0.4,0.8,0.7l0.1-0.9h1.1v6.8
			c0,0.9-0.2,1.6-0.7,2.1s-1.2,0.8-2.1,0.8c-0.3,0-0.7,0-1.1-0.1c-0.4-0.1-0.7-0.2-1-0.4l0.3-1c0.2,0.1,0.5,0.2,0.8,0.3
			s0.6,0.1,0.9,0.1c0.6,0,1-0.2,1.2-0.5c0.3-0.3,0.4-0.8,0.4-1.3v-0.7c-0.2,0.3-0.5,0.5-0.8,0.7c-0.3,0.1-0.7,0.2-1.1,0.2
			c-0.8,0-1.5-0.3-2-0.9s-0.7-1.4-0.7-2.4V102.8z M539.5,102.9c0,0.7,0.1,1.2,0.4,1.7s0.7,0.6,1.3,0.6c0.4,0,0.7-0.1,0.9-0.3
			c0.3-0.2,0.5-0.4,0.6-0.7v-3.2c-0.2-0.3-0.4-0.5-0.6-0.7c-0.3-0.2-0.6-0.3-0.9-0.3c-0.6,0-1,0.3-1.3,0.7c-0.3,0.5-0.4,1.1-0.4,1.9
			V102.9z"/>
		<path class="st1" d="M545.4,105.3l1-0.2v-7.9l-1-0.2v-0.8h2.3v3.9c0.2-0.3,0.5-0.6,0.9-0.8c0.3-0.2,0.7-0.3,1.1-0.3
			c0.7,0,1.3,0.2,1.7,0.7s0.6,1.1,0.6,2v3.3l1,0.2v0.8h-3.3v-0.8l1-0.2v-3.3c0-0.6-0.1-1-0.4-1.3s-0.6-0.4-1.1-0.4
			c-0.3,0-0.7,0.1-0.9,0.2c-0.3,0.2-0.5,0.4-0.7,0.7v4.1l1,0.2v0.8h-3.3V105.3z"/>
		<path class="st1" d="M556.2,97.6v1.7h1.3v0.9h-1.3v4.2c0,0.3,0.1,0.5,0.2,0.7c0.1,0.1,0.3,0.2,0.5,0.2c0.1,0,0.2,0,0.4,0
			c0.1,0,0.3,0,0.3-0.1l0.2,0.9c-0.1,0.1-0.3,0.1-0.5,0.2s-0.5,0.1-0.7,0.1c-0.5,0-0.9-0.2-1.2-0.5c-0.3-0.3-0.5-0.8-0.5-1.4v-4.2
			h-1.1v-0.9h1.1v-1.7H556.2z"/>
		<path class="st1" d="M561.8,105.3l1-0.2v-7.9l-1-0.2v-0.8h2.3v3.9c0.2-0.3,0.5-0.6,0.9-0.8c0.3-0.2,0.7-0.3,1.1-0.3
			c0.7,0,1.3,0.2,1.7,0.7s0.6,1.1,0.6,2v3.3l1,0.2v0.8h-3.3v-0.8l1-0.2v-3.3c0-0.6-0.1-1-0.4-1.3c-0.2-0.3-0.6-0.4-1.1-0.4
			c-0.3,0-0.7,0.1-0.9,0.2s-0.5,0.4-0.7,0.7v4.1l1,0.2v0.8h-3.3V105.3z"/>
	</g>
	<g class="st0">
		<path class="st1" d="M574.9,106.1c0-0.2-0.1-0.4-0.1-0.5c0-0.1,0-0.3,0-0.4c-0.2,0.3-0.5,0.6-0.9,0.8c-0.4,0.2-0.7,0.3-1.2,0.3
			c-0.7,0-1.3-0.2-1.6-0.5c-0.4-0.3-0.6-0.8-0.6-1.5c0-0.7,0.3-1.2,0.8-1.5c0.5-0.4,1.2-0.5,2.2-0.5h1.3v-0.8c0-0.4-0.1-0.7-0.4-1
			c-0.3-0.2-0.6-0.4-1.1-0.4c-0.3,0-0.6,0-0.8,0.1c-0.2,0.1-0.4,0.2-0.6,0.3l-0.1,0.7h-1v-1.3c0.3-0.3,0.7-0.4,1.1-0.6
			s0.9-0.2,1.4-0.2c0.8,0,1.4,0.2,1.9,0.6s0.7,1,0.7,1.7v3.3c0,0.1,0,0.2,0,0.3c0,0.1,0,0.2,0,0.3l0.5,0.1v0.8H574.9z M572.9,105.2
			c0.4,0,0.8-0.1,1.1-0.3c0.3-0.2,0.6-0.4,0.7-0.7V103h-1.3c-0.5,0-0.9,0.1-1.2,0.4c-0.3,0.2-0.4,0.5-0.4,0.9c0,0.3,0.1,0.5,0.3,0.7
			C572.2,105.1,572.5,105.2,572.9,105.2z"/>
	</g>
	<g class="st0">
		<path class="st1" d="M579.8,100l-0.8,0.1l1.4,3.9l0.1,0.5h0l0.1-0.5l1.4-3.9l-0.8-0.1v-0.8h2.7v0.8l-0.6,0.1l-2.3,6H580l-2.3-6
			l-0.6-0.1v-0.8h2.7V100z"/>
	</g>
	<g class="st0">
		<path class="st1" d="M587.8,106.2c-1,0-1.7-0.3-2.3-1s-0.8-1.5-0.8-2.5v-0.3c0-1,0.3-1.8,0.9-2.4s1.3-1,2.1-1
			c0.9,0,1.6,0.3,2.1,0.8s0.7,1.3,0.7,2.2v0.8h-4.5l0,0c0,0.7,0.2,1.2,0.5,1.6c0.3,0.4,0.8,0.6,1.4,0.6c0.4,0,0.8-0.1,1.1-0.2
			c0.3-0.1,0.6-0.3,0.8-0.5l0.5,0.8c-0.2,0.2-0.6,0.4-1,0.6C588.8,106.1,588.3,106.2,587.8,106.2z M587.6,100.1
			c-0.4,0-0.8,0.2-1.1,0.5c-0.3,0.4-0.5,0.8-0.5,1.3l0,0h3.2v-0.2c0-0.5-0.1-0.9-0.4-1.2S588.1,100.1,587.6,100.1z"/>
	</g>
	<g class="st0">
		<path class="st1" d="M594.8,100v-0.8h2.2l0.1,1c0.2-0.4,0.4-0.6,0.7-0.8c0.3-0.2,0.6-0.3,1-0.3c0.1,0,0.2,0,0.3,0
			c0.1,0,0.2,0,0.2,0l-0.2,1.2l-0.7,0c-0.3,0-0.6,0.1-0.8,0.2s-0.4,0.4-0.5,0.7v3.9l1,0.2v0.8h-3.3v-0.8l1-0.2v-4.9L594.8,100z"/>
	</g>
	<g class="st0">
		<path class="st1" d="M600.1,102.6c0-1,0.3-1.9,0.8-2.5c0.6-0.7,1.3-1,2.2-1c0.9,0,1.7,0.3,2.3,1c0.6,0.7,0.8,1.5,0.8,2.5v0.1
			c0,1-0.3,1.9-0.8,2.5c-0.5,0.7-1.3,1-2.2,1c-1,0-1.7-0.3-2.3-1c-0.5-0.7-0.8-1.5-0.8-2.5V102.6z M601.3,102.7
			c0,0.7,0.2,1.3,0.5,1.8c0.3,0.5,0.8,0.7,1.4,0.7c0.6,0,1-0.2,1.4-0.7c0.3-0.5,0.5-1.1,0.5-1.8v-0.1c0-0.7-0.2-1.3-0.5-1.8
			c-0.3-0.5-0.8-0.7-1.4-0.7s-1.1,0.2-1.4,0.7s-0.5,1.1-0.5,1.8V102.7z"/>
		<path class="st1" d="M607.4,102.6c0-1,0.3-1.9,0.8-2.5s1.3-1,2.2-1c0.9,0,1.7,0.3,2.3,1c0.6,0.7,0.8,1.5,0.8,2.5v0.1
			c0,1-0.3,1.9-0.8,2.5c-0.5,0.7-1.3,1-2.2,1c-1,0-1.7-0.3-2.3-1c-0.5-0.7-0.8-1.5-0.8-2.5V102.6z M608.6,102.7
			c0,0.7,0.2,1.3,0.5,1.8c0.3,0.5,0.8,0.7,1.4,0.7c0.6,0,1-0.2,1.4-0.7c0.3-0.5,0.5-1.1,0.5-1.8v-0.1c0-0.7-0.2-1.3-0.5-1.8
			s-0.8-0.7-1.4-0.7c-0.6,0-1.1,0.2-1.4,0.7s-0.5,1.1-0.5,1.8V102.7z"/>
		<path class="st1" d="M616.9,97.6v1.7h1.3v0.9h-1.3v4.2c0,0.3,0.1,0.5,0.2,0.7c0.1,0.1,0.3,0.2,0.5,0.2c0.1,0,0.2,0,0.4,0
			c0.1,0,0.3,0,0.3-0.1l0.2,0.9c-0.1,0.1-0.3,0.1-0.5,0.2s-0.5,0.1-0.7,0.1c-0.5,0-0.9-0.2-1.2-0.5s-0.5-0.8-0.5-1.4v-4.2h-1.1v-0.9
			h1.1v-1.7H616.9z"/>
		<path class="st1" d="M627.1,106.1c0-0.2-0.1-0.4-0.1-0.5c0-0.1,0-0.3,0-0.4c-0.2,0.3-0.5,0.6-0.9,0.8c-0.4,0.2-0.7,0.3-1.2,0.3
			c-0.7,0-1.3-0.2-1.6-0.5c-0.4-0.3-0.6-0.8-0.6-1.5c0-0.7,0.3-1.2,0.8-1.5c0.5-0.4,1.3-0.5,2.2-0.5h1.3v-0.8c0-0.4-0.1-0.7-0.4-1
			c-0.3-0.2-0.6-0.4-1.1-0.4c-0.3,0-0.6,0-0.8,0.1c-0.2,0.1-0.4,0.2-0.6,0.3l-0.1,0.7h-1v-1.3c0.3-0.3,0.7-0.4,1.1-0.6
			s0.9-0.2,1.4-0.2c0.8,0,1.4,0.2,1.9,0.6s0.7,1,0.7,1.7v3.3c0,0.1,0,0.2,0,0.3c0,0.1,0,0.2,0,0.3l0.5,0.1v0.8H627.1z M625.1,105.2
			c0.4,0,0.8-0.1,1.1-0.3c0.3-0.2,0.6-0.4,0.7-0.7V103h-1.3c-0.5,0-0.9,0.1-1.2,0.4c-0.3,0.2-0.4,0.5-0.4,0.9c0,0.3,0.1,0.5,0.3,0.7
			C624.5,105.1,624.8,105.2,625.1,105.2z"/>
		<path class="st1" d="M632.9,105.2c0.4,0,0.8-0.1,1.1-0.4c0.3-0.3,0.5-0.6,0.5-0.9h1.1l0,0c0,0.6-0.2,1.1-0.8,1.6
			c-0.5,0.5-1.2,0.7-1.9,0.7c-1,0-1.8-0.3-2.3-1c-0.5-0.7-0.8-1.5-0.8-2.5v-0.3c0-1,0.3-1.8,0.8-2.4c0.5-0.7,1.3-1,2.3-1
			c0.6,0,1,0.1,1.5,0.3c0.4,0.2,0.8,0.4,1.1,0.8l0.1,1.5h-1l-0.3-1.1c-0.1-0.1-0.3-0.3-0.6-0.3c-0.2-0.1-0.5-0.1-0.8-0.1
			c-0.7,0-1.1,0.2-1.4,0.7c-0.3,0.5-0.4,1.1-0.4,1.7v0.3c0,0.7,0.1,1.3,0.4,1.8S632.2,105.2,632.9,105.2z"/>
		<path class="st1" d="M639.9,105.2c0.4,0,0.8-0.1,1.1-0.4c0.3-0.3,0.5-0.6,0.5-0.9h1.1l0,0c0,0.6-0.2,1.1-0.8,1.6
			c-0.5,0.5-1.2,0.7-1.9,0.7c-1,0-1.8-0.3-2.3-1c-0.5-0.7-0.8-1.5-0.8-2.5v-0.3c0-1,0.3-1.8,0.8-2.4c0.5-0.7,1.3-1,2.3-1
			c0.6,0,1,0.1,1.5,0.3c0.4,0.2,0.8,0.4,1.1,0.8l0.1,1.5h-1l-0.3-1.1c-0.1-0.1-0.3-0.3-0.6-0.3c-0.2-0.1-0.5-0.1-0.8-0.1
			c-0.7,0-1.1,0.2-1.4,0.7c-0.3,0.5-0.4,1.1-0.4,1.7v0.3c0,0.7,0.1,1.3,0.4,1.8S639.3,105.2,639.9,105.2z"/>
		<path class="st1" d="M647,106.2c-1,0-1.7-0.3-2.3-1c-0.6-0.6-0.8-1.5-0.8-2.5v-0.3c0-1,0.3-1.8,0.9-2.4s1.3-1,2.1-1
			c0.9,0,1.6,0.3,2.1,0.8c0.5,0.6,0.7,1.3,0.7,2.2v0.8h-4.5l0,0c0,0.7,0.2,1.2,0.5,1.6c0.3,0.4,0.8,0.6,1.4,0.6
			c0.4,0,0.8-0.1,1.1-0.2c0.3-0.1,0.6-0.3,0.8-0.5l0.5,0.8c-0.2,0.2-0.6,0.4-1,0.6S647.5,106.2,647,106.2z M646.8,100.1
			c-0.4,0-0.8,0.2-1.1,0.5s-0.5,0.8-0.5,1.3l0,0h3.2v-0.2c0-0.5-0.1-0.9-0.4-1.2C647.7,100.2,647.3,100.1,646.8,100.1z"/>
		<path class="st1" d="M656.1,101.4h-0.9l-0.2-0.8c-0.2-0.1-0.3-0.3-0.6-0.3s-0.5-0.1-0.8-0.1c-0.4,0-0.8,0.1-1,0.3
			c-0.2,0.2-0.3,0.4-0.3,0.7c0,0.3,0.1,0.5,0.3,0.6c0.2,0.2,0.6,0.3,1.2,0.4c0.9,0.2,1.5,0.4,1.9,0.8s0.6,0.7,0.6,1.3
			c0,0.6-0.2,1.1-0.7,1.5c-0.5,0.4-1.1,0.6-1.9,0.6c-0.5,0-1-0.1-1.4-0.2c-0.4-0.1-0.8-0.3-1.1-0.5l0-1.6h0.9l0.2,0.9
			c0.1,0.1,0.3,0.2,0.6,0.3c0.2,0.1,0.5,0.1,0.8,0.1c0.4,0,0.8-0.1,1-0.3c0.3-0.2,0.4-0.4,0.4-0.7c0-0.3-0.1-0.5-0.3-0.7
			s-0.6-0.3-1.2-0.5c-0.8-0.2-1.5-0.4-1.9-0.7c-0.4-0.3-0.6-0.7-0.6-1.3c0-0.6,0.2-1,0.7-1.4c0.5-0.4,1.1-0.6,1.9-0.6
			c0.5,0,1,0.1,1.4,0.2c0.4,0.1,0.8,0.3,1,0.6L656.1,101.4z"/>
		<path class="st1" d="M662.7,101.4h-0.9l-0.2-0.8c-0.2-0.1-0.3-0.3-0.6-0.3s-0.5-0.1-0.8-0.1c-0.4,0-0.8,0.1-1,0.3
			c-0.2,0.2-0.3,0.4-0.3,0.7c0,0.3,0.1,0.5,0.3,0.6c0.2,0.2,0.6,0.3,1.2,0.4c0.9,0.2,1.5,0.4,1.9,0.8s0.6,0.7,0.6,1.3
			c0,0.6-0.2,1.1-0.7,1.5c-0.5,0.4-1.1,0.6-1.9,0.6c-0.5,0-1-0.1-1.4-0.2c-0.4-0.1-0.8-0.3-1.1-0.5l0-1.6h0.9l0.2,0.9
			c0.1,0.1,0.3,0.2,0.6,0.3c0.2,0.1,0.5,0.1,0.8,0.1c0.4,0,0.8-0.1,1-0.3c0.3-0.2,0.4-0.4,0.4-0.7c0-0.3-0.1-0.5-0.3-0.7
			s-0.6-0.3-1.2-0.5c-0.8-0.2-1.5-0.4-1.9-0.7c-0.4-0.3-0.6-0.7-0.6-1.3c0-0.6,0.2-1,0.7-1.4c0.5-0.4,1.1-0.6,1.9-0.6
			c0.5,0,1,0.1,1.4,0.2c0.4,0.1,0.8,0.3,1,0.6L662.7,101.4z"/>
		<path class="st1" d="M667,102.4c0,1.7-0.3,3.1-1,4.3c-0.7,1.2-1.4,2-2.1,2.4h0l-0.2-0.7c0.6-0.4,1.1-1.2,1.5-2.2s0.6-2.3,0.6-3.7
			v-0.1c0-1.5-0.2-2.7-0.7-3.7c-0.4-1-0.9-1.8-1.5-2.2l0.2-0.7h0c0.7,0.4,1.4,1.2,2.1,2.4C666.7,99.2,667,100.7,667,102.4L667,102.4
			z"/>
	</g>
	<line class="st2" x1="518.2" y1="55.7" x2="566.6" y2="55.7"/>
	<polygon class="st3" points="524.9,63.9 526.2,62.5 519,55.7 526.2,49 524.9,47.6 516.1,55.7 	"/>
	<circle class="st4" cx="500.8" cy="55.7" r="7.8"/>
	<line class="st5" x1="506.3" y1="61.2" x2="495.4" y2="50.3"/>
	<path class="st6" d="M581.1,70.3c-0.6,0-1-0.4-1-1v-5.1c0-1.6,0.8-3.2,2.2-4.2c1-0.8,2.2-1.3,3.5-1.5c0.4-0.1,0.8-0.1,1.1-0.1v-1.1
		c-2.2-1.7-3.6-4.4-3.6-7.2c0-0.9,0-1.3,0-1.6c0-0.2,0-0.3,0-0.5H583c-0.6,0-1-0.4-1-1v-5.6c0-0.2,0.1-0.4,0.2-0.5
		c0.5-3.9,3.2-7.1,6.9-8.4c2.3-0.8,4.7-0.8,7,0c1.5,0.5,2.8,1.4,3.9,2.5c1.6,1.6,2.7,3.7,3,5.9c0.1,0.1,0.1,0.3,0.2,0.5V47
		c0,0.6-0.4,1-1,1H602v2.5c0,2.8-1.4,5.4-3.7,7v0.9c0.4,0,0.8,0,1.1,0.1c1.3,0.2,2.5,0.7,3.5,1.6c1.3,1,2.1,2.5,2.1,4.1v5.1
		c0,0.6-0.4,1-1,1L581.1,70.3z"/>
	<path class="st1" d="M592.6,32.9c1.1,0,2.2,0.2,3.2,0.5c1.3,0.5,2.5,1.2,3.5,2.3c1.6,1.5,2.5,3.5,2.8,5.7h0.1V47H601v3.5
		c0,2.7-1.4,5.1-3.7,6.5v2.4h1c0.3,0,0.7,0,1,0.1c1.1,0.2,2.2,0.6,3.1,1.3c1.1,0.8,1.7,2,1.8,3.3v5.1h-23v-5.1
		c0-1.3,0.7-2.6,1.8-3.3c0.9-0.7,2-1.2,3.1-1.3c0.3-0.1,0.7-0.1,1-0.1h1V57h0.2c-2.3-1.5-3.7-4.1-3.8-6.8c0-1.8-0.1-1.5-0.1-3.2H583
		v-5.6h0.1C583.6,36.6,587.7,32.9,592.6,32.9 M592.6,30.9c-1.3,0-2.6,0.2-3.9,0.7c-4,1.4-6.9,4.8-7.5,9c-0.1,0.3-0.2,0.6-0.2,0.9V47
		c0,0.8,0.5,1.5,1.3,1.8c0,0.3,0,0.7,0,1.3c0,2.8,1.2,5.5,3.3,7.4c-1.4,0.2-2.8,0.8-3.9,1.8c-1.6,1.1-2.5,3-2.5,4.9v5.1
		c0,1.1,0.9,2,2,2H604c1.1,0,2-0.9,2-2v-5.1c0-1.9-0.9-3.8-2.5-4.9c-1.1-0.9-2.4-1.5-3.8-1.7c2.1-1.8,3.2-4.4,3.3-7.1v-1.7
		c0.7-0.3,1.2-1,1.2-1.8v-5.6c0-0.3-0.1-0.6-0.2-0.9c-0.4-2.4-1.5-4.6-3.3-6.2c-1.2-1.2-2.7-2.2-4.3-2.7
		C595.2,31.1,593.9,30.9,592.6,30.9L592.6,30.9z"/>
	<polygon class="st1" points="582.8,45.5 582.8,49.9 590.7,49.9 592.6,49.9 594.5,49.9 602.3,49.9 602.3,45.5 	"/>
	<path class="st7" d="M584.2,45.5c0,1.9,0.1,2.7,0.1,4.6c0.1,4.5,3.8,8.2,8.3,8.2c4.5,0.2,8.2-3.3,8.4-7.7c0,0,0-0.1,0-0.1v-5.2"/>
	<path class="st7" d="M583.1,42.4c0-5.3,4.3-9.5,9.6-9.5c1.1,0,2.1,0.2,3.1,0.5c1.3,0.5,2.5,1.2,3.5,2.3c1.8,1.8,2.8,4.2,2.8,6.7"/>
	<rect x="583" y="42" class="st8" width="19.1" height="3.5"/>
	<line class="st8" x1="591.5" y1="53.5" x2="595" y2="53.5"/>
	<path class="st6" d="M589.1,46.4c-0.5,0.5-0.6,1.3-0.1,1.9c0.5,0.6,1.3,0.6,1.9,0.2c0.3-0.2,0.4-0.6,0.5-0.9l0,0L589.1,46.4z"/>
	<path class="st6" d="M598.2,46.4l-2.1,1.3c0.1,0.2,0.2,0.4,0.3,0.6c0.5,0.5,1.4,0.5,1.9,0c0.3-0.3,0.4-0.6,0.4-1
		C598.6,47,598.5,46.7,598.2,46.4z"/>
	<g class="st0">
		<path class="st1" d="M104.7,84.1h-1.3l-0.2-1.2c-0.2-0.2-0.4-0.3-0.6-0.4c-0.3-0.1-0.6-0.1-0.9-0.1c-0.8,0-1.3,0.3-1.7,0.8
			s-0.6,1.3-0.6,2.2v0.3c0,0.9,0.2,1.6,0.6,2.2s1,0.8,1.7,0.8c0.3,0,0.7,0,0.9-0.1c0.3-0.1,0.5-0.2,0.7-0.4l0.2-1.2h1.3v1.7
			c-0.4,0.4-0.8,0.7-1.3,1s-1.2,0.4-1.8,0.4c-1.2,0-2.1-0.4-2.9-1.2s-1.1-1.8-1.1-3.1v-0.3c0-1.3,0.4-2.3,1.1-3.1
			c0.7-0.8,1.7-1.2,2.9-1.2c0.7,0,1.3,0.1,1.8,0.4c0.5,0.2,1,0.6,1.3,1V84.1z"/>
		<path class="st1" d="M105.4,81.6v-1.1h2.7v8.1l0.8,0.2v1h-3.4v-1l0.8-0.2v-6.9L105.4,81.6z"/>
		<path class="st1" d="M109.4,88.9l0.8-0.2v-4l-0.9-0.2v-1.1h2.7v5.2l0.8,0.2v1h-3.4V88.9z M112,81.9h-1.7v-1.3h1.7V81.9z"/>
		<path class="st1" d="M116.5,90c-0.9,0-1.7-0.3-2.2-0.9c-0.6-0.6-0.8-1.4-0.8-2.3v-0.2c0-1,0.3-1.8,0.8-2.4
			c0.5-0.6,1.2-0.9,2.1-0.9c0.9,0,1.5,0.3,2,0.8c0.5,0.5,0.7,1.2,0.7,2.1v1h-3.9l0,0c0,0.4,0.2,0.8,0.4,1.1c0.3,0.3,0.6,0.4,1,0.4
			c0.4,0,0.7,0,1-0.1c0.3-0.1,0.5-0.2,0.8-0.4l0.5,1.1c-0.3,0.2-0.6,0.4-1,0.5S117,90,116.5,90z M116.3,84.7c-0.3,0-0.6,0.1-0.8,0.4
			c-0.2,0.2-0.3,0.6-0.3,1l0,0h2.1v-0.2c0-0.4-0.1-0.7-0.3-0.9C116.9,84.8,116.7,84.7,116.3,84.7z"/>
		<path class="st1" d="M119.8,88.9l0.8-0.2v-4l-0.9-0.2v-1.1h2.6l0.1,0.9c0.2-0.3,0.5-0.6,0.8-0.8c0.3-0.2,0.7-0.3,1.1-0.3
			c0.7,0,1.2,0.2,1.5,0.6s0.5,1.1,0.5,1.9v2.8l0.8,0.2v1h-3.3v-1l0.7-0.2v-2.8c0-0.4-0.1-0.7-0.3-0.9c-0.2-0.2-0.4-0.3-0.8-0.3
			c-0.2,0-0.4,0-0.6,0.1c-0.2,0.1-0.3,0.2-0.5,0.4v3.5l0.7,0.2v1h-3.3V88.9z"/>
		<path class="st1" d="M130.3,81.8v1.6h1.1v1.2h-1.1V88c0,0.3,0.1,0.4,0.2,0.5s0.2,0.2,0.4,0.2c0.1,0,0.2,0,0.3,0
			c0.1,0,0.2,0,0.3-0.1l0.1,1.3c-0.2,0.1-0.4,0.1-0.6,0.1c-0.2,0-0.4,0-0.6,0c-0.6,0-1.1-0.2-1.4-0.5c-0.3-0.3-0.5-0.9-0.5-1.6v-3.3
			h-1v-1.2h1v-1.6H130.3z"/>
	</g>
	<path class="st1" d="M117.4,48.5c0.4,0,0.7,0.3,0.7,0.7c0,0.4-0.3,0.7-0.7,0.7s-0.7-0.3-0.7-0.7C116.7,48.9,117,48.5,117.4,48.5z"
		/>
	<circle class="st1" cx="111.6" cy="49.3" r="0.7"/>
	<path class="st7" d="M118.7,58.2v2.2h0.9c0.3,0,0.6,0,0.9,0.1c1,0.1,2,0.6,2.8,1.2c1,0.7,1.6,1.8,1.6,3v4.6h-20.7v-4.6
		c0-1.2,0.6-2.3,1.6-3c0.8-0.7,1.8-1.1,2.8-1.2c0.3-0.1,0.6-0.1,0.9-0.1h0.9v-2.2"/>
	<path class="st8" d="M107,47.2c0,1.8,0.1,2.6,0.1,4.4c-0.1,4.2,3.3,7.7,7.5,7.8c4.1,0,7.5-3.3,7.5-7.4c0,0,0,0,0,0v-5"/>
	<path class="st8" d="M107,47.1l0.6-4.6c1.4-0.4,8.2,3.7,11.3-1.4c0,0-0.8,2.5,3.3,5.3v0.7"/>
	<path class="st8" d="M124.2,49.4c0,1.2-1,2.1-2.2,2.2v-4.3C123.2,47.3,124.2,48.2,124.2,49.4z"/>
	<path class="st8" d="M104.8,48.9v0.7c0.2,1.1,1.1,1.8,2.2,1.8v-4.3C105.9,47.1,105,47.8,104.8,48.9z"/>
	<path class="st8" d="M112.4,53.9c0.5,0.7,1.3,1.1,2.1,1.1c0.8,0,1.6-0.4,2.1-1.1"/>
	<path class="st8" d="M104.8,47.9v-5.4c0-3.8,4.3-8.4,9.7-8.4s9.7,4.5,9.7,8.3V48"/>
	<path class="st1" d="M114.5,34.2c5.4,0,9.7,4.5,9.7,8.4V48h-0.4c0.3,0.4,0.4,0.8,0.4,1.2c0,1.2-1,2.1-2.2,2.2v0.5
		c0,2.5-1.3,4.9-3.4,6.3h0.1v2.3h0.9c0.3,0,0.6,0,0.9,0.1c1,0.1,2,0.6,2.8,1.2c1,0.7,1.6,1.8,1.6,3v4.6h-20.7v-4.6
		c0-1.2,0.6-2.3,1.6-3c0.8-0.7,1.8-1.1,2.8-1.2c0.3-0.1,0.6-0.1,0.9-0.1h0.9v-2.2h0.3c-2.2-1.5-3.5-4-3.6-6.6c0-0.2,0-0.5,0-0.7
		c0,0.2-0.1,0.4-0.1,0.6c-1.1,0-2-0.7-2.2-1.8v-0.7c0-0.4,0.2-0.7,0.4-1h-0.4v-5.4C104.8,38.7,109.1,34.2,114.5,34.2 M114.5,32.2
		c-6.6,0-11.7,5.6-11.7,10.3v5.4c0,0.2,0,0.3,0,0.5v0.2c0,0.1,0,0.2,0,0.3v0.7c0,0.1,0,0.2,0,0.3c0.2,1.4,1.1,2.5,2.3,3.1
		c0.3,2.1,1.3,4,2.8,5.5c-1.2,0.2-2.4,0.8-3.4,1.6c-1.5,1.1-2.3,2.8-2.3,4.6v4.6c0,1.1,0.9,2,2,2h20.7c1.1,0,2-0.9,2-2v-4.6
		c0-1.8-0.9-3.5-2.3-4.6c-0.9-0.8-2-1.3-3.2-1.5c1.5-1.5,2.5-3.5,2.7-5.7c1.3-0.7,2.2-2.1,2.2-3.7c0-0.2,0-0.5-0.1-0.7
		c0-0.2,0.1-0.3,0.1-0.5v-5.5C126.2,37.7,121.1,32.2,114.5,32.2L114.5,32.2z"/>
	
		<linearGradient id="SVGID_1_" gradientUnits="userSpaceOnUse" x1="213.07" y1="62.595" x2="487.32" y2="62.595" gradientTransform="matrix(1 0 0 -1 0 120)">
		<stop  offset="0" style="stop-color:#990066"/>
		<stop  offset="0.19" style="stop-color:#780066"/>
		<stop  offset="0.4" style="stop-color:#5A0066"/>
		<stop  offset="0.61" style="stop-color:#440066"/>
		<stop  offset="0.81" style="stop-color:#370066"/>
		<stop  offset="1" style="stop-color:#330066"/>
	</linearGradient>
	<path class="st9" d="M218.1,20.3h264.3c2.8,0,5,2.2,5,5v64.3c0,2.8-2.2,5-5,5H218.1c-2.8,0-5-2.2-5-5V25.3
		C213.1,22.5,215.3,20.3,218.1,20.3z"/>
	<g class="st0">
		<path class="st10" d="M314.7,49v2.7h-1.5l-0.1-1.1h-1.8v7l1.1,0.2v1.2h-4.1v-1.2l1.1-0.2v-7h-1.8l-0.1,1.1h-1.5V49H314.7z"/>
	</g>
	<g class="st0">
		<path class="st10" d="M315.2,57.7l1-0.2V53l-1.1-0.2v-1.2h2.9l0.1,1.1c0.2-0.4,0.4-0.7,0.7-0.9s0.6-0.3,1-0.3c0.1,0,0.2,0,0.3,0
			c0.1,0,0.2,0,0.3,0.1l-0.2,1.8l-0.8,0c-0.3,0-0.5,0.1-0.7,0.2s-0.3,0.3-0.4,0.5v3.6l1,0.2v1.2h-3.9V57.7z"/>
		<path class="st10" d="M326.1,58c-0.2,0.3-0.5,0.6-0.9,0.8s-0.7,0.3-1.2,0.3c-0.8,0-1.4-0.2-1.8-0.7c-0.4-0.5-0.7-1.3-0.7-2.3V53
			l-0.8-0.2v-1.2h0.8h2V56c0,0.5,0.1,0.9,0.3,1.2c0.2,0.2,0.4,0.4,0.8,0.4c0.3,0,0.6-0.1,0.8-0.2c0.2-0.1,0.4-0.2,0.6-0.4v-4
			l-0.9-0.2v-1.2h0.9h2v6l0.9,0.2v1.2h-2.6L326.1,58z"/>
		<path class="st10" d="M335.7,54.1h-1.3l-0.2-0.9c-0.1-0.1-0.3-0.2-0.5-0.3s-0.4-0.1-0.7-0.1c-0.4,0-0.6,0.1-0.8,0.2
			c-0.2,0.2-0.3,0.4-0.3,0.6c0,0.2,0.1,0.4,0.3,0.6c0.2,0.1,0.6,0.3,1.2,0.4c0.9,0.2,1.6,0.5,2,0.8c0.4,0.4,0.7,0.8,0.7,1.5
			c0,0.7-0.3,1.2-0.9,1.6c-0.6,0.4-1.3,0.6-2.3,0.6c-0.6,0-1.1-0.1-1.6-0.2c-0.5-0.2-0.9-0.4-1.3-0.7l0-1.7h1.4l0.3,1
			c0.1,0.1,0.3,0.2,0.5,0.2c0.2,0,0.4,0.1,0.6,0.1c0.4,0,0.7-0.1,0.9-0.2s0.3-0.3,0.3-0.6c0-0.2-0.1-0.4-0.3-0.6s-0.6-0.3-1.2-0.4
			c-0.9-0.2-1.5-0.4-2-0.8c-0.4-0.3-0.7-0.8-0.7-1.4c0-0.6,0.3-1.2,0.8-1.6c0.5-0.4,1.2-0.7,2.2-0.7c0.6,0,1.1,0.1,1.6,0.2
			s0.9,0.4,1.2,0.6L335.7,54.1z"/>
		<path class="st10" d="M339.8,49.7v1.8h1.3v1.4h-1.3v3.8c0,0.3,0.1,0.5,0.2,0.6s0.3,0.2,0.5,0.2c0.1,0,0.3,0,0.4,0
			c0.1,0,0.2,0,0.3-0.1l0.2,1.4c-0.2,0.1-0.4,0.1-0.7,0.2c-0.2,0-0.5,0.1-0.7,0.1c-0.7,0-1.2-0.2-1.6-0.6s-0.6-1-0.6-1.8v-3.8h-1.1
			v-1.4h1.1v-1.8H339.8z"/>
		<path class="st10" d="M345.6,59.1c-1.1,0-1.9-0.3-2.6-1s-1-1.6-1-2.6v-0.3c0-1.1,0.3-2,0.9-2.7s1.4-1.1,2.4-1.1
			c1,0,1.8,0.3,2.3,0.9s0.8,1.4,0.8,2.4v1.1h-4.4l0,0c0,0.5,0.2,0.9,0.5,1.2s0.7,0.5,1.2,0.5c0.4,0,0.8,0,1.1-0.1
			c0.3-0.1,0.6-0.2,1-0.4l0.5,1.2c-0.3,0.2-0.7,0.4-1.2,0.6S346.2,59.1,345.6,59.1z M345.4,52.9c-0.4,0-0.7,0.1-0.9,0.4
			s-0.3,0.7-0.4,1.1l0,0h2.4v-0.2c0-0.4-0.1-0.8-0.3-1C346.1,53.1,345.8,52.9,345.4,52.9z"/>
		<path class="st10" d="M354.3,58c-0.2,0.3-0.5,0.6-0.8,0.8s-0.7,0.3-1.1,0.3c-0.9,0-1.6-0.3-2.1-1s-0.8-1.5-0.8-2.6v-0.1
			c0-1.2,0.3-2.1,0.8-2.8s1.2-1.1,2.1-1.1c0.4,0,0.7,0.1,1,0.2c0.3,0.2,0.6,0.4,0.8,0.7v-2.7l-1.1-0.2v-1.2h1.1h2v9.3l1,0.2v1.2
			h-2.7L354.3,58z M351.5,55.4c0,0.6,0.1,1.2,0.3,1.5c0.2,0.4,0.6,0.6,1.1,0.6c0.3,0,0.5-0.1,0.8-0.2s0.4-0.3,0.5-0.5v-3.1
			c-0.1-0.2-0.3-0.4-0.5-0.6c-0.2-0.1-0.5-0.2-0.7-0.2c-0.5,0-0.8,0.2-1.1,0.6s-0.3,1-0.3,1.7V55.4z"/>
	</g>
	<g class="st0">
		<path class="st10" d="M365.7,49c1.2,0,2.2,0.4,3,1.2c0.8,0.8,1.2,1.8,1.2,3v1.6c0,1.2-0.4,2.2-1.2,3c-0.8,0.8-1.8,1.2-3,1.2h-4.5
			v-1.2l1.1-0.2v-7.1l-1.1-0.2V49h1.1H365.7z M364.2,50.5v6.9h1.3c0.7,0,1.3-0.2,1.7-0.7c0.4-0.5,0.6-1.1,0.6-1.9v-1.7
			c0-0.8-0.2-1.4-0.6-1.9c-0.4-0.5-1-0.7-1.7-0.7H364.2z"/>
	</g>
	<g class="st0">
		<path class="st10" d="M370.3,57.7l0.7-0.1l3-8.7h2l3,8.7l0.7,0.1v1.2h-3.4v-1.2l0.7-0.1l-0.4-1.4h-3.2l-0.4,1.4l0.7,0.1v1.2h-3.4
			V57.7z M373.9,54.8h2.3l-1.1-3.5h0L373.9,54.8z"/>
		<path class="st10" d="M380.4,52.7v-1.2h2.9l0.1,0.9c0.2-0.3,0.5-0.6,0.8-0.7s0.7-0.3,1.1-0.3c0.9,0,1.6,0.4,2.1,1.1
			s0.8,1.7,0.8,2.8v0.1c0,1.1-0.3,2-0.8,2.6s-1.2,1-2.1,1c-0.4,0-0.7-0.1-1-0.2c-0.3-0.1-0.6-0.4-0.8-0.6v2.1l1,0.2v1.2h-3.9v-1.2
			l1-0.2V53L380.4,52.7z M386.1,55.3c0-0.7-0.1-1.3-0.3-1.7s-0.6-0.6-1.1-0.6c-0.3,0-0.6,0.1-0.8,0.2c-0.2,0.1-0.4,0.3-0.5,0.5v3.2
			c0.1,0.2,0.3,0.4,0.5,0.5c0.2,0.1,0.5,0.2,0.8,0.2c0.5,0,0.8-0.2,1.1-0.6c0.2-0.4,0.3-0.9,0.3-1.5V55.3z"/>
		<path class="st10" d="M388.9,52.7v-1.2h2.9l0.1,0.9c0.2-0.3,0.5-0.6,0.8-0.7s0.7-0.3,1.1-0.3c0.9,0,1.6,0.4,2.1,1.1
			s0.8,1.7,0.8,2.8v0.1c0,1.1-0.3,2-0.8,2.6s-1.2,1-2.1,1c-0.4,0-0.7-0.1-1-0.2c-0.3-0.1-0.6-0.4-0.8-0.6v2.1l1,0.2v1.2H389v-1.2
			l1-0.2V53L388.9,52.7z M394.6,55.3c0-0.7-0.1-1.3-0.3-1.7s-0.6-0.6-1.1-0.6c-0.3,0-0.6,0.1-0.8,0.2c-0.2,0.1-0.4,0.3-0.5,0.5v3.2
			c0.1,0.2,0.3,0.4,0.5,0.5c0.2,0.1,0.5,0.2,0.8,0.2c0.5,0,0.8-0.2,1.1-0.6c0.2-0.4,0.3-0.9,0.3-1.5V55.3z"/>
	</g>
	<g class="st0">
		<path class="st6" d="M240.5,77c1.3,0,2.3,0.4,3.1,1.2c0.8,0.8,1.2,1.8,1.2,3.1v1.4c0,1.3-0.4,2.3-1.2,3.1
			c-0.8,0.8-1.8,1.2-3.1,1.2h-4.2v-0.9l1.1-0.2V78l-1.1-0.2V77h1.1H240.5z M238.8,78v7.8h1.7c0.9,0,1.6-0.3,2.2-0.9s0.8-1.4,0.8-2.3
			v-1.4c0-0.9-0.3-1.7-0.8-2.3s-1.3-0.9-2.2-0.9H238.8z"/>
		<path class="st6" d="M250.9,86.9c0-0.2-0.1-0.4-0.1-0.5s0-0.3,0-0.5c-0.3,0.3-0.6,0.6-1,0.8c-0.4,0.2-0.8,0.3-1.2,0.3
			c-0.8,0-1.4-0.2-1.8-0.6c-0.4-0.4-0.6-0.9-0.6-1.6c0-0.7,0.3-1.2,0.9-1.6c0.6-0.4,1.3-0.6,2.3-0.6h1.4v-0.9c0-0.4-0.1-0.8-0.4-1
			c-0.3-0.3-0.7-0.4-1.1-0.4c-0.3,0-0.6,0-0.9,0.1s-0.5,0.2-0.6,0.4l-0.1,0.8h-1v-1.4c0.3-0.3,0.7-0.5,1.2-0.6
			c0.5-0.2,1-0.2,1.6-0.2c0.8,0,1.5,0.2,2,0.6s0.8,1,0.8,1.8v3.6c0,0.1,0,0.2,0,0.3s0,0.2,0,0.3l0.5,0.1v0.9H250.9z M248.8,86
			c0.4,0,0.9-0.1,1.2-0.3s0.6-0.5,0.8-0.8v-1.2h-1.4c-0.6,0-1,0.1-1.3,0.4s-0.5,0.6-0.5,0.9c0,0.3,0.1,0.6,0.3,0.7
			C248.1,85.9,248.4,86,248.8,86z"/>
		<path class="st6" d="M256.2,77.8v1.8h1.4v1h-1.4V85c0,0.3,0.1,0.6,0.2,0.7s0.3,0.2,0.6,0.2c0.1,0,0.3,0,0.4,0c0.1,0,0.3,0,0.4-0.1
			l0.2,0.9c-0.1,0.1-0.3,0.1-0.6,0.2c-0.2,0.1-0.5,0.1-0.7,0.1c-0.5,0-1-0.2-1.3-0.5c-0.3-0.3-0.5-0.8-0.5-1.6v-4.5h-1.2v-1h1.2
			v-1.8H256.2z"/>
		<path class="st6" d="M263.8,86.9c0-0.2-0.1-0.4-0.1-0.5s0-0.3,0-0.5c-0.3,0.3-0.6,0.6-1,0.8c-0.4,0.2-0.8,0.3-1.2,0.3
			c-0.8,0-1.4-0.2-1.8-0.6c-0.4-0.4-0.6-0.9-0.6-1.6c0-0.7,0.3-1.2,0.9-1.6c0.6-0.4,1.3-0.6,2.3-0.6h1.4v-0.9c0-0.4-0.1-0.8-0.4-1
			c-0.3-0.3-0.7-0.4-1.1-0.4c-0.3,0-0.6,0-0.9,0.1s-0.5,0.2-0.6,0.4l-0.1,0.8h-1v-1.4c0.3-0.3,0.7-0.5,1.2-0.6
			c0.5-0.2,1-0.2,1.6-0.2c0.8,0,1.5,0.2,2,0.6s0.8,1,0.8,1.8v3.6c0,0.1,0,0.2,0,0.3s0,0.2,0,0.3l0.5,0.1v0.9H263.8z M261.6,86
			c0.4,0,0.9-0.1,1.2-0.3s0.6-0.5,0.8-0.8v-1.2h-1.4c-0.6,0-1,0.1-1.3,0.4s-0.5,0.6-0.5,0.9c0,0.3,0.1,0.6,0.3,0.7
			C260.9,85.9,261.2,86,261.6,86z"/>
		<path class="st6" d="M277.7,80h-1l-0.3-1.4c-0.2-0.2-0.5-0.4-0.8-0.5s-0.7-0.2-1.1-0.2c-1,0-1.8,0.4-2.4,1.1
			c-0.6,0.7-0.8,1.7-0.8,2.9V82c0,1.2,0.3,2.1,0.8,2.9c0.5,0.8,1.3,1.1,2.3,1.1c0.5,0,0.9-0.1,1.2-0.2s0.7-0.3,0.9-0.5l0.3-1.4h1
			v1.8c-0.3,0.4-0.7,0.7-1.3,1c-0.6,0.3-1.2,0.4-2,0.4c-1.3,0-2.4-0.5-3.2-1.4S270,83.5,270,82v-0.1c0-1.5,0.4-2.7,1.2-3.6
			c0.8-1,1.9-1.4,3.2-1.4c0.8,0,1.4,0.1,2,0.4c0.6,0.3,1,0.6,1.3,1V80z"/>
		<path class="st6" d="M279.2,83.2c0-1.1,0.3-2,0.9-2.7c0.6-0.7,1.4-1.1,2.4-1.1c1,0,1.8,0.4,2.4,1.1s0.9,1.6,0.9,2.7v0.2
			c0,1.1-0.3,2-0.9,2.7s-1.4,1.1-2.4,1.1c-1,0-1.8-0.4-2.4-1.1c-0.6-0.7-0.9-1.6-0.9-2.7V83.2z M280.5,83.3c0,0.8,0.2,1.4,0.5,1.9
			s0.8,0.8,1.5,0.8c0.6,0,1.1-0.3,1.5-0.8s0.5-1.2,0.5-1.9v-0.2c0-0.8-0.2-1.4-0.5-1.9s-0.8-0.8-1.5-0.8s-1.1,0.3-1.5,0.8
			s-0.5,1.2-0.5,1.9V83.3z"/>
		<path class="st6" d="M286.8,86.1l1.1-0.2v-5.3l-1.1-0.2v-0.9h2.3l0.1,1c0.2-0.4,0.5-0.6,0.9-0.8s0.8-0.3,1.3-0.3s0.9,0.1,1.3,0.3
			s0.6,0.6,0.8,1c0.2-0.4,0.5-0.8,0.9-1s0.8-0.4,1.3-0.4c0.8,0,1.4,0.3,1.8,0.8c0.4,0.5,0.7,1.3,0.7,2.3v3.4l1.1,0.2v0.9h-3.6v-0.9
			l1.1-0.2v-3.4c0-0.7-0.1-1.2-0.4-1.5c-0.3-0.3-0.6-0.5-1.1-0.5c-0.5,0-0.8,0.2-1.1,0.5c-0.3,0.3-0.5,0.7-0.5,1.2v3.6l1.1,0.2v0.9
			h-3.6v-0.9l1.1-0.2v-3.4c0-0.7-0.1-1.2-0.4-1.5c-0.3-0.3-0.6-0.5-1.1-0.5c-0.4,0-0.7,0.1-1,0.3s-0.5,0.4-0.6,0.7v4.4l1.1,0.2v0.9
			h-3.6V86.1z"/>
		<path class="st6" d="M300.1,88.9l1.1-0.2v-8.1l-1.1-0.2v-0.9h2.3l0.1,0.9c0.2-0.3,0.5-0.6,0.9-0.8s0.8-0.3,1.2-0.3
			c0.9,0,1.6,0.4,2.1,1.1c0.5,0.7,0.8,1.7,0.8,2.9v0.1c0,1.1-0.3,1.9-0.8,2.6c-0.5,0.7-1.2,1-2.1,1c-0.5,0-0.9-0.1-1.2-0.2
			c-0.3-0.2-0.6-0.4-0.9-0.7v2.5l1.1,0.2v0.9h-3.6V88.9z M306.2,83.4c0-0.8-0.2-1.5-0.5-2.1s-0.8-0.8-1.5-0.8c-0.4,0-0.7,0.1-1,0.3
			s-0.5,0.4-0.7,0.7v3.6c0.2,0.3,0.4,0.5,0.7,0.7c0.3,0.2,0.6,0.2,1,0.2c0.6,0,1.1-0.2,1.4-0.7s0.5-1.1,0.5-1.8V83.4z"/>
		<path class="st6" d="M314,85.8c-0.2,0.4-0.5,0.7-0.9,0.9s-0.8,0.3-1.3,0.3c-0.8,0-1.4-0.3-1.9-0.8s-0.7-1.3-0.7-2.4v-3.3l-0.8-0.2
			v-0.9h0.8h1.3v4.4c0,0.8,0.1,1.3,0.3,1.6s0.6,0.4,1.1,0.4c0.5,0,0.9-0.1,1.2-0.3c0.3-0.2,0.5-0.5,0.7-0.8v-4.3l-1-0.2v-0.9h1h1.3
			v6.3l0.8,0.2v0.9h-2.1L314,85.8z"/>
		<path class="st6" d="M319.6,77.8v1.8h1.4v1h-1.4V85c0,0.3,0.1,0.6,0.2,0.7s0.3,0.2,0.6,0.2c0.1,0,0.3,0,0.4,0c0.1,0,0.3,0,0.4-0.1
			l0.2,0.9c-0.1,0.1-0.3,0.1-0.6,0.2c-0.2,0.1-0.5,0.1-0.7,0.1c-0.5,0-1-0.2-1.3-0.5c-0.3-0.3-0.5-0.8-0.5-1.6v-4.5h-1.2v-1h1.2
			v-1.8H319.6z"/>
		<path class="st6" d="M327.2,86.9c0-0.2-0.1-0.4-0.1-0.5s0-0.3,0-0.5c-0.3,0.3-0.6,0.6-1,0.8c-0.4,0.2-0.8,0.3-1.2,0.3
			c-0.8,0-1.4-0.2-1.8-0.6c-0.4-0.4-0.6-0.9-0.6-1.6c0-0.7,0.3-1.2,0.9-1.6c0.6-0.4,1.3-0.6,2.3-0.6h1.4v-0.9c0-0.4-0.1-0.8-0.4-1
			c-0.3-0.3-0.7-0.4-1.1-0.4c-0.3,0-0.6,0-0.9,0.1s-0.5,0.2-0.6,0.4l-0.1,0.8h-1v-1.4c0.3-0.3,0.7-0.5,1.2-0.6
			c0.5-0.2,1-0.2,1.6-0.2c0.8,0,1.5,0.2,2,0.6s0.8,1,0.8,1.8v3.6c0,0.1,0,0.2,0,0.3s0,0.2,0,0.3l0.5,0.1v0.9H327.2z M325,86
			c0.4,0,0.9-0.1,1.2-0.3s0.6-0.5,0.8-0.8v-1.2h-1.4c-0.6,0-1,0.1-1.3,0.4s-0.5,0.6-0.5,0.9c0,0.3,0.1,0.6,0.3,0.7
			C324.3,85.9,324.6,86,325,86z"/>
		<path class="st6" d="M332.4,77.8v1.8h1.4v1h-1.4V85c0,0.3,0.1,0.6,0.2,0.7s0.3,0.2,0.6,0.2c0.1,0,0.3,0,0.4,0c0.1,0,0.3,0,0.4-0.1
			l0.2,0.9c-0.1,0.1-0.3,0.1-0.6,0.2c-0.2,0.1-0.5,0.1-0.7,0.1c-0.5,0-1-0.2-1.3-0.5c-0.3-0.3-0.5-0.8-0.5-1.6v-4.5h-1.2v-1h1.2
			v-1.8H332.4z"/>
		<path class="st6" d="M335.2,86.1l1.1-0.2v-5.3l-1.1-0.2v-0.9h2.5v6.3l1.1,0.2v0.9h-3.6V86.1z M337.7,77.7h-1.3v-1.4h1.3V77.7z"/>
		<path class="st6" d="M339.8,83.2c0-1.1,0.3-2,0.9-2.7c0.6-0.7,1.4-1.1,2.4-1.1c1,0,1.8,0.4,2.4,1.1s0.9,1.6,0.9,2.7v0.2
			c0,1.1-0.3,2-0.9,2.7s-1.4,1.1-2.4,1.1c-1,0-1.8-0.4-2.4-1.1c-0.6-0.7-0.9-1.6-0.9-2.7V83.2z M341.2,83.3c0,0.8,0.2,1.4,0.5,1.9
			s0.8,0.8,1.5,0.8c0.6,0,1.1-0.3,1.5-0.8s0.5-1.2,0.5-1.9v-0.2c0-0.8-0.2-1.4-0.5-1.9s-0.8-0.8-1.5-0.8s-1.1,0.3-1.5,0.8
			s-0.5,1.2-0.5,1.9V83.3z"/>
		<path class="st6" d="M347.5,86.1l1.1-0.2v-5.3l-1.1-0.2v-0.9h2.3l0.1,1.1c0.2-0.4,0.6-0.7,0.9-0.9c0.4-0.2,0.8-0.3,1.3-0.3
			c0.8,0,1.4,0.2,1.9,0.7c0.4,0.5,0.7,1.2,0.7,2.2v3.6l1.1,0.2v0.9h-3.6v-0.9l1.1-0.2v-3.6c0-0.7-0.1-1.1-0.4-1.4s-0.7-0.4-1.2-0.4
			c-0.4,0-0.7,0.1-1,0.3s-0.5,0.4-0.7,0.8v4.3l1.1,0.2v0.9h-3.6V86.1z"/>
		<path class="st6" d="M367.7,80h-1l-0.3-1.4c-0.2-0.2-0.5-0.4-0.8-0.5c-0.3-0.1-0.7-0.2-1.1-0.2c-1,0-1.8,0.4-2.4,1.1
			c-0.6,0.7-0.8,1.7-0.8,2.9V82c0,1.2,0.3,2.1,0.8,2.9c0.5,0.8,1.3,1.1,2.3,1.1c0.5,0,0.9-0.1,1.2-0.2s0.7-0.3,0.9-0.5l0.3-1.4h1
			v1.8c-0.3,0.4-0.7,0.7-1.3,1c-0.6,0.3-1.2,0.4-2,0.4c-1.3,0-2.4-0.5-3.2-1.4c-0.8-1-1.2-2.2-1.2-3.6v-0.1c0-1.5,0.4-2.7,1.2-3.6
			c0.8-1,1.9-1.4,3.2-1.4c0.8,0,1.4,0.1,2,0.4c0.6,0.3,1,0.6,1.3,1V80z"/>
		<path class="st6" d="M369.2,83.2c0-1.1,0.3-2,0.9-2.7c0.6-0.7,1.4-1.1,2.4-1.1c1,0,1.8,0.4,2.4,1.1s0.9,1.6,0.9,2.7v0.2
			c0,1.1-0.3,2-0.9,2.7c-0.6,0.7-1.4,1.1-2.4,1.1c-1,0-1.8-0.4-2.4-1.1c-0.6-0.7-0.9-1.6-0.9-2.7V83.2z M370.5,83.3
			c0,0.8,0.2,1.4,0.5,1.9c0.3,0.5,0.8,0.8,1.5,0.8c0.6,0,1.1-0.3,1.5-0.8c0.3-0.5,0.5-1.2,0.5-1.9v-0.2c0-0.8-0.2-1.4-0.5-1.9
			c-0.3-0.5-0.8-0.8-1.5-0.8c-0.6,0-1.1,0.3-1.5,0.8s-0.5,1.2-0.5,1.9V83.3z"/>
		<path class="st6" d="M376.8,86.1l1.1-0.2v-5.3l-1.1-0.2v-0.9h2.3l0.1,1c0.2-0.4,0.5-0.6,0.9-0.8c0.4-0.2,0.8-0.3,1.3-0.3
			s0.9,0.1,1.3,0.3c0.4,0.2,0.6,0.6,0.8,1c0.2-0.4,0.5-0.8,0.9-1s0.8-0.4,1.3-0.4c0.8,0,1.4,0.3,1.8,0.8c0.4,0.5,0.7,1.3,0.7,2.3
			v3.4l1.1,0.2v0.9h-3.6v-0.9l1.1-0.2v-3.4c0-0.7-0.1-1.2-0.4-1.5c-0.3-0.3-0.6-0.5-1.1-0.5c-0.5,0-0.8,0.2-1.1,0.5
			c-0.3,0.3-0.5,0.7-0.5,1.2v3.6l1.1,0.2v0.9h-3.6v-0.9l1.1-0.2v-3.4c0-0.7-0.1-1.2-0.4-1.5c-0.3-0.3-0.6-0.5-1.1-0.5
			c-0.4,0-0.7,0.1-1,0.3c-0.3,0.2-0.5,0.4-0.6,0.7v4.4l1.1,0.2v0.9h-3.6V86.1z"/>
		<path class="st6" d="M390,86.1l1.1-0.2v-5.3l-1.1-0.2v-0.9h2.3l0.1,1c0.2-0.4,0.5-0.6,0.9-0.8c0.4-0.2,0.8-0.3,1.3-0.3
			s0.9,0.1,1.3,0.3c0.4,0.2,0.6,0.6,0.8,1c0.2-0.4,0.5-0.8,0.9-1s0.8-0.4,1.3-0.4c0.8,0,1.4,0.3,1.8,0.8c0.4,0.5,0.7,1.3,0.7,2.3
			v3.4l1.1,0.2v0.9h-3.6v-0.9l1.1-0.2v-3.4c0-0.7-0.1-1.2-0.4-1.5c-0.3-0.3-0.6-0.5-1.1-0.5c-0.5,0-0.8,0.2-1.1,0.5
			c-0.3,0.3-0.5,0.7-0.5,1.2v3.6l1.1,0.2v0.9h-3.6v-0.9l1.1-0.2v-3.4c0-0.7-0.1-1.2-0.4-1.5c-0.3-0.3-0.6-0.5-1.1-0.5
			c-0.4,0-0.7,0.1-1,0.3c-0.3,0.2-0.5,0.4-0.6,0.7v4.4l1.1,0.2v0.9H390V86.1z"/>
		<path class="st6" d="M408.8,85.8c-0.2,0.4-0.5,0.7-0.9,0.9c-0.4,0.2-0.8,0.3-1.3,0.3c-0.8,0-1.4-0.3-1.9-0.8s-0.7-1.3-0.7-2.4
			v-3.3l-0.8-0.2v-0.9h0.8h1.3v4.4c0,0.8,0.1,1.3,0.3,1.6s0.6,0.4,1.1,0.4c0.5,0,0.9-0.1,1.2-0.3c0.3-0.2,0.5-0.5,0.7-0.8v-4.3
			l-1-0.2v-0.9h1h1.3v6.3l0.8,0.2v0.9h-2.1L408.8,85.8z"/>
		<path class="st6" d="M411.8,86.1l1.1-0.2v-5.3l-1.1-0.2v-0.9h2.3l0.1,1.1c0.2-0.4,0.6-0.7,0.9-0.9c0.4-0.2,0.8-0.3,1.3-0.3
			c0.8,0,1.4,0.2,1.9,0.7c0.4,0.5,0.7,1.2,0.7,2.2v3.6l1.1,0.2v0.9h-3.6v-0.9l1.1-0.2v-3.6c0-0.7-0.1-1.1-0.4-1.4
			c-0.3-0.3-0.7-0.4-1.2-0.4c-0.4,0-0.7,0.1-1,0.3c-0.3,0.2-0.5,0.4-0.7,0.8v4.3l1.1,0.2v0.9h-3.6V86.1z"/>
		<path class="st6" d="M421,86.1l1.1-0.2v-5.3l-1.1-0.2v-0.9h2.5v6.3l1.1,0.2v0.9H421V86.1z M423.5,77.7h-1.3v-1.4h1.3V77.7z"/>
		<path class="st6" d="M428.9,86c0.4,0,0.8-0.1,1.2-0.4c0.3-0.3,0.5-0.6,0.5-1h1.2l0,0c0,0.6-0.3,1.2-0.9,1.7
			c-0.6,0.5-1.3,0.7-2.1,0.7c-1.1,0-1.9-0.4-2.5-1.1s-0.9-1.6-0.9-2.6v-0.3c0-1.1,0.3-1.9,0.9-2.6c0.6-0.7,1.4-1.1,2.5-1.1
			c0.6,0,1.1,0.1,1.6,0.3s0.9,0.5,1.2,0.8l0.1,1.6h-1.1l-0.3-1.2c-0.2-0.2-0.4-0.3-0.6-0.4c-0.3-0.1-0.5-0.1-0.8-0.1
			c-0.7,0-1.2,0.3-1.5,0.8c-0.3,0.5-0.5,1.1-0.5,1.9v0.3c0,0.8,0.2,1.4,0.5,1.9C427.7,85.8,428.2,86,428.9,86z"/>
		<path class="st6" d="M438,86.9c0-0.2-0.1-0.4-0.1-0.5c0-0.2,0-0.3,0-0.5c-0.3,0.3-0.6,0.6-1,0.8c-0.4,0.2-0.8,0.3-1.2,0.3
			c-0.8,0-1.4-0.2-1.8-0.6c-0.4-0.4-0.6-0.9-0.6-1.6c0-0.7,0.3-1.2,0.9-1.6c0.6-0.4,1.3-0.6,2.3-0.6h1.4v-0.9c0-0.4-0.1-0.8-0.4-1
			c-0.3-0.3-0.7-0.4-1.1-0.4c-0.3,0-0.6,0-0.9,0.1c-0.3,0.1-0.5,0.2-0.6,0.4l-0.1,0.8h-1v-1.4c0.3-0.3,0.7-0.5,1.2-0.6
			c0.5-0.2,1-0.2,1.6-0.2c0.8,0,1.5,0.2,2,0.6s0.8,1,0.8,1.8v3.6c0,0.1,0,0.2,0,0.3c0,0.1,0,0.2,0,0.3l0.5,0.1v0.9H438z M435.8,86
			c0.4,0,0.9-0.1,1.2-0.3s0.6-0.5,0.8-0.8v-1.2h-1.4c-0.6,0-1,0.1-1.3,0.4s-0.5,0.6-0.5,0.9c0,0.3,0.1,0.6,0.3,0.7
			C435.1,85.9,435.4,86,435.8,86z"/>
		<path class="st6" d="M443.2,77.8v1.8h1.4v1h-1.4V85c0,0.3,0.1,0.6,0.2,0.7s0.3,0.2,0.6,0.2c0.1,0,0.3,0,0.4,0c0.1,0,0.3,0,0.4-0.1
			l0.2,0.9c-0.1,0.1-0.3,0.1-0.6,0.2c-0.2,0.1-0.5,0.1-0.7,0.1c-0.5,0-1-0.2-1.3-0.5c-0.3-0.3-0.5-0.8-0.5-1.6v-4.5h-1.2v-1h1.2
			v-1.8H443.2z"/>
		<path class="st6" d="M446,86.1l1.1-0.2v-5.3l-1.1-0.2v-0.9h2.5v6.3l1.1,0.2v0.9H446V86.1z M448.4,77.7h-1.3v-1.4h1.3V77.7z"/>
		<path class="st6" d="M450.6,83.2c0-1.1,0.3-2,0.9-2.7c0.6-0.7,1.4-1.1,2.4-1.1c1,0,1.8,0.4,2.4,1.1s0.9,1.6,0.9,2.7v0.2
			c0,1.1-0.3,2-0.9,2.7c-0.6,0.7-1.4,1.1-2.4,1.1c-1,0-1.8-0.4-2.4-1.1c-0.6-0.7-0.9-1.6-0.9-2.7V83.2z M451.9,83.3
			c0,0.8,0.2,1.4,0.5,1.9c0.3,0.5,0.8,0.8,1.5,0.8c0.6,0,1.1-0.3,1.5-0.8c0.3-0.5,0.5-1.2,0.5-1.9v-0.2c0-0.8-0.2-1.4-0.5-1.9
			c-0.3-0.5-0.8-0.8-1.5-0.8c-0.6,0-1.1,0.3-1.5,0.8s-0.5,1.2-0.5,1.9V83.3z"/>
		<path class="st6" d="M458.2,86.1l1.1-0.2v-5.3l-1.1-0.2v-0.9h2.3l0.1,1.1c0.2-0.4,0.6-0.7,0.9-0.9c0.4-0.2,0.8-0.3,1.3-0.3
			c0.8,0,1.4,0.2,1.9,0.7c0.4,0.5,0.7,1.2,0.7,2.2v3.6l1.1,0.2v0.9h-3.6v-0.9l1.1-0.2v-3.6c0-0.7-0.1-1.1-0.4-1.4
			c-0.3-0.3-0.7-0.4-1.2-0.4c-0.4,0-0.7,0.1-1,0.3c-0.3,0.2-0.5,0.4-0.7,0.8v4.3l1.1,0.2v0.9h-3.6V86.1z"/>
	</g>
</g>
<g id="Ebene_4">
	<line class="st11" x1="141.6" y1="55.8" x2="203.4" y2="55.8"/>
	<polygon class="st1" points="198.8,61.5 197.8,60.5 202.9,55.8 197.8,51.1 198.8,50.1 204.9,55.8 	"/>
</g>
</svg>
