<?xml version="1.0" encoding="utf-8"?>
<!-- Generator: Adobe Illustrator 24.0.0, SVG Export Plug-In . SVG Version: 6.00 Build 0)  -->
<svg version="1.1" id="Ebene_1" xmlns="http://www.w3.org/2000/svg" xmlns:xlink="http://www.w3.org/1999/xlink" x="0px" y="0px"
	 viewBox="0 0 580.6 320" style="enable-background:new 0 0 580.6 320;" xml:space="preserve">
<style type="text/css">
	.st0{opacity:0.2;}
	.st1{fill:#FFCC99;}
	.st2{fill:none;stroke:#CC3300;stroke-width:2;stroke-miterlimit:10;stroke-dasharray:2,2;}
	.st3{fill:#FFFFFF;stroke:#CC3300;stroke-width:2;stroke-linecap:round;stroke-linejoin:round;}
	.st4{fill:url(#SVGID_1_);stroke:#FFCC00;stroke-width:2;stroke-miterlimit:10;}
	.st5{fill:url(#SVGID_2_);}
	.st6{fill:none;stroke:#FFCC00;stroke-width:2;stroke-miterlimit:10;}
	.st7{opacity:0.4;fill:#86C2EB;enable-background:new    ;}
	.st8{fill:#FDFEFF;}
	.st9{fill:none;stroke:#FFFFFF;stroke-width:2;stroke-miterlimit:10;}
	.st10{fill:#FFFFFF;}
	.st11{opacity:0.7;}
	.st12{fill:url(#SVGID_3_);}
	.st13{fill:none;stroke:#FFCC00;stroke-width:2;stroke-miterlimit:10;stroke-dasharray:2,2;}
	.st14{fill:#FFCC00;}
	.st15{enable-background:new    ;}
	.st16{clip-path:url(#SVGID_5_);}
	.st17{clip-path:url(#SVGID_7_);}
	.st18{fill:#FFD138;}
	.st19{fill:none;stroke:#FFCC00;stroke-width:2;stroke-linecap:round;stroke-linejoin:round;}
	.st20{fill:none;stroke:#CC3300;stroke-width:2;stroke-linecap:round;stroke-linejoin:round;}
	.st21{fill:#CC3300;}
	.st22{fill:#330066;}
</style>
<g id="Ebene_2_1_">
	<g class="st0">
		<path class="st1" d="M432.8,261.4v20.7c0,4.6,2.2,8.3,5,8.3h100c2.8,0,5-3.7,5-8.3V69.8c0-4.6-2.2-8.3-5-8.3h-100
			c-2.8,0-5,3.7-5,8.3v24.7"/>
	</g>
	<path class="st2" d="M432.8,240.2v41.9c0,4.6,2.2,8.3,5,8.3h100c2.8,0,5-3.7,5-8.3V70.3c0-4.6-2.2-8.3-5-8.3h-100
		c-2.8,0-5,3.7-5,8.3v32.8"/>
	<path class="st3" d="M537.8,59.2c-0.7-1.3-2.3-1.8-3.6-1.2c-2.2,0.9-1.3,3.6-1.3,3.6s-5.1-0.1-4.6,5.2c0.4,3.8,4.6,3.6,4.4,3.6
		c-6.2,0,12.4,0,18.6,0c1,0,1.9-0.4,2.6-1c1.5-1.1,2-3.1,1.3-4.7c-0.7-1.8-3-2.8-4.9-2.9c0,0,1.1-4.9-2.4-7
		c-2.5-1.7-5.8-1.4-8.1,0.6C538.9,56.4,538.2,57.7,537.8,59.2z"/>
	<line class="st2" x1="432.8" y1="129.5" x2="432.8" y2="212.5"/>
	
		<linearGradient id="SVGID_1_" gradientUnits="userSpaceOnUse" x1="40.17" y1="144.89" x2="347.05" y2="144.89" gradientTransform="matrix(1 0 0 -1 0 322)">
		<stop  offset="0" style="stop-color:#990066"/>
		<stop  offset="0.19" style="stop-color:#780066"/>
		<stop  offset="0.4" style="stop-color:#5A0066"/>
		<stop  offset="0.61" style="stop-color:#440066"/>
		<stop  offset="0.81" style="stop-color:#370066"/>
		<stop  offset="1" style="stop-color:#330066"/>
	</linearGradient>
	<path class="st4" d="M45.2,62H342c2.8,0,5,2.2,5,5v220.1c0,2.8-2.2,5-5,5H45.2c-2.8,0-5-2.2-5-5V67C40.2,64.3,42.4,62,45.2,62z"/>
	
		<linearGradient id="SVGID_2_" gradientUnits="userSpaceOnUse" x1="221.32" y1="146.05" x2="334" y2="146.05" gradientTransform="matrix(1 0 0 -1 0 322)">
		<stop  offset="0" style="stop-color:#990066"/>
		<stop  offset="0.19" style="stop-color:#780066"/>
		<stop  offset="0.4" style="stop-color:#5A0066"/>
		<stop  offset="0.61" style="stop-color:#440066"/>
		<stop  offset="0.81" style="stop-color:#370066"/>
		<stop  offset="1" style="stop-color:#330066"/>
	</linearGradient>
	<path class="st5" d="M334,103.4V82.6c-0.1-2.6-2.1-4.8-4.7-5H225c-2.1,0-3.7,2.2-3.7,5v186.7c0,2.8,2.1,5,4.3,5h104.7
		c2.1,0,3.7-2.2,3.7-5V238"/>
	<path class="st6" d="M334,103.4V82.6c-0.1-2.6-2.1-4.8-4.7-5H225c-2.1,0-3.7,2.2-3.7,5v186.7c0,2.8,2.1,5,4.3,5h104.7
		c2.1,0,3.7-2.2,3.7-5V238"/>
	<path class="st7" d="M237,93.5h82.1c2.8,0,5,2.2,5,5v33.1c0,2.8-2.2,5-5,5H237c-2.8,0-5-2.2-5-5V98.5C232,95.7,234.2,93.5,237,93.5
		z"/>
	<path class="st7" d="M57.9,93.5H140c2.8,0,5,2.2,5,5v33.1c0,2.8-2.2,5-5,5H57.9c-2.8,0-5-2.2-5-5V98.5
		C52.9,95.7,55.2,93.5,57.9,93.5z"/>
	<rect x="249.2" y="103.2" class="st8" width="24.2" height="24.2"/>
	<rect x="281.7" y="103.2" class="st8" width="24.2" height="24.2"/>
	<path class="st7" d="M237,204.2h82.1c2.8,0,5,2.2,5,5v33.1c0,2.8-2.2,5-5,5H237c-2.8,0-5-2.2-5-5v-33.1
		C232,206.4,234.2,204.2,237,204.2z"/>
	<path class="st7" d="M58.4,204.2h82.1c2.8,0,5,2.2,5,5v33.1c0,2.8-2.2,5-5,5H58.4c-2.8,0-5-2.2-5-5v-33.1
		C53.4,206.4,55.6,204.2,58.4,204.2z"/>
	<rect x="265.5" y="212.9" class="st8" width="24.2" height="24.2"/>
	<polyline class="st9" points="96.2,127.2 72.1,127.2 72.1,103.1 	"/>
	<circle class="st10" cx="79.3" cy="105" r="1"/>
	<circle class="st10" cx="86.4" cy="114.4" r="1"/>
	<circle class="st10" cx="86.4" cy="108" r="1"/>
	<circle class="st10" cx="94.3" cy="118.8" r="1"/>
	<circle class="st10" cx="77.3" cy="116.1" r="1"/>
	<circle class="st10" cx="81.6" cy="121.8" r="1"/>
	<polyline class="st9" points="127.2,127.2 103.1,127.2 103.1,103.1 	"/>
	<path class="st9" d="M103.3,115.1h3.5c0,0,0.6-8.1,3.5-8.1c2.4,0,2.9,13.8,5.8,13.8c2.5,0,2.7-8.9,4.6-8.8c1.6,0.1,1.7,5.8,3,5.8
		c1.1,0,1.7-2.4,1.7-2.4"/>
	<polyline class="st9" points="113.7,238.3 88.5,238.3 88.5,213.1 	"/>
	<rect x="92.2" y="213.1" class="st10" width="3.8" height="23.1"/>
	<rect x="98" y="223.4" class="st10" width="3.8" height="12.8"/>
	<rect x="103.7" y="218.5" class="st10" width="3.8" height="17.7"/>
	<rect x="109.5" y="229.1" class="st10" width="3.8" height="7.1"/>
	<g class="st11">
		
			<linearGradient id="SVGID_3_" gradientUnits="userSpaceOnUse" x1="334" y1="151.155" x2="529.67" y2="151.155" gradientTransform="matrix(1 0 0 -1 0 322)">
			<stop  offset="0" style="stop-color:#990066"/>
			<stop  offset="0.19" style="stop-color:#780066"/>
			<stop  offset="0.4" style="stop-color:#5A0066"/>
			<stop  offset="0.61" style="stop-color:#440066"/>
			<stop  offset="0.81" style="stop-color:#370066"/>
			<stop  offset="1" style="stop-color:#330066"/>
		</linearGradient>
		<path class="st12" d="M524.7,103.4H334v25.7h106.9c2.7,0,4.9,2.2,4.9,4.9v75.6c0,2.7-2.2,2.9-4.9,2.9H334v25.7h190.7
			c2.8,0,5-2.2,5-5V108.4C529.7,105.7,527.4,103.4,524.7,103.4z"/>
	</g>
	<line class="st13" x1="328.7" y1="116.6" x2="404.7" y2="116.6"/>
	<polygon class="st14" points="400.1,122.3 399.1,121.3 404.2,116.6 399.1,111.9 400.1,110.9 406.2,116.6 	"/>
	<line class="st13" x1="146.8" y1="116.6" x2="230.8" y2="116.6"/>
	<polygon class="st14" points="226.2,122.3 225.2,121.3 230.3,116.6 225.2,111.9 226.2,110.9 232.3,116.6 	"/>
	<line class="st13" x1="234.3" y1="224.8" x2="148.3" y2="224.8"/>
	<polygon class="st14" points="152.9,219.1 153.9,220.1 148.9,224.8 153.9,229.5 152.9,230.5 146.8,224.8 	"/>
	<line class="st13" x1="405.7" y1="224.8" x2="330.2" y2="224.8"/>
	<polygon class="st14" points="334.9,219.1 335.8,220.1 330.8,224.8 335.8,229.5 334.9,230.5 328.7,224.8 	"/>
	<path class="st6" d="M334,238.2h190.7c2.8,0,5-2.2,5-5V108.4c0-2.8-2.2-5-5-5H334"/>
</g>
<g id="schrift">
	<g class="st15">
		<path class="st14" d="M301.9,168.8h-1l-0.1-0.9c-0.1-0.1-0.3-0.2-0.5-0.3c-0.2-0.1-0.4-0.1-0.7-0.1c-0.6,0-1,0.2-1.3,0.6
			c-0.3,0.4-0.5,0.9-0.5,1.6v0.2c0,0.7,0.1,1.2,0.4,1.6s0.7,0.6,1.3,0.6c0.3,0,0.5,0,0.7-0.1c0.2-0.1,0.4-0.2,0.5-0.3l0.1-0.9h1v1.3
			c-0.3,0.3-0.6,0.5-1,0.7c-0.4,0.2-0.8,0.3-1.3,0.3c-0.9,0-1.6-0.3-2.1-0.9s-0.8-1.4-0.8-2.3v-0.2c0-0.9,0.3-1.7,0.8-2.3
			s1.2-0.9,2.1-0.9c0.5,0,0.9,0.1,1.3,0.3c0.4,0.2,0.7,0.4,1,0.7V168.8z"/>
		<path class="st14" d="M302.5,173v-0.8l0.7-0.1v-4.6l-0.7-0.1v-0.8h0.7h1.3h0.7v0.8l-0.7,0.1v4.5h1.8l0.1-0.8h1v1.8H302.5z"/>
		<path class="st14" d="M307.8,167.4v-0.8h2.6v0.8l-0.7,0.1v4.6l0.7,0.1v0.8h-2.6v-0.8l0.7-0.1v-4.6L307.8,167.4z"/>
	</g>
	<g class="st15">
		<path class="st14" d="M254.8,182.4c0-1.1,0.2-2.1,0.7-2.9c0.4-0.8,0.9-1.3,1.5-1.6h0l0.2,0.6c-0.4,0.3-0.7,0.8-1,1.4
			s-0.4,1.5-0.4,2.4v0.1c0,1,0.1,1.8,0.4,2.4c0.3,0.6,0.6,1.1,1,1.4L257,187h0c-0.6-0.2-1.1-0.8-1.5-1.6S254.8,183.7,254.8,182.4
			L254.8,182.4z"/>
		<path class="st14" d="M259.9,184.1c0.2,0,0.4-0.1,0.5-0.2c0.1-0.1,0.2-0.3,0.2-0.5h1.2l0,0c0,0.5-0.2,0.9-0.5,1.2
			c-0.4,0.3-0.8,0.5-1.4,0.5c-0.7,0-1.3-0.2-1.6-0.7s-0.6-1-0.6-1.7v-0.1c0-0.7,0.2-1.3,0.6-1.7c0.4-0.5,1-0.7,1.7-0.7
			c0.4,0,0.7,0.1,1,0.2c0.3,0.1,0.6,0.3,0.8,0.5l0,1.3h-1l-0.2-0.7c-0.1-0.1-0.1-0.1-0.2-0.1c-0.1,0-0.2-0.1-0.3-0.1
			c-0.4,0-0.6,0.1-0.8,0.4s-0.2,0.6-0.2,1v0.1c0,0.4,0.1,0.8,0.2,1C259.3,184,259.6,184.1,259.9,184.1z"/>
		<path class="st14" d="M262.4,182.6c0-0.7,0.2-1.3,0.6-1.7c0.4-0.5,0.9-0.7,1.6-0.7c0.7,0,1.3,0.2,1.6,0.7s0.6,1,0.6,1.7v0.1
			c0,0.7-0.2,1.3-0.6,1.7c-0.4,0.4-0.9,0.7-1.6,0.7c-0.7,0-1.3-0.2-1.7-0.7C262.6,184,262.4,183.4,262.4,182.6L262.4,182.6z
			 M263.7,182.7c0,0.4,0.1,0.8,0.2,1c0.2,0.3,0.4,0.4,0.7,0.4c0.3,0,0.6-0.1,0.7-0.4c0.2-0.3,0.2-0.6,0.2-1v-0.1
			c0-0.4-0.1-0.8-0.2-1s-0.4-0.4-0.7-0.4s-0.6,0.1-0.7,0.4S263.7,182.2,263.7,182.7L263.7,182.7z"/>
		<path class="st14" d="M267.4,184.3l0.6-0.1v-2.9l-0.7-0.1v-0.8h1.9l0.1,0.7c0.2-0.2,0.4-0.4,0.6-0.6s0.5-0.2,0.8-0.2
			c0.5,0,0.9,0.2,1.1,0.5c0.3,0.3,0.4,0.8,0.4,1.4v2.1l0.6,0.1v0.8h-2.5v-0.8l0.5-0.1v-2.1c0-0.3-0.1-0.5-0.2-0.7
			c-0.1-0.1-0.3-0.2-0.6-0.2c-0.2,0-0.3,0-0.5,0.1c-0.1,0.1-0.2,0.2-0.3,0.3v2.5l0.5,0.1v0.8h-2.4V184.3z"/>
		<path class="st14" d="M275.1,179.1v1.2h0.8v0.9h-0.8v2.4c0,0.2,0,0.3,0.1,0.4s0.2,0.1,0.3,0.1c0.1,0,0.2,0,0.2,0
			c0.1,0,0.1,0,0.2,0l0.1,0.9c-0.1,0-0.3,0.1-0.4,0.1c-0.1,0-0.3,0-0.5,0c-0.4,0-0.8-0.1-1-0.4s-0.4-0.6-0.4-1.2v-2.4h-0.7v-0.9h0.7
			v-1.2H275.1z"/>
		<path class="st14" d="M279.6,185c0-0.1-0.1-0.2-0.1-0.2c0-0.1,0-0.2-0.1-0.3c-0.2,0.2-0.3,0.3-0.6,0.4s-0.5,0.2-0.7,0.2
			c-0.5,0-0.8-0.1-1.1-0.4c-0.3-0.3-0.4-0.6-0.4-1c0-0.4,0.2-0.8,0.5-1s0.9-0.4,1.6-0.4h0.7v-0.5c0-0.2-0.1-0.4-0.2-0.5
			s-0.3-0.2-0.6-0.2c-0.1,0-0.3,0-0.4,0c-0.1,0-0.2,0.1-0.3,0.1l-0.1,0.5h-1l0-1.1c0.2-0.2,0.5-0.3,0.8-0.4c0.3-0.1,0.6-0.2,1-0.2
			c0.6,0,1.1,0.1,1.4,0.4c0.4,0.3,0.6,0.7,0.6,1.2v2c0,0.1,0,0.1,0,0.2s0,0.1,0,0.2l0.4,0.1v0.8H279.6z M278.5,184.2
			c0.2,0,0.4,0,0.5-0.1c0.2-0.1,0.3-0.2,0.4-0.3V183h-0.7c-0.3,0-0.5,0.1-0.6,0.2c-0.1,0.1-0.2,0.3-0.2,0.5c0,0.2,0.1,0.3,0.2,0.4
			S278.3,184.2,278.5,184.2z"/>
		<path class="st14" d="M281.5,184.3l0.6-0.1v-2.9l-0.7-0.1v-0.8h2v3.9l0.6,0.1v0.8h-2.5V184.3z M283.4,179.1h-1.3v-1h1.3V179.1z"/>
	</g>
	<g class="st15">
		<path class="st14" d="M284.3,184.3l0.6-0.1v-2.9l-0.7-0.1v-0.8h1.9l0.1,0.7c0.2-0.2,0.4-0.4,0.6-0.6s0.5-0.2,0.8-0.2
			c0.5,0,0.9,0.2,1.1,0.5c0.3,0.3,0.4,0.8,0.4,1.4v2.1l0.6,0.1v0.8h-2.5v-0.8l0.5-0.1v-2.1c0-0.3-0.1-0.5-0.2-0.7
			c-0.1-0.1-0.3-0.2-0.6-0.2c-0.2,0-0.3,0-0.5,0.1c-0.1,0.1-0.2,0.2-0.3,0.3v2.5l0.5,0.1v0.8h-2.4V184.3z"/>
	</g>
	<g class="st15">
		<path class="st14" d="M292.3,185.1c-0.7,0-1.2-0.2-1.6-0.7c-0.4-0.4-0.6-1-0.6-1.7v-0.2c0-0.7,0.2-1.3,0.6-1.7
			c0.4-0.5,0.9-0.7,1.6-0.7c0.6,0,1.1,0.2,1.5,0.6c0.4,0.4,0.5,0.9,0.5,1.6v0.7h-2.8l0,0c0,0.3,0.1,0.6,0.3,0.8
			c0.2,0.2,0.4,0.3,0.8,0.3c0.3,0,0.5,0,0.7-0.1c0.2-0.1,0.4-0.1,0.6-0.3l0.3,0.8c-0.2,0.2-0.5,0.3-0.8,0.4
			C293.1,185.1,292.7,185.1,292.3,185.1z M292.2,181.2c-0.2,0-0.4,0.1-0.6,0.3c-0.1,0.2-0.2,0.4-0.3,0.7l0,0h1.6v-0.1
			c0-0.3-0.1-0.5-0.2-0.7C292.7,181.3,292.5,181.2,292.2,181.2z"/>
		<path class="st14" d="M295,184.3l0.6-0.1v-2.9l-0.7-0.1v-0.8h1.9l0.1,0.7c0.1-0.2,0.3-0.4,0.4-0.6c0.2-0.1,0.4-0.2,0.6-0.2
			c0.1,0,0.1,0,0.2,0c0.1,0,0.1,0,0.2,0l-0.1,1.2l-0.5,0c-0.2,0-0.3,0-0.5,0.1s-0.2,0.2-0.3,0.3v2.3l0.6,0.1v0.8H295V184.3z"/>
		<path class="st14" d="M301.1,182.5c0,1.1-0.2,2.1-0.7,2.9c-0.5,0.8-1,1.3-1.5,1.6h0l-0.2-0.6c0.4-0.3,0.7-0.8,1-1.4
			s0.4-1.5,0.4-2.5v-0.1c0-1-0.1-1.8-0.4-2.4c-0.3-0.6-0.6-1.1-1-1.4l0.2-0.6h0c0.6,0.2,1.1,0.8,1.5,1.6
			C300.9,180.4,301.1,181.3,301.1,182.5L301.1,182.5z"/>
	</g>
	<g id="Scone_logo_white">
		<g>
			<defs>
				<rect id="SVGID_4_" x="246.2" y="164" width="45.7" height="8.9"/>
			</defs>
			<clipPath id="SVGID_5_">
				<use xlink:href="#SVGID_4_"  style="overflow:visible;"/>
			</clipPath>
			<g class="st16">
				<g>
					<defs>
						<rect id="SVGID_6_" x="246.2" y="164" width="45.7" height="8.9"/>
					</defs>
					<clipPath id="SVGID_7_">
						<use xlink:href="#SVGID_6_"  style="overflow:visible;"/>
					</clipPath>
					<g class="st17">
						<path class="st18" d="M252.2,166.3h-1c-0.2,0-0.4,0.2-0.4,0.4v1c0,0.2,0.2,0.4,0.4,0.4h1c0.2,0,0.4-0.2,0.4-0.4v-1
							C252.6,166.5,252.4,166.3,252.2,166.3 M248.9,168h1c0.2,0,0.4-0.2,0.4-0.4v-1c0-0.2-0.2-0.4-0.4-0.4c0,0,0,0,0,0h-1
							c-0.2,0-0.4,0.2-0.4,0.4v1C248.5,167.8,248.7,168,248.9,168 M247.9,167.6v-1c0-0.2-0.2-0.4-0.4-0.4h-1c-0.2,0-0.4,0.2-0.4,0.4
							l0,0v1c0,0.2,0.2,0.4,0.4,0.4h1C247.7,168,247.9,167.8,247.9,167.6 M252.3,168.6c-0.1,0-0.3,0.1-0.3,0.3v1.1
							c0,0.2,0.1,0.3,0.3,0.3c0.2,0,0.3-0.1,0.3-0.3v-1C252.6,168.9,252.5,168.7,252.3,168.6C252.3,168.7,252.3,168.7,252.3,168.6
							 M249.7,169.1v1c0,0.2,0.2,0.4,0.4,0.4h1c0.2,0,0.4-0.2,0.4-0.4v-1c0-0.2-0.2-0.4-0.3-0.4c0,0,0,0,0,0h-1
							C249.8,168.7,249.7,168.9,249.7,169.1 M249,170.1v-1c0-0.2-0.2-0.4-0.4-0.4h-0.9c-0.2,0-0.4,0.2-0.4,0.3c0,0,0,0,0,0v1
							c0,0.2,0.2,0.4,0.4,0.4h0.9C248.8,170.5,249,170.3,249,170.1C249,170.1,249,170,249,170.1 M252.2,171.1h-1
							c-0.2,0-0.4,0.2-0.4,0.4v1c0,0.2,0.2,0.4,0.4,0.4h1c0.2,0,0.4-0.2,0.4-0.4v-1C252.6,171.2,252.4,171.1,252.2,171.1
							 M249.8,171.1h-0.9c-0.2,0-0.4,0.2-0.4,0.4v1c0,0.2,0.2,0.4,0.4,0.4h0.9c0.2,0,0.4-0.2,0.4-0.4v-1
							C250.1,171.2,250,171.1,249.8,171.1C249.8,171,249.8,171,249.8,171.1"/>
						<path class="st18" d="M253.4,165.9c0.4,0.3,1,0.5,1.5,0.5c0,0,0,0,0,0.1v2.6c0,1-1.2,1.6-1.5,1.8l0,0L253.4,165.9L253.4,165.9
							"/>
						<path class="st18" d="M250.5,165.8c2-0.1,2.4-0.8,2.4-0.8c0,0,0.1-0.1,0.1-0.1c0,0,0.1,0,0.1,0c0,0,0.3,0.8,2.3,0.8
							c0.1,0,0.1,0,0.1,0.1v3.4c0,1.1-2.1,2.4-2.1,2.4s-0.1,0-0.1,0.1v0.9c0,0,0.1,0,0.2,0c0.8-0.4,3-1.6,3-3.1v-4.4
							c0-0.1-0.1-0.1-0.2-0.1c-2.6,0-3-0.9-3-0.9s-0.1,0-0.2,0s-0.1,0-0.1,0s-0.4,1-3,1c-0.1,0-0.1,0-0.1,0.1v0.6c0,0,0,0.1,0.1,0.1
							S250.6,165.8,250.5,165.8"/>
						<path class="st8" d="M258.3,171.4l1-0.4c0.3,0.5,0.8,0.8,1.3,0.8c0.3,0,0.5,0,0.8-0.2c0.2-0.1,0.3-0.3,0.3-0.6
							c0-0.6-0.8-0.9-1.3-1.1l0,0c-0.4-0.2-0.8-0.4-1.2-0.7c-0.4-0.3-0.6-0.7-0.6-1.2c0-0.5,0.2-1,0.6-1.3c0.4-0.3,1-0.5,1.5-0.5
							c0.8,0,1.6,0.4,2,1.1l-1.1,0.4c-0.1-0.2-0.2-0.3-0.4-0.4c-0.2-0.1-0.4-0.1-0.6-0.1c-0.6,0-1,0.3-1,0.7c0,0.3,0.2,0.5,0.4,0.7
							c0.3,0.2,0.6,0.3,0.9,0.5h0.1c0.8,0.3,1.8,0.8,1.8,1.8c0,0.5-0.3,1-0.7,1.3c-0.5,0.3-1.1,0.5-1.7,0.5
							C259.6,172.9,258.7,172.3,258.3,171.4"/>
						<path class="st8" d="M267.4,172.8c-0.4,0-0.9-0.1-1.3-0.3c-0.4-0.2-0.7-0.4-1-0.7c-0.3-0.3-0.5-0.6-0.7-1
							c-0.2-0.4-0.2-0.8-0.3-1.3c0-0.4,0.1-0.9,0.3-1.3c0.3-0.8,1-1.4,1.7-1.7c0.4-0.2,0.8-0.2,1.3-0.3c0.5,0,1,0.1,1.5,0.4
							c0.4,0.2,0.8,0.5,1.1,0.9l-0.9,0.6c-0.2-0.3-0.5-0.5-0.8-0.6c-0.3-0.1-0.7-0.2-1-0.2c-1.2,0-2.2,1-2.2,2.2
							c0,0.6,0.2,1.1,0.6,1.6c0.4,0.4,1,0.6,1.5,0.6c0.4,0,0.8-0.1,1.1-0.3c0.3-0.2,0.6-0.5,0.8-0.8l0.9,0.5
							c-0.3,0.5-0.7,0.9-1.2,1.2C268.6,172.7,268,172.9,267.4,172.8"/>
						<path class="st8" d="M274.5,172.8c-0.4,0-0.9-0.1-1.3-0.3c-0.4-0.2-0.7-0.4-1-0.7c-0.3-0.3-0.5-0.6-0.7-1
							c-0.2-0.4-0.2-0.8-0.3-1.3c0-0.4,0.1-0.9,0.3-1.3c0.5-1.2,1.7-2,3-2c0.4,0,0.9,0.1,1.3,0.3c0.4,0.2,0.7,0.4,1,0.7
							c0.6,0.6,1,1.4,1,2.3c0,0.4-0.1,0.9-0.3,1.3c-0.2,0.4-0.4,0.7-0.7,1c-0.3,0.3-0.6,0.5-1,0.7
							C275.4,172.7,275,172.8,274.5,172.8 M274.6,167.4c-0.6,0-1.2,0.2-1.6,0.6c-0.4,0.4-0.6,1-0.6,1.5c0,0.6,0.2,1.1,0.6,1.6
							c0.4,0.4,1,0.6,1.5,0.6c0.6,0,1.1-0.2,1.5-0.6c0.9-0.8,0.9-2.2,0-3.1c0,0,0,0,0,0C275.7,167.6,275.1,167.4,274.6,167.4"/>
						<polygon class="st8" points="285.1,166.4 285.1,173 280.6,168.8 280.6,172.7 279.4,172.7 279.4,166.1 284,170.3 284,166.4 
													"/>
						<polygon class="st8" points="288.3,167.3 288.3,169 291.4,169 291.4,170 288.3,170 288.3,171.7 291.8,171.7 291.8,172.7 
							287.1,172.7 287.1,166.4 291.8,166.4 291.8,167.4 288.3,167.4 						"/>
					</g>
				</g>
			</g>
		</g>
	</g>
	<g class="st15">
		<path class="st10" d="M237.1,151.1h-0.8l3-7.7h0.8L237.1,151.1z"/>
		<path class="st10" d="M243.1,150.6c-0.7,0-1.3-0.2-1.8-0.7c-0.4-0.5-0.7-1.1-0.7-1.9v-0.2c0-0.8,0.2-1.4,0.7-1.9
			c0.4-0.5,1-0.8,1.6-0.8c0.7,0,1.2,0.2,1.6,0.6s0.5,1,0.5,1.7v0.6h-3.4l0,0c0,0.5,0.1,0.9,0.4,1.3c0.2,0.3,0.6,0.5,1,0.5
			c0.3,0,0.6,0,0.9-0.1c0.2-0.1,0.5-0.2,0.6-0.4l0.4,0.6c-0.2,0.2-0.4,0.3-0.7,0.5C243.9,150.6,243.6,150.6,243.1,150.6z M243,145.9
			c-0.3,0-0.6,0.1-0.8,0.4c-0.2,0.3-0.4,0.6-0.4,1l0,0h2.4v-0.1c0-0.4-0.1-0.7-0.3-0.9S243.4,145.9,243,145.9z"/>
	</g>
	<g class="st15">
		<path class="st10" d="M246,149.9l0.8-0.1V146l-0.8-0.1v-0.6h1.7l0.1,0.8c0.2-0.3,0.4-0.5,0.7-0.7c0.3-0.2,0.6-0.2,0.9-0.2
			c0.6,0,1,0.2,1.3,0.5c0.3,0.3,0.5,0.8,0.5,1.5v2.6l0.8,0.1v0.6h-2.6v-0.6l0.8-0.1v-2.6c0-0.5-0.1-0.8-0.3-1s-0.5-0.3-0.8-0.3
			c-0.3,0-0.5,0.1-0.7,0.2s-0.4,0.3-0.5,0.5v3.1l0.8,0.1v0.6H246V149.9z"/>
	</g>
	<g class="st15">
		<path class="st10" d="M254.9,149.9c0.3,0,0.6-0.1,0.8-0.3c0.2-0.2,0.4-0.4,0.4-0.7h0.9l0,0c0,0.5-0.2,0.9-0.6,1.2
			c-0.4,0.4-0.9,0.5-1.5,0.5c-0.8,0-1.4-0.3-1.8-0.8s-0.6-1.1-0.6-1.9v-0.2c0-0.8,0.2-1.4,0.6-1.9c0.4-0.5,1-0.8,1.8-0.8
			c0.4,0,0.8,0.1,1.1,0.2s0.6,0.3,0.8,0.6l0,1.2h-0.8l-0.2-0.8c-0.1-0.1-0.3-0.2-0.4-0.3s-0.4-0.1-0.6-0.1c-0.5,0-0.9,0.2-1.1,0.5
			c-0.2,0.4-0.3,0.8-0.3,1.3v0.2c0,0.5,0.1,1,0.3,1.3C254,149.7,254.4,149.9,254.9,149.9z"/>
	</g>
	<g class="st15">
		<path class="st10" d="M257.9,145.9v-0.6h1.7l0.1,0.8c0.1-0.3,0.3-0.5,0.6-0.6s0.5-0.2,0.8-0.2c0.1,0,0.2,0,0.2,0
			c0.1,0,0.1,0,0.2,0l-0.1,0.9l-0.5,0c-0.3,0-0.5,0.1-0.6,0.2c-0.2,0.1-0.3,0.3-0.4,0.5v3l0.8,0.1v0.6h-2.6v-0.6l0.8-0.1V146
			L257.9,145.9z"/>
	</g>
	<g class="st15">
		<path class="st10" d="M267.1,145.9l-0.5,0.1l-2,5.4c-0.1,0.4-0.3,0.7-0.6,0.9s-0.6,0.4-1,0.4c-0.1,0-0.2,0-0.3,0
			c-0.1,0-0.2,0-0.3-0.1l0.1-0.8c0,0,0,0,0.2,0s0.2,0,0.3,0c0.2,0,0.4-0.1,0.5-0.3c0.1-0.2,0.2-0.4,0.3-0.6l0.2-0.5l-1.7-4.5
			l-0.5-0.1v-0.6h2.1v0.6l-0.6,0.1l0.9,2.6l0.2,0.7h0l1.1-3.3l-0.6-0.1v-0.6h2.1V145.9z"/>
		<path class="st10" d="M267.7,151.9l0.8-0.1V146l-0.8-0.1v-0.6h1.6l0.1,0.6c0.2-0.2,0.4-0.4,0.6-0.6s0.5-0.2,0.9-0.2
			c0.7,0,1.2,0.3,1.5,0.8c0.4,0.5,0.5,1.2,0.5,2.1v0.1c0,0.8-0.2,1.4-0.5,1.8c-0.4,0.5-0.9,0.7-1.5,0.7c-0.3,0-0.6-0.1-0.9-0.2
			c-0.2-0.1-0.5-0.3-0.6-0.5v1.8l0.8,0.1v0.6h-2.6V151.9z M272,148c0-0.6-0.1-1.1-0.4-1.5s-0.6-0.6-1-0.6c-0.3,0-0.5,0.1-0.7,0.2
			s-0.4,0.3-0.5,0.5v2.6c0.1,0.2,0.3,0.4,0.5,0.5c0.2,0.1,0.4,0.2,0.7,0.2c0.5,0,0.8-0.2,1-0.5s0.4-0.8,0.4-1.3V148z"/>
		<path class="st10" d="M275.5,144v1.3h1v0.7h-1v3.2c0,0.2,0.1,0.4,0.2,0.5s0.2,0.2,0.4,0.2c0.1,0,0.2,0,0.3,0c0.1,0,0.2,0,0.3,0
			l0.1,0.7c-0.1,0.1-0.2,0.1-0.4,0.1c-0.2,0-0.4,0.1-0.5,0.1c-0.4,0-0.7-0.1-0.9-0.4c-0.2-0.2-0.3-0.6-0.3-1.1V146h-0.8v-0.7h0.8
			V144H275.5z"/>
		<path class="st10" d="M279.9,150.6c-0.7,0-1.3-0.2-1.8-0.7c-0.4-0.5-0.7-1.1-0.7-1.9v-0.2c0-0.8,0.2-1.4,0.7-1.9
			c0.4-0.5,1-0.8,1.6-0.8c0.7,0,1.2,0.2,1.6,0.6s0.5,1,0.5,1.7v0.6h-3.4l0,0c0,0.5,0.1,0.9,0.4,1.3c0.2,0.3,0.6,0.5,1,0.5
			c0.3,0,0.6,0,0.9-0.1c0.2-0.1,0.5-0.2,0.6-0.4l0.4,0.6c-0.2,0.2-0.4,0.3-0.7,0.5C280.7,150.6,280.3,150.6,279.9,150.6z
			 M279.8,145.9c-0.3,0-0.6,0.1-0.8,0.4c-0.2,0.3-0.4,0.6-0.4,1l0,0h2.4v-0.1c0-0.4-0.1-0.7-0.3-0.9S280.2,145.9,279.8,145.9z"/>
		<path class="st10" d="M286.4,149.9c-0.2,0.2-0.4,0.4-0.6,0.5s-0.5,0.2-0.9,0.2c-0.6,0-1.1-0.2-1.5-0.7c-0.4-0.5-0.5-1.1-0.5-1.8
			V148c0-0.8,0.2-1.5,0.5-2.1s0.9-0.8,1.5-0.8c0.3,0,0.6,0.1,0.8,0.2c0.2,0.1,0.4,0.3,0.6,0.5v-2.2l-0.8-0.1v-0.6h0.8h1v6.9l0.8,0.1
			v0.6h-1.6L286.4,149.9z M283.8,148.1c0,0.5,0.1,1,0.3,1.3s0.6,0.5,1,0.5c0.3,0,0.5-0.1,0.7-0.2s0.4-0.3,0.5-0.6v-2.5
			c-0.1-0.2-0.3-0.4-0.5-0.5s-0.4-0.2-0.7-0.2c-0.5,0-0.8,0.2-1,0.6s-0.3,0.9-0.3,1.5V148.1z"/>
		<path class="st10" d="M288.8,144v-0.6h2.6v0.6l-0.8,0.1v5.6l0.8,0.1v0.6h-2.6v-0.6l0.8-0.1v-5.6L288.8,144z"/>
		<path class="st10" d="M292,149.9l0.8-0.1V146l-0.8-0.1v-0.6h1.7l0.1,0.8c0.2-0.3,0.4-0.5,0.7-0.7c0.3-0.2,0.6-0.2,0.9-0.2
			c0.6,0,1,0.2,1.3,0.5c0.3,0.3,0.5,0.8,0.5,1.5v2.6l0.8,0.1v0.6h-2.6v-0.6l0.8-0.1v-2.6c0-0.5-0.1-0.8-0.3-1
			c-0.2-0.2-0.5-0.3-0.8-0.3c-0.3,0-0.5,0.1-0.7,0.2c-0.2,0.1-0.4,0.3-0.5,0.5v3.1l0.8,0.1v0.6H292V149.9z"/>
		<path class="st10" d="M298.4,151.9l0.8-0.1V146l-0.8-0.1v-0.6h1.6l0.1,0.6c0.2-0.2,0.4-0.4,0.6-0.6c0.3-0.1,0.5-0.2,0.9-0.2
			c0.7,0,1.2,0.3,1.5,0.8c0.4,0.5,0.5,1.2,0.5,2.1v0.1c0,0.8-0.2,1.4-0.5,1.8c-0.4,0.5-0.9,0.7-1.5,0.7c-0.3,0-0.6-0.1-0.9-0.2
			c-0.2-0.1-0.5-0.3-0.6-0.5v1.8l0.8,0.1v0.6h-2.6V151.9z M302.8,148c0-0.6-0.1-1.1-0.4-1.5s-0.6-0.6-1-0.6c-0.3,0-0.5,0.1-0.7,0.2
			s-0.4,0.3-0.5,0.5v2.6c0.1,0.2,0.3,0.4,0.5,0.5c0.2,0.1,0.4,0.2,0.7,0.2c0.5,0,0.8-0.2,1-0.5s0.4-0.8,0.4-1.3V148z"/>
		<path class="st10" d="M308.4,149.7c-0.2,0.3-0.4,0.5-0.6,0.7c-0.3,0.2-0.6,0.2-0.9,0.2c-0.6,0-1-0.2-1.3-0.6s-0.5-0.9-0.5-1.7V146
			l-0.6-0.1v-0.6h0.6h1v3.1c0,0.6,0.1,1,0.2,1.2s0.4,0.3,0.8,0.3c0.3,0,0.6-0.1,0.8-0.2c0.2-0.1,0.4-0.3,0.5-0.6V146l-0.7-0.1v-0.6
			h0.7h1v4.5l0.6,0.1v0.6h-1.5L308.4,149.7z"/>
		<path class="st10" d="M312.3,144v1.3h1v0.7h-1v3.2c0,0.2,0.1,0.4,0.2,0.5s0.2,0.2,0.4,0.2c0.1,0,0.2,0,0.3,0c0.1,0,0.2,0,0.3,0
			l0.1,0.7c-0.1,0.1-0.2,0.1-0.4,0.1c-0.2,0-0.4,0.1-0.5,0.1c-0.4,0-0.7-0.1-0.9-0.4c-0.2-0.2-0.3-0.6-0.3-1.1V146h-0.8v-0.7h0.8
			V144H312.3z"/>
		<path class="st10" d="M318.4,146.9h-0.7l-0.2-0.6c-0.1-0.1-0.3-0.2-0.4-0.3c-0.2-0.1-0.4-0.1-0.6-0.1c-0.3,0-0.6,0.1-0.8,0.2
			s-0.2,0.3-0.2,0.5c0,0.2,0.1,0.4,0.2,0.5s0.4,0.2,0.9,0.3c0.7,0.1,1.2,0.3,1.5,0.6c0.3,0.2,0.5,0.6,0.5,1c0,0.5-0.2,0.8-0.6,1.1
			c-0.4,0.3-0.9,0.4-1.5,0.4c-0.4,0-0.8,0-1.1-0.1c-0.3-0.1-0.6-0.2-0.9-0.4l0-1.2h0.7l0.2,0.7c0.1,0.1,0.3,0.2,0.5,0.2
			s0.4,0.1,0.6,0.1c0.3,0,0.6-0.1,0.8-0.2c0.2-0.1,0.3-0.3,0.3-0.5c0-0.2-0.1-0.4-0.2-0.5s-0.5-0.3-0.9-0.4
			c-0.6-0.1-1.1-0.3-1.5-0.6c-0.3-0.2-0.5-0.6-0.5-1c0-0.4,0.2-0.8,0.5-1.1s0.8-0.5,1.4-0.5c0.4,0,0.8,0.1,1.1,0.2
			c0.3,0.1,0.6,0.2,0.8,0.4L318.4,146.9z"/>
	</g>
	<g class="st15">
		<path class="st14" d="M166.6,110.3h-0.8l3-7.7h0.8L166.6,110.3z"/>
		<path class="st14" d="M170.3,109.1l0.8-0.1v-3.8l-0.8-0.1v-0.6h1.8v4.5l0.8,0.1v0.6h-2.6V109.1z M172,103.1h-1v-1h1V103.1z"/>
		<path class="st14" d="M173.4,109.1l0.8-0.1v-3.8l-0.8-0.1v-0.6h1.7l0.1,0.8c0.2-0.3,0.4-0.5,0.7-0.7c0.3-0.2,0.6-0.2,0.9-0.2
			c0.6,0,1,0.2,1.3,0.5c0.3,0.3,0.5,0.8,0.5,1.5v2.6l0.8,0.1v0.6h-2.6v-0.6l0.8-0.1v-2.6c0-0.5-0.1-0.8-0.3-1s-0.5-0.3-0.8-0.3
			c-0.3,0-0.5,0.1-0.7,0.2s-0.4,0.3-0.5,0.5v3.1l0.8,0.1v0.6h-2.6V109.1z"/>
		<path class="st14" d="M179.9,111.1l0.8-0.1v-5.8l-0.8-0.1v-0.6h1.6l0.1,0.6c0.2-0.2,0.4-0.4,0.6-0.6s0.5-0.2,0.9-0.2
			c0.7,0,1.2,0.3,1.5,0.8c0.4,0.5,0.5,1.2,0.5,2.1v0.1c0,0.8-0.2,1.4-0.5,1.8c-0.4,0.5-0.9,0.7-1.5,0.7c-0.3,0-0.6-0.1-0.9-0.2
			c-0.2-0.1-0.5-0.3-0.6-0.5v1.8l0.8,0.1v0.6h-2.6V111.1z M184.2,107.2c0-0.6-0.1-1.1-0.4-1.5s-0.6-0.6-1-0.6
			c-0.3,0-0.5,0.1-0.7,0.2s-0.4,0.3-0.5,0.5v2.6c0.1,0.2,0.3,0.4,0.5,0.5c0.2,0.1,0.4,0.2,0.7,0.2c0.5,0,0.8-0.2,1-0.5
			s0.4-0.8,0.4-1.3V107.2z"/>
		<path class="st14" d="M189.8,108.9c-0.2,0.3-0.4,0.5-0.6,0.7s-0.6,0.2-0.9,0.2c-0.6,0-1-0.2-1.3-0.6s-0.5-0.9-0.5-1.7v-2.4
			l-0.6-0.1v-0.6h0.6h1v3.1c0,0.6,0.1,1,0.2,1.2s0.4,0.3,0.8,0.3c0.3,0,0.6-0.1,0.8-0.2c0.2-0.1,0.4-0.3,0.5-0.6v-3.1l-0.7-0.1v-0.6
			h0.7h1v4.5l0.6,0.1v0.6h-1.5L189.8,108.9z"/>
		<path class="st14" d="M193.8,103.2v1.3h1v0.7h-1v3.2c0,0.2,0.1,0.4,0.2,0.5s0.2,0.2,0.4,0.2c0.1,0,0.2,0,0.3,0c0.1,0,0.2,0,0.3,0
			l0.1,0.7c-0.1,0.1-0.2,0.1-0.4,0.1c-0.2,0-0.4,0.1-0.5,0.1c-0.4,0-0.7-0.1-0.9-0.4c-0.2-0.2-0.3-0.6-0.3-1.1v-3.2H192v-0.7h0.8
			v-1.3H193.8z"/>
		<path class="st14" d="M199.8,106.1h-0.7l-0.2-0.6c-0.1-0.1-0.3-0.2-0.4-0.3c-0.2-0.1-0.4-0.1-0.6-0.1c-0.3,0-0.6,0.1-0.8,0.2
			s-0.2,0.3-0.2,0.5c0,0.2,0.1,0.4,0.2,0.5s0.4,0.2,0.9,0.3c0.7,0.1,1.2,0.3,1.5,0.6c0.3,0.2,0.5,0.6,0.5,1c0,0.5-0.2,0.8-0.6,1.1
			s-0.9,0.4-1.5,0.4c-0.4,0-0.8,0-1.1-0.1c-0.3-0.1-0.6-0.2-0.9-0.4l0-1.2h0.7l0.2,0.7c0.1,0.1,0.3,0.2,0.5,0.2s0.4,0.1,0.6,0.1
			c0.3,0,0.6-0.1,0.8-0.2c0.2-0.1,0.3-0.3,0.3-0.5c0-0.2-0.1-0.4-0.2-0.5s-0.5-0.3-0.9-0.4c-0.6-0.1-1.1-0.3-1.5-0.6s-0.5-0.6-0.5-1
			c0-0.4,0.2-0.8,0.5-1.1s0.8-0.5,1.4-0.5c0.4,0,0.8,0.1,1.1,0.2s0.6,0.2,0.8,0.4L199.8,106.1z"/>
	</g>
	<g class="st15">
		<path class="st14" d="M159.9,202.5H159l3-7.7h0.8L159.9,202.5z"/>
		<path class="st14" d="M167.1,201.2c-0.2,0.2-0.4,0.4-0.6,0.5s-0.5,0.2-0.9,0.2c-0.6,0-1.1-0.2-1.5-0.7c-0.4-0.5-0.5-1.1-0.5-1.8
			v-0.1c0-0.8,0.2-1.5,0.5-2.1s0.9-0.8,1.5-0.8c0.3,0,0.6,0.1,0.8,0.2c0.2,0.1,0.4,0.3,0.6,0.5V195l-0.8-0.1v-0.6h0.8h1v6.9l0.8,0.1
			v0.6h-1.6L167.1,201.2z M164.5,199.4c0,0.5,0.1,1,0.3,1.3s0.6,0.5,1,0.5c0.3,0,0.5-0.1,0.7-0.2s0.4-0.3,0.5-0.6V198
			c-0.1-0.2-0.3-0.4-0.5-0.5s-0.4-0.2-0.7-0.2c-0.5,0-0.8,0.2-1,0.6s-0.3,0.9-0.3,1.5V199.4z"/>
		<path class="st14" d="M171.9,201.9c-0.7,0-1.3-0.2-1.8-0.7c-0.4-0.5-0.7-1.1-0.7-1.9v-0.2c0-0.8,0.2-1.4,0.7-1.9
			c0.4-0.5,1-0.8,1.6-0.8c0.7,0,1.2,0.2,1.6,0.6s0.5,1,0.5,1.7v0.6h-3.4l0,0c0,0.5,0.1,0.9,0.4,1.3c0.2,0.3,0.6,0.5,1,0.5
			c0.3,0,0.6,0,0.9-0.1c0.2-0.1,0.5-0.2,0.6-0.4l0.4,0.6c-0.2,0.2-0.4,0.3-0.7,0.5C172.7,201.9,172.3,201.9,171.9,201.9z
			 M171.8,197.2c-0.3,0-0.6,0.1-0.8,0.4c-0.2,0.3-0.4,0.6-0.4,1l0,0h2.4v-0.1c0-0.4-0.1-0.7-0.3-0.9S172.2,197.2,171.8,197.2z"/>
		<path class="st14" d="M177.2,201.2c0.3,0,0.6-0.1,0.8-0.3c0.2-0.2,0.4-0.4,0.4-0.7h0.9l0,0c0,0.5-0.2,0.9-0.6,1.2
			c-0.4,0.4-0.9,0.5-1.5,0.5c-0.8,0-1.4-0.3-1.8-0.8s-0.6-1.1-0.6-1.9v-0.2c0-0.8,0.2-1.4,0.6-1.9c0.4-0.5,1-0.8,1.8-0.8
			c0.4,0,0.8,0.1,1.1,0.2s0.6,0.3,0.8,0.6l0,1.2h-0.8l-0.2-0.8c-0.1-0.1-0.3-0.2-0.4-0.3s-0.4-0.1-0.6-0.1c-0.5,0-0.9,0.2-1.1,0.5
			c-0.2,0.4-0.3,0.8-0.3,1.3v0.2c0,0.5,0.1,1,0.3,1.3C176.4,201,176.7,201.2,177.2,201.2z"/>
	</g>
	<g class="st15">
		<path class="st14" d="M180.3,197.2v-0.6h1.7l0.1,0.8c0.1-0.3,0.3-0.5,0.6-0.6s0.5-0.2,0.8-0.2c0.1,0,0.2,0,0.2,0
			c0.1,0,0.1,0,0.2,0l-0.1,0.9l-0.5,0c-0.3,0-0.5,0.1-0.6,0.2c-0.2,0.1-0.3,0.3-0.4,0.5v3l0.8,0.1v0.6h-2.6v-0.6l0.8-0.1v-3.8
			L180.3,197.2z"/>
	</g>
	<g class="st15">
		<path class="st14" d="M189.5,197.2l-0.5,0.1l-2,5.4c-0.1,0.4-0.3,0.7-0.6,0.9s-0.6,0.4-1,0.4c-0.1,0-0.2,0-0.3,0
			c-0.1,0-0.2,0-0.3-0.1l0.1-0.8c0,0,0,0,0.2,0s0.2,0,0.3,0c0.2,0,0.4-0.1,0.5-0.3c0.1-0.2,0.2-0.4,0.3-0.6l0.2-0.5l-1.7-4.5
			l-0.5-0.1v-0.6h2.1v0.6l-0.6,0.1l0.9,2.6l0.2,0.7h0l1.1-3.3l-0.6-0.1v-0.6h2.1V197.2z"/>
		<path class="st14" d="M190,203.3l0.8-0.1v-5.8l-0.8-0.1v-0.6h1.6l0.1,0.6c0.2-0.2,0.4-0.4,0.6-0.6s0.5-0.2,0.9-0.2
			c0.7,0,1.2,0.3,1.5,0.8c0.4,0.5,0.5,1.2,0.5,2.1v0.1c0,0.8-0.2,1.4-0.5,1.8c-0.4,0.5-0.9,0.7-1.5,0.7c-0.3,0-0.6-0.1-0.9-0.2
			c-0.2-0.1-0.5-0.3-0.6-0.5v1.8l0.8,0.1v0.6H190V203.3z M194.4,199.3c0-0.6-0.1-1.1-0.4-1.5s-0.6-0.6-1-0.6c-0.3,0-0.5,0.1-0.7,0.2
			s-0.4,0.3-0.5,0.5v2.6c0.1,0.2,0.3,0.4,0.5,0.5c0.2,0.1,0.4,0.2,0.7,0.2c0.5,0,0.8-0.2,1-0.5s0.4-0.8,0.4-1.3V199.3z"/>
		<path class="st14" d="M197.9,195.3v1.3h1v0.7h-1v3.2c0,0.2,0.1,0.4,0.2,0.5s0.2,0.2,0.4,0.2c0.1,0,0.2,0,0.3,0c0.1,0,0.2,0,0.3,0
			l0.1,0.7c-0.1,0.1-0.2,0.1-0.4,0.1c-0.2,0-0.4,0.1-0.5,0.1c-0.4,0-0.7-0.1-0.9-0.4c-0.2-0.2-0.3-0.6-0.3-1.1v-3.2h-0.8v-0.7h0.8
			v-1.3H197.9z"/>
		<path class="st14" d="M202.3,201.9c-0.7,0-1.3-0.2-1.8-0.7c-0.4-0.5-0.7-1.1-0.7-1.9v-0.2c0-0.8,0.2-1.4,0.7-1.9
			c0.4-0.5,1-0.8,1.6-0.8c0.7,0,1.2,0.2,1.6,0.6s0.5,1,0.5,1.7v0.6h-3.4l0,0c0,0.5,0.1,0.9,0.4,1.3c0.2,0.3,0.6,0.5,1,0.5
			c0.3,0,0.6,0,0.9-0.1c0.2-0.1,0.5-0.2,0.6-0.4l0.4,0.6c-0.2,0.2-0.4,0.3-0.7,0.5C203.1,201.9,202.7,201.9,202.3,201.9z
			 M202.1,197.2c-0.3,0-0.6,0.1-0.8,0.4c-0.2,0.3-0.4,0.6-0.4,1l0,0h2.4v-0.1c0-0.4-0.1-0.7-0.3-0.9S202.5,197.2,202.1,197.2z"/>
		<path class="st14" d="M208.8,201.2c-0.2,0.2-0.4,0.4-0.6,0.5s-0.5,0.2-0.9,0.2c-0.6,0-1.1-0.2-1.5-0.7c-0.4-0.5-0.5-1.1-0.5-1.8
			v-0.1c0-0.8,0.2-1.5,0.5-2.1s0.9-0.8,1.5-0.8c0.3,0,0.6,0.1,0.8,0.2c0.2,0.1,0.4,0.3,0.6,0.5V195l-0.8-0.1v-0.6h0.8h1v6.9l0.8,0.1
			v0.6h-1.6L208.8,201.2z M206.2,199.4c0,0.5,0.1,1,0.3,1.3s0.6,0.5,1,0.5c0.3,0,0.5-0.1,0.7-0.2s0.4-0.3,0.5-0.6V198
			c-0.1-0.2-0.3-0.4-0.5-0.5s-0.4-0.2-0.7-0.2c-0.5,0-0.8,0.2-1,0.6s-0.3,0.9-0.3,1.5V199.4z"/>
	</g>
	<g class="st15">
		<path class="st14" d="M172.8,213.3c0,1-0.3,1.9-0.9,2.6s-1.4,1-2.3,1c-0.9,0-1.7-0.3-2.2-1s-0.9-1.5-0.9-2.6v-0.1
			c0-1,0.3-1.9,0.9-2.6s1.3-1,2.2-1c0.9,0,1.7,0.3,2.3,1s0.9,1.5,0.9,2.6V213.3z M171.8,213.2c0-0.8-0.2-1.5-0.6-2
			c-0.4-0.5-0.9-0.8-1.6-0.8c-0.7,0-1.2,0.3-1.6,0.8s-0.6,1.2-0.6,2v0.1c0,0.8,0.2,1.5,0.6,2c0.4,0.5,0.9,0.8,1.6,0.8
			c0.7,0,1.3-0.3,1.7-0.8s0.6-1.2,0.6-2V213.2z"/>
		<path class="st14" d="M177.4,216.1c-0.2,0.3-0.4,0.5-0.6,0.7s-0.6,0.2-0.9,0.2c-0.6,0-1-0.2-1.3-0.6s-0.5-0.9-0.5-1.7v-2.4
			l-0.6-0.1v-0.6h0.6h1v3.1c0,0.6,0.1,1,0.2,1.2s0.4,0.3,0.8,0.3c0.3,0,0.6-0.1,0.8-0.2c0.2-0.1,0.4-0.3,0.5-0.6v-3.1l-0.7-0.1v-0.6
			h0.7h1v4.5l0.6,0.1v0.6h-1.5L177.4,216.1z"/>
		<path class="st14" d="M181.3,210.3v1.3h1v0.7h-1v3.2c0,0.2,0.1,0.4,0.2,0.5s0.2,0.2,0.4,0.2c0.1,0,0.2,0,0.3,0c0.1,0,0.2,0,0.3,0
			l0.1,0.7c-0.1,0.1-0.2,0.1-0.4,0.1c-0.2,0-0.4,0.1-0.5,0.1c-0.4,0-0.7-0.1-0.9-0.4c-0.2-0.2-0.3-0.6-0.3-1.1v-3.2h-0.8v-0.7h0.8
			v-1.3H181.3z"/>
		<path class="st14" d="M183.2,218.3l0.8-0.1v-5.8l-0.8-0.1v-0.6h1.6l0.1,0.6c0.2-0.2,0.4-0.4,0.6-0.6s0.5-0.2,0.9-0.2
			c0.7,0,1.2,0.3,1.5,0.8c0.4,0.5,0.5,1.2,0.5,2.1v0.1c0,0.8-0.2,1.4-0.5,1.8c-0.4,0.5-0.9,0.7-1.5,0.7c-0.3,0-0.6-0.1-0.9-0.2
			c-0.2-0.1-0.5-0.3-0.6-0.5v1.8l0.8,0.1v0.6h-2.6V218.3z M187.5,214.3c0-0.6-0.1-1.1-0.4-1.5s-0.6-0.6-1-0.6
			c-0.3,0-0.5,0.1-0.7,0.2s-0.4,0.3-0.5,0.5v2.6c0.1,0.2,0.3,0.4,0.5,0.5c0.2,0.1,0.4,0.2,0.7,0.2c0.5,0,0.8-0.2,1-0.5
			s0.4-0.8,0.4-1.3V214.3z"/>
		<path class="st14" d="M193.2,216.1c-0.2,0.3-0.4,0.5-0.6,0.7s-0.6,0.2-0.9,0.2c-0.6,0-1-0.2-1.3-0.6s-0.5-0.9-0.5-1.7v-2.4
			l-0.6-0.1v-0.6h0.6h1v3.1c0,0.6,0.1,1,0.2,1.2s0.4,0.3,0.8,0.3c0.3,0,0.6-0.1,0.8-0.2c0.2-0.1,0.4-0.3,0.5-0.6v-3.1l-0.7-0.1v-0.6
			h0.7h1v4.5l0.6,0.1v0.6h-1.5L193.2,216.1z"/>
		<path class="st14" d="M197.1,210.3v1.3h1v0.7h-1v3.2c0,0.2,0.1,0.4,0.2,0.5s0.2,0.2,0.4,0.2c0.1,0,0.2,0,0.3,0c0.1,0,0.2,0,0.3,0
			l0.1,0.7c-0.1,0.1-0.2,0.1-0.4,0.1c-0.2,0-0.4,0.1-0.5,0.1c-0.4,0-0.7-0.1-0.9-0.4c-0.2-0.2-0.3-0.6-0.3-1.1v-3.2h-0.8v-0.7h0.8
			v-1.3H197.1z"/>
		<path class="st14" d="M203.2,213.2h-0.7l-0.2-0.6c-0.1-0.1-0.3-0.2-0.4-0.3c-0.2-0.1-0.4-0.1-0.6-0.1c-0.3,0-0.6,0.1-0.8,0.2
			s-0.2,0.3-0.2,0.5c0,0.2,0.1,0.4,0.2,0.5s0.4,0.2,0.9,0.3c0.7,0.1,1.2,0.3,1.5,0.6c0.3,0.2,0.5,0.6,0.5,1c0,0.5-0.2,0.8-0.6,1.1
			s-0.9,0.4-1.5,0.4c-0.4,0-0.8,0-1.1-0.1c-0.3-0.1-0.6-0.2-0.9-0.4l0-1.2h0.7l0.2,0.7c0.1,0.1,0.3,0.2,0.5,0.2s0.4,0.1,0.6,0.1
			c0.3,0,0.6-0.1,0.8-0.2c0.2-0.1,0.3-0.3,0.3-0.5c0-0.2-0.1-0.4-0.2-0.5s-0.5-0.3-0.9-0.4c-0.6-0.1-1.1-0.3-1.5-0.6s-0.5-0.6-0.5-1
			c0-0.4,0.2-0.8,0.5-1.1s0.8-0.5,1.4-0.5c0.4,0,0.8,0.1,1.1,0.2s0.6,0.2,0.8,0.4L203.2,213.2z"/>
	</g>
	<g class="st15">
		<path class="st10" d="M84.1,144v-0.6h2.6v0.6l-0.8,0.1v5.6l0.8,0.1v0.6h-2.6v-0.6l0.8-0.1v-5.6L84.1,144z"/>
		<path class="st10" d="M87.3,149.9l0.8-0.1V146l-0.8-0.1v-0.6h1.7L89,146c0.2-0.3,0.4-0.5,0.7-0.7c0.3-0.2,0.6-0.2,0.9-0.2
			c0.6,0,1,0.2,1.3,0.5c0.3,0.3,0.5,0.8,0.5,1.5v2.6l0.8,0.1v0.6h-2.6v-0.6l0.8-0.1v-2.6c0-0.5-0.1-0.8-0.3-1s-0.5-0.3-0.8-0.3
			c-0.3,0-0.5,0.1-0.7,0.2s-0.4,0.3-0.5,0.5v3.1l0.8,0.1v0.6h-2.6V149.9z"/>
		<path class="st10" d="M93.7,151.9l0.8-0.1V146l-0.8-0.1v-0.6h1.6l0.1,0.6c0.2-0.2,0.4-0.4,0.6-0.6s0.5-0.2,0.9-0.2
			c0.7,0,1.2,0.3,1.5,0.8c0.4,0.5,0.5,1.2,0.5,2.1v0.1c0,0.8-0.2,1.4-0.5,1.8c-0.4,0.5-0.9,0.7-1.5,0.7c-0.3,0-0.6-0.1-0.9-0.2
			c-0.2-0.1-0.5-0.3-0.6-0.5v1.8l0.8,0.1v0.6h-2.6V151.9z M98.1,148c0-0.6-0.1-1.1-0.4-1.5s-0.6-0.6-1-0.6c-0.3,0-0.5,0.1-0.7,0.2
			s-0.4,0.3-0.5,0.5v2.6c0.1,0.2,0.3,0.4,0.5,0.5c0.2,0.1,0.4,0.2,0.7,0.2c0.5,0,0.8-0.2,1-0.5s0.4-0.8,0.4-1.3V148z"/>
		<path class="st10" d="M103.7,149.7c-0.2,0.3-0.4,0.5-0.6,0.7s-0.6,0.2-0.9,0.2c-0.6,0-1-0.2-1.3-0.6s-0.5-0.9-0.5-1.7V146
			l-0.6-0.1v-0.6h0.6h1v3.1c0,0.6,0.1,1,0.2,1.2s0.4,0.3,0.8,0.3c0.3,0,0.6-0.1,0.8-0.2c0.2-0.1,0.4-0.3,0.5-0.6V146l-0.7-0.1v-0.6
			h0.7h1v4.5l0.6,0.1v0.6h-1.5L103.7,149.7z"/>
		<path class="st10" d="M107.7,144v1.3h1v0.7h-1v3.2c0,0.2,0.1,0.4,0.2,0.5s0.2,0.2,0.4,0.2c0.1,0,0.2,0,0.3,0c0.1,0,0.2,0,0.3,0
			l0.1,0.7c-0.1,0.1-0.2,0.1-0.4,0.1c-0.2,0-0.4,0.1-0.5,0.1c-0.4,0-0.7-0.1-0.9-0.4c-0.2-0.2-0.3-0.6-0.3-1.1V146h-0.8v-0.7h0.8
			V144H107.7z"/>
		<path class="st10" d="M113.7,146.9H113l-0.2-0.6c-0.1-0.1-0.3-0.2-0.4-0.3c-0.2-0.1-0.4-0.1-0.6-0.1c-0.3,0-0.6,0.1-0.8,0.2
			s-0.2,0.3-0.2,0.5c0,0.2,0.1,0.4,0.2,0.5s0.4,0.2,0.9,0.3c0.7,0.1,1.2,0.3,1.5,0.6c0.3,0.2,0.5,0.6,0.5,1c0,0.5-0.2,0.8-0.6,1.1
			s-0.9,0.4-1.5,0.4c-0.4,0-0.8,0-1.1-0.1c-0.3-0.1-0.6-0.2-0.9-0.4l0-1.2h0.7l0.2,0.7c0.1,0.1,0.3,0.2,0.5,0.2s0.4,0.1,0.6,0.1
			c0.3,0,0.6-0.1,0.8-0.2c0.2-0.1,0.3-0.3,0.3-0.5c0-0.2-0.1-0.4-0.2-0.5s-0.5-0.3-0.9-0.4c-0.6-0.1-1.1-0.3-1.5-0.6s-0.5-0.6-0.5-1
			c0-0.4,0.2-0.8,0.5-1.1s0.8-0.5,1.4-0.5c0.4,0,0.8,0.1,1.1,0.2s0.6,0.2,0.8,0.4L113.7,146.9z"/>
	</g>
	<g class="st15">
		<path class="st10" d="M233.5,262.5h-0.8l3-7.7h0.8L233.5,262.5z"/>
		<path class="st10" d="M239.6,262c-0.7,0-1.3-0.2-1.8-0.7c-0.4-0.5-0.7-1.1-0.7-1.9v-0.2c0-0.8,0.2-1.4,0.7-1.9
			c0.4-0.5,1-0.8,1.6-0.8c0.7,0,1.2,0.2,1.6,0.6s0.5,1,0.5,1.7v0.6h-3.4l0,0c0,0.5,0.1,0.9,0.4,1.3c0.2,0.3,0.6,0.5,1,0.5
			c0.3,0,0.6,0,0.9-0.1c0.2-0.1,0.5-0.2,0.6-0.4l0.4,0.6c-0.2,0.2-0.4,0.3-0.7,0.5C240.4,261.9,240,262,239.6,262z M239.4,257.3
			c-0.3,0-0.6,0.1-0.8,0.4c-0.2,0.3-0.4,0.6-0.4,1l0,0h2.4v-0.1c0-0.4-0.1-0.7-0.3-0.9S239.8,257.3,239.4,257.3z"/>
	</g>
	<g class="st15">
		<path class="st10" d="M242.4,261.3l0.8-0.1v-3.8l-0.8-0.1v-0.6h1.7l0.1,0.8c0.2-0.3,0.4-0.5,0.7-0.7c0.3-0.2,0.6-0.2,0.9-0.2
			c0.6,0,1,0.2,1.3,0.5c0.3,0.3,0.5,0.8,0.5,1.5v2.6l0.8,0.1v0.6h-2.6v-0.6l0.8-0.1v-2.6c0-0.5-0.1-0.8-0.3-1s-0.5-0.3-0.8-0.3
			c-0.3,0-0.5,0.1-0.7,0.2s-0.4,0.3-0.5,0.5v3.1l0.8,0.1v0.6h-2.6V261.3z"/>
	</g>
	<g class="st15">
		<path class="st10" d="M251.3,261.3c0.3,0,0.6-0.1,0.8-0.3c0.2-0.2,0.4-0.4,0.4-0.7h0.9l0,0c0,0.5-0.2,0.9-0.6,1.2
			c-0.4,0.4-0.9,0.5-1.5,0.5c-0.8,0-1.4-0.3-1.8-0.8s-0.6-1.1-0.6-1.9v-0.2c0-0.8,0.2-1.4,0.6-1.9c0.4-0.5,1-0.8,1.8-0.8
			c0.4,0,0.8,0.1,1.1,0.2s0.6,0.3,0.8,0.6l0,1.2h-0.8l-0.2-0.8c-0.1-0.1-0.3-0.2-0.4-0.3s-0.4-0.1-0.6-0.1c-0.5,0-0.9,0.2-1.1,0.5
			c-0.2,0.4-0.3,0.8-0.3,1.3v0.2c0,0.5,0.1,1,0.3,1.3C250.4,261.1,250.8,261.3,251.3,261.3z"/>
	</g>
	<g class="st15">
		<path class="st10" d="M254.3,257.2v-0.6h1.7l0.1,0.8c0.1-0.3,0.3-0.5,0.6-0.6s0.5-0.2,0.8-0.2c0.1,0,0.2,0,0.2,0
			c0.1,0,0.1,0,0.2,0l-0.1,0.9l-0.5,0c-0.3,0-0.5,0.1-0.6,0.2c-0.2,0.1-0.3,0.3-0.4,0.5v3l0.8,0.1v0.6h-2.6v-0.6l0.8-0.1v-3.8
			L254.3,257.2z"/>
	</g>
	<g class="st15">
		<path class="st10" d="M263.6,257.2l-0.5,0.1l-2,5.4c-0.1,0.4-0.3,0.7-0.6,0.9s-0.6,0.4-1,0.4c-0.1,0-0.2,0-0.3,0
			c-0.1,0-0.2,0-0.3-0.1l0.1-0.8c0,0,0,0,0.2,0s0.2,0,0.3,0c0.2,0,0.4-0.1,0.5-0.3c0.1-0.2,0.2-0.4,0.3-0.6l0.2-0.5l-1.7-4.5
			l-0.5-0.1v-0.6h2.1v0.6l-0.6,0.1l0.9,2.6l0.2,0.7h0l1.1-3.3l-0.6-0.1v-0.6h2.1V257.2z"/>
		<path class="st10" d="M264.1,263.3l0.8-0.1v-5.8l-0.8-0.1v-0.6h1.6l0.1,0.6c0.2-0.2,0.4-0.4,0.6-0.6s0.5-0.2,0.9-0.2
			c0.7,0,1.2,0.3,1.5,0.8c0.4,0.5,0.5,1.2,0.5,2.1v0.1c0,0.8-0.2,1.4-0.5,1.8c-0.4,0.5-0.9,0.7-1.5,0.7c-0.3,0-0.6-0.1-0.9-0.2
			c-0.2-0.1-0.5-0.3-0.6-0.5v1.8l0.8,0.1v0.6h-2.6V263.3z M268.4,259.4c0-0.6-0.1-1.1-0.4-1.5s-0.6-0.6-1-0.6
			c-0.3,0-0.5,0.1-0.7,0.2s-0.4,0.3-0.5,0.5v2.6c0.1,0.2,0.3,0.4,0.5,0.5c0.2,0.1,0.4,0.2,0.7,0.2c0.5,0,0.8-0.2,1-0.5
			s0.4-0.8,0.4-1.3V259.4z"/>
		<path class="st10" d="M272,255.3v1.3h1v0.7h-1v3.2c0,0.2,0.1,0.4,0.2,0.5s0.2,0.2,0.4,0.2c0.1,0,0.2,0,0.3,0c0.1,0,0.2,0,0.3,0
			l0.1,0.7c-0.1,0.1-0.2,0.1-0.4,0.1c-0.2,0-0.4,0.1-0.5,0.1c-0.4,0-0.7-0.1-0.9-0.4c-0.2-0.2-0.3-0.6-0.3-1.1v-3.2h-0.8v-0.7h0.8
			v-1.3H272z"/>
		<path class="st10" d="M276.3,262c-0.7,0-1.3-0.2-1.8-0.7c-0.4-0.5-0.7-1.1-0.7-1.9v-0.2c0-0.8,0.2-1.4,0.7-1.9
			c0.4-0.5,1-0.8,1.6-0.8c0.7,0,1.2,0.2,1.6,0.6s0.5,1,0.5,1.7v0.6h-3.4l0,0c0,0.5,0.1,0.9,0.4,1.3c0.2,0.3,0.6,0.5,1,0.5
			c0.3,0,0.6,0,0.9-0.1c0.2-0.1,0.5-0.2,0.6-0.4l0.4,0.6c-0.2,0.2-0.4,0.3-0.7,0.5C277.2,261.9,276.8,262,276.3,262z M276.2,257.3
			c-0.3,0-0.6,0.1-0.8,0.4c-0.2,0.3-0.4,0.6-0.4,1l0,0h2.4v-0.1c0-0.4-0.1-0.7-0.3-0.9S276.6,257.3,276.2,257.3z"/>
		<path class="st10" d="M282.9,261.3c-0.2,0.2-0.4,0.4-0.6,0.5s-0.5,0.2-0.9,0.2c-0.6,0-1.1-0.2-1.5-0.7c-0.4-0.5-0.5-1.1-0.5-1.8
			v-0.1c0-0.8,0.2-1.5,0.5-2.1s0.9-0.8,1.5-0.8c0.3,0,0.6,0.1,0.8,0.2c0.2,0.1,0.4,0.3,0.6,0.5V255l-0.8-0.1v-0.6h0.8h1v6.9l0.8,0.1
			v0.6h-1.6L282.9,261.3z M280.3,259.5c0,0.5,0.1,1,0.3,1.3s0.6,0.5,1,0.5c0.3,0,0.5-0.1,0.7-0.2s0.4-0.3,0.5-0.6V258
			c-0.1-0.2-0.3-0.4-0.5-0.5s-0.4-0.2-0.7-0.2c-0.5,0-0.8,0.2-1,0.6s-0.3,0.9-0.3,1.5V259.5z"/>
		<path class="st10" d="M291.6,258.4c0,1-0.3,1.9-0.9,2.6c-0.6,0.7-1.4,1-2.3,1c-0.9,0-1.7-0.3-2.2-1s-0.9-1.5-0.9-2.6v-0.1
			c0-1,0.3-1.9,0.9-2.6s1.3-1,2.2-1c0.9,0,1.7,0.3,2.3,1c0.6,0.7,0.9,1.5,0.9,2.6V258.4z M290.6,258.3c0-0.8-0.2-1.5-0.6-2
			c-0.4-0.5-0.9-0.8-1.6-0.8c-0.7,0-1.2,0.3-1.6,0.8s-0.6,1.2-0.6,2v0.1c0,0.8,0.2,1.5,0.6,2c0.4,0.5,0.9,0.8,1.6,0.8
			c0.7,0,1.3-0.3,1.7-0.8s0.6-1.2,0.6-2V258.3z"/>
		<path class="st10" d="M296.1,261.1c-0.2,0.3-0.4,0.5-0.6,0.7c-0.3,0.2-0.6,0.2-0.9,0.2c-0.6,0-1-0.2-1.3-0.6s-0.5-0.9-0.5-1.7
			v-2.4l-0.6-0.1v-0.6h0.6h1v3.1c0,0.6,0.1,1,0.2,1.2s0.4,0.3,0.8,0.3c0.3,0,0.6-0.1,0.8-0.2c0.2-0.1,0.4-0.3,0.5-0.6v-3.1l-0.7-0.1
			v-0.6h0.7h1v4.5l0.6,0.1v0.6h-1.5L296.1,261.1z"/>
		<path class="st10" d="M300.1,255.3v1.3h1v0.7h-1v3.2c0,0.2,0.1,0.4,0.2,0.5s0.2,0.2,0.4,0.2c0.1,0,0.2,0,0.3,0c0.1,0,0.2,0,0.3,0
			l0.1,0.7c-0.1,0.1-0.2,0.1-0.4,0.1c-0.2,0-0.4,0.1-0.5,0.1c-0.4,0-0.7-0.1-0.9-0.4c-0.2-0.2-0.3-0.6-0.3-1.1v-3.2h-0.8v-0.7h0.8
			v-1.3H300.1z"/>
		<path class="st10" d="M302,263.3l0.8-0.1v-5.8l-0.8-0.1v-0.6h1.6l0.1,0.6c0.2-0.2,0.4-0.4,0.6-0.6c0.3-0.1,0.5-0.2,0.9-0.2
			c0.7,0,1.2,0.3,1.5,0.8c0.4,0.5,0.5,1.2,0.5,2.1v0.1c0,0.8-0.2,1.4-0.5,1.8c-0.4,0.5-0.9,0.7-1.5,0.7c-0.3,0-0.6-0.1-0.9-0.2
			c-0.2-0.1-0.5-0.3-0.6-0.5v1.8l0.8,0.1v0.6H302V263.3z M306.3,259.4c0-0.6-0.1-1.1-0.4-1.5s-0.6-0.6-1-0.6c-0.3,0-0.5,0.1-0.7,0.2
			s-0.4,0.3-0.5,0.5v2.6c0.1,0.2,0.3,0.4,0.5,0.5c0.2,0.1,0.4,0.2,0.7,0.2c0.5,0,0.8-0.2,1-0.5s0.4-0.8,0.4-1.3V259.4z"/>
		<path class="st10" d="M311.9,261.1c-0.2,0.3-0.4,0.5-0.6,0.7c-0.3,0.2-0.6,0.2-0.9,0.2c-0.6,0-1-0.2-1.3-0.6s-0.5-0.9-0.5-1.7
			v-2.4l-0.6-0.1v-0.6h0.6h1v3.1c0,0.6,0.1,1,0.2,1.2s0.4,0.3,0.8,0.3c0.3,0,0.6-0.1,0.8-0.2c0.2-0.1,0.4-0.3,0.5-0.6v-3.1l-0.7-0.1
			v-0.6h0.7h1v4.5l0.6,0.1v0.6H312L311.9,261.1z"/>
		<path class="st10" d="M315.9,255.3v1.3h1v0.7h-1v3.2c0,0.2,0.1,0.4,0.2,0.5s0.2,0.2,0.4,0.2c0.1,0,0.2,0,0.3,0c0.1,0,0.2,0,0.3,0
			l0.1,0.7c-0.1,0.1-0.2,0.1-0.4,0.1c-0.2,0-0.4,0.1-0.5,0.1c-0.4,0-0.7-0.1-0.9-0.4c-0.2-0.2-0.3-0.6-0.3-1.1v-3.2h-0.8v-0.7h0.8
			v-1.3H315.9z"/>
		<path class="st10" d="M321.9,258.3h-0.7l-0.2-0.6c-0.1-0.1-0.3-0.2-0.4-0.3c-0.2-0.1-0.4-0.1-0.6-0.1c-0.3,0-0.6,0.1-0.8,0.2
			s-0.2,0.3-0.2,0.5c0,0.2,0.1,0.4,0.2,0.5s0.4,0.2,0.9,0.3c0.7,0.1,1.2,0.3,1.5,0.6c0.3,0.2,0.5,0.6,0.5,1c0,0.5-0.2,0.8-0.6,1.1
			c-0.4,0.3-0.9,0.4-1.5,0.4c-0.4,0-0.8,0-1.1-0.1c-0.3-0.1-0.6-0.2-0.9-0.4l0-1.2h0.7l0.2,0.7c0.1,0.1,0.3,0.2,0.5,0.2
			s0.4,0.1,0.6,0.1c0.3,0,0.6-0.1,0.8-0.2c0.2-0.1,0.3-0.3,0.3-0.5c0-0.2-0.1-0.4-0.2-0.5s-0.5-0.3-0.9-0.4
			c-0.6-0.1-1.1-0.3-1.5-0.6c-0.3-0.2-0.5-0.6-0.5-1c0-0.4,0.2-0.8,0.5-1.1s0.8-0.5,1.4-0.5c0.4,0,0.8,0.1,1.1,0.2
			c0.3,0.1,0.6,0.2,0.8,0.4L321.9,258.3z"/>
	</g>
	<g class="st15">
		<path class="st10" d="M86.8,258.4c0,1-0.3,1.9-0.9,2.6s-1.4,1-2.3,1c-0.9,0-1.7-0.3-2.2-1s-0.9-1.5-0.9-2.6v-0.1
			c0-1,0.3-1.9,0.9-2.6s1.3-1,2.2-1c0.9,0,1.7,0.3,2.3,1s0.9,1.5,0.9,2.6V258.4z M85.9,258.3c0-0.8-0.2-1.5-0.6-2
			c-0.4-0.5-0.9-0.8-1.6-0.8c-0.7,0-1.2,0.3-1.6,0.8s-0.6,1.2-0.6,2v0.1c0,0.8,0.2,1.5,0.6,2c0.4,0.5,0.9,0.8,1.6,0.8
			c0.7,0,1.3-0.3,1.7-0.8s0.6-1.2,0.6-2V258.3z"/>
		<path class="st10" d="M91.4,261.1c-0.2,0.3-0.4,0.5-0.6,0.7s-0.6,0.2-0.9,0.2c-0.6,0-1-0.2-1.3-0.6s-0.5-0.9-0.5-1.7v-2.4
			l-0.6-0.1v-0.6H88h1v3.1c0,0.6,0.1,1,0.2,1.2s0.4,0.3,0.8,0.3c0.3,0,0.6-0.1,0.8-0.2c0.2-0.1,0.4-0.3,0.5-0.6v-3.1l-0.7-0.1v-0.6
			h0.7h1v4.5l0.6,0.1v0.6h-1.5L91.4,261.1z"/>
		<path class="st10" d="M95.4,255.3v1.3h1v0.7h-1v3.2c0,0.2,0.1,0.4,0.2,0.5s0.2,0.2,0.4,0.2c0.1,0,0.2,0,0.3,0c0.1,0,0.2,0,0.3,0
			l0.1,0.7c-0.1,0.1-0.2,0.1-0.4,0.1c-0.2,0-0.4,0.1-0.5,0.1c-0.4,0-0.7-0.1-0.9-0.4c-0.2-0.2-0.3-0.6-0.3-1.1v-3.2h-0.8v-0.7h0.8
			v-1.3H95.4z"/>
		<path class="st10" d="M97.3,263.3l0.8-0.1v-5.8l-0.8-0.1v-0.6h1.6l0.1,0.6c0.2-0.2,0.4-0.4,0.6-0.6s0.5-0.2,0.9-0.2
			c0.7,0,1.2,0.3,1.5,0.8c0.4,0.5,0.5,1.2,0.5,2.1v0.1c0,0.8-0.2,1.4-0.5,1.8c-0.4,0.5-0.9,0.7-1.5,0.7c-0.3,0-0.6-0.1-0.9-0.2
			c-0.2-0.1-0.5-0.3-0.6-0.5v1.8l0.8,0.1v0.6h-2.6V263.3z M101.6,259.4c0-0.6-0.1-1.1-0.4-1.5s-0.6-0.6-1-0.6
			c-0.3,0-0.5,0.1-0.7,0.2s-0.4,0.3-0.5,0.5v2.6c0.1,0.2,0.3,0.4,0.5,0.5c0.2,0.1,0.4,0.2,0.7,0.2c0.5,0,0.8-0.2,1-0.5
			s0.4-0.8,0.4-1.3V259.4z"/>
		<path class="st10" d="M107.2,261.1c-0.2,0.3-0.4,0.5-0.6,0.7s-0.6,0.2-0.9,0.2c-0.6,0-1-0.2-1.3-0.6s-0.5-0.9-0.5-1.7v-2.4
			l-0.6-0.1v-0.6h0.6h1v3.1c0,0.6,0.1,1,0.2,1.2s0.4,0.3,0.8,0.3c0.3,0,0.6-0.1,0.8-0.2c0.2-0.1,0.4-0.3,0.5-0.6v-3.1l-0.7-0.1v-0.6
			h0.7h1v4.5l0.6,0.1v0.6h-1.5L107.2,261.1z"/>
		<path class="st10" d="M111.2,255.3v1.3h1v0.7h-1v3.2c0,0.2,0.1,0.4,0.2,0.5s0.2,0.2,0.4,0.2c0.1,0,0.2,0,0.3,0c0.1,0,0.2,0,0.3,0
			l0.1,0.7c-0.1,0.1-0.2,0.1-0.4,0.1c-0.2,0-0.4,0.1-0.5,0.1c-0.4,0-0.7-0.1-0.9-0.4c-0.2-0.2-0.3-0.6-0.3-1.1v-3.2h-0.8v-0.7h0.8
			v-1.3H111.2z"/>
		<path class="st10" d="M117.2,258.3h-0.7l-0.2-0.6c-0.1-0.1-0.3-0.2-0.4-0.3c-0.2-0.1-0.4-0.1-0.6-0.1c-0.3,0-0.6,0.1-0.8,0.2
			s-0.2,0.3-0.2,0.5c0,0.2,0.1,0.4,0.2,0.5s0.4,0.2,0.9,0.3c0.7,0.1,1.2,0.3,1.5,0.6c0.3,0.2,0.5,0.6,0.5,1c0,0.5-0.2,0.8-0.6,1.1
			s-0.9,0.4-1.5,0.4c-0.4,0-0.8,0-1.1-0.1c-0.3-0.1-0.6-0.2-0.9-0.4l0-1.2h0.7l0.2,0.7c0.1,0.1,0.3,0.2,0.5,0.2s0.4,0.1,0.6,0.1
			c0.3,0,0.6-0.1,0.8-0.2c0.2-0.1,0.3-0.3,0.3-0.5c0-0.2-0.1-0.4-0.2-0.5s-0.5-0.3-0.9-0.4c-0.6-0.1-1.1-0.3-1.5-0.6s-0.5-0.6-0.5-1
			c0-0.4,0.2-0.8,0.5-1.1s0.8-0.5,1.4-0.5c0.4,0,0.8,0.1,1.1,0.2s0.6,0.2,0.8,0.4L117.2,258.3z"/>
	</g>
	<path class="st19" d="M28.2,31.1h-4.3c-0.6,0-0.8-0.2-0.8-0.8v-6.5c0-0.6,0.2-0.8,0.8-0.8h8.5c0.5,0,0.8,0.2,0.8,0.8v6.5
		c0,0.5-0.2,0.8-0.8,0.8C31,31.2,29.6,31.1,28.2,31.1z"/>
	<path class="st19" d="M23.8,22.5c0-1.8,1-3.4,2.6-4.1c2.1-0.9,4.6,0,5.5,2.1c0.1,0.2,0.2,0.5,0.2,0.7c0.1,0.4,0.1,0.8,0.2,1.2"/>
	<path class="st14" d="M27.5,28.4L27.5,28.4v0.9c0,0.2,0.1,0.2,0.3,0.2h0.8c0.2,0,0.3-0.1,0.3-0.3v-1.6c0-0.2,0.1-0.3,0.2-0.4
		c0.5-0.3,0.8-0.9,0.6-1.4c-0.2-0.6-0.8-1-1.4-1c-0.7-0.1-1.3,0.3-1.6,0.9c-0.2,0.6,0,1.2,0.5,1.5c0.2,0.1,0.3,0.3,0.3,0.5
		C27.5,27.9,27.5,28.1,27.5,28.4z"/>
	<path class="st20" d="M556,29.8h-4.3c-0.6,0-0.8-0.2-0.8-0.8v-6.5c0-0.6,0.2-0.8,0.8-0.8h8.5c0.5,0,0.8,0.2,0.8,0.8v6.5
		c0,0.5-0.2,0.8-0.8,0.8C558.8,29.8,557.4,29.8,556,29.8z"/>
	<path class="st20" d="M554.6,13.5c1.6-0.7,3.5-0.5,4.9,0.7c1.7,1.5,1.9,4.2,0.3,5.9c-0.2,0.2-0.4,0.4-0.6,0.5
		c-0.3,0.3-0.7,0.4-1,0.7"/>
	<path class="st21" d="M555.3,27L555.3,27v0.9c0,0.2,0.1,0.2,0.3,0.2h0.8c0.2,0,0.3-0.1,0.3-0.3v-1.6c0-0.2,0.1-0.3,0.2-0.4
		c0.5-0.3,0.8-0.9,0.6-1.4c-0.2-0.6-0.8-1-1.5-1c-0.7-0.1-1.3,0.3-1.6,0.9c-0.2,0.6,0,1.2,0.5,1.5c0.2,0.1,0.3,0.3,0.3,0.5
		C555.3,26.5,555.3,26.7,555.3,27z"/>
	<g class="st15">
		<path class="st22" d="M489.7,21.4v1l-0.9,0.2V27c0,0.6,0.2,1,0.5,1.3s0.7,0.4,1.2,0.4c0.5,0,1-0.1,1.3-0.4s0.5-0.7,0.5-1.3v-4.5
			l-0.9-0.2v-1h3.5v1l-0.9,0.2V27c0,1-0.3,1.7-0.9,2.2s-1.5,0.8-2.5,0.8c-1,0-1.8-0.3-2.5-0.8S487,28,487,27v-4.5l-0.9-0.2v-1h0.9
			h1.7H489.7z"/>
		<path class="st22" d="M495.3,28.9l0.8-0.2v-3.9l-0.9-0.2v-1h2.5l0.1,0.9c0.2-0.3,0.5-0.6,0.8-0.8s0.7-0.3,1-0.3
			c0.6,0,1.1,0.2,1.5,0.6s0.5,1,0.5,1.9v2.8l0.8,0.2v1h-3.3v-1l0.7-0.2V26c0-0.4-0.1-0.7-0.3-0.9s-0.4-0.3-0.8-0.3
			c-0.2,0-0.4,0-0.6,0.1s-0.3,0.2-0.5,0.4v3.4l0.7,0.2v1h-3.2V28.9z"/>
		<path class="st22" d="M505.5,22v1.6h1.1v1.2h-1.1V28c0,0.2,0.1,0.4,0.2,0.5s0.2,0.2,0.4,0.2c0.1,0,0.2,0,0.3,0s0.2,0,0.3,0
			l0.1,1.2c-0.2,0.1-0.4,0.1-0.6,0.1s-0.4,0-0.6,0c-0.6,0-1-0.2-1.4-0.5s-0.5-0.8-0.5-1.5v-3.2h-0.9v-1.2h0.9V22H505.5z"/>
		<path class="st22" d="M507.6,28.9l0.8-0.2v-3.9l-0.9-0.2v-1h2.5l0.1,0.9c0.1-0.3,0.3-0.6,0.6-0.8s0.5-0.3,0.8-0.3
			c0.1,0,0.2,0,0.3,0s0.2,0,0.2,0l-0.2,1.6l-0.7,0c-0.3,0-0.5,0-0.6,0.1s-0.3,0.2-0.4,0.4v3.1l0.8,0.2v1h-3.4V28.9z"/>
		<path class="st22" d="M516.9,29.1c-0.2,0.3-0.5,0.5-0.8,0.7s-0.6,0.2-1,0.2c-0.7,0-1.2-0.2-1.6-0.6s-0.6-1.1-0.6-2v-2.6l-0.7-0.2
			v-1h0.7h1.7v3.8c0,0.5,0.1,0.8,0.2,1s0.4,0.3,0.7,0.3c0.3,0,0.5,0,0.7-0.1s0.4-0.2,0.5-0.4v-3.4l-0.8-0.2v-1h0.8h1.7v5.1l0.8,0.2
			v1H517L516.9,29.1z"/>
		<path class="st22" d="M525.2,25.8H524l-0.2-0.8c-0.1-0.1-0.3-0.2-0.4-0.2s-0.4-0.1-0.6-0.1c-0.3,0-0.5,0.1-0.7,0.2
			s-0.3,0.3-0.3,0.5c0,0.2,0.1,0.4,0.3,0.5s0.5,0.2,1,0.3c0.8,0.2,1.4,0.4,1.7,0.7s0.6,0.7,0.6,1.3c0,0.6-0.2,1-0.7,1.4
			s-1.1,0.5-1.9,0.5c-0.5,0-0.9-0.1-1.3-0.2s-0.8-0.3-1.1-0.6l0-1.4h1.2l0.2,0.8c0.1,0.1,0.2,0.1,0.4,0.2s0.4,0.1,0.6,0.1
			c0.3,0,0.6-0.1,0.8-0.2s0.3-0.3,0.3-0.5c0-0.2-0.1-0.3-0.3-0.5s-0.5-0.3-1-0.4c-0.7-0.2-1.3-0.4-1.7-0.7s-0.6-0.7-0.6-1.2
			c0-0.5,0.2-1,0.7-1.4s1.1-0.6,1.9-0.6c0.5,0,1,0.1,1.4,0.2s0.8,0.3,1,0.5L525.2,25.8z"/>
		<path class="st22" d="M528.7,22v1.6h1.1v1.2h-1.1V28c0,0.2,0.1,0.4,0.2,0.5s0.2,0.2,0.4,0.2c0.1,0,0.2,0,0.3,0s0.2,0,0.3,0
			l0.1,1.2c-0.2,0.1-0.4,0.1-0.6,0.1s-0.4,0-0.6,0c-0.6,0-1-0.2-1.4-0.5S527,28.7,527,28v-3.2H526v-1.2h0.9V22H528.7z"/>
		<path class="st22" d="M533.7,30c-0.9,0-1.6-0.3-2.2-0.9s-0.8-1.3-0.8-2.2v-0.2c0-0.9,0.3-1.7,0.8-2.3s1.2-0.9,2.1-0.9
			c0.9,0,1.5,0.3,2,0.8s0.7,1.2,0.7,2.1v0.9h-3.8l0,0c0,0.4,0.2,0.8,0.4,1s0.6,0.4,1,0.4c0.4,0,0.7,0,0.9-0.1s0.5-0.2,0.8-0.4
			l0.5,1.1c-0.3,0.2-0.6,0.4-1,0.5S534.2,30,533.7,30z M533.5,24.8c-0.3,0-0.6,0.1-0.8,0.4s-0.3,0.6-0.3,1l0,0h2.1V26
			c0-0.4-0.1-0.7-0.3-0.9S533.9,24.8,533.5,24.8z"/>
		<path class="st22" d="M541.1,29.1c-0.2,0.3-0.4,0.5-0.7,0.7s-0.6,0.2-0.9,0.2c-0.8,0-1.4-0.3-1.8-0.9s-0.6-1.3-0.6-2.3v-0.1
			c0-1,0.2-1.8,0.7-2.4s1-0.9,1.8-0.9c0.3,0,0.6,0.1,0.9,0.2s0.5,0.3,0.7,0.6V22l-0.9-0.2v-1h0.9h1.7v7.9l0.8,0.2v1h-2.3L541.1,29.1
			z M538.8,26.9c0,0.6,0.1,1,0.3,1.3s0.5,0.5,0.9,0.5c0.3,0,0.5-0.1,0.7-0.2s0.3-0.2,0.5-0.4v-2.7c-0.1-0.2-0.3-0.4-0.4-0.5
			s-0.4-0.2-0.6-0.2c-0.4,0-0.7,0.2-0.9,0.6s-0.3,0.9-0.3,1.5V26.9z"/>
	</g>
	<g class="st15">
		<path class="st22" d="M440.2,43.3l0.8-0.2v-3.9l-0.9-0.2v-1h2.5l0.1,0.9c0.1-0.3,0.3-0.6,0.6-0.8s0.5-0.3,0.8-0.3
			c0.1,0,0.2,0,0.3,0s0.2,0,0.2,0l-0.2,1.6l-0.7,0c-0.3,0-0.5,0-0.6,0.1s-0.3,0.2-0.4,0.4v3.1l0.8,0.2v1h-3.4V43.3z"/>
	</g>
	<g class="st15">
		<path class="st22" d="M448.1,44.4c-0.9,0-1.6-0.3-2.2-0.9s-0.8-1.3-0.8-2.2v-0.2c0-0.9,0.3-1.7,0.8-2.3s1.2-0.9,2.1-0.9
			c0.9,0,1.5,0.3,2,0.8s0.7,1.2,0.7,2.1v0.9h-3.8l0,0c0,0.4,0.2,0.8,0.4,1s0.6,0.4,1,0.4c0.4,0,0.7,0,0.9-0.1s0.5-0.2,0.8-0.4
			l0.5,1.1c-0.3,0.2-0.6,0.4-1,0.5S448.6,44.4,448.1,44.4z M447.9,39.2c-0.3,0-0.6,0.1-0.8,0.4s-0.3,0.6-0.3,1l0,0h2.1v-0.2
			c0-0.4-0.1-0.7-0.3-0.9S448.3,39.2,447.9,39.2z"/>
	</g>
	<g class="st15">
		<path class="st22" d="M451.2,39v-1h2.5l0.1,0.8c0.2-0.3,0.5-0.5,0.8-0.7s0.7-0.2,1.1-0.2c0.4,0,0.8,0.1,1,0.3s0.5,0.5,0.7,0.8
			c0.2-0.3,0.4-0.6,0.8-0.8s0.7-0.3,1.1-0.3c0.6,0,1.1,0.2,1.5,0.6s0.5,1.1,0.5,2v2.6l0.8,0.2v1h-3.3v-1l0.7-0.2v-2.6
			c0-0.5-0.1-0.8-0.2-1s-0.4-0.3-0.7-0.3c-0.2,0-0.5,0.1-0.6,0.2s-0.3,0.3-0.4,0.4c0,0.1,0,0.1,0,0.2s0,0.1,0,0.2v3l0.7,0.2v1h-3.1
			v-1l0.7-0.2v-2.6c0-0.5-0.1-0.8-0.2-1s-0.4-0.3-0.7-0.3c-0.2,0-0.4,0-0.6,0.1s-0.3,0.2-0.4,0.4v3.4l0.7,0.2v1h-3.3v-1l0.8-0.2
			v-3.9L451.2,39z"/>
	</g>
	<g class="st15">
		<path class="st22" d="M462.5,41.1c0-0.9,0.3-1.7,0.8-2.3s1.3-0.9,2.2-0.9c0.9,0,1.7,0.3,2.2,0.9s0.8,1.4,0.8,2.3v0.1
			c0,1-0.3,1.7-0.8,2.3s-1.3,0.9-2.2,0.9c-0.9,0-1.7-0.3-2.2-0.9s-0.8-1.4-0.8-2.3V41.1z M464.2,41.2c0,0.6,0.1,1,0.3,1.4
			s0.5,0.5,1,0.5c0.4,0,0.8-0.2,1-0.5s0.3-0.8,0.3-1.4v-0.1c0-0.6-0.1-1-0.3-1.4s-0.5-0.5-1-0.5s-0.8,0.2-1,0.5s-0.3,0.8-0.3,1.4
			V41.2z"/>
		<path class="st22" d="M471.8,36.4V38h1.1v1.2h-1.1v3.2c0,0.2,0.1,0.4,0.2,0.5s0.2,0.2,0.4,0.2c0.1,0,0.2,0,0.3,0s0.2,0,0.3,0
			l0.1,1.2c-0.2,0.1-0.4,0.1-0.6,0.1s-0.4,0-0.6,0c-0.6,0-1-0.2-1.4-0.5s-0.5-0.8-0.5-1.5v-3.2h-0.9V38h0.9v-1.6H471.8z"/>
		<path class="st22" d="M476.8,44.4c-0.9,0-1.6-0.3-2.2-0.9s-0.8-1.3-0.8-2.2v-0.2c0-0.9,0.3-1.7,0.8-2.3s1.2-0.9,2.1-0.9
			c0.9,0,1.5,0.3,2,0.8s0.7,1.2,0.7,2.1v0.9h-3.8l0,0c0,0.4,0.2,0.8,0.4,1s0.6,0.4,1,0.4c0.4,0,0.7,0,0.9-0.1s0.5-0.2,0.8-0.4
			l0.5,1.1c-0.3,0.2-0.6,0.4-1,0.5S477.3,44.4,476.8,44.4z M476.6,39.2c-0.3,0-0.6,0.1-0.8,0.4s-0.3,0.6-0.3,1l0,0h2.1v-0.2
			c0-0.4-0.1-0.7-0.3-0.9S477,39.2,476.6,39.2z"/>
		<path class="st22" d="M486,43.1c0.3,0,0.5-0.1,0.7-0.3s0.3-0.4,0.3-0.7h1.5l0,0c0,0.6-0.2,1.2-0.7,1.6s-1.1,0.6-1.9,0.6
			c-0.9,0-1.7-0.3-2.2-0.9s-0.8-1.4-0.8-2.3v-0.2c0-0.9,0.3-1.7,0.8-2.3s1.3-0.9,2.2-0.9c0.5,0,1,0.1,1.4,0.2s0.7,0.4,1,0.6l0,1.7
			h-1.4l-0.3-1c-0.1-0.1-0.2-0.1-0.3-0.2s-0.3-0.1-0.4-0.1c-0.5,0-0.8,0.2-1,0.5s-0.3,0.8-0.3,1.4v0.2c0,0.6,0.1,1,0.3,1.4
			S485.6,43.1,486,43.1z"/>
		<path class="st22" d="M489.4,41.1c0-0.9,0.3-1.7,0.8-2.3s1.3-0.9,2.2-0.9c0.9,0,1.7,0.3,2.2,0.9s0.8,1.4,0.8,2.3v0.1
			c0,1-0.3,1.7-0.8,2.3s-1.3,0.9-2.2,0.9c-0.9,0-1.7-0.3-2.2-0.9s-0.8-1.4-0.8-2.3V41.1z M491.1,41.2c0,0.6,0.1,1,0.3,1.4
			s0.5,0.5,1,0.5c0.4,0,0.8-0.2,1-0.5s0.3-0.8,0.3-1.4v-0.1c0-0.6-0.1-1-0.3-1.4s-0.5-0.5-1-0.5s-0.8,0.2-1,0.5s-0.3,0.8-0.3,1.4
			V41.2z"/>
		<path class="st22" d="M495.9,39v-1h2.5l0.1,0.8c0.2-0.3,0.5-0.5,0.8-0.7s0.7-0.2,1.1-0.2c0.4,0,0.8,0.1,1,0.3s0.5,0.5,0.7,0.8
			c0.2-0.3,0.4-0.6,0.8-0.8s0.7-0.3,1.1-0.3c0.6,0,1.1,0.2,1.5,0.6s0.5,1.1,0.5,2v2.6l0.8,0.2v1h-3.3v-1l0.7-0.2v-2.6
			c0-0.5-0.1-0.8-0.2-1s-0.4-0.3-0.7-0.3c-0.2,0-0.5,0.1-0.6,0.2s-0.3,0.3-0.4,0.4c0,0.1,0,0.1,0,0.2s0,0.1,0,0.2v3l0.7,0.2v1h-3.1
			v-1l0.7-0.2v-2.6c0-0.5-0.1-0.8-0.2-1s-0.4-0.3-0.7-0.3c-0.2,0-0.4,0-0.6,0.1s-0.3,0.2-0.4,0.4v3.4l0.7,0.2v1H496v-1l0.8-0.2v-3.9
			L495.9,39z"/>
		<path class="st22" d="M507.1,39v-1h2.5l0.1,0.7c0.2-0.3,0.4-0.5,0.7-0.6s0.6-0.2,0.9-0.2c0.8,0,1.4,0.3,1.8,0.9s0.7,1.4,0.7,2.4
			v0.1c0,0.9-0.2,1.7-0.7,2.3s-1,0.9-1.8,0.9c-0.3,0-0.6-0.1-0.9-0.2s-0.5-0.3-0.7-0.5v1.8l0.8,0.2v1h-3.4v-1l0.8-0.2v-6.4L507.1,39
			z M512.1,41.2c0-0.6-0.1-1.1-0.3-1.5s-0.5-0.6-0.9-0.6c-0.3,0-0.5,0.1-0.7,0.2s-0.3,0.3-0.4,0.5v2.8c0.1,0.2,0.2,0.3,0.4,0.4
			s0.4,0.1,0.7,0.1c0.4,0,0.7-0.2,0.9-0.5s0.3-0.8,0.3-1.3V41.2z"/>
		<path class="st22" d="M519,43.5c-0.2,0.3-0.5,0.5-0.8,0.7s-0.6,0.2-1,0.2c-0.7,0-1.2-0.2-1.6-0.6s-0.6-1.1-0.6-2v-2.6l-0.7-0.2v-1
			h0.7h1.7v3.8c0,0.5,0.1,0.8,0.2,1s0.4,0.3,0.7,0.3c0.3,0,0.5,0,0.7-0.1s0.4-0.2,0.5-0.4v-3.4l-0.8-0.2v-1h0.8h1.7v5.1l0.8,0.2v1
			h-2.3L519,43.5z"/>
		<path class="st22" d="M524.6,36.4V38h1.1v1.2h-1.1v3.2c0,0.2,0.1,0.4,0.2,0.5s0.2,0.2,0.4,0.2c0.1,0,0.2,0,0.3,0s0.2,0,0.3,0
			l0.1,1.2c-0.2,0.1-0.4,0.1-0.6,0.1s-0.4,0-0.6,0c-0.6,0-1-0.2-1.4-0.5s-0.5-0.8-0.5-1.5v-3.2h-0.9V38h0.9v-1.6H524.6z"/>
		<path class="st22" d="M529.5,44.4c-0.9,0-1.6-0.3-2.2-0.9s-0.8-1.3-0.8-2.2v-0.2c0-0.9,0.3-1.7,0.8-2.3s1.2-0.9,2.1-0.9
			c0.9,0,1.5,0.3,2,0.8s0.7,1.2,0.7,2.1v0.9h-3.8l0,0c0,0.4,0.2,0.8,0.4,1s0.6,0.4,1,0.4c0.4,0,0.7,0,0.9-0.1s0.5-0.2,0.8-0.4
			l0.5,1.1c-0.3,0.2-0.6,0.4-1,0.5S530.1,44.4,529.5,44.4z M529.4,39.2c-0.3,0-0.6,0.1-0.8,0.4s-0.3,0.6-0.3,1l0,0h2.1v-0.2
			c0-0.4-0.1-0.7-0.3-0.9S529.7,39.2,529.4,39.2z"/>
		<path class="st22" d="M533,43.3l0.8-0.2v-3.9l-0.9-0.2v-1h2.5l0.1,0.9c0.1-0.3,0.3-0.6,0.6-0.8s0.5-0.3,0.8-0.3c0.1,0,0.2,0,0.3,0
			s0.2,0,0.2,0l-0.2,1.6l-0.7,0c-0.3,0-0.5,0-0.6,0.1s-0.3,0.2-0.4,0.4v3.1l0.8,0.2v1H533V43.3z"/>
		<path class="st22" d="M543.1,40.2H542l-0.2-0.8c-0.1-0.1-0.3-0.2-0.4-0.2S541,39,540.8,39c-0.3,0-0.5,0.1-0.7,0.2
			s-0.3,0.3-0.3,0.5c0,0.2,0.1,0.4,0.3,0.5s0.5,0.2,1,0.3c0.8,0.2,1.4,0.4,1.7,0.7s0.6,0.7,0.6,1.3c0,0.6-0.2,1-0.7,1.4
			s-1.1,0.5-1.9,0.5c-0.5,0-0.9-0.1-1.3-0.2s-0.8-0.3-1.1-0.6l0-1.4h1.2l0.2,0.8c0.1,0.1,0.2,0.1,0.4,0.2s0.4,0.1,0.6,0.1
			c0.3,0,0.6-0.1,0.8-0.2s0.3-0.3,0.3-0.5c0-0.2-0.1-0.3-0.3-0.5s-0.5-0.3-1-0.4c-0.7-0.2-1.3-0.4-1.7-0.7s-0.6-0.7-0.6-1.2
			c0-0.5,0.2-1,0.7-1.4s1.1-0.6,1.9-0.6c0.5,0,1,0.1,1.4,0.2s0.8,0.3,1,0.5L543.1,40.2z"/>
	</g>
	<g class="st15">
		<path class="st22" d="M48.3,21.9v2.3h-1.3l-0.1-1h-1.6v6l0.9,0.2v1h-3.5v-1l0.9-0.2v-6H42l-0.1,1h-1.3v-2.3H48.3z"/>
	</g>
	<g class="st15">
		<path class="st22" d="M48.6,29.4l0.8-0.2v-3.9l-0.9-0.2v-1H51l0.1,0.9c0.1-0.3,0.3-0.6,0.6-0.8s0.5-0.3,0.8-0.3c0.1,0,0.2,0,0.3,0
			s0.2,0,0.2,0l-0.2,1.6l-0.7,0c-0.3,0-0.5,0-0.6,0.1s-0.3,0.2-0.4,0.4v3.1l0.8,0.2v1h-3.4V29.4z"/>
		<path class="st22" d="M58,29.6c-0.2,0.3-0.5,0.5-0.8,0.7s-0.6,0.2-1,0.2c-0.7,0-1.2-0.2-1.6-0.6s-0.6-1.1-0.6-2v-2.6l-0.7-0.2v-1
			h0.7h1.7v3.8c0,0.5,0.1,0.8,0.2,1s0.4,0.3,0.7,0.3c0.3,0,0.5,0,0.7-0.1s0.4-0.2,0.5-0.4v-3.4l-0.8-0.2v-1h0.8h1.7v5.1l0.8,0.2v1
			h-2.3L58,29.6z"/>
		<path class="st22" d="M66.2,26.3H65l-0.2-0.8c-0.1-0.1-0.3-0.2-0.4-0.2s-0.4-0.1-0.6-0.1c-0.3,0-0.5,0.1-0.7,0.2s-0.3,0.3-0.3,0.5
			c0,0.2,0.1,0.4,0.3,0.5s0.5,0.2,1,0.3c0.8,0.2,1.4,0.4,1.7,0.7s0.6,0.7,0.6,1.3c0,0.6-0.2,1-0.7,1.4s-1.1,0.5-1.9,0.5
			c-0.5,0-0.9-0.1-1.3-0.2s-0.8-0.3-1.1-0.6l0-1.4h1.2l0.2,0.8c0.1,0.1,0.2,0.1,0.4,0.2s0.4,0.1,0.6,0.1c0.3,0,0.6-0.1,0.8-0.2
			s0.3-0.3,0.3-0.5c0-0.2-0.1-0.3-0.3-0.5s-0.5-0.3-1-0.4c-0.7-0.2-1.3-0.4-1.7-0.7s-0.6-0.7-0.6-1.2c0-0.5,0.2-1,0.7-1.4
			s1.1-0.6,1.9-0.6c0.5,0,1,0.1,1.4,0.2s0.8,0.3,1,0.5L66.2,26.3z"/>
		<path class="st22" d="M69.7,22.6v1.6h1.1v1.2h-1.1v3.2c0,0.2,0.1,0.4,0.2,0.5s0.2,0.2,0.4,0.2c0.1,0,0.2,0,0.3,0s0.2,0,0.3,0
			l0.1,1.2c-0.2,0.1-0.4,0.1-0.6,0.1s-0.4,0-0.6,0c-0.6,0-1-0.2-1.4-0.5S68,29.2,68,28.5v-3.2h-0.9v-1.2H68v-1.6H69.7z"/>
		<path class="st22" d="M74.7,30.6c-0.9,0-1.6-0.3-2.2-0.9s-0.8-1.3-0.8-2.2v-0.2c0-0.9,0.3-1.7,0.8-2.3s1.2-0.9,2.1-0.9
			c0.9,0,1.5,0.3,2,0.8s0.7,1.2,0.7,2.1v0.9h-3.8l0,0c0,0.4,0.2,0.8,0.4,1s0.6,0.4,1,0.4c0.4,0,0.7,0,0.9-0.1s0.5-0.2,0.8-0.4
			l0.5,1.1c-0.3,0.2-0.6,0.4-1,0.5S75.2,30.6,74.7,30.6z M74.6,25.3c-0.3,0-0.6,0.1-0.8,0.4s-0.3,0.6-0.3,1l0,0h2.1v-0.2
			c0-0.4-0.1-0.7-0.3-0.9S74.9,25.3,74.6,25.3z"/>
		<path class="st22" d="M82.2,29.7c-0.2,0.3-0.4,0.5-0.7,0.7s-0.6,0.2-0.9,0.2c-0.8,0-1.4-0.3-1.8-0.9s-0.6-1.3-0.6-2.3v-0.1
			c0-1,0.2-1.8,0.7-2.4s1-0.9,1.8-0.9c0.3,0,0.6,0.1,0.9,0.2s0.5,0.3,0.7,0.6v-2.3l-0.9-0.2v-1h0.9h1.7v7.9l0.8,0.2v1h-2.3
			L82.2,29.7z M79.8,27.5c0,0.6,0.1,1,0.3,1.3s0.5,0.5,0.9,0.5c0.3,0,0.5-0.1,0.7-0.2s0.3-0.2,0.5-0.4V26c-0.1-0.2-0.3-0.4-0.4-0.5
			s-0.4-0.2-0.6-0.2c-0.4,0-0.7,0.2-0.9,0.6s-0.3,0.9-0.3,1.5V27.5z"/>
	</g>
	<g class="st15">
		<path class="st22" d="M43.8,43.7c0.3,0,0.5-0.1,0.7-0.3s0.3-0.4,0.3-0.7h1.5l0,0c0,0.6-0.2,1.2-0.7,1.6S44.5,45,43.8,45
			c-0.9,0-1.7-0.3-2.2-0.9s-0.8-1.4-0.8-2.3v-0.2c0-0.9,0.3-1.7,0.8-2.3s1.3-0.9,2.2-0.9c0.5,0,1,0.1,1.4,0.2s0.7,0.4,1,0.6l0,1.7
			h-1.4l-0.3-1c-0.1-0.1-0.2-0.1-0.3-0.2s-0.3-0.1-0.4-0.1c-0.5,0-0.8,0.2-1,0.5s-0.3,0.8-0.3,1.4v0.2c0,0.6,0.1,1,0.3,1.4
			S43.3,43.7,43.8,43.7z"/>
		<path class="st22" d="M46.9,36.7v-1h2.6v7.9l0.8,0.2v1H47v-1l0.8-0.2v-6.7L46.9,36.7z"/>
		<path class="st22" d="M50.9,43.8l0.8-0.2v-3.9l-0.9-0.2v-1h2.6v5.1l0.8,0.2v1h-3.4V43.8z M53.4,37h-1.7v-1.3h1.7V37z"/>
		<path class="st22" d="M57.8,45c-0.9,0-1.6-0.3-2.2-0.9s-0.8-1.3-0.8-2.2v-0.2c0-0.9,0.3-1.7,0.8-2.3s1.2-0.9,2.1-0.9
			c0.9,0,1.5,0.3,2,0.8s0.7,1.2,0.7,2.1v0.9h-3.8l0,0c0,0.4,0.2,0.8,0.4,1s0.6,0.4,1,0.4c0.4,0,0.7,0,0.9-0.1s0.5-0.2,0.8-0.4
			l0.5,1.1c-0.3,0.2-0.6,0.4-1,0.5S58.4,45,57.8,45z M57.7,39.7c-0.3,0-0.6,0.1-0.8,0.4s-0.3,0.6-0.3,1l0,0h2.1v-0.2
			c0-0.4-0.1-0.7-0.3-0.9S58,39.7,57.7,39.7z"/>
		<path class="st22" d="M61.1,43.8l0.8-0.2v-3.9L61,39.5v-1h2.5l0.1,0.9c0.2-0.3,0.5-0.6,0.8-0.8s0.7-0.3,1-0.3
			c0.6,0,1.1,0.2,1.5,0.6s0.5,1,0.5,1.9v2.8l0.8,0.2v1H65v-1l0.7-0.2v-2.8c0-0.4-0.1-0.7-0.3-0.9s-0.4-0.3-0.8-0.3
			c-0.2,0-0.4,0-0.6,0.1s-0.3,0.2-0.5,0.4v3.4l0.7,0.2v1h-3.2V43.8z"/>
		<path class="st22" d="M71.3,37v1.6h1.1v1.2h-1.1v3.2c0,0.2,0.1,0.4,0.2,0.5s0.2,0.2,0.4,0.2c0.1,0,0.2,0,0.3,0s0.2,0,0.3,0
			l0.1,1.2c-0.2,0.1-0.4,0.1-0.6,0.1s-0.4,0-0.6,0c-0.6,0-1-0.2-1.4-0.5s-0.5-0.8-0.5-1.5v-3.2h-0.9v-1.2h0.9V37H71.3z"/>
		<path class="st22" d="M79.2,43.7c0.3,0,0.5-0.1,0.7-0.3s0.3-0.4,0.3-0.7h1.5l0,0c0,0.6-0.2,1.2-0.7,1.6S79.9,45,79.2,45
			c-0.9,0-1.7-0.3-2.2-0.9s-0.8-1.4-0.8-2.3v-0.2c0-0.9,0.3-1.7,0.8-2.3s1.3-0.9,2.2-0.9c0.5,0,1,0.1,1.4,0.2s0.7,0.4,1,0.6l0,1.7
			h-1.4L80,40c-0.1-0.1-0.2-0.1-0.3-0.2s-0.3-0.1-0.4-0.1c-0.5,0-0.8,0.2-1,0.5S78,41,78,41.6v0.2c0,0.6,0.1,1,0.3,1.4
			S78.7,43.7,79.2,43.7z"/>
		<path class="st22" d="M82.6,41.6c0-0.9,0.3-1.7,0.8-2.3s1.3-0.9,2.2-0.9c0.9,0,1.7,0.3,2.2,0.9s0.8,1.4,0.8,2.3v0.1
			c0,1-0.3,1.7-0.8,2.3S86.5,45,85.6,45c-0.9,0-1.7-0.3-2.2-0.9s-0.8-1.4-0.8-2.3V41.6z M84.3,41.7c0,0.6,0.1,1,0.3,1.4
			s0.5,0.5,1,0.5c0.4,0,0.8-0.2,1-0.5s0.3-0.8,0.3-1.4v-0.1c0-0.6-0.1-1-0.3-1.4s-0.5-0.5-1-0.5s-0.8,0.2-1,0.5s-0.3,0.8-0.3,1.4
			V41.7z"/>
		<path class="st22" d="M89.1,39.5v-1h2.5l0.1,0.8c0.2-0.3,0.5-0.5,0.8-0.7s0.7-0.2,1.1-0.2c0.4,0,0.8,0.1,1,0.3s0.5,0.5,0.7,0.8
			c0.2-0.3,0.4-0.6,0.8-0.8s0.7-0.3,1.1-0.3c0.6,0,1.1,0.2,1.5,0.6s0.5,1.1,0.5,2v2.6l0.8,0.2v1h-3.3v-1l0.7-0.2V41
			c0-0.5-0.1-0.8-0.2-1s-0.4-0.3-0.7-0.3c-0.2,0-0.5,0.1-0.6,0.2s-0.3,0.3-0.4,0.4c0,0.1,0,0.1,0,0.2s0,0.1,0,0.2v3l0.7,0.2v1H93v-1
			l0.7-0.2V41c0-0.5-0.1-0.8-0.2-1s-0.4-0.3-0.7-0.3c-0.2,0-0.4,0-0.6,0.1s-0.3,0.2-0.4,0.4v3.4l0.7,0.2v1h-3.3v-1l0.8-0.2v-3.9
			L89.1,39.5z"/>
		<path class="st22" d="M100.3,39.5v-1h2.5l0.1,0.7c0.2-0.3,0.4-0.5,0.7-0.6s0.6-0.2,0.9-0.2c0.8,0,1.4,0.3,1.8,0.9s0.7,1.4,0.7,2.4
			v0.1c0,0.9-0.2,1.7-0.7,2.3s-1,0.9-1.8,0.9c-0.3,0-0.6-0.1-0.9-0.2s-0.5-0.3-0.7-0.5v1.8l0.8,0.2v1h-3.4v-1l0.8-0.2v-6.4
			L100.3,39.5z M105.2,41.7c0-0.6-0.1-1.1-0.3-1.5s-0.5-0.6-0.9-0.6c-0.3,0-0.5,0.1-0.7,0.2s-0.3,0.3-0.4,0.5v2.8
			c0.1,0.2,0.2,0.3,0.4,0.4s0.4,0.1,0.7,0.1c0.4,0,0.7-0.2,0.9-0.5s0.3-0.8,0.3-1.3V41.7z"/>
		<path class="st22" d="M112.1,44c-0.2,0.3-0.5,0.5-0.8,0.7s-0.6,0.2-1,0.2c-0.7,0-1.2-0.2-1.6-0.6s-0.6-1.1-0.6-2v-2.6l-0.7-0.2v-1
			h0.7h1.7v3.8c0,0.5,0.1,0.8,0.2,1s0.4,0.3,0.7,0.3c0.3,0,0.5,0,0.7-0.1s0.4-0.2,0.5-0.4v-3.4l-0.8-0.2v-1h0.8h1.7v5.1l0.8,0.2v1
			h-2.3L112.1,44z"/>
		<path class="st22" d="M117.7,37v1.6h1.1v1.2h-1.1v3.2c0,0.2,0.1,0.4,0.2,0.5s0.2,0.2,0.4,0.2c0.1,0,0.2,0,0.3,0s0.2,0,0.3,0
			l0.1,1.2c-0.2,0.1-0.4,0.1-0.6,0.1s-0.4,0-0.6,0c-0.6,0-1-0.2-1.4-0.5s-0.5-0.8-0.5-1.5v-3.2h-0.9v-1.2h0.9V37H117.7z"/>
		<path class="st22" d="M122.7,45c-0.9,0-1.6-0.3-2.2-0.9s-0.8-1.3-0.8-2.2v-0.2c0-0.9,0.3-1.7,0.8-2.3s1.2-0.9,2.1-0.9
			c0.9,0,1.5,0.3,2,0.8s0.7,1.2,0.7,2.1v0.9h-3.8l0,0c0,0.4,0.2,0.8,0.4,1s0.6,0.4,1,0.4c0.4,0,0.7,0,0.9-0.1s0.5-0.2,0.8-0.4
			l0.5,1.1c-0.3,0.2-0.6,0.4-1,0.5S123.2,45,122.7,45z M122.6,39.7c-0.3,0-0.6,0.1-0.8,0.4s-0.3,0.6-0.3,1l0,0h2.1v-0.2
			c0-0.4-0.1-0.7-0.3-0.9S122.9,39.7,122.6,39.7z"/>
		<path class="st22" d="M126.2,43.8l0.8-0.2v-3.9l-0.9-0.2v-1h2.5l0.1,0.9c0.1-0.3,0.3-0.6,0.6-0.8s0.5-0.3,0.8-0.3
			c0.1,0,0.2,0,0.3,0s0.2,0,0.2,0l-0.2,1.6l-0.7,0c-0.3,0-0.5,0-0.6,0.1s-0.3,0.2-0.4,0.4v3.1l0.8,0.2v1h-3.4V43.8z"/>
	</g>
	<g class="st15">
		<path class="st14" d="M358.8,171.8c0-0.1-0.1-0.2-0.1-0.2c0-0.1,0-0.2-0.1-0.3c-0.2,0.2-0.3,0.3-0.6,0.4s-0.5,0.2-0.8,0.2
			c-0.5,0-0.8-0.1-1.1-0.4c-0.3-0.3-0.4-0.6-0.4-1c0-0.4,0.2-0.8,0.5-1c0.4-0.2,0.9-0.4,1.6-0.4h0.7v-0.5c0-0.2-0.1-0.4-0.2-0.5
			c-0.1-0.1-0.3-0.2-0.6-0.2c-0.1,0-0.3,0-0.4,0c-0.1,0-0.2,0.1-0.3,0.1l-0.1,0.5h-1l0-1.1c0.2-0.2,0.5-0.3,0.8-0.4
			c0.3-0.1,0.6-0.2,1-0.2c0.6,0,1.1,0.1,1.4,0.4c0.4,0.3,0.6,0.7,0.6,1.2v2c0,0.1,0,0.1,0,0.2c0,0.1,0,0.1,0,0.2l0.4,0.1v0.8H358.8z
			 M357.7,170.9c0.2,0,0.4,0,0.5-0.1c0.2-0.1,0.3-0.2,0.4-0.3v-0.7h-0.7c-0.3,0-0.5,0.1-0.6,0.2c-0.1,0.1-0.2,0.3-0.2,0.5
			c0,0.2,0.1,0.3,0.2,0.4C357.3,170.8,357.5,170.9,357.7,170.9z"/>
		<path class="st14" d="M360.6,165.7v-0.8h2v6l0.6,0.1v0.8h-2.5V171l0.6-0.1v-5L360.6,165.7z"/>
		<path class="st14" d="M370.5,167.8l-0.5,0.1l-1,3.9h-1.1l-0.9-2.8h0l-0.9,2.8H365l-1-3.9l-0.5-0.1V167h2.2v0.8l-0.5,0.1l0.5,2.2h0
			l0.9-3h0.9l0.9,3.1h0l0.4-2.2l-0.5-0.1V167h2.2V167.8z"/>
	</g>
	<g class="st15">
		<path class="st14" d="M374,171.8c0-0.1-0.1-0.2-0.1-0.2c0-0.1,0-0.2-0.1-0.3c-0.2,0.2-0.3,0.3-0.6,0.4c-0.2,0.1-0.5,0.2-0.8,0.2
			c-0.5,0-0.8-0.1-1.1-0.4c-0.3-0.3-0.4-0.6-0.4-1c0-0.4,0.2-0.8,0.5-1s0.9-0.4,1.6-0.4h0.7v-0.5c0-0.2-0.1-0.4-0.2-0.5
			s-0.3-0.2-0.6-0.2c-0.1,0-0.3,0-0.4,0c-0.1,0-0.2,0.1-0.3,0.1l-0.1,0.5h-1l0-1.1c0.2-0.2,0.5-0.3,0.8-0.4c0.3-0.1,0.6-0.2,1-0.2
			c0.6,0,1.1,0.1,1.4,0.4c0.4,0.3,0.6,0.7,0.6,1.2v2c0,0.1,0,0.1,0,0.2s0,0.1,0,0.2l0.4,0.1v0.8H374z M372.8,170.9
			c0.2,0,0.4,0,0.5-0.1c0.2-0.1,0.3-0.2,0.4-0.3v-0.7h-0.7c-0.3,0-0.5,0.1-0.6,0.2c-0.1,0.1-0.2,0.3-0.2,0.5c0,0.2,0.1,0.3,0.2,0.4
			C372.5,170.8,372.6,170.9,372.8,170.9z"/>
	</g>
	<g class="st15">
		<path class="st14" d="M380.8,167.8l-0.4,0.1l-1.8,4.6c-0.1,0.3-0.3,0.6-0.6,0.9s-0.6,0.3-1,0.3c-0.1,0-0.2,0-0.3,0
			c-0.1,0-0.2,0-0.3-0.1l0.2-0.9c0,0,0.1,0,0.1,0c0,0,0.1,0,0.1,0c0.2,0,0.4-0.1,0.5-0.2c0.1-0.1,0.2-0.2,0.3-0.4l0.1-0.4l-1.5-3.9
			l-0.4-0.1V167h2.4v0.8l-0.5,0.1l0.7,1.9l0.1,0.3l0,0l0.8-2.2l-0.5-0.1V167h2.4V167.8z"/>
		<path class="st14" d="M385.1,168.6h-0.9l-0.1-0.6c-0.1-0.1-0.2-0.1-0.3-0.2c-0.1,0-0.3-0.1-0.4-0.1c-0.2,0-0.4,0-0.5,0.2
			c-0.1,0.1-0.2,0.2-0.2,0.4c0,0.1,0.1,0.3,0.2,0.4c0.1,0.1,0.4,0.2,0.8,0.3c0.6,0.1,1,0.3,1.3,0.5c0.3,0.2,0.4,0.5,0.4,0.9
			c0,0.4-0.2,0.8-0.6,1c-0.4,0.3-0.9,0.4-1.5,0.4c-0.4,0-0.7-0.1-1-0.2c-0.3-0.1-0.6-0.3-0.8-0.5l0-1.1h0.9l0.2,0.6
			c0.1,0.1,0.2,0.1,0.3,0.1c0.1,0,0.3,0,0.4,0c0.3,0,0.5,0,0.6-0.1c0.1-0.1,0.2-0.2,0.2-0.4c0-0.1-0.1-0.3-0.2-0.4
			c-0.1-0.1-0.4-0.2-0.8-0.3c-0.6-0.1-1-0.3-1.3-0.5c-0.3-0.2-0.4-0.5-0.4-0.9c0-0.4,0.2-0.7,0.5-1c0.3-0.3,0.8-0.4,1.4-0.4
			c0.4,0,0.7,0,1.1,0.1c0.3,0.1,0.6,0.2,0.8,0.4L385.1,168.6z"/>
	</g>
	<g class="st15">
		<path class="st14" d="M358,182.6c-0.7,0-1.2-0.2-1.7-0.7c-0.4-0.4-0.6-1-0.6-1.7v-0.2c0-0.7,0.2-1.3,0.6-1.7s0.9-0.7,1.6-0.7
			c0.6,0,1.2,0.2,1.5,0.6c0.4,0.4,0.5,0.9,0.5,1.6v0.7h-2.9l0,0c0,0.3,0.1,0.6,0.3,0.8s0.4,0.3,0.8,0.3c0.3,0,0.5,0,0.7-0.1
			c0.2-0.1,0.4-0.1,0.6-0.3l0.4,0.8c-0.2,0.2-0.5,0.3-0.8,0.4C358.8,182.6,358.4,182.6,358,182.6z M357.9,178.7
			c-0.2,0-0.4,0.1-0.6,0.3c-0.1,0.2-0.2,0.4-0.3,0.7l0,0h1.6v-0.1c0-0.3-0.1-0.5-0.2-0.7C358.4,178.8,358.2,178.7,357.9,178.7z"/>
	</g>
	<g class="st15">
		<path class="st14" d="M360.5,181.8l0.6-0.1v-2.9l-0.7-0.1v-0.8h1.9l0.1,0.7c0.2-0.2,0.4-0.4,0.6-0.6c0.2-0.1,0.5-0.2,0.8-0.2
			c0.5,0,0.9,0.2,1.1,0.5c0.3,0.3,0.4,0.8,0.4,1.4v2.1l0.6,0.1v0.8h-2.5v-0.8l0.6-0.1v-2.1c0-0.3-0.1-0.5-0.2-0.7
			c-0.1-0.1-0.3-0.2-0.6-0.2c-0.2,0-0.3,0-0.5,0.1c-0.1,0.1-0.3,0.2-0.3,0.3v2.5l0.5,0.1v0.8h-2.4V181.8z"/>
	</g>
	<g class="st15">
		<path class="st14" d="M368.5,181.7c0.2,0,0.4-0.1,0.6-0.2s0.2-0.3,0.2-0.5h1.2l0,0c0,0.5-0.2,0.9-0.5,1.2
			c-0.4,0.3-0.8,0.5-1.4,0.5c-0.7,0-1.3-0.2-1.7-0.7c-0.4-0.4-0.6-1-0.6-1.7v-0.1c0-0.7,0.2-1.3,0.6-1.7c0.4-0.5,1-0.7,1.7-0.7
			c0.4,0,0.7,0.1,1,0.2c0.3,0.1,0.6,0.3,0.8,0.5l0,1.3h-1.1l-0.2-0.7c-0.1-0.1-0.1-0.1-0.2-0.1s-0.2-0.1-0.3-0.1
			c-0.4,0-0.6,0.1-0.8,0.4s-0.2,0.6-0.2,1v0.1c0,0.4,0.1,0.8,0.2,1C367.9,181.5,368.2,181.7,368.5,181.7z"/>
	</g>
	<g class="st15">
		<path class="st14" d="M371.2,181.8l0.6-0.1v-2.9l-0.7-0.1v-0.8h1.9l0.1,0.7c0.1-0.2,0.3-0.4,0.4-0.6c0.2-0.1,0.4-0.2,0.6-0.2
			c0.1,0,0.1,0,0.2,0c0.1,0,0.1,0,0.2,0l-0.1,1.2l-0.5,0c-0.2,0-0.3,0-0.5,0.1c-0.1,0.1-0.2,0.2-0.3,0.3v2.3l0.6,0.1v0.8h-2.5V181.8
			z"/>
	</g>
	<g class="st15">
		<path class="st14" d="M380,178.6l-0.4,0.1l-1.8,4.6c-0.1,0.3-0.3,0.6-0.6,0.9s-0.6,0.3-1,0.3c-0.1,0-0.2,0-0.3,0s-0.2,0-0.3-0.1
			l0.2-0.9c0,0,0.1,0,0.1,0c0,0,0.1,0,0.1,0c0.2,0,0.4-0.1,0.5-0.2c0.1-0.1,0.2-0.2,0.3-0.4l0.1-0.4l-1.5-3.9l-0.4-0.1v-0.8h2.4v0.8
			l-0.5,0.1l0.7,1.9l0.1,0.3l0,0l0.8-2.2l-0.5-0.1v-0.8h2.4V178.6z"/>
		<path class="st14" d="M380.3,178.6v-0.8h1.9l0.1,0.6c0.1-0.2,0.3-0.4,0.5-0.5c0.2-0.1,0.4-0.2,0.7-0.2c0.6,0,1.1,0.2,1.4,0.7
			c0.3,0.5,0.5,1.1,0.5,1.8v0.1c0,0.7-0.2,1.3-0.5,1.7c-0.3,0.4-0.8,0.6-1.4,0.6c-0.3,0-0.5,0-0.7-0.1c-0.2-0.1-0.4-0.2-0.5-0.4v1.4
			l0.6,0.1v0.8h-2.5v-0.8l0.6-0.1v-4.8L380.3,178.6z M384,180.2c0-0.4-0.1-0.8-0.2-1.1c-0.2-0.3-0.4-0.4-0.7-0.4
			c-0.2,0-0.4,0-0.5,0.1s-0.2,0.2-0.3,0.3v2.1c0.1,0.1,0.2,0.2,0.3,0.3s0.3,0.1,0.5,0.1c0.3,0,0.5-0.1,0.7-0.4S384,180.7,384,180.2
			L384,180.2z"/>
		<path class="st14" d="M387.8,176.6v1.2h0.8v0.9h-0.8v2.4c0,0.2,0,0.3,0.1,0.4c0.1,0.1,0.2,0.1,0.3,0.1c0.1,0,0.2,0,0.2,0
			c0.1,0,0.1,0,0.2,0l0.1,0.9c-0.1,0-0.3,0.1-0.4,0.1c-0.1,0-0.3,0-0.5,0c-0.4,0-0.8-0.1-1-0.4s-0.4-0.6-0.4-1.2v-2.4h-0.7v-0.9h0.7
			v-1.2H387.8z"/>
		<path class="st14" d="M391.6,182.6c-0.7,0-1.2-0.2-1.7-0.7c-0.4-0.4-0.6-1-0.6-1.7v-0.2c0-0.7,0.2-1.3,0.6-1.7
			c0.4-0.5,0.9-0.7,1.6-0.7c0.6,0,1.2,0.2,1.5,0.6c0.4,0.4,0.5,0.9,0.5,1.6v0.7h-2.9l0,0c0,0.3,0.1,0.6,0.3,0.8
			c0.2,0.2,0.4,0.3,0.8,0.3c0.3,0,0.5,0,0.7-0.1c0.2-0.1,0.4-0.1,0.6-0.3l0.3,0.8c-0.2,0.2-0.5,0.3-0.8,0.4
			C392.3,182.6,391.9,182.6,391.6,182.6z M391.4,178.7c-0.2,0-0.4,0.1-0.6,0.3c-0.1,0.2-0.2,0.4-0.3,0.7l0,0h1.6v-0.1
			c0-0.3-0.1-0.5-0.2-0.7C391.9,178.8,391.7,178.7,391.4,178.7z"/>
		<path class="st14" d="M397.2,182c-0.2,0.2-0.3,0.4-0.5,0.5c-0.2,0.1-0.4,0.2-0.7,0.2c-0.6,0-1.1-0.2-1.4-0.6
			c-0.3-0.4-0.5-1-0.5-1.7v-0.1c0-0.8,0.2-1.4,0.5-1.8c0.3-0.5,0.8-0.7,1.4-0.7c0.2,0,0.5,0.1,0.6,0.2c0.2,0.1,0.4,0.3,0.5,0.4v-1.7
			l-0.7-0.1v-0.8h0.7h1.3v6l0.6,0.1v0.8h-1.7L397.2,182z M395.4,180.3c0,0.4,0.1,0.7,0.2,1c0.1,0.2,0.4,0.4,0.7,0.4
			c0.2,0,0.4,0,0.5-0.1s0.3-0.2,0.3-0.3v-2c-0.1-0.2-0.2-0.3-0.3-0.4c-0.1-0.1-0.3-0.1-0.5-0.1c-0.3,0-0.5,0.1-0.7,0.4
			C395.5,179.4,395.4,179.8,395.4,180.3L395.4,180.3z"/>
	</g>
	<path class="st6" d="M334,129.2h106.9c2.7,0,4.9,2.2,4.9,4.9v74.6c0,2.7-2.2,3.9-4.9,3.9H334V129.2z"/>
	<g class="st15">
		<path class="st10" d="M416.6,119c-0.2,0.2-0.5,0.3-0.8,0.4c-0.3,0.1-0.7,0.2-1.1,0.2c-0.4,0-0.8-0.1-1.1-0.2s-0.6-0.3-0.8-0.6
			c-0.2-0.3-0.3-0.6-0.4-0.9c-0.1-0.4-0.1-0.7-0.1-1.2c0-0.9,0.2-1.7,0.6-2.1s1-0.7,1.8-0.7c0.2,0,0.5,0,0.7,0.1
			c0.2,0.1,0.5,0.2,0.7,0.3c0.2,0.2,0.4,0.4,0.5,0.7c0.1,0.3,0.2,0.7,0.2,1.1c0,0.2,0,0.5-0.1,0.8h-3.5c0,0.3,0,0.6,0.1,0.9
			s0.2,0.5,0.3,0.6c0.1,0.2,0.3,0.3,0.5,0.4s0.5,0.1,0.8,0.1c0.2,0,0.5,0,0.7-0.1c0.2-0.1,0.4-0.2,0.6-0.3L416.6,119z M414.7,114.5
			c-0.4,0-0.8,0.1-1,0.3c-0.3,0.2-0.4,0.6-0.5,1.2h2.7c0-0.6-0.1-0.9-0.3-1.2C415.4,114.7,415.1,114.5,414.7,114.5z"/>
		<path class="st10" d="M421.7,119.4v-3.1c0-0.6-0.1-1-0.2-1.3c-0.2-0.3-0.5-0.4-0.9-0.4c-0.4,0-0.7,0.1-1,0.3
			c-0.3,0.2-0.4,0.5-0.5,0.8v3.8h-0.9v-5.5h0.6l0.2,0.7h0c0.2-0.2,0.4-0.4,0.7-0.6c0.3-0.2,0.7-0.2,1.1-0.2c0.3,0,0.6,0,0.8,0.1
			c0.2,0.1,0.4,0.2,0.6,0.4s0.3,0.4,0.3,0.7s0.1,0.7,0.1,1.1v3.3H421.7z"/>
		<path class="st10" d="M427.9,119c-0.2,0.2-0.5,0.3-0.8,0.4c-0.3,0.1-0.6,0.1-0.9,0.1c-0.4,0-0.8-0.1-1.1-0.2
			c-0.3-0.1-0.5-0.3-0.7-0.6c-0.2-0.3-0.3-0.6-0.4-0.9c-0.1-0.4-0.1-0.8-0.1-1.2c0-0.9,0.2-1.6,0.6-2.1c0.4-0.5,1-0.7,1.8-0.7
			c0.4,0,0.7,0,0.9,0.1c0.2,0.1,0.5,0.1,0.7,0.2l-0.3,0.8c-0.2-0.1-0.4-0.2-0.6-0.2c-0.2-0.1-0.4-0.1-0.7-0.1c-1,0-1.6,0.7-1.6,2.1
			c0,0.3,0,0.5,0.1,0.8c0.1,0.3,0.1,0.5,0.3,0.7s0.3,0.3,0.5,0.5c0.2,0.1,0.5,0.2,0.8,0.2c0.3,0,0.5,0,0.7-0.1s0.4-0.2,0.5-0.3
			L427.9,119z"/>
		<path class="st10" d="M431.7,114.8c-0.2-0.1-0.4-0.1-0.6-0.1c-0.3,0-0.6,0.1-0.7,0.3c-0.2,0.2-0.3,0.4-0.3,0.7v3.8h-0.9v-5.5h0.6
			l0.2,0.7h0c0.1-0.2,0.3-0.4,0.5-0.6s0.4-0.2,0.7-0.2c0.2,0,0.5,0,0.7,0.1L431.7,114.8z"/>
		<path class="st10" d="M434.5,117.5l0.3,1.1h0.1l0.2-1.1l1.1-3.6h0.9l-1.6,4.9c-0.1,0.4-0.2,0.7-0.4,1c-0.1,0.3-0.3,0.6-0.4,0.9
			c-0.1,0.3-0.3,0.5-0.5,0.6c-0.2,0.2-0.4,0.2-0.6,0.2c-0.3,0-0.5,0-0.6-0.1l0.2-0.8c0.1,0,0.2,0.1,0.3,0.1c0.2,0,0.4-0.1,0.6-0.3
			c0.2-0.2,0.3-0.6,0.5-1.1l-2.2-5.5h1L434.5,117.5z"/>
		<path class="st10" d="M438,113.9h0.6l0.2,0.7h0c0.2-0.3,0.4-0.5,0.7-0.6s0.6-0.2,0.9-0.2c0.7,0,1.3,0.2,1.6,0.6
			c0.4,0.4,0.5,1.1,0.5,2.1c0,0.5-0.1,0.9-0.2,1.2s-0.3,0.7-0.5,0.9s-0.5,0.5-0.8,0.6c-0.3,0.1-0.7,0.2-1,0.2c-0.3,0-0.5,0-0.6,0
			c-0.2,0-0.3-0.1-0.5-0.2v2.3H438V113.9z M440.2,114.5c-0.4,0-0.7,0.1-0.9,0.3c-0.2,0.2-0.4,0.5-0.5,0.9v2.7
			c0.1,0.1,0.3,0.2,0.5,0.2c0.2,0.1,0.4,0.1,0.7,0.1c0.5,0,0.9-0.2,1.2-0.6c0.3-0.4,0.4-0.9,0.4-1.7c0-0.3,0-0.6-0.1-0.8
			c-0.1-0.2-0.1-0.5-0.2-0.6c-0.1-0.2-0.3-0.3-0.4-0.4C440.7,114.6,440.5,114.5,440.2,114.5z"/>
	</g>
	<g class="st15">
		<path class="st10" d="M443.2,113.9h0.9v-1.1l0.9-0.3v1.3h1.5v0.8H445v3c0,0.4,0,0.7,0.1,0.8c0.1,0.2,0.3,0.2,0.5,0.2
			c0.2,0,0.4,0,0.5-0.1s0.3-0.1,0.4-0.2l0.2,0.7c-0.2,0.1-0.4,0.2-0.6,0.2c-0.2,0.1-0.5,0.1-0.8,0.1c-0.4,0-0.8-0.1-0.9-0.4
			c-0.2-0.3-0.3-0.7-0.3-1.3v-3.2h-0.9V113.9z"/>
	</g>
	<g class="st15">
		<path class="st10" d="M451.6,119c-0.2,0.2-0.5,0.3-0.8,0.4c-0.3,0.1-0.7,0.2-1.1,0.2c-0.4,0-0.8-0.1-1.1-0.2
			c-0.3-0.1-0.6-0.3-0.8-0.6c-0.2-0.3-0.3-0.6-0.4-0.9c-0.1-0.4-0.1-0.7-0.1-1.2c0-0.9,0.2-1.7,0.6-2.1s1-0.7,1.8-0.7
			c0.2,0,0.5,0,0.7,0.1c0.2,0.1,0.5,0.2,0.7,0.3c0.2,0.2,0.4,0.4,0.5,0.7s0.2,0.7,0.2,1.1c0,0.2,0,0.5-0.1,0.8h-3.5
			c0,0.3,0,0.6,0.1,0.9s0.2,0.5,0.3,0.6c0.1,0.2,0.3,0.3,0.5,0.4c0.2,0.1,0.5,0.1,0.8,0.1c0.2,0,0.5,0,0.7-0.1
			c0.2-0.1,0.4-0.2,0.6-0.3L451.6,119z M449.7,114.5c-0.4,0-0.8,0.1-1,0.3c-0.3,0.2-0.4,0.6-0.5,1.2h2.7c0-0.6-0.1-0.9-0.3-1.2
			S450.1,114.5,449.7,114.5z"/>
		<path class="st10" d="M457.4,117.5c0,0.4,0,0.7,0,1c0,0.3,0,0.6,0.1,0.9h-0.6l-0.2-0.8h0c-0.1,0.3-0.4,0.5-0.6,0.6s-0.6,0.3-1,0.3
			c-0.7,0-1.3-0.2-1.6-0.7c-0.4-0.5-0.5-1.2-0.5-2.2c0-0.9,0.2-1.7,0.7-2.1c0.4-0.5,1.1-0.7,1.8-0.7c0.3,0,0.5,0,0.6,0
			c0.2,0,0.3,0.1,0.5,0.1v-2.3h0.9V117.5z M455.2,118.8c0.4,0,0.7-0.1,0.9-0.3c0.2-0.2,0.4-0.5,0.5-0.9v-2.7
			c-0.1-0.1-0.3-0.2-0.5-0.2c-0.2,0-0.4-0.1-0.7-0.1c-0.5,0-0.9,0.2-1.2,0.5c-0.3,0.3-0.4,0.9-0.4,1.6c0,0.3,0,0.6,0.1,0.8
			c0,0.3,0.1,0.5,0.2,0.7c0.1,0.2,0.3,0.3,0.4,0.4C454.7,118.7,454.9,118.8,455.2,118.8z"/>
		<path class="st10" d="M466.2,117.5c0,0.4,0,0.7,0,1c0,0.3,0,0.6,0.1,0.9h-0.6l-0.2-0.8h0c-0.1,0.3-0.4,0.5-0.6,0.6
			c-0.3,0.2-0.6,0.3-1,0.3c-0.7,0-1.3-0.2-1.6-0.7c-0.4-0.5-0.5-1.2-0.5-2.2c0-0.9,0.2-1.7,0.7-2.1c0.4-0.5,1.1-0.7,1.8-0.7
			c0.3,0,0.5,0,0.6,0c0.2,0,0.3,0.1,0.5,0.1v-2.3h0.9V117.5z M464,118.8c0.4,0,0.7-0.1,0.9-0.3s0.4-0.5,0.5-0.9v-2.7
			c-0.1-0.1-0.3-0.2-0.5-0.2s-0.4-0.1-0.7-0.1c-0.5,0-0.9,0.2-1.2,0.5c-0.3,0.3-0.4,0.9-0.4,1.6c0,0.3,0,0.6,0.1,0.8
			s0.1,0.5,0.2,0.7c0.1,0.2,0.3,0.3,0.4,0.4C463.5,118.7,463.8,118.8,464,118.8z"/>
		<path class="st10" d="M467.8,114.3c0.3-0.2,0.6-0.3,1-0.4s0.8-0.1,1.2-0.1c0.4,0,0.7,0.1,0.9,0.2s0.4,0.2,0.5,0.4s0.2,0.3,0.2,0.5
			c0,0.2,0.1,0.4,0.1,0.6c0,0.4,0,0.9,0,1.3c0,0.4,0,0.8,0,1.2c0,0.3,0,0.5,0,0.8c0,0.2,0.1,0.5,0.1,0.7h-0.6l-0.2-0.8h-0.1
			c-0.1,0.1-0.1,0.2-0.2,0.3c-0.1,0.1-0.2,0.2-0.4,0.3c-0.1,0.1-0.3,0.1-0.5,0.2c-0.2,0.1-0.4,0.1-0.6,0.1s-0.5,0-0.7-0.1
			c-0.2-0.1-0.4-0.2-0.5-0.3c-0.1-0.1-0.3-0.3-0.3-0.5c-0.1-0.2-0.1-0.4-0.1-0.6c0-0.3,0.1-0.6,0.2-0.8c0.1-0.2,0.3-0.4,0.6-0.5
			c0.2-0.1,0.5-0.2,0.9-0.3c0.3-0.1,0.7-0.1,1.1-0.1c0.1,0,0.2,0,0.3,0c0.1,0,0.2,0,0.3,0c0-0.2,0-0.4,0-0.6c0-0.4-0.1-0.7-0.2-0.8
			c-0.2-0.2-0.5-0.2-0.9-0.2c-0.1,0-0.3,0-0.4,0c-0.1,0-0.3,0-0.4,0.1c-0.2,0-0.3,0.1-0.4,0.1s-0.3,0.1-0.4,0.2L467.8,114.3z
			 M469.4,118.7c0.2,0,0.4,0,0.5-0.1s0.3-0.1,0.4-0.2c0.1-0.1,0.2-0.2,0.3-0.3c0.1-0.1,0.1-0.2,0.2-0.3v-0.9c-0.1,0-0.2,0-0.3,0
			s-0.2,0-0.3,0c-0.2,0-0.4,0-0.7,0c-0.2,0-0.4,0.1-0.6,0.1c-0.2,0.1-0.3,0.2-0.4,0.3c-0.1,0.1-0.1,0.3-0.1,0.5
			c0,0.3,0.1,0.5,0.3,0.6C468.9,118.6,469.1,118.7,469.4,118.7z"/>
		<path class="st10" d="M472.7,113.9h0.9v-1.1l0.9-0.3v1.3h1.5v0.8h-1.5v3c0,0.4,0,0.7,0.1,0.8c0.1,0.2,0.3,0.2,0.5,0.2
			c0.2,0,0.4,0,0.5-0.1c0.1,0,0.3-0.1,0.4-0.2l0.2,0.7c-0.2,0.1-0.4,0.2-0.6,0.2s-0.5,0.1-0.8,0.1c-0.4,0-0.8-0.1-0.9-0.4
			c-0.2-0.3-0.3-0.7-0.3-1.3v-3.2h-0.9V113.9z"/>
		<path class="st10" d="M477,114.3c0.3-0.2,0.6-0.3,1-0.4s0.8-0.1,1.2-0.1c0.4,0,0.7,0.1,0.9,0.2s0.4,0.2,0.5,0.4s0.2,0.3,0.2,0.5
			c0,0.2,0.1,0.4,0.1,0.6c0,0.4,0,0.9,0,1.3c0,0.4,0,0.8,0,1.2c0,0.3,0,0.5,0,0.8c0,0.2,0.1,0.5,0.1,0.7h-0.6l-0.2-0.8h-0.1
			c-0.1,0.1-0.1,0.2-0.2,0.3c-0.1,0.1-0.2,0.2-0.4,0.3c-0.1,0.1-0.3,0.1-0.5,0.2c-0.2,0.1-0.4,0.1-0.6,0.1c-0.2,0-0.5,0-0.7-0.1
			c-0.2-0.1-0.4-0.2-0.5-0.3c-0.1-0.1-0.3-0.3-0.3-0.5c-0.1-0.2-0.1-0.4-0.1-0.6c0-0.3,0.1-0.6,0.2-0.8c0.1-0.2,0.3-0.4,0.6-0.5
			c0.2-0.1,0.5-0.2,0.9-0.3c0.3-0.1,0.7-0.1,1.1-0.1c0.1,0,0.2,0,0.3,0c0.1,0,0.2,0,0.3,0c0-0.2,0-0.4,0-0.6c0-0.4-0.1-0.7-0.2-0.8
			s-0.5-0.2-0.9-0.2c-0.1,0-0.3,0-0.4,0c-0.1,0-0.3,0-0.4,0.1c-0.2,0-0.3,0.1-0.4,0.1s-0.3,0.1-0.4,0.2L477,114.3z M478.6,118.7
			c0.2,0,0.4,0,0.6-0.1c0.2-0.1,0.3-0.1,0.4-0.2c0.1-0.1,0.2-0.2,0.3-0.3c0.1-0.1,0.1-0.2,0.2-0.3v-0.9c-0.1,0-0.2,0-0.3,0
			s-0.2,0-0.3,0c-0.2,0-0.4,0-0.7,0c-0.2,0-0.4,0.1-0.6,0.1c-0.2,0.1-0.3,0.2-0.4,0.3c-0.1,0.1-0.1,0.3-0.1,0.5
			c0,0.3,0.1,0.5,0.3,0.6S478.3,118.7,478.6,118.7z"/>
	</g>
	<g class="st15">
		<path class="st10" d="M416.6,227.7c-0.2,0.2-0.5,0.3-0.8,0.4c-0.3,0.1-0.7,0.2-1.1,0.2c-0.4,0-0.8-0.1-1.1-0.2s-0.6-0.3-0.8-0.6
			c-0.2-0.3-0.3-0.6-0.4-0.9c-0.1-0.4-0.1-0.7-0.1-1.2c0-0.9,0.2-1.7,0.6-2.1s1-0.7,1.8-0.7c0.2,0,0.5,0,0.7,0.1
			c0.2,0.1,0.5,0.2,0.7,0.3c0.2,0.2,0.4,0.4,0.5,0.7c0.1,0.3,0.2,0.7,0.2,1.1c0,0.2,0,0.5-0.1,0.8h-3.5c0,0.3,0,0.6,0.1,0.9
			s0.2,0.5,0.3,0.6c0.1,0.2,0.3,0.3,0.5,0.4s0.5,0.1,0.8,0.1c0.2,0,0.5,0,0.7-0.1c0.2-0.1,0.4-0.2,0.6-0.3L416.6,227.7z
			 M414.7,223.2c-0.4,0-0.8,0.1-1,0.3c-0.3,0.2-0.4,0.6-0.5,1.2h2.7c0-0.6-0.1-0.9-0.3-1.2C415.4,223.4,415.1,223.2,414.7,223.2z"/>
		<path class="st10" d="M421.7,228.1V225c0-0.6-0.1-1-0.2-1.3c-0.2-0.3-0.5-0.4-0.9-0.4c-0.4,0-0.7,0.1-1,0.3
			c-0.3,0.2-0.4,0.5-0.5,0.8v3.8h-0.9v-5.5h0.6l0.2,0.7h0c0.2-0.2,0.4-0.4,0.7-0.6c0.3-0.2,0.7-0.2,1.1-0.2c0.3,0,0.6,0,0.8,0.1
			c0.2,0.1,0.4,0.2,0.6,0.4s0.3,0.4,0.3,0.7s0.1,0.7,0.1,1.1v3.3H421.7z"/>
		<path class="st10" d="M427.9,227.7c-0.2,0.2-0.5,0.3-0.8,0.4c-0.3,0.1-0.6,0.1-0.9,0.1c-0.4,0-0.8-0.1-1.1-0.2
			c-0.3-0.1-0.5-0.3-0.7-0.6c-0.2-0.3-0.3-0.6-0.4-0.9c-0.1-0.4-0.1-0.8-0.1-1.2c0-0.9,0.2-1.6,0.6-2.1c0.4-0.5,1-0.7,1.8-0.7
			c0.4,0,0.7,0,0.9,0.1c0.2,0.1,0.5,0.1,0.7,0.2l-0.3,0.8c-0.2-0.1-0.4-0.2-0.6-0.2c-0.2-0.1-0.4-0.1-0.7-0.1c-1,0-1.6,0.7-1.6,2.1
			c0,0.3,0,0.5,0.1,0.8c0.1,0.3,0.1,0.5,0.3,0.7s0.3,0.3,0.5,0.5c0.2,0.1,0.5,0.2,0.8,0.2c0.3,0,0.5,0,0.7-0.1s0.4-0.2,0.5-0.3
			L427.9,227.7z"/>
		<path class="st10" d="M431.7,223.5c-0.2-0.1-0.4-0.1-0.6-0.1c-0.3,0-0.6,0.1-0.7,0.3c-0.2,0.2-0.3,0.4-0.3,0.7v3.8h-0.9v-5.5h0.6
			l0.2,0.7h0c0.1-0.2,0.3-0.4,0.5-0.6s0.4-0.2,0.7-0.2c0.2,0,0.5,0,0.7,0.1L431.7,223.5z"/>
		<path class="st10" d="M434.5,226.2l0.3,1.1h0.1l0.2-1.1l1.1-3.6h0.9l-1.6,4.9c-0.1,0.4-0.2,0.7-0.4,1c-0.1,0.3-0.3,0.6-0.4,0.9
			c-0.1,0.3-0.3,0.5-0.5,0.6c-0.2,0.2-0.4,0.2-0.6,0.2c-0.3,0-0.5,0-0.6-0.1l0.2-0.8c0.1,0,0.2,0.1,0.3,0.1c0.2,0,0.4-0.1,0.6-0.3
			c0.2-0.2,0.3-0.6,0.5-1.1l-2.2-5.5h1L434.5,226.2z"/>
		<path class="st10" d="M438,222.6h0.6l0.2,0.7h0c0.2-0.3,0.4-0.5,0.7-0.6s0.6-0.2,0.9-0.2c0.7,0,1.3,0.2,1.6,0.6
			c0.4,0.4,0.5,1.1,0.5,2.1c0,0.5-0.1,0.9-0.2,1.2s-0.3,0.7-0.5,0.9s-0.5,0.5-0.8,0.6c-0.3,0.1-0.7,0.2-1,0.2c-0.3,0-0.5,0-0.6,0
			c-0.2,0-0.3-0.1-0.5-0.2v2.3H438V222.6z M440.2,223.2c-0.4,0-0.7,0.1-0.9,0.3c-0.2,0.2-0.4,0.5-0.5,0.9v2.7
			c0.1,0.1,0.3,0.2,0.5,0.2c0.2,0.1,0.4,0.1,0.7,0.1c0.5,0,0.9-0.2,1.2-0.6c0.3-0.4,0.4-0.9,0.4-1.7c0-0.3,0-0.6-0.1-0.8
			c-0.1-0.2-0.1-0.5-0.2-0.6c-0.1-0.2-0.3-0.3-0.4-0.4C440.7,223.3,440.5,223.2,440.2,223.2z"/>
	</g>
	<g class="st15">
		<path class="st10" d="M443.2,222.6h0.9v-1.1l0.9-0.3v1.3h1.5v0.8H445v3c0,0.4,0,0.7,0.1,0.8c0.1,0.2,0.3,0.2,0.5,0.2
			c0.2,0,0.4,0,0.5-0.1s0.3-0.1,0.4-0.2l0.2,0.7c-0.2,0.1-0.4,0.2-0.6,0.2c-0.2,0.1-0.5,0.1-0.8,0.1c-0.4,0-0.8-0.1-0.9-0.4
			c-0.2-0.3-0.3-0.7-0.3-1.3v-3.2h-0.9V222.6z"/>
	</g>
	<g class="st15">
		<path class="st10" d="M451.6,227.7c-0.2,0.2-0.5,0.3-0.8,0.4c-0.3,0.1-0.7,0.2-1.1,0.2c-0.4,0-0.8-0.1-1.1-0.2
			c-0.3-0.1-0.6-0.3-0.8-0.6c-0.2-0.3-0.3-0.6-0.4-0.9c-0.1-0.4-0.1-0.7-0.1-1.2c0-0.9,0.2-1.7,0.6-2.1s1-0.7,1.8-0.7
			c0.2,0,0.5,0,0.7,0.1c0.2,0.1,0.5,0.2,0.7,0.3c0.2,0.2,0.4,0.4,0.5,0.7s0.2,0.7,0.2,1.1c0,0.2,0,0.5-0.1,0.8h-3.5
			c0,0.3,0,0.6,0.1,0.9s0.2,0.5,0.3,0.6c0.1,0.2,0.3,0.3,0.5,0.4c0.2,0.1,0.5,0.1,0.8,0.1c0.2,0,0.5,0,0.7-0.1
			c0.2-0.1,0.4-0.2,0.6-0.3L451.6,227.7z M449.7,223.2c-0.4,0-0.8,0.1-1,0.3c-0.3,0.2-0.4,0.6-0.5,1.2h2.7c0-0.6-0.1-0.9-0.3-1.2
			S450.1,223.2,449.7,223.2z"/>
		<path class="st10" d="M457.4,226.2c0,0.4,0,0.7,0,1c0,0.3,0,0.6,0.1,0.9h-0.6l-0.2-0.8h0c-0.1,0.3-0.4,0.5-0.6,0.6s-0.6,0.3-1,0.3
			c-0.7,0-1.3-0.2-1.6-0.7c-0.4-0.5-0.5-1.2-0.5-2.2c0-0.9,0.2-1.7,0.7-2.1c0.4-0.5,1.1-0.7,1.8-0.7c0.3,0,0.5,0,0.6,0
			c0.2,0,0.3,0.1,0.5,0.1v-2.3h0.9V226.2z M455.2,227.5c0.4,0,0.7-0.1,0.9-0.3c0.2-0.2,0.4-0.5,0.5-0.9v-2.7
			c-0.1-0.1-0.3-0.2-0.5-0.2c-0.2,0-0.4-0.1-0.7-0.1c-0.5,0-0.9,0.2-1.2,0.5c-0.3,0.3-0.4,0.9-0.4,1.6c0,0.3,0,0.6,0.1,0.8
			c0,0.3,0.1,0.5,0.2,0.7c0.1,0.2,0.3,0.3,0.4,0.4C454.7,227.4,454.9,227.5,455.2,227.5z"/>
		<path class="st10" d="M462,222.6h0.6l0.2,0.7h0c0.2-0.3,0.4-0.5,0.7-0.6s0.6-0.2,0.9-0.2c0.7,0,1.3,0.2,1.6,0.6
			c0.4,0.4,0.5,1.1,0.5,2.1c0,0.5-0.1,0.9-0.2,1.2s-0.3,0.7-0.5,0.9c-0.2,0.3-0.5,0.5-0.8,0.6c-0.3,0.1-0.7,0.2-1,0.2
			c-0.3,0-0.5,0-0.6,0c-0.2,0-0.3-0.1-0.5-0.2v2.3H462V222.6z M464.2,223.2c-0.4,0-0.7,0.1-0.9,0.3s-0.4,0.5-0.5,0.9v2.7
			c0.1,0.1,0.3,0.2,0.5,0.2c0.2,0.1,0.4,0.1,0.7,0.1c0.5,0,0.9-0.2,1.2-0.6c0.3-0.4,0.4-0.9,0.4-1.7c0-0.3,0-0.6-0.1-0.8
			s-0.1-0.5-0.2-0.6c-0.1-0.2-0.3-0.3-0.4-0.4C464.7,223.3,464.5,223.2,464.2,223.2z"/>
		<path class="st10" d="M470.6,223.5c-0.2-0.1-0.4-0.1-0.6-0.1c-0.3,0-0.6,0.1-0.7,0.3c-0.2,0.2-0.3,0.4-0.3,0.7v3.8H468v-5.5h0.6
			l0.2,0.7h0c0.1-0.2,0.3-0.4,0.5-0.6s0.4-0.2,0.7-0.2c0.2,0,0.5,0,0.7,0.1L470.6,223.5z"/>
		<path class="st10" d="M471.4,225.4c0-0.9,0.2-1.6,0.6-2.1c0.4-0.5,1-0.7,1.8-0.7c0.4,0,0.8,0.1,1.1,0.2c0.3,0.1,0.6,0.3,0.8,0.6
			s0.3,0.6,0.4,0.9c0.1,0.4,0.1,0.8,0.1,1.2c0,0.9-0.2,1.6-0.6,2.1s-1,0.7-1.8,0.7c-0.4,0-0.8-0.1-1.1-0.2s-0.6-0.3-0.8-0.6
			c-0.2-0.3-0.3-0.6-0.4-0.9C471.5,226.2,471.4,225.8,471.4,225.4z M472.3,225.4c0,0.3,0,0.5,0.1,0.8c0.1,0.3,0.1,0.5,0.3,0.7
			c0.1,0.2,0.3,0.3,0.5,0.5c0.2,0.1,0.4,0.2,0.7,0.2c1,0,1.5-0.7,1.5-2.1c0-0.3,0-0.6-0.1-0.8c-0.1-0.3-0.1-0.5-0.3-0.7
			c-0.1-0.2-0.3-0.3-0.5-0.5s-0.4-0.2-0.7-0.2C472.8,223.2,472.3,223.9,472.3,225.4z"/>
	</g>
	<g class="st15">
		<path class="st10" d="M481.4,227.7c-0.2,0.2-0.5,0.3-0.8,0.4c-0.3,0.1-0.6,0.1-0.9,0.1c-0.4,0-0.8-0.1-1.1-0.2
			c-0.3-0.1-0.5-0.3-0.7-0.6c-0.2-0.3-0.3-0.6-0.4-0.9c-0.1-0.4-0.1-0.8-0.1-1.2c0-0.9,0.2-1.6,0.6-2.1c0.4-0.5,1-0.7,1.8-0.7
			c0.4,0,0.7,0,0.9,0.1c0.2,0.1,0.5,0.1,0.7,0.2l-0.3,0.8c-0.2-0.1-0.4-0.2-0.6-0.2c-0.2-0.1-0.4-0.1-0.7-0.1c-1,0-1.6,0.7-1.6,2.1
			c0,0.3,0,0.5,0.1,0.8c0.1,0.3,0.1,0.5,0.3,0.7s0.3,0.3,0.5,0.5c0.2,0.1,0.5,0.2,0.8,0.2c0.3,0,0.5,0,0.7-0.1s0.4-0.2,0.5-0.3
			L481.4,227.7z"/>
	</g>
	<g class="st15">
		<path class="st10" d="M486.3,227.7c-0.2,0.2-0.5,0.3-0.8,0.4c-0.3,0.1-0.7,0.2-1.1,0.2c-0.4,0-0.8-0.1-1.1-0.2
			c-0.3-0.1-0.6-0.3-0.8-0.6s-0.3-0.6-0.4-0.9c-0.1-0.4-0.1-0.7-0.1-1.2c0-0.9,0.2-1.7,0.6-2.1s1-0.7,1.8-0.7c0.2,0,0.5,0,0.7,0.1
			c0.2,0.1,0.5,0.2,0.7,0.3c0.2,0.2,0.4,0.4,0.5,0.7s0.2,0.7,0.2,1.1c0,0.2,0,0.5-0.1,0.8h-3.5c0,0.3,0,0.6,0.1,0.9
			c0.1,0.2,0.2,0.5,0.3,0.6c0.1,0.2,0.3,0.3,0.5,0.4s0.5,0.1,0.8,0.1c0.2,0,0.5,0,0.7-0.1c0.2-0.1,0.4-0.2,0.6-0.3L486.3,227.7z
			 M484.4,223.2c-0.4,0-0.8,0.1-1,0.3c-0.3,0.2-0.4,0.6-0.5,1.2h2.7c0-0.6-0.1-0.9-0.3-1.2S484.8,223.2,484.4,223.2z"/>
		<path class="st10" d="M490.3,226.6c0-0.2-0.1-0.4-0.2-0.5c-0.1-0.1-0.3-0.2-0.5-0.3c-0.2-0.1-0.4-0.2-0.6-0.2
			c-0.2-0.1-0.4-0.2-0.6-0.3s-0.4-0.3-0.5-0.5s-0.2-0.4-0.2-0.8c0-0.5,0.2-0.9,0.5-1.2c0.3-0.2,0.7-0.4,1.3-0.4c0.4,0,0.7,0,1,0.1
			s0.5,0.2,0.7,0.2l-0.2,0.7c-0.2-0.1-0.4-0.2-0.6-0.2s-0.5-0.1-0.8-0.1c-0.3,0-0.6,0.1-0.7,0.2c-0.2,0.1-0.2,0.3-0.2,0.6
			c0,0.2,0.1,0.3,0.2,0.4s0.3,0.2,0.5,0.3s0.4,0.2,0.6,0.2c0.2,0.1,0.4,0.2,0.6,0.3s0.4,0.3,0.5,0.5c0.1,0.2,0.2,0.5,0.2,0.8
			c0,0.2,0,0.5-0.1,0.7c-0.1,0.2-0.2,0.4-0.4,0.5c-0.2,0.1-0.4,0.3-0.6,0.3c-0.2,0.1-0.5,0.1-0.8,0.1c-0.4,0-0.8,0-1.1-0.1
			c-0.3-0.1-0.5-0.2-0.7-0.3l0.3-0.7c0.2,0.1,0.4,0.2,0.7,0.3c0.3,0.1,0.5,0.1,0.8,0.1c0.3,0,0.6-0.1,0.8-0.2
			C490.2,227.2,490.3,226.9,490.3,226.6z"/>
		<path class="st10" d="M495,226.6c0-0.2-0.1-0.4-0.2-0.5c-0.1-0.1-0.3-0.2-0.5-0.3c-0.2-0.1-0.4-0.2-0.6-0.2
			c-0.2-0.1-0.4-0.2-0.6-0.3s-0.4-0.3-0.5-0.5s-0.2-0.4-0.2-0.8c0-0.5,0.2-0.9,0.5-1.2c0.3-0.2,0.7-0.4,1.3-0.4c0.4,0,0.7,0,1,0.1
			s0.5,0.2,0.7,0.2l-0.2,0.7c-0.2-0.1-0.4-0.2-0.6-0.2s-0.5-0.1-0.8-0.1c-0.3,0-0.6,0.1-0.7,0.2c-0.2,0.1-0.2,0.3-0.2,0.6
			c0,0.2,0.1,0.3,0.2,0.4s0.3,0.2,0.5,0.3s0.4,0.2,0.6,0.2c0.2,0.1,0.4,0.2,0.6,0.3s0.4,0.3,0.5,0.5c0.1,0.2,0.2,0.5,0.2,0.8
			c0,0.2,0,0.5-0.1,0.7c-0.1,0.2-0.2,0.4-0.4,0.5c-0.2,0.1-0.4,0.3-0.6,0.3c-0.2,0.1-0.5,0.1-0.8,0.1c-0.4,0-0.8,0-1.1-0.1
			c-0.3-0.1-0.5-0.2-0.7-0.3l0.3-0.7c0.2,0.1,0.4,0.2,0.7,0.3c0.3,0.1,0.5,0.1,0.8,0.1c0.3,0,0.6-0.1,0.8-0.2
			C494.9,227.2,495,226.9,495,226.6z"/>
		<path class="st10" d="M497.2,220.9c0-0.2,0.1-0.3,0.2-0.4c0.1-0.1,0.3-0.2,0.4-0.2s0.3,0.1,0.5,0.2s0.2,0.3,0.2,0.4
			s-0.1,0.3-0.2,0.4s-0.3,0.2-0.5,0.2s-0.3-0.1-0.4-0.2C497.2,221.2,497.2,221.1,497.2,220.9z M497.4,222.6h0.9v5.5h-0.9V222.6z"/>
		<path class="st10" d="M503.6,228.1V225c0-0.6-0.1-1-0.2-1.3c-0.2-0.3-0.5-0.4-0.9-0.4c-0.4,0-0.7,0.1-1,0.3s-0.4,0.5-0.5,0.8v3.8
			h-0.9v-5.5h0.6l0.2,0.7h0c0.2-0.2,0.4-0.4,0.7-0.6s0.7-0.2,1.1-0.2c0.3,0,0.6,0,0.8,0.1s0.4,0.2,0.6,0.4s0.3,0.4,0.3,0.7
			s0.1,0.7,0.1,1.1v3.3H503.6z"/>
		<path class="st10" d="M510.3,228.4c0,0.7-0.2,1.2-0.6,1.6c-0.4,0.3-0.9,0.5-1.7,0.5c-0.4,0-0.8,0-1.1-0.1
			c-0.3-0.1-0.5-0.1-0.7-0.2l0.2-0.7c0.2,0.1,0.4,0.1,0.6,0.2s0.5,0.1,0.8,0.1c0.3,0,0.6,0,0.8-0.1s0.3-0.1,0.5-0.3
			c0.1-0.1,0.2-0.3,0.2-0.5c0-0.2,0.1-0.4,0.1-0.7v-0.5h0c-0.1,0.2-0.3,0.4-0.6,0.5c-0.2,0.1-0.5,0.2-0.9,0.2
			c-0.7,0-1.3-0.2-1.6-0.7s-0.5-1.2-0.5-2.2c0-0.9,0.2-1.7,0.7-2.1c0.4-0.5,1.1-0.7,2-0.7c0.4,0,0.8,0,1.1,0.1s0.6,0.1,0.8,0.2
			V228.4z M508.1,227.5c0.4,0,0.7-0.1,0.9-0.3c0.2-0.2,0.4-0.5,0.5-0.9v-2.8c-0.3-0.1-0.7-0.2-1.1-0.2c-0.5,0-0.9,0.2-1.2,0.5
			c-0.3,0.3-0.4,0.9-0.4,1.6c0,0.3,0,0.6,0.1,0.8c0.1,0.3,0.1,0.5,0.2,0.7c0.1,0.2,0.3,0.3,0.4,0.4S507.9,227.5,508.1,227.5z"/>
	</g>
</g>
</svg>
