<?xml version="1.0" encoding="utf-8"?>
<!-- Generator: Adobe Illustrator 24.0.0, SVG Export Plug-In . SVG Version: 6.00 Build 0)  -->
<svg version="1.1" id="Ebene_1" xmlns="http://www.w3.org/2000/svg" xmlns:xlink="http://www.w3.org/1999/xlink" x="0px" y="0px"
	 viewBox="0 0 536.2 382.9" style="enable-background:new 0 0 536.2 382.9;" xml:space="preserve">
<style type="text/css">
	.st0{enable-background:new    ;}
	.st1{fill:#330066;}
	.st2{fill:#FFFFFF;stroke:#FFCC00;stroke-width:2;stroke-miterlimit:10;}
	.st3{fill:url(#SVGID_1_);stroke:#FFCC00;stroke-width:2;stroke-miterlimit:10;}
	.st4{fill:#FFFFFF;stroke:#FFCC00;stroke-width:2;stroke-linecap:round;stroke-linejoin:round;}
	.st5{fill:none;stroke:#FFCC00;stroke-width:2;stroke-linecap:round;stroke-linejoin:round;}
	.st6{fill:#FFCC00;}
	.st7{clip-path:url(#SVGID_3_);}
	.st8{clip-path:url(#SVGID_5_);}
	.st9{fill:#FFD138;}
	.st10{fill:#FDFEFF;}
	.st11{fill:none;stroke:#FFCC00;stroke-width:2;stroke-miterlimit:10;}
	.st12{fill:#FFFFFF;stroke:#330066;stroke-width:2;stroke-linecap:round;stroke-linejoin:round;}
	
		.st13{opacity:0.8;fill:#FFFFFF;stroke:#330066;stroke-width:2;stroke-linecap:round;stroke-linejoin:round;enable-background:new    ;}
	
		.st14{opacity:0.6;fill:#FFFFFF;stroke:#330066;stroke-width:2;stroke-linecap:round;stroke-linejoin:round;enable-background:new    ;}
	.st15{fill:none;stroke:#CC3300;stroke-width:2;stroke-miterlimit:10;stroke-dasharray:2,2;}
	.st16{fill:#CC3300;}
	.st17{fill:#FFFFFF;stroke:#CC3300;stroke-width:2;stroke-miterlimit:10;}
	.st18{fill:none;stroke:#CC3300;stroke-width:2;stroke-miterlimit:10;}
	.st19{fill:#FFFFFF;}
	.st20{fill:none;stroke:#330066;stroke-linejoin:round;}
	.st21{fill:none;stroke:#330066;stroke-linecap:round;stroke-linejoin:round;}
</style>
<g id="Ebene_2_1_">
	<g class="st0">
		<path class="st1" d="M224.7,24.2c0-0.3-0.1-0.6-0.3-0.8c-0.2-0.2-0.5-0.4-0.8-0.6c-0.3-0.2-0.6-0.3-1-0.5c-0.4-0.1-0.7-0.3-1-0.5
			c-0.3-0.2-0.6-0.5-0.8-0.8c-0.2-0.3-0.3-0.7-0.3-1.1c0-0.7,0.2-1.2,0.7-1.6s1.1-0.6,1.9-0.6c0.5,0,0.9,0,1.3,0.1
			c0.4,0.1,0.7,0.2,0.9,0.3l-0.3,0.9c-0.2-0.1-0.5-0.2-0.8-0.3c-0.4-0.1-0.8-0.1-1.2-0.1c-0.5,0-0.9,0.1-1.2,0.4
			c-0.3,0.2-0.4,0.5-0.4,0.8c0,0.3,0.1,0.6,0.3,0.8c0.2,0.2,0.5,0.4,0.8,0.6c0.3,0.2,0.6,0.3,1,0.5s0.7,0.3,1,0.6
			c0.3,0.2,0.6,0.5,0.8,0.8c0.2,0.3,0.3,0.7,0.3,1.1c0,0.4-0.1,0.7-0.2,1c-0.1,0.3-0.3,0.5-0.6,0.7s-0.5,0.4-0.9,0.5
			c-0.4,0.1-0.8,0.2-1.2,0.2c-0.6,0-1.1,0-1.5-0.1s-0.7-0.2-0.9-0.3l0.3-0.9c0.2,0.1,0.5,0.2,0.8,0.3c0.4,0.1,0.8,0.1,1.2,0.1
			c0.3,0,0.5,0,0.7-0.1c0.2-0.1,0.4-0.1,0.6-0.3c0.2-0.1,0.3-0.3,0.4-0.4C224.7,24.7,224.7,24.5,224.7,24.2z"/>
		<path class="st1" d="M230.1,22.2h2.8v3.7c-0.1,0.1-0.3,0.2-0.5,0.3s-0.4,0.1-0.6,0.2c-0.2,0.1-0.4,0.1-0.6,0.1c-0.2,0-0.4,0-0.6,0
			c-0.5,0-1-0.1-1.5-0.3s-0.8-0.4-1.2-0.8c-0.3-0.4-0.6-0.8-0.8-1.4c-0.2-0.5-0.3-1.2-0.3-1.9c0-0.8,0.1-1.4,0.3-2
			c0.2-0.6,0.5-1,0.9-1.3c0.4-0.3,0.8-0.6,1.2-0.8c0.4-0.2,0.9-0.2,1.3-0.2c0.5,0,0.9,0,1.2,0.1s0.6,0.1,0.8,0.2l-0.3,0.9
			c-0.4-0.2-0.9-0.3-1.6-0.3c-0.3,0-0.7,0.1-1,0.2c-0.3,0.1-0.6,0.3-0.9,0.6c-0.3,0.3-0.5,0.6-0.6,1.1c-0.2,0.4-0.3,1-0.3,1.6
			c0,0.6,0.1,1.1,0.2,1.5c0.1,0.4,0.3,0.8,0.6,1.1c0.2,0.3,0.5,0.5,0.9,0.6c0.3,0.1,0.7,0.2,1.1,0.2c0.5,0,0.9-0.1,1.3-0.3V23
			l-2-0.2V22.2z"/>
	</g>
	<g class="st0">
		<path class="st1" d="M236.7,22.1l-2.6-4.1h1.2l1.7,2.8l0.3,0.7l0.3-0.7l1.8-2.8h1.1l-2.6,4l2.8,4.4h-1.2l-1.9-3l-0.3-0.7l-0.3,0.7
			l-1.9,3h-1.1L236.7,22.1z"/>
	</g>
	<g class="st0">
		<path class="st1" d="M249.2,25.9c-0.2,0.2-0.5,0.3-0.9,0.5c-0.4,0.1-0.8,0.2-1.2,0.2c-0.5,0-0.9-0.1-1.2-0.2
			c-0.3-0.1-0.6-0.4-0.8-0.6c-0.2-0.3-0.4-0.6-0.5-1c-0.1-0.4-0.2-0.8-0.2-1.3c0-1,0.2-1.8,0.7-2.3s1.1-0.8,2-0.8
			c0.3,0,0.5,0,0.8,0.1c0.3,0.1,0.5,0.2,0.7,0.3c0.2,0.2,0.4,0.4,0.5,0.7c0.1,0.3,0.2,0.7,0.2,1.2c0,0.3,0,0.6-0.1,0.9h-3.9
			c0,0.4,0,0.7,0.1,0.9c0.1,0.3,0.2,0.5,0.3,0.7c0.2,0.2,0.4,0.3,0.6,0.4c0.2,0.1,0.5,0.1,0.9,0.1c0.3,0,0.5,0,0.8-0.1
			s0.5-0.2,0.6-0.3L249.2,25.9z M247.1,21.1c-0.5,0-0.9,0.1-1.1,0.4c-0.3,0.2-0.5,0.7-0.5,1.3h3c0-0.6-0.1-1-0.3-1.3
			C247.9,21.2,247.5,21.1,247.1,21.1z"/>
		<path class="st1" d="M254.7,26.4V23c0-0.6-0.1-1.1-0.3-1.4c-0.2-0.3-0.5-0.5-1-0.5c-0.4,0-0.8,0.1-1.1,0.3
			c-0.3,0.2-0.5,0.5-0.6,0.9v4.1h-1v-6h0.7l0.2,0.7h0c0.2-0.3,0.4-0.5,0.8-0.6c0.3-0.2,0.7-0.2,1.2-0.2c0.3,0,0.6,0,0.9,0.1
			c0.2,0.1,0.5,0.2,0.6,0.4s0.3,0.5,0.4,0.8c0.1,0.3,0.1,0.7,0.1,1.2v3.6H254.7z"/>
		<path class="st1" d="M261.5,26c-0.2,0.2-0.5,0.3-0.9,0.4c-0.3,0.1-0.7,0.1-1,0.1c-0.5,0-0.9-0.1-1.2-0.2c-0.3-0.1-0.6-0.4-0.8-0.6
			c-0.2-0.3-0.4-0.6-0.4-1c-0.1-0.4-0.1-0.8-0.1-1.3c0-1,0.2-1.8,0.7-2.3c0.4-0.5,1.1-0.8,1.9-0.8c0.4,0,0.7,0,1,0.1
			c0.3,0.1,0.5,0.1,0.7,0.3l-0.3,0.8c-0.2-0.1-0.4-0.2-0.6-0.2c-0.2-0.1-0.5-0.1-0.7-0.1c-1.1,0-1.7,0.8-1.7,2.3
			c0,0.3,0,0.6,0.1,0.9s0.2,0.5,0.3,0.7c0.1,0.2,0.3,0.4,0.6,0.5s0.5,0.2,0.8,0.2c0.3,0,0.5,0,0.8-0.1s0.4-0.2,0.6-0.3L261.5,26z"/>
		<path class="st1" d="M263.9,24.9c0,0.3,0,0.5,0.1,0.6c0.1,0.1,0.2,0.2,0.4,0.2c0.1,0,0.2,0,0.3,0c0.1,0,0.3-0.1,0.4-0.1l0.1,0.8
			c-0.1,0.1-0.3,0.1-0.5,0.2s-0.4,0.1-0.6,0.1c-0.4,0-0.7-0.1-0.9-0.3s-0.3-0.5-0.3-1V18h1V24.9z"/>
		<path class="st1" d="M266.3,20.8c0.3-0.2,0.7-0.3,1.1-0.4c0.4-0.1,0.8-0.1,1.3-0.1c0.4,0,0.8,0.1,1,0.2s0.4,0.3,0.6,0.4
			c0.1,0.2,0.2,0.4,0.3,0.6c0,0.2,0.1,0.4,0.1,0.6c0,0.5,0,0.9,0,1.4c0,0.5,0,0.9,0,1.3c0,0.3,0,0.6,0,0.8c0,0.3,0.1,0.5,0.1,0.7
			h-0.7l-0.3-0.8h-0.1c-0.1,0.1-0.2,0.2-0.3,0.3c-0.1,0.1-0.2,0.2-0.4,0.3c-0.2,0.1-0.3,0.2-0.5,0.2c-0.2,0.1-0.4,0.1-0.7,0.1
			c-0.3,0-0.5,0-0.7-0.1c-0.2-0.1-0.4-0.2-0.6-0.3c-0.2-0.1-0.3-0.3-0.4-0.5c-0.1-0.2-0.1-0.4-0.1-0.7c0-0.4,0.1-0.6,0.2-0.9
			c0.1-0.2,0.3-0.4,0.6-0.6c0.3-0.1,0.6-0.2,0.9-0.3c0.4-0.1,0.8-0.1,1.2-0.1c0.1,0,0.2,0,0.3,0c0.1,0,0.2,0,0.3,0
			c0-0.2,0-0.5,0-0.6c0-0.4-0.1-0.7-0.3-0.9s-0.5-0.3-1-0.3c-0.1,0-0.3,0-0.4,0c-0.2,0-0.3,0-0.5,0.1s-0.3,0.1-0.5,0.1
			s-0.3,0.1-0.4,0.2L266.3,20.8z M268,25.6c0.2,0,0.4,0,0.6-0.1c0.2-0.1,0.3-0.1,0.5-0.2c0.1-0.1,0.2-0.2,0.3-0.3
			c0.1-0.1,0.1-0.2,0.2-0.3v-1c-0.1,0-0.2,0-0.3,0s-0.2,0-0.3,0c-0.2,0-0.5,0-0.7,0c-0.2,0-0.4,0.1-0.6,0.2
			c-0.2,0.1-0.3,0.2-0.4,0.3s-0.2,0.3-0.2,0.5c0,0.3,0.1,0.5,0.3,0.7C267.4,25.5,267.7,25.6,268,25.6z"/>
	</g>
	<g class="st0">
		<path class="st1" d="M274,23.9l0.3,1.1h0l0.3-1.2l1.3-3.5h1l-2.6,6.1h-0.4l-2.6-6.1h1.1L274,23.9z"/>
	</g>
	<g class="st0">
		<path class="st1" d="M282.4,25.9c-0.2,0.2-0.5,0.3-0.9,0.5c-0.4,0.1-0.8,0.2-1.2,0.2c-0.5,0-0.9-0.1-1.2-0.2
			c-0.3-0.1-0.6-0.4-0.8-0.6c-0.2-0.3-0.4-0.6-0.5-1s-0.2-0.8-0.2-1.3c0-1,0.2-1.8,0.7-2.3s1.1-0.8,2-0.8c0.3,0,0.5,0,0.8,0.1
			c0.3,0.1,0.5,0.2,0.7,0.3s0.4,0.4,0.5,0.7c0.1,0.3,0.2,0.7,0.2,1.2c0,0.3,0,0.6-0.1,0.9h-3.9c0,0.4,0,0.7,0.1,0.9
			c0.1,0.3,0.2,0.5,0.3,0.7c0.2,0.2,0.3,0.3,0.6,0.4c0.2,0.1,0.5,0.1,0.9,0.1c0.3,0,0.5,0,0.8-0.1c0.3-0.1,0.5-0.2,0.6-0.3
			L282.4,25.9z M280.3,21.1c-0.5,0-0.9,0.1-1.1,0.4c-0.3,0.2-0.5,0.7-0.5,1.3h3c0-0.6-0.1-1-0.3-1.3C281,21.2,280.7,21.1,280.3,21.1
			z"/>
	</g>
	<path class="st2" d="M241.3,66.1h160c2.8,0,5,2.2,5,5v98.4c0,2.8-2.2,5-5,5h-160c-2.8,0-5-2.2-5-5V71.1
		C236.3,68.4,238.6,66.1,241.3,66.1z"/>
	
		<linearGradient id="SVGID_1_" gradientUnits="userSpaceOnUse" x1="220.9" y1="259.815" x2="425.16" y2="259.815" gradientTransform="matrix(1 0 0 -1 0 384)">
		<stop  offset="0" style="stop-color:#990066"/>
		<stop  offset="0.19" style="stop-color:#780066"/>
		<stop  offset="0.4" style="stop-color:#5A0066"/>
		<stop  offset="0.61" style="stop-color:#440066"/>
		<stop  offset="0.81" style="stop-color:#370066"/>
		<stop  offset="1" style="stop-color:#330066"/>
	</linearGradient>
	<path class="st3" d="M225.9,34.6h194.3c2.8,0,5,2.2,5,5v169.1c0,2.8-2.2,5-5,5H225.9c-2.8,0-5-2.2-5-5V39.6
		C220.9,36.9,223.1,34.6,225.9,34.6z"/>
	<path class="st4" d="M313.6,24.8c4.6-4.6,12.1-4.5,16.6,0.1s4.5,12.1-0.1,16.6c-4.6,4.6-12.1,4.5-16.6-0.1
		c-2.2-2.2-3.4-5.1-3.4-8.2c0-2.6,0.8-5.1,2.4-7.1"/>
	<path class="st5" d="M321.9,38.8h-4.3c-0.6,0-0.8-0.2-0.8-0.8v-6.5c0-0.6,0.2-0.8,0.8-0.8h8.5c0.5,0,0.8,0.2,0.8,0.8V38
		c0,0.5-0.2,0.8-0.8,0.8C324.7,38.8,323.3,38.8,321.9,38.8z"/>
	<path class="st5" d="M317.5,30.2c0-1.8,1-3.4,2.6-4.1c2.1-0.9,4.6,0,5.5,2.1c0.1,0.2,0.2,0.5,0.2,0.7c0.1,0.4,0.1,0.8,0.2,1.2"/>
	<path class="st6" d="M321.2,36L321.2,36v0.9c0,0.2,0.1,0.2,0.3,0.2h0.8c0.2,0,0.3-0.1,0.3-0.3v-1.6c0-0.2,0.1-0.3,0.2-0.4
		c0.5-0.3,0.8-0.9,0.6-1.5c-0.2-0.6-0.8-1-1.5-1c-0.7-0.1-1.3,0.3-1.6,0.9c-0.2,0.6,0,1.2,0.5,1.5c0.2,0.1,0.3,0.3,0.3,0.5
		C321.2,35.5,321.2,35.8,321.2,36z"/>
	<g id="Scone_logo_white">
		<g>
			<defs>
				<rect id="SVGID_2_" x="292.6" y="192" width="53.6" height="10.5"/>
			</defs>
			<clipPath id="SVGID_3_">
				<use xlink:href="#SVGID_2_"  style="overflow:visible;"/>
			</clipPath>
			<g class="st7">
				<g>
					<defs>
						<rect id="SVGID_4_" x="292.6" y="192" width="53.6" height="10.5"/>
					</defs>
					<clipPath id="SVGID_5_">
						<use xlink:href="#SVGID_4_"  style="overflow:visible;"/>
					</clipPath>
					<g class="st8">
						<path class="st9" d="M299.7,194.6h-1.1c-0.2,0-0.4,0.2-0.4,0.4v1.1c0,0.2,0.2,0.4,0.4,0.4l0,0h1.1c0.2,0,0.4-0.2,0.4-0.4v-1.1
							C300.1,194.8,299.9,194.6,299.7,194.6 M295.8,196.6h1.1c0.2,0,0.4-0.2,0.4-0.4l0,0v-1.1c0-0.2-0.2-0.4-0.4-0.4h-1.1
							c-0.2,0-0.4,0.2-0.4,0.4v1.1C295.3,196.4,295.5,196.6,295.8,196.6 M294.5,196.2v-1.1c0-0.2-0.2-0.4-0.4-0.4H293
							c-0.2,0-0.4,0.2-0.4,0.4v1.1c0,0.2,0.2,0.4,0.4,0.4h1.1C294.4,196.6,294.6,196.4,294.5,196.2 M299.8,197.4
							c-0.2,0-0.3,0.1-0.3,0.3v1.3c0,0.2,0.2,0.3,0.4,0.3c0.1,0,0.2-0.1,0.3-0.3v-1.3C300.1,197.6,300,197.5,299.8,197.4
							C299.8,197.4,299.8,197.4,299.8,197.4 M296.7,197.9v1.1c0,0.2,0.2,0.4,0.4,0.4h1.1c0.2,0,0.4-0.2,0.4-0.4v-1.1
							c0-0.2-0.2-0.4-0.4-0.4h-1.1C296.9,197.4,296.7,197.6,296.7,197.9 M295.9,199v-1.1c0-0.2-0.2-0.4-0.4-0.4h-1.1
							c-0.2,0-0.4,0.2-0.4,0.4v1.1c0,0.2,0.2,0.4,0.4,0.4h1.1C295.7,199.4,295.9,199.2,295.9,199 M299.7,200.2h-1.1
							c-0.2,0-0.4,0.2-0.4,0.4v1.1c0,0.2,0.2,0.4,0.4,0.4h1.1c0.2,0,0.4-0.2,0.4-0.4v-1.1C300.1,200.4,299.9,200.2,299.7,200.2
							 M296.7,200.2h-1.1c-0.2,0-0.4,0.2-0.4,0.4v1.1c0,0.2,0.2,0.4,0.4,0.4h1.1c0.2,0,0.4-0.2,0.4-0.4v-1.1
							C297.2,200.4,297,200.2,296.7,200.2"/>
						<path class="st9" d="M301,194.2c0.5,0.4,1.1,0.6,1.8,0.5c0,0,0,0.1,0,0.1v3.1c0,1.2-1.5,1.9-1.8,2.1c0,0,0,0,0,0L301,194.2
							C300.9,194.2,300.9,194.2,301,194.2"/>
						<path class="st9" d="M297.6,194c2.4-0.1,2.8-0.9,2.8-0.9c0,0,0.1-0.1,0.1-0.1c0,0,0.1,0,0.1,0s0.4,0.9,2.7,0.9
							c0.1,0,0.1,0,0.1,0.1v4.1c0,1.3-2.5,2.8-2.5,2.8c0,0-0.1,0.1-0.1,0.1v1c0,0,0.1,0.1,0.2,0c0.9-0.5,3.5-1.9,3.5-3.6v-5.2
							c0-0.1-0.1-0.1-0.2-0.1c-3,0-3.6-1.1-3.6-1.1s-0.1,0-0.2,0s-0.1,0-0.1,0s-0.5,1.1-3.5,1.1c-0.1,0-0.1,0-0.1,0.1v0.6
							c0,0,0,0.2,0.1,0.2S297.6,193.9,297.6,194"/>
						<path class="st10" d="M306.8,200.7l1.2-0.4c0.3,0.6,0.9,0.9,1.6,0.9c0.3,0,0.6-0.1,0.9-0.2c0.2-0.1,0.4-0.4,0.4-0.6
							c0-0.6-0.9-1-1.5-1.3l0,0c-0.5-0.2-1-0.4-1.4-0.8c-0.4-0.3-0.7-0.9-0.7-1.4c0-0.6,0.3-1.1,0.7-1.5c0.5-0.4,1.1-0.6,1.8-0.6
							c1-0.1,1.9,0.4,2.4,1.3l-1.3,0.5c-0.1-0.2-0.2-0.4-0.4-0.5c-0.2-0.1-0.5-0.1-0.7-0.1c-0.7,0-1.2,0.4-1.2,0.9
							c0,0.3,0.2,0.6,0.5,0.8c0.3,0.2,0.7,0.4,1.1,0.6l0.1,0.1c0.9,0.4,2.1,0.9,2.1,2.1c0,0.6-0.3,1.2-0.8,1.5
							c-0.6,0.4-1.3,0.6-2,0.6C308.4,202.4,307.3,201.8,306.8,200.7"/>
						<path class="st10" d="M317.5,202.3c-0.5,0-1-0.1-1.5-0.3c-0.9-0.4-1.6-1.1-2-2c-0.4-1-0.4-2,0-3c0.2-0.5,0.5-0.9,0.8-1.2
							c0.3-0.3,0.7-0.6,1.2-0.8c0.5-0.2,1-0.3,1.5-0.3c0.6,0,1.2,0.1,1.7,0.4c0.5,0.3,1,0.6,1.3,1.1l-1,0.8
							c-0.2-0.3-0.5-0.6-0.9-0.7c-0.4-0.2-0.8-0.3-1.2-0.3c-1.4,0-2.6,1.2-2.6,2.6c0,0.7,0.3,1.3,0.8,1.8c0.8,0.8,2.1,1,3.1,0.4
							c0.4-0.2,0.7-0.6,0.9-0.9l1.1,0.6c-0.3,0.6-0.8,1.1-1.4,1.4C318.9,202.2,318.2,202.4,317.5,202.3"/>
						<path class="st10" d="M325.8,202.3c-0.5,0-1-0.1-1.5-0.3c-0.5-0.2-0.9-0.5-1.2-0.8c-0.7-0.7-1.1-1.7-1.1-2.7
							c0-0.5,0.1-1,0.3-1.5c0.2-0.5,0.5-0.9,0.8-1.2c0.7-0.7,1.7-1.1,2.7-1.1c0.5,0,1,0.1,1.5,0.3c0.5,0.2,0.9,0.5,1.2,0.8
							c0.3,0.4,0.6,0.8,0.8,1.2c0.4,1,0.4,2,0,3c-0.2,0.4-0.5,0.9-0.8,1.2c-0.3,0.3-0.8,0.6-1.2,0.8
							C326.8,202.2,326.3,202.3,325.8,202.3 M325.8,195.9c-0.7,0-1.3,0.3-1.8,0.8c-0.5,0.5-0.7,1.1-0.8,1.8c0,0.7,0.3,1.3,0.8,1.8
							c0.5,0.5,1.1,0.8,1.8,0.8c0.7,0,1.3-0.3,1.8-0.8c0.5-0.5,0.8-1.1,0.8-1.8c0-0.7-0.3-1.3-0.8-1.8
							C327.2,196.2,326.5,195.9,325.8,195.9"/>
						<polygon class="st10" points="338.3,194.7 338.3,202.5 333,197.6 333,202.2 331.6,202.2 331.6,194.4 337,199.4 337,194.7 
													"/>
						<polygon class="st10" points="342,195.9 342,197.8 345.7,197.8 345.7,199 342,199 342,201 346.2,201 346.2,202.2 340.6,202.2 
							340.6,194.7 346.2,194.7 346.2,195.9 342,195.9 						"/>
					</g>
				</g>
			</g>
		</g>
	</g>
	<path class="st2" d="M241.3,64.4h160c2.8,0,5,2.2,5,5v99.5c0,2.8-2.2,5-5,5h-160c-2.8,0-5-2.2-5-5V69.4
		C236.3,66.6,238.6,64.4,241.3,64.4z"/>
	<g class="st0">
		<path class="st1" d="M281,154.8h-1.3l-0.2-1.2c-0.1-0.1-0.4-0.2-0.7-0.2s-0.6-0.1-0.9-0.1c-0.5,0-0.8,0.1-1.1,0.3
			s-0.4,0.5-0.4,0.8c0,0.3,0.1,0.5,0.4,0.7s0.7,0.4,1.4,0.6c0.9,0.3,1.7,0.6,2.1,1s0.7,1,0.7,1.7c0,0.7-0.3,1.3-0.9,1.7
			s-1.3,0.6-2.3,0.6c-0.7,0-1.3-0.1-1.8-0.3s-1-0.5-1.4-0.9v-1.8h1.3l0.2,1.2c0.2,0.1,0.4,0.3,0.7,0.3s0.6,0.1,1,0.1
			c0.5,0,0.8-0.1,1.1-0.3s0.4-0.4,0.4-0.8c0-0.3-0.1-0.6-0.3-0.8s-0.6-0.4-1.2-0.6c-1-0.3-1.8-0.6-2.3-1s-0.8-1-0.8-1.7
			c0-0.7,0.3-1.3,0.9-1.7s1.3-0.7,2.2-0.7c0.7,0,1.3,0.1,1.8,0.3s1,0.5,1.4,0.8V154.8z"/>
		<path class="st1" d="M288.4,155.3l-0.6,0.1l-2.3,6.2c-0.2,0.5-0.4,0.8-0.7,1.1s-0.8,0.5-1.4,0.5c-0.1,0-0.3,0-0.4,0
			s-0.3-0.1-0.4-0.1l0.2-1.2c0.1,0,0.1,0,0.2,0s0.1,0,0.2,0c0.3,0,0.5-0.1,0.7-0.2s0.3-0.3,0.4-0.5l0.2-0.5l-2-5.2l-0.6-0.1v-1h3.1
			v1l-0.7,0.1l0.9,2.5l0.1,0.5l0,0l1-3l-0.7-0.1v-1h3.1V155.3z"/>
		<path class="st1" d="M294.1,156.5h-1.1l-0.2-0.8c-0.1-0.1-0.3-0.2-0.4-0.2s-0.4-0.1-0.6-0.1c-0.3,0-0.5,0.1-0.7,0.2
			s-0.3,0.3-0.3,0.5c0,0.2,0.1,0.4,0.3,0.5s0.5,0.2,1,0.3c0.8,0.2,1.4,0.4,1.7,0.7s0.6,0.7,0.6,1.3c0,0.6-0.2,1-0.7,1.4
			s-1.1,0.5-1.9,0.5c-0.5,0-0.9-0.1-1.3-0.2s-0.8-0.3-1.1-0.6l0-1.4h1.2l0.2,0.8c0.1,0.1,0.2,0.1,0.4,0.2s0.4,0.1,0.6,0.1
			c0.3,0,0.6-0.1,0.8-0.2s0.3-0.3,0.3-0.5c0-0.2-0.1-0.3-0.3-0.5s-0.5-0.3-1-0.4c-0.7-0.2-1.3-0.4-1.7-0.7s-0.6-0.7-0.6-1.2
			c0-0.5,0.2-1,0.7-1.4s1.1-0.6,1.9-0.6c0.5,0,1,0.1,1.4,0.2s0.8,0.3,1,0.5L294.1,156.5z"/>
		<path class="st1" d="M297.6,152.7v1.6h1.1v1.2h-1.1v3.2c0,0.2,0.1,0.4,0.2,0.5s0.2,0.2,0.4,0.2c0.1,0,0.2,0,0.3,0s0.2,0,0.3,0
			l0.1,1.2c-0.2,0.1-0.4,0.1-0.6,0.1s-0.4,0-0.6,0c-0.6,0-1-0.2-1.4-0.5s-0.5-0.8-0.5-1.5v-3.2H295v-1.2h0.9v-1.6H297.6z"/>
		<path class="st1" d="M302.6,160.8c-0.9,0-1.6-0.3-2.2-0.9s-0.8-1.3-0.8-2.2v-0.2c0-0.9,0.3-1.7,0.8-2.3s1.2-0.9,2.1-0.9
			c0.9,0,1.5,0.3,2,0.8s0.7,1.2,0.7,2.1v0.9h-3.8l0,0c0,0.4,0.2,0.8,0.4,1s0.6,0.4,1,0.4c0.4,0,0.7,0,0.9-0.1s0.5-0.2,0.8-0.4
			l0.5,1.1c-0.3,0.2-0.6,0.4-1,0.5S303.1,160.8,302.6,160.8z M302.4,155.5c-0.3,0-0.6,0.1-0.8,0.4s-0.3,0.6-0.3,1l0,0h2.1v-0.2
			c0-0.4-0.1-0.7-0.3-0.9S302.8,155.5,302.4,155.5z"/>
		<path class="st1" d="M305.7,155.3v-1h2.5l0.1,0.8c0.2-0.3,0.5-0.5,0.8-0.7s0.7-0.2,1.1-0.2c0.4,0,0.8,0.1,1,0.3s0.5,0.5,0.7,0.8
			c0.2-0.3,0.4-0.6,0.8-0.8s0.7-0.3,1.1-0.3c0.6,0,1.1,0.2,1.5,0.6s0.5,1.1,0.5,2v2.6l0.8,0.2v1h-3.3v-1l0.7-0.2v-2.6
			c0-0.5-0.1-0.8-0.2-1s-0.4-0.3-0.7-0.3c-0.2,0-0.5,0.1-0.6,0.2s-0.3,0.3-0.4,0.4c0,0.1,0,0.1,0,0.2s0,0.1,0,0.2v3l0.7,0.2v1h-3.1
			v-1l0.7-0.2v-2.6c0-0.5-0.1-0.8-0.2-1s-0.4-0.3-0.7-0.3c-0.2,0-0.4,0-0.6,0.1s-0.3,0.2-0.4,0.4v3.4l0.7,0.2v1h-3.3v-1l0.8-0.2
			v-3.9L305.7,155.3z"/>
		<path class="st1" d="M319.9,152.5v-1h2.6v7.9l0.8,0.2v1H320v-1l0.8-0.2v-6.7L319.9,152.5z"/>
		<path class="st1" d="M323.8,159.6l0.8-0.2v-3.9l-0.9-0.2v-1h2.6v5.1l0.8,0.2v1h-3.4V159.6z M326.4,152.8h-1.7v-1.3h1.7V152.8z"/>
		<path class="st1" d="M333.9,157.6c0,0.9-0.2,1.7-0.6,2.3s-1,0.8-1.8,0.8c-0.4,0-0.7-0.1-1-0.2s-0.5-0.4-0.7-0.7l-0.1,0.8h-1.5
			v-7.9l-0.9-0.2v-1h2.6v3.5c0.2-0.3,0.4-0.4,0.7-0.6s0.5-0.2,0.9-0.2c0.8,0,1.4,0.3,1.8,0.9s0.6,1.4,0.6,2.4V157.6z M332.2,157.5
			c0-0.6-0.1-1.1-0.3-1.5s-0.5-0.5-0.9-0.5c-0.3,0-0.5,0.1-0.7,0.2s-0.3,0.3-0.4,0.5v2.7c0.1,0.2,0.3,0.3,0.4,0.4s0.4,0.2,0.7,0.2
			c0.4,0,0.8-0.2,0.9-0.5s0.3-0.8,0.3-1.3V157.5z"/>
	</g>
	<g class="st0">
		<path class="st1" d="M334.8,159.6l0.8-0.2v-3.9l-0.9-0.2v-1h2.5l0.1,0.9c0.1-0.3,0.3-0.6,0.6-0.8s0.5-0.3,0.8-0.3
			c0.1,0,0.2,0,0.3,0s0.2,0,0.2,0l-0.2,1.6l-0.7,0c-0.3,0-0.5,0-0.6,0.1s-0.3,0.2-0.4,0.4v3.1l0.8,0.2v1h-3.4V159.6z"/>
	</g>
	<g class="st0">
		<path class="st1" d="M343.6,160.6c0-0.1-0.1-0.2-0.1-0.3s-0.1-0.2-0.1-0.3c-0.2,0.2-0.5,0.4-0.7,0.6s-0.6,0.2-1,0.2
			c-0.6,0-1.1-0.2-1.5-0.5s-0.5-0.8-0.5-1.4c0-0.6,0.2-1.1,0.7-1.4s1.2-0.5,2.1-0.5h0.9v-0.6c0-0.3-0.1-0.5-0.3-0.7
			s-0.4-0.3-0.8-0.3c-0.2,0-0.4,0-0.5,0.1s-0.3,0.1-0.4,0.2l-0.1,0.7H340l0-1.4c0.3-0.2,0.7-0.4,1.1-0.5s0.8-0.2,1.3-0.2
			c0.8,0,1.4,0.2,1.9,0.6s0.7,0.9,0.7,1.6v2.6c0,0.1,0,0.2,0,0.3s0,0.2,0,0.2l0.5,0.1v1H343.6z M342.1,159.5c0.3,0,0.5-0.1,0.7-0.2
			s0.4-0.3,0.5-0.4v-1h-0.9c-0.4,0-0.6,0.1-0.8,0.3s-0.3,0.4-0.3,0.6c0,0.2,0.1,0.4,0.2,0.5S341.9,159.5,342.1,159.5z"/>
		<path class="st1" d="M346.3,159.6l0.8-0.2v-3.9l-0.9-0.2v-1h2.5l0.1,0.9c0.1-0.3,0.3-0.6,0.6-0.8s0.5-0.3,0.8-0.3
			c0.1,0,0.2,0,0.3,0s0.2,0,0.2,0l-0.2,1.6l-0.7,0c-0.3,0-0.5,0-0.6,0.1s-0.3,0.2-0.4,0.4v3.1l0.8,0.2v1h-3.4V159.6z"/>
		<path class="st1" d="M351.2,159.6l0.8-0.2v-3.9l-0.9-0.2v-1h2.6v5.1l0.8,0.2v1h-3.4V159.6z M353.7,152.8H352v-1.3h1.7V152.8z"/>
		<path class="st1" d="M358.1,160.8c-0.9,0-1.6-0.3-2.2-0.9s-0.8-1.3-0.8-2.2v-0.2c0-0.9,0.3-1.7,0.8-2.3s1.2-0.9,2.1-0.9
			c0.9,0,1.5,0.3,2,0.8s0.7,1.2,0.7,2.1v0.9h-3.8l0,0c0,0.4,0.2,0.8,0.4,1s0.6,0.4,1,0.4c0.4,0,0.7,0,0.9-0.1s0.5-0.2,0.8-0.4
			l0.5,1.1c-0.3,0.2-0.6,0.4-1,0.5S358.6,160.8,358.1,160.8z M358,155.5c-0.3,0-0.6,0.1-0.8,0.4s-0.3,0.6-0.3,1l0,0h2.1v-0.2
			c0-0.4-0.1-0.7-0.3-0.9S358.3,155.5,358,155.5z"/>
		<path class="st1" d="M366.7,156.5h-1.1l-0.2-0.8c-0.1-0.1-0.3-0.2-0.4-0.2s-0.4-0.1-0.6-0.1c-0.3,0-0.5,0.1-0.7,0.2
			s-0.3,0.3-0.3,0.5c0,0.2,0.1,0.4,0.3,0.5s0.5,0.2,1,0.3c0.8,0.2,1.4,0.4,1.7,0.7s0.6,0.7,0.6,1.3c0,0.6-0.2,1-0.7,1.4
			s-1.1,0.5-1.9,0.5c-0.5,0-0.9-0.1-1.3-0.2s-0.8-0.3-1.1-0.6l0-1.4h1.2l0.2,0.8c0.1,0.1,0.2,0.1,0.4,0.2s0.4,0.1,0.6,0.1
			c0.3,0,0.6-0.1,0.8-0.2s0.3-0.3,0.3-0.5c0-0.2-0.1-0.3-0.3-0.5s-0.5-0.3-1-0.4c-0.7-0.2-1.3-0.4-1.7-0.7s-0.6-0.7-0.6-1.2
			c0-0.5,0.2-1,0.7-1.4s1.1-0.6,1.9-0.6c0.5,0,1,0.1,1.4,0.2s0.8,0.3,1,0.5L366.7,156.5z"/>
	</g>
	<g class="st0">
		<path class="st1" d="M288.5,86.4l0.6-0.1l2.6-7.4h1.8l2.6,7.4l0.6,0.1v1h-2.9v-1l0.6-0.1l-0.4-1.2h-2.8l-0.4,1.2l0.6,0.1v1h-2.9
			V86.4z M291.6,83.9h2l-1-3h0L291.6,83.9z"/>
		<path class="st1" d="M297.2,82.2v-1h2.5l0.1,0.7c0.2-0.3,0.4-0.5,0.7-0.6s0.6-0.2,0.9-0.2c0.8,0,1.4,0.3,1.8,0.9s0.7,1.4,0.7,2.4
			v0.1c0,0.9-0.2,1.7-0.7,2.3s-1,0.9-1.8,0.9c-0.3,0-0.6-0.1-0.9-0.2s-0.5-0.3-0.7-0.5v1.8l0.8,0.2v1h-3.4v-1l0.8-0.2v-6.4
			L297.2,82.2z M302.1,84.3c0-0.6-0.1-1.1-0.3-1.5s-0.5-0.6-0.9-0.6c-0.3,0-0.5,0.1-0.7,0.2s-0.3,0.3-0.4,0.5v2.8
			c0.1,0.2,0.2,0.3,0.4,0.4s0.4,0.1,0.7,0.1c0.4,0,0.7-0.2,0.9-0.5s0.3-0.8,0.3-1.3V84.3z"/>
	</g>
	<g class="st0">
		<path class="st1" d="M304.4,82.2v-1h2.5l0.1,0.7c0.2-0.3,0.4-0.5,0.7-0.6s0.6-0.2,0.9-0.2c0.8,0,1.4,0.3,1.8,0.9s0.7,1.4,0.7,2.4
			v0.1c0,0.9-0.2,1.7-0.7,2.3s-1,0.9-1.8,0.9c-0.3,0-0.6-0.1-0.9-0.2s-0.5-0.3-0.7-0.5v1.8l0.8,0.2v1h-3.4v-1l0.8-0.2v-6.4
			L304.4,82.2z M309.4,84.3c0-0.6-0.1-1.1-0.3-1.5s-0.5-0.6-0.9-0.6c-0.3,0-0.5,0.1-0.7,0.2s-0.3,0.3-0.4,0.5v2.8
			c0.1,0.2,0.2,0.3,0.4,0.4s0.4,0.1,0.7,0.1c0.4,0,0.7-0.2,0.9-0.5s0.3-0.8,0.3-1.3V84.3z"/>
	</g>
	<g class="st0">
		<path class="st1" d="M311.5,79.4v-1h2.6v7.9l0.8,0.2v1h-3.4v-1l0.8-0.2v-6.7L311.5,79.4z"/>
		<path class="st1" d="M315.5,86.4l0.8-0.2v-3.9l-0.9-0.2v-1h2.6v5.1l0.8,0.2v1h-3.4V86.4z M318,79.6h-1.7v-1.3h1.7V79.6z"/>
		<path class="st1" d="M322.4,86.3c0.3,0,0.5-0.1,0.7-0.3s0.3-0.4,0.3-0.7h1.5l0,0c0,0.6-0.2,1.2-0.7,1.6s-1.1,0.6-1.9,0.6
			c-0.9,0-1.7-0.3-2.2-0.9s-0.8-1.4-0.8-2.3v-0.2c0-0.9,0.3-1.7,0.8-2.3s1.3-0.9,2.2-0.9c0.5,0,1,0.1,1.4,0.2s0.7,0.4,1,0.6l0,1.7
			h-1.4l-0.3-1c-0.1-0.1-0.2-0.1-0.3-0.2s-0.3-0.1-0.4-0.1c-0.5,0-0.8,0.2-1,0.5s-0.3,0.8-0.3,1.4v0.2c0,0.6,0.1,1,0.3,1.4
			S321.9,86.3,322.4,86.3z"/>
	</g>
	<g class="st0">
		<path class="st1" d="M329.8,87.5c0-0.1-0.1-0.2-0.1-0.3s-0.1-0.2-0.1-0.3c-0.2,0.2-0.5,0.4-0.7,0.6s-0.6,0.2-1,0.2
			c-0.6,0-1.1-0.2-1.5-0.5s-0.5-0.8-0.5-1.4c0-0.6,0.2-1.1,0.7-1.4s1.2-0.5,2.1-0.5h0.9v-0.6c0-0.3-0.1-0.5-0.3-0.7
			s-0.4-0.3-0.8-0.3c-0.2,0-0.4,0-0.5,0.1s-0.3,0.1-0.4,0.2l-0.1,0.7h-1.3l0-1.4c0.3-0.2,0.7-0.4,1.1-0.5s0.8-0.2,1.3-0.2
			c0.8,0,1.4,0.2,1.9,0.6s0.7,0.9,0.7,1.6v2.6c0,0.1,0,0.2,0,0.3s0,0.2,0,0.2l0.5,0.1v1H329.8z M328.3,86.3c0.3,0,0.5-0.1,0.7-0.2
			s0.4-0.3,0.5-0.4v-1h-0.9c-0.4,0-0.6,0.1-0.8,0.3s-0.3,0.4-0.3,0.6c0,0.2,0.1,0.4,0.2,0.5S328,86.3,328.3,86.3z"/>
	</g>
	<g class="st0">
		<path class="st1" d="M334.4,79.6v1.6h1.1v1.2h-1.1v3.2c0,0.2,0.1,0.4,0.2,0.5s0.2,0.2,0.4,0.2c0.1,0,0.2,0,0.3,0s0.2,0,0.3,0
			l0.1,1.2c-0.2,0.1-0.4,0.1-0.6,0.1s-0.4,0-0.6,0c-0.6,0-1-0.2-1.4-0.5s-0.5-0.8-0.5-1.5v-3.2h-0.9v-1.2h0.9v-1.6H334.4z"/>
		<path class="st1" d="M336.3,86.4l0.8-0.2v-3.9l-0.9-0.2v-1h2.6v5.1l0.8,0.2v1h-3.4V86.4z M338.8,79.6h-1.7v-1.3h1.7V79.6z"/>
		<path class="st1" d="M340.2,84.2c0-0.9,0.3-1.7,0.8-2.3s1.3-0.9,2.2-0.9c0.9,0,1.7,0.3,2.2,0.9s0.8,1.4,0.8,2.3v0.1
			c0,1-0.3,1.7-0.8,2.3s-1.3,0.9-2.2,0.9c-0.9,0-1.7-0.3-2.2-0.9s-0.8-1.4-0.8-2.3V84.2z M341.9,84.4c0,0.6,0.1,1,0.3,1.4
			s0.5,0.5,1,0.5c0.4,0,0.8-0.2,1-0.5s0.3-0.8,0.3-1.4v-0.1c0-0.6-0.1-1-0.3-1.4s-0.5-0.5-1-0.5s-0.8,0.2-1,0.5s-0.3,0.8-0.3,1.4
			V84.4z"/>
		<path class="st1" d="M346.8,86.4l0.8-0.2v-3.9l-0.9-0.2v-1h2.5l0.1,0.9c0.2-0.3,0.5-0.6,0.8-0.8s0.7-0.3,1-0.3
			c0.6,0,1.1,0.2,1.5,0.6s0.5,1,0.5,1.9v2.8l0.8,0.2v1h-3.3v-1l0.7-0.2v-2.8c0-0.4-0.1-0.7-0.3-0.9s-0.4-0.3-0.8-0.3
			c-0.2,0-0.4,0-0.6,0.1s-0.3,0.2-0.5,0.4v3.4l0.7,0.2v1h-3.2V86.4z"/>
	</g>
	<g class="st0">
		<path class="st1" d="M263.3,123.4l0.6-0.1l2.6-7.4h1.8l2.6,7.4l0.6,0.1v1h-2.9v-1l0.6-0.1l-0.4-1.2H266l-0.4,1.2l0.6,0.1v1h-2.9
			V123.4z M266.4,120.8h2l-1-3h0L266.4,120.8z"/>
		<path class="st1" d="M271.9,119.1v-1h2.5l0.1,0.7c0.2-0.3,0.4-0.5,0.7-0.6s0.6-0.2,0.9-0.2c0.8,0,1.4,0.3,1.8,0.9s0.7,1.4,0.7,2.4
			v0.1c0,0.9-0.2,1.7-0.7,2.3s-1,0.9-1.8,0.9c-0.3,0-0.6-0.1-0.9-0.2s-0.5-0.3-0.7-0.5v1.8l0.8,0.2v1H272v-1l0.8-0.2v-6.4
			L271.9,119.1z M276.8,121.3c0-0.6-0.1-1.1-0.3-1.5s-0.5-0.6-0.9-0.6c-0.3,0-0.5,0.1-0.7,0.2s-0.3,0.3-0.4,0.5v2.8
			c0.1,0.2,0.2,0.3,0.4,0.4s0.4,0.1,0.7,0.1c0.4,0,0.7-0.2,0.9-0.5s0.3-0.8,0.3-1.3V121.3z"/>
	</g>
	<g class="st0">
		<path class="st1" d="M279.2,119.1v-1h2.5l0.1,0.7c0.2-0.3,0.4-0.5,0.7-0.6s0.6-0.2,0.9-0.2c0.8,0,1.4,0.3,1.8,0.9s0.7,1.4,0.7,2.4
			v0.1c0,0.9-0.2,1.7-0.7,2.3s-1,0.9-1.8,0.9c-0.3,0-0.6-0.1-0.9-0.2s-0.5-0.3-0.7-0.5v1.8l0.8,0.2v1h-3.4v-1l0.8-0.2v-6.4
			L279.2,119.1z M284.1,121.3c0-0.6-0.1-1.1-0.3-1.5s-0.5-0.6-0.9-0.6c-0.3,0-0.5,0.1-0.7,0.2s-0.3,0.3-0.4,0.5v2.8
			c0.1,0.2,0.2,0.3,0.4,0.4s0.4,0.1,0.7,0.1c0.4,0,0.7-0.2,0.9-0.5s0.3-0.8,0.3-1.3V121.3z"/>
	</g>
	<g class="st0">
		<path class="st1" d="M286.2,116.3v-1h2.6v7.9l0.8,0.2v1h-3.4v-1l0.8-0.2v-6.7L286.2,116.3z"/>
		<path class="st1" d="M290.2,123.4l0.8-0.2v-3.9l-0.9-0.2v-1h2.6v5.1l0.8,0.2v1h-3.4V123.4z M292.7,116.5H291v-1.3h1.7V116.5z"/>
		<path class="st1" d="M297.1,123.2c0.3,0,0.5-0.1,0.7-0.3s0.3-0.4,0.3-0.7h1.5l0,0c0,0.6-0.2,1.2-0.7,1.6s-1.1,0.6-1.9,0.6
			c-0.9,0-1.7-0.3-2.2-0.9s-0.8-1.4-0.8-2.3v-0.2c0-0.9,0.3-1.7,0.8-2.3s1.3-0.9,2.2-0.9c0.5,0,1,0.1,1.4,0.2s0.7,0.4,1,0.6l0,1.7
			h-1.4l-0.3-1c-0.1-0.1-0.2-0.1-0.3-0.2s-0.3-0.1-0.4-0.1c-0.5,0-0.8,0.2-1,0.5s-0.3,0.8-0.3,1.4v0.2c0,0.6,0.1,1,0.3,1.4
			S296.6,123.2,297.1,123.2z"/>
	</g>
	<g class="st0">
		<path class="st1" d="M304.5,124.4c0-0.1-0.1-0.2-0.1-0.3s-0.1-0.2-0.1-0.3c-0.2,0.2-0.5,0.4-0.7,0.6s-0.6,0.2-1,0.2
			c-0.6,0-1.1-0.2-1.5-0.5s-0.5-0.8-0.5-1.4c0-0.6,0.2-1.1,0.7-1.4s1.2-0.5,2.1-0.5h0.9v-0.6c0-0.3-0.1-0.5-0.3-0.7
			s-0.4-0.3-0.8-0.3c-0.2,0-0.4,0-0.5,0.1s-0.3,0.1-0.4,0.2l-0.1,0.7h-1.3l0-1.4c0.3-0.2,0.7-0.4,1.1-0.5s0.8-0.2,1.3-0.2
			c0.8,0,1.4,0.2,1.9,0.6s0.7,0.9,0.7,1.6v2.6c0,0.1,0,0.2,0,0.3s0,0.2,0,0.2l0.5,0.1v1H304.5z M303,123.3c0.3,0,0.5-0.1,0.7-0.2
			s0.4-0.3,0.5-0.4v-1h-0.9c-0.4,0-0.6,0.1-0.8,0.3s-0.3,0.4-0.3,0.6c0,0.2,0.1,0.4,0.2,0.5S302.8,123.3,303,123.3z"/>
	</g>
	<g class="st0">
		<path class="st1" d="M309.1,116.5v1.6h1.1v1.2h-1.1v3.2c0,0.2,0.1,0.4,0.2,0.5s0.2,0.2,0.4,0.2c0.1,0,0.2,0,0.3,0s0.2,0,0.3,0
			l0.1,1.2c-0.2,0.1-0.4,0.1-0.6,0.1s-0.4,0-0.6,0c-0.6,0-1-0.2-1.4-0.5s-0.5-0.8-0.5-1.5v-3.2h-0.9v-1.2h0.9v-1.6H309.1z"/>
		<path class="st1" d="M311,123.4l0.8-0.2v-3.9l-0.9-0.2v-1h2.6v5.1l0.8,0.2v1H311V123.4z M313.5,116.5h-1.7v-1.3h1.7V116.5z"/>
		<path class="st1" d="M314.9,121.2c0-0.9,0.3-1.7,0.8-2.3s1.3-0.9,2.2-0.9c0.9,0,1.7,0.3,2.2,0.9s0.8,1.4,0.8,2.3v0.1
			c0,1-0.3,1.7-0.8,2.3s-1.3,0.9-2.2,0.9c-0.9,0-1.7-0.3-2.2-0.9s-0.8-1.4-0.8-2.3V121.2z M316.6,121.3c0,0.6,0.1,1,0.3,1.4
			s0.5,0.5,1,0.5c0.4,0,0.8-0.2,1-0.5s0.3-0.8,0.3-1.4v-0.1c0-0.6-0.1-1-0.3-1.4s-0.5-0.5-1-0.5s-0.8,0.2-1,0.5s-0.3,0.8-0.3,1.4
			V121.3z"/>
		<path class="st1" d="M321.5,123.4l0.8-0.2v-3.9l-0.9-0.2v-1h2.5l0.1,0.9c0.2-0.3,0.5-0.6,0.8-0.8s0.7-0.3,1-0.3
			c0.6,0,1.1,0.2,1.5,0.6s0.5,1,0.5,1.9v2.8l0.8,0.2v1h-3.3v-1l0.7-0.2v-2.8c0-0.4-0.1-0.7-0.3-0.9s-0.4-0.3-0.8-0.3
			c-0.2,0-0.4,0-0.6,0.1s-0.3,0.2-0.5,0.4v3.4l0.7,0.2v1h-3.2V123.4z"/>
		<path class="st1" d="M332,116.3v-1h2.6v7.9l0.8,0.2v1h-3.4v-1l0.8-0.2v-6.7L332,116.3z"/>
		<path class="st1" d="M336,123.4l0.8-0.2v-3.9l-0.9-0.2v-1h2.6v5.1l0.8,0.2v1H336V123.4z M338.5,116.5h-1.7v-1.3h1.7V116.5z"/>
		<path class="st1" d="M346,121.4c0,0.9-0.2,1.7-0.6,2.3s-1,0.8-1.8,0.8c-0.4,0-0.7-0.1-1-0.2s-0.5-0.4-0.7-0.7l-0.1,0.8h-1.5v-7.9
			l-0.9-0.2v-1h2.6v3.5c0.2-0.3,0.4-0.4,0.7-0.6s0.5-0.2,0.9-0.2c0.8,0,1.4,0.3,1.8,0.9s0.6,1.4,0.6,2.4V121.4z M344.3,121.3
			c0-0.6-0.1-1.1-0.3-1.5s-0.5-0.5-0.9-0.5c-0.3,0-0.5,0.1-0.7,0.2s-0.3,0.3-0.4,0.5v2.7c0.1,0.2,0.3,0.3,0.4,0.4s0.4,0.2,0.7,0.2
			c0.4,0,0.8-0.2,0.9-0.5s0.3-0.8,0.3-1.3V121.3z"/>
	</g>
	<g class="st0">
		<path class="st1" d="M346.9,123.4l0.8-0.2v-3.9l-0.9-0.2v-1h2.5l0.1,0.9c0.1-0.3,0.3-0.6,0.6-0.8s0.5-0.3,0.8-0.3
			c0.1,0,0.2,0,0.3,0s0.2,0,0.2,0l-0.2,1.6l-0.7,0c-0.3,0-0.5,0-0.6,0.1s-0.3,0.2-0.4,0.4v3.1l0.8,0.2v1h-3.4V123.4z"/>
	</g>
	<g class="st0">
		<path class="st1" d="M355.8,124.4c0-0.1-0.1-0.2-0.1-0.3s-0.1-0.2-0.1-0.3c-0.2,0.2-0.5,0.4-0.7,0.6s-0.6,0.2-1,0.2
			c-0.6,0-1.1-0.2-1.5-0.5s-0.5-0.8-0.5-1.4c0-0.6,0.2-1.1,0.7-1.4s1.2-0.5,2.1-0.5h0.9v-0.6c0-0.3-0.1-0.5-0.3-0.7
			s-0.4-0.3-0.8-0.3c-0.2,0-0.4,0-0.5,0.1s-0.3,0.1-0.4,0.2l-0.1,0.7h-1.3l0-1.4c0.3-0.2,0.7-0.4,1.1-0.5s0.8-0.2,1.3-0.2
			c0.8,0,1.4,0.2,1.9,0.6s0.7,0.9,0.7,1.6v2.6c0,0.1,0,0.2,0,0.3s0,0.2,0,0.2l0.5,0.1v1H355.8z M354.3,123.3c0.3,0,0.5-0.1,0.7-0.2
			s0.4-0.3,0.5-0.4v-1h-0.9c-0.4,0-0.6,0.1-0.8,0.3s-0.3,0.4-0.3,0.6c0,0.2,0.1,0.4,0.2,0.5S354.1,123.3,354.3,123.3z"/>
		<path class="st1" d="M358.5,123.4l0.8-0.2v-3.9l-0.9-0.2v-1h2.5l0.1,0.9c0.1-0.3,0.3-0.6,0.6-0.8s0.5-0.3,0.8-0.3
			c0.1,0,0.2,0,0.3,0s0.2,0,0.2,0l-0.2,1.6l-0.7,0c-0.3,0-0.5,0-0.6,0.1s-0.3,0.2-0.4,0.4v3.1l0.8,0.2v1h-3.4V123.4z"/>
		<path class="st1" d="M363.3,123.4l0.8-0.2v-3.9l-0.9-0.2v-1h2.6v5.1l0.8,0.2v1h-3.4V123.4z M365.9,116.5h-1.7v-1.3h1.7V116.5z"/>
		<path class="st1" d="M370.3,124.5c-0.9,0-1.6-0.3-2.2-0.9s-0.8-1.3-0.8-2.2v-0.2c0-0.9,0.3-1.7,0.8-2.3s1.2-0.9,2.1-0.9
			c0.9,0,1.5,0.3,2,0.8s0.7,1.2,0.7,2.1v0.9h-3.8l0,0c0,0.4,0.2,0.8,0.4,1s0.6,0.4,1,0.4c0.4,0,0.7,0,0.9-0.1s0.5-0.2,0.8-0.4
			l0.5,1.1c-0.3,0.2-0.6,0.4-1,0.5S370.8,124.5,370.3,124.5z M370.1,119.3c-0.3,0-0.6,0.1-0.8,0.4s-0.3,0.6-0.3,1l0,0h2.1v-0.2
			c0-0.4-0.1-0.7-0.3-0.9S370.5,119.3,370.1,119.3z"/>
		<path class="st1" d="M378.8,120.2h-1.1l-0.2-0.8c-0.1-0.1-0.3-0.2-0.4-0.2s-0.4-0.1-0.6-0.1c-0.3,0-0.5,0.1-0.7,0.2
			s-0.3,0.3-0.3,0.5c0,0.2,0.1,0.4,0.3,0.5s0.5,0.2,1,0.3c0.8,0.2,1.4,0.4,1.7,0.7s0.6,0.7,0.6,1.3c0,0.6-0.2,1-0.7,1.4
			s-1.1,0.5-1.9,0.5c-0.5,0-0.9-0.1-1.3-0.2s-0.8-0.3-1.1-0.6l0-1.4h1.2l0.2,0.8c0.1,0.1,0.2,0.1,0.4,0.2s0.4,0.1,0.6,0.1
			c0.3,0,0.6-0.1,0.8-0.2s0.3-0.3,0.3-0.5c0-0.2-0.1-0.3-0.3-0.5s-0.5-0.3-1-0.4c-0.7-0.2-1.3-0.4-1.7-0.7s-0.6-0.7-0.6-1.2
			c0-0.5,0.2-1,0.7-1.4s1.1-0.6,1.9-0.6c0.5,0,1,0.1,1.4,0.2s0.8,0.3,1,0.5L378.8,120.2z"/>
	</g>
	<line class="st11" x1="236" y1="100.1" x2="405.2" y2="100.1"/>
	<line class="st11" x1="236" y1="139.3" x2="405.2" y2="139.3"/>
	<path class="st12" d="M445.6,34.4h75.6c2.8,0,5,2.2,5,5v319.9c0,2.8-2.2,5-5,5h-75.6c-2.8,0-5-2.2-5-5V39.4
		C440.6,36.6,442.8,34.4,445.6,34.4z"/>
	<g class="st0">
		<path class="st1" d="M462.3,139.8H461l-0.2-1.2c-0.2-0.2-0.4-0.3-0.6-0.4s-0.6-0.1-0.9-0.1c-0.8,0-1.3,0.3-1.7,0.8
			s-0.6,1.3-0.6,2.2v0.3c0,0.9,0.2,1.6,0.6,2.2s1,0.8,1.7,0.8c0.3,0,0.7,0,0.9-0.1c0.3-0.1,0.5-0.2,0.7-0.4l0.2-1.2h1.3v1.7
			c-0.4,0.4-0.8,0.7-1.3,1s-1.2,0.4-1.8,0.4c-1.2,0-2.1-0.4-2.9-1.2c-0.7-0.8-1.1-1.8-1.1-3.1v-0.3c0-1.3,0.4-2.3,1.1-3.1
			c0.7-0.8,1.7-1.2,2.9-1.2c0.7,0,1.3,0.1,1.8,0.4c0.5,0.2,1,0.6,1.3,1V139.8z"/>
		<path class="st1" d="M463.1,142.3c0-1,0.3-1.8,0.8-2.4c0.5-0.6,1.3-0.9,2.2-0.9c1,0,1.7,0.3,2.2,0.9c0.5,0.6,0.8,1.4,0.8,2.4v0.1
			c0,1-0.3,1.8-0.8,2.4s-1.3,0.9-2.2,0.9c-1,0-1.7-0.3-2.3-0.9s-0.8-1.4-0.8-2.4V142.3z M464.8,142.4c0,0.6,0.1,1.1,0.3,1.4
			c0.2,0.4,0.5,0.5,1,0.5c0.5,0,0.8-0.2,1-0.5s0.3-0.8,0.3-1.4v-0.1c0-0.6-0.1-1-0.3-1.4c-0.2-0.4-0.5-0.5-1-0.5s-0.8,0.2-1,0.5
			c-0.2,0.4-0.3,0.8-0.3,1.4V142.4z"/>
		<path class="st1" d="M469.9,144.5l0.8-0.2v-4l-0.9-0.2v-1.1h2.6l0.1,0.9c0.2-0.3,0.5-0.6,0.8-0.8c0.3-0.2,0.7-0.3,1.1-0.3
			c0.7,0,1.2,0.2,1.5,0.6c0.4,0.4,0.6,1.1,0.6,1.9v2.8l0.8,0.2v1h-3.3v-1l0.7-0.2v-2.8c0-0.4-0.1-0.7-0.3-0.9
			c-0.2-0.2-0.4-0.3-0.8-0.3c-0.2,0-0.4,0-0.6,0.1c-0.2,0.1-0.3,0.2-0.5,0.4v3.5l0.7,0.2v1h-3.3V144.5z"/>
		<path class="st1" d="M480.3,137.5v1.6h1.1v1.2h-1.1v3.3c0,0.3,0.1,0.4,0.2,0.5s0.2,0.2,0.4,0.2c0.1,0,0.2,0,0.3,0
			c0.1,0,0.2,0,0.3-0.1l0.1,1.3c-0.2,0.1-0.4,0.1-0.6,0.1c-0.2,0-0.4,0-0.6,0c-0.6,0-1.1-0.2-1.4-0.5c-0.3-0.3-0.5-0.9-0.5-1.6v-3.3
			h-0.9v-1.2h0.9v-1.6H480.3z"/>
		<path class="st1" d="M486.4,145.5c0-0.1-0.1-0.2-0.1-0.3c0-0.1-0.1-0.2-0.1-0.3c-0.2,0.2-0.5,0.4-0.8,0.6s-0.6,0.2-1,0.2
			c-0.6,0-1.1-0.2-1.5-0.5c-0.4-0.3-0.6-0.8-0.6-1.4c0-0.6,0.2-1.1,0.7-1.4c0.5-0.3,1.2-0.5,2.1-0.5h0.9v-0.6c0-0.3-0.1-0.6-0.3-0.7
			c-0.2-0.2-0.4-0.3-0.8-0.3c-0.2,0-0.4,0-0.5,0.1c-0.2,0-0.3,0.1-0.4,0.2l-0.1,0.7h-1.3l0-1.4c0.3-0.2,0.7-0.4,1.1-0.5
			c0.4-0.1,0.9-0.2,1.3-0.2c0.8,0,1.5,0.2,2,0.6c0.5,0.4,0.8,1,0.8,1.7v2.7c0,0.1,0,0.2,0,0.3c0,0.1,0,0.2,0,0.3l0.5,0.1v1H486.4z
			 M484.9,144.4c0.3,0,0.5-0.1,0.7-0.2s0.4-0.3,0.5-0.4v-1h-0.9c-0.4,0-0.7,0.1-0.8,0.3s-0.3,0.4-0.3,0.6c0,0.2,0.1,0.4,0.2,0.5
			C484.5,144.3,484.6,144.4,484.9,144.4z"/>
		<path class="st1" d="M489,144.5l0.8-0.2v-4l-0.9-0.2v-1.1h2.7v5.2l0.8,0.2v1H489V144.5z M491.6,137.5h-1.7v-1.3h1.7V137.5z"/>
	</g>
	<g class="st0">
		<path class="st1" d="M492.9,144.5l0.8-0.2v-4l-0.9-0.2v-1.1h2.6l0.1,0.9c0.2-0.3,0.5-0.6,0.8-0.8c0.3-0.2,0.7-0.3,1.1-0.3
			c0.7,0,1.2,0.2,1.5,0.6c0.4,0.4,0.5,1.1,0.5,1.9v2.8l0.8,0.2v1h-3.3v-1l0.7-0.2v-2.8c0-0.4-0.1-0.7-0.3-0.9
			c-0.2-0.2-0.4-0.3-0.8-0.3c-0.2,0-0.4,0-0.6,0.1s-0.3,0.2-0.5,0.4v3.5l0.7,0.2v1h-3.3V144.5z"/>
	</g>
	<g class="st0">
		<path class="st1" d="M503.8,145.7c-0.9,0-1.7-0.3-2.2-0.9c-0.6-0.6-0.8-1.4-0.8-2.3v-0.2c0-1,0.3-1.8,0.8-2.4
			c0.5-0.6,1.2-0.9,2.1-0.9c0.9,0,1.5,0.3,2,0.8c0.5,0.5,0.7,1.2,0.7,2.1v1h-3.9l0,0c0,0.4,0.2,0.8,0.4,1.1c0.3,0.3,0.6,0.4,1,0.4
			c0.4,0,0.7,0,1-0.1c0.3-0.1,0.5-0.2,0.8-0.4l0.5,1.1c-0.3,0.2-0.6,0.4-1,0.5C504.8,145.6,504.3,145.7,503.8,145.7z M503.6,140.3
			c-0.3,0-0.6,0.1-0.8,0.4c-0.2,0.2-0.3,0.6-0.3,1l0,0h2.1v-0.2c0-0.4-0.1-0.7-0.3-0.9C504.2,140.4,504,140.3,503.6,140.3z"/>
		<path class="st1" d="M507.3,144.5l0.8-0.2v-4l-0.9-0.2v-1.1h2.6l0.1,0.9c0.2-0.3,0.3-0.6,0.6-0.8c0.2-0.2,0.5-0.3,0.8-0.3
			c0.1,0,0.2,0,0.3,0c0.1,0,0.2,0,0.3,0.1l-0.2,1.6l-0.7,0c-0.3,0-0.5,0-0.6,0.1c-0.2,0.1-0.3,0.2-0.4,0.4v3.1l0.8,0.2v1h-3.4V144.5
			z"/>
	</g>
	<g class="st0">
		<path class="st1" d="M469,156.4H466v2.5h2.8l0.1-1h1.3v2.4h-6.9v-1l0.9-0.2v-6.2l-0.9-0.2v-1.1h0.9h5.9v2.4h-1.3l-0.1-1H466v2.2
			h2.9V156.4z"/>
	</g>
	<g class="st0">
		<path class="st1" d="M471.1,159.2l0.8-0.2v-4l-0.9-0.2v-1.1h2.6l0.1,0.9c0.2-0.3,0.5-0.6,0.8-0.8c0.3-0.2,0.7-0.3,1.1-0.3
			c0.7,0,1.2,0.2,1.5,0.6c0.4,0.4,0.5,1.1,0.5,1.9v2.8l0.8,0.2v1h-3.3v-1l0.7-0.2v-2.8c0-0.4-0.1-0.7-0.3-0.9
			c-0.2-0.2-0.4-0.3-0.8-0.3c-0.2,0-0.4,0-0.6,0.1s-0.3,0.2-0.5,0.4v3.5l0.7,0.2v1h-3.3V159.2z"/>
	</g>
	<g class="st0">
		<path class="st1" d="M479.1,157.1c0-1,0.2-1.8,0.7-2.5c0.4-0.6,1.1-0.9,1.9-0.9c0.4,0,0.7,0.1,1,0.2c0.3,0.2,0.5,0.4,0.7,0.7
			l0.1-0.8h1.5v6.3c0,0.9-0.3,1.5-0.8,2c-0.5,0.5-1.3,0.8-2.2,0.8c-0.3,0-0.7,0-1-0.1c-0.4-0.1-0.7-0.2-1-0.4l0.3-1.2
			c0.3,0.1,0.6,0.2,0.8,0.3c0.3,0.1,0.6,0.1,0.9,0.1c0.4,0,0.7-0.1,1-0.4c0.2-0.3,0.3-0.6,0.3-1.1v-0.4c-0.2,0.2-0.4,0.4-0.7,0.6
			c-0.3,0.1-0.6,0.2-0.9,0.2c-0.8,0-1.4-0.3-1.9-0.9s-0.7-1.4-0.7-2.3V157.1z M480.8,157.2c0,0.6,0.1,1,0.3,1.3
			c0.2,0.3,0.5,0.5,0.9,0.5c0.3,0,0.5,0,0.7-0.1c0.2-0.1,0.3-0.2,0.4-0.4v-2.8c-0.1-0.2-0.3-0.3-0.4-0.5c-0.2-0.1-0.4-0.2-0.7-0.2
			c-0.4,0-0.7,0.2-0.9,0.6c-0.2,0.4-0.3,0.9-0.3,1.5V157.2z"/>
		<path class="st1" d="M485.9,159.2l0.8-0.2v-4l-0.9-0.2v-1.1h2.7v5.2l0.8,0.2v1h-3.4V159.2z M488.5,152.2h-1.7v-1.3h1.7V152.2z"/>
	</g>
	<g class="st0">
		<path class="st1" d="M489.8,159.2l0.8-0.2v-4l-0.9-0.2v-1.1h2.6l0.1,0.9c0.2-0.3,0.5-0.6,0.8-0.8c0.3-0.2,0.7-0.3,1.1-0.3
			c0.7,0,1.2,0.2,1.5,0.6c0.4,0.4,0.6,1.1,0.6,1.9v2.8l0.8,0.2v1h-3.3v-1l0.7-0.2v-2.8c0-0.4-0.1-0.7-0.3-0.9
			c-0.2-0.2-0.4-0.3-0.8-0.3c-0.2,0-0.4,0-0.6,0.1c-0.2,0.1-0.3,0.2-0.5,0.4v3.5l0.7,0.2v1h-3.3V159.2z"/>
	</g>
	<g class="st0">
		<path class="st1" d="M500.7,160.4c-0.9,0-1.7-0.3-2.2-0.9s-0.8-1.4-0.8-2.3V157c0-1,0.3-1.8,0.8-2.4c0.5-0.6,1.2-0.9,2.1-0.9
			c0.9,0,1.5,0.3,2,0.8c0.5,0.5,0.7,1.2,0.7,2.1v1h-3.9l0,0c0,0.4,0.2,0.8,0.4,1.1c0.3,0.3,0.6,0.4,1,0.4c0.4,0,0.7,0,1-0.1
			c0.3-0.1,0.5-0.2,0.8-0.4l0.5,1.1c-0.3,0.2-0.6,0.4-1,0.5C501.7,160.3,501.2,160.4,500.7,160.4z M500.5,155
			c-0.3,0-0.6,0.1-0.8,0.4c-0.2,0.2-0.3,0.6-0.3,1l0,0h2.1v-0.2c0-0.4-0.1-0.7-0.3-0.9C501.1,155.1,500.9,155,500.5,155z"/>
	</g>
	<path class="st13" d="M240.9,292.9h160.9c2.8,0,5,2.2,5,5v20.6c0,2.8-2.2,5-5,5H240.9c-2.8,0-5-2.2-5-5v-20.6
		C235.9,295.2,238.2,292.9,240.9,292.9z"/>
	<g class="st0">
		<path class="st1" d="M278.1,307.8c0,1.3-0.4,2.3-1.1,3.2c-0.7,0.8-1.7,1.3-2.9,1.3c-1.2,0-2.1-0.4-2.8-1.3
			c-0.7-0.8-1.1-1.9-1.1-3.2v-0.1c0-1.3,0.4-2.3,1.1-3.2c0.7-0.8,1.7-1.3,2.8-1.3c1.2,0,2.1,0.4,2.9,1.3c0.7,0.8,1.1,1.9,1.1,3.2
			V307.8z M276.4,307.7c0-0.9-0.2-1.6-0.6-2.2c-0.4-0.6-0.9-0.8-1.7-0.8s-1.3,0.3-1.6,0.8s-0.5,1.3-0.5,2.2v0.1
			c0,0.9,0.2,1.7,0.5,2.2c0.4,0.6,0.9,0.8,1.6,0.8c0.7,0,1.3-0.3,1.7-0.8c0.4-0.6,0.6-1.3,0.6-2.2V307.7z"/>
		<path class="st1" d="M278.7,306.7v-1.1h2.5l0.1,0.8c0.2-0.3,0.4-0.5,0.7-0.6c0.3-0.2,0.6-0.2,0.9-0.2c0.8,0,1.4,0.3,1.9,0.9
			c0.4,0.6,0.7,1.4,0.7,2.5v0.1c0,1-0.2,1.7-0.7,2.3s-1.1,0.9-1.9,0.9c-0.3,0-0.6-0.1-0.9-0.2c-0.3-0.1-0.5-0.3-0.7-0.6v1.9l0.8,0.2
			v1.1h-3.4v-1.1l0.8-0.2v-6.5L278.7,306.7z M283.7,308.9c0-0.6-0.1-1.1-0.3-1.5c-0.2-0.4-0.5-0.6-0.9-0.6c-0.3,0-0.5,0.1-0.7,0.2
			c-0.2,0.1-0.3,0.3-0.4,0.5v2.8c0.1,0.2,0.3,0.3,0.4,0.4c0.2,0.1,0.4,0.1,0.7,0.1c0.4,0,0.7-0.2,0.9-0.5c0.2-0.3,0.3-0.8,0.3-1.3
			V308.9z"/>
		<path class="st1" d="M289.3,312.2c-0.9,0-1.7-0.3-2.2-0.9c-0.6-0.6-0.8-1.4-0.8-2.3v-0.2c0-1,0.3-1.8,0.8-2.4
			c0.5-0.6,1.2-0.9,2.1-0.9c0.9,0,1.5,0.3,2,0.8c0.5,0.5,0.7,1.2,0.7,2.1v1h-3.9l0,0c0,0.4,0.2,0.8,0.4,1.1c0.3,0.3,0.6,0.4,1,0.4
			c0.4,0,0.7,0,1-0.1c0.3-0.1,0.5-0.2,0.8-0.4l0.5,1.1c-0.3,0.2-0.6,0.4-1,0.5C290.3,312.2,289.9,312.2,289.3,312.2z M289.2,306.9
			c-0.3,0-0.6,0.1-0.8,0.4s-0.3,0.6-0.3,1l0,0h2.1v-0.2c0-0.4-0.1-0.7-0.3-0.9C289.8,307,289.5,306.9,289.2,306.9z"/>
	</g>
	<g class="st0">
		<path class="st1" d="M292.9,311.1l0.8-0.2v-4l-0.9-0.2v-1.1h2.6l0.1,0.9c0.2-0.3,0.3-0.6,0.6-0.8c0.2-0.2,0.5-0.3,0.8-0.3
			c0.1,0,0.2,0,0.3,0c0.1,0,0.2,0,0.3,0.1l-0.2,1.6l-0.7,0c-0.3,0-0.5,0-0.6,0.1c-0.2,0.1-0.3,0.2-0.4,0.4v3.1l0.8,0.2v1h-3.4V311.1
			z"/>
	</g>
	<g class="st0">
		<path class="st1" d="M301.9,312.1c0-0.1-0.1-0.2-0.1-0.3c0-0.1-0.1-0.2-0.1-0.3c-0.2,0.2-0.5,0.4-0.8,0.6s-0.6,0.2-1,0.2
			c-0.6,0-1.1-0.2-1.5-0.5c-0.4-0.3-0.6-0.8-0.6-1.4c0-0.6,0.2-1.1,0.7-1.4c0.5-0.3,1.2-0.5,2.1-0.5h0.9v-0.6c0-0.3-0.1-0.6-0.3-0.7
			c-0.2-0.2-0.4-0.3-0.8-0.3c-0.2,0-0.4,0-0.5,0.1s-0.3,0.1-0.4,0.2l-0.1,0.7h-1.3l0-1.4c0.3-0.2,0.7-0.4,1.1-0.5s0.9-0.2,1.3-0.2
			c0.8,0,1.5,0.2,2,0.6c0.5,0.4,0.8,1,0.8,1.7v2.7c0,0.1,0,0.2,0,0.3c0,0.1,0,0.2,0,0.3l0.5,0.1v1H301.9z M300.4,310.9
			c0.3,0,0.5-0.1,0.7-0.2s0.4-0.3,0.5-0.4v-1h-0.9c-0.4,0-0.7,0.1-0.8,0.3s-0.3,0.4-0.3,0.6c0,0.2,0.1,0.4,0.2,0.5
			C300,310.9,300.2,310.9,300.4,310.9z"/>
	</g>
	<g class="st0">
		<path class="st1" d="M306.6,304.1v1.6h1.1v1.2h-1.1v3.3c0,0.3,0.1,0.4,0.2,0.5s0.2,0.2,0.4,0.2c0.1,0,0.2,0,0.3,0
			c0.1,0,0.2,0,0.3-0.1l0.1,1.3c-0.2,0.1-0.4,0.1-0.6,0.1c-0.2,0-0.4,0-0.6,0c-0.6,0-1.1-0.2-1.4-0.5c-0.3-0.3-0.5-0.9-0.5-1.6v-3.3
			h-1v-1.2h1v-1.6H306.6z"/>
		<path class="st1" d="M308.6,311.1l0.8-0.2v-4l-0.9-0.2v-1.1h2.7v5.2l0.8,0.2v1h-3.4V311.1z M311.2,304.1h-1.7v-1.3h1.7V304.1z"/>
	</g>
	<g class="st0">
		<path class="st1" d="M312.5,311.1l0.8-0.2v-4l-0.9-0.2v-1.1h2.6l0.1,0.9c0.2-0.3,0.5-0.6,0.8-0.8c0.3-0.2,0.7-0.3,1.1-0.3
			c0.7,0,1.2,0.2,1.5,0.6c0.4,0.4,0.5,1.1,0.5,1.9v2.8l0.8,0.2v1h-3.3v-1l0.7-0.2v-2.8c0-0.4-0.1-0.7-0.3-0.9
			c-0.2-0.2-0.4-0.3-0.8-0.3c-0.2,0-0.4,0-0.6,0.1c-0.2,0.1-0.3,0.2-0.5,0.4v3.5l0.7,0.2v1h-3.3V311.1z"/>
	</g>
	<g class="st0">
		<path class="st1" d="M320.4,308.9c0-1,0.2-1.8,0.7-2.5c0.4-0.6,1.1-0.9,1.9-0.9c0.4,0,0.7,0.1,1,0.2c0.3,0.2,0.5,0.4,0.7,0.7
			l0.1-0.8h1.5v6.3c0,0.9-0.3,1.5-0.8,2c-0.5,0.5-1.3,0.8-2.2,0.8c-0.3,0-0.7,0-1-0.1c-0.4-0.1-0.7-0.2-1-0.4l0.3-1.2
			c0.3,0.1,0.6,0.2,0.8,0.3c0.3,0.1,0.6,0.1,0.9,0.1c0.4,0,0.7-0.1,1-0.4c0.2-0.3,0.3-0.6,0.3-1.1v-0.4c-0.2,0.2-0.4,0.4-0.7,0.6
			c-0.3,0.1-0.6,0.2-0.9,0.2c-0.8,0-1.4-0.3-1.9-0.9s-0.7-1.4-0.7-2.3V308.9z M322.1,309.1c0,0.6,0.1,1,0.3,1.3
			c0.2,0.3,0.5,0.5,0.9,0.5c0.3,0,0.5,0,0.7-0.1c0.2-0.1,0.3-0.2,0.4-0.4v-2.8c-0.1-0.2-0.3-0.3-0.4-0.5c-0.2-0.1-0.4-0.2-0.7-0.2
			c-0.4,0-0.7,0.2-0.9,0.6c-0.2,0.4-0.3,0.9-0.3,1.5V309.1z"/>
		<path class="st1" d="M336.8,306.2h-1.3l-0.2-1.2c-0.2-0.1-0.4-0.2-0.7-0.3c-0.3-0.1-0.6-0.1-0.9-0.1c-0.5,0-0.8,0.1-1.1,0.3
			c-0.3,0.2-0.4,0.5-0.4,0.8c0,0.3,0.1,0.5,0.4,0.7s0.7,0.4,1.4,0.6c1,0.3,1.7,0.6,2.2,1.1c0.5,0.4,0.7,1,0.7,1.7
			c0,0.7-0.3,1.3-0.9,1.8c-0.6,0.4-1.4,0.6-2.3,0.6c-0.7,0-1.3-0.1-1.9-0.3s-1-0.5-1.4-0.9v-1.8h1.4l0.2,1.2
			c0.2,0.1,0.4,0.3,0.7,0.4s0.6,0.1,1,0.1c0.5,0,0.8-0.1,1.1-0.3c0.2-0.2,0.4-0.5,0.4-0.8c0-0.3-0.1-0.6-0.4-0.8s-0.7-0.4-1.2-0.6
			c-1-0.3-1.8-0.7-2.3-1.1c-0.5-0.4-0.8-1-0.8-1.7c0-0.7,0.3-1.3,0.9-1.7s1.3-0.7,2.3-0.7c0.7,0,1.3,0.1,1.8,0.3s1,0.5,1.4,0.8
			V306.2z"/>
		<path class="st1" d="M344.4,306.7l-0.6,0.1l-2.4,6.3c-0.2,0.5-0.4,0.9-0.8,1.2c-0.3,0.3-0.8,0.5-1.4,0.5c-0.1,0-0.3,0-0.4,0
			c-0.1,0-0.3-0.1-0.5-0.1l0.2-1.3c0.1,0,0.1,0,0.2,0c0.1,0,0.1,0,0.2,0c0.3,0,0.5-0.1,0.7-0.2c0.2-0.1,0.3-0.3,0.4-0.5l0.2-0.5
			l-2.1-5.3l-0.6-0.1v-1.1h3.2v1.1l-0.7,0.1l0.9,2.6l0.1,0.5l0,0l1-3.1l-0.7-0.1v-1.1h3.2V306.7z"/>
		<path class="st1" d="M350.2,307.9h-1.2l-0.2-0.8c-0.1-0.1-0.3-0.2-0.5-0.2s-0.4-0.1-0.6-0.1c-0.3,0-0.5,0.1-0.7,0.2
			c-0.2,0.1-0.3,0.3-0.3,0.5c0,0.2,0.1,0.4,0.3,0.5c0.2,0.1,0.5,0.2,1,0.3c0.8,0.2,1.4,0.4,1.8,0.7c0.4,0.3,0.6,0.7,0.6,1.3
			c0,0.6-0.3,1.1-0.8,1.4c-0.5,0.4-1.2,0.6-2,0.6c-0.5,0-1-0.1-1.4-0.2c-0.4-0.1-0.8-0.4-1.1-0.6l0-1.5h1.2l0.2,0.8
			c0.1,0.1,0.2,0.2,0.4,0.2s0.4,0.1,0.6,0.1c0.4,0,0.6-0.1,0.8-0.2c0.2-0.1,0.3-0.3,0.3-0.5c0-0.2-0.1-0.4-0.3-0.5
			c-0.2-0.1-0.5-0.3-1-0.4c-0.8-0.2-1.3-0.4-1.7-0.7s-0.6-0.7-0.6-1.2c0-0.5,0.2-1,0.7-1.4s1.1-0.6,1.9-0.6c0.5,0,1,0.1,1.4,0.2
			s0.8,0.3,1.1,0.5L350.2,307.9z"/>
		<path class="st1" d="M353.8,304.1v1.6h1.1v1.2h-1.1v3.3c0,0.3,0.1,0.4,0.2,0.5s0.2,0.2,0.4,0.2c0.1,0,0.2,0,0.3,0
			c0.1,0,0.2,0,0.3-0.1l0.1,1.3c-0.2,0.1-0.4,0.1-0.6,0.1c-0.2,0-0.4,0-0.6,0c-0.6,0-1.1-0.2-1.4-0.5c-0.3-0.3-0.5-0.9-0.5-1.6v-3.3
			h-1v-1.2h1v-1.6H353.8z"/>
		<path class="st1" d="M358.9,312.2c-0.9,0-1.7-0.3-2.2-0.9c-0.6-0.6-0.8-1.4-0.8-2.3v-0.2c0-1,0.3-1.8,0.8-2.4
			c0.5-0.6,1.2-0.9,2.1-0.9c0.9,0,1.5,0.3,2,0.8c0.5,0.5,0.7,1.2,0.7,2.1v1h-3.9l0,0c0,0.4,0.2,0.8,0.4,1.1c0.3,0.3,0.6,0.4,1,0.4
			c0.4,0,0.7,0,1-0.1c0.3-0.1,0.5-0.2,0.8-0.4l0.5,1.1c-0.3,0.2-0.6,0.4-1,0.5C359.9,312.2,359.4,312.2,358.9,312.2z M358.8,306.9
			c-0.3,0-0.6,0.1-0.8,0.4s-0.3,0.6-0.3,1l0,0h2.1v-0.2c0-0.4-0.1-0.7-0.3-0.9C359.4,307,359.1,306.9,358.8,306.9z"/>
		<path class="st1" d="M362.1,306.7v-1.1h2.6l0.1,0.9c0.2-0.3,0.5-0.6,0.8-0.7c0.3-0.2,0.7-0.3,1.1-0.3c0.4,0,0.8,0.1,1.1,0.3
			c0.3,0.2,0.5,0.5,0.7,0.8c0.2-0.3,0.5-0.6,0.8-0.8c0.3-0.2,0.7-0.3,1.1-0.3c0.6,0,1.1,0.2,1.5,0.7c0.4,0.4,0.6,1.1,0.6,2v2.7
			l0.8,0.2v1h-3.3v-1l0.8-0.2v-2.7c0-0.5-0.1-0.8-0.2-1s-0.4-0.3-0.7-0.3c-0.2,0-0.5,0.1-0.6,0.2c-0.2,0.1-0.3,0.3-0.4,0.5
			c0,0.1,0,0.1,0,0.2s0,0.1,0,0.2v3l0.7,0.2v1h-3.1v-1l0.7-0.2v-2.7c0-0.5-0.1-0.8-0.2-1c-0.2-0.2-0.4-0.3-0.7-0.3
			c-0.2,0-0.4,0-0.6,0.1c-0.2,0.1-0.3,0.2-0.4,0.4v3.5l0.8,0.2v1h-3.3v-1l0.8-0.2v-4L362.1,306.7z"/>
	</g>
	<path class="st14" d="M240.9,333.6h160.9c2.8,0,5,2.2,5,5v20.6c0,2.8-2.2,5-5,5H240.9c-2.8,0-5-2.2-5-5v-20.6
		C235.9,335.8,238.2,333.6,240.9,333.6z"/>
	<g class="st0">
		<path class="st1" d="M308.3,345.1v-1.1h3.6v1.1l-0.9,0.2v2.5h3.5v-2.5l-0.9-0.2v-1.1h0.9h1.7h0.9v1.1l-0.9,0.2v6.2l0.9,0.2v1h-3.6
			v-1l0.9-0.2v-2.4h-3.5v2.4l0.9,0.2v1h-3.6v-1l0.9-0.2v-6.2L308.3,345.1z"/>
		<path class="st1" d="M317.9,349.5c0-1,0.3-1.8,0.8-2.4c0.5-0.6,1.3-0.9,2.2-0.9c1,0,1.7,0.3,2.2,0.9c0.5,0.6,0.8,1.4,0.8,2.4v0.1
			c0,1-0.3,1.8-0.8,2.4s-1.3,0.9-2.2,0.9c-1,0-1.7-0.3-2.3-0.9s-0.8-1.4-0.8-2.4V349.5z M319.6,349.6c0,0.6,0.1,1.1,0.3,1.4
			s0.5,0.5,1,0.5c0.5,0,0.8-0.2,1-0.5s0.3-0.8,0.3-1.4v-0.1c0-0.6-0.1-1-0.3-1.4c-0.2-0.4-0.5-0.5-1-0.5s-0.8,0.2-1,0.5
			c-0.2,0.4-0.3,0.8-0.3,1.4V349.6z"/>
		<path class="st1" d="M330,348.5h-1.2l-0.2-0.8c-0.1-0.1-0.3-0.2-0.5-0.2c-0.2-0.1-0.4-0.1-0.6-0.1c-0.3,0-0.5,0.1-0.7,0.2
			c-0.2,0.1-0.3,0.3-0.3,0.5c0,0.2,0.1,0.4,0.3,0.5c0.2,0.1,0.5,0.2,1,0.3c0.8,0.2,1.4,0.4,1.8,0.7s0.6,0.7,0.6,1.3
			c0,0.6-0.3,1.1-0.8,1.4c-0.5,0.4-1.2,0.6-2,0.6c-0.5,0-1-0.1-1.4-0.2c-0.4-0.1-0.8-0.4-1.1-0.6l0-1.5h1.2l0.2,0.8
			c0.1,0.1,0.2,0.2,0.4,0.2c0.2,0,0.4,0.1,0.6,0.1c0.4,0,0.6-0.1,0.8-0.2c0.2-0.1,0.3-0.3,0.3-0.5c0-0.2-0.1-0.4-0.3-0.5
			c-0.2-0.1-0.5-0.3-1-0.4c-0.8-0.2-1.3-0.4-1.7-0.7c-0.4-0.3-0.6-0.7-0.6-1.2c0-0.5,0.2-1,0.7-1.4s1.1-0.6,1.9-0.6
			c0.5,0,1,0.1,1.4,0.2s0.8,0.3,1.1,0.5L330,348.5z"/>
		<path class="st1" d="M333.6,344.7v1.6h1.1v1.2h-1.1v3.3c0,0.3,0.1,0.4,0.2,0.5s0.2,0.2,0.4,0.2c0.1,0,0.2,0,0.3,0
			c0.1,0,0.2,0,0.3-0.1l0.1,1.3c-0.2,0.1-0.4,0.1-0.6,0.1c-0.2,0-0.4,0-0.6,0c-0.6,0-1.1-0.2-1.4-0.5c-0.3-0.3-0.5-0.9-0.5-1.6v-3.3
			h-1v-1.2h1v-1.6H333.6z"/>
	</g>
</g>
<g id="Ebene_4">
	<g class="st0">
		<path class="st1" d="M96.7,96.1v-3.4c0-0.6-0.1-1.1-0.3-1.4c-0.2-0.3-0.5-0.5-1-0.5c-0.4,0-0.8,0.1-1.1,0.3
			c-0.3,0.2-0.5,0.5-0.6,0.9v4.1h-1v-6h0.7l0.2,0.7h0c0.2-0.3,0.5-0.5,0.8-0.6c0.3-0.2,0.7-0.2,1.2-0.2c0.3,0,0.6,0,0.9,0.1
			c0.2,0.1,0.5,0.2,0.6,0.4s0.3,0.5,0.4,0.8c0.1,0.3,0.1,0.7,0.1,1.2v3.6H96.7z"/>
		<path class="st1" d="M99.1,93.1c0-1,0.2-1.8,0.7-2.3s1.1-0.8,2-0.8c0.4,0,0.8,0.1,1.2,0.2s0.6,0.4,0.8,0.6c0.2,0.3,0.4,0.6,0.5,1
			c0.1,0.4,0.2,0.8,0.2,1.3c0,1-0.2,1.8-0.7,2.3c-0.5,0.5-1.1,0.8-2,0.8c-0.4,0-0.8-0.1-1.2-0.2c-0.3-0.1-0.6-0.4-0.8-0.6
			c-0.2-0.3-0.4-0.6-0.5-1C99.2,94,99.1,93.5,99.1,93.1z M100.1,93.1c0,0.3,0,0.6,0.1,0.9c0.1,0.3,0.2,0.5,0.3,0.7s0.3,0.4,0.5,0.5
			s0.5,0.2,0.8,0.2c1.1,0,1.6-0.8,1.6-2.3c0-0.3,0-0.6-0.1-0.9s-0.2-0.5-0.3-0.7s-0.3-0.4-0.5-0.5s-0.5-0.2-0.8-0.2
			C100.7,90.7,100.1,91.5,100.1,93.1z"/>
		<path class="st1" d="M109,90.5c0.3-0.2,0.7-0.3,1.1-0.4s0.8-0.1,1.3-0.1c0.4,0,0.8,0.1,1,0.2c0.3,0.1,0.4,0.3,0.6,0.4
			c0.1,0.2,0.2,0.4,0.3,0.6c0,0.2,0.1,0.4,0.1,0.6c0,0.5,0,0.9,0,1.4c0,0.5,0,0.9,0,1.3c0,0.3,0,0.6,0,0.8c0,0.3,0.1,0.5,0.1,0.7
			h-0.7l-0.3-0.8h-0.1c-0.1,0.1-0.2,0.2-0.3,0.3c-0.1,0.1-0.2,0.2-0.4,0.3c-0.2,0.1-0.3,0.2-0.5,0.2c-0.2,0.1-0.4,0.1-0.7,0.1
			s-0.5,0-0.7-0.1c-0.2-0.1-0.4-0.2-0.6-0.3c-0.2-0.1-0.3-0.3-0.4-0.5c-0.1-0.2-0.1-0.4-0.1-0.7c0-0.4,0.1-0.6,0.2-0.9
			c0.1-0.2,0.3-0.4,0.6-0.6c0.3-0.1,0.6-0.2,0.9-0.3c0.4-0.1,0.8-0.1,1.2-0.1c0.1,0,0.2,0,0.3,0s0.2,0,0.3,0c0-0.2,0-0.5,0-0.6
			c0-0.4-0.1-0.7-0.3-0.9c-0.2-0.2-0.5-0.3-1-0.3c-0.1,0-0.3,0-0.4,0c-0.2,0-0.3,0-0.5,0.1s-0.3,0.1-0.5,0.1
			c-0.1,0.1-0.3,0.1-0.4,0.2L109,90.5z M110.7,95.3c0.2,0,0.4,0,0.6-0.1s0.3-0.1,0.5-0.2c0.1-0.1,0.2-0.2,0.3-0.3
			c0.1-0.1,0.1-0.2,0.2-0.3v-1c-0.1,0-0.2,0-0.3,0c-0.1,0-0.2,0-0.3,0c-0.2,0-0.5,0-0.7,0s-0.4,0.1-0.6,0.2s-0.3,0.2-0.4,0.3
			c-0.1,0.1-0.2,0.3-0.2,0.5c0,0.3,0.1,0.5,0.3,0.7C110.1,95.2,110.4,95.3,110.7,95.3z"/>
	</g>
	<g class="st0">
		<path class="st1" d="M119.1,95.7c-0.2,0.2-0.5,0.3-0.9,0.4c-0.3,0.1-0.7,0.1-1,0.1c-0.5,0-0.9-0.1-1.2-0.2
			c-0.3-0.1-0.6-0.4-0.8-0.6c-0.2-0.3-0.4-0.6-0.4-1c-0.1-0.4-0.1-0.8-0.1-1.3c0-1,0.2-1.8,0.7-2.3c0.4-0.5,1.1-0.8,1.9-0.8
			c0.4,0,0.7,0,1,0.1c0.3,0.1,0.5,0.1,0.7,0.3l-0.3,0.8c-0.2-0.1-0.4-0.2-0.6-0.2c-0.2-0.1-0.5-0.1-0.7-0.1c-1.1,0-1.7,0.8-1.7,2.3
			c0,0.3,0,0.6,0.1,0.9s0.2,0.5,0.3,0.7c0.1,0.2,0.3,0.4,0.6,0.5s0.5,0.2,0.8,0.2c0.3,0,0.5,0,0.8-0.1s0.4-0.2,0.6-0.3L119.1,95.7z"
			/>
		<path class="st1" d="M124,95.7c-0.2,0.2-0.5,0.3-0.9,0.4c-0.3,0.1-0.7,0.1-1,0.1c-0.5,0-0.9-0.1-1.2-0.2c-0.3-0.1-0.6-0.4-0.8-0.6
			c-0.2-0.3-0.4-0.6-0.4-1c-0.1-0.4-0.1-0.8-0.1-1.3c0-1,0.2-1.8,0.7-2.3c0.4-0.5,1.1-0.8,1.9-0.8c0.4,0,0.7,0,1,0.1
			c0.3,0.1,0.5,0.1,0.7,0.3l-0.3,0.8c-0.2-0.1-0.4-0.2-0.6-0.2c-0.2-0.1-0.5-0.1-0.7-0.1c-1.1,0-1.7,0.8-1.7,2.3
			c0,0.3,0,0.6,0.1,0.9s0.2,0.5,0.3,0.7c0.1,0.2,0.3,0.4,0.6,0.5s0.5,0.2,0.8,0.2c0.3,0,0.5,0,0.8-0.1s0.4-0.2,0.6-0.3L124,95.7z"/>
	</g>
	<g class="st0">
		<path class="st1" d="M129.7,95.6c-0.2,0.2-0.5,0.3-0.9,0.5c-0.4,0.1-0.8,0.2-1.2,0.2c-0.5,0-0.9-0.1-1.2-0.2
			c-0.3-0.1-0.6-0.4-0.8-0.6c-0.2-0.3-0.4-0.6-0.5-1c-0.1-0.4-0.2-0.8-0.2-1.3c0-1,0.2-1.8,0.7-2.3s1.1-0.8,2-0.8
			c0.3,0,0.5,0,0.8,0.1c0.3,0.1,0.5,0.2,0.7,0.3c0.2,0.2,0.4,0.4,0.5,0.7c0.1,0.3,0.2,0.7,0.2,1.2c0,0.3,0,0.6-0.1,0.9H126
			c0,0.4,0,0.7,0.1,0.9c0.1,0.3,0.2,0.5,0.3,0.7c0.2,0.2,0.4,0.3,0.6,0.4c0.2,0.1,0.5,0.1,0.9,0.1c0.3,0,0.5,0,0.8-0.1
			s0.5-0.2,0.6-0.3L129.7,95.6z M127.6,90.8c-0.5,0-0.9,0.1-1.1,0.4c-0.3,0.2-0.5,0.7-0.5,1.3h3c0-0.6-0.1-1-0.3-1.3
			C128.4,90.9,128.1,90.8,127.6,90.8z"/>
		<path class="st1" d="M134,94.4c0-0.2-0.1-0.4-0.2-0.6c-0.1-0.1-0.3-0.3-0.5-0.3s-0.4-0.2-0.7-0.3s-0.5-0.2-0.7-0.3
			s-0.4-0.3-0.5-0.5s-0.2-0.5-0.2-0.8c0-0.6,0.2-1,0.5-1.3c0.3-0.3,0.8-0.4,1.4-0.4c0.4,0,0.8,0,1.1,0.1c0.3,0.1,0.5,0.2,0.8,0.3
			l-0.2,0.8c-0.2-0.1-0.4-0.2-0.7-0.2c-0.3-0.1-0.5-0.1-0.8-0.1c-0.4,0-0.6,0.1-0.8,0.2s-0.2,0.3-0.2,0.6c0,0.2,0.1,0.4,0.2,0.5
			s0.3,0.2,0.5,0.3s0.4,0.2,0.7,0.3s0.5,0.2,0.7,0.3s0.4,0.3,0.5,0.5s0.2,0.5,0.2,0.9c0,0.3,0,0.5-0.1,0.7c-0.1,0.2-0.2,0.4-0.4,0.6
			c-0.2,0.2-0.4,0.3-0.7,0.4c-0.3,0.1-0.6,0.1-0.9,0.1c-0.5,0-0.8,0-1.2-0.1s-0.6-0.2-0.8-0.3l0.3-0.8c0.2,0.1,0.4,0.2,0.7,0.3
			s0.6,0.1,0.9,0.1c0.3,0,0.6-0.1,0.9-0.2C133.9,95,134,94.8,134,94.4z"/>
		<path class="st1" d="M139.1,94.4c0-0.2-0.1-0.4-0.2-0.6c-0.1-0.1-0.3-0.3-0.5-0.3s-0.4-0.2-0.7-0.3s-0.5-0.2-0.7-0.3
			s-0.4-0.3-0.5-0.5s-0.2-0.5-0.2-0.8c0-0.6,0.2-1,0.5-1.3c0.3-0.3,0.8-0.4,1.4-0.4c0.4,0,0.8,0,1.1,0.1c0.3,0.1,0.5,0.2,0.8,0.3
			l-0.2,0.8c-0.2-0.1-0.4-0.2-0.7-0.2c-0.3-0.1-0.5-0.1-0.8-0.1c-0.4,0-0.6,0.1-0.8,0.2s-0.2,0.3-0.2,0.6c0,0.2,0.1,0.4,0.2,0.5
			s0.3,0.2,0.5,0.3s0.4,0.2,0.7,0.3s0.5,0.2,0.7,0.3s0.4,0.3,0.5,0.5s0.2,0.5,0.2,0.9c0,0.3,0,0.5-0.1,0.7c-0.1,0.2-0.2,0.4-0.4,0.6
			c-0.2,0.2-0.4,0.3-0.7,0.4c-0.3,0.1-0.6,0.1-0.9,0.1c-0.5,0-0.8,0-1.2-0.1s-0.6-0.2-0.8-0.3l0.3-0.8c0.2,0.1,0.4,0.2,0.7,0.3
			s0.6,0.1,0.9,0.1c0.3,0,0.6-0.1,0.9-0.2C139,95,139.1,94.8,139.1,94.4z"/>
	</g>
	<g class="st0">
		<path class="st1" d="M84,104.5h0.9v-0.3c0-0.4,0-0.7,0.1-1c0.1-0.3,0.2-0.5,0.3-0.7c0.1-0.2,0.3-0.3,0.5-0.4
			c0.2-0.1,0.5-0.1,0.8-0.1c0.3,0,0.5,0,0.7,0s0.4,0.1,0.6,0.2l-0.2,0.8c-0.2-0.1-0.4-0.1-0.5-0.2c-0.2,0-0.3,0-0.5,0
			c-0.2,0-0.4,0-0.5,0.1c-0.1,0.1-0.2,0.2-0.3,0.3c-0.1,0.1-0.1,0.3-0.1,0.5s0,0.4,0,0.6v0.2h1.6v0.8h-1.6v5.2h-1v-5.2H84V104.5z"/>
		<path class="st1" d="M91.3,105.4c-0.2-0.1-0.5-0.1-0.7-0.1c-0.3,0-0.6,0.1-0.8,0.3c-0.2,0.2-0.3,0.4-0.4,0.7v4.2h-1v-6h0.7
			l0.2,0.7h0c0.2-0.3,0.3-0.5,0.5-0.6c0.2-0.1,0.5-0.2,0.8-0.2c0.2,0,0.5,0,0.8,0.1L91.3,105.4z"/>
		<path class="st1" d="M92.2,107.5c0-1,0.2-1.8,0.7-2.3c0.5-0.5,1.1-0.8,1.9-0.8c0.4,0,0.8,0.1,1.2,0.2c0.3,0.1,0.6,0.4,0.8,0.6
			c0.2,0.3,0.4,0.6,0.5,1c0.1,0.4,0.2,0.8,0.2,1.3c0,1-0.2,1.8-0.7,2.3s-1.1,0.8-2,0.8c-0.4,0-0.8-0.1-1.2-0.2
			c-0.3-0.1-0.6-0.4-0.8-0.6c-0.2-0.3-0.4-0.6-0.5-1S92.2,107.9,92.2,107.5z M93.2,107.5c0,0.3,0,0.6,0.1,0.9
			c0.1,0.3,0.2,0.5,0.3,0.7s0.3,0.4,0.5,0.5s0.5,0.2,0.8,0.2c1.1,0,1.6-0.8,1.6-2.3c0-0.3,0-0.6-0.1-0.9c-0.1-0.3-0.2-0.5-0.3-0.7
			s-0.3-0.4-0.5-0.5c-0.2-0.1-0.5-0.2-0.8-0.2C93.8,105.1,93.2,105.9,93.2,107.5z"/>
		<path class="st1" d="M102.5,110.5v-3.4c0-0.3,0-0.6,0-0.8c0-0.2-0.1-0.4-0.2-0.6s-0.2-0.3-0.3-0.4c-0.1-0.1-0.3-0.1-0.6-0.1
			c-0.4,0-0.7,0.1-0.9,0.3s-0.4,0.5-0.5,0.8v4.1h-1v-6h0.7l0.2,0.7h0c0.2-0.3,0.5-0.5,0.8-0.6c0.3-0.2,0.7-0.2,1.1-0.2
			c0.4,0,0.7,0.1,0.9,0.2s0.4,0.4,0.6,0.8c0.2-0.3,0.4-0.6,0.8-0.7s0.7-0.3,1.1-0.3c0.3,0,0.6,0,0.9,0.1c0.2,0.1,0.4,0.2,0.6,0.4
			c0.2,0.2,0.3,0.5,0.3,0.8c0.1,0.3,0.1,0.7,0.1,1.2v3.6h-1v-3.6c0-0.3,0-0.5,0-0.8c0-0.2-0.1-0.4-0.2-0.5c-0.1-0.1-0.2-0.2-0.3-0.3
			c-0.1-0.1-0.3-0.1-0.6-0.1c-0.4,0-0.7,0.1-0.9,0.3c-0.2,0.2-0.4,0.5-0.5,1v4H102.5z"/>
		<path class="st1" d="M111.6,107.5c0-1,0.2-1.8,0.7-2.3c0.5-0.5,1.1-0.8,1.9-0.8c0.4,0,0.8,0.1,1.2,0.2c0.3,0.1,0.6,0.4,0.8,0.6
			c0.2,0.3,0.4,0.6,0.5,1c0.1,0.4,0.2,0.8,0.2,1.3c0,1-0.2,1.8-0.7,2.3s-1.1,0.8-2,0.8c-0.4,0-0.8-0.1-1.2-0.2
			c-0.3-0.1-0.6-0.4-0.8-0.6c-0.2-0.3-0.4-0.6-0.5-1S111.6,107.9,111.6,107.5z M112.6,107.5c0,0.3,0,0.6,0.1,0.9
			c0.1,0.3,0.2,0.5,0.3,0.7s0.3,0.4,0.5,0.5s0.5,0.2,0.8,0.2c1.1,0,1.6-0.8,1.6-2.3c0-0.3,0-0.6-0.1-0.9c-0.1-0.3-0.2-0.5-0.3-0.7
			s-0.3-0.4-0.5-0.5c-0.2-0.1-0.5-0.2-0.8-0.2C113.2,105.1,112.6,105.9,112.6,107.5z"/>
		<path class="st1" d="M119.2,104.5v3.4c0,0.3,0,0.6,0.1,0.8s0.1,0.4,0.2,0.6s0.2,0.3,0.4,0.4c0.2,0.1,0.3,0.1,0.6,0.1
			c0.2,0,0.4,0,0.6-0.1s0.3-0.2,0.5-0.3c0.1-0.1,0.2-0.3,0.3-0.4c0.1-0.2,0.2-0.3,0.2-0.5v-4h1v4.3c0,0.3,0,0.6,0,0.9
			c0,0.3,0.1,0.6,0.1,0.8h-0.7l-0.2-0.9h-0.1c-0.2,0.3-0.4,0.6-0.7,0.8c-0.3,0.2-0.7,0.3-1.2,0.3c-0.3,0-0.6,0-0.8-0.1
			c-0.2-0.1-0.4-0.2-0.6-0.4c-0.2-0.2-0.3-0.5-0.4-0.8c-0.1-0.3-0.1-0.7-0.1-1.2v-3.6H119.2z"/>
		<path class="st1" d="M124.1,104.5h0.9v-1.2l1-0.3v1.5h1.6v0.8H126v3.3c0,0.4,0.1,0.7,0.2,0.9c0.1,0.2,0.3,0.3,0.5,0.3
			c0.2,0,0.4,0,0.5-0.1c0.1,0,0.3-0.1,0.5-0.2l0.2,0.7c-0.2,0.1-0.5,0.2-0.7,0.3c-0.3,0.1-0.5,0.1-0.8,0.1c-0.5,0-0.8-0.1-1-0.4
			c-0.2-0.3-0.3-0.7-0.3-1.4v-3.5h-0.9V104.5z"/>
		<path class="st1" d="M131.6,108.8c0-0.2-0.1-0.4-0.2-0.6c-0.1-0.1-0.3-0.3-0.5-0.3s-0.4-0.2-0.7-0.3s-0.5-0.2-0.7-0.3
			s-0.4-0.3-0.5-0.5c-0.1-0.2-0.2-0.5-0.2-0.8c0-0.6,0.2-1,0.5-1.3c0.3-0.3,0.8-0.4,1.4-0.4c0.4,0,0.8,0,1.1,0.1
			c0.3,0.1,0.5,0.2,0.8,0.3l-0.2,0.8c-0.2-0.1-0.4-0.2-0.7-0.2c-0.3-0.1-0.5-0.1-0.8-0.1c-0.4,0-0.6,0.1-0.8,0.2s-0.2,0.3-0.2,0.6
			c0,0.2,0.1,0.4,0.2,0.5c0.1,0.1,0.3,0.2,0.5,0.3s0.4,0.2,0.7,0.3s0.5,0.2,0.7,0.3s0.4,0.3,0.5,0.5c0.1,0.2,0.2,0.5,0.2,0.9
			c0,0.3,0,0.5-0.1,0.7c-0.1,0.2-0.2,0.4-0.4,0.6c-0.2,0.2-0.4,0.3-0.7,0.4c-0.3,0.1-0.6,0.1-0.9,0.1c-0.5,0-0.8,0-1.2-0.1
			c-0.3-0.1-0.6-0.2-0.8-0.3l0.3-0.8c0.2,0.1,0.4,0.2,0.7,0.3s0.6,0.1,0.9,0.1c0.3,0,0.6-0.1,0.9-0.2
			C131.4,109.4,131.6,109.2,131.6,108.8z"/>
		<path class="st1" d="M134,102.6c0-0.2,0.1-0.3,0.2-0.5s0.3-0.2,0.5-0.2c0.2,0,0.4,0.1,0.5,0.2s0.2,0.3,0.2,0.5
			c0,0.2-0.1,0.3-0.2,0.5s-0.3,0.2-0.5,0.2c-0.2,0-0.3-0.1-0.5-0.2S134,102.8,134,102.6z M134.2,104.5h1v6h-1V104.5z"/>
		<path class="st1" d="M141.8,108.4c0,0.4,0,0.8,0,1.1s0,0.7,0.1,1h-0.6l-0.2-0.9h0c-0.2,0.3-0.4,0.5-0.7,0.7
			c-0.3,0.2-0.7,0.3-1.1,0.3c-0.8,0-1.4-0.3-1.8-0.8c-0.4-0.5-0.6-1.3-0.6-2.4c0-1,0.2-1.8,0.7-2.3c0.5-0.5,1.1-0.8,2-0.8
			c0.3,0,0.5,0,0.7,0c0.2,0,0.4,0.1,0.6,0.2v-2.5h1V108.4z M139.4,109.8c0.4,0,0.7-0.1,1-0.3s0.4-0.5,0.5-1v-3
			c-0.1-0.1-0.3-0.2-0.5-0.2c-0.2,0-0.4-0.1-0.7-0.1c-0.6,0-1,0.2-1.3,0.5c-0.3,0.4-0.5,0.9-0.5,1.7c0,0.3,0,0.6,0.1,0.9
			c0.1,0.3,0.1,0.5,0.3,0.7s0.3,0.4,0.5,0.5C138.9,109.7,139.1,109.8,139.4,109.8z"/>
		<path class="st1" d="M148,110c-0.2,0.2-0.5,0.3-0.9,0.5c-0.4,0.1-0.8,0.2-1.2,0.2c-0.5,0-0.9-0.1-1.2-0.2
			c-0.3-0.1-0.6-0.4-0.8-0.6c-0.2-0.3-0.4-0.6-0.5-1s-0.2-0.8-0.2-1.3c0-1,0.2-1.8,0.7-2.3s1.1-0.8,2-0.8c0.3,0,0.5,0,0.8,0.1
			c0.3,0.1,0.5,0.2,0.7,0.3s0.4,0.4,0.5,0.7c0.1,0.3,0.2,0.7,0.2,1.2c0,0.3,0,0.6-0.1,0.9h-3.9c0,0.4,0,0.7,0.1,0.9
			c0.1,0.3,0.2,0.5,0.3,0.7c0.2,0.2,0.3,0.3,0.6,0.4c0.2,0.1,0.5,0.1,0.9,0.1c0.3,0,0.5,0,0.8-0.1c0.3-0.1,0.5-0.2,0.6-0.3L148,110z
			 M146,105.2c-0.5,0-0.9,0.1-1.1,0.4c-0.3,0.2-0.5,0.7-0.5,1.3h3c0-0.6-0.1-1-0.3-1.3C146.7,105.3,146.4,105.2,146,105.2z"/>
	</g>
	<g class="st0">
		<path class="st1" d="M235.6,258.2v-3.4c0-0.6-0.1-1.1-0.3-1.4c-0.2-0.3-0.5-0.5-1-0.5c-0.4,0-0.8,0.1-1.1,0.3
			c-0.3,0.2-0.5,0.5-0.6,0.9v4.1h-1v-6h0.7l0.2,0.7h0c0.2-0.3,0.4-0.5,0.8-0.6c0.3-0.2,0.7-0.2,1.2-0.2c0.3,0,0.6,0,0.9,0.1
			c0.2,0.1,0.5,0.2,0.6,0.4s0.3,0.5,0.4,0.8c0.1,0.3,0.1,0.7,0.1,1.2v3.6H235.6z"/>
		<path class="st1" d="M238,255.2c0-1,0.2-1.8,0.7-2.3c0.5-0.5,1.1-0.8,1.9-0.8c0.4,0,0.8,0.1,1.2,0.2c0.3,0.1,0.6,0.4,0.8,0.6
			c0.2,0.3,0.4,0.6,0.5,1s0.2,0.8,0.2,1.3c0,1-0.2,1.8-0.7,2.3c-0.5,0.5-1.1,0.8-2,0.8c-0.4,0-0.8-0.1-1.2-0.2
			c-0.3-0.1-0.6-0.4-0.8-0.6c-0.2-0.3-0.4-0.6-0.5-1C238,256.1,238,255.7,238,255.2z M239,255.2c0,0.3,0,0.6,0.1,0.9
			s0.2,0.5,0.3,0.7s0.3,0.4,0.5,0.5s0.5,0.2,0.8,0.2c1.1,0,1.6-0.8,1.6-2.3c0-0.3,0-0.6-0.1-0.9c-0.1-0.3-0.2-0.5-0.3-0.7
			s-0.3-0.4-0.5-0.5c-0.2-0.1-0.5-0.2-0.8-0.2C239.5,252.9,239,253.6,239,255.2z"/>
		<path class="st1" d="M247.8,252.6c0.3-0.2,0.7-0.3,1.1-0.4c0.4-0.1,0.8-0.1,1.3-0.1c0.4,0,0.8,0.1,1,0.2c0.3,0.1,0.4,0.3,0.6,0.4
			c0.1,0.2,0.2,0.4,0.3,0.6c0,0.2,0.1,0.4,0.1,0.6c0,0.5,0,0.9,0,1.4s0,0.9,0,1.3c0,0.3,0,0.6,0,0.8s0.1,0.5,0.1,0.7h-0.7l-0.3-0.8
			h-0.1c-0.1,0.1-0.2,0.2-0.3,0.3c-0.1,0.1-0.2,0.2-0.4,0.3s-0.3,0.2-0.5,0.2c-0.2,0.1-0.4,0.1-0.7,0.1c-0.3,0-0.5,0-0.7-0.1
			c-0.2-0.1-0.4-0.2-0.6-0.3c-0.2-0.1-0.3-0.3-0.4-0.5c-0.1-0.2-0.1-0.4-0.1-0.7c0-0.4,0.1-0.6,0.2-0.9c0.1-0.2,0.3-0.4,0.6-0.6
			c0.3-0.1,0.6-0.2,0.9-0.3c0.4-0.1,0.8-0.1,1.2-0.1c0.1,0,0.2,0,0.3,0c0.1,0,0.2,0,0.3,0c0-0.2,0-0.5,0-0.6c0-0.4-0.1-0.7-0.3-0.9
			c-0.2-0.2-0.5-0.3-1-0.3c-0.1,0-0.3,0-0.4,0c-0.2,0-0.3,0-0.5,0.1s-0.3,0.1-0.5,0.1s-0.3,0.1-0.4,0.2L247.8,252.6z M249.5,257.4
			c0.2,0,0.4,0,0.6-0.1c0.2-0.1,0.3-0.1,0.5-0.2c0.1-0.1,0.2-0.2,0.3-0.3c0.1-0.1,0.1-0.2,0.2-0.3v-1c-0.1,0-0.2,0-0.3,0
			c-0.1,0-0.2,0-0.3,0c-0.2,0-0.5,0-0.7,0c-0.2,0-0.4,0.1-0.6,0.2c-0.2,0.1-0.3,0.2-0.4,0.3s-0.2,0.3-0.2,0.5c0,0.3,0.1,0.5,0.3,0.7
			C249,257.3,249.2,257.4,249.5,257.4z"/>
	</g>
	<g class="st0">
		<path class="st1" d="M258,257.8c-0.2,0.2-0.5,0.3-0.9,0.4c-0.3,0.1-0.7,0.1-1,0.1c-0.5,0-0.9-0.1-1.2-0.2
			c-0.3-0.1-0.6-0.4-0.8-0.6c-0.2-0.3-0.4-0.6-0.4-1c-0.1-0.4-0.1-0.8-0.1-1.3c0-1,0.2-1.8,0.7-2.3c0.4-0.5,1.1-0.8,1.9-0.8
			c0.4,0,0.7,0,1,0.1c0.3,0.1,0.5,0.1,0.7,0.3l-0.3,0.8c-0.2-0.1-0.4-0.2-0.6-0.2c-0.2-0.1-0.5-0.1-0.7-0.1c-1.1,0-1.7,0.8-1.7,2.3
			c0,0.3,0,0.6,0.1,0.9s0.2,0.5,0.3,0.7c0.1,0.2,0.3,0.4,0.6,0.5s0.5,0.2,0.8,0.2c0.3,0,0.5,0,0.8-0.1s0.4-0.2,0.6-0.3L258,257.8z"
			/>
		<path class="st1" d="M262.9,257.8c-0.2,0.2-0.5,0.3-0.9,0.4c-0.3,0.1-0.7,0.1-1,0.1c-0.5,0-0.9-0.1-1.2-0.2
			c-0.3-0.1-0.6-0.4-0.8-0.6c-0.2-0.3-0.4-0.6-0.4-1c-0.1-0.4-0.1-0.8-0.1-1.3c0-1,0.2-1.8,0.7-2.3c0.4-0.5,1.1-0.8,1.9-0.8
			c0.4,0,0.7,0,1,0.1c0.3,0.1,0.5,0.1,0.7,0.3l-0.3,0.8c-0.2-0.1-0.4-0.2-0.6-0.2c-0.2-0.1-0.5-0.1-0.7-0.1c-1.1,0-1.7,0.8-1.7,2.3
			c0,0.3,0,0.6,0.1,0.9s0.2,0.5,0.3,0.7c0.1,0.2,0.3,0.4,0.6,0.5s0.5,0.2,0.8,0.2c0.3,0,0.5,0,0.8-0.1s0.4-0.2,0.6-0.3L262.9,257.8z
			"/>
	</g>
	<g class="st0">
		<path class="st1" d="M268.5,257.7c-0.2,0.2-0.5,0.3-0.9,0.5c-0.4,0.1-0.8,0.2-1.2,0.2c-0.5,0-0.9-0.1-1.2-0.2
			c-0.3-0.1-0.6-0.4-0.8-0.6c-0.2-0.3-0.4-0.6-0.5-1c-0.1-0.4-0.2-0.8-0.2-1.3c0-1,0.2-1.8,0.7-2.3s1.1-0.8,2-0.8
			c0.3,0,0.5,0,0.8,0.1c0.3,0.1,0.5,0.2,0.7,0.3c0.2,0.2,0.4,0.4,0.5,0.7c0.1,0.3,0.2,0.7,0.2,1.2c0,0.3,0,0.6-0.1,0.9h-3.9
			c0,0.4,0,0.7,0.1,0.9c0.1,0.3,0.2,0.5,0.3,0.7c0.2,0.2,0.4,0.3,0.6,0.4c0.2,0.1,0.5,0.1,0.9,0.1c0.3,0,0.5,0,0.8-0.1
			s0.5-0.2,0.6-0.3L268.5,257.7z M266.5,252.9c-0.5,0-0.9,0.1-1.1,0.4c-0.3,0.2-0.5,0.7-0.5,1.3h3c0-0.6-0.1-1-0.3-1.3
			C267.2,253,266.9,252.9,266.5,252.9z"/>
		<path class="st1" d="M272.9,256.5c0-0.2-0.1-0.4-0.2-0.6c-0.1-0.1-0.3-0.3-0.5-0.3s-0.4-0.2-0.7-0.3s-0.5-0.2-0.7-0.3
			c-0.2-0.1-0.4-0.3-0.5-0.5s-0.2-0.5-0.2-0.8c0-0.6,0.2-1,0.5-1.3c0.3-0.3,0.8-0.4,1.4-0.4c0.4,0,0.8,0,1.1,0.1
			c0.3,0.1,0.5,0.2,0.8,0.3l-0.2,0.8c-0.2-0.1-0.4-0.2-0.7-0.2c-0.3-0.1-0.5-0.1-0.8-0.1c-0.4,0-0.6,0.1-0.8,0.2s-0.2,0.3-0.2,0.6
			c0,0.2,0.1,0.4,0.2,0.5s0.3,0.2,0.5,0.3c0.2,0.1,0.4,0.2,0.7,0.3s0.5,0.2,0.7,0.3s0.4,0.3,0.5,0.5s0.2,0.5,0.2,0.9
			c0,0.3,0,0.5-0.1,0.7c-0.1,0.2-0.2,0.4-0.4,0.6s-0.4,0.3-0.7,0.4s-0.6,0.1-0.9,0.1c-0.5,0-0.8,0-1.2-0.1s-0.6-0.2-0.8-0.3l0.3-0.8
			c0.2,0.1,0.4,0.2,0.7,0.3s0.6,0.1,0.9,0.1c0.3,0,0.6-0.1,0.9-0.2C272.8,257.1,272.9,256.9,272.9,256.5z"/>
		<path class="st1" d="M277.9,256.5c0-0.2-0.1-0.4-0.2-0.6c-0.1-0.1-0.3-0.3-0.5-0.3c-0.2-0.1-0.4-0.2-0.7-0.3s-0.5-0.2-0.7-0.3
			s-0.4-0.3-0.5-0.5c-0.1-0.2-0.2-0.5-0.2-0.8c0-0.6,0.2-1,0.5-1.3c0.3-0.3,0.8-0.4,1.4-0.4c0.4,0,0.8,0,1.1,0.1
			c0.3,0.1,0.5,0.2,0.8,0.3l-0.2,0.8c-0.2-0.1-0.4-0.2-0.7-0.2c-0.3-0.1-0.5-0.1-0.8-0.1c-0.4,0-0.6,0.1-0.8,0.2s-0.2,0.3-0.2,0.6
			c0,0.2,0.1,0.4,0.2,0.5c0.1,0.1,0.3,0.2,0.5,0.3s0.4,0.2,0.7,0.3s0.5,0.2,0.7,0.3c0.2,0.1,0.4,0.3,0.5,0.5
			c0.1,0.2,0.2,0.5,0.2,0.9c0,0.3,0,0.5-0.1,0.7c-0.1,0.2-0.2,0.4-0.4,0.6c-0.2,0.2-0.4,0.3-0.7,0.4c-0.3,0.1-0.6,0.1-0.9,0.1
			c-0.5,0-0.8,0-1.2-0.1c-0.3-0.1-0.6-0.2-0.8-0.3l0.3-0.8c0.2,0.1,0.4,0.2,0.7,0.3c0.3,0.1,0.6,0.1,0.9,0.1c0.3,0,0.6-0.1,0.9-0.2
			C277.8,257.1,277.9,256.9,277.9,256.5z"/>
		<path class="st1" d="M282.9,252.2h0.9v-0.3c0-0.4,0-0.7,0.1-1c0.1-0.3,0.2-0.5,0.3-0.7s0.3-0.3,0.5-0.4c0.2-0.1,0.5-0.1,0.8-0.1
			c0.3,0,0.5,0,0.7,0c0.2,0,0.4,0.1,0.6,0.2l-0.2,0.8c-0.2-0.1-0.4-0.1-0.5-0.2c-0.2,0-0.3,0-0.5,0c-0.2,0-0.4,0-0.5,0.1
			c-0.1,0.1-0.2,0.2-0.3,0.3c-0.1,0.1-0.1,0.3-0.1,0.5c0,0.2,0,0.4,0,0.6v0.2h1.6v0.8h-1.6v5.2h-1V253h-0.9V252.2z"/>
		<path class="st1" d="M290.2,253.1c-0.2-0.1-0.5-0.1-0.7-0.1c-0.3,0-0.6,0.1-0.8,0.3c-0.2,0.2-0.3,0.4-0.4,0.7v4.2h-1v-6h0.7
			l0.2,0.7h0c0.2-0.3,0.3-0.5,0.5-0.6c0.2-0.1,0.5-0.2,0.8-0.2c0.2,0,0.5,0,0.8,0.1L290.2,253.1z"/>
		<path class="st1" d="M291.1,255.2c0-1,0.2-1.8,0.7-2.3s1.1-0.8,2-0.8c0.4,0,0.8,0.1,1.2,0.2s0.6,0.4,0.8,0.6
			c0.2,0.3,0.4,0.6,0.5,1s0.2,0.8,0.2,1.3c0,1-0.2,1.8-0.7,2.3c-0.5,0.5-1.1,0.8-1.9,0.8c-0.4,0-0.8-0.1-1.2-0.2
			c-0.3-0.1-0.6-0.4-0.8-0.6c-0.2-0.3-0.4-0.6-0.5-1S291.1,255.7,291.1,255.2z M292.1,255.2c0,0.3,0,0.6,0.1,0.9
			c0.1,0.3,0.2,0.5,0.3,0.7c0.1,0.2,0.3,0.4,0.5,0.5c0.2,0.1,0.5,0.2,0.8,0.2c1.1,0,1.6-0.8,1.6-2.3c0-0.3,0-0.6-0.1-0.9
			c-0.1-0.3-0.2-0.5-0.3-0.7s-0.3-0.4-0.5-0.5c-0.2-0.1-0.5-0.2-0.8-0.2C292.7,252.9,292.1,253.6,292.1,255.2z"/>
		<path class="st1" d="M301.4,258.2v-3.4c0-0.3,0-0.6,0-0.8c0-0.2-0.1-0.4-0.2-0.6s-0.2-0.3-0.3-0.4s-0.3-0.1-0.6-0.1
			c-0.4,0-0.7,0.1-0.9,0.3s-0.4,0.5-0.5,0.8v4.1h-1v-6h0.7l0.2,0.7h0c0.2-0.3,0.5-0.5,0.8-0.6c0.3-0.2,0.7-0.2,1.1-0.2
			c0.4,0,0.7,0.1,0.9,0.2s0.4,0.4,0.6,0.8c0.2-0.3,0.4-0.6,0.8-0.7s0.7-0.3,1.1-0.3c0.3,0,0.6,0,0.9,0.1c0.2,0.1,0.4,0.2,0.6,0.4
			s0.3,0.5,0.3,0.8s0.1,0.7,0.1,1.2v3.6h-1v-3.6c0-0.3,0-0.5,0-0.8c0-0.2-0.1-0.4-0.2-0.5c-0.1-0.1-0.2-0.2-0.3-0.3
			c-0.1-0.1-0.3-0.1-0.6-0.1c-0.4,0-0.7,0.1-0.9,0.3c-0.2,0.2-0.4,0.5-0.5,1v4H301.4z"/>
	</g>
	<g class="st0">
		<path class="st1" d="M209.2,266.6h0.7l0.2,0.7h0c0.2-0.3,0.4-0.5,0.7-0.6s0.6-0.2,1-0.2c0.8,0,1.4,0.2,1.8,0.7
			c0.4,0.5,0.6,1.2,0.6,2.3c0,0.5-0.1,1-0.2,1.4s-0.3,0.7-0.6,1c-0.2,0.3-0.5,0.5-0.9,0.6c-0.3,0.2-0.7,0.2-1.1,0.2
			c-0.3,0-0.5,0-0.7-0.1s-0.4-0.1-0.6-0.2v2.5h-1V266.6z M211.6,267.3c-0.4,0-0.7,0.1-1,0.3s-0.4,0.5-0.5,1v3
			c0.1,0.1,0.3,0.2,0.5,0.3c0.2,0.1,0.4,0.1,0.7,0.1c0.6,0,1-0.2,1.3-0.6c0.3-0.4,0.5-1,0.5-1.8c0-0.3,0-0.6-0.1-0.9
			c-0.1-0.3-0.1-0.5-0.3-0.7c-0.1-0.2-0.3-0.3-0.5-0.4C212.1,267.3,211.9,267.3,211.6,267.3z"/>
		<path class="st1" d="M218.5,267.5c-0.2-0.1-0.5-0.1-0.7-0.1c-0.3,0-0.6,0.1-0.8,0.3c-0.2,0.2-0.3,0.4-0.4,0.7v4.2h-1v-6h0.7
			l0.2,0.7h0c0.2-0.3,0.3-0.5,0.5-0.6c0.2-0.1,0.5-0.2,0.8-0.2c0.2,0,0.5,0,0.8,0.1L218.5,267.5z"/>
		<path class="st1" d="M219.8,264.8c0-0.2,0.1-0.3,0.2-0.5s0.3-0.2,0.5-0.2s0.4,0.1,0.5,0.2c0.1,0.1,0.2,0.3,0.2,0.5
			c0,0.2-0.1,0.3-0.2,0.5c-0.1,0.1-0.3,0.2-0.5,0.2s-0.4-0.1-0.5-0.2S219.8,264.9,219.8,264.8z M220,266.6h1v6h-1V266.6z"/>
		<path class="st1" d="M224.7,270.1l0.3,1.1h0l0.3-1.2l1.3-3.5h1l-2.6,6.1h-0.4l-2.6-6.1h1.1L224.7,270.1z"/>
		<path class="st1" d="M228.8,264.8c0-0.2,0.1-0.3,0.2-0.5s0.3-0.2,0.5-0.2s0.4,0.1,0.5,0.2c0.1,0.1,0.2,0.3,0.2,0.5
			c0,0.2-0.1,0.3-0.2,0.5c-0.1,0.1-0.3,0.2-0.5,0.2s-0.4-0.1-0.5-0.2S228.8,264.9,228.8,264.8z M229,266.6h1v6h-1V266.6z"/>
		<path class="st1" d="M233,271.1c0,0.3,0,0.5,0.1,0.6c0.1,0.1,0.2,0.2,0.4,0.2c0.1,0,0.2,0,0.3,0c0.1,0,0.3-0.1,0.4-0.1l0.1,0.8
			c-0.1,0.1-0.3,0.1-0.5,0.2s-0.4,0.1-0.6,0.1c-0.4,0-0.7-0.1-0.9-0.3s-0.3-0.5-0.3-1v-7.2h1V271.1z"/>
	</g>
	<g class="st0">
		<path class="st1" d="M239.9,272.1c-0.2,0.2-0.5,0.3-0.9,0.5c-0.4,0.1-0.8,0.2-1.2,0.2c-0.5,0-0.9-0.1-1.2-0.2
			c-0.3-0.1-0.6-0.4-0.8-0.6c-0.2-0.3-0.4-0.6-0.5-1c-0.1-0.4-0.2-0.8-0.2-1.3c0-1,0.2-1.8,0.7-2.3s1.1-0.8,2-0.8
			c0.3,0,0.5,0,0.8,0.1c0.3,0.1,0.5,0.2,0.7,0.3c0.2,0.2,0.4,0.4,0.5,0.7c0.1,0.3,0.2,0.7,0.2,1.2c0,0.3,0,0.6-0.1,0.9h-3.9
			c0,0.4,0,0.7,0.1,0.9c0.1,0.3,0.2,0.5,0.3,0.7c0.2,0.2,0.4,0.3,0.6,0.4c0.2,0.1,0.5,0.1,0.9,0.1c0.3,0,0.5,0,0.8-0.1
			s0.5-0.2,0.6-0.3L239.9,272.1z M237.8,267.3c-0.5,0-0.9,0.1-1.1,0.4c-0.3,0.2-0.5,0.7-0.5,1.3h3c0-0.6-0.1-1-0.3-1.3
			C238.6,267.4,238.2,267.3,237.8,267.3z"/>
	</g>
	<g class="st0">
		<path class="st1" d="M246,272.9c0,0.8-0.2,1.3-0.6,1.7s-1,0.6-1.8,0.6c-0.5,0-0.9,0-1.2-0.1c-0.3-0.1-0.5-0.1-0.8-0.2l0.3-0.8
			c0.2,0.1,0.4,0.1,0.6,0.2c0.2,0.1,0.5,0.1,0.9,0.1c0.3,0,0.6,0,0.8-0.1c0.2-0.1,0.4-0.2,0.5-0.3c0.1-0.1,0.2-0.3,0.3-0.5
			c0-0.2,0.1-0.5,0.1-0.8V272h0c-0.2,0.2-0.4,0.4-0.6,0.5c-0.2,0.1-0.6,0.2-1,0.2c-0.8,0-1.4-0.3-1.8-0.8c-0.4-0.5-0.6-1.3-0.6-2.4
			c0-1,0.2-1.8,0.7-2.3c0.5-0.5,1.2-0.8,2.2-0.8c0.5,0,0.8,0,1.2,0.1c0.3,0.1,0.6,0.2,0.9,0.3V272.9z M243.6,271.9
			c0.4,0,0.7-0.1,1-0.3c0.2-0.2,0.4-0.5,0.5-1v-3.1c-0.3-0.2-0.7-0.2-1.2-0.2c-0.5,0-1,0.2-1.3,0.6s-0.5,0.9-0.5,1.7
			c0,0.3,0,0.6,0.1,0.9c0.1,0.3,0.1,0.5,0.3,0.7s0.3,0.4,0.5,0.5C243.1,271.8,243.4,271.9,243.6,271.9z"/>
		<path class="st1" d="M252.3,272.1c-0.2,0.2-0.5,0.3-0.9,0.5c-0.4,0.1-0.8,0.2-1.2,0.2c-0.5,0-0.9-0.1-1.2-0.2
			c-0.3-0.1-0.6-0.4-0.8-0.6c-0.2-0.3-0.4-0.6-0.5-1s-0.2-0.8-0.2-1.3c0-1,0.2-1.8,0.7-2.3s1.1-0.8,2-0.8c0.3,0,0.5,0,0.8,0.1
			c0.3,0.1,0.5,0.2,0.7,0.3s0.4,0.4,0.5,0.7c0.1,0.3,0.2,0.7,0.2,1.2c0,0.3,0,0.6-0.1,0.9h-3.9c0,0.4,0,0.7,0.1,0.9
			c0.1,0.3,0.2,0.5,0.3,0.7c0.2,0.2,0.3,0.3,0.6,0.4c0.2,0.1,0.5,0.1,0.9,0.1c0.3,0,0.5,0,0.8-0.1c0.3-0.1,0.5-0.2,0.6-0.3
			L252.3,272.1z M250.2,267.3c-0.5,0-0.9,0.1-1.1,0.4c-0.3,0.2-0.5,0.7-0.5,1.3h3c0-0.6-0.1-1-0.3-1.3
			C251,267.4,250.6,267.3,250.2,267.3z"/>
		<path class="st1" d="M258.6,270.5c0,0.4,0,0.8,0,1.1s0,0.7,0.1,1h-0.6l-0.2-0.9h0c-0.2,0.3-0.4,0.5-0.7,0.7
			c-0.3,0.2-0.7,0.3-1.1,0.3c-0.8,0-1.4-0.3-1.8-0.8c-0.4-0.5-0.6-1.3-0.6-2.4c0-1,0.2-1.8,0.7-2.3c0.5-0.5,1.2-0.8,2-0.8
			c0.3,0,0.5,0,0.7,0c0.2,0,0.4,0.1,0.6,0.2v-2.5h1V270.5z M256.2,271.9c0.4,0,0.7-0.1,1-0.3c0.2-0.2,0.4-0.5,0.5-1v-3
			c-0.1-0.1-0.3-0.2-0.5-0.2c-0.2,0-0.4-0.1-0.7-0.1c-0.6,0-1,0.2-1.3,0.5s-0.5,0.9-0.5,1.7c0,0.3,0,0.6,0.1,0.9
			c0.1,0.3,0.1,0.5,0.3,0.7s0.3,0.4,0.5,0.5S255.9,271.9,256.2,271.9z"/>
		<path class="st1" d="M266.3,270.9c0-0.2-0.1-0.4-0.2-0.6c-0.1-0.1-0.3-0.3-0.5-0.3s-0.4-0.2-0.7-0.3s-0.5-0.2-0.7-0.3
			s-0.4-0.3-0.5-0.5c-0.1-0.2-0.2-0.5-0.2-0.8c0-0.6,0.2-1,0.5-1.3c0.3-0.3,0.8-0.4,1.4-0.4c0.4,0,0.8,0,1.1,0.1
			c0.3,0.1,0.5,0.2,0.8,0.3l-0.2,0.8c-0.2-0.1-0.4-0.2-0.7-0.2c-0.3-0.1-0.5-0.1-0.8-0.1c-0.4,0-0.6,0.1-0.8,0.2s-0.2,0.3-0.2,0.6
			c0,0.2,0.1,0.4,0.2,0.5c0.1,0.1,0.3,0.2,0.5,0.3s0.4,0.2,0.7,0.3s0.5,0.2,0.7,0.3s0.4,0.3,0.5,0.5c0.1,0.2,0.2,0.5,0.2,0.9
			c0,0.3,0,0.5-0.1,0.7c-0.1,0.2-0.2,0.4-0.4,0.6c-0.2,0.2-0.4,0.3-0.7,0.4c-0.3,0.1-0.6,0.1-0.9,0.1c-0.5,0-0.8,0-1.2-0.1
			c-0.3-0.1-0.6-0.2-0.8-0.3l0.3-0.8c0.2,0.1,0.4,0.2,0.7,0.3s0.6,0.1,0.9,0.1c0.3,0,0.6-0.1,0.9-0.2
			C266.2,271.5,266.3,271.3,266.3,270.9z"/>
	</g>
	<g class="st0">
		<path class="st1" d="M268.4,269.6c0-1,0.2-1.8,0.7-2.3s1.1-0.8,2-0.8c0.4,0,0.8,0.1,1.2,0.2s0.6,0.4,0.8,0.6
			c0.2,0.3,0.4,0.6,0.5,1c0.1,0.4,0.2,0.8,0.2,1.3c0,1-0.2,1.8-0.7,2.3c-0.5,0.5-1.1,0.8-2,0.8c-0.4,0-0.8-0.1-1.2-0.2
			c-0.3-0.1-0.6-0.4-0.8-0.6c-0.2-0.3-0.4-0.6-0.5-1C268.4,270.5,268.4,270.1,268.4,269.6z M269.4,269.6c0,0.3,0,0.6,0.1,0.9
			c0.1,0.3,0.2,0.5,0.3,0.7s0.3,0.4,0.5,0.5s0.5,0.2,0.8,0.2c1.1,0,1.6-0.8,1.6-2.3c0-0.3,0-0.6-0.1-0.9s-0.2-0.5-0.3-0.7
			s-0.3-0.4-0.5-0.5s-0.5-0.2-0.8-0.2C269.9,267.3,269.4,268,269.4,269.6z"/>
	</g>
	<g class="st0">
		<path class="st1" d="M274.3,266.6h0.9v-0.3c0-0.4,0-0.7,0.1-1c0.1-0.3,0.2-0.5,0.3-0.7c0.1-0.2,0.3-0.3,0.5-0.4
			c0.2-0.1,0.5-0.1,0.8-0.1c0.3,0,0.5,0,0.7,0s0.4,0.1,0.6,0.2l-0.2,0.8c-0.2-0.1-0.4-0.1-0.5-0.2c-0.2,0-0.3,0-0.5,0
			c-0.2,0-0.4,0-0.5,0.1c-0.1,0.1-0.2,0.2-0.3,0.3c-0.1,0.1-0.1,0.3-0.1,0.5s0,0.4,0,0.6v0.2h1.6v0.8h-1.6v5.2h-1v-5.2h-0.9V266.6z"
			/>
	</g>
	<g class="st0">
		<path class="st1" d="M277.8,266.6h0.9v-1.2l1-0.3v1.5h1.6v0.8h-1.6v3.3c0,0.4,0.1,0.7,0.2,0.9c0.1,0.2,0.3,0.3,0.5,0.3
			c0.2,0,0.4,0,0.5-0.1s0.3-0.1,0.5-0.2l0.2,0.7c-0.2,0.1-0.5,0.2-0.7,0.3c-0.3,0.1-0.5,0.1-0.8,0.1c-0.5,0-0.8-0.1-1-0.4
			c-0.2-0.3-0.3-0.7-0.3-1.4v-3.5h-0.9V266.6z"/>
		<path class="st1" d="M286.6,266.6l1.4,3.5l0.3,1.2h0l0.2-1.2l1.1-3.5h0.9l-2,6.1H288l-1.6-4l-0.2-1h0l-0.2,1l-1.5,3.9H284
			l-2.1-6.1h1l1.2,3.5l0.2,1.2h0l0.3-1.2l1.3-3.5H286.6z"/>
		<path class="st1" d="M291.4,267c0.3-0.2,0.7-0.3,1.1-0.4c0.4-0.1,0.8-0.1,1.3-0.1c0.4,0,0.8,0.1,1,0.2s0.4,0.3,0.6,0.4
			c0.1,0.2,0.2,0.4,0.3,0.6c0,0.2,0.1,0.4,0.1,0.6c0,0.5,0,0.9,0,1.4c0,0.5,0,0.9,0,1.3c0,0.3,0,0.6,0,0.8c0,0.3,0.1,0.5,0.1,0.7
			H295l-0.3-0.8h-0.1c-0.1,0.1-0.2,0.2-0.3,0.3c-0.1,0.1-0.2,0.2-0.4,0.3c-0.2,0.1-0.3,0.2-0.5,0.2c-0.2,0.1-0.4,0.1-0.7,0.1
			s-0.5,0-0.7-0.1c-0.2-0.1-0.4-0.2-0.6-0.3c-0.2-0.1-0.3-0.3-0.4-0.5c-0.1-0.2-0.1-0.4-0.1-0.7c0-0.4,0.1-0.6,0.2-0.9
			c0.1-0.2,0.3-0.4,0.6-0.6c0.3-0.1,0.6-0.2,0.9-0.3c0.4-0.1,0.8-0.1,1.2-0.1c0.1,0,0.2,0,0.3,0c0.1,0,0.2,0,0.3,0
			c0-0.2,0-0.5,0-0.6c0-0.4-0.1-0.7-0.3-0.9c-0.2-0.2-0.5-0.3-1-0.3c-0.1,0-0.3,0-0.4,0c-0.2,0-0.3,0-0.5,0.1s-0.3,0.1-0.5,0.1
			c-0.1,0.1-0.3,0.1-0.4,0.2L291.4,267z M293.1,271.8c0.2,0,0.4,0,0.6-0.1c0.2-0.1,0.3-0.1,0.5-0.2c0.1-0.1,0.2-0.2,0.3-0.3
			c0.1-0.1,0.1-0.2,0.2-0.3v-1c-0.1,0-0.2,0-0.3,0c-0.1,0-0.2,0-0.3,0c-0.2,0-0.5,0-0.7,0s-0.4,0.1-0.6,0.2
			c-0.2,0.1-0.3,0.2-0.4,0.3s-0.2,0.3-0.2,0.5c0,0.3,0.1,0.5,0.3,0.7C292.6,271.7,292.8,271.8,293.1,271.8z"/>
		<path class="st1" d="M300.3,267.5c-0.2-0.1-0.5-0.1-0.7-0.1c-0.3,0-0.6,0.1-0.8,0.3c-0.2,0.2-0.3,0.4-0.4,0.7v4.2h-1v-6h0.7
			l0.2,0.7h0c0.2-0.3,0.3-0.5,0.5-0.6c0.2-0.1,0.5-0.2,0.8-0.2c0.2,0,0.5,0,0.8,0.1L300.3,267.5z"/>
		<path class="st1" d="M305.9,272.1c-0.2,0.2-0.5,0.3-0.9,0.5c-0.4,0.1-0.8,0.2-1.2,0.2c-0.5,0-0.9-0.1-1.2-0.2
			c-0.3-0.1-0.6-0.4-0.8-0.6c-0.2-0.3-0.4-0.6-0.5-1s-0.2-0.8-0.2-1.3c0-1,0.2-1.8,0.7-2.3s1.1-0.8,2-0.8c0.3,0,0.5,0,0.8,0.1
			c0.3,0.1,0.5,0.2,0.7,0.3s0.4,0.4,0.5,0.7c0.1,0.3,0.2,0.7,0.2,1.2c0,0.3,0,0.6-0.1,0.9h-3.9c0,0.4,0,0.7,0.1,0.9
			c0.1,0.3,0.2,0.5,0.3,0.7c0.2,0.2,0.4,0.3,0.6,0.4c0.2,0.1,0.5,0.1,0.9,0.1c0.3,0,0.5,0,0.8-0.1c0.3-0.1,0.5-0.2,0.6-0.3
			L305.9,272.1z M303.9,267.3c-0.5,0-0.8,0.1-1.1,0.4s-0.5,0.7-0.5,1.3h3c0-0.6-0.1-1-0.3-1.3C304.6,267.4,304.3,267.3,303.9,267.3z
			"/>
	</g>
	<g class="st0">
		<path class="st1" d="M8.9,152.8l0.7-0.1l2.8-8h1.9l2.8,8l0.7,0.1v1.1h-3.1v-1.1l0.6-0.1l-0.4-1.3h-3l-0.4,1.3l0.6,0.1v1.1H8.9
			V152.8z M12.2,150.1h2.1l-1-3.3h0L12.2,150.1z"/>
	</g>
	<g class="st0">
		<path class="st1" d="M20.3,145.4v1.7h1.2v1.3h-1.2v3.5c0,0.3,0.1,0.5,0.2,0.6s0.3,0.2,0.4,0.2c0.1,0,0.2,0,0.3,0
			c0.1,0,0.2,0,0.3-0.1l0.2,1.3c-0.2,0.1-0.4,0.1-0.6,0.1c-0.2,0-0.4,0-0.7,0c-0.6,0-1.1-0.2-1.5-0.5c-0.3-0.4-0.5-0.9-0.5-1.7v-3.5
			h-1v-1.3h1v-1.7H20.3z"/>
		<path class="st1" d="M25.2,145.4v1.7h1.2v1.3h-1.2v3.5c0,0.3,0.1,0.5,0.2,0.6s0.3,0.2,0.4,0.2c0.1,0,0.2,0,0.3,0
			c0.1,0,0.2,0,0.3-0.1l0.2,1.3c-0.2,0.1-0.4,0.1-0.6,0.1c-0.2,0-0.4,0-0.7,0c-0.6,0-1.1-0.2-1.5-0.5c-0.3-0.4-0.5-0.9-0.5-1.7v-3.5
			h-1v-1.3h1v-1.7H25.2z"/>
		<path class="st1" d="M31.7,153.9c-0.1-0.1-0.1-0.2-0.1-0.4c0-0.1-0.1-0.2-0.1-0.4c-0.2,0.3-0.5,0.5-0.8,0.6
			c-0.3,0.2-0.7,0.2-1.1,0.2c-0.7,0-1.2-0.2-1.6-0.5c-0.4-0.4-0.6-0.9-0.6-1.5c0-0.6,0.3-1.1,0.8-1.5s1.3-0.5,2.3-0.5h0.9v-0.7
			c0-0.3-0.1-0.6-0.3-0.8s-0.5-0.3-0.8-0.3c-0.2,0-0.4,0-0.6,0.1s-0.3,0.1-0.4,0.2l-0.1,0.7h-1.4l0-1.5c0.3-0.2,0.7-0.4,1.2-0.6
			c0.4-0.2,0.9-0.2,1.4-0.2c0.9,0,1.5,0.2,2.1,0.6c0.5,0.4,0.8,1,0.8,1.8v2.8c0,0.1,0,0.2,0,0.3c0,0.1,0,0.2,0,0.3l0.6,0.1v1.1H31.7
			z M30.1,152.7c0.3,0,0.5-0.1,0.8-0.2c0.2-0.1,0.4-0.3,0.5-0.5v-1h-0.9c-0.4,0-0.7,0.1-0.9,0.3c-0.2,0.2-0.3,0.4-0.3,0.7
			c0,0.2,0.1,0.4,0.2,0.5C29.6,152.6,29.8,152.7,30.1,152.7z"/>
		<path class="st1" d="M37.7,152.7c0.3,0,0.6-0.1,0.8-0.3s0.3-0.5,0.3-0.8h1.7l0,0c0,0.7-0.2,1.3-0.8,1.7s-1.2,0.7-2,0.7
			c-1,0-1.8-0.3-2.4-1s-0.8-1.5-0.8-2.5v-0.2c0-1,0.3-1.8,0.9-2.5c0.6-0.7,1.4-1,2.4-1c0.6,0,1.1,0.1,1.5,0.2
			c0.4,0.2,0.8,0.4,1.1,0.7l0,1.8h-1.5l-0.3-1.1c-0.1-0.1-0.2-0.1-0.3-0.2s-0.3-0.1-0.5-0.1c-0.5,0-0.9,0.2-1.1,0.6
			s-0.3,0.9-0.3,1.5v0.2c0,0.6,0.1,1.1,0.3,1.5C36.8,152.5,37.2,152.7,37.7,152.7z"/>
	</g>
	<g class="st0">
		<path class="st1" d="M41.1,145.2V144h2.8v5.7h0.4l1.1-1.5l-0.6-0.1v-1.1h3.4v1.1l-0.8,0.2l-1.2,1.7l1.7,2.6l0.7,0.1v1.1h-3.2v-1.1
			l0.4-0.1l-1.1-1.7h-0.8v1.6l0.8,0.2v1.1h-3.5v-1.1l0.9-0.2v-7.3L41.1,145.2z"/>
	</g>
	<g class="st0">
		<path class="st1" d="M52.4,154.1c-1,0-1.8-0.3-2.4-1s-0.9-1.4-0.9-2.4v-0.3c0-1,0.3-1.9,0.8-2.5c0.6-0.7,1.3-1,2.3-1
			c0.9,0,1.6,0.3,2.2,0.8s0.8,1.3,0.8,2.3v1H51l0,0c0,0.5,0.2,0.8,0.5,1.1c0.3,0.3,0.6,0.4,1.1,0.4c0.4,0,0.8,0,1-0.1
			c0.3-0.1,0.6-0.2,0.9-0.4l0.5,1.1c-0.3,0.2-0.7,0.4-1.1,0.6C53.4,154,52.9,154.1,52.4,154.1z M52.2,148.4c-0.3,0-0.6,0.1-0.8,0.4
			c-0.2,0.3-0.3,0.6-0.4,1l0,0h2.3v-0.2c0-0.4-0.1-0.7-0.3-0.9C52.9,148.5,52.6,148.4,52.2,148.4z"/>
		<path class="st1" d="M56.2,152.8l0.9-0.2v-4.3l-1-0.2v-1.1h2.7l0.1,1c0.2-0.4,0.4-0.6,0.6-0.8c0.3-0.2,0.5-0.3,0.9-0.3
			c0.1,0,0.2,0,0.3,0c0.1,0,0.2,0,0.3,0.1l-0.2,1.7l-0.8,0c-0.3,0-0.5,0.1-0.7,0.2s-0.3,0.3-0.4,0.5v3.3l0.9,0.2v1.1h-3.6V152.8z"/>
	</g>
	<line class="st15" x1="170.5" y1="120.4" x2="60.3" y2="120.7"/>
	<polygon class="st16" points="165.9,114.7 164.9,115.8 170,120.4 164.9,125.2 165.9,126.2 172,120.4 	"/>
	<line class="st15" x1="320.8" y1="249.9" x2="321" y2="283.8"/>
	<polygon class="st16" points="315.1,254.6 316.1,255.6 320.8,250.5 325.5,255.5 326.5,254.5 320.7,248.4 	"/>
	<circle class="st17" cx="187.4" cy="120.6" r="7.8"/>
	<line class="st18" x1="192.9" y1="126.1" x2="181.9" y2="115.1"/>
	<circle class="st17" cx="320.9" cy="232.9" r="7.8"/>
	<line class="st18" x1="326.4" y1="238.4" x2="315.4" y2="227.4"/>
	<path class="st19" d="M23.7,133.8c-0.6,0-1-0.4-1-1v-5.1c0-1.6,0.8-3.2,2.1-4.2c1-0.8,2.2-1.3,3.5-1.5c0.4-0.1,0.8-0.1,1.1-0.1
		v-1.1c-2.3-1.7-3.6-4.4-3.6-7.2c0-0.9,0-1.3,0-1.6c0-0.2,0-0.3,0-0.5h-0.2c-0.6,0-1-0.4-1-1v-5.6c0-0.2,0.1-0.4,0.2-0.5
		c0.5-3.8,3.2-7,6.8-8.3c2.3-0.8,4.7-0.8,7,0c1.5,0.5,2.8,1.4,3.9,2.5c1.6,1.6,2.7,3.7,3,5.9c0.1,0.1,0.1,0.3,0.2,0.5v5.6
		c0,0.6-0.4,1-1,1h-0.2v2.6c0,2.8-1.4,5.4-3.7,7v0.9c0.4,0,0.8,0,1.1,0.1c1.3,0.2,2.5,0.7,3.5,1.6c1.3,1,2.1,2.5,2.1,4.1v5.1
		c0,0.6-0.4,1-1,1H23.7z"/>
	<path class="st1" d="M35.2,96.4c1.1,0,2.2,0.2,3.2,0.5c1.3,0.5,2.5,1.2,3.5,2.3c1.6,1.5,2.5,3.5,2.8,5.7h0.1v5.6h-1.2v3.6
		c0,2.7-1.4,5.1-3.7,6.5v2.4h1c0.3,0,0.7,0,1,0.1c1.1,0.2,2.2,0.6,3.1,1.3c1.1,0.8,1.7,2,1.8,3.3v5.1h-23v-5.1
		c0-1.3,0.7-2.6,1.7-3.3c0.9-0.7,2-1.2,3.1-1.4c0.3-0.1,0.7-0.1,1-0.1h1v-2.5h0.1c-2.3-1.5-3.7-4.1-3.8-6.8c0-1.8-0.1-1.5-0.1-3.2
		h-1.2v-5.6h0.1C26.2,100.1,30.3,96.4,35.2,96.4 M35.2,94.4c-5.6,0-10.4,4.1-11.4,9.6c-0.1,0.3-0.2,0.6-0.2,0.9v5.6
		c0,0.8,0.5,1.6,1.3,1.9c0,0.3,0,0.7,0,1.3c0,2.8,1.2,5.5,3.3,7.4c-1.4,0.2-2.8,0.8-4,1.7c-1.6,1.1-2.5,3-2.5,4.9v5.1
		c0,1.1,0.9,2,2,2h22.9c1.1,0,2-0.9,2-2v-5.1c0-1.9-0.9-3.8-2.5-4.9c-1.1-0.9-2.4-1.5-3.7-1.8c2-1.8,3.1-4.3,3.2-7v-1.7
		c0.7-0.3,1.2-1,1.2-1.8v-5.6c0-0.3-0.1-0.6-0.2-0.9c-0.4-2.4-1.5-4.6-3.3-6.3c-1.2-1.2-2.6-2.2-4.3-2.8
		C37.8,94.6,36.5,94.3,35.2,94.4L35.2,94.4z"/>
	<polygon class="st1" points="25.4,109 25.4,113.3 33.2,113.3 35.2,113.3 37.1,113.3 44.8,113.3 44.8,109 	"/>
	<path class="st20" d="M26.8,109c0,1.9,0.1,2.7,0.1,4.6c0.1,4.5,3.8,8.2,8.3,8.2c4.5,0.2,8.2-3.3,8.4-7.8v-5.2"/>
	<path class="st20" d="M25.6,105.8c0-5.3,4.3-9.5,9.6-9.5c1.1,0,2.1,0.2,3.1,0.5c1.3,0.5,2.5,1.2,3.5,2.3c1.8,1.8,2.8,4.2,2.8,6.7"
		/>
	<rect x="25.6" y="105.5" class="st21" width="19.1" height="3.5"/>
	<line class="st21" x1="34" y1="116.9" x2="37.5" y2="116.9"/>
	<path class="st19" d="M31.6,109.8c-0.5,0.5-0.6,1.3-0.1,1.9c0.5,0.6,1.3,0.6,1.9,0.2c0.3-0.2,0.4-0.6,0.5-0.9l0,0L31.6,109.8z"/>
	<path class="st19" d="M40.7,109.9l-2.1,1.3c0.1,0.2,0.2,0.4,0.3,0.6c0.5,0.5,1.4,0.5,1.9,0c0.3-0.3,0.4-0.6,0.4-1
		C41.2,110.5,41,110.1,40.7,109.9z"/>
</g>
</svg>
