<?xml version="1.0" encoding="utf-8"?>
<!-- Generator: Adobe Illustrator 24.0.0, SVG Export Plug-In . SVG Version: 6.00 Build 0)  -->
<svg version="1.1" id="Ebene_1" xmlns="http://www.w3.org/2000/svg" xmlns:xlink="http://www.w3.org/1999/xlink" x="0px" y="0px"
	 viewBox="0 0 937.5 278.7" style="enable-background:new 0 0 937.5 278.7;" xml:space="preserve">
<style type="text/css">
	.st0{enable-background:new    ;}
	.st1{fill:#330066;}
	.st2{fill:url(#SVGID_1_);stroke:#FFCC00;stroke-width:2;stroke-miterlimit:10;}
	.st3{fill:#FFFFFF;stroke:#FFCC00;stroke-width:2;stroke-linecap:round;stroke-linejoin:round;}
	.st4{fill:none;stroke:#FFCC00;stroke-width:2;stroke-linecap:round;stroke-linejoin:round;}
	.st5{fill:#FFCC00;}
	.st6{clip-path:url(#SVGID_3_);}
	.st7{clip-path:url(#SVGID_5_);}
	.st8{fill:#FFD138;}
	.st9{fill:#FDFEFF;}
	.st10{fill:#FFFFFF;}
	.st11{fill:#990066;}
	.st12{fill:#3399FF;}
	.st13{fill:#33CC99;}
	.st14{fill:url(#SVGID_6_);}
	.st15{fill:none;stroke:#FFCC00;stroke-width:2;stroke-miterlimit:10;}
	.st16{fill:url(#SVGID_7_);}
	.st17{fill:url(#SVGID_8_);}
	.st18{clip-path:url(#SVGID_10_);}
	.st19{clip-path:url(#SVGID_12_);}
	.st20{fill:#FFFFFF;stroke:#3399FF;stroke-width:2;stroke-miterlimit:10;}
	.st21{fill:none;stroke:#3399FF;stroke-width:2;stroke-linecap:round;stroke-linejoin:round;}
	.st22{fill:none;stroke:#3399FF;stroke-width:2;stroke-miterlimit:10;}
	.st23{fill:none;stroke:#3399FF;stroke-width:2;stroke-miterlimit:10;stroke-dasharray:2.01,2.01;}
	.st24{fill:none;stroke:#330066;stroke-width:2;stroke-miterlimit:10;}
	.st25{fill:none;stroke:#330066;stroke-width:2;stroke-miterlimit:10;stroke-dasharray:2.01,2.01;}
	.st26{fill:none;stroke:#330066;stroke-width:2;stroke-miterlimit:10;stroke-dasharray:2.04,2.04;}
	.st27{fill:#FFFFFF;stroke:#330066;stroke-width:2;stroke-miterlimit:10;}
	.st28{fill:none;stroke:#FFCC00;stroke-width:2;stroke-miterlimit:10;stroke-dasharray:2.01,2.01;}
	.st29{fill:#FFFFFF;stroke:#990066;stroke-width:2;stroke-miterlimit:10;}
</style>
<g id="Ebene_4">
	<g class="st0">
		<path class="st1" d="M630.9,134.2h0.7l0.2,0.7h0c0.2-0.3,0.4-0.5,0.7-0.6s0.6-0.2,1-0.2c0.8,0,1.4,0.2,1.8,0.7
			c0.4,0.5,0.6,1.2,0.6,2.3c0,0.5-0.1,1-0.2,1.4s-0.3,0.7-0.6,1c-0.2,0.3-0.5,0.5-0.9,0.6s-0.7,0.2-1.1,0.2c-0.3,0-0.5,0-0.7-0.1
			s-0.4-0.1-0.6-0.2v2.5h-1V134.2z M633.4,134.9c-0.4,0-0.7,0.1-1,0.3c-0.2,0.2-0.4,0.5-0.5,1v3c0.1,0.1,0.3,0.2,0.5,0.3
			c0.2,0.1,0.4,0.1,0.7,0.1c0.6,0,1-0.2,1.3-0.6c0.3-0.4,0.5-1,0.5-1.8c0-0.3,0-0.6-0.1-0.9c-0.1-0.3-0.1-0.5-0.3-0.7
			c-0.1-0.2-0.3-0.3-0.5-0.4C633.9,134.9,633.6,134.9,633.4,134.9z"/>
		<path class="st1" d="M638.3,134.2v3.4c0,0.3,0,0.6,0.1,0.8s0.1,0.4,0.2,0.6s0.2,0.3,0.4,0.4c0.2,0.1,0.3,0.1,0.6,0.1
			c0.2,0,0.4,0,0.6-0.1s0.3-0.2,0.5-0.3c0.1-0.1,0.2-0.3,0.3-0.4c0.1-0.2,0.2-0.3,0.2-0.5v-4h1v4.3c0,0.3,0,0.6,0,0.9
			c0,0.3,0.1,0.6,0.1,0.8h-0.7l-0.2-0.9h-0.1c-0.2,0.3-0.4,0.6-0.7,0.8c-0.3,0.2-0.7,0.3-1.2,0.3c-0.3,0-0.6,0-0.8-0.1
			c-0.2-0.1-0.4-0.2-0.6-0.4c-0.2-0.2-0.3-0.5-0.4-0.8c-0.1-0.3-0.1-0.7-0.1-1.2v-3.6H638.3z"/>
		<path class="st1" d="M645,138.7c0,0.3,0,0.5,0.1,0.6s0.2,0.2,0.4,0.2c0.1,0,0.2,0,0.3,0c0.1,0,0.3-0.1,0.4-0.1l0.1,0.8
			c-0.1,0.1-0.3,0.1-0.5,0.2c-0.2,0-0.4,0.1-0.6,0.1c-0.4,0-0.7-0.1-0.9-0.3c-0.2-0.2-0.3-0.5-0.3-1v-7.2h1V138.7z"/>
		<path class="st1" d="M648.5,138.7c0,0.3,0,0.5,0.1,0.6s0.2,0.2,0.4,0.2c0.1,0,0.2,0,0.3,0c0.1,0,0.3-0.1,0.4-0.1l0.1,0.8
			c-0.1,0.1-0.3,0.1-0.5,0.2c-0.2,0-0.4,0.1-0.6,0.1c-0.4,0-0.7-0.1-0.9-0.3c-0.2-0.2-0.3-0.5-0.3-1v-7.2h1V138.7z"/>
	</g>
	<g class="st0">
		<path class="st1" d="M236.8,88.8c0-0.2-0.1-0.4-0.2-0.6c-0.1-0.1-0.3-0.3-0.5-0.3s-0.4-0.2-0.7-0.3s-0.5-0.2-0.7-0.3
			s-0.4-0.3-0.5-0.5s-0.2-0.5-0.2-0.8c0-0.6,0.2-1,0.5-1.3c0.3-0.3,0.8-0.4,1.4-0.4c0.4,0,0.8,0,1.1,0.1c0.3,0.1,0.5,0.2,0.8,0.3
			l-0.2,0.8c-0.2-0.1-0.4-0.2-0.7-0.2c-0.3-0.1-0.5-0.1-0.8-0.1c-0.4,0-0.6,0.1-0.8,0.2s-0.2,0.3-0.2,0.6c0,0.2,0.1,0.4,0.2,0.5
			s0.3,0.2,0.5,0.3s0.4,0.2,0.7,0.3s0.5,0.2,0.7,0.3s0.4,0.3,0.5,0.5s0.2,0.5,0.2,0.9c0,0.3,0,0.5-0.1,0.7c-0.1,0.2-0.2,0.4-0.4,0.6
			c-0.2,0.2-0.4,0.3-0.7,0.4c-0.3,0.1-0.6,0.1-0.9,0.1c-0.5,0-0.8,0-1.2-0.1s-0.6-0.2-0.8-0.3l0.3-0.8c0.2,0.1,0.4,0.2,0.7,0.3
			s0.6,0.1,0.9,0.1c0.3,0,0.6-0.1,0.9-0.2C236.7,89.4,236.8,89.1,236.8,88.8z"/>
	</g>
	<g class="st0">
		<path class="st1" d="M243.6,89.9c-0.2,0.2-0.5,0.3-0.9,0.5c-0.4,0.1-0.8,0.2-1.2,0.2c-0.5,0-0.9-0.1-1.2-0.2
			c-0.3-0.1-0.6-0.4-0.8-0.6c-0.2-0.3-0.4-0.6-0.5-1c-0.1-0.4-0.2-0.8-0.2-1.3c0-1,0.2-1.8,0.7-2.3s1.1-0.8,2-0.8
			c0.3,0,0.5,0,0.8,0.1c0.3,0.1,0.5,0.2,0.7,0.3c0.2,0.2,0.4,0.4,0.5,0.7c0.1,0.3,0.2,0.7,0.2,1.2c0,0.3,0,0.6-0.1,0.9h-3.9
			c0,0.4,0,0.7,0.1,0.9c0.1,0.3,0.2,0.5,0.3,0.7c0.2,0.2,0.4,0.3,0.6,0.4c0.2,0.1,0.5,0.1,0.9,0.1c0.3,0,0.5,0,0.8-0.1
			c0.3-0.1,0.5-0.2,0.6-0.3L243.6,89.9z M241.5,85.1c-0.5,0-0.9,0.1-1.1,0.4s-0.5,0.7-0.5,1.3h3c0-0.6-0.1-1-0.3-1.3
			C242.3,85.2,241.9,85.1,241.5,85.1z"/>
	</g>
	<g class="st0">
		<path class="st1" d="M249.3,90c-0.2,0.2-0.5,0.3-0.9,0.4c-0.3,0.1-0.7,0.1-1,0.1c-0.5,0-0.9-0.1-1.2-0.2c-0.3-0.1-0.6-0.4-0.8-0.6
			c-0.2-0.3-0.4-0.6-0.4-1c-0.1-0.4-0.1-0.8-0.1-1.3c0-1,0.2-1.8,0.7-2.3c0.4-0.5,1.1-0.8,1.9-0.8c0.4,0,0.7,0,1,0.1
			c0.3,0.1,0.5,0.1,0.7,0.3l-0.3,0.8c-0.2-0.1-0.4-0.2-0.6-0.2c-0.2-0.1-0.5-0.1-0.7-0.1c-1.1,0-1.7,0.8-1.7,2.3
			c0,0.3,0,0.6,0.1,0.9s0.2,0.5,0.3,0.7c0.1,0.2,0.3,0.4,0.6,0.5s0.5,0.2,0.8,0.2c0.3,0,0.5,0,0.8-0.1s0.4-0.2,0.6-0.3L249.3,90z"/>
		<path class="st1" d="M253.4,85.4c-0.2-0.1-0.5-0.1-0.7-0.1c-0.3,0-0.6,0.1-0.8,0.3c-0.2,0.2-0.3,0.4-0.4,0.7v4.2h-1v-6h0.7
			l0.2,0.7h0c0.2-0.3,0.3-0.5,0.5-0.6c0.2-0.1,0.5-0.2,0.8-0.2c0.2,0,0.5,0,0.8,0.1L253.4,85.4z"/>
		<path class="st1" d="M259,89.9c-0.2,0.2-0.5,0.3-0.9,0.5c-0.4,0.1-0.8,0.2-1.2,0.2c-0.5,0-0.9-0.1-1.2-0.2
			c-0.3-0.1-0.6-0.4-0.8-0.6c-0.2-0.3-0.4-0.6-0.5-1c-0.1-0.4-0.2-0.8-0.2-1.3c0-1,0.2-1.8,0.7-2.3s1.1-0.8,2-0.8
			c0.3,0,0.5,0,0.8,0.1c0.3,0.1,0.5,0.2,0.7,0.3c0.2,0.2,0.4,0.4,0.5,0.7c0.1,0.3,0.2,0.7,0.2,1.2c0,0.3,0,0.6-0.1,0.9h-3.9
			c0,0.4,0,0.7,0.1,0.9c0.1,0.3,0.2,0.5,0.3,0.7c0.2,0.2,0.4,0.3,0.6,0.4c0.2,0.1,0.5,0.1,0.9,0.1c0.3,0,0.5,0,0.8-0.1
			s0.5-0.2,0.6-0.3L259,89.9z M257,85.1c-0.5,0-0.9,0.1-1.1,0.4c-0.3,0.2-0.5,0.7-0.5,1.3h3c0-0.6-0.1-1-0.3-1.3
			C257.7,85.2,257.4,85.1,257,85.1z"/>
		<path class="st1" d="M260,84.4h0.9v-1.2l1-0.3v1.5h1.6v0.8h-1.6v3.3c0,0.4,0.1,0.7,0.2,0.9s0.3,0.3,0.5,0.3c0.2,0,0.4,0,0.5-0.1
			c0.1,0,0.3-0.1,0.5-0.2l0.2,0.7c-0.2,0.1-0.5,0.2-0.7,0.3c-0.3,0.1-0.5,0.1-0.8,0.1c-0.5,0-0.8-0.1-1-0.4
			c-0.2-0.3-0.3-0.7-0.3-1.4v-3.5H260V84.4z"/>
		<path class="st1" d="M267.5,88.8c0-0.2-0.1-0.4-0.2-0.6c-0.1-0.1-0.3-0.3-0.5-0.3s-0.4-0.2-0.7-0.3s-0.5-0.2-0.7-0.3
			s-0.4-0.3-0.5-0.5s-0.2-0.5-0.2-0.8c0-0.6,0.2-1,0.5-1.3c0.3-0.3,0.8-0.4,1.4-0.4c0.4,0,0.8,0,1.1,0.1c0.3,0.1,0.5,0.2,0.8,0.3
			l-0.2,0.8c-0.2-0.1-0.4-0.2-0.7-0.2c-0.3-0.1-0.5-0.1-0.8-0.1c-0.4,0-0.6,0.1-0.8,0.2s-0.2,0.3-0.2,0.6c0,0.2,0.1,0.4,0.2,0.5
			s0.3,0.2,0.5,0.3s0.4,0.2,0.7,0.3s0.5,0.2,0.7,0.3s0.4,0.3,0.5,0.5s0.2,0.5,0.2,0.9c0,0.3,0,0.5-0.1,0.7c-0.1,0.2-0.2,0.4-0.4,0.6
			c-0.2,0.2-0.4,0.3-0.7,0.4c-0.3,0.1-0.6,0.1-0.9,0.1c-0.5,0-0.8,0-1.2-0.1s-0.6-0.2-0.8-0.3l0.3-0.8c0.2,0.1,0.4,0.2,0.7,0.3
			s0.6,0.1,0.9,0.1c0.3,0,0.6-0.1,0.9-0.2C267.4,89.4,267.5,89.1,267.5,88.8z"/>
	</g>
	<g class="st0">
		<path class="st1" d="M149.1,133.4c0-0.2-0.1-0.4-0.2-0.6c-0.1-0.1-0.3-0.3-0.5-0.3s-0.4-0.2-0.7-0.3s-0.5-0.2-0.7-0.3
			s-0.4-0.3-0.5-0.5s-0.2-0.5-0.2-0.8c0-0.6,0.2-1,0.5-1.3c0.3-0.3,0.8-0.4,1.4-0.4c0.4,0,0.8,0,1.1,0.1c0.3,0.1,0.5,0.2,0.8,0.3
			l-0.2,0.8c-0.2-0.1-0.4-0.2-0.7-0.2c-0.3-0.1-0.5-0.1-0.8-0.1c-0.4,0-0.6,0.1-0.8,0.2s-0.2,0.3-0.2,0.6c0,0.2,0.1,0.4,0.2,0.5
			s0.3,0.2,0.5,0.3s0.4,0.2,0.7,0.3s0.5,0.2,0.7,0.3s0.4,0.3,0.5,0.5s0.2,0.5,0.2,0.9c0,0.3,0,0.5-0.1,0.7c-0.1,0.2-0.2,0.4-0.4,0.6
			c-0.2,0.2-0.4,0.3-0.7,0.4c-0.3,0.1-0.6,0.1-0.9,0.1c-0.5,0-0.8,0-1.2-0.1s-0.6-0.2-0.8-0.3l0.3-0.8c0.2,0.1,0.4,0.2,0.7,0.3
			s0.6,0.1,0.9,0.1c0.3,0,0.6-0.1,0.9-0.2C149,134,149.1,133.8,149.1,133.4z"/>
		<path class="st1" d="M151.5,129h0.7l0.2,0.7h0c0.2-0.3,0.4-0.5,0.7-0.6s0.6-0.2,1-0.2c0.8,0,1.4,0.2,1.8,0.7
			c0.4,0.5,0.6,1.2,0.6,2.3c0,0.5-0.1,1-0.2,1.4s-0.3,0.7-0.6,1c-0.2,0.3-0.5,0.5-0.9,0.6c-0.3,0.2-0.7,0.2-1.1,0.2
			c-0.3,0-0.5,0-0.7-0.1s-0.4-0.1-0.6-0.2v2.5h-1V129z M153.9,129.7c-0.4,0-0.7,0.1-1,0.3s-0.4,0.5-0.5,1v3c0.1,0.1,0.3,0.2,0.5,0.3
			c0.2,0.1,0.4,0.1,0.7,0.1c0.6,0,1-0.2,1.3-0.6c0.3-0.4,0.5-1,0.5-1.8c0-0.3,0-0.6-0.1-0.9c-0.1-0.3-0.1-0.5-0.3-0.7
			c-0.1-0.2-0.3-0.3-0.5-0.4C154.5,129.8,154.2,129.7,153.9,129.7z"/>
		<path class="st1" d="M159.1,133.6c0,0.3,0,0.5,0.1,0.6c0.1,0.1,0.2,0.2,0.4,0.2c0.1,0,0.2,0,0.3,0c0.1,0,0.3-0.1,0.4-0.1l0.1,0.8
			c-0.1,0.1-0.3,0.1-0.5,0.2s-0.4,0.1-0.6,0.1c-0.4,0-0.7-0.1-0.9-0.3s-0.3-0.5-0.3-1v-7.2h1V133.6z"/>
		<path class="st1" d="M161.5,127.2c0-0.2,0.1-0.3,0.2-0.5s0.3-0.2,0.5-0.2s0.4,0.1,0.5,0.2c0.1,0.1,0.2,0.3,0.2,0.5
			c0,0.2-0.1,0.3-0.2,0.5c-0.1,0.1-0.3,0.2-0.5,0.2s-0.4-0.1-0.5-0.2S161.5,127.4,161.5,127.2z M161.7,129h1v6h-1V129z"/>
		<path class="st1" d="M163.9,129h0.9v-1.2l1-0.3v1.5h1.6v0.8h-1.6v3.3c0,0.4,0.1,0.7,0.2,0.9s0.3,0.3,0.5,0.3c0.2,0,0.4,0,0.5-0.1
			c0.1,0,0.3-0.1,0.5-0.2l0.2,0.7c-0.2,0.1-0.5,0.2-0.7,0.3c-0.3,0.1-0.5,0.1-0.8,0.1c-0.5,0-0.8-0.1-1-0.4
			c-0.2-0.3-0.3-0.7-0.3-1.4v-3.5h-0.9V129z"/>
	</g>
	<g class="st0">
		<path class="st1" d="M229.9,255.6v-3.4c0-0.6-0.1-1.1-0.3-1.4c-0.2-0.3-0.5-0.5-1-0.5c-0.4,0-0.8,0.1-1.1,0.3
			c-0.3,0.2-0.5,0.5-0.6,0.9v4.1h-1v-6h0.7l0.2,0.7h0c0.2-0.3,0.4-0.5,0.8-0.6c0.3-0.2,0.7-0.2,1.2-0.2c0.3,0,0.6,0,0.9,0.1
			c0.2,0.1,0.5,0.2,0.6,0.4s0.3,0.5,0.4,0.8c0.1,0.3,0.1,0.7,0.1,1.2v3.6H229.9z"/>
		<path class="st1" d="M232.3,252.6c0-1,0.2-1.8,0.7-2.3c0.5-0.5,1.1-0.8,1.9-0.8c0.4,0,0.8,0.1,1.2,0.2c0.3,0.1,0.6,0.4,0.8,0.6
			c0.2,0.3,0.4,0.6,0.5,1s0.2,0.8,0.2,1.3c0,1-0.2,1.8-0.7,2.3c-0.5,0.5-1.1,0.8-2,0.8c-0.4,0-0.8-0.1-1.2-0.2
			c-0.3-0.1-0.6-0.4-0.8-0.6c-0.2-0.3-0.4-0.6-0.5-1C232.3,253.5,232.3,253.1,232.3,252.6z M233.3,252.6c0,0.3,0,0.6,0.1,0.9
			s0.2,0.5,0.3,0.7s0.3,0.4,0.5,0.5s0.5,0.2,0.8,0.2c1.1,0,1.6-0.8,1.6-2.3c0-0.3,0-0.6-0.1-0.9c-0.1-0.3-0.2-0.5-0.3-0.7
			s-0.3-0.4-0.5-0.5c-0.2-0.1-0.5-0.2-0.8-0.2C233.8,250.3,233.3,251.1,233.3,252.6z"/>
		<path class="st1" d="M244.9,254c0-0.2-0.1-0.4-0.2-0.6c-0.1-0.1-0.3-0.3-0.5-0.3s-0.4-0.2-0.7-0.3s-0.5-0.2-0.7-0.3
			s-0.4-0.3-0.5-0.5s-0.2-0.5-0.2-0.8c0-0.6,0.2-1,0.5-1.3c0.3-0.3,0.8-0.4,1.4-0.4c0.4,0,0.8,0,1.1,0.1c0.3,0.1,0.5,0.2,0.8,0.3
			l-0.2,0.8c-0.2-0.1-0.4-0.2-0.7-0.2c-0.3-0.1-0.5-0.1-0.8-0.1c-0.4,0-0.6,0.1-0.8,0.2s-0.2,0.3-0.2,0.6c0,0.2,0.1,0.4,0.2,0.5
			s0.3,0.2,0.5,0.3s0.4,0.2,0.7,0.3s0.5,0.2,0.7,0.3s0.4,0.3,0.5,0.5s0.2,0.5,0.2,0.9c0,0.3,0,0.5-0.1,0.7c-0.1,0.2-0.2,0.4-0.4,0.6
			c-0.2,0.2-0.4,0.3-0.7,0.4c-0.3,0.1-0.6,0.1-0.9,0.1c-0.5,0-0.8,0-1.2-0.1s-0.6-0.2-0.8-0.3l0.3-0.8c0.2,0.1,0.4,0.2,0.7,0.3
			s0.6,0.1,0.9,0.1c0.3,0,0.6-0.1,0.9-0.2C244.8,254.6,244.9,254.3,244.9,254z"/>
	</g>
	<g class="st0">
		<path class="st1" d="M251.7,255.1c-0.2,0.2-0.5,0.3-0.9,0.5c-0.4,0.1-0.8,0.2-1.2,0.2c-0.5,0-0.9-0.1-1.2-0.2
			c-0.3-0.1-0.6-0.4-0.8-0.6c-0.2-0.3-0.4-0.6-0.5-1c-0.1-0.4-0.2-0.8-0.2-1.3c0-1,0.2-1.8,0.7-2.3s1.1-0.8,2-0.8
			c0.3,0,0.5,0,0.8,0.1c0.3,0.1,0.5,0.2,0.7,0.3c0.2,0.2,0.4,0.4,0.5,0.7c0.1,0.3,0.2,0.7,0.2,1.2c0,0.3,0,0.6-0.1,0.9H248
			c0,0.4,0,0.7,0.1,0.9c0.1,0.3,0.2,0.5,0.3,0.7c0.2,0.2,0.4,0.3,0.6,0.4c0.2,0.1,0.5,0.1,0.9,0.1c0.3,0,0.5,0,0.8-0.1
			s0.5-0.2,0.6-0.3L251.7,255.1z M249.6,250.3c-0.5,0-0.9,0.1-1.1,0.4c-0.3,0.2-0.5,0.7-0.5,1.3h3c0-0.6-0.1-1-0.3-1.3
			C250.4,250.4,250,250.3,249.6,250.3z"/>
	</g>
	<g class="st0">
		<path class="st1" d="M257.4,255.2c-0.2,0.2-0.5,0.3-0.9,0.4c-0.3,0.1-0.7,0.1-1,0.1c-0.5,0-0.9-0.1-1.2-0.2
			c-0.3-0.1-0.6-0.4-0.8-0.6c-0.2-0.3-0.4-0.6-0.4-1c-0.1-0.4-0.1-0.8-0.1-1.3c0-1,0.2-1.8,0.7-2.3c0.4-0.5,1.1-0.8,1.9-0.8
			c0.4,0,0.7,0,1,0.1c0.3,0.1,0.5,0.1,0.7,0.3l-0.3,0.8c-0.2-0.1-0.4-0.2-0.6-0.2c-0.2-0.1-0.5-0.1-0.7-0.1c-1.1,0-1.7,0.8-1.7,2.3
			c0,0.3,0,0.6,0.1,0.9s0.2,0.5,0.3,0.7c0.1,0.2,0.3,0.4,0.6,0.5s0.5,0.2,0.8,0.2c0.3,0,0.5,0,0.8-0.1s0.4-0.2,0.6-0.3L257.4,255.2z
			"/>
		<path class="st1" d="M261.5,250.6c-0.2-0.1-0.5-0.1-0.7-0.1c-0.3,0-0.6,0.1-0.8,0.3c-0.2,0.2-0.3,0.4-0.4,0.7v4.2h-1v-6h0.7
			l0.2,0.7h0c0.2-0.3,0.3-0.5,0.5-0.6c0.2-0.1,0.5-0.2,0.8-0.2c0.2,0,0.5,0,0.8,0.1L261.5,250.6z"/>
		<path class="st1" d="M267.1,255.1c-0.2,0.2-0.5,0.3-0.9,0.5c-0.4,0.1-0.8,0.2-1.2,0.2c-0.5,0-0.9-0.1-1.2-0.2
			c-0.3-0.1-0.6-0.4-0.8-0.6c-0.2-0.3-0.4-0.6-0.5-1c-0.1-0.4-0.2-0.8-0.2-1.3c0-1,0.2-1.8,0.7-2.3s1.1-0.8,2-0.8
			c0.3,0,0.5,0,0.8,0.1c0.3,0.1,0.5,0.2,0.7,0.3c0.2,0.2,0.4,0.4,0.5,0.7c0.1,0.3,0.2,0.7,0.2,1.2c0,0.3,0,0.6-0.1,0.9h-3.9
			c0,0.4,0,0.7,0.1,0.9c0.1,0.3,0.2,0.5,0.3,0.7c0.2,0.2,0.4,0.3,0.6,0.4c0.2,0.1,0.5,0.1,0.9,0.1c0.3,0,0.5,0,0.8-0.1
			s0.5-0.2,0.6-0.3L267.1,255.1z M265.1,250.3c-0.5,0-0.9,0.1-1.1,0.4c-0.3,0.2-0.5,0.7-0.5,1.3h3c0-0.6-0.1-1-0.3-1.3
			C265.8,250.4,265.5,250.3,265.1,250.3z"/>
		<path class="st1" d="M268.1,249.6h0.9v-1.2l1-0.3v1.5h1.6v0.8H270v3.3c0,0.4,0.1,0.7,0.2,0.9s0.3,0.3,0.5,0.3c0.2,0,0.4,0,0.5-0.1
			c0.1,0,0.3-0.1,0.5-0.2l0.2,0.7c-0.2,0.1-0.5,0.2-0.7,0.3c-0.3,0.1-0.5,0.1-0.8,0.1c-0.5,0-0.8-0.1-1-0.4
			c-0.2-0.3-0.3-0.7-0.3-1.4v-3.5h-0.9V249.6z"/>
		<path class="st1" d="M275.6,254c0-0.2-0.1-0.4-0.2-0.6c-0.1-0.1-0.3-0.3-0.5-0.3s-0.4-0.2-0.7-0.3s-0.5-0.2-0.7-0.3
			s-0.4-0.3-0.5-0.5s-0.2-0.5-0.2-0.8c0-0.6,0.2-1,0.5-1.3c0.3-0.3,0.8-0.4,1.4-0.4c0.4,0,0.8,0,1.1,0.1c0.3,0.1,0.5,0.2,0.8,0.3
			l-0.2,0.8c-0.2-0.1-0.4-0.2-0.7-0.2c-0.3-0.1-0.5-0.1-0.8-0.1c-0.4,0-0.6,0.1-0.8,0.2s-0.2,0.3-0.2,0.6c0,0.2,0.1,0.4,0.2,0.5
			s0.3,0.2,0.5,0.3s0.4,0.2,0.7,0.3s0.5,0.2,0.7,0.3s0.4,0.3,0.5,0.5s0.2,0.5,0.2,0.9c0,0.3,0,0.5-0.1,0.7c-0.1,0.2-0.2,0.4-0.4,0.6
			c-0.2,0.2-0.4,0.3-0.7,0.4c-0.3,0.1-0.6,0.1-0.9,0.1c-0.5,0-0.8,0-1.2-0.1s-0.6-0.2-0.8-0.3l0.3-0.8c0.2,0.1,0.4,0.2,0.7,0.3
			s0.6,0.1,0.9,0.1c0.3,0,0.6-0.1,0.9-0.2C275.5,254.6,275.6,254.3,275.6,254z"/>
	</g>
	
		<linearGradient id="SVGID_1_" gradientUnits="userSpaceOnUse" x1="498.57" y1="215.97" x2="728.87" y2="215.97" gradientTransform="matrix(1 0 0 -1 0 280)">
		<stop  offset="0" style="stop-color:#990066"/>
		<stop  offset="0.19" style="stop-color:#780066"/>
		<stop  offset="0.4" style="stop-color:#5A0066"/>
		<stop  offset="0.61" style="stop-color:#440066"/>
		<stop  offset="0.81" style="stop-color:#370066"/>
		<stop  offset="1" style="stop-color:#330066"/>
	</linearGradient>
	<path class="st2" d="M503.6,26.3h220.3c2.8,0,5,2.2,5,5v65.5c0,2.8-2.2,5-5,5H503.6c-2.8,0-5-2.2-5-5V31.3
		C498.6,28.5,500.8,26.3,503.6,26.3z"/>
	<path class="st3" d="M605.5,17.5c4.6-4.6,12.1-4.5,16.6,0.1s4.5,12.1-0.1,16.6c-4.6,4.6-12.1,4.5-16.6-0.1
		c-2.2-2.2-3.4-5.1-3.4-8.2c0-2.6,0.8-5.1,2.4-7.1"/>
	<path class="st4" d="M613.4,31.6h-4.2c-0.6,0-0.8-0.2-0.8-0.8v-6.5c0-0.6,0.2-0.8,0.8-0.8h8.5c0.5,0,0.8,0.2,0.8,0.8v6.5
		c0,0.5-0.2,0.8-0.8,0.8C616.2,31.7,614.8,31.6,613.4,31.6z"/>
	<path class="st4" d="M609.1,23c0-1.8,1-3.4,2.6-4.1c2.1-0.9,4.6,0,5.5,2.1c0.1,0.2,0.2,0.5,0.2,0.7c0.1,0.4,0.1,0.8,0.2,1.2"/>
	<path class="st5" d="M612.7,28.9L612.7,28.9v0.9c0,0.2,0.1,0.2,0.3,0.2h0.8c0.2,0,0.3-0.1,0.3-0.3v-1.6c0-0.2,0.1-0.3,0.2-0.4
		c0.5-0.3,0.8-0.9,0.6-1.5c-0.2-0.6-0.8-1-1.4-1c-0.7-0.1-1.3,0.3-1.6,0.9c-0.2,0.6,0,1.2,0.5,1.5c0.2,0.1,0.3,0.3,0.3,0.5
		C612.7,28.4,612.7,28.6,612.7,28.9z"/>
	<g id="Scone_logo_white">
		<g>
			<defs>
				<rect id="SVGID_2_" x="596.3" y="88.6" width="37" height="7.3"/>
			</defs>
			<clipPath id="SVGID_3_">
				<use xlink:href="#SVGID_2_"  style="overflow:visible;"/>
			</clipPath>
			<g class="st6">
				<g>
					<defs>
						<rect id="SVGID_4_" x="596.3" y="88.6" width="37" height="7.3"/>
					</defs>
					<clipPath id="SVGID_5_">
						<use xlink:href="#SVGID_4_"  style="overflow:visible;"/>
					</clipPath>
					<g class="st7">
						<path class="st8" d="M601.2,90.5h-0.8c-0.2,0-0.3,0.1-0.3,0.3c0,0,0,0,0,0v0.8c0,0.2,0.1,0.3,0.3,0.3h0.8
							c0.2,0,0.3-0.1,0.3-0.3v-0.8C601.5,90.6,601.4,90.5,601.2,90.5 M598.5,91.8h0.8c0.2,0,0.3-0.1,0.3-0.3v-0.8
							c0-0.2-0.1-0.3-0.3-0.3h-0.8c-0.2,0-0.3,0.1-0.3,0.3c0,0,0,0,0,0v0.8C598.2,91.7,598.4,91.8,598.5,91.8 M597.7,91.5v-0.8
							c0-0.2-0.1-0.3-0.3-0.3h-0.8c-0.2,0-0.3,0.1-0.3,0.3c0,0,0,0,0,0v0.8c0,0.2,0.1,0.3,0.3,0.3h0.8
							C597.6,91.8,597.7,91.7,597.7,91.5 M601.3,92.4c-0.1,0-0.2,0.1-0.2,0.2v0.9c0,0.1,0.1,0.2,0.2,0.2c0.1,0,0.2-0.1,0.2-0.2v-0.9
							C601.5,92.5,601.5,92.4,601.3,92.4C601.3,92.4,601.3,92.4,601.3,92.4 M599.2,92.7v0.8c0,0.2,0.1,0.3,0.3,0.3c0,0,0,0,0,0h0.8
							c0.2,0,0.3-0.1,0.3-0.3c0,0,0,0,0,0v-0.8c0-0.2-0.1-0.3-0.3-0.3c0,0,0,0,0,0h-0.8C599.3,92.4,599.2,92.5,599.2,92.7
							C599.2,92.7,599.2,92.7,599.2,92.7 M598.6,93.5v-0.8c0-0.2-0.1-0.3-0.3-0.3h-0.8c-0.2,0-0.3,0.1-0.3,0.3c0,0,0,0,0,0v0.8
							c0,0.2,0.1,0.3,0.3,0.3h0.8C598.5,93.8,598.6,93.7,598.6,93.5 M601.2,94.3h-0.8c-0.2,0-0.3,0.1-0.3,0.3c0,0,0,0,0,0v0.8
							c0,0.2,0.1,0.3,0.3,0.3c0,0,0,0,0,0h0.8c0.2,0,0.3-0.1,0.3-0.3v-0.8C601.5,94.5,601.4,94.3,601.2,94.3 M599.2,94.3h-0.8
							c-0.2,0-0.3,0.1-0.3,0.3v0.8c0,0.2,0.1,0.3,0.3,0.3c0,0,0,0,0,0h0.8c0.2,0,0.3-0.1,0.3-0.3v-0.8
							C599.5,94.5,599.4,94.3,599.2,94.3"/>
						<path class="st8" d="M602.2,90.2c0.3,0.3,0.8,0.4,1.2,0.4c0,0,0,0,0,0.1v2.1c0,0.8-1,1.3-1.2,1.5l0,0L602.2,90.2L602.2,90.2"
							/>
						<path class="st8" d="M599.8,90c1.6-0.1,1.9-0.6,1.9-0.6c0,0,0,0,0.1,0c0,0,0.1,0,0.1,0c0,0,0.3,0.6,1.9,0.6c0,0,0.1,0,0.1,0.1
							v2.8c0,0.9-1.7,1.9-1.7,1.9s-0.1,0-0.1,0.1v0.7c0,0,0.1,0.1,0.2,0c0.6-0.3,2.4-1.3,2.4-2.5v-3.5c0-0.1-0.1-0.1-0.2-0.1
							c-2.1,0-2.5-0.8-2.5-0.8s-0.1,0-0.1,0s-0.1,0-0.1,0s-0.3,0.8-2.4,0.8c-0.1,0-0.1,0-0.1,0.1V90c0,0,0,0.1,0.1,0.1L599.8,90"/>
						<path class="st9" d="M606.1,94.6l0.8-0.3c0.2,0.4,0.6,0.6,1.1,0.6c0.2,0,0.5,0,0.7-0.2c0.2-0.1,0.3-0.3,0.3-0.4
							c0-0.4-0.6-0.7-1-0.9l0,0c-0.4-0.1-0.7-0.3-1-0.5c-0.3-0.2-0.5-0.6-0.5-1c0-0.4,0.2-0.8,0.5-1c0.4-0.3,0.8-0.4,1.2-0.4
							c0.7,0,1.3,0.3,1.6,0.9l-0.9,0.3c-0.1-0.1-0.2-0.2-0.3-0.3c-0.2-0.1-0.3-0.1-0.5-0.1c-0.5,0-0.8,0.3-0.8,0.6
							c0,0.2,0.1,0.4,0.3,0.5c0.2,0.2,0.5,0.3,0.8,0.4h0.1c0.6,0.3,1.4,0.6,1.4,1.5c0,0.4-0.2,0.8-0.6,1c-0.4,0.3-0.9,0.4-1.4,0.4
							C607.2,95.7,606.5,95.3,606.1,94.6"/>
						<path class="st9" d="M613.5,95.7c-0.3,0-0.7-0.1-1-0.2c-0.3-0.1-0.6-0.3-0.8-0.6c-0.2-0.2-0.4-0.5-0.6-0.8
							c-0.3-0.7-0.3-1.4,0-2.1c0.1-0.3,0.3-0.6,0.6-0.8c0.2-0.3,0.5-0.4,0.8-0.6c0.3-0.1,0.7-0.2,1-0.2c0.8,0,1.6,0.4,2.1,1
							l-0.7,0.5c-0.2-0.2-0.4-0.4-0.6-0.5c-0.2-0.1-0.5-0.2-0.8-0.2c-1,0-1.8,0.8-1.8,1.8c0,1,0.8,1.8,1.8,1.8
							c0.3,0,0.6-0.1,0.9-0.3c0.3-0.2,0.5-0.4,0.6-0.7l0.8,0.4c-0.2,0.4-0.5,0.8-1,1C614.5,95.6,614,95.7,613.5,95.7"/>
						<path class="st9" d="M619.3,95.8c-0.3,0-0.7-0.1-1-0.2c-0.3-0.1-0.6-0.3-0.8-0.6c-0.2-0.2-0.4-0.5-0.6-0.8
							c-0.1-0.3-0.2-0.7-0.2-1c0-0.3,0.1-0.7,0.2-1c0.1-0.3,0.3-0.6,0.6-0.8c0.2-0.2,0.5-0.4,0.8-0.6c0.7-0.3,1.4-0.3,2.1,0
							c0.6,0.3,1.1,0.8,1.4,1.4c0.1,0.3,0.2,0.7,0.2,1c0,0.3-0.1,0.7-0.2,1c-0.3,0.6-0.8,1.1-1.4,1.4
							C620,95.7,619.7,95.7,619.3,95.8 M619.4,91.3c-0.5,0-0.9,0.2-1.3,0.5c-0.7,0.7-0.8,1.8-0.1,2.5c0.7,0.7,1.8,0.8,2.5,0.1
							c0,0,0.1-0.1,0.1-0.1c0.7-0.7,0.6-1.8-0.1-2.5C620.2,91.5,619.8,91.4,619.4,91.3"/>
						<polygon class="st9" points="627.9,90.5 627.9,95.9 624.2,92.5 624.2,95.7 623.3,95.7 623.3,90.3 627,93.7 627,90.5 						"/>
						<polygon class="st9" points="630.5,91.3 630.5,92.7 633,92.7 633,93.5 630.5,93.5 630.5,94.9 633.3,94.9 633.3,95.7 
							629.5,95.7 629.5,90.5 633.3,90.5 633.3,91.3 630.5,91.3 						"/>
					</g>
				</g>
			</g>
		</g>
	</g>
	<g class="st0">
		<path class="st10" d="M609.2,55.4h-1.3l-0.2-1.1c-0.2-0.2-0.4-0.3-0.6-0.4s-0.6-0.1-0.9-0.1c-0.7,0-1.3,0.3-1.7,0.8
			s-0.6,1.2-0.6,2.1v0.3c0,0.9,0.2,1.6,0.6,2.1s1,0.8,1.7,0.8c0.3,0,0.6,0,0.9-0.1s0.5-0.2,0.6-0.4l0.2-1.1h1.3v1.7
			c-0.3,0.4-0.8,0.7-1.3,1s-1.1,0.4-1.8,0.4c-1.1,0-2.1-0.4-2.8-1.2s-1.1-1.8-1.1-3.1v-0.3c0-1.2,0.4-2.3,1.1-3.1s1.7-1.2,2.8-1.2
			c0.7,0,1.3,0.1,1.8,0.4s1,0.6,1.3,1V55.4z"/>
		<path class="st10" d="M609.9,60l0.6-0.1l2.6-7.4h1.8l2.6,7.4L618,60v1h-2.9v-1l0.6-0.1l-0.4-1.2h-2.8l-0.4,1.2l0.6,0.1v1h-2.9V60z
			 M613,57.5h2l-1-3h0L613,57.5z"/>
		<path class="st10" d="M625.1,55.2h-1.3l-0.2-1.2c-0.1-0.1-0.4-0.2-0.7-0.2s-0.6-0.1-0.9-0.1c-0.5,0-0.8,0.1-1.1,0.3
			s-0.4,0.5-0.4,0.8c0,0.3,0.1,0.5,0.4,0.7s0.7,0.4,1.4,0.6c0.9,0.3,1.7,0.6,2.1,1s0.7,1,0.7,1.7c0,0.7-0.3,1.3-0.9,1.7
			s-1.3,0.6-2.3,0.6c-0.7,0-1.3-0.1-1.8-0.3s-1-0.5-1.4-0.9v-1.8h1.3l0.2,1.2c0.2,0.1,0.4,0.3,0.7,0.3s0.6,0.1,1,0.1
			c0.5,0,0.8-0.1,1.1-0.3s0.4-0.4,0.4-0.8c0-0.3-0.1-0.6-0.3-0.8s-0.6-0.4-1.2-0.6c-1-0.3-1.8-0.6-2.3-1s-0.8-1-0.8-1.7
			c0-0.7,0.3-1.3,0.9-1.7s1.3-0.7,2.2-0.7c0.7,0,1.3,0.1,1.8,0.3s1,0.5,1.4,0.8V55.2z"/>
	</g>
	<path class="st11" d="M648.6,72.5h-10.2c-0.6-2.5-3.2-4.1-5.7-3.5c-2.5,0.6-4.1,3.2-3.5,5.7s3.2,4.1,5.7,3.5c1.7-0.4,3-1.8,3.5-3.5
		h3l1.3,1.4l1.4-1.4h0.2l0.9,0.9l0.8-0.8l1.3,1.3l1.5-1.4l1.1-1L648.6,72.5z M632,74.9c-0.7,0-1.3-0.5-1.3-1.2
		c0-0.7,0.5-1.3,1.2-1.3c0.7,0,1.3,0.5,1.3,1.2c0,0,0,0,0,0C633.3,74.3,632.7,74.9,632,74.9z"/>
	<path class="st12" d="M623.1,72.5H613c-0.6-2.5-3.2-4.1-5.7-3.5c-2.5,0.6-4.1,3.2-3.5,5.7s3.2,4.1,5.7,3.5c1.7-0.4,3-1.8,3.5-3.5h3
		l1.4,1.4l1.4-1.4h0.2l0.9,0.9l0.8-0.8l1.3,1.3l1.5-1.4l1.1-1L623.1,72.5z M606.6,74.9c-0.7-0.1-1.2-0.7-1.1-1.4
		c0.1-0.6,0.5-1.1,1.1-1.1c0.7-0.1,1.3,0.4,1.4,1.1c0.1,0.7-0.4,1.3-1.1,1.4C606.7,74.9,606.6,74.9,606.6,74.9z"/>
	<path class="st13" d="M597.3,72.5h-10.2c-0.6-2.5-3.2-4.1-5.7-3.5c-2.5,0.6-4.1,3.2-3.5,5.7s3.2,4.1,5.7,3.5c1.7-0.4,3-1.8,3.5-3.5
		h3l1.4,1.4l1.4-1.4h0.1l0.9,0.9l0.8-0.8l1.3,1.3l1.5-1.4l1.1-1L597.3,72.5z M580.8,74.9c-0.7,0-1.3-0.5-1.3-1.2
		c0-0.7,0.5-1.3,1.2-1.3c0.7,0,1.3,0.5,1.3,1.2c0,0,0,0,0,0C582,74.3,581.4,74.9,580.8,74.9z"/>
	
		<linearGradient id="SVGID_6_" gradientUnits="userSpaceOnUse" x1="513.73" y1="68.13" x2="744.12" y2="68.13" gradientTransform="matrix(1 0 0 -1 0 280)">
		<stop  offset="0" style="stop-color:#990066"/>
		<stop  offset="0.19" style="stop-color:#780066"/>
		<stop  offset="0.4" style="stop-color:#5A0066"/>
		<stop  offset="0.61" style="stop-color:#440066"/>
		<stop  offset="0.81" style="stop-color:#370066"/>
		<stop  offset="1" style="stop-color:#330066"/>
	</linearGradient>
	<path class="st14" d="M518.7,174.1h220.4c2.8,0,5,2.2,5,5v65.5c0,2.8-2.2,5-5,5H518.7c-2.8,0-5-2.2-5-5v-65.5
		C513.7,176.4,516,174.1,518.7,174.1z"/>
	<path class="st15" d="M518.7,174.1h220.4c2.8,0,5,2.2,5,5v65.5c0,2.8-2.2,5-5,5H518.7c-2.8,0-5-2.2-5-5v-65.5
		C513.7,176.4,516,174.1,518.7,174.1z"/>
	
		<linearGradient id="SVGID_7_" gradientUnits="userSpaceOnUse" x1="506.74" y1="60.63" x2="737.13" y2="60.63" gradientTransform="matrix(1 0 0 -1 0 280)">
		<stop  offset="0" style="stop-color:#990066"/>
		<stop  offset="0.19" style="stop-color:#780066"/>
		<stop  offset="0.4" style="stop-color:#5A0066"/>
		<stop  offset="0.61" style="stop-color:#440066"/>
		<stop  offset="0.81" style="stop-color:#370066"/>
		<stop  offset="1" style="stop-color:#330066"/>
	</linearGradient>
	<path class="st16" d="M511.7,181.6h220.4c2.8,0,5,2.2,5,5v65.5c0,2.8-2.2,5-5,5H511.7c-2.8,0-5-2.2-5-5v-65.5
		C506.7,183.9,509,181.6,511.7,181.6z"/>
	<path class="st15" d="M511.7,181.6h220.4c2.8,0,5,2.2,5,5v65.5c0,2.8-2.2,5-5,5H511.7c-2.8,0-5-2.2-5-5v-65.5
		C506.7,183.9,509,181.6,511.7,181.6z"/>
	
		<linearGradient id="SVGID_8_" gradientUnits="userSpaceOnUse" x1="498.3" y1="52.83" x2="728.69" y2="52.83" gradientTransform="matrix(1 0 0 -1 0 280)">
		<stop  offset="0" style="stop-color:#990066"/>
		<stop  offset="0.19" style="stop-color:#780066"/>
		<stop  offset="0.4" style="stop-color:#5A0066"/>
		<stop  offset="0.61" style="stop-color:#440066"/>
		<stop  offset="0.81" style="stop-color:#370066"/>
		<stop  offset="1" style="stop-color:#330066"/>
	</linearGradient>
	<path class="st17" d="M503.3,189.4h220.4c2.8,0,5,2.2,5,5v65.5c0,2.8-2.2,5-5,5H503.3c-2.8,0-5-2.2-5-5v-65.5
		C498.3,191.7,500.5,189.4,503.3,189.4z"/>
	<path class="st15" d="M503.3,189.4h220.4c2.8,0,5,2.2,5,5v65.5c0,2.8-2.2,5-5,5H503.3c-2.8,0-5-2.2-5-5v-65.5
		C498.3,191.7,500.5,189.4,503.3,189.4z"/>
	<path class="st4" d="M526.7,211.7h172c2.8,0,5,2.2,5,5v17.2c0,2.8-2.2,5-5,5h-172c-2.8,0-5-2.2-5-5v-17.2
		C521.7,213.9,524,211.7,526.7,211.7z"/>
	<g class="st0">
		<path class="st5" d="M573.8,223.5h-1.2l-0.2-1.1c-0.1-0.1-0.3-0.2-0.6-0.2c-0.3-0.1-0.5-0.1-0.8-0.1c-0.4,0-0.8,0.1-1,0.3
			c-0.2,0.2-0.4,0.4-0.4,0.7c0,0.3,0.1,0.5,0.4,0.7s0.7,0.4,1.3,0.5c0.9,0.2,1.5,0.6,2,1c0.4,0.4,0.7,0.9,0.7,1.6
			c0,0.7-0.3,1.2-0.8,1.6c-0.5,0.4-1.2,0.6-2.1,0.6c-0.6,0-1.2-0.1-1.7-0.3c-0.5-0.2-0.9-0.5-1.2-0.8v-1.6h1.2l0.2,1.1
			c0.2,0.1,0.4,0.2,0.6,0.3s0.6,0.1,0.9,0.1c0.4,0,0.8-0.1,1-0.3c0.2-0.2,0.3-0.4,0.3-0.7c0-0.3-0.1-0.5-0.3-0.7
			c-0.2-0.2-0.6-0.4-1.1-0.5c-0.9-0.3-1.6-0.6-2.1-1c-0.5-0.4-0.7-0.9-0.7-1.5c0-0.6,0.3-1.2,0.8-1.6c0.5-0.4,1.2-0.6,2-0.6
			c0.6,0,1.1,0.1,1.6,0.3c0.5,0.2,0.9,0.4,1.2,0.7V223.5z"/>
		<path class="st5" d="M577.3,229c-0.8,0-1.5-0.3-2-0.8c-0.5-0.5-0.8-1.2-0.8-2v-0.2c0-0.9,0.2-1.6,0.7-2.1c0.5-0.6,1.1-0.8,1.9-0.8
			c0.8,0,1.4,0.2,1.8,0.7c0.4,0.5,0.6,1.1,0.6,1.9v0.9h-3.5l0,0c0,0.4,0.2,0.7,0.4,0.9c0.2,0.2,0.5,0.4,0.9,0.4c0.3,0,0.6,0,0.9-0.1
			c0.2-0.1,0.5-0.2,0.8-0.3l0.4,1c-0.2,0.2-0.6,0.3-0.9,0.5C578.2,228.9,577.8,229,577.3,229z M577.2,224.2c-0.3,0-0.5,0.1-0.7,0.3
			c-0.2,0.2-0.3,0.5-0.3,0.9l0,0h1.9v-0.1c0-0.3-0.1-0.6-0.2-0.8C577.8,224.3,577.5,224.2,577.2,224.2z"/>
		<path class="st5" d="M583.1,227.8c0.3,0,0.5-0.1,0.7-0.2c0.2-0.2,0.3-0.4,0.3-0.7h1.4l0,0c0,0.6-0.2,1.1-0.7,1.5
			c-0.5,0.4-1,0.6-1.7,0.6c-0.9,0-1.5-0.3-2-0.8c-0.5-0.5-0.7-1.3-0.7-2.1v-0.2c0-0.9,0.2-1.6,0.7-2.1s1.2-0.8,2.1-0.8
			c0.5,0,0.9,0.1,1.3,0.2c0.4,0.1,0.7,0.3,0.9,0.6l0,1.6h-1.3l-0.3-0.9c-0.1-0.1-0.2-0.1-0.3-0.2c-0.1,0-0.2-0.1-0.4-0.1
			c-0.4,0-0.8,0.2-0.9,0.5s-0.3,0.7-0.3,1.2v0.2c0,0.5,0.1,0.9,0.3,1.3C582.4,227.6,582.7,227.8,583.1,227.8z"/>
		<path class="st5" d="M590.3,228.1c-0.2,0.3-0.4,0.5-0.7,0.6c-0.3,0.1-0.6,0.2-0.9,0.2c-0.6,0-1.1-0.2-1.4-0.6
			c-0.3-0.4-0.5-1-0.5-1.8v-2.4l-0.6-0.2v-0.9h0.6h1.6v3.5c0,0.4,0.1,0.7,0.2,0.9c0.1,0.2,0.4,0.3,0.6,0.3c0.2,0,0.5,0,0.6-0.1
			c0.2-0.1,0.3-0.2,0.4-0.3v-3.1l-0.7-0.2v-0.9h0.7h1.6v4.7l0.7,0.2v0.9h-2.1L590.3,228.1z"/>
	</g>
	<g class="st0">
		<path class="st5" d="M593.2,227.9l0.8-0.2v-3.6l-0.8-0.2v-0.9h2.3l0.1,0.8c0.1-0.3,0.3-0.5,0.5-0.7c0.2-0.2,0.5-0.3,0.7-0.3
			c0.1,0,0.2,0,0.3,0c0.1,0,0.2,0,0.2,0l-0.2,1.4l-0.6,0c-0.2,0-0.4,0-0.6,0.1s-0.3,0.2-0.3,0.4v2.8l0.8,0.2v0.9h-3.1V227.9z"/>
	</g>
	<g class="st0">
		<path class="st5" d="M600.4,229c-0.8,0-1.5-0.3-2-0.8s-0.8-1.2-0.8-2v-0.2c0-0.9,0.2-1.6,0.7-2.1s1.1-0.8,1.9-0.8
			c0.8,0,1.4,0.2,1.8,0.7s0.6,1.1,0.6,1.9v0.9h-3.5l0,0c0,0.4,0.2,0.7,0.4,0.9c0.2,0.2,0.5,0.4,0.9,0.4c0.3,0,0.6,0,0.9-0.1
			c0.2-0.1,0.5-0.2,0.8-0.3l0.4,1c-0.2,0.2-0.6,0.3-0.9,0.5S600.9,229,600.4,229z M600.3,224.2c-0.3,0-0.5,0.1-0.7,0.3
			c-0.2,0.2-0.3,0.5-0.3,0.9l0,0h1.9v-0.1c0-0.3-0.1-0.6-0.2-0.8C600.8,224.3,600.6,224.2,600.3,224.2z"/>
		<path class="st5" d="M608.9,227.8c0.3,0,0.5-0.1,0.7-0.2s0.3-0.4,0.3-0.7h1.4l0,0c0,0.6-0.2,1.1-0.7,1.5c-0.5,0.4-1,0.6-1.7,0.6
			c-0.9,0-1.5-0.3-2-0.8s-0.7-1.3-0.7-2.1v-0.2c0-0.9,0.2-1.6,0.7-2.1c0.5-0.6,1.2-0.8,2.1-0.8c0.5,0,0.9,0.1,1.3,0.2
			c0.4,0.1,0.7,0.3,0.9,0.6l0,1.6h-1.3l-0.3-0.9c-0.1-0.1-0.2-0.1-0.3-0.2s-0.2-0.1-0.4-0.1c-0.4,0-0.8,0.2-0.9,0.5
			s-0.3,0.7-0.3,1.2v0.2c0,0.5,0.1,0.9,0.3,1.3C608.2,227.6,608.5,227.8,608.9,227.8z"/>
		<path class="st5" d="M612,225.9c0-0.9,0.2-1.6,0.7-2.1c0.5-0.6,1.2-0.8,2-0.8c0.9,0,1.5,0.3,2,0.8c0.5,0.6,0.7,1.3,0.7,2.1v0.1
			c0,0.9-0.2,1.6-0.7,2.1c-0.5,0.5-1.2,0.8-2,0.8c-0.9,0-1.5-0.3-2-0.8c-0.5-0.5-0.7-1.3-0.7-2.1V225.9z M613.5,226
			c0,0.5,0.1,1,0.3,1.3s0.5,0.5,0.9,0.5c0.4,0,0.7-0.2,0.9-0.5c0.2-0.3,0.3-0.7,0.3-1.3v-0.1c0-0.5-0.1-0.9-0.3-1.3
			c-0.2-0.3-0.5-0.5-0.9-0.5s-0.7,0.2-0.9,0.5s-0.3,0.7-0.3,1.3V226z"/>
		<path class="st5" d="M618,227.9l0.8-0.2v-3.6L618,224v-0.9h2.3l0.1,0.8c0.2-0.3,0.4-0.5,0.7-0.7s0.6-0.2,1-0.2
			c0.6,0,1,0.2,1.4,0.6c0.3,0.4,0.5,0.9,0.5,1.7v2.5l0.8,0.2v0.9h-3v-0.9l0.7-0.2v-2.5c0-0.4-0.1-0.7-0.2-0.8s-0.4-0.2-0.7-0.2
			c-0.2,0-0.4,0-0.6,0.1c-0.2,0.1-0.3,0.2-0.4,0.4v3.1l0.6,0.2v0.9h-3V227.9z"/>
		<path class="st5" d="M627.4,221.6v1.4h1v1.1h-1v3c0,0.2,0,0.4,0.1,0.5c0.1,0.1,0.2,0.1,0.4,0.1c0.1,0,0.2,0,0.3,0s0.2,0,0.3,0
			l0.1,1.1c-0.2,0.1-0.3,0.1-0.5,0.1c-0.2,0-0.4,0-0.6,0c-0.5,0-1-0.1-1.2-0.4c-0.3-0.3-0.4-0.8-0.4-1.4v-3H625v-1.1h0.9v-1.4H627.4
			z"/>
		<path class="st5" d="M632.9,228.9c0-0.1-0.1-0.2-0.1-0.3c0-0.1-0.1-0.2-0.1-0.3c-0.2,0.2-0.4,0.4-0.7,0.5
			c-0.3,0.1-0.6,0.2-0.9,0.2c-0.6,0-1-0.2-1.4-0.5c-0.3-0.3-0.5-0.7-0.5-1.3c0-0.5,0.2-1,0.7-1.3c0.4-0.3,1.1-0.4,1.9-0.4h0.8V225
			c0-0.3-0.1-0.5-0.2-0.6c-0.2-0.2-0.4-0.2-0.7-0.2c-0.2,0-0.3,0-0.5,0.1c-0.1,0-0.3,0.1-0.3,0.1l-0.1,0.6h-1.2l0-1.3
			c0.3-0.2,0.6-0.4,1-0.5c0.4-0.1,0.8-0.2,1.2-0.2c0.7,0,1.3,0.2,1.8,0.5s0.7,0.9,0.7,1.5v2.4c0,0.1,0,0.2,0,0.3c0,0.1,0,0.2,0,0.2
			l0.5,0.1v0.9H632.9z M631.6,227.8c0.2,0,0.5-0.1,0.6-0.2c0.2-0.1,0.3-0.2,0.5-0.4v-0.9h-0.8c-0.3,0-0.6,0.1-0.8,0.2
			c-0.2,0.2-0.3,0.3-0.3,0.6c0,0.2,0.1,0.4,0.2,0.5C631.2,227.8,631.3,227.8,631.6,227.8z"/>
		<path class="st5" d="M635.2,227.9l0.8-0.2v-3.6l-0.8-0.2v-0.9h2.4v4.7l0.8,0.2v0.9h-3.1V227.9z M637.5,221.7H636v-1.2h1.6V221.7z"
			/>
	</g>
	<g class="st0">
		<path class="st5" d="M638.7,227.9l0.8-0.2v-3.6l-0.8-0.2v-0.9h2.3l0.1,0.8c0.2-0.3,0.4-0.5,0.7-0.7c0.3-0.2,0.6-0.2,1-0.2
			c0.6,0,1,0.2,1.4,0.6c0.3,0.4,0.5,0.9,0.5,1.7v2.5l0.8,0.2v0.9h-3v-0.9l0.7-0.2v-2.5c0-0.4-0.1-0.7-0.2-0.8
			c-0.2-0.2-0.4-0.2-0.7-0.2c-0.2,0-0.4,0-0.6,0.1s-0.3,0.2-0.4,0.4v3.1l0.6,0.2v0.9h-3V227.9z"/>
	</g>
	<g class="st0">
		<path class="st5" d="M648.5,229c-0.8,0-1.5-0.3-2-0.8c-0.5-0.5-0.8-1.2-0.8-2v-0.2c0-0.9,0.2-1.6,0.7-2.1c0.5-0.6,1.1-0.8,1.9-0.8
			c0.8,0,1.4,0.2,1.8,0.7c0.4,0.5,0.6,1.1,0.6,1.9v0.9h-3.5l0,0c0,0.4,0.2,0.7,0.4,0.9c0.2,0.2,0.5,0.4,0.9,0.4c0.3,0,0.6,0,0.9-0.1
			c0.2-0.1,0.5-0.2,0.8-0.3l0.4,1c-0.2,0.2-0.6,0.3-0.9,0.5C649.4,228.9,649,229,648.5,229z M648.4,224.2c-0.3,0-0.5,0.1-0.7,0.3
			c-0.2,0.2-0.3,0.5-0.3,0.9l0,0h1.9v-0.1c0-0.3-0.1-0.6-0.2-0.8C648.9,224.3,648.7,224.2,648.4,224.2z"/>
		<path class="st5" d="M651.7,227.9l0.8-0.2v-3.6l-0.8-0.2v-0.9h2.3l0.1,0.8c0.1-0.3,0.3-0.5,0.5-0.7c0.2-0.2,0.5-0.3,0.7-0.3
			c0.1,0,0.2,0,0.3,0c0.1,0,0.2,0,0.2,0l-0.2,1.4l-0.6,0c-0.2,0-0.4,0-0.6,0.1s-0.3,0.2-0.3,0.4v2.8l0.8,0.2v0.9h-3.1V227.9z"/>
	</g>
	<path class="st3" d="M604.8,178.6c4.6-4.5,12.1-4.5,16.6,0.2s4.5,12.1-0.2,16.6c-4.6,4.5-12.1,4.5-16.6-0.2
		c-2.1-2.2-3.4-5.1-3.4-8.2c0-2.6,0.8-5.1,2.4-7.1"/>
	<path class="st4" d="M613,192.7h-4.2c-0.6,0-0.8-0.2-0.8-0.8v-6.5c0-0.6,0.2-0.8,0.8-0.8h8.5c0.5,0,0.8,0.2,0.8,0.8v6.5
		c0,0.6-0.2,0.8-0.8,0.8C615.8,192.7,614.4,192.7,613,192.7z"/>
	<path class="st4" d="M608.7,184c0-1.8,1-3.4,2.6-4.1c2.1-0.9,4.6,0,5.5,2.1c0.1,0.2,0.2,0.5,0.2,0.7c0.1,0.4,0.1,0.8,0.2,1.2"/>
	<path class="st5" d="M612.3,189.9L612.3,189.9v0.9c0,0.2,0.1,0.2,0.3,0.2h0.8c0.2,0,0.3-0.1,0.3-0.3v-1.6c0-0.2,0.1-0.3,0.2-0.4
		c0.5-0.3,0.8-0.9,0.6-1.4c-0.2-0.6-0.8-1-1.5-1c-0.7-0.1-1.3,0.3-1.6,0.9c-0.2,0.6,0,1.2,0.5,1.5c0.2,0.1,0.3,0.3,0.3,0.5
		C612.3,189.4,612.3,189.7,612.3,189.9z"/>
	<g id="Scone_logo_white-2">
		<g>
			<defs>
				<rect id="SVGID_9_" x="594.4" y="249.7" width="36.3" height="7.1"/>
			</defs>
			<clipPath id="SVGID_10_">
				<use xlink:href="#SVGID_9_"  style="overflow:visible;"/>
			</clipPath>
			<g class="st18">
				<g>
					<defs>
						<rect id="SVGID_11_" x="594.4" y="249.7" width="36.3" height="7.1"/>
					</defs>
					<clipPath id="SVGID_12_">
						<use xlink:href="#SVGID_11_"  style="overflow:visible;"/>
					</clipPath>
					<g class="st19">
						<path class="st8" d="M599.3,251.5h-0.8c-0.2,0-0.3,0.1-0.3,0.3v0.8c0,0.2,0.1,0.3,0.3,0.3h0.8c0.2,0,0.3-0.1,0.3-0.3v-0.8
							C599.6,251.6,599.4,251.5,599.3,251.5C599.3,251.5,599.3,251.5,599.3,251.5 M596.6,252.8h0.8c0.2,0,0.3-0.1,0.3-0.3v-0.8
							c0-0.2-0.1-0.3-0.3-0.3c0,0,0,0,0,0h-0.8c-0.2,0-0.3,0.1-0.3,0.3c0,0,0,0,0,0v0.8C596.3,252.7,596.4,252.8,596.6,252.8
							 M595.8,252.6v-0.8c0-0.2-0.1-0.3-0.3-0.3c0,0,0,0,0,0h-0.8c-0.2,0-0.3,0.1-0.3,0.3c0,0,0,0,0,0v0.8c0,0.2,0.1,0.3,0.3,0.3
							c0,0,0,0,0,0h0.8C595.7,252.8,595.8,252.7,595.8,252.6 M599.3,253.4c-0.1,0-0.2,0.1-0.2,0.2v0.9c0,0.1,0.1,0.2,0.2,0.2
							c0.1,0,0.2-0.1,0.2-0.2v-0.9C599.5,253.5,599.5,253.4,599.3,253.4C599.3,253.4,599.3,253.4,599.3,253.4 M597.2,253.7v0.8
							c0,0.2,0.1,0.3,0.3,0.3c0,0,0,0,0,0h0.8c0.2,0,0.3-0.1,0.3-0.3c0,0,0,0,0,0v-0.8c0-0.2-0.1-0.3-0.3-0.3h-0.8
							C597.4,253.4,597.2,253.5,597.2,253.7C597.2,253.7,597.2,253.7,597.2,253.7 M596.7,254.4v-0.8c0-0.2-0.1-0.3-0.3-0.3h-0.8
							c-0.2,0-0.3,0.1-0.3,0.3v0.8c0,0.2,0.1,0.3,0.3,0.3c0,0,0,0,0,0h0.8C596.6,254.8,596.7,254.6,596.7,254.4
							C596.7,254.5,596.7,254.5,596.7,254.4 M599.3,255.3h-0.8c-0.2,0-0.3,0.1-0.3,0.3v0.8c0,0.2,0.1,0.3,0.3,0.3h0.8
							c0.2,0,0.3-0.1,0.3-0.3v-0.8C599.6,255.4,599.4,255.3,599.3,255.3 M597.3,255.3h-0.8c-0.2,0-0.3,0.1-0.3,0.3v0.8
							c0,0.2,0.1,0.3,0.3,0.3h0.8c0.2,0,0.3-0.1,0.3-0.3v-0.8C597.6,255.4,597.4,255.3,597.3,255.3"/>
						<path class="st8" d="M600.2,251.2c0.3,0.3,0.8,0.4,1.2,0.4c0,0,0,0,0,0.1v2.1c0,0.8-1,1.3-1.2,1.4l0,0L600.2,251.2
							L600.2,251.2"/>
						<path class="st8" d="M597.9,251.1c1.6,0,1.9-0.6,1.9-0.6c0,0,0,0,0.1-0.1c0,0,0.1,0,0.1,0s0.3,0.6,1.9,0.6c0,0,0.1,0,0.1,0.1
							v2.8c0,0.9-1.7,1.9-1.7,1.9s-0.1,0-0.1,0.1v0.7c0,0,0.1,0,0.2,0c0.6-0.3,2.3-1.3,2.3-2.5v-3.5c0-0.1-0.1-0.1-0.2-0.1
							c-2,0-2.4-0.8-2.4-0.8s-0.1,0-0.1,0s-0.1,0-0.1,0s-0.3,0.8-2.4,0.8c-0.1,0-0.1,0-0.1,0.1v0.5c0,0,0,0.1,0.1,0.1L597.9,251.1"
							/>
						<path class="st9" d="M604.1,255.6l0.8-0.3c0.2,0.4,0.6,0.6,1.1,0.6c0.2,0,0.4,0,0.6-0.1c0.2-0.1,0.3-0.3,0.3-0.4
							c0-0.4-0.6-0.7-1-0.9l0,0c-0.3-0.1-0.7-0.3-1-0.5c-0.3-0.2-0.5-0.6-0.5-1c0-0.4,0.2-0.8,0.5-1c0.3-0.3,0.8-0.4,1.2-0.4
							c0.7,0,1.3,0.3,1.6,0.9l-0.8,0.3c-0.1-0.1-0.2-0.2-0.3-0.3c-0.1-0.1-0.3-0.1-0.5-0.1c-0.5,0-0.8,0.3-0.8,0.6
							c0,0.2,0.1,0.4,0.3,0.5c0.2,0.1,0.5,0.3,0.7,0.4h0.1c0.6,0.3,1.4,0.6,1.4,1.4c0,0.4-0.2,0.8-0.5,1c-0.4,0.3-0.9,0.4-1.3,0.4
							C605.2,256.6,604.5,256.2,604.1,255.6"/>
						<path class="st9" d="M611.3,256.7c-0.3,0-0.7-0.1-1-0.2c-0.3-0.1-0.6-0.3-0.8-0.6c-0.2-0.2-0.4-0.5-0.5-0.8
							c-0.1-0.3-0.2-0.7-0.2-1c0-0.3,0.1-0.7,0.2-1c0.1-0.3,0.3-0.6,0.5-0.8c0.2-0.2,0.5-0.4,0.8-0.6c0.3-0.1,0.7-0.2,1-0.2
							c0.4,0,0.8,0.1,1.2,0.3c0.3,0.2,0.7,0.4,0.9,0.8l-0.7,0.5c-0.2-0.2-0.4-0.4-0.6-0.5c-0.2-0.1-0.5-0.2-0.8-0.2
							c-1,0-1.8,0.7-1.8,1.7c0,0.5,0.2,1,0.6,1.3c0.3,0.3,0.8,0.5,1.2,0.5c0.3,0,0.6-0.1,0.9-0.3c0.3-0.2,0.5-0.4,0.6-0.6l0.8,0.4
							c-0.2,0.4-0.5,0.8-0.9,1C612.2,256.6,611.8,256.8,611.3,256.7"/>
						<path class="st9" d="M617,256.7c-0.3,0-0.7-0.1-1-0.2c-0.3-0.1-0.6-0.3-0.8-0.6c-0.2-0.2-0.4-0.5-0.6-0.8
							c-0.1-0.3-0.2-0.7-0.2-1c0-0.3,0.1-0.7,0.2-1c0.1-0.3,0.3-0.6,0.6-0.8c0.2-0.2,0.5-0.4,0.8-0.6c0.3-0.1,0.7-0.2,1-0.2
							c0.3,0,0.7,0.1,1,0.2c0.3,0.1,0.6,0.3,0.8,0.6c0.2,0.2,0.4,0.5,0.6,0.8c0.3,0.6,0.3,1.4,0,2c-0.1,0.3-0.3,0.6-0.6,0.8
							C618.3,256.4,617.7,256.7,617,256.7 M617,252.3c-0.5,0-0.9,0.2-1.2,0.5c-0.3,0.3-0.5,0.8-0.5,1.2c0,1,0.7,1.8,1.7,1.8
							c0.5,0,1-0.2,1.3-0.6c0.3-0.3,0.5-0.8,0.5-1.2c0-0.5-0.2-0.9-0.5-1.2C617.9,252.5,617.5,252.3,617,252.3"/>
						<polygon class="st9" points="625.5,251.5 625.5,256.8 621.8,253.5 621.8,256.6 620.9,256.6 620.9,251.3 624.5,254.7 
							624.5,251.5 						"/>
						<polygon class="st9" points="627.9,252.3 627.9,253.6 630.5,253.6 630.5,254.4 627.9,254.4 627.9,255.8 630.8,255.8 
							630.8,256.6 627,256.6 627,251.5 630.8,251.5 630.8,252.3 627.9,252.3 						"/>
					</g>
				</g>
			</g>
		</g>
	</g>
	<path class="st20" d="M206.1,206.7h90c2.8,0,5,2.2,5,5v20.6c0,2.8-2.2,5-5,5h-90c-2.8,0-5-2.2-5-5v-20.6
		C201.1,208.9,203.3,206.7,206.1,206.7z"/>
	<g class="st0">
		<path class="st1" d="M379.5,191.4c0,0.4,0,0.8,0,1.3c0,0.4,0.1,0.9,0.1,1.4h-1.4l-0.3-1H378c-0.2,0.4-0.5,0.6-0.9,0.8
			s-0.8,0.3-1.3,0.3c-0.9,0-1.7-0.3-2.2-0.9s-0.8-1.6-0.8-2.9c0-1.3,0.3-2.3,0.9-3c0.6-0.7,1.4-1.1,2.5-1.1c0.3,0,0.6,0,0.8,0.1
			c0.2,0,0.4,0.1,0.6,0.2v-3h2V191.4z M376.2,192.6c0.4,0,0.7-0.1,0.9-0.3c0.2-0.2,0.4-0.5,0.5-0.8v-3.2c-0.1-0.1-0.3-0.2-0.5-0.2
			s-0.4-0.1-0.7-0.1c-0.5,0-1,0.2-1.2,0.6s-0.4,1-0.4,1.9c0,0.6,0.1,1.2,0.3,1.5C375.4,192.4,375.7,192.6,376.2,192.6z"/>
		<path class="st1" d="M387.3,193.4c-0.3,0.2-0.7,0.4-1.2,0.6s-1.1,0.2-1.6,0.2c-1.2,0-2.1-0.4-2.7-1.1s-0.8-1.7-0.8-2.9
			c0-1.3,0.3-2.3,0.9-3s1.5-1,2.7-1c0.4,0,0.8,0,1.1,0.2c0.4,0.1,0.7,0.3,1,0.5c0.3,0.2,0.5,0.5,0.7,0.9c0.2,0.4,0.3,0.9,0.3,1.5
			c0,0.2,0,0.4,0,0.7s-0.1,0.5-0.1,0.8h-4.5c0,0.6,0.2,1.1,0.5,1.4s0.8,0.5,1.4,0.5c0.4,0,0.8-0.1,1.1-0.2s0.6-0.3,0.7-0.4
			L387.3,193.4z M384.5,187.9c-0.5,0-0.9,0.2-1.1,0.5s-0.4,0.7-0.4,1.2h2.8c0-0.5,0-1-0.2-1.2C385.2,188,384.9,187.9,384.5,187.9z"
			/>
		<path class="st1" d="M388.9,186.5h1.4l0.2,0.9h0.1c0.3-0.4,0.6-0.7,0.9-0.8c0.4-0.2,0.8-0.3,1.3-0.3c0.9,0,1.6,0.3,2.1,0.9
			s0.7,1.6,0.7,2.9c0,0.6-0.1,1.2-0.2,1.7c-0.1,0.5-0.4,1-0.7,1.3c-0.3,0.4-0.7,0.6-1.1,0.8c-0.4,0.2-0.9,0.3-1.5,0.3
			c-0.3,0-0.6,0-0.8-0.1c-0.2,0-0.4-0.1-0.6-0.2v3.1h-2V186.5z M392.2,188c-0.4,0-0.7,0.1-0.9,0.3c-0.2,0.2-0.4,0.5-0.5,0.9v3.1
			c0.1,0.1,0.3,0.2,0.5,0.3c0.2,0.1,0.4,0.1,0.7,0.1c0.6,0,1-0.2,1.3-0.6c0.3-0.4,0.4-1,0.4-2c0-0.7-0.1-1.2-0.3-1.5
			C393.1,188.2,392.7,188,392.2,188z"/>
		<path class="st1" d="M399,191.5c0,0.3,0,0.6,0.1,0.8s0.2,0.2,0.4,0.2c0.1,0,0.2,0,0.4,0c0.1,0,0.3-0.1,0.4-0.1l0.2,1.5
			c-0.2,0.1-0.4,0.2-0.7,0.2s-0.7,0.1-1,0.1c-0.6,0-1-0.1-1.3-0.4c-0.3-0.3-0.5-0.7-0.5-1.3v-9h2V191.5z"/>
	</g>
	<g class="st0">
		<path class="st1" d="M401,190.3c0-1.3,0.3-2.2,0.9-2.9c0.6-0.7,1.5-1,2.6-1c0.6,0,1.1,0.1,1.6,0.3c0.4,0.2,0.8,0.5,1.1,0.8
			c0.3,0.3,0.5,0.8,0.7,1.3c0.1,0.5,0.2,1,0.2,1.6c0,1.3-0.3,2.2-0.9,2.9c-0.6,0.7-1.5,1-2.6,1c-0.6,0-1.1-0.1-1.6-0.3
			c-0.4-0.2-0.8-0.5-1.1-0.8c-0.3-0.3-0.5-0.8-0.7-1.3C401.1,191.4,401,190.9,401,190.3z M403,190.3c0,0.3,0,0.6,0.1,0.9
			s0.2,0.5,0.3,0.7c0.1,0.2,0.3,0.4,0.5,0.5c0.2,0.1,0.4,0.2,0.7,0.2c0.5,0,0.9-0.2,1.1-0.6s0.4-1,0.4-1.8c0-0.7-0.1-1.2-0.3-1.7
			c-0.2-0.4-0.6-0.6-1.2-0.6c-0.5,0-0.9,0.2-1.1,0.5C403.2,188.9,403,189.5,403,190.3z"/>
	</g>
	<g class="st0">
		<path class="st1" d="M412,190.8l0.3,1.2h0.1l0.2-1.2l1.1-4.2h2l-2.3,6.8c-0.2,0.6-0.4,1.1-0.5,1.5s-0.4,0.9-0.6,1.2
			c-0.2,0.3-0.4,0.6-0.7,0.8c-0.3,0.2-0.6,0.3-0.9,0.3c-0.5,0-0.9-0.1-1.2-0.3l0.4-1.6c0.1,0.1,0.3,0.1,0.5,0.1
			c0.2,0,0.5-0.1,0.7-0.3c0.2-0.2,0.4-0.5,0.5-1.1l-3.1-7.5h2.3L412,190.8z"/>
	</g>
	<g class="st0">
		<path class="st1" d="M424.9,186.5l1.4,3.8l0.3,1.2h0.1l0.2-1.3l1-3.8h1.8l-2.3,7.6h-1.4l-1.5-4.2l-0.2-0.9H424l-0.2,1l-1.4,4.2
			h-1.5l-2.4-7.6h2.1l1.1,3.8l0.2,1.3h0.1l0.3-1.3l1.2-3.8H424.9z"/>
		<path class="st1" d="M430.2,184.4c0-0.3,0.1-0.5,0.3-0.7c0.2-0.2,0.5-0.3,0.9-0.3c0.4,0,0.7,0.1,0.9,0.3c0.2,0.2,0.4,0.5,0.4,0.7
			s-0.1,0.5-0.4,0.7c-0.2,0.2-0.5,0.3-0.9,0.3c-0.4,0-0.7-0.1-0.9-0.3C430.3,185,430.2,184.7,430.2,184.4z M430.5,186.5h2v7.5h-2
			V186.5z"/>
		<path class="st1" d="M433.6,186.5h1v-1.4l2-0.6v2h1.8v1.7h-1.8v2.9c0,0.5,0.1,0.9,0.2,1.1s0.3,0.3,0.6,0.3c0.2,0,0.4,0,0.5-0.1
			c0.1,0,0.3-0.1,0.5-0.2l0.3,1.5c-0.3,0.1-0.6,0.2-0.9,0.3c-0.4,0.1-0.7,0.1-1.1,0.1c-0.7,0-1.2-0.2-1.5-0.5
			c-0.3-0.4-0.5-0.9-0.5-1.7v-3.8h-1V186.5z"/>
		<path class="st1" d="M444.2,194v-4.3c0-0.6-0.1-1-0.3-1.3c-0.2-0.3-0.5-0.4-0.9-0.4c-0.3,0-0.6,0.1-0.9,0.3
			c-0.3,0.2-0.5,0.5-0.5,0.9v4.8h-2v-10.5h2v3.8h0.1c0.2-0.3,0.5-0.6,0.9-0.8c0.4-0.2,0.8-0.3,1.3-0.3c0.4,0,0.7,0,1,0.2
			c0.3,0.1,0.5,0.3,0.7,0.5c0.2,0.2,0.3,0.5,0.4,0.9c0.1,0.4,0.1,0.9,0.1,1.5v4.7H444.2z"/>
	</g>
	<g class="st0">
		<path class="st1" d="M373.2,201.5c0.2,0,0.4-0.1,0.7-0.1c0.3,0,0.5,0,0.8,0c0.3,0,0.6,0,0.8,0c0.3,0,0.5,0,0.7,0
			c0.9,0,1.7,0.1,2.4,0.4c0.7,0.3,1.2,0.6,1.6,1.1c0.4,0.5,0.7,1,0.9,1.7c0.2,0.7,0.3,1.4,0.3,2.1c0,0.7-0.1,1.4-0.3,2.1
			c-0.2,0.7-0.5,1.2-0.9,1.8c-0.4,0.5-1,0.9-1.7,1.2c-0.7,0.3-1.5,0.5-2.5,0.5c-0.2,0-0.4,0-0.6,0c-0.3,0-0.5,0-0.8,0
			c-0.3,0-0.6,0-0.8,0s-0.5,0-0.6-0.1V201.5z M376.4,203.2c-0.2,0-0.4,0-0.7,0s-0.4,0-0.5,0v7c0,0,0.1,0,0.2,0c0.1,0,0.2,0,0.3,0
			s0.2,0,0.3,0c0.1,0,0.2,0,0.2,0c0.6,0,1.1-0.1,1.4-0.3c0.4-0.2,0.7-0.5,0.9-0.8c0.2-0.3,0.4-0.7,0.5-1.2c0.1-0.4,0.1-0.9,0.1-1.4
			c0-0.4,0-0.8-0.1-1.2s-0.2-0.8-0.4-1.1c-0.2-0.3-0.5-0.6-0.9-0.8C377.5,203.3,377,203.2,376.4,203.2z"/>
		<path class="st1" d="M382.5,208.3c0-1.3,0.3-2.2,0.9-2.9c0.6-0.7,1.5-1,2.6-1c0.6,0,1.1,0.1,1.6,0.3c0.4,0.2,0.8,0.5,1.1,0.8
			c0.3,0.3,0.5,0.8,0.7,1.3c0.1,0.5,0.2,1,0.2,1.6c0,1.3-0.3,2.2-0.9,2.9c-0.6,0.7-1.5,1-2.6,1c-0.6,0-1.1-0.1-1.6-0.3
			c-0.4-0.2-0.8-0.5-1.1-0.8c-0.3-0.3-0.5-0.8-0.7-1.3S382.5,208.9,382.5,208.3z M384.5,208.3c0,0.3,0,0.6,0.1,0.9
			c0.1,0.3,0.1,0.5,0.3,0.7c0.1,0.2,0.3,0.4,0.5,0.5c0.2,0.1,0.4,0.2,0.7,0.2c0.5,0,0.9-0.2,1.1-0.6s0.4-1,0.4-1.8
			c0-0.7-0.1-1.2-0.3-1.7c-0.2-0.4-0.6-0.6-1.2-0.6c-0.5,0-0.9,0.2-1.1,0.5C384.7,206.9,384.5,207.5,384.5,208.3z"/>
		<path class="st1" d="M396.2,211.6c-0.3,0.2-0.7,0.4-1.1,0.5c-0.4,0.1-0.9,0.2-1.3,0.2c-0.6,0-1.1-0.1-1.5-0.3
			c-0.4-0.2-0.8-0.5-1-0.8c-0.3-0.3-0.4-0.8-0.6-1.3c-0.1-0.5-0.2-1-0.2-1.6c0-1.3,0.3-2.2,0.9-2.9c0.6-0.7,1.4-1,2.5-1
			c0.5,0,1,0,1.3,0.1s0.6,0.2,0.9,0.3l-0.5,1.6c-0.2-0.1-0.5-0.2-0.7-0.3c-0.2-0.1-0.5-0.1-0.8-0.1c-0.5,0-0.9,0.2-1.2,0.5
			c-0.3,0.4-0.4,0.9-0.4,1.7c0,0.3,0,0.6,0.1,0.9c0.1,0.3,0.2,0.5,0.3,0.7s0.3,0.4,0.5,0.5c0.2,0.1,0.5,0.2,0.8,0.2
			c0.3,0,0.6,0,0.8-0.1c0.2-0.1,0.4-0.2,0.6-0.3L396.2,211.6z"/>
	</g>
	<g class="st0">
		<path class="st1" d="M399.9,208.9h-0.5v3.1h-2v-10.5h2v6.2l0.4-0.2l1.7-3h2.1l-1.8,2.8l-0.8,0.6l0.8,0.6l2,3.5h-2.2L399.9,208.9z"
			/>
	</g>
	<g class="st0">
		<path class="st1" d="M410.6,211.4c-0.3,0.2-0.7,0.4-1.2,0.6c-0.5,0.2-1.1,0.2-1.6,0.2c-1.2,0-2.1-0.4-2.7-1.1
			c-0.6-0.7-0.8-1.7-0.8-2.9c0-1.3,0.3-2.3,0.9-3s1.5-1,2.7-1c0.4,0,0.8,0,1.1,0.2c0.4,0.1,0.7,0.3,1,0.5c0.3,0.2,0.5,0.5,0.7,0.9
			c0.2,0.4,0.3,0.9,0.3,1.5c0,0.2,0,0.4,0,0.7c0,0.2-0.1,0.5-0.1,0.8h-4.5c0,0.6,0.2,1.1,0.5,1.4s0.8,0.5,1.4,0.5
			c0.4,0,0.8-0.1,1.1-0.2c0.3-0.1,0.6-0.3,0.7-0.4L410.6,211.4z M407.8,205.9c-0.5,0-0.9,0.2-1.1,0.5c-0.2,0.3-0.4,0.7-0.4,1.2h2.8
			c0-0.5,0-1-0.2-1.2S408.3,205.9,407.8,205.9z"/>
		<path class="st1" d="M416.4,206.4c-0.3-0.1-0.6-0.2-0.8-0.2c-0.4,0-0.6,0.1-0.9,0.3c-0.2,0.2-0.4,0.4-0.5,0.7v4.8h-2v-7.5h1.5
			l0.2,1h0.1c0.2-0.4,0.4-0.7,0.7-0.9c0.3-0.2,0.6-0.3,1-0.3c0.3,0,0.6,0.1,0.9,0.2L416.4,206.4z"/>
		<path class="st1" d="M425.9,209.2c0-0.3-0.1-0.6-0.4-0.8c-0.2-0.2-0.5-0.4-0.9-0.5c-0.4-0.2-0.7-0.3-1.2-0.5
			c-0.4-0.2-0.8-0.4-1.2-0.6c-0.4-0.3-0.7-0.6-0.9-1c-0.2-0.4-0.4-0.9-0.4-1.5c0-0.5,0.1-1,0.3-1.3s0.4-0.7,0.7-0.9
			c0.3-0.3,0.7-0.4,1.1-0.6s0.9-0.2,1.4-0.2c0.6,0,1.2,0.1,1.7,0.2c0.5,0.1,1,0.3,1.3,0.5l-0.6,1.7c-0.2-0.1-0.6-0.3-1-0.4
			c-0.4-0.1-0.9-0.2-1.4-0.2c-0.5,0-0.8,0.1-1.1,0.3c-0.3,0.2-0.4,0.4-0.4,0.8c0,0.3,0.1,0.5,0.4,0.8c0.2,0.2,0.5,0.4,0.9,0.6
			c0.4,0.2,0.7,0.3,1.2,0.5s0.8,0.4,1.2,0.7c0.4,0.3,0.6,0.6,0.9,0.9c0.2,0.4,0.4,0.8,0.4,1.4c0,0.6-0.1,1-0.3,1.4
			c-0.2,0.4-0.4,0.7-0.8,1c-0.3,0.3-0.7,0.5-1.2,0.6c-0.5,0.1-1,0.2-1.6,0.2c-0.8,0-1.4-0.1-2-0.2c-0.6-0.1-1-0.3-1.3-0.4l0.7-1.8
			c0.1,0.1,0.3,0.1,0.4,0.2c0.2,0.1,0.4,0.1,0.6,0.2c0.2,0.1,0.5,0.1,0.7,0.2c0.2,0,0.5,0.1,0.8,0.1c0.6,0,1.1-0.1,1.4-0.3
			C425.7,210,425.9,209.6,425.9,209.2z"/>
		<path class="st1" d="M434.7,204.5l1.4,3.8l0.3,1.2h0.1l0.2-1.3l1-3.8h1.8l-2.3,7.6h-1.4l-1.5-4.2l-0.2-0.9h-0.1l-0.2,1l-1.4,4.2
			h-1.5l-2.4-7.6h2.1l1.1,3.8l0.2,1.3h0.1l0.3-1.3l1.2-3.8H434.7z"/>
		<path class="st1" d="M440,205c0.4-0.2,0.9-0.3,1.4-0.4c0.5-0.1,1.1-0.2,1.7-0.2c0.5,0,1,0.1,1.3,0.2c0.3,0.1,0.6,0.3,0.8,0.5
			c0.2,0.2,0.3,0.5,0.4,0.8c0.1,0.3,0.1,0.7,0.1,1.1c0,0.4,0,0.9,0,1.3c0,0.4,0,0.9-0.1,1.3c0,0.4,0,0.8,0,1.3
			c0,0.4,0.1,0.8,0.2,1.1h-1.6l-0.3-1H444c-0.2,0.3-0.5,0.6-0.8,0.8c-0.4,0.2-0.8,0.3-1.4,0.3c-0.3,0-0.7-0.1-0.9-0.2
			c-0.3-0.1-0.5-0.3-0.7-0.5c-0.2-0.2-0.4-0.4-0.5-0.7c-0.1-0.3-0.2-0.6-0.2-0.9c0-0.5,0.1-0.8,0.3-1.2c0.2-0.3,0.5-0.6,0.9-0.8
			c0.4-0.2,0.8-0.3,1.4-0.4s1.1-0.1,1.8-0.1c0.1-0.6,0-1-0.1-1.2s-0.5-0.4-1-0.4c-0.4,0-0.8,0-1.2,0.1c-0.4,0.1-0.8,0.2-1.1,0.3
			L440,205z M442.5,210.6c0.4,0,0.7-0.1,0.9-0.3c0.2-0.2,0.4-0.4,0.5-0.6v-1c-0.3,0-0.6,0-0.9,0c-0.3,0-0.5,0.1-0.8,0.1
			c-0.2,0.1-0.4,0.2-0.5,0.3s-0.2,0.3-0.2,0.5c0,0.3,0.1,0.5,0.2,0.7C442,210.5,442.2,210.6,442.5,210.6z"/>
		<path class="st1" d="M451.6,206.4c-0.3-0.1-0.6-0.2-0.8-0.2c-0.3,0-0.6,0.1-0.9,0.3c-0.2,0.2-0.4,0.4-0.5,0.7v4.8h-2v-7.5h1.5
			l0.2,1h0.1c0.2-0.4,0.4-0.7,0.7-0.9c0.3-0.2,0.6-0.3,1-0.3c0.3,0,0.6,0.1,0.9,0.2L451.6,206.4z"/>
		<path class="st1" d="M457,212V208c0-0.7-0.1-1.2-0.2-1.5s-0.4-0.4-0.8-0.4c-0.3,0-0.6,0.1-0.8,0.3c-0.2,0.2-0.4,0.4-0.5,0.7v5h-2
			v-7.5h1.5l0.2,1h0.1c0.2-0.3,0.5-0.6,0.9-0.8c0.4-0.2,0.8-0.4,1.4-0.4c0.5,0,0.9,0.1,1.2,0.3c0.3,0.2,0.5,0.5,0.7,1
			c0.2-0.4,0.5-0.7,0.9-0.9c0.4-0.2,0.8-0.3,1.3-0.3c0.4,0,0.8,0,1.1,0.2c0.3,0.1,0.5,0.3,0.7,0.5c0.2,0.2,0.3,0.6,0.4,1
			s0.1,0.9,0.1,1.6v4.5h-2v-4.2c0-0.6-0.1-1-0.2-1.3c-0.1-0.3-0.4-0.4-0.8-0.4c-0.4,0-0.6,0.1-0.8,0.3c-0.2,0.2-0.4,0.5-0.5,0.8v4.9
			H457z"/>
	</g>
	<path class="st21" d="M336.5,207.6c-0.9,0-1.7-0.7-1.7-1.7c0.1-0.9,0.9-1.6,1.8-1.6c0.8,0.1,1.5,0.7,1.6,1.6
		C338.2,206.9,337.5,207.6,336.5,207.6C336.5,207.6,336.5,207.6,336.5,207.6z"/>
	<path class="st21" d="M358,198.7c-0.2-1.3-1-2.5-2.1-3.3l-0.5-0.3l-0.3,0.4c-0.6,0.9-0.9,2-0.8,3.1c0.1,0.7,0.3,1.4,0.8,2
		c-0.4,0.1-0.8,0.3-1.1,0.5c-0.7,0.3-1.5,0.4-2.3,0.3h-21.5l-0.1,0.5c-0.1,1.6,0.2,3.2,0.8,4.6l0.3,0.6v0.1c2,3.3,5.6,4.8,9.5,4.8
		c7.5,0,13.6-3.3,16.5-10.1c1.9,0.1,3.8-0.4,4.7-2.2l0.3-0.4l-0.4-0.2C360.6,198.4,359.2,198.3,358,198.7L358,198.7z"/>
	<rect x="343.4" y="196.1" class="st21" width="3" height="2.9"/>
	<rect x="343.4" y="190.8" class="st21" width="3" height="2.9"/>
	<rect x="348.6" y="196.1" class="st21" width="3" height="2.9"/>
	<polygon class="st21" points="336,196.1 333,196.1 333,199 336,199 	"/>
	<rect x="338.3" y="196.1" class="st21" width="3" height="2.9"/>
	<rect x="338.3" y="190.8" class="st21" width="3" height="2.9"/>
	<rect x="343.4" y="185.6" class="st21" width="3" height="2.9"/>
	<line class="st22" x1="483.1" y1="223.1" x2="482.1" y2="223.1"/>
	<line class="st23" x1="480.1" y1="223.1" x2="320.2" y2="223.1"/>
	<line class="st22" x1="319.2" y1="223.1" x2="318.2" y2="223.1"/>
	<polygon class="st12" points="476.5,214.9 475.1,216.4 482.3,223.1 475.1,229.8 476.5,231.2 485.3,223.1 	"/>
	<line class="st24" x1="483.1" y1="57.4" x2="482.1" y2="57.4"/>
	<line class="st25" x1="480.1" y1="57.4" x2="320.2" y2="57.4"/>
	<line class="st24" x1="319.2" y1="57.4" x2="318.2" y2="57.4"/>
	<polygon class="st1" points="476.5,49.2 475.1,50.7 482.3,57.4 475.1,64.1 476.5,65.6 485.3,57.4 	"/>
	<g class="st0">
		<path class="st1" d="M232,221h-1.3l-0.2-1.2c-0.2-0.1-0.4-0.2-0.7-0.3c-0.3-0.1-0.6-0.1-0.9-0.1c-0.5,0-0.8,0.1-1.1,0.3
			c-0.3,0.2-0.4,0.5-0.4,0.8c0,0.3,0.1,0.5,0.4,0.7c0.3,0.2,0.7,0.4,1.4,0.6c1,0.3,1.7,0.6,2.2,1.1c0.5,0.4,0.7,1,0.7,1.7
			c0,0.7-0.3,1.3-0.9,1.8c-0.6,0.4-1.4,0.6-2.3,0.6c-0.7,0-1.3-0.1-1.9-0.3c-0.6-0.2-1-0.5-1.4-0.9V224h1.4l0.2,1.2
			c0.2,0.1,0.4,0.3,0.7,0.4s0.6,0.1,1,0.1c0.5,0,0.8-0.1,1.1-0.3c0.2-0.2,0.4-0.5,0.4-0.8c0-0.3-0.1-0.6-0.4-0.8
			c-0.2-0.2-0.7-0.4-1.2-0.6c-1-0.3-1.8-0.7-2.3-1.1c-0.5-0.4-0.8-1-0.8-1.7c0-0.7,0.3-1.3,0.9-1.7s1.3-0.7,2.3-0.7
			c0.7,0,1.3,0.1,1.8,0.3s1,0.5,1.4,0.8V221z"/>
		<path class="st1" d="M235.4,218.9v1.6h1.1v1.2h-1.1v3.3c0,0.3,0.1,0.4,0.2,0.5s0.2,0.2,0.4,0.2c0.1,0,0.2,0,0.3,0
			c0.1,0,0.2,0,0.3-0.1l0.1,1.3c-0.2,0.1-0.4,0.1-0.6,0.1c-0.2,0-0.4,0-0.6,0c-0.6,0-1.1-0.2-1.4-0.5c-0.3-0.3-0.5-0.9-0.5-1.6v-3.3
			h-1v-1.2h1v-1.6H235.4z"/>
		<path class="st1" d="M241.5,226.9c0-0.1-0.1-0.2-0.1-0.3c0-0.1-0.1-0.2-0.1-0.3c-0.2,0.2-0.5,0.4-0.8,0.6s-0.6,0.2-1,0.2
			c-0.6,0-1.1-0.2-1.5-0.5s-0.6-0.8-0.6-1.4c0-0.6,0.2-1.1,0.7-1.4c0.5-0.3,1.2-0.5,2.1-0.5h0.9v-0.6c0-0.3-0.1-0.6-0.3-0.7
			c-0.2-0.2-0.4-0.3-0.8-0.3c-0.2,0-0.4,0-0.5,0.1c-0.2,0-0.3,0.1-0.4,0.2l-0.1,0.7h-1.3l0-1.4c0.3-0.2,0.7-0.4,1.1-0.5
			c0.4-0.1,0.9-0.2,1.3-0.2c0.8,0,1.5,0.2,2,0.6c0.5,0.4,0.8,1,0.8,1.7v2.7c0,0.1,0,0.2,0,0.3c0,0.1,0,0.2,0,0.3l0.5,0.1v1H241.5z
			 M240,225.8c0.3,0,0.5-0.1,0.7-0.2c0.2-0.1,0.4-0.3,0.5-0.4v-1h-0.9c-0.4,0-0.7,0.1-0.8,0.3s-0.3,0.4-0.3,0.6
			c0,0.2,0.1,0.4,0.2,0.5C239.6,225.7,239.8,225.8,240,225.8z"/>
		<path class="st1" d="M247.2,225.7c0.3,0,0.6-0.1,0.7-0.3c0.2-0.2,0.3-0.4,0.3-0.7h1.6l0,0c0,0.7-0.2,1.2-0.7,1.6
			c-0.5,0.4-1.1,0.7-1.9,0.7c-1,0-1.7-0.3-2.2-0.9c-0.5-0.6-0.8-1.4-0.8-2.3v-0.2c0-1,0.3-1.7,0.8-2.3c0.5-0.6,1.3-0.9,2.3-0.9
			c0.5,0,1,0.1,1.4,0.2c0.4,0.2,0.8,0.4,1,0.7l0,1.7h-1.4l-0.3-1c-0.1-0.1-0.2-0.1-0.3-0.2s-0.3-0.1-0.4-0.1c-0.5,0-0.8,0.2-1,0.5
			c-0.2,0.4-0.3,0.8-0.3,1.4v0.2c0,0.6,0.1,1,0.3,1.4C246.4,225.6,246.7,225.7,247.2,225.7z"/>
		<path class="st1" d="M250.4,218.7v-1.1h2.7v5.4h0.4l1-1.4l-0.6-0.1v-1.1h3.2v1.1l-0.8,0.2l-1.2,1.6l1.6,2.5l0.7,0.1v1h-3v-1
			l0.4-0.1l-1-1.6h-0.7v1.5l0.8,0.2v1h-3.3v-1l0.8-0.2v-6.9L250.4,218.7z"/>
		<path class="st1" d="M260.9,221.7v-1.2h1V220c0-0.8,0.2-1.4,0.7-1.9c0.5-0.4,1.2-0.7,2.1-0.7c0.3,0,0.6,0,0.9,0.1s0.7,0.2,1.1,0.3
			l-0.3,1.4c-0.3-0.1-0.6-0.2-0.8-0.2c-0.2,0-0.5-0.1-0.8-0.1c-0.4,0-0.7,0.1-0.9,0.3s-0.3,0.5-0.3,0.8v0.4h3.9v5.2l0.9,0.2v1h-3.5
			v-1l0.8-0.2v-4h-2.2v4l0.8,0.2v1h-3.5v-1l0.9-0.2v-4H260.9z"/>
		<path class="st1" d="M268.9,218.7v-1.1h2.7v8.1l0.8,0.2v1H269v-1l0.8-0.2v-6.9L268.9,218.7z"/>
		<path class="st1" d="M276.1,227.1c-0.9,0-1.7-0.3-2.2-0.9c-0.6-0.6-0.8-1.4-0.8-2.3v-0.2c0-1,0.3-1.8,0.8-2.4
			c0.5-0.6,1.2-0.9,2.1-0.9c0.9,0,1.5,0.3,2,0.8c0.5,0.5,0.7,1.2,0.7,2.1v1h-3.9l0,0c0,0.4,0.2,0.8,0.4,1.1c0.3,0.3,0.6,0.4,1,0.4
			c0.4,0,0.7,0,1-0.1c0.3-0.1,0.5-0.2,0.8-0.4l0.5,1.1c-0.3,0.2-0.6,0.4-1,0.5S276.6,227.1,276.1,227.1z M275.9,221.7
			c-0.3,0-0.6,0.1-0.8,0.4c-0.2,0.2-0.3,0.6-0.3,1l0,0h2.1v-0.2c0-0.4-0.1-0.7-0.3-0.9C276.5,221.8,276.2,221.7,275.9,221.7z"/>
	</g>
	<g class="st0">
		<path class="st1" d="M389.5,48.5c0-0.2-0.1-0.4-0.3-0.5s-0.4-0.2-0.6-0.3s-0.5-0.2-0.8-0.3s-0.6-0.3-0.8-0.4
			c-0.3-0.2-0.5-0.4-0.6-0.7c-0.2-0.3-0.3-0.7-0.3-1.1c0-0.7,0.2-1.3,0.7-1.7s1.1-0.6,1.9-0.6c0.6,0,1.1,0.1,1.5,0.2
			s0.8,0.3,1.1,0.4l-0.4,1.4c-0.2-0.1-0.5-0.2-0.9-0.3c-0.3-0.1-0.7-0.2-1.1-0.2c-0.6,0-0.9,0.2-0.9,0.7c0,0.2,0.1,0.3,0.3,0.4
			s0.4,0.2,0.6,0.3s0.5,0.2,0.8,0.3s0.6,0.3,0.8,0.4s0.5,0.4,0.6,0.7c0.2,0.3,0.3,0.6,0.3,1.1c0,0.8-0.2,1.4-0.7,1.8
			c-0.5,0.4-1.2,0.7-2.2,0.7c-0.5,0-1-0.1-1.5-0.2c-0.5-0.1-0.8-0.3-1.1-0.5l0.5-1.5c0.2,0.1,0.5,0.3,0.9,0.4s0.8,0.2,1.2,0.2
			c0.3,0,0.5-0.1,0.7-0.2C389.4,49,389.5,48.8,389.5,48.5z"/>
	</g>
	<g class="st0">
		<path class="st1" d="M391.9,43.1h1v-1.4l2-0.6v2h1.8v1.7h-1.8v2.9c0,0.5,0.1,0.9,0.2,1.1s0.3,0.3,0.6,0.3c0.2,0,0.4,0,0.5-0.1
			c0.1,0,0.3-0.1,0.5-0.2l0.3,1.5c-0.3,0.1-0.6,0.2-0.9,0.3c-0.4,0.1-0.7,0.1-1.1,0.1c-0.7,0-1.2-0.2-1.5-0.5
			c-0.3-0.4-0.5-0.9-0.5-1.7v-3.8h-1V43.1z"/>
	</g>
	<g class="st0">
		<path class="st1" d="M397.5,46.9c0-1.3,0.3-2.2,0.9-2.9c0.6-0.7,1.5-1,2.6-1c0.6,0,1.1,0.1,1.6,0.3c0.4,0.2,0.8,0.5,1.1,0.8
			c0.3,0.3,0.5,0.8,0.7,1.3c0.1,0.5,0.2,1,0.2,1.6c0,1.3-0.3,2.2-0.9,2.9c-0.6,0.7-1.5,1-2.6,1c-0.6,0-1.1-0.1-1.6-0.3
			c-0.4-0.2-0.8-0.5-1.1-0.8c-0.3-0.3-0.5-0.8-0.7-1.3S397.5,47.5,397.5,46.9z M399.5,46.9c0,0.3,0,0.6,0.1,0.9
			c0.1,0.3,0.1,0.5,0.3,0.7c0.1,0.2,0.3,0.4,0.5,0.5c0.2,0.1,0.4,0.2,0.7,0.2c0.5,0,0.9-0.2,1.1-0.6s0.4-1,0.4-1.8
			c0-0.7-0.1-1.2-0.3-1.7c-0.2-0.4-0.6-0.6-1.2-0.6c-0.5,0-0.9,0.2-1.1,0.5C399.6,45.5,399.5,46,399.5,46.9z"/>
		<path class="st1" d="M410,45c-0.3-0.1-0.6-0.2-0.8-0.2c-0.4,0-0.6,0.1-0.9,0.3c-0.2,0.2-0.4,0.4-0.5,0.7v4.8h-2v-7.5h1.5l0.2,1
			h0.1c0.2-0.4,0.4-0.7,0.7-0.9c0.3-0.2,0.6-0.3,1-0.3c0.3,0,0.6,0.1,0.9,0.2L410,45z"/>
		<path class="st1" d="M417.2,50c-0.3,0.2-0.7,0.4-1.2,0.6s-1.1,0.2-1.6,0.2c-1.2,0-2.1-0.4-2.7-1.1s-0.8-1.7-0.8-2.9
			c0-1.3,0.3-2.3,0.9-3s1.5-1,2.7-1c0.4,0,0.8,0,1.1,0.2c0.4,0.1,0.7,0.3,1,0.5c0.3,0.2,0.5,0.5,0.7,0.9c0.2,0.4,0.3,0.9,0.3,1.5
			c0,0.2,0,0.4,0,0.7s-0.1,0.5-0.1,0.8h-4.5c0,0.6,0.2,1.1,0.5,1.4s0.8,0.5,1.4,0.5c0.4,0,0.8-0.1,1.1-0.2s0.6-0.3,0.7-0.4L417.2,50
			z M414.4,44.5c-0.5,0-0.9,0.2-1.1,0.5s-0.4,0.7-0.4,1.2h2.8c0-0.5,0-1-0.2-1.2C415.1,44.6,414.8,44.5,414.4,44.5z"/>
	</g>
	<line class="st24" x1="185.1" y1="142.2" x2="184.1" y2="142.2"/>
	<line class="st26" x1="182" y1="142.2" x2="134.1" y2="142.2"/>
	<line class="st24" x1="133.1" y1="142.2" x2="132.1" y2="142.2"/>
	<polygon class="st1" points="178.4,134 177.1,135.5 184.3,142.2 177.1,148.9 178.4,150.4 187.2,142.2 	"/>
	<path class="st27" d="M206.1,42.1h90c2.8,0,5,2.2,5,5v20.6c0,2.8-2.2,5-5,5h-90c-2.8,0-5-2.2-5-5V47.1
		C201.1,44.3,203.3,42.1,206.1,42.1z"/>
	<g class="st0">
		<path class="st1" d="M219.7,56.4h-1.3l-0.2-1.2c-0.2-0.1-0.4-0.2-0.7-0.3c-0.3-0.1-0.6-0.1-0.9-0.1c-0.5,0-0.8,0.1-1.1,0.3
			c-0.3,0.2-0.4,0.5-0.4,0.8c0,0.3,0.1,0.5,0.4,0.7c0.3,0.2,0.7,0.4,1.4,0.6c1,0.3,1.7,0.6,2.2,1.1c0.5,0.4,0.7,1,0.7,1.7
			c0,0.7-0.3,1.3-0.9,1.8c-0.6,0.4-1.4,0.6-2.3,0.6c-0.7,0-1.3-0.1-1.9-0.3c-0.6-0.2-1-0.5-1.4-0.9v-1.8h1.4l0.2,1.2
			c0.2,0.1,0.4,0.3,0.7,0.4s0.6,0.1,1,0.1c0.5,0,0.8-0.1,1.1-0.3c0.2-0.2,0.4-0.5,0.4-0.8c0-0.3-0.1-0.6-0.4-0.8
			c-0.2-0.2-0.7-0.4-1.2-0.6c-1-0.3-1.8-0.7-2.3-1.1c-0.5-0.4-0.8-1-0.8-1.7c0-0.7,0.3-1.3,0.9-1.7s1.3-0.7,2.3-0.7
			c0.7,0,1.3,0.1,1.8,0.3s1,0.5,1.4,0.8V56.4z"/>
		<path class="st1" d="M223.6,62.4c-0.9,0-1.7-0.3-2.2-0.9c-0.6-0.6-0.8-1.4-0.8-2.3V59c0-1,0.3-1.8,0.8-2.4
			c0.5-0.6,1.2-0.9,2.1-0.9c0.9,0,1.5,0.3,2,0.8c0.5,0.5,0.7,1.2,0.7,2.1v1h-3.9l0,0c0,0.4,0.2,0.8,0.4,1.1c0.3,0.3,0.6,0.4,1,0.4
			c0.4,0,0.7,0,1-0.1c0.3-0.1,0.5-0.2,0.8-0.4l0.5,1.1c-0.3,0.2-0.6,0.4-1,0.5S224.2,62.4,223.6,62.4z M223.5,57.1
			c-0.3,0-0.6,0.1-0.8,0.4c-0.2,0.2-0.3,0.6-0.3,1l0,0h2.1v-0.2c0-0.4-0.1-0.7-0.3-0.9C224.1,57.2,223.8,57.1,223.5,57.1z"/>
		<path class="st1" d="M230.1,61.1c0.3,0,0.6-0.1,0.7-0.3c0.2-0.2,0.3-0.4,0.3-0.7h1.6l0,0c0,0.7-0.2,1.2-0.7,1.6
			c-0.5,0.4-1.1,0.7-1.9,0.7c-1,0-1.7-0.3-2.2-0.9c-0.5-0.6-0.8-1.4-0.8-2.3V59c0-1,0.3-1.7,0.8-2.3c0.5-0.6,1.3-0.9,2.3-0.9
			c0.5,0,1,0.1,1.4,0.2c0.4,0.2,0.8,0.4,1,0.7l0,1.7h-1.4l-0.3-1c-0.1-0.1-0.2-0.1-0.3-0.2s-0.3-0.1-0.4-0.1c-0.5,0-0.8,0.2-1,0.5
			c-0.2,0.4-0.3,0.8-0.3,1.4v0.2c0,0.6,0.1,1,0.3,1.4C229.3,60.9,229.6,61.1,230.1,61.1z"/>
		<path class="st1" d="M238,61.5c-0.2,0.3-0.5,0.5-0.8,0.7c-0.3,0.2-0.7,0.2-1,0.2c-0.7,0-1.2-0.2-1.6-0.7c-0.4-0.4-0.6-1.1-0.6-2
			v-2.7l-0.7-0.2v-1.1h0.7h1.7v3.9c0,0.5,0.1,0.8,0.2,1s0.4,0.3,0.7,0.3c0.3,0,0.5,0,0.7-0.1c0.2-0.1,0.4-0.2,0.5-0.4v-3.5l-0.8-0.2
			v-1.1h0.8h1.7v5.2l0.8,0.2v1h-2.3L238,61.5z"/>
	</g>
	<g class="st0">
		<path class="st1" d="M241.3,61.3l0.8-0.2v-4l-0.9-0.2v-1.1h2.6l0.1,0.9c0.2-0.3,0.3-0.6,0.6-0.8c0.2-0.2,0.5-0.3,0.8-0.3
			c0.1,0,0.2,0,0.3,0c0.1,0,0.2,0,0.3,0.1l-0.2,1.6l-0.7,0c-0.3,0-0.5,0-0.6,0.1c-0.2,0.1-0.3,0.2-0.4,0.4v3.1l0.8,0.2v1h-3.4V61.3z
			"/>
	</g>
	<g class="st0">
		<path class="st1" d="M249.3,62.4c-0.9,0-1.7-0.3-2.2-0.9c-0.6-0.6-0.8-1.4-0.8-2.3V59c0-1,0.3-1.8,0.8-2.4
			c0.5-0.6,1.2-0.9,2.1-0.9c0.9,0,1.5,0.3,2,0.8c0.5,0.5,0.7,1.2,0.7,2.1v1H248l0,0c0,0.4,0.2,0.8,0.4,1.1c0.3,0.3,0.6,0.4,1,0.4
			c0.4,0,0.7,0,1-0.1c0.3-0.1,0.5-0.2,0.8-0.4l0.5,1.1c-0.3,0.2-0.6,0.4-1,0.5S249.8,62.4,249.3,62.4z M249.1,57.1
			c-0.3,0-0.6,0.1-0.8,0.4c-0.2,0.2-0.3,0.6-0.3,1l0,0h2.1v-0.2c0-0.4-0.1-0.7-0.3-0.9C249.8,57.2,249.5,57.1,249.1,57.1z"/>
		<path class="st1" d="M258.8,61.1c0.3,0,0.6-0.1,0.7-0.3c0.2-0.2,0.3-0.4,0.3-0.7h1.6l0,0c0,0.7-0.2,1.2-0.7,1.6
			c-0.5,0.4-1.1,0.7-1.9,0.7c-1,0-1.7-0.3-2.2-0.9c-0.5-0.6-0.8-1.4-0.8-2.3V59c0-1,0.3-1.7,0.8-2.3c0.5-0.6,1.3-0.9,2.3-0.9
			c0.5,0,1,0.1,1.4,0.2c0.4,0.2,0.8,0.4,1,0.7l0,1.7h-1.4l-0.3-1c-0.1-0.1-0.2-0.1-0.3-0.2s-0.3-0.1-0.4-0.1c-0.5,0-0.8,0.2-1,0.5
			c-0.2,0.4-0.3,0.8-0.3,1.4v0.2c0,0.6,0.1,1,0.3,1.4C258,60.9,258.3,61.1,258.8,61.1z"/>
		<path class="st1" d="M262.2,59c0-1,0.3-1.8,0.8-2.4c0.5-0.6,1.3-0.9,2.2-0.9c1,0,1.7,0.3,2.2,0.9c0.5,0.6,0.8,1.4,0.8,2.4v0.1
			c0,1-0.3,1.8-0.8,2.4c-0.5,0.6-1.3,0.9-2.2,0.9c-1,0-1.7-0.3-2.3-0.9c-0.5-0.6-0.8-1.4-0.8-2.4V59z M263.9,59.1
			c0,0.6,0.1,1.1,0.3,1.4c0.2,0.4,0.5,0.5,1,0.5c0.5,0,0.8-0.2,1-0.5c0.2-0.4,0.3-0.8,0.3-1.4V59c0-0.6-0.1-1-0.3-1.4
			c-0.2-0.4-0.5-0.5-1-0.5c-0.5,0-0.8,0.2-1,0.5c-0.2,0.4-0.3,0.8-0.3,1.4V59.1z"/>
		<path class="st1" d="M268.9,61.3l0.8-0.2v-4l-0.9-0.2v-1.1h2.6l0.1,0.9c0.2-0.3,0.5-0.6,0.8-0.8c0.3-0.2,0.7-0.3,1.1-0.3
			c0.7,0,1.2,0.2,1.5,0.6s0.5,1.1,0.5,1.9v2.8l0.8,0.2v1h-3.3v-1l0.7-0.2v-2.8c0-0.4-0.1-0.7-0.3-0.9c-0.2-0.2-0.4-0.3-0.8-0.3
			c-0.2,0-0.4,0-0.6,0.1c-0.2,0.1-0.3,0.2-0.5,0.4v3.5l0.7,0.2v1h-3.3V61.3z"/>
		<path class="st1" d="M276.6,57.1v-1.2h1v-0.4c0-0.8,0.2-1.4,0.7-1.9c0.5-0.4,1.2-0.7,2.1-0.7c0.3,0,0.6,0,0.9,0.1s0.7,0.2,1.1,0.3
			l-0.3,1.4c-0.3-0.1-0.6-0.2-0.8-0.2c-0.2,0-0.5-0.1-0.8-0.1c-0.4,0-0.7,0.1-0.9,0.3s-0.3,0.5-0.3,0.8v0.4h3.9v5.2l0.9,0.2v1h-3.5
			v-1l0.8-0.2v-4h-2.2v4l0.8,0.2v1h-3.5v-1l0.9-0.2v-4H276.6z"/>
		<path class="st1" d="M284.9,59.1c0-1,0.2-1.8,0.7-2.5c0.4-0.6,1.1-0.9,1.9-0.9c0.4,0,0.7,0.1,1,0.2c0.3,0.2,0.5,0.4,0.7,0.7
			l0.1-0.8h1.5v6.3c0,0.9-0.3,1.5-0.8,2c-0.5,0.5-1.3,0.8-2.2,0.8c-0.3,0-0.7,0-1-0.1s-0.7-0.2-1-0.4l0.3-1.2
			c0.3,0.1,0.6,0.2,0.8,0.3c0.3,0.1,0.6,0.1,0.9,0.1c0.4,0,0.7-0.1,1-0.4c0.2-0.3,0.3-0.6,0.3-1.1v-0.4c-0.2,0.2-0.4,0.4-0.7,0.6
			c-0.3,0.1-0.6,0.2-0.9,0.2c-0.8,0-1.4-0.3-1.9-0.9s-0.7-1.4-0.7-2.3V59.1z M286.7,59.2c0,0.6,0.1,1,0.3,1.3
			c0.2,0.3,0.5,0.5,0.9,0.5c0.3,0,0.5,0,0.7-0.1c0.2-0.1,0.3-0.2,0.4-0.4v-2.8c-0.1-0.2-0.3-0.3-0.4-0.5c-0.2-0.1-0.4-0.2-0.7-0.2
			c-0.4,0-0.7,0.2-0.9,0.6c-0.2,0.4-0.3,0.9-0.3,1.5V59.2z"/>
	</g>
	<path class="st4" d="M825.3,185.8h90.3c2.8,0,5,2.2,5,5v56.5c0,2.8-2.2,5-5,5h-90.3c-2.8,0-5-2.2-5-5v-56.5
		C820.3,188.1,822.5,185.8,825.3,185.8z"/>
	<g class="st0">
		<path class="st1" d="M855.8,217.6h-1.3l-0.2-1.2c-0.2-0.1-0.4-0.2-0.7-0.3s-0.6-0.1-0.9-0.1c-0.5,0-0.8,0.1-1.1,0.3
			s-0.4,0.5-0.4,0.8c0,0.3,0.1,0.5,0.4,0.7c0.3,0.2,0.7,0.4,1.4,0.6c1,0.3,1.7,0.6,2.2,1.1c0.5,0.4,0.7,1,0.7,1.7
			c0,0.7-0.3,1.3-0.9,1.8c-0.6,0.4-1.4,0.6-2.3,0.6c-0.7,0-1.3-0.1-1.9-0.3c-0.6-0.2-1-0.5-1.4-0.9v-1.8h1.4l0.2,1.2
			c0.2,0.1,0.4,0.3,0.7,0.4s0.6,0.1,1,0.1c0.5,0,0.8-0.1,1.1-0.3s0.4-0.5,0.4-0.8c0-0.3-0.1-0.6-0.4-0.8c-0.2-0.2-0.7-0.4-1.2-0.6
			c-1-0.3-1.8-0.7-2.3-1.1c-0.5-0.4-0.8-1-0.8-1.7c0-0.7,0.3-1.3,0.9-1.7s1.3-0.7,2.3-0.7c0.7,0,1.3,0.1,1.8,0.3s1,0.5,1.4,0.8
			V217.6z"/>
		<path class="st1" d="M859.8,223.7c-0.9,0-1.7-0.3-2.2-0.9c-0.6-0.6-0.8-1.4-0.8-2.3v-0.2c0-1,0.3-1.8,0.8-2.4
			c0.5-0.6,1.2-0.9,2.1-0.9c0.9,0,1.5,0.3,2,0.8c0.5,0.5,0.7,1.2,0.7,2.1v1h-3.9l0,0c0,0.4,0.2,0.8,0.4,1.1c0.3,0.3,0.6,0.4,1,0.4
			c0.4,0,0.7,0,1-0.1c0.3-0.1,0.5-0.2,0.8-0.4l0.5,1.1c-0.3,0.2-0.6,0.4-1,0.5C860.8,223.6,860.3,223.7,859.8,223.7z M859.6,218.3
			c-0.3,0-0.6,0.1-0.8,0.4s-0.3,0.6-0.3,1l0,0h2.1v-0.2c0-0.4-0.1-0.7-0.3-0.9C860.2,218.4,860,218.3,859.6,218.3z"/>
	</g>
	<g class="st0">
		<path class="st1" d="M863.3,222.5l0.8-0.2v-4l-0.9-0.2v-1.1h2.6l0.1,0.9c0.2-0.3,0.3-0.6,0.6-0.8c0.2-0.2,0.5-0.3,0.8-0.3
			c0.1,0,0.2,0,0.3,0c0.1,0,0.2,0,0.3,0.1l-0.2,1.6l-0.7,0c-0.3,0-0.5,0-0.6,0.1s-0.3,0.2-0.4,0.4v3.1l0.8,0.2v1h-3.4V222.5z"/>
	</g>
	<g class="st0">
		<path class="st1" d="M871.2,218.1l-0.6,0.1l0.9,2.9l0.1,0.6h0l0.1-0.6l0.8-2.9l-0.6-0.1v-1.1h2.9v1.1l-0.6,0.1l-1.9,5.3h-1.7
			l-1.9-5.3l-0.6-0.1v-1.1h2.9V218.1z"/>
		<path class="st1" d="M875.4,222.5l0.8-0.2v-4l-0.9-0.2v-1.1h2.7v5.2l0.8,0.2v1h-3.4V222.5z M878,215.5h-1.7v-1.3h1.7V215.5z"/>
		<path class="st1" d="M882.4,222.3c0.3,0,0.6-0.1,0.7-0.3c0.2-0.2,0.3-0.4,0.3-0.7h1.6l0,0c0,0.7-0.2,1.2-0.7,1.6s-1.1,0.7-1.9,0.7
			c-1,0-1.7-0.3-2.2-0.9c-0.5-0.6-0.8-1.4-0.8-2.3v-0.2c0-1,0.3-1.7,0.8-2.3c0.5-0.6,1.3-0.9,2.3-0.9c0.5,0,1,0.1,1.4,0.2
			c0.4,0.2,0.8,0.4,1,0.7l0,1.7h-1.4l-0.3-1c-0.1-0.1-0.2-0.1-0.3-0.2c-0.1,0-0.3-0.1-0.4-0.1c-0.5,0-0.8,0.2-1,0.5
			c-0.2,0.4-0.3,0.8-0.3,1.4v0.2c0,0.6,0.1,1,0.3,1.4C881.6,222.1,881.9,222.3,882.4,222.3z"/>
		<path class="st1" d="M888.9,223.7c-0.9,0-1.7-0.3-2.2-0.9s-0.8-1.4-0.8-2.3v-0.2c0-1,0.3-1.8,0.8-2.4c0.5-0.6,1.2-0.9,2.1-0.9
			c0.9,0,1.5,0.3,2,0.8c0.5,0.5,0.7,1.2,0.7,2.1v1h-3.9l0,0c0,0.4,0.2,0.8,0.4,1.1c0.3,0.3,0.6,0.4,1,0.4c0.4,0,0.7,0,1-0.1
			c0.3-0.1,0.5-0.2,0.8-0.4l0.5,1.1c-0.3,0.2-0.6,0.4-1,0.5C889.9,223.6,889.4,223.7,888.9,223.7z M888.8,218.3
			c-0.3,0-0.6,0.1-0.8,0.4c-0.2,0.2-0.3,0.6-0.3,1l0,0h2.1v-0.2c0-0.4-0.1-0.7-0.3-0.9C889.4,218.4,889.1,218.3,888.8,218.3z"/>
	</g>
	<rect x="767.4" y="213.4" class="st1" width="11.9" height="3.1"/>
	<rect x="767.4" y="220.7" class="st1" width="11.9" height="3.1"/>
	<rect x="785.1" y="213.4" class="st1" width="11.9" height="3.1"/>
	<rect x="785.1" y="220.7" class="st1" width="11.9" height="3.1"/>
	<line class="st15" x1="613.3" y1="160.2" x2="613.3" y2="159.2"/>
	<line class="st28" x1="613.3" y1="157.2" x2="613.3" y2="114.1"/>
	<line class="st15" x1="613.3" y1="113" x2="613.3" y2="112"/>
	<polygon class="st5" points="621.5,153.6 620,152.3 613.3,159.5 606.6,152.3 605.2,153.6 613.3,162.4 	"/>
	<path class="st29" d="M23.6,103.4h90c2.8,0,5,2.2,5,5v65c0,2.8-2.2,5-5,5h-90c-2.8,0-5-2.2-5-5v-65
		C18.6,105.6,20.8,103.4,23.6,103.4z"/>
	<g class="st0">
		<path class="st1" d="M38.7,140.1h-1.3l-0.2-1.2c-0.2-0.2-0.4-0.3-0.6-0.4s-0.6-0.1-0.9-0.1c-0.8,0-1.3,0.3-1.7,0.8
			s-0.6,1.3-0.6,2.2v0.3c0,0.9,0.2,1.6,0.6,2.2s1,0.8,1.7,0.8c0.3,0,0.7,0,0.9-0.1c0.3-0.1,0.5-0.2,0.7-0.4l0.2-1.2h1.3v1.7
			c-0.4,0.4-0.8,0.7-1.3,1s-1.2,0.4-1.8,0.4c-1.2,0-2.1-0.4-2.9-1.2s-1.1-1.8-1.1-3.1v-0.3c0-1.3,0.4-2.3,1.1-3.1
			c0.7-0.8,1.7-1.2,2.9-1.2c0.7,0,1.3,0.1,1.8,0.4c0.5,0.2,1,0.6,1.3,1V140.1z"/>
		<path class="st1" d="M39.5,142.5c0-1,0.3-1.8,0.8-2.4c0.5-0.6,1.3-0.9,2.2-0.9c1,0,1.7,0.3,2.2,0.9c0.5,0.6,0.8,1.4,0.8,2.4v0.1
			c0,1-0.3,1.8-0.8,2.4c-0.5,0.6-1.3,0.9-2.2,0.9c-1,0-1.7-0.3-2.3-0.9c-0.5-0.6-0.8-1.4-0.8-2.4V142.5z M41.3,142.7
			c0,0.6,0.1,1.1,0.3,1.4c0.2,0.4,0.5,0.5,1,0.5c0.5,0,0.8-0.2,1-0.5c0.2-0.4,0.3-0.8,0.3-1.4v-0.1c0-0.6-0.1-1-0.3-1.4
			c-0.2-0.4-0.5-0.5-1-0.5c-0.5,0-0.8,0.2-1,0.5c-0.2,0.4-0.3,0.8-0.3,1.4V142.7z"/>
		<path class="st1" d="M46.2,140.4v-1.1h2.6l0.1,0.9c0.2-0.3,0.5-0.6,0.8-0.7c0.3-0.2,0.7-0.3,1.1-0.3c0.4,0,0.8,0.1,1.1,0.3
			c0.3,0.2,0.5,0.5,0.7,0.8c0.2-0.3,0.5-0.6,0.8-0.8c0.3-0.2,0.7-0.3,1.1-0.3c0.6,0,1.1,0.2,1.5,0.7c0.4,0.4,0.6,1.1,0.6,2v2.7
			l0.8,0.2v1h-3.3v-1l0.8-0.2v-2.7c0-0.5-0.1-0.8-0.2-1s-0.4-0.3-0.7-0.3c-0.2,0-0.5,0.1-0.6,0.2c-0.2,0.1-0.3,0.3-0.4,0.5
			c0,0.1,0,0.1,0,0.2s0,0.1,0,0.2v3l0.7,0.2v1h-3.1v-1l0.7-0.2v-2.7c0-0.5-0.1-0.8-0.2-1c-0.2-0.2-0.4-0.3-0.7-0.3
			c-0.2,0-0.4,0-0.6,0.1c-0.2,0.1-0.3,0.2-0.4,0.4v3.5l0.8,0.2v1h-3.3v-1l0.8-0.2v-4L46.2,140.4z"/>
		<path class="st1" d="M57.7,140.4v-1.1h2.5l0.1,0.8c0.2-0.3,0.4-0.5,0.7-0.6c0.3-0.2,0.6-0.2,0.9-0.2c0.8,0,1.4,0.3,1.9,0.9
			c0.4,0.6,0.7,1.4,0.7,2.5v0.1c0,1-0.2,1.7-0.7,2.3s-1.1,0.9-1.9,0.9c-0.3,0-0.6-0.1-0.9-0.2c-0.3-0.1-0.5-0.3-0.7-0.6v1.9l0.8,0.2
			v1.1h-3.4v-1.1l0.8-0.2v-6.5L57.7,140.4z M62.7,142.7c0-0.6-0.1-1.1-0.3-1.5c-0.2-0.4-0.5-0.6-0.9-0.6c-0.3,0-0.5,0.1-0.7,0.2
			c-0.2,0.1-0.3,0.3-0.4,0.5v2.8c0.1,0.2,0.3,0.3,0.4,0.4c0.2,0.1,0.4,0.1,0.7,0.1c0.4,0,0.7-0.2,0.9-0.5c0.2-0.3,0.3-0.8,0.3-1.3
			V142.7z"/>
		<path class="st1" d="M65.2,142.5c0-1,0.3-1.8,0.8-2.4c0.5-0.6,1.3-0.9,2.2-0.9c1,0,1.7,0.3,2.2,0.9c0.5,0.6,0.8,1.4,0.8,2.4v0.1
			c0,1-0.3,1.8-0.8,2.4s-1.3,0.9-2.2,0.9c-1,0-1.7-0.3-2.3-0.9s-0.8-1.4-0.8-2.4V142.5z M67,142.7c0,0.6,0.1,1.1,0.3,1.4
			s0.5,0.5,1,0.5c0.5,0,0.8-0.2,1-0.5s0.3-0.8,0.3-1.4v-0.1c0-0.6-0.1-1-0.3-1.4c-0.2-0.4-0.5-0.5-1-0.5s-0.8,0.2-1,0.5
			c-0.2,0.4-0.3,0.8-0.3,1.4V142.7z"/>
		<path class="st1" d="M77.3,141.6h-1.2l-0.2-0.8c-0.1-0.1-0.3-0.2-0.5-0.2s-0.4-0.1-0.6-0.1c-0.3,0-0.5,0.1-0.7,0.2
			c-0.2,0.1-0.3,0.3-0.3,0.5c0,0.2,0.1,0.4,0.3,0.5c0.2,0.1,0.5,0.2,1,0.3c0.8,0.2,1.4,0.4,1.8,0.7c0.4,0.3,0.6,0.7,0.6,1.3
			c0,0.6-0.3,1.1-0.8,1.4c-0.5,0.4-1.2,0.6-2,0.6c-0.5,0-1-0.1-1.4-0.2c-0.4-0.1-0.8-0.4-1.1-0.6l0-1.5h1.2l0.2,0.8
			c0.1,0.1,0.2,0.2,0.4,0.2s0.4,0.1,0.6,0.1c0.4,0,0.6-0.1,0.8-0.2c0.2-0.1,0.3-0.3,0.3-0.5c0-0.2-0.1-0.4-0.3-0.5
			c-0.2-0.1-0.5-0.3-1-0.4c-0.8-0.2-1.3-0.4-1.7-0.7s-0.6-0.7-0.6-1.2c0-0.5,0.2-1,0.7-1.4s1.1-0.6,1.9-0.6c0.5,0,1,0.1,1.4,0.2
			s0.8,0.3,1.1,0.5L77.3,141.6z"/>
		<path class="st1" d="M81.5,146c-0.9,0-1.7-0.3-2.2-0.9s-0.8-1.4-0.8-2.3v-0.2c0-1,0.3-1.8,0.8-2.4c0.5-0.6,1.2-0.9,2.1-0.9
			c0.9,0,1.5,0.3,2,0.8c0.5,0.5,0.7,1.2,0.7,2.1v1h-3.9l0,0c0,0.4,0.2,0.8,0.4,1.1c0.3,0.3,0.6,0.4,1,0.4c0.4,0,0.7,0,1-0.1
			c0.3-0.1,0.5-0.2,0.8-0.4l0.5,1.1c-0.3,0.2-0.6,0.4-1,0.5C82.5,145.9,82,146,81.5,146z M81.3,140.6c-0.3,0-0.6,0.1-0.8,0.4
			c-0.2,0.2-0.3,0.6-0.3,1l0,0h2.1v-0.2c0-0.4-0.1-0.7-0.3-0.9C81.9,140.7,81.7,140.6,81.3,140.6z"/>
		<path class="st1" d="M87.7,140.6v-1.2h1v-0.4c0-0.8,0.2-1.4,0.7-1.9c0.5-0.4,1.2-0.7,2.1-0.7c0.3,0,0.6,0,0.9,0.1s0.7,0.2,1.1,0.3
			l-0.3,1.4c-0.3-0.1-0.6-0.2-0.8-0.2s-0.5-0.1-0.8-0.1c-0.4,0-0.7,0.1-0.9,0.3s-0.3,0.5-0.3,0.8v0.4h3.9v5.2l0.9,0.2v1h-3.5v-1
			l0.8-0.2v-4h-2.2v4l0.8,0.2v1h-3.5v-1l0.9-0.2v-4H87.7z"/>
		<path class="st1" d="M95.7,137.6v-1.1h2.7v8.1l0.8,0.2v1h-3.4v-1l0.8-0.2v-6.9L95.7,137.6z"/>
		<path class="st1" d="M102.9,146c-0.9,0-1.7-0.3-2.2-0.9s-0.8-1.4-0.8-2.3v-0.2c0-1,0.3-1.8,0.8-2.4c0.5-0.6,1.2-0.9,2.1-0.9
			c0.9,0,1.5,0.3,2,0.8c0.5,0.5,0.7,1.2,0.7,2.1v1h-3.9l0,0c0,0.4,0.2,0.8,0.4,1.1c0.3,0.3,0.6,0.4,1,0.4c0.4,0,0.7,0,1-0.1
			c0.3-0.1,0.5-0.2,0.8-0.4l0.5,1.1c-0.3,0.2-0.6,0.4-1,0.5C103.9,145.9,103.4,146,102.9,146z M102.7,140.6c-0.3,0-0.6,0.1-0.8,0.4
			c-0.2,0.2-0.3,0.6-0.3,1l0,0h2.1v-0.2c0-0.4-0.1-0.7-0.3-0.9C103.3,140.7,103.1,140.6,102.7,140.6z"/>
	</g>
</g>
</svg>
