<svg id="Ebene_1" data-name="Ebene 1" xmlns="http://www.w3.org/2000/svg" xmlns:xlink="http://www.w3.org/1999/xlink" viewBox="0 0 1840 422"><defs><style>.cls-1,.cls-12,.cls-4,.cls-6{fill:none;}.cls-2,.cls-4,.cls-6,.cls-8{stroke:#fc0;}.cls-2,.cls-4,.cls-8{stroke-miterlimit:10;stroke-width:8px;}.cls-2{fill:url(#Unbenannter_Verlauf_5);}.cls-11,.cls-3{fill:#fff;}.cls-5{fill:#306;}.cls-11,.cls-12,.cls-6{stroke-linecap:round;stroke-linejoin:round;stroke-width:6px;}.cls-7{fill:#fc0;}.cls-8{fill:url(#Unbenannter_Verlauf_5-2);}.cls-9{clip-path:url(#clip-path);}.cls-10{fill:#ffd138;}.cls-11,.cls-12{stroke:#ffcb03;}.cls-13{fill:#ffcb03;}</style><linearGradient id="Unbenannter_Verlauf_5" x1="516.24" y1="220.5" x2="879.59" y2="220.5" gradientUnits="userSpaceOnUse"><stop offset="0" stop-color="#906"/><stop offset="0.19" stop-color="#780066"/><stop offset="0.4" stop-color="#5a0066"/><stop offset="0.61" stop-color="#406"/><stop offset="0.81" stop-color="#370066"/><stop offset="1" stop-color="#306"/></linearGradient><linearGradient id="Unbenannter_Verlauf_5-2" x1="964.24" x2="1327.59" xlink:href="#Unbenannter_Verlauf_5"/><clipPath id="clip-path"><rect class="cls-1" x="297" y="361" width="122.55" height="24"/></clipPath></defs><rect class="cls-2" x="516.24" y="146" width="363.36" height="149" rx="8"/><path class="cls-3" d="M653.29,204.78h-3l-.47-1.94a4.19,4.19,0,0,0-1.16-.58,5,5,0,0,0-1.54-.22,3.16,3.16,0,0,0-1.87.49,1.49,1.49,0,0,0-.69,1.24,1.39,1.39,0,0,0,.66,1.17,7.41,7.41,0,0,0,2.64.83,11,11,0,0,1,4.56,1.69,3.59,3.59,0,0,1,1.49,3.06A4,4,0,0,1,652,214a8.79,8.79,0,0,1-5.07,1.33,11.19,11.19,0,0,1-3.51-.53,9.23,9.23,0,0,1-2.85-1.5l0-3.49h3.12l.62,2a2.62,2.62,0,0,0,1.09.46,6.63,6.63,0,0,0,1.44.15,3.8,3.8,0,0,0,2.07-.46,1.39,1.39,0,0,0,.71-1.24,1.46,1.46,0,0,0-.72-1.2,7.78,7.78,0,0,0-2.65-.89,10.89,10.89,0,0,1-4.42-1.66,3.52,3.52,0,0,1-1.49-3,4.25,4.25,0,0,1,1.72-3.37,7.49,7.49,0,0,1,4.88-1.41,13.21,13.21,0,0,1,3.66.49,7.72,7.72,0,0,1,2.7,1.25Z"/><path class="cls-3" d="M663.69,212.06a2.77,2.77,0,0,0,1.92-.65,2.26,2.26,0,0,0,.72-1.75h4l0,.09a4.72,4.72,0,0,1-1.89,3.94,8.35,8.35,0,0,1-10.55-.61,8.06,8.06,0,0,1-2-5.65V207a8,8,0,0,1,2.06-5.64,7.65,7.65,0,0,1,5.88-2.21,10.71,10.71,0,0,1,3.6.56,7.2,7.2,0,0,1,2.65,1.58l.06,4.15h-3.63l-.74-2.43a2.84,2.84,0,0,0-.83-.45,3.19,3.19,0,0,0-1.11-.18,2.9,2.9,0,0,0-2.69,1.29,6.36,6.36,0,0,0-.78,3.33v.43a6.81,6.81,0,0,0,.72,3.36A2.66,2.66,0,0,0,663.69,212.06Z"/><path class="cls-3" d="M672.44,207.06a8,8,0,0,1,2.08-5.69,8.56,8.56,0,0,1,11.49,0,8,8,0,0,1,2.08,5.7v.3a8,8,0,0,1-2.08,5.71,8.57,8.57,0,0,1-11.49,0,8,8,0,0,1-2.08-5.71Zm4.48.3a6.4,6.4,0,0,0,.79,3.41,2.8,2.8,0,0,0,2.58,1.29,2.76,2.76,0,0,0,2.53-1.29,6.35,6.35,0,0,0,.81-3.41v-.3a6.21,6.21,0,0,0-.82-3.37,3.14,3.14,0,0,0-5.1,0,6.39,6.39,0,0,0-.79,3.37Z"/><path class="cls-3" d="M689.79,212.46l2.14-.43v-9.64l-2.37-.43v-2.52h6.54l.2,2.22a5.91,5.91,0,0,1,2-1.85,5.55,5.55,0,0,1,2.71-.66,5.15,5.15,0,0,1,3.92,1.48,6.52,6.52,0,0,1,1.41,4.64V212l2.15.43V215H700v-2.51l1.91-.43v-6.75a3,3,0,0,0-.67-2.22,2.85,2.85,0,0,0-2-.65,3.57,3.57,0,0,0-1.59.34,3.13,3.13,0,0,0-1.18.95V212l1.8.43V215h-8.42Z"/><path class="cls-3" d="M709.81,212.46,712,212v-9.64l-2.39-.43v-2.52h6.87V212l2.14.43V215h-8.78Zm6.64-16.74H712v-3.15h4.48Z"/><path class="cls-3" d="M720.31,212.46l2.16-.43v-9.65H720v-2.94h2.47v-1.73a5.11,5.11,0,0,1,1.61-4,6.63,6.63,0,0,1,4.52-1.41,9,9,0,0,1,1.15.08c.4.05.83.13,1.3.22l-.38,3.12-.72-.1a6.1,6.1,0,0,0-.8-.05,2.26,2.26,0,0,0-1.65.56,2.2,2.2,0,0,0-.56,1.61v1.73h3.3v2.94h-3.3V212l2.16.43V215h-8.79Z"/><path class="cls-3" d="M748.9,202l-1.55.22-6.1,15.12a8.39,8.39,0,0,1-1.92,2.82,5.13,5.13,0,0,1-3.62,1.13,6,6,0,0,1-1.07-.09q-.5-.07-1.17-.24l.52-3.06.45.06.39,0a2.58,2.58,0,0,0,1.72-.51,3.36,3.36,0,0,0,.92-1.27L738,215l-5.26-12.8-1.55-.23v-2.52h8.12V202l-1.85.29,2.27,6.21.23,1.12H740l2.62-7.34-1.87-.29v-2.52h8.12Z"/><path class="cls-3" d="M646.15,247.75l2.16-.43v-9.63l-2.39-.43v-2.53h6.86v12.59l2.15.43v2.52h-8.78ZM652.78,231h-4.47v-3.14h4.47Z"/><path class="cls-3" d="M655.88,237.26v-2.53h6.54l.18,2.05a5.55,5.55,0,0,1,2-1.73,6.18,6.18,0,0,1,2.78-.61,5.31,5.31,0,0,1,2.73.66,4.15,4.15,0,0,1,1.72,2,5.55,5.55,0,0,1,2-1.95,5.69,5.69,0,0,1,2.88-.71,4.94,4.94,0,0,1,3.87,1.59,7.11,7.11,0,0,1,1.42,4.83v6.46l2.16.43v2.52h-8.57v-2.52l1.93-.43v-6.47a3.74,3.74,0,0,0-.61-2.46,2.32,2.32,0,0,0-1.82-.69,3.2,3.2,0,0,0-1.65.4,2.86,2.86,0,0,0-1.11,1.1c0,.18,0,.33,0,.46s0,.26,0,.4v7.26l1.81.43v2.52h-8.08v-2.52l1.81-.43v-6.47a3.77,3.77,0,0,0-.61-2.44,2.31,2.31,0,0,0-1.84-.71,3.64,3.64,0,0,0-1.59.33,2.84,2.84,0,0,0-1.12.91v8.38l1.93.43v2.52h-8.55v-2.52l2.16-.43v-9.63Z"/><path class="cls-3" d="M696.15,250.27a7.92,7.92,0,0,1-.33-.8,6.17,6.17,0,0,1-.21-.82,6.29,6.29,0,0,1-1.94,1.39,6.18,6.18,0,0,1-2.61.53,5.68,5.68,0,0,1-3.87-1.24,4.23,4.23,0,0,1-1.43-3.38,3.78,3.78,0,0,1,1.87-3.38,10.3,10.3,0,0,1,5.48-1.19h2.28v-1.52a2.24,2.24,0,0,0-.68-1.74,3,3,0,0,0-2-.62,5.19,5.19,0,0,0-1.37.17,3.66,3.66,0,0,0-1,.39l-.29,1.67h-3.37v-3.45A13.26,13.26,0,0,1,689.5,235a11,11,0,0,1,3.46-.53,8.18,8.18,0,0,1,5,1.42,4.7,4.7,0,0,1,1.92,4v6.41c0,.24,0,.47,0,.68a3.81,3.81,0,0,0,.06.6l1.36.17v2.52Zm-3.88-2.8a4.14,4.14,0,0,0,1.84-.41,3.43,3.43,0,0,0,1.28-1v-2.37h-2.28a3.24,3.24,0,0,0-2.16.63,1.88,1.88,0,0,0-.73,1.5,1.5,1.5,0,0,0,.54,1.23A2.29,2.29,0,0,0,692.27,247.47Z"/><path class="cls-3" d="M703.1,242.63a9.55,9.55,0,0,1,1.71-5.93,5.64,5.64,0,0,1,4.79-2.26,5.07,5.07,0,0,1,2.45.58,5.38,5.38,0,0,1,1.81,1.66l.32-2h3.89v15.08a6.23,6.23,0,0,1-2.06,4.9,8.22,8.22,0,0,1-5.66,1.83,11.7,11.7,0,0,1-2.67-.32,12.61,12.61,0,0,1-2.6-.88l.83-3a14.77,14.77,0,0,0,2.14.69,10.39,10.39,0,0,0,2.27.25,3.05,3.05,0,0,0,2.45-.94,3.82,3.82,0,0,0,.81-2.6v-1a5.06,5.06,0,0,1-1.73,1.33,5.31,5.31,0,0,1-2.28.46,5.79,5.79,0,0,1-4.76-2.1,8.53,8.53,0,0,1-1.71-5.54Zm4.48.3a6,6,0,0,0,.73,3.21,2.61,2.61,0,0,0,2.39,1.17,3.94,3.94,0,0,0,1.74-.35,2.77,2.77,0,0,0,1.14-1v-6.75a2.91,2.91,0,0,0-1.14-1.09,3.49,3.49,0,0,0-1.71-.39,2.56,2.56,0,0,0-2.4,1.37,7.35,7.35,0,0,0-.75,3.56Z"/><path class="cls-3" d="M728.69,250.57a7.75,7.75,0,0,1-5.73-2.15,7.45,7.45,0,0,1-2.15-5.48v-.57a8.17,8.17,0,0,1,2-5.7,7.06,7.06,0,0,1,12.52,4.79v2.29h-9.9l0,.08a3.9,3.9,0,0,0,1.09,2.53,3.55,3.55,0,0,0,2.65,1,9,9,0,0,0,2.46-.28,11.36,11.36,0,0,0,2.15-.88l1.21,2.59a9.15,9.15,0,0,1-2.66,1.27A11.86,11.86,0,0,1,728.69,250.57Zm-.4-12.9a2.39,2.39,0,0,0-2,.89,4.48,4.48,0,0,0-.89,2.35l0,.07H731v-.38a3.23,3.23,0,0,0-.66-2.13A2.5,2.5,0,0,0,728.29,237.67Z"/><path class="cls-3" d="M741.65,236.4,737,235.12l.87-2.54,4.55,1.76-.28-5h2.89l-.31,5.07,4.46-1.72.86,2.58-4.69,1.28,3.06,3.8L746.13,242l-2.68-4.16-2.65,4-2.33-1.52Z"/><rect class="cls-4" x="72" y="146" width="360" height="149" rx="8"/><path class="cls-5" d="M206,212.46l2.14-.43v-9.64l-2.37-.43v-2.52h6.54l.2,2.22a5.91,5.91,0,0,1,2-1.85,5.55,5.55,0,0,1,2.71-.66,5.15,5.15,0,0,1,3.92,1.48,6.52,6.52,0,0,1,1.41,4.64V212l2.15.43V215h-8.55v-2.51l1.91-.43v-6.75a3,3,0,0,0-.67-2.22,2.85,2.85,0,0,0-2-.65,3.57,3.57,0,0,0-1.59.34,3.13,3.13,0,0,0-1.18.95V212l1.8.43V215H206Z"/><path class="cls-5" d="M236.69,215a6.86,6.86,0,0,1-.32-.79,5.09,5.09,0,0,1-.22-.83,6,6,0,0,1-1.94,1.4,6.18,6.18,0,0,1-2.61.53,5.72,5.72,0,0,1-3.87-1.25,4.24,4.24,0,0,1-1.43-3.38,3.77,3.77,0,0,1,1.87-3.37,10.22,10.22,0,0,1,5.48-1.2h2.29v-1.52a2.2,2.2,0,0,0-.69-1.73,2.93,2.93,0,0,0-2-.62,5.13,5.13,0,0,0-1.36.16,3.54,3.54,0,0,0-1,.4l-.29,1.66h-3.37V201a12.66,12.66,0,0,1,2.82-1.31,10.9,10.9,0,0,1,3.45-.53,8.25,8.25,0,0,1,5,1.41,4.7,4.7,0,0,1,1.93,4V211c0,.24,0,.47,0,.68a3.83,3.83,0,0,0,.05.6l1.36.17V215Zm-3.88-2.8a4,4,0,0,0,1.84-.41,3.53,3.53,0,0,0,1.29-1v-2.37h-2.29a3.29,3.29,0,0,0-2.16.62,1.91,1.91,0,0,0-.73,1.5,1.52,1.52,0,0,0,.54,1.24A2.32,2.32,0,0,0,232.81,212.17Z"/><path class="cls-5" d="M248.75,195.63v3.81h2.91v2.94h-2.91v7.91a1.7,1.7,0,0,0,.4,1.29,1.45,1.45,0,0,0,1.07.39c.3,0,.57,0,.8,0l.78-.12.38,3a11.68,11.68,0,0,1-1.49.32,11.24,11.24,0,0,1-1.59.11,4.93,4.93,0,0,1-3.56-1.2,5,5,0,0,1-1.25-3.77v-7.93h-2.44v-2.94h2.44v-3.81Z"/><path class="cls-5" d="M253.71,212.46l2.16-.43v-9.64l-2.39-.43v-2.52h6.87V212l2.14.43V215h-8.78Zm6.64-16.74h-4.48v-3.15h4.48Z"/><path class="cls-5" d="M271,202l-1.57.28,2.19,6.95.3,1.46H272l.32-1.46,2.16-6.94L272.9,202v-2.52h7.52V202l-1.44.22L274.09,215h-4.27l-4.91-12.79-1.44-.22v-2.52H271Z"/><path class="cls-5" d="M289.58,215.28a7.71,7.71,0,0,1-5.73-2.16,7.42,7.42,0,0,1-2.14-5.47v-.57a8.12,8.12,0,0,1,2-5.7,7.93,7.93,0,0,1,10.65-.34,7,7,0,0,1,1.86,5.13v2.29h-9.9l0,.08a4,4,0,0,0,1.09,2.53,3.55,3.55,0,0,0,2.65,1,9,9,0,0,0,2.46-.28,12.06,12.06,0,0,0,2.15-.88l1.21,2.58a9,9,0,0,1-2.66,1.28A12.17,12.17,0,0,1,289.58,215.28Zm-.4-12.9a2.4,2.4,0,0,0-2,.89,4.5,4.5,0,0,0-.89,2.34l.05.07h5.49v-.37a3.23,3.23,0,0,0-.67-2.13A2.5,2.5,0,0,0,289.18,202.38Z"/><path class="cls-5" d="M139.24,247.35a2.72,2.72,0,0,0,1.91-.65,2.25,2.25,0,0,0,.72-1.74h4l0,.08a4.73,4.73,0,0,1-1.88,3.94,8.36,8.36,0,0,1-10.56-.61,8,8,0,0,1-2-5.64v-.43a8,8,0,0,1,2.06-5.65,7.68,7.68,0,0,1,5.88-2.21,10.88,10.88,0,0,1,3.6.56,7.25,7.25,0,0,1,2.65,1.58l.06,4.15h-3.63l-.73-2.42a2.75,2.75,0,0,0-.83-.46,3.25,3.25,0,0,0-1.12-.18,2.86,2.86,0,0,0-2.68,1.3,6.36,6.36,0,0,0-.78,3.33v.43a6.74,6.74,0,0,0,.72,3.35A2.65,2.65,0,0,0,139.24,247.35Z"/><path class="cls-5" d="M148,242.36a8,8,0,0,1,2.07-5.7,8.56,8.56,0,0,1,11.49,0,8,8,0,0,1,2.08,5.71v.3a8,8,0,0,1-2.08,5.71,7.47,7.47,0,0,1-5.72,2.2,7.55,7.55,0,0,1-5.77-2.2,8,8,0,0,1-2.07-5.71Zm4.47.3a6.45,6.45,0,0,0,.8,3.41,3.18,3.18,0,0,0,5.11,0,6.43,6.43,0,0,0,.8-3.4v-.3a6.34,6.34,0,0,0-.81-3.38,2.8,2.8,0,0,0-2.56-1.31,2.76,2.76,0,0,0-2.54,1.31,6.43,6.43,0,0,0-.8,3.38Z"/><path class="cls-5" d="M165.33,247.75l2.15-.43v-9.63l-2.38-.43v-2.53h6.54l.2,2.23a5.84,5.84,0,0,1,2-1.86,5.57,5.57,0,0,1,2.71-.66,5.19,5.19,0,0,1,3.93,1.48,6.54,6.54,0,0,1,1.4,4.64v6.76l2.15.43v2.52h-8.55v-2.52l1.92-.43v-6.74a3,3,0,0,0-.68-2.22,2.81,2.81,0,0,0-2-.66,3.71,3.71,0,0,0-1.59.34,3.13,3.13,0,0,0-1.18,1v8.32l1.81.43v2.52h-8.43Z"/><path class="cls-5" d="M192.1,230.92v3.81H195v2.94H192.1v7.92a1.73,1.73,0,0,0,.4,1.29,1.45,1.45,0,0,0,1.07.39c.31,0,.58,0,.8,0a6.81,6.81,0,0,0,.78-.12l.38,3a10.81,10.81,0,0,1-3.08.43,5,5,0,0,1-3.56-1.19,5,5,0,0,1-1.25-3.78v-7.93H185.2v-2.94h2.44v-3.81Z"/><path class="cls-5" d="M207.76,250.27a7.85,7.85,0,0,1-.32-.8,6.23,6.23,0,0,1-.22-.82,6,6,0,0,1-4.55,1.92,5.71,5.71,0,0,1-3.87-1.24,4.27,4.27,0,0,1-1.43-3.38,3.78,3.78,0,0,1,1.87-3.38,10.34,10.34,0,0,1,5.49-1.19H207v-1.52a2.21,2.21,0,0,0-.69-1.74,3,3,0,0,0-2-.62,5.11,5.11,0,0,0-1.36.17,3.9,3.9,0,0,0-1,.39l-.29,1.67h-3.37v-3.45a13.12,13.12,0,0,1,2.82-1.31,10.9,10.9,0,0,1,3.45-.53,8.18,8.18,0,0,1,5,1.42,4.68,4.68,0,0,1,1.93,4v6.41c0,.24,0,.47,0,.68a3.83,3.83,0,0,0,.05.6l1.36.17v2.52Zm-3.88-2.8a4.11,4.11,0,0,0,1.84-.41,3.55,3.55,0,0,0,1.29-1v-2.37h-2.28a3.25,3.25,0,0,0-2.17.63,1.88,1.88,0,0,0-.73,1.5,1.5,1.5,0,0,0,.54,1.23A2.32,2.32,0,0,0,203.88,247.47Z"/><path class="cls-5" d="M214.3,247.75l2.16-.43v-9.63l-2.39-.43v-2.53h6.87v12.59l2.14.43v2.52H214.3ZM220.94,231h-4.48v-3.14h4.48Z"/><path class="cls-5" d="M224.31,247.75l2.14-.43v-9.63l-2.37-.43v-2.53h6.54l.2,2.23a5.84,5.84,0,0,1,2-1.86,5.55,5.55,0,0,1,2.71-.66,5.19,5.19,0,0,1,3.92,1.48,6.54,6.54,0,0,1,1.41,4.64v6.76l2.15.43v2.52H234.5v-2.52l1.91-.43v-6.74a3,3,0,0,0-.67-2.22,2.81,2.81,0,0,0-2-.66,3.71,3.71,0,0,0-1.59.34,3.06,3.06,0,0,0-1.18,1v8.32l1.8.43v2.52h-8.42Z"/><path class="cls-5" d="M252.26,250.57a7.79,7.79,0,0,1-5.74-2.15,7.44,7.44,0,0,1-2.14-5.48v-.57a8.17,8.17,0,0,1,2-5.7,7.93,7.93,0,0,1,10.66-.33,7,7,0,0,1,1.85,5.12v2.29H249l0,.08a3.91,3.91,0,0,0,1.1,2.53,3.54,3.54,0,0,0,2.64,1,9.08,9.08,0,0,0,2.47-.28,11.29,11.29,0,0,0,2.14-.88l1.21,2.59a9,9,0,0,1-2.66,1.27A11.79,11.79,0,0,1,252.26,250.57Zm-.4-12.9a2.39,2.39,0,0,0-2,.89,4.48,4.48,0,0,0-.89,2.35l0,.07h5.49v-.38a3.18,3.18,0,0,0-.67-2.13A2.47,2.47,0,0,0,251.86,237.67Z"/><path class="cls-5" d="M261.37,247.75l2.15-.43v-9.63l-2.38-.43v-2.53h6.55l.19,2.27a4.86,4.86,0,0,1,1.51-1.88,3.5,3.5,0,0,1,2.13-.68,6.57,6.57,0,0,1,.74.05,5.29,5.29,0,0,1,.65.13l-.47,3.81-1.84,0a3.31,3.31,0,0,0-1.63.36,2.41,2.41,0,0,0-1,1v7.55l2.15.43v2.52h-8.77Z"/><path class="cls-5" d="M281.8,247.75l2.16-.43v-9.63l-2.39-.43v-2.53h6.86v12.59l2.15.43v2.52H281.8ZM288.43,231H284v-3.14h4.47Z"/><path class="cls-5" d="M291.53,237.26v-2.53h6.54l.18,2.05a5.63,5.63,0,0,1,2-1.73,6.18,6.18,0,0,1,2.78-.61,5.31,5.31,0,0,1,2.73.66,4.15,4.15,0,0,1,1.72,2,5.55,5.55,0,0,1,2-1.95,5.69,5.69,0,0,1,2.88-.71,4.92,4.92,0,0,1,3.87,1.59,7.11,7.11,0,0,1,1.42,4.83v6.46l2.16.43v2.52h-8.57v-2.52l1.93-.43v-6.47a3.74,3.74,0,0,0-.61-2.46,2.32,2.32,0,0,0-1.82-.69,3.2,3.2,0,0,0-1.65.4,2.86,2.86,0,0,0-1.11,1.1c0,.18,0,.33,0,.46s0,.26,0,.4v7.26l1.81.43v2.52h-8.08v-2.52l1.81-.43v-6.47a3.77,3.77,0,0,0-.61-2.44,2.31,2.31,0,0,0-1.84-.71,3.64,3.64,0,0,0-1.59.33,2.84,2.84,0,0,0-1.12.91v8.38l1.93.43v2.52h-8.55v-2.52l2.16-.43v-9.63Z"/><path class="cls-5" d="M331.8,250.27a7.92,7.92,0,0,1-.33-.8,6.17,6.17,0,0,1-.21-.82,6.29,6.29,0,0,1-1.94,1.39,6.18,6.18,0,0,1-2.61.53,5.68,5.68,0,0,1-3.87-1.24,4.23,4.23,0,0,1-1.43-3.38,3.78,3.78,0,0,1,1.87-3.38,10.3,10.3,0,0,1,5.48-1.19H331v-1.52a2.24,2.24,0,0,0-.68-1.74,3,3,0,0,0-2-.62,5.19,5.19,0,0,0-1.37.17,3.81,3.81,0,0,0-1,.39l-.29,1.67h-3.37v-3.45a13.26,13.26,0,0,1,2.81-1.31,11,11,0,0,1,3.46-.53,8.18,8.18,0,0,1,5,1.42,4.7,4.7,0,0,1,1.92,4v6.41c0,.24,0,.47,0,.68a3.81,3.81,0,0,0,.06.6l1.36.17v2.52Zm-3.88-2.8a4.14,4.14,0,0,0,1.84-.41,3.43,3.43,0,0,0,1.28-1v-2.37h-2.28a3.24,3.24,0,0,0-2.16.63,1.88,1.88,0,0,0-.73,1.5,1.5,1.5,0,0,0,.54,1.23A2.3,2.3,0,0,0,327.92,247.47Z"/><path class="cls-5" d="M338.75,242.63a9.55,9.55,0,0,1,1.71-5.93,5.66,5.66,0,0,1,4.79-2.26,5.07,5.07,0,0,1,2.45.58,5.29,5.29,0,0,1,1.81,1.66l.32-2h3.89v15.08a6.2,6.2,0,0,1-2.06,4.9,8.22,8.22,0,0,1-5.66,1.83,11.7,11.7,0,0,1-2.67-.32,12.82,12.82,0,0,1-2.6-.88l.83-3a14.77,14.77,0,0,0,2.14.69,10.39,10.39,0,0,0,2.27.25,3.05,3.05,0,0,0,2.45-.94,3.82,3.82,0,0,0,.81-2.6v-1a5,5,0,0,1-1.73,1.33,5.31,5.31,0,0,1-2.28.46,5.8,5.8,0,0,1-4.76-2.1,8.53,8.53,0,0,1-1.71-5.54Zm4.48.3a6,6,0,0,0,.73,3.21,2.61,2.61,0,0,0,2.39,1.17,3.94,3.94,0,0,0,1.74-.35,2.77,2.77,0,0,0,1.14-1v-6.75a2.91,2.91,0,0,0-1.14-1.09,3.49,3.49,0,0,0-1.71-.39,2.56,2.56,0,0,0-2.4,1.37,7.35,7.35,0,0,0-.75,3.56Z"/><path class="cls-5" d="M364.34,250.57a7.75,7.75,0,0,1-5.73-2.15,7.44,7.44,0,0,1-2.14-5.48v-.57a8.12,8.12,0,0,1,2-5.7,7.91,7.91,0,0,1,10.65-.33,7,7,0,0,1,1.86,5.12v2.29h-9.9l0,.08a3.9,3.9,0,0,0,1.09,2.53,3.55,3.55,0,0,0,2.65,1,9,9,0,0,0,2.46-.28,11.36,11.36,0,0,0,2.15-.88l1.21,2.59a9.15,9.15,0,0,1-2.66,1.27A11.86,11.86,0,0,1,364.34,250.57Zm-.4-12.9a2.4,2.4,0,0,0-2,.89,4.57,4.57,0,0,0-.89,2.35l.05.07h5.48v-.38a3.23,3.23,0,0,0-.66-2.13A2.5,2.5,0,0,0,363.94,237.67Z"/><path class="cls-5" d="M78,368.1l.66,1,.48,1.4.56-1.43.64-1,1.28.65-.69,1.08-1.23,1.2,1.82-.3h1.28v1.4H81.55l-1.71-.3,1.23,1.2.62,1-1.26.7-.69-1.05-.62-1.52-.5,1.45-.67,1-1.33-.7.72-1.05,1.12-1-1.55.3H75.58v-1.4h1.33l1.65.3-1.2-1.1-.69-1.15Z"/><path class="cls-5" d="M92.22,375.4a5,5,0,0,0-1.52-.25,2.65,2.65,0,0,0-1.81.59,2.48,2.48,0,0,0-.83,1.48V386H85.93v-12.5h1.49l.4,1.53h.11a3.84,3.84,0,0,1,1.21-1.31,3.21,3.21,0,0,1,1.8-.47,7.21,7.21,0,0,1,1.73.25Z"/><path class="cls-5" d="M104.73,385a5.87,5.87,0,0,1-2,.95,9,9,0,0,1-2.58.35,6.88,6.88,0,0,1-2.64-.46,4.78,4.78,0,0,1-1.84-1.32,5.81,5.81,0,0,1-1.07-2.07,9.78,9.78,0,0,1-.34-2.7,7,7,0,0,1,1.52-4.87,5.56,5.56,0,0,1,4.35-1.68,9.27,9.27,0,0,1,1.81.19,4.27,4.27,0,0,1,1.63.71,3.78,3.78,0,0,1,1.17,1.49,6.05,6.05,0,0,1,.45,2.54,11.13,11.13,0,0,1-.16,1.82H96.46a7.25,7.25,0,0,0,.24,2,3.69,3.69,0,0,0,.75,1.43,3.3,3.3,0,0,0,1.32.9,5.51,5.51,0,0,0,2,.31,5.72,5.72,0,0,0,1.81-.3,3.9,3.9,0,0,0,1.36-.7Zm-4.59-10.05a3.83,3.83,0,0,0-2.52.78,3.75,3.75,0,0,0-1.13,2.65h6.61a3.65,3.65,0,0,0-.77-2.66A3,3,0,0,0,100.14,374.92Z"/><path class="cls-5" d="M118.47,391h-2.14v-6.25h-.1a3.67,3.67,0,0,1-1.35,1.16,5,5,0,0,1-2.15.39,4.75,4.75,0,0,1-3.94-1.58,7.74,7.74,0,0,1-1.28-4.92,5.8,5.8,0,0,1,6.48-6.52,13.18,13.18,0,0,1,2.65.25,9.06,9.06,0,0,1,1.83.52Zm-5.36-6.45a3.24,3.24,0,0,0,2.13-.64,3.62,3.62,0,0,0,1.09-2v-6.41a6.45,6.45,0,0,0-2.72-.47,3.63,3.63,0,0,0-2.86,1.16,5.29,5.29,0,0,0-1,3.59,9.05,9.05,0,0,0,.19,1.94,4.58,4.58,0,0,0,.58,1.51,2.84,2.84,0,0,0,1,1A3.18,3.18,0,0,0,113.11,384.52Z"/><path class="cls-5" d="M124.5,373.47v7.13a10.73,10.73,0,0,0,.12,1.71,3.42,3.42,0,0,0,.41,1.23,1.82,1.82,0,0,0,.8.73,2.83,2.83,0,0,0,1.28.25,3.62,3.62,0,0,0,1.28-.21,3.34,3.34,0,0,0,1-.59,4.23,4.23,0,0,0,.77-.86,4.5,4.5,0,0,0,.55-1v-8.35h2.13v8.95c0,.6,0,1.23.07,1.87a11.77,11.77,0,0,0,.23,1.68h-1.47l-.53-2H131a5,5,0,0,1-1.65,1.62,4.83,4.83,0,0,1-2.64.65,6.67,6.67,0,0,1-1.88-.23,2.91,2.91,0,0,1-1.36-.84,3.89,3.89,0,0,1-.83-1.61,10.17,10.17,0,0,1-.28-2.57v-7.55Z"/><path class="cls-5" d="M137,369.67a1.32,1.32,0,0,1,.42-1,1.39,1.39,0,0,1,1-.42,1.53,1.53,0,0,1,1.09.42,1.29,1.29,0,0,1,.46,1,1.17,1.17,0,0,1-.46.95,1.59,1.59,0,0,1-1.09.38,1.44,1.44,0,0,1-1-.38A1.19,1.19,0,0,1,137,369.67Zm.46,3.8h2.13V386h-2.13Z"/><path class="cls-5" d="M150.4,375.4a5,5,0,0,0-1.52-.25,2.67,2.67,0,0,0-1.82.59,2.53,2.53,0,0,0-.83,1.48V386H144.1v-12.5h1.49L146,375h.11a3.94,3.94,0,0,1,1.21-1.31,3.27,3.27,0,0,1,1.81-.47,7.28,7.28,0,0,1,1.73.25Z"/><path class="cls-5" d="M162.91,385a6,6,0,0,1-2,.95,9,9,0,0,1-2.57.35,6.81,6.81,0,0,1-2.64-.46,4.7,4.7,0,0,1-1.84-1.32,5.66,5.66,0,0,1-1.07-2.07,9.76,9.76,0,0,1-.35-2.7,7,7,0,0,1,1.52-4.87,5.58,5.58,0,0,1,4.35-1.68,9.19,9.19,0,0,1,1.81.19,4.2,4.2,0,0,1,1.63.71,3.89,3.89,0,0,1,1.18,1.49,6.05,6.05,0,0,1,.45,2.54,11.13,11.13,0,0,1-.16,1.82h-8.56a7.25,7.25,0,0,0,.24,2,3.81,3.81,0,0,0,.74,1.43,3.3,3.3,0,0,0,1.32.9,5.58,5.58,0,0,0,2,.31,5.78,5.78,0,0,0,1.82-.3,4,4,0,0,0,1.36-.7Zm-4.59-10.05a3.3,3.3,0,0,0-3.66,3.43h6.62a3.64,3.64,0,0,0-.78-2.66A3,3,0,0,0,158.32,374.92Z"/><path class="cls-5" d="M172.59,382.57a1.47,1.47,0,0,0-.48-1.17,4.17,4.17,0,0,0-1.19-.71c-.47-.19-1-.38-1.55-.55a7.41,7.41,0,0,1-1.54-.68,3.9,3.9,0,0,1-1.19-1.06,2.88,2.88,0,0,1-.48-1.75,3.11,3.11,0,0,1,1.09-2.64,4.9,4.9,0,0,1,3-.84,10.34,10.34,0,0,1,2.42.24,10.45,10.45,0,0,1,1.69.56l-.5,1.65a9,9,0,0,0-1.49-.48,7.75,7.75,0,0,0-1.85-.22,3.08,3.08,0,0,0-1.72.38,1.47,1.47,0,0,0-.55,1.3,1.19,1.19,0,0,0,.48,1,5.3,5.3,0,0,0,1.19.65c.47.19,1,.38,1.55.56a7,7,0,0,1,1.54.73,4,4,0,0,1,1.19,1.14,3.1,3.1,0,0,1,.48,1.81,4,4,0,0,1-.28,1.5,2.93,2.93,0,0,1-.86,1.2,4.43,4.43,0,0,1-1.46.79,6.58,6.58,0,0,1-2,.28,10.73,10.73,0,0,1-2.59-.27,8.25,8.25,0,0,1-1.78-.65l.64-1.7a7.72,7.72,0,0,0,1.6.6,7.48,7.48,0,0,0,2,.27,3.83,3.83,0,0,0,1.89-.42A1.6,1.6,0,0,0,172.59,382.57Z"/><path class="cls-5" d="M184.86,374.4a7.92,7.92,0,0,1,2.36-.85,14.24,14.24,0,0,1,2.81-.28,6,6,0,0,1,2.23.35,3.09,3.09,0,0,1,1.28.92,3.05,3.05,0,0,1,.59,1.23,6.88,6.88,0,0,1,.14,1.35c0,1,0,2-.08,2.93s-.08,1.85-.08,2.7c0,.62,0,1.2.08,1.75a7.58,7.58,0,0,0,.3,1.52h-1.58l-.56-1.75h-.13a3.8,3.8,0,0,1-.6.69,3.52,3.52,0,0,1-.87.6,5.49,5.49,0,0,1-1.17.44,5.89,5.89,0,0,1-1.52.17,4.82,4.82,0,0,1-1.59-.25,3.67,3.67,0,0,1-1.27-.71,3.54,3.54,0,0,1-.84-1.11,3.49,3.49,0,0,1-.3-1.48,3.28,3.28,0,0,1,.48-1.83,3.43,3.43,0,0,1,1.34-1.18A7,7,0,0,1,188,379a16.89,16.89,0,0,1,2.68-.19h.73a6.11,6.11,0,0,1,.73.05,11.27,11.27,0,0,0,.08-1.35,2.59,2.59,0,0,0-.58-1.93,3.2,3.2,0,0,0-2.14-.55,8.68,8.68,0,0,0-1,.07c-.35,0-.7.1-1.07.18a10.52,10.52,0,0,0-1,.28,6,6,0,0,0-.87.37Zm3.79,10a4.55,4.55,0,0,0,1.33-.18,4.12,4.12,0,0,0,1-.48,2.94,2.94,0,0,0,.71-.64,2.57,2.57,0,0,0,.41-.67v-2.07l-.76,0-.76,0a14.08,14.08,0,0,0-1.61.09,5.35,5.35,0,0,0-1.39.33,2.4,2.4,0,0,0-1,.65,1.5,1.5,0,0,0-.36,1,1.77,1.77,0,0,0,.67,1.44A2.52,2.52,0,0,0,188.65,384.42Z"/><path class="cls-5" d="M207.4,385.15a6,6,0,0,1-1.9.84,9,9,0,0,1-2.29.28,6.52,6.52,0,0,1-2.61-.46,4.39,4.39,0,0,1-1.75-1.32,5.66,5.66,0,0,1-1-2.08,11.17,11.17,0,0,1-.31-2.69,7.1,7.1,0,0,1,1.5-4.86,5.44,5.44,0,0,1,4.29-1.69,11.18,11.18,0,0,1,2.18.19,7.42,7.42,0,0,1,1.61.54l-.61,1.72a6.38,6.38,0,0,0-3-.7q-3.8,0-3.79,4.8a7.69,7.69,0,0,0,.2,1.82,4.11,4.11,0,0,0,.67,1.52,3.39,3.39,0,0,0,1.22,1.06,4,4,0,0,0,1.88.4,5.09,5.09,0,0,0,1.72-.27,4.62,4.62,0,0,0,1.24-.63Z"/><path class="cls-5" d="M218.81,385.15a5.84,5.84,0,0,1-1.89.84,9,9,0,0,1-2.29.28,6.54,6.54,0,0,1-2.62-.46,4.54,4.54,0,0,1-1.75-1.32,5.49,5.49,0,0,1-1-2.08,10.69,10.69,0,0,1-.31-2.69,7.15,7.15,0,0,1,1.49-4.86,5.46,5.46,0,0,1,4.3-1.69,11.07,11.07,0,0,1,2.17.19,7.33,7.33,0,0,1,1.62.54l-.62,1.72a6.62,6.62,0,0,0-1.36-.51,6.75,6.75,0,0,0-1.6-.19q-3.78,0-3.78,4.8a7.69,7.69,0,0,0,.2,1.82,4.26,4.26,0,0,0,.66,1.52,3.34,3.34,0,0,0,1.23,1.06,4,4,0,0,0,1.88.4,5.13,5.13,0,0,0,1.72-.27,4.62,4.62,0,0,0,1.24-.63Z"/><path class="cls-5" d="M230.87,385a5.87,5.87,0,0,1-2,.95,9,9,0,0,1-2.58.35,6.88,6.88,0,0,1-2.64-.46,4.78,4.78,0,0,1-1.84-1.32,5.81,5.81,0,0,1-1.07-2.07,9.78,9.78,0,0,1-.34-2.7,7,7,0,0,1,1.52-4.87,5.56,5.56,0,0,1,4.35-1.68,9.35,9.35,0,0,1,1.81.19,4.27,4.27,0,0,1,1.63.71,3.78,3.78,0,0,1,1.17,1.49,6.05,6.05,0,0,1,.45,2.54,11.13,11.13,0,0,1-.16,1.82H222.6a7.25,7.25,0,0,0,.24,2,3.69,3.69,0,0,0,.75,1.43,3.3,3.3,0,0,0,1.32.9,5.51,5.51,0,0,0,2,.31,5.77,5.77,0,0,0,1.81-.3,3.9,3.9,0,0,0,1.36-.7Zm-4.59-10.05a3.83,3.83,0,0,0-2.52.78,3.75,3.75,0,0,0-1.13,2.65h6.61a3.65,3.65,0,0,0-.77-2.66A3,3,0,0,0,226.28,374.92Z"/><path class="cls-5" d="M240.55,382.57a1.47,1.47,0,0,0-.48-1.17,4.11,4.11,0,0,0-1.18-.71c-.48-.19-1-.38-1.55-.55a7.5,7.5,0,0,1-1.55-.68,3.9,3.9,0,0,1-1.19-1.06,2.88,2.88,0,0,1-.48-1.75,3.12,3.12,0,0,1,1.1-2.64,4.88,4.88,0,0,1,3-.84,10.25,10.25,0,0,1,2.41.24,10.59,10.59,0,0,1,1.7.56l-.51,1.65a8.89,8.89,0,0,0-1.48-.48,7.88,7.88,0,0,0-1.85-.22,3.06,3.06,0,0,0-1.72.38,1.45,1.45,0,0,0-.55,1.3,1.19,1.19,0,0,0,.48,1,5.08,5.08,0,0,0,1.19.65c.47.19,1,.38,1.54.56a7.12,7.12,0,0,1,1.55.73,4.17,4.17,0,0,1,1.19,1.14,3.1,3.1,0,0,1,.48,1.81,4.16,4.16,0,0,1-.28,1.5,3,3,0,0,1-.87,1.2,4.38,4.38,0,0,1-1.45.79,6.58,6.58,0,0,1-2,.28,10.67,10.67,0,0,1-2.59-.27,8.36,8.36,0,0,1-1.79-.65l.64-1.7a7.72,7.72,0,0,0,1.6.6,7.59,7.59,0,0,0,2,.27,3.84,3.84,0,0,0,1.9-.42A1.61,1.61,0,0,0,240.55,382.57Z"/><path class="cls-5" d="M251.78,382.57a1.47,1.47,0,0,0-.48-1.17,4.11,4.11,0,0,0-1.18-.71c-.48-.19-1-.38-1.55-.55a7.5,7.5,0,0,1-1.55-.68,3.9,3.9,0,0,1-1.19-1.06,2.88,2.88,0,0,1-.48-1.75,3.12,3.12,0,0,1,1.1-2.64,4.88,4.88,0,0,1,3-.84,10.25,10.25,0,0,1,2.41.24,10.59,10.59,0,0,1,1.7.56l-.51,1.65a8.89,8.89,0,0,0-1.48-.48,7.88,7.88,0,0,0-1.85-.22,3.12,3.12,0,0,0-1.73.38,1.47,1.47,0,0,0-.54,1.3,1.19,1.19,0,0,0,.48,1,5.08,5.08,0,0,0,1.19.65c.47.19,1,.38,1.54.56a7.12,7.12,0,0,1,1.55.73,4.17,4.17,0,0,1,1.19,1.14,3.1,3.1,0,0,1,.48,1.81,4.16,4.16,0,0,1-.28,1.5,3,3,0,0,1-.87,1.2,4.38,4.38,0,0,1-1.45.79,6.6,6.6,0,0,1-2,.28,10.64,10.64,0,0,1-2.58-.27,8.36,8.36,0,0,1-1.79-.65l.64-1.7a7.72,7.72,0,0,0,1.6.6,7.59,7.59,0,0,0,2,.27,3.84,3.84,0,0,0,1.9-.42A1.61,1.61,0,0,0,251.78,382.57Z"/><path class="cls-5" d="M262.51,373.47h2.08V371l2.13-.58v3.05h3.63v1.75h-3.63v6.93a3.58,3.58,0,0,0,.35,1.84,1.27,1.27,0,0,0,1.17.53,4.39,4.39,0,0,0,1.17-.13c.32-.09.68-.22,1.07-.37l.48,1.53a8,8,0,0,1-1.57.52,7.75,7.75,0,0,1-1.84.2,2.73,2.73,0,0,1-2.3-.86,4.82,4.82,0,0,1-.66-2.89v-7.3h-2.08Z"/><path class="cls-5" d="M272.27,379.72a7.1,7.1,0,0,1,1.5-4.86,5.54,5.54,0,0,1,4.34-1.69,6.7,6.7,0,0,1,2.6.47,4.74,4.74,0,0,1,1.83,1.32A5.61,5.61,0,0,1,283.6,377a9.77,9.77,0,0,1,.35,2.68,7.07,7.07,0,0,1-1.51,4.87,5.51,5.51,0,0,1-4.33,1.68,6.67,6.67,0,0,1-2.6-.46,4.74,4.74,0,0,1-1.83-1.32,5.78,5.78,0,0,1-1.07-2.08A9.8,9.8,0,0,1,272.27,379.72Zm2.21,0a8.34,8.34,0,0,0,.2,1.83,4.43,4.43,0,0,0,.63,1.52,3.14,3.14,0,0,0,1.12,1.05,3.27,3.27,0,0,0,1.68.4q3.63,0,3.63-4.8a8.37,8.37,0,0,0-.2-1.84,4.82,4.82,0,0,0-.63-1.53,3.29,3.29,0,0,0-1.12-1,3.37,3.37,0,0,0-1.68-.39Q274.48,374.91,274.48,379.72Z"/><path class="cls-5" d="M436.66,374.4a8,8,0,0,1,2.36-.85,14.34,14.34,0,0,1,2.82-.28,5.93,5.93,0,0,1,2.22.35,3.09,3.09,0,0,1,1.28.92,2.93,2.93,0,0,1,.59,1.23,6.21,6.21,0,0,1,.15,1.35c0,1,0,2-.08,2.93s-.08,1.85-.08,2.7a16.2,16.2,0,0,0,.08,1.75,7.59,7.59,0,0,0,.29,1.52h-1.57l-.56-1.75H444a3.8,3.8,0,0,1-.6.69,3.66,3.66,0,0,1-.86.6,5.59,5.59,0,0,1-1.18.44,5.84,5.84,0,0,1-1.52.17,4.82,4.82,0,0,1-1.59-.25,3.62,3.62,0,0,1-1.26-.71,3.27,3.27,0,0,1-.84-1.11,3.35,3.35,0,0,1-.31-1.48,3.28,3.28,0,0,1,.48-1.83,3.39,3.39,0,0,1,1.35-1.18,6.89,6.89,0,0,1,2.08-.62,17,17,0,0,1,2.68-.19h.73a6.27,6.27,0,0,1,.74.05c.05-.5.08-1,.08-1.35a2.59,2.59,0,0,0-.59-1.93,3.17,3.17,0,0,0-2.13-.55,8.68,8.68,0,0,0-1,.07,10.68,10.68,0,0,0-1.06.18,10,10,0,0,0-1.05.28,6.34,6.34,0,0,0-.86.37Zm3.79,10a4.51,4.51,0,0,0,1.33-.18,4.38,4.38,0,0,0,1-.48,2.89,2.89,0,0,0,.7-.64,2.63,2.63,0,0,0,.42-.67v-2.07l-.76,0-.76,0a14.26,14.26,0,0,0-1.62.09,5.37,5.37,0,0,0-1.38.33,2.4,2.4,0,0,0-1,.65,1.46,1.46,0,0,0-.36,1,1.79,1.79,0,0,0,.66,1.44A2.55,2.55,0,0,0,440.45,384.42Z"/><path class="cls-5" d="M450.1,373.47h1.47l.4,1.5h.11a4,4,0,0,1,1.59-1.33,5.87,5.87,0,0,1,6.2,1q1.31,1.47,1.3,4.82a8.42,8.42,0,0,1-.44,2.84,5.94,5.94,0,0,1-1.24,2.14,5.43,5.43,0,0,1-1.93,1.35,6.43,6.43,0,0,1-2.52.47,8.07,8.07,0,0,1-1.56-.11,5.84,5.84,0,0,1-1.24-.39V391H450.1Zm5.39,1.45a3.22,3.22,0,0,0-2.14.67,3.57,3.57,0,0,0-1.11,2v6.2a3.83,3.83,0,0,0,1.09.54,6,6,0,0,0,1.63.18,3.6,3.6,0,0,0,2.92-1.28,5.77,5.77,0,0,0,1.08-3.79,8.25,8.25,0,0,0-.19-1.86,3.79,3.79,0,0,0-.6-1.43,2.83,2.83,0,0,0-1.06-.91A3.6,3.6,0,0,0,455.49,374.92Z"/><path class="cls-5" d="M464.53,373.47H466l.4,1.5h.11a4,4,0,0,1,1.59-1.33,5.87,5.87,0,0,1,6.2,1q1.31,1.47,1.3,4.82a8.42,8.42,0,0,1-.44,2.84,5.94,5.94,0,0,1-1.24,2.14A5.43,5.43,0,0,1,472,385.8a6.43,6.43,0,0,1-2.52.47,8.07,8.07,0,0,1-1.56-.11,5.84,5.84,0,0,1-1.24-.39V391h-2.14Zm5.39,1.45a3.22,3.22,0,0,0-2.14.67,3.57,3.57,0,0,0-1.11,2v6.2a3.83,3.83,0,0,0,1.09.54,6,6,0,0,0,1.63.18,3.6,3.6,0,0,0,2.92-1.28,5.77,5.77,0,0,0,1.08-3.79,8.25,8.25,0,0,0-.19-1.86,3.79,3.79,0,0,0-.6-1.43,2.83,2.83,0,0,0-1.06-.91A3.6,3.6,0,0,0,469.92,374.92Z"/><path class="cls-5" d="M484.83,382.57a1.47,1.47,0,0,0-.48-1.17,4.11,4.11,0,0,0-1.18-.71c-.48-.19-1-.38-1.55-.55a7.5,7.5,0,0,1-1.55-.68,4,4,0,0,1-1.19-1.06,2.88,2.88,0,0,1-.48-1.75,3.12,3.12,0,0,1,1.1-2.64,4.88,4.88,0,0,1,3-.84,10.25,10.25,0,0,1,2.41.24,10.59,10.59,0,0,1,1.7.56l-.51,1.65a8.89,8.89,0,0,0-1.48-.48,7.88,7.88,0,0,0-1.85-.22,3.06,3.06,0,0,0-1.72.38,1.45,1.45,0,0,0-.55,1.3,1.19,1.19,0,0,0,.48,1,5.08,5.08,0,0,0,1.19.65c.47.19,1,.38,1.54.56a7.12,7.12,0,0,1,1.55.73,4.17,4.17,0,0,1,1.19,1.14,3.1,3.1,0,0,1,.48,1.81,4.16,4.16,0,0,1-.28,1.5,3,3,0,0,1-.87,1.2,4.38,4.38,0,0,1-1.45.79,6.58,6.58,0,0,1-2,.28,10.67,10.67,0,0,1-2.59-.27,8.36,8.36,0,0,1-1.79-.65l.64-1.7a7.72,7.72,0,0,0,1.6.6,7.59,7.59,0,0,0,2,.27,3.84,3.84,0,0,0,1.9-.42A1.61,1.61,0,0,0,484.83,382.57Z"/><path class="cls-5" d="M1537,202v-2.52h6.5l.21,1.81a5.26,5.26,0,0,1,1.77-1.56,5,5,0,0,1,2.39-.54,5.66,5.66,0,0,1,4.78,2.25,9.64,9.64,0,0,1,1.7,5.93v.31a8.56,8.56,0,0,1-1.7,5.54,5.78,5.78,0,0,1-4.75,2.1,5.68,5.68,0,0,1-2.32-.46,4.74,4.74,0,0,1-1.73-1.32V218l2.16.43V221h-8.78v-2.53l2.16-.43v-15.6Zm12.87,5.37a7.14,7.14,0,0,0-.78-3.56,2.57,2.57,0,0,0-2.39-1.36,3.53,3.53,0,0,0-1.72.39,2.78,2.78,0,0,0-1.13,1.1v6.81a2.67,2.67,0,0,0,1.13,1,4,4,0,0,0,1.75.35,2.62,2.62,0,0,0,2.38-1.19,5.94,5.94,0,0,0,.76-3.23Z"/><path class="cls-5" d="M1568,213a5.58,5.58,0,0,1-2,1.68,5.89,5.89,0,0,1-2.67.59,5.38,5.38,0,0,1-4.11-1.58q-1.49-1.56-1.49-4.89v-6.42l-1.82-.43v-2.52h6.3v9.4a3.92,3.92,0,0,0,.6,2.44,2.22,2.22,0,0,0,1.8.74,4.6,4.6,0,0,0,1.83-.33,3.14,3.14,0,0,0,1.27-.92v-8.38l-2-.43v-2.52h6.43V212l2,.43V215h-5.93Z"/><path class="cls-5" d="M1589.47,204.78h-3l-.48-1.94a4.12,4.12,0,0,0-1.15-.58,5,5,0,0,0-1.54-.22,3.14,3.14,0,0,0-1.87.49,1.49,1.49,0,0,0-.69,1.24,1.39,1.39,0,0,0,.66,1.17,7.34,7.34,0,0,0,2.63.83,11,11,0,0,1,4.57,1.69,3.61,3.61,0,0,1,1.48,3.06,4,4,0,0,1-1.92,3.43,8.78,8.78,0,0,1-5.06,1.33,11.25,11.25,0,0,1-3.52-.53,9.18,9.18,0,0,1-2.84-1.5l0-3.49h3.13l.61,2a2.68,2.68,0,0,0,1.09.46,6.76,6.76,0,0,0,1.44.15,3.84,3.84,0,0,0,2.08-.46,1.41,1.41,0,0,0,.71-1.24,1.46,1.46,0,0,0-.72-1.2,7.86,7.86,0,0,0-2.65-.89A10.84,10.84,0,0,1,1578,207a3.51,3.51,0,0,1-1.5-3,4.28,4.28,0,0,1,1.72-3.37,7.5,7.5,0,0,1,4.89-1.41,13.19,13.19,0,0,1,3.65.49,7.86,7.86,0,0,1,2.71,1.25Z"/><path class="cls-5" d="M1591.85,212.46,1594,212v-16.5l-2.39-.43v-2.53h6.85v8.85a5.48,5.48,0,0,1,1.91-1.68,5.4,5.4,0,0,1,2.51-.59,5.3,5.3,0,0,1,4.09,1.61,7.24,7.24,0,0,1,1.48,5V212l2.14.43V215h-8.55v-2.51L1604,212v-6.3a3.86,3.86,0,0,0-.68-2.57,2.6,2.6,0,0,0-2-.75,3.92,3.92,0,0,0-1.63.31,3.17,3.17,0,0,0-1.17.9V212l1.93.43V215h-8.55Z"/><path class="cls-5" d="M1626.34,195.63v3.81h2.91v2.94h-2.91v7.91a1.7,1.7,0,0,0,.4,1.29,1.45,1.45,0,0,0,1.07.39c.31,0,.57,0,.8,0l.78-.12.38,3a11.68,11.68,0,0,1-1.49.32,11.24,11.24,0,0,1-1.59.11,4.33,4.33,0,0,1-4.81-5v-7.93h-2.44v-2.94h2.44v-3.81Z"/><path class="cls-5" d="M1631,207.06a8,8,0,0,1,2.08-5.69,8.56,8.56,0,0,1,11.49,0,8,8,0,0,1,2.07,5.7v.3a8,8,0,0,1-2.07,5.71,8.57,8.57,0,0,1-11.49,0,8,8,0,0,1-2.08-5.71Zm4.48.3a6.4,6.4,0,0,0,.79,3.41,2.8,2.8,0,0,0,2.58,1.29,2.76,2.76,0,0,0,2.53-1.29,6.35,6.35,0,0,0,.81-3.41v-.3a6.21,6.21,0,0,0-.82-3.37,2.79,2.79,0,0,0-2.56-1.31,2.76,2.76,0,0,0-2.54,1.31,6.39,6.39,0,0,0-.79,3.37Z"/><path class="cls-5" d="M1466.71,247.35a2.73,2.73,0,0,0,1.92-.65,2.25,2.25,0,0,0,.72-1.74h4l0,.08a4.73,4.73,0,0,1-1.88,3.94,7.43,7.43,0,0,1-4.85,1.59,7.33,7.33,0,0,1-5.71-2.2,8,8,0,0,1-2-5.64v-.43a8,8,0,0,1,2.06-5.65,7.66,7.66,0,0,1,5.88-2.21,10.88,10.88,0,0,1,3.6.56,7.25,7.25,0,0,1,2.65,1.58l.06,4.15h-3.63l-.74-2.42a2.7,2.7,0,0,0-.82-.46,3.25,3.25,0,0,0-1.12-.18,2.86,2.86,0,0,0-2.68,1.3,6.36,6.36,0,0,0-.78,3.33v.43a6.74,6.74,0,0,0,.72,3.35A2.64,2.64,0,0,0,1466.71,247.35Z"/><path class="cls-5" d="M1475.46,242.36a8,8,0,0,1,2.08-5.7,8.56,8.56,0,0,1,11.49,0,8,8,0,0,1,2.08,5.71v.3a8,8,0,0,1-2.08,5.71,8.6,8.6,0,0,1-11.49,0,8,8,0,0,1-2.08-5.71Zm4.48.3a6.45,6.45,0,0,0,.79,3.41,2.82,2.82,0,0,0,2.58,1.28,2.76,2.76,0,0,0,2.53-1.29,6.34,6.34,0,0,0,.81-3.4v-.3a6.34,6.34,0,0,0-.81-3.38,2.81,2.81,0,0,0-2.56-1.31,2.78,2.78,0,0,0-2.55,1.31,6.43,6.43,0,0,0-.79,3.38Z"/><path class="cls-5" d="M1492.81,247.75l2.14-.43v-9.63l-2.37-.43v-2.53h6.54l.2,2.23a5.84,5.84,0,0,1,2-1.86,5.57,5.57,0,0,1,2.71-.66,5.17,5.17,0,0,1,3.92,1.48,6.54,6.54,0,0,1,1.41,4.64v6.76l2.15.43v2.52H1503v-2.52l1.91-.43v-6.74a3,3,0,0,0-.67-2.22,2.81,2.81,0,0,0-2-.66,3.71,3.71,0,0,0-1.59.34,3.06,3.06,0,0,0-1.18,1v8.32l1.81.43v2.52h-8.43Z"/><path class="cls-5" d="M1519.58,230.92v3.81h2.91v2.94h-2.91v7.92a1.73,1.73,0,0,0,.4,1.29,1.45,1.45,0,0,0,1.07.39c.3,0,.57,0,.8,0a6.81,6.81,0,0,0,.78-.12l.38,3a11.68,11.68,0,0,1-1.49.32,11.24,11.24,0,0,1-1.59.11,5,5,0,0,1-3.56-1.19,5,5,0,0,1-1.25-3.78v-7.93h-2.44v-2.94h2.44v-3.81Z"/><path class="cls-5" d="M1535.24,250.27a6.07,6.07,0,0,1-.32-.8,5,5,0,0,1-.22-.82,6.29,6.29,0,0,1-1.94,1.39,6.18,6.18,0,0,1-2.61.53,5.71,5.71,0,0,1-3.87-1.24,4.27,4.27,0,0,1-1.43-3.38,3.78,3.78,0,0,1,1.87-3.38,10.3,10.3,0,0,1,5.48-1.19h2.29v-1.52a2.21,2.21,0,0,0-.69-1.74,3,3,0,0,0-2-.62,5.19,5.19,0,0,0-1.37.17,3.81,3.81,0,0,0-1,.39l-.29,1.67h-3.37v-3.45a13.26,13.26,0,0,1,2.81-1.31,11,11,0,0,1,3.46-.53,8.18,8.18,0,0,1,5,1.42,4.7,4.7,0,0,1,1.93,4V247a5.54,5.54,0,0,0,.06.6l1.36.17v2.52Zm-3.88-2.8a4.11,4.11,0,0,0,1.84-.41,3.55,3.55,0,0,0,1.29-1v-2.37h-2.29a3.24,3.24,0,0,0-2.16.63,1.88,1.88,0,0,0-.73,1.5,1.5,1.5,0,0,0,.54,1.23A2.3,2.3,0,0,0,1531.36,247.47Z"/><path class="cls-5" d="M1541.78,247.75l2.16-.43v-9.63l-2.39-.43v-2.53h6.86v12.59l2.15.43v2.52h-8.78Zm6.63-16.74h-4.47v-3.14h4.47Z"/><path class="cls-5" d="M1551.79,247.75l2.14-.43v-9.63l-2.38-.43v-2.53h6.55l.2,2.23a5.9,5.9,0,0,1,2-1.86,5.61,5.61,0,0,1,2.72-.66,5.19,5.19,0,0,1,3.92,1.48,6.54,6.54,0,0,1,1.41,4.64v6.76l2.15.43v2.52H1562v-2.52l1.92-.43v-6.74a3,3,0,0,0-.67-2.22,2.81,2.81,0,0,0-2-.66,3.76,3.76,0,0,0-1.6.34,3.13,3.13,0,0,0-1.18,1v8.32l1.81.43v2.52h-8.42Z"/><path class="cls-5" d="M1579.73,250.57a7.75,7.75,0,0,1-5.73-2.15,7.44,7.44,0,0,1-2.14-5.48v-.57a8.12,8.12,0,0,1,2-5.7,7.05,7.05,0,0,1,12.51,4.79v2.29h-9.9l0,.08a3.91,3.91,0,0,0,1.1,2.53,3.52,3.52,0,0,0,2.64,1,9.08,9.08,0,0,0,2.47-.28,11.57,11.57,0,0,0,2.14-.88l1.21,2.59a9,9,0,0,1-2.66,1.27A11.81,11.81,0,0,1,1579.73,250.57Zm-.4-12.9a2.4,2.4,0,0,0-2,.89,4.48,4.48,0,0,0-.88,2.35l0,.07H1582v-.38a3.23,3.23,0,0,0-.67-2.13A2.49,2.49,0,0,0,1579.33,237.67Z"/><path class="cls-5" d="M1588.85,247.75l2.15-.43v-9.63l-2.38-.43v-2.53h6.54l.2,2.27a4.86,4.86,0,0,1,1.51-1.88,3.49,3.49,0,0,1,2.12-.68,6.59,6.59,0,0,1,.75.05,5.71,5.71,0,0,1,.65.13l-.48,3.81-1.83,0a3.31,3.31,0,0,0-1.63.36,2.41,2.41,0,0,0-1,1v7.55l2.15.43v2.52h-8.77Z"/><path class="cls-5" d="M1609.75,247.75l2.15-.43v-9.63l-2.38-.43v-2.53h6.54l.2,2.27a4.93,4.93,0,0,1,1.5-1.88,3.54,3.54,0,0,1,2.13-.68,6.59,6.59,0,0,1,.75.05,5.29,5.29,0,0,1,.65.13l-.48,3.81-1.84,0a3.29,3.29,0,0,0-1.62.36,2.35,2.35,0,0,0-1,1v7.55l2.15.43v2.52h-8.77Z"/><path class="cls-5" d="M1630.27,250.57a7.75,7.75,0,0,1-5.73-2.15,7.45,7.45,0,0,1-2.15-5.48v-.57a8.17,8.17,0,0,1,2-5.7,7.93,7.93,0,0,1,10.66-.33,7,7,0,0,1,1.85,5.12v2.29H1627l0,.08a4,4,0,0,0,1.1,2.53,3.54,3.54,0,0,0,2.64,1,9,9,0,0,0,2.47-.28,11.63,11.63,0,0,0,2.15-.88l1.21,2.59a9.28,9.28,0,0,1-2.66,1.27A11.86,11.86,0,0,1,1630.27,250.57Zm-.4-12.9a2.39,2.39,0,0,0-2,.89,4.48,4.48,0,0,0-.89,2.35l0,.07h5.48v-.38a3.18,3.18,0,0,0-.67-2.13A2.47,2.47,0,0,0,1629.87,237.67Z"/><path class="cls-5" d="M1639.32,242.63a9.55,9.55,0,0,1,1.71-5.93,5.66,5.66,0,0,1,4.79-2.26,5.07,5.07,0,0,1,2.45.58,5.29,5.29,0,0,1,1.81,1.66l.32-2h3.89v15.08a6.2,6.2,0,0,1-2.06,4.9,8.22,8.22,0,0,1-5.66,1.83,11.55,11.55,0,0,1-2.66-.32,12.7,12.7,0,0,1-2.61-.88l.83-3a14.77,14.77,0,0,0,2.14.69,10.39,10.39,0,0,0,2.27.25,3.05,3.05,0,0,0,2.45-.94,3.82,3.82,0,0,0,.81-2.6v-1a5,5,0,0,1-1.73,1.33,5.31,5.31,0,0,1-2.28.46,5.8,5.8,0,0,1-4.76-2.1,8.53,8.53,0,0,1-1.71-5.54Zm4.48.3a6,6,0,0,0,.73,3.21,2.61,2.61,0,0,0,2.39,1.17,3.94,3.94,0,0,0,1.74-.35,2.77,2.77,0,0,0,1.14-1v-6.75a2.91,2.91,0,0,0-1.14-1.09,3.47,3.47,0,0,0-1.7-.39,2.54,2.54,0,0,0-2.4,1.37,7.23,7.23,0,0,0-.76,3.56Z"/><path class="cls-5" d="M1656.84,247.75l2.16-.43v-9.63l-2.39-.43v-2.53h6.86v12.59l2.15.43v2.52h-8.78Zm6.63-16.74H1659v-3.14h4.47Z"/><path class="cls-5" d="M1680.62,240.07h-3l-.48-1.94a3.92,3.92,0,0,0-1.16-.57,5,5,0,0,0-1.54-.23,3.16,3.16,0,0,0-1.87.49,1.5,1.5,0,0,0-.69,1.25,1.39,1.39,0,0,0,.66,1.17,7.45,7.45,0,0,0,2.64.82,11.36,11.36,0,0,1,4.57,1.69,3.61,3.61,0,0,1,1.48,3.07,4,4,0,0,1-1.92,3.42,8.71,8.71,0,0,1-5.07,1.33,11.19,11.19,0,0,1-3.51-.52,9,9,0,0,1-2.85-1.51l0-3.48H1671l.62,2a2.62,2.62,0,0,0,1.09.47,6.69,6.69,0,0,0,1.44.15,3.87,3.87,0,0,0,2.07-.46,1.41,1.41,0,0,0,.71-1.25,1.43,1.43,0,0,0-.72-1.19,7.56,7.56,0,0,0-2.65-.89,11.19,11.19,0,0,1-4.42-1.66,3.53,3.53,0,0,1-1.49-3,4.22,4.22,0,0,1,1.72-3.36,7.43,7.43,0,0,1,4.88-1.42,13.21,13.21,0,0,1,3.66.49,7.9,7.9,0,0,1,2.7,1.25Z"/><path class="cls-5" d="M1689.84,230.92v3.81h2.91v2.94h-2.91v7.92a1.73,1.73,0,0,0,.4,1.29,1.47,1.47,0,0,0,1.07.39c.31,0,.58,0,.81,0a6.35,6.35,0,0,0,.77-.12l.38,3a11.54,11.54,0,0,1-1.48.32,11.24,11.24,0,0,1-1.59.11,5,5,0,0,1-3.57-1.19,5,5,0,0,1-1.25-3.78v-7.93H1683v-2.94h2.43v-3.81Z"/><path class="cls-5" d="M1695.28,247.75l2.15-.43v-9.63l-2.38-.43v-2.53h6.54l.2,2.27a4.86,4.86,0,0,1,1.51-1.88,3.5,3.5,0,0,1,2.13-.68,6.57,6.57,0,0,1,.74.05,5.29,5.29,0,0,1,.65.13l-.48,3.81-1.83,0a3.31,3.31,0,0,0-1.63.36,2.41,2.41,0,0,0-1,1v7.55l2.15.43v2.52h-8.77Z"/><path class="cls-5" d="M1725.59,237.26l-1.55.21-6.1,15.12a8.39,8.39,0,0,1-1.92,2.82,5.09,5.09,0,0,1-3.62,1.13,6,6,0,0,1-1.07-.08c-.33-.06-.72-.14-1.17-.25l.52-3,.44.05.4,0a2.58,2.58,0,0,0,1.72-.51,3.28,3.28,0,0,0,.92-1.27l.51-1.18-5.26-12.79-1.55-.23v-2.53H1716v2.53l-1.85.28,2.27,6.21.23,1.12h.09l2.62-7.34-1.87-.28v-2.53h8.12Z"/><rect class="cls-4" x="1412" y="146" width="360" height="149" rx="8"/><line class="cls-6" x1="449.53" y1="227.62" x2="493.73" y2="227.62"/><polygon class="cls-7" points="479.81 244.8 476.95 241.72 492.12 227.63 476.95 213.53 479.81 210.45 498.28 227.63 479.81 244.8"/><rect class="cls-8" x="964.24" y="146" width="363.36" height="149" rx="8"/><path class="cls-3" d="M1061.42,212.06a2.76,2.76,0,0,0,1.91-.65,2.26,2.26,0,0,0,.72-1.75h4l0,.09a4.69,4.69,0,0,1-1.88,3.94,8.36,8.36,0,0,1-10.56-.61,8.05,8.05,0,0,1-2-5.65V207a7.92,7.92,0,0,1,2.06-5.64,7.64,7.64,0,0,1,5.87-2.21,10.63,10.63,0,0,1,3.6.56,7,7,0,0,1,2.65,1.58l.07,4.15h-3.64l-.73-2.43a3,3,0,0,0-.83-.45,3.25,3.25,0,0,0-1.12-.18,2.88,2.88,0,0,0-2.68,1.29,6.36,6.36,0,0,0-.78,3.33v.43a6.81,6.81,0,0,0,.72,3.36A2.65,2.65,0,0,0,1061.42,212.06Z"/><path class="cls-3" d="M1070.17,207.06a8,8,0,0,1,2.07-5.69,8.57,8.57,0,0,1,11.5,0,8,8,0,0,1,2.07,5.7v.3a8,8,0,0,1-2.07,5.71,8.59,8.59,0,0,1-11.5,0,8,8,0,0,1-2.07-5.71Zm4.47.3a6.4,6.4,0,0,0,.8,3.41,3.18,3.18,0,0,0,5.11,0,6.45,6.45,0,0,0,.8-3.41v-.3a6.3,6.3,0,0,0-.81-3.37,2.79,2.79,0,0,0-2.56-1.31,2.76,2.76,0,0,0-2.54,1.31,6.39,6.39,0,0,0-.8,3.37Z"/><path class="cls-3" d="M1087.51,212.46l2.15-.43v-9.64l-2.38-.43v-2.52h6.55l.2,2.22a6,6,0,0,1,2-1.85,5.59,5.59,0,0,1,2.72-.66,5.15,5.15,0,0,1,3.92,1.48,6.52,6.52,0,0,1,1.41,4.64V212l2.14.43V215h-8.55v-2.51l1.92-.43v-6.75a3,3,0,0,0-.68-2.22,2.84,2.84,0,0,0-2-.65,3.58,3.58,0,0,0-1.6.34,3.21,3.21,0,0,0-1.18.95V212l1.81.43V215h-8.43Z"/><path class="cls-3" d="M1107.23,202.38v-2.94h2.47v-1.07a5.53,5.53,0,0,1,1.91-4.51,8.15,8.15,0,0,1,5.37-1.59,12.41,12.41,0,0,1,2.36.22c.77.15,1.67.36,2.7.64l-.65,3.3c-.74-.21-1.42-.37-2-.48a10.85,10.85,0,0,0-2.09-.18,3.49,3.49,0,0,0-2.32.66,2.42,2.42,0,0,0-.78,1.94v1.07h10.06V212l2.37.43V215h-9v-2.51l2.16-.43v-9.65h-5.58V212l2.16.43V215h-9v-2.51l2.39-.43v-9.65Z"/><path class="cls-3" d="M1139,213.08a5.42,5.42,0,0,1-1.85,1.64,5.17,5.17,0,0,1-2.42.56,5.76,5.76,0,0,1-4.76-2.1,8.56,8.56,0,0,1-1.7-5.54v-.31a9.57,9.57,0,0,1,1.71-5.93,5.63,5.63,0,0,1,4.78-2.25,4.82,4.82,0,0,1,2.23.51,5.34,5.34,0,0,1,1.75,1.44v-5.57l-2.39-.43v-2.53h6.86V212l2.15.43V215h-6Zm-6.25-5.44a6,6,0,0,0,.73,3.21,2.58,2.58,0,0,0,2.38,1.17,3.64,3.64,0,0,0,1.7-.38,3.1,3.1,0,0,0,1.18-1.07V204a3.38,3.38,0,0,0-1.17-1.15,3.27,3.27,0,0,0-1.68-.41,2.53,2.53,0,0,0-2.39,1.36,7.38,7.38,0,0,0-.75,3.56Z"/><path class="cls-3" d="M1154.67,215.28a7.71,7.71,0,0,1-5.73-2.16,7.42,7.42,0,0,1-2.14-5.47v-.57a8.12,8.12,0,0,1,2-5.7,7.93,7.93,0,0,1,10.65-.34,7,7,0,0,1,1.86,5.13v2.29h-9.9l0,.08a4,4,0,0,0,1.09,2.53,3.55,3.55,0,0,0,2.65,1,9,9,0,0,0,2.46-.28,12.06,12.06,0,0,0,2.15-.88l1.21,2.58a9,9,0,0,1-2.66,1.28A12.17,12.17,0,0,1,1154.67,215.28Zm-.4-12.9a2.4,2.4,0,0,0-2,.89,4.5,4.5,0,0,0-.89,2.34l0,.07H1157v-.37a3.23,3.23,0,0,0-.67-2.13A2.5,2.5,0,0,0,1154.27,202.38Z"/><path class="cls-3" d="M1163.21,212.46l2.14-.43v-9.64L1163,202v-2.52h6.54l.2,2.22a5.91,5.91,0,0,1,2-1.85,5.55,5.55,0,0,1,2.71-.66,5.15,5.15,0,0,1,3.92,1.48,6.52,6.52,0,0,1,1.41,4.64V212l2.15.43V215h-8.55v-2.51l1.91-.43v-6.75a3,3,0,0,0-.67-2.22,2.85,2.85,0,0,0-2-.65,3.57,3.57,0,0,0-1.59.34,3.13,3.13,0,0,0-1.18.95V212l1.8.43V215h-8.42Z"/><path class="cls-3" d="M1190,195.63v3.81h2.91v2.94H1190v7.91a1.75,1.75,0,0,0,.39,1.29,1.49,1.49,0,0,0,1.08.39c.3,0,.57,0,.8,0l.78-.12.38,3a11.68,11.68,0,0,1-1.49.32,11.24,11.24,0,0,1-1.59.11,4.33,4.33,0,0,1-4.81-5v-7.93h-2.44v-2.94h2.44v-3.81Z"/><path class="cls-3" d="M1194.94,212.46l2.16-.43v-9.64l-2.39-.43v-2.52h6.86V212l2.15.43V215h-8.78Zm6.63-16.74h-4.47v-3.15h4.47Z"/><path class="cls-3" d="M1215.75,215a5.44,5.44,0,0,1-.32-.79,5.09,5.09,0,0,1-.22-.83,6,6,0,0,1-1.94,1.4,6.18,6.18,0,0,1-2.61.53,5.72,5.72,0,0,1-3.87-1.25,4.24,4.24,0,0,1-1.43-3.38,3.77,3.77,0,0,1,1.87-3.37,10.2,10.2,0,0,1,5.48-1.2H1215v-1.52a2.2,2.2,0,0,0-.69-1.73,2.93,2.93,0,0,0-2-.62,5.08,5.08,0,0,0-1.36.16,3.54,3.54,0,0,0-1,.4l-.29,1.66h-3.37V201a12.66,12.66,0,0,1,2.82-1.31,10.85,10.85,0,0,1,3.45-.53,8.25,8.25,0,0,1,5,1.41,4.7,4.7,0,0,1,1.93,4v7.1a5.54,5.54,0,0,0,.06.6l1.36.17V215Zm-3.88-2.8a4,4,0,0,0,1.84-.41,3.53,3.53,0,0,0,1.29-1v-2.37h-2.29a3.29,3.29,0,0,0-2.16.62,1.91,1.91,0,0,0-.73,1.5,1.52,1.52,0,0,0,.54,1.24A2.3,2.3,0,0,0,1211.87,212.17Z"/><path class="cls-3" d="M1222,195.1v-2.53h6.87V212l2.16.43V215h-8.8v-2.51l2.16-.43v-16.5Z"/><path class="cls-3" d="M1033.83,247.35a2.7,2.7,0,0,0,1.91-.65,2.25,2.25,0,0,0,.72-1.74h4l0,.08a4.71,4.71,0,0,1-1.89,3.94,8.36,8.36,0,0,1-10.56-.61,8.05,8.05,0,0,1-2-5.64v-.43a8,8,0,0,1,2.06-5.65,7.64,7.64,0,0,1,5.87-2.21,10.88,10.88,0,0,1,3.6.56,7.17,7.17,0,0,1,2.65,1.58l.07,4.15h-3.64l-.73-2.42a2.64,2.64,0,0,0-.83-.46,3.21,3.21,0,0,0-1.12-.18,2.87,2.87,0,0,0-2.68,1.3,6.36,6.36,0,0,0-.78,3.33v.43a6.74,6.74,0,0,0,.72,3.35A2.65,2.65,0,0,0,1033.83,247.35Z"/><path class="cls-3" d="M1042.58,242.36a8,8,0,0,1,2.07-5.7,8.57,8.57,0,0,1,11.5,0,8,8,0,0,1,2.07,5.71v.3a8,8,0,0,1-2.07,5.71,8.61,8.61,0,0,1-11.5,0,8,8,0,0,1-2.07-5.71Zm4.47.3a6.45,6.45,0,0,0,.8,3.41,2.81,2.81,0,0,0,2.57,1.28,2.77,2.77,0,0,0,2.54-1.29,6.34,6.34,0,0,0,.8-3.4v-.3A6.34,6.34,0,0,0,1053,239a2.79,2.79,0,0,0-2.56-1.31,2.76,2.76,0,0,0-2.54,1.31,6.43,6.43,0,0,0-.8,3.38Z"/><path class="cls-3" d="M1059.92,247.75l2.15-.43v-9.63l-2.38-.43v-2.53h6.55l.2,2.23a5.9,5.9,0,0,1,2-1.86,5.59,5.59,0,0,1,2.72-.66,5.19,5.19,0,0,1,3.92,1.48,6.54,6.54,0,0,1,1.41,4.64v6.76l2.14.43v2.52h-8.55v-2.52l1.92-.43v-6.74a3,3,0,0,0-.68-2.22,2.79,2.79,0,0,0-2-.66,3.72,3.72,0,0,0-1.6.34,3.13,3.13,0,0,0-1.18,1v8.32l1.81.43v2.52h-8.43Z"/><path class="cls-3" d="M1086.69,230.92v3.81h2.91v2.94h-2.91v7.92a1.78,1.78,0,0,0,.4,1.29,1.47,1.47,0,0,0,1.07.39c.31,0,.58,0,.81,0a6.35,6.35,0,0,0,.77-.12l.38,3a11.54,11.54,0,0,1-1.48.32,11.28,11.28,0,0,1-1.6.11,5,5,0,0,1-3.56-1.19,5,5,0,0,1-1.25-3.78v-7.93h-2.43v-2.94h2.43v-3.81Z"/><path class="cls-3" d="M1102.35,250.27a7.85,7.85,0,0,1-.32-.8,6.17,6.17,0,0,1-.21-.82,6.29,6.29,0,0,1-1.94,1.39,6.18,6.18,0,0,1-2.61.53,5.68,5.68,0,0,1-3.87-1.24A4.24,4.24,0,0,1,1092,246a3.8,3.8,0,0,1,1.87-3.38,10.36,10.36,0,0,1,5.49-1.19h2.28v-1.52a2.21,2.21,0,0,0-.69-1.74,3,3,0,0,0-2-.62,5.11,5.11,0,0,0-1.36.17,3.9,3.9,0,0,0-1,.39l-.29,1.67h-3.37l0-3.45a12.81,12.81,0,0,1,2.81-1.31,11,11,0,0,1,3.46-.53,8.18,8.18,0,0,1,5,1.42,4.7,4.7,0,0,1,1.92,4v6.41c0,.24,0,.47,0,.68a3.83,3.83,0,0,0,.05.6l1.37.17v2.52Zm-3.87-2.8a4.1,4.1,0,0,0,1.83-.41,3.46,3.46,0,0,0,1.29-1v-2.37h-2.28a3.24,3.24,0,0,0-2.16.63,1.89,1.89,0,0,0-.74,1.5A1.48,1.48,0,0,0,1097,247,2.29,2.29,0,0,0,1098.48,247.47Z"/><path class="cls-3" d="M1108.89,247.75l2.16-.43v-9.63l-2.38-.43v-2.53h6.86v12.59l2.14.43v2.52h-8.78Zm6.64-16.74h-4.48v-3.14h4.48Z"/><path class="cls-3" d="M1118.9,247.75l2.14-.43v-9.63l-2.37-.43v-2.53h6.54l.2,2.23a5.84,5.84,0,0,1,2-1.86,5.57,5.57,0,0,1,2.71-.66,5.17,5.17,0,0,1,3.92,1.48,6.49,6.49,0,0,1,1.41,4.64v6.76l2.15.43v2.52h-8.55v-2.52l1.92-.43v-6.74a3,3,0,0,0-.68-2.22,2.81,2.81,0,0,0-2-.66,3.71,3.71,0,0,0-1.59.34,3.13,3.13,0,0,0-1.18,1v8.32l1.81.43v2.52h-8.43Z"/><path class="cls-3" d="M1146.85,250.57a7.75,7.75,0,0,1-5.73-2.15,7.45,7.45,0,0,1-2.15-5.48v-.57a8.17,8.17,0,0,1,2-5.7,7,7,0,0,1,12.51,4.79v2.29h-9.89l0,.08a4,4,0,0,0,1.1,2.53,3.54,3.54,0,0,0,2.64,1,9,9,0,0,0,2.47-.28,11.63,11.63,0,0,0,2.15-.88l1.21,2.59a9.15,9.15,0,0,1-2.66,1.27A11.86,11.86,0,0,1,1146.85,250.57Zm-.4-12.9a2.39,2.39,0,0,0-2,.89,4.48,4.48,0,0,0-.89,2.35l.05.07h5.48v-.38a3.18,3.18,0,0,0-.67-2.13A2.47,2.47,0,0,0,1146.45,237.67Z"/><path class="cls-3" d="M1156,247.75l2.14-.43v-9.63l-2.37-.43v-2.53h6.54l.2,2.27a4.93,4.93,0,0,1,1.5-1.88,3.5,3.5,0,0,1,2.13-.68,6.57,6.57,0,0,1,.74.05,5.29,5.29,0,0,1,.65.13l-.47,3.81-1.84,0a3.29,3.29,0,0,0-1.62.36,2.35,2.35,0,0,0-1,1v7.55l2.14.43v2.52H1156Z"/><path class="cls-3" d="M1176.39,247.75l2.16-.43v-9.63l-2.39-.43v-2.53H1183v12.59l2.14.43v2.52h-8.78ZM1183,231h-4.48v-3.14H1183Z"/><path class="cls-3" d="M1186.12,237.26v-2.53h6.54l.19,2.05a5.47,5.47,0,0,1,2-1.73,6.15,6.15,0,0,1,2.78-.61,5.36,5.36,0,0,1,2.73.66,4.18,4.18,0,0,1,1.71,2,5.63,5.63,0,0,1,2-1.95,5.69,5.69,0,0,1,2.88-.71,4.91,4.91,0,0,1,3.87,1.59,7.06,7.06,0,0,1,1.42,4.83v6.46l2.16.43v2.52h-8.56v-2.52l1.93-.43v-6.47a3.74,3.74,0,0,0-.62-2.46,2.3,2.3,0,0,0-1.82-.69,3.25,3.25,0,0,0-1.65.4,3,3,0,0,0-1.11,1.1c0,.18,0,.33,0,.46s0,.26,0,.4v7.26l1.81.43v2.52h-8.07v-2.52l1.8-.43v-6.47a3.77,3.77,0,0,0-.61-2.44,2.31,2.31,0,0,0-1.84-.71,3.57,3.57,0,0,0-1.58.33,2.87,2.87,0,0,0-1.13.91v8.38l1.93.43v2.52h-8.55v-2.52l2.16-.43v-9.63Z"/><path class="cls-3" d="M1226.39,250.27a7.85,7.85,0,0,1-.32-.8,5,5,0,0,1-.22-.82,6,6,0,0,1-4.55,1.92,5.71,5.71,0,0,1-3.87-1.24A4.27,4.27,0,0,1,1216,246a3.78,3.78,0,0,1,1.87-3.38,10.34,10.34,0,0,1,5.49-1.19h2.28v-1.52a2.21,2.21,0,0,0-.69-1.74,3,3,0,0,0-2-.62,5.11,5.11,0,0,0-1.36.17,3.9,3.9,0,0,0-1,.39l-.29,1.67h-3.37v-3.45a13.12,13.12,0,0,1,2.82-1.31,10.9,10.9,0,0,1,3.45-.53,8.24,8.24,0,0,1,5,1.42,4.7,4.7,0,0,1,1.92,4V247a5.54,5.54,0,0,0,.06.6l1.36.17v2.52Zm-3.88-2.8a4.11,4.11,0,0,0,1.84-.41,3.55,3.55,0,0,0,1.29-1v-2.37h-2.28a3.25,3.25,0,0,0-2.17.63,1.88,1.88,0,0,0-.73,1.5A1.5,1.5,0,0,0,1221,247,2.32,2.32,0,0,0,1222.51,247.47Z"/><path class="cls-3" d="M1233.35,242.63a9.55,9.55,0,0,1,1.7-5.93,5.66,5.66,0,0,1,4.79-2.26,5.07,5.07,0,0,1,2.45.58,5.29,5.29,0,0,1,1.81,1.66l.32-2h3.9v15.08a6.21,6.21,0,0,1-2.07,4.9,8.22,8.22,0,0,1-5.66,1.83,11.61,11.61,0,0,1-2.66-.32,12.91,12.91,0,0,1-2.61-.88l.83-3a14.77,14.77,0,0,0,2.14.69,10.46,10.46,0,0,0,2.27.25,3,3,0,0,0,2.45-.94,3.82,3.82,0,0,0,.82-2.6v-1a5,5,0,0,1-1.74,1.33,5.31,5.31,0,0,1-2.28.46,5.8,5.8,0,0,1-4.76-2.1,8.52,8.52,0,0,1-1.7-5.54Zm4.47.3a6,6,0,0,0,.73,3.21,2.62,2.62,0,0,0,2.4,1.17,3.92,3.92,0,0,0,1.73-.35,2.86,2.86,0,0,0,1.15-1v-6.75a3,3,0,0,0-1.15-1.09,3.47,3.47,0,0,0-1.7-.39,2.54,2.54,0,0,0-2.4,1.37,7.23,7.23,0,0,0-.76,3.56Z"/><path class="cls-3" d="M1258.93,250.57a7.75,7.75,0,0,1-5.73-2.15,7.44,7.44,0,0,1-2.14-5.48v-.57a8.12,8.12,0,0,1,2-5.7,7.93,7.93,0,0,1,10.66-.33,7,7,0,0,1,1.85,5.12v2.29h-9.9l0,.08a3.91,3.91,0,0,0,1.1,2.53,3.52,3.52,0,0,0,2.64,1,9.08,9.08,0,0,0,2.47-.28,11.29,11.29,0,0,0,2.14-.88l1.21,2.59a9,9,0,0,1-2.66,1.27A11.81,11.81,0,0,1,1258.93,250.57Zm-.39-12.9a2.41,2.41,0,0,0-2,.89,4.48,4.48,0,0,0-.88,2.35l0,.07h5.49v-.38a3.18,3.18,0,0,0-.67-2.13A2.48,2.48,0,0,0,1258.54,237.67Z"/><line class="cls-6" x1="897.53" y1="227.62" x2="941.73" y2="227.62"/><polygon class="cls-7" points="927.81 244.8 924.95 241.72 940.12 227.63 924.95 213.53 927.81 210.45 946.28 227.63 927.81 244.8"/><line class="cls-6" x1="1345.53" y1="227.62" x2="1389.73" y2="227.62"/><polygon class="cls-7" points="1375.81 244.8 1372.95 241.72 1388.12 227.63 1372.95 213.53 1375.81 210.45 1394.28 227.63 1375.81 244.8"/><path d="M539,30.58a11.75,11.75,0,0,1,8.6,3.33A11.5,11.5,0,0,1,551,42.46v4.71a11.44,11.44,0,0,1-3.38,8.54A11.78,11.78,0,0,1,539,59H526.18V55.6l3-.58V34.61l-3-.59V30.58H539ZM534.91,35V54.65h3.77a5.92,5.92,0,0,0,4.8-2.07,8.14,8.14,0,0,0,1.74-5.41V42.42a8.06,8.06,0,0,0-1.74-5.37,5.92,5.92,0,0,0-4.8-2.07Z"/><path d="M564,59.43a9.49,9.49,0,0,1-7.3-2.93A10.44,10.44,0,0,1,554,49.06v-.78a11.57,11.57,0,0,1,2.59-7.75,9.64,9.64,0,0,1,13.58-.45,9.9,9.9,0,0,1,2.37,7v3.1H559.87l0,.12a5.53,5.53,0,0,0,1.4,3.44,4.36,4.36,0,0,0,3.37,1.35,11.08,11.08,0,0,0,3.14-.38,15.17,15.17,0,0,0,2.74-1.2L572,57a11.2,11.2,0,0,1-3.39,1.74A14.4,14.4,0,0,1,564,59.43Zm-.51-17.54A3,3,0,0,0,561,43.1a6.31,6.31,0,0,0-1.13,3.19l.06.1h7v-.51a4.55,4.55,0,0,0-.85-2.9A3,3,0,0,0,563.48,41.89Z"/><path d="M583.89,41.33l-2,.37,2.8,9.45.37,2h.11l.41-2,2.76-9.43-2-.39V37.89h9.59v3.44l-1.84.29L587.84,59h-5.45l-6.25-17.4-1.84-.29V37.89h9.59Z"/><path d="M607.59,59.43a9.49,9.49,0,0,1-7.31-2.93,10.47,10.47,0,0,1-2.73-7.44v-.78a11.57,11.57,0,0,1,2.58-7.75,9.65,9.65,0,0,1,13.59-.45,9.94,9.94,0,0,1,2.36,7v3.1H603.46l0,.12a5.52,5.52,0,0,0,1.39,3.44,4.36,4.36,0,0,0,3.37,1.35,11.2,11.2,0,0,0,3.15-.38,15.41,15.41,0,0,0,2.73-1.2L615.61,57a11.2,11.2,0,0,1-3.39,1.74A14.33,14.33,0,0,1,607.59,59.43Zm-.51-17.54a3,3,0,0,0-2.5,1.21,6.31,6.31,0,0,0-1.13,3.19l0,.1h7v-.51a4.61,4.61,0,0,0-.85-2.9A3.06,3.06,0,0,0,607.08,41.89Z"/><path d="M618.17,32V28.55h8.75V55l2.76.58V59H618.46V55.6l2.76-.58V32.58Z"/><path d="M631.14,48.26a11.28,11.28,0,0,1,2.65-7.74,10.41,10.41,0,0,1,14.65,0,11.31,11.31,0,0,1,2.64,7.75v.41a11.29,11.29,0,0,1-2.64,7.76,10.44,10.44,0,0,1-14.65,0,11.24,11.24,0,0,1-2.65-7.76Zm5.7.41a9.17,9.17,0,0,0,1,4.64,3.52,3.52,0,0,0,3.28,1.75,3.47,3.47,0,0,0,3.23-1.76,9.07,9.07,0,0,0,1-4.63v-.41a9.07,9.07,0,0,0-1-4.59,3.86,3.86,0,0,0-6.5,0,9.18,9.18,0,0,0-1,4.59Z"/><path d="M653.13,41.33V37.89h8.28l.28,2.46a6.8,6.8,0,0,1,2.24-2.11A6.15,6.15,0,0,1,667,37.5a7,7,0,0,1,6.09,3.06,13.68,13.68,0,0,1,2.17,8.07V49a12.1,12.1,0,0,1-2.17,7.54A7.16,7.16,0,0,1,667,59.43a6.76,6.76,0,0,1-2.95-.61A6.18,6.18,0,0,1,661.86,57v6.11l2.76.59v3.44H653.43V63.71l2.75-.59V41.91Zm16.41,7.3a10.12,10.12,0,0,0-1-4.84,3.24,3.24,0,0,0-3-1.86,4.32,4.32,0,0,0-2.2.53,3.72,3.72,0,0,0-1.44,1.5v9.26a3.46,3.46,0,0,0,1.44,1.37,4.85,4.85,0,0,0,2.24.47,3.27,3.27,0,0,0,3-1.62,8.52,8.52,0,0,0,1-4.4Z"/><path d="M677.12,41.33V37.89h8.34l.23,2.79a7.15,7.15,0,0,1,2.55-2.35,7.36,7.36,0,0,1,3.55-.83,6.43,6.43,0,0,1,3.47.9,5.54,5.54,0,0,1,2.19,2.71A7.27,7.27,0,0,1,700,38.46a6.85,6.85,0,0,1,3.67-1,6.08,6.08,0,0,1,4.93,2.16q1.81,2.16,1.81,6.57V55l2.75.58V59H702.23V55.6L704.7,55V46.21a5.34,5.34,0,0,0-.79-3.34,2.83,2.83,0,0,0-2.32-.94,4,4,0,0,0-2.1.54A4.07,4.07,0,0,0,698.07,44c0,.25,0,.46,0,.64a4.7,4.7,0,0,1,0,.54V55l2.31.58V59h-10.3V55.6l2.31-.58V46.21a5.36,5.36,0,0,0-.78-3.31,2.82,2.82,0,0,0-2.35-1,4.48,4.48,0,0,0-2,.44,3.88,3.88,0,0,0-1.43,1.24V55l2.46.58V59h-10.9V55.6l2.75-.58V41.91Z"/><path d="M724.91,59.43a9.47,9.47,0,0,1-7.3-2.93,10.44,10.44,0,0,1-2.74-7.44v-.78a11.52,11.52,0,0,1,2.59-7.75A9.64,9.64,0,0,1,731,40.08a9.9,9.9,0,0,1,2.37,7v3.1H720.79l0,.12a5.47,5.47,0,0,0,1.4,3.44,4.34,4.34,0,0,0,3.37,1.35,11.08,11.08,0,0,0,3.14-.38,15.41,15.41,0,0,0,2.73-1.2L732.94,57a11.32,11.32,0,0,1-3.39,1.74A14.4,14.4,0,0,1,724.91,59.43Zm-.51-17.54a3,3,0,0,0-2.5,1.21,6.31,6.31,0,0,0-1.13,3.19l.06.1h7v-.51A4.55,4.55,0,0,0,727,43,3,3,0,0,0,724.4,41.89Z"/><path d="M735.79,55.6l2.73-.58V41.91l-3-.58V37.89h8.34l.25,3a7.71,7.71,0,0,1,2.6-2.52,6.73,6.73,0,0,1,3.45-.9,6.34,6.34,0,0,1,5,2q1.8,2,1.8,6.31V55l2.74.58V59h-10.9V55.6l2.44-.58V45.84a4.29,4.29,0,0,0-.86-3,3.47,3.47,0,0,0-2.6-.89,4.49,4.49,0,0,0-2,.46,4.17,4.17,0,0,0-1.5,1.3V55l2.3.58V59H735.79Z"/><path d="M769.91,32.71v5.18h3.71v4h-3.71V52.65a2.47,2.47,0,0,0,.51,1.76,1.81,1.81,0,0,0,1.37.53,9.93,9.93,0,0,0,1,0c.29,0,.62-.09,1-.16l.49,4.12a14.86,14.86,0,0,1-1.9.44,14.17,14.17,0,0,1-2,.14,6.07,6.07,0,0,1-4.54-1.62q-1.59-1.62-1.59-5.14V41.89h-3.11v-4h3.11V32.71Z"/><path d="M786.08,55.6l3-.58V34.61l-3-.59V30.58h22.64v7.8h-4.38l-.25-3.4h-9.28v7.83h10v4.4h-10V55l3.05.58V59H786.08Z"/><path d="M810.32,32V28.55h8.75V55l2.75.58V59H810.61V55.6l2.76-.58V32.58Z"/><path d="M823.29,48.26a11.28,11.28,0,0,1,2.65-7.74,10.39,10.39,0,0,1,14.64,0,11.27,11.27,0,0,1,2.65,7.75v.41a11.24,11.24,0,0,1-2.65,7.76,10.43,10.43,0,0,1-14.64,0,11.24,11.24,0,0,1-2.65-7.76Zm5.7.41a9.17,9.17,0,0,0,1,4.64,3.51,3.51,0,0,0,3.28,1.75,3.47,3.47,0,0,0,3.23-1.76,9.07,9.07,0,0,0,1-4.63v-.41a9.07,9.07,0,0,0-1-4.59,3.51,3.51,0,0,0-3.26-1.78A3.46,3.46,0,0,0,830,43.67a9.18,9.18,0,0,0-1,4.59Z"/><path d="M875.83,41.33l-2.13.27L869.29,59h-4.77l-3.93-12.58h-.11L856.55,59H851.8L847.37,41.6l-2.13-.27V37.89h9.57v3.44l-2.24.43,2,9.66h.12l3.94-13.53h3.83l4,13.57h.12l2-9.68-2.26-.45V37.89h9.57Z"/><path d="M888.09,47.46a26.41,26.41,0,0,1,3-13q3-5.34,6.72-6.92h.12l1,2.85a14.23,14.23,0,0,0-4.29,6.17,29,29,0,0,0-1.74,10.86v.51a29,29,0,0,0,1.74,10.87A14.74,14.74,0,0,0,898.93,65l-1,2.79h-.12q-3.75-1.57-6.72-6.91a26.4,26.4,0,0,1-3-13Z"/><path d="M900.83,59V55.6l3-.58V34.61l-3-.59V30.58h11.78V34l-3.05.59v20h8l.27-3.58h4.35v8Z"/><path d="M924.23,55.6,927,55V41.91l-3.05-.58V37.89h8.75V55l2.74.58V59H924.23Zm8.45-22.77H927V28.55h5.7Z"/><path d="M937,55.6l2.73-.58V41.91l-3-.58V37.89H945l.25,3a7.71,7.71,0,0,1,2.6-2.52,6.74,6.74,0,0,1,3.46-.9,6.37,6.37,0,0,1,5,2q1.78,2,1.79,6.31V55l2.74.58V59H950V55.6l2.44-.58V45.84a4.29,4.29,0,0,0-.86-3,3.47,3.47,0,0,0-2.6-.89,4.49,4.49,0,0,0-2,.46,4.17,4.17,0,0,0-1.5,1.3V55l2.3.58V59H937Z"/><path d="M977.47,56.35a6.87,6.87,0,0,1-5.92,3.08,6.6,6.6,0,0,1-5.23-2.14q-1.91-2.13-1.9-6.65V41.91l-2.32-.58V37.89h8V50.68A5.46,5.46,0,0,0,970.9,54a2.71,2.71,0,0,0,2.29,1,5.78,5.78,0,0,0,2.34-.44,4.09,4.09,0,0,0,1.61-1.26V41.91l-2.5-.58V37.89h8.2V55l2.56.58V59h-7.56Z"/><path d="M987,55.6l2-.31,5.74-6.95-5.54-6.68-2-.33V37.89h9.52v3.3l-1.94.23L998,45.49l3.14-4.07-2-.23v-3.3h9.55v3.44l-1.92.33-5.43,6.68,5.73,6.95,2,.31V59h-9.67V55.74l1.93-.23-3.28-4.26-3.34,4.28,1.7.21V59H987Z"/><path d="M1017.49,58.26a9.52,9.52,0,0,1-1.12,4.22,12,12,0,0,1-2.75,3.65l-2.81-1.52a12.74,12.74,0,0,0,1.17-2.82,12.17,12.17,0,0,0,.41-3.26V54.28h5.12Z"/><path d="M1057.84,38l-.12,0L1050.11,59h-3.83l-7.58-21h-.12l.55,12.49V55l3,.58V59H1030.4V55.6l3-.58V34.61l-3-.59V30.58h10.47l7.24,21h.12l7.31-21H1066V34l-3,.59V55l3,.58V59h-11.77V55.6l3-.58V50.55Z"/><path d="M1081.67,59a8.27,8.27,0,0,1-.41-1.08,8.88,8.88,0,0,1-.28-1.13,7.63,7.63,0,0,1-2.47,1.9,7.41,7.41,0,0,1-3.33.72,7,7,0,0,1-4.93-1.69,5.94,5.94,0,0,1-1.82-4.6,5.22,5.22,0,0,1,2.38-4.59q2.39-1.62,7-1.62h2.91V44.86a3.1,3.1,0,0,0-.88-2.36,3.61,3.61,0,0,0-2.6-.84,6.06,6.06,0,0,0-1.73.22,4.44,4.44,0,0,0-1.23.54l-.38,2.27h-4.29l0-4.69a16,16,0,0,1,3.58-1.78,13.08,13.08,0,0,1,4.41-.72,10,10,0,0,1,6.37,1.92,6.55,6.55,0,0,1,2.45,5.48v8.73c0,.33,0,.63,0,.92a7,7,0,0,0,.07.82l1.74.23V59Zm-4.94-3.81a4.93,4.93,0,0,0,2.34-.55,4.54,4.54,0,0,0,1.64-1.4V50h-2.91a3.94,3.94,0,0,0-2.75.85,2.63,2.63,0,0,0-.94,2,2.14,2.14,0,0,0,.69,1.68A2.86,2.86,0,0,0,1076.73,55.21Z"/><path d="M1100.11,55.06a3.39,3.39,0,0,0,2.44-.89,3.14,3.14,0,0,0,.91-2.37h5.16l.06.11a6.59,6.59,0,0,1-2.4,5.36,10.16,10.16,0,0,1-13.46-.83,11.35,11.35,0,0,1-2.56-7.67v-.59a11.23,11.23,0,0,1,2.63-7.67q2.63-3,7.49-3a13,13,0,0,1,4.59.76,9.08,9.08,0,0,1,3.38,2.15l.08,5.64h-4.63l-.94-3.3a3.85,3.85,0,0,0-2.48-.86,3.6,3.6,0,0,0-3.42,1.76,9.15,9.15,0,0,0-1,4.53v.59a9.74,9.74,0,0,0,.92,4.56A3.35,3.35,0,0,0,1100.11,55.06Z"/><path d="M1117.84,58.26a9.39,9.39,0,0,1-1.12,4.22,12,12,0,0,1-2.75,3.65l-2.81-1.52a12.74,12.74,0,0,0,1.17-2.82,11.78,11.78,0,0,0,.41-3.26V54.28h5.12Z"/><path d="M1167.59,34l-2.35.29L1159.48,59h-5.29L1149,40.25h-.11L1143.64,59h-5.29l-5.8-24.71-2.33-.29V30.58h10.47V34l-2.6.45,3.27,15.59.11,0,5.33-19.5h4.2l5.37,19.5.12,0,3.24-15.59-2.59-.45V30.58h10.45Z"/><path d="M1169.23,55.6,1172,55V41.91l-3-.58V37.89h8.75V55l2.74.58V59h-11.19Zm8.45-22.77H1172V28.55h5.7Z"/><path d="M1182,55.6l2.73-.58V41.91l-3-.58V37.89H1190l.25,3a7.71,7.71,0,0,1,2.6-2.52,6.74,6.74,0,0,1,3.46-.9,6.37,6.37,0,0,1,5,2q1.79,2,1.79,6.31V55l2.74.58V59H1195V55.6l2.44-.58V45.84a4.29,4.29,0,0,0-.86-3,3.47,3.47,0,0,0-2.6-.89,4.49,4.49,0,0,0-2,.46,4.17,4.17,0,0,0-1.5,1.3V55l2.3.58V59H1182Z"/><path d="M1221.24,56.44a7,7,0,0,1-2.36,2.23,6.15,6.15,0,0,1-3.09.76,7.17,7.17,0,0,1-6.07-2.85,12.22,12.22,0,0,1-2.15-7.54v-.41a13.76,13.76,0,0,1,2.16-8.07,7.05,7.05,0,0,1,6.1-3.06,5.89,5.89,0,0,1,2.85.69,7,7,0,0,1,2.23,2V32.58l-3.05-.59V28.55h8.75V55l2.73.58V59h-7.67Zm-8-7.4a8.68,8.68,0,0,0,.93,4.37,3.24,3.24,0,0,0,3,1.59,4.38,4.38,0,0,0,2.17-.51,4.14,4.14,0,0,0,1.51-1.46v-9a4.28,4.28,0,0,0-1.5-1.57,4,4,0,0,0-2.14-.56,3.18,3.18,0,0,0-3,1.86,10.52,10.52,0,0,0-1,4.84Z"/><path d="M1231.16,48.26a11.28,11.28,0,0,1,2.65-7.74,10.41,10.41,0,0,1,14.65,0,11.31,11.31,0,0,1,2.64,7.75v.41a11.29,11.29,0,0,1-2.64,7.76,10.44,10.44,0,0,1-14.65,0,11.24,11.24,0,0,1-2.65-7.76Zm5.7.41a9.17,9.17,0,0,0,1,4.64,3.52,3.52,0,0,0,3.28,1.75,3.47,3.47,0,0,0,3.23-1.76,9.07,9.07,0,0,0,1-4.63v-.41a9.07,9.07,0,0,0-1-4.59,3.86,3.86,0,0,0-6.5,0,9.18,9.18,0,0,0-1,4.59Z"/><path d="M1283.7,41.33l-2.13.27L1277.16,59h-4.77l-3.93-12.58h-.11L1264.42,59h-4.74l-4.44-17.42-2.13-.27V37.89h9.57v3.44l-2.24.43,2,9.66h.12l3.94-13.53h3.83l4,13.57h.12l2-9.68-2.26-.45V37.89h9.57Z"/><path d="M1302.9,45.15h-3.83l-.61-2.63a5.09,5.09,0,0,0-1.47-.78,5.84,5.84,0,0,0-2-.32,3.83,3.83,0,0,0-2.39.68,2.05,2.05,0,0,0-.87,1.69,1.91,1.91,0,0,0,.84,1.59A9,9,0,0,0,1296,46.5a13.72,13.72,0,0,1,5.83,2.3,5.05,5.05,0,0,1,1.89,4.17,5.57,5.57,0,0,1-2.45,4.66,10.68,10.68,0,0,1-6.46,1.8,13.67,13.67,0,0,1-4.48-.71,11.59,11.59,0,0,1-3.62-2l-.06-4.75h4l.78,2.76a3.45,3.45,0,0,0,1.39.63,7.92,7.92,0,0,0,1.84.21,4.59,4.59,0,0,0,2.64-.63,2,2,0,0,0,.91-1.7,2,2,0,0,0-.92-1.62,9.19,9.19,0,0,0-3.37-1.21,13.53,13.53,0,0,1-5.64-2.26,4.88,4.88,0,0,1-1.9-4.07,5.92,5.92,0,0,1,2.18-4.58,9.16,9.16,0,0,1,6.23-1.92,16.1,16.1,0,0,1,4.66.66,9.74,9.74,0,0,1,3.45,1.7Z"/><path d="M1317.33,47.89a25.84,25.84,0,0,1-3.08,12.92q-3.09,5.44-6.88,7h-.12l-1-2.79a14.58,14.58,0,0,0,4.28-6.19,29,29,0,0,0,1.75-10.9v-.51a28.81,28.81,0,0,0-1.77-10.87,15.06,15.06,0,0,0-4.26-6.24l1-2.77h.12q3.8,1.56,6.88,7a25.85,25.85,0,0,1,3.08,12.91Z"/><g id="Scone_logo_black" data-name="Scone logo black"><g class="cls-9"><g class="cls-9"><path class="cls-10" d="M313.24,367.08h-2.57a1,1,0,0,0-1,1v2.62a1,1,0,0,0,1,1h2.57a1,1,0,0,0,1-1v-2.62a1,1,0,0,0-1-1m-8.94,4.59h2.57a1,1,0,0,0,1-1v-2.62a1,1,0,0,0-1-1H304.3a1,1,0,0,0-1,1v2.62a1,1,0,0,0,1,1m-2.76-1v-2.62a1,1,0,0,0-1-1H298a1,1,0,0,0-1,1v2.62a1,1,0,0,0,1,1h2.56a1,1,0,0,0,1-1m11.9,2.81a.75.75,0,0,0-.74.74v3.06a.74.74,0,0,0,1.48,0v-3.06a.7.7,0,0,0-.74-.74m-7.06,1v2.61a1,1,0,0,0,1,1h2.56a1,1,0,0,0,1-1v-2.61a1,1,0,0,0-1-1h-2.56a1,1,0,0,0-1,1m-1.83,2.61v-2.61a1,1,0,0,0-1-1H301a1,1,0,0,0-1,1v2.61a1,1,0,0,0,1,1h2.56a1,1,0,0,0,1-1m8.69,2.82h-2.57a1,1,0,0,0-1,1v2.62a1,1,0,0,0,1,1h2.57a1,1,0,0,0,1-1V380.9a1,1,0,0,0-1-1m-6.66,0H304a1,1,0,0,0-1,1v2.62a1,1,0,0,0,1,1h2.57a1,1,0,0,0,1-1V380.9a1,1,0,0,0-1-1"/><path class="cls-10" d="M316.35,366.05a5.89,5.89,0,0,0,4,1.23c.09,0,0,.1,0,.2v7.06c0,2.71-3.31,4.39-4.1,4.83-.1.05-.1-.05-.1-.05l.05-13.22c-.05,0,.05-.1.1-.05"/><path class="cls-10" d="M308.6,365.7c5.43-.2,6.32-2.07,6.32-2.07a.26.26,0,0,1,.24-.15c.1,0,.2,0,.25.1s.84,2,6.27,2c.15,0,.2.1.2.25v9.28c0,3-5.63,6.32-5.73,6.37s-.2.14-.2.19V384c0,.1.35.15.5.1,2.07-1.13,7.89-4.34,7.89-8.29V364c0-.19-.34-.34-.54-.34-6.91,0-8.19-2.52-8.19-2.52-.05-.15-.3-.1-.45-.1s-.24-.05-.29.05-1.14,2.62-8,2.62c-.25,0-.29.1-.29.29v1.48s-.05.35.19.35,1.83-.1,1.83-.1"/><path d="M329.48,380.85l2.76-1a3.79,3.79,0,0,0,3.6,2.07,4.07,4.07,0,0,0,2.13-.49,1.68,1.68,0,0,0,.88-1.48c0-1.48-2-2.37-3.5-3l-.1,0a13.23,13.23,0,0,1-3.21-1.78,4,4,0,0,1-1.58-3.26,4.35,4.35,0,0,1,1.63-3.4,6.33,6.33,0,0,1,4.1-1.39,5.91,5.91,0,0,1,5.43,3l-2.86,1.09a2.31,2.31,0,0,0-1-1,4.08,4.08,0,0,0-1.58-.34c-1.58,0-2.67.84-2.67,2a2.23,2.23,0,0,0,1.09,1.78,14.28,14.28,0,0,0,2.47,1.28l.34.15c2.13.89,4.74,2,4.74,4.89a4.11,4.11,0,0,1-1.87,3.5,7.58,7.58,0,0,1-4.5,1.29c-3-.05-5.38-1.44-6.31-3.76"/><path d="M354,384.56a9,9,0,0,1-3.41-.69,9,9,0,0,1-4.64-4.64,8.77,8.77,0,0,1,0-6.82,9,9,0,0,1,4.64-4.64,9,9,0,0,1,3.41-.69,8.51,8.51,0,0,1,4,.94,8.74,8.74,0,0,1,3,2.52l-2.32,1.73a5.89,5.89,0,0,0-2-1.68,6.1,6.1,0,0,0-2.66-.64,5.87,5.87,0,0,0-5.87,5.87,5.78,5.78,0,0,0,1.72,4.15,5.77,5.77,0,0,0,7.11.88,5.88,5.88,0,0,0,2.12-2.17l2.52,1.43a8.54,8.54,0,0,1-3.16,3.21,8,8,0,0,1-4.39,1.24"/><path d="M373.06,384.61a8.89,8.89,0,0,1-3.41-.7,8,8,0,0,1-2.76-1.87,8.66,8.66,0,0,1-2.57-6.17,8.16,8.16,0,0,1,.69-3.41,9,9,0,0,1,1.88-2.76,9.34,9.34,0,0,1,2.76-1.88,8.75,8.75,0,0,1,6.81,0,8.15,8.15,0,0,1,2.77,1.88,8.71,8.71,0,0,1,0,12.34,9,9,0,0,1-2.77,1.87,8.8,8.8,0,0,1-3.4.7m0-14.66a5.69,5.69,0,0,0-4.15,1.72,5.9,5.9,0,0,0-1.72,4.15,5.69,5.69,0,0,0,1.72,4.15,5.87,5.87,0,0,0,8.3,0,5.9,5.9,0,0,0,1.72-4.15,6,6,0,0,0-1.72-4.15,5.9,5.9,0,0,0-4.15-1.72"/><polygon points="401.64 367.23 401.64 385 389.4 373.75 389.4 384.31 386.29 384.31 386.29 366.59 398.53 377.89 398.53 367.23 401.64 367.23"/><polygon points="409.98 369.85 409.98 374.39 418.52 374.39 418.52 377.05 409.98 377.05 409.98 381.64 419.55 381.64 419.55 384.31 406.87 384.31 406.87 367.23 419.55 367.23 419.55 369.9 409.98 369.9 409.98 369.85"/></g></g></g><path class="cls-11" d="M1127.32,121a26.8,26.8,0,1,1-8,19.1,26.21,26.21,0,0,1,5.5-16.2"/><path class="cls-12" d="M1145.42,153.13h-9.7c-1.3,0-1.8-.5-1.8-1.8v-14.8c0-1.3.5-1.8,1.8-1.8H1155c1.3,0,1.8.5,1.8,1.8v14.8c0,1.3-.5,1.8-1.8,1.8C1151.82,153.23,1148.62,153.13,1145.42,153.13Z"/><path class="cls-12" d="M1135.52,135.43c.3-4.1,2-7.7,6-9.5a9.53,9.53,0,0,1,12.6,4.9c.2.5.4,1.1.6,1.6.2.9.3,1.8.5,2.7"/><path class="cls-13" d="M1143.82,146.83h0v2c0,.4.1.5.6.5h1.9c.5,0,.7-.1.7-.6V145a1.05,1.05,0,0,1,.5-.9,2.78,2.78,0,0,0,1.4-3.3,3.61,3.61,0,0,0-3.3-2.2,4,4,0,0,0-3.7,2,2.81,2.81,0,0,0,1.3,3.5,1,1,0,0,1,.6,1.1Z"/></svg>