<svg id="Ebene_1" data-name="Ebene 1" xmlns="http://www.w3.org/2000/svg" xmlns:xlink="http://www.w3.org/1999/xlink" viewBox="0 0 1782 674"><defs><style>.cls-1,.cls-11,.cls-14,.cls-6{fill:none;}.cls-2{fill:#306;}.cls-10,.cls-11,.cls-12,.cls-3,.cls-5,.cls-6{stroke:#fc0;}.cls-10,.cls-11,.cls-12,.cls-3,.cls-5{stroke-miterlimit:10;stroke-width:8px;}.cls-3{fill:url(#Unbenannter_Verlauf_5);}.cls-13,.cls-4{fill:#fff;}.cls-5{fill:url(#Unbenannter_Verlauf_5-2);}.cls-13,.cls-14,.cls-6{stroke-linecap:round;stroke-linejoin:round;stroke-width:6px;}.cls-7{fill:#fc0;}.cls-8{clip-path:url(#clip-path);}.cls-9{fill:#ffd138;}.cls-10{fill:url(#Unbenannter_Verlauf_5-3);}.cls-12{fill:url(#Unbenannter_Verlauf_5-4);}.cls-13,.cls-14{stroke:#ffcb03;}.cls-15{fill:#ffcb03;}.cls-16{clip-path:url(#clip-path-3);}.cls-17{fill:#fdfeff;}.cls-18{clip-path:url(#clip-path-5);}.cls-19,.cls-20{fill:#0f1689;}.cls-19{fill-rule:evenodd;}</style><linearGradient id="Unbenannter_Verlauf_5" x1="935.24" y1="114.5" x2="1298.59" y2="114.5" gradientUnits="userSpaceOnUse"><stop offset="0" stop-color="#906"/><stop offset="0.19" stop-color="#780066"/><stop offset="0.4" stop-color="#5a0066"/><stop offset="0.61" stop-color="#406"/><stop offset="0.81" stop-color="#370066"/><stop offset="1" stop-color="#306"/></linearGradient><linearGradient id="Unbenannter_Verlauf_5-2" x1="1381.66" x2="1745.02" xlink:href="#Unbenannter_Verlauf_5"/><clipPath id="clip-path"><rect class="cls-1" x="502" y="470" width="122.55" height="24"/></clipPath><linearGradient id="Unbenannter_Verlauf_5-3" x1="487.24" y1="337.5" x2="850.59" y2="337.5" xlink:href="#Unbenannter_Verlauf_5"/><linearGradient id="Unbenannter_Verlauf_5-4" x1="935.24" y1="337.5" x2="1298.59" y2="337.5" xlink:href="#Unbenannter_Verlauf_5"/><clipPath id="clip-path-3"><rect class="cls-1" x="1031" y="79" width="166.6" height="32.63"/></clipPath><clipPath id="clip-path-5"><rect class="cls-1" x="1433" y="116" width="166.6" height="32.63"/></clipPath></defs><path class="cls-2" d="M492.32,443.1l.67,1,.48,1.4.56-1.43.64-1,1.28.65-.7,1.08-1.22,1.2,1.81-.3h1.28v1.4h-1.23l-1.7-.3,1.22,1.2.62,1-1.26.7-.69-1.05-.61-1.52L493,448.6l-.67,1L491,449l.72-1.05,1.12-1-1.55.3h-1.33v-1.4h1.33l1.66.3-1.2-1.1-.7-1.15Z"/><path class="cls-2" d="M506.56,450.4a5,5,0,0,0-1.52-.25,2.65,2.65,0,0,0-1.81.59,2.48,2.48,0,0,0-.83,1.48V461h-2.13v-12.5h1.49l.4,1.53h.11a3.94,3.94,0,0,1,1.21-1.31,3.21,3.21,0,0,1,1.8-.47,7.29,7.29,0,0,1,1.74.25Z"/><path class="cls-2" d="M519.07,460a5.87,5.87,0,0,1-2,.95,9,9,0,0,1-2.57.35,6.9,6.9,0,0,1-2.65-.46,4.78,4.78,0,0,1-1.84-1.32,5.64,5.64,0,0,1-1.06-2.07,9.76,9.76,0,0,1-.35-2.7,7,7,0,0,1,1.52-4.87,5.56,5.56,0,0,1,4.35-1.68,9.27,9.27,0,0,1,1.81.19,4.2,4.2,0,0,1,1.63.71,3.78,3.78,0,0,1,1.17,1.49,5.89,5.89,0,0,1,.46,2.54,12.35,12.35,0,0,1-.16,1.82H510.8a7.25,7.25,0,0,0,.24,2,3.69,3.69,0,0,0,.75,1.43,3.3,3.3,0,0,0,1.32.9,5.55,5.55,0,0,0,2,.31,5.72,5.72,0,0,0,1.81-.3,3.81,3.81,0,0,0,1.36-.7Zm-4.58-10.05a3.88,3.88,0,0,0-2.53.78,3.79,3.79,0,0,0-1.13,2.65h6.62a3.64,3.64,0,0,0-.78-2.66A3,3,0,0,0,514.49,449.92Z"/><path class="cls-2" d="M532.81,466h-2.13v-6.25h-.11a3.6,3.6,0,0,1-1.35,1.16,5,5,0,0,1-2.14.39,4.76,4.76,0,0,1-4-1.58,7.74,7.74,0,0,1-1.28-4.92,5.8,5.8,0,0,1,6.48-6.52,13.11,13.11,0,0,1,2.65.25,9.06,9.06,0,0,1,1.83.52Zm-5.36-6.45a3.21,3.21,0,0,0,2.13-.64,3.69,3.69,0,0,0,1.1-2v-6.41A6.52,6.52,0,0,0,528,450a3.64,3.64,0,0,0-2.87,1.16,5.29,5.29,0,0,0-1,3.59,9.05,9.05,0,0,0,.19,1.94,4.58,4.58,0,0,0,.58,1.51,2.79,2.79,0,0,0,1,1A3.14,3.14,0,0,0,527.45,459.52Z"/><path class="cls-2" d="M538.84,448.47v7.13a10.73,10.73,0,0,0,.12,1.71,3.63,3.63,0,0,0,.41,1.23,1.88,1.88,0,0,0,.8.73,2.86,2.86,0,0,0,1.28.25,3.62,3.62,0,0,0,1.28-.21,3.22,3.22,0,0,0,1-.59,4.27,4.27,0,0,0,.78-.86,4.88,4.88,0,0,0,.54-1v-8.35h2.14v8.95c0,.6,0,1.23.06,1.87a11.77,11.77,0,0,0,.23,1.68H546l-.53-2h-.13a5,5,0,0,1-1.66,1.62,4.83,4.83,0,0,1-2.64.65,6.67,6.67,0,0,1-1.88-.23,3,3,0,0,1-1.36-.84,4,4,0,0,1-.83-1.61,10.17,10.17,0,0,1-.28-2.57v-7.55Z"/><path class="cls-2" d="M551.29,444.67a1.32,1.32,0,0,1,.42-1,1.39,1.39,0,0,1,1-.42,1.58,1.58,0,0,1,1.1.42,1.28,1.28,0,0,1,.45,1,1.16,1.16,0,0,1-.45.95,1.64,1.64,0,0,1-1.1.38,1.44,1.44,0,0,1-1-.38A1.19,1.19,0,0,1,551.29,444.67Zm.46,3.8h2.13V461h-2.13Z"/><path class="cls-2" d="M564.74,450.4a5,5,0,0,0-1.52-.25,2.67,2.67,0,0,0-1.82.59,2.47,2.47,0,0,0-.82,1.48V461h-2.14v-12.5h1.5l.4,1.53h.1a4,4,0,0,1,1.22-1.31,3.21,3.21,0,0,1,1.8-.47,7.28,7.28,0,0,1,1.73.25Z"/><path class="cls-2" d="M577.25,460a6,6,0,0,1-2,.95,9,9,0,0,1-2.57.35,6.88,6.88,0,0,1-2.64-.46,4.7,4.7,0,0,1-1.84-1.32,5.66,5.66,0,0,1-1.07-2.07,9.78,9.78,0,0,1-.34-2.7,7,7,0,0,1,1.52-4.87,5.55,5.55,0,0,1,4.34-1.68,9.37,9.37,0,0,1,1.82.19,4.22,4.22,0,0,1,1.62.71,3.8,3.8,0,0,1,1.18,1.49,6.05,6.05,0,0,1,.45,2.54,11.13,11.13,0,0,1-.16,1.82H569a7.25,7.25,0,0,0,.24,2,3.69,3.69,0,0,0,.75,1.43,3.17,3.17,0,0,0,1.32.9,5.49,5.49,0,0,0,2,.31,5.78,5.78,0,0,0,1.82-.3,3.9,3.9,0,0,0,1.36-.7Zm-4.59-10.05a3.83,3.83,0,0,0-2.52.78,3.75,3.75,0,0,0-1.13,2.65h6.61a3.69,3.69,0,0,0-.77-2.66A3,3,0,0,0,572.66,449.92Z"/><path class="cls-2" d="M586.93,457.57a1.47,1.47,0,0,0-.48-1.17,4.17,4.17,0,0,0-1.19-.71c-.47-.19-1-.38-1.54-.55a7.5,7.5,0,0,1-1.55-.68A3.9,3.9,0,0,1,581,453.4a2.88,2.88,0,0,1-.48-1.75,3.12,3.12,0,0,1,1.1-2.64,4.86,4.86,0,0,1,3-.84,10.25,10.25,0,0,1,2.41.24,10.45,10.45,0,0,1,1.69.56l-.5,1.65a9.21,9.21,0,0,0-1.48-.48,7.9,7.9,0,0,0-1.86-.22,3.11,3.11,0,0,0-1.72.38,1.47,1.47,0,0,0-.54,1.3,1.19,1.19,0,0,0,.48,1,5.21,5.21,0,0,0,1.18.65c.47.19,1,.38,1.55.56a7.12,7.12,0,0,1,1.55.73,4.13,4.13,0,0,1,1.18,1.14,3.1,3.1,0,0,1,.48,1.81,4,4,0,0,1-.28,1.5,2.93,2.93,0,0,1-.86,1.2,4.33,4.33,0,0,1-1.46.79,6.49,6.49,0,0,1-2,.28,10.64,10.64,0,0,1-2.58-.27,8.16,8.16,0,0,1-1.79-.65l.64-1.7a7.72,7.72,0,0,0,1.6.6,7.53,7.53,0,0,0,2,.27,3.8,3.8,0,0,0,1.89-.42A1.6,1.6,0,0,0,586.93,457.57Z"/><path class="cls-2" d="M599.2,449.4a8,8,0,0,1,2.36-.85,14.34,14.34,0,0,1,2.82-.28,5.93,5.93,0,0,1,2.22.35,3.09,3.09,0,0,1,1.28.92,2.93,2.93,0,0,1,.59,1.23,6.21,6.21,0,0,1,.15,1.35c0,1,0,2-.08,2.93s-.08,1.85-.08,2.7a16.2,16.2,0,0,0,.08,1.75,7.59,7.59,0,0,0,.29,1.52h-1.57l-.56-1.75h-.14a3.8,3.8,0,0,1-.6.69,3.66,3.66,0,0,1-.86.6,5.59,5.59,0,0,1-1.18.44,5.84,5.84,0,0,1-1.52.17,4.82,4.82,0,0,1-1.59-.25,3.53,3.53,0,0,1-1.26-.71,3.27,3.27,0,0,1-.84-1.11,3.35,3.35,0,0,1-.31-1.48,3.28,3.28,0,0,1,.48-1.83,3.39,3.39,0,0,1,1.35-1.18,6.89,6.89,0,0,1,2.08-.62,17,17,0,0,1,2.68-.19h.73a6.27,6.27,0,0,1,.74.05c0-.5.08-1,.08-1.35a2.59,2.59,0,0,0-.59-1.93,3.18,3.18,0,0,0-2.14-.55,8.68,8.68,0,0,0-1,.07c-.35,0-.7.1-1.07.18a10.52,10.52,0,0,0-1,.28,5.84,5.84,0,0,0-.86.37Zm3.79,10a4.51,4.51,0,0,0,1.33-.18,4.38,4.38,0,0,0,1-.48,2.89,2.89,0,0,0,.7-.64,2.63,2.63,0,0,0,.42-.67v-2.07l-.76,0-.76,0a14.26,14.26,0,0,0-1.62.09,5.45,5.45,0,0,0-1.39.33,2.4,2.4,0,0,0-1,.65,1.5,1.5,0,0,0-.36,1,1.8,1.8,0,0,0,.67,1.44A2.54,2.54,0,0,0,603,459.42Z"/><path class="cls-2" d="M621.74,460.15a5.94,5.94,0,0,1-1.89.84,9.12,9.12,0,0,1-2.3.28,6.52,6.52,0,0,1-2.61-.46,4.47,4.47,0,0,1-1.75-1.32,5.66,5.66,0,0,1-1-2.08,11.19,11.19,0,0,1-.3-2.69,7.1,7.1,0,0,1,1.49-4.86,5.46,5.46,0,0,1,4.3-1.69,11.14,11.14,0,0,1,2.17.19,7.42,7.42,0,0,1,1.61.54l-.61,1.72a6.62,6.62,0,0,0-1.36-.51,6.81,6.81,0,0,0-1.6-.19q-3.79,0-3.79,4.8a8.25,8.25,0,0,0,.2,1.82,4.27,4.27,0,0,0,.67,1.52,3.39,3.39,0,0,0,1.22,1.06,4,4,0,0,0,1.88.4,5.15,5.15,0,0,0,1.73-.27,4.78,4.78,0,0,0,1.24-.63Z"/><path class="cls-2" d="M633.16,460.15a6,6,0,0,1-1.9.84,9,9,0,0,1-2.29.28,6.61,6.61,0,0,1-2.62-.46,4.43,4.43,0,0,1-1.74-1.32,5.36,5.36,0,0,1-1-2.08,11.17,11.17,0,0,1-.31-2.69,7.1,7.1,0,0,1,1.5-4.86,5.43,5.43,0,0,1,4.29-1.69,11.18,11.18,0,0,1,2.18.19,7.42,7.42,0,0,1,1.61.54l-.61,1.72a6.38,6.38,0,0,0-3-.7q-3.78,0-3.78,4.8a7.69,7.69,0,0,0,.2,1.82,4.26,4.26,0,0,0,.66,1.52,3.42,3.42,0,0,0,1.23,1.06,4,4,0,0,0,1.88.4,5.09,5.09,0,0,0,1.72-.27,4.62,4.62,0,0,0,1.24-.63Z"/><path class="cls-2" d="M645.21,460a5.87,5.87,0,0,1-2,.95,9,9,0,0,1-2.58.35,6.88,6.88,0,0,1-2.64-.46,4.78,4.78,0,0,1-1.84-1.32,5.64,5.64,0,0,1-1.06-2.07,9.76,9.76,0,0,1-.35-2.7,7,7,0,0,1,1.52-4.87,5.56,5.56,0,0,1,4.35-1.68,9.27,9.27,0,0,1,1.81.19,4.2,4.2,0,0,1,1.63.71,3.78,3.78,0,0,1,1.17,1.49,6,6,0,0,1,.46,2.54,12.35,12.35,0,0,1-.16,1.82h-8.57a7.25,7.25,0,0,0,.24,2,3.69,3.69,0,0,0,.75,1.43,3.3,3.3,0,0,0,1.32.9,5.55,5.55,0,0,0,2,.31,5.72,5.72,0,0,0,1.81-.3,3.81,3.81,0,0,0,1.36-.7Zm-4.59-10.05a3.85,3.85,0,0,0-2.52.78,3.75,3.75,0,0,0-1.13,2.65h6.62a3.64,3.64,0,0,0-.78-2.66A3,3,0,0,0,640.62,449.92Z"/><path class="cls-2" d="M654.9,457.57a1.47,1.47,0,0,0-.48-1.17,4.17,4.17,0,0,0-1.19-.71c-.47-.19-1-.38-1.55-.55a7.5,7.5,0,0,1-1.55-.68A3.87,3.87,0,0,1,649,453.4a2.88,2.88,0,0,1-.48-1.75,3.11,3.11,0,0,1,1.09-2.64,4.88,4.88,0,0,1,3-.84,10.34,10.34,0,0,1,2.42.24,10.79,10.79,0,0,1,1.69.56l-.51,1.65a8.89,8.89,0,0,0-1.48-.48,7.82,7.82,0,0,0-1.85-.22,3.08,3.08,0,0,0-1.72.38,1.45,1.45,0,0,0-.55,1.3,1.19,1.19,0,0,0,.48,1,5.3,5.3,0,0,0,1.19.65c.47.19,1,.38,1.54.56a6.91,6.91,0,0,1,1.55.73,4.17,4.17,0,0,1,1.19,1.14,3.1,3.1,0,0,1,.48,1.81,4,4,0,0,1-.28,1.5,3,3,0,0,1-.87,1.2,4.28,4.28,0,0,1-1.45.79,6.58,6.58,0,0,1-2,.28,10.67,10.67,0,0,1-2.59-.27,8.36,8.36,0,0,1-1.79-.65l.64-1.7a8,8,0,0,0,1.6.6,7.59,7.59,0,0,0,2,.27,3.84,3.84,0,0,0,1.9-.42A1.6,1.6,0,0,0,654.9,457.57Z"/><path class="cls-2" d="M666.12,457.57a1.47,1.47,0,0,0-.48-1.17,4.11,4.11,0,0,0-1.18-.71c-.47-.19-1-.38-1.55-.55a7.5,7.5,0,0,1-1.55-.68,3.87,3.87,0,0,1-1.18-1.06,2.88,2.88,0,0,1-.48-1.75,3.11,3.11,0,0,1,1.09-2.64,4.88,4.88,0,0,1,3-.84,10.19,10.19,0,0,1,2.41.24,10.59,10.59,0,0,1,1.7.56l-.51,1.65a8.89,8.89,0,0,0-1.48-.48,7.82,7.82,0,0,0-1.85-.22,3.06,3.06,0,0,0-1.72.38,1.45,1.45,0,0,0-.55,1.3,1.19,1.19,0,0,0,.48,1,5.3,5.3,0,0,0,1.19.65c.47.19,1,.38,1.54.56a7.12,7.12,0,0,1,1.55.73,4.17,4.17,0,0,1,1.19,1.14,3.1,3.1,0,0,1,.48,1.81A4,4,0,0,1,668,459a3,3,0,0,1-.87,1.2,4.28,4.28,0,0,1-1.45.79,6.58,6.58,0,0,1-2,.28A10.67,10.67,0,0,1,661,461a8.36,8.36,0,0,1-1.79-.65l.64-1.7a8,8,0,0,0,1.6.6,7.59,7.59,0,0,0,2,.27,3.84,3.84,0,0,0,1.9-.42A1.59,1.59,0,0,0,666.12,457.57Z"/><path class="cls-2" d="M676.85,448.47h2.08V446l2.13-.58v3.05h3.63v1.75h-3.63v6.93a3.58,3.58,0,0,0,.35,1.84,1.27,1.27,0,0,0,1.17.53,4.47,4.47,0,0,0,1.18-.13c.32-.09.67-.22,1.06-.37l.48,1.53a8,8,0,0,1-1.57.52,7.69,7.69,0,0,1-1.84.2,2.69,2.69,0,0,1-2.29-.86,4.74,4.74,0,0,1-.67-2.89v-7.3h-2.08Z"/><path class="cls-2" d="M686.61,454.72a7.06,7.06,0,0,1,1.51-4.86,5.52,5.52,0,0,1,4.33-1.69,6.67,6.67,0,0,1,2.6.47,4.74,4.74,0,0,1,1.83,1.32A5.78,5.78,0,0,1,698,452a9.78,9.78,0,0,1,.34,2.68,7.11,7.11,0,0,1-1.5,4.87,5.53,5.53,0,0,1-4.34,1.68,6.71,6.71,0,0,1-2.6-.46,4.74,4.74,0,0,1-1.83-1.32,5.61,5.61,0,0,1-1.06-2.08A9.79,9.79,0,0,1,686.61,454.72Zm2.21,0a8.34,8.34,0,0,0,.2,1.83,4.86,4.86,0,0,0,.63,1.52,3.14,3.14,0,0,0,1.12,1.05,3.27,3.27,0,0,0,1.68.4q3.63,0,3.63-4.8a8.37,8.37,0,0,0-.2-1.84,4.4,4.4,0,0,0-.63-1.53,3.2,3.2,0,0,0-1.12-1,3.37,3.37,0,0,0-1.68-.39Q688.82,449.91,688.82,454.72Z"/><path class="cls-2" d="M641.17,477.67a1.32,1.32,0,0,1,.42-1,1.39,1.39,0,0,1,1-.42,1.53,1.53,0,0,1,1.09.42,1.25,1.25,0,0,1,.46,1,1.14,1.14,0,0,1-.46.95,1.59,1.59,0,0,1-1.09.38,1.44,1.44,0,0,1-1-.38A1.19,1.19,0,0,1,641.17,477.67Zm.46,3.8h2.13V494h-2.13Z"/><path class="cls-2" d="M656.14,494V486.9a14.35,14.35,0,0,0-.1-1.74,3.55,3.55,0,0,0-.36-1.24,1.77,1.77,0,0,0-.76-.75,3,3,0,0,0-1.29-.25,3,3,0,0,0-2,.7,3.66,3.66,0,0,0-1.13,1.76V494h-2.14v-12.5h1.49l.4,1.53h.11a6.25,6.25,0,0,1,1.67-1.31,5.18,5.18,0,0,1,2.47-.52,4.17,4.17,0,0,1,2.09.47,3.08,3.08,0,0,1,1.27,1.61,4.25,4.25,0,0,1,1.69-1.53,5.38,5.38,0,0,1,2.44-.55,6.51,6.51,0,0,1,1.9.24,2.71,2.71,0,0,1,1.28.84,3.79,3.79,0,0,1,.73,1.63,12.28,12.28,0,0,1,.23,2.59V494H664v-7.52a11.72,11.72,0,0,0-.09-1.56,2.65,2.65,0,0,0-.38-1.1,1.64,1.64,0,0,0-.77-.65,3.33,3.33,0,0,0-1.29-.22,2.94,2.94,0,0,0-2.08.7,4,4,0,0,0-1.07,2V494Z"/><path class="cls-2" d="M669.77,482.4a7.92,7.92,0,0,1,2.36-.85,14.17,14.17,0,0,1,2.81-.28,6,6,0,0,1,2.23.35,3.09,3.09,0,0,1,1.28.92,3.05,3.05,0,0,1,.59,1.23,6.88,6.88,0,0,1,.14,1.35c0,1,0,2-.08,2.93s-.08,1.85-.08,2.7c0,.62,0,1.2.08,1.75a7.58,7.58,0,0,0,.3,1.52h-1.58l-.56-1.75h-.13a3.8,3.8,0,0,1-.6.69,3.52,3.52,0,0,1-.87.6,5.71,5.71,0,0,1-1.17.44,5.89,5.89,0,0,1-1.52.17,4.82,4.82,0,0,1-1.59-.25,3.67,3.67,0,0,1-1.27-.71,3.54,3.54,0,0,1-.84-1.11,3.49,3.49,0,0,1-.3-1.48,3.28,3.28,0,0,1,.48-1.83,3.43,3.43,0,0,1,1.34-1.18,6.89,6.89,0,0,1,2.08-.62,17.11,17.11,0,0,1,2.69-.19h.73a6.11,6.11,0,0,1,.73.05,11.27,11.27,0,0,0,.08-1.35,2.59,2.59,0,0,0-.58-1.93,3.22,3.22,0,0,0-2.14-.55,8.51,8.51,0,0,0-1,.07c-.35,0-.7.1-1.07.18a10.52,10.52,0,0,0-1,.28,6,6,0,0,0-.87.37Zm3.78,10a4.57,4.57,0,0,0,1.34-.18,4.12,4.12,0,0,0,1-.48,2.94,2.94,0,0,0,.71-.64,2.57,2.57,0,0,0,.41-.67v-2.07l-.76,0-.76,0a14.08,14.08,0,0,0-1.61.09,5.35,5.35,0,0,0-1.39.33,2.4,2.4,0,0,0-1,.65,1.5,1.5,0,0,0-.36,1,1.77,1.77,0,0,0,.67,1.44A2.51,2.51,0,0,0,673.55,492.42Z"/><path class="cls-2" d="M693.43,494.55a4.37,4.37,0,0,1-1.38,3.57,6.17,6.17,0,0,1-4.07,1.15,14.74,14.74,0,0,1-2.57-.18,8.55,8.55,0,0,1-1.67-.49l.56-1.7c.41.15.87.29,1.36.42a7.48,7.48,0,0,0,2,.2,7.61,7.61,0,0,0,1.83-.18,2.44,2.44,0,0,0,1.13-.63,2.33,2.33,0,0,0,.59-1.12,7.17,7.17,0,0,0,.16-1.64v-1.2h-.11a3.52,3.52,0,0,1-1.36,1.11,5.09,5.09,0,0,1-2.16.39,4.78,4.78,0,0,1-4-1.58,7.79,7.79,0,0,1-1.27-4.9,6.7,6.7,0,0,1,1.63-4.86,6.42,6.42,0,0,1,4.8-1.66,12.93,12.93,0,0,1,2.6.22,15.34,15.34,0,0,1,1.94.53Zm-5.37-2.05a3.25,3.25,0,0,0,2.14-.64,3.54,3.54,0,0,0,1.09-2v-6.41a6.84,6.84,0,0,0-2.72-.47,3.63,3.63,0,0,0-2.85,1.15,5.23,5.23,0,0,0-1,3.6,9.49,9.49,0,0,0,.18,1.92,4.44,4.44,0,0,0,.59,1.5,2.79,2.79,0,0,0,1,1A3.28,3.28,0,0,0,688.06,492.5Z"/><path class="cls-2" d="M707.27,493a6,6,0,0,1-2,.95,9,9,0,0,1-2.58.35,6.88,6.88,0,0,1-2.64-.46,4.7,4.7,0,0,1-1.84-1.32,5.66,5.66,0,0,1-1.07-2.07,9.78,9.78,0,0,1-.34-2.7,7,7,0,0,1,1.52-4.87,5.55,5.55,0,0,1,4.34-1.68,9.37,9.37,0,0,1,1.82.19,4.27,4.27,0,0,1,1.63.71,3.78,3.78,0,0,1,1.17,1.49,6.05,6.05,0,0,1,.45,2.54,11.13,11.13,0,0,1-.16,1.82H699a7.25,7.25,0,0,0,.24,2,3.69,3.69,0,0,0,.75,1.43,3.23,3.23,0,0,0,1.32.9,5.49,5.49,0,0,0,2,.31,5.78,5.78,0,0,0,1.82-.3,3.9,3.9,0,0,0,1.36-.7Zm-4.59-10.05a3.83,3.83,0,0,0-2.52.78,3.75,3.75,0,0,0-1.13,2.65h6.61a3.69,3.69,0,0,0-.77-2.66A3,3,0,0,0,702.68,482.92Z"/><path class="cls-2" d="M717,490.57a1.47,1.47,0,0,0-.48-1.17,4,4,0,0,0-1.19-.71c-.47-.19-1-.38-1.54-.55a7.5,7.5,0,0,1-1.55-.68A3.9,3.9,0,0,1,711,486.4a2.88,2.88,0,0,1-.48-1.75,3.12,3.12,0,0,1,1.1-2.64,4.88,4.88,0,0,1,3-.84,10.25,10.25,0,0,1,2.41.24,10.59,10.59,0,0,1,1.7.56l-.51,1.65a8.89,8.89,0,0,0-1.48-.48,7.9,7.9,0,0,0-1.86-.22,3.11,3.11,0,0,0-1.72.38,1.47,1.47,0,0,0-.54,1.3,1.19,1.19,0,0,0,.48,1,5.21,5.21,0,0,0,1.18.65c.48.19,1,.38,1.55.56a7.12,7.12,0,0,1,1.55.73,4.17,4.17,0,0,1,1.19,1.14,3.1,3.1,0,0,1,.48,1.81,4.16,4.16,0,0,1-.28,1.5,3,3,0,0,1-.87,1.2,4.33,4.33,0,0,1-1.46.79,6.49,6.49,0,0,1-2,.28,10.64,10.64,0,0,1-2.58-.27,8.36,8.36,0,0,1-1.79-.65l.64-1.7a7.72,7.72,0,0,0,1.6.6,7.59,7.59,0,0,0,2,.27,3.84,3.84,0,0,0,1.9-.42A1.61,1.61,0,0,0,717,490.57Z"/><rect class="cls-3" x="935.24" y="40" width="363.36" height="149" rx="8"/><path class="cls-4" d="M1071.79,139.26v-2.53h6.5l.21,1.81a5.18,5.18,0,0,1,1.76-1.55,5,5,0,0,1,2.39-.55,5.61,5.61,0,0,1,4.78,2.26,9.55,9.55,0,0,1,1.7,5.93v.3a8.47,8.47,0,0,1-1.7,5.54,5.76,5.76,0,0,1-4.75,2.1,5.63,5.63,0,0,1-2.31-.45,4.76,4.76,0,0,1-1.73-1.33v4.49l2.16.43v2.53H1072v-2.53l2.16-.43V139.69Zm12.87,5.37a7.11,7.11,0,0,0-.78-3.56,2.58,2.58,0,0,0-2.39-1.37,3.5,3.5,0,0,0-1.72.39,2.87,2.87,0,0,0-1.13,1.11V148a2.7,2.7,0,0,0,1.13,1,4,4,0,0,0,1.75.34,2.6,2.6,0,0,0,2.38-1.19,5.92,5.92,0,0,0,.76-3.23Z"/><path class="cls-4" d="M1091.13,144.36a8,8,0,0,1,2.07-5.7,8.57,8.57,0,0,1,11.5,0,8,8,0,0,1,2.07,5.71v.3a8,8,0,0,1-2.07,5.71,8.61,8.61,0,0,1-11.5,0,8,8,0,0,1-2.07-5.71Zm4.47.3a6.45,6.45,0,0,0,.8,3.41,2.81,2.81,0,0,0,2.57,1.28,2.77,2.77,0,0,0,2.54-1.29,6.43,6.43,0,0,0,.8-3.4v-.3a6.34,6.34,0,0,0-.81-3.38,2.79,2.79,0,0,0-2.56-1.31,2.76,2.76,0,0,0-2.54,1.31,6.43,6.43,0,0,0-.8,3.38Z"/><path class="cls-4" d="M1107.94,132.39v-2.52h6.86v19.45l2.16.43v2.52h-8.79v-2.52l2.16-.43v-16.5Z"/><path class="cls-4" d="M1118.28,149.75l2.16-.43v-9.63l-2.39-.43v-2.53h6.86v12.59l2.15.43v2.52h-8.78Zm6.63-16.74h-4.47v-3.14h4.47Z"/><path class="cls-4" d="M1136.31,149.35a2.73,2.73,0,0,0,1.92-.65A2.25,2.25,0,0,0,1139,147h4l0,.08a4.73,4.73,0,0,1-1.88,3.94,7.43,7.43,0,0,1-4.85,1.59,7.33,7.33,0,0,1-5.71-2.2,8,8,0,0,1-2-5.64v-.43a8,8,0,0,1,2.06-5.65,7.66,7.66,0,0,1,5.88-2.21,10.88,10.88,0,0,1,3.6.56,7.34,7.34,0,0,1,2.65,1.58l.06,4.15h-3.63l-.74-2.42a2.7,2.7,0,0,0-.82-.46,3.25,3.25,0,0,0-1.12-.18,2.86,2.86,0,0,0-2.68,1.3,6.36,6.36,0,0,0-.79,3.33v.43a6.63,6.63,0,0,0,.73,3.35A2.64,2.64,0,0,0,1136.31,149.35Z"/><path class="cls-4" d="M1162.22,139.26l-1.54.21-6.1,15.12a8.27,8.27,0,0,1-1.93,2.82,5.09,5.09,0,0,1-3.62,1.13,5.93,5.93,0,0,1-1.06-.08c-.34-.06-.73-.14-1.18-.25l.52-3.05.45.05.4,0a2.55,2.55,0,0,0,1.71-.51,3.28,3.28,0,0,0,.92-1.27l.51-1.18L1146,139.49l-1.54-.23v-2.53h8.12v2.53l-1.86.28,2.27,6.21.23,1.12h.09l2.62-7.34-1.87-.28v-2.53h8.12Z"/><rect class="cls-5" x="1381.66" y="40" width="363.36" height="149" rx="8"/><path class="cls-4" d="M1512.52,94V91.44h6.5l.21,1.81a5.32,5.32,0,0,1,1.76-1.56,5.07,5.07,0,0,1,2.39-.54,5.63,5.63,0,0,1,4.78,2.25,9.57,9.57,0,0,1,1.7,5.93v.31a8.5,8.5,0,0,1-1.7,5.54,5.76,5.76,0,0,1-4.75,2.1,5.6,5.6,0,0,1-2.31-.46,4.74,4.74,0,0,1-1.73-1.32V110l2.16.43V113h-8.78v-2.53l2.16-.43V94.39Zm12.87,5.37a7.14,7.14,0,0,0-.78-3.56,2.57,2.57,0,0,0-2.39-1.36,3.57,3.57,0,0,0-1.73.39,2.76,2.76,0,0,0-1.12,1.1v6.81a2.65,2.65,0,0,0,1.12,1,4,4,0,0,0,1.76.35,2.62,2.62,0,0,0,2.38-1.19,5.94,5.94,0,0,0,.76-3.23Z"/><path class="cls-4" d="M1543.46,105a5.67,5.67,0,0,1-2,1.68,5.94,5.94,0,0,1-2.68.59,5.37,5.37,0,0,1-4.1-1.58c-1-1-1.49-2.67-1.49-4.89V94.39L1531.4,94V91.44h6.29v9.4a3.91,3.91,0,0,0,.61,2.44,2.19,2.19,0,0,0,1.8.74,4.67,4.67,0,0,0,1.83-.33,3.14,3.14,0,0,0,1.27-.92V94.39l-2-.43V91.44h6.44V104l2,.43V107h-5.93Z"/><path class="cls-4" d="M1565,96.78h-3l-.47-1.94a4.19,4.19,0,0,0-1.16-.58,4.94,4.94,0,0,0-1.54-.22,3.16,3.16,0,0,0-1.87.49,1.49,1.49,0,0,0-.69,1.24,1.39,1.39,0,0,0,.66,1.17,7.41,7.41,0,0,0,2.64.83,11.07,11.07,0,0,1,4.57,1.69,3.61,3.61,0,0,1,1.48,3.06,4,4,0,0,1-1.92,3.43,8.79,8.79,0,0,1-5.07,1.33,11.19,11.19,0,0,1-3.51-.53,9.07,9.07,0,0,1-2.84-1.5l0-3.49h3.12l.62,2a2.62,2.62,0,0,0,1.09.46,6.76,6.76,0,0,0,1.44.15,3.78,3.78,0,0,0,2.07-.46,1.4,1.4,0,0,0,.72-1.24,1.48,1.48,0,0,0-.72-1.2,7.94,7.94,0,0,0-2.66-.89,10.89,10.89,0,0,1-4.42-1.66,3.52,3.52,0,0,1-1.49-3,4.25,4.25,0,0,1,1.72-3.37,7.49,7.49,0,0,1,4.88-1.41,13.21,13.21,0,0,1,3.66.49,7.72,7.72,0,0,1,2.7,1.25Z"/><path class="cls-4" d="M1567.34,104.46l2.16-.43V87.53l-2.39-.43V84.57H1574v8.85a5.51,5.51,0,0,1,1.92-1.68,5.37,5.37,0,0,1,2.51-.59,5.26,5.26,0,0,1,4.08,1.61,7.19,7.19,0,0,1,1.48,5V104l2.15.43V107h-8.55v-2.51l1.93-.43v-6.3a3.86,3.86,0,0,0-.68-2.57,2.61,2.61,0,0,0-2-.75,4,4,0,0,0-1.64.31,3.34,3.34,0,0,0-1.17.9V104l1.93.43V107h-8.55Z"/><path class="cls-4" d="M1601.83,87.63v3.81h2.92v2.94h-2.92v7.91a1.74,1.74,0,0,0,.4,1.29,1.49,1.49,0,0,0,1.08.39c.3,0,.57,0,.8,0l.77-.12.39,3a11.68,11.68,0,0,1-1.49.32,11.24,11.24,0,0,1-1.59.11,4.32,4.32,0,0,1-4.81-5V94.38h-2.44V91.44h2.44V87.63Z"/><path class="cls-4" d="M1606.48,99.06a8,8,0,0,1,2.07-5.69,8.57,8.57,0,0,1,11.5,0,8,8,0,0,1,2.07,5.7v.3a8,8,0,0,1-2.07,5.71,8.59,8.59,0,0,1-11.5,0,8,8,0,0,1-2.07-5.71Zm4.47.3a6.4,6.4,0,0,0,.8,3.41,3.18,3.18,0,0,0,5.11,0,6.45,6.45,0,0,0,.8-3.41v-.3a6.3,6.3,0,0,0-.81-3.37,2.79,2.79,0,0,0-2.56-1.31,2.76,2.76,0,0,0-2.54,1.31,6.39,6.39,0,0,0-.8,3.37Z"/><path class="cls-4" d="M1634.84,137.12h-3.32l-.46-2.79a4.84,4.84,0,0,0-1.66-1A7,7,0,0,0,1627,133a5.38,5.38,0,0,0-4.48,2,8,8,0,0,0-1.57,5.17v.73a8.17,8.17,0,0,0,1.56,5.18,5.28,5.28,0,0,0,4.41,2,7.77,7.77,0,0,0,2.42-.36,4,4,0,0,0,1.69-1l.46-2.78h3.32v4.13a9.53,9.53,0,0,1-3.44,2.34,12,12,0,0,1-4.68.87,9.88,9.88,0,0,1-7.35-2.92,10.23,10.23,0,0,1-2.87-7.48v-.71a10.3,10.3,0,0,1,2.85-7.48,9.84,9.84,0,0,1,7.37-2.93,11.78,11.78,0,0,1,4.67.89,10,10,0,0,1,3.45,2.33Z"/><path class="cls-4" d="M1636.67,148.46l1.59-.21,6.79-18.19h4.58l6.74,18.19,1.59.21V151h-7.6v-2.51l1.55-.26-1-2.87h-7.23l-1,2.87,1.55.26V151h-7.6Zm8.09-6.22h5.11l-2.51-7.36h-.09Z"/><path class="cls-4" d="M1676.38,136.74H1673l-.59-2.87a6,6,0,0,0-1.7-.6,10,10,0,0,0-2.37-.26,4.81,4.81,0,0,0-2.84.72,2.23,2.23,0,0,0-1,1.88,2,2,0,0,0,1,1.74,14.88,14.88,0,0,0,3.63,1.45,14.63,14.63,0,0,1,5.6,2.54,5.13,5.13,0,0,1,1.9,4.15,4.88,4.88,0,0,1-2.26,4.24,10.47,10.47,0,0,1-6,1.55,13.91,13.91,0,0,1-4.79-.79,10,10,0,0,1-3.56-2.19v-4.36h3.46l.48,3a5.57,5.57,0,0,0,1.83.85,9,9,0,0,0,2.58.34,4.68,4.68,0,0,0,2.8-.7,2.24,2.24,0,0,0,1-1.88,2.35,2.35,0,0,0-.91-1.94,9.36,9.36,0,0,0-3.19-1.38,18.72,18.72,0,0,1-6-2.56,4.72,4.72,0,0,1-2-4,4.88,4.88,0,0,1,2.3-4.15,10,10,0,0,1,5.78-1.66,14.24,14.24,0,0,1,4.69.73,11.07,11.07,0,0,1,3.55,2Z"/><line class="cls-6" x1="1316.53" y1="121.62" x2="1360.73" y2="121.62"/><polygon class="cls-7" points="1346.81 138.8 1343.95 135.72 1359.12 121.63 1343.95 107.53 1346.81 104.45 1365.28 121.63 1346.81 138.8"/><g id="Scone_logo_black" data-name="Scone logo black"><g class="cls-8"><g class="cls-8"><path class="cls-9" d="M518.24,476.08h-2.57a1,1,0,0,0-1,1v2.62a1,1,0,0,0,1,1h2.57a1,1,0,0,0,1-1v-2.62a1,1,0,0,0-1-1m-8.94,4.59h2.57a1,1,0,0,0,1-1v-2.62a1,1,0,0,0-1-1H509.3a1,1,0,0,0-1,1v2.62a1,1,0,0,0,1,1m-2.76-1v-2.62a1,1,0,0,0-1-1H503a1,1,0,0,0-1,1v2.62a1,1,0,0,0,1,1h2.56a1,1,0,0,0,1-1m11.9,2.81a.75.75,0,0,0-.74.74v3.06a.74.74,0,1,0,1.48,0v-3.06a.7.7,0,0,0-.74-.74m-7.06,1v2.61a1,1,0,0,0,1,1h2.56a1,1,0,0,0,1-1v-2.61a1,1,0,0,0-1-1h-2.56a1,1,0,0,0-1,1m-1.83,2.61v-2.61a1,1,0,0,0-1-1H506a1,1,0,0,0-1,1v2.61a1,1,0,0,0,1,1h2.56a1,1,0,0,0,1-1m8.69,2.82h-2.57a1,1,0,0,0-1,1v2.62a1,1,0,0,0,1,1h2.57a1,1,0,0,0,1-1V489.9a1,1,0,0,0-1-1m-6.66,0H509a1,1,0,0,0-1,1v2.62a1,1,0,0,0,1,1h2.57a1,1,0,0,0,1-1V489.9a1,1,0,0,0-1-1"/><path class="cls-9" d="M521.35,475.05a5.89,5.89,0,0,0,4,1.23c.09,0,0,.1,0,.2v7.06c0,2.71-3.31,4.39-4.1,4.83-.1.05-.1-.05-.1-.05l0-13.22s0-.1.1-.05"/><path class="cls-9" d="M513.6,474.7c5.43-.2,6.32-2.07,6.32-2.07a.26.26,0,0,1,.24-.15c.1,0,.2,0,.25.1s.84,2,6.27,2c.15,0,.2.1.2.25v9.28c0,3-5.63,6.32-5.73,6.37s-.2.14-.2.19V493c0,.1.35.15.5.1,2.07-1.13,7.89-4.34,7.89-8.29V473c0-.19-.34-.34-.54-.34-6.91,0-8.19-2.52-8.19-2.52-.05-.15-.3-.1-.45-.1s-.24-.05-.29.05-1.14,2.62-8,2.62c-.25,0-.29.1-.29.29v1.48s-.05.35.19.35,1.83-.1,1.83-.1"/><path d="M534.48,489.85l2.76-1a3.79,3.79,0,0,0,3.6,2.07,4.07,4.07,0,0,0,2.13-.49,1.68,1.68,0,0,0,.88-1.48c0-1.48-2-2.37-3.5-3l-.1,0a13.23,13.23,0,0,1-3.21-1.78,4,4,0,0,1-1.58-3.26,4.35,4.35,0,0,1,1.63-3.4,6.33,6.33,0,0,1,4.1-1.39,5.91,5.91,0,0,1,5.43,3l-2.86,1.09a2.31,2.31,0,0,0-1-1,4.08,4.08,0,0,0-1.58-.34c-1.58,0-2.67.84-2.67,2a2.23,2.23,0,0,0,1.09,1.78,14.28,14.28,0,0,0,2.47,1.28l.34.15c2.13.89,4.74,2,4.74,4.89a4.11,4.11,0,0,1-1.87,3.5,7.58,7.58,0,0,1-4.5,1.29c-3-.05-5.38-1.44-6.31-3.76"/><path d="M559,493.56a9,9,0,0,1-3.41-.69,9,9,0,0,1-4.64-4.64,8.77,8.77,0,0,1,0-6.82,9,9,0,0,1,4.64-4.64,9,9,0,0,1,3.41-.69,8.51,8.51,0,0,1,3.95.94,8.74,8.74,0,0,1,3,2.52l-2.32,1.73a5.89,5.89,0,0,0-2-1.68,6.1,6.1,0,0,0-2.66-.64,5.87,5.87,0,0,0-5.87,5.87,5.78,5.78,0,0,0,1.72,4.15,5.77,5.77,0,0,0,7.11.88,5.88,5.88,0,0,0,2.12-2.17l2.52,1.43a8.54,8.54,0,0,1-3.16,3.21,8,8,0,0,1-4.39,1.24"/><path d="M578.06,493.61a8.89,8.89,0,0,1-3.41-.7,8,8,0,0,1-2.76-1.87,8.66,8.66,0,0,1-2.57-6.17,8.16,8.16,0,0,1,.69-3.41,9,9,0,0,1,1.88-2.76,9.34,9.34,0,0,1,2.76-1.88,8.75,8.75,0,0,1,6.81,0,8.15,8.15,0,0,1,2.77,1.88,8.71,8.71,0,0,1,0,12.34,9,9,0,0,1-2.77,1.87,8.8,8.8,0,0,1-3.4.7m0-14.66a5.69,5.69,0,0,0-4.15,1.72,5.9,5.9,0,0,0-1.72,4.15,5.69,5.69,0,0,0,1.72,4.15,5.87,5.87,0,0,0,8.3,0,5.9,5.9,0,0,0,1.72-4.15,6,6,0,0,0-1.72-4.15,5.9,5.9,0,0,0-4.15-1.72"/><polygon points="606.64 476.23 606.64 494 594.4 482.75 594.4 493.31 591.29 493.31 591.29 475.59 603.53 486.89 603.53 476.23 606.64 476.23"/><polygon points="614.98 478.85 614.98 483.39 623.52 483.39 623.52 486.05 614.98 486.05 614.98 490.64 624.55 490.64 624.55 493.31 611.87 493.31 611.87 476.23 624.55 476.23 624.55 478.9 614.98 478.9 614.98 478.85"/></g></g></g><rect class="cls-10" x="487.24" y="263" width="363.36" height="149" rx="8"/><path class="cls-4" d="M624.29,321.78h-3l-.47-1.94a4.19,4.19,0,0,0-1.16-.58,5,5,0,0,0-1.54-.22,3.16,3.16,0,0,0-1.87.49,1.49,1.49,0,0,0-.69,1.24,1.39,1.39,0,0,0,.66,1.17,7.41,7.41,0,0,0,2.64.83,11,11,0,0,1,4.56,1.69,3.59,3.59,0,0,1,1.49,3.06A4,4,0,0,1,623,331a8.79,8.79,0,0,1-5.07,1.33,11.19,11.19,0,0,1-3.51-.53,9.23,9.23,0,0,1-2.85-1.5l0-3.49h3.12l.62,2a2.62,2.62,0,0,0,1.09.46,6.63,6.63,0,0,0,1.44.15,3.8,3.8,0,0,0,2.07-.46,1.39,1.39,0,0,0,.71-1.24,1.46,1.46,0,0,0-.72-1.2,7.78,7.78,0,0,0-2.65-.89,10.89,10.89,0,0,1-4.42-1.66,3.52,3.52,0,0,1-1.49-3,4.25,4.25,0,0,1,1.72-3.37,7.49,7.49,0,0,1,4.88-1.41,13.21,13.21,0,0,1,3.66.49,7.72,7.72,0,0,1,2.7,1.25Z"/><path class="cls-4" d="M634.69,329.06a2.77,2.77,0,0,0,1.92-.65,2.26,2.26,0,0,0,.72-1.75h4l0,.09a4.72,4.72,0,0,1-1.89,3.94,8.35,8.35,0,0,1-10.55-.61,8.06,8.06,0,0,1-2-5.65V324a8,8,0,0,1,2.06-5.64,7.65,7.65,0,0,1,5.88-2.21,10.71,10.71,0,0,1,3.6.56,7.2,7.2,0,0,1,2.65,1.58l.06,4.15h-3.63l-.74-2.43a2.84,2.84,0,0,0-.83-.45,3.19,3.19,0,0,0-1.11-.18,2.9,2.9,0,0,0-2.69,1.29,6.36,6.36,0,0,0-.78,3.33v.43a6.81,6.81,0,0,0,.72,3.36A2.66,2.66,0,0,0,634.69,329.06Z"/><path class="cls-4" d="M643.44,324.06a8,8,0,0,1,2.08-5.69,8.56,8.56,0,0,1,11.49,0,8,8,0,0,1,2.08,5.7v.3a8,8,0,0,1-2.08,5.71,8.57,8.57,0,0,1-11.49,0,8,8,0,0,1-2.08-5.71Zm4.48.3a6.4,6.4,0,0,0,.79,3.41,2.8,2.8,0,0,0,2.58,1.29,2.76,2.76,0,0,0,2.53-1.29,6.35,6.35,0,0,0,.81-3.41v-.3a6.21,6.21,0,0,0-.82-3.37,3.14,3.14,0,0,0-5.1,0,6.39,6.39,0,0,0-.79,3.37Z"/><path class="cls-4" d="M660.79,329.46l2.14-.43v-9.64l-2.37-.43v-2.52h6.54l.2,2.22a5.91,5.91,0,0,1,2-1.85,5.55,5.55,0,0,1,2.71-.66,5.15,5.15,0,0,1,3.92,1.48,6.52,6.52,0,0,1,1.41,4.64V329l2.15.43V332H671v-2.51l1.91-.43v-6.75a3,3,0,0,0-.67-2.22,2.85,2.85,0,0,0-2-.65,3.57,3.57,0,0,0-1.59.34,3.13,3.13,0,0,0-1.18.95V329l1.8.43V332h-8.42Z"/><path class="cls-4" d="M680.81,329.46,683,329v-9.64l-2.39-.43v-2.52h6.87V329l2.14.43V332h-8.78Zm6.64-16.74H683v-3.15h4.48Z"/><path class="cls-4" d="M691.31,329.46l2.16-.43v-9.65H691v-2.94h2.47v-1.73a5.11,5.11,0,0,1,1.61-4,6.63,6.63,0,0,1,4.52-1.41,9,9,0,0,1,1.15.08c.4,0,.83.13,1.3.22l-.38,3.12-.72-.1a6.1,6.1,0,0,0-.8,0,2.26,2.26,0,0,0-1.65.56,2.2,2.2,0,0,0-.56,1.61v1.73h3.3v2.94h-3.3V329l2.16.43V332h-8.79Z"/><path class="cls-4" d="M719.9,319l-1.55.22-6.1,15.12a8.39,8.39,0,0,1-1.92,2.82,5.13,5.13,0,0,1-3.62,1.13,6,6,0,0,1-1.07-.09q-.5-.07-1.17-.24l.52-3.06.45.06.39,0a2.58,2.58,0,0,0,1.72-.51,3.36,3.36,0,0,0,.92-1.27L709,332l-5.26-12.8-1.55-.23v-2.52h8.12V319l-1.85.29,2.27,6.21.23,1.12H711l2.62-7.34-1.87-.29v-2.52h8.12Z"/><path class="cls-4" d="M617.15,364.75l2.16-.43v-9.63l-2.39-.43v-2.53h6.86v12.59l2.15.43v2.52h-8.78ZM623.78,348h-4.47v-3.14h4.47Z"/><path class="cls-4" d="M626.88,354.26v-2.53h6.54l.18,2a5.55,5.55,0,0,1,2-1.73,6.18,6.18,0,0,1,2.78-.61,5.31,5.31,0,0,1,2.73.66,4.15,4.15,0,0,1,1.72,2,5.55,5.55,0,0,1,2-2,5.69,5.69,0,0,1,2.88-.71,4.94,4.94,0,0,1,3.87,1.59,7.11,7.11,0,0,1,1.42,4.83v6.46l2.16.43v2.52h-8.57v-2.52l1.93-.43v-6.47a3.74,3.74,0,0,0-.61-2.46,2.32,2.32,0,0,0-1.82-.69,3.2,3.2,0,0,0-1.65.4,2.86,2.86,0,0,0-1.11,1.1c0,.18,0,.33,0,.46s0,.26,0,.4v7.26l1.81.43v2.52h-8.08v-2.52l1.81-.43v-6.47a3.77,3.77,0,0,0-.61-2.44,2.31,2.31,0,0,0-1.84-.71,3.64,3.64,0,0,0-1.59.33,2.84,2.84,0,0,0-1.12.91v8.38l1.93.43v2.52h-8.55v-2.52l2.16-.43v-9.63Z"/><path class="cls-4" d="M667.15,367.27a7.92,7.92,0,0,1-.33-.8,6.17,6.17,0,0,1-.21-.82,6.29,6.29,0,0,1-1.94,1.39,6.18,6.18,0,0,1-2.61.53,5.68,5.68,0,0,1-3.87-1.24,4.23,4.23,0,0,1-1.43-3.38,3.78,3.78,0,0,1,1.87-3.38,10.3,10.3,0,0,1,5.48-1.19h2.28v-1.52a2.24,2.24,0,0,0-.68-1.74,3,3,0,0,0-2-.62,5.19,5.19,0,0,0-1.37.17,3.66,3.66,0,0,0-1,.39l-.29,1.67h-3.37v-3.45A13.26,13.26,0,0,1,660.5,352a11,11,0,0,1,3.46-.53,8.18,8.18,0,0,1,5,1.42,4.7,4.7,0,0,1,1.92,4v6.41c0,.24,0,.47,0,.68a3.81,3.81,0,0,0,.06.6l1.36.17v2.52Zm-3.88-2.8a4.14,4.14,0,0,0,1.84-.41,3.43,3.43,0,0,0,1.28-1v-2.37h-2.28a3.24,3.24,0,0,0-2.16.63,1.88,1.88,0,0,0-.73,1.5,1.5,1.5,0,0,0,.54,1.23A2.29,2.29,0,0,0,663.27,364.47Z"/><path class="cls-4" d="M674.1,359.63a9.55,9.55,0,0,1,1.71-5.93,5.64,5.64,0,0,1,4.79-2.26,5.07,5.07,0,0,1,2.45.58,5.38,5.38,0,0,1,1.81,1.66l.32-1.95h3.89v15.08a6.23,6.23,0,0,1-2.06,4.9,8.22,8.22,0,0,1-5.66,1.83,11.7,11.7,0,0,1-2.67-.32,12.82,12.82,0,0,1-2.6-.88l.83-2.95a14.77,14.77,0,0,0,2.14.69,10.39,10.39,0,0,0,2.27.25,3.05,3.05,0,0,0,2.45-.94,3.82,3.82,0,0,0,.81-2.6v-1a5.06,5.06,0,0,1-1.73,1.33,5.31,5.31,0,0,1-2.28.46,5.79,5.79,0,0,1-4.76-2.1,8.53,8.53,0,0,1-1.71-5.54Zm4.48.3a6,6,0,0,0,.73,3.21,2.61,2.61,0,0,0,2.39,1.17,3.94,3.94,0,0,0,1.74-.35,2.77,2.77,0,0,0,1.14-1v-6.75a2.91,2.91,0,0,0-1.14-1.09,3.49,3.49,0,0,0-1.71-.39,2.56,2.56,0,0,0-2.4,1.37,7.35,7.35,0,0,0-.75,3.56Z"/><path class="cls-4" d="M699.69,367.57a7.75,7.75,0,0,1-5.73-2.15,7.45,7.45,0,0,1-2.15-5.48v-.57a8.17,8.17,0,0,1,2-5.7,7.06,7.06,0,0,1,12.52,4.79v2.29h-9.9l0,.08a3.9,3.9,0,0,0,1.09,2.53,3.55,3.55,0,0,0,2.65,1,9,9,0,0,0,2.46-.28,11.36,11.36,0,0,0,2.15-.88l1.21,2.59a9.15,9.15,0,0,1-2.66,1.27A11.86,11.86,0,0,1,699.69,367.57Zm-.4-12.9a2.39,2.39,0,0,0-2,.89,4.48,4.48,0,0,0-.89,2.35l0,.07H702v-.38a3.23,3.23,0,0,0-.66-2.13A2.5,2.5,0,0,0,699.29,354.67Z"/><path class="cls-4" d="M712.65,353.4,708,352.12l.87-2.54,4.55,1.76-.28-5h2.89l-.31,5.07,4.46-1.72.86,2.58-4.69,1.28,3.06,3.8L717.13,359l-2.68-4.16-2.65,4-2.33-1.52Z"/><rect class="cls-11" x="43" y="263" width="360" height="149" rx="8"/><path class="cls-2" d="M177,329.46l2.14-.43v-9.64l-2.37-.43v-2.52h6.54l.2,2.22a5.91,5.91,0,0,1,2-1.85,5.55,5.55,0,0,1,2.71-.66,5.15,5.15,0,0,1,3.92,1.48,6.52,6.52,0,0,1,1.41,4.64V329l2.15.43V332h-8.55v-2.51l1.91-.43v-6.75a3,3,0,0,0-.67-2.22,2.85,2.85,0,0,0-2-.65,3.57,3.57,0,0,0-1.59.34,3.13,3.13,0,0,0-1.18.95V329l1.8.43V332H177Z"/><path class="cls-2" d="M207.69,332a6.86,6.86,0,0,1-.32-.79,5.09,5.09,0,0,1-.22-.83,6,6,0,0,1-1.94,1.4,6.18,6.18,0,0,1-2.61.53,5.72,5.72,0,0,1-3.87-1.25,4.24,4.24,0,0,1-1.43-3.38,3.77,3.77,0,0,1,1.87-3.37,10.22,10.22,0,0,1,5.48-1.2h2.29v-1.52a2.2,2.2,0,0,0-.69-1.73,2.93,2.93,0,0,0-2-.62,5.13,5.13,0,0,0-1.36.16,3.54,3.54,0,0,0-1,.4l-.29,1.66h-3.37V318a12.66,12.66,0,0,1,2.82-1.31,10.9,10.9,0,0,1,3.45-.53,8.25,8.25,0,0,1,5,1.41,4.7,4.7,0,0,1,1.93,4V328c0,.24,0,.47,0,.68a3.83,3.83,0,0,0,.05.6l1.36.17V332Zm-3.88-2.8a4,4,0,0,0,1.84-.41,3.53,3.53,0,0,0,1.29-1v-2.37h-2.29a3.29,3.29,0,0,0-2.16.62,1.91,1.91,0,0,0-.73,1.5,1.52,1.52,0,0,0,.54,1.24A2.32,2.32,0,0,0,203.81,329.17Z"/><path class="cls-2" d="M219.75,312.63v3.81h2.91v2.94h-2.91v7.91a1.7,1.7,0,0,0,.4,1.29,1.45,1.45,0,0,0,1.07.39c.3,0,.57,0,.8,0l.78-.12.38,3a11.68,11.68,0,0,1-1.49.32,11.24,11.24,0,0,1-1.59.11,4.93,4.93,0,0,1-3.56-1.2,5,5,0,0,1-1.25-3.77v-7.93h-2.44v-2.94h2.44v-3.81Z"/><path class="cls-2" d="M224.71,329.46l2.16-.43v-9.64l-2.39-.43v-2.52h6.87V329l2.14.43V332h-8.78Zm6.64-16.74h-4.48v-3.15h4.48Z"/><path class="cls-2" d="M242,319l-1.57.28,2.19,6.95.3,1.46H243l.32-1.46,2.16-6.94L243.9,319v-2.52h7.52V319l-1.44.22L245.09,332h-4.27l-4.91-12.79-1.44-.22v-2.52H242Z"/><path class="cls-2" d="M260.58,332.28a7.71,7.71,0,0,1-5.73-2.16,7.42,7.42,0,0,1-2.14-5.47v-.57a8.12,8.12,0,0,1,2-5.7,7.93,7.93,0,0,1,10.65-.34,7,7,0,0,1,1.86,5.13v2.29h-9.9l0,.08a4,4,0,0,0,1.09,2.53,3.55,3.55,0,0,0,2.65,1,9,9,0,0,0,2.46-.28,12.06,12.06,0,0,0,2.15-.88l1.21,2.58a9,9,0,0,1-2.66,1.28A12.17,12.17,0,0,1,260.58,332.28Zm-.4-12.9a2.4,2.4,0,0,0-2,.89,4.5,4.5,0,0,0-.89,2.34l.05.07h5.49v-.37a3.23,3.23,0,0,0-.67-2.13A2.5,2.5,0,0,0,260.18,319.38Z"/><path class="cls-2" d="M110.24,364.35a2.72,2.72,0,0,0,1.91-.65,2.25,2.25,0,0,0,.72-1.74h4l0,.08a4.7,4.7,0,0,1-1.88,3.94,8.36,8.36,0,0,1-10.56-.61,8,8,0,0,1-2-5.64v-.43a8,8,0,0,1,2.06-5.65,7.68,7.68,0,0,1,5.88-2.21,10.88,10.88,0,0,1,3.6.56,7.25,7.25,0,0,1,2.65,1.58l.06,4.15h-3.63l-.73-2.42a2.75,2.75,0,0,0-.83-.46,3.25,3.25,0,0,0-1.12-.18,2.86,2.86,0,0,0-2.68,1.3,6.36,6.36,0,0,0-.78,3.33v.43a6.74,6.74,0,0,0,.72,3.35A2.65,2.65,0,0,0,110.24,364.35Z"/><path class="cls-2" d="M119,359.36a8,8,0,0,1,2.07-5.7,8.56,8.56,0,0,1,11.49,0,8,8,0,0,1,2.08,5.71v.3a8,8,0,0,1-2.08,5.71,7.47,7.47,0,0,1-5.72,2.2,7.55,7.55,0,0,1-5.77-2.2,8,8,0,0,1-2.07-5.71Zm4.47.3a6.45,6.45,0,0,0,.8,3.41,3.18,3.18,0,0,0,5.11,0,6.43,6.43,0,0,0,.8-3.4v-.3a6.34,6.34,0,0,0-.81-3.38,2.8,2.8,0,0,0-2.56-1.31,2.76,2.76,0,0,0-2.54,1.31,6.43,6.43,0,0,0-.8,3.38Z"/><path class="cls-2" d="M136.33,364.75l2.15-.43v-9.63l-2.38-.43v-2.53h6.54l.2,2.23a5.84,5.84,0,0,1,2-1.86,5.57,5.57,0,0,1,2.71-.66,5.19,5.19,0,0,1,3.93,1.48,6.54,6.54,0,0,1,1.4,4.64v6.76l2.15.43v2.52h-8.55v-2.52l1.92-.43v-6.74a3,3,0,0,0-.68-2.22,2.81,2.81,0,0,0-2-.66,3.71,3.71,0,0,0-1.59.34,3.13,3.13,0,0,0-1.18,1v8.32l1.81.43v2.52h-8.43Z"/><path class="cls-2" d="M163.1,347.92v3.81H166v2.94H163.1v7.92a1.73,1.73,0,0,0,.4,1.29,1.45,1.45,0,0,0,1.07.39c.31,0,.58,0,.8,0a6.81,6.81,0,0,0,.78-.12l.38,3a10.81,10.81,0,0,1-3.08.43,5,5,0,0,1-3.56-1.19,5,5,0,0,1-1.25-3.78v-7.93H156.2v-2.94h2.44v-3.81Z"/><path class="cls-2" d="M178.76,367.27a7.85,7.85,0,0,1-.32-.8,6.23,6.23,0,0,1-.22-.82,6,6,0,0,1-4.55,1.92,5.71,5.71,0,0,1-3.87-1.24,4.27,4.27,0,0,1-1.43-3.38,3.78,3.78,0,0,1,1.87-3.38,10.34,10.34,0,0,1,5.49-1.19H178v-1.52a2.21,2.21,0,0,0-.69-1.74,3,3,0,0,0-2-.62,5.11,5.11,0,0,0-1.36.17,3.9,3.9,0,0,0-1,.39l-.29,1.67h-3.37v-3.45a13.12,13.12,0,0,1,2.82-1.31,10.9,10.9,0,0,1,3.45-.53,8.18,8.18,0,0,1,5,1.42,4.68,4.68,0,0,1,1.93,4v6.41c0,.24,0,.47,0,.68a3.83,3.83,0,0,0,.05.6l1.36.17v2.52Zm-3.88-2.8a4.11,4.11,0,0,0,1.84-.41,3.55,3.55,0,0,0,1.29-1v-2.37h-2.28a3.25,3.25,0,0,0-2.17.63,1.88,1.88,0,0,0-.73,1.5,1.5,1.5,0,0,0,.54,1.23A2.32,2.32,0,0,0,174.88,364.47Z"/><path class="cls-2" d="M185.3,364.75l2.16-.43v-9.63l-2.39-.43v-2.53h6.87v12.59l2.14.43v2.52H185.3ZM191.94,348h-4.48v-3.14h4.48Z"/><path class="cls-2" d="M195.31,364.75l2.14-.43v-9.63l-2.37-.43v-2.53h6.54l.2,2.23a5.84,5.84,0,0,1,2-1.86,5.55,5.55,0,0,1,2.71-.66,5.19,5.19,0,0,1,3.92,1.48,6.54,6.54,0,0,1,1.41,4.64v6.76l2.15.43v2.52H205.5v-2.52l1.91-.43v-6.74a3,3,0,0,0-.67-2.22,2.81,2.81,0,0,0-2-.66,3.71,3.71,0,0,0-1.59.34,3.06,3.06,0,0,0-1.18,1v8.32l1.8.43v2.52h-8.42Z"/><path class="cls-2" d="M223.26,367.57a7.79,7.79,0,0,1-5.74-2.15,7.44,7.44,0,0,1-2.14-5.48v-.57a8.17,8.17,0,0,1,2-5.7,7.93,7.93,0,0,1,10.66-.33,7,7,0,0,1,1.85,5.12v2.29H220l0,.08a3.91,3.91,0,0,0,1.1,2.53,3.54,3.54,0,0,0,2.64,1,9.08,9.08,0,0,0,2.47-.28,11.29,11.29,0,0,0,2.14-.88l1.21,2.59a9,9,0,0,1-2.66,1.27A11.79,11.79,0,0,1,223.26,367.57Zm-.4-12.9a2.39,2.39,0,0,0-2,.89,4.48,4.48,0,0,0-.89,2.35l0,.07h5.49v-.38a3.18,3.18,0,0,0-.67-2.13A2.47,2.47,0,0,0,222.86,354.67Z"/><path class="cls-2" d="M232.37,364.75l2.15-.43v-9.63l-2.38-.43v-2.53h6.55l.19,2.27a4.86,4.86,0,0,1,1.51-1.88,3.5,3.5,0,0,1,2.13-.68,6.57,6.57,0,0,1,.74.05,5.29,5.29,0,0,1,.65.13l-.47,3.81-1.84,0a3.31,3.31,0,0,0-1.63.36,2.41,2.41,0,0,0-1,1v7.55l2.15.43v2.52h-8.77Z"/><path class="cls-2" d="M252.8,364.75l2.16-.43v-9.63l-2.39-.43v-2.53h6.86v12.59l2.15.43v2.52H252.8ZM259.43,348H255v-3.14h4.47Z"/><path class="cls-2" d="M262.53,354.26v-2.53h6.54l.18,2a5.63,5.63,0,0,1,2-1.73,6.18,6.18,0,0,1,2.78-.61,5.31,5.31,0,0,1,2.73.66,4.15,4.15,0,0,1,1.72,2,5.55,5.55,0,0,1,2-2,5.69,5.69,0,0,1,2.88-.71,4.92,4.92,0,0,1,3.87,1.59,7.11,7.11,0,0,1,1.42,4.83v6.46l2.16.43v2.52h-8.57v-2.52l1.93-.43v-6.47a3.74,3.74,0,0,0-.61-2.46,2.32,2.32,0,0,0-1.82-.69,3.2,3.2,0,0,0-1.65.4,2.86,2.86,0,0,0-1.11,1.1c0,.18,0,.33,0,.46s0,.26,0,.4v7.26l1.81.43v2.52h-8.08v-2.52l1.81-.43v-6.47a3.77,3.77,0,0,0-.61-2.44,2.31,2.31,0,0,0-1.84-.71,3.64,3.64,0,0,0-1.59.33,2.84,2.84,0,0,0-1.12.91v8.38l1.93.43v2.52h-8.55v-2.52l2.16-.43v-9.63Z"/><path class="cls-2" d="M302.8,367.27a7.92,7.92,0,0,1-.33-.8,6.17,6.17,0,0,1-.21-.82,6.29,6.29,0,0,1-1.94,1.39,6.18,6.18,0,0,1-2.61.53,5.68,5.68,0,0,1-3.87-1.24,4.23,4.23,0,0,1-1.43-3.38,3.78,3.78,0,0,1,1.87-3.38,10.3,10.3,0,0,1,5.48-1.19H302v-1.52a2.24,2.24,0,0,0-.68-1.74,3,3,0,0,0-2-.62,5.19,5.19,0,0,0-1.37.17,3.81,3.81,0,0,0-1,.39l-.29,1.67h-3.37v-3.45a13.26,13.26,0,0,1,2.81-1.31,11,11,0,0,1,3.46-.53,8.18,8.18,0,0,1,5,1.42,4.7,4.7,0,0,1,1.92,4v6.41c0,.24,0,.47,0,.68a3.81,3.81,0,0,0,.06.6l1.36.17v2.52Zm-3.88-2.8a4.14,4.14,0,0,0,1.84-.41,3.43,3.43,0,0,0,1.28-1v-2.37h-2.28a3.24,3.24,0,0,0-2.16.63,1.88,1.88,0,0,0-.73,1.5,1.5,1.5,0,0,0,.54,1.23A2.3,2.3,0,0,0,298.92,364.47Z"/><path class="cls-2" d="M309.75,359.63a9.55,9.55,0,0,1,1.71-5.93,5.66,5.66,0,0,1,4.79-2.26,5.07,5.07,0,0,1,2.45.58,5.29,5.29,0,0,1,1.81,1.66l.32-1.95h3.89v15.08a6.2,6.2,0,0,1-2.06,4.9,8.22,8.22,0,0,1-5.66,1.83,11.7,11.7,0,0,1-2.67-.32,12.82,12.82,0,0,1-2.6-.88l.83-2.95a14.77,14.77,0,0,0,2.14.69,10.39,10.39,0,0,0,2.27.25,3.05,3.05,0,0,0,2.45-.94,3.82,3.82,0,0,0,.81-2.6v-1a5,5,0,0,1-1.73,1.33,5.31,5.31,0,0,1-2.28.46,5.8,5.8,0,0,1-4.76-2.1,8.53,8.53,0,0,1-1.71-5.54Zm4.48.3a6,6,0,0,0,.73,3.21,2.61,2.61,0,0,0,2.39,1.17,3.94,3.94,0,0,0,1.74-.35,2.77,2.77,0,0,0,1.14-1v-6.75a2.91,2.91,0,0,0-1.14-1.09,3.49,3.49,0,0,0-1.71-.39,2.56,2.56,0,0,0-2.4,1.37,7.35,7.35,0,0,0-.75,3.56Z"/><path class="cls-2" d="M335.34,367.57a7.75,7.75,0,0,1-5.73-2.15,7.44,7.44,0,0,1-2.14-5.48v-.57a8.12,8.12,0,0,1,2-5.7,7.91,7.91,0,0,1,10.65-.33,7,7,0,0,1,1.86,5.12v2.29h-9.9l0,.08a3.9,3.9,0,0,0,1.09,2.53,3.55,3.55,0,0,0,2.65,1,9,9,0,0,0,2.46-.28,11.36,11.36,0,0,0,2.15-.88l1.21,2.59a9.15,9.15,0,0,1-2.66,1.27A11.86,11.86,0,0,1,335.34,367.57Zm-.4-12.9a2.4,2.4,0,0,0-2,.89,4.57,4.57,0,0,0-.89,2.35l.05.07h5.48v-.38a3.23,3.23,0,0,0-.66-2.13A2.5,2.5,0,0,0,334.94,354.67Z"/><path class="cls-2" d="M1508,319v-2.52h6.5l.21,1.81a5.26,5.26,0,0,1,1.77-1.56,5,5,0,0,1,2.39-.54,5.66,5.66,0,0,1,4.78,2.25,9.64,9.64,0,0,1,1.7,5.93v.31a8.56,8.56,0,0,1-1.7,5.54,5.78,5.78,0,0,1-4.75,2.1,5.68,5.68,0,0,1-2.32-.46,4.74,4.74,0,0,1-1.73-1.32V335l2.16.43V338h-8.78v-2.53l2.16-.43v-15.6Zm12.87,5.37a7.14,7.14,0,0,0-.78-3.56,2.57,2.57,0,0,0-2.39-1.36,3.53,3.53,0,0,0-1.72.39,2.78,2.78,0,0,0-1.13,1.1v6.81a2.67,2.67,0,0,0,1.13,1,4,4,0,0,0,1.75.35,2.62,2.62,0,0,0,2.38-1.19,5.94,5.94,0,0,0,.76-3.23Z"/><path class="cls-2" d="M1539,330a5.58,5.58,0,0,1-2,1.68,5.89,5.89,0,0,1-2.67.59,5.38,5.38,0,0,1-4.11-1.58q-1.49-1.56-1.49-4.89v-6.42l-1.82-.43v-2.52h6.3v9.4a3.92,3.92,0,0,0,.6,2.44,2.22,2.22,0,0,0,1.8.74,4.6,4.6,0,0,0,1.83-.33,3.14,3.14,0,0,0,1.27-.92v-8.38l-2-.43v-2.52h6.43V329l2,.43V332h-5.93Z"/><path class="cls-2" d="M1560.47,321.78h-3l-.48-1.94a4.12,4.12,0,0,0-1.15-.58,5,5,0,0,0-1.54-.22,3.14,3.14,0,0,0-1.87.49,1.49,1.49,0,0,0-.69,1.24,1.39,1.39,0,0,0,.66,1.17,7.34,7.34,0,0,0,2.63.83,11,11,0,0,1,4.57,1.69,3.61,3.61,0,0,1,1.48,3.06,4,4,0,0,1-1.92,3.43,8.78,8.78,0,0,1-5.06,1.33,11.25,11.25,0,0,1-3.52-.53,9.18,9.18,0,0,1-2.84-1.5l0-3.49h3.13l.61,2a2.68,2.68,0,0,0,1.09.46,6.76,6.76,0,0,0,1.44.15,3.84,3.84,0,0,0,2.08-.46,1.41,1.41,0,0,0,.71-1.24,1.46,1.46,0,0,0-.72-1.2,7.86,7.86,0,0,0-2.65-.89A10.84,10.84,0,0,1,1549,324a3.51,3.51,0,0,1-1.5-3,4.28,4.28,0,0,1,1.72-3.37,7.5,7.5,0,0,1,4.89-1.41,13.19,13.19,0,0,1,3.65.49,7.86,7.86,0,0,1,2.71,1.25Z"/><path class="cls-2" d="M1562.85,329.46,1565,329v-16.5l-2.39-.43v-2.53h6.85v8.85a5.48,5.48,0,0,1,1.91-1.68,5.4,5.4,0,0,1,2.51-.59,5.3,5.3,0,0,1,4.09,1.61,7.24,7.24,0,0,1,1.48,5V329l2.14.43V332h-8.55v-2.51L1575,329v-6.3a3.86,3.86,0,0,0-.68-2.57,2.6,2.6,0,0,0-2-.75,3.92,3.92,0,0,0-1.63.31,3.17,3.17,0,0,0-1.17.9V329l1.93.43V332h-8.55Z"/><path class="cls-2" d="M1597.34,312.63v3.81h2.91v2.94h-2.91v7.91a1.7,1.7,0,0,0,.4,1.29,1.45,1.45,0,0,0,1.07.39c.31,0,.57,0,.8,0l.78-.12.38,3a11.68,11.68,0,0,1-1.49.32,11.24,11.24,0,0,1-1.59.11,4.33,4.33,0,0,1-4.81-5v-7.93h-2.44v-2.94h2.44v-3.81Z"/><path class="cls-2" d="M1602,324.06a8,8,0,0,1,2.08-5.69,8.56,8.56,0,0,1,11.49,0,8,8,0,0,1,2.07,5.7v.3a8,8,0,0,1-2.07,5.71,8.57,8.57,0,0,1-11.49,0,8,8,0,0,1-2.08-5.71Zm4.48.3a6.4,6.4,0,0,0,.79,3.41,2.8,2.8,0,0,0,2.58,1.29,2.76,2.76,0,0,0,2.53-1.29,6.35,6.35,0,0,0,.81-3.41v-.3a6.21,6.21,0,0,0-.82-3.37,2.79,2.79,0,0,0-2.56-1.31,2.76,2.76,0,0,0-2.54,1.31,6.39,6.39,0,0,0-.79,3.37Z"/><path class="cls-2" d="M1437.71,364.35a2.73,2.73,0,0,0,1.92-.65,2.25,2.25,0,0,0,.72-1.74h4l0,.08a4.73,4.73,0,0,1-1.88,3.94,7.43,7.43,0,0,1-4.85,1.59,7.33,7.33,0,0,1-5.71-2.2,8,8,0,0,1-2-5.64v-.43a8,8,0,0,1,2.06-5.65,7.66,7.66,0,0,1,5.88-2.21,10.88,10.88,0,0,1,3.6.56,7.25,7.25,0,0,1,2.65,1.58l.06,4.15h-3.63l-.73-2.42a2.88,2.88,0,0,0-.83-.46,3.25,3.25,0,0,0-1.12-.18,2.86,2.86,0,0,0-2.68,1.3,6.36,6.36,0,0,0-.78,3.33v.43a6.74,6.74,0,0,0,.72,3.35A2.64,2.64,0,0,0,1437.71,364.35Z"/><path class="cls-2" d="M1446.46,359.36a8,8,0,0,1,2.08-5.7,8.56,8.56,0,0,1,11.49,0,8,8,0,0,1,2.08,5.71v.3a8,8,0,0,1-2.08,5.71,8.6,8.6,0,0,1-11.49,0,8,8,0,0,1-2.08-5.71Zm4.48.3a6.45,6.45,0,0,0,.79,3.41,2.82,2.82,0,0,0,2.58,1.28,2.76,2.76,0,0,0,2.53-1.29,6.34,6.34,0,0,0,.81-3.4v-.3a6.34,6.34,0,0,0-.81-3.38,2.81,2.81,0,0,0-2.56-1.31,2.78,2.78,0,0,0-2.55,1.31,6.43,6.43,0,0,0-.79,3.38Z"/><path class="cls-2" d="M1463.81,364.75l2.14-.43v-9.63l-2.37-.43v-2.53h6.54l.2,2.23a5.84,5.84,0,0,1,2-1.86,5.57,5.57,0,0,1,2.71-.66,5.17,5.17,0,0,1,3.92,1.48,6.54,6.54,0,0,1,1.41,4.64v6.76l2.15.43v2.52H1474v-2.52l1.91-.43v-6.74a3,3,0,0,0-.67-2.22,2.81,2.81,0,0,0-2-.66,3.71,3.71,0,0,0-1.59.34,3.06,3.06,0,0,0-1.18,1v8.32l1.81.43v2.52h-8.43Z"/><path class="cls-2" d="M1490.58,347.92v3.81h2.91v2.94h-2.91v7.92a1.73,1.73,0,0,0,.4,1.29,1.45,1.45,0,0,0,1.07.39c.3,0,.57,0,.8,0a6.81,6.81,0,0,0,.78-.12l.38,3a11.68,11.68,0,0,1-1.49.32,11.24,11.24,0,0,1-1.59.11,5,5,0,0,1-3.56-1.19,5,5,0,0,1-1.25-3.78v-7.93h-2.44v-2.94h2.44v-3.81Z"/><path class="cls-2" d="M1506.24,367.27a6.07,6.07,0,0,1-.32-.8,5,5,0,0,1-.22-.82,6.29,6.29,0,0,1-1.94,1.39,6.18,6.18,0,0,1-2.61.53,5.71,5.71,0,0,1-3.87-1.24,4.27,4.27,0,0,1-1.43-3.38,3.78,3.78,0,0,1,1.87-3.38,10.3,10.3,0,0,1,5.48-1.19h2.29v-1.52a2.21,2.21,0,0,0-.69-1.74,3,3,0,0,0-2-.62,5.19,5.19,0,0,0-1.37.17,3.81,3.81,0,0,0-1,.39l-.29,1.67h-3.37v-3.45a13.26,13.26,0,0,1,2.81-1.31,11,11,0,0,1,3.46-.53,8.18,8.18,0,0,1,5,1.42,4.7,4.7,0,0,1,1.93,4V364a5.54,5.54,0,0,0,.06.6l1.36.17v2.52Zm-3.88-2.8a4.11,4.11,0,0,0,1.84-.41,3.55,3.55,0,0,0,1.29-1v-2.37h-2.29a3.24,3.24,0,0,0-2.16.63,1.88,1.88,0,0,0-.73,1.5,1.5,1.5,0,0,0,.54,1.23A2.3,2.3,0,0,0,1502.36,364.47Z"/><path class="cls-2" d="M1512.78,364.75l2.16-.43v-9.63l-2.39-.43v-2.53h6.86v12.59l2.15.43v2.52h-8.78Zm6.63-16.74h-4.47v-3.14h4.47Z"/><path class="cls-2" d="M1522.79,364.75l2.14-.43v-9.63l-2.38-.43v-2.53h6.55l.2,2.23a5.9,5.9,0,0,1,2-1.86,5.61,5.61,0,0,1,2.72-.66,5.19,5.19,0,0,1,3.92,1.48,6.54,6.54,0,0,1,1.41,4.64v6.76l2.15.43v2.52H1533v-2.52l1.92-.43v-6.74a3,3,0,0,0-.67-2.22,2.81,2.81,0,0,0-2-.66,3.76,3.76,0,0,0-1.6.34,3.13,3.13,0,0,0-1.18,1v8.32l1.81.43v2.52h-8.42Z"/><path class="cls-2" d="M1550.73,367.57a7.75,7.75,0,0,1-5.73-2.15,7.44,7.44,0,0,1-2.14-5.48v-.57a8.12,8.12,0,0,1,2-5.7,7.05,7.05,0,0,1,12.51,4.79v2.29h-9.9l0,.08a3.91,3.91,0,0,0,1.1,2.53,3.52,3.52,0,0,0,2.64,1,9.08,9.08,0,0,0,2.47-.28,11.57,11.57,0,0,0,2.14-.88l1.21,2.59a9,9,0,0,1-2.66,1.27A11.81,11.81,0,0,1,1550.73,367.57Zm-.4-12.9a2.4,2.4,0,0,0-2,.89,4.48,4.48,0,0,0-.88,2.35l0,.07H1553v-.38a3.23,3.23,0,0,0-.67-2.13A2.49,2.49,0,0,0,1550.33,354.67Z"/><path class="cls-2" d="M1559.85,364.75l2.15-.43v-9.63l-2.38-.43v-2.53h6.54l.2,2.27a4.86,4.86,0,0,1,1.51-1.88,3.49,3.49,0,0,1,2.12-.68,6.59,6.59,0,0,1,.75.05,5.71,5.71,0,0,1,.65.13l-.48,3.81-1.83,0a3.31,3.31,0,0,0-1.63.36,2.41,2.41,0,0,0-1,1v7.55l2.15.43v2.52h-8.77Z"/><path class="cls-2" d="M1580.75,364.75l2.15-.43v-9.63l-2.38-.43v-2.53h6.54l.2,2.27a4.93,4.93,0,0,1,1.5-1.88,3.54,3.54,0,0,1,2.13-.68,6.59,6.59,0,0,1,.75.05,5.29,5.29,0,0,1,.65.13l-.48,3.81-1.84,0a3.29,3.29,0,0,0-1.62.36,2.35,2.35,0,0,0-1,1v7.55l2.15.43v2.52h-8.77Z"/><path class="cls-2" d="M1601.27,367.57a7.75,7.75,0,0,1-5.73-2.15,7.45,7.45,0,0,1-2.15-5.48v-.57a8.17,8.17,0,0,1,2-5.7,7.93,7.93,0,0,1,10.66-.33,7,7,0,0,1,1.85,5.12v2.29H1598l0,.08a4,4,0,0,0,1.1,2.53,3.54,3.54,0,0,0,2.64,1,9,9,0,0,0,2.47-.28,11.63,11.63,0,0,0,2.15-.88l1.21,2.59a9.28,9.28,0,0,1-2.66,1.27A11.86,11.86,0,0,1,1601.27,367.57Zm-.4-12.9a2.39,2.39,0,0,0-2,.89,4.48,4.48,0,0,0-.89,2.35l0,.07h5.48v-.38a3.18,3.18,0,0,0-.67-2.13A2.47,2.47,0,0,0,1600.87,354.67Z"/><path class="cls-2" d="M1610.32,359.63a9.55,9.55,0,0,1,1.71-5.93,5.66,5.66,0,0,1,4.79-2.26,5.07,5.07,0,0,1,2.45.58,5.29,5.29,0,0,1,1.81,1.66l.32-1.95h3.89v15.08a6.2,6.2,0,0,1-2.06,4.9,8.22,8.22,0,0,1-5.66,1.83,11.55,11.55,0,0,1-2.66-.32,12.7,12.7,0,0,1-2.61-.88l.83-2.95a14.77,14.77,0,0,0,2.14.69,10.39,10.39,0,0,0,2.27.25,3.05,3.05,0,0,0,2.45-.94,3.82,3.82,0,0,0,.81-2.6v-1a5,5,0,0,1-1.73,1.33,5.31,5.31,0,0,1-2.28.46,5.8,5.8,0,0,1-4.76-2.1,8.53,8.53,0,0,1-1.71-5.54Zm4.48.3a6,6,0,0,0,.73,3.21,2.61,2.61,0,0,0,2.39,1.17,3.94,3.94,0,0,0,1.74-.35,2.77,2.77,0,0,0,1.14-1v-6.75a2.91,2.91,0,0,0-1.14-1.09,3.47,3.47,0,0,0-1.7-.39,2.54,2.54,0,0,0-2.4,1.37,7.23,7.23,0,0,0-.76,3.56Z"/><path class="cls-2" d="M1627.84,364.75l2.16-.43v-9.63l-2.39-.43v-2.53h6.86v12.59l2.15.43v2.52h-8.78Zm6.63-16.74H1630v-3.14h4.47Z"/><path class="cls-2" d="M1651.62,357.07h-3l-.48-1.94a3.92,3.92,0,0,0-1.16-.57,5,5,0,0,0-1.54-.23,3.16,3.16,0,0,0-1.87.49,1.5,1.5,0,0,0-.69,1.25,1.39,1.39,0,0,0,.66,1.17,7.45,7.45,0,0,0,2.64.82,11.36,11.36,0,0,1,4.57,1.69,3.61,3.61,0,0,1,1.48,3.07,4,4,0,0,1-1.92,3.42,8.71,8.71,0,0,1-5.07,1.33,11.19,11.19,0,0,1-3.51-.52,9,9,0,0,1-2.85-1.51l0-3.48H1642l.62,2a2.62,2.62,0,0,0,1.09.47,6.69,6.69,0,0,0,1.44.15,3.87,3.87,0,0,0,2.07-.46,1.41,1.41,0,0,0,.71-1.25,1.43,1.43,0,0,0-.72-1.19,7.56,7.56,0,0,0-2.65-.89,11.19,11.19,0,0,1-4.42-1.66,3.53,3.53,0,0,1-1.49-3,4.22,4.22,0,0,1,1.72-3.36,7.43,7.43,0,0,1,4.88-1.42,13.21,13.21,0,0,1,3.66.49,7.9,7.9,0,0,1,2.7,1.25Z"/><path class="cls-2" d="M1660.84,347.92v3.81h2.91v2.94h-2.91v7.92a1.73,1.73,0,0,0,.4,1.29,1.47,1.47,0,0,0,1.07.39c.31,0,.58,0,.81,0a6.35,6.35,0,0,0,.77-.12l.38,3a11.54,11.54,0,0,1-1.48.32,11.24,11.24,0,0,1-1.59.11,5,5,0,0,1-3.57-1.19,5,5,0,0,1-1.25-3.78v-7.93H1654v-2.94h2.43v-3.81Z"/><path class="cls-2" d="M1666.28,364.75l2.15-.43v-9.63l-2.38-.43v-2.53h6.54l.2,2.27a4.86,4.86,0,0,1,1.51-1.88,3.5,3.5,0,0,1,2.13-.68,6.57,6.57,0,0,1,.74.05,5.29,5.29,0,0,1,.65.13l-.48,3.81-1.83,0a3.31,3.31,0,0,0-1.63.36,2.41,2.41,0,0,0-1,1v7.55l2.15.43v2.52h-8.77Z"/><path class="cls-2" d="M1696.59,354.26l-1.55.21-6.1,15.12a8.39,8.39,0,0,1-1.92,2.82,5.09,5.09,0,0,1-3.62,1.13,6,6,0,0,1-1.07-.08c-.33-.06-.72-.14-1.17-.25l.52-3,.44,0,.4,0a2.58,2.58,0,0,0,1.72-.51,3.28,3.28,0,0,0,.92-1.27l.51-1.18-5.26-12.79-1.55-.23v-2.53H1687v2.53l-1.85.28,2.27,6.21.23,1.12h.09l2.62-7.34-1.87-.28v-2.53h8.12Z"/><rect class="cls-11" x="1383" y="263" width="360" height="149" rx="8"/><path class="cls-2" d="M1533.63,542v-2.52h6.49l.22,1.81a5.32,5.32,0,0,1,1.76-1.56,5.07,5.07,0,0,1,2.39-.54,5.64,5.64,0,0,1,4.78,2.25,9.57,9.57,0,0,1,1.7,5.93v.31a8.5,8.5,0,0,1-1.7,5.54,5.77,5.77,0,0,1-4.75,2.1,5.6,5.6,0,0,1-2.31-.46,4.74,4.74,0,0,1-1.73-1.32V558l2.16.43V561h-8.78v-2.53L1536,558v-15.6Zm12.87,5.37a7.14,7.14,0,0,0-.78-3.56,2.57,2.57,0,0,0-2.39-1.36,3.57,3.57,0,0,0-1.73.39,2.76,2.76,0,0,0-1.12,1.1v6.81a2.65,2.65,0,0,0,1.12,1,4,4,0,0,0,1.76.35,2.62,2.62,0,0,0,2.38-1.19,5.94,5.94,0,0,0,.76-3.23Z"/><path class="cls-2" d="M1564.56,553a5.55,5.55,0,0,1-2,1.68,6,6,0,0,1-2.68.59,5.36,5.36,0,0,1-4.1-1.58c-1-1-1.49-2.67-1.49-4.89v-6.42l-1.82-.43v-2.52h6.29v9.4a3.85,3.85,0,0,0,.61,2.44,2.19,2.19,0,0,0,1.8.74,4.67,4.67,0,0,0,1.83-.33,3,3,0,0,0,1.26-.92v-8.38l-2-.43v-2.52h6.44V552l2,.43V555h-5.93Z"/><path class="cls-2" d="M1586.08,544.78h-3l-.47-1.94a4.19,4.19,0,0,0-1.16-.58,5,5,0,0,0-1.54-.22,3.16,3.16,0,0,0-1.87.49,1.49,1.49,0,0,0-.69,1.24,1.39,1.39,0,0,0,.66,1.17,7.41,7.41,0,0,0,2.64.83,11.07,11.07,0,0,1,4.57,1.69,3.61,3.61,0,0,1,1.48,3.06,4,4,0,0,1-1.92,3.43,8.79,8.79,0,0,1-5.07,1.33,11.19,11.19,0,0,1-3.51-.53,9.23,9.23,0,0,1-2.85-1.5l0-3.49h3.12l.62,2a2.63,2.63,0,0,0,1.08.46,6.79,6.79,0,0,0,1.45.15,3.8,3.8,0,0,0,2.07-.46,1.39,1.39,0,0,0,.71-1.24,1.46,1.46,0,0,0-.72-1.2,7.78,7.78,0,0,0-2.65-.89,10.89,10.89,0,0,1-4.42-1.66,3.52,3.52,0,0,1-1.49-3,4.25,4.25,0,0,1,1.72-3.37,7.49,7.49,0,0,1,4.88-1.41,13.21,13.21,0,0,1,3.66.49,7.72,7.72,0,0,1,2.7,1.25Z"/><path class="cls-2" d="M1588.45,552.46l2.16-.43v-16.5l-2.39-.43v-2.53h6.85v8.85a5.51,5.51,0,0,1,1.92-1.68,5.37,5.37,0,0,1,2.51-.59,5.26,5.26,0,0,1,4.08,1.61,7.19,7.19,0,0,1,1.48,5V552l2.15.43V555h-8.55v-2.51l1.93-.43v-6.3a3.86,3.86,0,0,0-.68-2.57,2.61,2.61,0,0,0-2-.75,4,4,0,0,0-1.64.31,3.34,3.34,0,0,0-1.17.9V552l1.93.43V555h-8.55Z"/><path class="cls-2" d="M1622.94,535.63v3.81h2.92v2.94h-2.92v7.91a1.74,1.74,0,0,0,.4,1.29,1.48,1.48,0,0,0,1.08.39c.3,0,.57,0,.8,0l.77-.12.39,3a11.68,11.68,0,0,1-1.49.32,11.24,11.24,0,0,1-1.59.11,5,5,0,0,1-3.57-1.2,5,5,0,0,1-1.25-3.77v-7.93h-2.43v-2.94h2.43v-3.81Z"/><path class="cls-2" d="M1627.59,547.06a8,8,0,0,1,2.07-5.69,8.57,8.57,0,0,1,11.5,0,8,8,0,0,1,2.07,5.7v.3a8,8,0,0,1-2.07,5.71,8.59,8.59,0,0,1-11.5,0,8,8,0,0,1-2.07-5.71Zm4.47.3a6.4,6.4,0,0,0,.8,3.41,3.18,3.18,0,0,0,5.11,0,6.45,6.45,0,0,0,.8-3.41v-.3a6.3,6.3,0,0,0-.81-3.37,2.79,2.79,0,0,0-2.56-1.31,2.76,2.76,0,0,0-2.54,1.31,6.39,6.39,0,0,0-.8,3.37Z"/><path class="cls-2" d="M1533.72,587.75l2.16-.43v-16.5l-2.39-.43v-2.52h6.85v8.84a5.54,5.54,0,0,1,1.91-1.67,5.33,5.33,0,0,1,2.52-.6,5.24,5.24,0,0,1,4.08,1.62c1,1.07,1.48,2.74,1.48,5v6.27l2.14.43v2.52h-8.54v-2.52l1.93-.43V581a3.75,3.75,0,0,0-.69-2.56,2.57,2.57,0,0,0-2-.76,4,4,0,0,0-1.63.32,3.31,3.31,0,0,0-1.17.89v8.41l1.93.43v2.52h-8.55Z"/><path class="cls-2" d="M1561.7,590.57a7.75,7.75,0,0,1-5.73-2.15,7.45,7.45,0,0,1-2.15-5.48v-.57a8.17,8.17,0,0,1,2-5.7,7.06,7.06,0,0,1,12.52,4.79v2.29h-9.9l0,.08a3.9,3.9,0,0,0,1.09,2.53,3.54,3.54,0,0,0,2.64,1,9,9,0,0,0,2.47-.28,11.63,11.63,0,0,0,2.15-.88l1.21,2.59a9.15,9.15,0,0,1-2.66,1.27A11.86,11.86,0,0,1,1561.7,590.57Zm-.4-12.9a2.39,2.39,0,0,0-2,.89,4.48,4.48,0,0,0-.89,2.35l0,.07H1564v-.38a3.23,3.23,0,0,0-.66-2.13A2.5,2.5,0,0,0,1561.3,577.67Z"/><path class="cls-2" d="M1570,570.39v-2.52h6.87v19.45l2.16.43v2.52h-8.8v-2.52l2.16-.43v-16.5Z"/><path class="cls-2" d="M1580,577.26v-2.53h6.55l.18,2a5.55,5.55,0,0,1,2-1.73,6.15,6.15,0,0,1,2.78-.61,5.36,5.36,0,0,1,2.73.66,4.15,4.15,0,0,1,1.72,2,5.55,5.55,0,0,1,2-2,5.64,5.64,0,0,1,2.88-.71,4.94,4.94,0,0,1,3.87,1.59,7.11,7.11,0,0,1,1.41,4.83v6.46l2.16.43v2.52h-8.56v-2.52l1.93-.43v-6.47a3.74,3.74,0,0,0-.61-2.46,2.32,2.32,0,0,0-1.83-.69,3.19,3.19,0,0,0-1.64.4,2.86,2.86,0,0,0-1.11,1.1c0,.18,0,.33,0,.46s0,.26,0,.4v7.26l1.8.43v2.52h-8.07v-2.52l1.81-.43v-6.47a3.77,3.77,0,0,0-.62-2.44,2.29,2.29,0,0,0-1.83-.71,3.58,3.58,0,0,0-1.59.33,2.94,2.94,0,0,0-1.13.91v8.38l1.93.43v2.52h-8.55v-2.52l2.16-.43v-9.63Z"/><path class="cls-2" d="M1617.7,587.75l2.15-.43v-9.63l-2.38-.43v-2.53H1624l.2,2.27a4.84,4.84,0,0,1,1.5-1.88,3.5,3.5,0,0,1,2.13-.68,6.57,6.57,0,0,1,.74,0,5.29,5.29,0,0,1,.65.13l-.47,3.81-1.84,0a3.33,3.33,0,0,0-1.63.36,2.47,2.47,0,0,0-1,1v7.55l2.15.43v2.52h-8.77Z"/><path class="cls-2" d="M1638.22,590.57a7.75,7.75,0,0,1-5.73-2.15,7.44,7.44,0,0,1-2.14-5.48v-.57a8.12,8.12,0,0,1,2-5.7,7.91,7.91,0,0,1,10.65-.33,7,7,0,0,1,1.86,5.12v2.29H1635l0,.08a3.9,3.9,0,0,0,1.09,2.53,3.55,3.55,0,0,0,2.65,1,9,9,0,0,0,2.46-.28,11.36,11.36,0,0,0,2.15-.88l1.21,2.59a9.15,9.15,0,0,1-2.66,1.27A11.86,11.86,0,0,1,1638.22,590.57Zm-.4-12.9a2.4,2.4,0,0,0-2,.89,4.57,4.57,0,0,0-.89,2.35l0,.07h5.48v-.38a3.23,3.23,0,0,0-.66-2.13A2.5,2.5,0,0,0,1637.82,577.67Z"/><path class="cls-2" d="M1646.66,577.26v-2.53h6.5l.22,1.81a5.09,5.09,0,0,1,1.76-1.55,4.93,4.93,0,0,1,2.39-.55,5.64,5.64,0,0,1,4.78,2.26,9.61,9.61,0,0,1,1.7,5.93v.3a8.52,8.52,0,0,1-1.7,5.54,5.78,5.78,0,0,1-4.75,2.1,5.6,5.6,0,0,1-2.31-.45,4.71,4.71,0,0,1-1.74-1.33v4.49l2.16.43v2.53h-8.78v-2.53l2.16-.43V577.69Zm12.88,5.37a7,7,0,0,0-.79-3.56,2.57,2.57,0,0,0-2.39-1.37,3.55,3.55,0,0,0-1.72.39,2.94,2.94,0,0,0-1.13,1.11V586a2.76,2.76,0,0,0,1.13,1,4,4,0,0,0,1.75.34,2.62,2.62,0,0,0,2.39-1.19,6,6,0,0,0,.76-3.23Z"/><path class="cls-2" d="M1666,582.36a8,8,0,0,1,2.08-5.7,8.56,8.56,0,0,1,11.49,0,8,8,0,0,1,2.08,5.71v.3a8,8,0,0,1-2.08,5.71,8.6,8.6,0,0,1-11.49,0,8,8,0,0,1-2.08-5.71Zm4.48.3a6.45,6.45,0,0,0,.79,3.41,2.81,2.81,0,0,0,2.58,1.28,2.76,2.76,0,0,0,2.53-1.29,6.34,6.34,0,0,0,.81-3.4v-.3a6.34,6.34,0,0,0-.81-3.38,2.81,2.81,0,0,0-2.56-1.31,2.76,2.76,0,0,0-2.55,1.31,6.43,6.43,0,0,0-.79,3.38Z"/><rect class="cls-11" x="1383" y="486" width="360" height="149" rx="8"/><path class="cls-2" d="M1114.87,552.46,1117,552v-16.5l-2.39-.43v-2.53h6.84v8.85a5.6,5.6,0,0,1,1.92-1.68,5.4,5.4,0,0,1,2.51-.59,5.3,5.3,0,0,1,4.09,1.61,7.24,7.24,0,0,1,1.48,5V552l2.14.43V555h-8.55v-2.51L1127,552v-6.3a3.86,3.86,0,0,0-.68-2.57,2.6,2.6,0,0,0-2-.75,3.92,3.92,0,0,0-1.63.31,3.29,3.29,0,0,0-1.18.9V552l1.94.43V555h-8.55Z"/><path class="cls-2" d="M1142.84,555.28a7.73,7.73,0,0,1-5.73-2.16,7.42,7.42,0,0,1-2.14-5.47v-.57a8.17,8.17,0,0,1,2-5.7,7.94,7.94,0,0,1,10.66-.34,7.06,7.06,0,0,1,1.85,5.13v2.29h-9.9l0,.08a3.91,3.91,0,0,0,1.1,2.53,3.54,3.54,0,0,0,2.64,1,9.08,9.08,0,0,0,2.47-.28,12,12,0,0,0,2.14-.88l1.21,2.58a9,9,0,0,1-2.66,1.28A12.12,12.12,0,0,1,1142.84,555.28Zm-.39-12.9a2.38,2.38,0,0,0-2,.89,4.34,4.34,0,0,0-.89,2.34l0,.07h5.49v-.37a3.18,3.18,0,0,0-.67-2.13A2.47,2.47,0,0,0,1142.45,542.38Z"/><path class="cls-2" d="M1151.15,535.1v-2.53H1158V552l2.17.43V555h-8.8v-2.51l2.16-.43v-16.5Z"/><path class="cls-2" d="M1161.11,542v-2.52h6.54l.19,2a5.38,5.38,0,0,1,2-1.73,6,6,0,0,1,2.78-.61,5.3,5.3,0,0,1,2.72.66,4.15,4.15,0,0,1,1.72,2,5.57,5.57,0,0,1,2-2,5.69,5.69,0,0,1,2.88-.7,4.91,4.91,0,0,1,3.87,1.59,7,7,0,0,1,1.42,4.83V552l2.16.43V555h-8.57v-2.51l1.94-.43v-6.48a3.72,3.72,0,0,0-.62-2.45,2.3,2.3,0,0,0-1.82-.69,3.35,3.35,0,0,0-1.65.39,3.08,3.08,0,0,0-1.11,1.1c0,.18,0,.34,0,.47s0,.26,0,.39V552l1.81.43V555h-8.08v-2.51l1.81-.43v-6.48a3.72,3.72,0,0,0-.61-2.43,2.31,2.31,0,0,0-1.84-.71,3.71,3.71,0,0,0-1.58.32,3.06,3.06,0,0,0-1.13.91V552l1.93.43V555h-8.55v-2.51l2.16-.43v-9.64Z"/><path class="cls-2" d="M1121.25,587.35a2.72,2.72,0,0,0,1.91-.65,2.25,2.25,0,0,0,.72-1.74h4l0,.08a4.7,4.7,0,0,1-1.88,3.94,8.36,8.36,0,0,1-10.56-.61,8,8,0,0,1-2-5.64v-.43a8,8,0,0,1,2.06-5.65,7.64,7.64,0,0,1,5.87-2.21,10.88,10.88,0,0,1,3.6.56,7.25,7.25,0,0,1,2.65,1.58l.07,4.15h-3.64l-.73-2.42a2.75,2.75,0,0,0-.83-.46,3.25,3.25,0,0,0-1.12-.18,2.87,2.87,0,0,0-2.68,1.3,6.36,6.36,0,0,0-.78,3.33v.43a6.74,6.74,0,0,0,.72,3.35A2.65,2.65,0,0,0,1121.25,587.35Z"/><path class="cls-2" d="M1129.75,587.75l2.16-.43v-16.5l-2.39-.43v-2.52h6.85v8.84a5.48,5.48,0,0,1,1.92-1.67,5.8,5.8,0,0,1,6.59,1c1,1.07,1.48,2.74,1.48,5v6.27l2.15.43v2.52H1140v-2.52l1.93-.43V581a3.81,3.81,0,0,0-.68-2.56,2.61,2.61,0,0,0-2-.76,4,4,0,0,0-1.63.32,3.31,3.31,0,0,0-1.17.89v8.41l1.93.43v2.52h-8.55Z"/><path class="cls-2" d="M1160.5,590.27a7.85,7.85,0,0,1-.32-.8,6.17,6.17,0,0,1-.21-.82A6.29,6.29,0,0,1,1158,590a6.18,6.18,0,0,1-2.61.53,5.68,5.68,0,0,1-3.87-1.24,4.23,4.23,0,0,1-1.43-3.38,3.8,3.8,0,0,1,1.86-3.38,10.36,10.36,0,0,1,5.49-1.19h2.28v-1.52a2.21,2.21,0,0,0-.69-1.74,3,3,0,0,0-2-.62,5.19,5.19,0,0,0-1.37.17,3.66,3.66,0,0,0-1,.39l-.29,1.67H1151v-3.45a13,13,0,0,1,2.81-1.31,11,11,0,0,1,3.46-.53,8.18,8.18,0,0,1,5,1.42,4.7,4.7,0,0,1,1.92,4v6.41c0,.24,0,.47,0,.68a5.6,5.6,0,0,0,0,.6l1.37.17v2.52Zm-3.87-2.8a4.17,4.17,0,0,0,1.84-.41,3.43,3.43,0,0,0,1.28-1v-2.37h-2.28a3.24,3.24,0,0,0-2.16.63,1.89,1.89,0,0,0-.74,1.5,1.51,1.51,0,0,0,.55,1.23A2.29,2.29,0,0,0,1156.63,587.47Z"/><path class="cls-2" d="M1167.52,587.75l2.15-.43v-9.63l-2.38-.43v-2.53h6.54l.2,2.27a4.86,4.86,0,0,1,1.51-1.88,3.5,3.5,0,0,1,2.13-.68,6.57,6.57,0,0,1,.74,0,5.29,5.29,0,0,1,.65.13l-.48,3.81-1.83,0a3.31,3.31,0,0,0-1.63.36,2.41,2.41,0,0,0-1,1v7.55l2.15.43v2.52h-8.77Z"/><path class="cls-2" d="M1187.36,570.92v3.81h2.92v2.94h-2.92v7.92a1.78,1.78,0,0,0,.4,1.29,1.49,1.49,0,0,0,1.08.39c.3,0,.57,0,.8,0a6.35,6.35,0,0,0,.77-.12l.39,3a11.68,11.68,0,0,1-1.49.32,11.24,11.24,0,0,1-1.59.11,4.31,4.31,0,0,1-4.81-5v-7.93h-2.44v-2.94h2.44v-3.81Z"/><rect class="cls-11" x="933" y="486" width="360" height="149" rx="8"/><line class="cls-6" x1="420.53" y1="344.62" x2="464.73" y2="344.62"/><polygon class="cls-7" points="450.81 361.8 447.95 358.73 463.12 344.63 447.95 330.53 450.81 327.45 469.28 344.63 450.81 361.8"/><rect class="cls-12" x="935.24" y="263" width="363.36" height="149" rx="8"/><path class="cls-4" d="M1032.42,329.06a2.76,2.76,0,0,0,1.91-.65,2.26,2.26,0,0,0,.72-1.75h4l0,.09a4.69,4.69,0,0,1-1.88,3.94,8.36,8.36,0,0,1-10.56-.61,8.05,8.05,0,0,1-2-5.65V324a7.92,7.92,0,0,1,2.06-5.64,7.64,7.64,0,0,1,5.87-2.21,10.63,10.63,0,0,1,3.6.56,7,7,0,0,1,2.65,1.58l.07,4.15h-3.64l-.73-2.43a3,3,0,0,0-.83-.45,3.25,3.25,0,0,0-1.12-.18,2.88,2.88,0,0,0-2.68,1.29,6.36,6.36,0,0,0-.78,3.33v.43a6.81,6.81,0,0,0,.72,3.36A2.65,2.65,0,0,0,1032.42,329.06Z"/><path class="cls-4" d="M1041.17,324.06a8,8,0,0,1,2.07-5.69,8.57,8.57,0,0,1,11.5,0,8,8,0,0,1,2.07,5.7v.3a8,8,0,0,1-2.07,5.71,8.59,8.59,0,0,1-11.5,0,8,8,0,0,1-2.07-5.71Zm4.47.3a6.4,6.4,0,0,0,.8,3.41,3.18,3.18,0,0,0,5.11,0,6.45,6.45,0,0,0,.8-3.41v-.3a6.3,6.3,0,0,0-.81-3.37,2.79,2.79,0,0,0-2.56-1.31,2.76,2.76,0,0,0-2.54,1.31,6.39,6.39,0,0,0-.8,3.37Z"/><path class="cls-4" d="M1058.51,329.46l2.15-.43v-9.64l-2.38-.43v-2.52h6.55l.2,2.22a6,6,0,0,1,2-1.85,5.59,5.59,0,0,1,2.72-.66,5.15,5.15,0,0,1,3.92,1.48,6.52,6.52,0,0,1,1.41,4.64V329l2.14.43V332h-8.55v-2.51l1.92-.43v-6.75a3,3,0,0,0-.68-2.22,2.84,2.84,0,0,0-2-.65,3.58,3.58,0,0,0-1.6.34,3.21,3.21,0,0,0-1.18.95V329l1.81.43V332h-8.43Z"/><path class="cls-4" d="M1078.23,319.38v-2.94h2.47v-1.07a5.53,5.53,0,0,1,1.91-4.51,8.15,8.15,0,0,1,5.37-1.59,12.41,12.41,0,0,1,2.36.22c.77.15,1.67.36,2.7.64l-.65,3.3c-.74-.21-1.42-.37-2-.48a10.85,10.85,0,0,0-2.09-.18,3.49,3.49,0,0,0-2.32.66,2.42,2.42,0,0,0-.78,1.94v1.07h10.06V329l2.37.43V332h-9v-2.51l2.16-.43v-9.65h-5.58V329l2.16.43V332h-9v-2.51l2.39-.43v-9.65Z"/><path class="cls-4" d="M1110,330.08a5.42,5.42,0,0,1-1.85,1.64,5.17,5.17,0,0,1-2.42.56,5.76,5.76,0,0,1-4.76-2.1,8.56,8.56,0,0,1-1.7-5.54v-.31a9.57,9.57,0,0,1,1.71-5.93,5.63,5.63,0,0,1,4.78-2.25,4.82,4.82,0,0,1,2.23.51,5.34,5.34,0,0,1,1.75,1.44v-5.57l-2.39-.43v-2.53h6.86V329l2.15.43V332h-6Zm-6.25-5.44a6,6,0,0,0,.73,3.21,2.58,2.58,0,0,0,2.38,1.17,3.64,3.64,0,0,0,1.7-.38,3.1,3.1,0,0,0,1.18-1.07V321a3.38,3.38,0,0,0-1.17-1.15,3.27,3.27,0,0,0-1.68-.41,2.53,2.53,0,0,0-2.39,1.36,7.38,7.38,0,0,0-.75,3.56Z"/><path class="cls-4" d="M1125.67,332.28a7.71,7.71,0,0,1-5.73-2.16,7.42,7.42,0,0,1-2.14-5.47v-.57a8.12,8.12,0,0,1,2-5.7,7.93,7.93,0,0,1,10.65-.34,7,7,0,0,1,1.86,5.13v2.29h-9.9l0,.08a4,4,0,0,0,1.09,2.53,3.55,3.55,0,0,0,2.65,1,9,9,0,0,0,2.46-.28,12.06,12.06,0,0,0,2.15-.88l1.21,2.58a9,9,0,0,1-2.66,1.28A12.17,12.17,0,0,1,1125.67,332.28Zm-.4-12.9a2.4,2.4,0,0,0-2,.89,4.5,4.5,0,0,0-.89,2.34l0,.07H1128v-.37a3.23,3.23,0,0,0-.67-2.13A2.5,2.5,0,0,0,1125.27,319.38Z"/><path class="cls-4" d="M1134.21,329.46l2.14-.43v-9.64L1134,319v-2.52h6.54l.2,2.22a5.91,5.91,0,0,1,2-1.85,5.55,5.55,0,0,1,2.71-.66,5.15,5.15,0,0,1,3.92,1.48,6.52,6.52,0,0,1,1.41,4.64V329l2.15.43V332h-8.55v-2.51l1.91-.43v-6.75a3,3,0,0,0-.67-2.22,2.85,2.85,0,0,0-2-.65,3.57,3.57,0,0,0-1.59.34,3.13,3.13,0,0,0-1.18.95V329l1.8.43V332h-8.42Z"/><path class="cls-4" d="M1161,312.63v3.81h2.91v2.94H1161v7.91a1.75,1.75,0,0,0,.39,1.29,1.49,1.49,0,0,0,1.08.39c.3,0,.57,0,.8,0l.78-.12.38,3a11.68,11.68,0,0,1-1.49.32,11.24,11.24,0,0,1-1.59.11,4.33,4.33,0,0,1-4.81-5v-7.93h-2.44v-2.94h2.44v-3.81Z"/><path class="cls-4" d="M1165.94,329.46l2.16-.43v-9.64l-2.39-.43v-2.52h6.86V329l2.15.43V332h-8.78Zm6.63-16.74h-4.47v-3.15h4.47Z"/><path class="cls-4" d="M1186.75,332a5.44,5.44,0,0,1-.32-.79,5.09,5.09,0,0,1-.22-.83,6,6,0,0,1-1.94,1.4,6.18,6.18,0,0,1-2.61.53,5.72,5.72,0,0,1-3.87-1.25,4.24,4.24,0,0,1-1.43-3.38,3.77,3.77,0,0,1,1.87-3.37,10.2,10.2,0,0,1,5.48-1.2H1186v-1.52a2.2,2.2,0,0,0-.69-1.73,2.93,2.93,0,0,0-2-.62,5.08,5.08,0,0,0-1.36.16,3.54,3.54,0,0,0-1,.4l-.29,1.66h-3.37V318a12.66,12.66,0,0,1,2.82-1.31,10.85,10.85,0,0,1,3.45-.53,8.25,8.25,0,0,1,5,1.41,4.7,4.7,0,0,1,1.93,4v7.1a5.54,5.54,0,0,0,.06.6l1.36.17V332Zm-3.88-2.8a4,4,0,0,0,1.84-.41,3.53,3.53,0,0,0,1.29-1v-2.37h-2.29a3.29,3.29,0,0,0-2.16.62,1.91,1.91,0,0,0-.73,1.5,1.52,1.52,0,0,0,.54,1.24A2.3,2.3,0,0,0,1182.87,329.17Z"/><path class="cls-4" d="M1193,312.1v-2.53h6.87V329l2.16.43V332h-8.8v-2.51l2.16-.43v-16.5Z"/><path class="cls-4" d="M1004.83,364.35a2.7,2.7,0,0,0,1.91-.65,2.25,2.25,0,0,0,.72-1.74h4l0,.08a4.71,4.71,0,0,1-1.89,3.94,8.36,8.36,0,0,1-10.56-.61,8.05,8.05,0,0,1-2-5.64v-.43a8,8,0,0,1,2.06-5.65,7.64,7.64,0,0,1,5.87-2.21,10.88,10.88,0,0,1,3.6.56,7.17,7.17,0,0,1,2.65,1.58l.07,4.15h-3.64l-.73-2.42a2.64,2.64,0,0,0-.83-.46,3.21,3.21,0,0,0-1.12-.18,2.87,2.87,0,0,0-2.68,1.3,6.36,6.36,0,0,0-.78,3.33v.43a6.74,6.74,0,0,0,.72,3.35A2.65,2.65,0,0,0,1004.83,364.35Z"/><path class="cls-4" d="M1013.58,359.36a8,8,0,0,1,2.07-5.7,8.57,8.57,0,0,1,11.5,0,8,8,0,0,1,2.07,5.71v.3a8,8,0,0,1-2.07,5.71,8.61,8.61,0,0,1-11.5,0,8,8,0,0,1-2.07-5.71Zm4.47.3a6.45,6.45,0,0,0,.8,3.41,2.81,2.81,0,0,0,2.57,1.28,2.77,2.77,0,0,0,2.54-1.29,6.34,6.34,0,0,0,.8-3.4v-.3A6.34,6.34,0,0,0,1024,356a2.79,2.79,0,0,0-2.56-1.31,2.76,2.76,0,0,0-2.54,1.31,6.43,6.43,0,0,0-.8,3.38Z"/><path class="cls-4" d="M1030.92,364.75l2.15-.43v-9.63l-2.38-.43v-2.53h6.55l.2,2.23a5.9,5.9,0,0,1,2-1.86,5.59,5.59,0,0,1,2.72-.66,5.19,5.19,0,0,1,3.92,1.48,6.54,6.54,0,0,1,1.41,4.64v6.76l2.14.43v2.52h-8.55v-2.52l1.92-.43v-6.74a3,3,0,0,0-.68-2.22,2.79,2.79,0,0,0-2-.66,3.72,3.72,0,0,0-1.6.34,3.13,3.13,0,0,0-1.18,1v8.32l1.81.43v2.52h-8.43Z"/><path class="cls-4" d="M1057.69,347.92v3.81h2.91v2.94h-2.91v7.92a1.78,1.78,0,0,0,.4,1.29,1.47,1.47,0,0,0,1.07.39c.31,0,.58,0,.81,0a6.35,6.35,0,0,0,.77-.12l.38,3a11.54,11.54,0,0,1-1.48.32,11.28,11.28,0,0,1-1.6.11,5,5,0,0,1-3.56-1.19,5,5,0,0,1-1.25-3.78v-7.93h-2.43v-2.94h2.43v-3.81Z"/><path class="cls-4" d="M1073.35,367.27a7.85,7.85,0,0,1-.32-.8,6.17,6.17,0,0,1-.21-.82,6.29,6.29,0,0,1-1.94,1.39,6.18,6.18,0,0,1-2.61.53,5.68,5.68,0,0,1-3.87-1.24A4.24,4.24,0,0,1,1063,363a3.8,3.8,0,0,1,1.87-3.38,10.36,10.36,0,0,1,5.49-1.19h2.28v-1.52a2.21,2.21,0,0,0-.69-1.74,3,3,0,0,0-2-.62,5.11,5.11,0,0,0-1.36.17,3.9,3.9,0,0,0-1,.39l-.29,1.67h-3.37l0-3.45a12.81,12.81,0,0,1,2.81-1.31,11,11,0,0,1,3.46-.53,8.18,8.18,0,0,1,5,1.42,4.7,4.7,0,0,1,1.92,4v6.41c0,.24,0,.47,0,.68a3.83,3.83,0,0,0,.05.6l1.37.17v2.52Zm-3.87-2.8a4.1,4.1,0,0,0,1.83-.41,3.46,3.46,0,0,0,1.29-1v-2.37h-2.28a3.24,3.24,0,0,0-2.16.63,1.89,1.89,0,0,0-.74,1.5A1.48,1.48,0,0,0,1068,364,2.29,2.29,0,0,0,1069.48,364.47Z"/><path class="cls-4" d="M1079.89,364.75l2.16-.43v-9.63l-2.38-.43v-2.53h6.86v12.59l2.14.43v2.52h-8.78Zm6.64-16.74h-4.48v-3.14h4.48Z"/><path class="cls-4" d="M1089.9,364.75l2.14-.43v-9.63l-2.37-.43v-2.53h6.54l.2,2.23a5.84,5.84,0,0,1,2-1.86,5.57,5.57,0,0,1,2.71-.66,5.17,5.17,0,0,1,3.92,1.48,6.49,6.49,0,0,1,1.41,4.64v6.76l2.15.43v2.52h-8.55v-2.52l1.92-.43v-6.74a3,3,0,0,0-.68-2.22,2.81,2.81,0,0,0-2-.66,3.71,3.71,0,0,0-1.59.34,3.13,3.13,0,0,0-1.18,1v8.32l1.81.43v2.52h-8.43Z"/><path class="cls-4" d="M1117.85,367.57a7.75,7.75,0,0,1-5.73-2.15,7.45,7.45,0,0,1-2.15-5.48v-.57a8.17,8.17,0,0,1,2-5.7,7,7,0,0,1,12.51,4.79v2.29h-9.89l0,.08a4,4,0,0,0,1.1,2.53,3.54,3.54,0,0,0,2.64,1,9,9,0,0,0,2.47-.28,11.63,11.63,0,0,0,2.15-.88l1.21,2.59a9.15,9.15,0,0,1-2.66,1.27A11.86,11.86,0,0,1,1117.85,367.57Zm-.4-12.9a2.39,2.39,0,0,0-2,.89,4.48,4.48,0,0,0-.89,2.35l.05.07h5.48v-.38a3.18,3.18,0,0,0-.67-2.13A2.47,2.47,0,0,0,1117.45,354.67Z"/><path class="cls-4" d="M1127,364.75l2.14-.43v-9.63l-2.37-.43v-2.53h6.54l.2,2.27a4.93,4.93,0,0,1,1.5-1.88,3.5,3.5,0,0,1,2.13-.68,6.57,6.57,0,0,1,.74.05,5.29,5.29,0,0,1,.65.13l-.47,3.81-1.84,0a3.29,3.29,0,0,0-1.62.36,2.35,2.35,0,0,0-1,1v7.55l2.14.43v2.52H1127Z"/><path class="cls-4" d="M1147.39,364.75l2.16-.43v-9.63l-2.39-.43v-2.53H1154v12.59l2.14.43v2.52h-8.78ZM1154,348h-4.48v-3.14H1154Z"/><path class="cls-4" d="M1157.12,354.26v-2.53h6.54l.19,2a5.47,5.47,0,0,1,2-1.73,6.15,6.15,0,0,1,2.78-.61,5.36,5.36,0,0,1,2.73.66,4.18,4.18,0,0,1,1.71,2,5.63,5.63,0,0,1,2-2,5.69,5.69,0,0,1,2.88-.71,4.91,4.91,0,0,1,3.87,1.59,7.06,7.06,0,0,1,1.42,4.83v6.46l2.16.43v2.52h-8.56v-2.52l1.93-.43v-6.47a3.74,3.74,0,0,0-.62-2.46,2.3,2.3,0,0,0-1.82-.69,3.25,3.25,0,0,0-1.65.4,3,3,0,0,0-1.11,1.1c0,.18,0,.33,0,.46s0,.26,0,.4v7.26l1.81.43v2.52h-8.07v-2.52l1.8-.43v-6.47a3.77,3.77,0,0,0-.61-2.44,2.31,2.31,0,0,0-1.84-.71,3.57,3.57,0,0,0-1.58.33,2.87,2.87,0,0,0-1.13.91v8.38l1.93.43v2.52h-8.55v-2.52l2.16-.43v-9.63Z"/><path class="cls-4" d="M1197.39,367.27a7.85,7.85,0,0,1-.32-.8,5,5,0,0,1-.22-.82,6,6,0,0,1-4.55,1.92,5.71,5.71,0,0,1-3.87-1.24A4.27,4.27,0,0,1,1187,363a3.78,3.78,0,0,1,1.87-3.38,10.34,10.34,0,0,1,5.49-1.19h2.28v-1.52a2.21,2.21,0,0,0-.69-1.74,3,3,0,0,0-2-.62,5.11,5.11,0,0,0-1.36.17,3.9,3.9,0,0,0-1,.39l-.29,1.67h-3.37v-3.45a13.12,13.12,0,0,1,2.82-1.31,10.9,10.9,0,0,1,3.45-.53,8.24,8.24,0,0,1,5,1.42,4.7,4.7,0,0,1,1.92,4V364a5.54,5.54,0,0,0,.06.6l1.36.17v2.52Zm-3.88-2.8a4.11,4.11,0,0,0,1.84-.41,3.55,3.55,0,0,0,1.29-1v-2.37h-2.28a3.25,3.25,0,0,0-2.17.63,1.88,1.88,0,0,0-.73,1.5A1.5,1.5,0,0,0,1192,364,2.32,2.32,0,0,0,1193.51,364.47Z"/><path class="cls-4" d="M1204.35,359.63a9.55,9.55,0,0,1,1.7-5.93,5.66,5.66,0,0,1,4.79-2.26,5.07,5.07,0,0,1,2.45.58,5.29,5.29,0,0,1,1.81,1.66l.32-1.95h3.9v15.08a6.21,6.21,0,0,1-2.07,4.9,8.22,8.22,0,0,1-5.66,1.83,11.61,11.61,0,0,1-2.66-.32,12.91,12.91,0,0,1-2.61-.88l.83-2.95a14.77,14.77,0,0,0,2.14.69,10.46,10.46,0,0,0,2.27.25,3,3,0,0,0,2.45-.94,3.82,3.82,0,0,0,.82-2.6v-1a5,5,0,0,1-1.74,1.33,5.31,5.31,0,0,1-2.28.46,5.8,5.8,0,0,1-4.76-2.1,8.52,8.52,0,0,1-1.7-5.54Zm4.47.3a6,6,0,0,0,.73,3.21,2.62,2.62,0,0,0,2.4,1.17,3.92,3.92,0,0,0,1.73-.35,2.86,2.86,0,0,0,1.15-1v-6.75a3,3,0,0,0-1.15-1.09,3.47,3.47,0,0,0-1.7-.39,2.54,2.54,0,0,0-2.4,1.37,7.23,7.23,0,0,0-.76,3.56Z"/><path class="cls-4" d="M1229.93,367.57a7.75,7.75,0,0,1-5.73-2.15,7.44,7.44,0,0,1-2.14-5.48v-.57a8.12,8.12,0,0,1,2-5.7,7.93,7.93,0,0,1,10.66-.33,7,7,0,0,1,1.85,5.12v2.29h-9.9l0,.08a3.91,3.91,0,0,0,1.1,2.53,3.52,3.52,0,0,0,2.64,1,9.08,9.08,0,0,0,2.47-.28,11.29,11.29,0,0,0,2.14-.88l1.21,2.59a9,9,0,0,1-2.66,1.27A11.81,11.81,0,0,1,1229.93,367.57Zm-.39-12.9a2.41,2.41,0,0,0-2,.89,4.48,4.48,0,0,0-.88,2.35l0,.07h5.49v-.38a3.18,3.18,0,0,0-.67-2.13A2.48,2.48,0,0,0,1229.54,354.67Z"/><line class="cls-6" x1="868.53" y1="344.62" x2="912.73" y2="344.62"/><polygon class="cls-7" points="898.81 361.8 895.95 358.73 911.12 344.63 895.95 330.53 898.81 327.45 917.28 344.63 898.81 361.8"/><line class="cls-6" x1="1316.53" y1="344.62" x2="1360.73" y2="344.62"/><polygon class="cls-7" points="1346.81 361.8 1343.95 358.73 1359.12 344.63 1343.95 330.53 1346.81 327.45 1365.28 344.63 1346.81 361.8"/><line class="cls-6" x1="1316.53" y1="560.62" x2="1360.73" y2="560.62"/><polygon class="cls-7" points="1346.81 577.8 1343.95 574.73 1359.12 560.63 1343.95 546.53 1346.81 543.45 1365.28 560.63 1346.81 577.8"/><path class="cls-13" d="M1098.32,238a26.8,26.8,0,1,1-8,19.1,26.21,26.21,0,0,1,5.5-16.2"/><path class="cls-14" d="M1116.42,270.13h-9.7c-1.3,0-1.8-.5-1.8-1.8v-14.8c0-1.3.5-1.8,1.8-1.8H1126c1.3,0,1.8.5,1.8,1.8v14.8c0,1.3-.5,1.8-1.8,1.8C1122.82,270.23,1119.62,270.13,1116.42,270.13Z"/><path class="cls-14" d="M1106.52,252.43c.3-4.1,2-7.7,6-9.5a9.53,9.53,0,0,1,12.6,4.9c.2.5.4,1.1.6,1.6.2.9.3,1.8.5,2.7"/><path class="cls-15" d="M1114.82,263.83h0v2c0,.4.1.5.6.5h1.9c.5,0,.7-.1.7-.6V262a1.05,1.05,0,0,1,.5-.9,2.78,2.78,0,0,0,1.4-3.3,3.61,3.61,0,0,0-3.3-2.2,4,4,0,0,0-3.7,2,2.81,2.81,0,0,0,1.3,3.5,1,1,0,0,1,.6,1.1Z"/><g id="Scone_logo_white" data-name="Scone logo white"><g class="cls-16"><g class="cls-16"><path class="cls-9" d="M1053.07,87.27h-3.48a1.35,1.35,0,0,0-1.35,1.34v3.56a1.35,1.35,0,0,0,1.35,1.34h3.48a1.35,1.35,0,0,0,1.35-1.34V88.61a1.35,1.35,0,0,0-1.35-1.34m-12.14,6.24h3.49a1.34,1.34,0,0,0,1.34-1.34V88.61a1.34,1.34,0,0,0-1.34-1.34h-3.49a1.34,1.34,0,0,0-1.34,1.34v3.56a1.34,1.34,0,0,0,1.34,1.34m-3.76-1.34V88.61a1.34,1.34,0,0,0-1.34-1.34h-3.49a1.34,1.34,0,0,0-1.34,1.34v3.56a1.34,1.34,0,0,0,1.34,1.34h3.49a1.34,1.34,0,0,0,1.34-1.34M1053.34,96a1,1,0,0,0-1,1v4.16a1,1,0,0,0,2,0V97a1,1,0,0,0-1-1m-9.59,1.34v3.56a1.34,1.34,0,0,0,1.34,1.34h3.49a1.34,1.34,0,0,0,1.34-1.34V97.33a1.35,1.35,0,0,0-1.34-1.34h-3.49a1.35,1.35,0,0,0-1.34,1.34m-2.48,3.56V97.33a1.36,1.36,0,0,0-1.35-1.34h-3.49a1.35,1.35,0,0,0-1.34,1.34v3.56a1.35,1.35,0,0,0,1.34,1.34h3.49a1.35,1.35,0,0,0,1.35-1.34m11.8,3.82h-3.48a1.36,1.36,0,0,0-1.35,1.35v3.55a1.35,1.35,0,0,0,1.35,1.34h3.48a1.35,1.35,0,0,0,1.35-1.34v-3.55a1.36,1.36,0,0,0-1.35-1.35m-9,0h-3.49a1.35,1.35,0,0,0-1.34,1.35v3.55a1.34,1.34,0,0,0,1.34,1.34H1044a1.35,1.35,0,0,0,1.34-1.34v-3.55a1.36,1.36,0,0,0-1.34-1.35"/><path class="cls-9" d="M1057.3,85.86a8,8,0,0,0,5.44,1.68c.13,0,.06.13.06.27V97.4c0,3.69-4.49,6-5.57,6.58-.13.06-.13-.07-.13-.07l.07-18c-.07,0,.06-.14.13-.07"/><path class="cls-9" d="M1046.77,85.39c7.38-.27,8.59-2.82,8.59-2.82a.36.36,0,0,1,.33-.2c.14,0,.27,0,.34.14s1.14,2.75,8.52,2.75c.2,0,.27.13.27.33V98.21c0,4-7.65,8.58-7.79,8.65s-.27.2-.27.27v3.15c0,.14.47.2.68.14,2.81-1.55,10.73-5.91,10.73-11.27V83c0-.27-.47-.47-.74-.47-9.39,0-11.14-3.42-11.14-3.42-.06-.2-.4-.13-.6-.13s-.33-.07-.4.06-1.54,3.56-10.87,3.56c-.34,0-.4.13-.4.4v2s-.07.47.26.47,2.49-.14,2.49-.14"/><path class="cls-17" d="M1075.15,106l3.76-1.41a5.14,5.14,0,0,0,4.89,2.82,5.43,5.43,0,0,0,2.89-.67,2.31,2.31,0,0,0,1.21-2c0-2-2.75-3.22-4.77-4l-.13-.07a17.35,17.35,0,0,1-4.36-2.41,5.46,5.46,0,0,1-2.15-4.43,5.94,5.94,0,0,1,2.21-4.63,8.6,8.6,0,0,1,5.57-1.88,8,8,0,0,1,7.38,4l-3.89,1.47a3.09,3.09,0,0,0-1.34-1.41,5.28,5.28,0,0,0-2.15-.47c-2.14,0-3.62,1.14-3.62,2.69a3,3,0,0,0,1.48,2.41,19.84,19.84,0,0,0,3.35,1.75l.47.2c2.89,1.21,6.44,2.75,6.44,6.64a5.57,5.57,0,0,1-2.55,4.76,10.26,10.26,0,0,1-6.1,1.75c-4-.07-7.32-2-8.59-5.1"/><path class="cls-17" d="M1108.43,111a12,12,0,0,1-4.63-.94,10.91,10.91,0,0,1-3.76-2.55,11,11,0,0,1-2.55-3.76,11.85,11.85,0,0,1,0-9.25,11,11,0,0,1,2.55-3.76,10.91,10.91,0,0,1,3.76-2.55,12,12,0,0,1,4.63-.94,11.54,11.54,0,0,1,5.37,1.27,12,12,0,0,1,4.09,3.43l-3.16,2.34A8.22,8.22,0,0,0,1112,92a8.53,8.53,0,0,0-3.62-.87,8,8,0,0,0-8,8,7.81,7.81,0,0,0,2.34,5.63,7.84,7.84,0,0,0,9.67,1.21,8.22,8.22,0,0,0,2.88-2.95l3.42,1.94a11.58,11.58,0,0,1-4.29,4.36,10.88,10.88,0,0,1-6,1.68"/><path class="cls-17" d="M1134.39,111.09a12.24,12.24,0,0,1-4.63-.94,11.11,11.11,0,0,1-3.75-2.55,11.81,11.81,0,0,1-2.55-3.76,12,12,0,0,1-.94-4.63,11,11,0,0,1,.94-4.63,11.77,11.77,0,0,1,2.55-3.75,12.18,12.18,0,0,1,3.75-2.55,11.87,11.87,0,0,1,9.26,0,10.77,10.77,0,0,1,3.76,2.55,11.93,11.93,0,0,1,2.55,3.75,11.87,11.87,0,0,1,0,9.26,12,12,0,0,1-2.55,3.76,12.59,12.59,0,0,1-3.76,2.55,12.2,12.2,0,0,1-4.63.94m0-19.93a7.7,7.7,0,0,0-5.63,2.35,8,8,0,0,0-2.35,5.64,7.66,7.66,0,0,0,2.35,5.63,7.93,7.93,0,0,0,11.27,0,7.94,7.94,0,0,0,2.35-5.63,8.07,8.07,0,0,0-2.35-5.64,8,8,0,0,0-5.64-2.35"/><polygon class="cls-17" points="1173.24 87.47 1173.24 111.63 1156.6 96.33 1156.6 110.69 1152.38 110.69 1152.38 86.6 1169.01 101.96 1169.01 87.47 1173.24 87.47"/><polygon class="cls-17" points="1184.58 91.03 1184.58 97.2 1196.19 97.2 1196.19 100.82 1184.58 100.82 1184.58 107.06 1197.6 107.06 1197.6 110.69 1180.35 110.69 1180.35 87.47 1197.6 87.47 1197.6 91.09 1184.58 91.09 1184.58 91.03"/></g></g></g><g id="Scone_logo_white-2" data-name="Scone logo white"><g class="cls-18"><g class="cls-18"><path class="cls-9" d="M1455.07,124.27h-3.48a1.35,1.35,0,0,0-1.35,1.34v3.56a1.35,1.35,0,0,0,1.35,1.34h3.48a1.35,1.35,0,0,0,1.35-1.34v-3.56a1.35,1.35,0,0,0-1.35-1.34m-12.14,6.24h3.49a1.34,1.34,0,0,0,1.34-1.34v-3.56a1.34,1.34,0,0,0-1.34-1.34h-3.49a1.34,1.34,0,0,0-1.34,1.34v3.56a1.34,1.34,0,0,0,1.34,1.34m-3.76-1.34v-3.56a1.34,1.34,0,0,0-1.34-1.34h-3.49a1.34,1.34,0,0,0-1.34,1.34v3.56a1.34,1.34,0,0,0,1.34,1.34h3.49a1.34,1.34,0,0,0,1.34-1.34m16.17,3.82a1,1,0,0,0-1,1v4.16a1,1,0,0,0,2,0V134a1,1,0,0,0-1-1m-9.59,1.34v3.56a1.34,1.34,0,0,0,1.34,1.34h3.49a1.34,1.34,0,0,0,1.34-1.34v-3.56a1.35,1.35,0,0,0-1.34-1.34h-3.49a1.35,1.35,0,0,0-1.34,1.34m-2.48,3.56v-3.56a1.36,1.36,0,0,0-1.35-1.34h-3.49a1.35,1.35,0,0,0-1.34,1.34v3.56a1.35,1.35,0,0,0,1.34,1.34h3.49a1.35,1.35,0,0,0,1.35-1.34m11.8,3.82h-3.48a1.36,1.36,0,0,0-1.35,1.35v3.55a1.35,1.35,0,0,0,1.35,1.34h3.48a1.35,1.35,0,0,0,1.35-1.34v-3.55a1.36,1.36,0,0,0-1.35-1.35m-9,0h-3.49a1.35,1.35,0,0,0-1.34,1.35v3.55a1.34,1.34,0,0,0,1.34,1.34H1446a1.35,1.35,0,0,0,1.34-1.34v-3.55a1.36,1.36,0,0,0-1.34-1.35"/><path class="cls-9" d="M1459.3,122.86a8,8,0,0,0,5.44,1.68c.13,0,.06.13.06.27v9.59c0,3.69-4.49,6-5.57,6.58-.13.06-.13-.07-.13-.07l.07-18c-.07,0,.06-.14.13-.07"/><path class="cls-9" d="M1448.77,122.39c7.38-.27,8.59-2.82,8.59-2.82a.36.36,0,0,1,.33-.2c.14,0,.27,0,.34.14s1.14,2.75,8.52,2.75c.2,0,.27.13.27.33v12.62c0,4-7.65,8.58-7.79,8.65s-.27.2-.27.27v3.15c0,.14.47.2.68.14,2.81-1.55,10.73-5.91,10.73-11.27V120c0-.27-.47-.47-.74-.47-9.39,0-11.14-3.42-11.14-3.42-.06-.2-.4-.13-.6-.13s-.33-.07-.4.06-1.54,3.56-10.87,3.56c-.34,0-.4.13-.4.4v2s-.07.47.26.47,2.49-.14,2.49-.14"/><path class="cls-17" d="M1477.15,143l3.76-1.41a5.14,5.14,0,0,0,4.89,2.82,5.43,5.43,0,0,0,2.89-.67,2.31,2.31,0,0,0,1.21-2c0-2-2.75-3.22-4.77-4l-.13-.07a17.35,17.35,0,0,1-4.36-2.41,5.46,5.46,0,0,1-2.15-4.43,5.94,5.94,0,0,1,2.21-4.63,8.6,8.6,0,0,1,5.57-1.88,8,8,0,0,1,7.38,4l-3.89,1.47a3.09,3.09,0,0,0-1.34-1.41,5.28,5.28,0,0,0-2.15-.47c-2.14,0-3.62,1.14-3.62,2.69a3,3,0,0,0,1.48,2.41,19.84,19.84,0,0,0,3.35,1.75l.47.2c2.89,1.21,6.44,2.75,6.44,6.64a5.57,5.57,0,0,1-2.55,4.76,10.26,10.26,0,0,1-6.1,1.75c-4-.07-7.32-2-8.59-5.1"/><path class="cls-17" d="M1510.43,148a12,12,0,0,1-4.63-.94,10.91,10.91,0,0,1-3.76-2.55,11,11,0,0,1-2.55-3.76,11.85,11.85,0,0,1,0-9.25,11,11,0,0,1,2.55-3.76,10.91,10.91,0,0,1,3.76-2.55,12,12,0,0,1,4.63-.94,11.54,11.54,0,0,1,5.37,1.27,12,12,0,0,1,4.09,3.43l-3.16,2.34A8.22,8.22,0,0,0,1514,129a8.53,8.53,0,0,0-3.62-.87,8,8,0,0,0-8,8,7.81,7.81,0,0,0,2.34,5.63,7.84,7.84,0,0,0,9.67,1.21,8.22,8.22,0,0,0,2.88-3l3.42,1.94a11.58,11.58,0,0,1-4.29,4.36,10.88,10.88,0,0,1-6,1.68"/><path class="cls-17" d="M1536.39,148.09a12.24,12.24,0,0,1-4.63-.94,11.11,11.11,0,0,1-3.75-2.55,11.81,11.81,0,0,1-2.55-3.76,12,12,0,0,1-.94-4.63,11,11,0,0,1,.94-4.63,11.77,11.77,0,0,1,2.55-3.75,12.18,12.18,0,0,1,3.75-2.55,11.87,11.87,0,0,1,9.26,0,10.77,10.77,0,0,1,3.76,2.55,11.93,11.93,0,0,1,2.55,3.75,11.87,11.87,0,0,1,0,9.26,12,12,0,0,1-2.55,3.76,12.59,12.59,0,0,1-3.76,2.55,12.2,12.2,0,0,1-4.63.94m0-19.93a7.7,7.7,0,0,0-5.63,2.35,8,8,0,0,0-2.35,5.64,7.66,7.66,0,0,0,2.35,5.63,7.93,7.93,0,0,0,11.27,0,7.94,7.94,0,0,0,2.35-5.63,8.07,8.07,0,0,0-2.35-5.64,8,8,0,0,0-5.64-2.35"/><polygon class="cls-17" points="1575.24 124.47 1575.24 148.63 1558.6 133.33 1558.6 147.69 1554.38 147.69 1554.38 123.6 1571.01 138.96 1571.01 124.47 1575.24 124.47"/><polygon class="cls-17" points="1586.58 128.03 1586.58 134.2 1598.19 134.2 1598.19 137.82 1586.58 137.82 1586.58 144.06 1599.6 144.06 1599.6 147.69 1582.35 147.69 1582.35 124.47 1599.6 124.47 1599.6 128.09 1586.58 128.09 1586.58 128.03"/></g></g></g><path class="cls-19" d="M1058.61,580.39c-1.25,0-2.29,2.69-2.29,6s1,6,2.29,6,2.3-2.69,2.3-6S1059.87,580.39,1058.61,580.39Z"/><path class="cls-19" d="M1030.17,553.06h3.61v4.88h4.35v-4.88h3.6v13.71h-3.6v-5.23h-4.35v5.23h-3.61Zm15.7,13.71V553.06h8.52v3h-4.92v2.22h4.35v3h-4.35v2.51h4.92v2.95Zm12.45,0V553.06h3.61v10.08h4.93v3.63Zm14.13-13.71,5.59,5.08,5.57-5.08h1.62v13.71h-3.62v-7L1078,563l-3.6-3.26v7h-3.63V553.06Z"/><path class="cls-19" d="M1070.94,576.11c1-.73,3.42.89,5.34,3.62s2.62,5.52,1.58,6.25-3.42-.89-5.34-3.63S1069.9,576.84,1070.94,576.11Z"/><path class="cls-19" d="M1046.29,576.11c-1-.73-3.43.89-5.34,3.62s-2.62,5.52-1.58,6.25,3.42-.89,5.33-3.63S1047.32,576.84,1046.29,576.11Z"/><path class="cls-19" d="M1070.94,544.3c1,.73,3.42-.89,5.34-3.63s2.62-5.51,1.58-6.24-3.42.89-5.34,3.62S1069.9,543.57,1070.94,544.3Z"/><path class="cls-19" d="M1046.29,544.3c-1,.73-3.41-.89-5.32-3.63s-2.62-5.51-1.59-6.24,3.43.89,5.34,3.62S1047.32,543.57,1046.29,544.3Z"/><path class="cls-19" d="M1058.61,540c-1.25,0-2.29-2.7-2.29-6s1-6,2.29-6,2.3,2.7,2.3,6S1059.87,540,1058.61,540Z"/><path class="cls-20" d="M1059.52,583.63a22.82,22.82,0,0,1-19.38-8.67l2.85-2.25a19.09,19.09,0,0,0,31.49-2.08l3.13,1.86A22.78,22.78,0,0,1,1059.52,583.63Zm14.25-34a19.12,19.12,0,0,0-32.52,1.65l-3.18-1.76a22.77,22.77,0,0,1,30-9.45,23.26,23.26,0,0,1,8.64,7.49Z"/><path class="cls-19" d="M1030.17,553.06h3.61v4.88h4.35v-4.88h3.6v13.71h-3.6v-5.23h-4.35v5.23h-3.61Zm15.7,13.71V553.06h8.52v3h-4.92v2.22h4.35v3h-4.35v2.51h4.92v2.95Zm12.45,0V553.06h3.61v10.08h4.93v3.63Zm14.13-13.71,5.59,5.08,5.57-5.08h1.62v13.71h-3.62v-7L1078,563l-3.6-3.26v7h-3.63V553.06Z"/><path class="cls-19" d="M1070.94,544.3c1,.73,3.42-.89,5.34-3.63s2.62-5.51,1.58-6.24-3.42.89-5.34,3.62S1069.9,543.57,1070.94,544.3Z"/><path class="cls-19" d="M1046.29,544.3c-1,.73-3.41-.89-5.32-3.63s-2.62-5.51-1.59-6.24,3.43.89,5.34,3.62S1047.32,543.57,1046.29,544.3Z"/><path class="cls-19" d="M1058.61,540c-1.25,0-2.29-2.7-2.29-6s1-6,2.29-6,2.3,2.7,2.3,6S1059.87,540,1058.61,540Z"/><rect class="cls-4" x="1037.11" y="548.07" width="43.14" height="2.99"/><rect class="cls-4" x="1037.11" y="571.27" width="43.14" height="2.55"/><rect class="cls-4" x="1037.11" y="568.7" width="43.14" height="2.55"/><path class="cls-19" d="M1476.61,580.39c-1.25,0-2.29,2.69-2.29,6s1,6,2.29,6,2.3-2.69,2.3-6S1477.87,580.39,1476.61,580.39Z"/><path class="cls-19" d="M1448.17,553.06h3.61v4.88h4.35v-4.88h3.6v13.71h-3.6v-5.23h-4.35v5.23h-3.61Zm15.7,13.71V553.06h8.52v3h-4.92v2.22h4.35v3h-4.35v2.51h4.92v2.95Zm12.45,0V553.06h3.61v10.08h4.93v3.63Zm14.13-13.71,5.59,5.08,5.57-5.08h1.62v13.71h-3.62v-7L1496,563l-3.6-3.26v7h-3.63V553.06Z"/><path class="cls-19" d="M1488.94,576.11c1-.73,3.42.89,5.34,3.62s2.62,5.52,1.58,6.25-3.42-.89-5.34-3.63S1487.9,576.84,1488.94,576.11Z"/><path class="cls-19" d="M1464.29,576.11c-1-.73-3.43.89-5.34,3.62s-2.62,5.52-1.58,6.25,3.42-.89,5.33-3.63S1465.32,576.84,1464.29,576.11Z"/><path class="cls-19" d="M1488.94,544.3c1,.73,3.42-.89,5.34-3.63s2.62-5.51,1.58-6.24-3.42.89-5.34,3.62S1487.9,543.57,1488.94,544.3Z"/><path class="cls-19" d="M1464.29,544.3c-1,.73-3.41-.89-5.32-3.63s-2.62-5.51-1.59-6.24,3.43.89,5.34,3.62S1465.32,543.57,1464.29,544.3Z"/><path class="cls-19" d="M1476.61,540c-1.25,0-2.29-2.7-2.29-6s1-6,2.29-6,2.3,2.7,2.3,6S1477.87,540,1476.61,540Z"/><path class="cls-20" d="M1477.52,583.63a22.82,22.82,0,0,1-19.38-8.67l2.85-2.25a19.09,19.09,0,0,0,31.49-2.08l3.13,1.86A22.78,22.78,0,0,1,1477.52,583.63Zm14.25-34a19.12,19.12,0,0,0-32.52,1.65l-3.18-1.76a22.77,22.77,0,0,1,30-9.45,23.26,23.26,0,0,1,8.64,7.49Z"/><path class="cls-19" d="M1448.17,553.06h3.61v4.88h4.35v-4.88h3.6v13.71h-3.6v-5.23h-4.35v5.23h-3.61Zm15.7,13.71V553.06h8.52v3h-4.92v2.22h4.35v3h-4.35v2.51h4.92v2.95Zm12.45,0V553.06h3.61v10.08h4.93v3.63Zm14.13-13.71,5.59,5.08,5.57-5.08h1.62v13.71h-3.62v-7L1496,563l-3.6-3.26v7h-3.63V553.06Z"/><path class="cls-19" d="M1488.94,544.3c1,.73,3.42-.89,5.34-3.63s2.62-5.51,1.58-6.24-3.42.89-5.34,3.62S1487.9,543.57,1488.94,544.3Z"/><path class="cls-19" d="M1464.29,544.3c-1,.73-3.41-.89-5.32-3.63s-2.62-5.51-1.59-6.24,3.43.89,5.34,3.62S1465.32,543.57,1464.29,544.3Z"/><path class="cls-19" d="M1476.61,540c-1.25,0-2.29-2.7-2.29-6s1-6,2.29-6,2.3,2.7,2.3,6S1477.87,540,1476.61,540Z"/><rect class="cls-4" x="1455.11" y="548.07" width="43.14" height="2.99"/><rect class="cls-4" x="1455.11" y="571.27" width="43.14" height="2.55"/><rect class="cls-4" x="1455.11" y="568.7" width="43.14" height="2.55"/></svg>