<svg id="Ebene_1" data-name="Ebene 1" xmlns="http://www.w3.org/2000/svg" xmlns:xlink="http://www.w3.org/1999/xlink" viewBox="0 0 740 417"><defs><style>.cls-1,.cls-10,.cls-13,.cls-21,.cls-24,.cls-25,.cls-26,.cls-27,.cls-28,.cls-3,.cls-30,.cls-31,.cls-7{fill:none;}.cls-2,.cls-8{fill:#635384;}.cls-2{opacity:0.3;}.cls-12,.cls-3{stroke:#635384;}.cls-13,.cls-15,.cls-16,.cls-22,.cls-24,.cls-25,.cls-26,.cls-27,.cls-28,.cls-29,.cls-3,.cls-30,.cls-31,.cls-4{stroke-miterlimit:10;}.cls-12,.cls-13,.cls-15,.cls-16,.cls-20,.cls-21,.cls-22,.cls-24,.cls-25,.cls-26,.cls-27,.cls-28,.cls-29,.cls-3,.cls-30,.cls-31,.cls-4{stroke-width:2px;}.cls-3{opacity:0.6;}.cls-12,.cls-15,.cls-20,.cls-29,.cls-4,.cls-5{fill:#fff;}.cls-4{stroke:#39f;}.cls-6{fill:#306;}.cls-10,.cls-13,.cls-15,.cls-24,.cls-7{stroke:#306;}.cls-12,.cls-20,.cls-21,.cls-7{stroke-linecap:round;}.cls-10,.cls-12,.cls-20,.cls-21,.cls-7{stroke-linejoin:round;}.cls-9{fill:#fc0;}.cls-11{fill:#906;}.cls-14{fill:#39f;}.cls-16,.cls-20,.cls-21,.cls-25{stroke:#fc0;}.cls-16{fill:url(#Unbenannter_Verlauf_12);}.cls-17{clip-path:url(#clip-path);}.cls-18{fill:#ffd138;}.cls-19{fill:#fdfeff;}.cls-22,.cls-26{stroke:#906;}.cls-22{fill:url(#Unbenannter_Verlauf_12-2);}.cls-23{clip-path:url(#clip-path-3);}.cls-24{opacity:0.2;}.cls-27,.cls-28,.cls-29,.cls-30,.cls-31{stroke:#f63;}.cls-28{stroke-dasharray:1.97 1.97;}.cls-30{stroke-dasharray:1.89 1.89;}.cls-31{stroke-dasharray:1.98 1.98;}</style><linearGradient id="Unbenannter_Verlauf_12" x1="266" y1="104.26" x2="157" y2="104.26" gradientUnits="userSpaceOnUse"><stop offset="0" stop-color="#906"/><stop offset="0.19" stop-color="#780066"/><stop offset="0.4" stop-color="#5a0066"/><stop offset="0.61" stop-color="#406"/><stop offset="0.81" stop-color="#370066"/><stop offset="1" stop-color="#306"/></linearGradient><clipPath id="clip-path"><rect class="cls-1" x="190" y="127" width="36.34" height="7.12"/></clipPath><linearGradient id="Unbenannter_Verlauf_12-2" x1="489" y1="104.26" x2="380" y2="104.26" xlink:href="#Unbenannter_Verlauf_12"/><clipPath id="clip-path-3"><rect class="cls-1" x="414" y="127" width="36.34" height="7.12"/></clipPath></defs><title>Import &amp;amp; Export</title><rect class="cls-2" x="143" y="53" width="450" height="100" rx="5"/><rect class="cls-3" x="128" y="25" width="480" height="295" rx="5"/><rect class="cls-4" x="294" y="69" width="57" height="69" rx="5" transform="translate(645 207) rotate(180)"/><path class="cls-5" d="M51.19,112.22a1,1,0,0,1-1-1V106.5a5.44,5.44,0,0,1,1.75-4,5.7,5.7,0,0,1,3.88-1.68v-.34a9.58,9.58,0,0,1-2.9-2,9.18,9.18,0,0,1-2.64-5.26,3.36,3.36,0,0,1-2.44-3A4.54,4.54,0,0,1,45.08,86a4.61,4.61,0,0,1,1.66-3.5,4.06,4.06,0,0,1-.09-.83A3.33,3.33,0,0,1,50,78.35l.38,0a11.22,11.22,0,0,1,9.46-5.14A10.45,10.45,0,0,1,70.29,83.68v4.11A3.47,3.47,0,0,1,71.08,90a3.37,3.37,0,0,1-2.45,3.23,9.22,9.22,0,0,1-5.31,7.15v.43A5.43,5.43,0,0,1,67,102.52a5.75,5.75,0,0,1,1.68,4v4.72a1,1,0,0,1-1,1Z"/><path class="cls-6" d="M59.85,74.24a9.47,9.47,0,0,1,9.44,9.44V88h-.22a2.38,2.38,0,0,1-1.35,4.32v-.4a8.19,8.19,0,0,1-5.4,7.75v2.09H63a4.44,4.44,0,0,1,3.31,1.42,4.72,4.72,0,0,1,1.42,3.3v4.72H51.19V106.5a4.4,4.4,0,0,1,1.42-3.3,4.67,4.67,0,0,1,3.3-1.42h.91v-2l-.12,0a9,9,0,0,1-3.07-2,8.24,8.24,0,0,1-2.44-5.83v.4A2.36,2.36,0,0,1,48.83,90c0-.16.08-.32.08-.48A3.55,3.55,0,0,1,46.08,86,3.67,3.67,0,0,1,48,82.89a2.07,2.07,0,0,1-.31-1.18A2.32,2.32,0,0,1,50,79.35a2.81,2.81,0,0,1,.87.16,10.22,10.22,0,0,1,9-5.27m0-2a12.24,12.24,0,0,0-10,5.12,4.3,4.3,0,0,0-4.22,4.35c0,.14,0,.3,0,.46a5.53,5.53,0,0,0,1.25,8.71A4.4,4.4,0,0,0,49.39,94a10.4,10.4,0,0,0,4.1,6.31,6.89,6.89,0,0,0-2.26,1.49,6.43,6.43,0,0,0-2,4.75v4.72a2,2,0,0,0,2,2H67.72a2,2,0,0,0,2-2V106.5a6.77,6.77,0,0,0-2-4.69,6.34,6.34,0,0,0-2.27-1.55,10.26,10.26,0,0,0,4-6.31,4.37,4.37,0,0,0,2.56-4,4.46,4.46,0,0,0-.79-2.53V83.68A11.45,11.45,0,0,0,59.85,72.24Z"/><path class="cls-6" d="M63.23,88.84a.77.77,0,0,1,.72.72.72.72,0,1,1-.72-.72Z"/><circle class="cls-6" cx="55.48" cy="89.56" r="0.72"/><path class="cls-7" d="M57.27,95.23a2.51,2.51,0,0,0,2.08,1.08,2.64,2.64,0,0,0,2.09-1.08"/><path class="cls-6" d="M21.31,128.34a1,1,0,0,0,.75-.27,1,1,0,0,0,.28-.73h1.58l0,0A2,2,0,0,1,23.2,129a2.76,2.76,0,0,1-1.89.66,2.8,2.8,0,0,1-2.23-.92,3.49,3.49,0,0,1-.78-2.35v-.18a3.44,3.44,0,0,1,.8-2.34,2.88,2.88,0,0,1,2.3-.93,3.84,3.84,0,0,1,1.4.24,2.65,2.65,0,0,1,1,.66l0,1.72H22.44l-.28-1a1.3,1.3,0,0,0-.33-.19,1.14,1.14,0,0,0-.43-.07,1.1,1.1,0,0,0-1,.54,2.82,2.82,0,0,0-.3,1.38v.18a3,3,0,0,0,.28,1.4A1,1,0,0,0,21.31,128.34Z"/><path class="cls-6" d="M24.54,121.28v-1h2.68v8.1l.84.18v1H24.63v-1l.84-.18v-6.87Z"/><path class="cls-6" d="M28.51,126.26a3.44,3.44,0,0,1,.81-2.37,3.16,3.16,0,0,1,4.48,0,3.44,3.44,0,0,1,.81,2.37v.12a3.45,3.45,0,0,1-.81,2.38,2.82,2.82,0,0,1-2.23.92,2.85,2.85,0,0,1-2.25-.92,3.45,3.45,0,0,1-.81-2.38Zm1.75.12a2.77,2.77,0,0,0,.31,1.42,1.19,1.19,0,0,0,2,0,2.79,2.79,0,0,0,.31-1.42v-.12a2.83,2.83,0,0,0-.31-1.41,1.08,1.08,0,0,0-1-.54,1,1,0,0,0-1,.54,2.83,2.83,0,0,0-.31,1.41Z"/><path class="cls-6" d="M39.9,128.73a2.14,2.14,0,0,1-.77.7,2.08,2.08,0,0,1-1,.25,2,2,0,0,1-1.61-.66,3,3,0,0,1-.58-2v-2.67l-.71-.18v-1.06h2.46V127a1.65,1.65,0,0,0,.24,1,.81.81,0,0,0,.7.31,1.73,1.73,0,0,0,.71-.13,1.28,1.28,0,0,0,.5-.39v-3.48l-.77-.18v-1.06h2.51v5.25l.79.18v1H40Z"/><path class="cls-6" d="M47.22,128.76a2.15,2.15,0,0,1-.72.69,2,2,0,0,1-1,.23,2.19,2.19,0,0,1-1.85-.87A3.77,3.77,0,0,1,43,126.5v-.13a4.22,4.22,0,0,1,.66-2.47,2.16,2.16,0,0,1,1.86-.94,1.82,1.82,0,0,1,.88.22,2.14,2.14,0,0,1,.68.6v-2.32l-.93-.18v-1h2.68v8.1l.83.18v1H47.35Zm-2.44-2.26a2.62,2.62,0,0,0,.29,1.33,1,1,0,0,0,.93.49,1.4,1.4,0,0,0,.66-.15,1.32,1.32,0,0,0,.46-.45V125a1.41,1.41,0,0,0-.46-.48,1.23,1.23,0,0,0-.65-.17,1,1,0,0,0-.93.57,3.16,3.16,0,0,0-.3,1.48Z"/><path class="cls-6" d="M53.13,124.14v-1.06h2.53l.09.76a2.1,2.1,0,0,1,.68-.65,1.9,1.9,0,0,1,.94-.23,2.16,2.16,0,0,1,1.86.94,4.22,4.22,0,0,1,.66,2.47v.13a3.77,3.77,0,0,1-.66,2.31,2.19,2.19,0,0,1-1.85.87,2.06,2.06,0,0,1-.91-.19,2,2,0,0,1-.67-.55v1.87l.84.18v1H53.22v-1l.84-.18v-6.49Zm5,2.23a3,3,0,0,0-.31-1.48,1,1,0,0,0-.93-.57,1.38,1.38,0,0,0-.67.16,1.15,1.15,0,0,0-.44.46v2.84a1.11,1.11,0,0,0,.44.42,1.52,1.52,0,0,0,.68.14,1,1,0,0,0,.93-.5,2.58,2.58,0,0,0,.3-1.34Z"/><path class="cls-6" d="M60.8,128.51l.84-.18v-4l-.93-.18v-1.06h2.56l.07,1a2,2,0,0,1,.59-.78,1.31,1.31,0,0,1,.83-.29l.29,0a1.22,1.22,0,0,1,.25.05l-.18,1.59-.72,0a1.22,1.22,0,0,0-.63.15.91.91,0,0,0-.38.42v3.15l.83.18v1H60.8Z"/><path class="cls-6" d="M65.71,126.26a3.44,3.44,0,0,1,.8-2.37,3.17,3.17,0,0,1,4.49,0,3.44,3.44,0,0,1,.81,2.37v.12a3.45,3.45,0,0,1-.81,2.38,3.2,3.2,0,0,1-4.49,0,3.45,3.45,0,0,1-.8-2.38Zm1.74.12a2.77,2.77,0,0,0,.31,1.42,1.07,1.07,0,0,0,1,.54,1,1,0,0,0,1-.54,2.79,2.79,0,0,0,.32-1.42v-.12a2.83,2.83,0,0,0-.32-1.41,1.19,1.19,0,0,0-2,0,2.83,2.83,0,0,0-.31,1.41Z"/><path class="cls-6" d="M75.22,124.14l-.61.11.86,2.89.11.61h0l.12-.61.84-2.88-.62-.12v-1.06H78.9v1.06l-.56.09-1.91,5.32H74.76l-1.91-5.32-.56-.09v-1.06h2.93Z"/><path class="cls-6" d="M79.4,128.51l.84-.18v-4l-.93-.18v-1.06H82v5.25l.84.18v1H79.4Zm2.59-7H80.24v-1.31H82Z"/><path class="cls-6" d="M87.61,128.76a2.35,2.35,0,0,1-.72.69,2,2,0,0,1-1,.23,2.2,2.2,0,0,1-1.86-.87,3.77,3.77,0,0,1-.66-2.31v-.13a4.15,4.15,0,0,1,.67-2.47A2.16,2.16,0,0,1,86,123a1.78,1.78,0,0,1,.87.22,2.17,2.17,0,0,1,.69.6v-2.32l-.94-.18v-1h2.68v8.1l.84.18v1H87.74Zm-2.44-2.26a2.63,2.63,0,0,0,.28,1.33,1,1,0,0,0,.93.49,1.22,1.22,0,0,0,1.13-.6V125a1.51,1.51,0,0,0-.46-.48,1.27,1.27,0,0,0-.66-.17,1,1,0,0,0-.93.57,3.3,3.3,0,0,0-.29,1.48Z"/><path class="cls-6" d="M93.74,129.68a2.92,2.92,0,0,1-2.24-.9,3.25,3.25,0,0,1-.83-2.28v-.24a3.52,3.52,0,0,1,.79-2.37,3,3,0,0,1,4.16-.14,3.06,3.06,0,0,1,.72,2.14v1H92.48v0a1.71,1.71,0,0,0,.42,1.06,1.37,1.37,0,0,0,1,.41,3.3,3.3,0,0,0,1-.12,4.16,4.16,0,0,0,.84-.37l.47,1.08a3.49,3.49,0,0,1-1,.53A4.23,4.23,0,0,1,93.74,129.68Zm-.16-5.37a.9.9,0,0,0-.76.37,2,2,0,0,0-.35,1l0,0h2.14v-.16a1.43,1.43,0,0,0-.26-.89A.93.93,0,0,0,93.58,124.31Z"/><path class="cls-6" d="M97.3,128.51l.83-.18v-4l-.92-.18v-1.06h2.55l.08,1a1.9,1.9,0,0,1,.58-.78,1.31,1.31,0,0,1,.83-.29,1.43,1.43,0,0,1,.29,0,1.33,1.33,0,0,1,.26.05l-.19,1.59-.71,0a1.24,1.24,0,0,0-.64.15,1,1,0,0,0-.38.42v3.15l.84.18v1H97.3Z"/><path class="cls-6" d="M631.45,234.56h-1.17l-.19-.81a1.57,1.57,0,0,0-.45-.24,1.89,1.89,0,0,0-.6-.09,1.24,1.24,0,0,0-.73.2.63.63,0,0,0-.27.52.59.59,0,0,0,.26.49,2.79,2.79,0,0,0,1,.34,4.33,4.33,0,0,1,1.78.7,1.55,1.55,0,0,1,.58,1.28,1.71,1.71,0,0,1-.75,1.43,3.25,3.25,0,0,1-2,.55,4.06,4.06,0,0,1-1.37-.22,3.56,3.56,0,0,1-1.11-.62v-1.46h1.22l.23.85a1.14,1.14,0,0,0,.43.19,2.6,2.6,0,0,0,.56.06,1.38,1.38,0,0,0,.81-.19A.58.58,0,0,0,630,237a.59.59,0,0,0-.28-.49,2.72,2.72,0,0,0-1-.37,4.13,4.13,0,0,1-1.72-.7,1.48,1.48,0,0,1-.58-1.24,1.79,1.79,0,0,1,.67-1.4,2.74,2.74,0,0,1,1.9-.59,5.09,5.09,0,0,1,1.43.2,3,3,0,0,1,1,.52Z"/><path class="cls-6" d="M635.05,230.75v1.59h1.14v1.22h-1.14v3.29a.71.71,0,0,0,.16.54.54.54,0,0,0,.42.16h.31l.3,0,.15,1.26a4.35,4.35,0,0,1-.58.13,4,4,0,0,1-.62.05,1.86,1.86,0,0,1-1.39-.5,2.14,2.14,0,0,1-.49-1.57v-3.3h-.95v-1.22h.95v-1.59Z"/><path class="cls-6" d="M641.16,238.8a1.61,1.61,0,0,1-.12-.33,2.14,2.14,0,0,1-.09-.34,2.52,2.52,0,0,1-.75.58,2.25,2.25,0,0,1-1,.22,2.1,2.1,0,0,1-1.51-.52,1.79,1.79,0,0,1-.56-1.41,1.59,1.59,0,0,1,.73-1.4,3.8,3.8,0,0,1,2.14-.5h.89v-.63a.94.94,0,0,0-.27-.72,1.13,1.13,0,0,0-.8-.26,1.74,1.74,0,0,0-.53.07,1.5,1.5,0,0,0-.38.16l-.11.7h-1.31V233a4.9,4.9,0,0,1,1.1-.54,3.9,3.9,0,0,1,1.35-.22,3.08,3.08,0,0,1,2,.58,2,2,0,0,1,.75,1.68v3a2.11,2.11,0,0,0,0,.26l.53.07v1Zm-1.51-1.16a1.59,1.59,0,0,0,.72-.17,1.52,1.52,0,0,0,.5-.43v-1H640a1.27,1.27,0,0,0-.85.26.84.84,0,0,0-.28.63.64.64,0,0,0,.21.51A.84.84,0,0,0,639.65,237.64Z"/><path class="cls-6" d="M643.58,230.53v-1.05h2.67v5.4h.39l1-1.41-.57-.08v-1h3.18v1l-.77.17-1.16,1.6,1.63,2.46.66.14v1h-3v-1l.36-.06-1-1.6h-.75v1.48l.76.18v1h-3.34v-1l.84-.18v-6.87Z"/><path class="cls-6" d="M654.21,238.93A2.89,2.89,0,0,1,652,238a3.19,3.19,0,0,1-.84-2.28v-.23a3.54,3.54,0,0,1,.79-2.38,3,3,0,0,1,4.16-.14,3.06,3.06,0,0,1,.72,2.14v1H653v0a1.66,1.66,0,0,0,.43,1.05,1.33,1.33,0,0,0,1,.41,3.3,3.3,0,0,0,1-.12,4.7,4.7,0,0,0,.84-.36l.47,1.07a3.37,3.37,0,0,1-1,.53A4.23,4.23,0,0,1,654.21,238.93Zm-.15-5.37a.9.9,0,0,0-.77.37,2,2,0,0,0-.35,1l0,0h2.14v-.16a1.37,1.37,0,0,0-.26-.89A.92.92,0,0,0,654.06,233.56Z"/><path class="cls-6" d="M657.54,237.76l.84-.18v-6.87l-.93-.18v-1.05h2.67v3.68a2.37,2.37,0,0,1,.75-.7,2,2,0,0,1,1-.24,2,2,0,0,1,1.59.67A3.11,3.11,0,0,1,664,235v2.61l.84.18v1h-3.34v-1l.76-.18V235a1.63,1.63,0,0,0-.27-1.06,1,1,0,0,0-.79-.32,1.55,1.55,0,0,0-.64.13,1.4,1.4,0,0,0-.46.38v3.5l.76.18v1h-3.34Z"/><path class="cls-6" d="M665.36,235.51a3.48,3.48,0,0,1,.81-2.37,3.19,3.19,0,0,1,4.48,0,3.44,3.44,0,0,1,.81,2.37v.13a3.44,3.44,0,0,1-.81,2.37,2.82,2.82,0,0,1-2.23.92,2.85,2.85,0,0,1-2.25-.92,3.44,3.44,0,0,1-.81-2.37Zm1.74.13a2.79,2.79,0,0,0,.32,1.42,1.19,1.19,0,0,0,2,0,2.78,2.78,0,0,0,.31-1.41v-.13a2.83,2.83,0,0,0-.31-1.41,1.09,1.09,0,0,0-1-.54,1,1,0,0,0-1,.54,2.83,2.83,0,0,0-.32,1.41Z"/><path class="cls-6" d="M671.92,230.53v-1.05h2.67v8.1l.85.18v1H672v-1l.84-.18v-6.87Z"/><path class="cls-6" d="M680.21,238a2.15,2.15,0,0,1-.72.69,1.92,1.92,0,0,1-.94.23,2.2,2.2,0,0,1-1.86-.87,3.75,3.75,0,0,1-.66-2.31v-.13a4.22,4.22,0,0,1,.66-2.47,2.18,2.18,0,0,1,1.87-.93,1.81,1.81,0,0,1,.87.21,2,2,0,0,1,.68.6v-2.32l-.93-.18v-1.05h2.68v8.1l.84.18v1h-2.35Zm-2.43-2.26a2.63,2.63,0,0,0,.28,1.33,1,1,0,0,0,.93.49,1.4,1.4,0,0,0,.66-.15,1.32,1.32,0,0,0,.46-.45v-2.75a1.48,1.48,0,0,0-.45-.48,1.3,1.3,0,0,0-.66-.17,1,1,0,0,0-.93.57,3.17,3.17,0,0,0-.29,1.48Z"/><path class="cls-6" d="M686.35,238.93a2.92,2.92,0,0,1-2.24-.9,3.19,3.19,0,0,1-.84-2.28v-.23a3.55,3.55,0,0,1,.8-2.38,2.59,2.59,0,0,1,2.12-.92,2.63,2.63,0,0,1,2,.78,3,3,0,0,1,.73,2.14v1h-3.86l0,0a1.78,1.78,0,0,0,.43,1.05,1.35,1.35,0,0,0,1,.41,3.33,3.33,0,0,0,1-.12,4.35,4.35,0,0,0,.83-.36l.47,1.07a3.31,3.31,0,0,1-1,.53A4.27,4.27,0,0,1,686.35,238.93Zm-.16-5.37a.89.89,0,0,0-.76.37,1.88,1.88,0,0,0-.35,1l0,0h2.14v-.16a1.43,1.43,0,0,0-.26-.89A1,1,0,0,0,686.19,233.56Z"/><path class="cls-6" d="M689.9,237.76l.84-.18v-4l-.93-.18v-1h2.56l.07.94a2.09,2.09,0,0,1,.59-.78,1.3,1.3,0,0,1,.83-.28,1.46,1.46,0,0,1,.29,0l.26,0-.19,1.59-.72,0a1.22,1.22,0,0,0-.63.15.91.91,0,0,0-.38.42v3.15l.83.18v1H689.9Z"/><path class="cls-6" d="M704.5,232.88h-1.31l-.23-1.2a2.4,2.4,0,0,0-.66-.25,4,4,0,0,0-.93-.1,1.79,1.79,0,0,0-1.11.3.94.94,0,0,0-.39.78.86.86,0,0,0,.41.72,5.5,5.5,0,0,0,1.41.6,5.59,5.59,0,0,1,2.19,1.06,2.22,2.22,0,0,1,.74,1.73,2,2,0,0,1-.88,1.76,3.87,3.87,0,0,1-2.33.65,5,5,0,0,1-1.87-.33,3.78,3.78,0,0,1-1.39-.91v-1.82h1.35l.18,1.24a2.2,2.2,0,0,0,.72.36,3.52,3.52,0,0,0,1,.14,1.79,1.79,0,0,0,1.09-.29,1,1,0,0,0,.37-.79,1,1,0,0,0-.36-.8,3.41,3.41,0,0,0-1.24-.58,7.3,7.3,0,0,1-2.35-1.06,2,2,0,0,1-.79-1.69,2.08,2.08,0,0,1,.9-1.73,3.7,3.7,0,0,1,2.25-.69,5.09,5.09,0,0,1,1.83.31,4.21,4.21,0,0,1,1.39.81Z"/><path class="cls-6" d="M705.31,231.15V230.1h3.6v1.05l-.93.18v2.51h3.55v-2.51l-.93-.18V230.1h3.6v1.05l-.93.18v6.25l.93.18v1h-3.6v-1l.93-.18v-2.39H708v2.39l.93.18v1h-3.6v-1l.93-.18v-6.25Z"/><path class="cls-6" d="M715,238.8v-1.14l2.82-3a6.78,6.78,0,0,0,.86-1.18,1.94,1.94,0,0,0,.26-.89,1.37,1.37,0,0,0-.29-.9,1.06,1.06,0,0,0-.84-.35,1.09,1.09,0,0,0-.92.41,1.74,1.74,0,0,0-.32,1.09h-1.69l0,0a2.61,2.61,0,0,1,.78-2,2.92,2.92,0,0,1,2.17-.82,3.05,3.05,0,0,1,2.11.7,2.39,2.39,0,0,1,.77,1.87,2.65,2.65,0,0,1-.43,1.46,13.81,13.81,0,0,1-1.44,1.74l-1.55,1.69v0h2.26l.08-.86h1.32v2.2Z"/><path class="cls-8" d="M146,311.59a1,1,0,0,0,.75-.27,1,1,0,0,0,.28-.73h1.57l0,0a2,2,0,0,1-.73,1.64,3.1,3.1,0,0,1-4.12-.26,3.48,3.48,0,0,1-.78-2.34v-.18a3.4,3.4,0,0,1,.8-2.35,2.85,2.85,0,0,1,2.29-.92,3.94,3.94,0,0,1,1.41.23,2.61,2.61,0,0,1,1,.66l0,1.72H147.1l-.29-1a1.22,1.22,0,0,0-.32-.18,1.23,1.23,0,0,0-.44-.08,1.09,1.09,0,0,0-1,.54,2.73,2.73,0,0,0-.31,1.39v.18a2.94,2.94,0,0,0,.28,1.39A1,1,0,0,0,146,311.59Z"/><path class="cls-8" d="M149.2,304.53v-1h2.67v8.1l.85.18v1h-3.43v-1l.84-.18v-6.87Z"/><path class="cls-8" d="M153.17,309.51a3.44,3.44,0,0,1,.81-2.37,2.79,2.79,0,0,1,2.23-.92,2.82,2.82,0,0,1,2.25.92,3.44,3.44,0,0,1,.81,2.37v.12a3.45,3.45,0,0,1-.81,2.38,3.19,3.19,0,0,1-4.48,0,3.45,3.45,0,0,1-.81-2.38Zm1.74.12a2.77,2.77,0,0,0,.31,1.42,1.07,1.07,0,0,0,1,.54,1.06,1.06,0,0,0,1-.54,2.9,2.9,0,0,0,.31-1.42v-.12a2.83,2.83,0,0,0-.32-1.41,1.19,1.19,0,0,0-2,0,2.83,2.83,0,0,0-.31,1.41Z"/><path class="cls-8" d="M164.55,312a2,2,0,0,1-.76.7,2.14,2.14,0,0,1-1,.25,2,2,0,0,1-1.6-.66,3,3,0,0,1-.58-2v-2.67l-.71-.18v-1.06h2.46v3.92a1.65,1.65,0,0,0,.23,1,.82.82,0,0,0,.7.31,1.75,1.75,0,0,0,.72-.13,1.25,1.25,0,0,0,.49-.39v-3.48l-.76-.18v-1.06h2.51v5.25l.78.18v1h-2.31Z"/><path class="cls-8" d="M171.88,312a2.35,2.35,0,0,1-.72.69,2,2,0,0,1-.95.23,2.2,2.2,0,0,1-1.86-.87,3.75,3.75,0,0,1-.66-2.31v-.13a4.15,4.15,0,0,1,.67-2.47,2.15,2.15,0,0,1,1.86-.93,1.81,1.81,0,0,1,.87.21,2,2,0,0,1,.68.6v-2.32l-.93-.18v-1h2.68v8.1l.84.18v1H172Zm-2.44-2.26a2.63,2.63,0,0,0,.28,1.33,1,1,0,0,0,.93.49,1.34,1.34,0,0,0,.66-.15,1.24,1.24,0,0,0,.46-.45v-2.75a1.38,1.38,0,0,0-.45-.48,1.3,1.3,0,0,0-.66-.17,1,1,0,0,0-.93.57,3.3,3.3,0,0,0-.29,1.48Z"/><path class="cls-6" d="M20.19,234.71H19l-.19-.81a1.37,1.37,0,0,0-.45-.24,1.89,1.89,0,0,0-.6-.1,1.17,1.17,0,0,0-.73.21.63.63,0,0,0-.27.52.58.58,0,0,0,.26.48,2.69,2.69,0,0,0,1,.35,4.2,4.2,0,0,1,1.78.7,1.55,1.55,0,0,1,.58,1.28,1.69,1.69,0,0,1-.75,1.42,3.25,3.25,0,0,1-2,.56,4.32,4.32,0,0,1-1.37-.22,3.8,3.8,0,0,1-1.11-.63v-1.45h1.21l.24.84a1,1,0,0,0,.43.2,2.53,2.53,0,0,0,.56.06,1.43,1.43,0,0,0,.81-.19.59.59,0,0,0,.28-.52.64.64,0,0,0-.28-.5,2.91,2.91,0,0,0-1-.37,4,4,0,0,1-1.72-.69,1.48,1.48,0,0,1-.58-1.24,1.83,1.83,0,0,1,.66-1.41,2.83,2.83,0,0,1,1.91-.59,4.8,4.8,0,0,1,1.43.21,2.86,2.86,0,0,1,1.05.52Z"/><path class="cls-6" d="M23.79,230.9v1.58h1.14v1.23H23.79V237a.79.79,0,0,0,.15.54.57.57,0,0,0,.42.16h.32l.3-.05.15,1.26a4.35,4.35,0,0,1-.58.13,4,4,0,0,1-.62.05,1.86,1.86,0,0,1-1.39-.5,2.16,2.16,0,0,1-.49-1.57v-3.3H21.1v-1.23h.95V230.9Z"/><path class="cls-6" d="M29.9,239c0-.11-.09-.22-.13-.33s-.06-.23-.08-.35a2.3,2.3,0,0,1-.76.58,2.42,2.42,0,0,1-2.53-.29,1.85,1.85,0,0,1-.55-1.41,1.58,1.58,0,0,1,.73-1.4,3.78,3.78,0,0,1,2.14-.5h.89v-.63a1,1,0,0,0-.27-.73,1.13,1.13,0,0,0-.8-.25,2.15,2.15,0,0,0-.53.06,1.71,1.71,0,0,0-.38.17l-.11.69H26.2v-1.43a4.92,4.92,0,0,1,1.1-.55,4.15,4.15,0,0,1,1.35-.22,3.08,3.08,0,0,1,1.95.59,2,2,0,0,1,.75,1.68v3a2,2,0,0,0,0,.25l.53.07v1Zm-1.51-1.17a1.41,1.41,0,0,0,.71-.17,1.34,1.34,0,0,0,.51-.42v-1h-.89a1.25,1.25,0,0,0-.85.26.8.8,0,0,0-.28.62.66.66,0,0,0,.21.52A.89.89,0,0,0,28.39,237.78Z"/><path class="cls-6" d="M32.32,230.68v-1.06H35V235h.39l1-1.42-.57-.08v-1.05H39v1.05l-.77.18-1.16,1.6,1.63,2.46.66.13v1h-3v-1l.36-.06-1-1.6H35v1.48l.76.18v1H32.41v-1l.84-.18v-6.86Z"/><path class="cls-6" d="M43,239.08a2.92,2.92,0,0,1-2.24-.9,3.25,3.25,0,0,1-.83-2.28v-.24a3.52,3.52,0,0,1,.79-2.37,3,3,0,0,1,4.16-.14,3.06,3.06,0,0,1,.72,2.14v1H41.69v0a1.66,1.66,0,0,0,.42,1,1.34,1.34,0,0,0,1,.42,3.3,3.3,0,0,0,1-.12,4.81,4.81,0,0,0,.84-.37l.47,1.08a3.49,3.49,0,0,1-1,.53A4.5,4.5,0,0,1,43,239.08Zm-.16-5.37a.9.9,0,0,0-.76.37,2,2,0,0,0-.35,1l0,0h2.14v-.15a1.43,1.43,0,0,0-.26-.89A.93.93,0,0,0,42.79,233.71Z"/><path class="cls-6" d="M46.28,237.9l.84-.18v-6.86l-.93-.18v-1.06h2.67v3.69a2.18,2.18,0,0,1,.75-.7,2,2,0,0,1,1-.25,2,2,0,0,1,1.59.68,3.08,3.08,0,0,1,.58,2.07v2.61l.84.18v1H50.26v-1l.75-.18V235.1a1.66,1.66,0,0,0-.26-1.07,1,1,0,0,0-.79-.31,1.41,1.41,0,0,0-.64.13,1.37,1.37,0,0,0-.46.37v3.5l.75.18v1H46.28Z"/><path class="cls-6" d="M54.1,235.66a3.44,3.44,0,0,1,.81-2.37,2.81,2.81,0,0,1,2.24-.93,2.84,2.84,0,0,1,2.24.92,3.49,3.49,0,0,1,.81,2.38v.12a3.47,3.47,0,0,1-.81,2.38,2.82,2.82,0,0,1-2.23.92,2.85,2.85,0,0,1-2.25-.92,3.47,3.47,0,0,1-.81-2.38Zm1.74.12a2.87,2.87,0,0,0,.31,1.42,1.09,1.09,0,0,0,1,.54,1.06,1.06,0,0,0,1-.54,2.79,2.79,0,0,0,.31-1.42v-.12a2.78,2.78,0,0,0-.31-1.41,1.09,1.09,0,0,0-1-.54,1.07,1.07,0,0,0-1,.54,2.89,2.89,0,0,0-.31,1.41Z"/><path class="cls-6" d="M60.66,230.68v-1.06h2.67v8.1l.85.18v1H60.75v-1l.84-.18v-6.86Z"/><path class="cls-6" d="M69,238.16a2,2,0,0,1-.72.68,1.84,1.84,0,0,1-1,.24,2.2,2.2,0,0,1-1.85-.88,3.72,3.72,0,0,1-.66-2.3v-.13a4.22,4.22,0,0,1,.66-2.47,2.17,2.17,0,0,1,1.87-.94,1.81,1.81,0,0,1,.87.21,2.19,2.19,0,0,1,.68.61v-2.32l-.93-.18v-1.06H70.6v8.1l.83.18v1H69.08Zm-2.44-2.26a2.62,2.62,0,0,0,.29,1.33,1,1,0,0,0,.93.49,1.29,1.29,0,0,0,.66-.16,1.17,1.17,0,0,0,.46-.45v-2.74a1.25,1.25,0,0,0-.46-.48,1.23,1.23,0,0,0-.65-.17,1,1,0,0,0-.93.57,3.16,3.16,0,0,0-.3,1.48Z"/><path class="cls-6" d="M75.09,239.08a2.91,2.91,0,0,1-2.24-.9A3.21,3.21,0,0,1,72,235.9v-.24a3.52,3.52,0,0,1,.8-2.37,2.94,2.94,0,0,1,4.15-.14,3.07,3.07,0,0,1,.73,2.14v1H73.82v0a1.67,1.67,0,0,0,.43,1,1.32,1.32,0,0,0,1,.42,3.21,3.21,0,0,0,1-.12,4.24,4.24,0,0,0,.84-.37l.47,1.08a3.31,3.31,0,0,1-1,.53A4.55,4.55,0,0,1,75.09,239.08Zm-.16-5.37a.89.89,0,0,0-.76.37,1.87,1.87,0,0,0-.35,1l0,0H76v-.15a1.43,1.43,0,0,0-.26-.89A1,1,0,0,0,74.93,233.71Z"/><path class="cls-6" d="M78.64,237.9l.84-.18v-4l-.93-.18v-1.05H81.1l.08,1a2,2,0,0,1,.59-.79,1.34,1.34,0,0,1,.83-.28l.29,0,.25.05L83,234h-.72a1.2,1.2,0,0,0-.63.15.91.91,0,0,0-.38.42v3.14l.83.18v1H78.64Z"/><path class="cls-6" d="M93.23,233h-1.3l-.23-1.2a2.09,2.09,0,0,0-.67-.25,3.87,3.87,0,0,0-.92-.11,1.79,1.79,0,0,0-1.11.3,1,1,0,0,0-.39.78.84.84,0,0,0,.41.73,5.5,5.5,0,0,0,1.41.6,5.59,5.59,0,0,1,2.19,1.06,2.21,2.21,0,0,1,.74,1.73,2.06,2.06,0,0,1-.88,1.76,3.89,3.89,0,0,1-2.34.65,5,5,0,0,1-1.86-.33,3.78,3.78,0,0,1-1.39-.91V236h1.35l.18,1.24a2.2,2.2,0,0,0,.72.35,3.14,3.14,0,0,0,1,.14,1.69,1.69,0,0,0,1.09-.29.93.93,0,0,0,.38-.78,1,1,0,0,0-.36-.81A3.6,3.6,0,0,0,90,235.3a7.19,7.19,0,0,1-2.35-1.07,2,2,0,0,1-.79-1.68,2.07,2.07,0,0,1,.9-1.73,3.67,3.67,0,0,1,2.25-.69,5.32,5.32,0,0,1,1.83.3,4.23,4.23,0,0,1,1.38.81Z"/><path class="cls-6" d="M94.05,231.3v-1.05h3.6v1.05l-.93.18V234h3.55v-2.51l-.93-.18v-1.05h3.6v1.05l-.93.18v6.24l.93.18v1h-3.6v-1l.93-.18v-2.39H96.72v2.39l.93.18v1h-3.6v-1l.93-.18v-6.24Z"/><path class="cls-6" d="M103.67,237.9l1.47-.18v-5.89h-1.49v-1l3.23-.58v7.47l1.47.18v1h-4.68Z"/><line class="cls-7" x1="51.51" y1="88.87" x2="52.72" y2="88.87"/><path class="cls-7" d="M58.71,89.16a1.13,1.13,0,0,1,.76-.29,1.11,1.11,0,0,1,.76.29"/><path class="cls-7" d="M62.21,101.78H63a4.44,4.44,0,0,1,3.31,1.42,4.72,4.72,0,0,1,1.42,3.3v4.72H51.19V106.5a4.4,4.4,0,0,1,1.42-3.3,4.67,4.67,0,0,1,3.3-1.42h.79"/><path class="cls-7" d="M56.7,101.78v-2"/><path class="cls-7" d="M62.21,99.73v2"/><path class="cls-7" d="M51.19,87.62a2.28,2.28,0,0,0-2.28,1.88c0,.16-.08.32-.08.48a2.36,2.36,0,0,0,2.36,2.36v-.4"/><path class="cls-7" d="M68.22,92.52a2.28,2.28,0,0,0,2.28-1.89c0-.15.08-.31.08-.47a2.37,2.37,0,0,0-2.36-2.36"/><path class="cls-7" d="M48.91,89.5A3.55,3.55,0,0,1,46.08,86,3.67,3.67,0,0,1,48,82.89a2.07,2.07,0,0,1-.31-1.18A2.32,2.32,0,0,1,50,79.35a2.81,2.81,0,0,1,.87.16,10.22,10.22,0,0,1,9-5.27,9.47,9.47,0,0,1,9.44,9.44V88"/><path class="cls-7" d="M62.21,81.71c.08,3.15-4.57,3.54-5.59,1.18.32,1.42-2.36,5.12-5.43,3.78v5.27a8.24,8.24,0,0,0,2.44,5.83,9,9,0,0,0,3.07,2,8.15,8.15,0,0,0,5.51,0,8.2,8.2,0,0,0,5.51-7.79V86.28c-4.49-1.73-5.36-3.7-5.51-4.57"/><path class="cls-7" d="M52.88,88.13h5.51a0,0,0,0,1,0,0v1.36a2.57,2.57,0,0,1-2.57,2.57h-.57a2.36,2.36,0,0,1-2.36-2.36V88.13A0,0,0,0,1,52.88,88.13Z"/><path class="cls-7" d="M63.11,88.13h.57a2.57,2.57,0,0,1,2.57,2.57v1.36a0,0,0,0,1,0,0H60.75a0,0,0,0,1,0,0V90.5A2.36,2.36,0,0,1,63.11,88.13Z" transform="translate(127.01 180.2) rotate(-180)"/><path class="cls-6" d="M171.6,230.54h.75l-1.06,5h-.75Zm.16-1.53a.53.53,0,0,1,.16-.39.49.49,0,0,1,.38-.16.55.55,0,0,1,.39.94.56.56,0,0,1-.39.15.52.52,0,0,1-.38-.15A.53.53,0,0,1,171.76,229Z"/><path class="cls-6" d="M175.64,235.54l.6-2.83c0-.23.09-.44.12-.62a2.88,2.88,0,0,0,0-.47.67.67,0,0,0-.1-.41.38.38,0,0,0-.34-.15,1,1,0,0,0-.49.13,2.36,2.36,0,0,0-.45.33,2.93,2.93,0,0,0-.38.41,3.33,3.33,0,0,0-.28.4l-.66,3.21H173l1.06-5h.53l-.06.86h0c.11-.11.22-.22.35-.33a2.44,2.44,0,0,1,.4-.32,2.84,2.84,0,0,1,.5-.23,1.54,1.54,0,0,1,.58-.1.64.64,0,0,1,.61.28,1.69,1.69,0,0,1,.15.78,4,4,0,0,1,.35-.38,2.46,2.46,0,0,1,.44-.34,2.23,2.23,0,0,1,.49-.24,1.37,1.37,0,0,1,.52-.1.84.84,0,0,1,1,1,5.5,5.5,0,0,1-.15,1.11l-.63,3h-.75l.63-3c0-.19.07-.37.1-.52a3.15,3.15,0,0,0,0-.4.67.67,0,0,0-.11-.41.45.45,0,0,0-.37-.14.87.87,0,0,0-.44.14,2.79,2.79,0,0,0-.46.33,3.24,3.24,0,0,0-.4.43,3.69,3.69,0,0,0-.27.43l-.65,3.15Z"/><path class="cls-6" d="M181.66,230.54h.52l-.05.86h0a3.38,3.38,0,0,1,.31-.35,2.37,2.37,0,0,1,.39-.32,1.78,1.78,0,0,1,.46-.22,1.61,1.61,0,0,1,.54-.09,1.33,1.33,0,0,1,.45.08.9.9,0,0,1,.37.25,1.12,1.12,0,0,1,.25.46,2.09,2.09,0,0,1,.1.71,4.86,4.86,0,0,1-.24,1.58,3.83,3.83,0,0,1-.63,1.17,2.87,2.87,0,0,1-.87.74,2.09,2.09,0,0,1-1,.25,2.74,2.74,0,0,1-.61-.06,1.1,1.1,0,0,1-.36-.14l-.44,2.08h-.75Zm1.93.52a1,1,0,0,0-.51.14,1.7,1.7,0,0,0-.45.35,2.61,2.61,0,0,0-.37.44,3.52,3.52,0,0,0-.26.43l-.49,2.37a.9.9,0,0,0,.35.18,1.6,1.6,0,0,0,.39.05,1.47,1.47,0,0,0,.75-.21,2.31,2.31,0,0,0,.63-.62,3.28,3.28,0,0,0,.45-1,4.41,4.41,0,0,0,.16-1.25,1.2,1.2,0,0,0-.16-.66A.56.56,0,0,0,183.59,231.06Z"/><path class="cls-6" d="M185.8,234a4.64,4.64,0,0,1,.21-1.44,3.42,3.42,0,0,1,.56-1.13,2.64,2.64,0,0,1,.84-.73,2.08,2.08,0,0,1,1-.26,1.74,1.74,0,0,1,.72.14,1.31,1.31,0,0,1,.74.91,2.59,2.59,0,0,1,.08.63,4.84,4.84,0,0,1-.19,1.4,3.82,3.82,0,0,1-.54,1.13,2.78,2.78,0,0,1-.81.76,2,2,0,0,1-1,.27,1.82,1.82,0,0,1-.75-.14,1.46,1.46,0,0,1-.78-.93A2.1,2.1,0,0,1,185.8,234Zm.8-.18a1.57,1.57,0,0,0,.22.91.79.79,0,0,0,.7.31,1,1,0,0,0,.63-.23,2.27,2.27,0,0,0,.52-.64,4.34,4.34,0,0,0,.49-2,1.51,1.51,0,0,0-.18-.8.78.78,0,0,0-.71-.3,1,1,0,0,0-.63.23,2.26,2.26,0,0,0-.54.6,4,4,0,0,0-.37.88A4.34,4.34,0,0,0,186.6,233.8Z"/><path class="cls-6" d="M193.9,231.2l-.19,0h-.17a1.32,1.32,0,0,0-.88.32,2.16,2.16,0,0,0-.58.78l-.69,3.28h-.75l1.06-5h.52v.86h0a3.18,3.18,0,0,1,.26-.35,2.2,2.2,0,0,1,.31-.3,1.33,1.33,0,0,1,.37-.2,1.23,1.23,0,0,1,.44-.08,1.51,1.51,0,0,1,.46.07Z"/><path class="cls-6" d="M194.26,230.54H195l.21-1,.8-.23-.26,1.22h1.31l-.15.64h-1.3l-.63,3c0,.08,0,.15,0,.22a1.21,1.21,0,0,0,0,.18.42.42,0,0,0,.11.33.5.5,0,0,0,.33.09,1.51,1.51,0,0,0,.44-.06,1.76,1.76,0,0,0,.4-.18v.61a2,2,0,0,1-.54.2,2.83,2.83,0,0,1-.63.07c-.61,0-.91-.28-.91-.83a2.6,2.6,0,0,1,.05-.42l.68-3.23h-.75Z"/><path class="cls-6" d="M199.27,234.13a.73.73,0,0,0-.13-.45,1.44,1.44,0,0,0-.33-.32,4.61,4.61,0,0,0-.43-.29,3.36,3.36,0,0,1-.43-.31,1.65,1.65,0,0,1-.33-.41,1.16,1.16,0,0,1-.13-.58,1.09,1.09,0,0,1,.13-.53,1.66,1.66,0,0,1,.37-.43,2,2,0,0,1,.56-.28,2.35,2.35,0,0,1,.71-.11,3.5,3.5,0,0,1,.82.07,2,2,0,0,1,.52.2l-.25.6a2.24,2.24,0,0,0-1.09-.23,1.28,1.28,0,0,0-.7.18.58.58,0,0,0-.27.53.56.56,0,0,0,.13.37,1.9,1.9,0,0,0,.33.29l.43.29a2.24,2.24,0,0,1,.43.33,1.59,1.59,0,0,1,.33.43,1.22,1.22,0,0,1,.13.59,1.42,1.42,0,0,1-.53,1.19,2.22,2.22,0,0,1-1.4.4,3.58,3.58,0,0,1-.83-.09,2.15,2.15,0,0,1-.6-.23l.28-.63a1.81,1.81,0,0,0,.52.22,2.59,2.59,0,0,0,.68.09,1.23,1.23,0,0,0,.78-.22A.77.77,0,0,0,199.27,234.13Z"/><path class="cls-6" d="M397.6,230.54h.75l-1.06,5h-.75Zm.16-1.53a.53.53,0,0,1,.16-.39.49.49,0,0,1,.38-.16.55.55,0,0,1,.39.94.56.56,0,0,1-.39.15.52.52,0,0,1-.38-.15A.53.53,0,0,1,397.76,229Z"/><path class="cls-6" d="M401.64,235.54l.6-2.83c.05-.23.09-.44.12-.62a2.88,2.88,0,0,0,0-.47.67.67,0,0,0-.1-.41.38.38,0,0,0-.34-.15,1,1,0,0,0-.49.13,2.36,2.36,0,0,0-.45.33,2.93,2.93,0,0,0-.38.41,3.33,3.33,0,0,0-.28.4l-.66,3.21H399l1.06-5h.53l-.06.86h0c.11-.11.22-.22.35-.33a2.44,2.44,0,0,1,.4-.32,2.84,2.84,0,0,1,.5-.23,1.54,1.54,0,0,1,.58-.1.64.64,0,0,1,.61.28,1.69,1.69,0,0,1,.15.78,4,4,0,0,1,.35-.38,2.46,2.46,0,0,1,.44-.34,2.23,2.23,0,0,1,.49-.24,1.37,1.37,0,0,1,.52-.1.84.84,0,0,1,.95,1,5.5,5.5,0,0,1-.15,1.11l-.63,3h-.75l.63-3c0-.19.07-.37.1-.52a3.15,3.15,0,0,0,0-.4.67.67,0,0,0-.11-.41.45.45,0,0,0-.37-.14.87.87,0,0,0-.44.14,2.79,2.79,0,0,0-.46.33,3.24,3.24,0,0,0-.4.43,3.69,3.69,0,0,0-.27.43l-.65,3.15Z"/><path class="cls-6" d="M407.66,230.54h.52l-.05.86h0a3.38,3.38,0,0,1,.31-.35,2.37,2.37,0,0,1,.39-.32,1.78,1.78,0,0,1,.46-.22,1.61,1.61,0,0,1,.54-.09,1.33,1.33,0,0,1,.45.08.9.9,0,0,1,.37.25,1.12,1.12,0,0,1,.25.46,2.09,2.09,0,0,1,.1.71,4.86,4.86,0,0,1-.24,1.58,3.83,3.83,0,0,1-.63,1.17,2.87,2.87,0,0,1-.87.74,2.09,2.09,0,0,1-1,.25,2.74,2.74,0,0,1-.61-.06,1.1,1.1,0,0,1-.36-.14l-.44,2.08h-.75Zm1.93.52a1,1,0,0,0-.51.14,1.7,1.7,0,0,0-.45.35,2.61,2.61,0,0,0-.37.44,3.52,3.52,0,0,0-.26.43l-.49,2.37a.9.9,0,0,0,.35.18,1.6,1.6,0,0,0,.39.05,1.47,1.47,0,0,0,.75-.21,2.31,2.31,0,0,0,.63-.62,3.28,3.28,0,0,0,.45-1,4.41,4.41,0,0,0,.16-1.25,1.2,1.2,0,0,0-.16-.66A.56.56,0,0,0,409.59,231.06Z"/><path class="cls-6" d="M411.8,234a4.64,4.64,0,0,1,.21-1.44,3.42,3.42,0,0,1,.56-1.13,2.64,2.64,0,0,1,.84-.73,2.08,2.08,0,0,1,1-.26,1.74,1.74,0,0,1,.72.14,1.31,1.31,0,0,1,.74.91,2.59,2.59,0,0,1,.08.63,4.84,4.84,0,0,1-.19,1.4,3.82,3.82,0,0,1-.54,1.13,2.78,2.78,0,0,1-.81.76,2,2,0,0,1-1,.27,1.82,1.82,0,0,1-.75-.14,1.46,1.46,0,0,1-.78-.93A2.1,2.1,0,0,1,411.8,234Zm.8-.18a1.57,1.57,0,0,0,.22.91.79.79,0,0,0,.7.31,1,1,0,0,0,.63-.23,2.27,2.27,0,0,0,.52-.64,4.34,4.34,0,0,0,.49-2,1.51,1.51,0,0,0-.18-.8.78.78,0,0,0-.71-.3,1,1,0,0,0-.63.23,2.26,2.26,0,0,0-.54.6,4,4,0,0,0-.37.88A4.34,4.34,0,0,0,412.6,233.8Z"/><path class="cls-6" d="M419.9,231.2l-.19,0h-.17a1.32,1.32,0,0,0-.88.32,2.16,2.16,0,0,0-.58.78l-.69,3.28h-.75l1.06-5h.52v.86h0a3.18,3.18,0,0,1,.26-.35,2.2,2.2,0,0,1,.31-.3,1.33,1.33,0,0,1,.37-.2,1.23,1.23,0,0,1,.44-.08,1.51,1.51,0,0,1,.46.07Z"/><path class="cls-6" d="M420.26,230.54H421l.21-1,.8-.23-.26,1.22h1.31l-.15.64h-1.3l-.63,3c0,.08,0,.15,0,.22a1.21,1.21,0,0,0,0,.18.42.42,0,0,0,.11.33.5.5,0,0,0,.33.09,1.51,1.51,0,0,0,.44-.06,1.76,1.76,0,0,0,.4-.18v.61a2,2,0,0,1-.54.2,2.83,2.83,0,0,1-.63.07c-.61,0-.91-.28-.91-.83a2.6,2.6,0,0,1,.05-.42l.68-3.23h-.75Z"/><path class="cls-6" d="M425.27,234.13a.73.73,0,0,0-.13-.45,1.44,1.44,0,0,0-.33-.32,4.61,4.61,0,0,0-.43-.29,3.36,3.36,0,0,1-.43-.31,1.65,1.65,0,0,1-.33-.41,1.16,1.16,0,0,1-.13-.58,1.09,1.09,0,0,1,.13-.53,1.66,1.66,0,0,1,.37-.43,2,2,0,0,1,.56-.28,2.35,2.35,0,0,1,.71-.11,3.5,3.5,0,0,1,.82.07,2,2,0,0,1,.52.2l-.25.6a2.24,2.24,0,0,0-1.09-.23,1.28,1.28,0,0,0-.7.18.58.58,0,0,0-.27.53.56.56,0,0,0,.13.37,1.9,1.9,0,0,0,.33.29l.43.29a2.24,2.24,0,0,1,.43.33,1.59,1.59,0,0,1,.33.43,1.22,1.22,0,0,1,.13.59,1.42,1.42,0,0,1-.53,1.19,2.22,2.22,0,0,1-1.4.4,3.58,3.58,0,0,1-.83-.09,2.15,2.15,0,0,1-.6-.23l.28-.63a1.81,1.81,0,0,0,.52.22,2.59,2.59,0,0,0,.68.09,1.23,1.23,0,0,0,.78-.22A.77.77,0,0,0,425.27,234.13Z"/><path class="cls-9" d="M61.78,181.71c6.59,0,11.7,5.56,11.7,10.34v5.53a2.22,2.22,0,0,1-.06.51,4.17,4.17,0,0,1,.06.71,4.22,4.22,0,0,1-2.2,3.66,9.41,9.41,0,0,1-2.71,5.67,7.66,7.66,0,0,1,3.23,1.56,5.7,5.7,0,0,1,2.31,4.57v4.6a2,2,0,0,1-2,2H51.45a2,2,0,0,1-2-2v-4.6a5.77,5.77,0,0,1,2.38-4.63,7.5,7.5,0,0,1,3.34-1.54,10.22,10.22,0,0,1-2.76-5.54,4.1,4.1,0,0,1-2.31-3.11,1.27,1.27,0,0,1,0-.28v-.72a1.32,1.32,0,0,1,0-.28l0-.21a2.42,2.42,0,0,1-.05-.47v-5.43c0-4.78,5.11-10.34,11.7-10.34m0-2c-7.84,0-13.7,6.52-13.7,12.34v5.43a3.87,3.87,0,0,0,0,.48,4.12,4.12,0,0,0,0,.48v.72a3.64,3.64,0,0,0,0,.57,6.07,6.07,0,0,0,2.5,4.08A12.18,12.18,0,0,0,52,207.14a9.93,9.93,0,0,0-1.37.92,7.73,7.73,0,0,0-3.14,6.2v4.6a4,4,0,0,0,4,4H72.11a4,4,0,0,0,4-4v-4.6A7.77,7.77,0,0,0,73,208.11a10.29,10.29,0,0,0-1.28-.87,11.18,11.18,0,0,0,1.36-3.62,6.13,6.13,0,0,0,2.36-4.82c0-.22,0-.45,0-.67a5.07,5.07,0,0,0,0-.55v-5.53c0-5.82-5.86-12.34-13.7-12.34Z"/><path class="cls-6" d="M61.78,183.71c5.39,0,9.7,4.51,9.7,8.35v5.52h-.41a2,2,0,0,1,.41,1.22A2.21,2.21,0,0,1,69.33,201v.5a7.42,7.42,0,0,1-3.4,6.25h0v2.23h.88a3.65,3.65,0,0,1,.87.07,5.64,5.64,0,0,1,2.81,1.23,3.76,3.76,0,0,1,1.57,3v4.6H51.45v-4.6a3.76,3.76,0,0,1,1.57-3A5.68,5.68,0,0,1,55.83,210a3.65,3.65,0,0,1,.87-.07h.88v-2.23h.25a8,8,0,0,1-3.52-6.61,2.68,2.68,0,0,0,0-.71,5.48,5.48,0,0,0-.05.57,2.17,2.17,0,0,1-2.15-1.8v-.72a2,2,0,0,1,.42-1h-.42v-5.42c0-3.84,4.31-8.35,9.7-8.35m0-2c-6.59,0-11.7,5.56-11.7,10.35v5.42a2.42,2.42,0,0,0,.05.47l0,.21a1.32,1.32,0,0,0,0,.28v.72a1.27,1.27,0,0,0,0,.28,4.1,4.1,0,0,0,2.31,3.11,10.29,10.29,0,0,0,2.76,5.55,7.6,7.6,0,0,0-3.38,1.56,5.75,5.75,0,0,0-2.34,4.6v4.6a2,2,0,0,0,2,2H72.11a2,2,0,0,0,2-2v-4.6a5.75,5.75,0,0,0-2.34-4.6,7.67,7.67,0,0,0-3.2-1.53,9.41,9.41,0,0,0,2.71-5.67,4.22,4.22,0,0,0,2.2-3.66,4.17,4.17,0,0,0-.06-.71,2.22,2.22,0,0,0,.06-.51v-5.52c0-4.79-5.11-10.35-11.7-10.35Z"/><path class="cls-6" d="M64.66,198.08a.77.77,0,0,1,.71.72.72.72,0,1,1-.71-.72Z"/><circle class="cls-6" cx="58.91" cy="198.8" r="0.72"/><path class="cls-7" d="M54.23,196.65l.6-4.62c1.44-.36,8.16,3.65,11.25-1.39,0,0-.78,2.48,3.25,5.36v.65"/><path class="cls-7" d="M71.48,199a2.2,2.2,0,0,1-2.15,2.15V196.8A2.21,2.21,0,0,1,71.48,199Z"/><path class="cls-7" d="M52.08,198.44v.72a2.17,2.17,0,0,0,2.15,1.8v-4.31A2.17,2.17,0,0,0,52.08,198.44Z"/><path class="cls-7" d="M52.08,197.48v-5.42c0-3.84,4.31-8.35,9.7-8.35s9.7,4.51,9.7,8.35v5.52"/><path class="cls-10" d="M66,207.71v2.23h.88a3.78,3.78,0,0,1,.88.07,5.65,5.65,0,0,1,2.8,1.23,3.76,3.76,0,0,1,1.57,3v4.6H51.45v-4.6a3.76,3.76,0,0,1,1.57-3A5.68,5.68,0,0,1,55.83,210a3.65,3.65,0,0,1,.87-.07h.88v-2.23"/><path class="cls-7" d="M54.23,196.72c0,1.79.08,2.59.08,4.38a7.74,7.74,0,0,0,7.47,7.84,7.49,7.49,0,0,0,7.55-7.48v-5"/><path class="cls-7" d="M59.7,203.47a2.51,2.51,0,0,0,2.08,1.08,2.6,2.6,0,0,0,2.08-1.08"/><path class="cls-5" d="M664.64,220.94a3,3,0,0,1-3-3v-4.55a7.31,7.31,0,0,1,1.92-5,7.63,7.63,0,0,1-4.2-6.77v-9.09a13.24,13.24,0,1,1,26.47,0v9.25a2.73,2.73,0,0,1,0,.41,7.58,7.58,0,0,1-4.19,6.2,7.5,7.5,0,0,1,1.95,5v4.55a3,3,0,0,1-3,3Z"/><path class="cls-11" d="M672.6,180.31a12.25,12.25,0,0,1,12.23,12.24v9.25a2.64,2.64,0,0,1,0,.28,6.61,6.61,0,0,1-5.06,5.94,4.78,4.78,0,0,1,1,.87,6.57,6.57,0,0,1,1.86,4.5v4.55a2,2,0,0,1-2,2H664.64a2,2,0,0,1-2-2v-4.55a6.28,6.28,0,0,1,2-4.66,7.51,7.51,0,0,1,.81-.7,6.55,6.55,0,0,1-5.11-6.39v-9.09a12.25,12.25,0,0,1,12.24-12.24m0-2a14.26,14.26,0,0,0-14.24,14.24v9.09a8.63,8.63,0,0,0,3.71,7,8.43,8.43,0,0,0-1.43,4.71v4.55a4,4,0,0,0,4,4h15.92a4,4,0,0,0,4-4v-4.55a8.5,8.5,0,0,0-1.47-4.7,8.6,8.6,0,0,0,3.71-6.42,3.83,3.83,0,0,0,0-.47v-9.25a14.25,14.25,0,0,0-14.23-14.24Z"/><path class="cls-5" d="M664.64,218.94a1,1,0,0,1-1-1v-4.55a5.28,5.28,0,0,1,1.69-3.92,10.14,10.14,0,0,1,1-.82l.12-.07a5.59,5.59,0,0,1,2.51-.73v-.31c-.28-.12-.57-.27-.87-.43a5.76,5.76,0,0,1-1.16.08,5.55,5.55,0,0,1-5.55-5.54v-9.1a11.24,11.24,0,1,1,22.47,0v9.25a1,1,0,0,1,0,.17,5.6,5.6,0,0,1-5.54,5.22,6.72,6.72,0,0,1-1.16-.11,8,8,0,0,1-.87.46v.31a5.63,5.63,0,0,1,2.52.73,4.28,4.28,0,0,1,1.18,1,5.59,5.59,0,0,1,1.61,3.84v4.55a1,1,0,0,1-1,1Z"/><path class="cls-6" d="M672.6,182.32a10.19,10.19,0,0,1,10.23,10.23v9.25h0a4.55,4.55,0,0,1-4.54,4.39A6.43,6.43,0,0,1,677,206V206a8,8,0,0,1-1.74.91v2H676a4.6,4.6,0,0,1,2.27.6,3,3,0,0,1,.91.76,4.51,4.51,0,0,1,1.37,3.18v4.55H664.64v-4.55a4.3,4.3,0,0,1,1.36-3.18,9.9,9.9,0,0,1,.91-.76,4.61,4.61,0,0,1,2.28-.6h.75v-2a13.33,13.33,0,0,1-1.74-.84,3.58,3.58,0,0,1-1.29.15,4.56,4.56,0,0,1-4.55-4.55v-9.09a10.19,10.19,0,0,1,10.24-10.23m0-2a12.24,12.24,0,0,0-12.24,12.23v9.09a6.55,6.55,0,0,0,5.11,6.39c-.26.21-.55.44-.85.73a6.31,6.31,0,0,0-2,4.63v4.55a2,2,0,0,0,2,2h15.92a2,2,0,0,0,2-2v-4.55a6.57,6.57,0,0,0-1.86-4.5,4.47,4.47,0,0,0-1-.87,6.61,6.61,0,0,0,5.06-6,2.45,2.45,0,0,0,0-.27v-9.25a12.24,12.24,0,0,0-12.23-12.23Z"/><path class="cls-7" d="M669.94,206.88a13.33,13.33,0,0,1-1.74-.84,7.63,7.63,0,0,1-1.21-1,7.92,7.92,0,0,1-2.35-5.61"/><path class="cls-7" d="M680.56,199.37A7.92,7.92,0,0,1,677,206a8,8,0,0,1-1.74.91"/><path class="cls-7" d="M664.64,195.2v-.45c1.51-.38,7.73-2.2,11-7.51a12.17,12.17,0,0,0,4.93,7.28v.68"/><path class="cls-7" d="M682.83,197.48a2.33,2.33,0,0,1-2.27,2.27V195.2A2.33,2.33,0,0,1,682.83,197.48Z"/><path class="cls-7" d="M662.36,197.1v.75a2.3,2.3,0,0,0,2.28,1.9V195.2A2.31,2.31,0,0,0,662.36,197.1Z"/><path class="cls-7" d="M678.28,209.45a4.6,4.6,0,0,0-2.27-.6h-.76"/><path class="cls-7" d="M669.94,208.85h-.75a4.61,4.61,0,0,0-2.28.6"/><path class="cls-7" d="M666.91,209.45a9.9,9.9,0,0,0-.91.76,4.3,4.3,0,0,0-1.36,3.18v4.55h15.92v-4.55a4.51,4.51,0,0,0-1.37-3.18,3,3,0,0,0-.91-.76"/><path class="cls-7" d="M675.25,208.85v-2a7.85,7.85,0,0,1-2.65.45,8,8,0,0,1-2.66-.45v2"/><path class="cls-7" d="M670.4,203.16a2.66,2.66,0,0,0,2.2,1.14,2.77,2.77,0,0,0,2.2-1.14"/><path class="cls-7" d="M667.67,197.85a1.14,1.14,0,0,1,2.27,0"/><path class="cls-7" d="M675.25,197.85a1.14,1.14,0,0,1,2.27,0"/><path class="cls-7" d="M662.36,201.64v-9.09a10.24,10.24,0,0,1,20.47,0v9.25"/><path class="cls-7" d="M668.2,206a3.58,3.58,0,0,1-1.29.15,4.56,4.56,0,0,1-4.55-4.55"/><path class="cls-7" d="M682.83,201.64a4.56,4.56,0,0,1-4.55,4.55A6.43,6.43,0,0,1,677,206"/><path class="cls-7" d="M671.76,197c0,.15.08.37.08.53a3,3,0,0,1-6.06,0,2.52,2.52,0,0,1,.07-.76,3,3,0,0,1,3-2.28A2.94,2.94,0,0,1,671.76,197Z"/><path class="cls-7" d="M679.34,196.72a2.22,2.22,0,0,1,.08.76,3,3,0,1,1-6.06,0,1.36,1.36,0,0,1,.07-.53,3,3,0,0,1,3-2.51A3.08,3.08,0,0,1,679.34,196.72Z"/><line class="cls-7" x1="679.34" y1="196.72" x2="680.56" y2="196.72"/><line class="cls-7" x1="664.64" y1="196.72" x2="665.85" y2="196.72"/><path class="cls-7" d="M671.84,197a1.22,1.22,0,0,1,.76-.23,1.24,1.24,0,0,1,.76.23"/><path class="cls-12" d="M123.46,313.73a2.88,2.88,0,0,0-3.61-1.19c-2.25.87-1.26,3.63-1.26,3.63s-5.14-.07-4.57,5.19c.41,3.85,4.57,3.63,4.42,3.63-6.19,0,12.39.05,18.59,0a4.59,4.59,0,0,0,2.63-1A3.94,3.94,0,0,0,141,319.2c-.65-1.83-2.95-2.78-4.87-2.88,0,0,1.1-4.88-2.41-7.05a6.63,6.63,0,0,0-8.1.6A7.48,7.48,0,0,0,123.46,313.73Z"/><line class="cls-13" x1="647" y1="203" x2="497.52" y2="203"/><polygon class="cls-6" points="502.16 197.27 503.11 198.3 498.06 203 503.11 207.7 502.16 208.72 496 203 502.16 197.27"/><path class="cls-6" d="M347.65,331.11a1.69,1.69,0,0,1-.34.23,3.42,3.42,0,0,1-.4.17,3.59,3.59,0,0,1-.41.11,1.69,1.69,0,0,1-.38,0,1.84,1.84,0,0,1-.8-.15,1.45,1.45,0,0,1-.5-.4,1.47,1.47,0,0,1-.25-.52,2,2,0,0,1-.07-.53,4.76,4.76,0,0,1,.23-1.52,3.51,3.51,0,0,1,.62-1.15,2.74,2.74,0,0,1,.88-.72,2.24,2.24,0,0,1,1-.25,2.28,2.28,0,0,1,.63.07,3.72,3.72,0,0,1,.44.16l-.28.62a1.15,1.15,0,0,0-.42-.15,2.35,2.35,0,0,0-.54-.06,1.13,1.13,0,0,0-.66.23,2.26,2.26,0,0,0-.58.61,3.1,3.1,0,0,0-.4.86,3.3,3.3,0,0,0-.15,1,1.45,1.45,0,0,0,.27,1,.9.9,0,0,0,.73.31,1.65,1.65,0,0,0,.63-.13,2.83,2.83,0,0,0,.53-.28Z"/><path class="cls-6" d="M351.82,327.2l-.18,0h-.18a1.32,1.32,0,0,0-.88.32,2.16,2.16,0,0,0-.58.78l-.69,3.28h-.75l1.06-5h.52v.86h0a3.18,3.18,0,0,1,.26-.35,2.2,2.2,0,0,1,.31-.3,1.33,1.33,0,0,1,.37-.2,1.23,1.23,0,0,1,.44-.08,1.51,1.51,0,0,1,.46.07Z"/><path class="cls-6" d="M355.36,331.05a2.53,2.53,0,0,1-.82.46,3.2,3.2,0,0,1-1,.15,1.5,1.5,0,0,1-1.2-.46,1.82,1.82,0,0,1-.41-1.28,4.45,4.45,0,0,1,.23-1.47,3.53,3.53,0,0,1,.61-1.1,2.72,2.72,0,0,1,.84-.69,2.18,2.18,0,0,1,1-.24,1.74,1.74,0,0,1,.63.1,1.32,1.32,0,0,1,.43.27,1,1,0,0,1,.25.38,1.33,1.33,0,0,1,.08.45,1.25,1.25,0,0,1-.69,1.12,4,4,0,0,1-2,.4h-.25l-.27,0a2.7,2.7,0,0,0-.06.36c0,.11,0,.21,0,.3a1.48,1.48,0,0,0,.25.9.9.9,0,0,0,.78.34,2.38,2.38,0,0,0,.81-.14,2.19,2.19,0,0,0,.56-.31Zm-.85-4a1.35,1.35,0,0,0-.95.38,2.35,2.35,0,0,0-.62,1.12l.79,0a4.25,4.25,0,0,0,.75-.1,1.49,1.49,0,0,0,.55-.27.65.65,0,0,0,.22-.52.69.69,0,0,0,0-.2.62.62,0,0,0-.12-.19.49.49,0,0,0-.22-.14A1,1,0,0,0,354.51,327.06Z"/><path class="cls-6" d="M360.23,329.57a6.46,6.46,0,0,0-.11.75c0,.25,0,.49,0,.71v.29a1.66,1.66,0,0,0,0,.24h-.55l-.14-.87h0a4.11,4.11,0,0,1-.29.35,3,3,0,0,1-.39.31,2.38,2.38,0,0,1-.45.23,1.7,1.7,0,0,1-.51.08c-.79,0-1.19-.52-1.19-1.55a5.32,5.32,0,0,1,.16-1.3,3.86,3.86,0,0,1,.51-1.19,3,3,0,0,1,.89-.87,2.39,2.39,0,0,1,1.31-.34,3.82,3.82,0,0,1,.69.07,5.18,5.18,0,0,1,.75.17ZM358,331a1.07,1.07,0,0,0,.46-.11,2.42,2.42,0,0,0,.42-.29,2.31,2.31,0,0,0,.34-.36,2.85,2.85,0,0,0,.24-.37l.56-2.7a1.84,1.84,0,0,0-.76-.14,1.28,1.28,0,0,0-.81.27,2.31,2.31,0,0,0-.59.71,3.55,3.55,0,0,0-.36,1,5.15,5.15,0,0,0-.12,1.1,1.33,1.33,0,0,0,.15.65A.51.51,0,0,0,358,331Z"/><path class="cls-6" d="M361.68,326.54h.74l.21-1,.8-.23-.26,1.22h1.31l-.15.64H363l-.63,3a1.43,1.43,0,0,1,0,.22,1.21,1.21,0,0,0,0,.18.42.42,0,0,0,.11.33.5.5,0,0,0,.33.09,1.51,1.51,0,0,0,.44-.06,1.76,1.76,0,0,0,.4-.18v.61a2,2,0,0,1-.54.2,2.83,2.83,0,0,1-.63.07c-.61,0-.91-.28-.91-.83a2.6,2.6,0,0,1,.05-.42l.68-3.23h-.75Z"/><path class="cls-6" d="M368,331.05a2.53,2.53,0,0,1-.82.46,3.2,3.2,0,0,1-1,.15,1.49,1.49,0,0,1-1.2-.46,1.82,1.82,0,0,1-.41-1.28,4.45,4.45,0,0,1,.23-1.47,3.53,3.53,0,0,1,.61-1.1,2.72,2.72,0,0,1,.84-.69,2.18,2.18,0,0,1,1-.24,1.74,1.74,0,0,1,.63.1,1.32,1.32,0,0,1,.43.27,1,1,0,0,1,.25.38,1.33,1.33,0,0,1,.08.45,1.25,1.25,0,0,1-.69,1.12,4,4,0,0,1-2,.4h-.25l-.27,0a2.7,2.7,0,0,0-.06.36c0,.11,0,.21,0,.3a1.48,1.48,0,0,0,.25.9.9.9,0,0,0,.78.34,2.38,2.38,0,0,0,.81-.14,2.19,2.19,0,0,0,.56-.31Zm-.85-4a1.35,1.35,0,0,0-.95.38,2.35,2.35,0,0,0-.62,1.12l.79,0a4,4,0,0,0,.74-.1,1.46,1.46,0,0,0,.56-.27.65.65,0,0,0,.22-.52.69.69,0,0,0,0-.2.62.62,0,0,0-.12-.19.49.49,0,0,0-.22-.14A1,1,0,0,0,367.14,327.06Z"/><path class="cls-6" d="M371.32,330.13a.73.73,0,0,0-.13-.45,1.44,1.44,0,0,0-.33-.32,4.61,4.61,0,0,0-.43-.29,3.36,3.36,0,0,1-.43-.31,1.65,1.65,0,0,1-.33-.41,1.16,1.16,0,0,1-.13-.58,1.1,1.1,0,0,1,.14-.53,1.49,1.49,0,0,1,.37-.43,1.78,1.78,0,0,1,.55-.28,2.35,2.35,0,0,1,.71-.11,3.5,3.5,0,0,1,.82.07,2,2,0,0,1,.52.2l-.25.6a2.24,2.24,0,0,0-1.09-.23,1.28,1.28,0,0,0-.7.18.58.58,0,0,0-.27.53.56.56,0,0,0,.13.37,1.9,1.9,0,0,0,.33.29l.43.29a2.24,2.24,0,0,1,.43.33,1.59,1.59,0,0,1,.33.43,1.22,1.22,0,0,1,.13.59,1.44,1.44,0,0,1-.52,1.19,2.27,2.27,0,0,1-1.41.4,3.58,3.58,0,0,1-.83-.09,2.15,2.15,0,0,1-.6-.23l.28-.63a1.81,1.81,0,0,0,.52.22,2.59,2.59,0,0,0,.68.09,1.23,1.23,0,0,0,.78-.22A.77.77,0,0,0,371.32,330.13Z"/><path class="cls-6" d="M301.12,327.2l-.18,0h-.18a1.32,1.32,0,0,0-.88.32,2.28,2.28,0,0,0-.58.78l-.69,3.28h-.75l1.06-5h.52v.86h0a3.18,3.18,0,0,1,.26-.35,2.91,2.91,0,0,1,.31-.3,1.48,1.48,0,0,1,.37-.2,1.27,1.27,0,0,1,.44-.08,1.51,1.51,0,0,1,.46.07Z"/><path class="cls-6" d="M302.9,326.54l-.7,3.33a2.34,2.34,0,0,0-.06.5,1,1,0,0,0,.11.47.44.44,0,0,0,.4.18,1.14,1.14,0,0,0,.49-.12,2.24,2.24,0,0,0,.47-.31,4.07,4.07,0,0,0,.41-.42,2.93,2.93,0,0,0,.3-.45l.67-3.18h.75l-.63,3c0,.11-.05.25-.08.42s0,.33-.07.51,0,.36-.06.53,0,.31,0,.44v.13h-.59v-1h0a4,4,0,0,1-.34.39,2.79,2.79,0,0,1-.43.34,3,3,0,0,1-.51.25,1.79,1.79,0,0,1-.57.09,1.68,1.68,0,0,1-.4-.05.8.8,0,0,1-.33-.17,1.12,1.12,0,0,1-.22-.33,1.6,1.6,0,0,1-.08-.53,3.41,3.41,0,0,1,.1-.79l.68-3.25Z"/><path class="cls-6" d="M309.19,331.54l.67-3.16c0-.12.05-.24.07-.35a2,2,0,0,0,0-.32.77.77,0,0,0-.13-.47.6.6,0,0,0-.51-.18,1.19,1.19,0,0,0-.51.12,2.24,2.24,0,0,0-.47.31,2.16,2.16,0,0,0-.39.41,2.86,2.86,0,0,0-.3.44l-.66,3.2h-.75l1.06-5h.52l0,.86h0a3.13,3.13,0,0,1,.31-.33,2.15,2.15,0,0,1,.41-.32,2.3,2.3,0,0,1,.5-.23,1.79,1.79,0,0,1,.62-.1,1.2,1.2,0,0,1,.79.24,1,1,0,0,1,.29.84,3.52,3.52,0,0,1-.09.72l-.71,3.32Z"/><path class="cls-6" d="M313.69,330.13a.73.73,0,0,0-.13-.45,1.44,1.44,0,0,0-.33-.32,4.61,4.61,0,0,0-.43-.29,3.36,3.36,0,0,1-.43-.31,1.65,1.65,0,0,1-.33-.41,1.16,1.16,0,0,1-.13-.58,1.1,1.1,0,0,1,.14-.53,1.49,1.49,0,0,1,.37-.43,1.73,1.73,0,0,1,.56-.28,2.23,2.23,0,0,1,.7-.11,3.5,3.5,0,0,1,.82.07,2,2,0,0,1,.52.2l-.25.6a2.24,2.24,0,0,0-1.09-.23,1.22,1.22,0,0,0-.69.18.57.57,0,0,0-.28.53.56.56,0,0,0,.13.37,1.9,1.9,0,0,0,.33.29l.43.29a2.24,2.24,0,0,1,.43.33,1.59,1.59,0,0,1,.33.43,1.22,1.22,0,0,1,.13.59,1.41,1.41,0,0,1-.52,1.19,2.25,2.25,0,0,1-1.41.4,3.49,3.49,0,0,1-.82-.09,2.23,2.23,0,0,1-.61-.23l.28-.63a1.76,1.76,0,0,0,.53.22,2.46,2.46,0,0,0,.67.09,1.28,1.28,0,0,0,.79-.22A.79.79,0,0,0,313.69,330.13Z"/><path class="cls-6" d="M617.65,196.74a1.93,1.93,0,0,1-.35.23l-.39.17-.41.11a2.58,2.58,0,0,1-.38,0,1.7,1.7,0,0,1-.8-.16,1.32,1.32,0,0,1-.5-.39,1.56,1.56,0,0,1-.25-.52,2.09,2.09,0,0,1-.07-.53,4.82,4.82,0,0,1,.23-1.53,3.46,3.46,0,0,1,.62-1.14,2.5,2.5,0,0,1,.88-.72,2.24,2.24,0,0,1,1-.25,2.16,2.16,0,0,1,.62.07,2.36,2.36,0,0,1,.45.16l-.28.62a1.36,1.36,0,0,0-.42-.16,3.1,3.1,0,0,0-.54-.05,1.06,1.06,0,0,0-.66.23,2.22,2.22,0,0,0-.58.6,3.24,3.24,0,0,0-.4.86,3.41,3.41,0,0,0-.15,1,1.45,1.45,0,0,0,.27,1,.94.94,0,0,0,.73.31,1.67,1.67,0,0,0,.63-.14,2.87,2.87,0,0,0,.53-.27Z"/><path class="cls-6" d="M621.82,192.83a.58.58,0,0,0-.19,0h-.17a1.28,1.28,0,0,0-.88.32,2.16,2.16,0,0,0-.58.78l-.69,3.28h-.75l1.06-5h.52V193h0a3.32,3.32,0,0,1,.26-.36,1.7,1.7,0,0,1,.31-.29,1.36,1.36,0,0,1,.37-.21,1.23,1.23,0,0,1,.44-.07,1.51,1.51,0,0,1,.46.07Z"/><path class="cls-6" d="M625.36,196.68a2.33,2.33,0,0,1-.82.45,2.93,2.93,0,0,1-1,.16,1.52,1.52,0,0,1-1.2-.46,1.89,1.89,0,0,1-.41-1.28,4.45,4.45,0,0,1,.23-1.47,3.4,3.4,0,0,1,.6-1.1,2.75,2.75,0,0,1,.85-.69,2.18,2.18,0,0,1,1-.24,1.74,1.74,0,0,1,.63.1,1.15,1.15,0,0,1,.43.26,1,1,0,0,1,.25.38,1.44,1.44,0,0,1,.08.46,1.24,1.24,0,0,1-.69,1.11,4,4,0,0,1-2,.41h-.52a2.25,2.25,0,0,0-.06.36c0,.11,0,.21,0,.3a1.46,1.46,0,0,0,.25.89.91.91,0,0,0,.78.35,2.07,2.07,0,0,0,.8-.15,2.12,2.12,0,0,0,.57-.3Zm-.85-4a1.38,1.38,0,0,0-1,.37,2.47,2.47,0,0,0-.61,1.13l.79,0a4,4,0,0,0,.74-.11,1.22,1.22,0,0,0,.56-.27.61.61,0,0,0,.22-.51.65.65,0,0,0-.15-.4.76.76,0,0,0-.22-.14A1.27,1.27,0,0,0,624.51,192.69Z"/><path class="cls-6" d="M630.23,195.2a5.88,5.88,0,0,0-.11.75c0,.25,0,.49,0,.71v.28a2,2,0,0,0,0,.25h-.55l-.14-.87h0a2.92,2.92,0,0,1-.29.34,3,3,0,0,1-.39.32,1.88,1.88,0,0,1-.45.22,1.44,1.44,0,0,1-.51.09c-.79,0-1.19-.52-1.19-1.55a5.85,5.85,0,0,1,.16-1.3,3.86,3.86,0,0,1,.51-1.19,2.74,2.74,0,0,1,.89-.87,2.39,2.39,0,0,1,1.31-.34,4.82,4.82,0,0,1,.69.06,5.15,5.15,0,0,1,.75.18ZM628,196.65a1,1,0,0,0,.46-.12,2.19,2.19,0,0,0,.42-.28,3.92,3.92,0,0,0,.34-.37,2.8,2.8,0,0,0,.24-.36l.56-2.7a1.69,1.69,0,0,0-.76-.14,1.28,1.28,0,0,0-.81.27,2.27,2.27,0,0,0-.59.7,3.62,3.62,0,0,0-.36,1,5.08,5.08,0,0,0-.12,1.1,1.26,1.26,0,0,0,.15.64A.5.5,0,0,0,628,196.65Z"/><path class="cls-6" d="M631.68,192.17h.74l.21-1,.8-.23-.26,1.22h1.31l-.15.64H633l-.63,3,0,.22a1.1,1.1,0,0,0,0,.18.42.42,0,0,0,.11.33.5.5,0,0,0,.33.09,1.51,1.51,0,0,0,.44-.06,1.76,1.76,0,0,0,.4-.18V197a2,2,0,0,1-.54.19,2.86,2.86,0,0,1-.63.08c-.61,0-.91-.28-.91-.83a2.37,2.37,0,0,1,.05-.42l.68-3.23h-.75Z"/><path class="cls-6" d="M638,196.68a2.33,2.33,0,0,1-.82.45,2.93,2.93,0,0,1-1,.16,1.54,1.54,0,0,1-1.2-.46,1.84,1.84,0,0,1-.41-1.28,4.45,4.45,0,0,1,.23-1.47,3.42,3.42,0,0,1,.61-1.1,2.64,2.64,0,0,1,.85-.69,2.11,2.11,0,0,1,1-.24,1.65,1.65,0,0,1,.62.1,1.12,1.12,0,0,1,.44.26,1,1,0,0,1,.25.38,1.44,1.44,0,0,1,.08.46,1.24,1.24,0,0,1-.69,1.11,4,4,0,0,1-2,.41h-.52a2.25,2.25,0,0,0-.06.36c0,.11,0,.21,0,.3a1.46,1.46,0,0,0,.25.89.91.91,0,0,0,.78.35,2.16,2.16,0,0,0,.81-.15,2.2,2.2,0,0,0,.56-.3Zm-.85-4a1.34,1.34,0,0,0-.95.37,2.39,2.39,0,0,0-.62,1.13l.79,0a4.22,4.22,0,0,0,.75-.11,1.24,1.24,0,0,0,.55-.27.61.61,0,0,0,.22-.51.54.54,0,0,0-.37-.54A1.27,1.27,0,0,0,637.14,192.69Z"/><path class="cls-6" d="M641.32,195.75a.72.72,0,0,0-.13-.44,1.72,1.72,0,0,0-.33-.33l-.43-.28a3.43,3.43,0,0,1-.43-.32,1.6,1.6,0,0,1-.33-.4,1.17,1.17,0,0,1-.13-.59,1.07,1.07,0,0,1,.14-.52,1.48,1.48,0,0,1,.36-.43,1.91,1.91,0,0,1,.57-.29,2.24,2.24,0,0,1,.7-.1,3.5,3.5,0,0,1,.82.07,1.71,1.71,0,0,1,.52.2l-.25.6a2.13,2.13,0,0,0-1.09-.23,1.31,1.31,0,0,0-.69.17.59.59,0,0,0-.28.54.52.52,0,0,0,.13.36,1.94,1.94,0,0,0,.33.3l.43.28a3.5,3.5,0,0,1,.43.33,1.81,1.81,0,0,1,.33.44,1.2,1.2,0,0,1,.13.59,1.39,1.39,0,0,1-.52,1.18,2.27,2.27,0,0,1-1.41.41,3.49,3.49,0,0,1-.82-.09,2.23,2.23,0,0,1-.61-.23l.28-.63a2.14,2.14,0,0,0,.52.22,2.59,2.59,0,0,0,.68.09,1.28,1.28,0,0,0,.79-.22A.8.8,0,0,0,641.32,195.75Z"/><line class="cls-13" x1="82" y1="203" x2="154.48" y2="203"/><polygon class="cls-6" points="149.84 208.73 148.89 207.7 153.94 203 148.89 198.3 149.84 197.28 156 203 149.84 208.73"/><path class="cls-6" d="M96.65,196.74a2.24,2.24,0,0,1-.34.23l-.4.17-.41.11a2.58,2.58,0,0,1-.38,0,1.7,1.7,0,0,1-.8-.16,1.32,1.32,0,0,1-.5-.39,1.56,1.56,0,0,1-.25-.52,2.09,2.09,0,0,1-.07-.53,4.82,4.82,0,0,1,.23-1.53,3.46,3.46,0,0,1,.62-1.14,2.5,2.5,0,0,1,.88-.72,2.24,2.24,0,0,1,1-.25,2.28,2.28,0,0,1,.63.07,2.52,2.52,0,0,1,.44.16l-.28.62a1.36,1.36,0,0,0-.42-.16,3.1,3.1,0,0,0-.54-.05,1.06,1.06,0,0,0-.66.23,2.22,2.22,0,0,0-.58.6,3.24,3.24,0,0,0-.4.86,3.41,3.41,0,0,0-.15,1,1.45,1.45,0,0,0,.27,1,.94.94,0,0,0,.73.31,1.67,1.67,0,0,0,.63-.14,2.87,2.87,0,0,0,.53-.27Z"/><path class="cls-6" d="M100.82,192.83a.57.57,0,0,0-.18,0h-.18a1.28,1.28,0,0,0-.88.32,2.16,2.16,0,0,0-.58.78l-.69,3.28h-.75l1.06-5h.52V193h0a3.32,3.32,0,0,1,.26-.36,1.7,1.7,0,0,1,.31-.29,1.36,1.36,0,0,1,.37-.21,1.23,1.23,0,0,1,.44-.07,1.51,1.51,0,0,1,.46.07Z"/><path class="cls-6" d="M104.36,196.68a2.33,2.33,0,0,1-.82.45,2.93,2.93,0,0,1-1,.16,1.54,1.54,0,0,1-1.2-.46,1.84,1.84,0,0,1-.41-1.28,4.45,4.45,0,0,1,.23-1.47,3.42,3.42,0,0,1,.61-1.1,2.72,2.72,0,0,1,.84-.69,2.18,2.18,0,0,1,1-.24,1.74,1.74,0,0,1,.63.1,1.15,1.15,0,0,1,.43.26,1,1,0,0,1,.25.38,1.44,1.44,0,0,1,.08.46,1.24,1.24,0,0,1-.69,1.11,4,4,0,0,1-2,.41h-.52a2.25,2.25,0,0,0-.06.36c0,.11,0,.21,0,.3a1.46,1.46,0,0,0,.25.89.91.91,0,0,0,.78.35,2.16,2.16,0,0,0,.81-.15,2.2,2.2,0,0,0,.56-.3Zm-.85-4a1.34,1.34,0,0,0-1,.37,2.39,2.39,0,0,0-.62,1.13l.79,0a4.22,4.22,0,0,0,.75-.11,1.24,1.24,0,0,0,.55-.27.61.61,0,0,0,.22-.51.54.54,0,0,0-.37-.54A1.27,1.27,0,0,0,103.51,192.69Z"/><path class="cls-6" d="M109.23,195.2a5.88,5.88,0,0,0-.11.75c0,.25,0,.49,0,.71v.28a2,2,0,0,0,0,.25h-.55l-.14-.87h0a2.92,2.92,0,0,1-.29.34,3,3,0,0,1-.39.32,1.88,1.88,0,0,1-.45.22,1.44,1.44,0,0,1-.51.09c-.79,0-1.19-.52-1.19-1.55a5.32,5.32,0,0,1,.16-1.3,3.86,3.86,0,0,1,.51-1.19,2.74,2.74,0,0,1,.89-.87,2.39,2.39,0,0,1,1.31-.34,4.82,4.82,0,0,1,.69.06,5.15,5.15,0,0,1,.75.18ZM107,196.65a1,1,0,0,0,.46-.12,1.92,1.92,0,0,0,.42-.28,2.92,2.92,0,0,0,.34-.37,2.8,2.8,0,0,0,.24-.36l.56-2.7a1.69,1.69,0,0,0-.76-.14,1.28,1.28,0,0,0-.81.27,2.27,2.27,0,0,0-.59.7,3.62,3.62,0,0,0-.36,1,5.08,5.08,0,0,0-.12,1.1,1.26,1.26,0,0,0,.15.64A.5.5,0,0,0,107,196.65Z"/><path class="cls-6" d="M110.68,192.17h.74l.21-1,.8-.23-.26,1.22h1.31l-.15.64H112l-.63,3a1.43,1.43,0,0,1,0,.22,1.09,1.09,0,0,0,0,.18.42.42,0,0,0,.11.33.5.5,0,0,0,.33.09,1.51,1.51,0,0,0,.44-.06,1.76,1.76,0,0,0,.4-.18V197a2,2,0,0,1-.54.19,2.86,2.86,0,0,1-.63.08c-.61,0-.91-.28-.91-.83a2.37,2.37,0,0,1,0-.42l.68-3.23h-.75Z"/><path class="cls-6" d="M117,196.68a2.33,2.33,0,0,1-.82.45,2.93,2.93,0,0,1-1,.16,1.52,1.52,0,0,1-1.2-.46,1.84,1.84,0,0,1-.41-1.28,4.45,4.45,0,0,1,.23-1.47,3.42,3.42,0,0,1,.61-1.1,2.72,2.72,0,0,1,.84-.69,2.18,2.18,0,0,1,1-.24,1.74,1.74,0,0,1,.63.1,1.15,1.15,0,0,1,.43.26,1,1,0,0,1,.25.38,1.44,1.44,0,0,1,.08.46,1.24,1.24,0,0,1-.69,1.11,4,4,0,0,1-2,.41h-.52a2.25,2.25,0,0,0-.06.36c0,.11,0,.21,0,.3a1.46,1.46,0,0,0,.25.89.91.91,0,0,0,.78.35,2.16,2.16,0,0,0,.81-.15,2.2,2.2,0,0,0,.56-.3Zm-.85-4a1.34,1.34,0,0,0-1,.37,2.39,2.39,0,0,0-.62,1.13l.79,0a4,4,0,0,0,.74-.11,1.22,1.22,0,0,0,.56-.27.61.61,0,0,0,.22-.51.54.54,0,0,0-.37-.54A1.27,1.27,0,0,0,116.14,192.69Z"/><path class="cls-6" d="M120.32,195.75a.72.72,0,0,0-.13-.44,1.72,1.72,0,0,0-.33-.33l-.43-.28a3.43,3.43,0,0,1-.43-.32,1.6,1.6,0,0,1-.33-.4,1.17,1.17,0,0,1-.13-.59,1.07,1.07,0,0,1,.14-.52,1.37,1.37,0,0,1,.37-.43,1.8,1.8,0,0,1,.55-.29,2.34,2.34,0,0,1,.71-.1,3.5,3.5,0,0,1,.82.07,1.71,1.71,0,0,1,.52.2l-.25.6a2.13,2.13,0,0,0-1.09-.23,1.37,1.37,0,0,0-.7.17.61.61,0,0,0-.27.54.52.52,0,0,0,.13.36,1.94,1.94,0,0,0,.33.3l.43.28a3.5,3.5,0,0,1,.43.33,1.81,1.81,0,0,1,.33.44,1.2,1.2,0,0,1,.13.59,1.42,1.42,0,0,1-.52,1.18,2.27,2.27,0,0,1-1.41.41,3.58,3.58,0,0,1-.83-.09,2.15,2.15,0,0,1-.6-.23l.28-.63a2.14,2.14,0,0,0,.52.22,2.59,2.59,0,0,0,.68.09,1.23,1.23,0,0,0,.78-.22A.78.78,0,0,0,120.32,195.75Z"/><path class="cls-6" d="M322.62,379.18a2,2,0,0,1-2-2V371.7a7.16,7.16,0,0,1,2.31-5.32,7.49,7.49,0,0,1,3.45-1.93,10.5,10.5,0,0,1-4.27-6.2l-.25-.12a4.43,4.43,0,0,1-2.48-4,4.26,4.26,0,0,1,.18-1.23,5.22,5.22,0,0,1,3-8.37,10.53,10.53,0,0,1,19.55,0,5.27,5.27,0,0,1,4,5.1,5.34,5.34,0,0,1-1,3.1,4.4,4.4,0,0,1,.21,1.36,4.47,4.47,0,0,1-2.73,4.09,10.53,10.53,0,0,1-4.29,6.22,7,7,0,0,1,3.46,2.06,7.42,7.42,0,0,1,2.18,5.18v5.48a2,2,0,0,1-2,2Z"/><path class="cls-14" d="M332.34,340a8.52,8.52,0,0,1,8.27,6.49h.26a3.26,3.26,0,0,1,3.25,3.25,3.36,3.36,0,0,1-1.53,2.75,2.4,2.4,0,0,1,.71,1.71,2.43,2.43,0,0,1-2.37,2.43l-.12.15a8.55,8.55,0,0,1-5.15,6.9v2.59h.75a5.19,5.19,0,0,1,3.86,1.65,5.43,5.43,0,0,1,1.65,3.83v5.48h-19.3V371.7a5.13,5.13,0,0,1,1.65-3.83,5.5,5.5,0,0,1,3.86-1.65h.92v-2.37h.18v-.14a8.53,8.53,0,0,1-5.36-7l-.1-.15a2.12,2.12,0,0,1-1-.24,2.41,2.41,0,0,1-1.38-2.19,2.47,2.47,0,0,1,.85-1.84l-.08-.41-.18.55a3.35,3.35,0,0,1-1.55-2.76,3.26,3.26,0,0,1,3.25-3.25h.18l.32-.4a8.53,8.53,0,0,1,8.17-6.09h0m0-4a12.61,12.61,0,0,0-11.21,6.95,7.21,7.21,0,0,0-3.7,10.44,5.51,5.51,0,0,0-.05.81,6.41,6.41,0,0,0,3,5.46,12.29,12.29,0,0,0,2.39,4.3,9.55,9.55,0,0,0-4.19,7.79v5.48a4,4,0,0,0,4,4h19.3a4,4,0,0,0,4-4V371.7a9.48,9.48,0,0,0-2.77-6.6,8.57,8.57,0,0,0-1.32-1.16,12.58,12.58,0,0,0,2.44-4.34,6.46,6.46,0,0,0,3-5.45,5.66,5.66,0,0,0-.08-1,7.16,7.16,0,0,0,.9-3.45,7.28,7.28,0,0,0-4.53-6.72,12.48,12.48,0,0,0-11.25-7Z"/><path class="cls-5" d="M322.62,378.18a1,1,0,0,1-1-1V371.7a6.13,6.13,0,0,1,2-4.57,6.55,6.55,0,0,1,4.45-1.91v-.94a9.49,9.49,0,0,1-5.08-6.79,3.56,3.56,0,0,1-.66-.25,3.45,3.45,0,0,1-1.93-3.09,3.4,3.4,0,0,1,.32-1.44,4.32,4.32,0,0,1-1.28-3,4.26,4.26,0,0,1,3.89-4.24,9.52,9.52,0,0,1,18.07,0,4.23,4.23,0,0,1,2.55,7.14,3.3,3.3,0,0,1,.37,1.54,3.46,3.46,0,0,1-2.59,3.33,9.53,9.53,0,0,1-5,6.78v1a6.18,6.18,0,0,1,4.35,2,6.47,6.47,0,0,1,1.91,4.51v5.48a1,1,0,0,1-1,1Z"/><path class="cls-6" d="M332.34,340a8.52,8.52,0,0,1,8.27,6.49h.26a3.26,3.26,0,0,1,3.25,3.25,3.36,3.36,0,0,1-1.53,2.75,2.4,2.4,0,0,1,.71,1.71,2.43,2.43,0,0,1-2.37,2.43l-.12.15a8.55,8.55,0,0,1-5.15,6.9v2.59h.75a5.19,5.19,0,0,1,3.86,1.65,5.43,5.43,0,0,1,1.65,3.83v5.48h-19.3V371.7a5.13,5.13,0,0,1,1.65-3.83,5.5,5.5,0,0,1,3.86-1.65h.92v-2.37h.18v-.14a8.53,8.53,0,0,1-5.36-7l-.1-.15a2.12,2.12,0,0,1-1-.24,2.41,2.41,0,0,1-1.38-2.19,2.47,2.47,0,0,1,.85-1.84l-.08-.41-.18.55a3.35,3.35,0,0,1-1.55-2.76,3.26,3.26,0,0,1,3.25-3.25h.18l.32-.4a8.53,8.53,0,0,1,8.17-6.09h0m0-2a10.6,10.6,0,0,0-9.77,6.6,5.22,5.22,0,0,0-3,8.37,4.26,4.26,0,0,0-.18,1.23,4.43,4.43,0,0,0,2.48,4l.25.12a10.5,10.5,0,0,0,4.27,6.2,7.55,7.55,0,0,0-3.48,2,7.14,7.14,0,0,0-2.28,5.28v5.48a2,2,0,0,0,2,2h19.3a2,2,0,0,0,2-2V371.7a7.49,7.49,0,0,0-2.21-5.22,7.1,7.1,0,0,0-3.43-2,10.5,10.5,0,0,0,4.29-6.22,4.47,4.47,0,0,0,2.73-4.09,4.4,4.4,0,0,0-.21-1.36,5.34,5.34,0,0,0,1-3.1,5.27,5.27,0,0,0-4-5.1,10.5,10.5,0,0,0-9.78-6.64Z"/><path class="cls-7" d="M329.05,363.76v2.39h-.92a5.5,5.5,0,0,0-3.86,1.65,5.19,5.19,0,0,0-1.65,3.86v5.52h19.3v-5.52a5.5,5.5,0,0,0-1.65-3.86,5.19,5.19,0,0,0-3.86-1.65h-.92v-2.39"/><path class="cls-7" d="M330.52,359.41a2.29,2.29,0,0,0,1.91,1,2.39,2.39,0,0,0,1.92-1"/><path class="cls-6" d="M335.8,353.85a.88.88,0,0,1,.81.82.81.81,0,1,1-.81-.82Z"/><circle class="cls-6" cx="329.06" cy="354.67" r="0.81"/><path class="cls-7" d="M341.92,352a2.44,2.44,0,0,1-1.05,4.63v-4.87A2.26,2.26,0,0,1,341.92,352Z"/><path class="cls-7" d="M322.76,356.34a2.43,2.43,0,0,1,1.05-4.62v4.87A2.14,2.14,0,0,1,322.76,356.34Z"/><path class="cls-7" d="M330.28,351a.81.81,0,0,1,0,1.62h-2.44a.81.81,0,0,1,0-1.62Z"/><path class="cls-7" d="M337.83,351.82a.86.86,0,0,1-.81.81h-2.43a.81.81,0,1,1,0-1.62H337A.87.87,0,0,1,337.83,351.82Z"/><path class="cls-7" d="M322,352.45a3.35,3.35,0,0,1-1.55-2.76,3.26,3.26,0,0,1,3.25-3.25H324"/><path class="cls-7" d="M342.57,352.45a3.34,3.34,0,0,0,1.55-2.76,3.26,3.26,0,0,0-3.25-3.25h-.33"/><rect class="cls-7" x="323.81" y="339.95" width="17.05" height="24.36" rx="8.13"/><path class="cls-6" d="M290.23,395.31h-1.18l-.18-.81a1.65,1.65,0,0,0-1.05-.33,1.15,1.15,0,0,0-.73.2.63.63,0,0,0-.27.52.58.58,0,0,0,.26.49,2.73,2.73,0,0,0,1,.34,4.25,4.25,0,0,1,1.79.7,1.57,1.57,0,0,1,.58,1.28,1.69,1.69,0,0,1-.76,1.43,3.28,3.28,0,0,1-2,.55,4.23,4.23,0,0,1-1.37-.22,3.37,3.37,0,0,1-1.11-.63l0-1.45h1.22l.24.85a1,1,0,0,0,.42.19,2.62,2.62,0,0,0,.57.06,1.43,1.43,0,0,0,.81-.19.61.61,0,0,0,0-1,3,3,0,0,0-1-.37,4,4,0,0,1-1.73-.69,1.51,1.51,0,0,1-.58-1.24,1.79,1.79,0,0,1,.67-1.4,2.77,2.77,0,0,1,1.91-.59,4.73,4.73,0,0,1,1.42.2,3.17,3.17,0,0,1,1.06.52Z"/><path class="cls-6" d="M293.82,391.5v1.58H295v1.23h-1.14v3.29a.79.79,0,0,0,.16.54.54.54,0,0,0,.42.16h.31l.3-.05.15,1.26a4,4,0,0,1-.58.13,3.89,3.89,0,0,1-.62.05,1.88,1.88,0,0,1-1.39-.5,2.19,2.19,0,0,1-.48-1.57v-3.3h-1v-1.23h1V391.5Z"/><path class="cls-6" d="M299.93,399.55c0-.11-.09-.22-.12-.33a1.4,1.4,0,0,1-.08-.34,2.44,2.44,0,0,1-.76.58,2.39,2.39,0,0,1-1,.22,2.12,2.12,0,0,1-1.51-.52,1.82,1.82,0,0,1-.56-1.41,1.59,1.59,0,0,1,.73-1.4,3.82,3.82,0,0,1,2.14-.5h.89v-.63a.94.94,0,0,0-.27-.72,1.06,1.06,0,0,0-.79-.26,1.7,1.7,0,0,0-.53.07,1.24,1.24,0,0,0-.38.16l-.11.69h-1.32v-1.43a4.27,4.27,0,0,1,1.09-.54,3.94,3.94,0,0,1,1.35-.23,3.08,3.08,0,0,1,1.95.59,2,2,0,0,1,.75,1.68v2.67a2.44,2.44,0,0,0,0,.28,1,1,0,0,0,0,.25l.53.08v1Zm-1.51-1.16a1.56,1.56,0,0,0,.72-.17,1.52,1.52,0,0,0,.5-.43v-1h-.89a1.22,1.22,0,0,0-.84.26.83.83,0,0,0-.29.63.64.64,0,0,0,.21.51A.89.89,0,0,0,298.42,398.39Z"/><path class="cls-6" d="M302.36,391.28v-1H305v5.4h.39l1-1.42-.57-.07v-1.06H309v1.06l-.76.17-1.17,1.6,1.63,2.46.67.14v1h-3v-1l.36-.06-1-1.61H305v1.49l.75.18v1h-3.33v-1l.84-.18v-6.87Z"/><path class="cls-6" d="M313,399.68a2.91,2.91,0,0,1-2.24-.9,3.21,3.21,0,0,1-.84-2.28v-.24a3.57,3.57,0,0,1,.79-2.37,3,3,0,0,1,4.16-.14,3.07,3.07,0,0,1,.73,2.14v.95h-3.87v0a1.72,1.72,0,0,0,.43,1.06,1.35,1.35,0,0,0,1,.41,3.21,3.21,0,0,0,1-.12,4.24,4.24,0,0,0,.84-.37l.47,1.08a3.26,3.26,0,0,1-1,.53A4.17,4.17,0,0,1,313,399.68Zm-.16-5.37a.92.92,0,0,0-.77.37,2,2,0,0,0-.34,1l0,0h2.14v-.15a1.43,1.43,0,0,0-.26-.89A1,1,0,0,0,312.83,394.31Z"/><path class="cls-6" d="M316.31,398.51l.85-.18v-6.87l-.93-.18v-1h2.67v3.68a2.24,2.24,0,0,1,.74-.7,2.07,2.07,0,0,1,1-.25,2,2,0,0,1,1.6.68,3.16,3.16,0,0,1,.57,2.07v2.62l.84.18v1H320.3v-1l.75-.18V395.7a1.61,1.61,0,0,0-.27-1.06,1,1,0,0,0-.79-.32,1.62,1.62,0,0,0-.64.13,1.24,1.24,0,0,0-.45.37v3.51l.75.18v1h-3.34Z"/><path class="cls-6" d="M324.13,396.26a3.44,3.44,0,0,1,.81-2.37,3.17,3.17,0,0,1,4.49,0,3.44,3.44,0,0,1,.81,2.37v.12a3.45,3.45,0,0,1-.81,2.38,3.2,3.2,0,0,1-4.49,0,3.45,3.45,0,0,1-.81-2.38Zm1.75.12a2.77,2.77,0,0,0,.31,1.42,1.19,1.19,0,0,0,2,0,2.79,2.79,0,0,0,.32-1.42v-.12a2.8,2.8,0,0,0-.32-1.41,1.19,1.19,0,0,0-2,0,2.81,2.81,0,0,0-.31,1.41Z"/><path class="cls-6" d="M330.69,391.28v-1h2.68v8.1l.84.18v1h-3.43v-1l.84-.18v-6.87Z"/><path class="cls-6" d="M339,398.76a2.2,2.2,0,0,1-.72.68,1.89,1.89,0,0,1-.95.24,2.2,2.2,0,0,1-1.86-.87,3.77,3.77,0,0,1-.66-2.31v-.13a4.15,4.15,0,0,1,.67-2.47,2.16,2.16,0,0,1,1.86-.94,1.78,1.78,0,0,1,.87.22,2.17,2.17,0,0,1,.69.6v-2.32l-.94-.18v-1h2.68v8.1l.84.18v1h-2.35Zm-2.44-2.26a2.63,2.63,0,0,0,.28,1.33,1,1,0,0,0,.93.49,1.22,1.22,0,0,0,1.13-.6V395a1.51,1.51,0,0,0-.46-.48,1.27,1.27,0,0,0-.66-.17,1,1,0,0,0-.93.57,3.3,3.3,0,0,0-.29,1.48Z"/><path class="cls-6" d="M345.12,399.68a2.89,2.89,0,0,1-2.23-.9,3.21,3.21,0,0,1-.84-2.28v-.24a3.52,3.52,0,0,1,.79-2.37,3,3,0,0,1,4.16-.14,3.06,3.06,0,0,1,.72,2.14v.95h-3.86v0a1.71,1.71,0,0,0,.42,1.06,1.37,1.37,0,0,0,1,.41,3.3,3.3,0,0,0,1-.12,4.81,4.81,0,0,0,.84-.37l.47,1.08a3.37,3.37,0,0,1-1,.53A4.23,4.23,0,0,1,345.12,399.68Zm-.15-5.37a.9.9,0,0,0-.77.37,2,2,0,0,0-.35,1l0,0H346v-.15a1.37,1.37,0,0,0-.26-.89A.92.92,0,0,0,345,394.31Z"/><path class="cls-6" d="M348.68,398.51l.83-.18v-4l-.92-.18v-1.06h2.55l.08.95a1.9,1.9,0,0,1,.58-.78,1.32,1.32,0,0,1,.84-.29l.29,0,.25.05-.19,1.59-.71,0a1.24,1.24,0,0,0-.64.15,1,1,0,0,0-.38.42v3.15l.84.18v1h-3.42Z"/><path class="cls-6" d="M363.27,393.63H362l-.23-1.2a2.4,2.4,0,0,0-.66-.25,4,4,0,0,0-.93-.11,1.76,1.76,0,0,0-1.11.31.94.94,0,0,0-.39.78.86.86,0,0,0,.41.72,5.78,5.78,0,0,0,1.42.6,5.54,5.54,0,0,1,2.18,1.06,2.2,2.2,0,0,1,.75,1.73,2.07,2.07,0,0,1-.89,1.76,3.87,3.87,0,0,1-2.33.65,5.06,5.06,0,0,1-1.87-.33,3.86,3.86,0,0,1-1.39-.91v-1.82h1.35l.19,1.24a2.24,2.24,0,0,0,.71.36,3.52,3.52,0,0,0,1,.14,1.71,1.71,0,0,0,1.09-.3.92.92,0,0,0,.37-.78,1,1,0,0,0-.35-.81,3.67,3.67,0,0,0-1.25-.57,7.13,7.13,0,0,1-2.34-1.06,2,2,0,0,1-.8-1.69,2.07,2.07,0,0,1,.9-1.73,3.72,3.72,0,0,1,2.25-.69,5.32,5.32,0,0,1,1.83.3,4.3,4.3,0,0,1,1.39.82Z"/><path class="cls-6" d="M364.08,391.9v-1h3.61v1l-.93.18v2.51h3.55v-2.51l-.94-.18v-1H373v1l-.93.18v6.25l.93.18v1h-3.61v-1l.94-.18v-2.39h-3.55v2.39l.93.18v1h-3.61v-1l.93-.18v-6.25Z"/><path class="cls-6" d="M375.6,394.46h1a1.19,1.19,0,0,0,.92-.33,1.27,1.27,0,0,0,.3-.9,1.21,1.21,0,0,0-.3-.85,1.14,1.14,0,0,0-.87-.31,1.2,1.2,0,0,0-.82.28,1,1,0,0,0-.34.76h-1.69v0a1.94,1.94,0,0,1,.78-1.68,3.09,3.09,0,0,1,2-.67,3.37,3.37,0,0,1,2.16.65,2.23,2.23,0,0,1,.8,1.84,1.84,1.84,0,0,1-.36,1.08,2.36,2.36,0,0,1-1,.8,2.17,2.17,0,0,1,1.1.79,2.06,2.06,0,0,1,.38,1.23,2.25,2.25,0,0,1-.87,1.88,3.82,3.82,0,0,1-4.31.05,2.07,2.07,0,0,1-.84-1.82v0h1.69a1,1,0,0,0,.36.82,1.46,1.46,0,0,0,1.86,0,1.15,1.15,0,0,0,.35-.9,1.31,1.31,0,0,0-.34-1,1.46,1.46,0,0,0-1-.32h-1Z"/><path class="cls-5" d="M322.62,378.18a1,1,0,0,1-1-1V371.7a6.13,6.13,0,0,1,2-4.57,6.55,6.55,0,0,1,4.45-1.91v-.94a9.49,9.49,0,0,1-5.08-6.79,3.56,3.56,0,0,1-.66-.25,3.45,3.45,0,0,1-1.93-3.09,3.4,3.4,0,0,1,.32-1.44,4.32,4.32,0,0,1-1.28-3,4.26,4.26,0,0,1,3.89-4.24,9.52,9.52,0,0,1,18.07,0,4.23,4.23,0,0,1,2.55,7.14,3.3,3.3,0,0,1,.37,1.54,3.46,3.46,0,0,1-2.59,3.33,9.53,9.53,0,0,1-5,6.78v1a6.18,6.18,0,0,1,4.35,2,6.47,6.47,0,0,1,1.91,4.51v5.48a1,1,0,0,1-1,1Z"/><path class="cls-6" d="M332.34,340a8.52,8.52,0,0,1,8.27,6.49h.26a3.26,3.26,0,0,1,3.25,3.25,3.36,3.36,0,0,1-1.53,2.75,2.4,2.4,0,0,1,.71,1.71,2.43,2.43,0,0,1-2.37,2.43l-.12.15a8.55,8.55,0,0,1-5.15,6.9v2.59h.75a5.19,5.19,0,0,1,3.86,1.65,5.43,5.43,0,0,1,1.65,3.83v5.48h-19.3V371.7a5.13,5.13,0,0,1,1.65-3.83,5.5,5.5,0,0,1,3.86-1.65h.92v-2.37h.18v-.14a8.53,8.53,0,0,1-5.36-7l-.1-.15a2.12,2.12,0,0,1-1-.24,2.41,2.41,0,0,1-1.38-2.19,2.47,2.47,0,0,1,.85-1.84l-.08-.41-.18.55a3.35,3.35,0,0,1-1.55-2.76,3.26,3.26,0,0,1,3.25-3.25h.18l.32-.4a8.53,8.53,0,0,1,8.17-6.09h0m0-2a10.6,10.6,0,0,0-9.77,6.6,5.22,5.22,0,0,0-3,8.37,4.26,4.26,0,0,0-.18,1.23,4.43,4.43,0,0,0,2.48,4l.25.12a10.5,10.5,0,0,0,4.27,6.2,7.55,7.55,0,0,0-3.48,2,7.14,7.14,0,0,0-2.28,5.28v5.48a2,2,0,0,0,2,2h19.3a2,2,0,0,0,2-2V371.7a7.49,7.49,0,0,0-2.21-5.22,7.1,7.1,0,0,0-3.43-2,10.5,10.5,0,0,0,4.29-6.22,4.47,4.47,0,0,0,2.73-4.09,4.4,4.4,0,0,0-.21-1.36,5.34,5.34,0,0,0,1-3.1,5.27,5.27,0,0,0-4-5.1,10.5,10.5,0,0,0-9.78-6.64Z"/><path class="cls-7" d="M329.05,363.76v2.39h-.92a5.5,5.5,0,0,0-3.86,1.65,5.19,5.19,0,0,0-1.65,3.86v5.52h19.3v-5.52a5.5,5.5,0,0,0-1.65-3.86,5.19,5.19,0,0,0-3.86-1.65h-.92v-2.39"/><path class="cls-7" d="M330.52,359.41a2.29,2.29,0,0,0,1.91,1,2.39,2.39,0,0,0,1.92-1"/><path class="cls-6" d="M335.8,353.85a.88.88,0,0,1,.81.82.81.81,0,1,1-.81-.82Z"/><circle class="cls-6" cx="329.06" cy="354.67" r="0.81"/><path class="cls-7" d="M341.92,352a2.44,2.44,0,0,1-1.05,4.63v-4.87A2.26,2.26,0,0,1,341.92,352Z"/><path class="cls-7" d="M322.76,356.34a2.43,2.43,0,0,1,1.05-4.62v4.87A2.14,2.14,0,0,1,322.76,356.34Z"/><path class="cls-7" d="M330.28,351a.81.81,0,0,1,0,1.62h-2.44a.81.81,0,0,1,0-1.62Z"/><path class="cls-7" d="M337.83,351.82a.86.86,0,0,1-.81.81h-2.43a.81.81,0,1,1,0-1.62H337A.87.87,0,0,1,337.83,351.82Z"/><path class="cls-7" d="M322,352.45a3.35,3.35,0,0,1-1.55-2.76,3.26,3.26,0,0,1,3.25-3.25H324"/><path class="cls-7" d="M342.57,352.45a3.34,3.34,0,0,0,1.55-2.76,3.26,3.26,0,0,0-3.25-3.25h-.33"/><rect class="cls-7" x="323.81" y="339.95" width="17.05" height="24.36" rx="8.13"/><path class="cls-6" d="M315.63,99.45a2.89,2.89,0,0,1-2.23-.9,3.17,3.17,0,0,1-.84-2.27V96a3.56,3.56,0,0,1,.79-2.38,3,3,0,0,1,4.16-.13,3,3,0,0,1,.72,2.13v1h-3.86v0a1.71,1.71,0,0,0,.42,1,1.37,1.37,0,0,0,1,.41,3.73,3.73,0,0,0,1-.11,4.81,4.81,0,0,0,.84-.37l.47,1.07a3.38,3.38,0,0,1-1,.54A4.51,4.51,0,0,1,315.63,99.45Zm-.15-5.37a.93.93,0,0,0-.77.37,2,2,0,0,0-.35,1l0,0h2.14V95.3a1.34,1.34,0,0,0-.26-.88A.9.9,0,0,0,315.48,94.08Z"/><path class="cls-6" d="M319,98.28l.84-.18v-4l-.93-.18v-1h2.55l.08.92a2.45,2.45,0,0,1,.8-.77,2.05,2.05,0,0,1,1.05-.27,1.92,1.92,0,0,1,1.53.61,2.83,2.83,0,0,1,.55,1.93V98.1l.84.18v1h-3.33v-1l.74-.18V95.29a1.28,1.28,0,0,0-.26-.92,1.07,1.07,0,0,0-.8-.27,1.29,1.29,0,0,0-.62.14,1.32,1.32,0,0,0-.46.39V98.1l.71.18v1H319Z"/><path class="cls-6" d="M329.8,98.11a1,1,0,0,0,.75-.27,1,1,0,0,0,.28-.73h1.58l0,0a2,2,0,0,1-.74,1.64,2.76,2.76,0,0,1-1.89.66,2.79,2.79,0,0,1-2.23-.91,3.51,3.51,0,0,1-.78-2.35V96a3.43,3.43,0,0,1,.81-2.35,2.85,2.85,0,0,1,2.29-.92,4.07,4.07,0,0,1,1.4.23,2.9,2.9,0,0,1,1,.66l0,1.73h-1.42l-.28-1a1.06,1.06,0,0,0-.33-.19,1.14,1.14,0,0,0-.43-.08,1.11,1.11,0,0,0-1.05.54,2.84,2.84,0,0,0-.3,1.39v.18a2.91,2.91,0,0,0,.28,1.39A1,1,0,0,0,329.8,98.11Z"/><path class="cls-6" d="M312.65,108.6l-.61.11.85,2.9.12.61h0l.13-.61.84-2.89-.62-.12v-1h2.93v1l-.56.09-1.9,5.33h-1.67l-1.92-5.33-.56-.09v-1h2.94Z"/><path class="cls-6" d="M316.79,110.72a3.48,3.48,0,0,1,.81-2.37,3.19,3.19,0,0,1,4.48,0,3.45,3.45,0,0,1,.82,2.37v.13a3.49,3.49,0,0,1-.82,2.38,2.82,2.82,0,0,1-2.23.91,2.85,2.85,0,0,1-2.25-.91,3.49,3.49,0,0,1-.81-2.38Zm1.75.13a2.79,2.79,0,0,0,.31,1.42,1.06,1.06,0,0,0,1,.53,1.07,1.07,0,0,0,1-.53,2.82,2.82,0,0,0,.31-1.42v-.13a2.77,2.77,0,0,0-.31-1.4,1.09,1.09,0,0,0-1-.55,1.07,1.07,0,0,0-1,.55,2.77,2.77,0,0,0-.31,1.4Z"/><path class="cls-6" d="M323.35,105.74v-1H326v8.1l.84.18v1h-3.43v-1l.84-.18v-6.87Z"/><path class="cls-6" d="M330.45,113l1.47-.18V106.9h-1.49v-1l3.23-.59v7.48l1.47.18v1h-4.68Z"/><rect class="cls-15" x="521" y="69" width="57" height="69" rx="5" transform="translate(1099 207) rotate(180)"/><path class="cls-6" d="M542.63,99.45a2.89,2.89,0,0,1-2.23-.9,3.17,3.17,0,0,1-.84-2.27V96a3.56,3.56,0,0,1,.79-2.38,3,3,0,0,1,4.16-.13,3,3,0,0,1,.72,2.13v1h-3.86v0a1.71,1.71,0,0,0,.42,1,1.37,1.37,0,0,0,1,.41,3.73,3.73,0,0,0,1-.11,4.81,4.81,0,0,0,.84-.37l.47,1.07a3.38,3.38,0,0,1-1,.54A4.51,4.51,0,0,1,542.63,99.45Zm-.15-5.37a.93.93,0,0,0-.77.37,2,2,0,0,0-.35,1l0,0h2.14V95.3a1.34,1.34,0,0,0-.26-.88A.9.9,0,0,0,542.48,94.08Z"/><path class="cls-6" d="M546,98.28l.84-.18v-4l-.93-.18v-1h2.55l.08.92a2.45,2.45,0,0,1,.8-.77,2.05,2.05,0,0,1,1.05-.27,1.92,1.92,0,0,1,1.53.61,2.83,2.83,0,0,1,.55,1.93V98.1l.84.18v1h-3.33v-1l.74-.18V95.29a1.28,1.28,0,0,0-.26-.92,1.07,1.07,0,0,0-.8-.27,1.29,1.29,0,0,0-.62.14,1.32,1.32,0,0,0-.46.39V98.1l.71.18v1H546Z"/><path class="cls-6" d="M556.8,98.11a1,1,0,0,0,.75-.27,1,1,0,0,0,.28-.73h1.58l0,0a2,2,0,0,1-.74,1.64,2.76,2.76,0,0,1-1.89.66,2.79,2.79,0,0,1-2.23-.91,3.51,3.51,0,0,1-.78-2.35V96a3.43,3.43,0,0,1,.81-2.35,2.85,2.85,0,0,1,2.29-.92,4.07,4.07,0,0,1,1.4.23,2.9,2.9,0,0,1,1,.66l0,1.73h-1.42l-.28-1a1.06,1.06,0,0,0-.33-.19,1.14,1.14,0,0,0-.43-.08,1.11,1.11,0,0,0-1,.54,2.84,2.84,0,0,0-.3,1.39v.18a2.91,2.91,0,0,0,.28,1.39A1,1,0,0,0,556.8,98.11Z"/><path class="cls-6" d="M539,108.6l-.61.11.85,2.9.12.61h0l.13-.61.84-2.89-.62-.12v-1h2.94v1l-.57.09-1.9,5.33h-1.67l-1.91-5.33-.57-.09v-1H539Z"/><path class="cls-6" d="M543.11,110.72a3.48,3.48,0,0,1,.81-2.37,3.2,3.2,0,0,1,4.49,0,3.44,3.44,0,0,1,.81,2.37v.13a3.49,3.49,0,0,1-.81,2.38,3.22,3.22,0,0,1-4.49,0,3.49,3.49,0,0,1-.81-2.38Zm1.75.13a2.79,2.79,0,0,0,.31,1.42,1.06,1.06,0,0,0,1,.53,1.07,1.07,0,0,0,1-.53,2.82,2.82,0,0,0,.32-1.42v-.13a2.76,2.76,0,0,0-.32-1.4,1.18,1.18,0,0,0-2,0,2.77,2.77,0,0,0-.31,1.4Z"/><path class="cls-6" d="M549.67,105.74v-1h2.68v8.1l.84.18v1h-3.43v-1l.84-.18v-6.87Z"/><path class="cls-6" d="M556.82,114v-1.14l2.82-3a7.18,7.18,0,0,0,.86-1.18,2,2,0,0,0,.26-.9,1.36,1.36,0,0,0-.3-.9,1,1,0,0,0-.84-.35,1.07,1.07,0,0,0-.91.41,1.76,1.76,0,0,0-.32,1.09h-1.7v0a2.64,2.64,0,0,1,.78-2,2.89,2.89,0,0,1,2.16-.81,3,3,0,0,1,2.12.7,2.4,2.4,0,0,1,.77,1.86,2.62,2.62,0,0,1-.43,1.46,13.76,13.76,0,0,1-1.44,1.75l-1.55,1.69v0h2.26l.08-.86h1.32V114Z"/><line class="cls-13" x1="271.5" y1="103.5" x2="286.48" y2="103.5"/><polygon class="cls-6" points="281.84 109.23 280.89 108.2 285.94 103.5 280.89 98.8 281.84 97.78 288 103.5 281.84 109.23"/><line class="cls-13" x1="497.5" y1="103.5" x2="512.48" y2="103.5"/><polygon class="cls-6" points="507.84 109.23 506.89 108.2 511.94 103.5 506.89 98.8 507.84 97.78 514 103.5 507.84 109.23"/><line class="cls-13" x1="357.5" y1="103.5" x2="372.48" y2="103.5"/><polygon class="cls-6" points="367.84 109.23 366.89 108.2 371.94 103.5 366.89 98.8 367.84 97.78 374 103.5 367.84 109.23"/><rect class="cls-16" x="157" y="68.52" width="109" height="71.48" rx="4"/><g id="Scone_logo_white" data-name="Scone logo white"><g class="cls-17"><g class="cls-17"><path class="cls-18" d="M194.81,128.8h-.76a.3.3,0,0,0-.29.3v.77a.29.29,0,0,0,.29.29h.76a.29.29,0,0,0,.3-.29v-.77a.3.3,0,0,0-.3-.3m-2.64,1.36h.76a.29.29,0,0,0,.29-.29v-.77a.3.3,0,0,0-.29-.3h-.76a.3.3,0,0,0-.3.3v.77a.29.29,0,0,0,.3.29m-.82-.29v-.77a.31.31,0,0,0-.3-.3h-.76a.3.3,0,0,0-.29.3v.77a.29.29,0,0,0,.29.29h.76a.3.3,0,0,0,.3-.29m3.52.84a.23.23,0,0,0-.22.22v.9a.23.23,0,0,0,.22.22.22.22,0,0,0,.22-.22v-.9a.2.2,0,0,0-.22-.22m-2.09.29v.77a.29.29,0,0,0,.29.3h.76a.29.29,0,0,0,.3-.3V131a.29.29,0,0,0-.3-.29h-.76a.29.29,0,0,0-.29.29m-.54.77V131a.29.29,0,0,0-.29-.29h-.76a.29.29,0,0,0-.3.29v.77a.29.29,0,0,0,.3.3H192a.29.29,0,0,0,.29-.3m2.57.84h-.76a.29.29,0,0,0-.29.29v.78a.29.29,0,0,0,.29.29h.76a.29.29,0,0,0,.3-.29v-.78a.29.29,0,0,0-.3-.29m-2,0h-.76a.29.29,0,0,0-.29.29v.78a.29.29,0,0,0,.29.29h.76a.29.29,0,0,0,.29-.29v-.78a.29.29,0,0,0-.29-.29"/><path class="cls-18" d="M195.74,128.5a1.77,1.77,0,0,0,1.18.36s0,0,0,.06V131c0,.81-1,1.31-1.22,1.44a0,0,0,0,1,0,0l0-3.92s0,0,0,0"/><path class="cls-18" d="M193.44,128.39c1.61,0,1.87-.61,1.87-.61a.09.09,0,0,1,.08,0,.1.1,0,0,1,.07,0s.25.6,1.86.6c0,0,.06,0,.06.08v2.75c0,.88-1.67,1.87-1.7,1.89s-.06,0-.06.06v.68s.1.05.15,0c.61-.33,2.34-1.29,2.34-2.46v-3.51c0-.06-.1-.1-.16-.1-2,0-2.43-.75-2.43-.75s-.09,0-.13,0-.08,0-.09,0-.34.77-2.37.77c-.08,0-.09,0-.09.09v.44s0,.1.06.1l.54,0"/><path class="cls-19" d="M199.63,132.89l.82-.31a1.11,1.11,0,0,0,1.07.61,1.2,1.2,0,0,0,.63-.14.51.51,0,0,0,.26-.44c0-.44-.6-.7-1-.88h0a4.25,4.25,0,0,1-1-.53,1.2,1.2,0,0,1-.47-1,1.3,1.3,0,0,1,.49-1,1.86,1.86,0,0,1,1.21-.41,1.76,1.76,0,0,1,1.61.88l-.85.32a.65.65,0,0,0-.29-.3,1.12,1.12,0,0,0-.47-.11c-.47,0-.79.25-.79.59a.66.66,0,0,0,.32.53,5.53,5.53,0,0,0,.73.38l.11,0c.63.26,1.4.6,1.4,1.45a1.22,1.22,0,0,1-.56,1,2.21,2.21,0,0,1-1.33.38,2,2,0,0,1-1.87-1.11"/><path class="cls-19" d="M206.89,134a2.67,2.67,0,0,1-1-.2,2.68,2.68,0,0,1-1.38-1.38,2.64,2.64,0,0,1-.2-1,2.71,2.71,0,0,1,.2-1,2.5,2.5,0,0,1,.56-.82,2.42,2.42,0,0,1,.82-.55,2.68,2.68,0,0,1,1-.21,2.52,2.52,0,0,1,1.17.28,2.59,2.59,0,0,1,.89.75l-.69.51a1.83,1.83,0,0,0-.6-.5,1.91,1.91,0,0,0-.79-.19,1.74,1.74,0,0,0-1.23,3,1.73,1.73,0,0,0,2.74-.38l.75.43a2.59,2.59,0,0,1-.94,1,2.34,2.34,0,0,1-1.3.36"/><path class="cls-19" d="M212.55,134a2.5,2.5,0,0,1-1-.21,2.47,2.47,0,0,1-.82-.55,2.69,2.69,0,0,1-.55-.82,2.5,2.5,0,0,1-.21-1,2.35,2.35,0,0,1,.21-1,2.57,2.57,0,0,1,.55-.82,2.72,2.72,0,0,1,.82-.56,2.65,2.65,0,0,1,2,0,2.31,2.31,0,0,1,.82.56,2.44,2.44,0,0,1,.56.82,2.65,2.65,0,0,1,0,2,2.55,2.55,0,0,1-.56.82,2.69,2.69,0,0,1-.82.55,2.5,2.5,0,0,1-1,.21m0-4.35a1.7,1.7,0,0,0-1.23.51,1.78,1.78,0,0,0-.51,1.23,1.73,1.73,0,0,0,3,1.23,1.74,1.74,0,0,0,.51-1.23,1.79,1.79,0,0,0-.51-1.23,1.74,1.74,0,0,0-1.23-.51"/><polygon class="cls-19" points="221.03 128.85 221.03 134.12 217.4 130.78 217.4 133.91 216.47 133.91 216.47 128.66 220.1 132.01 220.1 128.85 221.03 128.85"/><polygon class="cls-19" points="223.5 129.62 223.5 130.97 226.03 130.97 226.03 131.76 223.5 131.76 223.5 133.12 226.34 133.12 226.34 133.91 222.58 133.91 222.58 128.85 226.34 128.85 226.34 129.64 223.5 129.64 223.5 129.62"/></g></g></g><path class="cls-5" d="M189.46,96.1h-1.27L188,95a1.79,1.79,0,0,0-.64-.4,2.42,2.42,0,0,0-.9-.15,2,2,0,0,0-1.72.81,3.45,3.45,0,0,0-.6,2.11v.3a3.5,3.5,0,0,0,.6,2.12,2,2,0,0,0,1.69.81,2.69,2.69,0,0,0,.92-.15A1.52,1.52,0,0,0,188,100l.18-1.14h1.27v1.69a3.93,3.93,0,0,1-1.32,1,4.47,4.47,0,0,1-1.79.35,3.63,3.63,0,0,1-2.81-1.19,4.33,4.33,0,0,1-1.1-3.05v-.29a4.4,4.4,0,0,1,1.09-3,3.64,3.64,0,0,1,2.82-1.19,4.3,4.3,0,0,1,1.79.36,3.79,3.79,0,0,1,1.32,1Z"/><path class="cls-5" d="M190.28,98.52a3.39,3.39,0,0,1,.8-2.32,3.1,3.1,0,0,1,4.39,0,3.37,3.37,0,0,1,.8,2.32v.12a3.38,3.38,0,0,1-.8,2.33,3.13,3.13,0,0,1-4.39,0,3.38,3.38,0,0,1-.8-2.33Zm1.71.12a2.82,2.82,0,0,0,.31,1.4,1.17,1.17,0,0,0,1.95,0,2.68,2.68,0,0,0,.31-1.39v-.12a2.71,2.71,0,0,0-.31-1.38,1.06,1.06,0,0,0-1-.53,1,1,0,0,0-1,.53,2.82,2.82,0,0,0-.31,1.38Z"/><path class="cls-5" d="M196.92,100.72l.82-.17V96.62l-.91-.18v-1h2.5l.08.91a2.26,2.26,0,0,1,.78-.76,2,2,0,0,1,1-.27,1.89,1.89,0,0,1,1.5.61,2.77,2.77,0,0,1,.54,1.89v2.76l.82.17v1h-3.27v-1l.73-.17V97.79a1.29,1.29,0,0,0-.25-.9,1,1,0,0,0-.78-.27,1.34,1.34,0,0,0-.61.14,1.2,1.2,0,0,0-.45.39v3.4l.69.17v1h-3.22Z"/><path class="cls-5" d="M207.15,93.86v1.55h1.12v1.2h-1.12v3.23a.76.76,0,0,0,.15.53.58.58,0,0,0,.41.16l.31,0,.3-.05.14,1.24a4.09,4.09,0,0,1-.56.13,3.91,3.91,0,0,1-.61,0,1.86,1.86,0,0,1-1.37-.48,2.18,2.18,0,0,1-.47-1.54V96.61h-.93v-1.2h.93V93.86Z"/><path class="cls-5" d="M213.14,101.75a1.85,1.85,0,0,1-.12-.33,2,2,0,0,1-.08-.33,2.52,2.52,0,0,1-.75.57,2.25,2.25,0,0,1-1,.21,2.1,2.1,0,0,1-1.48-.5,1.78,1.78,0,0,1-.55-1.38,1.57,1.57,0,0,1,.71-1.38,3.79,3.79,0,0,1,2.1-.49h.87V97.5a.93.93,0,0,0-.26-.71,1.14,1.14,0,0,0-.78-.25,1.68,1.68,0,0,0-.52.07,1.28,1.28,0,0,0-.37.16l-.11.68h-1.29V96a4.64,4.64,0,0,1,1.07-.53,4,4,0,0,1,1.32-.22,3,3,0,0,1,1.91.58,1.93,1.93,0,0,1,.74,1.64v2.9c0,.08,0,.17,0,.24l.53.07v1Zm-1.48-1.14a1.48,1.48,0,0,0,.7-.17,1.27,1.27,0,0,0,.49-.42v-1H212a1.21,1.21,0,0,0-.83.26.81.81,0,0,0-.28.61.65.65,0,0,0,.21.51A.86.86,0,0,0,211.66,100.61Z"/><path class="cls-5" d="M215.64,100.72l.83-.17V96.62l-.92-.18v-1h2.63v5.14l.82.17v1h-3.36Zm2.54-6.83h-1.71V92.61h1.71Z"/><path class="cls-5" d="M219.47,100.72l.82-.17V96.62l-.91-.18v-1h2.5l.08.91a2.26,2.26,0,0,1,.78-.76,2,2,0,0,1,1-.27,1.89,1.89,0,0,1,1.5.61,2.82,2.82,0,0,1,.53,1.89v2.76l.82.17v1h-3.26v-1l.73-.17V97.79a1.29,1.29,0,0,0-.26-.9,1,1,0,0,0-.78-.27,1.34,1.34,0,0,0-.61.14,1.2,1.2,0,0,0-.45.39v3.4l.69.17v1h-3.22Z"/><path class="cls-5" d="M230.16,101.87A2.86,2.86,0,0,1,228,101a3.16,3.16,0,0,1-.82-2.23v-.23a3.47,3.47,0,0,1,.78-2.33,2.89,2.89,0,0,1,4.08-.13,3,3,0,0,1,.71,2.09v.93h-3.79v0a1.65,1.65,0,0,0,.42,1,1.3,1.3,0,0,0,1,.4,3.51,3.51,0,0,0,.94-.11,5,5,0,0,0,.82-.36l.46,1a3.3,3.3,0,0,1-1,.52A4.36,4.36,0,0,1,230.16,101.87ZM230,96.61a.91.91,0,0,0-.75.36,2.07,2.07,0,0,0-.34,1l0,0H231v-.15a1.35,1.35,0,0,0-.26-.87A.9.9,0,0,0,230,96.61Z"/><path class="cls-5" d="M233.64,100.72l.82-.17V96.62l-.91-.18v-1h2.51l.07.93a1.94,1.94,0,0,1,.58-.77,1.23,1.23,0,0,1,.81-.28l.29,0,.24,0-.18,1.56-.7,0a1.16,1.16,0,0,0-.62.15,1,1,0,0,0-.38.42v3.08l.82.17v1h-3.35Z"/><path class="cls-5" d="M240.43,96.92h-1.7v-1.5h1.7Zm0,4.83h-1.7v-1.5h1.7Z"/><path class="cls-5" d="M193.06,110.34h-1.28l-.22-1.17a2.48,2.48,0,0,0-.65-.24,3.84,3.84,0,0,0-.91-.11,1.74,1.74,0,0,0-1.09.3.92.92,0,0,0-.38.76.82.82,0,0,0,.4.71,5.51,5.51,0,0,0,1.39.59,5.41,5.41,0,0,1,2.14,1,2.16,2.16,0,0,1,.73,1.69,2,2,0,0,1-.87,1.73,3.81,3.81,0,0,1-2.29.63,4.89,4.89,0,0,1-1.83-.32,3.7,3.7,0,0,1-1.36-.89v-1.78h1.33l.18,1.21a2,2,0,0,0,.7.35,3.31,3.31,0,0,0,1,.14,1.71,1.71,0,0,0,1.07-.29.92.92,0,0,0,.37-.77,1,1,0,0,0-.35-.79,3.58,3.58,0,0,0-1.22-.56,7,7,0,0,1-2.3-1,2,2,0,0,1-.78-1.65,2,2,0,0,1,.88-1.7,3.65,3.65,0,0,1,2.21-.68,5.05,5.05,0,0,1,1.79.3,4.11,4.11,0,0,1,1.36.8Z"/><path class="cls-5" d="M196.94,116.27a2.82,2.82,0,0,1-2.19-.88,3.12,3.12,0,0,1-.83-2.23v-.23a3.47,3.47,0,0,1,.78-2.33,2.89,2.89,0,0,1,4.08-.13,3,3,0,0,1,.71,2.09v.93H195.7v0a1.65,1.65,0,0,0,.42,1,1.3,1.3,0,0,0,1,.4,3.51,3.51,0,0,0,.94-.11,5,5,0,0,0,.82-.36l.46,1.05a3.3,3.3,0,0,1-1,.52A4.36,4.36,0,0,1,196.94,116.27Zm-.16-5.26a.89.89,0,0,0-.75.37,2,2,0,0,0-.34,1l0,0h2.1v-.15a1.35,1.35,0,0,0-.26-.87A.9.9,0,0,0,196.78,111Z"/><path class="cls-5" d="M200.42,115.13l.82-.18V111l-.91-.18v-1h2.51l.07.93a1.94,1.94,0,0,1,.58-.77,1.28,1.28,0,0,1,.81-.28l.29,0,.24.05-.18,1.56-.7,0a1.16,1.16,0,0,0-.62.15,1,1,0,0,0-.38.42V115l.82.18v1h-3.35Z"/><path class="cls-5" d="M208.14,110.84l-.6.11.84,2.84.11.6h0l.12-.6.83-2.83-.61-.12v-1h2.87v1l-.55.09-1.87,5.22h-1.63l-1.88-5.22-.55-.09v-1h2.88Z"/><path class="cls-5" d="M212.24,115.13l.82-.18V111l-.91-.18v-1h2.62V115l.82.18v1h-3.35Zm2.53-6.84h-1.71V107h1.71Z"/><path class="cls-5" d="M219.13,115a1,1,0,0,0,.73-.27.91.91,0,0,0,.28-.71h1.55v0a2,2,0,0,1-.72,1.61,2.71,2.71,0,0,1-1.85.64,2.73,2.73,0,0,1-2.18-.89,3.39,3.39,0,0,1-.77-2.31v-.17a3.33,3.33,0,0,1,.79-2.3,2.78,2.78,0,0,1,2.24-.91,4,4,0,0,1,1.38.23,2.63,2.63,0,0,1,1,.65l0,1.69h-1.39l-.28-1a1.23,1.23,0,0,0-.32-.19,1.38,1.38,0,0,0-.43-.07,1.08,1.08,0,0,0-1,.53,2.71,2.71,0,0,0-.3,1.36v.17a2.82,2.82,0,0,0,.28,1.37A1,1,0,0,0,219.13,115Z"/><path class="cls-5" d="M225.51,116.27a2.85,2.85,0,0,1-2.19-.88,3.12,3.12,0,0,1-.82-2.23v-.23a3.47,3.47,0,0,1,.78-2.33,2.57,2.57,0,0,1,2.08-.91,2.54,2.54,0,0,1,2,.78,2.93,2.93,0,0,1,.71,2.09v.93h-3.78l0,0a1.77,1.77,0,0,0,.42,1,1.31,1.31,0,0,0,1,.4,3.59,3.59,0,0,0,.95-.11,5,5,0,0,0,.82-.36l.46,1.05a3.24,3.24,0,0,1-1,.52A4.32,4.32,0,0,1,225.51,116.27Zm-.15-5.26a.87.87,0,0,0-.75.37,1.89,1.89,0,0,0-.34,1l0,0h2.1v-.15a1.35,1.35,0,0,0-.26-.87A.92.92,0,0,0,225.36,111Z"/><path class="cls-5" d="M231.82,115.13l1.44-.18v-5.78h-1.45v-1l3.16-.57V115l1.44.18v1h-4.59Z"/><path class="cls-20" d="M202.25,60.87a11.73,11.73,0,1,1-3.52,8.38,11.51,11.51,0,0,1,2.4-7.09"/><path class="cls-21" d="M210.17,74.9h-4.25c-.58,0-.8-.23-.8-.8V67.63c0-.58.22-.8.8-.8h8.46c.54,0,.77.22.77.77v6.5c0,.54-.23.77-.77.77C213,74.93,211.55,74.9,210.17,74.9Z"/><path class="cls-21" d="M205.81,66.27a4.52,4.52,0,0,1,2.64-4.14A4.19,4.19,0,0,1,214.22,65c.1.39.14.78.24,1.19"/><path class="cls-9" d="M209.46,72.13h0V73c0,.16.07.23.26.23h.83c.23,0,.29-.07.29-.26V71.36a.37.37,0,0,1,.23-.38,1.21,1.21,0,0,0,.61-1.45,1.53,1.53,0,0,0-1.45-1,1.61,1.61,0,0,0-1.6.86,1.19,1.19,0,0,0,.54,1.51.42.42,0,0,1,.26.49A5.7,5.7,0,0,1,209.46,72.13Z"/><rect class="cls-22" x="380" y="68.52" width="109" height="71.48" rx="4"/><g id="Scone_logo_white-2" data-name="Scone logo white"><g class="cls-23"><g class="cls-23"><path class="cls-18" d="M418.81,128.8h-.76a.3.3,0,0,0-.29.3v.77a.29.29,0,0,0,.29.29h.76a.29.29,0,0,0,.3-.29v-.77a.3.3,0,0,0-.3-.3m-2.64,1.36h.76a.29.29,0,0,0,.29-.29v-.77a.3.3,0,0,0-.29-.3h-.76a.3.3,0,0,0-.3.3v.77a.29.29,0,0,0,.3.29m-.82-.29v-.77a.31.31,0,0,0-.3-.3h-.76a.3.3,0,0,0-.29.3v.77a.29.29,0,0,0,.29.29h.76a.3.3,0,0,0,.3-.29m3.52.84a.23.23,0,0,0-.22.22v.9a.23.23,0,0,0,.22.22.22.22,0,0,0,.22-.22v-.9a.2.2,0,0,0-.22-.22m-2.09.29v.77a.29.29,0,0,0,.29.3h.76a.29.29,0,0,0,.3-.3V131a.29.29,0,0,0-.3-.29h-.76a.29.29,0,0,0-.29.29m-.54.77V131a.29.29,0,0,0-.29-.29h-.76a.29.29,0,0,0-.3.29v.77a.29.29,0,0,0,.3.3H416a.29.29,0,0,0,.29-.3m2.57.84h-.76a.29.29,0,0,0-.29.29v.78a.29.29,0,0,0,.29.29h.76a.29.29,0,0,0,.3-.29v-.78a.29.29,0,0,0-.3-.29m-2,0h-.76a.29.29,0,0,0-.29.29v.78a.29.29,0,0,0,.29.29h.76a.29.29,0,0,0,.29-.29v-.78a.29.29,0,0,0-.29-.29"/><path class="cls-18" d="M419.74,128.5a1.77,1.77,0,0,0,1.18.36s0,0,0,.06V131c0,.81-1,1.31-1.22,1.44a0,0,0,0,1,0,0l0-3.92s0,0,0,0"/><path class="cls-18" d="M417.44,128.39c1.61,0,1.87-.61,1.87-.61a.09.09,0,0,1,.08,0,.1.1,0,0,1,.07,0s.25.6,1.86.6c0,0,.06,0,.06.08v2.75c0,.88-1.67,1.87-1.7,1.89s-.06,0-.06.06v.68s.1.05.15,0c.61-.33,2.34-1.29,2.34-2.46v-3.51c0-.06-.1-.1-.16-.1-2.05,0-2.43-.75-2.43-.75s-.09,0-.13,0-.08,0-.09,0-.34.77-2.37.77c-.08,0-.09,0-.09.09v.44s0,.1.06.1l.54,0"/><path class="cls-19" d="M423.63,132.89l.82-.31a1.11,1.11,0,0,0,1.07.61,1.2,1.2,0,0,0,.63-.14.51.51,0,0,0,.26-.44c0-.44-.6-.7-1-.88h0a4.25,4.25,0,0,1-.95-.53,1.2,1.2,0,0,1-.47-1,1.3,1.3,0,0,1,.49-1,1.86,1.86,0,0,1,1.21-.41,1.76,1.76,0,0,1,1.61.88l-.85.32a.65.65,0,0,0-.29-.3,1.12,1.12,0,0,0-.47-.11c-.47,0-.79.25-.79.59a.66.66,0,0,0,.32.53,5.53,5.53,0,0,0,.73.38l.11,0c.63.26,1.4.6,1.4,1.45a1.22,1.22,0,0,1-.56,1,2.21,2.21,0,0,1-1.33.38,2,2,0,0,1-1.87-1.11"/><path class="cls-19" d="M430.89,134a2.67,2.67,0,0,1-1-.2,2.68,2.68,0,0,1-1.38-1.38,2.64,2.64,0,0,1-.2-1,2.71,2.71,0,0,1,.2-1,2.5,2.5,0,0,1,.56-.82,2.42,2.42,0,0,1,.82-.55,2.68,2.68,0,0,1,1-.21,2.52,2.52,0,0,1,1.17.28,2.59,2.59,0,0,1,.89.75l-.69.51a1.83,1.83,0,0,0-.6-.5,1.91,1.91,0,0,0-.79-.19,1.74,1.74,0,0,0-1.23,3,1.73,1.73,0,0,0,2.74-.38l.75.43a2.59,2.59,0,0,1-.94,1,2.34,2.34,0,0,1-1.3.36"/><path class="cls-19" d="M436.55,134a2.5,2.5,0,0,1-1-.21,2.47,2.47,0,0,1-.82-.55,2.69,2.69,0,0,1-.55-.82,2.5,2.5,0,0,1-.21-1,2.35,2.35,0,0,1,.21-1,2.57,2.57,0,0,1,.55-.82,2.72,2.72,0,0,1,.82-.56,2.65,2.65,0,0,1,2,0,2.31,2.31,0,0,1,.82.56,2.44,2.44,0,0,1,.56.82,2.65,2.65,0,0,1,0,2,2.55,2.55,0,0,1-.56.82,2.69,2.69,0,0,1-.82.55,2.5,2.5,0,0,1-1,.21m0-4.35a1.7,1.7,0,0,0-1.23.51,1.78,1.78,0,0,0-.51,1.23,1.73,1.73,0,0,0,3,1.23,1.74,1.74,0,0,0,.51-1.23,1.79,1.79,0,0,0-.51-1.23,1.74,1.74,0,0,0-1.23-.51"/><polygon class="cls-19" points="445.03 128.85 445.03 134.12 441.4 130.78 441.4 133.91 440.47 133.91 440.47 128.66 444.1 132.01 444.1 128.85 445.03 128.85"/><polygon class="cls-19" points="447.5 129.62 447.5 130.97 450.03 130.97 450.03 131.76 447.5 131.76 447.5 133.12 450.34 133.12 450.34 133.91 446.58 133.91 446.58 128.85 450.34 128.85 450.34 129.64 447.5 129.64 447.5 129.62"/></g></g></g><path class="cls-5" d="M412.46,96.1h-1.27L411,95a1.79,1.79,0,0,0-.64-.4,2.42,2.42,0,0,0-.9-.15,2,2,0,0,0-1.72.81,3.45,3.45,0,0,0-.6,2.11v.3a3.5,3.5,0,0,0,.6,2.12,2,2,0,0,0,1.69.81,2.69,2.69,0,0,0,.92-.15A1.52,1.52,0,0,0,411,100l.18-1.14h1.27v1.69a3.93,3.93,0,0,1-1.32,1,4.47,4.47,0,0,1-1.79.35,3.63,3.63,0,0,1-2.81-1.19,4.33,4.33,0,0,1-1.1-3.05v-.29a4.4,4.4,0,0,1,1.09-3,3.64,3.64,0,0,1,2.82-1.19,4.3,4.3,0,0,1,1.79.36,3.79,3.79,0,0,1,1.32,1Z"/><path class="cls-5" d="M413.28,98.52a3.39,3.39,0,0,1,.8-2.32,3.1,3.1,0,0,1,4.39,0,3.37,3.37,0,0,1,.8,2.32v.12a3.38,3.38,0,0,1-.8,2.33,3.13,3.13,0,0,1-4.39,0,3.38,3.38,0,0,1-.8-2.33Zm1.71.12a2.82,2.82,0,0,0,.31,1.4,1.17,1.17,0,0,0,1.95,0,2.68,2.68,0,0,0,.31-1.39v-.12a2.71,2.71,0,0,0-.31-1.38,1.06,1.06,0,0,0-1-.53,1,1,0,0,0-1,.53,2.82,2.82,0,0,0-.31,1.38Z"/><path class="cls-5" d="M419.92,100.72l.82-.17V96.62l-.91-.18v-1h2.5l.08.91a2.26,2.26,0,0,1,.78-.76,2,2,0,0,1,1-.27,1.89,1.89,0,0,1,1.5.61,2.77,2.77,0,0,1,.54,1.89v2.76l.82.17v1h-3.27v-1l.73-.17V97.79a1.29,1.29,0,0,0-.25-.9,1,1,0,0,0-.78-.27,1.34,1.34,0,0,0-.61.14,1.2,1.2,0,0,0-.45.39v3.4l.69.17v1h-3.22Z"/><path class="cls-5" d="M430.15,93.86v1.55h1.12v1.2h-1.12v3.23a.76.76,0,0,0,.15.53.58.58,0,0,0,.41.16l.31,0,.3-.05.14,1.24a4.09,4.09,0,0,1-.56.13,3.91,3.91,0,0,1-.61,0,1.86,1.86,0,0,1-1.37-.48,2.18,2.18,0,0,1-.47-1.54V96.61h-.93v-1.2h.93V93.86Z"/><path class="cls-5" d="M436.14,101.75a1.85,1.85,0,0,1-.12-.33,2,2,0,0,1-.08-.33,2.52,2.52,0,0,1-.75.57,2.25,2.25,0,0,1-1,.21,2.1,2.1,0,0,1-1.48-.5,1.78,1.78,0,0,1-.55-1.38,1.57,1.57,0,0,1,.71-1.38,3.79,3.79,0,0,1,2.1-.49h.87V97.5a.93.93,0,0,0-.26-.71,1.14,1.14,0,0,0-.78-.25,1.68,1.68,0,0,0-.52.07,1.28,1.28,0,0,0-.37.16l-.11.68h-1.29V96a4.64,4.64,0,0,1,1.07-.53,4,4,0,0,1,1.32-.22,3,3,0,0,1,1.91.58,1.93,1.93,0,0,1,.74,1.64v2.9c0,.08,0,.17,0,.24l.53.07v1Zm-1.48-1.14a1.48,1.48,0,0,0,.7-.17,1.27,1.27,0,0,0,.49-.42v-1H435a1.21,1.21,0,0,0-.83.26.81.81,0,0,0-.28.61.65.65,0,0,0,.21.51A.86.86,0,0,0,434.66,100.61Z"/><path class="cls-5" d="M438.64,100.72l.83-.17V96.62l-.92-.18v-1h2.63v5.14l.82.17v1h-3.36Zm2.54-6.83h-1.71V92.61h1.71Z"/><path class="cls-5" d="M442.47,100.72l.82-.17V96.62l-.91-.18v-1h2.5l.08.91a2.26,2.26,0,0,1,.78-.76,2,2,0,0,1,1-.27,1.89,1.89,0,0,1,1.5.61,2.82,2.82,0,0,1,.53,1.89v2.76l.82.17v1h-3.26v-1l.73-.17V97.79a1.29,1.29,0,0,0-.26-.9,1,1,0,0,0-.78-.27,1.34,1.34,0,0,0-.61.14,1.2,1.2,0,0,0-.45.39v3.4l.69.17v1h-3.22Z"/><path class="cls-5" d="M453.16,101.87A2.86,2.86,0,0,1,451,101a3.16,3.16,0,0,1-.82-2.23v-.23a3.47,3.47,0,0,1,.78-2.33,2.89,2.89,0,0,1,4.08-.13,3,3,0,0,1,.71,2.09v.93h-3.79v0a1.65,1.65,0,0,0,.42,1,1.3,1.3,0,0,0,1,.4,3.51,3.51,0,0,0,.94-.11,5,5,0,0,0,.82-.36l.46,1a3.3,3.3,0,0,1-1,.52A4.36,4.36,0,0,1,453.16,101.87ZM453,96.61a.91.91,0,0,0-.75.36,2.07,2.07,0,0,0-.34,1l0,0H454v-.15a1.35,1.35,0,0,0-.26-.87A.9.9,0,0,0,453,96.61Z"/><path class="cls-5" d="M456.64,100.72l.82-.17V96.62l-.91-.18v-1h2.51l.07.93a1.94,1.94,0,0,1,.58-.77,1.23,1.23,0,0,1,.81-.28l.29,0,.24,0-.18,1.56-.7,0a1.16,1.16,0,0,0-.62.15,1,1,0,0,0-.38.42v3.08l.82.17v1h-3.35Z"/><path class="cls-5" d="M463.43,96.92h-1.7v-1.5h1.7Zm0,4.83h-1.7v-1.5h1.7Z"/><path class="cls-5" d="M415.4,110.34h-1.28l-.23-1.17a2.35,2.35,0,0,0-.65-.24,3.78,3.78,0,0,0-.91-.11,1.71,1.71,0,0,0-1.08.3.9.9,0,0,0-.39.76.84.84,0,0,0,.4.71,5.51,5.51,0,0,0,1.39.59,5.34,5.34,0,0,1,2.14,1,2.13,2.13,0,0,1,.73,1.69,2,2,0,0,1-.87,1.73,3.78,3.78,0,0,1-2.28.63,4.81,4.81,0,0,1-1.83-.32,3.62,3.62,0,0,1-1.36-.89v-1.78h1.32l.18,1.21a2.08,2.08,0,0,0,.7.35,3.43,3.43,0,0,0,1,.14,1.73,1.73,0,0,0,1.07-.29.93.93,0,0,0,.36-.77,1,1,0,0,0-.34-.79,3.65,3.65,0,0,0-1.23-.56,6.92,6.92,0,0,1-2.29-1,2,2,0,0,1-.78-1.65,2,2,0,0,1,.88-1.7,3.63,3.63,0,0,1,2.21-.68,5.13,5.13,0,0,1,1.79.3,4.22,4.22,0,0,1,1.36.8Z"/><path class="cls-5" d="M419.27,116.27a2.85,2.85,0,0,1-2.19-.88,3.12,3.12,0,0,1-.82-2.23v-.23a3.47,3.47,0,0,1,.78-2.33,2.88,2.88,0,0,1,4.07-.13,3,3,0,0,1,.71,2.09v.93H418l0,0a1.65,1.65,0,0,0,.42,1,1.31,1.31,0,0,0,1,.4,3.59,3.59,0,0,0,.95-.11,5,5,0,0,0,.82-.36l.46,1.05a3.24,3.24,0,0,1-1,.52A4.32,4.32,0,0,1,419.27,116.27Zm-.15-5.26a.87.87,0,0,0-.75.37,1.89,1.89,0,0,0-.34,1l0,0h2.09v-.15a1.35,1.35,0,0,0-.25-.87A.92.92,0,0,0,419.12,111Z"/><path class="cls-5" d="M422.76,115.13l.82-.18V111l-.91-.18v-1h2.5l.08.93a2,2,0,0,1,.57-.77,1.33,1.33,0,0,1,.82-.28l.28,0,.25.05-.18,1.56-.7,0a1.22,1.22,0,0,0-.63.15,1,1,0,0,0-.37.42V115l.82.18v1h-3.35Z"/><path class="cls-5" d="M430.47,110.84l-.59.11.83,2.84.12.6h0l.12-.6.83-2.83-.61-.12v-1h2.88v1l-.55.09-1.87,5.22H430l-1.87-5.22-.55-.09v-1h2.87Z"/><path class="cls-5" d="M434.57,115.13l.83-.18V111l-.92-.18v-1h2.63V115l.82.18v1h-3.36Zm2.54-6.84H435.4V107h1.71Z"/><path class="cls-5" d="M441.47,115a1,1,0,0,0,.73-.27.93.93,0,0,0,.27-.71H444l0,0a2,2,0,0,1-.72,1.61,3.07,3.07,0,0,1-4-.25,3.45,3.45,0,0,1-.77-2.31v-.17a3.38,3.38,0,0,1,.79-2.3,2.82,2.82,0,0,1,2.25-.91,4,4,0,0,1,1.38.23,2.71,2.71,0,0,1,1,.65l0,1.69h-1.39l-.28-1a1.17,1.17,0,0,0-.31-.19,1.43,1.43,0,0,0-.43-.07,1.09,1.09,0,0,0-1,.53,2.71,2.71,0,0,0-.3,1.36v.17a2.94,2.94,0,0,0,.28,1.37A1,1,0,0,0,441.47,115Z"/><path class="cls-5" d="M447.85,116.27a2.82,2.82,0,0,1-2.19-.88,3.12,3.12,0,0,1-.82-2.23v-.23a3.47,3.47,0,0,1,.77-2.33,2.89,2.89,0,0,1,4.08-.13,3,3,0,0,1,.71,2.09v.93h-3.79v0a1.65,1.65,0,0,0,.42,1,1.3,1.3,0,0,0,1,.4,3.51,3.51,0,0,0,.94-.11,4.67,4.67,0,0,0,.82-.36l.47,1.05a3.36,3.36,0,0,1-1,.52A4.36,4.36,0,0,1,447.85,116.27ZM447.7,111a.87.87,0,0,0-.75.37,1.8,1.8,0,0,0-.34,1v0h2.1v-.15a1.35,1.35,0,0,0-.25-.87A.92.92,0,0,0,447.7,111Z"/><path class="cls-5" d="M454.21,116.15V115l2.75-3a6.12,6.12,0,0,0,.85-1.15,1.9,1.9,0,0,0,.26-.88,1.33,1.33,0,0,0-.29-.88,1,1,0,0,0-.83-.35,1.08,1.08,0,0,0-.9.41,1.72,1.72,0,0,0-.3,1.07h-1.67v0a2.55,2.55,0,0,1,.76-2,2.8,2.8,0,0,1,2.12-.8,3,3,0,0,1,2.08.68,2.37,2.37,0,0,1,.75,1.83,2.6,2.6,0,0,1-.42,1.43,12.55,12.55,0,0,1-1.41,1.71l-1.52,1.66v0h2.22l.07-.85H460v2.16Z"/><path class="cls-20" d="M425.25,60.87a11.73,11.73,0,1,1-3.52,8.38,11.51,11.51,0,0,1,2.4-7.09"/><path class="cls-21" d="M433.17,74.9h-4.25c-.58,0-.8-.23-.8-.8V67.63c0-.58.22-.8.8-.8h8.46c.54,0,.77.22.77.77v6.5c0,.54-.23.77-.77.77C436,74.93,434.55,74.9,433.17,74.9Z"/><path class="cls-21" d="M428.81,66.27a4.52,4.52,0,0,1,2.64-4.14A4.19,4.19,0,0,1,437.22,65c.1.39.14.78.24,1.19"/><path class="cls-9" d="M432.46,72.13h0V73c0,.16.07.23.26.23h.83c.23,0,.29-.07.29-.26V71.36a.37.37,0,0,1,.23-.38,1.21,1.21,0,0,0,.61-1.45,1.53,1.53,0,0,0-1.45-1,1.61,1.61,0,0,0-1.6.86,1.19,1.19,0,0,0,.54,1.51.42.42,0,0,1,.26.49A5.7,5.7,0,0,1,432.46,72.13Z"/><line class="cls-13" x1="210" y1="168" x2="210" y2="141.52"/><polygon class="cls-6" points="215.73 146.16 214.7 147.11 210 142.06 205.3 147.11 204.28 146.16 210 140 215.73 146.16"/><line class="cls-13" x1="210" y1="238" x2="210" y2="225.52"/><polygon class="cls-6" points="215.73 230.16 214.7 231.11 210 226.06 205.3 231.11 204.28 230.16 210 224 215.73 230.16"/><line class="cls-13" x1="435" y1="238" x2="435" y2="225.52"/><polygon class="cls-6" points="440.73 230.16 439.7 231.11 435 226.06 430.3 231.11 429.28 230.16 435 224 440.73 230.16"/><line class="cls-13" x1="435" y1="168" x2="435" y2="140.52"/><polygon class="cls-6" points="440.73 145.16 439.7 146.11 435 141.06 430.3 146.11 429.28 145.16 435 139 440.73 145.16"/><line class="cls-13" x1="338" y1="332" x2="338" y2="293.52"/><polygon class="cls-6" points="343.73 298.16 342.7 299.11 338 294.06 333.3 299.11 332.28 298.16 338 292 343.73 298.16"/><line class="cls-13" x1="322" y1="332" x2="322" y2="288"/><line class="cls-24" x1="322" y1="287" x2="322" y2="243"/><line class="cls-13" x1="322" y1="242" x2="322" y2="155.52"/><polygon class="cls-6" points="327.73 160.16 326.7 161.11 322 156.06 317.3 161.11 316.28 160.16 322 154 327.73 160.16"/><polyline class="cls-13" points="550 140.52 550 180 496 180"/><polygon class="cls-6" points="544.27 145.16 545.3 146.11 550 141.06 554.7 146.11 555.72 145.16 550 139 544.27 145.16"/><polyline class="cls-13" points="307 140.52 307 180 272 180"/><polygon class="cls-6" points="301.27 145.16 302.3 146.11 307 141.06 311.7 146.11 312.72 145.16 307 139 301.27 145.16"/><polyline class="cls-13" points="337 140.52 337 180 376 180"/><polygon class="cls-6" points="331.27 145.16 332.3 146.11 337 141.06 341.7 146.11 342.72 145.16 337 139 331.27 145.16"/><rect class="cls-25" x="157" y="173" width="109" height="48" rx="4"/><path class="cls-6" d="M194.06,198.22a3.34,3.34,0,0,1,2.31.75,2.49,2.49,0,0,1,.85,2,2.47,2.47,0,0,1-.85,2,3.34,3.34,0,0,1-2.31.75h-1.44v1.89l.91.17v1H190v-1l.91-.17v-6.12l-.91-.18v-1h4.06Zm-1.44,4.12h1.44a1.31,1.31,0,0,0,1.45-1.38,1.47,1.47,0,0,0-.37-1,1.37,1.37,0,0,0-1.08-.4h-1.44Z"/><path class="cls-6" d="M197.73,203.52a3.38,3.38,0,0,1,.79-2.32,3.11,3.11,0,0,1,4.4,0,3.37,3.37,0,0,1,.79,2.32v.12a3.37,3.37,0,0,1-.79,2.33,2.77,2.77,0,0,1-2.19.9,2.8,2.8,0,0,1-2.21-.9,3.37,3.37,0,0,1-.79-2.33Zm1.71.12a2.82,2.82,0,0,0,.3,1.4,1.18,1.18,0,0,0,2,0,2.78,2.78,0,0,0,.3-1.39v-.12a2.71,2.71,0,0,0-.31-1.38,1,1,0,0,0-1-.53,1.06,1.06,0,0,0-1,.53,2.82,2.82,0,0,0-.3,1.38Z"/><path class="cls-6" d="M204.16,198.64v-1h2.62v7.94l.83.17v1h-3.37v-1l.83-.17v-6.73Z"/><path class="cls-6" d="M208.11,205.72l.83-.17v-3.93l-.92-.18v-1h2.63v5.14l.82.17v1h-3.36Zm2.54-6.83h-1.71v-1.28h1.71Z"/><path class="cls-6" d="M215,205.56a1,1,0,0,0,.73-.27.93.93,0,0,0,.27-.71h1.55l0,0a2,2,0,0,1-.72,1.61,3.07,3.07,0,0,1-4-.25,3.45,3.45,0,0,1-.77-2.31v-.17a3.38,3.38,0,0,1,.79-2.3,2.82,2.82,0,0,1,2.25-.91,4,4,0,0,1,1.38.23,2.71,2.71,0,0,1,1,.65l0,1.69h-1.39l-.28-1a1,1,0,0,0-.31-.19,1.43,1.43,0,0,0-.43-.07,1.09,1.09,0,0,0-1,.53,2.71,2.71,0,0,0-.3,1.36v.17A2.94,2.94,0,0,0,214,205,1,1,0,0,0,215,205.56Z"/><path class="cls-6" d="M224.92,201.44l-.6.09L222,207.7a3.43,3.43,0,0,1-.73,1.15,1.88,1.88,0,0,1-1.39.46,2.73,2.73,0,0,1-.41,0l-.45-.1.2-1.25.17,0h.16a.92.92,0,0,0,.65-.21,1.33,1.33,0,0,0,.35-.51l.2-.48-2-5.22-.59-.1v-1h3.1v1l-.71.12.87,2.53.09.46h0l1-3-.71-.12v-1h3.11Z"/><path class="cls-6" d="M228.41,205.72l1.44-.17v-5.78h-1.46v-1l3.16-.57v7.33l1.45.17v1h-4.59Z"/><path class="cls-9" d="M217.61,184.05H207.43a4.72,4.72,0,1,0,0,2.28h3l1.35,1.35,1.36-1.35h.18l.86.86.8-.8,1.3,1.29,1.45-1.45,1.09-1ZM201,186.44a1.25,1.25,0,1,1,1.24-1.25A1.25,1.25,0,0,1,201,186.44Z"/><path class="cls-9" d="M239.61,161.05H229.43a4.72,4.72,0,1,0,0,2.28h3l1.35,1.35,1.36-1.35h.18l.86.86.8-.8,1.3,1.29,1.45-1.45,1.09-1ZM223,163.44a1.25,1.25,0,1,1,1.24-1.25A1.25,1.25,0,0,1,223,163.44Z"/><path class="cls-14" d="M239.61,231.05H229.43a4.72,4.72,0,1,0,0,2.28h3l1.35,1.35,1.36-1.35h.18l.86.86.8-.8,1.3,1.29,1.45-1.45,1.09-1ZM223,233.44a1.25,1.25,0,1,1,1.24-1.25A1.25,1.25,0,0,1,223,233.44Z"/><path class="cls-14" d="M298.61,189.05H288.43a4.72,4.72,0,1,0,0,2.28h3l1.35,1.35,1.36-1.35h.18l.86.86.8-.8,1.3,1.29,1.45-1.45,1.09-1ZM282,191.44a1.25,1.25,0,1,1,1.24-1.25A1.25,1.25,0,0,1,282,191.44Z"/><path class="cls-14" d="M366.61,189.05H356.43a4.72,4.72,0,1,0,0,2.28h3l1.35,1.35,1.36-1.35h.18l.86.86.8-.8,1.3,1.29,1.45-1.45,1.09-1ZM350,191.44a1.25,1.25,0,1,1,1.24-1.25A1.25,1.25,0,0,1,350,191.44Z"/><path class="cls-14" d="M462.61,231.05H452.43a4.72,4.72,0,1,0,0,2.28h3l1.35,1.35,1.36-1.35h.18l.86.86.8-.8,1.3,1.29,1.45-1.45,1.09-1ZM446,233.44a1.25,1.25,0,1,1,1.24-1.25A1.25,1.25,0,0,1,446,233.44Z"/><path class="cls-6" d="M486.61,231.05H476.43a4.72,4.72,0,1,0,0,2.28h3l1.35,1.35,1.36-1.35h.18l.86.86.8-.8,1.3,1.29,1.45-1.45,1.09-1ZM470,233.44a1.25,1.25,0,1,1,1.24-1.25A1.25,1.25,0,0,1,470,233.44Z"/><path class="cls-6" d="M531.61,189.05H521.43a4.72,4.72,0,1,0,0,2.28h3l1.35,1.35,1.36-1.35h.18l.86.86.8-.8,1.3,1.29,1.45-1.45,1.09-1ZM515,191.44a1.25,1.25,0,1,1,1.24-1.25A1.25,1.25,0,0,1,515,191.44Z"/><rect class="cls-26" x="380.22" y="173" width="108.78" height="48" rx="4"/><path class="cls-6" d="M417.06,201.22a3.34,3.34,0,0,1,2.31.75,2.49,2.49,0,0,1,.85,2,2.47,2.47,0,0,1-.85,2,3.34,3.34,0,0,1-2.31.75h-1.44v1.89l.91.17v1H413v-1l.91-.17v-6.12l-.91-.18v-1h4.06Zm-1.44,4.12h1.44a1.31,1.31,0,0,0,1.45-1.38,1.47,1.47,0,0,0-.37-1,1.37,1.37,0,0,0-1.08-.4h-1.44Z"/><path class="cls-6" d="M420.73,206.52a3.38,3.38,0,0,1,.79-2.32,3.11,3.11,0,0,1,4.4,0,3.37,3.37,0,0,1,.79,2.32v.12a3.37,3.37,0,0,1-.79,2.33,2.77,2.77,0,0,1-2.19.9,2.8,2.8,0,0,1-2.21-.9,3.37,3.37,0,0,1-.79-2.33Zm1.71.12a2.82,2.82,0,0,0,.3,1.4,1.18,1.18,0,0,0,2,0,2.78,2.78,0,0,0,.3-1.39v-.12a2.71,2.71,0,0,0-.31-1.38,1,1,0,0,0-1-.53,1.06,1.06,0,0,0-1,.53,2.82,2.82,0,0,0-.3,1.38Z"/><path class="cls-6" d="M427.16,201.64v-1h2.62v7.94l.83.17v1h-3.37v-1l.83-.17v-6.73Z"/><path class="cls-6" d="M431.11,208.72l.83-.17v-3.93l-.92-.18v-1h2.63v5.14l.82.17v1h-3.36Zm2.54-6.83h-1.71v-1.28h1.71Z"/><path class="cls-6" d="M438,208.56a1,1,0,0,0,.73-.27.93.93,0,0,0,.27-.71h1.55l0,0a2,2,0,0,1-.72,1.61,3.07,3.07,0,0,1-4-.25,3.45,3.45,0,0,1-.77-2.31v-.17a3.38,3.38,0,0,1,.79-2.3,2.82,2.82,0,0,1,2.25-.91,4,4,0,0,1,1.38.23,2.71,2.71,0,0,1,1,.65l0,1.69h-1.39l-.28-1a1,1,0,0,0-.31-.19,1.43,1.43,0,0,0-.43-.07,1.09,1.09,0,0,0-1,.53,2.71,2.71,0,0,0-.3,1.36v.17A2.94,2.94,0,0,0,437,208,1,1,0,0,0,438,208.56Z"/><path class="cls-6" d="M447.92,204.44l-.6.09L445,210.7a3.43,3.43,0,0,1-.73,1.15,1.88,1.88,0,0,1-1.39.46,2.73,2.73,0,0,1-.41,0l-.45-.1.2-1.25.17,0h.16a.92.92,0,0,0,.65-.21,1.33,1.33,0,0,0,.35-.51l.2-.48-2-5.22-.59-.1v-1h3.1v1l-.71.12.87,2.53.09.46h0l1-3-.71-.12v-1h3.11Z"/><path class="cls-6" d="M451.41,208.72l1.44-.17v-5.78h-1.46v-1l3.16-.57v7.33l1.45.17v1h-4.59Z"/><path class="cls-6" d="M351.45,40.25l-.7.09L349,47.75h-1.59l-1.56-5.63h0l-1.56,5.63h-1.59l-1.74-7.41-.69-.09v-1h3.14v1l-.78.13,1,4.68h0l1.6-5.85h1.26l1.61,5.85h0l1-4.68-.78-.13v-1h3.13Z"/><path class="cls-6" d="M351.82,44.52a3.38,3.38,0,0,1,.79-2.32,3.11,3.11,0,0,1,4.4,0,3.37,3.37,0,0,1,.79,2.32v.12A3.37,3.37,0,0,1,357,47a2.77,2.77,0,0,1-2.19.9,2.8,2.8,0,0,1-2.21-.9,3.37,3.37,0,0,1-.79-2.33Zm1.71.12a2.82,2.82,0,0,0,.3,1.4,1.18,1.18,0,0,0,2,0,2.78,2.78,0,0,0,.3-1.39v-.12a2.71,2.71,0,0,0-.31-1.38,1,1,0,0,0-1-.53,1.06,1.06,0,0,0-1,.53,2.82,2.82,0,0,0-.3,1.38Z"/><path class="cls-6" d="M358.67,46.72l.82-.17V42.62l-.91-.18v-1h2.51l.07.93a1.94,1.94,0,0,1,.58-.77,1.23,1.23,0,0,1,.81-.28l.29,0,.24,0-.18,1.56-.7,0a1.16,1.16,0,0,0-.62.15,1,1,0,0,0-.38.42v3.08l.82.17v1h-3.35Z"/><path class="cls-6" d="M363.12,39.64v-1h2.62v5.3h.38l1-1.39-.55-.08v-1h3.12v1l-.75.17-1.15,1.57,1.6,2.41.65.13v1h-2.93v-1l.35,0-1-1.57h-.73v1.45l.74.17v1h-3.27v-1l.82-.17V39.82Z"/><path class="cls-6" d="M375.12,39.88a4.93,4.93,0,0,0-.69,0,1.34,1.34,0,0,0-1,.33,1.3,1.3,0,0,0-.34,1v.28h1.41v1.2H373.1v3.94l.83.17v1h-3.45v-1l.91-.17V42.61h-.79v-1.2h.79v-.28a2.52,2.52,0,0,1,.77-2,3.16,3.16,0,0,1,2.16-.68,5.55,5.55,0,0,1,1,.09c.33.06.71.14,1.14.26h1v7.71l.83.17v1h-3.37v-1l.83-.17V40Z"/><path class="cls-6" d="M379,44.52a3.38,3.38,0,0,1,.79-2.32,3.1,3.1,0,0,1,4.39,0,3.37,3.37,0,0,1,.8,2.32v.12a3.38,3.38,0,0,1-.8,2.33,2.74,2.74,0,0,1-2.18.9,2.79,2.79,0,0,1-2.21-.9,3.37,3.37,0,0,1-.79-2.33Zm1.71.12A2.82,2.82,0,0,0,381,46a1.18,1.18,0,0,0,2,0,2.78,2.78,0,0,0,.3-1.39v-.12a2.71,2.71,0,0,0-.31-1.38,1.16,1.16,0,0,0-2,0,2.82,2.82,0,0,0-.3,1.38Z"/><path class="cls-6" d="M394.71,42.44l-.64.08-1.32,5.23h-1.43L390.14,44h0l-1.18,3.77H387.5l-1.33-5.23-.64-.08v-1h2.87v1l-.67.13.6,2.9h0l1.19-4.06h1.14l1.2,4.07h0l.6-2.9-.68-.14v-1h2.87Z"/><path class="cls-11" d="M442.61,187.05H432.43a4.72,4.72,0,1,0,0,2.28h3l1.35,1.35,1.36-1.35h.18l.86.86.8-.8,1.3,1.29,1.45-1.45,1.09-1ZM426,189.44a1.25,1.25,0,1,1,1.24-1.25A1.25,1.25,0,0,1,426,189.44Z"/><path class="cls-11" d="M460.61,161.05H450.43a4.72,4.72,0,1,0,0,2.28h3l1.35,1.35,1.36-1.35h.18l.86.86.8-.8,1.3,1.29,1.45-1.45,1.09-1ZM444,163.44a1.25,1.25,0,1,1,1.24-1.25A1.25,1.25,0,0,1,444,163.44Z"/><line class="cls-27" x1="141.08" y1="99.91" x2="140.08" y2="99.91"/><line class="cls-28" x1="138.11" y1="99.91" x2="80.06" y2="99.91"/><line class="cls-27" x1="79.08" y1="99.91" x2="78.08" y2="99.91"/><circle class="cls-29" cx="110" cy="99.66" r="5.92"/><line class="cls-29" x1="114.19" y1="103.84" x2="105.81" y2="95.47"/><line class="cls-27" x1="609" y1="99.91" x2="610" y2="99.91"/><line class="cls-30" x1="611.89" y1="99.91" x2="645.05" y2="99.91"/><polyline class="cls-27" points="646 99.92 647 99.92 647 100.92"/><line class="cls-31" x1="647" y1="102.89" x2="647" y2="181.01"/><line class="cls-27" x1="647" y1="182" x2="647" y2="183"/><circle class="cls-29" cx="625" cy="99.66" r="5.92"/><line class="cls-29" x1="629.19" y1="103.84" x2="620.81" y2="95.47"/><rect class="cls-2" x="143" y="242" width="450" height="46" rx="5"/><path class="cls-14" d="M365.61,255.05H355.43a4.72,4.72,0,1,0,0,2.28h3l1.35,1.35,1.36-1.35h.18l.86.86.8-.8,1.3,1.29,1.45-1.45,1.09-1ZM349,257.44a1.25,1.25,0,1,1,1.24-1.25A1.25,1.25,0,0,1,349,257.44Z"/><path class="cls-6" d="M389.61,255.05H379.43a4.72,4.72,0,1,0,0,2.28h3l1.35,1.35,1.36-1.35h.18l.86.86.8-.8,1.3,1.29,1.45-1.45,1.09-1ZM373,257.44a1.25,1.25,0,1,1,1.24-1.25A1.25,1.25,0,0,1,373,257.44Z"/><path class="cls-6" d="M332.28,268.25l-.71.09-1.73,7.41h-1.58l-1.57-5.63h0l-1.57,5.63H323.5l-1.74-7.41-.69-.09v-1h3.14v1l-.78.13,1,4.68h0l1.6-5.85h1.26l1.61,5.85h0l1-4.68-.78-.13v-1h3.14Z"/><path class="cls-6" d="M332.64,272.52a3.38,3.38,0,0,1,.79-2.32,3.11,3.11,0,0,1,4.4,0,3.37,3.37,0,0,1,.79,2.32v.12a3.37,3.37,0,0,1-.79,2.33,2.77,2.77,0,0,1-2.19.9,2.8,2.8,0,0,1-2.21-.9,3.37,3.37,0,0,1-.79-2.33Zm1.71.12a2.72,2.72,0,0,0,.31,1.4,1,1,0,0,0,1,.52,1.05,1.05,0,0,0,1-.53,2.78,2.78,0,0,0,.31-1.39v-.12a2.82,2.82,0,0,0-.31-1.38,1.07,1.07,0,0,0-1-.53,1,1,0,0,0-1,.53,2.71,2.71,0,0,0-.31,1.38Z"/><path class="cls-6" d="M339.5,274.72l.82-.17v-3.93l-.91-.18v-1h2.5l.08.93a1.92,1.92,0,0,1,.57-.77,1.25,1.25,0,0,1,.81-.28l.29,0,.25.05-.18,1.56-.71,0a1.19,1.19,0,0,0-.62.15,1,1,0,0,0-.37.42v3.08l.82.17v1H339.5Z"/><path class="cls-6" d="M343.94,267.64v-1h2.62v5.3h.38l1-1.39-.56-.08v-1h3.12v1l-.75.17-1.15,1.57,1.6,2.41.65.13v1h-2.92v-1l.35-.05-1-1.57h-.73v1.45l.74.17v1H344v-1l.83-.17v-6.73Z"/><path class="cls-6" d="M355.94,267.88a4.88,4.88,0,0,0-.68,0,1.37,1.37,0,0,0-1,.33,1.3,1.3,0,0,0-.33,1v.28h1.4v1.2h-1.4v3.94l.82.17v1H351.3v-1l.92-.17v-3.94h-.8v-1.2h.8v-.28a2.51,2.51,0,0,1,.76-2,3.21,3.21,0,0,1,2.17-.68,5.52,5.52,0,0,1,1,.09c.33.06.71.14,1.14.26h1v7.71l.83.17v1h-3.37v-1l.83-.17V268Z"/><path class="cls-6" d="M359.77,272.52a3.38,3.38,0,0,1,.79-2.32,3.11,3.11,0,0,1,4.4,0,3.37,3.37,0,0,1,.79,2.32v.12A3.37,3.37,0,0,1,365,275a2.77,2.77,0,0,1-2.19.9,2.8,2.8,0,0,1-2.21-.9,3.37,3.37,0,0,1-.79-2.33Zm1.71.12a2.82,2.82,0,0,0,.3,1.4,1.07,1.07,0,0,0,1,.52,1.05,1.05,0,0,0,1-.53,2.78,2.78,0,0,0,.31-1.39v-.12a2.82,2.82,0,0,0-.31-1.38,1.17,1.17,0,0,0-2,0,2.82,2.82,0,0,0-.3,1.38Z"/><path class="cls-6" d="M375.53,270.44l-.64.08-1.32,5.23h-1.43L371,272h0l-1.17,3.77h-1.43L367,270.52l-.64-.08v-1h2.88v1l-.68.13.6,2.9h0l1.19-4.06h1.15l1.19,4.07h0l.59-2.9-.68-.14v-1h2.87Z"/><path class="cls-6" d="M383.08,267.22a3.38,3.38,0,0,1,2.31.75,2.53,2.53,0,0,1,.85,2,2.5,2.5,0,0,1-.85,2,3.38,3.38,0,0,1-2.31.75h-1.44v1.89l.91.17v1H379v-1l.9-.17v-6.12l-.9-.18v-1h4.06Zm-1.44,4.12h1.44a1.43,1.43,0,0,0,1.08-.39,1.4,1.4,0,0,0,.36-1,1.46,1.46,0,0,0-.36-1,1.4,1.4,0,0,0-1.08-.4h-1.44Z"/><path class="cls-6" d="M386.75,272.52a3.38,3.38,0,0,1,.79-2.32,3.1,3.1,0,0,1,4.39,0,3.37,3.37,0,0,1,.8,2.32v.12a3.38,3.38,0,0,1-.8,2.33,3.13,3.13,0,0,1-4.39,0,3.37,3.37,0,0,1-.79-2.33Zm1.71.12a2.82,2.82,0,0,0,.3,1.4,1,1,0,0,0,1,.52,1,1,0,0,0,1-.53,2.68,2.68,0,0,0,.31-1.39v-.12a2.71,2.71,0,0,0-.31-1.38,1.06,1.06,0,0,0-1-.53,1,1,0,0,0-1,.53,2.82,2.82,0,0,0-.3,1.38Z"/><path class="cls-6" d="M393.17,267.64v-1h2.63v7.94l.82.17v1h-3.36v-1l.83-.17v-6.73Z"/><path class="cls-6" d="M397.13,274.72l.82-.17v-3.93l-.91-.18v-1h2.63v5.14l.82.17v1h-3.36Zm2.54-6.83H398v-1.28h1.72Z"/><path class="cls-6" d="M404,274.56a1,1,0,0,0,.74-.27.93.93,0,0,0,.27-.71h1.55l0,0a2,2,0,0,1-.72,1.61,3.07,3.07,0,0,1-4-.25,3.45,3.45,0,0,1-.77-2.31v-.17a3.33,3.33,0,0,1,.79-2.3,2.79,2.79,0,0,1,2.25-.91,3.9,3.9,0,0,1,1.37.23,2.67,2.67,0,0,1,1,.65l0,1.69h-1.39l-.28-1a1,1,0,0,0-.32-.19,1.32,1.32,0,0,0-.42-.07,1.09,1.09,0,0,0-1,.53,2.71,2.71,0,0,0-.3,1.36v.17a2.82,2.82,0,0,0,.28,1.37A1,1,0,0,0,404,274.56Z"/><path class="cls-6" d="M413.93,270.44l-.59.09L411,276.7a3.31,3.31,0,0,1-.74,1.15,1.86,1.86,0,0,1-1.38.46,2.63,2.63,0,0,1-.41,0l-.45-.1.2-1.25.17,0h.15a.93.93,0,0,0,.66-.21,1.33,1.33,0,0,0,.35-.51l.19-.48-2-5.22-.6-.1v-1h3.11v1l-.71.12.87,2.53.08.46h0l1-3-.71-.12v-1h3.1Z"/></svg>