<svg id="Ebene_1" data-name="Ebene 1" xmlns="http://www.w3.org/2000/svg" viewBox="0 0 538 363"><defs><style>.cls-1,.cls-10,.cls-15,.cls-16,.cls-18,.cls-19,.cls-20,.cls-21,.cls-22,.cls-24,.cls-7{fill:none;}.cls-1,.cls-12{stroke:#635384;}.cls-1,.cls-15,.cls-19,.cls-2,.cls-20,.cls-21,.cls-22,.cls-23,.cls-24,.cls-3,.cls-4{stroke-miterlimit:10;}.cls-1,.cls-12,.cls-15,.cls-16,.cls-18,.cls-19,.cls-2,.cls-20,.cls-21,.cls-22,.cls-23,.cls-24,.cls-3,.cls-4{stroke-width:2px;}.cls-1{opacity:0.6;}.cls-12,.cls-2,.cls-23,.cls-3,.cls-4,.cls-5{fill:#fff;}.cls-2{stroke:#fc0;}.cls-3{stroke:#39f;}.cls-18,.cls-4{stroke:#906;}.cls-6{fill:#306;}.cls-10,.cls-15,.cls-7{stroke:#306;}.cls-12,.cls-16,.cls-18,.cls-7{stroke-linecap:round;}.cls-10,.cls-12,.cls-16,.cls-18,.cls-7{stroke-linejoin:round;}.cls-8{fill:#635384;}.cls-9{fill:#fc0;}.cls-11{fill:#906;}.cls-13{fill:#3c9;}.cls-14{fill:#39f;}.cls-16{stroke:#ffcb00;}.cls-17{fill:#ffcb03;}.cls-19,.cls-20,.cls-22,.cls-23,.cls-24{stroke:#f63;}.cls-19{stroke-dasharray:2 2;}.cls-21{stroke:#3c9;}.cls-22{stroke-dasharray:1.97 1.97;}.cls-24{stroke-dasharray:1.9 1.9;}</style></defs><title>Shared IP Scenario 2</title><rect class="cls-1" x="39" y="110" width="470" height="136" rx="5"/><rect class="cls-2" x="64" y="138" width="109" height="75" rx="5" transform="translate(237 351) rotate(180)"/><rect class="cls-3" x="201" y="138" width="57" height="75" rx="5" transform="translate(459 351) rotate(180)"/><rect class="cls-4" x="287" y="138" width="109" height="75" rx="5" transform="translate(683 351) rotate(180)"/><rect class="cls-3" x="427" y="138" width="57" height="75" rx="5" transform="translate(911 351) rotate(180)"/><path class="cls-5" d="M105.19,328.22a1,1,0,0,1-1-1V322.5a5.44,5.44,0,0,1,1.75-4,5.7,5.7,0,0,1,3.88-1.68v-.34a9.58,9.58,0,0,1-2.9-2,9.18,9.18,0,0,1-2.64-5.26,3.36,3.36,0,0,1-2.44-3A4.54,4.54,0,0,1,99.08,302a4.61,4.61,0,0,1,1.66-3.5,4.06,4.06,0,0,1-.09-.83,3.33,3.33,0,0,1,3.36-3.36l.38,0a11.22,11.22,0,0,1,9.46-5.14,10.45,10.45,0,0,1,10.44,10.44v4.11a3.47,3.47,0,0,1,.79,2.19,3.37,3.37,0,0,1-2.45,3.23,9.22,9.22,0,0,1-5.31,7.15v.43a5.43,5.43,0,0,1,3.72,1.73,5.75,5.75,0,0,1,1.68,4v4.72a1,1,0,0,1-1,1Z"/><path class="cls-6" d="M113.85,290.24a9.47,9.47,0,0,1,9.44,9.44V304h-.22a2.38,2.38,0,0,1-1.35,4.32v-.4a8.19,8.19,0,0,1-5.4,7.75v2.09H117a4.44,4.44,0,0,1,3.31,1.42,4.72,4.72,0,0,1,1.42,3.3v4.72H105.19V322.5a4.4,4.4,0,0,1,1.42-3.3,4.67,4.67,0,0,1,3.3-1.42h.91v-2l-.12,0a9,9,0,0,1-3.07-2,8.24,8.24,0,0,1-2.44-5.83v.4a2.36,2.36,0,0,1-2.36-2.36c0-.16.08-.32.08-.48a3.55,3.55,0,0,1-2.83-3.46,3.67,3.67,0,0,1,1.88-3.15,2.07,2.07,0,0,1-.31-1.18,2.32,2.32,0,0,1,2.36-2.36,2.81,2.81,0,0,1,.87.16,10.22,10.22,0,0,1,9-5.27m0-2a12.24,12.24,0,0,0-10,5.12,4.3,4.3,0,0,0-4.22,4.35c0,.14,0,.3,0,.46a5.53,5.53,0,0,0,1.25,8.71,4.4,4.4,0,0,0,2.47,3.07,10.4,10.4,0,0,0,4.1,6.31,6.89,6.89,0,0,0-2.26,1.49,6.43,6.43,0,0,0-2,4.75v4.72a2,2,0,0,0,2,2h16.53a2,2,0,0,0,2-2V322.5a6.77,6.77,0,0,0-2-4.69,6.34,6.34,0,0,0-2.27-1.55,10.26,10.26,0,0,0,4-6.31,4.37,4.37,0,0,0,2.56-4,4.46,4.46,0,0,0-.79-2.53v-3.77a11.45,11.45,0,0,0-11.44-11.44Z"/><path class="cls-6" d="M117.23,304.84a.77.77,0,0,1,.72.72.72.72,0,1,1-.72-.72Z"/><circle class="cls-6" cx="109.48" cy="305.56" r="0.72"/><path class="cls-7" d="M111.27,311.23a2.51,2.51,0,0,0,2.08,1.08,2.64,2.64,0,0,0,2.09-1.08"/><path class="cls-6" d="M75.31,344.34a1,1,0,0,0,.75-.27,1,1,0,0,0,.28-.73h1.58l0,0A2,2,0,0,1,77.2,345a2.76,2.76,0,0,1-1.89.66,2.8,2.8,0,0,1-2.23-.92,3.49,3.49,0,0,1-.78-2.35v-.18a3.44,3.44,0,0,1,.8-2.34,2.88,2.88,0,0,1,2.3-.93,3.84,3.84,0,0,1,1.4.24,2.65,2.65,0,0,1,1,.66l0,1.72H76.44l-.28-1a1.3,1.3,0,0,0-.33-.19,1.14,1.14,0,0,0-.43-.07,1.1,1.1,0,0,0-1.05.54,2.82,2.82,0,0,0-.3,1.38v.18a3,3,0,0,0,.28,1.4A1,1,0,0,0,75.31,344.34Z"/><path class="cls-6" d="M78.54,337.28v-1h2.68v8.1l.84.18v1H78.63v-1l.84-.18v-6.87Z"/><path class="cls-6" d="M82.51,342.26a3.44,3.44,0,0,1,.81-2.37,3.16,3.16,0,0,1,4.48,0,3.44,3.44,0,0,1,.81,2.37v.12a3.45,3.45,0,0,1-.81,2.38,2.82,2.82,0,0,1-2.23.92,2.85,2.85,0,0,1-2.25-.92,3.45,3.45,0,0,1-.81-2.38Zm1.75.12a2.77,2.77,0,0,0,.31,1.42,1.19,1.19,0,0,0,2,0,2.79,2.79,0,0,0,.31-1.42v-.12a2.81,2.81,0,0,0-.31-1.41,1.08,1.08,0,0,0-1-.54,1,1,0,0,0-1,.54,2.81,2.81,0,0,0-.31,1.41Z"/><path class="cls-6" d="M93.9,344.73a2.14,2.14,0,0,1-.77.7,2.08,2.08,0,0,1-1,.25,2,2,0,0,1-1.61-.66,3,3,0,0,1-.58-2v-2.67l-.71-.18v-1.06h2.46V343a1.65,1.65,0,0,0,.24,1,.81.81,0,0,0,.7.31,1.73,1.73,0,0,0,.71-.13,1.28,1.28,0,0,0,.5-.39v-3.48l-.77-.18v-1.06h2.51v5.25l.79.18v1H94Z"/><path class="cls-6" d="M101.22,344.76a2.15,2.15,0,0,1-.72.69,2,2,0,0,1-1,.23,2.19,2.19,0,0,1-1.85-.87A3.77,3.77,0,0,1,97,342.5v-.13a4.22,4.22,0,0,1,.66-2.47,2.16,2.16,0,0,1,1.86-.94,1.82,1.82,0,0,1,.88.22,2.14,2.14,0,0,1,.68.6v-2.32l-.93-.18v-1h2.68v8.1l.83.18v1h-2.35Zm-2.44-2.26a2.62,2.62,0,0,0,.29,1.33,1,1,0,0,0,.93.49,1.4,1.4,0,0,0,.66-.15,1.32,1.32,0,0,0,.46-.45V341a1.41,1.41,0,0,0-.46-.48,1.23,1.23,0,0,0-.65-.17,1,1,0,0,0-.93.57,3.16,3.16,0,0,0-.3,1.48Z"/><path class="cls-6" d="M107.13,340.14v-1.06h2.53l.09.76a2.1,2.1,0,0,1,.68-.65,1.9,1.9,0,0,1,.94-.23,2.16,2.16,0,0,1,1.86.94,4.22,4.22,0,0,1,.66,2.47v.13a3.77,3.77,0,0,1-.66,2.31,2.19,2.19,0,0,1-1.85.87,2.06,2.06,0,0,1-.91-.19,2,2,0,0,1-.67-.55v1.87l.84.18V348h-3.42V347l.84-.18v-6.49Zm5,2.23a3,3,0,0,0-.31-1.48,1,1,0,0,0-.93-.57,1.38,1.38,0,0,0-.67.16,1.15,1.15,0,0,0-.44.46v2.84a1.11,1.11,0,0,0,.44.42,1.52,1.52,0,0,0,.68.14,1,1,0,0,0,.93-.5,2.58,2.58,0,0,0,.3-1.34Z"/><path class="cls-6" d="M114.8,344.51l.84-.18v-4l-.93-.18v-1.06h2.56l.07.95a2,2,0,0,1,.59-.78,1.31,1.31,0,0,1,.83-.29l.29,0,.25.05-.18,1.59-.72,0a1.22,1.22,0,0,0-.63.15.91.91,0,0,0-.38.42v3.15l.83.18v1H114.8Z"/><path class="cls-6" d="M119.71,342.26a3.44,3.44,0,0,1,.8-2.37,3.17,3.17,0,0,1,4.49,0,3.44,3.44,0,0,1,.81,2.37v.12a3.45,3.45,0,0,1-.81,2.38,3.2,3.2,0,0,1-4.49,0,3.45,3.45,0,0,1-.8-2.38Zm1.74.12a2.77,2.77,0,0,0,.31,1.42,1.07,1.07,0,0,0,1,.54,1,1,0,0,0,1-.54,2.79,2.79,0,0,0,.32-1.42v-.12a2.8,2.8,0,0,0-.32-1.41,1.19,1.19,0,0,0-2,0,2.81,2.81,0,0,0-.31,1.41Z"/><path class="cls-6" d="M129.22,340.14l-.61.11.86,2.89.11.61h0l.12-.61.84-2.88-.62-.12v-1.06h2.94v1.06l-.56.09-1.91,5.32h-1.67l-1.91-5.32-.56-.09v-1.06h2.93Z"/><path class="cls-6" d="M133.4,344.51l.84-.18v-4l-.93-.18v-1.06H136v5.25l.84.18v1H133.4Zm2.59-7h-1.75v-1.31H136Z"/><path class="cls-6" d="M141.61,344.76a2.35,2.35,0,0,1-.72.69,2,2,0,0,1-.95.23,2.2,2.2,0,0,1-1.86-.87,3.77,3.77,0,0,1-.66-2.31v-.13a4.15,4.15,0,0,1,.67-2.47A2.16,2.16,0,0,1,140,339a1.78,1.78,0,0,1,.87.22,2.17,2.17,0,0,1,.69.6v-2.32l-.94-.18v-1h2.68v8.1l.84.18v1h-2.35Zm-2.44-2.26a2.63,2.63,0,0,0,.28,1.33,1,1,0,0,0,.93.49,1.22,1.22,0,0,0,1.13-.6V341a1.51,1.51,0,0,0-.46-.48,1.27,1.27,0,0,0-.66-.17,1,1,0,0,0-.93.57,3.3,3.3,0,0,0-.29,1.48Z"/><path class="cls-6" d="M147.74,345.68a2.92,2.92,0,0,1-2.24-.9,3.25,3.25,0,0,1-.83-2.28v-.24a3.52,3.52,0,0,1,.79-2.37,3,3,0,0,1,4.16-.14,3.06,3.06,0,0,1,.72,2.14v.95h-3.86v0a1.71,1.71,0,0,0,.42,1.06,1.37,1.37,0,0,0,1,.41,3.3,3.3,0,0,0,1-.12,4.81,4.81,0,0,0,.84-.37l.47,1.08a3.49,3.49,0,0,1-1,.53A4.23,4.23,0,0,1,147.74,345.68Zm-.16-5.37a.9.9,0,0,0-.76.37,2,2,0,0,0-.35,1l0,0h2.14v-.15a1.43,1.43,0,0,0-.26-.89A.93.93,0,0,0,147.58,340.31Z"/><path class="cls-6" d="M151.3,344.51l.83-.18v-4l-.92-.18v-1.06h2.55l.08.95a1.9,1.9,0,0,1,.58-.78,1.31,1.31,0,0,1,.83-.29,1.43,1.43,0,0,1,.29,0,1.33,1.33,0,0,1,.26.05l-.19,1.59-.71,0a1.24,1.24,0,0,0-.64.15,1,1,0,0,0-.38.42v3.15l.84.18v1H151.3Z"/><path class="cls-6" d="M300.45,73.56h-1.17l-.19-.81a1.57,1.57,0,0,0-.45-.24,1.89,1.89,0,0,0-.6-.09,1.24,1.24,0,0,0-.73.2.63.63,0,0,0-.27.52.59.59,0,0,0,.26.49,2.79,2.79,0,0,0,1,.34,4.33,4.33,0,0,1,1.78.7,1.55,1.55,0,0,1,.58,1.28,1.71,1.71,0,0,1-.75,1.43,3.25,3.25,0,0,1-2,.55,4.06,4.06,0,0,1-1.37-.22,3.56,3.56,0,0,1-1.11-.62V75.63h1.22l.23.85a1.14,1.14,0,0,0,.43.19,2.6,2.6,0,0,0,.56.06,1.38,1.38,0,0,0,.81-.19A.58.58,0,0,0,299,76a.59.59,0,0,0-.28-.49,2.72,2.72,0,0,0-1-.37,4.13,4.13,0,0,1-1.72-.7,1.48,1.48,0,0,1-.58-1.24,1.79,1.79,0,0,1,.67-1.4,2.74,2.74,0,0,1,1.9-.59,5.09,5.09,0,0,1,1.43.2,3,3,0,0,1,1.05.52Z"/><path class="cls-6" d="M304.05,69.75v1.58h1.14v1.23h-1.14v3.29a.71.71,0,0,0,.16.54.54.54,0,0,0,.42.16h.31l.3-.05.15,1.26a4.35,4.35,0,0,1-.58.13,4,4,0,0,1-.62.05,1.86,1.86,0,0,1-1.39-.5,2.14,2.14,0,0,1-.49-1.57v-3.3h-.95V71.33h.95V69.75Z"/><path class="cls-6" d="M310.16,77.8a1.85,1.85,0,0,1-.12-.33,2.14,2.14,0,0,1-.09-.34,2.52,2.52,0,0,1-.75.58,2.25,2.25,0,0,1-1,.22,2.1,2.1,0,0,1-1.51-.52,1.79,1.79,0,0,1-.56-1.41,1.59,1.59,0,0,1,.73-1.4,3.8,3.8,0,0,1,2.14-.5h.89v-.63a.94.94,0,0,0-.27-.72,1.13,1.13,0,0,0-.8-.26,1.74,1.74,0,0,0-.53.07,1.5,1.5,0,0,0-.38.16l-.11.7h-1.31V72a4.9,4.9,0,0,1,1.1-.54,3.9,3.9,0,0,1,1.35-.22,3.08,3.08,0,0,1,1.95.58,2,2,0,0,1,.75,1.68v3a2.11,2.11,0,0,0,0,.26l.53.07v1Zm-1.51-1.16a1.59,1.59,0,0,0,.72-.17,1.52,1.52,0,0,0,.5-.43v-1H309a1.27,1.27,0,0,0-.85.26.84.84,0,0,0-.28.63.64.64,0,0,0,.21.51A.84.84,0,0,0,308.65,76.64Z"/><path class="cls-6" d="M312.58,69.53v-1h2.67v5.4h.39l1-1.42-.57-.07V71.33h3.18v1.06l-.77.17-1.16,1.6L319,76.62l.66.14v1h-3v-1l.36-.06-1-1.6h-.75v1.48l.76.18v1h-3.34v-1l.84-.18V69.71Z"/><path class="cls-6" d="M323.21,77.93A2.89,2.89,0,0,1,321,77a3.19,3.19,0,0,1-.84-2.28v-.23a3.54,3.54,0,0,1,.79-2.38,3,3,0,0,1,4.16-.14,3.06,3.06,0,0,1,.72,2.14v1H322v0a1.66,1.66,0,0,0,.43,1.05,1.33,1.33,0,0,0,1,.41,3.3,3.3,0,0,0,1-.12,4.7,4.7,0,0,0,.84-.36l.47,1.07a3.37,3.37,0,0,1-1,.53A4.23,4.23,0,0,1,323.21,77.93Zm-.15-5.37a.9.9,0,0,0-.77.37,2,2,0,0,0-.35,1l0,0h2.14v-.16a1.37,1.37,0,0,0-.26-.89A.92.92,0,0,0,323.06,72.56Z"/><path class="cls-6" d="M326.54,76.76l.84-.18V69.71l-.93-.18v-1h2.67v3.68a2.37,2.37,0,0,1,.75-.7,2,2,0,0,1,1-.24,2,2,0,0,1,1.59.67A3.11,3.11,0,0,1,333,74v2.61l.84.18v1h-3.34v-1l.76-.18V74a1.63,1.63,0,0,0-.27-1.06,1,1,0,0,0-.79-.32,1.55,1.55,0,0,0-.64.13,1.4,1.4,0,0,0-.46.38v3.5l.76.18v1h-3.34Z"/><path class="cls-6" d="M334.36,74.51a3.44,3.44,0,0,1,.81-2.37,3.19,3.19,0,0,1,4.48,0,3.44,3.44,0,0,1,.81,2.37v.12a3.45,3.45,0,0,1-.81,2.38,2.82,2.82,0,0,1-2.23.92,2.85,2.85,0,0,1-2.25-.92,3.45,3.45,0,0,1-.81-2.38Zm1.74.12a2.76,2.76,0,0,0,.32,1.42,1.19,1.19,0,0,0,2,0,2.79,2.79,0,0,0,.31-1.42v-.12a2.83,2.83,0,0,0-.31-1.41,1.09,1.09,0,0,0-1-.54,1,1,0,0,0-1,.54,2.83,2.83,0,0,0-.32,1.41Z"/><path class="cls-6" d="M340.92,69.53v-1h2.67v8.1l.85.18v1H341v-1l.84-.18V69.71Z"/><path class="cls-6" d="M349.21,77a2.15,2.15,0,0,1-.72.69,1.92,1.92,0,0,1-.94.23,2.2,2.2,0,0,1-1.86-.87,3.75,3.75,0,0,1-.66-2.31v-.13a4.22,4.22,0,0,1,.66-2.47,2.18,2.18,0,0,1,1.87-.93,1.81,1.81,0,0,1,.87.21,2,2,0,0,1,.68.6V69.71l-.93-.18v-1h2.68v8.1l.84.18v1h-2.35Zm-2.43-2.26a2.63,2.63,0,0,0,.28,1.33,1,1,0,0,0,.93.49,1.4,1.4,0,0,0,.66-.15,1.32,1.32,0,0,0,.46-.45V73.22a1.48,1.48,0,0,0-.45-.48,1.3,1.3,0,0,0-.66-.17,1,1,0,0,0-.93.57,3.17,3.17,0,0,0-.29,1.48Z"/><path class="cls-6" d="M355.35,77.93a2.92,2.92,0,0,1-2.24-.9,3.19,3.19,0,0,1-.84-2.28v-.23a3.55,3.55,0,0,1,.8-2.38,2.59,2.59,0,0,1,2.12-.92,2.63,2.63,0,0,1,2,.78,3,3,0,0,1,.73,2.14v1h-3.86l0,0a1.78,1.78,0,0,0,.43,1.05,1.35,1.35,0,0,0,1,.41,3.33,3.33,0,0,0,1-.12,4.35,4.35,0,0,0,.83-.36l.47,1.07a3.31,3.31,0,0,1-1,.53A4.27,4.27,0,0,1,355.35,77.93Zm-.16-5.37a.89.89,0,0,0-.76.37,1.88,1.88,0,0,0-.35,1l0,0h2.14v-.16a1.43,1.43,0,0,0-.26-.89A1,1,0,0,0,355.19,72.56Z"/><path class="cls-6" d="M358.9,76.76l.84-.18v-4l-.93-.18V71.33h2.56l.07,1a2.09,2.09,0,0,1,.59-.78,1.3,1.3,0,0,1,.83-.28,1.46,1.46,0,0,1,.29,0l.26.05-.19,1.59-.72,0a1.22,1.22,0,0,0-.63.15.91.91,0,0,0-.38.42v3.15l.83.18v1H358.9Z"/><path class="cls-6" d="M373.5,71.88h-1.31l-.23-1.2a2.4,2.4,0,0,0-.66-.25,4,4,0,0,0-.93-.1,1.79,1.79,0,0,0-1.11.3.94.94,0,0,0-.39.78.86.86,0,0,0,.41.72,5.5,5.5,0,0,0,1.41.6,5.59,5.59,0,0,1,2.19,1.06,2.22,2.22,0,0,1,.74,1.73,2,2,0,0,1-.88,1.76,3.87,3.87,0,0,1-2.33.65,5,5,0,0,1-1.87-.33,3.78,3.78,0,0,1-1.39-.91V74.87h1.35l.18,1.24a2.42,2.42,0,0,0,.72.36,3.52,3.52,0,0,0,1,.14,1.79,1.79,0,0,0,1.09-.29,1,1,0,0,0,.37-.79,1,1,0,0,0-.36-.81,3.6,3.6,0,0,0-1.24-.57,7.3,7.3,0,0,1-2.35-1.06,2,2,0,0,1-.79-1.69,2.08,2.08,0,0,1,.9-1.73,3.7,3.7,0,0,1,2.25-.69,5.09,5.09,0,0,1,1.83.31,4.21,4.21,0,0,1,1.39.81Z"/><path class="cls-6" d="M374.31,70.15V69.1h3.6v1.05l-.93.18v2.51h3.55V70.33l-.93-.18V69.1h3.6v1.05l-.93.18v6.25l.93.18v1h-3.6v-1l.93-.18V74.19H377v2.39l.93.18v1h-3.6v-1l.93-.18V70.33Z"/><path class="cls-6" d="M384,77.8V76.66l2.82-3a6.78,6.78,0,0,0,.86-1.18,1.94,1.94,0,0,0,.26-.89,1.37,1.37,0,0,0-.29-.9,1.06,1.06,0,0,0-.84-.35,1.09,1.09,0,0,0-.92.41,1.74,1.74,0,0,0-.32,1.09h-1.69l0,0a2.61,2.61,0,0,1,.78-2,2.92,2.92,0,0,1,2.17-.82,3.05,3.05,0,0,1,2.11.7,2.39,2.39,0,0,1,.77,1.87,2.65,2.65,0,0,1-.43,1.46,13.81,13.81,0,0,1-1.44,1.74l-1.55,1.69v0h2.26l.08-.86h1.32v2.2Z"/><path class="cls-8" d="M55,238.59a1,1,0,0,0,.75-.27,1,1,0,0,0,.28-.73h1.57l0,0a2,2,0,0,1-.73,1.64,3.1,3.1,0,0,1-4.12-.26,3.48,3.48,0,0,1-.78-2.34v-.18a3.4,3.4,0,0,1,.8-2.35,2.86,2.86,0,0,1,2.29-.93,3.93,3.93,0,0,1,1.41.24,2.61,2.61,0,0,1,1,.66l0,1.72H56.1l-.29-1a1.09,1.09,0,0,0-.76-.26,1.09,1.09,0,0,0-1,.54,2.73,2.73,0,0,0-.31,1.39v.18a2.94,2.94,0,0,0,.28,1.39A1,1,0,0,0,55,238.59Z"/><path class="cls-8" d="M58.2,231.53v-1.05h2.67v8.1l.85.18v1H58.29v-1l.84-.18v-6.87Z"/><path class="cls-8" d="M62.17,236.51a3.44,3.44,0,0,1,.81-2.37,2.8,2.8,0,0,1,2.23-.93,2.83,2.83,0,0,1,2.25.93,3.44,3.44,0,0,1,.81,2.37v.12a3.45,3.45,0,0,1-.81,2.38A3.19,3.19,0,0,1,63,239a3.45,3.45,0,0,1-.81-2.38Zm1.74.12a2.77,2.77,0,0,0,.31,1.42,1.07,1.07,0,0,0,1,.54,1.06,1.06,0,0,0,1-.54,2.9,2.9,0,0,0,.31-1.42v-.12a2.83,2.83,0,0,0-.32-1.41,1.19,1.19,0,0,0-2,0,2.83,2.83,0,0,0-.31,1.41Z"/><path class="cls-8" d="M73.55,239a2,2,0,0,1-.76.7,2.14,2.14,0,0,1-1.05.25,2,2,0,0,1-1.6-.66,3,3,0,0,1-.58-2v-2.67l-.71-.18v-1.06h2.46v3.92a1.65,1.65,0,0,0,.23,1,.82.82,0,0,0,.7.31,1.75,1.75,0,0,0,.72-.13,1.25,1.25,0,0,0,.49-.39v-3.48l-.76-.18v-1.06H75.2v5.25l.78.18v1H73.67Z"/><path class="cls-8" d="M80.88,239a2.35,2.35,0,0,1-.72.69,2,2,0,0,1-1,.23,2.2,2.2,0,0,1-1.86-.87,3.75,3.75,0,0,1-.66-2.31v-.13a4.15,4.15,0,0,1,.67-2.47,2.16,2.16,0,0,1,1.86-.94,1.81,1.81,0,0,1,.87.22,2,2,0,0,1,.68.6v-2.32l-.93-.18v-1.05h2.68v8.1l.84.18v1H81Zm-2.44-2.26a2.63,2.63,0,0,0,.28,1.33,1,1,0,0,0,.93.49,1.34,1.34,0,0,0,.66-.15,1.24,1.24,0,0,0,.46-.45v-2.75a1.38,1.38,0,0,0-.45-.48,1.3,1.3,0,0,0-.66-.17,1,1,0,0,0-.93.57,3.3,3.3,0,0,0-.29,1.48Z"/><path class="cls-6" d="M71.19,73.71H70l-.19-.81a1.37,1.37,0,0,0-.45-.24,1.89,1.89,0,0,0-.6-.1,1.17,1.17,0,0,0-.73.21.63.63,0,0,0-.27.52.59.59,0,0,0,.26.48,2.69,2.69,0,0,0,1,.35,4.2,4.2,0,0,1,1.78.7,1.53,1.53,0,0,1,.58,1.28,1.69,1.69,0,0,1-.75,1.42,3.25,3.25,0,0,1-2,.56,4.32,4.32,0,0,1-1.37-.22,3.8,3.8,0,0,1-1.11-.63V75.78h1.21l.24.84a1,1,0,0,0,.43.2,2.53,2.53,0,0,0,.56.06,1.43,1.43,0,0,0,.81-.19.59.59,0,0,0,.28-.52.64.64,0,0,0-.28-.5,2.91,2.91,0,0,0-1-.37,4,4,0,0,1-1.72-.69,1.48,1.48,0,0,1-.58-1.24A1.83,1.83,0,0,1,66.78,72a2.83,2.83,0,0,1,1.91-.59,4.8,4.8,0,0,1,1.43.21,2.86,2.86,0,0,1,1,.52Z"/><path class="cls-6" d="M74.79,69.9v1.58h1.14v1.23H74.79V76a.79.79,0,0,0,.15.54.57.57,0,0,0,.42.16h.32l.3-.06.15,1.27a4.35,4.35,0,0,1-.58.13,4,4,0,0,1-.62,0,1.86,1.86,0,0,1-1.39-.5A2.16,2.16,0,0,1,73.05,76v-3.3h-1V71.48h1V69.9Z"/><path class="cls-6" d="M80.9,78c-.05-.11-.09-.22-.13-.33s-.06-.23-.08-.35a2.3,2.3,0,0,1-.76.58,2.42,2.42,0,0,1-2.53-.29,1.85,1.85,0,0,1-.55-1.41,1.58,1.58,0,0,1,.73-1.4,3.78,3.78,0,0,1,2.14-.5h.89v-.63a1,1,0,0,0-.27-.73,1.13,1.13,0,0,0-.8-.25,2.15,2.15,0,0,0-.53.06,1.35,1.35,0,0,0-.38.17l-.11.69H77.2V72.13a4.92,4.92,0,0,1,1.1-.55,4.15,4.15,0,0,1,1.35-.22,3.08,3.08,0,0,1,2,.59,2,2,0,0,1,.75,1.68v3a2,2,0,0,0,0,.25l.53.07v1Zm-1.51-1.17a1.41,1.41,0,0,0,.71-.17,1.34,1.34,0,0,0,.51-.42v-1h-.89a1.25,1.25,0,0,0-.85.26.8.8,0,0,0-.28.62.66.66,0,0,0,.21.52A.89.89,0,0,0,79.39,76.78Z"/><path class="cls-6" d="M83.32,69.68V68.62H86V74h.39l1-1.42-.57-.08v-1H90v1l-.77.18-1.16,1.6,1.63,2.46.66.13v1h-3v-1l.36-.06-1-1.6H86v1.48l.76.18v1H83.41v-1l.84-.18V69.86Z"/><path class="cls-6" d="M94,78.08a2.92,2.92,0,0,1-2.24-.9,3.25,3.25,0,0,1-.83-2.28v-.24a3.52,3.52,0,0,1,.79-2.37,3,3,0,0,1,4.16-.14,3.06,3.06,0,0,1,.72,2.14v.95H92.69v0a1.66,1.66,0,0,0,.42,1,1.34,1.34,0,0,0,1,.42,3.3,3.3,0,0,0,1-.12,4.81,4.81,0,0,0,.84-.37l.47,1.08a3.49,3.49,0,0,1-1,.53A4.5,4.5,0,0,1,94,78.08Zm-.16-5.37a.9.9,0,0,0-.76.37,2,2,0,0,0-.35,1l0,0h2.14v-.15a1.43,1.43,0,0,0-.26-.89A.93.93,0,0,0,93.79,72.71Z"/><path class="cls-6" d="M97.28,76.9l.84-.18V69.86l-.93-.18V68.62h2.67v3.69a2.18,2.18,0,0,1,.75-.7,2,2,0,0,1,1-.25,2,2,0,0,1,1.59.68,3.08,3.08,0,0,1,.58,2.07v2.61l.84.18v1h-3.34v-1l.75-.18V74.1a1.66,1.66,0,0,0-.26-1.07,1,1,0,0,0-.79-.31,1.41,1.41,0,0,0-.64.13,1.37,1.37,0,0,0-.46.37v3.5l.75.18v1H97.28Z"/><path class="cls-6" d="M105.1,74.66a3.44,3.44,0,0,1,.81-2.37,2.81,2.81,0,0,1,2.24-.93,2.84,2.84,0,0,1,2.24.92,3.49,3.49,0,0,1,.81,2.38v.12a3.47,3.47,0,0,1-.81,2.38,2.82,2.82,0,0,1-2.23.92,2.85,2.85,0,0,1-2.25-.92,3.47,3.47,0,0,1-.81-2.38Zm1.74.12a2.9,2.9,0,0,0,.31,1.42,1.09,1.09,0,0,0,1,.54,1.06,1.06,0,0,0,1-.54,2.79,2.79,0,0,0,.31-1.42v-.12a2.78,2.78,0,0,0-.31-1.41,1.09,1.09,0,0,0-1-.54,1.07,1.07,0,0,0-1,.54,2.89,2.89,0,0,0-.31,1.41Z"/><path class="cls-6" d="M111.66,69.68V68.62h2.67v8.1l.85.18v1h-3.43v-1l.84-.18V69.86Z"/><path class="cls-6" d="M120,77.16a2,2,0,0,1-.72.68,1.84,1.84,0,0,1-1,.24,2.2,2.2,0,0,1-1.85-.88,3.72,3.72,0,0,1-.66-2.3v-.13a4.22,4.22,0,0,1,.66-2.47,2.15,2.15,0,0,1,1.87-.94,1.81,1.81,0,0,1,.87.21,2.28,2.28,0,0,1,.68.6V69.86l-.93-.18V68.62h2.68v8.1l.83.18v1h-2.35Zm-2.44-2.26a2.62,2.62,0,0,0,.29,1.33,1,1,0,0,0,.93.49,1.29,1.29,0,0,0,.66-.16,1.17,1.17,0,0,0,.46-.45V73.37a1.25,1.25,0,0,0-.46-.48,1.23,1.23,0,0,0-.65-.17,1,1,0,0,0-.93.57,3.16,3.16,0,0,0-.3,1.48Z"/><path class="cls-6" d="M126.09,78.08a2.91,2.91,0,0,1-2.24-.9A3.21,3.21,0,0,1,123,74.9v-.24a3.52,3.52,0,0,1,.8-2.37,2.94,2.94,0,0,1,4.15-.14,3.07,3.07,0,0,1,.73,2.14v.95h-3.87v0a1.67,1.67,0,0,0,.43,1,1.32,1.32,0,0,0,1,.42,3.21,3.21,0,0,0,1-.12,4.24,4.24,0,0,0,.84-.37l.47,1.08a3.31,3.31,0,0,1-1,.53A4.55,4.55,0,0,1,126.09,78.08Zm-.16-5.37a.89.89,0,0,0-.76.37,1.87,1.87,0,0,0-.35,1l0,0H127v-.15a1.43,1.43,0,0,0-.26-.89A1,1,0,0,0,125.93,72.71Z"/><path class="cls-6" d="M129.64,76.9l.84-.18v-4l-.93-.18v-1h2.55l.08,1a2,2,0,0,1,.59-.79,1.34,1.34,0,0,1,.83-.28l.29,0,.25.05L134,73h-.72a1.2,1.2,0,0,0-.63.15.86.86,0,0,0-.38.42v3.14l.83.18v1h-3.42Z"/><path class="cls-6" d="M144.23,72h-1.3l-.23-1.2a2.09,2.09,0,0,0-.67-.25,3.87,3.87,0,0,0-.92-.11,1.79,1.79,0,0,0-1.11.3.94.94,0,0,0-.39.78.84.84,0,0,0,.41.73,5.5,5.5,0,0,0,1.41.6,5.59,5.59,0,0,1,2.19,1.06,2.21,2.21,0,0,1,.74,1.73,2.06,2.06,0,0,1-.88,1.76,3.89,3.89,0,0,1-2.34.65,5,5,0,0,1-1.86-.33,3.91,3.91,0,0,1-1.39-.91V75h1.35l.18,1.24a2.2,2.2,0,0,0,.72.35,3.14,3.14,0,0,0,1,.14,1.69,1.69,0,0,0,1.09-.29.94.94,0,0,0,.38-.78,1,1,0,0,0-.36-.81A3.6,3.6,0,0,0,141,74.3a7.19,7.19,0,0,1-2.35-1.07,2,2,0,0,1-.79-1.68,2.07,2.07,0,0,1,.9-1.73,3.67,3.67,0,0,1,2.25-.69,5.32,5.32,0,0,1,1.83.3,4.23,4.23,0,0,1,1.38.81Z"/><path class="cls-6" d="M145.05,70.3v-1h3.6v1l-.93.18V73h3.55V70.48l-.93-.18v-1h3.6v1l-.93.18v6.24l.93.18v1h-3.6v-1l.93-.18V74.33h-3.55v2.39l.93.18v1h-3.6v-1l.93-.18V70.48Z"/><path class="cls-6" d="M154.67,76.9l1.47-.18V70.83h-1.49v-1l3.23-.58v7.47l1.47.18v1h-4.68Z"/><path class="cls-6" d="M95.09,178H93.78l-.22-1.2a2.19,2.19,0,0,0-.67-.25,3.93,3.93,0,0,0-.92-.11,1.79,1.79,0,0,0-1.11.3.94.94,0,0,0-.39.78.84.84,0,0,0,.41.73,5.5,5.5,0,0,0,1.41.6,5.59,5.59,0,0,1,2.19,1.06,2.21,2.21,0,0,1,.74,1.73,2.07,2.07,0,0,1-.89,1.76,3.85,3.85,0,0,1-2.33.65,5.06,5.06,0,0,1-1.87-.33,4.09,4.09,0,0,1-1.39-.91V181H90.1l.18,1.24a2.1,2.1,0,0,0,.72.35,3.14,3.14,0,0,0,1,.14,1.71,1.71,0,0,0,1.09-.29.94.94,0,0,0,.38-.78,1,1,0,0,0-.36-.81,3.7,3.7,0,0,0-1.24-.57,7.09,7.09,0,0,1-2.35-1.07,2,2,0,0,1-.79-1.68,2.08,2.08,0,0,1,.89-1.73,3.73,3.73,0,0,1,2.26-.69,5.32,5.32,0,0,1,1.83.3,4.23,4.23,0,0,1,1.38.81Z"/><path class="cls-6" d="M99.05,184.08a2.91,2.91,0,0,1-2.24-.9A3.21,3.21,0,0,1,96,180.9v-.24a3.57,3.57,0,0,1,.79-2.37,3,3,0,0,1,4.16-.14,3.07,3.07,0,0,1,.73,2.14v1H97.78v0a1.67,1.67,0,0,0,.43,1,1.32,1.32,0,0,0,1,.42,3.21,3.21,0,0,0,1-.12,4.24,4.24,0,0,0,.84-.37l.47,1.08a3.37,3.37,0,0,1-1,.53A4.44,4.44,0,0,1,99.05,184.08Zm-.16-5.37a.92.92,0,0,0-.77.37,2,2,0,0,0-.34,1l0,0h2.14v-.15a1.43,1.43,0,0,0-.26-.89A1,1,0,0,0,98.89,178.71Z"/><path class="cls-6" d="M102.6,182.9l.84-.18v-4l-.93-.18v-1.05h2.55l.08,1a2,2,0,0,1,.59-.79,1.34,1.34,0,0,1,.83-.28l.29,0,.25.05-.18,1.59h-.72a1.18,1.18,0,0,0-.63.15.94.94,0,0,0-.39.42v3.14l.84.18v1H102.6Z"/><path class="cls-6" d="M110.47,178.53l-.61.12.86,2.89.11.61h0l.12-.61.85-2.89-.62-.12v-1.05h2.93v1.05l-.56.09L111.68,184H110l-1.91-5.33-.56-.09v-1.05h2.93Z"/><path class="cls-6" d="M114.65,182.9l.85-.18v-4l-.94-.18v-1.05h2.68v5.24l.84.18v1h-3.43Zm2.59-7H115.5v-1.31h1.74Z"/><path class="cls-6" d="M121.69,182.74a1,1,0,0,0,.75-.28,1,1,0,0,0,.28-.72h1.58v0a2,2,0,0,1-.73,1.65,3.1,3.1,0,0,1-4.12-.26,3.49,3.49,0,0,1-.78-2.35v-.18a3.44,3.44,0,0,1,.8-2.35,2.9,2.9,0,0,1,2.29-.92,3.9,3.9,0,0,1,1.41.24,2.71,2.71,0,0,1,1,.65l0,1.73h-1.42l-.29-1a1,1,0,0,0-.32-.19,1.2,1.2,0,0,0-.44-.07,1.09,1.09,0,0,0-1,.54,2.69,2.69,0,0,0-.31,1.38v.18a3.11,3.11,0,0,0,.28,1.4A1,1,0,0,0,121.69,182.74Z"/><path class="cls-6" d="M128.2,184.08a2.92,2.92,0,0,1-2.24-.9,3.25,3.25,0,0,1-.83-2.28v-.24a3.52,3.52,0,0,1,.79-2.37,3,3,0,0,1,4.16-.14,3.06,3.06,0,0,1,.72,2.14v1h-3.86v0a1.66,1.66,0,0,0,.42,1,1.33,1.33,0,0,0,1,.42,3.33,3.33,0,0,0,1-.12,4.44,4.44,0,0,0,.83-.37l.48,1.08a3.49,3.49,0,0,1-1,.53A4.55,4.55,0,0,1,128.2,184.08Zm-.16-5.37a.9.9,0,0,0-.76.37,2,2,0,0,0-.35,1l0,0h2.14v-.15a1.43,1.43,0,0,0-.26-.89A.94.94,0,0,0,128,178.71Z"/><path class="cls-6" d="M141.19,178h-1.3l-.23-1.2a2.09,2.09,0,0,0-.67-.25,3.87,3.87,0,0,0-.92-.11,1.79,1.79,0,0,0-1.11.3.94.94,0,0,0-.39.78.84.84,0,0,0,.41.73,5.5,5.5,0,0,0,1.41.6,5.59,5.59,0,0,1,2.19,1.06,2.21,2.21,0,0,1,.74,1.73,2.06,2.06,0,0,1-.88,1.76,3.89,3.89,0,0,1-2.34.65,5,5,0,0,1-1.86-.33,3.91,3.91,0,0,1-1.39-.91V181h1.35l.18,1.24a2.2,2.2,0,0,0,.72.35,3.14,3.14,0,0,0,1,.14,1.69,1.69,0,0,0,1.09-.29.94.94,0,0,0,.38-.78,1,1,0,0,0-.36-.81,3.6,3.6,0,0,0-1.24-.57,7.19,7.19,0,0,1-2.35-1.07,2,2,0,0,1-.79-1.68,2.07,2.07,0,0,1,.9-1.73,3.67,3.67,0,0,1,2.25-.69,5.32,5.32,0,0,1,1.83.3,4.23,4.23,0,0,1,1.38.81Z"/><path class="cls-6" d="M142.06,182.9l1.47-.18v-5.89H142v-1l3.23-.58v7.47l1.47.18v1h-4.68Z"/><path class="cls-6" d="M88.27,197.43a1,1,0,0,0,.75-.27,1,1,0,0,0,.28-.73h1.58l0,0a2,2,0,0,1-.74,1.64,3.09,3.09,0,0,1-4.11-.26,3.45,3.45,0,0,1-.79-2.35v-.18a3.44,3.44,0,0,1,.81-2.35,2.88,2.88,0,0,1,2.29-.92,3.84,3.84,0,0,1,1.4.24,2.75,2.75,0,0,1,1,.65l0,1.73H89.4l-.28-1a1.42,1.42,0,0,0-.32-.19,1.23,1.23,0,0,0-.44-.07,1.11,1.11,0,0,0-1,.54,2.79,2.79,0,0,0-.3,1.38v.18a3,3,0,0,0,.28,1.4A1,1,0,0,0,88.27,197.43Z"/><path class="cls-6" d="M91.69,195.35A3.44,3.44,0,0,1,92.5,193a2.81,2.81,0,0,1,2.24-.93A2.84,2.84,0,0,1,97,193a3.49,3.49,0,0,1,.81,2.38v.12a3.45,3.45,0,0,1-.81,2.38,2.82,2.82,0,0,1-2.23.92,2.85,2.85,0,0,1-2.25-.92,3.45,3.45,0,0,1-.81-2.38Zm1.74.12a2.87,2.87,0,0,0,.31,1.42,1.09,1.09,0,0,0,1,.54,1.06,1.06,0,0,0,1-.54,2.79,2.79,0,0,0,.31-1.42v-.12a2.81,2.81,0,0,0-.31-1.41,1.09,1.09,0,0,0-1-.54,1.07,1.07,0,0,0-1,.54,2.91,2.91,0,0,0-.31,1.41Z"/><path class="cls-6" d="M102.76,197.85a2,2,0,0,1-.72.68,1.86,1.86,0,0,1-1,.24,2.16,2.16,0,0,1-1.85-.88,3.72,3.72,0,0,1-.67-2.3v-.13a4.22,4.22,0,0,1,.67-2.47,2.16,2.16,0,0,1,1.86-.94,1.72,1.72,0,0,1,.88.22,2.25,2.25,0,0,1,.68.6v-2.32l-.93-.18v-1.05h2.67v8.1l.84.18v1h-2.35Zm-2.44-2.26a2.63,2.63,0,0,0,.28,1.33,1,1,0,0,0,.93.49,1.3,1.3,0,0,0,.67-.16,1.29,1.29,0,0,0,.46-.44v-2.75a1.33,1.33,0,0,0-.46-.48,1.23,1.23,0,0,0-.65-.17,1,1,0,0,0-.94.57,3.3,3.3,0,0,0-.29,1.48Z"/><path class="cls-6" d="M108.89,198.77a2.89,2.89,0,0,1-2.23-.9,3.21,3.21,0,0,1-.84-2.28v-.24a3.52,3.52,0,0,1,.79-2.37,3,3,0,0,1,4.16-.14,3.06,3.06,0,0,1,.72,2.14v1h-3.86v0a1.67,1.67,0,0,0,.43,1.06,1.33,1.33,0,0,0,1,.41,3.26,3.26,0,0,0,1-.12,4.51,4.51,0,0,0,.84-.37l.47,1.08a3.37,3.37,0,0,1-1,.53A4.23,4.23,0,0,1,108.89,198.77Zm-.15-5.37a.9.9,0,0,0-.77.37,1.87,1.87,0,0,0-.34,1v0h2.14v-.15a1.37,1.37,0,0,0-.26-.89A.92.92,0,0,0,108.74,193.4Z"/><path class="cls-6" d="M115.21,196.3a2,2,0,0,1,.39-1.22,5.29,5.29,0,0,1,1.18-1.07,5.07,5.07,0,0,1-.6-1,2.38,2.38,0,0,1,.44-2.58,2.41,2.41,0,0,1,1.73-.62,2.14,2.14,0,0,1,1.55.59,2,2,0,0,1,.59,1.43,2.1,2.1,0,0,1-.29,1.07,3.21,3.21,0,0,1-.8.85l-.56.39,1.65,1.92a3.14,3.14,0,0,0,.33-.77,3.24,3.24,0,0,0,.12-.89h1.31a5.22,5.22,0,0,1-.21,1.52,3.57,3.57,0,0,1-.62,1.23l1.25,1.46,0,0h-1.93l-.46-.53a4.16,4.16,0,0,1-1.05.49,3.9,3.9,0,0,1-1.15.17,3,3,0,0,1-2.08-.69A2.27,2.27,0,0,1,115.21,196.3Zm2.94,1.13a2.72,2.72,0,0,0,.63-.08,3.51,3.51,0,0,0,.61-.24L117.6,195l-.12.08a1.63,1.63,0,0,0-.41.56,1.35,1.35,0,0,0-.11.55,1.21,1.21,0,0,0,.33.87A1.11,1.11,0,0,0,118.15,197.43Zm-.61-5.36a1.27,1.27,0,0,0,.12.52,3.4,3.4,0,0,0,.39.61l.51-.34a1.22,1.22,0,0,0,.46-.44,1.18,1.18,0,0,0,.11-.5.74.74,0,0,0-.22-.53.71.71,0,0,0-.57-.23.69.69,0,0,0-.59.26A1,1,0,0,0,117.54,192.07Z"/><path class="cls-6" d="M130.17,197.85a2.2,2.2,0,0,1-.72.68,1.89,1.89,0,0,1-.95.24,2.18,2.18,0,0,1-1.86-.88,3.72,3.72,0,0,1-.66-2.3v-.13a4.15,4.15,0,0,1,.67-2.47,2.16,2.16,0,0,1,1.86-.94,1.68,1.68,0,0,1,.87.22,2.17,2.17,0,0,1,.69.6v-2.32l-.94-.18v-1.05h2.68v8.1l.84.18v1H130.3Zm-2.44-2.26a2.63,2.63,0,0,0,.28,1.33,1,1,0,0,0,.93.49,1.3,1.3,0,0,0,.67-.16,1.29,1.29,0,0,0,.46-.44v-2.75a1.41,1.41,0,0,0-.46-.48,1.27,1.27,0,0,0-.66-.17,1,1,0,0,0-.93.57,3.3,3.3,0,0,0-.29,1.48Z"/><path class="cls-6" d="M137.32,198.64a2.19,2.19,0,0,1-.12-.33,2.14,2.14,0,0,1-.09-.34,2.25,2.25,0,0,1-1.77.8,2.14,2.14,0,0,1-1.51-.52,1.82,1.82,0,0,1-.56-1.41,1.59,1.59,0,0,1,.73-1.4,3.82,3.82,0,0,1,2.14-.5H137v-.63a1,1,0,0,0-.27-.73,1.1,1.1,0,0,0-.79-.25,1.81,1.81,0,0,0-.54.07,1.28,1.28,0,0,0-.37.16l-.12.69h-1.31v-1.43a4.92,4.92,0,0,1,1.1-.55,4.15,4.15,0,0,1,1.35-.22,3.08,3.08,0,0,1,1.95.59,2,2,0,0,1,.75,1.68v3a1.9,1.9,0,0,0,0,.25l.53.08v1Zm-1.51-1.16a1.59,1.59,0,0,0,.72-.17,1.52,1.52,0,0,0,.5-.43v-1h-.89a1.22,1.22,0,0,0-.84.26.8.8,0,0,0-.29.63.64.64,0,0,0,.21.51A.89.89,0,0,0,135.81,197.48Z"/><path class="cls-6" d="M142,190.59v1.58h1.13v1.23H142v3.29a.79.79,0,0,0,.15.54.57.57,0,0,0,.42.16h.32l.3,0,.15,1.26a4.35,4.35,0,0,1-.58.13,4,4,0,0,1-.62.05,1.85,1.85,0,0,1-1.39-.5,2.14,2.14,0,0,1-.49-1.57v-3.3h-.95v-1.23h.95v-1.58Z"/><path class="cls-6" d="M148.14,198.64c0-.11-.09-.22-.13-.33s-.06-.23-.08-.34a2.44,2.44,0,0,1-.76.58,2.32,2.32,0,0,1-1,.22,2.18,2.18,0,0,1-1.51-.52,1.82,1.82,0,0,1-.56-1.41,1.61,1.61,0,0,1,.73-1.4,3.82,3.82,0,0,1,2.14-.5h.89v-.63a1,1,0,0,0-.26-.73,1.13,1.13,0,0,0-.8-.25,1.7,1.7,0,0,0-.53.07,1.36,1.36,0,0,0-.38.16l-.11.69h-1.32v-1.43a4.71,4.71,0,0,1,1.1-.55,4.14,4.14,0,0,1,1.34-.22,3.11,3.11,0,0,1,2,.59,2,2,0,0,1,.75,1.68v3a2,2,0,0,0,0,.25l.53.08v1Zm-1.51-1.16a1.52,1.52,0,0,0,.71-.17,1.34,1.34,0,0,0,.5-.43v-1H147a1.22,1.22,0,0,0-.84.26.83.83,0,0,0-.29.63.64.64,0,0,0,.22.51A.87.87,0,0,0,146.63,197.48Z"/><line class="cls-7" x1="105.51" y1="304.87" x2="106.72" y2="304.87"/><path class="cls-7" d="M112.71,305.16a1.13,1.13,0,0,1,.76-.29,1.11,1.11,0,0,1,.76.29"/><path class="cls-7" d="M116.21,317.78H117a4.44,4.44,0,0,1,3.31,1.42,4.72,4.72,0,0,1,1.42,3.3v4.72H105.19V322.5a4.4,4.4,0,0,1,1.42-3.3,4.67,4.67,0,0,1,3.3-1.42h.79"/><path class="cls-7" d="M110.7,317.78v-2"/><path class="cls-7" d="M116.21,315.73v2"/><path class="cls-7" d="M105.19,303.62a2.28,2.28,0,0,0-2.28,1.88c0,.16-.08.32-.08.48a2.36,2.36,0,0,0,2.36,2.36v-.4"/><path class="cls-7" d="M122.22,308.52a2.28,2.28,0,0,0,2.28-1.89c0-.15.08-.31.08-.47a2.37,2.37,0,0,0-2.36-2.36"/><path class="cls-7" d="M102.91,305.5a3.55,3.55,0,0,1-2.83-3.46,3.67,3.67,0,0,1,1.88-3.15,2.07,2.07,0,0,1-.31-1.18,2.32,2.32,0,0,1,2.36-2.36,2.81,2.81,0,0,1,.87.16,10.22,10.22,0,0,1,9-5.27,9.47,9.47,0,0,1,9.44,9.44V304"/><path class="cls-7" d="M116.21,297.71c.08,3.15-4.57,3.54-5.59,1.18.32,1.42-2.36,5.12-5.43,3.78v5.27a8.24,8.24,0,0,0,2.44,5.83,9,9,0,0,0,3.07,2,8.15,8.15,0,0,0,5.51,0,8.2,8.2,0,0,0,5.51-7.79v-5.66c-4.49-1.73-5.36-3.7-5.51-4.57"/><path class="cls-7" d="M106.88,304.13h5.51a0,0,0,0,1,0,0v1.36a2.57,2.57,0,0,1-2.57,2.57h-.57a2.36,2.36,0,0,1-2.36-2.36v-1.57A0,0,0,0,1,106.88,304.13Z"/><path class="cls-7" d="M117.11,304.13h.57a2.57,2.57,0,0,1,2.57,2.57v1.36a0,0,0,0,1,0,0h-5.51a0,0,0,0,1,0,0V306.5A2.36,2.36,0,0,1,117.11,304.13Z" transform="translate(235.01 612.2) rotate(-180)"/><path class="cls-9" d="M112.78,20.71c6.59,0,11.7,5.56,11.7,10.34v5.53a2.22,2.22,0,0,1-.06.51,4.17,4.17,0,0,1,.06.71,4.22,4.22,0,0,1-2.2,3.66,9.41,9.41,0,0,1-2.71,5.67,7.66,7.66,0,0,1,3.23,1.56,5.7,5.7,0,0,1,2.31,4.57v4.6a2,2,0,0,1-2,2H102.45a2,2,0,0,1-2-2v-4.6a5.77,5.77,0,0,1,2.38-4.63,7.5,7.5,0,0,1,3.34-1.54,10.22,10.22,0,0,1-2.76-5.54,4.1,4.1,0,0,1-2.31-3.11,1.27,1.27,0,0,1,0-.28v-.72a1.32,1.32,0,0,1,0-.28l0-.21a2.42,2.42,0,0,1,0-.47V31.05c0-4.78,5.11-10.34,11.7-10.34m0-2c-7.84,0-13.7,6.52-13.7,12.34v5.43a3.87,3.87,0,0,0,0,.48,4.12,4.12,0,0,0,0,.48v.72a3.64,3.64,0,0,0,0,.57,6.07,6.07,0,0,0,2.5,4.08A12.18,12.18,0,0,0,103,46.14a9.93,9.93,0,0,0-1.37.92,7.73,7.73,0,0,0-3.14,6.2v4.6a4,4,0,0,0,4,4h20.66a4,4,0,0,0,4-4v-4.6A7.77,7.77,0,0,0,124,47.11a10.29,10.29,0,0,0-1.28-.87,11.18,11.18,0,0,0,1.36-3.62,6.13,6.13,0,0,0,2.36-4.82c0-.22,0-.45,0-.67a5.07,5.07,0,0,0,0-.55V31.05c0-5.82-5.86-12.34-13.7-12.34Z"/><path class="cls-6" d="M112.78,22.71c5.39,0,9.7,4.51,9.7,8.35v5.52h-.41a2,2,0,0,1,.41,1.22A2.21,2.21,0,0,1,120.33,40v.5a7.42,7.42,0,0,1-3.4,6.25h0v2.23h.88a3.65,3.65,0,0,1,.87.07,5.64,5.64,0,0,1,2.81,1.23,3.76,3.76,0,0,1,1.57,3v4.6H102.45v-4.6a3.76,3.76,0,0,1,1.57-3A5.68,5.68,0,0,1,106.83,49a3.65,3.65,0,0,1,.87-.07h.88V46.71h.25a8,8,0,0,1-3.52-6.61,2.68,2.68,0,0,0,0-.71,5.48,5.48,0,0,0,0,.57,2.17,2.17,0,0,1-2.15-1.8v-.72a2,2,0,0,1,.42-1h-.42V31.06c0-3.84,4.31-8.35,9.7-8.35m0-2c-6.59,0-11.7,5.56-11.7,10.35v5.42a2.42,2.42,0,0,0,0,.47l0,.21a1.32,1.32,0,0,0,0,.28v.72a1.27,1.27,0,0,0,0,.28,4.1,4.1,0,0,0,2.31,3.11,10.29,10.29,0,0,0,2.76,5.55,7.6,7.6,0,0,0-3.38,1.56,5.75,5.75,0,0,0-2.34,4.6v4.6a2,2,0,0,0,2,2h20.66a2,2,0,0,0,2-2v-4.6a5.75,5.75,0,0,0-2.34-4.6,7.67,7.67,0,0,0-3.2-1.53,9.41,9.41,0,0,0,2.71-5.67,4.22,4.22,0,0,0,2.2-3.66,4.17,4.17,0,0,0-.06-.71,2.22,2.22,0,0,0,.06-.51V31.06c0-4.79-5.11-10.35-11.7-10.35Z"/><path class="cls-6" d="M115.66,37.08a.77.77,0,0,1,.71.72.72.72,0,1,1-.71-.72Z"/><circle class="cls-6" cx="109.91" cy="37.8" r="0.72"/><path class="cls-7" d="M105.23,35.65l.6-4.62c1.44-.36,8.16,3.65,11.25-1.39,0,0-.78,2.48,3.25,5.36v.65"/><path class="cls-7" d="M122.48,38a2.2,2.2,0,0,1-2.15,2.15V35.8A2.21,2.21,0,0,1,122.48,38Z"/><path class="cls-7" d="M103.08,37.44v.72a2.17,2.17,0,0,0,2.15,1.8V35.65A2.17,2.17,0,0,0,103.08,37.44Z"/><path class="cls-7" d="M103.08,36.48V31.06c0-3.84,4.31-8.35,9.7-8.35s9.7,4.51,9.7,8.35v5.52"/><path class="cls-10" d="M117,46.71v2.23h.88a3.78,3.78,0,0,1,.88.07,5.65,5.65,0,0,1,2.8,1.23,3.76,3.76,0,0,1,1.57,3v4.6H102.45v-4.6a3.76,3.76,0,0,1,1.57-3A5.68,5.68,0,0,1,106.83,49a3.65,3.65,0,0,1,.87-.07h.88V46.71"/><path class="cls-7" d="M105.23,35.72c0,1.79.08,2.59.08,4.38a7.74,7.74,0,0,0,7.47,7.84,7.49,7.49,0,0,0,7.55-7.48v-5"/><path class="cls-7" d="M110.7,42.47a2.51,2.51,0,0,0,2.08,1.08,2.6,2.6,0,0,0,2.08-1.08"/><path class="cls-5" d="M333.64,59.94a3,3,0,0,1-3-3V52.39a7.31,7.31,0,0,1,1.92-5,7.63,7.63,0,0,1-4.2-6.77V31.55a13.24,13.24,0,1,1,26.47,0V40.8a2.73,2.73,0,0,1,0,.41,7.58,7.58,0,0,1-4.19,6.2,7.5,7.5,0,0,1,1.95,5v4.55a3,3,0,0,1-3,3Z"/><path class="cls-11" d="M341.6,19.31a12.25,12.25,0,0,1,12.23,12.24V40.8a2.64,2.64,0,0,1,0,.28A6.61,6.61,0,0,1,348.75,47a4.78,4.78,0,0,1,.95.87,6.57,6.57,0,0,1,1.86,4.5v4.55a2,2,0,0,1-2,2H333.64a2,2,0,0,1-2-2V52.39a6.28,6.28,0,0,1,2-4.66,7.51,7.51,0,0,1,.81-.7,6.55,6.55,0,0,1-5.11-6.39V31.55A12.25,12.25,0,0,1,341.6,19.31m0-2a14.26,14.26,0,0,0-14.24,14.24v9.09a8.63,8.63,0,0,0,3.71,7,8.43,8.43,0,0,0-1.43,4.71v4.55a4,4,0,0,0,4,4h15.92a4,4,0,0,0,4-4V52.39a8.5,8.5,0,0,0-1.47-4.7,8.6,8.6,0,0,0,3.71-6.42,3.83,3.83,0,0,0,0-.47V31.55A14.25,14.25,0,0,0,341.6,17.31Z"/><path class="cls-5" d="M333.64,57.94a1,1,0,0,1-1-1V52.39a5.28,5.28,0,0,1,1.69-3.92,10.14,10.14,0,0,1,1-.82l.12-.07a5.59,5.59,0,0,1,2.51-.73v-.31c-.28-.12-.57-.27-.87-.43a5.76,5.76,0,0,1-1.16.08,5.55,5.55,0,0,1-5.55-5.54v-9.1a11.24,11.24,0,1,1,22.47,0V40.8a1,1,0,0,1,0,.17,5.6,5.6,0,0,1-5.54,5.22,6.72,6.72,0,0,1-1.16-.11,8,8,0,0,1-.87.46v.31a5.63,5.63,0,0,1,2.52.73,4.28,4.28,0,0,1,1.18,1,5.59,5.59,0,0,1,1.61,3.84v4.55a1,1,0,0,1-1,1Z"/><path class="cls-6" d="M341.6,21.32a10.19,10.19,0,0,1,10.23,10.23V40.8h0a4.55,4.55,0,0,1-4.54,4.39A6.43,6.43,0,0,1,346,45V45a8,8,0,0,1-1.74.91v2H345a4.6,4.6,0,0,1,2.27.6,3,3,0,0,1,.91.76,4.51,4.51,0,0,1,1.37,3.18v4.55H333.64V52.39A4.3,4.3,0,0,1,335,49.21a9.9,9.9,0,0,1,.91-.76,4.61,4.61,0,0,1,2.28-.6h.75v-2A13.33,13.33,0,0,1,337.2,45a3.58,3.58,0,0,1-1.29.15,4.56,4.56,0,0,1-4.55-4.55V31.55A10.19,10.19,0,0,1,341.6,21.32m0-2a12.24,12.24,0,0,0-12.24,12.23v9.09A6.55,6.55,0,0,0,334.47,47c-.26.21-.55.44-.85.73a6.31,6.31,0,0,0-2,4.63v4.55a2,2,0,0,0,2,2h15.92a2,2,0,0,0,2-2V52.39a6.57,6.57,0,0,0-1.86-4.5,4.47,4.47,0,0,0-.95-.87,6.61,6.61,0,0,0,5.06-6,2.45,2.45,0,0,0,0-.27V31.55A12.24,12.24,0,0,0,341.6,19.32Z"/><path class="cls-7" d="M338.94,45.88A13.33,13.33,0,0,1,337.2,45a7.63,7.63,0,0,1-1.21-1,7.92,7.92,0,0,1-2.35-5.61"/><path class="cls-7" d="M349.56,38.37A7.92,7.92,0,0,1,346,45a8,8,0,0,1-1.74.91"/><path class="cls-7" d="M333.64,34.2v-.45c1.51-.38,7.73-2.2,11-7.51a12.17,12.17,0,0,0,4.93,7.28v.68"/><path class="cls-7" d="M351.83,36.48a2.33,2.33,0,0,1-2.27,2.27V34.2A2.33,2.33,0,0,1,351.83,36.48Z"/><path class="cls-7" d="M331.36,36.1v.75a2.3,2.3,0,0,0,2.28,1.9V34.2A2.31,2.31,0,0,0,331.36,36.1Z"/><path class="cls-7" d="M347.28,48.45a4.6,4.6,0,0,0-2.27-.6h-.76"/><path class="cls-7" d="M338.94,47.85h-.75a4.61,4.61,0,0,0-2.28.6"/><path class="cls-7" d="M335.91,48.45a9.9,9.9,0,0,0-.91.76,4.3,4.3,0,0,0-1.36,3.18v4.55h15.92V52.39a4.51,4.51,0,0,0-1.37-3.18,3,3,0,0,0-.91-.76"/><path class="cls-7" d="M344.25,47.85v-2a7.85,7.85,0,0,1-2.65.45,8,8,0,0,1-2.66-.45v2"/><path class="cls-7" d="M339.4,42.16a2.66,2.66,0,0,0,2.2,1.14,2.77,2.77,0,0,0,2.2-1.14"/><path class="cls-7" d="M336.67,36.85a1.14,1.14,0,0,1,2.27,0"/><path class="cls-7" d="M344.25,36.85a1.14,1.14,0,0,1,2.27,0"/><path class="cls-7" d="M331.36,40.64V31.55a10.24,10.24,0,0,1,20.47,0V40.8"/><path class="cls-7" d="M337.2,45a3.58,3.58,0,0,1-1.29.15,4.56,4.56,0,0,1-4.55-4.55"/><path class="cls-7" d="M351.83,40.64a4.56,4.56,0,0,1-4.55,4.55A6.43,6.43,0,0,1,346,45"/><path class="cls-7" d="M340.76,36c0,.15.08.37.08.53a3,3,0,1,1-6.06,0,2.52,2.52,0,0,1,.07-.76,3,3,0,0,1,3-2.28A2.94,2.94,0,0,1,340.76,36Z"/><path class="cls-7" d="M348.34,35.72a2.22,2.22,0,0,1,.08.76,3,3,0,0,1-6.06,0,1.36,1.36,0,0,1,.07-.53,3,3,0,0,1,3-2.51A3.08,3.08,0,0,1,348.34,35.72Z"/><line class="cls-7" x1="348.34" y1="35.72" x2="349.56" y2="35.72"/><line class="cls-7" x1="333.64" y1="35.72" x2="334.85" y2="35.72"/><path class="cls-7" d="M340.84,36a1.22,1.22,0,0,1,.76-.23,1.24,1.24,0,0,1,.76.23"/><path class="cls-12" d="M32.46,239.73a2.88,2.88,0,0,0-3.61-1.19c-2.25.87-1.26,3.63-1.26,3.63s-5.14-.07-4.57,5.19c.41,3.85,4.57,3.63,4.42,3.63-6.19,0,12.39,0,18.59,0a4.59,4.59,0,0,0,2.63-1A3.94,3.94,0,0,0,50,245.2c-.65-1.83-3-2.78-4.87-2.88,0,0,1.1-4.88-2.41-7a6.63,6.63,0,0,0-8.1.6A7.48,7.48,0,0,0,32.46,239.73Z"/><path class="cls-13" d="M468.41,273.54l.6-2.85c0-.2.07-.38.1-.53a2.27,2.27,0,0,0,0-.42.72.72,0,0,0-.15-.52.61.61,0,0,0-.47-.16,1.2,1.2,0,0,0-.53.14,2.73,2.73,0,0,0-.52.34,2.79,2.79,0,0,0-.44.47,2.45,2.45,0,0,0-.3.5l-.63,3h-.75l1.48-7h.75L467,269.4h0a2.45,2.45,0,0,1,.32-.33,2.29,2.29,0,0,1,.42-.31,2.25,2.25,0,0,1,.52-.24,1.74,1.74,0,0,1,.61-.1,1.15,1.15,0,0,1,.77.24,1,1,0,0,1,.28.85,4.57,4.57,0,0,1-.13,1l-.64,3Z"/><path class="cls-13" d="M474.42,271.57a6.46,6.46,0,0,0-.11.75c0,.25,0,.49,0,.71v.29a1.66,1.66,0,0,0,0,.24h-.55l-.14-.87h0a4.11,4.11,0,0,1-.29.35,3,3,0,0,1-.39.31,2.38,2.38,0,0,1-.45.23,1.7,1.7,0,0,1-.51.08c-.79,0-1.19-.52-1.19-1.55a5.85,5.85,0,0,1,.16-1.3,4.12,4.12,0,0,1,.51-1.19,3,3,0,0,1,.89-.87,2.39,2.39,0,0,1,1.31-.34,3.82,3.82,0,0,1,.69.07,5.18,5.18,0,0,1,.75.17ZM472.16,273a1.07,1.07,0,0,0,.46-.11,2.42,2.42,0,0,0,.42-.29,2.31,2.31,0,0,0,.34-.36,2.85,2.85,0,0,0,.24-.37l.56-2.7a1.84,1.84,0,0,0-.76-.14,1.28,1.28,0,0,0-.81.27,2.31,2.31,0,0,0-.59.71,3.55,3.55,0,0,0-.36,1,5.15,5.15,0,0,0-.12,1.1,1.33,1.33,0,0,0,.15.65A.51.51,0,0,0,472.16,273Z"/><path class="cls-13" d="M477.75,272.13a.73.73,0,0,0-.13-.45,1.44,1.44,0,0,0-.33-.32,4.61,4.61,0,0,0-.43-.29,3.36,3.36,0,0,1-.43-.31,1.86,1.86,0,0,1-.33-.41,1.16,1.16,0,0,1-.13-.58,1.1,1.1,0,0,1,.14-.53,1.49,1.49,0,0,1,.37-.43,1.55,1.55,0,0,1,.56-.28,2.23,2.23,0,0,1,.7-.11,3.5,3.5,0,0,1,.82.07,2,2,0,0,1,.52.2l-.25.6a2.24,2.24,0,0,0-1.09-.23,1.22,1.22,0,0,0-.69.18.57.57,0,0,0-.28.53.56.56,0,0,0,.13.37,1.9,1.9,0,0,0,.33.29l.43.29a2.24,2.24,0,0,1,.43.33,1.59,1.59,0,0,1,.33.43,1.22,1.22,0,0,1,.13.59,1.41,1.41,0,0,1-.52,1.19,2.25,2.25,0,0,1-1.41.4,3.49,3.49,0,0,1-.82-.09,2.23,2.23,0,0,1-.61-.23l.28-.63a1.76,1.76,0,0,0,.53.22,2.46,2.46,0,0,0,.67.09,1.28,1.28,0,0,0,.79-.22A.79.79,0,0,0,477.75,272.13Z"/><path class="cls-13" d="M485.94,271.57a6.46,6.46,0,0,0-.11.75c0,.25,0,.49,0,.71v.29a1.66,1.66,0,0,0,0,.24h-.55l-.14-.87h0a4.11,4.11,0,0,1-.29.35,3,3,0,0,1-.39.31,2.38,2.38,0,0,1-.45.23,1.7,1.7,0,0,1-.51.08c-.79,0-1.19-.52-1.19-1.55a5.32,5.32,0,0,1,.16-1.3,3.86,3.86,0,0,1,.51-1.19,3,3,0,0,1,.89-.87,2.39,2.39,0,0,1,1.31-.34,3.82,3.82,0,0,1,.69.07,5.18,5.18,0,0,1,.75.17ZM483.68,273a1.07,1.07,0,0,0,.46-.11,2.42,2.42,0,0,0,.42-.29,2.31,2.31,0,0,0,.34-.36,2.85,2.85,0,0,0,.24-.37l.56-2.7a1.84,1.84,0,0,0-.76-.14,1.28,1.28,0,0,0-.81.27,2.31,2.31,0,0,0-.59.71,3.55,3.55,0,0,0-.36,1,5.15,5.15,0,0,0-.12,1.1,1.33,1.33,0,0,0,.15.65A.51.51,0,0,0,483.68,273Z"/><path class="cls-13" d="M490.33,273.11a1.77,1.77,0,0,1-.35.23,3.29,3.29,0,0,1-.39.17,3.59,3.59,0,0,1-.41.11,1.69,1.69,0,0,1-.38,0,1.84,1.84,0,0,1-.8-.15,1.45,1.45,0,0,1-.5-.4,1.47,1.47,0,0,1-.25-.52,2,2,0,0,1-.07-.53,4.76,4.76,0,0,1,.23-1.52,3.69,3.69,0,0,1,.61-1.15,2.88,2.88,0,0,1,.89-.72,2.24,2.24,0,0,1,1-.25,2.16,2.16,0,0,1,.62.07,3.33,3.33,0,0,1,.45.16l-.28.62a1.15,1.15,0,0,0-.42-.15,2.35,2.35,0,0,0-.54-.06,1.18,1.18,0,0,0-.67.23,2.4,2.4,0,0,0-.57.61,3.1,3.1,0,0,0-.4.86,3.3,3.3,0,0,0-.15,1,1.45,1.45,0,0,0,.27,1,.9.9,0,0,0,.73.31,1.65,1.65,0,0,0,.63-.13,2.83,2.83,0,0,0,.53-.28Z"/><path class="cls-13" d="M494.24,273.11a1.52,1.52,0,0,1-.35.23,2.71,2.71,0,0,1-.39.17,3.59,3.59,0,0,1-.41.11,1.69,1.69,0,0,1-.38,0,1.84,1.84,0,0,1-.8-.15,1.45,1.45,0,0,1-.5-.4,1.47,1.47,0,0,1-.25-.52,2,2,0,0,1-.07-.53,4.76,4.76,0,0,1,.23-1.52,3.51,3.51,0,0,1,.62-1.15,2.74,2.74,0,0,1,.88-.72,2.24,2.24,0,0,1,1-.25,2.16,2.16,0,0,1,.62.07,3.33,3.33,0,0,1,.45.16l-.28.62a1.15,1.15,0,0,0-.42-.15,2.35,2.35,0,0,0-.54-.06,1.13,1.13,0,0,0-.66.23,2.26,2.26,0,0,0-.58.61,3.1,3.1,0,0,0-.4.86,3.3,3.3,0,0,0-.15,1,1.45,1.45,0,0,0,.27,1,.9.9,0,0,0,.73.31,1.65,1.65,0,0,0,.63-.13,2.83,2.83,0,0,0,.53-.28Z"/><path class="cls-13" d="M498.39,273.05a2.53,2.53,0,0,1-.82.46,3.2,3.2,0,0,1-1,.15,1.5,1.5,0,0,1-1.2-.46,1.82,1.82,0,0,1-.41-1.28,4.45,4.45,0,0,1,.23-1.47,3.53,3.53,0,0,1,.61-1.1,2.64,2.64,0,0,1,.85-.69,2.11,2.11,0,0,1,1-.24,1.74,1.74,0,0,1,.63.1,1.32,1.32,0,0,1,.43.27,1,1,0,0,1,.25.38,1.33,1.33,0,0,1,.08.45,1.25,1.25,0,0,1-.69,1.12,4,4,0,0,1-2,.4h-.25l-.27,0a2.7,2.7,0,0,0-.06.36c0,.11,0,.21,0,.3a1.48,1.48,0,0,0,.25.9.9.9,0,0,0,.78.34,2.38,2.38,0,0,0,.81-.14,2.19,2.19,0,0,0,.56-.31Zm-.85-4a1.35,1.35,0,0,0-1,.38,2.35,2.35,0,0,0-.62,1.12l.79,0a4.25,4.25,0,0,0,.75-.1,1.49,1.49,0,0,0,.55-.27.65.65,0,0,0,.22-.52.69.69,0,0,0,0-.2.62.62,0,0,0-.12-.19.49.49,0,0,0-.22-.14A1,1,0,0,0,497.54,269.06Z"/><path class="cls-13" d="M501.72,272.13a.73.73,0,0,0-.13-.45,1.44,1.44,0,0,0-.33-.32,4.61,4.61,0,0,0-.43-.29,3.36,3.36,0,0,1-.43-.31,1.86,1.86,0,0,1-.33-.41,1.16,1.16,0,0,1-.13-.58,1.1,1.1,0,0,1,.14-.53,1.49,1.49,0,0,1,.37-.43,1.55,1.55,0,0,1,.56-.28,2.23,2.23,0,0,1,.7-.11,3.5,3.5,0,0,1,.82.07,2,2,0,0,1,.52.2l-.25.6a2.24,2.24,0,0,0-1.09-.23,1.22,1.22,0,0,0-.69.18.57.57,0,0,0-.28.53.56.56,0,0,0,.13.37,1.9,1.9,0,0,0,.33.29l.43.29a2.24,2.24,0,0,1,.43.33,1.59,1.59,0,0,1,.33.43,1.22,1.22,0,0,1,.13.59,1.41,1.41,0,0,1-.52,1.19,2.27,2.27,0,0,1-1.41.4,3.49,3.49,0,0,1-.82-.09,2.23,2.23,0,0,1-.61-.23l.28-.63a1.81,1.81,0,0,0,.52.22,2.59,2.59,0,0,0,.68.09,1.28,1.28,0,0,0,.79-.22A.79.79,0,0,0,501.72,272.13Z"/><path class="cls-13" d="M505.7,272.13a.73.73,0,0,0-.13-.45,1.44,1.44,0,0,0-.33-.32,4.61,4.61,0,0,0-.43-.29,3.36,3.36,0,0,1-.43-.31,1.86,1.86,0,0,1-.33-.41,1.16,1.16,0,0,1-.13-.58,1.09,1.09,0,0,1,.13-.53,1.53,1.53,0,0,1,.38-.43,1.59,1.59,0,0,1,.55-.28,2.35,2.35,0,0,1,.71-.11,3.5,3.5,0,0,1,.82.07,2,2,0,0,1,.52.2l-.25.6a2.24,2.24,0,0,0-1.09-.23,1.28,1.28,0,0,0-.7.18.58.58,0,0,0-.27.53.56.56,0,0,0,.13.37,1.9,1.9,0,0,0,.33.29l.43.29a2.24,2.24,0,0,1,.43.33,1.59,1.59,0,0,1,.33.43,1.22,1.22,0,0,1,.13.59,1.42,1.42,0,0,1-.53,1.19,2.2,2.2,0,0,1-1.4.4,3.58,3.58,0,0,1-.83-.09,2.15,2.15,0,0,1-.6-.23l.28-.63a1.76,1.76,0,0,0,.53.22,2.46,2.46,0,0,0,.67.09,1.23,1.23,0,0,0,.78-.22A.77.77,0,0,0,505.7,272.13Z"/><path class="cls-6" d="M437.62,325.18a2,2,0,0,1-2-2V317.7a7.16,7.16,0,0,1,2.31-5.32,7.49,7.49,0,0,1,3.45-1.93,10.5,10.5,0,0,1-4.27-6.2l-.25-.12a4.43,4.43,0,0,1-2.48-4,4.26,4.26,0,0,1,.18-1.23,5.22,5.22,0,0,1,3-8.37,10.53,10.53,0,0,1,19.55,0,5.27,5.27,0,0,1,4,5.1,5.34,5.34,0,0,1-1,3.1,4.4,4.4,0,0,1,.21,1.36,4.47,4.47,0,0,1-2.73,4.09,10.53,10.53,0,0,1-4.29,6.22,7,7,0,0,1,3.46,2.06,7.42,7.42,0,0,1,2.18,5.18v5.48a2,2,0,0,1-2,2Z"/><path class="cls-14" d="M447.34,286a8.52,8.52,0,0,1,8.27,6.49h.26a3.26,3.26,0,0,1,3.25,3.25,3.36,3.36,0,0,1-1.53,2.75,2.4,2.4,0,0,1,.71,1.71,2.43,2.43,0,0,1-2.37,2.43l-.12.15a8.55,8.55,0,0,1-5.15,6.9v2.59h.75a5.19,5.19,0,0,1,3.86,1.65,5.43,5.43,0,0,1,1.65,3.83v5.48h-19.3V317.7a5.13,5.13,0,0,1,1.65-3.83,5.5,5.5,0,0,1,3.86-1.65h.92v-2.37h.18v-.14a8.53,8.53,0,0,1-5.36-7l-.1-.15a2.12,2.12,0,0,1-1-.24,2.41,2.41,0,0,1-1.38-2.19,2.47,2.47,0,0,1,.85-1.84l-.08-.41-.18.55a3.35,3.35,0,0,1-1.55-2.76,3.26,3.26,0,0,1,3.25-3.25h.18l.32-.4a8.53,8.53,0,0,1,8.17-6.09h0m0-4a12.61,12.61,0,0,0-11.21,6.95,7.21,7.21,0,0,0-3.7,10.44,5.51,5.51,0,0,0-.05.81,6.41,6.41,0,0,0,3,5.46,12.29,12.29,0,0,0,2.39,4.3,9.55,9.55,0,0,0-4.19,7.79v5.48a4,4,0,0,0,4,4h19.3a4,4,0,0,0,4-4V317.7a9.48,9.48,0,0,0-2.77-6.6,8.57,8.57,0,0,0-1.32-1.16,12.58,12.58,0,0,0,2.44-4.34,6.46,6.46,0,0,0,3-5.45,5.66,5.66,0,0,0-.08-1,7.16,7.16,0,0,0,.9-3.45,7.28,7.28,0,0,0-4.53-6.72,12.48,12.48,0,0,0-11.25-7Z"/><path class="cls-5" d="M437.62,324.18a1,1,0,0,1-1-1V317.7a6.13,6.13,0,0,1,2-4.57,6.55,6.55,0,0,1,4.45-1.91v-.94a9.49,9.49,0,0,1-5.08-6.79,3.56,3.56,0,0,1-.66-.25,3.45,3.45,0,0,1-1.93-3.09,3.4,3.4,0,0,1,.32-1.44,4.32,4.32,0,0,1-1.28-3,4.26,4.26,0,0,1,3.89-4.24,9.52,9.52,0,0,1,18.07,0,4.23,4.23,0,0,1,2.55,7.14,3.3,3.3,0,0,1,.37,1.54,3.46,3.46,0,0,1-2.59,3.33,9.53,9.53,0,0,1-5,6.78v1a6.18,6.18,0,0,1,4.35,2,6.47,6.47,0,0,1,1.91,4.51v5.48a1,1,0,0,1-1,1Z"/><path class="cls-6" d="M447.34,286a8.52,8.52,0,0,1,8.27,6.49h.26a3.26,3.26,0,0,1,3.25,3.25,3.36,3.36,0,0,1-1.53,2.75,2.4,2.4,0,0,1,.71,1.71,2.43,2.43,0,0,1-2.37,2.43l-.12.15a8.55,8.55,0,0,1-5.15,6.9v2.59h.75a5.19,5.19,0,0,1,3.86,1.65,5.43,5.43,0,0,1,1.65,3.83v5.48h-19.3V317.7a5.13,5.13,0,0,1,1.65-3.83,5.5,5.5,0,0,1,3.86-1.65h.92v-2.37h.18v-.14a8.53,8.53,0,0,1-5.36-7l-.1-.15a2.12,2.12,0,0,1-1-.24,2.41,2.41,0,0,1-1.38-2.19,2.47,2.47,0,0,1,.85-1.84l-.08-.41-.18.55a3.35,3.35,0,0,1-1.55-2.76,3.26,3.26,0,0,1,3.25-3.25h.18l.32-.4a8.53,8.53,0,0,1,8.17-6.09h0m0-2a10.6,10.6,0,0,0-9.77,6.6,5.22,5.22,0,0,0-3,8.37,4.26,4.26,0,0,0-.18,1.23,4.43,4.43,0,0,0,2.48,4l.25.12a10.5,10.5,0,0,0,4.27,6.2,7.55,7.55,0,0,0-3.48,2,7.14,7.14,0,0,0-2.28,5.28v5.48a2,2,0,0,0,2,2h19.3a2,2,0,0,0,2-2V317.7a7.49,7.49,0,0,0-2.21-5.22,7.1,7.1,0,0,0-3.43-2,10.5,10.5,0,0,0,4.29-6.22,4.47,4.47,0,0,0,2.73-4.09,4.4,4.4,0,0,0-.21-1.36,5.34,5.34,0,0,0,1-3.1,5.27,5.27,0,0,0-4-5.1,10.5,10.5,0,0,0-9.78-6.64Z"/><path class="cls-7" d="M444.05,309.76v2.39h-.92a5.5,5.5,0,0,0-3.86,1.65,5.19,5.19,0,0,0-1.65,3.86v5.52h19.3v-5.52a5.5,5.5,0,0,0-1.65-3.86,5.19,5.19,0,0,0-3.86-1.65h-.92v-2.39"/><path class="cls-7" d="M445.52,305.41a2.29,2.29,0,0,0,1.91,1,2.39,2.39,0,0,0,1.92-1"/><path class="cls-6" d="M450.8,299.85a.88.88,0,0,1,.81.82.81.81,0,1,1-.81-.82Z"/><circle class="cls-6" cx="444.06" cy="300.67" r="0.81"/><path class="cls-7" d="M456.92,298a2.44,2.44,0,0,1-1.05,4.63v-4.87A2.26,2.26,0,0,1,456.92,298Z"/><path class="cls-7" d="M437.76,302.34a2.43,2.43,0,0,1,1.05-4.62v4.87A2.14,2.14,0,0,1,437.76,302.34Z"/><path class="cls-7" d="M445.28,297a.81.81,0,0,1,0,1.62h-2.44a.81.81,0,0,1,0-1.62Z"/><path class="cls-7" d="M452.83,297.82a.86.86,0,0,1-.81.81h-2.43a.81.81,0,1,1,0-1.62H452A.87.87,0,0,1,452.83,297.82Z"/><path class="cls-7" d="M437,298.45a3.35,3.35,0,0,1-1.55-2.76,3.26,3.26,0,0,1,3.25-3.25H439"/><path class="cls-7" d="M457.57,298.45a3.34,3.34,0,0,0,1.55-2.76,3.26,3.26,0,0,0-3.25-3.25h-.33"/><rect class="cls-7" x="438.81" y="285.95" width="17.05" height="24.36" rx="8.13"/><path class="cls-6" d="M405.23,341.31h-1.18l-.18-.81a1.65,1.65,0,0,0-1.05-.33,1.15,1.15,0,0,0-.73.2.63.63,0,0,0-.27.52.58.58,0,0,0,.26.49,2.73,2.73,0,0,0,1,.34,4.25,4.25,0,0,1,1.79.7,1.57,1.57,0,0,1,.58,1.28,1.69,1.69,0,0,1-.76,1.43,3.28,3.28,0,0,1-2,.55,4.23,4.23,0,0,1-1.37-.22,3.37,3.37,0,0,1-1.11-.63l0-1.45h1.22l.24.84a.92.92,0,0,0,.42.2,2.62,2.62,0,0,0,.57.06,1.43,1.43,0,0,0,.81-.19.61.61,0,0,0,0-1,2.84,2.84,0,0,0-1-.37,4,4,0,0,1-1.73-.69,1.51,1.51,0,0,1-.58-1.24,1.78,1.78,0,0,1,.67-1.4,2.77,2.77,0,0,1,1.91-.59,4.73,4.73,0,0,1,1.42.2,3.17,3.17,0,0,1,1.06.52Z"/><path class="cls-6" d="M408.82,337.5v1.58H410v1.23h-1.14v3.29a.79.79,0,0,0,.16.54.54.54,0,0,0,.42.16h.31l.3-.05.15,1.26a4,4,0,0,1-.58.13,3.89,3.89,0,0,1-.62.05,1.88,1.88,0,0,1-1.39-.5,2.19,2.19,0,0,1-.48-1.57v-3.3h-1v-1.23h1V337.5Z"/><path class="cls-6" d="M414.93,345.55c0-.11-.09-.22-.12-.33a1.4,1.4,0,0,1-.08-.34,2.44,2.44,0,0,1-.76.58,2.39,2.39,0,0,1-1,.22,2.16,2.16,0,0,1-1.51-.52,1.82,1.82,0,0,1-.56-1.41,1.59,1.59,0,0,1,.73-1.4,3.82,3.82,0,0,1,2.14-.5h.89v-.63a.94.94,0,0,0-.27-.72,1.06,1.06,0,0,0-.79-.26,1.7,1.7,0,0,0-.53.07,1.24,1.24,0,0,0-.38.16l-.11.69h-1.32v-1.43a4.27,4.27,0,0,1,1.09-.54,3.94,3.94,0,0,1,1.35-.23,3.08,3.08,0,0,1,1.95.59,2,2,0,0,1,.75,1.68v2.67a2.44,2.44,0,0,0,0,.28,1,1,0,0,0,0,.25l.53.08v1Zm-1.51-1.16a1.56,1.56,0,0,0,.72-.17,1.52,1.52,0,0,0,.5-.43v-1h-.89a1.22,1.22,0,0,0-.84.26.83.83,0,0,0-.29.63.64.64,0,0,0,.21.51A.89.89,0,0,0,413.42,344.39Z"/><path class="cls-6" d="M417.36,337.28v-1H420v5.4h.39l1-1.42-.57-.07v-1.06H424v1.06l-.76.17-1.17,1.6,1.63,2.46.67.14v1h-3v-1l.36-.06-1-1.61H420v1.49l.75.18v1h-3.33v-1l.84-.18v-6.87Z"/><path class="cls-6" d="M428,345.68a2.91,2.91,0,0,1-2.24-.9,3.21,3.21,0,0,1-.84-2.28v-.24a3.57,3.57,0,0,1,.79-2.37,3,3,0,0,1,4.16-.14,3.07,3.07,0,0,1,.73,2.14v.95h-3.87v0a1.72,1.72,0,0,0,.43,1.06,1.35,1.35,0,0,0,1,.41,3.21,3.21,0,0,0,1-.12,4.24,4.24,0,0,0,.84-.37l.47,1.08a3.26,3.26,0,0,1-1,.53A4.17,4.17,0,0,1,428,345.68Zm-.16-5.37a.92.92,0,0,0-.77.37,2,2,0,0,0-.34,1l0,0h2.14v-.15a1.43,1.43,0,0,0-.26-.89A1,1,0,0,0,427.83,340.31Z"/><path class="cls-6" d="M431.31,344.51l.85-.18v-6.87l-.93-.18v-1h2.67v3.68a2.24,2.24,0,0,1,.74-.7,2.07,2.07,0,0,1,1-.25,2,2,0,0,1,1.6.68,3.14,3.14,0,0,1,.57,2.07v2.62l.84.18v1H435.3v-1l.75-.18V341.7a1.66,1.66,0,0,0-.27-1.07,1,1,0,0,0-.79-.31,1.62,1.62,0,0,0-.64.13,1.24,1.24,0,0,0-.45.37v3.51l.75.18v1h-3.34Z"/><path class="cls-6" d="M439.13,342.26a3.44,3.44,0,0,1,.81-2.37,2.82,2.82,0,0,1,2.24-.93,2.85,2.85,0,0,1,2.25.92,3.49,3.49,0,0,1,.81,2.38v.12a3.45,3.45,0,0,1-.81,2.38,3.2,3.2,0,0,1-4.49,0,3.45,3.45,0,0,1-.81-2.38Zm1.75.12a2.77,2.77,0,0,0,.31,1.42,1.19,1.19,0,0,0,2,0,2.79,2.79,0,0,0,.32-1.42v-.12a2.8,2.8,0,0,0-.32-1.41,1.19,1.19,0,0,0-2,0,2.81,2.81,0,0,0-.31,1.41Z"/><path class="cls-6" d="M445.69,337.28v-1h2.68v8.1l.84.18v1h-3.43v-1l.84-.18v-6.87Z"/><path class="cls-6" d="M454,344.76a2.2,2.2,0,0,1-.72.68,1.89,1.89,0,0,1-.95.24,2.18,2.18,0,0,1-1.86-.88,3.72,3.72,0,0,1-.66-2.3v-.13a4.15,4.15,0,0,1,.67-2.47,2.16,2.16,0,0,1,1.86-.94,1.78,1.78,0,0,1,.87.22,2.17,2.17,0,0,1,.69.6v-2.32l-.94-.18v-1h2.68v8.1l.84.18v1h-2.35Zm-2.44-2.26a2.63,2.63,0,0,0,.28,1.33,1,1,0,0,0,.93.49,1.22,1.22,0,0,0,1.13-.6V341a1.51,1.51,0,0,0-.46-.48,1.27,1.27,0,0,0-.66-.17,1,1,0,0,0-.93.57,3.3,3.3,0,0,0-.29,1.48Z"/><path class="cls-6" d="M460.12,345.68a2.89,2.89,0,0,1-2.23-.9,3.21,3.21,0,0,1-.84-2.28v-.24a3.52,3.52,0,0,1,.79-2.37,3,3,0,0,1,4.16-.14,3.06,3.06,0,0,1,.72,2.14v.95h-3.86v0a1.71,1.71,0,0,0,.42,1.06,1.37,1.37,0,0,0,1,.41,3.3,3.3,0,0,0,1-.12,4.81,4.81,0,0,0,.84-.37l.47,1.08a3.37,3.37,0,0,1-1,.53A4.23,4.23,0,0,1,460.12,345.68Zm-.15-5.37a.9.9,0,0,0-.77.37,2,2,0,0,0-.35,1l0,0H461v-.15a1.37,1.37,0,0,0-.26-.89A.92.92,0,0,0,460,340.31Z"/><path class="cls-6" d="M463.68,344.51l.83-.18v-4l-.92-.18v-1.06h2.55l.08.95a1.9,1.9,0,0,1,.58-.78,1.32,1.32,0,0,1,.84-.29l.29,0,.25.05-.19,1.59-.71,0a1.24,1.24,0,0,0-.64.15,1,1,0,0,0-.38.42v3.15l.84.18v1h-3.42Z"/><path class="cls-6" d="M478.27,339.63H477l-.23-1.2a2.4,2.4,0,0,0-.66-.25,4,4,0,0,0-.93-.11,1.76,1.76,0,0,0-1.11.31.94.94,0,0,0-.39.78.86.86,0,0,0,.41.72,5.78,5.78,0,0,0,1.42.6,5.54,5.54,0,0,1,2.18,1.06,2.18,2.18,0,0,1,.75,1.73,2.07,2.07,0,0,1-.89,1.76,3.87,3.87,0,0,1-2.33.65,5.06,5.06,0,0,1-1.87-.33,3.86,3.86,0,0,1-1.39-.91v-1.82h1.35l.19,1.24a2.24,2.24,0,0,0,.71.36,3.52,3.52,0,0,0,1,.14,1.71,1.71,0,0,0,1.09-.3.92.92,0,0,0,.37-.78,1,1,0,0,0-.35-.81,3.67,3.67,0,0,0-1.25-.57,6.92,6.92,0,0,1-2.34-1.07,2,2,0,0,1-.8-1.68,2.07,2.07,0,0,1,.9-1.73,3.72,3.72,0,0,1,2.25-.69,5.32,5.32,0,0,1,1.83.3,4.3,4.3,0,0,1,1.39.82Z"/><path class="cls-6" d="M479.08,337.9v-1h3.61v1l-.93.18v2.51h3.55v-2.51l-.94-.18v-1H488v1l-.93.18v6.25l.93.18v1h-3.61v-1l.94-.18v-2.39h-3.55v2.39l.93.18v1h-3.61v-1l.93-.18v-6.25Z"/><path class="cls-6" d="M490.6,340.46h1a1.19,1.19,0,0,0,.92-.33,1.27,1.27,0,0,0,.3-.9,1.21,1.21,0,0,0-.3-.85,1.14,1.14,0,0,0-.87-.31,1.2,1.2,0,0,0-.82.28,1,1,0,0,0-.34.76h-1.69v0a1.94,1.94,0,0,1,.78-1.68,3.09,3.09,0,0,1,2-.67,3.37,3.37,0,0,1,2.16.65,2.23,2.23,0,0,1,.8,1.84,1.84,1.84,0,0,1-.36,1.08,2.36,2.36,0,0,1-1,.8,2.17,2.17,0,0,1,1.1.79,2.06,2.06,0,0,1,.38,1.23,2.25,2.25,0,0,1-.87,1.88,3.82,3.82,0,0,1-4.31.05,2.07,2.07,0,0,1-.84-1.82v0h1.69a1.05,1.05,0,0,0,.36.83,1.46,1.46,0,0,0,1.86,0,1.16,1.16,0,0,0,.35-.91,1.3,1.3,0,0,0-.34-1,1.46,1.46,0,0,0-1-.32h-1Z"/><path class="cls-5" d="M437.62,324.18a1,1,0,0,1-1-1V317.7a6.13,6.13,0,0,1,2-4.57,6.55,6.55,0,0,1,4.45-1.91v-.94a9.49,9.49,0,0,1-5.08-6.79,3.56,3.56,0,0,1-.66-.25,3.45,3.45,0,0,1-1.93-3.09,3.4,3.4,0,0,1,.32-1.44,4.32,4.32,0,0,1-1.28-3,4.26,4.26,0,0,1,3.89-4.24,9.52,9.52,0,0,1,18.07,0,4.23,4.23,0,0,1,2.55,7.14,3.3,3.3,0,0,1,.37,1.54,3.46,3.46,0,0,1-2.59,3.33,9.53,9.53,0,0,1-5,6.78v1a6.18,6.18,0,0,1,4.35,2,6.47,6.47,0,0,1,1.91,4.51v5.48a1,1,0,0,1-1,1Z"/><path class="cls-6" d="M447.34,286a8.52,8.52,0,0,1,8.27,6.49h.26a3.26,3.26,0,0,1,3.25,3.25,3.36,3.36,0,0,1-1.53,2.75,2.4,2.4,0,0,1,.71,1.71,2.43,2.43,0,0,1-2.37,2.43l-.12.15a8.55,8.55,0,0,1-5.15,6.9v2.59h.75a5.19,5.19,0,0,1,3.86,1.65,5.43,5.43,0,0,1,1.65,3.83v5.48h-19.3V317.7a5.13,5.13,0,0,1,1.65-3.83,5.5,5.5,0,0,1,3.86-1.65h.92v-2.37h.18v-.14a8.53,8.53,0,0,1-5.36-7l-.1-.15a2.12,2.12,0,0,1-1-.24,2.41,2.41,0,0,1-1.38-2.19,2.47,2.47,0,0,1,.85-1.84l-.08-.41-.18.55a3.35,3.35,0,0,1-1.55-2.76,3.26,3.26,0,0,1,3.25-3.25h.18l.32-.4a8.53,8.53,0,0,1,8.17-6.09h0m0-2a10.6,10.6,0,0,0-9.77,6.6,5.22,5.22,0,0,0-3,8.37,4.26,4.26,0,0,0-.18,1.23,4.43,4.43,0,0,0,2.48,4l.25.12a10.5,10.5,0,0,0,4.27,6.2,7.55,7.55,0,0,0-3.48,2,7.14,7.14,0,0,0-2.28,5.28v5.48a2,2,0,0,0,2,2h19.3a2,2,0,0,0,2-2V317.7a7.49,7.49,0,0,0-2.21-5.22,7.1,7.1,0,0,0-3.43-2,10.5,10.5,0,0,0,4.29-6.22,4.47,4.47,0,0,0,2.73-4.09,4.4,4.4,0,0,0-.21-1.36,5.34,5.34,0,0,0,1-3.1,5.27,5.27,0,0,0-4-5.1,10.5,10.5,0,0,0-9.78-6.64Z"/><path class="cls-7" d="M444.05,309.76v2.39h-.92a5.5,5.5,0,0,0-3.86,1.65,5.19,5.19,0,0,0-1.65,3.86v5.52h19.3v-5.52a5.5,5.5,0,0,0-1.65-3.86,5.19,5.19,0,0,0-3.86-1.65h-.92v-2.39"/><path class="cls-7" d="M445.52,305.41a2.29,2.29,0,0,0,1.91,1,2.39,2.39,0,0,0,1.92-1"/><path class="cls-6" d="M450.8,299.85a.88.88,0,0,1,.81.82.81.81,0,1,1-.81-.82Z"/><circle class="cls-6" cx="444.06" cy="300.67" r="0.81"/><path class="cls-7" d="M456.92,298a2.44,2.44,0,0,1-1.05,4.63v-4.87A2.26,2.26,0,0,1,456.92,298Z"/><path class="cls-7" d="M437.76,302.34a2.43,2.43,0,0,1,1.05-4.62v4.87A2.14,2.14,0,0,1,437.76,302.34Z"/><path class="cls-7" d="M445.28,297a.81.81,0,0,1,0,1.62h-2.44a.81.81,0,0,1,0-1.62Z"/><path class="cls-7" d="M452.83,297.82a.86.86,0,0,1-.81.81h-2.43a.81.81,0,1,1,0-1.62H452A.87.87,0,0,1,452.83,297.82Z"/><path class="cls-7" d="M437,298.45a3.35,3.35,0,0,1-1.55-2.76,3.26,3.26,0,0,1,3.25-3.25H439"/><path class="cls-7" d="M457.57,298.45a3.34,3.34,0,0,0,1.55-2.76,3.26,3.26,0,0,0-3.25-3.25h-.33"/><rect class="cls-7" x="438.81" y="285.95" width="17.05" height="24.36" rx="8.13"/><path class="cls-6" d="M221.69,183.16a2,2,0,0,1-.72.68,1.86,1.86,0,0,1-.95.24,2.2,2.2,0,0,1-1.85-.88,3.72,3.72,0,0,1-.66-2.3v-.13a4.22,4.22,0,0,1,.66-2.47,2.14,2.14,0,0,1,1.87-.94,1.81,1.81,0,0,1,.87.21,2.28,2.28,0,0,1,.68.6v-2.31l-.93-.18v-1.06h2.68v8.1l.83.18v1h-2.35Zm-2.44-2.26a2.62,2.62,0,0,0,.29,1.33,1,1,0,0,0,.93.49,1.29,1.29,0,0,0,.66-.16,1.17,1.17,0,0,0,.46-.45v-2.74a1.25,1.25,0,0,0-.46-.48,1.23,1.23,0,0,0-.65-.17,1,1,0,0,0-.93.57,3.16,3.16,0,0,0-.3,1.48Z"/><path class="cls-6" d="M228.85,184c0-.11-.09-.22-.13-.33s-.06-.23-.08-.35a2.3,2.3,0,0,1-.76.58,2.42,2.42,0,0,1-2.53-.29,1.85,1.85,0,0,1-.56-1.41,1.6,1.6,0,0,1,.73-1.4,3.82,3.82,0,0,1,2.14-.5h.89v-.63a1,1,0,0,0-.26-.73,1.13,1.13,0,0,0-.8-.25,2.09,2.09,0,0,0-.53.06,1.35,1.35,0,0,0-.38.17l-.11.69h-1.32v-1.43a4.71,4.71,0,0,1,1.1-.55,4.14,4.14,0,0,1,1.34-.22,3.11,3.11,0,0,1,2,.59,2,2,0,0,1,.75,1.68v3a2,2,0,0,0,0,.25l.53.07v1Zm-1.51-1.17a1.41,1.41,0,0,0,.71-.17,1.24,1.24,0,0,0,.5-.42v-1h-.89a1.22,1.22,0,0,0-.84.26.81.81,0,0,0-.29.62.63.63,0,0,0,.22.52A.87.87,0,0,0,227.34,182.78Z"/><path class="cls-6" d="M233.55,175.9v1.58h1.14v1.23h-1.14V182a.74.74,0,0,0,.16.54.54.54,0,0,0,.42.16h.31l.3-.06.15,1.27a4.35,4.35,0,0,1-1.2.18,1.86,1.86,0,0,1-1.39-.5,2.2,2.2,0,0,1-.49-1.57v-3.3h-.95v-1.23h.95V175.9Z"/><path class="cls-6" d="M239.66,184a2.19,2.19,0,0,1-.12-.33,2.25,2.25,0,0,1-.09-.35,2.3,2.3,0,0,1-1.77.81,2.14,2.14,0,0,1-1.51-.52,1.85,1.85,0,0,1-.56-1.41,1.58,1.58,0,0,1,.73-1.4,3.8,3.8,0,0,1,2.14-.5h.89v-.63a1,1,0,0,0-.27-.73,1.1,1.1,0,0,0-.79-.25,2.23,2.23,0,0,0-.54.06,1.28,1.28,0,0,0-.37.17l-.12.69H236v-1.43a4.92,4.92,0,0,1,1.1-.55,4.15,4.15,0,0,1,1.35-.22,3.08,3.08,0,0,1,2,.59,2,2,0,0,1,.75,1.68v3c0,.09,0,.17,0,.25l.54.07v1Zm-1.51-1.17a1.47,1.47,0,0,0,.72-.17,1.39,1.39,0,0,0,.5-.42v-1h-.89a1.22,1.22,0,0,0-.84.26.78.78,0,0,0-.29.62.66.66,0,0,0,.21.52A.89.89,0,0,0,238.15,182.78Z"/><path class="cls-6" d="M317.41,178H316.1l-.22-1.2a2.09,2.09,0,0,0-.67-.25,3.93,3.93,0,0,0-.92-.11,1.79,1.79,0,0,0-1.11.3.94.94,0,0,0-.39.78.84.84,0,0,0,.41.73,5.5,5.5,0,0,0,1.41.6,5.59,5.59,0,0,1,2.19,1.06,2.21,2.21,0,0,1,.74,1.73,2.06,2.06,0,0,1-.88,1.76,3.89,3.89,0,0,1-2.34.65,5,5,0,0,1-1.86-.33,3.91,3.91,0,0,1-1.39-.91V181h1.35l.18,1.24a2.2,2.2,0,0,0,.72.35,3.14,3.14,0,0,0,1,.14,1.69,1.69,0,0,0,1.09-.29.94.94,0,0,0,.38-.78,1,1,0,0,0-.36-.81,3.6,3.6,0,0,0-1.24-.57,7.09,7.09,0,0,1-2.35-1.07,2,2,0,0,1-.79-1.68,2.08,2.08,0,0,1,.89-1.73,3.73,3.73,0,0,1,2.26-.69,5.32,5.32,0,0,1,1.83.3,4.23,4.23,0,0,1,1.38.81Z"/><path class="cls-6" d="M321.37,184.08a2.91,2.91,0,0,1-2.24-.9,3.21,3.21,0,0,1-.84-2.28v-.24a3.52,3.52,0,0,1,.8-2.37,2.94,2.94,0,0,1,4.15-.14,3,3,0,0,1,.73,2.14v1H320.1v0a1.67,1.67,0,0,0,.43,1,1.32,1.32,0,0,0,1,.42,3.21,3.21,0,0,0,1-.12,4.24,4.24,0,0,0,.84-.37l.47,1.08a3.31,3.31,0,0,1-1,.53A4.55,4.55,0,0,1,321.37,184.08Zm-.16-5.37a.89.89,0,0,0-.76.37,1.87,1.87,0,0,0-.35,1l0,0h2.14v-.15A1.43,1.43,0,0,0,322,179,1,1,0,0,0,321.21,178.71Z"/><path class="cls-6" d="M324.92,182.9l.84-.18v-4l-.93-.18v-1.05h2.56l.07,1a2,2,0,0,1,.59-.79,1.34,1.34,0,0,1,.83-.28l.29,0,.25.05-.18,1.59h-.72a1.22,1.22,0,0,0-.63.15.86.86,0,0,0-.38.42v3.14l.83.18v1h-3.42Z"/><path class="cls-6" d="M332.8,178.53l-.61.12.85,2.89.11.61h0l.13-.61.84-2.89-.62-.12v-1.05h2.93v1.05l-.56.09L334,184h-1.66l-1.92-5.33-.56-.09v-1.05h2.94Z"/><path class="cls-6" d="M337,182.9l.84-.18v-4l-.93-.18v-1.05h2.67v5.24l.84.18v1H337Zm2.58-7h-1.74v-1.31h1.74Z"/><path class="cls-6" d="M344,182.74a1,1,0,0,0,.75-.28,1,1,0,0,0,.28-.72h1.58l0,0a2.05,2.05,0,0,1-.74,1.65,3.1,3.1,0,0,1-4.12-.26,3.49,3.49,0,0,1-.78-2.35v-.18a3.49,3.49,0,0,1,.8-2.35,2.9,2.9,0,0,1,2.29-.92,3.9,3.9,0,0,1,1.41.24,2.71,2.71,0,0,1,1,.65l0,1.73h-1.42l-.29-1a.91.91,0,0,0-.32-.19,1.2,1.2,0,0,0-.44-.07,1.09,1.09,0,0,0-1,.54,2.79,2.79,0,0,0-.31,1.38v.18a3.11,3.11,0,0,0,.28,1.4A1,1,0,0,0,344,182.74Z"/><path class="cls-6" d="M350.52,184.08a2.92,2.92,0,0,1-2.24-.9,3.25,3.25,0,0,1-.83-2.28v-.24a3.52,3.52,0,0,1,.79-2.37,3,3,0,0,1,4.16-.14,3.06,3.06,0,0,1,.72,2.14v1h-3.86v0a1.66,1.66,0,0,0,.42,1,1.34,1.34,0,0,0,1,.42,3.3,3.3,0,0,0,1-.12,4.81,4.81,0,0,0,.84-.37l.47,1.08a3.49,3.49,0,0,1-1,.53A4.5,4.5,0,0,1,350.52,184.08Zm-.16-5.37a.9.9,0,0,0-.76.37,2,2,0,0,0-.35,1l0,0h2.14v-.15a1.43,1.43,0,0,0-.26-.89A.93.93,0,0,0,350.36,178.71Z"/><path class="cls-6" d="M363.52,178h-1.31l-.23-1.2a2.12,2.12,0,0,0-.66-.25,4,4,0,0,0-.93-.11,1.79,1.79,0,0,0-1.11.3.94.94,0,0,0-.39.78.86.86,0,0,0,.41.73,5.5,5.5,0,0,0,1.41.6,5.59,5.59,0,0,1,2.19,1.06,2.21,2.21,0,0,1,.74,1.73,2.06,2.06,0,0,1-.88,1.76,3.87,3.87,0,0,1-2.33.65,5,5,0,0,1-1.87-.33,3.91,3.91,0,0,1-1.39-.91V181h1.35l.18,1.24a2.2,2.2,0,0,0,.72.35,3.2,3.2,0,0,0,1,.14,1.73,1.73,0,0,0,1.09-.29.93.93,0,0,0,.37-.78,1,1,0,0,0-.36-.81,3.6,3.6,0,0,0-1.24-.57,7.29,7.29,0,0,1-2.35-1.07,2,2,0,0,1-.79-1.68,2.07,2.07,0,0,1,.9-1.73,3.7,3.7,0,0,1,2.25-.69,5.32,5.32,0,0,1,1.83.3,4.39,4.39,0,0,1,1.39.81Z"/><path class="cls-6" d="M364.43,184v-1.14l2.82-3a7.18,7.18,0,0,0,.86-1.18,1.94,1.94,0,0,0,.26-.9,1.31,1.31,0,0,0-.3-.89,1,1,0,0,0-.84-.35,1.06,1.06,0,0,0-.91.41A1.72,1.72,0,0,0,366,178h-1.69l0,0a2.61,2.61,0,0,1,.78-2,2.87,2.87,0,0,1,2.16-.82,3,3,0,0,1,2.12.7,2.42,2.42,0,0,1,.77,1.87,2.59,2.59,0,0,1-.43,1.45,13.76,13.76,0,0,1-1.44,1.75l-1.55,1.69v0H369l.08-.86h1.32V184Z"/><path class="cls-6" d="M311.27,197.43a1,1,0,0,0,.75-.27,1,1,0,0,0,.28-.73h1.58l0,0a2,2,0,0,1-.74,1.64,3.09,3.09,0,0,1-4.11-.26,3.45,3.45,0,0,1-.79-2.35v-.18a3.44,3.44,0,0,1,.81-2.35,2.88,2.88,0,0,1,2.29-.92,3.84,3.84,0,0,1,1.4.24,2.75,2.75,0,0,1,1,.65l0,1.73H312.4l-.28-1a1.42,1.42,0,0,0-.32-.19,1.23,1.23,0,0,0-.44-.07,1.11,1.11,0,0,0-1.05.54,2.79,2.79,0,0,0-.3,1.38v.18a3,3,0,0,0,.28,1.4A1,1,0,0,0,311.27,197.43Z"/><path class="cls-6" d="M314.69,195.35a3.44,3.44,0,0,1,.81-2.37,2.81,2.81,0,0,1,2.24-.93A2.84,2.84,0,0,1,320,193a3.49,3.49,0,0,1,.81,2.38v.12a3.45,3.45,0,0,1-.81,2.38,2.82,2.82,0,0,1-2.23.92,2.85,2.85,0,0,1-2.25-.92,3.45,3.45,0,0,1-.81-2.38Zm1.74.12a2.87,2.87,0,0,0,.31,1.42,1.09,1.09,0,0,0,1,.54,1.06,1.06,0,0,0,1-.54,2.79,2.79,0,0,0,.31-1.42v-.12a2.81,2.81,0,0,0-.31-1.41,1.09,1.09,0,0,0-1-.54,1.07,1.07,0,0,0-1,.54,2.91,2.91,0,0,0-.31,1.41Z"/><path class="cls-6" d="M325.76,197.85a2,2,0,0,1-.72.68,1.86,1.86,0,0,1-1,.24,2.16,2.16,0,0,1-1.85-.88,3.72,3.72,0,0,1-.67-2.3v-.13a4.22,4.22,0,0,1,.67-2.47,2.16,2.16,0,0,1,1.86-.94,1.72,1.72,0,0,1,.88.22,2.25,2.25,0,0,1,.68.6v-2.32l-.93-.18v-1.05h2.67v8.1l.84.18v1h-2.35Zm-2.44-2.26a2.63,2.63,0,0,0,.28,1.33,1,1,0,0,0,.93.49,1.3,1.3,0,0,0,.67-.16,1.29,1.29,0,0,0,.46-.44v-2.75a1.33,1.33,0,0,0-.46-.48,1.23,1.23,0,0,0-.65-.17,1,1,0,0,0-.94.57,3.3,3.3,0,0,0-.29,1.48Z"/><path class="cls-6" d="M331.89,198.77a2.89,2.89,0,0,1-2.23-.9,3.21,3.21,0,0,1-.84-2.28v-.24a3.52,3.52,0,0,1,.79-2.37,3,3,0,0,1,4.16-.14,3.06,3.06,0,0,1,.72,2.14v1h-3.86v0a1.67,1.67,0,0,0,.43,1.06,1.33,1.33,0,0,0,1,.41,3.26,3.26,0,0,0,1-.12,4.51,4.51,0,0,0,.84-.37l.47,1.08a3.37,3.37,0,0,1-1,.53A4.23,4.23,0,0,1,331.89,198.77Zm-.15-5.37a.9.9,0,0,0-.77.37,1.87,1.87,0,0,0-.34,1v0h2.14v-.15a1.37,1.37,0,0,0-.26-.89A.92.92,0,0,0,331.74,193.4Z"/><path class="cls-6" d="M338.21,196.3a2,2,0,0,1,.39-1.22,5.29,5.29,0,0,1,1.18-1.07,5.07,5.07,0,0,1-.6-1,2.38,2.38,0,0,1,.44-2.58,2.41,2.41,0,0,1,1.73-.62,2.14,2.14,0,0,1,1.55.59,2,2,0,0,1,.59,1.43,2.1,2.1,0,0,1-.29,1.07,3.21,3.21,0,0,1-.8.85l-.56.39,1.65,1.92a3.14,3.14,0,0,0,.33-.77,3.24,3.24,0,0,0,.12-.89h1.31a5.22,5.22,0,0,1-.21,1.52,3.57,3.57,0,0,1-.62,1.23l1.25,1.46,0,0h-1.93l-.46-.53a4.16,4.16,0,0,1-1.05.49,3.9,3.9,0,0,1-1.15.17,3,3,0,0,1-2.08-.69A2.27,2.27,0,0,1,338.21,196.3Zm2.94,1.13a2.72,2.72,0,0,0,.63-.08,3.51,3.51,0,0,0,.61-.24L340.6,195l-.12.08a1.63,1.63,0,0,0-.41.56,1.35,1.35,0,0,0-.11.55,1.21,1.21,0,0,0,.33.87A1.11,1.11,0,0,0,341.15,197.43Zm-.61-5.36a1.27,1.27,0,0,0,.12.52,3.4,3.4,0,0,0,.39.61l.51-.34a1.22,1.22,0,0,0,.46-.44,1.18,1.18,0,0,0,.11-.5.74.74,0,0,0-.22-.53.71.71,0,0,0-.57-.23.69.69,0,0,0-.59.26A1,1,0,0,0,340.54,192.07Z"/><path class="cls-6" d="M353.17,197.85a2.2,2.2,0,0,1-.72.68,1.89,1.89,0,0,1-.95.24,2.18,2.18,0,0,1-1.86-.88,3.72,3.72,0,0,1-.66-2.3v-.13a4.15,4.15,0,0,1,.67-2.47,2.16,2.16,0,0,1,1.86-.94,1.68,1.68,0,0,1,.87.22,2.17,2.17,0,0,1,.69.6v-2.32l-.94-.18v-1.05h2.68v8.1l.84.18v1H353.3Zm-2.44-2.26a2.63,2.63,0,0,0,.28,1.33,1,1,0,0,0,.93.49,1.3,1.3,0,0,0,.67-.16,1.29,1.29,0,0,0,.46-.44v-2.75a1.41,1.41,0,0,0-.46-.48,1.27,1.27,0,0,0-.66-.17,1,1,0,0,0-.93.57,3.3,3.3,0,0,0-.29,1.48Z"/><path class="cls-6" d="M360.32,198.64a2.19,2.19,0,0,1-.12-.33,2.14,2.14,0,0,1-.09-.34,2.25,2.25,0,0,1-1.77.8,2.14,2.14,0,0,1-1.51-.52,1.82,1.82,0,0,1-.56-1.41,1.59,1.59,0,0,1,.73-1.4,3.82,3.82,0,0,1,2.14-.5H360v-.63a1,1,0,0,0-.27-.73,1.1,1.1,0,0,0-.79-.25,1.81,1.81,0,0,0-.54.07,1.28,1.28,0,0,0-.37.16l-.12.69h-1.31v-1.43a4.92,4.92,0,0,1,1.1-.55,4.15,4.15,0,0,1,1.35-.22,3.08,3.08,0,0,1,1.95.59,2,2,0,0,1,.75,1.68v3a1.9,1.9,0,0,0,0,.25l.53.08v1Zm-1.51-1.16a1.59,1.59,0,0,0,.72-.17,1.52,1.52,0,0,0,.5-.43v-1h-.89a1.22,1.22,0,0,0-.84.26.8.8,0,0,0-.29.63.64.64,0,0,0,.21.51A.89.89,0,0,0,358.81,197.48Z"/><path class="cls-6" d="M365,190.59v1.58h1.13v1.23H365v3.29a.79.79,0,0,0,.15.54.57.57,0,0,0,.42.16h.32l.3,0,.15,1.26a4.35,4.35,0,0,1-.58.13,4,4,0,0,1-.62.05,1.85,1.85,0,0,1-1.39-.5,2.14,2.14,0,0,1-.49-1.57v-3.3h-1v-1.23h1v-1.58Z"/><path class="cls-6" d="M371.14,198.64c-.05-.11-.09-.22-.13-.33s-.06-.23-.08-.34a2.44,2.44,0,0,1-.76.58,2.32,2.32,0,0,1-1,.22,2.18,2.18,0,0,1-1.51-.52,1.82,1.82,0,0,1-.56-1.41,1.61,1.61,0,0,1,.73-1.4,3.82,3.82,0,0,1,2.14-.5h.89v-.63a1,1,0,0,0-.26-.73,1.13,1.13,0,0,0-.8-.25,1.7,1.7,0,0,0-.53.07,1.36,1.36,0,0,0-.38.16l-.11.69h-1.32v-1.43a4.71,4.71,0,0,1,1.1-.55,4.14,4.14,0,0,1,1.34-.22,3.11,3.11,0,0,1,2,.59,2,2,0,0,1,.75,1.68v3a2,2,0,0,0,0,.25l.53.08v1Zm-1.51-1.16a1.52,1.52,0,0,0,.71-.17,1.34,1.34,0,0,0,.5-.43v-1H370a1.22,1.22,0,0,0-.84.26.83.83,0,0,0-.29.63.64.64,0,0,0,.22.51A.87.87,0,0,0,369.63,197.48Z"/><line class="cls-15" x1="178.5" y1="178.5" x2="193.48" y2="178.5"/><polygon class="cls-6" points="188.84 184.23 187.89 183.2 192.94 178.5 187.89 173.8 188.84 172.78 195 178.5 188.84 184.23"/><path class="cls-6" d="M447.69,183.16a2,2,0,0,1-.72.68,1.86,1.86,0,0,1-1,.24,2.2,2.2,0,0,1-1.85-.88,3.72,3.72,0,0,1-.66-2.3v-.13a4.22,4.22,0,0,1,.66-2.47,2.14,2.14,0,0,1,1.87-.94,1.81,1.81,0,0,1,.87.21,2.28,2.28,0,0,1,.68.6v-2.31l-.93-.18v-1.06h2.68v8.1l.83.18v1h-2.35Zm-2.44-2.26a2.62,2.62,0,0,0,.29,1.33,1,1,0,0,0,.93.49,1.29,1.29,0,0,0,.66-.16,1.17,1.17,0,0,0,.46-.45v-2.74a1.25,1.25,0,0,0-.46-.48,1.23,1.23,0,0,0-.65-.17,1,1,0,0,0-.93.57,3.16,3.16,0,0,0-.3,1.48Z"/><path class="cls-6" d="M454.85,184c-.05-.11-.09-.22-.13-.33s-.06-.23-.08-.35a2.3,2.3,0,0,1-.76.58,2.42,2.42,0,0,1-2.53-.29,1.85,1.85,0,0,1-.56-1.41,1.6,1.6,0,0,1,.73-1.4,3.82,3.82,0,0,1,2.14-.5h.89v-.63a1,1,0,0,0-.26-.73,1.13,1.13,0,0,0-.8-.25,2.09,2.09,0,0,0-.53.06,1.35,1.35,0,0,0-.38.17l-.11.69h-1.32v-1.43a4.71,4.71,0,0,1,1.1-.55,4.14,4.14,0,0,1,1.34-.22,3.11,3.11,0,0,1,2,.59,2,2,0,0,1,.75,1.68v3a2,2,0,0,0,0,.25l.53.07v1Zm-1.51-1.17a1.41,1.41,0,0,0,.71-.17,1.24,1.24,0,0,0,.5-.42v-1h-.89a1.22,1.22,0,0,0-.84.26.81.81,0,0,0-.29.62.63.63,0,0,0,.22.52A.87.87,0,0,0,453.34,182.78Z"/><path class="cls-6" d="M459.55,175.9v1.58h1.14v1.23h-1.14V182a.74.74,0,0,0,.16.54.54.54,0,0,0,.42.16h.31l.3-.06.15,1.27a4.35,4.35,0,0,1-1.2.18,1.86,1.86,0,0,1-1.39-.5,2.2,2.2,0,0,1-.49-1.57v-3.3h-.95v-1.23h.95V175.9Z"/><path class="cls-6" d="M465.66,184a2.19,2.19,0,0,1-.12-.33.47.47,0,1,0-.84.23,2.25,2.25,0,0,1-1,.23,2.14,2.14,0,0,1-1.51-.52,1.85,1.85,0,0,1-.56-1.41,1.58,1.58,0,0,1,.73-1.4,3.8,3.8,0,0,1,2.14-.5h.89v-.63a1,1,0,0,0-.27-.73,1.1,1.1,0,0,0-.79-.25,2.23,2.23,0,0,0-.54.06,1.28,1.28,0,0,0-.37.17l-.12.69H462v-1.43a4.92,4.92,0,0,1,1.1-.55,4.15,4.15,0,0,1,1.35-.22,3.08,3.08,0,0,1,1.95.59,2,2,0,0,1,.75,1.68v3c0,.09,0,.17,0,.25l.54.07v1Zm-1.51-1.17a1.47,1.47,0,0,0,.72-.17,1.39,1.39,0,0,0,.5-.42v-1h-.89a1.22,1.22,0,0,0-.84.26.78.78,0,0,0-.29.62.66.66,0,0,0,.21.52A.89.89,0,0,0,464.15,182.78Z"/><line class="cls-15" x1="404.5" y1="178.5" x2="419.48" y2="178.5"/><polygon class="cls-6" points="414.84 184.23 413.89 183.2 418.94 178.5 413.89 173.8 414.84 172.78 421 178.5 414.84 184.23"/><line class="cls-15" x1="264.5" y1="178.5" x2="279.48" y2="178.5"/><polygon class="cls-6" points="274.84 184.23 273.89 183.2 278.94 178.5 273.89 173.8 274.84 172.78 281 178.5 274.84 184.23"/><polyline class="cls-16" points="96.75 164.86 92.23 161.57 96.75 158.27"/><polyline class="cls-16" points="106.58 158.27 111.1 161.57 106.58 164.86"/><line class="cls-16" x1="99.86" y1="166.7" x2="103.46" y2="156.28"/><path class="cls-17" d="M138.2,156.8v1.51h-1.44V156.8h1.44m-7.63,0v1.51h-1.45V156.8h1.45m3.67,7.7V166h-1.45v-1.5h1.45m-7.64,0V166h-1.44v-1.5h1.44M139,154.8h-3.08a1.18,1.18,0,0,0-1.18,1.19v3.13a1.19,1.19,0,0,0,1.18,1.19H139a1.19,1.19,0,0,0,1.18-1.19V156A1.18,1.18,0,0,0,139,154.8Zm-7.64,0h-3.07a1.19,1.19,0,0,0-1.19,1.19v3.13a1.2,1.2,0,0,0,1.19,1.19h3.07a1.19,1.19,0,0,0,1.19-1.19V156a1.19,1.19,0,0,0-1.19-1.19Zm3.67,7.7H132a1.19,1.19,0,0,0-1.19,1.18v3.14A1.19,1.19,0,0,0,132,168h3.07a1.18,1.18,0,0,0,1.19-1.18v-3.14a1.18,1.18,0,0,0-1.19-1.18Zm-7.63,0h-3.08a1.18,1.18,0,0,0-1.18,1.18v3.14a1.18,1.18,0,0,0,1.18,1.18h3.08a1.18,1.18,0,0,0,1.18-1.18v-3.14a1.18,1.18,0,0,0-1.18-1.18Z"/><path class="cls-14" d="M236.2,156.8v1.51h-1.44V156.8h1.44m-7.63,0v1.51h-1.45V156.8h1.45m3.67,7.7V166h-1.45v-1.5h1.45m-7.64,0V166h-1.44v-1.5h1.44M237,154.8h-3.08a1.18,1.18,0,0,0-1.18,1.19v3.13a1.19,1.19,0,0,0,1.18,1.19H237a1.19,1.19,0,0,0,1.18-1.19V156A1.18,1.18,0,0,0,237,154.8Zm-7.64,0h-3.07a1.19,1.19,0,0,0-1.19,1.19v3.13a1.2,1.2,0,0,0,1.19,1.19h3.07a1.19,1.19,0,0,0,1.19-1.19V156a1.19,1.19,0,0,0-1.19-1.19Zm3.67,7.7H230a1.19,1.19,0,0,0-1.19,1.18v3.14A1.19,1.19,0,0,0,230,168h3.07a1.18,1.18,0,0,0,1.19-1.18v-3.14a1.18,1.18,0,0,0-1.19-1.18Zm-7.63,0h-3.08a1.18,1.18,0,0,0-1.18,1.18v3.14a1.18,1.18,0,0,0,1.18,1.18h3.08a1.18,1.18,0,0,0,1.18-1.18v-3.14a1.18,1.18,0,0,0-1.18-1.18Z"/><path class="cls-14" d="M461.2,156.8v1.51h-1.44V156.8h1.44m-7.63,0v1.51h-1.45V156.8h1.45m3.67,7.7V166h-1.45v-1.5h1.45m-7.64,0V166h-1.44v-1.5h1.44M462,154.8h-3.08a1.18,1.18,0,0,0-1.18,1.19v3.13a1.19,1.19,0,0,0,1.18,1.19H462a1.19,1.19,0,0,0,1.18-1.19V156A1.18,1.18,0,0,0,462,154.8Zm-7.64,0h-3.07a1.19,1.19,0,0,0-1.19,1.19v3.13a1.2,1.2,0,0,0,1.19,1.19h3.07a1.19,1.19,0,0,0,1.19-1.19V156a1.19,1.19,0,0,0-1.19-1.19Zm3.67,7.7H455a1.19,1.19,0,0,0-1.19,1.18v3.14A1.19,1.19,0,0,0,455,168h3.07a1.18,1.18,0,0,0,1.19-1.18v-3.14a1.18,1.18,0,0,0-1.19-1.18Zm-7.63,0h-3.08a1.18,1.18,0,0,0-1.18,1.18v3.14a1.18,1.18,0,0,0,1.18,1.18h3.08a1.18,1.18,0,0,0,1.18-1.18v-3.14a1.18,1.18,0,0,0-1.18-1.18Z"/><polyline class="cls-18" points="320.72 164.81 316.23 161.47 320.78 158.22"/><polyline class="cls-18" points="330.61 158.32 335.1 161.66 330.54 164.91"/><line class="cls-18" x1="323.81" y1="166.68" x2="327.51" y2="156.3"/><path class="cls-11" d="M362.2,156.8v1.51h-1.44V156.8h1.44m-7.63,0v1.51h-1.45V156.8h1.45m3.67,7.7V166h-1.45v-1.5h1.45m-7.64,0V166h-1.44v-1.5h1.44M363,154.8h-3.08a1.18,1.18,0,0,0-1.18,1.19v3.13a1.19,1.19,0,0,0,1.18,1.19H363a1.19,1.19,0,0,0,1.18-1.19V156A1.18,1.18,0,0,0,363,154.8Zm-7.63,0h-3.08a1.19,1.19,0,0,0-1.19,1.19v3.13a1.2,1.2,0,0,0,1.19,1.19h3.08a1.19,1.19,0,0,0,1.18-1.19V156a1.18,1.18,0,0,0-1.18-1.19Zm3.66,7.7H356a1.19,1.19,0,0,0-1.19,1.18v3.14A1.19,1.19,0,0,0,356,168h3.07a1.18,1.18,0,0,0,1.19-1.18v-3.14a1.18,1.18,0,0,0-1.19-1.18Zm-7.63,0h-3.08a1.18,1.18,0,0,0-1.18,1.18v3.14a1.18,1.18,0,0,0,1.18,1.18h3.08a1.18,1.18,0,0,0,1.18-1.18v-3.14a1.18,1.18,0,0,0-1.18-1.18Z"/><line class="cls-19" x1="448" y1="279" x2="448" y2="223"/><rect class="cls-20" x="52" y="125" width="444" height="98" rx="4"/><line class="cls-21" x1="458.68" y1="279" x2="458.68" y2="202.52"/><polygon class="cls-13" points="464.41 207.16 463.38 208.11 458.68 203.06 453.98 208.11 452.96 207.16 458.68 201 464.41 207.16"/><polyline class="cls-21" points="230 202.52 229.9 267.63 439 268.44 438.94 279"/><polygon class="cls-13" points="224.26 207.15 225.29 208.1 230 203.06 234.69 208.12 235.72 207.17 230 201 224.26 207.15"/><line class="cls-20" x1="113.35" y1="223" x2="113.35" y2="224"/><line class="cls-22" x1="113.35" y1="225.97" x2="113.35" y2="284.02"/><line class="cls-20" x1="113.35" y1="285" x2="113.35" y2="286"/><circle class="cls-23" cx="113.77" cy="257.24" r="5.92"/><line class="cls-23" x1="117.96" y1="261.43" x2="109.59" y2="253.06"/><line class="cls-20" x1="113.35" y1="84" x2="113.35" y2="85"/><line class="cls-24" x1="113.35" y1="86.9" x2="113.35" y2="124.05"/><line class="cls-20" x1="113.35" y1="125" x2="113.35" y2="126"/><circle class="cls-23" cx="113.77" cy="97.24" r="5.92"/><line class="cls-23" x1="117.96" y1="101.43" x2="109.59" y2="93.06"/><line class="cls-20" x1="341.35" y1="84" x2="341.35" y2="85"/><line class="cls-24" x1="341.35" y1="86.9" x2="341.35" y2="124.05"/><line class="cls-20" x1="341.35" y1="125" x2="341.35" y2="126"/><circle class="cls-23" cx="341.77" cy="97.24" r="5.92"/><line class="cls-23" x1="345.96" y1="101.43" x2="337.59" y2="93.06"/><circle class="cls-23" cx="447.77" cy="257.24" r="5.92"/><line class="cls-23" x1="451.96" y1="261.43" x2="443.59" y2="253.06"/></svg>