<?xml version="1.0" encoding="utf-8"?>
<!-- Generator: Adobe Illustrator 25.2.3, SVG Export Plug-In . SVG Version: 6.00 Build 0)  -->
<svg version="1.1" id="Ebene_1" xmlns="http://www.w3.org/2000/svg" xmlns:xlink="http://www.w3.org/1999/xlink" x="0px" y="0px"
	 viewBox="0 0 538 363" style="enable-background:new 0 0 538 363;" xml:space="preserve">
<style type="text/css">
	.st0{opacity:0.6;fill:none;stroke:#635384;stroke-width:2;stroke-miterlimit:10;enable-background:new    ;}
	.st1{fill:#FFFFFF;stroke:#FFCC00;stroke-width:2;stroke-miterlimit:10;}
	.st2{fill:#FFFFFF;stroke:#3399FF;stroke-width:2;stroke-miterlimit:10;}
	.st3{fill:#FFFFFF;stroke:#990066;stroke-width:2;stroke-miterlimit:10;}
	.st4{fill:#FFFFFF;}
	.st5{fill:#330066;}
	.st6{fill:none;stroke:#330066;stroke-linecap:round;stroke-linejoin:round;}
	.st7{fill:#635384;}
	.st8{fill:#FFCC00;}
	.st9{fill:none;stroke:#330066;stroke-linejoin:round;}
	.st10{fill:#990066;}
	.st11{fill:#FFFFFF;stroke:#635384;stroke-width:2;stroke-linecap:round;stroke-linejoin:round;}
	.st12{fill:#33CC99;}
	.st13{fill:#3399FF;}
	.st14{fill:none;stroke:#330066;stroke-width:2;stroke-miterlimit:10;}
	.st15{fill:none;stroke:#FFCB00;stroke-width:2;stroke-linecap:round;stroke-linejoin:round;}
	.st16{fill:#FFCB03;}
	.st17{fill:none;stroke:#990066;stroke-width:2;stroke-linecap:round;stroke-linejoin:round;}
	.st18{fill:none;stroke:#FF6633;stroke-width:2;stroke-miterlimit:10;stroke-dasharray:2,2;}
	.st19{fill:none;stroke:#FF6633;stroke-width:2;stroke-miterlimit:10;}
	.st20{fill:none;stroke:#33CC99;stroke-width:2;stroke-miterlimit:10;}
	.st21{fill:none;stroke:#FF6633;stroke-width:2;stroke-miterlimit:10;stroke-dasharray:1.97,1.97;}
	.st22{fill:#FFFFFF;stroke:#FF6633;stroke-width:2;stroke-miterlimit:10;}
	.st23{fill:none;stroke:#FF6633;stroke-width:2;stroke-miterlimit:10;stroke-dasharray:1.9,1.9;}
	.st24{font-family:'MyriadPro-Regular';}
	.st25{font-size:12px;}
</style>
<path class="st0" d="M44,110h460c2.8,0,5,2.2,5,5v126c0,2.8-2.2,5-5,5H44c-2.8,0-5-2.2-5-5V115C39,112.2,41.2,110,44,110z"/>
<path class="st1" d="M168,213H69c-2.8,0-5-2.2-5-5v-65c0-2.8,2.2-5,5-5h99c2.8,0,5,2.2,5,5v65C173,210.8,170.8,213,168,213z"/>
<path class="st2" d="M253,213h-47c-2.8,0-5-2.2-5-5v-65c0-2.8,2.2-5,5-5h47c2.8,0,5,2.2,5,5v65C258,210.8,255.8,213,253,213z"/>
<path class="st3" d="M391,213h-99c-2.8,0-5-2.2-5-5v-65c0-2.8,2.2-5,5-5h99c2.8,0,5,2.2,5,5v65C396,210.8,393.8,213,391,213z"/>
<path class="st2" d="M479,213h-47c-2.8,0-5-2.2-5-5v-65c0-2.8,2.2-5,5-5h47c2.8,0,5,2.2,5,5v65C484,210.8,481.8,213,479,213z"/>
<path class="st4" d="M105.2,328.2c-0.6,0-1-0.4-1-1v-4.7c0-1.5,0.6-3,1.8-4c1-1,2.4-1.6,3.9-1.7v-0.3c-1.1-0.5-2.1-1.2-2.9-2
	c-1.4-1.4-2.4-3.3-2.6-5.3c-1.4-0.4-2.3-1.6-2.4-3c-1.7-0.7-2.8-2.4-2.8-4.2c0-1.4,0.6-2.6,1.7-3.5c-0.1-0.3-0.1-0.6-0.1-0.8
	c0-1.8,1.5-3.3,3.3-3.4c0,0,0,0,0.1,0h0.4c2.1-3.2,5.6-5.2,9.5-5.1c5.8,0,10.4,4.7,10.4,10.4v4.1c0.5,0.6,0.8,1.4,0.8,2.2
	c0,1.5-1,2.8-2.4,3.2c-0.4,3.1-2.4,5.8-5.3,7.1v0.4c1.4,0.1,2.8,0.7,3.7,1.7c1.1,1.1,1.7,2.5,1.7,4v4.7c0,0.6-0.4,1-1,1L105.2,328.2
	z"/>
<path class="st5" d="M113.8,290.2c5.2,0,9.4,4.2,9.4,9.4v4.3h-0.2c1.1,0.8,1.3,2.2,0.6,3.3c-0.4,0.6-1.2,1-1.9,1v-0.4
	c0,3.5-2.1,6.6-5.4,7.8v2.1h0.7c1.3,0,2.5,0.5,3.3,1.4c0.9,0.9,1.4,2.1,1.4,3.3v4.7h-16.5v-4.7c0-1.3,0.5-2.5,1.4-3.3
	c0.9-0.9,2.1-1.4,3.3-1.4h0.9v-2h-0.1c-1.1-0.4-2.2-1.1-3.1-2c-1.6-1.5-2.4-3.6-2.4-5.8v0.4c-1.3,0-2.4-1.1-2.4-2.4
	c0-0.2,0.1-0.3,0.1-0.5c-1.6-0.3-2.8-1.8-2.8-3.5c0-1.3,0.7-2.5,1.9-3.1c-0.2-0.4-0.3-0.8-0.3-1.2c0-1.3,1-2.3,2.3-2.4
	c0,0,0.1,0,0.1,0c0.3,0,0.6,0.1,0.9,0.2C106.7,292.2,110.1,290.2,113.8,290.2 M113.9,288.3c-4,0-7.7,1.9-10,5.1
	c-2.4,0-4.2,2-4.2,4.4c0,0.1,0,0.3,0,0.5c-2.1,2.2-2.1,5.7,0.1,7.8c0.4,0.3,0.8,0.6,1.2,0.9c0.3,1.4,1.2,2.5,2.5,3.1
	c0.5,2.5,2,4.8,4.1,6.3c-0.8,0.3-1.6,0.8-2.3,1.5c-1.3,1.2-2,3-2,4.8v4.7c0,1.1,0.9,2,2,2h16.5c1.1,0,2-0.9,2-2v-4.7
	c0-1.8-0.7-3.4-2-4.7c-0.6-0.7-1.4-1.2-2.3-1.5c2.1-1.5,3.5-3.8,4-6.3c1.6-0.7,2.6-2.3,2.6-4c0-0.9-0.3-1.8-0.8-2.5v-3.8
	C125.2,293.3,120.1,288.2,113.9,288.3L113.9,288.3z"/>
<path class="st5" d="M117.2,304.8c0.4,0,0.7,0.3,0.7,0.7c0,0.4-0.3,0.7-0.7,0.7s-0.7-0.3-0.7-0.7S116.8,304.8,117.2,304.8z"/>
<circle class="st5" cx="109.5" cy="305.6" r="0.7"/>
<path class="st6" d="M111.3,311.2c0.5,0.7,1.3,1.1,2.1,1.1c0.8,0,1.6-0.4,2.1-1.1"/>
<path class="st5" d="M75.3,344.3c0.3,0,0.5-0.1,0.8-0.3c0.2-0.2,0.3-0.5,0.3-0.7h1.6l0,0c0,0.6-0.2,1.3-0.7,1.7
	c-0.5,0.4-1.2,0.7-1.9,0.7c-0.8,0-1.7-0.3-2.2-0.9c-0.5-0.7-0.8-1.5-0.8-2.4v-0.2c0-0.9,0.3-1.7,0.8-2.3c0.6-0.6,1.4-1,2.3-0.9
	c0.5,0,1,0.1,1.4,0.2c0.4,0.1,0.7,0.4,1,0.7v1.7h-1.4l-0.3-1c-0.1-0.1-0.2-0.1-0.3-0.2c-0.1-0.1-0.3-0.1-0.4-0.1
	c-0.4,0-0.8,0.2-1.1,0.5c-0.2,0.4-0.3,0.9-0.3,1.4v0.2c0,0.5,0.1,1,0.3,1.4C74.5,344.2,74.9,344.4,75.3,344.3z"/>
<path class="st5" d="M78.5,337.3v-1h2.7v8.1l0.8,0.2v1h-3.4v-1l0.8-0.2v-6.9L78.5,337.3z"/>
<path class="st5" d="M82.5,342.3c0-0.9,0.3-1.7,0.8-2.4c1.2-1.2,3.2-1.2,4.5,0c0,0,0,0,0,0c0.6,0.7,0.8,1.5,0.8,2.4v0.1
	c0,0.9-0.3,1.7-0.8,2.4c-0.6,0.6-1.4,1-2.2,0.9c-0.8,0-1.7-0.3-2.2-0.9c-0.6-0.7-0.8-1.5-0.8-2.4V342.3z M84.3,342.4
	c0,0.5,0.1,1,0.3,1.4c0.4,0.6,1.1,0.7,1.6,0.4c0.1-0.1,0.3-0.2,0.4-0.4c0.2-0.4,0.3-0.9,0.3-1.4v-0.1c0-0.5-0.1-1-0.3-1.4
	c-0.2-0.4-0.6-0.6-1-0.5c-0.4,0-0.8,0.2-1,0.5c-0.2,0.4-0.3,0.9-0.3,1.4V342.4z"/>
<path class="st5" d="M93.9,344.7c-0.2,0.3-0.5,0.5-0.8,0.7c-0.3,0.2-0.7,0.3-1,0.2c-0.6,0-1.2-0.2-1.6-0.7c-0.4-0.6-0.6-1.3-0.6-2
	v-2.7l-0.7-0.2v-1.1h2.5v3.9c0,0.4,0.1,0.7,0.2,1c0.2,0.2,0.4,0.3,0.7,0.3c0.2,0,0.5,0,0.7-0.1c0.2-0.1,0.4-0.2,0.5-0.4v-3.5
	l-0.8-0.2v-1.1h2.5v5.2l0.8,0.2v1H94L93.9,344.7z"/>
<path class="st5" d="M101.2,344.8c-0.2,0.3-0.4,0.5-0.7,0.7c-0.3,0.2-0.7,0.2-1,0.2c-0.7,0-1.4-0.3-1.8-0.9
	c-0.5-0.7-0.7-1.5-0.7-2.3v-0.1c0-0.9,0.2-1.7,0.7-2.5c0.4-0.6,1.1-1,1.9-0.9c0.3,0,0.6,0.1,0.9,0.2c0.3,0.1,0.5,0.4,0.7,0.6v-2.3
	l-0.9-0.2v-1h2.7v8.1l0.8,0.2v1h-2.3L101.2,344.8z M98.8,342.5c0,0.5,0.1,0.9,0.3,1.3c0.2,0.3,0.6,0.5,0.9,0.5c0.2,0,0.5,0,0.7-0.1
	c0.2-0.1,0.3-0.3,0.5-0.5V341c-0.1-0.2-0.3-0.4-0.5-0.5c-0.2-0.1-0.4-0.2-0.7-0.2c-0.4,0-0.8,0.2-0.9,0.6c-0.2,0.5-0.3,1-0.3,1.5
	V342.5z"/>
<path class="st5" d="M107.1,340.1v-1.1h2.5l0.1,0.8c0.2-0.3,0.4-0.5,0.7-0.6c0.3-0.2,0.6-0.2,0.9-0.2c0.7,0,1.4,0.3,1.9,0.9
	c0.5,0.7,0.7,1.6,0.7,2.5v0.1c0,0.8-0.2,1.6-0.7,2.3c-0.4,0.6-1.1,0.9-1.8,0.9c-0.3,0-0.6-0.1-0.9-0.2c-0.3-0.1-0.5-0.3-0.7-0.5v1.9
	l0.8,0.2v1h-3.4v-1l0.8-0.2v-6.5L107.1,340.1z M112.1,342.4c0-0.5-0.1-1-0.3-1.5c-0.2-0.4-0.5-0.6-0.9-0.6c-0.2,0-0.5,0.1-0.7,0.2
	c-0.2,0.1-0.3,0.3-0.4,0.5v2.8c0.1,0.2,0.3,0.3,0.4,0.4c0.2,0.1,0.4,0.1,0.7,0.1c0.4,0,0.7-0.2,0.9-0.5c0.2-0.4,0.3-0.9,0.3-1.3
	L112.1,342.4z"/>
<path class="st5" d="M114.8,344.5l0.8-0.2v-4l-0.9-0.2v-1.1h2.6l0.1,1c0.1-0.3,0.3-0.6,0.6-0.8c0.2-0.2,0.5-0.3,0.8-0.3h0.3l0.2,0
	l-0.2,1.6h-0.7c-0.2,0-0.4,0-0.6,0.1c-0.2,0.1-0.3,0.2-0.4,0.4v3.1l0.8,0.2v1h-3.4V344.5z"/>
<path class="st5" d="M119.7,342.3c0-0.9,0.2-1.7,0.8-2.4c1.2-1.2,3.2-1.2,4.5,0c0,0,0,0,0,0c0.6,0.7,0.8,1.5,0.8,2.4v0.1
	c0,0.9-0.3,1.7-0.8,2.4c-1.2,1.2-3.2,1.2-4.5,0c-0.6-0.7-0.8-1.5-0.8-2.4V342.3z M121.4,342.4c0,0.5,0.1,1,0.3,1.4
	c0.2,0.4,0.6,0.6,1,0.5c0.4,0,0.8-0.2,1-0.5c0.2-0.4,0.3-0.9,0.3-1.4v-0.1c0-0.5-0.1-1-0.3-1.4c-0.4-0.6-1.1-0.7-1.6-0.4
	c-0.1,0.1-0.3,0.2-0.4,0.4c-0.2,0.4-0.3,0.9-0.3,1.4V342.4z"/>
<path class="st5" d="M129.2,340.1l-0.6,0.1l0.9,2.9l0.1,0.6l0,0l0.1-0.6l0.8-2.9l-0.6-0.1v-1.1h2.9v1.1l-0.6,0.1l-1.9,5.3h-1.7
	l-1.9-5.3l-0.6-0.1v-1.1h2.9L129.2,340.1z"/>
<path class="st5" d="M133.4,344.5l0.8-0.2v-4l-0.9-0.2v-1.1h2.7v5.2l0.8,0.2v1h-3.4V344.5z M136,337.5h-1.8v-1.3h1.8L136,337.5z"/>
<path class="st5" d="M141.6,344.8c-0.2,0.3-0.4,0.5-0.7,0.7c-0.3,0.2-0.6,0.2-0.9,0.2c-0.7,0-1.4-0.3-1.9-0.9
	c-0.5-0.7-0.7-1.5-0.7-2.3v-0.1c0-0.9,0.2-1.7,0.7-2.5c0.4-0.6,1.2-1,1.9-0.9c0.3,0,0.6,0.1,0.9,0.2c0.3,0.1,0.5,0.4,0.7,0.6v-2.3
	l-0.9-0.2v-1h2.7v8.1l0.8,0.2v1h-2.4L141.6,344.8z M139.2,342.5c0,0.5,0.1,0.9,0.3,1.3c0.2,0.3,0.6,0.5,0.9,0.5
	c0.5,0,0.9-0.2,1.1-0.6V341c-0.1-0.2-0.3-0.4-0.5-0.5c-0.2-0.1-0.4-0.2-0.7-0.2c-0.4,0-0.8,0.2-0.9,0.6c-0.2,0.5-0.3,1-0.3,1.5
	V342.5z"/>
<path class="st5" d="M147.7,345.7c-0.8,0-1.7-0.3-2.2-0.9c-0.6-0.6-0.9-1.4-0.8-2.3v-0.2c0-0.9,0.2-1.7,0.8-2.4
	c1.1-1.2,3-1.2,4.2-0.1c0.5,0.6,0.8,1.4,0.7,2.1v1h-3.9l0,0c0,0.4,0.2,0.8,0.4,1.1c0.3,0.3,0.6,0.4,1,0.4c0.3,0,0.7,0,1-0.1
	c0.3-0.1,0.6-0.2,0.8-0.4l0.5,1.1c-0.3,0.2-0.6,0.4-1,0.5C148.7,345.6,148.2,345.7,147.7,345.7z M147.6,340.3
	c-0.3,0-0.6,0.1-0.8,0.4c-0.2,0.3-0.3,0.6-0.4,1l0,0h2.1v-0.1c0-0.3-0.1-0.6-0.3-0.9C148.2,340.4,147.9,340.3,147.6,340.3z"/>
<path class="st5" d="M151.3,344.5l0.8-0.2v-4l-0.9-0.2v-1.1h2.6l0.1,1c0.1-0.3,0.3-0.6,0.6-0.8c0.2-0.2,0.5-0.3,0.8-0.3
	c0.1,0,0.2,0,0.3,0c0.1,0,0.2,0,0.3,0l-0.2,1.6h-0.7c-0.2,0-0.4,0-0.6,0.1c-0.2,0.1-0.3,0.2-0.4,0.4v3.1l0.8,0.2v1h-3.4V344.5z"/>
<path class="st5" d="M300.5,73.6h-1.2l-0.2-0.8c-0.1-0.1-0.3-0.2-0.5-0.2c-0.2-0.1-0.4-0.1-0.6-0.1c-0.3,0-0.5,0.1-0.7,0.2
	c-0.2,0.1-0.3,0.3-0.3,0.5c0,0.2,0.1,0.4,0.3,0.5c0.3,0.2,0.6,0.3,1,0.3c0.6,0.1,1.2,0.3,1.8,0.7c0.4,0.3,0.6,0.8,0.6,1.3
	c0,0.6-0.3,1.1-0.8,1.4c-0.6,0.4-1.3,0.6-2,0.6c-0.5,0-0.9-0.1-1.4-0.2c-0.4-0.1-0.8-0.3-1.1-0.6v-1.5h1.2l0.2,0.8
	c0.1,0.1,0.3,0.2,0.4,0.2c0.2,0,0.4,0.1,0.6,0.1c0.3,0,0.6,0,0.8-0.2c0.2-0.1,0.3-0.3,0.3-0.5c0-0.2-0.1-0.4-0.3-0.5
	c-0.3-0.2-0.6-0.3-1-0.4c-0.6-0.1-1.2-0.3-1.7-0.7c-0.4-0.3-0.6-0.8-0.6-1.2c0-0.5,0.2-1.1,0.7-1.4c0.5-0.4,1.2-0.6,1.9-0.6
	c0.5,0,1,0.1,1.4,0.2c0.4,0.1,0.7,0.3,1,0.5L300.5,73.6z"/>
<path class="st5" d="M304,69.8v1.6h1.1v1.2H304v3.3c0,0.2,0,0.4,0.2,0.5c0.1,0.1,0.3,0.2,0.4,0.2h0.3l0.3-0.1l0.1,1.3
	c-0.2,0.1-0.4,0.1-0.6,0.1c-0.2,0-0.4,0-0.6,0.1c-0.5,0-1-0.1-1.4-0.5c-0.4-0.4-0.5-1-0.5-1.6v-3.3h-1v-1.2h1v-1.6H304z"/>
<path class="st5" d="M310.2,77.8c-0.1-0.1-0.1-0.2-0.1-0.3c0-0.1-0.1-0.2-0.1-0.3c-0.2,0.2-0.5,0.4-0.8,0.6c-0.3,0.1-0.7,0.2-1,0.2
	c-0.6,0-1.1-0.2-1.5-0.5c-0.4-0.4-0.6-0.9-0.6-1.4c0-0.6,0.3-1.1,0.7-1.4c0.6-0.4,1.4-0.5,2.1-0.5h0.9v-0.6c0-0.3-0.1-0.5-0.3-0.7
	c-0.2-0.2-0.5-0.3-0.8-0.3c-0.2,0-0.4,0-0.5,0.1c-0.1,0-0.3,0.1-0.4,0.2l-0.1,0.7h-1.3V72c0.3-0.2,0.7-0.4,1.1-0.5
	c0.4-0.2,0.9-0.2,1.4-0.2c0.7,0,1.4,0.2,2,0.6c0.5,0.4,0.8,1,0.8,1.7v3c0,0.1,0,0.2,0,0.3l0.5,0.1v1L310.2,77.8z M308.6,76.6
	c0.3,0,0.5-0.1,0.7-0.2c0.2-0.1,0.4-0.3,0.5-0.4v-1H309c-0.3,0-0.6,0.1-0.9,0.3c-0.2,0.2-0.3,0.4-0.3,0.6c0,0.2,0.1,0.4,0.2,0.5
	C308.2,76.6,308.4,76.6,308.6,76.6z"/>
<path class="st5" d="M312.6,69.5v-1h2.7v5.4h0.4l1-1.4l-0.6-0.1v-1.1h3.2v1.1l-0.8,0.2l-1.2,1.6l1.7,2.5l0.7,0.1v1h-3v-1l0.4-0.1
	l-1-1.6h-0.8v1.5l0.8,0.2v1h-3.3v-1l0.8-0.2v-6.9L312.6,69.5z"/>
<path class="st5" d="M323.2,77.9c-0.8,0-1.6-0.3-2.2-0.9c-0.6-0.6-0.9-1.4-0.8-2.3v-0.2c0-0.9,0.2-1.7,0.8-2.4
	c1.1-1.2,3-1.2,4.2-0.1c0.5,0.6,0.8,1.4,0.7,2.1v1H322l0,0c0,0.4,0.2,0.8,0.4,1.1c0.3,0.3,0.6,0.4,1,0.4c0.3,0,0.7,0,1-0.1
	c0.3-0.1,0.6-0.2,0.8-0.4l0.5,1.1c-0.3,0.2-0.6,0.4-1,0.5C324.2,77.9,323.7,77.9,323.2,77.9z M323.1,72.6c-0.3,0-0.6,0.1-0.8,0.4
	c-0.2,0.3-0.3,0.6-0.4,1l0,0h2.1v-0.2c0-0.3-0.1-0.6-0.3-0.9C323.6,72.7,323.3,72.5,323.1,72.6z"/>
<path class="st5" d="M326.5,76.8l0.8-0.2v-6.9l-0.9-0.2v-1h2.7v3.7c0.2-0.3,0.5-0.5,0.8-0.7c0.3-0.2,0.7-0.2,1-0.2
	c0.6,0,1.2,0.2,1.6,0.7c0.4,0.6,0.6,1.3,0.5,2.1v2.6l0.8,0.2v1h-3.3v-1l0.8-0.2V74c0-0.4-0.1-0.7-0.3-1.1c-0.2-0.2-0.5-0.3-0.8-0.3
	c-0.2,0-0.4,0-0.6,0.1c-0.2,0.1-0.3,0.2-0.5,0.4v3.5l0.8,0.2v1h-3.3L326.5,76.8z"/>
<path class="st5" d="M334.4,74.5c0-0.9,0.3-1.7,0.8-2.4c1.2-1.2,3.2-1.2,4.5,0c0.6,0.7,0.8,1.5,0.8,2.4v0.1c0,0.9-0.3,1.7-0.8,2.4
	c-0.6,0.6-1.4,1-2.2,0.9c-0.8,0-1.7-0.3-2.2-0.9c-0.6-0.7-0.8-1.5-0.8-2.4V74.5z M336.1,74.6c0,0.5,0.1,1,0.3,1.4
	c0.4,0.6,1.1,0.7,1.6,0.4c0.1-0.1,0.3-0.2,0.4-0.4c0.2-0.4,0.3-0.9,0.3-1.4v-0.1c0-0.5-0.1-1-0.3-1.4c-0.2-0.4-0.6-0.6-1-0.5
	c-0.4,0-0.8,0.2-1,0.5c-0.2,0.4-0.3,0.9-0.3,1.4V74.6z"/>
<path class="st5" d="M340.9,69.5v-1h2.7v8.1l0.9,0.2v1H341v-1l0.8-0.2v-6.9L340.9,69.5z"/>
<path class="st5" d="M349.2,77c-0.2,0.3-0.4,0.5-0.7,0.7c-0.3,0.2-0.6,0.2-0.9,0.2c-0.7,0-1.4-0.3-1.9-0.9c-0.5-0.7-0.7-1.5-0.7-2.3
	v-0.1c0-0.9,0.2-1.7,0.7-2.5c0.4-0.6,1.1-1,1.9-0.9c0.3,0,0.6,0.1,0.9,0.2c0.3,0.1,0.5,0.4,0.7,0.6v-2.3l-0.9-0.2v-1h2.7v8.1
	l0.8,0.2v1h-2.4L349.2,77z M346.8,74.7c0,0.5,0.1,0.9,0.3,1.3c0.2,0.3,0.6,0.5,0.9,0.5c0.2,0,0.5,0,0.7-0.2c0.2-0.1,0.3-0.3,0.5-0.4
	v-2.7c-0.1-0.2-0.3-0.4-0.5-0.5c-0.2-0.1-0.4-0.2-0.7-0.2c-0.4,0-0.8,0.2-0.9,0.6c-0.2,0.5-0.3,1-0.3,1.5L346.8,74.7z"/>
<path class="st5" d="M355.4,77.9c-0.8,0-1.7-0.3-2.2-0.9c-0.6-0.6-0.9-1.4-0.8-2.3v-0.2c0-0.9,0.3-1.7,0.8-2.4
	c0.5-0.6,1.3-1,2.1-0.9c0.7,0,1.5,0.2,2,0.8c0.5,0.6,0.8,1.4,0.7,2.1v1h-3.9l0,0c0,0.4,0.2,0.8,0.4,1.1c0.3,0.3,0.6,0.4,1,0.4
	c0.3,0,0.7,0,1-0.1c0.3-0.1,0.6-0.2,0.8-0.4l0.5,1.1c-0.3,0.2-0.6,0.4-1,0.5C356.3,77.9,355.8,77.9,355.4,77.9z M355.2,72.6
	c-0.3,0-0.6,0.1-0.8,0.4c-0.2,0.3-0.3,0.6-0.4,1l0,0h2.1v-0.2c0-0.3-0.1-0.6-0.3-0.9C355.8,72.7,355.5,72.5,355.2,72.6z"/>
<path class="st5" d="M358.9,76.8l0.8-0.2v-4l-0.9-0.2v-1.1h2.6l0.1,1c0.1-0.3,0.3-0.6,0.6-0.8c0.2-0.2,0.5-0.3,0.8-0.3
	c0.1,0,0.2,0,0.3,0l0.3,0.1l-0.2,1.6h-0.7c-0.2,0-0.4,0-0.6,0.2c-0.2,0.1-0.3,0.2-0.4,0.4v3.2l0.8,0.2v1h-3.4V76.8z"/>
<path class="st5" d="M373.5,71.9h-1.3l-0.2-1.2c-0.2-0.1-0.4-0.2-0.7-0.2c-0.3-0.1-0.6-0.1-0.9-0.1c-0.4,0-0.8,0.1-1.1,0.3
	c-0.3,0.2-0.4,0.5-0.4,0.8c0,0.3,0.2,0.6,0.4,0.7c0.4,0.3,0.9,0.5,1.4,0.6c0.8,0.2,1.5,0.6,2.2,1.1c0.5,0.4,0.8,1.1,0.7,1.7
	c0,0.7-0.3,1.4-0.9,1.8c-0.7,0.5-1.5,0.7-2.3,0.7c-0.6,0-1.3-0.1-1.9-0.3c-0.5-0.2-1-0.5-1.4-0.9v-1.8h1.4l0.2,1.2
	c0.2,0.2,0.5,0.3,0.7,0.4c0.3,0.1,0.7,0.1,1,0.1c0.4,0,0.8-0.1,1.1-0.3c0.2-0.2,0.4-0.5,0.4-0.8c0-0.3-0.1-0.6-0.4-0.8
	c-0.4-0.3-0.8-0.5-1.2-0.6c-0.8-0.2-1.6-0.6-2.4-1.1c-0.5-0.4-0.8-1-0.8-1.7c0-0.7,0.3-1.3,0.9-1.7c0.7-0.5,1.4-0.7,2.2-0.7
	c0.6,0,1.2,0.1,1.8,0.3c0.5,0.2,1,0.5,1.4,0.8L373.5,71.9z"/>
<path class="st5" d="M374.3,70.2v-1.1h3.6v1.1l-0.9,0.2v2.5h3.5v-2.5l-0.9-0.2v-1.1h3.6v1.1l-0.9,0.2v6.2l0.9,0.2v1h-3.6v-1l0.9-0.2
	v-2.4H377v2.4l0.9,0.2v1h-3.6v-1l0.9-0.2v-6.2L374.3,70.2z"/>
<path class="st5" d="M384,77.8v-1.1l2.8-3c0.3-0.4,0.6-0.8,0.9-1.2c0.2-0.3,0.2-0.6,0.3-0.9c0-0.3-0.1-0.6-0.3-0.9
	c-0.2-0.2-0.5-0.4-0.8-0.3c-0.4,0-0.7,0.1-0.9,0.4c-0.2,0.3-0.3,0.7-0.3,1.1h-1.7l0,0c0-0.7,0.2-1.5,0.8-2c0.6-0.6,1.4-0.9,2.2-0.8
	c0.8,0,1.5,0.2,2.1,0.7c0.5,0.5,0.8,1.2,0.8,1.9c0,0.5-0.1,1-0.4,1.5c-0.4,0.6-0.9,1.2-1.4,1.7l-1.5,1.7l0,0h2.3l0.1-0.9h1.3v2.2
	L384,77.8z"/>
<path class="st7" d="M55,238.6c0.3,0,0.5-0.1,0.8-0.3c0.2-0.2,0.3-0.5,0.3-0.7h1.6l0,0c0,0.6-0.2,1.2-0.7,1.6c-1.2,1-3,0.9-4.1-0.3
	c-0.5-0.7-0.8-1.5-0.8-2.3v-0.2c0-0.9,0.2-1.7,0.8-2.4c0.6-0.6,1.4-1,2.3-0.9c0.5,0,1,0.1,1.4,0.2c0.4,0.1,0.7,0.4,1,0.7v1.7h-1.4
	l-0.3-1c-0.2-0.2-0.5-0.3-0.8-0.3c-0.4,0-0.8,0.2-1,0.5c-0.2,0.4-0.3,0.9-0.3,1.4v0.2c0,0.5,0.1,1,0.3,1.4
	C54.2,238.4,54.6,238.6,55,238.6z"/>
<path class="st7" d="M58.2,231.5v-1.1h2.7v8.1l0.8,0.2v1h-3.4v-1l0.8-0.2v-6.9L58.2,231.5z"/>
<path class="st7" d="M62.2,236.5c0-0.9,0.3-1.7,0.8-2.4c0.6-0.6,1.4-1,2.2-0.9c0.9,0,1.7,0.3,2.2,0.9c0.6,0.7,0.8,1.5,0.8,2.4v0.1
	c0,0.9-0.3,1.7-0.8,2.4c-1.2,1.2-3.2,1.2-4.5,0c-0.6-0.7-0.8-1.5-0.8-2.4L62.2,236.5z M63.9,236.6c0,0.5,0.1,1,0.3,1.4
	c0.2,0.4,0.6,0.6,1,0.5c0.4,0,0.8-0.2,1-0.5c0.2-0.4,0.3-0.9,0.3-1.4v-0.1c0-0.5-0.1-1-0.3-1.4c-0.4-0.6-1.1-0.7-1.6-0.4
	c-0.1,0.1-0.3,0.2-0.4,0.4c-0.2,0.4-0.3,0.9-0.3,1.4L63.9,236.6z"/>
<path class="st7" d="M73.6,239c-0.2,0.3-0.4,0.5-0.8,0.7c-0.3,0.2-0.7,0.3-1.1,0.2c-0.6,0-1.2-0.2-1.6-0.7c-0.4-0.6-0.6-1.3-0.6-2
	v-2.7l-0.7-0.2v-1.1h2.5v3.9c0,0.3,0,0.7,0.2,1c0.2,0.2,0.4,0.3,0.7,0.3c0.2,0,0.5,0,0.7-0.1c0.2-0.1,0.4-0.2,0.5-0.4v-3.5l-0.8-0.2
	v-1.1h2.5v5.2l0.8,0.2v1h-2.3L73.6,239z"/>
<path class="st7" d="M80.9,239c-0.2,0.3-0.4,0.5-0.7,0.7c-0.3,0.2-0.7,0.2-1,0.2c-0.7,0-1.4-0.3-1.9-0.9c-0.5-0.7-0.7-1.5-0.7-2.3
	v-0.1c0-0.9,0.2-1.7,0.7-2.5c0.4-0.6,1.1-1,1.9-0.9c0.3,0,0.6,0.1,0.9,0.2c0.3,0.1,0.5,0.4,0.7,0.6v-2.3l-0.9-0.2v-1.1h2.7v8.1
	l0.8,0.2v1H81L80.9,239z M78.4,236.7c0,0.5,0.1,0.9,0.3,1.3c0.2,0.3,0.6,0.5,0.9,0.5c0.2,0,0.5,0,0.7-0.1c0.2-0.1,0.3-0.3,0.5-0.4
	v-2.8c-0.1-0.2-0.3-0.4-0.4-0.5c-0.2-0.1-0.4-0.2-0.7-0.2c-0.4,0-0.8,0.2-0.9,0.6c-0.2,0.5-0.3,1-0.3,1.5V236.7z"/>
<path class="st5" d="M71.2,73.7H70l-0.2-0.8c-0.1-0.1-0.3-0.2-0.4-0.2c-0.2-0.1-0.4-0.1-0.6-0.1c-0.3,0-0.5,0.1-0.7,0.2
	c-0.2,0.1-0.3,0.3-0.3,0.5c0,0.2,0.1,0.4,0.3,0.5c0.3,0.2,0.6,0.3,1,0.3c0.6,0.1,1.2,0.3,1.8,0.7c0.4,0.3,0.6,0.8,0.6,1.3
	c0,0.6-0.3,1.1-0.8,1.4c-0.6,0.4-1.3,0.6-2,0.6c-0.5,0-0.9-0.1-1.4-0.2c-0.4-0.1-0.8-0.4-1.1-0.6v-1.4h1.2l0.2,0.8
	c0.1,0.1,0.3,0.2,0.4,0.2c0.2,0,0.4,0.1,0.6,0.1c0.3,0,0.6,0,0.8-0.2c0.2-0.1,0.3-0.3,0.3-0.5c0-0.2-0.1-0.4-0.3-0.5
	c-0.3-0.2-0.6-0.3-1-0.4c-0.6-0.1-1.2-0.3-1.7-0.7c-0.4-0.3-0.6-0.8-0.6-1.2c0-0.5,0.3-1,0.7-1.4c0.5-0.4,1.2-0.6,1.9-0.6
	c0.5,0,1,0.1,1.4,0.2c0.4,0.1,0.7,0.3,1,0.5L71.2,73.7z"/>
<path class="st5" d="M74.8,69.9v1.6h1.1v1.2h-1.1V76c0,0.2,0,0.4,0.2,0.5c0.1,0.1,0.3,0.2,0.4,0.2h0.3l0.3-0.1l0.2,1.3
	C75.9,78,75.7,78,75.6,78c-0.2,0-0.4,0-0.6,0c-0.5,0-1-0.1-1.4-0.5c-0.4-0.4-0.5-1-0.5-1.5v-3.3h-1v-1.2h1v-1.6H74.8z"/>
<path class="st5" d="M80.9,78c-0.1-0.1-0.1-0.2-0.1-0.3s-0.1-0.2-0.1-0.3c-0.2,0.2-0.5,0.4-0.8,0.6c-0.8,0.4-1.8,0.3-2.5-0.3
	c-0.4-0.4-0.6-0.9-0.6-1.4c0-0.6,0.3-1.1,0.7-1.4c0.6-0.4,1.4-0.5,2.1-0.5h0.9v-0.6c0-0.3-0.1-0.5-0.3-0.7c-0.2-0.2-0.5-0.3-0.8-0.2
	c-0.2,0-0.4,0-0.5,0.1c-0.1,0-0.3,0.1-0.4,0.2l-0.1,0.7h-1.3v-1.5c0.3-0.2,0.7-0.4,1.1-0.6c0.4-0.1,0.9-0.2,1.3-0.2
	c0.7,0,1.4,0.2,2,0.6c0.5,0.4,0.8,1,0.8,1.7v3c0,0.1,0,0.2,0,0.2l0.5,0.1v1L80.9,78z M79.4,76.8c0.2,0,0.5-0.1,0.7-0.2
	c0.2-0.1,0.4-0.2,0.5-0.4v-1h-0.9c-0.3,0-0.6,0.1-0.8,0.3c-0.2,0.2-0.3,0.4-0.3,0.6c0,0.2,0.1,0.4,0.2,0.5
	C79,76.8,79.2,76.8,79.4,76.8L79.4,76.8z"/>
<path class="st5" d="M83.3,69.7v-1.1H86V74h0.4l1-1.4l-0.6-0.1v-1H90v1l-0.8,0.2l-1.2,1.6l1.6,2.5l0.7,0.1v1h-3v-1l0.4-0.1l-1-1.6
	H86v1.5l0.8,0.2v1h-3.3v-1l0.8-0.2v-6.8L83.3,69.7z"/>
<path class="st5" d="M94,78.1c-0.8,0-1.7-0.3-2.2-0.9c-0.6-0.6-0.9-1.4-0.8-2.3v-0.2c0-0.9,0.2-1.7,0.8-2.4c1.1-1.2,3-1.2,4.2-0.1
	c0.5,0.6,0.8,1.4,0.7,2.1v0.9h-3.9l0,0c0,0.4,0.2,0.7,0.4,1c0.3,0.3,0.6,0.4,1,0.4c0.3,0,0.7,0,1-0.1c0.3-0.1,0.6-0.2,0.8-0.4
	l0.5,1.1c-0.3,0.2-0.6,0.4-1,0.5C95,78,94.5,78.1,94,78.1z M93.8,72.7c-0.3,0-0.6,0.1-0.8,0.4c-0.2,0.3-0.3,0.6-0.3,1l0,0h2.1v-0.2
	c0-0.3-0.1-0.6-0.3-0.9C94.4,72.8,94.1,72.7,93.8,72.7L93.8,72.7z"/>
<path class="st5" d="M97.3,76.9l0.8-0.2v-6.9l-0.9-0.2v-1.1h2.7v3.7c0.2-0.3,0.4-0.5,0.8-0.7c0.3-0.2,0.7-0.3,1-0.2
	c0.6,0,1.2,0.2,1.6,0.7c0.4,0.6,0.6,1.3,0.6,2.1v2.6l0.8,0.2v1h-3.3v-1l0.8-0.2v-2.6c0-0.4-0.1-0.8-0.3-1.1
	c-0.2-0.2-0.5-0.3-0.8-0.3c-0.2,0-0.4,0-0.6,0.1c-0.2,0.1-0.3,0.2-0.5,0.4v3.5l0.8,0.2v1h-3.3V76.9z"/>
<path class="st5" d="M105.1,74.7c0-0.9,0.3-1.7,0.8-2.4c0.6-0.6,1.4-1,2.2-0.9c0.8,0,1.7,0.3,2.2,0.9c0.6,0.7,0.8,1.5,0.8,2.4v0.1
	c0,0.9-0.3,1.7-0.8,2.4c-0.6,0.6-1.4,1-2.2,0.9c-0.8,0-1.7-0.3-2.2-0.9c-0.6-0.7-0.8-1.5-0.8-2.4L105.1,74.7z M106.8,74.8
	c0,0.5,0.1,1,0.3,1.4c0.2,0.4,0.6,0.6,1,0.5c0.4,0,0.8-0.2,1-0.5c0.2-0.4,0.3-0.9,0.3-1.4v-0.1c0-0.5-0.1-1-0.3-1.4
	c-0.2-0.4-0.6-0.6-1-0.5c-0.4,0-0.8,0.2-1,0.5c-0.2,0.4-0.3,0.9-0.3,1.4V74.8z"/>
<path class="st5" d="M111.7,69.7v-1.1h2.7v8.1l0.8,0.2v1h-3.4v-1l0.8-0.2v-6.9L111.7,69.7z"/>
<path class="st5" d="M120,77.2c-0.2,0.3-0.4,0.5-0.7,0.7c-0.3,0.2-0.7,0.3-1,0.2c-0.7,0-1.4-0.3-1.8-0.9c-0.5-0.7-0.7-1.5-0.7-2.3
	v-0.1c0-0.9,0.2-1.7,0.7-2.5c0.4-0.6,1.1-1,1.9-0.9c0.3,0,0.6,0.1,0.9,0.2c0.3,0.2,0.5,0.4,0.7,0.6v-2.3l-0.9-0.2v-1.1h2.7v8.1
	l0.8,0.2v1h-2.3L120,77.2z M117.6,74.9c0,0.5,0.1,0.9,0.3,1.3c0.2,0.3,0.6,0.5,0.9,0.5c0.2,0,0.5,0,0.7-0.2c0.2-0.1,0.4-0.3,0.5-0.4
	v-2.7c-0.1-0.2-0.3-0.4-0.5-0.5c-0.2-0.1-0.4-0.2-0.7-0.2c-0.4,0-0.8,0.2-0.9,0.6c-0.2,0.5-0.3,1-0.3,1.5V74.9z"/>
<path class="st5" d="M126.1,78.1c-0.8,0-1.7-0.3-2.2-0.9c-0.6-0.6-0.9-1.4-0.8-2.3v-0.2c0-0.9,0.3-1.7,0.8-2.4
	c1.1-1.2,3-1.2,4.2-0.1c0.5,0.6,0.8,1.4,0.7,2.1v0.9h-3.9l0,0c0,0.4,0.2,0.7,0.4,1c0.3,0.3,0.6,0.4,1,0.4c0.3,0,0.7,0,1-0.1
	c0.3-0.1,0.6-0.2,0.8-0.4l0.5,1.1c-0.3,0.2-0.6,0.4-1,0.5C127.1,78,126.6,78.1,126.1,78.1z M125.9,72.7c-0.3,0-0.6,0.1-0.8,0.4
	c-0.2,0.3-0.3,0.6-0.3,1l0,0h2.2v-0.2c0-0.3-0.1-0.6-0.3-0.9C126.5,72.8,126.2,72.7,125.9,72.7z"/>
<path class="st5" d="M129.6,76.9l0.8-0.2v-4l-0.9-0.2v-1h2.6l0.1,1c0.1-0.3,0.3-0.6,0.6-0.8c0.2-0.2,0.5-0.3,0.8-0.3h0.3l0.2,0.1
	L134,73h-0.7c-0.2,0-0.4,0-0.6,0.2c-0.2,0.1-0.3,0.2-0.4,0.4v3.1l0.8,0.2v1h-3.4L129.6,76.9z"/>
<path class="st5" d="M144.2,72h-1.3l-0.2-1.2c-0.2-0.1-0.4-0.2-0.7-0.2c-0.3-0.1-0.6-0.1-0.9-0.1c-0.4,0-0.8,0.1-1.1,0.3
	c-0.3,0.2-0.4,0.5-0.4,0.8c0,0.3,0.2,0.6,0.4,0.7c0.4,0.3,0.9,0.5,1.4,0.6c0.8,0.2,1.5,0.6,2.2,1.1c0.5,0.4,0.8,1.1,0.7,1.7
	c0,0.7-0.3,1.4-0.9,1.8c-0.7,0.5-1.5,0.7-2.3,0.7c-0.6,0-1.3-0.1-1.9-0.3c-0.5-0.2-1-0.5-1.4-0.9V75h1.4l0.2,1.2
	c0.2,0.2,0.5,0.3,0.7,0.3c0.3,0.1,0.7,0.1,1,0.1c0.4,0,0.8-0.1,1.1-0.3c0.2-0.2,0.4-0.5,0.4-0.8c0-0.3-0.1-0.6-0.4-0.8
	c-0.4-0.3-0.8-0.4-1.3-0.5c-0.8-0.2-1.6-0.6-2.4-1.1c-0.5-0.4-0.8-1-0.8-1.7c0-0.7,0.3-1.3,0.9-1.7c0.7-0.5,1.4-0.7,2.2-0.7
	c0.6,0,1.2,0.1,1.8,0.3c0.5,0.2,1,0.5,1.4,0.8L144.2,72z"/>
<path class="st5" d="M145.1,70.3v-1h3.6v1l-0.9,0.2V73h3.6v-2.5l-0.9-0.2v-1h3.6v1l-0.9,0.2v6.2l0.9,0.2v1h-3.6v-1l0.9-0.2v-2.4
	h-3.6v2.4l0.9,0.2v1h-3.6v-1l0.9-0.2v-6.2L145.1,70.3z"/>
<path class="st5" d="M154.7,76.9l1.5-0.2v-5.9h-1.5v-1l3.2-0.6v7.5l1.5,0.2v1h-4.7V76.9z"/>
<path class="st5" d="M95.1,178h-1.3l-0.2-1.2c-0.2-0.1-0.4-0.2-0.7-0.2c-0.3-0.1-0.6-0.1-0.9-0.1c-0.4,0-0.8,0.1-1.1,0.3
	c-0.3,0.2-0.4,0.5-0.4,0.8c0,0.3,0.2,0.6,0.4,0.7c0.4,0.3,0.9,0.5,1.4,0.6c0.8,0.2,1.5,0.6,2.2,1.1c0.5,0.4,0.8,1.1,0.7,1.7
	c0,0.7-0.3,1.4-0.9,1.8c-0.7,0.5-1.5,0.7-2.3,0.6c-0.6,0-1.3-0.1-1.9-0.3c-0.5-0.2-1-0.5-1.4-0.9V181h1.4l0.2,1.2
	c0.2,0.2,0.5,0.3,0.7,0.4c0.3,0.1,0.7,0.1,1,0.1c0.4,0,0.8-0.1,1.1-0.3c0.2-0.2,0.4-0.5,0.4-0.8c0-0.3-0.1-0.6-0.4-0.8
	c-0.4-0.3-0.8-0.5-1.2-0.6c-0.8-0.2-1.6-0.6-2.3-1.1c-0.5-0.4-0.8-1-0.8-1.7c0-0.7,0.3-1.3,0.9-1.7c0.7-0.5,1.5-0.7,2.3-0.7
	c0.6,0,1.2,0.1,1.8,0.3c0.5,0.2,1,0.5,1.4,0.8V178z"/>
<path class="st5" d="M99.1,184.1c-0.8,0-1.7-0.3-2.2-0.9c-0.6-0.6-0.8-1.4-0.8-2.3v-0.2c0-0.9,0.2-1.7,0.8-2.4
	c1.1-1.2,3-1.2,4.2-0.1c0.5,0.6,0.8,1.4,0.7,2.1v1h-3.9l0,0c0,0.4,0.2,0.7,0.4,1c0.3,0.3,0.6,0.4,1,0.4c0.3,0,0.7,0,1-0.1
	c0.3-0.1,0.6-0.2,0.8-0.4l0.5,1.1c-0.3,0.2-0.6,0.4-1,0.5C100,184,99.6,184.1,99.1,184.1z M98.9,178.7c-0.3,0-0.6,0.1-0.8,0.4
	c-0.2,0.3-0.3,0.6-0.3,1l0,0h2.1v-0.1c0-0.3-0.1-0.6-0.3-0.9C99.5,178.8,99.2,178.7,98.9,178.7z"/>
<path class="st5" d="M102.6,182.9l0.8-0.2v-4l-0.9-0.2v-1.1h2.6l0.1,1c0.1-0.3,0.3-0.6,0.6-0.8c0.2-0.2,0.5-0.3,0.8-0.3h0.3l0.2,0.1
	l-0.2,1.6h-0.7c-0.2,0-0.4,0-0.6,0.1c-0.2,0.1-0.3,0.2-0.4,0.4v3.1l0.8,0.2v1h-3.4V182.9z"/>
<path class="st5" d="M110.5,178.5l-0.6,0.1l0.9,2.9l0.1,0.6l0,0l0.1-0.6l0.8-2.9l-0.6-0.1v-1.1h2.9v1.1l-0.6,0.1l-1.9,5.4H110
	l-1.9-5.3l-0.6-0.1v-1.1h2.9L110.5,178.5z"/>
<path class="st5" d="M114.7,182.9l0.8-0.2v-4l-0.9-0.2v-1.1h2.7v5.2l0.8,0.2v1h-3.4L114.7,182.9z M117.2,175.9h-1.7v-1.3h1.7V175.9z
	"/>
<path class="st5" d="M121.7,182.7c0.3,0,0.5-0.1,0.8-0.3c0.2-0.2,0.3-0.5,0.3-0.7h1.6l0,0c0,0.6-0.2,1.2-0.7,1.6
	c-1.2,1-3,0.9-4.1-0.3c-0.5-0.7-0.8-1.5-0.8-2.4v-0.2c0-0.9,0.3-1.7,0.8-2.4c0.6-0.6,1.4-1,2.3-0.9c0.5,0,1,0.1,1.4,0.2
	c0.4,0.1,0.7,0.4,1,0.6v1.7h-1.4l-0.3-1c-0.1-0.1-0.2-0.1-0.3-0.2c-0.1-0.1-0.3-0.1-0.4-0.1c-0.4,0-0.8,0.2-1,0.5
	c-0.2,0.4-0.3,0.9-0.3,1.4v0.2c0,0.5,0.1,1,0.3,1.4C120.9,182.6,121.3,182.8,121.7,182.7z"/>
<path class="st5" d="M128.2,184.1c-0.8,0-1.7-0.3-2.2-0.9c-0.6-0.6-0.9-1.4-0.8-2.3v-0.2c0-0.9,0.2-1.7,0.8-2.4
	c1.1-1.2,3-1.2,4.2-0.1c0.5,0.6,0.8,1.4,0.7,2.1v1h-3.9l0,0c0,0.4,0.2,0.7,0.4,1c0.3,0.3,0.6,0.4,1,0.4c0.3,0,0.7,0,1-0.1
	c0.3-0.1,0.6-0.2,0.8-0.4l0.5,1.1c-0.3,0.2-0.6,0.4-1,0.5C129.2,184,128.7,184.1,128.2,184.1z M128,178.7c-0.3,0-0.6,0.1-0.8,0.4
	c-0.2,0.3-0.3,0.6-0.3,1l0,0h2.1v-0.1c0-0.3-0.1-0.6-0.3-0.9C128.6,178.8,128.3,178.7,128,178.7L128,178.7z"/>
<path class="st5" d="M141.2,178h-1.3l-0.2-1.2c-0.2-0.1-0.4-0.2-0.7-0.2c-0.3-0.1-0.6-0.1-0.9-0.1c-0.4,0-0.8,0.1-1.1,0.3
	c-0.3,0.2-0.4,0.5-0.4,0.8c0,0.3,0.2,0.6,0.4,0.7c0.4,0.3,0.9,0.5,1.4,0.6c0.8,0.2,1.5,0.6,2.2,1.1c0.5,0.4,0.8,1.1,0.7,1.7
	c0,0.7-0.3,1.4-0.9,1.8c-0.7,0.5-1.5,0.7-2.3,0.6c-0.6,0-1.3-0.1-1.9-0.3c-0.5-0.2-1-0.5-1.4-0.9V181h1.4l0.2,1.2
	c0.2,0.2,0.5,0.3,0.7,0.4c0.3,0.1,0.7,0.1,1,0.1c0.4,0,0.8-0.1,1.1-0.3c0.2-0.2,0.4-0.5,0.4-0.8c0-0.3-0.1-0.6-0.4-0.8
	c-0.4-0.3-0.8-0.5-1.2-0.6c-0.8-0.2-1.6-0.6-2.4-1.1c-0.5-0.4-0.8-1-0.8-1.7c0-0.7,0.3-1.3,0.9-1.7c0.7-0.5,1.4-0.7,2.2-0.7
	c0.6,0,1.2,0.1,1.8,0.3c0.5,0.2,1,0.5,1.4,0.8L141.2,178z"/>
<path class="st5" d="M142.1,182.9l1.5-0.2v-5.9H142v-1l3.2-0.6v7.5l1.5,0.2v1H142L142.1,182.9z"/>
<path class="st5" d="M88.3,197.4c0.3,0,0.5-0.1,0.8-0.3c0.2-0.2,0.3-0.5,0.3-0.7h1.6l0,0c0,0.6-0.2,1.2-0.7,1.6
	c-1.2,1-3,0.9-4.1-0.3c-0.5-0.7-0.8-1.5-0.8-2.4v-0.2c0-0.9,0.3-1.7,0.8-2.4c0.6-0.6,1.4-1,2.3-0.9c0.5,0,1,0.1,1.4,0.2
	c0.4,0.1,0.7,0.4,1,0.6v1.7h-1.3l-0.3-1c-0.1-0.1-0.2-0.1-0.3-0.2c-0.1,0-0.3-0.1-0.4-0.1c-0.4,0-0.8,0.2-1,0.5
	c-0.2,0.4-0.3,0.9-0.3,1.4v0.2c0,0.5,0.1,1,0.3,1.4C87.5,197.2,87.9,197.4,88.3,197.4z"/>
<path class="st5" d="M91.7,195.4c0-0.9,0.3-1.7,0.8-2.4c0.6-0.6,1.4-1,2.2-0.9c0.9,0,1.7,0.3,2.3,0.9c0.6,0.7,0.8,1.5,0.8,2.4v0.1
	c0,0.9-0.3,1.7-0.8,2.4c-0.6,0.6-1.4,1-2.2,0.9c-0.8,0-1.7-0.3-2.2-0.9c-0.6-0.7-0.8-1.5-0.8-2.4L91.7,195.4z M93.4,195.5
	c0,0.5,0.1,1,0.3,1.4c0.2,0.4,0.6,0.6,1,0.5c0.4,0,0.8-0.2,1-0.5c0.2-0.4,0.3-0.9,0.3-1.4v-0.1c0-0.5-0.1-1-0.3-1.4
	c-0.2-0.4-0.6-0.6-1-0.5c-0.4,0-0.8,0.2-1,0.5c-0.2,0.4-0.3,0.9-0.3,1.4V195.5z"/>
<path class="st5" d="M102.8,197.9c-0.2,0.3-0.4,0.5-0.7,0.7c-0.3,0.2-0.7,0.3-1,0.2c-0.7,0-1.4-0.3-1.8-0.9
	c-0.5-0.7-0.7-1.5-0.7-2.3v-0.1c0-0.9,0.2-1.7,0.7-2.5c0.4-0.6,1.1-1,1.9-0.9c0.3,0,0.6,0.1,0.9,0.2c0.3,0.2,0.5,0.4,0.7,0.6v-2.3
	l-0.9-0.2v-1.1h2.7v8.1l0.8,0.2v1h-2.3L102.8,197.9z M100.3,195.6c0,0.5,0.1,0.9,0.3,1.3c0.2,0.3,0.6,0.5,0.9,0.5
	c0.2,0,0.5,0,0.7-0.2c0.2-0.1,0.3-0.3,0.5-0.4v-2.8c-0.1-0.2-0.3-0.4-0.5-0.5c-0.2-0.1-0.4-0.2-0.7-0.2c-0.4,0-0.8,0.2-0.9,0.6
	c-0.2,0.5-0.3,1-0.3,1.5L100.3,195.6z"/>
<path class="st5" d="M108.9,198.8c-0.8,0-1.7-0.3-2.2-0.9c-0.6-0.6-0.9-1.4-0.8-2.3v-0.2c0-0.9,0.2-1.7,0.8-2.4
	c1.1-1.2,3-1.2,4.2-0.1c0.5,0.6,0.8,1.4,0.7,2.1v1h-3.9l0,0c0,0.4,0.2,0.8,0.4,1.1c0.3,0.3,0.6,0.4,1,0.4c0.3,0,0.7,0,1-0.1
	c0.3-0.1,0.6-0.2,0.8-0.4l0.5,1.1c-0.3,0.2-0.6,0.4-1,0.5C109.9,198.7,109.4,198.8,108.9,198.8z M108.7,193.4
	c-0.3,0-0.6,0.1-0.8,0.4c-0.2,0.3-0.3,0.6-0.3,1l0,0h2.1v-0.1c0-0.3-0.1-0.6-0.3-0.9C109.3,193.5,109,193.4,108.7,193.4L108.7,193.4
	z"/>
<path class="st5" d="M115.2,196.3c0-0.4,0.1-0.9,0.4-1.2c0.3-0.4,0.7-0.8,1.2-1.1c-0.2-0.3-0.4-0.6-0.6-1c-0.4-0.9-0.2-1.9,0.4-2.6
	c0.5-0.4,1.1-0.6,1.7-0.6c0.6,0,1.1,0.2,1.6,0.6c0.4,0.4,0.6,0.9,0.6,1.4c0,0.4-0.1,0.7-0.3,1.1c-0.2,0.3-0.5,0.6-0.8,0.9l-0.6,0.4
	l1.7,1.9c0.1-0.2,0.3-0.5,0.3-0.8c0.1-0.3,0.1-0.6,0.1-0.9h1.3c0,0.5-0.1,1-0.2,1.5c-0.1,0.4-0.3,0.9-0.6,1.2l1.2,1.5l0,0h-1.9
	l-0.5-0.5c-0.3,0.2-0.7,0.4-1.1,0.5c-0.4,0.1-0.8,0.2-1.2,0.2c-0.8,0-1.5-0.2-2.1-0.7C115.5,197.6,115.2,197,115.2,196.3z
	 M118.2,197.4c0.2,0,0.4,0,0.6-0.1c0.2-0.1,0.4-0.1,0.6-0.2l-1.8-2.1l-0.1,0.1c-0.2,0.2-0.3,0.3-0.4,0.6c-0.1,0.2-0.1,0.4-0.1,0.6
	c0,0.3,0.1,0.6,0.3,0.9C117.5,197.3,117.8,197.4,118.2,197.4L118.2,197.4z M117.5,192.1c0,0.2,0,0.4,0.1,0.5
	c0.1,0.2,0.2,0.4,0.4,0.6l0.5-0.3c0.2-0.1,0.3-0.3,0.5-0.4c0.1-0.2,0.1-0.3,0.1-0.5c0-0.2-0.1-0.4-0.2-0.5c-0.1-0.2-0.4-0.2-0.6-0.2
	c-0.2,0-0.4,0.1-0.6,0.3C117.6,191.6,117.5,191.8,117.5,192.1z"/>
<path class="st5" d="M130.2,197.9c-0.2,0.3-0.4,0.5-0.7,0.7c-0.3,0.2-0.6,0.2-0.9,0.2c-0.7,0-1.4-0.3-1.9-0.9
	c-0.5-0.7-0.7-1.5-0.7-2.3v-0.1c0-0.9,0.2-1.7,0.7-2.5c0.4-0.6,1.1-1,1.9-0.9c0.3,0,0.6,0.1,0.9,0.2c0.3,0.1,0.5,0.4,0.7,0.6v-2.3
	l-0.9-0.2v-1.1h2.7v8.1l0.8,0.2v1h-2.3L130.2,197.9z M127.7,195.6c0,0.5,0.1,0.9,0.3,1.3c0.2,0.3,0.6,0.5,0.9,0.5
	c0.2,0,0.5,0,0.7-0.2c0.2-0.1,0.3-0.3,0.5-0.4v-2.8c-0.1-0.2-0.3-0.4-0.5-0.5c-0.2-0.1-0.4-0.2-0.7-0.2c-0.4,0-0.8,0.2-0.9,0.6
	c-0.2,0.5-0.3,1-0.3,1.5L127.7,195.6z"/>
<path class="st5" d="M137.3,198.6c0-0.1-0.1-0.2-0.1-0.3c0-0.1-0.1-0.2-0.1-0.3c-0.4,0.5-1.1,0.8-1.8,0.8c-0.6,0-1.1-0.2-1.5-0.5
	c-0.4-0.4-0.6-0.9-0.6-1.4c0-0.6,0.3-1.1,0.7-1.4c0.6-0.4,1.4-0.5,2.1-0.5h0.9v-0.6c0-0.3-0.1-0.5-0.3-0.7c-0.2-0.2-0.5-0.3-0.8-0.2
	c-0.2,0-0.4,0-0.5,0.1c-0.1,0-0.3,0.1-0.4,0.2l-0.1,0.7h-1.3v-1.4c0.3-0.2,0.7-0.4,1.1-0.6c0.4-0.1,0.9-0.2,1.4-0.2
	c0.7,0,1.4,0.2,1.9,0.6c0.5,0.4,0.8,1,0.8,1.7v3c0,0.1,0,0.2,0,0.2l0.5,0.1v1L137.3,198.6z M135.8,197.5c0.3,0,0.5-0.1,0.7-0.2
	c0.2-0.1,0.4-0.3,0.5-0.4v-1h-0.9c-0.3,0-0.6,0.1-0.8,0.3c-0.2,0.2-0.3,0.4-0.3,0.6c0,0.2,0.1,0.4,0.2,0.5
	C135.4,197.4,135.6,197.5,135.8,197.5L135.8,197.5z"/>
<path class="st5" d="M142,190.6v1.6h1.1v1.2H142v3.3c0,0.2,0,0.4,0.1,0.5c0.1,0.1,0.3,0.2,0.4,0.2h0.3h0.3l0.1,1.3
	c-0.2,0.1-0.4,0.1-0.6,0.1c-0.2,0-0.4,0-0.6,0.1c-0.5,0-1-0.1-1.4-0.5c-0.4-0.4-0.5-1-0.5-1.6v-3.3h-0.9v-1.2h0.9v-1.6L142,190.6z"
	/>
<path class="st5" d="M148.1,198.6c0-0.1-0.1-0.2-0.1-0.3s-0.1-0.2-0.1-0.3c-0.2,0.2-0.5,0.4-0.8,0.6c-0.3,0.1-0.7,0.2-1,0.2
	c-0.6,0-1.1-0.2-1.5-0.5c-0.4-0.4-0.6-0.9-0.6-1.4c0-0.6,0.3-1.1,0.7-1.4c0.6-0.4,1.4-0.5,2.1-0.5h0.9v-0.6c0-0.3-0.1-0.5-0.3-0.7
	c-0.2-0.2-0.5-0.3-0.8-0.2c-0.2,0-0.4,0-0.5,0.1c-0.1,0-0.3,0.1-0.4,0.2l-0.1,0.7h-1.3v-1.4c0.3-0.2,0.7-0.4,1.1-0.6
	c0.4-0.1,0.9-0.2,1.3-0.2c0.7,0,1.4,0.2,2,0.6c0.5,0.4,0.8,1,0.8,1.7v3c0,0.1,0,0.2,0,0.2l0.5,0.1v1L148.1,198.6z M146.6,197.5
	c0.2,0,0.5-0.1,0.7-0.2c0.2-0.1,0.4-0.2,0.5-0.4v-1H147c-0.3,0-0.6,0.1-0.8,0.3c-0.2,0.2-0.3,0.4-0.3,0.6c0,0.2,0.1,0.4,0.2,0.5
	C146.2,197.4,146.4,197.5,146.6,197.5z"/>
<line class="st6" x1="105.5" y1="304.9" x2="106.7" y2="304.9"/>
<path class="st6" d="M112.7,305.2c0.2-0.2,0.5-0.3,0.8-0.3c0.3,0,0.6,0.1,0.8,0.3"/>
<path class="st6" d="M116.2,317.8h0.8c1.3,0,2.5,0.5,3.3,1.4c0.9,0.9,1.4,2.1,1.4,3.3v4.7h-16.5v-4.7c0-1.3,0.5-2.5,1.4-3.3
	c0.9-0.9,2.1-1.4,3.3-1.4h0.8"/>
<path class="st6" d="M110.7,317.8v-2"/>
<path class="st6" d="M116.2,315.7v2"/>
<path class="st6" d="M105.2,303.6c-1.1,0-2.1,0.8-2.3,1.9c0,0.2-0.1,0.3-0.1,0.5c0,1.3,1.1,2.4,2.4,2.4v-0.4"/>
<path class="st6" d="M122.2,308.5c1.1,0,2.1-0.8,2.3-1.9c0-0.1,0.1-0.3,0.1-0.5c0-1.3-1.1-2.4-2.4-2.4"/>
<path class="st6" d="M102.9,305.5c-1.6-0.3-2.8-1.8-2.8-3.5c0-1.3,0.7-2.5,1.9-3.1c-0.2-0.4-0.3-0.8-0.3-1.2c0-1.3,1-2.3,2.3-2.4
	c0,0,0.1,0,0.1,0c0.3,0,0.6,0.1,0.9,0.2c1.8-3.3,5.3-5.3,9-5.3c5.2,0,9.4,4.2,9.4,9.4v4.3"/>
<path class="st6" d="M116.2,297.7c0.1,3.1-4.6,3.5-5.6,1.2c0.3,1.4-2.4,5.1-5.4,3.8v5.3c0,2.2,0.9,4.3,2.4,5.8
	c0.9,0.9,1.9,1.6,3.1,2c1.8,0.6,3.7,0.6,5.5,0c3.3-1.2,5.5-4.3,5.5-7.8v-5.7C117.2,300.6,116.4,298.6,116.2,297.7"/>
<path class="st6" d="M106.9,304.1h5.5l0,0v1.4c0,1.4-1.2,2.6-2.6,2.6h0h-0.6c-1.3,0-2.4-1.1-2.4-2.4L106.9,304.1L106.9,304.1z"/>
<path class="st6" d="M117.9,308.1h-0.6c-1.4,0-2.6-1.2-2.6-2.6l0,0v-1.4l0,0h5.5l0,0v1.6C120.3,307,119.2,308.1,117.9,308.1
	C117.9,308.1,117.9,308.1,117.9,308.1z"/>
<path class="st8" d="M112.8,20.7c6.6,0,11.7,5.6,11.7,10.3v5.5c0,0.2,0,0.3-0.1,0.5c0,0.2,0.1,0.5,0.1,0.7c0,1.5-0.9,2.9-2.2,3.7
	c-0.2,2.1-1.2,4.1-2.7,5.7c1.2,0.3,2.3,0.8,3.2,1.6c1.4,1.1,2.3,2.8,2.3,4.6v4.6c0,1.1-0.9,2-2,2h-20.7c-1.1,0-2-0.9-2-2v-4.6
	c0-1.8,0.9-3.6,2.4-4.6c1-0.8,2.1-1.3,3.3-1.5c-1.5-1.5-2.4-3.5-2.8-5.5c-1.2-0.6-2.1-1.8-2.3-3.1c0-0.1,0-0.2,0-0.3v-0.7
	c0-0.1,0-0.2,0-0.3v-0.2c0-0.2,0-0.3,0-0.5V31C101.1,26.3,106.2,20.7,112.8,20.7 M112.8,18.7c-7.8,0-13.7,6.5-13.7,12.3v5.4
	c0,0.2,0,0.3,0,0.5c0,0.2,0,0.3,0,0.5v0.7c0,0.2,0,0.4,0,0.6c0.2,1.6,1.1,3.1,2.5,4.1c0.3,1.2,0.8,2.3,1.4,3.3
	c-0.5,0.3-0.9,0.6-1.4,0.9c-2,1.5-3.1,3.8-3.1,6.2v4.6c0,2.2,1.8,4,4,4h20.7c2.2,0,4-1.8,4-4v-4.6c0-2.4-1.2-4.7-3.1-6.1
	c-0.4-0.3-0.8-0.6-1.3-0.9c0.7-1.1,1.1-2.3,1.4-3.6c1.5-1.2,2.4-2.9,2.4-4.8c0-0.2,0-0.5,0-0.7c0-0.2,0-0.4,0-0.5V31
	C126.4,25.2,120.6,18.7,112.8,18.7L112.8,18.7z"/>
<path class="st5" d="M112.8,22.7c5.4,0,9.7,4.5,9.7,8.4v5.5h-0.4c0.3,0.4,0.4,0.8,0.4,1.2c0,1.2-1,2.2-2.1,2.2v0.5
	c0,2.5-1.3,4.9-3.4,6.2l0,0V49h0.9c0.3,0,0.6,0,0.9,0.1c1,0.1,2,0.6,2.8,1.2c1,0.7,1.6,1.8,1.6,3v4.6h-20.6v-4.6
	c0-1.2,0.6-2.3,1.6-3c0.8-0.7,1.8-1.1,2.8-1.3c0.3-0.1,0.6-0.1,0.9-0.1h0.9v-2.2h0.2c-2.2-1.5-3.5-4-3.5-6.6c0-0.2,0-0.5,0-0.7
	c0,0.2,0,0.4,0,0.6c-1.1,0-2-0.8-2.2-1.8v-0.7c0-0.4,0.2-0.7,0.4-1h-0.4v-5.4C103.2,27.2,107.5,22.7,112.8,22.7 M112.9,20.7
	c-6.6,0-11.7,5.6-11.7,10.4v5.4c0,0.2,0,0.3,0,0.5v0.2c0,0.1,0,0.2,0,0.3v0.7c0,0.1,0,0.2,0,0.3c0.2,1.4,1.1,2.5,2.3,3.1
	c0.3,2.1,1.3,4,2.8,5.5c-1.2,0.2-2.4,0.8-3.4,1.6c-1.5,1.1-2.3,2.8-2.3,4.6v4.6c0,1.1,0.9,2,2,2h20.7c1.1,0,2-0.9,2-2v-4.6
	c0-1.8-0.9-3.5-2.3-4.6c-0.9-0.8-2-1.3-3.2-1.5c1.5-1.5,2.5-3.5,2.7-5.7c1.3-0.7,2.2-2.1,2.2-3.7c0-0.2,0-0.5-0.1-0.7
	c0-0.2,0.1-0.3,0.1-0.5v-5.5C124.5,26.3,119.4,20.7,112.9,20.7L112.9,20.7z"/>
<path class="st5" d="M115.7,37.1c0.4,0,0.7,0.3,0.7,0.7c0,0.4-0.3,0.7-0.7,0.7s-0.7-0.3-0.7-0.7S115.3,37.1,115.7,37.1
	C115.7,37.1,115.7,37.1,115.7,37.1z"/>
<circle class="st5" cx="109.9" cy="37.8" r="0.7"/>
<path class="st6" d="M105.2,35.7l0.6-4.6c1.4-0.4,8.2,3.7,11.2-1.4c0,0-0.8,2.5,3.2,5.4v0.7"/>
<path class="st6" d="M122.5,38c0,1.2-1,2.1-2.2,2.2v-4.4C121.5,35.8,122.5,36.8,122.5,38z"/>
<path class="st6" d="M103.1,37.4v0.7c0.2,1,1.1,1.8,2.2,1.8v-4.3C104.2,35.6,103.3,36.4,103.1,37.4z"/>
<path class="st6" d="M103.1,36.5v-5.4c0-3.8,4.3-8.4,9.7-8.4s9.7,4.5,9.7,8.4v5.5"/>
<path class="st9" d="M117,46.7v2.2h0.9c0.3,0,0.6,0,0.9,0.1c1,0.1,2,0.6,2.8,1.2c1,0.7,1.6,1.8,1.6,3v4.6h-20.7v-4.6
	c0-1.2,0.6-2.3,1.6-3c0.8-0.7,1.8-1.1,2.8-1.2c0.3-0.1,0.6-0.1,0.9-0.1h0.9v-2.2"/>
<path class="st6" d="M105.2,35.7c0,1.8,0.1,2.6,0.1,4.4c-0.1,4.2,3.3,7.7,7.5,7.8c4.1,0,7.5-3.3,7.5-7.4c0,0,0,0,0-0.1v-5"/>
<path class="st6" d="M110.7,42.5c0.5,0.7,1.3,1.1,2.1,1.1c0.8,0,1.6-0.4,2.1-1.1"/>
<path class="st4" d="M333.6,59.9c-1.7,0-3-1.3-3-3v-4.5c0-1.8,0.7-3.6,1.9-5c-2.6-1.3-4.2-3.9-4.2-6.8v-9.1
	c-0.2-7.3,5.6-13.4,12.9-13.6c7.3-0.2,13.4,5.6,13.6,12.9c0,0.2,0,0.5,0,0.7v9.2c0,0.1,0,0.3,0,0.4c-0.2,2.7-1.8,5-4.2,6.2
	c1.2,1.4,1.9,3.1,2,5V57c0,1.7-1.3,3-3,3l0,0L333.6,59.9z"/>
<path class="st10" d="M341.6,19.3c6.8,0,12.2,5.5,12.2,12.2v9.2c0,0.1,0,0.2,0,0.3c-0.2,2.9-2.3,5.3-5.1,5.9c0.4,0.2,0.7,0.5,1,0.9
	c1.2,1.2,1.8,2.8,1.9,4.5v4.5c0,1.1-0.9,2-2,2h-15.9c-1.1,0-2-0.9-2-2v-4.5c0-1.8,0.7-3.5,2-4.7c0.3-0.3,0.5-0.5,0.8-0.7
	c-3-0.7-5.1-3.3-5.1-6.4v-9.1C329.3,24.8,334.8,19.3,341.6,19.3 M341.6,17.3c-7.9,0-14.2,6.4-14.2,14.2v9.1c0,2.8,1.4,5.4,3.7,7
	c-0.9,1.4-1.4,3-1.4,4.7v4.5c0,2.2,1.8,4,4,4h15.9c2.2,0,4-1.8,4-4v-4.5c0-1.7-0.5-3.3-1.5-4.7c2.1-1.5,3.5-3.8,3.7-6.4
	c0-0.2,0-0.3,0-0.5v-9.2C355.8,23.7,349.4,17.3,341.6,17.3z"/>
<path class="st4" d="M333.6,57.9c-0.6,0-1-0.4-1-1v-4.5c0-1.5,0.6-2.9,1.7-3.9c0.3-0.3,0.6-0.6,1-0.8l0.1-0.1
	c0.8-0.4,1.6-0.7,2.5-0.7v-0.3c-0.3-0.1-0.6-0.3-0.9-0.4c-0.4,0.1-0.8,0.1-1.2,0.1c-3.1,0-5.5-2.5-5.5-5.5v-9.1
	c-0.2-6.2,4.7-11.4,10.9-11.6c6.2-0.2,11.4,4.7,11.6,10.9c0,0.2,0,0.4,0,0.7v9.2c0,0.1,0,0.1,0,0.2c-0.2,2.9-2.6,5.2-5.5,5.2
	c-0.4,0-0.8,0-1.2-0.1c-0.3,0.2-0.6,0.3-0.9,0.5v0.3c0.9,0,1.7,0.3,2.5,0.7c0.5,0.3,0.9,0.6,1.2,1c1,1,1.6,2.4,1.6,3.8V57
	c0,0.6-0.4,1-1,1L333.6,57.9z"/>
<path class="st5" d="M341.6,21.3c5.6,0,10.2,4.5,10.2,10.1c0,0,0,0.1,0,0.1v9.2l0,0c-0.1,2.4-2.1,4.4-4.5,4.4
	c-0.4,0-0.9-0.1-1.3-0.2l0,0c-0.5,0.4-1.1,0.7-1.7,0.9v2h0.7c0.8,0,1.6,0.2,2.3,0.6c0.4,0.2,0.7,0.4,0.9,0.8c0.9,0.8,1.4,2,1.4,3.2
	V57h-15.9v-4.6c0-1.2,0.5-2.4,1.4-3.2c0.3-0.3,0.6-0.5,0.9-0.8c0.7-0.4,1.5-0.6,2.3-0.6h0.8v-2c-0.6-0.2-1.2-0.5-1.7-0.9
	c-0.4,0.1-0.9,0.2-1.3,0.2c-2.5,0-4.5-2-4.5-4.5v-9.1C331.3,25.9,335.9,21.3,341.6,21.3C341.5,21.3,341.6,21.3,341.6,21.3
	 M341.6,19.3c-6.8,0-12.2,5.5-12.2,12.2v9.1c0,3.1,2.1,5.7,5.1,6.4c-0.3,0.2-0.5,0.4-0.9,0.7c-1.3,1.2-2,2.9-2,4.6v4.5
	c0,1.1,0.9,2,2,2h15.9c1.1,0,2-0.9,2-2v-4.5c0-1.7-0.7-3.3-1.9-4.5c-0.3-0.3-0.6-0.6-1-0.9c2.8-0.7,4.9-3.1,5.1-6c0-0.1,0-0.2,0-0.3
	v-9.2C353.8,24.8,348.3,19.3,341.6,19.3z"/>
<path class="st6" d="M338.9,45.9c-0.6-0.3-1.2-0.5-1.7-0.9c-0.4-0.3-0.8-0.6-1.2-1c-1.5-1.5-2.3-3.5-2.4-5.6"/>
<path class="st6" d="M349.6,38.4c0,2.7-1.3,5.2-3.6,6.6c-0.5,0.4-1.1,0.7-1.7,0.9"/>
<path class="st6" d="M333.6,34.2v-0.5c1.5-0.4,7.7-2.2,11-7.5c0.7,3,2.4,5.6,4.9,7.3v0.7"/>
<path class="st6" d="M351.8,36.5c0,1.2-1,2.2-2.3,2.3v-4.5C350.8,34.2,351.8,35.2,351.8,36.5z"/>
<path class="st6" d="M331.4,36.1v0.8c0.2,1.1,1.2,1.9,2.3,1.9v-4.5C332.5,34.2,331.6,35,331.4,36.1z"/>
<path class="st6" d="M347.3,48.5c-0.7-0.4-1.5-0.6-2.3-0.6h-0.8"/>
<path class="st6" d="M338.9,47.8h-0.8c-0.8,0-1.6,0.2-2.3,0.6"/>
<path class="st6" d="M335.9,48.5c-0.3,0.2-0.6,0.5-0.9,0.8c-0.9,0.8-1.4,2-1.4,3.2v4.5h15.9v-4.5c0-1.2-0.5-2.3-1.4-3.2
	c-0.2-0.3-0.6-0.6-0.9-0.8"/>
<path class="st6" d="M344.2,47.8v-2c-0.9,0.3-1.7,0.5-2.6,0.5c-0.9,0-1.8-0.2-2.7-0.5v2"/>
<path class="st6" d="M339.4,42.2c0.5,0.7,1.3,1.1,2.2,1.1c0.9,0,1.7-0.4,2.2-1.1"/>
<path class="st6" d="M336.7,36.8c0.1-0.6,0.6-1.1,1.2-1c0.5,0.1,1,0.5,1,1"/>
<path class="st6" d="M344.2,36.8c0.1-0.6,0.6-1.1,1.2-1c0.5,0.1,1,0.5,1,1"/>
<path class="st6" d="M331.4,40.6v-9.1c0.2-5.7,4.9-10.1,10.6-9.9c5.4,0.2,9.7,4.5,9.9,9.9v9.2"/>
<path class="st6" d="M337.2,45c-0.4,0.1-0.9,0.2-1.3,0.2c-2.5,0-4.5-2-4.5-4.5"/>
<path class="st6" d="M351.8,40.6c0,2.5-2,4.5-4.5,4.5c-0.4,0-0.9-0.1-1.3-0.2"/>
<path class="st6" d="M340.8,36c0,0.2,0.1,0.4,0.1,0.5c0,1.7-1.4,3-3,3s-3-1.4-3-3c0-0.3,0-0.5,0.1-0.8c0.3-1.4,1.6-2.3,3-2.3
	C339.3,33.5,340.5,34.6,340.8,36z"/>
<path class="st6" d="M348.3,35.7c0.1,0.2,0.1,0.5,0.1,0.8c0,1.7-1.4,3-3,3s-3-1.4-3-3c0-0.2,0-0.4,0.1-0.5c0.2-1.5,1.5-2.5,3-2.5
	C346.8,33.5,348,34.4,348.3,35.7z"/>
<line class="st6" x1="348.3" y1="35.7" x2="349.6" y2="35.7"/>
<line class="st6" x1="333.6" y1="35.7" x2="334.9" y2="35.7"/>
<path class="st6" d="M340.8,36c0.2-0.2,0.5-0.2,0.8-0.2c0.3,0,0.5,0.1,0.8,0.2"/>
<path class="st11" d="M32.5,239.7c-0.7-1.2-2.3-1.8-3.6-1.2c-2.2,0.9-1.3,3.6-1.3,3.6s-5.1-0.1-4.6,5.2c0.4,3.9,4.6,3.6,4.4,3.6
	c-6.2,0,12.4,0,18.6,0c1,0,1.9-0.4,2.6-1c1.5-1.1,2.1-3.1,1.3-4.8c-0.7-1.8-3-2.8-4.9-2.9c0,0,1.1-4.9-2.4-7
	c-2.5-1.7-5.9-1.4-8.1,0.6C33.5,236.9,32.8,238.3,32.5,239.7z"/>
<path class="st12" d="M468.4,273.5l0.6-2.9c0-0.2,0.1-0.4,0.1-0.5c0-0.1,0-0.3,0-0.4c0-0.2,0-0.4-0.1-0.5c-0.1-0.1-0.3-0.2-0.5-0.2
	c-0.2,0-0.4,0.1-0.5,0.1c-0.2,0.1-0.4,0.2-0.5,0.3c-0.2,0.1-0.3,0.3-0.4,0.5c-0.1,0.2-0.2,0.3-0.3,0.5l-0.6,3h-0.8l1.5-7h0.8
	l-0.6,2.9l0,0c0.1-0.1,0.2-0.2,0.3-0.3c0.1-0.1,0.3-0.2,0.4-0.3c0.2-0.1,0.3-0.2,0.5-0.2c0.2-0.1,0.4-0.1,0.6-0.1
	c0.3,0,0.6,0.1,0.8,0.2c0.2,0.2,0.3,0.5,0.3,0.9c0,0.3,0,0.7-0.1,1l-0.6,3L468.4,273.5z"/>
<path class="st12" d="M474.4,271.6c-0.1,0.2-0.1,0.5-0.1,0.8c0,0.2,0,0.5,0,0.7v0.3c0,0.1,0,0.2,0,0.2h-0.5l-0.1-0.9l0,0
	c-0.1,0.1-0.2,0.2-0.3,0.4c-0.1,0.1-0.3,0.2-0.4,0.3c-0.1,0.1-0.3,0.2-0.5,0.2c-0.2,0.1-0.3,0.1-0.5,0.1c-0.8,0-1.2-0.5-1.2-1.5
	c0-0.4,0.1-0.9,0.2-1.3c0.1-0.4,0.3-0.8,0.5-1.2c0.2-0.3,0.5-0.6,0.9-0.9c0.4-0.2,0.8-0.4,1.3-0.3c0.2,0,0.5,0,0.7,0.1
	c0.3,0,0.5,0.1,0.8,0.2L474.4,271.6z M472.2,273c0.2,0,0.3,0,0.5-0.1c0.1-0.1,0.3-0.2,0.4-0.3c0.1-0.1,0.2-0.2,0.3-0.4
	c0.1-0.1,0.2-0.2,0.2-0.4l0.6-2.7c-0.2-0.1-0.5-0.1-0.8-0.1c-0.3,0-0.6,0.1-0.8,0.3c-0.2,0.2-0.4,0.4-0.6,0.7
	c-0.2,0.3-0.3,0.7-0.4,1c-0.1,0.4-0.1,0.7-0.1,1.1c0,0.2,0,0.4,0.1,0.6C471.8,272.9,472,273,472.2,273z"/>
<path class="st12" d="M477.8,272.1c0-0.2,0-0.3-0.1-0.5c-0.1-0.1-0.2-0.2-0.3-0.3c-0.1-0.1-0.3-0.2-0.4-0.3
	c-0.2-0.1-0.3-0.2-0.4-0.3c-0.1-0.1-0.2-0.3-0.3-0.4c-0.1-0.2-0.1-0.4-0.1-0.6c0-0.2,0-0.4,0.1-0.5c0.1-0.2,0.2-0.3,0.4-0.4
	c0.2-0.1,0.4-0.2,0.6-0.3c0.2-0.1,0.5-0.1,0.7-0.1c0.3,0,0.6,0,0.8,0.1c0.2,0,0.4,0.1,0.5,0.2l-0.2,0.6c-0.3-0.2-0.7-0.2-1.1-0.2
	c-0.2,0-0.5,0.1-0.7,0.2c-0.2,0.1-0.3,0.3-0.3,0.5c0,0.1,0,0.3,0.1,0.4c0.1,0.1,0.2,0.2,0.3,0.3l0.4,0.3c0.2,0.1,0.3,0.2,0.4,0.3
	c0.1,0.1,0.2,0.3,0.3,0.4c0.1,0.2,0.1,0.4,0.1,0.6c0,0.5-0.2,0.9-0.5,1.2c-0.4,0.3-0.9,0.4-1.4,0.4c-0.3,0-0.6,0-0.8-0.1
	c-0.2,0-0.4-0.1-0.6-0.2l0.3-0.6c0.2,0.1,0.3,0.2,0.5,0.2c0.2,0.1,0.4,0.1,0.7,0.1c0.3,0,0.6-0.1,0.8-0.2
	C477.7,272.6,477.8,272.4,477.8,272.1z"/>
<path class="st12" d="M485.9,271.6c-0.1,0.2-0.1,0.5-0.1,0.8c0,0.2,0,0.5,0,0.7v0.3c0,0.1,0,0.2,0,0.2h-0.5l-0.1-0.9l0,0
	c-0.1,0.1-0.2,0.2-0.3,0.4c-0.1,0.1-0.3,0.2-0.4,0.3c-0.1,0.1-0.3,0.2-0.5,0.2c-0.2,0.1-0.3,0.1-0.5,0.1c-0.8,0-1.2-0.5-1.2-1.5
	c0-0.4,0.1-0.9,0.2-1.3c0.1-0.4,0.3-0.8,0.5-1.2c0.2-0.3,0.5-0.6,0.9-0.9c0.4-0.2,0.8-0.4,1.3-0.3c0.2,0,0.5,0,0.7,0.1
	c0.3,0,0.5,0.1,0.8,0.2L485.9,271.6z M483.7,273c0.2,0,0.3,0,0.5-0.1c0.1-0.1,0.3-0.2,0.4-0.3c0.1-0.1,0.2-0.2,0.3-0.4
	c0.1-0.1,0.2-0.2,0.2-0.4l0.6-2.7c-0.2-0.1-0.5-0.1-0.8-0.1c-0.3,0-0.6,0.1-0.8,0.3c-0.2,0.2-0.4,0.4-0.6,0.7
	c-0.2,0.3-0.3,0.7-0.4,1c-0.1,0.4-0.1,0.7-0.1,1.1c0,0.2,0,0.4,0.1,0.6C483.3,272.9,483.5,273,483.7,273z"/>
<path class="st12" d="M490.3,273.1c-0.1,0.1-0.2,0.2-0.4,0.2c-0.1,0.1-0.3,0.1-0.4,0.2c-0.1,0-0.3,0.1-0.4,0.1c-0.1,0-0.3,0-0.4,0
	c-0.3,0-0.5,0-0.8-0.1c-0.2-0.1-0.4-0.2-0.5-0.4c-0.1-0.2-0.2-0.3-0.2-0.5c0-0.2-0.1-0.4-0.1-0.5c0-0.5,0.1-1,0.2-1.5
	c0.1-0.4,0.3-0.8,0.6-1.1c0.2-0.3,0.5-0.5,0.9-0.7c0.3-0.2,0.7-0.2,1-0.2c0.2,0,0.4,0,0.6,0.1c0.2,0,0.3,0.1,0.5,0.2l-0.3,0.6
	c-0.1-0.1-0.3-0.1-0.4-0.1c-0.2,0-0.4-0.1-0.5-0.1c-0.2,0-0.5,0.1-0.7,0.2c-0.2,0.2-0.4,0.4-0.6,0.6c-0.2,0.3-0.3,0.6-0.4,0.9
	c-0.1,0.3-0.2,0.7-0.1,1c0,0.4,0.1,0.7,0.3,1c0.2,0.2,0.5,0.3,0.7,0.3c0.2,0,0.4,0,0.6-0.1c0.2-0.1,0.4-0.2,0.5-0.3L490.3,273.1z"/>
<path class="st12" d="M494.2,273.1c-0.1,0.1-0.2,0.2-0.4,0.2c-0.1,0.1-0.3,0.1-0.4,0.2c-0.1,0-0.3,0.1-0.4,0.1c-0.1,0-0.3,0-0.4,0
	c-0.3,0-0.5,0-0.8-0.1c-0.2-0.1-0.4-0.2-0.5-0.4c-0.1-0.2-0.2-0.3-0.2-0.5c0-0.2-0.1-0.4-0.1-0.5c0-0.5,0.1-1,0.2-1.5
	c0.1-0.4,0.3-0.8,0.6-1.1c0.2-0.3,0.5-0.5,0.9-0.7c0.3-0.2,0.7-0.2,1-0.2c0.2,0,0.4,0,0.6,0.1c0.2,0,0.3,0.1,0.5,0.2l-0.3,0.6
	c-0.1-0.1-0.3-0.1-0.4-0.1c-0.2,0-0.4-0.1-0.5-0.1c-0.2,0-0.5,0.1-0.7,0.2c-0.2,0.2-0.4,0.4-0.6,0.6c-0.2,0.3-0.3,0.6-0.4,0.9
	c-0.1,0.3-0.2,0.7-0.1,1c0,0.4,0.1,0.7,0.3,1c0.2,0.2,0.5,0.3,0.7,0.3c0.2,0,0.4,0,0.6-0.1c0.2-0.1,0.4-0.2,0.5-0.3L494.2,273.1z"/>
<path class="st12" d="M498.4,273c-0.2,0.2-0.5,0.4-0.8,0.5c-0.3,0.1-0.7,0.2-1,0.1c-0.4,0-0.9-0.1-1.2-0.5c-0.3-0.4-0.4-0.8-0.4-1.3
	c0-0.5,0.1-1,0.2-1.5c0.1-0.4,0.3-0.8,0.6-1.1c0.2-0.3,0.5-0.5,0.9-0.7c0.3-0.2,0.7-0.2,1-0.2c0.2,0,0.4,0,0.6,0.1
	c0.2,0.1,0.3,0.2,0.4,0.3c0.1,0.1,0.2,0.2,0.2,0.4c0.1,0.1,0.1,0.3,0.1,0.5c0,0.5-0.3,0.9-0.7,1.1c-0.6,0.3-1.3,0.4-2,0.4h-0.2h-0.3
	c0,0.1,0,0.2-0.1,0.4c0,0.1,0,0.2,0,0.3c0,0.3,0.1,0.6,0.2,0.9c0.2,0.2,0.5,0.4,0.8,0.3c0.3,0,0.6,0,0.8-0.1
	c0.2-0.1,0.4-0.2,0.6-0.3L498.4,273z M497.5,269c-0.4,0-0.7,0.1-1,0.4c-0.3,0.3-0.5,0.7-0.6,1.1h0.8c0.3,0,0.5,0,0.8-0.1
	c0.2-0.1,0.4-0.1,0.5-0.3c0.1-0.1,0.2-0.3,0.2-0.5c0-0.1,0-0.1,0-0.2c0-0.1-0.1-0.1-0.1-0.2c-0.1-0.1-0.1-0.1-0.2-0.1
	C497.8,269.1,497.7,269.1,497.5,269L497.5,269z"/>
<path class="st12" d="M501.7,272.1c0-0.2,0-0.3-0.1-0.5c-0.1-0.1-0.2-0.2-0.3-0.3c-0.1-0.1-0.3-0.2-0.4-0.3
	c-0.2-0.1-0.3-0.2-0.4-0.3c-0.1-0.1-0.2-0.3-0.3-0.4c-0.1-0.2-0.1-0.4-0.1-0.6c0-0.2,0-0.4,0.1-0.5c0.1-0.2,0.2-0.3,0.4-0.4
	c0.2-0.1,0.4-0.2,0.6-0.3c0.2-0.1,0.5-0.1,0.7-0.1c0.3,0,0.6,0,0.8,0.1c0.2,0,0.4,0.1,0.5,0.2l-0.2,0.6c-0.3-0.2-0.7-0.2-1.1-0.2
	c-0.2,0-0.5,0.1-0.7,0.2c-0.2,0.1-0.3,0.3-0.3,0.5c0,0.1,0,0.3,0.1,0.4c0.1,0.1,0.2,0.2,0.3,0.3l0.4,0.3c0.2,0.1,0.3,0.2,0.4,0.3
	c0.1,0.1,0.2,0.3,0.3,0.4c0.1,0.2,0.1,0.4,0.1,0.6c0,0.5-0.2,0.9-0.5,1.2c-0.4,0.3-0.9,0.4-1.4,0.4c-0.3,0-0.6,0-0.8-0.1
	c-0.2,0-0.4-0.1-0.6-0.2l0.3-0.6c0.2,0.1,0.3,0.2,0.5,0.2c0.2,0.1,0.5,0.1,0.7,0.1c0.3,0,0.6-0.1,0.8-0.2
	C501.6,272.6,501.7,272.4,501.7,272.1z"/>
<path class="st12" d="M505.7,272.1c0-0.2,0-0.3-0.1-0.5c-0.1-0.1-0.2-0.2-0.3-0.3c-0.1-0.1-0.3-0.2-0.4-0.3
	c-0.2-0.1-0.3-0.2-0.4-0.3c-0.1-0.1-0.2-0.3-0.3-0.4c-0.1-0.2-0.1-0.4-0.1-0.6c0-0.2,0-0.4,0.1-0.5c0.1-0.2,0.2-0.3,0.4-0.4
	c0.2-0.1,0.4-0.2,0.5-0.3c0.2-0.1,0.5-0.1,0.7-0.1c0.3,0,0.6,0,0.8,0.1c0.2,0,0.4,0.1,0.5,0.2l-0.2,0.6c-0.3-0.2-0.7-0.2-1.1-0.2
	c-0.2,0-0.5,0.1-0.7,0.2c-0.2,0.1-0.3,0.3-0.3,0.5c0,0.1,0,0.3,0.1,0.4c0.1,0.1,0.2,0.2,0.3,0.3l0.4,0.3c0.2,0.1,0.3,0.2,0.4,0.3
	c0.1,0.1,0.2,0.3,0.3,0.4c0.1,0.2,0.1,0.4,0.1,0.6c0,0.5-0.2,0.9-0.5,1.2c-0.4,0.3-0.9,0.4-1.4,0.4c-0.3,0-0.6,0-0.8-0.1
	c-0.2,0-0.4-0.1-0.6-0.2l0.3-0.6c0.2,0.1,0.3,0.2,0.5,0.2c0.2,0.1,0.4,0.1,0.7,0.1c0.3,0,0.6-0.1,0.8-0.2
	C505.6,272.6,505.7,272.4,505.7,272.1z"/>
<path class="st5" d="M437.6,325.2c-1.1,0-2-0.9-2-2v-5.5c0-2,0.8-4,2.3-5.3c1-0.9,2.1-1.6,3.5-1.9c-2.1-1.5-3.7-3.7-4.3-6.2
	l-0.2-0.1c-1.5-0.7-2.5-2.3-2.5-4c0-0.4,0.1-0.8,0.2-1.2c-1.8-2.3-1.4-5.5,0.8-7.3c0.6-0.5,1.4-0.9,2.2-1c2.2-5.4,8.3-8,13.7-5.9
	c2.7,1.1,4.8,3.2,5.9,5.9c2.3,0.6,4,2.7,4,5.1c0,1.1-0.4,2.2-1,3.1c0.1,0.4,0.2,0.9,0.2,1.4c0,1.8-1.1,3.4-2.7,4.1
	c-0.6,2.5-2.1,4.7-4.3,6.2c1.3,0.3,2.5,1,3.5,2.1c1.4,1.4,2.2,3.2,2.2,5.2v5.5c0,1.1-0.9,2-2,2L437.6,325.2z"/>
<path class="st13" d="M447.3,286c3.9,0,7.3,2.7,8.3,6.5h0.3c1.8,0,3.2,1.5,3.2,3.2c0,1.1-0.6,2.1-1.5,2.8c0.5,0.5,0.7,1.1,0.7,1.7
	c0,1.3-1.1,2.4-2.4,2.4l-0.1,0.1c-0.3,3.1-2.3,5.7-5.1,6.9v2.6h0.8c1.5,0,2.9,0.6,3.9,1.6c1,1,1.6,2.4,1.6,3.8v5.5h-19.3v-5.5
	c0-1.5,0.6-2.8,1.6-3.8c1-1,2.4-1.6,3.9-1.6h0.9v-2.4h0.2v-0.1c-2.9-1.2-5-3.9-5.4-7l-0.1-0.1c-0.3,0-0.7-0.1-1-0.2
	c-0.8-0.4-1.4-1.3-1.4-2.2c0-0.7,0.3-1.4,0.9-1.8l-0.1-0.4l-0.2,0.5c-0.9-0.6-1.5-1.6-1.5-2.8c0-1.8,1.5-3.2,3.2-3.2h0.2l0.3-0.4
	C440.3,288.4,443.6,285.9,447.3,286L447.3,286 M447.4,281.9c-4.7,0-9.1,2.7-11.2,7c-3.7,1.4-5.6,5.5-4.3,9.3
	c0.2,0.4,0.3,0.8,0.6,1.2c0,0.3-0.1,0.5,0,0.8c0,2.2,1.1,4.3,3,5.5c0.5,1.6,1.3,3,2.4,4.3c-2.6,1.8-4.2,4.7-4.2,7.8v5.5
	c0,2.2,1.8,4,4,4h19.3c2.2,0,4-1.8,4-4v-5.5c0-2.5-1-4.8-2.8-6.6c-0.4-0.4-0.8-0.8-1.3-1.2c1.1-1.3,1.9-2.7,2.4-4.3
	c1.9-1.2,3-3.2,3-5.5c0-0.3,0-0.7-0.1-1c0.6-1.1,0.9-2.2,0.9-3.5c0-3-1.8-5.6-4.5-6.7C456.4,284.7,452.1,282,447.4,281.9
	L447.4,281.9z"/>
<path class="st4" d="M437.6,324.2c-0.6,0-1-0.4-1-1v-5.5c0-1.7,0.7-3.4,2-4.6c1.2-1.2,2.8-1.9,4.5-1.9v-0.9
	c-2.7-1.3-4.5-3.9-5.1-6.8c-0.2-0.1-0.4-0.1-0.7-0.2c-1.2-0.6-1.9-1.8-1.9-3.1c0-0.5,0.1-1,0.3-1.4c-0.8-0.8-1.3-1.9-1.3-3
	c0-2.2,1.7-4,3.9-4.2c1.7-5,7-7.7,12-6c2.9,0.9,5.1,3.2,6,6c2.3,0.3,4,2.4,3.7,4.7c-0.1,0.9-0.5,1.8-1.2,2.4c0.2,0.5,0.4,1,0.4,1.5
	c0,1.6-1.1,2.9-2.6,3.3c-0.5,2.9-2.4,5.4-5,6.8v1c1.7,0.1,3.2,0.8,4.4,2c1.2,1.2,1.9,2.8,1.9,4.5v5.5c0,0.6-0.4,1-1,1L437.6,324.2z"
	/>
<path class="st5" d="M447.3,286c3.9,0,7.3,2.7,8.3,6.5h0.3c1.8,0,3.2,1.5,3.2,3.2c0,1.1-0.6,2.1-1.5,2.8c0.5,0.5,0.7,1.1,0.7,1.7
	c0,1.3-1.1,2.4-2.4,2.4l-0.1,0.1c-0.3,3.1-2.3,5.7-5.1,6.9v2.6h0.8c1.5,0,2.9,0.6,3.9,1.6c1,1,1.6,2.4,1.6,3.8v5.5h-19.3v-5.5
	c0-1.5,0.6-2.8,1.6-3.8c1-1,2.4-1.6,3.9-1.6h0.9v-2.4h0.2v-0.1c-2.9-1.2-5-3.9-5.4-7l-0.1-0.1c-0.3,0-0.7-0.1-1-0.2
	c-0.8-0.4-1.4-1.3-1.4-2.2c0-0.7,0.3-1.4,0.9-1.8l-0.1-0.4l-0.2,0.5c-0.9-0.6-1.5-1.6-1.5-2.8c0-1.8,1.5-3.2,3.2-3.2h0.2l0.3-0.4
	C440.3,288.4,443.6,285.9,447.3,286L447.3,286 M447.4,283.9c-4.3,0-8.2,2.6-9.8,6.6c-2.8,0.6-4.6,3.4-4,6.2c0.2,0.8,0.5,1.5,1,2.2
	c-0.1,0.4-0.2,0.8-0.2,1.2c0,1.7,1,3.3,2.5,4l0.2,0.1c0.6,2.5,2.1,4.7,4.3,6.2c-1.3,0.3-2.5,1-3.5,2c-1.5,1.4-2.3,3.3-2.3,5.3v5.5
	c0,1.1,0.9,2,2,2h19.3c1.1,0,2-0.9,2-2v-5.5c0-2-0.8-3.8-2.2-5.2c-0.9-1-2.1-1.7-3.4-2c2.2-1.5,3.7-3.7,4.3-6.2
	c1.6-0.7,2.7-2.3,2.7-4.1c0-0.5-0.1-0.9-0.2-1.4c0.6-0.9,1-2,1-3.1c0-2.4-1.7-4.5-4-5.1C455.5,286.6,451.6,284,447.4,283.9
	L447.4,283.9z"/>
<path class="st6" d="M444,309.8v2.4h-0.9c-1.5,0-2.8,0.6-3.9,1.6c-1.1,1-1.7,2.4-1.6,3.9v5.5h19.3v-5.5c0-1.5-0.6-2.8-1.6-3.9
	c-1-1.1-2.4-1.7-3.9-1.6h-0.9v-2.4"/>
<path class="st6" d="M445.5,305.4c0.4,0.6,1.1,1,1.9,1c0.8,0,1.5-0.4,1.9-1"/>
<path class="st5" d="M450.8,299.9c0.4,0,0.8,0.4,0.8,0.8c0,0.4-0.4,0.8-0.8,0.8s-0.8-0.4-0.8-0.8C450,300.2,450.4,299.9,450.8,299.9
	z"/>
<circle class="st5" cx="444.1" cy="300.7" r="0.8"/>
<path class="st6" d="M456.9,298c1.2,0.6,1.7,2.1,1.1,3.3c-0.4,0.8-1.2,1.4-2.2,1.4v-4.9C456.2,297.8,456.6,297.8,456.9,298z"/>
<path class="st6" d="M437.8,302.3c-1.2-0.6-1.7-2-1.1-3.2c0.4-0.8,1.3-1.4,2.2-1.4v4.9C438.4,302.6,438.1,302.5,437.8,302.3z"/>
<path class="st6" d="M445.3,297c0.4,0,0.8,0.4,0.8,0.8c0,0.4-0.4,0.8-0.8,0.8h-2.4c-0.4,0-0.8-0.4-0.8-0.8c0-0.4,0.4-0.8,0.8-0.8
	H445.3z"/>
<path class="st6" d="M452.8,297.8c0,0.4-0.4,0.8-0.8,0.8h-2.4c-0.4,0-0.8-0.4-0.8-0.8s0.4-0.8,0.8-0.8c0,0,0,0,0,0h2.4
	C452.4,297,452.8,297.4,452.8,297.8z"/>
<path class="st6" d="M437,298.5c-0.9-0.6-1.5-1.6-1.5-2.8c0-1.8,1.5-3.2,3.2-3.2h0.3"/>
<path class="st6" d="M457.6,298.5c0.9-0.6,1.5-1.6,1.5-2.8c0-1.8-1.5-3.2-3.2-3.2h-0.3"/>
<path class="st6" d="M446.9,286h0.8c4.5,0,8.1,3.6,8.1,8.1v8.1c0,4.5-3.6,8.1-8.1,8.1h-0.8c-4.5,0-8.1-3.6-8.1-8.1v-8.1
	C438.8,289.6,442.4,286,446.9,286z"/>
<path class="st5" d="M405.2,341.3h-1.2l-0.2-0.8c-0.3-0.2-0.7-0.3-1-0.3c-0.3,0-0.5,0.1-0.7,0.2c-0.2,0.1-0.3,0.3-0.3,0.5
	c0,0.2,0.1,0.4,0.3,0.5c0.3,0.2,0.6,0.3,1,0.3c0.6,0.1,1.3,0.3,1.8,0.7c0.4,0.3,0.6,0.8,0.6,1.3c0,0.6-0.3,1.1-0.8,1.4
	c-0.6,0.4-1.3,0.6-2,0.5c-0.5,0-0.9-0.1-1.4-0.2c-0.4-0.1-0.8-0.4-1.1-0.6v-1.5h1.2l0.2,0.8c0.1,0.1,0.3,0.2,0.4,0.2
	c0.2,0,0.4,0.1,0.6,0.1c0.3,0,0.6,0,0.8-0.2c0.3-0.2,0.3-0.6,0.2-0.8c0-0.1-0.1-0.1-0.2-0.2c-0.3-0.2-0.6-0.3-1-0.4
	c-0.6-0.1-1.2-0.3-1.7-0.7c-0.4-0.3-0.6-0.8-0.6-1.2c0-0.5,0.2-1.1,0.7-1.4c0.5-0.4,1.2-0.6,1.9-0.6c0.5,0,1,0.1,1.4,0.2
	c0.4,0.1,0.7,0.3,1.1,0.5L405.2,341.3z"/>
<path class="st5" d="M408.8,337.5v1.6h1.2v1.2h-1.1v3.3c0,0.2,0,0.4,0.2,0.5c0.1,0.1,0.3,0.2,0.4,0.2h0.3l0.3,0l0.1,1.3
	c-0.2,0.1-0.4,0.1-0.6,0.1c-0.2,0-0.4,0-0.6,0c-0.5,0-1-0.2-1.4-0.5c-0.4-0.4-0.5-1-0.5-1.6v-3.3h-1v-1.2h1v-1.6H408.8z"/>
<path class="st5" d="M414.9,345.5c0-0.1-0.1-0.2-0.1-0.3c0-0.1-0.1-0.2-0.1-0.3c-0.2,0.2-0.5,0.4-0.8,0.6c-0.3,0.1-0.7,0.2-1,0.2
	c-0.6,0-1.1-0.2-1.5-0.5c-0.4-0.4-0.6-0.9-0.6-1.4c0-0.6,0.3-1.1,0.7-1.4c0.6-0.4,1.4-0.5,2.1-0.5h0.9v-0.6c0-0.3-0.1-0.5-0.3-0.7
	c-0.2-0.2-0.5-0.3-0.8-0.3c-0.2,0-0.4,0-0.5,0.1c-0.1,0-0.3,0.1-0.4,0.2l-0.1,0.7h-1.3v-1.4c0.3-0.2,0.7-0.4,1.1-0.5
	c0.4-0.2,0.9-0.2,1.4-0.2c0.7,0,1.4,0.2,2,0.6c0.5,0.4,0.8,1,0.8,1.7v2.7c0,0.1,0,0.2,0,0.3c0,0.1,0,0.2,0,0.2l0.5,0.1v1
	L414.9,345.5z M413.4,344.4c0.3,0,0.5-0.1,0.7-0.2c0.2-0.1,0.4-0.3,0.5-0.4v-1h-0.9c-0.3,0-0.6,0.1-0.8,0.3
	c-0.2,0.2-0.3,0.4-0.3,0.6c0,0.2,0.1,0.4,0.2,0.5C413,344.3,413.2,344.4,413.4,344.4L413.4,344.4z"/>
<path class="st5" d="M417.4,337.3v-1h2.6v5.4h0.4l1-1.4l-0.6-0.1v-1.1h3.2v1.1l-0.8,0.2l-1.2,1.6l1.6,2.5l0.7,0.1v1h-3v-1l0.4-0.1
	l-1-1.6H420v1.5l0.8,0.2v1h-3.3v-1l0.8-0.2v-6.9L417.4,337.3z"/>
<path class="st5" d="M428,345.7c-0.8,0-1.7-0.3-2.2-0.9c-0.6-0.6-0.9-1.4-0.8-2.3v-0.2c0-0.9,0.2-1.7,0.8-2.4c1.1-1.2,3-1.2,4.2-0.1
	c0.5,0.6,0.8,1.4,0.7,2.1v1h-3.9l0,0c0,0.4,0.2,0.8,0.4,1.1c0.3,0.3,0.6,0.4,1,0.4c0.3,0,0.7,0,1-0.1c0.3-0.1,0.6-0.2,0.8-0.4
	l0.5,1.1c-0.3,0.2-0.6,0.4-1,0.5C429,345.6,428.5,345.7,428,345.7z M427.8,340.3c-0.3,0-0.6,0.1-0.8,0.4c-0.2,0.3-0.3,0.6-0.3,1l0,0
	h2.1v-0.1c0-0.3-0.1-0.6-0.3-0.9C428.4,340.4,428.1,340.3,427.8,340.3L427.8,340.3z"/>
<path class="st5" d="M431.3,344.5l0.9-0.2v-6.9l-0.9-0.2v-1h2.7v3.7c0.2-0.3,0.4-0.5,0.7-0.7c0.3-0.2,0.7-0.3,1-0.2
	c0.6,0,1.2,0.2,1.6,0.7c0.4,0.6,0.6,1.3,0.6,2.1v2.6l0.8,0.2v1h-3.4v-1l0.8-0.2v-2.7c0-0.4-0.1-0.8-0.3-1.1
	c-0.2-0.2-0.5-0.3-0.8-0.3c-0.2,0-0.4,0-0.6,0.1c-0.2,0.1-0.3,0.2-0.5,0.4v3.5l0.8,0.2v1h-3.3L431.3,344.5z"/>
<path class="st5" d="M439.1,342.3c0-0.9,0.3-1.7,0.8-2.4c0.6-0.6,1.4-1,2.2-0.9c0.8,0,1.7,0.3,2.2,0.9c0.6,0.7,0.8,1.5,0.8,2.4v0.1
	c0,0.9-0.3,1.7-0.8,2.4c-1.2,1.2-3.2,1.2-4.5,0c-0.6-0.7-0.8-1.5-0.8-2.4V342.3z M440.9,342.4c0,0.5,0.1,1,0.3,1.4
	c0.4,0.6,1.1,0.7,1.6,0.4c0.1-0.1,0.3-0.2,0.4-0.4c0.2-0.4,0.3-0.9,0.3-1.4v-0.1c0-0.5-0.1-1-0.3-1.4c-0.4-0.6-1.1-0.7-1.6-0.4
	c-0.1,0.1-0.3,0.2-0.4,0.4c-0.2,0.4-0.3,0.9-0.3,1.4V342.4z"/>
<path class="st5" d="M445.7,337.3v-1h2.7v8.1l0.8,0.2v1h-3.4v-1l0.8-0.2v-6.9L445.7,337.3z"/>
<path class="st5" d="M454,344.8c-0.2,0.3-0.4,0.5-0.7,0.7c-0.3,0.2-0.6,0.2-1,0.2c-0.7,0-1.4-0.3-1.9-0.9c-0.5-0.7-0.7-1.5-0.7-2.3
	v-0.1c0-0.9,0.2-1.7,0.7-2.5c0.4-0.6,1.1-1,1.9-0.9c0.3,0,0.6,0.1,0.9,0.2c0.3,0.1,0.5,0.4,0.7,0.6v-2.3l-0.9-0.2v-1h2.7v8.1
	l0.8,0.2v1h-2.4L454,344.8z M451.6,342.5c0,0.5,0.1,0.9,0.3,1.3c0.2,0.3,0.6,0.5,0.9,0.5c0.5,0,0.9-0.2,1.1-0.6V341
	c-0.1-0.2-0.3-0.4-0.5-0.5c-0.2-0.1-0.4-0.2-0.7-0.2c-0.4,0-0.8,0.2-0.9,0.6c-0.2,0.5-0.3,1-0.3,1.5V342.5z"/>
<path class="st5" d="M460.1,345.7c-0.8,0-1.7-0.3-2.2-0.9c-0.6-0.6-0.9-1.4-0.8-2.3v-0.2c0-0.9,0.2-1.7,0.8-2.4
	c1.1-1.2,3-1.2,4.2-0.1c0.5,0.6,0.8,1.4,0.7,2.1v1h-3.9l0,0c0,0.4,0.2,0.8,0.4,1.1c0.3,0.3,0.6,0.4,1,0.4c0.3,0,0.7,0,1-0.1
	c0.3-0.1,0.6-0.2,0.8-0.4l0.5,1.1c-0.3,0.2-0.6,0.4-1,0.5C461.1,345.6,460.6,345.7,460.1,345.7z M460,340.3c-0.3,0-0.6,0.1-0.8,0.4
	c-0.2,0.3-0.3,0.6-0.4,1l0,0h2.1v-0.1c0-0.3-0.1-0.6-0.3-0.9C460.6,340.4,460.3,340.3,460,340.3L460,340.3z"/>
<path class="st5" d="M463.7,344.5l0.8-0.2v-4l-0.9-0.2v-1.1h2.5l0.1,1c0.1-0.3,0.3-0.6,0.6-0.8c0.2-0.2,0.5-0.3,0.8-0.3h0.3l0.2,0
	l-0.2,1.6h-0.7c-0.2,0-0.4,0-0.6,0.1c-0.2,0.1-0.3,0.2-0.4,0.4v3.1l0.8,0.2v1h-3.4L463.7,344.5z"/>
<path class="st5" d="M478.3,339.6H477l-0.2-1.2c-0.2-0.1-0.4-0.2-0.7-0.2c-0.3-0.1-0.6-0.1-0.9-0.1c-0.4,0-0.8,0.1-1.1,0.3
	c-0.3,0.2-0.4,0.5-0.4,0.8c0,0.3,0.2,0.6,0.4,0.7c0.4,0.3,0.9,0.5,1.4,0.6c0.8,0.2,1.5,0.6,2.2,1.1c0.5,0.4,0.8,1.1,0.8,1.7
	c0,0.7-0.3,1.4-0.9,1.8c-0.7,0.5-1.5,0.7-2.3,0.6c-0.6,0-1.3-0.1-1.9-0.3c-0.5-0.2-1-0.5-1.4-0.9v-1.8h1.4l0.2,1.2
	c0.2,0.2,0.5,0.3,0.7,0.4c0.3,0.1,0.7,0.1,1,0.1c0.4,0,0.8-0.1,1.1-0.3c0.2-0.2,0.4-0.5,0.4-0.8c0-0.3-0.1-0.6-0.4-0.8
	c-0.4-0.3-0.8-0.5-1.2-0.6c-0.8-0.2-1.6-0.6-2.3-1.1c-0.5-0.4-0.8-1-0.8-1.7c0-0.7,0.3-1.3,0.9-1.7c0.7-0.5,1.4-0.7,2.2-0.7
	c0.6,0,1.2,0.1,1.8,0.3c0.5,0.2,1,0.5,1.4,0.8L478.3,339.6z"/>
<path class="st5" d="M479.1,337.9v-1h3.6v1l-0.9,0.2v2.5h3.5v-2.5l-0.9-0.2v-1h3.6v1l-0.9,0.2v6.2l0.9,0.2v1h-3.6v-1l0.9-0.2v-2.4
	h-3.5v2.4l0.9,0.2v1h-3.6v-1l0.9-0.2v-6.2L479.1,337.9z"/>
<path class="st5" d="M490.6,340.5h1c0.3,0,0.7-0.1,0.9-0.3c0.2-0.2,0.3-0.6,0.3-0.9c0-0.3-0.1-0.6-0.3-0.9c-0.2-0.2-0.5-0.3-0.9-0.3
	c-0.3,0-0.6,0.1-0.8,0.3c-0.2,0.2-0.3,0.5-0.3,0.8h-1.7l0,0c0-0.7,0.3-1.3,0.8-1.7c0.6-0.5,1.3-0.7,2-0.7c0.8,0,1.5,0.2,2.2,0.6
	c0.5,0.5,0.8,1.1,0.8,1.8c0,0.4-0.1,0.8-0.4,1.1c-0.3,0.4-0.6,0.6-1,0.8c0.4,0.1,0.8,0.4,1.1,0.8c0.3,0.4,0.4,0.8,0.4,1.2
	c0,0.7-0.3,1.4-0.9,1.9c-1.3,0.9-3,0.9-4.3,0c-0.6-0.4-0.9-1.1-0.8-1.8l0,0h1.7c0,0.3,0.1,0.6,0.4,0.8c0.5,0.4,1.3,0.4,1.9,0
	c0.2-0.2,0.4-0.6,0.4-0.9c0-0.4-0.1-0.7-0.3-1c-0.3-0.2-0.6-0.3-1-0.3h-1L490.6,340.5z"/>
<path class="st4" d="M437.6,324.2c-0.6,0-1-0.4-1-1v-5.5c0-1.7,0.7-3.4,2-4.6c1.2-1.2,2.8-1.9,4.5-1.9v-0.9
	c-2.7-1.3-4.5-3.9-5.1-6.8c-0.2-0.1-0.4-0.1-0.7-0.2c-1.2-0.6-1.9-1.8-1.9-3.1c0-0.5,0.1-1,0.3-1.4c-0.8-0.8-1.3-1.9-1.3-3
	c0-2.2,1.7-4,3.9-4.2c1.7-5,7-7.7,12-6c2.9,0.9,5.1,3.2,6,6c2.3,0.3,4,2.4,3.7,4.7c-0.1,0.9-0.5,1.8-1.2,2.4c0.2,0.5,0.4,1,0.4,1.5
	c0,1.6-1.1,2.9-2.6,3.3c-0.5,2.9-2.4,5.4-5,6.8v1c1.7,0.1,3.2,0.8,4.4,2c1.2,1.2,1.9,2.8,1.9,4.5v5.5c0,0.6-0.4,1-1,1L437.6,324.2z"
	/>
<path class="st5" d="M447.3,286c3.9,0,7.3,2.7,8.3,6.5h0.3c1.8,0,3.2,1.5,3.2,3.2c0,1.1-0.6,2.1-1.5,2.8c0.5,0.5,0.7,1.1,0.7,1.7
	c0,1.3-1.1,2.4-2.4,2.4l-0.1,0.1c-0.3,3.1-2.3,5.7-5.1,6.9v2.6h0.8c1.5,0,2.9,0.6,3.9,1.6c1,1,1.6,2.4,1.6,3.8v5.5h-19.3v-5.5
	c0-1.5,0.6-2.8,1.6-3.8c1-1,2.4-1.6,3.9-1.6h0.9v-2.4h0.2v-0.1c-2.9-1.2-5-3.9-5.4-7l-0.1-0.1c-0.3,0-0.7-0.1-1-0.2
	c-0.8-0.4-1.4-1.3-1.4-2.2c0-0.7,0.3-1.4,0.9-1.8l-0.1-0.4l-0.2,0.5c-0.9-0.6-1.5-1.6-1.5-2.8c0-1.8,1.5-3.2,3.2-3.2h0.2l0.3-0.4
	C440.3,288.4,443.6,285.9,447.3,286L447.3,286 M447.4,283.9c-4.3,0-8.2,2.6-9.8,6.6c-2.8,0.6-4.6,3.4-4,6.2c0.2,0.8,0.5,1.5,1,2.2
	c-0.1,0.4-0.2,0.8-0.2,1.2c0,1.7,1,3.3,2.5,4l0.2,0.1c0.6,2.5,2.1,4.7,4.3,6.2c-1.3,0.3-2.5,1-3.5,2c-1.5,1.4-2.3,3.3-2.3,5.3v5.5
	c0,1.1,0.9,2,2,2h19.3c1.1,0,2-0.9,2-2v-5.5c0-2-0.8-3.8-2.2-5.2c-0.9-1-2.1-1.7-3.4-2c2.2-1.5,3.7-3.7,4.3-6.2
	c1.6-0.7,2.7-2.3,2.7-4.1c0-0.5-0.1-0.9-0.2-1.4c0.6-0.9,1-2,1-3.1c0-2.4-1.7-4.5-4-5.1C455.5,286.6,451.6,284,447.4,283.9
	L447.4,283.9z"/>
<path class="st6" d="M444,309.8v2.4h-0.9c-1.5,0-2.8,0.6-3.9,1.6c-1.1,1-1.7,2.4-1.6,3.9v5.5h19.3v-5.5c0-1.5-0.6-2.8-1.6-3.9
	c-1-1.1-2.4-1.7-3.9-1.6h-0.9v-2.4"/>
<path class="st6" d="M445.5,305.4c0.4,0.6,1.1,1,1.9,1c0.8,0,1.5-0.4,1.9-1"/>
<path class="st5" d="M450.8,299.9c0.4,0,0.8,0.4,0.8,0.8c0,0.4-0.4,0.8-0.8,0.8s-0.8-0.4-0.8-0.8C450,300.2,450.4,299.9,450.8,299.9
	z"/>
<circle class="st5" cx="444.1" cy="300.7" r="0.8"/>
<path class="st6" d="M456.9,298c1.2,0.6,1.7,2.1,1.1,3.3c-0.4,0.8-1.2,1.4-2.2,1.4v-4.9C456.2,297.8,456.6,297.8,456.9,298z"/>
<path class="st6" d="M437.8,302.3c-1.2-0.6-1.7-2-1.1-3.2c0.4-0.8,1.3-1.4,2.2-1.4v4.9C438.4,302.6,438.1,302.5,437.8,302.3z"/>
<path class="st6" d="M445.3,297c0.4,0,0.8,0.4,0.8,0.8c0,0.4-0.4,0.8-0.8,0.8h-2.4c-0.4,0-0.8-0.4-0.8-0.8c0-0.4,0.4-0.8,0.8-0.8
	H445.3z"/>
<path class="st6" d="M452.8,297.8c0,0.4-0.4,0.8-0.8,0.8h-2.4c-0.4,0-0.8-0.4-0.8-0.8s0.4-0.8,0.8-0.8c0,0,0,0,0,0h2.4
	C452.4,297,452.8,297.4,452.8,297.8z"/>
<path class="st6" d="M437,298.5c-0.9-0.6-1.5-1.6-1.5-2.8c0-1.8,1.5-3.2,3.2-3.2h0.3"/>
<path class="st6" d="M457.6,298.5c0.9-0.6,1.5-1.6,1.5-2.8c0-1.8-1.5-3.2-3.2-3.2h-0.3"/>
<path class="st6" d="M446.9,286h0.8c4.5,0,8.1,3.6,8.1,8.1v8.1c0,4.5-3.6,8.1-8.1,8.1h-0.8c-4.5,0-8.1-3.6-8.1-8.1v-8.1
	C438.8,289.6,442.4,286,446.9,286z"/>
<path class="st5" d="M221.7,183.2c-0.2,0.3-0.4,0.5-0.7,0.7c-0.3,0.2-0.6,0.2-0.9,0.2c-0.7,0-1.4-0.3-1.9-0.9
	c-0.5-0.7-0.7-1.5-0.7-2.3v-0.1c0-0.9,0.2-1.7,0.7-2.5c0.4-0.6,1.1-1,1.9-0.9c0.3,0,0.6,0.1,0.9,0.2c0.3,0.2,0.5,0.4,0.7,0.6v-2.3
	l-0.9-0.2v-1.1h2.7v8.1l0.8,0.2v1h-2.4L221.7,183.2z M219.2,180.9c0,0.5,0.1,0.9,0.3,1.3c0.2,0.3,0.6,0.5,0.9,0.5
	c0.2,0,0.5,0,0.7-0.2c0.2-0.1,0.4-0.3,0.5-0.4v-2.7c-0.1-0.2-0.3-0.4-0.5-0.5c-0.2-0.1-0.4-0.2-0.6-0.2c-0.4,0-0.8,0.2-0.9,0.6
	c-0.2,0.5-0.3,1-0.3,1.5V180.9z"/>
<path class="st5" d="M228.9,184c0-0.1-0.1-0.2-0.1-0.3s-0.1-0.2-0.1-0.4c-0.2,0.2-0.5,0.4-0.8,0.6c-0.8,0.4-1.8,0.3-2.5-0.3
	c-0.4-0.4-0.6-0.9-0.6-1.4c0-0.6,0.3-1.1,0.7-1.4c0.6-0.4,1.4-0.5,2.1-0.5h0.9v-0.6c0-0.3-0.1-0.5-0.3-0.7c-0.2-0.2-0.5-0.3-0.8-0.2
	c-0.2,0-0.4,0-0.5,0.1c-0.1,0-0.3,0.1-0.4,0.2l-0.1,0.7h-1.3v-1.4c0.3-0.2,0.7-0.4,1.1-0.6c0.4-0.1,0.9-0.2,1.3-0.2
	c0.7,0,1.4,0.2,2,0.6c0.5,0.4,0.8,1,0.8,1.7v3c0,0.1,0,0.2,0,0.2l0.5,0.1v1H228.9z M227.3,182.8c0.2,0,0.5-0.1,0.7-0.2
	c0.2-0.1,0.4-0.2,0.5-0.4v-1h-0.9c-0.3,0-0.6,0.1-0.8,0.3c-0.2,0.2-0.3,0.4-0.3,0.6c0,0.2,0.1,0.4,0.2,0.5
	C226.9,182.8,227.1,182.8,227.3,182.8L227.3,182.8z"/>
<path class="st5" d="M233.6,175.9v1.6h1.1v1.2h-1.1v3.3c0,0.2,0,0.4,0.2,0.5c0.1,0.1,0.3,0.2,0.4,0.2h0.3l0.3-0.1l0.1,1.3
	c-0.4,0.1-0.8,0.2-1.2,0.2c-0.5,0-1-0.1-1.4-0.5c-0.4-0.4-0.5-1-0.5-1.6v-3.3h-0.9v-1.2h0.9v-1.6H233.6z"/>
<path class="st5" d="M239.7,184c0-0.1-0.1-0.2-0.1-0.3c0-0.1-0.1-0.2-0.1-0.4c-0.4,0.5-1.1,0.8-1.8,0.8c-0.6,0-1.1-0.2-1.5-0.5
	c-0.4-0.4-0.6-0.9-0.6-1.4c0-0.6,0.3-1.1,0.7-1.4c0.6-0.4,1.4-0.5,2.1-0.5h0.9v-0.6c0-0.3-0.1-0.5-0.3-0.7c-0.2-0.2-0.5-0.3-0.8-0.2
	c-0.2,0-0.4,0-0.5,0.1c-0.1,0-0.3,0.1-0.4,0.2l-0.1,0.7H236v-1.4c0.3-0.2,0.7-0.4,1.1-0.6c0.4-0.1,0.9-0.2,1.4-0.2
	c0.7,0,1.4,0.2,2,0.6c0.5,0.4,0.8,1,0.8,1.7v3c0,0.1,0,0.2,0,0.2l0.5,0.1v1L239.7,184z M238.2,182.8c0.3,0,0.5-0.1,0.7-0.2
	c0.2-0.1,0.4-0.2,0.5-0.4v-1h-0.9c-0.3,0-0.6,0.1-0.8,0.3c-0.2,0.2-0.3,0.4-0.3,0.6c0,0.2,0.1,0.4,0.2,0.5
	C237.7,182.8,237.9,182.8,238.2,182.8L238.2,182.8z"/>
<path class="st5" d="M317.4,178h-1.3l-0.2-1.2c-0.2-0.1-0.4-0.2-0.7-0.2c-0.3-0.1-0.6-0.1-0.9-0.1c-0.4,0-0.8,0.1-1.1,0.3
	c-0.3,0.2-0.4,0.5-0.4,0.8c0,0.3,0.2,0.6,0.4,0.7c0.4,0.3,0.9,0.5,1.4,0.6c0.8,0.2,1.5,0.6,2.2,1.1c0.5,0.4,0.8,1.1,0.7,1.7
	c0,0.7-0.3,1.4-0.9,1.8c-0.7,0.5-1.5,0.7-2.3,0.6c-0.6,0-1.3-0.1-1.9-0.3c-0.5-0.2-1-0.5-1.4-0.9V181h1.4l0.2,1.2
	c0.2,0.2,0.5,0.3,0.7,0.4c0.3,0.1,0.7,0.1,1,0.1c0.4,0,0.8-0.1,1.1-0.3c0.2-0.2,0.4-0.5,0.4-0.8c0-0.3-0.1-0.6-0.4-0.8
	c-0.4-0.3-0.8-0.5-1.2-0.6c-0.8-0.2-1.6-0.6-2.4-1.1c-0.5-0.4-0.8-1-0.8-1.7c0-0.7,0.3-1.3,0.9-1.7c0.7-0.5,1.5-0.7,2.3-0.7
	c0.6,0,1.2,0.1,1.8,0.3c0.5,0.2,1,0.5,1.4,0.8V178z"/>
<path class="st5" d="M321.4,184.1c-0.8,0-1.7-0.3-2.2-0.9c-0.6-0.6-0.9-1.4-0.8-2.3v-0.2c0-0.9,0.3-1.7,0.8-2.4
	c1.1-1.2,3-1.2,4.1-0.1c0.5,0.6,0.8,1.4,0.7,2.1v1h-3.9l0,0c0,0.4,0.2,0.7,0.4,1c0.3,0.3,0.6,0.4,1,0.4c0.3,0,0.7,0,1-0.1
	c0.3-0.1,0.6-0.2,0.8-0.4l0.5,1.1c-0.3,0.2-0.6,0.4-1,0.5C322.4,184,321.9,184.1,321.4,184.1z M321.2,178.7c-0.3,0-0.6,0.1-0.8,0.4
	c-0.2,0.3-0.3,0.6-0.4,1l0,0h2.1v-0.1c0-0.3-0.1-0.7-0.2-0.9C321.8,178.8,321.5,178.7,321.2,178.7z"/>
<path class="st5" d="M324.9,182.9l0.8-0.2v-4l-0.9-0.2v-1.1h2.6l0.1,1c0.1-0.3,0.3-0.6,0.6-0.8c0.2-0.2,0.5-0.3,0.8-0.3h0.3l0.2,0.1
	l-0.2,1.6h-0.7c-0.2,0-0.4,0-0.6,0.1c-0.2,0.1-0.3,0.2-0.4,0.4v3.1l0.8,0.2v1h-3.4L324.9,182.9z"/>
<path class="st5" d="M332.8,178.5l-0.6,0.1l0.9,2.9l0.1,0.6l0,0l0.1-0.6l0.8-2.9l-0.6-0.1v-1.1h2.9v1.1l-0.6,0.1L334,184h-1.7
	l-1.9-5.3l-0.6-0.1v-1.1h2.9V178.5z"/>
<path class="st5" d="M337,182.9l0.8-0.2v-4l-0.9-0.2v-1.1h2.7v5.2l0.8,0.2v1H337V182.9z M339.6,175.9h-1.7v-1.3h1.7V175.9z"/>
<path class="st5" d="M344,182.7c0.3,0,0.5-0.1,0.8-0.3c0.2-0.2,0.3-0.5,0.3-0.7h1.6l0,0c0,0.6-0.3,1.2-0.7,1.6c-1.2,1-3,0.9-4.1-0.3
	c-0.5-0.7-0.8-1.5-0.8-2.4v-0.2c0-0.9,0.3-1.7,0.8-2.4c0.6-0.6,1.4-1,2.3-0.9c0.5,0,1,0.1,1.4,0.2c0.4,0.1,0.7,0.4,1,0.6v1.7H345
	l-0.3-1c-0.1-0.1-0.2-0.1-0.3-0.2c-0.1-0.1-0.3-0.1-0.4-0.1c-0.4,0-0.8,0.2-1,0.5c-0.2,0.4-0.3,0.9-0.3,1.4v0.2c0,0.5,0.1,1,0.3,1.4
	C343.2,182.6,343.6,182.8,344,182.7z"/>
<path class="st5" d="M350.5,184.1c-0.8,0-1.7-0.3-2.2-0.9c-0.6-0.6-0.9-1.4-0.8-2.3v-0.2c0-0.9,0.2-1.7,0.8-2.4
	c1.1-1.2,3-1.2,4.2-0.1c0.5,0.6,0.8,1.4,0.7,2.1v1h-3.9l0,0c0,0.4,0.2,0.7,0.4,1c0.3,0.3,0.6,0.4,1,0.4c0.3,0,0.7,0,1-0.1
	c0.3-0.1,0.6-0.2,0.8-0.4l0.5,1.1c-0.3,0.2-0.6,0.4-1,0.5C351.5,184,351,184.1,350.5,184.1z M350.4,178.7c-0.3,0-0.6,0.1-0.8,0.4
	c-0.2,0.3-0.3,0.6-0.4,1l0,0h2.1v-0.1c0-0.3-0.1-0.6-0.3-0.9C350.9,178.8,350.7,178.7,350.4,178.7z"/>
<path class="st5" d="M363.5,178h-1.3l-0.2-1.2c-0.2-0.1-0.4-0.2-0.7-0.2c-0.3-0.1-0.6-0.1-0.9-0.1c-0.4,0-0.8,0.1-1.1,0.3
	c-0.3,0.2-0.4,0.5-0.4,0.8c0,0.3,0.2,0.6,0.4,0.7c0.4,0.3,0.9,0.5,1.4,0.6c0.8,0.2,1.5,0.6,2.2,1.1c0.5,0.4,0.8,1.1,0.7,1.7
	c0,0.7-0.3,1.4-0.9,1.8c-0.7,0.5-1.5,0.7-2.3,0.6c-0.6,0-1.3-0.1-1.9-0.3c-0.5-0.2-1-0.5-1.4-0.9V181h1.4l0.2,1.2
	c0.2,0.2,0.5,0.3,0.7,0.4c0.3,0.1,0.7,0.1,1,0.1c0.4,0,0.8-0.1,1.1-0.3c0.2-0.2,0.4-0.5,0.4-0.8c0-0.3-0.1-0.6-0.4-0.8
	c-0.4-0.3-0.8-0.5-1.2-0.6c-0.8-0.2-1.6-0.6-2.4-1.1c-0.5-0.4-0.8-1-0.8-1.7c0-0.7,0.3-1.3,0.9-1.7c0.7-0.5,1.4-0.7,2.2-0.7
	c0.6,0,1.2,0.1,1.8,0.3c0.5,0.2,1,0.5,1.4,0.8L363.5,178z"/>
<path class="st5" d="M364.4,184v-1.1l2.8-3c0.3-0.4,0.6-0.8,0.9-1.2c0.2-0.3,0.2-0.6,0.3-0.9c0-0.3-0.1-0.6-0.3-0.9
	c-0.2-0.2-0.5-0.4-0.8-0.4c-0.4,0-0.7,0.1-0.9,0.4c-0.2,0.3-0.3,0.7-0.3,1h-1.7l0,0c0-0.7,0.2-1.5,0.8-2c0.6-0.6,1.4-0.9,2.2-0.8
	c0.8,0,1.5,0.2,2.1,0.7c0.5,0.5,0.8,1.2,0.8,1.9c0,0.5-0.1,1-0.4,1.4c-0.4,0.6-0.9,1.2-1.4,1.8l-1.5,1.7l0,0h2.3l0.1-0.9h1.3v2.2
	H364.4z"/>
<path class="st5" d="M311.3,197.4c0.3,0,0.5-0.1,0.8-0.3c0.2-0.2,0.3-0.5,0.3-0.7h1.6l0,0c0,0.6-0.2,1.2-0.7,1.6
	c-1.2,1-3,0.9-4.1-0.3c-0.5-0.7-0.8-1.5-0.8-2.4v-0.2c0-0.9,0.3-1.7,0.8-2.4c0.6-0.6,1.4-1,2.3-0.9c0.5,0,1,0.1,1.4,0.2
	c0.4,0.1,0.7,0.4,1,0.6v1.7h-1.3l-0.3-1c-0.1-0.1-0.2-0.1-0.3-0.2c-0.1,0-0.3-0.1-0.4-0.1c-0.4,0-0.8,0.2-1,0.5
	c-0.2,0.4-0.3,0.9-0.3,1.4v0.2c0,0.5,0.1,1,0.3,1.4C310.5,197.2,310.9,197.5,311.3,197.4z"/>
<path class="st5" d="M314.7,195.4c0-0.9,0.3-1.7,0.8-2.4c0.6-0.6,1.4-1,2.2-0.9c0.9,0,1.7,0.3,2.3,0.9c0.6,0.7,0.8,1.5,0.8,2.4v0.1
	c0,0.9-0.3,1.7-0.8,2.4c-0.6,0.6-1.4,1-2.2,0.9c-0.8,0-1.7-0.3-2.2-0.9c-0.6-0.7-0.8-1.5-0.8-2.4L314.7,195.4z M316.4,195.5
	c0,0.5,0.1,1,0.3,1.4c0.2,0.4,0.6,0.6,1,0.5c0.4,0,0.8-0.2,1-0.5c0.2-0.4,0.3-0.9,0.3-1.4v-0.1c0-0.5-0.1-1-0.3-1.4
	c-0.2-0.4-0.6-0.6-1-0.5c-0.4,0-0.8,0.2-1,0.5c-0.2,0.4-0.3,0.9-0.3,1.4V195.5z"/>
<path class="st5" d="M325.8,197.9c-0.2,0.3-0.4,0.5-0.7,0.7c-0.3,0.2-0.7,0.3-1,0.2c-0.7,0-1.4-0.3-1.9-0.9
	c-0.5-0.7-0.7-1.5-0.7-2.3v-0.1c0-0.9,0.2-1.7,0.7-2.5c0.4-0.6,1.1-1,1.9-0.9c0.3,0,0.6,0.1,0.9,0.2c0.3,0.2,0.5,0.4,0.7,0.6v-2.3
	l-0.9-0.2v-1.1h2.7v8.1l0.8,0.2v1h-2.4L325.8,197.9z M323.3,195.6c0,0.5,0.1,0.9,0.3,1.3c0.2,0.3,0.6,0.5,0.9,0.5
	c0.2,0,0.5,0,0.7-0.2c0.2-0.1,0.3-0.3,0.5-0.4v-2.8c-0.1-0.2-0.3-0.4-0.5-0.5c-0.2-0.1-0.4-0.2-0.6-0.2c-0.4,0-0.8,0.2-0.9,0.6
	c-0.2,0.5-0.3,1-0.3,1.5V195.6z"/>
<path class="st5" d="M331.9,198.8c-0.8,0-1.7-0.3-2.2-0.9c-0.6-0.6-0.9-1.4-0.8-2.3v-0.2c0-0.9,0.2-1.7,0.8-2.4
	c1.1-1.2,3-1.2,4.2-0.1c0.5,0.6,0.8,1.4,0.7,2.1v1h-3.9l0,0c0,0.4,0.2,0.8,0.4,1.1c0.3,0.3,0.6,0.4,1,0.4c0.3,0,0.7,0,1-0.1
	c0.3-0.1,0.6-0.2,0.8-0.4l0.5,1.1c-0.3,0.2-0.6,0.4-1,0.5C332.9,198.7,332.4,198.8,331.9,198.8z M331.7,193.4
	c-0.3,0-0.6,0.1-0.8,0.4c-0.2,0.3-0.3,0.6-0.3,1l0,0h2.1v-0.1c0-0.3-0.1-0.6-0.3-0.9C332.3,193.5,332,193.4,331.7,193.4L331.7,193.4
	z"/>
<path class="st5" d="M338.2,196.3c0-0.4,0.1-0.9,0.4-1.2c0.3-0.4,0.7-0.8,1.2-1.1c-0.2-0.3-0.4-0.6-0.6-1c-0.4-0.9-0.2-1.9,0.4-2.6
	c0.5-0.4,1.1-0.6,1.7-0.6c0.6,0,1.1,0.2,1.5,0.6c0.4,0.4,0.6,0.9,0.6,1.4c0,0.4-0.1,0.7-0.3,1.1c-0.2,0.3-0.5,0.6-0.8,0.9l-0.6,0.4
	l1.6,1.9c0.1-0.2,0.3-0.5,0.3-0.8c0.1-0.3,0.1-0.6,0.1-0.9h1.3c0,0.5-0.1,1-0.2,1.5c-0.1,0.4-0.3,0.9-0.6,1.2l1.2,1.5l0,0h-1.9
	l-0.5-0.5c-0.3,0.2-0.7,0.4-1,0.5c-0.4,0.1-0.8,0.2-1.1,0.2c-0.8,0-1.5-0.2-2.1-0.7C338.5,197.6,338.2,197,338.2,196.3z
	 M341.1,197.4c0.2,0,0.4,0,0.6-0.1c0.2-0.1,0.4-0.1,0.6-0.2l-1.8-2.1l-0.1,0.1c-0.2,0.2-0.3,0.3-0.4,0.6c-0.1,0.2-0.1,0.4-0.1,0.6
	c0,0.3,0.1,0.6,0.3,0.9C340.5,197.3,340.8,197.4,341.1,197.4L341.1,197.4z M340.5,192.1c0,0.2,0,0.4,0.1,0.5
	c0.1,0.2,0.2,0.4,0.4,0.6l0.5-0.3c0.2-0.1,0.3-0.3,0.5-0.4c0.1-0.2,0.1-0.3,0.1-0.5c0-0.2-0.1-0.4-0.2-0.5c-0.1-0.2-0.4-0.2-0.6-0.2
	c-0.2,0-0.4,0.1-0.6,0.3C340.6,191.6,340.5,191.8,340.5,192.1z"/>
<path class="st5" d="M353.2,197.9c-0.2,0.3-0.4,0.5-0.7,0.7c-0.3,0.2-0.6,0.2-1,0.2c-0.7,0-1.4-0.3-1.9-0.9
	c-0.5-0.7-0.7-1.5-0.7-2.3v-0.1c0-0.9,0.2-1.7,0.7-2.5c0.4-0.6,1.1-1,1.9-0.9c0.3,0,0.6,0.1,0.9,0.2c0.3,0.1,0.5,0.4,0.7,0.6v-2.3
	l-0.9-0.2v-1.1h2.7v8.1l0.8,0.2v1h-2.4L353.2,197.9z M350.7,195.6c0,0.5,0.1,0.9,0.3,1.3c0.2,0.3,0.6,0.5,0.9,0.5
	c0.2,0,0.5,0,0.7-0.2c0.2-0.1,0.3-0.3,0.5-0.4v-2.8c-0.1-0.2-0.3-0.4-0.5-0.5c-0.2-0.1-0.4-0.2-0.7-0.2c-0.4,0-0.8,0.2-0.9,0.6
	c-0.2,0.5-0.3,1-0.3,1.5V195.6z"/>
<path class="st5" d="M360.3,198.6c0-0.1-0.1-0.2-0.1-0.3c0-0.1-0.1-0.2-0.1-0.3c-0.4,0.5-1.1,0.8-1.8,0.8c-0.6,0-1.1-0.2-1.5-0.5
	c-0.4-0.4-0.6-0.9-0.6-1.4c0-0.6,0.3-1.1,0.7-1.4c0.6-0.4,1.4-0.5,2.1-0.5h0.9v-0.6c0-0.3-0.1-0.5-0.3-0.7c-0.2-0.2-0.5-0.3-0.8-0.2
	c-0.2,0-0.4,0-0.5,0.1c-0.1,0-0.3,0.1-0.4,0.2l-0.1,0.7h-1.3v-1.4c0.3-0.2,0.7-0.4,1.1-0.6c0.4-0.1,0.9-0.2,1.4-0.2
	c0.7,0,1.4,0.2,2,0.6c0.5,0.4,0.8,1,0.8,1.7v3c0,0.1,0,0.2,0,0.2l0.5,0.1v1L360.3,198.6z M358.8,197.5c0.3,0,0.5-0.1,0.7-0.2
	c0.2-0.1,0.4-0.3,0.5-0.4v-1h-0.9c-0.3,0-0.6,0.1-0.8,0.3c-0.2,0.2-0.3,0.4-0.3,0.6c0,0.2,0.1,0.4,0.2,0.5
	C358.4,197.4,358.6,197.5,358.8,197.5z"/>
<path class="st5" d="M365,190.6v1.6h1.1v1.2H365v3.3c0,0.2,0,0.4,0.1,0.5c0.1,0.1,0.3,0.2,0.4,0.2h0.3h0.3l0.1,1.3
	c-0.2,0.1-0.4,0.1-0.6,0.1c-0.2,0-0.4,0-0.6,0.1c-0.5,0-1-0.1-1.4-0.5c-0.4-0.4-0.5-1-0.5-1.6v-3.3h-1v-1.2h1v-1.6L365,190.6z"/>
<path class="st5" d="M371.1,198.6c0-0.1-0.1-0.2-0.1-0.3s-0.1-0.2-0.1-0.3c-0.2,0.2-0.5,0.4-0.8,0.6c-0.3,0.1-0.7,0.2-1,0.2
	c-0.6,0-1.1-0.2-1.5-0.5c-0.4-0.4-0.6-0.9-0.6-1.4c0-0.6,0.3-1.1,0.7-1.4c0.6-0.4,1.4-0.5,2.1-0.5h0.9v-0.6c0-0.3-0.1-0.5-0.3-0.7
	c-0.2-0.2-0.5-0.3-0.8-0.2c-0.2,0-0.4,0-0.5,0.1c-0.1,0-0.3,0.1-0.4,0.2l-0.1,0.7h-1.3v-1.4c0.3-0.2,0.7-0.4,1.1-0.6
	c0.4-0.1,0.9-0.2,1.3-0.2c0.7,0,1.4,0.2,2,0.6c0.5,0.4,0.8,1,0.8,1.7v3c0,0.1,0,0.2,0,0.2l0.5,0.1v1L371.1,198.6z M369.6,197.5
	c0.2,0,0.5-0.1,0.7-0.2c0.2-0.1,0.4-0.2,0.5-0.4v-1H370c-0.3,0-0.6,0.1-0.8,0.3c-0.2,0.2-0.3,0.4-0.3,0.6c0,0.2,0.1,0.4,0.2,0.5
	C369.2,197.4,369.4,197.5,369.6,197.5z"/>
<line class="st14" x1="178.5" y1="178.5" x2="193.5" y2="178.5"/>
<polygon class="st5" points="188.8,184.2 187.9,183.2 192.9,178.5 187.9,173.8 188.8,172.8 195,178.5 "/>
<path class="st5" d="M447.7,183.2c-0.2,0.3-0.4,0.5-0.7,0.7c-0.3,0.2-0.7,0.3-1,0.2c-0.7,0-1.4-0.3-1.9-0.9
	c-0.5-0.7-0.7-1.5-0.7-2.3v-0.1c0-0.9,0.2-1.7,0.7-2.5c0.4-0.6,1.1-1,1.9-0.9c0.3,0,0.6,0.1,0.9,0.2c0.3,0.2,0.5,0.4,0.7,0.6v-2.3
	l-0.9-0.2v-1.1h2.7v8.1l0.8,0.2v1h-2.4L447.7,183.2z M445.2,180.9c0,0.5,0.1,0.9,0.3,1.3c0.2,0.3,0.6,0.5,0.9,0.5
	c0.2,0,0.5,0,0.7-0.2c0.2-0.1,0.4-0.3,0.5-0.4v-2.7c-0.1-0.2-0.3-0.4-0.5-0.5c-0.2-0.1-0.4-0.2-0.6-0.2c-0.4,0-0.8,0.2-0.9,0.6
	c-0.2,0.5-0.3,1-0.3,1.5L445.2,180.9z"/>
<path class="st5" d="M454.9,184c0-0.1-0.1-0.2-0.1-0.3s-0.1-0.2-0.1-0.4c-0.2,0.2-0.5,0.4-0.8,0.6c-0.8,0.4-1.8,0.3-2.5-0.3
	c-0.4-0.4-0.6-0.9-0.6-1.4c0-0.6,0.3-1.1,0.7-1.4c0.6-0.4,1.4-0.5,2.1-0.5h0.9v-0.6c0-0.3-0.1-0.5-0.3-0.7c-0.2-0.2-0.5-0.3-0.8-0.2
	c-0.2,0-0.4,0-0.5,0.1c-0.1,0-0.3,0.1-0.4,0.2l-0.1,0.7h-1.3v-1.4c0.3-0.2,0.7-0.4,1.1-0.6c0.4-0.1,0.9-0.2,1.3-0.2
	c0.7,0,1.4,0.2,2,0.6c0.5,0.4,0.8,1,0.8,1.7v3c0,0.1,0,0.2,0,0.2l0.5,0.1v1H454.9z M453.3,182.8c0.2,0,0.5-0.1,0.7-0.2
	c0.2-0.1,0.4-0.2,0.5-0.4v-1h-0.9c-0.3,0-0.6,0.1-0.8,0.3c-0.2,0.2-0.3,0.4-0.3,0.6c0,0.2,0.1,0.4,0.2,0.5
	C452.9,182.8,453.1,182.8,453.3,182.8L453.3,182.8z"/>
<path class="st5" d="M459.5,175.9v1.6h1.1v1.2h-1.1v3.3c0,0.2,0,0.4,0.2,0.5c0.1,0.1,0.3,0.2,0.4,0.2h0.3l0.3-0.1l0.1,1.3
	c-0.4,0.1-0.8,0.2-1.2,0.2c-0.5,0-1-0.1-1.4-0.5c-0.4-0.4-0.5-1-0.5-1.6v-3.3h-1v-1.2h1v-1.6H459.5z"/>
<path class="st5" d="M465.7,184c0-0.1-0.1-0.2-0.1-0.3c0-0.3-0.2-0.5-0.4-0.5c-0.3,0-0.5,0.2-0.5,0.4c0,0.1,0,0.2,0.1,0.3
	c-0.3,0.2-0.7,0.2-1,0.2c-0.6,0-1.1-0.2-1.5-0.5c-0.4-0.4-0.6-0.9-0.6-1.4c0-0.6,0.3-1.1,0.7-1.4c0.6-0.4,1.4-0.5,2.1-0.5h0.9v-0.6
	c0-0.3-0.1-0.5-0.3-0.7c-0.2-0.2-0.5-0.3-0.8-0.2c-0.2,0-0.4,0-0.5,0.1c-0.1,0-0.3,0.1-0.4,0.2l-0.1,0.7H462v-1.4
	c0.3-0.2,0.7-0.4,1.1-0.6c0.4-0.1,0.9-0.2,1.4-0.2c0.7,0,1.4,0.2,2,0.6c0.5,0.4,0.8,1,0.8,1.7v3c0,0.1,0,0.2,0,0.2l0.5,0.1v1
	L465.7,184z M464.1,182.8c0.3,0,0.5-0.1,0.7-0.2c0.2-0.1,0.4-0.2,0.5-0.4v-1h-0.9c-0.3,0-0.6,0.1-0.8,0.3c-0.2,0.2-0.3,0.4-0.3,0.6
	c0,0.2,0.1,0.4,0.2,0.5C463.7,182.8,463.9,182.8,464.1,182.8L464.1,182.8z"/>
<line class="st14" x1="404.5" y1="178.5" x2="419.5" y2="178.5"/>
<polygon class="st5" points="414.8,184.2 413.9,183.2 418.9,178.5 413.9,173.8 414.8,172.8 421,178.5 "/>
<line class="st14" x1="264.5" y1="178.5" x2="279.5" y2="178.5"/>
<polygon class="st5" points="274.8,184.2 273.9,183.2 278.9,178.5 273.9,173.8 274.8,172.8 281,178.5 "/>
<polyline class="st15" points="96.8,164.9 92.2,161.6 96.8,158.3 "/>
<polyline class="st15" points="106.6,158.3 111.1,161.6 106.6,164.9 "/>
<line class="st15" x1="99.9" y1="166.7" x2="103.5" y2="156.3"/>
<path class="st16" d="M138.2,156.8v1.5h-1.4v-1.5H138.2 M130.6,156.8v1.5h-1.4v-1.5H130.6 M134.2,164.5v1.5h-1.4v-1.5H134.2
	 M126.6,164.5v1.5h-1.4v-1.5H126.6 M139,154.8h-3.1c-0.7,0-1.2,0.5-1.2,1.2c0,0,0,0,0,0v3.1c0,0.7,0.5,1.2,1.2,1.2h3.1
	c0.7,0,1.2-0.5,1.2-1.2V156C140.2,155.3,139.7,154.8,139,154.8C139,154.8,139,154.8,139,154.8z M131.4,154.8h-3.1
	c-0.7,0-1.2,0.5-1.2,1.2l0,0v3.1c0,0.7,0.5,1.2,1.2,1.2h3.1c0.7,0,1.2-0.5,1.2-1.2l0,0V156C132.6,155.3,132,154.8,131.4,154.8
	L131.4,154.8L131.4,154.8z M135,162.5h-3c-0.7,0-1.2,0.5-1.2,1.2v3.1c0,0.7,0.5,1.2,1.2,1.2h3.1c0.7,0,1.2-0.5,1.2-1.2c0,0,0,0,0,0
	v-3.1C136.3,163,135.7,162.5,135,162.5C135.1,162.5,135.1,162.5,135,162.5L135,162.5z M127.4,162.5h-3.1c-0.7,0-1.2,0.5-1.2,1.2v3.1
	c0,0.7,0.5,1.2,1.2,1.2h3.1c0.7,0,1.2-0.5,1.2-1.2v-3.1C128.6,163,128.1,162.5,127.4,162.5z"/>
<path class="st13" d="M236.2,156.8v1.5h-1.4v-1.5H236.2 M228.6,156.8v1.5h-1.4v-1.5H228.6 M232.2,164.5v1.5h-1.4v-1.5H232.2
	 M224.6,164.5v1.5h-1.4v-1.5H224.6 M237,154.8h-3.1c-0.7,0-1.2,0.5-1.2,1.2c0,0,0,0,0,0v3.1c0,0.7,0.5,1.2,1.2,1.2h3.1
	c0.7,0,1.2-0.5,1.2-1.2V156C238.2,155.3,237.7,154.8,237,154.8C237,154.8,237,154.8,237,154.8z M229.4,154.8h-3.1
	c-0.7,0-1.2,0.5-1.2,1.2l0,0v3.1c0,0.7,0.5,1.2,1.2,1.2h3.1c0.7,0,1.2-0.5,1.2-1.2l0,0V156C230.6,155.3,230,154.8,229.4,154.8
	L229.4,154.8L229.4,154.8z M233,162.5h-3c-0.7,0-1.2,0.5-1.2,1.2v3.1c0,0.7,0.5,1.2,1.2,1.2h3.1c0.7,0,1.2-0.5,1.2-1.2c0,0,0,0,0,0
	v-3.1C234.3,163,233.7,162.5,233,162.5C233.1,162.5,233.1,162.5,233,162.5L233,162.5z M225.4,162.5h-3.1c-0.7,0-1.2,0.5-1.2,1.2v3.1
	c0,0.7,0.5,1.2,1.2,1.2h3.1c0.7,0,1.2-0.5,1.2-1.2v-3.1C226.6,163,226.1,162.5,225.4,162.5z"/>
<path class="st13" d="M461.2,156.8v1.5h-1.4v-1.5H461.2 M453.6,156.8v1.5h-1.5v-1.5H453.6 M457.2,164.5v1.5h-1.5v-1.5H457.2
	 M449.6,164.5v1.5h-1.4v-1.5H449.6 M462,154.8h-3.1c-0.7,0-1.2,0.5-1.2,1.2c0,0,0,0,0,0v3.1c0,0.7,0.5,1.2,1.2,1.2h3.1
	c0.7,0,1.2-0.5,1.2-1.2V156C463.2,155.3,462.7,154.8,462,154.8C462,154.8,462,154.8,462,154.8z M454.4,154.8h-3.1
	c-0.7,0-1.2,0.5-1.2,1.2l0,0v3.1c0,0.7,0.5,1.2,1.2,1.2h3.1c0.7,0,1.2-0.5,1.2-1.2l0,0V156C455.5,155.3,455,154.8,454.4,154.8
	L454.4,154.8L454.4,154.8z M458,162.5h-3c-0.7,0-1.2,0.5-1.2,1.2v3.1c0,0.7,0.5,1.2,1.2,1.2h3.1c0.7,0,1.2-0.5,1.2-1.2c0,0,0,0,0,0
	v-3.1C459.3,163,458.7,162.5,458,162.5C458.1,162.5,458.1,162.5,458,162.5L458,162.5z M450.4,162.5h-3.1c-0.7,0-1.2,0.5-1.2,1.2v3.1
	c0,0.7,0.5,1.2,1.2,1.2h3.1c0.7,0,1.2-0.5,1.2-1.2v-3.1C451.6,163,451.1,162.5,450.4,162.5z"/>
<polyline class="st17" points="320.7,164.8 316.2,161.5 320.8,158.2 "/>
<polyline class="st17" points="330.6,158.3 335.1,161.7 330.5,164.9 "/>
<line class="st17" x1="323.8" y1="166.7" x2="327.5" y2="156.3"/>
<path class="st10" d="M362.2,156.8v1.5h-1.4v-1.5H362.2 M354.6,156.8v1.5h-1.5v-1.5H354.6 M358.2,164.5v1.5h-1.5v-1.5H358.2
	 M350.6,164.5v1.5h-1.4v-1.5H350.6 M363,154.8h-3.1c-0.7,0-1.2,0.5-1.2,1.2c0,0,0,0,0,0v3.1c0,0.7,0.5,1.2,1.2,1.2h3.1
	c0.7,0,1.2-0.5,1.2-1.2V156C364.2,155.3,363.7,154.8,363,154.8C363,154.8,363,154.8,363,154.8z M355.4,154.8h-3.1
	c-0.7,0-1.2,0.5-1.2,1.2l0,0v3.1c0,0.7,0.5,1.2,1.2,1.2h3.1c0.7,0,1.2-0.5,1.2-1.2V156C356.6,155.3,356,154.8,355.4,154.8
	C355.4,154.8,355.4,154.8,355.4,154.8L355.4,154.8z M359,162.5h-3c-0.7,0-1.2,0.5-1.2,1.2v3.1c0,0.7,0.5,1.2,1.2,1.2h3.1
	c0.7,0,1.2-0.5,1.2-1.2c0,0,0,0,0,0v-3.1C360.3,163,359.7,162.5,359,162.5C359.1,162.5,359.1,162.5,359,162.5L359,162.5z
	 M351.4,162.5h-3.1c-0.7,0-1.2,0.5-1.2,1.2v3.1c0,0.7,0.5,1.2,1.2,1.2h3.1c0.7,0,1.2-0.5,1.2-1.2v-3.1
	C352.6,163,352.1,162.5,351.4,162.5z"/>
<line class="st18" x1="448" y1="279" x2="448" y2="223"/>
<path class="st19" d="M56,125h436c2.2,0,4,1.8,4,4v90c0,2.2-1.8,4-4,4H56c-2.2,0-4-1.8-4-4v-90C52,126.8,53.8,125,56,125z"/>
<line class="st20" x1="458.7" y1="279" x2="458.7" y2="202.5"/>
<polygon class="st12" points="464.4,207.2 463.4,208.1 458.7,203.1 454,208.1 453,207.2 458.7,201 "/>
<polyline class="st20" points="230,202.5 229.9,267.6 439,268.4 438.9,279 "/>
<polygon class="st12" points="224.3,207.1 225.3,208.1 230,203.1 234.7,208.1 235.7,207.2 230,201 "/>
<line class="st19" x1="113.3" y1="223" x2="113.3" y2="224"/>
<line class="st21" x1="113.3" y1="226" x2="113.3" y2="284"/>
<line class="st19" x1="113.3" y1="285" x2="113.3" y2="286"/>
<circle class="st22" cx="113.8" cy="257.2" r="5.9"/>
<line class="st19" x1="118" y1="261.4" x2="109.6" y2="253.1"/>
<line class="st19" x1="113.3" y1="84" x2="113.3" y2="85"/>
<line class="st23" x1="113.3" y1="86.9" x2="113.3" y2="124.1"/>
<line class="st19" x1="113.3" y1="125" x2="113.3" y2="126"/>
<circle class="st22" cx="113.8" cy="97.2" r="5.9"/>
<line class="st19" x1="118" y1="101.4" x2="109.6" y2="93.1"/>
<line class="st19" x1="341.4" y1="84" x2="341.4" y2="85"/>
<line class="st23" x1="341.4" y1="86.9" x2="341.4" y2="124.1"/>
<line class="st19" x1="341.4" y1="125" x2="341.4" y2="126"/>
<circle class="st22" cx="341.8" cy="97.2" r="5.9"/>
<line class="st19" x1="346" y1="101.4" x2="337.6" y2="93.1"/>
<circle class="st22" cx="447.8" cy="257.2" r="5.9"/>
<line class="st19" x1="452" y1="261.4" x2="443.6" y2="253.1"/>
<text transform="matrix(1 0 0 1 239.37 233.3705)" class="st24 st25">TEE + Sandbox</text>
</svg>
