<svg xmlns="http://www.w3.org/2000/svg" xmlns:xlink="http://www.w3.org/1999/xlink" viewBox="0 0 549.38 319.99"><defs><style>.cls-1,.cls-30,.cls-31,.cls-4,.cls-8{fill:none;}.cls-2{opacity:0.2;}.cls-3{fill:#fc9;}.cls-29,.cls-31,.cls-4{stroke:#c30;}.cls-4,.cls-5,.cls-6,.cls-8{stroke-miterlimit:10;}.cls-29,.cls-30,.cls-31,.cls-4,.cls-5,.cls-6,.cls-8{stroke-width:2px;}.cls-4{stroke-dasharray:2 2;}.cls-19,.cls-28,.cls-29,.cls-5{fill:#fff;}.cls-5{stroke:#306;}.cls-30,.cls-6,.cls-8{stroke:#fc0;}.cls-6{fill:url(#Unbenannter_Verlauf_12);}.cls-7{fill:url(#Unbenannter_Verlauf_12-2);}.cls-9{fill:#86c2eb;opacity:0.4;}.cls-10{font-size:12px;}.cls-10,.cls-22,.cls-27{fill:#306;}.cls-10,.cls-13,.cls-22{font-family:RobotoSlab-Bold, Roboto Slab;font-weight:700;}.cls-11{letter-spacing:-0.01em;}.cls-12{letter-spacing:-0.01em;}.cls-13{font-size:11px;}.cls-13,.cls-21{fill:#fc0;}.cls-14{font-size:9px;}.cls-15{letter-spacing:0em;}.cls-16{clip-path:url(#clip-path);}.cls-17{fill:#ffd138;}.cls-18{fill:#fdfeff;}.cls-19,.cls-27,.cls-28{font-size:10px;font-family:RobotoSlab-Regular, Roboto Slab;}.cls-19{font-weight:400;}.cls-20{letter-spacing:-0.01em;}.cls-22{font-size:12.24px;}.cls-23{letter-spacing:-0.01em;}.cls-24{letter-spacing:0em;}.cls-25{letter-spacing:0em;}.cls-26{letter-spacing:0em;}.cls-29,.cls-30,.cls-31{stroke-linecap:round;stroke-linejoin:round;}.cls-32{fill:#c30;}.cls-33{letter-spacing:-0.03em;}.cls-34{fill:#e6e6e6;}.cls-35{font-size:7px;font-family:CourierNewPSMT, Courier New;}</style><linearGradient id="Unbenannter_Verlauf_12" x1="37.07" y1="177.11" x2="251.3" y2="177.11" gradientUnits="userSpaceOnUse"><stop offset="0" stop-color="#906"/><stop offset="0.19" stop-color="#780066"/><stop offset="0.4" stop-color="#5a0066"/><stop offset="0.61" stop-color="#406"/><stop offset="0.81" stop-color="#370066"/><stop offset="1" stop-color="#306"/></linearGradient><linearGradient id="Unbenannter_Verlauf_12-2" x1="50.35" y1="175.95" x2="238.26" y2="175.95" xlink:href="#Unbenannter_Verlauf_12"/><clipPath id="clip-path"><rect class="cls-1" x="112.76" y="225.21" width="45.67" height="8.94"/></clipPath></defs><title>add-host</title><g id="Ebene_2" data-name="Ebene 2"><g class="cls-2"><path class="cls-3" d="M391.59,261.48v20.66c0,4.57,2.24,8.27,5,8.27h100c2.77,0,5-3.7,5-8.27V70.31c0-4.57-2.23-8.27-5-8.27h-100c-2.76,0-5,3.7-5,8.27V95"/></g><path class="cls-4" d="M391.59,89.94v192.2c0,4.57,2.24,8.27,5,8.27h100c2.77,0,5-3.7,5-8.27V70.31c0-4.57-2.23-8.27-5-8.27h-100c-2.76,0-5,3.7-5,8.27V91.87"/><rect class="cls-5" x="410.59" y="149.05" width="72" height="51.79" rx="5"/><rect class="cls-6" x="37.07" y="62.04" width="214.23" height="230.14" rx="5"/><path class="cls-7" d="M238.26,256.31V82.62c0-2.77-.9-5-4.46-5h-179c-3.57,0-4.46,2.23-4.46,5V269.28c0,2.76,1.89,5,5.46,5h178c3.56,0,4.46-2.24,4.46-5V256.19"/><path class="cls-8" d="M238.26,256.31V82.62c0-2.77-.9-5-4.46-5h-179c-3.57,0-4.46,2.23-4.46,5V269.28c0,2.76,1.89,5,5.46,5h178c3.56,0,4.46-2.24,4.46-5V256.19"/><rect class="cls-9" x="91.09" y="150.27" width="106.51" height="51.69" rx="5"/><text class="cls-10" transform="translate(267.05 147.97)">ssh passwo<tspan class="cls-11" x="65.48" y="0">r</tspan><tspan x="70.42" y="0">dless </tspan><tspan class="cls-12" x="0" y="17">l</tspan><tspan x="3.71" y="17">ogin</tspan></text><text class="cls-13" transform="translate(111.83 234.2)"><tspan xml:space="preserve">                   </tspan><tspan class="cls-14" x="51.23" y="0">CLI</tspan><tspan class="cls-14"><tspan x="9.19" y="12">(contai</tspan><tspan class="cls-15" x="38.9" y="12">n</tspan><tspan x="44.57" y="12">er)</tspan></tspan></text><g id="Scone_logo_white" data-name="Scone logo white"><g class="cls-16"><g class="cls-16"><path class="cls-17" d="M118.81,227.47h-1a.38.38,0,0,0-.37.37v1a.37.37,0,0,0,.37.36h1a.36.36,0,0,0,.37-.36v-1a.37.37,0,0,0-.37-.37m-3.32,1.71h1a.37.37,0,0,0,.37-.36v-1a.38.38,0,0,0-.37-.37h-1a.37.37,0,0,0-.37.37v1a.36.36,0,0,0,.37.36m-1-.36v-1a.38.38,0,0,0-.37-.37h-1a.38.38,0,0,0-.37.37v1a.37.37,0,0,0,.37.36h1a.37.37,0,0,0,.37-.36m4.43,1a.29.29,0,0,0-.28.28v1.14a.29.29,0,0,0,.28.28.28.28,0,0,0,.27-.28v-1.14a.26.26,0,0,0-.27-.28m-2.63.37v1a.36.36,0,0,0,.37.36h1a.37.37,0,0,0,.37-.36v-1a.38.38,0,0,0-.37-.37h-1a.37.37,0,0,0-.37.37m-.68,1v-1a.38.38,0,0,0-.37-.37h-1a.37.37,0,0,0-.36.37v1a.36.36,0,0,0,.36.36h1a.37.37,0,0,0,.37-.36m3.23,1h-1a.37.37,0,0,0-.37.36v1a.38.38,0,0,0,.37.37h1a.37.37,0,0,0,.37-.37v-1a.36.36,0,0,0-.37-.36m-2.48,0h-1a.36.36,0,0,0-.37.36v1a.37.37,0,0,0,.37.37h1a.38.38,0,0,0,.37-.37v-1a.37.37,0,0,0-.37-.36"/><path class="cls-17" d="M120,227.09a2.19,2.19,0,0,0,1.49.46s0,0,0,.07v2.63c0,1-1.23,1.64-1.52,1.8,0,0,0,0,0,0l0-4.93s0,0,0,0"/><path class="cls-17" d="M117.09,227c2-.08,2.35-.77,2.35-.77a.11.11,0,0,1,.09-.06s.08,0,.09,0,.32.75,2.34.75c.06,0,.07,0,.07.09v3.46c0,1.1-2.09,2.36-2.13,2.37a.13.13,0,0,0-.07.08v.86s.13.06.18,0c.77-.42,2.94-1.62,2.94-3.09v-4.42c0-.07-.13-.12-.2-.12-2.57,0-3-.94-3-.94s-.11,0-.17,0-.09,0-.11,0-.42,1-3,1c-.09,0-.11,0-.11.11v.56s0,.12.08.12l.68,0"/><path class="cls-18" d="M124.87,232.6l1-.38a1.4,1.4,0,0,0,1.34.77,1.47,1.47,0,0,0,.79-.18.63.63,0,0,0,.33-.55c0-.56-.75-.89-1.3-1.11l0,0a4.43,4.43,0,0,1-1.2-.66,1.5,1.5,0,0,1-.59-1.21,1.64,1.64,0,0,1,.61-1.27,2.38,2.38,0,0,1,1.53-.52,2.2,2.2,0,0,1,2,1.11l-1.07.4a.9.9,0,0,0-.36-.39,1.55,1.55,0,0,0-.59-.12c-.59,0-1,.31-1,.73a.82.82,0,0,0,.41.66,5.3,5.3,0,0,0,.92.48l.13.06c.79.33,1.76.75,1.76,1.82a1.52,1.52,0,0,1-.7,1.3,2.75,2.75,0,0,1-1.67.48,2.44,2.44,0,0,1-2.35-1.4"/><path class="cls-18" d="M134,234a3.46,3.46,0,0,1-1.27-.25,3.14,3.14,0,0,1-1-.7,3.25,3.25,0,0,1-.7-1,3.47,3.47,0,0,1-.26-1.27,3.43,3.43,0,0,1,.26-1.27,3,3,0,0,1,.7-1,3.14,3.14,0,0,1,1-.7,3.28,3.28,0,0,1,1.27-.26,3.12,3.12,0,0,1,1.47.35,3.19,3.19,0,0,1,1.12.94l-.86.64a2.31,2.31,0,0,0-.76-.62,2.26,2.26,0,0,0-1-.24,2.18,2.18,0,0,0-1.54,3.73,2.07,2.07,0,0,0,1.54.65,2.1,2.1,0,0,0,1.11-.32,2.24,2.24,0,0,0,.79-.8l.93.53a3.11,3.11,0,0,1-1.17,1.19A2.93,2.93,0,0,1,134,234"/><path class="cls-18" d="M141.11,234a3.24,3.24,0,0,1-1.27-.26,2.88,2.88,0,0,1-1-.69,3.42,3.42,0,0,1-.7-1,3.28,3.28,0,0,1-.26-1.27,3.07,3.07,0,0,1,.26-1.27,3.19,3.19,0,0,1,.7-1,3.14,3.14,0,0,1,1-.7,3.24,3.24,0,0,1,1.27-.26,3.28,3.28,0,0,1,1.27.26,3,3,0,0,1,1,.7,3.35,3.35,0,0,1,.7,1,3.42,3.42,0,0,1,.25,1.27,3.46,3.46,0,0,1-.25,1.27,3.61,3.61,0,0,1-.7,1,3.29,3.29,0,0,1-2.3.95m0-5.46a2.14,2.14,0,0,0-1.55.64,2.22,2.22,0,0,0-.64,1.55,2.1,2.1,0,0,0,.64,1.54,2.14,2.14,0,0,0,1.55.65,2.1,2.1,0,0,0,1.54-.65,2.15,2.15,0,0,0,.65-1.54,2.22,2.22,0,0,0-.65-1.55,2.18,2.18,0,0,0-1.54-.64"/><polygon class="cls-18" points="151.76 227.53 151.76 234.15 147.2 229.96 147.2 233.89 146.04 233.89 146.04 227.29 150.6 231.5 150.6 227.53 151.76 227.53"/><polygon class="cls-18" points="154.87 228.5 154.87 230.19 158.05 230.19 158.05 231.19 154.87 231.19 154.87 232.9 158.44 232.9 158.44 233.89 153.71 233.89 153.71 227.53 158.44 227.53 158.44 228.52 154.87 228.52 154.87 228.5"/></g></g></g><text class="cls-13" transform="translate(130.66 171.93)">/conf<tspan class="cls-19"><tspan x="-14.02" y="15">ssh </tspan><tspan class="cls-12" x="5.12" y="15">k</tspan><tspan class="cls-20" x="11.1" y="15">e</tspan><tspan x="16.41" y="15">ypair</tspan></tspan></text><line class="cls-8" x1="407.23" y1="176.02" x2="197.6" y2="176.02"/><polygon class="cls-21" points="400.6 167.84 399.24 169.31 406.46 176.02 399.24 182.74 400.6 184.2 409.4 176.02 400.6 167.84"/><line class="cls-8" x1="100.83" y1="140.57" x2="100.83" y2="105.18"/><polygon class="cls-21" points="109.01 133.94 107.55 132.58 100.83 139.8 94.12 132.58 92.66 133.94 100.83 142.74 109.01 133.94"/><text class="cls-22" transform="translate(426.17 171.59)"><tspan class="cls-23">r</tspan><tspan x="5.04" y="0">e</tspan><tspan class="cls-24" x="11.56" y="0">m</tspan><tspan class="cls-25" x="22.89" y="0">ote </tspan><tspan class="cls-26" x="7.69" y="15">h</tspan><tspan x="15.42" y="15">ost</tspan></text><text class="cls-27" transform="translate(425.51 213.96)">IP: 1.2.3.4</text><text class="cls-28" transform="translate(113.19 111.85)">- <tspan class="cls-15" x="6.38" y="0">h</tspan><tspan x="12.78" y="0">ostna</tspan><tspan class="cls-15" x="39.1" y="0">m</tspan><tspan x="48.5" y="0">e 1.2.3.4</tspan><tspan x="0" y="15">- alias ca</tspan><tspan class="cls-12" x="42.31" y="15">ro</tspan><tspan x="51.86" y="15">li</tspan><tspan class="cls-15" x="58.3" y="15">n</tspan><tspan x="64.68" y="15">e</tspan><tspan x="0" y="30">- user ubuntu</tspan></text><text class="cls-28" transform="translate(92.78 96.34)">add-<tspan class="cls-15" x="21.4" y="0">h</tspan><tspan x="27.81" y="0">ost</tspan></text></g><g id="schrift"><path class="cls-29" d="M496.69,60.21A2.87,2.87,0,0,0,493.08,59c-2.25.86-1.26,3.62-1.26,3.62s-5.13-.06-4.57,5.2c.41,3.85,4.57,3.62,4.43,3.62-6.19,0,12.39,0,18.58,0a4.64,4.64,0,0,0,2.64-1,4,4,0,0,0,1.29-4.74c-.66-1.83-3-2.78-4.87-2.87,0,0,1.1-4.89-2.42-7.05a6.62,6.62,0,0,0-8.09.59A7.5,7.5,0,0,0,496.69,60.21Z"/><path class="cls-30" d="M25.52,31.15H21.27c-.58,0-.8-.23-.8-.81V23.88c0-.58.22-.8.8-.8h8.46c.54,0,.77.22.77.77v6.49c0,.55-.23.77-.77.77C28.31,31.18,26.9,31.15,25.52,31.15Z"/><path class="cls-30" d="M21.16,22.51a4.51,4.51,0,0,1,2.64-4.13,4.19,4.19,0,0,1,5.77,2.85c.1.39.14.77.24,1.19"/><path class="cls-21" d="M24.81,28.38h0v.87c0,.16.07.22.26.22h.83c.23,0,.29-.06.29-.25V27.61a.39.39,0,0,1,.23-.39A1.21,1.21,0,0,0,27,25.78a1.54,1.54,0,0,0-1.45-1,1.65,1.65,0,0,0-1.61.87,1.2,1.2,0,0,0,.55,1.51.42.42,0,0,1,.26.48A6,6,0,0,1,24.81,28.38Z"/><path class="cls-31" d="M514.86,29.75h-4.25c-.58,0-.8-.23-.8-.81V22.48c0-.58.22-.8.8-.8h8.46c.54,0,.77.22.77.77v6.49c0,.55-.23.77-.77.77C517.65,29.78,516.24,29.75,514.86,29.75Z"/><path class="cls-31" d="M513.48,13.49a4.52,4.52,0,0,1,4.86.72,4.19,4.19,0,0,1-.24,6.43c-.31.25-.65.44-1,.7"/><path class="cls-32" d="M514.15,27h0v.87c0,.16.06.22.26.22h.83c.23,0,.29-.06.29-.25V26.21a.37.37,0,0,1,.23-.39,1.21,1.21,0,0,0,.61-1.44,1.55,1.55,0,0,0-1.45-1,1.65,1.65,0,0,0-1.61.87,1.2,1.2,0,0,0,.55,1.51.43.43,0,0,1,.26.48A6,6,0,0,1,514.15,27Z"/><text class="cls-10" transform="translate(444.75 29.92)">Untrusted <tspan class="cls-11" x="-46.19" y="14.4">r</tspan><tspan x="-41.25" y="14.4">e</tspan><tspan class="cls-15" x="-34.86" y="14.4">m</tspan><tspan x="-23.75" y="14.4">ote computers</tspan></text><text class="cls-10" transform="translate(37.76 30.45)"><tspan class="cls-33">T</tspan><tspan x="7.69" y="0">rusted</tspan><tspan x="0" y="14.4">client computer</tspan></text><rect class="cls-34" x="72.33" y="252.72" width="142.5" height="12.8" rx="1"/></g><g id="Ebene_4" data-name="Ebene 4"><text class="cls-35" transform="translate(80.07 261.36)">sconecuratedimages/iexecsgx:cli</text></g></svg>