<svg xmlns="http://www.w3.org/2000/svg" xmlns:xlink="http://www.w3.org/1999/xlink" viewBox="0 0 610 210"><defs><style>.cls-1,.cls-11,.cls-2,.cls-27,.cls-5,.cls-7{fill:none;}.cls-2{stroke:#c30;}.cls-2,.cls-27,.cls-3,.cls-7{stroke-miterlimit:10;}.cls-11,.cls-13,.cls-2,.cls-27,.cls-3,.cls-5,.cls-7{stroke-width:2px;}.cls-2,.cls-27{stroke-dasharray:2 2;}.cls-13,.cls-18,.cls-3{fill:#fff;}.cls-11,.cls-13,.cls-27,.cls-3,.cls-7{stroke:#fc0;}.cls-4,.cls-8{font-size:12px;}.cls-4{fill:#306;}.cls-12,.cls-18,.cls-4,.cls-8{font-family:RobotoSlab-Bold, Roboto Slab;font-weight:700;}.cls-5{stroke:#f63;}.cls-11,.cls-13,.cls-5{stroke-linecap:round;stroke-linejoin:round;}.cls-6{fill:#f63;}.cls-12,.cls-14,.cls-8{fill:#fc0;}.cls-9{letter-spacing:-0.02em;}.cls-10{fill:url(#Unbenannter_Verlauf_12);}.cls-12{font-size:11px;}.cls-15{clip-path:url(#clip-path);}.cls-16{fill:#ffd138;}.cls-17{fill:#fdfeff;}.cls-18{font-size:12.24px;}.cls-19{letter-spacing:0em;}.cls-20{letter-spacing:-0.01em;}.cls-21{letter-spacing:-0.01em;}.cls-22{letter-spacing:0em;}.cls-23{fill:url(#Unbenannter_Verlauf_12-2);}.cls-24{letter-spacing:-0.01em;}.cls-25{letter-spacing:-0.04em;}.cls-26{clip-path:url(#clip-path-3);}</style><linearGradient id="Unbenannter_Verlauf_12" x1="62.38" y1="123.52" x2="234.16" y2="123.52" gradientUnits="userSpaceOnUse"><stop offset="0" stop-color="#906"/><stop offset="0.19" stop-color="#780066"/><stop offset="0.4" stop-color="#5a0066"/><stop offset="0.61" stop-color="#406"/><stop offset="0.81" stop-color="#370066"/><stop offset="1" stop-color="#306"/></linearGradient><clipPath id="clip-path"><rect class="cls-1" x="130.1" y="159.1" width="36.34" height="7.12"/></clipPath><linearGradient id="Unbenannter_Verlauf_12-2" x1="378.75" y1="123.52" x2="550.53" y2="123.52" xlink:href="#Unbenannter_Verlauf_12"/><clipPath id="clip-path-3"><rect class="cls-1" x="446.47" y="159.1" width="36.34" height="7.12"/></clipPath></defs><title>AppAttestation</title><g id="Ebene_2" data-name="Ebene 2"><rect class="cls-2" x="346.82" y="32.22" width="232.85" height="172.36" rx="5"/><rect class="cls-2" x="30.45" y="32.22" width="232.85" height="172.36" rx="5"/><polyline class="cls-3" points="383.31 111.44 225.77 111.44 225.77 135.95 383.31 135.95"/><text class="cls-4" transform="translate(68.74 23.31)">Untrusted Host / VM/ Cont<tspan x="151.64" y="0">-</tspan></text><path class="cls-5" d="M54.54,22.14H50.3c-.58,0-.8-.23-.8-.81V14.87c0-.58.22-.8.8-.8h8.46c.54,0,.77.22.77.77v6.49c0,.55-.23.77-.77.77C57.34,22.17,55.93,22.14,54.54,22.14Z"/><path class="cls-5" d="M53.17,5.88A4.5,4.5,0,0,1,58,6.6,4.19,4.19,0,0,1,57.79,13c-.31.25-.65.44-1,.7"/><path class="cls-6" d="M53.84,19.37h0v.87c0,.16.06.22.25.22h.84c.22,0,.29-.06.29-.25V18.6a.38.38,0,0,1,.22-.39,1.21,1.21,0,0,0,.62-1.44,1.55,1.55,0,0,0-1.45-1,1.65,1.65,0,0,0-1.61.87,1.2,1.2,0,0,0,.55,1.51.41.41,0,0,1,.25.48A4.47,4.47,0,0,1,53.84,19.37Z"/><path class="cls-7" d="M305.2,111.44c3.76,0,6.81,5.38,6.81,12s-3.05,12-6.81,12"/><text class="cls-8" transform="translate(289.55 104.4) scale(1.01 1)">CE<tspan class="cls-9" x="15.44" y="0">R</tspan><tspan x="23.4" y="0">T</tspan></text><text class="cls-8" transform="translate(293.14 153.28) scale(1.01 1)">TLS</text><rect class="cls-10" x="62.38" y="70.82" width="171.79" height="105.4" rx="5"/><rect class="cls-7" x="62.38" y="70.82" width="171.79" height="105.4" rx="5"/><rect class="cls-11" x="80.11" y="117.1" width="135.69" height="27.21" rx="5"/><text class="cls-12" transform="translate(117.21 134.26)">SCONE CAS</text><path class="cls-13" d="M139,59a11.74,11.74,0,1,1-3.51,8.38,11.51,11.51,0,0,1,2.4-7.09"/><path class="cls-11" d="M147.21,73.07H143c-.58,0-.8-.23-.8-.8V65.8c0-.58.22-.8.8-.8h8.46c.55,0,.77.22.77.77v6.5c0,.54-.22.77-.77.77C150,73.1,148.59,73.07,147.21,73.07Z"/><path class="cls-11" d="M142.85,64.44a4.52,4.52,0,0,1,2.64-4.14,4.21,4.21,0,0,1,5.78,2.85c.1.39.13.78.23,1.19"/><path class="cls-14" d="M146.5,70.3h0v.87c0,.16.07.23.26.23h.84c.22,0,.29-.07.29-.26V69.53a.36.36,0,0,1,.22-.38,1.21,1.21,0,0,0,.61-1.45,1.53,1.53,0,0,0-1.45-1,1.61,1.61,0,0,0-1.6.86,1.2,1.2,0,0,0,.54,1.52.41.41,0,0,1,.26.48A5.7,5.7,0,0,1,146.5,70.3Z"/><g id="Scone_logo_white" data-name="Scone logo white"><g class="cls-15"><g class="cls-15"><path class="cls-16" d="M134.91,160.9h-.76a.29.29,0,0,0-.29.3V162a.29.29,0,0,0,.29.29h.76a.29.29,0,0,0,.3-.29v-.77a.29.29,0,0,0-.3-.3m-2.64,1.36H133a.29.29,0,0,0,.29-.29v-.77a.29.29,0,0,0-.29-.3h-.76a.29.29,0,0,0-.3.3V162a.29.29,0,0,0,.3.29m-.82-.29v-.77a.3.3,0,0,0-.3-.3h-.76a.29.29,0,0,0-.29.3V162a.29.29,0,0,0,.29.29h.76a.3.3,0,0,0,.3-.29m3.52.84a.23.23,0,0,0-.22.21v.91a.23.23,0,0,0,.22.22.22.22,0,0,0,.22-.22V163c0-.11-.09-.21-.22-.21m-2.09.29v.77a.3.3,0,0,0,.29.3h.76a.31.31,0,0,0,.3-.3v-.77a.3.3,0,0,0-.3-.29h-.76a.29.29,0,0,0-.29.29m-.54.77v-.77a.29.29,0,0,0-.29-.29h-.76a.29.29,0,0,0-.3.29v.77a.3.3,0,0,0,.3.3h.76a.3.3,0,0,0,.29-.3m2.57.84h-.76a.29.29,0,0,0-.29.29v.78a.29.29,0,0,0,.29.29h.76a.29.29,0,0,0,.3-.29V165a.29.29,0,0,0-.3-.29m-2,0h-.76a.29.29,0,0,0-.29.29v.78a.29.29,0,0,0,.29.29h.76a.29.29,0,0,0,.29-.29V165a.29.29,0,0,0-.29-.29"/><path class="cls-16" d="M135.84,160.6A1.77,1.77,0,0,0,137,161s0,0,0,.06v2.09c0,.81-1,1.31-1.22,1.44a0,0,0,0,1,0,0l0-3.92s0,0,0,0"/><path class="cls-16" d="M133.54,160.49c1.61-.06,1.87-.61,1.87-.61a.1.1,0,0,1,.08,0,.07.07,0,0,1,.07,0s.25.6,1.86.6c0,0,.06,0,.06.08v2.75c0,.88-1.67,1.87-1.7,1.89s-.06,0-.06,0v.69s.1.05.15,0c.61-.34,2.34-1.29,2.34-2.46V160c0-.06-.11-.1-.16-.1-2.05,0-2.43-.75-2.43-.75s-.09,0-.13,0-.08,0-.09,0-.34.77-2.37.77c-.08,0-.09,0-.09.09v.44s0,.1.06.1l.54,0"/><path class="cls-17" d="M139.73,165l.82-.31a1.11,1.11,0,0,0,1.07.61,1.2,1.2,0,0,0,.63-.14.52.52,0,0,0,.26-.44c0-.44-.6-.7-1-.88l0,0a3.85,3.85,0,0,1-.95-.52,1.21,1.21,0,0,1-.47-1,1.32,1.32,0,0,1,.48-1,1.91,1.91,0,0,1,1.22-.41,1.74,1.74,0,0,1,1.61.88l-.85.32a.65.65,0,0,0-.29-.3,1.12,1.12,0,0,0-.47-.11c-.47,0-.79.25-.79.59a.67.67,0,0,0,.32.53,5.53,5.53,0,0,0,.73.38l.11,0c.62.26,1.4.6,1.4,1.45a1.22,1.22,0,0,1-.56,1,2.21,2.21,0,0,1-1.33.38,2,2,0,0,1-1.87-1.11"/><path class="cls-17" d="M147,166.08a2.67,2.67,0,0,1-1-.2,2.68,2.68,0,0,1-1.38-1.38,2.67,2.67,0,0,1-.2-1,2.71,2.71,0,0,1,.2-1,2.5,2.5,0,0,1,.56-.82,2.28,2.28,0,0,1,.82-.55,2.68,2.68,0,0,1,1-.21,2.52,2.52,0,0,1,1.17.28,2.59,2.59,0,0,1,.89.75l-.69.51a1.71,1.71,0,0,0-.6-.5,1.77,1.77,0,0,0-.79-.19,1.74,1.74,0,0,0-1.23,3,1.74,1.74,0,0,0,2.11.27,1.78,1.78,0,0,0,.63-.65l.75.43a2.59,2.59,0,0,1-.94.95,2.34,2.34,0,0,1-1.3.36"/><path class="cls-17" d="M152.65,166.1a2.68,2.68,0,0,1-1-.21,2.37,2.37,0,0,1-.82-.55,2.81,2.81,0,0,1-.55-.82,2.5,2.5,0,0,1-.21-1,2.35,2.35,0,0,1,.21-1,2.57,2.57,0,0,1,.55-.82,2.72,2.72,0,0,1,.82-.56,2.65,2.65,0,0,1,2,0,2.31,2.31,0,0,1,.82.56,2.44,2.44,0,0,1,.56.82,2.6,2.6,0,0,1-2.39,3.6m0-4.35a1.7,1.7,0,0,0-1.23.51,1.76,1.76,0,0,0-.51,1.23,1.74,1.74,0,0,0,1.74,1.74,1.68,1.68,0,0,0,1.23-.51,1.74,1.74,0,0,0,.51-1.23,1.78,1.78,0,0,0-.51-1.23,1.74,1.74,0,0,0-1.23-.51"/><polygon class="cls-17" points="161.13 160.95 161.13 166.22 157.5 162.88 157.5 166.01 156.57 166.01 156.57 160.76 160.2 164.11 160.2 160.95 161.13 160.95"/><polygon class="cls-17" points="163.6 161.72 163.6 163.07 166.13 163.07 166.13 163.86 163.6 163.86 163.6 165.22 166.44 165.22 166.44 166.01 162.68 166.01 162.68 160.95 166.44 160.95 166.44 161.74 163.6 161.74 163.6 161.72"/></g></g></g><text class="cls-18" transform="translate(96.73 103.28)">Intel SGX E<tspan class="cls-19" x="64.96" y="0">n</tspan><tspan x="72.67" y="0">cl</tspan><tspan class="cls-20" x="83.02" y="0">a</tspan><tspan class="cls-21" x="89.66" y="0">v</tspan><tspan x="96.56" y="0">e</tspan></text><text class="cls-4" transform="translate(385.11 23.31)">Untrusted Host / VM/ Contai<tspan class="cls-22" x="162.09" y="0">n</tspan><tspan x="169.65" y="0">er</tspan></text><path class="cls-5" d="M370.91,22.14h-4.24c-.58,0-.8-.23-.8-.81V14.87c0-.58.22-.8.8-.8h8.46c.54,0,.77.22.77.77v6.49c0,.55-.23.77-.77.77C373.71,22.17,372.3,22.14,370.91,22.14Z"/><path class="cls-5" d="M369.54,5.88a4.5,4.5,0,0,1,4.85.72,4.19,4.19,0,0,1-.23,6.43c-.31.25-.65.44-1,.7"/><path class="cls-6" d="M370.21,19.37h0v.87c0,.16.06.22.25.22h.84c.22,0,.29-.06.29-.25V18.6a.38.38,0,0,1,.22-.39,1.21,1.21,0,0,0,.62-1.44,1.55,1.55,0,0,0-1.45-1,1.65,1.65,0,0,0-1.61.87,1.2,1.2,0,0,0,.55,1.51.41.41,0,0,1,.25.48A4.47,4.47,0,0,1,370.21,19.37Z"/><rect class="cls-23" x="378.75" y="70.82" width="171.79" height="105.4" rx="5"/><rect class="cls-7" x="378.75" y="70.82" width="171.79" height="105.4" rx="5"/><rect class="cls-11" x="396.02" y="117.1" width="136.62" height="27.21" rx="5"/><text class="cls-12" transform="translate(434.15 134.26)">Ap<tspan class="cls-24" x="14.56" y="0">p</tspan><tspan x="21.11" y="0">lic</tspan><tspan class="cls-25" x="33.96" y="0">a</tspan><tspan x="39.58" y="0">tion</tspan></text><path class="cls-13" d="M455.33,59a11.74,11.74,0,1,1-3.51,8.38,11.51,11.51,0,0,1,2.4-7.09"/><path class="cls-11" d="M463.58,73.07h-4.25c-.58,0-.8-.23-.8-.8V65.8c0-.58.22-.8.8-.8h8.46c.55,0,.77.22.77.77v6.5c0,.54-.22.77-.77.77C466.37,73.1,465,73.07,463.58,73.07Z"/><path class="cls-11" d="M459.22,64.44a4.52,4.52,0,0,1,2.64-4.14,4.21,4.21,0,0,1,5.78,2.85c.1.39.13.78.23,1.19"/><path class="cls-14" d="M462.87,70.3h0v.87c0,.16.07.23.26.23H464c.22,0,.29-.07.29-.26V69.53a.36.36,0,0,1,.22-.38,1.21,1.21,0,0,0,.61-1.45,1.53,1.53,0,0,0-1.45-1,1.61,1.61,0,0,0-1.6.86,1.2,1.2,0,0,0,.54,1.52.41.41,0,0,1,.26.48A5.7,5.7,0,0,1,462.87,70.3Z"/><g id="Scone_logo_white-2" data-name="Scone logo white"><g class="cls-26"><g class="cls-26"><path class="cls-16" d="M451.28,160.9h-.76a.29.29,0,0,0-.29.3V162a.29.29,0,0,0,.29.29h.76a.29.29,0,0,0,.3-.29v-.77a.29.29,0,0,0-.3-.3m-2.64,1.36h.76a.29.29,0,0,0,.29-.29v-.77a.29.29,0,0,0-.29-.3h-.76a.29.29,0,0,0-.3.3V162a.29.29,0,0,0,.3.29m-.82-.29v-.77a.3.3,0,0,0-.3-.3h-.76a.29.29,0,0,0-.29.3V162a.29.29,0,0,0,.29.29h.76a.3.3,0,0,0,.3-.29m3.52.84a.23.23,0,0,0-.22.21v.91a.23.23,0,0,0,.22.22.22.22,0,0,0,.22-.22V163c0-.11-.09-.21-.22-.21m-2.09.29v.77a.3.3,0,0,0,.29.3h.76a.31.31,0,0,0,.3-.3v-.77a.3.3,0,0,0-.3-.29h-.76a.29.29,0,0,0-.29.29m-.54.77v-.77a.29.29,0,0,0-.29-.29h-.76a.29.29,0,0,0-.3.29v.77a.3.3,0,0,0,.3.3h.76a.3.3,0,0,0,.29-.3m2.57.84h-.76a.29.29,0,0,0-.29.29v.78a.29.29,0,0,0,.29.29h.76a.29.29,0,0,0,.3-.29V165a.29.29,0,0,0-.3-.29m-2,0h-.76a.29.29,0,0,0-.29.29v.78a.29.29,0,0,0,.29.29h.76a.29.29,0,0,0,.29-.29V165a.29.29,0,0,0-.29-.29"/><path class="cls-16" d="M452.21,160.6a1.77,1.77,0,0,0,1.18.36s0,0,0,.06v2.09c0,.81-1,1.31-1.22,1.44a0,0,0,0,1,0,0l0-3.92s0,0,0,0"/><path class="cls-16" d="M449.91,160.49c1.61-.06,1.87-.61,1.87-.61a.1.1,0,0,1,.08,0,.07.07,0,0,1,.07,0s.25.6,1.86.6c0,0,.06,0,.06.08v2.75c0,.88-1.67,1.87-1.7,1.89s-.06,0-.06,0v.69s.1.05.15,0c.61-.34,2.34-1.29,2.34-2.46V160c0-.06-.11-.1-.16-.1-2.05,0-2.43-.75-2.43-.75s-.09,0-.13,0-.08,0-.09,0-.34.77-2.37.77c-.08,0-.09,0-.09.09v.44s0,.1.06.1l.54,0"/><path class="cls-17" d="M456.1,165l.82-.31a1.11,1.11,0,0,0,1.07.61,1.2,1.2,0,0,0,.63-.14.52.52,0,0,0,.26-.44c0-.44-.6-.7-1-.88l0,0a3.85,3.85,0,0,1-.95-.52,1.21,1.21,0,0,1-.47-1,1.32,1.32,0,0,1,.48-1,1.91,1.91,0,0,1,1.22-.41,1.74,1.74,0,0,1,1.61.88l-.85.32a.65.65,0,0,0-.29-.3,1.12,1.12,0,0,0-.47-.11c-.47,0-.79.25-.79.59a.67.67,0,0,0,.32.53,5.53,5.53,0,0,0,.73.38l.11,0c.62.26,1.4.6,1.4,1.45a1.22,1.22,0,0,1-.56,1,2.21,2.21,0,0,1-1.33.38A2,2,0,0,1,456.1,165"/><path class="cls-17" d="M463.36,166.08a2.67,2.67,0,0,1-1-.2A2.68,2.68,0,0,1,461,164.5a2.67,2.67,0,0,1-.2-1,2.71,2.71,0,0,1,.2-1,2.5,2.5,0,0,1,.56-.82,2.28,2.28,0,0,1,.82-.55,2.68,2.68,0,0,1,1-.21,2.52,2.52,0,0,1,1.17.28,2.59,2.59,0,0,1,.89.75l-.69.51a1.71,1.71,0,0,0-.6-.5,1.8,1.8,0,0,0-.79-.19,1.74,1.74,0,0,0-1.23,3,1.74,1.74,0,0,0,2.11.27,1.87,1.87,0,0,0,.63-.65l.75.43a2.59,2.59,0,0,1-.94.95,2.34,2.34,0,0,1-1.3.36"/><path class="cls-17" d="M469,166.1a2.68,2.68,0,0,1-1-.21,2.37,2.37,0,0,1-.82-.55,2.81,2.81,0,0,1-.55-.82,2.5,2.5,0,0,1-.21-1,2.35,2.35,0,0,1,.21-1,2.57,2.57,0,0,1,.55-.82,2.72,2.72,0,0,1,.82-.56,2.65,2.65,0,0,1,2,0,2.31,2.31,0,0,1,.82.56,2.44,2.44,0,0,1,.56.82,2.6,2.6,0,0,1-2.39,3.6m0-4.35a1.7,1.7,0,0,0-1.23.51,1.76,1.76,0,0,0-.51,1.23,1.74,1.74,0,0,0,1.74,1.74,1.68,1.68,0,0,0,1.23-.51,1.74,1.74,0,0,0,.51-1.23,1.78,1.78,0,0,0-.51-1.23,1.74,1.74,0,0,0-1.23-.51"/><polygon class="cls-17" points="477.5 160.95 477.5 166.22 473.87 162.88 473.87 166.01 472.94 166.01 472.94 160.76 476.57 164.11 476.57 160.95 477.5 160.95"/><polygon class="cls-17" points="479.97 161.72 479.97 163.07 482.5 163.07 482.5 163.86 479.97 163.86 479.97 165.22 482.81 165.22 482.81 166.01 479.05 166.01 479.05 160.95 482.81 160.95 482.81 161.74 479.97 161.74 479.97 161.72"/></g></g></g><text class="cls-18" transform="translate(413.1 103.28)">Intel SGX E<tspan class="cls-19" x="64.96" y="0">n</tspan><tspan x="72.67" y="0">cl</tspan><tspan class="cls-20" x="83.02" y="0">a</tspan><tspan class="cls-21" x="89.66" y="0">v</tspan><tspan x="96.56" y="0">e</tspan></text><line class="cls-27" x1="329.23" y1="123.5" x2="281.89" y2="123.5"/><polygon class="cls-14" points="324.59 117.78 323.63 118.8 328.69 123.5 323.63 128.2 324.59 129.23 330.75 123.5 324.59 117.78"/></g></svg>