<?xml version="1.0" encoding="utf-8"?>
<!-- Generator: Adobe Illustrator 24.0.0, SVG Export Plug-In . SVG Version: 6.00 Build 0)  -->
<svg version="1.1" id="Ebene_1" xmlns="http://www.w3.org/2000/svg" xmlns:xlink="http://www.w3.org/1999/xlink" x="0px" y="0px"
	 viewBox="0 0 591.1 300.5" style="enable-background:new 0 0 591.1 300.5;" xml:space="preserve">
<style type="text/css">
	.st0{opacity:0.2;fill:#FFCC99;enable-background:new    ;}
	.st1{fill:none;stroke:#CC3300;stroke-width:2;stroke-miterlimit:10;stroke-dasharray:2,2;}
	.st2{enable-background:new    ;}
	.st3{fill:#330066;}
	.st4{fill:none;stroke:#FF6633;stroke-width:2;stroke-linecap:round;stroke-linejoin:round;}
	.st5{fill:#FF6633;}
	.st6{fill:url(#SVGID_1_);}
	.st7{fill:none;stroke:#FFCC00;stroke-width:2;stroke-miterlimit:10;}
	.st8{fill:none;stroke:#FFCC00;stroke-width:2;stroke-linecap:round;stroke-linejoin:round;}
	.st9{fill:#FFCC00;}
	.st10{fill:#FFFFFF;stroke:#FFCC00;stroke-width:2;stroke-linecap:round;stroke-linejoin:round;}
	.st11{clip-path:url(#SVGID_3_);}
	.st12{clip-path:url(#SVGID_5_);}
	.st13{fill:#FFD138;}
	.st14{fill:#FDFEFF;}
	.st15{fill:#FFFFFF;stroke:#330066;stroke-width:2;stroke-miterlimit:10;}
	.st16{fill:#FFFFFF;stroke:#FFCC00;stroke-width:2;stroke-miterlimit:10;}
	.st17{fill:none;stroke:#FFCC00;stroke-width:2;stroke-miterlimit:10;stroke-dasharray:1.97,1.97;}
	.st18{fill:none;stroke:#FFCC00;stroke-width:2;stroke-miterlimit:10;stroke-dasharray:2.02,2.02;}
	.st19{fill:none;stroke:#CC3300;stroke-width:2;stroke-miterlimit:10;}
	.st20{fill:#CC3300;}
	.st21{fill:#FFFFFF;}
	.st22{fill:none;stroke:#330066;stroke-linejoin:round;}
	.st23{fill:none;stroke:#330066;stroke-linecap:round;stroke-linejoin:round;}
</style>
<title>attacker</title>
<g id="Ebene_2_1_">
	<path class="st0" d="M43.2,30.8h500c2.8,0,5,2.2,5,5v244.4c0,2.8-2.2,5-5,5h-500c-2.8,0-5-2.2-5-5V35.8
		C38.2,33,40.4,30.8,43.2,30.8z"/>
	<path class="st1" d="M43.2,29.2h500c2.8,0,5,2.2,5,5v247.5c0,2.8-2.2,5-5,5h-500c-2.8,0-5-2.2-5-5V34.2
		C38.2,31.4,40.4,29.2,43.2,29.2z"/>
	<g class="st2">
		<path class="st3" d="M517.6,20.1l1-0.2v-8.4l-1.1-0.2V9.9h3.3v4.5c0.2-0.4,0.6-0.7,0.9-0.9c0.4-0.2,0.8-0.3,1.2-0.3
			c0.8,0,1.5,0.3,2,0.8c0.5,0.5,0.7,1.4,0.7,2.5v3.2l1,0.2v1.3h-4.1v-1.3l0.9-0.2v-3.2c0-0.6-0.1-1.1-0.3-1.3
			c-0.2-0.3-0.5-0.4-1-0.4c-0.3,0-0.6,0.1-0.8,0.2c-0.2,0.1-0.4,0.3-0.6,0.5v4.3l0.9,0.2v1.3h-4.1V20.1z"/>
	</g>
	<g class="st2">
		<path class="st3" d="M527.1,17.3c0-1.2,0.3-2.2,1-2.9c0.7-0.8,1.6-1.1,2.7-1.1c1.2,0,2.1,0.4,2.8,1.1c0.7,0.8,1,1.7,1,2.9v0.2
			c0,1.2-0.3,2.2-1,2.9c-0.7,0.8-1.6,1.1-2.7,1.1c-1.2,0-2.1-0.4-2.8-1.1c-0.7-0.7-1-1.7-1-2.9V17.3z M529.3,17.5
			c0,0.7,0.1,1.3,0.4,1.7c0.3,0.4,0.7,0.7,1.2,0.7c0.6,0,1-0.2,1.2-0.7c0.3-0.4,0.4-1,0.4-1.7v-0.2c0-0.7-0.1-1.3-0.4-1.7
			s-0.7-0.7-1.2-0.7s-1,0.2-1.2,0.7s-0.4,1-0.4,1.7V17.5z"/>
		<path class="st3" d="M542,16.2h-1.4l-0.2-1c-0.1-0.1-0.3-0.2-0.6-0.3c-0.2-0.1-0.5-0.1-0.7-0.1c-0.4,0-0.7,0.1-0.9,0.3
			c-0.2,0.2-0.3,0.4-0.3,0.6c0,0.2,0.1,0.4,0.3,0.6c0.2,0.2,0.6,0.3,1.3,0.4c1,0.2,1.7,0.5,2.2,0.9c0.5,0.4,0.7,0.9,0.7,1.6
			c0,0.7-0.3,1.3-0.9,1.7c-0.6,0.5-1.4,0.7-2.4,0.7c-0.6,0-1.2-0.1-1.7-0.3c-0.5-0.2-1-0.4-1.4-0.8l0-1.8h1.5l0.3,1
			c0.1,0.1,0.3,0.2,0.5,0.2c0.2,0.1,0.4,0.1,0.7,0.1c0.4,0,0.8-0.1,1-0.2c0.2-0.2,0.3-0.4,0.3-0.6c0-0.2-0.1-0.4-0.3-0.6
			c-0.2-0.2-0.7-0.3-1.3-0.5c-0.9-0.2-1.6-0.5-2.1-0.8c-0.5-0.4-0.7-0.9-0.7-1.5c0-0.7,0.3-1.2,0.8-1.7c0.5-0.5,1.3-0.7,2.3-0.7
			c0.6,0,1.2,0.1,1.7,0.2c0.5,0.2,1,0.4,1.3,0.6L542,16.2z"/>
		<path class="st3" d="M546.4,11.5v1.9h1.4v1.5h-1.4v4c0,0.3,0.1,0.5,0.2,0.7s0.3,0.2,0.5,0.2c0.1,0,0.3,0,0.4,0
			c0.1,0,0.2,0,0.4-0.1l0.2,1.5c-0.2,0.1-0.5,0.1-0.7,0.2c-0.2,0-0.5,0.1-0.8,0.1c-0.7,0-1.3-0.2-1.7-0.6c-0.4-0.4-0.6-1-0.6-1.9v-4
			h-1.2v-1.5h1.2v-1.9H546.4z"/>
	</g>
	<path class="st4" d="M502.5,19.9h-4.3c-0.6,0-0.8-0.2-0.8-0.8v-6.5c0-0.6,0.2-0.8,0.8-0.8h8.5c0.5,0,0.8,0.2,0.8,0.8v6.5
		c0,0.5-0.2,0.8-0.8,0.8C505.3,20,503.9,19.9,502.5,19.9z"/>
	<path class="st4" d="M501.1,3.7c1.6-0.7,3.5-0.5,4.9,0.7c1.7,1.6,1.9,4.2,0.3,5.9c-0.2,0.2-0.4,0.4-0.5,0.5c-0.3,0.3-0.6,0.4-1,0.7
		"/>
	<path class="st5" d="M501.8,17.1L501.8,17.1V18c0,0.2,0.1,0.2,0.3,0.2h0.8c0.2,0,0.3-0.1,0.3-0.3v-1.6c0-0.2,0.1-0.3,0.2-0.4
		c0.5-0.3,0.8-0.9,0.6-1.4c-0.2-0.6-0.8-1-1.5-1c-0.7-0.1-1.3,0.3-1.6,0.9c-0.3,0.6,0,1.3,0.5,1.6c0.2,0.1,0.3,0.3,0.3,0.5
		C501.8,16.7,501.8,16.9,501.8,17.1z"/>
	<g class="st2">
		<path class="st3" d="M204.3,243.7c0-0.1-0.1-0.2-0.1-0.3c0-0.1-0.1-0.2-0.1-0.3c-0.2,0.2-0.5,0.4-0.8,0.6s-0.6,0.2-1,0.2
			c-0.6,0-1.1-0.2-1.5-0.5s-0.6-0.8-0.6-1.4c0-0.6,0.2-1.1,0.7-1.4c0.5-0.3,1.2-0.5,2.1-0.5h0.9v-0.6c0-0.3-0.1-0.6-0.3-0.7
			c-0.2-0.2-0.4-0.3-0.8-0.3c-0.2,0-0.4,0-0.5,0.1c-0.2,0-0.3,0.1-0.4,0.2l-0.1,0.7h-1.3l0-1.4c0.3-0.2,0.7-0.4,1.1-0.5
			c0.4-0.1,0.9-0.2,1.3-0.2c0.8,0,1.5,0.2,2,0.6c0.5,0.4,0.8,1,0.8,1.7v2.7c0,0.1,0,0.2,0,0.3c0,0.1,0,0.2,0,0.3l0.5,0.1v1H204.3z
			 M202.8,242.5c0.3,0,0.5-0.1,0.7-0.2c0.2-0.1,0.4-0.3,0.5-0.4v-1h-0.9c-0.4,0-0.7,0.1-0.8,0.3s-0.3,0.4-0.3,0.6
			c0,0.2,0.1,0.4,0.2,0.5C202.4,242.4,202.6,242.5,202.8,242.5z"/>
	</g>
	<g class="st2">
		<path class="st3" d="M209.1,235.6v1.6h1.1v1.2h-1.1v3.3c0,0.3,0.1,0.4,0.2,0.5s0.2,0.2,0.4,0.2c0.1,0,0.2,0,0.3,0
			c0.1,0,0.2,0,0.3-0.1l0.1,1.3c-0.2,0.1-0.4,0.1-0.6,0.1c-0.2,0-0.4,0-0.6,0c-0.6,0-1.1-0.2-1.4-0.5c-0.3-0.3-0.5-0.9-0.5-1.6v-3.3
			h-1v-1.2h1v-1.6H209.1z"/>
		<path class="st3" d="M213.6,235.6v1.6h1.1v1.2h-1.1v3.3c0,0.3,0.1,0.4,0.2,0.5s0.2,0.2,0.4,0.2c0.1,0,0.2,0,0.3,0
			c0.1,0,0.2,0,0.3-0.1l0.1,1.3c-0.2,0.1-0.4,0.1-0.6,0.1c-0.2,0-0.4,0-0.6,0c-0.6,0-1.1-0.2-1.4-0.5c-0.3-0.3-0.5-0.9-0.5-1.6v-3.3
			h-1v-1.2h1v-1.6H213.6z"/>
		<path class="st3" d="M219.7,243.7c0-0.1-0.1-0.2-0.1-0.3c0-0.1-0.1-0.2-0.1-0.3c-0.2,0.2-0.5,0.4-0.8,0.6s-0.6,0.2-1,0.2
			c-0.6,0-1.1-0.2-1.5-0.5s-0.6-0.8-0.6-1.4c0-0.6,0.2-1.1,0.7-1.4c0.5-0.3,1.2-0.5,2.1-0.5h0.9v-0.6c0-0.3-0.1-0.6-0.3-0.7
			c-0.2-0.2-0.4-0.3-0.8-0.3c-0.2,0-0.4,0-0.5,0.1c-0.2,0-0.3,0.1-0.4,0.2l-0.1,0.7H216l0-1.4c0.3-0.2,0.7-0.4,1.1-0.5
			c0.4-0.1,0.9-0.2,1.3-0.2c0.8,0,1.5,0.2,2,0.6c0.5,0.4,0.8,1,0.8,1.7v2.7c0,0.1,0,0.2,0,0.3c0,0.1,0,0.2,0,0.3l0.5,0.1v1H219.7z
			 M218.2,242.5c0.3,0,0.5-0.1,0.7-0.2c0.2-0.1,0.4-0.3,0.5-0.4v-1h-0.9c-0.4,0-0.7,0.1-0.8,0.3s-0.3,0.4-0.3,0.6
			c0,0.2,0.1,0.4,0.2,0.5C217.8,242.4,218,242.5,218.2,242.5z"/>
		<path class="st3" d="M225.4,242.5c0.3,0,0.6-0.1,0.7-0.3c0.2-0.2,0.3-0.4,0.3-0.7h1.6l0,0c0,0.7-0.2,1.2-0.7,1.6
			c-0.5,0.4-1.1,0.7-1.9,0.7c-1,0-1.7-0.3-2.2-0.9c-0.5-0.6-0.8-1.4-0.8-2.3v-0.2c0-1,0.3-1.7,0.8-2.3c0.5-0.6,1.3-0.9,2.3-0.9
			c0.5,0,1,0.1,1.4,0.2c0.4,0.2,0.8,0.4,1,0.7l0,1.7h-1.4l-0.3-1c-0.1-0.1-0.2-0.1-0.3-0.2s-0.3-0.1-0.4-0.1c-0.5,0-0.8,0.2-1,0.5
			c-0.2,0.4-0.3,0.8-0.3,1.4v0.2c0,0.6,0.1,1,0.3,1.4C224.6,242.3,224.9,242.5,225.4,242.5z"/>
	</g>
	<g class="st2">
		<path class="st3" d="M228.6,235.4v-1.1h2.7v5.4h0.4l1-1.4l-0.6-0.1v-1.1h3.2v1.1l-0.8,0.2l-1.2,1.6l1.6,2.5l0.7,0.1v1h-3v-1
			l0.4-0.1l-1-1.6h-0.7v1.5l0.8,0.2v1h-3.3v-1l0.8-0.2v-6.9L228.6,235.4z"/>
	</g>
	<g class="st2">
		<path class="st3" d="M239.2,243.8c-0.9,0-1.7-0.3-2.2-0.9s-0.8-1.4-0.8-2.3v-0.2c0-1,0.3-1.8,0.8-2.4c0.5-0.6,1.2-0.9,2.1-0.9
			c0.9,0,1.5,0.3,2,0.8c0.5,0.5,0.7,1.2,0.7,2.1v1H238l0,0c0,0.4,0.2,0.8,0.4,1.1c0.3,0.3,0.6,0.4,1,0.4c0.4,0,0.7,0,1-0.1
			c0.3-0.1,0.5-0.2,0.8-0.4l0.5,1.1c-0.3,0.2-0.6,0.4-1,0.5C240.2,243.7,239.8,243.8,239.2,243.8z M239.1,238.4
			c-0.3,0-0.6,0.1-0.8,0.4c-0.2,0.2-0.3,0.6-0.3,1l0,0h2.1v-0.2c0-0.4-0.1-0.7-0.3-0.9C239.7,238.5,239.4,238.4,239.1,238.4z"/>
		<path class="st3" d="M242.8,242.6l0.8-0.2v-4l-0.9-0.2v-1.1h2.6l0.1,0.9c0.2-0.3,0.3-0.6,0.6-0.8c0.2-0.2,0.5-0.3,0.8-0.3
			c0.1,0,0.2,0,0.3,0c0.1,0,0.2,0,0.3,0.1l-0.2,1.6l-0.7,0c-0.3,0-0.5,0-0.6,0.1s-0.3,0.2-0.4,0.4v3.1l0.8,0.2v1h-3.4V242.6z"/>
	</g>
	<g class="st2">
		<path class="st3" d="M187.8,254.8c0-1.6,0.3-2.9,1-4c0.6-1.1,1.3-1.9,2-2.2l0,0l0.2,0.7c-0.5,0.4-1,1.1-1.4,2s-0.6,2.1-0.6,3.5
			v0.1c0,1.4,0.2,2.5,0.6,3.5c0.4,0.9,0.9,1.6,1.4,2.1l-0.2,0.6h0c-0.7-0.4-1.4-1.1-2-2.2C188.1,257.8,187.8,256.5,187.8,254.8
			L187.8,254.8z"/>
	</g>
	<g class="st2">
		<path class="st3" d="M191.6,252.7v-0.8h2l0.1,0.9c0.2-0.3,0.4-0.6,0.7-0.8c0.3-0.2,0.6-0.3,0.9-0.3c0.1,0,0.2,0,0.3,0
			c0.1,0,0.2,0,0.2,0l-0.2,1.1l-0.7,0c-0.3,0-0.6,0.1-0.8,0.2c-0.2,0.1-0.4,0.3-0.5,0.6v3.7l1,0.2v0.8h-3.1v-0.8l1-0.2v-4.6
			L191.6,252.7z"/>
	</g>
	<g class="st2">
		<path class="st3" d="M196.5,255.1c0-1,0.3-1.7,0.8-2.4c0.5-0.6,1.2-0.9,2.1-0.9c0.9,0,1.6,0.3,2.1,0.9c0.5,0.6,0.8,1.4,0.8,2.4
			v0.1c0,1-0.3,1.8-0.8,2.4c-0.5,0.6-1.2,0.9-2.1,0.9c-0.9,0-1.6-0.3-2.1-0.9c-0.5-0.6-0.8-1.4-0.8-2.4V255.1z M197.7,255.2
			c0,0.7,0.1,1.3,0.4,1.7c0.3,0.4,0.7,0.7,1.3,0.7c0.6,0,1-0.2,1.3-0.7s0.4-1,0.4-1.7v-0.1c0-0.7-0.1-1.2-0.4-1.7s-0.7-0.7-1.3-0.7
			c-0.6,0-1,0.2-1.3,0.7c-0.3,0.5-0.4,1-0.4,1.7V255.2z"/>
		<path class="st3" d="M203.4,255.1c0-1,0.3-1.7,0.8-2.4c0.5-0.6,1.2-0.9,2.1-0.9c0.9,0,1.6,0.3,2.1,0.9c0.5,0.6,0.8,1.4,0.8,2.4
			v0.1c0,1-0.3,1.8-0.8,2.4c-0.5,0.6-1.2,0.9-2.1,0.9c-0.9,0-1.6-0.3-2.1-0.9c-0.5-0.6-0.8-1.4-0.8-2.4V255.1z M204.6,255.2
			c0,0.7,0.1,1.3,0.4,1.7c0.3,0.4,0.7,0.7,1.3,0.7c0.6,0,1-0.2,1.3-0.7s0.4-1,0.4-1.7v-0.1c0-0.7-0.1-1.2-0.4-1.7s-0.7-0.7-1.3-0.7
			c-0.6,0-1,0.2-1.3,0.7c-0.3,0.5-0.4,1-0.4,1.7V255.2z"/>
		<path class="st3" d="M212.3,250.3v1.6h1.2v0.9h-1.2v3.9c0,0.3,0.1,0.5,0.2,0.6c0.1,0.1,0.3,0.2,0.5,0.2c0.1,0,0.2,0,0.3,0
			c0.1,0,0.2,0,0.3-0.1l0.2,0.8c-0.1,0.1-0.3,0.1-0.5,0.2c-0.2,0-0.4,0.1-0.6,0.1c-0.5,0-0.9-0.1-1.1-0.4c-0.3-0.3-0.4-0.7-0.4-1.4
			v-3.9h-1v-0.9h1v-1.6H212.3z"/>
		<path class="st3" d="M222,258.4c0-0.2-0.1-0.3-0.1-0.5c0-0.1,0-0.3,0-0.4c-0.2,0.3-0.5,0.5-0.9,0.7c-0.3,0.2-0.7,0.3-1.1,0.3
			c-0.7,0-1.2-0.2-1.5-0.5c-0.4-0.3-0.5-0.8-0.5-1.4c0-0.6,0.2-1.1,0.7-1.4c0.5-0.3,1.2-0.5,2-0.5h1.2v-0.8c0-0.4-0.1-0.7-0.4-0.9
			c-0.2-0.2-0.6-0.3-1-0.3c-0.3,0-0.6,0-0.8,0.1c-0.2,0.1-0.4,0.2-0.5,0.3l-0.1,0.7h-0.9v-1.3c0.3-0.2,0.7-0.4,1.1-0.6
			s0.9-0.2,1.4-0.2c0.7,0,1.3,0.2,1.8,0.6c0.5,0.4,0.7,0.9,0.7,1.6v3.1c0,0.1,0,0.2,0,0.2c0,0.1,0,0.2,0,0.2l0.5,0.1v0.8H222z
			 M220.1,257.5c0.4,0,0.7-0.1,1.1-0.3s0.6-0.4,0.7-0.7v-1.1h-1.3c-0.5,0-0.9,0.1-1.1,0.3c-0.3,0.2-0.4,0.5-0.4,0.8
			c0,0.3,0.1,0.5,0.3,0.6S219.8,257.5,220.1,257.5z"/>
		<path class="st3" d="M227.4,257.6c0.4,0,0.7-0.1,1-0.4s0.4-0.5,0.4-0.9h1.1l0,0c0,0.6-0.2,1.1-0.7,1.5c-0.5,0.4-1.1,0.6-1.8,0.6
			c-0.9,0-1.7-0.3-2.2-0.9c-0.5-0.6-0.7-1.4-0.7-2.3V255c0-0.9,0.2-1.7,0.7-2.3c0.5-0.6,1.2-0.9,2.2-0.9c0.5,0,1,0.1,1.4,0.3
			s0.8,0.4,1,0.7l0.1,1.4H229l-0.3-1c-0.1-0.1-0.3-0.2-0.5-0.3c-0.2-0.1-0.5-0.1-0.7-0.1c-0.6,0-1.1,0.2-1.3,0.7
			c-0.3,0.4-0.4,1-0.4,1.6v0.3c0,0.7,0.1,1.2,0.4,1.7C226.4,257.3,226.8,257.6,227.4,257.6z"/>
		<path class="st3" d="M234,257.6c0.4,0,0.7-0.1,1-0.4s0.4-0.5,0.4-0.9h1.1l0,0c0,0.6-0.2,1.1-0.7,1.5c-0.5,0.4-1.1,0.6-1.8,0.6
			c-0.9,0-1.7-0.3-2.2-0.9c-0.5-0.6-0.7-1.4-0.7-2.3V255c0-0.9,0.2-1.7,0.7-2.3c0.5-0.6,1.2-0.9,2.2-0.9c0.5,0,1,0.1,1.4,0.3
			s0.8,0.4,1,0.7l0.1,1.4h-0.9l-0.3-1c-0.1-0.1-0.3-0.2-0.5-0.3c-0.2-0.1-0.5-0.1-0.7-0.1c-0.6,0-1.1,0.2-1.3,0.7
			c-0.3,0.4-0.4,1-0.4,1.6v0.3c0,0.7,0.1,1.2,0.4,1.7C233,257.3,233.4,257.6,234,257.6z"/>
		<path class="st3" d="M240.7,258.5c-0.9,0-1.6-0.3-2.1-0.9c-0.5-0.6-0.8-1.4-0.8-2.3V255c0-0.9,0.3-1.7,0.8-2.3
			c0.5-0.6,1.2-0.9,1.9-0.9c0.9,0,1.5,0.3,2,0.8c0.4,0.5,0.7,1.2,0.7,2.1v0.7H239l0,0c0,0.6,0.2,1.1,0.5,1.5s0.7,0.6,1.3,0.6
			c0.4,0,0.7-0.1,1-0.2c0.3-0.1,0.6-0.3,0.8-0.5l0.5,0.8c-0.2,0.2-0.5,0.4-0.9,0.6S241.2,258.5,240.7,258.5z M240.5,252.7
			c-0.4,0-0.7,0.2-1,0.5c-0.3,0.3-0.5,0.8-0.5,1.3l0,0h3v-0.2c0-0.5-0.1-0.8-0.4-1.2C241.4,252.9,241,252.7,240.5,252.7z"/>
		<path class="st3" d="M249.3,253.9h-0.9l-0.2-0.8c-0.1-0.1-0.3-0.2-0.5-0.3c-0.2-0.1-0.5-0.1-0.7-0.1c-0.4,0-0.7,0.1-0.9,0.3
			s-0.3,0.4-0.3,0.7c0,0.3,0.1,0.5,0.3,0.6c0.2,0.1,0.5,0.3,1.1,0.4c0.8,0.2,1.4,0.4,1.8,0.7s0.6,0.7,0.6,1.2c0,0.6-0.2,1-0.7,1.4
			c-0.5,0.4-1.1,0.5-1.8,0.5c-0.5,0-0.9-0.1-1.3-0.2c-0.4-0.1-0.7-0.3-1-0.5l0-1.5h0.9l0.2,0.9c0.1,0.1,0.3,0.2,0.6,0.3
			c0.2,0.1,0.5,0.1,0.7,0.1c0.4,0,0.7-0.1,1-0.3c0.2-0.2,0.4-0.4,0.4-0.7c0-0.3-0.1-0.5-0.3-0.6c-0.2-0.2-0.6-0.3-1.1-0.4
			c-0.8-0.2-1.4-0.4-1.8-0.7s-0.6-0.7-0.6-1.2c0-0.5,0.2-1,0.7-1.3c0.4-0.4,1-0.6,1.7-0.6c0.5,0,0.9,0.1,1.3,0.2
			c0.4,0.1,0.7,0.3,1,0.5L249.3,253.9z"/>
		<path class="st3" d="M255.5,253.9h-0.9l-0.2-0.8c-0.1-0.1-0.3-0.2-0.5-0.3c-0.2-0.1-0.5-0.1-0.7-0.1c-0.4,0-0.7,0.1-0.9,0.3
			s-0.3,0.4-0.3,0.7c0,0.3,0.1,0.5,0.3,0.6c0.2,0.1,0.5,0.3,1.1,0.4c0.8,0.2,1.4,0.4,1.8,0.7s0.6,0.7,0.6,1.2c0,0.6-0.2,1-0.7,1.4
			c-0.5,0.4-1.1,0.5-1.8,0.5c-0.5,0-0.9-0.1-1.3-0.2c-0.4-0.1-0.7-0.3-1-0.5l0-1.5h0.9l0.2,0.9c0.1,0.1,0.3,0.2,0.6,0.3
			c0.2,0.1,0.5,0.1,0.7,0.1c0.4,0,0.7-0.1,1-0.3c0.2-0.2,0.4-0.4,0.4-0.7c0-0.3-0.1-0.5-0.3-0.6c-0.2-0.2-0.6-0.3-1.1-0.4
			c-0.8-0.2-1.4-0.4-1.8-0.7s-0.6-0.7-0.6-1.2c0-0.5,0.2-1,0.7-1.3c0.4-0.4,1-0.6,1.7-0.6c0.5,0,0.9,0.1,1.3,0.2
			c0.4,0.1,0.7,0.3,1,0.5L255.5,253.9z"/>
		<path class="st3" d="M259.5,254.9c0,1.6-0.3,2.9-1,4c-0.6,1.1-1.3,1.8-2,2.2h0l-0.2-0.6c0.5-0.4,1-1.1,1.4-2.1
			c0.4-1,0.6-2.1,0.6-3.5v-0.1c0-1.4-0.2-2.5-0.6-3.5s-0.9-1.7-1.4-2.1l0.2-0.6h0c0.7,0.4,1.4,1.1,2,2.2
			C259.2,251.9,259.5,253.3,259.5,254.9L259.5,254.9z"/>
	</g>
	<g class="st2">
		<path class="st3" d="M247.1,210.3l0.8-0.2v-4L247,206v-1.1h2.7v5.2l0.8,0.2v1h-3.4V210.3z M249.6,203.4h-1.7v-1.3h1.7V203.4z"/>
		<path class="st3" d="M250.9,203.1v-1.1h2.7v8.1l0.8,0.2v1H251v-1l0.8-0.2v-6.9L250.9,203.1z"/>
		<path class="st3" d="M254.8,203.1v-1.1h2.7v8.1l0.8,0.2v1h-3.4v-1l0.8-0.2v-6.9L254.8,203.1z"/>
		<path class="st3" d="M262,211.5c-0.9,0-1.7-0.3-2.2-0.9c-0.6-0.6-0.8-1.4-0.8-2.3v-0.2c0-1,0.3-1.8,0.8-2.4
			c0.5-0.6,1.2-0.9,2.1-0.9c0.9,0,1.5,0.3,2,0.8c0.5,0.5,0.7,1.2,0.7,2.1v1h-3.9l0,0c0,0.4,0.2,0.8,0.4,1.1c0.3,0.3,0.6,0.4,1,0.4
			c0.4,0,0.7,0,1-0.1c0.3-0.1,0.5-0.2,0.8-0.4l0.5,1.1c-0.3,0.2-0.6,0.4-1,0.5S262.5,211.5,262,211.5z M261.8,206.1
			c-0.3,0-0.6,0.1-0.8,0.4c-0.2,0.2-0.3,0.6-0.3,1l0,0h2.1v-0.2c0-0.4-0.1-0.7-0.3-0.9C262.4,206.2,262.1,206.1,261.8,206.1z"/>
		<path class="st3" d="M265.5,208.2c0-1,0.2-1.8,0.7-2.5c0.4-0.6,1.1-0.9,1.9-0.9c0.4,0,0.7,0.1,1,0.2c0.3,0.2,0.5,0.4,0.7,0.7
			l0.1-0.8h1.5v6.3c0,0.9-0.3,1.5-0.8,2c-0.5,0.5-1.3,0.8-2.2,0.8c-0.3,0-0.7,0-1-0.1s-0.7-0.2-1-0.4l0.3-1.2
			c0.3,0.1,0.6,0.2,0.8,0.3c0.3,0.1,0.6,0.1,0.9,0.1c0.4,0,0.7-0.1,1-0.4c0.2-0.3,0.3-0.6,0.3-1.1v-0.4c-0.2,0.2-0.4,0.4-0.7,0.6
			c-0.3,0.1-0.6,0.2-0.9,0.2c-0.8,0-1.4-0.3-1.9-0.9s-0.7-1.4-0.7-2.3V208.2z M267.2,208.3c0,0.6,0.1,1,0.3,1.3
			c0.2,0.3,0.5,0.5,0.9,0.5c0.3,0,0.5,0,0.7-0.1c0.2-0.1,0.3-0.2,0.4-0.4v-2.8c-0.1-0.2-0.3-0.3-0.4-0.5c-0.2-0.1-0.4-0.2-0.7-0.2
			c-0.4,0-0.7,0.2-0.9,0.6c-0.2,0.4-0.3,0.9-0.3,1.5V208.3z"/>
		<path class="st3" d="M276.5,211.4c0-0.1-0.1-0.2-0.1-0.3c0-0.1-0.1-0.2-0.1-0.3c-0.2,0.2-0.5,0.4-0.8,0.6s-0.6,0.2-1,0.2
			c-0.6,0-1.1-0.2-1.5-0.5s-0.6-0.8-0.6-1.4c0-0.6,0.2-1.1,0.7-1.4c0.5-0.3,1.2-0.5,2.1-0.5h0.9V207c0-0.3-0.1-0.6-0.3-0.7
			c-0.2-0.2-0.4-0.3-0.8-0.3c-0.2,0-0.4,0-0.5,0.1c-0.2,0-0.3,0.1-0.4,0.2l-0.1,0.7h-1.3l0-1.4c0.3-0.2,0.7-0.4,1.1-0.5
			c0.4-0.1,0.9-0.2,1.3-0.2c0.8,0,1.5,0.2,2,0.6c0.5,0.4,0.8,1,0.8,1.7v2.7c0,0.1,0,0.2,0,0.3c0,0.1,0,0.2,0,0.3l0.5,0.1v1H276.5z
			 M275,210.2c0.3,0,0.5-0.1,0.7-0.2c0.2-0.1,0.4-0.3,0.5-0.4v-1h-0.9c-0.4,0-0.7,0.1-0.8,0.3s-0.3,0.4-0.3,0.6
			c0,0.2,0.1,0.4,0.2,0.5C274.5,210.2,274.7,210.2,275,210.2z"/>
		<path class="st3" d="M278.9,203.1v-1.1h2.7v8.1l0.8,0.2v1H279v-1l0.8-0.2v-6.9L278.9,203.1z"/>
		<path class="st3" d="M290.1,211.4c0-0.1-0.1-0.2-0.1-0.3c0-0.1-0.1-0.2-0.1-0.3c-0.2,0.2-0.5,0.4-0.8,0.6s-0.6,0.2-1,0.2
			c-0.6,0-1.1-0.2-1.5-0.5s-0.6-0.8-0.6-1.4c0-0.6,0.2-1.1,0.7-1.4c0.5-0.3,1.2-0.5,2.1-0.5h0.9V207c0-0.3-0.1-0.6-0.3-0.7
			c-0.2-0.2-0.4-0.3-0.8-0.3c-0.2,0-0.4,0-0.5,0.1c-0.2,0-0.3,0.1-0.4,0.2l-0.1,0.7h-1.3l0-1.4c0.3-0.2,0.7-0.4,1.1-0.5
			c0.4-0.1,0.9-0.2,1.3-0.2c0.8,0,1.5,0.2,2,0.6c0.5,0.4,0.8,1,0.8,1.7v2.7c0,0.1,0,0.2,0,0.3c0,0.1,0,0.2,0,0.3l0.5,0.1v1H290.1z
			 M288.6,210.2c0.3,0,0.5-0.1,0.7-0.2c0.2-0.1,0.4-0.3,0.5-0.4v-1h-0.9c-0.4,0-0.7,0.1-0.8,0.3s-0.3,0.4-0.3,0.6
			c0,0.2,0.1,0.4,0.2,0.5C288.2,210.2,288.4,210.2,288.6,210.2z"/>
		<path class="st3" d="M295.8,210.2c0.3,0,0.6-0.1,0.7-0.3c0.2-0.2,0.3-0.4,0.3-0.7h1.6l0,0c0,0.7-0.2,1.2-0.7,1.6s-1.1,0.7-1.9,0.7
			c-1,0-1.7-0.3-2.2-0.9c-0.5-0.6-0.8-1.4-0.8-2.3v-0.2c0-1,0.3-1.7,0.8-2.3c0.5-0.6,1.3-0.9,2.3-0.9c0.5,0,1,0.1,1.4,0.2
			c0.4,0.2,0.8,0.4,1,0.7l0,1.7h-1.4l-0.3-1c-0.1-0.1-0.2-0.1-0.3-0.2s-0.3-0.1-0.4-0.1c-0.5,0-0.8,0.2-1,0.5
			c-0.2,0.4-0.3,0.8-0.3,1.4v0.2c0,0.6,0.1,1,0.3,1.4C295,210,295.3,210.2,295.8,210.2z"/>
		<path class="st3" d="M302.2,210.2c0.3,0,0.6-0.1,0.7-0.3c0.2-0.2,0.3-0.4,0.3-0.7h1.6l0,0c0,0.7-0.2,1.2-0.7,1.6
			c-0.5,0.4-1.1,0.7-1.9,0.7c-1,0-1.7-0.3-2.2-0.9c-0.5-0.6-0.8-1.4-0.8-2.3v-0.2c0-1,0.3-1.7,0.8-2.3c0.5-0.6,1.3-0.9,2.3-0.9
			c0.5,0,1,0.1,1.4,0.2c0.4,0.2,0.8,0.4,1,0.7l0,1.7h-1.4l-0.3-1c-0.1-0.1-0.2-0.1-0.3-0.2s-0.3-0.1-0.4-0.1c-0.5,0-0.8,0.2-1,0.5
			c-0.2,0.4-0.3,0.8-0.3,1.4v0.2c0,0.6,0.1,1,0.3,1.4S301.7,210.2,302.2,210.2z"/>
		<path class="st3" d="M308.7,211.5c-0.9,0-1.7-0.3-2.2-0.9c-0.6-0.6-0.8-1.4-0.8-2.3v-0.2c0-1,0.3-1.8,0.8-2.4
			c0.5-0.6,1.2-0.9,2.1-0.9c0.9,0,1.5,0.3,2,0.8c0.5,0.5,0.7,1.2,0.7,2.1v1h-3.9l0,0c0,0.4,0.2,0.8,0.4,1.1c0.3,0.3,0.6,0.4,1,0.4
			c0.4,0,0.7,0,1-0.1c0.3-0.1,0.5-0.2,0.8-0.4l0.5,1.1c-0.3,0.2-0.6,0.4-1,0.5C309.7,211.4,309.2,211.5,308.7,211.5z M308.6,206.1
			c-0.3,0-0.6,0.1-0.8,0.4s-0.3,0.6-0.3,1l0,0h2.1v-0.2c0-0.4-0.1-0.7-0.3-0.9C309.2,206.2,308.9,206.1,308.6,206.1z"/>
		<path class="st3" d="M317.4,207.1h-1.2l-0.2-0.8c-0.1-0.1-0.3-0.2-0.5-0.2c-0.2-0.1-0.4-0.1-0.6-0.1c-0.3,0-0.5,0.1-0.7,0.2
			c-0.2,0.1-0.3,0.3-0.3,0.5c0,0.2,0.1,0.4,0.3,0.5c0.2,0.1,0.5,0.2,1,0.3c0.8,0.2,1.4,0.4,1.8,0.7s0.6,0.7,0.6,1.3
			c0,0.6-0.3,1.1-0.8,1.4c-0.5,0.4-1.2,0.6-2,0.6c-0.5,0-1-0.1-1.4-0.2s-0.8-0.4-1.1-0.6l0-1.5h1.2l0.2,0.8c0.1,0.1,0.2,0.2,0.4,0.2
			s0.4,0.1,0.6,0.1c0.4,0,0.6-0.1,0.8-0.2c0.2-0.1,0.3-0.3,0.3-0.5c0-0.2-0.1-0.4-0.3-0.5c-0.2-0.1-0.5-0.3-1-0.4
			c-0.8-0.2-1.3-0.4-1.7-0.7c-0.4-0.3-0.6-0.7-0.6-1.2c0-0.5,0.2-1,0.7-1.4s1.1-0.6,1.9-0.6c0.5,0,1,0.1,1.4,0.2s0.8,0.3,1.1,0.5
			L317.4,207.1z"/>
		<path class="st3" d="M323.7,207.1h-1.2l-0.2-0.8c-0.1-0.1-0.3-0.2-0.5-0.2s-0.4-0.1-0.6-0.1c-0.3,0-0.5,0.1-0.7,0.2
			s-0.3,0.3-0.3,0.5c0,0.2,0.1,0.4,0.3,0.5c0.2,0.1,0.5,0.2,1,0.3c0.8,0.2,1.4,0.4,1.8,0.7s0.6,0.7,0.6,1.3c0,0.6-0.3,1.1-0.8,1.4
			c-0.5,0.4-1.2,0.6-2,0.6c-0.5,0-1-0.1-1.4-0.2c-0.4-0.1-0.8-0.4-1.1-0.6l0-1.5h1.2l0.2,0.8c0.1,0.1,0.2,0.2,0.4,0.2
			c0.2,0,0.4,0.1,0.6,0.1c0.4,0,0.6-0.1,0.8-0.2c0.2-0.1,0.3-0.3,0.3-0.5c0-0.2-0.1-0.4-0.3-0.5c-0.2-0.1-0.5-0.3-1-0.4
			c-0.8-0.2-1.3-0.4-1.7-0.7s-0.6-0.7-0.6-1.2c0-0.5,0.2-1,0.7-1.4c0.4-0.4,1.1-0.6,1.9-0.6c0.5,0,1,0.1,1.4,0.2
			c0.4,0.1,0.8,0.3,1.1,0.5L323.7,207.1z"/>
	</g>
	
		<linearGradient id="SVGID_1_" gradientUnits="userSpaceOnUse" x1="64.91" y1="211.12" x2="235.35" y2="211.12" gradientTransform="matrix(1 0 0 -1 0 302)">
		<stop  offset="0" style="stop-color:#990066"/>
		<stop  offset="0.19" style="stop-color:#780066"/>
		<stop  offset="0.4" style="stop-color:#5A0066"/>
		<stop  offset="0.61" style="stop-color:#440066"/>
		<stop  offset="0.81" style="stop-color:#370066"/>
		<stop  offset="1" style="stop-color:#330066"/>
	</linearGradient>
	<path class="st6" d="M69.9,53.1h160.4c2.8,0,5,2.2,5,5v65.5c0,2.8-2.2,5-5,5H69.9c-2.8,0-5-2.2-5-5V58.1
		C64.9,55.4,67.1,53.1,69.9,53.1z"/>
	<path class="st7" d="M69.9,53.1h160.4c2.8,0,5,2.2,5,5v65.5c0,2.8-2.2,5-5,5H69.9c-2.8,0-5-2.2-5-5V58.1
		C64.9,55.4,67.1,53.1,69.9,53.1z"/>
	<path class="st8" d="M87.3,75.4h124.6c2.8,0,5,2.2,5,5v17.2c0,2.8-2.2,5-5,5H87.3c-2.8,0-5-2.2-5-5V80.4
		C82.3,77.6,84.5,75.4,87.3,75.4z"/>
	<g class="st2">
		<path class="st9" d="M126.4,91.5c0.3,0,0.5-0.1,0.7-0.2s0.3-0.4,0.3-0.7h1.4l0,0c0,0.6-0.2,1.1-0.7,1.5s-1,0.6-1.7,0.6
			c-0.9,0-1.5-0.3-2-0.8s-0.7-1.3-0.7-2.1v-0.2c0-0.9,0.2-1.6,0.7-2.1c0.5-0.6,1.2-0.8,2.1-0.8c0.5,0,0.9,0.1,1.3,0.2
			c0.4,0.1,0.7,0.3,0.9,0.6l0,1.6h-1.3l-0.3-0.9c-0.1-0.1-0.2-0.1-0.3-0.2s-0.2-0.1-0.4-0.1c-0.4,0-0.8,0.2-0.9,0.5
			s-0.3,0.7-0.3,1.2v0.2c0,0.5,0.1,0.9,0.3,1.3C125.7,91.3,126,91.5,126.4,91.5z"/>
		<path class="st9" d="M129.5,89.6c0-0.9,0.2-1.6,0.7-2.1c0.5-0.6,1.2-0.8,2-0.8c0.9,0,1.5,0.3,2,0.8c0.5,0.6,0.7,1.3,0.7,2.1v0.1
			c0,0.9-0.2,1.6-0.7,2.1c-0.5,0.5-1.2,0.8-2,0.8c-0.9,0-1.5-0.3-2-0.8c-0.5-0.5-0.7-1.3-0.7-2.1V89.6z M131,89.7
			c0,0.5,0.1,1,0.3,1.3s0.5,0.5,0.9,0.5c0.4,0,0.7-0.2,0.9-0.5c0.2-0.3,0.3-0.7,0.3-1.3v-0.1c0-0.5-0.1-0.9-0.3-1.3
			s-0.5-0.5-0.9-0.5s-0.7,0.2-0.9,0.5s-0.3,0.7-0.3,1.3V89.7z"/>
		<path class="st9" d="M135.5,91.6l0.8-0.2v-3.6l-0.8-0.2v-0.9h2.3l0.1,0.8c0.2-0.3,0.4-0.5,0.7-0.7s0.6-0.2,1-0.2
			c0.6,0,1,0.2,1.4,0.6c0.3,0.4,0.5,0.9,0.5,1.7v2.5l0.8,0.2v0.9h-3v-0.9l0.7-0.2V89c0-0.4-0.1-0.7-0.2-0.8s-0.4-0.2-0.7-0.2
			c-0.2,0-0.4,0-0.6,0.1s-0.3,0.2-0.4,0.4v3.1l0.6,0.2v0.9h-3V91.6z"/>
		<path class="st9" d="M144.9,85.3v1.4h1v1.1h-1v3c0,0.2,0,0.4,0.1,0.5s0.2,0.1,0.4,0.1c0.1,0,0.2,0,0.3,0c0.1,0,0.2,0,0.3,0
			l0.1,1.1c-0.2,0.1-0.3,0.1-0.5,0.1c-0.2,0-0.4,0-0.6,0c-0.5,0-1-0.1-1.2-0.4c-0.3-0.3-0.4-0.8-0.4-1.4v-3h-0.9v-1.1h0.9v-1.4
			H144.9z"/>
		<path class="st9" d="M150.4,92.6c0-0.1-0.1-0.2-0.1-0.3c0-0.1-0.1-0.2-0.1-0.3c-0.2,0.2-0.4,0.4-0.7,0.5c-0.3,0.1-0.6,0.2-0.9,0.2
			c-0.6,0-1-0.2-1.4-0.5c-0.3-0.3-0.5-0.7-0.5-1.3c0-0.5,0.2-1,0.7-1.3s1.1-0.4,1.9-0.4h0.8v-0.6c0-0.3-0.1-0.5-0.2-0.6
			s-0.4-0.2-0.7-0.2c-0.2,0-0.3,0-0.5,0.1s-0.3,0.1-0.3,0.1l-0.1,0.6h-1.2l0-1.3c0.3-0.2,0.6-0.4,1-0.5c0.4-0.1,0.8-0.2,1.2-0.2
			c0.7,0,1.3,0.2,1.8,0.5c0.4,0.4,0.7,0.9,0.7,1.5v2.4c0,0.1,0,0.2,0,0.3c0,0.1,0,0.2,0,0.2l0.5,0.1v0.9H150.4z M149,91.5
			c0.2,0,0.5-0.1,0.6-0.2c0.2-0.1,0.3-0.2,0.5-0.4v-0.9h-0.8c-0.3,0-0.6,0.1-0.8,0.2c-0.2,0.2-0.3,0.3-0.3,0.6
			c0,0.2,0.1,0.4,0.2,0.5C148.6,91.5,148.8,91.5,149,91.5z"/>
		<path class="st9" d="M152.7,91.6l0.8-0.2v-3.6l-0.8-0.2v-0.9h2.4v4.7l0.8,0.2v0.9h-3.1V91.6z M155,85.4h-1.6v-1.2h1.6V85.4z"/>
	</g>
	<g class="st2">
		<path class="st9" d="M156.2,91.6l0.8-0.2v-3.6l-0.8-0.2v-0.9h2.3l0.1,0.8c0.2-0.3,0.4-0.5,0.7-0.7s0.6-0.2,1-0.2
			c0.6,0,1,0.2,1.4,0.6c0.3,0.4,0.5,0.9,0.5,1.7v2.5l0.8,0.2v0.9h-3v-0.9l0.7-0.2V89c0-0.4-0.1-0.7-0.2-0.8s-0.4-0.2-0.7-0.2
			c-0.2,0-0.4,0-0.6,0.1s-0.3,0.2-0.4,0.4v3.1l0.6,0.2v0.9h-3V91.6z"/>
	</g>
	<g class="st2">
		<path class="st9" d="M166,92.7c-0.8,0-1.5-0.3-2-0.8s-0.8-1.2-0.8-2v-0.2c0-0.9,0.2-1.6,0.7-2.1c0.5-0.6,1.1-0.8,1.9-0.8
			c0.8,0,1.4,0.2,1.8,0.7s0.6,1.1,0.6,1.9v0.9h-3.5l0,0c0,0.4,0.2,0.7,0.4,0.9c0.2,0.2,0.5,0.4,0.9,0.4c0.3,0,0.6,0,0.9-0.1
			c0.2-0.1,0.5-0.2,0.8-0.3l0.4,1c-0.2,0.2-0.6,0.3-0.9,0.5C166.9,92.6,166.5,92.7,166,92.7z M165.9,87.9c-0.3,0-0.5,0.1-0.7,0.3
			c-0.2,0.2-0.3,0.5-0.3,0.9l0,0h1.9V89c0-0.3-0.1-0.6-0.2-0.8C166.4,88,166.2,87.9,165.9,87.9z"/>
		<path class="st9" d="M169.2,91.6l0.8-0.2v-3.6l-0.8-0.2v-0.9h2.3l0.1,0.8c0.1-0.3,0.3-0.5,0.5-0.7c0.2-0.2,0.5-0.3,0.7-0.3
			c0.1,0,0.2,0,0.3,0c0.1,0,0.2,0,0.2,0l-0.2,1.4l-0.6,0c-0.2,0-0.4,0-0.6,0.1s-0.3,0.2-0.3,0.4v2.8l0.8,0.2v0.9h-3.1V91.6z"/>
	</g>
	<path class="st10" d="M141.4,42.4c4.6-4.5,12.1-4.5,16.6,0.1c4.5,4.6,4.5,12.1-0.1,16.6s-12.1,4.5-16.6-0.1
		c-2.2-2.2-3.4-5.1-3.4-8.2c0-2.6,0.8-5.1,2.4-7.1"/>
	<path class="st8" d="M149.7,56.4h-4.3c-0.6,0-0.8-0.2-0.8-0.8v-6.5c0-0.6,0.2-0.8,0.8-0.8h8.5c0.6,0,0.8,0.2,0.8,0.8v6.5
		c0,0.5-0.2,0.8-0.8,0.8C152.5,56.4,151.1,56.4,149.7,56.4z"/>
	<path class="st8" d="M145.3,47.8c0-1.8,1-3.4,2.7-4.1c2.1-0.9,4.6,0,5.5,2.1c0.1,0.2,0.2,0.5,0.2,0.7c0.1,0.4,0.1,0.8,0.2,1.2"/>
	<path class="st9" d="M149,53.6L149,53.6v0.9c0,0.2,0.1,0.2,0.3,0.2h0.8c0.2,0,0.3-0.1,0.3-0.3v-1.6c0-0.2,0.1-0.3,0.2-0.4
		c0.5-0.3,0.8-0.9,0.6-1.4c-0.2-0.6-0.8-1-1.4-1c-0.7-0.1-1.3,0.3-1.6,0.9c-0.2,0.6,0,1.2,0.5,1.5c0.2,0.1,0.3,0.3,0.3,0.5
		C149,53.1,149,53.4,149,53.6z"/>
	<g id="Scone_logo_white">
		<g>
			<defs>
				<rect id="SVGID_2_" x="131.1" y="113.4" width="36.3" height="7.1"/>
			</defs>
			<clipPath id="SVGID_3_">
				<use xlink:href="#SVGID_2_"  style="overflow:visible;"/>
			</clipPath>
			<g class="st11">
				<g>
					<defs>
						<rect id="SVGID_4_" x="131.1" y="113.4" width="36.3" height="7.1"/>
					</defs>
					<clipPath id="SVGID_5_">
						<use xlink:href="#SVGID_4_"  style="overflow:visible;"/>
					</clipPath>
					<g class="st12">
						<path class="st13" d="M135.9,115.2h-0.8c-0.2,0-0.3,0.1-0.3,0.3v0.8c0,0.2,0.1,0.3,0.3,0.3h0.8c0.2,0,0.3-0.1,0.3-0.3v-0.8
							C136.2,115.3,136.1,115.2,135.9,115.2 M133.2,116.6h0.8c0.2,0,0.3-0.1,0.3-0.3v-0.8c0-0.2-0.1-0.3-0.3-0.3h-0.8
							c-0.2,0-0.3,0.1-0.3,0.3v0.8C133,116.4,133.1,116.6,133.2,116.6 M132.4,116.3v-0.8c0-0.2-0.1-0.3-0.3-0.3h-0.8
							c-0.2,0-0.3,0.1-0.3,0.3v0.8c0,0.2,0.1,0.3,0.3,0.3h0.8C132.3,116.6,132.4,116.4,132.4,116.3 M135.9,117.1
							c-0.1,0-0.2,0.1-0.2,0.2v0.9c0,0.1,0.1,0.2,0.2,0.2s0.2-0.1,0.2-0.2l0,0v-0.9C136.2,117.2,136.1,117.1,135.9,117.1
							L135.9,117.1 M133.9,117.4v0.8c0,0.2,0.1,0.3,0.3,0.3h0.8c0.2,0,0.3-0.1,0.3-0.3v-0.8c0-0.2-0.1-0.3-0.3-0.3h-0.8
							C134,117.1,133.9,117.2,133.9,117.4 M133.3,118.2v-0.8c0-0.2-0.1-0.3-0.3-0.3h-0.8c-0.2,0-0.3,0.1-0.3,0.3v0.8
							c0,0.2,0.1,0.3,0.3,0.3h0.7C133.2,118.5,133.3,118.3,133.3,118.2 M135.9,119h-0.8c-0.2,0-0.3,0.1-0.3,0.3v0.8
							c0,0.2,0.1,0.3,0.3,0.3h0.8c0.2,0,0.3-0.1,0.3-0.3v-0.8C136.2,119.1,136,119,135.9,119 M133.9,119h-0.8
							c-0.2,0-0.3,0.1-0.3,0.3v0.8c0,0.2,0.1,0.3,0.3,0.3h0.8c0.2,0,0.3-0.1,0.3-0.3v-0.8C134.2,119.1,134,119,133.9,119"/>
						<path class="st13" d="M136.8,114.9c0.3,0.3,0.8,0.4,1.2,0.4c0,0,0,0,0,0.1v2.1c0,0.8-1,1.3-1.2,1.4l0,0L136.8,114.9
							L136.8,114.9"/>
						<path class="st13" d="M134.5,114.8c1.6-0.1,1.9-0.6,1.9-0.6c0,0,0,0,0.1,0c0,0,0.1,0,0.1,0c0,0,0.2,0.6,1.9,0.6
							c0.1,0,0.1,0,0.1,0.1v2.8c0,0.9-1.7,1.9-1.7,1.9s-0.1,0-0.1,0v0.7c0,0,0.1,0.1,0.1,0c0.6-0.3,2.3-1.3,2.3-2.5v-3.5
							c0-0.1-0.1-0.1-0.2-0.1c-2.1,0-2.4-0.8-2.4-0.8s-0.1,0-0.1,0s-0.1,0-0.1,0s-0.3,0.8-2.4,0.8c-0.1,0-0.1,0-0.1,0.1v0.4
							c0,0,0,0.1,0.1,0.1L134.5,114.8"/>
						<path class="st14" d="M140.7,119.3l0.8-0.3c0.2,0.4,0.6,0.6,1.1,0.6c0.2,0,0.4,0,0.6-0.1c0.2-0.1,0.3-0.3,0.3-0.4
							c0-0.4-0.6-0.7-1-0.9l0,0c-0.3-0.1-0.7-0.3-0.9-0.5c-0.3-0.2-0.5-0.6-0.5-1c0-0.4,0.2-0.8,0.5-1c0.3-0.3,0.8-0.4,1.2-0.4
							c0.7,0,1.3,0.3,1.6,0.9l-0.9,0.3c-0.1-0.1-0.2-0.2-0.3-0.3c-0.1-0.1-0.3-0.1-0.5-0.1c-0.5,0-0.8,0.3-0.8,0.6
							c0,0.2,0.1,0.4,0.3,0.5c0.2,0.2,0.5,0.3,0.7,0.4h0.1c0.6,0.3,1.4,0.6,1.4,1.4c0,0.4-0.2,0.8-0.6,1c-0.4,0.3-0.9,0.4-1.3,0.4
							C141.9,120.3,141.1,119.9,140.7,119.3"/>
						<path class="st14" d="M148,120.4c-0.3,0-0.7-0.1-1-0.2c-0.6-0.3-1.1-0.8-1.4-1.4c-0.3-0.6-0.3-1.4,0-2
							c0.1-0.3,0.3-0.6,0.6-0.8c0.2-0.2,0.5-0.4,0.8-0.6c0.3-0.1,0.7-0.2,1-0.2c0.4,0,0.8,0.1,1.2,0.3c0.3,0.2,0.7,0.4,0.9,0.8
							l-0.7,0.5c-0.3-0.5-0.8-0.7-1.4-0.8c-0.5,0-0.9,0.2-1.2,0.5c-0.7,0.7-0.7,1.8,0,2.5c0.6,0.6,1.4,0.7,2.1,0.3
							c0.3-0.2,0.5-0.4,0.6-0.7l0.7,0.4c-0.2,0.4-0.5,0.8-0.9,1C148.9,120.3,148.5,120.4,148,120.4"/>
						<path class="st14" d="M153.6,120.4c-0.3,0-0.7-0.1-1-0.2c-0.3-0.1-0.6-0.3-0.8-0.6c-0.2-0.2-0.4-0.5-0.6-0.8
							c-0.1-0.3-0.2-0.7-0.2-1c0-0.3,0.1-0.7,0.2-1c0.1-0.3,0.3-0.6,0.6-0.8c0.2-0.2,0.5-0.4,0.8-0.6c0.6-0.3,1.4-0.3,2,0
							c0.3,0.1,0.6,0.3,0.8,0.6c0.2,0.2,0.4,0.5,0.6,0.8c0.3,0.6,0.3,1.4,0,2c-0.1,0.3-0.3,0.6-0.6,0.8
							C155,120.1,154.3,120.4,153.6,120.4 M153.6,116c-0.5,0-0.9,0.2-1.2,0.5c-0.3,0.3-0.5,0.8-0.5,1.2c0,1,0.8,1.7,1.7,1.7l0,0
							c0.5,0,0.9-0.2,1.2-0.5c0.3-0.3,0.5-0.8,0.5-1.2c0-0.5-0.2-0.9-0.5-1.2C154.5,116.2,154.1,116,153.6,116"/>
						<polygon class="st14" points="162.1,115.2 162.1,120.5 158.5,117.2 158.5,120.3 157.6,120.3 157.6,115.1 161.2,118.4 
							161.2,115.2 						"/>
						<polygon class="st14" points="164.6,116 164.6,117.4 167.1,117.4 167.1,118.2 164.6,118.2 164.6,119.5 167.4,119.5 
							167.4,120.3 163.6,120.3 163.6,115.2 167.4,115.2 167.4,116 164.6,116 						"/>
					</g>
				</g>
			</g>
		</g>
	</g>
	<path class="st15" d="M358.6,54.3h158.4c2.8,0,5,2.2,5,5v64.3c0,2.8-2.2,5-5,5H358.6c-2.8,0-5-2.2-5-5V59.3
		C353.6,56.6,355.9,54.3,358.6,54.3z"/>
	<g class="st2">
		<path class="st3" d="M410.9,87.7c0-0.1-0.1-0.2-0.1-0.3c0-0.1-0.1-0.2-0.1-0.3c-0.2,0.2-0.5,0.4-0.8,0.6s-0.6,0.2-1,0.2
			c-0.6,0-1.1-0.2-1.5-0.5c-0.4-0.3-0.6-0.8-0.6-1.4c0-0.6,0.2-1.1,0.7-1.4c0.5-0.3,1.2-0.5,2.1-0.5h0.9v-0.6c0-0.3-0.1-0.6-0.3-0.7
			c-0.2-0.2-0.4-0.3-0.8-0.3c-0.2,0-0.4,0-0.5,0.1c-0.2,0-0.3,0.1-0.4,0.2l-0.1,0.7h-1.3l0-1.4c0.3-0.2,0.7-0.4,1.1-0.5
			c0.4-0.1,0.9-0.2,1.3-0.2c0.8,0,1.5,0.2,2,0.6c0.5,0.4,0.8,1,0.8,1.7V86c0,0.1,0,0.2,0,0.3c0,0.1,0,0.2,0,0.3l0.5,0.1v1H410.9z
			 M409.4,86.5c0.3,0,0.5-0.1,0.7-0.2c0.2-0.1,0.4-0.3,0.5-0.4v-1h-0.9c-0.4,0-0.7,0.1-0.8,0.3s-0.3,0.4-0.3,0.6
			c0,0.2,0.1,0.4,0.2,0.5C409,86.5,409.2,86.5,409.4,86.5z"/>
		<path class="st3" d="M413.4,82.3v-1.1h2.5L416,82c0.2-0.3,0.4-0.5,0.7-0.6c0.3-0.2,0.6-0.2,0.9-0.2c0.8,0,1.4,0.3,1.9,0.9
			c0.4,0.6,0.7,1.4,0.7,2.5v0.1c0,1-0.2,1.7-0.7,2.3s-1.1,0.9-1.9,0.9c-0.3,0-0.6-0.1-0.9-0.2c-0.3-0.1-0.5-0.3-0.7-0.6v1.9l0.8,0.2
			v1.1h-3.4v-1.1l0.8-0.2v-6.5L413.4,82.3z M418.4,84.5c0-0.6-0.1-1.1-0.3-1.5c-0.2-0.4-0.5-0.6-0.9-0.6c-0.3,0-0.5,0.1-0.7,0.2
			c-0.2,0.1-0.3,0.3-0.4,0.5v2.8c0.1,0.2,0.3,0.3,0.4,0.4c0.2,0.1,0.4,0.1,0.7,0.1c0.4,0,0.7-0.2,0.9-0.5c0.2-0.3,0.3-0.8,0.3-1.3
			V84.5z"/>
	</g>
	<g class="st2">
		<path class="st3" d="M420.8,82.3v-1.1h2.5l0.1,0.8c0.2-0.3,0.4-0.5,0.7-0.6s0.6-0.2,0.9-0.2c0.8,0,1.4,0.3,1.9,0.9
			c0.4,0.6,0.7,1.4,0.7,2.5v0.1c0,1-0.2,1.7-0.7,2.3s-1.1,0.9-1.9,0.9c-0.3,0-0.6-0.1-0.9-0.2c-0.3-0.1-0.5-0.3-0.7-0.6v1.9l0.8,0.2
			v1.1h-3.4v-1.1l0.8-0.2v-6.5L420.8,82.3z M425.8,84.5c0-0.6-0.1-1.1-0.3-1.5c-0.2-0.4-0.5-0.6-0.9-0.6c-0.3,0-0.5,0.1-0.7,0.2
			s-0.3,0.3-0.4,0.5v2.8c0.1,0.2,0.3,0.3,0.4,0.4s0.4,0.1,0.7,0.1c0.4,0,0.7-0.2,0.9-0.5c0.2-0.3,0.3-0.8,0.3-1.3V84.5z"/>
	</g>
	<g class="st2">
		<path class="st3" d="M428,79.4v-1.1h2.7v8.1l0.8,0.2v1h-3.4v-1l0.8-0.2v-6.9L428,79.4z"/>
		<path class="st3" d="M432.1,86.6l0.8-0.2v-4l-0.9-0.2v-1.1h2.7v5.2l0.8,0.2v1h-3.4V86.6z M434.7,79.7h-1.7v-1.3h1.7V79.7z"/>
		<path class="st3" d="M439.1,86.5c0.3,0,0.6-0.1,0.7-0.3c0.2-0.2,0.3-0.4,0.3-0.7h1.6l0,0c0,0.7-0.2,1.2-0.7,1.6s-1.1,0.7-1.9,0.7
			c-1,0-1.7-0.3-2.2-0.9c-0.5-0.6-0.8-1.4-0.8-2.3v-0.2c0-1,0.3-1.7,0.8-2.3c0.5-0.6,1.3-0.9,2.3-0.9c0.5,0,1,0.1,1.4,0.2
			c0.4,0.2,0.8,0.4,1,0.7l0,1.7h-1.4l-0.3-1c-0.1-0.1-0.2-0.1-0.3-0.2c-0.1,0-0.3-0.1-0.4-0.1c-0.5,0-0.8,0.2-1,0.5
			c-0.2,0.4-0.3,0.8-0.3,1.4v0.2c0,0.6,0.1,1,0.3,1.4C438.3,86.3,438.6,86.5,439.1,86.5z"/>
	</g>
	<g class="st2">
		<path class="st3" d="M446.6,87.7c0-0.1-0.1-0.2-0.1-0.3c0-0.1-0.1-0.2-0.1-0.3c-0.2,0.2-0.5,0.4-0.8,0.6s-0.6,0.2-1,0.2
			c-0.6,0-1.1-0.2-1.5-0.5c-0.4-0.3-0.6-0.8-0.6-1.4c0-0.6,0.2-1.1,0.7-1.4c0.5-0.3,1.2-0.5,2.1-0.5h0.9v-0.6c0-0.3-0.1-0.6-0.3-0.7
			c-0.2-0.2-0.4-0.3-0.8-0.3c-0.2,0-0.4,0-0.5,0.1s-0.3,0.1-0.4,0.2l-0.1,0.7H443l0-1.4c0.3-0.2,0.7-0.4,1.1-0.5s0.9-0.2,1.3-0.2
			c0.8,0,1.5,0.2,2,0.6c0.5,0.4,0.8,1,0.8,1.7V86c0,0.1,0,0.2,0,0.3c0,0.1,0,0.2,0,0.3l0.5,0.1v1H446.6z M445.1,86.5
			c0.3,0,0.5-0.1,0.7-0.2s0.4-0.3,0.5-0.4v-1h-0.9c-0.4,0-0.7,0.1-0.8,0.3s-0.3,0.4-0.3,0.6c0,0.2,0.1,0.4,0.2,0.5
			C444.7,86.5,444.9,86.5,445.1,86.5z"/>
	</g>
	<g class="st2">
		<path class="st3" d="M451.4,79.6v1.6h1.1v1.2h-1.1v3.3c0,0.3,0.1,0.4,0.2,0.5s0.2,0.2,0.4,0.2c0.1,0,0.2,0,0.3,0
			c0.1,0,0.2,0,0.3-0.1l0.1,1.3c-0.2,0.1-0.4,0.1-0.6,0.1c-0.2,0-0.4,0-0.6,0c-0.6,0-1.1-0.2-1.4-0.5c-0.3-0.3-0.5-0.9-0.5-1.6v-3.3
			h-1v-1.2h1v-1.6H451.4z"/>
		<path class="st3" d="M453.3,86.6l0.8-0.2v-4l-0.9-0.2v-1.1h2.7v5.2l0.8,0.2v1h-3.4V86.6z M455.9,79.7h-1.7v-1.3h1.7V79.7z"/>
		<path class="st3" d="M457.3,84.4c0-1,0.3-1.8,0.8-2.4c0.5-0.6,1.3-0.9,2.2-0.9c1,0,1.7,0.3,2.2,0.9c0.5,0.6,0.8,1.4,0.8,2.4v0.1
			c0,1-0.3,1.8-0.8,2.4c-0.5,0.6-1.3,0.9-2.2,0.9c-1,0-1.7-0.3-2.3-0.9c-0.5-0.6-0.8-1.4-0.8-2.4V84.4z M459,84.5
			c0,0.6,0.1,1.1,0.3,1.4c0.2,0.4,0.5,0.5,1,0.5c0.5,0,0.8-0.2,1-0.5c0.2-0.4,0.3-0.8,0.3-1.4v-0.1c0-0.6-0.1-1-0.3-1.4
			c-0.2-0.4-0.5-0.5-1-0.5c-0.5,0-0.8,0.2-1,0.5c-0.2,0.4-0.3,0.8-0.3,1.4V84.5z"/>
		<path class="st3" d="M464.1,86.6l0.8-0.2v-4l-0.9-0.2v-1.1h2.6l0.1,0.9c0.2-0.3,0.5-0.6,0.8-0.8c0.3-0.2,0.7-0.3,1.1-0.3
			c0.7,0,1.2,0.2,1.5,0.6c0.4,0.4,0.5,1.1,0.5,1.9v2.8l0.8,0.2v1H468v-1l0.7-0.2v-2.8c0-0.4-0.1-0.7-0.3-0.9
			c-0.2-0.2-0.4-0.3-0.8-0.3c-0.2,0-0.4,0-0.6,0.1s-0.3,0.2-0.5,0.4v3.5l0.7,0.2v1h-3.3V86.6z"/>
	</g>
	<g class="st2">
		<path class="st3" d="M400,98.1v-0.8h2.2v5.4h0.8l1.4-1.7l-0.6-0.1v-0.8h2.7v0.8l-0.8,0.2l-1.7,2l2.1,2.6l0.7,0.1v0.8H404v-0.8
			l0.6-0.1l-1.7-2.2h-0.8v2.1l1,0.2v0.8H400v-0.8l1-0.2v-7.5L400,98.1z"/>
	</g>
	<g class="st2">
		<path class="st3" d="M410.4,106.8c-0.9,0-1.6-0.3-2.1-0.9c-0.5-0.6-0.8-1.4-0.8-2.3v-0.3c0-0.9,0.3-1.7,0.8-2.3
			c0.5-0.6,1.2-0.9,1.9-0.9c0.9,0,1.5,0.3,2,0.8c0.4,0.5,0.7,1.2,0.7,2.1v0.7h-4.2l0,0c0,0.6,0.2,1.1,0.5,1.5s0.7,0.6,1.3,0.6
			c0.4,0,0.7-0.1,1-0.2c0.3-0.1,0.6-0.3,0.8-0.5l0.5,0.8c-0.2,0.2-0.5,0.4-0.9,0.6C411.4,106.7,410.9,106.8,410.4,106.8z M410.2,101
			c-0.4,0-0.7,0.2-1,0.5c-0.3,0.3-0.5,0.8-0.5,1.3l0,0h3v-0.2c0-0.5-0.1-0.8-0.4-1.2C411.1,101.2,410.7,101,410.2,101z"/>
	</g>
	<g class="st2">
		<path class="st3" d="M420.1,101l-0.6,0.1l-2.5,6.6c-0.2,0.4-0.4,0.8-0.7,1.1c-0.3,0.3-0.7,0.5-1.2,0.5c-0.1,0-0.2,0-0.4,0
			c-0.1,0-0.3,0-0.3-0.1l0.1-0.9c0,0,0,0,0.2,0s0.3,0,0.3,0c0.3,0,0.5-0.1,0.6-0.3c0.2-0.2,0.3-0.5,0.4-0.8l0.3-0.7l-2.1-5.5
			l-0.6-0.1v-0.8h2.6v0.8l-0.7,0.1l1.1,3.2l0.2,0.8h0l1.3-4l-0.7-0.1v-0.8h2.6V101z"/>
	</g>
	<g class="st2">
		<path class="st3" d="M421.8,106.7h-1.2v-1.2h1.2V106.7z"/>
		<path class="st3" d="M427.6,105.9c-0.2,0.3-0.5,0.5-0.8,0.7s-0.7,0.2-1.1,0.2c-0.8,0-1.4-0.3-1.8-0.9c-0.4-0.6-0.7-1.3-0.7-2.3
			v-0.1c0-1,0.2-1.9,0.7-2.5s1.1-1,1.9-1c0.4,0,0.7,0.1,1,0.2s0.5,0.3,0.8,0.6v-2.6l-1-0.2v-0.8h1h1.2v8.4l1,0.2v0.8h-2L427.6,105.9
			z M424.4,103.7c0,0.6,0.1,1.2,0.4,1.6c0.3,0.4,0.7,0.6,1.2,0.6c0.4,0,0.6-0.1,0.9-0.2c0.2-0.2,0.4-0.4,0.6-0.7v-3
			c-0.2-0.3-0.3-0.5-0.6-0.6s-0.5-0.2-0.9-0.2c-0.6,0-1,0.2-1.2,0.7c-0.3,0.5-0.4,1.1-0.4,1.8V103.7z"/>
		<path class="st3" d="M434.8,106.7c0-0.2-0.1-0.3-0.1-0.5c0-0.1,0-0.3,0-0.4c-0.2,0.3-0.5,0.5-0.9,0.7c-0.3,0.2-0.7,0.3-1.1,0.3
			c-0.7,0-1.2-0.2-1.5-0.5c-0.4-0.3-0.5-0.8-0.5-1.4c0-0.6,0.2-1.1,0.7-1.4c0.5-0.3,1.2-0.5,2-0.5h1.2v-0.8c0-0.4-0.1-0.7-0.4-0.9
			c-0.2-0.2-0.6-0.3-1-0.3c-0.3,0-0.6,0-0.8,0.1c-0.2,0.1-0.4,0.2-0.5,0.3l-0.1,0.7h-0.9v-1.3c0.3-0.2,0.7-0.4,1.1-0.6
			s0.9-0.2,1.4-0.2c0.7,0,1.3,0.2,1.8,0.6c0.5,0.4,0.7,0.9,0.7,1.6v3.1c0,0.1,0,0.2,0,0.2c0,0.1,0,0.2,0,0.2l0.5,0.1v0.8H434.8z
			 M432.9,105.8c0.4,0,0.7-0.1,1.1-0.3c0.3-0.2,0.6-0.4,0.7-0.7v-1.1h-1.3c-0.5,0-0.9,0.1-1.1,0.3c-0.3,0.2-0.4,0.5-0.4,0.8
			c0,0.3,0.1,0.5,0.3,0.6S432.5,105.8,432.9,105.8z"/>
		<path class="st3" d="M439.4,98.7v1.6h1.2v0.9h-1.2v3.9c0,0.3,0.1,0.5,0.2,0.6c0.1,0.1,0.3,0.2,0.5,0.2c0.1,0,0.2,0,0.3,0
			c0.1,0,0.2,0,0.3-0.1l0.2,0.8c-0.1,0.1-0.3,0.1-0.5,0.2c-0.2,0-0.4,0.1-0.6,0.1c-0.5,0-0.9-0.1-1.1-0.4c-0.3-0.3-0.4-0.7-0.4-1.4
			v-3.9h-1v-0.9h1v-1.6H439.4z"/>
		<path class="st3" d="M446,106.7c0-0.2-0.1-0.3-0.1-0.5c0-0.1,0-0.3,0-0.4c-0.2,0.3-0.5,0.5-0.9,0.7s-0.7,0.3-1.1,0.3
			c-0.7,0-1.2-0.2-1.5-0.5c-0.4-0.3-0.5-0.8-0.5-1.4c0-0.6,0.2-1.1,0.7-1.4c0.5-0.3,1.2-0.5,2-0.5h1.2v-0.8c0-0.4-0.1-0.7-0.4-0.9
			c-0.2-0.2-0.6-0.3-1-0.3c-0.3,0-0.6,0-0.8,0.1c-0.2,0.1-0.4,0.2-0.5,0.3l-0.1,0.7h-0.9v-1.3c0.3-0.2,0.7-0.4,1.1-0.6
			c0.4-0.1,0.9-0.2,1.4-0.2c0.7,0,1.3,0.2,1.8,0.6c0.5,0.4,0.7,0.9,0.7,1.6v3.1c0,0.1,0,0.2,0,0.2c0,0.1,0,0.2,0,0.2l0.5,0.1v0.8
			H446z M444.1,105.8c0.4,0,0.7-0.1,1.1-0.3s0.6-0.4,0.7-0.7v-1.1h-1.3c-0.5,0-0.9,0.1-1.1,0.3c-0.3,0.2-0.4,0.5-0.4,0.8
			c0,0.3,0.1,0.5,0.3,0.6C443.5,105.8,443.8,105.8,444.1,105.8z"/>
		<path class="st3" d="M450.1,106.7h-1.2v-1.2h1.2V106.7z"/>
		<path class="st3" d="M454.4,105.9c0.4,0,0.7-0.1,1-0.4s0.4-0.5,0.4-0.9h1.1l0,0c0,0.6-0.2,1.1-0.7,1.5c-0.5,0.4-1.1,0.6-1.8,0.6
			c-0.9,0-1.7-0.3-2.2-0.9c-0.5-0.6-0.7-1.4-0.7-2.3v-0.3c0-0.9,0.2-1.7,0.7-2.3c0.5-0.6,1.2-0.9,2.2-0.9c0.5,0,1,0.1,1.4,0.3
			c0.4,0.2,0.8,0.4,1,0.7l0.1,1.4h-0.9l-0.3-1c-0.1-0.1-0.3-0.2-0.5-0.3s-0.5-0.1-0.7-0.1c-0.6,0-1.1,0.2-1.3,0.7
			c-0.3,0.4-0.4,1-0.4,1.6v0.3c0,0.7,0.1,1.2,0.4,1.7S453.8,105.9,454.4,105.9z"/>
		<path class="st3" d="M458.1,103.4c0-1,0.3-1.7,0.8-2.4c0.5-0.6,1.2-0.9,2.1-0.9c0.9,0,1.6,0.3,2.1,0.9c0.5,0.6,0.8,1.4,0.8,2.4
			v0.1c0,1-0.3,1.8-0.8,2.4s-1.2,0.9-2.1,0.9c-0.9,0-1.6-0.3-2.1-0.9c-0.5-0.6-0.8-1.4-0.8-2.4V103.4z M459.3,103.5
			c0,0.7,0.1,1.3,0.4,1.7c0.3,0.4,0.7,0.7,1.3,0.7c0.6,0,1-0.2,1.3-0.7s0.4-1,0.4-1.7v-0.1c0-0.7-0.1-1.2-0.4-1.7s-0.7-0.7-1.3-0.7
			c-0.6,0-1,0.2-1.3,0.7s-0.4,1-0.4,1.7V103.5z"/>
		<path class="st3" d="M469.3,105.9c-0.2,0.3-0.5,0.5-0.8,0.7s-0.7,0.2-1.1,0.2c-0.8,0-1.4-0.3-1.8-0.9c-0.4-0.6-0.7-1.3-0.7-2.3
			v-0.1c0-1,0.2-1.9,0.7-2.5s1.1-1,1.9-1c0.4,0,0.7,0.1,1,0.2s0.5,0.3,0.8,0.6v-2.6l-1-0.2v-0.8h1h1.2v8.4l1,0.2v0.8h-2L469.3,105.9
			z M466.1,103.7c0,0.6,0.1,1.2,0.4,1.6c0.3,0.4,0.7,0.6,1.2,0.6c0.4,0,0.6-0.1,0.9-0.2c0.2-0.2,0.4-0.4,0.6-0.7v-3
			c-0.2-0.3-0.3-0.5-0.6-0.6s-0.5-0.2-0.9-0.2c-0.6,0-1,0.2-1.2,0.7c-0.3,0.5-0.4,1.1-0.4,1.8V103.7z"/>
		<path class="st3" d="M475.2,106.8c-0.9,0-1.6-0.3-2.1-0.9c-0.5-0.6-0.8-1.4-0.8-2.3v-0.3c0-0.9,0.3-1.7,0.8-2.3
			c0.5-0.6,1.2-0.9,1.9-0.9c0.9,0,1.5,0.3,2,0.8c0.4,0.5,0.7,1.2,0.7,2.1v0.7h-4.2l0,0c0,0.6,0.2,1.1,0.5,1.5s0.7,0.6,1.3,0.6
			c0.4,0,0.7-0.1,1-0.2c0.3-0.1,0.6-0.3,0.8-0.5l0.5,0.8c-0.2,0.2-0.5,0.4-0.9,0.6S475.8,106.8,475.2,106.8z M475.1,101
			c-0.4,0-0.7,0.2-1,0.5c-0.3,0.3-0.4,0.8-0.5,1.3l0,0h3v-0.2c0-0.5-0.1-0.8-0.4-1.2C475.9,101.2,475.6,101,475.1,101z"/>
	</g>
	<path class="st16" d="M357.1,197.9h158.4c2.8,0,5,2.2,5,5v64.3c0,2.8-2.2,5-5,5H357.1c-2.8,0-5-2.2-5-5v-64.3
		C352.1,200.2,354.3,197.9,357.1,197.9z"/>
	<g class="st2">
		<path class="st3" d="M404.6,234.9v-1.2h1v-0.4c0-0.8,0.2-1.4,0.7-1.9c0.5-0.4,1.2-0.7,2.1-0.7c0.3,0,0.6,0,0.9,0.1
			s0.7,0.2,1.1,0.3l-0.3,1.4c-0.3-0.1-0.6-0.2-0.8-0.2s-0.5-0.1-0.8-0.1c-0.4,0-0.7,0.1-0.9,0.3s-0.3,0.5-0.3,0.8v0.4h3.9v5.2
			l0.9,0.2v1h-3.5v-1l0.8-0.2v-4h-2.2v4l0.8,0.2v1h-3.5v-1l0.9-0.2v-4H404.6z"/>
		<path class="st3" d="M412.6,231.9v-1.1h2.7v8.1l0.8,0.2v1h-3.4v-1l0.8-0.2V232L412.6,231.9z"/>
		<path class="st3" d="M419.8,240.3c-0.9,0-1.7-0.3-2.2-0.9c-0.6-0.6-0.8-1.4-0.8-2.3v-0.2c0-1,0.3-1.8,0.8-2.4
			c0.5-0.6,1.2-0.9,2.1-0.9c0.9,0,1.5,0.3,2,0.8c0.5,0.5,0.7,1.2,0.7,2.1v1h-3.9l0,0c0,0.4,0.2,0.8,0.4,1.1c0.3,0.3,0.6,0.4,1,0.4
			c0.4,0,0.7,0,1-0.1c0.3-0.1,0.5-0.2,0.8-0.4l0.5,1.1c-0.3,0.2-0.6,0.4-1,0.5C420.8,240.2,420.3,240.3,419.8,240.3z M419.6,234.9
			c-0.3,0-0.6,0.1-0.8,0.4s-0.3,0.6-0.3,1l0,0h2.1v-0.2c0-0.4-0.1-0.7-0.3-0.9C420.2,235,420,234.9,419.6,234.9z"/>
		<path class="st3" d="M431.5,235.9h-1.2l-0.2-0.8c-0.1-0.1-0.3-0.2-0.5-0.2s-0.4-0.1-0.6-0.1c-0.3,0-0.5,0.1-0.7,0.2
			c-0.2,0.1-0.3,0.3-0.3,0.5c0,0.2,0.1,0.4,0.3,0.5c0.2,0.1,0.5,0.2,1,0.3c0.8,0.2,1.4,0.4,1.8,0.7c0.4,0.3,0.6,0.7,0.6,1.3
			c0,0.6-0.3,1.1-0.8,1.4c-0.5,0.4-1.2,0.6-2,0.6c-0.5,0-1-0.1-1.4-0.2c-0.4-0.1-0.8-0.4-1.1-0.6l0-1.5h1.2l0.2,0.8
			c0.1,0.1,0.2,0.2,0.4,0.2s0.4,0.1,0.6,0.1c0.4,0,0.6-0.1,0.8-0.2c0.2-0.1,0.3-0.3,0.3-0.5c0-0.2-0.1-0.4-0.3-0.5
			c-0.2-0.1-0.5-0.3-1-0.4c-0.8-0.2-1.3-0.4-1.7-0.7s-0.6-0.7-0.6-1.2c0-0.5,0.2-1,0.7-1.4s1.1-0.6,1.9-0.6c0.5,0,1,0.1,1.4,0.2
			s0.8,0.3,1.1,0.5L431.5,235.9z"/>
		<path class="st3" d="M439.2,234.7l-0.6,0.1l-2.4,6.3c-0.2,0.5-0.4,0.9-0.8,1.2c-0.3,0.3-0.8,0.5-1.4,0.5c-0.1,0-0.3,0-0.4,0
			c-0.1,0-0.3-0.1-0.5-0.1l0.2-1.3c0.1,0,0.1,0,0.2,0c0.1,0,0.1,0,0.2,0c0.3,0,0.5-0.1,0.7-0.2c0.2-0.1,0.3-0.3,0.4-0.5l0.2-0.5
			l-2.1-5.3l-0.6-0.1v-1.1h3.2v1.1l-0.7,0.1l0.9,2.6l0.1,0.5l0,0l1-3.1l-0.7-0.1v-1.1h3.2V234.7z"/>
		<path class="st3" d="M445,235.9h-1.2l-0.2-0.8c-0.1-0.1-0.3-0.2-0.5-0.2s-0.4-0.1-0.6-0.1c-0.3,0-0.5,0.1-0.7,0.2
			c-0.2,0.1-0.3,0.3-0.3,0.5c0,0.2,0.1,0.4,0.3,0.5c0.2,0.1,0.5,0.2,1,0.3c0.8,0.2,1.4,0.4,1.8,0.7c0.4,0.3,0.6,0.7,0.6,1.3
			c0,0.6-0.3,1.1-0.8,1.4c-0.5,0.4-1.2,0.6-2,0.6c-0.5,0-1-0.1-1.4-0.2c-0.4-0.1-0.8-0.4-1.1-0.6l0-1.5h1.2l0.2,0.8
			c0.1,0.1,0.2,0.2,0.4,0.2s0.4,0.1,0.6,0.1c0.4,0,0.6-0.1,0.8-0.2c0.2-0.1,0.3-0.3,0.3-0.5c0-0.2-0.1-0.4-0.3-0.5
			c-0.2-0.1-0.5-0.3-1-0.4c-0.8-0.2-1.3-0.4-1.7-0.7s-0.6-0.7-0.6-1.2c0-0.5,0.2-1,0.7-1.4s1.1-0.6,1.9-0.6c0.5,0,1,0.1,1.4,0.2
			s0.8,0.3,1.1,0.5L445,235.9z"/>
		<path class="st3" d="M448.6,232.1v1.6h1.1v1.2h-1.1v3.3c0,0.3,0.1,0.4,0.2,0.5s0.2,0.2,0.4,0.2c0.1,0,0.2,0,0.3,0
			c0.1,0,0.2,0,0.3-0.1l0.1,1.3c-0.2,0.1-0.4,0.1-0.6,0.1c-0.2,0-0.4,0-0.6,0c-0.6,0-1.1-0.2-1.4-0.5c-0.3-0.3-0.5-0.9-0.5-1.6v-3.3
			h-1v-1.2h1v-1.6H448.6z"/>
		<path class="st3" d="M453.7,240.3c-0.9,0-1.7-0.3-2.2-0.9c-0.6-0.6-0.8-1.4-0.8-2.3v-0.2c0-1,0.3-1.8,0.8-2.4
			c0.5-0.6,1.2-0.9,2.1-0.9c0.9,0,1.5,0.3,2,0.8c0.5,0.5,0.7,1.2,0.7,2.1v1h-3.9l0,0c0,0.4,0.2,0.8,0.4,1.1c0.3,0.3,0.6,0.4,1,0.4
			c0.4,0,0.7,0,1-0.1c0.3-0.1,0.5-0.2,0.8-0.4l0.5,1.1c-0.3,0.2-0.6,0.4-1,0.5C454.7,240.2,454.2,240.3,453.7,240.3z M453.5,234.9
			c-0.3,0-0.6,0.1-0.8,0.4s-0.3,0.6-0.3,1l0,0h2.1v-0.2c0-0.4-0.1-0.7-0.3-0.9C454.2,235,453.9,234.9,453.5,234.9z"/>
		<path class="st3" d="M456.9,234.7v-1.1h2.6l0.1,0.9c0.2-0.3,0.5-0.6,0.8-0.7c0.3-0.2,0.7-0.3,1.1-0.3c0.4,0,0.8,0.1,1.1,0.3
			c0.3,0.2,0.5,0.5,0.7,0.8c0.2-0.3,0.5-0.6,0.8-0.8c0.3-0.2,0.7-0.3,1.1-0.3c0.6,0,1.1,0.2,1.5,0.7c0.4,0.4,0.6,1.1,0.6,2v2.7
			l0.8,0.2v1h-3.3v-1l0.8-0.2v-2.7c0-0.5-0.1-0.8-0.2-1s-0.4-0.3-0.7-0.3c-0.2,0-0.5,0.1-0.6,0.2c-0.2,0.1-0.3,0.3-0.4,0.5
			c0,0.1,0,0.1,0,0.2s0,0.1,0,0.2v3l0.7,0.2v1h-3.1v-1l0.7-0.2v-2.7c0-0.5-0.1-0.8-0.2-1c-0.2-0.2-0.4-0.3-0.7-0.3
			c-0.2,0-0.4,0-0.6,0.1c-0.2,0.1-0.3,0.2-0.4,0.4v3.5l0.8,0.2v1H457v-1l0.8-0.2v-4L456.9,234.7z"/>
	</g>
	<g class="st2">
		<path class="st9" d="M280.7,79.2c-0.3,0.2-0.7,0.4-1.1,0.5c-0.4,0.1-0.9,0.2-1.3,0.2c-0.6,0-1.1-0.1-1.5-0.3
			c-0.4-0.2-0.8-0.5-1-0.8c-0.3-0.3-0.4-0.8-0.6-1.3c-0.1-0.5-0.2-1-0.2-1.6c0-1.3,0.3-2.2,0.9-2.9c0.6-0.7,1.4-1,2.5-1
			c0.5,0,1,0,1.3,0.1s0.6,0.2,0.9,0.3l-0.5,1.6c-0.2-0.1-0.5-0.2-0.7-0.3c-0.2-0.1-0.5-0.1-0.8-0.1c-0.5,0-0.9,0.2-1.2,0.5
			c-0.3,0.4-0.4,0.9-0.4,1.7c0,0.3,0,0.6,0.1,0.9c0.1,0.3,0.2,0.5,0.3,0.7s0.3,0.4,0.5,0.5c0.2,0.1,0.5,0.2,0.8,0.2
			c0.3,0,0.6,0,0.8-0.1c0.2-0.1,0.4-0.2,0.6-0.3L280.7,79.2z"/>
		<path class="st9" d="M286.2,79.7v-4.1c0-0.7-0.1-1.2-0.2-1.5s-0.4-0.4-0.8-0.4c-0.3,0-0.6,0.1-0.8,0.3c-0.2,0.2-0.4,0.4-0.5,0.7v5
			h-2v-7.5h1.5l0.2,1h0.1c0.2-0.3,0.5-0.6,0.9-0.8c0.4-0.2,0.8-0.4,1.4-0.4c0.5,0,0.9,0.1,1.2,0.3c0.3,0.2,0.5,0.5,0.7,1
			c0.2-0.4,0.5-0.7,0.9-0.9c0.4-0.2,0.8-0.3,1.3-0.3c0.4,0,0.8,0,1.1,0.2c0.3,0.1,0.5,0.3,0.7,0.5c0.2,0.2,0.3,0.6,0.4,1
			s0.1,0.9,0.1,1.6v4.5h-2v-4.2c0-0.6-0.1-1-0.2-1.3c-0.1-0.3-0.4-0.4-0.8-0.4c-0.4,0-0.6,0.1-0.8,0.3c-0.2,0.2-0.4,0.5-0.5,0.8v4.9
			H286.2z"/>
		<path class="st9" d="M300.4,77c0,0.4,0,0.8,0,1.3c0,0.4,0.1,0.9,0.1,1.4h-1.4l-0.3-1h-0.1c-0.2,0.4-0.5,0.6-0.9,0.8
			s-0.8,0.3-1.3,0.3c-0.9,0-1.7-0.3-2.2-0.9s-0.8-1.6-0.8-2.9c0-1.3,0.3-2.3,0.9-3c0.6-0.7,1.4-1.1,2.5-1.1c0.3,0,0.6,0,0.8,0.1
			c0.2,0,0.4,0.1,0.6,0.2v-3h2V77z M297,78.2c0.4,0,0.7-0.1,0.9-0.3c0.2-0.2,0.4-0.5,0.5-0.8V74c-0.1-0.1-0.3-0.2-0.5-0.2
			s-0.4-0.1-0.7-0.1c-0.5,0-1,0.2-1.2,0.6s-0.4,1-0.4,1.9c0,0.6,0.1,1.2,0.3,1.5C296.2,78,296.6,78.2,297,78.2z"/>
	</g>
	<g class="st2">
		<path class="st9" d="M451.5,152.2c0.4-0.2,0.9-0.3,1.4-0.4c0.5-0.1,1.1-0.2,1.7-0.2c0.5,0,1,0.1,1.3,0.2c0.3,0.1,0.6,0.3,0.8,0.5
			c0.2,0.2,0.3,0.5,0.4,0.8c0.1,0.3,0.1,0.7,0.1,1.1c0,0.4,0,0.9,0,1.3s0,0.9-0.1,1.3s0,0.8,0,1.3c0,0.4,0.1,0.8,0.2,1.1h-1.6
			l-0.3-1h-0.1c-0.2,0.3-0.5,0.6-0.8,0.8c-0.4,0.2-0.8,0.3-1.4,0.3c-0.3,0-0.7-0.1-0.9-0.2c-0.3-0.1-0.5-0.3-0.7-0.5
			c-0.2-0.2-0.4-0.4-0.5-0.7c-0.1-0.3-0.2-0.6-0.2-0.9c0-0.5,0.1-0.8,0.3-1.2c0.2-0.3,0.5-0.6,0.9-0.8c0.4-0.2,0.8-0.3,1.4-0.4
			s1.1-0.1,1.8-0.1c0.1-0.6,0-1-0.1-1.2c-0.1-0.2-0.5-0.4-1-0.4c-0.4,0-0.8,0-1.2,0.1s-0.8,0.2-1.1,0.3L451.5,152.2z M454,157.8
			c0.4,0,0.7-0.1,0.9-0.3s0.4-0.4,0.5-0.6v-1c-0.3,0-0.6,0-0.9,0c-0.3,0-0.5,0.1-0.8,0.1c-0.2,0.1-0.4,0.2-0.5,0.3s-0.2,0.3-0.2,0.5
			c0,0.3,0.1,0.5,0.2,0.7C453.5,157.7,453.7,157.8,454,157.8z"/>
	</g>
	<g class="st2">
		<path class="st9" d="M464.3,158.8c-0.3,0.2-0.7,0.4-1.1,0.5c-0.4,0.1-0.9,0.2-1.3,0.2c-0.6,0-1.1-0.1-1.5-0.3
			c-0.4-0.2-0.8-0.5-1-0.8c-0.3-0.3-0.4-0.8-0.6-1.3s-0.2-1-0.2-1.6c0-1.3,0.3-2.2,0.9-2.9c0.6-0.7,1.4-1,2.5-1c0.5,0,1,0,1.3,0.1
			s0.6,0.2,0.9,0.3l-0.5,1.6c-0.2-0.1-0.5-0.2-0.7-0.3c-0.2-0.1-0.5-0.1-0.8-0.1c-0.5,0-0.9,0.2-1.2,0.5c-0.3,0.4-0.4,0.9-0.4,1.7
			c0,0.3,0,0.6,0.1,0.9c0.1,0.3,0.2,0.5,0.3,0.7c0.1,0.2,0.3,0.4,0.5,0.5c0.2,0.1,0.5,0.2,0.8,0.2c0.3,0,0.6,0,0.8-0.1
			s0.4-0.2,0.6-0.3L464.3,158.8z"/>
		<path class="st9" d="M470.3,158.8c-0.3,0.2-0.7,0.4-1.1,0.5c-0.4,0.1-0.9,0.2-1.3,0.2c-0.6,0-1.1-0.1-1.5-0.3
			c-0.4-0.2-0.8-0.5-1-0.8c-0.3-0.3-0.4-0.8-0.6-1.3s-0.2-1-0.2-1.6c0-1.3,0.3-2.2,0.9-2.9c0.6-0.7,1.4-1,2.5-1c0.5,0,1,0,1.3,0.1
			s0.6,0.2,0.9,0.3l-0.5,1.6c-0.2-0.1-0.5-0.2-0.7-0.3c-0.2-0.1-0.5-0.1-0.8-0.1c-0.5,0-0.9,0.2-1.2,0.5c-0.3,0.4-0.4,0.9-0.4,1.7
			c0,0.3,0,0.6,0.1,0.9c0.1,0.3,0.2,0.5,0.3,0.7c0.1,0.2,0.3,0.4,0.5,0.5c0.2,0.1,0.5,0.2,0.8,0.2c0.3,0,0.6,0,0.8-0.1
			s0.4-0.2,0.6-0.3L470.3,158.8z"/>
	</g>
	<g class="st2">
		<path class="st9" d="M477.5,158.7c-0.3,0.2-0.7,0.4-1.2,0.6c-0.5,0.2-1.1,0.2-1.6,0.2c-1.2,0-2.1-0.4-2.7-1.1
			c-0.6-0.7-0.8-1.7-0.8-2.9c0-1.3,0.3-2.3,0.9-3s1.5-1,2.7-1c0.4,0,0.8,0,1.1,0.2c0.4,0.1,0.7,0.3,1,0.5c0.3,0.2,0.5,0.5,0.7,0.9
			c0.2,0.4,0.3,0.9,0.3,1.5c0,0.2,0,0.4,0,0.7c0,0.2-0.1,0.5-0.1,0.8h-4.5c0,0.6,0.2,1.1,0.5,1.4s0.8,0.5,1.4,0.5
			c0.4,0,0.8-0.1,1.1-0.2c0.3-0.1,0.6-0.3,0.7-0.4L477.5,158.7z M474.7,153.1c-0.5,0-0.9,0.2-1.1,0.5c-0.2,0.3-0.4,0.7-0.4,1.2h2.8
			c0-0.5,0-1-0.2-1.2S475.1,153.1,474.7,153.1z"/>
		<path class="st9" d="M482.2,157.2c0-0.2-0.1-0.4-0.3-0.5s-0.4-0.2-0.6-0.3s-0.5-0.2-0.8-0.3s-0.6-0.3-0.8-0.4
			c-0.3-0.2-0.5-0.4-0.6-0.7c-0.2-0.3-0.3-0.7-0.3-1.1c0-0.7,0.2-1.3,0.7-1.7s1.1-0.6,1.9-0.6c0.6,0,1.1,0.1,1.5,0.2
			s0.8,0.3,1.1,0.4l-0.4,1.4c-0.2-0.1-0.5-0.2-0.9-0.3c-0.3-0.1-0.7-0.2-1.1-0.2c-0.6,0-0.9,0.2-0.9,0.7c0,0.2,0.1,0.3,0.3,0.4
			s0.4,0.2,0.6,0.3s0.5,0.2,0.8,0.3s0.6,0.3,0.8,0.4s0.5,0.4,0.6,0.7c0.2,0.3,0.3,0.6,0.3,1.1c0,0.8-0.2,1.4-0.7,1.8
			c-0.5,0.4-1.2,0.7-2.2,0.7c-0.5,0-1-0.1-1.5-0.2c-0.5-0.1-0.8-0.3-1.1-0.5l0.5-1.5c0.2,0.1,0.5,0.3,0.9,0.4s0.8,0.2,1.2,0.2
			c0.3,0,0.5-0.1,0.7-0.2C482.1,157.7,482.2,157.5,482.2,157.2z"/>
		<path class="st9" d="M488.5,157.2c0-0.2-0.1-0.4-0.3-0.5c-0.2-0.1-0.4-0.2-0.6-0.3c-0.3-0.1-0.5-0.2-0.8-0.3s-0.6-0.3-0.8-0.4
			c-0.3-0.2-0.5-0.4-0.6-0.7c-0.2-0.3-0.3-0.7-0.3-1.1c0-0.7,0.2-1.3,0.7-1.7c0.4-0.4,1.1-0.6,1.9-0.6c0.6,0,1.1,0.1,1.5,0.2
			s0.8,0.3,1.1,0.4l-0.4,1.4c-0.2-0.1-0.5-0.2-0.9-0.3c-0.4-0.1-0.7-0.2-1.1-0.2c-0.6,0-0.9,0.2-0.9,0.7c0,0.2,0.1,0.3,0.3,0.4
			c0.2,0.1,0.4,0.2,0.6,0.3s0.5,0.2,0.8,0.3c0.3,0.1,0.6,0.3,0.8,0.4s0.5,0.4,0.6,0.7c0.2,0.3,0.3,0.6,0.3,1.1
			c0,0.8-0.2,1.4-0.7,1.8c-0.5,0.4-1.2,0.7-2.2,0.7c-0.5,0-1-0.1-1.5-0.2c-0.5-0.1-0.8-0.3-1.1-0.5l0.5-1.5c0.2,0.1,0.5,0.3,0.9,0.4
			c0.4,0.1,0.8,0.2,1.2,0.2c0.3,0,0.5-0.1,0.7-0.2C488.5,157.7,488.5,157.5,488.5,157.2z"/>
	</g>
	<line class="st7" x1="345.5" y1="89.8" x2="344.5" y2="89.8"/>
	<line class="st17" x1="342.6" y1="89.8" x2="237.3" y2="89.8"/>
	<line class="st7" x1="236.4" y1="89.8" x2="235.4" y2="89.8"/>
	<polygon class="st9" points="338.9,81.7 337.5,83.1 344.8,89.8 337.5,96.5 338.9,98 347.7,89.8 	"/>
	<line class="st7" x1="436.9" y1="178.5" x2="436.9" y2="177.5"/>
	<line class="st18" x1="436.9" y1="175.5" x2="436.9" y2="136"/>
	<line class="st7" x1="436.9" y1="135" x2="436.9" y2="134"/>
	<polygon class="st9" points="445.1,171.9 443.6,170.5 436.9,177.8 430.2,170.5 428.8,171.9 436.9,180.7 	"/>
	<line class="st19" x1="346.6" y1="222.3" x2="246.7" y2="222.3"/>
	<polygon class="st20" points="340,214.1 338.6,215.5 345.8,222.3 338.6,229 340,230.4 348.8,222.3 	"/>
	<line class="st19" x1="348.3" y1="128.8" x2="247.7" y2="192.1"/>
	<polygon class="st20" points="338.4,125.4 338,127.4 347.7,129.2 345.1,138.7 347.1,139.3 350.2,127.6 	"/>
	<path class="st10" d="M428.1,188.4c4.6-4.5,12.1-4.5,16.6,0.2c4.5,4.6,4.5,12.1-0.2,16.6c-4.6,4.5-12.1,4.5-16.6-0.2
		c-2.1-2.2-3.4-5.1-3.4-8.2c0-2.6,0.8-5.1,2.4-7.1"/>
	<path class="st8" d="M436.3,202.5h-4.2c-0.6,0-0.8-0.2-0.8-0.8v-6.5c0-0.6,0.2-0.8,0.8-0.8h8.5c0.5,0,0.8,0.2,0.8,0.8v6.5
		c0,0.6-0.2,0.8-0.8,0.8C439.1,202.5,437.7,202.5,436.3,202.5z"/>
	<path class="st8" d="M432,193.8c0-1.8,1-3.4,2.6-4.1c2.1-0.9,4.6,0,5.5,2.1c0.1,0.2,0.2,0.5,0.2,0.7c0.1,0.4,0.1,0.8,0.2,1.2"/>
	<path class="st9" d="M435.6,199.7L435.6,199.7v0.9c0,0.2,0.1,0.2,0.3,0.2h0.8c0.2,0,0.3-0.1,0.3-0.3v-1.6c0-0.2,0.1-0.3,0.2-0.4
		c0.5-0.3,0.8-0.9,0.6-1.4c-0.2-0.6-0.8-1-1.5-1c-0.7-0.1-1.3,0.3-1.6,0.9c-0.2,0.6,0,1.2,0.5,1.5c0.2,0.1,0.3,0.3,0.3,0.5
		C435.6,199.2,435.6,199.5,435.6,199.7z"/>
	<path class="st21" d="M212.5,227.7c-0.6,0-1-0.4-1-1v-5.1c0-1.6,0.8-3.2,2.1-4.1c1-0.8,2.2-1.4,3.5-1.5c0.4-0.1,0.8-0.1,1.1-0.1
		v-1.1c-2.3-1.7-3.6-4.4-3.6-7.2c0-0.9,0-1.3,0-1.6c0-0.2,0-0.3,0-0.5h-0.2c-0.6,0-1-0.4-1-1v-5.6c0-0.2,0.1-0.4,0.2-0.5
		c0.6-3.9,3.2-7.1,6.9-8.4c2.3-0.8,4.7-0.8,7,0c1.5,0.5,2.8,1.4,3.9,2.5c1.6,1.6,2.7,3.7,3,5.9c0.1,0.1,0.1,0.3,0.1,0.5v5.6
		c0,0.6-0.4,1-1,1h-0.2v2.5c0,2.8-1.4,5.4-3.7,7v0.9c0.4,0,0.8,0,1.1,0.1c1.3,0.2,2.5,0.7,3.6,1.6c1.3,1,2.1,2.5,2.1,4.1v5.1
		c0,0.6-0.4,1-1,1L212.5,227.7z"/>
	<path class="st3" d="M223.9,190.3c1.1,0,2.2,0.2,3.2,0.5c1.3,0.5,2.5,1.2,3.5,2.3c1.6,1.5,2.5,3.5,2.8,5.7h0.1v5.6h-1.2v3.5
		c0,2.7-1.4,5.1-3.7,6.5v2.4h1c0.3,0,0.7,0,1,0.1c1.1,0.2,2.2,0.6,3.1,1.4c1.1,0.8,1.7,2,1.8,3.4v5.1h-22.9v-5.1
		c0-1.3,0.7-2.6,1.7-3.4c0.9-0.7,2-1.2,3.1-1.4c0.3-0.1,0.7-0.1,1-0.1h1v-2.5h0.1c-2.3-1.5-3.7-4.1-3.8-6.8c0-1.8-0.1-1.5-0.1-3.2
		h-1.2v-5.6h0.1c0.5-4.8,4.6-8.5,9.5-8.5 M224.1,188.3c-5.7-0.1-10.6,4.1-11.5,9.7c-0.1,0.3-0.2,0.6-0.2,0.9v5.6
		c0,0.8,0.5,1.5,1.3,1.9c0,0.3,0,0.6,0,1.3c0.1,2.8,1.3,5.5,3.4,7.4c-1.5,0.2-2.8,0.8-3.9,1.8c-1.6,1.1-2.5,3-2.5,4.9v5.1
		c0,1.1,0.9,2,2,2h22.9c1.1,0,2-0.9,2-2v-5.1c0-1.9-0.9-3.8-2.5-4.9c-1.1-0.9-2.4-1.5-3.7-1.7c2-1.8,3.2-4.4,3.2-7.1v-1.7
		c0.7-0.3,1.2-1,1.2-1.8v-5.6c0-0.3-0.1-0.6-0.2-0.9c-0.4-2.4-1.5-4.6-3.3-6.3c-1.2-1.2-2.7-2.2-4.3-2.7
		C226.6,188.6,225.3,188.4,224.1,188.3L224.1,188.3z"/>
	<polygon class="st3" points="214.2,202.9 214.2,207.3 222,207.3 223.9,207.3 225.9,207.3 233.6,207.3 233.6,202.9 	"/>
	<path class="st22" d="M215.6,203c0,1.9,0.1,2.7,0.1,4.6c0.1,4.5,3.8,8.2,8.3,8.2c4.5,0.2,8.2-3.3,8.4-7.8c0,0,0,0,0,0v-5.2"/>
	<path class="st22" d="M214.4,199.8c0-5.3,4.3-9.5,9.6-9.5c1.1,0,2.1,0.2,3.1,0.5c1.3,0.5,2.5,1.2,3.5,2.3c1.8,1.8,2.8,4.2,2.8,6.7"
		/>
	<rect x="214.4" y="199.4" class="st23" width="19.1" height="3.5"/>
	<line class="st23" x1="222.8" y1="210.9" x2="226.3" y2="210.9"/>
	<path class="st21" d="M220.4,203.8c-0.5,0.5-0.6,1.3-0.1,1.9c0.5,0.6,1.3,0.6,1.9,0.2c0.3-0.2,0.5-0.6,0.5-0.9l0,0L220.4,203.8z"/>
	<path class="st21" d="M229.5,203.8l-2.1,1.3c0.1,0.2,0.2,0.4,0.3,0.6c0.5,0.5,1.4,0.5,1.9,0c0.3-0.3,0.4-0.6,0.4-1
		C230,204.4,229.8,204.1,229.5,203.8z"/>
</g>
</svg>
