<?xml version="1.0" encoding="utf-8"?>
<!-- Generator: Adobe Illustrator 24.0.0, SVG Export Plug-In . SVG Version: 6.00 Build 0)  -->
<svg version="1.1" id="Ebene_1" xmlns="http://www.w3.org/2000/svg" xmlns:xlink="http://www.w3.org/1999/xlink" x="0px" y="0px"
	 viewBox="0 0 483 310.1" style="enable-background:new 0 0 483 310.1;" xml:space="preserve">
<style type="text/css">
	.st0{fill:#330066;}
	.st1{fill:none;stroke:#330066;stroke-linejoin:round;}
	.st2{fill:none;stroke:#330066;stroke-linecap:round;stroke-linejoin:round;}
	.st3{enable-background:new    ;}
	.st4{fill:none;stroke:#330066;stroke-width:2;stroke-miterlimit:10;}
	.st5{fill:none;stroke:#FFCC00;stroke-width:2;stroke-miterlimit:10;}
	.st6{fill:#FFFFFF;}
	.st7{fill:none;stroke:#990066;stroke-width:2;stroke-miterlimit:10;}
	.st8{fill:#990066;}
	.st9{fill:url(#SVGID_1_);stroke:#FFCC00;stroke-width:2;stroke-miterlimit:10;}
	.st10{fill:#FFFFFF;stroke:#FFCC00;stroke-width:2;stroke-linecap:round;stroke-linejoin:round;}
	.st11{fill:none;stroke:#FFCC00;stroke-width:2;stroke-linecap:round;stroke-linejoin:round;}
	.st12{fill:#FFCC00;}
	.st13{clip-path:url(#SVGID_3_);}
	.st14{clip-path:url(#SVGID_5_);}
	.st15{fill:#FFD138;}
	.st16{fill:#FDFEFF;}
	.st17{fill:#3399FF;}
	.st18{fill:#33CC99;}
</style>
<g id="Ebene_2_1_">
	<path class="st0" d="M31.7,45.1c0.4,0,0.7,0.3,0.7,0.7c0,0.4-0.3,0.7-0.7,0.7S31,46.2,31,45.8C31,45.4,31.3,45.1,31.7,45.1z"/>
	<circle class="st0" cx="25.9" cy="45.8" r="0.7"/>
	<path class="st1" d="M33,54.7v2.2h0.9c0.3,0,0.6,0,0.9,0.1c1,0.1,2,0.6,2.8,1.2c1,0.7,1.6,1.8,1.6,3v4.6H18.5v-4.6
		c0-1.2,0.6-2.3,1.6-3c0.8-0.7,1.8-1.1,2.8-1.2c0.3-0.1,0.6-0.1,0.9-0.1h0.9v-2.2"/>
	<path class="st2" d="M21.3,43.7c0,1.8,0.1,2.6,0.1,4.4c-0.1,4.2,3.3,7.7,7.5,7.8c4.1,0,7.5-3.3,7.5-7.4c0,0,0,0,0-0.1v-5"/>
	<path class="st2" d="M21.3,43.6l0.6-4.6c1.4-0.4,8.1,3.7,11.2-1.4c0,0-0.8,2.5,3.3,5.3v0.7"/>
	<path class="st2" d="M38.9,45.9c0,1.2-1,2.1-2.2,2.2v-4.3C37.9,43.8,38.9,44.8,38.9,45.9z"/>
	<path class="st2" d="M19.1,45.4v0.7c0.2,1,1.1,1.8,2.2,1.8v-4.3C20.2,43.6,19.3,44.4,19.1,45.4z"/>
	<path class="st2" d="M26.7,50.5c0.5,0.7,1.3,1.1,2.1,1.1c0.8,0,1.6-0.4,2.1-1.1"/>
	<path class="st2" d="M19.1,44.5V39c0-3.8,4.3-8.4,9.7-8.4s9.7,4.5,9.7,8.4v5.5"/>
	<path class="st0" d="M28.8,30.7c5.4,0,9.7,4.5,9.7,8.3v5.5h-0.4c0.3,0.4,0.4,0.8,0.4,1.2c0,1.2-1,2.1-2.2,2.2v0.5
		c0,2.5-1.2,4.9-3.3,6.3l0,0v2.2h0.9c0.3,0,0.6,0,0.9,0.1c1,0.1,2,0.6,2.8,1.2c1,0.7,1.6,1.8,1.6,3v4.6H18.5v-4.6
		c0-1.2,0.6-2.3,1.6-3c0.8-0.7,1.8-1.1,2.8-1.2c0.3-0.1,0.6-0.1,0.9-0.1h0.9v-2.2h0.3c-2.2-1.5-3.5-4-3.5-6.6c0-0.2,0-0.5,0-0.7
		c0,0.2,0,0.4,0,0.6c-1.1,0-2-0.8-2.2-1.8v-0.7c0-0.4,0.2-0.7,0.4-1h-0.5V39C19.1,35.2,23.4,30.6,28.8,30.7 M28.8,28.6
		c-6.6,0-11.7,5.6-11.7,10.4v5.4c0,0.2,0,0.3,0.1,0.5c0,0.1,0,0.1,0,0.2c0,0.1,0,0.2,0,0.3v0.7c0,0.1,0,0.2,0,0.3
		c0.2,1.4,1.1,2.5,2.3,3.1c0.3,2.1,1.3,4,2.8,5.5c-1.2,0.2-2.4,0.8-3.4,1.6c-1.5,1.1-2.3,2.8-2.4,4.6v4.6c0,1.1,0.9,2,2,2h20.6
		c1.1,0,2-0.9,2-2v-4.6c0-1.8-0.9-3.5-2.3-4.6c-0.9-0.7-2-1.3-3.2-1.5c1.5-1.5,2.5-3.5,2.7-5.7c1.3-0.7,2.2-2.1,2.2-3.7
		c0-0.2,0-0.5-0.1-0.7c0-0.2,0.1-0.3,0.1-0.5V39C40.5,34.2,35.4,28.6,28.8,28.6z"/>
	<g class="st3">
		<path class="st0" d="M193.7,101.5h-0.8l-0.2-0.7c-0.1-0.1-0.3-0.2-0.5-0.3c-0.2-0.1-0.4-0.1-0.7-0.1c-0.4,0-0.7,0.1-0.8,0.2
			c-0.2,0.2-0.3,0.4-0.3,0.6c0,0.2,0.1,0.4,0.2,0.5c0.2,0.1,0.5,0.3,1,0.4c0.7,0.2,1.3,0.4,1.6,0.6c0.4,0.3,0.5,0.6,0.5,1.1
			c0,0.5-0.2,0.9-0.6,1.3c-0.4,0.3-1,0.5-1.6,0.5c-0.4,0-0.8-0.1-1.2-0.2c-0.4-0.1-0.7-0.3-0.9-0.4l0-1.3h0.8l0.2,0.8
			c0.1,0.1,0.3,0.2,0.5,0.2c0.2,0,0.4,0.1,0.6,0.1c0.4,0,0.7-0.1,0.9-0.2c0.2-0.2,0.3-0.4,0.3-0.6c0-0.2-0.1-0.4-0.3-0.6
			c-0.2-0.2-0.5-0.3-1-0.4c-0.7-0.2-1.2-0.4-1.6-0.6c-0.4-0.3-0.5-0.6-0.5-1.1c0-0.5,0.2-0.9,0.6-1.2c0.4-0.3,0.9-0.5,1.6-0.5
			c0.4,0,0.8,0.1,1.2,0.2c0.4,0.1,0.6,0.3,0.9,0.5L193.7,101.5z"/>
		<path class="st0" d="M197.5,104.8c0.4,0,0.7-0.1,0.9-0.3s0.4-0.5,0.4-0.8h1l0,0c0,0.5-0.2,0.9-0.7,1.3c-0.5,0.4-1,0.6-1.6,0.6
			c-0.8,0-1.5-0.3-1.9-0.8c-0.4-0.6-0.7-1.2-0.7-2.1v-0.2c0-0.8,0.2-1.5,0.7-2.1c0.4-0.6,1.1-0.8,1.9-0.8c0.5,0,0.9,0.1,1.3,0.2
			c0.4,0.2,0.7,0.4,0.9,0.6l0,1.3h-0.8l-0.2-0.9c-0.1-0.1-0.3-0.2-0.5-0.3c-0.2-0.1-0.4-0.1-0.7-0.1c-0.6,0-1,0.2-1.2,0.6
			s-0.4,0.9-0.4,1.5v0.2c0,0.6,0.1,1.1,0.4,1.5S196.9,104.8,197.5,104.8z"/>
		<path class="st0" d="M200.8,102.5c0-0.9,0.2-1.6,0.7-2.1c0.5-0.6,1.1-0.8,1.9-0.8c0.8,0,1.4,0.3,1.9,0.8c0.5,0.6,0.7,1.3,0.7,2.1
			v0.1c0,0.9-0.2,1.6-0.7,2.1c-0.5,0.6-1.1,0.8-1.9,0.8c-0.8,0-1.4-0.3-1.9-0.8c-0.5-0.6-0.7-1.3-0.7-2.1V102.5z M201.9,102.6
			c0,0.6,0.1,1.1,0.4,1.5c0.3,0.4,0.6,0.6,1.2,0.6c0.5,0,0.9-0.2,1.1-0.6c0.3-0.4,0.4-0.9,0.4-1.5v-0.1c0-0.6-0.1-1.1-0.4-1.5
			c-0.3-0.4-0.6-0.6-1.2-0.6c-0.5,0-0.9,0.2-1.1,0.6s-0.4,0.9-0.4,1.5V102.6z"/>
	</g>
	<g class="st3">
		<path class="st0" d="M206.8,104.8l0.9-0.2v-4.2l-0.9-0.2v-0.7h1.8l0.1,0.9c0.2-0.3,0.4-0.5,0.7-0.7c0.3-0.2,0.6-0.3,1-0.3
			c0.6,0,1.1,0.2,1.5,0.6s0.5,0.9,0.5,1.7v2.8l0.9,0.2v0.7h-2.8v-0.7l0.9-0.2v-2.8c0-0.5-0.1-0.9-0.3-1.1s-0.5-0.3-0.9-0.3
			c-0.3,0-0.6,0.1-0.8,0.2c-0.2,0.1-0.4,0.3-0.6,0.6v3.4l0.9,0.2v0.7h-2.8V104.8z"/>
	</g>
	<g class="st3">
		<path class="st0" d="M216.6,105.6c-0.8,0-1.5-0.3-1.9-0.8c-0.5-0.5-0.7-1.2-0.7-2.1v-0.2c0-0.8,0.2-1.5,0.7-2.1
			c0.5-0.5,1.1-0.8,1.7-0.8c0.8,0,1.4,0.2,1.8,0.7c0.4,0.5,0.6,1.1,0.6,1.9v0.7h-3.8l0,0c0,0.6,0.2,1,0.4,1.4
			c0.3,0.4,0.7,0.5,1.1,0.5c0.4,0,0.7-0.1,0.9-0.2c0.3-0.1,0.5-0.2,0.7-0.4l0.4,0.7c-0.2,0.2-0.5,0.4-0.8,0.5
			S217.1,105.6,216.6,105.6z M216.5,100.4c-0.4,0-0.7,0.1-0.9,0.4c-0.3,0.3-0.4,0.7-0.5,1.1l0,0h2.7v-0.1c0-0.4-0.1-0.8-0.3-1
			C217.2,100.5,216.9,100.4,216.5,100.4z"/>
	</g>
	<g class="st3">
		<path class="st0" d="M200.9,208.8h-2.6v-2.3h2.6V208.8z"/>
		<path class="st0" d="M205.5,208.8h-2.6v-2.3h2.6V208.8z"/>
		<path class="st0" d="M210.1,208.8h-2.6v-2.3h2.6V208.8z"/>
	</g>
	<g class="st3">
		<path class="st0" d="M187.9,54.3h-1.2l-0.2-0.8c-0.1-0.1-0.3-0.2-0.5-0.2c-0.2-0.1-0.4-0.1-0.6-0.1c-0.3,0-0.5,0.1-0.7,0.2
			s-0.3,0.3-0.3,0.5c0,0.2,0.1,0.4,0.3,0.5c0.2,0.1,0.5,0.2,1,0.3c0.8,0.2,1.4,0.4,1.8,0.7c0.4,0.3,0.6,0.7,0.6,1.3
			c0,0.6-0.3,1.1-0.8,1.4c-0.5,0.4-1.2,0.6-2,0.6c-0.5,0-1-0.1-1.4-0.2s-0.8-0.4-1.1-0.6l0-1.5h1.2l0.2,0.8c0.1,0.1,0.2,0.2,0.4,0.2
			c0.2,0,0.4,0.1,0.6,0.1c0.4,0,0.6-0.1,0.8-0.2c0.2-0.1,0.3-0.3,0.3-0.5c0-0.2-0.1-0.4-0.3-0.5c-0.2-0.1-0.5-0.3-1-0.4
			c-0.8-0.2-1.3-0.4-1.7-0.7c-0.4-0.3-0.6-0.7-0.6-1.2c0-0.5,0.2-1,0.7-1.4s1.1-0.6,1.9-0.6c0.5,0,1,0.1,1.4,0.2s0.8,0.3,1.1,0.5
			L187.9,54.3z"/>
		<path class="st0" d="M192,58.7c-0.9,0-1.7-0.3-2.2-0.9c-0.6-0.6-0.8-1.4-0.8-2.3v-0.2c0-1,0.3-1.8,0.8-2.4
			c0.5-0.6,1.2-0.9,2.1-0.9c0.9,0,1.5,0.3,2,0.8c0.5,0.5,0.7,1.2,0.7,2.1v1h-3.9l0,0c0,0.4,0.2,0.8,0.4,1.1c0.3,0.3,0.6,0.4,1,0.4
			c0.4,0,0.7,0,1-0.1c0.3-0.1,0.5-0.2,0.8-0.4l0.5,1.1c-0.3,0.2-0.6,0.4-1,0.5S192.5,58.7,192,58.7z M191.9,53.3
			c-0.3,0-0.6,0.1-0.8,0.4c-0.2,0.2-0.3,0.6-0.3,1l0,0h2.1v-0.2c0-0.4-0.1-0.7-0.3-0.9C192.5,53.4,192.2,53.3,191.9,53.3z"/>
		<path class="st0" d="M200.7,54.3h-1.2l-0.2-0.8c-0.1-0.1-0.3-0.2-0.5-0.2c-0.2-0.1-0.4-0.1-0.6-0.1c-0.3,0-0.5,0.1-0.7,0.2
			s-0.3,0.3-0.3,0.5c0,0.2,0.1,0.4,0.3,0.5c0.2,0.1,0.5,0.2,1,0.3c0.8,0.2,1.4,0.4,1.8,0.7c0.4,0.3,0.6,0.7,0.6,1.3
			c0,0.6-0.3,1.1-0.8,1.4c-0.5,0.4-1.2,0.6-2,0.6c-0.5,0-1-0.1-1.4-0.2s-0.8-0.4-1.1-0.6l0-1.5h1.2l0.2,0.8c0.1,0.1,0.2,0.2,0.4,0.2
			c0.2,0,0.4,0.1,0.6,0.1c0.4,0,0.6-0.1,0.8-0.2c0.2-0.1,0.3-0.3,0.3-0.5c0-0.2-0.1-0.4-0.3-0.5c-0.2-0.1-0.5-0.3-1-0.4
			c-0.8-0.2-1.3-0.4-1.7-0.7c-0.4-0.3-0.6-0.7-0.6-1.2c0-0.5,0.2-1,0.7-1.4s1.1-0.6,1.9-0.6c0.5,0,1,0.1,1.4,0.2s0.8,0.3,1.1,0.5
			L200.7,54.3z"/>
		<path class="st0" d="M207,54.3h-1.2l-0.2-0.8c-0.1-0.1-0.3-0.2-0.5-0.2c-0.2-0.1-0.4-0.1-0.6-0.1c-0.3,0-0.5,0.1-0.7,0.2
			s-0.3,0.3-0.3,0.5c0,0.2,0.1,0.4,0.3,0.5c0.2,0.1,0.5,0.2,1,0.3c0.8,0.2,1.4,0.4,1.8,0.7c0.4,0.3,0.6,0.7,0.6,1.3
			c0,0.6-0.3,1.1-0.8,1.4c-0.5,0.4-1.2,0.6-2,0.6c-0.5,0-1-0.1-1.4-0.2s-0.8-0.4-1.1-0.6l0-1.5h1.2l0.2,0.8c0.1,0.1,0.2,0.2,0.4,0.2
			c0.2,0,0.4,0.1,0.6,0.1c0.4,0,0.6-0.1,0.8-0.2c0.2-0.1,0.3-0.3,0.3-0.5c0-0.2-0.1-0.4-0.3-0.5c-0.2-0.1-0.5-0.3-1-0.4
			c-0.8-0.2-1.3-0.4-1.7-0.7c-0.4-0.3-0.6-0.7-0.6-1.2c0-0.5,0.2-1,0.7-1.4s1.1-0.6,1.9-0.6c0.5,0,1,0.1,1.4,0.2s0.8,0.3,1.1,0.5
			L207,54.3z"/>
		<path class="st0" d="M208,57.5l0.8-0.2v-4l-0.9-0.2v-1.1h2.7v5.2l0.8,0.2v1H208V57.5z M210.6,50.6h-1.7v-1.3h1.7V50.6z"/>
		<path class="st0" d="M212,55.3c0-1,0.3-1.8,0.8-2.4c0.5-0.6,1.3-0.9,2.2-0.9c1,0,1.7,0.3,2.2,0.9c0.5,0.6,0.8,1.4,0.8,2.4v0.1
			c0,1-0.3,1.8-0.8,2.4c-0.5,0.6-1.3,0.9-2.2,0.9c-1,0-1.7-0.3-2.3-0.9c-0.5-0.6-0.8-1.4-0.8-2.4V55.3z M213.7,55.4
			c0,0.6,0.1,1.1,0.3,1.4c0.2,0.4,0.5,0.5,1,0.5c0.5,0,0.8-0.2,1-0.5c0.2-0.4,0.3-0.8,0.3-1.4v-0.1c0-0.6-0.1-1-0.3-1.4
			c-0.2-0.4-0.5-0.5-1-0.5c-0.5,0-0.8,0.2-1,0.5c-0.2,0.4-0.3,0.8-0.3,1.4V55.4z"/>
		<path class="st0" d="M218.8,57.5l0.8-0.2v-4l-0.9-0.2v-1.1h2.6l0.1,0.9c0.2-0.3,0.5-0.6,0.8-0.8c0.3-0.2,0.7-0.3,1.1-0.3
			c0.7,0,1.2,0.2,1.5,0.6s0.5,1.1,0.5,1.9v2.8l0.8,0.2v1h-3.3v-1l0.7-0.2v-2.8c0-0.4-0.1-0.7-0.3-0.9c-0.2-0.2-0.4-0.3-0.8-0.3
			c-0.2,0-0.4,0-0.6,0.1c-0.2,0.1-0.3,0.2-0.5,0.4v3.5l0.7,0.2v1h-3.3V57.5z"/>
	</g>
	<path class="st4" d="M164.9,15.5h78.3c2.8,0,5,2.2,5,5v65.1c0,2.8-2.2,5-5,5h-78.3c-2.8,0-5-2.2-5-5V20.5
		C159.9,17.7,162.2,15.5,164.9,15.5z"/>
	<path class="st0" d="M31.7,146.9c0.4,0,0.7,0.3,0.7,0.7c0,0.4-0.3,0.7-0.7,0.7c-0.4,0-0.7-0.3-0.7-0.7
		C31,147.3,31.3,146.9,31.7,146.9z"/>
	<circle class="st0" cx="25.9" cy="147.7" r="0.7"/>
	<path class="st1" d="M33,156.6v2.2h0.9c0.3,0,0.6,0,0.9,0.1c1,0.1,2,0.6,2.8,1.2c1,0.7,1.6,1.8,1.6,3v4.6H18.5v-4.6
		c0-1.2,0.6-2.3,1.6-3c0.8-0.7,1.8-1.1,2.8-1.2c0.3-0.1,0.6-0.1,0.9-0.1h0.9v-2.2"/>
	<path class="st2" d="M21.3,145.6c0,1.8,0.1,2.6,0.1,4.4c-0.1,4.2,3.3,7.7,7.5,7.8c4.1,0,7.5-3.3,7.5-7.4c0,0,0,0,0-0.1v-5"/>
	<path class="st2" d="M21.3,145.5l0.6-4.6c1.4-0.4,8.1,3.6,11.2-1.4c0,0-0.8,2.5,3.3,5.4v0.6"/>
	<path class="st2" d="M38.9,147.8c0,1.2-1,2.2-2.2,2.2v-4.3C37.9,145.7,38.9,146.7,38.9,147.8z"/>
	<path class="st2" d="M19.1,147.3v0.7c0.2,1,1.1,1.8,2.2,1.8v-4.3C20.2,145.5,19.3,146.3,19.1,147.3z"/>
	<path class="st2" d="M26.7,152.3c0.5,0.7,1.3,1.1,2.1,1.1c0.8,0,1.6-0.4,2.1-1.1"/>
	<path class="st2" d="M19.1,146.3v-5.4c0-3.8,4.3-8.3,9.7-8.3s9.7,4.5,9.7,8.3v5.5"/>
	<path class="st0" d="M28.8,132.6c5.4,0,9.7,4.5,9.7,8.3v5.5h-0.4c0.3,0.4,0.4,0.8,0.4,1.2c0,1.2-1,2.1-2.2,2.2v0.5
		c0,2.5-1.3,4.9-3.4,6.3H33v2.2h0.9c0.3,0,0.6,0,0.9,0.1c1,0.1,2,0.6,2.8,1.2c1,0.7,1.6,1.8,1.6,3v4.6H18.5v-4.6
		c0-1.2,0.6-2.3,1.6-3c0.8-0.7,1.8-1.1,2.8-1.2c0.3-0.1,0.6-0.1,0.9-0.1h0.9v-2.2h0.3c-2.2-1.5-3.5-3.9-3.5-6.6c0-0.2,0-0.5,0-0.7
		c0,0.2,0,0.4,0,0.6c-1.1,0-2.1-0.8-2.2-1.9v-0.7c0-0.4,0.2-0.7,0.4-1h-0.4v-5.4C19.1,137,23.4,132.5,28.8,132.6 M28.8,130.5
		c-6.6,0-11.7,5.6-11.7,10.3v5.4c0,0.2,0,0.3,0.1,0.5c0,0.1,0,0.1,0,0.2c0,0.1,0,0.2,0,0.3v0.8c0,0.1,0,0.2,0,0.3
		c0.2,1.4,1.1,2.5,2.3,3.1c0.3,2.1,1.2,4.1,2.7,5.6c-1.2,0.2-2.4,0.8-3.4,1.6c-1.5,1.1-2.3,2.8-2.4,4.6v4.6c0,1.1,0.9,2,2,2h20.7
		c1.1,0,2-0.9,2-2v-4.6c0-1.8-0.9-3.5-2.3-4.6c-0.9-0.8-2-1.3-3.2-1.6c1.5-1.5,2.5-3.5,2.7-5.7c1.3-0.7,2.2-2.1,2.2-3.6
		c0-0.2,0-0.5-0.1-0.7c0-0.2,0.1-0.3,0.1-0.5v-5.5C40.5,136.1,35.4,130.6,28.8,130.5L28.8,130.5z"/>
	<g class="st3">
		<path class="st0" d="M186.2,134.5v1.6h1.1v1.2h-1.1v3.3c0,0.3,0.1,0.4,0.2,0.5s0.2,0.2,0.4,0.2c0.1,0,0.2,0,0.3,0
			c0.1,0,0.2,0,0.3-0.1l0.1,1.3c-0.2,0.1-0.4,0.1-0.6,0.1c-0.2,0-0.4,0-0.6,0c-0.6,0-1.1-0.2-1.4-0.5c-0.3-0.3-0.5-0.9-0.5-1.6v-3.3
			h-1v-1.2h1v-1.6H186.2z"/>
		<path class="st0" d="M188.3,141.6l0.8-0.2v-4l-0.9-0.2v-1.1h2.6l0.1,0.9c0.2-0.3,0.3-0.6,0.6-0.8c0.2-0.2,0.5-0.3,0.8-0.3
			c0.1,0,0.2,0,0.3,0c0.1,0,0.2,0,0.3,0.1l-0.2,1.6l-0.7,0c-0.3,0-0.5,0-0.6,0.1c-0.2,0.1-0.3,0.2-0.4,0.4v3.1l0.8,0.2v1h-3.4V141.6
			z"/>
		<path class="st0" d="M197.9,141.8c-0.2,0.3-0.5,0.5-0.8,0.7c-0.3,0.2-0.7,0.2-1,0.2c-0.7,0-1.2-0.2-1.6-0.7
			c-0.4-0.4-0.6-1.1-0.6-2v-2.7l-0.7-0.2v-1.1h0.7h1.7v3.9c0,0.5,0.1,0.8,0.2,1s0.4,0.3,0.7,0.3c0.3,0,0.5,0,0.7-0.1
			c0.2-0.1,0.4-0.2,0.5-0.4v-3.5l-0.8-0.2v-1.1h0.8h1.7v5.2l0.8,0.2v1H198L197.9,141.8z"/>
		<path class="st0" d="M206.3,138.4h-1.2l-0.2-0.8c-0.1-0.1-0.3-0.2-0.5-0.2c-0.2-0.1-0.4-0.1-0.6-0.1c-0.3,0-0.5,0.1-0.7,0.2
			s-0.3,0.3-0.3,0.5c0,0.2,0.1,0.4,0.3,0.5c0.2,0.1,0.5,0.2,1,0.3c0.8,0.2,1.4,0.4,1.8,0.7c0.4,0.3,0.6,0.7,0.6,1.3
			c0,0.6-0.3,1.1-0.8,1.4c-0.5,0.4-1.2,0.6-2,0.6c-0.5,0-1-0.1-1.4-0.2s-0.8-0.4-1.1-0.6l0-1.5h1.2l0.2,0.8c0.1,0.1,0.2,0.2,0.4,0.2
			c0.2,0,0.4,0.1,0.6,0.1c0.4,0,0.6-0.1,0.8-0.2c0.2-0.1,0.3-0.3,0.3-0.5c0-0.2-0.1-0.4-0.3-0.5c-0.2-0.1-0.5-0.3-1-0.4
			c-0.8-0.2-1.3-0.4-1.7-0.7c-0.4-0.3-0.6-0.7-0.6-1.2c0-0.5,0.2-1,0.7-1.4s1.1-0.6,1.9-0.6c0.5,0,1,0.1,1.4,0.2s0.8,0.3,1.1,0.5
			L206.3,138.4z"/>
		<path class="st0" d="M209.9,134.5v1.6h1.1v1.2h-1.1v3.3c0,0.3,0.1,0.4,0.2,0.5s0.2,0.2,0.4,0.2c0.1,0,0.2,0,0.3,0
			c0.1,0,0.2,0,0.3-0.1l0.1,1.3c-0.2,0.1-0.4,0.1-0.6,0.1c-0.2,0-0.4,0-0.6,0c-0.6,0-1.1-0.2-1.4-0.5c-0.3-0.3-0.5-0.9-0.5-1.6v-3.3
			h-1v-1.2h1v-1.6H209.9z"/>
		<path class="st0" d="M214.9,142.7c-0.9,0-1.7-0.3-2.2-0.9c-0.6-0.6-0.8-1.4-0.8-2.3v-0.2c0-1,0.3-1.8,0.8-2.4
			c0.5-0.6,1.2-0.9,2.1-0.9c0.9,0,1.5,0.3,2,0.8c0.5,0.5,0.7,1.2,0.7,2.1v1h-3.9l0,0c0,0.4,0.2,0.8,0.4,1.1c0.3,0.3,0.6,0.4,1,0.4
			c0.4,0,0.7,0,1-0.1c0.3-0.1,0.5-0.2,0.8-0.4l0.5,1.1c-0.3,0.2-0.6,0.4-1,0.5S215.5,142.7,214.9,142.7z M214.8,137.4
			c-0.3,0-0.6,0.1-0.8,0.4c-0.2,0.2-0.3,0.6-0.3,1l0,0h2.1v-0.2c0-0.4-0.1-0.7-0.3-0.9C215.4,137.5,215.1,137.4,214.8,137.4z"/>
		<path class="st0" d="M222.6,141.8c-0.2,0.3-0.4,0.5-0.7,0.7s-0.6,0.2-0.9,0.2c-0.8,0-1.4-0.3-1.9-0.9c-0.4-0.6-0.7-1.4-0.7-2.3
			v-0.1c0-1,0.2-1.8,0.7-2.5c0.4-0.6,1.1-0.9,1.9-0.9c0.3,0,0.6,0.1,0.9,0.2c0.3,0.1,0.5,0.3,0.7,0.6v-2.3l-0.9-0.2v-1.1h0.9h1.7
			v8.1l0.8,0.2v1h-2.3L222.6,141.8z M220.1,139.5c0,0.6,0.1,1,0.3,1.3c0.2,0.3,0.5,0.5,0.9,0.5c0.3,0,0.5-0.1,0.7-0.2
			c0.2-0.1,0.3-0.3,0.5-0.4V138c-0.1-0.2-0.3-0.4-0.5-0.5c-0.2-0.1-0.4-0.2-0.7-0.2c-0.4,0-0.7,0.2-0.9,0.6
			c-0.2,0.4-0.3,0.9-0.3,1.5V139.5z"/>
	</g>
	<g class="st3">
		<path class="st0" d="M183.3,159.6c0-0.1-0.1-0.2-0.1-0.3c0-0.1-0.1-0.2-0.1-0.3c-0.2,0.2-0.5,0.4-0.8,0.6s-0.6,0.2-1,0.2
			c-0.6,0-1.1-0.2-1.5-0.5s-0.6-0.8-0.6-1.4c0-0.6,0.2-1.1,0.7-1.4c0.5-0.3,1.2-0.5,2.1-0.5h0.9v-0.6c0-0.3-0.1-0.6-0.3-0.7
			c-0.2-0.2-0.4-0.3-0.8-0.3c-0.2,0-0.4,0-0.5,0.1c-0.2,0-0.3,0.1-0.4,0.2l-0.1,0.7h-1.3l0-1.4c0.3-0.2,0.7-0.4,1.1-0.5
			c0.4-0.1,0.9-0.2,1.3-0.2c0.8,0,1.5,0.2,2,0.6c0.5,0.4,0.8,1,0.8,1.7v2.7c0,0.1,0,0.2,0,0.3c0,0.1,0,0.2,0,0.3l0.5,0.1v1H183.3z
			 M181.8,158.4c0.3,0,0.5-0.1,0.7-0.2c0.2-0.1,0.4-0.3,0.5-0.4v-1h-0.9c-0.4,0-0.7,0.1-0.8,0.3s-0.3,0.4-0.3,0.6
			c0,0.2,0.1,0.4,0.2,0.5C181.3,158.4,181.5,158.4,181.8,158.4z"/>
		<path class="st0" d="M185.8,154.2v-1.1h2.5l0.1,0.8c0.2-0.3,0.4-0.5,0.7-0.6c0.3-0.2,0.6-0.2,0.9-0.2c0.8,0,1.4,0.3,1.9,0.9
			c0.4,0.6,0.7,1.4,0.7,2.5v0.1c0,1-0.2,1.7-0.7,2.3s-1.1,0.9-1.9,0.9c-0.3,0-0.6-0.1-0.9-0.2c-0.3-0.1-0.5-0.3-0.7-0.6v1.9l0.8,0.2
			v1.1h-3.4V161l0.8-0.2v-6.5L185.8,154.2z M190.8,156.4c0-0.6-0.1-1.1-0.3-1.5c-0.2-0.4-0.5-0.6-0.9-0.6c-0.3,0-0.5,0.1-0.7,0.2
			c-0.2,0.1-0.3,0.3-0.4,0.5v2.8c0.1,0.2,0.3,0.3,0.4,0.4c0.2,0.1,0.4,0.1,0.7,0.1c0.4,0,0.7-0.2,0.9-0.5c0.2-0.3,0.3-0.8,0.3-1.3
			V156.4z"/>
		<path class="st0" d="M193.2,154.2v-1.1h2.5l0.1,0.8c0.2-0.3,0.4-0.5,0.7-0.6c0.3-0.2,0.6-0.2,0.9-0.2c0.8,0,1.4,0.3,1.9,0.9
			c0.4,0.6,0.7,1.4,0.7,2.5v0.1c0,1-0.2,1.7-0.7,2.3s-1.1,0.9-1.9,0.9c-0.3,0-0.6-0.1-0.9-0.2c-0.3-0.1-0.5-0.3-0.7-0.6v1.9l0.8,0.2
			v1.1h-3.4V161l0.8-0.2v-6.5L193.2,154.2z M198.2,156.4c0-0.6-0.1-1.1-0.3-1.5c-0.2-0.4-0.5-0.6-0.9-0.6c-0.3,0-0.5,0.1-0.7,0.2
			c-0.2,0.1-0.3,0.3-0.4,0.5v2.8c0.1,0.2,0.3,0.3,0.4,0.4c0.2,0.1,0.4,0.1,0.7,0.1c0.4,0,0.7-0.2,0.9-0.5c0.2-0.3,0.3-0.8,0.3-1.3
			V156.4z"/>
	</g>
	<g class="st3">
		<path class="st0" d="M200.9,158.6l0.8-0.2v-4l-0.9-0.2v-1.1h2.6l0.1,0.9c0.2-0.3,0.3-0.6,0.6-0.8c0.2-0.2,0.5-0.3,0.8-0.3
			c0.1,0,0.2,0,0.3,0c0.1,0,0.2,0,0.3,0.1l-0.2,1.6l-0.7,0c-0.3,0-0.5,0-0.6,0.1c-0.2,0.1-0.3,0.2-0.4,0.4v3.1l0.8,0.2v1h-3.4V158.6
			z"/>
	</g>
	<g class="st3">
		<path class="st0" d="M205.8,156.3c0-1,0.3-1.8,0.8-2.4c0.5-0.6,1.3-0.9,2.2-0.9c1,0,1.7,0.3,2.2,0.9c0.5,0.6,0.8,1.4,0.8,2.4v0.1
			c0,1-0.3,1.8-0.8,2.4c-0.5,0.6-1.3,0.9-2.2,0.9c-1,0-1.7-0.3-2.3-0.9c-0.5-0.6-0.8-1.4-0.8-2.4V156.3z M207.5,156.4
			c0,0.6,0.1,1.1,0.3,1.4c0.2,0.4,0.5,0.5,1,0.5c0.5,0,0.8-0.2,1-0.5c0.2-0.4,0.3-0.8,0.3-1.4v-0.1c0-0.6-0.1-1-0.3-1.4
			c-0.2-0.4-0.5-0.5-1-0.5c-0.5,0-0.8,0.2-1,0.5c-0.2,0.4-0.3,0.8-0.3,1.4V156.4z"/>
		<path class="st0" d="M215.2,154.2l-0.6,0.1l0.9,2.9l0.1,0.6h0l0.1-0.6l0.8-2.9l-0.6-0.1v-1.1h2.9v1.1l-0.6,0.1l-1.9,5.3h-1.7
			l-1.9-5.3l-0.6-0.1v-1.1h2.9V154.2z"/>
	</g>
	<g class="st3">
		<path class="st0" d="M223.6,159.6c0-0.1-0.1-0.2-0.1-0.3c0-0.1-0.1-0.2-0.1-0.3c-0.2,0.2-0.5,0.4-0.8,0.6s-0.6,0.2-1,0.2
			c-0.6,0-1.1-0.2-1.5-0.5s-0.6-0.8-0.6-1.4c0-0.6,0.2-1.1,0.7-1.4c0.5-0.3,1.2-0.5,2.1-0.5h0.9v-0.6c0-0.3-0.1-0.6-0.3-0.7
			c-0.2-0.2-0.4-0.3-0.8-0.3c-0.2,0-0.4,0-0.5,0.1c-0.2,0-0.3,0.1-0.4,0.2l-0.1,0.7h-1.3l0-1.4c0.3-0.2,0.7-0.4,1.1-0.5
			c0.4-0.1,0.9-0.2,1.3-0.2c0.8,0,1.5,0.2,2,0.6c0.5,0.4,0.8,1,0.8,1.7v2.7c0,0.1,0,0.2,0,0.3c0,0.1,0,0.2,0,0.3l0.5,0.1v1H223.6z
			 M222,158.4c0.3,0,0.5-0.1,0.7-0.2c0.2-0.1,0.4-0.3,0.5-0.4v-1h-0.9c-0.4,0-0.7,0.1-0.8,0.3s-0.3,0.4-0.3,0.6
			c0,0.2,0.1,0.4,0.2,0.5C221.6,158.4,221.8,158.4,222,158.4z"/>
		<path class="st0" d="M226,151.3v-1.1h2.7v8.1l0.8,0.2v1h-3.4v-1l0.8-0.2v-6.9L226,151.3z"/>
	</g>
	<g class="st3">
		<path class="st0" d="M198,176.6c0-0.1-0.1-0.2-0.1-0.3c0-0.1-0.1-0.2-0.1-0.3c-0.2,0.2-0.5,0.4-0.8,0.6s-0.6,0.2-1,0.2
			c-0.6,0-1.1-0.2-1.5-0.5c-0.4-0.3-0.6-0.8-0.6-1.4c0-0.6,0.2-1.1,0.7-1.4c0.5-0.3,1.2-0.5,2.1-0.5h0.9v-0.6c0-0.3-0.1-0.6-0.3-0.7
			c-0.2-0.2-0.4-0.3-0.8-0.3c-0.2,0-0.4,0-0.5,0.1c-0.2,0-0.3,0.1-0.4,0.2l-0.1,0.7h-1.3l0-1.4c0.3-0.2,0.7-0.4,1.1-0.5
			c0.4-0.1,0.9-0.2,1.3-0.2c0.8,0,1.5,0.2,2,0.6c0.5,0.4,0.8,1,0.8,1.7v2.7c0,0.1,0,0.2,0,0.3c0,0.1,0,0.2,0,0.3l0.5,0.1v1H198z
			 M196.5,175.4c0.3,0,0.5-0.1,0.7-0.2c0.2-0.1,0.4-0.3,0.5-0.4v-1h-0.9c-0.4,0-0.7,0.1-0.8,0.3s-0.3,0.4-0.3,0.6
			c0,0.2,0.1,0.4,0.2,0.5C196,175.4,196.2,175.4,196.5,175.4z"/>
		<path class="st0" d="M200.4,171.2v-1.1h2.5l0.1,0.8c0.2-0.3,0.4-0.5,0.7-0.6c0.3-0.2,0.6-0.2,0.9-0.2c0.8,0,1.4,0.3,1.9,0.9
			c0.4,0.6,0.7,1.4,0.7,2.5v0.1c0,1-0.2,1.7-0.7,2.3s-1.1,0.9-1.9,0.9c-0.3,0-0.6-0.1-0.9-0.2c-0.3-0.1-0.5-0.3-0.7-0.6v1.9l0.8,0.2
			v1.1h-3.4V178l0.8-0.2v-6.5L200.4,171.2z M205.5,173.4c0-0.6-0.1-1.1-0.3-1.5c-0.2-0.4-0.5-0.6-0.9-0.6c-0.3,0-0.5,0.1-0.7,0.2
			c-0.2,0.1-0.3,0.3-0.4,0.5v2.8c0.1,0.2,0.3,0.3,0.4,0.4c0.2,0.1,0.4,0.1,0.7,0.1c0.4,0,0.7-0.2,0.9-0.5c0.2-0.3,0.3-0.8,0.3-1.3
			V173.4z"/>
		<path class="st0" d="M207.8,171.2v-1.1h2.5l0.1,0.8c0.2-0.3,0.4-0.5,0.7-0.6c0.3-0.2,0.6-0.2,0.9-0.2c0.8,0,1.4,0.3,1.9,0.9
			c0.4,0.6,0.7,1.4,0.7,2.5v0.1c0,1-0.2,1.7-0.7,2.3s-1.1,0.9-1.9,0.9c-0.3,0-0.6-0.1-0.9-0.2c-0.3-0.1-0.5-0.3-0.7-0.6v1.9l0.8,0.2
			v1.1h-3.4V178l0.8-0.2v-6.5L207.8,171.2z M212.9,173.4c0-0.6-0.1-1.1-0.3-1.5c-0.2-0.4-0.5-0.6-0.9-0.6c-0.3,0-0.5,0.1-0.7,0.2
			c-0.2,0.1-0.3,0.3-0.4,0.5v2.8c0.1,0.2,0.3,0.3,0.4,0.4c0.2,0.1,0.4,0.1,0.7,0.1c0.4,0,0.7-0.2,0.9-0.5c0.2-0.3,0.3-0.8,0.3-1.3
			V173.4z"/>
	</g>
	<g class="st3">
		<path class="st0" d="M186.2,237.6v1.6h1.1v1.2h-1.1v3.3c0,0.3,0.1,0.4,0.2,0.5s0.2,0.2,0.4,0.2c0.1,0,0.2,0,0.3,0
			c0.1,0,0.2,0,0.3-0.1l0.1,1.3c-0.2,0.1-0.4,0.1-0.6,0.1c-0.2,0-0.4,0-0.6,0c-0.6,0-1.1-0.2-1.4-0.5c-0.3-0.3-0.5-0.9-0.5-1.6v-3.3
			h-1v-1.2h1v-1.6H186.2z"/>
		<path class="st0" d="M188.3,244.6l0.8-0.2v-4l-0.9-0.2v-1.1h2.6l0.1,0.9c0.2-0.3,0.3-0.6,0.6-0.8c0.2-0.2,0.5-0.3,0.8-0.3
			c0.1,0,0.2,0,0.3,0c0.1,0,0.2,0,0.3,0.1l-0.2,1.6l-0.7,0c-0.3,0-0.5,0-0.6,0.1c-0.2,0.1-0.3,0.2-0.4,0.4v3.1l0.8,0.2v1h-3.4V244.6
			z"/>
		<path class="st0" d="M197.9,244.8c-0.2,0.3-0.5,0.5-0.8,0.7c-0.3,0.2-0.7,0.2-1,0.2c-0.7,0-1.2-0.2-1.6-0.7
			c-0.4-0.4-0.6-1.1-0.6-2v-2.7l-0.7-0.2v-1.1h0.7h1.7v3.9c0,0.5,0.1,0.8,0.2,1s0.4,0.3,0.7,0.3c0.3,0,0.5,0,0.7-0.1
			c0.2-0.1,0.4-0.2,0.5-0.4v-3.5l-0.8-0.2v-1.1h0.8h1.7v5.2l0.8,0.2v1H198L197.9,244.8z"/>
		<path class="st0" d="M206.3,241.4h-1.2l-0.2-0.8c-0.1-0.1-0.3-0.2-0.5-0.2c-0.2-0.1-0.4-0.1-0.6-0.1c-0.3,0-0.5,0.1-0.7,0.2
			s-0.3,0.3-0.3,0.5c0,0.2,0.1,0.4,0.3,0.5c0.2,0.1,0.5,0.2,1,0.3c0.8,0.2,1.4,0.4,1.8,0.7c0.4,0.3,0.6,0.7,0.6,1.3
			c0,0.6-0.3,1.1-0.8,1.4c-0.5,0.4-1.2,0.6-2,0.6c-0.5,0-1-0.1-1.4-0.2s-0.8-0.4-1.1-0.6l0-1.5h1.2l0.2,0.8c0.1,0.1,0.2,0.2,0.4,0.2
			c0.2,0,0.4,0.1,0.6,0.1c0.4,0,0.6-0.1,0.8-0.2c0.2-0.1,0.3-0.3,0.3-0.5c0-0.2-0.1-0.4-0.3-0.5c-0.2-0.1-0.5-0.3-1-0.4
			c-0.8-0.2-1.3-0.4-1.7-0.7c-0.4-0.3-0.6-0.7-0.6-1.2c0-0.5,0.2-1,0.7-1.4s1.1-0.6,1.9-0.6c0.5,0,1,0.1,1.4,0.2s0.8,0.3,1.1,0.5
			L206.3,241.4z"/>
		<path class="st0" d="M209.9,237.6v1.6h1.1v1.2h-1.1v3.3c0,0.3,0.1,0.4,0.2,0.5s0.2,0.2,0.4,0.2c0.1,0,0.2,0,0.3,0
			c0.1,0,0.2,0,0.3-0.1l0.1,1.3c-0.2,0.1-0.4,0.1-0.6,0.1c-0.2,0-0.4,0-0.6,0c-0.6,0-1.1-0.2-1.4-0.5c-0.3-0.3-0.5-0.9-0.5-1.6v-3.3
			h-1v-1.2h1v-1.6H209.9z"/>
		<path class="st0" d="M214.9,245.8c-0.9,0-1.7-0.3-2.2-0.9c-0.6-0.6-0.8-1.4-0.8-2.3v-0.2c0-1,0.3-1.8,0.8-2.4
			c0.5-0.6,1.2-0.9,2.1-0.9c0.9,0,1.5,0.3,2,0.8c0.5,0.5,0.7,1.2,0.7,2.1v1h-3.9l0,0c0,0.4,0.2,0.8,0.4,1.1c0.3,0.3,0.6,0.4,1,0.4
			c0.4,0,0.7,0,1-0.1c0.3-0.1,0.5-0.2,0.8-0.4l0.5,1.1c-0.3,0.2-0.6,0.4-1,0.5S215.5,245.8,214.9,245.8z M214.8,240.4
			c-0.3,0-0.6,0.1-0.8,0.4c-0.2,0.2-0.3,0.6-0.3,1l0,0h2.1v-0.2c0-0.4-0.1-0.7-0.3-0.9C215.4,240.5,215.1,240.4,214.8,240.4z"/>
		<path class="st0" d="M222.6,244.9c-0.2,0.3-0.4,0.5-0.7,0.7s-0.6,0.2-0.9,0.2c-0.8,0-1.4-0.3-1.9-0.9c-0.4-0.6-0.7-1.4-0.7-2.3
			v-0.1c0-1,0.2-1.8,0.7-2.5c0.4-0.6,1.1-0.9,1.9-0.9c0.3,0,0.6,0.1,0.9,0.2c0.3,0.1,0.5,0.3,0.7,0.6v-2.3l-0.9-0.2v-1.1h0.9h1.7
			v8.1l0.8,0.2v1h-2.3L222.6,244.9z M220.1,242.6c0,0.6,0.1,1,0.3,1.3c0.2,0.3,0.5,0.5,0.9,0.5c0.3,0,0.5-0.1,0.7-0.2
			c0.2-0.1,0.3-0.3,0.5-0.4v-2.7c-0.1-0.2-0.3-0.4-0.5-0.5c-0.2-0.1-0.4-0.2-0.7-0.2c-0.4,0-0.7,0.2-0.9,0.6
			c-0.2,0.4-0.3,0.9-0.3,1.5V242.6z"/>
	</g>
	<g class="st3">
		<path class="st0" d="M183.3,262.7c0-0.1-0.1-0.2-0.1-0.3c0-0.1-0.1-0.2-0.1-0.3c-0.2,0.2-0.5,0.4-0.8,0.6s-0.6,0.2-1,0.2
			c-0.6,0-1.1-0.2-1.5-0.5s-0.6-0.8-0.6-1.4c0-0.6,0.2-1.1,0.7-1.4c0.5-0.3,1.2-0.5,2.1-0.5h0.9v-0.6c0-0.3-0.1-0.6-0.3-0.7
			c-0.2-0.2-0.4-0.3-0.8-0.3c-0.2,0-0.4,0-0.5,0.1c-0.2,0-0.3,0.1-0.4,0.2l-0.1,0.7h-1.3l0-1.4c0.3-0.2,0.7-0.4,1.1-0.5
			c0.4-0.1,0.9-0.2,1.3-0.2c0.8,0,1.5,0.2,2,0.6c0.5,0.4,0.8,1,0.8,1.7v2.7c0,0.1,0,0.2,0,0.3c0,0.1,0,0.2,0,0.3l0.5,0.1v1H183.3z
			 M181.8,261.5c0.3,0,0.5-0.1,0.7-0.2c0.2-0.1,0.4-0.3,0.5-0.4v-1h-0.9c-0.4,0-0.7,0.1-0.8,0.3s-0.3,0.4-0.3,0.6
			c0,0.2,0.1,0.4,0.2,0.5C181.3,261.4,181.5,261.5,181.8,261.5z"/>
		<path class="st0" d="M185.8,257.2v-1.1h2.5l0.1,0.8c0.2-0.3,0.4-0.5,0.7-0.6c0.3-0.2,0.6-0.2,0.9-0.2c0.8,0,1.4,0.3,1.9,0.9
			c0.4,0.6,0.7,1.4,0.7,2.5v0.1c0,1-0.2,1.7-0.7,2.3s-1.1,0.9-1.9,0.9c-0.3,0-0.6-0.1-0.9-0.2c-0.3-0.1-0.5-0.3-0.7-0.6v1.9l0.8,0.2
			v1.1h-3.4v-1.1l0.8-0.2v-6.5L185.8,257.2z M190.8,259.5c0-0.6-0.1-1.1-0.3-1.5c-0.2-0.4-0.5-0.6-0.9-0.6c-0.3,0-0.5,0.1-0.7,0.2
			c-0.2,0.1-0.3,0.3-0.4,0.5v2.8c0.1,0.2,0.3,0.3,0.4,0.4c0.2,0.1,0.4,0.1,0.7,0.1c0.4,0,0.7-0.2,0.9-0.5c0.2-0.3,0.3-0.8,0.3-1.3
			V259.5z"/>
		<path class="st0" d="M193.2,257.2v-1.1h2.5l0.1,0.8c0.2-0.3,0.4-0.5,0.7-0.6c0.3-0.2,0.6-0.2,0.9-0.2c0.8,0,1.4,0.3,1.9,0.9
			c0.4,0.6,0.7,1.4,0.7,2.5v0.1c0,1-0.2,1.7-0.7,2.3s-1.1,0.9-1.9,0.9c-0.3,0-0.6-0.1-0.9-0.2c-0.3-0.1-0.5-0.3-0.7-0.6v1.9l0.8,0.2
			v1.1h-3.4v-1.1l0.8-0.2v-6.5L193.2,257.2z M198.2,259.5c0-0.6-0.1-1.1-0.3-1.5c-0.2-0.4-0.5-0.6-0.9-0.6c-0.3,0-0.5,0.1-0.7,0.2
			c-0.2,0.1-0.3,0.3-0.4,0.5v2.8c0.1,0.2,0.3,0.3,0.4,0.4c0.2,0.1,0.4,0.1,0.7,0.1c0.4,0,0.7-0.2,0.9-0.5c0.2-0.3,0.3-0.8,0.3-1.3
			V259.5z"/>
	</g>
	<g class="st3">
		<path class="st0" d="M200.9,261.6l0.8-0.2v-4l-0.9-0.2v-1.1h2.6l0.1,0.9c0.2-0.3,0.3-0.6,0.6-0.8c0.2-0.2,0.5-0.3,0.8-0.3
			c0.1,0,0.2,0,0.3,0c0.1,0,0.2,0,0.3,0.1l-0.2,1.6l-0.7,0c-0.3,0-0.5,0-0.6,0.1c-0.2,0.1-0.3,0.2-0.4,0.4v3.1l0.8,0.2v1h-3.4V261.6
			z"/>
	</g>
	<g class="st3">
		<path class="st0" d="M205.8,259.4c0-1,0.3-1.8,0.8-2.4c0.5-0.6,1.3-0.9,2.2-0.9c1,0,1.7,0.3,2.2,0.9c0.5,0.6,0.8,1.4,0.8,2.4v0.1
			c0,1-0.3,1.8-0.8,2.4c-0.5,0.6-1.3,0.9-2.2,0.9c-1,0-1.7-0.3-2.3-0.9c-0.5-0.6-0.8-1.4-0.8-2.4V259.4z M207.5,259.5
			c0,0.6,0.1,1.1,0.3,1.4c0.2,0.4,0.5,0.5,1,0.5c0.5,0,0.8-0.2,1-0.5c0.2-0.4,0.3-0.8,0.3-1.4v-0.1c0-0.6-0.1-1-0.3-1.4
			c-0.2-0.4-0.5-0.5-1-0.5c-0.5,0-0.8,0.2-1,0.5c-0.2,0.4-0.3,0.8-0.3,1.4V259.5z"/>
		<path class="st0" d="M215.2,257.2l-0.6,0.1l0.9,2.9l0.1,0.6h0l0.1-0.6l0.8-2.9l-0.6-0.1v-1.1h2.9v1.1l-0.6,0.1l-1.9,5.3h-1.7
			l-1.9-5.3l-0.6-0.1v-1.1h2.9V257.2z"/>
	</g>
	<g class="st3">
		<path class="st0" d="M223.6,262.7c0-0.1-0.1-0.2-0.1-0.3c0-0.1-0.1-0.2-0.1-0.3c-0.2,0.2-0.5,0.4-0.8,0.6s-0.6,0.2-1,0.2
			c-0.6,0-1.1-0.2-1.5-0.5s-0.6-0.8-0.6-1.4c0-0.6,0.2-1.1,0.7-1.4c0.5-0.3,1.2-0.5,2.1-0.5h0.9v-0.6c0-0.3-0.1-0.6-0.3-0.7
			c-0.2-0.2-0.4-0.3-0.8-0.3c-0.2,0-0.4,0-0.5,0.1c-0.2,0-0.3,0.1-0.4,0.2l-0.1,0.7h-1.3l0-1.4c0.3-0.2,0.7-0.4,1.1-0.5
			c0.4-0.1,0.9-0.2,1.3-0.2c0.8,0,1.5,0.2,2,0.6c0.5,0.4,0.8,1,0.8,1.7v2.7c0,0.1,0,0.2,0,0.3c0,0.1,0,0.2,0,0.3l0.5,0.1v1H223.6z
			 M222,261.5c0.3,0,0.5-0.1,0.7-0.2c0.2-0.1,0.4-0.3,0.5-0.4v-1h-0.9c-0.4,0-0.7,0.1-0.8,0.3s-0.3,0.4-0.3,0.6
			c0,0.2,0.1,0.4,0.2,0.5C221.6,261.4,221.8,261.5,222,261.5z"/>
		<path class="st0" d="M226,254.4v-1.1h2.7v8.1l0.8,0.2v1h-3.4v-1l0.8-0.2v-6.9L226,254.4z"/>
	</g>
	<g class="st3">
		<path class="st0" d="M198,279.7c0-0.1-0.1-0.2-0.1-0.3c0-0.1-0.1-0.2-0.1-0.3c-0.2,0.2-0.5,0.4-0.8,0.6s-0.6,0.2-1,0.2
			c-0.6,0-1.1-0.2-1.5-0.5c-0.4-0.3-0.6-0.8-0.6-1.4c0-0.6,0.2-1.1,0.7-1.4c0.5-0.3,1.2-0.5,2.1-0.5h0.9v-0.6c0-0.3-0.1-0.6-0.3-0.7
			c-0.2-0.2-0.4-0.3-0.8-0.3c-0.2,0-0.4,0-0.5,0.1c-0.2,0-0.3,0.1-0.4,0.2l-0.1,0.7h-1.3l0-1.4c0.3-0.2,0.7-0.4,1.1-0.5
			c0.4-0.1,0.9-0.2,1.3-0.2c0.8,0,1.5,0.2,2,0.6c0.5,0.4,0.8,1,0.8,1.7v2.7c0,0.1,0,0.2,0,0.3c0,0.1,0,0.2,0,0.3l0.5,0.1v1H198z
			 M196.5,278.5c0.3,0,0.5-0.1,0.7-0.2c0.2-0.1,0.4-0.3,0.5-0.4v-1h-0.9c-0.4,0-0.7,0.1-0.8,0.3s-0.3,0.4-0.3,0.6
			c0,0.2,0.1,0.4,0.2,0.5C196,278.4,196.2,278.5,196.5,278.5z"/>
		<path class="st0" d="M200.4,274.2v-1.1h2.5l0.1,0.8c0.2-0.3,0.4-0.5,0.7-0.6c0.3-0.2,0.6-0.2,0.9-0.2c0.8,0,1.4,0.3,1.9,0.9
			c0.4,0.6,0.7,1.4,0.7,2.5v0.1c0,1-0.2,1.7-0.7,2.3s-1.1,0.9-1.9,0.9c-0.3,0-0.6-0.1-0.9-0.2c-0.3-0.1-0.5-0.3-0.7-0.6v1.9l0.8,0.2
			v1.1h-3.4v-1.1l0.8-0.2v-6.5L200.4,274.2z M205.5,276.5c0-0.6-0.1-1.1-0.3-1.5c-0.2-0.4-0.5-0.6-0.9-0.6c-0.3,0-0.5,0.1-0.7,0.2
			c-0.2,0.1-0.3,0.3-0.4,0.5v2.8c0.1,0.2,0.3,0.3,0.4,0.4c0.2,0.1,0.4,0.1,0.7,0.1c0.4,0,0.7-0.2,0.9-0.5c0.2-0.3,0.3-0.8,0.3-1.3
			V276.5z"/>
		<path class="st0" d="M207.8,274.2v-1.1h2.5l0.1,0.8c0.2-0.3,0.4-0.5,0.7-0.6c0.3-0.2,0.6-0.2,0.9-0.2c0.8,0,1.4,0.3,1.9,0.9
			c0.4,0.6,0.7,1.4,0.7,2.5v0.1c0,1-0.2,1.7-0.7,2.3s-1.1,0.9-1.9,0.9c-0.3,0-0.6-0.1-0.9-0.2c-0.3-0.1-0.5-0.3-0.7-0.6v1.9l0.8,0.2
			v1.1h-3.4v-1.1l0.8-0.2v-6.5L207.8,274.2z M212.9,276.5c0-0.6-0.1-1.1-0.3-1.5c-0.2-0.4-0.5-0.6-0.9-0.6c-0.3,0-0.5,0.1-0.7,0.2
			c-0.2,0.1-0.3,0.3-0.4,0.5v2.8c0.1,0.2,0.3,0.3,0.4,0.4c0.2,0.1,0.4,0.1,0.7,0.1c0.4,0,0.7-0.2,0.9-0.5c0.2-0.3,0.3-0.8,0.3-1.3
			V276.5z"/>
	</g>
	<path class="st5" d="M164.9,117.3h78.3c2.8,0,5,2.2,5,5v65.1c0,2.8-2.2,5-5,5h-78.3c-2.8,0-5-2.2-5-5v-65.1
		C159.9,119.6,162.2,117.3,164.9,117.3z"/>
	<path class="st5" d="M164.9,220.2h78.3c2.8,0,5,2.2,5,5v65.1c0,2.8-2.2,5-5,5h-78.3c-2.8,0-5-2.2-5-5v-65.1
		C159.9,222.5,162.2,220.2,164.9,220.2z"/>
</g>
<g id="schrift">
	<path class="st6" d="M19.2,283.6c-0.6,0-1-0.4-1-1v-4.7c0-1.5,0.6-2.9,1.7-4c1-1,2.3-1.6,3.7-1.7v-0.4c-2.9-1.3-4.9-4-5.3-7.1
		c-1.4-0.4-2.4-1.7-2.4-3.2c0-0.8,0.3-1.6,0.8-2.2v-4.1c0-5.8,4.7-10.4,10.4-10.5c3.8,0,7.4,1.9,9.5,5.1h0.4c1.8,0,3.3,1.5,3.4,3.3
		c0,0,0,0,0,0.1c0,0.3,0,0.6-0.1,0.8c1,0.9,1.6,2.2,1.7,3.5c0,1.8-1.1,3.4-2.8,4.1c-0.1,1.4-1.1,2.6-2.4,3c-0.3,2-1.2,3.8-2.6,5.3
		c-0.8,0.8-1.8,1.5-2.9,2v0.3c1.5,0,2.9,0.6,3.9,1.7c1.1,1,1.7,2.5,1.7,4v4.7c0,0.6-0.4,1-1,1L19.2,283.6z"/>
	<path class="st0" d="M27,245.6c3.7,0,7.2,2,9,5.3c0.3-0.1,0.6-0.2,0.9-0.2c1.3,0,2.3,1,2.4,2.3c0,0,0,0.1,0,0.1
		c0,0.4-0.1,0.8-0.3,1.2c1.1,0.6,1.9,1.8,1.9,3.1c0,1.7-1.2,3.1-2.8,3.5c0,0.2,0.1,0.3,0.1,0.5c0,1.3-1.1,2.4-2.4,2.4v-0.4
		c0,2.2-0.9,4.3-2.4,5.8c-0.9,0.9-1.9,1.6-3.1,2h-0.1v2H31c1.2,0,2.4,0.5,3.3,1.4c0.9,0.9,1.4,2.1,1.4,3.3v4.7H19.2v-4.7
		c0-1.2,0.5-2.4,1.4-3.3c0.9-0.9,2.1-1.4,3.3-1.4h0.7v-2.1c-3.3-1.2-5.4-4.3-5.4-7.8v0.4c-1.3,0-2.4-1.1-2.4-2.4
		c0-0.8,0.4-1.5,1-1.9h-0.2v-4.3C17.6,249.9,21.8,245.7,27,245.6 M27,243.6c-6.3,0-11.4,5.1-11.4,11.4v3.8c-0.5,0.7-0.8,1.6-0.8,2.5
		c0,1.7,1,3.3,2.6,4c0.5,2.5,1.9,4.8,4,6.3c-0.9,0.3-1.6,0.9-2.3,1.5c-1.3,1.2-2,2.9-2,4.7v4.7c0,1.1,0.9,2,2,2h16.6
		c1.1,0,2-0.9,2-2v-4.7c0-1.8-0.7-3.5-2-4.8c-0.6-0.6-1.4-1.2-2.3-1.5c2.1-1.5,3.6-3.8,4.1-6.3c1.3-0.6,2.2-1.7,2.5-3.1
		c2.7-1.5,3.6-4.9,2.1-7.5c-0.2-0.4-0.5-0.8-0.9-1.2c0-0.2,0-0.3,0-0.5c0-2.4-1.9-4.3-4.3-4.4C34.7,245.5,31,243.6,27,243.6z"/>
	<path class="st0" d="M23.6,260.3c-0.4,0-0.7,0.3-0.7,0.7c0,0.4,0.3,0.7,0.7,0.7c0.4,0,0.7-0.3,0.7-0.7
		C24.4,260.6,24,260.3,23.6,260.3z"/>
	<circle class="st0" cx="31.4" cy="261" r="0.7"/>
	<path class="st2" d="M29.6,266.6c-0.5,0.7-1.3,1.1-2.1,1.1c-0.8,0-1.6-0.4-2.1-1.1"/>
	<line class="st2" x1="35.4" y1="260.3" x2="34.2" y2="260.3"/>
	<path class="st2" d="M28.2,260.6c-0.2-0.2-0.5-0.3-0.8-0.3c-0.3,0-0.6,0.1-0.8,0.3"/>
	<path class="st2" d="M24.7,273.2h-0.8c-1.3,0-2.5,0.5-3.3,1.4c-0.9,0.9-1.4,2.1-1.4,3.3v4.7h16.5v-4.7c0-1.3-0.5-2.5-1.4-3.3
		c-0.9-0.9-2.1-1.4-3.3-1.4h-0.8"/>
	<path class="st2" d="M30.2,273.2v-2"/>
	<path class="st2" d="M24.7,271.1v2"/>
	<path class="st2" d="M35.7,259c1.1,0,2.1,0.8,2.3,1.9c0,0.2,0.1,0.3,0.1,0.5c0,1.3-1.1,2.4-2.4,2.4v-0.4"/>
	<path class="st2" d="M19.7,263.9c-1.1,0-2.1-0.8-2.3-1.9c0-0.2-0.1-0.3-0.1-0.5c0-1.3,1.1-2.4,2.4-2.4"/>
	<path class="st2" d="M38,260.9c1.6-0.3,2.8-1.8,2.8-3.5c0-1.3-0.7-2.5-1.9-3.1c0.2-0.4,0.3-0.8,0.3-1.2c0-1.3-1-2.3-2.3-2.4
		c0,0-0.1,0-0.1,0c-0.3,0-0.6,0.1-0.9,0.2c-1.8-3.3-5.3-5.3-9-5.3c-5.2,0-9.4,4.2-9.4,9.4v4.3"/>
	<path class="st2" d="M24.7,253.1c-0.1,3.1,4.6,3.5,5.6,1.2c-0.3,1.4,2.4,5.1,5.4,3.8v5.3c0,2.2-0.9,4.3-2.4,5.8
		c-0.9,0.9-1.9,1.6-3.1,2c-1.8,0.6-3.7,0.6-5.5,0c-3.3-1.2-5.5-4.3-5.5-7.8v-5.7C23.6,256,24.5,254,24.7,253.1"/>
	<path class="st2" d="M31.6,263.5h-0.6c-1.4,0-2.6-1.1-2.6-2.6c0,0,0,0,0,0v-1.4l0,0H34l0,0v1.6C34,262.4,32.9,263.5,31.6,263.5z"/>
	<path class="st2" d="M20.6,259.5h5.5l0,0v1.4c0,1.4-1.2,2.6-2.6,2.6c0,0,0,0,0,0H23c-1.3,0-2.4-1.1-2.4-2.4L20.6,259.5L20.6,259.5
		L20.6,259.5z"/>
</g>
<g id="Ebene_4">
	<g class="st3">
		<path class="st0" d="M97.9,43.8c-0.2,0.2-0.5,0.3-0.9,0.4s-0.8,0.1-1.2,0.1c-0.5,0-1-0.1-1.4-0.3s-0.8-0.4-1.2-0.8
			c-0.3-0.4-0.6-0.8-0.8-1.3s-0.3-1.2-0.3-2c0-0.8,0.1-1.5,0.3-2c0.2-0.5,0.5-1,0.8-1.3s0.7-0.6,1.2-0.8s0.9-0.2,1.3-0.2
			c0.5,0,0.9,0,1.2,0.1c0.3,0.1,0.6,0.1,0.8,0.2l-0.2,0.9c-0.4-0.2-0.9-0.3-1.6-0.3c-0.3,0-0.7,0.1-1,0.2c-0.3,0.1-0.6,0.3-0.9,0.6
			c-0.3,0.3-0.5,0.6-0.6,1.1c-0.2,0.4-0.2,1-0.2,1.6c0,0.6,0.1,1.1,0.2,1.5c0.1,0.4,0.3,0.8,0.6,1.1s0.5,0.5,0.9,0.6
			c0.3,0.1,0.7,0.2,1.1,0.2c0.4,0,0.7,0,0.9-0.1c0.3-0.1,0.5-0.2,0.7-0.3L97.9,43.8z"/>
		<path class="st0" d="M104.4,44.1h-5v-8.4h1v7.5h4V44.1z"/>
		<path class="st0" d="M105.8,35.7h1v8.4h-1V35.7z"/>
	</g>
	<g class="st3">
		<path class="st0" d="M292.1,43.8c-0.2,0.2-0.5,0.3-0.9,0.4s-0.7,0.1-1,0.1c-0.5,0-0.9-0.1-1.2-0.2c-0.3-0.1-0.6-0.4-0.8-0.6
			c-0.2-0.3-0.4-0.6-0.4-1c-0.1-0.4-0.1-0.8-0.1-1.3c0-1,0.2-1.8,0.7-2.3c0.4-0.5,1.1-0.8,1.9-0.8c0.4,0,0.7,0,1,0.1
			c0.3,0.1,0.5,0.1,0.7,0.3l-0.3,0.8c-0.2-0.1-0.4-0.2-0.6-0.2c-0.2-0.1-0.5-0.1-0.7-0.1c-1.1,0-1.7,0.8-1.7,2.3
			c0,0.3,0,0.6,0.1,0.9c0.1,0.3,0.2,0.5,0.3,0.7c0.1,0.2,0.3,0.4,0.6,0.5c0.2,0.1,0.5,0.2,0.8,0.2c0.3,0,0.5,0,0.8-0.1
			c0.2-0.1,0.4-0.2,0.6-0.3L292.1,43.8z"/>
	</g>
	<g class="st3">
		<path class="st0" d="M292.8,41.1c0-1,0.2-1.8,0.7-2.3s1.1-0.8,2-0.8c0.4,0,0.8,0.1,1.2,0.2s0.6,0.4,0.8,0.6c0.2,0.3,0.4,0.6,0.5,1
			c0.1,0.4,0.2,0.8,0.2,1.3c0,1-0.2,1.8-0.7,2.3c-0.5,0.5-1.1,0.8-2,0.8c-0.4,0-0.8-0.1-1.2-0.2c-0.3-0.1-0.6-0.4-0.8-0.6
			c-0.2-0.3-0.4-0.6-0.5-1C292.8,42.1,292.8,41.6,292.8,41.1z M293.8,41.1c0,0.3,0,0.6,0.1,0.9c0.1,0.3,0.2,0.5,0.3,0.7
			s0.3,0.4,0.5,0.5s0.5,0.2,0.8,0.2c1.1,0,1.6-0.8,1.6-2.3c0-0.3,0-0.6-0.1-0.9s-0.2-0.5-0.3-0.7s-0.3-0.4-0.5-0.5s-0.5-0.2-0.8-0.2
			C294.3,38.8,293.8,39.6,293.8,41.1z"/>
		<path class="st0" d="M303.1,44.1v-3.4c0-0.3,0-0.6,0-0.8c0-0.2-0.1-0.4-0.2-0.6s-0.2-0.3-0.3-0.4c-0.1-0.1-0.3-0.1-0.6-0.1
			c-0.4,0-0.7,0.1-0.9,0.3c-0.2,0.2-0.4,0.5-0.5,0.8v4.1h-1v-6h0.7l0.2,0.7h0c0.2-0.3,0.5-0.5,0.8-0.6c0.3-0.2,0.7-0.2,1.1-0.2
			c0.4,0,0.7,0.1,0.9,0.2s0.4,0.4,0.6,0.8c0.2-0.3,0.4-0.6,0.8-0.7s0.7-0.3,1.1-0.3c0.3,0,0.6,0,0.9,0.1c0.2,0.1,0.4,0.2,0.6,0.4
			c0.2,0.2,0.3,0.5,0.3,0.8c0.1,0.3,0.1,0.7,0.1,1.2v3.6h-1v-3.6c0-0.3,0-0.5,0-0.8s-0.1-0.4-0.2-0.5c-0.1-0.1-0.2-0.2-0.3-0.3
			c-0.1-0.1-0.3-0.1-0.6-0.1c-0.4,0-0.7,0.1-0.9,0.3c-0.2,0.2-0.4,0.5-0.5,1v4H303.1z"/>
		<path class="st0" d="M312.8,44.1v-3.4c0-0.3,0-0.6,0-0.8c0-0.2-0.1-0.4-0.2-0.6s-0.2-0.3-0.3-0.4c-0.1-0.1-0.3-0.1-0.6-0.1
			c-0.4,0-0.7,0.1-0.9,0.3s-0.4,0.5-0.5,0.8v4.1h-1v-6h0.7l0.2,0.7h0c0.2-0.3,0.5-0.5,0.8-0.6c0.3-0.2,0.7-0.2,1.1-0.2
			c0.4,0,0.7,0.1,0.9,0.2s0.4,0.4,0.6,0.8c0.2-0.3,0.4-0.6,0.8-0.7s0.7-0.3,1.1-0.3c0.3,0,0.6,0,0.9,0.1c0.2,0.1,0.4,0.2,0.6,0.4
			c0.2,0.2,0.3,0.5,0.3,0.8c0.1,0.3,0.1,0.7,0.1,1.2v3.6h-1v-3.6c0-0.3,0-0.5,0-0.8c0-0.2-0.1-0.4-0.2-0.5c-0.1-0.1-0.2-0.2-0.3-0.3
			c-0.1-0.1-0.3-0.1-0.6-0.1c-0.4,0-0.7,0.1-0.9,0.3c-0.2,0.2-0.4,0.5-0.5,1v4H312.8z"/>
		<path class="st0" d="M318.9,38.6c0.3-0.2,0.7-0.3,1.1-0.4s0.8-0.1,1.3-0.1c0.4,0,0.8,0.1,1,0.2c0.3,0.1,0.4,0.3,0.6,0.4
			c0.1,0.2,0.2,0.4,0.3,0.6c0,0.2,0.1,0.4,0.1,0.6c0,0.5,0,0.9,0,1.4c0,0.5,0,0.9,0,1.3c0,0.3,0,0.6,0,0.8c0,0.3,0.1,0.5,0.1,0.7
			h-0.7l-0.3-0.8h-0.1c-0.1,0.1-0.2,0.2-0.3,0.3c-0.1,0.1-0.2,0.2-0.4,0.3c-0.2,0.1-0.3,0.2-0.5,0.2c-0.2,0.1-0.4,0.1-0.7,0.1
			s-0.5,0-0.7-0.1c-0.2-0.1-0.4-0.2-0.6-0.3c-0.2-0.1-0.3-0.3-0.4-0.5c-0.1-0.2-0.1-0.4-0.1-0.7c0-0.4,0.1-0.6,0.2-0.9
			c0.1-0.2,0.3-0.4,0.6-0.6c0.3-0.1,0.6-0.2,0.9-0.3c0.4-0.1,0.8-0.1,1.2-0.1c0.1,0,0.2,0,0.3,0s0.2,0,0.3,0c0-0.2,0-0.5,0-0.6
			c0-0.4-0.1-0.7-0.3-0.9c-0.2-0.2-0.5-0.3-1-0.3c-0.1,0-0.3,0-0.4,0c-0.2,0-0.3,0-0.5,0.1s-0.3,0.1-0.5,0.1
			c-0.1,0.1-0.3,0.1-0.4,0.2L318.9,38.6z M320.7,43.4c0.2,0,0.4,0,0.6-0.1s0.3-0.1,0.5-0.2c0.1-0.1,0.2-0.2,0.3-0.3
			c0.1-0.1,0.1-0.2,0.2-0.3v-1c-0.1,0-0.2,0-0.3,0c-0.1,0-0.2,0-0.3,0c-0.2,0-0.5,0-0.7,0s-0.4,0.1-0.6,0.2s-0.3,0.2-0.4,0.3
			c-0.1,0.1-0.2,0.3-0.2,0.5c0,0.3,0.1,0.5,0.3,0.7C320.1,43.3,320.3,43.4,320.7,43.4z"/>
		<path class="st0" d="M328.8,44.1v-3.4c0-0.6-0.1-1.1-0.3-1.4c-0.2-0.3-0.5-0.5-1-0.5c-0.4,0-0.8,0.1-1.1,0.3
			c-0.3,0.2-0.5,0.5-0.6,0.9v4.1h-1v-6h0.7l0.2,0.7h0c0.2-0.3,0.5-0.5,0.8-0.6c0.3-0.2,0.7-0.2,1.2-0.2c0.3,0,0.6,0,0.9,0.1
			c0.2,0.1,0.5,0.2,0.6,0.4s0.3,0.5,0.4,0.8c0.1,0.3,0.1,0.7,0.1,1.2v3.6H328.8z"/>
		<path class="st0" d="M336.2,42.1c0,0.4,0,0.8,0,1.1s0,0.7,0.1,1h-0.6l-0.2-0.9h0c-0.2,0.3-0.4,0.5-0.7,0.7
			c-0.3,0.2-0.7,0.3-1.1,0.3c-0.8,0-1.4-0.3-1.8-0.8c-0.4-0.5-0.6-1.3-0.6-2.4c0-1,0.2-1.8,0.7-2.3c0.5-0.5,1.2-0.8,2-0.8
			c0.3,0,0.5,0,0.7,0c0.2,0,0.4,0.1,0.6,0.2v-2.5h1V42.1z M333.7,43.5c0.4,0,0.7-0.1,1-0.3c0.2-0.2,0.4-0.5,0.5-1v-3
			c-0.1-0.1-0.3-0.2-0.5-0.2c-0.2,0-0.4-0.1-0.7-0.1c-0.6,0-1,0.2-1.3,0.5s-0.5,0.9-0.5,1.7c0,0.3,0,0.6,0.1,0.9
			c0.1,0.3,0.1,0.5,0.3,0.7s0.3,0.4,0.5,0.5S333.5,43.5,333.7,43.5z"/>
	</g>
	<line class="st4" x1="139.1" y1="53.1" x2="59" y2="53.1"/>
	<polygon class="st0" points="134.4,47.4 133.5,48.4 138.5,53.1 133.5,57.8 134.4,58.8 140.6,53.1 	"/>
	<line class="st4" x1="351.2" y1="53.1" x2="271.2" y2="53.1"/>
	<polygon class="st0" points="346.6,47.4 345.6,48.4 350.7,53.1 345.6,57.8 346.6,58.8 352.7,53.1 	"/>
	<g class="st3">
		<path class="st0" d="M297.9,146c-0.2,0.2-0.5,0.3-0.9,0.4s-0.7,0.1-1,0.1c-0.5,0-0.9-0.1-1.2-0.2c-0.3-0.1-0.6-0.4-0.8-0.6
			c-0.2-0.3-0.4-0.6-0.4-1c-0.1-0.4-0.1-0.8-0.1-1.3c0-1,0.2-1.8,0.7-2.3c0.4-0.5,1.1-0.8,1.9-0.8c0.4,0,0.7,0,1,0.1
			c0.3,0.1,0.5,0.1,0.7,0.3l-0.3,0.8c-0.2-0.1-0.4-0.2-0.6-0.2c-0.2-0.1-0.5-0.1-0.7-0.1c-1.1,0-1.7,0.8-1.7,2.3
			c0,0.3,0,0.6,0.1,0.9c0.1,0.3,0.2,0.5,0.3,0.7c0.1,0.2,0.3,0.4,0.6,0.5c0.2,0.1,0.5,0.2,0.8,0.2c0.3,0,0.5,0,0.8-0.1
			c0.2-0.1,0.4-0.2,0.6-0.3L297.9,146z"/>
	</g>
	<g class="st3">
		<path class="st0" d="M298.6,143.4c0-1,0.2-1.8,0.7-2.3s1.1-0.8,2-0.8c0.4,0,0.8,0.1,1.2,0.2s0.6,0.4,0.8,0.6
			c0.2,0.3,0.4,0.6,0.5,1c0.1,0.4,0.2,0.8,0.2,1.3c0,1-0.2,1.8-0.7,2.3c-0.5,0.5-1.1,0.8-2,0.8c-0.4,0-0.8-0.1-1.2-0.2
			c-0.3-0.1-0.6-0.4-0.8-0.6c-0.2-0.3-0.4-0.6-0.5-1C298.6,144.3,298.6,143.9,298.6,143.4z M299.6,143.4c0,0.3,0,0.6,0.1,0.9
			c0.1,0.3,0.2,0.5,0.3,0.7s0.3,0.4,0.5,0.5s0.5,0.2,0.8,0.2c1.1,0,1.6-0.8,1.6-2.3c0-0.3,0-0.6-0.1-0.9s-0.2-0.5-0.3-0.7
			s-0.3-0.4-0.5-0.5s-0.5-0.2-0.8-0.2C300.1,141.1,299.6,141.8,299.6,143.4z"/>
		<path class="st0" d="M309.2,146.4V143c0-0.6-0.1-1.1-0.3-1.4c-0.2-0.3-0.5-0.5-1-0.5c-0.4,0-0.8,0.1-1.1,0.3
			c-0.3,0.2-0.5,0.5-0.6,0.9v4.1h-1v-6h0.7l0.2,0.7h0c0.2-0.3,0.5-0.5,0.8-0.6c0.3-0.2,0.7-0.2,1.2-0.2c0.3,0,0.6,0,0.9,0.1
			c0.2,0.1,0.5,0.2,0.6,0.4s0.3,0.5,0.4,0.8c0.1,0.3,0.1,0.7,0.1,1.2v3.6H309.2z"/>
		<path class="st0" d="M316.5,140.4v6h-1v-5.2h-2.4v5.2h-1v-5.2h-0.9v-0.8h0.9V140c0-0.8,0.2-1.3,0.6-1.6s0.9-0.5,1.6-0.5
			c0.5,0,0.9,0,1.3,0.1c0.4,0.1,0.7,0.2,0.9,0.3l-0.3,0.8c-0.2-0.1-0.5-0.2-0.8-0.3s-0.6-0.1-0.9-0.1c-0.3,0-0.5,0-0.7,0.1
			s-0.3,0.2-0.4,0.3c-0.1,0.1-0.2,0.3-0.2,0.5c0,0.2,0,0.4,0,0.7H316.5z"/>
		<path class="st0" d="M321.2,141.3c-0.2-0.1-0.5-0.1-0.7-0.1c-0.3,0-0.6,0.1-0.8,0.3c-0.2,0.2-0.3,0.4-0.4,0.7v4.2h-1v-6h0.7
			l0.2,0.7h0c0.2-0.3,0.3-0.5,0.5-0.6c0.2-0.1,0.5-0.2,0.8-0.2c0.2,0,0.5,0,0.8,0.1L321.2,141.3z"/>
		<path class="st0" d="M326,146.4V143c0-0.3,0-0.6,0-0.8c0-0.2-0.1-0.4-0.2-0.6s-0.2-0.3-0.3-0.4c-0.1-0.1-0.3-0.1-0.6-0.1
			c-0.4,0-0.7,0.1-0.9,0.3s-0.4,0.5-0.5,0.8v4.1h-1v-6h0.7l0.2,0.7h0c0.2-0.3,0.5-0.5,0.8-0.6c0.3-0.2,0.7-0.2,1.1-0.2
			c0.4,0,0.7,0.1,0.9,0.2s0.4,0.4,0.6,0.8c0.2-0.3,0.4-0.6,0.8-0.7s0.7-0.3,1.1-0.3c0.3,0,0.6,0,0.9,0.1c0.2,0.1,0.4,0.2,0.6,0.4
			c0.2,0.2,0.3,0.5,0.3,0.8c0.1,0.3,0.1,0.7,0.1,1.2v3.6h-1v-3.6c0-0.3,0-0.5,0-0.8c0-0.2-0.1-0.4-0.2-0.5c-0.1-0.1-0.2-0.2-0.3-0.3
			c-0.1-0.1-0.3-0.1-0.6-0.1c-0.4,0-0.7,0.1-0.9,0.3c-0.2,0.2-0.4,0.5-0.5,1v4H326z"/>
	</g>
	<line class="st7" x1="272.7" y1="155.3" x2="352.7" y2="155.3"/>
	<polygon class="st8" points="277.4,161.1 278.3,160 273.3,155.3 278.3,150.6 277.4,149.6 271.2,155.3 	"/>
	<g class="st3">
		<path class="st0" d="M297.9,248.6c-0.2,0.2-0.5,0.3-0.9,0.4s-0.7,0.1-1,0.1c-0.5,0-0.9-0.1-1.2-0.2c-0.3-0.1-0.6-0.4-0.8-0.6
			c-0.2-0.3-0.4-0.6-0.4-1c-0.1-0.4-0.1-0.8-0.1-1.3c0-1,0.2-1.8,0.7-2.3c0.4-0.5,1.1-0.8,1.9-0.8c0.4,0,0.7,0,1,0.1
			c0.3,0.1,0.5,0.1,0.7,0.3l-0.3,0.8c-0.2-0.1-0.4-0.2-0.6-0.2c-0.2-0.1-0.5-0.1-0.7-0.1c-1.1,0-1.7,0.8-1.7,2.3
			c0,0.3,0,0.6,0.1,0.9c0.1,0.3,0.2,0.5,0.3,0.7c0.1,0.2,0.3,0.4,0.6,0.5c0.2,0.1,0.5,0.2,0.8,0.2c0.3,0,0.5,0,0.8-0.1
			c0.2-0.1,0.4-0.2,0.6-0.3L297.9,248.6z"/>
	</g>
	<g class="st3">
		<path class="st0" d="M298.6,246c0-1,0.2-1.8,0.7-2.3s1.1-0.8,2-0.8c0.4,0,0.8,0.1,1.2,0.2s0.6,0.4,0.8,0.6c0.2,0.3,0.4,0.6,0.5,1
			c0.1,0.4,0.2,0.8,0.2,1.3c0,1-0.2,1.8-0.7,2.3c-0.5,0.5-1.1,0.8-2,0.8c-0.4,0-0.8-0.1-1.2-0.2c-0.3-0.1-0.6-0.4-0.8-0.6
			c-0.2-0.3-0.4-0.6-0.5-1C298.6,246.9,298.6,246.4,298.6,246z M299.6,246c0,0.3,0,0.6,0.1,0.9c0.1,0.3,0.2,0.5,0.3,0.7
			s0.3,0.4,0.5,0.5s0.5,0.2,0.8,0.2c1.1,0,1.6-0.8,1.6-2.3c0-0.3,0-0.6-0.1-0.9s-0.2-0.5-0.3-0.7s-0.3-0.4-0.5-0.5s-0.5-0.2-0.8-0.2
			C300.1,243.6,299.6,244.4,299.6,246z"/>
		<path class="st0" d="M309.2,249v-3.4c0-0.6-0.1-1.1-0.3-1.4c-0.2-0.3-0.5-0.5-1-0.5c-0.4,0-0.8,0.1-1.1,0.3
			c-0.3,0.2-0.5,0.5-0.6,0.9v4.1h-1v-6h0.7l0.2,0.7h0c0.2-0.3,0.5-0.5,0.8-0.6c0.3-0.2,0.7-0.2,1.2-0.2c0.3,0,0.6,0,0.9,0.1
			c0.2,0.1,0.5,0.2,0.6,0.4s0.3,0.5,0.4,0.8c0.1,0.3,0.1,0.7,0.1,1.2v3.6H309.2z"/>
		<path class="st0" d="M316.5,243v6h-1v-5.2h-2.4v5.2h-1v-5.2h-0.9V243h0.9v-0.3c0-0.8,0.2-1.3,0.6-1.6s0.9-0.5,1.6-0.5
			c0.5,0,0.9,0,1.3,0.1c0.4,0.1,0.7,0.2,0.9,0.3l-0.3,0.8c-0.2-0.1-0.5-0.2-0.8-0.3s-0.6-0.1-0.9-0.1c-0.3,0-0.5,0-0.7,0.1
			s-0.3,0.2-0.4,0.3c-0.1,0.1-0.2,0.3-0.2,0.5c0,0.2,0,0.4,0,0.7H316.5z"/>
		<path class="st0" d="M321.2,243.9c-0.2-0.1-0.5-0.1-0.7-0.1c-0.3,0-0.6,0.1-0.8,0.3c-0.2,0.2-0.3,0.4-0.4,0.7v4.2h-1v-6h0.7
			l0.2,0.7h0c0.2-0.3,0.3-0.5,0.5-0.6c0.2-0.1,0.5-0.2,0.8-0.2c0.2,0,0.5,0,0.8,0.1L321.2,243.9z"/>
		<path class="st0" d="M326,249v-3.4c0-0.3,0-0.6,0-0.8c0-0.2-0.1-0.4-0.2-0.6s-0.2-0.3-0.3-0.4c-0.1-0.1-0.3-0.1-0.6-0.1
			c-0.4,0-0.7,0.1-0.9,0.3s-0.4,0.5-0.5,0.8v4.1h-1v-6h0.7l0.2,0.7h0c0.2-0.3,0.5-0.5,0.8-0.6c0.3-0.2,0.7-0.2,1.1-0.2
			c0.4,0,0.7,0.1,0.9,0.2s0.4,0.4,0.6,0.8c0.2-0.3,0.4-0.6,0.8-0.7s0.7-0.3,1.1-0.3c0.3,0,0.6,0,0.9,0.1c0.2,0.1,0.4,0.2,0.6,0.4
			c0.2,0.2,0.3,0.5,0.3,0.8c0.1,0.3,0.1,0.7,0.1,1.2v3.6h-1v-3.6c0-0.3,0-0.5,0-0.8c0-0.2-0.1-0.4-0.2-0.5c-0.1-0.1-0.2-0.2-0.3-0.3
			c-0.1-0.1-0.3-0.1-0.6-0.1c-0.4,0-0.7,0.1-0.9,0.3c-0.2,0.2-0.4,0.5-0.5,1v4H326z"/>
	</g>
	<line class="st7" x1="272.7" y1="257.9" x2="352.7" y2="257.9"/>
	<polygon class="st8" points="277.4,263.6 278.3,262.6 273.3,257.9 278.3,253.2 277.4,252.2 271.2,257.9 	"/>
	<g class="st3">
		<path class="st0" d="M91.2,140.5c0.3-0.2,0.7-0.3,1.1-0.4c0.4-0.1,0.8-0.1,1.3-0.1c0.4,0,0.8,0.1,1,0.2c0.3,0.1,0.4,0.3,0.6,0.4
			c0.1,0.2,0.2,0.4,0.3,0.6c0,0.2,0.1,0.4,0.1,0.6c0,0.5,0,0.9,0,1.4s0,0.9,0,1.3c0,0.3,0,0.6,0,0.8s0.1,0.5,0.1,0.7h-0.7l-0.3-0.8
			h-0.1c-0.1,0.1-0.2,0.2-0.3,0.3c-0.1,0.1-0.2,0.2-0.4,0.3s-0.3,0.2-0.5,0.2c-0.2,0.1-0.4,0.1-0.7,0.1c-0.3,0-0.5,0-0.7-0.1
			c-0.2-0.1-0.4-0.2-0.6-0.3c-0.2-0.1-0.3-0.3-0.4-0.5c-0.1-0.2-0.1-0.4-0.1-0.7c0-0.4,0.1-0.6,0.2-0.9c0.1-0.2,0.3-0.4,0.6-0.6
			c0.3-0.1,0.6-0.2,0.9-0.3c0.4-0.1,0.8-0.1,1.2-0.1c0.1,0,0.2,0,0.3,0c0.1,0,0.2,0,0.3,0c0-0.2,0-0.5,0-0.6c0-0.4-0.1-0.7-0.3-0.9
			c-0.2-0.2-0.5-0.3-1-0.3c-0.1,0-0.3,0-0.4,0c-0.2,0-0.3,0-0.5,0.1S92,141,91.8,141s-0.3,0.1-0.4,0.2L91.2,140.5z M92.9,145.3
			c0.2,0,0.4,0,0.6-0.1c0.2-0.1,0.3-0.1,0.5-0.2c0.1-0.1,0.2-0.2,0.3-0.3c0.1-0.1,0.1-0.2,0.2-0.3v-1c-0.1,0-0.2,0-0.3,0
			c-0.1,0-0.2,0-0.3,0c-0.2,0-0.5,0-0.7,0c-0.2,0-0.4,0.1-0.6,0.2c-0.2,0.1-0.3,0.2-0.4,0.3s-0.2,0.3-0.2,0.5c0,0.3,0.1,0.5,0.3,0.7
			C92.3,145.2,92.6,145.3,92.9,145.3z"/>
		<path class="st0" d="M97.2,140h0.7l0.2,0.7h0c0.2-0.3,0.4-0.5,0.7-0.6s0.6-0.2,1-0.2c0.8,0,1.4,0.2,1.8,0.7
			c0.4,0.5,0.6,1.2,0.6,2.3c0,0.5-0.1,1-0.2,1.4s-0.3,0.7-0.6,1c-0.2,0.3-0.5,0.5-0.9,0.6c-0.3,0.2-0.7,0.2-1.1,0.2
			c-0.3,0-0.5,0-0.7-0.1s-0.4-0.1-0.6-0.2v2.5h-1V140z M99.6,140.7c-0.4,0-0.7,0.1-1,0.3s-0.4,0.5-0.5,1v3c0.1,0.1,0.3,0.2,0.5,0.3
			c0.2,0.1,0.4,0.1,0.7,0.1c0.6,0,1-0.2,1.3-0.6c0.3-0.4,0.5-1,0.5-1.8c0-0.3,0-0.6-0.1-0.9c-0.1-0.3-0.1-0.5-0.3-0.7
			c-0.1-0.2-0.3-0.3-0.5-0.4C100.2,140.8,99.9,140.7,99.6,140.7z"/>
		<path class="st0" d="M103.7,140h0.7l0.2,0.7h0c0.2-0.3,0.4-0.5,0.7-0.6s0.6-0.2,1-0.2c0.8,0,1.4,0.2,1.8,0.7
			c0.4,0.5,0.6,1.2,0.6,2.3c0,0.5-0.1,1-0.2,1.4s-0.3,0.7-0.6,1c-0.2,0.3-0.5,0.5-0.9,0.6c-0.3,0.2-0.7,0.2-1.1,0.2
			c-0.3,0-0.5,0-0.7-0.1s-0.4-0.1-0.6-0.2v2.5h-1V140z M106.1,140.7c-0.4,0-0.7,0.1-1,0.3s-0.4,0.5-0.5,1v3c0.1,0.1,0.3,0.2,0.5,0.3
			c0.2,0.1,0.4,0.1,0.7,0.1c0.6,0,1-0.2,1.3-0.6c0.3-0.4,0.5-1,0.5-1.8c0-0.3,0-0.6-0.1-0.9c-0.1-0.3-0.1-0.5-0.3-0.7
			c-0.1-0.2-0.3-0.3-0.5-0.4C106.7,140.8,106.4,140.7,106.1,140.7z"/>
	</g>
	<line class="st7" x1="60.5" y1="155" x2="140.6" y2="155"/>
	<polygon class="st8" points="65.2,160.7 66.1,159.7 61.1,155 66.1,150.3 65.2,149.3 59,155 	"/>
	<g class="st3">
		<path class="st0" d="M91.2,243.4c0.3-0.2,0.7-0.3,1.1-0.4c0.4-0.1,0.8-0.1,1.3-0.1c0.4,0,0.8,0.1,1,0.2c0.3,0.1,0.4,0.3,0.6,0.4
			c0.1,0.2,0.2,0.4,0.3,0.6c0,0.2,0.1,0.4,0.1,0.6c0,0.5,0,0.9,0,1.4s0,0.9,0,1.3c0,0.3,0,0.6,0,0.8s0.1,0.5,0.1,0.7h-0.7l-0.3-0.8
			h-0.1c-0.1,0.1-0.2,0.2-0.3,0.3c-0.1,0.1-0.2,0.2-0.4,0.3s-0.3,0.2-0.5,0.2c-0.2,0.1-0.4,0.1-0.7,0.1c-0.3,0-0.5,0-0.7-0.1
			c-0.2-0.1-0.4-0.2-0.6-0.3c-0.2-0.1-0.3-0.3-0.4-0.5c-0.1-0.2-0.1-0.4-0.1-0.7c0-0.4,0.1-0.6,0.2-0.9c0.1-0.2,0.3-0.4,0.6-0.6
			c0.3-0.1,0.6-0.2,0.9-0.3c0.4-0.1,0.8-0.1,1.2-0.1c0.1,0,0.2,0,0.3,0c0.1,0,0.2,0,0.3,0c0-0.2,0-0.5,0-0.6c0-0.4-0.1-0.7-0.3-0.9
			c-0.2-0.2-0.5-0.3-1-0.3c-0.1,0-0.3,0-0.4,0c-0.2,0-0.3,0-0.5,0.1s-0.3,0.1-0.5,0.1s-0.3,0.1-0.4,0.2L91.2,243.4z M92.9,248.2
			c0.2,0,0.4,0,0.6-0.1c0.2-0.1,0.3-0.1,0.5-0.2c0.1-0.1,0.2-0.2,0.3-0.3c0.1-0.1,0.1-0.2,0.2-0.3v-1c-0.1,0-0.2,0-0.3,0
			c-0.1,0-0.2,0-0.3,0c-0.2,0-0.5,0-0.7,0c-0.2,0-0.4,0.1-0.6,0.2c-0.2,0.1-0.3,0.2-0.4,0.3s-0.2,0.3-0.2,0.5c0,0.3,0.1,0.5,0.3,0.7
			C92.3,248.1,92.6,248.2,92.9,248.2z"/>
		<path class="st0" d="M97.2,242.9h0.7l0.2,0.7h0c0.2-0.3,0.4-0.5,0.7-0.6s0.6-0.2,1-0.2c0.8,0,1.4,0.2,1.8,0.7
			c0.4,0.5,0.6,1.2,0.6,2.3c0,0.5-0.1,1-0.2,1.4s-0.3,0.7-0.6,1c-0.2,0.3-0.5,0.5-0.9,0.6c-0.3,0.2-0.7,0.2-1.1,0.2
			c-0.3,0-0.5,0-0.7-0.1s-0.4-0.1-0.6-0.2v2.5h-1V242.9z M99.6,243.6c-0.4,0-0.7,0.1-1,0.3s-0.4,0.5-0.5,1v3
			c0.1,0.1,0.3,0.2,0.5,0.3c0.2,0.1,0.4,0.1,0.7,0.1c0.6,0,1-0.2,1.3-0.6c0.3-0.4,0.5-1,0.5-1.8c0-0.3,0-0.6-0.1-0.9
			c-0.1-0.3-0.1-0.5-0.3-0.7c-0.1-0.2-0.3-0.3-0.5-0.4C100.2,243.7,99.9,243.6,99.6,243.6z"/>
		<path class="st0" d="M103.7,242.9h0.7l0.2,0.7h0c0.2-0.3,0.4-0.5,0.7-0.6s0.6-0.2,1-0.2c0.8,0,1.4,0.2,1.8,0.7
			c0.4,0.5,0.6,1.2,0.6,2.3c0,0.5-0.1,1-0.2,1.4s-0.3,0.7-0.6,1c-0.2,0.3-0.5,0.5-0.9,0.6c-0.3,0.2-0.7,0.2-1.1,0.2
			c-0.3,0-0.5,0-0.7-0.1s-0.4-0.1-0.6-0.2v2.5h-1V242.9z M106.1,243.6c-0.4,0-0.7,0.1-1,0.3s-0.4,0.5-0.5,1v3
			c0.1,0.1,0.3,0.2,0.5,0.3c0.2,0.1,0.4,0.1,0.7,0.1c0.6,0,1-0.2,1.3-0.6c0.3-0.4,0.5-1,0.5-1.8c0-0.3,0-0.6-0.1-0.9
			c-0.1-0.3-0.1-0.5-0.3-0.7c-0.1-0.2-0.3-0.3-0.5-0.4C106.7,243.7,106.4,243.6,106.1,243.6z"/>
	</g>
	<line class="st7" x1="60.5" y1="257.9" x2="140.6" y2="257.9"/>
	<polygon class="st8" points="65.2,263.6 66.1,262.6 61.1,257.9 66.1,253.2 65.2,252.1 59,257.9 	"/>
	
		<linearGradient id="SVGID_1_" gradientUnits="userSpaceOnUse" x1="375.88" y1="156.84" x2="464.18" y2="156.84" gradientTransform="matrix(1 0 0 -1 0 312)">
		<stop  offset="0" style="stop-color:#990066"/>
		<stop  offset="0.19" style="stop-color:#780066"/>
		<stop  offset="0.4" style="stop-color:#5A0066"/>
		<stop  offset="0.61" style="stop-color:#440066"/>
		<stop  offset="0.81" style="stop-color:#370066"/>
		<stop  offset="1" style="stop-color:#330066"/>
	</linearGradient>
	<path class="st9" d="M380.9,44.7h78.3c2.8,0,5,2.2,5,5v211c0,2.8-2.2,5-5,5h-78.3c-2.8,0-5-2.2-5-5v-211
		C375.9,46.9,378.1,44.7,380.9,44.7z"/>
	<path class="st10" d="M411.8,36c4.6-4.5,12.1-4.5,16.6,0.1c4.5,4.6,4.5,12.1-0.1,16.6c-4.6,4.5-12.1,4.5-16.6-0.1
		c-2.2-2.2-3.4-5.1-3.4-8.2c0-2.6,0.8-5.1,2.4-7.1"/>
	<path class="st11" d="M419.7,50.1h-4.2c-0.6,0-0.8-0.2-0.8-0.8v-6.5c0-0.6,0.2-0.8,0.8-0.8h8.5c0.5,0,0.8,0.2,0.8,0.8v6.5
		c0,0.5-0.2,0.8-0.8,0.8C422.5,50.2,421.1,50.1,419.7,50.1z"/>
	<path class="st11" d="M415.4,41.5c0-1.8,1-3.4,2.6-4.1c2.1-0.9,4.6,0,5.5,2.1c0.1,0.2,0.2,0.5,0.2,0.7c0.1,0.4,0.1,0.8,0.2,1.2"/>
	<path class="st12" d="M419,47.4L419,47.4v0.9c0,0.2,0.1,0.2,0.3,0.2h0.8c0.2,0,0.3-0.1,0.3-0.3v-1.6c0-0.2,0.1-0.3,0.2-0.4
		c0.5-0.3,0.8-0.9,0.6-1.5c-0.2-0.6-0.8-1-1.4-1c-0.7-0.1-1.3,0.3-1.6,0.9c-0.2,0.6,0,1.2,0.5,1.5c0.2,0.1,0.3,0.3,0.3,0.5
		C419,46.9,419,47.1,419,47.4z"/>
	<g id="Scone_logo_white">
		<g>
			<defs>
				<rect id="SVGID_2_" x="401.6" y="250.2" width="37" height="7.2"/>
			</defs>
			<clipPath id="SVGID_3_">
				<use xlink:href="#SVGID_2_"  style="overflow:visible;"/>
			</clipPath>
			<g class="st13">
				<g>
					<defs>
						<rect id="SVGID_4_" x="401.6" y="250.2" width="37" height="7.2"/>
					</defs>
					<clipPath id="SVGID_5_">
						<use xlink:href="#SVGID_4_"  style="overflow:visible;"/>
					</clipPath>
					<g class="st14">
						<path class="st15" d="M406.5,252.1h-0.8c-0.2,0-0.3,0.1-0.3,0.3v0.8c0,0.2,0.1,0.3,0.3,0.3h0.8c0.2,0,0.3-0.1,0.3-0.3v-0.8
							C406.8,252.2,406.7,252.1,406.5,252.1 M403.8,253.4h0.8c0.2,0,0.3-0.1,0.3-0.3v-0.8c0-0.2-0.1-0.3-0.3-0.3h-0.8
							c-0.2,0-0.3,0.1-0.3,0.3v0.8C403.6,253.3,403.7,253.4,403.8,253.4 M403,253.1v-0.8c0-0.2-0.1-0.3-0.3-0.3H402
							c-0.2,0-0.3,0.1-0.3,0.3v0.8c0,0.2,0.1,0.3,0.3,0.3h0.8C402.9,253.4,403.1,253.3,403,253.1 M406.7,254c-0.1,0-0.2,0.1-0.2,0.2
							l0,0v0.9c0,0.1,0.1,0.2,0.2,0.2s0.2-0.1,0.2-0.2v-0.9C406.9,254.1,406.8,254,406.7,254C406.7,254,406.7,254,406.7,254
							 M404.5,254.3v0.8c0,0.2,0.1,0.3,0.3,0.3c0,0,0,0,0,0h0.8c0.2,0,0.3-0.1,0.3-0.3c0,0,0,0,0,0v-0.8c0-0.2-0.1-0.3-0.3-0.3
							c0,0,0,0,0,0h-0.8C404.7,254,404.5,254.1,404.5,254.3C404.5,254.3,404.5,254.3,404.5,254.3 M404,255.1v-0.8
							c0-0.2-0.1-0.3-0.3-0.3h-0.8c-0.2,0-0.3,0.1-0.3,0.3c0,0,0,0,0,0v0.8c0,0.2,0.1,0.3,0.3,0.3l0,0h0.8
							C403.8,255.4,404,255.3,404,255.1 M406.6,255.9h-0.8c-0.2,0-0.3,0.1-0.3,0.3c0,0,0,0,0,0v0.8c0,0.2,0.1,0.3,0.3,0.3
							c0,0,0,0,0,0h0.8c0.2,0,0.3-0.1,0.3-0.3v-0.8C406.9,256,406.8,255.9,406.6,255.9 M404.6,255.9h-0.8c-0.2,0-0.3,0.1-0.3,0.3
							l0,0v0.8c0,0.2,0.1,0.3,0.3,0.3c0,0,0,0,0,0h0.8c0.2,0,0.3-0.1,0.3-0.3v-0.8C404.9,256,404.8,255.9,404.6,255.9"/>
						<path class="st15" d="M407.5,251.8c0.3,0.3,0.8,0.4,1.2,0.4c0,0,0,0,0,0.1v2.1c0,0.8-1,1.3-1.2,1.5l0,0L407.5,251.8
							L407.5,251.8"/>
						<path class="st15" d="M405.1,251.6c1.6,0,1.9-0.6,1.9-0.6c0,0,0,0,0.1-0.1c0,0,0.1,0,0.1,0c0,0,0.3,0.6,1.9,0.6
							c0,0,0.1,0,0.1,0.1v2.8c0,0.9-1.7,1.9-1.7,1.9s-0.1,0-0.1,0.1v0.7c0,0,0.1,0,0.1,0c0.6-0.3,2.4-1.3,2.4-2.5v-3.6
							c0-0.1-0.1-0.1-0.2-0.1c-2.1,0-2.5-0.8-2.5-0.8s-0.1,0-0.1,0s-0.1,0-0.1,0s-0.3,0.8-2.4,0.8c-0.1,0-0.1,0-0.1,0.1v0.4
							c0,0,0,0.1,0.1,0.1L405.1,251.6"/>
						<path class="st16" d="M411.5,256.2l0.8-0.3c0.2,0.4,0.6,0.6,1.1,0.6c0.2,0,0.5,0,0.6-0.1c0.2-0.1,0.3-0.3,0.3-0.4
							c0-0.4-0.6-0.7-1-0.9l0,0c-0.4-0.1-0.7-0.3-1-0.5c-0.3-0.2-0.5-0.6-0.5-1c0-0.4,0.2-0.8,0.5-1c0.4-0.3,0.8-0.4,1.2-0.4
							c0.7,0,1.3,0.3,1.6,0.9l-0.9,0.3c-0.1-0.1-0.2-0.2-0.3-0.3c-0.2-0.1-0.3-0.1-0.5-0.1c-0.5,0-0.8,0.3-0.8,0.6
							c0,0.2,0.1,0.4,0.3,0.5c0.2,0.2,0.5,0.3,0.8,0.4h0.1c0.6,0.3,1.4,0.6,1.4,1.5c0,0.4-0.2,0.8-0.6,1c-0.4,0.3-0.9,0.4-1.4,0.4
							C412.6,257.3,411.8,256.9,411.5,256.2"/>
						<path class="st16" d="M418.8,257.3c-0.3,0-0.7-0.1-1-0.2c-0.3-0.1-0.6-0.3-0.8-0.6c-0.2-0.2-0.4-0.5-0.6-0.8
							c-0.3-0.7-0.3-1.4,0-2.1c0.1-0.3,0.3-0.6,0.6-0.8c0.2-0.2,0.5-0.4,0.8-0.6c0.3-0.1,0.7-0.2,1-0.2c0.4,0,0.8,0.1,1.2,0.3
							c0.4,0.2,0.7,0.4,0.9,0.8l-0.7,0.5c-0.2-0.2-0.4-0.4-0.6-0.5c-0.2-0.1-0.5-0.2-0.8-0.2c-1,0-1.8,0.8-1.8,1.8
							c0,1,0.8,1.8,1.8,1.8c0.6,0,1.2-0.4,1.5-0.9l0.8,0.4c-0.2,0.4-0.5,0.8-1,1C419.8,257.3,419.3,257.4,418.8,257.3"/>
						<path class="st16" d="M424.6,257.4c-0.3,0-0.7-0.1-1-0.2c-0.3-0.1-0.6-0.3-0.8-0.6c-0.2-0.2-0.4-0.5-0.6-0.8
							c-0.1-0.3-0.2-0.7-0.2-1c0-0.3,0.1-0.7,0.2-1c0.1-0.3,0.3-0.6,0.6-0.8c0.2-0.2,0.5-0.4,0.8-0.6c0.7-0.3,1.4-0.3,2.1,0
							c0.3,0.1,0.6,0.3,0.8,0.6c0.5,0.5,0.8,1.2,0.8,1.9c0,0.3-0.1,0.7-0.2,1c-0.1,0.3-0.3,0.6-0.6,0.8c-0.2,0.2-0.5,0.4-0.8,0.6
							C425.4,257.3,425,257.4,424.6,257.4 M424.7,253c-0.5,0-0.9,0.2-1.3,0.5c-0.3,0.3-0.5,0.8-0.5,1.3c0,0.5,0.2,0.9,0.5,1.3
							c0.7,0.7,1.8,0.7,2.5,0c0.3-0.3,0.5-0.8,0.5-1.2C426.4,253.7,425.6,253,424.7,253"/>
						<polygon class="st16" points="433.2,252.1 433.2,257.5 429.5,254.1 429.5,257.3 428.6,257.3 428.6,251.9 432.3,255.3 
							432.3,252.1 						"/>
						<polygon class="st16" points="435.8,252.9 435.8,254.3 438.3,254.3 438.3,255.1 435.8,255.1 435.8,256.5 438.6,256.5 
							438.6,257.3 434.8,257.3 434.8,252.1 438.6,252.1 438.6,252.9 435.8,252.9 						"/>
					</g>
				</g>
			</g>
		</g>
	</g>
	<g class="st3">
		<path class="st6" d="M415.5,124.7h-1.3l-0.2-1.1c-0.2-0.2-0.4-0.3-0.6-0.4s-0.6-0.1-0.9-0.1c-0.7,0-1.3,0.3-1.7,0.8
			s-0.6,1.2-0.6,2.1v0.3c0,0.9,0.2,1.6,0.6,2.1s1,0.8,1.7,0.8c0.3,0,0.6,0,0.9-0.1s0.5-0.2,0.6-0.4l0.2-1.1h1.3v1.7
			c-0.3,0.4-0.8,0.7-1.3,1s-1.1,0.4-1.8,0.4c-1.1,0-2.1-0.4-2.8-1.2s-1.1-1.8-1.1-3.1v-0.3c0-1.2,0.4-2.3,1.1-3.1s1.7-1.2,2.8-1.2
			c0.7,0,1.3,0.1,1.8,0.4s1,0.6,1.3,1V124.7z"/>
		<path class="st6" d="M416.2,129.3l0.6-0.1l2.6-7.4h1.8l2.6,7.4l0.6,0.1v1h-2.9v-1l0.6-0.1l-0.4-1.2h-2.8l-0.4,1.2l0.6,0.1v1h-2.9
			V129.3z M419.3,126.7h2l-1-3h0L419.3,126.7z"/>
		<path class="st6" d="M431.4,124.5h-1.3l-0.2-1.2c-0.1-0.1-0.4-0.2-0.7-0.2s-0.6-0.1-0.9-0.1c-0.5,0-0.8,0.1-1.1,0.3
			s-0.4,0.5-0.4,0.8c0,0.3,0.1,0.5,0.4,0.7s0.7,0.4,1.4,0.6c0.9,0.3,1.7,0.6,2.1,1s0.7,1,0.7,1.7c0,0.7-0.3,1.3-0.9,1.7
			s-1.3,0.6-2.3,0.6c-0.7,0-1.3-0.1-1.8-0.3s-1-0.5-1.4-0.9v-1.8h1.3l0.2,1.2c0.2,0.1,0.4,0.3,0.7,0.3s0.6,0.1,1,0.1
			c0.5,0,0.8-0.1,1.1-0.3s0.4-0.4,0.4-0.8c0-0.3-0.1-0.6-0.3-0.8s-0.6-0.4-1.2-0.6c-1-0.3-1.8-0.6-2.3-1s-0.8-1-0.8-1.7
			c0-0.7,0.3-1.3,0.9-1.7s1.3-0.7,2.2-0.7c0.7,0,1.3,0.1,1.8,0.3s1,0.5,1.4,0.8V124.5z"/>
	</g>
	<path class="st8" d="M428.8,174.6h-10.2c-0.6-2.5-3.2-4.1-5.7-3.4c-2.5,0.6-4.1,3.2-3.4,5.7c0.6,2.5,3.2,4.1,5.7,3.4
		c1.7-0.4,3-1.7,3.4-3.4h3l1.3,1.4l1.4-1.4h0.2l0.9,0.9l0.8-0.8l1.3,1.3l1.5-1.4l1.1-1L428.8,174.6z M412.1,177
		c-0.7,0-1.2-0.6-1.2-1.3c0-0.7,0.6-1.2,1.3-1.2c0.7,0,1.2,0.6,1.2,1.3c0,0,0,0,0,0C413.3,176.4,412.8,177,412.1,177
		C412.1,177,412.1,177,412.1,177z"/>
	<path class="st17" d="M428.8,159.8h-10.2c-0.6-2.5-3.2-4.1-5.7-3.4c-2.5,0.6-4.1,3.2-3.4,5.7c0.6,2.5,3.2,4.1,5.7,3.4
		c1.7-0.4,3-1.7,3.4-3.4h3l1.4,1.4l1.4-1.4h0.2l0.9,0.9l0.8-0.8l1.3,1.3l1.5-1.5l1.1-1L428.8,159.8z M412.3,162.2
		c-0.7,0-1.3-0.5-1.3-1.2c0-0.7,0.5-1.3,1.2-1.3c0.7,0,1.3,0.5,1.3,1.2c0,0,0,0,0,0C413.5,161.6,413,162.2,412.3,162.2L412.3,162.2z
		"/>
	<path class="st18" d="M428.8,145.1h-10.2c-0.6-2.5-3.2-4.1-5.7-3.4c-2.5,0.6-4.1,3.2-3.4,5.7c0.6,2.5,3.2,4.1,5.7,3.4
		c1.7-0.4,3-1.7,3.4-3.4h3l1.3,1.4l1.4-1.4h0.2l0.9,0.9l0.8-0.8l1.3,1.3l1.5-1.5l1.1-1L428.8,145.1z M412.3,147.5
		c-0.7,0-1.3-0.5-1.3-1.2c0-0.7,0.5-1.3,1.2-1.3c0.7,0,1.3,0.5,1.3,1.2c0,0,0,0,0,0C413.5,146.9,413,147.4,412.3,147.5L412.3,147.5z
		"/>
</g>
</svg>
