<svg xmlns="http://www.w3.org/2000/svg" xmlns:xlink="http://www.w3.org/1999/xlink" viewBox="0 0 678.72 358.56"><defs><style>.cls-1,.cls-12,.cls-20,.cls-29{font-size:12px;}.cls-1,.cls-12,.cls-24,.cls-31{fill:#306;}.cls-1,.cls-15{font-family:PTSans-Bold, PT Sans;}.cls-1,.cls-15,.cls-20,.cls-24,.cls-29{font-weight:700;}.cls-2{letter-spacing:-0.04em;}.cls-3{letter-spacing:-0.08em;}.cls-10,.cls-11,.cls-12,.cls-18,.cls-4,.cls-5,.cls-6{font-family:PTSans-Regular, PT Sans;}.cls-10,.cls-11,.cls-18,.cls-4,.cls-5,.cls-6{font-weight:400;}.cls-5,.cls-7{letter-spacing:-0.01em;}.cls-6{letter-spacing:-0.01em;}.cls-8{letter-spacing:-0.01em;}.cls-9{letter-spacing:-0.04em;}.cls-10{letter-spacing:-0.02em;}.cls-11,.cls-14{letter-spacing:-0.04em;}.cls-13,.cls-18{letter-spacing:-0.02em;}.cls-16{letter-spacing:-0.01em;}.cls-17{letter-spacing:-0.01em;}.cls-19{letter-spacing:-0.01em;}.cls-20,.cls-46{fill:#906;}.cls-20,.cls-24,.cls-29{font-family:RobotoSlab-Bold, Roboto Slab;}.cls-21{letter-spacing:0em;}.cls-22{letter-spacing:0.01em;}.cls-23,.cls-32,.cls-33,.cls-36,.cls-37,.cls-41,.cls-45,.cls-49{fill:none;}.cls-23{stroke:#39f;}.cls-23,.cls-28,.cls-36,.cls-37,.cls-38,.cls-43,.cls-47,.cls-48,.cls-49{stroke-miterlimit:10;}.cls-23,.cls-28,.cls-36,.cls-37,.cls-38,.cls-40,.cls-41,.cls-43,.cls-44,.cls-45,.cls-47,.cls-49{stroke-width:2px;}.cls-24{font-size:12.24px;}.cls-25{letter-spacing:0em;}.cls-26{letter-spacing:-0.01em;}.cls-27{letter-spacing:0em;}.cls-28,.cls-38,.cls-40,.cls-41,.cls-47,.cls-48{stroke:#fc0;}.cls-28{fill:url(#Unbenannter_Verlauf_12);}.cls-29,.cls-42,.cls-48{fill:#fc0;}.cls-30{letter-spacing:-0.01em;}.cls-32,.cls-33,.cls-37{stroke:#306;}.cls-32,.cls-33,.cls-40,.cls-41,.cls-44,.cls-45{stroke-linejoin:round;}.cls-33,.cls-40,.cls-41,.cls-44,.cls-45{stroke-linecap:round;}.cls-34,.cls-40,.cls-44{fill:#fff;}.cls-35{fill:#39f;}.cls-36{stroke:#0089ee;}.cls-36,.cls-37{stroke-dasharray:2 2;}.cls-38{fill:url(#Unbenannter_Verlauf_12_Kopie);}.cls-39{letter-spacing:-0.02em;}.cls-43,.cls-44,.cls-45,.cls-49{stroke:#906;}.cls-43{fill:url(#Unbenannter_Verlauf_12_Kopie-2);}.cls-47{fill:url(#Unbenannter_Verlauf_12-2);}</style><linearGradient id="Unbenannter_Verlauf_12" x1="223.38" y1="54.11" x2="345.22" y2="54.11" gradientUnits="userSpaceOnUse"><stop offset="0" stop-color="#906"/><stop offset="0.19" stop-color="#780066"/><stop offset="0.4" stop-color="#5a0066"/><stop offset="0.61" stop-color="#406"/><stop offset="0.81" stop-color="#370066"/><stop offset="1" stop-color="#306"/></linearGradient><linearGradient id="Unbenannter_Verlauf_12_Kopie" x1="138.99" y1="306.58" x2="208.99" y2="306.58" xlink:href="#Unbenannter_Verlauf_12"/><linearGradient id="Unbenannter_Verlauf_12_Kopie-2" x1="362.66" y1="307.58" x2="432.66" y2="307.58" xlink:href="#Unbenannter_Verlauf_12"/><linearGradient id="Unbenannter_Verlauf_12-2" x1="220.47" y1="168.27" x2="345.22" y2="168.27" xlink:href="#Unbenannter_Verlauf_12"/></defs><title>blender_responsibilities</title><g id="Ebene_2" data-name="Ebene 2"><text class="cls-1" transform="translate(360.5 167.65)">tag<tspan class="cls-2" x="16.57" y="0"> </tspan><tspan class="cls-3" x="19.08" y="0">—</tspan><tspan x="27.96" y="0"> </tspan><tspan class="cls-4" x="31" y="0">hash </tspan><tspan class="cls-5" x="58.33" y="0">o</tspan><tspan class="cls-4" x="64.62" y="0">f file sys</tspan><tspan class="cls-6" x="106.63" y="0">t</tspan><tspan class="cls-4" x="110.57" y="0">em sta</tspan><tspan class="cls-6" x="144.68" y="0">t</tspan><tspan class="cls-4" x="148.62" y="0">e</tspan><tspan class="cls-7" x="0" y="14.4">k</tspan><tspan class="cls-8" x="5.75" y="14.4">e</tspan><tspan class="cls-9" x="11.68" y="14.4">y</tspan><tspan class="cls-2" x="16.98" y="14.4"> </tspan><tspan class="cls-3" x="19.49" y="14.4">—</tspan><tspan x="28.37" y="14.4"> </tspan><tspan class="cls-5" x="31.4" y="14.4">k</tspan><tspan class="cls-10" x="37.01" y="14.4">e</tspan><tspan class="cls-11" x="42.84" y="14.4">y</tspan><tspan class="cls-4" x="48" y="14.4" xml:space="preserve"> used </tspan><tspan class="cls-6" x="78.48" y="14.4">t</tspan><tspan class="cls-4" x="82.42" y="14.4">o encrypt files</tspan></text><text class="cls-12" transform="translate(594.82 146.85)"><tspan class="cls-13">c</tspan><tspan x="5.14" y="0">ontrolled </tspan><tspan class="cls-7" x="55.48" y="0">b</tspan><tspan class="cls-14" x="61.81" y="0">y</tspan><tspan x="66.97" y="0"> </tspan><tspan class="cls-15"><tspan x="0" y="14.4">image crea</tspan><tspan class="cls-16" x="55.86" y="14.4">t</tspan><tspan x="59.99" y="14.4">or</tspan></tspan></text><text class="cls-12" transform="translate(597.83 320.23)"><tspan class="cls-13">c</tspan><tspan x="5.14" y="0">ontrolled </tspan><tspan class="cls-7" x="55.48" y="0">b</tspan><tspan class="cls-14" x="61.81" y="0">y</tspan><tspan x="66.97" y="0"> </tspan><tspan class="cls-15"><tspan x="22.57" y="14.4">user</tspan></tspan></text><text class="cls-1" transform="translate(360.5 61.21)">MrEncla<tspan class="cls-17" x="41.29" y="0">v</tspan><tspan x="46.93" y="0">e</tspan><tspan class="cls-2" x="53.03" y="0"> </tspan><tspan class="cls-3" x="55.53" y="0">—</tspan><tspan x="64.41" y="0"> </tspan><tspan class="cls-4" x="67.45" y="0">hash </tspan><tspan class="cls-5" x="94.79" y="0">o</tspan><tspan class="cls-4" x="101.07" y="0">f initial pro</tspan><tspan class="cls-18" x="158.05" y="0">c</tspan><tspan class="cls-4" x="163.18" y="0">ess sta</tspan><tspan class="cls-6" x="197.66" y="0">t</tspan><tspan class="cls-4" x="201.6" y="0">e</tspan></text><text class="cls-1" transform="translate(445.92 304.14)"><tspan class="cls-17">v</tspan><tspan x="5.64" y="0">olume tag 2</tspan><tspan class="cls-17" x="0" y="14.4">v</tspan><tspan x="5.64" y="14.4">olume </tspan><tspan class="cls-7" x="40.86" y="14.4">k</tspan><tspan class="cls-19" x="46.61" y="14.4">e</tspan><tspan class="cls-14" x="52.54" y="14.4">y</tspan><tspan x="57.84" y="14.4" xml:space="preserve"> 2</tspan></text><text class="cls-1" transform="translate(57.69 304.14)"><tspan class="cls-17">v</tspan><tspan x="5.64" y="0">olume tag 1</tspan><tspan class="cls-17" x="-0.41" y="14.4">v</tspan><tspan x="5.23" y="14.4">olume </tspan><tspan class="cls-7" x="40.45" y="14.4">k</tspan><tspan class="cls-19" x="46.2" y="14.4">e</tspan><tspan class="cls-14" x="52.13" y="14.4">y</tspan><tspan x="57.43" y="14.4" xml:space="preserve"> 1</tspan></text><text class="cls-20" transform="translate(128.92 219.21)">/e<tspan class="cls-21" x="10.78" y="0">n</tspan><tspan x="18.33" y="0">c</tspan><tspan class="cls-22" x="24.66" y="0">r</tspan><tspan x="29.81" y="0">yptedInputs</tspan></text><text class="cls-20" transform="translate(337.52 219.71)">/e<tspan class="cls-21" x="10.78" y="0">n</tspan><tspan x="18.33" y="0">c</tspan><tspan class="cls-22" x="24.66" y="0">r</tspan><tspan x="29.81" y="0">yptedOutputs</tspan></text><rect class="cls-23" x="30.24" y="75.21" width="124.94" height="74.27" rx="5"/><text class="cls-24" transform="translate(72.79 100.04)">Sig<tspan class="cls-25" x="18.36" y="0">n</tspan><tspan x="26.08" y="0">ed </tspan><tspan class="cls-26" x="-2.08" y="17">b</tspan><tspan x="4.86" y="17">le</tspan><tspan class="cls-27" x="15.29" y="17">n</tspan><tspan x="23" y="17">der</tspan><tspan x="2.13" y="34">image</tspan></text><rect class="cls-28" x="223.38" y="29.11" width="121.84" height="50" rx="5"/><text class="cls-29" transform="translate(262.73 59.12)"><tspan class="cls-30">b</tspan><tspan x="6.8" y="0">le</tspan><tspan class="cls-21" x="17.02" y="0">n</tspan><tspan x="24.58" y="0">der</tspan></text><path class="cls-31" d="M632.26,279.77a.77.77,0,0,1,.72.72.71.71,0,1,1-.72-.72Z"/><circle class="cls-31" cx="626.51" cy="280.49" r="0.72"/><path class="cls-32" d="M633.59,289.4v2.23h.88a3.65,3.65,0,0,1,.87.07,5.51,5.51,0,0,1,2.8,1.22,3.75,3.75,0,0,1,1.58,3v4.6H619.06v-4.6a3.77,3.77,0,0,1,1.57-3,5.55,5.55,0,0,1,2.8-1.22,3.78,3.78,0,0,1,.88-.07h.87V289.4"/><path class="cls-33" d="M621.84,278.4c0,1.8.07,2.59.07,4.39a7.74,7.74,0,0,0,7.48,7.83,7.48,7.48,0,0,0,7.54-7.47v-5"/><path class="cls-33" d="M621.84,278.33l.6-4.62c1.44-.36,8.15,3.65,11.24-1.38,0,0-.77,2.48,3.25,5.35v.65"/><path class="cls-33" d="M639.51,280.64a2.21,2.21,0,0,1-2.15,2.16v-4.31A2.2,2.2,0,0,1,639.51,280.64Z"/><path class="cls-33" d="M619.68,280.13v.72a2.18,2.18,0,0,0,2.16,1.79v-4.31A2.18,2.18,0,0,0,619.68,280.13Z"/><path class="cls-33" d="M627.3,285.16a2.55,2.55,0,0,0,2.09,1.08,2.63,2.63,0,0,0,2.08-1.08"/><path class="cls-33" d="M619.68,279.16v-5.42c0-3.84,4.32-8.35,9.71-8.35s9.7,4.51,9.7,8.35v5.52"/><path class="cls-31" d="M629.39,265.39c5.39,0,9.7,4.51,9.7,8.35v5.52h-.41a2.09,2.09,0,0,1,.41,1.23,2.21,2.21,0,0,1-2.16,2.15v.51a7.42,7.42,0,0,1-3.4,6.25h.06v2.23h.88a3.65,3.65,0,0,1,.87.07,5.51,5.51,0,0,1,2.8,1.22,3.75,3.75,0,0,1,1.58,3v4.6H619.06v-4.6a3.77,3.77,0,0,1,1.57-3,5.55,5.55,0,0,1,2.8-1.22,3.78,3.78,0,0,1,.88-.07h.87V289.4h.25a8,8,0,0,1-3.52-6.61,4.75,4.75,0,0,0,0-.72,5.48,5.48,0,0,0,0,.57,2.18,2.18,0,0,1-2.16-1.79v-.72a2.13,2.13,0,0,1,.43-1h-.43v-5.42c0-3.84,4.32-8.35,9.71-8.35m0-2c-6.59,0-11.71,5.56-11.71,10.35v5.42a1.84,1.84,0,0,0,.06.47c0,.07,0,.14,0,.21a2.83,2.83,0,0,0,0,.29v.72c0,.09,0,.18,0,.28a4.1,4.1,0,0,0,2.32,3.1,10.08,10.08,0,0,0,2.76,5.55,7.51,7.51,0,0,0-3.38,1.57,5.73,5.73,0,0,0-2.34,4.59v4.6a2,2,0,0,0,2,2h20.66a2,2,0,0,0,2-2v-4.6a5.73,5.73,0,0,0-2.34-4.59,7.6,7.6,0,0,0-3.2-1.53,9.37,9.37,0,0,0,2.7-5.68,4.21,4.21,0,0,0,2.21-3.65,4.28,4.28,0,0,0-.06-.72,2.1,2.1,0,0,0,.06-.51v-5.52c0-4.79-5.11-10.35-11.7-10.35Z"/></g><g id="schrift"><path class="cls-34" d="M619.91,128a1,1,0,0,1-1-1V122.4a5.24,5.24,0,0,1,1.75-3.94,5.66,5.66,0,0,1,3-1.51,2.92,2.92,0,0,1,.8-.1v-.06a7.34,7.34,0,0,1-5.58-7.14v-1.54A3.31,3.31,0,0,1,617,103.3l-1.19-4a9,9,0,0,1,1.51-8,6.91,6.91,0,0,1,5.26-3.09h7.55a3.31,3.31,0,0,1,3.24,2.48c2.16.34,4.24,1,5.46,2.67,1.38,1.92,1.53,4.85.53,9.81a.29.29,0,0,1,0,.09,3.37,3.37,0,0,1-2,4.9v1.57a7.24,7.24,0,0,1-5.43,7.09v0a3.78,3.78,0,0,1,.89.1,5.19,5.19,0,0,1,2.94,1.59,5.44,5.44,0,0,1,1.68,3.86V127a1,1,0,0,1-1,1Z"/><path class="cls-35" d="M630.13,89.21a2.31,2.31,0,0,1,2.36,2.36c5.5.72,7.7,2.44,5.89,11.4h-.62a2.37,2.37,0,0,1,1,2,2.42,2.42,0,0,1-2.36,2.36l-.08.08v2.36a6.25,6.25,0,0,1-5.43,6.27v1.85h.78a4,4,0,0,1,.87.07,4.29,4.29,0,0,1,2.43,1.29,4.48,4.48,0,0,1,1.42,3.19V127H619.91V122.4a4.24,4.24,0,0,1,1.41-3.19,4.81,4.81,0,0,1,2.52-1.29,3,3,0,0,1,.79-.07h.78V116h-.08a6.29,6.29,0,0,1-5.5-6.29v-2.36h0a2.37,2.37,0,0,1-2.28-2.36,2.45,2.45,0,0,1,.71-1.65,1.67,1.67,0,0,1,.34-.31h-.66L616.76,99c-1.49-5,2.52-9.83,5.82-9.83h7.55m0-2h-7.55a7.91,7.91,0,0,0-6.07,3.49,10,10,0,0,0-1.66,8.91l1.08,3.6a4.17,4.17,0,0,0-.38,1.72,4.36,4.36,0,0,0,2.28,3.84v.88a8.35,8.35,0,0,0,3.72,7,6.63,6.63,0,0,0-1.58,1.13,6.23,6.23,0,0,0-2.06,4.66V127a2,2,0,0,0,2,2h16.51a2,2,0,0,0,2-2V122.4a6.47,6.47,0,0,0-2-4.59,6,6,0,0,0-1.64-1.23,8.23,8.23,0,0,0,3.55-6.9v-.85a4.35,4.35,0,0,0,2-5.71c1-5.11.78-8.21-.74-10.34-1.31-1.83-3.36-2.58-5.52-3a4.32,4.32,0,0,0-4-2.59Z"/><path class="cls-31" d="M631.27,103.74a.76.76,0,0,1,.71.71.7.7,0,1,1-.71-.71Z"/><circle class="cls-31" cx="625.4" cy="104.45" r="0.71"/><path class="cls-33" d="M631.08,109.72a2.76,2.76,0,0,1-2.73,2.4,2.84,2.84,0,0,1-2.8-2.4Z"/><polyline class="cls-33" points="619.94 102.5 619.94 101.7 619.94 99.7"/><path class="cls-33" d="M619.94,107.31v-.4"/><path class="cls-33" d="M619.94,106.51v-4a2.18,2.18,0,0,0-1.68.72,2.5,2.5,0,0,0-.73,1.69,2.42,2.42,0,0,0,2.41,2.4"/><path class="cls-33" d="M636.69,102.84v4a2.18,2.18,0,0,0,1.68-.72,2.5,2.5,0,0,0,.73-1.68,2.42,2.42,0,0,0-2.41-2.41"/><path class="cls-33" d="M625.55,109.72a2.78,2.78,0,0,0,2.8,2.4,2.7,2.7,0,0,0,2.73-2.4h-5.53Z"/><path class="cls-33" d="M617.93,102.9l-1.2-4c-1.52-5.13,2.57-10,5.93-10h7.7a2.36,2.36,0,0,1,2.4,2.4c5.61.74,7.86,2.49,6,11.62"/><path class="cls-33" d="M619.94,101.7h2.4a1.61,1.61,0,0,0,1.61-1.6,2.18,2.18,0,0,1,.72-1.68,2.68,2.68,0,0,1,1.68-.73h.48a5.79,5.79,0,0,0,4-1.6l1.2-1.2v.32a5.86,5.86,0,0,0,2.32,4.57l2.49,1.76"/><path class="cls-33" d="M629.55,107.31h-4.08a1.61,1.61,0,0,0-1.6,1.61v.64a1.16,1.16,0,0,1-1.21,1,1.23,1.23,0,0,1-1.2-1.2v-1.21a1.6,1.6,0,0,0-1.6-1.6v3.21a6.42,6.42,0,0,0,5.61,6.41c.24,0,.56.08.8.08H631a6.37,6.37,0,0,0,5.69-6.41v-3.29a1.6,1.6,0,0,0-1.6,1.6v1.21a1.23,1.23,0,0,1-1.21,1.2,1.27,1.27,0,0,1-1.2-1v-.64a1.61,1.61,0,0,0-1.6-1.61H629.4"/><path class="cls-33" d="M625.55,116.46v1.61h-.8a2.72,2.72,0,0,0-.8.08,4.78,4.78,0,0,0-2.57,1.31,4.32,4.32,0,0,0-1.44,3.25v4.64h16.83v-4.64a4.56,4.56,0,0,0-1.44-3.25,4.33,4.33,0,0,0-2.49-1.31,3.59,3.59,0,0,0-.88-.08h-.8v-1.61"/></g><g id="Ebene_4" data-name="Ebene 4"><rect class="cls-36" x="14.34" y="11.81" width="566.69" height="229.79" rx="5"/><rect class="cls-37" x="14.34" y="251.56" width="566.69" height="94.21" rx="5"/><rect class="cls-38" x="138.99" y="277.77" width="70" height="57.62" rx="5"/><text class="cls-29" transform="translate(163.98 313.22)"><tspan class="cls-39">V</tspan><tspan class="cls-30" x="8.33" y="0">o</tspan><tspan x="14.94" y="0">l</tspan></text><path class="cls-40" d="M165.82,265.66a11.74,11.74,0,1,1-3.51,8.38,11.54,11.54,0,0,1,2.4-7.1"/><path class="cls-41" d="M174.07,279.68h-4.25c-.57,0-.8-.22-.8-.8v-6.46c0-.58.23-.81.8-.81h8.46c.55,0,.77.23.77.78v6.49c0,.55-.22.77-.77.77C176.87,279.72,175.45,279.68,174.07,279.68Z"/><path class="cls-41" d="M169.71,271.05a4.51,4.51,0,0,1,2.64-4.13,4.2,4.2,0,0,1,5.78,2.85c.1.38.13.77.23,1.19"/><path class="cls-42" d="M173.36,276.92h0v.87c0,.16.07.22.26.22h.84c.22,0,.29-.06.29-.26v-1.6a.38.38,0,0,1,.22-.39,1.21,1.21,0,0,0,.61-1.45,1.54,1.54,0,0,0-1.44-1,1.64,1.64,0,0,0-1.61.87,1.2,1.2,0,0,0,.54,1.51.42.42,0,0,1,.26.48A5.86,5.86,0,0,1,173.36,276.92Z"/><rect class="cls-43" x="362.66" y="278.77" width="70" height="57.62" rx="5"/><text class="cls-29" transform="translate(387.64 314.22)"><tspan class="cls-39">V</tspan><tspan class="cls-30" x="8.33" y="0">o</tspan><tspan x="14.94" y="0">l</tspan></text><path class="cls-44" d="M389.49,266.66A11.73,11.73,0,1,1,386,275a11.54,11.54,0,0,1,2.4-7.1"/><path class="cls-45" d="M397.73,280.68h-4.24c-.58,0-.81-.22-.81-.8v-6.46c0-.58.23-.81.81-.81h8.45c.55,0,.78.23.78.78v6.49c0,.55-.23.77-.78.77C400.53,280.72,399.11,280.68,397.73,280.68Z"/><path class="cls-45" d="M393.38,272.05a4.48,4.48,0,0,1,2.64-4.13,4.19,4.19,0,0,1,5.77,2.85c.1.38.13.77.23,1.19"/><path class="cls-46" d="M397,277.92h0v.87c0,.16.06.22.25.22h.84c.23,0,.29-.06.29-.26v-1.6a.38.38,0,0,1,.22-.39,1.22,1.22,0,0,0,.62-1.45,1.55,1.55,0,0,0-1.45-1,1.65,1.65,0,0,0-1.61.87,1.21,1.21,0,0,0,.55,1.51.41.41,0,0,1,.25.48A4.41,4.41,0,0,1,397,277.92Z"/><rect class="cls-47" x="220.47" y="143.27" width="124.75" height="50" rx="5"/><text class="cls-29" transform="translate(249.88 175.33)">File system</text><path class="cls-40" d="M274.63,134.45a11.73,11.73,0,1,1-3.52,8.39,11.54,11.54,0,0,1,2.4-7.1"/><path class="cls-41" d="M282.87,148.48h-4.24c-.58,0-.8-.22-.8-.8v-6.46c0-.58.22-.81.8-.81h8.46c.54,0,.77.23.77.77v6.5c0,.55-.23.77-.77.77C285.67,148.51,284.26,148.48,282.87,148.48Z"/><path class="cls-41" d="M278.52,139.85a4.5,4.5,0,0,1,2.64-4.14,4.19,4.19,0,0,1,5.77,2.86c.1.38.14.77.24,1.19"/><path class="cls-48" d="M282.17,145.72h0v.87c0,.16.06.22.26.22h.83c.23,0,.29-.06.29-.26V145a.37.37,0,0,1,.23-.39,1.21,1.21,0,0,0,.61-1.45,1.54,1.54,0,0,0-1.45-1,1.65,1.65,0,0,0-1.61.87,1.21,1.21,0,0,0,.55,1.51.41.41,0,0,1,.26.48A5.86,5.86,0,0,1,282.17,145.72Z"/><line class="cls-49" x1="167.71" y1="125.93" x2="208.41" y2="166.62"/><polygon class="cls-46" points="201.08 167.39 201.13 165.99 208.03 166.24 207.77 159.34 209.18 159.29 209.48 167.7 201.08 167.39"/><line class="cls-49" x1="167.71" y1="100" x2="208.41" y2="59.3"/><polygon class="cls-46" points="209.18 66.63 207.78 66.58 208.03 59.68 201.13 59.94 201.08 58.54 209.48 58.23 209.18 66.63"/><line class="cls-49" x1="263.43" y1="203.85" x2="200.68" y2="266.6"/><polygon class="cls-46" points="199.91 259.27 201.31 259.32 201.06 266.22 207.96 265.96 208.01 267.37 199.61 267.67 199.91 259.27"/><line class="cls-49" x1="303.05" y1="203.85" x2="365.8" y2="266.6"/><polygon class="cls-46" points="358.47 267.37 358.52 265.97 365.42 266.22 365.17 259.32 366.57 259.27 366.87 267.67 358.47 267.37"/></g></svg>