<svg xmlns="http://www.w3.org/2000/svg" viewBox="0 0 545.02 134.43"><defs><style>.cls-1,.cls-12{font-size:14px;font-family:RobotoSlab-Bold, Roboto Slab;font-weight:700;}.cls-1{fill:#906;}.cls-2,.cls-3,.cls-4{fill:#306;font-size:12px;font-family:PTSans-Regular, PT Sans;}.cls-2,.cls-3{font-weight:400;}.cls-3,.cls-5{letter-spacing:-0.01em;}.cls-6{letter-spacing:-0.04em;}.cls-7{letter-spacing:0.03em;}.cls-8{letter-spacing:-0.01em;}.cls-9{letter-spacing:-0.02em;}.cls-10{letter-spacing:0em;}.cls-11{letter-spacing:0.01em;}.cls-12{fill:#0089ee;}.cls-13,.cls-14{fill:none;stroke-miterlimit:10;stroke-width:2px;}.cls-13{stroke:#906;}.cls-14{stroke:#fc0;}</style></defs><title>blenderprotection</title><g id="Ebene_2" data-name="Ebene 2"><text class="cls-1" transform="translate(268.22 18.17)"><tspan xml:space="preserve">/         </tspan><tspan class="cls-2" x="36" y="0">not pro</tspan><tspan class="cls-3" x="73.27" y="0">te</tspan><tspan class="cls-2" x="83.17" y="0">c</tspan><tspan class="cls-3" x="88.58" y="0">t</tspan><tspan class="cls-2" x="92.52" y="0">ed</tspan></text><text class="cls-4" transform="translate(8.51 111.02)">in<tspan class="cls-5" x="9.78" y="0">te</tspan><tspan x="19.68" y="0">grit</tspan><tspan class="cls-6" x="37.49" y="0">y</tspan><tspan x="42.65" y="0" xml:space="preserve"> pro</tspan><tspan class="cls-5" x="62.85" y="0">te</tspan><tspan x="72.75" y="0">c</tspan><tspan class="cls-5" x="78.17" y="0">t</tspan><tspan x="82.1" y="0">ed</tspan><tspan x="0" y="14.4">(pa</tspan><tspan class="cls-7" x="15.8" y="14.4">r</tspan><tspan x="20.25" y="14.4">t </tspan><tspan class="cls-8" x="27.52" y="14.4">o</tspan><tspan x="33.8" y="14.4">f image)</tspan></text><text class="cls-4" transform="translate(125.23 111.02)">in<tspan class="cls-5" x="9.78" y="0">te</tspan><tspan x="19.68" y="0">grit</tspan><tspan class="cls-6" x="37.49" y="0">y</tspan><tspan x="42.65" y="0" xml:space="preserve"> &amp; </tspan><tspan class="cls-9" x="58.82" y="0">c</tspan><tspan x="63.96" y="0">onfidentialit</tspan><tspan class="cls-6" x="126.57" y="0">y</tspan><tspan x="131.73" y="0"> </tspan><tspan x="0" y="14.4">pro</tspan><tspan class="cls-5" x="17" y="14.4">te</tspan><tspan x="26.9" y="14.4">c</tspan><tspan class="cls-5" x="32.32" y="14.4">t</tspan><tspan x="36.25" y="14.4">ed (user </tspan><tspan class="cls-9" x="80.27" y="14.4">e</tspan><tspan x="86.09" y="14.4">x</tspan><tspan class="cls-5" x="92.27" y="14.4">t</tspan><tspan x="96.2" y="14.4">ension)</tspan></text><text class="cls-4" transform="translate(289.27 111.02)">in<tspan class="cls-5" x="9.78" y="0">te</tspan><tspan x="19.68" y="0">grit</tspan><tspan class="cls-6" x="37.49" y="0">y</tspan><tspan x="42.65" y="0" xml:space="preserve"> &amp; </tspan><tspan class="cls-9" x="58.82" y="0">c</tspan><tspan x="63.96" y="0">onfidentialit</tspan><tspan class="cls-6" x="126.57" y="0">y</tspan><tspan x="131.73" y="0"> </tspan><tspan x="0" y="14.4">pro</tspan><tspan class="cls-5" x="17" y="14.4">te</tspan><tspan x="26.9" y="14.4">c</tspan><tspan class="cls-5" x="32.32" y="14.4">t</tspan><tspan x="36.25" y="14.4">ed (user </tspan><tspan class="cls-9" x="80.27" y="14.4">e</tspan><tspan x="86.09" y="14.4">x</tspan><tspan class="cls-5" x="92.27" y="14.4">t</tspan><tspan x="96.2" y="14.4">ension)</tspan></text><text class="cls-1" transform="translate(43.77 83.34)">/usr</text><text class="cls-1" transform="translate(134.16 83.34)">/e<tspan class="cls-10" x="12.57" y="0">n</tspan><tspan x="21.39" y="0">c</tspan><tspan class="cls-11" x="28.77" y="0">r</tspan><tspan x="34.78" y="0">yptedInputs</tspan></text><text class="cls-1" transform="translate(291.99 83.34)">/e<tspan class="cls-10" x="12.57" y="0">n</tspan><tspan x="21.39" y="0">c</tspan><tspan class="cls-11" x="28.77" y="0">r</tspan><tspan x="34.78" y="0">yptedOutputs</tspan></text><text class="cls-12" transform="translate(473.89 83.34)">/bin</text><rect class="cls-13" x="8.51" y="65.29" width="98.11" height="26.89" rx="5"/><rect class="cls-13" x="438.13" y="65.29" width="98.11" height="26.89" rx="5"/><rect class="cls-13" x="121.12" y="65.29" width="142" height="26.89" rx="5"/><rect class="cls-13" x="278.75" y="65.29" width="152.49" height="26.89" rx="5"/></g><g id="Ebene_4" data-name="Ebene 4"><line class="cls-14" x1="258.43" y1="30.71" x2="240.25" y2="58.46"/><line class="cls-14" x1="284.82" y1="30.71" x2="302.64" y2="58.46"/><line class="cls-14" x1="226.6" y1="29.71" x2="107.84" y2="56.46"/><line class="cls-14" x1="316.69" y1="29.71" x2="435.45" y2="56.46"/></g></svg>