<svg xmlns="http://www.w3.org/2000/svg" xmlns:xlink="http://www.w3.org/1999/xlink" viewBox="0 0 365.07 202.34"><defs><style>.cls-1{fill:#fc9;opacity:0.2;}.cls-2{opacity:0.7;}.cls-3{fill:url(#Unbenannter_Verlauf_12);}.cls-10,.cls-12,.cls-13,.cls-28,.cls-29,.cls-30,.cls-4,.cls-7,.cls-8{fill:none;}.cls-10,.cls-4,.cls-5{stroke:#c30;}.cls-12,.cls-13,.cls-28,.cls-29,.cls-30,.cls-4,.cls-7{stroke-miterlimit:10;}.cls-10,.cls-12,.cls-13,.cls-28,.cls-29,.cls-30,.cls-4,.cls-5,.cls-7,.cls-8{stroke-width:2px;}.cls-13,.cls-4{stroke-dasharray:2 2;}.cls-18,.cls-31,.cls-5{fill:#fff;}.cls-10,.cls-5,.cls-8{stroke-linecap:round;stroke-linejoin:round;}.cls-6{fill:url(#Unbenannter_Verlauf_12-2);}.cls-12,.cls-13,.cls-28,.cls-29,.cls-7,.cls-8{stroke:#fc0;}.cls-14,.cls-9{fill:#fc0;}.cls-11{fill:#c30;}.cls-12{stroke-dasharray:2.05 2.05;}.cls-14,.cls-24{font-size:12px;font-family:RobotoSlab-Bold, Roboto Slab;font-weight:700;}.cls-15{letter-spacing:-0.01em;}.cls-16{letter-spacing:0em;}.cls-17{letter-spacing:0.01em;}.cls-18{font-size:11px;font-family:PTSans-Regular, PT Sans;}.cls-19{letter-spacing:-0.01em;}.cls-20{letter-spacing:-0.04em;}.cls-21{letter-spacing:-0.01em;}.cls-22{letter-spacing:-0.01em;}.cls-23{letter-spacing:-0.02em;}.cls-24{fill:#306;}.cls-25{letter-spacing:-0.01em;}.cls-26{letter-spacing:0em;}.cls-27{letter-spacing:-0.03em;}.cls-28{stroke-dasharray:1.92 1.92;}.cls-29{stroke-dasharray:2.16 2.16;}.cls-30{stroke:#fff;}</style><linearGradient id="Unbenannter_Verlauf_12" x1="142.65" y1="123.31" x2="319.94" y2="123.31" gradientUnits="userSpaceOnUse"><stop offset="0" stop-color="#906"/><stop offset="0.19" stop-color="#780066"/><stop offset="0.4" stop-color="#5a0066"/><stop offset="0.61" stop-color="#406"/><stop offset="0.81" stop-color="#370066"/><stop offset="1" stop-color="#306"/></linearGradient><linearGradient id="Unbenannter_Verlauf_12-2" x1="32.65" y1="123.31" x2="142.65" y2="123.31" xlink:href="#Unbenannter_Verlauf_12"/></defs><title>blender_python</title><g id="Ebene_2" data-name="Ebene 2"><rect class="cls-1" x="225.22" y="55.33" width="108.16" height="136.2" rx="5"/><g class="cls-2"><path class="cls-3" d="M314.94,72.42H142.65v25.7h88.47A4.9,4.9,0,0,1,236,103V143.6a4.91,4.91,0,0,1-4.91,4.9H142.65v25.7H314.94a5,5,0,0,0,5-5V77.42A5,5,0,0,0,314.94,72.42Z"/></g><path class="cls-4" d="M223.58,174.81v12.48a5,5,0,0,0,5,5h100a5,5,0,0,0,5-5v-128a5,5,0,0,0-5-5h-100a5,5,0,0,0-5,5V74.22"/><path class="cls-5" d="M328.68,50.34a2.88,2.88,0,0,0-3.61-1.19c-2.25.87-1.26,3.63-1.26,3.63s-5.14-.07-4.57,5.19c.41,3.85,4.57,3.63,4.43,3.63-6.2,0,12.39,0,18.58,0a4.64,4.64,0,0,0,2.64-1,4,4,0,0,0,1.29-4.74c-.66-1.83-3-2.78-4.88-2.88,0,0,1.11-4.88-2.41-7a6.62,6.62,0,0,0-8.09.6A7.5,7.5,0,0,0,328.68,50.34Z"/><path class="cls-6" d="M142.65,73.22V59.33a5,5,0,0,0-5-5h-100a5,5,0,0,0-5,5v128a5,5,0,0,0,5,5h100a5,5,0,0,0,5-5V173.2"/><path class="cls-7" d="M142.65,73.22V59.33a5,5,0,0,0-5-5h-100a5,5,0,0,0-5,5v128a5,5,0,0,0,5,5h100a5,5,0,0,0,5-5V173.2"/><path class="cls-8" d="M19.45,21.19H15.21c-.58,0-.81-.23-.81-.8V13.92c0-.57.23-.8.81-.8h8.45c.55,0,.78.23.78.77v6.5c0,.54-.23.77-.78.77C22.25,21.22,20.84,21.19,19.45,21.19Z"/><path class="cls-8" d="M15.1,12.56a4.49,4.49,0,0,1,2.64-4.14,4.2,4.2,0,0,1,5.77,2.86c.1.38.14.77.23,1.18"/><path class="cls-9" d="M18.75,18.43h0v.86c0,.16.06.23.25.23h.84c.23,0,.29-.07.29-.26V17.65a.35.35,0,0,1,.23-.38A1.22,1.22,0,0,0,21,15.82a1.54,1.54,0,0,0-1.45-1,1.64,1.64,0,0,0-1.61.86,1.22,1.22,0,0,0,.55,1.52.42.42,0,0,1,.26.48A5.78,5.78,0,0,1,18.75,18.43Z"/><path class="cls-10" d="M346.84,20.79H342.6c-.58,0-.8-.23-.8-.8V13.52c0-.58.22-.8.8-.8h8.46c.54,0,.77.22.77.77V20c0,.54-.23.77-.77.77C349.64,20.82,348.23,20.79,346.84,20.79Z"/><path class="cls-10" d="M345.47,4.54a4.5,4.5,0,0,1,4.85.71,4.2,4.2,0,0,1-.23,6.44c-.31.25-.65.44-1,.7"/><path class="cls-11" d="M346.14,18h0v.87c0,.16.06.23.25.23h.84c.22,0,.29-.07.29-.26V17.25a.36.36,0,0,1,.22-.38,1.2,1.2,0,0,0,.61-1.45,1.52,1.52,0,0,0-1.44-1,1.64,1.64,0,0,0-1.61.86,1.22,1.22,0,0,0,.55,1.52.4.4,0,0,1,.25.48A4.29,4.29,0,0,1,346.14,18Z"/><path class="cls-7" d="M142.65,98.12h88.47A4.9,4.9,0,0,1,236,103V143.6a4.91,4.91,0,0,1-4.91,4.9H142.65Z"/><path class="cls-7" d="M142.65,174.2H314.94a5,5,0,0,0,5-5V77.42a5,5,0,0,0-5-5H142.65"/><line class="cls-4" x1="223.58" y1="98.48" x2="223.58" y2="146.89"/><line class="cls-7" x1="118.45" y1="85.67" x2="119.45" y2="85.67"/><line class="cls-12" x1="121.5" y1="85.67" x2="194.11" y2="85.67"/><line class="cls-7" x1="195.14" y1="85.67" x2="196.14" y2="85.67"/><polygon class="cls-9" points="191.5 91.39 190.54 90.37 195.6 85.67 190.54 80.97 191.5 79.94 197.65 85.67 191.5 91.39"/><line class="cls-13" x1="197.17" y1="160.92" x2="133.48" y2="160.92"/><polygon class="cls-9" points="138.12 155.19 139.07 156.22 134.02 160.91 139.07 165.62 138.12 166.64 131.96 160.91 138.12 155.19"/></g><g id="schrift"><text class="cls-14" transform="translate(148.06 119) scale(1.01 1)">alw<tspan class="cls-15" x="20.04" y="0">a</tspan><tspan x="26.54" y="0">ys </tspan><tspan x="0" y="14.4">e</tspan><tspan class="cls-16" x="6.39" y="14.4">n</tspan><tspan x="13.95" y="14.4">c</tspan><tspan class="cls-17" x="20.27" y="14.4">r</tspan><tspan x="25.43" y="14.4">ypted</tspan></text><text class="cls-18" transform="translate(46.91 75.27)">application.<tspan class="cls-19" x="54.88" y="0">p</tspan><tspan class="cls-20" x="60.7" y="0">y</tspan><tspan x="44.98" y="13.2">utils</tspan><tspan class="cls-19" x="-8.32" y="26.4">p</tspan><tspan x="-2.5" y="26.4">ython libraries</tspan></text><text class="cls-18" transform="translate(42.91 181.88)">simple_sphere.png</text><text class="cls-18" transform="translate(202.01 88.37)">encryp<tspan class="cls-21" x="31.38" y="0">t</tspan><tspan x="34.99" y="0">ed data</tspan></text><text class="cls-18" transform="translate(202.01 164.07)">encryp<tspan class="cls-22" x="31.38" y="0">t</tspan><tspan x="34.99" y="0">ed pro</tspan><tspan class="cls-23" x="65.02" y="0">c</tspan><tspan x="69.73" y="0">essing</tspan></text><text class="cls-24" transform="translate(276.74 20.97)">Untrusted <tspan class="cls-25" x="-46.19" y="14.4">r</tspan><tspan x="-41.25" y="14.4">e</tspan><tspan class="cls-26" x="-34.86" y="14.4">m</tspan><tspan x="-23.75" y="14.4">ote computers</tspan></text><text class="cls-24" transform="translate(31.7 20.49)"><tspan class="cls-27">T</tspan><tspan x="7.69" y="0">rusted</tspan><tspan x="0" y="14.4">client computer</tspan></text><line class="cls-7" x1="118.45" y1="72.99" x2="119.45" y2="72.99"/><line class="cls-28" x1="121.38" y1="72.99" x2="128.11" y2="72.99"/><polyline class="cls-7" points="129.07 72.99 130.07 72.99 130.07 73.99"/><line class="cls-29" x1="130.07" y1="76.15" x2="130.07" y2="96.69"/><polyline class="cls-7" points="130.07 97.77 130.07 98.77 129.07 98.77"/><line class="cls-28" x1="127.15" y1="98.77" x2="120.42" y2="98.77"/><line class="cls-7" x1="119.45" y1="98.77" x2="118.45" y2="98.77"/><rect class="cls-30" x="72.65" y="146.37" width="30" height="20"/><polygon class="cls-31" points="75.99 163.12 81.63 158.09 84.83 160.61 91.25 154.37 99.56 163.12 75.99 163.12"/><circle class="cls-31" cx="79.05" cy="151.77" r="1.89"/></g></svg>