<svg xmlns="http://www.w3.org/2000/svg" viewBox="0 0 545.02 269.11"><defs><style>.cls-1,.cls-5,.cls-8{font-size:14px;font-family:RobotoSlab-Bold, Roboto Slab;font-weight:700;}.cls-1{fill:#906;}.cls-2{letter-spacing:-0.01em;}.cls-3{letter-spacing:-0.01em;}.cls-4{letter-spacing:0em;}.cls-5{fill:#0089ee;}.cls-6{letter-spacing:-0.08em;}.cls-7{letter-spacing:-0.01em;}.cls-8{fill:#306;}.cls-9{letter-spacing:-0.04em;}.cls-10{fill:none;stroke:#fc0;stroke-miterlimit:10;stroke-width:2px;}</style></defs><title>blenderfs</title><g id="Ebene_2" data-name="Ebene 2"><text class="cls-1" transform="translate(258.63 21.08)">/usr</text><text class="cls-1" transform="translate(184.41 79.25)">/sha<tspan class="cls-2" x="28.91" y="0">r</tspan><tspan x="34.67" y="0">e</tspan></text><text class="cls-1" transform="translate(34.47 141.06)">/<tspan class="cls-3" x="5.11" y="0">b</tspan><tspan x="13.05" y="0">le</tspan><tspan class="cls-4" x="24.97" y="0">n</tspan><tspan x="33.79" y="0">der/2.79/scripts</tspan></text><text class="cls-5" transform="translate(259.83 79.25)">/bin</text><text class="cls-5" transform="translate(196.12 141.06)"><tspan class="cls-3">b</tspan><tspan x="7.94" y="0">le</tspan><tspan class="cls-4" x="19.86" y="0">n</tspan><tspan x="28.68" y="0">der-thumbnaile</tspan><tspan class="cls-6" x="132.85" y="0">r</tspan><tspan x="137.56" y="0">.</tspan><tspan class="cls-7" x="141.13" y="0">p</tspan><tspan x="149.53" y="0">y</tspan></text><text class="cls-8" transform="translate(326.13 79.25)">/lib</text><text class="cls-1" transform="translate(26.51 202.29)">addons</text><text class="cls-1" transform="translate(44.65 222.28)">...</text><text class="cls-1" transform="translate(133.9 258.36)">...</text><text class="cls-1" transform="translate(250.5 258.36)">...</text><text class="cls-1" transform="translate(417.13 202.29)">...</text><text class="cls-1" transform="translate(146.67 202.29)">tem<tspan class="cls-3" x="25.7" y="0">p</tspan><tspan x="34.04" y="0">l</tspan><tspan class="cls-9" x="38.51" y="0">a</tspan><tspan x="45.65" y="0">tes_</tspan><tspan class="cls-7" x="73.01" y="0">p</tspan><tspan x="81.42" y="0">y</tspan></text><text class="cls-8" transform="translate(306.91 203.82)">_futu<tspan class="cls-2" x="35.38" y="0">r</tspan><tspan x="41.15" y="0">e_.</tspan><tspan class="cls-7" x="59.65" y="0">p</tspan><tspan x="68.05" y="0">y</tspan></text><text class="cls-8" transform="translate(460.24 202.29)">zipfile.<tspan class="cls-7" x="44.93" y="0">p</tspan><tspan x="53.33" y="0">y</tspan></text><text class="cls-8" transform="translate(384.68 141.06)">/<tspan class="cls-7" x="5.11" y="0">p</tspan><tspan x="13.51" y="0">yt</tspan><tspan class="cls-4" x="27.02" y="0">h</tspan><tspan x="35.85" y="0">on3.6</tspan></text></g><g id="Ebene_4" data-name="Ebene 4"><line class="cls-10" x1="289.75" y1="31.62" x2="317.49" y2="59.36"/><line class="cls-10" x1="353.3" y1="94.17" x2="381.04" y2="121.91"/><line class="cls-10" x1="272.28" y1="31.62" x2="272.1" y2="59.36"/><line class="cls-10" x1="272.28" y1="94.32" x2="272.1" y2="122.07"/><line class="cls-10" x1="254.45" y1="31.62" x2="226.71" y2="59.36"/><line class="cls-10" x1="131.85" y1="154.48" x2="159.59" y2="182.23"/><line class="cls-10" x1="96.55" y1="154.48" x2="68.8" y2="182.23"/><line class="cls-10" x1="213.77" y1="216.28" x2="241.51" y2="244.02"/><line class="cls-10" x1="178.47" y1="216.28" x2="150.73" y2="244.02"/><line class="cls-10" x1="439.42" y1="154.48" x2="467.16" y2="182.23"/><line class="cls-10" x1="404.12" y1="154.48" x2="376.37" y2="182.23"/><line class="cls-10" x1="193.27" y1="91.8" x2="165.53" y2="119.55"/></g></svg>