<svg xmlns="http://www.w3.org/2000/svg" xmlns:xlink="http://www.w3.org/1999/xlink" viewBox="0 0 673.43 413.94"><defs><style>.cls-1,.cls-17,.cls-43{font-size:12px;}.cls-1,.cls-14,.cls-19,.cls-22,.cls-43{fill:#306;}.cls-1{font-family:PTSans-Bold, PT Sans;}.cls-1,.cls-14,.cls-17,.cls-22{font-weight:700;}.cls-10,.cls-11,.cls-12,.cls-2,.cls-43,.cls-9{font-family:PTSans-Regular, PT Sans;}.cls-10,.cls-11,.cls-12,.cls-2,.cls-9{font-weight:400;}.cls-2{letter-spacing:6.66em;}.cls-10,.cls-3{letter-spacing:-0.01em;}.cls-4{letter-spacing:-0.01em;}.cls-5{letter-spacing:-0.04em;}.cls-6{letter-spacing:-0.01em;}.cls-7{letter-spacing:-0.04em;}.cls-8{letter-spacing:-0.08em;}.cls-11{letter-spacing:-0.02em;}.cls-12,.cls-45{letter-spacing:-0.01em;}.cls-13,.cls-20,.cls-21,.cls-24,.cls-34,.cls-38,.cls-42,.cls-44{fill:none;}.cls-13{stroke:#39f;}.cls-13,.cls-16,.cls-24,.cls-26,.cls-31,.cls-36,.cls-40,.cls-41,.cls-42,.cls-44{stroke-miterlimit:10;}.cls-13,.cls-16,.cls-24,.cls-26,.cls-31,.cls-33,.cls-34,.cls-36,.cls-37,.cls-38,.cls-40,.cls-42,.cls-44{stroke-width:2px;}.cls-14{font-size:12.24px;}.cls-14,.cls-17,.cls-22{font-family:RobotoSlab-Bold, Roboto Slab;}.cls-15{letter-spacing:0em;}.cls-16,.cls-31,.cls-33,.cls-34,.cls-40,.cls-41{stroke:#fc0;}.cls-16{fill:url(#Unbenannter_Verlauf_12);}.cls-17,.cls-35,.cls-41{fill:#fc0;}.cls-18{letter-spacing:-0.01em;}.cls-20,.cls-21,.cls-44{stroke:#306;}.cls-20,.cls-21,.cls-33,.cls-34,.cls-37,.cls-38{stroke-linejoin:round;}.cls-21,.cls-33,.cls-34,.cls-37,.cls-38{stroke-linecap:round;}.cls-22{font-size:13px;}.cls-23{letter-spacing:-0.06em;}.cls-24,.cls-26{stroke:#c30;}.cls-24{stroke-dasharray:2 2;}.cls-25{fill:#c30;}.cls-26,.cls-27,.cls-33,.cls-37{fill:#fff;}.cls-28{fill:#3c9;}.cls-29{letter-spacing:-0.01em;}.cls-30{fill:#39f;}.cls-31{fill:url(#Unbenannter_Verlauf_12_Kopie);}.cls-32{letter-spacing:-0.02em;}.cls-36,.cls-37,.cls-38,.cls-42{stroke:#906;}.cls-36{fill:url(#Unbenannter_Verlauf_12_Kopie-2);}.cls-39{fill:#906;}.cls-40{fill:url(#Unbenannter_Verlauf_12-2);}.cls-46{letter-spacing:-0.04em;}</style><linearGradient id="Unbenannter_Verlauf_12" x1="267.55" y1="38.73" x2="389.39" y2="38.73" gradientUnits="userSpaceOnUse"><stop offset="0" stop-color="#906"/><stop offset="0.19" stop-color="#780066"/><stop offset="0.4" stop-color="#5a0066"/><stop offset="0.61" stop-color="#406"/><stop offset="0.81" stop-color="#370066"/><stop offset="1" stop-color="#306"/></linearGradient><linearGradient id="Unbenannter_Verlauf_12_Kopie" x1="183.16" y1="291.19" x2="253.16" y2="291.19" xlink:href="#Unbenannter_Verlauf_12"/><linearGradient id="Unbenannter_Verlauf_12_Kopie-2" x1="406.83" y1="292.19" x2="476.83" y2="292.19" xlink:href="#Unbenannter_Verlauf_12"/><linearGradient id="Unbenannter_Verlauf_12-2" x1="264.64" y1="160.88" x2="389.39" y2="160.88" xlink:href="#Unbenannter_Verlauf_12"/></defs><title>blender_keys</title><g id="Ebene_2" data-name="Ebene 2"><text class="cls-1" transform="translate(267.64 129.59)">tag <tspan class="cls-2" x="19.61" y="0">	</tspan><tspan class="cls-3" x="102.77" y="0">k</tspan><tspan class="cls-4" x="108.52" y="0">e</tspan><tspan class="cls-5" x="114.44" y="0">y</tspan></text><text class="cls-1" transform="translate(404.67 45.82)">MrEncla<tspan class="cls-6" x="41.29" y="0">v</tspan><tspan x="46.93" y="0">e</tspan><tspan class="cls-7" x="53.03" y="0"> </tspan><tspan class="cls-8" x="55.53" y="0">—</tspan><tspan x="64.41" y="0"> </tspan><tspan class="cls-9" x="67.45" y="0">hash </tspan><tspan class="cls-10" x="94.79" y="0">o</tspan><tspan class="cls-9" x="101.07" y="0">f initial pro</tspan><tspan class="cls-11" x="158.05" y="0">c</tspan><tspan class="cls-9" x="163.18" y="0">ess sta</tspan><tspan class="cls-12" x="197.66" y="0">t</tspan><tspan class="cls-9" x="201.6" y="0">e</tspan></text><rect class="cls-13" x="74.41" y="59.82" width="124.94" height="74.27" rx="5"/><text class="cls-14" transform="translate(116.96 84.65)">Sig<tspan class="cls-15" x="18.36" y="0">n</tspan><tspan x="26.08" y="0">ed </tspan><tspan x="-7.93" y="17">contai</tspan><tspan class="cls-15" x="28.39" y="17">n</tspan><tspan x="36.1" y="17">er</tspan><tspan x="2.13" y="34">image</tspan></text><rect class="cls-16" x="267.55" y="13.73" width="121.84" height="50" rx="5"/><text class="cls-17" transform="translate(306.47 43.73)">p<tspan class="cls-18" x="7.27" y="0">r</tspan><tspan x="12.2" y="0">ocess</tspan></text><text class="cls-1" transform="translate(15.83 314.31)">user</text><path class="cls-19" d="M29.46,273.85a.77.77,0,0,1,.72.72.71.71,0,1,1-.72-.72Z"/><circle class="cls-19" cx="23.71" cy="274.57" r="0.72"/><path class="cls-20" d="M30.79,283.48v2.23h.87a3.69,3.69,0,0,1,.88.07,5.55,5.55,0,0,1,2.8,1.22,3.77,3.77,0,0,1,1.57,3v4.6H16.25V290a3.78,3.78,0,0,1,1.58-3,5.55,5.55,0,0,1,2.8-1.22,3.65,3.65,0,0,1,.87-.07h.88v-2.23"/><path class="cls-21" d="M19,272.48c0,1.8.07,2.59.07,4.39a7.73,7.73,0,0,0,7.47,7.83,7.49,7.49,0,0,0,7.55-7.47v-5"/><path class="cls-21" d="M19,272.41l.6-4.62c1.43-.36,8.15,3.65,11.24-1.38,0,0-.77,2.48,3.25,5.35v.65"/><path class="cls-21" d="M36.78,274.72a2.21,2.21,0,0,1-2.15,2.16v-4.31A2.2,2.2,0,0,1,36.78,274.72Z"/><path class="cls-21" d="M16.88,274.21v.72A2.17,2.17,0,0,0,19,276.72v-4.31A2.17,2.17,0,0,0,16.88,274.21Z"/><path class="cls-21" d="M24.5,279.24a2.51,2.51,0,0,0,2.08,1.08,2.62,2.62,0,0,0,2.09-1.08"/><path class="cls-21" d="M16.88,273.24v-5.42c0-3.84,4.31-8.35,9.7-8.35s9.71,4.51,9.71,8.35v5.52"/><path class="cls-19" d="M26.58,259.47c5.39,0,9.71,4.51,9.71,8.35v5.52h-.41a2.16,2.16,0,0,1,.41,1.23,2.21,2.21,0,0,1-2.16,2.15v.51a7.42,7.42,0,0,1-3.4,6.25h.06v2.23h.87a3.69,3.69,0,0,1,.88.07,5.55,5.55,0,0,1,2.8,1.22,3.77,3.77,0,0,1,1.57,3v4.6H16.25V290a3.78,3.78,0,0,1,1.58-3,5.55,5.55,0,0,1,2.8-1.22,3.65,3.65,0,0,1,.87-.07h.88v-2.23h.25a8,8,0,0,1-3.52-6.61,4.75,4.75,0,0,0,0-.72,5.48,5.48,0,0,0-.05.57,2.17,2.17,0,0,1-2.16-1.79v-.72a2,2,0,0,1,.43-1h-.43v-5.42c0-3.84,4.31-8.35,9.7-8.35m0-2c-6.59,0-11.7,5.56-11.7,10.35v5.42a1.84,1.84,0,0,0,.06.47,1.7,1.7,0,0,0,0,.22,2.46,2.46,0,0,0,0,.28v.72c0,.09,0,.18,0,.28a4.1,4.1,0,0,0,2.32,3.1A10.08,10.08,0,0,0,20,283.86a7.59,7.59,0,0,0-3.39,1.57A5.77,5.77,0,0,0,14.25,290v4.6a2,2,0,0,0,2,2H36.91a2,2,0,0,0,2-2V290a5.74,5.74,0,0,0-2.34-4.59,7.49,7.49,0,0,0-3.2-1.53,9.38,9.38,0,0,0,2.71-5.68,4.21,4.21,0,0,0,2.21-3.65,4.39,4.39,0,0,0-.07-.72,2.09,2.09,0,0,0,.07-.51v-5.52c0-4.79-5.12-10.35-11.71-10.35Z"/><text class="cls-22" transform="translate(596.86 392.28)"><tspan class="cls-23">A</tspan><tspan x="8.59" y="0">ttac</tspan><tspan class="cls-18" x="32.28" y="0">k</tspan><tspan x="40.08" y="0">er </tspan></text><line class="cls-24" x1="423.52" y1="171.84" x2="593.22" y2="251.19"/><polygon class="cls-25" points="425.3 178.99 426.59 178.46 424 172.07 430.57 169.95 430.14 168.62 422.14 171.19 425.3 178.99"/><line class="cls-24" x1="505.01" y1="307.67" x2="593.22" y2="353.8"/><polygon class="cls-25" points="506.46 314.89 507.79 314.43 505.48 307.92 512.14 306.1 511.77 304.75 503.66 306.97 506.46 314.89"/><line class="cls-24" x1="415.48" y1="183.55" x2="594.96" y2="341.06"/><polygon class="cls-25" points="415.19 190.92 416.59 190.78 415.88 183.91 422.79 183.71 422.74 182.31 414.34 182.55 415.19 190.92"/><line class="cls-24" x1="504.58" y1="278.55" x2="593.22" y2="160.88"/><polygon class="cls-25" points="511.94 278.29 511.7 276.91 504.9 278.12 504.19 271.26 502.8 271.4 503.66 279.76 511.94 278.29"/><line class="cls-24" x1="510.61" y1="294.79" x2="593.22" y2="262.38"/><polygon class="cls-25" points="517.01 298.43 517.53 297.12 511.11 294.6 514.1 288.37 512.83 287.77 509.19 295.35 517.01 298.43"/><circle class="cls-26" cx="494.1" cy="293.47" r="7.77"/><line class="cls-26" x1="499.59" y1="298.96" x2="488.6" y2="287.98"/><circle class="cls-26" cx="405.44" cy="169.19" r="7.77"/><line class="cls-26" x1="410.93" y1="174.69" x2="399.95" y2="163.7"/><circle class="cls-26" cx="250.32" cy="167.64" r="7.77"/><line class="cls-26" x1="255.81" y1="173.13" x2="244.83" y2="162.15"/><path class="cls-27" d="M612,372.11a1,1,0,0,1-1-1V366a5.18,5.18,0,0,1,2.14-4.15,7.24,7.24,0,0,1,3.51-1.53,4.67,4.67,0,0,1,1.14-.1v-1.06a9.27,9.27,0,0,1-3.63-7.24c0-.89,0-1.26,0-1.63,0-.16,0-.33,0-.54h-.21a1,1,0,0,1-1-1V343.2a1,1,0,0,1,.16-.54,10.41,10.41,0,0,1,6.91-8.36,10.59,10.59,0,0,1,7,0,10,10,0,0,1,3.9,2.49,10.5,10.5,0,0,1,3,5.92.91.91,0,0,1,.15.48v5.56a1,1,0,0,1-1,1h-.19v2.55a8.64,8.64,0,0,1-3.71,7v.89a4.6,4.6,0,0,1,1.13.1,7.27,7.27,0,0,1,3.55,1.56,5.13,5.13,0,0,1,2.11,4.12v5.1a1,1,0,0,1-1,1Z"/><path class="cls-19" d="M623.4,334.71a9.38,9.38,0,0,1,3.17.54,9,9,0,0,1,3.53,2.26,9.34,9.34,0,0,1,2.76,5.7h.1v5.55h-1.19v3.55a7.66,7.66,0,0,1-3.71,6.49v2.43h1a4,4,0,0,1,1,.08,6.19,6.19,0,0,1,3.1,1.36,4.15,4.15,0,0,1,1.75,3.34v5.1H612V366a4.17,4.17,0,0,1,1.74-3.34,6.22,6.22,0,0,1,3.11-1.36,4,4,0,0,1,1-.08h1v-2.47h.15a8.25,8.25,0,0,1-3.78-6.83c0-1.76-.07-1.53-.08-3.17h-1.19v-5.55h.1a9.5,9.5,0,0,1,9.46-8.5m0-2A11.51,11.51,0,0,0,612,342.33a2,2,0,0,0-.2.88v5.55a2,2,0,0,0,1.25,1.86c0,.29,0,.65,0,1.31a10.25,10.25,0,0,0,3.3,7.42,8.26,8.26,0,0,0-3.95,1.74A6.14,6.14,0,0,0,610,366v5.1a2,2,0,0,0,2,2h22.9a2,2,0,0,0,2-2V366a6.14,6.14,0,0,0-2.51-4.92,8.15,8.15,0,0,0-3.74-1.71,9.55,9.55,0,0,0,3.17-7.07v-1.72a2,2,0,0,0,1.19-1.83v-5.55a1.92,1.92,0,0,0-.2-.87,11.52,11.52,0,0,0-3.25-6.25,11.1,11.1,0,0,0-4.28-2.73,11.62,11.62,0,0,0-3.83-.65Z"/><polygon class="cls-19" points="613.65 347.33 613.65 351.67 621.47 351.67 623.4 351.67 625.33 351.67 633.1 351.67 633.1 347.33 613.65 347.33"/><path class="cls-20" d="M615,347.35c0,1.88.08,2.7.08,4.58a8.32,8.32,0,0,0,8.29,8.19,8.08,8.08,0,0,0,8.37-7.81v-5.25"/><path class="cls-20" d="M613.88,344.18a9.53,9.53,0,0,1,12.69-8.93,9,9,0,0,1,3.53,2.26,9.33,9.33,0,0,1,2.81,6.67"/><rect class="cls-21" x="613.84" y="343.8" width="19.12" height="3.53"/><line class="cls-21" x1="622.3" y1="355.25" x2="625.77" y2="355.25"/><path class="cls-27" d="M619.87,348.19a1.39,1.39,0,0,0-.12,1.89,1.33,1.33,0,0,0,2.35-.77h0Z"/><path class="cls-27" d="M629,348.22l-2.1,1.33a1.5,1.5,0,0,0,.31.6,1.34,1.34,0,0,0,2.3-.94A1.36,1.36,0,0,0,629,348.22Z"/><text class="cls-14" transform="translate(601.1 287.61)">Client 2</text><path class="cls-28" d="M623.25,231.87c5.39,0,9.71,4.51,9.71,8.35v5.52h-.41A2.16,2.16,0,0,1,633,247a2.21,2.21,0,0,1-2.16,2.15v.51a7.42,7.42,0,0,1-3.4,6.25h.06v2.23h.87a3.78,3.78,0,0,1,.88.07,5.55,5.55,0,0,1,2.8,1.22,3.77,3.77,0,0,1,1.57,3V267H612.92v-4.6a3.75,3.75,0,0,1,1.58-3,5.51,5.51,0,0,1,2.8-1.22,3.65,3.65,0,0,1,.87-.07h.88v-2.23h.25a8,8,0,0,1-3.52-6.61,4.75,4.75,0,0,0,0-.72,5.48,5.48,0,0,0,0,.57,2.17,2.17,0,0,1-2.16-1.79v-.72a1.94,1.94,0,0,1,.43-1h-.43v-5.42c0-3.84,4.31-8.35,9.7-8.35m0-2c-6.59,0-11.7,5.56-11.7,10.35v5.42a1.78,1.78,0,0,0,.06.47,1.43,1.43,0,0,0,0,.22,2.46,2.46,0,0,0,0,.28v.72c0,.09,0,.18,0,.28a4.1,4.1,0,0,0,2.32,3.1,10.14,10.14,0,0,0,2.75,5.55,7.51,7.51,0,0,0-3.38,1.57,5.74,5.74,0,0,0-2.34,4.59V267a2,2,0,0,0,2,2h20.66a2,2,0,0,0,2-2v-4.6a5.74,5.74,0,0,0-2.34-4.59,7.55,7.55,0,0,0-3.2-1.53,9.44,9.44,0,0,0,2.71-5.68A4.21,4.21,0,0,0,635,247a4.39,4.39,0,0,0-.07-.72,2.09,2.09,0,0,0,.07-.51v-5.52c0-4.79-5.12-10.35-11.71-10.35Z"/><path class="cls-19" d="M626.13,246.25a.77.77,0,0,1,.72.72.72.72,0,1,1-.72-.72Z"/><circle class="cls-19" cx="620.38" cy="246.97" r="0.72"/><path class="cls-20" d="M627.46,255.88v2.23h.87a3.78,3.78,0,0,1,.88.07,5.55,5.55,0,0,1,2.8,1.22,3.77,3.77,0,0,1,1.57,3V267H612.92v-4.6a3.75,3.75,0,0,1,1.58-3,5.51,5.51,0,0,1,2.8-1.22,3.65,3.65,0,0,1,.87-.07h.88v-2.23"/><path class="cls-21" d="M615.71,244.88c0,1.8.07,2.59.07,4.39a7.73,7.73,0,0,0,7.47,7.83,7.49,7.49,0,0,0,7.55-7.47v-5"/><path class="cls-21" d="M615.71,244.81l.59-4.62c1.44-.36,8.16,3.65,11.25-1.38,0,0-.78,2.48,3.25,5.35v.65"/><path class="cls-21" d="M633,247.12a2.22,2.22,0,0,1-2.16,2.16V245A2.21,2.21,0,0,1,633,247.12Z"/><path class="cls-21" d="M613.55,246.61v.72a2.17,2.17,0,0,0,2.16,1.79v-4.31A2.17,2.17,0,0,0,613.55,246.61Z"/><path class="cls-21" d="M621.17,251.64a2.51,2.51,0,0,0,2.08,1.08,2.64,2.64,0,0,0,2.09-1.08"/><path class="cls-21" d="M613.55,245.64v-5.42c0-3.84,4.31-8.35,9.7-8.35s9.71,4.51,9.71,8.35v5.52"/><line class="cls-24" x1="231.38" y1="171.12" x2="59.85" y2="247.92"/><polygon class="cls-25" points="224.81 167.79 224.35 169.12 230.89 171.34 228.2 177.69 229.49 178.24 232.77 170.5 224.81 167.79"/></g><g id="schrift"><text class="cls-1" transform="translate(590.52 193.61)">image crea<tspan class="cls-29" x="55.86" y="0">t</tspan><tspan x="59.99" y="0">or</tspan></text><path class="cls-27" d="M615.61,174.7a1,1,0,0,1-1-1v-4.55a5.23,5.23,0,0,1,1.76-3.94,5.73,5.73,0,0,1,3-1.51,3.8,3.8,0,0,1,.79-.1v-.06a7.33,7.33,0,0,1-5.57-7.13v-1.55a3.39,3.39,0,0,1-2.28-3.17,3.31,3.31,0,0,1,.45-1.63s-1.2-4-1.2-4a9,9,0,0,1,1.51-8,6.94,6.94,0,0,1,5.27-3.09h7.55a3.32,3.32,0,0,1,3.24,2.48c2.16.34,4.24,1,5.46,2.68,1.37,1.91,1.53,4.84.53,9.8,0,0,0,.06,0,.09a3.44,3.44,0,0,1,.43,1.68,3.4,3.4,0,0,1-2.43,3.22v1.57a7.25,7.25,0,0,1-5.43,7.09v0a4.48,4.48,0,0,1,.89.11,5.12,5.12,0,0,1,2.93,1.58,5.41,5.41,0,0,1,1.68,3.86v4.55a1,1,0,0,1-1,1Z"/><path class="cls-30" d="M625.83,136a2.32,2.32,0,0,1,2.36,2.36c5.5.72,7.71,2.44,5.9,11.4h-.63a2.36,2.36,0,0,1,1,2,2.42,2.42,0,0,1-2.36,2.36l-.07.07v2.36a6.25,6.25,0,0,1-5.43,6.27v1.85h.79a3.44,3.44,0,0,1,.86.08,4.17,4.17,0,0,1,2.44,1.29,4.47,4.47,0,0,1,1.41,3.18v4.55H615.61v-4.55A4.17,4.17,0,0,1,617,166a4.64,4.64,0,0,1,2.52-1.29,2.59,2.59,0,0,1,.78-.08h.78v-1.9H621a6.28,6.28,0,0,1-5.5-6.29v-2.35h0a2.37,2.37,0,0,1-2.28-2.35A2.45,2.45,0,0,1,614,150a1.78,1.78,0,0,1,.35-.32h-.66l-1.18-3.93c-1.49-5,2.52-9.83,5.82-9.83h7.54m0-2h-7.54a7.94,7.94,0,0,0-6.07,3.49,10,10,0,0,0-1.67,8.91l1.08,3.6a4.32,4.32,0,0,0,1.91,5.56v.88a8.36,8.36,0,0,0,3.71,7,7.76,7.76,0,0,0-1.58,1.13,6.24,6.24,0,0,0-2.06,4.66v4.55a2,2,0,0,0,2,2h16.51a2,2,0,0,0,2-2v-4.55a6.48,6.48,0,0,0-2-4.58,6.22,6.22,0,0,0-1.64-1.24,8.2,8.2,0,0,0,3.54-6.9v-.85a4.4,4.4,0,0,0,2.43-3.89,4.46,4.46,0,0,0-.38-1.82c1-5.11.78-8.21-.75-10.34-1.31-1.83-3.36-2.58-5.52-3a4.29,4.29,0,0,0-4-2.59Z"/><path class="cls-19" d="M627,150.49a.76.76,0,0,1,.7.71.71.71,0,1,1-.7-.71Z"/><circle class="cls-19" cx="621.1" cy="151.2" r="0.71"/><path class="cls-21" d="M626.78,156.47a2.76,2.76,0,0,1-2.72,2.4,2.85,2.85,0,0,1-2.81-2.4Z"/><polyline class="cls-21" points="615.64 149.26 615.64 148.46 615.64 146.45"/><path class="cls-21" d="M615.64,154.06v-.4"/><path class="cls-21" d="M615.64,153.26v-4A2.18,2.18,0,0,0,614,150a2.49,2.49,0,0,0-.72,1.68,2.41,2.41,0,0,0,2.4,2.4"/><path class="cls-21" d="M632.4,149.6v4a2.18,2.18,0,0,0,1.68-.72,2.49,2.49,0,0,0,.72-1.68,2.41,2.41,0,0,0-2.4-2.4"/><path class="cls-21" d="M621.25,156.47a2.79,2.79,0,0,0,2.81,2.4,2.7,2.7,0,0,0,2.72-2.4h-5.53Z"/><path class="cls-21" d="M613.64,149.66l-1.2-4c-1.52-5.13,2.56-10,5.93-10h7.69a2.36,2.36,0,0,1,2.41,2.41c5.6.73,7.85,2.48,6,11.62"/><path class="cls-21" d="M615.64,148.45h2.41a1.6,1.6,0,0,0,1.6-1.6,2.18,2.18,0,0,1,.72-1.68,2.67,2.67,0,0,1,1.69-.72h.48a5.73,5.73,0,0,0,4-1.61l1.21-1.2V142a5.84,5.84,0,0,0,2.32,4.57l2.48,1.76"/><path class="cls-21" d="M625.26,154.06h-4.09a1.61,1.61,0,0,0-1.6,1.61v.64a1.15,1.15,0,0,1-1.2,1,1.23,1.23,0,0,1-1.2-1.2v-1.2a1.61,1.61,0,0,0-1.61-1.61v3.21a6.42,6.42,0,0,0,5.61,6.41c.24,0,.56.08.81.08h4.72a6.36,6.36,0,0,0,5.69-6.41v-3.29a1.61,1.61,0,0,0-1.6,1.61v1.2a1.23,1.23,0,0,1-1.2,1.2,1.27,1.27,0,0,1-1.2-1v-.64a1.62,1.62,0,0,0-1.61-1.61H625.1"/><path class="cls-21" d="M621.25,163.21v1.62h-.8a3.1,3.1,0,0,0-.8.07,4.8,4.8,0,0,0-2.56,1.32,4.26,4.26,0,0,0-1.45,3.24v4.64h16.83v-4.64a4.55,4.55,0,0,0-1.44-3.24,4.31,4.31,0,0,0-2.48-1.32,4.09,4.09,0,0,0-.88-.07h-.81v-1.62"/></g><g id="Ebene_4" data-name="Ebene 4"><rect class="cls-27" x="521.87" y="310.6" width="68.66" height="17.78"/><rect class="cls-27" x="463.85" y="194.56" width="68.66" height="17.78"/><rect class="cls-31" x="183.16" y="262.38" width="70" height="57.62" rx="5"/><text class="cls-17" transform="translate(208.15 297.83)"><tspan class="cls-32">V</tspan><tspan class="cls-18" x="8.33" y="0">o</tspan><tspan x="14.94" y="0">l</tspan></text><path class="cls-33" d="M210,250.27a11.74,11.74,0,1,1-3.51,8.38,11.54,11.54,0,0,1,2.4-7.1"/><path class="cls-34" d="M218.24,264.3H214c-.58,0-.81-.23-.81-.81V257c0-.58.23-.8.81-.8h8.45c.55,0,.77.22.77.77v6.49c0,.55-.22.77-.77.77C221,264.33,219.62,264.3,218.24,264.3Z"/><path class="cls-34" d="M213.88,255.66a4.51,4.51,0,0,1,2.64-4.13,4.2,4.2,0,0,1,5.78,2.85c.1.39.13.77.23,1.19"/><path class="cls-35" d="M217.53,261.53h0v.87c0,.16.07.22.26.22h.84c.22,0,.29-.06.29-.25v-1.61a.38.38,0,0,1,.22-.39,1.21,1.21,0,0,0,.61-1.44,1.53,1.53,0,0,0-1.44-1,1.65,1.65,0,0,0-1.61.87,1.19,1.19,0,0,0,.55,1.51.42.42,0,0,1,.25.48A6,6,0,0,1,217.53,261.53Z"/><rect class="cls-36" x="406.83" y="263.38" width="70" height="57.62" rx="5"/><text class="cls-17" transform="translate(431.81 298.83)"><tspan class="cls-32">V</tspan><tspan class="cls-18" x="8.33" y="0">o</tspan><tspan x="14.94" y="0">l</tspan></text><path class="cls-37" d="M433.66,251.27a11.73,11.73,0,1,1-3.52,8.38,11.54,11.54,0,0,1,2.4-7.1"/><path class="cls-38" d="M441.9,265.3h-4.24c-.58,0-.81-.23-.81-.81V258c0-.58.23-.8.81-.8h8.45c.55,0,.78.22.78.77v6.49c0,.55-.23.77-.78.77C444.7,265.33,443.29,265.3,441.9,265.3Z"/><path class="cls-38" d="M437.55,256.66a4.48,4.48,0,0,1,2.64-4.13,4.19,4.19,0,0,1,5.77,2.85c.1.39.14.77.23,1.19"/><path class="cls-39" d="M441.2,262.53h0v.87c0,.16.06.22.26.22h.83c.23,0,.29-.06.29-.25v-1.61a.37.37,0,0,1,.23-.39,1.22,1.22,0,0,0,.61-1.44,1.55,1.55,0,0,0-1.45-1,1.65,1.65,0,0,0-1.61.87,1.2,1.2,0,0,0,.55,1.51.43.43,0,0,1,.26.48A6,6,0,0,1,441.2,262.53Z"/><rect class="cls-40" x="264.64" y="135.88" width="124.75" height="50" rx="5"/><text class="cls-17" transform="translate(294.05 167.95)">File system</text><path class="cls-33" d="M318.8,127.07a11.73,11.73,0,1,1-3.52,8.38,11.54,11.54,0,0,1,2.4-7.1"/><path class="cls-34" d="M327.05,141.09H322.8c-.58,0-.8-.22-.8-.8v-6.46c0-.58.22-.81.8-.81h8.46c.54,0,.77.23.77.78v6.49c0,.55-.23.77-.77.77C329.84,141.13,328.43,141.09,327.05,141.09Z"/><path class="cls-34" d="M322.69,132.46a4.49,4.49,0,0,1,2.64-4.13,4.19,4.19,0,0,1,5.77,2.85c.1.38.14.77.24,1.19"/><path class="cls-41" d="M326.34,138.33h0v.87c0,.16.06.22.26.22h.83c.23,0,.29-.06.29-.26v-1.6a.39.39,0,0,1,.23-.39,1.21,1.21,0,0,0,.61-1.45,1.54,1.54,0,0,0-1.45-1,1.65,1.65,0,0,0-1.61.87,1.21,1.21,0,0,0,.55,1.51.42.42,0,0,1,.26.48A5.86,5.86,0,0,1,326.34,138.33Z"/><line class="cls-42" x1="211.88" y1="110.54" x2="252.58" y2="151.23"/><polygon class="cls-39" points="245.25 152 245.3 150.6 252.2 150.85 251.94 143.96 253.34 143.91 253.65 152.31 245.25 152"/><line class="cls-42" x1="211.88" y1="84.61" x2="252.58" y2="43.91"/><polygon class="cls-39" points="253.35 51.24 251.95 51.19 252.2 44.3 245.3 44.55 245.25 43.15 253.65 42.84 253.35 51.24"/><line class="cls-42" x1="307.6" y1="196.46" x2="244.92" y2="251.28"/><polygon class="cls-39" points="244.65 243.92 246.04 244.06 245.33 250.93 252.23 251.14 252.18 252.54 243.78 252.28 244.65 243.92"/><line class="cls-42" x1="347.22" y1="196.46" x2="409.9" y2="251.28"/><polygon class="cls-39" points="402.64 252.54 402.6 251.14 409.5 250.93 408.79 244.06 410.18 243.92 411.05 252.28 402.64 252.54"/><text class="cls-43" transform="translate(85.63 274.3)">input files</text><text class="cls-43" transform="translate(83.45 309.77)">output files</text><text class="cls-1" transform="translate(370.15 289.25)">tag 2<tspan class="cls-3" x="-0.41" y="14.4">k</tspan><tspan class="cls-4" x="5.34" y="14.4">e</tspan><tspan class="cls-5" x="11.27" y="14.4">y</tspan><tspan x="16.57" y="14.4" xml:space="preserve"> 2</tspan></text><text class="cls-1" transform="translate(263.37 289.25)">tag 1<tspan class="cls-3" x="0" y="14.4">k</tspan><tspan class="cls-4" x="5.75" y="14.4">e</tspan><tspan class="cls-5" x="11.68" y="14.4">y</tspan><tspan x="16.98" y="14.4" xml:space="preserve"> 1</tspan></text><line class="cls-44" x1="61.37" y1="293.96" x2="166.23" y2="293.96"/><polygon class="cls-19" points="66.01 299.69 66.96 298.66 61.91 293.96 66.96 289.26 66.01 288.24 59.85 293.96 66.01 299.69"/><text class="cls-43" transform="translate(479.86 138.22)">crea<tspan class="cls-45" x="21.54" y="0">t</tspan><tspan x="25.48" y="0">es</tspan></text><text class="cls-43" transform="translate(476.68 205.55)">modif<tspan class="cls-46" x="29.68" y="0">y</tspan></text><rect class="cls-27" x="132.86" y="194.56" width="68.66" height="17.78"/><text class="cls-43" transform="translate(150.69 205.55)">modif<tspan class="cls-46" x="29.68" y="0">y</tspan></text><text class="cls-43" transform="translate(525.01 324.36)">read/modif<tspan class="cls-46" x="56.51" y="0">y</tspan></text><line class="cls-44" x1="402.19" y1="147.18" x2="593.22" y2="147.18"/><polygon class="cls-19" points="406.83 152.9 407.78 151.88 402.73 147.18 407.78 142.48 406.83 141.45 400.67 147.18 406.83 152.9"/><line class="cls-44" x1="164.71" y1="282.12" x2="62.85" y2="282.12"/><polygon class="cls-19" points="160.07 276.39 159.11 277.42 164.17 282.12 159.11 286.82 160.07 287.84 166.23 282.12 160.07 276.39"/></g></svg>