<svg xmlns="http://www.w3.org/2000/svg" xmlns:xlink="http://www.w3.org/1999/xlink" viewBox="0 0 401.32 82.16"><defs><style>.cls-1,.cls-3,.cls-6{fill:none;}.cls-2,.cls-3,.cls-5,.cls-6{stroke:#fc0;stroke-width:2px;}.cls-2,.cls-3{stroke-miterlimit:10;}.cls-2{fill:url(#Unbenannter_Verlauf_3);}.cls-4{fill:#fc0;}.cls-5,.cls-7{fill:#fff;}.cls-5,.cls-6{stroke-linecap:round;stroke-linejoin:round;}.cls-14,.cls-7{font-size:12px;font-family:RobotoSlab-Bold, Roboto Slab;font-weight:700;}.cls-8{clip-path:url(#clip-path);}.cls-9{fill:#ffd138;}.cls-10{fill:#fdfeff;}.cls-11{fill:#906;}.cls-12{fill:#39f;}.cls-13{fill:#3c9;}.cls-14{fill:#306;}.cls-15{letter-spacing:-0.01em;}.cls-16{font-family:RobotoSlab-Regular, Roboto Slab;font-weight:400;}</style><linearGradient id="Unbenannter_Verlauf_3" x1="194.82" y1="45.66" x2="390.64" y2="45.66" gradientUnits="userSpaceOnUse"><stop offset="0" stop-color="#906"/><stop offset="0.19" stop-color="#780066"/><stop offset="0.4" stop-color="#5a0066"/><stop offset="0.61" stop-color="#406"/><stop offset="0.81" stop-color="#370066"/><stop offset="1" stop-color="#306"/></linearGradient><clipPath id="clip-path"><rect class="cls-1" x="274.35" y="59.58" width="37" height="7.25"/></clipPath></defs><title>CASOverview-4</title><g id="Ebene_2" data-name="Ebene 2"><rect class="cls-2" x="194.82" y="20.18" width="195.81" height="50.97" rx="5"/><line class="cls-3" x1="135.93" y1="45.66" x2="183.42" y2="45.66"/><polygon class="cls-4" points="140.57 51.39 141.52 50.37 136.47 45.67 141.52 40.97 140.57 39.94 134.41 45.67 140.57 51.39"/><polygon class="cls-4" points="178.78 51.39 177.82 50.37 182.88 45.67 177.82 40.97 178.78 39.94 184.94 45.67 178.78 51.39"/><path class="cls-5" d="M151.65,37.28a11.73,11.73,0,1,1-3.52,8.38,11.51,11.51,0,0,1,2.4-7.09"/><path class="cls-6" d="M159.56,51.31h-4.24c-.58,0-.8-.22-.8-.8V44c0-.57.22-.8.8-.8h8.46c.54,0,.77.23.77.77v6.5c0,.54-.23.77-.77.77C162.36,51.34,161,51.31,159.56,51.31Z"/><path class="cls-6" d="M155.21,42.68a4.5,4.5,0,0,1,2.64-4.14,4.2,4.2,0,0,1,5.77,2.86c.1.38.14.77.24,1.18"/><path class="cls-4" d="M158.86,48.55h0v.86c0,.16.06.23.26.23H160c.23,0,.29-.07.29-.26V47.77a.35.35,0,0,1,.23-.38,1.21,1.21,0,0,0,.61-1.45,1.55,1.55,0,0,0-1.45-1,1.63,1.63,0,0,0-1.61.87,1.21,1.21,0,0,0,.55,1.51.42.42,0,0,1,.26.48A5.86,5.86,0,0,1,158.86,48.55Z"/><path class="cls-5" d="M284.52,11.71A11.73,11.73,0,1,1,281,20.09a11.56,11.56,0,0,1,2.4-7.1"/><path class="cls-6" d="M292.44,25.74h-4.25c-.58,0-.8-.23-.8-.8V18.47c0-.58.22-.8.8-.8h8.46c.54,0,.77.22.77.77v6.5c0,.54-.23.77-.77.77C295.23,25.77,293.82,25.74,292.44,25.74Z"/><path class="cls-6" d="M288.08,17.11A4.51,4.51,0,0,1,290.72,13a4.19,4.19,0,0,1,5.77,2.85c.1.39.14.77.24,1.19"/><path class="cls-4" d="M291.73,23h0v.87c0,.16.06.23.26.23h.83c.23,0,.29-.07.29-.26V22.2a.35.35,0,0,1,.23-.38,1.22,1.22,0,0,0,.61-1.45,1.53,1.53,0,0,0-1.45-1,1.64,1.64,0,0,0-1.61.86,1.2,1.2,0,0,0,.55,1.51.42.42,0,0,1,.26.49A5.7,5.7,0,0,1,291.73,23Z"/></g><g id="Ebene_4" data-name="Ebene 4"><text class="cls-7"><tspan x="249.44" y="48.89">CAS</tspan></text><g id="Scone_logo_white" data-name="Scone logo white"><g class="cls-8"><g class="cls-8"><path class="cls-9" d="M279.25,61.42h-.77a.3.3,0,0,0-.3.3v.79a.3.3,0,0,0,.3.29h.77a.29.29,0,0,0,.3-.29v-.79a.29.29,0,0,0-.3-.3m-2.69,1.38h.77a.29.29,0,0,0,.3-.29v-.79a.29.29,0,0,0-.3-.3h-.77a.29.29,0,0,0-.3.3v.79a.29.29,0,0,0,.3.29m-.84-.29v-.79a.29.29,0,0,0-.29-.3h-.78a.3.3,0,0,0-.3.3v.79a.3.3,0,0,0,.3.29h.78a.29.29,0,0,0,.29-.29m3.59.85a.23.23,0,0,0-.22.22v.92a.23.23,0,1,0,.45,0v-.92a.21.21,0,0,0-.23-.22m-2.13.29v.79a.3.3,0,0,0,.3.3h.78a.29.29,0,0,0,.29-.3v-.79a.29.29,0,0,0-.29-.29h-.78a.3.3,0,0,0-.3.29m-.55.79v-.79a.29.29,0,0,0-.3-.29h-.77a.3.3,0,0,0-.3.29v.79a.3.3,0,0,0,.3.3h.77a.29.29,0,0,0,.3-.3m2.62.85h-.77a.31.31,0,0,0-.3.3v.79a.31.31,0,0,0,.3.3h.77a.3.3,0,0,0,.3-.3v-.79a.3.3,0,0,0-.3-.3m-2,0h-.77a.3.3,0,0,0-.3.3v.79a.3.3,0,0,0,.3.3h.77a.3.3,0,0,0,.3-.3v-.79a.3.3,0,0,0-.3-.3"/><path class="cls-9" d="M280.19,61.11a1.81,1.81,0,0,0,1.21.37s0,0,0,.06v2.13c0,.82-1,1.33-1.24,1.46a0,0,0,0,1,0,0v-4s0,0,0,0"/><path class="cls-9" d="M277.85,61c1.64-.06,1.91-.62,1.91-.62a.1.1,0,0,1,.08-.05s.06,0,.07,0,.25.61,1.89.61c.05,0,.06,0,.06.08v2.8c0,.89-1.7,1.9-1.73,1.92s-.06,0-.06.06v.7s.11,0,.15,0c.63-.34,2.39-1.31,2.39-2.5V60.48c0-.06-.11-.1-.17-.1-2.08,0-2.47-.76-2.47-.76s-.09,0-.13,0-.08,0-.09,0-.35.79-2.42.79c-.07,0-.09,0-.09.09v.45s0,.1.06.1l.55,0"/><path class="cls-10" d="M284.16,65.58l.83-.32a1.14,1.14,0,0,0,1.09.63,1.24,1.24,0,0,0,.64-.15.51.51,0,0,0,.27-.45c0-.44-.61-.71-1.06-.89l0,0a3.86,3.86,0,0,1-1-.53,1.21,1.21,0,0,1-.47-1,1.27,1.27,0,0,1,.49-1,1.89,1.89,0,0,1,1.23-.42,1.79,1.79,0,0,1,1.64.89l-.86.33a.69.69,0,0,0-.3-.31,1.17,1.17,0,0,0-.48-.11c-.47,0-.8.26-.8.6a.68.68,0,0,0,.33.54,5.1,5.1,0,0,0,.74.38l.11,0c.64.27,1.43.61,1.43,1.47a1.24,1.24,0,0,1-.57,1.06,2.3,2.3,0,0,1-1.36.39,2,2,0,0,1-1.9-1.13"/><path class="cls-10" d="M291.55,66.69a2.78,2.78,0,0,1-1-.2,2.51,2.51,0,0,1-.83-.57,2.28,2.28,0,0,1-.57-.84,2.74,2.74,0,0,1-.21-1,2.79,2.79,0,0,1,.21-1,2.66,2.66,0,0,1,1.4-1.4,2.6,2.6,0,0,1,1-.21,2.57,2.57,0,0,1,1.19.28,2.68,2.68,0,0,1,.91.76L293,63a1.84,1.84,0,0,0-.61-.5,1.9,1.9,0,0,0-.81-.2,1.78,1.78,0,0,0,0,3.55,1.77,1.77,0,0,0,.9-.25,1.84,1.84,0,0,0,.64-.66l.76.43a2.63,2.63,0,0,1-1,1,2.41,2.41,0,0,1-1.32.37"/><path class="cls-10" d="M297.31,66.71a2.74,2.74,0,0,1-1-.21,2.28,2.28,0,0,1-.84-.57,2.48,2.48,0,0,1-.56-.83,2.6,2.6,0,0,1-.21-1,2.44,2.44,0,0,1,.21-1,2.59,2.59,0,0,1,.56-.83,3,3,0,0,1,.84-.57,2.61,2.61,0,0,1,2,0,2.55,2.55,0,0,1,.84.57,2.63,2.63,0,0,1,.56,2.89,2.48,2.48,0,0,1-.56.83,2.66,2.66,0,0,1-.84.57,2.75,2.75,0,0,1-1,.21m0-4.43a1.73,1.73,0,0,0-1.25.52,1.82,1.82,0,0,0-.52,1.26,1.78,1.78,0,0,0,1.77,1.77,1.75,1.75,0,0,0,1.26-.52,1.81,1.81,0,0,0,.52-1.25,1.86,1.86,0,0,0-.52-1.26,1.82,1.82,0,0,0-1.26-.52"/><polygon class="cls-10" points="305.94 61.46 305.94 66.83 302.25 63.43 302.25 66.62 301.31 66.62 301.31 61.27 305 64.68 305 61.46 305.94 61.46"/><polygon class="cls-10" points="308.46 62.25 308.46 63.62 311.04 63.62 311.04 64.43 308.46 64.43 308.46 65.81 311.35 65.81 311.35 66.62 307.52 66.62 307.52 61.46 311.35 61.46 311.35 62.27 308.46 62.27 308.46 62.25"/></g></g></g><path class="cls-11" d="M360.77,43.69H350.6a4.72,4.72,0,1,0,0,2.27h3l1.36,1.36L356.29,46h.18l.86.86.8-.8,1.3,1.3,1.45-1.46,1.09-1Zm1.43,2.38a1.25,1.25,0,1,1,1.25-1.25A1.25,1.25,0,0,1,362.2,46.07Z"/><path class="cls-12" d="M334,43.69H323.79a4.72,4.72,0,1,0,0,2.27h3l1.35,1.36L329.48,46h.18l.86.86.8-.8,1.3,1.3,1.45-1.46,1.09-1ZM317.4,46.07a1.25,1.25,0,1,1,0-2.49,1.25,1.25,0,0,1,0,2.49Z"/><path class="cls-13" d="M307.16,43.69H297A4.72,4.72,0,1,0,297,46h3l1.36,1.36L302.67,46h.18l.86.86.8-.8,1.3,1.3,1.45-1.46,1.09-1Zm-16.57,2.38a1.25,1.25,0,1,1,0-2.49,1.25,1.25,0,0,1,0,2.49Z"/><text class="cls-14" transform="translate(37.41 40.9)">Security p<tspan class="cls-15" x="58.18" y="0">o</tspan><tspan x="64.79" y="0">licy </tspan><tspan class="cls-16"><tspan x="-24.85" y="14.4">with access cont</tspan><tspan class="cls-15" x="70.67" y="14.4">ro</tspan><tspan x="82.13" y="14.4">l</tspan></tspan></text></g></svg>