<?xml version="1.0" encoding="utf-8"?>
<!-- Generator: Adobe Illustrator 26.3.1, SVG Export Plug-In . SVG Version: 6.00 Build 0)  -->
<svg version="1.1" id="Ebene_1" xmlns="http://www.w3.org/2000/svg" xmlns:xlink="http://www.w3.org/1999/xlink" x="0px" y="0px"
	 viewBox="0 0 736.6 236.4" style="enable-background:new 0 0 736.6 236.4;" xml:space="preserve">
<style type="text/css">
	.st0{fill:none;stroke:#CC3300;stroke-width:2;stroke-miterlimit:10;stroke-dasharray:2,2;}
	.st1{opacity:0.2;fill:#FFCC99;enable-background:new    ;}
	.st2{fill:url(#SVGID_1_);}
	.st3{fill:none;stroke:#FFCC00;stroke-width:2;stroke-miterlimit:10;}
	.st4{enable-background:new    ;}
	.st5{fill:#330066;}
	.st6{fill:url(#SVGID_00000103241970963270240930000014144261360441965453_);stroke:#FFCC00;stroke-width:2;stroke-miterlimit:10;}
	.st7{fill:#990066;}
	.st8{fill:#3399FF;}
	.st9{fill:#33CC99;}
	.st10{clip-path:url(#SVGID_00000114063624001870213530000018136134209732362429_);}
	.st11{clip-path:url(#SVGID_00000076594974441691299700000010689037421452306832_);}
	.st12{fill:#FFD138;}
	.st13{fill:#FDFEFF;}
	.st14{fill:url(#SVGID_00000160186165006456550350000000523750789975144847_);stroke:#FFCC00;stroke-width:2;stroke-miterlimit:10;}
	.st15{fill:url(#SVGID_00000093141038111904786670000004062020467961868170_);stroke:#FFCC00;stroke-width:2;stroke-miterlimit:10;}
	.st16{fill:#FFCC00;}
	.st17{fill:#FFFFFF;stroke:#FFCC00;stroke-width:2;stroke-linecap:round;stroke-linejoin:round;}
	.st18{fill:none;stroke:#FFCC00;stroke-width:2;stroke-linecap:round;stroke-linejoin:round;}
	.st19{fill:none;stroke:#0089EE;stroke-width:2;stroke-miterlimit:10;}
	.st20{fill:#0089EE;}
	.st21{fill:#FFFFFF;}
	.st22{fill:none;stroke:#3399FF;stroke-width:2;stroke-miterlimit:10;}
	.st23{opacity:0.4;}
	.st24{fill:#86C2EB;}
	.st25{clip-path:url(#SVGID_00000084523722304882435660000005175025706060892850_);}
	.st26{clip-path:url(#SVGID_00000094580044136202898120000001394407567880639143_);}
	.st27{fill:none;stroke:#FFCC00;stroke-width:2;stroke-miterlimit:10;stroke-dasharray:2,2;}
	.st28{fill:none;stroke:#CC3300;stroke-width:2;stroke-linecap:round;stroke-linejoin:round;}
	.st29{fill:#CC3300;}
</style>
<path class="st0" d="M461,43.6h143.8c2.8,0,5,2.2,5,5v150.8c0,2.8-2.2,5-5,5H461c-2.8,0-5-2.2-5-5V48.6
	C456,45.8,458.3,43.6,461,43.6z"/>
<path class="st1" d="M461,43.6h143.8c2.8,0,5,2.2,5,5v150.8c0,2.8-2.2,5-5,5H461c-2.8,0-5-2.2-5-5V48.6
	C456,45.8,458.3,43.6,461,43.6z"/>
<linearGradient id="SVGID_1_" gradientUnits="userSpaceOnUse" x1="-364.16" y1="2058.99" x2="-489.86" y2="2058.99" gradientTransform="matrix(-1 0 0 1 105.64 -1935.79)">
	<stop  offset="0" style="stop-color:#990066"/>
	<stop  offset="0.19" style="stop-color:#780066"/>
	<stop  offset="0.4" style="stop-color:#5A0066"/>
	<stop  offset="0.61" style="stop-color:#440066"/>
	<stop  offset="0.81" style="stop-color:#370066"/>
	<stop  offset="1" style="stop-color:#330066"/>
</linearGradient>
<path class="st2" d="M469.8,133.5v-35c0.2-2.7,2.3-4.8,5-4.9h115.7c2.8,0,5,1.8,5,3.9v51.4c0,2.2-2.2,3.9-5,3.9H474.8
	c-2.7-0.2-4.8-2.3-5-4.9v-14.7"/>
<path class="st3" d="M469.8,133.5v-35c0.2-2.7,2.3-4.8,5-4.9h115.7c2.8,0,5,1.8,5,3.9v51.4c0,2.2-2.2,3.9-5,3.9H474.8
	c-2.7-0.2-4.8-2.3-5-4.9v-14.7"/>
<g class="st4">
	<path class="st5" d="M621.7,111.3c0.3-0.1,0.7-0.1,1-0.1c0.4,0,0.8,0,1.1,0c0.4,0,0.7,0,1.1,0.1s0.6,0.2,0.9,0.4
		c0.3,0.2,0.5,0.4,0.6,0.7c0.2,0.3,0.2,0.7,0.2,1.1c0,0.7-0.2,1.2-0.5,1.6s-0.8,0.7-1.4,0.8l0.6,0.4l2.1,3.3h-1.2l-2.3-3.6l-1.2-0.2
		v3.8h-1L621.7,111.3L621.7,111.3z M623.9,111.9c-0.1,0-0.2,0-0.3,0s-0.2,0-0.3,0s-0.2,0-0.3,0s-0.2,0-0.2,0v3.1h0.9
		c0.6,0,1-0.1,1.4-0.4s0.5-0.7,0.5-1.3c0-0.4-0.1-0.8-0.4-1.1S624.4,111.9,623.9,111.9z"/>
</g>
<g class="st4">
	<path class="st5" d="M629.5,113.6v3.4c0,0.3,0,0.6,0.1,0.8c0,0.2,0.1,0.4,0.2,0.6s0.2,0.3,0.4,0.4s0.3,0.1,0.6,0.1
		c0.2,0,0.4,0,0.6-0.1s0.3-0.2,0.5-0.3c0.1-0.1,0.2-0.3,0.3-0.4c0.1-0.2,0.2-0.3,0.2-0.5v-4h1v4.3c0,0.3,0,0.6,0,0.9
		s0.1,0.6,0.1,0.8h-0.7l-0.2-0.9h-0.1c-0.2,0.3-0.4,0.6-0.7,0.8s-0.7,0.3-1.2,0.3c-0.3,0-0.6,0-0.8-0.1s-0.4-0.2-0.6-0.4
		c-0.2-0.2-0.3-0.5-0.4-0.8c-0.1-0.3-0.1-0.7-0.1-1.2v-3.6h0.8L629.5,113.6L629.5,113.6z"/>
	<path class="st5" d="M639,119.6v-3.4c0-0.6-0.1-1.1-0.3-1.4s-0.5-0.5-1-0.5c-0.4,0-0.8,0.1-1,0.3c-0.3,0.2-0.5,0.5-0.6,0.9v4.1h-1
		v-6h0.7l0.2,0.7l0,0c0.2-0.3,0.5-0.5,0.8-0.6c0.3-0.2,0.7-0.2,1.2-0.2c0.3,0,0.6,0,0.9,0.1c0.2,0.1,0.5,0.2,0.6,0.4
		s0.3,0.5,0.4,0.8c0.1,0.3,0.1,0.7,0.1,1.2v3.6H639z"/>
	<path class="st5" d="M649.3,119.1c-0.2,0.2-0.5,0.3-0.9,0.5c-0.4,0.1-0.8,0.2-1.2,0.2c-0.5,0-0.9-0.1-1.2-0.2s-0.6-0.4-0.8-0.6
		c-0.2-0.3-0.4-0.6-0.5-1s-0.2-0.8-0.2-1.3c0-1,0.2-1.8,0.7-2.3s1.1-0.8,2-0.8c0.3,0,0.5,0,0.8,0.1s0.5,0.2,0.7,0.3
		c0.2,0.2,0.4,0.4,0.5,0.7c0.1,0.3,0.2,0.7,0.2,1.2c0,0.3,0,0.6-0.1,0.9h-3.9c0,0.4,0,0.7,0.1,0.9c0.1,0.3,0.2,0.5,0.3,0.7
		c0.2,0.2,0.3,0.3,0.6,0.4c0.2,0.1,0.5,0.1,0.9,0.1c0.3,0,0.5,0,0.8-0.1s0.5-0.2,0.6-0.3L649.3,119.1z M647.2,114.3
		c-0.5,0-0.9,0.1-1.1,0.4c-0.3,0.2-0.5,0.7-0.5,1.3h3c0-0.6-0.1-1-0.3-1.3C648,114.4,647.6,114.3,647.2,114.3z"/>
	<path class="st5" d="M654.8,119.6v-3.4c0-0.6-0.1-1.1-0.3-1.4s-0.5-0.5-1-0.5c-0.4,0-0.8,0.1-1.1,0.3c-0.3,0.2-0.5,0.5-0.6,0.9v4.1
		h-1v-6h0.7l0.2,0.7l0,0c0.2-0.3,0.5-0.5,0.8-0.6c0.3-0.2,0.7-0.2,1.2-0.2c0.3,0,0.6,0,0.9,0.1c0.2,0.1,0.5,0.2,0.6,0.4
		s0.3,0.5,0.4,0.8c0.1,0.3,0.1,0.7,0.1,1.2v3.6H654.8z"/>
	<path class="st5" d="M661.6,119.2c-0.2,0.2-0.5,0.3-0.9,0.4s-0.7,0.1-1,0.1c-0.5,0-0.9-0.1-1.2-0.2s-0.6-0.4-0.8-0.6
		c-0.2-0.3-0.4-0.6-0.4-1s-0.1-0.8-0.1-1.3c0-1,0.2-1.8,0.7-2.3c0.4-0.5,1.1-0.8,1.9-0.8c0.4,0,0.7,0,1,0.1s0.5,0.1,0.7,0.3
		l-0.3,0.8c-0.2-0.1-0.4-0.2-0.6-0.2c-0.2-0.1-0.5-0.1-0.7-0.1c-1.1,0-1.7,0.8-1.7,2.3c0,0.3,0,0.6,0.1,0.9s0.2,0.5,0.3,0.7
		s0.3,0.4,0.6,0.5s0.5,0.2,0.8,0.2s0.5,0,0.8-0.1s0.4-0.2,0.6-0.3L661.6,119.2z"/>
	<path class="st5" d="M665.8,114.5c-0.2-0.1-0.5-0.1-0.7-0.1c-0.3,0-0.6,0.1-0.8,0.3c-0.2,0.2-0.3,0.4-0.4,0.7v4.2h-1v-6h0.7
		l0.2,0.7l0,0c0.2-0.3,0.3-0.5,0.5-0.6s0.5-0.2,0.8-0.2c0.2,0,0.5,0,0.8,0.1L665.8,114.5z"/>
	<path class="st5" d="M668.8,117.5l0.3,1.2h0.1l0.3-1.2l1.2-3.9h1l-1.8,5.4c-0.1,0.4-0.3,0.8-0.4,1.1c-0.1,0.4-0.3,0.7-0.4,1
		c-0.2,0.3-0.3,0.5-0.5,0.7s-0.4,0.3-0.7,0.3s-0.5,0-0.7-0.1l0.2-0.8c0.1,0,0.2,0.1,0.3,0.1c0.2,0,0.4-0.1,0.6-0.4
		c0.2-0.2,0.4-0.6,0.5-1.2l-2.4-6h1.1L668.8,117.5z"/>
	<path class="st5" d="M672.6,113.6h0.7l0.2,0.7l0,0c0.2-0.3,0.4-0.5,0.7-0.6s0.6-0.2,1-0.2c0.8,0,1.4,0.2,1.8,0.7
		c0.4,0.5,0.6,1.2,0.6,2.3c0,0.5-0.1,1-0.2,1.4c-0.1,0.4-0.3,0.7-0.6,1c-0.2,0.3-0.5,0.5-0.9,0.6c-0.3,0.2-0.7,0.2-1.1,0.2
		c-0.3,0-0.5,0-0.7-0.1s-0.4-0.1-0.6-0.2v2.5h-1L672.6,113.6L672.6,113.6z M675.1,114.3c-0.4,0-0.7,0.1-1,0.3
		c-0.2,0.2-0.4,0.5-0.5,1v3c0.1,0.1,0.3,0.2,0.5,0.3c0.2,0.1,0.4,0.1,0.7,0.1c0.6,0,1-0.2,1.3-0.6s0.5-1,0.5-1.8
		c0-0.3,0-0.6-0.1-0.9s-0.1-0.5-0.3-0.7c-0.1-0.2-0.3-0.3-0.5-0.4C675.6,114.3,675.3,114.3,675.1,114.3z"/>
</g>
<g class="st4">
	<path class="st5" d="M678.3,113.6h0.9v-1.2l1-0.3v1.5h1.6v0.8h-1.6v3.3c0,0.4,0.1,0.7,0.2,0.9c0.1,0.2,0.3,0.3,0.5,0.3
		s0.4,0,0.5-0.1c0.1,0,0.3-0.1,0.5-0.2l0.2,0.7c-0.2,0.1-0.5,0.2-0.7,0.3c-0.3,0.1-0.5,0.1-0.8,0.1c-0.5,0-0.8-0.1-1-0.4
		s-0.3-0.7-0.3-1.4v-3.5h-0.9v-0.8C678.4,113.6,678.3,113.6,678.3,113.6z"/>
</g>
<g class="st4">
	<path class="st5" d="M687.4,119.1c-0.2,0.2-0.5,0.3-0.9,0.5c-0.4,0.1-0.8,0.2-1.2,0.2c-0.5,0-0.9-0.1-1.2-0.2s-0.6-0.4-0.8-0.6
		c-0.2-0.3-0.4-0.6-0.5-1s-0.2-0.8-0.2-1.3c0-1,0.2-1.8,0.7-2.3s1.1-0.8,2-0.8c0.3,0,0.5,0,0.8,0.1s0.5,0.2,0.7,0.3s0.4,0.4,0.5,0.7
		c0.1,0.3,0.2,0.7,0.2,1.2c0,0.3,0,0.6-0.1,0.9h-3.9c0,0.4,0,0.7,0.1,0.9c0.1,0.3,0.2,0.5,0.3,0.7c0.2,0.2,0.3,0.3,0.6,0.4
		c0.2,0.1,0.5,0.1,0.9,0.1c0.3,0,0.5,0,0.8-0.1s0.5-0.2,0.6-0.3L687.4,119.1z M685.4,114.3c-0.5,0-0.9,0.1-1.1,0.4
		c-0.3,0.2-0.5,0.7-0.5,1.3h3c0-0.6-0.1-1-0.3-1.3C686.1,114.4,685.8,114.3,685.4,114.3z"/>
	<path class="st5" d="M693.8,117.5c0,0.4,0,0.8,0,1.1s0,0.7,0.1,1h-0.6l-0.2-0.9l0,0c-0.2,0.3-0.4,0.5-0.7,0.7s-0.7,0.3-1.1,0.3
		c-0.8,0-1.4-0.3-1.8-0.8c-0.4-0.5-0.6-1.3-0.6-2.4c0-1,0.2-1.8,0.7-2.3s1.1-0.8,2-0.8c0.3,0,0.5,0,0.7,0s0.4,0.1,0.6,0.2v-2.5h1
		v6.4L693.8,117.5L693.8,117.5z M691.3,118.9c0.4,0,0.7-0.1,1-0.3s0.4-0.5,0.5-1v-3c-0.1-0.1-0.3-0.2-0.5-0.2s-0.4-0.1-0.7-0.1
		c-0.6,0-1,0.2-1.3,0.5c-0.3,0.4-0.5,0.9-0.5,1.7c0,0.3,0,0.6,0.1,0.9s0.1,0.5,0.3,0.7s0.3,0.4,0.5,0.5
		C690.8,118.8,691.1,118.9,691.3,118.9z"/>
</g>
<g class="st4">
	<path class="st5" d="M698.8,113.6h0.7l0.2,0.7l0,0c0.2-0.3,0.4-0.5,0.7-0.6s0.6-0.2,1-0.2c0.8,0,1.4,0.2,1.8,0.7
		c0.4,0.5,0.6,1.2,0.6,2.3c0,0.5-0.1,1-0.2,1.4s-0.3,0.7-0.6,1c-0.2,0.3-0.5,0.5-0.9,0.6s-0.7,0.2-1.1,0.2c-0.3,0-0.5,0-0.7-0.1
		s-0.4-0.1-0.6-0.2v2.5h-1L698.8,113.6L698.8,113.6z M701.2,114.3c-0.4,0-0.7,0.1-1,0.3c-0.2,0.2-0.4,0.5-0.5,1v3
		c0.1,0.1,0.3,0.2,0.5,0.3c0.2,0.1,0.4,0.1,0.7,0.1c0.6,0,1-0.2,1.3-0.6s0.5-1,0.5-1.8c0-0.3,0-0.6-0.1-0.9s-0.1-0.5-0.3-0.7
		c-0.1-0.2-0.3-0.3-0.5-0.4C701.8,114.3,701.5,114.3,701.2,114.3z"/>
</g>
<g class="st4">
	<path class="st5" d="M706.9,117.5l0.3,1.2h0.1l0.3-1.2l1.2-3.9h1L708,119c-0.1,0.4-0.3,0.8-0.4,1.1c-0.1,0.4-0.3,0.7-0.4,1
		c-0.2,0.3-0.3,0.5-0.5,0.7s-0.4,0.3-0.7,0.3s-0.5,0-0.7-0.1l0.2-0.8c0.1,0,0.2,0.1,0.3,0.1c0.2,0,0.4-0.1,0.6-0.4
		c0.2-0.2,0.4-0.6,0.5-1.2l-2.4-6h1.1L706.9,117.5z"/>
	<path class="st5" d="M710,113.6h0.9v-1.2l1-0.3v1.5h1.6v0.8h-1.6v3.3c0,0.4,0.1,0.7,0.2,0.9c0.1,0.2,0.3,0.3,0.5,0.3s0.4,0,0.5-0.1
		c0.1,0,0.3-0.1,0.5-0.2l0.2,0.7c-0.2,0.1-0.5,0.2-0.7,0.3c-0.3,0.1-0.5,0.1-0.8,0.1c-0.5,0-0.8-0.1-1-0.4s-0.3-0.7-0.3-1.4v-3.5h-1
		L710,113.6L710,113.6z"/>
	<path class="st5" d="M718.7,119.6v-3.4c0-0.3,0-0.6-0.1-0.8c0-0.2-0.1-0.4-0.2-0.6s-0.2-0.3-0.4-0.4s-0.4-0.1-0.6-0.1
		c-0.4,0-0.7,0.1-1,0.4c-0.3,0.2-0.5,0.6-0.6,0.9v4h-1v-8.4h1v3.1l0,0c0.2-0.2,0.5-0.4,0.8-0.6c0.3-0.1,0.7-0.2,1.1-0.2
		c0.3,0,0.6,0,0.9,0.1c0.2,0.1,0.5,0.2,0.6,0.4c0.2,0.2,0.3,0.5,0.4,0.8c0.1,0.3,0.1,0.7,0.1,1.2v3.6H718.7z"/>
	<path class="st5" d="M721.1,116.6c0-1,0.2-1.8,0.7-2.3s1.1-0.8,2-0.8c0.4,0,0.8,0.1,1.2,0.2s0.6,0.4,0.8,0.6c0.2,0.3,0.4,0.6,0.5,1
		s0.2,0.8,0.2,1.3c0,1-0.2,1.8-0.7,2.3s-1.1,0.8-2,0.8c-0.4,0-0.8-0.1-1.2-0.2c-0.3-0.1-0.6-0.4-0.8-0.6c-0.2-0.3-0.4-0.6-0.5-1
		C721.1,117.5,721.1,117.1,721.1,116.6z M722,116.6c0,0.3,0,0.6,0.1,0.9s0.2,0.5,0.3,0.7s0.3,0.4,0.5,0.5s0.5,0.2,0.8,0.2
		c1.1,0,1.6-0.8,1.6-2.3c0-0.3,0-0.6-0.1-0.9s-0.2-0.5-0.3-0.7s-0.3-0.4-0.5-0.5s-0.5-0.2-0.8-0.2C722.6,114.3,722,115,722,116.6z"
		/>
	<path class="st5" d="M731.7,119.6v-3.4c0-0.6-0.1-1.1-0.3-1.4s-0.5-0.5-1-0.5c-0.4,0-0.8,0.1-1.1,0.3c-0.3,0.2-0.5,0.5-0.6,0.9v4.1
		h-1v-6h0.7l0.2,0.7l0,0c0.2-0.3,0.5-0.5,0.8-0.6c0.3-0.2,0.7-0.2,1.2-0.2c0.3,0,0.6,0,0.9,0.1c0.2,0.1,0.5,0.2,0.6,0.4
		s0.3,0.5,0.4,0.8c0.1,0.3,0.1,0.7,0.1,1.2v3.6H731.7z"/>
</g>
<g class="st4">
	<path class="st5" d="M625.7,133.6c-0.2,0.2-0.5,0.3-0.9,0.4c-0.3,0.1-0.7,0.1-1,0.1c-0.5,0-0.9-0.1-1.2-0.2s-0.6-0.4-0.8-0.6
		s-0.4-0.6-0.4-1c-0.1-0.4-0.1-0.8-0.1-1.3c0-1,0.2-1.8,0.7-2.3c0.4-0.5,1.1-0.8,1.9-0.8c0.4,0,0.7,0,1,0.1s0.5,0.1,0.7,0.3
		l-0.3,0.8c-0.2-0.1-0.4-0.2-0.6-0.2s-0.5-0.1-0.7-0.1c-1.1,0-1.7,0.8-1.7,2.3c0,0.3,0,0.6,0.1,0.9c0.1,0.3,0.2,0.5,0.3,0.7
		s0.3,0.4,0.6,0.5c0.2,0.1,0.5,0.2,0.8,0.2s0.5,0,0.8-0.1c0.2-0.1,0.4-0.2,0.6-0.3L625.7,133.6z"/>
</g>
<g class="st4">
	<path class="st5" d="M626.4,131c0-1,0.2-1.8,0.7-2.3s1.1-0.8,2-0.8c0.4,0,0.8,0.1,1.2,0.2c0.4,0.1,0.6,0.4,0.8,0.6
		c0.2,0.3,0.4,0.6,0.5,1s0.2,0.8,0.2,1.3c0,1-0.2,1.8-0.7,2.3s-1.1,0.8-1.9,0.8c-0.4,0-0.8-0.1-1.2-0.2s-0.6-0.4-0.8-0.6
		c-0.2-0.3-0.4-0.6-0.5-1C626.5,131.9,626.4,131.5,626.4,131z M627.4,131c0,0.3,0,0.6,0.1,0.9c0.1,0.3,0.2,0.5,0.3,0.7
		s0.3,0.4,0.5,0.5s0.5,0.2,0.8,0.2c1.1,0,1.6-0.8,1.6-2.3c0-0.3,0-0.6-0.1-0.9c-0.1-0.3-0.2-0.5-0.3-0.7s-0.3-0.4-0.5-0.5
		s-0.5-0.2-0.8-0.2C628,128.7,627.4,129.4,627.4,131z"/>
	<path class="st5" d="M637.8,131.9c0,0.4,0,0.8,0,1.1s0,0.7,0.1,1h-0.6l-0.2-0.9l0,0c-0.2,0.3-0.4,0.5-0.7,0.7s-0.7,0.3-1.1,0.3
		c-0.8,0-1.4-0.3-1.8-0.8s-0.6-1.3-0.6-2.4c0-1,0.2-1.8,0.7-2.3s1.2-0.8,2-0.8c0.3,0,0.5,0,0.7,0s0.4,0.1,0.6,0.2v-2.5h1v6.4H637.8z
		 M635.4,133.3c0.4,0,0.7-0.1,1-0.3c0.2-0.2,0.4-0.5,0.5-1v-3c-0.1-0.1-0.3-0.2-0.5-0.2s-0.4-0.1-0.7-0.1c-0.6,0-1,0.2-1.3,0.5
		c-0.3,0.4-0.5,0.9-0.5,1.7c0,0.3,0,0.6,0.1,0.9s0.1,0.5,0.3,0.7c0.1,0.2,0.3,0.4,0.5,0.5C634.9,133.2,635.1,133.3,635.4,133.3z"/>
	<path class="st5" d="M644,133.5c-0.2,0.2-0.5,0.3-0.9,0.5c-0.4,0.1-0.8,0.2-1.2,0.2c-0.5,0-0.9-0.1-1.2-0.2
		c-0.3-0.1-0.6-0.4-0.8-0.6s-0.4-0.6-0.5-1s-0.2-0.8-0.2-1.3c0-1,0.2-1.8,0.7-2.3s1.1-0.8,2-0.8c0.3,0,0.5,0,0.8,0.1
		s0.5,0.2,0.7,0.3c0.2,0.2,0.4,0.4,0.5,0.7s0.2,0.7,0.2,1.2c0,0.3,0,0.6-0.1,0.9h-3.9c0,0.4,0,0.7,0.1,0.9s0.2,0.5,0.3,0.7
		c0.2,0.2,0.3,0.3,0.6,0.4c0.2,0.1,0.5,0.1,0.9,0.1c0.3,0,0.5,0,0.8-0.1s0.5-0.2,0.6-0.3L644,133.5z M642,128.7
		c-0.5,0-0.9,0.1-1.1,0.4c-0.3,0.2-0.5,0.7-0.5,1.3h3c0-0.6-0.1-1-0.3-1.3C642.7,128.8,642.4,128.7,642,128.7z"/>
	<path class="st5" d="M649,126.2c0-0.2,0.1-0.3,0.2-0.5c0.1-0.1,0.3-0.2,0.5-0.2s0.4,0.1,0.5,0.2s0.2,0.3,0.2,0.5s-0.1,0.3-0.2,0.5
		c-0.1,0.1-0.3,0.2-0.5,0.2s-0.4-0.1-0.5-0.2C649,126.5,649,126.3,649,126.2z M649.2,128h1v6h-1V128z"/>
	<path class="st5" d="M656,134v-3.4c0-0.6-0.1-1.1-0.3-1.4s-0.5-0.5-1-0.5c-0.4,0-0.8,0.1-1,0.3s-0.5,0.5-0.6,0.9v4.1h-1v-6h0.7
		l0.2,0.7l0,0c0.2-0.3,0.4-0.5,0.8-0.6s0.7-0.2,1.2-0.2c0.3,0,0.6,0,0.9,0.1c0.2,0.1,0.5,0.2,0.6,0.4c0.2,0.2,0.3,0.5,0.4,0.8
		c0.1,0.3,0.1,0.7,0.1,1.2v3.6L656,134L656,134z"/>
	<path class="st5" d="M661.4,132.3c0-0.2-0.1-0.4-0.2-0.6c-0.1-0.1-0.3-0.3-0.5-0.3s-0.4-0.2-0.7-0.3s-0.5-0.2-0.7-0.3
		s-0.4-0.3-0.5-0.5s-0.2-0.5-0.2-0.8c0-0.6,0.2-1,0.5-1.3s0.8-0.4,1.4-0.4c0.4,0,0.8,0,1.1,0.1s0.5,0.2,0.8,0.3L662,129
		c-0.2-0.1-0.4-0.2-0.7-0.2c-0.3-0.1-0.5-0.1-0.8-0.1c-0.4,0-0.6,0.1-0.8,0.2c-0.2,0.1-0.2,0.3-0.2,0.6c0,0.2,0.1,0.4,0.2,0.5
		c0.1,0.1,0.3,0.2,0.5,0.3s0.4,0.2,0.7,0.3s0.5,0.2,0.7,0.3s0.4,0.3,0.5,0.5s0.2,0.5,0.2,0.9c0,0.3,0,0.5-0.1,0.7s-0.2,0.4-0.4,0.6
		s-0.4,0.3-0.7,0.4s-0.6,0.1-0.9,0.1c-0.5,0-0.8,0-1.2-0.1s-0.6-0.2-0.8-0.3l0.3-0.8c0.2,0.1,0.4,0.2,0.7,0.3s0.6,0.1,0.9,0.1
		c0.3,0,0.6-0.1,0.9-0.2S661.4,132.7,661.4,132.3z"/>
	<path class="st5" d="M663.8,126.2c0-0.2,0.1-0.3,0.2-0.5c0.1-0.1,0.3-0.2,0.5-0.2s0.4,0.1,0.5,0.2s0.2,0.3,0.2,0.5
		s-0.1,0.3-0.2,0.5c-0.1,0.1-0.3,0.2-0.5,0.2s-0.3-0.1-0.5-0.2C663.9,126.5,663.8,126.3,663.8,126.2z M664,128h1v6h-1V128z"/>
	<path class="st5" d="M671.6,131.9c0,0.4,0,0.8,0,1.1s0,0.7,0.1,1h-0.6l-0.2-0.9l0,0c-0.2,0.3-0.4,0.5-0.7,0.7s-0.7,0.3-1.1,0.3
		c-0.8,0-1.4-0.3-1.8-0.8c-0.4-0.5-0.6-1.3-0.6-2.4c0-1,0.2-1.8,0.7-2.3s1.1-0.8,2-0.8c0.3,0,0.5,0,0.7,0s0.4,0.1,0.6,0.2v-2.5h1
		v6.4H671.6z M669.2,133.3c0.4,0,0.7-0.1,1-0.3c0.2-0.2,0.4-0.5,0.5-1v-3c-0.1-0.1-0.3-0.2-0.5-0.2s-0.4-0.1-0.7-0.1
		c-0.6,0-1,0.2-1.3,0.5c-0.3,0.4-0.5,0.9-0.5,1.7c0,0.3,0,0.6,0.1,0.9c0.1,0.3,0.1,0.5,0.3,0.7c0.1,0.2,0.3,0.4,0.5,0.5
		C668.7,133.2,668.9,133.3,669.2,133.3z"/>
	<path class="st5" d="M677.8,133.5c-0.2,0.2-0.5,0.3-0.9,0.5c-0.4,0.1-0.8,0.2-1.2,0.2c-0.5,0-0.9-0.1-1.2-0.2s-0.6-0.4-0.8-0.6
		c-0.2-0.3-0.4-0.6-0.5-1s-0.2-0.8-0.2-1.3c0-1,0.2-1.8,0.7-2.3s1.1-0.8,2-0.8c0.3,0,0.5,0,0.8,0.1s0.5,0.2,0.7,0.3s0.4,0.4,0.5,0.7
		s0.2,0.7,0.2,1.2c0,0.3,0,0.6-0.1,0.9h-3.9c0,0.4,0,0.7,0.1,0.9c0.1,0.3,0.2,0.5,0.3,0.7c0.2,0.2,0.4,0.3,0.6,0.4
		c0.2,0.1,0.5,0.1,0.9,0.1c0.3,0,0.5,0,0.8-0.1s0.5-0.2,0.6-0.3L677.8,133.5z M675.8,128.7c-0.5,0-0.8,0.1-1.1,0.4s-0.5,0.7-0.5,1.3
		h3c0-0.6-0.1-1-0.3-1.3C676.5,128.8,676.2,128.7,675.8,128.7z"/>
	<path class="st5" d="M682.7,128.4c0.3-0.2,0.7-0.3,1.1-0.4c0.4-0.1,0.8-0.1,1.3-0.1c0.4,0,0.8,0.1,1,0.2c0.3,0.1,0.4,0.3,0.6,0.4
		s0.2,0.4,0.3,0.6c0,0.2,0.1,0.4,0.1,0.6c0,0.5,0,0.9,0,1.4s0,0.9,0,1.3c0,0.3,0,0.6,0,0.8s0.1,0.5,0.1,0.7h-0.7l-0.3-0.8H686
		c-0.1,0.1-0.2,0.2-0.3,0.3s-0.2,0.2-0.4,0.3s-0.3,0.2-0.5,0.2c-0.2,0.1-0.4,0.1-0.7,0.1s-0.5,0-0.7-0.1s-0.4-0.2-0.6-0.3
		c-0.2-0.1-0.3-0.3-0.4-0.5s-0.1-0.4-0.1-0.7c0-0.4,0.1-0.6,0.2-0.9s0.3-0.4,0.6-0.6s0.6-0.2,0.9-0.3c0.4-0.1,0.8-0.1,1.2-0.1
		c0.1,0,0.2,0,0.3,0s0.2,0,0.3,0c0-0.2,0-0.5,0-0.6c0-0.4-0.1-0.7-0.3-0.9s-0.5-0.3-1-0.3c-0.1,0-0.3,0-0.4,0c-0.2,0-0.3,0-0.5,0.1
		s-0.3,0.1-0.5,0.1c-0.1,0.1-0.3,0.1-0.4,0.2L682.7,128.4z M684.4,133.2c0.2,0,0.4,0,0.6-0.1c0.2-0.1,0.3-0.1,0.5-0.2
		c0.1-0.1,0.2-0.2,0.3-0.3s0.1-0.2,0.2-0.3v-1c-0.1,0-0.2,0-0.3,0s-0.2,0-0.3,0c-0.2,0-0.5,0-0.7,0s-0.4,0.1-0.6,0.2
		c-0.2,0.1-0.3,0.2-0.4,0.3c-0.1,0.1-0.2,0.3-0.2,0.5c0,0.3,0.1,0.5,0.3,0.7C683.8,133.1,684.1,133.2,684.4,133.2z"/>
	<path class="st5" d="M692.6,134v-3.4c0-0.6-0.1-1.1-0.3-1.4c-0.2-0.3-0.5-0.5-1-0.5c-0.4,0-0.8,0.1-1,0.3c-0.3,0.2-0.5,0.5-0.6,0.9
		v4.1h-1v-6h0.7l0.2,0.7l0,0c0.2-0.3,0.5-0.5,0.8-0.6c0.3-0.2,0.7-0.2,1.2-0.2c0.3,0,0.6,0,0.9,0.1c0.2,0.1,0.5,0.2,0.6,0.4
		c0.2,0.2,0.3,0.5,0.4,0.8c0.1,0.3,0.1,0.7,0.1,1.2v3.6L692.6,134L692.6,134z"/>
	<path class="st5" d="M702.9,133.5c-0.2,0.2-0.5,0.3-0.9,0.5c-0.4,0.1-0.8,0.2-1.2,0.2c-0.5,0-0.9-0.1-1.2-0.2s-0.6-0.4-0.8-0.6
		c-0.2-0.3-0.4-0.6-0.5-1s-0.2-0.8-0.2-1.3c0-1,0.2-1.8,0.7-2.3s1.1-0.8,2-0.8c0.3,0,0.5,0,0.8,0.1s0.5,0.2,0.7,0.3s0.4,0.4,0.5,0.7
		s0.2,0.7,0.2,1.2c0,0.3,0,0.6-0.1,0.9H699c0,0.4,0,0.7,0.1,0.9c0.1,0.3,0.2,0.5,0.3,0.7c0.2,0.2,0.4,0.3,0.6,0.4
		c0.2,0.1,0.5,0.1,0.9,0.1c0.3,0,0.5,0,0.8-0.1s0.5-0.2,0.6-0.3L702.9,133.5z M700.8,128.7c-0.5,0-0.8,0.1-1.1,0.4s-0.5,0.7-0.5,1.3
		h3c0-0.6-0.1-1-0.3-1.3C701.6,128.8,701.2,128.7,700.8,128.7z"/>
	<path class="st5" d="M708.4,134v-3.4c0-0.6-0.1-1.1-0.3-1.4c-0.2-0.3-0.5-0.5-1-0.5c-0.4,0-0.8,0.1-1.1,0.3s-0.5,0.5-0.6,0.9v4.1
		h-1v-6h0.7l0.2,0.7l0,0c0.2-0.3,0.5-0.5,0.8-0.6c0.3-0.2,0.7-0.2,1.2-0.2c0.3,0,0.6,0,0.9,0.1c0.2,0.1,0.5,0.2,0.6,0.4
		c0.2,0.2,0.3,0.5,0.4,0.8c0.1,0.3,0.1,0.7,0.1,1.2v3.6L708.4,134L708.4,134z"/>
	<path class="st5" d="M715.2,133.6c-0.2,0.2-0.5,0.3-0.9,0.4s-0.7,0.1-1,0.1c-0.5,0-0.9-0.1-1.2-0.2c-0.3-0.1-0.6-0.4-0.8-0.6
		c-0.2-0.3-0.4-0.6-0.4-1c-0.1-0.4-0.1-0.8-0.1-1.3c0-1,0.2-1.8,0.7-2.3c0.4-0.5,1.1-0.8,1.9-0.8c0.4,0,0.7,0,1,0.1s0.5,0.1,0.7,0.3
		l-0.3,0.8c-0.2-0.1-0.4-0.2-0.6-0.2c-0.2-0.1-0.5-0.1-0.7-0.1c-1.1,0-1.7,0.8-1.7,2.3c0,0.3,0,0.6,0.1,0.9c0.1,0.3,0.2,0.5,0.3,0.7
		s0.3,0.4,0.6,0.5c0.2,0.1,0.5,0.2,0.8,0.2s0.5,0,0.8-0.1s0.4-0.2,0.6-0.3L715.2,133.6z"/>
	<path class="st5" d="M717.6,132.5c0,0.3,0,0.5,0.1,0.6s0.2,0.2,0.4,0.2c0.1,0,0.2,0,0.3,0s0.3-0.1,0.4-0.1l0.1,0.8
		c-0.1,0.1-0.3,0.1-0.5,0.2c-0.2,0-0.4,0.1-0.6,0.1c-0.4,0-0.7-0.1-0.9-0.3s-0.3-0.6-0.3-1v-7.2h1V132.5z"/>
	<path class="st5" d="M720,128.4c0.3-0.2,0.7-0.3,1.1-0.4c0.4-0.1,0.8-0.1,1.3-0.1c0.4,0,0.8,0.1,1,0.2c0.3,0.1,0.4,0.3,0.6,0.4
		c0.1,0.2,0.2,0.4,0.3,0.6s0.1,0.4,0.1,0.6c0,0.5,0,0.9,0,1.4s0,0.9,0,1.3c0,0.3,0,0.6,0,0.8c0,0.3,0.1,0.5,0.1,0.7h-0.7l-0.3-0.8
		h-0.1c-0.1,0.1-0.2,0.2-0.3,0.3s-0.2,0.2-0.4,0.3s-0.3,0.2-0.5,0.2s-0.4,0.1-0.7,0.1s-0.5,0-0.7-0.1s-0.4-0.2-0.6-0.3
		c-0.2-0.1-0.3-0.3-0.4-0.5s-0.1-0.4-0.1-0.7c0-0.4,0.1-0.6,0.2-0.9c0.1-0.2,0.3-0.4,0.6-0.6c0.3-0.1,0.6-0.2,0.9-0.3
		c0.4-0.1,0.8-0.1,1.2-0.1c0.1,0,0.2,0,0.3,0s0.2,0,0.3,0c0-0.2,0-0.5,0-0.6c0-0.4-0.1-0.7-0.3-0.9s-0.5-0.3-1-0.3
		c-0.1,0-0.3,0-0.4,0c-0.2,0-0.3,0-0.5,0.1s-0.3,0.1-0.5,0.1c-0.1,0.1-0.3,0.1-0.4,0.2L720,128.4z M721.7,133.2c0.2,0,0.4,0,0.6-0.1
		c0.2-0.1,0.3-0.1,0.5-0.2s0.2-0.2,0.3-0.3s0.1-0.2,0.2-0.3v-1c-0.1,0-0.2,0-0.3,0s-0.2,0-0.3,0c-0.2,0-0.5,0-0.7,0
		s-0.4,0.1-0.6,0.2c-0.2,0.1-0.3,0.2-0.4,0.3c-0.1,0.1-0.2,0.3-0.2,0.5c0,0.3,0.1,0.5,0.3,0.7C721.1,133.1,721.4,133.2,721.7,133.2z
		"/>
</g>
<g class="st4">
	<path class="st5" d="M727.7,131.5l0.3,1.1l0,0l0.3-1.2l1.3-3.5h1L728,134h-0.4l-2.6-6.1h1.1L727.7,131.5z"/>
</g>
<g class="st4">
	<path class="st5" d="M736,133.5c-0.2,0.2-0.5,0.3-0.9,0.5c-0.4,0.1-0.8,0.2-1.2,0.2c-0.5,0-0.9-0.1-1.2-0.2s-0.6-0.4-0.8-0.6
		s-0.4-0.6-0.5-1s-0.2-0.8-0.2-1.3c0-1,0.2-1.8,0.7-2.3s1.1-0.8,2-0.8c0.3,0,0.5,0,0.8,0.1s0.5,0.2,0.7,0.3c0.2,0.2,0.4,0.4,0.5,0.7
		s0.2,0.7,0.2,1.2c0,0.3,0,0.6-0.1,0.9h-3.9c0,0.4,0,0.7,0.1,0.9c0.1,0.3,0.2,0.5,0.3,0.7c0.2,0.2,0.4,0.3,0.6,0.4
		c0.2,0.1,0.5,0.1,0.9,0.1c0.3,0,0.5,0,0.8-0.1s0.5-0.2,0.6-0.3L736,133.5z M734,128.7c-0.5,0-0.9,0.1-1.1,0.4s-0.5,0.7-0.5,1.3h3
		c0-0.6-0.1-1-0.3-1.3C734.7,128.8,734.4,128.7,734,128.7z"/>
</g>
<linearGradient id="SVGID_00000105426411373650720900000014471397145958355890_" gradientUnits="userSpaceOnUse" x1="246" y1="-496.3999" x2="370.8" y2="-496.3999" gradientTransform="matrix(1 0 0 -1 0 -367.9999)">
	<stop  offset="0" style="stop-color:#990066"/>
	<stop  offset="0.19" style="stop-color:#780066"/>
	<stop  offset="0.4" style="stop-color:#5A0066"/>
	<stop  offset="0.61" style="stop-color:#440066"/>
	<stop  offset="0.81" style="stop-color:#370066"/>
	<stop  offset="1" style="stop-color:#330066"/>
</linearGradient>
<path style="fill:url(#SVGID_00000105426411373650720900000014471397145958355890_);stroke:#FFCC00;stroke-width:2;stroke-miterlimit:10;" d="
	M251,103.4h114.8c2.8,0,5,2.2,5,5v40c0,2.8-2.2,5-5,5H251c-2.8,0-5-2.2-5-5v-40C246,105.7,248.3,103.4,251,103.4z"/>
<path class="st7" d="M332.8,129.1h-10.2c-0.6-2.5-3.2-4.1-5.7-3.4c-2.5,0.6-4.1,3.2-3.4,5.7c0.6,2.5,3.2,4.1,5.7,3.4
	c1.7-0.4,3-1.7,3.4-3.4h3l1.4,1.4l1.4-1.4h0.2l0.9,0.9l0.8-0.8l1.3,1.3l1.5-1.4l1.1-1L332.8,129.1z M316.3,131.5
	c-0.7,0-1.3-0.5-1.3-1.2s0.5-1.3,1.2-1.3s1.3,0.5,1.3,1.2l0,0C317.5,130.9,317,131.5,316.3,131.5z"/>
<path class="st8" d="M332.8,122.8h-10.2c-0.6-2.5-3.2-4.1-5.7-3.4c-2.5,0.6-4.1,3.2-3.4,5.7c0.6,2.5,3.2,4.1,5.7,3.4
	c1.7-0.4,3-1.7,3.4-3.4h3l1.4,1.4l1.4-1.4h0.2l0.9,0.9l0.8-0.8l1.3,1.3l1.5-1.5l1.1-1L332.8,122.8z M316.3,125.2
	c-0.7,0-1.3-0.5-1.3-1.2s0.5-1.3,1.2-1.3s1.3,0.5,1.3,1.2l0,0C317.5,124.6,317,125.2,316.3,125.2z"/>
<path class="st9" d="M332.8,116.3h-10.2c-0.6-2.5-3.2-4.1-5.7-3.4c-2.5,0.6-4.1,3.2-3.4,5.7c0.6,2.5,3.2,4.1,5.7,3.4
	c1.7-0.4,3-1.7,3.4-3.4h3l1.4,1.4l1.4-1.4h0.2l0.9,0.9l0.8-0.8l1.3,1.3l1.5-1.5l1.1-1L332.8,116.3z M316.3,118.7
	c-0.7,0.1-1.3-0.4-1.4-1.1s0.4-1.3,1.1-1.4c0.1,0,0.1,0,0.2,0c0.7,0.1,1.2,0.7,1.1,1.4C317.3,118.1,316.9,118.6,316.3,118.7z"/>
<g id="Scone_logo_white">
	<g>
		<g>
			<g>
				<defs>
					<rect id="SVGID_00000117655409141146678600000005924802514243955883_" x="290.2" y="140.4" width="36.3" height="7.1"/>
				</defs>
				<clipPath id="SVGID_00000053508431195239544130000017654183484611642303_">
					<use xlink:href="#SVGID_00000117655409141146678600000005924802514243955883_"  style="overflow:visible;"/>
				</clipPath>
				<g style="clip-path:url(#SVGID_00000053508431195239544130000017654183484611642303_);">
					<g>
						<g>
							<g>
								<defs>
									<rect id="SVGID_00000078010361972017343300000015206021870990647721_" x="290.2" y="140.4" width="36.3" height="7.1"/>
								</defs>
								<clipPath id="SVGID_00000084492575784581664010000014649227217202112654_">
									<use xlink:href="#SVGID_00000078010361972017343300000015206021870990647721_"  style="overflow:visible;"/>
								</clipPath>
								<g style="clip-path:url(#SVGID_00000084492575784581664010000014649227217202112654_);">
									<path class="st12" d="M295,142.2h-0.8c-0.2,0-0.3,0.1-0.3,0.3v0.8c0,0.2,0.1,0.3,0.3,0.3h0.8c0.2,0,0.3-0.1,0.3-0.3v-0.8
										C295.3,142.3,295.2,142.2,295,142.2 M292.4,143.5h0.8c0.2,0,0.3-0.1,0.3-0.3v-0.8c0-0.2-0.1-0.3-0.3-0.3h-0.8
										c-0.2,0-0.3,0.1-0.3,0.3v0.8C292.1,143.4,292.2,143.5,292.4,143.5 M291.5,143.2v-0.8c0-0.2-0.1-0.3-0.3-0.3h-0.8
										c-0.2,0-0.3,0.1-0.3,0.3v0.8c0,0.2,0.1,0.3,0.3,0.3h0.8C291.4,143.5,291.5,143.4,291.5,143.2 M295.1,144.1
										c-0.1,0-0.2,0.1-0.2,0.2l0,0v0.9c0,0.1,0.1,0.2,0.2,0.2s0.2-0.1,0.2-0.2v-0.9C295.3,144.2,295.2,144.1,295.1,144.1
										L295.1,144.1 M293,144.4v0.8c0,0.2,0.1,0.3,0.3,0.3l0,0h0.7c0.2,0,0.3-0.1,0.3-0.3l0,0v-0.8c0-0.2-0.1-0.3-0.3-0.3l0,0
										h-0.8C293.1,144.1,292.9,144.2,293,144.4L293,144.4 M292.4,145.1v-0.8c0-0.2-0.1-0.3-0.3-0.3l0,0h-0.8
										c-0.2,0-0.3,0.1-0.3,0.3l0,0v0.8c0,0.2,0.1,0.3,0.3,0.3l0,0h0.8C292.3,145.4,292.4,145.3,292.4,145.1L292.4,145.1 M295,146
										h-0.8c-0.2,0-0.3,0.1-0.3,0.3l0,0v0.7c0,0.2,0.1,0.3,0.3,0.3l0,0h0.8c0.2,0,0.3-0.1,0.3-0.3l0,0v-0.8
										C295.3,146.1,295.1,146,295,146 M293,146h-0.8c-0.2,0-0.3,0.1-0.3,0.3l0,0v0.7c0,0.2,0.1,0.3,0.3,0.3l0,0h0.8
										c0.2,0,0.3-0.1,0.3-0.3l0,0v-0.8C293.3,146.1,293.2,145.9,293,146C293,145.9,293,145.9,293,146"/>
									<path class="st12" d="M295.9,141.9c0.3,0.3,0.8,0.4,1.2,0.4c0,0,0,0,0,0.1v2.1c0,0.8-1,1.3-1.2,1.4l0,0V141.9L295.9,141.9"
										/>
									<path class="st12" d="M293.6,141.8c1.6-0.1,1.9-0.6,1.9-0.6s0,0,0.1,0h0.1c0,0,0.3,0.6,1.9,0.6c0,0,0.1,0,0.1,0.1v2.8
										c0,0.9-1.7,1.9-1.7,1.9s0,0,0,0.1v0.7h0.1c0.6-0.3,2.3-1.3,2.3-2.5v-3.5c0-0.1-0.1-0.1-0.2-0.1c-2,0-2.4-0.8-2.4-0.8h-0.1
										h-0.1c0,0-0.3,0.8-2.4,0.8c-0.1,0-0.1,0-0.1,0.1v0.4c0,0,0,0.1,0.1,0.1L293.6,141.8"/>
									<path class="st13" d="M299.8,146.3l0.8-0.3c0.2,0.4,0.6,0.6,1.1,0.6c0.2,0,0.4,0,0.6-0.1s0.3-0.3,0.3-0.4
										c0-0.4-0.6-0.7-1-0.9l0,0c-0.4-0.1-0.7-0.3-1-0.5s-0.5-0.6-0.5-1s0.2-0.8,0.5-1c0.3-0.3,0.8-0.4,1.2-0.4
										c0.7,0,1.3,0.3,1.6,0.9l-0.9,0.3c-0.1-0.1-0.2-0.2-0.3-0.3c-0.1-0.1-0.3-0.1-0.5-0.1c-0.5,0-0.8,0.3-0.8,0.6
										c0,0.2,0.1,0.4,0.3,0.5c0.2,0.1,0.5,0.3,0.7,0.4h0.1c0.6,0.3,1.4,0.6,1.4,1.4c0,0.4-0.2,0.8-0.6,1
										c-0.4,0.3-0.9,0.4-1.3,0.4C300.9,147.3,300.2,146.9,299.8,146.3"/>
									<path class="st13" d="M307.1,147.4c-0.3,0-0.7-0.1-1-0.2c-0.3-0.1-0.6-0.3-0.8-0.6c-0.2-0.2-0.4-0.5-0.5-0.8
										c-0.3-0.6-0.3-1.4,0-2c0.1-0.3,0.3-0.6,0.5-0.8s0.5-0.4,0.8-0.6c0.3-0.1,0.7-0.2,1-0.2c0.4,0,0.8,0.1,1.2,0.3
										c0.4,0.2,0.7,0.4,0.9,0.8l-0.7,0.5c-0.3-0.4-0.8-0.7-1.4-0.7c-1,0.1-1.7,0.9-1.6,1.9c0.1,0.9,0.8,1.5,1.6,1.6
										c0.3,0,0.6-0.1,0.9-0.3s0.5-0.4,0.6-0.6l0.7,0.4c-0.2,0.4-0.5,0.7-0.9,0.9C308,147.2,307.5,147.4,307.1,147.4"/>
									<path class="st13" d="M312.8,147.4c-0.3,0-0.7-0.1-1-0.2c-0.3-0.1-0.6-0.3-0.8-0.6c-0.2-0.2-0.4-0.5-0.6-0.8
										c-0.1-0.3-0.2-0.7-0.2-1s0.1-0.7,0.2-1s0.3-0.6,0.6-0.8c0.2-0.2,0.5-0.4,0.8-0.6c1-0.4,2.1-0.2,2.8,0.6
										c0.2,0.2,0.4,0.5,0.5,0.8c0.4,1,0.2,2.1-0.5,2.8c-0.2,0.2-0.5,0.4-0.8,0.6C313.5,147.3,313.1,147.4,312.8,147.4 M312.8,143
										c-0.5,0-0.9,0.2-1.2,0.5c-0.3,0.3-0.5,0.8-0.5,1.2c0,0.5,0.2,0.9,0.5,1.2c0.7,0.7,1.7,0.7,2.4,0l0,0c0.7-0.7,0.7-1.8,0-2.4
										l0,0C313.7,143.2,313.2,143,312.8,143"/>
									<polygon class="st13" points="321.2,142.2 321.2,147.5 317.6,144.1 317.6,147.3 316.7,147.3 316.7,142 320.3,145.4 
										320.3,142.2 									"/>
									<polygon class="st13" points="323.7,143 323.7,144.3 326.2,144.3 326.2,145.1 323.7,145.1 323.7,146.5 326.5,146.5 
										326.5,147.3 322.8,147.3 322.8,142.2 326.5,142.2 326.5,143 									"/>
								</g>
							</g>
						</g>
					</g>
				</g>
			</g>
		</g>
	</g>
</g>
<linearGradient id="SVGID_00000169526319435287891870000005306127262447496366_" gradientUnits="userSpaceOnUse" x1="2.8" y1="-491.5999" x2="156.6" y2="-491.5999" gradientTransform="matrix(1 0 0 -1 0 -367.9999)">
	<stop  offset="0" style="stop-color:#990066"/>
	<stop  offset="0.19" style="stop-color:#780066"/>
	<stop  offset="0.4" style="stop-color:#5A0066"/>
	<stop  offset="0.61" style="stop-color:#440066"/>
	<stop  offset="0.81" style="stop-color:#370066"/>
	<stop  offset="1" style="stop-color:#330066"/>
</linearGradient>
<path style="fill:url(#SVGID_00000169526319435287891870000005306127262447496366_);stroke:#FFCC00;stroke-width:2;stroke-miterlimit:10;" d="
	M7.8,43.6h143.8c2.8,0,5,2.2,5,5v150c0,2.8-2.2,5-5,5H7.8c-2.8,0-5-2.2-5-5v-150C2.8,45.8,5,43.6,7.8,43.6z"/>
<linearGradient id="SVGID_00000083089124099739221240000004462973749379526277_" gradientUnits="userSpaceOnUse" x1="16.1" y1="-546.8499" x2="144.2" y2="-546.8499" gradientTransform="matrix(1 0 0 -1 0 -367.9999)">
	<stop  offset="0" style="stop-color:#990066"/>
	<stop  offset="0.19" style="stop-color:#780066"/>
	<stop  offset="0.4" style="stop-color:#5A0066"/>
	<stop  offset="0.61" style="stop-color:#440066"/>
	<stop  offset="0.81" style="stop-color:#370066"/>
	<stop  offset="1" style="stop-color:#330066"/>
</linearGradient>
<path style="fill:url(#SVGID_00000083089124099739221240000004462973749379526277_);stroke:#FFCC00;stroke-width:2;stroke-miterlimit:10;" d="
	M21.1,164.6h118.1c2.8,0,5,2.2,5,5v18.5c0,2.8-2.2,5-5,5H21.1c-2.8,0-5-2.2-5-5v-18.5C16.1,166.8,18.3,164.6,21.1,164.6z"/>
<g class="st4">
	<path class="st5" d="M389.3,106c0.3-0.2,0.6-0.3,1-0.4s0.8-0.1,1.2-0.1c0.4,0,0.7,0.1,0.9,0.2c0.2,0.1,0.4,0.2,0.5,0.4
		s0.2,0.3,0.2,0.5s0.1,0.4,0.1,0.6c0,0.4,0,0.9,0,1.3s0,0.8,0,1.2c0,0.3,0,0.5,0,0.8c0,0.2,0.1,0.5,0.1,0.7h-0.6l-0.2-0.8h-0.1
		c-0.1,0.1-0.1,0.2-0.2,0.3c-0.1,0.1-0.2,0.2-0.4,0.3s-0.3,0.1-0.5,0.2s-0.4,0.1-0.6,0.1s-0.5,0-0.7-0.1s-0.4-0.2-0.5-0.3
		c-0.1-0.1-0.3-0.3-0.3-0.5c-0.1-0.2-0.1-0.4-0.1-0.6c0-0.3,0.1-0.6,0.2-0.8c0.1-0.2,0.3-0.4,0.6-0.5c0.2-0.1,0.5-0.2,0.9-0.3
		c0.3-0.1,0.7-0.1,1.1-0.1c0.1,0,0.2,0,0.3,0c0.1,0,0.2,0,0.3,0c0-0.2,0-0.4,0-0.6c0-0.4-0.1-0.7-0.2-0.8c-0.2-0.2-0.5-0.2-0.9-0.2
		c-0.1,0-0.3,0-0.4,0s-0.3,0-0.4,0.1c-0.2,0-0.3,0.1-0.4,0.1s-0.3,0.1-0.4,0.2L389.3,106z M390.8,110.4c0.2,0,0.4,0,0.5-0.1
		c0.2-0.1,0.3-0.1,0.4-0.2s0.2-0.2,0.3-0.3s0.1-0.2,0.2-0.3v-0.9c-0.1,0-0.2,0-0.3,0c-0.1,0-0.2,0-0.3,0c-0.2,0-0.4,0-0.7,0
		s-0.4,0.1-0.6,0.1c-0.2,0.1-0.3,0.2-0.4,0.3s-0.1,0.3-0.1,0.5c0,0.3,0.1,0.5,0.3,0.6S390.6,110.4,390.8,110.4z"/>
	<path class="st5" d="M394.1,105.6h0.9v-1.1l0.9-0.3v1.3h1.5v0.8h-1.5v3c0,0.4,0,0.7,0.1,0.8c0.1,0.2,0.3,0.2,0.5,0.2s0.4,0,0.5-0.1
		s0.3-0.1,0.4-0.2l0.2,0.7c-0.2,0.1-0.4,0.2-0.6,0.2c-0.2,0.1-0.5,0.1-0.8,0.1c-0.4,0-0.8-0.1-0.9-0.4c-0.2-0.3-0.3-0.7-0.3-1.3
		v-3.2h-0.9L394.1,105.6L394.1,105.6z"/>
</g>
<g class="st4">
	<path class="st5" d="M397.8,105.6h0.9v-1.1l0.9-0.3v1.3h1.5v0.8h-1.5v3c0,0.4,0,0.7,0.1,0.8c0.1,0.2,0.3,0.2,0.5,0.2s0.4,0,0.5-0.1
		c0.1,0,0.3-0.1,0.4-0.2l0.2,0.7c-0.2,0.1-0.4,0.2-0.6,0.2s-0.5,0.1-0.8,0.1c-0.4,0-0.8-0.1-0.9-0.4c-0.2-0.3-0.3-0.7-0.3-1.3v-3.2
		h-0.9L397.8,105.6L397.8,105.6z"/>
</g>
<g class="st4">
	<path class="st5" d="M406.2,110.7c-0.2,0.2-0.5,0.3-0.8,0.4s-0.7,0.2-1.1,0.2s-0.8-0.1-1.1-0.2c-0.3-0.1-0.6-0.3-0.8-0.6
		s-0.3-0.6-0.4-0.9c-0.1-0.4-0.1-0.7-0.1-1.2c0-0.9,0.2-1.7,0.6-2.1s1-0.7,1.8-0.7c0.2,0,0.5,0,0.7,0.1s0.5,0.2,0.7,0.3
		c0.2,0.2,0.4,0.4,0.5,0.7s0.2,0.7,0.2,1.1c0,0.2,0,0.5-0.1,0.8h-3.5c0,0.3,0,0.6,0.1,0.9c0.1,0.2,0.2,0.5,0.3,0.6
		c0.1,0.2,0.3,0.3,0.5,0.4s0.5,0.1,0.8,0.1c0.2,0,0.5,0,0.7-0.1s0.4-0.2,0.6-0.3L406.2,110.7z M404.3,106.2c-0.4,0-0.8,0.1-1,0.3
		c-0.3,0.2-0.4,0.6-0.5,1.2h2.7c0-0.6-0.1-0.9-0.3-1.2S404.7,106.2,404.3,106.2z"/>
	<path class="st5" d="M410.2,109.6c0-0.2-0.1-0.4-0.2-0.5s-0.3-0.2-0.5-0.3c-0.2-0.1-0.4-0.2-0.6-0.2c-0.2-0.1-0.4-0.2-0.6-0.3
		s-0.4-0.3-0.5-0.5s-0.2-0.4-0.2-0.8c0-0.5,0.2-0.9,0.5-1.2c0.3-0.2,0.7-0.4,1.3-0.4c0.4,0,0.7,0,1,0.1s0.5,0.2,0.7,0.2l-0.2,0.7
		c-0.2-0.1-0.4-0.2-0.6-0.2s-0.5-0.1-0.8-0.1s-0.6,0.1-0.7,0.2c-0.2,0.1-0.2,0.3-0.2,0.6c0,0.2,0.1,0.3,0.2,0.4s0.3,0.2,0.5,0.3
		s0.4,0.2,0.6,0.2c0.2,0.1,0.4,0.2,0.6,0.3s0.4,0.3,0.5,0.5s0.2,0.5,0.2,0.8c0,0.2,0,0.5-0.1,0.7s-0.2,0.4-0.4,0.5
		c-0.2,0.1-0.4,0.3-0.6,0.3c-0.2,0.1-0.5,0.1-0.8,0.1c-0.4,0-0.8,0-1.1-0.1c-0.3-0.1-0.5-0.2-0.7-0.3l0.3-0.7
		c0.2,0.1,0.4,0.2,0.7,0.3c0.3,0.1,0.5,0.1,0.8,0.1s0.6-0.1,0.8-0.2C410.1,110.2,410.2,109.9,410.2,109.6z"/>
	<path class="st5" d="M411.6,105.6h0.9v-1.1l0.9-0.3v1.3h1.5v0.8h-1.5v3c0,0.4,0,0.7,0.1,0.8c0.1,0.2,0.3,0.2,0.5,0.2s0.4,0,0.5-0.1
		c0.1,0,0.3-0.1,0.4-0.2l0.2,0.7c-0.2,0.1-0.4,0.2-0.6,0.2c-0.2,0.1-0.5,0.1-0.8,0.1c-0.4,0-0.8-0.1-0.9-0.4
		c-0.2-0.3-0.3-0.7-0.3-1.3v-3.2h-0.9L411.6,105.6L411.6,105.6z"/>
	<path class="st5" d="M418.5,109.6c0-0.2-0.1-0.4-0.2-0.5s-0.3-0.2-0.5-0.3c-0.2-0.1-0.4-0.2-0.6-0.2c-0.2-0.1-0.4-0.2-0.6-0.3
		c-0.2-0.1-0.4-0.3-0.5-0.5s-0.2-0.4-0.2-0.8c0-0.5,0.1-0.9,0.5-1.2c0.3-0.2,0.7-0.4,1.3-0.4c0.4,0,0.7,0,1,0.1s0.5,0.2,0.7,0.2
		l-0.2,0.7c-0.2-0.1-0.4-0.2-0.6-0.2s-0.5-0.1-0.8-0.1s-0.6,0.1-0.7,0.2c-0.2,0.1-0.2,0.3-0.2,0.6c0,0.2,0.1,0.3,0.2,0.4
		s0.3,0.2,0.5,0.3s0.4,0.2,0.6,0.2c0.2,0.1,0.4,0.2,0.6,0.3s0.4,0.3,0.5,0.5s0.2,0.5,0.2,0.8c0,0.2,0,0.5-0.1,0.7s-0.2,0.4-0.4,0.5
		s-0.4,0.3-0.6,0.3c-0.2,0.1-0.5,0.1-0.8,0.1c-0.4,0-0.8,0-1.1-0.1c-0.3-0.1-0.5-0.2-0.7-0.3l0.3-0.7c0.2,0.1,0.4,0.2,0.7,0.3
		s0.5,0.1,0.8,0.1s0.6-0.1,0.8-0.2C418.4,110.2,418.5,109.9,418.5,109.6z"/>
</g>
<g class="st4">
	<path class="st5" d="M389.8,129.1c0-0.3,0.1-0.6,0.2-0.8c0.1-0.3,0.2-0.5,0.4-0.7c0.2-0.2,0.4-0.4,0.6-0.6s0.5-0.4,0.7-0.5
		c-0.2-0.3-0.3-0.5-0.5-0.8c-0.1-0.3-0.2-0.5-0.2-0.9c0-0.2,0-0.3,0.1-0.5s0.2-0.3,0.3-0.5c0.1-0.1,0.3-0.2,0.5-0.3s0.4-0.1,0.7-0.1
		c0.3,0,0.6,0,0.8,0.1s0.4,0.2,0.5,0.3c0.1,0.1,0.2,0.3,0.3,0.4c0.1,0.2,0.1,0.3,0.1,0.5c0,0.3-0.1,0.6-0.4,1s-0.6,0.6-1.1,0.9
		c0.1,0.2,0.3,0.4,0.4,0.7c0.2,0.2,0.3,0.4,0.5,0.7c0.2,0.2,0.4,0.4,0.5,0.7c0.2,0.2,0.4,0.4,0.5,0.6c0.1-0.1,0.2-0.2,0.2-0.3
		s0.2-0.3,0.2-0.4s0.1-0.3,0.2-0.5s0.1-0.3,0.2-0.5l0.7,0.3c0,0.1-0.1,0.3-0.2,0.4c-0.1,0.2-0.2,0.3-0.3,0.5
		c-0.1,0.2-0.2,0.4-0.3,0.5s-0.2,0.3-0.3,0.4c0.2,0.1,0.3,0.3,0.4,0.4s0.2,0.2,0.3,0.3c0.1,0.1,0.2,0.1,0.3,0.2
		c0.1,0.1,0.2,0.1,0.3,0.2l-0.5,0.6c-0.4-0.2-0.8-0.5-1.3-1c-0.1,0.1-0.3,0.3-0.4,0.4s-0.3,0.2-0.5,0.3s-0.4,0.2-0.7,0.2
		s-0.5,0.1-0.8,0.1s-0.7,0-1-0.1s-0.6-0.2-0.8-0.4c-0.2-0.2-0.4-0.4-0.5-0.7S389.8,129.4,389.8,129.1z M394.2,129.7
		c-0.2-0.2-0.4-0.4-0.6-0.7s-0.4-0.5-0.6-0.7s-0.4-0.5-0.5-0.7c-0.2-0.2-0.3-0.4-0.4-0.6c-0.2,0.1-0.4,0.3-0.6,0.5s-0.3,0.3-0.4,0.5
		c-0.1,0.2-0.2,0.4-0.3,0.6c-0.1,0.2-0.1,0.4-0.1,0.6s0,0.4,0.1,0.6s0.2,0.3,0.4,0.5s0.4,0.2,0.6,0.3s0.4,0.1,0.7,0.1
		c0.2,0,0.4,0,0.5-0.1c0.2,0,0.3-0.1,0.5-0.2s0.3-0.2,0.4-0.3C394,129.9,394.1,129.8,394.2,129.7z M391.9,124.7c0,0.2,0,0.4,0.1,0.7
		c0.1,0.2,0.2,0.4,0.4,0.6c0.4-0.2,0.7-0.5,0.8-0.7c0.1-0.2,0.2-0.4,0.2-0.5c0-0.2-0.1-0.4-0.2-0.6c-0.1-0.1-0.3-0.2-0.6-0.2
		c-0.3,0-0.5,0.1-0.6,0.2C392,124.3,391.9,124.5,391.9,124.7z"/>
</g>
<g class="st4">
	<path class="st5" d="M402.6,128.6h-0.5v2.5h-0.9v-7.7h0.9v4.7l0.5-0.2l1.7-2.3h1l-1.7,2.2l-0.5,0.4l0.5,0.4l1.8,2.5h-1.1
		L402.6,128.6z"/>
</g>
<g class="st4">
	<path class="st5" d="M410.4,130.7c-0.2,0.2-0.5,0.3-0.8,0.4c-0.3,0.1-0.7,0.2-1.1,0.2s-0.8-0.1-1.1-0.2c-0.3-0.1-0.6-0.3-0.8-0.6
		s-0.3-0.6-0.4-0.9c-0.1-0.4-0.1-0.7-0.1-1.2c0-0.9,0.2-1.7,0.6-2.1s1-0.7,1.8-0.7c0.2,0,0.5,0,0.7,0.1s0.5,0.2,0.7,0.3
		c0.2,0.2,0.4,0.4,0.5,0.7s0.2,0.7,0.2,1.1c0,0.2,0,0.5-0.1,0.8H407c0,0.3,0,0.6,0.1,0.9c0.1,0.2,0.2,0.5,0.3,0.6
		c0.1,0.2,0.3,0.3,0.5,0.4s0.5,0.1,0.8,0.1c0.2,0,0.5,0,0.7-0.1s0.4-0.2,0.6-0.3L410.4,130.7z M408.5,126.2c-0.4,0-0.8,0.1-1,0.3
		c-0.3,0.2-0.4,0.6-0.5,1.2h2.7c0-0.6-0.1-0.9-0.3-1.2S408.9,126.2,408.5,126.2z"/>
</g>
<g class="st4">
	<path class="st5" d="M413.4,129.2l0.3,1.1h0.1l0.2-1.1l1.1-3.6h0.9l-1.6,4.9c-0.1,0.4-0.2,0.7-0.4,1c-0.1,0.3-0.3,0.6-0.4,0.9
		c-0.1,0.3-0.3,0.5-0.5,0.6c-0.2,0.2-0.4,0.2-0.6,0.2c-0.3,0-0.5,0-0.6-0.1l0.2-0.8c0.1,0,0.2,0.1,0.3,0.1c0.2,0,0.4-0.1,0.6-0.3
		s0.3-0.6,0.5-1.1l-2.2-5.5h1L413.4,129.2z"/>
	<path class="st5" d="M419.3,129.6c0-0.2-0.1-0.4-0.2-0.5s-0.3-0.2-0.5-0.3s-0.4-0.2-0.6-0.2c-0.2-0.1-0.4-0.2-0.6-0.3
		s-0.4-0.3-0.5-0.5s-0.2-0.4-0.2-0.8c0-0.5,0.2-0.9,0.5-1.2c0.3-0.2,0.7-0.4,1.3-0.4c0.4,0,0.7,0,1,0.1s0.5,0.2,0.7,0.2l-0.2,0.7
		c-0.2-0.1-0.4-0.2-0.6-0.2s-0.5-0.1-0.8-0.1s-0.6,0.1-0.7,0.2c-0.2,0.1-0.2,0.3-0.2,0.6c0,0.2,0.1,0.3,0.2,0.4s0.3,0.2,0.5,0.3
		s0.4,0.2,0.6,0.2c0.2,0.1,0.4,0.2,0.6,0.3c0.2,0.1,0.4,0.3,0.5,0.5s0.2,0.5,0.2,0.8c0,0.2,0,0.5-0.1,0.7s-0.2,0.4-0.4,0.5
		c-0.2,0.1-0.4,0.3-0.6,0.3c-0.2,0.1-0.5,0.1-0.8,0.1c-0.4,0-0.8,0-1.1-0.1c-0.3-0.1-0.5-0.2-0.7-0.3l0.3-0.7
		c0.2,0.1,0.4,0.2,0.7,0.3c0.3,0.1,0.5,0.1,0.8,0.1s0.6-0.1,0.8-0.2C419.2,130.2,419.3,129.9,419.3,129.6z"/>
</g>
<g class="st4">
	<path class="st5" d="M190.9,112.8c0.3-0.2,0.6-0.3,1-0.4s0.8-0.1,1.2-0.1s0.7,0.1,0.9,0.2s0.4,0.2,0.5,0.4s0.2,0.3,0.2,0.5
		s0.1,0.4,0.1,0.6c0,0.4,0,0.9,0,1.3s0,0.8,0,1.2c0,0.3,0,0.5,0,0.8c0,0.2,0.1,0.5,0.1,0.7h-0.6l-0.2-0.8H194
		c-0.1,0.1-0.1,0.2-0.2,0.3c-0.1,0.1-0.2,0.2-0.4,0.3s-0.3,0.1-0.5,0.2s-0.4,0.1-0.6,0.1c-0.2,0-0.5,0-0.7-0.1s-0.4-0.2-0.5-0.3
		c-0.1-0.1-0.3-0.3-0.3-0.5c-0.1-0.2-0.1-0.4-0.1-0.6c0-0.3,0.1-0.6,0.2-0.8c0.1-0.2,0.3-0.4,0.6-0.5c0.2-0.1,0.5-0.2,0.9-0.3
		c0.3-0.1,0.7-0.1,1.1-0.1c0.1,0,0.2,0,0.3,0s0.2,0,0.3,0c0-0.2,0-0.4,0-0.6c0-0.4-0.1-0.7-0.2-0.8c-0.2-0.2-0.5-0.2-0.9-0.2
		c-0.1,0-0.3,0-0.4,0c-0.1,0-0.3,0-0.4,0.1c-0.2,0-0.3,0.1-0.4,0.1s-0.3,0.1-0.4,0.2L190.9,112.8z M192.5,117.2c0.2,0,0.4,0,0.6-0.1
		c0.2-0.1,0.3-0.1,0.4-0.2c0.1-0.1,0.2-0.2,0.3-0.3s0.1-0.2,0.2-0.3v-0.9c-0.1,0-0.2,0-0.3,0s-0.2,0-0.3,0c-0.2,0-0.4,0-0.7,0
		s-0.4,0.1-0.6,0.1c-0.2,0.1-0.3,0.2-0.4,0.3c-0.1,0.1-0.1,0.3-0.1,0.5c0,0.3,0.1,0.5,0.3,0.6C192,117.1,192.2,117.2,192.5,117.2z"
		/>
	<path class="st5" d="M195.7,112.4h0.9v-1.1l0.9-0.3v1.3h1.5v0.8h-1.5v3c0,0.4,0,0.7,0.1,0.8c0.1,0.2,0.3,0.2,0.5,0.2s0.4,0,0.5-0.1
		c0.1,0,0.3-0.1,0.4-0.2l0.2,0.7c-0.2,0.1-0.4,0.2-0.6,0.2s-0.5,0.1-0.8,0.1c-0.4,0-0.8-0.1-0.9-0.4c-0.2-0.3-0.3-0.7-0.3-1.3v-3.2
		h-0.9L195.7,112.4L195.7,112.4z"/>
</g>
<g class="st4">
	<path class="st5" d="M199.5,112.4h0.9v-1.1l0.9-0.3v1.3h1.5v0.8h-1.5v3c0,0.4,0,0.7,0.1,0.8c0.1,0.2,0.3,0.2,0.5,0.2s0.4,0,0.5-0.1
		c0.1,0,0.3-0.1,0.4-0.2l0.2,0.7c-0.2,0.1-0.4,0.2-0.6,0.2s-0.5,0.1-0.8,0.1c-0.4,0-0.8-0.1-0.9-0.4c-0.2-0.3-0.3-0.7-0.3-1.3v-3.2
		h-0.9L199.5,112.4L199.5,112.4z"/>
</g>
<g class="st4">
	<path class="st5" d="M207.8,117.4c-0.2,0.2-0.5,0.3-0.8,0.4s-0.7,0.2-1.1,0.2c-0.4,0-0.8-0.1-1.1-0.2s-0.6-0.3-0.8-0.6
		c-0.2-0.3-0.3-0.6-0.4-0.9c-0.1-0.4-0.1-0.7-0.1-1.2c0-0.9,0.2-1.7,0.6-2.1s1-0.7,1.8-0.7c0.2,0,0.5,0,0.7,0.1s0.5,0.2,0.7,0.3
		c0.2,0.2,0.4,0.4,0.5,0.7c0.1,0.3,0.2,0.7,0.2,1.1c0,0.2,0,0.5-0.1,0.8h-3.5c0,0.3,0,0.6,0.1,0.9c0.1,0.2,0.2,0.5,0.3,0.6
		c0.1,0.2,0.3,0.3,0.5,0.4s0.5,0.1,0.8,0.1c0.2,0,0.5,0,0.7-0.1s0.4-0.2,0.6-0.3L207.8,117.4z M205.9,113c-0.4,0-0.8,0.1-1,0.3
		c-0.3,0.2-0.4,0.6-0.5,1.2h2.7c0-0.6-0.1-0.9-0.3-1.2C206.6,113.1,206.3,113,205.9,113z"/>
	<path class="st5" d="M211.8,116.4c0-0.2-0.1-0.4-0.2-0.5c-0.1-0.1-0.3-0.2-0.5-0.3c-0.2-0.1-0.4-0.2-0.6-0.2s-0.4-0.2-0.6-0.3
		c-0.2-0.1-0.4-0.3-0.5-0.5s-0.2-0.4-0.2-0.8c0-0.5,0.1-0.9,0.5-1.2c0.3-0.2,0.7-0.4,1.3-0.4c0.4,0,0.7,0,1,0.1s0.5,0.2,0.7,0.2
		l-0.2,0.7c-0.2-0.1-0.4-0.2-0.6-0.2s-0.5-0.1-0.8-0.1s-0.6,0.1-0.7,0.2c-0.2,0.1-0.2,0.3-0.2,0.6c0,0.2,0.1,0.3,0.2,0.4
		c0.1,0.1,0.3,0.2,0.5,0.3s0.4,0.2,0.6,0.2c0.2,0.1,0.4,0.2,0.6,0.3s0.4,0.3,0.5,0.5s0.2,0.5,0.2,0.8c0,0.2,0,0.5-0.1,0.7
		s-0.2,0.4-0.4,0.5s-0.4,0.3-0.6,0.3c-0.2,0.1-0.5,0.1-0.8,0.1c-0.4,0-0.8,0-1.1-0.1s-0.5-0.2-0.7-0.3l0.3-0.7
		c0.2,0.1,0.4,0.2,0.7,0.3c0.3,0.1,0.5,0.1,0.8,0.1s0.6-0.1,0.8-0.2C211.7,116.9,211.8,116.7,211.8,116.4z"/>
	<path class="st5" d="M213.3,112.4h0.9v-1.1l0.9-0.3v1.3h1.5v0.8H215v3c0,0.4,0,0.7,0.1,0.8c0.1,0.2,0.3,0.2,0.5,0.2s0.4,0,0.5-0.1
		c0.1,0,0.3-0.1,0.4-0.2l0.2,0.7c-0.2,0.1-0.4,0.2-0.6,0.2s-0.5,0.1-0.8,0.1c-0.4,0-0.8-0.1-0.9-0.4c-0.2-0.3-0.3-0.7-0.3-1.3v-3.2
		h-0.9v-0.5H213.3z"/>
	<path class="st5" d="M220.2,116.4c0-0.2-0.1-0.4-0.2-0.5c-0.1-0.1-0.3-0.2-0.5-0.3c-0.2-0.1-0.4-0.2-0.6-0.2s-0.4-0.2-0.6-0.3
		c-0.2-0.1-0.4-0.3-0.5-0.5s-0.2-0.4-0.2-0.8c0-0.5,0.1-0.9,0.5-1.2c0.3-0.2,0.7-0.4,1.3-0.4c0.4,0,0.7,0,1,0.1s0.5,0.2,0.7,0.2
		l-0.2,0.7c-0.2-0.1-0.4-0.2-0.6-0.2s-0.5-0.1-0.8-0.1s-0.6,0.1-0.7,0.2c-0.2,0.1-0.2,0.3-0.2,0.6c0,0.2,0.1,0.3,0.2,0.4
		c0.1,0.1,0.3,0.2,0.5,0.3s0.4,0.2,0.6,0.2c0.2,0.1,0.4,0.2,0.6,0.3s0.4,0.3,0.5,0.5s0.2,0.5,0.2,0.8c0,0.2,0,0.5-0.1,0.7
		s-0.2,0.4-0.4,0.5s-0.4,0.3-0.6,0.3c-0.2,0.1-0.5,0.1-0.8,0.1c-0.4,0-0.8,0-1.1-0.1s-0.5-0.2-0.7-0.3l0.3-0.7
		c0.2,0.1,0.4,0.2,0.7,0.3c0.3,0.1,0.5,0.1,0.8,0.1s0.6-0.1,0.8-0.2C220.1,116.9,220.2,116.7,220.2,116.4z"/>
	<path class="st5" d="M225.8,115.8c0-0.3,0.1-0.6,0.2-0.8c0.1-0.3,0.2-0.5,0.4-0.7c0.2-0.2,0.4-0.4,0.6-0.6s0.5-0.4,0.7-0.5
		c-0.2-0.3-0.3-0.5-0.5-0.8c-0.1-0.3-0.2-0.5-0.2-0.9c0-0.2,0-0.3,0.1-0.5s0.2-0.3,0.3-0.5c0.1-0.1,0.3-0.2,0.5-0.3s0.4-0.1,0.7-0.1
		c0.3,0,0.6,0,0.8,0.1c0.2,0.1,0.4,0.2,0.5,0.3c0.1,0.1,0.2,0.3,0.3,0.4c0.1,0.2,0.1,0.3,0.1,0.5c0,0.3-0.1,0.6-0.4,1
		s-0.6,0.6-1.1,0.9c0.1,0.2,0.3,0.4,0.4,0.7s0.3,0.4,0.5,0.7c0.2,0.2,0.4,0.4,0.5,0.7c0.2,0.2,0.4,0.4,0.5,0.6
		c0.1-0.1,0.2-0.2,0.2-0.3s0.2-0.3,0.2-0.4c0.1-0.2,0.1-0.3,0.2-0.5s0.1-0.3,0.2-0.5l0.7,0.3c0,0.1-0.1,0.3-0.2,0.4
		c-0.1,0.2-0.2,0.3-0.3,0.5c-0.1,0.2-0.2,0.4-0.3,0.5c-0.1,0.2-0.2,0.3-0.3,0.4c0.2,0.1,0.3,0.3,0.4,0.4s0.2,0.2,0.3,0.3
		c0.1,0.1,0.2,0.1,0.3,0.2c0.1,0.1,0.2,0.1,0.3,0.2L232,118c-0.4-0.2-0.8-0.5-1.3-1c-0.1,0.1-0.3,0.3-0.4,0.4s-0.3,0.2-0.5,0.3
		c-0.2,0.1-0.4,0.2-0.7,0.2s-0.5,0.1-0.8,0.1s-0.7,0-1-0.1s-0.6-0.2-0.8-0.4c-0.2-0.2-0.4-0.4-0.5-0.7S225.8,116.1,225.8,115.8z
		 M230.2,116.4c-0.2-0.2-0.4-0.4-0.6-0.7c-0.2-0.2-0.4-0.5-0.6-0.7s-0.4-0.5-0.5-0.7s-0.3-0.4-0.4-0.6c-0.2,0.1-0.4,0.3-0.6,0.5
		s-0.3,0.3-0.4,0.5s-0.2,0.4-0.3,0.6c-0.1,0.2-0.1,0.4-0.1,0.6s0,0.4,0.1,0.6s0.2,0.3,0.4,0.5s0.4,0.2,0.6,0.3
		c0.2,0.1,0.4,0.1,0.7,0.1c0.2,0,0.4,0,0.5-0.1c0.2,0,0.3-0.1,0.5-0.2s0.3-0.2,0.4-0.3C230,116.6,230.1,116.5,230.2,116.4z
		 M227.8,111.4c0,0.2,0,0.4,0.1,0.7c0.1,0.2,0.2,0.4,0.4,0.6c0.4-0.2,0.7-0.5,0.8-0.7c0.1-0.2,0.2-0.4,0.2-0.5
		c0-0.2-0.1-0.4-0.2-0.6s-0.3-0.2-0.6-0.2c-0.3,0-0.5,0.1-0.6,0.2C227.9,111,227.8,111.2,227.8,111.4z"/>
</g>
<g class="st4">
	<path class="st5" d="M193.4,129.6c0-0.2-0.1-0.4-0.2-0.5c-0.1-0.1-0.3-0.2-0.5-0.3s-0.4-0.2-0.6-0.2s-0.4-0.2-0.6-0.3
		c-0.2-0.1-0.4-0.3-0.5-0.5s-0.2-0.4-0.2-0.8c0-0.5,0.1-0.9,0.5-1.2c0.3-0.2,0.7-0.4,1.3-0.4c0.4,0,0.7,0,1,0.1s0.5,0.2,0.7,0.2
		l-0.2,0.7c-0.2-0.1-0.4-0.2-0.6-0.2s-0.5-0.1-0.8-0.1s-0.6,0.1-0.7,0.2c-0.2,0.1-0.2,0.3-0.2,0.6c0,0.2,0.1,0.3,0.2,0.4
		c0.1,0.1,0.3,0.2,0.5,0.3s0.4,0.2,0.6,0.2c0.2,0.1,0.4,0.2,0.6,0.3c0.2,0.1,0.4,0.3,0.5,0.5s0.2,0.5,0.2,0.8c0,0.2,0,0.5-0.1,0.7
		s-0.2,0.4-0.4,0.5s-0.4,0.3-0.6,0.3c-0.2,0.1-0.5,0.1-0.8,0.1c-0.4,0-0.8,0-1.1-0.1s-0.5-0.2-0.7-0.3l0.3-0.7
		c0.2,0.1,0.4,0.2,0.7,0.3s0.5,0.1,0.8,0.1s0.6-0.1,0.8-0.2C193.3,130.1,193.4,129.9,193.4,129.6z"/>
</g>
<g class="st4">
	<path class="st5" d="M199.7,130.6c-0.2,0.2-0.5,0.3-0.8,0.4c-0.3,0.1-0.7,0.2-1.1,0.2c-0.4,0-0.8-0.1-1.1-0.2
		c-0.3-0.1-0.6-0.3-0.8-0.6s-0.3-0.6-0.4-0.9c-0.1-0.4-0.1-0.7-0.1-1.2c0-0.9,0.2-1.7,0.6-2.1s1-0.7,1.8-0.7c0.2,0,0.5,0,0.7,0.1
		s0.5,0.2,0.7,0.3c0.2,0.2,0.4,0.4,0.5,0.7c0.1,0.3,0.2,0.7,0.2,1.1c0,0.2,0,0.5-0.1,0.8h-3.5c0,0.3,0,0.6,0.1,0.9
		c0.1,0.2,0.2,0.5,0.3,0.6c0.1,0.2,0.3,0.3,0.5,0.4s0.5,0.1,0.8,0.1c0.2,0,0.5,0,0.7-0.1s0.4-0.2,0.6-0.3L199.7,130.6z M197.8,126.2
		c-0.4,0-0.8,0.1-1,0.3c-0.3,0.2-0.4,0.6-0.5,1.2h2.7c0-0.6-0.1-0.9-0.3-1.2C198.4,126.3,198.1,126.2,197.8,126.2z"/>
</g>
<g class="st4">
	<path class="st5" d="M204.9,130.7c-0.2,0.2-0.5,0.3-0.8,0.4c-0.3,0.1-0.6,0.1-0.9,0.1c-0.4,0-0.8-0.1-1.1-0.2
		c-0.3-0.1-0.5-0.3-0.7-0.6s-0.3-0.6-0.4-0.9c-0.1-0.4-0.1-0.8-0.1-1.2c0-0.9,0.2-1.6,0.6-2.1c0.4-0.5,1-0.7,1.8-0.7
		c0.4,0,0.7,0,0.9,0.1s0.5,0.1,0.7,0.2l-0.3,0.8c-0.2-0.1-0.4-0.2-0.6-0.2c-0.2-0.1-0.4-0.1-0.7-0.1c-1,0-1.6,0.7-1.6,2.1
		c0,0.3,0,0.5,0.1,0.8s0.1,0.5,0.3,0.7s0.3,0.3,0.5,0.5c0.2,0.1,0.5,0.2,0.8,0.2s0.5,0,0.7-0.1s0.4-0.2,0.5-0.3L204.9,130.7z"/>
	<path class="st5" d="M206.9,125.5v3.1c0,0.3,0,0.5,0,0.8c0,0.2,0.1,0.4,0.2,0.5c0.1,0.1,0.2,0.3,0.3,0.3c0.1,0.1,0.3,0.1,0.5,0.1
		s0.4,0,0.5-0.1s0.3-0.1,0.4-0.3c0.1-0.1,0.2-0.2,0.3-0.4c0.1-0.1,0.2-0.3,0.2-0.5v-3.7h0.9v3.9c0,0.3,0,0.5,0,0.8s0,0.5,0.1,0.7
		h-0.6l-0.2-0.9h-0.1c-0.2,0.3-0.4,0.5-0.7,0.7s-0.6,0.3-1.1,0.3c-0.3,0-0.6,0-0.8-0.1s-0.4-0.2-0.6-0.4s-0.3-0.4-0.3-0.7
		s-0.1-0.7-0.1-1.1v-3.3h1.1L206.9,125.5L206.9,125.5z"/>
	<path class="st5" d="M214.6,126.4c-0.2-0.1-0.4-0.1-0.6-0.1c-0.3,0-0.6,0.1-0.7,0.3c-0.2,0.2-0.3,0.4-0.3,0.7v3.8h-1v-5.5h0.6
		l0.2,0.7l0,0c0.1-0.2,0.3-0.4,0.5-0.6s0.4-0.2,0.7-0.2c0.2,0,0.5,0,0.7,0.1L214.6,126.4z"/>
	<path class="st5" d="M215.7,123.9c0-0.2,0.1-0.3,0.2-0.4c0.1-0.1,0.3-0.2,0.4-0.2s0.3,0.1,0.5,0.2s0.2,0.3,0.2,0.4
		s-0.1,0.3-0.2,0.4s-0.3,0.2-0.5,0.2s-0.3-0.1-0.4-0.2C215.8,124.2,215.7,124,215.7,123.9z M215.9,125.5h0.9v5.5h-0.9V125.5z"/>
	<path class="st5" d="M218,125.5h0.9v-1.1l0.9-0.3v1.3h1.5v0.8h-1.5v3c0,0.4,0,0.7,0.1,0.8c0.1,0.2,0.3,0.2,0.5,0.2s0.4,0,0.5-0.1
		s0.3-0.1,0.4-0.2l0.2,0.7c-0.2,0.1-0.4,0.2-0.6,0.2c-0.2,0.1-0.5,0.1-0.8,0.1c-0.4,0-0.8-0.1-0.9-0.4c-0.2-0.3-0.3-0.7-0.3-1.3V126
		H218V125.5z"/>
</g>
<g class="st4">
	<path class="st5" d="M224,129.1l0.3,1.1h0.1l0.2-1.1l1.1-3.6h0.9l-1.6,4.9c-0.1,0.4-0.2,0.7-0.4,1c-0.1,0.3-0.3,0.6-0.4,0.9
		c-0.1,0.3-0.3,0.5-0.5,0.6c-0.2,0.2-0.4,0.2-0.6,0.2c-0.3,0-0.5,0-0.6-0.1l0.2-0.8c0.1,0,0.2,0.1,0.3,0.1c0.2,0,0.4-0.1,0.6-0.3
		s0.3-0.6,0.5-1.1l-2.2-5.5h1L224,129.1z"/>
</g>
<g class="st4">
	<path class="st5" d="M191,145.5h0.6l0.2,0.7l0,0c0.2-0.3,0.4-0.5,0.7-0.6s0.6-0.2,0.9-0.2c0.7,0,1.3,0.2,1.6,0.6
		c0.4,0.4,0.5,1.1,0.5,2.1c0,0.5-0.1,0.9-0.2,1.2s-0.3,0.7-0.5,0.9c-0.2,0.3-0.5,0.5-0.8,0.6s-0.7,0.2-1,0.2s-0.5,0-0.6,0
		c-0.2,0-0.3-0.1-0.5-0.2v2.3H191V145.5z M193.2,146.2c-0.4,0-0.7,0.1-0.9,0.3s-0.4,0.5-0.5,0.9v2.7c0.1,0.1,0.3,0.2,0.5,0.2
		c0.2,0.1,0.4,0.1,0.7,0.1c0.5,0,0.9-0.2,1.2-0.6c0.3-0.4,0.4-0.9,0.4-1.7c0-0.3,0-0.6-0.1-0.8s-0.1-0.5-0.2-0.6s-0.3-0.3-0.4-0.4
		C193.7,146.2,193.5,146.2,193.2,146.2z"/>
	<path class="st5" d="M196.6,148.3c0-0.9,0.2-1.6,0.6-2.1c0.4-0.5,1-0.7,1.8-0.7c0.4,0,0.8,0.1,1.1,0.2s0.6,0.3,0.8,0.6
		s0.3,0.6,0.4,0.9s0.1,0.8,0.1,1.2c0,0.9-0.2,1.6-0.6,2.1c-0.4,0.5-1,0.7-1.8,0.7c-0.4,0-0.8-0.1-1.1-0.2s-0.6-0.3-0.8-0.6
		s-0.3-0.6-0.4-0.9C196.7,149.1,196.6,148.7,196.6,148.3z M197.6,148.3c0,0.3,0,0.5,0.1,0.8s0.1,0.5,0.3,0.7
		c0.1,0.2,0.3,0.3,0.5,0.5c0.2,0.1,0.4,0.2,0.7,0.2c1,0,1.5-0.7,1.5-2.1c0-0.3,0-0.6-0.1-0.8c-0.1-0.3-0.1-0.5-0.3-0.7
		c-0.1-0.2-0.3-0.3-0.5-0.5c-0.2-0.1-0.4-0.2-0.7-0.2C198.1,146.2,197.6,146.9,197.6,148.3z"/>
	<path class="st5" d="M203.8,149.7c0,0.3,0,0.4,0.1,0.5s0.2,0.2,0.4,0.2c0.1,0,0.2,0,0.3,0s0.2,0,0.4-0.1l0.1,0.7
		c-0.1,0.1-0.3,0.1-0.5,0.1s-0.4,0.1-0.5,0.1c-0.3,0-0.6-0.1-0.8-0.3s-0.3-0.5-0.3-1v-6.6h0.9L203.8,149.7L203.8,149.7z"/>
	<path class="st5" d="M206.1,143.9c0-0.2,0.1-0.3,0.2-0.4s0.3-0.2,0.4-0.2c0.2,0,0.3,0.1,0.5,0.2c0.1,0.1,0.2,0.3,0.2,0.4
		s-0.1,0.3-0.2,0.4c-0.1,0.1-0.3,0.2-0.5,0.2s-0.3-0.1-0.4-0.2S206.1,144,206.1,143.9z M206.3,145.5h0.9v5.5h-0.9V145.5z"/>
</g>
<g class="st4">
	<path class="st5" d="M212.8,150.7c-0.2,0.2-0.5,0.3-0.8,0.4c-0.3,0.1-0.6,0.1-0.9,0.1c-0.4,0-0.8-0.1-1.1-0.2s-0.5-0.3-0.7-0.6
		s-0.3-0.6-0.4-0.9c-0.1-0.4-0.1-0.8-0.1-1.2c0-0.9,0.2-1.6,0.6-2.1s1-0.7,1.8-0.7c0.4,0,0.7,0,0.9,0.1s0.5,0.1,0.7,0.2l-0.3,0.8
		c-0.2-0.1-0.4-0.2-0.6-0.2c-0.2-0.1-0.4-0.1-0.7-0.1c-1,0-1.6,0.7-1.6,2.1c0,0.3,0,0.5,0.1,0.8s0.1,0.5,0.3,0.7
		c0.1,0.2,0.3,0.3,0.5,0.5c0.2,0.1,0.5,0.2,0.8,0.2s0.5,0,0.7-0.1s0.4-0.2,0.5-0.3L212.8,150.7z"/>
</g>
<g class="st4">
	<path class="st5" d="M215.5,149.1l0.3,1.1h0.1l0.2-1.1l1.1-3.6h0.9l-1.6,4.9c-0.1,0.4-0.2,0.7-0.4,1c-0.1,0.3-0.3,0.6-0.4,0.9
		c-0.1,0.3-0.3,0.5-0.5,0.6c-0.2,0.2-0.4,0.2-0.6,0.2c-0.3,0-0.5,0-0.6-0.1l0.2-0.8c0.1,0,0.2,0.1,0.3,0.1c0.2,0,0.4-0.1,0.6-0.3
		c0.2-0.2,0.3-0.6,0.5-1.1l-2.2-5.5h1L215.5,149.1z"/>
</g>
<g class="st4">
	<path class="st5" d="M170,185.5h0.9v2.7l0,0c0.2-0.2,0.4-0.4,0.6-0.5s0.5-0.2,0.9-0.2c0.7,0,1.2,0.2,1.6,0.7
		c0.4,0.5,0.5,1.2,0.5,2.1c0,1-0.2,1.7-0.7,2.2s-1.1,0.7-2,0.7c-0.4,0-0.8,0-1.1-0.1s-0.6-0.2-0.8-0.3v-7.3L170,185.5L170,185.5z
		 M172.2,188.4c-0.4,0-0.7,0.1-0.9,0.3s-0.4,0.5-0.5,0.9v2.8c0.1,0.1,0.3,0.1,0.5,0.2c0.2,0,0.4,0.1,0.6,0.1c0.5,0,0.9-0.2,1.2-0.5
		c0.3-0.4,0.4-0.9,0.4-1.6c0-0.3,0-0.6-0.1-0.8s-0.1-0.5-0.2-0.6s-0.3-0.3-0.4-0.4C172.7,188.4,172.5,188.4,172.2,188.4z"/>
	<path class="st5" d="M176.7,187.7v3.1c0,0.3,0,0.5,0,0.8c0,0.2,0.1,0.4,0.2,0.5c0.1,0.1,0.2,0.3,0.3,0.3s0.3,0.1,0.5,0.1
		s0.4,0,0.5-0.1c0.2-0.1,0.3-0.1,0.4-0.3c0.1-0.1,0.2-0.2,0.3-0.4c0.1-0.1,0.2-0.3,0.2-0.5v-3.7h0.9v3.9c0,0.3,0,0.5,0,0.8
		s0,0.5,0.1,0.7h-0.6l-0.2-0.9h-0.1c-0.2,0.3-0.4,0.5-0.7,0.7s-0.6,0.3-1.1,0.3c-0.3,0-0.6,0-0.8-0.1s-0.4-0.2-0.6-0.4
		s-0.3-0.4-0.3-0.7s-0.1-0.7-0.1-1.1v-3.3h1.1L176.7,187.7L176.7,187.7z"/>
	<path class="st5" d="M181.8,186.1c0-0.2,0.1-0.3,0.2-0.4s0.3-0.2,0.4-0.2c0.2,0,0.3,0.1,0.5,0.2c0.1,0.1,0.2,0.3,0.2,0.4
		s-0.1,0.3-0.2,0.4c-0.1,0.1-0.3,0.2-0.5,0.2s-0.3-0.1-0.4-0.2S181.8,186.2,181.8,186.1z M182,187.7h0.9v5.5H182V187.7z"/>
	<path class="st5" d="M185.8,191.9c0,0.3,0,0.4,0.1,0.5s0.2,0.2,0.4,0.2c0.1,0,0.2,0,0.3,0s0.2,0,0.4-0.1l0.1,0.7
		c-0.1,0.1-0.3,0.1-0.5,0.1s-0.4,0.1-0.5,0.1c-0.3,0-0.6-0.1-0.8-0.3s-0.3-0.5-0.3-1v-6.6h0.9L185.8,191.9L185.8,191.9z"/>
	<path class="st5" d="M192.2,191.3c0,0.4,0,0.7,0,1s0,0.6,0.1,0.9h-0.6l-0.2-0.8l0,0c-0.1,0.3-0.4,0.5-0.6,0.6
		c-0.3,0.2-0.6,0.3-1,0.3c-0.7,0-1.3-0.2-1.6-0.7c-0.4-0.5-0.5-1.2-0.5-2.2c0-0.9,0.2-1.7,0.7-2.1c0.4-0.5,1.1-0.7,1.8-0.7
		c0.3,0,0.5,0,0.6,0c0.2,0,0.3,0.1,0.5,0.1v-2.3h0.9L192.2,191.3L192.2,191.3z M190,192.6c0.4,0,0.7-0.1,0.9-0.3s0.4-0.5,0.5-0.9
		v-2.7c-0.1-0.1-0.3-0.2-0.5-0.2s-0.4-0.1-0.7-0.1c-0.5,0-0.9,0.2-1.2,0.5s-0.4,0.9-0.4,1.6c0,0.3,0,0.6,0.1,0.8s0.1,0.5,0.2,0.7
		c0.1,0.2,0.3,0.3,0.4,0.4C189.5,192.5,189.8,192.6,190,192.6z"/>
	<path class="st5" d="M199.6,185.4l0.7,0.3l-4,9.1l-0.7-0.3L199.6,185.4z"/>
	<path class="st5" d="M203.7,187.7h0.6l0.2,0.7l0,0c0.2-0.3,0.4-0.5,0.7-0.6s0.6-0.2,0.9-0.2c0.7,0,1.3,0.2,1.6,0.6
		c0.4,0.4,0.5,1.1,0.5,2.1c0,0.5-0.1,0.9-0.2,1.2s-0.3,0.7-0.5,0.9c-0.2,0.3-0.5,0.5-0.8,0.6s-0.7,0.2-1,0.2s-0.5,0-0.6,0
		c-0.2,0-0.3-0.1-0.5-0.2v2.3h-0.9V187.7z M205.9,188.4c-0.4,0-0.7,0.1-0.9,0.3s-0.4,0.5-0.5,0.9v2.7c0.1,0.1,0.3,0.2,0.5,0.2
		c0.2,0.1,0.4,0.1,0.7,0.1c0.5,0,0.9-0.2,1.2-0.6c0.3-0.4,0.4-0.9,0.4-1.7c0-0.3,0-0.6-0.1-0.8s-0.1-0.5-0.2-0.6s-0.3-0.3-0.4-0.4
		C206.4,188.4,206.2,188.4,205.9,188.4z"/>
	<path class="st5" d="M210.4,187.7v3.1c0,0.3,0,0.5,0,0.8c0,0.2,0.1,0.4,0.2,0.5c0.1,0.1,0.2,0.3,0.3,0.3s0.3,0.1,0.5,0.1
		s0.4,0,0.5-0.1c0.2-0.1,0.3-0.1,0.4-0.3c0.1-0.1,0.2-0.2,0.3-0.4c0.1-0.1,0.2-0.3,0.2-0.5v-3.7h0.9v3.9c0,0.3,0,0.5,0,0.8
		s0,0.5,0.1,0.7h-0.6L213,192h-0.1c-0.2,0.3-0.4,0.5-0.7,0.7s-0.6,0.3-1.1,0.3c-0.3,0-0.6,0-0.8-0.1s-0.4-0.2-0.6-0.4
		s-0.3-0.4-0.3-0.7s-0.1-0.7-0.1-1.1v-3.3h1.1L210.4,187.7L210.4,187.7z"/>
	<path class="st5" d="M218,191.7c0-0.2-0.1-0.4-0.2-0.5c-0.1-0.1-0.3-0.2-0.5-0.3s-0.4-0.2-0.6-0.2s-0.4-0.2-0.6-0.3
		c-0.2-0.1-0.4-0.3-0.5-0.5s-0.2-0.4-0.2-0.8c0-0.5,0.1-0.9,0.5-1.2c0.3-0.2,0.7-0.4,1.3-0.4c0.4,0,0.7,0,1,0.1s0.5,0.2,0.7,0.2
		l-0.2,0.7c-0.2-0.1-0.4-0.2-0.6-0.2s-0.5-0.1-0.8-0.1s-0.6,0.1-0.7,0.2c-0.2,0.1-0.2,0.3-0.2,0.6c0,0.2,0.1,0.3,0.2,0.4
		c0.1,0.1,0.3,0.2,0.5,0.3s0.4,0.2,0.6,0.2c0.2,0.1,0.4,0.2,0.6,0.3s0.4,0.3,0.5,0.5s0.2,0.5,0.2,0.8c0,0.2,0,0.5-0.1,0.7
		s-0.2,0.4-0.4,0.5s-0.4,0.3-0.6,0.3c-0.2,0.1-0.5,0.1-0.8,0.1c-0.4,0-0.8,0-1.1-0.1s-0.5-0.2-0.7-0.3l0.3-0.7
		c0.2,0.1,0.4,0.2,0.7,0.3s0.5,0.1,0.8,0.1s0.6-0.1,0.8-0.2C217.9,192.3,218,192.1,218,191.7z"/>
	<path class="st5" d="M223.7,193.2v-3.1c0-0.3,0-0.5,0-0.8c0-0.2-0.1-0.4-0.2-0.5s-0.2-0.3-0.4-0.3s-0.3-0.1-0.6-0.1
		s-0.7,0.1-0.9,0.3c-0.3,0.2-0.5,0.5-0.5,0.9v3.7h-0.9v-7.7h0.9v2.8l0,0c0.2-0.2,0.4-0.4,0.7-0.5s0.6-0.2,1-0.2c0.3,0,0.6,0,0.8,0.1
		s0.4,0.2,0.6,0.4c0.1,0.2,0.3,0.4,0.3,0.7s0.1,0.7,0.1,1.1v3.3L223.7,193.2L223.7,193.2z"/>
</g>
<g class="st4">
	<path class="st5" d="M400.5,188.7h0.6l0.2,0.7l0,0c0.2-0.3,0.4-0.5,0.7-0.6s0.6-0.2,0.9-0.2c0.7,0,1.3,0.2,1.6,0.6
		c0.4,0.4,0.5,1.1,0.5,2.1c0,0.5-0.1,0.9-0.2,1.2s-0.3,0.7-0.5,0.9s-0.5,0.5-0.8,0.6s-0.7,0.2-1,0.2s-0.5,0-0.6,0
		c-0.2,0-0.3-0.1-0.5-0.2v2.3h-0.9L400.5,188.7L400.5,188.7z M402.8,189.4c-0.4,0-0.7,0.1-0.9,0.3c-0.2,0.2-0.4,0.5-0.5,0.9v2.7
		c0.1,0.1,0.3,0.2,0.5,0.2c0.2,0.1,0.4,0.1,0.7,0.1c0.5,0,0.9-0.2,1.2-0.6c0.3-0.4,0.4-0.9,0.4-1.7c0-0.3,0-0.6-0.1-0.8
		s-0.1-0.5-0.2-0.6c-0.1-0.2-0.3-0.3-0.4-0.4C403.2,189.4,403,189.4,402.8,189.4z"/>
	<path class="st5" d="M407.3,188.7v3.1c0,0.3,0,0.5,0,0.8c0,0.2,0.1,0.4,0.2,0.5s0.2,0.3,0.3,0.3c0.1,0.1,0.3,0.1,0.5,0.1
		s0.4,0,0.5-0.1s0.3-0.1,0.4-0.3c0.1-0.1,0.2-0.2,0.3-0.4c0.1-0.1,0.2-0.3,0.2-0.5v-3.7h0.9v3.9c0,0.3,0,0.5,0,0.8s0,0.5,0.1,0.7
		h-0.6l-0.2-0.9h0.1c-0.2,0.3-0.4,0.5-0.7,0.7c-0.3,0.2-0.6,0.3-1.1,0.3c-0.3,0-0.6,0-0.8-0.1s-0.4-0.2-0.6-0.4s-0.3-0.4-0.3-0.7
		s-0.1-0.7-0.1-1.1v-3.3h0.9L407.3,188.7L407.3,188.7z"/>
	<path class="st5" d="M413.4,192.9c0,0.3,0,0.4,0.1,0.5s0.2,0.2,0.4,0.2c0.1,0,0.2,0,0.3,0s0.2,0,0.4-0.1l0.1,0.7
		c-0.1,0.1-0.3,0.1-0.5,0.1s-0.4,0.1-0.5,0.1c-0.3,0-0.6-0.1-0.8-0.3c-0.2-0.2-0.3-0.5-0.3-1v-6.6h0.9v6.4L413.4,192.9L413.4,192.9z
		"/>
	<path class="st5" d="M416.6,192.9c0,0.3,0,0.4,0.1,0.5s0.2,0.2,0.4,0.2c0.1,0,0.2,0,0.3,0s0.2,0,0.4-0.1l0.1,0.7
		c-0.1,0.1-0.3,0.1-0.5,0.1s-0.4,0.1-0.5,0.1c-0.3,0-0.6-0.1-0.8-0.3c-0.2-0.2-0.3-0.5-0.3-1v-6.6h0.9v6.4L416.6,192.9L416.6,192.9z
		"/>
</g>
<line class="st3" x1="376.4" y1="118.8" x2="466.1" y2="118.8"/>
<polygon class="st16" points="381,124.5 382,123.5 376.9,118.8 382,114.1 381,113 374.9,118.8 "/>
<polygon class="st16" points="461.5,124.5 460.5,123.5 465.6,118.8 460.5,114.1 461.5,113 467.6,118.8 "/>
<path class="st17" d="M429.5,110.4c4.6-4.5,12.1-4.5,16.6,0.2c4.5,4.6,4.5,12.1-0.2,16.6c-4.6,4.5-12.1,4.5-16.6-0.2
	c-2.1-2.2-3.4-5.1-3.4-8.2c0-2.6,0.8-5.1,2.4-7.1"/>
<path class="st18" d="M437.4,124.4h-4.2c-0.6,0-0.8-0.2-0.8-0.8v-6.5c0-0.6,0.2-0.8,0.8-0.8h8.5c0.5,0,0.8,0.2,0.8,0.8v6.5
	c0,0.6-0.2,0.8-0.8,0.8C440.2,124.4,438.8,124.4,437.4,124.4z"/>
<path class="st18" d="M433,115.8c0-1.8,1-3.4,2.6-4.1c2.1-0.9,4.6,0,5.5,2.1c0.1,0.2,0.2,0.5,0.2,0.7c0.1,0.4,0.1,0.8,0.2,1.2"/>
<path class="st16" d="M436.7,121.6L436.7,121.6v0.9c0,0.2,0.1,0.2,0.3,0.2h0.8c0.2,0,0.3-0.1,0.3-0.3v-1.6c0-0.2,0.1-0.3,0.2-0.4
	c0.5-0.3,0.8-0.9,0.6-1.4c-0.2-0.6-0.8-1-1.5-1c-0.7-0.1-1.3,0.3-1.6,0.9c-0.2,0.6,0,1.2,0.5,1.5c0.2,0.1,0.3,0.3,0.3,0.5
	C436.7,121.1,436.7,121.4,436.7,121.6z"/>
<line class="st3" x1="135.3" y1="139.3" x2="241.9" y2="139.3"/>
<polygon class="st16" points="237.3,145.1 236.3,144 241.4,139.3 236.3,134.6 237.3,133.6 243.4,139.3 "/>
<line class="st19" x1="147.8" y1="178.9" x2="240.3" y2="178.9"/>
<polygon class="st20" points="235.6,184.7 234.7,183.6 239.7,178.9 234.7,174.3 235.6,173.2 241.8,178.9 "/>
<polyline class="st19" points="374.9,179.8 444.3,179.8 444.3,139.9 465.6,139.9 "/>
<polygon class="st20" points="461,145.7 460,144.6 465.1,139.9 460,135.2 461,134.2 467.1,139.9 "/>
<path class="st17" d="M165.7,130.9c4.6-4.5,12.1-4.5,16.6,0.1s4.5,12.1-0.1,16.6s-12.1,4.5-16.6-0.1c-2.2-2.2-3.4-5.1-3.4-8.2
	c0-2.6,0.8-5.1,2.4-7.1"/>
<path class="st18" d="M173.6,145h-4.2c-0.6,0-0.8-0.2-0.8-0.8v-6.5c0-0.6,0.2-0.8,0.8-0.8h8.4c0.6,0,0.8,0.2,0.8,0.8v6.5
	c0,0.5-0.2,0.8-0.8,0.8C176.4,145,175,145,173.6,145z"/>
<path class="st18" d="M169.3,136.3c0-1.8,1-3.4,2.6-4.1c2.1-0.9,4.6,0,5.5,2.1c0.1,0.2,0.2,0.5,0.2,0.7c0.1,0.4,0.1,0.8,0.2,1.2"/>
<path class="st16" d="M172.9,142.2L172.9,142.2v0.9c0,0.2,0.1,0.2,0.3,0.2h0.8c0.2,0,0.3-0.1,0.3-0.3v-1.6c0-0.2,0.1-0.3,0.2-0.4
	c0.5-0.3,0.8-0.9,0.6-1.4c-0.2-0.6-0.8-1-1.4-1c-0.7-0.1-1.3,0.3-1.6,0.9c-0.2,0.6,0,1.2,0.6,1.5c0.2,0.1,0.3,0.3,0.3,0.5
	C172.9,141.7,172.9,142,172.9,142.2z"/>
<g>
	<path class="st21" d="M29.7,159c2.8-2.8,7.4-2.8,10.2,0.1c2.8,2.8,2.8,7.4-0.1,10.2c-2.8,2.8-7.4,2.8-10.2-0.1
		c-1.3-1.3-2.1-3.1-2.1-5c0-1.6,0.5-3.1,1.5-4.3"/>
	<path class="st16" d="M34.7,171.9c-2,0-4-0.8-5.5-2.3s-2.3-3.4-2.3-5.4c0-1.8,0.6-3.4,1.6-4.7c0.1-0.2,0.4-0.3,0.6-0.2
		c-0.1-0.2,0-0.5,0.2-0.6c3.1-3,8-3,11,0.1c1.4,1.5,2.2,3.4,2.2,5.5s-0.8,4-2.3,5.5C38.7,171.2,36.7,171.9,34.7,171.9z M29.6,159.7
		c0.1,0.2,0,0.4-0.1,0.6c-0.9,1.1-1.3,2.5-1.3,4c0,1.7,0.7,3.4,1.9,4.6c2.5,2.6,6.7,2.6,9.3,0.1c1.2-1.2,1.9-2.9,1.9-4.6
		c0-1.8-0.7-3.4-1.9-4.7c-2.5-2.6-6.7-2.6-9.3-0.1C30,159.6,29.8,159.7,29.6,159.7z"/>
</g>
<g>
	<path class="st16" d="M37.1,168.3H32c-0.7,0-1.1-0.4-1.1-1.1v-4c0-0.7,0.4-1.1,1.1-1.1h5.1c0.7,0,1.1,0.4,1.1,1.1v4
		C38.2,167.9,37.8,168.3,37.1,168.3z M32.1,167.1H37v-3.7h-4.9V167.1z"/>
</g>
<g>
	<path class="st16" d="M31.9,163c-0.3,0-0.6-0.3-0.6-0.6c0-1.3,0.8-2.5,2-3.1c0.8-0.3,1.6-0.4,2.4-0.1c0.8,0.3,1.4,0.9,1.8,1.7
		c0,0,0.1,0.3,0.2,0.6c0,0.1,0,0.3,0.1,0.4c0,0.1,0,0.2,0,0.3c0.1,0.3-0.1,0.7-0.4,0.7c-0.3,0.1-0.7-0.1-0.7-0.4
		c0-0.1-0.1-0.3-0.1-0.4c0-0.1,0-0.2,0-0.3v-0.1c0,0,0-0.1-0.1-0.2c-0.2-0.5-0.6-0.8-1.1-1s-1-0.2-1.5,0c-0.8,0.3-1.2,1.1-1.2,1.9
		C32.5,162.7,32.3,163,31.9,163z"/>
</g>
<g>
	<path class="st16" d="M34.1,166L34.1,166v0.6c0,0.1,0.1,0.1,0.2,0.1h0.5c0.1,0,0.2-0.1,0.2-0.2v-1c0-0.1,0.1-0.2,0.1-0.2
		c0.3-0.2,0.5-0.6,0.4-0.9c-0.1-0.4-0.5-0.6-0.9-0.6c-0.4-0.1-0.8,0.2-1,0.6c-0.1,0.4,0,0.7,0.4,0.9c0.1,0.1,0.2,0.2,0.2,0.3
		C34.1,165.7,34.1,165.8,34.1,166z"/>
</g>
<path class="st22" d="M251,165.7h114.8c2.8,0,5,2.2,5,5v40c0,2.8-2.2,5-5,5H251c-2.8,0-5-2.2-5-5v-40
	C246,167.9,248.3,165.7,251,165.7z"/>
<g class="st4">
	<path class="st5" d="M295.5,175.8h-1.3l-0.2-1.2c-0.1-0.1-0.4-0.2-0.7-0.2s-0.6-0.1-0.9-0.1c-0.5,0-0.8,0.1-1.1,0.3
		s-0.4,0.5-0.4,0.8s0.1,0.5,0.4,0.7s0.7,0.4,1.4,0.6c0.9,0.3,1.7,0.6,2.1,1s0.7,1,0.7,1.7s-0.3,1.3-0.9,1.7s-1.3,0.6-2.3,0.6
		c-0.7,0-1.3-0.1-1.8-0.3s-1-0.5-1.4-0.9v-1.8h1.3l0.2,1.2c0.2,0.1,0.4,0.3,0.7,0.3s0.6,0.1,1,0.1c0.5,0,0.8-0.1,1.1-0.3
		s0.4-0.4,0.4-0.8c0-0.3-0.1-0.6-0.3-0.8s-0.6-0.4-1.2-0.6c-1-0.3-1.8-0.6-2.3-1s-0.8-1-0.8-1.7s0.3-1.3,0.9-1.7s1.3-0.7,2.2-0.7
		c0.7,0,1.3,0.1,1.8,0.3s1,0.5,1.4,0.8L295.5,175.8L295.5,175.8z"/>
	<path class="st5" d="M296.3,180.6l0.8-0.2v-3.9l-0.9-0.2v-1h2.6v5.1l0.8,0.2v1h-3.4v-1L296.3,180.6L296.3,180.6z M298.8,173.8h-1.7
		v-1.3h1.7V173.8z"/>
	<path class="st5" d="M300.3,178.5c0-1,0.2-1.8,0.7-2.4s1-0.9,1.8-0.9c0.4,0,0.7,0.1,0.9,0.2s0.5,0.4,0.7,0.7l0.1-0.8h1.5v6.2
		c0,0.8-0.3,1.5-0.8,2s-1.2,0.7-2.2,0.7c-0.3,0-0.7,0-1-0.1s-0.7-0.2-1-0.4l0.3-1.2c0.3,0.1,0.5,0.2,0.8,0.3s0.6,0.1,0.9,0.1
		c0.4,0,0.7-0.1,0.9-0.4s0.3-0.6,0.3-1.1V181c-0.2,0.2-0.4,0.4-0.7,0.5s-0.5,0.2-0.9,0.2c-0.8,0-1.4-0.3-1.8-0.9s-0.7-1.3-0.7-2.3
		l0,0H300.3z M302,178.6c0,0.6,0.1,1,0.3,1.3s0.5,0.5,0.9,0.5c0.3,0,0.5,0,0.7-0.1s0.3-0.2,0.4-0.4v-2.8c-0.1-0.2-0.3-0.3-0.4-0.4
		s-0.4-0.2-0.7-0.2c-0.4,0-0.7,0.2-0.9,0.6S302,178,302,178.6L302,178.6z"/>
</g>
<g class="st4">
	<path class="st5" d="M307,180.6l0.8-0.2v-3.9l-0.9-0.2v-1h2.5l0.1,0.9c0.2-0.3,0.5-0.6,0.8-0.8s0.7-0.3,1-0.3
		c0.6,0,1.1,0.2,1.5,0.6s0.5,1,0.5,1.9v2.8l0.8,0.2v1h-3.3v-1l0.7-0.2v-2.8c0-0.4-0.1-0.7-0.3-0.9s-0.4-0.3-0.8-0.3
		c-0.2,0-0.4,0-0.6,0.1s-0.3,0.2-0.5,0.4v3.4l0.7,0.2v1h-3L307,180.6L307,180.6z"/>
</g>
<g class="st4">
	<path class="st5" d="M317.7,181.8c-0.9,0-1.6-0.3-2.2-0.9s-0.8-1.3-0.8-2.2v-0.2c0-0.9,0.3-1.7,0.8-2.3s1.2-0.9,2.1-0.9
		s1.5,0.3,2,0.8s0.7,1.2,0.7,2.1v0.9h-3.8l0,0c0,0.4,0.2,0.8,0.4,1s0.6,0.4,1,0.4s0.7,0,0.9-0.1s0.5-0.2,0.8-0.4l0.5,1.1
		c-0.3,0.2-0.6,0.4-1,0.5S318.2,181.8,317.7,181.8z M317.5,176.5c-0.3,0-0.6,0.1-0.8,0.4s-0.3,0.6-0.3,1l0,0h2.1v-0.2
		c0-0.4-0.1-0.7-0.3-0.9S317.8,176.5,317.5,176.5z"/>
	<path class="st5" d="M325.1,180.9c-0.2,0.3-0.4,0.5-0.7,0.7s-0.6,0.2-0.9,0.2c-0.8,0-1.4-0.3-1.8-0.9s-0.6-1.3-0.6-2.3v-0.1
		c0-1,0.2-1.8,0.7-2.4s1-0.9,1.8-0.9c0.3,0,0.6,0.1,0.9,0.2s0.5,0.3,0.7,0.6v-2.3l-0.9-0.2v-1h0.9h1.7v7.9l0.8,0.2v1h-2.3
		L325.1,180.9z M322.7,178.6c0,0.6,0.1,1,0.3,1.3s0.5,0.5,0.9,0.5c0.3,0,0.5-0.1,0.7-0.2s0.3-0.2,0.5-0.4v-2.7
		c-0.1-0.2-0.3-0.4-0.4-0.5s-0.4-0.2-0.6-0.2c-0.4,0-0.7,0.2-0.9,0.6s-0.3,0.9-0.3,1.5v0.1L322.7,178.6L322.7,178.6z"/>
</g>
<g class="st4">
	<path class="st5" d="M284.3,193.5c0.3,0,0.5-0.1,0.7-0.3s0.3-0.4,0.3-0.7h1.5l0,0c0,0.6-0.2,1.2-0.7,1.6s-1.1,0.6-1.9,0.6
		c-0.9,0-1.7-0.3-2.2-0.9s-0.8-1.4-0.8-2.3v-0.2c0-0.9,0.3-1.7,0.8-2.3s1.3-0.9,2.2-0.9c0.5,0,1,0.1,1.4,0.2s0.7,0.4,1,0.6v1.7h-1.4
		l-0.3-1c-0.1-0.1-0.2-0.1-0.3-0.2s-0.3-0.1-0.4-0.1c-0.5,0-0.8,0.2-1,0.5s-0.3,0.8-0.3,1.4v0.2c0,0.6,0.1,1,0.3,1.4
		S283.8,193.5,284.3,193.5z"/>
	<path class="st5" d="M287.6,191.4c0-0.9,0.3-1.7,0.8-2.3s1.3-0.9,2.2-0.9c0.9,0,1.7,0.3,2.2,0.9s0.8,1.4,0.8,2.3v0.1
		c0,1-0.3,1.7-0.8,2.3s-1.3,0.9-2.2,0.9c-0.9,0-1.7-0.3-2.2-0.9s-0.8-1.4-0.8-2.3V191.4z M289.3,191.5c0,0.6,0.1,1,0.3,1.4
		s0.5,0.5,1,0.5c0.4,0,0.8-0.2,1-0.5s0.3-0.8,0.3-1.4v-0.1c0-0.6-0.1-1-0.3-1.4s-0.5-0.5-1-0.5s-0.8,0.2-1,0.5s-0.3,0.8-0.3,1.4
		V191.5z"/>
	<path class="st5" d="M294.2,193.6l0.8-0.2v-3.9l-0.9-0.2v-1h2.5l0.1,0.9c0.2-0.3,0.5-0.6,0.8-0.8s0.7-0.3,1-0.3
		c0.6,0,1.1,0.2,1.5,0.6s0.5,1,0.5,1.9v2.8l0.8,0.2v1H298v-1l0.7-0.2v-2.8c0-0.4-0.1-0.7-0.3-0.9s-0.4-0.3-0.8-0.3
		c-0.2,0-0.4,0-0.6,0.1s-0.3,0.2-0.5,0.4v3.4l0.7,0.2v1H294v-0.9H294.2z"/>
	<path class="st5" d="M304.5,186.7v1.6h1.1v1.2h-1.1v3.2c0,0.2,0.1,0.4,0.2,0.5s0.2,0.2,0.4,0.2c0.1,0,0.2,0,0.3,0s0.2,0,0.3,0
		l0.1,1.2c-0.2,0.1-0.4,0.1-0.6,0.1s-0.4,0-0.6,0c-0.6,0-1-0.2-1.4-0.5s-0.5-0.8-0.5-1.5v-3.2h-0.9v-1.2h0.9v-1.6H304.5z"/>
	<path class="st5" d="M310.5,194.6c0-0.1-0.1-0.2-0.1-0.3s-0.1-0.2-0.1-0.3c-0.2,0.2-0.5,0.4-0.7,0.6s-0.6,0.2-1,0.2
		c-0.6,0-1.1-0.2-1.5-0.5s-0.5-0.8-0.5-1.4c0-0.6,0.2-1.1,0.7-1.4s1.2-0.5,2.1-0.5h0.9v-0.6c0-0.3-0.1-0.5-0.3-0.7s-0.4-0.3-0.8-0.3
		c-0.2,0-0.4,0-0.5,0.1s-0.3,0.1-0.4,0.2l-0.1,0.7h-1.3V189c0.3-0.2,0.7-0.4,1.1-0.5s0.8-0.2,1.3-0.2c0.8,0,1.4,0.2,1.9,0.6
		s0.7,0.9,0.7,1.6v2.6c0,0.1,0,0.2,0,0.3s0,0.2,0,0.2l0.5,0.1v1h-1.9L310.5,194.6L310.5,194.6z M309,193.5c0.3,0,0.5-0.1,0.7-0.2
		s0.4-0.3,0.5-0.4v-1h-0.9c-0.4,0-0.6,0.1-0.8,0.3s-0.3,0.4-0.3,0.6c0,0.2,0.1,0.4,0.2,0.5S308.7,193.5,309,193.5z"/>
	<path class="st5" d="M313,193.6l0.8-0.2v-3.9l-0.9-0.2v-1h2.6v5.1l0.8,0.2v1H313V193.6z M315.5,186.8h-1.7v-1.3h1.7V186.8z"/>
</g>
<g class="st4">
	<path class="st5" d="M316.8,193.6l0.8-0.2v-3.9l-0.9-0.2v-1h2.5l0.1,0.9c0.2-0.3,0.5-0.6,0.8-0.8s0.7-0.3,1-0.3
		c0.6,0,1.1,0.2,1.5,0.6s0.5,1,0.5,1.9v2.8l0.8,0.2v1h-3.3v-1l0.7-0.2v-2.8c0-0.4-0.1-0.7-0.3-0.9s-0.4-0.3-0.8-0.3
		c-0.2,0-0.4,0-0.6,0.1s-0.3,0.2-0.5,0.4v3.4l0.7,0.2v1h-3.2v-0.9H316.8z"/>
</g>
<g class="st4">
	<path class="st5" d="M327.5,194.8c-0.9,0-1.6-0.3-2.2-0.9s-0.8-1.3-0.8-2.2v-0.2c0-0.9,0.3-1.7,0.8-2.3s1.2-0.9,2.1-0.9
		s1.5,0.3,2,0.8s0.7,1.2,0.7,2.1v0.9h-3.8l0,0c0,0.4,0.2,0.8,0.4,1s0.6,0.4,1,0.4s0.7,0,0.9-0.1s0.5-0.2,0.8-0.4l0.5,1.1
		c-0.3,0.2-0.6,0.4-1,0.5S328,194.8,327.5,194.8z M327.3,189.5c-0.3,0-0.6,0.1-0.8,0.4s-0.3,0.6-0.3,1l0,0h2.1v-0.2
		c0-0.4-0.1-0.7-0.3-0.9S327.7,189.5,327.3,189.5z"/>
	<path class="st5" d="M331,193.6l0.8-0.2v-3.9l-0.9-0.2v-1h2.5l0.1,0.9c0.1-0.3,0.3-0.6,0.6-0.8s0.5-0.3,0.8-0.3c0.1,0,0.2,0,0.3,0
		s0.2,0,0.2,0l-0.2,1.6h-0.7c-0.3,0-0.5,0-0.6,0.1s-0.3,0.2-0.4,0.4v3.1l0.8,0.2v1H331V193.6z"/>
</g>
<g class="st4">
	<path class="st5" d="M291.1,206.6l0.8-0.2v-3.9l-0.9-0.2v-1h2.6v5.1l0.8,0.2v1H291v-1L291.1,206.6L291.1,206.6z M293.6,199.8h-1.7
		v-1.3h1.7V199.8z"/>
	<path class="st5" d="M294.8,202.3v-1h2.5l0.1,0.8c0.2-0.3,0.5-0.5,0.8-0.7s0.7-0.2,1.1-0.2s0.8,0.1,1,0.3s0.5,0.5,0.7,0.8
		c0.2-0.3,0.4-0.6,0.8-0.8s0.7-0.3,1.1-0.3c0.6,0,1.1,0.2,1.5,0.6s0.5,1.1,0.5,2v2.6l0.8,0.2v1h-3.3v-1l0.7-0.2v-2.6
		c0-0.5-0.1-0.8-0.2-1s-0.4-0.3-0.7-0.3c-0.2,0-0.5,0.1-0.6,0.2s-0.3,0.3-0.4,0.4c0,0.1,0,0.1,0,0.2s0,0.1,0,0.2v3l0.7,0.2v1h-3.1
		v-1l0.7-0.2v-2.6c0-0.5-0.1-0.8-0.2-1s-0.4-0.3-0.7-0.3c-0.2,0-0.4,0-0.6,0.1s-0.3,0.2-0.4,0.4v3.4l0.7,0.2v1H295v-1l0.8-0.2v-3.9
		L294.8,202.3z"/>
	<path class="st5" d="M310.2,207.6c0-0.1-0.1-0.2-0.1-0.3s-0.1-0.2-0.1-0.3c-0.2,0.2-0.5,0.4-0.7,0.6s-0.6,0.2-1,0.2
		c-0.6,0-1.1-0.2-1.5-0.5s-0.5-0.8-0.5-1.4c0-0.6,0.2-1.1,0.7-1.4s1.2-0.5,2.1-0.5h0.9v-0.6c0-0.3-0.1-0.5-0.3-0.7s-0.4-0.3-0.8-0.3
		c-0.2,0-0.4,0-0.5,0.1s-0.3,0.1-0.4,0.2l-0.1,0.7h-1.3V202c0.3-0.2,0.7-0.4,1.1-0.5s0.8-0.2,1.3-0.2c0.8,0,1.4,0.2,1.9,0.6
		s0.7,0.9,0.7,1.6v2.6c0,0.1,0,0.2,0,0.3s0,0.2,0,0.2l0.5,0.1v1h-1.9L310.2,207.6L310.2,207.6z M308.7,206.5c0.3,0,0.5-0.1,0.7-0.2
		s0.4-0.3,0.5-0.4v-1H309c-0.4,0-0.6,0.1-0.8,0.3s-0.3,0.4-0.3,0.6c0,0.2,0.1,0.4,0.2,0.5S308.5,206.5,308.7,206.5z"/>
	<path class="st5" d="M312.9,204.5c0-1,0.2-1.8,0.7-2.4s1-0.9,1.8-0.9c0.4,0,0.7,0.1,0.9,0.2s0.5,0.4,0.7,0.7l0.1-0.8h1.5v6.2
		c0,0.8-0.3,1.5-0.8,2s-1.2,0.7-2.2,0.7c-0.3,0-0.7,0-1-0.1s-0.7-0.2-1-0.4l0.3-1.2c0.3,0.1,0.5,0.2,0.8,0.3s0.6,0.1,0.9,0.1
		c0.4,0,0.7-0.1,0.9-0.4s0.3-0.6,0.3-1.1V207c-0.2,0.2-0.4,0.4-0.7,0.5s-0.5,0.2-0.9,0.2c-0.8,0-1.4-0.3-1.8-0.9s-0.7-1.3-0.7-2.3
		l0,0H312.9z M314.6,204.6c0,0.6,0.1,1,0.3,1.3s0.5,0.5,0.9,0.5c0.3,0,0.5,0,0.7-0.1s0.3-0.2,0.4-0.4v-2.8c-0.1-0.2-0.3-0.3-0.4-0.4
		s-0.4-0.2-0.7-0.2c-0.4,0-0.7,0.2-0.9,0.6S314.6,204,314.6,204.6L314.6,204.6z"/>
	<path class="st5" d="M322.7,207.8c-0.9,0-1.6-0.3-2.2-0.9s-0.8-1.3-0.8-2.2v-0.2c0-0.9,0.3-1.7,0.8-2.3s1.2-0.9,2.1-0.9
		s1.5,0.3,2,0.8s0.7,1.2,0.7,2.1v0.9h-3.8l0,0c0,0.4,0.2,0.8,0.4,1s0.6,0.4,1,0.4s0.7,0,0.9-0.1s0.5-0.2,0.8-0.4l0.5,1.1
		c-0.3,0.2-0.6,0.4-1,0.5S323.2,207.8,322.7,207.8z M322.5,202.5c-0.3,0-0.6,0.1-0.8,0.4s-0.3,0.6-0.3,1l0,0h2.1v-0.2
		c0-0.4-0.1-0.7-0.3-0.9S322.9,202.5,322.5,202.5z"/>
</g>
<g class="st23">
	<path class="st24" d="M482.9,111.9h99.8c2.2,0,4,1.8,4,4v14.4c0,2.2-1.8,4-4,4h-99.8c-2.2,0-4-1.8-4-4v-14.4
		C478.9,113.7,480.7,111.9,482.9,111.9z"/>
</g>
<g class="st4">
	<path class="st16" d="M501.1,118.8c1,0,1.7,0.3,2.3,0.8s0.8,1.2,0.8,2s-0.3,1.5-0.8,2s-1.3,0.7-2.3,0.7h-1.4v1.9l0.9,0.2v1H497v-1
		l0.9-0.2V120l-0.9-0.2v-1h0.9H501.1z M499.6,122.9h1.4c0.5,0,0.8-0.1,1.1-0.4s0.4-0.6,0.4-1s-0.1-0.7-0.4-1s-0.6-0.4-1.1-0.4h-1.4
		V122.9z"/>
</g>
<g class="st4">
	<path class="st16" d="M511.5,122l-0.6,0.1l-2.3,6.2c-0.2,0.5-0.4,0.8-0.7,1.1s-0.8,0.5-1.4,0.5c-0.1,0-0.3,0-0.4,0
		s-0.3-0.1-0.4-0.1l0.2-1.2c0.1,0,0.1,0,0.2,0s0.1,0,0.2,0c0.3,0,0.5-0.1,0.7-0.2s0.3-0.3,0.4-0.5l0.2-0.5l-2-5.2l-0.6-0.1v-1h3.1v1
		l-0.7,0.1l0.9,2.5l0.1,0.5l0,0l1-3l-0.7-0.1v-1h3.1v0.9L511.5,122L511.5,122z"/>
	<path class="st16" d="M514.5,119.4v1.6h1.1v1.2h-1.1v3.2c0,0.2,0.1,0.4,0.2,0.5s0.2,0.2,0.4,0.2c0.1,0,0.2,0,0.3,0s0.2,0,0.3,0
		l0.1,1.2c-0.2,0.1-0.4,0.1-0.6,0.1s-0.4,0-0.6,0c-0.6,0-1-0.2-1.4-0.5s-0.5-0.8-0.5-1.5v-3.2h-0.9V121h0.9v-1.6H514.5z"/>
</g>
<g class="st4">
	<path class="st16" d="M516.4,126.3l0.8-0.2v-6.7l-0.9-0.2v-1h2.6v3.6c0.2-0.3,0.4-0.5,0.7-0.7s0.6-0.2,1-0.2c0.7,0,1.2,0.2,1.6,0.7
		s0.6,1.1,0.6,2v2.6l0.8,0.2v1h-3.3v-1l0.7-0.2v-2.6c0-0.5-0.1-0.8-0.3-1s-0.4-0.3-0.8-0.3c-0.2,0-0.4,0-0.6,0.1s-0.3,0.2-0.4,0.4
		v3.4l0.7,0.2v1h-3.3v-1.1C516.3,126.3,516.4,126.3,516.4,126.3z"/>
</g>
<g class="st4">
	<path class="st16" d="M524.1,124.1c0-0.9,0.3-1.7,0.8-2.3s1.3-0.9,2.2-0.9s1.7,0.3,2.2,0.9s0.8,1.4,0.8,2.3v0.1
		c0,1-0.3,1.7-0.8,2.3s-1.3,0.9-2.2,0.9s-1.7-0.3-2.2-0.9S524.1,125.1,524.1,124.1L524.1,124.1z M525.8,124.2c0,0.6,0.1,1,0.3,1.4
		s0.5,0.5,1,0.5c0.4,0,0.8-0.2,1-0.5s0.3-0.8,0.3-1.4v-0.1c0-0.6-0.1-1-0.3-1.4s-0.5-0.5-1-0.5s-0.8,0.2-1,0.5
		S525.8,123.5,525.8,124.2L525.8,124.2z"/>
	<path class="st16" d="M530.7,126.3l0.8-0.2v-3.9l-0.9-0.2v-1h2.5l0.1,0.9c0.2-0.3,0.5-0.6,0.8-0.8s0.7-0.3,1-0.3
		c0.6,0,1.1,0.2,1.5,0.6s0.5,1,0.5,1.9v2.8l0.8,0.2v1h-3.3v-1l0.7-0.2v-2.8c0-0.4-0.1-0.7-0.3-0.9s-0.4-0.3-0.8-0.3
		c-0.2,0-0.4,0-0.6,0.1s-0.3,0.2-0.5,0.4v3.4l0.7,0.2v1h-3.2v-0.9C530.5,126.3,530.7,126.3,530.7,126.3z"/>
	<path class="st16" d="M548.3,121.6H547l-0.2-1.1c-0.2-0.2-0.4-0.3-0.6-0.4s-0.6-0.1-0.9-0.1c-0.7,0-1.3,0.3-1.7,0.8
		s-0.6,1.2-0.6,2.1v0.3c0,0.9,0.2,1.6,0.6,2.1s1,0.8,1.7,0.8c0.3,0,0.6,0,0.9-0.1s0.5-0.2,0.6-0.4l0.2-1.1h1.3v1.7
		c-0.3,0.4-0.8,0.7-1.3,1s-1.1,0.4-1.8,0.4c-1.1,0-2.1-0.4-2.8-1.2s-1.1-1.8-1.1-3.1V123c0-1.2,0.4-2.3,1.1-3.1s1.7-1.2,2.8-1.2
		c0.7,0,1.3,0.1,1.8,0.4s1,0.6,1.3,1V121.6z"/>
	<path class="st16" d="M549.1,124.1c0-0.9,0.3-1.7,0.8-2.3s1.3-0.9,2.2-0.9s1.7,0.3,2.2,0.9s0.8,1.4,0.8,2.3v0.1
		c0,1-0.3,1.7-0.8,2.3s-1.3,0.9-2.2,0.9s-1.7-0.3-2.2-0.9S549.1,125.1,549.1,124.1L549.1,124.1z M550.8,124.2c0,0.6,0.1,1,0.3,1.4
		s0.5,0.5,1,0.5c0.4,0,0.8-0.2,1-0.5s0.3-0.8,0.3-1.4v-0.1c0-0.6-0.1-1-0.3-1.4s-0.5-0.5-1-0.5s-0.8,0.2-1,0.5
		S550.8,123.5,550.8,124.2L550.8,124.2z"/>
	<path class="st16" d="M560,126.5c-0.2,0.3-0.4,0.5-0.7,0.7s-0.6,0.2-0.9,0.2c-0.8,0-1.4-0.3-1.8-0.9s-0.6-1.3-0.6-2.3v-0.1
		c0-1,0.2-1.8,0.7-2.4s1-0.9,1.8-0.9c0.3,0,0.6,0.1,0.9,0.2s0.5,0.3,0.7,0.6v-2.3l-0.9-0.2v-1h0.9h1.7v7.9l0.8,0.2v1h-2.3L560,126.5
		z M557.6,124.3c0,0.6,0.1,1,0.3,1.3s0.5,0.5,0.9,0.5c0.3,0,0.5-0.1,0.7-0.2s0.3-0.2,0.5-0.4v-2.7c-0.1-0.2-0.3-0.4-0.4-0.5
		s-0.4-0.2-0.6-0.2c-0.4,0-0.7,0.2-0.9,0.6s-0.3,0.9-0.3,1.5v0.1C557.8,124.3,557.6,124.3,557.6,124.3z"/>
	<path class="st16" d="M566,127.4c-0.9,0-1.6-0.3-2.2-0.9s-0.8-1.3-0.8-2.2v-0.2c0-0.9,0.3-1.7,0.8-2.3s1.2-0.9,2.1-0.9
		c0.9,0,1.5,0.3,2,0.8s0.7,1.2,0.7,2.1v0.9h-3.8l0,0c0,0.4,0.2,0.8,0.4,1s0.6,0.4,1,0.4s0.7,0,0.9-0.1s0.5-0.2,0.8-0.4l0.5,1.1
		c-0.3,0.2-0.6,0.4-1,0.5S566.5,127.4,566,127.4z M565.8,122.2c-0.3,0-0.6,0.1-0.8,0.4s-0.3,0.6-0.3,1l0,0h2.1v-0.2
		c0-0.4-0.1-0.7-0.3-0.9S566.2,122.2,565.8,122.2z"/>
</g>
<g id="Scone_logo_white-2">
	<g>
		<g>
			<g>
				<defs>
					<rect id="SVGID_00000107554463589349175860000009851470499460237483_" x="513.8" y="140.4" width="36.3" height="7.1"/>
				</defs>
				<clipPath id="SVGID_00000181801856936178197300000006798071376764562111_">
					<use xlink:href="#SVGID_00000107554463589349175860000009851470499460237483_"  style="overflow:visible;"/>
				</clipPath>
				<g style="clip-path:url(#SVGID_00000181801856936178197300000006798071376764562111_);">
					<g>
						<g>
							<g>
								<defs>
									<rect id="SVGID_00000164479249803206742540000002965710986361814155_" x="513.8" y="140.4" width="36.3" height="7.1"/>
								</defs>
								<clipPath id="SVGID_00000005267646544629114750000000373045317915445632_">
									<use xlink:href="#SVGID_00000164479249803206742540000002965710986361814155_"  style="overflow:visible;"/>
								</clipPath>
								<g style="clip-path:url(#SVGID_00000005267646544629114750000000373045317915445632_);">
									<path class="st12" d="M518.6,142.2h-0.8c-0.2,0-0.3,0.1-0.3,0.3v0.8c0,0.2,0.1,0.3,0.3,0.3l0,0h0.8c0.2,0,0.3-0.1,0.3-0.3
										v-0.8C518.9,142.4,518.7,142.2,518.6,142.2 M515.9,143.6h0.8c0.2,0,0.3-0.1,0.3-0.3l0,0v-0.8c0-0.2-0.1-0.3-0.3-0.3h-0.8
										c-0.2,0-0.3,0.1-0.3,0.3v0.8C515.6,143.5,515.7,143.6,515.9,143.6L515.9,143.6 M515.1,143.3v-0.8c0-0.2-0.1-0.3-0.3-0.3
										H514c-0.2,0-0.3,0.1-0.3,0.3v0.8c0,0.2,0.1,0.3,0.3,0.3l0,0h0.8C515,143.6,515.1,143.5,515.1,143.3 M518.6,144.1
										c-0.1,0-0.2,0.1-0.2,0.2v0.9c0,0.1,0.1,0.2,0.2,0.2c0.1,0,0.2-0.1,0.2-0.2v-0.9C518.9,144.3,518.8,144.2,518.6,144.1
										C518.7,144.1,518.6,144.1,518.6,144.1 M516.5,144.4v0.8c0,0.2,0.1,0.3,0.3,0.3h0.8c0.2,0,0.3-0.1,0.3-0.3v-0.8
										c0-0.2-0.1-0.3-0.3-0.3h-0.8C516.7,144.1,516.5,144.3,516.5,144.4 M516,145.2v-0.8c0-0.2-0.1-0.3-0.3-0.3h-0.8
										c-0.2,0-0.3,0.1-0.3,0.3v0.8c0,0.2,0.1,0.3,0.3,0.3h0.8C515.9,145.5,516,145.4,516,145.2 M518.6,146h-0.8
										c-0.2,0-0.3,0.1-0.3,0.3v0.8c0,0.2,0.1,0.3,0.3,0.3h0.8c0.2,0,0.3-0.1,0.3-0.3v-0.8C518.9,146.2,518.7,146,518.6,146
										 M516.6,146h-0.8c-0.2,0-0.3,0.1-0.3,0.3v0.8c0,0.2,0.1,0.3,0.3,0.3h0.8c0.2,0,0.3-0.1,0.3-0.3v-0.8
										C516.9,146.2,516.7,146,516.6,146"/>
									<path class="st12" d="M519.5,141.9c0.3,0.3,0.8,0.4,1.2,0.4c0,0,0,0,0,0.1v2.1c0,0.8-1,1.3-1.2,1.4l0,0V141.9L519.5,141.9"
										/>
									<path class="st12" d="M517.2,141.8c1.6-0.1,1.9-0.6,1.9-0.6s0,0,0.1,0h0.1c0,0,0.3,0.6,1.9,0.6c0,0,0,0,0,0.1v2.8
										c0,0.9-1.7,1.9-1.7,1.9s-0.1,0-0.1,0.1v0.7h0.1c0.6-0.3,2.3-1.3,2.3-2.5v-3.5c0-0.1-0.1-0.1-0.2-0.1c-2,0-2.4-0.7-2.4-0.7
										h-0.1H519c0,0-0.3,0.8-2.4,0.8c-0.1,0-0.1,0-0.1,0.1v0.4c0,0,0,0.1,0.1,0.1S517.1,141.9,517.2,141.8"/>
									<path class="st13" d="M523.4,146.3l0.8-0.3c0.2,0.4,0.6,0.6,1.1,0.6c0.2,0,0.4,0,0.6-0.1c0.2-0.1,0.3-0.3,0.3-0.4
										c0-0.4-0.6-0.7-1-0.9l0,0c-0.4-0.1-0.7-0.3-1-0.5s-0.5-0.6-0.5-1s0.2-0.8,0.5-1c0.3-0.3,0.8-0.4,1.2-0.4
										c0.7,0,1.3,0.3,1.6,0.9l-0.8,0.3c-0.1-0.1-0.2-0.2-0.3-0.3s-0.3-0.1-0.5-0.1c-0.5,0-0.8,0.3-0.8,0.6c0,0.2,0.1,0.4,0.3,0.5
										s0.5,0.3,0.7,0.4h0.1c0.6,0.3,1.4,0.6,1.4,1.4c0,0.4-0.2,0.8-0.6,1c-0.4,0.3-0.9,0.4-1.3,0.4c-0.8,0-1.5-0.4-1.9-1.1"/>
									<path class="st13" d="M530.7,147.4c-0.3,0-0.7-0.1-1-0.2c-0.3-0.1-0.6-0.3-0.8-0.6c-0.2-0.2-0.4-0.5-0.6-0.8
										c-0.1-0.3-0.2-0.7-0.2-1s0.1-0.7,0.2-1c0.3-0.6,0.8-1.1,1.4-1.4c0.3-0.1,0.7-0.2,1-0.2c0.4,0,0.8,0.1,1.2,0.3
										c0.3,0.2,0.7,0.4,0.9,0.8l-0.7,0.5c-0.2-0.2-0.4-0.4-0.6-0.5c-0.2-0.1-0.5-0.2-0.8-0.2c-0.5,0-0.9,0.2-1.2,0.5
										s-0.5,0.8-0.5,1.2c0,0.5,0.2,0.9,0.5,1.2s0.8,0.5,1.2,0.5c0.3,0,0.6-0.1,0.9-0.3c0.3-0.2,0.5-0.4,0.6-0.6l0.8,0.4
										c-0.2,0.4-0.5,0.8-0.9,1C531.6,147.4,531.1,147.5,530.7,147.4"/>
									<path class="st13" d="M536.3,147.4c-0.3,0-0.7-0.1-1-0.2c-0.6-0.3-1.1-0.8-1.4-1.4c-0.1-0.3-0.2-0.7-0.2-1s0.1-0.7,0.2-1
										c0.3-0.6,0.8-1.1,1.4-1.4c0.6-0.3,1.4-0.3,2,0c0.3,0.1,0.6,0.3,0.8,0.6c0.2,0.2,0.4,0.5,0.6,0.8c0.3,0.6,0.3,1.4,0,2
										c-0.1,0.3-0.3,0.6-0.6,0.8c-0.2,0.2-0.5,0.4-0.8,0.6C537,147.4,536.7,147.4,536.3,147.4 M536.3,143.1
										c-0.5,0-0.9,0.2-1.2,0.5s-0.5,0.8-0.5,1.2c0,0.5,0.2,0.9,0.5,1.2c0.7,0.7,1.8,0.7,2.5,0c0.3-0.3,0.5-0.8,0.5-1.2
										c0-0.5-0.2-0.9-0.5-1.2C537.2,143.3,536.8,143.1,536.3,143.1"/>
									<polygon class="st13" points="544.8,142.3 544.8,147.6 541.2,144.2 541.2,147.3 540.2,147.3 540.2,142.1 543.9,145.4 
										543.9,142.3 									"/>
									<polygon class="st13" points="547.3,143.1 547.3,144.4 549.8,144.4 549.8,145.2 547.3,145.2 547.3,146.6 550.1,146.6 
										550.1,147.3 546.3,147.3 546.3,142.3 550.1,142.3 550.1,143.1 									"/>
								</g>
							</g>
						</g>
					</g>
				</g>
			</g>
		</g>
	</g>
</g>
<path class="st17" d="M524,85.3c4.6-4.5,12.1-4.5,16.6,0.1s4.5,12.1-0.1,16.6s-12.1,4.5-16.6-0.1c-2.2-2.2-3.4-5.1-3.4-8.2
	c0-2.6,0.8-5.1,2.4-7.1"/>
<path class="st18" d="M532,99.3h-4.2c-0.6,0-0.8-0.2-0.8-0.8V92c0-0.6,0.2-0.8,0.8-0.8h8.5c0.5,0,0.8,0.2,0.8,0.8v6.5
	c0,0.5-0.2,0.8-0.8,0.8C534.8,99.4,533.3,99.3,532,99.3z"/>
<path class="st18" d="M527.6,90.7c0-1.8,1-3.4,2.6-4.1c2.1-0.9,4.6,0,5.5,2.2c0.1,0.2,0.2,0.5,0.2,0.7c0.1,0.4,0.1,0.8,0.2,1.2"/>
<path class="st16" d="M531.3,96.6L531.3,96.6v0.9c0,0.2,0.1,0.2,0.3,0.2h0.8c0.2,0,0.3-0.1,0.3-0.3v-1.6c0-0.2,0.1-0.3,0.2-0.4
	c0.5-0.3,0.8-0.9,0.6-1.4c-0.2-0.6-0.8-1-1.5-1c-0.7-0.1-1.3,0.3-1.6,0.9c-0.2,0.6,0,1.2,0.5,1.5c0.2,0.1,0.3,0.3,0.3,0.5
	C531.2,96.1,531.2,96.3,531.3,96.6z"/>
<g id="schrift">
	<line class="st27" x1="79.7" y1="122.9" x2="79.7" y2="156.8"/>
	<polygon class="st16" points="73.9,152.1 75,151.1 79.7,156.2 84.4,151.1 85.4,152.1 79.7,158.3 	"/>
	<g class="st4">
		<path class="st16" d="M92.7,143.3c-0.8,0-1.5-0.3-1.9-0.8c-0.5-0.5-0.7-1.2-0.7-2.1v-0.2c0-0.8,0.2-1.5,0.7-2.1
			c0.5-0.5,1.1-0.8,1.7-0.8c0.8,0,1.4,0.2,1.8,0.7s0.6,1.1,0.6,1.9v0.7h-3.8l0,0c0,0.6,0.2,1,0.4,1.4c0.3,0.4,0.7,0.5,1.1,0.5
			s0.7-0.1,0.9-0.2c0.3-0.1,0.5-0.2,0.7-0.4l0.4,0.7c-0.2,0.2-0.5,0.4-0.8,0.5C93.6,143.3,93.2,143.3,92.7,143.3z M92.6,138.1
			c-0.4,0-0.7,0.1-0.9,0.4s-0.4,0.7-0.5,1.1l0,0h2.7v-0.1c0-0.4-0.1-0.8-0.3-1S93,138.1,92.6,138.1z"/>
	</g>
	<g class="st4">
		<path class="st16" d="M95.8,142.5l0.9-0.2v-4.2l-0.9-0.2v-0.7h1.8l0.1,0.9c0.2-0.3,0.4-0.5,0.7-0.7s0.6-0.3,1-0.3
			c0.6,0,1.1,0.2,1.5,0.6s0.5,0.9,0.5,1.7v2.8l0.9,0.2v0.7h-2.8v-0.7l0.9-0.2v-2.8c0-0.5-0.1-0.9-0.3-1.1c-0.2-0.2-0.5-0.3-0.9-0.3
			c-0.3,0-0.6,0.1-0.8,0.2c-0.2,0.1-0.4,0.3-0.6,0.6v3.4l0.9,0.2v0.7h-2.8L95.8,142.5L95.8,142.5z"/>
	</g>
	<g class="st4">
		<path class="st16" d="M105.6,142.5c0.4,0,0.7-0.1,0.9-0.3s0.4-0.5,0.4-0.8h1l0,0c0,0.5-0.2,0.9-0.7,1.3c-0.5,0.4-1,0.6-1.6,0.6
			c-0.8,0-1.5-0.3-1.9-0.8c-0.4-0.6-0.7-1.2-0.7-2.1v-0.2c0-0.8,0.2-1.5,0.7-2.1c0.4-0.6,1.1-0.8,1.9-0.8c0.5,0,0.9,0.1,1.3,0.2
			c0.4,0.2,0.7,0.4,0.9,0.6v1.3H107l-0.2-0.9c-0.1-0.1-0.3-0.2-0.5-0.3s-0.4-0.1-0.7-0.1c-0.6,0-1,0.2-1.2,0.6s-0.4,0.9-0.4,1.5v0.2
			c0,0.6,0.1,1.1,0.4,1.5S105.1,142.5,105.6,142.5z"/>
	</g>
	<g class="st4">
		<path class="st16" d="M108.9,138.1v-0.7h1.8l0.1,0.8c0.2-0.3,0.4-0.5,0.6-0.7c0.2-0.2,0.5-0.3,0.8-0.3c0.1,0,0.2,0,0.3,0
			s0.2,0,0.2,0l-0.1,1H112c-0.3,0-0.5,0.1-0.7,0.2s-0.3,0.3-0.4,0.6v3.3l0.9,0.2v0.7H109v-0.7l0.9-0.2v-4.2L108.9,138.1z"/>
	</g>
	<g class="st4">
		<path class="st16" d="M119.1,138.1l-0.5,0.1l-2.2,5.9c-0.1,0.4-0.4,0.7-0.6,1s-0.6,0.4-1.1,0.4c-0.1,0-0.2,0-0.3,0s-0.2,0-0.3-0.1
			l0.1-0.8c0,0,0,0,0.2,0c0.1,0,0.2,0,0.3,0c0.2,0,0.4-0.1,0.5-0.3s0.3-0.4,0.4-0.7l0.3-0.6l-1.9-4.9l-0.5-0.1v-0.7h2.3v0.7
			l-0.7,0.1l1,2.9l0.2,0.7l0,0l1.2-3.6l-0.7-0.1v-0.7h2.3V138.1z"/>
		<path class="st16" d="M119.7,144.8l0.9-0.2v-6.4l-0.9-0.2v-0.7h1.8l0.1,0.7c0.2-0.3,0.4-0.5,0.7-0.6s0.6-0.2,1-0.2
			c0.7,0,1.3,0.3,1.7,0.9c0.4,0.6,0.6,1.3,0.6,2.3v0.1c0,0.8-0.2,1.5-0.6,2s-1,0.8-1.7,0.8c-0.4,0-0.7-0.1-0.9-0.2
			c-0.3-0.1-0.5-0.3-0.7-0.5v2l0.9,0.2v0.7h-2.8v-0.7L119.7,144.8L119.7,144.8z M124.5,140.4c0-0.7-0.1-1.2-0.4-1.6
			s-0.6-0.6-1.1-0.6c-0.3,0-0.6,0.1-0.8,0.2s-0.4,0.3-0.5,0.6v2.8c0.1,0.2,0.3,0.4,0.5,0.6c0.2,0.1,0.5,0.2,0.8,0.2
			c0.5,0,0.9-0.2,1.1-0.5s0.4-0.8,0.4-1.4V140.4z"/>
		<path class="st16" d="M128.3,136v1.4h1.1v0.8h-1.1v3.5c0,0.3,0.1,0.5,0.2,0.6c0.1,0.1,0.3,0.2,0.4,0.2c0.1,0,0.2,0,0.3,0
			s0.2,0,0.3-0.1l0.1,0.7c-0.1,0.1-0.2,0.1-0.4,0.2s-0.4,0.1-0.6,0.1c-0.4,0-0.8-0.1-1-0.4s-0.4-0.7-0.4-1.2v-3.5h-0.9v-0.8h0.9V136
			H128.3z"/>
	</g>
	<g class="st23">
		<path class="st24" d="M20.8,68.8h117.7c2.2,0,4,1.8,4,4v42c0,2.2-1.8,4-4,4H20.8c-2.2,0-4-1.8-4-4v-42
			C16.8,70.6,18.6,68.8,20.8,68.8z"/>
	</g>
	<g class="st4">
		<path class="st16" d="M46.7,89.7c1,0,1.7,0.3,2.3,0.8s0.8,1.2,0.8,2s-0.3,1.5-0.8,2s-1.3,0.7-2.3,0.7h-1.4V97l0.9,0.2v1h-3.5v-1
			l0.9-0.2v-6.1l-0.9-0.2v-1h0.9C43.6,89.7,46.7,89.7,46.7,89.7z M45.3,93.8h1.4c0.5,0,0.8-0.1,1.1-0.4s0.4-0.6,0.4-1
			s-0.1-0.7-0.4-1S47.2,91,46.7,91h-1.4C45.3,91,45.3,93.8,45.3,93.8z"/>
	</g>
	<g class="st4">
		<path class="st16" d="M57.1,92.9L56.5,93l-2.3,6.2c-0.2,0.5-0.4,0.8-0.7,1.1s-0.8,0.5-1.4,0.5c-0.1,0-0.3,0-0.4,0
			s-0.3-0.1-0.4-0.1l0.2-1.2c0.1,0,0.1,0,0.2,0s0.1,0,0.2,0c0.3,0,0.5-0.1,0.7-0.2s0.3-0.3,0.4-0.5l0.2-0.5l-2-5.2L50.6,93v-1h3.1v1
			h-1l0.9,2.5l0.1,0.5l0,0l1-3L54,92.9v-1h3.1V92.9z"/>
		<path class="st16" d="M60.2,90.3v1.6h1.1v1.2h-1.1v3.2c0,0.2,0.1,0.4,0.2,0.5s0.2,0.2,0.4,0.2c0.1,0,0.2,0,0.3,0s0.2,0,0.3,0
			l0.1,1.2c-0.2,0.1-0.4,0.1-0.6,0.1s-0.4,0-0.6,0c-0.6,0-1-0.2-1.4-0.5s-0.5-0.8-0.5-1.5v-3.2h-0.9v-1.2h0.9v-1.6
			C58.4,90.3,60.2,90.3,60.2,90.3z"/>
	</g>
	<g class="st4">
		<path class="st16" d="M62,97.2l0.8-0.2v-6.7L62,90.1v-1h2.6v3.6c0.2-0.3,0.4-0.5,0.7-0.7s0.6-0.2,1-0.2c0.7,0,1.2,0.2,1.6,0.7
			s0.6,1.1,0.6,2V97l0.8,0.2v1H66v-1l0.7-0.2v-2.6c0-0.5-0.1-0.8-0.3-1s-0.4-0.3-0.8-0.3c-0.2,0-0.4,0-0.6,0.1s-0.3,0.2-0.4,0.4V97
			l0.7,0.2v1H62V97.2z"/>
	</g>
	<g class="st4">
		<path class="st16" d="M69.7,95c0-0.9,0.3-1.7,0.8-2.3s1.3-0.9,2.2-0.9c0.9,0,1.7,0.3,2.2,0.9s0.8,1.4,0.8,2.3v0.1
			c0,1-0.3,1.7-0.8,2.3s-1.3,0.9-2.2,0.9c-0.9,0-1.7-0.3-2.2-0.9S69.7,96,69.7,95L69.7,95z M71.4,95.1c0,0.6,0.1,1,0.3,1.4
			s0.5,0.5,1,0.5c0.4,0,0.8-0.2,1-0.5s0.3-0.8,0.3-1.4V95c0-0.6-0.1-1-0.3-1.4s-0.5-0.5-1-0.5s-0.8,0.2-1,0.5S71.4,94.4,71.4,95.1
			L71.4,95.1z"/>
		<path class="st16" d="M76.3,97.2l0.8-0.2v-3.9l-0.9-0.2v-1h2.5l0.1,0.9c0.2-0.3,0.5-0.6,0.8-0.8s0.7-0.3,1-0.3
			c0.6,0,1.1,0.2,1.5,0.6s0.5,1,0.5,1.9V97l0.8,0.2v1h-3.3v-1L81,97v-2.8c0-0.4-0.1-0.7-0.3-0.9S80.3,93,79.9,93
			c-0.2,0-0.4,0-0.6,0.1s-0.3,0.2-0.5,0.4V97l0.7,0.2v1h-3.2C76.3,98.2,76.3,97.2,76.3,97.2z"/>
		<path class="st16" d="M93.9,92.6h-1.3l-0.2-1.1c-0.2-0.2-0.4-0.3-0.6-0.4S91.2,91,90.9,91c-0.7,0-1.3,0.3-1.7,0.8
			s-0.6,1.2-0.6,2.1v0.3c0,0.9,0.2,1.6,0.6,2.1s1,0.8,1.7,0.8c0.3,0,0.6,0,0.9-0.1s0.5-0.2,0.6-0.4l0.2-1.1h1.3V97
			c-0.3,0.4-0.8,0.7-1.3,1s-1.1,0.4-1.8,0.4c-1.1,0-2.1-0.4-2.8-1.2s-1.1-1.8-1.1-3.1v-0.3c0-1.2,0.4-2.3,1.1-3.1s1.7-1.2,2.8-1.2
			c0.7,0,1.3,0.1,1.8,0.4s1,0.6,1.3,1V92.6z"/>
		<path class="st16" d="M94.8,95c0-0.9,0.3-1.7,0.8-2.3s1.3-0.9,2.2-0.9s1.7,0.3,2.2,0.9s0.8,1.4,0.8,2.3v0.1c0,1-0.3,1.7-0.8,2.3
			s-1.3,0.9-2.2,0.9s-1.7-0.3-2.2-0.9S94.8,96,94.8,95L94.8,95z M96.5,95.1c0,0.6,0.1,1,0.3,1.4s0.5,0.5,1,0.5c0.4,0,0.8-0.2,1-0.5
			s0.3-0.8,0.3-1.4V95c0-0.6-0.1-1-0.3-1.4s-0.5-0.5-1-0.5s-0.8,0.2-1,0.5S96.5,94.4,96.5,95.1L96.5,95.1z"/>
		<path class="st16" d="M105.6,97.4c-0.2,0.3-0.4,0.5-0.7,0.7s-0.6,0.2-0.9,0.2c-0.8,0-1.4-0.3-1.8-0.9s-0.6-1.3-0.6-2.3V95
			c0-1,0.2-1.8,0.7-2.4s1-0.9,1.8-0.9c0.3,0,0.6,0.1,0.9,0.2s0.5,0.3,0.7,0.6v-2.3l-0.9-0.2v-1h0.9h1.7v8l0.8,0.2v1h-2.3L105.6,97.4
			z M103.2,95.2c0,0.6,0.1,1,0.3,1.3s0.5,0.5,0.9,0.5c0.3,0,0.5-0.1,0.7-0.2s0.3-0.2,0.5-0.4v-2.7c-0.1-0.2-0.3-0.4-0.4-0.5
			s-0.4-0.2-0.6-0.2c-0.4,0-0.7,0.2-0.9,0.6s-0.3,0.9-0.3,1.5v0.1C103.4,95.2,103.2,95.2,103.2,95.2z"/>
		<path class="st16" d="M111.6,98.3c-0.9,0-1.6-0.3-2.2-0.9s-0.8-1.3-0.8-2.2V95c0-0.9,0.3-1.7,0.8-2.3s1.2-0.9,2.1-0.9
			c0.9,0,1.5,0.3,2,0.8s0.7,1.2,0.7,2.1v0.9h-3.8l0,0c0,0.4,0.2,0.8,0.4,1s0.6,0.4,1,0.4s0.7,0,0.9-0.1s0.5-0.2,0.8-0.4l0.5,1.1
			c-0.3,0.2-0.6,0.4-1,0.5S112.1,98.3,111.6,98.3z M111.5,93.1c-0.3,0-0.6,0.1-0.8,0.4s-0.3,0.6-0.3,1l0,0h2.1v-0.2
			c0-0.4-0.1-0.7-0.3-0.9S111.8,93.1,111.5,93.1z"/>
	</g>
	<g class="st4">
		<path class="st21" d="M56.8,63.4c-0.2,0.3-0.4,0.5-0.6,0.7s-0.6,0.2-0.9,0.2c-0.6,0-1-0.2-1.3-0.6s-0.5-0.9-0.5-1.7v-2.4l-0.6-0.1
			v-0.6h0.6h1V62c0,0.6,0.1,1,0.2,1.2s0.4,0.3,0.8,0.3c0.3,0,0.6-0.1,0.8-0.2c0.2-0.1,0.4-0.3,0.5-0.6v-3.1L56,59.5v-0.6h0.7h1v4.5
			l0.6,0.1v0.6h-1.5L56.8,63.4z"/>
		<path class="st21" d="M58.9,63.6l0.8-0.1v-3.8l-0.8-0.1V59h1.7l0.1,0.8c0.2-0.3,0.4-0.5,0.7-0.7c0.3-0.2,0.6-0.2,0.9-0.2
			c0.6,0,1,0.2,1.3,0.5s0.5,0.8,0.5,1.5v2.6l0.8,0.1v0.6h-2.6v-0.6l0.8-0.1v-2.6c0-0.5-0.1-0.8-0.3-1s-0.5-0.3-0.8-0.3
			s-0.5,0.1-0.7,0.2s-0.4,0.3-0.5,0.5v3.1l0.8,0.1v0.6H59L58.9,63.6L58.9,63.6z"/>
	</g>
	<g class="st4">
		<path class="st21" d="M65.3,63.6l0.8-0.1v-3.8l-0.8-0.1V59H67l0.1,0.7c0.2-0.3,0.4-0.4,0.7-0.6s0.6-0.2,0.9-0.2s0.7,0.1,0.9,0.2
			s0.4,0.4,0.6,0.7c0.2-0.3,0.4-0.5,0.7-0.7s0.6-0.3,1-0.3c0.5,0,1,0.2,1.3,0.6c0.3,0.4,0.5,0.9,0.5,1.7v2.4l0.8,0.1v0.6h-2.6v-0.6
			l0.8-0.1V61c0-0.5-0.1-0.9-0.3-1.1c-0.2-0.2-0.4-0.3-0.8-0.3c-0.3,0-0.6,0.1-0.8,0.4c-0.2,0.2-0.3,0.5-0.4,0.9v2.6l0.8,0.1v0.6
			h-2.6v-0.6l0.8-0.1V61c0-0.5-0.1-0.9-0.3-1.1c-0.2-0.2-0.5-0.3-0.8-0.3s-0.5,0.1-0.7,0.2s-0.3,0.3-0.4,0.5v3.2l0.8,0.1v0.6h-2.6
			L65.3,63.6L65.3,63.6z"/>
	</g>
	<g class="st4">
		<path class="st21" d="M74.9,61.5c0-0.8,0.2-1.4,0.6-1.9s1-0.8,1.7-0.8s1.3,0.3,1.7,0.8s0.6,1.1,0.6,1.9v0.1c0,0.8-0.2,1.4-0.6,1.9
			s-1,0.8-1.7,0.8s-1.3-0.3-1.7-0.8c-0.4-0.5-0.6-1.1-0.6-1.9V61.5z M75.9,61.6c0,0.6,0.1,1,0.4,1.4c0.2,0.4,0.6,0.5,1.1,0.5
			s0.8-0.2,1-0.5c0.2-0.4,0.4-0.8,0.4-1.4v-0.1c0-0.6-0.1-1-0.4-1.4c-0.2-0.4-0.6-0.6-1-0.6c-0.5,0-0.8,0.2-1,0.6S76,60.9,75.9,61.6
			L75.9,61.6L75.9,61.6z"/>
		<path class="st21" d="M84.1,63.6c-0.2,0.2-0.4,0.4-0.6,0.5s-0.5,0.2-0.9,0.2c-0.6,0-1.1-0.2-1.5-0.7c-0.4-0.5-0.5-1.1-0.5-1.8
			v-0.1c0-0.8,0.2-1.5,0.5-2.1c0.4-0.5,0.9-0.8,1.5-0.8c0.3,0,0.6,0.1,0.8,0.2c0.2,0.1,0.4,0.3,0.6,0.5v-2.2l-0.8-0.1v-0.6H84h1v6.9
			l0.8,0.1v0.6h-1.6L84.1,63.6z M81.5,61.8c0,0.5,0.1,1,0.3,1.3c0.2,0.3,0.6,0.5,1,0.5c0.3,0,0.5-0.1,0.7-0.2s0.4-0.3,0.5-0.6v-2.5
			c-0.1-0.2-0.3-0.4-0.5-0.5s-0.4-0.2-0.7-0.2c-0.5,0-0.8,0.2-1,0.6s-0.3,0.9-0.3,1.5V61.8z"/>
		<path class="st21" d="M86.5,63.6l0.8-0.1v-3.8l-0.8-0.1V59h1.8v4.5l0.8,0.1v0.6h-2.6C86.5,64.2,86.5,63.6,86.5,63.6z M88.3,57.6
			h-1v-1h1V57.6z"/>
		<path class="st21" d="M89.6,59.6v-0.7h0.8v-0.6c0-0.6,0.2-1.1,0.5-1.4c0.3-0.3,0.8-0.5,1.4-0.5c0.2,0,0.4,0,0.6,0.1
			s0.5,0.1,0.7,0.2l-0.2,0.8c-0.2-0.1-0.4-0.1-0.6-0.2s-0.4-0.1-0.6-0.1c-0.4,0-0.7,0.1-0.8,0.3c-0.2,0.2-0.3,0.4-0.3,0.8v0.6h3v4.5
			l0.8,0.1v0.6h-2.6v-0.6l0.8-0.1v-3.8H91v3.8l0.8,0.1v0.6h-2.6v-0.6l0.8-0.1v-3.8C90,59.6,89.6,59.6,89.6,59.6z"/>
		<path class="st21" d="M98.3,64.3c-0.7,0-1.3-0.2-1.8-0.7c-0.4-0.5-0.7-1.1-0.7-1.9v-0.2c0-0.8,0.2-1.4,0.7-1.9
			c0.4-0.5,1-0.8,1.6-0.8c0.7,0,1.2,0.2,1.6,0.6s0.5,1,0.5,1.7v0.6h-3.4l0,0c0,0.5,0.1,0.9,0.4,1.3c0.2,0.3,0.6,0.5,1,0.5
			c0.3,0,0.6,0,0.9-0.1c0.2-0.1,0.5-0.2,0.6-0.4l0.4,0.6c-0.2,0.2-0.4,0.3-0.7,0.5C99.1,64.2,98.7,64.3,98.3,64.3z M98.1,59.6
			c-0.3,0-0.6,0.1-0.8,0.4c-0.2,0.3-0.4,0.6-0.4,1l0,0h2.4v-0.1c0-0.4-0.1-0.7-0.3-0.9C98.8,59.7,98.5,59.6,98.1,59.6z"/>
		<path class="st21" d="M104.8,63.6c-0.2,0.2-0.4,0.4-0.6,0.5s-0.5,0.2-0.9,0.2c-0.6,0-1.1-0.2-1.5-0.7c-0.4-0.5-0.5-1.1-0.5-1.8
			v-0.1c0-0.8,0.2-1.5,0.5-2.1c0.4-0.5,0.9-0.8,1.5-0.8c0.3,0,0.6,0.1,0.8,0.2c0.2,0.1,0.4,0.3,0.6,0.5v-2.2l-0.8-0.1v-0.6h0.8h1
			v6.9l0.8,0.1v0.6h-1.6L104.8,63.6z M102.2,61.8c0,0.5,0.1,1,0.3,1.3s0.6,0.5,1,0.5c0.3,0,0.5-0.1,0.7-0.2s0.4-0.3,0.5-0.6v-2.5
			c-0.1-0.2-0.3-0.4-0.5-0.5s-0.4-0.2-0.7-0.2c-0.5,0-0.8,0.2-1,0.6s-0.3,0.9-0.3,1.5V61.8z"/>
	</g>
	<g class="st4">
		<path class="st5" d="M517.4,166.5c-0.7,0-1.3-0.2-1.8-0.7c-0.4-0.5-0.7-1.1-0.7-1.9v-0.2c0-0.8,0.2-1.4,0.7-1.9
			c0.4-0.5,1-0.8,1.6-0.8c0.7,0,1.2,0.2,1.6,0.6s0.5,1,0.5,1.7v0.6H516l0,0c0,0.5,0.1,0.9,0.4,1.3c0.2,0.3,0.6,0.5,1,0.5
			c0.3,0,0.6,0,0.9-0.1c0.2-0.1,0.5-0.2,0.6-0.4l0.4,0.6c-0.2,0.2-0.4,0.3-0.7,0.5C518.2,166.4,517.8,166.5,517.4,166.5z
			 M517.2,161.7c-0.3,0-0.6,0.1-0.8,0.4c-0.2,0.3-0.4,0.6-0.4,1l0,0h2.4V163c0-0.4-0.1-0.7-0.3-0.9S517.6,161.7,517.2,161.7z"/>
	</g>
	<g class="st4">
		<path class="st5" d="M520.2,165.8l0.8-0.1v-3.8l-0.8-0.1v-0.6h1.7l0.1,0.8c0.2-0.3,0.4-0.5,0.7-0.7s0.6-0.2,0.9-0.2
			c0.6,0,1,0.2,1.3,0.5s0.5,0.8,0.5,1.5v2.6l0.8,0.1v0.6h-2.6v-0.6l0.8-0.1v-2.6c0-0.5-0.1-0.8-0.3-1s-0.5-0.3-0.8-0.3
			s-0.5,0.1-0.7,0.2c-0.2,0.1-0.4,0.3-0.5,0.5v3.1l0.8,0.1v0.6h-2.6v-0.5H520.2z"/>
	</g>
	<g class="st4">
		<path class="st5" d="M529.1,165.7c0.3,0,0.6-0.1,0.8-0.3s0.4-0.4,0.4-0.7h0.9l0,0c0,0.5-0.2,0.9-0.6,1.2c-0.4,0.4-0.9,0.5-1.5,0.5
			c-0.8,0-1.4-0.3-1.8-0.8s-0.6-1.1-0.6-1.9v-0.2c0-0.8,0.2-1.4,0.6-1.9c0.4-0.5,1-0.8,1.8-0.8c0.4,0,0.8,0.1,1.1,0.2
			s0.6,0.3,0.8,0.6v1.2h-0.8L530,162c-0.1-0.1-0.3-0.2-0.4-0.3c-0.2-0.1-0.4-0.1-0.6-0.1c-0.5,0-0.9,0.2-1.1,0.5
			c-0.2,0.4-0.3,0.8-0.3,1.3v0.2c0,0.5,0.1,1,0.3,1.3C528.2,165.5,528.6,165.7,529.1,165.7z"/>
		<path class="st5" d="M532,159.4v-0.6h1.8v6.9l0.8,0.1v0.6H532v-0.6l0.8-0.1v-6.1L532,159.4z"/>
	</g>
	<g class="st4">
		<path class="st5" d="M538.7,166.4c0-0.1-0.1-0.3-0.1-0.4c0-0.1,0-0.2,0-0.3c-0.2,0.2-0.4,0.4-0.7,0.6c-0.3,0.2-0.6,0.2-0.9,0.2
			c-0.6,0-1-0.1-1.3-0.4c-0.3-0.3-0.4-0.6-0.4-1.1s0.2-0.9,0.6-1.2c0.4-0.3,1-0.4,1.7-0.4h1v-0.6c0-0.3-0.1-0.6-0.3-0.7
			c-0.2-0.2-0.5-0.3-0.8-0.3c-0.2,0-0.5,0-0.6,0.1c-0.2,0.1-0.3,0.1-0.4,0.3l-0.1,0.6h-0.7v-1c0.2-0.2,0.5-0.3,0.9-0.5
			c0.3-0.1,0.7-0.2,1.1-0.2c0.6,0,1.1,0.2,1.5,0.5s0.6,0.7,0.6,1.3v2.5c0,0.1,0,0.1,0,0.2c0,0.1,0,0.1,0,0.2l0.4,0.1v0.6h-1.5V166.4
			z M537.2,165.7c0.3,0,0.6-0.1,0.9-0.2s0.5-0.3,0.6-0.6V164h-1c-0.4,0-0.7,0.1-0.9,0.3s-0.3,0.4-0.3,0.7c0,0.2,0.1,0.4,0.2,0.5
			C536.6,165.6,536.9,165.7,537.2,165.7z"/>
	</g>
	<g class="st4">
		<path class="st5" d="M542.5,161.7l-0.6,0.1l1.1,3l0.1,0.4l0,0l0.1-0.4l1.1-3l-0.6-0.1v-0.6h2v0.6l-0.4,0.1l-1.8,4.6h-0.7l-1.8-4.6
			l-0.4-0.1v-0.6h2L542.5,161.7L542.5,161.7z"/>
	</g>
	<g class="st4">
		<path class="st5" d="M548.6,166.5c-0.7,0-1.3-0.2-1.8-0.7c-0.4-0.5-0.7-1.1-0.7-1.9v-0.2c0-0.8,0.2-1.4,0.7-1.9
			c0.4-0.5,1-0.8,1.6-0.8c0.7,0,1.2,0.2,1.6,0.6s0.5,1,0.5,1.7v0.6h-3.4l0,0c0,0.5,0.1,0.9,0.4,1.3c0.2,0.3,0.6,0.5,1,0.5
			c0.3,0,0.6,0,0.9-0.1c0.2-0.1,0.5-0.2,0.6-0.4l0.4,0.6c-0.2,0.2-0.4,0.3-0.7,0.5C549.4,166.4,549.1,166.5,548.6,166.5z
			 M548.5,161.7c-0.3,0-0.6,0.1-0.8,0.4c-0.2,0.3-0.4,0.6-0.4,1l0,0h2.4V163c0-0.4-0.1-0.7-0.3-0.9S548.9,161.7,548.5,161.7z"/>
	</g>
	<path class="st28" d="M604.8,34.1h-4.2c-0.6,0-0.8-0.2-0.8-0.8v-6.5c0-0.6,0.2-0.8,0.8-0.8h8.5c0.5,0,0.8,0.2,0.8,0.8v6.5
		c0,0.5-0.2,0.8-0.8,0.8C607.6,34.2,606.2,34.1,604.8,34.1z"/>
	<path class="st28" d="M603.5,17.9c1.6-0.7,3.5-0.5,4.8,0.7c1.7,1.6,1.9,4.2,0.3,5.9c-0.2,0.2-0.3,0.3-0.5,0.5
		c-0.3,0.3-0.7,0.4-1,0.7"/>
	<path class="st29" d="M604.1,31.4L604.1,31.4v0.9c0,0.2,0.1,0.2,0.3,0.2h0.8c0.2,0,0.3-0.1,0.3-0.3v-1.6c0-0.2,0.1-0.3,0.2-0.4
		c0.5-0.3,0.8-0.9,0.6-1.5s-0.8-1-1.5-1c-0.7-0.1-1.3,0.3-1.6,0.9c-0.2,0.6,0,1.2,0.5,1.5c0.2,0.1,0.3,0.3,0.3,0.5
		C604.1,30.9,604.1,31.1,604.1,31.4z"/>
	<g class="st4">
		<path class="st5" d="M510.6,25.8v1l-0.9,0.2v4.5c0,0.6,0.2,1,0.5,1.3s0.7,0.4,1.2,0.4s1-0.1,1.3-0.4s0.5-0.7,0.5-1.3V27l-0.9-0.2
			v-1h3.5v1l-0.9,0.2v4.5c0,1-0.3,1.7-0.9,2.2s-1.5,0.8-2.5,0.8s-1.8-0.3-2.5-0.8s-0.9-1.3-0.9-2.2V27l-0.9-0.2v-1h0.9h1.7H510.6z"
			/>
		<path class="st5" d="M516.2,33.3l0.8-0.2v-3.9l-0.9-0.2v-1h2.5l0.1,0.9c0.2-0.3,0.5-0.6,0.8-0.8s0.7-0.3,1-0.3
			c0.6,0,1.1,0.2,1.5,0.6s0.5,1,0.5,1.9v2.8l0.8,0.2v1H520v-1l0.7-0.2v-2.8c0-0.4-0.1-0.7-0.3-0.9s-0.4-0.3-0.8-0.3
			c-0.2,0-0.4,0-0.6,0.1s-0.3,0.2-0.5,0.4V33l0.7,0.2v1H516v-0.9H516.2z"/>
		<path class="st5" d="M526.4,26.4V28h1.1v1.2h-1.1v3.2c0,0.2,0.1,0.4,0.2,0.5s0.2,0.2,0.4,0.2c0.1,0,0.2,0,0.3,0s0.2,0,0.3,0
			l0.1,1.2c-0.2,0.1-0.4,0.1-0.6,0.1s-0.4,0-0.6,0c-0.6,0-1-0.2-1.4-0.5s-0.5-0.8-0.5-1.5v-3.2h-0.9V28h0.9v-1.6H526.4z"/>
		<path class="st5" d="M528.5,33.3l0.8-0.2v-3.9l-0.9-0.2v-1h2.5l0.1,0.9c0.1-0.3,0.3-0.6,0.6-0.8s0.5-0.3,0.8-0.3
			c0.1,0,0.2,0,0.3,0s0.2,0,0.2,0l-0.2,1.6H532c-0.3,0-0.5,0-0.6,0.1s-0.3,0.2-0.4,0.4V33l0.8,0.2v1h-3.4v-0.9H528.5z"/>
		<path class="st5" d="M537.9,33.5c-0.2,0.3-0.5,0.5-0.8,0.7s-0.6,0.2-1,0.2c-0.7,0-1.2-0.2-1.6-0.6s-0.6-1.1-0.6-2v-2.6l-0.7-0.2
			v-1h0.7h1.7v3.8c0,0.5,0.1,0.8,0.2,1s0.4,0.3,0.7,0.3s0.5,0,0.7-0.1s0.4-0.2,0.5-0.4v-3.4L537,29v-1h0.8h1.7v5.1l0.8,0.2v1H538
			L537.9,33.5z"/>
		<path class="st5" d="M546.1,30.1H545l-0.2-0.8c-0.1-0.1-0.3-0.2-0.4-0.2S544,29,543.8,29c-0.3,0-0.5,0.1-0.7,0.2s-0.3,0.3-0.3,0.5
			s0.1,0.4,0.3,0.5s0.5,0.2,1,0.3c0.8,0.2,1.4,0.4,1.7,0.7s0.6,0.7,0.6,1.3s-0.2,1-0.7,1.4s-1.1,0.5-1.9,0.5c-0.5,0-0.9-0.1-1.3-0.2
			s-0.8-0.3-1.1-0.6v-1.4h1.2l0.2,0.8c0.1,0.1,0.2,0.1,0.4,0.2s0.4,0.1,0.6,0.1c0.3,0,0.6-0.1,0.8-0.2s0.3-0.3,0.3-0.5
			s-0.1-0.3-0.3-0.5s-0.5-0.3-1-0.4c-0.7-0.2-1.3-0.4-1.7-0.7s-0.6-0.7-0.6-1.2s0.2-1,0.7-1.4s1.1-0.6,1.9-0.6c0.5,0,1,0.1,1.4,0.2
			s0.8,0.3,1,0.5L546.1,30.1z"/>
		<path class="st5" d="M549.6,26.4V28h1.1v1.2h-1.1v3.2c0,0.2,0.1,0.4,0.2,0.5s0.2,0.2,0.4,0.2c0.1,0,0.2,0,0.3,0s0.2,0,0.3,0
			l0.1,1.2c-0.2,0.1-0.4,0.1-0.6,0.1s-0.4,0-0.6,0c-0.6,0-1-0.2-1.4-0.5s-0.5-0.8-0.5-1.5v-3.2H547V28h0.9v-1.6H549.6z"/>
		<path class="st5" d="M554.6,34.4c-0.9,0-1.6-0.3-2.2-0.9s-0.8-1.3-0.8-2.2v-0.2c0-0.9,0.3-1.7,0.8-2.3s1.2-0.9,2.1-0.9
			c0.9,0,1.5,0.3,2,0.8s0.7,1.2,0.7,2.1v0.9h-3.8l0,0c0,0.4,0.2,0.8,0.4,1s0.6,0.4,1,0.4s0.7,0,0.9-0.1s0.5-0.2,0.8-0.4l0.5,1.1
			c-0.3,0.2-0.6,0.4-1,0.5S555.1,34.4,554.6,34.4z M554.4,29.2c-0.3,0-0.6,0.1-0.8,0.4s-0.3,0.6-0.3,1l0,0h2.1v-0.2
			c0-0.4-0.1-0.7-0.3-0.9S554.8,29.2,554.4,29.2z"/>
		<path class="st5" d="M562.1,33.5c-0.2,0.3-0.4,0.5-0.7,0.7s-0.6,0.2-0.9,0.2c-0.8,0-1.4-0.3-1.8-0.9s-0.6-1.3-0.6-2.3v-0.1
			c0-1,0.2-1.8,0.7-2.4s1-0.9,1.8-0.9c0.3,0,0.6,0.1,0.9,0.2s0.5,0.3,0.7,0.6v-2.3l-0.9-0.2v-1h0.9h1.7V33l0.8,0.2v1h-2.3
			L562.1,33.5z M559.7,31.3c0,0.6,0.1,1,0.3,1.3s0.5,0.5,0.9,0.5c0.3,0,0.5-0.1,0.7-0.2s0.3-0.2,0.5-0.4v-2.7
			c-0.1-0.2-0.3-0.4-0.4-0.5s-0.4-0.2-0.6-0.2c-0.4,0-0.7,0.2-0.9,0.6s-0.3,0.9-0.3,1.5v0.1C559.9,31.3,559.7,31.3,559.7,31.3z"/>
	</g>
	<g class="st4">
		<path class="st5" d="M567.9,33.3l0.8-0.2v-6.7l-0.9-0.2v-1h2.6v3.6c0.2-0.3,0.4-0.5,0.7-0.7s0.6-0.2,1-0.2c0.7,0,1.2,0.2,1.6,0.7
			s0.6,1.1,0.6,2v2.6l0.8,0.2v1h-3.3v-1l0.7-0.2v-2.6c0-0.5-0.1-0.8-0.3-1s-0.4-0.3-0.8-0.3c-0.2,0-0.4,0-0.6,0.1s-0.3,0.2-0.4,0.4
			v3.4l0.7,0.2v1h-3.3v-1.1H567.9z"/>
	</g>
	<g class="st4">
		<path class="st5" d="M575.6,31.1c0-0.9,0.3-1.7,0.8-2.3s1.3-0.9,2.2-0.9s1.7,0.3,2.2,0.9s0.8,1.4,0.8,2.3v0.1c0,1-0.3,1.7-0.8,2.3
			s-1.3,0.9-2.2,0.9s-1.7-0.3-2.2-0.9s-0.8-1.4-0.8-2.3V31.1z M577.3,31.2c0,0.6,0.1,1,0.3,1.4s0.5,0.5,1,0.5c0.4,0,0.8-0.2,1-0.5
			s0.3-0.8,0.3-1.4v-0.1c0-0.6-0.1-1-0.3-1.4s-0.5-0.5-1-0.5s-0.8,0.2-1,0.5S577.3,30.5,577.3,31.2L577.3,31.2z"/>
		<path class="st5" d="M587.5,30.1h-1.1l-0.2-0.8c-0.1-0.1-0.3-0.2-0.4-0.2s-0.4-0.1-0.6-0.1c-0.3,0-0.5,0.1-0.7,0.2
			s-0.3,0.3-0.3,0.5s0.1,0.4,0.3,0.5s0.5,0.2,1,0.3c0.8,0.2,1.4,0.4,1.7,0.7s0.6,0.7,0.6,1.3s-0.2,1-0.7,1.4s-1.1,0.5-1.9,0.5
			c-0.5,0-0.9-0.1-1.3-0.2s-0.8-0.3-1.1-0.6v-1.4h1.2V33c0.1,0.1,0.2,0.1,0.4,0.2s0.4,0.1,0.6,0.1c0.3,0,0.6-0.1,0.8-0.2
			s0.3-0.3,0.3-0.5s-0.1-0.3-0.3-0.5s-0.5-0.3-1-0.4c-0.7-0.2-1.3-0.4-1.7-0.7s-0.6-0.7-0.6-1.2s0.2-1,0.7-1.4s1.1-0.6,1.9-0.6
			c0.5,0,1,0.1,1.4,0.2s0.8,0.3,1,0.5L587.5,30.1z"/>
		<path class="st5" d="M591,26.4V28h1.1v1.2H591v3.2c0,0.2,0.1,0.4,0.2,0.5s0.2,0.2,0.4,0.2c0.1,0,0.2,0,0.3,0s0.2,0,0.3,0l0.1,1.2
			c-0.2,0.1-0.4,0.1-0.6,0.1s-0.4,0-0.6,0c-0.6,0-1-0.2-1.4-0.5s-0.5-0.8-0.5-1.5v-3.2h-0.9V28h0.9v-1.6H591z"/>
	</g>
	<path class="st18" d="M7.8,30.9H3.6c-0.6,0-0.8-0.2-0.8-0.8v-6.5c0-0.6,0.2-0.8,0.8-0.8H12c0.5,0,0.8,0.2,0.8,0.8v6.5
		c0,0.5-0.2,0.8-0.8,0.8C10.6,31,9.2,30.9,7.8,30.9z"/>
	<path class="st18" d="M3.5,22.3c0-1.8,1-3.4,2.6-4.1c2.1-0.9,4.6,0,5.5,2.1c0.1,0.2,0.2,0.5,0.2,0.7c0.1,0.4,0.1,0.8,0.2,1.2"/>
	<path class="st16" d="M7.1,28.2L7.1,28.2v0.9c0,0.2,0.1,0.2,0.3,0.2h0.8c0.2,0,0.3-0.1,0.3-0.3v-1.6c0-0.2,0.1-0.3,0.2-0.4
		c0.5-0.3,0.8-0.9,0.6-1.4c-0.2-0.6-0.8-1-1.4-1c-0.7-0.1-1.3,0.3-1.6,0.9s0,1.3,0.5,1.5c0.2,0.1,0.3,0.3,0.3,0.5
		C7.1,27.7,7.1,27.9,7.1,28.2z"/>
	<g class="st4">
		<path class="st5" d="M27.9,23.7V26h-1.3l-0.1-1H25v6l0.9,0.2v1h-3.5v-1l0.9-0.2v-6h-1.6l-0.1,1h-1.3v-2.3H27.9z"/>
	</g>
	<g class="st4">
		<path class="st5" d="M28.3,31.2l0.8-0.2v-3.9l-0.9-0.2v-1h2.5l0.1,0.9c0.1-0.3,0.3-0.6,0.6-0.8s0.5-0.3,0.8-0.3c0.1,0,0.2,0,0.3,0
			s0.2,0,0.2,0l-0.2,1.6h-0.7c-0.3,0-0.5,0-0.6,0.1s-0.3,0.2-0.4,0.4V31l0.8,0.2v1h-3.4L28.3,31.2L28.3,31.2z"/>
		<path class="st5" d="M37.6,31.4c-0.2,0.3-0.5,0.5-0.8,0.7c-0.3,0.2-0.6,0.2-1,0.2c-0.7,0-1.2-0.2-1.6-0.6s-0.6-1.1-0.6-2v-2.6
			L33,26.9v-1h0.7h1.7v3.8c0,0.5,0.1,0.8,0.2,1S36,31,36.3,31s0.5,0,0.7-0.1s0.4-0.2,0.5-0.4v-3.4l-0.8-0.2v-1h0.8h1.7V31l0.8,0.2v1
			h-2.3L37.6,31.4z"/>
		<path class="st5" d="M45.8,28.1h-1.1l-0.2-0.8c-0.1-0.1-0.3-0.2-0.4-0.2S43.7,27,43.5,27c-0.3,0-0.5,0.1-0.7,0.2s-0.3,0.3-0.3,0.5
			s0.1,0.4,0.3,0.5s0.5,0.2,1,0.3c0.8,0.2,1.4,0.4,1.7,0.7s0.6,0.7,0.6,1.3c0,0.6-0.2,1-0.7,1.4s-1.1,0.5-1.9,0.5
			c-0.5,0-0.9-0.1-1.3-0.2s-0.8-0.3-1.1-0.6v-1.4h1.2l0.2,0.8c0.1,0.1,0.2,0.1,0.4,0.2s0.4,0.1,0.6,0.1c0.3,0,0.6-0.1,0.8-0.2
			s0.3-0.3,0.3-0.5s-0.1-0.3-0.3-0.5s-0.5-0.3-1-0.4c-0.7-0.2-1.3-0.4-1.7-0.7S41,28.3,41,27.8s0.2-1,0.7-1.4s1.1-0.6,1.9-0.6
			c0.5,0,1,0.1,1.4,0.2s0.8,0.3,1,0.5L45.8,28.1z"/>
		<path class="st5" d="M49.4,24.4V26h1.1v1.2h-1.1v3.2c0,0.2,0.1,0.4,0.2,0.5s0.2,0.2,0.4,0.2c0.1,0,0.2,0,0.3,0s0.2,0,0.3,0
			l0.1,1.2c-0.2,0.1-0.4,0.1-0.6,0.1s-0.4,0-0.6,0c-0.6,0-1-0.2-1.4-0.5s-0.5-0.8-0.5-1.5v-3.2h-0.9V26h0.9v-1.6H49.4z"/>
		<path class="st5" d="M54.4,32.4c-0.9,0-1.6-0.3-2.2-0.9s-0.8-1.3-0.8-2.2V29c0-0.9,0.3-1.7,0.8-2.3s1.2-0.9,2.1-0.9s1.5,0.3,2,0.8
			s0.7,1.2,0.7,2.1v0.9h-3.8l0,0c0,0.4,0.2,0.8,0.4,1s0.6,0.4,1,0.4s0.7,0,0.9-0.1s0.5-0.2,0.8-0.4l0.5,1.1c-0.3,0.2-0.6,0.4-1,0.5
			S54.9,32.4,54.4,32.4z M54.2,27.1c-0.3,0-0.6,0.1-0.8,0.4s-0.3,0.6-0.3,1l0,0h2.1v-0.2c0-0.4-0.1-0.7-0.3-0.9S54.5,27.1,54.2,27.1
			z"/>
		<path class="st5" d="M61.8,31.5c-0.2,0.3-0.4,0.5-0.7,0.7s-0.6,0.2-0.9,0.2c-0.8,0-1.4-0.3-1.8-0.9s-0.6-1.3-0.6-2.3v-0.1
			c0-1,0.2-1.8,0.7-2.4s1-0.9,1.8-0.9c0.3,0,0.6,0.1,0.9,0.2s0.5,0.3,0.7,0.6v-2.3L61,24.1v-1h0.9h1.7V31l0.8,0.2v1H62L61.8,31.5z
			 M59.4,29.3c0,0.6,0.1,1,0.3,1.3s0.5,0.5,0.9,0.5c0.3,0,0.5-0.1,0.7-0.2s0.3-0.2,0.5-0.4v-2.7c-0.1-0.2-0.3-0.4-0.4-0.5
			s-0.4-0.2-0.6-0.2c-0.4,0-0.7,0.2-0.9,0.6s-0.3,0.9-0.3,1.5v0.1C59.6,29.3,59.4,29.3,59.4,29.3z"/>
	</g>
	<g class="st4">
		<path class="st5" d="M67.7,31.2l0.8-0.2v-6.7l-0.9-0.2v-1h2.6v3.6c0.2-0.3,0.4-0.5,0.7-0.7s0.6-0.2,1-0.2c0.7,0,1.2,0.2,1.6,0.7
			s0.6,1.1,0.6,2V31l0.8,0.2v1h-3.3v-1l0.7-0.2v-2.6c0-0.5-0.1-0.8-0.3-1s-0.4-0.3-0.8-0.3c-0.2,0-0.4,0-0.6,0.1s-0.3,0.2-0.4,0.4
			V31l0.7,0.2v1h-3.3v-1H67.7z"/>
	</g>
	<g class="st4">
		<path class="st5" d="M75.3,29c0-0.9,0.3-1.7,0.8-2.3s1.3-0.9,2.2-0.9c0.9,0,1.7,0.3,2.2,0.9s0.8,1.4,0.8,2.3v0.1
			c0,1-0.3,1.7-0.8,2.3s-1.3,0.9-2.2,0.9c-0.9,0-1.7-0.3-2.2-0.9s-0.8-1.4-0.8-2.3V29z M77,29.1c0,0.6,0.1,1,0.3,1.4s0.5,0.5,1,0.5
			c0.4,0,0.8-0.2,1-0.5s0.3-0.8,0.3-1.4V29c0-0.6-0.1-1-0.3-1.4s-0.5-0.5-1-0.5s-0.8,0.2-1,0.5S77,28.5,77,29V29.1z"/>
		<path class="st5" d="M87.2,28.1h-1.1l-0.2-0.8c-0.1-0.1-0.3-0.2-0.4-0.2S85.1,27,84.9,27c-0.3,0-0.5,0.1-0.7,0.2s-0.3,0.3-0.3,0.5
			s0.1,0.4,0.3,0.5s0.5,0.2,1,0.3c0.8,0.2,1.4,0.4,1.7,0.7s0.6,0.7,0.6,1.3c0,0.6-0.2,1-0.7,1.4s-1.1,0.5-1.9,0.5
			c-0.5,0-0.9-0.1-1.3-0.2s-0.8-0.3-1.1-0.6v-1.4h1.2l0.2,0.8c0.1,0.1,0.2,0.1,0.4,0.2s0.4,0.1,0.6,0.1c0.3,0,0.6-0.1,0.8-0.2
			s0.3-0.3,0.3-0.5s-0.1-0.3-0.3-0.5s-0.5-0.3-1-0.4C84,29.5,83.4,29.3,83,29s-0.6-0.7-0.6-1.2s0.2-1,0.7-1.4s1.1-0.6,1.9-0.6
			c0.5,0,1,0.1,1.4,0.2s0.8,0.3,1,0.5L87.2,28.1z"/>
		<path class="st5" d="M90.7,24.4V26h1.1v1.2h-1.1v3.2c0,0.2,0.1,0.4,0.2,0.5s0.2,0.2,0.4,0.2c0.1,0,0.2,0,0.3,0s0.2,0,0.3,0
			l0.1,1.2c-0.2,0.1-0.4,0.1-0.6,0.1s-0.4,0-0.6,0c-0.6,0-1-0.2-1.4-0.5S89,31,89,30.3v-3.2h-0.9v-1.2H89v-1.6h1.7V24.4z"/>
	</g>
</g>
<g id="Ebene_4">
	<g class="st4">
		<path class="st21" d="M288.4,123.1h-1.3L287,122c-0.2-0.2-0.4-0.3-0.6-0.4s-0.6-0.1-0.9-0.1c-0.7,0-1.3,0.3-1.7,0.8
			s-0.6,1.2-0.6,2.1v0.3c0,0.9,0.2,1.6,0.6,2.1s1,0.8,1.7,0.8c0.3,0,0.6,0,0.9-0.1s0.5-0.2,0.6-0.4l0.2-1.1h1.3v1.7
			c-0.3,0.4-0.8,0.7-1.3,1s-1.1,0.4-1.8,0.4c-1.1,0-2.1-0.4-2.8-1.2s-1.1-1.8-1.1-3.1v-0.3c0-1.2,0.4-2.3,1.1-3.1s1.7-1.2,2.8-1.2
			c0.7,0,1.3,0.1,1.8,0.4s1,0.6,1.3,1v1.5L288.4,123.1L288.4,123.1z"/>
		<path class="st21" d="M289.1,127.8l0.6-0.1l2.6-7.4h1.8l2.6,7.4l0.6,0.1v1h-2.9v-1l0.6-0.1l-0.4-1.2h-2.8l-0.4,1.2l0.6,0.1v1h-2.9
			L289.1,127.8L289.1,127.8z M292.2,125.2h2l-1-3l0,0L292.2,125.2z"/>
		<path class="st21" d="M304.3,123H303l-0.2-1.2c-0.1-0.1-0.4-0.2-0.7-0.2s-0.6-0.1-0.9-0.1c-0.5,0-0.8,0.1-1.1,0.3
			s-0.4,0.5-0.4,0.8s0.1,0.5,0.4,0.7s0.7,0.4,1.4,0.6c0.9,0.3,1.7,0.6,2.1,1s0.7,1,0.7,1.7s-0.3,1.3-0.9,1.7s-1.3,0.6-2.3,0.6
			c-0.7,0-1.3-0.1-1.8-0.3s-1-0.5-1.4-0.9v-1.8h1.3l0.2,1.2c0.2,0.1,0.4,0.3,0.7,0.3s0.6,0.1,1,0.1c0.5,0,0.8-0.1,1.1-0.3
			s0.4-0.4,0.4-0.8c0-0.3-0.1-0.6-0.3-0.8s-0.6-0.4-1.2-0.6c-1-0.3-1.8-0.6-2.3-1s-0.8-1-0.8-1.7s0.3-1.3,0.9-1.7s1.3-0.7,2.2-0.7
			c0.7,0,1.3,0.1,1.8,0.3s1,0.5,1.4,0.8L304.3,123L304.3,123z"/>
	</g>
</g>
<g>
	<path class="st21" d="M43.7,183c-0.9,0-1.6-0.3-2.2-0.9s-0.8-1.3-0.8-2.2v-0.2c0-0.9,0.3-1.7,0.8-2.3s1.2-0.9,2.1-0.9
		s1.5,0.3,2,0.8s0.7,1.2,0.7,2.1v0.9h-3.8l0,0c0,0.4,0.2,0.8,0.4,1s0.6,0.4,1,0.4s0.7,0,0.9-0.1s0.5-0.2,0.8-0.4l0.5,1.1
		c-0.3,0.2-0.6,0.4-1,0.5S44.2,183,43.7,183z M43.5,177.7c-0.3,0-0.6,0.1-0.8,0.4s-0.3,0.6-0.3,1l0,0h2.1v-0.2
		c0-0.4-0.1-0.7-0.3-0.9S43.9,177.7,43.5,177.7z"/>
	<path class="st21" d="M46.9,181.9l0.8-0.2v-3.9l-0.9-0.2v-1h2.5l0.1,0.9c0.2-0.3,0.5-0.6,0.8-0.8s0.7-0.3,1-0.3
		c0.6,0,1.1,0.2,1.5,0.6s0.5,1,0.5,1.9v2.8l0.8,0.2v1h-3.3v-1l0.7-0.2v-2.8c0-0.4-0.1-0.7-0.3-0.9s-0.4-0.3-0.8-0.3
		c-0.2,0-0.4,0-0.6,0.1s-0.3,0.2-0.5,0.4v3.4l0.7,0.2v1h-3.2v-0.9H46.9z"/>
	<path class="st21" d="M57.6,181.7c0.3,0,0.5-0.1,0.7-0.3s0.3-0.4,0.3-0.7h1.5l0,0c0,0.6-0.2,1.2-0.7,1.6s-1.1,0.6-1.9,0.6
		c-0.9,0-1.7-0.3-2.2-0.9s-0.8-1.4-0.8-2.3v-0.2c0-0.9,0.3-1.7,0.8-2.3s1.3-0.9,2.2-0.9c0.5,0,1,0.1,1.4,0.2s0.7,0.4,1,0.6v1.7h-1.4
		l-0.3-1c-0.1-0.1-0.2-0.1-0.3-0.2s-0.3-0.1-0.4-0.1c-0.5,0-0.8,0.2-1,0.5s-0.3,0.8-0.3,1.4v0.2c0,0.6,0.1,1,0.3,1.4
		S57.1,181.7,57.6,181.7z"/>
	<path class="st21" d="M61,181.9l0.8-0.2v-3.9l-0.9-0.2v-1h2.5l0.1,0.9c0.1-0.3,0.3-0.6,0.6-0.8s0.5-0.3,0.8-0.3c0.1,0,0.2,0,0.3,0
		s0.2,0,0.2,0l-0.2,1.6h-0.7c-0.2,0-0.5,0-0.6,0.1s-0.3,0.2-0.4,0.4v3.1l0.8,0.2v1H61V181.9z"/>
	<path class="st21" d="M72.6,177.6l-0.6,0.1l-2.3,6.2c-0.2,0.5-0.4,0.8-0.7,1.1s-0.8,0.5-1.4,0.5c-0.1,0-0.3,0-0.4,0
		s-0.3-0.1-0.4-0.1l0.2-1.2c0.1,0,0.1,0,0.2,0s0.1,0,0.2,0c0.3,0,0.5-0.1,0.7-0.2s0.3-0.3,0.4-0.5l0.2-0.5l-2-5.2l-0.6-0.1v-1h3.1v1
		l-0.7,0.1l0.9,2.5l0.1,0.5l0,0l1-3l-0.7-0.1v-1h3.1v0.9H72.6z"/>
	<path class="st21" d="M73,177.6v-1h2.5l0.1,0.7c0.2-0.3,0.4-0.5,0.7-0.6s0.6-0.2,0.9-0.2c0.8,0,1.4,0.3,1.8,0.9s0.7,1.4,0.7,2.4
		v0.1c0,0.9-0.2,1.7-0.7,2.3s-1,0.9-1.8,0.9c-0.3,0-0.6-0.1-0.9-0.2s-0.5-0.3-0.7-0.5v1.8l0.8,0.2v1H73v-1l0.8-0.2v-6.4L73,177.6z
		 M78,179.8c0-0.6-0.1-1.1-0.3-1.5s-0.5-0.6-0.9-0.6c-0.3,0-0.5,0.1-0.7,0.2s-0.3,0.3-0.4,0.5v2.8c0.1,0.2,0.2,0.3,0.4,0.4
		s0.4,0.1,0.7,0.1c0.4,0,0.7-0.2,0.9-0.5S78,180.4,78,179.8L78,179.8z"/>
	<path class="st21" d="M82.9,175v1.6H84v1.2h-1.1v3.2c0,0.2,0.1,0.4,0.2,0.5s0.2,0.2,0.4,0.2c0.1,0,0.2,0,0.3,0s0.2,0,0.3,0l0.1,1.2
		c-0.2,0.1-0.4,0.1-0.6,0.1s-0.4,0-0.6,0c-0.6,0-1-0.2-1.4-0.5s-0.5-0.8-0.5-1.5v-3.2h-0.9v-1.2h0.9V175H82.9z"/>
	<path class="st21" d="M87.9,183c-0.9,0-1.6-0.3-2.2-0.9s-0.8-1.3-0.8-2.2v-0.2c0-0.9,0.3-1.7,0.8-2.3s1.2-0.9,2.1-0.9
		s1.5,0.3,2,0.8s0.7,1.2,0.7,2.1v0.9h-3.8l0,0c0,0.4,0.2,0.8,0.4,1s0.6,0.4,1,0.4s0.7,0,0.9-0.1s0.5-0.2,0.8-0.4l0.5,1.1
		c-0.3,0.2-0.6,0.4-1,0.5S88.4,183,87.9,183z M87.8,177.7c-0.3,0-0.6,0.1-0.8,0.4s-0.3,0.6-0.3,1l0,0h2.1v-0.2
		c0-0.4-0.1-0.7-0.3-0.9S88.1,177.7,87.8,177.7z"/>
	<path class="st21" d="M95.4,182.1c-0.2,0.3-0.4,0.5-0.7,0.7s-0.6,0.2-0.9,0.2c-0.8,0-1.4-0.3-1.8-0.9s-0.6-1.3-0.6-2.3v-0.1
		c0-1,0.2-1.8,0.7-2.4s1-0.9,1.8-0.9c0.3,0,0.6,0.1,0.9,0.2c0.3,0.1,0.5,0.3,0.7,0.6v-2.3l-0.9-0.2v-1h0.9h1.7v7.9l0.8,0.2v1h-2.3
		L95.4,182.1z M93,179.9c0,0.6,0.1,1,0.3,1.3s0.5,0.5,0.9,0.5c0.2,0,0.5-0.1,0.7-0.2c0.2-0.1,0.3-0.2,0.5-0.4v-2.7
		c-0.1-0.2-0.3-0.4-0.4-0.5s-0.4-0.2-0.6-0.2c-0.4,0-0.7,0.2-0.9,0.6s-0.3,0.9-0.3,1.5v0.1H93z"/>
	<path class="st21" d="M101.2,177.7v-1.2h0.9v-0.4c0-0.8,0.2-1.4,0.7-1.8s1.2-0.6,2.1-0.6c0.3,0,0.6,0,0.9,0.1s0.6,0.1,1,0.3
		l-0.2,1.3c-0.3-0.1-0.5-0.2-0.8-0.2s-0.5-0.1-0.8-0.1c-0.4,0-0.7,0.1-0.9,0.3s-0.3,0.4-0.3,0.8v0.4h3.8v5.1l0.9,0.2v1h-3.4v-1
		l0.8-0.2v-3.9h-2.1v3.9l0.8,0.2v1h-3.5v-1l0.9-0.2v-3.9h-0.8V177.7z"/>
	<path class="st21" d="M109,174.8v-1h2.6v7.9l0.8,0.2v1H109v-1l0.8-0.2V175L109,174.8z"/>
	<path class="st21" d="M116,183c-0.9,0-1.6-0.3-2.2-0.9s-0.8-1.3-0.8-2.2v-0.2c0-0.9,0.3-1.7,0.8-2.3s1.2-0.9,2.1-0.9
		c0.9,0,1.5,0.3,2,0.8s0.7,1.2,0.7,2.1v0.9h-3.8l0,0c0,0.4,0.2,0.8,0.4,1s0.6,0.4,1,0.4s0.7,0,0.9-0.1s0.5-0.2,0.8-0.4l0.5,1.1
		c-0.3,0.2-0.6,0.4-1,0.5S116.5,183,116,183z M115.9,177.7c-0.3,0-0.6,0.1-0.8,0.4s-0.3,0.6-0.3,1l0,0h2.1v-0.2
		c0-0.4-0.1-0.7-0.3-0.9S116.2,177.7,115.9,177.7z"/>
</g>
</svg>
