<?xml version="1.0" encoding="utf-8"?>
<!-- Generator: Adobe Illustrator 26.3.1, SVG Export Plug-In . SVG Version: 6.00 Build 0)  -->
<svg version="1.1" id="Ebene_1" xmlns="http://www.w3.org/2000/svg" xmlns:xlink="http://www.w3.org/1999/xlink" x="0px" y="0px"
	 viewBox="0 0 226.7 276.7" style="enable-background:new 0 0 226.7 276.7;" xml:space="preserve">
<style type="text/css">
	.st0{fill:url(#SVGID_1_);stroke:#FFCC00;stroke-width:2;stroke-miterlimit:10;}
	.st1{fill:url(#SVGID_00000129898319991866636780000002340770124205994676_);}
	.st2{fill:none;stroke:#FFCC00;stroke-width:2;stroke-miterlimit:10;}
	.st3{enable-background:new    ;}
	.st4{fill:#FFCC00;}
	.st5{fill:#FFFFFF;stroke:#FFCC00;stroke-width:2;stroke-linecap:round;stroke-linejoin:round;}
	.st6{fill:none;stroke:#FFCC00;stroke-width:2;stroke-linecap:round;stroke-linejoin:round;}
	.st7{clip-path:url(#SVGID_00000051359990381920641200000004554101928167286165_);}
	.st8{clip-path:url(#SVGID_00000080897290582534087850000000624958751363361446_);}
	.st9{fill:#FFD138;}
	.st10{fill:#FDFEFF;}
	.st11{fill:#330066;}
	.st12{fill:url(#SVGID_00000005961753312330053010000000709337555640296872_);stroke:#FFCC00;stroke-width:2;stroke-miterlimit:10;}
	.st13{fill:#FFFFFF;}
	.st14{clip-path:url(#SVGID_00000129174821279603738360000017516779353246665634_);}
	.st15{clip-path:url(#SVGID_00000180367296190734286610000002129092508957049761_);}
	.st16{fill:#990066;}
	.st17{fill:#3399FF;}
	.st18{fill:#33CC99;}
</style>
<linearGradient id="SVGID_1_" gradientUnits="userSpaceOnUse" x1="15.8723" y1="759.6398" x2="210.0191" y2="759.6398" gradientTransform="matrix(1 0 0 1 0 -563.8898)">
	<stop  offset="0" style="stop-color:#990066"/>
	<stop  offset="0.19" style="stop-color:#780066"/>
	<stop  offset="0.4" style="stop-color:#5A0066"/>
	<stop  offset="0.61" style="stop-color:#440066"/>
	<stop  offset="0.81" style="stop-color:#370066"/>
	<stop  offset="1" style="stop-color:#330066"/>
</linearGradient>
<path class="st0" d="M20.9,128.2H205c2.8,0,5,2.2,5,5v125.1c0,2.8-2.2,5-5,5H20.9c-2.8,0-5-2.2-5-5V133.2
	C15.9,130.5,18.1,128.2,20.9,128.2z"/>
<linearGradient id="SVGID_00000138539897852253721160000016520549587044703639_" gradientUnits="userSpaceOnUse" x1="50.1191" y1="761.3398" x2="175.8192" y2="761.3398" gradientTransform="matrix(1 0 0 1 0 -563.8898)">
	<stop  offset="0" style="stop-color:#990066"/>
	<stop  offset="0.19" style="stop-color:#780066"/>
	<stop  offset="0.4" style="stop-color:#5A0066"/>
	<stop  offset="0.61" style="stop-color:#440066"/>
	<stop  offset="0.81" style="stop-color:#370066"/>
	<stop  offset="1" style="stop-color:#330066"/>
</linearGradient>
<path style="fill:url(#SVGID_00000138539897852253721160000016520549587044703639_);" d="M55.1,159.7h115.7c2.8,0,5,2.2,5,5v65.5
	c0,2.8-2.2,5-5,5H55.1c-2.8,0-5-2.2-5-5v-65.5C50.1,162,52.3,159.7,55.1,159.7z"/>
<path class="st2" d="M55.1,159.7h115.7c2.8,0,5,2.2,5,5v65.5c0,2.8-2.2,5-5,5H55.1c-2.8,0-5-2.2-5-5v-65.5
	C50.1,162,52.3,159.7,55.1,159.7z"/>
<g class="st3">
	<path class="st4" d="M83.1,195.6L83.1,195.6l-2.3,6.3h-1.1l-2.3-6.3l0,0l0.2,3.7v1.3l0.9,0.2v1H75v-1l0.9-0.2v-6.1l-0.9-0.2v-1h0.9
		h2.2l2.2,6.3l0,0l2.2-6.3h3.2v1l-0.9,0.2v6.1l0.9,0.2v1h-3.5v-1l0.9-0.2v-1.3L83.1,195.6z"/>
	<path class="st4" d="M86.2,200.9l0.8-0.2v-3.9l-0.9-0.2v-1h2.6v5.1l0.8,0.2v1h-3.4v-1H86.2z M88.7,194.1H87v-1.3h1.7V194.1z"/>
	<path class="st4" d="M93.1,200.8c0.3,0,0.5-0.1,0.7-0.3s0.3-0.4,0.3-0.7h1.5l0,0c0,0.6-0.2,1.2-0.7,1.6S93.8,202,93,202
		c-0.9,0-1.7-0.3-2.2-0.9s-0.8-1.4-0.8-2.3v-0.2c0-0.9,0.3-1.7,0.8-2.3s1.3-0.9,2.2-0.9c0.5,0,1,0.1,1.4,0.2s0.7,0.4,1,0.6v1.7H94
		l-0.3-1c-0.1-0.1-0.2-0.1-0.3-0.2s-0.3-0.1-0.4-0.1c-0.5,0-0.8,0.2-1,0.5s-0.3,0.8-0.3,1.4v0.2c0,0.6,0.1,1,0.3,1.4
		S92.6,200.8,93.1,200.8z"/>
</g>
<g class="st3">
	<path class="st4" d="M96.6,200.9l0.8-0.2v-3.9l-0.9-0.2v-1H99l0.1,0.9c0.1-0.3,0.3-0.6,0.6-0.8s0.5-0.3,0.8-0.3c0.1,0,0.2,0,0.3,0
		s0.2,0,0.2,0l-0.2,1.6h-0.7c-0.3,0-0.5,0-0.6,0.1s-0.3,0.2-0.4,0.4v3.1l0.8,0.2v1h-3.4v-0.9H96.6z"/>
</g>
<g class="st3">
	<path class="st4" d="M101.4,198.7c0-0.9,0.3-1.7,0.8-2.3s1.3-0.9,2.2-0.9c0.9,0,1.7,0.3,2.2,0.9s0.8,1.4,0.8,2.3v0.1
		c0,1-0.3,1.7-0.8,2.3s-1.3,0.9-2.2,0.9c-0.9,0-1.7-0.3-2.2-0.9s-0.8-1.4-0.8-2.3V198.7z M103.1,198.8c0,0.6,0.1,1,0.3,1.4
		s0.5,0.5,1,0.5c0.4,0,0.8-0.2,1-0.5s0.3-0.8,0.3-1.4v-0.1c0-0.6-0.1-1-0.3-1.4s-0.5-0.5-1-0.5s-0.8,0.2-1,0.5s-0.3,0.8-0.3,1.4
		V198.8z"/>
	<path class="st4" d="M113.3,197.8h-1.1L112,197c-0.1-0.1-0.3-0.2-0.4-0.2s-0.4-0.1-0.6-0.1c-0.3,0-0.5,0.1-0.7,0.2
		s-0.3,0.3-0.3,0.5s0.1,0.4,0.3,0.5s0.5,0.2,1,0.3c0.8,0.2,1.4,0.4,1.7,0.7s0.6,0.7,0.6,1.3s-0.2,1-0.7,1.4s-1.1,0.5-1.9,0.5
		c-0.5,0-0.9-0.1-1.3-0.2s-0.8-0.3-1.1-0.6v-1.4h1.2l0.2,0.8c0.1,0.1,0.2,0.1,0.4,0.2s0.4,0.1,0.6,0.1c0.3,0,0.6-0.1,0.8-0.2
		s0.3-0.3,0.3-0.5s-0.1-0.3-0.3-0.5s-0.5-0.3-1-0.4c-0.7-0.2-1.3-0.4-1.7-0.7s-0.6-0.7-0.6-1.2s0.2-1,0.7-1.4s1.1-0.6,1.9-0.6
		c0.5,0,1,0.1,1.4,0.2s0.8,0.3,1,0.5L113.3,197.8z"/>
	<path class="st4" d="M117.3,202.1c-0.9,0-1.6-0.3-2.2-0.9s-0.8-1.3-0.8-2.2v-0.2c0-0.9,0.3-1.7,0.8-2.3s1.2-0.9,2.1-0.9
		s1.5,0.3,2,0.8s0.7,1.2,0.7,2.1v0.9h-3.8l0,0c0,0.4,0.2,0.8,0.4,1s0.6,0.4,1,0.4s0.7,0,0.9-0.1s0.5-0.2,0.8-0.4l0.5,1.1
		c-0.3,0.2-0.6,0.4-1,0.5S117.8,202.1,117.3,202.1z M117.2,196.8c-0.3,0-0.6,0.1-0.8,0.4s-0.3,0.6-0.3,1l0,0h2.1V198
		c0-0.4-0.1-0.7-0.3-0.9S117.5,196.8,117.2,196.8z"/>
</g>
<g class="st3">
	<path class="st4" d="M120.8,200.9l0.8-0.2v-3.9l-0.9-0.2v-1h2.5l0.1,0.9c0.1-0.3,0.3-0.6,0.6-0.8s0.5-0.3,0.8-0.3
		c0.1,0,0.2,0,0.3,0s0.2,0,0.2,0L125,197h-0.7c-0.3,0-0.5,0-0.6,0.1s-0.3,0.2-0.4,0.4v3.1l0.8,0.2v1h-3.4v-0.9H120.8z"/>
</g>
<g class="st3">
	<path class="st4" d="M128.5,196.6l-0.6,0.1l0.8,2.8l0.1,0.6l0,0l0.1-0.6l0.8-2.8l-0.6-0.1v-1h2.9v1l-0.6,0.1l-1.9,5.2h-1.6
		l-1.9-5.2l-0.6-0.1v-1h2.9v1H128.5z"/>
	<path class="st4" d="M132.6,200.9l0.8-0.2v-3.9l-0.9-0.2v-1h2.6v5.1l0.8,0.2v1h-3.4v-1H132.6z M135.2,194.1h-1.7v-1.3h1.7V194.1z"
		/>
	<path class="st4" d="M139.5,200.8c0.3,0,0.5-0.1,0.7-0.3s0.3-0.4,0.3-0.7h1.5l0,0c0,0.6-0.2,1.2-0.7,1.6s-1.1,0.6-1.9,0.6
		c-0.9,0-1.7-0.3-2.2-0.9s-0.8-1.4-0.8-2.3v-0.2c0-0.9,0.3-1.7,0.8-2.3s1.3-0.9,2.2-0.9c0.5,0,1,0.1,1.4,0.2s0.7,0.4,1,0.6v1.7h-1.4
		l-0.3-1c-0.1-0.1-0.2-0.1-0.3-0.2s-0.3-0.1-0.4-0.1c-0.5,0-0.8,0.2-1,0.5s-0.3,0.8-0.3,1.4v0.2c0,0.6,0.1,1,0.3,1.4
		S139.1,200.8,139.5,200.8z"/>
	<path class="st4" d="M145.9,202.1c-0.9,0-1.6-0.3-2.2-0.9s-0.8-1.3-0.8-2.2v-0.2c0-0.9,0.3-1.7,0.8-2.3s1.2-0.9,2.1-0.9
		s1.5,0.3,2,0.8s0.7,1.2,0.7,2.1v0.9h-3.8l0,0c0,0.4,0.2,0.8,0.4,1s0.6,0.4,1,0.4s0.7,0,0.9-0.1s0.5-0.2,0.8-0.4l0.5,1.1
		c-0.3,0.2-0.6,0.4-1,0.5S146.4,202.1,145.9,202.1z M145.7,196.8c-0.3,0-0.6,0.1-0.8,0.4s-0.3,0.6-0.3,1l0,0h2.1V198
		c0-0.4-0.1-0.7-0.3-0.9S146.1,196.8,145.7,196.8z"/>
</g>
<path class="st5" d="M104.3,149c4.6-4.5,12.1-4.5,16.6,0.1s4.5,12.1-0.1,16.6s-12.1,4.5-16.6-0.1c-2.2-2.2-3.4-5.1-3.4-8.2
	c0-2.6,0.8-5.1,2.4-7.1"/>
<path class="st6" d="M112.2,163H108c-0.6,0-0.8-0.2-0.8-0.8v-6.5c0-0.6,0.2-0.8,0.8-0.8h8.5c0.5,0,0.8,0.2,0.8,0.8v6.5
	c0,0.6-0.2,0.8-0.8,0.8C115,163,113.6,163,112.2,163z"/>
<path class="st6" d="M107.8,154.4c0-1.8,1-3.4,2.6-4.1c2.1-0.9,4.6,0,5.5,2.1c0.1,0.2,0.2,0.5,0.2,0.7c0.1,0.4,0.1,0.8,0.2,1.2"/>
<path class="st4" d="M111.5,160.2L111.5,160.2v0.9c0,0.2,0.1,0.2,0.3,0.2h0.8c0.2,0,0.3-0.1,0.3-0.3v-1.6c0-0.2,0.1-0.3,0.2-0.4
	c0.5-0.3,0.8-0.9,0.6-1.4c-0.2-0.6-0.8-1-1.5-1c-0.7-0.1-1.3,0.3-1.6,0.9c-0.2,0.6,0,1.2,0.5,1.5c0.2,0.1,0.3,0.3,0.3,0.5
	C111.5,159.7,111.5,160,111.5,160.2z"/>
<g id="Scone_logo_white">
	<g>
		<g>
			<defs>
				<rect id="SVGID_00000098934070016146866270000009438694202086962613_" x="93" y="220" width="36.3" height="7.1"/>
			</defs>
			<clipPath id="SVGID_00000145043902291532180760000011238682786367454104_">
				<use xlink:href="#SVGID_00000098934070016146866270000009438694202086962613_"  style="overflow:visible;"/>
			</clipPath>
			<g style="clip-path:url(#SVGID_00000145043902291532180760000011238682786367454104_);">
				<g>
					<g>
						<defs>
							<rect id="SVGID_00000113327198207728630730000007360696853276212669_" x="93" y="220" width="36.3" height="7.1"/>
						</defs>
						<clipPath id="SVGID_00000051385977657674506720000003201268162555894456_">
							<use xlink:href="#SVGID_00000113327198207728630730000007360696853276212669_"  style="overflow:visible;"/>
						</clipPath>
						<g style="clip-path:url(#SVGID_00000051385977657674506720000003201268162555894456_);">
							<path class="st9" d="M97.8,221.8H97c-0.2,0-0.3,0.1-0.3,0.3l0,0v0.8c0,0.2,0.1,0.3,0.3,0.3l0,0h0.8c0.2,0,0.3-0.1,0.3-0.3
								l0,0v-0.8C98.1,221.9,98,221.8,97.8,221.8L97.8,221.8 M95.2,223.1H96c0.2,0,0.3-0.1,0.3-0.3l0,0V222c0-0.2-0.1-0.3-0.3-0.3
								l0,0h-0.8c-0.2,0-0.3,0.1-0.3,0.3v0.8C94.9,223,95,223.2,95.2,223.1 M94.3,222.9v-0.8c0-0.2-0.1-0.3-0.3-0.3l0,0h-0.7
								c-0.2,0-0.3,0.1-0.3,0.3l0,0v0.8c0,0.2,0.1,0.3,0.3,0.3l0,0h0.8C94.2,223.1,94.4,223,94.3,222.9L94.3,222.9 M97.9,223.7
								c-0.1,0-0.2,0.1-0.2,0.2v0.9c0,0.1,0,0.2,0.2,0.3c0.1,0,0.2,0,0.3-0.2v-0.1v-0.9C98.1,223.8,98,223.7,97.9,223.7L97.9,223.7
								 M95.8,224v0.8c0,0.2,0.1,0.3,0.3,0.3h0.8c0.2,0,0.3-0.1,0.3-0.3V224c0-0.2-0.1-0.3-0.3-0.3l0,0h-0.8
								C95.9,223.7,95.8,223.8,95.8,224L95.8,224 M95.2,224.8V224c0-0.2-0.1-0.3-0.3-0.3l0,0h-0.8c-0.2,0-0.3,0.1-0.3,0.3v0.8
								c0,0.2,0.1,0.3,0.3,0.3h0.8C95.1,225.1,95.3,224.9,95.2,224.8 M97.8,225.6H97c-0.2,0-0.3,0.1-0.3,0.3l0,0v0.8
								c0,0.2,0.1,0.3,0.3,0.3l0,0h0.8c0.2,0,0.3-0.1,0.3-0.3l0,0v-0.8C98.1,225.7,98,225.6,97.8,225.6L97.8,225.6 M95.8,225.6H95
								c-0.2,0-0.3,0.1-0.3,0.3l0,0v0.8c0,0.2,0.1,0.3,0.3,0.3l0,0h0.8c0.2,0,0.3-0.1,0.3-0.3l0,0v-0.8
								C96.1,225.7,96,225.6,95.8,225.6L95.8,225.6"/>
							<path class="st9" d="M98.7,221.5c0.3,0.3,0.8,0.4,1.2,0.4c0,0,0,0,0,0.1v2.1c0,0.8-1,1.3-1.2,1.4l0,0V221.5L98.7,221.5"/>
							<path class="st9" d="M96.4,221.4c1.6-0.1,1.9-0.6,1.9-0.6s0,0,0.1-0.1h0.1c0,0,0.3,0.6,1.9,0.6c0,0,0.1,0,0.1,0.1v2.8
								c0,0.9-1.7,1.9-1.7,1.9s-0.1,0-0.1,0.1v0.7c0,0,0.1,0.1,0.1,0c0.6-0.3,2.3-1.3,2.3-2.5v-3.5c0-0.1-0.1-0.1-0.2-0.1
								c-2,0-2.4-0.8-2.4-0.8h-0.1h-0.1c0,0-0.3,0.8-2.4,0.8c-0.1,0-0.1,0-0.1,0.1v0.4c0,0,0,0.1,0.1,0.1H96.4"/>
							<path class="st10" d="M102.6,225.9l0.8-0.3c0.2,0.4,0.6,0.6,1.1,0.6c0.2,0,0.4,0,0.6-0.1s0.3-0.3,0.3-0.4
								c0-0.4-0.6-0.7-1-0.9l0,0c-0.3-0.1-0.7-0.3-1-0.5s-0.5-0.6-0.5-1s0.2-0.8,0.5-1c0.3-0.3,0.8-0.4,1.2-0.4
								c0.7,0,1.3,0.3,1.6,0.9l-0.9,0.3c-0.1-0.1-0.2-0.2-0.3-0.3c-0.1-0.1-0.3-0.1-0.5-0.1c-0.5,0-0.8,0.3-0.8,0.6
								c0,0.2,0.1,0.4,0.3,0.5c0.2,0.1,0.5,0.3,0.7,0.4h0.1c0.6,0.3,1.4,0.6,1.4,1.4c0,0.4-0.2,0.8-0.5,1c-0.4,0.3-0.9,0.4-1.3,0.4
								C103.8,226.9,103,226.5,102.6,225.9"/>
							<path class="st10" d="M109.9,227c-0.3,0-0.7-0.1-1-0.2c-0.3-0.1-0.6-0.3-0.8-0.6c-0.2-0.2-0.4-0.5-0.6-0.8
								c-0.1-0.3-0.2-0.7-0.2-1s0.1-0.7,0.2-1s0.3-0.6,0.6-0.8c0.2-0.2,0.5-0.4,0.8-0.6c0.3-0.1,0.7-0.2,1-0.2
								c0.4,0,0.8,0.1,1.2,0.3c0.3,0.2,0.7,0.4,0.9,0.8l-0.7,0.5c-0.2-0.2-0.4-0.4-0.6-0.5s-0.5-0.2-0.8-0.2c-1,0-1.8,0.7-1.8,1.7
								c0,0.5,0.2,1,0.6,1.3c0.3,0.3,0.8,0.5,1.2,0.5c0.3,0,0.6-0.1,0.9-0.2c0.3-0.2,0.5-0.4,0.6-0.6l0.8,0.4
								c-0.2,0.4-0.5,0.8-0.9,1C110.8,227,110.3,227.1,109.9,227"/>
							<path class="st10" d="M115.5,227c-0.3,0-0.7-0.1-1-0.2c-0.3-0.1-0.6-0.3-0.8-0.6c-0.2-0.2-0.4-0.5-0.5-0.8s-0.2-0.7-0.2-1
								s0.1-0.7,0.2-1s0.3-0.6,0.5-0.8c0.5-0.5,1.1-0.8,1.8-0.8c0.3,0,0.7,0.1,1,0.2c0.3,0.1,0.6,0.3,0.8,0.6
								c0.2,0.2,0.4,0.5,0.6,0.8c0.4,1,0.2,2.1-0.6,2.8c-0.2,0.2-0.5,0.4-0.8,0.6C116.2,226.9,115.9,227,115.5,227 M115.5,222.7
								c-0.5,0-0.9,0.2-1.2,0.5c-0.3,0.3-0.5,0.8-0.5,1.2c0,1,0.8,1.7,1.7,1.7c0.5,0,0.9-0.2,1.2-0.5c0.3-0.3,0.5-0.8,0.5-1.2
								C117.3,223.4,116.5,222.7,115.5,222.7"/>
							<polygon class="st10" points="124,221.8 124,227.1 120.4,223.8 120.4,226.9 119.5,226.9 119.5,221.6 123.1,225 123.1,221.8 
															"/>
							<polygon class="st10" points="126.5,222.6 126.5,224 129,224 129,224.8 126.5,224.8 126.5,226.1 129.3,226.1 129.3,226.9 
								125.6,226.9 125.6,221.8 129.3,221.8 129.3,222.6 							"/>
						</g>
					</g>
				</g>
			</g>
		</g>
	</g>
</g>
<g class="st3">
	<path class="st4" d="M86.7,254.1c0-0.1-0.1-0.2-0.1-0.3s-0.1-0.2-0.1-0.3c-0.2,0.2-0.4,0.4-0.6,0.5s-0.5,0.2-0.8,0.2
		c-0.5,0-0.9-0.1-1.2-0.4c-0.3-0.3-0.5-0.7-0.5-1.1c0-0.5,0.2-0.9,0.6-1.1s1-0.4,1.7-0.4h0.7v-0.5c0-0.3-0.1-0.5-0.2-0.6
		s-0.4-0.2-0.6-0.2c-0.2,0-0.3,0-0.4,0.1c-0.1,0-0.2,0.1-0.3,0.1l-0.1,0.6h-1.1v-1.2c0.3-0.2,0.6-0.3,0.9-0.4s0.7-0.2,1.1-0.2
		c0.7,0,1.2,0.2,1.6,0.5c0.4,0.3,0.6,0.8,0.6,1.4v2.2c0,0.1,0,0.2,0,0.2s0,0.1,0,0.2l0.4,0.1v0.9h-1.6V254.1z M85.4,253.2
		c0.2,0,0.4,0,0.6-0.1c0.2-0.1,0.3-0.2,0.4-0.3V252h-0.7c-0.3,0-0.5,0.1-0.7,0.2c-0.2,0.1-0.2,0.3-0.2,0.5s0.1,0.3,0.2,0.4
		S85.2,253.2,85.4,253.2z"/>
	<path class="st4" d="M88.7,249.7v-0.9h2.1l0.1,0.6c0.2-0.2,0.3-0.4,0.6-0.5s0.5-0.2,0.8-0.2c0.7,0,1.2,0.3,1.5,0.8s0.5,1.2,0.5,2
		v0.1c0,0.8-0.2,1.4-0.5,1.9s-0.9,0.7-1.5,0.7c-0.3,0-0.5-0.1-0.7-0.2c-0.2-0.1-0.4-0.3-0.6-0.5v1.5l0.7,0.1v0.9h-2.8v-0.9l0.7-0.1
		v-5.3L88.7,249.7z M92.8,251.5c0-0.5-0.1-0.9-0.2-1.2s-0.4-0.5-0.8-0.5c-0.2,0-0.4,0-0.5,0.1s-0.3,0.2-0.4,0.4v2.3
		c0.1,0.1,0.2,0.3,0.4,0.3s0.3,0.1,0.6,0.1s0.6-0.1,0.8-0.4s0.2-0.6,0.2-1.1v0H92.8z"/>
</g>
<g class="st3">
	<path class="st4" d="M94.7,249.7v-0.9h2.1l0.1,0.6c0.2-0.2,0.3-0.4,0.6-0.5s0.5-0.2,0.8-0.2c0.7,0,1.2,0.3,1.5,0.8s0.5,1.2,0.5,2
		v0.1c0,0.8-0.2,1.4-0.5,1.9s-0.9,0.7-1.5,0.7c-0.3,0-0.5-0.1-0.7-0.2c-0.2-0.1-0.4-0.3-0.6-0.5v1.5l0.7,0.1v0.9h-2.8v-0.9l0.7-0.1
		v-5.3L94.7,249.7z M98.8,251.5c0-0.5-0.1-0.9-0.2-1.2s-0.4-0.5-0.8-0.5c-0.2,0-0.4,0-0.5,0.1s-0.3,0.2-0.4,0.4v2.3
		c0.1,0.1,0.2,0.3,0.4,0.3s0.3,0.1,0.6,0.1s0.6-0.1,0.8-0.4s0.2-0.6,0.2-1.1v0H98.8z"/>
</g>
<g class="st3">
	<path class="st4" d="M100.6,247.4v-0.9h2.2v6.6l0.7,0.1v0.9h-2.8v-0.9l0.7-0.1v-5.6L100.6,247.4z"/>
	<path class="st4" d="M103.9,253.3l0.7-0.1v-3.3l-0.8-0.1v-0.9h2.2v4.3l0.7,0.1v0.9h-2.8L103.9,253.3L103.9,253.3z M106,247.6h-1.4
		v-1.1h1.4V247.6z"/>
	<path class="st4" d="M109.7,253.1c0.3,0,0.5-0.1,0.6-0.2c0.2-0.1,0.2-0.3,0.2-0.6h1.3l0,0c0,0.5-0.2,1-0.6,1.3
		c-0.4,0.4-0.9,0.5-1.5,0.5c-0.8,0-1.4-0.2-1.8-0.7s-0.6-1.1-0.6-1.9v-0.1c0-0.8,0.2-1.4,0.7-1.9s1.1-0.8,1.9-0.8
		c0.4,0,0.8,0.1,1.1,0.2s0.6,0.3,0.8,0.5v1.4h-1.2l-0.2-0.8c-0.1-0.1-0.2-0.1-0.3-0.2c-0.1,0-0.2-0.1-0.4-0.1
		c-0.4,0-0.7,0.1-0.9,0.4s-0.2,0.7-0.2,1.1v0.1c0,0.5,0.1,0.9,0.2,1.1C109,253,109.3,253.1,109.7,253.1z"/>
</g>
<g class="st3">
	<path class="st4" d="M115.8,254.1c0-0.1-0.1-0.2-0.1-0.3s-0.1-0.2-0.1-0.3c-0.2,0.2-0.4,0.4-0.6,0.5c-0.2,0.1-0.5,0.2-0.8,0.2
		c-0.5,0-0.9-0.1-1.2-0.4c-0.3-0.3-0.5-0.7-0.5-1.1c0-0.5,0.2-0.9,0.6-1.1c0.4-0.3,1-0.4,1.7-0.4h0.7v-0.5c0-0.3-0.1-0.5-0.2-0.6
		s-0.4-0.2-0.6-0.2c-0.2,0-0.3,0-0.4,0.1c-0.1,0-0.2,0.1-0.3,0.1l-0.1,0.6h-1.1v-1.2c0.3-0.2,0.6-0.3,0.9-0.4s0.7-0.2,1.1-0.2
		c0.7,0,1.2,0.2,1.6,0.5c0.4,0.3,0.6,0.8,0.6,1.4v2.2c0,0.1,0,0.2,0,0.2c0,0.1,0,0.1,0,0.2l0.4,0.1v0.9h-1.6V254.1z M114.6,253.2
		c0.2,0,0.4,0,0.6-0.1c0.2-0.1,0.3-0.2,0.4-0.3V252h-0.7c-0.3,0-0.5,0.1-0.7,0.2c-0.2,0.1-0.2,0.3-0.2,0.5s0.1,0.3,0.2,0.4
		C114.2,253.1,114.4,253.2,114.6,253.2z"/>
</g>
<g class="st3">
	<path class="st4" d="M119.7,247.6v1.3h0.9v1h-0.9v2.7c0,0.2,0,0.4,0.1,0.4c0.1,0.1,0.2,0.1,0.3,0.1s0.2,0,0.3,0s0.2,0,0.2,0l0.1,1
		c-0.2,0-0.3,0.1-0.5,0.1s-0.3,0-0.5,0c-0.5,0-0.9-0.1-1.1-0.4c-0.3-0.3-0.4-0.7-0.4-1.3v-2.7h-0.8v-1h0.8v-1.3L119.7,247.6
		L119.7,247.6z"/>
	<path class="st4" d="M121.3,253.3l0.7-0.1v-3.3l-0.8-0.1v-0.9h2.2v4.3l0.7,0.1v0.9h-2.8L121.3,253.3L121.3,253.3z M123.4,247.6H122
		v-1.1h1.4V247.6z"/>
	<path class="st4" d="M124.5,251.4c0-0.8,0.2-1.4,0.7-1.9c0.4-0.5,1.1-0.8,1.8-0.8c0.8,0,1.4,0.3,1.8,0.8c0.4,0.5,0.7,1.1,0.7,1.9
		v0.1c0,0.8-0.2,1.4-0.7,1.9c-0.4,0.5-1,0.7-1.8,0.7s-1.4-0.3-1.8-0.7c-0.4-0.5-0.7-1.1-0.7-1.9V251.4z M126,251.5
		c0,0.5,0.1,0.9,0.3,1.2s0.4,0.4,0.8,0.4c0.4,0,0.6-0.1,0.8-0.4c0.2-0.3,0.3-0.7,0.3-1.2v-0.1c0-0.5-0.1-0.9-0.3-1.1
		c-0.2-0.3-0.4-0.4-0.8-0.4s-0.6,0.1-0.8,0.4c-0.2,0.3-0.3,0.7-0.3,1.1V251.5z"/>
	<path class="st4" d="M130.1,253.3l0.7-0.1v-3.3l-0.8-0.1v-0.9h2.1l0.1,0.8c0.2-0.3,0.4-0.5,0.6-0.6c0.3-0.1,0.5-0.2,0.9-0.2
		c0.5,0,1,0.2,1.3,0.5s0.4,0.9,0.4,1.6v2.3l0.7,0.1v0.9h-2.7v-0.9l0.6-0.1V251c0-0.4-0.1-0.6-0.2-0.8c-0.1-0.1-0.4-0.2-0.6-0.2
		c-0.2,0-0.4,0-0.5,0.1c-0.2,0.1-0.3,0.2-0.4,0.3v2.8l0.6,0.1v0.9h-2.7v-0.9H130.1z"/>
	<path class="st4" d="M138.8,253.3l0.5-0.1l2.2-6.2h1.5l2.1,6.2l0.5,0.1v0.9h-2.4v-0.9l0.5-0.1l-0.3-1h-2.3l-0.3,1l0.5,0.1v0.9h-2.4
		L138.8,253.3L138.8,253.3z M141.4,251.2h1.6l-0.8-2.5l0,0L141.4,251.2z"/>
</g>
<g class="st3">
	<path class="st11" d="M135.9,91.2c0.3-0.2,0.6-0.3,1-0.4s0.8-0.1,1.2-0.1c0.4,0,0.7,0.1,0.9,0.2c0.2,0.1,0.4,0.2,0.5,0.4
		s0.2,0.3,0.2,0.5s0.1,0.4,0.1,0.6c0,0.4,0,0.9,0,1.3s0,0.8,0,1.2c0,0.3,0,0.5,0,0.8c0,0.2,0.1,0.5,0.1,0.7h-0.6l-0.2-0.8H139
		c-0.1,0.1-0.1,0.2-0.2,0.3c-0.1,0.1-0.2,0.2-0.4,0.3c-0.1,0.1-0.3,0.1-0.5,0.2s-0.4,0.1-0.6,0.1s-0.5,0-0.7-0.1s-0.4-0.2-0.5-0.3
		c-0.1-0.1-0.3-0.3-0.3-0.5c-0.1-0.2-0.1-0.4-0.1-0.6c0-0.3,0.1-0.6,0.2-0.8c0.1-0.2,0.3-0.4,0.6-0.5c0.2-0.1,0.5-0.2,0.9-0.3
		c0.3-0.1,0.7-0.1,1.1-0.1c0.1,0,0.2,0,0.3,0s0.2,0,0.3,0c0-0.2,0-0.4,0-0.6c0-0.4-0.1-0.7-0.2-0.8c-0.2-0.2-0.5-0.2-0.9-0.2
		c-0.1,0-0.3,0-0.4,0s-0.3,0-0.4,0.1c-0.2,0-0.3,0.1-0.4,0.1s-0.3,0.1-0.4,0.2L135.9,91.2z M137.4,95.6c0.2,0,0.4,0,0.6-0.1
		s0.3-0.1,0.4-0.2s0.2-0.2,0.3-0.3s0.1-0.2,0.2-0.3v-0.9c-0.1,0-0.2,0-0.3,0s-0.2,0-0.3,0c-0.2,0-0.4,0-0.7,0
		c-0.2,0-0.4,0.1-0.6,0.1c-0.2,0.1-0.3,0.2-0.4,0.3s-0.1,0.3-0.1,0.5c0,0.3,0.1,0.5,0.3,0.6C136.9,95.5,137.2,95.6,137.4,95.6z"/>
	<path class="st11" d="M140.7,90.8h0.9v-1.1l0.9-0.3v1.3h1.5v0.8h-1.5v3c0,0.4,0,0.7,0.1,0.8c0.1,0.2,0.3,0.2,0.5,0.2s0.4,0,0.5-0.1
		s0.3-0.1,0.4-0.2l0.2,0.7c-0.2,0.1-0.4,0.2-0.6,0.2c-0.2,0.1-0.5,0.1-0.8,0.1c-0.4,0-0.8-0.1-0.9-0.4c-0.2-0.3-0.3-0.7-0.3-1.3
		v-3.2h-0.9L140.7,90.8L140.7,90.8z"/>
</g>
<g class="st3">
	<path class="st11" d="M144.4,90.8h0.9v-1.1l0.9-0.3v1.3h1.5v0.8h-1.5v3c0,0.4,0,0.7,0.1,0.8c0.1,0.2,0.3,0.2,0.5,0.2s0.4,0,0.5-0.1
		c0.1,0,0.3-0.1,0.4-0.2l0.2,0.7c-0.2,0.1-0.4,0.2-0.6,0.2c-0.2,0.1-0.5,0.1-0.8,0.1c-0.4,0-0.8-0.1-0.9-0.4
		c-0.2-0.3-0.3-0.7-0.3-1.3v-3.2h-0.9L144.4,90.8L144.4,90.8z"/>
</g>
<g class="st3">
	<path class="st11" d="M152.8,95.9c-0.2,0.2-0.5,0.3-0.8,0.4s-0.7,0.2-1.1,0.2s-0.8-0.1-1.1-0.2s-0.6-0.3-0.8-0.6
		c-0.2-0.3-0.3-0.6-0.4-0.9c-0.1-0.4-0.1-0.7-0.1-1.2c0-0.9,0.2-1.7,0.6-2.1s1-0.7,1.8-0.7c0.2,0,0.5,0,0.7,0.1s0.5,0.2,0.7,0.3
		c0.2,0.2,0.4,0.4,0.5,0.7c0.1,0.3,0.2,0.7,0.2,1.1c0,0.2,0,0.5-0.1,0.8h-3.5c0,0.3,0,0.6,0.1,0.9s0.2,0.5,0.3,0.6
		c0.1,0.2,0.3,0.3,0.5,0.4s0.5,0.1,0.8,0.1c0.2,0,0.5,0,0.7-0.1s0.4-0.2,0.6-0.3L152.8,95.9z M150.9,91.4c-0.4,0-0.8,0.1-1,0.3
		c-0.3,0.2-0.4,0.6-0.5,1.2h2.7c0-0.6-0.1-0.9-0.3-1.2C151.6,91.6,151.3,91.4,150.9,91.4z"/>
	<path class="st11" d="M156.8,94.8c0-0.2-0.1-0.4-0.2-0.5s-0.3-0.2-0.5-0.3c-0.2-0.1-0.4-0.2-0.6-0.2c-0.2-0.1-0.4-0.2-0.6-0.3
		c-0.2-0.1-0.4-0.3-0.5-0.5s-0.2-0.4-0.2-0.8c0-0.5,0.1-0.9,0.5-1.2c0.3-0.2,0.7-0.4,1.3-0.4c0.4,0,0.7,0,1,0.1s0.5,0.2,0.7,0.2
		l-0.2,0.7c-0.2-0.1-0.4-0.2-0.6-0.2s-0.5-0.1-0.8-0.1s-0.6,0.1-0.7,0.2c-0.2,0.1-0.2,0.3-0.2,0.6c0,0.2,0.1,0.3,0.2,0.4
		s0.3,0.2,0.5,0.3s0.4,0.2,0.6,0.2c0.2,0.1,0.4,0.2,0.6,0.3s0.4,0.3,0.5,0.5s0.2,0.5,0.2,0.8c0,0.2,0,0.5-0.1,0.7s-0.2,0.4-0.4,0.5
		s-0.4,0.3-0.6,0.3c-0.2,0.1-0.5,0.1-0.8,0.1c-0.4,0-0.8,0-1.1-0.1c-0.3-0.1-0.5-0.2-0.7-0.3l0.3-0.7c0.2,0.1,0.4,0.2,0.7,0.3
		s0.5,0.1,0.8,0.1s0.6-0.1,0.8-0.2C156.7,95.4,156.8,95.1,156.8,94.8z"/>
	<path class="st11" d="M158.3,90.8h0.9v-1.1l0.9-0.3v1.3h1.5v0.8h-1.5v3c0,0.4,0,0.7,0.1,0.8c0.1,0.2,0.3,0.2,0.5,0.2s0.4,0,0.5-0.1
		s0.3-0.1,0.4-0.2l0.2,0.7c-0.2,0.1-0.4,0.2-0.6,0.2c-0.2,0.1-0.5,0.1-0.8,0.1c-0.4,0-0.8-0.1-0.9-0.4c-0.2-0.3-0.3-0.7-0.3-1.3
		v-3.2h-0.9V90.8z"/>
	<path class="st11" d="M162.6,91.2c0.3-0.2,0.6-0.3,1-0.4s0.8-0.1,1.2-0.1c0.4,0,0.7,0.1,0.9,0.2c0.2,0.1,0.4,0.2,0.5,0.4
		s0.2,0.3,0.2,0.5s0.1,0.4,0.1,0.6c0,0.4,0,0.9,0,1.3s0,0.8,0,1.2c0,0.3,0,0.5,0,0.8c0,0.2,0.1,0.5,0.1,0.7H166l-0.2-0.8h-0.1
		c-0.1,0.1-0.1,0.2-0.2,0.3c-0.1,0.1-0.2,0.2-0.4,0.3c-0.1,0.1-0.3,0.1-0.5,0.2s-0.4,0.1-0.6,0.1s-0.5,0-0.7-0.1s-0.4-0.2-0.5-0.3
		c-0.1-0.1-0.3-0.3-0.3-0.5c-0.1-0.2-0.1-0.4-0.1-0.6c0-0.3,0.1-0.6,0.2-0.8c0.1-0.2,0.3-0.4,0.6-0.5c0.2-0.1,0.5-0.2,0.9-0.3
		c0.3-0.1,0.7-0.1,1.1-0.1c0.1,0,0.2,0,0.3,0c0.1,0,0.2,0,0.3,0c0-0.2,0-0.4,0-0.6c0-0.4-0.1-0.7-0.2-0.8s-0.5-0.2-0.9-0.2
		c-0.1,0-0.3,0-0.4,0s-0.3,0-0.4,0.1c-0.2,0-0.3,0.1-0.4,0.1s-0.3,0.1-0.4,0.2L162.6,91.2z M164.2,95.6c0.2,0,0.4,0,0.5-0.1
		s0.3-0.1,0.4-0.2s0.2-0.2,0.3-0.3s0.1-0.2,0.2-0.3v-0.9c-0.1,0-0.2,0-0.3,0s-0.2,0-0.3,0c-0.2,0-0.4,0-0.7,0
		c-0.2,0-0.4,0.1-0.6,0.1c-0.2,0.1-0.3,0.2-0.4,0.3c-0.1,0.1-0.1,0.3-0.1,0.5c0,0.3,0.1,0.5,0.3,0.6S163.9,95.6,164.2,95.6z"/>
	<path class="st11" d="M167.4,90.8h0.9v-1.1l0.9-0.3v1.3h1.5v0.8h-1.5v3c0,0.4,0,0.7,0.1,0.8c0.1,0.2,0.3,0.2,0.5,0.2s0.4,0,0.5-0.1
		c0.1,0,0.3-0.1,0.4-0.2l0.2,0.7c-0.2,0.1-0.4,0.2-0.6,0.2c-0.2,0.1-0.5,0.1-0.8,0.1c-0.4,0-0.8-0.1-0.9-0.4
		c-0.2-0.3-0.3-0.7-0.3-1.3v-3.2h-0.9L167.4,90.8L167.4,90.8z"/>
	<path class="st11" d="M171.9,89.1c0-0.2,0.1-0.3,0.2-0.4s0.3-0.2,0.4-0.2s0.3,0.1,0.5,0.2s0.2,0.3,0.2,0.4s-0.1,0.3-0.2,0.4
		s-0.3,0.2-0.5,0.2s-0.3-0.1-0.4-0.2C171.9,89.4,171.9,89.3,171.9,89.1z M172.1,90.8h0.9v5.5h-0.9V90.8z"/>
	<path class="st11" d="M174.5,93.6c0-0.9,0.2-1.6,0.6-2.1s1-0.7,1.8-0.7c0.4,0,0.8,0.1,1.1,0.2c0.3,0.1,0.6,0.3,0.8,0.6
		s0.3,0.6,0.4,0.9c0.1,0.4,0.1,0.8,0.1,1.2c0,0.9-0.2,1.6-0.6,2.1s-1,0.7-1.8,0.7c-0.4,0-0.8-0.1-1.1-0.2c-0.3-0.1-0.6-0.3-0.8-0.6
		s-0.3-0.6-0.4-0.9C174.6,94.4,174.5,94,174.5,93.6z M175.4,93.6c0,0.3,0,0.5,0.1,0.8s0.1,0.5,0.3,0.7c0.1,0.2,0.3,0.3,0.5,0.5
		c0.2,0.1,0.4,0.2,0.7,0.2c1,0,1.5-0.7,1.5-2.1c0-0.3,0-0.6-0.1-0.8c-0.1-0.3-0.1-0.5-0.3-0.7c-0.1-0.2-0.3-0.3-0.5-0.5
		c-0.2-0.1-0.4-0.2-0.7-0.2C175.9,91.4,175.4,92.1,175.4,93.6z"/>
	<path class="st11" d="M184.3,96.3v-3.1c0-0.6-0.1-1-0.2-1.3c-0.2-0.3-0.5-0.4-0.9-0.4s-0.7,0.1-1,0.3s-0.4,0.5-0.5,0.8v3.8h-0.9
		v-5.5h0.6l0.2,0.7l0,0c0.2-0.2,0.4-0.4,0.7-0.6s0.7-0.2,1.1-0.2c0.3,0,0.6,0,0.8,0.1s0.4,0.2,0.6,0.4s0.3,0.4,0.3,0.7
		s0.1,0.7,0.1,1.1v3.3h-0.9V96.3z"/>
</g>
<g class="st3">
	<path class="st11" d="M136.4,107.5c0-0.3,0.1-0.6,0.2-0.8c0.1-0.3,0.2-0.5,0.4-0.7c0.2-0.2,0.4-0.4,0.6-0.6s0.5-0.4,0.7-0.5
		c-0.2-0.3-0.3-0.5-0.5-0.8c-0.1-0.3-0.2-0.5-0.2-0.9c0-0.2,0-0.3,0.1-0.5s0.2-0.3,0.3-0.5c0.1-0.1,0.3-0.2,0.5-0.3
		c0.2-0.1,0.4-0.1,0.7-0.1c0.3,0,0.6,0,0.8,0.1c0.2,0.1,0.4,0.2,0.5,0.3c0.1,0.1,0.2,0.3,0.3,0.4c0.1,0.2,0.1,0.3,0.1,0.5
		c0,0.3-0.1,0.6-0.4,1s-0.6,0.6-1.1,0.9c0.1,0.2,0.3,0.4,0.4,0.7c0.2,0.2,0.3,0.4,0.5,0.7c0.2,0.2,0.4,0.4,0.5,0.7
		c0.2,0.2,0.4,0.4,0.5,0.6c0.1-0.1,0.2-0.2,0.2-0.3c0.1-0.1,0.2-0.3,0.2-0.4c0.1-0.2,0.1-0.3,0.2-0.5s0.1-0.3,0.2-0.5l0.7,0.3
		c0,0.1-0.1,0.3-0.2,0.4c-0.1,0.2-0.2,0.3-0.3,0.5c-0.1,0.2-0.2,0.4-0.3,0.5s-0.2,0.3-0.3,0.4c0.2,0.1,0.3,0.3,0.4,0.4
		s0.2,0.2,0.3,0.3c0.1,0.1,0.2,0.1,0.3,0.2c0.1,0.1,0.2,0.1,0.3,0.2l-0.5,0.6c-0.4-0.2-0.8-0.5-1.3-1c-0.1,0.1-0.3,0.3-0.4,0.4
		c-0.2,0.1-0.3,0.2-0.5,0.3c-0.2,0.1-0.4,0.2-0.7,0.2s-0.5,0.1-0.8,0.1s-0.7,0-1-0.1s-0.6-0.2-0.8-0.4c-0.2-0.2-0.4-0.4-0.5-0.7
		S136.4,107.8,136.4,107.5z M140.8,108.1c-0.2-0.2-0.4-0.4-0.6-0.7c-0.2-0.2-0.4-0.5-0.6-0.7s-0.4-0.5-0.5-0.7
		c-0.2-0.2-0.3-0.4-0.4-0.6c-0.2,0.1-0.4,0.3-0.6,0.5s-0.3,0.3-0.4,0.5s-0.2,0.4-0.3,0.6s-0.1,0.4-0.1,0.6s0,0.4,0.1,0.6
		s0.2,0.3,0.4,0.5s0.4,0.2,0.6,0.3c0.2,0.1,0.4,0.1,0.7,0.1c0.2,0,0.4,0,0.5-0.1c0.2,0,0.3-0.1,0.5-0.2s0.3-0.2,0.4-0.3
		C140.6,108.3,140.7,108.2,140.8,108.1z M138.5,103.1c0,0.2,0,0.4,0.1,0.7c0.1,0.2,0.2,0.4,0.4,0.6c0.4-0.2,0.7-0.5,0.8-0.7
		c0.1-0.2,0.2-0.4,0.2-0.5c0-0.2-0.1-0.4-0.2-0.6c-0.1-0.1-0.3-0.2-0.6-0.2c-0.3,0-0.5,0.1-0.6,0.2
		C138.6,102.7,138.5,102.9,138.5,103.1z"/>
</g>
<g class="st3">
	<path class="st11" d="M151.6,109.1c-0.2,0.2-0.5,0.3-0.8,0.4s-0.6,0.1-0.9,0.1c-0.4,0-0.8-0.1-1.1-0.2s-0.5-0.3-0.7-0.6
		s-0.3-0.6-0.4-0.9s-0.1-0.8-0.1-1.2c0-0.9,0.2-1.6,0.6-2.1s1-0.7,1.8-0.7c0.4,0,0.7,0,0.9,0.1c0.2,0.1,0.5,0.1,0.7,0.2l-0.3,0.8
		c-0.2-0.1-0.4-0.2-0.6-0.2c-0.2-0.1-0.4-0.1-0.7-0.1c-1,0-1.6,0.7-1.6,2.1c0,0.3,0,0.5,0.1,0.8s0.1,0.5,0.3,0.7
		c0.1,0.2,0.3,0.3,0.5,0.5c0.2,0.1,0.5,0.2,0.8,0.2s0.5,0,0.7-0.1s0.4-0.2,0.5-0.3L151.6,109.1z"/>
</g>
<g class="st3">
	<path class="st11" d="M152.3,106.8c0-0.9,0.2-1.6,0.6-2.1s1-0.7,1.8-0.7c0.4,0,0.8,0.1,1.1,0.2c0.3,0.1,0.6,0.3,0.8,0.6
		s0.3,0.6,0.4,0.9c0.1,0.4,0.1,0.8,0.1,1.2c0,0.9-0.2,1.6-0.6,2.1s-1,0.7-1.8,0.7c-0.4,0-0.8-0.1-1.1-0.2c-0.3-0.1-0.6-0.3-0.8-0.6
		s-0.3-0.6-0.4-0.9C152.3,107.6,152.3,107.2,152.3,106.8z M153.2,106.8c0,0.3,0,0.5,0.1,0.8s0.1,0.5,0.3,0.7
		c0.1,0.2,0.3,0.3,0.5,0.5c0.2,0.1,0.4,0.2,0.7,0.2c1,0,1.5-0.7,1.5-2.1c0-0.3,0-0.6-0.1-0.8c-0.1-0.3-0.1-0.5-0.3-0.7
		c-0.1-0.2-0.3-0.3-0.5-0.5c-0.2-0.1-0.4-0.2-0.7-0.2C153.7,104.6,153.2,105.3,153.2,106.8z"/>
	<path class="st11" d="M162,109.5v-3.1c0-0.6-0.1-1-0.2-1.3c-0.2-0.3-0.5-0.4-0.9-0.4s-0.7,0.1-1,0.3c-0.3,0.2-0.4,0.5-0.5,0.8v3.8
		h-0.9V104h0.6l0.2,0.7l0,0c0.2-0.2,0.4-0.4,0.7-0.6c0.3-0.2,0.7-0.2,1.1-0.2c0.3,0,0.6,0,0.8,0.1c0.2,0.1,0.4,0.2,0.6,0.4
		s0.3,0.4,0.3,0.7s0.1,0.7,0.1,1.1v3.3H162z"/>
	<path class="st11" d="M168.7,104v5.5h-0.9v-4.7h-2.2v4.7h-0.9v-4.7h-0.9V104h0.9v-0.3c0-0.7,0.2-1.2,0.5-1.5s0.8-0.5,1.5-0.5
		c0.4,0,0.8,0,1.2,0.1c0.3,0.1,0.6,0.2,0.8,0.3l-0.3,0.7c-0.2-0.1-0.4-0.2-0.7-0.3c-0.3-0.1-0.6-0.1-0.9-0.1s-0.5,0-0.6,0.1
		c-0.2,0.1-0.3,0.2-0.4,0.3c-0.1,0.1-0.1,0.3-0.2,0.5c0,0.2,0,0.4,0,0.6h3.1V104z"/>
	<path class="st11" d="M174.6,109.8c0,0.7-0.2,1.2-0.6,1.6c-0.4,0.3-0.9,0.5-1.7,0.5c-0.4,0-0.8,0-1.1-0.1c-0.3-0.1-0.5-0.1-0.7-0.2
		l0.2-0.7c0.2,0.1,0.4,0.1,0.6,0.2s0.5,0.1,0.8,0.1s0.6,0,0.8-0.1s0.4-0.1,0.5-0.3c0.1-0.1,0.2-0.3,0.2-0.5s0.1-0.4,0.1-0.7V109l0,0
		c-0.1,0.2-0.3,0.4-0.6,0.5c-0.2,0.1-0.5,0.2-0.9,0.2c-0.7,0-1.3-0.2-1.6-0.7c-0.3-0.5-0.5-1.2-0.5-2.2c0-0.9,0.2-1.7,0.7-2.1
		c0.4-0.5,1.1-0.7,2-0.7c0.4,0,0.8,0,1.1,0.1c0.3,0.1,0.6,0.1,0.8,0.2L174.6,109.8L174.6,109.8z M172.4,108.9c0.4,0,0.7-0.1,0.9-0.3
		c0.2-0.2,0.4-0.5,0.5-0.9v-2.8c-0.3-0.1-0.7-0.2-1.1-0.2c-0.5,0-0.9,0.2-1.2,0.5c-0.3,0.3-0.4,0.9-0.4,1.6c0,0.3,0,0.6,0.1,0.8
		c0.1,0.3,0.1,0.5,0.2,0.7s0.3,0.3,0.4,0.4C171.9,108.8,172.2,108.9,172.4,108.9z"/>
	<path class="st11" d="M177.1,104v3.1c0,0.3,0,0.5,0,0.8c0,0.2,0.1,0.4,0.2,0.5s0.2,0.3,0.3,0.3c0.1,0.1,0.3,0.1,0.5,0.1
		s0.4,0,0.5-0.1s0.3-0.1,0.4-0.3c0.1-0.1,0.2-0.2,0.3-0.4c0.1-0.1,0.2-0.3,0.2-0.5V104h0.9v3.9c0,0.3,0,0.5,0,0.8s0,0.5,0.1,0.7
		h-0.6l-0.2-0.9h-0.1c-0.2,0.3-0.4,0.5-0.7,0.7c-0.3,0.2-0.6,0.3-1.1,0.3c-0.3,0-0.6,0-0.8-0.1s-0.4-0.2-0.6-0.4s-0.3-0.4-0.3-0.7
		s-0.1-0.7-0.1-1.1V104H177.1z"/>
	<path class="st11" d="M184.9,104.9c-0.2-0.1-0.4-0.1-0.6-0.1c-0.3,0-0.6,0.1-0.7,0.3c-0.2,0.2-0.3,0.4-0.3,0.7v3.8h-1V104h0.6
		l0.2,0.7l0,0c0.1-0.2,0.3-0.4,0.5-0.6s0.4-0.2,0.7-0.2c0.2,0,0.5,0,0.7,0.1L184.9,104.9z"/>
	<path class="st11" d="M185.9,104.4c0.3-0.2,0.6-0.3,1-0.4s0.8-0.1,1.2-0.1c0.4,0,0.7,0.1,0.9,0.2c0.2,0.1,0.4,0.2,0.5,0.4
		s0.2,0.3,0.2,0.5s0.1,0.4,0.1,0.6c0,0.4,0,0.9,0,1.3s0,0.8,0,1.2c0,0.3,0,0.5,0,0.8c0,0.2,0.1,0.5,0.1,0.7h-0.6l-0.2-0.8H189
		c-0.1,0.1-0.1,0.2-0.2,0.3c-0.1,0.1-0.2,0.2-0.4,0.3c-0.1,0.1-0.3,0.1-0.5,0.2s-0.4,0.1-0.6,0.1s-0.5,0-0.7-0.1s-0.4-0.2-0.5-0.3
		c-0.1-0.1-0.3-0.3-0.3-0.5c-0.1-0.2-0.1-0.4-0.1-0.6c0-0.3,0.1-0.6,0.2-0.8c0.1-0.2,0.3-0.4,0.6-0.5c0.2-0.1,0.5-0.2,0.9-0.3
		c0.3-0.1,0.7-0.1,1.1-0.1c0.1,0,0.2,0,0.3,0c0.1,0,0.2,0,0.3,0c0-0.2,0-0.4,0-0.6c0-0.4-0.1-0.7-0.2-0.8s-0.5-0.2-0.9-0.2
		c-0.1,0-0.3,0-0.4,0s-0.3,0-0.4,0.1c-0.2,0-0.3,0.1-0.4,0.1s-0.3,0.1-0.4,0.2L185.9,104.4z M187.5,108.8c0.2,0,0.4,0,0.5-0.1
		s0.3-0.1,0.4-0.2s0.2-0.2,0.3-0.3s0.1-0.2,0.2-0.3V107c-0.1,0-0.2,0-0.3,0s-0.2,0-0.3,0c-0.2,0-0.4,0-0.7,0c-0.2,0-0.4,0.1-0.6,0.1
		c-0.2,0.1-0.3,0.2-0.4,0.3c-0.1,0.1-0.1,0.3-0.1,0.5c0,0.3,0.1,0.5,0.3,0.6S187.2,108.8,187.5,108.8z"/>
	<path class="st11" d="M190.7,104h0.9v-1.1l0.9-0.3v1.3h1.5v0.8h-1.5v3c0,0.4,0,0.7,0.1,0.8c0.1,0.2,0.3,0.2,0.5,0.2s0.4,0,0.5-0.1
		s0.3-0.1,0.4-0.2l0.2,0.7c-0.2,0.1-0.4,0.2-0.6,0.2c-0.2,0.1-0.5,0.1-0.8,0.1c-0.4,0-0.8-0.1-0.9-0.4c-0.2-0.3-0.3-0.7-0.3-1.3
		v-3.2h-0.9L190.7,104L190.7,104z"/>
	<path class="st11" d="M195.2,102.3c0-0.2,0.1-0.3,0.2-0.4s0.3-0.2,0.4-0.2s0.3,0.1,0.5,0.2s0.2,0.3,0.2,0.4s-0.1,0.3-0.2,0.4
		s-0.3,0.2-0.5,0.2s-0.3-0.1-0.4-0.2C195.2,102.6,195.2,102.5,195.2,102.3z M195.4,104h0.9v5.5h-0.9V104z"/>
	<path class="st11" d="M197.8,106.8c0-0.9,0.2-1.6,0.6-2.1s1-0.7,1.8-0.7c0.4,0,0.8,0.1,1.1,0.2c0.3,0.1,0.6,0.3,0.8,0.6
		c0.2,0.3,0.3,0.6,0.4,0.9c0.1,0.4,0.1,0.8,0.1,1.2c0,0.9-0.2,1.6-0.6,2.1s-1,0.7-1.8,0.7c-0.4,0-0.8-0.1-1.1-0.2
		c-0.3-0.1-0.6-0.3-0.8-0.6c-0.2-0.3-0.3-0.6-0.4-0.9S197.8,107.2,197.8,106.8z M198.7,106.8c0,0.3,0,0.5,0.1,0.8s0.1,0.5,0.3,0.7
		c0.1,0.2,0.3,0.3,0.5,0.5c0.2,0.1,0.4,0.2,0.7,0.2c1,0,1.5-0.7,1.5-2.1c0-0.3,0-0.6-0.1-0.8c-0.1-0.3-0.1-0.5-0.3-0.7
		c-0.1-0.2-0.3-0.3-0.5-0.5s-0.4-0.2-0.7-0.2C199.2,104.6,198.7,105.3,198.7,106.8z"/>
	<path class="st11" d="M207.6,109.5v-3.1c0-0.6-0.1-1-0.2-1.3c-0.2-0.3-0.5-0.4-0.9-0.4s-0.7,0.1-1,0.3s-0.4,0.5-0.5,0.8v3.8h-0.9
		V104h0.6l0.2,0.7l0,0c0.2-0.2,0.4-0.4,0.7-0.6s0.7-0.2,1.1-0.2c0.3,0,0.6,0,0.8,0.1s0.4,0.2,0.6,0.4s0.3,0.4,0.3,0.7
		s0.1,0.7,0.1,1.1v3.3H207.6z"/>
</g>
<line class="st2" x1="112.7" y1="72.9" x2="112.7" y2="139.1"/>
<polygon class="st4" points="107,77.5 108,78.5 112.7,73.4 117.4,78.5 118.5,77.5 112.7,71.4 "/>
<polygon class="st4" points="107,134.5 108,133.6 112.7,138.6 117.4,133.6 118.5,134.5 112.7,140.7 "/>
<path class="st5" d="M104.7,92.2c4.6-4.5,12.1-4.5,16.6,0.2c4.5,4.6,4.5,12.1-0.2,16.6c-4.6,4.5-12.1,4.5-16.6-0.2
	c-2.1-2.2-3.3-5.1-3.4-8.2c0-2.6,0.8-5.1,2.4-7.1"/>
<path class="st6" d="M112.6,106.3h-4.2c-0.6,0-0.8-0.2-0.8-0.8V99c0-0.6,0.2-0.8,0.8-0.8h8.5c0.5,0,0.8,0.2,0.8,0.8v6.5
	c0,0.5-0.2,0.8-0.8,0.8C115.4,106.3,114,106.3,112.6,106.3z"/>
<path class="st6" d="M108.3,97.6c0-1.8,1-3.4,2.6-4.1c2.1-0.9,4.6,0,5.5,2.2c0.1,0.2,0.2,0.5,0.2,0.7c0.1,0.4,0.1,0.8,0.2,1.2"/>
<path class="st4" d="M111.9,103.5L111.9,103.5v0.9c0,0.2,0.1,0.2,0.3,0.2h0.8c0.2,0,0.3-0.1,0.3-0.3v-1.6c0-0.2,0.1-0.3,0.2-0.4
	c0.5-0.3,0.8-0.9,0.6-1.4c-0.2-0.6-0.8-1-1.5-1c-0.7-0.1-1.3,0.3-1.6,0.9c-0.2,0.6,0,1.2,0.5,1.5c0.2,0.1,0.3,0.3,0.3,0.5
	C111.9,103,111.9,103.3,111.9,103.5z"/>
<path class="st6" d="M67.7,183.9H157c2.8,0,5,2.2,5,5v17.2c0,2.8-2.2,5-5,5H67.7c-2.8,0-5-2.2-5-5v-17.2
	C62.7,186.1,64.9,183.9,67.7,183.9z"/>
<g id="Ebene_4">
	
		<linearGradient id="SVGID_00000108277540024677838360000004861770943346384524_" gradientUnits="userSpaceOnUse" x1="15.6192" y1="603.7899" x2="211.4192" y2="603.7899" gradientTransform="matrix(1 0 0 1 0 -563.8898)">
		<stop  offset="0" style="stop-color:#990066"/>
		<stop  offset="0.19" style="stop-color:#780066"/>
		<stop  offset="0.4" style="stop-color:#5A0066"/>
		<stop  offset="0.61" style="stop-color:#440066"/>
		<stop  offset="0.81" style="stop-color:#370066"/>
		<stop  offset="1" style="stop-color:#330066"/>
	</linearGradient>
	
		<path style="fill:url(#SVGID_00000108277540024677838360000004861770943346384524_);stroke:#FFCC00;stroke-width:2;stroke-miterlimit:10;" d="
		M20.6,14.4h185.8c2.8,0,5,2.2,5,5v41c0,2.8-2.2,5-5,5H20.6c-2.8,0-5-2.2-5-5v-41C15.6,16.6,17.8,14.4,20.6,14.4z"/>
	<g class="st3">
		<path class="st13" d="M56.5,31.4h-1.3L55,30.3c-0.2-0.2-0.4-0.3-0.6-0.4s-0.6-0.1-0.9-0.1c-0.7,0-1.3,0.3-1.7,0.8
			s-0.6,1.2-0.6,2.1V33c0,0.9,0.2,1.6,0.6,2.1s1,0.8,1.7,0.8c0.3,0,0.6,0,0.9-0.1s0.5-0.2,0.6-0.4l0.2-1.1h1.3V36
			c-0.3,0.4-0.8,0.7-1.3,1s-1.1,0.4-1.8,0.4c-1.1,0-2.1-0.4-2.8-1.2s-1.1-1.8-1.1-3.1v-0.3c0-1.2,0.4-2.3,1.1-3.1s1.7-1.2,2.8-1.2
			c0.7,0,1.3,0.1,1.8,0.4s1,0.6,1.3,1V31.4z"/>
		<path class="st13" d="M57.2,36.1l0.6-0.1l2.6-7.4h1.8l2.6,7.4l0.6,0.1v1h-2.9v-1l0.6-0.1l-0.4-1.2h-2.8L59.5,36l0.6,0.1v1h-2.9
			L57.2,36.1L57.2,36.1z M60.3,33.5h2l-1-3l0,0L60.3,33.5z"/>
		<path class="st13" d="M72.4,31.3h-1.3l-0.2-1.2c-0.1-0.1-0.4-0.2-0.7-0.2s-0.6-0.1-0.9-0.1c-0.5,0-0.8,0.1-1.1,0.3
			s-0.4,0.5-0.4,0.8s0.1,0.5,0.4,0.7s0.7,0.4,1.4,0.6c0.9,0.3,1.7,0.6,2.1,1s0.7,1,0.7,1.7s-0.3,1.3-0.9,1.7s-1.3,0.6-2.3,0.6
			c-0.7,0-1.3-0.1-1.8-0.3s-1-0.5-1.4-0.9v-1.8h1.3l0.2,1.2c0.2,0.1,0.4,0.3,0.7,0.3s0.6,0.1,1,0.1c0.5,0,0.8-0.1,1.1-0.3
			s0.4-0.4,0.4-0.8c0-0.3-0.1-0.6-0.3-0.8s-0.6-0.4-1.2-0.6c-1-0.3-1.8-0.6-2.3-1s-0.8-1-0.8-1.7s0.3-1.3,0.9-1.7s1.3-0.7,2.2-0.7
			c0.7,0,1.3,0.1,1.8,0.3s1,0.5,1.4,0.8L72.4,31.3L72.4,31.3z"/>
	</g>
	<g id="Scone_logo_white-2">
		<g>
			<g>
				<defs>
					<rect id="SVGID_00000036235193005805731920000011149302543593390993_" x="88.1" y="48.5" width="48.8" height="9.5"/>
				</defs>
				<clipPath id="SVGID_00000073720479497081143050000017537823586708097954_">
					<use xlink:href="#SVGID_00000036235193005805731920000011149302543593390993_"  style="overflow:visible;"/>
				</clipPath>
				<g style="clip-path:url(#SVGID_00000073720479497081143050000017537823586708097954_);">
					<g>
						<g>
							<defs>
								<rect id="SVGID_00000083056863414682876800000014085218846434264713_" x="88.1" y="48.5" width="48.8" height="9.5"/>
							</defs>
							<clipPath id="SVGID_00000015318209522728121660000010970855548474617008_">
								<use xlink:href="#SVGID_00000083056863414682876800000014085218846434264713_"  style="overflow:visible;"/>
							</clipPath>
							<g style="clip-path:url(#SVGID_00000015318209522728121660000010970855548474617008_);">
								<path class="st9" d="M94.6,50.9h-1c-0.2,0-0.4,0.2-0.4,0.4v1c0,0.2,0.2,0.4,0.4,0.4h1c0.2,0,0.4-0.2,0.4-0.4v-1
									C95,51.1,94.8,50.9,94.6,50.9 M91,52.7h1c0.2,0,0.4-0.2,0.4-0.4v-1c0-0.2-0.2-0.4-0.4-0.4h-1c-0.2,0-0.4,0.2-0.4,0.4v1
									C90.6,52.6,90.8,52.7,91,52.7 M89.9,52.3v-1c0-0.2-0.2-0.4-0.4-0.4h-1c-0.2,0-0.4,0.2-0.4,0.4v1c0,0.2,0.2,0.4,0.4,0.4h1
									C89.7,52.7,89.9,52.6,89.9,52.3 M94.6,53.5c-0.2,0-0.3,0.1-0.3,0.3V55c0,0.2,0.1,0.3,0.3,0.3c0.2,0,0.3-0.1,0.3-0.3v-1.3
									C95,53.6,94.8,53.5,94.6,53.5C94.7,53.4,94.7,53.4,94.6,53.5 M91.8,53.9v1c0,0.2,0.2,0.4,0.4,0.4h1c0.2,0,0.4-0.2,0.4-0.4
									v-1c0-0.2-0.2-0.4-0.4-0.4h-1C92,53.5,91.8,53.6,91.8,53.9 M91.1,54.9v-1c0-0.2-0.2-0.4-0.4-0.4h-1c-0.2,0-0.4,0.2-0.4,0.4
									v1c0,0.2,0.2,0.4,0.4,0.4h1C90.9,55.2,91.1,55.1,91.1,54.9 M94.6,56h-1c-0.2,0-0.4,0.2-0.4,0.4l0,0v1c0,0.2,0.2,0.4,0.4,0.4
									l0,0h1c0.2,0,0.4-0.2,0.4-0.4l0,0v-1C95,56.2,94.8,56,94.6,56L94.6,56 M91.9,56h-1c-0.2,0-0.4,0.2-0.4,0.4l0,0v1
									c0,0.2,0.2,0.4,0.4,0.4l0,0h1c0.2,0,0.4-0.2,0.4-0.4l0,0v-1C92.3,56.2,92.1,56,91.9,56L91.9,56"/>
								<path class="st9" d="M95.8,50.5c0.5,0.4,1,0.5,1.6,0.5c0,0,0,0,0,0.1v2.8c0,1.1-1.3,1.7-1.6,1.9l0,0V50.5L95.8,50.5"/>
								<path class="st9" d="M92.7,50.3c2.2-0.1,2.5-0.8,2.5-0.8l0.1-0.1h0.1c0,0,0.3,0.8,2.5,0.8c0.1,0,0.1,0,0.1,0.1V54
									c0,1.2-2.2,2.5-2.3,2.5s-0.1,0-0.1,0.1v0.9c0,0,0.1,0.1,0.2,0c0.8-0.5,3.1-1.7,3.1-3.3v-4.7c0-0.1-0.1-0.1-0.2-0.1
									c-2.8,0-3.3-1-3.3-1s-0.1,0-0.2,0s-0.1,0-0.1,0s-0.5,1-3.2,1c-0.1,0-0.1,0-0.1,0.1v0.6c0,0,0,0.1,0.1,0.1
									S92.7,50.4,92.7,50.3"/>
								<path class="st10" d="M101,56.4l1.1-0.4c0.3,0.5,0.8,0.9,1.4,0.8c0.3,0,0.6-0.1,0.8-0.2c0.2-0.1,0.4-0.3,0.4-0.6
									c0-0.6-0.8-1-1.4-1.2l0,0c-0.5-0.2-0.9-0.4-1.3-0.7s-0.6-0.8-0.6-1.3s0.2-1,0.6-1.4c0.5-0.4,1-0.6,1.6-0.5
									c0.9,0,1.7,0.4,2.2,1.2l-1.1,0.4c-0.1-0.2-0.2-0.3-0.4-0.4c-0.2-0.1-0.4-0.1-0.6-0.1c-0.6,0-1.1,0.3-1.1,0.8
									c0,0.3,0.2,0.6,0.4,0.7c0.3,0.2,0.6,0.4,1,0.5h0.3c0.8,0.4,1.9,0.8,1.9,2c0,0.6-0.3,1.1-0.7,1.4c-0.5,0.4-1.2,0.5-1.8,0.5
									C102.5,57.9,101.5,57.4,101,56.4"/>
								<path class="st10" d="M110.8,57.8c-0.5,0-0.9-0.1-1.4-0.3c-0.4-0.2-0.8-0.4-1.1-0.8c-0.3-0.3-0.6-0.7-0.7-1.1
									c-0.2-0.4-0.3-0.9-0.3-1.3c0-0.5,0.1-0.9,0.3-1.4c0.3-0.8,1-1.5,1.8-1.8c0.4-0.2,0.9-0.3,1.4-0.3s1.1,0.1,1.6,0.4
									c0.5,0.2,0.9,0.6,1.2,1l-0.9,0.7c-0.2-0.3-0.5-0.5-0.8-0.7s-0.7-0.2-1.1-0.3c-1.3,0-2.3,1.1-2.3,2.3c0,0.6,0.3,1.2,0.7,1.6
									c0.8,0.8,1.9,0.9,2.8,0.3c0.3-0.2,0.6-0.5,0.8-0.9l1,0.6c-0.3,0.5-0.7,1-1.3,1.3C112,57.7,111.4,57.8,110.8,57.8"/>
								<path class="st10" d="M118.4,57.9c-0.5,0-0.9-0.1-1.4-0.3c-0.4-0.2-0.8-0.4-1.1-0.8c-0.6-0.7-1-1.5-1-2.5
									c0-0.5,0.1-0.9,0.3-1.4c0.2-0.4,0.4-0.8,0.7-1.1c0.3-0.3,0.7-0.6,1.1-0.8s0.9-0.3,1.4-0.3s0.9,0.1,1.4,0.3
									c0.4,0.2,0.8,0.4,1.1,0.8c0.3,0.3,0.6,0.7,0.8,1.1c0.2,0.4,0.3,0.9,0.3,1.4C121.9,56.3,120.3,57.9,118.4,57.9L118.4,57.9
									 M118.4,52c-0.6,0-1.2,0.2-1.6,0.7c-0.4,0.4-0.7,1-0.7,1.7c0,1.3,1,2.3,2.3,2.3c0.6,0,1.2-0.2,1.7-0.7
									c0.9-0.9,0.9-2.4,0-3.3l0,0C119.6,52.3,119,52,118.4,52"/>
								<polygon class="st10" points="129.7,51 129.7,58 124.9,53.5 124.9,57.8 123.6,57.8 123.6,50.7 128.5,55.2 128.5,51 								
									"/>
								<polygon class="st10" points="133.1,52 133.1,53.8 136.5,53.8 136.5,54.9 133.1,54.9 133.1,56.7 136.9,56.7 136.9,57.8 
									131.8,57.8 131.8,51 136.9,51 136.9,52 								"/>
							</g>
						</g>
					</g>
				</g>
			</g>
		</g>
	</g>
	<path class="st16" d="M178.5,31.9h-10.2c-0.6-2.5-3.2-4.1-5.7-3.4c-2.5,0.6-4.1,3.2-3.4,5.7c0.6,2.5,3.2,4.1,5.7,3.4
		c1.7-0.4,3-1.7,3.4-3.4h3l1.4,1.4l1.4-1.4h0.2l0.9,0.9l0.8-0.8l1.3,1.3l1.5-1.5l1.1-1L178.5,31.9z M161.9,34.3
		c-0.7-0.1-1.2-0.7-1.1-1.4c0.1-0.6,0.5-1.1,1.1-1.1c0.7-0.1,1.3,0.4,1.4,1.1s-0.4,1.3-1.1,1.4C162.1,34.3,162,34.3,161.9,34.3z"/>
	<path class="st17" d="M142.7,31.9h-10.2c-0.6-2.5-3.2-4.1-5.7-3.4c-2.5,0.6-4.1,3.2-3.4,5.7c0.6,2.5,3.2,4.1,5.7,3.4
		c1.7-0.4,3-1.7,3.4-3.4h3l1.4,1.4l1.4-1.4h0.2l0.8,0.8l0.8-0.8l1.3,1.3l1.5-1.5l1.1-1L142.7,31.9z M126.1,34.3
		c-0.7,0-1.2-0.6-1.2-1.3s0.6-1.2,1.3-1.2c0.7,0,1.2,0.5,1.2,1.2C127.4,33.7,126.9,34.3,126.1,34.3
		C126.2,34.3,126.2,34.3,126.1,34.3z"/>
	<path class="st18" d="M106.9,31.9H96.7c-0.6-2.5-3.2-4.1-5.7-3.4c-2.5,0.6-4.1,3.2-3.4,5.7c0.6,2.5,3.2,4.1,5.7,3.4
		c1.7-0.4,3-1.7,3.4-3.4h3l1.4,1.4l1.4-1.4h0.2l0.9,0.9l0.8-0.8l1.3,1.3l1.5-1.5l1.1-1L106.9,31.9z M90.3,34.3
		c-0.7,0-1.2-0.6-1.2-1.3s0.6-1.2,1.3-1.2c0.7,0,1.2,0.6,1.2,1.2C91.6,33.7,91.1,34.3,90.3,34.3L90.3,34.3z"/>
</g>
</svg>
