<svg xmlns="http://www.w3.org/2000/svg" xmlns:xlink="http://www.w3.org/1999/xlink" viewBox="0 0 380.89 279"><defs><style>.cls-1,.cls-10,.cls-16,.cls-28,.cls-31,.cls-7{fill:none;}.cls-2{fill:#e6e6e6;}.cls-10,.cls-19,.cls-3,.cls-7,.cls-9{stroke:#fc0;}.cls-19,.cls-28,.cls-3,.cls-30,.cls-7{stroke-miterlimit:10;}.cls-10,.cls-19,.cls-28,.cls-3,.cls-30,.cls-7,.cls-9{stroke-width:2px;}.cls-3{fill:url(#Unbenannter_Verlauf_12);}.cls-4{font-size:11px;}.cls-4,.cls-8{fill:#fc0;}.cls-13,.cls-17,.cls-26,.cls-4{font-family:RobotoSlab-Bold, Roboto Slab;font-weight:700;}.cls-5{letter-spacing:-0.01em;}.cls-6{letter-spacing:-0.04em;}.cls-11,.cls-17,.cls-30,.cls-9{fill:#fff;}.cls-10,.cls-16,.cls-9{stroke-linecap:round;}.cls-10,.cls-16,.cls-31,.cls-9{stroke-linejoin:round;}.cls-12,.cls-13,.cls-26{fill:#306;}.cls-13{font-size:12.24px;}.cls-14{font-family:RobotoSlab-Regular, Roboto Slab;font-weight:400;}.cls-15{letter-spacing:-0.01em;}.cls-16,.cls-31{stroke:#306;}.cls-17{font-size:12px;}.cls-18{letter-spacing:-0.01em;}.cls-19{fill:url(#Unbenannter_Verlauf_3);}.cls-20{clip-path:url(#clip-path);}.cls-21{fill:#ffd138;}.cls-22{fill:#fdfeff;}.cls-23{fill:#906;}.cls-24{fill:#39f;}.cls-25{fill:#3c9;}.cls-26{font-size:13px;}.cls-27{letter-spacing:-0.06em;}.cls-28,.cls-30{stroke:#c30;}.cls-28{stroke-dasharray:2 2;}.cls-29{fill:#c30;}</style><linearGradient id="Unbenannter_Verlauf_12" x1="152.49" y1="220.27" x2="351.79" y2="220.27" gradientUnits="userSpaceOnUse"><stop offset="0" stop-color="#906"/><stop offset="0.19" stop-color="#780066"/><stop offset="0.4" stop-color="#5a0066"/><stop offset="0.61" stop-color="#406"/><stop offset="0.81" stop-color="#370066"/><stop offset="1" stop-color="#306"/></linearGradient><linearGradient id="Unbenannter_Verlauf_3" x1="155.98" y1="92.38" x2="351.79" y2="92.38" xlink:href="#Unbenannter_Verlauf_12"/><clipPath id="clip-path"><rect class="cls-1" x="228.51" y="101" width="48.77" height="9.55"/></clipPath></defs><title>CASOverview-2</title><g id="Ebene_1" data-name="Ebene 1"><path class="cls-2" d="M375.89,0,5,1A5,5,0,0,0,0,6V274a5,5,0,0,0,5,5l370.89-1a5,5,0,0,0,5-5V5A5,5,0,0,0,375.89,0Zm-9.84,259.5a5,5,0,0,1-5,5H117.43a5,5,0,0,1-5-5V56.93a5,5,0,0,1,5-5H361.05a5,5,0,0,1,5,5Z"/></g><g id="Ebene_2" data-name="Ebene 2"><rect class="cls-3" x="152.49" y="191.49" width="199.3" height="57.56" rx="5"/><text class="cls-4" transform="translate(217.59 242.17)">ap<tspan class="cls-5" x="12.7" y="0">p</tspan><tspan x="19.25" y="0">lic</tspan><tspan class="cls-6" x="32.1" y="0">a</tspan><tspan x="37.72" y="0">tion A</tspan></text><line class="cls-7" x1="252.14" y1="125.4" x2="252.14" y2="172.89"/><polygon class="cls-8" points="246.41 130.04 247.44 130.99 252.14 125.94 256.84 130.99 257.86 130.04 252.14 123.88 246.41 130.04"/><polygon class="cls-8" points="246.41 168.25 247.44 167.29 252.14 172.35 256.84 167.29 257.86 168.25 252.14 174.41 246.41 168.25"/><path class="cls-9" d="M244.11,140.76a11.74,11.74,0,1,1-3.51,8.38A11.56,11.56,0,0,1,243,142"/><path class="cls-10" d="M252,154.79h-4.24c-.58,0-.81-.23-.81-.8v-6.47c0-.58.23-.8.81-.8h8.45c.55,0,.77.22.77.77V154c0,.54-.22.77-.77.77C254.83,154.82,253.41,154.79,252,154.79Z"/><path class="cls-10" d="M247.67,146.16a4.52,4.52,0,0,1,2.64-4.14,4.2,4.2,0,0,1,5.78,2.85c.1.39.13.77.23,1.19"/><path class="cls-8" d="M251.33,152h0v.87c0,.16.06.23.25.23h.84c.22,0,.29-.07.29-.26v-1.61a.36.36,0,0,1,.22-.38,1.21,1.21,0,0,0,.61-1.45,1.53,1.53,0,0,0-1.44-1,1.64,1.64,0,0,0-1.61.86,1.19,1.19,0,0,0,.55,1.51.42.42,0,0,1,.25.49A4.29,4.29,0,0,1,251.33,152Z"/><path class="cls-9" d="M244.11,182.58A11.74,11.74,0,1,1,240.6,191a11.54,11.54,0,0,1,2.4-7.1"/><path class="cls-10" d="M252,196.61h-4.24c-.58,0-.81-.23-.81-.81v-6.46c0-.58.23-.8.81-.8h8.45c.55,0,.77.22.77.77v6.49c0,.55-.22.77-.77.77C254.83,196.64,253.41,196.61,252,196.61Z"/><path class="cls-10" d="M247.67,188a4.51,4.51,0,0,1,2.64-4.13,4.2,4.2,0,0,1,5.78,2.85c.1.39.13.77.23,1.19"/><path class="cls-8" d="M251.33,193.84h0v.87c0,.16.06.23.25.23h.84c.22,0,.29-.07.29-.26v-1.61a.38.38,0,0,1,.22-.39,1.21,1.21,0,0,0,.61-1.44,1.55,1.55,0,0,0-1.44-1,1.65,1.65,0,0,0-1.61.87,1.19,1.19,0,0,0,.55,1.51.41.41,0,0,1,.25.48A4.47,4.47,0,0,1,251.33,193.84Z"/></g><g id="schrift"><path class="cls-11" d="M31.71,51.05a1,1,0,0,1-1-1v-4.4a5.15,5.15,0,0,1,1.65-3.82,7.91,7.91,0,0,1,.94-.78,3.17,3.17,0,0,1,.59-.32,1.21,1.21,0,0,0,.2-.09,1.34,1.34,0,0,1,.24-.12,5.62,5.62,0,0,1,1.52-.26V40a9,9,0,0,1-2.5-1.74,8.66,8.66,0,0,1-2.48-4.94,3.21,3.21,0,0,1-1.71-5.14l-.87-1.08a3.3,3.3,0,0,1,.54-4.57l.58-.42L29.13,21a2.53,2.53,0,0,1,1.26-2.83l1.9-.95,4.6-2a6.21,6.21,0,0,1,2.49-.52,6.13,6.13,0,0,1,2.5.53l4.54,2,1.66.83a2.48,2.48,0,0,1,1.11,3.32l-.45.89,1.57,1.25a3.18,3.18,0,0,1,.74,4.17l-1,1.52a3.46,3.46,0,0,1,.16,1,3.21,3.21,0,0,1-2,3c-.13,4.13-3.44,6.22-5.22,6.94v.1a3.92,3.92,0,0,1,1.59.36l.37.15.29.12a.72.72,0,0,1,.2.09,3.93,3.93,0,0,1,1.12.93,5.4,5.4,0,0,1,1.57,3.74v4.4a1,1,0,0,1-1,1Z"/><path class="cls-12" d="M39.38,15.72a5.23,5.23,0,0,1,2.09.44l4.55,2,1.61.81a1.46,1.46,0,0,1,.66,2l-.8,1.61,2.2,1.76a2.17,2.17,0,0,1,.51,2.87l-1.25,2a1.9,1.9,0,0,1,.3,1.1,2.21,2.21,0,0,1-2.06,2.18v.09c.34,5.33-5.19,6.91-5.21,6.92h0v1.81h.74a3.26,3.26,0,0,1,1.46.29l.74.3a3.06,3.06,0,0,1,.88.73,4.43,4.43,0,0,1,1.32,3.08v4.4H31.71v-4.4A4.15,4.15,0,0,1,33,42.57a9.17,9.17,0,0,1,.88-.73c.22-.15.52-.22.74-.37a4.6,4.6,0,0,1,1.46-.22h.74V39.38s0,0,.07,0h0l-.1-.05a8.32,8.32,0,0,1-2.76-1.79,7.63,7.63,0,0,1-2.27-5.4l-.15-.1v.37a2.2,2.2,0,0,1-1.1-4.11l-1.47-1.83a2.31,2.31,0,0,1,.37-3.16l1.1-.81-.44-1.76a1.52,1.52,0,0,1,.73-1.68l1.91-1,4.55-2a5.19,5.19,0,0,1,2.09-.44m0-2a7.18,7.18,0,0,0-2.9.61l-4.54,2-.09,0-1.91,1a3.53,3.53,0,0,0-1.79,3.91v.05l.11.46h0a4.29,4.29,0,0,0-.77,6l.44.55A4.21,4.21,0,0,0,30,34.11a9.72,9.72,0,0,0,3.56,5.68l-.06,0a3.69,3.69,0,0,0-.68.35l-.1.07a12.86,12.86,0,0,0-1.06.88,6.18,6.18,0,0,0-1.94,4.53v4.4a2,2,0,0,0,2,2H47.12a2,2,0,0,0,2-2v-4.4a6.4,6.4,0,0,0-1.82-4.4A5.08,5.08,0,0,0,46,40.12a2.87,2.87,0,0,0-.4-.18l0,0a8.38,8.38,0,0,0,3.67-6.06,4.2,4.2,0,0,0,2.08-3.61,4.69,4.69,0,0,0-.08-.87l.72-1.15a4.12,4.12,0,0,0-1-5.5L50,22l.08-.17a3.4,3.4,0,0,0,.19-2.65,3.45,3.45,0,0,0-1.74-2l-1.62-.81-.09,0-4.55-2a7.1,7.1,0,0,0-2.89-.61Z"/><text class="cls-13" transform="translate(19.93 70.79)">Admin<tspan class="cls-14"><tspan x="4.06" y="14.69">(</tspan><tspan class="cls-15" x="8.01" y="14.69">r</tspan><tspan x="12.96" y="14.69">oot)</tspan></tspan></text><path class="cls-12" d="M42.45,29.08a.77.77,0,0,1,.72.71.72.72,0,1,1-.72-.71Z"/><circle class="cls-12" cx="36.7" cy="29.79" r="0.72"/><path class="cls-16" d="M37.49,34.47a2.52,2.52,0,0,0,2.08,1.07,2.64,2.64,0,0,0,2.09-1.07"/><path class="cls-16" d="M30.15,28.69a2.5,2.5,0,0,1,1.57-.5,2.53,2.53,0,0,1,1.58.5"/><path class="cls-16" d="M45.8,28.37c.42-.27.35-.18.92-.18a2.52,2.52,0,0,1,1.43.4"/><path class="cls-16" d="M41.75,39.34v1.91h.74a3.26,3.26,0,0,1,1.46.29l.74.3a3.06,3.06,0,0,1,.88.73,4.39,4.39,0,0,1,1.32,3.08v4.4H31.48v-4.4a4.15,4.15,0,0,1,1.32-3.08,9.17,9.17,0,0,1,.88-.73c.22-.15.52-.22.74-.37a4.62,4.62,0,0,1,1.47-.22h.73V39.34"/><path class="cls-16" d="M47.42,28h0a1.89,1.89,0,0,1,1.66,1.21,2.06,2.06,0,0,1,.19,1.11,2.11,2.11,0,0,1-2.13,2.07h0"/><path class="cls-16" d="M30.31,28.34a2.2,2.2,0,0,0,1.1,4.11v-4.4A2.06,2.06,0,0,0,30.31,28.34Z"/><path class="cls-16" d="M30.31,28.34l-1.47-1.83a2.31,2.31,0,0,1,.37-3.16l1.1-.81-.44-1.76a1.52,1.52,0,0,1,.73-1.68l1.91-1,4.55-2a5.24,5.24,0,0,1,4.18,0l4.55,2L47.4,19a1.46,1.46,0,0,1,.66,2l-.8,1.61,2.2,1.76A2.17,2.17,0,0,1,50,27.17l-1.17,1.2"/><path class="cls-16" d="M44.1,25.92a24.49,24.49,0,0,1-9.61-2.2,9.92,9.92,0,0,1-2.93,4.4v4a7.66,7.66,0,0,0,2.27,5.43,8.32,8.32,0,0,0,2.86,1.84h0a7.67,7.67,0,0,0,2.57.44,6.32,6.32,0,0,0,2.05-.3c.15-.07.37-.07.52-.14h0A7.7,7.7,0,0,0,47,32.52v-4.4"/><path class="cls-16" d="M43.59,24a5.24,5.24,0,0,0,.58,1.84,4.06,4.06,0,0,0,2.72,2.2"/><path class="cls-16" d="M38.57,29.37a3.13,3.13,0,0,1,1.3-.34c.32,0,.46.16.7.34"/><ellipse class="cls-16" cx="36.07" cy="29.37" rx="2.5" ry="2"/><ellipse class="cls-16" cx="43.07" cy="29.37" rx="2.5" ry="2"/></g><g id="Ebene_4" data-name="Ebene 4"><text class="cls-17" transform="translate(208.98 223.66)">Security <tspan class="cls-18" x="50.92" y="0">P</tspan><tspan class="cls-5" x="58.61" y="0">o</tspan><tspan x="65.21" y="0">licy</tspan></text><rect class="cls-19" x="155.98" y="66.9" width="195.81" height="50.97" rx="5"/><text class="cls-17"><tspan x="189.6" y="89.61">CAS</tspan></text><g id="Scone_logo_white" data-name="Scone logo white"><g class="cls-20"><g class="cls-20"><path class="cls-21" d="M235,103.42h-1a.38.38,0,0,0-.39.39v1a.38.38,0,0,0,.39.39h1a.38.38,0,0,0,.39-.39v-1a.38.38,0,0,0-.39-.39m-3.56,1.82h1a.39.39,0,0,0,.39-.39v-1a.39.39,0,0,0-.39-.39h-1a.39.39,0,0,0-.39.39v1a.39.39,0,0,0,.39.39m-1.1-.39v-1a.38.38,0,0,0-.39-.39h-1a.38.38,0,0,0-.39.39v1a.38.38,0,0,0,.39.39h1a.38.38,0,0,0,.39-.39m4.74,1.12a.31.31,0,0,0-.3.3v1.21a.31.31,0,0,0,.3.3.3.3,0,0,0,.29-.3v-1.21a.28.28,0,0,0-.29-.3m-2.81.39v1a.4.4,0,0,0,.39.39h1a.4.4,0,0,0,.4-.39v-1a.4.4,0,0,0-.4-.39h-1a.4.4,0,0,0-.39.39m-.73,1v-1a.39.39,0,0,0-.39-.39h-1a.39.39,0,0,0-.39.39v1a.39.39,0,0,0,.39.39h1a.39.39,0,0,0,.39-.39m3.46,1.11h-1a.39.39,0,0,0-.39.4v1a.39.39,0,0,0,.39.39h1a.39.39,0,0,0,.39-.39v-1a.39.39,0,0,0-.39-.4m-2.65,0h-1a.4.4,0,0,0-.4.4v1a.4.4,0,0,0,.4.39h1a.4.4,0,0,0,.39-.39v-1a.4.4,0,0,0-.39-.4"/><path class="cls-21" d="M236.21,103a2.36,2.36,0,0,0,1.59.49s0,0,0,.07v2.81c0,1.08-1.32,1.75-1.63,1.93,0,0,0,0,0,0l0-5.27s0,0,0,0"/><path class="cls-21" d="M233.12,102.87c2.16-.08,2.52-.83,2.52-.83a.11.11,0,0,1,.1-.06.09.09,0,0,1,.09,0s.34.81,2.5.81c.06,0,.08,0,.08.1v3.69c0,1.18-2.24,2.51-2.28,2.53s-.08.06-.08.08v.93s.14,0,.2,0c.82-.45,3.14-1.72,3.14-3.3v-4.71c0-.08-.14-.14-.22-.14-2.75,0-3.26-1-3.26-1s-.12,0-.17,0-.1,0-.12,0-.45,1-3.18,1c-.1,0-.12,0-.12.12v.59s0,.14.08.14.72,0,.72,0"/><path class="cls-22" d="M241.43,108.9l1.1-.41a1.51,1.51,0,0,0,1.44.82,1.56,1.56,0,0,0,.84-.2.65.65,0,0,0,.35-.59c0-.58-.8-.94-1.39-1.17l0,0a5.59,5.59,0,0,1-1.28-.71,1.61,1.61,0,0,1-.63-1.3,1.73,1.73,0,0,1,.65-1.35,2.49,2.49,0,0,1,1.63-.55,2.33,2.33,0,0,1,2.16,1.18l-1.14.43a.78.78,0,0,0-.39-.41,1.54,1.54,0,0,0-.63-.14c-.63,0-1.06.33-1.06.78a.88.88,0,0,0,.43.71,5.73,5.73,0,0,0,1,.51l.13.06c.85.35,1.89.81,1.89,1.95a1.63,1.63,0,0,1-.75,1.39,3,3,0,0,1-1.78.51,2.63,2.63,0,0,1-2.52-1.49"/><path class="cls-22" d="M251.17,110.37a3.65,3.65,0,0,1-1.35-.27,3.58,3.58,0,0,1-1.85-1.85,3.54,3.54,0,0,1,0-2.71,3.58,3.58,0,0,1,1.85-1.85,3.65,3.65,0,0,1,1.35-.27,3.42,3.42,0,0,1,2.77,1.37l-.92.69a2.58,2.58,0,0,0-.8-.67,2.62,2.62,0,0,0-1.07-.25,2.33,2.33,0,0,0-1.65,4,2.25,2.25,0,0,0,1.65.69,2.3,2.3,0,0,0,1.18-.33,2.36,2.36,0,0,0,.85-.87l1,.57a3.37,3.37,0,0,1-1.26,1.28,3.21,3.21,0,0,1-1.75.49"/><path class="cls-22" d="M258.78,110.39a3.66,3.66,0,0,1-1.36-.27,3.31,3.31,0,0,1-1.1-.75,3.4,3.4,0,0,1-1-2.46,3.29,3.29,0,0,1,.27-1.35,3.64,3.64,0,0,1,.75-1.1,3.59,3.59,0,0,1,1.1-.75,3.54,3.54,0,0,1,2.71,0,3.17,3.17,0,0,1,1.1.75,3.47,3.47,0,0,1,.75,1.1,3.54,3.54,0,0,1,0,2.71,3.47,3.47,0,0,1-.75,1.1,3.77,3.77,0,0,1-1.1.75,3.65,3.65,0,0,1-1.35.27m0-5.83a2.25,2.25,0,0,0-1.65.68,2.33,2.33,0,0,0-.69,1.65,2.22,2.22,0,0,0,.69,1.65,2.25,2.25,0,0,0,1.65.69,2.28,2.28,0,0,0,1.65-.69,2.33,2.33,0,0,0,.68-1.65,2.4,2.4,0,0,0-.68-1.65,2.36,2.36,0,0,0-1.65-.68"/><polygon class="cls-22" points="270.15 103.48 270.15 110.55 265.28 106.07 265.28 110.27 264.04 110.27 264.04 103.22 268.91 107.72 268.91 103.48 270.15 103.48"/><polygon class="cls-22" points="273.47 104.52 273.47 106.33 276.87 106.33 276.87 107.39 273.47 107.39 273.47 109.21 277.28 109.21 277.28 110.27 272.23 110.27 272.23 103.48 277.28 103.48 277.28 104.54 273.47 104.54 273.47 104.52"/></g></g></g><path class="cls-23" d="M318.93,84.41H308.76a4.72,4.72,0,1,0,0,2.27h3L313.09,88l1.36-1.36h.17l.86.86.8-.8,1.3,1.3L319,86.58l1.1-1Zm-16.57,2.38a1.25,1.25,0,1,1,1.25-1.25A1.25,1.25,0,0,1,302.36,86.79Z"/><path class="cls-24" d="M283.12,84.41H273a4.72,4.72,0,1,0,0,2.27h3L277.28,88l1.36-1.36h.17l.87.86.8-.8,1.29,1.3,1.46-1.46,1.09-1Zm-16.57,2.38a1.25,1.25,0,1,1,1.25-1.25A1.25,1.25,0,0,1,266.55,86.79Z"/><path class="cls-25" d="M247.31,84.41H237.14a4.72,4.72,0,1,0,0,2.27h3L241.47,88l1.36-1.36H243l.87.86.8-.8L246,88l1.46-1.46,1.09-1Zm-16.57,2.38A1.25,1.25,0,1,1,232,85.54,1.24,1.24,0,0,1,230.74,86.79Z"/><text class="cls-26" transform="translate(14.38 160.69)"><tspan class="cls-27">A</tspan><tspan x="8.59" y="0">ttac</tspan><tspan class="cls-5" x="32.28" y="0">k</tspan><tspan x="40.08" y="0">er </tspan></text><line class="cls-28" x1="121.88" y1="101.03" x2="68.37" y2="123.88"/><polygon class="cls-29" points="115.37 97.59 114.89 98.91 121.39 101.25 118.58 107.55 119.86 108.12 123.28 100.44 115.37 97.59"/><line class="cls-28" x1="121.88" y1="81.51" x2="68.37" y2="58.66"/><polygon class="cls-29" points="119.86 74.42 118.58 74.99 121.39 81.3 114.89 83.64 115.37 84.95 123.28 82.1 119.86 74.42"/><circle class="cls-30" cx="137.64" cy="91.38" r="7.77"/><line class="cls-30" x1="143.13" y1="96.88" x2="132.15" y2="85.89"/><path class="cls-11" d="M29.47,140.52a1,1,0,0,1-1-1v-5.1a5.18,5.18,0,0,1,2.14-4.15,7.24,7.24,0,0,1,3.51-1.53,4.67,4.67,0,0,1,1.14-.1v-1.06a9.3,9.3,0,0,1-3.63-7.24c0-.89,0-1.26,0-1.63,0-.16,0-.33,0-.54h-.21a1,1,0,0,1-1-1v-5.56a1,1,0,0,1,.16-.54,10.41,10.41,0,0,1,6.91-8.36,10.59,10.59,0,0,1,7,0,10.14,10.14,0,0,1,3.9,2.49,10.5,10.5,0,0,1,3,5.92.91.91,0,0,1,.15.48v5.56a1,1,0,0,1-1,1h-.19v2.54a8.64,8.64,0,0,1-3.71,7v.89a4.71,4.71,0,0,1,1.14.1,7.27,7.27,0,0,1,3.54,1.56,5.13,5.13,0,0,1,2.11,4.12v5.1a1,1,0,0,1-1,1Z"/><path class="cls-12" d="M40.92,103.12a9.38,9.38,0,0,1,3.17.54,9.05,9.05,0,0,1,3.53,2.25,9.39,9.39,0,0,1,2.76,5.7h.1v5.56H49.29v3.54a7.67,7.67,0,0,1-3.71,6.5v2.43h1a4,4,0,0,1,1,.08,6.26,6.26,0,0,1,3.1,1.35,4.18,4.18,0,0,1,1.75,3.35v5.1H29.47v-5.1a4.2,4.2,0,0,1,1.74-3.35,6.3,6.3,0,0,1,3.11-1.35,4,4,0,0,1,1-.08h1v-2.47h.15a8.25,8.25,0,0,1-3.78-6.83c0-1.76-.07-1.53-.08-3.17H31.36v-5.56h.1a9.5,9.5,0,0,1,9.46-8.49m0-2a11.51,11.51,0,0,0-11.36,9.62,2,2,0,0,0-.2.87v5.56A2,2,0,0,0,30.61,119c0,.29,0,.65,0,1.31a10.25,10.25,0,0,0,3.3,7.42A8.26,8.26,0,0,0,30,129.5a6.14,6.14,0,0,0-2.51,4.92v5.1a2,2,0,0,0,2,2h22.9a2,2,0,0,0,2-2v-5.1a6.14,6.14,0,0,0-2.51-4.92,8.15,8.15,0,0,0-3.74-1.71,9.55,9.55,0,0,0,3.17-7.08V119a2,2,0,0,0,1.19-1.83v-5.56a2,2,0,0,0-.2-.87A11.53,11.53,0,0,0,49,104.5a11.1,11.1,0,0,0-4.28-2.73,11.62,11.62,0,0,0-3.83-.65Z"/><polygon class="cls-12" points="31.17 115.74 31.17 120.08 38.99 120.08 40.92 120.08 42.85 120.08 50.62 120.08 50.62 115.74 31.17 115.74"/><path class="cls-31" d="M32.55,115.76c0,1.88.08,2.7.08,4.58a8.32,8.32,0,0,0,8.29,8.18,8.08,8.08,0,0,0,8.37-7.81v-5.24"/><path class="cls-31" d="M31.4,112.59a9.53,9.53,0,0,1,12.69-8.93,9.05,9.05,0,0,1,3.53,2.25,9.37,9.37,0,0,1,2.81,6.68"/><rect class="cls-16" x="31.36" y="112.21" width="19.12" height="3.53"/><line class="cls-16" x1="39.82" y1="123.66" x2="43.29" y2="123.66"/><path class="cls-11" d="M37.39,116.6a1.39,1.39,0,0,0-.12,1.89,1.33,1.33,0,0,0,2.35-.77h0Z"/><path class="cls-11" d="M46.49,116.63,44.39,118a1.48,1.48,0,0,0,.31.61,1.34,1.34,0,0,0,2.3-.94A1.36,1.36,0,0,0,46.49,116.63Z"/></g></svg>