<svg xmlns="http://www.w3.org/2000/svg" xmlns:xlink="http://www.w3.org/1999/xlink" viewBox="0 0 780.57 236.44"><defs><style>.cls-1,.cls-2,.cls-28,.cls-29,.cls-31,.cls-35,.cls-42,.cls-48,.cls-5{fill:none;}.cls-2,.cls-48{stroke:#c30;}.cls-11,.cls-18,.cls-2,.cls-29,.cls-31,.cls-35,.cls-42,.cls-5{stroke-miterlimit:10;}.cls-11,.cls-18,.cls-2,.cls-27,.cls-28,.cls-29,.cls-31,.cls-35,.cls-42,.cls-48,.cls-5{stroke-width:2px;}.cls-2,.cls-42{stroke-dasharray:2 2;}.cls-3{fill:#fc9;opacity:0.2;}.cls-4{fill:url(#Unbenannter_Verlauf_12);}.cls-11,.cls-18,.cls-27,.cls-28,.cls-42,.cls-5{stroke:#fc0;}.cls-32,.cls-36,.cls-39,.cls-6{font-size:12px;}.cls-19,.cls-36,.cls-45,.cls-6{fill:#306;}.cls-19,.cls-6{font-family:PTSans-Regular, PT Sans;}.cls-7{letter-spacing:-0.01em;}.cls-8{letter-spacing:-0.01em;}.cls-9{letter-spacing:-0.01em;}.cls-10{letter-spacing:-0.02em;}.cls-11{fill:url(#Unbenannter_Verlauf_12-2);}.cls-12{fill:#906;}.cls-13{fill:#39f;}.cls-14{fill:#3c9;}.cls-15{clip-path:url(#clip-path);}.cls-16{fill:#ffd138;}.cls-17{fill:#fdfeff;}.cls-18{fill:url(#Unbenannter_Verlauf_12-3);}.cls-19,.cls-43{font-size:11px;}.cls-20{letter-spacing:-0.01em;}.cls-21{letter-spacing:-0.01em;}.cls-22{letter-spacing:-0.02em;}.cls-23{letter-spacing:-0.01em;}.cls-24{letter-spacing:-0.04em;}.cls-25{letter-spacing:-0.04em;}.cls-26,.cls-39,.cls-43{fill:#fc0;}.cls-27,.cls-32,.cls-44{fill:#fff;}.cls-27,.cls-28,.cls-48{stroke-linecap:round;stroke-linejoin:round;}.cls-29{stroke:#0089ee;}.cls-30{fill:#0089ee;}.cls-31{stroke:#fff;}.cls-32,.cls-36,.cls-39{font-family:RobotoSlab-Bold, Roboto Slab;font-weight:700;}.cls-33{letter-spacing:0em;}.cls-34{letter-spacing:0.01em;}.cls-35{stroke:#39f;}.cls-37{opacity:0.4;}.cls-38{fill:#86c2eb;}.cls-40{letter-spacing:0.01em;}.cls-41{clip-path:url(#clip-path-3);}.cls-43,.cls-44,.cls-45{font-family:RobotoSlab-Regular, Roboto Slab;}.cls-44,.cls-45{font-size:10px;}.cls-46{letter-spacing:-0.01em;}.cls-47{letter-spacing:-0.01em;}.cls-49{fill:#c30;}.cls-50{letter-spacing:-0.03em;}</style><linearGradient id="Unbenannter_Verlauf_12" x1="438.79" y1="-373" x2="313.13" y2="-373" gradientTransform="translate(941.64 -249.79) rotate(180)" gradientUnits="userSpaceOnUse"><stop offset="0" stop-color="#906"/><stop offset="0.19" stop-color="#780066"/><stop offset="0.4" stop-color="#5a0066"/><stop offset="0.61" stop-color="#406"/><stop offset="0.81" stop-color="#370066"/><stop offset="1" stop-color="#306"/></linearGradient><linearGradient id="Unbenannter_Verlauf_12-2" x1="279.02" y1="128.43" x2="403.8" y2="128.43" gradientTransform="matrix(1, 0, 0, 1, 0, 0)" xlink:href="#Unbenannter_Verlauf_12"/><clipPath id="clip-path"><rect class="cls-1" x="323.2" y="140.36" width="36.34" height="7.12"/></clipPath><linearGradient id="Unbenannter_Verlauf_12-3" x1="35.78" y1="123.58" x2="189.58" y2="123.58" gradientTransform="matrix(1, 0, 0, 1, 0, 0)" xlink:href="#Unbenannter_Verlauf_12"/><clipPath id="clip-path-3"><rect class="cls-1" x="546.76" y="140.43" width="36.34" height="7.12"/></clipPath></defs><title>CASOverview-6</title><g id="Ebene_2" data-name="Ebene 2"><rect class="cls-2" x="489.03" y="43.58" width="153.8" height="160.81" rx="5"/><rect class="cls-3" x="489.03" y="43.58" width="153.8" height="160.81" rx="5"/><path class="cls-4" d="M502.84,133.54v-35a5.36,5.36,0,0,1,5-4.93H623.51c2.76,0,5,1.76,5,3.93v51.41c0,2.17-2.24,3.93-5,3.93H507.84a5.36,5.36,0,0,1-5-4.93V133.29"/><path class="cls-5" d="M502.84,133.54v-35a5.36,5.36,0,0,1,5-4.93H623.51c2.76,0,5,1.76,5,3.93v51.41c0,2.17-2.24,3.93-5,3.93H507.84a5.36,5.36,0,0,1-5-4.93V133.29"/><text class="cls-6" transform="translate(653.71 119.58)"><tspan class="cls-7">R</tspan><tspan x="7.02" y="0">un encryp</tspan><tspan class="cls-8" x="57.49" y="0">t</tspan><tspan x="61.43" y="0">ed </tspan><tspan class="cls-9" x="77.18" y="0">p</tspan><tspan x="83.53" y="0">ython </tspan><tspan class="cls-10" x="0" y="14.4">c</tspan><tspan x="5.14" y="14.4">ode inside an encla</tspan><tspan class="cls-8" x="104.38" y="14.4">v</tspan><tspan x="110.03" y="14.4">e</tspan></text><rect class="cls-11" x="279.02" y="103.43" width="124.77" height="50" rx="5"/><path class="cls-12" d="M365.84,129.09H355.66a4.72,4.72,0,1,0,0,2.27h3l1.35,1.36,1.36-1.36h.18l.86.86.8-.8,1.3,1.3,1.45-1.45,1.09-1Zm-16.57,2.38a1.25,1.25,0,1,1,1.24-1.24A1.25,1.25,0,0,1,349.27,131.47Z"/><path class="cls-13" d="M365.84,122.81H355.66a4.72,4.72,0,1,0,0,2.27h3l1.35,1.36,1.36-1.36h.18l.86.86.8-.8,1.3,1.3,1.45-1.46,1.09-1Zm-16.57,2.38a1.25,1.25,0,1,1,1.24-1.25A1.25,1.25,0,0,1,349.27,125.19Z"/><path class="cls-14" d="M365.84,116.29H355.66a4.72,4.72,0,1,0,0,2.27h3l1.35,1.36,1.36-1.36h.18l.86.86.8-.8,1.3,1.3,1.45-1.46,1.09-1Zm-16.57,2.38a1.25,1.25,0,1,1,0-2.49,1.25,1.25,0,0,1,0,2.49Z"/><g id="Scone_logo_white" data-name="Scone logo white"><g class="cls-15"><g class="cls-15"><path class="cls-16" d="M328,142.16h-.76a.3.3,0,0,0-.29.3v.77a.3.3,0,0,0,.29.3H328a.3.3,0,0,0,.29-.3v-.77a.3.3,0,0,0-.29-.3m-2.65,1.37h.76a.31.31,0,0,0,.3-.3v-.77a.31.31,0,0,0-.3-.3h-.76a.3.3,0,0,0-.29.3v.77a.3.3,0,0,0,.29.3m-.82-.3v-.77a.3.3,0,0,0-.29-.3h-.76a.3.3,0,0,0-.29.3v.77a.3.3,0,0,0,.29.3h.76a.3.3,0,0,0,.29-.3m3.53.84a.22.22,0,0,0-.22.22v.9a.22.22,0,0,0,.44,0v-.9a.21.21,0,0,0-.22-.22m-2.09.29v.78a.29.29,0,0,0,.29.29H327a.29.29,0,0,0,.29-.29v-.78a.29.29,0,0,0-.29-.29h-.76a.29.29,0,0,0-.29.29m-.55.78v-.78a.29.29,0,0,0-.29-.29h-.76a.29.29,0,0,0-.29.29v.78a.29.29,0,0,0,.29.29h.76a.29.29,0,0,0,.29-.29M328,146h-.76a.29.29,0,0,0-.29.29V147a.29.29,0,0,0,.29.29H328a.29.29,0,0,0,.29-.29v-.78A.29.29,0,0,0,328,146m-2,0h-.76a.29.29,0,0,0-.29.29V147a.29.29,0,0,0,.29.29H326a.29.29,0,0,0,.3-.29v-.78a.29.29,0,0,0-.3-.29"/><path class="cls-16" d="M328.93,141.86a1.75,1.75,0,0,0,1.19.36s0,0,0,.06v2.09c0,.81-1,1.31-1.21,1.44a0,0,0,0,1,0,0v-3.92s0,0,0,0"/><path class="cls-16" d="M326.63,141.75c1.61-.05,1.88-.61,1.88-.61a.07.07,0,0,1,.07,0s.06,0,.07,0,.25.6,1.86.6c.05,0,.06,0,.06.07v2.75c0,.88-1.67,1.87-1.7,1.89a.07.07,0,0,0-.05.06v.68s.1,0,.14,0c.62-.33,2.34-1.28,2.34-2.46v-3.51c0-.06-.1-.1-.16-.1-2.05,0-2.43-.75-2.43-.75s-.08,0-.13,0-.07,0-.09,0-.33.77-2.37.77c-.07,0-.09,0-.09.09v.44s0,.1.06.1l.54,0"/><path class="cls-17" d="M332.83,146.25l.81-.31a1.14,1.14,0,0,0,1.07.62,1.2,1.2,0,0,0,.63-.15.49.49,0,0,0,.27-.44c0-.44-.6-.7-1-.88h0a3.71,3.71,0,0,1-1-.53,1.17,1.17,0,0,1-.47-1,1.29,1.29,0,0,1,.48-1,1.91,1.91,0,0,1,1.22-.41,1.78,1.78,0,0,1,1.61.88l-.85.32a.62.62,0,0,0-.3-.3,1.11,1.11,0,0,0-.46-.11c-.47,0-.79.25-.79.59a.66.66,0,0,0,.32.53,5,5,0,0,0,.73.38l.1,0c.63.26,1.41.6,1.41,1.45a1.22,1.22,0,0,1-.56,1,2.23,2.23,0,0,1-1.33.38,1.92,1.92,0,0,1-1.87-1.11"/><path class="cls-17" d="M340.08,147.35a2.73,2.73,0,0,1-1-.21,2.5,2.5,0,0,1-.82-.56,2.42,2.42,0,0,1-.55-.82,2.51,2.51,0,0,1,0-2,2.42,2.42,0,0,1,.55-.82,2.5,2.5,0,0,1,.82-.56,2.73,2.73,0,0,1,1-.21,2.49,2.49,0,0,1,1.17.28,2.62,2.62,0,0,1,.9.75l-.69.51a1.75,1.75,0,0,0-1.39-.69,1.75,1.75,0,0,0,0,3.49,1.72,1.72,0,0,0,.88-.25,1.79,1.79,0,0,0,.63-.65l.74.43a2.57,2.57,0,0,1-.93.95,2.38,2.38,0,0,1-1.31.37"/><path class="cls-17" d="M345.75,147.36a2.67,2.67,0,0,1-1-.2,2.44,2.44,0,0,1-.82-.56,2.55,2.55,0,0,1-.56-.82,2.67,2.67,0,0,1-.2-1,2.5,2.5,0,0,1,.2-1,2.44,2.44,0,0,1,.56-.82,2.92,2.92,0,0,1,.82-.56,2.57,2.57,0,0,1,2.84.56,2.57,2.57,0,0,1,.55.82,2.6,2.6,0,0,1-.55,2.84,2.92,2.92,0,0,1-.82.56,2.67,2.67,0,0,1-1,.2m0-4.35a1.67,1.67,0,0,0-1.23.52,1.73,1.73,0,0,0-.51,1.22,1.66,1.66,0,0,0,.51,1.23,1.71,1.71,0,0,0,2.46,0,1.73,1.73,0,0,0,0-2.45,1.71,1.71,0,0,0-1.23-.52"/><polygon class="cls-17" points="354.22 142.21 354.22 147.48 350.59 144.14 350.59 147.27 349.67 147.27 349.67 142.02 353.3 145.37 353.3 142.21 354.22 142.21"/><polygon class="cls-17" points="356.69 142.98 356.69 144.33 359.23 144.33 359.23 145.12 356.69 145.12 356.69 146.48 359.53 146.48 359.53 147.27 355.77 147.27 355.77 142.21 359.53 142.21 359.53 143 356.69 143 356.69 142.98"/></g></g></g><rect class="cls-18" x="35.78" y="43.58" width="153.8" height="160" rx="5"/><text class="cls-19" transform="translate(421.52 111.11)">at<tspan class="cls-20" x="9.19" y="0">t</tspan><tspan x="12.79" y="0">ests </tspan><tspan x="0" y="20">&amp; </tspan><tspan class="cls-21" x="11.89" y="20">k</tspan><tspan class="cls-22" x="17.03" y="20">e</tspan><tspan x="22.37" y="20">ys</tspan></text><text class="cls-19" transform="translate(227.16 117.85)">at<tspan class="cls-23" x="9.19" y="0">t</tspan><tspan x="12.79" y="0">es</tspan><tspan class="cls-20" x="23.01" y="0">t</tspan><tspan x="26.62" y="0">ed </tspan><tspan x="0" y="13.2">s</tspan><tspan class="cls-23" x="4.63" y="13.2">e</tspan><tspan x="10.1" y="13.2">curit</tspan><tspan class="cls-24" x="31.4" y="13.2">y</tspan><tspan x="36.13" y="13.2"> </tspan><tspan x="0" y="33.2">poli</tspan><tspan class="cls-21" x="18.01" y="33.2">c</tspan><tspan class="cls-25" x="22.84" y="33.2">y</tspan></text><text class="cls-19" transform="translate(202.13 193.24)">build / push</text><text class="cls-19" transform="translate(432.69 194.24)">pull</text><line class="cls-5" x1="409.4" y1="118.76" x2="499.12" y2="118.76"/><polygon class="cls-26" points="414.04 124.48 415 123.46 409.94 118.76 415 114.06 414.04 113.03 407.88 118.76 414.04 124.48"/><polygon class="cls-26" points="494.48 124.48 493.52 123.46 498.58 118.76 493.52 114.06 494.48 113.03 500.63 118.76 494.48 124.48"/><path class="cls-27" d="M462.46,110.38a11.73,11.73,0,1,1-3.52,8.38,11.54,11.54,0,0,1,2.4-7.1"/><path class="cls-28" d="M470.37,124.4h-4.24c-.58,0-.8-.22-.8-.8v-6.46c0-.58.22-.81.8-.81h8.46c.54,0,.77.23.77.78v6.49c0,.55-.23.77-.77.77C473.17,124.44,471.76,124.4,470.37,124.4Z"/><path class="cls-28" d="M466,115.77a4.49,4.49,0,0,1,2.64-4.13,4.19,4.19,0,0,1,5.77,2.85c.1.38.14.77.24,1.19"/><path class="cls-26" d="M469.67,121.64h0v.87c0,.16.06.22.26.22h.83c.23,0,.29-.06.29-.25v-1.61a.37.37,0,0,1,.23-.39,1.21,1.21,0,0,0,.61-1.44,1.54,1.54,0,0,0-1.45-1,1.65,1.65,0,0,0-1.61.87,1.2,1.2,0,0,0,.55,1.51.42.42,0,0,1,.26.48A5.86,5.86,0,0,1,469.67,121.64Z"/><line class="cls-5" x1="168.34" y1="139.32" x2="274.89" y2="139.32"/><polygon class="cls-26" points="270.26 145.05 269.3 144.02 274.36 139.32 269.3 134.63 270.26 133.6 276.41 139.32 270.26 145.05"/><line class="cls-29" x1="180.82" y1="178.95" x2="273.26" y2="178.95"/><polygon class="cls-30" points="268.62 184.67 267.66 183.65 272.72 178.95 267.66 174.25 268.62 173.22 274.77 178.95 268.62 184.67"/><polyline class="cls-29" points="407.88 179.76 477.34 179.76 477.34 139.94 498.63 139.94"/><polygon class="cls-30" points="493.99 145.67 493.03 144.64 498.09 139.94 493.03 135.24 493.99 134.22 500.14 139.94 493.99 145.67"/><path class="cls-27" d="M200.72,130.94a11.74,11.74,0,1,1-3.51,8.38,11.51,11.51,0,0,1,2.4-7.09"/><path class="cls-28" d="M208.64,145H204.4c-.58,0-.81-.23-.81-.8V137.7c0-.58.23-.8.81-.8h8.45c.55,0,.77.22.77.77v6.5c0,.54-.22.77-.77.77C211.44,145,210,145,208.64,145Z"/><path class="cls-28" d="M204.28,136.34a4.52,4.52,0,0,1,2.64-4.14,4.2,4.2,0,0,1,5.78,2.85c.1.39.13.78.23,1.19"/><path class="cls-26" d="M207.93,142.2h0v.87c0,.16.07.23.26.23H209c.22,0,.29-.07.29-.26v-1.61a.36.36,0,0,1,.22-.38,1.21,1.21,0,0,0,.61-1.45,1.53,1.53,0,0,0-1.44-1,1.64,1.64,0,0,0-1.61.86,1.19,1.19,0,0,0,.55,1.51.43.43,0,0,1,.25.49A5.7,5.7,0,0,1,207.93,142.2Z"/><rect class="cls-31" x="49.85" y="162.64" width="125.64" height="30.61" rx="4"/><text class="cls-32" transform="translate(69.57 182.83)">E<tspan class="cls-33" x="7.66" y="0">n</tspan><tspan x="15.22" y="0">c</tspan><tspan class="cls-34" x="21.54" y="0">r</tspan><tspan x="26.7" y="0">ypted files</tspan></text><rect class="cls-35" x="279.02" y="165.69" width="124.77" height="50" rx="5"/><text class="cls-36" transform="translate(321.69 181.64)">Sig<tspan class="cls-33" x="18" y="0">n</tspan><tspan x="25.56" y="0">ed </tspan><tspan x="-7.78" y="13">contai</tspan><tspan class="cls-33" x="27.83" y="13">n</tspan><tspan x="35.38" y="13">er </tspan><tspan x="2.09" y="26">image</tspan></text><g class="cls-37"><rect class="cls-38" x="511.87" y="111.91" width="107.79" height="22.41" rx="4"/></g><text class="cls-39" transform="translate(529.7 127.29)"><tspan class="cls-40">P</tspan><tspan x="7.85" y="0">yt</tspan><tspan class="cls-33" x="19.43" y="0">h</tspan><tspan x="27" y="0">on Code</tspan></text><g id="Scone_logo_white-2" data-name="Scone logo white"><g class="cls-41"><g class="cls-41"><path class="cls-16" d="M551.57,142.24h-.76a.29.29,0,0,0-.29.29v.77a.29.29,0,0,0,.29.3h.76a.3.3,0,0,0,.3-.3v-.77a.3.3,0,0,0-.3-.29m-2.65,1.36h.77a.29.29,0,0,0,.29-.3v-.77a.29.29,0,0,0-.29-.29h-.77a.29.29,0,0,0-.29.29v.77a.29.29,0,0,0,.29.3m-.81-.3v-.77a.3.3,0,0,0-.3-.29h-.76a.29.29,0,0,0-.29.29v.77a.29.29,0,0,0,.29.3h.76a.3.3,0,0,0,.3-.3m3.52.84a.22.22,0,0,0-.22.22v.91a.22.22,0,0,0,.44,0v-.91a.2.2,0,0,0-.22-.22m-2.09.29v.78a.29.29,0,0,0,.29.29h.76a.3.3,0,0,0,.3-.29v-.78a.3.3,0,0,0-.3-.29h-.76a.29.29,0,0,0-.29.29m-.54.78v-.78a.29.29,0,0,0-.29-.29h-.77a.29.29,0,0,0-.29.29v.78a.29.29,0,0,0,.29.29h.77a.29.29,0,0,0,.29-.29m2.57.83h-.76a.29.29,0,0,0-.29.29v.78a.29.29,0,0,0,.29.29h.76a.3.3,0,0,0,.3-.29v-.78a.3.3,0,0,0-.3-.29m-2,0h-.76a.3.3,0,0,0-.3.29v.78a.3.3,0,0,0,.3.29h.76a.29.29,0,0,0,.29-.29v-.78a.29.29,0,0,0-.29-.29"/><path class="cls-16" d="M552.5,141.93a1.71,1.71,0,0,0,1.18.36s0,0,0,.06v2.1c0,.8-1,1.3-1.22,1.43,0,0,0,0,0,0l0-3.93s0,0,0,0"/><path class="cls-16" d="M550.2,141.83c1.61-.06,1.87-.62,1.87-.62a.08.08,0,0,1,.07,0,.08.08,0,0,1,.08,0s.25.6,1.86.6c0,0,0,0,0,.07v2.75c0,.88-1.66,1.87-1.69,1.89s-.06,0-.06.06v.69s.1,0,.14,0c.62-.34,2.35-1.29,2.35-2.46v-3.52c0-.05-.11-.1-.16-.1-2.05,0-2.43-.74-2.43-.74s-.09,0-.14,0-.07,0-.08,0-.34.78-2.37.78c-.08,0-.09,0-.09.08v.44s0,.11.06.11.54,0,.54,0"/><path class="cls-17" d="M556.39,146.32l.82-.31a1.12,1.12,0,0,0,1.07.62,1.25,1.25,0,0,0,.63-.15.5.5,0,0,0,.26-.44c0-.44-.6-.7-1-.88h0a3.58,3.58,0,0,1-1-.53,1.18,1.18,0,0,1-.47-1,1.29,1.29,0,0,1,.48-1,1.85,1.85,0,0,1,1.22-.41,1.75,1.75,0,0,1,1.61.87l-.85.33a.63.63,0,0,0-.29-.31,1.16,1.16,0,0,0-.47-.1c-.47,0-.79.25-.79.58a.66.66,0,0,0,.32.53,4.55,4.55,0,0,0,.73.38l.1,0c.63.27,1.41.6,1.41,1.45a1.21,1.21,0,0,1-.56,1,2.21,2.21,0,0,1-1.33.38,1.93,1.93,0,0,1-1.87-1.11"/><path class="cls-17" d="M563.65,147.42a2.68,2.68,0,0,1-1-.21,2.42,2.42,0,0,1-.82-.55,2.5,2.5,0,0,1-.56-.82,2.71,2.71,0,0,1-.2-1,2.67,2.67,0,0,1,.2-1,2.68,2.68,0,0,1,1.38-1.38,2.67,2.67,0,0,1,1-.2,2.51,2.51,0,0,1,1.17.27,2.59,2.59,0,0,1,.89.75l-.69.51a1.69,1.69,0,0,0-.6-.49,1.8,1.8,0,0,0-.79-.19,1.68,1.68,0,0,0-1.23.51,1.7,1.7,0,0,0-.51,1.23,1.75,1.75,0,0,0,.51,1.23,1.72,1.72,0,0,0,1.23.51,1.7,1.7,0,0,0,.88-.25,1.84,1.84,0,0,0,.63-.64l.75.42a2.59,2.59,0,0,1-.94,1,2.35,2.35,0,0,1-1.3.37"/><path class="cls-17" d="M569.31,147.43a2.67,2.67,0,0,1-1-.2,2.62,2.62,0,0,1-1.37-1.38,2.5,2.5,0,0,1-.21-1,2.35,2.35,0,0,1,.21-1,2.55,2.55,0,0,1,1.37-1.37,2.53,2.53,0,0,1,2,0,2.28,2.28,0,0,1,.82.55,2.91,2.91,0,0,1,.56.82,2.65,2.65,0,0,1,0,2,2.77,2.77,0,0,1-.56.82,2.92,2.92,0,0,1-.82.56,2.67,2.67,0,0,1-1,.2m0-4.34a1.66,1.66,0,0,0-1.23.51,1.74,1.74,0,0,0-.51,1.23,1.69,1.69,0,0,0,.51,1.23,1.74,1.74,0,0,0,2.46,0,1.78,1.78,0,0,0,.51-1.23,1.76,1.76,0,0,0-.51-1.23,1.74,1.74,0,0,0-1.23-.51"/><polygon class="cls-17" points="577.78 142.28 577.78 147.55 574.15 144.21 574.15 147.34 573.23 147.34 573.23 142.09 576.86 145.44 576.86 142.28 577.78 142.28"/><polygon class="cls-17" points="580.26 143.06 580.26 144.4 582.79 144.4 582.79 145.19 580.26 145.19 580.26 146.55 583.1 146.55 583.1 147.34 579.34 147.34 579.34 142.28 583.1 142.28 583.1 143.07 580.26 143.07 580.26 143.06"/></g></g></g><path class="cls-27" d="M557,85.31a11.74,11.74,0,1,1-3.51,8.38,11.51,11.51,0,0,1,2.4-7.09"/><path class="cls-28" d="M565,99.34h-4.24c-.58,0-.81-.22-.81-.8V92.07c0-.57.23-.8.81-.8h8.45c.55,0,.77.23.77.77v6.5c0,.54-.22.77-.77.77C567.76,99.37,566.34,99.34,565,99.34Z"/><path class="cls-28" d="M560.6,90.71a4.53,4.53,0,0,1,2.64-4.14A4.2,4.2,0,0,1,569,89.43c.1.38.13.77.23,1.18"/><path class="cls-26" d="M564.25,96.58h0v.86c0,.16.07.23.26.23h.84c.22,0,.29-.07.29-.26V95.8a.36.36,0,0,1,.22-.38,1.21,1.21,0,0,0,.61-1.45A1.53,1.53,0,0,0,565,93a1.64,1.64,0,0,0-1.61.86,1.21,1.21,0,0,0,.55,1.52.41.41,0,0,1,.25.48A5.86,5.86,0,0,1,564.25,96.58Z"/></g><g id="schrift"><line class="cls-42" x1="112.68" y1="122.94" x2="112.68" y2="156.75"/><polygon class="cls-26" points="106.95 152.11 107.98 151.15 112.68 156.21 117.38 151.15 118.41 152.11 112.68 158.26 106.95 152.11"/><text class="cls-43" transform="translate(122.59 143.21)">e<tspan class="cls-33" x="5.91" y="0">n</tspan><tspan x="12.94" y="0">c</tspan><tspan class="cls-34" x="18.87" y="0">r</tspan><tspan x="23.51" y="0">ypt</tspan></text><g class="cls-37"><rect class="cls-38" x="49.83" y="68.76" width="125.66" height="50" rx="4"/></g><text class="cls-39" transform="translate(75.34 98.22)"><tspan class="cls-40">P</tspan><tspan x="7.85" y="0">yt</tspan><tspan class="cls-33" x="19.43" y="0">h</tspan><tspan x="27" y="0">on Code</tspan></text><text class="cls-44" transform="translate(85.56 64.2)">un<tspan class="cls-33" x="12.51" y="0">m</tspan><tspan x="21.91" y="0">odified</tspan></text><text class="cls-45" transform="translate(547.52 166.37)">e<tspan class="cls-33" x="5.38" y="0">n</tspan><tspan x="11.76" y="0">cl</tspan><tspan class="cls-46" x="20.3" y="0">a</tspan><tspan class="cls-47" x="25.74" y="0">v</tspan><tspan x="31.25" y="0">e</tspan></text><path class="cls-48" d="M655.09,34.13h-4.25c-.57,0-.8-.22-.8-.8V26.87c0-.58.23-.81.8-.81h8.46c.55,0,.77.23.77.78v6.49c0,.55-.22.77-.77.77C657.89,34.17,656.47,34.13,655.09,34.13Z"/><path class="cls-48" d="M653.71,17.88a4.54,4.54,0,0,1,4.86.71,4.2,4.2,0,0,1-.24,6.44c-.31.25-.64.44-1,.7"/><path class="cls-49" d="M654.38,31.37h0v.87c0,.16.07.22.26.22h.83c.23,0,.29-.06.29-.25V30.6a.39.39,0,0,1,.23-.39,1.21,1.21,0,0,0,.61-1.45,1.54,1.54,0,0,0-1.45-1,1.65,1.65,0,0,0-1.61.87,1.2,1.2,0,0,0,.55,1.51.42.42,0,0,1,.26.48A5.86,5.86,0,0,1,654.38,31.37Z"/><text class="cls-36" transform="translate(557.09 34.31)">Untrusted <tspan class="cls-33" x="60.79" y="0">h</tspan><tspan x="68.36" y="0">ost</tspan></text><path class="cls-28" d="M21.16,30.94H16.91c-.58,0-.8-.22-.8-.8V23.68c0-.58.22-.81.8-.81h8.46c.55,0,.77.23.77.78v6.49c0,.55-.22.77-.77.77C24,31,22.54,30.94,21.16,30.94Z"/><path class="cls-28" d="M16.8,22.31a4.51,4.51,0,0,1,2.64-4.13A4.2,4.2,0,0,1,25.22,21c.09.38.13.77.23,1.19"/><path class="cls-26" d="M20.45,28.18h0v.87c0,.16.07.22.26.22h.84c.22,0,.28-.06.28-.25V27.41a.39.39,0,0,1,.23-.39,1.21,1.21,0,0,0,.61-1.44,1.54,1.54,0,0,0-1.45-1,1.62,1.62,0,0,0-1.6.87A1.19,1.19,0,0,0,20.16,27a.42.42,0,0,1,.26.48A5.86,5.86,0,0,1,20.45,28.18Z"/><text class="cls-36" transform="translate(33.4 32.25)"><tspan class="cls-50">T</tspan><tspan x="7.69" y="0">rusted </tspan><tspan class="cls-33" x="47.31" y="0">h</tspan><tspan x="54.88" y="0">ost</tspan></text></g><g id="Ebene_4" data-name="Ebene 4"><text class="cls-32"><tspan x="314.13" y="128.79">CAS</tspan></text></g></svg>