<?xml version="1.0" encoding="utf-8"?>
<!-- Generator: Adobe Illustrator 24.0.0, SVG Export Plug-In . SVG Version: 6.00 Build 0)  -->
<svg version="1.1" id="Ebene_1" xmlns="http://www.w3.org/2000/svg" xmlns:xlink="http://www.w3.org/1999/xlink" x="0px" y="0px"
	 viewBox="0 0 380.9 279" style="enable-background:new 0 0 380.9 279;" xml:space="preserve">
<style type="text/css">
	.st0{fill:#E6E6E6;}
	.st1{fill:url(#SVGID_1_);stroke:#FFCC00;stroke-width:2;stroke-miterlimit:10;}
	.st2{enable-background:new    ;}
	.st3{fill:#FFCC00;}
	.st4{fill:none;stroke:#FFCC00;stroke-width:2;stroke-miterlimit:10;}
	.st5{fill:#FFFFFF;stroke:#FFCC00;stroke-width:2;stroke-linecap:round;stroke-linejoin:round;}
	.st6{fill:none;stroke:#FFCC00;stroke-width:2;stroke-linecap:round;stroke-linejoin:round;}
	.st7{fill:#FFFFFF;}
	.st8{fill:#330066;}
	.st9{fill:none;stroke:#330066;stroke-linecap:round;stroke-linejoin:round;}
	.st10{fill:url(#SVGID_2_);stroke:#FFCC00;stroke-width:2;stroke-miterlimit:10;}
	.st11{clip-path:url(#SVGID_4_);}
	.st12{clip-path:url(#SVGID_6_);}
	.st13{fill:#FFD138;}
	.st14{fill:#FDFEFF;}
	.st15{fill:#990066;}
	.st16{fill:#3399FF;}
	.st17{fill:#33CC99;}
	.st18{fill:none;stroke:#CC3300;stroke-width:2;stroke-miterlimit:10;stroke-dasharray:2,2;}
	.st19{fill:#CC3300;}
	.st20{fill:#FFFFFF;stroke:#CC3300;stroke-width:2;stroke-miterlimit:10;}
	.st21{fill:none;stroke:#CC3300;stroke-width:2;stroke-miterlimit:10;}
	.st22{fill:none;stroke:#330066;stroke-linejoin:round;}
</style>
<g id="Ebene_1_1_">
	<path class="st0" d="M375.4-0.3H6.5c-2.8,0-5,2.2-5,5v269.8c0,2.8,2.2,5,5,5h368.9c2.8,0,5-2.2,5-5V4.7
		C380.4,1.9,378.2-0.3,375.4-0.3z M367.1,260.2c0,2.8-2.2,5-5,5H107.6c-2.8,0-5-2.2-5-5V55.8c0-2.8,2.2-5,5-5h254.5c2.8,0,5,2.2,5,5
		L367.1,260.2z"/>
</g>
<g id="Ebene_2_1_">
	
		<linearGradient id="SVGID_1_" gradientUnits="userSpaceOnUse" x1="152.49" y1="59.73" x2="351.79" y2="59.73" gradientTransform="matrix(1 0 0 -1 0 280)">
		<stop  offset="0" style="stop-color:#990066"/>
		<stop  offset="0.19" style="stop-color:#780066"/>
		<stop  offset="0.4" style="stop-color:#5A0066"/>
		<stop  offset="0.61" style="stop-color:#440066"/>
		<stop  offset="0.81" style="stop-color:#370066"/>
		<stop  offset="1" style="stop-color:#330066"/>
	</linearGradient>
	<path class="st1" d="M157.5,191.5h189.3c2.8,0,5,2.2,5,5v47.6c0,2.8-2.2,5-5,5H157.5c-2.8,0-5-2.2-5-5v-47.6
		C152.5,193.7,154.7,191.5,157.5,191.5z"/>
	<g class="st2">
		<path class="st3" d="M221.6,242.2c0-0.1-0.1-0.2-0.1-0.3c0-0.1-0.1-0.2-0.1-0.3c-0.2,0.2-0.4,0.4-0.7,0.5s-0.6,0.2-0.9,0.2
			c-0.6,0-1-0.2-1.4-0.5c-0.3-0.3-0.5-0.7-0.5-1.3c0-0.5,0.2-1,0.7-1.3c0.4-0.3,1.1-0.4,1.9-0.4h0.8v-0.6c0-0.3-0.1-0.5-0.2-0.6
			s-0.4-0.2-0.7-0.2c-0.2,0-0.3,0-0.5,0.1s-0.3,0.1-0.3,0.1l-0.1,0.6h-1.2l0-1.3c0.3-0.2,0.6-0.4,1-0.5c0.4-0.1,0.8-0.2,1.2-0.2
			c0.7,0,1.3,0.2,1.8,0.5s0.7,0.9,0.7,1.5v2.4c0,0.1,0,0.2,0,0.3c0,0.1,0,0.2,0,0.2l0.5,0.1v0.9H221.6z M220.3,241.1
			c0.2,0,0.5-0.1,0.6-0.2c0.2-0.1,0.3-0.2,0.5-0.4v-0.9h-0.8c-0.3,0-0.6,0.1-0.8,0.2c-0.2,0.2-0.3,0.3-0.3,0.6
			c0,0.2,0.1,0.4,0.2,0.5S220,241.1,220.3,241.1z"/>
		<path class="st3" d="M223.9,237.3v-0.9h2.3l0.1,0.7c0.2-0.3,0.4-0.4,0.6-0.6c0.2-0.1,0.5-0.2,0.8-0.2c0.7,0,1.3,0.3,1.7,0.8
			c0.4,0.6,0.6,1.3,0.6,2.2v0.1c0,0.9-0.2,1.5-0.6,2.1c-0.4,0.5-1,0.8-1.7,0.8c-0.3,0-0.6-0.1-0.8-0.2c-0.2-0.1-0.4-0.3-0.6-0.5v1.7
			l0.8,0.2v0.9h-3.1v-0.9l0.8-0.2v-5.8L223.9,237.3z M228.4,239.3c0-0.5-0.1-1-0.3-1.3s-0.5-0.5-0.8-0.5c-0.2,0-0.4,0-0.6,0.1
			c-0.2,0.1-0.3,0.2-0.4,0.4v2.5c0.1,0.2,0.2,0.3,0.4,0.4c0.2,0.1,0.4,0.1,0.6,0.1c0.4,0,0.7-0.1,0.8-0.4c0.2-0.3,0.3-0.7,0.3-1.2
			V239.3z"/>
	</g>
	<g class="st2">
		<path class="st3" d="M230.5,237.3v-0.9h2.3l0.1,0.7c0.2-0.3,0.4-0.4,0.6-0.6c0.2-0.1,0.5-0.2,0.8-0.2c0.7,0,1.3,0.3,1.7,0.8
			c0.4,0.6,0.6,1.3,0.6,2.2v0.1c0,0.9-0.2,1.5-0.6,2.1c-0.4,0.5-1,0.8-1.7,0.8c-0.3,0-0.6-0.1-0.8-0.2c-0.2-0.1-0.4-0.3-0.6-0.5v1.7
			l0.8,0.2v0.9h-3.1v-0.9l0.8-0.2v-5.8L230.5,237.3z M235,239.3c0-0.5-0.1-1-0.3-1.3s-0.5-0.5-0.8-0.5c-0.2,0-0.4,0-0.6,0.1
			c-0.2,0.1-0.3,0.2-0.4,0.4v2.5c0.1,0.2,0.2,0.3,0.4,0.4c0.2,0.1,0.4,0.1,0.6,0.1c0.4,0,0.7-0.1,0.8-0.4c0.2-0.3,0.3-0.7,0.3-1.2
			V239.3z"/>
	</g>
	<g class="st2">
		<path class="st3" d="M237,234.7v-0.9h2.4v7.3l0.8,0.2v0.9h-3.1v-0.9l0.8-0.2v-6.2L237,234.7z"/>
		<path class="st3" d="M240.6,241.2l0.8-0.2v-3.6l-0.8-0.2v-0.9h2.4v4.7l0.8,0.2v0.9h-3.1V241.2z M243,235h-1.6v-1.2h1.6V235z"/>
		<path class="st3" d="M247,241.1c0.3,0,0.5-0.1,0.7-0.2c0.2-0.2,0.3-0.4,0.3-0.7h1.4l0,0c0,0.6-0.2,1.1-0.7,1.5
			c-0.5,0.4-1,0.6-1.7,0.6c-0.9,0-1.5-0.3-2-0.8c-0.5-0.5-0.7-1.3-0.7-2.1v-0.2c0-0.9,0.2-1.6,0.7-2.1s1.2-0.8,2.1-0.8
			c0.5,0,0.9,0.1,1.3,0.2c0.4,0.1,0.7,0.3,0.9,0.6l0,1.6H248l-0.3-0.9c-0.1-0.1-0.2-0.1-0.3-0.2c-0.1,0-0.2-0.1-0.4-0.1
			c-0.4,0-0.8,0.2-0.9,0.5s-0.3,0.7-0.3,1.2v0.2c0,0.5,0.1,0.9,0.3,1.3C246.2,240.9,246.5,241.1,247,241.1z"/>
	</g>
	<g class="st2">
		<path class="st3" d="M253.7,242.2c0-0.1-0.1-0.2-0.1-0.3c0-0.1-0.1-0.2-0.1-0.3c-0.2,0.2-0.4,0.4-0.7,0.5
			c-0.3,0.1-0.6,0.2-0.9,0.2c-0.6,0-1-0.2-1.4-0.5s-0.5-0.7-0.5-1.3c0-0.5,0.2-1,0.7-1.3c0.4-0.3,1.1-0.4,1.9-0.4h0.8v-0.6
			c0-0.3-0.1-0.5-0.2-0.6s-0.4-0.2-0.7-0.2c-0.2,0-0.3,0-0.5,0.1s-0.3,0.1-0.3,0.1l-0.1,0.6h-1.2l0-1.3c0.3-0.2,0.6-0.4,1-0.5
			c0.4-0.1,0.8-0.2,1.2-0.2c0.7,0,1.3,0.2,1.8,0.5c0.4,0.4,0.7,0.9,0.7,1.5v2.4c0,0.1,0,0.2,0,0.3c0,0.1,0,0.2,0,0.2l0.5,0.1v0.9
			H253.7z M252.4,241.1c0.2,0,0.5-0.1,0.6-0.2c0.2-0.1,0.3-0.2,0.5-0.4v-0.9h-0.8c-0.3,0-0.6,0.1-0.8,0.2c-0.2,0.2-0.3,0.3-0.3,0.6
			c0,0.2,0.1,0.4,0.2,0.5C252,241.1,252.1,241.1,252.4,241.1z"/>
	</g>
	<g class="st2">
		<path class="st3" d="M258,234.9v1.4h1v1.1h-1v3c0,0.2,0,0.4,0.1,0.5c0.1,0.1,0.2,0.1,0.4,0.1c0.1,0,0.2,0,0.3,0c0.1,0,0.2,0,0.3,0
			l0.1,1.1c-0.2,0.1-0.3,0.1-0.5,0.1c-0.2,0-0.4,0-0.6,0c-0.5,0-1-0.1-1.2-0.4c-0.3-0.3-0.4-0.8-0.4-1.4v-3h-0.9v-1.1h0.9v-1.4H258z
			"/>
		<path class="st3" d="M259.7,241.2l0.8-0.2v-3.6l-0.8-0.2v-0.9h2.4v4.7l0.8,0.2v0.9h-3.1V241.2z M262,235h-1.6v-1.2h1.6V235z"/>
		<path class="st3" d="M263.3,239.2c0-0.9,0.2-1.6,0.7-2.1c0.5-0.6,1.2-0.8,2-0.8c0.9,0,1.5,0.3,2,0.8c0.5,0.6,0.7,1.3,0.7,2.1v0.1
			c0,0.9-0.2,1.6-0.7,2.1c-0.5,0.5-1.2,0.8-2,0.8c-0.9,0-1.5-0.3-2-0.8c-0.5-0.5-0.7-1.3-0.7-2.1V239.2z M264.9,239.3
			c0,0.5,0.1,1,0.3,1.3s0.5,0.5,0.9,0.5c0.4,0,0.7-0.2,0.9-0.5s0.3-0.7,0.3-1.3v-0.1c0-0.5-0.1-0.9-0.3-1.3
			c-0.2-0.3-0.5-0.5-0.9-0.5s-0.7,0.2-0.9,0.5s-0.3,0.7-0.3,1.3V239.3z"/>
		<path class="st3" d="M269.4,241.2l0.8-0.2v-3.6l-0.8-0.2v-0.9h2.3l0.1,0.8c0.2-0.3,0.4-0.5,0.7-0.7s0.6-0.2,1-0.2
			c0.6,0,1,0.2,1.4,0.6c0.3,0.4,0.5,0.9,0.5,1.7v2.5l0.8,0.2v0.9h-3v-0.9l0.7-0.2v-2.5c0-0.4-0.1-0.7-0.2-0.8s-0.4-0.2-0.7-0.2
			c-0.2,0-0.4,0-0.6,0.1c-0.2,0.1-0.3,0.2-0.4,0.4v3.1l0.6,0.2v0.9h-3V241.2z"/>
		<path class="st3" d="M279,241.2l0.6-0.1l2.4-6.8h1.6l2.4,6.8l0.6,0.1v0.9h-2.7v-0.9l0.5-0.1l-0.3-1.1h-2.5l-0.3,1.1l0.5,0.1v0.9
			H279V241.2z M281.9,238.9h1.8l-0.9-2.8h0L281.9,238.9z"/>
	</g>
	<line class="st4" x1="252.1" y1="125.4" x2="252.1" y2="172.9"/>
	<polygon class="st3" points="246.4,130 247.4,131 252.1,125.9 256.8,131 257.9,130 252.1,123.9 	"/>
	<polygon class="st3" points="246.4,168.3 247.4,167.3 252.1,172.4 256.8,167.3 257.9,168.3 252.1,174.4 	"/>
	<path class="st5" d="M244.1,140.8c4.6-4.5,12.1-4.5,16.6,0.1c4.5,4.6,4.5,12.1-0.1,16.6s-12.1,4.5-16.6-0.1
		c-2.2-2.2-3.4-5.1-3.4-8.2c0-2.6,0.8-5.1,2.4-7.1"/>
	<path class="st6" d="M252,154.8h-4.2c-0.6,0-0.8-0.2-0.8-0.8v-6.5c0-0.6,0.2-0.8,0.8-0.8h8.4c0.5,0,0.8,0.2,0.8,0.8v6.5
		c0,0.5-0.2,0.8-0.8,0.8C254.8,154.8,253.4,154.8,252,154.8z"/>
	<path class="st6" d="M247.7,146.2c0-1.8,1-3.4,2.6-4.1c2.1-0.9,4.6,0,5.5,2.1c0.1,0.2,0.2,0.5,0.2,0.7c0.1,0.4,0.1,0.8,0.2,1.2"/>
	<path class="st3" d="M251.3,152L251.3,152v0.9c0,0.2,0.1,0.2,0.3,0.2h0.8c0.2,0,0.3-0.1,0.3-0.3v-1.6c0-0.2,0.1-0.3,0.2-0.4
		c0.5-0.3,0.8-0.9,0.6-1.4c-0.2-0.6-0.8-1-1.4-1c-0.7-0.1-1.3,0.3-1.6,0.9c-0.2,0.6,0,1.2,0.6,1.5c0.2,0.1,0.3,0.3,0.3,0.5
		C251.3,151.5,251.3,151.8,251.3,152z"/>
	<path class="st5" d="M244.1,182.6c4.6-4.5,12.1-4.5,16.6,0.1s4.5,12.1-0.1,16.6c-4.6,4.5-12.1,4.5-16.6-0.1
		c-2.1-2.2-3.4-5.1-3.4-8.2c0-2.6,0.8-5.1,2.4-7.1"/>
	<path class="st6" d="M252,196.6h-4.2c-0.6,0-0.8-0.2-0.8-0.8v-6.5c0-0.6,0.2-0.8,0.8-0.8h8.4c0.5,0,0.8,0.2,0.8,0.8v6.5
		c0,0.6-0.2,0.8-0.8,0.8C254.8,196.6,253.4,196.6,252,196.6z"/>
	<path class="st6" d="M247.7,188c0-1.8,1-3.4,2.6-4.1c2.1-0.9,4.6,0,5.5,2.1c0.1,0.2,0.2,0.5,0.2,0.7c0.1,0.4,0.1,0.8,0.2,1.2"/>
	<path class="st3" d="M251.3,193.8L251.3,193.8v0.9c0,0.2,0.1,0.2,0.3,0.2h0.8c0.2,0,0.3-0.1,0.3-0.3v-1.6c0-0.2,0.1-0.3,0.2-0.4
		c0.5-0.3,0.8-0.9,0.6-1.4c-0.2-0.6-0.8-1-1.4-1c-0.7-0.1-1.3,0.3-1.6,0.9c-0.2,0.6,0,1.2,0.6,1.5c0.2,0.1,0.3,0.3,0.3,0.5
		C251.3,193.3,251.3,193.6,251.3,193.8z"/>
</g>
<g id="schrift">
	<path class="st7" d="M31.7,51c-0.6,0-1-0.4-1-1v-4.4c0-1.4,0.6-2.8,1.7-3.8c0.3-0.3,0.6-0.5,0.9-0.8c0.2-0.1,0.4-0.2,0.6-0.3
		c0.1,0,0.1-0.1,0.2-0.1c0.1,0,0.2-0.1,0.2-0.1c0.5-0.2,1-0.2,1.5-0.3V40c-0.9-0.4-1.8-1-2.5-1.7c-1.3-1.3-2.2-3.1-2.5-4.9
		c-1.7-0.4-2.8-2.2-2.3-3.9c0.1-0.5,0.3-0.9,0.6-1.2l-0.9-1.1c-1.1-1.4-0.8-3.4,0.5-4.6l0.6-0.4L29.1,21c-0.3-1.1,0.2-2.3,1.3-2.8
		l1.9-1l4.6-2c0.8-0.3,1.6-0.5,2.5-0.5c0.9,0,1.7,0.2,2.5,0.5l4.5,2l1.7,0.8c1.2,0.6,1.7,2.1,1.1,3.3l-0.5,0.9l1.6,1.3
		c1.3,1,1.6,2.8,0.7,4.2l-1,1.5c0.1,0.3,0.2,0.7,0.2,1c0,1.3-0.8,2.5-2,3c-0.1,4.1-3.4,6.2-5.2,6.9v0.1c0.5,0,1.1,0.1,1.6,0.4
		l0.4,0.2l0.3,0.1c0.1,0,0.1,0,0.2,0.1c0.4,0.2,0.8,0.6,1.1,0.9c1,1,1.6,2.3,1.6,3.7V50c0,0.6-0.4,1-1,1L31.7,51z"/>
	<path class="st8" d="M39.4,15.7c0.7,0,1.4,0.2,2.1,0.4l4.5,2l1.6,0.8c0.7,0.3,1,1.2,0.7,1.9c0,0,0,0,0,0.1l-0.8,1.6l2.2,1.8
		c0.9,0.7,1.1,1.9,0.5,2.9l-1.3,2c0.2,0.3,0.3,0.7,0.3,1.1c0,1.2-0.9,2.1-2.1,2.2v0.1c0.3,5.3-5.2,6.9-5.2,6.9l0,0v1.8h0.7
		c0.5,0,1,0.1,1.5,0.3l0.7,0.3c0.3,0.2,0.6,0.4,0.9,0.7c0.8,0.8,1.3,1.9,1.3,3.1v4.4H31.7v-4.4c0-1.2,0.4-2.3,1.3-3.1
		c0.3-0.3,0.6-0.5,0.9-0.7c0.2-0.2,0.5-0.2,0.7-0.4c0.5-0.2,1-0.2,1.5-0.2h0.7v-1.9c0,0,0,0,0.1,0l0,0l-0.1,0c-1-0.4-2-1-2.8-1.8
		c-1.4-1.4-2.3-3.4-2.3-5.4L31.6,32v0.4c-1.2,0-2.2-1-2.2-2.2c0-0.8,0.4-1.5,1.1-1.9L29,26.5c-0.7-1-0.6-2.4,0.4-3.2l1.1-0.8
		l-0.4-1.8c-0.2-0.7,0.1-1.3,0.7-1.7l1.9-1l4.5-2c0.7-0.3,1.4-0.4,2.1-0.4 M39.4,13.6c-1,0-2,0.2-2.9,0.6l-4.5,2h-0.1l-1.9,1
		c-1.4,0.7-2.1,2.4-1.8,3.9v0l0.1,0.5l0,0c-1.9,1.4-2.2,4.1-0.8,6l0.4,0.5c-1.1,2-0.4,4.6,1.7,5.7c0.1,0.1,0.3,0.1,0.4,0.2
		c0.5,2.3,1.7,4.3,3.6,5.7h-0.1c-0.2,0.1-0.5,0.2-0.7,0.3l-0.1,0.1c-0.4,0.3-0.7,0.6-1.1,0.9c-1.2,1.2-1.9,2.8-1.9,4.5V50
		c0,1.1,0.9,2,2,2h15.4c1.1,0,2-0.9,2-2v-4.4c0-1.6-0.7-3.2-1.8-4.4c-0.4-0.4-0.8-0.8-1.3-1.1c-0.1-0.1-0.3-0.1-0.4-0.2l0,0
		c2.1-1.4,3.4-3.6,3.7-6.1c1.3-0.8,2.1-2.1,2.1-3.6c0-0.3,0-0.6-0.1-0.9l0.7-1.1c1.2-1.8,0.7-4.2-1-5.5L50,22l0.1-0.2
		c0.4-0.8,0.5-1.8,0.2-2.6c-0.3-0.9-0.9-1.6-1.7-2l-1.6-0.8h-0.1l-4.5-2c-0.9-0.4-1.9-0.6-2.9-0.6L39.4,13.6z"/>
	<g class="st2">
		<path class="st8" d="M20.2,69.7l0.6-0.1l2.6-7.6h1.8l2.6,7.6l0.6,0.1v1h-3v-1l0.6-0.1l-0.4-1.2h-2.8l-0.4,1.2l0.6,0.1v1h-3V69.7z
			 M23.3,67.2h2l-1-3.1h0L23.3,67.2z"/>
		<path class="st8" d="M33.3,70c-0.2,0.3-0.4,0.5-0.7,0.7s-0.6,0.2-0.9,0.2c-0.8,0-1.4-0.3-1.9-0.9c-0.4-0.6-0.7-1.4-0.7-2.3v-0.1
			c0-1,0.2-1.8,0.7-2.5c0.4-0.6,1.1-0.9,1.9-0.9c0.3,0,0.6,0.1,0.9,0.2c0.3,0.1,0.5,0.3,0.7,0.6v-2.3l-0.9-0.2v-1.1h0.9h1.7v8.1
			l0.8,0.2v1h-2.3L33.3,70z M30.9,67.7c0,0.6,0.1,1,0.3,1.3c0.2,0.3,0.5,0.5,0.9,0.5c0.3,0,0.5-0.1,0.7-0.2c0.2-0.1,0.3-0.3,0.5-0.4
			v-2.7c-0.1-0.2-0.3-0.4-0.5-0.5c-0.2-0.1-0.4-0.2-0.7-0.2c-0.4,0-0.7,0.2-0.9,0.6c-0.2,0.4-0.3,0.9-0.3,1.5V67.7z"/>
		<path class="st8" d="M36.1,65.4v-1.1h2.6l0.1,0.9c0.2-0.3,0.5-0.6,0.8-0.7c0.3-0.2,0.7-0.3,1.1-0.3c0.4,0,0.8,0.1,1.1,0.3
			c0.3,0.2,0.5,0.5,0.7,0.8c0.2-0.3,0.5-0.6,0.8-0.8s0.7-0.3,1.1-0.3c0.6,0,1.1,0.2,1.5,0.7c0.4,0.4,0.6,1.1,0.6,2v2.7l0.8,0.2v1
			h-3.3v-1l0.8-0.2v-2.7c0-0.5-0.1-0.8-0.2-1c-0.2-0.2-0.4-0.3-0.7-0.3c-0.2,0-0.5,0.1-0.6,0.2c-0.2,0.1-0.3,0.3-0.4,0.5
			c0,0.1,0,0.1,0,0.2c0,0.1,0,0.1,0,0.2v3l0.7,0.2v1h-3.1v-1l0.7-0.2v-2.7c0-0.5-0.1-0.8-0.2-1c-0.2-0.2-0.4-0.3-0.7-0.3
			c-0.2,0-0.4,0-0.6,0.1c-0.2,0.1-0.3,0.2-0.4,0.4v3.5l0.8,0.2v1h-3.3v-1l0.8-0.2v-4L36.1,65.4z"/>
		<path class="st8" d="M47.7,69.7l0.8-0.2v-4l-0.9-0.2v-1.1h2.7v5.2l0.8,0.2v1h-3.4V69.7z M50.3,62.8h-1.7v-1.3h1.7V62.8z"/>
		<path class="st8" d="M51.6,69.7l0.8-0.2v-4l-0.9-0.2v-1.1H54l0.1,0.9c0.2-0.3,0.5-0.6,0.8-0.8c0.3-0.2,0.7-0.3,1.1-0.3
			c0.7,0,1.2,0.2,1.5,0.6s0.5,1.1,0.5,1.9v2.8l0.8,0.2v1h-3.3v-1l0.7-0.2v-2.8c0-0.4-0.1-0.7-0.3-0.9c-0.2-0.2-0.4-0.3-0.8-0.3
			c-0.2,0-0.4,0-0.6,0.1c-0.2,0.1-0.3,0.2-0.5,0.4v3.5l0.7,0.2v1h-3.3V69.7z"/>
	</g>
	<g class="st2">
		<path class="st8" d="M24.7,81.9c0-1.6,0.3-2.9,1-4c0.6-1.1,1.3-1.9,2-2.2l0,0l0.2,0.7c-0.5,0.4-1,1.1-1.4,2s-0.6,2.1-0.6,3.5V82
			c0,1.4,0.2,2.5,0.6,3.5c0.4,0.9,0.9,1.6,1.4,2.1l-0.2,0.6h0c-0.7-0.4-1.4-1.1-2-2.2C25,84.9,24.7,83.6,24.7,81.9L24.7,81.9z"/>
	</g>
	<g class="st2">
		<path class="st8" d="M28.5,79.8V79h2l0.1,0.9c0.2-0.3,0.4-0.6,0.7-0.8c0.3-0.2,0.6-0.3,0.9-0.3c0.1,0,0.2,0,0.3,0
			c0.1,0,0.2,0,0.2,0l-0.2,1.1l-0.7,0c-0.3,0-0.6,0.1-0.8,0.2c-0.2,0.1-0.4,0.3-0.5,0.6v3.7l1,0.2v0.8h-3.1v-0.8l1-0.2v-4.6
			L28.5,79.8z"/>
	</g>
	<g class="st2">
		<path class="st8" d="M33.4,82.2c0-1,0.3-1.7,0.8-2.4c0.5-0.6,1.2-0.9,2.1-0.9c0.9,0,1.6,0.3,2.1,0.9c0.5,0.6,0.8,1.4,0.8,2.4v0.1
			c0,1-0.3,1.8-0.8,2.4c-0.5,0.6-1.2,0.9-2.1,0.9c-0.9,0-1.6-0.3-2.1-0.9c-0.5-0.6-0.8-1.4-0.8-2.4V82.2z M34.6,82.3
			c0,0.7,0.1,1.3,0.4,1.7c0.3,0.4,0.7,0.7,1.3,0.7c0.6,0,1-0.2,1.3-0.7s0.4-1,0.4-1.7v-0.1c0-0.7-0.1-1.2-0.4-1.7s-0.7-0.7-1.3-0.7
			c-0.6,0-1,0.2-1.3,0.7c-0.3,0.5-0.4,1-0.4,1.7V82.3z"/>
		<path class="st8" d="M40.3,82.2c0-1,0.3-1.7,0.8-2.4c0.5-0.6,1.2-0.9,2.1-0.9c0.9,0,1.6,0.3,2.1,0.9c0.5,0.6,0.8,1.4,0.8,2.4v0.1
			c0,1-0.3,1.8-0.8,2.4c-0.5,0.6-1.2,0.9-2.1,0.9c-0.9,0-1.6-0.3-2.1-0.9c-0.5-0.6-0.8-1.4-0.8-2.4V82.2z M41.5,82.3
			c0,0.7,0.1,1.3,0.4,1.7c0.3,0.4,0.7,0.7,1.3,0.7c0.6,0,1-0.2,1.3-0.7s0.4-1,0.4-1.7v-0.1c0-0.7-0.1-1.2-0.4-1.7s-0.7-0.7-1.3-0.7
			c-0.6,0-1,0.2-1.3,0.7c-0.3,0.5-0.4,1-0.4,1.7V82.3z"/>
		<path class="st8" d="M49.2,77.5V79h1.2v0.9h-1.2v3.9c0,0.3,0.1,0.5,0.2,0.6c0.1,0.1,0.3,0.2,0.5,0.2c0.1,0,0.2,0,0.3,0
			c0.1,0,0.2,0,0.3-0.1l0.2,0.8c-0.1,0.1-0.3,0.1-0.5,0.2c-0.2,0-0.4,0.1-0.6,0.1c-0.5,0-0.9-0.1-1.1-0.4c-0.3-0.3-0.4-0.7-0.4-1.4
			v-3.9h-1V79h1v-1.6H49.2z"/>
		<path class="st8" d="M54.4,82c0,1.6-0.3,2.9-1,4c-0.6,1.1-1.3,1.8-2,2.2h0l-0.2-0.6c0.5-0.4,1-1.1,1.4-2.1c0.4-1,0.6-2.1,0.6-3.5
			v-0.1c0-1.4-0.2-2.5-0.6-3.5s-0.9-1.7-1.4-2.1l0.2-0.6h0c0.7,0.4,1.4,1.1,2,2.2C54.1,79,54.4,80.4,54.4,82L54.4,82z"/>
	</g>
	<path class="st8" d="M42.5,29.1c0.4,0,0.7,0.3,0.7,0.7c0,0.4-0.3,0.7-0.7,0.7s-0.7-0.3-0.7-0.7C41.7,29.4,42,29.1,42.5,29.1
		C42.4,29.1,42.4,29.1,42.5,29.1z"/>
	<circle class="st8" cx="36.7" cy="29.8" r="0.7"/>
	<path class="st9" d="M37.5,34.5c0.5,0.7,1.3,1.1,2.1,1.1c0.8,0,1.6-0.4,2.1-1.1"/>
	<path class="st9" d="M30.1,28.7c0.5-0.3,1-0.5,1.6-0.5c0.6,0,1.1,0.2,1.6,0.5"/>
	<path class="st9" d="M45.8,28.4c0.4-0.3,0.3-0.2,0.9-0.2c0.5,0,1,0.1,1.4,0.4"/>
	<path class="st9" d="M41.8,39.3v1.9h0.7c0.5,0,1,0.1,1.5,0.3l0.7,0.3c0.3,0.2,0.6,0.4,0.9,0.7c0.8,0.8,1.3,1.9,1.3,3.1v4.4H31.5
		v-4.4c0-1.2,0.5-2.3,1.3-3.1c0.3-0.3,0.6-0.5,0.9-0.7c0.2-0.2,0.5-0.2,0.7-0.4c0.5-0.2,1-0.2,1.5-0.2h0.7v-1.9"/>
	<path class="st9" d="M47.4,28L47.4,28c0.7,0,1.4,0.5,1.7,1.2c0.2,0.3,0.2,0.7,0.2,1.1c0,1.2-1,2.1-2.1,2.1l0,0"/>
	<path class="st9" d="M30.3,28.3c-1.1,0.6-1.4,1.9-0.8,3c0.4,0.7,1.1,1.1,1.9,1.1v-4.4C31,28,30.6,28.1,30.3,28.3z"/>
	<path class="st9" d="M30.3,28.3l-1.5-1.8c-0.7-1-0.6-2.4,0.4-3.2l1.1-0.8l-0.4-1.8c-0.2-0.7,0.1-1.3,0.7-1.7l1.9-1l4.5-2
		c1.3-0.6,2.8-0.6,4.2,0l4.5,2l1.6,0.9c0.7,0.3,1,1.2,0.7,1.9c0,0,0,0,0,0.1l-0.8,1.6l2.2,1.8c0.9,0.7,1.1,1.9,0.5,2.8l-1.2,1.2"/>
	<path class="st9" d="M44.1,25.9c-3.3-0.1-6.6-0.8-9.6-2.2c-0.6,1.7-1.6,3.2-2.9,4.4v4c0,2,0.8,4,2.3,5.4c0.8,0.8,1.8,1.4,2.9,1.8
		l0,0c0.8,0.3,1.7,0.4,2.6,0.4c0.7,0,1.4-0.1,2-0.3c0.2-0.1,0.4-0.1,0.5-0.1l0,0c3-1,5-3.7,5.2-6.9v-4.4"/>
	<path class="st9" d="M43.6,24c0.1,0.6,0.3,1.3,0.6,1.8c0.5,1.1,1.5,1.9,2.7,2.2"/>
	<path class="st9" d="M38.6,29.4c0.4-0.2,0.8-0.3,1.3-0.3c0.3,0,0.5,0.2,0.7,0.3"/>
	<ellipse class="st9" cx="36.1" cy="29.4" rx="2.5" ry="2"/>
	<ellipse class="st9" cx="43.1" cy="29.4" rx="2.5" ry="2"/>
</g>
<g id="Ebene_4">
	<g class="st2">
		<path class="st7" d="M215.8,217.9h-1.3l-0.2-1.2c-0.1-0.1-0.4-0.2-0.7-0.2s-0.6-0.1-0.9-0.1c-0.5,0-0.8,0.1-1.1,0.3
			s-0.4,0.5-0.4,0.8c0,0.3,0.1,0.5,0.4,0.7s0.7,0.4,1.4,0.6c0.9,0.3,1.7,0.6,2.1,1s0.7,1,0.7,1.7c0,0.7-0.3,1.3-0.9,1.7
			s-1.3,0.6-2.3,0.6c-0.7,0-1.3-0.1-1.8-0.3s-1-0.5-1.4-0.9v-1.8h1.3l0.2,1.2c0.2,0.1,0.4,0.3,0.7,0.3s0.6,0.1,1,0.1
			c0.5,0,0.8-0.1,1.1-0.3s0.4-0.4,0.4-0.8c0-0.3-0.1-0.6-0.3-0.8s-0.6-0.4-1.2-0.6c-1-0.3-1.8-0.6-2.3-1s-0.8-1-0.8-1.7
			c0-0.7,0.3-1.3,0.9-1.7s1.3-0.7,2.2-0.7c0.7,0,1.3,0.1,1.8,0.3s1,0.5,1.4,0.8V217.9z"/>
		<path class="st7" d="M219.7,223.8c-0.9,0-1.6-0.3-2.2-0.9s-0.8-1.3-0.8-2.2v-0.2c0-0.9,0.3-1.7,0.8-2.3s1.2-0.9,2.1-0.9
			c0.9,0,1.5,0.3,2,0.8s0.7,1.2,0.7,2.1v0.9h-3.8l0,0c0,0.4,0.2,0.8,0.4,1s0.6,0.4,1,0.4c0.4,0,0.7,0,0.9-0.1s0.5-0.2,0.8-0.4
			l0.5,1.1c-0.3,0.2-0.6,0.4-1,0.5S220.2,223.8,219.7,223.8z M219.5,218.5c-0.3,0-0.6,0.1-0.8,0.4s-0.3,0.6-0.3,1l0,0h2.1v-0.2
			c0-0.4-0.1-0.7-0.3-0.9S219.9,218.5,219.5,218.5z"/>
		<path class="st7" d="M226,222.5c0.3,0,0.5-0.1,0.7-0.3s0.3-0.4,0.3-0.7h1.5l0,0c0,0.6-0.2,1.2-0.7,1.6s-1.1,0.6-1.9,0.6
			c-0.9,0-1.7-0.3-2.2-0.9s-0.8-1.4-0.8-2.3v-0.2c0-0.9,0.3-1.7,0.8-2.3s1.3-0.9,2.2-0.9c0.5,0,1,0.1,1.4,0.2s0.7,0.4,1,0.6l0,1.7
			h-1.4l-0.3-1c-0.1-0.1-0.2-0.1-0.3-0.2s-0.3-0.1-0.4-0.1c-0.5,0-0.8,0.2-1,0.5s-0.3,0.8-0.3,1.4v0.2c0,0.6,0.1,1,0.3,1.4
			S225.5,222.5,226,222.5z"/>
		<path class="st7" d="M233.8,222.9c-0.2,0.3-0.5,0.5-0.8,0.7s-0.6,0.2-1,0.2c-0.7,0-1.2-0.2-1.6-0.6s-0.6-1.1-0.6-2v-2.6l-0.7-0.2
			v-1h0.7h1.7v3.8c0,0.5,0.1,0.8,0.2,1s0.4,0.3,0.7,0.3c0.3,0,0.5,0,0.7-0.1s0.4-0.2,0.5-0.4v-3.4l-0.8-0.2v-1h0.8h1.7v5.1l0.8,0.2
			v1h-2.3L233.8,222.9z"/>
		<path class="st7" d="M237,222.6l0.8-0.2v-3.9l-0.9-0.2v-1h2.5l0.1,0.9c0.1-0.3,0.3-0.6,0.6-0.8s0.5-0.3,0.8-0.3c0.1,0,0.2,0,0.3,0
			s0.2,0,0.3,0l-0.2,1.6l-0.7,0c-0.3,0-0.5,0-0.6,0.1s-0.3,0.2-0.4,0.4v3.1l0.8,0.2v1H237V222.6z"/>
		<path class="st7" d="M241.8,222.6l0.8-0.2v-3.9l-0.9-0.2v-1h2.6v5.1l0.8,0.2v1h-3.4V222.6z M244.4,215.8h-1.7v-1.3h1.7V215.8z"/>
		<path class="st7" d="M248.3,215.8v1.6h1.1v1.2h-1.1v3.2c0,0.2,0.1,0.4,0.2,0.5s0.2,0.2,0.4,0.2c0.1,0,0.2,0,0.3,0s0.2,0,0.3,0
			l0.1,1.2c-0.2,0.1-0.4,0.1-0.6,0.1s-0.4,0-0.6,0c-0.6,0-1-0.2-1.4-0.5s-0.5-0.8-0.5-1.5v-3.2h-0.9v-1.2h0.9v-1.6H248.3z"/>
		<path class="st7" d="M256.8,218.4l-0.6,0.1l-2.3,6.2c-0.2,0.5-0.4,0.8-0.7,1.1s-0.8,0.5-1.4,0.5c-0.1,0-0.3,0-0.4,0
			s-0.3-0.1-0.4-0.1l0.2-1.2c0.1,0,0.1,0,0.2,0s0.1,0,0.2,0c0.3,0,0.5-0.1,0.7-0.2s0.3-0.3,0.4-0.5l0.2-0.5l-2-5.2l-0.6-0.1v-1h3.1
			v1l-0.7,0.1l0.9,2.5l0.1,0.5l0,0l1-3l-0.7-0.1v-1h3.1V218.4z"/>
	</g>
	<g class="st2">
		<path class="st7" d="M264.3,215.1c1,0,1.7,0.3,2.3,0.8s0.8,1.2,0.8,2c0,0.8-0.3,1.5-0.8,2s-1.3,0.7-2.3,0.7h-1.4v1.9l0.9,0.2v1
			h-3.5v-1l0.9-0.2v-6.1l-0.9-0.2v-1h0.9H264.3z M262.8,219.2h1.4c0.5,0,0.8-0.1,1.1-0.4s0.4-0.6,0.4-1c0-0.4-0.1-0.7-0.4-1
			s-0.6-0.4-1.1-0.4h-1.4V219.2z"/>
	</g>
	<g class="st2">
		<path class="st7" d="M268,220.4c0-0.9,0.3-1.7,0.8-2.3s1.3-0.9,2.2-0.9c0.9,0,1.7,0.3,2.2,0.9s0.8,1.4,0.8,2.3v0.1
			c0,1-0.3,1.7-0.8,2.3s-1.3,0.9-2.2,0.9c-0.9,0-1.7-0.3-2.2-0.9s-0.8-1.4-0.8-2.3V220.4z M269.7,220.6c0,0.6,0.1,1,0.3,1.4
			s0.5,0.5,1,0.5c0.4,0,0.8-0.2,1-0.5s0.3-0.8,0.3-1.4v-0.1c0-0.6-0.1-1-0.3-1.4s-0.5-0.5-1-0.5s-0.8,0.2-1,0.5s-0.3,0.8-0.3,1.4
			V220.6z"/>
	</g>
	<g class="st2">
		<path class="st7" d="M274.4,215.6v-1h2.6v7.9l0.8,0.2v1h-3.4v-1l0.8-0.2v-6.7L274.4,215.6z"/>
		<path class="st7" d="M278.3,222.6l0.8-0.2v-3.9l-0.9-0.2v-1h2.6v5.1l0.8,0.2v1h-3.4V222.6z M280.9,215.8h-1.7v-1.3h1.7V215.8z"/>
		<path class="st7" d="M285.2,222.5c0.3,0,0.5-0.1,0.7-0.3s0.3-0.4,0.3-0.7h1.5l0,0c0,0.6-0.2,1.2-0.7,1.6s-1.1,0.6-1.9,0.6
			c-0.9,0-1.7-0.3-2.2-0.9s-0.8-1.4-0.8-2.3v-0.2c0-0.9,0.3-1.7,0.8-2.3s1.3-0.9,2.2-0.9c0.5,0,1,0.1,1.4,0.2s0.7,0.4,1,0.6l0,1.7
			h-1.4l-0.3-1c-0.1-0.1-0.2-0.1-0.3-0.2s-0.3-0.1-0.4-0.1c-0.5,0-0.8,0.2-1,0.5s-0.3,0.8-0.3,1.4v0.2c0,0.6,0.1,1,0.3,1.4
			S284.8,222.5,285.2,222.5z"/>
		<path class="st7" d="M295.1,218.4l-0.6,0.1l-2.3,6.2c-0.2,0.5-0.4,0.8-0.7,1.1s-0.8,0.5-1.4,0.5c-0.1,0-0.3,0-0.4,0
			s-0.3-0.1-0.4-0.1l0.2-1.2c0.1,0,0.1,0,0.2,0s0.1,0,0.2,0c0.3,0,0.5-0.1,0.7-0.2s0.3-0.3,0.4-0.5l0.2-0.5l-2-5.2l-0.6-0.1v-1h3.1
			v1l-0.7,0.1l0.9,2.5l0.1,0.5l0,0l1-3l-0.7-0.1v-1h3.1V218.4z"/>
	</g>
	
		<linearGradient id="SVGID_2_" gradientUnits="userSpaceOnUse" x1="155.98" y1="187.615" x2="351.79" y2="187.615" gradientTransform="matrix(1 0 0 -1 0 280)">
		<stop  offset="0" style="stop-color:#990066"/>
		<stop  offset="0.19" style="stop-color:#780066"/>
		<stop  offset="0.4" style="stop-color:#5A0066"/>
		<stop  offset="0.61" style="stop-color:#440066"/>
		<stop  offset="0.81" style="stop-color:#370066"/>
		<stop  offset="1" style="stop-color:#330066"/>
	</linearGradient>
	<path class="st10" d="M161,66.9h185.8c2.8,0,5,2.2,5,5v41c0,2.8-2.2,5-5,5H161c-2.8,0-5-2.2-5-5v-41C156,69.1,158.2,66.9,161,66.9z
		"/>
	<g class="st2">
		<path class="st7" d="M196.9,84h-1.3l-0.2-1.1c-0.2-0.2-0.4-0.3-0.6-0.4s-0.6-0.1-0.9-0.1c-0.7,0-1.3,0.3-1.7,0.8s-0.6,1.2-0.6,2.1
			v0.3c0,0.9,0.2,1.6,0.6,2.1s1,0.8,1.7,0.8c0.3,0,0.6,0,0.9-0.1s0.5-0.2,0.6-0.4l0.2-1.1h1.3v1.7c-0.3,0.4-0.8,0.7-1.3,1
			s-1.1,0.4-1.8,0.4c-1.1,0-2.1-0.4-2.8-1.2c-0.7-0.8-1.1-1.8-1.1-3.1v-0.3c0-1.2,0.4-2.3,1.1-3.1c0.7-0.8,1.7-1.2,2.8-1.2
			c0.7,0,1.3,0.1,1.8,0.4s1,0.6,1.3,1V84z"/>
		<path class="st7" d="M197.6,88.6l0.6-0.1l2.6-7.4h1.8l2.6,7.4l0.6,0.1v1h-2.9v-1l0.6-0.1l-0.4-1.2h-2.8l-0.4,1.2l0.6,0.1v1h-2.9
			V88.6z M200.7,86h2l-1-3h0L200.7,86z"/>
		<path class="st7" d="M212.8,83.8h-1.3l-0.2-1.2c-0.1-0.1-0.4-0.2-0.7-0.2s-0.6-0.1-0.9-0.1c-0.5,0-0.8,0.1-1.1,0.3
			s-0.4,0.5-0.4,0.8c0,0.3,0.1,0.5,0.4,0.7s0.7,0.4,1.4,0.6c0.9,0.3,1.7,0.6,2.1,1s0.7,1,0.7,1.7c0,0.7-0.3,1.3-0.9,1.7
			s-1.3,0.6-2.3,0.6c-0.7,0-1.3-0.1-1.8-0.3s-1-0.5-1.4-0.9v-1.8h1.3l0.2,1.2c0.2,0.1,0.4,0.3,0.7,0.3s0.6,0.1,1,0.1
			c0.5,0,0.8-0.1,1.1-0.3s0.4-0.4,0.4-0.8c0-0.3-0.1-0.6-0.3-0.8s-0.6-0.4-1.2-0.6c-1-0.3-1.8-0.6-2.3-1s-0.8-1-0.8-1.7
			c0-0.7,0.3-1.3,0.9-1.7s1.3-0.7,2.2-0.7c0.7,0,1.3,0.1,1.8,0.3s1,0.5,1.4,0.8V83.8z"/>
	</g>
	<g id="Scone_logo_white">
		<g>
			<defs>
				<rect id="SVGID_3_" x="228.5" y="101" width="48.8" height="9.6"/>
			</defs>
			<clipPath id="SVGID_4_">
				<use xlink:href="#SVGID_3_"  style="overflow:visible;"/>
			</clipPath>
			<g class="st11">
				<g>
					<defs>
						<rect id="SVGID_5_" x="228.5" y="101" width="48.8" height="9.6"/>
					</defs>
					<clipPath id="SVGID_6_">
						<use xlink:href="#SVGID_5_"  style="overflow:visible;"/>
					</clipPath>
					<g class="st12">
						<path class="st13" d="M235,103.4h-1c-0.2,0-0.4,0.2-0.4,0.4c0,0,0,0,0,0v1c0,0.2,0.2,0.4,0.4,0.4c0,0,0,0,0,0h1
							c0.2,0,0.4-0.2,0.4-0.4c0,0,0,0,0,0v-1C235.4,103.6,235.2,103.4,235,103.4C235,103.4,235,103.4,235,103.4 M231.4,105.2h1
							c0.2,0,0.4-0.2,0.4-0.4v-1c0-0.2-0.2-0.4-0.4-0.4h-1c-0.2,0-0.4,0.2-0.4,0.4v1C231.1,105.1,231.2,105.2,231.4,105.2
							 M230.3,104.8v-1c0-0.2-0.2-0.4-0.4-0.4c0,0,0,0,0,0h-1c-0.2,0-0.4,0.2-0.4,0.4c0,0,0,0,0,0v1c0,0.2,0.2,0.4,0.4,0.4
							c0,0,0,0,0,0h1C230.2,105.2,230.3,105.1,230.3,104.8C230.3,104.9,230.3,104.9,230.3,104.8 M235.1,106c-0.2,0-0.3,0.1-0.3,0.3
							v1.2c0,0.2,0.1,0.3,0.3,0.3c0.2,0,0.3-0.1,0.3-0.3v-1.2C235.4,106.1,235.3,106,235.1,106C235.1,106,235.1,106,235.1,106
							 M232.3,106.4v1c0,0.2,0.2,0.4,0.4,0.4h1c0.2,0,0.4-0.2,0.4-0.4v-1c0-0.2-0.2-0.4-0.4-0.4h-1
							C232.4,106,232.3,106.1,232.3,106.4 M231.5,107.4v-1c0-0.2-0.2-0.4-0.4-0.4h-1c-0.2,0-0.4,0.2-0.4,0.4v1
							c0,0.2,0.2,0.4,0.4,0.4h1C231.4,107.8,231.5,107.6,231.5,107.4 M235,108.5h-1c-0.2,0-0.4,0.2-0.4,0.4c0,0,0,0,0,0v1
							c0,0.2,0.2,0.4,0.4,0.4h1c0.2,0,0.4-0.2,0.4-0.4v-1C235.4,108.7,235.2,108.5,235,108.5C235,108.5,235,108.5,235,108.5
							 M232.4,108.5h-1c-0.2,0-0.4,0.2-0.4,0.4v1c0,0.2,0.2,0.4,0.4,0.4h1c0.2,0,0.4-0.2,0.4-0.4v-1
							C232.7,108.7,232.6,108.5,232.4,108.5"/>
						<path class="st13" d="M236.2,103c0.5,0.4,1,0.5,1.6,0.5c0,0,0,0,0,0.1v2.8c0,1.1-1.3,1.8-1.6,1.9l0,0L236.2,103L236.2,103"/>
						<path class="st13" d="M233.1,102.9c2.2-0.1,2.5-0.8,2.5-0.8c0,0,0.1-0.1,0.1-0.1c0,0,0.1,0,0.1,0c0,0,0.3,0.8,2.5,0.8
							c0.1,0,0.1,0,0.1,0.1v3.7c0,1.2-2.2,2.5-2.3,2.5s-0.1,0.1-0.1,0.1v0.9c0,0,0.1,0,0.2,0c0.8-0.4,3.1-1.7,3.1-3.3v-4.7
							c0-0.1-0.1-0.1-0.2-0.1c-2.8,0-3.3-1-3.3-1s-0.1,0-0.2,0s-0.1,0-0.1,0s-0.4,1-3.2,1c-0.1,0-0.1,0-0.1,0.1v0.6
							c0,0,0,0.1,0.1,0.1S233.1,102.8,233.1,102.9"/>
						<path class="st14" d="M241.4,108.9l1.1-0.4c0.3,0.5,0.8,0.9,1.4,0.8c0.3,0,0.6-0.1,0.8-0.2c0.2-0.1,0.4-0.3,0.4-0.6
							c0-0.6-0.8-0.9-1.4-1.2l0,0c-0.5-0.2-0.9-0.4-1.3-0.7c-0.4-0.3-0.6-0.8-0.6-1.3c0-0.5,0.2-1,0.6-1.3c0.5-0.4,1-0.6,1.6-0.6
							c0.9-0.1,1.7,0.4,2.2,1.2l-1.1,0.4c-0.1-0.2-0.2-0.3-0.4-0.4c-0.2-0.1-0.4-0.1-0.6-0.1c-0.6,0-1.1,0.3-1.1,0.8
							c0,0.3,0.2,0.6,0.4,0.7c0.3,0.2,0.7,0.4,1,0.5l0.1,0.1c0.9,0.3,1.9,0.8,1.9,1.9c0,0.6-0.3,1.1-0.8,1.4
							c-0.5,0.4-1.1,0.5-1.8,0.5C242.9,110.5,241.9,109.9,241.4,108.9"/>
						<path class="st14" d="M251.2,110.4c-0.5,0-0.9-0.1-1.4-0.3c-0.8-0.4-1.5-1-1.9-1.8c-0.4-0.9-0.4-1.8,0-2.7
							c0.4-0.8,1-1.5,1.9-1.8c0.4-0.2,0.9-0.3,1.4-0.3c1.1,0,2.1,0.5,2.8,1.4l-0.9,0.7c-0.2-0.3-0.5-0.5-0.8-0.7
							c-0.3-0.2-0.7-0.2-1.1-0.3c-1.3,0-2.3,1-2.4,2.3c0,0.6,0.2,1.3,0.7,1.7c0.4,0.4,1,0.7,1.6,0.7c0.4,0,0.8-0.1,1.2-0.3
							c0.4-0.2,0.6-0.5,0.9-0.9l1,0.6c-0.3,0.5-0.7,1-1.3,1.3C252.4,110.2,251.8,110.4,251.2,110.4"/>
						<path class="st14" d="M258.8,110.4c-0.5,0-0.9-0.1-1.4-0.3c-0.4-0.2-0.8-0.4-1.1-0.8c-0.7-0.7-1-1.5-1-2.5
							c0-0.5,0.1-0.9,0.3-1.3c0.2-0.4,0.4-0.8,0.8-1.1c0.3-0.3,0.7-0.6,1.1-0.8c0.9-0.4,1.8-0.4,2.7,0c0.4,0.2,0.8,0.4,1.1,0.8
							c0.3,0.3,0.6,0.7,0.8,1.1c0.4,0.9,0.4,1.8,0,2.7c-0.2,0.4-0.4,0.8-0.8,1.1c-0.3,0.3-0.7,0.6-1.1,0.8
							C259.7,110.3,259.3,110.4,258.8,110.4 M258.8,104.6c-0.6,0-1.2,0.2-1.6,0.7c-0.4,0.4-0.7,1-0.7,1.7c0,0.6,0.2,1.2,0.7,1.7
							c0.4,0.4,1,0.7,1.6,0.7c0.6,0,1.2-0.2,1.6-0.7c0.4-0.4,0.7-1,0.7-1.7c0-0.6-0.2-1.2-0.7-1.7
							C260,104.8,259.4,104.6,258.8,104.6"/>
						<polygon class="st14" points="270.1,103.5 270.1,110.6 265.3,106.1 265.3,110.3 264,110.3 264,103.2 268.9,107.7 268.9,103.5 
													"/>
						<polygon class="st14" points="273.5,104.5 273.5,106.3 276.9,106.3 276.9,107.4 273.5,107.4 273.5,109.2 277.3,109.2 
							277.3,110.3 272.2,110.3 272.2,103.5 277.3,103.5 277.3,104.5 273.5,104.5 						"/>
					</g>
				</g>
			</g>
		</g>
	</g>
	<path class="st15" d="M318.9,84.4h-10.2c-0.6-2.5-3.2-4.1-5.7-3.4c-2.5,0.6-4.1,3.2-3.4,5.7c0.6,2.5,3.2,4.1,5.7,3.4
		c1.7-0.4,3-1.7,3.4-3.4h3l1.3,1.3l1.4-1.4h0.2l0.9,0.9l0.8-0.8l1.3,1.3l1.4-1.4l1.1-1L318.9,84.4z M302.4,86.8
		c-0.7,0-1.3-0.6-1.3-1.3s0.6-1.3,1.3-1.3s1.3,0.6,1.3,1.3S303.1,86.8,302.4,86.8z"/>
	<path class="st16" d="M283.1,84.4H273c-0.6-2.5-3.2-4.1-5.7-3.4c-2.5,0.6-4.1,3.2-3.4,5.7c0.6,2.5,3.2,4.1,5.7,3.4
		c1.7-0.4,3-1.7,3.4-3.4h3l1.3,1.3l1.4-1.4h0.2l0.9,0.9l0.8-0.8l1.3,1.3l1.5-1.5l1.1-1L283.1,84.4z M266.5,86.8
		c-0.7,0-1.3-0.6-1.3-1.3s0.6-1.3,1.3-1.3s1.3,0.6,1.3,1.3S267.2,86.8,266.5,86.8z"/>
	<path class="st17" d="M247.3,84.4h-10.2c-0.6-2.5-3.2-4.1-5.7-3.4c-2.5,0.6-4.1,3.2-3.4,5.7s3.2,4.1,5.7,3.4c1.7-0.4,3-1.7,3.4-3.4
		h3l1.3,1.3l1.4-1.4h0.2l0.9,0.9l0.8-0.8L246,88l1.5-1.5l1.1-1L247.3,84.4z M230.7,86.8c-0.7,0-1.2-0.6-1.2-1.3
		c0-0.7,0.6-1.2,1.3-1.2c0.7,0,1.2,0.6,1.2,1.2C232,86.2,231.5,86.8,230.7,86.8C230.8,86.8,230.8,86.8,230.7,86.8L230.7,86.8z"/>
	<g class="st2">
		<path class="st8" d="M14.6,159.6l0.7-0.1l2.8-8H20l2.8,8l0.7,0.1v1.1h-3.1v-1.1l0.6-0.1l-0.4-1.3h-3l-0.4,1.3l0.6,0.1v1.1h-3.1
			V159.6z M18,156.8h2.1l-1-3.3h0L18,156.8z"/>
	</g>
	<g class="st2">
		<path class="st8" d="M26.1,152.1v1.7h1.2v1.3h-1.2v3.5c0,0.3,0.1,0.5,0.2,0.6c0.1,0.1,0.3,0.2,0.4,0.2c0.1,0,0.2,0,0.3,0
			c0.1,0,0.2,0,0.3-0.1l0.2,1.3c-0.2,0.1-0.4,0.1-0.6,0.1c-0.2,0-0.4,0-0.7,0c-0.6,0-1.1-0.2-1.5-0.5c-0.3-0.4-0.5-0.9-0.5-1.7v-3.5
			h-1v-1.3h1v-1.7H26.1z"/>
		<path class="st8" d="M31,152.1v1.7h1.2v1.3H31v3.5c0,0.3,0.1,0.5,0.2,0.6c0.1,0.1,0.3,0.2,0.4,0.2c0.1,0,0.2,0,0.3,0
			c0.1,0,0.2,0,0.3-0.1l0.2,1.3c-0.2,0.1-0.4,0.1-0.6,0.1c-0.2,0-0.4,0-0.7,0c-0.6,0-1.1-0.2-1.5-0.5c-0.3-0.4-0.5-0.9-0.5-1.7v-3.5
			h-1v-1.3h1v-1.7H31z"/>
		<path class="st8" d="M37.4,160.7c-0.1-0.1-0.1-0.2-0.1-0.4c0-0.1-0.1-0.2-0.1-0.4c-0.2,0.3-0.5,0.5-0.8,0.6
			c-0.3,0.2-0.7,0.2-1.1,0.2c-0.7,0-1.2-0.2-1.6-0.5s-0.6-0.9-0.6-1.5c0-0.6,0.3-1.1,0.8-1.5c0.5-0.4,1.3-0.5,2.3-0.5h0.9v-0.7
			c0-0.3-0.1-0.6-0.3-0.8S36.4,155,36,155c-0.2,0-0.4,0-0.6,0.1s-0.3,0.1-0.4,0.2l-0.1,0.7h-1.4l0-1.5c0.3-0.2,0.7-0.4,1.2-0.6
			c0.4-0.2,0.9-0.2,1.4-0.2c0.9,0,1.5,0.2,2.1,0.6c0.5,0.4,0.8,1,0.8,1.8v2.8c0,0.1,0,0.2,0,0.3c0,0.1,0,0.2,0,0.3l0.6,0.1v1.1H37.4
			z M35.8,159.5c0.3,0,0.5-0.1,0.8-0.2c0.2-0.1,0.4-0.3,0.5-0.5v-1h-0.9c-0.4,0-0.7,0.1-0.9,0.3c-0.2,0.2-0.3,0.4-0.3,0.7
			c0,0.2,0.1,0.4,0.2,0.5C35.4,159.4,35.6,159.5,35.8,159.5z"/>
		<path class="st8" d="M43.4,159.4c0.3,0,0.6-0.1,0.8-0.3c0.2-0.2,0.3-0.5,0.3-0.8h1.7l0,0c0,0.7-0.2,1.3-0.8,1.7
			c-0.5,0.5-1.2,0.7-2,0.7c-1,0-1.8-0.3-2.4-1c-0.6-0.6-0.8-1.5-0.8-2.5v-0.2c0-1,0.3-1.8,0.9-2.5c0.6-0.7,1.4-1,2.4-1
			c0.6,0,1.1,0.1,1.5,0.2c0.4,0.2,0.8,0.4,1.1,0.7l0,1.8h-1.5l-0.3-1.1c-0.1-0.1-0.2-0.1-0.3-0.2c-0.1-0.1-0.3-0.1-0.5-0.1
			c-0.5,0-0.9,0.2-1.1,0.6s-0.3,0.9-0.3,1.5v0.2c0,0.6,0.1,1.1,0.3,1.5C42.6,159.2,42.9,159.4,43.4,159.4z"/>
	</g>
	<g class="st2">
		<path class="st8" d="M46.9,151.9v-1.1h2.8v5.7h0.4l1.1-1.5l-0.6-0.1v-1.1H54v1.1l-0.8,0.2l-1.2,1.7l1.7,2.6l0.7,0.1v1.1h-3.2v-1.1
			l0.4-0.1l-1.1-1.7h-0.8v1.6l0.8,0.2v1.1H47v-1.1l0.9-0.2v-7.3L46.9,151.9z"/>
	</g>
	<g class="st2">
		<path class="st8" d="M58.1,160.8c-1,0-1.8-0.3-2.4-1s-0.9-1.4-0.9-2.4v-0.3c0-1,0.3-1.9,0.8-2.5c0.6-0.7,1.3-1,2.3-1
			c0.9,0,1.6,0.3,2.2,0.8s0.8,1.3,0.8,2.3v1h-4.1l0,0c0,0.5,0.2,0.8,0.5,1.1c0.3,0.3,0.6,0.4,1.1,0.4c0.4,0,0.8,0,1-0.1
			c0.3-0.1,0.6-0.2,0.9-0.4l0.5,1.1c-0.3,0.2-0.7,0.4-1.1,0.6C59.2,160.7,58.7,160.8,58.1,160.8z M58,155.1c-0.3,0-0.6,0.1-0.8,0.4
			c-0.2,0.3-0.3,0.6-0.4,1l0,0h2.3v-0.2c0-0.4-0.1-0.7-0.3-0.9C58.6,155.2,58.4,155.1,58,155.1z"/>
		<path class="st8" d="M61.9,159.6l0.9-0.2v-4.3l-1-0.2v-1.1h2.7l0.1,1c0.2-0.4,0.4-0.6,0.6-0.8c0.3-0.2,0.5-0.3,0.9-0.3
			c0.1,0,0.2,0,0.3,0c0.1,0,0.2,0,0.3,0.1l-0.2,1.7l-0.8,0c-0.3,0-0.5,0.1-0.7,0.2s-0.3,0.3-0.4,0.5v3.3l0.9,0.2v1.1h-3.6V159.6z"/>
	</g>
	<line class="st18" x1="121.9" y1="101" x2="68.4" y2="123.9"/>
	<polygon class="st19" points="115.4,97.6 114.9,98.9 121.4,101.3 118.6,107.6 119.9,108.1 123.3,100.4 	"/>
	<line class="st18" x1="121.9" y1="81.5" x2="68.4" y2="58.7"/>
	<polygon class="st19" points="119.9,74.4 118.6,75 121.4,81.3 114.9,83.6 115.4,84.9 123.3,82.1 	"/>
	<circle class="st20" cx="137.6" cy="91.4" r="7.8"/>
	<line class="st21" x1="143.1" y1="96.9" x2="132.1" y2="85.9"/>
	<path class="st7" d="M29.5,140.5c-0.6,0-1-0.4-1-1v-5.1c0-1.6,0.8-3.2,2.1-4.1c1-0.8,2.2-1.3,3.5-1.5c0.4-0.1,0.8-0.1,1.1-0.1v-1.1
		c-2.3-1.7-3.6-4.4-3.6-7.2c0-0.9,0-1.3,0-1.6c0-0.2,0-0.3,0-0.5h-0.2c-0.6,0-1-0.4-1-1v-5.6c0-0.2,0.1-0.4,0.2-0.5
		c0.6-3.9,3.2-7.1,6.9-8.4c2.3-0.8,4.7-0.8,7,0c1.5,0.5,2.8,1.4,3.9,2.5c1.6,1.6,2.7,3.7,3,5.9c0.1,0.1,0.1,0.3,0.2,0.5v5.6
		c0,0.6-0.4,1-1,1h-0.2v2.5c0,2.8-1.4,5.4-3.7,7v0.9c0.4,0,0.8,0,1.1,0.1c1.3,0.2,2.5,0.7,3.5,1.6c1.3,1,2.1,2.5,2.1,4.1v5.1
		c0,0.6-0.4,1-1,1L29.5,140.5z"/>
	<path class="st8" d="M40.9,103.1c1.1,0,2.2,0.2,3.2,0.5c1.3,0.5,2.5,1.2,3.5,2.3c1.6,1.5,2.5,3.5,2.8,5.7h0.1v5.6h-1.2v3.5
		c0,2.7-1.4,5.1-3.7,6.5v2.4h1c0.3,0,0.7,0,1,0.1c1.1,0.2,2.2,0.6,3.1,1.4c1.1,0.8,1.7,2,1.8,3.4v5.1h-23v-5.1
		c0-1.3,0.7-2.6,1.7-3.4c0.9-0.7,2-1.2,3.1-1.4c0.3-0.1,0.7-0.1,1-0.1h1v-2.5h0.2c-2.3-1.5-3.7-4.1-3.8-6.8c0-1.8-0.1-1.5-0.1-3.2
		h-1.3v-5.6h0.1C32,106.8,36.1,103.1,40.9,103.1 M40.9,101.1c-5.6,0-10.4,4.1-11.4,9.6c-0.1,0.3-0.2,0.6-0.2,0.9v5.6
		c0,0.8,0.5,1.5,1.3,1.8c0,0.3,0,0.7,0,1.3c0,2.8,1.2,5.5,3.3,7.4c-1.4,0.2-2.8,0.8-3.9,1.8c-1.6,1.1-2.5,3-2.5,4.9v5.1
		c0,1.1,0.9,2,2,2h22.9c1.1,0,2-0.9,2-2v-5.1c0-1.9-0.9-3.8-2.5-4.9c-1.1-0.9-2.4-1.5-3.7-1.7c2-1.8,3.2-4.4,3.2-7.1V119
		c0.7-0.3,1.2-1,1.2-1.8v-5.6c0-0.3-0.1-0.6-0.2-0.9c-0.4-2.4-1.6-4.6-3.3-6.2c-1.2-1.2-2.7-2.2-4.3-2.7
		C43.5,101.3,42.2,101.1,40.9,101.1L40.9,101.1z"/>
	<polygon class="st8" points="31.2,115.7 31.2,120.1 39,120.1 40.9,120.1 42.8,120.1 50.6,120.1 50.6,115.7 	"/>
	<path class="st22" d="M32.5,115.8c0,1.9,0.1,2.7,0.1,4.6c0.1,4.5,3.8,8.2,8.3,8.2c4.5,0.2,8.2-3.3,8.4-7.8c0,0,0,0,0,0v-5.2"/>
	<path class="st22" d="M31.4,112.6c0-5.3,4.3-9.5,9.6-9.5c1.1,0,2.1,0.2,3.1,0.5c1.3,0.5,2.5,1.2,3.5,2.3c1.8,1.8,2.8,4.2,2.8,6.7"
		/>
	<rect x="31.4" y="112.2" class="st9" width="19.1" height="3.5"/>
	<line class="st9" x1="39.8" y1="123.7" x2="43.3" y2="123.7"/>
	<path class="st7" d="M37.4,116.6c-0.5,0.5-0.6,1.3-0.1,1.9c0.5,0.6,1.3,0.6,1.9,0.2c0.3-0.2,0.5-0.6,0.5-0.9l0,0L37.4,116.6z"/>
	<path class="st7" d="M46.5,116.6l-2.1,1.4c0.1,0.2,0.2,0.4,0.3,0.6c0.5,0.5,1.4,0.5,1.9,0c0.3-0.3,0.4-0.6,0.4-1
		C47,117.3,46.8,116.9,46.5,116.6z"/>
</g>
</svg>
