<svg xmlns="http://www.w3.org/2000/svg" xmlns:xlink="http://www.w3.org/1999/xlink" viewBox="0 0 435.09 253"><defs><style>.cls-1,.cls-13,.cls-23,.cls-8{fill:none;}.cls-2,.cls-27,.cls-31{fill:#906;}.cls-12,.cls-13,.cls-19,.cls-2,.cls-23,.cls-3,.cls-6,.cls-8{stroke:#fc0;stroke-width:2px;}.cls-19,.cls-2,.cls-23,.cls-3,.cls-6,.cls-8{stroke-miterlimit:10;}.cls-3,.cls-30{fill:#306;}.cls-4{opacity:0.7;}.cls-5{fill:url(#Unbenannter_Verlauf_12);}.cls-6{fill:url(#Unbenannter_Verlauf_12-2);}.cls-7{fill:url(#Unbenannter_Verlauf_12-3);}.cls-26,.cls-30,.cls-31,.cls-9{font-size:12px;font-family:RobotoSlab-Bold, Roboto Slab;font-weight:700;}.cls-14,.cls-9{fill:#fc0;}.cls-10{letter-spacing:-0.01em;}.cls-11{letter-spacing:0.01em;}.cls-12,.cls-26{fill:#fff;}.cls-12,.cls-13{stroke-linecap:round;stroke-linejoin:round;}.cls-15{clip-path:url(#clip-path);}.cls-16{fill:#ffd138;}.cls-17{fill:#fdfeff;}.cls-18{clip-path:url(#clip-path-3);}.cls-19{fill:url(#Unbenannter_Verlauf_12-4);}.cls-20{fill:url(#Unbenannter_Verlauf_12-5);}.cls-21{clip-path:url(#clip-path-5);}.cls-22{clip-path:url(#clip-path-7);}.cls-23{stroke-dasharray:2 2;}.cls-24{letter-spacing:-0.04em;}.cls-25{letter-spacing:-0.04em;}.cls-28{fill:#39f;}.cls-29{fill:#3c9;}</style><linearGradient id="Unbenannter_Verlauf_12" x1="161.02" y1="177.2" x2="280.46" y2="177.2" gradientTransform="translate(439.48 354.4) rotate(180)" gradientUnits="userSpaceOnUse"><stop offset="0" stop-color="#906"/><stop offset="0.19" stop-color="#780066"/><stop offset="0.4" stop-color="#5a0066"/><stop offset="0.61" stop-color="#406"/><stop offset="0.81" stop-color="#370066"/><stop offset="1" stop-color="#306"/></linearGradient><linearGradient id="Unbenannter_Verlauf_12-2" x1="34.06" y1="65.06" x2="158.83" y2="65.06" gradientTransform="matrix(1, 0, 0, 1, 0, 0)" xlink:href="#Unbenannter_Verlauf_12"/><linearGradient id="Unbenannter_Verlauf_12-3" x1="34.32" y1="177.2" x2="159.98" y2="177.2" gradientTransform="matrix(1, 0, 0, 1, 0, 0)" xlink:href="#Unbenannter_Verlauf_12"/><clipPath id="clip-path"><rect class="cls-1" x="78.23" y="201.71" width="36.34" height="7.12"/></clipPath><clipPath id="clip-path-3"><rect class="cls-1" x="78.23" y="76.98" width="36.34" height="7.12"/></clipPath><linearGradient id="Unbenannter_Verlauf_12-4" x1="277.86" y1="65.06" x2="402.64" y2="65.06" gradientTransform="matrix(1, 0, 0, 1, 0, 0)" xlink:href="#Unbenannter_Verlauf_12"/><linearGradient id="Unbenannter_Verlauf_12-5" x1="405.78" y1="177.2" x2="280.12" y2="177.2" gradientTransform="translate(683.9 354.4) rotate(180)" xlink:href="#Unbenannter_Verlauf_12"/><clipPath id="clip-path-5"><rect class="cls-1" x="322.03" y="201.71" width="36.34" height="7.12"/></clipPath><clipPath id="clip-path-7"><rect class="cls-1" x="322.03" y="76.98" width="36.34" height="7.12"/></clipPath></defs><title>CASOverview-5</title><g id="Ebene_2" data-name="Ebene 2"><rect class="cls-2" x="265.07" y="15.79" width="149.23" height="212.39" rx="5" transform="translate(679.36 243.96) rotate(180)"/><rect class="cls-3" x="20.27" y="15.79" width="150.61" height="212.39" rx="5"/><g class="cls-4"><polyline class="cls-5" points="159.02 190.05 278.46 190.05 278.46 164.35 159.02 164.35"/></g><rect class="cls-6" x="34.06" y="39.57" width="124.77" height="50.97" rx="5"/><path class="cls-7" d="M160,190.05V210a5,5,0,0,1-5,5H39.32a5,5,0,0,1-5-5v-65.5a5,5,0,0,1,5-5H155a5,5,0,0,1,5,5v19.9"/><path class="cls-8" d="M160,190.05V210a5,5,0,0,1-5,5H39.32a5,5,0,0,1-5-5v-65.5a5,5,0,0,1,5-5H155a5,5,0,0,1,5,5v19.9"/><text class="cls-9" transform="translate(60.16 180.66)">Mic<tspan class="cls-10" x="21.49" y="0">r</tspan><tspan x="26.43" y="0">ose</tspan><tspan class="cls-11" x="45.72" y="0">r</tspan><tspan x="50.88" y="0">vice</tspan></text><path class="cls-12" d="M88.62,128.68a11.73,11.73,0,1,1-3.52,8.38,11.54,11.54,0,0,1,2.4-7.1"/><path class="cls-13" d="M96.43,142.71H92.19c-.58,0-.8-.23-.8-.81v-6.46c0-.58.22-.8.8-.8h8.46c.54,0,.77.22.77.77v6.49c0,.55-.23.77-.77.77C99.23,142.74,97.82,142.71,96.43,142.71Z"/><path class="cls-13" d="M92.08,134.07a4.48,4.48,0,0,1,2.64-4.13,4.2,4.2,0,0,1,5.77,2.85c.1.39.14.77.24,1.19"/><path class="cls-14" d="M95.73,139.94h0v.87c0,.16.06.22.26.22h.83c.23,0,.29-.06.29-.25v-1.61a.37.37,0,0,1,.23-.39,1.21,1.21,0,0,0,.61-1.44,1.55,1.55,0,0,0-1.45-1,1.65,1.65,0,0,0-1.61.87,1.2,1.2,0,0,0,.55,1.51.43.43,0,0,1,.26.48A6,6,0,0,1,95.73,139.94Z"/><g id="Scone_logo_white" data-name="Scone logo white"><g class="cls-15"><g class="cls-15"><path class="cls-16" d="M83.05,203.51h-.76a.31.31,0,0,0-.3.3v.77a.3.3,0,0,0,.3.29h.76a.29.29,0,0,0,.29-.29v-.77a.3.3,0,0,0-.29-.3m-2.65,1.36h.76a.29.29,0,0,0,.29-.29v-.77a.3.3,0,0,0-.29-.3H80.4a.3.3,0,0,0-.29.3v.77a.29.29,0,0,0,.29.29m-.82-.29v-.77a.3.3,0,0,0-.29-.3h-.76a.3.3,0,0,0-.3.3v.77a.29.29,0,0,0,.3.29h.76a.29.29,0,0,0,.29-.29m3.53.84a.22.22,0,0,0-.22.22v.9a.22.22,0,0,0,.22.22.23.23,0,0,0,.22-.22v-.9a.21.21,0,0,0-.22-.22m-2.1.29v.77a.3.3,0,0,0,.3.3h.76a.29.29,0,0,0,.29-.3v-.77a.29.29,0,0,0-.29-.29h-.76a.3.3,0,0,0-.3.29m-.54.77v-.77a.29.29,0,0,0-.29-.29h-.76a.29.29,0,0,0-.29.29v.77a.29.29,0,0,0,.29.3h.76a.29.29,0,0,0,.29-.3m2.58.84h-.76a.3.3,0,0,0-.3.29v.78a.3.3,0,0,0,.3.29h.76a.29.29,0,0,0,.29-.29v-.78a.29.29,0,0,0-.29-.29m-2,0h-.76a.29.29,0,0,0-.29.29v.78a.29.29,0,0,0,.29.29h.76a.29.29,0,0,0,.29-.29v-.78a.29.29,0,0,0-.29-.29"/><path class="cls-16" d="M84,203.21a1.78,1.78,0,0,0,1.19.36s0,0,0,.06v2.09c0,.81-1,1.31-1.21,1.44a0,0,0,0,1,0,0v-3.92s0,0,0,0"/><path class="cls-16" d="M81.67,203.1c1.61,0,1.88-.61,1.88-.61a.07.07,0,0,1,.07,0s.06,0,.07,0,.25.6,1.86.6c0,0,.06,0,.06.08v2.75c0,.88-1.67,1.87-1.7,1.89s-.06,0-.06.06v.68s.11.05.15,0c.61-.33,2.34-1.29,2.34-2.46v-3.51c0-.06-.1-.1-.16-.1-2.05,0-2.43-.75-2.43-.75s-.09,0-.13,0-.07,0-.09,0-.34.77-2.37.77c-.07,0-.09,0-.09.09V203s0,.1.06.1l.54,0"/><path class="cls-17" d="M87.86,207.6l.82-.31a1.12,1.12,0,0,0,1.07.61,1.2,1.2,0,0,0,.63-.14.49.49,0,0,0,.26-.44c0-.44-.6-.7-1-.88h0a4.48,4.48,0,0,1-.95-.53,1.19,1.19,0,0,1-.46-1,1.29,1.29,0,0,1,.48-1,1.88,1.88,0,0,1,1.21-.41,1.76,1.76,0,0,1,1.61.88l-.85.32a.6.6,0,0,0-.29-.3,1.12,1.12,0,0,0-.47-.11c-.47,0-.79.25-.79.59a.69.69,0,0,0,.32.53,5.1,5.1,0,0,0,.74.38l.1,0c.63.26,1.4.6,1.4,1.45a1.23,1.23,0,0,1-.55,1,2.25,2.25,0,0,1-1.33.38,2,2,0,0,1-1.88-1.11"/><path class="cls-17" d="M95.12,208.69a2.67,2.67,0,0,1-1-.2,2.4,2.4,0,0,1-.82-.56,2.28,2.28,0,0,1-.55-.82,2.47,2.47,0,0,1-.21-1,2.54,2.54,0,0,1,.21-1,2.47,2.47,0,0,1,.55-.82,2.52,2.52,0,0,1,.82-.55,2.68,2.68,0,0,1,1-.21,2.49,2.49,0,0,1,1.17.28,2.59,2.59,0,0,1,.89.75l-.68.51a1.93,1.93,0,0,0-.6-.5,2,2,0,0,0-.79-.19,1.74,1.74,0,0,0-1.74,1.74A1.72,1.72,0,0,0,96,207.6a1.64,1.64,0,0,0,.63-.65l.75.43a2.59,2.59,0,0,1-.94,1,2.34,2.34,0,0,1-1.3.36"/><path class="cls-17" d="M100.79,208.71a2.47,2.47,0,0,1-1-.21A2.28,2.28,0,0,1,99,208a2.55,2.55,0,0,1-.56-.82,2.68,2.68,0,0,1-.21-1,2.35,2.35,0,0,1,.21-1,2.44,2.44,0,0,1,.56-.82,2.5,2.5,0,0,1,.82-.56,2.63,2.63,0,0,1,2,0,2.31,2.31,0,0,1,.82.56,2.44,2.44,0,0,1,.56.82,2.53,2.53,0,0,1,0,2,2.55,2.55,0,0,1-.56.82,2.63,2.63,0,0,1-1.82.76m0-4.35a1.7,1.7,0,0,0-1.23.51A1.74,1.74,0,0,0,99,206.1a1.73,1.73,0,0,0,3,1.23,1.71,1.71,0,0,0,.52-1.23,1.76,1.76,0,0,0-.52-1.23,1.73,1.73,0,0,0-1.22-.51"/><polygon class="cls-17" points="109.26 203.56 109.26 208.83 105.63 205.49 105.63 208.62 104.71 208.62 104.71 203.37 108.34 206.72 108.34 203.56 109.26 203.56"/><polygon class="cls-17" points="111.73 204.33 111.73 205.68 114.26 205.68 114.26 206.47 111.73 206.47 111.73 207.83 114.57 207.83 114.57 208.62 110.81 208.62 110.81 203.56 114.57 203.56 114.57 204.35 111.73 204.35 111.73 204.33"/></g></g></g><g id="Scone_logo_white-2" data-name="Scone logo white"><g class="cls-18"><g class="cls-18"><path class="cls-16" d="M83.05,78.79h-.76a.3.3,0,0,0-.3.29v.78a.3.3,0,0,0,.3.29h.76a.29.29,0,0,0,.29-.29v-.78a.29.29,0,0,0-.29-.29M80.4,80.15h.76a.29.29,0,0,0,.29-.29v-.78a.29.29,0,0,0-.29-.29H80.4a.29.29,0,0,0-.29.29v.78a.29.29,0,0,0,.29.29m-.82-.29v-.78a.29.29,0,0,0-.29-.29h-.76a.29.29,0,0,0-.3.29v.78a.29.29,0,0,0,.3.29h.76a.29.29,0,0,0,.29-.29m3.53.83a.22.22,0,0,0-.22.22v.91a.23.23,0,0,0,.22.22.24.24,0,0,0,.22-.22v-.91a.21.21,0,0,0-.22-.22M81,81v.78a.3.3,0,0,0,.3.29h.76a.29.29,0,0,0,.29-.29V81a.29.29,0,0,0-.29-.29h-.76A.3.3,0,0,0,81,81m-.54.78V81a.29.29,0,0,0-.29-.29h-.76a.29.29,0,0,0-.29.29v.78a.29.29,0,0,0,.29.29h.76a.29.29,0,0,0,.29-.29m2.58.83h-.76a.3.3,0,0,0-.3.29v.78a.3.3,0,0,0,.3.29h.76a.29.29,0,0,0,.29-.29v-.78a.29.29,0,0,0-.29-.29m-2,0h-.76a.29.29,0,0,0-.29.29v.78a.29.29,0,0,0,.29.29h.76a.29.29,0,0,0,.29-.29v-.78a.29.29,0,0,0-.29-.29"/><path class="cls-16" d="M84,78.48a1.71,1.71,0,0,0,1.19.37s0,0,0,.05V81c0,.8-1,1.3-1.21,1.43,0,0,0,0,0,0V78.49s0,0,0,0"/><path class="cls-16" d="M81.67,78.38c1.61-.06,1.88-.62,1.88-.62a.07.07,0,0,1,.07,0s.06,0,.07,0,.25.6,1.86.6c0,0,.06,0,.06.07v2.75c0,.88-1.67,1.88-1.7,1.89s-.06,0-.06.06v.69s.11,0,.15,0c.61-.34,2.34-1.29,2.34-2.46V77.87c0-.06-.1-.11-.16-.11-2.05,0-2.43-.74-2.43-.74s-.09,0-.13,0-.07,0-.09,0-.34.78-2.37.78c-.07,0-.09,0-.09.09v.43s0,.11.06.11.54,0,.54,0"/><path class="cls-17" d="M87.86,82.87l.82-.31a1.13,1.13,0,0,0,1.07.62,1.2,1.2,0,0,0,.63-.15.48.48,0,0,0,.26-.44c0-.44-.6-.7-1-.88h0a3.75,3.75,0,0,1-.95-.53,1.17,1.17,0,0,1-.46-1,1.27,1.27,0,0,1,.48-1,1.83,1.83,0,0,1,1.21-.41,1.74,1.74,0,0,1,1.61.88l-.85.32a.62.62,0,0,0-.29-.31,1.12,1.12,0,0,0-.47-.1c-.47,0-.79.25-.79.58a.69.69,0,0,0,.32.53,4.27,4.27,0,0,0,.74.38l.1,0c.63.27,1.4.6,1.4,1.45a1.22,1.22,0,0,1-.55,1,2.25,2.25,0,0,1-1.33.38,2,2,0,0,1-1.88-1.11"/><path class="cls-17" d="M95.12,84a2.68,2.68,0,0,1-1-.21,2.37,2.37,0,0,1-.82-.55,2.47,2.47,0,0,1-.55-.82,2.53,2.53,0,0,1,0-2,2.28,2.28,0,0,1,.55-.82,2.4,2.4,0,0,1,.82-.56,2.67,2.67,0,0,1,1-.2,2.38,2.38,0,0,1,1.17.28,2.46,2.46,0,0,1,.89.74l-.68.51a1.78,1.78,0,0,0-.6-.49,1.84,1.84,0,0,0-.79-.19,1.74,1.74,0,0,0-1.74,1.74,1.73,1.73,0,0,0,3.24.85l.75.42a2.45,2.45,0,0,1-.94.95,2.35,2.35,0,0,1-1.3.37"/><path class="cls-17" d="M100.79,84a2.64,2.64,0,0,1-1-.2,2.31,2.31,0,0,1-.82-.56,2.44,2.44,0,0,1-.56-.82,2.68,2.68,0,0,1-.21-1,2.35,2.35,0,0,1,.21-1,2.55,2.55,0,0,1,.56-.82,2.55,2.55,0,0,1,2.83-.55,2.28,2.28,0,0,1,.82.55,2.55,2.55,0,0,1,.56.82,2.53,2.53,0,0,1,0,2,2.44,2.44,0,0,1-.56.82,2.5,2.5,0,0,1-.82.56,2.62,2.62,0,0,1-1,.2m0-4.34a1.66,1.66,0,0,0-1.23.51A1.71,1.71,0,0,0,99,81.38a1.69,1.69,0,0,0,.52,1.23A1.74,1.74,0,1,0,102,80.15a1.73,1.73,0,0,0-1.22-.51"/><polygon class="cls-17" points="109.26 78.83 109.26 84.1 105.63 80.76 105.63 83.89 104.71 83.89 104.71 78.64 108.34 81.99 108.34 78.83 109.26 78.83"/><polygon class="cls-17" points="111.73 79.61 111.73 80.95 114.26 80.95 114.26 81.74 111.73 81.74 111.73 83.1 114.57 83.1 114.57 83.89 110.81 83.89 110.81 78.83 114.57 78.83 114.57 79.62 111.73 79.62 111.73 79.61"/></g></g></g><line class="cls-8" x1="96.97" y1="97.6" x2="96.97" y2="118.87"/><polygon class="cls-14" points="91.25 102.24 92.27 103.19 96.97 98.14 101.67 103.19 102.7 102.24 96.97 96.08 91.25 102.24"/><polygon class="cls-14" points="91.25 114.23 92.27 113.28 96.97 118.34 101.67 113.28 102.7 114.23 96.97 120.39 91.25 114.23"/><rect class="cls-19" x="277.86" y="39.57" width="124.77" height="50.97" rx="5"/><path class="cls-20" d="M278.12,164.35v-19.9a5,5,0,0,1,5-5H398.78a5,5,0,0,1,5,5V210a5,5,0,0,1-5,5H283.12a5,5,0,0,1-5-5v-19.9"/><path class="cls-8" d="M278.12,164.35v-19.9a5,5,0,0,1,5-5H398.78a5,5,0,0,1,5,5V210a5,5,0,0,1-5,5H283.12a5,5,0,0,1-5-5v-19.9"/><text class="cls-9" transform="translate(303.96 180.66)">Mic<tspan class="cls-10" x="21.49" y="0">r</tspan><tspan x="26.43" y="0">ose</tspan><tspan class="cls-11" x="45.72" y="0">r</tspan><tspan x="50.88" y="0">vice</tspan></text><path class="cls-12" d="M332.32,128.68a11.73,11.73,0,1,1-3.52,8.38,11.54,11.54,0,0,1,2.4-7.1"/><path class="cls-13" d="M340.23,142.71H336c-.58,0-.8-.23-.8-.81v-6.46c0-.58.22-.8.8-.8h8.46c.54,0,.77.22.77.77v6.49c0,.55-.23.77-.77.77C343,142.74,341.62,142.71,340.23,142.71Z"/><path class="cls-13" d="M335.88,134.07a4.48,4.48,0,0,1,2.64-4.13,4.19,4.19,0,0,1,5.77,2.85c.1.39.14.77.24,1.19"/><path class="cls-14" d="M339.53,139.94h0v.87c0,.16.06.22.26.22h.83c.23,0,.29-.06.29-.25v-1.61a.37.37,0,0,1,.23-.39,1.21,1.21,0,0,0,.61-1.44,1.54,1.54,0,0,0-1.45-1,1.65,1.65,0,0,0-1.61.87,1.2,1.2,0,0,0,.55,1.51.42.42,0,0,1,.26.48A6,6,0,0,1,339.53,139.94Z"/><g id="Scone_logo_white-3" data-name="Scone logo white"><g class="cls-21"><g class="cls-21"><path class="cls-16" d="M326.85,203.51h-.76a.31.31,0,0,0-.3.3v.77a.3.3,0,0,0,.3.29h.76a.29.29,0,0,0,.29-.29v-.77a.3.3,0,0,0-.29-.3m-2.65,1.36H325a.29.29,0,0,0,.29-.29v-.77a.3.3,0,0,0-.29-.3h-.76a.3.3,0,0,0-.29.3v.77a.29.29,0,0,0,.29.29m-.82-.29v-.77a.3.3,0,0,0-.29-.3h-.76a.31.31,0,0,0-.3.3v.77a.3.3,0,0,0,.3.29h.76a.29.29,0,0,0,.29-.29m3.53.84a.22.22,0,0,0-.22.22v.9a.22.22,0,0,0,.22.22.23.23,0,0,0,.22-.22v-.9a.21.21,0,0,0-.22-.22m-2.1.29v.77a.3.3,0,0,0,.3.3h.76a.29.29,0,0,0,.29-.3v-.77a.29.29,0,0,0-.29-.29h-.76a.3.3,0,0,0-.3.29m-.54.77v-.77a.29.29,0,0,0-.29-.29h-.76a.29.29,0,0,0-.29.29v.77a.29.29,0,0,0,.29.3H324a.29.29,0,0,0,.29-.3m2.58.84h-.76a.3.3,0,0,0-.3.29v.78a.3.3,0,0,0,.3.29h.76a.29.29,0,0,0,.29-.29v-.78a.29.29,0,0,0-.29-.29m-2,0h-.76a.29.29,0,0,0-.29.29v.78a.29.29,0,0,0,.29.29h.76a.3.3,0,0,0,.3-.29v-.78a.3.3,0,0,0-.3-.29"/><path class="cls-16" d="M327.77,203.21a1.78,1.78,0,0,0,1.19.36s0,0,0,.06v2.09c0,.81-1,1.31-1.21,1.44a0,0,0,0,1,0,0v-3.92s0,0,0,0"/><path class="cls-16" d="M325.47,203.1c1.61,0,1.88-.61,1.88-.61a.07.07,0,0,1,.07,0s.06,0,.07,0,.25.6,1.86.6c0,0,.06,0,.06.08v2.75c0,.88-1.67,1.87-1.7,1.89s-.06,0-.06.06v.68s.11.05.15,0c.61-.33,2.34-1.29,2.34-2.46v-3.51c0-.06-.1-.1-.16-.1-2.05,0-2.43-.75-2.43-.75s-.09,0-.13,0-.07,0-.09,0-.34.77-2.37.77c-.07,0-.09,0-.09.09V203s0,.1.06.1l.54,0"/><path class="cls-17" d="M331.66,207.6l.82-.31a1.12,1.12,0,0,0,1.07.61,1.2,1.2,0,0,0,.63-.14.49.49,0,0,0,.26-.44c0-.44-.6-.7-1-.88h0a4.31,4.31,0,0,1-1-.53,1.19,1.19,0,0,1-.46-1,1.29,1.29,0,0,1,.48-1,1.9,1.9,0,0,1,1.21-.41,1.76,1.76,0,0,1,1.61.88l-.85.32a.6.6,0,0,0-.29-.3,1.12,1.12,0,0,0-.47-.11c-.46,0-.79.25-.79.59a.67.67,0,0,0,.33.53,4.51,4.51,0,0,0,.73.38l.1,0c.63.26,1.4.6,1.4,1.45a1.23,1.23,0,0,1-.55,1,2.25,2.25,0,0,1-1.33.38,2,2,0,0,1-1.88-1.11"/><path class="cls-17" d="M338.92,208.69a2.67,2.67,0,0,1-1-.2,2.4,2.4,0,0,1-.82-.56,2.28,2.28,0,0,1-.55-.82,2.47,2.47,0,0,1-.21-1,2.54,2.54,0,0,1,.21-1,2.47,2.47,0,0,1,.55-.82,2.52,2.52,0,0,1,.82-.55,2.68,2.68,0,0,1,1-.21,2.49,2.49,0,0,1,1.17.28,2.72,2.72,0,0,1,.9.75l-.69.51a1.75,1.75,0,0,0-1.39-.69,1.74,1.74,0,0,0-1.74,1.74,1.76,1.76,0,0,0,1.74,1.75,1.75,1.75,0,0,0,.88-.25,1.68,1.68,0,0,0,.62-.65l.75.43a2.59,2.59,0,0,1-.94,1,2.34,2.34,0,0,1-1.3.36"/><path class="cls-17" d="M344.59,208.71a2.47,2.47,0,0,1-1-.21,2.28,2.28,0,0,1-.82-.55,2.55,2.55,0,0,1-.56-.82,2.67,2.67,0,0,1-.2-1,2.34,2.34,0,0,1,.2-1,2.44,2.44,0,0,1,.56-.82,2.6,2.6,0,0,1,.82-.56,2.64,2.64,0,0,1,1-.2,2.71,2.71,0,0,1,1,.2,2.36,2.36,0,0,1,.81.56,2.44,2.44,0,0,1,.56.82,2.53,2.53,0,0,1,0,2,2.6,2.6,0,0,1-2.38,1.58m0-4.35a1.7,1.7,0,0,0-1.23.51,1.74,1.74,0,0,0-.52,1.23,1.73,1.73,0,0,0,3,1.23,1.71,1.71,0,0,0,.52-1.23,1.76,1.76,0,0,0-.52-1.23,1.73,1.73,0,0,0-1.22-.51"/><polygon class="cls-17" points="353.06 203.56 353.06 208.83 349.43 205.49 349.43 208.62 348.51 208.62 348.51 203.37 352.14 206.72 352.14 203.56 353.06 203.56"/><polygon class="cls-17" points="355.53 204.33 355.53 205.68 358.06 205.68 358.06 206.47 355.53 206.47 355.53 207.83 358.37 207.83 358.37 208.62 354.61 208.62 354.61 203.56 358.37 203.56 358.37 204.35 355.53 204.35 355.53 204.33"/></g></g></g><g id="Scone_logo_white-4" data-name="Scone logo white"><g class="cls-22"><g class="cls-22"><path class="cls-16" d="M326.85,78.79h-.76a.3.3,0,0,0-.3.29v.78a.3.3,0,0,0,.3.29h.76a.29.29,0,0,0,.29-.29v-.78a.29.29,0,0,0-.29-.29m-2.65,1.36H325a.29.29,0,0,0,.29-.29v-.78a.29.29,0,0,0-.29-.29h-.76a.29.29,0,0,0-.29.29v.78a.29.29,0,0,0,.29.29m-.82-.29v-.78a.29.29,0,0,0-.29-.29h-.76a.3.3,0,0,0-.3.29v.78a.3.3,0,0,0,.3.29h.76a.29.29,0,0,0,.29-.29m3.53.83a.22.22,0,0,0-.22.22v.91a.23.23,0,0,0,.22.22.24.24,0,0,0,.22-.22v-.91a.21.21,0,0,0-.22-.22m-2.1.29v.78a.3.3,0,0,0,.3.29h.76a.29.29,0,0,0,.29-.29V81a.29.29,0,0,0-.29-.29h-.76a.3.3,0,0,0-.3.29m-.54.78V81a.29.29,0,0,0-.29-.29h-.76a.29.29,0,0,0-.29.29v.78a.29.29,0,0,0,.29.29H324a.29.29,0,0,0,.29-.29m2.58.83h-.76a.3.3,0,0,0-.3.29v.78a.3.3,0,0,0,.3.29h.76a.29.29,0,0,0,.29-.29v-.78a.29.29,0,0,0-.29-.29m-2,0h-.76a.29.29,0,0,0-.29.29v.78a.29.29,0,0,0,.29.29h.76a.3.3,0,0,0,.3-.29v-.78a.3.3,0,0,0-.3-.29"/><path class="cls-16" d="M327.77,78.48a1.71,1.71,0,0,0,1.19.37s0,0,0,.05V81c0,.8-1,1.3-1.21,1.43,0,0,0,0,0,0V78.49s0,0,0,0"/><path class="cls-16" d="M325.47,78.38c1.61-.06,1.88-.62,1.88-.62a.07.07,0,0,1,.07,0s.06,0,.07,0,.25.6,1.86.6c0,0,.06,0,.06.07v2.75c0,.88-1.67,1.88-1.7,1.89s-.06,0-.06.06v.69s.11,0,.15,0c.61-.34,2.34-1.29,2.34-2.46V77.87c0-.06-.1-.11-.16-.11-2.05,0-2.43-.74-2.43-.74s-.09,0-.13,0-.07,0-.09,0-.34.78-2.37.78c-.07,0-.09,0-.09.09v.43s0,.11.06.11.54,0,.54,0"/><path class="cls-17" d="M331.66,82.87l.82-.31a1.13,1.13,0,0,0,1.07.62,1.2,1.2,0,0,0,.63-.15.48.48,0,0,0,.26-.44c0-.44-.6-.7-1-.88h0a3.64,3.64,0,0,1-1-.53,1.17,1.17,0,0,1-.46-1,1.27,1.27,0,0,1,.48-1,1.85,1.85,0,0,1,1.21-.41,1.74,1.74,0,0,1,1.61.88l-.85.32a.62.62,0,0,0-.29-.31,1.12,1.12,0,0,0-.47-.1c-.46,0-.79.25-.79.58a.67.67,0,0,0,.33.53,3.83,3.83,0,0,0,.73.38l.1,0c.63.27,1.4.6,1.4,1.45a1.22,1.22,0,0,1-.55,1,2.25,2.25,0,0,1-1.33.38,2,2,0,0,1-1.88-1.11"/><path class="cls-17" d="M338.92,84a2.68,2.68,0,0,1-1-.21,2.37,2.37,0,0,1-.82-.55,2.47,2.47,0,0,1-.55-.82,2.53,2.53,0,0,1,0-2,2.28,2.28,0,0,1,.55-.82,2.4,2.4,0,0,1,.82-.56,2.67,2.67,0,0,1,1-.2,2.38,2.38,0,0,1,1.17.28,2.58,2.58,0,0,1,.9.74l-.69.51a1.78,1.78,0,0,0-.6-.49,1.8,1.8,0,0,0-.79-.19,1.74,1.74,0,0,0-1.74,1.74,1.74,1.74,0,0,0,1.74,1.74,1.75,1.75,0,0,0,.88-.25,1.73,1.73,0,0,0,.62-.64l.75.42a2.45,2.45,0,0,1-.94.95,2.35,2.35,0,0,1-1.3.37"/><path class="cls-17" d="M344.59,84a2.64,2.64,0,0,1-1-.2,2.31,2.31,0,0,1-.82-.56,2.44,2.44,0,0,1-.56-.82,2.67,2.67,0,0,1-.2-1,2.34,2.34,0,0,1,.2-1A2.62,2.62,0,0,1,343.58,79a2.47,2.47,0,0,1,1-.21,2.54,2.54,0,0,1,1,.21,2.33,2.33,0,0,1,.81.55,2.55,2.55,0,0,1,.56.82,2.53,2.53,0,0,1,0,2,2.44,2.44,0,0,1-.56.82,2.57,2.57,0,0,1-.81.56,2.71,2.71,0,0,1-1,.2m0-4.34a1.66,1.66,0,0,0-1.23.51,1.71,1.71,0,0,0-.52,1.23,1.69,1.69,0,0,0,.52,1.23,1.74,1.74,0,1,0,2.45-2.46,1.73,1.73,0,0,0-1.22-.51"/><polygon class="cls-17" points="353.06 78.83 353.06 84.1 349.43 80.76 349.43 83.89 348.51 83.89 348.51 78.64 352.14 81.99 352.14 78.83 353.06 78.83"/><polygon class="cls-17" points="355.53 79.61 355.53 80.95 358.06 80.95 358.06 81.74 355.53 81.74 355.53 83.1 358.37 83.1 358.37 83.89 354.61 83.89 354.61 78.83 358.37 78.83 358.37 79.62 355.53 79.62 355.53 79.61"/></g></g></g><line class="cls-8" x1="340.77" y1="97.6" x2="340.77" y2="118.87"/><polygon class="cls-14" points="335.05 102.24 336.07 103.19 340.77 98.14 345.47 103.19 346.5 102.24 340.77 96.08 335.05 102.24"/><polygon class="cls-14" points="335.05 114.23 336.07 113.28 340.77 118.34 345.47 113.28 346.5 114.23 340.77 120.39 335.05 114.23"/><line class="cls-8" x1="159.02" y1="190.05" x2="278.46" y2="190.05"/><line class="cls-8" x1="159.02" y1="164.35" x2="278.46" y2="164.35"/><path class="cls-12" d="M88.62,29.19a11.73,11.73,0,1,1-3.52,8.38,11.56,11.56,0,0,1,2.4-7.1"/><path class="cls-13" d="M96.54,43.22H92.29c-.57,0-.8-.23-.8-.8V36c0-.58.23-.8.8-.8h8.46c.55,0,.77.22.77.77v6.5c0,.54-.22.77-.77.77C99.33,43.25,97.92,43.22,96.54,43.22Z"/><path class="cls-13" d="M92.18,34.59a4.52,4.52,0,0,1,2.64-4.14,4.21,4.21,0,0,1,5.78,2.85c.1.39.13.77.23,1.19"/><path class="cls-14" d="M95.83,40.45h0v.87c0,.16.07.23.26.23h.84c.22,0,.29-.07.29-.26V39.68a.36.36,0,0,1,.22-.38,1.22,1.22,0,0,0,.61-1.45,1.53,1.53,0,0,0-1.45-1,1.62,1.62,0,0,0-1.6.86,1.19,1.19,0,0,0,.54,1.51.42.42,0,0,1,.26.49A5.7,5.7,0,0,1,95.83,40.45Z"/><path class="cls-12" d="M331.47,29.19A11.73,11.73,0,1,1,328,37.57a11.56,11.56,0,0,1,2.4-7.1"/><path class="cls-13" d="M339.38,43.22h-4.24c-.58,0-.8-.23-.8-.8V36c0-.58.22-.8.8-.8h8.46c.54,0,.77.22.77.77v6.5c0,.54-.23.77-.77.77C342.18,43.25,340.77,43.22,339.38,43.22Z"/><path class="cls-13" d="M335,34.59a4.51,4.51,0,0,1,2.64-4.14,4.19,4.19,0,0,1,5.77,2.85c.1.39.14.77.24,1.19"/><path class="cls-14" d="M338.68,40.45h0v.87c0,.16.06.23.26.23h.83c.23,0,.29-.07.29-.26V39.68a.35.35,0,0,1,.23-.38,1.22,1.22,0,0,0,.61-1.45,1.53,1.53,0,0,0-1.45-1,1.64,1.64,0,0,0-1.61.86,1.2,1.2,0,0,0,.55,1.51.42.42,0,0,1,.26.49A5.7,5.7,0,0,1,338.68,40.45Z"/><line class="cls-23" x1="150.18" y1="177.2" x2="287.89" y2="177.2"/><polygon class="cls-14" points="154.82 182.93 155.77 181.9 150.72 177.2 155.77 172.5 154.82 171.48 148.66 177.2 154.82 182.93"/><polygon class="cls-14" points="283.25 182.93 282.29 181.9 287.35 177.2 282.29 172.5 283.25 171.48 289.41 177.2 283.25 182.93"/></g><g id="schrift"><text class="cls-9" transform="translate(187.47 157.72) scale(1.01 1)">TLS-based <tspan class="cls-24" x="-0.3" y="48">a</tspan><tspan x="5.82" y="48">ttest</tspan><tspan class="cls-25" x="31.82" y="48">a</tspan><tspan x="37.94" y="48">tion</tspan></text></g><g id="Ebene_4" data-name="Ebene 4"><text class="cls-26"><tspan x="44.86" y="67.89">CAS</tspan></text><path class="cls-27" d="M148.48,63H138.3a4.72,4.72,0,1,0,0,2.27h3l1.36,1.36L144,65.28h.18l.86.86.8-.8,1.3,1.3,1.45-1.46,1.09-1Zm1.43,2.38a1.25,1.25,0,1,1,1.24-1.25A1.25,1.25,0,0,1,149.91,65.39Z"/><path class="cls-28" d="M121.67,63H111.49a4.72,4.72,0,1,0,0,2.27h3l1.36,1.36,1.35-1.36h.18l.86.86.8-.8,1.3,1.3,1.45-1.46,1.1-1ZM105.1,65.39a1.25,1.25,0,1,1,1.25-1.25A1.25,1.25,0,0,1,105.1,65.39Z"/><path class="cls-29" d="M94.86,63H84.69a4.72,4.72,0,1,0,0,2.27h3L89,66.64l1.36-1.36h.17l.86.86.8-.8,1.3,1.3L95,65.18l1.09-1ZM78.29,65.39a1.25,1.25,0,1,1,1.25-1.25A1.25,1.25,0,0,1,78.29,65.39Z"/><text class="cls-26"><tspan x="287" y="67.89">CAS</tspan></text><path class="cls-27" d="M390.61,63H380.44a4.72,4.72,0,1,0,0,2.27h3l1.36,1.36,1.36-1.36h.18l.86.86.8-.8,1.29,1.3,1.46-1.46,1.09-1ZM392,65.39a1.25,1.25,0,1,1,1.25-1.25A1.24,1.24,0,0,1,392,65.39Z"/><path class="cls-28" d="M363.8,63H353.63a4.72,4.72,0,1,0,0,2.27h3L358,66.64l1.36-1.36h.18l.86.86.8-.8,1.3,1.3,1.45-1.46,1.09-1Zm-16.57,2.38a1.25,1.25,0,1,1,1.25-1.25A1.25,1.25,0,0,1,347.23,65.39Z"/><path class="cls-29" d="M337,63H326.82a4.72,4.72,0,1,0,0,2.27h3l1.36,1.36,1.36-1.36h.18l.86.86.8-.8,1.3,1.3,1.45-1.46,1.09-1Zm-16.56,2.38a1.25,1.25,0,1,1,1.24-1.25A1.25,1.25,0,0,1,320.43,65.39Z"/><text class="cls-30" transform="translate(78.6 245.66)">peer A</text><text class="cls-31" transform="translate(322.75 245.66)">peer B</text></g></svg>