<?xml version="1.0" encoding="utf-8"?>
<!-- Generator: Adobe Illustrator 24.0.0, SVG Export Plug-In . SVG Version: 6.00 Build 0)  -->
<svg version="1.1" id="Ebene_1" xmlns="http://www.w3.org/2000/svg" xmlns:xlink="http://www.w3.org/1999/xlink" x="0px" y="0px"
	 viewBox="0 0 451.4 276.7" style="enable-background:new 0 0 451.4 276.7;" xml:space="preserve">
<style type="text/css">
	.st0{fill:url(#SVGID_1_);stroke:#FFCC00;stroke-width:2;stroke-miterlimit:10;}
	.st1{fill:url(#SVGID_2_);}
	.st2{fill:none;stroke:#FFCC00;stroke-width:2;stroke-miterlimit:10;}
	.st3{enable-background:new    ;}
	.st4{fill:#FFCC00;}
	.st5{opacity:0.4;}
	.st6{fill:#86C2EB;}
	.st7{fill:#FFFFFF;stroke:#FFCC00;stroke-width:2;stroke-linecap:round;stroke-linejoin:round;}
	.st8{fill:none;stroke:#FFCC00;stroke-width:2;stroke-linecap:round;stroke-linejoin:round;}
	.st9{clip-path:url(#SVGID_4_);}
	.st10{clip-path:url(#SVGID_6_);}
	.st11{fill:#FFD138;}
	.st12{fill:#FDFEFF;}
	.st13{fill:#330066;}
	.st14{fill:none;stroke:#FFCC00;stroke-width:2;stroke-miterlimit:10;stroke-dasharray:2,2;}
	.st15{fill:#FFFFFF;}
	.st16{fill:url(#SVGID_7_);stroke:#FFCC00;stroke-width:2;stroke-miterlimit:10;}
	.st17{clip-path:url(#SVGID_9_);}
	.st18{clip-path:url(#SVGID_11_);}
	.st19{fill:#990066;}
	.st20{fill:#3399FF;}
	.st21{fill:#33CC99;}
</style>
<g id="Ebene_2_1_">
	
		<linearGradient id="SVGID_1_" gradientUnits="userSpaceOnUse" x1="17.91" y1="82.21" x2="434.68" y2="82.21" gradientTransform="matrix(1 0 0 -1 0 278)">
		<stop  offset="0" style="stop-color:#990066"/>
		<stop  offset="0.19" style="stop-color:#780066"/>
		<stop  offset="0.4" style="stop-color:#5A0066"/>
		<stop  offset="0.61" style="stop-color:#440066"/>
		<stop  offset="0.81" style="stop-color:#370066"/>
		<stop  offset="1" style="stop-color:#330066"/>
	</linearGradient>
	<path class="st0" d="M22.9,128.2h406.8c2.8,0,5,2.2,5,5v125.1c0,2.8-2.2,5-5,5H22.9c-2.8,0-5-2.2-5-5V133.2
		C17.9,130.5,20.1,128.2,22.9,128.2z"/>
	
		<linearGradient id="SVGID_2_" gradientUnits="userSpaceOnUse" x1="274.78" y1="80.52" x2="400.44" y2="80.52" gradientTransform="matrix(1 0 0 -1 0 278)">
		<stop  offset="0" style="stop-color:#990066"/>
		<stop  offset="0.19" style="stop-color:#780066"/>
		<stop  offset="0.4" style="stop-color:#5A0066"/>
		<stop  offset="0.61" style="stop-color:#440066"/>
		<stop  offset="0.81" style="stop-color:#370066"/>
		<stop  offset="1" style="stop-color:#330066"/>
	</linearGradient>
	<path class="st1" d="M279.8,159.7h115.7c2.8,0,5,2.2,5,5v65.5c0,2.8-2.2,5-5,5H279.8c-2.8,0-5-2.2-5-5v-65.5
		C274.8,162,277,159.7,279.8,159.7z"/>
	<path class="st2" d="M279.8,159.7h115.7c2.8,0,5,2.2,5,5v65.5c0,2.8-2.2,5-5,5H279.8c-2.8,0-5-2.2-5-5v-65.5
		C274.8,162,277,159.7,279.8,159.7z"/>
	<g class="st3">
		<path class="st4" d="M307.8,195.6L307.8,195.6l-2.3,6.3h-1.1l-2.3-6.3l0,0l0.2,3.7v1.3l0.9,0.2v1h-3.5v-1l0.9-0.2v-6.1l-0.9-0.2
			v-1h0.9h2.2l2.2,6.3h0l2.2-6.3h3.2v1l-0.9,0.2v6.1l0.9,0.2v1h-3.5v-1l0.9-0.2v-1.3L307.8,195.6z"/>
		<path class="st4" d="M310.9,200.9l0.8-0.2v-3.9l-0.9-0.2v-1h2.6v5.1l0.8,0.2v1h-3.4V200.9z M313.4,194.1h-1.7v-1.3h1.7V194.1z"/>
		<path class="st4" d="M317.8,200.8c0.3,0,0.5-0.1,0.7-0.3s0.3-0.4,0.3-0.7h1.5l0,0c0,0.6-0.2,1.2-0.7,1.6s-1.1,0.6-1.9,0.6
			c-0.9,0-1.7-0.3-2.2-0.9s-0.8-1.4-0.8-2.3v-0.2c0-0.9,0.3-1.7,0.8-2.3s1.3-0.9,2.2-0.9c0.5,0,1,0.1,1.4,0.2s0.7,0.4,1,0.6l0,1.7
			h-1.4l-0.3-1c-0.1-0.1-0.2-0.1-0.3-0.2s-0.3-0.1-0.4-0.1c-0.5,0-0.8,0.2-1,0.5s-0.3,0.8-0.3,1.4v0.2c0,0.6,0.1,1,0.3,1.4
			S317.3,200.8,317.8,200.8z"/>
	</g>
	<g class="st3">
		<path class="st4" d="M321.3,200.9l0.8-0.2v-3.9l-0.9-0.2v-1h2.5l0.1,0.9c0.1-0.3,0.3-0.6,0.6-0.8s0.5-0.3,0.8-0.3
			c0.1,0,0.2,0,0.3,0s0.2,0,0.2,0l-0.2,1.6l-0.7,0c-0.3,0-0.5,0-0.6,0.1s-0.3,0.2-0.4,0.4v3.1l0.8,0.2v1h-3.4V200.9z"/>
	</g>
	<g class="st3">
		<path class="st4" d="M326.1,198.7c0-0.9,0.3-1.7,0.8-2.3s1.3-0.9,2.2-0.9c0.9,0,1.7,0.3,2.2,0.9s0.8,1.4,0.8,2.3v0.1
			c0,1-0.3,1.7-0.8,2.3s-1.3,0.9-2.2,0.9c-0.9,0-1.7-0.3-2.2-0.9s-0.8-1.4-0.8-2.3V198.7z M327.8,198.8c0,0.6,0.1,1,0.3,1.4
			s0.5,0.5,1,0.5c0.4,0,0.8-0.2,1-0.5s0.3-0.8,0.3-1.4v-0.1c0-0.6-0.1-1-0.3-1.4s-0.5-0.5-1-0.5s-0.8,0.2-1,0.5s-0.3,0.8-0.3,1.4
			V198.8z"/>
		<path class="st4" d="M338,197.8h-1.1l-0.2-0.8c-0.1-0.1-0.3-0.2-0.4-0.2s-0.4-0.1-0.6-0.1c-0.3,0-0.5,0.1-0.7,0.2
			s-0.3,0.3-0.3,0.5c0,0.2,0.1,0.4,0.3,0.5s0.5,0.2,1,0.3c0.8,0.2,1.4,0.4,1.7,0.7s0.6,0.7,0.6,1.3c0,0.6-0.2,1-0.7,1.4
			s-1.1,0.5-1.9,0.5c-0.5,0-0.9-0.1-1.3-0.2s-0.8-0.3-1.1-0.6l0-1.4h1.2l0.2,0.8c0.1,0.1,0.2,0.1,0.4,0.2s0.4,0.1,0.6,0.1
			c0.3,0,0.6-0.1,0.8-0.2s0.3-0.3,0.3-0.5c0-0.2-0.1-0.3-0.3-0.5s-0.5-0.3-1-0.4c-0.7-0.2-1.3-0.4-1.7-0.7s-0.6-0.7-0.6-1.2
			c0-0.5,0.2-1,0.7-1.4s1.1-0.6,1.9-0.6c0.5,0,1,0.1,1.4,0.2s0.8,0.3,1,0.5L338,197.8z"/>
		<path class="st4" d="M342,202.1c-0.9,0-1.6-0.3-2.2-0.9s-0.8-1.3-0.8-2.2v-0.2c0-0.9,0.3-1.7,0.8-2.3s1.2-0.9,2.1-0.9
			c0.9,0,1.5,0.3,2,0.8s0.7,1.2,0.7,2.1v0.9h-3.8l0,0c0,0.4,0.2,0.8,0.4,1s0.6,0.4,1,0.4c0.4,0,0.7,0,0.9-0.1s0.5-0.2,0.8-0.4
			l0.5,1.1c-0.3,0.2-0.6,0.4-1,0.5S342.5,202.1,342,202.1z M341.9,196.8c-0.3,0-0.6,0.1-0.8,0.4s-0.3,0.6-0.3,1l0,0h2.1V198
			c0-0.4-0.1-0.7-0.3-0.9S342.2,196.8,341.9,196.8z"/>
	</g>
	<g class="st3">
		<path class="st4" d="M345.5,200.9l0.8-0.2v-3.9l-0.9-0.2v-1h2.5l0.1,0.9c0.1-0.3,0.3-0.6,0.6-0.8s0.5-0.3,0.8-0.3
			c0.1,0,0.2,0,0.3,0s0.2,0,0.2,0l-0.2,1.6l-0.7,0c-0.3,0-0.5,0-0.6,0.1s-0.3,0.2-0.4,0.4v3.1l0.8,0.2v1h-3.4V200.9z"/>
	</g>
	<g class="st3">
		<path class="st4" d="M353.2,196.6l-0.6,0.1l0.8,2.8l0.1,0.6h0l0.1-0.6l0.8-2.8l-0.6-0.1v-1h2.9v1l-0.6,0.1l-1.9,5.2h-1.6l-1.9-5.2
			l-0.6-0.1v-1h2.9V196.6z"/>
		<path class="st4" d="M357.3,200.9l0.8-0.2v-3.9l-0.9-0.2v-1h2.6v5.1l0.8,0.2v1h-3.4V200.9z M359.9,194.1h-1.7v-1.3h1.7V194.1z"/>
		<path class="st4" d="M364.2,200.8c0.3,0,0.5-0.1,0.7-0.3s0.3-0.4,0.3-0.7h1.5l0,0c0,0.6-0.2,1.2-0.7,1.6s-1.1,0.6-1.9,0.6
			c-0.9,0-1.7-0.3-2.2-0.9s-0.8-1.4-0.8-2.3v-0.2c0-0.9,0.3-1.7,0.8-2.3s1.3-0.9,2.2-0.9c0.5,0,1,0.1,1.4,0.2s0.7,0.4,1,0.6l0,1.7
			h-1.4l-0.3-1c-0.1-0.1-0.2-0.1-0.3-0.2s-0.3-0.1-0.4-0.1c-0.5,0-0.8,0.2-1,0.5s-0.3,0.8-0.3,1.4v0.2c0,0.6,0.1,1,0.3,1.4
			S363.8,200.8,364.2,200.8z"/>
		<path class="st4" d="M370.6,202.1c-0.9,0-1.6-0.3-2.2-0.9s-0.8-1.3-0.8-2.2v-0.2c0-0.9,0.3-1.7,0.8-2.3s1.2-0.9,2.1-0.9
			c0.9,0,1.5,0.3,2,0.8s0.7,1.2,0.7,2.1v0.9h-3.8l0,0c0,0.4,0.2,0.8,0.4,1s0.6,0.4,1,0.4c0.4,0,0.7,0,0.9-0.1s0.5-0.2,0.8-0.4
			l0.5,1.1c-0.3,0.2-0.6,0.4-1,0.5S371.1,202.1,370.6,202.1z M370.4,196.8c-0.3,0-0.6,0.1-0.8,0.4s-0.3,0.6-0.3,1l0,0h2.1V198
			c0-0.4-0.1-0.7-0.3-0.9S370.8,196.8,370.4,196.8z"/>
	</g>
	<g class="st5">
		<path class="st6" d="M57.1,172.5h115.7c2.8,0,5,2.2,5,5v40c0,2.8-2.2,5-5,5H57.1c-2.8,0-5-2.2-5-5v-40
			C52.1,174.7,54.3,172.5,57.1,172.5z"/>
	</g>
	<g class="st3">
		<path class="st4" d="M85.5,196.1h-1.3L84,195c-0.1-0.1-0.4-0.2-0.7-0.2s-0.6-0.1-0.9-0.1c-0.5,0-0.8,0.1-1.1,0.3s-0.4,0.5-0.4,0.8
			c0,0.3,0.1,0.5,0.4,0.7s0.7,0.4,1.4,0.6c0.9,0.3,1.7,0.6,2.1,1s0.7,1,0.7,1.7c0,0.7-0.3,1.3-0.9,1.7s-1.3,0.6-2.3,0.6
			c-0.7,0-1.3-0.1-1.8-0.3s-1-0.5-1.4-0.9v-1.8h1.3l0.2,1.2c0.2,0.1,0.4,0.3,0.7,0.3s0.6,0.1,1,0.1c0.5,0,0.8-0.1,1.1-0.3
			s0.4-0.4,0.4-0.8c0-0.3-0.1-0.6-0.3-0.8s-0.6-0.4-1.2-0.6c-1-0.3-1.8-0.6-2.3-1s-0.8-1-0.8-1.7c0-0.7,0.3-1.3,0.9-1.7
			s1.3-0.7,2.2-0.7c0.7,0,1.3,0.1,1.8,0.3s1,0.5,1.4,0.8V196.1z"/>
		<path class="st4" d="M86.4,198.7c0-0.9,0.3-1.7,0.8-2.3s1.3-0.9,2.2-0.9c0.9,0,1.7,0.3,2.2,0.9s0.8,1.4,0.8,2.3v0.1
			c0,1-0.3,1.7-0.8,2.3s-1.3,0.9-2.2,0.9c-0.9,0-1.7-0.3-2.2-0.9s-0.8-1.4-0.8-2.3V198.7z M88.1,198.8c0,0.6,0.1,1,0.3,1.4
			s0.5,0.5,1,0.5c0.4,0,0.8-0.2,1-0.5s0.3-0.8,0.3-1.4v-0.1c0-0.6-0.1-1-0.3-1.4s-0.5-0.5-1-0.5s-0.8,0.2-1,0.5s-0.3,0.8-0.3,1.4
			V198.8z"/>
		<path class="st4" d="M97.5,201.1c-0.2,0.3-0.5,0.5-0.8,0.7s-0.6,0.2-1,0.2c-0.7,0-1.2-0.2-1.6-0.6s-0.6-1.1-0.6-2v-2.6l-0.7-0.2
			v-1h0.7h1.7v3.8c0,0.5,0.1,0.8,0.2,1s0.4,0.3,0.7,0.3c0.3,0,0.5,0,0.7-0.1s0.4-0.2,0.5-0.4v-3.4l-0.8-0.2v-1h0.8h1.7v5.1l0.8,0.2
			v1h-2.3L97.5,201.1z"/>
	</g>
	<g class="st3">
		<path class="st4" d="M100.7,200.9l0.8-0.2v-3.9l-0.9-0.2v-1h2.5l0.1,0.9c0.1-0.3,0.3-0.6,0.6-0.8s0.5-0.3,0.8-0.3
			c0.1,0,0.2,0,0.3,0s0.2,0,0.2,0l-0.2,1.6l-0.7,0c-0.3,0-0.5,0-0.6,0.1s-0.3,0.2-0.4,0.4v3.1l0.8,0.2v1h-3.4V200.9z"/>
	</g>
	<g class="st3">
		<path class="st4" d="M108.5,200.8c0.3,0,0.5-0.1,0.7-0.3s0.3-0.4,0.3-0.7h1.5l0,0c0,0.6-0.2,1.2-0.7,1.6s-1.1,0.6-1.9,0.6
			c-0.9,0-1.7-0.3-2.2-0.9s-0.8-1.4-0.8-2.3v-0.2c0-0.9,0.3-1.7,0.8-2.3s1.3-0.9,2.2-0.9c0.5,0,1,0.1,1.4,0.2s0.7,0.4,1,0.6l0,1.7
			h-1.4l-0.3-1c-0.1-0.1-0.2-0.1-0.3-0.2s-0.3-0.1-0.4-0.1c-0.5,0-0.8,0.2-1,0.5s-0.3,0.8-0.3,1.4v0.2c0,0.6,0.1,1,0.3,1.4
			S108,200.8,108.5,200.8z"/>
		<path class="st4" d="M114.9,202.1c-0.9,0-1.6-0.3-2.2-0.9s-0.8-1.3-0.8-2.2v-0.2c0-0.9,0.3-1.7,0.8-2.3s1.2-0.9,2.1-0.9
			c0.9,0,1.5,0.3,2,0.8s0.7,1.2,0.7,2.1v0.9h-3.8l0,0c0,0.4,0.2,0.8,0.4,1s0.6,0.4,1,0.4c0.4,0,0.7,0,0.9-0.1s0.5-0.2,0.8-0.4
			l0.5,1.1c-0.3,0.2-0.6,0.4-1,0.5S115.4,202.1,114.9,202.1z M114.7,196.8c-0.3,0-0.6,0.1-0.8,0.4s-0.3,0.6-0.3,1l0,0h2.1V198
			c0-0.4-0.1-0.7-0.3-0.9S115.1,196.8,114.7,196.8z"/>
		<path class="st4" d="M128.1,196.3h-1.3l-0.2-1.1c-0.2-0.2-0.4-0.3-0.6-0.4s-0.6-0.1-0.9-0.1c-0.7,0-1.3,0.3-1.7,0.8
			s-0.6,1.2-0.6,2.1v0.3c0,0.9,0.2,1.6,0.6,2.1s1,0.8,1.7,0.8c0.3,0,0.6,0,0.9-0.1s0.5-0.2,0.6-0.4l0.2-1.1h1.3v1.7
			c-0.3,0.4-0.8,0.7-1.3,1s-1.1,0.4-1.8,0.4c-1.1,0-2.1-0.4-2.8-1.2s-1.1-1.8-1.1-3.1v-0.3c0-1.2,0.4-2.3,1.1-3.1s1.7-1.2,2.8-1.2
			c0.7,0,1.3,0.1,1.8,0.4s1,0.6,1.3,1V196.3z"/>
		<path class="st4" d="M129,198.7c0-0.9,0.3-1.7,0.8-2.3s1.3-0.9,2.2-0.9c0.9,0,1.7,0.3,2.2,0.9s0.8,1.4,0.8,2.3v0.1
			c0,1-0.3,1.7-0.8,2.3s-1.3,0.9-2.2,0.9c-0.9,0-1.7-0.3-2.2-0.9s-0.8-1.4-0.8-2.3V198.7z M130.7,198.8c0,0.6,0.1,1,0.3,1.4
			s0.5,0.5,1,0.5c0.4,0,0.8-0.2,1-0.5s0.3-0.8,0.3-1.4v-0.1c0-0.6-0.1-1-0.3-1.4s-0.5-0.5-1-0.5s-0.8,0.2-1,0.5s-0.3,0.8-0.3,1.4
			V198.8z"/>
		<path class="st4" d="M139.8,201.2c-0.2,0.3-0.4,0.5-0.7,0.7s-0.6,0.2-0.9,0.2c-0.8,0-1.4-0.3-1.8-0.9s-0.6-1.3-0.6-2.3v-0.1
			c0-1,0.2-1.8,0.7-2.4s1-0.9,1.8-0.9c0.3,0,0.6,0.1,0.9,0.2s0.5,0.3,0.7,0.6V194l-0.9-0.2v-1h0.9h1.7v7.9l0.8,0.2v1h-2.3
			L139.8,201.2z M137.4,198.9c0,0.6,0.1,1,0.3,1.3s0.5,0.5,0.9,0.5c0.3,0,0.5-0.1,0.7-0.2s0.3-0.2,0.5-0.4v-2.7
			c-0.1-0.2-0.3-0.4-0.4-0.5s-0.4-0.2-0.6-0.2c-0.4,0-0.7,0.2-0.9,0.6s-0.3,0.9-0.3,1.5V198.9z"/>
		<path class="st4" d="M145.8,202.1c-0.9,0-1.6-0.3-2.2-0.9s-0.8-1.3-0.8-2.2v-0.2c0-0.9,0.3-1.7,0.8-2.3s1.2-0.9,2.1-0.9
			c0.9,0,1.5,0.3,2,0.8s0.7,1.2,0.7,2.1v0.9h-3.8l0,0c0,0.4,0.2,0.8,0.4,1s0.6,0.4,1,0.4c0.4,0,0.7,0,0.9-0.1s0.5-0.2,0.8-0.4
			l0.5,1.1c-0.3,0.2-0.6,0.4-1,0.5S146.3,202.1,145.8,202.1z M145.7,196.8c-0.3,0-0.6,0.1-0.8,0.4s-0.3,0.6-0.3,1l0,0h2.1V198
			c0-0.4-0.1-0.7-0.3-0.9S146,196.8,145.7,196.8z"/>
	</g>
	<path class="st7" d="M329,149c4.6-4.5,12.1-4.5,16.6,0.1c4.5,4.6,4.5,12.1-0.1,16.6c-4.6,4.5-12.1,4.5-16.6-0.1
		c-2.2-2.2-3.4-5.1-3.4-8.2c0-2.6,0.8-5.1,2.4-7.1"/>
	<path class="st8" d="M336.9,163h-4.2c-0.6,0-0.8-0.2-0.8-0.8v-6.5c0-0.6,0.2-0.8,0.8-0.8h8.5c0.5,0,0.8,0.2,0.8,0.8v6.5
		c0,0.6-0.2,0.8-0.8,0.8C339.7,163,338.3,163,336.9,163z"/>
	<path class="st8" d="M332.5,154.4c0-1.8,1-3.4,2.6-4.1c2.1-0.9,4.6,0,5.5,2.1c0.1,0.2,0.2,0.5,0.2,0.7c0.1,0.4,0.1,0.8,0.2,1.2"/>
	<path class="st4" d="M336.2,160.2L336.2,160.2v0.9c0,0.2,0.1,0.2,0.3,0.2h0.8c0.2,0,0.3-0.1,0.3-0.3v-1.6c0-0.2,0.1-0.3,0.2-0.4
		c0.5-0.3,0.8-0.9,0.6-1.4c-0.2-0.6-0.8-1-1.5-1c-0.7-0.1-1.3,0.3-1.6,0.9c-0.2,0.6,0,1.2,0.5,1.5c0.2,0.1,0.3,0.3,0.3,0.5
		C336.2,159.7,336.2,160,336.2,160.2z"/>
	<g id="Scone_logo_white">
		<g>
			<defs>
				<rect id="SVGID_3_" x="317.7" y="220" width="36.3" height="7.1"/>
			</defs>
			<clipPath id="SVGID_4_">
				<use xlink:href="#SVGID_3_"  style="overflow:visible;"/>
			</clipPath>
			<g class="st9">
				<g>
					<defs>
						<rect id="SVGID_5_" x="317.7" y="220" width="36.3" height="7.1"/>
					</defs>
					<clipPath id="SVGID_6_">
						<use xlink:href="#SVGID_5_"  style="overflow:visible;"/>
					</clipPath>
					<g class="st10">
						<path class="st11" d="M322.5,221.8h-0.8c-0.2,0-0.3,0.1-0.3,0.3c0,0,0,0,0,0v0.8c0,0.2,0.1,0.3,0.3,0.3c0,0,0,0,0,0h0.8
							c0.2,0,0.3-0.1,0.3-0.3l0,0v-0.8C322.8,221.9,322.7,221.8,322.5,221.8C322.5,221.8,322.5,221.8,322.5,221.8 M319.9,223.1h0.8
							c0.2,0,0.3-0.1,0.3-0.3l0,0v-0.8c0-0.2-0.1-0.3-0.3-0.3c0,0,0,0,0,0h-0.8c-0.2,0-0.3,0.1-0.3,0.3v0.8
							C319.6,223,319.7,223.2,319.9,223.1 M319,222.9v-0.8c0-0.2-0.1-0.3-0.3-0.3c0,0,0,0,0,0H318c-0.2,0-0.3,0.1-0.3,0.3
							c0,0,0,0,0,0v0.8c0,0.2,0.1,0.3,0.3,0.3l0,0h0.8C318.9,223.1,319.1,223,319,222.9L319,222.9 M322.6,223.7
							c-0.1,0-0.2,0.1-0.2,0.2v0.9c0,0.1,0,0.2,0.2,0.3c0.1,0,0.2,0,0.3-0.2c0,0,0-0.1,0-0.1v-0.9
							C322.8,223.8,322.7,223.7,322.6,223.7C322.6,223.7,322.6,223.7,322.6,223.7 M320.5,224v0.8c0,0.2,0.1,0.3,0.3,0.3h0.8
							c0.2,0,0.3-0.1,0.3-0.3V224c0-0.2-0.1-0.3-0.3-0.3l0,0h-0.8C320.6,223.7,320.5,223.8,320.5,224C320.5,224,320.5,224,320.5,224
							 M319.9,224.8V224c0-0.2-0.1-0.3-0.3-0.3l0,0h-0.8c-0.2,0-0.3,0.1-0.3,0.3v0.8c0,0.2,0.1,0.3,0.3,0.3h0.8
							C319.8,225.1,320,224.9,319.9,224.8 M322.5,225.6h-0.8c-0.2,0-0.3,0.1-0.3,0.3c0,0,0,0,0,0v0.8c0,0.2,0.1,0.3,0.3,0.3
							c0,0,0,0,0,0h0.8c0.2,0,0.3-0.1,0.3-0.3l0,0v-0.8C322.8,225.7,322.7,225.6,322.5,225.6L322.5,225.6 M320.5,225.6h-0.8
							c-0.2,0-0.3,0.1-0.3,0.3l0,0v0.8c0,0.2,0.1,0.3,0.3,0.3l0,0h0.8c0.2,0,0.3-0.1,0.3-0.3l0,0v-0.8
							C320.8,225.7,320.7,225.6,320.5,225.6L320.5,225.6"/>
						<path class="st11" d="M323.4,221.5c0.3,0.3,0.8,0.4,1.2,0.4c0,0,0,0,0,0.1v2.1c0,0.8-1,1.3-1.2,1.4l0,0L323.4,221.5
							L323.4,221.5"/>
						<path class="st11" d="M321.1,221.4c1.6-0.1,1.9-0.6,1.9-0.6c0,0,0,0,0.1-0.1c0,0,0.1,0,0.1,0s0.3,0.6,1.9,0.6
							c0,0,0.1,0,0.1,0.1v2.8c0,0.9-1.7,1.9-1.7,1.9s-0.1,0-0.1,0.1v0.7c0,0,0.1,0.1,0.1,0c0.6-0.3,2.3-1.3,2.3-2.5v-3.5
							c0-0.1-0.1-0.1-0.2-0.1c-2,0-2.4-0.8-2.4-0.8s-0.1,0-0.1,0s-0.1,0-0.1,0s-0.3,0.8-2.4,0.8c-0.1,0-0.1,0-0.1,0.1v0.4
							c0,0,0,0.1,0.1,0.1L321.1,221.4"/>
						<path class="st12" d="M327.3,225.9l0.8-0.3c0.2,0.4,0.6,0.6,1.1,0.6c0.2,0,0.4,0,0.6-0.1c0.2-0.1,0.3-0.3,0.3-0.4
							c0-0.4-0.6-0.7-1-0.9l0,0c-0.3-0.1-0.7-0.3-1-0.5c-0.3-0.2-0.5-0.6-0.5-1c0-0.4,0.2-0.8,0.5-1c0.3-0.3,0.8-0.4,1.2-0.4
							c0.7,0,1.3,0.3,1.6,0.9l-0.9,0.3c-0.1-0.1-0.2-0.2-0.3-0.3c-0.1-0.1-0.3-0.1-0.5-0.1c-0.5,0-0.8,0.3-0.8,0.6
							c0,0.2,0.1,0.4,0.3,0.5c0.2,0.1,0.5,0.3,0.7,0.4h0.1c0.6,0.3,1.4,0.6,1.4,1.4c0,0.4-0.2,0.8-0.5,1c-0.4,0.3-0.9,0.4-1.3,0.4
							C328.5,226.9,327.7,226.5,327.3,225.9"/>
						<path class="st12" d="M334.6,227c-0.3,0-0.7-0.1-1-0.2c-0.3-0.1-0.6-0.3-0.8-0.6c-0.2-0.2-0.4-0.5-0.6-0.8
							c-0.1-0.3-0.2-0.7-0.2-1c0-0.3,0.1-0.7,0.2-1c0.1-0.3,0.3-0.6,0.6-0.8c0.2-0.2,0.5-0.4,0.8-0.6c0.3-0.1,0.7-0.2,1-0.2
							c0.4,0,0.8,0.1,1.2,0.3c0.3,0.2,0.7,0.4,0.9,0.8l-0.7,0.5c-0.2-0.2-0.4-0.4-0.6-0.5c-0.2-0.1-0.5-0.2-0.8-0.2
							c-1,0-1.8,0.7-1.8,1.7c0,0.5,0.2,1,0.6,1.3c0.3,0.3,0.8,0.5,1.2,0.5c0.3,0,0.6-0.1,0.9-0.2c0.3-0.2,0.5-0.4,0.6-0.6l0.8,0.4
							c-0.2,0.4-0.5,0.8-0.9,1C335.5,227,335,227.1,334.6,227"/>
						<path class="st12" d="M340.2,227c-0.3,0-0.7-0.1-1-0.2c-0.3-0.1-0.6-0.3-0.8-0.6c-0.2-0.2-0.4-0.5-0.5-0.8
							c-0.1-0.3-0.2-0.7-0.2-1c0-0.3,0.1-0.7,0.2-1c0.1-0.3,0.3-0.6,0.5-0.8c0.5-0.5,1.1-0.8,1.8-0.8c0.3,0,0.7,0.1,1,0.2
							c0.3,0.1,0.6,0.3,0.8,0.6c0.2,0.2,0.4,0.5,0.6,0.8c0.4,1,0.2,2.1-0.6,2.8c-0.2,0.2-0.5,0.4-0.8,0.6
							C340.9,226.9,340.6,227,340.2,227 M340.2,222.7c-0.5,0-0.9,0.2-1.2,0.5c-0.3,0.3-0.5,0.8-0.5,1.2c0,1,0.8,1.7,1.7,1.7
							c0.5,0,0.9-0.2,1.2-0.5c0.3-0.3,0.5-0.8,0.5-1.2C342,223.4,341.2,222.7,340.2,222.7"/>
						<polygon class="st12" points="348.7,221.8 348.7,227.1 345.1,223.8 345.1,226.9 344.2,226.9 344.2,221.6 347.8,225 
							347.8,221.8 						"/>
						<polygon class="st12" points="351.2,222.6 351.2,224 353.7,224 353.7,224.8 351.2,224.8 351.2,226.1 354,226.1 354,226.9 
							350.3,226.9 350.3,221.8 354,221.8 354,222.6 351.2,222.6 						"/>
					</g>
				</g>
			</g>
		</g>
	</g>
	<g class="st3">
		<path class="st4" d="M198.3,254.1c0-0.1-0.1-0.2-0.1-0.3c0-0.1-0.1-0.2-0.1-0.3c-0.2,0.2-0.4,0.4-0.6,0.5s-0.5,0.2-0.8,0.2
			c-0.5,0-0.9-0.1-1.2-0.4c-0.3-0.3-0.5-0.7-0.5-1.1c0-0.5,0.2-0.9,0.6-1.1s1-0.4,1.7-0.4h0.7v-0.5c0-0.3-0.1-0.5-0.2-0.6
			s-0.4-0.2-0.6-0.2c-0.2,0-0.3,0-0.4,0.1c-0.1,0-0.2,0.1-0.3,0.1l-0.1,0.6h-1.1l0-1.2c0.3-0.2,0.6-0.3,0.9-0.4s0.7-0.2,1.1-0.2
			c0.7,0,1.2,0.2,1.6,0.5c0.4,0.3,0.6,0.8,0.6,1.4v2.2c0,0.1,0,0.2,0,0.2s0,0.1,0,0.2l0.4,0.1v0.9H198.3z M197,253.2
			c0.2,0,0.4,0,0.6-0.1c0.2-0.1,0.3-0.2,0.4-0.3v-0.8h-0.7c-0.3,0-0.5,0.1-0.7,0.2c-0.2,0.1-0.2,0.3-0.2,0.5c0,0.2,0.1,0.3,0.2,0.4
			S196.8,253.2,197,253.2z"/>
		<path class="st4" d="M200.3,249.7v-0.9h2.1l0.1,0.6c0.2-0.2,0.3-0.4,0.6-0.5s0.5-0.2,0.8-0.2c0.7,0,1.2,0.3,1.5,0.8s0.5,1.2,0.5,2
			v0.1c0,0.8-0.2,1.4-0.5,1.9s-0.9,0.7-1.5,0.7c-0.3,0-0.5-0.1-0.7-0.2c-0.2-0.1-0.4-0.3-0.6-0.5v1.5l0.7,0.1v0.9h-2.8v-0.9l0.7-0.1
			v-5.3L200.3,249.7z M204.4,251.5c0-0.5-0.1-0.9-0.2-1.2s-0.4-0.5-0.8-0.5c-0.2,0-0.4,0-0.5,0.1s-0.3,0.2-0.4,0.4v2.3
			c0.1,0.1,0.2,0.3,0.4,0.3s0.3,0.1,0.6,0.1c0.3,0,0.6-0.1,0.8-0.4s0.2-0.6,0.2-1.1V251.5z"/>
	</g>
	<g class="st3">
		<path class="st4" d="M206.3,249.7v-0.9h2.1l0.1,0.6c0.2-0.2,0.3-0.4,0.6-0.5s0.5-0.2,0.8-0.2c0.7,0,1.2,0.3,1.5,0.8s0.5,1.2,0.5,2
			v0.1c0,0.8-0.2,1.4-0.5,1.9s-0.9,0.7-1.5,0.7c-0.3,0-0.5-0.1-0.7-0.2c-0.2-0.1-0.4-0.3-0.6-0.5v1.5l0.7,0.1v0.9h-2.8v-0.9l0.7-0.1
			v-5.3L206.3,249.7z M210.4,251.5c0-0.5-0.1-0.9-0.2-1.2s-0.4-0.5-0.8-0.5c-0.2,0-0.4,0-0.5,0.1s-0.3,0.2-0.4,0.4v2.3
			c0.1,0.1,0.2,0.3,0.4,0.3s0.3,0.1,0.6,0.1c0.3,0,0.6-0.1,0.8-0.4s0.2-0.6,0.2-1.1V251.5z"/>
	</g>
	<g class="st3">
		<path class="st4" d="M212.2,247.4v-0.9h2.2v6.6l0.7,0.1v0.9h-2.8v-0.9l0.7-0.1v-5.6L212.2,247.4z"/>
		<path class="st4" d="M215.5,253.3l0.7-0.1v-3.3l-0.8-0.1v-0.9h2.2v4.3l0.7,0.1v0.9h-2.8V253.3z M217.6,247.6h-1.4v-1.1h1.4V247.6z
			"/>
		<path class="st4" d="M221.3,253.1c0.3,0,0.5-0.1,0.6-0.2c0.2-0.1,0.2-0.3,0.2-0.6h1.3l0,0c0,0.5-0.2,1-0.6,1.3
			c-0.4,0.4-0.9,0.5-1.5,0.5c-0.8,0-1.4-0.2-1.8-0.7s-0.6-1.1-0.6-1.9v-0.1c0-0.8,0.2-1.4,0.7-1.9s1.1-0.8,1.9-0.8
			c0.4,0,0.8,0.1,1.1,0.2s0.6,0.3,0.8,0.5l0,1.4h-1.2l-0.2-0.8c-0.1-0.1-0.2-0.1-0.3-0.2c-0.1,0-0.2-0.1-0.4-0.1
			c-0.4,0-0.7,0.1-0.9,0.4s-0.2,0.7-0.2,1.1v0.1c0,0.5,0.1,0.9,0.2,1.1C220.6,253,220.9,253.1,221.3,253.1z"/>
	</g>
	<g class="st3">
		<path class="st4" d="M227.4,254.1c0-0.1-0.1-0.2-0.1-0.3c0-0.1-0.1-0.2-0.1-0.3c-0.2,0.2-0.4,0.4-0.6,0.5
			c-0.2,0.1-0.5,0.2-0.8,0.2c-0.5,0-0.9-0.1-1.2-0.4c-0.3-0.3-0.5-0.7-0.5-1.1c0-0.5,0.2-0.9,0.6-1.1c0.4-0.3,1-0.4,1.7-0.4h0.7
			v-0.5c0-0.3-0.1-0.5-0.2-0.6s-0.4-0.2-0.6-0.2c-0.2,0-0.3,0-0.4,0.1c-0.1,0-0.2,0.1-0.3,0.1l-0.1,0.6h-1.1l0-1.2
			c0.3-0.2,0.6-0.3,0.9-0.4s0.7-0.2,1.1-0.2c0.7,0,1.2,0.2,1.6,0.5c0.4,0.3,0.6,0.8,0.6,1.4v2.2c0,0.1,0,0.2,0,0.2
			c0,0.1,0,0.1,0,0.2l0.4,0.1v0.9H227.4z M226.2,253.2c0.2,0,0.4,0,0.6-0.1c0.2-0.1,0.3-0.2,0.4-0.3v-0.8h-0.7
			c-0.3,0-0.5,0.1-0.7,0.2c-0.2,0.1-0.2,0.3-0.2,0.5c0,0.2,0.1,0.3,0.2,0.4C225.8,253.1,226,253.2,226.2,253.2z"/>
	</g>
	<g class="st3">
		<path class="st4" d="M231.3,247.6v1.3h0.9v1h-0.9v2.7c0,0.2,0,0.4,0.1,0.4c0.1,0.1,0.2,0.1,0.3,0.1c0.1,0,0.2,0,0.3,0
			c0.1,0,0.2,0,0.2,0l0.1,1c-0.2,0-0.3,0.1-0.5,0.1c-0.2,0-0.3,0-0.5,0c-0.5,0-0.9-0.1-1.1-0.4c-0.3-0.3-0.4-0.7-0.4-1.3v-2.7h-0.8
			v-1h0.8v-1.3H231.3z"/>
		<path class="st4" d="M232.9,253.3l0.7-0.1v-3.3l-0.8-0.1v-0.9h2.2v4.3l0.7,0.1v0.9h-2.8V253.3z M235,247.6h-1.4v-1.1h1.4V247.6z"
			/>
		<path class="st4" d="M236.1,251.4c0-0.8,0.2-1.4,0.7-1.9c0.4-0.5,1.1-0.8,1.8-0.8c0.8,0,1.4,0.3,1.8,0.8c0.4,0.5,0.7,1.1,0.7,1.9
			v0.1c0,0.8-0.2,1.4-0.7,1.9c-0.4,0.5-1,0.7-1.8,0.7c-0.8,0-1.4-0.3-1.8-0.7c-0.4-0.5-0.7-1.1-0.7-1.9V251.4z M237.6,251.5
			c0,0.5,0.1,0.9,0.3,1.2c0.2,0.3,0.4,0.4,0.8,0.4c0.4,0,0.6-0.1,0.8-0.4s0.3-0.7,0.3-1.2v-0.1c0-0.5-0.1-0.9-0.3-1.1
			c-0.2-0.3-0.4-0.4-0.8-0.4s-0.6,0.1-0.8,0.4c-0.2,0.3-0.3,0.7-0.3,1.1V251.5z"/>
		<path class="st4" d="M241.7,253.3l0.7-0.1v-3.3l-0.8-0.1v-0.9h2.1l0.1,0.8c0.2-0.3,0.4-0.5,0.6-0.6c0.3-0.1,0.5-0.2,0.9-0.2
			c0.5,0,1,0.2,1.3,0.5c0.3,0.3,0.4,0.9,0.4,1.6v2.3l0.7,0.1v0.9h-2.7v-0.9l0.6-0.1v-2.3c0-0.4-0.1-0.6-0.2-0.8
			c-0.1-0.1-0.4-0.2-0.6-0.2c-0.2,0-0.4,0-0.5,0.1c-0.2,0.1-0.3,0.2-0.4,0.3v2.8l0.6,0.1v0.9h-2.7V253.3z"/>
		<path class="st4" d="M250.4,253.3l0.5-0.1l2.2-6.2h1.5l2.1,6.2l0.5,0.1v0.9h-2.4v-0.9l0.5-0.1l-0.3-1h-2.3l-0.3,1l0.5,0.1v0.9
			h-2.4V253.3z M253,251.2h1.6l-0.8-2.5h0L253,251.2z"/>
	</g>
	<g class="st3">
		<path class="st13" d="M360.6,91.2c0.3-0.2,0.6-0.3,1-0.4s0.8-0.1,1.2-0.1c0.4,0,0.7,0.1,0.9,0.2c0.2,0.1,0.4,0.2,0.5,0.4
			s0.2,0.3,0.2,0.5c0,0.2,0.1,0.4,0.1,0.6c0,0.4,0,0.9,0,1.3c0,0.4,0,0.8,0,1.2c0,0.3,0,0.5,0,0.8c0,0.2,0.1,0.5,0.1,0.7h-0.6
			l-0.2-0.8h-0.1c-0.1,0.1-0.1,0.2-0.2,0.3c-0.1,0.1-0.2,0.2-0.4,0.3c-0.1,0.1-0.3,0.1-0.5,0.2c-0.2,0.1-0.4,0.1-0.6,0.1
			c-0.2,0-0.5,0-0.7-0.1c-0.2-0.1-0.4-0.2-0.5-0.3c-0.1-0.1-0.3-0.3-0.3-0.5c-0.1-0.2-0.1-0.4-0.1-0.6c0-0.3,0.1-0.6,0.2-0.8
			c0.1-0.2,0.3-0.4,0.6-0.5c0.2-0.1,0.5-0.2,0.9-0.3c0.3-0.1,0.7-0.1,1.1-0.1c0.1,0,0.2,0,0.3,0s0.2,0,0.3,0c0-0.2,0-0.4,0-0.6
			c0-0.4-0.1-0.7-0.2-0.8c-0.2-0.2-0.5-0.2-0.9-0.2c-0.1,0-0.3,0-0.4,0c-0.1,0-0.3,0-0.4,0.1c-0.2,0-0.3,0.1-0.4,0.1
			s-0.3,0.1-0.4,0.2L360.6,91.2z M362.1,95.6c0.2,0,0.4,0,0.6-0.1c0.2-0.1,0.3-0.1,0.4-0.2c0.1-0.1,0.2-0.2,0.3-0.3s0.1-0.2,0.2-0.3
			v-0.9c-0.1,0-0.2,0-0.3,0s-0.2,0-0.3,0c-0.2,0-0.4,0-0.7,0c-0.2,0-0.4,0.1-0.6,0.1c-0.2,0.1-0.3,0.2-0.4,0.3s-0.1,0.3-0.1,0.5
			c0,0.3,0.1,0.5,0.3,0.6C361.6,95.5,361.9,95.6,362.1,95.6z"/>
		<path class="st13" d="M365.4,90.8h0.9v-1.1l0.9-0.3v1.3h1.5v0.8h-1.5v3c0,0.4,0,0.7,0.1,0.8c0.1,0.2,0.3,0.2,0.5,0.2
			c0.2,0,0.4,0,0.5-0.1s0.3-0.1,0.4-0.2l0.2,0.7c-0.2,0.1-0.4,0.2-0.6,0.2c-0.2,0.1-0.5,0.1-0.8,0.1c-0.4,0-0.8-0.1-0.9-0.4
			c-0.2-0.3-0.3-0.7-0.3-1.3v-3.2h-0.9V90.8z"/>
	</g>
	<g class="st3">
		<path class="st13" d="M369.1,90.8h0.9v-1.1l0.9-0.3v1.3h1.5v0.8h-1.5v3c0,0.4,0,0.7,0.1,0.8c0.1,0.2,0.3,0.2,0.5,0.2
			c0.2,0,0.4,0,0.5-0.1c0.1,0,0.3-0.1,0.4-0.2l0.2,0.7c-0.2,0.1-0.4,0.2-0.6,0.2c-0.2,0.1-0.5,0.1-0.8,0.1c-0.4,0-0.8-0.1-0.9-0.4
			c-0.2-0.3-0.3-0.7-0.3-1.3v-3.2h-0.9V90.8z"/>
	</g>
	<g class="st3">
		<path class="st13" d="M377.5,95.9c-0.2,0.2-0.5,0.3-0.8,0.4c-0.3,0.1-0.7,0.2-1.1,0.2c-0.4,0-0.8-0.1-1.1-0.2s-0.6-0.3-0.8-0.6
			c-0.2-0.3-0.3-0.6-0.4-0.9c-0.1-0.4-0.1-0.7-0.1-1.2c0-0.9,0.2-1.7,0.6-2.1s1-0.7,1.8-0.7c0.2,0,0.5,0,0.7,0.1
			c0.2,0.1,0.5,0.2,0.7,0.3c0.2,0.2,0.4,0.4,0.5,0.7c0.1,0.3,0.2,0.7,0.2,1.1c0,0.2,0,0.5-0.1,0.8h-3.5c0,0.3,0,0.6,0.1,0.9
			s0.2,0.5,0.3,0.6c0.1,0.2,0.3,0.3,0.5,0.4s0.5,0.1,0.8,0.1c0.2,0,0.5,0,0.7-0.1c0.2-0.1,0.4-0.2,0.6-0.3L377.5,95.9z M375.6,91.4
			c-0.4,0-0.8,0.1-1,0.3c-0.3,0.2-0.4,0.6-0.5,1.2h2.7c0-0.6-0.1-0.9-0.3-1.2C376.3,91.6,376,91.4,375.6,91.4z"/>
		<path class="st13" d="M381.5,94.8c0-0.2-0.1-0.4-0.2-0.5c-0.1-0.1-0.3-0.2-0.5-0.3c-0.2-0.1-0.4-0.2-0.6-0.2
			c-0.2-0.1-0.4-0.2-0.6-0.3c-0.2-0.1-0.4-0.3-0.5-0.5s-0.2-0.4-0.2-0.8c0-0.5,0.1-0.9,0.5-1.2c0.3-0.2,0.7-0.4,1.3-0.4
			c0.4,0,0.7,0,1,0.1s0.5,0.2,0.7,0.2l-0.2,0.7c-0.2-0.1-0.4-0.2-0.6-0.2s-0.5-0.1-0.8-0.1c-0.3,0-0.6,0.1-0.7,0.2
			c-0.2,0.1-0.2,0.3-0.2,0.6c0,0.2,0.1,0.3,0.2,0.4c0.1,0.1,0.3,0.2,0.5,0.3s0.4,0.2,0.6,0.2c0.2,0.1,0.4,0.2,0.6,0.3
			s0.4,0.3,0.5,0.5c0.1,0.2,0.2,0.5,0.2,0.8c0,0.2,0,0.5-0.1,0.7s-0.2,0.4-0.4,0.5s-0.4,0.3-0.6,0.3c-0.2,0.1-0.5,0.1-0.8,0.1
			c-0.4,0-0.8,0-1.1-0.1c-0.3-0.1-0.5-0.2-0.7-0.3l0.3-0.7c0.2,0.1,0.4,0.2,0.7,0.3s0.5,0.1,0.8,0.1c0.3,0,0.6-0.1,0.8-0.2
			C381.4,95.4,381.5,95.1,381.5,94.8z"/>
		<path class="st13" d="M383,90.8h0.9v-1.1l0.9-0.3v1.3h1.5v0.8h-1.5v3c0,0.4,0,0.7,0.1,0.8c0.1,0.2,0.3,0.2,0.5,0.2
			c0.2,0,0.4,0,0.5-0.1s0.3-0.1,0.4-0.2l0.2,0.7c-0.2,0.1-0.4,0.2-0.6,0.2c-0.2,0.1-0.5,0.1-0.8,0.1c-0.4,0-0.8-0.1-0.9-0.4
			c-0.2-0.3-0.3-0.7-0.3-1.3v-3.2H383V90.8z"/>
		<path class="st13" d="M387.3,91.2c0.3-0.2,0.6-0.3,1-0.4s0.8-0.1,1.2-0.1c0.4,0,0.7,0.1,0.9,0.2c0.2,0.1,0.4,0.2,0.5,0.4
			s0.2,0.3,0.2,0.5c0,0.2,0.1,0.4,0.1,0.6c0,0.4,0,0.9,0,1.3c0,0.4,0,0.8,0,1.2c0,0.3,0,0.5,0,0.8c0,0.2,0.1,0.5,0.1,0.7h-0.6
			l-0.2-0.8h-0.1c-0.1,0.1-0.1,0.2-0.2,0.3c-0.1,0.1-0.2,0.2-0.4,0.3c-0.1,0.1-0.3,0.1-0.5,0.2c-0.2,0.1-0.4,0.1-0.6,0.1
			s-0.5,0-0.7-0.1c-0.2-0.1-0.4-0.2-0.5-0.3c-0.1-0.1-0.3-0.3-0.3-0.5c-0.1-0.2-0.1-0.4-0.1-0.6c0-0.3,0.1-0.6,0.2-0.8
			c0.1-0.2,0.3-0.4,0.6-0.5c0.2-0.1,0.5-0.2,0.9-0.3c0.3-0.1,0.7-0.1,1.1-0.1c0.1,0,0.2,0,0.3,0c0.1,0,0.2,0,0.3,0
			c0-0.2,0-0.4,0-0.6c0-0.4-0.1-0.7-0.2-0.8s-0.5-0.2-0.9-0.2c-0.1,0-0.3,0-0.4,0c-0.1,0-0.3,0-0.4,0.1c-0.2,0-0.3,0.1-0.4,0.1
			s-0.3,0.1-0.4,0.2L387.3,91.2z M388.9,95.6c0.2,0,0.4,0,0.5-0.1s0.3-0.1,0.4-0.2c0.1-0.1,0.2-0.2,0.3-0.3s0.1-0.2,0.2-0.3v-0.9
			c-0.1,0-0.2,0-0.3,0s-0.2,0-0.3,0c-0.2,0-0.4,0-0.7,0c-0.2,0-0.4,0.1-0.6,0.1c-0.2,0.1-0.3,0.2-0.4,0.3c-0.1,0.1-0.1,0.3-0.1,0.5
			c0,0.3,0.1,0.5,0.3,0.6S388.6,95.6,388.9,95.6z"/>
		<path class="st13" d="M392.1,90.8h0.9v-1.1l0.9-0.3v1.3h1.5v0.8h-1.5v3c0,0.4,0,0.7,0.1,0.8c0.1,0.2,0.3,0.2,0.5,0.2
			c0.2,0,0.4,0,0.5-0.1c0.1,0,0.3-0.1,0.4-0.2l0.2,0.7c-0.2,0.1-0.4,0.2-0.6,0.2c-0.2,0.1-0.5,0.1-0.8,0.1c-0.4,0-0.8-0.1-0.9-0.4
			c-0.2-0.3-0.3-0.7-0.3-1.3v-3.2h-0.9V90.8z"/>
		<path class="st13" d="M396.6,89.1c0-0.2,0.1-0.3,0.2-0.4c0.1-0.1,0.3-0.2,0.4-0.2s0.3,0.1,0.5,0.2s0.2,0.3,0.2,0.4
			s-0.1,0.3-0.2,0.4s-0.3,0.2-0.5,0.2s-0.3-0.1-0.4-0.2C396.6,89.4,396.6,89.3,396.6,89.1z M396.8,90.8h0.9v5.5h-0.9V90.8z"/>
		<path class="st13" d="M399.2,93.6c0-0.9,0.2-1.6,0.6-2.1c0.4-0.5,1-0.7,1.8-0.7c0.4,0,0.8,0.1,1.1,0.2c0.3,0.1,0.6,0.3,0.8,0.6
			s0.3,0.6,0.4,0.9c0.1,0.4,0.1,0.8,0.1,1.2c0,0.9-0.2,1.6-0.6,2.1c-0.4,0.5-1,0.7-1.8,0.7c-0.4,0-0.8-0.1-1.1-0.2
			c-0.3-0.1-0.6-0.3-0.8-0.6s-0.3-0.6-0.4-0.9C399.3,94.4,399.2,94,399.2,93.6z M400.1,93.6c0,0.3,0,0.5,0.1,0.8
			c0.1,0.3,0.1,0.5,0.3,0.7c0.1,0.2,0.3,0.3,0.5,0.5c0.2,0.1,0.4,0.2,0.7,0.2c1,0,1.5-0.7,1.5-2.1c0-0.3,0-0.6-0.1-0.8
			c-0.1-0.3-0.1-0.5-0.3-0.7c-0.1-0.2-0.3-0.3-0.5-0.5c-0.2-0.1-0.4-0.2-0.7-0.2C400.6,91.4,400.1,92.1,400.1,93.6z"/>
		<path class="st13" d="M409,96.3v-3.1c0-0.6-0.1-1-0.2-1.3c-0.2-0.3-0.5-0.4-0.9-0.4c-0.4,0-0.7,0.1-1,0.3s-0.4,0.5-0.5,0.8v3.8
			h-0.9v-5.5h0.6l0.2,0.7h0c0.2-0.2,0.4-0.4,0.7-0.6s0.7-0.2,1.1-0.2c0.3,0,0.6,0,0.8,0.1s0.4,0.2,0.6,0.4s0.3,0.4,0.3,0.7
			s0.1,0.7,0.1,1.1v3.3H409z"/>
	</g>
	<g class="st3">
		<path class="st13" d="M361.1,107.5c0-0.3,0.1-0.6,0.2-0.8c0.1-0.3,0.2-0.5,0.4-0.7c0.2-0.2,0.4-0.4,0.6-0.6
			c0.2-0.2,0.5-0.4,0.7-0.5c-0.2-0.3-0.3-0.5-0.5-0.8c-0.1-0.3-0.2-0.5-0.2-0.9c0-0.2,0-0.3,0.1-0.5c0.1-0.2,0.2-0.3,0.3-0.5
			c0.1-0.1,0.3-0.2,0.5-0.3c0.2-0.1,0.4-0.1,0.7-0.1c0.3,0,0.6,0,0.8,0.1c0.2,0.1,0.4,0.2,0.5,0.3c0.1,0.1,0.2,0.3,0.3,0.4
			c0.1,0.2,0.1,0.3,0.1,0.5c0,0.3-0.1,0.6-0.4,1s-0.6,0.6-1.1,0.9c0.1,0.2,0.3,0.4,0.4,0.7c0.2,0.2,0.3,0.4,0.5,0.7
			c0.2,0.2,0.4,0.4,0.5,0.7c0.2,0.2,0.4,0.4,0.5,0.6c0.1-0.1,0.2-0.2,0.2-0.3c0.1-0.1,0.2-0.3,0.2-0.4c0.1-0.2,0.1-0.3,0.2-0.5
			c0.1-0.2,0.1-0.3,0.2-0.5l0.7,0.3c0,0.1-0.1,0.3-0.2,0.4c-0.1,0.2-0.2,0.3-0.3,0.5c-0.1,0.2-0.2,0.4-0.3,0.5s-0.2,0.3-0.3,0.4
			c0.2,0.1,0.3,0.3,0.4,0.4c0.1,0.1,0.2,0.2,0.3,0.3c0.1,0.1,0.2,0.1,0.3,0.2c0.1,0.1,0.2,0.1,0.3,0.2l-0.5,0.6
			c-0.4-0.2-0.8-0.5-1.3-1c-0.1,0.1-0.3,0.3-0.4,0.4c-0.2,0.1-0.3,0.2-0.5,0.3c-0.2,0.1-0.4,0.2-0.7,0.2s-0.5,0.1-0.8,0.1
			c-0.3,0-0.7,0-1-0.1c-0.3-0.1-0.6-0.2-0.8-0.4c-0.2-0.2-0.4-0.4-0.5-0.7S361.1,107.8,361.1,107.5z M365.5,108.1
			c-0.2-0.2-0.4-0.4-0.6-0.7c-0.2-0.2-0.4-0.5-0.6-0.7c-0.2-0.2-0.4-0.5-0.5-0.7c-0.2-0.2-0.3-0.4-0.4-0.6c-0.2,0.1-0.4,0.3-0.6,0.5
			c-0.2,0.2-0.3,0.3-0.4,0.5s-0.2,0.4-0.3,0.6s-0.1,0.4-0.1,0.6s0,0.4,0.1,0.6c0.1,0.2,0.2,0.3,0.4,0.5s0.4,0.2,0.6,0.3
			c0.2,0.1,0.4,0.1,0.7,0.1c0.2,0,0.4,0,0.5-0.1c0.2,0,0.3-0.1,0.5-0.2s0.3-0.2,0.4-0.3C365.3,108.3,365.4,108.2,365.5,108.1z
			 M363.2,103.1c0,0.2,0,0.4,0.1,0.7c0.1,0.2,0.2,0.4,0.4,0.6c0.4-0.2,0.7-0.5,0.8-0.7c0.1-0.2,0.2-0.4,0.2-0.5
			c0-0.2-0.1-0.4-0.2-0.6c-0.1-0.1-0.3-0.2-0.6-0.2c-0.3,0-0.5,0.1-0.6,0.2C363.3,102.7,363.2,102.9,363.2,103.1z"/>
	</g>
	<g class="st3">
		<path class="st13" d="M376.3,109.1c-0.2,0.2-0.5,0.3-0.8,0.4c-0.3,0.1-0.6,0.1-0.9,0.1c-0.4,0-0.8-0.1-1.1-0.2s-0.5-0.3-0.7-0.6
			s-0.3-0.6-0.4-0.9s-0.1-0.8-0.1-1.2c0-0.9,0.2-1.6,0.6-2.1c0.4-0.5,1-0.7,1.8-0.7c0.4,0,0.7,0,0.9,0.1c0.2,0.1,0.5,0.1,0.7,0.2
			l-0.3,0.8c-0.2-0.1-0.4-0.2-0.6-0.2c-0.2-0.1-0.4-0.1-0.7-0.1c-1,0-1.6,0.7-1.6,2.1c0,0.3,0,0.5,0.1,0.8s0.1,0.5,0.3,0.7
			c0.1,0.2,0.3,0.3,0.5,0.5c0.2,0.1,0.5,0.2,0.8,0.2c0.3,0,0.5,0,0.7-0.1s0.4-0.2,0.5-0.3L376.3,109.1z"/>
	</g>
	<g class="st3">
		<path class="st13" d="M377,106.8c0-0.9,0.2-1.6,0.6-2.1c0.4-0.5,1-0.7,1.8-0.7c0.4,0,0.8,0.1,1.1,0.2c0.3,0.1,0.6,0.3,0.8,0.6
			s0.3,0.6,0.4,0.9c0.1,0.4,0.1,0.8,0.1,1.2c0,0.9-0.2,1.6-0.6,2.1c-0.4,0.5-1,0.7-1.8,0.7c-0.4,0-0.8-0.1-1.1-0.2
			c-0.3-0.1-0.6-0.3-0.8-0.6s-0.3-0.6-0.4-0.9C377,107.6,377,107.2,377,106.8z M377.9,106.8c0,0.3,0,0.5,0.1,0.8
			c0.1,0.3,0.1,0.5,0.3,0.7c0.1,0.2,0.3,0.3,0.5,0.5c0.2,0.1,0.4,0.2,0.7,0.2c1,0,1.5-0.7,1.5-2.1c0-0.3,0-0.6-0.1-0.8
			c-0.1-0.3-0.1-0.5-0.3-0.7c-0.1-0.2-0.3-0.3-0.5-0.5c-0.2-0.1-0.4-0.2-0.7-0.2C378.4,104.6,377.9,105.3,377.9,106.8z"/>
		<path class="st13" d="M386.7,109.5v-3.1c0-0.6-0.1-1-0.2-1.3c-0.2-0.3-0.5-0.4-0.9-0.4c-0.4,0-0.7,0.1-1,0.3
			c-0.3,0.2-0.4,0.5-0.5,0.8v3.8h-0.9V104h0.6l0.2,0.7h0c0.2-0.2,0.4-0.4,0.7-0.6c0.3-0.2,0.7-0.2,1.1-0.2c0.3,0,0.6,0,0.8,0.1
			c0.2,0.1,0.4,0.2,0.6,0.4s0.3,0.4,0.3,0.7s0.1,0.7,0.1,1.1v3.3H386.7z"/>
		<path class="st13" d="M393.4,104v5.5h-0.9v-4.7h-2.2v4.7h-0.9v-4.7h-0.9V104h0.9v-0.3c0-0.7,0.2-1.2,0.5-1.5
			c0.3-0.3,0.8-0.5,1.5-0.5c0.4,0,0.8,0,1.2,0.1c0.3,0.1,0.6,0.2,0.8,0.3l-0.3,0.7c-0.2-0.1-0.4-0.2-0.7-0.3
			c-0.3-0.1-0.6-0.1-0.9-0.1c-0.3,0-0.5,0-0.6,0.1c-0.2,0.1-0.3,0.2-0.4,0.3c-0.1,0.1-0.1,0.3-0.2,0.5c0,0.2,0,0.4,0,0.6H393.4z"/>
		<path class="st13" d="M399.3,109.8c0,0.7-0.2,1.2-0.6,1.6c-0.4,0.3-0.9,0.5-1.7,0.5c-0.4,0-0.8,0-1.1-0.1
			c-0.3-0.1-0.5-0.1-0.7-0.2l0.2-0.7c0.2,0.1,0.4,0.1,0.6,0.2c0.2,0.1,0.5,0.1,0.8,0.1c0.3,0,0.6,0,0.8-0.1s0.4-0.1,0.5-0.3
			c0.1-0.1,0.2-0.3,0.2-0.5c0-0.2,0.1-0.4,0.1-0.7V109h0c-0.1,0.2-0.3,0.4-0.6,0.5c-0.2,0.1-0.5,0.2-0.9,0.2c-0.7,0-1.3-0.2-1.6-0.7
			c-0.3-0.5-0.5-1.2-0.5-2.2c0-0.9,0.2-1.7,0.7-2.1c0.4-0.5,1.1-0.7,2-0.7c0.4,0,0.8,0,1.1,0.1c0.3,0.1,0.6,0.1,0.8,0.2V109.8z
			 M397.1,108.9c0.4,0,0.7-0.1,0.9-0.3c0.2-0.2,0.4-0.5,0.5-0.9v-2.8c-0.3-0.1-0.7-0.2-1.1-0.2c-0.5,0-0.9,0.2-1.2,0.5
			c-0.3,0.3-0.4,0.9-0.4,1.6c0,0.3,0,0.6,0.1,0.8c0.1,0.3,0.1,0.5,0.2,0.7c0.1,0.2,0.3,0.3,0.4,0.4
			C396.6,108.8,396.9,108.9,397.1,108.9z"/>
		<path class="st13" d="M401.8,104v3.1c0,0.3,0,0.5,0,0.8c0,0.2,0.1,0.4,0.2,0.5c0.1,0.1,0.2,0.3,0.3,0.3c0.1,0.1,0.3,0.1,0.5,0.1
			c0.2,0,0.4,0,0.5-0.1s0.3-0.1,0.4-0.3c0.1-0.1,0.2-0.2,0.3-0.4c0.1-0.1,0.2-0.3,0.2-0.5V104h0.9v3.9c0,0.3,0,0.5,0,0.8
			c0,0.3,0,0.5,0.1,0.7h-0.6l-0.2-0.9h-0.1c-0.2,0.3-0.4,0.5-0.7,0.7c-0.3,0.2-0.6,0.3-1.1,0.3c-0.3,0-0.6,0-0.8-0.1
			s-0.4-0.2-0.6-0.4s-0.3-0.4-0.3-0.7s-0.1-0.7-0.1-1.1V104H401.8z"/>
		<path class="st13" d="M409.6,104.9c-0.2-0.1-0.4-0.1-0.6-0.1c-0.3,0-0.6,0.1-0.7,0.3c-0.2,0.2-0.3,0.4-0.3,0.7v3.8H407V104h0.6
			l0.2,0.7h0c0.1-0.2,0.3-0.4,0.5-0.6s0.4-0.2,0.7-0.2c0.2,0,0.5,0,0.7,0.1L409.6,104.9z"/>
		<path class="st13" d="M410.6,104.4c0.3-0.2,0.6-0.3,1-0.4s0.8-0.1,1.2-0.1c0.4,0,0.7,0.1,0.9,0.2c0.2,0.1,0.4,0.2,0.5,0.4
			s0.2,0.3,0.2,0.5c0,0.2,0.1,0.4,0.1,0.6c0,0.4,0,0.9,0,1.3c0,0.4,0,0.8,0,1.2c0,0.3,0,0.5,0,0.8c0,0.2,0.1,0.5,0.1,0.7h-0.6
			l-0.2-0.8h-0.1c-0.1,0.1-0.1,0.2-0.2,0.3c-0.1,0.1-0.2,0.2-0.4,0.3c-0.1,0.1-0.3,0.1-0.5,0.2c-0.2,0.1-0.4,0.1-0.6,0.1
			s-0.5,0-0.7-0.1c-0.2-0.1-0.4-0.2-0.5-0.3c-0.1-0.1-0.3-0.3-0.3-0.5c-0.1-0.2-0.1-0.4-0.1-0.6c0-0.3,0.1-0.6,0.2-0.8
			c0.1-0.2,0.3-0.4,0.6-0.5c0.2-0.1,0.5-0.2,0.9-0.3c0.3-0.1,0.7-0.1,1.1-0.1c0.1,0,0.2,0,0.3,0c0.1,0,0.2,0,0.3,0
			c0-0.2,0-0.4,0-0.6c0-0.4-0.1-0.7-0.2-0.8s-0.5-0.2-0.9-0.2c-0.1,0-0.3,0-0.4,0c-0.1,0-0.3,0-0.4,0.1c-0.2,0-0.3,0.1-0.4,0.1
			s-0.3,0.1-0.4,0.2L410.6,104.4z M412.2,108.8c0.2,0,0.4,0,0.5-0.1s0.3-0.1,0.4-0.2c0.1-0.1,0.2-0.2,0.3-0.3s0.1-0.2,0.2-0.3V107
			c-0.1,0-0.2,0-0.3,0s-0.2,0-0.3,0c-0.2,0-0.4,0-0.7,0c-0.2,0-0.4,0.1-0.6,0.1c-0.2,0.1-0.3,0.2-0.4,0.3c-0.1,0.1-0.1,0.3-0.1,0.5
			c0,0.3,0.1,0.5,0.3,0.6S411.9,108.8,412.2,108.8z"/>
		<path class="st13" d="M415.4,104h0.9v-1.1l0.9-0.3v1.3h1.5v0.8h-1.5v3c0,0.4,0,0.7,0.1,0.8c0.1,0.2,0.3,0.2,0.5,0.2
			c0.2,0,0.4,0,0.5-0.1s0.3-0.1,0.4-0.2l0.2,0.7c-0.2,0.1-0.4,0.2-0.6,0.2c-0.2,0.1-0.5,0.1-0.8,0.1c-0.4,0-0.8-0.1-0.9-0.4
			c-0.2-0.3-0.3-0.7-0.3-1.3v-3.2h-0.9V104z"/>
		<path class="st13" d="M419.9,102.3c0-0.2,0.1-0.3,0.2-0.4c0.1-0.1,0.3-0.2,0.4-0.2s0.3,0.1,0.5,0.2s0.2,0.3,0.2,0.4
			s-0.1,0.3-0.2,0.4s-0.3,0.2-0.5,0.2s-0.3-0.1-0.4-0.2C419.9,102.6,419.9,102.5,419.9,102.3z M420.1,104h0.9v5.5h-0.9V104z"/>
		<path class="st13" d="M422.5,106.8c0-0.9,0.2-1.6,0.6-2.1s1-0.7,1.8-0.7c0.4,0,0.8,0.1,1.1,0.2c0.3,0.1,0.6,0.3,0.8,0.6
			c0.2,0.3,0.3,0.6,0.4,0.9c0.1,0.4,0.1,0.8,0.1,1.2c0,0.9-0.2,1.6-0.6,2.1s-1,0.7-1.8,0.7c-0.4,0-0.8-0.1-1.1-0.2
			c-0.3-0.1-0.6-0.3-0.8-0.6c-0.2-0.3-0.3-0.6-0.4-0.9S422.5,107.2,422.5,106.8z M423.4,106.8c0,0.3,0,0.5,0.1,0.8
			c0.1,0.3,0.1,0.5,0.3,0.7c0.1,0.2,0.3,0.3,0.5,0.5c0.2,0.1,0.4,0.2,0.7,0.2c1,0,1.5-0.7,1.5-2.1c0-0.3,0-0.6-0.1-0.8
			c-0.1-0.3-0.1-0.5-0.3-0.7c-0.1-0.2-0.3-0.3-0.5-0.5s-0.4-0.2-0.7-0.2C423.9,104.6,423.4,105.3,423.4,106.8z"/>
		<path class="st13" d="M432.3,109.5v-3.1c0-0.6-0.1-1-0.2-1.3c-0.2-0.3-0.5-0.4-0.9-0.4c-0.4,0-0.7,0.1-1,0.3s-0.4,0.5-0.5,0.8v3.8
			h-0.9V104h0.6l0.2,0.7h0c0.2-0.2,0.4-0.4,0.7-0.6s0.7-0.2,1.1-0.2c0.3,0,0.6,0,0.8,0.1s0.4,0.2,0.6,0.4s0.3,0.4,0.3,0.7
			s0.1,0.7,0.1,1.1v3.3H432.3z"/>
	</g>
	<line class="st2" x1="337.4" y1="72.9" x2="337.4" y2="139.1"/>
	<polygon class="st4" points="331.7,77.5 332.7,78.5 337.4,73.4 342.1,78.5 343.2,77.5 337.4,71.4 	"/>
	<polygon class="st4" points="331.7,134.5 332.7,133.6 337.4,138.6 342.1,133.6 343.2,134.5 337.4,140.7 	"/>
	<path class="st7" d="M329.4,92.2c4.6-4.5,12.1-4.5,16.6,0.2c4.5,4.6,4.5,12.1-0.2,16.6c-4.6,4.5-12.1,4.5-16.6-0.2
		c-2.1-2.2-3.3-5.1-3.4-8.2c0-2.6,0.8-5.1,2.4-7.1"/>
	<path class="st8" d="M337.3,106.3h-4.2c-0.6,0-0.8-0.2-0.8-0.8V99c0-0.6,0.2-0.8,0.8-0.8h8.5c0.5,0,0.8,0.2,0.8,0.8v6.5
		c0,0.5-0.2,0.8-0.8,0.8C340.1,106.3,338.7,106.3,337.3,106.3z"/>
	<path class="st8" d="M333,97.6c0-1.8,1-3.4,2.6-4.1c2.1-0.9,4.6,0,5.5,2.2c0.1,0.2,0.2,0.5,0.2,0.7c0.1,0.4,0.1,0.8,0.2,1.2"/>
	<path class="st4" d="M336.6,103.5L336.6,103.5v0.9c0,0.2,0.1,0.2,0.3,0.2h0.8c0.2,0,0.3-0.1,0.3-0.3v-1.6c0-0.2,0.1-0.3,0.2-0.4
		c0.5-0.3,0.8-0.9,0.6-1.4c-0.2-0.6-0.8-1-1.5-1c-0.7-0.1-1.3,0.3-1.6,0.9c-0.2,0.6,0,1.2,0.5,1.5c0.2,0.1,0.3,0.3,0.3,0.5
		C336.6,103,336.6,103.3,336.6,103.5z"/>
	<path class="st8" d="M292.4,183.9h89.3c2.8,0,5,2.2,5,5v17.2c0,2.8-2.2,5-5,5h-89.3c-2.8,0-5-2.2-5-5v-17.2
		C287.4,186.1,289.6,183.9,292.4,183.9z"/>
</g>
<g id="schrift">
	<line class="st14" x1="184.1" y1="198.1" x2="268.1" y2="198.1"/>
	<polygon class="st4" points="263.4,203.8 262.5,202.8 267.5,198.1 262.5,193.4 263.4,192.3 269.6,198.1 	"/>
	<g class="st3">
		<path class="st4" d="M190.4,188.2c0.4,0,0.7-0.1,0.9-0.3c0.3-0.2,0.4-0.5,0.4-0.8h1l0,0c0,0.5-0.2,0.9-0.7,1.3
			c-0.5,0.4-1,0.6-1.6,0.6c-0.8,0-1.5-0.3-1.9-0.8c-0.4-0.6-0.7-1.2-0.7-2.1v-0.2c0-0.8,0.2-1.5,0.7-2.1c0.4-0.6,1.1-0.8,1.9-0.8
			c0.5,0,0.9,0.1,1.3,0.2c0.4,0.2,0.7,0.4,0.9,0.6l0,1.3h-0.8l-0.2-0.9c-0.1-0.1-0.3-0.2-0.5-0.3s-0.4-0.1-0.7-0.1
			c-0.6,0-1,0.2-1.2,0.6c-0.2,0.4-0.4,0.9-0.4,1.5v0.2c0,0.6,0.1,1.1,0.4,1.5S189.9,188.2,190.4,188.2z"/>
	</g>
	<g class="st3">
		<path class="st4" d="M193.7,183.8v-0.7h1.8l0.1,0.8c0.2-0.3,0.4-0.5,0.6-0.7c0.2-0.2,0.5-0.3,0.8-0.3c0.1,0,0.2,0,0.3,0
			s0.2,0,0.2,0l-0.1,1l-0.6,0c-0.3,0-0.5,0.1-0.7,0.2c-0.2,0.1-0.3,0.3-0.4,0.6v3.3l0.9,0.2v0.7h-2.8v-0.7l0.9-0.2V184L193.7,183.8z
			"/>
	</g>
	<g class="st3">
		<path class="st4" d="M198.2,186c0-0.9,0.2-1.6,0.7-2.1s1.1-0.8,1.9-0.8c0.8,0,1.4,0.3,1.9,0.8c0.5,0.6,0.7,1.3,0.7,2.1v0.1
			c0,0.9-0.2,1.6-0.7,2.1c-0.5,0.6-1.1,0.8-1.9,0.8c-0.8,0-1.4-0.3-1.9-0.8c-0.5-0.6-0.7-1.3-0.7-2.1V186z M199.2,186.1
			c0,0.6,0.1,1.1,0.4,1.5c0.3,0.4,0.6,0.6,1.2,0.6c0.5,0,0.9-0.2,1.1-0.6c0.3-0.4,0.4-0.9,0.4-1.5V186c0-0.6-0.1-1.1-0.4-1.5
			s-0.6-0.6-1.2-0.6s-0.9,0.2-1.1,0.6s-0.4,0.9-0.4,1.5V186.1z"/>
		<path class="st4" d="M208.8,184.9H208l-0.2-0.7c-0.1-0.1-0.3-0.2-0.5-0.3c-0.2-0.1-0.4-0.1-0.7-0.1c-0.4,0-0.7,0.1-0.8,0.2
			c-0.2,0.2-0.3,0.4-0.3,0.6c0,0.2,0.1,0.4,0.2,0.5c0.2,0.1,0.5,0.3,1,0.4c0.7,0.2,1.3,0.4,1.6,0.6s0.5,0.6,0.5,1.1
			c0,0.5-0.2,0.9-0.6,1.3c-0.4,0.3-1,0.5-1.6,0.5c-0.4,0-0.8-0.1-1.2-0.2c-0.4-0.1-0.7-0.3-0.9-0.4l0-1.3h0.8l0.2,0.8
			c0.1,0.1,0.3,0.2,0.5,0.2c0.2,0,0.4,0.1,0.6,0.1c0.4,0,0.7-0.1,0.9-0.2c0.2-0.2,0.3-0.4,0.3-0.6c0-0.2-0.1-0.4-0.3-0.6
			c-0.2-0.2-0.5-0.3-1-0.4c-0.7-0.2-1.2-0.4-1.6-0.6s-0.5-0.6-0.5-1.1c0-0.5,0.2-0.9,0.6-1.2c0.4-0.3,0.9-0.5,1.6-0.5
			c0.4,0,0.8,0.1,1.2,0.2s0.6,0.3,0.9,0.5L208.8,184.9z"/>
		<path class="st4" d="M214.4,184.9h-0.8l-0.2-0.7c-0.1-0.1-0.3-0.2-0.5-0.3c-0.2-0.1-0.4-0.1-0.7-0.1c-0.4,0-0.7,0.1-0.8,0.2
			c-0.2,0.2-0.3,0.4-0.3,0.6c0,0.2,0.1,0.4,0.2,0.5c0.2,0.1,0.5,0.3,1,0.4c0.7,0.2,1.3,0.4,1.6,0.6s0.5,0.6,0.5,1.1
			c0,0.5-0.2,0.9-0.6,1.3c-0.4,0.3-1,0.5-1.6,0.5c-0.4,0-0.8-0.1-1.2-0.2c-0.4-0.1-0.7-0.3-0.9-0.4l0-1.3h0.8l0.2,0.8
			c0.1,0.1,0.3,0.2,0.5,0.2c0.2,0,0.4,0.1,0.6,0.1c0.4,0,0.7-0.1,0.9-0.2c0.2-0.2,0.3-0.4,0.3-0.6c0-0.2-0.1-0.4-0.3-0.6
			c-0.2-0.2-0.5-0.3-1-0.4c-0.7-0.2-1.2-0.4-1.6-0.6s-0.5-0.6-0.5-1.1c0-0.5,0.2-0.9,0.6-1.2c0.4-0.3,0.9-0.5,1.6-0.5
			c0.4,0,0.8,0.1,1.2,0.2s0.6,0.3,0.9,0.5L214.4,184.9z"/>
		<path class="st4" d="M218.5,186h-2.6v-0.8h2.6V186z"/>
		<path class="st4" d="M222.5,188.2c0.4,0,0.7-0.1,0.9-0.3c0.3-0.2,0.4-0.5,0.4-0.8h1l0,0c0,0.5-0.2,0.9-0.7,1.3
			c-0.5,0.4-1,0.6-1.6,0.6c-0.8,0-1.5-0.3-1.9-0.8c-0.4-0.6-0.7-1.2-0.7-2.1v-0.2c0-0.8,0.2-1.5,0.7-2.1c0.4-0.6,1.1-0.8,1.9-0.8
			c0.5,0,0.9,0.1,1.3,0.2c0.4,0.2,0.7,0.4,0.9,0.6l0,1.3h-0.8l-0.2-0.9c-0.1-0.1-0.3-0.2-0.5-0.3s-0.4-0.1-0.7-0.1
			c-0.6,0-1,0.2-1.2,0.6c-0.2,0.4-0.4,0.9-0.4,1.5v0.2c0,0.6,0.1,1.1,0.4,1.5S221.9,188.2,222.5,188.2z"/>
		<path class="st4" d="M225.8,186c0-0.9,0.2-1.6,0.7-2.1s1.1-0.8,1.9-0.8c0.8,0,1.4,0.3,1.9,0.8c0.5,0.6,0.7,1.3,0.7,2.1v0.1
			c0,0.9-0.2,1.6-0.7,2.1c-0.5,0.6-1.1,0.8-1.9,0.8c-0.8,0-1.4-0.3-1.9-0.8c-0.5-0.6-0.7-1.3-0.7-2.1V186z M226.8,186.1
			c0,0.6,0.1,1.1,0.4,1.5c0.3,0.4,0.6,0.6,1.2,0.6c0.5,0,0.9-0.2,1.1-0.6c0.3-0.4,0.4-0.9,0.4-1.5V186c0-0.6-0.1-1.1-0.4-1.5
			c-0.3-0.4-0.6-0.6-1.2-0.6c-0.5,0-0.9,0.2-1.1,0.6c-0.3,0.4-0.4,0.9-0.4,1.5V186.1z"/>
		<path class="st4" d="M231.7,188.3l0.9-0.2V184l-0.9-0.2v-0.7h1.8l0.1,0.8c0.2-0.3,0.4-0.5,0.7-0.6c0.3-0.2,0.6-0.2,1-0.2
			s0.7,0.1,1,0.3s0.5,0.4,0.6,0.8c0.2-0.3,0.4-0.6,0.7-0.8s0.7-0.3,1.1-0.3c0.6,0,1.1,0.2,1.4,0.6s0.5,1,0.5,1.8v2.6l0.9,0.2v0.7
			h-2.8v-0.7l0.9-0.2v-2.7c0-0.6-0.1-1-0.3-1.2c-0.2-0.2-0.5-0.4-0.9-0.4c-0.4,0-0.7,0.1-0.9,0.4s-0.4,0.6-0.4,1v2.9l0.9,0.2v0.7
			h-2.8v-0.7l0.9-0.2v-2.7c0-0.5-0.1-0.9-0.3-1.2c-0.2-0.3-0.5-0.4-0.9-0.4c-0.3,0-0.6,0.1-0.8,0.2c-0.2,0.1-0.4,0.3-0.5,0.6v3.5
			l0.9,0.2v0.7h-2.8V188.3z"/>
		<path class="st4" d="M242.2,190.5l0.9-0.2V184l-0.9-0.2v-0.7h1.8l0.1,0.7c0.2-0.3,0.4-0.5,0.7-0.6c0.3-0.1,0.6-0.2,1-0.2
			c0.7,0,1.3,0.3,1.7,0.9c0.4,0.6,0.6,1.3,0.6,2.3v0.1c0,0.8-0.2,1.5-0.6,2c-0.4,0.5-1,0.8-1.7,0.8c-0.4,0-0.7-0.1-0.9-0.2
			s-0.5-0.3-0.7-0.5v2l0.9,0.2v0.7h-2.8V190.5z M247,186.1c0-0.7-0.1-1.2-0.4-1.6s-0.6-0.6-1.1-0.6c-0.3,0-0.6,0.1-0.8,0.2
			s-0.4,0.3-0.5,0.6v2.8c0.1,0.2,0.3,0.4,0.5,0.6s0.5,0.2,0.8,0.2c0.5,0,0.9-0.2,1.1-0.5s0.4-0.8,0.4-1.4V186.1z"/>
		<path class="st4" d="M249,188.3l0.9-0.2V184l-0.9-0.2v-0.7h1.9v5l0.9,0.2v0.7H249V188.3z M250.9,181.6h-1.1v-1.1h1.1V181.6z"/>
		<path class="st4" d="M252.5,181.2v-0.7h1.9v7.6l0.9,0.2v0.7h-2.8v-0.7l0.9-0.2v-6.7L252.5,181.2z"/>
		<path class="st4" d="M258.7,189c-0.8,0-1.5-0.3-1.9-0.8c-0.5-0.5-0.7-1.2-0.7-2.1v-0.2c0-0.8,0.2-1.5,0.7-2.1s1.1-0.8,1.7-0.8
			c0.8,0,1.4,0.2,1.8,0.7c0.4,0.5,0.6,1.1,0.6,1.9v0.7h-3.8l0,0c0,0.6,0.2,1,0.4,1.4c0.3,0.4,0.7,0.5,1.1,0.5c0.4,0,0.7-0.1,0.9-0.2
			c0.3-0.1,0.5-0.2,0.7-0.4l0.4,0.7c-0.2,0.2-0.5,0.4-0.8,0.5C259.6,189,259.2,189,258.7,189z M258.6,183.8c-0.4,0-0.7,0.1-0.9,0.4
			c-0.3,0.3-0.4,0.7-0.5,1.1l0,0h2.7v-0.1c0-0.4-0.1-0.8-0.3-1C259.3,184,259,183.8,258.6,183.8z"/>
	</g>
	<g class="st3">
		<path class="st15" d="M92,166.8c-0.2,0.3-0.4,0.5-0.6,0.7s-0.6,0.2-0.9,0.2c-0.6,0-1-0.2-1.3-0.6s-0.5-0.9-0.5-1.7v-2.4l-0.6-0.1
			v-0.6h0.6h1v3.1c0,0.6,0.1,1,0.2,1.2s0.4,0.3,0.8,0.3c0.3,0,0.6-0.1,0.8-0.2c0.2-0.1,0.4-0.3,0.5-0.6v-3.1l-0.7-0.1v-0.6H92h1v4.5
			l0.6,0.1v0.6h-1.5L92,166.8z"/>
		<path class="st15" d="M94.2,167l0.8-0.1v-3.8l-0.8-0.1v-0.6h1.7l0.1,0.8c0.2-0.3,0.4-0.5,0.7-0.7c0.3-0.2,0.6-0.2,0.9-0.2
			c0.6,0,1,0.2,1.3,0.5c0.3,0.3,0.5,0.8,0.5,1.5v2.6l0.8,0.1v0.6h-2.6V167l0.8-0.1v-2.6c0-0.5-0.1-0.8-0.3-1s-0.5-0.3-0.8-0.3
			c-0.3,0-0.5,0.1-0.7,0.2s-0.4,0.3-0.5,0.5v3.1l0.8,0.1v0.6h-2.6V167z"/>
	</g>
	<g class="st3">
		<path class="st15" d="M100.6,167l0.8-0.1v-3.8l-0.8-0.1v-0.6h1.7l0.1,0.7c0.2-0.3,0.4-0.4,0.7-0.6s0.6-0.2,0.9-0.2
			s0.7,0.1,0.9,0.2s0.4,0.4,0.6,0.7c0.2-0.3,0.4-0.5,0.7-0.7s0.6-0.3,1-0.3c0.5,0,1,0.2,1.3,0.6c0.3,0.4,0.5,0.9,0.5,1.7v2.4
			l0.8,0.1v0.6H107V167l0.8-0.1v-2.4c0-0.5-0.1-0.9-0.3-1.1c-0.2-0.2-0.4-0.3-0.8-0.3c-0.3,0-0.6,0.1-0.8,0.4
			c-0.2,0.2-0.3,0.5-0.4,0.9v2.6l0.8,0.1v0.6h-2.6V167l0.8-0.1v-2.4c0-0.5-0.1-0.9-0.3-1.1c-0.2-0.2-0.5-0.3-0.8-0.3
			c-0.3,0-0.5,0.1-0.7,0.2s-0.3,0.3-0.4,0.5v3.2l0.8,0.1v0.6h-2.6V167z"/>
	</g>
	<g class="st3">
		<path class="st15" d="M110.2,164.9c0-0.8,0.2-1.4,0.6-1.9c0.4-0.5,1-0.8,1.7-0.8c0.7,0,1.3,0.3,1.7,0.8s0.6,1.1,0.6,1.9v0.1
			c0,0.8-0.2,1.4-0.6,1.9s-1,0.8-1.7,0.8c-0.7,0-1.3-0.3-1.7-0.8c-0.4-0.5-0.6-1.1-0.6-1.9V164.9z M111.1,165c0,0.6,0.1,1,0.4,1.4
			s0.6,0.5,1.1,0.5c0.5,0,0.8-0.2,1-0.5s0.4-0.8,0.4-1.4v-0.1c0-0.6-0.1-1-0.4-1.4s-0.6-0.6-1-0.6s-0.8,0.2-1,0.6s-0.4,0.8-0.4,1.4
			V165z"/>
		<path class="st15" d="M119.3,167c-0.2,0.2-0.4,0.4-0.6,0.5s-0.5,0.2-0.9,0.2c-0.6,0-1.1-0.2-1.5-0.7c-0.4-0.5-0.5-1.1-0.5-1.8
			v-0.1c0-0.8,0.2-1.5,0.5-2.1s0.9-0.8,1.5-0.8c0.3,0,0.6,0.1,0.8,0.2c0.2,0.1,0.4,0.3,0.6,0.5v-2.2l-0.8-0.1V160h0.8h1v6.9l0.8,0.1
			v0.6h-1.6L119.3,167z M116.7,165.2c0,0.5,0.1,1,0.3,1.3s0.6,0.5,1,0.5c0.3,0,0.5-0.1,0.7-0.2s0.4-0.3,0.5-0.6v-2.5
			c-0.1-0.2-0.3-0.4-0.5-0.5s-0.4-0.2-0.7-0.2c-0.5,0-0.8,0.2-1,0.6s-0.3,0.9-0.3,1.5V165.2z"/>
		<path class="st15" d="M121.8,167l0.8-0.1v-3.8l-0.8-0.1v-0.6h1.8v4.5l0.8,0.1v0.6h-2.6V167z M123.5,161h-1v-1h1V161z"/>
		<path class="st15" d="M124.8,163.1v-0.7h0.8v-0.6c0-0.6,0.2-1.1,0.5-1.4s0.8-0.5,1.4-0.5c0.2,0,0.4,0,0.6,0.1s0.5,0.1,0.7,0.2
			l-0.2,0.8c-0.2-0.1-0.4-0.1-0.6-0.2s-0.4-0.1-0.6-0.1c-0.4,0-0.7,0.1-0.8,0.3s-0.3,0.4-0.3,0.8v0.6h3v4.5l0.8,0.1v0.6h-2.6V167
			l0.8-0.1v-3.8h-2.1v3.8l0.8,0.1v0.6h-2.6V167l0.8-0.1v-3.8H124.8z"/>
		<path class="st15" d="M133.5,167.7c-0.7,0-1.3-0.2-1.8-0.7c-0.4-0.5-0.7-1.1-0.7-1.9v-0.2c0-0.8,0.2-1.4,0.7-1.9
			c0.4-0.5,1-0.8,1.6-0.8c0.7,0,1.2,0.2,1.6,0.6s0.5,1,0.5,1.7v0.6h-3.4l0,0c0,0.5,0.1,0.9,0.4,1.3c0.2,0.3,0.6,0.5,1,0.5
			c0.3,0,0.6,0,0.9-0.1c0.2-0.1,0.5-0.2,0.6-0.4l0.4,0.6c-0.2,0.2-0.4,0.3-0.7,0.5C134.3,167.7,134,167.7,133.5,167.7z M133.4,163
			c-0.3,0-0.6,0.1-0.8,0.4c-0.2,0.3-0.4,0.6-0.4,1l0,0h2.4v-0.1c0-0.4-0.1-0.7-0.3-0.9S133.8,163,133.4,163z"/>
		<path class="st15" d="M140,167c-0.2,0.2-0.4,0.4-0.6,0.5s-0.5,0.2-0.9,0.2c-0.6,0-1.1-0.2-1.5-0.7c-0.4-0.5-0.5-1.1-0.5-1.8v-0.1
			c0-0.8,0.2-1.5,0.5-2.1s0.9-0.8,1.5-0.8c0.3,0,0.6,0.1,0.8,0.2c0.2,0.1,0.4,0.3,0.6,0.5v-2.2l-0.8-0.1V160h0.8h1v6.9l0.8,0.1v0.6
			h-1.6L140,167z M137.5,165.2c0,0.5,0.1,1,0.3,1.3s0.6,0.5,1,0.5c0.3,0,0.5-0.1,0.7-0.2s0.4-0.3,0.5-0.6v-2.5
			c-0.1-0.2-0.3-0.4-0.5-0.5s-0.4-0.2-0.7-0.2c-0.5,0-0.8,0.2-1,0.6s-0.3,0.9-0.3,1.5V165.2z"/>
	</g>
</g>
<g id="Ebene_4">
	
		<linearGradient id="SVGID_7_" gradientUnits="userSpaceOnUse" x1="240.27" y1="238.135" x2="436.08" y2="238.135" gradientTransform="matrix(1 0 0 -1 0 278)">
		<stop  offset="0" style="stop-color:#990066"/>
		<stop  offset="0.19" style="stop-color:#780066"/>
		<stop  offset="0.4" style="stop-color:#5A0066"/>
		<stop  offset="0.61" style="stop-color:#440066"/>
		<stop  offset="0.81" style="stop-color:#370066"/>
		<stop  offset="1" style="stop-color:#330066"/>
	</linearGradient>
	<path class="st16" d="M245.3,14.4h185.8c2.8,0,5,2.2,5,5v41c0,2.8-2.2,5-5,5H245.3c-2.8,0-5-2.2-5-5v-41
		C240.3,16.6,242.5,14.4,245.3,14.4z"/>
	<g class="st3">
		<path class="st15" d="M281.2,31.4h-1.3l-0.2-1.1c-0.2-0.2-0.4-0.3-0.6-0.4s-0.6-0.1-0.9-0.1c-0.7,0-1.3,0.3-1.7,0.8
			s-0.6,1.2-0.6,2.1V33c0,0.9,0.2,1.6,0.6,2.1s1,0.8,1.7,0.8c0.3,0,0.6,0,0.9-0.1s0.5-0.2,0.6-0.4l0.2-1.1h1.3v1.7
			c-0.3,0.4-0.8,0.7-1.3,1s-1.1,0.4-1.8,0.4c-1.1,0-2.1-0.4-2.8-1.2s-1.1-1.8-1.1-3.1v-0.3c0-1.2,0.4-2.3,1.1-3.1s1.7-1.2,2.8-1.2
			c0.7,0,1.3,0.1,1.8,0.4s1,0.6,1.3,1V31.4z"/>
		<path class="st15" d="M281.9,36.1l0.6-0.1l2.6-7.4h1.8l2.6,7.4l0.6,0.1v1h-2.9v-1l0.6-0.1l-0.4-1.2h-2.8l-0.4,1.2l0.6,0.1v1h-2.9
			V36.1z M285,33.5h2l-1-3h0L285,33.5z"/>
		<path class="st15" d="M297.1,31.3h-1.3l-0.2-1.2c-0.1-0.1-0.4-0.2-0.7-0.2s-0.6-0.1-0.9-0.1c-0.5,0-0.8,0.1-1.1,0.3
			s-0.4,0.5-0.4,0.8c0,0.3,0.1,0.5,0.4,0.7s0.7,0.4,1.4,0.6c0.9,0.3,1.7,0.6,2.1,1s0.7,1,0.7,1.7c0,0.7-0.3,1.3-0.9,1.7
			s-1.3,0.6-2.3,0.6c-0.7,0-1.3-0.1-1.8-0.3s-1-0.5-1.4-0.9v-1.8h1.3l0.2,1.2c0.2,0.1,0.4,0.3,0.7,0.3s0.6,0.1,1,0.1
			c0.5,0,0.8-0.1,1.1-0.3s0.4-0.4,0.4-0.8c0-0.3-0.1-0.6-0.3-0.8s-0.6-0.4-1.2-0.6c-1-0.3-1.8-0.6-2.3-1s-0.8-1-0.8-1.7
			c0-0.7,0.3-1.3,0.9-1.7s1.3-0.7,2.2-0.7c0.7,0,1.3,0.1,1.8,0.3s1,0.5,1.4,0.8V31.3z"/>
	</g>
	<g id="Scone_logo_white-2">
		<g>
			<defs>
				<rect id="SVGID_8_" x="312.8" y="48.5" width="48.8" height="9.5"/>
			</defs>
			<clipPath id="SVGID_9_">
				<use xlink:href="#SVGID_8_"  style="overflow:visible;"/>
			</clipPath>
			<g class="st17">
				<g>
					<defs>
						<rect id="SVGID_10_" x="312.8" y="48.5" width="48.8" height="9.5"/>
					</defs>
					<clipPath id="SVGID_11_">
						<use xlink:href="#SVGID_10_"  style="overflow:visible;"/>
					</clipPath>
					<g class="st18">
						<path class="st11" d="M319.3,50.9h-1c-0.2,0-0.4,0.2-0.4,0.4v1c0,0.2,0.2,0.4,0.4,0.4h1c0.2,0,0.4-0.2,0.4-0.4v-1
							C319.7,51.1,319.5,50.9,319.3,50.9 M315.7,52.7h1c0.2,0,0.4-0.2,0.4-0.4v-1c0-0.2-0.2-0.4-0.4-0.4h-1c-0.2,0-0.4,0.2-0.4,0.4
							v1C315.3,52.6,315.5,52.7,315.7,52.7 M314.6,52.3v-1c0-0.2-0.2-0.4-0.4-0.4h-1c-0.2,0-0.4,0.2-0.4,0.4v1
							c0,0.2,0.2,0.4,0.4,0.4h1C314.4,52.7,314.6,52.6,314.6,52.3 M319.3,53.5c-0.2,0-0.3,0.1-0.3,0.3V55c0,0.2,0.1,0.3,0.3,0.3
							c0.2,0,0.3-0.1,0.3-0.3v-1.3C319.7,53.6,319.5,53.5,319.3,53.5C319.4,53.4,319.4,53.4,319.3,53.5 M316.5,53.9v1
							c0,0.2,0.2,0.4,0.4,0.4h1c0.2,0,0.4-0.2,0.4-0.4v-1c0-0.2-0.2-0.4-0.4-0.4h-1C316.7,53.5,316.5,53.6,316.5,53.9 M315.8,54.9
							v-1c0-0.2-0.2-0.4-0.4-0.4h-1c-0.2,0-0.4,0.2-0.4,0.4v1c0,0.2,0.2,0.4,0.4,0.4h1C315.6,55.2,315.8,55.1,315.8,54.9 M319.3,56
							h-1c-0.2,0-0.4,0.2-0.4,0.4c0,0,0,0,0,0v1c0,0.2,0.2,0.4,0.4,0.4l0,0h1c0.2,0,0.4-0.2,0.4-0.4c0,0,0,0,0,0v-1
							C319.7,56.2,319.5,56,319.3,56C319.3,56,319.3,56,319.3,56 M316.6,56h-1c-0.2,0-0.4,0.2-0.4,0.4c0,0,0,0,0,0v1
							c0,0.2,0.2,0.4,0.4,0.4c0,0,0,0,0,0h1c0.2,0,0.4-0.2,0.4-0.4c0,0,0,0,0,0v-1C317,56.2,316.8,56,316.6,56
							C316.6,56,316.6,56,316.6,56"/>
						<path class="st11" d="M320.5,50.5c0.5,0.4,1,0.5,1.6,0.5c0,0,0,0,0,0.1v2.8c0,1.1-1.3,1.7-1.6,1.9l0,0L320.5,50.5L320.5,50.5"
							/>
						<path class="st11" d="M317.4,50.3c2.2-0.1,2.5-0.8,2.5-0.8c0,0,0.1-0.1,0.1-0.1c0,0,0.1,0,0.1,0s0.3,0.8,2.5,0.8
							c0.1,0,0.1,0,0.1,0.1v3.7c0,1.2-2.2,2.5-2.3,2.5s-0.1,0-0.1,0.1v0.9c0,0,0.1,0.1,0.2,0c0.8-0.5,3.1-1.7,3.1-3.3v-4.7
							c0-0.1-0.1-0.1-0.2-0.1c-2.8,0-3.3-1-3.3-1s-0.1,0-0.2,0s-0.1,0-0.1,0s-0.5,1-3.2,1c-0.1,0-0.1,0-0.1,0.1v0.6
							c0,0,0,0.1,0.1,0.1S317.4,50.4,317.4,50.3"/>
						<path class="st12" d="M325.7,56.4l1.1-0.4c0.3,0.5,0.8,0.9,1.4,0.8c0.3,0,0.6-0.1,0.8-0.2c0.2-0.1,0.4-0.3,0.4-0.6
							c0-0.6-0.8-1-1.4-1.2l0,0c-0.5-0.2-0.9-0.4-1.3-0.7c-0.4-0.3-0.6-0.8-0.6-1.3c0-0.5,0.2-1,0.6-1.4c0.5-0.4,1-0.6,1.6-0.5
							c0.9,0,1.7,0.4,2.2,1.2l-1.1,0.4c-0.1-0.2-0.2-0.3-0.4-0.4c-0.2-0.1-0.4-0.1-0.6-0.1c-0.6,0-1.1,0.3-1.1,0.8
							c0,0.3,0.2,0.6,0.4,0.7c0.3,0.2,0.6,0.4,1,0.5L329,54c0.8,0.4,1.9,0.8,1.9,2c0,0.6-0.3,1.1-0.7,1.4c-0.5,0.4-1.2,0.5-1.8,0.5
							C327.2,57.9,326.2,57.4,325.7,56.4"/>
						<path class="st12" d="M335.5,57.8c-0.5,0-0.9-0.1-1.4-0.3c-0.4-0.2-0.8-0.4-1.1-0.8c-0.3-0.3-0.6-0.7-0.7-1.1
							c-0.2-0.4-0.3-0.9-0.3-1.3c0-0.5,0.1-0.9,0.3-1.4c0.3-0.8,1-1.5,1.8-1.8c0.4-0.2,0.9-0.3,1.4-0.3c0.5,0,1.1,0.1,1.6,0.4
							c0.5,0.2,0.9,0.6,1.2,1l-0.9,0.7c-0.2-0.3-0.5-0.5-0.8-0.7c-0.3-0.2-0.7-0.2-1.1-0.3c-1.3,0-2.3,1.1-2.3,2.3
							c0,0.6,0.3,1.2,0.7,1.6c0.8,0.8,1.9,0.9,2.8,0.3c0.3-0.2,0.6-0.5,0.8-0.9l1,0.6c-0.3,0.5-0.7,1-1.3,1.3
							C336.7,57.7,336.1,57.8,335.5,57.8"/>
						<path class="st12" d="M343.1,57.9c-0.5,0-0.9-0.1-1.4-0.3c-0.4-0.2-0.8-0.4-1.1-0.8c-0.6-0.7-1-1.5-1-2.5
							c0-0.5,0.1-0.9,0.3-1.4c0.2-0.4,0.4-0.8,0.7-1.1c0.3-0.3,0.7-0.6,1.1-0.8c0.4-0.2,0.9-0.3,1.4-0.3c0.5,0,0.9,0.1,1.4,0.3
							c0.4,0.2,0.8,0.4,1.1,0.8c0.3,0.3,0.6,0.7,0.8,1.1c0.2,0.4,0.3,0.9,0.3,1.4C346.6,56.3,345,57.9,343.1,57.9
							C343.1,57.9,343.1,57.9,343.1,57.9 M343.1,52c-0.6,0-1.2,0.2-1.6,0.7c-0.4,0.4-0.7,1-0.7,1.7c0,1.3,1,2.3,2.3,2.3
							c0.6,0,1.2-0.2,1.7-0.7c0.9-0.9,0.9-2.4,0-3.3c0,0,0,0,0,0C344.3,52.3,343.7,52,343.1,52"/>
						<polygon class="st12" points="354.4,51 354.4,58 349.6,53.5 349.6,57.8 348.3,57.8 348.3,50.7 353.2,55.2 353.2,51 						"/>
						<polygon class="st12" points="357.8,52 357.8,53.8 361.2,53.8 361.2,54.9 357.8,54.9 357.8,56.7 361.6,56.7 361.6,57.8 
							356.5,57.8 356.5,51 361.6,51 361.6,52 357.8,52 						"/>
					</g>
				</g>
			</g>
		</g>
	</g>
	<path class="st19" d="M403.2,31.9H393c-0.6-2.5-3.2-4.1-5.7-3.4c-2.5,0.6-4.1,3.2-3.4,5.7c0.6,2.5,3.2,4.1,5.7,3.4
		c1.7-0.4,3-1.7,3.4-3.4h3l1.4,1.4l1.4-1.4h0.2l0.9,0.9l0.8-0.8l1.3,1.3l1.5-1.5l1.1-1L403.2,31.9z M386.6,34.3
		c-0.7-0.1-1.2-0.7-1.1-1.4c0.1-0.6,0.5-1.1,1.1-1.1c0.7-0.1,1.3,0.4,1.4,1.1s-0.4,1.3-1.1,1.4C386.8,34.3,386.7,34.3,386.6,34.3z"
		/>
	<path class="st20" d="M367.4,31.9h-10.2c-0.6-2.5-3.2-4.1-5.7-3.4c-2.5,0.6-4.1,3.2-3.4,5.7c0.6,2.5,3.2,4.1,5.7,3.4
		c1.7-0.4,3-1.7,3.4-3.4h3l1.4,1.4l1.4-1.4h0.2L364,35l0.8-0.8l1.3,1.3l1.5-1.5l1.1-1L367.4,31.9z M350.8,34.3
		c-0.7,0-1.2-0.6-1.2-1.3s0.6-1.2,1.3-1.2c0.7,0,1.2,0.5,1.2,1.2C352.1,33.7,351.6,34.3,350.8,34.3
		C350.9,34.3,350.9,34.3,350.8,34.3z"/>
	<path class="st21" d="M331.6,31.9h-10.2c-0.6-2.5-3.2-4.1-5.7-3.4c-2.5,0.6-4.1,3.2-3.4,5.7c0.6,2.5,3.2,4.1,5.7,3.4
		c1.7-0.4,3-1.7,3.4-3.4h3l1.4,1.4l1.4-1.4h0.2l0.9,0.9l0.8-0.8l1.3,1.3l1.5-1.5l1.1-1L331.6,31.9z M315,34.3
		c-0.7,0-1.2-0.6-1.2-1.3s0.6-1.2,1.3-1.2c0.7,0,1.2,0.6,1.2,1.2C316.3,33.7,315.8,34.3,315,34.3C315,34.3,315,34.3,315,34.3z"/>
</g>
</svg>
