<?xml version="1.0" encoding="utf-8"?>
<!-- Generator: Adobe Illustrator 24.0.0, SVG Export Plug-In . SVG Version: 6.00 Build 0)  -->
<svg version="1.1" id="Ebene_1" xmlns="http://www.w3.org/2000/svg" xmlns:xlink="http://www.w3.org/1999/xlink" x="0px" y="0px"
	 viewBox="0 0 591.9 264.2" style="enable-background:new 0 0 591.9 264.2;" xml:space="preserve">
<style type="text/css">
	.st0{fill:url(#SVGID_1_);stroke:#FFCC00;stroke-width:2;stroke-miterlimit:10;}
	.st1{fill:url(#SVGID_2_);}
	.st2{fill:none;stroke:#FFCC00;stroke-width:2;stroke-miterlimit:10;}
	.st3{enable-background:new    ;}
	.st4{fill:#FFCC00;}
	.st5{fill:#FFFFFF;stroke:#FFCC00;stroke-width:2;stroke-linecap:round;stroke-linejoin:round;}
	.st6{fill:none;stroke:#FFCC00;stroke-width:2;stroke-linecap:round;stroke-linejoin:round;}
	.st7{clip-path:url(#SVGID_4_);}
	.st8{clip-path:url(#SVGID_6_);}
	.st9{fill:#FFD138;}
	.st10{fill:#FDFEFF;}
	.st11{fill:url(#SVGID_7_);}
	.st12{clip-path:url(#SVGID_9_);}
	.st13{clip-path:url(#SVGID_11_);}
	.st14{fill:url(#SVGID_12_);}
	.st15{clip-path:url(#SVGID_14_);}
	.st16{clip-path:url(#SVGID_16_);}
	.st17{fill:#330066;}
	.st18{fill:url(#SVGID_17_);stroke:#FFCC00;stroke-width:2;stroke-miterlimit:10;}
	.st19{fill:#FFFFFF;}
	.st20{clip-path:url(#SVGID_19_);}
	.st21{clip-path:url(#SVGID_21_);}
	.st22{fill:#990066;}
	.st23{fill:#3399FF;}
	.st24{fill:#33CC99;}
</style>
<g id="Ebene_2_1_">
	
		<linearGradient id="SVGID_1_" gradientUnits="userSpaceOnUse" x1="33.49" y1="92.62" x2="559.7" y2="92.62" gradientTransform="matrix(1 0 0 -1 0 266)">
		<stop  offset="0" style="stop-color:#990066"/>
		<stop  offset="0.19" style="stop-color:#780066"/>
		<stop  offset="0.4" style="stop-color:#5A0066"/>
		<stop  offset="0.61" style="stop-color:#440066"/>
		<stop  offset="0.81" style="stop-color:#370066"/>
		<stop  offset="1" style="stop-color:#330066"/>
	</linearGradient>
	<path class="st0" d="M38.5,100.2h516.2c2.8,0,5,2.2,5,5v136.3c0,2.8-2.2,5-5,5H38.5c-2.8,0-5-2.2-5-5V105.2
		C33.5,102.5,35.7,100.2,38.5,100.2z"/>
	
		<linearGradient id="SVGID_2_" gradientUnits="userSpaceOnUse" x1="233.2" y1="94.51" x2="358.86" y2="94.51" gradientTransform="matrix(1 0 0 -1 0 266)">
		<stop  offset="0" style="stop-color:#990066"/>
		<stop  offset="0.19" style="stop-color:#780066"/>
		<stop  offset="0.4" style="stop-color:#5A0066"/>
		<stop  offset="0.61" style="stop-color:#440066"/>
		<stop  offset="0.81" style="stop-color:#370066"/>
		<stop  offset="1" style="stop-color:#330066"/>
	</linearGradient>
	<path class="st1" d="M238.2,133.7h115.7c2.8,0,5,2.2,5,5v65.5c0,2.8-2.2,5-5,5H238.2c-2.8,0-5-2.2-5-5v-65.5
		C233.2,136,235.4,133.7,238.2,133.7z"/>
	<path class="st2" d="M238.2,133.7h115.7c2.8,0,5,2.2,5,5v65.5c0,2.8-2.2,5-5,5H238.2c-2.8,0-5-2.2-5-5v-65.5
		C233.2,136,235.4,133.7,238.2,133.7z"/>
	<g class="st3">
		<path class="st4" d="M266.3,169.6L266.3,169.6l-2.3,6.3h-1.1l-2.3-6.3l0,0l0.2,3.7v1.3l0.9,0.2v1H258v-1l0.9-0.2v-6.1l-0.9-0.2v-1
			h0.9h2.2l2.2,6.3h0l2.2-6.3h3.2v1l-0.9,0.2v6.1l0.9,0.2v1h-3.5v-1l0.9-0.2v-1.3L266.3,169.6z"/>
		<path class="st4" d="M269.3,174.9l0.8-0.2v-3.9l-0.9-0.2v-1h2.6v5.1l0.8,0.2v1h-3.4V174.9z M271.9,168.1h-1.7v-1.3h1.7V168.1z"/>
		<path class="st4" d="M276.2,174.8c0.3,0,0.5-0.1,0.7-0.3s0.3-0.4,0.3-0.7h1.5l0,0c0,0.6-0.2,1.2-0.7,1.6s-1.1,0.6-1.9,0.6
			c-0.9,0-1.7-0.3-2.2-0.9s-0.8-1.4-0.8-2.3v-0.2c0-0.9,0.3-1.7,0.8-2.3s1.3-0.9,2.2-0.9c0.5,0,1,0.1,1.4,0.2s0.7,0.4,1,0.6l0,1.7
			h-1.4l-0.3-1c-0.1-0.1-0.2-0.1-0.3-0.2s-0.3-0.1-0.4-0.1c-0.5,0-0.8,0.2-1,0.5s-0.3,0.8-0.3,1.4v0.2c0,0.6,0.1,1,0.3,1.4
			S275.8,174.8,276.2,174.8z"/>
	</g>
	<g class="st3">
		<path class="st4" d="M279.7,174.9l0.8-0.2v-3.9l-0.9-0.2v-1h2.5l0.1,0.9c0.1-0.3,0.3-0.6,0.6-0.8s0.5-0.3,0.8-0.3
			c0.1,0,0.2,0,0.3,0s0.2,0,0.2,0l-0.2,1.6l-0.7,0c-0.3,0-0.5,0-0.6,0.1s-0.3,0.2-0.4,0.4v3.1l0.8,0.2v1h-3.4V174.9z"/>
	</g>
	<g class="st3">
		<path class="st4" d="M284.5,172.7c0-0.9,0.3-1.7,0.8-2.3s1.3-0.9,2.2-0.9c0.9,0,1.7,0.3,2.2,0.9s0.8,1.4,0.8,2.3v0.1
			c0,1-0.3,1.7-0.8,2.3s-1.3,0.9-2.2,0.9c-0.9,0-1.7-0.3-2.2-0.9s-0.8-1.4-0.8-2.3V172.7z M286.2,172.8c0,0.6,0.1,1,0.3,1.4
			s0.5,0.5,1,0.5c0.4,0,0.8-0.2,1-0.5s0.3-0.8,0.3-1.4v-0.1c0-0.6-0.1-1-0.3-1.4s-0.5-0.5-1-0.5s-0.8,0.2-1,0.5s-0.3,0.8-0.3,1.4
			V172.8z"/>
		<path class="st4" d="M296.4,171.8h-1.1l-0.2-0.8c-0.1-0.1-0.3-0.2-0.4-0.2s-0.4-0.1-0.6-0.1c-0.3,0-0.5,0.1-0.7,0.2
			s-0.3,0.3-0.3,0.5c0,0.2,0.1,0.4,0.3,0.5s0.5,0.2,1,0.3c0.8,0.2,1.4,0.4,1.7,0.7s0.6,0.7,0.6,1.3c0,0.6-0.2,1-0.7,1.4
			s-1.1,0.5-1.9,0.5c-0.5,0-0.9-0.1-1.3-0.2s-0.8-0.3-1.1-0.6l0-1.4h1.2l0.2,0.8c0.1,0.1,0.2,0.1,0.4,0.2s0.4,0.1,0.6,0.1
			c0.3,0,0.6-0.1,0.8-0.2s0.3-0.3,0.3-0.5c0-0.2-0.1-0.3-0.3-0.5s-0.5-0.3-1-0.4c-0.7-0.2-1.3-0.4-1.7-0.7s-0.6-0.7-0.6-1.2
			c0-0.5,0.2-1,0.7-1.4s1.1-0.6,1.9-0.6c0.5,0,1,0.1,1.4,0.2s0.8,0.3,1,0.5L296.4,171.8z"/>
		<path class="st4" d="M300.4,176.1c-0.9,0-1.6-0.3-2.2-0.9s-0.8-1.3-0.8-2.2v-0.2c0-0.9,0.3-1.7,0.8-2.3s1.2-0.9,2.1-0.9
			c0.9,0,1.5,0.3,2,0.8s0.7,1.2,0.7,2.1v0.9h-3.8l0,0c0,0.4,0.2,0.8,0.4,1s0.6,0.4,1,0.4c0.4,0,0.7,0,0.9-0.1s0.5-0.2,0.8-0.4
			l0.5,1.1c-0.3,0.2-0.6,0.4-1,0.5S300.9,176.1,300.4,176.1z M300.3,170.8c-0.3,0-0.6,0.1-0.8,0.4s-0.3,0.6-0.3,1l0,0h2.1V172
			c0-0.4-0.1-0.7-0.3-0.9S300.6,170.8,300.3,170.8z"/>
	</g>
	<g class="st3">
		<path class="st4" d="M303.9,174.9l0.8-0.2v-3.9l-0.9-0.2v-1h2.5l0.1,0.9c0.1-0.3,0.3-0.6,0.6-0.8s0.5-0.3,0.8-0.3
			c0.1,0,0.2,0,0.3,0s0.2,0,0.2,0l-0.2,1.6l-0.7,0c-0.3,0-0.5,0-0.6,0.1s-0.3,0.2-0.4,0.4v3.1l0.8,0.2v1h-3.4V174.9z"/>
	</g>
	<g class="st3">
		<path class="st4" d="M311.6,170.6l-0.6,0.1l0.8,2.8l0.1,0.6h0l0.1-0.6l0.8-2.8l-0.6-0.1v-1h2.9v1l-0.6,0.1l-1.9,5.2h-1.6l-1.9-5.2
			l-0.6-0.1v-1h2.9V170.6z"/>
		<path class="st4" d="M315.7,174.9l0.8-0.2v-3.9l-0.9-0.2v-1h2.6v5.1l0.8,0.2v1h-3.4V174.9z M318.3,168.1h-1.7v-1.3h1.7V168.1z"/>
		<path class="st4" d="M322.6,174.8c0.3,0,0.5-0.1,0.7-0.3s0.3-0.4,0.3-0.7h1.5l0,0c0,0.6-0.2,1.2-0.7,1.6s-1.1,0.6-1.9,0.6
			c-0.9,0-1.7-0.3-2.2-0.9s-0.8-1.4-0.8-2.3v-0.2c0-0.9,0.3-1.7,0.8-2.3s1.3-0.9,2.2-0.9c0.5,0,1,0.1,1.4,0.2s0.7,0.4,1,0.6l0,1.7
			h-1.4l-0.3-1c-0.1-0.1-0.2-0.1-0.3-0.2s-0.3-0.1-0.4-0.1c-0.5,0-0.8,0.2-1,0.5s-0.3,0.8-0.3,1.4v0.2c0,0.6,0.1,1,0.3,1.4
			S322.2,174.8,322.6,174.8z"/>
		<path class="st4" d="M329,176.1c-0.9,0-1.6-0.3-2.2-0.9s-0.8-1.3-0.8-2.2v-0.2c0-0.9,0.3-1.7,0.8-2.3s1.2-0.9,2.1-0.9
			c0.9,0,1.5,0.3,2,0.8s0.7,1.2,0.7,2.1v0.9h-3.8l0,0c0,0.4,0.2,0.8,0.4,1s0.6,0.4,1,0.4c0.4,0,0.7,0,0.9-0.1s0.5-0.2,0.8-0.4
			l0.5,1.1c-0.3,0.2-0.6,0.4-1,0.5S329.5,176.1,329,176.1z M328.9,170.8c-0.3,0-0.6,0.1-0.8,0.4s-0.3,0.6-0.3,1l0,0h2.1V172
			c0-0.4-0.1-0.7-0.3-0.9S329.2,170.8,328.9,170.8z"/>
	</g>
	<path class="st5" d="M287.4,123c4.6-4.5,12.1-4.5,16.6,0.2c4.5,4.6,4.5,12.1-0.2,16.6c-4.6,4.5-12.1,4.5-16.6-0.2
		c-2.1-2.2-3.3-5.1-3.4-8.2c0-2.6,0.8-5.1,2.4-7.1"/>
	<path class="st6" d="M295.3,137h-4.2c-0.6,0-0.8-0.2-0.8-0.8v-6.5c0-0.6,0.2-0.8,0.8-0.8h8.5c0.5,0,0.8,0.2,0.8,0.8v6.5
		c0,0.5-0.2,0.8-0.8,0.8C298.1,137,296.7,137,295.3,137z"/>
	<path class="st6" d="M291,128.4c0-1.8,1-3.4,2.6-4.1c2.1-0.9,4.6,0,5.5,2.2c0.1,0.2,0.2,0.5,0.2,0.7c0.1,0.4,0.1,0.8,0.2,1.2"/>
	<path class="st4" d="M294.6,134.2L294.6,134.2v0.9c0,0.2,0.1,0.2,0.3,0.2h0.8c0.2,0,0.3-0.1,0.3-0.3v-1.6c0-0.2,0.1-0.3,0.2-0.4
		c0.5-0.3,0.8-0.9,0.6-1.4c-0.2-0.6-0.8-1-1.5-1c-0.7-0.1-1.3,0.3-1.6,0.9c-0.2,0.6,0,1.2,0.5,1.5c0.2,0.1,0.3,0.3,0.3,0.5
		C294.6,133.7,294.6,134,294.6,134.2z"/>
	<g id="Scone_logo_white">
		<g>
			<defs>
				<rect id="SVGID_3_" x="276.1" y="194" width="36.3" height="7.1"/>
			</defs>
			<clipPath id="SVGID_4_">
				<use xlink:href="#SVGID_3_"  style="overflow:visible;"/>
			</clipPath>
			<g class="st7">
				<g>
					<defs>
						<rect id="SVGID_5_" x="276.1" y="194" width="36.3" height="7.1"/>
					</defs>
					<clipPath id="SVGID_6_">
						<use xlink:href="#SVGID_5_"  style="overflow:visible;"/>
					</clipPath>
					<g class="st8">
						<path class="st9" d="M280.9,195.8h-0.8c-0.2,0-0.3,0.1-0.3,0.3c0,0,0,0,0,0v0.8c0,0.2,0.1,0.3,0.3,0.3c0,0,0,0,0,0h0.8
							c0.2,0,0.3-0.1,0.3-0.3l0,0v-0.8C281.2,195.9,281.1,195.8,280.9,195.8L280.9,195.8 M278.3,197.2h0.7c0.2,0,0.3-0.1,0.3-0.3
							l0,0v-0.8c0-0.2-0.1-0.3-0.3-0.3l0,0h-0.8c-0.2,0-0.3,0.1-0.3,0.3l0,0v0.8C277.9,197,278.1,197.2,278.3,197.2L278.3,197.2
							 M277.4,196.9v-0.8c0-0.2-0.1-0.3-0.3-0.3l0,0h-0.8c-0.2,0-0.3,0.1-0.3,0.3l0,0v0.8c0,0.2,0.1,0.3,0.3,0.3l0,0h0.8
							C277.3,197.2,277.4,197,277.4,196.9L277.4,196.9 M280.9,197.7c-0.1,0-0.2,0.1-0.2,0.2l0,0v0.9c0,0.1,0,0.2,0.2,0.3
							c0.1,0,0.2,0,0.3-0.2c0,0,0-0.1,0-0.1v-0.9C281.2,197.8,281.1,197.7,280.9,197.7C281,197.7,281,197.7,280.9,197.7 M278.8,198
							v0.8c0,0.2,0.1,0.3,0.3,0.3c0,0,0,0,0,0h0.9c0.2,0,0.3-0.1,0.3-0.3l0,0V198c0-0.2-0.1-0.3-0.3-0.3l0,0h-0.8
							C279.1,197.7,278.9,197.8,278.8,198C278.9,198,278.9,198,278.8,198 M278.4,198.8V198c0-0.2-0.1-0.3-0.3-0.3l0,0h-0.8
							c-0.2,0-0.3,0.1-0.3,0.3v0.8c0,0.2,0.1,0.3,0.3,0.3h0.8C278.3,199.1,278.4,198.9,278.4,198.8L278.4,198.8 M281,199.6h-0.8
							c-0.2,0-0.3,0.1-0.3,0.3v0.8c0,0.2,0.1,0.3,0.3,0.3c0,0,0,0,0,0h0.8c0.2,0,0.3-0.1,0.3-0.3l0,0v-0.8
							C281.3,199.7,281.1,199.6,281,199.6 M279,199.6h-0.8c-0.2,0-0.3,0.1-0.3,0.3v0.8c0,0.2,0.1,0.3,0.3,0.3l0,0h0.8
							c0.2,0,0.3-0.1,0.3-0.3l0,0v-0.8C279.3,199.7,279.2,199.6,279,199.6"/>
						<path class="st9" d="M281.9,195.5c0.3,0.3,0.8,0.4,1.2,0.4c0,0,0,0,0,0.1v2.1c0,0.8-1,1.3-1.2,1.4l0,0L281.9,195.5
							L281.9,195.5"/>
						<path class="st9" d="M279.5,195.4c1.6-0.1,1.9-0.6,1.9-0.6c0,0,0.1,0,0.1,0c0,0,0.1,0,0.1,0s0.3,0.6,1.9,0.6
							c0,0,0.1,0,0.1,0.1v2.8c0,0.9-1.7,1.9-1.7,1.9s-0.1,0.1-0.1,0.1v0.7c0,0,0.1,0,0.1,0c0.6-0.3,2.3-1.3,2.3-2.5v-3.5
							c0-0.1-0.1-0.1-0.2-0.1c-2,0-2.4-0.7-2.4-0.7s-0.1,0-0.1,0s-0.1,0-0.1,0s-0.3,0.8-2.4,0.8c-0.1,0-0.1,0-0.1,0.1v0.4
							c0,0,0,0.1,0.1,0.1S279.5,195.4,279.5,195.4"/>
						<path class="st10" d="M285.7,199.9l0.8-0.3c0.2,0.4,0.6,0.6,1.1,0.6c0.2,0,0.4,0,0.6-0.1c0.2-0.1,0.3-0.3,0.3-0.4
							c0-0.4-0.6-0.7-1-0.9l0,0c-0.3-0.1-0.7-0.3-1-0.5c-0.3-0.2-0.5-0.6-0.5-1c0-0.4,0.2-0.8,0.5-1c0.3-0.3,0.8-0.4,1.2-0.4
							c0.7,0,1.3,0.3,1.6,0.9l-0.9,0.3c-0.1-0.1-0.2-0.2-0.3-0.3c-0.1-0.1-0.3-0.1-0.5-0.1c-0.5,0-0.8,0.3-0.8,0.6
							c0,0.2,0.1,0.4,0.3,0.5c0.2,0.2,0.5,0.3,0.7,0.4h0.1c0.6,0.3,1.4,0.6,1.4,1.4c0,0.4-0.2,0.8-0.5,1c-0.4,0.3-0.9,0.4-1.3,0.4
							C286.9,200.9,286.1,200.5,285.7,199.9"/>
						<path class="st10" d="M293,201c-0.3,0-0.7-0.1-1-0.2c-0.6-0.3-1.1-0.8-1.4-1.4c-0.3-0.6-0.3-1.4,0-2c0.1-0.3,0.3-0.6,0.5-0.8
							c0.2-0.3,0.5-0.5,0.8-0.6c0.3-0.1,0.7-0.2,1-0.2c0.4,0,0.8,0.1,1.2,0.3c0.3,0.2,0.7,0.4,0.9,0.7l-0.7,0.5
							c-0.2-0.2-0.4-0.4-0.6-0.5c-0.2-0.1-0.5-0.2-0.8-0.2c-1,0-1.7,0.8-1.8,1.7c0,1,0.8,1.7,1.7,1.7c0.3,0,0.6-0.1,0.9-0.2
							c0.3-0.2,0.5-0.4,0.6-0.6l0.8,0.4c-0.2,0.4-0.5,0.8-0.9,1C293.9,200.9,293.5,201,293,201"/>
						<path class="st10" d="M298.7,201c-0.3,0-0.7-0.1-1-0.2c-0.3-0.1-0.6-0.3-0.8-0.6c-0.2-0.2-0.4-0.5-0.5-0.8
							c-0.1-0.3-0.2-0.7-0.2-1c0-0.3,0.1-0.7,0.2-1c0.1-0.3,0.3-0.6,0.5-0.8c0.2-0.2,0.5-0.4,0.8-0.6c0.3-0.1,0.7-0.2,1-0.2
							c0.3,0,0.7,0.1,1,0.2c0.3,0.1,0.6,0.3,0.8,0.6c0.2,0.2,0.4,0.5,0.6,0.8c0.1,0.3,0.2,0.7,0.2,1c0,0.3-0.1,0.7-0.2,1
							c-0.1,0.3-0.3,0.6-0.6,0.8c-0.2,0.2-0.5,0.4-0.8,0.6C299.3,200.9,299,201,298.7,201 M298.7,196.7c-0.5,0-0.9,0.2-1.2,0.5
							c-0.3,0.3-0.5,0.8-0.5,1.2c0,0.5,0.2,0.9,0.5,1.2c0.3,0.3,0.8,0.5,1.2,0.5c1,0,1.7-0.8,1.8-1.7
							C300.4,197.4,299.6,196.7,298.7,196.7"/>
						<polygon class="st10" points="307.1,195.8 307.1,201.1 303.5,197.8 303.5,200.9 302.6,200.9 302.6,195.6 306.2,199 
							306.2,195.8 						"/>
						<polygon class="st10" points="309.6,196.6 309.6,198 312.1,198 312.1,198.8 309.6,198.8 309.6,200.1 312.5,200.1 312.5,200.9 
							308.7,200.9 308.7,195.8 312.5,195.8 312.5,196.6 309.6,196.6 						"/>
					</g>
				</g>
			</g>
		</g>
	</g>
	
		<linearGradient id="SVGID_7_" gradientUnits="userSpaceOnUse" x1="397.6" y1="94.51" x2="523.26" y2="94.51" gradientTransform="matrix(1 0 0 -1 0 266)">
		<stop  offset="0" style="stop-color:#990066"/>
		<stop  offset="0.19" style="stop-color:#780066"/>
		<stop  offset="0.4" style="stop-color:#5A0066"/>
		<stop  offset="0.61" style="stop-color:#440066"/>
		<stop  offset="0.81" style="stop-color:#370066"/>
		<stop  offset="1" style="stop-color:#330066"/>
	</linearGradient>
	<path class="st11" d="M402.6,133.7h115.7c2.8,0,5,2.2,5,5v65.5c0,2.8-2.2,5-5,5H402.6c-2.8,0-5-2.2-5-5v-65.5
		C397.6,136,399.8,133.7,402.6,133.7z"/>
	<path class="st2" d="M402.6,133.7h115.7c2.8,0,5,2.2,5,5v65.5c0,2.8-2.2,5-5,5H402.6c-2.8,0-5-2.2-5-5v-65.5
		C397.6,136,399.8,133.7,402.6,133.7z"/>
	<g class="st3">
		<path class="st4" d="M430.7,169.6L430.7,169.6l-2.3,6.3h-1.1l-2.3-6.3l0,0l0.2,3.7v1.3l0.9,0.2v1h-3.5v-1l0.9-0.2v-6.1l-0.9-0.2
			v-1h0.9h2.2l2.2,6.3h0l2.2-6.3h3.2v1l-0.9,0.2v6.1l0.9,0.2v1h-3.5v-1l0.9-0.2v-1.3L430.7,169.6z"/>
		<path class="st4" d="M433.7,174.9l0.8-0.2v-3.9l-0.9-0.2v-1h2.6v5.1l0.8,0.2v1h-3.4V174.9z M436.3,168.1h-1.7v-1.3h1.7V168.1z"/>
		<path class="st4" d="M440.6,174.8c0.3,0,0.5-0.1,0.7-0.3s0.3-0.4,0.3-0.7h1.5l0,0c0,0.6-0.2,1.2-0.7,1.6s-1.1,0.6-1.9,0.6
			c-0.9,0-1.7-0.3-2.2-0.9s-0.8-1.4-0.8-2.3v-0.2c0-0.9,0.3-1.7,0.8-2.3s1.3-0.9,2.2-0.9c0.5,0,1,0.1,1.4,0.2s0.7,0.4,1,0.6l0,1.7
			h-1.4l-0.3-1c-0.1-0.1-0.2-0.1-0.3-0.2s-0.3-0.1-0.4-0.1c-0.5,0-0.8,0.2-1,0.5s-0.3,0.8-0.3,1.4v0.2c0,0.6,0.1,1,0.3,1.4
			S440.2,174.8,440.6,174.8z"/>
	</g>
	<g class="st3">
		<path class="st4" d="M444.1,174.9l0.8-0.2v-3.9l-0.9-0.2v-1h2.5l0.1,0.9c0.1-0.3,0.3-0.6,0.6-0.8s0.5-0.3,0.8-0.3
			c0.1,0,0.2,0,0.3,0s0.2,0,0.2,0l-0.2,1.6l-0.7,0c-0.3,0-0.5,0-0.6,0.1s-0.3,0.2-0.4,0.4v3.1l0.8,0.2v1h-3.4V174.9z"/>
	</g>
	<g class="st3">
		<path class="st4" d="M448.9,172.7c0-0.9,0.3-1.7,0.8-2.3s1.3-0.9,2.2-0.9c0.9,0,1.7,0.3,2.2,0.9s0.8,1.4,0.8,2.3v0.1
			c0,1-0.3,1.7-0.8,2.3s-1.3,0.9-2.2,0.9c-0.9,0-1.7-0.3-2.2-0.9s-0.8-1.4-0.8-2.3V172.7z M450.6,172.8c0,0.6,0.1,1,0.3,1.4
			s0.5,0.5,1,0.5c0.4,0,0.8-0.2,1-0.5s0.3-0.8,0.3-1.4v-0.1c0-0.6-0.1-1-0.3-1.4s-0.5-0.5-1-0.5s-0.8,0.2-1,0.5s-0.3,0.8-0.3,1.4
			V172.8z"/>
		<path class="st4" d="M460.8,171.8h-1.1l-0.2-0.8c-0.1-0.1-0.3-0.2-0.4-0.2s-0.4-0.1-0.6-0.1c-0.3,0-0.5,0.1-0.7,0.2
			s-0.3,0.3-0.3,0.5c0,0.2,0.1,0.4,0.3,0.5s0.5,0.2,1,0.3c0.8,0.2,1.4,0.4,1.7,0.7s0.6,0.7,0.6,1.3c0,0.6-0.2,1-0.7,1.4
			s-1.1,0.5-1.9,0.5c-0.5,0-0.9-0.1-1.3-0.2s-0.8-0.3-1.1-0.6l0-1.4h1.2l0.2,0.8c0.1,0.1,0.2,0.1,0.4,0.2s0.4,0.1,0.6,0.1
			c0.3,0,0.6-0.1,0.8-0.2s0.3-0.3,0.3-0.5c0-0.2-0.1-0.3-0.3-0.5s-0.5-0.3-1-0.4c-0.7-0.2-1.3-0.4-1.7-0.7s-0.6-0.7-0.6-1.2
			c0-0.5,0.2-1,0.7-1.4s1.1-0.6,1.9-0.6c0.5,0,1,0.1,1.4,0.2s0.8,0.3,1,0.5L460.8,171.8z"/>
		<path class="st4" d="M464.8,176.1c-0.9,0-1.6-0.3-2.2-0.9s-0.8-1.3-0.8-2.2v-0.2c0-0.9,0.3-1.7,0.8-2.3s1.2-0.9,2.1-0.9
			c0.9,0,1.5,0.3,2,0.8s0.7,1.2,0.7,2.1v0.9h-3.8l0,0c0,0.4,0.2,0.8,0.4,1s0.6,0.4,1,0.4c0.4,0,0.7,0,0.9-0.1s0.5-0.2,0.8-0.4
			l0.5,1.1c-0.3,0.2-0.6,0.4-1,0.5S465.3,176.1,464.8,176.1z M464.7,170.8c-0.3,0-0.6,0.1-0.8,0.4s-0.3,0.6-0.3,1l0,0h2.1V172
			c0-0.4-0.1-0.7-0.3-0.9S465,170.8,464.7,170.8z"/>
	</g>
	<g class="st3">
		<path class="st4" d="M468.3,174.9l0.8-0.2v-3.9l-0.9-0.2v-1h2.5l0.1,0.9c0.1-0.3,0.3-0.6,0.6-0.8s0.5-0.3,0.8-0.3
			c0.1,0,0.2,0,0.3,0s0.2,0,0.2,0l-0.2,1.6l-0.7,0c-0.3,0-0.5,0-0.6,0.1s-0.3,0.2-0.4,0.4v3.1l0.8,0.2v1h-3.4V174.9z"/>
	</g>
	<g class="st3">
		<path class="st4" d="M476,170.6l-0.6,0.1l0.8,2.8l0.1,0.6h0l0.1-0.6l0.8-2.8l-0.6-0.1v-1h2.9v1l-0.6,0.1l-1.9,5.2h-1.6l-1.9-5.2
			l-0.6-0.1v-1h2.9V170.6z"/>
		<path class="st4" d="M480.1,174.9l0.8-0.2v-3.9l-0.9-0.2v-1h2.6v5.1l0.8,0.2v1h-3.4V174.9z M482.7,168.1H481v-1.3h1.7V168.1z"/>
		<path class="st4" d="M487,174.8c0.3,0,0.5-0.1,0.7-0.3s0.3-0.4,0.3-0.7h1.5l0,0c0,0.6-0.2,1.2-0.7,1.6s-1.1,0.6-1.9,0.6
			c-0.9,0-1.7-0.3-2.2-0.9s-0.8-1.4-0.8-2.3v-0.2c0-0.9,0.3-1.7,0.8-2.3s1.3-0.9,2.2-0.9c0.5,0,1,0.1,1.4,0.2s0.7,0.4,1,0.6l0,1.7
			h-1.4l-0.3-1c-0.1-0.1-0.2-0.1-0.3-0.2s-0.3-0.1-0.4-0.1c-0.5,0-0.8,0.2-1,0.5s-0.3,0.8-0.3,1.4v0.2c0,0.6,0.1,1,0.3,1.4
			S486.6,174.8,487,174.8z"/>
		<path class="st4" d="M493.4,176.1c-0.9,0-1.6-0.3-2.2-0.9s-0.8-1.3-0.8-2.2v-0.2c0-0.9,0.3-1.7,0.8-2.3s1.2-0.9,2.1-0.9
			c0.9,0,1.5,0.3,2,0.8s0.7,1.2,0.7,2.1v0.9h-3.8l0,0c0,0.4,0.2,0.8,0.4,1s0.6,0.4,1,0.4c0.4,0,0.7,0,0.9-0.1s0.5-0.2,0.8-0.4
			l0.5,1.1c-0.3,0.2-0.6,0.4-1,0.5S493.9,176.1,493.4,176.1z M493.3,170.8c-0.3,0-0.6,0.1-0.8,0.4s-0.3,0.6-0.3,1l0,0h2.1V172
			c0-0.4-0.1-0.7-0.3-0.9S493.6,170.8,493.3,170.8z"/>
	</g>
	<g class="st3">
		<path class="st4" d="M269.1,233.1c0-0.1-0.1-0.2-0.1-0.3c0-0.1-0.1-0.2-0.1-0.3c-0.2,0.2-0.4,0.4-0.6,0.5
			c-0.2,0.1-0.5,0.2-0.8,0.2c-0.5,0-0.9-0.1-1.2-0.4c-0.3-0.3-0.5-0.7-0.5-1.1c0-0.5,0.2-0.9,0.6-1.1c0.4-0.3,1-0.4,1.7-0.4h0.7
			v-0.5c0-0.3-0.1-0.5-0.2-0.6s-0.4-0.2-0.6-0.2c-0.2,0-0.3,0-0.4,0.1c-0.1,0-0.2,0.1-0.3,0.1l-0.1,0.6h-1.1l0-1.2
			c0.3-0.2,0.6-0.3,0.9-0.4s0.7-0.2,1.1-0.2c0.7,0,1.2,0.2,1.6,0.5c0.4,0.3,0.6,0.8,0.6,1.4v2.2c0,0.1,0,0.2,0,0.2
			c0,0.1,0,0.1,0,0.2l0.4,0.1v0.9H269.1z M267.9,232.2c0.2,0,0.4,0,0.6-0.1c0.2-0.1,0.3-0.2,0.4-0.3v-0.8h-0.7
			c-0.3,0-0.5,0.1-0.7,0.2c-0.2,0.1-0.2,0.3-0.2,0.5c0,0.2,0.1,0.3,0.2,0.4C267.5,232.1,267.7,232.2,267.9,232.2z"/>
		<path class="st4" d="M271.2,228.7v-0.9h2.1l0.1,0.6c0.2-0.2,0.3-0.4,0.6-0.5c0.2-0.1,0.5-0.2,0.8-0.2c0.7,0,1.2,0.3,1.5,0.8
			s0.5,1.2,0.5,2v0.1c0,0.8-0.2,1.4-0.5,1.9s-0.9,0.7-1.5,0.7c-0.3,0-0.5-0.1-0.7-0.2c-0.2-0.1-0.4-0.3-0.6-0.5v1.5l0.7,0.1v0.9
			h-2.8v-0.9l0.7-0.1v-5.3L271.2,228.7z M275.3,230.5c0-0.5-0.1-0.9-0.2-1.2s-0.4-0.5-0.8-0.5c-0.2,0-0.4,0-0.5,0.1
			s-0.3,0.2-0.4,0.4v2.3c0.1,0.1,0.2,0.3,0.4,0.3s0.3,0.1,0.6,0.1c0.3,0,0.6-0.1,0.8-0.4s0.2-0.6,0.2-1.1V230.5z"/>
	</g>
	<g class="st3">
		<path class="st4" d="M277.2,228.7v-0.9h2.1l0.1,0.6c0.2-0.2,0.3-0.4,0.6-0.5s0.5-0.2,0.8-0.2c0.7,0,1.2,0.3,1.5,0.8s0.5,1.2,0.5,2
			v0.1c0,0.8-0.2,1.4-0.5,1.9s-0.9,0.7-1.5,0.7c-0.3,0-0.5-0.1-0.7-0.2c-0.2-0.1-0.4-0.3-0.6-0.5v1.5l0.7,0.1v0.9h-2.8v-0.9l0.7-0.1
			v-5.3L277.2,228.7z M281.3,230.5c0-0.5-0.1-0.9-0.2-1.2s-0.4-0.5-0.8-0.5c-0.2,0-0.4,0-0.5,0.1s-0.3,0.2-0.4,0.4v2.3
			c0.1,0.1,0.2,0.3,0.4,0.3s0.3,0.1,0.6,0.1c0.3,0,0.6-0.1,0.8-0.4s0.2-0.6,0.2-1.1V230.5z"/>
	</g>
	<g class="st3">
		<path class="st4" d="M283.1,226.4v-0.9h2.2v6.6l0.7,0.1v0.9h-2.8v-0.9l0.7-0.1v-5.6L283.1,226.4z"/>
		<path class="st4" d="M286.4,232.3l0.7-0.1v-3.3l-0.8-0.1v-0.9h2.2v4.3l0.7,0.1v0.9h-2.8V232.3z M288.5,226.6h-1.4v-1.1h1.4V226.6z
			"/>
		<path class="st4" d="M292.2,232.1c0.3,0,0.5-0.1,0.6-0.2c0.2-0.1,0.2-0.3,0.2-0.6h1.3l0,0c0,0.5-0.2,1-0.6,1.3
			c-0.4,0.4-0.9,0.5-1.5,0.5c-0.8,0-1.4-0.2-1.8-0.7c-0.4-0.5-0.6-1.1-0.6-1.9v-0.1c0-0.8,0.2-1.4,0.7-1.9c0.4-0.5,1.1-0.8,1.9-0.8
			c0.4,0,0.8,0.1,1.1,0.2c0.3,0.1,0.6,0.3,0.8,0.5l0,1.4h-1.2l-0.2-0.8c-0.1-0.1-0.2-0.1-0.3-0.2c-0.1,0-0.2-0.1-0.4-0.1
			c-0.4,0-0.7,0.1-0.9,0.4s-0.2,0.7-0.2,1.1v0.1c0,0.5,0.1,0.9,0.2,1.1C291.5,232,291.8,232.1,292.2,232.1z"/>
	</g>
	<g class="st3">
		<path class="st4" d="M298.3,233.1c0-0.1-0.1-0.2-0.1-0.3c0-0.1-0.1-0.2-0.1-0.3c-0.2,0.2-0.4,0.4-0.6,0.5
			c-0.2,0.1-0.5,0.2-0.8,0.2c-0.5,0-0.9-0.1-1.2-0.4c-0.3-0.3-0.5-0.7-0.5-1.1c0-0.5,0.2-0.9,0.6-1.1s1-0.4,1.7-0.4h0.7v-0.5
			c0-0.3-0.1-0.5-0.2-0.6s-0.4-0.2-0.6-0.2c-0.2,0-0.3,0-0.4,0.1c-0.1,0-0.2,0.1-0.3,0.1l-0.1,0.6h-1.1l0-1.2
			c0.3-0.2,0.6-0.3,0.9-0.4s0.7-0.2,1.1-0.2c0.7,0,1.2,0.2,1.6,0.5c0.4,0.3,0.6,0.8,0.6,1.4v2.2c0,0.1,0,0.2,0,0.2
			c0,0.1,0,0.1,0,0.2l0.4,0.1v0.9H298.3z M297.1,232.2c0.2,0,0.4,0,0.6-0.1c0.2-0.1,0.3-0.2,0.4-0.3v-0.8h-0.7
			c-0.3,0-0.5,0.1-0.7,0.2c-0.2,0.1-0.2,0.3-0.2,0.5c0,0.2,0.1,0.3,0.2,0.4S296.9,232.2,297.1,232.2z"/>
	</g>
	<g class="st3">
		<path class="st4" d="M302.2,226.6v1.3h0.9v1h-0.9v2.7c0,0.2,0,0.4,0.1,0.4c0.1,0.1,0.2,0.1,0.3,0.1c0.1,0,0.2,0,0.3,0
			c0.1,0,0.2,0,0.2,0l0.1,1c-0.2,0-0.3,0.1-0.5,0.1c-0.2,0-0.3,0-0.5,0c-0.5,0-0.9-0.1-1.1-0.4c-0.3-0.3-0.4-0.7-0.4-1.3v-2.7H300
			v-1h0.8v-1.3H302.2z"/>
		<path class="st4" d="M303.8,232.3l0.7-0.1v-3.3l-0.8-0.1v-0.9h2.2v4.3l0.7,0.1v0.9h-2.8V232.3z M305.9,226.6h-1.4v-1.1h1.4V226.6z
			"/>
		<path class="st4" d="M307,230.4c0-0.8,0.2-1.4,0.7-1.9c0.4-0.5,1.1-0.8,1.8-0.8c0.8,0,1.4,0.3,1.8,0.8c0.4,0.5,0.7,1.1,0.7,1.9
			v0.1c0,0.8-0.2,1.4-0.7,1.9c-0.4,0.5-1,0.7-1.8,0.7c-0.8,0-1.4-0.3-1.8-0.7c-0.4-0.5-0.7-1.1-0.7-1.9V230.4z M308.4,230.6
			c0,0.5,0.1,0.9,0.3,1.2c0.2,0.3,0.4,0.4,0.8,0.4c0.4,0,0.6-0.1,0.8-0.4s0.3-0.7,0.3-1.2v-0.1c0-0.5-0.1-0.9-0.3-1.1
			c-0.2-0.3-0.4-0.4-0.8-0.4s-0.6,0.1-0.8,0.4c-0.2,0.3-0.3,0.7-0.3,1.1V230.6z"/>
		<path class="st4" d="M312.5,232.3l0.7-0.1v-3.3l-0.8-0.1v-0.9h2.1l0.1,0.8c0.2-0.3,0.4-0.5,0.6-0.6c0.3-0.1,0.5-0.2,0.9-0.2
			c0.5,0,1,0.2,1.3,0.5c0.3,0.3,0.4,0.9,0.4,1.6v2.3l0.7,0.1v0.9h-2.7v-0.9l0.6-0.1v-2.3c0-0.4-0.1-0.6-0.2-0.8
			c-0.1-0.1-0.4-0.2-0.6-0.2c-0.2,0-0.4,0-0.5,0.1c-0.1,0.1-0.3,0.2-0.4,0.3v2.8l0.6,0.1v0.9h-2.7V232.3z"/>
		<path class="st4" d="M321.3,232.3l0.5-0.1l2.2-6.2h1.5l2.1,6.2l0.5,0.1v0.9h-2.4v-0.9l0.5-0.1l-0.3-1h-2.3l-0.3,1l0.5,0.1v0.9
			h-2.4V232.3z M323.9,230.2h1.6l-0.8-2.5h0L323.9,230.2z"/>
	</g>
	<path class="st5" d="M451.8,123c4.6-4.5,12.1-4.5,16.6,0.1s4.5,12.1-0.1,16.6c-4.6,4.5-12.1,4.5-16.6-0.1c-2.2-2.2-3.4-5.1-3.4-8.2
		c0-2.6,0.8-5.1,2.4-7.1"/>
	<path class="st6" d="M459.7,137h-4.2c-0.6,0-0.8-0.2-0.8-0.8v-6.5c0-0.6,0.2-0.8,0.8-0.8h8.5c0.5,0,0.8,0.2,0.8,0.8v6.5
		c0,0.5-0.2,0.8-0.8,0.8C462.5,137,461.1,137,459.7,137z"/>
	<path class="st6" d="M455.4,128.4c0-1.8,1-3.4,2.6-4.1c2.1-0.9,4.6,0,5.5,2.1c0.1,0.2,0.2,0.5,0.2,0.7c0.1,0.4,0.1,0.8,0.2,1.2"/>
	<path class="st4" d="M459,134.2L459,134.2v0.9c0,0.2,0.1,0.2,0.3,0.2h0.8c0.2,0,0.3-0.1,0.3-0.3v-1.6c0-0.2,0.1-0.3,0.2-0.4
		c0.5-0.3,0.8-0.9,0.6-1.4c-0.2-0.6-0.8-1-1.5-1c-0.7-0.1-1.3,0.3-1.6,0.9c-0.2,0.6,0,1.2,0.5,1.5c0.2,0.1,0.3,0.3,0.3,0.5
		C459,133.7,459,134,459,134.2z"/>
	<g id="Scone_logo_white-2">
		<g>
			<defs>
				<rect id="SVGID_8_" x="440.5" y="194" width="36.3" height="7.1"/>
			</defs>
			<clipPath id="SVGID_9_">
				<use xlink:href="#SVGID_8_"  style="overflow:visible;"/>
			</clipPath>
			<g class="st12">
				<g>
					<defs>
						<rect id="SVGID_10_" x="440.5" y="194" width="36.3" height="7.1"/>
					</defs>
					<clipPath id="SVGID_11_">
						<use xlink:href="#SVGID_10_"  style="overflow:visible;"/>
					</clipPath>
					<g class="st13">
						<path class="st9" d="M445.3,195.8h-0.8c-0.2,0-0.3,0.1-0.3,0.3l0,0v0.8c0,0.2,0.1,0.3,0.3,0.3l0,0h0.8c0.2,0,0.3-0.1,0.3-0.3
							l0,0v-0.8C445.6,195.9,445.5,195.8,445.3,195.8L445.3,195.8 M442.7,197.2h0.8c0.2,0,0.3-0.1,0.3-0.3l0,0v-0.8
							c0-0.2-0.1-0.3-0.3-0.3l0,0h-0.8c-0.2,0-0.3,0.1-0.3,0.3v0.8C442.4,197,442.5,197.2,442.7,197.2 M441.9,196.9v-0.8
							c0-0.2-0.1-0.3-0.3-0.3h-0.8c-0.2,0-0.3,0.1-0.3,0.3l0,0v0.8c0,0.2,0.1,0.3,0.3,0.3l0,0h0.8
							C441.7,197.2,441.9,197,441.9,196.9 M445.4,197.7c-0.1,0-0.2,0.1-0.2,0.2v0.9c0,0.1,0.1,0.2,0.2,0.2c0.1,0,0.2-0.1,0.2-0.2
							l0,0v-0.9C445.6,197.8,445.5,197.7,445.4,197.7C445.4,197.7,445.4,197.7,445.4,197.7 M443.3,198v0.8c0,0.2,0.1,0.3,0.3,0.3
							l0,0h0.8c0.2,0,0.3-0.1,0.3-0.3c0,0,0,0,0,0V198c0-0.2-0.1-0.3-0.3-0.3c0,0,0,0,0,0h-0.8C443.4,197.7,443.3,197.8,443.3,198
							L443.3,198 M442.7,198.8V198c0-0.2-0.1-0.3-0.3-0.3l0,0h-0.8c-0.2,0-0.3,0.1-0.3,0.3c0,0,0,0,0,0v0.8c0,0.2,0.1,0.3,0.3,0.3
							c0,0,0,0,0,0h0.8C442.6,199.1,442.7,198.9,442.7,198.8L442.7,198.8 M445.3,199.6h-0.8c-0.2,0-0.3,0.1-0.3,0.3v0.8
							c0,0.2,0.1,0.3,0.3,0.3l0,0h0.8c0.2,0,0.3-0.1,0.3-0.3l0,0v-0.8C445.6,199.7,445.5,199.6,445.3,199.6 M443.3,199.6h-0.8
							c-0.2,0-0.3,0.1-0.3,0.3v0.8c0,0.2,0.1,0.3,0.3,0.3l0,0h0.8c0.2,0,0.3-0.1,0.3-0.3l0,0v-0.8
							C443.6,199.7,443.5,199.6,443.3,199.6"/>
						<path class="st9" d="M446.3,195.5c0.3,0.3,0.8,0.4,1.2,0.4c0,0,0,0,0,0.1v2.1c0,0.8-1,1.3-1.2,1.4l0,0L446.3,195.5
							L446.3,195.5"/>
						<path class="st9" d="M444,195.4c1.6-0.1,1.9-0.6,1.9-0.6c0,0,0.1,0,0.1,0c0,0,0,0,0.1,0s0.3,0.6,1.9,0.6c0,0,0.1,0,0.1,0.1
							v2.8c0,0.9-1.7,1.9-1.7,1.9l-0.1,0.1v0.7c0,0,0.1,0,0.1,0c0.6-0.3,2.3-1.3,2.3-2.5v-3.5c0-0.1-0.1-0.1-0.2-0.1
							c-2,0-2.4-0.7-2.4-0.7s-0.1,0-0.1,0s-0.1,0-0.1,0s-0.3,0.8-2.4,0.8c-0.1,0-0.1,0-0.1,0.1v0.4c0,0,0,0.1,0.1,0.1
							S444,195.4,444,195.4"/>
						<path class="st10" d="M450.1,199.9l0.8-0.3c0.2,0.4,0.6,0.6,1.1,0.6c0.2,0,0.4,0,0.6-0.1c0.2-0.1,0.3-0.3,0.3-0.4
							c0-0.4-0.6-0.7-1-0.9l0,0c-0.4-0.1-0.7-0.3-1-0.5c-0.3-0.2-0.5-0.6-0.5-1c0-0.4,0.2-0.8,0.5-1c0.3-0.3,0.8-0.4,1.2-0.4
							c0.7,0,1.3,0.3,1.6,0.9l-0.9,0.3c-0.1-0.1-0.2-0.2-0.3-0.3c-0.1-0.1-0.3-0.1-0.5-0.1c-0.5,0-0.8,0.3-0.8,0.6
							c0,0.2,0.1,0.4,0.3,0.5c0.2,0.1,0.5,0.3,0.7,0.4h0.1c0.6,0.3,1.4,0.6,1.4,1.4c0,0.4-0.2,0.8-0.6,1c-0.4,0.3-0.9,0.5-1.4,0.5
							C451.2,201,450.5,200.6,450.1,199.9"/>
						<path class="st10" d="M457.4,201c-0.3,0-0.7-0.1-1-0.2c-0.3-0.1-0.6-0.3-0.8-0.6c-0.2-0.2-0.4-0.5-0.6-0.8
							c-0.3-0.6-0.3-1.4,0-2c0.1-0.3,0.3-0.6,0.6-0.8c0.2-0.2,0.5-0.4,0.8-0.6c0.3-0.1,0.7-0.2,1-0.2c0.4,0,0.8,0.1,1.2,0.3
							c0.3,0.2,0.7,0.4,0.9,0.7l-0.7,0.5c-0.2-0.2-0.4-0.4-0.6-0.5c-0.2-0.1-0.5-0.2-0.8-0.2c-1,0-1.7,0.8-1.7,1.7s0.8,1.7,1.7,1.7
							c0.6,0,1.2-0.3,1.5-0.9l0.8,0.4c-0.2,0.4-0.5,0.8-0.9,1C458.3,200.9,457.9,201.1,457.4,201"/>
						<path class="st10" d="M463.1,201c-0.3,0-0.7-0.1-1-0.2c-0.3-0.1-0.6-0.3-0.8-0.6c-0.2-0.2-0.4-0.5-0.5-0.8
							c-0.1-0.3-0.2-0.7-0.2-1c0-0.3,0.1-0.7,0.2-1c0.1-0.3,0.3-0.6,0.5-0.8c0.2-0.2,0.5-0.4,0.8-0.6c0.6-0.3,1.4-0.3,2,0
							c0.3,0.1,0.6,0.3,0.8,0.6c0.2,0.2,0.4,0.5,0.6,0.8c0.1,0.3,0.2,0.7,0.2,1c0,0.3-0.1,0.7-0.2,1c-0.1,0.3-0.3,0.6-0.6,0.8
							c-0.2,0.2-0.5,0.4-0.8,0.6C463.7,200.9,463.4,201,463.1,201 M463.1,196.7c-0.5,0-0.9,0.2-1.2,0.5c-0.3,0.3-0.5,0.8-0.5,1.2
							c0,0.5,0.2,0.9,0.5,1.2c0.3,0.3,0.8,0.5,1.2,0.5c0.5,0,0.9-0.2,1.2-0.5c0.3-0.3,0.5-0.8,0.5-1.2c0-0.5-0.2-0.9-0.5-1.2
							C464,196.8,463.5,196.7,463.1,196.7"/>
						<polygon class="st10" points="471.5,195.8 471.5,201.1 467.9,197.8 467.9,200.9 467,200.9 467,195.6 470.6,199 470.6,195.8 
													"/>
						<polygon class="st10" points="474,196.6 474,198 476.5,198 476.5,198.8 474,198.8 474,200.1 476.9,200.1 476.9,200.9 
							473.1,200.9 473.1,195.8 476.9,195.8 476.9,196.6 474,196.6 						"/>
					</g>
				</g>
			</g>
		</g>
	</g>
	
		<linearGradient id="SVGID_12_" gradientUnits="userSpaceOnUse" x1="68.8" y1="94.51" x2="194.46" y2="94.51" gradientTransform="matrix(1 0 0 -1 0 266)">
		<stop  offset="0" style="stop-color:#990066"/>
		<stop  offset="0.19" style="stop-color:#780066"/>
		<stop  offset="0.4" style="stop-color:#5A0066"/>
		<stop  offset="0.61" style="stop-color:#440066"/>
		<stop  offset="0.81" style="stop-color:#370066"/>
		<stop  offset="1" style="stop-color:#330066"/>
	</linearGradient>
	<path class="st14" d="M73.8,133.7h115.7c2.8,0,5,2.2,5,5v65.5c0,2.8-2.2,5-5,5H73.8c-2.8,0-5-2.2-5-5v-65.5
		C68.8,136,71,133.7,73.8,133.7z"/>
	<path class="st2" d="M73.8,133.7h115.7c2.8,0,5,2.2,5,5v65.5c0,2.8-2.2,5-5,5H73.8c-2.8,0-5-2.2-5-5v-65.5
		C68.8,136,71,133.7,73.8,133.7z"/>
	<g class="st3">
		<path class="st4" d="M101.9,169.6L101.9,169.6l-2.3,6.3h-1.1l-2.3-6.3l0,0l0.2,3.7v1.3l0.9,0.2v1h-3.5v-1l0.9-0.2v-6.1l-0.9-0.2
			v-1h0.9h2.2l2.2,6.3h0l2.2-6.3h3.2v1l-0.9,0.2v6.1l0.9,0.2v1h-3.5v-1l0.9-0.2v-1.3L101.9,169.6z"/>
		<path class="st4" d="M104.9,174.9l0.8-0.2v-3.9l-0.9-0.2v-1h2.6v5.1l0.8,0.2v1h-3.4V174.9z M107.5,168.1h-1.7v-1.3h1.7V168.1z"/>
		<path class="st4" d="M111.8,174.8c0.3,0,0.5-0.1,0.7-0.3s0.3-0.4,0.3-0.7h1.5l0,0c0,0.6-0.2,1.2-0.7,1.6s-1.1,0.6-1.9,0.6
			c-0.9,0-1.7-0.3-2.2-0.9s-0.8-1.4-0.8-2.3v-0.2c0-0.9,0.3-1.7,0.8-2.3s1.3-0.9,2.2-0.9c0.5,0,1,0.1,1.4,0.2s0.7,0.4,1,0.6l0,1.7
			h-1.4l-0.3-1c-0.1-0.1-0.2-0.1-0.3-0.2s-0.3-0.1-0.4-0.1c-0.5,0-0.8,0.2-1,0.5s-0.3,0.8-0.3,1.4v0.2c0,0.6,0.1,1,0.3,1.4
			S111.4,174.8,111.8,174.8z"/>
	</g>
	<g class="st3">
		<path class="st4" d="M115.3,174.9l0.8-0.2v-3.9l-0.9-0.2v-1h2.5l0.1,0.9c0.1-0.3,0.3-0.6,0.6-0.8s0.5-0.3,0.8-0.3
			c0.1,0,0.2,0,0.3,0s0.2,0,0.2,0l-0.2,1.6l-0.7,0c-0.3,0-0.5,0-0.6,0.1s-0.3,0.2-0.4,0.4v3.1l0.8,0.2v1h-3.4V174.9z"/>
	</g>
	<g class="st3">
		<path class="st4" d="M120.1,172.7c0-0.9,0.3-1.7,0.8-2.3s1.3-0.9,2.2-0.9c0.9,0,1.7,0.3,2.2,0.9s0.8,1.4,0.8,2.3v0.1
			c0,1-0.3,1.7-0.8,2.3s-1.3,0.9-2.2,0.9c-0.9,0-1.7-0.3-2.2-0.9s-0.8-1.4-0.8-2.3V172.7z M121.8,172.8c0,0.6,0.1,1,0.3,1.4
			s0.5,0.5,1,0.5c0.4,0,0.8-0.2,1-0.5s0.3-0.8,0.3-1.4v-0.1c0-0.6-0.1-1-0.3-1.4s-0.5-0.5-1-0.5s-0.8,0.2-1,0.5s-0.3,0.8-0.3,1.4
			V172.8z"/>
		<path class="st4" d="M132,171.8h-1.1l-0.2-0.8c-0.1-0.1-0.3-0.2-0.4-0.2s-0.4-0.1-0.6-0.1c-0.3,0-0.5,0.1-0.7,0.2
			s-0.3,0.3-0.3,0.5c0,0.2,0.1,0.4,0.3,0.5s0.5,0.2,1,0.3c0.8,0.2,1.4,0.4,1.7,0.7s0.6,0.7,0.6,1.3c0,0.6-0.2,1-0.7,1.4
			s-1.1,0.5-1.9,0.5c-0.5,0-0.9-0.1-1.3-0.2s-0.8-0.3-1.1-0.6l0-1.4h1.2l0.2,0.8c0.1,0.1,0.2,0.1,0.4,0.2s0.4,0.1,0.6,0.1
			c0.3,0,0.6-0.1,0.8-0.2s0.3-0.3,0.3-0.5c0-0.2-0.1-0.3-0.3-0.5s-0.5-0.3-1-0.4c-0.7-0.2-1.3-0.4-1.7-0.7s-0.6-0.7-0.6-1.2
			c0-0.5,0.2-1,0.7-1.4s1.1-0.6,1.9-0.6c0.5,0,1,0.1,1.4,0.2s0.8,0.3,1,0.5L132,171.8z"/>
		<path class="st4" d="M136,176.1c-0.9,0-1.6-0.3-2.2-0.9s-0.8-1.3-0.8-2.2v-0.2c0-0.9,0.3-1.7,0.8-2.3s1.2-0.9,2.1-0.9
			c0.9,0,1.5,0.3,2,0.8s0.7,1.2,0.7,2.1v0.9h-3.8l0,0c0,0.4,0.2,0.8,0.4,1s0.6,0.4,1,0.4c0.4,0,0.7,0,0.9-0.1s0.5-0.2,0.8-0.4
			l0.5,1.1c-0.3,0.2-0.6,0.4-1,0.5S136.5,176.1,136,176.1z M135.9,170.8c-0.3,0-0.6,0.1-0.8,0.4s-0.3,0.6-0.3,1l0,0h2.1V172
			c0-0.4-0.1-0.7-0.3-0.9S136.2,170.8,135.9,170.8z"/>
	</g>
	<g class="st3">
		<path class="st4" d="M139.5,174.9l0.8-0.2v-3.9l-0.9-0.2v-1h2.5l0.1,0.9c0.1-0.3,0.3-0.6,0.6-0.8s0.5-0.3,0.8-0.3
			c0.1,0,0.2,0,0.3,0s0.2,0,0.2,0l-0.2,1.6l-0.7,0c-0.3,0-0.5,0-0.6,0.1s-0.3,0.2-0.4,0.4v3.1l0.8,0.2v1h-3.4V174.9z"/>
	</g>
	<g class="st3">
		<path class="st4" d="M147.2,170.6l-0.6,0.1l0.8,2.8l0.1,0.6h0l0.1-0.6l0.8-2.8l-0.6-0.1v-1h2.9v1l-0.6,0.1l-1.9,5.2h-1.6l-1.9-5.2
			l-0.6-0.1v-1h2.9V170.6z"/>
		<path class="st4" d="M151.3,174.9l0.8-0.2v-3.9l-0.9-0.2v-1h2.6v5.1l0.8,0.2v1h-3.4V174.9z M153.9,168.1h-1.7v-1.3h1.7V168.1z"/>
		<path class="st4" d="M158.2,174.8c0.3,0,0.5-0.1,0.7-0.3s0.3-0.4,0.3-0.7h1.5l0,0c0,0.6-0.2,1.2-0.7,1.6s-1.1,0.6-1.9,0.6
			c-0.9,0-1.7-0.3-2.2-0.9s-0.8-1.4-0.8-2.3v-0.2c0-0.9,0.3-1.7,0.8-2.3s1.3-0.9,2.2-0.9c0.5,0,1,0.1,1.4,0.2s0.7,0.4,1,0.6l0,1.7
			h-1.4l-0.3-1c-0.1-0.1-0.2-0.1-0.3-0.2s-0.3-0.1-0.4-0.1c-0.5,0-0.8,0.2-1,0.5s-0.3,0.8-0.3,1.4v0.2c0,0.6,0.1,1,0.3,1.4
			S157.8,174.8,158.2,174.8z"/>
		<path class="st4" d="M164.6,176.1c-0.9,0-1.6-0.3-2.2-0.9s-0.8-1.3-0.8-2.2v-0.2c0-0.9,0.3-1.7,0.8-2.3s1.2-0.9,2.1-0.9
			c0.9,0,1.5,0.3,2,0.8s0.7,1.2,0.7,2.1v0.9h-3.8l0,0c0,0.4,0.2,0.8,0.4,1s0.6,0.4,1,0.4c0.4,0,0.7,0,0.9-0.1s0.5-0.2,0.8-0.4
			l0.5,1.1c-0.3,0.2-0.6,0.4-1,0.5S165.1,176.1,164.6,176.1z M164.5,170.8c-0.3,0-0.6,0.1-0.8,0.4s-0.3,0.6-0.3,1l0,0h2.1V172
			c0-0.4-0.1-0.7-0.3-0.9S164.8,170.8,164.5,170.8z"/>
	</g>
	<path class="st5" d="M123,123c4.6-4.5,12.1-4.5,16.6,0.2c4.5,4.6,4.5,12.1-0.2,16.6c-4.6,4.5-12.1,4.5-16.6-0.2
		c-2.1-2.2-3.3-5.1-3.4-8.2c0-2.6,0.8-5.1,2.4-7.1"/>
	<path class="st6" d="M130.9,137h-4.3c-0.6,0-0.8-0.2-0.8-0.8v-6.5c0-0.6,0.2-0.8,0.8-0.8h8.5c0.5,0,0.8,0.2,0.8,0.8v6.5
		c0,0.5-0.2,0.8-0.8,0.8C133.7,137,132.3,137,130.9,137z"/>
	<path class="st6" d="M126.6,128.4c0-1.8,1-3.4,2.6-4.1c2.1-0.9,4.6,0,5.5,2.1c0.1,0.2,0.2,0.5,0.2,0.7c0.1,0.4,0.1,0.8,0.2,1.2"/>
	<path class="st4" d="M130.2,134.2L130.2,134.2v0.9c0,0.2,0.1,0.2,0.3,0.2h0.8c0.2,0,0.3-0.1,0.3-0.3v-1.6c0-0.2,0.1-0.3,0.2-0.4
		c0.5-0.3,0.8-0.9,0.6-1.4c-0.2-0.6-0.8-1-1.4-1c-0.7-0.1-1.3,0.3-1.6,0.9c-0.2,0.6,0,1.2,0.6,1.5c0.2,0.1,0.3,0.3,0.3,0.5
		C130.2,133.7,130.2,134,130.2,134.2z"/>
	<g id="Scone_logo_white-3">
		<g>
			<defs>
				<rect id="SVGID_13_" x="111.7" y="194" width="36.3" height="7.1"/>
			</defs>
			<clipPath id="SVGID_14_">
				<use xlink:href="#SVGID_13_"  style="overflow:visible;"/>
			</clipPath>
			<g class="st15">
				<g>
					<defs>
						<rect id="SVGID_15_" x="111.7" y="194" width="36.3" height="7.1"/>
					</defs>
					<clipPath id="SVGID_16_">
						<use xlink:href="#SVGID_15_"  style="overflow:visible;"/>
					</clipPath>
					<g class="st16">
						<path class="st9" d="M116.5,195.8h-0.8c-0.2,0-0.3,0.1-0.3,0.3v0.8c0,0.2,0.1,0.3,0.3,0.3h0.8c0.2,0,0.3-0.1,0.3-0.3v-0.8
							C116.8,195.9,116.7,195.8,116.5,195.8 M113.9,197.2h0.8c0.2,0,0.3-0.1,0.3-0.3v-0.8c0-0.2-0.1-0.3-0.3-0.3h-0.8
							c-0.2,0-0.3,0.1-0.3,0.3v0.8C113.6,197,113.7,197.2,113.9,197.2 M113.1,196.9v-0.8c0-0.2-0.1-0.3-0.3-0.3H112
							c-0.2,0-0.3,0.1-0.3,0.3v0.8c0,0.2,0.1,0.3,0.3,0.3h0.8C112.9,197.2,113.1,197,113.1,196.9 M116.6,197.7
							c-0.1,0-0.2,0.1-0.2,0.2l0,0v0.9c0,0.1,0.1,0.2,0.2,0.2l0,0c0.1,0,0.2-0.1,0.2-0.2v-0.9C116.8,197.8,116.7,197.7,116.6,197.7
							C116.6,197.7,116.6,197.7,116.6,197.7 M114.5,198v0.8c0,0.2,0.1,0.3,0.3,0.3h0.8c0.2,0,0.3-0.1,0.3-0.3V198
							c0-0.2-0.1-0.3-0.3-0.3h-0.8C114.6,197.7,114.5,197.8,114.5,198 M113.9,198.8V198c0-0.2-0.1-0.3-0.3-0.3h-0.8
							c-0.2,0-0.3,0.1-0.3,0.3v0.8c0,0.2,0.1,0.3,0.3,0.3h0.8C113.8,199.1,113.9,198.9,113.9,198.8 M116.5,199.6h-0.8
							c-0.2,0-0.3,0.1-0.3,0.3v0.8c0,0.2,0.1,0.3,0.3,0.3h0.8c0.2,0,0.3-0.1,0.3-0.3v-0.8C116.8,199.7,116.7,199.6,116.5,199.6
							 M114.5,199.6h-0.8c-0.2,0-0.3,0.1-0.3,0.3v0.8c0,0.2,0.1,0.3,0.3,0.3h0.8c0.2,0,0.3-0.1,0.3-0.3v-0.8
							C114.8,199.7,114.7,199.6,114.5,199.6"/>
						<path class="st9" d="M117.4,195.5c0.3,0.3,0.8,0.4,1.2,0.4c0,0,0,0,0,0.1v2.1c0,0.8-1,1.3-1.2,1.4l0,0L117.4,195.5
							L117.4,195.5"/>
						<path class="st9" d="M115.2,195.4c1.6-0.1,1.9-0.6,1.9-0.6c0,0,0,0,0.1,0c0,0,0.1,0,0.1,0s0.3,0.6,1.9,0.6c0,0,0.1,0,0.1,0.1
							v2.8c0,0.9-1.7,1.9-1.7,1.9l-0.1,0.1v0.7c0,0,0.1,0,0.2,0c0.6-0.3,2.3-1.3,2.3-2.5v-3.5c0-0.1-0.1-0.1-0.2-0.1
							c-2,0-2.4-0.7-2.4-0.7s-0.1,0-0.1,0s-0.1,0-0.1,0s-0.3,0.8-2.4,0.8c-0.1,0-0.1,0-0.1,0.1v0.4c0,0,0,0.1,0.1,0.1
							S115.2,195.4,115.2,195.4"/>
						<path class="st10" d="M121.3,199.9l0.8-0.3c0.2,0.4,0.6,0.6,1.1,0.6c0.2,0,0.4,0,0.6-0.1c0.2-0.1,0.3-0.3,0.3-0.4
							c0-0.4-0.6-0.7-1-0.9l0,0c-0.4-0.1-0.7-0.3-1-0.5c-0.3-0.2-0.5-0.6-0.5-1c0-0.4,0.2-0.8,0.5-1c0.3-0.3,0.8-0.4,1.2-0.4
							c0.7,0,1.3,0.3,1.6,0.9l-0.8,0.3c-0.1-0.1-0.2-0.2-0.3-0.3c-0.1-0.1-0.3-0.1-0.5-0.1c-0.5,0-0.8,0.3-0.8,0.6
							c0,0.2,0.1,0.4,0.3,0.5c0.2,0.2,0.5,0.3,0.7,0.4h0.1c0.6,0.3,1.4,0.6,1.4,1.4c0,0.4-0.2,0.8-0.6,1c-0.4,0.3-0.9,0.4-1.3,0.4
							C122.4,200.9,121.7,200.5,121.3,199.9"/>
						<path class="st10" d="M128.6,201c-0.3,0-0.7-0.1-1-0.2c-0.3-0.1-0.6-0.3-0.8-0.6c-0.2-0.2-0.4-0.5-0.6-0.8
							c-0.3-0.6-0.3-1.4,0-2c0.1-0.3,0.3-0.6,0.6-0.8c0.5-0.5,1.1-0.8,1.8-0.8c0.4,0,0.8,0.1,1.2,0.3c0.4,0.2,0.7,0.4,0.9,0.7
							l-0.7,0.5c-0.2-0.2-0.4-0.4-0.6-0.5c-0.2-0.1-0.5-0.2-0.8-0.2c-1,0-1.7,0.8-1.7,1.7l0,0c0,1,0.8,1.7,1.7,1.7l0,0
							c0.3,0,0.6-0.1,0.9-0.3c0.3-0.2,0.5-0.4,0.6-0.6l0.7,0.4c-0.2,0.4-0.5,0.8-0.9,1C129.5,200.9,129.1,201.1,128.6,201"/>
						<path class="st10" d="M134.3,201c-0.3,0-0.7-0.1-1-0.2c-0.3-0.1-0.6-0.3-0.8-0.6c-0.2-0.2-0.4-0.5-0.6-0.8
							c-0.1-0.3-0.2-0.7-0.2-1c0-0.3,0.1-0.7,0.2-1c0.1-0.3,0.3-0.6,0.6-0.8c0.2-0.2,0.5-0.4,0.8-0.6c0.3-0.1,0.7-0.2,1-0.2
							c0.3,0,0.7,0.1,1,0.2c0.3,0.1,0.6,0.3,0.8,0.6c0.2,0.2,0.4,0.5,0.6,0.8c0.1,0.3,0.2,0.7,0.2,1c0,0.3-0.1,0.7-0.2,1
							c-0.1,0.3-0.3,0.6-0.6,0.8C135.6,200.7,134.9,201,134.3,201 M134.3,196.7c-0.5,0-0.9,0.2-1.2,0.5c-0.3,0.3-0.5,0.8-0.5,1.2
							c0,0.5,0.2,0.9,0.5,1.2c0.3,0.3,0.8,0.5,1.2,0.5c1,0,1.7-0.8,1.7-1.7c0,0,0,0,0,0C136,197.4,135.2,196.7,134.3,196.7
							C134.3,196.7,134.3,196.7,134.3,196.7"/>
						<polygon class="st10" points="142.7,195.8 142.7,201.1 139.1,197.8 139.1,200.9 138.2,200.9 138.2,195.6 141.8,199 
							141.8,195.8 						"/>
						<polygon class="st10" points="145.2,196.6 145.2,198 147.8,198 147.8,198.8 145.2,198.8 145.2,200.1 148.1,200.1 148.1,200.9 
							144.3,200.9 144.3,195.8 148.1,195.8 148.1,196.6 145.2,196.6 						"/>
					</g>
				</g>
			</g>
		</g>
	</g>
	<line class="st2" x1="459.7" y1="69.6" x2="459.7" y2="112.4"/>
	<polygon class="st4" points="454,74.2 455,75.2 459.7,70.1 464.4,75.2 465.4,74.2 459.7,68.1 	"/>
	<polygon class="st4" points="454,107.8 455,106.8 459.7,111.9 464.4,106.8 465.4,107.8 459.7,113.9 	"/>
	<line class="st2" x1="295.3" y1="69.6" x2="295.3" y2="112.4"/>
	<polygon class="st4" points="289.6,74.2 290.6,75.2 295.3,70.1 300,75.2 301,74.2 295.3,68.1 	"/>
	<polygon class="st4" points="289.6,107.8 290.6,106.8 295.3,111.9 300,106.8 301,107.8 295.3,113.9 	"/>
	<line class="st2" x1="131.4" y1="69.6" x2="131.4" y2="112.4"/>
	<polygon class="st4" points="125.7,74.2 126.8,75.2 131.4,70.1 136.1,75.2 137.2,74.2 131.4,68.1 	"/>
	<polygon class="st4" points="125.7,107.8 126.8,106.8 131.4,111.9 136.1,106.8 137.2,107.8 131.4,113.9 	"/>
	<g class="st3">
		<path class="st17" d="M208.8,83.3c0.3-0.2,0.7-0.3,1.1-0.4c0.4-0.1,0.8-0.1,1.3-0.1c0.4,0,0.8,0.1,1,0.2c0.3,0.1,0.4,0.3,0.6,0.4
			c0.1,0.2,0.2,0.4,0.3,0.6c0,0.2,0.1,0.4,0.1,0.6c0,0.5,0,0.9,0,1.4s0,0.9,0,1.3c0,0.3,0,0.6,0,0.8s0.1,0.5,0.1,0.7h-0.7l-0.3-0.8
			h-0.1c-0.1,0.1-0.2,0.2-0.3,0.3c-0.1,0.1-0.2,0.2-0.4,0.3s-0.3,0.2-0.5,0.2c-0.2,0.1-0.4,0.1-0.7,0.1c-0.3,0-0.5,0-0.7-0.1
			c-0.2-0.1-0.4-0.2-0.6-0.3c-0.2-0.1-0.3-0.3-0.4-0.5c-0.1-0.2-0.1-0.4-0.1-0.7c0-0.4,0.1-0.6,0.2-0.9c0.1-0.2,0.3-0.4,0.6-0.6
			c0.3-0.1,0.6-0.2,0.9-0.3c0.4-0.1,0.8-0.1,1.2-0.1c0.1,0,0.2,0,0.3,0c0.1,0,0.2,0,0.3,0c0-0.2,0-0.5,0-0.6c0-0.4-0.1-0.7-0.3-0.9
			c-0.2-0.2-0.5-0.3-1-0.3c-0.1,0-0.3,0-0.4,0c-0.2,0-0.3,0-0.5,0.1s-0.3,0.1-0.5,0.1s-0.3,0.1-0.4,0.2L208.8,83.3z M210.5,88.1
			c0.2,0,0.4,0,0.6-0.1c0.2-0.1,0.3-0.1,0.5-0.2c0.1-0.1,0.2-0.2,0.3-0.3c0.1-0.1,0.1-0.2,0.2-0.3v-1c-0.1,0-0.2,0-0.3,0
			c-0.1,0-0.2,0-0.3,0c-0.2,0-0.5,0-0.7,0c-0.2,0-0.4,0.1-0.6,0.2c-0.2,0.1-0.3,0.2-0.4,0.3s-0.2,0.3-0.2,0.5c0,0.3,0.1,0.5,0.3,0.7
			C209.9,88,210.2,88.1,210.5,88.1z"/>
		<path class="st17" d="M214,82.9h0.9v-1.2l1-0.3v1.5h1.6v0.8h-1.6V87c0,0.4,0.1,0.7,0.2,0.9s0.3,0.3,0.5,0.3c0.2,0,0.4,0,0.5-0.1
			c0.1,0,0.3-0.1,0.5-0.2l0.2,0.7c-0.2,0.1-0.5,0.2-0.7,0.3c-0.3,0.1-0.5,0.1-0.8,0.1c-0.5,0-0.8-0.1-1-0.4
			c-0.2-0.3-0.3-0.7-0.3-1.4v-3.5H214V82.9z"/>
	</g>
	<g class="st3">
		<path class="st17" d="M218.1,82.9h0.9v-1.2l1-0.3v1.5h1.6v0.8H220V87c0,0.4,0.1,0.7,0.2,0.9s0.3,0.3,0.5,0.3c0.2,0,0.4,0,0.5-0.1
			c0.1,0,0.3-0.1,0.5-0.2l0.2,0.7c-0.2,0.1-0.5,0.2-0.7,0.3c-0.3,0.1-0.5,0.1-0.8,0.1c-0.5,0-0.8-0.1-1-0.4
			c-0.2-0.3-0.3-0.7-0.3-1.4v-3.5h-0.9V82.9z"/>
	</g>
	<g class="st3">
		<path class="st17" d="M227.2,88.4c-0.2,0.2-0.5,0.3-0.9,0.5c-0.4,0.1-0.8,0.2-1.2,0.2c-0.5,0-0.9-0.1-1.2-0.2
			c-0.3-0.1-0.6-0.4-0.8-0.6c-0.2-0.3-0.4-0.6-0.5-1c-0.1-0.4-0.2-0.8-0.2-1.3c0-1,0.2-1.8,0.7-2.3s1.1-0.8,2-0.8
			c0.3,0,0.5,0,0.8,0.1c0.3,0.1,0.5,0.2,0.7,0.3c0.2,0.2,0.4,0.4,0.5,0.7c0.1,0.3,0.2,0.7,0.2,1.2c0,0.3,0,0.6-0.1,0.9h-3.9
			c0,0.4,0,0.7,0.1,0.9c0.1,0.3,0.2,0.5,0.3,0.7c0.2,0.2,0.4,0.3,0.6,0.4c0.2,0.1,0.5,0.1,0.9,0.1c0.3,0,0.5,0,0.8-0.1
			s0.5-0.2,0.6-0.3L227.2,88.4z M225.2,83.6c-0.5,0-0.9,0.1-1.1,0.4c-0.3,0.2-0.5,0.7-0.5,1.3h3c0-0.6-0.1-1-0.3-1.3
			C225.9,83.7,225.6,83.6,225.2,83.6z"/>
		<path class="st17" d="M231.6,87.2c0-0.2-0.1-0.4-0.2-0.6c-0.1-0.1-0.3-0.3-0.5-0.3s-0.4-0.2-0.7-0.3s-0.5-0.2-0.7-0.3
			s-0.4-0.3-0.5-0.5s-0.2-0.5-0.2-0.8c0-0.6,0.2-1,0.5-1.3c0.3-0.3,0.8-0.4,1.4-0.4c0.4,0,0.8,0,1.1,0.1c0.3,0.1,0.5,0.2,0.8,0.3
			l-0.2,0.8c-0.2-0.1-0.4-0.2-0.7-0.2c-0.3-0.1-0.5-0.1-0.8-0.1c-0.4,0-0.6,0.1-0.8,0.2s-0.2,0.3-0.2,0.6c0,0.2,0.1,0.4,0.2,0.5
			s0.3,0.2,0.5,0.3s0.4,0.2,0.7,0.3s0.5,0.2,0.7,0.3s0.4,0.3,0.5,0.5s0.2,0.5,0.2,0.9c0,0.3,0,0.5-0.1,0.7c-0.1,0.2-0.2,0.4-0.4,0.6
			c-0.2,0.2-0.4,0.3-0.7,0.4c-0.3,0.1-0.6,0.1-0.9,0.1c-0.5,0-0.8,0-1.2-0.1s-0.6-0.2-0.8-0.3l0.3-0.8c0.2,0.1,0.4,0.2,0.7,0.3
			s0.6,0.1,0.9,0.1c0.3,0,0.6-0.1,0.9-0.2C231.5,87.8,231.6,87.6,231.6,87.2z"/>
		<path class="st17" d="M233.2,82.9h0.9v-1.2l1-0.3v1.5h1.6v0.8h-1.6V87c0,0.4,0.1,0.7,0.2,0.9s0.3,0.3,0.5,0.3c0.2,0,0.4,0,0.5-0.1
			c0.1,0,0.3-0.1,0.5-0.2l0.2,0.7c-0.2,0.1-0.5,0.2-0.7,0.3c-0.3,0.1-0.5,0.1-0.8,0.1c-0.5,0-0.8-0.1-1-0.4
			c-0.2-0.3-0.3-0.7-0.3-1.4v-3.5h-0.9V82.9z"/>
		<path class="st17" d="M238,83.3c0.3-0.2,0.7-0.3,1.1-0.4c0.4-0.1,0.8-0.1,1.3-0.1c0.4,0,0.8,0.1,1,0.2c0.3,0.1,0.4,0.3,0.6,0.4
			c0.1,0.2,0.2,0.4,0.3,0.6c0,0.2,0.1,0.4,0.1,0.6c0,0.5,0,0.9,0,1.4s0,0.9,0,1.3c0,0.3,0,0.6,0,0.8s0.1,0.5,0.1,0.7h-0.7l-0.3-0.8
			h-0.1c-0.1,0.1-0.2,0.2-0.3,0.3c-0.1,0.1-0.2,0.2-0.4,0.3s-0.3,0.2-0.5,0.2c-0.2,0.1-0.4,0.1-0.7,0.1c-0.3,0-0.5,0-0.7-0.1
			c-0.2-0.1-0.4-0.2-0.6-0.3c-0.2-0.1-0.3-0.3-0.4-0.5c-0.1-0.2-0.1-0.4-0.1-0.7c0-0.4,0.1-0.6,0.2-0.9c0.1-0.2,0.3-0.4,0.6-0.6
			c0.3-0.1,0.6-0.2,0.9-0.3c0.4-0.1,0.8-0.1,1.2-0.1c0.1,0,0.2,0,0.3,0c0.1,0,0.2,0,0.3,0c0-0.2,0-0.5,0-0.6c0-0.4-0.1-0.7-0.3-0.9
			c-0.2-0.2-0.5-0.3-1-0.3c-0.1,0-0.3,0-0.4,0c-0.2,0-0.3,0-0.5,0.1s-0.3,0.1-0.5,0.1s-0.3,0.1-0.4,0.2L238,83.3z M239.7,88.1
			c0.2,0,0.4,0,0.6-0.1c0.2-0.1,0.3-0.1,0.5-0.2c0.1-0.1,0.2-0.2,0.3-0.3c0.1-0.1,0.1-0.2,0.2-0.3v-1c-0.1,0-0.2,0-0.3,0
			c-0.1,0-0.2,0-0.3,0c-0.2,0-0.5,0-0.7,0c-0.2,0-0.4,0.1-0.6,0.2c-0.2,0.1-0.3,0.2-0.4,0.3s-0.2,0.3-0.2,0.5c0,0.3,0.1,0.5,0.3,0.7
			C239.1,88,239.4,88.1,239.7,88.1z"/>
		<path class="st17" d="M243.2,82.9h0.9v-1.2l1-0.3v1.5h1.6v0.8h-1.6V87c0,0.4,0.1,0.7,0.2,0.9s0.3,0.3,0.5,0.3c0.2,0,0.4,0,0.5-0.1
			c0.1,0,0.3-0.1,0.5-0.2l0.2,0.7c-0.2,0.1-0.5,0.2-0.7,0.3c-0.3,0.1-0.5,0.1-0.8,0.1c-0.5,0-0.8-0.1-1-0.4
			c-0.2-0.3-0.3-0.7-0.3-1.4v-3.5h-0.9V82.9z"/>
		<path class="st17" d="M248.1,81.1c0-0.2,0.1-0.3,0.2-0.5s0.3-0.2,0.5-0.2s0.4,0.1,0.5,0.2c0.1,0.1,0.2,0.3,0.2,0.5
			c0,0.2-0.1,0.3-0.2,0.5c-0.1,0.1-0.3,0.2-0.5,0.2s-0.4-0.1-0.5-0.2S248.1,81.2,248.1,81.1z M248.3,82.9h1v6h-1V82.9z"/>
		<path class="st17" d="M251,85.9c0-1,0.2-1.8,0.7-2.3c0.5-0.5,1.1-0.8,1.9-0.8c0.4,0,0.8,0.1,1.2,0.2c0.3,0.1,0.6,0.4,0.8,0.6
			c0.2,0.3,0.4,0.6,0.5,1s0.2,0.8,0.2,1.3c0,1-0.2,1.8-0.7,2.3c-0.5,0.5-1.1,0.8-2,0.8c-0.4,0-0.8-0.1-1.2-0.2
			c-0.3-0.1-0.6-0.4-0.8-0.6c-0.2-0.3-0.4-0.6-0.5-1C251,86.8,251,86.4,251,85.9z M252,85.9c0,0.3,0,0.6,0.1,0.9s0.2,0.5,0.3,0.7
			s0.3,0.4,0.5,0.5s0.5,0.2,0.8,0.2c1.1,0,1.6-0.8,1.6-2.3c0-0.3,0-0.6-0.1-0.9c-0.1-0.3-0.2-0.5-0.3-0.7s-0.3-0.4-0.5-0.5
			c-0.2-0.1-0.5-0.2-0.8-0.2C252.5,83.6,252,84.3,252,85.9z"/>
		<path class="st17" d="M261.6,88.9v-3.4c0-0.6-0.1-1.1-0.3-1.4c-0.2-0.3-0.5-0.5-1-0.5c-0.4,0-0.8,0.1-1.1,0.3
			c-0.3,0.2-0.5,0.5-0.6,0.9v4.1h-1v-6h0.7l0.2,0.7h0c0.2-0.3,0.4-0.5,0.8-0.6c0.3-0.2,0.7-0.2,1.2-0.2c0.3,0,0.6,0,0.9,0.1
			c0.2,0.1,0.5,0.2,0.6,0.4s0.3,0.5,0.4,0.8c0.1,0.3,0.1,0.7,0.1,1.2v3.6H261.6z"/>
		<path class="st17" d="M268,86.6c0-0.3,0.1-0.6,0.2-0.9c0.1-0.3,0.3-0.6,0.5-0.8s0.4-0.5,0.7-0.7s0.5-0.4,0.8-0.6
			c-0.2-0.3-0.4-0.6-0.5-0.9c-0.1-0.3-0.2-0.6-0.2-0.9c0-0.2,0-0.4,0.1-0.6c0.1-0.2,0.2-0.3,0.3-0.5c0.1-0.1,0.3-0.3,0.5-0.3
			s0.5-0.1,0.8-0.1c0.3,0,0.6,0,0.8,0.1s0.4,0.2,0.5,0.3c0.1,0.1,0.2,0.3,0.3,0.5s0.1,0.3,0.1,0.5c0,0.3-0.1,0.7-0.4,1
			c-0.3,0.4-0.7,0.7-1.2,1c0.1,0.2,0.3,0.5,0.4,0.7s0.4,0.5,0.5,0.7c0.2,0.2,0.4,0.5,0.6,0.7c0.2,0.2,0.4,0.5,0.6,0.7
			c0.1-0.1,0.2-0.2,0.3-0.4c0.1-0.1,0.2-0.3,0.3-0.5s0.2-0.3,0.2-0.5c0.1-0.2,0.1-0.3,0.2-0.5l0.7,0.3c0,0.1-0.1,0.3-0.2,0.5
			c-0.1,0.2-0.2,0.4-0.3,0.6c-0.1,0.2-0.2,0.4-0.3,0.6c-0.1,0.2-0.2,0.3-0.3,0.5c0.2,0.2,0.3,0.3,0.5,0.4c0.1,0.1,0.3,0.2,0.4,0.3
			c0.1,0.1,0.2,0.2,0.3,0.2c0.1,0.1,0.2,0.1,0.3,0.2l-0.6,0.7c-0.4-0.2-0.9-0.6-1.5-1.1c-0.1,0.1-0.3,0.3-0.5,0.4
			c-0.2,0.1-0.4,0.3-0.6,0.4c-0.2,0.1-0.5,0.2-0.7,0.3c-0.3,0.1-0.5,0.1-0.9,0.1c-0.4,0-0.7-0.1-1.1-0.2c-0.3-0.1-0.6-0.3-0.9-0.5
			s-0.4-0.5-0.6-0.8C268.1,87.4,268,87,268,86.6z M272.8,87.3c-0.2-0.2-0.5-0.5-0.7-0.8c-0.2-0.3-0.4-0.5-0.6-0.8
			c-0.2-0.3-0.4-0.5-0.6-0.8s-0.3-0.5-0.4-0.7c-0.2,0.2-0.4,0.3-0.6,0.5c-0.2,0.2-0.3,0.3-0.5,0.5c-0.1,0.2-0.2,0.4-0.3,0.6
			c-0.1,0.2-0.1,0.4-0.1,0.7s0.1,0.5,0.2,0.7c0.1,0.2,0.2,0.4,0.4,0.5c0.2,0.1,0.4,0.2,0.6,0.3c0.2,0.1,0.5,0.1,0.7,0.1
			c0.2,0,0.4,0,0.6-0.1c0.2-0.1,0.4-0.1,0.5-0.2s0.3-0.2,0.5-0.3C272.6,87.5,272.7,87.4,272.8,87.3z M270.3,81.9
			c0,0.2,0,0.5,0.1,0.7s0.2,0.5,0.4,0.7c0.4-0.3,0.7-0.5,0.9-0.7s0.2-0.4,0.2-0.6c0-0.3-0.1-0.5-0.2-0.6s-0.3-0.2-0.6-0.2
			c-0.3,0-0.5,0.1-0.6,0.2C270.3,81.5,270.3,81.6,270.3,81.9z"/>
	</g>
	<g class="st3">
		<path class="st17" d="M320.9,88.5c-0.2,0.2-0.5,0.3-0.9,0.4s-0.7,0.1-1,0.1c-0.5,0-0.9-0.1-1.2-0.2c-0.3-0.1-0.6-0.4-0.8-0.6
			c-0.2-0.3-0.4-0.6-0.4-1c-0.1-0.4-0.1-0.8-0.1-1.3c0-1,0.2-1.8,0.7-2.3c0.4-0.5,1.1-0.8,1.9-0.8c0.4,0,0.7,0,1,0.1
			c0.3,0.1,0.5,0.1,0.7,0.3l-0.3,0.8c-0.2-0.1-0.4-0.2-0.6-0.2c-0.2-0.1-0.5-0.1-0.7-0.1c-1.1,0-1.7,0.8-1.7,2.3
			c0,0.3,0,0.6,0.1,0.9c0.1,0.3,0.2,0.5,0.3,0.7c0.1,0.2,0.3,0.4,0.6,0.5c0.2,0.1,0.5,0.2,0.8,0.2c0.3,0,0.5,0,0.8-0.1
			c0.2-0.1,0.4-0.2,0.6-0.3L320.9,88.5z"/>
	</g>
	<g class="st3">
		<path class="st17" d="M321.6,85.9c0-1,0.2-1.8,0.7-2.3c0.5-0.5,1.1-0.8,1.9-0.8c0.4,0,0.8,0.1,1.2,0.2c0.3,0.1,0.6,0.4,0.8,0.6
			c0.2,0.3,0.4,0.6,0.5,1c0.1,0.4,0.2,0.8,0.2,1.3c0,1-0.2,1.8-0.7,2.3s-1.1,0.8-2,0.8c-0.4,0-0.8-0.1-1.2-0.2
			c-0.3-0.1-0.6-0.4-0.8-0.6c-0.2-0.3-0.4-0.6-0.5-1S321.6,86.4,321.6,85.9z M322.6,85.9c0,0.3,0,0.6,0.1,0.9
			c0.1,0.3,0.2,0.5,0.3,0.7s0.3,0.4,0.5,0.5s0.5,0.2,0.8,0.2c1.1,0,1.6-0.8,1.6-2.3c0-0.3,0-0.6-0.1-0.9c-0.1-0.3-0.2-0.5-0.3-0.7
			s-0.3-0.4-0.5-0.5c-0.2-0.1-0.5-0.2-0.8-0.2C323.2,83.6,322.6,84.3,322.6,85.9z"/>
		<path class="st17" d="M332.3,88.9v-3.4c0-0.6-0.1-1.1-0.3-1.4c-0.2-0.3-0.5-0.5-1-0.5c-0.4,0-0.8,0.1-1,0.3
			c-0.3,0.2-0.5,0.5-0.6,0.9v4.1h-1v-6h0.7l0.2,0.7h0c0.2-0.3,0.4-0.5,0.8-0.6c0.3-0.2,0.7-0.2,1.2-0.2c0.3,0,0.6,0,0.9,0.1
			c0.2,0.1,0.5,0.2,0.6,0.4s0.3,0.5,0.4,0.8c0.1,0.3,0.1,0.7,0.1,1.2v3.6H332.3z"/>
		<path class="st17" d="M339.6,82.9v6h-1v-5.2h-2.4v5.2h-1v-5.2h-0.9v-0.8h0.9v-0.3c0-0.8,0.2-1.3,0.6-1.6c0.4-0.3,0.9-0.5,1.6-0.5
			c0.5,0,0.9,0,1.3,0.1s0.7,0.2,0.9,0.3l-0.3,0.8c-0.2-0.1-0.5-0.2-0.8-0.3c-0.3-0.1-0.6-0.1-0.9-0.1c-0.3,0-0.5,0-0.7,0.1
			s-0.3,0.2-0.4,0.3c-0.1,0.1-0.2,0.3-0.2,0.5s0,0.4,0,0.7H339.6z"/>
		<path class="st17" d="M346,89.2c0,0.8-0.2,1.3-0.6,1.7s-1,0.6-1.8,0.6c-0.5,0-0.9,0-1.2-0.1c-0.3-0.1-0.5-0.1-0.8-0.2l0.3-0.8
			c0.2,0.1,0.4,0.1,0.6,0.2c0.2,0.1,0.5,0.1,0.9,0.1c0.3,0,0.6,0,0.8-0.1c0.2-0.1,0.4-0.2,0.5-0.3c0.1-0.1,0.2-0.3,0.3-0.5
			c0-0.2,0.1-0.5,0.1-0.8v-0.6h0c-0.2,0.2-0.4,0.4-0.6,0.5s-0.6,0.2-1,0.2c-0.8,0-1.4-0.3-1.8-0.8s-0.6-1.3-0.6-2.4
			c0-1,0.2-1.8,0.7-2.3c0.5-0.5,1.2-0.8,2.2-0.8c0.5,0,0.8,0,1.2,0.1s0.6,0.2,0.9,0.3V89.2z M343.6,88.2c0.4,0,0.7-0.1,1-0.3
			c0.2-0.2,0.4-0.5,0.5-1v-3.1c-0.3-0.2-0.7-0.2-1.2-0.2c-0.5,0-1,0.2-1.3,0.6c-0.3,0.4-0.5,0.9-0.5,1.7c0,0.3,0,0.6,0.1,0.9
			c0.1,0.3,0.1,0.5,0.3,0.7c0.1,0.2,0.3,0.4,0.5,0.5C343.1,88.1,343.4,88.2,343.6,88.2z"/>
		<path class="st17" d="M348.8,82.9v3.4c0,0.3,0,0.6,0.1,0.8c0,0.2,0.1,0.4,0.2,0.6s0.2,0.3,0.4,0.4c0.2,0.1,0.3,0.1,0.6,0.1
			c0.2,0,0.4,0,0.6-0.1s0.3-0.2,0.5-0.3s0.2-0.3,0.3-0.4c0.1-0.2,0.2-0.3,0.2-0.5v-4h1v4.3c0,0.3,0,0.6,0,0.9c0,0.3,0.1,0.6,0.1,0.8
			H352l-0.2-0.9h-0.1c-0.2,0.3-0.4,0.6-0.7,0.8c-0.3,0.2-0.7,0.3-1.2,0.3c-0.3,0-0.6,0-0.8-0.1c-0.2-0.1-0.4-0.2-0.6-0.4
			s-0.3-0.5-0.4-0.8c-0.1-0.3-0.1-0.7-0.1-1.2v-3.6H348.8z"/>
		<path class="st17" d="M357.2,83.8c-0.2-0.1-0.5-0.1-0.7-0.1c-0.3,0-0.6,0.1-0.8,0.3c-0.2,0.2-0.3,0.4-0.4,0.7v4.2h-1v-6h0.7
			l0.2,0.7h0c0.2-0.3,0.3-0.5,0.5-0.6c0.2-0.1,0.5-0.2,0.8-0.2c0.2,0,0.5,0,0.8,0.1L357.2,83.8z"/>
		<path class="st17" d="M358.3,83.3c0.3-0.2,0.7-0.3,1.1-0.4s0.8-0.1,1.3-0.1c0.4,0,0.8,0.1,1,0.2c0.3,0.1,0.4,0.3,0.6,0.4
			c0.1,0.2,0.2,0.4,0.3,0.6c0,0.2,0.1,0.4,0.1,0.6c0,0.5,0,0.9,0,1.4c0,0.5,0,0.9,0,1.3c0,0.3,0,0.6,0,0.8c0,0.3,0.1,0.5,0.1,0.7
			H362l-0.3-0.8h-0.1c-0.1,0.1-0.2,0.2-0.3,0.3c-0.1,0.1-0.2,0.2-0.4,0.3c-0.2,0.1-0.3,0.2-0.5,0.2c-0.2,0.1-0.4,0.1-0.7,0.1
			s-0.5,0-0.7-0.1c-0.2-0.1-0.4-0.2-0.6-0.3c-0.2-0.1-0.3-0.3-0.4-0.5c-0.1-0.2-0.1-0.4-0.1-0.7c0-0.4,0.1-0.6,0.2-0.9
			c0.1-0.2,0.3-0.4,0.6-0.6c0.3-0.1,0.6-0.2,0.9-0.3c0.4-0.1,0.8-0.1,1.2-0.1c0.1,0,0.2,0,0.3,0s0.2,0,0.3,0c0-0.2,0-0.5,0-0.6
			c0-0.4-0.1-0.7-0.3-0.9c-0.2-0.2-0.5-0.3-1-0.3c-0.1,0-0.3,0-0.4,0c-0.2,0-0.3,0-0.5,0.1s-0.3,0.1-0.5,0.1
			c-0.1,0.1-0.3,0.1-0.4,0.2L358.3,83.3z M360,88.1c0.2,0,0.4,0,0.6-0.1s0.3-0.1,0.5-0.2c0.1-0.1,0.2-0.2,0.3-0.3
			c0.1-0.1,0.1-0.2,0.2-0.3v-1c-0.1,0-0.2,0-0.3,0c-0.1,0-0.2,0-0.3,0c-0.2,0-0.5,0-0.7,0s-0.4,0.1-0.6,0.2s-0.3,0.2-0.4,0.3
			c-0.1,0.1-0.2,0.3-0.2,0.5c0,0.3,0.1,0.5,0.3,0.7C359.5,88,359.7,88.1,360,88.1z"/>
		<path class="st17" d="M363.6,82.9h0.9v-1.2l1-0.3v1.5h1.6v0.8h-1.6V87c0,0.4,0.1,0.7,0.2,0.9c0.1,0.2,0.3,0.3,0.5,0.3
			c0.2,0,0.4,0,0.5-0.1c0.1,0,0.3-0.1,0.5-0.2l0.2,0.7c-0.2,0.1-0.5,0.2-0.7,0.3c-0.3,0.1-0.5,0.1-0.8,0.1c-0.5,0-0.8-0.1-1-0.4
			c-0.2-0.3-0.3-0.7-0.3-1.4v-3.5h-0.9V82.9z"/>
		<path class="st17" d="M368.5,81.1c0-0.2,0.1-0.3,0.2-0.5s0.3-0.2,0.5-0.2c0.2,0,0.4,0.1,0.5,0.2s0.2,0.3,0.2,0.5
			c0,0.2-0.1,0.3-0.2,0.5s-0.3,0.2-0.5,0.2c-0.2,0-0.3-0.1-0.5-0.2S368.5,81.2,368.5,81.1z M368.7,82.9h1v6h-1V82.9z"/>
		<path class="st17" d="M371.3,85.9c0-1,0.2-1.8,0.7-2.3c0.5-0.5,1.1-0.8,1.9-0.8c0.4,0,0.8,0.1,1.2,0.2c0.3,0.1,0.6,0.4,0.8,0.6
			c0.2,0.3,0.4,0.6,0.5,1c0.1,0.4,0.2,0.8,0.2,1.3c0,1-0.2,1.8-0.7,2.3s-1.1,0.8-2,0.8c-0.4,0-0.8-0.1-1.2-0.2
			c-0.3-0.1-0.6-0.4-0.8-0.6c-0.2-0.3-0.4-0.6-0.5-1S371.3,86.4,371.3,85.9z M372.3,85.9c0,0.3,0,0.6,0.1,0.9
			c0.1,0.3,0.2,0.5,0.3,0.7s0.3,0.4,0.5,0.5s0.5,0.2,0.8,0.2c1.1,0,1.6-0.8,1.6-2.3c0-0.3,0-0.6-0.1-0.9c-0.1-0.3-0.2-0.5-0.3-0.7
			s-0.3-0.4-0.5-0.5c-0.2-0.1-0.5-0.2-0.8-0.2C372.9,83.6,372.3,84.3,372.3,85.9z"/>
		<path class="st17" d="M382,88.9v-3.4c0-0.6-0.1-1.1-0.3-1.4c-0.2-0.3-0.5-0.5-1-0.5c-0.4,0-0.8,0.1-1.1,0.3
			c-0.3,0.2-0.5,0.5-0.6,0.9v4.1h-1v-6h0.7l0.2,0.7h0c0.2-0.3,0.5-0.5,0.8-0.6c0.3-0.2,0.7-0.2,1.2-0.2c0.3,0,0.6,0,0.9,0.1
			c0.2,0.1,0.5,0.2,0.6,0.4s0.3,0.5,0.4,0.8c0.1,0.3,0.1,0.7,0.1,1.2v3.6H382z"/>
	</g>
</g>
<g id="Ebene_4">
	
		<linearGradient id="SVGID_17_" gradientUnits="userSpaceOnUse" x1="68.42" y1="228.225" x2="523.26" y2="228.225" gradientTransform="matrix(1 0 0 -1 0 266)">
		<stop  offset="0" style="stop-color:#990066"/>
		<stop  offset="0.19" style="stop-color:#780066"/>
		<stop  offset="0.4" style="stop-color:#5A0066"/>
		<stop  offset="0.61" style="stop-color:#440066"/>
		<stop  offset="0.81" style="stop-color:#370066"/>
		<stop  offset="1" style="stop-color:#330066"/>
	</linearGradient>
	<path class="st18" d="M73.4,12.3h444.8c2.8,0,5,2.2,5,5v41c0,2.8-2.2,5-5,5H73.4c-2.8,0-5-2.2-5-5v-41
		C68.4,14.5,70.7,12.3,73.4,12.3z"/>
	<g class="st3">
		<path class="st19" d="M238.9,29.3h-1.3l-0.2-1.1c-0.2-0.2-0.4-0.3-0.6-0.4s-0.6-0.1-0.9-0.1c-0.7,0-1.3,0.3-1.7,0.8
			s-0.6,1.2-0.6,2.1v0.3c0,0.9,0.2,1.6,0.6,2.1s1,0.8,1.7,0.8c0.3,0,0.6,0,0.9-0.1s0.5-0.2,0.6-0.4l0.2-1.1h1.3v1.7
			c-0.3,0.4-0.8,0.7-1.3,1s-1.1,0.4-1.8,0.4c-1.1,0-2.1-0.4-2.8-1.2s-1.1-1.8-1.1-3.1v-0.3c0-1.2,0.4-2.3,1.1-3.1s1.7-1.2,2.8-1.2
			c0.7,0,1.3,0.1,1.8,0.4s1,0.6,1.3,1V29.3z"/>
		<path class="st19" d="M239.6,34l0.6-0.1l2.6-7.4h1.8l2.6,7.4l0.6,0.1v1h-2.9v-1l0.6-0.1l-0.4-1.2h-2.8l-0.4,1.2l0.6,0.1v1h-2.9V34
			z M242.7,31.4h2l-1-3h0L242.7,31.4z"/>
		<path class="st19" d="M254.8,29.2h-1.3l-0.2-1.2c-0.1-0.1-0.4-0.2-0.7-0.2s-0.6-0.1-0.9-0.1c-0.5,0-0.8,0.1-1.1,0.3
			s-0.4,0.5-0.4,0.8c0,0.3,0.1,0.5,0.4,0.7s0.7,0.4,1.4,0.6c0.9,0.3,1.7,0.6,2.1,1s0.7,1,0.7,1.7c0,0.7-0.3,1.3-0.9,1.7
			s-1.3,0.6-2.3,0.6c-0.7,0-1.3-0.1-1.8-0.3s-1-0.5-1.4-0.9v-1.8h1.3l0.2,1.2c0.2,0.1,0.4,0.3,0.7,0.3s0.6,0.1,1,0.1
			c0.5,0,0.8-0.1,1.1-0.3s0.4-0.4,0.4-0.8c0-0.3-0.1-0.6-0.3-0.8s-0.6-0.4-1.2-0.6c-1-0.3-1.8-0.6-2.3-1s-0.8-1-0.8-1.7
			c0-0.7,0.3-1.3,0.9-1.7s1.3-0.7,2.2-0.7c0.7,0,1.3,0.1,1.8,0.3s1,0.5,1.4,0.8V29.2z"/>
	</g>
	<g id="Scone_logo_white-4">
		<g>
			<defs>
				<rect id="SVGID_18_" x="270.5" y="46.4" width="48.8" height="9.5"/>
			</defs>
			<clipPath id="SVGID_19_">
				<use xlink:href="#SVGID_18_"  style="overflow:visible;"/>
			</clipPath>
			<g class="st20">
				<g>
					<defs>
						<rect id="SVGID_20_" x="270.5" y="46.4" width="48.8" height="9.5"/>
					</defs>
					<clipPath id="SVGID_21_">
						<use xlink:href="#SVGID_20_"  style="overflow:visible;"/>
					</clipPath>
					<g class="st21">
						<path class="st9" d="M276.9,48.8h-1c-0.2,0-0.4,0.2-0.4,0.4c0,0,0,0,0,0v1c0,0.2,0.2,0.4,0.4,0.4l0,0h1c0.2,0,0.4-0.2,0.4-0.4
							c0,0,0,0,0,0v-1C277.3,49,277.1,48.8,276.9,48.8L276.9,48.8 M273.4,50.6h1c0.2,0,0.4-0.2,0.4-0.4c0,0,0,0,0,0v-1
							c0-0.2-0.2-0.4-0.4-0.4c0,0,0,0,0,0h-1c-0.2,0-0.4,0.2-0.4,0.4c0,0,0,0,0,0v1C273,50.4,273.1,50.6,273.4,50.6
							C273.4,50.6,273.4,50.6,273.4,50.6 M272.3,50.2v-1c0-0.2-0.2-0.4-0.4-0.4l0,0h-1c-0.2,0-0.4,0.2-0.4,0.4c0,0,0,0,0,0v1
							c0,0.2,0.2,0.4,0.4,0.4c0,0,0,0,0,0h1C272.1,50.6,272.3,50.5,272.3,50.2C272.3,50.2,272.3,50.2,272.3,50.2 M277,51.4
							c-0.2,0-0.3,0.1-0.3,0.3v1.2c0,0.2,0.1,0.3,0.2,0.3s0.3-0.1,0.3-0.2c0,0,0-0.1,0-0.1v-1.2C277.3,51.5,277.2,51.4,277,51.4
							C277,51.4,277,51.4,277,51.4 M274.2,51.8v1c0,0.2,0.2,0.4,0.4,0.4h1c0.2,0,0.4-0.2,0.4-0.4c0,0,0,0,0,0v-1
							c0-0.2-0.2-0.4-0.4-0.4l0,0h-1C274.4,51.4,274.2,51.5,274.2,51.8 M273.5,52.8v-1c0-0.2-0.2-0.4-0.4-0.4h-1
							c-0.2,0-0.4,0.2-0.4,0.4v1c0,0.2,0.2,0.4,0.4,0.4h1C273.3,53.1,273.5,53,273.5,52.8 M276.9,53.9h-1c-0.2,0-0.4,0.2-0.4,0.4v1
							c0,0.2,0.2,0.4,0.4,0.4h1c0.2,0,0.4-0.2,0.4-0.4v-1C277.3,54.1,277.1,53.9,276.9,53.9 M274.3,53.9h-1c-0.2,0-0.4,0.2-0.4,0.4
							v1c0,0.2,0.2,0.4,0.4,0.4h1c0.2,0,0.4-0.2,0.4-0.4v-1C274.7,54,274.5,53.9,274.3,53.9"/>
						<path class="st9" d="M278.2,48.4c0.4,0.4,1,0.5,1.6,0.5c0,0,0,0,0,0.1v2.8c0,1.1-1.3,1.8-1.6,1.9l0,0L278.2,48.4L278.2,48.4"
							/>
						<path class="st9" d="M275.1,48.3c2.2-0.1,2.5-0.8,2.5-0.8c0,0,0.1-0.1,0.1-0.1c0,0,0.1,0,0.1,0s0.3,0.8,2.5,0.8
							c0.1,0,0.1,0,0.1,0.1V52c0,1.2-2.2,2.5-2.3,2.5c0,0-0.1,0-0.1,0.1v0.9c0,0,0.1,0.1,0.2,0c0.8-0.5,3.1-1.7,3.1-3.3v-4.7
							c0-0.1-0.1-0.1-0.2-0.1c-2.8,0-3.3-1-3.3-1s-0.1,0-0.2,0s-0.1,0-0.1,0s-0.5,1-3.2,1c-0.1,0-0.1,0-0.1,0.1v0.6
							c0,0,0,0.1,0.1,0.1S275.1,48.3,275.1,48.3"/>
						<path class="st10" d="M283.4,54.3l1.1-0.4c0.3,0.5,0.8,0.9,1.4,0.8c0.3,0,0.6-0.1,0.9-0.2c0.2-0.1,0.4-0.3,0.4-0.6
							c0-0.6-0.8-0.9-1.4-1.2l0,0c-0.5-0.2-0.9-0.4-1.3-0.7c-0.4-0.3-0.6-0.8-0.6-1.3c0-0.5,0.2-1,0.6-1.3c0.5-0.4,1-0.6,1.6-0.5
							c0.9,0,1.7,0.4,2.1,1.2l-1.1,0.4c-0.1-0.2-0.2-0.3-0.4-0.4c-0.2-0.1-0.4-0.1-0.6-0.1c-0.6,0-1.1,0.3-1.1,0.8
							c0,0.3,0.2,0.6,0.4,0.7c0.3,0.2,0.7,0.4,1,0.5l0.1,0.1c0.8,0.3,1.9,0.8,1.9,2c0,0.6-0.3,1.1-0.8,1.4c-0.5,0.4-1.2,0.5-1.8,0.5
							C284.9,55.9,283.9,55.3,283.4,54.3"/>
						<path class="st10" d="M293.1,55.8c-0.5,0-0.9-0.1-1.4-0.3c-0.4-0.2-0.8-0.4-1.1-0.8c-0.3-0.3-0.6-0.7-0.7-1.1
							c-0.4-0.9-0.4-1.8,0-2.7c0.4-0.8,1-1.5,1.8-1.8c0.4-0.2,0.9-0.3,1.4-0.3c0.5,0,1.1,0.1,1.6,0.4c0.5,0.2,0.9,0.6,1.2,1
							l-0.9,0.7c-0.2-0.3-0.5-0.5-0.8-0.7c-0.3-0.2-0.7-0.2-1.1-0.3c-0.6,0-1.2,0.2-1.6,0.7c-0.9,0.9-0.9,2.4,0,3.3c0,0,0,0,0,0
							c0.4,0.5,1,0.7,1.6,0.7c0.8,0,1.6-0.5,2-1.2l1,0.6c-0.3,0.5-0.7,1-1.3,1.3C294.3,55.6,293.7,55.8,293.1,55.8"/>
						<path class="st10" d="M300.7,55.8c-0.5,0-0.9-0.1-1.4-0.3c-0.4-0.2-0.8-0.4-1.1-0.8c-0.3-0.3-0.6-0.7-0.8-1.1
							c-0.2-0.4-0.3-0.9-0.3-1.4c0-0.5,0.1-0.9,0.3-1.3c0.4-0.8,1-1.5,1.9-1.8c0.4-0.2,0.9-0.3,1.4-0.3c0.5,0,0.9,0.1,1.4,0.3
							c0.4,0.2,0.8,0.4,1.1,0.8c0.6,0.7,1,1.5,1,2.5c0,0.5-0.1,0.9-0.3,1.4c-0.2,0.4-0.4,0.8-0.7,1.1c-0.3,0.3-0.7,0.6-1.1,0.8
							C301.6,55.7,301.2,55.8,300.7,55.8 M300.7,50c-0.6,0-1.2,0.2-1.6,0.7c-0.4,0.4-0.7,1-0.7,1.7c0,1.3,1,2.3,2.3,2.4
							c0.6,0,1.3-0.2,1.7-0.7c0.4-0.4,0.7-1,0.7-1.7c0-0.6-0.3-1.2-0.7-1.7C301.9,50.2,301.3,49.9,300.7,50"/>
						<polygon class="st10" points="312.1,48.9 312.1,55.9 307.2,51.5 307.2,55.7 306,55.7 306,48.6 310.9,53.1 310.9,48.9 						
							"/>
						<polygon class="st10" points="315.4,49.9 315.4,51.7 318.8,51.7 318.8,52.8 315.4,52.8 315.4,54.6 319.2,54.6 319.2,55.7 
							314.2,55.7 314.2,48.9 319.2,48.9 319.2,49.9 315.4,49.9 						"/>
					</g>
				</g>
			</g>
		</g>
	</g>
	<path class="st22" d="M360.9,29.8h-10.2c-0.6-2.5-3.2-4.1-5.7-3.4c-2.5,0.6-4.1,3.2-3.4,5.7c0.6,2.5,3.2,4.1,5.7,3.4
		c1.7-0.4,3-1.7,3.4-3.4h3l1.3,1.4l1.4-1.4h0.2l0.9,0.9l0.8-0.8l1.3,1.3L361,32l1.1-1L360.9,29.8z M344.3,32.2
		c-0.7,0-1.3-0.5-1.3-1.2s0.5-1.3,1.2-1.3s1.3,0.5,1.3,1.2c0,0,0,0,0,0C345.6,31.6,345,32.2,344.3,32.2z"/>
	<path class="st23" d="M325.1,29.8h-10.2c-0.6-2.5-3.2-4.1-5.7-3.4c-2.5,0.6-4.1,3.2-3.4,5.7c0.6,2.5,3.2,4.1,5.7,3.4
		c1.7-0.4,3-1.7,3.4-3.4h3l1.4,1.4l1.4-1.4h0.2l0.9,0.9l0.8-0.8l1.3,1.3l1.4-1.4l1.1-1L325.1,29.8z M308.5,32.2
		c-0.7,0.1-1.3-0.4-1.4-1.1c-0.1-0.7,0.4-1.3,1.1-1.4c0.1,0,0.1,0,0.2,0c0.7,0.1,1.2,0.7,1.1,1.4C309.6,31.6,309.1,32.1,308.5,32.2z
		"/>
	<path class="st24" d="M289.3,29.8h-10.2c-0.6-2.5-3.2-4.1-5.7-3.4c-2.5,0.6-4.1,3.2-3.4,5.7c0.6,2.5,3.2,4.1,5.7,3.4
		c1.7-0.4,3-1.7,3.4-3.4h3l1.4,1.4l1.4-1.4h0.2l0.9,0.9l0.8-0.8l1.3,1.3l1.4-1.4l1.1-1L289.3,29.8z M272.7,32.2
		c-0.7,0-1.2-0.6-1.2-1.3c0-0.7,0.6-1.2,1.3-1.2c0.7,0,1.2,0.6,1.2,1.2C274,31.6,273.4,32.2,272.7,32.2
		C272.7,32.2,272.7,32.2,272.7,32.2z"/>
</g>
</svg>
