<svg xmlns="http://www.w3.org/2000/svg" xmlns:xlink="http://www.w3.org/1999/xlink" viewBox="0 0 451.38 276.73"><defs><style>.cls-1,.cls-12,.cls-22,.cls-4{fill:none;}.cls-11,.cls-12,.cls-2,.cls-22,.cls-26,.cls-4{stroke:#fc0;stroke-width:2px;}.cls-2,.cls-22,.cls-26,.cls-4{stroke-miterlimit:10;}.cls-2{fill:url(#Unbenannter_Verlauf_12);}.cls-3{fill:url(#Unbenannter_Verlauf_12-2);}.cls-27,.cls-5{font-size:12px;}.cls-13,.cls-17,.cls-23,.cls-5{fill:#fc0;}.cls-17,.cls-27,.cls-5{font-family:RobotoSlab-Bold, Roboto Slab;font-weight:700;}.cls-6{letter-spacing:-0.01em;}.cls-7{letter-spacing:0.01em;}.cls-8{opacity:0.4;}.cls-9{fill:#86c2eb;}.cls-10{letter-spacing:-0.01em;}.cls-11,.cls-24,.cls-27{fill:#fff;}.cls-11,.cls-12{stroke-linecap:round;stroke-linejoin:round;}.cls-14{clip-path:url(#clip-path);}.cls-15{fill:#ffd138;}.cls-16{fill:#fdfeff;}.cls-17,.cls-24{font-size:10px;}.cls-18{letter-spacing:-0.04em;}.cls-19,.cls-23{font-size:11px;}.cls-19{fill:#306;font-family:PTSans-Regular, PT Sans;}.cls-20{letter-spacing:-0.01em;}.cls-21{letter-spacing:-0.02em;}.cls-22{stroke-dasharray:2 2;}.cls-23,.cls-24{font-family:RobotoSlab-Regular, Roboto Slab;}.cls-25{letter-spacing:0em;}.cls-26{fill:url(#Unbenannter_Verlauf_3);}.cls-28{clip-path:url(#clip-path-3);}.cls-29{fill:#906;}.cls-30{fill:#39f;}.cls-31{fill:#3c9;}</style><linearGradient id="Unbenannter_Verlauf_12" x1="17.91" y1="195.8" x2="434.67" y2="195.8" gradientUnits="userSpaceOnUse"><stop offset="0" stop-color="#906"/><stop offset="0.19" stop-color="#780066"/><stop offset="0.4" stop-color="#5a0066"/><stop offset="0.61" stop-color="#406"/><stop offset="0.81" stop-color="#370066"/><stop offset="1" stop-color="#306"/></linearGradient><linearGradient id="Unbenannter_Verlauf_12-2" x1="274.78" y1="197.48" x2="400.44" y2="197.48" xlink:href="#Unbenannter_Verlauf_12"/><clipPath id="clip-path"><rect class="cls-1" x="317.69" y="219.99" width="36.34" height="7.12"/></clipPath><linearGradient id="Unbenannter_Verlauf_3" x1="240.27" y1="39.87" x2="436.09" y2="39.87" xlink:href="#Unbenannter_Verlauf_12"/><clipPath id="clip-path-3"><rect class="cls-1" x="312.8" y="48.48" width="48.77" height="9.55"/></clipPath></defs><title>CASOverview-3</title><g id="Ebene_2" data-name="Ebene 2"><rect class="cls-2" x="17.91" y="128.22" width="416.77" height="135.14" rx="5"/><rect class="cls-3" x="274.78" y="159.73" width="125.66" height="75.5" rx="5"/><rect class="cls-4" x="274.78" y="159.73" width="125.66" height="75.5" rx="5"/><text class="cls-5" transform="translate(299.28 201.94)">Mic<tspan class="cls-6" x="21.49" y="0">r</tspan><tspan x="26.43" y="0">ose</tspan><tspan class="cls-7" x="45.72" y="0">r</tspan><tspan x="50.88" y="0">vice</tspan></text><g class="cls-8"><rect class="cls-9" x="52.11" y="172.48" width="125.66" height="50" rx="5"/></g><text class="cls-5" transform="translate(78.72 201.94)">Sou<tspan class="cls-10" x="21.49" y="0">r</tspan><tspan x="26.43" y="0">ce Code</tspan></text><path class="cls-11" d="M329,149a11.74,11.74,0,1,1-3.51,8.38,11.54,11.54,0,0,1,2.4-7.1"/><path class="cls-12" d="M336.89,163h-4.24c-.58,0-.8-.23-.8-.81v-6.46c0-.58.22-.8.8-.8h8.45c.55,0,.78.22.78.77v6.49c0,.55-.23.77-.78.77C339.69,163,338.28,163,336.89,163Z"/><path class="cls-12" d="M332.54,154.35a4.48,4.48,0,0,1,2.64-4.13,4.19,4.19,0,0,1,5.77,2.85c.1.39.14.77.23,1.19"/><path class="cls-13" d="M336.19,160.22h0v.87c0,.16.06.22.26.22h.83c.23,0,.29-.06.29-.25v-1.61a.37.37,0,0,1,.23-.39,1.22,1.22,0,0,0,.61-1.44,1.55,1.55,0,0,0-1.45-1,1.65,1.65,0,0,0-1.61.87,1.2,1.2,0,0,0,.55,1.51.43.43,0,0,1,.26.48A6,6,0,0,1,336.19,160.22Z"/><g id="Scone_logo_white" data-name="Scone logo white"><g class="cls-14"><g class="cls-14"><path class="cls-15" d="M322.51,221.79h-.76a.29.29,0,0,0-.3.3v.77a.29.29,0,0,0,.3.29h.76a.29.29,0,0,0,.29-.29v-.77a.29.29,0,0,0-.29-.3m-2.65,1.36h.76a.29.29,0,0,0,.29-.29v-.77a.29.29,0,0,0-.29-.3h-.76a.3.3,0,0,0-.3.3v.77a.3.3,0,0,0,.3.29m-.82-.29v-.77a.29.29,0,0,0-.29-.3H318a.29.29,0,0,0-.29.3v.77a.29.29,0,0,0,.29.29h.77a.29.29,0,0,0,.29-.29m3.53.84a.22.22,0,0,0-.22.21v.91a.22.22,0,1,0,.43,0v-.91a.19.19,0,0,0-.21-.21m-2.1.29v.77a.3.3,0,0,0,.3.3h.76a.3.3,0,0,0,.29-.3V224a.29.29,0,0,0-.29-.29h-.76a.29.29,0,0,0-.3.29m-.54.77V224a.29.29,0,0,0-.29-.29h-.76a.3.3,0,0,0-.3.29v.77a.31.31,0,0,0,.3.3h.76a.3.3,0,0,0,.29-.3m2.58.84h-.76a.29.29,0,0,0-.3.29v.78a.29.29,0,0,0,.3.29h.76a.29.29,0,0,0,.29-.29v-.78a.29.29,0,0,0-.29-.29m-2,0h-.76a.29.29,0,0,0-.29.29v.78a.29.29,0,0,0,.29.29h.76a.29.29,0,0,0,.29-.29v-.78a.29.29,0,0,0-.29-.29"/><path class="cls-15" d="M323.43,221.49a1.77,1.77,0,0,0,1.18.36s0,0,0,.06V224c0,.81-1,1.31-1.22,1.44a0,0,0,0,1,0,0l0-3.92s0,0,0,0"/><path class="cls-15" d="M321.13,221.38c1.61-.06,1.87-.61,1.87-.61a.1.1,0,0,1,.08-.05s.06,0,.07,0,.25.6,1.86.6c0,0,.06,0,.06.08v2.75c0,.88-1.67,1.87-1.7,1.89s-.06,0-.06.05v.69s.1.05.15,0c.61-.33,2.34-1.29,2.34-2.46v-3.51c0-.06-.1-.1-.16-.1-2.05,0-2.43-.75-2.43-.75s-.09,0-.13,0-.08,0-.09,0-.34.77-2.37.77c-.07,0-.09,0-.09.09v.44s0,.1.06.1l.54,0"/><path class="cls-16" d="M327.32,225.88l.82-.31a1.12,1.12,0,0,0,1.07.61,1.2,1.2,0,0,0,.63-.14.52.52,0,0,0,.26-.44c0-.44-.6-.7-1-.88h0a4.48,4.48,0,0,1-.95-.53,1.21,1.21,0,0,1-.47-1,1.3,1.3,0,0,1,.49-1,1.86,1.86,0,0,1,1.21-.41,1.74,1.74,0,0,1,1.61.88l-.85.32a.65.65,0,0,0-.29-.3,1.12,1.12,0,0,0-.47-.11c-.47,0-.79.25-.79.59a.67.67,0,0,0,.32.53,5.1,5.1,0,0,0,.74.38l.1,0c.63.26,1.4.6,1.4,1.45a1.23,1.23,0,0,1-.55,1,2.26,2.26,0,0,1-1.34.38,2,2,0,0,1-1.87-1.11"/><path class="cls-16" d="M334.58,227a2.67,2.67,0,0,1-1-.2,2.4,2.4,0,0,1-.82-.56,2.44,2.44,0,0,1-.56-.82,2.67,2.67,0,0,1-.2-1,2.71,2.71,0,0,1,.2-1,2.66,2.66,0,0,1,.56-.82,2.37,2.37,0,0,1,.82-.55,2.68,2.68,0,0,1,1-.21,2.49,2.49,0,0,1,1.17.28,2.59,2.59,0,0,1,.89.75l-.68.51a1.91,1.91,0,0,0-.6-.5,1.84,1.84,0,0,0-.79-.19,1.73,1.73,0,0,0-1.23,3,1.66,1.66,0,0,0,1.23.51,1.68,1.68,0,0,0,.87-.24,1.71,1.71,0,0,0,.63-.65l.75.43a2.59,2.59,0,0,1-.94,1,2.34,2.34,0,0,1-1.3.36"/><path class="cls-16" d="M340.24,227a2.54,2.54,0,0,1-1-.21,2.47,2.47,0,0,1-.82-.55,2.81,2.81,0,0,1-.55-.82,2.68,2.68,0,0,1-.21-1,2.35,2.35,0,0,1,.21-1,2.57,2.57,0,0,1,.55-.82,2.52,2.52,0,0,1,1.83-.76,2.67,2.67,0,0,1,1,.2,2.31,2.31,0,0,1,.82.56,2.44,2.44,0,0,1,.56.82,2.57,2.57,0,0,1-.56,2.84,2.57,2.57,0,0,1-.82.55,2.5,2.5,0,0,1-1,.21m0-4.35a1.73,1.73,0,0,0-1.23.51,1.76,1.76,0,0,0-.51,1.23,1.74,1.74,0,0,0,1.74,1.74,1.68,1.68,0,0,0,1.23-.51,1.71,1.71,0,0,0,.52-1.23,1.76,1.76,0,0,0-1.75-1.74"/><polygon class="cls-16" points="348.72 221.84 348.72 227.1 345.09 223.77 345.09 226.9 344.17 226.9 344.17 221.65 347.8 225 347.8 221.84 348.72 221.84"/><polygon class="cls-16" points="351.19 222.61 351.19 223.96 353.72 223.96 353.72 224.75 351.19 224.75 351.19 226.11 354.03 226.11 354.03 226.9 350.27 226.9 350.27 221.84 354.03 221.84 354.03 222.63 351.19 222.63 351.19 222.61"/></g></g></g><text class="cls-17" transform="translate(194.58 254.13)">ap<tspan class="cls-6" x="11.55" y="0">p</tspan><tspan x="17.5" y="0">lic</tspan><tspan class="cls-18" x="29.18" y="0">a</tspan><tspan x="34.29" y="0">tion A</tspan></text><text class="cls-19" transform="translate(359.82 96.31)">at<tspan class="cls-20" x="9.19" y="0">t</tspan><tspan x="12.79" y="0">estation </tspan><tspan x="0" y="13.2">&amp; </tspan><tspan class="cls-21" x="11.89" y="13.2">c</tspan><tspan x="16.6" y="13.2">onfiguration</tspan></text><line class="cls-4" x1="337.43" y1="72.88" x2="337.43" y2="139.15"/><polygon class="cls-13" points="331.71 77.52 332.73 78.47 337.43 73.42 342.13 78.47 343.16 77.52 337.43 71.36 331.71 77.52"/><polygon class="cls-13" points="331.71 134.51 332.73 133.56 337.43 138.62 342.13 133.56 343.16 134.51 337.43 140.67 331.71 134.51"/><path class="cls-11" d="M329.41,92.24a11.73,11.73,0,1,1-3.52,8.39,11.54,11.54,0,0,1,2.4-7.1"/><path class="cls-12" d="M337.32,106.27h-4.24c-.58,0-.8-.22-.8-.8V99c0-.58.22-.81.8-.81h8.46c.54,0,.77.23.77.77v6.5c0,.54-.23.77-.77.77C340.12,106.3,338.71,106.27,337.32,106.27Z"/><path class="cls-12" d="M333,97.64a4.5,4.5,0,0,1,2.64-4.14,4.2,4.2,0,0,1,5.77,2.86c.1.38.14.77.24,1.18"/><path class="cls-13" d="M336.62,103.51h0v.86c0,.17.06.23.26.23h.83c.23,0,.29-.06.29-.26v-1.61a.36.36,0,0,1,.23-.38,1.22,1.22,0,0,0,.61-1.45,1.55,1.55,0,0,0-1.45-1,1.65,1.65,0,0,0-1.61.87,1.21,1.21,0,0,0,.55,1.51.42.42,0,0,1,.26.48A5.86,5.86,0,0,1,336.62,103.51Z"/></g><g id="schrift"><line class="cls-22" x1="184.05" y1="198.05" x2="268.06" y2="198.05"/><polygon class="cls-13" points="263.42 203.77 262.47 202.75 267.53 198.05 262.47 193.35 263.42 192.32 269.58 198.05 263.42 203.77"/><text class="cls-23" transform="translate(187.33 188.93)">c<tspan class="cls-6" x="5.93" y="0">r</tspan><tspan x="10.37" y="0">oss-compile</tspan></text><text class="cls-24" transform="translate(87.82 167.63)">un<tspan class="cls-25" x="12.51" y="0">m</tspan><tspan x="21.91" y="0">odified</tspan></text></g><g id="Ebene_4" data-name="Ebene 4"><rect class="cls-26" x="240.27" y="14.38" width="195.81" height="50.97" rx="5"/><text class="cls-27"><tspan x="273.89" y="37.1">CAS</tspan></text><g id="Scone_logo_white-2" data-name="Scone logo white"><g class="cls-28"><g class="cls-28"><path class="cls-15" d="M319.26,50.9h-1a.4.4,0,0,0-.39.39v1a.4.4,0,0,0,.39.4h1a.4.4,0,0,0,.4-.4v-1a.4.4,0,0,0-.4-.39m-3.55,1.83h1a.4.4,0,0,0,.39-.4v-1a.4.4,0,0,0-.39-.39h-1a.4.4,0,0,0-.4.39v1a.4.4,0,0,0,.4.4m-1.1-.4v-1a.4.4,0,0,0-.4-.39h-1a.4.4,0,0,0-.39.39v1a.4.4,0,0,0,.39.4h1a.4.4,0,0,0,.4-.4m4.73,1.12a.3.3,0,0,0-.29.3V55a.3.3,0,0,0,.29.29.31.31,0,0,0,.3-.29V53.75a.28.28,0,0,0-.3-.3m-2.81.4v1a.4.4,0,0,0,.4.39h1a.4.4,0,0,0,.39-.39v-1a.4.4,0,0,0-.39-.4h-1a.4.4,0,0,0-.4.4m-.72,1v-1a.4.4,0,0,0-.4-.4h-1a.4.4,0,0,0-.39.4v1a.4.4,0,0,0,.39.39h1a.4.4,0,0,0,.4-.39M319.26,56h-1a.39.39,0,0,0-.39.39v1a.39.39,0,0,0,.39.39h1a.39.39,0,0,0,.4-.39v-1a.39.39,0,0,0-.4-.39m-2.65,0h-1a.38.38,0,0,0-.39.39v1a.38.38,0,0,0,.39.39h1a.38.38,0,0,0,.39-.39v-1a.38.38,0,0,0-.39-.39"/><path class="cls-15" d="M320.5,50.49a2.33,2.33,0,0,0,1.59.49s0,0,0,.08v2.81c0,1.08-1.32,1.74-1.63,1.92,0,0,0,0,0,0l0-5.26s0,0,0,0"/><path class="cls-15" d="M317.42,50.35c2.16-.08,2.51-.82,2.51-.82a.11.11,0,0,1,.1-.06s.08,0,.1,0,.33.8,2.49.8c.06,0,.08,0,.08.1V54.1c0,1.18-2.24,2.52-2.28,2.54s-.08,0-.08.07v.93s.14.06.2,0c.82-.45,3.14-1.73,3.14-3.3V49.66c0-.08-.14-.13-.21-.13-2.75,0-3.26-1-3.26-1s-.12,0-.18,0-.1,0-.12,0-.45,1-3.18,1c-.1,0-.12,0-.12.11v.59s0,.14.08.14.73,0,.73,0"/><path class="cls-16" d="M325.72,56.38l1.1-.41a1.51,1.51,0,0,0,1.44.82,1.63,1.63,0,0,0,.84-.19.68.68,0,0,0,.36-.59c0-.59-.81-.95-1.4-1.18l0,0a5,5,0,0,1-1.27-.71,1.56,1.56,0,0,1-.63-1.29,1.72,1.72,0,0,1,.65-1.36,2.53,2.53,0,0,1,1.63-.55,2.35,2.35,0,0,1,2.16,1.18l-1.14.43a.88.88,0,0,0-.4-.41,1.49,1.49,0,0,0-.62-.14c-.63,0-1.06.33-1.06.79a.86.86,0,0,0,.43.7,5,5,0,0,0,1,.51l.14.06c.84.36,1.88.81,1.88,1.95a1.62,1.62,0,0,1-.74,1.39,3,3,0,0,1-1.79.51,2.63,2.63,0,0,1-2.52-1.49"/><path class="cls-16" d="M335.47,57.85a3.51,3.51,0,0,1-1.36-.27,3.26,3.26,0,0,1-1.1-.75,3.14,3.14,0,0,1-.74-1.1,3.47,3.47,0,0,1-.28-1.35,3.52,3.52,0,0,1,.28-1.36,3.45,3.45,0,0,1,1.84-1.84,3.52,3.52,0,0,1,1.36-.28,3.42,3.42,0,0,1,1.57.37,3.54,3.54,0,0,1,1.2,1l-.93.68a2.47,2.47,0,0,0-.8-.67,2.61,2.61,0,0,0-1.06-.25,2.36,2.36,0,0,0-2.34,2.34A2.29,2.29,0,0,0,333.8,56a2.31,2.31,0,0,0,2.83.35,2.47,2.47,0,0,0,.84-.86l1,.57a3.31,3.31,0,0,1-1.25,1.27,3.15,3.15,0,0,1-1.75.49"/><path class="cls-16" d="M343.07,57.87a3.55,3.55,0,0,1-1.36-.27,3.26,3.26,0,0,1-1.1-.75,3.51,3.51,0,0,1-1-2.45,3.19,3.19,0,0,1,.28-1.36,3.55,3.55,0,0,1,.74-1.1,3.91,3.91,0,0,1,1.1-.75,3.75,3.75,0,0,1,1.36-.27,3.65,3.65,0,0,1,1.35.27,3.21,3.21,0,0,1,1.1.75,3.58,3.58,0,0,1,.75,1.1,3.52,3.52,0,0,1,.28,1.36,3.47,3.47,0,0,1-3.48,3.47m0-5.83a2.26,2.26,0,0,0-1.65.69,2.34,2.34,0,0,0-.69,1.65,2.34,2.34,0,0,0,4,1.65,2.32,2.32,0,0,0,0-3.3,2.3,2.3,0,0,0-1.65-.69"/><polygon class="cls-16" points="354.44 50.96 354.44 58.03 349.57 53.55 349.57 57.76 348.33 57.76 348.33 50.7 353.2 55.2 353.2 50.96 354.44 50.96"/><polygon class="cls-16" points="357.76 52 357.76 53.81 361.16 53.81 361.16 54.87 357.76 54.87 357.76 56.7 361.57 56.7 361.57 57.76 356.52 57.76 356.52 50.96 361.57 50.96 361.57 52.02 357.76 52.02 357.76 52"/></g></g></g><path class="cls-29" d="M403.22,31.89H393.05a4.72,4.72,0,1,0,0,2.27h3l1.36,1.36,1.36-1.36h.18l.86.86.8-.8,1.29,1.3,1.46-1.45,1.09-1Zm-16.57,2.38a1.25,1.25,0,0,1,0-2.49,1.25,1.25,0,1,1,0,2.49Z"/><path class="cls-30" d="M367.41,31.89H357.24a4.72,4.72,0,1,0,0,2.27h3l1.36,1.36,1.36-1.36h.18L364,35l.8-.8,1.3,1.3,1.45-1.45,1.09-1Zm-16.57,2.38A1.25,1.25,0,1,1,352.09,33,1.24,1.24,0,0,1,350.84,34.27Z"/><path class="cls-31" d="M331.6,31.89H321.43a4.72,4.72,0,1,0,0,2.27h3l1.36,1.36,1.36-1.36h.18l.86.86.8-.8,1.3,1.3,1.45-1.45,1.09-1ZM315,34.27A1.25,1.25,0,1,1,316.28,33,1.24,1.24,0,0,1,315,34.27Z"/></g></svg>