<?xml version="1.0" encoding="utf-8"?>
<!-- Generator: Adobe Illustrator 24.0.0, SVG Export Plug-In . SVG Version: 6.00 Build 0)  -->
<svg version="1.1" id="Ebene_1" xmlns="http://www.w3.org/2000/svg" xmlns:xlink="http://www.w3.org/1999/xlink" x="0px" y="0px"
	 viewBox="0 0 426.9 212.7" style="enable-background:new 0 0 426.9 212.7;" xml:space="preserve">
<style type="text/css">
	.st0{enable-background:new    ;}
	.st1{fill:#330066;}
	.st2{fill:#23153F;}
	.st3{fill:#990066;}
	.st4{fill:#3399FF;}
	.st5{clip-path:url(#SVGID_2_);}
	.st6{clip-path:url(#SVGID_4_);}
	.st7{fill:#FFD138;}
	.st8{fill:#E6E6E6;}
	.st9{fill:none;stroke:#FFCC00;stroke-width:2;stroke-miterlimit:10;}
</style>
<g id="Ebene_2_1_">
	<g class="st0">
		<path class="st1" d="M151.6,38.3c0,1.5-0.4,2.7-1.3,3.6s-1.9,1.4-3.3,1.4c-1.3,0-2.4-0.5-3.3-1.4s-1.2-2.2-1.2-3.6v-0.2
			c0-1.4,0.4-2.7,1.2-3.6s1.9-1.4,3.3-1.4c1.3,0,2.4,0.5,3.3,1.4s1.3,2.2,1.3,3.6V38.3z M149.6,38.2c0-1-0.2-1.9-0.6-2.5
			s-1.1-1-1.9-1s-1.5,0.3-1.9,1s-0.6,1.5-0.6,2.5v0.2c0,1,0.2,1.9,0.6,2.5c0.4,0.6,1,1,1.9,1c0.8,0,1.5-0.3,1.9-1
			c0.4-0.6,0.6-1.5,0.6-2.5V38.2z"/>
		<path class="st1" d="M156.8,33.3c1.2,0,2.1,0.2,2.7,0.7s1,1.1,1,2c0,0.5-0.1,0.9-0.4,1.2c-0.2,0.4-0.6,0.6-1.1,0.8
			c0.6,0.1,1,0.4,1.3,0.8s0.4,0.9,0.4,1.5c0,1-0.3,1.7-0.9,2.2c-0.6,0.5-1.5,0.7-2.7,0.7h-4.9V42l1.1-0.2v-7.1l-1.1-0.2v-1.2h1.1
			H156.8z M155.4,37.5h1.4c0.5,0,0.9-0.1,1.2-0.3s0.4-0.5,0.4-1c0-0.5-0.1-0.8-0.4-1s-0.7-0.3-1.3-0.3h-1.4V37.5z M155.4,38.8v2.9
			h1.8c0.5,0,0.9-0.1,1.2-0.3c0.3-0.2,0.4-0.6,0.4-1c0-0.5-0.1-0.9-0.4-1.1c-0.2-0.3-0.6-0.4-1.1-0.4H155.4z"/>
		<path class="st1" d="M169.2,33.3v1.2l-1.1,0.2v5.6c0,1-0.3,1.7-0.9,2.3c-0.6,0.6-1.4,0.8-2.4,0.8c-1,0-1.9-0.3-2.5-0.8
			s-0.9-1.3-0.9-2.2l0,0h1.9c0,0.5,0.1,0.9,0.4,1.1c0.3,0.2,0.6,0.4,1,0.4c0.4,0,0.7-0.1,0.9-0.4c0.3-0.3,0.4-0.7,0.4-1.2v-5.6
			l-1.1-0.2v-1.2h3.1H169.2z"/>
		<path class="st1" d="M176.2,38.9h-3.4v2.8h3.2l0.1-1.2h1.5v2.7h-7.9V42l1.1-0.2v-7.1l-1.1-0.2v-1.2h1.1h6.8V36h-1.5l-0.1-1.2h-3.2
			v2.5h3.4V38.9z"/>
	</g>
	<g class="st0">
		<path class="st1" d="M186.9,36.6h-1.5l-0.2-1.3c-0.2-0.2-0.4-0.4-0.7-0.5s-0.7-0.2-1.1-0.2c-0.9,0-1.5,0.3-2,0.9s-0.7,1.4-0.7,2.5
			v0.3c0,1,0.2,1.8,0.7,2.5s1.1,1,2,1c0.4,0,0.8-0.1,1.1-0.2s0.6-0.3,0.8-0.5l0.2-1.3h1.5v2c-0.4,0.5-0.9,0.8-1.5,1.1
			c-0.6,0.3-1.3,0.4-2.1,0.4c-1.3,0-2.4-0.5-3.3-1.4s-1.3-2.1-1.3-3.6v-0.3c0-1.4,0.4-2.6,1.3-3.6s1.9-1.4,3.3-1.4
			c0.8,0,1.5,0.1,2.1,0.4c0.6,0.3,1.1,0.7,1.5,1.1V36.6z"/>
	</g>
	<g class="st0">
		<path class="st1" d="M196.3,33.3v2.7h-1.5l-0.1-1.1h-1.8v7L194,42v1.2h-4.1V42l1.1-0.2v-7h-1.8l-0.1,1.1h-1.5v-2.7H196.3z"/>
		<path class="st1" d="M208.6,36.6h-1.5l-0.2-1.3c-0.2-0.2-0.4-0.4-0.7-0.5s-0.7-0.2-1.1-0.2c-0.9,0-1.5,0.3-2,0.9s-0.7,1.4-0.7,2.5
			v0.3c0,1,0.2,1.8,0.7,2.5s1.1,1,2,1c0.4,0,0.8-0.1,1.1-0.2s0.6-0.3,0.8-0.5l0.2-1.3h1.5v2c-0.4,0.5-0.9,0.8-1.5,1.1
			c-0.6,0.3-1.3,0.4-2.1,0.4c-1.3,0-2.4-0.5-3.3-1.4s-1.3-2.1-1.3-3.6v-0.3c0-1.4,0.4-2.6,1.3-3.6s1.9-1.4,3.3-1.4
			c0.8,0,1.5,0.1,2.1,0.4c0.6,0.3,1.1,0.7,1.5,1.1V36.6z"/>
		<path class="st1" d="M218.6,38.3c0,1.5-0.4,2.7-1.3,3.6s-1.9,1.4-3.3,1.4c-1.3,0-2.4-0.5-3.3-1.4s-1.2-2.2-1.2-3.6v-0.2
			c0-1.4,0.4-2.7,1.2-3.6s1.9-1.4,3.3-1.4c1.3,0,2.4,0.5,3.3,1.4c0.8,1,1.3,2.2,1.3,3.6V38.3z M216.6,38.2c0-1-0.2-1.9-0.6-2.5
			c-0.4-0.6-1.1-1-1.9-1c-0.8,0-1.5,0.3-1.9,1s-0.6,1.5-0.6,2.5v0.2c0,1,0.2,1.9,0.6,2.5c0.4,0.6,1,1,1.9,1c0.8,0,1.5-0.3,1.9-1
			c0.4-0.6,0.6-1.5,0.6-2.5V38.2z"/>
		<path class="st1" d="M229,35.9L229,35.9l-2.7,7.4H225l-2.7-7.3l0,0l0.2,4.4v1.6l1.1,0.2v1.2h-4.1V42l1.1-0.2v-7.1l-1.1-0.2v-1.2
			h1.1h2.6l2.5,7.3h0l2.6-7.3h3.7v1.2l-1.1,0.2v7.1l1.1,0.2v1.2h-4.1V42l1.1-0.2v-1.6L229,35.9z"/>
		<path class="st1" d="M242.2,35.9L242.2,35.9l-2.7,7.4h-1.3l-2.7-7.3l0,0l0.2,4.4v1.6l1.1,0.2v1.2h-4.1V42l1.1-0.2v-7.1l-1.1-0.2
			v-1.2h1.1h2.6l2.5,7.3h0l2.6-7.3h3.7v1.2l-1.1,0.2v7.1l1.1,0.2v1.2h-4.1V42l1.1-0.2v-1.6L242.2,35.9z"/>
		<path class="st1" d="M245.7,42l0.7-0.1l3-8.7h2l3,8.7l0.7,0.1v1.2h-3.4V42l0.7-0.1l-0.4-1.4h-3.2l-0.4,1.4l0.7,0.1v1.2h-3.4V42z
			 M249.3,39.1h2.3l-1.1-3.5h0L249.3,39.1z"/>
		<path class="st1" d="M266,33.3v1.2l-1.1,0.2v8.5h-2l-4-6.7l0,0v5.3l1.1,0.2v1.2h-4.1V42l1.1-0.2v-7.1l-1.1-0.2v-1.2h1.1h2l4,6.7
			l0,0v-5.3l-1.1-0.2v-1.2h3.1H266z"/>
		<path class="st1" d="M271.1,33.3c1.2,0,2.2,0.4,3,1.2c0.8,0.8,1.2,1.8,1.2,3v1.6c0,1.2-0.4,2.2-1.2,3c-0.8,0.8-1.8,1.2-3,1.2h-4.5
			V42l1.1-0.2v-7.1l-1.1-0.2v-1.2h1.1H271.1z M269.7,34.8v6.9h1.3c0.7,0,1.3-0.2,1.7-0.7c0.4-0.5,0.6-1.1,0.6-1.9v-1.7
			c0-0.8-0.2-1.4-0.6-1.9c-0.4-0.5-1-0.7-1.7-0.7H269.7z"/>
	</g>
	<g class="st0">
		<path class="st2" d="M283,32.9h-1.3v11.4h1.3v1.1h-2.6V31.9h2.6V32.9z"/>
		<path class="st2" d="M292.6,38.3c0,1.4-0.4,2.7-1.2,3.6c-0.8,1-1.9,1.4-3.2,1.4c-1.3,0-2.3-0.5-3.1-1.4s-1.2-2.2-1.2-3.6v-0.1
			c0-1.4,0.4-2.6,1.2-3.6s1.8-1.4,3.1-1.4c1.3,0,2.4,0.5,3.2,1.4c0.8,1,1.2,2.2,1.2,3.6V38.3z M291.3,38.2c0-1.2-0.3-2.1-0.8-2.8
			c-0.6-0.7-1.3-1.1-2.3-1.1c-0.9,0-1.7,0.4-2.2,1.1c-0.5,0.7-0.8,1.7-0.8,2.8v0.2c0,1.2,0.3,2.1,0.8,2.8c0.5,0.7,1.3,1.1,2.2,1.1
			c1,0,1.8-0.4,2.3-1.1s0.8-1.7,0.8-2.9V38.2z"/>
		<path class="st2" d="M298.2,33.3c1.1,0,1.9,0.3,2.5,0.8c0.6,0.5,0.9,1.3,0.9,2.2c0,0.9-0.3,1.6-0.9,2.2c-0.6,0.5-1.4,0.8-2.5,0.8
			h-2.1v2.9l1.1,0.2v0.9h-3.6v-0.9l1.1-0.2v-7.8l-1.1-0.2v-0.9h1.1H298.2z M296.1,38.2h2.1c0.7,0,1.2-0.2,1.5-0.5
			c0.3-0.4,0.5-0.8,0.5-1.4s-0.2-1-0.5-1.4c-0.3-0.4-0.8-0.6-1.5-0.6h-2.1V38.2z"/>
		<path class="st2" d="M310.5,33.3v2.2h-1.1l-0.1-1.1h-2.2v7.8l1.1,0.2v0.9h-3.6v-0.9l1.1-0.2v-7.8h-2.2l-0.1,1.1h-1.2v-2.2H310.5z"
			/>
		<path class="st2" d="M311.3,34.2v-0.9h3.6v0.9l-1.1,0.2v7.8l1.1,0.2v0.9h-3.6v-0.9l1.1-0.2v-7.8L311.3,34.2z"/>
		<path class="st2" d="M324.7,38.3c0,1.4-0.4,2.7-1.2,3.6c-0.8,1-1.9,1.4-3.2,1.4c-1.3,0-2.3-0.5-3.1-1.4s-1.2-2.2-1.2-3.6v-0.1
			c0-1.4,0.4-2.6,1.2-3.6s1.8-1.4,3.1-1.4c1.3,0,2.4,0.5,3.2,1.4c0.8,1,1.2,2.2,1.2,3.6V38.3z M323.3,38.2c0-1.2-0.3-2.1-0.8-2.8
			c-0.6-0.7-1.3-1.1-2.3-1.1c-0.9,0-1.7,0.4-2.2,1.1c-0.5,0.7-0.8,1.7-0.8,2.8v0.2c0,1.2,0.3,2.1,0.8,2.8c0.5,0.7,1.3,1.1,2.2,1.1
			c1,0,1.8-0.4,2.3-1.1s0.8-1.7,0.8-2.9V38.2z"/>
		<path class="st2" d="M335.4,33.3v0.9l-1.1,0.2v8.9H333l-4.8-7.7l0,0v6.6l1.1,0.2v0.9h-3.6v-0.9l1.1-0.2v-7.8l-1.1-0.2v-0.9h1.1
			h1.3l4.8,7.7l0,0v-6.6l-1.1-0.2v-0.9h2.5H335.4z"/>
		<path class="st2" d="M343.6,36.2h-1l-0.3-1.4c-0.2-0.2-0.5-0.3-0.8-0.4s-0.7-0.2-1.2-0.2c-0.7,0-1.3,0.2-1.6,0.5
			c-0.4,0.3-0.6,0.7-0.6,1.2c0,0.4,0.2,0.8,0.6,1.1c0.4,0.3,1,0.5,1.9,0.8c1,0.3,1.8,0.6,2.4,1.1c0.5,0.5,0.8,1.1,0.8,1.9
			c0,0.8-0.3,1.4-1,1.9c-0.7,0.5-1.5,0.7-2.6,0.7c-0.8,0-1.4-0.1-2-0.4c-0.6-0.3-1.1-0.6-1.5-1v-1.9h1l0.3,1.4
			c0.3,0.2,0.6,0.4,0.9,0.5s0.8,0.2,1.3,0.2c0.7,0,1.2-0.1,1.6-0.4c0.4-0.3,0.6-0.7,0.6-1.2c0-0.5-0.2-0.8-0.5-1.1
			c-0.3-0.3-0.9-0.6-1.8-0.8c-1.1-0.3-1.9-0.6-2.5-1.1s-0.9-1.1-0.9-1.8c0-0.8,0.3-1.4,1-1.9c0.7-0.5,1.5-0.8,2.6-0.8
			c0.7,0,1.3,0.1,1.9,0.4c0.6,0.2,1,0.5,1.4,0.9V36.2z"/>
		<path class="st2" d="M346.9,36.5l-2-0.6l0.3-1.1l2,0.8l-0.1-2.3h1.1l-0.1,2.4l2-0.8l0.3,1.1l-2.1,0.6l1.3,1.8l-0.9,0.7l-1.2-2
			l-1.2,1.9l-0.9-0.6L346.9,36.5z"/>
		<path class="st2" d="M351.1,31.9h2.6v13.5h-2.6v-1.1h1.3V32.9h-1.3V31.9z"/>
	</g>
	<g class="st0">
		<path class="st3" d="M79.4,100.2l1-0.2v-7.3l-1-0.2v-0.7h2.1v3.6c0.2-0.3,0.5-0.5,0.8-0.7s0.7-0.3,1.1-0.3c0.7,0,1.2,0.2,1.6,0.6
			s0.6,1,0.6,1.9v3.1l1,0.2v0.7h-3.1v-0.7l1-0.2v-3.1c0-0.5-0.1-0.9-0.3-1.2s-0.6-0.4-1-0.4c-0.3,0-0.6,0.1-0.9,0.2
			s-0.5,0.4-0.6,0.6v3.8l1,0.2v0.7h-3.1V100.2z"/>
	</g>
	<g class="st0">
		<path class="st3" d="M87.3,97.7c0-0.9,0.3-1.7,0.8-2.3s1.2-0.9,2.1-0.9c0.9,0,1.6,0.3,2.1,0.9s0.8,1.4,0.8,2.3v0.1
			c0,0.9-0.3,1.7-0.8,2.3S91,101,90.1,101c-0.9,0-1.6-0.3-2.1-0.9s-0.8-1.4-0.8-2.3V97.7z M88.4,97.8c0,0.7,0.1,1.2,0.4,1.7
			s0.7,0.7,1.3,0.7c0.5,0,1-0.2,1.2-0.7s0.4-1,0.4-1.7v-0.1c0-0.7-0.1-1.2-0.4-1.7s-0.7-0.7-1.3-0.7s-1,0.2-1.3,0.7s-0.4,1-0.4,1.7
			V97.8z"/>
		<path class="st3" d="M98.9,96.5H98l-0.2-0.8c-0.1-0.1-0.3-0.2-0.5-0.3s-0.5-0.1-0.7-0.1c-0.4,0-0.7,0.1-0.9,0.3s-0.3,0.4-0.3,0.7
			c0,0.3,0.1,0.4,0.3,0.6s0.5,0.3,1.1,0.4c0.8,0.2,1.4,0.4,1.8,0.7s0.6,0.7,0.6,1.2c0,0.6-0.2,1-0.7,1.4s-1,0.5-1.8,0.5
			c-0.5,0-0.9-0.1-1.3-0.2s-0.7-0.3-1-0.5l0-1.4h0.9l0.2,0.8c0.1,0.1,0.3,0.2,0.5,0.3s0.5,0.1,0.7,0.1c0.4,0,0.7-0.1,1-0.2
			s0.3-0.4,0.3-0.7c0-0.3-0.1-0.5-0.3-0.6s-0.6-0.3-1.1-0.4c-0.8-0.2-1.3-0.4-1.7-0.7s-0.6-0.7-0.6-1.2c0-0.5,0.2-1,0.7-1.3
			s1-0.5,1.7-0.5c0.5,0,0.9,0.1,1.3,0.2s0.7,0.3,1,0.5L98.9,96.5z"/>
		<path class="st3" d="M102.1,93v1.5h1.2v0.9h-1.2v3.8c0,0.3,0.1,0.5,0.2,0.6s0.3,0.2,0.5,0.2c0.1,0,0.2,0,0.3,0s0.2,0,0.3-0.1
			l0.2,0.8c-0.1,0.1-0.3,0.1-0.5,0.2s-0.4,0.1-0.6,0.1c-0.5,0-0.8-0.1-1.1-0.4s-0.4-0.7-0.4-1.3v-3.8h-1v-0.9h1V93H102.1z"/>
	</g>
	<g class="st0">
		<path class="st3" d="M79.4,114.6l1-0.2v-4.5l-1-0.2V109h2l0.1,0.8c0.2-0.3,0.5-0.5,0.8-0.7s0.7-0.2,1.1-0.2s0.8,0.1,1.1,0.3
			s0.5,0.5,0.7,0.9c0.2-0.4,0.5-0.6,0.8-0.9s0.7-0.3,1.1-0.3c0.6,0,1.2,0.2,1.5,0.7s0.6,1.1,0.6,2v2.9l1,0.2v0.7H87v-0.7l1-0.2v-2.9
			c0-0.6-0.1-1.1-0.3-1.3s-0.5-0.4-1-0.4c-0.4,0-0.7,0.1-1,0.4s-0.4,0.6-0.4,1.1v3.1l1,0.2v0.7h-3.1v-0.7l1-0.2v-2.9
			c0-0.6-0.1-1-0.3-1.3s-0.5-0.4-1-0.4c-0.4,0-0.6,0.1-0.9,0.2s-0.4,0.3-0.5,0.6v3.8l1,0.2v0.7h-3.1V114.6z"/>
	</g>
	<g class="st0">
		<path class="st3" d="M90.9,112.1c0-0.9,0.3-1.7,0.8-2.3s1.2-0.9,2.1-0.9c0.9,0,1.6,0.3,2.1,0.9s0.8,1.4,0.8,2.3v0.1
			c0,0.9-0.3,1.7-0.8,2.3s-1.2,0.9-2.1,0.9c-0.9,0-1.6-0.3-2.1-0.9s-0.8-1.4-0.8-2.3V112.1z M92,112.2c0,0.7,0.1,1.2,0.4,1.7
			s0.7,0.7,1.3,0.7c0.5,0,1-0.2,1.2-0.7s0.4-1,0.4-1.7v-0.1c0-0.7-0.1-1.2-0.4-1.7s-0.7-0.7-1.3-0.7s-1,0.2-1.3,0.7s-0.4,1-0.4,1.7
			V112.2z"/>
		<path class="st3" d="M97.4,114.6l1-0.2v-4.5l-1-0.2V109h2l0.1,0.9c0.2-0.3,0.5-0.6,0.8-0.8s0.7-0.3,1.1-0.3c0.7,0,1.2,0.2,1.6,0.6
			s0.6,1,0.6,1.9v3.1l1,0.2v0.7h-3.1v-0.7l1-0.2v-3.1c0-0.6-0.1-1-0.3-1.2s-0.6-0.4-1-0.4c-0.3,0-0.6,0.1-0.9,0.2s-0.5,0.4-0.6,0.7
			v3.7l1,0.2v0.7h-3.1V114.6z"/>
		<path class="st3" d="M105.3,114.6l1-0.2v-4.5l-1-0.2V109h2.1v5.4l1,0.2v0.7h-3.1V114.6z M107.4,107.3h-1.2v-1.2h1.2V107.3z"/>
	</g>
	<g class="st0">
		<path class="st3" d="M111.3,107.4v1.5h1.2v0.9h-1.2v3.8c0,0.3,0.1,0.5,0.2,0.6s0.3,0.2,0.5,0.2c0.1,0,0.2,0,0.3,0s0.2,0,0.3-0.1
			l0.2,0.8c-0.1,0.1-0.3,0.1-0.5,0.2s-0.4,0.1-0.6,0.1c-0.5,0-0.8-0.1-1.1-0.4s-0.4-0.7-0.4-1.3v-3.8h-1V109h1v-1.5H111.3z"/>
	</g>
	<g class="st0">
		<path class="st3" d="M113.6,112.1c0-0.9,0.3-1.7,0.8-2.3s1.2-0.9,2.1-0.9c0.9,0,1.6,0.3,2.1,0.9s0.8,1.4,0.8,2.3v0.1
			c0,0.9-0.3,1.7-0.8,2.3s-1.2,0.9-2.1,0.9c-0.9,0-1.6-0.3-2.1-0.9s-0.8-1.4-0.8-2.3V112.1z M114.7,112.2c0,0.7,0.1,1.2,0.4,1.7
			s0.7,0.7,1.3,0.7c0.5,0,1-0.2,1.2-0.7s0.4-1,0.4-1.7v-0.1c0-0.7-0.1-1.2-0.4-1.7s-0.7-0.7-1.3-0.7s-1,0.2-1.3,0.7s-0.4,1-0.4,1.7
			V112.2z"/>
		<path class="st3" d="M120.3,109.7V109h2l0.1,0.9c0.2-0.3,0.4-0.6,0.7-0.8s0.6-0.3,0.9-0.3c0.1,0,0.2,0,0.3,0s0.2,0,0.2,0l-0.2,1.1
			l-0.7,0c-0.3,0-0.6,0.1-0.8,0.2s-0.4,0.3-0.5,0.6v3.6l1,0.2v0.7h-3.1v-0.7l1-0.2v-4.5L120.3,109.7z"/>
	</g>
	<g class="st0">
		<path class="st3" d="M84.4,125.3h-0.9l-0.2-0.8c-0.1-0.1-0.3-0.2-0.5-0.3s-0.5-0.1-0.7-0.1c-0.4,0-0.7,0.1-0.9,0.3
			s-0.3,0.4-0.3,0.7c0,0.3,0.1,0.4,0.3,0.6s0.5,0.3,1.1,0.4c0.8,0.2,1.4,0.4,1.8,0.7s0.6,0.7,0.6,1.2c0,0.6-0.2,1-0.7,1.4
			s-1,0.5-1.8,0.5c-0.5,0-0.9-0.1-1.3-0.2s-0.7-0.3-1-0.5l0-1.4h0.9l0.2,0.8c0.1,0.1,0.3,0.2,0.5,0.3s0.5,0.1,0.7,0.1
			c0.4,0,0.7-0.1,1-0.2s0.3-0.4,0.3-0.7c0-0.3-0.1-0.5-0.3-0.6s-0.6-0.3-1.1-0.4c-0.8-0.2-1.3-0.4-1.7-0.7s-0.6-0.7-0.6-1.2
			c0-0.5,0.2-1,0.7-1.3s1-0.5,1.7-0.5c0.5,0,0.9,0.1,1.3,0.2s0.7,0.3,1,0.5L84.4,125.3z"/>
		<path class="st3" d="M88.6,128.9c0.4,0,0.7-0.1,1-0.4s0.4-0.5,0.4-0.9h1l0,0c0,0.5-0.2,1-0.7,1.5s-1.1,0.6-1.8,0.6
			c-0.9,0-1.6-0.3-2.1-0.9s-0.7-1.4-0.7-2.3v-0.2c0-0.9,0.2-1.7,0.7-2.3s1.2-0.9,2.1-0.9c0.5,0,1,0.1,1.4,0.3s0.7,0.4,1,0.7l0.1,1.4
			h-0.9l-0.3-1c-0.1-0.1-0.3-0.2-0.5-0.3s-0.5-0.1-0.7-0.1c-0.6,0-1,0.2-1.3,0.7s-0.4,1-0.4,1.6v0.2c0,0.6,0.1,1.2,0.4,1.6
			S87.9,128.9,88.6,128.9z"/>
		<path class="st3" d="M92.2,126.5c0-0.9,0.3-1.7,0.8-2.3s1.2-0.9,2.1-0.9c0.9,0,1.6,0.3,2.1,0.9s0.8,1.4,0.8,2.3v0.1
			c0,0.9-0.3,1.7-0.8,2.3s-1.2,0.9-2.1,0.9c-0.9,0-1.6-0.3-2.1-0.9s-0.8-1.4-0.8-2.3V126.5z M93.3,126.6c0,0.7,0.1,1.2,0.4,1.7
			s0.7,0.7,1.3,0.7c0.5,0,1-0.2,1.2-0.7s0.4-1,0.4-1.7v-0.1c0-0.7-0.1-1.2-0.4-1.7s-0.7-0.7-1.3-0.7s-1,0.2-1.3,0.7s-0.4,1-0.4,1.7
			V126.6z"/>
		<path class="st3" d="M98.8,131.4l1-0.2v-7l-1-0.2v-0.7h1.9l0.1,0.8c0.2-0.3,0.5-0.5,0.8-0.7s0.7-0.2,1.1-0.2
			c0.8,0,1.4,0.3,1.8,0.9s0.7,1.4,0.7,2.5v0.1c0,0.9-0.2,1.7-0.7,2.2s-1,0.8-1.8,0.8c-0.4,0-0.7-0.1-1-0.2s-0.5-0.3-0.8-0.6v2.2
			l1,0.2v0.7h-3.1V131.4z M104,126.6c0-0.7-0.1-1.3-0.4-1.8s-0.7-0.7-1.3-0.7c-0.3,0-0.6,0.1-0.8,0.2s-0.4,0.4-0.6,0.6v3.1
			c0.1,0.3,0.3,0.5,0.6,0.6s0.5,0.2,0.9,0.2c0.5,0,1-0.2,1.2-0.6s0.4-0.9,0.4-1.6V126.6z"/>
		<path class="st3" d="M109.1,129.8c-0.9,0-1.6-0.3-2.1-0.9s-0.8-1.4-0.8-2.3v-0.3c0-0.9,0.3-1.7,0.8-2.3s1.2-0.9,1.9-0.9
			c0.9,0,1.5,0.3,1.9,0.8s0.7,1.2,0.7,2.1v0.7h-4.1l0,0c0,0.6,0.2,1.1,0.5,1.5s0.7,0.6,1.2,0.6c0.4,0,0.7-0.1,1-0.2s0.5-0.3,0.8-0.5
			l0.5,0.8c-0.2,0.2-0.5,0.4-0.9,0.6S109.6,129.8,109.1,129.8z M108.9,124.1c-0.4,0-0.7,0.2-1,0.5s-0.4,0.7-0.5,1.2l0,0h2.9v-0.2
			c0-0.5-0.1-0.8-0.4-1.1S109.4,124.1,108.9,124.1z"/>
	</g>
	<g class="st0">
		<path class="st3" d="M84.4,139.7h-0.9l-0.2-0.8c-0.1-0.1-0.3-0.2-0.5-0.3s-0.5-0.1-0.7-0.1c-0.4,0-0.7,0.1-0.9,0.3
			s-0.3,0.4-0.3,0.7c0,0.3,0.1,0.4,0.3,0.6s0.5,0.3,1.1,0.4c0.8,0.2,1.4,0.4,1.8,0.7s0.6,0.7,0.6,1.2c0,0.6-0.2,1-0.7,1.4
			s-1,0.5-1.8,0.5c-0.5,0-0.9-0.1-1.3-0.2s-0.7-0.3-1-0.5l0-1.4h0.9l0.2,0.8c0.1,0.1,0.3,0.2,0.5,0.3s0.5,0.1,0.7,0.1
			c0.4,0,0.7-0.1,1-0.2s0.3-0.4,0.3-0.7c0-0.3-0.1-0.5-0.3-0.6s-0.6-0.3-1.1-0.4c-0.8-0.2-1.3-0.4-1.7-0.7s-0.6-0.7-0.6-1.2
			c0-0.5,0.2-1,0.7-1.3s1-0.5,1.7-0.5c0.5,0,0.9,0.1,1.3,0.2s0.7,0.3,1,0.5L84.4,139.7z"/>
		<path class="st3" d="M88.6,144.2c-0.9,0-1.6-0.3-2.1-0.9s-0.8-1.4-0.8-2.3v-0.3c0-0.9,0.3-1.7,0.8-2.3s1.2-0.9,1.9-0.9
			c0.9,0,1.5,0.3,1.9,0.8s0.7,1.2,0.7,2.1v0.7h-4.1l0,0c0,0.6,0.2,1.1,0.5,1.5s0.7,0.6,1.2,0.6c0.4,0,0.7-0.1,1-0.2s0.5-0.3,0.8-0.5
			l0.5,0.8c-0.2,0.2-0.5,0.4-0.9,0.6S89.1,144.2,88.6,144.2z M88.4,138.5c-0.4,0-0.7,0.2-1,0.5s-0.4,0.7-0.5,1.2l0,0h2.9v-0.2
			c0-0.5-0.1-0.8-0.4-1.1S88.9,138.5,88.4,138.5z"/>
		<path class="st3" d="M92,143.4l1-0.2v-4.5l-1-0.2v-0.7h2l0.1,0.9c0.2-0.3,0.5-0.6,0.8-0.8s0.7-0.3,1.1-0.3c0.7,0,1.2,0.2,1.6,0.6
			s0.6,1,0.6,1.9v3.1l1,0.2v0.7H96v-0.7l1-0.2v-3.1c0-0.6-0.1-1-0.3-1.2s-0.6-0.4-1-0.4c-0.3,0-0.6,0.1-0.9,0.2s-0.5,0.4-0.6,0.7
			v3.7l1,0.2v0.7H92V143.4z"/>
		<path class="st3" d="M101.9,136.2v1.5h1.2v0.9h-1.2v3.8c0,0.3,0.1,0.5,0.2,0.6s0.3,0.2,0.5,0.2c0.1,0,0.2,0,0.3,0s0.2,0,0.3-0.1
			l0.2,0.8c-0.1,0.1-0.3,0.1-0.5,0.2s-0.4,0.1-0.6,0.1c-0.5,0-0.8-0.1-1.1-0.4s-0.4-0.7-0.4-1.3v-3.8h-1v-0.9h1v-1.5H101.9z"/>
	</g>
	<g class="st0">
		<path class="st3" d="M104.3,138.5v-0.7h2l0.1,0.9c0.2-0.3,0.4-0.6,0.7-0.8s0.6-0.3,0.9-0.3c0.1,0,0.2,0,0.3,0s0.2,0,0.2,0
			l-0.2,1.1l-0.7,0c-0.3,0-0.6,0.1-0.8,0.2s-0.4,0.3-0.5,0.6v3.6l1,0.2v0.7h-3.1v-0.7l1-0.2v-4.5L104.3,138.5z"/>
	</g>
	<g class="st0">
		<path class="st3" d="M115.4,138.5l-0.6,0.1l-2.4,6.5c-0.2,0.4-0.4,0.8-0.7,1.1s-0.7,0.5-1.2,0.5c-0.1,0-0.2,0-0.4,0
			s-0.3,0-0.3-0.1l0.1-0.9c0,0,0,0,0.2,0s0.3,0,0.3,0c0.2,0,0.4-0.1,0.6-0.3s0.3-0.5,0.4-0.7l0.3-0.7l-2.1-5.4l-0.6-0.1v-0.7h2.6
			v0.7l-0.7,0.1l1.1,3.1l0.2,0.8h0l1.3-3.9l-0.7-0.1v-0.7h2.6V138.5z"/>
	</g>
	<g class="st0">
		<path class="st3" d="M81.8,152.9L81,153l1.3,3.6l0.1,0.5h0l0.1-0.5l1.3-3.6l-0.8-0.1v-0.7h2.4v0.7L85,153l-2.1,5.5H82l-2.2-5.5
			l-0.5-0.1v-0.7h2.4V152.9z"/>
	</g>
	<g class="st0">
		<path class="st3" d="M86.2,155.3c0-0.9,0.3-1.7,0.8-2.3s1.2-0.9,2.1-0.9c0.9,0,1.6,0.3,2.1,0.9s0.8,1.4,0.8,2.3v0.1
			c0,0.9-0.3,1.7-0.8,2.3s-1.2,0.9-2.1,0.9c-0.9,0-1.6-0.3-2.1-0.9s-0.8-1.4-0.8-2.3V155.3z M87.4,155.4c0,0.7,0.1,1.2,0.4,1.7
			s0.7,0.7,1.3,0.7c0.5,0,1-0.2,1.2-0.7s0.4-1,0.4-1.7v-0.1c0-0.7-0.1-1.2-0.4-1.7s-0.7-0.7-1.3-0.7s-1,0.2-1.3,0.7s-0.4,1-0.4,1.7
			V155.4z"/>
	</g>
	<g class="st0">
		<path class="st3" d="M92.7,150.1v-0.7h2.1v8.2l1,0.2v0.7h-3.1v-0.7l1-0.2v-7.3L92.7,150.1z"/>
		<path class="st3" d="M101.1,157.6c-0.2,0.3-0.5,0.6-0.8,0.8s-0.7,0.3-1.1,0.3c-0.7,0-1.2-0.2-1.6-0.7s-0.6-1.1-0.6-2.1v-2.8
			l-0.7-0.2v-0.7h0.7h1.2v3.8c0,0.7,0.1,1.1,0.3,1.4s0.5,0.4,0.9,0.4c0.4,0,0.7-0.1,1-0.2s0.5-0.4,0.6-0.7v-3.7l-0.8-0.2v-0.7h0.8
			h1.2v5.4l0.7,0.2v0.7h-1.8L101.1,157.6z"/>
	</g>
	<g class="st0">
		<path class="st3" d="M103.7,157.8l1-0.2v-4.5l-1-0.2v-0.7h2l0.1,0.8c0.2-0.3,0.5-0.5,0.8-0.7s0.7-0.2,1.1-0.2s0.8,0.1,1.1,0.3
			s0.5,0.5,0.7,0.9c0.2-0.4,0.5-0.6,0.8-0.9s0.7-0.3,1.1-0.3c0.6,0,1.2,0.2,1.5,0.7s0.6,1.1,0.6,2v2.9l1,0.2v0.7h-3.1v-0.7l1-0.2
			v-2.9c0-0.6-0.1-1.1-0.3-1.3s-0.5-0.4-1-0.4c-0.4,0-0.7,0.1-1,0.4s-0.4,0.6-0.4,1.1v3.1l1,0.2v0.7h-3.1v-0.7l1-0.2v-2.9
			c0-0.6-0.1-1-0.3-1.3s-0.5-0.4-1-0.4c-0.4,0-0.6,0.1-0.9,0.2s-0.4,0.3-0.5,0.6v3.8l1,0.2v0.7h-3.1V157.8z"/>
	</g>
	<g class="st0">
		<path class="st3" d="M118.1,158.6c-0.9,0-1.6-0.3-2.1-0.9s-0.8-1.4-0.8-2.3v-0.3c0-0.9,0.3-1.7,0.8-2.3s1.2-0.9,1.9-0.9
			c0.9,0,1.5,0.3,1.9,0.8s0.7,1.2,0.7,2.1v0.7h-4.1l0,0c0,0.6,0.2,1.1,0.5,1.5s0.7,0.6,1.2,0.6c0.4,0,0.7-0.1,1-0.2s0.5-0.3,0.8-0.5
			l0.5,0.8c-0.2,0.2-0.5,0.4-0.9,0.6S118.6,158.6,118.1,158.6z M117.9,152.9c-0.4,0-0.7,0.2-1,0.5s-0.4,0.7-0.5,1.2l0,0h2.9v-0.2
			c0-0.5-0.1-0.8-0.4-1.1S118.4,152.9,117.9,152.9z"/>
	</g>
	<g class="st0">
		<path class="st3" d="M82.4,172.1c0.4,0,0.7-0.1,1-0.4s0.4-0.5,0.4-0.9h1l0,0c0,0.5-0.2,1-0.7,1.5s-1.1,0.6-1.8,0.6
			c-0.9,0-1.6-0.3-2.1-0.9s-0.7-1.4-0.7-2.3v-0.2c0-0.9,0.2-1.7,0.7-2.3s1.2-0.9,2.1-0.9c0.5,0,1,0.1,1.4,0.3s0.7,0.4,1,0.7l0.1,1.4
			h-0.9l-0.3-1c-0.1-0.1-0.3-0.2-0.5-0.3s-0.5-0.1-0.7-0.1c-0.6,0-1,0.2-1.3,0.7s-0.4,1-0.4,1.6v0.2c0,0.6,0.1,1.2,0.4,1.6
			S81.8,172.1,82.4,172.1z"/>
		<path class="st3" d="M90.2,172.9c0-0.2-0.1-0.3-0.1-0.5s0-0.3,0-0.4c-0.2,0.3-0.5,0.5-0.8,0.7s-0.7,0.3-1.1,0.3
			c-0.7,0-1.2-0.2-1.5-0.5s-0.5-0.8-0.5-1.4c0-0.6,0.2-1.1,0.7-1.4s1.2-0.5,2-0.5h1.2v-0.7c0-0.4-0.1-0.7-0.4-0.9s-0.6-0.3-1-0.3
			c-0.3,0-0.5,0-0.8,0.1s-0.4,0.2-0.5,0.3l-0.1,0.7h-0.9v-1.2c0.3-0.2,0.6-0.4,1-0.6s0.9-0.2,1.3-0.2c0.7,0,1.3,0.2,1.7,0.6
			s0.7,0.9,0.7,1.6v3.1c0,0.1,0,0.2,0,0.2s0,0.2,0,0.2l0.5,0.1v0.7H90.2z M88.3,172c0.4,0,0.7-0.1,1-0.3s0.5-0.4,0.7-0.7v-1h-1.2
			c-0.5,0-0.8,0.1-1.1,0.3s-0.4,0.5-0.4,0.8c0,0.3,0.1,0.5,0.3,0.6S88,172,88.3,172z"/>
		<path class="st3" d="M97.5,168.5h-0.9l-0.2-0.8c-0.1-0.1-0.3-0.2-0.5-0.3s-0.5-0.1-0.7-0.1c-0.4,0-0.7,0.1-0.9,0.3
			S94,168,94,168.3c0,0.3,0.1,0.4,0.3,0.6s0.5,0.3,1.1,0.4c0.8,0.2,1.4,0.4,1.8,0.7s0.6,0.7,0.6,1.2c0,0.6-0.2,1-0.7,1.4
			s-1,0.5-1.8,0.5c-0.5,0-0.9-0.1-1.3-0.2s-0.7-0.3-1-0.5l0-1.4h0.9l0.2,0.8c0.1,0.1,0.3,0.2,0.5,0.3s0.5,0.1,0.7,0.1
			c0.4,0,0.7-0.1,1-0.2s0.3-0.4,0.3-0.7c0-0.3-0.1-0.5-0.3-0.6s-0.6-0.3-1.1-0.4c-0.8-0.2-1.3-0.4-1.7-0.7s-0.6-0.7-0.6-1.2
			c0-0.5,0.2-1,0.7-1.3s1-0.5,1.7-0.5c0.5,0,0.9,0.1,1.3,0.2s0.7,0.3,1,0.5L97.5,168.5z"/>
	</g>
	<g class="st0">
		<path class="st3" d="M81.1,187.3h-1.2v-1.2h1.2V187.3z"/>
		<path class="st3" d="M84,187.3h-1.2v-1.2H84V187.3z"/>
		<path class="st3" d="M86.9,187.3h-1.2v-1.2h1.2V187.3z"/>
	</g>
	<g class="st0">
		<path class="st4" d="M191.6,100.2l1-0.2v-4.5l-1-0.2v-0.7h2.1v5.4l1,0.2v0.7h-3.1V100.2z M193.7,92.9h-1.2v-1.2h1.2V92.9z"/>
		<path class="st4" d="M195.4,100.2l1-0.2v-4.5l-1-0.2v-0.7h2l0.1,0.9c0.2-0.3,0.5-0.6,0.8-0.8s0.7-0.3,1.1-0.3
			c0.7,0,1.2,0.2,1.6,0.6s0.6,1,0.6,1.9v3.1l1,0.2v0.7h-3.1v-0.7l1-0.2v-3.1c0-0.6-0.1-1-0.3-1.2s-0.6-0.4-1-0.4
			c-0.3,0-0.6,0.1-0.9,0.2s-0.5,0.4-0.6,0.7v3.7l1,0.2v0.7h-3.1V100.2z"/>
		<path class="st4" d="M208.1,96.5h-0.9l-0.2-0.8c-0.1-0.1-0.3-0.2-0.5-0.3s-0.5-0.1-0.7-0.1c-0.4,0-0.7,0.1-0.9,0.3
			s-0.3,0.4-0.3,0.7c0,0.3,0.1,0.4,0.3,0.6s0.5,0.3,1.1,0.4c0.8,0.2,1.4,0.4,1.8,0.7s0.6,0.7,0.6,1.2c0,0.6-0.2,1-0.7,1.4
			s-1,0.5-1.8,0.5c-0.5,0-0.9-0.1-1.3-0.2s-0.7-0.3-1-0.5l0-1.4h0.9l0.2,0.8c0.1,0.1,0.3,0.2,0.5,0.3s0.5,0.1,0.7,0.1
			c0.4,0,0.7-0.1,1-0.2s0.3-0.4,0.3-0.7c0-0.3-0.1-0.5-0.3-0.6s-0.6-0.3-1.1-0.4c-0.8-0.2-1.3-0.4-1.7-0.7s-0.6-0.7-0.6-1.2
			c0-0.5,0.2-1,0.7-1.3s1-0.5,1.7-0.5c0.5,0,0.9,0.1,1.3,0.2s0.7,0.3,1,0.5L208.1,96.5z"/>
		<path class="st4" d="M211.4,93v1.5h1.2v0.9h-1.2v3.8c0,0.3,0.1,0.5,0.2,0.6s0.3,0.2,0.5,0.2c0.1,0,0.2,0,0.3,0s0.2,0,0.3-0.1
			l0.2,0.8c-0.1,0.1-0.3,0.1-0.5,0.2s-0.4,0.1-0.6,0.1c-0.5,0-0.8-0.1-1.1-0.4s-0.4-0.7-0.4-1.3v-3.8h-1v-0.9h1V93H211.4z"/>
		<path class="st4" d="M217.9,100.9c0-0.2-0.1-0.3-0.1-0.5s0-0.3,0-0.4c-0.2,0.3-0.5,0.5-0.8,0.7s-0.7,0.3-1.1,0.3
			c-0.7,0-1.2-0.2-1.5-0.5s-0.5-0.8-0.5-1.4c0-0.6,0.2-1.1,0.7-1.4s1.2-0.5,2-0.5h1.2v-0.7c0-0.4-0.1-0.7-0.4-0.9s-0.6-0.3-1-0.3
			c-0.3,0-0.5,0-0.8,0.1s-0.4,0.2-0.5,0.3l-0.1,0.7h-0.9v-1.2c0.3-0.2,0.6-0.4,1-0.6s0.9-0.2,1.3-0.2c0.7,0,1.3,0.2,1.7,0.6
			s0.7,0.9,0.7,1.6v3.1c0,0.1,0,0.2,0,0.2s0,0.2,0,0.2l0.5,0.1v0.7H217.9z M216,100c0.4,0,0.7-0.1,1-0.3s0.5-0.4,0.7-0.7v-1h-1.2
			c-0.5,0-0.8,0.1-1.1,0.3s-0.4,0.5-0.4,0.8c0,0.3,0.1,0.5,0.3,0.6S215.7,100,216,100z"/>
		<path class="st4" d="M220.2,92.5v-0.7h2.1v8.2l1,0.2v0.7h-3.1v-0.7l1-0.2v-7.3L220.2,92.5z"/>
		<path class="st4" d="M224,92.5v-0.7h2.1v8.2l1,0.2v0.7H224v-0.7l1-0.2v-7.3L224,92.5z"/>
	</g>
	<g class="st0">
		<path class="st4" d="M196.4,110.9h-0.9l-0.2-0.8c-0.1-0.1-0.3-0.2-0.5-0.3s-0.5-0.1-0.7-0.1c-0.4,0-0.7,0.1-0.9,0.3
			s-0.3,0.4-0.3,0.7c0,0.3,0.1,0.4,0.3,0.6s0.5,0.3,1.1,0.4c0.8,0.2,1.4,0.4,1.8,0.7s0.6,0.7,0.6,1.2c0,0.6-0.2,1-0.7,1.4
			s-1,0.5-1.8,0.5c-0.5,0-0.9-0.1-1.3-0.2s-0.7-0.3-1-0.5l0-1.4h0.9l0.2,0.8c0.1,0.1,0.3,0.2,0.5,0.3s0.5,0.1,0.7,0.1
			c0.4,0,0.7-0.1,1-0.2s0.3-0.4,0.3-0.7c0-0.3-0.1-0.5-0.3-0.6s-0.6-0.3-1.1-0.4c-0.8-0.2-1.3-0.4-1.7-0.7s-0.6-0.7-0.6-1.2
			c0-0.5,0.2-1,0.7-1.3s1-0.5,1.7-0.5c0.5,0,0.9,0.1,1.3,0.2s0.7,0.3,1,0.5L196.4,110.9z"/>
		<path class="st4" d="M199.7,107.4v1.5h1.2v0.9h-1.2v3.8c0,0.3,0.1,0.5,0.2,0.6s0.3,0.2,0.5,0.2c0.1,0,0.2,0,0.3,0s0.2,0,0.3-0.1
			l0.2,0.8c-0.1,0.1-0.3,0.1-0.5,0.2s-0.4,0.1-0.6,0.1c-0.5,0-0.8-0.1-1.1-0.4s-0.4-0.7-0.4-1.3v-3.8h-1V109h1v-1.5H199.7z"/>
		<path class="st4" d="M206.2,115.3c0-0.2-0.1-0.3-0.1-0.5s0-0.3,0-0.4c-0.2,0.3-0.5,0.5-0.8,0.7s-0.7,0.3-1.1,0.3
			c-0.7,0-1.2-0.2-1.5-0.5s-0.5-0.8-0.5-1.4c0-0.6,0.2-1.1,0.7-1.4s1.2-0.5,2-0.5h1.2v-0.7c0-0.4-0.1-0.7-0.4-0.9s-0.6-0.3-1-0.3
			c-0.3,0-0.5,0-0.8,0.1s-0.4,0.2-0.5,0.3l-0.1,0.7h-0.9v-1.2c0.3-0.2,0.6-0.4,1-0.6s0.9-0.2,1.3-0.2c0.7,0,1.3,0.2,1.7,0.6
			s0.7,0.9,0.7,1.6v3.1c0,0.1,0,0.2,0,0.2s0,0.2,0,0.2l0.5,0.1v0.7H206.2z M204.4,114.4c0.4,0,0.7-0.1,1-0.3s0.5-0.4,0.7-0.7v-1
			h-1.2c-0.5,0-0.8,0.1-1.1,0.3s-0.4,0.5-0.4,0.8c0,0.3,0.1,0.5,0.3,0.6S204,114.4,204.4,114.4z"/>
	</g>
	<g class="st0">
		<path class="st4" d="M208.7,109.7V109h2l0.1,0.9c0.2-0.3,0.4-0.6,0.7-0.8s0.6-0.3,0.9-0.3c0.1,0,0.2,0,0.3,0s0.2,0,0.2,0l-0.2,1.1
			l-0.7,0c-0.3,0-0.6,0.1-0.8,0.2s-0.4,0.3-0.5,0.6v3.6l1,0.2v0.7h-3.1v-0.7l1-0.2v-4.5L208.7,109.7z"/>
	</g>
	<g class="st0">
		<path class="st4" d="M215.9,107.4v1.5h1.2v0.9h-1.2v3.8c0,0.3,0.1,0.5,0.2,0.6s0.3,0.2,0.5,0.2c0.1,0,0.2,0,0.3,0s0.2,0,0.3-0.1
			l0.2,0.8c-0.1,0.1-0.3,0.1-0.5,0.2s-0.4,0.1-0.6,0.1c-0.5,0-0.8-0.1-1.1-0.4s-0.4-0.7-0.4-1.3v-3.8h-1V109h1v-1.5H215.9z"/>
	</g>
	<g class="st0">
		<path class="st4" d="M194.4,128.9c0.4,0,0.7-0.1,1-0.4s0.4-0.5,0.4-0.9h1l0,0c0,0.5-0.2,1-0.7,1.5s-1.1,0.6-1.8,0.6
			c-0.9,0-1.6-0.3-2.1-0.9s-0.7-1.4-0.7-2.3v-0.2c0-0.9,0.2-1.7,0.7-2.3s1.2-0.9,2.1-0.9c0.5,0,1,0.1,1.4,0.3s0.7,0.4,1,0.7l0.1,1.4
			h-0.9l-0.3-1c-0.1-0.1-0.3-0.2-0.5-0.3s-0.5-0.1-0.7-0.1c-0.6,0-1,0.2-1.3,0.7s-0.4,1-0.4,1.6v0.2c0,0.6,0.1,1.2,0.4,1.6
			S193.8,128.9,194.4,128.9z"/>
	</g>
	<g class="st0">
		<path class="st4" d="M197.9,129l1-0.2v-7.3l-1-0.2v-0.7h2.1v3.6c0.2-0.3,0.5-0.5,0.8-0.7s0.7-0.3,1.1-0.3c0.7,0,1.2,0.2,1.6,0.6
			s0.6,1,0.6,1.9v3.1l1,0.2v0.7h-3.1V129l1-0.2v-3.1c0-0.5-0.1-0.9-0.3-1.2s-0.6-0.4-1-0.4c-0.3,0-0.6,0.1-0.9,0.2s-0.5,0.4-0.6,0.6
			v3.8l1,0.2v0.7h-3.1V129z"/>
	</g>
	<g class="st0">
		<path class="st4" d="M208.6,129.8c-0.9,0-1.6-0.3-2.1-0.9s-0.8-1.4-0.8-2.3v-0.3c0-0.9,0.3-1.7,0.8-2.3s1.2-0.9,1.9-0.9
			c0.9,0,1.5,0.3,1.9,0.8s0.7,1.2,0.7,2.1v0.7H207l0,0c0,0.6,0.2,1.1,0.5,1.5s0.7,0.6,1.2,0.6c0.4,0,0.7-0.1,1-0.2s0.5-0.3,0.8-0.5
			l0.5,0.8c-0.2,0.2-0.5,0.4-0.9,0.6S209.2,129.8,208.6,129.8z M208.5,124.1c-0.4,0-0.7,0.2-1,0.5s-0.4,0.7-0.5,1.2l0,0h2.9v-0.2
			c0-0.5-0.1-0.8-0.4-1.1S208.9,124.1,208.5,124.1z"/>
		<path class="st4" d="M215.1,128.9c0.4,0,0.7-0.1,1-0.4s0.4-0.5,0.4-0.9h1l0,0c0,0.5-0.2,1-0.7,1.5s-1.1,0.6-1.8,0.6
			c-0.9,0-1.6-0.3-2.1-0.9s-0.7-1.4-0.7-2.3v-0.2c0-0.9,0.2-1.7,0.7-2.3s1.2-0.9,2.1-0.9c0.5,0,1,0.1,1.4,0.3s0.7,0.4,1,0.7l0.1,1.4
			h-0.9l-0.3-1c-0.1-0.1-0.3-0.2-0.5-0.3s-0.5-0.1-0.7-0.1c-0.6,0-1,0.2-1.3,0.7c-0.3,0.4-0.4,1-0.4,1.6v0.2c0,0.6,0.1,1.2,0.4,1.6
			C214,128.7,214.4,128.9,215.1,128.9z"/>
		<path class="st4" d="M218.5,121.3v-0.7h2.1v5.3h0.7l1.4-1.7l-0.6-0.1v-0.7h2.7v0.7l-0.8,0.2l-1.7,2l2,2.6l0.7,0.1v0.7h-2.6V129
			l0.6-0.1l-1.7-2.1h-0.8v2l1,0.2v0.7h-3.1V129l1-0.2v-7.3L218.5,121.3z"/>
	</g>
	<g class="st0">
		<path class="st4" d="M193.6,136.2v1.5h1.2v0.9h-1.2v3.8c0,0.3,0.1,0.5,0.2,0.6s0.3,0.2,0.5,0.2c0.1,0,0.2,0,0.3,0s0.2,0,0.3-0.1
			l0.2,0.8c-0.1,0.1-0.3,0.1-0.5,0.2s-0.4,0.1-0.6,0.1c-0.5,0-0.8-0.1-1.1-0.4s-0.4-0.7-0.4-1.3v-3.8h-1v-0.9h1v-1.5H193.6z"/>
		<path class="st4" d="M200.5,143.2c-0.2,0.3-0.5,0.6-0.8,0.8s-0.7,0.3-1.1,0.3c-0.7,0-1.2-0.2-1.6-0.7s-0.6-1.1-0.6-2.1v-2.8
			l-0.7-0.2v-0.7h0.7h1.2v3.8c0,0.7,0.1,1.1,0.3,1.4s0.5,0.4,0.9,0.4c0.4,0,0.7-0.1,1-0.2s0.5-0.4,0.6-0.7v-3.7l-0.8-0.2v-0.7h0.8
			h1.2v5.4l0.7,0.2v0.7h-1.8L200.5,143.2z"/>
		<path class="st4" d="M203.1,143.4l1-0.2v-4.5l-1-0.2v-0.7h2l0.1,0.9c0.2-0.3,0.5-0.6,0.8-0.8s0.7-0.3,1.1-0.3
			c0.7,0,1.2,0.2,1.6,0.6s0.6,1,0.6,1.9v3.1l1,0.2v0.7h-3.1v-0.7l1-0.2v-3.1c0-0.6-0.1-1-0.3-1.2s-0.6-0.4-1-0.4
			c-0.3,0-0.6,0.1-0.9,0.2s-0.5,0.4-0.6,0.7v3.7l1,0.2v0.7h-3.1V143.4z"/>
	</g>
	<g class="st0">
		<path class="st4" d="M210.8,143.4l1-0.2v-4.5l-1-0.2v-0.7h2l0.1,0.9c0.2-0.3,0.5-0.6,0.8-0.8c0.3-0.2,0.7-0.3,1.1-0.3
			c0.7,0,1.2,0.2,1.6,0.6s0.6,1,0.6,1.9v3.1l1,0.2v0.7h-3.1v-0.7l1-0.2v-3.1c0-0.6-0.1-1-0.3-1.2s-0.6-0.4-1-0.4
			c-0.3,0-0.6,0.1-0.9,0.2s-0.5,0.4-0.6,0.7v3.7l1,0.2v0.7h-3.1V143.4z"/>
	</g>
	<g class="st0">
		<path class="st4" d="M221.6,144.2c-0.9,0-1.6-0.3-2.1-0.9s-0.8-1.4-0.8-2.3v-0.3c0-0.9,0.3-1.7,0.8-2.3s1.2-0.9,1.9-0.9
			c0.9,0,1.5,0.3,1.9,0.8s0.7,1.2,0.7,2.1v0.7h-4.1l0,0c0,0.6,0.2,1.1,0.5,1.5s0.7,0.6,1.2,0.6c0.4,0,0.7-0.1,1-0.2s0.5-0.3,0.8-0.5
			l0.5,0.8c-0.2,0.2-0.5,0.4-0.9,0.6S222.1,144.2,221.6,144.2z M221.4,138.5c-0.4,0-0.7,0.2-1,0.5s-0.4,0.7-0.5,1.2l0,0h2.9v-0.2
			c0-0.5-0.1-0.8-0.4-1.1S221.9,138.5,221.4,138.5z"/>
		<path class="st4" d="M225,135.7v-0.7h2.1v8.2l1,0.2v0.7H225v-0.7l1-0.2v-7.3L225,135.7z"/>
	</g>
	<g class="st0">
		<path class="st4" d="M196.4,154.1h-0.9l-0.2-0.8c-0.1-0.1-0.3-0.2-0.5-0.3s-0.5-0.1-0.7-0.1c-0.4,0-0.7,0.1-0.9,0.3
			s-0.3,0.4-0.3,0.7c0,0.3,0.1,0.4,0.3,0.6s0.5,0.3,1.1,0.4c0.8,0.2,1.4,0.4,1.8,0.7s0.6,0.7,0.6,1.2c0,0.6-0.2,1-0.7,1.4
			s-1,0.5-1.8,0.5c-0.5,0-0.9-0.1-1.3-0.2s-0.7-0.3-1-0.5l0-1.4h0.9l0.2,0.8c0.1,0.1,0.3,0.2,0.5,0.3s0.5,0.1,0.7,0.1
			c0.4,0,0.7-0.1,1-0.2s0.3-0.4,0.3-0.7c0-0.3-0.1-0.5-0.3-0.6s-0.6-0.3-1.1-0.4c-0.8-0.2-1.3-0.4-1.7-0.7s-0.6-0.7-0.6-1.2
			c0-0.5,0.2-1,0.7-1.3s1-0.5,1.7-0.5c0.5,0,0.9,0.1,1.3,0.2s0.7,0.3,1,0.5L196.4,154.1z"/>
	</g>
	<g class="st0">
		<path class="st4" d="M199.7,150.6v1.5h1.2v0.9h-1.2v3.8c0,0.3,0.1,0.5,0.2,0.6s0.3,0.2,0.5,0.2c0.1,0,0.2,0,0.3,0s0.2,0,0.3-0.1
			l0.2,0.8c-0.1,0.1-0.3,0.1-0.5,0.2s-0.4,0.1-0.6,0.1c-0.5,0-0.8-0.1-1.1-0.4s-0.4-0.7-0.4-1.3V153h-1v-0.9h1v-1.5H199.7z"/>
	</g>
	<g class="st0">
		<path class="st4" d="M202,155.3c0-0.9,0.3-1.7,0.8-2.3s1.2-0.9,2.1-0.9c0.9,0,1.6,0.3,2.1,0.9s0.8,1.4,0.8,2.3v0.1
			c0,0.9-0.3,1.7-0.8,2.3s-1.2,0.9-2.1,0.9c-0.9,0-1.6-0.3-2.1-0.9s-0.8-1.4-0.8-2.3V155.3z M203.1,155.4c0,0.7,0.1,1.2,0.4,1.7
			s0.7,0.7,1.3,0.7c0.5,0,1-0.2,1.2-0.7s0.4-1,0.4-1.7v-0.1c0-0.7-0.1-1.2-0.4-1.7s-0.7-0.7-1.3-0.7s-1,0.2-1.3,0.7s-0.4,1-0.4,1.7
			V155.4z"/>
		<path class="st4" d="M208.6,160.2l1-0.2v-7l-1-0.2v-0.7h1.9l0.1,0.8c0.2-0.3,0.5-0.5,0.8-0.7s0.7-0.2,1.1-0.2
			c0.8,0,1.4,0.3,1.8,0.9s0.7,1.4,0.7,2.5v0.1c0,0.9-0.2,1.7-0.7,2.2s-1,0.8-1.8,0.8c-0.4,0-0.7-0.1-1-0.2s-0.5-0.3-0.8-0.6v2.2
			l1,0.2v0.7h-3.1V160.2z M213.8,155.4c0-0.7-0.1-1.3-0.4-1.8s-0.7-0.7-1.3-0.7c-0.3,0-0.6,0.1-0.8,0.2s-0.4,0.4-0.6,0.6v3.1
			c0.1,0.3,0.3,0.5,0.6,0.6s0.5,0.2,0.9,0.2c0.5,0,1-0.2,1.2-0.6s0.4-0.9,0.4-1.6V155.4z"/>
	</g>
	<g class="st0">
		<path class="st4" d="M196.1,172c-0.2,0.3-0.5,0.6-0.8,0.8s-0.7,0.3-1.1,0.3c-0.7,0-1.2-0.2-1.6-0.7s-0.6-1.1-0.6-2.1v-2.8
			l-0.7-0.2v-0.7h0.7h1.2v3.8c0,0.7,0.1,1.1,0.3,1.4s0.5,0.4,0.9,0.4c0.4,0,0.7-0.1,1-0.2s0.5-0.4,0.6-0.7v-3.7l-0.8-0.2v-0.7h0.8
			h1.2v5.4l0.7,0.2v0.7h-1.8L196.1,172z"/>
		<path class="st4" d="M198.7,172.2l1-0.2v-4.5l-1-0.2v-0.7h2l0.1,0.9c0.2-0.3,0.5-0.6,0.8-0.8s0.7-0.3,1.1-0.3
			c0.7,0,1.2,0.2,1.6,0.6s0.6,1,0.6,1.9v3.1l1,0.2v0.7h-3.1v-0.7l1-0.2v-3.1c0-0.6-0.1-1-0.3-1.2s-0.6-0.4-1-0.4
			c-0.3,0-0.6,0.1-0.9,0.2s-0.5,0.4-0.6,0.7v3.7l1,0.2v0.7h-3.1V172.2z"/>
		<path class="st4" d="M206.6,172.2l1-0.2v-4.5l-1-0.2v-0.7h2.1v5.4l1,0.2v0.7h-3.1V172.2z M208.7,164.9h-1.2v-1.2h1.2V164.9z"/>
		<path class="st4" d="M210.4,172.2l1-0.2v-4.5l-1-0.2v-0.7h2l0.1,0.9c0.2-0.3,0.5-0.6,0.8-0.8s0.7-0.3,1.1-0.3
			c0.7,0,1.2,0.2,1.6,0.6s0.6,1,0.6,1.9v3.1l1,0.2v0.7h-3.1v-0.7l1-0.2v-3.1c0-0.6-0.1-1-0.3-1.2s-0.6-0.4-1-0.4
			c-0.3,0-0.6,0.1-0.9,0.2s-0.5,0.4-0.6,0.7v3.7l1,0.2v0.7h-3.1V172.2z"/>
		<path class="st4" d="M223.1,168.5h-0.9l-0.2-0.8c-0.1-0.1-0.3-0.2-0.5-0.3s-0.5-0.1-0.7-0.1c-0.4,0-0.7,0.1-0.9,0.3
			s-0.3,0.4-0.3,0.7c0,0.3,0.1,0.4,0.3,0.6s0.5,0.3,1.1,0.4c0.8,0.2,1.4,0.4,1.8,0.7s0.6,0.7,0.6,1.2c0,0.6-0.2,1-0.7,1.4
			s-1,0.5-1.8,0.5c-0.5,0-0.9-0.1-1.3-0.2s-0.7-0.3-1-0.5l0-1.4h0.9l0.2,0.8c0.1,0.1,0.3,0.2,0.5,0.3s0.5,0.1,0.7,0.1
			c0.4,0,0.7-0.1,1-0.2s0.3-0.4,0.3-0.7c0-0.3-0.1-0.5-0.3-0.6s-0.6-0.3-1.1-0.4c-0.8-0.2-1.3-0.4-1.7-0.7s-0.6-0.7-0.6-1.2
			c0-0.5,0.2-1,0.7-1.3s1-0.5,1.7-0.5c0.5,0,0.9,0.1,1.3,0.2s0.7,0.3,1,0.5L223.1,168.5z"/>
		<path class="st4" d="M226.4,165v1.5h1.2v0.9h-1.2v3.8c0,0.3,0.1,0.5,0.2,0.6s0.3,0.2,0.5,0.2c0.1,0,0.2,0,0.3,0s0.2,0,0.3-0.1
			l0.2,0.8c-0.1,0.1-0.3,0.1-0.5,0.2s-0.4,0.1-0.6,0.1c-0.5,0-0.8-0.1-1.1-0.4s-0.4-0.7-0.4-1.3v-3.8h-1v-0.9h1V165H226.4z"/>
		<path class="st4" d="M232.9,172.9c0-0.2-0.1-0.3-0.1-0.5s0-0.3,0-0.4c-0.2,0.3-0.5,0.5-0.8,0.7s-0.7,0.3-1.1,0.3
			c-0.7,0-1.2-0.2-1.5-0.5s-0.5-0.8-0.5-1.4c0-0.6,0.2-1.1,0.7-1.4s1.2-0.5,2-0.5h1.2v-0.7c0-0.4-0.1-0.7-0.4-0.9s-0.6-0.3-1-0.3
			c-0.3,0-0.5,0-0.8,0.1s-0.4,0.2-0.5,0.3l-0.1,0.7h-0.9v-1.2c0.3-0.2,0.6-0.4,1-0.6s0.9-0.2,1.3-0.2c0.7,0,1.3,0.2,1.7,0.6
			s0.7,0.9,0.7,1.6v3.1c0,0.1,0,0.2,0,0.2s0,0.2,0,0.2l0.5,0.1v0.7H232.9z M231.1,172c0.4,0,0.7-0.1,1-0.3s0.5-0.4,0.7-0.7v-1h-1.2
			c-0.5,0-0.8,0.1-1.1,0.3s-0.4,0.5-0.4,0.8c0,0.3,0.1,0.5,0.3,0.6S230.7,172,231.1,172z"/>
		<path class="st4" d="M235.2,164.5v-0.7h2.1v8.2l1,0.2v0.7h-3.1v-0.7l1-0.2v-7.3L235.2,164.5z"/>
		<path class="st4" d="M239,164.5v-0.7h2.1v8.2l1,0.2v0.7H239v-0.7l1-0.2v-7.3L239,164.5z"/>
	</g>
	<g class="st0">
		<path class="st1" d="M296.3,97.1h-7.8v-0.9h7.8V97.1z"/>
	</g>
	<g class="st0">
		<path class="st1" d="M297.3,100.2l1-0.2v-7.3l-1-0.2v-0.7h2.1v3.6c0.2-0.3,0.5-0.5,0.8-0.7s0.7-0.3,1.1-0.3c0.7,0,1.2,0.2,1.6,0.6
			s0.6,1,0.6,1.9v3.1l1,0.2v0.7h-3.1v-0.7l1-0.2v-3.1c0-0.5-0.1-0.9-0.3-1.2s-0.6-0.4-1-0.4c-0.3,0-0.6,0.1-0.9,0.2
			s-0.5,0.4-0.6,0.6v3.8l1,0.2v0.7h-3.1V100.2z"/>
	</g>
	<g class="st0">
		<path class="st1" d="M308.1,101c-0.9,0-1.6-0.3-2.1-0.9s-0.8-1.4-0.8-2.3v-0.3c0-0.9,0.3-1.7,0.8-2.3s1.2-0.9,1.9-0.9
			c0.9,0,1.5,0.3,1.9,0.8s0.7,1.2,0.7,2.1V98h-4.1l0,0c0,0.6,0.2,1.1,0.5,1.5s0.7,0.6,1.2,0.6c0.4,0,0.7-0.1,1-0.2s0.5-0.3,0.8-0.5
			l0.5,0.8c-0.2,0.2-0.5,0.4-0.9,0.6S308.6,101,308.1,101z M307.9,95.3c-0.4,0-0.7,0.2-1,0.5s-0.4,0.7-0.5,1.2l0,0h2.9v-0.2
			c0-0.5-0.1-0.8-0.4-1.1S308.4,95.3,307.9,95.3z"/>
		<path class="st1" d="M311.5,92.5v-0.7h2.1v8.2l1,0.2v0.7h-3.1v-0.7l1-0.2v-7.3L311.5,92.5z"/>
		<path class="st1" d="M315.3,102.6l1-0.2v-7l-1-0.2v-0.7h1.9l0.1,0.8c0.2-0.3,0.5-0.5,0.8-0.7s0.7-0.2,1.1-0.2
			c0.8,0,1.4,0.3,1.8,0.9s0.7,1.4,0.7,2.5V98c0,0.9-0.2,1.7-0.7,2.2s-1,0.8-1.8,0.8c-0.4,0-0.7-0.1-1-0.2s-0.5-0.3-0.8-0.6v2.2
			l1,0.2v0.7h-3.1V102.6z M320.4,97.8c0-0.7-0.1-1.3-0.4-1.8s-0.7-0.7-1.3-0.7c-0.3,0-0.6,0.1-0.8,0.2s-0.4,0.4-0.6,0.6v3.1
			c0.1,0.3,0.3,0.5,0.6,0.6s0.5,0.2,0.9,0.2c0.5,0,1-0.2,1.2-0.6s0.4-0.9,0.4-1.6V97.8z"/>
	</g>
	<g class="st0">
		<path class="st1" d="M296.3,111.5h-7.8v-0.9h7.8V111.5z"/>
		<path class="st1" d="M297.2,114.6l1-0.2v-4.5l-1-0.2V109h2l0.1,0.8c0.2-0.3,0.5-0.5,0.8-0.7s0.7-0.2,1.1-0.2s0.8,0.1,1.1,0.3
			s0.5,0.5,0.7,0.9c0.2-0.4,0.5-0.6,0.8-0.9s0.7-0.3,1.1-0.3c0.6,0,1.2,0.2,1.5,0.7s0.6,1.1,0.6,2v2.9l1,0.2v0.7h-3.1v-0.7l1-0.2
			v-2.9c0-0.6-0.1-1.1-0.3-1.3s-0.5-0.4-1-0.4c-0.4,0-0.7,0.1-1,0.4s-0.4,0.6-0.4,1.1v3.1l1,0.2v0.7h-3.1v-0.7l1-0.2v-2.9
			c0-0.6-0.1-1-0.3-1.3s-0.5-0.4-1-0.4c-0.4,0-0.6,0.1-0.9,0.2s-0.4,0.3-0.5,0.6v3.8l1,0.2v0.7h-3.1V114.6z"/>
		<path class="st1" d="M312.9,115.3c0-0.2-0.1-0.3-0.1-0.5s0-0.3,0-0.4c-0.2,0.3-0.5,0.5-0.8,0.7s-0.7,0.3-1.1,0.3
			c-0.7,0-1.2-0.2-1.5-0.5s-0.5-0.8-0.5-1.4c0-0.6,0.2-1.1,0.7-1.4s1.2-0.5,2-0.5h1.2v-0.7c0-0.4-0.1-0.7-0.4-0.9s-0.6-0.3-1-0.3
			c-0.3,0-0.5,0-0.8,0.1s-0.4,0.2-0.5,0.3l-0.1,0.7h-0.9v-1.2c0.3-0.2,0.6-0.4,1-0.6s0.9-0.2,1.3-0.2c0.7,0,1.3,0.2,1.7,0.6
			s0.7,0.9,0.7,1.6v3.1c0,0.1,0,0.2,0,0.2s0,0.2,0,0.2l0.5,0.1v0.7H312.9z M311.1,114.4c0.4,0,0.7-0.1,1-0.3s0.5-0.4,0.7-0.7v-1
			h-1.2c-0.5,0-0.8,0.1-1.1,0.3s-0.4,0.5-0.4,0.8c0,0.3,0.1,0.5,0.3,0.6S310.7,114.4,311.1,114.4z"/>
		<path class="st1" d="M315.3,114.6l1-0.2v-4.5l-1-0.2V109h2l0.1,0.9c0.2-0.3,0.5-0.6,0.8-0.8s0.7-0.3,1.1-0.3
			c0.7,0,1.2,0.2,1.6,0.6s0.6,1,0.6,1.9v3.1l1,0.2v0.7h-3.1v-0.7l1-0.2v-3.1c0-0.6-0.1-1-0.3-1.2s-0.6-0.4-1-0.4
			c-0.3,0-0.6,0.1-0.9,0.2s-0.5,0.4-0.6,0.7v3.7l1,0.2v0.7h-3.1V114.6z"/>
		<path class="st1" d="M327.3,115.3c0-0.2-0.1-0.3-0.1-0.5s0-0.3,0-0.4c-0.2,0.3-0.5,0.5-0.8,0.7s-0.7,0.3-1.1,0.3
			c-0.7,0-1.2-0.2-1.5-0.5s-0.5-0.8-0.5-1.4c0-0.6,0.2-1.1,0.7-1.4s1.2-0.5,2-0.5h1.2v-0.7c0-0.4-0.1-0.7-0.4-0.9s-0.6-0.3-1-0.3
			c-0.3,0-0.5,0-0.8,0.1s-0.4,0.2-0.5,0.3l-0.1,0.7h-0.9v-1.2c0.3-0.2,0.6-0.4,1-0.6s0.9-0.2,1.3-0.2c0.7,0,1.3,0.2,1.7,0.6
			s0.7,0.9,0.7,1.6v3.1c0,0.1,0,0.2,0,0.2s0,0.2,0,0.2l0.5,0.1v0.7H327.3z M325.4,114.4c0.4,0,0.7-0.1,1-0.3s0.5-0.4,0.7-0.7v-1
			h-1.2c-0.5,0-0.8,0.1-1.1,0.3s-0.4,0.5-0.4,0.8c0,0.3,0.1,0.5,0.3,0.6S325.1,114.4,325.4,114.4z"/>
		<path class="st1" d="M329.8,112.2c0-1,0.2-1.8,0.7-2.5s1.1-0.9,1.8-0.9c0.4,0,0.7,0.1,1,0.2s0.6,0.4,0.8,0.7l0.1-0.8h1v6.3
			c0,0.8-0.2,1.5-0.7,1.9s-1.1,0.7-2,0.7c-0.3,0-0.6,0-1-0.1s-0.7-0.2-0.9-0.3l0.3-0.9c0.2,0.1,0.5,0.2,0.8,0.3s0.6,0.1,0.9,0.1
			c0.5,0,0.9-0.1,1.1-0.4s0.4-0.7,0.4-1.2v-0.6c-0.2,0.3-0.5,0.5-0.7,0.6s-0.6,0.2-1,0.2c-0.8,0-1.4-0.3-1.8-0.8s-0.7-1.3-0.7-2.2
			V112.2z M330.9,112.4c0,0.6,0.1,1.1,0.4,1.5s0.7,0.6,1.2,0.6c0.3,0,0.6-0.1,0.9-0.2s0.4-0.4,0.6-0.7v-2.9
			c-0.1-0.3-0.3-0.5-0.6-0.6s-0.5-0.2-0.9-0.2c-0.6,0-1,0.2-1.2,0.7s-0.4,1.1-0.4,1.8V112.4z"/>
		<path class="st1" d="M339.4,115.4c-0.9,0-1.6-0.3-2.1-0.9s-0.8-1.4-0.8-2.3V112c0-0.9,0.3-1.7,0.8-2.3s1.2-0.9,1.9-0.9
			c0.9,0,1.5,0.3,1.9,0.8s0.7,1.2,0.7,2.1v0.7h-4.1l0,0c0,0.6,0.2,1.1,0.5,1.5s0.7,0.6,1.2,0.6c0.4,0,0.7-0.1,1-0.2s0.5-0.3,0.8-0.5
			l0.5,0.8c-0.2,0.2-0.5,0.4-0.9,0.6S340,115.4,339.4,115.4z M339.3,109.7c-0.4,0-0.7,0.2-1,0.5s-0.4,0.7-0.5,1.2l0,0h2.9v-0.2
			c0-0.5-0.1-0.8-0.4-1.1S339.7,109.7,339.3,109.7z"/>
		<path class="st1" d="M343,109.7V109h2l0.1,0.9c0.2-0.3,0.4-0.6,0.7-0.8s0.6-0.3,0.9-0.3c0.1,0,0.2,0,0.3,0s0.2,0,0.2,0L347,110
			l-0.7,0c-0.3,0-0.6,0.1-0.8,0.2s-0.4,0.3-0.5,0.6v3.6l1,0.2v0.7H343v-0.7l1-0.2v-4.5L343,109.7z"/>
	</g>
	<g class="st0">
		<path class="st1" d="M296.3,125.9h-7.8V125h7.8V125.9z"/>
		<path class="st1" d="M302.3,125.3h-0.9l-0.2-0.8c-0.1-0.1-0.3-0.2-0.5-0.3s-0.5-0.1-0.7-0.1c-0.4,0-0.7,0.1-0.9,0.3
			s-0.3,0.4-0.3,0.7c0,0.3,0.1,0.4,0.3,0.6s0.5,0.3,1.1,0.4c0.8,0.2,1.4,0.4,1.8,0.7s0.6,0.7,0.6,1.2c0,0.6-0.2,1-0.7,1.4
			s-1,0.5-1.8,0.5c-0.5,0-0.9-0.1-1.3-0.2s-0.7-0.3-1-0.5l0-1.4h0.9l0.2,0.8c0.1,0.1,0.3,0.2,0.5,0.3s0.5,0.1,0.7,0.1
			c0.4,0,0.7-0.1,1-0.2s0.3-0.4,0.3-0.7c0-0.3-0.1-0.5-0.3-0.6s-0.6-0.3-1.1-0.4c-0.8-0.2-1.3-0.4-1.7-0.7s-0.6-0.7-0.6-1.2
			c0-0.5,0.2-1,0.7-1.3s1-0.5,1.7-0.5c0.5,0,0.9,0.1,1.3,0.2s0.7,0.3,1,0.5L302.3,125.3z"/>
	</g>
	<g class="st0">
		<path class="st1" d="M305.6,121.8v1.5h1.2v0.9h-1.2v3.8c0,0.3,0.1,0.5,0.2,0.6s0.3,0.2,0.5,0.2c0.1,0,0.2,0,0.3,0s0.2,0,0.3-0.1
			l0.2,0.8c-0.1,0.1-0.3,0.1-0.5,0.2s-0.4,0.1-0.6,0.1c-0.5,0-0.8-0.1-1.1-0.4s-0.4-0.7-0.4-1.3v-3.8h-1v-0.9h1v-1.5H305.6z"/>
	</g>
	<g class="st0">
		<path class="st1" d="M307.9,126.5c0-0.9,0.3-1.7,0.8-2.3s1.2-0.9,2.1-0.9c0.9,0,1.6,0.3,2.1,0.9s0.8,1.4,0.8,2.3v0.1
			c0,0.9-0.3,1.7-0.8,2.3s-1.2,0.9-2.1,0.9c-0.9,0-1.6-0.3-2.1-0.9s-0.8-1.4-0.8-2.3V126.5z M309,126.6c0,0.7,0.1,1.2,0.4,1.7
			s0.7,0.7,1.3,0.7c0.5,0,1-0.2,1.2-0.7s0.4-1,0.4-1.7v-0.1c0-0.7-0.1-1.2-0.4-1.7s-0.7-0.7-1.3-0.7s-1,0.2-1.3,0.7s-0.4,1-0.4,1.7
			V126.6z"/>
		<path class="st1" d="M314.5,131.4l1-0.2v-7l-1-0.2v-0.7h1.9l0.1,0.8c0.2-0.3,0.5-0.5,0.8-0.7s0.7-0.2,1.1-0.2
			c0.8,0,1.4,0.3,1.8,0.9s0.7,1.4,0.7,2.5v0.1c0,0.9-0.2,1.7-0.7,2.2s-1,0.8-1.8,0.8c-0.4,0-0.7-0.1-1-0.2s-0.5-0.3-0.8-0.6v2.2
			l1,0.2v0.7h-3.1V131.4z M319.7,126.6c0-0.7-0.1-1.3-0.4-1.8s-0.7-0.7-1.3-0.7c-0.3,0-0.6,0.1-0.8,0.2s-0.4,0.4-0.6,0.6v3.1
			c0.1,0.3,0.3,0.5,0.6,0.6s0.5,0.2,0.9,0.2c0.5,0,1-0.2,1.2-0.6s0.4-0.9,0.4-1.6V126.6z"/>
	</g>
	<g class="st0">
		<path class="st1" d="M296.3,140.3h-7.8v-0.9h7.8V140.3z"/>
	</g>
	<g class="st0">
		<path class="st1" d="M299.6,138.5l-0.8,0.1l1.3,3.6l0.1,0.5h0l0.1-0.5l1.3-3.6l-0.8-0.1v-0.7h2.4v0.7l-0.5,0.1l-2.1,5.5h-0.9
			l-2.2-5.5l-0.5-0.1v-0.7h2.4V138.5z"/>
	</g>
	<g class="st0">
		<path class="st1" d="M307,144.2c-0.9,0-1.6-0.3-2.1-0.9s-0.8-1.4-0.8-2.3v-0.3c0-0.9,0.3-1.7,0.8-2.3s1.2-0.9,1.9-0.9
			c0.9,0,1.5,0.3,1.9,0.8s0.7,1.2,0.7,2.1v0.7h-4.1l0,0c0,0.6,0.2,1.1,0.5,1.5s0.7,0.6,1.2,0.6c0.4,0,0.7-0.1,1-0.2s0.5-0.3,0.8-0.5
			l0.5,0.8c-0.2,0.2-0.5,0.4-0.9,0.6S307.5,144.2,307,144.2z M306.8,138.5c-0.4,0-0.7,0.2-1,0.5s-0.4,0.7-0.5,1.2l0,0h2.9v-0.2
			c0-0.5-0.1-0.8-0.4-1.1S307.3,138.5,306.8,138.5z"/>
		<path class="st1" d="M310.5,138.5v-0.7h2l0.1,0.9c0.2-0.3,0.4-0.6,0.7-0.8s0.6-0.3,0.9-0.3c0.1,0,0.2,0,0.3,0s0.2,0,0.2,0
			l-0.2,1.1l-0.7,0c-0.3,0-0.6,0.1-0.8,0.2s-0.4,0.3-0.5,0.6v3.6l1,0.2v0.7h-3.1v-0.7l1-0.2v-4.5L310.5,138.5z"/>
		<path class="st1" d="M321.3,141.2c0,0.9-0.2,1.7-0.7,2.2s-1,0.8-1.8,0.8c-0.4,0-0.8-0.1-1.1-0.2s-0.6-0.4-0.8-0.7l-0.1,0.8h-1
			v-8.2l-1-0.2v-0.7h2.1v3.6c0.2-0.3,0.4-0.5,0.7-0.6s0.6-0.2,1-0.2c0.8,0,1.4,0.3,1.8,0.9s0.7,1.4,0.7,2.5V141.2z M320.1,141
			c0-0.7-0.1-1.3-0.4-1.8s-0.7-0.7-1.2-0.7c-0.4,0-0.7,0.1-0.9,0.3s-0.4,0.4-0.6,0.7v2.8c0.1,0.3,0.3,0.5,0.6,0.7s0.5,0.3,0.9,0.3
			c0.5,0,0.9-0.2,1.2-0.6s0.4-0.9,0.4-1.5V141z"/>
		<path class="st1" d="M322.5,140.9c0-0.9,0.3-1.7,0.8-2.3s1.2-0.9,2.1-0.9c0.9,0,1.6,0.3,2.1,0.9s0.8,1.4,0.8,2.3v0.1
			c0,0.9-0.3,1.7-0.8,2.3s-1.2,0.9-2.1,0.9c-0.9,0-1.6-0.3-2.1-0.9s-0.8-1.4-0.8-2.3V140.9z M323.6,141c0,0.7,0.1,1.2,0.4,1.7
			s0.7,0.7,1.3,0.7c0.5,0,1-0.2,1.2-0.7s0.4-1,0.4-1.7v-0.1c0-0.7-0.1-1.2-0.4-1.7s-0.7-0.7-1.3-0.7s-1,0.2-1.3,0.7s-0.4,1-0.4,1.7
			V141z"/>
		<path class="st1" d="M334,139.7h-0.9L333,139c-0.1-0.1-0.3-0.2-0.5-0.3s-0.5-0.1-0.7-0.1c-0.4,0-0.7,0.1-0.9,0.3s-0.3,0.4-0.3,0.7
			c0,0.3,0.1,0.4,0.3,0.6s0.5,0.3,1.1,0.4c0.8,0.2,1.4,0.4,1.8,0.7s0.6,0.7,0.6,1.2c0,0.6-0.2,1-0.7,1.4s-1,0.5-1.8,0.5
			c-0.5,0-0.9-0.1-1.3-0.2s-0.7-0.3-1-0.5l0-1.4h0.9l0.2,0.8c0.1,0.1,0.3,0.2,0.5,0.3s0.5,0.1,0.7,0.1c0.4,0,0.7-0.1,1-0.2
			s0.3-0.4,0.3-0.7c0-0.3-0.1-0.5-0.3-0.6s-0.6-0.3-1.1-0.4c-0.8-0.2-1.3-0.4-1.7-0.7s-0.6-0.7-0.6-1.2c0-0.5,0.2-1,0.7-1.3
			s1-0.5,1.7-0.5c0.5,0,0.9,0.1,1.3,0.2s0.7,0.3,1,0.5L334,139.7z"/>
		<path class="st1" d="M338.2,144.2c-0.9,0-1.6-0.3-2.1-0.9s-0.8-1.4-0.8-2.3v-0.3c0-0.9,0.3-1.7,0.8-2.3s1.2-0.9,1.9-0.9
			c0.9,0,1.5,0.3,1.9,0.8s0.7,1.2,0.7,2.1v0.7h-4.1l0,0c0,0.6,0.2,1.1,0.5,1.5s0.7,0.6,1.2,0.6c0.4,0,0.7-0.1,1-0.2s0.5-0.3,0.8-0.5
			l0.5,0.8c-0.2,0.2-0.5,0.4-0.9,0.6S338.7,144.2,338.2,144.2z M338,138.5c-0.4,0-0.7,0.2-1,0.5s-0.4,0.7-0.5,1.2l0,0h2.9v-0.2
			c0-0.5-0.1-0.8-0.4-1.1S338.5,138.5,338,138.5z"/>
	</g>
	<g id="Scone_logo_black">
		<g>
			<defs>
				<rect id="SVGID_1_" x="71.8" y="31" width="62" height="12.1"/>
			</defs>
			<clipPath id="SVGID_2_">
				<use xlink:href="#SVGID_1_"  style="overflow:visible;"/>
			</clipPath>
			<g class="st5">
				<g>
					<defs>
						<rect id="SVGID_3_" x="71.8" y="31" width="62" height="12.1"/>
					</defs>
					<clipPath id="SVGID_4_">
						<use xlink:href="#SVGID_3_"  style="overflow:visible;"/>
					</clipPath>
					<g class="st6">
						<path class="st7" d="M80,34.1h-1.3c-0.3,0-0.5,0.2-0.5,0.5v1.3c0,0.3,0.2,0.5,0.5,0.5H80c0.3,0,0.5-0.2,0.5-0.5v-1.3
							C80.5,34.3,80.3,34.1,80,34.1 M75.5,36.4h1.3c0.3,0,0.5-0.2,0.5-0.5v-1.3c0-0.3-0.2-0.5-0.5-0.5h-1.3c-0.3,0-0.5,0.2-0.5,0.5
							c0,0,0,0,0,0v1.3C75,36.2,75.2,36.4,75.5,36.4C75.5,36.4,75.5,36.4,75.5,36.4 M74.1,35.9v-1.3c0-0.3-0.2-0.5-0.5-0.5h-1.3
							c-0.3,0-0.5,0.2-0.5,0.5v1.3c0,0.3,0.2,0.5,0.5,0.5h1.3C73.9,36.4,74.1,36.2,74.1,35.9 M80.1,37.3c-0.2,0-0.4,0.2-0.4,0.4v1.5
							c0,0.2,0.2,0.4,0.4,0.4c0.2,0,0.4-0.2,0.4-0.4v-1.5C80.5,37.5,80.3,37.3,80.1,37.3C80.1,37.3,80.1,37.3,80.1,37.3 M76.5,37.8
							v1.3c0,0.3,0.2,0.5,0.5,0.5h1.3c0.3,0,0.5-0.2,0.5-0.5v-1.3c0-0.3-0.2-0.5-0.5-0.5H77C76.7,37.3,76.5,37.5,76.5,37.8
							 M75.6,39.1v-1.3c0-0.3-0.2-0.5-0.5-0.5h-1.3c-0.3,0-0.5,0.2-0.5,0.5v1.3c0,0.3,0.2,0.5,0.5,0.5h1.3
							C75.4,39.6,75.6,39.4,75.6,39.1 M80,40.6h-1.3c-0.3,0-0.5,0.2-0.5,0.5v1.3c0,0.3,0.2,0.5,0.5,0.5H80c0.3,0,0.5-0.2,0.5-0.5
							v-1.3C80.5,40.8,80.3,40.6,80,40.6 M76.6,40.6h-1.3c-0.3,0-0.5,0.2-0.5,0.5c0,0,0,0,0,0v1.3c0,0.3,0.2,0.5,0.5,0.5h1.3
							c0.3,0,0.5-0.2,0.5-0.5v-1.3C77.1,40.8,76.9,40.6,76.6,40.6"/>
						<path class="st7" d="M81.6,33.5c0.6,0.4,1.3,0.7,2,0.6c0,0,0,0,0,0.1v3.6c0,1.4-1.7,2.2-2.1,2.4l0,0L81.6,33.5L81.6,33.5"/>
						<path class="st7" d="M77.7,33.4c2.7-0.1,3.2-1,3.2-1c0,0,0.1-0.1,0.1-0.1c0,0,0.1,0,0.1,0s0.4,1,3.2,1c0.1,0,0.1,0,0.1,0.1
							v4.7c0,1.5-2.8,3.2-2.9,3.2s-0.1,0.1-0.1,0.1v1.2c0,0,0.2,0.1,0.3,0c1-0.6,4-2.2,4-4.2v-6c0-0.1-0.2-0.2-0.3-0.2
							c-3.5,0-4.1-1.3-4.1-1.3s-0.2,0-0.2,0s-0.1,0-0.2,0s-0.6,1.3-4,1.3c-0.1,0-0.2,0-0.2,0.2v0.8c0,0,0,0.2,0.1,0.2
							S77.7,33.3,77.7,33.4"/>
						<path d="M88.2,41l1.4-0.5c0.3,0.7,1.1,1.1,1.8,1c0.4,0,0.7-0.1,1.1-0.3c0.3-0.1,0.4-0.4,0.4-0.8c0-0.8-1-1.2-1.8-1.5h-0.1
							c-0.6-0.2-1.1-0.5-1.6-0.9c-0.5-0.4-0.8-1-0.8-1.7c0-0.7,0.3-1.3,0.8-1.7c0.6-0.5,1.3-0.7,2.1-0.7c1.1-0.1,2.2,0.5,2.8,1.5
							l-1.4,0.5c-0.1-0.2-0.3-0.4-0.5-0.5c-0.3-0.1-0.5-0.2-0.8-0.2c-0.8,0-1.3,0.4-1.3,1c0,0.4,0.2,0.7,0.5,0.9
							c0.4,0.3,0.8,0.5,1.3,0.7l0.2,0.1c1.1,0.5,2.4,1,2.4,2.5c0,0.7-0.4,1.4-1,1.8c-0.7,0.4-1.5,0.7-2.3,0.7
							C90,43,88.8,42.2,88.2,41"/>
						<path d="M100.6,42.9c-0.6,0-1.2-0.1-1.7-0.3c-0.5-0.2-1-0.5-1.4-0.9c-0.4-0.4-0.8-0.9-1-1.4c-0.5-1.1-0.5-2.3,0-3.4
							c0.2-0.5,0.6-1,1-1.4c0.4-0.4,0.9-0.7,1.4-1c0.5-0.2,1.1-0.3,1.7-0.3c0.7,0,1.4,0.2,2,0.5c0.6,0.3,1.1,0.7,1.5,1.3l-1.2,0.9
							c-0.3-0.4-0.6-0.6-1-0.8c-0.4-0.2-0.9-0.3-1.3-0.3c-1.7,0-3,1.4-2.9,3.1c0,0.7,0.3,1.4,0.8,2c0.9,1,2.4,1.2,3.6,0.5
							c0.4-0.3,0.8-0.6,1.1-1.1l1.3,0.7c-0.4,0.7-0.9,1.2-1.6,1.6C102.2,42.7,101.4,42.9,100.6,42.9"/>
						<path d="M110.2,42.9c-0.6,0-1.2-0.1-1.7-0.3c-0.5-0.2-1-0.5-1.4-1c-0.4-0.4-0.8-0.9-1-1.4c-0.2-0.5-0.3-1.1-0.3-1.7
							c0-0.6,0.1-1.2,0.3-1.7c0.2-0.5,0.6-1,1-1.4c0.4-0.4,0.9-0.8,1.4-1c1.1-0.5,2.3-0.5,3.4,0c0.5,0.2,1,0.6,1.4,1
							c1.3,1.3,1.7,3.2,1,4.8c-0.2,0.5-0.6,1-1,1.4c-0.4,0.4-0.9,0.7-1.4,1C111.4,42.8,110.8,42.9,110.2,42.9 M110.2,35.5
							c-0.8,0-1.5,0.3-2.1,0.9c-0.6,0.6-0.9,1.3-0.9,2.1c0,0.8,0.3,1.5,0.9,2.1c0.5,0.6,1.3,0.9,2.1,0.9c0.8,0,1.5-0.3,2.1-0.9
							c0.6-0.6,0.9-1.3,0.9-2.1c0-0.8-0.3-1.5-0.9-2.1C111.8,35.8,111,35.5,110.2,35.5"/>
						<polygon points="124.7,34.2 124.7,43.1 118.5,37.4 118.5,42.8 116.9,42.8 116.9,33.8 123.1,39.5 123.1,34.2 						"/>
						<polygon points="128.9,35.5 128.9,37.8 133.2,37.8 133.2,39.1 128.9,39.1 128.9,41.4 133.8,41.4 133.8,42.8 127.3,42.8 
							127.3,34.2 133.8,34.2 133.8,35.5 128.9,35.5 						"/>
					</g>
				</g>
			</g>
		</g>
	</g>
	<path class="st8" d="M422.2,0.9H6.3c-2.8,0-5,2.2-5,5l0,0v202.4c0,2.8,2.2,5,5,5h415.9c2.8,0,5-2.2,5-5V5.9
		C427.2,3.1,424.9,0.9,422.2,0.9L422.2,0.9z M385.8,193.4c0,2.8-2.2,5-5,5H47.7c-2.8,0-5-2.2-5-5V20.6c0-2.8,2.2-5,5-5h333.2
		c2.8,0,5,2.2,5,5V193.4z"/>
</g>
<g id="Ebene_4">
	<line class="st9" x1="280" y1="53.8" x2="307.8" y2="81.5"/>
	<line class="st9" x1="208.4" y1="53.8" x2="208.2" y2="81.5"/>
	<line class="st9" x1="136.5" y1="53.8" x2="108.8" y2="81.5"/>
</g>
</svg>
