<svg xmlns="http://www.w3.org/2000/svg" xmlns:xlink="http://www.w3.org/1999/xlink" viewBox="0 0 426.89 212.68"><defs><style>.cls-1,.cls-17{fill:none;}.cls-2{font-size:14px;font-family:RobotoSlab-Bold, Roboto Slab;font-weight:700;}.cls-2,.cls-5{fill:#906;}.cls-3{letter-spacing:-0.01em;}.cls-10,.cls-12,.cls-4,.cls-5{font-family:RobotoSlab-Regular, Roboto Slab;}.cls-4{font-weight:400;}.cls-10,.cls-12,.cls-5{font-size:12px;}.cls-6{letter-spacing:0em;}.cls-7{letter-spacing:-0.01em;}.cls-8{letter-spacing:0.01em;}.cls-9{letter-spacing:-0.01em;}.cls-10{fill:#0089ee;}.cls-11{letter-spacing:0.02em;}.cls-12{fill:#306;}.cls-13{letter-spacing:-0.01em;}.cls-14{clip-path:url(#clip-path);}.cls-15{fill:#ffd138;}.cls-16{fill:#e6e6e6;}.cls-17{stroke:#fc0;stroke-miterlimit:10;stroke-width:2px;}</style><clipPath id="clip-path"><rect class="cls-1" x="71.79" y="31" width="61.95" height="12.13"/></clipPath></defs><title>CLI</title><g id="Ebene_2" data-name="Ebene 2"><text class="cls-2" transform="translate(142.08 43.24)">OBJE<tspan class="cls-3" x="36.24" y="0">C</tspan><tspan x="45.12" y="0">T COMMAND </tspan><tspan class="cls-4" x="137.25" y="0">[OPTIONS*]</tspan></text><text class="cls-5" transform="translate(79.07 100.89)"><tspan class="cls-6">h</tspan><tspan x="7.69" y="0">ost </tspan><tspan class="cls-6" x="0" y="14.4">m</tspan><tspan x="11.28" y="14.4">oni</tspan><tspan class="cls-7" x="29.68" y="14.4">t</tspan><tspan x="33.96" y="14.4">or</tspan><tspan x="0" y="28.8">scope</tspan><tspan x="0" y="43.2">sent</tspan><tspan class="cls-8" x="24.69" y="43.2">r</tspan><tspan x="29.75" y="43.2">y</tspan><tspan class="cls-9" x="0" y="57.6">v</tspan><tspan class="cls-7" x="6.61" y="57.6">o</tspan><tspan x="13.22" y="57.6">lu</tspan><tspan class="cls-6" x="24.29" y="57.6">m</tspan><tspan x="35.57" y="57.6">e</tspan><tspan x="0" y="72">cas</tspan><tspan x="0" y="86.4">...</tspan></text><text class="cls-10" transform="translate(191.07 100.89)">install<tspan x="0" y="14.4">sta</tspan><tspan class="cls-11" x="17.12" y="14.4">r</tspan><tspan x="22.27" y="14.4">t</tspan><tspan x="0" y="28.8">c</tspan><tspan class="cls-6" x="6.47" y="28.8">h</tspan><tspan x="14.16" y="28.8">eck</tspan><tspan x="0" y="43.2">tun</tspan><tspan class="cls-6" x="19.41" y="43.2">n</tspan><tspan x="27.07" y="43.2">el</tspan><tspan x="0" y="57.6">s</tspan><tspan class="cls-7" x="6.12" y="57.6">t</tspan><tspan x="10.39" y="57.6">op</tspan><tspan x="0" y="72">uninstall</tspan></text><text class="cls-12" transform="translate(287.5 100.89)">—<tspan class="cls-6" x="9.45" y="0">h</tspan><tspan x="17.14" y="0">elp</tspan><tspan x="0" y="14.4">—manager</tspan><tspan x="0" y="28.8">—s</tspan><tspan class="cls-7" x="15.57" y="28.8">t</tspan><tspan x="19.85" y="28.8">op</tspan><tspan x="0" y="43.2">—</tspan><tspan class="cls-13" x="9.45" y="43.2">v</tspan><tspan x="16.07" y="43.2">erbose</tspan></text><g id="Scone_logo_black" data-name="Scone logo black"><g class="cls-14"><g class="cls-14"><path class="cls-15" d="M80,34.07H78.7a.5.5,0,0,0-.5.5v1.32a.5.5,0,0,0,.5.5H80a.5.5,0,0,0,.5-.5V34.57a.5.5,0,0,0-.5-.5m-4.52,2.32h1.3a.5.5,0,0,0,.5-.5V34.57a.5.5,0,0,0-.5-.5h-1.3a.49.49,0,0,0-.49.5v1.32a.49.49,0,0,0,.49.5m-1.39-.5V34.57a.5.5,0,0,0-.5-.5h-1.3a.5.5,0,0,0-.5.5v1.32a.5.5,0,0,0,.5.5h1.3a.5.5,0,0,0,.5-.5m6,1.42a.38.38,0,0,0-.37.38v1.55a.37.37,0,0,0,.74,0V37.69a.35.35,0,0,0-.37-.38m-3.57.5v1.33a.5.5,0,0,0,.5.49h1.3a.5.5,0,0,0,.5-.49V37.81a.51.51,0,0,0-.5-.5H77a.51.51,0,0,0-.5.5m-.92,1.33V37.81a.51.51,0,0,0-.5-.5h-1.3a.51.51,0,0,0-.5.5v1.33a.5.5,0,0,0,.5.49h1.3a.5.5,0,0,0,.5-.49M80,40.56H78.7a.5.5,0,0,0-.5.5v1.32a.51.51,0,0,0,.5.5H80a.5.5,0,0,0,.5-.5V41.06a.5.5,0,0,0-.5-.5m-3.37,0h-1.3a.49.49,0,0,0-.49.5v1.32a.5.5,0,0,0,.49.5h1.3a.5.5,0,0,0,.5-.5V41.06a.5.5,0,0,0-.5-.5"/><path class="cls-15" d="M81.57,33.55a3,3,0,0,0,2,.62s0,0,0,.1v3.57c0,1.37-1.67,2.22-2.07,2.44,0,0,0,0,0,0l0-6.69s0,0,0,0"/><path class="cls-15" d="M77.66,33.37c2.74-.1,3.19-1,3.19-1a.12.12,0,0,1,.12-.07s.1,0,.13,0,.42,1,3.17,1c.07,0,.1,0,.1.13v4.69c0,1.49-2.85,3.19-2.9,3.22s-.1.07-.1.1v1.17s.18.07.25,0c1-.58,4-2.2,4-4.19v-6c0-.1-.17-.18-.27-.18-3.49,0-4.14-1.27-4.14-1.27S81.05,31,81,31s-.12,0-.15,0-.57,1.32-4,1.32c-.12,0-.15,0-.15.15v.75s0,.17.1.17.93-.05.93-.05"/><path d="M88.21,41l1.4-.52a1.91,1.91,0,0,0,1.82,1.05,2,2,0,0,0,1.07-.25.86.86,0,0,0,.45-.75c0-.75-1-1.2-1.77-1.5l-.05,0a6.47,6.47,0,0,1-1.62-.9,2,2,0,0,1-.8-1.65,2.21,2.21,0,0,1,.82-1.72,3.2,3.2,0,0,1,2.07-.7,3,3,0,0,1,2.75,1.5l-1.45.55a1.11,1.11,0,0,0-.5-.53,2,2,0,0,0-.8-.17c-.8,0-1.34.42-1.34,1a1.11,1.11,0,0,0,.54.89,7.32,7.32,0,0,0,1.25.65l.18.08c1.07.45,2.39,1,2.39,2.47a2.06,2.06,0,0,1-1,1.77,3.84,3.84,0,0,1-2.27.65A3.33,3.33,0,0,1,88.21,41"/><path d="M100.59,42.9a4.46,4.46,0,0,1-1.73-.35,4.07,4.07,0,0,1-1.39-.94,4,4,0,0,1-1-1.4,4.4,4.4,0,0,1,0-3.44,3.91,3.91,0,0,1,1-1.4,4,4,0,0,1,1.39-.95,4.65,4.65,0,0,1,1.73-.35,4.32,4.32,0,0,1,2,.47,4.38,4.38,0,0,1,1.52,1.28l-1.17.87a3,3,0,0,0-1-.85,3.19,3.19,0,0,0-1.35-.32,3,3,0,0,0-2.1,5.06,2.9,2.9,0,0,0,3.6.45,3,3,0,0,0,1.07-1.1l1.27.73a4.33,4.33,0,0,1-1.59,1.62,4.09,4.09,0,0,1-2.22.62"/><path d="M110.24,42.93a4.6,4.6,0,0,1-1.72-.35,4.29,4.29,0,0,1-1.4-.95,4.51,4.51,0,0,1-1-1.4,4.6,4.6,0,0,1-.35-1.72,4.08,4.08,0,0,1,.35-1.72,4.63,4.63,0,0,1,1-1.4,4.89,4.89,0,0,1,1.4-1,4.52,4.52,0,0,1,3.44,0,4.19,4.19,0,0,1,1.4,1,4.4,4.4,0,0,1,1,4.84,4.51,4.51,0,0,1-1,1.4,4.76,4.76,0,0,1-1.4.95,4.6,4.6,0,0,1-1.72.35m0-7.41a2.85,2.85,0,0,0-2.09.87,3,3,0,0,0-.88,2.1,2.83,2.83,0,0,0,.88,2.09,2.86,2.86,0,0,0,2.09.88,2.9,2.9,0,0,0,2.1-.88,2.94,2.94,0,0,0,.87-2.09,3,3,0,0,0-.87-2.1,3,3,0,0,0-2.1-.87"/><polygon points="124.69 34.15 124.69 43.13 118.5 37.44 118.5 42.78 116.93 42.78 116.93 33.82 123.12 39.53 123.12 34.15 124.69 34.15"/><polygon points="128.9 35.47 128.9 37.76 133.22 37.76 133.22 39.11 128.9 39.11 128.9 41.43 133.75 41.43 133.75 42.78 127.33 42.78 127.33 34.15 133.75 34.15 133.75 35.49 128.9 35.49 128.9 35.47"/></g></g></g><path class="cls-16" d="M422.18.86H6.31a5,5,0,0,0-5,5V208.21a5,5,0,0,0,5,5H422.18a5,5,0,0,0,5-5V5.86A5,5,0,0,0,422.18.86ZM385.82,193.44a5,5,0,0,1-5,5H47.67a5,5,0,0,1-5-5V20.63a5,5,0,0,1,5-5H380.82a5,5,0,0,1,5,5Z"/></g><g id="Ebene_4" data-name="Ebene 4"><line class="cls-17" x1="280.05" y1="53.78" x2="307.79" y2="81.53"/><line class="cls-17" x1="208.36" y1="53.78" x2="208.18" y2="81.53"/><line class="cls-17" x1="136.5" y1="53.78" x2="108.75" y2="81.53"/></g></svg>