<?xml version="1.0" encoding="utf-8"?>
<!-- Generator: Adobe Illustrator 24.0.0, SVG Export Plug-In . SVG Version: 6.00 Build 0)  -->
<svg version="1.1" id="Ebene_1" xmlns="http://www.w3.org/2000/svg" xmlns:xlink="http://www.w3.org/1999/xlink" x="0px" y="0px"
	 viewBox="0 0 692 283.6" style="enable-background:new 0 0 692 283.6;" xml:space="preserve">
<style type="text/css">
	.st0{enable-background:new    ;}
	.st1{fill:#330066;}
	.st2{fill:#FFFFFF;}
	.st3{fill:#3399FF;}
	.st4{fill:none;stroke:#330066;stroke-linecap:round;stroke-linejoin:round;}
	.st5{fill:url(#SVGID_1_);stroke:#FFCC00;stroke-width:2;stroke-miterlimit:10;}
	.st6{fill:#FFCC00;}
	.st7{fill:#FFFFFF;stroke:#FFCC00;stroke-width:2;stroke-linecap:round;stroke-linejoin:round;}
	.st8{fill:none;stroke:#FFCC00;stroke-width:2;stroke-linecap:round;stroke-linejoin:round;}
	.st9{fill:url(#SVGID_2_);stroke:#990066;stroke-width:2;stroke-miterlimit:10;}
	.st10{fill:#FFFFFF;stroke:#990066;stroke-width:2;stroke-linecap:round;stroke-linejoin:round;}
	.st11{fill:none;stroke:#990066;stroke-width:2;stroke-linecap:round;stroke-linejoin:round;}
	.st12{fill:#990066;}
	.st13{fill:url(#SVGID_3_);stroke:#FFCC00;stroke-width:2;stroke-miterlimit:10;}
	.st14{fill:#FFCC00;stroke:#FFCC00;stroke-miterlimit:10;}
	.st15{fill:none;stroke:#990066;stroke-width:2;stroke-miterlimit:10;}
	.st16{fill:none;stroke:#CC3300;stroke-width:2;stroke-miterlimit:10;stroke-dasharray:2,2;}
	.st17{fill:#CC3300;}
	.st18{fill:none;stroke:#330066;stroke-width:2;stroke-miterlimit:10;stroke-dasharray:2,2;}
	.st19{fill:#FFFFFF;stroke:#CC3300;stroke-width:2;stroke-miterlimit:10;}
	.st20{fill:none;stroke:#CC3300;stroke-width:2;stroke-miterlimit:10;}
	.st21{fill:none;stroke:#330066;stroke-linejoin:round;}
	.st22{fill:#33CC99;}
</style>
<g id="Ebene_2_1_">
	<g class="st0">
		<path class="st1" d="M76.1,131.5c0-0.2,0.1-0.3,0.2-0.5s0.3-0.2,0.5-0.2s0.4,0.1,0.5,0.2c0.1,0.1,0.2,0.3,0.2,0.5
			c0,0.2-0.1,0.3-0.2,0.5c-0.1,0.1-0.3,0.2-0.5,0.2s-0.4-0.1-0.5-0.2S76.1,131.7,76.1,131.5z M76.3,133.3h1v6h-1V133.3z"/>
		<path class="st1" d="M83.1,139.3v-3.4c0-0.6-0.1-1.1-0.3-1.4c-0.2-0.3-0.5-0.5-1-0.5c-0.4,0-0.8,0.1-1.1,0.3
			c-0.3,0.2-0.5,0.5-0.6,0.9v4.1h-1v-6H80l0.2,0.7h0c0.2-0.3,0.4-0.5,0.8-0.6c0.3-0.2,0.7-0.2,1.2-0.2c0.3,0,0.6,0,0.9,0.1
			c0.2,0.1,0.5,0.2,0.6,0.4s0.3,0.5,0.4,0.8c0.1,0.3,0.1,0.7,0.1,1.2v3.6H83.1z"/>
		<path class="st1" d="M85.9,133.3h0.7l0.2,0.7h0c0.2-0.3,0.4-0.5,0.7-0.6s0.6-0.2,1-0.2c0.8,0,1.4,0.2,1.8,0.7
			c0.4,0.5,0.6,1.2,0.6,2.3c0,0.5-0.1,1-0.2,1.4s-0.3,0.7-0.6,1c-0.2,0.3-0.5,0.5-0.9,0.6c-0.3,0.2-0.7,0.2-1.1,0.2
			c-0.3,0-0.5,0-0.7-0.1s-0.4-0.1-0.6-0.2v2.5h-1V133.3z M88.3,134c-0.4,0-0.7,0.1-1,0.3s-0.4,0.5-0.5,1v3c0.1,0.1,0.3,0.2,0.5,0.3
			c0.2,0.1,0.4,0.1,0.7,0.1c0.6,0,1-0.2,1.3-0.6c0.3-0.4,0.5-1,0.5-1.8c0-0.3,0-0.6-0.1-0.9c-0.1-0.3-0.1-0.5-0.3-0.7
			c-0.1-0.2-0.3-0.3-0.5-0.4C88.8,134.1,88.6,134,88.3,134z"/>
		<path class="st1" d="M93.2,133.3v3.4c0,0.3,0,0.6,0.1,0.8c0,0.2,0.1,0.4,0.2,0.6s0.2,0.3,0.4,0.4c0.2,0.1,0.3,0.1,0.6,0.1
			c0.2,0,0.4,0,0.6-0.1s0.3-0.2,0.5-0.3c0.1-0.1,0.2-0.3,0.3-0.4s0.2-0.3,0.2-0.5v-4h1v4.3c0,0.3,0,0.6,0,0.9c0,0.3,0.1,0.6,0.1,0.8
			h-0.7l-0.2-0.9h-0.1c-0.2,0.3-0.4,0.6-0.7,0.8s-0.7,0.3-1.2,0.3c-0.3,0-0.6,0-0.8-0.1c-0.2-0.1-0.4-0.2-0.6-0.4
			c-0.2-0.2-0.3-0.5-0.4-0.8c-0.1-0.3-0.1-0.7-0.1-1.2v-3.6H93.2z"/>
		<path class="st1" d="M98,133.3H99v-1.2l1-0.3v1.5h1.6v0.8h-1.6v3.3c0,0.4,0.1,0.7,0.2,0.9s0.3,0.3,0.5,0.3c0.2,0,0.4,0,0.5-0.1
			c0.1,0,0.3-0.1,0.5-0.2l0.2,0.7c-0.2,0.1-0.5,0.2-0.7,0.3c-0.3,0.1-0.5,0.1-0.8,0.1c-0.5,0-0.8-0.1-1-0.4
			c-0.2-0.3-0.3-0.7-0.3-1.4v-3.5H98V133.3z"/>
		<path class="st1" d="M110.7,133.3v6h-1v-5.2h-2.4v5.2h-1v-5.2h-0.9v-0.8h0.9V133c0-0.8,0.2-1.3,0.6-1.6c0.4-0.3,0.9-0.5,1.6-0.5
			c0.5,0,0.9,0,1.3,0.1c0.4,0.1,0.7,0.2,0.9,0.3l-0.3,0.8c-0.2-0.1-0.5-0.2-0.8-0.3c-0.3-0.1-0.6-0.1-0.9-0.1c-0.3,0-0.5,0-0.7,0.1
			s-0.3,0.2-0.4,0.3c-0.1,0.1-0.2,0.3-0.2,0.5c0,0.2,0,0.4,0,0.7H110.7z"/>
		<path class="st1" d="M113.6,137.8c0,0.3,0,0.5,0.1,0.6c0.1,0.1,0.2,0.2,0.4,0.2c0.1,0,0.2,0,0.3,0c0.1,0,0.3-0.1,0.4-0.1l0.1,0.8
			c-0.1,0.1-0.3,0.1-0.5,0.2s-0.4,0.1-0.6,0.1c-0.4,0-0.7-0.1-0.9-0.3s-0.3-0.5-0.3-1v-7.2h1V137.8z"/>
		<path class="st1" d="M120.4,138.8c-0.2,0.2-0.5,0.3-0.9,0.5c-0.4,0.1-0.8,0.2-1.2,0.2c-0.5,0-0.9-0.1-1.2-0.2
			c-0.3-0.1-0.6-0.4-0.8-0.6c-0.2-0.3-0.4-0.6-0.5-1c-0.1-0.4-0.2-0.8-0.2-1.3c0-1,0.2-1.8,0.7-2.3s1.1-0.8,2-0.8
			c0.3,0,0.5,0,0.8,0.1c0.3,0.1,0.5,0.2,0.7,0.3c0.2,0.2,0.4,0.4,0.5,0.7c0.1,0.3,0.2,0.7,0.2,1.2c0,0.3,0,0.6-0.1,0.9h-3.9
			c0,0.4,0,0.7,0.1,0.9c0.1,0.3,0.2,0.5,0.3,0.7c0.2,0.2,0.4,0.3,0.6,0.4c0.2,0.1,0.5,0.1,0.9,0.1c0.3,0,0.5,0,0.8-0.1
			s0.5-0.2,0.6-0.3L120.4,138.8z M118.4,134c-0.5,0-0.9,0.1-1.1,0.4c-0.3,0.2-0.5,0.7-0.5,1.3h3c0-0.6-0.1-1-0.3-1.3
			C119.1,134.1,118.8,134,118.4,134z"/>
		<path class="st1" d="M124.8,137.7c0-0.2-0.1-0.4-0.2-0.6c-0.1-0.1-0.3-0.3-0.5-0.3s-0.4-0.2-0.7-0.3s-0.5-0.2-0.7-0.3
			s-0.4-0.3-0.5-0.5s-0.2-0.5-0.2-0.8c0-0.6,0.2-1,0.5-1.3c0.3-0.3,0.8-0.4,1.4-0.4c0.4,0,0.8,0,1.1,0.1c0.3,0.1,0.5,0.2,0.8,0.3
			l-0.2,0.8c-0.2-0.1-0.4-0.2-0.7-0.2c-0.3-0.1-0.5-0.1-0.8-0.1c-0.4,0-0.6,0.1-0.8,0.2s-0.2,0.3-0.2,0.6c0,0.2,0.1,0.4,0.2,0.5
			s0.3,0.2,0.5,0.3s0.4,0.2,0.7,0.3s0.5,0.2,0.7,0.3s0.4,0.3,0.5,0.5s0.2,0.5,0.2,0.9c0,0.3,0,0.5-0.1,0.7c-0.1,0.2-0.2,0.4-0.4,0.6
			c-0.2,0.2-0.4,0.3-0.7,0.4c-0.3,0.1-0.6,0.1-0.9,0.1c-0.5,0-0.8,0-1.2-0.1s-0.6-0.2-0.8-0.3l0.3-0.8c0.2,0.1,0.4,0.2,0.7,0.3
			s0.6,0.1,0.9,0.1c0.3,0,0.6-0.1,0.9-0.2C124.7,138.3,124.8,138,124.8,137.7z"/>
	</g>
	<g class="st0">
		<path class="st1" d="M122.9,167.6c0-1,0.2-1.8,0.7-2.3c0.5-0.5,1.1-0.8,1.9-0.8c0.4,0,0.8,0.1,1.2,0.2c0.3,0.1,0.6,0.4,0.8,0.6
			c0.2,0.3,0.4,0.6,0.5,1s0.2,0.8,0.2,1.3c0,1-0.2,1.8-0.7,2.3c-0.5,0.5-1.1,0.8-2,0.8c-0.4,0-0.8-0.1-1.2-0.2
			c-0.3-0.1-0.6-0.4-0.8-0.6c-0.2-0.3-0.4-0.6-0.5-1C123,168.5,122.9,168.1,122.9,167.6z M123.9,167.6c0,0.3,0,0.6,0.1,0.9
			s0.2,0.5,0.3,0.7s0.3,0.4,0.5,0.5s0.5,0.2,0.8,0.2c1.1,0,1.6-0.8,1.6-2.3c0-0.3,0-0.6-0.1-0.9c-0.1-0.3-0.2-0.5-0.3-0.7
			s-0.3-0.4-0.5-0.5c-0.2-0.1-0.5-0.2-0.8-0.2C124.5,165.3,123.9,166.1,123.9,167.6z"/>
		<path class="st1" d="M130.6,164.6v3.4c0,0.3,0,0.6,0.1,0.8c0,0.2,0.1,0.4,0.2,0.6s0.2,0.3,0.4,0.4c0.2,0.1,0.3,0.1,0.6,0.1
			c0.2,0,0.4,0,0.6-0.1s0.3-0.2,0.5-0.3c0.1-0.1,0.2-0.3,0.3-0.4s0.2-0.3,0.2-0.5v-4h1v4.3c0,0.3,0,0.6,0,0.9c0,0.3,0.1,0.6,0.1,0.8
			h-0.7l-0.2-0.9h-0.1c-0.2,0.3-0.4,0.6-0.7,0.8s-0.7,0.3-1.2,0.3c-0.3,0-0.6,0-0.8-0.1c-0.2-0.1-0.4-0.2-0.6-0.4
			c-0.2-0.2-0.3-0.5-0.4-0.8c-0.1-0.3-0.1-0.7-0.1-1.2v-3.6H130.6z"/>
		<path class="st1" d="M135.4,164.6h0.9v-1.2l1-0.3v1.5h1.6v0.8h-1.6v3.3c0,0.4,0.1,0.7,0.2,0.9s0.3,0.3,0.5,0.3
			c0.2,0,0.4,0,0.5-0.1c0.1,0,0.3-0.1,0.5-0.2l0.2,0.7c-0.2,0.1-0.5,0.2-0.7,0.3c-0.3,0.1-0.5,0.1-0.8,0.1c-0.5,0-0.8-0.1-1-0.4
			c-0.2-0.3-0.3-0.7-0.3-1.4v-3.5h-0.9V164.6z"/>
		<path class="st1" d="M140.2,164.6h0.7l0.2,0.7h0c0.2-0.3,0.4-0.5,0.7-0.6s0.6-0.2,1-0.2c0.8,0,1.4,0.2,1.8,0.7
			c0.4,0.5,0.6,1.2,0.6,2.3c0,0.5-0.1,1-0.2,1.4s-0.3,0.7-0.6,1c-0.2,0.3-0.5,0.5-0.9,0.6c-0.3,0.2-0.7,0.2-1.1,0.2
			c-0.3,0-0.5,0-0.7-0.1s-0.4-0.1-0.6-0.2v2.5h-1V164.6z M142.7,165.3c-0.4,0-0.7,0.1-1,0.3s-0.4,0.5-0.5,1v3
			c0.1,0.1,0.3,0.2,0.5,0.3c0.2,0.1,0.4,0.1,0.7,0.1c0.6,0,1-0.2,1.3-0.6c0.3-0.4,0.5-1,0.5-1.8c0-0.3,0-0.6-0.1-0.9
			c-0.1-0.3-0.1-0.5-0.3-0.7c-0.1-0.2-0.3-0.3-0.5-0.4C143.2,165.4,143,165.3,142.7,165.3z"/>
		<path class="st1" d="M147.6,164.6v3.4c0,0.3,0,0.6,0.1,0.8c0,0.2,0.1,0.4,0.2,0.6s0.2,0.3,0.4,0.4c0.2,0.1,0.3,0.1,0.6,0.1
			c0.2,0,0.4,0,0.6-0.1s0.3-0.2,0.5-0.3c0.1-0.1,0.2-0.3,0.3-0.4s0.2-0.3,0.2-0.5v-4h1v4.3c0,0.3,0,0.6,0,0.9c0,0.3,0.1,0.6,0.1,0.8
			h-0.7l-0.2-0.9h-0.1c-0.2,0.3-0.4,0.6-0.7,0.8s-0.7,0.3-1.2,0.3c-0.3,0-0.6,0-0.8-0.1c-0.2-0.1-0.4-0.2-0.6-0.4
			c-0.2-0.2-0.3-0.5-0.4-0.8c-0.1-0.3-0.1-0.7-0.1-1.2v-3.6H147.6z"/>
		<path class="st1" d="M152.4,164.6h0.9v-1.2l1-0.3v1.5h1.6v0.8h-1.6v3.3c0,0.4,0.1,0.7,0.2,0.9s0.3,0.3,0.5,0.3
			c0.2,0,0.4,0,0.5-0.1c0.1,0,0.3-0.1,0.5-0.2l0.2,0.7c-0.2,0.1-0.5,0.2-0.7,0.3c-0.3,0.1-0.5,0.1-0.8,0.1c-0.5,0-0.8-0.1-1-0.4
			c-0.2-0.3-0.3-0.7-0.3-1.4v-3.5h-0.9V164.6z"/>
		<path class="st1" d="M165.1,164.6v6h-1v-5.2h-2.4v5.2h-1v-5.2h-0.9v-0.8h0.9v-0.3c0-0.8,0.2-1.3,0.6-1.6c0.4-0.3,0.9-0.5,1.6-0.5
			c0.5,0,0.9,0,1.3,0.1c0.4,0.1,0.7,0.2,0.9,0.3l-0.3,0.8c-0.2-0.1-0.5-0.2-0.8-0.3c-0.3-0.1-0.6-0.1-0.9-0.1c-0.3,0-0.5,0-0.7,0.1
			s-0.3,0.2-0.4,0.3c-0.1,0.1-0.2,0.3-0.2,0.5c0,0.2,0,0.4,0,0.7H165.1z"/>
		<path class="st1" d="M168,169.2c0,0.3,0,0.5,0.1,0.6c0.1,0.1,0.2,0.2,0.4,0.2c0.1,0,0.2,0,0.3,0c0.1,0,0.3-0.1,0.4-0.1l0.1,0.8
			c-0.1,0.1-0.3,0.1-0.5,0.2s-0.4,0.1-0.6,0.1c-0.4,0-0.7-0.1-0.9-0.3s-0.3-0.5-0.3-1v-7.2h1V169.2z"/>
		<path class="st1" d="M174.8,170.2c-0.2,0.2-0.5,0.3-0.9,0.5c-0.4,0.1-0.8,0.2-1.2,0.2c-0.5,0-0.9-0.1-1.2-0.2
			c-0.3-0.1-0.6-0.4-0.8-0.6c-0.2-0.3-0.4-0.6-0.5-1c-0.1-0.4-0.2-0.8-0.2-1.3c0-1,0.2-1.8,0.7-2.3s1.1-0.8,2-0.8
			c0.3,0,0.5,0,0.8,0.1c0.3,0.1,0.5,0.2,0.7,0.3c0.2,0.2,0.4,0.4,0.5,0.7c0.1,0.3,0.2,0.7,0.2,1.2c0,0.3,0,0.6-0.1,0.9h-3.9
			c0,0.4,0,0.7,0.1,0.9c0.1,0.3,0.2,0.5,0.3,0.7c0.2,0.2,0.4,0.3,0.6,0.4c0.2,0.1,0.5,0.1,0.9,0.1c0.3,0,0.5,0,0.8-0.1
			s0.5-0.2,0.6-0.3L174.8,170.2z M172.8,165.3c-0.5,0-0.9,0.1-1.1,0.4c-0.3,0.2-0.5,0.7-0.5,1.3h3c0-0.6-0.1-1-0.3-1.3
			C173.5,165.5,173.2,165.3,172.8,165.3z"/>
		<path class="st1" d="M179.2,169c0-0.2-0.1-0.4-0.2-0.6c-0.1-0.1-0.3-0.3-0.5-0.3s-0.4-0.2-0.7-0.3s-0.5-0.2-0.7-0.3
			s-0.4-0.3-0.5-0.5s-0.2-0.5-0.2-0.8c0-0.6,0.2-1,0.5-1.3c0.3-0.3,0.8-0.4,1.4-0.4c0.4,0,0.8,0,1.1,0.1c0.3,0.1,0.5,0.2,0.8,0.3
			l-0.2,0.8c-0.2-0.1-0.4-0.2-0.7-0.2c-0.3-0.1-0.5-0.1-0.8-0.1c-0.4,0-0.6,0.1-0.8,0.2s-0.2,0.3-0.2,0.6c0,0.2,0.1,0.4,0.2,0.5
			s0.3,0.2,0.5,0.3s0.4,0.2,0.7,0.3s0.5,0.2,0.7,0.3s0.4,0.3,0.5,0.5s0.2,0.5,0.2,0.9c0,0.3,0,0.5-0.1,0.7c-0.1,0.2-0.2,0.4-0.4,0.6
			c-0.2,0.2-0.4,0.3-0.7,0.4c-0.3,0.1-0.6,0.1-0.9,0.1c-0.5,0-0.8,0-1.2-0.1s-0.6-0.2-0.8-0.3l0.3-0.8c0.2,0.1,0.4,0.2,0.7,0.3
			s0.6,0.1,0.9,0.1c0.3,0,0.6-0.1,0.9-0.2C179.1,169.6,179.2,169.4,179.2,169z"/>
	</g>
	<g class="st0">
		<path class="st1" d="M377.8,154.3h0.8v-1.1l1.6-0.4v1.6h1.5v1.3h-1.5v2.3c0,0.4,0,0.7,0.1,0.9c0.1,0.2,0.2,0.3,0.5,0.3
			c0.2,0,0.3,0,0.4,0s0.2-0.1,0.4-0.1l0.3,1.2c-0.2,0.1-0.5,0.2-0.8,0.3c-0.3,0.1-0.6,0.1-0.9,0.1c-0.6,0-1-0.1-1.2-0.4
			c-0.3-0.3-0.4-0.8-0.4-1.4v-3h-0.8V154.3z"/>
		<path class="st1" d="M382.5,154.6c0.3-0.1,0.7-0.3,1.1-0.3c0.4-0.1,0.9-0.1,1.4-0.1c0.4,0,0.8,0,1,0.2c0.3,0.1,0.5,0.2,0.7,0.4
			s0.3,0.4,0.3,0.7s0.1,0.5,0.1,0.9c0,0.4,0,0.7,0,1.1c0,0.4,0,0.7,0,1c0,0.3,0,0.7,0,1c0,0.3,0.1,0.6,0.2,0.9h-1.3l-0.3-0.8h-0.1
			c-0.2,0.2-0.4,0.5-0.7,0.6c-0.3,0.2-0.7,0.3-1.1,0.3c-0.3,0-0.5,0-0.8-0.1c-0.2-0.1-0.4-0.2-0.6-0.4c-0.2-0.2-0.3-0.3-0.4-0.6
			c-0.1-0.2-0.1-0.4-0.1-0.7c0-0.4,0.1-0.7,0.2-0.9s0.4-0.5,0.7-0.6c0.3-0.2,0.7-0.3,1.1-0.3c0.4-0.1,0.9-0.1,1.4-0.1
			c0.1-0.4,0-0.8-0.1-1s-0.4-0.3-0.8-0.3c-0.3,0-0.6,0-1,0.1c-0.3,0.1-0.6,0.1-0.9,0.3L382.5,154.6z M384.5,159.1
			c0.3,0,0.6-0.1,0.7-0.2c0.2-0.1,0.3-0.3,0.4-0.4v-0.8c-0.2,0-0.5,0-0.7,0c-0.2,0-0.4,0.1-0.6,0.1c-0.2,0.1-0.3,0.1-0.4,0.2
			c-0.1,0.1-0.2,0.2-0.2,0.4c0,0.2,0.1,0.4,0.2,0.5S384.3,159.1,384.5,159.1z"/>
		<path class="st1" d="M393.6,160.3c0,0.9-0.2,1.5-0.7,1.9c-0.5,0.4-1.1,0.6-2,0.6c-0.6,0-1,0-1.4-0.1s-0.6-0.2-0.8-0.3l0.3-1.2
			c0.2,0.1,0.4,0.1,0.6,0.2c0.2,0.1,0.5,0.1,0.9,0.1c0.5,0,0.9-0.1,1.1-0.4c0.2-0.2,0.3-0.6,0.3-1v-0.4h0c-0.3,0.4-0.8,0.6-1.5,0.6
			c-0.8,0-1.4-0.2-1.7-0.7c-0.4-0.5-0.6-1.2-0.6-2.3c0-1.1,0.3-1.9,0.8-2.4c0.5-0.6,1.3-0.8,2.2-0.8c0.5,0,1,0,1.4,0.1
			c0.4,0.1,0.7,0.2,1,0.3V160.3z M391,159.1c0.3,0,0.5-0.1,0.7-0.2c0.2-0.1,0.3-0.3,0.4-0.6v-2.7c-0.2-0.1-0.6-0.2-0.9-0.2
			c-0.4,0-0.7,0.2-0.9,0.5c-0.2,0.3-0.3,0.8-0.3,1.4c0,0.6,0.1,1,0.3,1.3C390.3,159,390.6,159.1,391,159.1z"/>
		<path class="st1" d="M403,153.9c0,0.4-0.1,0.8-0.2,1.2c-0.1,0.4-0.3,0.8-0.6,1.2c-0.2,0.4-0.5,0.8-0.8,1.2c-0.3,0.4-0.5,0.7-0.8,1
			l-0.6,0.5v0.1l0.9-0.2h2.3v1.3h-5.1v-0.8c0.2-0.2,0.4-0.4,0.6-0.7c0.2-0.3,0.5-0.6,0.7-0.9c0.2-0.3,0.5-0.6,0.7-0.9
			c0.2-0.3,0.4-0.6,0.6-1c0.2-0.3,0.3-0.6,0.4-0.9c0.1-0.3,0.2-0.6,0.2-0.9c0-0.3-0.1-0.6-0.3-0.8c-0.2-0.2-0.5-0.3-0.9-0.3
			c-0.3,0-0.5,0.1-0.8,0.2c-0.3,0.1-0.5,0.2-0.7,0.4l-0.6-1.1c0.3-0.3,0.7-0.5,1.1-0.6c0.4-0.2,0.9-0.2,1.4-0.2c0.3,0,0.7,0,0.9,0.1
			s0.5,0.2,0.7,0.4s0.4,0.4,0.5,0.7C403,153.2,403,153.6,403,153.9z"/>
	</g>
	<g class="st0">
		<path class="st1" d="M380,172.2h-0.4v2.5H378v-8.4h1.6v5l0.4-0.2l1.4-2.4h1.7l-1.4,2.3l-0.6,0.5l0.7,0.5l1.6,2.8h-1.8L380,172.2z"
			/>
	</g>
	<g class="st0">
		<path class="st1" d="M388.5,174.2c-0.2,0.2-0.6,0.4-1,0.5s-0.8,0.2-1.3,0.2c-1,0-1.7-0.3-2.1-0.8c-0.4-0.6-0.7-1.3-0.7-2.3
			c0-1.1,0.3-1.8,0.8-2.4s1.2-0.8,2.1-0.8c0.3,0,0.6,0,0.9,0.1s0.5,0.2,0.8,0.4c0.2,0.2,0.4,0.4,0.5,0.7c0.1,0.3,0.2,0.7,0.2,1.2
			c0,0.2,0,0.3,0,0.5c0,0.2,0,0.4-0.1,0.6H385c0,0.5,0.2,0.9,0.4,1.1c0.2,0.3,0.6,0.4,1.1,0.4c0.3,0,0.6,0,0.9-0.2
			c0.3-0.1,0.5-0.2,0.6-0.3L388.5,174.2z M386.3,169.8c-0.4,0-0.7,0.1-0.9,0.4c-0.2,0.2-0.3,0.6-0.4,1h2.2c0-0.4,0-0.8-0.2-1
			C386.9,169.9,386.7,169.8,386.3,169.8z"/>
	</g>
	<g class="st0">
		<path class="st1" d="M391.8,172l0.2,0.9h0.1l0.2-0.9l0.9-3.4h1.6l-1.8,5.4c-0.2,0.4-0.3,0.9-0.4,1.2s-0.3,0.7-0.5,1
			c-0.2,0.3-0.4,0.5-0.6,0.6c-0.2,0.1-0.4,0.2-0.7,0.2c-0.4,0-0.7-0.1-1-0.2l0.3-1.2c0.1,0,0.2,0.1,0.4,0.1c0.2,0,0.4-0.1,0.5-0.2
			c0.2-0.2,0.3-0.4,0.4-0.8l-2.5-6h1.9L391.8,172z"/>
	</g>
	<g class="st0">
		<path class="st1" d="M403,168.3c0,0.4-0.1,0.8-0.2,1.2c-0.1,0.4-0.3,0.8-0.6,1.2c-0.2,0.4-0.5,0.8-0.8,1.2c-0.3,0.4-0.5,0.7-0.8,1
			l-0.6,0.5v0.1l0.9-0.2h2.3v1.3h-5.1v-0.8c0.2-0.2,0.4-0.4,0.6-0.7c0.2-0.3,0.5-0.6,0.7-0.9c0.2-0.3,0.5-0.6,0.7-0.9
			c0.2-0.3,0.4-0.6,0.6-1c0.2-0.3,0.3-0.6,0.4-0.9c0.1-0.3,0.2-0.6,0.2-0.9c0-0.3-0.1-0.6-0.3-0.8c-0.2-0.2-0.5-0.3-0.9-0.3
			c-0.3,0-0.5,0.1-0.8,0.2c-0.3,0.1-0.5,0.2-0.7,0.4l-0.6-1.1c0.3-0.3,0.7-0.5,1.1-0.6c0.4-0.2,0.9-0.2,1.4-0.2c0.3,0,0.7,0,0.9,0.1
			c0.3,0.1,0.5,0.2,0.7,0.4s0.4,0.4,0.5,0.7C403,167.6,403,168,403,168.3z"/>
	</g>
	<g class="st0">
		<path class="st1" d="M274,154.3h0.8v-1.1l1.6-0.4v1.6h1.5v1.3h-1.5v2.3c0,0.4,0,0.7,0.1,0.9c0.1,0.2,0.2,0.3,0.5,0.3
			c0.2,0,0.3,0,0.4,0c0.1,0,0.2-0.1,0.4-0.1l0.3,1.2c-0.2,0.1-0.5,0.2-0.8,0.3c-0.3,0.1-0.6,0.1-0.9,0.1c-0.6,0-1-0.1-1.2-0.4
			c-0.3-0.3-0.4-0.8-0.4-1.4v-3H274V154.3z"/>
		<path class="st1" d="M278.8,154.6c0.3-0.1,0.7-0.3,1.1-0.3s0.9-0.1,1.4-0.1c0.4,0,0.8,0,1,0.2c0.3,0.1,0.5,0.2,0.7,0.4
			s0.3,0.4,0.3,0.7c0.1,0.3,0.1,0.5,0.1,0.9c0,0.4,0,0.7,0,1.1c0,0.4,0,0.7,0,1c0,0.3,0,0.7,0,1c0,0.3,0.1,0.6,0.2,0.9h-1.3
			l-0.3-0.8H282c-0.2,0.2-0.4,0.5-0.7,0.6c-0.3,0.2-0.6,0.3-1.1,0.3c-0.3,0-0.5,0-0.8-0.1s-0.4-0.2-0.6-0.4
			c-0.2-0.2-0.3-0.3-0.4-0.6c-0.1-0.2-0.1-0.4-0.1-0.7c0-0.4,0.1-0.7,0.2-0.9s0.4-0.5,0.7-0.6c0.3-0.2,0.7-0.3,1.1-0.3
			c0.4-0.1,0.9-0.1,1.4-0.1c0.1-0.4,0-0.8-0.1-1s-0.4-0.3-0.8-0.3c-0.3,0-0.6,0-1,0.1c-0.3,0.1-0.6,0.1-0.9,0.3L278.8,154.6z
			 M280.7,159.1c0.3,0,0.6-0.1,0.7-0.2c0.2-0.1,0.3-0.3,0.4-0.4v-0.8c-0.2,0-0.5,0-0.7,0c-0.2,0-0.4,0.1-0.6,0.1
			c-0.2,0.1-0.3,0.1-0.4,0.2c-0.1,0.1-0.2,0.2-0.2,0.4c0,0.2,0.1,0.4,0.2,0.5S280.5,159.1,280.7,159.1z"/>
		<path class="st1" d="M289.8,160.3c0,0.9-0.2,1.5-0.7,1.9c-0.5,0.4-1.1,0.6-2,0.6c-0.6,0-1,0-1.4-0.1s-0.6-0.2-0.8-0.3l0.3-1.2
			c0.2,0.1,0.4,0.1,0.6,0.2c0.2,0.1,0.5,0.1,0.9,0.1c0.5,0,0.9-0.1,1.1-0.4c0.2-0.2,0.3-0.6,0.3-1v-0.4h0c-0.3,0.4-0.8,0.6-1.5,0.6
			c-0.8,0-1.4-0.2-1.7-0.7c-0.4-0.5-0.6-1.2-0.6-2.3c0-1.1,0.3-1.9,0.8-2.4c0.5-0.6,1.3-0.8,2.2-0.8c0.5,0,1,0,1.4,0.1
			c0.4,0.1,0.7,0.2,1,0.3V160.3z M287.2,159.1c0.3,0,0.5-0.1,0.7-0.2c0.2-0.1,0.3-0.3,0.4-0.6v-2.7c-0.2-0.1-0.6-0.2-0.9-0.2
			c-0.4,0-0.7,0.2-0.9,0.5s-0.3,0.8-0.3,1.4c0,0.6,0.1,1,0.3,1.3C286.6,159,286.8,159.1,287.2,159.1z"/>
		<path class="st1" d="M294.7,158.9h1.7v-4.7l0.2-0.8l-0.6,0.7l-1.1,0.7l-0.7-0.9l2.7-2.2h0.9v7.2h1.6v1.3h-4.8V158.9z"/>
	</g>
	<g class="st0">
		<path class="st1" d="M276.6,172.2h-0.4v2.5h-1.6v-8.4h1.6v5l0.4-0.2l1.4-2.4h1.7l-1.4,2.3l-0.6,0.5l0.7,0.5l1.6,2.8h-1.8
			L276.6,172.2z"/>
	</g>
	<g class="st0">
		<path class="st1" d="M285.2,174.2c-0.2,0.2-0.6,0.4-1,0.5s-0.9,0.2-1.3,0.2c-1,0-1.7-0.3-2.1-0.8c-0.4-0.6-0.7-1.3-0.7-2.3
			c0-1.1,0.3-1.8,0.8-2.4s1.2-0.8,2.1-0.8c0.3,0,0.6,0,0.9,0.1s0.5,0.2,0.8,0.4c0.2,0.2,0.4,0.4,0.5,0.7c0.1,0.3,0.2,0.7,0.2,1.2
			c0,0.2,0,0.3,0,0.5s0,0.4-0.1,0.6h-3.6c0,0.5,0.2,0.9,0.4,1.1c0.2,0.3,0.6,0.4,1.1,0.4c0.3,0,0.6,0,0.9-0.2
			c0.3-0.1,0.5-0.2,0.6-0.3L285.2,174.2z M282.9,169.8c-0.4,0-0.7,0.1-0.9,0.4s-0.3,0.6-0.4,1h2.2c0-0.4,0-0.8-0.2-1
			C283.5,169.9,283.3,169.8,282.9,169.8z"/>
	</g>
	<g class="st0">
		<path class="st1" d="M288.5,172l0.2,0.9h0.1l0.2-0.9l0.9-3.4h1.6l-1.8,5.4c-0.2,0.4-0.3,0.9-0.4,1.2c-0.1,0.4-0.3,0.7-0.5,1
			c-0.2,0.3-0.4,0.5-0.6,0.6c-0.2,0.1-0.4,0.2-0.7,0.2c-0.4,0-0.7-0.1-1-0.2l0.3-1.2c0.1,0,0.2,0.1,0.4,0.1c0.2,0,0.4-0.1,0.5-0.2
			c0.2-0.2,0.3-0.4,0.4-0.8l-2.5-6h1.9L288.5,172z"/>
	</g>
	<g class="st0">
		<path class="st1" d="M295.2,173.3h1.7v-4.7l0.2-0.8l-0.6,0.7l-1.1,0.7l-0.7-0.9l2.7-2.2h0.9v7.2h1.6v1.3h-4.8V173.3z"/>
	</g>
</g>
<g id="schrift">
	<path class="st2" d="M622.5,83c-0.6,0-1-0.4-1-1v-4.6c0-1.5,0.6-2.9,1.8-3.9c0.8-0.8,1.9-1.3,3-1.5c0.3-0.1,0.5-0.1,0.8-0.1v-0.1
		c-3.3-0.8-5.6-3.8-5.6-7.1v-1.5c-1.7-0.6-2.7-2.4-2.1-4.2c0.1-0.2,0.2-0.4,0.3-0.6l-1.2-4c-0.8-2.8-0.2-5.7,1.5-8
		c1.2-1.8,3.1-2.9,5.3-3.1h7.5c1.5,0,2.8,1,3.2,2.5c2.2,0.3,4.2,1,5.5,2.7c1.4,1.9,1.5,4.8,0.5,9.8v0.1c0.3,0.5,0.4,1.1,0.4,1.7
		c0,1.5-1,2.8-2.4,3.2v1.6c0,3.3-2.2,6.3-5.4,7.1l0,0c0.3,0,0.6,0,0.9,0.1c1.1,0.2,2.2,0.8,2.9,1.6c1.1,1,1.7,2.4,1.7,3.9V82
		c0,0.6-0.4,1-1,1H622.5z"/>
	<path class="st3" d="M632.8,44.2c1.3,0,2.3,1,2.4,2.3c0,0,0,0.1,0,0.1c5.5,0.7,7.7,2.4,5.9,11.4h-0.6c0.6,0.5,1,1.2,1,2
		c0,1.3-1.1,2.3-2.4,2.3l-0.1,0.1v2.4c0,3.1-2.3,5.8-5.4,6.2v1.8h0.8c0.3,0,0.6,0,0.9,0.1c0.9,0.1,1.8,0.6,2.4,1.3
		c0.9,0.8,1.4,2,1.4,3.2V82h-16.5v-4.6c0-1.2,0.5-2.4,1.5-3.2c0.7-0.7,1.5-1.1,2.5-1.3c0.3-0.1,0.5-0.1,0.8-0.1h0.8V71h0
		c-3.2-0.4-5.5-3.1-5.5-6.3v-2.4l0,0c-1.3,0-2.3-1.1-2.3-2.3c0-0.6,0.3-1.2,0.7-1.7c0.1-0.1,0.2-0.2,0.3-0.3h-0.7l-1.2-3.9
		c-1.5-5,2.5-9.8,5.8-9.8L632.8,44.2 M632.8,42.3h-7.5c-2.5,0.2-4.7,1.5-6.1,3.5c-1.9,2.5-2.6,5.8-1.7,8.9l1.1,3.6
		c-0.9,2.1-0.1,4.5,1.9,5.6v0.9c0,2.8,1.4,5.4,3.7,7c-0.6,0.3-1.1,0.7-1.6,1.1c-1.3,1.2-2.1,2.9-2.1,4.7V82c0,1.1,0.9,2,2,2h16.5
		c1.1,0,2-0.9,2-2v-4.6c0-1.7-0.7-3.4-2-4.6c-0.5-0.5-1-0.9-1.7-1.2c2.3-1.6,3.6-4.2,3.5-6.9v-0.8c1.5-0.7,2.4-2.2,2.5-3.9
		c0-0.6-0.1-1.2-0.4-1.8c1-5.1,0.8-8.2-0.8-10.3c-1.3-1.8-3.4-2.6-5.5-3C636.1,43.3,634.5,42.2,632.8,42.3L632.8,42.3z"/>
	<g class="st0">
		<path class="st1" d="M590.8,101.1l0.8-0.2v-4l-0.9-0.2v-1.1h2.7v5.2l0.8,0.2v1h-3.4V101.1z M593.3,94.1h-1.7v-1.3h1.7V94.1z"/>
		<path class="st1" d="M594.5,96.7v-1.1h2.6l0.1,0.9c0.2-0.3,0.5-0.6,0.8-0.7c0.3-0.2,0.7-0.3,1.1-0.3c0.4,0,0.8,0.1,1.1,0.3
			c0.3,0.2,0.5,0.5,0.7,0.8c0.2-0.3,0.5-0.6,0.8-0.8c0.3-0.2,0.7-0.3,1.1-0.3c0.6,0,1.1,0.2,1.5,0.7s0.6,1.1,0.6,2v2.7l0.8,0.2v1
			h-3.3v-1l0.8-0.2v-2.7c0-0.5-0.1-0.8-0.2-1c-0.2-0.2-0.4-0.3-0.7-0.3c-0.2,0-0.5,0.1-0.6,0.2c-0.2,0.1-0.3,0.3-0.4,0.5
			c0,0.1,0,0.1,0,0.2c0,0.1,0,0.1,0,0.2v3l0.7,0.2v1h-3.1v-1l0.7-0.2v-2.7c0-0.5-0.1-0.8-0.2-1s-0.4-0.3-0.7-0.3
			c-0.2,0-0.4,0-0.6,0.1c-0.2,0.1-0.3,0.2-0.4,0.4v3.5l0.8,0.2v1h-3.3v-1l0.8-0.2v-4L594.5,96.7z"/>
		<path class="st1" d="M610.3,102.1c0-0.1-0.1-0.2-0.1-0.3c0-0.1-0.1-0.2-0.1-0.3c-0.2,0.2-0.5,0.4-0.8,0.6s-0.6,0.2-1,0.2
			c-0.6,0-1.1-0.2-1.5-0.5c-0.4-0.3-0.6-0.8-0.6-1.4c0-0.6,0.2-1.1,0.7-1.4c0.5-0.3,1.2-0.5,2.1-0.5h0.9v-0.6c0-0.3-0.1-0.6-0.3-0.7
			c-0.2-0.2-0.4-0.3-0.8-0.3c-0.2,0-0.4,0-0.5,0.1c-0.2,0-0.3,0.1-0.4,0.2l-0.1,0.7h-1.3l0-1.4c0.3-0.2,0.7-0.4,1.1-0.5
			c0.4-0.1,0.9-0.2,1.3-0.2c0.8,0,1.5,0.2,2,0.6c0.5,0.4,0.8,1,0.8,1.7v2.7c0,0.1,0,0.2,0,0.3c0,0.1,0,0.2,0,0.3l0.5,0.1v1H610.3z
			 M608.7,101c0.3,0,0.5-0.1,0.7-0.2c0.2-0.1,0.4-0.3,0.5-0.4v-1h-0.9c-0.4,0-0.7,0.1-0.8,0.3s-0.3,0.4-0.3,0.6
			c0,0.2,0.1,0.4,0.2,0.5C608.3,100.9,608.5,101,608.7,101z"/>
		<path class="st1" d="M613,99c0-1,0.2-1.8,0.7-2.5c0.4-0.6,1.1-0.9,1.9-0.9c0.4,0,0.7,0.1,1,0.2c0.3,0.2,0.5,0.4,0.7,0.7l0.1-0.8
			h1.5v6.3c0,0.9-0.3,1.5-0.8,2s-1.3,0.8-2.2,0.8c-0.3,0-0.7,0-1-0.1c-0.4-0.1-0.7-0.2-1-0.4l0.3-1.2c0.3,0.1,0.6,0.2,0.8,0.3
			c0.3,0.1,0.6,0.1,0.9,0.1c0.4,0,0.7-0.1,1-0.4c0.2-0.3,0.3-0.6,0.3-1.1v-0.4c-0.2,0.2-0.4,0.4-0.7,0.6c-0.3,0.1-0.6,0.2-0.9,0.2
			c-0.8,0-1.4-0.3-1.9-0.9s-0.7-1.4-0.7-2.3V99z M614.7,99.1c0,0.6,0.1,1,0.3,1.3c0.2,0.3,0.5,0.5,0.9,0.5c0.3,0,0.5,0,0.7-0.1
			s0.3-0.2,0.4-0.4v-2.8c-0.1-0.2-0.3-0.3-0.4-0.5s-0.4-0.2-0.7-0.2c-0.4,0-0.7,0.2-0.9,0.6c-0.2,0.4-0.3,0.9-0.3,1.5V99.1z"/>
		<path class="st1" d="M622.9,102.3c-0.9,0-1.7-0.3-2.2-0.9s-0.8-1.4-0.8-2.3v-0.2c0-1,0.3-1.8,0.8-2.4c0.5-0.6,1.2-0.9,2.1-0.9
			c0.9,0,1.5,0.3,2,0.8c0.5,0.5,0.7,1.2,0.7,2.1v1h-3.9l0,0c0,0.4,0.2,0.8,0.4,1.1c0.3,0.3,0.6,0.4,1,0.4c0.4,0,0.7,0,1-0.1
			c0.3-0.1,0.5-0.2,0.8-0.4l0.5,1.1c-0.3,0.2-0.6,0.4-1,0.5C623.9,102.2,623.5,102.3,622.9,102.3z M622.8,96.9
			c-0.3,0-0.6,0.1-0.8,0.4c-0.2,0.2-0.3,0.6-0.3,1l0,0h2.1v-0.2c0-0.4-0.1-0.7-0.3-0.9C623.4,97,623.1,96.9,622.8,96.9z"/>
		<path class="st1" d="M632.4,100.9c0.3,0,0.6-0.1,0.7-0.3c0.2-0.2,0.3-0.4,0.3-0.7h1.6l0,0c0,0.7-0.2,1.2-0.7,1.6s-1.1,0.7-1.9,0.7
			c-1,0-1.7-0.3-2.2-0.9c-0.5-0.6-0.8-1.4-0.8-2.3v-0.2c0-1,0.3-1.7,0.8-2.3c0.5-0.6,1.3-0.9,2.3-0.9c0.5,0,1,0.1,1.4,0.2
			c0.4,0.2,0.8,0.4,1,0.7l0,1.7h-1.4l-0.3-1c-0.1-0.1-0.2-0.1-0.3-0.2c-0.1,0-0.3-0.1-0.4-0.1c-0.5,0-0.8,0.2-1,0.5
			c-0.2,0.4-0.3,0.8-0.3,1.4V99c0,0.6,0.1,1,0.3,1.4C631.6,100.8,631.9,100.9,632.4,100.9z"/>
	</g>
	<g class="st0">
		<path class="st1" d="M636,101.1l0.8-0.2v-4l-0.9-0.2v-1.1h2.6l0.1,0.9c0.2-0.3,0.3-0.6,0.6-0.8c0.2-0.2,0.5-0.3,0.8-0.3
			c0.1,0,0.2,0,0.3,0c0.1,0,0.2,0,0.3,0.1l-0.2,1.6l-0.7,0c-0.3,0-0.5,0-0.6,0.1c-0.2,0.1-0.3,0.2-0.4,0.4v3.1l0.8,0.2v1H636V101.1z
			"/>
	</g>
	<g class="st0">
		<path class="st1" d="M644,102.3c-0.9,0-1.7-0.3-2.2-0.9s-0.8-1.4-0.8-2.3v-0.2c0-1,0.3-1.8,0.8-2.4c0.5-0.6,1.2-0.9,2.1-0.9
			c0.9,0,1.6,0.3,2,0.8c0.5,0.5,0.7,1.2,0.7,2.1v1h-3.9l0,0c0,0.4,0.2,0.8,0.4,1.1c0.3,0.3,0.6,0.4,1,0.4c0.4,0,0.7,0,1-0.1
			c0.3-0.1,0.5-0.2,0.8-0.4l0.5,1.1c-0.3,0.2-0.6,0.4-1,0.5S644.5,102.3,644,102.3z M643.8,96.9c-0.3,0-0.6,0.1-0.8,0.4
			c-0.2,0.2-0.3,0.6-0.3,1l0,0h2.1v-0.2c0-0.4-0.1-0.7-0.3-0.9C644.4,97,644.2,96.9,643.8,96.9z"/>
	</g>
	<g class="st0">
		<path class="st1" d="M651.5,102.1c0-0.1-0.1-0.2-0.1-0.3c0-0.1-0.1-0.2-0.1-0.3c-0.2,0.2-0.5,0.4-0.8,0.6s-0.6,0.2-1,0.2
			c-0.6,0-1.1-0.2-1.5-0.5c-0.4-0.3-0.6-0.8-0.6-1.4c0-0.6,0.2-1.1,0.7-1.4c0.5-0.3,1.2-0.5,2.1-0.5h0.9v-0.6c0-0.3-0.1-0.6-0.3-0.7
			c-0.2-0.2-0.4-0.3-0.8-0.3c-0.2,0-0.4,0-0.5,0.1s-0.3,0.1-0.4,0.2l-0.1,0.7h-1.3l0-1.4c0.3-0.2,0.7-0.4,1.1-0.5s0.9-0.2,1.3-0.2
			c0.8,0,1.5,0.2,2,0.6c0.5,0.4,0.8,1,0.8,1.7v2.7c0,0.1,0,0.2,0,0.3c0,0.1,0,0.2,0,0.3l0.5,0.1v1H651.5z M650,101
			c0.3,0,0.5-0.1,0.7-0.2c0.2-0.1,0.4-0.3,0.5-0.4v-1h-0.9c-0.4,0-0.7,0.1-0.8,0.3s-0.3,0.4-0.3,0.6c0,0.2,0.1,0.4,0.2,0.5
			C649.6,100.9,649.8,101,650,101z"/>
	</g>
	<g class="st0">
		<path class="st1" d="M656.2,94.1v1.6h1.1v1.2h-1.1v3.3c0,0.3,0.1,0.4,0.2,0.5s0.2,0.2,0.4,0.2c0.1,0,0.2,0,0.3,0
			c0.1,0,0.2,0,0.3-0.1l0.1,1.3c-0.2,0.1-0.4,0.1-0.6,0.1c-0.2,0-0.4,0-0.6,0c-0.6,0-1.1-0.2-1.4-0.5c-0.3-0.3-0.5-0.9-0.5-1.6v-3.3
			h-1v-1.2h1v-1.6H656.2z"/>
	</g>
	<g class="st0">
		<path class="st1" d="M658,98.8c0-1,0.3-1.8,0.8-2.4c0.5-0.6,1.3-0.9,2.2-0.9c1,0,1.7,0.3,2.2,0.9c0.5,0.6,0.8,1.4,0.8,2.4V99
			c0,1-0.3,1.8-0.8,2.4c-0.5,0.6-1.3,0.9-2.2,0.9c-1,0-1.7-0.3-2.3-0.9c-0.5-0.6-0.8-1.4-0.8-2.4V98.8z M659.8,99
			c0,0.6,0.1,1.1,0.3,1.4c0.2,0.4,0.5,0.5,1,0.5c0.5,0,0.8-0.2,1-0.5c0.2-0.4,0.3-0.8,0.3-1.4v-0.1c0-0.6-0.1-1-0.3-1.4
			c-0.2-0.4-0.5-0.5-1-0.5c-0.5,0-0.8,0.2-1,0.5c-0.2,0.4-0.3,0.8-0.3,1.4V99z"/>
		<path class="st1" d="M665,101.1l0.8-0.2v-4l-0.9-0.2v-1.1h2.6l0.1,0.9c0.2-0.3,0.3-0.6,0.6-0.8c0.2-0.2,0.5-0.3,0.8-0.3
			c0.1,0,0.2,0,0.3,0c0.1,0,0.2,0,0.3,0.1l-0.2,1.6l-0.7,0c-0.3,0-0.5,0-0.6,0.1c-0.2,0.1-0.3,0.2-0.4,0.4v3.1l0.8,0.2v1H665V101.1z
			"/>
	</g>
	<path class="st1" d="M633.9,58.8c0.4,0,0.7,0.3,0.7,0.7c0,0.4-0.3,0.7-0.7,0.7c-0.4,0-0.7-0.3-0.7-0.7
		C633.2,59.1,633.5,58.8,633.9,58.8z"/>
	<circle class="st1" cx="628" cy="59.5" r="0.7"/>
	<path class="st4" d="M633.7,64.8c-0.2,1.4-1.3,2.4-2.7,2.4c-1.4,0-2.6-1-2.8-2.4H633.7z"/>
	<polyline class="st4" points="622.6,57.5 622.6,56.7 622.6,54.7 	"/>
	<path class="st4" d="M622.6,62.3V62"/>
	<path class="st4" d="M622.6,61.5v-4c-0.6,0-1.3,0.3-1.7,0.7c-0.4,0.4-0.7,1-0.7,1.7c0,1.3,1.1,2.4,2.4,2.4"/>
	<path class="st4" d="M639.3,57.9v4c0.6,0,1.3-0.2,1.7-0.7c0.4-0.4,0.7-1,0.7-1.7c0-1.3-1.1-2.4-2.4-2.4"/>
	<path class="st4" d="M628.2,64.8c0.2,1.4,1.4,2.4,2.8,2.4c1.4,0,2.6-1,2.7-2.4H628.2L628.2,64.8z"/>
	<path class="st4" d="M620.6,58l-1.2-4c-1.5-5.1,2.6-10,5.9-10h7.7c1.3,0,2.4,1,2.4,2.3c0,0,0,0.1,0,0.1c5.6,0.7,7.9,2.5,6,11.6"/>
	<path class="st4" d="M622.6,56.7h2.4c0.9,0,1.6-0.7,1.6-1.6c0-0.6,0.2-1.3,0.7-1.7c0.5-0.4,1.1-0.7,1.7-0.7h0.5
		c1.5,0,2.9-0.6,4-1.6l1.2-1.2v0.3c0,1.8,0.9,3.5,2.3,4.6l2.5,1.8"/>
	<path class="st4" d="M632.2,62.3h-4.1c-0.9,0-1.6,0.7-1.6,1.6v0.6c-0.1,0.6-0.6,1-1.2,1c-0.7,0-1.2-0.5-1.2-1.2v-1.3
		c0-0.9-0.7-1.6-1.6-1.6v3.2c0,3.2,2.4,6,5.6,6.4c0.2,0,0.6,0.1,0.8,0.1h4.7c3.3-0.3,5.7-3.1,5.7-6.4v-3.3c-0.9,0-1.6,0.7-1.6,1.6
		v1.2c0,0.7-0.5,1.2-1.2,1.2c-0.6,0-1.1-0.4-1.2-1V64c0-0.9-0.7-1.6-1.6-1.6H632"/>
	<path class="st4" d="M628.2,71.5v1.6h-0.8c-0.3,0-0.5,0-0.8,0.1c-1,0.2-1.9,0.6-2.6,1.3c-0.9,0.8-1.5,2-1.4,3.2v4.6h16.8v-4.6
		c0-1.2-0.5-2.4-1.4-3.2c-0.7-0.7-1.5-1.2-2.5-1.3c-0.3-0.1-0.6-0.1-0.9-0.1h-0.8v-1.6"/>
</g>
<g id="Ebene_4">
	
		<linearGradient id="SVGID_1_" gradientUnits="userSpaceOnUse" x1="192.46" y1="121.1898" x2="262.46" y2="121.1898" gradientTransform="matrix(1 0 0 -1 0 283.8898)">
		<stop  offset="0" style="stop-color:#990066"/>
		<stop  offset="0.19" style="stop-color:#780066"/>
		<stop  offset="0.4" style="stop-color:#5A0066"/>
		<stop  offset="0.61" style="stop-color:#440066"/>
		<stop  offset="0.81" style="stop-color:#370066"/>
		<stop  offset="1" style="stop-color:#330066"/>
	</linearGradient>
	<path class="st5" d="M197.5,133.9h60c2.8,0,5,2.2,5,5v47.6c0,2.8-2.2,5-5,5h-60c-2.8,0-5-2.2-5-5v-47.6
		C192.5,136.1,194.7,133.9,197.5,133.9z"/>
	<g class="st0">
		<path class="st6" d="M220.8,161.8l-0.7,0.1l1.5,5.1l0.1,0.5h0l0.1-0.5l1.5-5.1l-0.6-0.1v-1h3.1v1l-0.7,0.1l-2.5,7.4h-1.8l-2.5-7.4
			l-0.7-0.1v-1h3.1V161.8z"/>
	</g>
	<g class="st0">
		<path class="st6" d="M226.1,166.1c0-0.9,0.3-1.7,0.8-2.3s1.3-0.9,2.2-0.9c0.9,0,1.7,0.3,2.2,0.9s0.8,1.4,0.8,2.3v0.1
			c0,1-0.3,1.7-0.8,2.3s-1.3,0.9-2.2,0.9c-0.9,0-1.7-0.3-2.2-0.9s-0.8-1.4-0.8-2.3V166.1z M227.9,166.2c0,0.6,0.1,1,0.3,1.4
			s0.5,0.5,1,0.5c0.4,0,0.8-0.2,1-0.5s0.3-0.8,0.3-1.4v-0.1c0-0.6-0.1-1-0.3-1.4s-0.5-0.5-1-0.5s-0.8,0.2-1,0.5s-0.3,0.8-0.3,1.4
			V166.2z"/>
	</g>
	<g class="st0">
		<path class="st6" d="M232.6,161.2v-1h2.6v7.9l0.8,0.2v1h-3.4v-1l0.8-0.2v-6.7L232.6,161.2z"/>
	</g>
	<path class="st7" d="M219.3,121.8c4.6-4.5,12.1-4.5,16.6,0.2s4.5,12.1-0.2,16.6c-4.6,4.5-12.1,4.5-16.6-0.2
		c-2.1-2.2-3.4-5.1-3.4-8.2c0-2.6,0.8-5.1,2.4-7.1"/>
	<path class="st8" d="M227.5,135.8h-4.2c-0.6,0-0.8-0.2-0.8-0.8v-6.5c0-0.6,0.2-0.8,0.8-0.8h8.4c0.6,0,0.8,0.2,0.8,0.8v6.5
		c0,0.5-0.2,0.8-0.8,0.8C230.3,135.8,228.9,135.8,227.5,135.8z"/>
	<path class="st8" d="M223.2,127.2c0-1.8,1-3.4,2.6-4.1c2.1-0.9,4.6,0,5.5,2.2c0.1,0.2,0.2,0.5,0.2,0.7c0.1,0.4,0.1,0.8,0.2,1.2"/>
	<path class="st6" d="M226.8,133.1L226.8,133.1v0.9c0,0.2,0.1,0.2,0.3,0.2h0.8c0.2,0,0.3-0.1,0.3-0.3v-1.6c0-0.2,0.1-0.3,0.2-0.4
		c0.5-0.3,0.8-0.9,0.6-1.4c-0.2-0.6-0.8-1-1.4-1c-0.7-0.1-1.3,0.3-1.6,0.9c-0.2,0.6,0,1.2,0.6,1.5c0.2,0.1,0.3,0.3,0.3,0.5
		C226.8,132.5,226.8,132.8,226.8,133.1z"/>
	
		<linearGradient id="SVGID_2_" gradientUnits="userSpaceOnUse" x1="416.12" y1="120.1898" x2="486.12" y2="120.1898" gradientTransform="matrix(1 0 0 -1 0 283.8898)">
		<stop  offset="0" style="stop-color:#990066"/>
		<stop  offset="0.19" style="stop-color:#780066"/>
		<stop  offset="0.4" style="stop-color:#5A0066"/>
		<stop  offset="0.61" style="stop-color:#440066"/>
		<stop  offset="0.81" style="stop-color:#370066"/>
		<stop  offset="1" style="stop-color:#330066"/>
	</linearGradient>
	<path class="st9" d="M421.1,134.9h60c2.8,0,5,2.2,5,5v47.6c0,2.8-2.2,5-5,5h-60c-2.8,0-5-2.2-5-5v-47.6
		C416.1,137.1,418.4,134.9,421.1,134.9z"/>
	<g class="st0">
		<path class="st6" d="M444.4,162.8l-0.7,0.1l1.5,5.1l0.1,0.5h0l0.1-0.5l1.5-5.1l-0.6-0.1v-1h3.1v1l-0.7,0.1l-2.5,7.4h-1.8l-2.5-7.4
			l-0.7-0.1v-1h3.1V162.8z"/>
	</g>
	<g class="st0">
		<path class="st6" d="M449.8,167.1c0-0.9,0.3-1.7,0.8-2.3s1.3-0.9,2.2-0.9c0.9,0,1.7,0.3,2.2,0.9s0.8,1.4,0.8,2.3v0.1
			c0,1-0.3,1.7-0.8,2.3s-1.3,0.9-2.2,0.9c-0.9,0-1.7-0.3-2.2-0.9s-0.8-1.4-0.8-2.3V167.1z M451.5,167.2c0,0.6,0.1,1,0.3,1.4
			s0.5,0.5,1,0.5c0.4,0,0.8-0.2,1-0.5s0.3-0.8,0.3-1.4v-0.1c0-0.6-0.1-1-0.3-1.4s-0.5-0.5-1-0.5s-0.8,0.2-1,0.5s-0.3,0.8-0.3,1.4
			V167.2z"/>
	</g>
	<g class="st0">
		<path class="st6" d="M456.2,162.2v-1h2.6v7.9l0.8,0.2v1h-3.4v-1l0.8-0.2v-6.7L456.2,162.2z"/>
	</g>
	<path class="st10" d="M443,122.8c4.6-4.5,12.1-4.5,16.6,0.1c4.5,4.6,4.5,12.1-0.1,16.6c-4.6,4.5-12.1,4.5-16.6-0.1
		c-2.2-2.2-3.4-5.1-3.4-8.2c0-2.6,0.8-5.1,2.4-7.1"/>
	<path class="st11" d="M451.2,136.8H447c-0.6,0-0.8-0.2-0.8-0.8v-6.5c0-0.6,0.2-0.8,0.8-0.8h8.5c0.5,0,0.8,0.2,0.8,0.8v6.5
		c0,0.5-0.2,0.8-0.8,0.8C454,136.8,452.6,136.8,451.2,136.8z"/>
	<path class="st11" d="M446.8,128.2c0-1.8,1-3.4,2.6-4.1c2.1-0.9,4.6,0,5.5,2.1c0.1,0.2,0.2,0.5,0.2,0.7c0.1,0.4,0.1,0.8,0.2,1.2"/>
	<path class="st12" d="M450.5,134.1L450.5,134.1v0.9c0,0.2,0.1,0.2,0.3,0.2h0.8c0.2,0,0.3-0.1,0.3-0.3v-1.6c0-0.2,0.1-0.3,0.2-0.4
		c0.5-0.3,0.8-0.9,0.6-1.4c-0.2-0.6-0.8-1-1.5-1c-0.7-0.1-1.3,0.3-1.6,0.9c-0.2,0.6,0,1.2,0.5,1.5c0.2,0.1,0.3,0.3,0.3,0.5
		C450.5,133.5,450.5,133.8,450.5,134.1z"/>
	
		<linearGradient id="SVGID_3_" gradientUnits="userSpaceOnUse" x1="273.93" y1="231.3498" x2="398.68" y2="231.3498" gradientTransform="matrix(1 0 0 -1 0 283.8898)">
		<stop  offset="0" style="stop-color:#990066"/>
		<stop  offset="0.19" style="stop-color:#780066"/>
		<stop  offset="0.4" style="stop-color:#5A0066"/>
		<stop  offset="0.61" style="stop-color:#440066"/>
		<stop  offset="0.81" style="stop-color:#370066"/>
		<stop  offset="1" style="stop-color:#330066"/>
	</linearGradient>
	<path class="st13" d="M278.9,27.5h114.8c2.8,0,5,2.2,5,5v40c0,2.8-2.2,5-5,5H278.9c-2.8,0-5-2.2-5-5v-40
		C273.9,29.8,276.2,27.5,278.9,27.5z"/>
	<g class="st0">
		<path class="st6" d="M303.7,58.6l0.9-0.2v-6.1l-0.9-0.2v-1h6.8v2.3h-1.3l-0.1-1h-2.8v2.3h3v1.3h-3v2.3l0.9,0.2v1h-3.5V58.6z"/>
		<path class="st6" d="M311.1,58.6l0.8-0.2v-3.9l-0.9-0.2v-1h2.6v5.1l0.8,0.2v1h-3.4V58.6z M313.6,51.7h-1.7v-1.3h1.7V51.7z"/>
		<path class="st6" d="M314.8,51.5v-1h2.6v7.9l0.8,0.2v1h-3.4v-1l0.8-0.2v-6.7L314.8,51.5z"/>
		<path class="st6" d="M321.8,59.7c-0.9,0-1.6-0.3-2.2-0.9s-0.8-1.3-0.8-2.2v-0.2c0-0.9,0.3-1.7,0.8-2.3s1.2-0.9,2.1-0.9
			c0.9,0,1.5,0.3,2,0.8s0.7,1.2,0.7,2.1v0.9h-3.8l0,0c0,0.4,0.2,0.8,0.4,1s0.6,0.4,1,0.4c0.4,0,0.7,0,0.9-0.1s0.5-0.2,0.8-0.4
			l0.5,1.1c-0.3,0.2-0.6,0.4-1,0.5S322.4,59.7,321.8,59.7z M321.7,54.5c-0.3,0-0.6,0.1-0.8,0.4s-0.3,0.6-0.3,1l0,0h2.1v-0.2
			c0-0.4-0.1-0.7-0.3-0.9S322,54.5,321.7,54.5z"/>
		<path class="st6" d="M333.3,55.4h-1.1l-0.2-0.8c-0.1-0.1-0.3-0.2-0.4-0.2s-0.4-0.1-0.6-0.1c-0.3,0-0.5,0.1-0.7,0.2
			S330,54.8,330,55c0,0.2,0.1,0.4,0.3,0.5s0.5,0.2,1,0.3c0.8,0.2,1.4,0.4,1.7,0.7s0.6,0.7,0.6,1.3c0,0.6-0.2,1-0.7,1.4
			s-1.1,0.5-1.9,0.5c-0.5,0-0.9-0.1-1.3-0.2s-0.8-0.3-1.1-0.6l0-1.4h1.2l0.2,0.8c0.1,0.1,0.2,0.1,0.4,0.2s0.4,0.1,0.6,0.1
			c0.3,0,0.6-0.1,0.8-0.2s0.3-0.3,0.3-0.5c0-0.2-0.1-0.3-0.3-0.5s-0.5-0.3-1-0.4c-0.7-0.2-1.3-0.4-1.7-0.7s-0.6-0.7-0.6-1.2
			c0-0.5,0.2-1,0.7-1.4s1.1-0.6,1.9-0.6c0.5,0,1,0.1,1.4,0.2s0.8,0.3,1,0.5L333.3,55.4z"/>
		<path class="st6" d="M340.9,54.3l-0.6,0.1l-2.3,6.2c-0.2,0.5-0.4,0.8-0.7,1.1s-0.8,0.5-1.4,0.5c-0.1,0-0.3,0-0.4,0
			s-0.3-0.1-0.4-0.1l0.2-1.2c0.1,0,0.1,0,0.2,0s0.1,0,0.2,0c0.3,0,0.5-0.1,0.7-0.2s0.3-0.3,0.4-0.5l0.2-0.5l-2-5.2l-0.6-0.1v-1h3.1
			v1l-0.7,0.1l0.9,2.5l0.1,0.5l0,0l1-3l-0.7-0.1v-1h3.1V54.3z"/>
		<path class="st6" d="M346.6,55.4h-1.1l-0.2-0.8c-0.1-0.1-0.3-0.2-0.4-0.2s-0.4-0.1-0.6-0.1c-0.3,0-0.5,0.1-0.7,0.2
			s-0.3,0.3-0.3,0.5c0,0.2,0.1,0.4,0.3,0.5s0.5,0.2,1,0.3c0.8,0.2,1.4,0.4,1.7,0.7s0.6,0.7,0.6,1.3c0,0.6-0.2,1-0.7,1.4
			s-1.1,0.5-1.9,0.5c-0.5,0-0.9-0.1-1.3-0.2s-0.8-0.3-1.1-0.6l0-1.4h1.2l0.2,0.8c0.1,0.1,0.2,0.1,0.4,0.2s0.4,0.1,0.6,0.1
			c0.3,0,0.6-0.1,0.8-0.2s0.3-0.3,0.3-0.5c0-0.2-0.1-0.3-0.3-0.5s-0.5-0.3-1-0.4c-0.7-0.2-1.3-0.4-1.7-0.7s-0.6-0.7-0.6-1.2
			c0-0.5,0.2-1,0.7-1.4s1.1-0.6,1.9-0.6c0.5,0,1,0.1,1.4,0.2s0.8,0.3,1,0.5L346.6,55.4z"/>
		<path class="st6" d="M350.1,51.7v1.6h1.1v1.2h-1.1v3.2c0,0.2,0.1,0.4,0.2,0.5s0.2,0.2,0.4,0.2c0.1,0,0.2,0,0.3,0s0.2,0,0.3,0
			l0.1,1.2c-0.2,0.1-0.4,0.1-0.6,0.1s-0.4,0-0.6,0c-0.6,0-1-0.2-1.4-0.5s-0.5-0.8-0.5-1.5v-3.2h-0.9v-1.2h0.9v-1.6H350.1z"/>
		<path class="st6" d="M355.1,59.7c-0.9,0-1.6-0.3-2.2-0.9s-0.8-1.3-0.8-2.2v-0.2c0-0.9,0.3-1.7,0.8-2.3s1.2-0.9,2.1-0.9
			c0.9,0,1.5,0.3,2,0.8s0.7,1.2,0.7,2.1v0.9h-3.8l0,0c0,0.4,0.2,0.8,0.4,1s0.6,0.4,1,0.4c0.4,0,0.7,0,0.9-0.1s0.5-0.2,0.8-0.4
			l0.5,1.1c-0.3,0.2-0.6,0.4-1,0.5S355.6,59.7,355.1,59.7z M355,54.5c-0.3,0-0.6,0.1-0.8,0.4s-0.3,0.6-0.3,1l0,0h2.1v-0.2
			c0-0.4-0.1-0.7-0.3-0.9S355.3,54.5,355,54.5z"/>
		<path class="st6" d="M358.3,54.3v-1h2.5l0.1,0.8c0.2-0.3,0.5-0.5,0.8-0.7s0.7-0.2,1.1-0.2c0.4,0,0.8,0.1,1,0.3s0.5,0.5,0.7,0.8
			c0.2-0.3,0.4-0.6,0.8-0.8s0.7-0.3,1.1-0.3c0.6,0,1.1,0.2,1.5,0.6s0.5,1.1,0.5,2v2.6l0.8,0.2v1h-3.3v-1l0.7-0.2v-2.6
			c0-0.5-0.1-0.8-0.2-1s-0.4-0.3-0.7-0.3c-0.2,0-0.5,0.1-0.6,0.2s-0.3,0.3-0.4,0.4c0,0.1,0,0.1,0,0.2s0,0.1,0,0.2v3l0.7,0.2v1h-3.1
			v-1l0.7-0.2v-2.6c0-0.5-0.1-0.8-0.2-1s-0.4-0.3-0.7-0.3c-0.2,0-0.4,0-0.6,0.1s-0.3,0.2-0.4,0.4v3.4l0.7,0.2v1h-3.3v-1l0.8-0.2
			v-3.9L358.3,54.3z"/>
	</g>
	<path class="st7" d="M328.1,18.7c4.6-4.5,12.1-4.5,16.6,0.1c4.5,4.6,4.5,12.1-0.1,16.6c-4.6,4.5-12.1,4.5-16.6-0.1
		c-2.2-2.2-3.4-5.1-3.4-8.2c0-2.6,0.8-5.1,2.4-7.1"/>
	<path class="st8" d="M336.3,32.7h-4.3c-0.6,0-0.8-0.2-0.8-0.8v-6.5c0-0.6,0.2-0.8,0.8-0.8h8.5c0.5,0,0.8,0.2,0.8,0.8V32
		c0,0.5-0.2,0.8-0.8,0.8C339.1,32.8,337.7,32.7,336.3,32.7z"/>
	<path class="st8" d="M332,24.1c0-1.8,1-3.4,2.6-4.1c2.1-0.9,4.6,0,5.5,2.1c0.1,0.2,0.2,0.5,0.2,0.7c0.1,0.4,0.1,0.8,0.2,1.2"/>
	<path class="st14" d="M335.6,30L335.6,30v0.9c0,0.2,0.1,0.2,0.3,0.2h0.8c0.2,0,0.3-0.1,0.3-0.3v-1.6c0-0.2,0.1-0.3,0.2-0.4
		c0.5-0.3,0.8-0.9,0.6-1.5c-0.2-0.6-0.8-1-1.4-1c-0.7-0.1-1.3,0.3-1.6,0.9c-0.2,0.6,0,1.2,0.5,1.5c0.2,0.1,0.3,0.3,0.3,0.5
		C335.6,29.5,335.6,29.7,335.6,30z"/>
	<line class="st15" x1="362.2" y1="88.5" x2="397.6" y2="123.9"/>
	<polygon class="st12" points="390.3,124.7 390.3,123.3 397.2,123.5 397,116.6 398.4,116.6 398.7,125 	"/>
	<line class="st15" x1="310.4" y1="88.5" x2="275" y2="123.9"/>
	<polygon class="st12" points="274.2,116.6 275.6,116.6 275.4,123.5 282.3,123.3 282.3,124.7 273.9,125 	"/>
	<g class="st0">
		<path class="st1" d="M606.5,270.8l0.7-0.1l2.8-8h1.9l2.8,8l0.7,0.1v1.1h-3.1v-1.1l0.6-0.1l-0.4-1.3h-3l-0.4,1.3l0.6,0.1v1.1h-3.1
			V270.8z M609.9,268.1h2.1l-1-3.3h0L609.9,268.1z"/>
	</g>
	<g class="st0">
		<path class="st1" d="M618,263.4v1.7h1.2v1.3H618v3.5c0,0.3,0.1,0.5,0.2,0.6c0.1,0.1,0.3,0.2,0.4,0.2c0.1,0,0.2,0,0.3,0
			c0.1,0,0.2,0,0.3-0.1l0.2,1.3c-0.2,0.1-0.4,0.1-0.6,0.1c-0.2,0-0.4,0-0.7,0c-0.6,0-1.1-0.2-1.5-0.5c-0.3-0.4-0.5-0.9-0.5-1.7v-3.5
			h-1v-1.3h1v-1.7H618z"/>
		<path class="st1" d="M622.8,263.4v1.7h1.2v1.3h-1.2v3.5c0,0.3,0.1,0.5,0.2,0.6c0.1,0.1,0.3,0.2,0.4,0.2c0.1,0,0.2,0,0.3,0
			c0.1,0,0.2,0,0.3-0.1l0.2,1.3c-0.2,0.1-0.4,0.1-0.6,0.1c-0.2,0-0.4,0-0.7,0c-0.6,0-1.1-0.2-1.5-0.5c-0.3-0.4-0.5-0.9-0.5-1.7v-3.5
			h-1v-1.3h1v-1.7H622.8z"/>
		<path class="st1" d="M629.3,271.9c-0.1-0.1-0.1-0.2-0.1-0.4c0-0.1-0.1-0.2-0.1-0.4c-0.2,0.3-0.5,0.5-0.8,0.6
			c-0.3,0.2-0.7,0.2-1.1,0.2c-0.7,0-1.2-0.2-1.6-0.5s-0.6-0.9-0.6-1.5c0-0.6,0.3-1.1,0.8-1.5c0.5-0.4,1.3-0.5,2.3-0.5h0.9v-0.7
			c0-0.3-0.1-0.6-0.3-0.8s-0.5-0.3-0.8-0.3c-0.2,0-0.4,0-0.6,0.1s-0.3,0.1-0.4,0.2l-0.1,0.7h-1.4l0-1.5c0.3-0.2,0.7-0.4,1.2-0.6
			c0.4-0.2,0.9-0.2,1.4-0.2c0.9,0,1.5,0.2,2.1,0.6c0.5,0.4,0.8,1,0.8,1.8v2.8c0,0.1,0,0.2,0,0.3c0,0.1,0,0.2,0,0.3l0.6,0.1v1.1
			H629.3z M627.7,270.7c0.3,0,0.5-0.1,0.8-0.2c0.2-0.1,0.4-0.3,0.5-0.5v-1h-0.9c-0.4,0-0.7,0.1-0.9,0.3c-0.2,0.2-0.3,0.4-0.3,0.7
			c0,0.2,0.1,0.4,0.2,0.5C627.2,270.6,627.4,270.7,627.7,270.7z"/>
		<path class="st1" d="M635.3,270.6c0.3,0,0.6-0.1,0.8-0.3c0.2-0.2,0.3-0.5,0.3-0.8h1.7l0,0c0,0.7-0.2,1.3-0.8,1.7
			c-0.5,0.5-1.2,0.7-2,0.7c-1,0-1.8-0.3-2.4-1c-0.6-0.6-0.8-1.5-0.8-2.5v-0.2c0-1,0.3-1.8,0.9-2.5c0.6-0.7,1.4-1,2.4-1
			c0.6,0,1.1,0.1,1.5,0.2c0.4,0.2,0.8,0.4,1.1,0.7l0,1.8h-1.5l-0.3-1.1c-0.1-0.1-0.2-0.1-0.3-0.2c-0.1-0.1-0.3-0.1-0.5-0.1
			c-0.5,0-0.9,0.2-1.1,0.6s-0.3,0.9-0.3,1.5v0.2c0,0.6,0.1,1.1,0.3,1.5C634.5,270.4,634.8,270.6,635.3,270.6z"/>
	</g>
	<g class="st0">
		<path class="st1" d="M638.7,263.1V262h2.8v5.7h0.4l1.1-1.5l-0.6-0.1v-1.1h3.4v1.1l-0.8,0.2l-1.2,1.7l1.7,2.6l0.7,0.1v1.1H643v-1.1
			l0.4-0.1l-1.1-1.7h-0.8v1.6l0.8,0.2v1.1h-3.5v-1.1l0.9-0.2v-7.3L638.7,263.1z"/>
	</g>
	<g class="st0">
		<path class="st1" d="M650,272.1c-1,0-1.8-0.3-2.4-1c-0.6-0.6-0.9-1.4-0.9-2.4v-0.3c0-1,0.3-1.9,0.8-2.5c0.6-0.7,1.3-1,2.3-1
			c0.9,0,1.6,0.3,2.2,0.8c0.5,0.6,0.8,1.3,0.8,2.3v1h-4.1l0,0c0,0.5,0.2,0.8,0.5,1.1c0.3,0.3,0.6,0.4,1.1,0.4c0.4,0,0.8,0,1-0.1
			c0.3-0.1,0.6-0.2,0.9-0.4l0.5,1.1c-0.3,0.2-0.7,0.4-1.1,0.6C651.1,272,650.6,272.1,650,272.1z M649.9,266.4
			c-0.3,0-0.6,0.1-0.8,0.4c-0.2,0.3-0.3,0.6-0.4,1l0,0h2.3v-0.2c0-0.4-0.1-0.7-0.3-0.9C650.5,266.5,650.2,266.4,649.9,266.4z"/>
		<path class="st1" d="M653.8,270.8l0.9-0.2v-4.3l-1-0.2v-1.1h2.7l0.1,1c0.2-0.4,0.4-0.6,0.6-0.8c0.3-0.2,0.5-0.3,0.9-0.3
			c0.1,0,0.2,0,0.3,0c0.1,0,0.2,0,0.3,0.1l-0.2,1.7l-0.8,0c-0.3,0-0.5,0.1-0.7,0.2s-0.3,0.3-0.4,0.5v3.3l0.9,0.2v1.1h-3.6V270.8z"/>
	</g>
	<line class="st16" x1="522.1" y1="164.1" x2="601.6" y2="164.1"/>
	<polygon class="st17" points="526.7,169.8 527.7,168.8 522.6,164.1 527.7,159.4 526.7,158.4 520.6,164.1 	"/>
	<line class="st16" x1="514.4" y1="179.3" x2="601.6" y2="223.4"/>
	<polygon class="st17" points="516,186.5 517.3,186 514.9,179.5 521.5,177.6 521.1,176.3 513,178.6 	"/>
	<line class="st16" x1="517.7" y1="147.9" x2="601.6" y2="112.8"/>
	<polygon class="st17" points="524.2,151.4 524.7,150.1 518.2,147.7 521,141.4 519.8,140.8 516.3,148.5 	"/>
	<line class="st16" x1="522.1" y1="165" x2="601.6" y2="165"/>
	<polygon class="st17" points="526.7,170.7 527.7,169.7 522.6,165 527.7,160.3 526.7,159.3 520.6,165 	"/>
	<line class="st18" x1="76.7" y1="179" x2="181.5" y2="179"/>
	<polygon class="st1" points="81.3,184.7 82.3,183.7 77.2,179 82.3,174.3 81.3,173.3 75.1,179 	"/>
	<line class="st18" x1="180" y1="148.1" x2="75.2" y2="148.1"/>
	<polygon class="st1" points="175.4,142.4 174.4,143.4 179.5,148.1 174.4,152.8 175.4,153.9 181.5,148.1 	"/>
	<circle class="st19" cx="502.5" cy="163.1" r="7.8"/>
	<line class="st20" x1="508" y1="168.6" x2="497" y2="157.6"/>
	<path class="st2" d="M621.3,251.8c-0.6,0-1-0.4-1-1v-5.1c0-1.6,0.8-3.2,2.2-4.1c1-0.8,2.2-1.3,3.5-1.5c0.4-0.1,0.8-0.1,1.1-0.1
		v-1.1c-2.3-1.7-3.6-4.4-3.6-7.2c0-0.9,0-1.3,0-1.6c0-0.2,0-0.3,0-0.5h-0.2c-0.6,0-1-0.4-1-1v-5.6c0-0.2,0.1-0.4,0.2-0.5
		c0.6-3.9,3.2-7.1,6.9-8.4c2.3-0.8,4.7-0.8,7,0c1.5,0.5,2.8,1.4,3.9,2.5c1.6,1.6,2.7,3.7,3,5.9c0.1,0.1,0.2,0.3,0.2,0.5v5.6
		c0,0.6-0.4,1-1,1h-0.2v2.5c0,2.8-1.4,5.4-3.7,7v0.9c0.4,0,0.8,0,1.1,0.1c1.3,0.2,2.5,0.7,3.5,1.6c1.3,1,2.1,2.5,2.1,4.1v5.1
		c0,0.6-0.4,1-1,1L621.3,251.8z"/>
	<path class="st1" d="M632.8,214.4c1.1,0,2.2,0.2,3.2,0.5c1.3,0.5,2.5,1.2,3.5,2.3c1.5,1.5,2.5,3.5,2.8,5.7h0.1v5.6h-1.2v3.5
		c0,2.7-1.4,5.1-3.7,6.5v2.4h1c0.3,0,0.7,0,1,0.1c1.1,0.2,2.2,0.6,3.1,1.4c1.1,0.8,1.7,2,1.7,3.4v5.1h-22.9v-5.1
		c0-1.3,0.7-2.6,1.7-3.4c0.9-0.7,2-1.2,3.1-1.4c0.3-0.1,0.7-0.1,1-0.1h1v-2.5h0.2c-2.3-1.5-3.7-4.1-3.8-6.8c0-1.8-0.1-1.5-0.1-3.2
		h-1.2v-5.6h0.1c0.5-4.8,4.6-8.5,9.5-8.5 M632.9,212.3c-5.7-0.1-10.6,4-11.5,9.7c-0.1,0.3-0.2,0.6-0.2,0.9v5.6
		c0,0.8,0.5,1.5,1.3,1.9c0,0.3,0,0.6,0,1.3c0,2.8,1.2,5.5,3.3,7.4c-1.4,0.2-2.8,0.8-4,1.8c-1.6,1.1-2.5,3-2.5,4.9v5.1
		c0,1.1,0.9,2,2,2h22.9c1.1,0,2-0.9,2-2v-5.1c0-1.9-0.9-3.8-2.5-4.9c-1.1-0.9-2.3-1.5-3.7-1.8c2-1.8,3.2-4.4,3.2-7.1v-1.7
		c0.7-0.3,1.2-1,1.2-1.8v-5.6c0-0.3-0.1-0.6-0.2-0.9c-0.4-2.4-1.5-4.6-3.2-6.3c-1.2-1.2-2.7-2.2-4.3-2.7c-1.2-0.4-2.5-0.7-3.8-0.6
		L632.9,212.3z"/>
	<polygon class="st1" points="623,227 623,231.3 630.9,231.3 632.8,231.3 634.7,231.3 642.5,231.3 642.5,227 	"/>
	<path class="st21" d="M624.4,227c0,1.9,0.1,2.7,0.1,4.6c0.1,4.5,3.8,8.2,8.3,8.2c4.5,0.2,8.2-3.3,8.4-7.8c0,0,0,0,0,0v-5.3"/>
	<path class="st21" d="M623.3,223.8c0-5.3,4.3-9.5,9.6-9.5c1.1,0,2.1,0.2,3.2,0.6c1.3,0.5,2.5,1.2,3.5,2.3c1.8,1.8,2.8,4.2,2.8,6.7"
		/>
	<rect x="623.2" y="223.4" class="st4" width="19.1" height="3.5"/>
	<line class="st4" x1="631.7" y1="234.9" x2="635.2" y2="234.9"/>
	<path class="st2" d="M629.3,227.8c-0.5,0.5-0.6,1.3-0.1,1.9c0.5,0.6,1.3,0.6,1.9,0.2c0.3-0.2,0.4-0.6,0.5-0.9l0,0L629.3,227.8z"/>
	<path class="st2" d="M638.4,227.9l-2.1,1.3c0.1,0.2,0.2,0.4,0.3,0.6c0.5,0.5,1.4,0.5,1.9,0c0.3-0.3,0.4-0.6,0.4-1
		C638.8,228.5,638.7,228.1,638.4,227.9z"/>
	<g class="st0">
		<path class="st1" d="M32.5,194.7h-1.3l-0.2-1.2c-0.2-0.2-0.4-0.3-0.6-0.4c-0.3-0.1-0.6-0.1-0.9-0.1c-0.8,0-1.3,0.3-1.7,0.8
			s-0.6,1.3-0.6,2.2v0.3c0,0.9,0.2,1.6,0.6,2.2s1,0.8,1.7,0.8c0.3,0,0.7,0,0.9-0.1c0.3-0.1,0.5-0.2,0.7-0.4l0.2-1.2h1.3v1.7
			c-0.4,0.4-0.8,0.7-1.3,1s-1.2,0.4-1.8,0.4c-1.2,0-2.1-0.4-2.9-1.2s-1.1-1.8-1.1-3.1v-0.3c0-1.3,0.4-2.3,1.1-3.1
			c0.7-0.8,1.7-1.2,2.9-1.2c0.7,0,1.3,0.1,1.8,0.4c0.5,0.2,1,0.6,1.3,1V194.7z"/>
		<path class="st1" d="M33.2,192.2v-1.1h2.7v8.1l0.8,0.2v1h-3.4v-1l0.8-0.2v-6.9L33.2,192.2z"/>
		<path class="st1" d="M37.2,199.4l0.8-0.2v-4l-0.9-0.2V194h2.7v5.2l0.8,0.2v1h-3.4V199.4z M39.8,192.4h-1.7v-1.3h1.7V192.4z"/>
		<path class="st1" d="M44.3,200.6c-0.9,0-1.7-0.3-2.2-0.9c-0.6-0.6-0.8-1.4-0.8-2.3v-0.2c0-1,0.3-1.8,0.8-2.4
			c0.5-0.6,1.2-0.9,2.1-0.9c0.9,0,1.5,0.3,2,0.8c0.5,0.5,0.7,1.2,0.7,2.1v1h-3.9l0,0c0,0.4,0.2,0.8,0.4,1.1c0.3,0.3,0.6,0.4,1,0.4
			c0.4,0,0.7,0,1-0.1c0.3-0.1,0.5-0.2,0.8-0.4l0.5,1.1c-0.3,0.2-0.6,0.4-1,0.5S44.9,200.6,44.3,200.6z M44.2,195.2
			c-0.3,0-0.6,0.1-0.8,0.4c-0.2,0.2-0.3,0.6-0.3,1l0,0h2.1v-0.2c0-0.4-0.1-0.7-0.3-0.9C44.8,195.3,44.5,195.2,44.2,195.2z"/>
		<path class="st1" d="M47.7,199.4l0.8-0.2v-4l-0.9-0.2V194h2.6l0.1,0.9c0.2-0.3,0.5-0.6,0.8-0.8c0.3-0.2,0.7-0.3,1.1-0.3
			c0.7,0,1.2,0.2,1.5,0.6s0.5,1.1,0.5,1.9v2.8l0.8,0.2v1h-3.3v-1l0.7-0.2v-2.8c0-0.4-0.1-0.7-0.3-0.9c-0.2-0.2-0.4-0.3-0.8-0.3
			c-0.2,0-0.4,0-0.6,0.1c-0.2,0.1-0.3,0.2-0.5,0.4v3.5l0.7,0.2v1h-3.3V199.4z"/>
		<path class="st1" d="M58.1,192.4v1.6h1.1v1.2h-1.1v3.3c0,0.3,0.1,0.4,0.2,0.5s0.2,0.2,0.4,0.2c0.1,0,0.2,0,0.3,0
			c0.1,0,0.2,0,0.3-0.1l0.1,1.3c-0.2,0.1-0.4,0.1-0.6,0.1c-0.2,0-0.4,0-0.6,0c-0.6,0-1.1-0.2-1.4-0.5c-0.3-0.3-0.5-0.9-0.5-1.6v-3.3
			h-1V194h1v-1.6H58.1z"/>
		<path class="st1" d="M63.1,199.4l1.5-0.2v-5.9h-1.5v-1l3.2-0.6v7.5l1.5,0.2v1h-4.7V199.4z"/>
	</g>
	<path class="st1" d="M49.4,159.1c0.4,0,0.7,0.3,0.7,0.7c0,0.4-0.3,0.7-0.7,0.7c-0.4,0-0.7-0.3-0.7-0.7
		C48.7,159.4,49,159.1,49.4,159.1z"/>
	<circle class="st1" cx="43.7" cy="159.8" r="0.7"/>
	<path class="st21" d="M50.8,168.7v2.2h0.9c0.3,0,0.6,0,0.9,0.1c1,0.1,2,0.6,2.8,1.2c1,0.7,1.6,1.8,1.6,3v4.6H36.2v-4.6
		c0-1.2,0.6-2.3,1.6-3c0.8-0.7,1.8-1.1,2.8-1.2c0.3-0.1,0.6-0.1,0.9-0.1h0.9v-2.2"/>
	<path class="st4" d="M39,157.7c0,1.8,0.1,2.6,0.1,4.4c-0.1,4.2,3.3,7.7,7.5,7.8c4.1,0,7.5-3.3,7.5-7.4c0,0,0,0,0-0.1v-5"/>
	<path class="st4" d="M39,157.6l0.6-4.6c1.4-0.4,8.2,3.6,11.2-1.4c0,0-0.8,2.5,3.3,5.4v0.6"/>
	<path class="st4" d="M56.3,160c0,1.2-1,2.1-2.2,2.2v-4.3C55.3,157.9,56.2,158.8,56.3,160z"/>
	<path class="st4" d="M36.8,159.4v0.7c0.2,1.1,1.1,1.8,2.2,1.9v-4.3C38,157.7,37.1,158.4,36.8,159.4z"/>
	<path class="st4" d="M44.5,164.5c0.5,0.7,1.3,1.1,2.1,1.1c0.8,0,1.6-0.4,2.1-1.1"/>
	<path class="st4" d="M36.8,158.5v-5.4c0-3.8,4.3-8.4,9.7-8.4s9.7,4.5,9.7,8.4v5.5"/>
	<path class="st1" d="M46.6,144.7c5.4,0,9.7,4.5,9.7,8.4v5.5h-0.4c0.3,0.4,0.4,0.8,0.4,1.2c0,1.2-1,2.2-2.2,2.2v0.5
		c0,2.5-1.3,4.9-3.4,6.3h0.1v2.2h0.9c0.3,0,0.6,0,0.9,0.1c1,0.1,2,0.6,2.8,1.2c1,0.7,1.6,1.8,1.6,3v4.6H36.2v-4.6
		c0-1.2,0.6-2.3,1.6-3c0.8-0.7,1.8-1.1,2.8-1.3c0.3-0.1,0.6-0.1,0.9-0.1h0.9v-2.2h0.3c-2.2-1.5-3.5-4-3.5-6.6c0-0.2,0-0.5,0-0.7
		c0,0.2-0.1,0.4-0.1,0.6c-1.1,0-2-0.8-2.2-1.8v-0.7c0-0.4,0.2-0.7,0.4-1h-0.4v-5.4C36.8,149.2,41.2,144.7,46.6,144.7 M46.5,142.7
		c-6.6,0-11.7,5.6-11.7,10.4v5.4c0,0.2,0,0.3,0,0.5c0,0.1,0,0.1,0,0.2c0,0.1,0,0.2,0,0.3v0.7c0,0.1,0,0.2,0,0.3
		c0.2,1.4,1.1,2.5,2.3,3.1c0.3,2.1,1.3,4,2.8,5.5c-1.2,0.2-2.4,0.8-3.4,1.6c-1.5,1.1-2.3,2.8-2.3,4.6v4.6c0,1.1,0.9,2,2,2h20.6
		c1.1,0,2-0.9,2-2v-4.6c0-1.8-0.9-3.5-2.3-4.6c-0.9-0.7-2-1.3-3.2-1.5c1.5-1.5,2.5-3.5,2.7-5.7c1.6-0.8,2.5-2.6,2.2-4.4
		c0-0.2,0.1-0.3,0.1-0.5v-5.5C58.3,148.3,53.2,142.7,46.5,142.7L46.5,142.7z"/>
	<g class="st0">
		<path class="st1" d="M617,180.6h-1.3l-0.2-1.2c-0.2-0.2-0.4-0.3-0.6-0.4s-0.6-0.1-0.9-0.1c-0.8,0-1.3,0.3-1.7,0.8
			s-0.6,1.3-0.6,2.2v0.3c0,0.9,0.2,1.6,0.6,2.2s1,0.8,1.7,0.8c0.3,0,0.7,0,0.9-0.1c0.3-0.1,0.5-0.2,0.7-0.4l0.2-1.2h1.3v1.7
			c-0.4,0.4-0.8,0.7-1.3,1s-1.2,0.4-1.8,0.4c-1.2,0-2.1-0.4-2.9-1.2s-1.1-1.8-1.1-3.1v-0.3c0-1.3,0.4-2.3,1.1-3.1
			c0.7-0.8,1.7-1.2,2.9-1.2c0.7,0,1.3,0.1,1.8,0.4c0.5,0.2,1,0.6,1.3,1V180.6z"/>
		<path class="st1" d="M617.6,178.1V177h2.7v8.1l0.8,0.2v1h-3.4v-1l0.8-0.2v-6.9L617.6,178.1z"/>
		<path class="st1" d="M621.6,185.3l0.8-0.2v-4l-0.9-0.2v-1.1h2.7v5.2l0.8,0.2v1h-3.4V185.3z M624.2,178.3h-1.7V177h1.7V178.3z"/>
		<path class="st1" d="M628.7,186.5c-0.9,0-1.7-0.3-2.2-0.9c-0.6-0.6-0.8-1.4-0.8-2.3v-0.2c0-1,0.3-1.8,0.8-2.4
			c0.5-0.6,1.2-0.9,2.1-0.9c0.9,0,1.5,0.3,2,0.8c0.5,0.5,0.7,1.2,0.7,2.1v1h-3.9l0,0c0,0.4,0.2,0.8,0.4,1.1c0.3,0.3,0.6,0.4,1,0.4
			c0.4,0,0.7,0,1-0.1c0.3-0.1,0.5-0.2,0.8-0.4l0.5,1.1c-0.3,0.2-0.6,0.4-1,0.5C629.7,186.4,629.3,186.5,628.7,186.5z M628.6,181.1
			c-0.3,0-0.6,0.1-0.8,0.4s-0.3,0.6-0.3,1l0,0h2.1v-0.2c0-0.4-0.1-0.7-0.3-0.9C629.2,181.2,628.9,181.1,628.6,181.1z"/>
		<path class="st1" d="M632.1,185.3l0.8-0.2v-4l-0.9-0.2v-1.1h2.6l0.1,0.9c0.2-0.3,0.5-0.6,0.8-0.8c0.3-0.2,0.7-0.3,1.1-0.3
			c0.7,0,1.2,0.2,1.5,0.6c0.4,0.4,0.5,1.1,0.5,1.9v2.8l0.8,0.2v1H636v-1l0.7-0.2v-2.8c0-0.4-0.1-0.7-0.3-0.9
			c-0.2-0.2-0.4-0.3-0.8-0.3c-0.2,0-0.4,0-0.6,0.1s-0.3,0.2-0.5,0.4v3.5l0.7,0.2v1h-3.3V185.3z"/>
		<path class="st1" d="M642.5,178.3v1.6h1.1v1.2h-1.1v3.3c0,0.3,0.1,0.4,0.2,0.5s0.2,0.2,0.4,0.2c0.1,0,0.2,0,0.3,0
			c0.1,0,0.2,0,0.3-0.1l0.1,1.3c-0.2,0.1-0.4,0.1-0.6,0.1c-0.2,0-0.4,0-0.6,0c-0.6,0-1.1-0.2-1.4-0.5c-0.3-0.3-0.5-0.9-0.5-1.6v-3.3
			h-1v-1.2h1v-1.6H642.5z"/>
		<path class="st1" d="M647.6,186.3v-1.1l2.8-3c0.4-0.5,0.7-0.9,0.9-1.2c0.2-0.3,0.3-0.6,0.3-0.9c0-0.4-0.1-0.7-0.3-0.9
			c-0.2-0.2-0.5-0.3-0.8-0.3c-0.4,0-0.7,0.1-0.9,0.4s-0.3,0.6-0.3,1.1h-1.7l0,0c0-0.8,0.2-1.4,0.8-2c0.5-0.5,1.3-0.8,2.2-0.8
			c0.9,0,1.6,0.2,2.1,0.7c0.5,0.5,0.8,1.1,0.8,1.9c0,0.5-0.1,1-0.4,1.5c-0.3,0.4-0.8,1-1.4,1.7l-1.5,1.7l0,0h2.3l0.1-0.9h1.3v2.2
			H647.6z"/>
	</g>
	<path class="st22" d="M631.6,130.6c5.4,0,9.7,4.5,9.7,8.4v5.5h-0.4c0.3,0.4,0.4,0.8,0.4,1.2c0,1.2-1,2.1-2.2,2.2v0.5
		c0,2.5-1.3,4.9-3.4,6.3h0.1v2.2h0.9c0.3,0,0.6,0,0.9,0.1c1,0.1,2,0.6,2.8,1.2c1,0.7,1.6,1.8,1.6,3v4.6h-20.7v-4.6
		c0-1.2,0.6-2.3,1.6-3c0.8-0.7,1.8-1.1,2.8-1.2c0.3-0.1,0.6-0.1,0.9-0.1h0.9v-2.2h0.3c-2.2-1.5-3.5-4-3.5-6.6c0-0.2,0-0.5,0-0.7
		c0,0.2,0,0.4,0,0.6c-1.1,0-2-0.8-2.2-1.8v-0.7c0-0.4,0.2-0.7,0.4-1H622V139C622,135.2,626.3,130.6,631.6,130.6 M631.7,128.6
		c-6.6,0-11.7,5.6-11.7,10.4v5.4c0,0.2,0,0.3,0.1,0.5c0,0.1,0,0.1,0,0.2c0,0.1,0,0.2,0,0.3v0.7c0,0.1,0,0.2,0,0.3
		c0.2,1.4,1.1,2.5,2.3,3.1c0.3,2.1,1.2,4,2.6,5.5c-1.2,0.2-2.4,0.8-3.4,1.6c-1.5,1.1-2.3,2.8-2.3,4.6v4.6c0,1.1,0.9,2,2,2H642
		c1.1,0,2-0.9,2-2v-4.6c0-1.8-0.9-3.5-2.3-4.6c-0.9-0.8-2-1.3-3.2-1.5c1.5-1.5,2.5-3.5,2.7-5.7c1.3-0.7,2.2-2.1,2.2-3.7
		c0-0.2,0-0.5-0.1-0.7c0-0.2,0.1-0.3,0.1-0.5V139C643.4,134.2,638.3,128.6,631.7,128.6L631.7,128.6z"/>
	<path class="st1" d="M634.5,145c0.4,0,0.7,0.3,0.7,0.7c0,0.4-0.3,0.7-0.7,0.7c-0.4,0-0.7-0.3-0.7-0.7S634.1,145,634.5,145
		L634.5,145z"/>
	<circle class="st1" cx="628.8" cy="145.7" r="0.7"/>
	<path class="st21" d="M635.8,154.6v2.2h0.9c0.3,0,0.6,0,0.9,0.1c1,0.1,2,0.6,2.8,1.2c1,0.7,1.6,1.8,1.6,3v4.6h-20.7v-4.6
		c0-1.2,0.6-2.3,1.6-3c0.8-0.7,1.8-1.1,2.8-1.2c0.3-0.1,0.6-0.1,0.9-0.1h0.9v-2.2"/>
	<path class="st4" d="M624.1,143.6c0,1.8,0.1,2.6,0.1,4.4c-0.1,4.2,3.3,7.7,7.5,7.8c4.1,0,7.5-3.3,7.5-7.4c0,0,0,0,0-0.1v-5"/>
	<path class="st4" d="M624.1,143.5l0.6-4.6c1.4-0.4,8.2,3.6,11.2-1.4c0,0-0.8,2.5,3.3,5.4v0.6"/>
	<path class="st4" d="M641.3,145.9c0,1.2-1,2.1-2.2,2.2v-4.3C640.4,143.7,641.3,144.7,641.3,145.9z"/>
	<path class="st4" d="M621.9,145.3v0.7c0.2,1,1.1,1.8,2.2,1.8v-4.3C623,143.5,622.1,144.3,621.9,145.3z"/>
	<path class="st4" d="M629.6,150.4c0.5,0.7,1.3,1.1,2.1,1.1c0.8,0,1.6-0.4,2.1-1.1"/>
	<path class="st4" d="M621.9,144.4V139c0-3.8,4.3-8.4,9.7-8.4s9.7,4.5,9.7,8.4v5.5"/>
</g>
</svg>
