<?xml version="1.0" encoding="utf-8"?>
<!-- Generator: Adobe Illustrator 24.0.0, SVG Export Plug-In . SVG Version: 6.00 Build 0)  -->
<svg version="1.1" id="Ebene_1" xmlns="http://www.w3.org/2000/svg" xmlns:xlink="http://www.w3.org/1999/xlink" x="0px" y="0px"
	 viewBox="0 0 717.7 118.7" style="enable-background:new 0 0 717.7 118.7;" xml:space="preserve">
<style type="text/css">
	.st0{enable-background:new    ;}
	.st1{fill:#330066;}
	.st2{fill:none;stroke:#CC3300;stroke-width:2;stroke-miterlimit:10;stroke-dasharray:2,2;}
	.st3{fill:#CC3300;}
	.st4{fill:#FFFFFF;stroke:#CC3300;stroke-width:2;stroke-miterlimit:10;}
	.st5{fill:none;stroke:#CC3300;stroke-width:2;stroke-miterlimit:10;}
	.st6{fill:#FFFFFF;}
	.st7{fill:none;stroke:#330066;stroke-linejoin:round;}
	.st8{fill:none;stroke:#330066;stroke-linecap:round;stroke-linejoin:round;}
	.st9{fill:url(#SVGID_1_);stroke:#FFCC00;stroke-width:2;stroke-miterlimit:10;}
	.st10{fill:#FFCC00;}
	.st11{fill:none;stroke:#330066;stroke-width:2;stroke-miterlimit:10;}
</style>
<title>DApp-overview</title>
<g id="Ebene_2_1_">
	<g class="st0">
		<path class="st1" d="M567.3,89.4l0.7-0.1l2.8-8h1.9l2.8,8l0.7,0.1v1.1H573v-1.1l0.6-0.1l-0.4-1.3h-3l-0.4,1.3l0.6,0.1v1.1h-3.1
			V89.4z M570.7,86.6h2.1l-1-3.3h0L570.7,86.6z"/>
	</g>
	<g class="st0">
		<path class="st1" d="M578.8,81.9v1.7h1.2v1.3h-1.2v3.5c0,0.3,0.1,0.5,0.2,0.6c0.1,0.1,0.3,0.2,0.4,0.2c0.1,0,0.2,0,0.3,0
			c0.1,0,0.2,0,0.3-0.1l0.2,1.3c-0.2,0.1-0.4,0.1-0.6,0.1c-0.2,0-0.4,0-0.7,0c-0.6,0-1.1-0.2-1.5-0.5s-0.5-0.9-0.5-1.7v-3.5h-1v-1.3
			h1v-1.7H578.8z"/>
		<path class="st1" d="M583.6,81.9v1.7h1.2v1.3h-1.2v3.5c0,0.3,0.1,0.5,0.2,0.6c0.1,0.1,0.3,0.2,0.4,0.2c0.1,0,0.2,0,0.3,0
			c0.1,0,0.2,0,0.3-0.1l0.2,1.3c-0.2,0.1-0.4,0.1-0.6,0.1c-0.2,0-0.4,0-0.7,0c-0.6,0-1.1-0.2-1.5-0.5s-0.5-0.9-0.5-1.7v-3.5h-1v-1.3
			h1v-1.7H583.6z"/>
		<path class="st1" d="M590.1,90.5c-0.1-0.1-0.1-0.2-0.1-0.4c0-0.1-0.1-0.2-0.1-0.4c-0.2,0.3-0.5,0.5-0.8,0.6s-0.7,0.2-1.1,0.2
			c-0.7,0-1.2-0.2-1.6-0.5c-0.4-0.4-0.6-0.9-0.6-1.5c0-0.6,0.3-1.1,0.8-1.5c0.5-0.4,1.3-0.5,2.3-0.5h0.9v-0.7c0-0.3-0.1-0.6-0.3-0.8
			s-0.5-0.3-0.8-0.3c-0.2,0-0.4,0-0.6,0.1s-0.3,0.1-0.4,0.2l-0.1,0.7h-1.4l0-1.5c0.3-0.2,0.7-0.4,1.2-0.6c0.4-0.2,0.9-0.2,1.4-0.2
			c0.9,0,1.5,0.2,2.1,0.6s0.8,1,0.8,1.8v2.8c0,0.1,0,0.2,0,0.3c0,0.1,0,0.2,0,0.3l0.6,0.1v1.1H590.1z M588.5,89.2
			c0.3,0,0.5-0.1,0.8-0.2c0.2-0.1,0.4-0.3,0.5-0.5v-1h-0.9c-0.4,0-0.7,0.1-0.9,0.3c-0.2,0.2-0.3,0.4-0.3,0.7c0,0.2,0.1,0.4,0.2,0.5
			S588.3,89.2,588.5,89.2z"/>
		<path class="st1" d="M596.1,89.2c0.3,0,0.6-0.1,0.8-0.3c0.2-0.2,0.3-0.5,0.3-0.8h1.7l0,0c0,0.7-0.2,1.3-0.8,1.7
			c-0.5,0.5-1.2,0.7-2,0.7c-1,0-1.8-0.3-2.4-1c-0.6-0.6-0.8-1.5-0.8-2.5V87c0-1,0.3-1.8,0.9-2.5s1.4-1,2.4-1c0.6,0,1.1,0.1,1.5,0.2
			c0.4,0.2,0.8,0.4,1.1,0.7l0,1.8h-1.5l-0.3-1.1c-0.1-0.1-0.2-0.1-0.3-0.2c-0.1-0.1-0.3-0.1-0.5-0.1c-0.5,0-0.9,0.2-1.1,0.6
			s-0.3,0.9-0.3,1.5v0.2c0,0.6,0.1,1.1,0.3,1.5C595.3,89,595.6,89.2,596.1,89.2z"/>
	</g>
	<g class="st0">
		<path class="st1" d="M599.5,81.7v-1.1h2.8v5.7h0.4l1.1-1.5l-0.6-0.1v-1.1h3.4v1.1l-0.8,0.2l-1.2,1.7l1.7,2.6l0.7,0.1v1.1h-3.2
			v-1.1l0.4-0.1l-1.1-1.7h-0.8v1.6l0.8,0.2v1.1h-3.5v-1.1l0.9-0.2v-7.3L599.5,81.7z"/>
	</g>
	<g class="st0">
		<path class="st1" d="M610.8,90.6c-1,0-1.8-0.3-2.4-1c-0.6-0.6-0.9-1.4-0.9-2.4V87c0-1,0.3-1.9,0.8-2.5s1.3-1,2.3-1
			c0.9,0,1.6,0.3,2.2,0.8c0.5,0.6,0.8,1.3,0.8,2.3v1h-4.1l0,0c0,0.5,0.2,0.8,0.5,1.1s0.6,0.4,1.1,0.4c0.4,0,0.8,0,1-0.1
			c0.3-0.1,0.6-0.2,0.9-0.4l0.5,1.1c-0.3,0.2-0.7,0.4-1.1,0.6C611.9,90.5,611.4,90.6,610.8,90.6z M610.7,84.9
			c-0.3,0-0.6,0.1-0.8,0.4c-0.2,0.3-0.3,0.6-0.4,1l0,0h2.3v-0.2c0-0.4-0.1-0.7-0.3-0.9C611.3,85,611,84.9,610.7,84.9z"/>
		<path class="st1" d="M614.6,89.4l0.9-0.2v-4.3l-1-0.2v-1.1h2.7l0.1,1c0.2-0.4,0.4-0.6,0.6-0.8c0.3-0.2,0.5-0.3,0.9-0.3
			c0.1,0,0.2,0,0.3,0c0.1,0,0.2,0,0.3,0.1l-0.2,1.7l-0.8,0c-0.3,0-0.5,0.1-0.7,0.2s-0.3,0.3-0.4,0.5v3.3l0.9,0.2v1.1h-3.6V89.4z"/>
	</g>
	<g class="st0">
		<path class="st1" d="M518.7,102.3c0-1.7,0.3-3.1,1-4.3s1.4-2,2.1-2.4l0,0l0.2,0.7c-0.6,0.5-1.1,1.2-1.5,2.2
			c-0.4,1-0.6,2.2-0.6,3.7v0.1c0,1.5,0.2,2.7,0.6,3.7c0.4,1,0.9,1.7,1.5,2.2l-0.2,0.7h0c-0.7-0.4-1.4-1.2-2.1-2.4
			S518.7,104.1,518.7,102.3L518.7,102.3z"/>
		<path class="st1" d="M522.4,105.3l1-0.2v-4.9l-1-0.2v-0.8h2.2l0.1,0.9c0.2-0.3,0.5-0.6,0.9-0.8c0.3-0.2,0.7-0.3,1.2-0.3
			s0.8,0.1,1.2,0.3c0.3,0.2,0.6,0.5,0.7,1c0.2-0.4,0.5-0.7,0.9-0.9s0.8-0.3,1.2-0.3c0.7,0,1.3,0.2,1.7,0.7s0.6,1.2,0.6,2.2v3.1
			l1,0.2v0.8h-3.3v-0.8l1-0.2V102c0-0.7-0.1-1.2-0.3-1.4c-0.2-0.3-0.6-0.4-1-0.4c-0.4,0-0.8,0.2-1.1,0.5c-0.3,0.3-0.4,0.7-0.5,1.2
			v3.4l1,0.2v0.8h-3.3v-0.8l1-0.2V102c0-0.6-0.1-1.1-0.4-1.4c-0.2-0.3-0.6-0.4-1-0.4c-0.4,0-0.7,0.1-0.9,0.2
			c-0.2,0.2-0.4,0.4-0.6,0.7v4.1l1,0.2v0.8h-3.3V105.3z"/>
		<path class="st1" d="M535,105.3l1-0.2v-4.9l-1-0.2v-0.8h2.3v5.9l1,0.2v0.8H535V105.3z M537.3,97.5H536v-1.3h1.3V97.5z"/>
		<path class="st1" d="M539.3,102.8c0-1.1,0.2-2,0.7-2.7s1.1-1,2-1c0.4,0,0.8,0.1,1.1,0.3c0.3,0.2,0.6,0.4,0.8,0.7l0.1-0.9h1.1v6.8
			c0,0.9-0.2,1.6-0.7,2.1s-1.2,0.8-2.1,0.8c-0.3,0-0.7,0-1.1-0.1c-0.4-0.1-0.7-0.2-1-0.4l0.3-1c0.2,0.1,0.5,0.2,0.8,0.3
			s0.6,0.1,0.9,0.1c0.6,0,1-0.2,1.2-0.5c0.3-0.3,0.4-0.8,0.4-1.3v-0.7c-0.2,0.3-0.5,0.5-0.8,0.7c-0.3,0.1-0.7,0.2-1.1,0.2
			c-0.8,0-1.5-0.3-2-0.9s-0.7-1.4-0.7-2.4V102.8z M540.5,102.9c0,0.7,0.1,1.2,0.4,1.7s0.7,0.6,1.3,0.6c0.4,0,0.7-0.1,0.9-0.3
			c0.3-0.2,0.5-0.4,0.6-0.7v-3.2c-0.2-0.3-0.4-0.5-0.6-0.7c-0.3-0.2-0.6-0.3-0.9-0.3c-0.6,0-1,0.3-1.3,0.7c-0.3,0.5-0.4,1.1-0.4,1.9
			V102.9z"/>
		<path class="st1" d="M546.4,105.3l1-0.2v-7.9l-1-0.2v-0.8h2.3v3.9c0.2-0.3,0.5-0.6,0.9-0.8c0.3-0.2,0.7-0.3,1.1-0.3
			c0.7,0,1.3,0.2,1.7,0.7s0.6,1.1,0.6,2v3.3l1,0.2v0.8h-3.3v-0.8l1-0.2v-3.3c0-0.6-0.1-1-0.4-1.3s-0.6-0.4-1.1-0.4
			c-0.3,0-0.7,0.1-0.9,0.2c-0.3,0.2-0.5,0.4-0.7,0.7v4.1l1,0.2v0.8h-3.3V105.3z"/>
		<path class="st1" d="M557.2,97.6v1.7h1.3v0.9h-1.3v4.2c0,0.3,0.1,0.5,0.2,0.7c0.1,0.1,0.3,0.2,0.5,0.2c0.1,0,0.2,0,0.4,0
			c0.1,0,0.3,0,0.3-0.1l0.2,0.9c-0.1,0.1-0.3,0.1-0.5,0.2s-0.5,0.1-0.7,0.1c-0.5,0-0.9-0.2-1.2-0.5c-0.3-0.3-0.5-0.8-0.5-1.4v-4.2
			h-1.1v-0.9h1.1v-1.7H557.2z"/>
		<path class="st1" d="M562.8,105.3l1-0.2v-7.9l-1-0.2v-0.8h2.3v3.9c0.2-0.3,0.5-0.6,0.9-0.8c0.3-0.2,0.7-0.3,1.1-0.3
			c0.7,0,1.3,0.2,1.7,0.7s0.6,1.1,0.6,2v3.3l1,0.2v0.8h-3.3v-0.8l1-0.2v-3.3c0-0.6-0.1-1-0.4-1.3c-0.2-0.3-0.6-0.4-1.1-0.4
			c-0.3,0-0.7,0.1-0.9,0.2s-0.5,0.4-0.7,0.7v4.1l1,0.2v0.8h-3.3V105.3z"/>
	</g>
	<g class="st0">
		<path class="st1" d="M575.9,106.1c0-0.2-0.1-0.4-0.1-0.5c0-0.1,0-0.3,0-0.4c-0.2,0.3-0.5,0.6-0.9,0.8c-0.4,0.2-0.7,0.3-1.2,0.3
			c-0.7,0-1.3-0.2-1.6-0.5c-0.4-0.3-0.6-0.8-0.6-1.5c0-0.7,0.3-1.2,0.8-1.5c0.5-0.4,1.2-0.5,2.2-0.5h1.3v-0.8c0-0.4-0.1-0.7-0.4-1
			c-0.3-0.2-0.6-0.4-1.1-0.4c-0.3,0-0.6,0-0.8,0.1c-0.2,0.1-0.4,0.2-0.6,0.3l-0.1,0.7h-1v-1.3c0.3-0.3,0.7-0.4,1.1-0.6
			s0.9-0.2,1.4-0.2c0.8,0,1.4,0.2,1.9,0.6s0.7,1,0.7,1.7v3.3c0,0.1,0,0.2,0,0.3c0,0.1,0,0.2,0,0.3l0.5,0.1v0.8H575.9z M573.9,105.2
			c0.4,0,0.8-0.1,1.1-0.3c0.3-0.2,0.6-0.4,0.7-0.7V103h-1.3c-0.5,0-0.9,0.1-1.2,0.4c-0.3,0.2-0.4,0.5-0.4,0.9c0,0.3,0.1,0.5,0.3,0.7
			C573.2,105.1,573.5,105.2,573.9,105.2z"/>
	</g>
	<g class="st0">
		<path class="st1" d="M580.8,100l-0.8,0.1l1.4,3.9l0.1,0.5h0l0.1-0.5l1.4-3.9l-0.8-0.1v-0.8h2.7v0.8l-0.6,0.1l-2.3,6H581l-2.3-6
			l-0.6-0.1v-0.8h2.7V100z"/>
	</g>
	<g class="st0">
		<path class="st1" d="M588.8,106.2c-1,0-1.7-0.3-2.3-1c-0.6-0.6-0.8-1.5-0.8-2.5v-0.3c0-1,0.3-1.8,0.9-2.4s1.3-1,2.1-1
			c0.9,0,1.6,0.3,2.1,0.8c0.5,0.6,0.7,1.3,0.7,2.2v0.8h-4.5l0,0c0,0.7,0.2,1.2,0.5,1.6c0.3,0.4,0.8,0.6,1.4,0.6
			c0.4,0,0.8-0.1,1.1-0.2c0.3-0.1,0.6-0.3,0.8-0.5l0.5,0.8c-0.2,0.2-0.6,0.4-1,0.6C589.8,106.1,589.3,106.2,588.8,106.2z
			 M588.6,100.1c-0.4,0-0.8,0.2-1.1,0.5c-0.3,0.4-0.5,0.8-0.5,1.3l0,0h3.2v-0.2c0-0.5-0.1-0.9-0.4-1.2
			C589.5,100.2,589.1,100.1,588.6,100.1z"/>
	</g>
	<g class="st0">
		<path class="st1" d="M595.8,100v-0.8h2.2l0.1,1c0.2-0.4,0.4-0.6,0.7-0.8c0.3-0.2,0.6-0.3,1-0.3c0.1,0,0.2,0,0.3,0
			c0.1,0,0.2,0,0.2,0l-0.2,1.2l-0.7,0c-0.3,0-0.6,0.1-0.8,0.2s-0.4,0.4-0.5,0.7v3.9l1,0.2v0.8h-3.3v-0.8l1-0.2v-4.9L595.8,100z"/>
	</g>
	<g class="st0">
		<path class="st1" d="M601.1,102.6c0-1,0.3-1.9,0.8-2.5c0.6-0.7,1.3-1,2.2-1c0.9,0,1.7,0.3,2.3,1c0.6,0.7,0.8,1.5,0.8,2.5v0.1
			c0,1-0.3,1.9-0.8,2.5c-0.5,0.7-1.3,1-2.2,1c-1,0-1.7-0.3-2.3-1c-0.5-0.7-0.8-1.5-0.8-2.5V102.6z M602.3,102.7
			c0,0.7,0.2,1.3,0.5,1.8c0.3,0.5,0.8,0.7,1.4,0.7c0.6,0,1-0.2,1.4-0.7c0.3-0.5,0.5-1.1,0.5-1.8v-0.1c0-0.7-0.2-1.3-0.5-1.8
			c-0.3-0.5-0.8-0.7-1.4-0.7s-1.1,0.2-1.4,0.7s-0.5,1.1-0.5,1.8V102.7z"/>
		<path class="st1" d="M608.4,102.6c0-1,0.3-1.9,0.8-2.5s1.3-1,2.2-1c0.9,0,1.7,0.3,2.3,1c0.6,0.7,0.8,1.5,0.8,2.5v0.1
			c0,1-0.3,1.9-0.8,2.5c-0.5,0.7-1.3,1-2.2,1c-1,0-1.7-0.3-2.3-1c-0.5-0.7-0.8-1.5-0.8-2.5V102.6z M609.6,102.7
			c0,0.7,0.2,1.3,0.5,1.8c0.3,0.5,0.8,0.7,1.4,0.7c0.6,0,1-0.2,1.4-0.7c0.3-0.5,0.5-1.1,0.5-1.8v-0.1c0-0.7-0.2-1.3-0.5-1.8
			s-0.8-0.7-1.4-0.7c-0.6,0-1.1,0.2-1.4,0.7s-0.5,1.1-0.5,1.8V102.7z"/>
		<path class="st1" d="M617.9,97.6v1.7h1.3v0.9h-1.3v4.2c0,0.3,0.1,0.5,0.2,0.7c0.1,0.1,0.3,0.2,0.5,0.2c0.1,0,0.2,0,0.4,0
			c0.1,0,0.3,0,0.3-0.1l0.2,0.9c-0.1,0.1-0.3,0.1-0.5,0.2s-0.5,0.1-0.7,0.1c-0.5,0-0.9-0.2-1.2-0.5s-0.5-0.8-0.5-1.4v-4.2h-1.1v-0.9
			h1.1v-1.7H617.9z"/>
		<path class="st1" d="M628.1,106.1c0-0.2-0.1-0.4-0.1-0.5c0-0.1,0-0.3,0-0.4c-0.2,0.3-0.5,0.6-0.9,0.8c-0.4,0.2-0.7,0.3-1.2,0.3
			c-0.7,0-1.3-0.2-1.6-0.5c-0.4-0.3-0.6-0.8-0.6-1.5c0-0.7,0.3-1.2,0.8-1.5c0.5-0.4,1.3-0.5,2.2-0.5h1.3v-0.8c0-0.4-0.1-0.7-0.4-1
			c-0.3-0.2-0.6-0.4-1.1-0.4c-0.3,0-0.6,0-0.8,0.1c-0.2,0.1-0.4,0.2-0.6,0.3l-0.1,0.7h-1v-1.3c0.3-0.3,0.7-0.4,1.1-0.6
			s0.9-0.2,1.4-0.2c0.8,0,1.4,0.2,1.9,0.6s0.7,1,0.7,1.7v3.3c0,0.1,0,0.2,0,0.3c0,0.1,0,0.2,0,0.3l0.5,0.1v0.8H628.1z M626.1,105.2
			c0.4,0,0.8-0.1,1.1-0.3c0.3-0.2,0.6-0.4,0.7-0.7V103h-1.3c-0.5,0-0.9,0.1-1.2,0.4c-0.3,0.2-0.4,0.5-0.4,0.9c0,0.3,0.1,0.5,0.3,0.7
			C625.5,105.1,625.8,105.2,626.1,105.2z"/>
		<path class="st1" d="M633.9,105.2c0.4,0,0.8-0.1,1.1-0.4c0.3-0.3,0.5-0.6,0.5-0.9h1.1l0,0c0,0.6-0.2,1.1-0.8,1.6
			c-0.5,0.5-1.2,0.7-1.9,0.7c-1,0-1.8-0.3-2.3-1c-0.5-0.7-0.8-1.5-0.8-2.5v-0.3c0-1,0.3-1.8,0.8-2.4c0.5-0.7,1.3-1,2.3-1
			c0.6,0,1,0.1,1.5,0.3c0.4,0.2,0.8,0.4,1.1,0.8l0.1,1.5h-1l-0.3-1.1c-0.1-0.1-0.3-0.3-0.6-0.3c-0.2-0.1-0.5-0.1-0.8-0.1
			c-0.7,0-1.1,0.2-1.4,0.7c-0.3,0.5-0.4,1.1-0.4,1.7v0.3c0,0.7,0.1,1.3,0.4,1.8S633.2,105.2,633.9,105.2z"/>
		<path class="st1" d="M640.9,105.2c0.4,0,0.8-0.1,1.1-0.4c0.3-0.3,0.5-0.6,0.5-0.9h1.1l0,0c0,0.6-0.2,1.1-0.8,1.6
			c-0.5,0.5-1.2,0.7-1.9,0.7c-1,0-1.8-0.3-2.3-1c-0.5-0.7-0.8-1.5-0.8-2.5v-0.3c0-1,0.3-1.8,0.8-2.4c0.5-0.7,1.3-1,2.3-1
			c0.6,0,1,0.1,1.5,0.3c0.4,0.2,0.8,0.4,1.1,0.8l0.1,1.5h-1l-0.3-1.1c-0.1-0.1-0.3-0.3-0.6-0.3c-0.2-0.1-0.5-0.1-0.8-0.1
			c-0.7,0-1.1,0.2-1.4,0.7c-0.3,0.5-0.4,1.1-0.4,1.7v0.3c0,0.7,0.1,1.3,0.4,1.8S640.3,105.2,640.9,105.2z"/>
		<path class="st1" d="M648,106.2c-1,0-1.7-0.3-2.3-1c-0.6-0.6-0.8-1.5-0.8-2.5v-0.3c0-1,0.3-1.8,0.9-2.4s1.3-1,2.1-1
			c0.9,0,1.6,0.3,2.1,0.8c0.5,0.6,0.7,1.3,0.7,2.2v0.8h-4.5l0,0c0,0.7,0.2,1.2,0.5,1.6c0.3,0.4,0.8,0.6,1.4,0.6
			c0.4,0,0.8-0.1,1.1-0.2c0.3-0.1,0.6-0.3,0.8-0.5l0.5,0.8c-0.2,0.2-0.6,0.4-1,0.6S648.5,106.2,648,106.2z M647.8,100.1
			c-0.4,0-0.8,0.2-1.1,0.5s-0.5,0.8-0.5,1.3l0,0h3.2v-0.2c0-0.5-0.1-0.9-0.4-1.2C648.7,100.2,648.3,100.1,647.8,100.1z"/>
		<path class="st1" d="M657.1,101.4h-0.9l-0.2-0.8c-0.2-0.1-0.3-0.3-0.6-0.3s-0.5-0.1-0.8-0.1c-0.4,0-0.8,0.1-1,0.3
			c-0.2,0.2-0.3,0.4-0.3,0.7c0,0.3,0.1,0.5,0.3,0.6c0.2,0.2,0.6,0.3,1.2,0.4c0.9,0.2,1.5,0.4,1.9,0.8s0.6,0.7,0.6,1.3
			c0,0.6-0.2,1.1-0.7,1.5c-0.5,0.4-1.1,0.6-1.9,0.6c-0.5,0-1-0.1-1.4-0.2c-0.4-0.1-0.8-0.3-1.1-0.5l0-1.6h0.9l0.2,0.9
			c0.1,0.1,0.3,0.2,0.6,0.3c0.2,0.1,0.5,0.1,0.8,0.1c0.4,0,0.8-0.1,1-0.3c0.3-0.2,0.4-0.4,0.4-0.7c0-0.3-0.1-0.5-0.3-0.7
			s-0.6-0.3-1.2-0.5c-0.8-0.2-1.5-0.4-1.9-0.7c-0.4-0.3-0.6-0.7-0.6-1.3c0-0.6,0.2-1,0.7-1.4c0.5-0.4,1.1-0.6,1.9-0.6
			c0.5,0,1,0.1,1.4,0.2c0.4,0.1,0.8,0.3,1,0.6L657.1,101.4z"/>
		<path class="st1" d="M663.7,101.4h-0.9l-0.2-0.8c-0.2-0.1-0.3-0.3-0.6-0.3s-0.5-0.1-0.8-0.1c-0.4,0-0.8,0.1-1,0.3
			c-0.2,0.2-0.3,0.4-0.3,0.7c0,0.3,0.1,0.5,0.3,0.6c0.2,0.2,0.6,0.3,1.2,0.4c0.9,0.2,1.5,0.4,1.9,0.8s0.6,0.7,0.6,1.3
			c0,0.6-0.2,1.1-0.7,1.5c-0.5,0.4-1.1,0.6-1.9,0.6c-0.5,0-1-0.1-1.4-0.2c-0.4-0.1-0.8-0.3-1.1-0.5l0-1.6h0.9l0.2,0.9
			c0.1,0.1,0.3,0.2,0.6,0.3c0.2,0.1,0.5,0.1,0.8,0.1c0.4,0,0.8-0.1,1-0.3c0.3-0.2,0.4-0.4,0.4-0.7c0-0.3-0.1-0.5-0.3-0.7
			s-0.6-0.3-1.2-0.5c-0.8-0.2-1.5-0.4-1.9-0.7c-0.4-0.3-0.6-0.7-0.6-1.3c0-0.6,0.2-1,0.7-1.4c0.5-0.4,1.1-0.6,1.9-0.6
			c0.5,0,1,0.1,1.4,0.2c0.4,0.1,0.8,0.3,1,0.6L663.7,101.4z"/>
		<path class="st1" d="M668,102.4c0,1.7-0.3,3.1-1,4.3c-0.7,1.2-1.4,2-2.1,2.4h0l-0.2-0.7c0.6-0.4,1.1-1.2,1.5-2.2s0.6-2.3,0.6-3.7
			v-0.1c0-1.5-0.2-2.7-0.7-3.7c-0.4-1-0.9-1.8-1.5-2.2l0.2-0.7h0c0.7,0.4,1.4,1.2,2.1,2.4C667.7,99.2,668,100.7,668,102.4L668,102.4
			z"/>
	</g>
	<line class="st2" x1="519.2" y1="55.7" x2="567.6" y2="55.7"/>
	<polygon class="st3" points="525.9,63.9 527.2,62.5 520,55.7 527.2,49 525.9,47.6 517.1,55.7 	"/>
	<circle class="st4" cx="501.8" cy="55.7" r="7.8"/>
	<line class="st5" x1="507.3" y1="61.2" x2="496.4" y2="50.2"/>
	<path class="st6" d="M582.1,70.3c-0.6,0-1-0.4-1-1v-5.1c0-1.6,0.8-3.2,2.2-4.2c1-0.8,2.2-1.3,3.5-1.5c0.4-0.1,0.8-0.1,1.1-0.1v-1.1
		c-2.2-1.7-3.6-4.4-3.6-7.2c0-0.9,0-1.3,0-1.6c0-0.2,0-0.3,0-0.5H584c-0.6,0-1-0.4-1-1v-5.6c0-0.2,0.1-0.4,0.2-0.5
		c0.5-3.9,3.2-7.1,6.9-8.4c2.3-0.8,4.7-0.8,7,0c1.5,0.5,2.8,1.4,3.9,2.5c1.6,1.6,2.7,3.7,3,5.9c0.1,0.1,0.1,0.3,0.2,0.5V47
		c0,0.6-0.4,1-1,1H603v2.5c0,2.8-1.4,5.4-3.7,7v0.9c0.4,0,0.8,0,1.1,0.1c1.3,0.2,2.5,0.7,3.5,1.6c1.3,1,2.1,2.5,2.1,4.1v5.1
		c0,0.6-0.4,1-1,1L582.1,70.3z"/>
	<path class="st1" d="M593.6,32.9c1.1,0,2.2,0.2,3.2,0.5c1.3,0.5,2.5,1.2,3.5,2.3c1.6,1.5,2.5,3.5,2.8,5.7h0.1V47H602v3.5
		c0,2.7-1.4,5.1-3.7,6.5v2.4h1c0.3,0,0.7,0,1,0.1c1.1,0.2,2.2,0.6,3.1,1.3c1.1,0.8,1.7,2,1.8,3.3v5.1h-23v-5.1
		c0-1.3,0.7-2.6,1.8-3.3c0.9-0.7,2-1.2,3.1-1.3c0.3-0.1,0.7-0.1,1-0.1h1V57h0.2c-2.3-1.5-3.7-4.1-3.8-6.8c0-1.8-0.1-1.5-0.1-3.2H584
		v-5.6h0.1C584.6,36.6,588.7,32.9,593.6,32.9 M593.6,30.9c-1.3,0-2.6,0.2-3.9,0.7c-4,1.4-6.9,4.8-7.5,9c-0.1,0.3-0.2,0.6-0.2,0.9V47
		c0,0.8,0.5,1.5,1.3,1.8c0,0.3,0,0.7,0,1.3c0,2.8,1.2,5.5,3.3,7.4c-1.4,0.2-2.8,0.8-3.9,1.8c-1.6,1.1-2.5,3-2.5,4.9v5.1
		c0,1.1,0.9,2,2,2H605c1.1,0,2-0.9,2-2v-5.1c0-1.9-0.9-3.8-2.5-4.9c-1.1-0.9-2.4-1.5-3.8-1.7c2.1-1.8,3.2-4.4,3.3-7.1v-1.7
		c0.7-0.3,1.2-1,1.2-1.8v-5.6c0-0.3-0.1-0.6-0.2-0.9c-0.4-2.4-1.5-4.6-3.3-6.2c-1.2-1.2-2.7-2.2-4.3-2.7
		C596.2,31.1,594.9,30.9,593.6,30.9L593.6,30.9z"/>
	<polygon class="st1" points="583.8,45.5 583.8,49.9 591.7,49.9 593.6,49.9 595.5,49.9 603.3,49.9 603.3,45.5 	"/>
	<path class="st7" d="M585.2,45.5c0,1.9,0.1,2.7,0.1,4.6c0.1,4.5,3.8,8.2,8.3,8.2c4.5,0.2,8.2-3.3,8.4-7.7c0,0,0-0.1,0-0.1v-5.2"/>
	<path class="st7" d="M584.1,42.4c0-5.3,4.3-9.5,9.6-9.5c1.1,0,2.1,0.2,3.1,0.5c1.3,0.5,2.5,1.2,3.5,2.3c1.8,1.8,2.8,4.2,2.8,6.7"/>
	<rect x="584" y="42" class="st8" width="19.1" height="3.5"/>
	<line class="st8" x1="592.5" y1="53.4" x2="596" y2="53.4"/>
	<path class="st6" d="M590.1,46.4c-0.5,0.5-0.6,1.3-0.1,1.9c0.5,0.6,1.3,0.6,1.9,0.2c0.3-0.2,0.4-0.6,0.5-0.9l0,0L590.1,46.4z"/>
	<path class="st6" d="M599.2,46.4l-2.1,1.3c0.1,0.2,0.2,0.4,0.3,0.6c0.5,0.5,1.4,0.5,1.9,0c0.3-0.3,0.4-0.6,0.4-1
		C599.6,47,599.5,46.7,599.2,46.4z"/>
	<g class="st0">
		<path class="st1" d="M105.7,84.1h-1.3l-0.2-1.2c-0.2-0.2-0.4-0.3-0.6-0.4c-0.3-0.1-0.6-0.2-0.9-0.2c-0.8,0-1.3,0.3-1.7,0.8
			c-0.4,0.6-0.6,1.3-0.6,2.2v0.3c0,0.9,0.2,1.6,0.6,2.2c0.4,0.6,1,0.8,1.7,0.8c0.3,0,0.7,0,0.9-0.1c0.3-0.1,0.5-0.2,0.7-0.4l0.2-1.2
			h1.3v1.7c-0.4,0.4-0.8,0.7-1.3,1c-0.5,0.2-1.2,0.4-1.8,0.4c-1.2,0-2.1-0.4-2.9-1.2s-1.1-1.8-1.1-3.1v-0.3c0-1.3,0.4-2.3,1.1-3.1
			s1.7-1.2,2.9-1.2c0.7,0,1.3,0.1,1.8,0.4c0.5,0.2,1,0.6,1.3,1V84.1z"/>
		<path class="st1" d="M106.4,81.6v-1.1h2.7v8.1l0.8,0.2v1h-3.4v-1l0.8-0.2v-6.9L106.4,81.6z"/>
		<path class="st1" d="M110.4,88.9l0.8-0.2v-4l-0.9-0.2v-1.1h2.7v5.2l0.8,0.2v1h-3.4V88.9z M113,81.9h-1.7v-1.3h1.7V81.9z"/>
		<path class="st1" d="M117.5,90c-0.9,0-1.7-0.3-2.2-0.9c-0.6-0.6-0.8-1.4-0.8-2.3v-0.2c0-1,0.3-1.8,0.8-2.4
			c0.5-0.6,1.2-0.9,2.1-0.9c0.9,0,1.5,0.3,2,0.8c0.5,0.5,0.7,1.2,0.7,2.1v1h-3.9l0,0c0,0.4,0.2,0.8,0.4,1.1c0.3,0.3,0.6,0.4,1,0.4
			c0.4,0,0.7,0,1-0.1c0.3-0.1,0.5-0.2,0.8-0.4l0.5,1.1c-0.3,0.2-0.6,0.4-1,0.5C118.5,90,118,90,117.5,90z M117.3,84.7
			c-0.3,0-0.6,0.1-0.8,0.4c-0.2,0.2-0.3,0.6-0.3,1l0,0h2.1v-0.2c0-0.4-0.1-0.7-0.3-0.9C117.9,84.8,117.7,84.7,117.3,84.7z"/>
		<path class="st1" d="M120.8,88.9l0.8-0.2v-4l-0.9-0.2v-1.1h2.6l0.1,0.9c0.2-0.3,0.5-0.6,0.8-0.8s0.7-0.3,1.1-0.3
			c0.7,0,1.2,0.2,1.5,0.6s0.5,1.1,0.5,1.9v2.8l0.8,0.2v1h-3.3v-1l0.7-0.2v-2.8c0-0.4-0.1-0.7-0.3-0.9s-0.4-0.3-0.8-0.3
			c-0.2,0-0.4,0-0.6,0.1c-0.2,0.1-0.3,0.2-0.5,0.4v3.5l0.7,0.2v1h-3.3V88.9z"/>
		<path class="st1" d="M131.3,81.8v1.6h1.1v1.2h-1.1V88c0,0.3,0.1,0.4,0.2,0.5s0.2,0.2,0.4,0.2c0.1,0,0.2,0,0.3,0
			c0.1,0,0.2,0,0.3-0.1l0.1,1.3c-0.2,0.1-0.4,0.1-0.6,0.1c-0.2,0-0.4,0-0.6,0c-0.6,0-1.1-0.2-1.4-0.5c-0.3-0.3-0.5-0.9-0.5-1.6v-3.3
			h-1v-1.2h1v-1.6H131.3z"/>
	</g>
	<path class="st1" d="M118.4,48.5c0.4,0,0.7,0.3,0.7,0.7c0,0.4-0.3,0.7-0.7,0.7s-0.7-0.3-0.7-0.7C117.7,48.9,118,48.5,118.4,48.5z"
		/>
	<circle class="st1" cx="112.6" cy="49.3" r="0.7"/>
	<path class="st7" d="M119.7,58.2v2.2h0.9c0.3,0,0.6,0,0.9,0.1c1,0.1,2,0.6,2.8,1.2c1,0.7,1.6,1.8,1.6,3v4.6h-20.7v-4.6
		c0-1.2,0.6-2.3,1.6-3c0.8-0.7,1.8-1.1,2.8-1.2c0.3-0.1,0.6-0.1,0.9-0.1h0.9v-2.2"/>
	<path class="st8" d="M108,47.2c0,1.8,0.1,2.6,0.1,4.4c-0.1,4.2,3.3,7.7,7.5,7.8c4.1,0,7.5-3.3,7.5-7.4c0,0,0,0,0,0v-5"/>
	<path class="st8" d="M108,47.1l0.6-4.6c1.4-0.4,8.2,3.7,11.3-1.4c0,0-0.8,2.5,3.3,5.3v0.7"/>
	<path class="st8" d="M125.2,49.4c0,1.2-1,2.1-2.2,2.2v-4.3C124.2,47.3,125.2,48.2,125.2,49.4z"/>
	<path class="st8" d="M105.8,48.9v0.7c0.2,1.1,1.1,1.8,2.2,1.8v-4.3C106.9,47.1,106,47.8,105.8,48.9z"/>
	<path class="st8" d="M113.4,53.9c0.5,0.7,1.3,1.1,2.1,1.1c0.8,0,1.6-0.4,2.1-1.1"/>
	<path class="st8" d="M105.8,47.9v-5.4c0-3.8,4.3-8.4,9.7-8.4s9.7,4.5,9.7,8.3V48"/>
	<path class="st1" d="M115.5,34.2c5.4,0,9.7,4.5,9.7,8.4V48h-0.4c0.3,0.4,0.4,0.8,0.4,1.2c0,1.2-1,2.1-2.2,2.2v0.5
		c0,2.5-1.3,4.9-3.4,6.3h0.1v2.3h0.9c0.3,0,0.6,0,0.9,0.1c1,0.1,2,0.6,2.8,1.2c1,0.7,1.6,1.8,1.6,3v4.6h-20.7v-4.6
		c0-1.2,0.6-2.3,1.6-3c0.8-0.7,1.8-1.1,2.8-1.2c0.3-0.1,0.6-0.1,0.9-0.1h0.9v-2.2h0.3c-2.2-1.5-3.5-4-3.6-6.6c0-0.2,0-0.5,0-0.7
		c0,0.2-0.1,0.4-0.1,0.6c-1.1,0-2-0.7-2.2-1.8v-0.7c0-0.4,0.2-0.7,0.4-1h-0.4v-5.4C105.8,38.7,110.1,34.2,115.5,34.2 M115.5,32.2
		c-6.6,0-11.7,5.6-11.7,10.3v5.4c0,0.2,0,0.3,0,0.5v0.2c0,0.1,0,0.2,0,0.3v0.7c0,0.1,0,0.2,0,0.3c0.2,1.4,1.1,2.5,2.3,3.1
		c0.3,2.1,1.3,4,2.8,5.5c-1.2,0.2-2.4,0.8-3.4,1.6c-1.5,1.1-2.3,2.8-2.3,4.6v4.6c0,1.1,0.9,2,2,2h20.7c1.1,0,2-0.9,2-2v-4.6
		c0-1.8-0.9-3.5-2.3-4.6c-0.9-0.8-2-1.3-3.2-1.5c1.5-1.5,2.5-3.5,2.7-5.7c1.3-0.7,2.2-2.1,2.2-3.7c0-0.2,0-0.5-0.1-0.7
		c0-0.2,0.1-0.3,0.1-0.5v-5.5C127.2,37.7,122.1,32.2,115.5,32.2L115.5,32.2z"/>
	
		<linearGradient id="SVGID_1_" gradientUnits="userSpaceOnUse" x1="214.07" y1="60.4848" x2="488.32" y2="60.4848" gradientTransform="matrix(1 0 0 -1 0 117.8898)">
		<stop  offset="0" style="stop-color:#990066"/>
		<stop  offset="0.19" style="stop-color:#780066"/>
		<stop  offset="0.4" style="stop-color:#5A0066"/>
		<stop  offset="0.61" style="stop-color:#440066"/>
		<stop  offset="0.81" style="stop-color:#370066"/>
		<stop  offset="1" style="stop-color:#330066"/>
	</linearGradient>
	<path class="st9" d="M219.1,20.3h264.3c2.8,0,5,2.2,5,5v64.3c0,2.8-2.2,5-5,5H219.1c-2.8,0-5-2.2-5-5V25.3
		C214.1,22.5,216.3,20.3,219.1,20.3z"/>
	<g class="st0">
		<path class="st10" d="M315.7,49v2.7h-1.5l-0.1-1.1h-1.8v7l1.1,0.2v1.2h-4.1v-1.2l1.1-0.2v-7h-1.8l-0.1,1.1h-1.5V49H315.7z"/>
	</g>
	<g class="st0">
		<path class="st10" d="M316.2,57.7l1-0.2V53l-1.1-0.2v-1.2h2.9l0.1,1.1c0.2-0.4,0.4-0.7,0.7-0.9s0.6-0.3,1-0.3c0.1,0,0.2,0,0.3,0
			c0.1,0,0.2,0,0.3,0.1l-0.2,1.8l-0.8,0c-0.3,0-0.5,0.1-0.7,0.2s-0.3,0.3-0.4,0.5v3.6l1,0.2v1.2h-3.9V57.7z"/>
		<path class="st10" d="M327.1,58c-0.2,0.3-0.5,0.6-0.9,0.8s-0.7,0.3-1.2,0.3c-0.8,0-1.4-0.2-1.8-0.7c-0.4-0.5-0.7-1.3-0.7-2.3V53
			l-0.8-0.2v-1.2h0.8h2V56c0,0.5,0.1,0.9,0.3,1.2c0.2,0.2,0.4,0.4,0.8,0.4c0.3,0,0.6-0.1,0.8-0.2c0.2-0.1,0.4-0.2,0.6-0.4v-4
			l-0.9-0.2v-1.2h0.9h2v6l0.9,0.2v1.2h-2.6L327.1,58z"/>
		<path class="st10" d="M336.7,54.1h-1.3l-0.2-0.9c-0.1-0.1-0.3-0.2-0.5-0.3s-0.4-0.1-0.7-0.1c-0.4,0-0.6,0.1-0.8,0.2
			c-0.2,0.2-0.3,0.4-0.3,0.6c0,0.2,0.1,0.4,0.3,0.6c0.2,0.1,0.6,0.3,1.2,0.4c0.9,0.2,1.6,0.5,2,0.8c0.4,0.4,0.7,0.8,0.7,1.5
			c0,0.7-0.3,1.2-0.9,1.6c-0.6,0.4-1.3,0.6-2.3,0.6c-0.6,0-1.1-0.1-1.6-0.2c-0.5-0.2-0.9-0.4-1.3-0.7l0-1.7h1.4l0.3,1
			c0.1,0.1,0.3,0.2,0.5,0.2c0.2,0,0.4,0.1,0.6,0.1c0.4,0,0.7-0.1,0.9-0.2s0.3-0.3,0.3-0.6c0-0.2-0.1-0.4-0.3-0.6s-0.6-0.3-1.2-0.4
			c-0.9-0.2-1.5-0.4-2-0.8c-0.4-0.3-0.7-0.8-0.7-1.4c0-0.6,0.3-1.2,0.8-1.6c0.5-0.4,1.2-0.7,2.2-0.7c0.6,0,1.1,0.1,1.6,0.2
			s0.9,0.4,1.2,0.6L336.7,54.1z"/>
		<path class="st10" d="M340.8,49.7v1.8h1.3v1.4h-1.3v3.8c0,0.3,0.1,0.5,0.2,0.6s0.3,0.2,0.5,0.2c0.1,0,0.3,0,0.4,0
			c0.1,0,0.2,0,0.3-0.1l0.2,1.4c-0.2,0.1-0.4,0.1-0.7,0.2c-0.2,0-0.5,0.1-0.7,0.1c-0.7,0-1.2-0.2-1.6-0.6s-0.6-1-0.6-1.8v-3.8h-1.1
			v-1.4h1.1v-1.8H340.8z"/>
		<path class="st10" d="M346.6,59.1c-1.1,0-1.9-0.3-2.6-1s-1-1.6-1-2.6v-0.3c0-1.1,0.3-2,0.9-2.7s1.4-1.1,2.4-1.1
			c1,0,1.8,0.3,2.3,0.9s0.8,1.4,0.8,2.4v1.1h-4.4l0,0c0,0.5,0.2,0.9,0.5,1.2s0.7,0.5,1.2,0.5c0.4,0,0.8,0,1.1-0.1
			c0.3-0.1,0.6-0.2,1-0.4l0.5,1.2c-0.3,0.2-0.7,0.4-1.2,0.6S347.2,59.1,346.6,59.1z M346.4,52.9c-0.4,0-0.7,0.1-0.9,0.4
			s-0.3,0.7-0.4,1.1l0,0h2.4v-0.2c0-0.4-0.1-0.8-0.3-1C347.1,53.1,346.8,52.9,346.4,52.9z"/>
		<path class="st10" d="M355.3,58c-0.2,0.3-0.5,0.6-0.8,0.8s-0.7,0.3-1.1,0.3c-0.9,0-1.6-0.3-2.1-1s-0.8-1.5-0.8-2.6v-0.1
			c0-1.2,0.3-2.1,0.8-2.8s1.2-1.1,2.1-1.1c0.4,0,0.7,0.1,1,0.2c0.3,0.2,0.6,0.4,0.8,0.7v-2.7l-1.1-0.2v-1.2h1.1h2v9.3l1,0.2v1.2
			h-2.7L355.3,58z M352.5,55.4c0,0.6,0.1,1.2,0.3,1.5c0.2,0.4,0.6,0.6,1.1,0.6c0.3,0,0.5-0.1,0.8-0.2s0.4-0.3,0.5-0.5v-3.1
			c-0.1-0.2-0.3-0.4-0.5-0.6c-0.2-0.1-0.5-0.2-0.7-0.2c-0.5,0-0.8,0.2-1.1,0.6s-0.3,1-0.3,1.7V55.4z"/>
	</g>
	<g class="st0">
		<path class="st10" d="M366.7,49c1.2,0,2.2,0.4,3,1.2c0.8,0.8,1.2,1.8,1.2,3v1.6c0,1.2-0.4,2.2-1.2,3c-0.8,0.8-1.8,1.2-3,1.2h-4.5
			v-1.2l1.1-0.2v-7.1l-1.1-0.2V49h1.1H366.7z M365.2,50.5v6.9h1.3c0.7,0,1.3-0.2,1.7-0.7c0.4-0.5,0.6-1.1,0.6-1.9v-1.7
			c0-0.8-0.2-1.4-0.6-1.9c-0.4-0.5-1-0.7-1.7-0.7H365.2z"/>
	</g>
	<g class="st0">
		<path class="st10" d="M371.3,57.7l0.7-0.1l3-8.7h2l3,8.7l0.7,0.1v1.2h-3.4v-1.2l0.7-0.1l-0.4-1.4h-3.2l-0.4,1.4l0.7,0.1v1.2h-3.4
			V57.7z M374.9,54.8h2.3l-1.1-3.5h0L374.9,54.8z"/>
		<path class="st10" d="M381.4,52.7v-1.2h2.9l0.1,0.9c0.2-0.3,0.5-0.6,0.8-0.7c0.3-0.2,0.7-0.3,1.1-0.3c0.9,0,1.6,0.4,2.1,1.1
			s0.8,1.7,0.8,2.8v0.1c0,1.1-0.3,2-0.8,2.6s-1.2,1-2.1,1c-0.4,0-0.7-0.1-1-0.2c-0.3-0.1-0.6-0.4-0.8-0.6v2.1l1,0.2v1.2h-3.9v-1.2
			l1-0.2V53L381.4,52.7z M387.1,55.3c0-0.7-0.1-1.3-0.3-1.7s-0.6-0.6-1.1-0.6c-0.3,0-0.6,0.1-0.8,0.2s-0.4,0.3-0.5,0.5v3.2
			c0.1,0.2,0.3,0.4,0.5,0.5s0.5,0.2,0.8,0.2c0.5,0,0.8-0.2,1.1-0.6s0.3-0.9,0.3-1.5V55.3z"/>
		<path class="st10" d="M389.9,52.7v-1.2h2.9l0.1,0.9c0.2-0.3,0.5-0.6,0.8-0.7c0.3-0.2,0.7-0.3,1.1-0.3c0.9,0,1.6,0.4,2.1,1.1
			s0.8,1.7,0.8,2.8v0.1c0,1.1-0.3,2-0.8,2.6s-1.2,1-2.1,1c-0.4,0-0.7-0.1-1-0.2c-0.3-0.1-0.6-0.4-0.8-0.6v2.1l1,0.2v1.2H390v-1.2
			l1-0.2V53L389.9,52.7z M395.6,55.3c0-0.7-0.1-1.3-0.3-1.7s-0.6-0.6-1.1-0.6c-0.3,0-0.6,0.1-0.8,0.2s-0.4,0.3-0.5,0.5v3.2
			c0.1,0.2,0.3,0.4,0.5,0.5s0.5,0.2,0.8,0.2c0.5,0,0.8-0.2,1.1-0.6s0.3-0.9,0.3-1.5V55.3z"/>
	</g>
	<g class="st0">
		<path class="st6" d="M249,77.1c0.2,0,0.4,0,0.6-0.1c0.2,0,0.4,0,0.7,0c0.2,0,0.5,0,0.7,0c0.2,0,0.4,0,0.6,0c0.8,0,1.5,0.1,2,0.4
			c0.6,0.2,1,0.6,1.4,1c0.4,0.4,0.7,1,0.8,1.6c0.2,0.6,0.3,1.3,0.3,2c0,0.7-0.1,1.3-0.3,1.9c-0.2,0.6-0.4,1.2-0.8,1.6
			c-0.4,0.5-0.9,0.8-1.5,1.1c-0.6,0.3-1.3,0.4-2.2,0.4c-0.1,0-0.3,0-0.6,0c-0.2,0-0.5,0-0.7,0c-0.3,0-0.5,0-0.7,0
			c-0.2,0-0.4,0-0.5,0V77.1z M251.6,78.1c-0.1,0-0.3,0-0.4,0c-0.1,0-0.3,0-0.4,0c-0.1,0-0.3,0-0.4,0c-0.1,0-0.2,0-0.3,0V86
			c0,0,0.1,0,0.3,0c0.1,0,0.3,0,0.4,0s0.3,0,0.4,0c0.1,0,0.2,0,0.3,0c0.7,0,1.2-0.1,1.6-0.3s0.8-0.5,1.1-0.9
			c0.3-0.4,0.5-0.8,0.6-1.3c0.1-0.5,0.2-1,0.2-1.5c0-0.5-0.1-0.9-0.2-1.4s-0.3-0.9-0.5-1.3c-0.3-0.4-0.6-0.7-1-0.9
			C252.8,78.2,252.3,78.1,251.6,78.1z"/>
		<path class="st6" d="M257.9,80.5c0.4-0.2,0.8-0.4,1.2-0.5c0.5-0.1,1-0.2,1.5-0.2c0.5,0,0.9,0.1,1.2,0.2s0.5,0.3,0.7,0.5
			s0.3,0.4,0.3,0.7s0.1,0.5,0.1,0.8c0,0.6,0,1.1,0,1.6c0,0.5,0,1,0,1.5c0,0.3,0,0.7,0,1c0,0.3,0.1,0.6,0.2,0.9h-0.8l-0.3-1h-0.1
			c-0.1,0.1-0.2,0.3-0.3,0.4s-0.3,0.2-0.5,0.3c-0.2,0.1-0.4,0.2-0.6,0.2c-0.2,0.1-0.5,0.1-0.8,0.1s-0.6,0-0.8-0.1
			c-0.3-0.1-0.5-0.2-0.7-0.4s-0.3-0.4-0.4-0.6c-0.1-0.2-0.2-0.5-0.2-0.8c0-0.4,0.1-0.8,0.3-1s0.4-0.5,0.7-0.7
			c0.3-0.2,0.7-0.3,1.1-0.3c0.4-0.1,0.9-0.1,1.4-0.1c0.1,0,0.3,0,0.4,0s0.3,0,0.4,0c0-0.3,0-0.5,0-0.8c0-0.5-0.1-0.9-0.3-1.1
			c-0.2-0.2-0.6-0.3-1.1-0.3c-0.2,0-0.3,0-0.5,0c-0.2,0-0.4,0.1-0.6,0.1s-0.4,0.1-0.5,0.2c-0.2,0.1-0.3,0.1-0.5,0.2L257.9,80.5z
			 M259.9,86.1c0.3,0,0.5,0,0.7-0.1c0.2-0.1,0.4-0.2,0.5-0.3c0.1-0.1,0.3-0.2,0.4-0.4c0.1-0.1,0.2-0.3,0.2-0.4v-1.2
			c-0.1,0-0.3,0-0.4,0c-0.1,0-0.3,0-0.4,0c-0.3,0-0.6,0-0.8,0c-0.3,0-0.5,0.1-0.7,0.2s-0.4,0.2-0.5,0.4c-0.1,0.2-0.2,0.3-0.2,0.6
			c0,0.3,0.1,0.6,0.4,0.8C259.3,86,259.6,86.1,259.9,86.1z"/>
		<path class="st6" d="M264.1,79.9h1.1v-1.4l1.1-0.3v1.7h1.9v1h-1.9v3.9c0,0.5,0.1,0.8,0.2,1c0.1,0.2,0.3,0.3,0.6,0.3
			c0.2,0,0.4,0,0.6-0.1c0.2-0.1,0.4-0.1,0.6-0.2l0.3,0.9c-0.3,0.1-0.5,0.2-0.8,0.3c-0.3,0.1-0.6,0.1-1,0.1c-0.6,0-1-0.2-1.2-0.5
			c-0.2-0.3-0.4-0.9-0.4-1.6v-4.1h-1.1V79.9z"/>
		<path class="st6" d="M269.6,80.5c0.4-0.2,0.8-0.4,1.2-0.5c0.5-0.1,1-0.2,1.5-0.2c0.5,0,0.9,0.1,1.2,0.2s0.5,0.3,0.7,0.5
			s0.3,0.4,0.3,0.7s0.1,0.5,0.1,0.8c0,0.6,0,1.1,0,1.6c0,0.5,0,1,0,1.5c0,0.3,0,0.7,0,1c0,0.3,0.1,0.6,0.2,0.9h-0.8l-0.3-1h-0.1
			c-0.1,0.1-0.2,0.3-0.3,0.4s-0.3,0.2-0.5,0.3c-0.2,0.1-0.4,0.2-0.6,0.2c-0.2,0.1-0.5,0.1-0.8,0.1s-0.6,0-0.8-0.1
			c-0.3-0.1-0.5-0.2-0.7-0.4s-0.3-0.4-0.4-0.6c-0.1-0.2-0.2-0.5-0.2-0.8c0-0.4,0.1-0.8,0.3-1s0.4-0.5,0.7-0.7
			c0.3-0.2,0.7-0.3,1.1-0.3c0.4-0.1,0.9-0.1,1.4-0.1c0.1,0,0.3,0,0.4,0s0.3,0,0.4,0c0-0.3,0-0.5,0-0.8c0-0.5-0.1-0.9-0.3-1.1
			c-0.2-0.2-0.6-0.3-1.1-0.3c-0.2,0-0.3,0-0.5,0c-0.2,0-0.4,0.1-0.6,0.1s-0.4,0.1-0.5,0.2c-0.2,0.1-0.3,0.1-0.5,0.2L269.6,80.5z
			 M271.6,86.1c0.3,0,0.5,0,0.7-0.1c0.2-0.1,0.4-0.2,0.5-0.3c0.1-0.1,0.3-0.2,0.4-0.4c0.1-0.1,0.2-0.3,0.2-0.4v-1.2
			c-0.1,0-0.3,0-0.4,0c-0.1,0-0.3,0-0.4,0c-0.3,0-0.6,0-0.8,0c-0.3,0-0.5,0.1-0.7,0.2s-0.4,0.2-0.5,0.4c-0.1,0.2-0.2,0.3-0.2,0.6
			c0,0.3,0.1,0.6,0.4,0.8C270.9,86,271.2,86.1,271.6,86.1z"/>
		<path class="st6" d="M286.8,86.5c-0.3,0.2-0.6,0.4-1.1,0.4s-0.9,0.1-1.4,0.1c-0.6,0-1.1-0.1-1.7-0.3c-0.5-0.2-1-0.5-1.3-0.9
			c-0.4-0.4-0.7-0.9-0.9-1.6s-0.3-1.4-0.3-2.3c0-0.9,0.1-1.7,0.4-2.3c0.2-0.6,0.6-1.2,1-1.6c0.4-0.4,0.9-0.7,1.4-0.9
			c0.5-0.2,1-0.3,1.5-0.3c0.6,0,1,0,1.4,0.1c0.4,0.1,0.7,0.1,0.9,0.2l-0.3,1c-0.4-0.2-1.1-0.3-1.9-0.3c-0.4,0-0.8,0.1-1.1,0.2
			c-0.4,0.1-0.7,0.4-1,0.7c-0.3,0.3-0.5,0.7-0.7,1.2c-0.2,0.5-0.3,1.1-0.3,1.9c0,0.7,0.1,1.3,0.3,1.8s0.4,0.9,0.7,1.3s0.6,0.6,1,0.8
			c0.4,0.2,0.8,0.3,1.3,0.3c0.4,0,0.8,0,1.1-0.1c0.3-0.1,0.6-0.2,0.8-0.3L286.8,86.5z"/>
		<path class="st6" d="M287.5,83.4c0-1.2,0.3-2.1,0.8-2.7s1.3-0.9,2.3-0.9c0.5,0,1,0.1,1.4,0.3c0.4,0.2,0.7,0.4,1,0.7
			s0.4,0.7,0.6,1.2c0.1,0.5,0.2,1,0.2,1.5c0,1.2-0.3,2.1-0.8,2.7s-1.3,0.9-2.3,0.9c-0.5,0-1-0.1-1.4-0.3c-0.4-0.2-0.7-0.4-1-0.7
			c-0.3-0.3-0.4-0.7-0.6-1.2C287.6,84.5,287.5,84,287.5,83.4z M288.7,83.4c0,0.4,0,0.7,0.1,1c0.1,0.3,0.2,0.6,0.3,0.9
			c0.1,0.2,0.3,0.4,0.6,0.6c0.2,0.1,0.5,0.2,0.9,0.2c1.3,0,1.9-0.9,1.9-2.7c0-0.4,0-0.7-0.1-1c-0.1-0.3-0.2-0.6-0.3-0.9
			c-0.1-0.2-0.3-0.4-0.6-0.6s-0.5-0.2-0.9-0.2C289.3,80.7,288.7,81.6,288.7,83.4z"/>
		<path class="st6" d="M299.5,86.9v-4c0-0.4,0-0.7,0-1s-0.1-0.5-0.2-0.7s-0.2-0.3-0.4-0.4c-0.2-0.1-0.4-0.1-0.7-0.1
			c-0.4,0-0.8,0.1-1.1,0.4s-0.5,0.6-0.6,1v4.8h-1.1v-7h0.8l0.2,0.9h0.1c0.3-0.3,0.5-0.5,0.9-0.7c0.3-0.2,0.8-0.3,1.3-0.3
			c0.4,0,0.8,0.1,1.1,0.3s0.5,0.5,0.7,0.9c0.2-0.4,0.5-0.6,0.9-0.9c0.4-0.2,0.8-0.3,1.3-0.3c0.4,0,0.7,0,1,0.1
			c0.3,0.1,0.5,0.2,0.7,0.5c0.2,0.2,0.3,0.5,0.4,0.9c0.1,0.4,0.1,0.9,0.1,1.5v4.2h-1.1v-4.2c0-0.3,0-0.6,0-0.9s-0.1-0.5-0.2-0.6
			c-0.1-0.2-0.2-0.3-0.4-0.4c-0.2-0.1-0.4-0.1-0.7-0.1c-0.5,0-0.8,0.1-1.1,0.4s-0.4,0.6-0.6,1.1v4.7H299.5z"/>
		<path class="st6" d="M306.8,79.9h0.8l0.2,0.8h0.1c0.2-0.3,0.5-0.6,0.8-0.7s0.7-0.3,1.2-0.3c0.9,0,1.6,0.3,2.1,0.8
			c0.5,0.6,0.7,1.5,0.7,2.7c0,0.6-0.1,1.1-0.2,1.6c-0.2,0.5-0.4,0.9-0.7,1.2c-0.3,0.3-0.6,0.6-1,0.8c-0.4,0.2-0.8,0.3-1.3,0.3
			c-0.3,0-0.6,0-0.8-0.1c-0.2,0-0.4-0.1-0.7-0.2v2.9h-1.1V79.9z M309.6,80.8c-0.5,0-0.9,0.1-1.1,0.4c-0.3,0.2-0.5,0.6-0.6,1.1v3.5
			c0.2,0.1,0.4,0.2,0.6,0.3s0.5,0.1,0.9,0.1c0.6,0,1.2-0.2,1.5-0.7c0.4-0.5,0.6-1.2,0.6-2.1c0-0.4,0-0.7-0.1-1
			c-0.1-0.3-0.2-0.6-0.3-0.8c-0.1-0.2-0.3-0.4-0.6-0.5S310,80.8,309.6,80.8z"/>
		<path class="st6" d="M315.4,79.9v4c0,0.4,0,0.7,0.1,1s0.1,0.5,0.2,0.7c0.1,0.2,0.2,0.3,0.4,0.4c0.2,0.1,0.4,0.1,0.7,0.1
			c0.3,0,0.5,0,0.7-0.1c0.2-0.1,0.4-0.2,0.5-0.3c0.2-0.1,0.3-0.3,0.4-0.5c0.1-0.2,0.2-0.4,0.3-0.6v-4.7h1.1v5c0,0.3,0,0.7,0,1
			c0,0.4,0.1,0.7,0.1,0.9h-0.8l-0.3-1.1h-0.1c-0.2,0.4-0.5,0.7-0.9,0.9c-0.4,0.2-0.8,0.4-1.4,0.4c-0.4,0-0.7,0-1-0.1
			c-0.3-0.1-0.5-0.2-0.7-0.5c-0.2-0.2-0.3-0.5-0.4-0.9c-0.1-0.4-0.1-0.9-0.1-1.4v-4.2H315.4z"/>
		<path class="st6" d="M321,79.9h1.1v-1.4l1.1-0.3v1.7h1.9v1h-1.9v3.9c0,0.5,0.1,0.8,0.2,1c0.1,0.2,0.3,0.3,0.6,0.3
			c0.2,0,0.4,0,0.6-0.1c0.2-0.1,0.4-0.1,0.6-0.2l0.3,0.9c-0.3,0.1-0.5,0.2-0.8,0.3c-0.3,0.1-0.6,0.1-1,0.1c-0.6,0-1-0.2-1.2-0.5
			c-0.2-0.3-0.4-0.9-0.4-1.6v-4.1H321V79.9z"/>
		<path class="st6" d="M326.5,80.5c0.4-0.2,0.8-0.4,1.2-0.5c0.5-0.1,1-0.2,1.5-0.2c0.5,0,0.9,0.1,1.2,0.2s0.5,0.3,0.7,0.5
			s0.3,0.4,0.3,0.7s0.1,0.5,0.1,0.8c0,0.6,0,1.1,0,1.6c0,0.5,0,1,0,1.5c0,0.3,0,0.7,0,1c0,0.3,0.1,0.6,0.2,0.9h-0.8l-0.3-1h-0.1
			c-0.1,0.1-0.2,0.3-0.3,0.4s-0.3,0.2-0.5,0.3c-0.2,0.1-0.4,0.2-0.6,0.2c-0.2,0.1-0.5,0.1-0.8,0.1s-0.6,0-0.8-0.1
			c-0.3-0.1-0.5-0.2-0.7-0.4s-0.3-0.4-0.4-0.6c-0.1-0.2-0.2-0.5-0.2-0.8c0-0.4,0.1-0.8,0.3-1s0.4-0.5,0.7-0.7
			c0.3-0.2,0.7-0.3,1.1-0.3c0.4-0.1,0.9-0.1,1.4-0.1c0.1,0,0.3,0,0.4,0s0.3,0,0.4,0c0-0.3,0-0.5,0-0.8c0-0.5-0.1-0.9-0.3-1.1
			c-0.2-0.2-0.6-0.3-1.1-0.3c-0.2,0-0.3,0-0.5,0c-0.2,0-0.4,0.1-0.6,0.1s-0.4,0.1-0.5,0.2c-0.2,0.1-0.3,0.1-0.5,0.2L326.5,80.5z
			 M328.5,86.1c0.3,0,0.5,0,0.7-0.1c0.2-0.1,0.4-0.2,0.5-0.3c0.1-0.1,0.3-0.2,0.4-0.4c0.1-0.1,0.2-0.3,0.2-0.4v-1.2
			c-0.1,0-0.3,0-0.4,0c-0.1,0-0.3,0-0.4,0c-0.3,0-0.6,0-0.8,0c-0.3,0-0.5,0.1-0.7,0.2s-0.4,0.2-0.5,0.4c-0.1,0.2-0.2,0.3-0.2,0.6
			c0,0.3,0.1,0.6,0.4,0.8C327.9,86,328.2,86.1,328.5,86.1z"/>
		<path class="st6" d="M332.7,79.9h1.1v-1.4l1.1-0.3v1.7h1.9v1h-1.9v3.9c0,0.5,0.1,0.8,0.2,1c0.1,0.2,0.3,0.3,0.6,0.3
			c0.2,0,0.4,0,0.6-0.1c0.2-0.1,0.4-0.1,0.6-0.2l0.3,0.9c-0.3,0.1-0.5,0.2-0.8,0.3c-0.3,0.1-0.6,0.1-1,0.1c-0.6,0-1-0.2-1.2-0.5
			c-0.2-0.3-0.4-0.9-0.4-1.6v-4.1h-1.1V79.9z"/>
		<path class="st6" d="M338.3,77.8c0-0.2,0.1-0.4,0.2-0.6c0.1-0.2,0.3-0.2,0.6-0.2c0.2,0,0.4,0.1,0.6,0.2c0.2,0.2,0.2,0.3,0.2,0.6
			s-0.1,0.4-0.2,0.5c-0.2,0.1-0.4,0.2-0.6,0.2c-0.2,0-0.4-0.1-0.6-0.2C338.4,78.2,338.3,78,338.3,77.8z M338.6,79.9h1.1v7h-1.1V79.9
			z"/>
		<path class="st6" d="M341.7,83.4c0-1.2,0.3-2.1,0.8-2.7s1.3-0.9,2.3-0.9c0.5,0,1,0.1,1.4,0.3c0.4,0.2,0.7,0.4,1,0.7
			s0.4,0.7,0.6,1.2c0.1,0.5,0.2,1,0.2,1.5c0,1.2-0.3,2.1-0.8,2.7s-1.3,0.9-2.3,0.9c-0.5,0-1-0.1-1.4-0.3c-0.4-0.2-0.7-0.4-1-0.7
			c-0.3-0.3-0.4-0.7-0.6-1.2C341.8,84.5,341.7,84,341.7,83.4z M342.9,83.4c0,0.4,0,0.7,0.1,1c0.1,0.3,0.2,0.6,0.3,0.9
			c0.1,0.2,0.3,0.4,0.6,0.6c0.2,0.1,0.5,0.2,0.9,0.2c1.3,0,1.9-0.9,1.9-2.7c0-0.4,0-0.7-0.1-1c-0.1-0.3-0.2-0.6-0.3-0.9
			c-0.1-0.2-0.3-0.4-0.6-0.6s-0.5-0.2-0.9-0.2C343.5,80.7,342.9,81.6,342.9,83.4z"/>
		<path class="st6" d="M354.1,86.9v-4c0-0.7-0.1-1.3-0.3-1.6c-0.2-0.4-0.6-0.6-1.2-0.6c-0.5,0-0.9,0.1-1.2,0.4
			c-0.3,0.3-0.5,0.6-0.7,1v4.8h-1.1v-7h0.8l0.2,0.9h0.1c0.2-0.3,0.5-0.5,0.9-0.7c0.4-0.2,0.8-0.3,1.4-0.3c0.4,0,0.7,0,1,0.1
			c0.3,0.1,0.5,0.2,0.7,0.5c0.2,0.2,0.3,0.5,0.4,0.9s0.1,0.9,0.1,1.4v4.2H354.1z"/>
		<path class="st6" d="M367.4,86.5c-0.3,0.2-0.6,0.4-1.1,0.4c-0.4,0.1-0.9,0.1-1.4,0.1c-0.6,0-1.1-0.1-1.7-0.3
			c-0.5-0.2-1-0.5-1.3-0.9c-0.4-0.4-0.7-0.9-0.9-1.6c-0.2-0.6-0.3-1.4-0.3-2.3c0-0.9,0.1-1.7,0.4-2.3c0.2-0.6,0.6-1.2,1-1.6
			c0.4-0.4,0.9-0.7,1.4-0.9c0.5-0.2,1-0.3,1.5-0.3c0.6,0,1,0,1.4,0.1s0.7,0.1,0.9,0.2l-0.3,1c-0.4-0.2-1.1-0.3-1.9-0.3
			c-0.4,0-0.8,0.1-1.1,0.2c-0.4,0.1-0.7,0.4-1,0.7s-0.5,0.7-0.7,1.2c-0.2,0.5-0.3,1.1-0.3,1.9c0,0.7,0.1,1.3,0.3,1.8
			s0.4,0.9,0.7,1.3s0.6,0.6,1,0.8s0.8,0.3,1.3,0.3c0.4,0,0.8,0,1.1-0.1c0.3-0.1,0.6-0.2,0.8-0.3L367.4,86.5z"/>
		<path class="st6" d="M368.1,83.4c0-1.2,0.3-2.1,0.8-2.7s1.3-0.9,2.3-0.9c0.5,0,1,0.1,1.4,0.3s0.7,0.4,1,0.7s0.4,0.7,0.6,1.2
			c0.1,0.5,0.2,1,0.2,1.5c0,1.2-0.3,2.1-0.8,2.7s-1.3,0.9-2.3,0.9c-0.5,0-1-0.1-1.4-0.3c-0.4-0.2-0.7-0.4-1-0.7
			c-0.3-0.3-0.4-0.7-0.6-1.2C368.2,84.5,368.1,84,368.1,83.4z M369.3,83.4c0,0.4,0,0.7,0.1,1c0.1,0.3,0.2,0.6,0.3,0.9
			c0.1,0.2,0.3,0.4,0.6,0.6s0.5,0.2,0.9,0.2c1.3,0,1.9-0.9,1.9-2.7c0-0.4,0-0.7-0.1-1c-0.1-0.3-0.2-0.6-0.3-0.9
			c-0.1-0.2-0.3-0.4-0.6-0.6c-0.2-0.1-0.5-0.2-0.9-0.2C369.9,80.7,369.3,81.6,369.3,83.4z"/>
		<path class="st6" d="M380.1,86.9v-4c0-0.4,0-0.7,0-1c0-0.3-0.1-0.5-0.2-0.7c-0.1-0.2-0.2-0.3-0.4-0.4c-0.2-0.1-0.4-0.1-0.7-0.1
			c-0.4,0-0.8,0.1-1.1,0.4c-0.3,0.3-0.5,0.6-0.6,1v4.8H376v-7h0.8l0.2,0.9h0.1c0.3-0.3,0.5-0.5,0.9-0.7s0.8-0.3,1.3-0.3
			c0.4,0,0.8,0.1,1.1,0.3c0.3,0.2,0.5,0.5,0.7,0.9c0.2-0.4,0.5-0.6,0.9-0.9c0.4-0.2,0.8-0.3,1.3-0.3c0.4,0,0.7,0,1,0.1
			c0.3,0.1,0.5,0.2,0.7,0.5c0.2,0.2,0.3,0.5,0.4,0.9s0.1,0.9,0.1,1.5v4.2h-1.1v-4.2c0-0.3,0-0.6,0-0.9c0-0.2-0.1-0.5-0.2-0.6
			s-0.2-0.3-0.4-0.4c-0.2-0.1-0.4-0.1-0.7-0.1c-0.5,0-0.8,0.1-1.1,0.4c-0.3,0.3-0.4,0.6-0.6,1.1v4.7H380.1z"/>
		<path class="st6" d="M391.5,86.9v-4c0-0.4,0-0.7,0-1c0-0.3-0.1-0.5-0.2-0.7c-0.1-0.2-0.2-0.3-0.4-0.4c-0.2-0.1-0.4-0.1-0.7-0.1
			c-0.4,0-0.8,0.1-1.1,0.4c-0.3,0.3-0.5,0.6-0.6,1v4.8h-1.1v-7h0.8l0.2,0.9h0.1c0.3-0.3,0.5-0.5,0.9-0.7s0.8-0.3,1.3-0.3
			c0.4,0,0.8,0.1,1.1,0.3c0.3,0.2,0.5,0.5,0.7,0.9c0.2-0.4,0.5-0.6,0.9-0.9c0.4-0.2,0.8-0.3,1.3-0.3c0.4,0,0.7,0,1,0.1
			c0.3,0.1,0.5,0.2,0.7,0.5c0.2,0.2,0.3,0.5,0.4,0.9s0.1,0.9,0.1,1.5v4.2h-1.1v-4.2c0-0.3,0-0.6,0-0.9c0-0.2-0.1-0.5-0.2-0.6
			s-0.2-0.3-0.4-0.4c-0.2-0.1-0.4-0.1-0.7-0.1c-0.5,0-0.8,0.1-1.1,0.4c-0.3,0.3-0.4,0.6-0.6,1.1v4.7H391.5z"/>
		<path class="st6" d="M399.8,79.9v4c0,0.4,0,0.7,0.1,1s0.1,0.5,0.2,0.7c0.1,0.2,0.2,0.3,0.4,0.4c0.2,0.1,0.4,0.1,0.7,0.1
			c0.3,0,0.5,0,0.7-0.1s0.4-0.2,0.5-0.3c0.2-0.1,0.3-0.3,0.4-0.5c0.1-0.2,0.2-0.4,0.3-0.6v-4.7h1.1v5c0,0.3,0,0.7,0,1
			c0,0.4,0.1,0.7,0.1,0.9h-0.8l-0.3-1.1h-0.1c-0.2,0.4-0.5,0.7-0.9,0.9c-0.4,0.2-0.8,0.4-1.4,0.4c-0.4,0-0.7,0-1-0.1
			c-0.3-0.1-0.5-0.2-0.7-0.5c-0.2-0.2-0.3-0.5-0.4-0.9c-0.1-0.4-0.1-0.9-0.1-1.4v-4.2H399.8z"/>
		<path class="st6" d="M410.8,86.9v-4c0-0.7-0.1-1.3-0.3-1.6c-0.2-0.4-0.6-0.6-1.2-0.6c-0.5,0-0.9,0.1-1.2,0.4s-0.5,0.6-0.7,1v4.8
			h-1.1v-7h0.8l0.2,0.9h0.1c0.2-0.3,0.5-0.5,0.9-0.7c0.4-0.2,0.8-0.3,1.4-0.3c0.4,0,0.7,0,1,0.1s0.5,0.2,0.7,0.5
			c0.2,0.2,0.3,0.5,0.4,0.9c0.1,0.4,0.1,0.9,0.1,1.4v4.2H410.8z"/>
		<path class="st6" d="M413.9,77.8c0-0.2,0.1-0.4,0.2-0.6c0.1-0.2,0.3-0.2,0.6-0.2s0.4,0.1,0.6,0.2c0.2,0.2,0.2,0.3,0.2,0.6
			s-0.1,0.4-0.2,0.5c-0.2,0.1-0.4,0.2-0.6,0.2s-0.4-0.1-0.6-0.2C414,78.2,413.9,78,413.9,77.8z M414.2,79.9h1.1v7h-1.1V79.9z"/>
		<path class="st6" d="M422.5,86.5c-0.3,0.2-0.6,0.4-1,0.5s-0.8,0.2-1.2,0.2c-0.5,0-1-0.1-1.4-0.3c-0.4-0.2-0.7-0.4-0.9-0.7
			c-0.2-0.3-0.4-0.7-0.5-1.2c-0.1-0.5-0.2-1-0.2-1.5c0-1.2,0.3-2.1,0.8-2.7s1.3-0.9,2.3-0.9c0.4,0,0.8,0,1.1,0.1
			c0.3,0.1,0.6,0.2,0.8,0.3l-0.3,1c-0.2-0.1-0.5-0.2-0.7-0.3c-0.3-0.1-0.5-0.1-0.8-0.1c-1.3,0-2,0.9-2,2.7c0,0.4,0,0.7,0.1,1
			c0.1,0.3,0.2,0.6,0.3,0.9s0.4,0.4,0.6,0.6c0.3,0.1,0.6,0.2,1,0.2c0.3,0,0.6-0.1,0.9-0.2c0.3-0.1,0.5-0.2,0.7-0.4L422.5,86.5z"/>
		<path class="st6" d="M423.9,80.5c0.4-0.2,0.8-0.4,1.2-0.5c0.5-0.1,1-0.2,1.5-0.2c0.5,0,0.9,0.1,1.2,0.2s0.5,0.3,0.7,0.5
			c0.2,0.2,0.3,0.4,0.3,0.7c0.1,0.3,0.1,0.5,0.1,0.8c0,0.6,0,1.1,0,1.6c0,0.5,0,1,0,1.5c0,0.3,0,0.7,0,1c0,0.3,0.1,0.6,0.2,0.9h-0.8
			l-0.3-1h-0.1c-0.1,0.1-0.2,0.3-0.3,0.4s-0.3,0.2-0.5,0.3c-0.2,0.1-0.4,0.2-0.6,0.2c-0.2,0.1-0.5,0.1-0.8,0.1s-0.6,0-0.8-0.1
			c-0.3-0.1-0.5-0.2-0.7-0.4s-0.3-0.4-0.4-0.6c-0.1-0.2-0.2-0.5-0.2-0.8c0-0.4,0.1-0.8,0.3-1s0.4-0.5,0.7-0.7
			c0.3-0.2,0.7-0.3,1.1-0.3s0.9-0.1,1.4-0.1c0.1,0,0.3,0,0.4,0s0.3,0,0.4,0c0-0.3,0-0.5,0-0.8c0-0.5-0.1-0.9-0.3-1.1
			c-0.2-0.2-0.6-0.3-1.1-0.3c-0.2,0-0.3,0-0.5,0c-0.2,0-0.4,0.1-0.6,0.1s-0.4,0.1-0.5,0.2s-0.3,0.1-0.5,0.2L423.9,80.5z M425.9,86.1
			c0.3,0,0.5,0,0.7-0.1c0.2-0.1,0.4-0.2,0.5-0.3c0.1-0.1,0.3-0.2,0.4-0.4s0.2-0.3,0.2-0.4v-1.2c-0.1,0-0.3,0-0.4,0
			c-0.1,0-0.3,0-0.4,0c-0.3,0-0.6,0-0.8,0c-0.3,0-0.5,0.1-0.7,0.2s-0.4,0.2-0.5,0.4c-0.1,0.2-0.2,0.3-0.2,0.6c0,0.3,0.1,0.6,0.3,0.8
			S425.5,86.1,425.9,86.1z"/>
		<path class="st6" d="M430,79.9h1.1v-1.4l1.1-0.3v1.7h1.9v1h-1.9v3.9c0,0.5,0.1,0.8,0.2,1c0.1,0.2,0.3,0.3,0.6,0.3
			c0.2,0,0.4,0,0.6-0.1c0.2-0.1,0.4-0.1,0.6-0.2l0.3,0.9c-0.3,0.1-0.5,0.2-0.8,0.3c-0.3,0.1-0.6,0.1-1,0.1c-0.6,0-1-0.2-1.2-0.5
			c-0.2-0.3-0.4-0.9-0.4-1.6v-4.1H430V79.9z"/>
		<path class="st6" d="M435.7,77.8c0-0.2,0.1-0.4,0.2-0.6c0.1-0.2,0.3-0.2,0.6-0.2c0.2,0,0.4,0.1,0.6,0.2c0.2,0.2,0.2,0.3,0.2,0.6
			s-0.1,0.4-0.2,0.5c-0.2,0.1-0.3,0.2-0.6,0.2c-0.2,0-0.4-0.1-0.6-0.2C435.8,78.2,435.7,78,435.7,77.8z M435.9,79.9h1.1v7h-1.1V79.9
			z"/>
		<path class="st6" d="M439.1,83.4c0-1.2,0.3-2.1,0.8-2.7s1.3-0.9,2.3-0.9c0.5,0,1,0.1,1.4,0.3s0.7,0.4,1,0.7s0.4,0.7,0.6,1.2
			c0.1,0.5,0.2,1,0.2,1.5c0,1.2-0.3,2.1-0.8,2.7s-1.3,0.9-2.3,0.9c-0.5,0-1-0.1-1.4-0.3c-0.4-0.2-0.7-0.4-1-0.7
			c-0.3-0.3-0.4-0.7-0.6-1.2C439.1,84.5,439.1,84,439.1,83.4z M440.2,83.4c0,0.4,0,0.7,0.1,1c0.1,0.3,0.2,0.6,0.3,0.9
			c0.1,0.2,0.3,0.4,0.6,0.6s0.5,0.2,0.9,0.2c1.3,0,1.9-0.9,1.9-2.7c0-0.4,0-0.7-0.1-1c-0.1-0.3-0.2-0.6-0.3-0.9
			c-0.1-0.2-0.3-0.4-0.6-0.6c-0.2-0.1-0.5-0.2-0.9-0.2C440.9,80.7,440.2,81.6,440.2,83.4z"/>
		<path class="st6" d="M451.5,86.9v-4c0-0.7-0.1-1.3-0.3-1.6c-0.2-0.4-0.6-0.6-1.2-0.6c-0.5,0-0.9,0.1-1.2,0.4
			c-0.3,0.3-0.5,0.6-0.7,1v4.8H447v-7h0.8l0.2,0.9h0.1c0.2-0.3,0.5-0.5,0.9-0.7s0.8-0.3,1.4-0.3c0.4,0,0.7,0,1,0.1
			c0.3,0.1,0.5,0.2,0.7,0.5c0.2,0.2,0.3,0.5,0.4,0.9c0.1,0.4,0.1,0.9,0.1,1.4v4.2H451.5z"/>
	</g>
</g>
<g id="Ebene_4">
	<line class="st11" x1="141.6" y1="55.8" x2="203.4" y2="55.8"/>
	<polygon class="st1" points="198.8,61.5 197.8,60.5 202.9,55.8 197.8,51.1 198.8,50.1 204.9,55.8 	"/>
</g>
</svg>
