<svg xmlns="http://www.w3.org/2000/svg" xmlns:xlink="http://www.w3.org/1999/xlink" viewBox="0 0 591.12 145.02"><defs><style>.cls-1,.cls-20,.cls-21,.cls-22,.cls-4,.cls-5{fill:none;}.cls-2{font-size:18px;}.cls-15,.cls-2,.cls-6{font-family:RobotoSlab-Bold, Roboto Slab;}.cls-15,.cls-18,.cls-2,.cls-6{font-weight:700;}.cls-3{fill:url(#Unbenannter_Verlauf_12);}.cls-4,.cls-5,.cls-9{stroke:#fc0;}.cls-14,.cls-21,.cls-22,.cls-4{stroke-miterlimit:10;}.cls-14,.cls-20,.cls-21,.cls-22,.cls-4,.cls-5,.cls-9{stroke-width:2px;}.cls-20,.cls-5,.cls-9{stroke-linecap:round;stroke-linejoin:round;}.cls-6{font-size:11px;}.cls-10,.cls-6{fill:#fc0;}.cls-7{letter-spacing:-0.01em;}.cls-8{letter-spacing:-0.04em;}.cls-14,.cls-9{fill:#fff;}.cls-11{clip-path:url(#clip-path);}.cls-12{fill:#ffd138;}.cls-13{fill:#fdfeff;}.cls-14{stroke:#306;}.cls-15{font-size:12.24px;}.cls-15,.cls-18{fill:#306;}.cls-16{letter-spacing:-0.01em;}.cls-17{letter-spacing:-0.04em;}.cls-18{font-size:15px;font-family:PTSans-Bold, PT Sans;}.cls-19{letter-spacing:-0.01em;}.cls-20,.cls-21,.cls-22{stroke:#39f;}.cls-22{stroke-dasharray:2.01 2.01;}.cls-23{fill:#39f;}</style><linearGradient id="Unbenannter_Verlauf_12" x1="356.88" y1="99.47" x2="587.26" y2="99.47" gradientUnits="userSpaceOnUse"><stop offset="0" stop-color="#906"/><stop offset="0.19" stop-color="#780066"/><stop offset="0.4" stop-color="#5a0066"/><stop offset="0.61" stop-color="#406"/><stop offset="0.81" stop-color="#370066"/><stop offset="1" stop-color="#306"/></linearGradient><clipPath id="clip-path"><rect class="cls-1" x="453.02" y="121.97" width="36.34" height="7.12"/></clipPath></defs><title>dockerfile</title><g id="Ebene_2" data-name="Ebene 2"><text class="cls-2" transform="translate(5.57 35.04)">DOCKERFILE</text><rect class="cls-3" x="356.88" y="61.72" width="230.39" height="75.5" rx="5"/><rect class="cls-4" x="356.88" y="61.72" width="230.39" height="75.5" rx="5"/><rect class="cls-5" x="380.31" y="84" width="181.98" height="27.21" rx="5"/><text class="cls-6" transform="translate(422.77 101.16)">Ap<tspan class="cls-7" x="14.56" y="0">p</tspan><tspan x="21.11" y="0">lic</tspan><tspan class="cls-8" x="33.96" y="0">a</tspan><tspan x="39.58" y="0">tion image</tspan></text><path class="cls-9" d="M463.37,50.94a11.74,11.74,0,1,1-3.51,8.39,11.52,11.52,0,0,1,2.4-7.1"/><path class="cls-5" d="M471.62,65h-4.25c-.58,0-.8-.22-.8-.8V57.71c0-.58.22-.81.8-.81h8.46c.55,0,.77.23.77.77v6.5c0,.54-.22.77-.77.77C474.41,65,473,65,471.62,65Z"/><path class="cls-5" d="M467.26,56.34a4.53,4.53,0,0,1,2.64-4.14,4.21,4.21,0,0,1,5.78,2.86c.09.38.13.77.23,1.18"/><path class="cls-10" d="M470.91,62.21h0v.86c0,.17.07.23.26.23H472c.22,0,.28-.06.28-.26V61.43a.37.37,0,0,1,.23-.38,1.21,1.21,0,0,0,.61-1.45,1.54,1.54,0,0,0-1.45-1,1.62,1.62,0,0,0-1.6.87,1.19,1.19,0,0,0,.54,1.51.41.41,0,0,1,.26.48A5.86,5.86,0,0,1,470.91,62.21Z"/><g id="Scone_logo_white" data-name="Scone logo white"><g class="cls-11"><g class="cls-11"><path class="cls-12" d="M457.83,123.78h-.76a.29.29,0,0,0-.29.29v.78a.29.29,0,0,0,.29.29h.76a.29.29,0,0,0,.29-.29v-.78a.29.29,0,0,0-.29-.29m-2.65,1.36h.76a.3.3,0,0,0,.3-.29v-.78a.3.3,0,0,0-.3-.29h-.76a.29.29,0,0,0-.29.29v.78a.29.29,0,0,0,.29.29m-.82-.29v-.78a.29.29,0,0,0-.29-.29h-.76a.29.29,0,0,0-.29.29v.78a.29.29,0,0,0,.29.29h.76a.29.29,0,0,0,.29-.29m3.53.83a.22.22,0,0,0-.22.22v.91a.22.22,0,0,0,.44,0v-.91a.21.21,0,0,0-.22-.22m-2.09.29v.78a.29.29,0,0,0,.29.29h.76a.29.29,0,0,0,.29-.29V126a.29.29,0,0,0-.29-.29h-.76a.29.29,0,0,0-.29.29m-.54.78V126a.3.3,0,0,0-.3-.29h-.76a.29.29,0,0,0-.29.29v.78a.29.29,0,0,0,.29.29H455a.3.3,0,0,0,.3-.29m2.57.83h-.76a.3.3,0,0,0-.29.3v.77a.29.29,0,0,0,.29.29h.76a.29.29,0,0,0,.29-.29v-.77a.3.3,0,0,0-.29-.3m-2,0h-.77a.3.3,0,0,0-.29.3v.77a.29.29,0,0,0,.29.29h.77a.29.29,0,0,0,.29-.29v-.77a.3.3,0,0,0-.29-.3"/><path class="cls-12" d="M458.75,123.47a1.76,1.76,0,0,0,1.19.37s0,0,0,.06V126c0,.8-1,1.3-1.21,1.43,0,0,0,0,0,0v-3.92s0,0,0,0"/><path class="cls-12" d="M456.46,123.37c1.61-.06,1.87-.62,1.87-.62a.07.07,0,0,1,.07,0s.06,0,.07,0,.25.6,1.86.6c.05,0,.06,0,.06.07v2.75c0,.88-1.67,1.88-1.7,1.89s-.05,0-.05.06v.69s.1,0,.14,0c.62-.34,2.34-1.29,2.34-2.46v-3.51c0-.06-.1-.11-.16-.11-2,0-2.43-.74-2.43-.74s-.08,0-.13,0-.07,0-.09,0-.33.78-2.37.78c-.07,0-.08,0-.08.09v.44s0,.1.05.1.55,0,.55,0"/><path class="cls-13" d="M462.65,127.86l.82-.31a1.12,1.12,0,0,0,1.06.62,1.2,1.2,0,0,0,.63-.15.49.49,0,0,0,.27-.44c0-.44-.6-.7-1-.87l0,0a3.43,3.43,0,0,1-.95-.53,1.16,1.16,0,0,1-.47-1,1.27,1.27,0,0,1,.48-1,1.85,1.85,0,0,1,1.22-.41,1.76,1.76,0,0,1,1.61.88l-.85.32a.64.64,0,0,0-.3-.31,1.11,1.11,0,0,0-.46-.1c-.47,0-.79.25-.79.58a.66.66,0,0,0,.32.53,4.16,4.16,0,0,0,.73.38l.1,0c.63.26,1.41.6,1.41,1.44a1.21,1.21,0,0,1-.56,1,2.23,2.23,0,0,1-1.33.38,1.92,1.92,0,0,1-1.87-1.11"/><path class="cls-13" d="M469.9,129a2.54,2.54,0,0,1-1-.21,2.33,2.33,0,0,1-.81-.55,2.4,2.4,0,0,1-.56-.82,2.53,2.53,0,0,1,0-2,2.31,2.31,0,0,1,.56-.82,2.36,2.36,0,0,1,.81-.56,2.71,2.71,0,0,1,1-.2,2.56,2.56,0,0,1,1.18.28,2.65,2.65,0,0,1,.89.74l-.69.51a1.78,1.78,0,0,0-.6-.49,1.8,1.8,0,0,0-.79-.19,1.74,1.74,0,0,0-1.74,1.74,1.74,1.74,0,0,0,1.74,1.74,1.72,1.72,0,0,0,.88-.25,1.84,1.84,0,0,0,.63-.64l.74.42a2.5,2.5,0,0,1-.93,1,2.38,2.38,0,0,1-1.31.37"/><path class="cls-13" d="M475.57,129a2.67,2.67,0,0,1-1-.2,2.31,2.31,0,0,1-.82-.56,2.44,2.44,0,0,1-.56-.82,2.67,2.67,0,0,1-.2-1,2.53,2.53,0,0,1,.2-1,2.66,2.66,0,0,1,.56-.82,2.88,2.88,0,0,1,.82-.55,2.53,2.53,0,0,1,2,0,2.52,2.52,0,0,1,.82.55,2.81,2.81,0,0,1,.55.82,2.54,2.54,0,0,1,.21,1,2.5,2.5,0,0,1-.21,1,2.57,2.57,0,0,1-.55.82,2.72,2.72,0,0,1-.82.56,2.67,2.67,0,0,1-1,.2m0-4.34a1.66,1.66,0,0,0-1.23.51,1.74,1.74,0,0,0-.51,1.23,1.66,1.66,0,0,0,.51,1.23,1.74,1.74,0,0,0,2.46,0,1.74,1.74,0,0,0,.51-1.23,1.78,1.78,0,0,0-.51-1.23,1.74,1.74,0,0,0-1.23-.51"/><polygon class="cls-13" points="484.04 123.82 484.04 129.09 480.41 125.75 480.41 128.89 479.49 128.89 479.49 123.63 483.12 126.98 483.12 123.82 484.04 123.82"/><polygon class="cls-13" points="486.51 124.6 486.51 125.94 489.05 125.94 489.05 126.73 486.51 126.73 486.51 128.1 489.35 128.1 489.35 128.89 485.59 128.89 485.59 123.82 489.35 123.82 489.35 124.61 486.51 124.61 486.51 124.6"/></g></g></g><rect class="cls-14" x="5.57" y="82.16" width="164.17" height="30.61" rx="5"/><text class="cls-15" transform="translate(39.03 101.35)">Ap<tspan class="cls-16" x="16.21" y="0">p</tspan><tspan x="23.5" y="0">lic</tspan><tspan class="cls-17" x="37.8" y="0">a</tspan><tspan x="44.05" y="0">tion code</tspan></text><text class="cls-18" transform="translate(244.89 88.45)">Doc<tspan class="cls-19" x="24.25" y="0">k</tspan><tspan x="31.44" y="0">erfile</tspan></text><path class="cls-20" d="M209.07,84.18a1.7,1.7,0,0,1-1.7-1.67,1.7,1.7,0,0,1,3.4,0,1.65,1.65,0,0,1-1.7,1.67Z"/><path class="cls-20" d="M230.53,75.22A4.86,4.86,0,0,0,228.42,72l-.44-.34-.34.44a4.39,4.39,0,0,0-.82,3.07,4.28,4.28,0,0,0,.75,2c-.34.14-.75.35-1.09.48a5.77,5.77,0,0,1-2.25.34H202.77l-.1.48a9.65,9.65,0,0,0,.78,4.63l.34.62v.1c2,3.3,5.62,4.8,9.47,4.8,7.5,0,13.63-3.27,16.52-10.12,1.88.11,3.82-.44,4.74-2.21l.3-.44-.44-.21a5.15,5.15,0,0,0-3.85-.41Z"/><rect class="cls-20" x="215.99" y="72.6" width="2.96" height="2.9"/><rect class="cls-20" x="215.99" y="67.39" width="2.96" height="2.9"/><rect class="cls-20" x="221.16" y="72.6" width="2.96" height="2.9"/><polygon class="cls-20" points="208.56 72.6 205.6 72.6 205.6 75.53 208.56 75.53 208.56 72.6"/><rect class="cls-20" x="210.84" y="72.6" width="2.96" height="2.9"/><rect class="cls-20" x="210.84" y="67.39" width="2.96" height="2.9"/><rect class="cls-20" x="215.99" y="62.18" width="2.96" height="2.9"/><line class="cls-21" x1="345.67" y1="98.61" x2="344.67" y2="98.61"/><line class="cls-22" x1="342.66" y1="98.61" x2="182.77" y2="98.61"/><line class="cls-21" x1="181.76" y1="98.61" x2="180.76" y2="98.61"/><polygon class="cls-23" points="339.05 90.44 337.68 91.9 344.9 98.61 337.68 105.33 339.05 106.79 347.84 98.61 339.05 90.44"/></g></svg>