<?xml version="1.0" encoding="utf-8"?>
<!-- Generator: Adobe Illustrator 24.0.0, SVG Export Plug-In . SVG Version: 6.00 Build 0)  -->
<svg version="1.1" id="Ebene_1" xmlns="http://www.w3.org/2000/svg" xmlns:xlink="http://www.w3.org/1999/xlink" x="0px" y="0px"
	 viewBox="0 0 591.1 145" style="enable-background:new 0 0 591.1 145;" xml:space="preserve">
<style type="text/css">
	.st0{enable-background:new    ;}
	.st1{fill:url(#SVGID_1_);}
	.st2{fill:none;stroke:#FFCC00;stroke-width:2;stroke-miterlimit:10;}
	.st3{fill:none;stroke:#FFCC00;stroke-width:2;stroke-linecap:round;stroke-linejoin:round;}
	.st4{fill:#FFCC00;}
	.st5{fill:#FFFFFF;stroke:#FFCC00;stroke-width:2;stroke-linecap:round;stroke-linejoin:round;}
	.st6{clip-path:url(#SVGID_3_);}
	.st7{clip-path:url(#SVGID_5_);}
	.st8{fill:#FFD138;}
	.st9{fill:#FDFEFF;}
	.st10{fill:#FFFFFF;stroke:#330066;stroke-width:2;stroke-miterlimit:10;}
	.st11{fill:#330066;}
	.st12{fill:none;stroke:#FFCC00;stroke-width:2;stroke-miterlimit:10;stroke-dasharray:2.01,2.01;}
</style>
<title>dockerfile</title>
<g id="Ebene_2_1_">
	<g class="st0">
		<path d="M11.8,22.2c1.6,0,2.9,0.5,3.9,1.5c1,1,1.5,2.3,1.5,3.8v2.1c0,1.6-0.5,2.9-1.5,3.8c-1,1-2.3,1.5-3.9,1.5H6.1v-1.5l1.4-0.3
			v-9.2l-1.4-0.3v-1.5h1.4H11.8z M10,24.2v8.9h1.7c0.9,0,1.6-0.3,2.2-0.9s0.8-1.4,0.8-2.4v-2.1c0-1-0.3-1.8-0.8-2.4
			s-1.2-0.9-2.2-0.9H10z"/>
		<path d="M30.2,28.7c0,1.9-0.5,3.4-1.6,4.6s-2.5,1.8-4.2,1.8c-1.7,0-3.1-0.6-4.2-1.8s-1.6-2.8-1.6-4.6v-0.2c0-1.9,0.5-3.4,1.6-4.6
			s2.5-1.8,4.2-1.8c1.7,0,3.1,0.6,4.2,1.8s1.6,2.8,1.6,4.6V28.7z M27.6,28.5c0-1.3-0.3-2.4-0.8-3.2s-1.4-1.2-2.4-1.2
			s-1.9,0.4-2.4,1.2s-0.8,1.9-0.8,3.2v0.2c0,1.3,0.3,2.4,0.8,3.3s1.3,1.2,2.4,1.2c1.1,0,1.9-0.4,2.4-1.2s0.8-1.9,0.8-3.3V28.5z"/>
		<path d="M41.7,26.6h-1.9l-0.3-1.7c-0.3-0.3-0.6-0.5-1-0.6S37.7,24,37.2,24c-1.1,0-2,0.4-2.6,1.2s-0.9,1.9-0.9,3.2v0.4
			c0,1.3,0.3,2.4,0.9,3.2s1.4,1.2,2.5,1.2c0.5,0,1-0.1,1.4-0.2s0.7-0.3,1-0.6l0.3-1.7h1.9v2.5c-0.5,0.6-1.2,1.1-2,1.4
			C38.9,35,38,35.2,37,35.2c-1.7,0-3.1-0.6-4.2-1.8s-1.6-2.7-1.6-4.6v-0.4c0-1.9,0.5-3.4,1.6-4.6s2.5-1.8,4.2-1.8
			c1,0,1.9,0.2,2.7,0.5c0.8,0.4,1.5,0.8,2,1.4V26.6z"/>
		<path d="M42.9,33.5l1.4-0.3v-9.2l-1.4-0.3v-1.5h5.2v1.5l-1.3,0.3v3.4h1.1l2.5-3.6l-0.8-0.1v-1.5h5.1v1.5L53.3,24l-3.1,4.2l3.5,5.1
			l1.3,0.2V35h-5.1v-1.5l0.8-0.1l-2.5-3.7h-1.4v3.5l1.3,0.3V35h-5.2V33.5z"/>
		<path d="M64,29.4h-4.3v3.7h4.1l0.1-1.5h2V35H55.7v-1.5l1.4-0.3v-9.2l-1.4-0.3v-1.5h1.4h8.7v3.5h-2l-0.1-1.5h-4.1v3.2H64V29.4z"/>
		<path d="M73,22.2c1.5,0,2.6,0.3,3.4,1s1.2,1.6,1.2,2.8c0,0.6-0.2,1.2-0.5,1.7s-0.9,0.9-1.5,1.2c0.8,0.2,1.3,0.6,1.6,1.1
			c0.3,0.5,0.5,1.2,0.5,1.9v0.7c0,0.3,0.1,0.5,0.2,0.7s0.3,0.2,0.6,0.3l0.3,0V35h-1.3c-0.8,0-1.4-0.2-1.8-0.7s-0.5-1-0.5-1.7v-0.7
			c0-0.6-0.2-1.1-0.5-1.5c-0.3-0.4-0.8-0.5-1.4-0.6h-2.1v3.4l1.4,0.3V35h-5.3v-1.5l1.4-0.3v-9.2l-1.4-0.3v-1.5h1.4H73z M71.1,27.9
			h1.8c0.7,0,1.3-0.2,1.6-0.5s0.5-0.7,0.5-1.3s-0.2-1-0.5-1.4c-0.4-0.3-0.9-0.5-1.6-0.5h-1.8V27.9z"/>
		<path d="M79.6,33.5l1.4-0.3v-9.2l-1.4-0.3v-1.5h10.2v3.5h-2l-0.1-1.5h-4.2v3.5H88v2h-4.5v3.5l1.4,0.3V35h-5.3V33.5z"/>
		<path d="M90.7,23.8v-1.5H96v1.5l-1.4,0.3v9.2l1.4,0.3V35h-5.3v-1.5l1.4-0.3v-9.2L90.7,23.8z"/>
		<path d="M97,35v-1.5l1.4-0.3v-9.2L97,23.8v-1.5h1.4h2.6h1.4v1.5l-1.4,0.3v9h3.6l0.1-1.6h2V35H97z"/>
		<path d="M115.8,29.4h-4.3v3.7h4.1l0.1-1.5h2V35h-10.1v-1.5l1.4-0.3v-9.2l-1.4-0.3v-1.5h1.4h8.7v3.5h-2l-0.1-1.5h-4.1v3.2h4.3V29.4
			z"/>
	</g>
	
		<linearGradient id="SVGID_1_" gradientUnits="userSpaceOnUse" x1="356.88" y1="48.53" x2="587.27" y2="48.53" gradientTransform="matrix(1 0 0 -1 0 148)">
		<stop  offset="0" style="stop-color:#990066"/>
		<stop  offset="0.19" style="stop-color:#780066"/>
		<stop  offset="0.4" style="stop-color:#5A0066"/>
		<stop  offset="0.61" style="stop-color:#440066"/>
		<stop  offset="0.81" style="stop-color:#370066"/>
		<stop  offset="1" style="stop-color:#330066"/>
	</linearGradient>
	<path class="st1" d="M361.9,61.7h220.4c2.8,0,5,2.2,5,5v65.5c0,2.8-2.2,5-5,5H361.9c-2.8,0-5-2.2-5-5V66.7
		C356.9,64,359.1,61.7,361.9,61.7z"/>
	<path class="st2" d="M361.9,61.7h220.4c2.8,0,5,2.2,5,5v65.5c0,2.8-2.2,5-5,5H361.9c-2.8,0-5-2.2-5-5V66.7
		C356.9,64,359.1,61.7,361.9,61.7z"/>
	<path class="st3" d="M385.3,84h172c2.8,0,5,2.2,5,5v17.2c0,2.8-2.2,5-5,5h-172c-2.8,0-5-2.2-5-5V89C380.3,86.2,382.5,84,385.3,84z"
		/>
	<g class="st0">
		<path class="st4" d="M427.7,101.2c0-0.1-0.1-0.2-0.1-0.3c0-0.1-0.1-0.2-0.1-0.3c-0.2,0.2-0.4,0.4-0.7,0.5
			c-0.3,0.1-0.6,0.2-0.9,0.2c-0.6,0-1-0.2-1.4-0.5s-0.5-0.7-0.5-1.3c0-0.5,0.2-1,0.7-1.3c0.4-0.3,1.1-0.4,1.9-0.4h0.8v-0.6
			c0-0.3-0.1-0.5-0.2-0.6s-0.4-0.2-0.7-0.2c-0.2,0-0.3,0-0.5,0.1s-0.3,0.1-0.3,0.1l-0.1,0.6h-1.2l0-1.3c0.3-0.2,0.6-0.4,1-0.5
			c0.4-0.1,0.8-0.2,1.2-0.2c0.7,0,1.3,0.2,1.8,0.5c0.4,0.4,0.7,0.9,0.7,1.5v2.4c0,0.1,0,0.2,0,0.3c0,0.1,0,0.2,0,0.2l0.5,0.1v0.9
			H427.7z M426.4,100.1c0.2,0,0.5-0.1,0.6-0.2c0.2-0.1,0.3-0.2,0.5-0.4v-0.9h-0.8c-0.3,0-0.6,0.1-0.8,0.2c-0.2,0.2-0.3,0.3-0.3,0.6
			c0,0.2,0.1,0.4,0.2,0.5C426,100.1,426.2,100.1,426.4,100.1z"/>
		<path class="st4" d="M430,96.3v-0.9h2.3l0.1,0.7c0.2-0.3,0.4-0.4,0.6-0.6c0.2-0.1,0.5-0.2,0.8-0.2c0.7,0,1.3,0.3,1.7,0.8
			c0.4,0.6,0.6,1.3,0.6,2.2v0.1c0,0.9-0.2,1.5-0.6,2.1c-0.4,0.5-1,0.8-1.7,0.8c-0.3,0-0.6-0.1-0.8-0.2c-0.2-0.1-0.4-0.3-0.6-0.5v1.7
			l0.8,0.2v0.9H430v-0.9l0.8-0.2v-5.8L430,96.3z M434.5,98.3c0-0.5-0.1-1-0.3-1.3s-0.5-0.5-0.8-0.5c-0.2,0-0.4,0-0.6,0.1
			c-0.2,0.1-0.3,0.2-0.4,0.4v2.5c0.1,0.2,0.2,0.3,0.4,0.4c0.2,0.1,0.4,0.1,0.6,0.1c0.4,0,0.7-0.1,0.8-0.4c0.2-0.3,0.3-0.7,0.3-1.2
			V98.3z"/>
	</g>
	<g class="st0">
		<path class="st4" d="M436.6,96.3v-0.9h2.3L439,96c0.2-0.3,0.4-0.4,0.6-0.6c0.2-0.1,0.5-0.2,0.8-0.2c0.7,0,1.3,0.3,1.7,0.8
			c0.4,0.6,0.6,1.3,0.6,2.2v0.1c0,0.9-0.2,1.5-0.6,2.1c-0.4,0.5-1,0.8-1.7,0.8c-0.3,0-0.6-0.1-0.8-0.2c-0.2-0.1-0.4-0.3-0.6-0.5v1.7
			l0.8,0.2v0.9h-3.1v-0.9l0.8-0.2v-5.8L436.6,96.3z M441.1,98.3c0-0.5-0.1-1-0.3-1.3s-0.5-0.5-0.8-0.5c-0.2,0-0.4,0-0.6,0.1
			c-0.2,0.1-0.3,0.2-0.4,0.4v2.5c0.1,0.2,0.2,0.3,0.4,0.4c0.2,0.1,0.4,0.1,0.6,0.1c0.4,0,0.7-0.1,0.8-0.4c0.2-0.3,0.3-0.7,0.3-1.2
			V98.3z"/>
	</g>
	<g class="st0">
		<path class="st4" d="M443.1,93.7v-0.9h2.4v7.3l0.8,0.2v0.9h-3.1v-0.9l0.8-0.2v-6.2L443.1,93.7z"/>
		<path class="st4" d="M446.8,100.2l0.8-0.2v-3.6l-0.8-0.2v-0.9h2.4v4.7l0.8,0.2v0.9h-3.1V100.2z M449.1,94h-1.6v-1.2h1.6V94z"/>
		<path class="st4" d="M453.1,100.1c0.3,0,0.5-0.1,0.7-0.2c0.2-0.2,0.3-0.4,0.3-0.7h1.4l0,0c0,0.6-0.2,1.1-0.7,1.5s-1,0.6-1.7,0.6
			c-0.9,0-1.5-0.3-2-0.8c-0.5-0.5-0.7-1.3-0.7-2.1v-0.2c0-0.9,0.2-1.6,0.7-2.1c0.5-0.6,1.2-0.8,2.1-0.8c0.5,0,0.9,0.1,1.3,0.2
			c0.4,0.1,0.7,0.3,0.9,0.6l0,1.6h-1.3l-0.3-0.9c-0.1-0.1-0.2-0.1-0.3-0.2c-0.1,0-0.2-0.1-0.4-0.1c-0.4,0-0.8,0.2-0.9,0.5
			c-0.2,0.3-0.3,0.7-0.3,1.2v0.2c0,0.5,0.1,0.9,0.3,1.3C452.4,99.9,452.7,100.1,453.1,100.1z"/>
	</g>
	<g class="st0">
		<path class="st4" d="M459.8,101.2c0-0.1-0.1-0.2-0.1-0.3c0-0.1-0.1-0.2-0.1-0.3c-0.2,0.2-0.4,0.4-0.7,0.5s-0.6,0.2-0.9,0.2
			c-0.6,0-1-0.2-1.4-0.5c-0.3-0.3-0.5-0.7-0.5-1.3c0-0.5,0.2-1,0.7-1.3c0.4-0.3,1.1-0.4,1.9-0.4h0.8v-0.6c0-0.3-0.1-0.5-0.2-0.6
			s-0.4-0.2-0.7-0.2c-0.2,0-0.3,0-0.5,0.1s-0.3,0.1-0.3,0.1l-0.1,0.6h-1.2l0-1.3c0.3-0.2,0.6-0.4,1-0.5c0.4-0.1,0.8-0.2,1.2-0.2
			c0.7,0,1.3,0.2,1.8,0.5s0.7,0.9,0.7,1.5v2.4c0,0.1,0,0.2,0,0.3c0,0.1,0,0.2,0,0.2l0.5,0.1v0.9H459.8z M458.5,100.1
			c0.2,0,0.5-0.1,0.6-0.2c0.2-0.1,0.3-0.2,0.5-0.4v-0.9h-0.8c-0.3,0-0.6,0.1-0.8,0.2c-0.2,0.2-0.3,0.3-0.3,0.6
			c0,0.2,0.1,0.4,0.2,0.5S458.3,100.1,458.5,100.1z"/>
	</g>
	<g class="st0">
		<path class="st4" d="M464.1,93.9v1.4h1v1.1h-1v3c0,0.2,0,0.4,0.1,0.5c0.1,0.1,0.2,0.1,0.4,0.1c0.1,0,0.2,0,0.3,0
			c0.1,0,0.2,0,0.3,0l0.1,1.1c-0.2,0.1-0.3,0.1-0.5,0.1c-0.2,0-0.4,0-0.6,0c-0.5,0-1-0.1-1.2-0.4s-0.4-0.8-0.4-1.4v-3h-0.9v-1.1h0.9
			v-1.4H464.1z"/>
		<path class="st4" d="M465.8,100.2l0.8-0.2v-3.6l-0.8-0.2v-0.9h2.4v4.7l0.8,0.2v0.9h-3.1V100.2z M468.1,94h-1.6v-1.2h1.6V94z"/>
		<path class="st4" d="M469.4,98.2c0-0.9,0.2-1.6,0.7-2.1c0.5-0.6,1.2-0.8,2-0.8c0.9,0,1.5,0.3,2,0.8s0.7,1.3,0.7,2.1v0.1
			c0,0.9-0.2,1.6-0.7,2.1s-1.2,0.8-2,0.8c-0.9,0-1.5-0.3-2-0.8s-0.7-1.3-0.7-2.1V98.2z M471,98.3c0,0.5,0.1,1,0.3,1.3
			c0.2,0.3,0.5,0.5,0.9,0.5c0.4,0,0.7-0.2,0.9-0.5c0.2-0.3,0.3-0.7,0.3-1.3v-0.1c0-0.5-0.1-0.9-0.3-1.3c-0.2-0.3-0.5-0.5-0.9-0.5
			s-0.7,0.2-0.9,0.5c-0.2,0.3-0.3,0.7-0.3,1.3V98.3z"/>
		<path class="st4" d="M475.5,100.2l0.8-0.2v-3.6l-0.8-0.2v-0.9h2.3l0.1,0.8c0.2-0.3,0.4-0.5,0.7-0.7c0.3-0.2,0.6-0.2,1-0.2
			c0.6,0,1,0.2,1.4,0.6c0.3,0.4,0.5,0.9,0.5,1.7v2.5l0.8,0.2v0.9h-3v-0.9l0.7-0.2v-2.5c0-0.4-0.1-0.7-0.2-0.8
			c-0.2-0.2-0.4-0.2-0.7-0.2c-0.2,0-0.4,0-0.6,0.1c-0.2,0.1-0.3,0.2-0.4,0.4v3.1l0.6,0.2v0.9h-3V100.2z"/>
		<path class="st4" d="M485.2,100.2l0.8-0.2v-3.6l-0.8-0.2v-0.9h2.4v4.7l0.8,0.2v0.9h-3.1V100.2z M487.5,94H486v-1.2h1.6V94z"/>
		<path class="st4" d="M488.6,96.3v-0.9h2.3l0.1,0.8c0.2-0.3,0.4-0.5,0.7-0.6s0.6-0.2,1-0.2c0.4,0,0.7,0.1,1,0.2
			c0.3,0.2,0.5,0.4,0.6,0.7c0.2-0.3,0.4-0.6,0.7-0.7c0.3-0.2,0.6-0.3,1-0.3c0.6,0,1,0.2,1.4,0.6s0.5,1,0.5,1.8v2.4l0.8,0.2v0.9h-3
			v-0.9l0.7-0.2v-2.4c0-0.4-0.1-0.7-0.2-0.9c-0.1-0.2-0.4-0.3-0.6-0.3c-0.2,0-0.4,0-0.6,0.1s-0.3,0.2-0.4,0.4c0,0.1,0,0.1,0,0.2
			c0,0,0,0.1,0,0.1v2.7l0.6,0.2v0.9h-2.8v-0.9l0.6-0.2v-2.4c0-0.4-0.1-0.7-0.2-0.9c-0.1-0.2-0.4-0.3-0.6-0.3c-0.2,0-0.4,0-0.6,0.1
			c-0.2,0.1-0.3,0.2-0.4,0.3v3.1l0.7,0.2v0.9h-3v-0.9l0.8-0.2v-3.6L488.6,96.3z"/>
		<path class="st4" d="M502.7,101.2c0-0.1-0.1-0.2-0.1-0.3c0-0.1-0.1-0.2-0.1-0.3c-0.2,0.2-0.4,0.4-0.7,0.5
			c-0.3,0.1-0.6,0.2-0.9,0.2c-0.6,0-1-0.2-1.4-0.5s-0.5-0.7-0.5-1.3c0-0.5,0.2-1,0.7-1.3c0.4-0.3,1.1-0.4,1.9-0.4h0.8v-0.6
			c0-0.3-0.1-0.5-0.2-0.6s-0.4-0.2-0.7-0.2c-0.2,0-0.3,0-0.5,0.1s-0.3,0.1-0.3,0.1l-0.1,0.6h-1.2l0-1.3c0.3-0.2,0.6-0.4,1-0.5
			c0.4-0.1,0.8-0.2,1.2-0.2c0.7,0,1.3,0.2,1.8,0.5c0.4,0.4,0.7,0.9,0.7,1.5v2.4c0,0.1,0,0.2,0,0.3c0,0.1,0,0.2,0,0.2l0.5,0.1v0.9
			H502.7z M501.4,100.1c0.2,0,0.5-0.1,0.6-0.2c0.2-0.1,0.3-0.2,0.5-0.4v-0.9h-0.8c-0.3,0-0.6,0.1-0.8,0.2c-0.2,0.2-0.3,0.3-0.3,0.6
			c0,0.2,0.1,0.4,0.2,0.5C501,100.1,501.1,100.1,501.4,100.1z"/>
		<path class="st4" d="M505.2,98.3c0-0.9,0.2-1.7,0.6-2.2c0.4-0.6,1-0.8,1.7-0.8c0.3,0,0.6,0.1,0.9,0.2c0.2,0.1,0.5,0.4,0.6,0.6
			l0.1-0.7h1.4v5.6c0,0.8-0.2,1.4-0.7,1.8c-0.5,0.5-1.1,0.7-2,0.7c-0.3,0-0.6,0-0.9-0.1c-0.3-0.1-0.6-0.2-0.9-0.3l0.3-1.1
			c0.3,0.1,0.5,0.2,0.8,0.3c0.3,0.1,0.5,0.1,0.8,0.1c0.4,0,0.7-0.1,0.9-0.3c0.2-0.2,0.3-0.6,0.3-1v-0.4c-0.2,0.2-0.4,0.4-0.6,0.5
			c-0.2,0.1-0.5,0.2-0.8,0.2c-0.7,0-1.3-0.3-1.7-0.8s-0.6-1.2-0.6-2.1V98.3z M506.7,98.4c0,0.5,0.1,0.9,0.3,1.2s0.5,0.4,0.8,0.4
			c0.2,0,0.4,0,0.6-0.1c0.2-0.1,0.3-0.2,0.4-0.4V97c-0.1-0.2-0.2-0.3-0.4-0.4c-0.2-0.1-0.4-0.1-0.6-0.1c-0.4,0-0.7,0.2-0.8,0.5
			c-0.2,0.3-0.3,0.8-0.3,1.3V98.4z"/>
		<path class="st4" d="M514.1,101.3c-0.8,0-1.5-0.3-2-0.8c-0.5-0.5-0.8-1.2-0.8-2v-0.2c0-0.9,0.2-1.6,0.7-2.1
			c0.5-0.6,1.1-0.8,1.9-0.8c0.8,0,1.4,0.2,1.8,0.7c0.4,0.5,0.6,1.1,0.6,1.9v0.9H513l0,0c0,0.4,0.2,0.7,0.4,0.9
			c0.2,0.2,0.5,0.4,0.9,0.4c0.3,0,0.6,0,0.9-0.1c0.2-0.1,0.5-0.2,0.8-0.3l0.4,1c-0.2,0.2-0.6,0.3-0.9,0.5
			C515,101.2,514.6,101.3,514.1,101.3z M514,96.4c-0.3,0-0.5,0.1-0.7,0.3c-0.2,0.2-0.3,0.5-0.3,0.9l0,0h1.9v-0.1
			c0-0.3-0.1-0.6-0.2-0.8C514.5,96.5,514.3,96.4,514,96.4z"/>
	</g>
	<path class="st5" d="M463.4,50.9c4.6-4.5,12.1-4.5,16.6,0.1s4.5,12.1-0.1,16.6c-4.6,4.5-12.1,4.5-16.6-0.1
		c-2.2-2.2-3.4-5.1-3.4-8.2c0-2.6,0.8-5.1,2.4-7.1"/>
	<path class="st3" d="M471.6,65h-4.3c-0.6,0-0.8-0.2-0.8-0.8v-6.5c0-0.6,0.2-0.8,0.8-0.8h8.5c0.5,0,0.8,0.2,0.8,0.8v6.5
		c0,0.5-0.2,0.8-0.8,0.8C474.4,65,473,65,471.6,65z"/>
	<path class="st3" d="M467.3,56.3c0-1.8,1-3.4,2.6-4.1c2.1-0.9,4.6,0,5.5,2.2c0.1,0.2,0.2,0.5,0.2,0.7c0.1,0.4,0.1,0.8,0.2,1.2"/>
	<path class="st4" d="M470.9,62.2L470.9,62.2v0.9c0,0.2,0.1,0.2,0.3,0.2h0.8c0.2,0,0.3-0.1,0.3-0.3v-1.6c0-0.2,0.1-0.3,0.2-0.4
		c0.5-0.3,0.8-0.9,0.6-1.5c-0.2-0.6-0.8-1-1.5-1c-0.7-0.1-1.3,0.3-1.6,0.9c-0.2,0.6,0,1.2,0.5,1.5c0.2,0.1,0.3,0.3,0.3,0.5
		C470.9,61.7,470.9,62,470.9,62.2z"/>
	<g id="Scone_logo_white">
		<g>
			<defs>
				<rect id="SVGID_2_" x="453" y="122" width="36.3" height="7.1"/>
			</defs>
			<clipPath id="SVGID_3_">
				<use xlink:href="#SVGID_2_"  style="overflow:visible;"/>
			</clipPath>
			<g class="st6">
				<g>
					<defs>
						<rect id="SVGID_4_" x="453" y="122" width="36.3" height="7.1"/>
					</defs>
					<clipPath id="SVGID_5_">
						<use xlink:href="#SVGID_4_"  style="overflow:visible;"/>
					</clipPath>
					<g class="st7">
						<path class="st8" d="M457.8,123.8h-0.8c-0.2,0-0.3,0.1-0.3,0.3v0v0.8c0,0.2,0.1,0.3,0.3,0.3l0,0h0.8c0.2,0,0.3-0.1,0.3-0.3v0
							v-0.8C458.1,123.9,458,123.8,457.8,123.8L457.8,123.8 M455.2,125.1h0.8c0.2,0,0.3-0.1,0.3-0.3v-0.8c0-0.2-0.1-0.3-0.3-0.3
							h-0.8c-0.2,0-0.3,0.1-0.3,0.3v0v0.8C454.9,125,455,125.1,455.2,125.1L455.2,125.1 M454.4,124.8v-0.8c0-0.2-0.1-0.3-0.3-0.3
							l0,0h-0.8c-0.2,0-0.3,0.1-0.3,0.3v0v0.8c0,0.2,0.1,0.3,0.3,0.3l0,0h0.8C454.2,125.1,454.4,125,454.4,124.8L454.4,124.8
							 M457.9,125.7c-0.1,0-0.2,0.1-0.2,0.2l0,0v0.9c0,0.1,0.1,0.2,0.2,0.2s0.2-0.1,0.2-0.2l0,0v-0.9
							C458.1,125.8,458,125.7,457.9,125.7C457.9,125.7,457.9,125.7,457.9,125.7 M455.8,126v0.8c0,0.2,0.1,0.3,0.3,0.3l0,0h0.8
							c0.2,0,0.3-0.1,0.3-0.3v0V126c0-0.2-0.1-0.3-0.3-0.3l0,0h-0.8C455.9,125.7,455.8,125.8,455.8,126L455.8,126 M455.3,126.8V126
							c0-0.2-0.1-0.3-0.3-0.3h-0.8c-0.2,0-0.3,0.1-0.3,0.3v0v0.8c0,0.2,0.1,0.3,0.3,0.3l0,0h0.8
							C455.2,127.1,455.3,126.9,455.3,126.8 M457.9,127.6h-0.8c-0.2,0-0.3,0.1-0.3,0.3v0.8c0,0.2,0.1,0.3,0.3,0.3l0,0h0.8
							c0.2,0,0.3-0.1,0.3-0.3l0,0v-0.8C458.2,127.7,458,127.6,457.9,127.6 M455.9,127.6h-0.8c-0.2,0-0.3,0.1-0.3,0.3v0.8
							c0,0.2,0.1,0.3,0.3,0.3l0,0h0.8c0.2,0,0.3-0.1,0.3-0.3l0,0v-0.8C456.2,127.7,456,127.6,455.9,127.6"/>
						<path class="st8" d="M458.8,123.5c0.3,0.3,0.8,0.4,1.2,0.4c0,0,0,0,0,0.1v2.1c0,0.8-1,1.3-1.2,1.4l0,0L458.8,123.5
							L458.8,123.5"/>
						<path class="st8" d="M456.5,123.4c1.6-0.1,1.9-0.6,1.9-0.6c0,0,0,0,0.1,0c0,0,0.1,0,0.1,0s0.3,0.6,1.9,0.6c0,0,0.1,0,0.1,0.1
							v2.8c0,0.9-1.7,1.9-1.7,1.9s0,0,0,0.1v0.7c0,0,0.1,0,0.1,0c0.6-0.3,2.3-1.3,2.3-2.5v-3.5c0-0.1-0.1-0.1-0.2-0.1
							c-2,0-2.4-0.7-2.4-0.7s-0.1,0-0.1,0s-0.1,0-0.1,0s-0.3,0.8-2.4,0.8c-0.1,0-0.1,0-0.1,0.1v0.4c0,0,0,0.1,0,0.1
							S456.5,123.4,456.5,123.4"/>
						<path class="st9" d="M462.6,127.9l0.8-0.3c0.2,0.4,0.6,0.6,1.1,0.6c0.2,0,0.4,0,0.6-0.1c0.2-0.1,0.3-0.3,0.3-0.4
							c0-0.4-0.6-0.7-1-0.9l0,0c-0.3-0.1-0.7-0.3-1-0.5c-0.3-0.2-0.5-0.6-0.5-1c0-0.4,0.2-0.8,0.5-1c0.3-0.3,0.8-0.4,1.2-0.4
							c0.7,0,1.3,0.3,1.6,0.9l-0.9,0.3c-0.1-0.1-0.2-0.2-0.3-0.3c-0.1-0.1-0.3-0.1-0.5-0.1c-0.5,0-0.8,0.3-0.8,0.6
							c0,0.2,0.1,0.4,0.3,0.5c0.2,0.2,0.5,0.3,0.7,0.4h0.1c0.6,0.3,1.4,0.6,1.4,1.4c0,0.4-0.2,0.8-0.6,1c-0.4,0.3-0.9,0.4-1.3,0.4
							c-0.8,0.1-1.5-0.4-1.9-1.1"/>
						<path class="st9" d="M469.9,129c-0.3,0-0.7-0.1-1-0.2c-0.3-0.1-0.6-0.3-0.8-0.6c-0.2-0.2-0.4-0.5-0.6-0.8
							c-0.3-0.6-0.3-1.4,0-2c0.1-0.3,0.3-0.6,0.6-0.8c0.2-0.2,0.5-0.4,0.8-0.6c0.3-0.1,0.7-0.2,1-0.2c0.4,0,0.8,0.1,1.2,0.3
							c0.3,0.2,0.7,0.4,0.9,0.7l-0.7,0.5c-0.2-0.2-0.4-0.4-0.6-0.5c-0.2-0.1-0.5-0.2-0.8-0.2c-1,0-1.7,0.8-1.7,1.7
							c0,1,0.8,1.7,1.7,1.7c0.3,0,0.6-0.1,0.9-0.3c0.3-0.2,0.5-0.4,0.6-0.6l0.7,0.4c-0.2,0.4-0.5,0.8-0.9,1
							C470.8,128.9,470.4,129.1,469.9,129"/>
						<path class="st9" d="M475.6,129c-0.3,0-0.7-0.1-1-0.2c-0.3-0.1-0.6-0.3-0.8-0.6c-0.2-0.2-0.4-0.5-0.6-0.8
							c-0.1-0.3-0.2-0.7-0.2-1c0-0.3,0.1-0.7,0.2-1c0.1-0.3,0.3-0.6,0.6-0.8c0.2-0.2,0.5-0.4,0.8-0.6c0.6-0.3,1.4-0.3,2,0
							c0.3,0.1,0.6,0.3,0.8,0.6c0.2,0.2,0.4,0.5,0.5,0.8c0.1,0.3,0.2,0.7,0.2,1c0,0.3-0.1,0.7-0.2,1c-0.1,0.3-0.3,0.6-0.5,0.8
							c-0.2,0.2-0.5,0.4-0.8,0.6C476.3,128.9,475.9,129,475.6,129 M475.6,124.7c-0.5,0-0.9,0.2-1.2,0.5c-0.3,0.3-0.5,0.8-0.5,1.2
							c0,0.5,0.2,0.9,0.5,1.2c0.7,0.7,1.8,0.7,2.5,0c0.3-0.3,0.5-0.8,0.5-1.2c0-0.5-0.2-0.9-0.5-1.2
							C476.5,124.8,476,124.7,475.6,124.7"/>
						<polygon class="st9" points="484,123.8 484,129.1 480.4,125.8 480.4,128.9 479.5,128.9 479.5,123.6 483.1,127 483.1,123.8 
													"/>
						<polygon class="st9" points="486.5,124.6 486.5,125.9 489,125.9 489,126.7 486.5,126.7 486.5,128.1 489.4,128.1 489.4,128.9 
							485.6,128.9 485.6,123.8 489.4,123.8 489.4,124.6 486.5,124.6 						"/>
					</g>
				</g>
			</g>
		</g>
	</g>
	<path class="st10" d="M10.6,82.2h154.2c2.8,0,5,2.2,5,5v20.6c0,2.8-2.2,5-5,5H10.6c-2.8,0-5-2.2-5-5V87.2
		C5.6,84.4,7.8,82.2,10.6,82.2z"/>
	<g class="st0">
		<path class="st11" d="M44.6,101.3c0-0.1-0.1-0.2-0.1-0.3c0-0.1-0.1-0.2-0.1-0.3c-0.2,0.2-0.5,0.4-0.8,0.6s-0.6,0.2-1,0.2
			c-0.6,0-1.1-0.2-1.5-0.5s-0.6-0.8-0.6-1.4c0-0.6,0.2-1.1,0.7-1.4c0.5-0.3,1.2-0.5,2.1-0.5h0.9V97c0-0.3-0.1-0.6-0.3-0.7
			c-0.2-0.2-0.4-0.3-0.8-0.3c-0.2,0-0.4,0-0.5,0.1c-0.2,0-0.3,0.1-0.4,0.2L42.2,97h-1.3l0-1.4c0.3-0.2,0.7-0.4,1.1-0.5
			c0.4-0.1,0.9-0.2,1.3-0.2c0.8,0,1.5,0.2,2,0.6c0.5,0.4,0.8,1,0.8,1.7v2.7c0,0.1,0,0.2,0,0.3c0,0.1,0,0.2,0,0.3l0.5,0.1v1H44.6z
			 M43,100.2c0.3,0,0.5-0.1,0.7-0.2c0.2-0.1,0.4-0.3,0.5-0.4v-1h-0.9c-0.4,0-0.7,0.1-0.8,0.3s-0.3,0.4-0.3,0.6
			c0,0.2,0.1,0.4,0.2,0.5C42.6,100.1,42.8,100.2,43,100.2z"/>
		<path class="st11" d="M47,95.9v-1.1h2.5l0.1,0.8c0.2-0.3,0.4-0.5,0.7-0.6c0.3-0.2,0.6-0.2,0.9-0.2c0.8,0,1.4,0.3,1.9,0.9
			c0.4,0.6,0.7,1.4,0.7,2.5v0.1c0,1-0.2,1.7-0.7,2.3s-1.1,0.9-1.9,0.9c-0.3,0-0.6-0.1-0.9-0.2c-0.3-0.1-0.5-0.3-0.7-0.6v1.9l0.8,0.2
			v1.1h-3.4v-1.1l0.8-0.2v-6.5L47,95.9z M52,98.2c0-0.6-0.1-1.1-0.3-1.5c-0.2-0.4-0.5-0.6-0.9-0.6c-0.3,0-0.5,0.1-0.7,0.2
			c-0.2,0.1-0.3,0.3-0.4,0.5v2.8c0.1,0.2,0.3,0.3,0.4,0.4c0.2,0.1,0.4,0.1,0.7,0.1c0.4,0,0.7-0.2,0.9-0.5c0.2-0.3,0.3-0.8,0.3-1.3
			V98.2z"/>
	</g>
	<g class="st0">
		<path class="st11" d="M54.4,95.9v-1.1H57l0.1,0.8c0.2-0.3,0.4-0.5,0.7-0.6c0.3-0.2,0.6-0.2,0.9-0.2c0.8,0,1.4,0.3,1.9,0.9
			c0.4,0.6,0.7,1.4,0.7,2.5v0.1c0,1-0.2,1.7-0.7,2.3s-1.1,0.9-1.9,0.9c-0.3,0-0.6-0.1-0.9-0.2c-0.3-0.1-0.5-0.3-0.7-0.6v1.9l0.8,0.2
			v1.1h-3.4v-1.1l0.8-0.2v-6.5L54.4,95.9z M59.5,98.2c0-0.6-0.1-1.1-0.3-1.5c-0.2-0.4-0.5-0.6-0.9-0.6c-0.3,0-0.5,0.1-0.7,0.2
			c-0.2,0.1-0.3,0.3-0.4,0.5v2.8c0.1,0.2,0.3,0.3,0.4,0.4c0.2,0.1,0.4,0.1,0.7,0.1c0.4,0,0.7-0.2,0.9-0.5c0.2-0.3,0.3-0.8,0.3-1.3
			V98.2z"/>
	</g>
	<g class="st0">
		<path class="st11" d="M61.7,93.1V92h2.7v8.1l0.8,0.2v1h-3.4v-1l0.8-0.2v-6.9L61.7,93.1z"/>
		<path class="st11" d="M65.7,100.3l0.8-0.2v-4l-0.9-0.2v-1.1h2.7v5.2l0.8,0.2v1h-3.4V100.3z M68.3,93.3h-1.7V92h1.7V93.3z"/>
		<path class="st11" d="M72.8,100.1c0.3,0,0.6-0.1,0.7-0.3c0.2-0.2,0.3-0.4,0.3-0.7h1.6l0,0c0,0.7-0.2,1.2-0.7,1.6
			c-0.5,0.4-1.1,0.7-1.9,0.7c-1,0-1.7-0.3-2.2-0.9c-0.5-0.6-0.8-1.4-0.8-2.3V98c0-1,0.3-1.7,0.8-2.3c0.5-0.6,1.3-0.9,2.3-0.9
			c0.5,0,1,0.1,1.4,0.2c0.4,0.2,0.8,0.4,1,0.7l0,1.7h-1.4l-0.3-1c-0.1-0.1-0.2-0.1-0.3-0.2c-0.1,0-0.3-0.1-0.4-0.1
			c-0.5,0-0.8,0.2-1,0.5c-0.2,0.4-0.3,0.8-0.3,1.4v0.2c0,0.6,0.1,1,0.3,1.4S72.3,100.1,72.8,100.1z"/>
	</g>
	<g class="st0">
		<path class="st11" d="M80.3,101.3c0-0.1-0.1-0.2-0.1-0.3c0-0.1-0.1-0.2-0.1-0.3c-0.2,0.2-0.5,0.4-0.8,0.6s-0.6,0.2-1,0.2
			c-0.6,0-1.1-0.2-1.5-0.5s-0.6-0.8-0.6-1.4c0-0.6,0.2-1.1,0.7-1.4c0.5-0.3,1.2-0.5,2.1-0.5H80V97c0-0.3-0.1-0.6-0.3-0.7
			c-0.2-0.2-0.4-0.3-0.8-0.3c-0.2,0-0.4,0-0.5,0.1c-0.2,0-0.3,0.1-0.4,0.2L77.9,97h-1.3l0-1.4c0.3-0.2,0.7-0.4,1.1-0.5
			c0.4-0.1,0.9-0.2,1.3-0.2c0.8,0,1.5,0.2,2,0.6c0.5,0.4,0.8,1,0.8,1.7v2.7c0,0.1,0,0.2,0,0.3c0,0.1,0,0.2,0,0.3l0.5,0.1v1H80.3z
			 M78.8,100.2c0.3,0,0.5-0.1,0.7-0.2c0.2-0.1,0.4-0.3,0.5-0.4v-1h-0.9c-0.4,0-0.7,0.1-0.8,0.3S78,99.2,78,99.5
			c0,0.2,0.1,0.4,0.2,0.5C78.3,100.1,78.5,100.2,78.8,100.2z"/>
	</g>
	<g class="st0">
		<path class="st11" d="M85,93.3v1.6h1.1v1.2H85v3.3c0,0.3,0.1,0.4,0.2,0.5s0.2,0.2,0.4,0.2c0.1,0,0.2,0,0.3,0c0.1,0,0.2,0,0.3-0.1
			l0.1,1.3c-0.2,0.1-0.4,0.1-0.6,0.1c-0.2,0-0.4,0-0.6,0c-0.6,0-1.1-0.2-1.4-0.5c-0.3-0.3-0.5-0.9-0.5-1.6v-3.3h-1v-1.2h1v-1.6H85z"
			/>
		<path class="st11" d="M86.9,100.3l0.8-0.2v-4l-0.9-0.2v-1.1h2.7v5.2l0.8,0.2v1h-3.4V100.3z M89.5,93.3h-1.7V92h1.7V93.3z"/>
		<path class="st11" d="M90.9,98.1c0-1,0.3-1.8,0.8-2.4c0.5-0.6,1.3-0.9,2.2-0.9c1,0,1.7,0.3,2.2,0.9c0.5,0.6,0.8,1.4,0.8,2.4v0.1
			c0,1-0.3,1.8-0.8,2.4c-0.5,0.6-1.3,0.9-2.2,0.9c-1,0-1.7-0.3-2.3-0.9c-0.5-0.6-0.8-1.4-0.8-2.4V98.1z M92.7,98.2
			c0,0.6,0.1,1.1,0.3,1.4c0.2,0.4,0.5,0.5,1,0.5c0.5,0,0.8-0.2,1-0.5c0.2-0.4,0.3-0.8,0.3-1.4v-0.1c0-0.6-0.1-1-0.3-1.4
			c-0.2-0.4-0.5-0.5-1-0.5c-0.5,0-0.8,0.2-1,0.5c-0.2,0.4-0.3,0.8-0.3,1.4V98.2z"/>
		<path class="st11" d="M97.7,100.3l0.8-0.2v-4l-0.9-0.2v-1.1h2.6l0.1,0.9c0.2-0.3,0.5-0.6,0.8-0.8c0.3-0.2,0.7-0.3,1.1-0.3
			c0.7,0,1.2,0.2,1.5,0.6s0.5,1.1,0.5,1.9v2.8l0.8,0.2v1h-3.3v-1l0.7-0.2v-2.8c0-0.4-0.1-0.7-0.3-0.9c-0.2-0.2-0.4-0.3-0.8-0.3
			c-0.2,0-0.4,0-0.6,0.1c-0.2,0.1-0.3,0.2-0.5,0.4v3.5l0.7,0.2v1h-3.3V100.3z"/>
		<path class="st11" d="M111.6,100.1c0.3,0,0.6-0.1,0.7-0.3c0.2-0.2,0.3-0.4,0.3-0.7h1.6l0,0c0,0.7-0.2,1.2-0.7,1.6
			c-0.5,0.4-1.1,0.7-1.9,0.7c-1,0-1.7-0.3-2.2-0.9c-0.5-0.6-0.8-1.4-0.8-2.3V98c0-1,0.3-1.7,0.8-2.3c0.5-0.6,1.3-0.9,2.3-0.9
			c0.5,0,1,0.1,1.4,0.2c0.4,0.2,0.8,0.4,1,0.7l0,1.7h-1.4l-0.3-1c-0.1-0.1-0.2-0.1-0.3-0.2s-0.3-0.1-0.4-0.1c-0.5,0-0.8,0.2-1,0.5
			c-0.2,0.4-0.3,0.8-0.3,1.4v0.2c0,0.6,0.1,1,0.3,1.4C110.8,100,111.1,100.1,111.6,100.1z"/>
		<path class="st11" d="M115,98.1c0-1,0.3-1.8,0.8-2.4c0.5-0.6,1.3-0.9,2.2-0.9c1,0,1.7,0.3,2.2,0.9c0.5,0.6,0.8,1.4,0.8,2.4v0.1
			c0,1-0.3,1.8-0.8,2.4c-0.5,0.6-1.3,0.9-2.2,0.9c-1,0-1.7-0.3-2.3-0.9c-0.5-0.6-0.8-1.4-0.8-2.4V98.1z M116.8,98.2
			c0,0.6,0.1,1.1,0.3,1.4c0.2,0.4,0.5,0.5,1,0.5c0.5,0,0.8-0.2,1-0.5c0.2-0.4,0.3-0.8,0.3-1.4v-0.1c0-0.6-0.1-1-0.3-1.4
			c-0.2-0.4-0.5-0.5-1-0.5c-0.5,0-0.8,0.2-1,0.5c-0.2,0.4-0.3,0.8-0.3,1.4V98.2z"/>
		<path class="st11" d="M126.1,100.6c-0.2,0.3-0.4,0.5-0.7,0.7s-0.6,0.2-0.9,0.2c-0.8,0-1.4-0.3-1.9-0.9c-0.4-0.6-0.7-1.4-0.7-2.3
			v-0.1c0-1,0.2-1.8,0.7-2.5c0.4-0.6,1.1-0.9,1.9-0.9c0.3,0,0.6,0.1,0.9,0.2c0.3,0.1,0.5,0.3,0.7,0.6v-2.3l-0.9-0.2V92h0.9h1.7v8.1
			l0.8,0.2v1h-2.3L126.1,100.6z M123.6,98.3c0,0.6,0.1,1,0.3,1.3c0.2,0.3,0.5,0.5,0.9,0.5c0.3,0,0.5-0.1,0.7-0.2
			c0.2-0.1,0.3-0.3,0.5-0.4v-2.7c-0.1-0.2-0.3-0.4-0.5-0.5c-0.2-0.1-0.4-0.2-0.7-0.2c-0.4,0-0.7,0.2-0.9,0.6
			c-0.2,0.4-0.3,0.9-0.3,1.5V98.3z"/>
		<path class="st11" d="M132.2,101.5c-0.9,0-1.7-0.3-2.2-0.9c-0.6-0.6-0.8-1.4-0.8-2.3v-0.2c0-1,0.3-1.8,0.8-2.4
			c0.5-0.6,1.2-0.9,2.1-0.9c0.9,0,1.5,0.3,2,0.8c0.5,0.5,0.7,1.2,0.7,2.1v1h-3.9l0,0c0,0.4,0.2,0.8,0.4,1.1c0.3,0.3,0.6,0.4,1,0.4
			c0.4,0,0.7,0,1-0.1c0.3-0.1,0.5-0.2,0.8-0.4l0.5,1.1c-0.3,0.2-0.6,0.4-1,0.5S132.7,101.5,132.2,101.5z M132.1,96.1
			c-0.3,0-0.6,0.1-0.8,0.4c-0.2,0.2-0.3,0.6-0.3,1l0,0h2.1v-0.2c0-0.4-0.1-0.7-0.3-0.9C132.7,96.2,132.4,96.1,132.1,96.1z"/>
	</g>
	<g class="st0">
		<path class="st4" d="M245.8,78c0.2,0,0.4-0.1,0.7-0.1c0.3,0,0.5,0,0.8,0c0.3,0,0.6,0,0.8,0c0.3,0,0.5,0,0.7,0
			c0.9,0,1.7,0.1,2.4,0.4c0.7,0.3,1.2,0.6,1.6,1.1c0.4,0.5,0.7,1,0.9,1.7c0.2,0.7,0.3,1.4,0.3,2.1c0,0.7-0.1,1.4-0.3,2.1
			c-0.2,0.7-0.5,1.2-0.9,1.8c-0.4,0.5-1,0.9-1.7,1.2c-0.7,0.3-1.5,0.5-2.5,0.5c-0.2,0-0.4,0-0.6,0c-0.3,0-0.5,0-0.8,0
			c-0.3,0-0.6,0-0.8,0s-0.5,0-0.6-0.1V78z M249,79.6c-0.2,0-0.4,0-0.7,0s-0.4,0-0.5,0v7c0,0,0.1,0,0.2,0c0.1,0,0.2,0,0.3,0
			s0.2,0,0.3,0c0.1,0,0.2,0,0.2,0c0.6,0,1.1-0.1,1.4-0.3c0.4-0.2,0.7-0.5,0.9-0.8c0.2-0.3,0.4-0.7,0.5-1.2c0.1-0.4,0.1-0.9,0.1-1.4
			c0-0.4,0-0.8-0.1-1.2s-0.2-0.8-0.4-1.1c-0.2-0.3-0.5-0.6-0.9-0.8C250.1,79.7,249.6,79.6,249,79.6z"/>
		<path class="st4" d="M255.1,84.7c0-1.3,0.3-2.2,0.9-2.9c0.6-0.7,1.5-1,2.6-1c0.6,0,1.1,0.1,1.6,0.3c0.4,0.2,0.8,0.5,1.1,0.8
			c0.3,0.3,0.5,0.8,0.7,1.3c0.1,0.5,0.2,1,0.2,1.6c0,1.3-0.3,2.2-0.9,2.9c-0.6,0.7-1.5,1-2.6,1c-0.6,0-1.1-0.1-1.6-0.3
			c-0.4-0.2-0.8-0.5-1.1-0.8c-0.3-0.3-0.5-0.8-0.7-1.3S255.1,85.3,255.1,84.7z M257.1,84.7c0,0.3,0,0.6,0.1,0.9
			c0.1,0.3,0.1,0.5,0.3,0.7c0.1,0.2,0.3,0.4,0.5,0.5c0.2,0.1,0.4,0.2,0.7,0.2c0.5,0,0.9-0.2,1.1-0.6s0.4-1,0.4-1.8
			c0-0.7-0.1-1.2-0.3-1.7c-0.2-0.4-0.6-0.6-1.2-0.6c-0.5,0-0.9,0.2-1.1,0.5C257.2,83.3,257.1,83.9,257.1,84.7z"/>
		<path class="st4" d="M268.8,88c-0.3,0.2-0.7,0.4-1.1,0.5c-0.4,0.1-0.9,0.2-1.3,0.2c-0.6,0-1.1-0.1-1.5-0.3c-0.4-0.2-0.8-0.5-1-0.8
			c-0.3-0.3-0.4-0.8-0.6-1.3c-0.1-0.5-0.2-1-0.2-1.6c0-1.3,0.3-2.2,0.9-2.9c0.6-0.7,1.4-1,2.5-1c0.5,0,1,0,1.3,0.1s0.6,0.2,0.9,0.3
			l-0.5,1.6c-0.2-0.1-0.5-0.2-0.7-0.3c-0.2-0.1-0.5-0.1-0.8-0.1c-0.5,0-0.9,0.2-1.2,0.5c-0.3,0.4-0.4,0.9-0.4,1.7
			c0,0.3,0,0.6,0.1,0.9c0.1,0.3,0.2,0.5,0.3,0.7s0.3,0.4,0.5,0.5c0.2,0.1,0.5,0.2,0.8,0.2c0.3,0,0.6,0,0.8-0.1
			c0.2-0.1,0.4-0.2,0.6-0.3L268.8,88z"/>
	</g>
	<g class="st0">
		<path class="st4" d="M272.5,85.3h-0.5v3.1h-2V78h2v6.2l0.4-0.2l1.7-3h2.1l-1.8,2.8l-0.8,0.6l0.8,0.6l2,3.5h-2.2L272.5,85.3z"/>
	</g>
	<g class="st0">
		<path class="st4" d="M283.2,87.8c-0.3,0.2-0.7,0.4-1.2,0.6s-1.1,0.2-1.6,0.2c-1.2,0-2.1-0.4-2.7-1.1s-0.8-1.7-0.8-2.9
			c0-1.3,0.3-2.3,0.9-3s1.5-1,2.7-1c0.4,0,0.8,0,1.1,0.2c0.4,0.1,0.7,0.3,1,0.5c0.3,0.2,0.5,0.5,0.7,0.9c0.2,0.4,0.3,0.9,0.3,1.5
			c0,0.2,0,0.4,0,0.7s-0.1,0.5-0.1,0.8h-4.5c0,0.6,0.2,1.1,0.5,1.4s0.8,0.5,1.4,0.5c0.4,0,0.8-0.1,1.1-0.2s0.6-0.3,0.7-0.4
			L283.2,87.8z M280.4,82.3c-0.5,0-0.9,0.2-1.1,0.5s-0.4,0.7-0.4,1.2h2.8c0-0.5,0-1-0.2-1.2C281.2,82.4,280.8,82.3,280.4,82.3z"/>
		<path class="st4" d="M288.9,82.8c-0.3-0.1-0.6-0.2-0.8-0.2c-0.4,0-0.6,0.1-0.9,0.3c-0.2,0.2-0.4,0.4-0.5,0.7v4.8h-2V81h1.5l0.2,1
			h0.1c0.2-0.4,0.4-0.7,0.7-0.9c0.3-0.2,0.6-0.3,1-0.3c0.3,0,0.6,0.1,0.9,0.2L288.9,82.8z"/>
		<path class="st4" d="M296.6,81v7.5h-1.9v-5.8h-2.3v5.8h-2v-5.8h-1V81h1v-0.4c0-1,0.2-1.6,0.7-2.1c0.5-0.4,1.2-0.7,2.1-0.7
			c0.7,0,1.3,0.1,1.8,0.2c0.5,0.1,1,0.3,1.3,0.4l-0.5,1.5c-0.3-0.1-0.6-0.3-0.9-0.3c-0.4-0.1-0.8-0.1-1.2-0.1c-0.3,0-0.5,0-0.7,0.1
			c-0.2,0.1-0.3,0.2-0.4,0.3s-0.2,0.3-0.2,0.5c0,0.2,0,0.4,0,0.6H296.6z"/>
		<path class="st4" d="M300.4,85.9c0,0.3,0,0.6,0.1,0.8s0.2,0.2,0.4,0.2c0.1,0,0.2,0,0.4,0c0.1,0,0.3-0.1,0.4-0.1l0.2,1.5
			c-0.2,0.1-0.4,0.2-0.7,0.2s-0.7,0.1-1,0.1c-0.6,0-1-0.1-1.3-0.4c-0.3-0.3-0.5-0.7-0.5-1.3v-9h2V85.9z"/>
		<path class="st4" d="M308.8,87.8c-0.3,0.2-0.7,0.4-1.2,0.6c-0.5,0.2-1.1,0.2-1.6,0.2c-1.2,0-2.1-0.4-2.7-1.1
			c-0.6-0.7-0.8-1.7-0.8-2.9c0-1.3,0.3-2.3,0.9-3s1.5-1,2.7-1c0.4,0,0.8,0,1.1,0.2c0.4,0.1,0.7,0.3,1,0.5c0.3,0.2,0.5,0.5,0.7,0.9
			c0.2,0.4,0.3,0.9,0.3,1.5c0,0.2,0,0.4,0,0.7c0,0.2-0.1,0.5-0.1,0.8h-4.5c0,0.6,0.2,1.1,0.5,1.4s0.8,0.5,1.4,0.5
			c0.4,0,0.8-0.1,1.1-0.2c0.3-0.1,0.6-0.3,0.7-0.4L308.8,87.8z M306,82.3c-0.5,0-0.9,0.2-1.1,0.5c-0.2,0.3-0.4,0.7-0.4,1.2h2.8
			c0-0.5,0-1-0.2-1.2C306.8,82.4,306.4,82.3,306,82.3z"/>
	</g>
	<path class="st3" d="M209.1,84.2c-0.9,0-1.7-0.7-1.7-1.7c0-0.9,0.8-1.7,1.7-1.7c0.9,0,1.7,0.8,1.7,1.7
		C210.8,83.4,210.1,84.2,209.1,84.2C209.1,84.2,209.1,84.2,209.1,84.2z"/>
	<path class="st3" d="M230.5,75.2c-0.2-1.3-1-2.5-2.1-3.2l-0.4-0.3l-0.3,0.4c-0.6,0.9-0.9,2-0.8,3.1c0.1,0.7,0.3,1.4,0.8,2
		c-0.3,0.1-0.8,0.3-1.1,0.5c-0.7,0.3-1.5,0.4-2.3,0.3h-21.5l-0.1,0.5c-0.1,1.6,0.1,3.2,0.8,4.6l0.3,0.6v0.1c2,3.3,5.6,4.8,9.5,4.8
		c7.5,0,13.6-3.3,16.5-10.1c1.9,0.1,3.8-0.4,4.7-2.2l0.3-0.4l-0.4-0.2C233.2,75,231.8,74.9,230.5,75.2L230.5,75.2z"/>
	<rect x="216" y="72.6" class="st3" width="3" height="2.9"/>
	<rect x="216" y="67.4" class="st3" width="3" height="2.9"/>
	<rect x="221.2" y="72.6" class="st3" width="3" height="2.9"/>
	<polygon class="st3" points="208.6,72.6 205.6,72.6 205.6,75.5 208.6,75.5 	"/>
	<rect x="210.8" y="72.6" class="st3" width="3" height="2.9"/>
	<rect x="210.8" y="67.4" class="st3" width="3" height="2.9"/>
	<rect x="216" y="62.2" class="st3" width="3" height="2.9"/>
	<line class="st2" x1="345.7" y1="98.6" x2="344.7" y2="98.6"/>
	<line class="st12" x1="342.7" y1="98.6" x2="182.8" y2="98.6"/>
	<line class="st2" x1="181.8" y1="98.6" x2="180.8" y2="98.6"/>
	<polygon class="st4" points="339,90.4 337.7,91.9 344.9,98.6 337.7,105.3 339,106.8 347.8,98.6 	"/>
</g>
</svg>
