<svg xmlns="http://www.w3.org/2000/svg" xmlns:xlink="http://www.w3.org/1999/xlink" viewBox="0 0 843.32 252.51"><defs><style>.cls-1,.cls-11,.cls-16,.cls-23,.cls-4{fill:none;}.cls-11,.cls-16,.cls-17,.cls-19,.cls-2,.cls-3,.cls-4{stroke:#fc0;}.cls-11,.cls-16,.cls-17,.cls-19,.cls-2,.cls-23{stroke-miterlimit:10;}.cls-11,.cls-16,.cls-17,.cls-19,.cls-2,.cls-23,.cls-3,.cls-4{stroke-width:2px;}.cls-2{fill:url(#Unbenannter_Verlauf_12);}.cls-20,.cls-3{fill:#fff;}.cls-3,.cls-4{stroke-linecap:round;stroke-linejoin:round;}.cls-18,.cls-5{fill:#fc0;}.cls-6{clip-path:url(#clip-path);}.cls-7{fill:#ffd138;}.cls-8{fill:#fdfeff;}.cls-12,.cls-18,.cls-20,.cls-21,.cls-9{font-size:12px;}.cls-12,.cls-21,.cls-9{fill:#306;}.cls-9{font-family:PTSans-Regular, PT Sans;}.cls-10{letter-spacing:-0.01em;}.cls-12,.cls-18,.cls-20{font-family:RobotoSlab-Bold, Roboto Slab;font-weight:700;}.cls-13{letter-spacing:-0.01em;}.cls-14{letter-spacing:-0.04em;}.cls-15{letter-spacing:0.01em;}.cls-16{stroke-dasharray:2 2;}.cls-17{fill:url(#Unbenannter_Verlauf_12-2);}.cls-19{fill:url(#Unbenannter_Verlauf_12-3);}.cls-21{font-family:PTSans-Italic, PT Sans;font-style:italic;}.cls-22{letter-spacing:-0.03em;}.cls-23{stroke:#906;}.cls-24{fill:#906;}</style><linearGradient id="Unbenannter_Verlauf_12" x1="626.3" y1="119.34" x2="830.55" y2="119.34" gradientUnits="userSpaceOnUse"><stop offset="0" stop-color="#906"/><stop offset="0.19" stop-color="#780066"/><stop offset="0.4" stop-color="#5a0066"/><stop offset="0.61" stop-color="#406"/><stop offset="0.81" stop-color="#370066"/><stop offset="1" stop-color="#306"/></linearGradient><clipPath id="clip-path"><rect class="cls-1" x="697.95" y="201.45" width="53.61" height="10.5"/></clipPath><linearGradient id="Unbenannter_Verlauf_12-2" x1="327.69" y1="200.34" x2="497.69" y2="200.34" xlink:href="#Unbenannter_Verlauf_12"/><linearGradient id="Unbenannter_Verlauf_12-3" x1="641.23" y1="157.02" x2="811.23" y2="157.02" xlink:href="#Unbenannter_Verlauf_12"/></defs><title>dynamiccompilation</title><g id="Ebene_2" data-name="Ebene 2"><rect class="cls-2" x="626.3" y="22.11" width="204.26" height="194.47" rx="5"/><path class="cls-3" d="M719,12.25a11.74,11.74,0,1,1-3.51,8.38,11.5,11.5,0,0,1,2.39-7.09"/><path class="cls-4" d="M727.27,26.28H723c-.58,0-.8-.23-.8-.8V19c0-.58.22-.8.8-.8h8.46c.54,0,.77.22.77.77v6.5c0,.54-.23.77-.77.77C730.06,26.31,728.65,26.28,727.27,26.28Z"/><path class="cls-4" d="M722.91,17.65a4.52,4.52,0,0,1,2.64-4.14,4.19,4.19,0,0,1,5.77,2.85c.1.39.14.78.24,1.19"/><path class="cls-5" d="M726.56,23.51h0v.87c0,.16.07.23.26.23h.83c.23,0,.29-.07.29-.26V22.74a.37.37,0,0,1,.23-.38,1.21,1.21,0,0,0,.61-1.45,1.53,1.53,0,0,0-1.45-1,1.64,1.64,0,0,0-1.61.86,1.2,1.2,0,0,0,.55,1.51.42.42,0,0,1,.26.49A5.7,5.7,0,0,1,726.56,23.51Z"/><g id="Scone_logo_white" data-name="Scone logo white"><g class="cls-6"><g class="cls-6"><path class="cls-7" d="M705.06,204.11h-1.13a.44.44,0,0,0-.43.44v1.14a.43.43,0,0,0,.43.43h1.13a.43.43,0,0,0,.43-.43v-1.14a.44.44,0,0,0-.43-.44m-3.91,2h1.12a.43.43,0,0,0,.43-.43v-1.14a.44.44,0,0,0-.43-.44h-1.12a.44.44,0,0,0-.43.44v1.14a.43.43,0,0,0,.43.43m-1.21-.43v-1.14a.44.44,0,0,0-.43-.44h-1.12a.44.44,0,0,0-.44.44v1.14a.44.44,0,0,0,.44.43h1.12a.43.43,0,0,0,.43-.43m5.2,1.23a.33.33,0,0,0-.32.32v1.34a.33.33,0,1,0,.65,0v-1.34a.31.31,0,0,0-.33-.32m-3.08.43v1.15a.43.43,0,0,0,.43.43h1.12a.43.43,0,0,0,.43-.43v-1.15a.43.43,0,0,0-.43-.43h-1.12a.43.43,0,0,0-.43.43m-.8,1.15v-1.15a.43.43,0,0,0-.43-.43H699.7a.43.43,0,0,0-.43.43v1.15a.44.44,0,0,0,.43.43h1.13a.44.44,0,0,0,.43-.43m3.8,1.23h-1.13a.43.43,0,0,0-.43.43v1.14a.44.44,0,0,0,.43.44h1.13a.44.44,0,0,0,.43-.44v-1.14a.43.43,0,0,0-.43-.43m-2.92,0H701a.43.43,0,0,0-.43.43v1.14a.44.44,0,0,0,.43.44h1.12a.44.44,0,0,0,.43-.44v-1.14a.43.43,0,0,0-.43-.43"/><path class="cls-7" d="M706.42,203.66a2.56,2.56,0,0,0,1.75.54s0,0,0,.09v3.08c0,1.19-1.45,1.93-1.79,2.12,0,0,0,0,0,0l0-5.79s0,0,0,0"/><path class="cls-7" d="M703,203.51c2.37-.09,2.76-.91,2.76-.91a.13.13,0,0,1,.11-.06s.09,0,.11,0,.36.89,2.74.89c.06,0,.09,0,.09.1v4.06c0,1.3-2.47,2.77-2.51,2.79s-.09.06-.09.08v1s.16.06.22,0c.91-.49,3.45-1.9,3.45-3.62v-5.19c0-.08-.15-.15-.23-.15-3,0-3.59-1.1-3.59-1.1s-.13,0-.19,0-.11,0-.13,0-.5,1.14-3.5,1.14c-.11,0-.13,0-.13.13v.65s0,.15.09.15.8,0,.8,0"/><path class="cls-8" d="M712.16,210.14l1.21-.46a1.64,1.64,0,0,0,1.58.91,1.72,1.72,0,0,0,.92-.21.75.75,0,0,0,.39-.65c0-.65-.88-1-1.53-1.3l0,0a5.3,5.3,0,0,1-1.41-.78,1.76,1.76,0,0,1-.69-1.42,1.92,1.92,0,0,1,.71-1.49,2.8,2.8,0,0,1,1.8-.61,2.58,2.58,0,0,1,2.37,1.3l-1.25.47a1,1,0,0,0-.43-.45,1.67,1.67,0,0,0-.69-.15c-.69,0-1.17.37-1.17.86a1,1,0,0,0,.48.78,5.76,5.76,0,0,0,1.08.56l.15.07c.92.39,2.07.88,2.07,2.13a1.81,1.81,0,0,1-.82,1.54,3.37,3.37,0,0,1-2,.56,2.88,2.88,0,0,1-2.76-1.64"/><path class="cls-8" d="M722.87,211.76a3.79,3.79,0,0,1-1.49-.31,3.51,3.51,0,0,1-1.21-.82,3.38,3.38,0,0,1-.82-1.2,4,4,0,0,1-.3-1.49,4,4,0,0,1,.3-1.49,3.33,3.33,0,0,1,.82-1.21,3.51,3.51,0,0,1,1.21-.82,3.79,3.79,0,0,1,1.49-.31,3.73,3.73,0,0,1,1.73.41,3.79,3.79,0,0,1,1.31,1.11l-1,.75a2.63,2.63,0,0,0-.89-.73,2.58,2.58,0,0,0-1.16-.28,2.57,2.57,0,0,0-1.82,4.38,2.55,2.55,0,0,0,3.11.39,2.57,2.57,0,0,0,.93-.95l1.1.62a3.73,3.73,0,0,1-1.38,1.41,3.54,3.54,0,0,1-1.92.54"/><path class="cls-8" d="M731.22,211.78a4,4,0,0,1-1.49-.3,3.66,3.66,0,0,1-1.2-.82,3.84,3.84,0,0,1-1.13-2.7,3.46,3.46,0,0,1,.31-1.49,3.6,3.6,0,0,1,.82-1.21,3.78,3.78,0,0,1,1.2-.82,3.85,3.85,0,0,1,1.49-.3,3.78,3.78,0,0,1,1.49.3,3.33,3.33,0,0,1,1.21.82,3.6,3.6,0,0,1,.82,1.21,3.81,3.81,0,0,1-.82,4.19,4,4,0,0,1-1.21.82,4,4,0,0,1-1.49.3m0-6.41a2.5,2.5,0,0,0-1.81.75,2.59,2.59,0,0,0-.75,1.82,2.46,2.46,0,0,0,.75,1.81,2.57,2.57,0,0,0,3.63,0,2.58,2.58,0,0,0,.75-1.81,2.62,2.62,0,0,0-.75-1.82,2.59,2.59,0,0,0-1.82-.75"/><polygon class="cls-8" points="743.73 204.18 743.73 211.95 738.37 207.03 738.37 211.65 737.01 211.65 737.01 203.9 742.37 208.84 742.37 204.18 743.73 204.18"/><polygon class="cls-8" points="747.37 205.32 747.37 207.31 751.11 207.31 751.11 208.47 747.37 208.47 747.37 210.48 751.56 210.48 751.56 211.65 746.01 211.65 746.01 204.18 751.56 204.18 751.56 205.34 747.37 205.34 747.37 205.32"/></g></g></g><text class="cls-9" transform="translate(377.04 242.89)">separa<tspan class="cls-10" x="33.62" y="0">t</tspan><tspan x="37.56" y="0">e files</tspan></text><text class="cls-9" transform="translate(709.43 242.89)">encla<tspan class="cls-10" x="27.53" y="0">v</tspan><tspan x="33.18" y="0">e</tspan></text><rect class="cls-11" x="13.65" y="20.98" width="170" height="30" rx="5"/><text class="cls-12" transform="translate(65.62 40.31)">Ap<tspan class="cls-13" x="15.88" y="0">p</tspan><tspan x="23.03" y="0">lic</tspan><tspan class="cls-14" x="37.05" y="0">a</tspan><tspan x="43.17" y="0">tion</tspan></text><rect class="cls-11" x="13.65" y="65.91" width="170" height="30" rx="5"/><text class="cls-12" transform="translate(40.34 85.25)">Ap<tspan class="cls-13" x="15.88" y="0">p</tspan><tspan x="23.03" y="0">lic</tspan><tspan class="cls-14" x="37.05" y="0">a</tspan><tspan x="43.17" y="0">tion lib</tspan><tspan class="cls-13" x="83.41" y="0">r</tspan><tspan x="88.35" y="0">aries</tspan></text><rect class="cls-11" x="13.65" y="109.83" width="170" height="30" rx="5"/><text class="cls-12" transform="translate(47.37 129.16)">libc (OS Inte<tspan class="cls-15" x="69.26" y="0">r</tspan><tspan x="74.43" y="0">face)</tspan></text><rect class="cls-11" x="327.69" y="20.98" width="170" height="30" rx="5"/><text class="cls-12" transform="translate(379.66 40.31)">Ap<tspan class="cls-13" x="15.88" y="0">p</tspan><tspan x="23.03" y="0">lic</tspan><tspan class="cls-14" x="37.05" y="0">a</tspan><tspan x="43.17" y="0">tion</tspan></text><rect class="cls-11" x="327.69" y="65.91" width="170" height="30" rx="5"/><text class="cls-12" transform="translate(354.38 85.25)">Ap<tspan class="cls-13" x="15.88" y="0">p</tspan><tspan x="23.03" y="0">lic</tspan><tspan class="cls-14" x="37.05" y="0">a</tspan><tspan x="43.17" y="0">tion lib</tspan><tspan class="cls-13" x="83.41" y="0">r</tspan><tspan x="88.35" y="0">aries</tspan></text><rect class="cls-16" x="327.69" y="121.47" width="170" height="30" rx="5"/><text class="cls-12" transform="translate(361.41 140.8)">libc (OS Inte<tspan class="cls-15" x="69.26" y="0">r</tspan><tspan x="74.43" y="0">face)</tspan></text><rect class="cls-17" x="327.69" y="185.34" width="170" height="30" rx="5"/><text class="cls-18" transform="translate(380.42 204.67)">SCONE libc</text><rect class="cls-19" x="641.23" y="142.02" width="170" height="30" rx="5"/><text class="cls-18" transform="translate(693.95 161.35)">SCONE libc</text><rect class="cls-11" x="641.74" y="57.6" width="170" height="30" rx="5"/><text class="cls-20" transform="translate(693.71 76.93)">Ap<tspan class="cls-13" x="15.88" y="0">p</tspan><tspan x="23.03" y="0">lic</tspan><tspan class="cls-14" x="37.05" y="0">a</tspan><tspan x="43.17" y="0">tion</tspan></text><rect class="cls-11" x="641.74" y="99.53" width="170" height="30" rx="5"/><text class="cls-20" transform="translate(668.42 118.87)">Ap<tspan class="cls-13" x="15.88" y="0">p</tspan><tspan x="23.03" y="0">lic</tspan><tspan class="cls-14" x="37.05" y="0">a</tspan><tspan x="43.17" y="0">tion lib</tspan><tspan class="cls-13" x="83.41" y="0">r</tspan><tspan x="88.35" y="0">aries</tspan></text></g><g id="schrift"><text class="cls-21" transform="translate(229.32 58.22)">dynami<tspan class="cls-22" x="35.75" y="0">c</tspan><tspan x="40.43" y="0"> </tspan><tspan x="0" y="14.4">linking</tspan></text><text class="cls-21" transform="translate(542.71 58.22)">dynami<tspan class="cls-22" x="35.75" y="0">c</tspan><tspan x="40.43" y="0"> </tspan><tspan x="0" y="14.4">loader</tspan></text></g><g id="Ebene_4" data-name="Ebene 4"><line class="cls-23" x1="216.3" y1="81.59" x2="282.03" y2="81.59"/><polygon class="cls-24" points="277.4 87.31 276.44 86.29 281.5 81.59 276.44 76.89 277.4 75.86 283.55 81.59 277.4 87.31"/><line class="cls-11" x1="412.42" y1="157.77" x2="412.42" y2="178.31"/><polygon class="cls-5" points="406.69 173.67 407.72 172.72 412.42 177.77 417.12 172.72 418.14 173.67 412.42 179.83 406.69 173.67"/><line class="cls-23" x1="529.68" y1="81.59" x2="595.42" y2="81.59"/><polygon class="cls-24" points="590.78 87.31 589.82 86.29 594.88 81.59 589.82 76.89 590.78 75.86 596.94 81.59 590.78 87.31"/><path class="cls-11" d="M322,80.13a32.15,32.15,0,0,1,1-42.26"/><polygon class="cls-5" points="323.73 72.9 322.34 72.77 321.7 79.65 314.89 78.51 314.66 79.9 322.96 81.28 323.73 72.9"/><path class="cls-11" d="M318.29,136.1a75.09,75.09,0,0,1,1-100.23"/><polygon class="cls-5" points="319.75 128.84 318.35 128.76 317.98 135.66 311.13 134.79 310.96 136.18 319.3 137.23 319.75 128.84"/></g></svg>