<svg xmlns="http://www.w3.org/2000/svg" xmlns:xlink="http://www.w3.org/1999/xlink" viewBox="0 0 507.57 330.24"><defs><style>.cls-1,.cls-12,.cls-13,.cls-17,.cls-2,.cls-28,.cls-3,.cls-7{fill:none;}.cls-2{stroke:#c30;}.cls-12,.cls-2,.cls-3{stroke-miterlimit:10;}.cls-12,.cls-13,.cls-17,.cls-2,.cls-20,.cls-3,.cls-7{stroke-width:2px;}.cls-2,.cls-3{stroke-dasharray:2 2;}.cls-12,.cls-13,.cls-20,.cls-28,.cls-3{stroke:#fc0;}.cls-14,.cls-4{fill:#fc0;}.cls-5,.cls-9{font-size:12px;}.cls-18,.cls-5,.cls-9{fill:#306;}.cls-14,.cls-18,.cls-24,.cls-5{font-family:RobotoSlab-Bold, Roboto Slab;font-weight:700;}.cls-6{letter-spacing:0em;}.cls-7{stroke:#f63;}.cls-13,.cls-17,.cls-20,.cls-28,.cls-7{stroke-linecap:round;stroke-linejoin:round;}.cls-8{fill:#f63;}.cls-9{font-family:PTSans-Regular, PT Sans;}.cls-10{letter-spacing:-0.01em;}.cls-11{fill:url(#Unbenannter_Verlauf_12);}.cls-14,.cls-18{font-size:11px;}.cls-15{letter-spacing:-0.01em;}.cls-16{letter-spacing:-0.04em;}.cls-17{stroke:#306;}.cls-19{letter-spacing:0.01em;}.cls-20,.cls-24{fill:#fff;}.cls-21{clip-path:url(#clip-path);}.cls-22{fill:#ffd138;}.cls-23{fill:#fdfeff;}.cls-24{font-size:12.24px;}.cls-25{letter-spacing:0em;}.cls-26{letter-spacing:-0.01em;}.cls-27{letter-spacing:-0.01em;}.cls-29{letter-spacing:-0.1em;}</style><linearGradient id="Unbenannter_Verlauf_12" x1="174.65" y1="123.47" x2="346.44" y2="123.47" gradientUnits="userSpaceOnUse"><stop offset="0" stop-color="#906"/><stop offset="0.19" stop-color="#780066"/><stop offset="0.4" stop-color="#5a0066"/><stop offset="0.61" stop-color="#406"/><stop offset="0.81" stop-color="#370066"/><stop offset="1" stop-color="#306"/></linearGradient><clipPath id="clip-path"><rect class="cls-1" x="242.38" y="159.06" width="36.34" height="7.12"/></clipPath></defs><title>encryptedConfiguration</title><g id="Ebene_2" data-name="Ebene 2"><rect class="cls-2" x="142.72" y="32.17" width="232.85" height="292.59" rx="5"/><line class="cls-3" x1="172.48" y1="122.63" x2="25.58" y2="122.63"/><polygon class="cls-4" points="165.86 114.45 164.49 115.92 171.72 122.63 164.49 129.35 165.86 130.81 174.65 122.63 165.86 114.45"/><text class="cls-5" transform="translate(181.02 23.27)">Untrusted Host / VM/ Contai<tspan class="cls-6" x="162.09" y="0">n</tspan><tspan x="169.65" y="0">er</tspan></text><path class="cls-7" d="M166.82,22.09h-4.24c-.58,0-.81-.22-.81-.8V14.83c0-.58.23-.81.81-.81H171c.55,0,.77.23.77.77v6.5c0,.55-.22.77-.77.77C169.62,22.13,168.2,22.09,166.82,22.09Z"/><path class="cls-7" d="M165.45,5.84a4.52,4.52,0,0,1,4.85.71,4.21,4.21,0,0,1-.23,6.44c-.31.25-.65.44-1,.7"/><path class="cls-8" d="M166.11,19.33h0v.87c0,.16.07.22.26.22h.84c.22,0,.29-.06.29-.26v-1.6a.38.38,0,0,1,.22-.39,1.21,1.21,0,0,0,.61-1.45,1.54,1.54,0,0,0-1.45-1,1.63,1.63,0,0,0-1.6.87,1.2,1.2,0,0,0,.54,1.51.42.42,0,0,1,.26.48A5.86,5.86,0,0,1,166.11,19.33Z"/><text class="cls-9" transform="translate(63.79 92.09)">Encryp<tspan class="cls-10" x="34.57" y="0">t</tspan><tspan x="38.51" y="0">ed </tspan><tspan x="0" y="14.4">arguments /</tspan></text><text class="cls-9" transform="translate(63.79 143.12)">environment<tspan x="0" y="14.4">variables</tspan></text><rect class="cls-11" x="174.65" y="70.77" width="171.79" height="105.4" rx="5"/><rect class="cls-12" x="174.65" y="70.77" width="171.79" height="105.4" rx="5"/><rect class="cls-13" x="187.46" y="117.06" width="145.55" height="27.21" rx="5"/><text class="cls-14" transform="translate(198.08 134.22)">Un<tspan class="cls-6" x="15.29" y="0">m</tspan><tspan x="25.47" y="0">odified Ap</tspan><tspan class="cls-15" x="78.5" y="0">p</tspan><tspan x="85.05" y="0">lic</tspan><tspan class="cls-16" x="97.9" y="0">a</tspan><tspan x="103.51" y="0">tion</tspan></text><rect class="cls-17" x="174.04" y="260.29" width="172.4" height="27.21" rx="5"/><text class="cls-18" transform="translate(184.86 277.45)">E<tspan class="cls-6" x="7.03" y="0">n</tspan><tspan x="13.95" y="0">c</tspan><tspan class="cls-19" x="19.75" y="0">r</tspan><tspan x="24.48" y="0">ypted Configu</tspan><tspan class="cls-15" x="97.42" y="0">r</tspan><tspan class="cls-16" x="101.94" y="0">a</tspan><tspan x="107.56" y="0">tion File</tspan></text><path class="cls-20" d="M251.24,59a11.73,11.73,0,1,1-3.52,8.38,11.54,11.54,0,0,1,2.4-7.1"/><path class="cls-13" d="M259.48,73h-4.24c-.58,0-.8-.23-.8-.81V65.76c0-.58.22-.8.8-.8h8.46c.54,0,.77.22.77.77v6.49c0,.55-.23.78-.77.78C262.28,73.06,260.87,73,259.48,73Z"/><path class="cls-13" d="M255.13,64.39a4.48,4.48,0,0,1,2.64-4.13,4.2,4.2,0,0,1,5.77,2.85c.1.39.14.77.24,1.19"/><path class="cls-4" d="M258.78,70.26h0v.87c0,.16.06.23.26.23h.83c.23,0,.29-.07.29-.26V69.49a.37.37,0,0,1,.23-.39,1.21,1.21,0,0,0,.61-1.44,1.56,1.56,0,0,0-1.45-1,1.65,1.65,0,0,0-1.61.87,1.2,1.2,0,0,0,.55,1.51.43.43,0,0,1,.26.48A6,6,0,0,1,258.78,70.26Z"/><g id="Scone_logo_white" data-name="Scone logo white"><g class="cls-21"><g class="cls-21"><path class="cls-22" d="M247.19,160.86h-.76a.29.29,0,0,0-.29.29v.78a.29.29,0,0,0,.29.29h.76a.29.29,0,0,0,.29-.29v-.78a.29.29,0,0,0-.29-.29m-2.65,1.36h.76a.3.3,0,0,0,.3-.29v-.78a.3.3,0,0,0-.3-.29h-.76a.29.29,0,0,0-.29.29v.78a.29.29,0,0,0,.29.29m-.82-.29v-.78a.29.29,0,0,0-.29-.29h-.76a.29.29,0,0,0-.29.29v.78a.29.29,0,0,0,.29.29h.76a.29.29,0,0,0,.29-.29m3.53.83a.22.22,0,0,0-.22.22v.91a.22.22,0,0,0,.44,0V163a.21.21,0,0,0-.22-.22m-2.09.3v.77a.29.29,0,0,0,.29.29h.76a.29.29,0,0,0,.29-.29v-.77a.29.29,0,0,0-.29-.3h-.76a.29.29,0,0,0-.29.3m-.54.77v-.77a.3.3,0,0,0-.3-.3h-.76a.29.29,0,0,0-.29.3v.77a.29.29,0,0,0,.29.29h.76a.3.3,0,0,0,.3-.29m2.57.84h-.76a.29.29,0,0,0-.29.29v.77a.3.3,0,0,0,.29.3h.76a.3.3,0,0,0,.29-.3V165a.29.29,0,0,0-.29-.29m-2,0h-.77a.29.29,0,0,0-.29.29v.77a.3.3,0,0,0,.29.3h.77a.3.3,0,0,0,.29-.3V165a.29.29,0,0,0-.29-.29"/><path class="cls-22" d="M248.11,160.55a1.76,1.76,0,0,0,1.19.37s0,0,0,.06v2.09c0,.8-1,1.3-1.21,1.43,0,0,0,0,0,0v-3.92s0,0,0,0"/><path class="cls-22" d="M245.82,160.45c1.61-.06,1.87-.61,1.87-.61a.08.08,0,0,1,.07-.05.08.08,0,0,1,.08,0s.24.6,1.85.6c.05,0,.06,0,.06.07v2.76c0,.87-1.67,1.87-1.7,1.88l-.05.06v.69s.1,0,.14,0c.62-.34,2.34-1.29,2.34-2.46v-3.51c0-.06-.1-.1-.16-.1-2,0-2.43-.75-2.43-.75s-.08,0-.13,0-.07,0-.09,0-.33.78-2.37.78c-.07,0-.08,0-.08.09v.44s0,.1.05.1.55,0,.55,0"/><path class="cls-23" d="M252,164.94l.82-.3a1.28,1.28,0,0,0,1.69.46.49.49,0,0,0,.27-.43c0-.44-.6-.71-1-.88l0,0a3.68,3.68,0,0,1-.95-.52,1.19,1.19,0,0,1-.47-1,1.27,1.27,0,0,1,.48-1,1.91,1.91,0,0,1,1.22-.41,1.76,1.76,0,0,1,1.61.88l-.85.32a.69.69,0,0,0-.3-.31,1.11,1.11,0,0,0-.46-.1c-.47,0-.79.25-.79.59a.64.64,0,0,0,.32.52,3.58,3.58,0,0,0,.73.38l.1.05c.63.26,1.41.6,1.41,1.45a1.19,1.19,0,0,1-.56,1,2.23,2.23,0,0,1-1.33.39,1.94,1.94,0,0,1-1.87-1.12"/><path class="cls-23" d="M259.26,166a2.71,2.71,0,0,1-1-.2,2.51,2.51,0,0,1-.81-.56,2.31,2.31,0,0,1-.56-.82,2.53,2.53,0,0,1,0-2,2.4,2.4,0,0,1,.56-.82,2.51,2.51,0,0,1,.81-.56,2.71,2.71,0,0,1,1-.2,2.56,2.56,0,0,1,1.18.28,2.65,2.65,0,0,1,.89.74l-.69.52a1.75,1.75,0,0,0-1.39-.69,1.74,1.74,0,0,0-1.74,1.74,1.69,1.69,0,0,0,.51,1.23,1.66,1.66,0,0,0,1.23.51,1.72,1.72,0,0,0,.88-.25,1.84,1.84,0,0,0,.63-.64l.74.42a2.5,2.5,0,0,1-.93.95,2.38,2.38,0,0,1-1.31.37"/><path class="cls-23" d="M264.93,166.06a2.68,2.68,0,0,1-1-.21,2.31,2.31,0,0,1-.82-.56,2.44,2.44,0,0,1-.56-.82,2.64,2.64,0,0,1-.2-1,2.52,2.52,0,0,1,.76-1.82,2.72,2.72,0,0,1,.82-.56,2.53,2.53,0,0,1,2,0,2.4,2.4,0,0,1,.82.56,2.57,2.57,0,0,1,.55.82,2.51,2.51,0,0,1,0,2,2.57,2.57,0,0,1-.55.82,2.72,2.72,0,0,1-.82.56,2.68,2.68,0,0,1-1,.21m0-4.35a1.66,1.66,0,0,0-1.23.51,1.74,1.74,0,0,0-.51,1.23,1.74,1.74,0,0,0,1.74,1.74,1.69,1.69,0,0,0,1.23-.51,1.74,1.74,0,0,0,.51-1.23,1.78,1.78,0,0,0-.51-1.23,1.74,1.74,0,0,0-1.23-.51"/><polygon class="cls-23" points="273.4 160.9 273.4 166.17 269.77 162.84 269.77 165.97 268.85 165.97 268.85 160.71 272.48 164.06 272.48 160.9 273.4 160.9"/><polygon class="cls-23" points="275.88 161.68 275.88 163.03 278.41 163.03 278.41 163.82 275.88 163.82 275.88 165.18 278.71 165.18 278.71 165.97 274.95 165.97 274.95 160.9 278.71 160.9 278.71 161.69 275.88 161.69 275.88 161.68"/></g></g></g><text class="cls-24" transform="translate(209.01 103.24)">Intel SGX E<tspan class="cls-25" x="64.96" y="0">n</tspan><tspan x="72.67" y="0">cl</tspan><tspan class="cls-26" x="83.02" y="0">a</tspan><tspan class="cls-27" x="89.66" y="0">v</tspan><tspan x="96.56" y="0">e</tspan></text><path class="cls-20" d="M45.34,107.12a14.19,14.19,0,1,1,7.41-18.65A14.2,14.2,0,0,1,45.34,107.12Z"/><circle class="cls-20" cx="39.72" cy="94.09" r="14.19"/><path class="cls-28" d="M50.58,103.11a2,2,0,0,0-3.3-.18,2,2,0,0,0,.43,2.68"/><path class="cls-28" d="M52.62,100.07a.57.57,0,0,0-.27-.29.73.73,0,0,1-.21-.16c-.63-.45-.63-.45-1.17.15-.28.31-.56.47-.93.23a.24.24,0,0,0-.19,0c-.59,0-.83-.32-.92-.86,0-.18-.22-.48-.34-.5a7.15,7.15,0,0,0-1.27.17,5.63,5.63,0,0,1,0,1,1.12,1.12,0,0,1-.29.53c-.06.08-.16.1-.23.14a.94.94,0,0,1-1.44,0,.43.43,0,0,0-.72.15.91.91,0,0,1-.15.21c-.49.64-.49.68.11,1.14a.62.62,0,0,1,.25.89.83.83,0,0,0-.07.27c.07.62-.31.83-.82.87s-.61.4-.5.86,0,.92.77.81c.25,0,.62-.07.75.06a3.62,3.62,0,0,1,.64,1"/><path class="cls-28" d="M41.18,94.78a3.29,3.29,0,1,0-4.56.73A3.25,3.25,0,0,0,41.18,94.78Z"/><path class="cls-28" d="M47.1,92.82c-.42.14-.81.24-1.24.35-.25,0-.35.13-.41.44-.09.61-.26,1.15-.39,1.77a.73.73,0,0,0,.13.53,8.51,8.51,0,0,0,1,.92.57.57,0,0,1,.1.84l-.85,1.18a.54.54,0,0,1-.84.13,5.19,5.19,0,0,0-1.1-.64.82.82,0,0,0-.59.06c-.54.31-1,.61-1.55.95a.72.72,0,0,0-.26.45c0,.45,0,.89.06,1.33s-.11.69-.59.73a6.46,6.46,0,0,0-1.26.2c-.47.11-.68-.08-.79-.5,0-.15-.09-.32-.11-.47-.06-.84-.51-1.1-1.33-1.34a1.9,1.9,0,0,0-2.5.88c-.2.37-.53.38-.87.14s-.72-.55-1.09-.79a.61.61,0,0,1-.19-.94c.24-.37.41-.73.65-1.06s.19-.44,0-.67a3.63,3.63,0,0,1-.64-1c-.27-.74-.7-.89-1.47-.81-1.42.2-1.25.06-1.45-1.17s-.21-1.31,1-1.58c.72-.16,1.09-.4,1.11-1.18,0-.53.46-1.12.31-1.54s-.79-.76-1.18-1.15a.52.52,0,0,1-.1-.8L31.49,87a.55.55,0,0,1,.86-.21,2,2,0,0,1,.46.29c.63.46,1.25.62,1.84-.07a.48.48,0,0,1,.27-.19c1-.24,1.08-.88,1-1.76s0-1,1-1.19c1.59-.26,1.45-.42,1.86,1.19.13.57.33.91,1,.88a1.3,1.3,0,0,1,.69.15,1.24,1.24,0,0,0,1.78-.51c.85-1.14.91-.78,1.75-.17,1.14.82,1.15.67.41,1.86-.35.58-.54,1,0,1.6.36.39.48,1.11.89,1.34s1.07,0,1.63,0a.83.83,0,0,1,.58.39,11.9,11.9,0,0,1,.3,1.62,2,2,0,0,1-.05.38A3,3,0,0,1,47.1,92.82Z"/><path class="cls-20" d="M245.39,230.66A14.19,14.19,0,1,1,252.8,212,14.21,14.21,0,0,1,245.39,230.66Z"/><circle class="cls-20" cx="239.77" cy="217.63" r="14.19"/><path class="cls-28" d="M250.62,226.64A1.87,1.87,0,0,0,250,226a2,2,0,0,0-2.71.47,2,2,0,0,0,.43,2.68"/><path class="cls-28" d="M252.66,223.61a.53.53,0,0,0-.27-.29c-.08,0-.12-.1-.21-.16-.63-.45-.63-.45-1.16.15-.29.31-.56.46-.93.23a.3.3,0,0,0-.2,0c-.59,0-.83-.31-.91-.85,0-.18-.23-.48-.34-.5a7.34,7.34,0,0,0-1.28.16,7.05,7.05,0,0,1,0,1,1.13,1.13,0,0,1-.29.52c-.06.09-.17.11-.24.15a.94.94,0,0,1-1.44.05.42.42,0,0,0-.71.15,1,1,0,0,1-.16.21c-.49.64-.48.68.11,1.14a.61.61,0,0,1,.26.88.72.72,0,0,0-.07.27c.06.63-.31.83-.83.88s-.6.39-.49.86,0,.92.76.81c.25,0,.62-.07.75.06a3.65,3.65,0,0,1,.65,1"/><path class="cls-28" d="M241.23,218.32a3.29,3.29,0,1,0-4.57.73A3.26,3.26,0,0,0,241.23,218.32Z"/><path class="cls-28" d="M247.15,216.36c-.42.14-.82.24-1.24.35-.26,0-.35.13-.42.44-.08.6-.26,1.15-.38,1.77a.72.72,0,0,0,.12.53,7.85,7.85,0,0,0,1,.92.56.56,0,0,1,.09.84l-.85,1.17a.53.53,0,0,1-.83.14,5.53,5.53,0,0,0-1.11-.64.8.8,0,0,0-.58.06c-.54.31-1.05.61-1.55.95a.74.74,0,0,0-.27.45c0,.45,0,.89.07,1.33s-.11.69-.59.73a6.55,6.55,0,0,0-1.27.2c-.46.11-.68-.08-.78-.51,0-.14-.09-.32-.12-.46-.06-.84-.51-1.11-1.33-1.35a1.9,1.9,0,0,0-2.49.89c-.2.37-.53.38-.87.14s-.72-.55-1.09-.79a.6.6,0,0,1-.19-.94c.24-.37.4-.73.64-1.07a.46.46,0,0,0,0-.66,4.08,4.08,0,0,1-.64-1c-.26-.74-.7-.89-1.46-.81-1.42.19-1.26.06-1.46-1.17s-.21-1.31,1.05-1.58c.72-.16,1.09-.4,1.11-1.19,0-.52.45-1.11.31-1.53s-.79-.76-1.19-1.15a.52.52,0,0,1-.09-.8l.82-1.13a.55.55,0,0,1,.86-.22,2.35,2.35,0,0,1,.45.3c.63.46,1.25.62,1.85-.07a.4.4,0,0,1,.27-.19c1-.24,1.08-.88,1-1.76s-.06-1,1-1.19c1.6-.26,1.46-.42,1.87,1.18.13.58.33.92,1,.89a1.25,1.25,0,0,1,.69.15,1.24,1.24,0,0,0,1.77-.51c.86-1.14.92-.78,1.76-.17,1.13.82,1.15.67.41,1.86-.35.58-.54,1,0,1.6.36.39.47,1.11.88,1.34s1.07,0,1.63,0a.84.84,0,0,1,.59.39,13.29,13.29,0,0,1,.3,1.62,3.33,3.33,0,0,1,0,.38A3.28,3.28,0,0,1,247.15,216.36Z"/><line class="cls-3" x1="208.18" y1="255.57" x2="208.18" y2="177.51"/><polygon class="cls-4" points="216.36 248.94 214.9 247.58 208.18 254.8 201.47 247.58 200 248.94 208.18 257.74 216.36 248.94"/><text class="cls-9" transform="translate(259.92 214.82)"><tspan class="cls-29">T</tspan><tspan x="5.4" y="0">ransparent </tspan><tspan x="0" y="14.4">encryption</tspan></text></g></svg>