<?xml version="1.0" encoding="utf-8"?>
<!-- Generator: Adobe Illustrator 24.0.0, SVG Export Plug-In . SVG Version: 6.00 Build 0)  -->
<svg version="1.1" id="Ebene_1" xmlns="http://www.w3.org/2000/svg" xmlns:xlink="http://www.w3.org/1999/xlink" x="0px" y="0px"
	 viewBox="0 0 507.6 330.2" style="enable-background:new 0 0 507.6 330.2;" xml:space="preserve">
<style type="text/css">
	.st0{fill:none;stroke:#CC3300;stroke-width:2;stroke-miterlimit:10;stroke-dasharray:2,2;}
	.st1{fill:none;stroke:#FFCC00;stroke-width:2;stroke-miterlimit:10;stroke-dasharray:2,2;}
	.st2{fill:#FFCC00;}
	.st3{enable-background:new    ;}
	.st4{fill:#330066;}
	.st5{fill:none;stroke:#FF6633;stroke-width:2;stroke-linecap:round;stroke-linejoin:round;}
	.st6{fill:#FF6633;}
	.st7{fill:url(#SVGID_1_);}
	.st8{fill:none;stroke:#FFCC00;stroke-width:2;stroke-miterlimit:10;}
	.st9{fill:none;stroke:#FFCC00;stroke-width:2;stroke-linecap:round;stroke-linejoin:round;}
	.st10{fill:none;stroke:#330066;stroke-width:2;stroke-linecap:round;stroke-linejoin:round;}
	.st11{fill:#FFFFFF;stroke:#FFCC00;stroke-width:2;stroke-linecap:round;stroke-linejoin:round;}
	.st12{clip-path:url(#SVGID_3_);}
	.st13{clip-path:url(#SVGID_5_);}
	.st14{fill:#FFD138;}
	.st15{fill:#FDFEFF;}
	.st16{fill:#FFFFFF;}
	.st17{fill:none;stroke:#FFCC00;stroke-linecap:round;stroke-linejoin:round;}
</style>
<title>encryptedConfiguration</title>
<g id="Ebene_2_1_">
	<path class="st0" d="M147.7,32.2h222.9c2.8,0,5,2.2,5,5v282.6c0,2.8-2.2,5-5,5H147.7c-2.8,0-5-2.2-5-5V37.2
		C142.7,34.4,145,32.2,147.7,32.2z"/>
	<line class="st1" x1="172.5" y1="122.6" x2="25.6" y2="122.6"/>
	<polygon class="st2" points="165.9,114.4 164.5,115.9 171.7,122.6 164.5,129.4 165.9,130.8 174.6,122.6 	"/>
	<g class="st3">
		<path class="st4" d="M184.8,14.7v1l-0.9,0.2v4.5c0,0.6,0.2,1,0.5,1.3s0.7,0.4,1.2,0.4c0.5,0,1-0.1,1.3-0.4s0.5-0.7,0.5-1.3v-4.5
			l-0.9-0.2v-1h3.5v1l-0.9,0.2v4.5c0,1-0.3,1.7-0.9,2.2s-1.5,0.8-2.5,0.8c-1,0-1.8-0.3-2.5-0.8s-0.9-1.3-0.9-2.2v-4.5l-0.9-0.2v-1
			h0.9h1.7H184.8z"/>
		<path class="st4" d="M190.4,22.2l0.8-0.2v-3.9l-0.9-0.2v-1h2.5l0.1,0.9c0.2-0.3,0.5-0.6,0.8-0.8s0.7-0.3,1-0.3
			c0.6,0,1.1,0.2,1.5,0.6s0.5,1,0.5,1.9v2.8l0.8,0.2v1h-3.3v-1l0.7-0.2v-2.8c0-0.4-0.1-0.7-0.3-0.9s-0.4-0.3-0.8-0.3
			c-0.2,0-0.4,0-0.6,0.1s-0.3,0.2-0.5,0.4v3.4l0.7,0.2v1h-3.2V22.2z"/>
		<path class="st4" d="M200.6,15.4v1.6h1.1v1.2h-1.1v3.2c0,0.2,0.1,0.4,0.2,0.5s0.2,0.2,0.4,0.2c0.1,0,0.2,0,0.3,0s0.2,0,0.3,0
			l0.1,1.2c-0.2,0.1-0.4,0.1-0.6,0.1s-0.4,0-0.6,0c-0.6,0-1-0.2-1.4-0.5s-0.5-0.8-0.5-1.5v-3.2H198v-1.2h0.9v-1.6H200.6z"/>
		<path class="st4" d="M202.7,22.2l0.8-0.2v-3.9l-0.9-0.2v-1h2.5l0.1,0.9c0.1-0.3,0.3-0.6,0.6-0.8s0.5-0.3,0.8-0.3
			c0.1,0,0.2,0,0.3,0s0.2,0,0.2,0l-0.2,1.6l-0.7,0c-0.3,0-0.5,0-0.6,0.1s-0.3,0.2-0.4,0.4v3.1l0.8,0.2v1h-3.4V22.2z"/>
		<path class="st4" d="M212,22.5c-0.2,0.3-0.5,0.5-0.8,0.7s-0.6,0.2-1,0.2c-0.7,0-1.2-0.2-1.6-0.6s-0.6-1.1-0.6-2v-2.6l-0.7-0.2v-1
			h0.7h1.7v3.8c0,0.5,0.1,0.8,0.2,1s0.4,0.3,0.7,0.3c0.3,0,0.5,0,0.7-0.1s0.4-0.2,0.5-0.4v-3.4l-0.8-0.2v-1h0.8h1.7v5.1l0.8,0.2v1
			h-2.3L212,22.5z"/>
		<path class="st4" d="M220.3,19.1h-1.1l-0.2-0.8c-0.1-0.1-0.3-0.2-0.4-0.2s-0.4-0.1-0.6-0.1c-0.3,0-0.5,0.1-0.7,0.2
			s-0.3,0.3-0.3,0.5c0,0.2,0.1,0.4,0.3,0.5s0.5,0.2,1,0.3c0.8,0.2,1.4,0.4,1.7,0.7s0.6,0.7,0.6,1.3c0,0.6-0.2,1-0.7,1.4
			s-1.1,0.5-1.9,0.5c-0.5,0-0.9-0.1-1.3-0.2s-0.8-0.3-1.1-0.6l0-1.4h1.2l0.2,0.8c0.1,0.1,0.2,0.1,0.4,0.2s0.4,0.1,0.6,0.1
			c0.3,0,0.6-0.1,0.8-0.2s0.3-0.3,0.3-0.5c0-0.2-0.1-0.3-0.3-0.5s-0.5-0.3-1-0.4c-0.7-0.2-1.3-0.4-1.7-0.7s-0.6-0.7-0.6-1.2
			c0-0.5,0.2-1,0.7-1.4s1.1-0.6,1.9-0.6c0.5,0,1,0.1,1.4,0.2s0.8,0.3,1,0.5L220.3,19.1z"/>
		<path class="st4" d="M223.8,15.4v1.6h1.1v1.2h-1.1v3.2c0,0.2,0.1,0.4,0.2,0.5s0.2,0.2,0.4,0.2c0.1,0,0.2,0,0.3,0s0.2,0,0.3,0
			l0.1,1.2c-0.2,0.1-0.4,0.1-0.6,0.1s-0.4,0-0.6,0c-0.6,0-1-0.2-1.4-0.5s-0.5-0.8-0.5-1.5v-3.2h-0.9v-1.2h0.9v-1.6H223.8z"/>
		<path class="st4" d="M228.8,23.4c-0.9,0-1.6-0.3-2.2-0.9s-0.8-1.3-0.8-2.2V20c0-0.9,0.3-1.7,0.8-2.3s1.2-0.9,2.1-0.9
			c0.9,0,1.5,0.3,2,0.8s0.7,1.2,0.7,2.1v0.9h-3.8l0,0c0,0.4,0.2,0.8,0.4,1s0.6,0.4,1,0.4c0.4,0,0.7,0,0.9-0.1s0.5-0.2,0.8-0.4
			l0.5,1.1c-0.3,0.2-0.6,0.4-1,0.5S229.3,23.4,228.8,23.4z M228.6,18.1c-0.3,0-0.6,0.1-0.8,0.4s-0.3,0.6-0.3,1l0,0h2.1v-0.2
			c0-0.4-0.1-0.7-0.3-0.9S229,18.1,228.6,18.1z"/>
		<path class="st4" d="M236.3,22.5c-0.2,0.3-0.4,0.5-0.7,0.7s-0.6,0.2-0.9,0.2c-0.8,0-1.4-0.3-1.8-0.9s-0.6-1.3-0.6-2.3v-0.1
			c0-1,0.2-1.8,0.7-2.4s1-0.9,1.8-0.9c0.3,0,0.6,0.1,0.9,0.2s0.5,0.3,0.7,0.6v-2.3l-0.9-0.2v-1h0.9h1.7v7.9l0.8,0.2v1h-2.3
			L236.3,22.5z M233.9,20.3c0,0.6,0.1,1,0.3,1.3s0.5,0.5,0.9,0.5c0.3,0,0.5-0.1,0.7-0.2s0.3-0.2,0.5-0.4v-2.7
			c-0.1-0.2-0.3-0.4-0.4-0.5s-0.4-0.2-0.6-0.2c-0.4,0-0.7,0.2-0.9,0.6s-0.3,0.9-0.3,1.5V20.3z"/>
		<path class="st4" d="M242.1,15.8v-1h3.5v1l-0.9,0.2v2.5h3.5v-2.5l-0.9-0.2v-1h0.9h1.7h0.9v1l-0.9,0.2v6.1l0.9,0.2v1h-3.5v-1
			l0.9-0.2v-2.3h-3.5v2.3l0.9,0.2v1h-3.5v-1l0.9-0.2v-6.1L242.1,15.8z"/>
		<path class="st4" d="M251.6,20c0-0.9,0.3-1.7,0.8-2.3s1.3-0.9,2.2-0.9c0.9,0,1.7,0.3,2.2,0.9s0.8,1.4,0.8,2.3v0.1
			c0,1-0.3,1.7-0.8,2.3s-1.3,0.9-2.2,0.9c-0.9,0-1.7-0.3-2.2-0.9s-0.8-1.4-0.8-2.3V20z M253.3,20.2c0,0.6,0.1,1,0.3,1.4
			s0.5,0.5,1,0.5c0.4,0,0.8-0.2,1-0.5s0.3-0.8,0.3-1.4V20c0-0.6-0.1-1-0.3-1.4s-0.5-0.5-1-0.5s-0.8,0.2-1,0.5s-0.3,0.8-0.3,1.4V20.2
			z"/>
		<path class="st4" d="M263.5,19.1h-1.1l-0.2-0.8c-0.1-0.1-0.3-0.2-0.4-0.2s-0.4-0.1-0.6-0.1c-0.3,0-0.5,0.1-0.7,0.2
			s-0.3,0.3-0.3,0.5c0,0.2,0.1,0.4,0.3,0.5s0.5,0.2,1,0.3c0.8,0.2,1.4,0.4,1.7,0.7s0.6,0.7,0.6,1.3c0,0.6-0.2,1-0.7,1.4
			s-1.1,0.5-1.9,0.5c-0.5,0-0.9-0.1-1.3-0.2s-0.8-0.3-1.1-0.6l0-1.4h1.2L260,22c0.1,0.1,0.2,0.1,0.4,0.2s0.4,0.1,0.6,0.1
			c0.3,0,0.6-0.1,0.8-0.2s0.3-0.3,0.3-0.5c0-0.2-0.1-0.3-0.3-0.5s-0.5-0.3-1-0.4c-0.7-0.2-1.3-0.4-1.7-0.7s-0.6-0.7-0.6-1.2
			c0-0.5,0.2-1,0.7-1.4s1.1-0.6,1.9-0.6c0.5,0,1,0.1,1.4,0.2s0.8,0.3,1,0.5L263.5,19.1z"/>
		<path class="st4" d="M267,15.4v1.6h1.1v1.2H267v3.2c0,0.2,0.1,0.4,0.2,0.5s0.2,0.2,0.4,0.2c0.1,0,0.2,0,0.3,0s0.2,0,0.3,0l0.1,1.2
			c-0.2,0.1-0.4,0.1-0.6,0.1s-0.4,0-0.6,0c-0.6,0-1-0.2-1.4-0.5s-0.5-0.8-0.5-1.5v-3.2h-0.9v-1.2h0.9v-1.6H267z"/>
		<path class="st4" d="M272.6,24h-1.3l3.1-9.3h1.3L272.6,24z"/>
		<path class="st4" d="M282.1,15.8l-0.7,0.1L283,21l0.1,0.5h0l0.1-0.5l1.5-5.1l-0.6-0.1v-1h3.1v1l-0.7,0.1l-2.5,7.4h-1.8l-2.5-7.4
			l-0.7-0.1v-1h3.1V15.8z"/>
		<path class="st4" d="M296,17L296,17l-2.3,6.3h-1.1l-2.3-6.3l0,0l0.2,3.7v1.3l0.9,0.2v1h-3.5v-1l0.9-0.2v-6.1l-0.9-0.2v-1h0.9h2.2
			l2.2,6.3h0l2.2-6.3h3.2v1l-0.9,0.2v6.1l0.9,0.2v1h-3.5v-1l0.9-0.2v-1.3L296,17z"/>
		<path class="st4" d="M299.9,24h-1.3l3.1-9.3h1.3L299.9,24z"/>
		<path class="st4" d="M313.4,17.6h-1.3l-0.2-1.1c-0.2-0.2-0.4-0.3-0.6-0.4s-0.6-0.1-0.9-0.1c-0.7,0-1.3,0.3-1.7,0.8
			s-0.6,1.2-0.6,2.1v0.3c0,0.9,0.2,1.6,0.6,2.1s1,0.8,1.7,0.8c0.3,0,0.6,0,0.9-0.1s0.5-0.2,0.6-0.4l0.2-1.1h1.3v1.7
			c-0.3,0.4-0.8,0.7-1.3,1s-1.1,0.4-1.8,0.4c-1.1,0-2.1-0.4-2.8-1.2s-1.1-1.8-1.1-3.1v-0.3c0-1.2,0.4-2.3,1.1-3.1s1.7-1.2,2.8-1.2
			c0.7,0,1.3,0.1,1.8,0.4s1,0.6,1.3,1V17.6z"/>
		<path class="st4" d="M314.2,20c0-0.9,0.3-1.7,0.8-2.3s1.3-0.9,2.2-0.9c0.9,0,1.7,0.3,2.2,0.9s0.8,1.4,0.8,2.3v0.1
			c0,1-0.3,1.7-0.8,2.3s-1.3,0.9-2.2,0.9c-0.9,0-1.7-0.3-2.2-0.9s-0.8-1.4-0.8-2.3V20z M315.9,20.2c0,0.6,0.1,1,0.3,1.4
			s0.5,0.5,1,0.5c0.4,0,0.8-0.2,1-0.5s0.3-0.8,0.3-1.4V20c0-0.6-0.1-1-0.3-1.4s-0.5-0.5-1-0.5s-0.8,0.2-1,0.5s-0.3,0.8-0.3,1.4V20.2
			z"/>
		<path class="st4" d="M320.8,22.2l0.8-0.2v-3.9l-0.9-0.2v-1h2.5l0.1,0.9c0.2-0.3,0.5-0.6,0.8-0.8s0.7-0.3,1-0.3
			c0.6,0,1.1,0.2,1.5,0.6s0.5,1,0.5,1.9v2.8l0.8,0.2v1h-3.3v-1l0.7-0.2v-2.8c0-0.4-0.1-0.7-0.3-0.9s-0.4-0.3-0.8-0.3
			c-0.2,0-0.4,0-0.6,0.1s-0.3,0.2-0.5,0.4v3.4l0.7,0.2v1h-3.2V22.2z"/>
		<path class="st4" d="M331.1,15.4v1.6h1.1v1.2h-1.1v3.2c0,0.2,0.1,0.4,0.2,0.5s0.2,0.2,0.4,0.2c0.1,0,0.2,0,0.3,0s0.2,0,0.3,0
			l0.1,1.2c-0.2,0.1-0.4,0.1-0.6,0.1s-0.4,0-0.6,0c-0.6,0-1-0.2-1.4-0.5s-0.5-0.8-0.5-1.5v-3.2h-0.9v-1.2h0.9v-1.6H331.1z"/>
		<path class="st4" d="M337.1,23.3c0-0.1-0.1-0.2-0.1-0.3s-0.1-0.2-0.1-0.3c-0.2,0.2-0.4,0.4-0.7,0.6s-0.6,0.2-1,0.2
			c-0.6,0-1.1-0.2-1.5-0.5s-0.5-0.8-0.5-1.4c0-0.6,0.2-1.1,0.7-1.4s1.2-0.5,2.1-0.5h0.9V19c0-0.3-0.1-0.5-0.3-0.7s-0.4-0.3-0.8-0.3
			c-0.2,0-0.4,0-0.5,0.1s-0.3,0.1-0.4,0.2l-0.1,0.7h-1.3l0-1.4c0.3-0.2,0.7-0.4,1.1-0.5s0.8-0.2,1.3-0.2c0.8,0,1.4,0.2,1.9,0.6
			s0.7,0.9,0.7,1.6v2.6c0,0.1,0,0.2,0,0.3s0,0.2,0,0.2l0.5,0.1v1H337.1z M335.6,22.1c0.3,0,0.5-0.1,0.7-0.2s0.4-0.3,0.5-0.4v-1h-0.9
			c-0.4,0-0.6,0.1-0.8,0.3s-0.3,0.4-0.3,0.6c0,0.2,0.1,0.4,0.2,0.5S335.3,22.1,335.6,22.1z"/>
		<path class="st4" d="M339.6,22.2l0.8-0.2v-3.9l-0.9-0.2v-1h2.6v5.1l0.8,0.2v1h-3.4V22.2z M342.1,15.4h-1.7v-1.3h1.7V15.4z"/>
	</g>
	<g class="st3">
		<path class="st4" d="M343.4,22.2l0.8-0.2v-3.9l-0.9-0.2v-1h2.5l0.1,0.9c0.2-0.3,0.5-0.6,0.8-0.8s0.7-0.3,1-0.3
			c0.6,0,1.1,0.2,1.5,0.6s0.5,1,0.5,1.9v2.8l0.8,0.2v1h-3.3v-1l0.7-0.2v-2.8c0-0.4-0.1-0.7-0.3-0.9s-0.4-0.3-0.8-0.3
			c-0.2,0-0.4,0-0.6,0.1s-0.3,0.2-0.5,0.4v3.4l0.7,0.2v1h-3.2V22.2z"/>
	</g>
	<g class="st3">
		<path class="st4" d="M354.1,23.4c-0.9,0-1.6-0.3-2.2-0.9s-0.8-1.3-0.8-2.2V20c0-0.9,0.3-1.7,0.8-2.3s1.2-0.9,2.1-0.9
			c0.9,0,1.5,0.3,2,0.8s0.7,1.2,0.7,2.1v0.9h-3.8l0,0c0,0.4,0.2,0.8,0.4,1s0.6,0.4,1,0.4c0.4,0,0.7,0,0.9-0.1s0.5-0.2,0.8-0.4
			l0.5,1.1c-0.3,0.2-0.6,0.4-1,0.5S354.6,23.4,354.1,23.4z M353.9,18.1c-0.3,0-0.6,0.1-0.8,0.4s-0.3,0.6-0.3,1l0,0h2.1v-0.2
			c0-0.4-0.1-0.7-0.3-0.9S354.3,18.1,353.9,18.1z"/>
		<path class="st4" d="M357.6,22.2l0.8-0.2v-3.9l-0.9-0.2v-1h2.5l0.1,0.9c0.1-0.3,0.3-0.6,0.6-0.8s0.5-0.3,0.8-0.3
			c0.1,0,0.2,0,0.3,0s0.2,0,0.2,0l-0.2,1.6l-0.7,0c-0.3,0-0.5,0-0.6,0.1s-0.3,0.2-0.4,0.4v3.1l0.8,0.2v1h-3.4V22.2z"/>
	</g>
	<path class="st5" d="M166.8,22.1h-4.2c-0.6,0-0.8-0.2-0.8-0.8v-6.5c0-0.6,0.2-0.8,0.8-0.8h8.4c0.6,0,0.8,0.2,0.8,0.8v6.5
		c0,0.5-0.2,0.8-0.8,0.8C169.6,22.1,168.2,22.1,166.8,22.1z"/>
	<path class="st5" d="M165.4,5.8c1.6-0.7,3.5-0.5,4.9,0.7c1.7,1.6,1.9,4.2,0.3,5.9c-0.2,0.2-0.3,0.3-0.5,0.5c-0.3,0.3-0.6,0.4-1,0.7
		"/>
	<path class="st6" d="M166.1,19.3L166.1,19.3v0.9c0,0.2,0.1,0.2,0.3,0.2h0.8c0.2,0,0.3-0.1,0.3-0.3v-1.6c0-0.2,0.1-0.3,0.2-0.4
		c0.5-0.3,0.8-0.9,0.6-1.5c-0.2-0.6-0.8-1-1.4-1c-0.7-0.1-1.3,0.3-1.6,0.9c-0.2,0.6,0,1.2,0.5,1.5c0.2,0.1,0.3,0.3,0.3,0.5
		C166.1,18.8,166.1,19.1,166.1,19.3z"/>
	<g class="st3">
		<path class="st4" d="M64.8,83.7h4.6v0.9h-3.6v2.7h3.3v0.9h-3.3v3h3.6v0.9h-4.6V83.7z"/>
		<path class="st4" d="M75,92.1v-3.4c0-0.6-0.1-1.1-0.3-1.4c-0.2-0.3-0.5-0.5-1-0.5c-0.4,0-0.8,0.1-1.1,0.3
			c-0.3,0.2-0.5,0.5-0.6,0.9v4.1h-1v-6h0.7l0.2,0.7h0c0.2-0.3,0.4-0.5,0.8-0.6c0.3-0.2,0.7-0.2,1.2-0.2c0.3,0,0.6,0,0.9,0.1
			c0.2,0.1,0.5,0.2,0.6,0.4s0.3,0.5,0.4,0.8c0.1,0.3,0.1,0.7,0.1,1.2v3.6H75z"/>
		<path class="st4" d="M81.8,91.7c-0.2,0.2-0.5,0.3-0.9,0.4c-0.3,0.1-0.7,0.1-1,0.1c-0.5,0-0.9-0.1-1.2-0.2
			c-0.3-0.1-0.6-0.4-0.8-0.6c-0.2-0.3-0.4-0.6-0.4-1c-0.1-0.4-0.1-0.8-0.1-1.3c0-1,0.2-1.8,0.7-2.3c0.4-0.5,1.1-0.8,1.9-0.8
			c0.4,0,0.7,0,1,0.1c0.3,0.1,0.5,0.1,0.7,0.3l-0.3,0.8c-0.2-0.1-0.4-0.2-0.6-0.2c-0.2-0.1-0.5-0.1-0.7-0.1c-1.1,0-1.7,0.8-1.7,2.3
			c0,0.3,0,0.6,0.1,0.9s0.2,0.5,0.3,0.7c0.1,0.2,0.3,0.4,0.6,0.5s0.5,0.2,0.8,0.2c0.3,0,0.5,0,0.8-0.1s0.4-0.2,0.6-0.3L81.8,91.7z"
			/>
		<path class="st4" d="M86,87c-0.2-0.1-0.5-0.1-0.7-0.1c-0.3,0-0.6,0.1-0.8,0.3c-0.2,0.2-0.3,0.4-0.4,0.7v4.2h-1v-6h0.7l0.2,0.7h0
			c0.2-0.3,0.3-0.5,0.5-0.6C84.8,86,85,86,85.4,86c0.2,0,0.5,0,0.8,0.1L86,87z"/>
		<path class="st4" d="M89,90l0.3,1.2h0.1l0.3-1.2l1.2-3.9h1L90,91.5c-0.1,0.4-0.3,0.8-0.4,1.1c-0.1,0.4-0.3,0.7-0.4,1
			c-0.2,0.3-0.3,0.5-0.5,0.7c-0.2,0.2-0.4,0.3-0.7,0.3c-0.3,0-0.5,0-0.7-0.1l0.2-0.8c0.1,0,0.2,0.1,0.3,0.1c0.2,0,0.4-0.1,0.6-0.4
			c0.2-0.2,0.4-0.6,0.5-1.2l-2.4-6h1.1L89,90z"/>
		<path class="st4" d="M92.8,86.1h0.7l0.2,0.7h0c0.2-0.3,0.4-0.5,0.7-0.6s0.6-0.2,1-0.2c0.8,0,1.4,0.2,1.8,0.7
			c0.4,0.5,0.6,1.2,0.6,2.3c0,0.5-0.1,1-0.2,1.4s-0.3,0.7-0.6,1c-0.2,0.3-0.5,0.5-0.9,0.6c-0.3,0.2-0.7,0.2-1.1,0.2
			c-0.3,0-0.5,0-0.7-0.1S94,92.1,93.8,92v2.5h-1V86.1z M95.2,86.8c-0.4,0-0.7,0.1-1,0.3s-0.4,0.5-0.5,1v3c0.1,0.1,0.3,0.2,0.5,0.3
			c0.2,0.1,0.4,0.1,0.7,0.1c0.6,0,1-0.2,1.3-0.6c0.3-0.4,0.5-1,0.5-1.8c0-0.3,0-0.6-0.1-0.9c-0.1-0.3-0.1-0.5-0.3-0.7
			c-0.1-0.2-0.3-0.3-0.5-0.4C95.7,86.8,95.5,86.8,95.2,86.8z"/>
	</g>
	<g class="st3">
		<path class="st4" d="M98.5,86.1h0.9v-1.2l1-0.3v1.5h1.6v0.8h-1.6v3.3c0,0.4,0.1,0.7,0.2,0.9s0.3,0.3,0.5,0.3c0.2,0,0.4,0,0.5-0.1
			c0.1,0,0.3-0.1,0.5-0.2l0.2,0.7c-0.2,0.1-0.5,0.2-0.7,0.3c-0.3,0.1-0.5,0.1-0.8,0.1c-0.5,0-0.8-0.1-1-0.4
			c-0.2-0.3-0.3-0.7-0.3-1.4v-3.5h-0.9V86.1z"/>
	</g>
	<g class="st3">
		<path class="st4" d="M107.6,91.6c-0.2,0.2-0.5,0.3-0.9,0.5c-0.4,0.1-0.8,0.2-1.2,0.2c-0.5,0-0.9-0.1-1.2-0.2
			c-0.3-0.1-0.6-0.4-0.8-0.6c-0.2-0.3-0.4-0.6-0.5-1c-0.1-0.4-0.2-0.8-0.2-1.3c0-1,0.2-1.8,0.7-2.3s1.1-0.8,2-0.8
			c0.3,0,0.5,0,0.8,0.1c0.3,0.1,0.5,0.2,0.7,0.3c0.2,0.2,0.4,0.4,0.5,0.7c0.1,0.3,0.2,0.7,0.2,1.2c0,0.3,0,0.6-0.1,0.9h-3.9
			c0,0.4,0,0.7,0.1,0.9c0.1,0.3,0.2,0.5,0.3,0.7c0.2,0.2,0.4,0.3,0.6,0.4c0.2,0.1,0.5,0.1,0.9,0.1c0.3,0,0.5,0,0.8-0.1
			s0.5-0.2,0.6-0.3L107.6,91.6z M105.5,86.8c-0.5,0-0.9,0.1-1.1,0.4c-0.3,0.2-0.5,0.7-0.5,1.3h3c0-0.6-0.1-1-0.3-1.3
			C106.3,86.9,106,86.8,105.5,86.8z"/>
		<path class="st4" d="M113.9,90c0,0.4,0,0.8,0,1.1s0,0.7,0.1,1h-0.6l-0.2-0.9h0c-0.2,0.3-0.4,0.5-0.7,0.7c-0.3,0.2-0.7,0.3-1.1,0.3
			c-0.8,0-1.4-0.3-1.8-0.8s-0.6-1.3-0.6-2.4c0-1,0.2-1.8,0.7-2.3c0.5-0.5,1.1-0.8,2-0.8c0.3,0,0.5,0,0.7,0c0.2,0,0.4,0.1,0.6,0.2
			v-2.5h1V90z M111.5,91.4c0.4,0,0.7-0.1,1-0.3c0.2-0.2,0.4-0.5,0.5-1v-3c-0.1-0.1-0.3-0.2-0.5-0.2s-0.4-0.1-0.7-0.1
			c-0.6,0-1,0.2-1.3,0.5c-0.3,0.4-0.5,0.9-0.5,1.7c0,0.3,0,0.6,0.1,0.9c0.1,0.3,0.1,0.5,0.3,0.7s0.3,0.4,0.5,0.5
			C111,91.3,111.2,91.4,111.5,91.4z"/>
	</g>
	<g class="st3">
		<path class="st4" d="M64.6,100.9c0.3-0.2,0.7-0.3,1.1-0.4c0.4-0.1,0.8-0.1,1.3-0.1c0.4,0,0.8,0.1,1,0.2c0.3,0.1,0.4,0.3,0.6,0.4
			c0.1,0.2,0.2,0.4,0.3,0.6c0,0.2,0.1,0.4,0.1,0.6c0,0.5,0,0.9,0,1.4s0,0.9,0,1.3c0,0.3,0,0.6,0,0.8s0.1,0.5,0.1,0.7h-0.7l-0.3-0.8
			h-0.1c-0.1,0.1-0.2,0.2-0.3,0.3c-0.1,0.1-0.2,0.2-0.4,0.3s-0.3,0.2-0.5,0.2c-0.2,0.1-0.4,0.1-0.7,0.1c-0.3,0-0.5,0-0.7-0.1
			c-0.2-0.1-0.4-0.2-0.6-0.3c-0.2-0.1-0.3-0.3-0.4-0.5c-0.1-0.2-0.1-0.4-0.1-0.7c0-0.4,0.1-0.6,0.2-0.9c0.1-0.2,0.3-0.4,0.6-0.6
			c0.3-0.1,0.6-0.2,0.9-0.3c0.4-0.1,0.8-0.1,1.2-0.1c0.1,0,0.2,0,0.3,0c0.1,0,0.2,0,0.3,0c0-0.2,0-0.5,0-0.6c0-0.4-0.1-0.7-0.3-0.9
			c-0.2-0.2-0.5-0.3-1-0.3c-0.1,0-0.3,0-0.4,0c-0.2,0-0.3,0-0.5,0.1s-0.3,0.1-0.5,0.1s-0.3,0.1-0.4,0.2L64.6,100.9z M66.3,105.7
			c0.2,0,0.4,0,0.6-0.1c0.2-0.1,0.3-0.1,0.5-0.2c0.1-0.1,0.2-0.2,0.3-0.3c0.1-0.1,0.1-0.2,0.2-0.3v-1c-0.1,0-0.2,0-0.3,0
			c-0.1,0-0.2,0-0.3,0c-0.2,0-0.5,0-0.7,0c-0.2,0-0.4,0.1-0.6,0.2c-0.2,0.1-0.3,0.2-0.4,0.3s-0.2,0.3-0.2,0.5c0,0.3,0.1,0.5,0.3,0.7
			C65.8,105.7,66,105.7,66.3,105.7z"/>
		<path class="st4" d="M73.5,101.4c-0.2-0.1-0.5-0.1-0.7-0.1c-0.3,0-0.6,0.1-0.8,0.3c-0.2,0.2-0.3,0.4-0.4,0.7v4.2h-1v-6h0.7
			l0.2,0.7h0c0.2-0.3,0.3-0.5,0.5-0.6c0.2-0.1,0.5-0.2,0.8-0.2c0.2,0,0.5,0,0.8,0.1L73.5,101.4z"/>
		<path class="st4" d="M79.3,106.8c0,0.8-0.2,1.3-0.6,1.7s-1,0.6-1.8,0.6c-0.5,0-0.9,0-1.2-0.1c-0.3-0.1-0.5-0.1-0.8-0.2l0.3-0.8
			c0.2,0.1,0.4,0.1,0.6,0.2c0.2,0.1,0.5,0.1,0.9,0.1c0.3,0,0.6,0,0.8-0.1c0.2-0.1,0.4-0.2,0.5-0.3c0.1-0.1,0.2-0.3,0.3-0.5
			c0-0.2,0.1-0.5,0.1-0.8v-0.6h0c-0.2,0.2-0.4,0.4-0.6,0.5c-0.2,0.1-0.6,0.2-1,0.2c-0.8,0-1.4-0.3-1.8-0.8c-0.4-0.5-0.6-1.3-0.6-2.4
			c0-1,0.2-1.8,0.7-2.3c0.5-0.5,1.2-0.8,2.2-0.8c0.5,0,0.8,0,1.2,0.1c0.3,0.1,0.6,0.2,0.9,0.3V106.8z M76.9,105.8
			c0.4,0,0.7-0.1,1-0.3s0.4-0.5,0.5-1v-3.1c-0.3-0.2-0.7-0.2-1.2-0.2c-0.5,0-1,0.2-1.3,0.6c-0.3,0.4-0.5,0.9-0.5,1.7
			c0,0.3,0,0.6,0.1,0.9c0.1,0.3,0.1,0.5,0.3,0.7c0.1,0.2,0.3,0.4,0.5,0.5S76.6,105.8,76.9,105.8z"/>
		<path class="st4" d="M82.1,100.5v3.4c0,0.3,0,0.6,0.1,0.8c0,0.2,0.1,0.4,0.2,0.6s0.2,0.3,0.4,0.4c0.2,0.1,0.3,0.1,0.6,0.1
			c0.2,0,0.4,0,0.6-0.1s0.3-0.2,0.5-0.3c0.1-0.1,0.2-0.3,0.3-0.4s0.2-0.3,0.2-0.5v-4h1v4.3c0,0.3,0,0.6,0,0.9c0,0.3,0.1,0.6,0.1,0.8
			h-0.7l-0.2-0.9H85c-0.2,0.3-0.4,0.6-0.7,0.8s-0.7,0.3-1.2,0.3c-0.3,0-0.6,0-0.8-0.1c-0.2-0.1-0.4-0.2-0.6-0.4
			c-0.2-0.2-0.3-0.5-0.4-0.8c-0.1-0.3-0.1-0.7-0.1-1.2v-3.6H82.1z"/>
		<path class="st4" d="M91.2,106.5v-3.4c0-0.3,0-0.6,0-0.8c0-0.2-0.1-0.4-0.2-0.6s-0.2-0.3-0.3-0.4s-0.3-0.1-0.6-0.1
			c-0.4,0-0.7,0.1-0.9,0.3c-0.2,0.2-0.4,0.5-0.5,0.8v4.1h-1v-6h0.7l0.2,0.7h0c0.2-0.3,0.5-0.5,0.8-0.6c0.3-0.2,0.7-0.2,1.1-0.2
			c0.4,0,0.7,0.1,0.9,0.2s0.4,0.4,0.6,0.8c0.2-0.3,0.4-0.6,0.8-0.7s0.7-0.3,1.1-0.3c0.3,0,0.6,0,0.9,0.1c0.2,0.1,0.4,0.2,0.6,0.4
			s0.3,0.5,0.3,0.8s0.1,0.7,0.1,1.2v3.6h-1v-3.6c0-0.3,0-0.5,0-0.8c0-0.2-0.1-0.4-0.2-0.5c-0.1-0.1-0.2-0.2-0.3-0.3
			c-0.1-0.1-0.3-0.1-0.6-0.1c-0.4,0-0.7,0.1-0.9,0.3s-0.4,0.5-0.5,1v4H91.2z"/>
		<path class="st4" d="M101.8,106c-0.2,0.2-0.5,0.3-0.9,0.5c-0.4,0.1-0.8,0.2-1.2,0.2c-0.5,0-0.9-0.1-1.2-0.2
			c-0.3-0.1-0.6-0.4-0.8-0.6c-0.2-0.3-0.4-0.6-0.5-1c-0.1-0.4-0.2-0.8-0.2-1.3c0-1,0.2-1.8,0.7-2.3s1.1-0.8,2-0.8
			c0.3,0,0.5,0,0.8,0.1c0.3,0.1,0.5,0.2,0.7,0.3c0.2,0.2,0.4,0.4,0.5,0.7c0.1,0.3,0.2,0.7,0.2,1.2c0,0.3,0,0.6-0.1,0.9h-3.9
			c0,0.4,0,0.7,0.1,0.9c0.1,0.3,0.2,0.5,0.3,0.7c0.2,0.2,0.4,0.3,0.6,0.4c0.2,0.1,0.5,0.1,0.9,0.1c0.3,0,0.5,0,0.8-0.1
			s0.5-0.2,0.6-0.3L101.8,106z M99.7,101.2c-0.5,0-0.9,0.1-1.1,0.4c-0.3,0.2-0.5,0.7-0.5,1.3h3c0-0.6-0.1-1-0.3-1.3
			C100.5,101.3,100.1,101.2,99.7,101.2z"/>
		<path class="st4" d="M107.3,106.5v-3.4c0-0.6-0.1-1.1-0.3-1.4c-0.2-0.3-0.5-0.5-1-0.5c-0.4,0-0.8,0.1-1.1,0.3
			c-0.3,0.2-0.5,0.5-0.6,0.9v4.1h-1v-6h0.7l0.2,0.7h0c0.2-0.3,0.4-0.5,0.8-0.6c0.3-0.2,0.7-0.2,1.2-0.2c0.3,0,0.6,0,0.9,0.1
			c0.2,0.1,0.5,0.2,0.6,0.4s0.3,0.5,0.4,0.8c0.1,0.3,0.1,0.7,0.1,1.2v3.6H107.3z"/>
		<path class="st4" d="M109.3,100.5h0.9v-1.2l1-0.3v1.5h1.6v0.8h-1.6v3.3c0,0.4,0.1,0.7,0.2,0.9s0.3,0.3,0.5,0.3
			c0.2,0,0.4,0,0.5-0.1c0.1,0,0.3-0.1,0.5-0.2l0.2,0.7c-0.2,0.1-0.5,0.2-0.7,0.3c-0.3,0.1-0.5,0.1-0.8,0.1c-0.5,0-0.8-0.1-1-0.4
			c-0.2-0.3-0.3-0.7-0.3-1.4v-3.5h-0.9V100.5z"/>
		<path class="st4" d="M116.8,104.9c0-0.2-0.1-0.4-0.2-0.6c-0.1-0.1-0.3-0.3-0.5-0.3s-0.4-0.2-0.7-0.3s-0.5-0.2-0.7-0.3
			s-0.4-0.3-0.5-0.5s-0.2-0.5-0.2-0.8c0-0.6,0.2-1,0.5-1.3c0.3-0.3,0.8-0.4,1.4-0.4c0.4,0,0.8,0,1.1,0.1c0.3,0.1,0.5,0.2,0.8,0.3
			l-0.2,0.8c-0.2-0.1-0.4-0.2-0.7-0.2c-0.3-0.1-0.5-0.1-0.8-0.1c-0.4,0-0.6,0.1-0.8,0.2s-0.2,0.3-0.2,0.6c0,0.2,0.1,0.4,0.2,0.5
			s0.3,0.2,0.5,0.3s0.4,0.2,0.7,0.3s0.5,0.2,0.7,0.3s0.4,0.3,0.5,0.5s0.2,0.5,0.2,0.9c0,0.3,0,0.5-0.1,0.7c-0.1,0.2-0.2,0.4-0.4,0.6
			c-0.2,0.2-0.4,0.3-0.7,0.4c-0.3,0.1-0.6,0.1-0.9,0.1c-0.5,0-0.8,0-1.2-0.1s-0.6-0.2-0.8-0.3l0.3-0.8c0.2,0.1,0.4,0.2,0.7,0.3
			s0.6,0.1,0.9,0.1c0.3,0,0.6-0.1,0.9-0.2C116.7,105.5,116.8,105.2,116.8,104.9z"/>
		<path class="st4" d="M125.4,97.9l0.8,0.3l-4.4,9.9l-0.8-0.3L125.4,97.9z"/>
	</g>
	<g class="st3">
		<path class="st4" d="M69.1,142.6c-0.2,0.2-0.5,0.3-0.9,0.5c-0.4,0.1-0.8,0.2-1.2,0.2c-0.5,0-0.9-0.1-1.2-0.2
			c-0.3-0.1-0.6-0.4-0.8-0.6c-0.2-0.3-0.4-0.6-0.5-1c-0.1-0.4-0.2-0.8-0.2-1.3c0-1,0.2-1.8,0.7-2.3s1.1-0.8,2-0.8
			c0.3,0,0.5,0,0.8,0.1c0.3,0.1,0.5,0.2,0.7,0.3c0.2,0.2,0.4,0.4,0.5,0.7c0.1,0.3,0.2,0.7,0.2,1.2c0,0.3,0,0.6-0.1,0.9h-3.9
			c0,0.4,0,0.7,0.1,0.9c0.1,0.3,0.2,0.5,0.3,0.7c0.2,0.2,0.4,0.3,0.6,0.4c0.2,0.1,0.5,0.1,0.9,0.1c0.3,0,0.5,0,0.8-0.1
			s0.5-0.2,0.6-0.3L69.1,142.6z M67,137.8c-0.5,0-0.9,0.1-1.1,0.4c-0.3,0.2-0.5,0.7-0.5,1.3h3c0-0.6-0.1-1-0.3-1.3
			C67.8,137.9,67.5,137.8,67,137.8z"/>
		<path class="st4" d="M74.7,143.1v-3.4c0-0.6-0.1-1.1-0.3-1.4c-0.2-0.3-0.5-0.5-1-0.5c-0.4,0-0.8,0.1-1.1,0.3
			c-0.3,0.2-0.5,0.5-0.6,0.9v4.1h-1v-6h0.7l0.2,0.7h0c0.2-0.3,0.4-0.5,0.8-0.6c0.3-0.2,0.7-0.2,1.2-0.2c0.3,0,0.6,0,0.9,0.1
			c0.2,0.1,0.5,0.2,0.6,0.4s0.3,0.5,0.4,0.8c0.1,0.3,0.1,0.7,0.1,1.2v3.6H74.7z"/>
		<path class="st4" d="M79.1,140.6l0.3,1.1h0l0.3-1.2l1.3-3.5h1l-2.6,6.1h-0.4l-2.6-6.1h1.1L79.1,140.6z"/>
		<path class="st4" d="M83.2,135.3c0-0.2,0.1-0.3,0.2-0.5s0.3-0.2,0.5-0.2s0.4,0.1,0.5,0.2c0.1,0.1,0.2,0.3,0.2,0.5
			c0,0.2-0.1,0.3-0.2,0.5c-0.1,0.1-0.3,0.2-0.5,0.2s-0.4-0.1-0.5-0.2S83.2,135.5,83.2,135.3z M83.4,137.1h1v6h-1V137.1z"/>
		<path class="st4" d="M89.2,138c-0.2-0.1-0.5-0.1-0.7-0.1c-0.3,0-0.6,0.1-0.8,0.3c-0.2,0.2-0.3,0.4-0.4,0.7v4.2h-1v-6H87l0.2,0.7h0
			c0.2-0.3,0.3-0.5,0.5-0.6c0.2-0.1,0.5-0.2,0.8-0.2c0.2,0,0.5,0,0.8,0.1L89.2,138z"/>
		<path class="st4" d="M90.1,140.1c0-1,0.2-1.8,0.7-2.3c0.5-0.5,1.1-0.8,1.9-0.8c0.4,0,0.8,0.1,1.2,0.2c0.3,0.1,0.6,0.4,0.8,0.6
			c0.2,0.3,0.4,0.6,0.5,1s0.2,0.8,0.2,1.3c0,1-0.2,1.8-0.7,2.3c-0.5,0.5-1.1,0.8-2,0.8c-0.4,0-0.8-0.1-1.2-0.2
			c-0.3-0.1-0.6-0.4-0.8-0.6c-0.2-0.3-0.4-0.6-0.5-1C90.2,141,90.1,140.6,90.1,140.1z M91.1,140.1c0,0.3,0,0.6,0.1,0.9
			s0.2,0.5,0.3,0.7s0.3,0.4,0.5,0.5s0.5,0.2,0.8,0.2c1.1,0,1.6-0.8,1.6-2.3c0-0.3,0-0.6-0.1-0.9c-0.1-0.3-0.2-0.5-0.3-0.7
			s-0.3-0.4-0.5-0.5c-0.2-0.1-0.5-0.2-0.8-0.2C91.7,137.8,91.1,138.6,91.1,140.1z"/>
		<path class="st4" d="M100.7,143.1v-3.4c0-0.6-0.1-1.1-0.3-1.4c-0.2-0.3-0.5-0.5-1-0.5c-0.4,0-0.8,0.1-1.1,0.3
			c-0.3,0.2-0.5,0.5-0.6,0.9v4.1h-1v-6h0.7l0.2,0.7h0c0.2-0.3,0.4-0.5,0.8-0.6c0.3-0.2,0.7-0.2,1.2-0.2c0.3,0,0.6,0,0.9,0.1
			c0.2,0.1,0.5,0.2,0.6,0.4s0.3,0.5,0.4,0.8c0.1,0.3,0.1,0.7,0.1,1.2v3.6H100.7z"/>
		<path class="st4" d="M107,143.1v-3.4c0-0.3,0-0.6,0-0.8c0-0.2-0.1-0.4-0.2-0.6s-0.2-0.3-0.3-0.4s-0.3-0.1-0.6-0.1
			c-0.4,0-0.7,0.1-0.9,0.3c-0.2,0.2-0.4,0.5-0.5,0.8v4.1h-1v-6h0.7l0.2,0.7h0c0.2-0.3,0.5-0.5,0.8-0.6c0.3-0.2,0.7-0.2,1.1-0.2
			c0.4,0,0.7,0.1,0.9,0.2s0.4,0.4,0.6,0.8c0.2-0.3,0.4-0.6,0.8-0.7s0.7-0.3,1.1-0.3c0.3,0,0.6,0,0.9,0.1c0.2,0.1,0.4,0.2,0.6,0.4
			s0.3,0.5,0.3,0.8s0.1,0.7,0.1,1.2v3.6h-1v-3.6c0-0.3,0-0.5,0-0.8c0-0.2-0.1-0.4-0.2-0.5c-0.1-0.1-0.2-0.2-0.3-0.3
			c-0.1-0.1-0.3-0.1-0.6-0.1c-0.4,0-0.7,0.1-0.9,0.3s-0.4,0.5-0.5,1v4H107z"/>
		<path class="st4" d="M117.6,142.6c-0.2,0.2-0.5,0.3-0.9,0.5c-0.4,0.1-0.8,0.2-1.2,0.2c-0.5,0-0.9-0.1-1.2-0.2
			c-0.3-0.1-0.6-0.4-0.8-0.6c-0.2-0.3-0.4-0.6-0.5-1c-0.1-0.4-0.2-0.8-0.2-1.3c0-1,0.2-1.8,0.7-2.3s1.1-0.8,2-0.8
			c0.3,0,0.5,0,0.8,0.1c0.3,0.1,0.5,0.2,0.7,0.3c0.2,0.2,0.4,0.4,0.5,0.7c0.1,0.3,0.2,0.7,0.2,1.2c0,0.3,0,0.6-0.1,0.9h-3.9
			c0,0.4,0,0.7,0.1,0.9c0.1,0.3,0.2,0.5,0.3,0.7c0.2,0.2,0.4,0.3,0.6,0.4c0.2,0.1,0.5,0.1,0.9,0.1c0.3,0,0.5,0,0.8-0.1
			s0.5-0.2,0.6-0.3L117.6,142.6z M115.5,137.8c-0.5,0-0.9,0.1-1.1,0.4c-0.3,0.2-0.5,0.7-0.5,1.3h3c0-0.6-0.1-1-0.3-1.3
			C116.3,137.9,115.9,137.8,115.5,137.8z"/>
		<path class="st4" d="M123.1,143.1v-3.4c0-0.6-0.1-1.1-0.3-1.4c-0.2-0.3-0.5-0.5-1-0.5c-0.4,0-0.8,0.1-1.1,0.3
			c-0.3,0.2-0.5,0.5-0.6,0.9v4.1h-1v-6h0.7l0.2,0.7h0c0.2-0.3,0.4-0.5,0.8-0.6c0.3-0.2,0.7-0.2,1.2-0.2c0.3,0,0.6,0,0.9,0.1
			c0.2,0.1,0.5,0.2,0.6,0.4s0.3,0.5,0.4,0.8c0.1,0.3,0.1,0.7,0.1,1.2v3.6H123.1z"/>
		<path class="st4" d="M125.1,137.1h0.9v-1.2l1-0.3v1.5h1.6v0.8H127v3.3c0,0.4,0.1,0.7,0.2,0.9s0.3,0.3,0.5,0.3c0.2,0,0.4,0,0.5-0.1
			c0.1,0,0.3-0.1,0.5-0.2l0.2,0.7c-0.2,0.1-0.5,0.2-0.7,0.3c-0.3,0.1-0.5,0.1-0.8,0.1c-0.5,0-0.8-0.1-1-0.4
			c-0.2-0.3-0.3-0.7-0.3-1.4V138h-0.9V137.1z"/>
	</g>
	<g class="st3">
		<path class="st4" d="M66.4,155l0.3,1.1h0l0.3-1.2l1.3-3.5h1l-2.6,6.1h-0.4l-2.6-6.1H65L66.4,155z"/>
		<path class="st4" d="M70.4,152c0.3-0.2,0.7-0.3,1.1-0.4c0.4-0.1,0.8-0.1,1.3-0.1c0.4,0,0.8,0.1,1,0.2c0.3,0.1,0.4,0.3,0.6,0.4
			c0.1,0.2,0.2,0.4,0.3,0.6c0,0.2,0.1,0.4,0.1,0.6c0,0.5,0,0.9,0,1.4s0,0.9,0,1.3c0,0.3,0,0.6,0,0.8s0.1,0.5,0.1,0.7H74l-0.3-0.8
			h-0.1c-0.1,0.1-0.2,0.2-0.3,0.3c-0.1,0.1-0.2,0.2-0.4,0.3s-0.3,0.2-0.5,0.2c-0.2,0.1-0.4,0.1-0.7,0.1c-0.3,0-0.5,0-0.7-0.1
			c-0.2-0.1-0.4-0.2-0.6-0.3c-0.2-0.1-0.3-0.3-0.4-0.5c-0.1-0.2-0.1-0.4-0.1-0.7c0-0.4,0.1-0.6,0.2-0.9c0.1-0.2,0.3-0.4,0.6-0.6
			c0.3-0.1,0.6-0.2,0.9-0.3c0.4-0.1,0.8-0.1,1.2-0.1c0.1,0,0.2,0,0.3,0c0.1,0,0.2,0,0.3,0c0-0.2,0-0.5,0-0.6c0-0.4-0.1-0.7-0.3-0.9
			c-0.2-0.2-0.5-0.3-1-0.3c-0.1,0-0.3,0-0.4,0c-0.2,0-0.3,0-0.5,0.1s-0.3,0.1-0.5,0.1s-0.3,0.1-0.4,0.2L70.4,152z M72.1,156.8
			c0.2,0,0.4,0,0.6-0.1c0.2-0.1,0.3-0.1,0.5-0.2c0.1-0.1,0.2-0.2,0.3-0.3c0.1-0.1,0.1-0.2,0.2-0.3v-1c-0.1,0-0.2,0-0.3,0
			c-0.1,0-0.2,0-0.3,0c-0.2,0-0.5,0-0.7,0c-0.2,0-0.4,0.1-0.6,0.2c-0.2,0.1-0.3,0.2-0.4,0.3s-0.2,0.3-0.2,0.5c0,0.3,0.1,0.5,0.3,0.7
			C71.5,156.7,71.8,156.8,72.1,156.8z"/>
		<path class="st4" d="M79.3,152.4c-0.2-0.1-0.5-0.1-0.7-0.1c-0.3,0-0.6,0.1-0.8,0.3c-0.2,0.2-0.3,0.4-0.4,0.7v4.2h-1v-6h0.7
			l0.2,0.7h0c0.2-0.3,0.3-0.5,0.5-0.6c0.2-0.1,0.5-0.2,0.8-0.2c0.2,0,0.5,0,0.8,0.1L79.3,152.4z"/>
		<path class="st4" d="M80.5,149.7c0-0.2,0.1-0.3,0.2-0.5s0.3-0.2,0.5-0.2s0.4,0.1,0.5,0.2c0.1,0.1,0.2,0.3,0.2,0.5
			c0,0.2-0.1,0.3-0.2,0.5c-0.1,0.1-0.3,0.2-0.5,0.2s-0.4-0.1-0.5-0.2S80.5,149.9,80.5,149.7z M80.7,151.5h1v6h-1V151.5z"/>
		<path class="st4" d="M83.6,152c0.3-0.2,0.7-0.3,1.1-0.4c0.4-0.1,0.8-0.1,1.3-0.1c0.4,0,0.8,0.1,1,0.2c0.3,0.1,0.4,0.3,0.6,0.4
			c0.1,0.2,0.2,0.4,0.3,0.6c0,0.2,0.1,0.4,0.1,0.6c0,0.5,0,0.9,0,1.4s0,0.9,0,1.3c0,0.3,0,0.6,0,0.8s0.1,0.5,0.1,0.7h-0.7l-0.3-0.8
			H87c-0.1,0.1-0.2,0.2-0.3,0.3c-0.1,0.1-0.2,0.2-0.4,0.3s-0.3,0.2-0.5,0.2c-0.2,0.1-0.4,0.1-0.7,0.1c-0.3,0-0.5,0-0.7-0.1
			c-0.2-0.1-0.4-0.2-0.6-0.3c-0.2-0.1-0.3-0.3-0.4-0.5c-0.1-0.2-0.1-0.4-0.1-0.7c0-0.4,0.1-0.6,0.2-0.9c0.1-0.2,0.3-0.4,0.6-0.6
			c0.3-0.1,0.6-0.2,0.9-0.3c0.4-0.1,0.8-0.1,1.2-0.1c0.1,0,0.2,0,0.3,0c0.1,0,0.2,0,0.3,0c0-0.2,0-0.5,0-0.6c0-0.4-0.1-0.7-0.3-0.9
			c-0.2-0.2-0.5-0.3-1-0.3c-0.1,0-0.3,0-0.4,0c-0.2,0-0.3,0-0.5,0.1s-0.3,0.1-0.5,0.1s-0.3,0.1-0.4,0.2L83.6,152z M85.4,156.8
			c0.2,0,0.4,0,0.6-0.1c0.2-0.1,0.3-0.1,0.5-0.2c0.1-0.1,0.2-0.2,0.3-0.3c0.1-0.1,0.1-0.2,0.2-0.3v-1c-0.1,0-0.2,0-0.3,0
			c-0.1,0-0.2,0-0.3,0c-0.2,0-0.5,0-0.7,0c-0.2,0-0.4,0.1-0.6,0.2c-0.2,0.1-0.3,0.2-0.4,0.3s-0.2,0.3-0.2,0.5c0,0.3,0.1,0.5,0.3,0.7
			C84.8,156.7,85,156.8,85.4,156.8z"/>
		<path class="st4" d="M89.7,149.1h1v3h0c0.2-0.2,0.4-0.4,0.7-0.5c0.3-0.1,0.6-0.2,0.9-0.2c0.8,0,1.4,0.2,1.7,0.7
			c0.4,0.5,0.6,1.3,0.6,2.3c0,1-0.3,1.8-0.8,2.4c-0.5,0.5-1.2,0.8-2.2,0.8c-0.4,0-0.9,0-1.2-0.1c-0.4-0.1-0.6-0.2-0.8-0.3V149.1z
			 M92.2,152.2c-0.4,0-0.7,0.1-1,0.3s-0.4,0.5-0.5,0.9v3c0.2,0.1,0.3,0.2,0.6,0.2s0.4,0.1,0.7,0.1c0.5,0,1-0.2,1.3-0.6
			c0.3-0.4,0.5-1,0.5-1.8c0-0.3,0-0.6-0.1-0.9c-0.1-0.3-0.1-0.5-0.3-0.7c-0.1-0.2-0.3-0.3-0.5-0.5S92.4,152.2,92.2,152.2z"/>
		<path class="st4" d="M97.2,156c0,0.3,0,0.5,0.1,0.6c0.1,0.1,0.2,0.2,0.4,0.2c0.1,0,0.2,0,0.3,0c0.1,0,0.3-0.1,0.4-0.1l0.1,0.8
			c-0.1,0.1-0.3,0.1-0.5,0.2s-0.4,0.1-0.6,0.1c-0.4,0-0.7-0.1-0.9-0.3s-0.3-0.5-0.3-1v-7.2h1V156z"/>
		<path class="st4" d="M104.1,157c-0.2,0.2-0.5,0.3-0.9,0.5c-0.4,0.1-0.8,0.2-1.2,0.2c-0.5,0-0.9-0.1-1.2-0.2
			c-0.3-0.1-0.6-0.4-0.8-0.6c-0.2-0.3-0.4-0.6-0.5-1c-0.1-0.4-0.2-0.8-0.2-1.3c0-1,0.2-1.8,0.7-2.3s1.1-0.8,2-0.8
			c0.3,0,0.5,0,0.8,0.1c0.3,0.1,0.5,0.2,0.7,0.3c0.2,0.2,0.4,0.4,0.5,0.7c0.1,0.3,0.2,0.7,0.2,1.2c0,0.3,0,0.6-0.1,0.9h-3.9
			c0,0.4,0,0.7,0.1,0.9c0.1,0.3,0.2,0.5,0.3,0.7c0.2,0.2,0.4,0.3,0.6,0.4c0.2,0.1,0.5,0.1,0.9,0.1c0.3,0,0.5,0,0.8-0.1
			s0.5-0.2,0.6-0.3L104.1,157z M102,152.2c-0.5,0-0.9,0.1-1.1,0.4c-0.3,0.2-0.5,0.7-0.5,1.3h3c0-0.6-0.1-1-0.3-1.3
			C102.7,152.3,102.4,152.2,102,152.2z"/>
		<path class="st4" d="M108.4,155.9c0-0.2-0.1-0.4-0.2-0.6c-0.1-0.1-0.3-0.3-0.5-0.3s-0.4-0.2-0.7-0.3s-0.5-0.2-0.7-0.3
			s-0.4-0.3-0.5-0.5s-0.2-0.5-0.2-0.8c0-0.6,0.2-1,0.5-1.3c0.3-0.3,0.8-0.4,1.4-0.4c0.4,0,0.8,0,1.1,0.1c0.3,0.1,0.5,0.2,0.8,0.3
			l-0.2,0.8c-0.2-0.1-0.4-0.2-0.7-0.2c-0.3-0.1-0.5-0.1-0.8-0.1c-0.4,0-0.6,0.1-0.8,0.2s-0.2,0.3-0.2,0.6c0,0.2,0.1,0.4,0.2,0.5
			s0.3,0.2,0.5,0.3s0.4,0.2,0.7,0.3s0.5,0.2,0.7,0.3s0.4,0.3,0.5,0.5s0.2,0.5,0.2,0.9c0,0.3,0,0.5-0.1,0.7c-0.1,0.2-0.2,0.4-0.4,0.6
			c-0.2,0.2-0.4,0.3-0.7,0.4c-0.3,0.1-0.6,0.1-0.9,0.1c-0.5,0-0.8,0-1.2-0.1s-0.6-0.2-0.8-0.3l0.3-0.8c0.2,0.1,0.4,0.2,0.7,0.3
			s0.6,0.1,0.9,0.1c0.3,0,0.6-0.1,0.9-0.2C108.3,156.5,108.4,156.2,108.4,155.9z"/>
	</g>
	
		<linearGradient id="SVGID_1_" gradientUnits="userSpaceOnUse" x1="174.65" y1="208.53" x2="346.44" y2="208.53" gradientTransform="matrix(1 0 0 -1 0 332)">
		<stop  offset="0" style="stop-color:#990066"/>
		<stop  offset="0.19" style="stop-color:#780066"/>
		<stop  offset="0.4" style="stop-color:#5A0066"/>
		<stop  offset="0.61" style="stop-color:#440066"/>
		<stop  offset="0.81" style="stop-color:#370066"/>
		<stop  offset="1" style="stop-color:#330066"/>
	</linearGradient>
	<path class="st7" d="M179.6,70.8h161.8c2.8,0,5,2.2,5,5v95.4c0,2.8-2.2,5-5,5H179.6c-2.8,0-5-2.2-5-5V75.8
		C174.6,73,176.9,70.8,179.6,70.8z"/>
	<path class="st8" d="M179.6,70.8h161.8c2.8,0,5,2.2,5,5v95.4c0,2.8-2.2,5-5,5H179.6c-2.8,0-5-2.2-5-5V75.8
		C174.6,73,176.9,70.8,179.6,70.8z"/>
	<path class="st9" d="M192.5,117.1H328c2.8,0,5,2.2,5,5v17.2c0,2.8-2.2,5-5,5H192.5c-2.8,0-5-2.2-5-5v-17.2
		C187.5,119.3,189.7,117.1,192.5,117.1z"/>
	<g class="st3">
		<path class="st2" d="M201.5,126.4v0.9l-0.8,0.2v4.1c0,0.5,0.1,0.9,0.4,1.2c0.3,0.3,0.7,0.4,1.1,0.4c0.5,0,0.9-0.1,1.2-0.4
			s0.4-0.6,0.4-1.2v-4.1l-0.8-0.2v-0.9h3.2v0.9l-0.8,0.2v4.1c0,0.9-0.3,1.6-0.9,2c-0.6,0.5-1.3,0.7-2.3,0.7c-0.9,0-1.7-0.2-2.3-0.7
			c-0.6-0.5-0.9-1.2-0.9-2v-4.1l-0.8-0.2v-0.9h0.8h1.6H201.5z"/>
		<path class="st2" d="M206.6,133.3l0.8-0.2v-3.6l-0.8-0.2v-0.9h2.3l0.1,0.8c0.2-0.3,0.4-0.5,0.7-0.7s0.6-0.2,1-0.2
			c0.6,0,1,0.2,1.4,0.6c0.3,0.4,0.5,0.9,0.5,1.7v2.5l0.8,0.2v0.9h-3v-0.9l0.7-0.2v-2.5c0-0.4-0.1-0.7-0.2-0.8s-0.4-0.2-0.7-0.2
			c-0.2,0-0.4,0-0.6,0.1s-0.3,0.2-0.4,0.4v3.1l0.6,0.2v0.9h-3V133.3z"/>
	</g>
	<g class="st3">
		<path class="st2" d="M213.5,129.4v-0.9h2.3l0.1,0.8c0.2-0.3,0.4-0.5,0.7-0.6c0.3-0.2,0.6-0.2,1-0.2c0.4,0,0.7,0.1,1,0.2
			s0.5,0.4,0.6,0.7c0.2-0.3,0.4-0.6,0.7-0.7c0.3-0.2,0.6-0.3,1-0.3c0.6,0,1,0.2,1.4,0.6c0.3,0.4,0.5,1,0.5,1.8v2.4l0.8,0.2v0.9h-3
			v-0.9l0.7-0.2v-2.4c0-0.4-0.1-0.7-0.2-0.9s-0.4-0.3-0.6-0.3c-0.2,0-0.4,0-0.6,0.1c-0.2,0.1-0.3,0.2-0.4,0.4c0,0.1,0,0.1,0,0.2
			c0,0,0,0.1,0,0.1v2.7l0.6,0.2v0.9h-2.8v-0.9l0.6-0.2v-2.4c0-0.4-0.1-0.7-0.2-0.9c-0.1-0.2-0.4-0.3-0.6-0.3c-0.2,0-0.4,0-0.6,0.1
			c-0.2,0.1-0.3,0.2-0.4,0.3v3.1l0.7,0.2v0.9h-3v-0.9l0.8-0.2v-3.6L213.5,129.4z"/>
	</g>
	<g class="st3">
		<path class="st2" d="M223.9,131.3c0-0.9,0.2-1.6,0.7-2.1c0.5-0.6,1.2-0.8,2-0.8c0.9,0,1.5,0.3,2,0.8c0.5,0.6,0.7,1.3,0.7,2.1v0.1
			c0,0.9-0.2,1.6-0.7,2.1c-0.5,0.5-1.2,0.8-2,0.8c-0.9,0-1.5-0.3-2-0.8c-0.5-0.5-0.7-1.3-0.7-2.1V131.3z M225.5,131.4
			c0,0.5,0.1,1,0.3,1.3s0.5,0.5,0.9,0.5c0.4,0,0.7-0.2,0.9-0.5c0.2-0.3,0.3-0.7,0.3-1.3v-0.1c0-0.5-0.1-0.9-0.3-1.3
			s-0.5-0.5-0.9-0.5s-0.7,0.2-0.9,0.5s-0.3,0.7-0.3,1.3V131.4z"/>
		<path class="st2" d="M233.8,133.5c-0.2,0.3-0.4,0.5-0.6,0.6c-0.2,0.1-0.5,0.2-0.9,0.2c-0.7,0-1.3-0.3-1.7-0.8
			c-0.4-0.5-0.6-1.2-0.6-2.1v-0.1c0-0.9,0.2-1.7,0.6-2.2c0.4-0.6,1-0.8,1.7-0.8c0.3,0,0.6,0.1,0.8,0.2s0.4,0.3,0.6,0.5v-2.1
			l-0.8-0.2v-0.9h0.8h1.6v7.3l0.8,0.2v0.9H234L233.8,133.5z M231.6,131.5c0,0.5,0.1,0.9,0.3,1.2c0.2,0.3,0.4,0.4,0.8,0.4
			c0.2,0,0.4,0,0.6-0.1s0.3-0.2,0.4-0.4v-2.5c-0.1-0.2-0.2-0.3-0.4-0.4c-0.2-0.1-0.4-0.2-0.6-0.2c-0.4,0-0.7,0.2-0.8,0.5
			s-0.3,0.8-0.3,1.3V131.5z"/>
		<path class="st2" d="M236.5,133.3l0.8-0.2v-3.6l-0.8-0.2v-0.9h2.4v4.7l0.8,0.2v0.9h-3.1V133.3z M238.8,127h-1.6v-1.2h1.6V127z"/>
		<path class="st2" d="M240,129.5v-1.1h0.9V128c0-0.7,0.2-1.3,0.7-1.7c0.4-0.4,1.1-0.6,1.9-0.6c0.3,0,0.6,0,0.8,0.1s0.6,0.1,0.9,0.2
			l-0.2,1.2c-0.3-0.1-0.5-0.1-0.7-0.2c-0.2,0-0.5-0.1-0.7-0.1c-0.4,0-0.6,0.1-0.8,0.2c-0.2,0.2-0.3,0.4-0.3,0.7v0.4h3.5v4.7l0.8,0.2
			v0.9h-3.2v-0.9l0.8-0.2v-3.6h-2v3.6l0.8,0.2v0.9H240v-0.9l0.8-0.2v-3.6H240z"/>
		<path class="st2" d="M250.1,134.3c-0.8,0-1.5-0.3-2-0.8s-0.8-1.2-0.8-2v-0.2c0-0.9,0.2-1.6,0.7-2.1c0.5-0.6,1.1-0.8,1.9-0.8
			c0.8,0,1.4,0.2,1.8,0.7s0.6,1.1,0.6,1.9v0.9h-3.5l0,0c0,0.4,0.2,0.7,0.4,0.9c0.2,0.2,0.5,0.4,0.9,0.4c0.3,0,0.6,0,0.9-0.1
			c0.2-0.1,0.5-0.2,0.8-0.3l0.4,1c-0.2,0.2-0.6,0.3-0.9,0.5C251,134.3,250.5,134.3,250.1,134.3z M249.9,129.5
			c-0.3,0-0.5,0.1-0.7,0.3c-0.2,0.2-0.3,0.5-0.3,0.9l0,0h1.9v-0.1c0-0.3-0.1-0.6-0.2-0.8C250.5,129.6,250.2,129.5,249.9,129.5z"/>
		<path class="st2" d="M256.9,133.5c-0.2,0.3-0.4,0.5-0.6,0.6s-0.5,0.2-0.9,0.2c-0.7,0-1.3-0.3-1.7-0.8c-0.4-0.5-0.6-1.2-0.6-2.1
			v-0.1c0-0.9,0.2-1.7,0.6-2.2c0.4-0.6,1-0.8,1.7-0.8c0.3,0,0.6,0.1,0.8,0.2c0.2,0.1,0.4,0.3,0.6,0.5v-2.1l-0.8-0.2v-0.9h0.8h1.6
			v7.3l0.8,0.2v0.9H257L256.9,133.5z M254.7,131.5c0,0.5,0.1,0.9,0.3,1.2c0.2,0.3,0.4,0.4,0.8,0.4c0.2,0,0.4,0,0.6-0.1
			c0.2-0.1,0.3-0.2,0.4-0.4v-2.5c-0.1-0.2-0.2-0.3-0.4-0.4c-0.2-0.1-0.4-0.2-0.6-0.2c-0.4,0-0.7,0.2-0.8,0.5
			c-0.2,0.3-0.3,0.8-0.3,1.3V131.5z"/>
		<path class="st2" d="M262.2,133.3l0.6-0.1l2.4-6.8h1.6l2.4,6.8l0.6,0.1v0.9H267v-0.9l0.5-0.1l-0.3-1.1h-2.5l-0.3,1.1l0.5,0.1v0.9
			h-2.7V133.3z M265.1,131h1.8l-0.9-2.8h0L265.1,131z"/>
		<path class="st2" d="M270.1,129.4v-0.9h2.3l0.1,0.7c0.2-0.3,0.4-0.4,0.6-0.6c0.2-0.1,0.5-0.2,0.8-0.2c0.7,0,1.3,0.3,1.7,0.8
			c0.4,0.6,0.6,1.3,0.6,2.2v0.1c0,0.9-0.2,1.5-0.6,2.1c-0.4,0.5-1,0.8-1.7,0.8c-0.3,0-0.6-0.1-0.8-0.2c-0.2-0.1-0.4-0.3-0.6-0.5v1.7
			l0.8,0.2v0.9h-3.1v-0.9l0.8-0.2v-5.8L270.1,129.4z M274.7,131.4c0-0.5-0.1-1-0.3-1.3s-0.5-0.5-0.8-0.5c-0.2,0-0.4,0-0.6,0.1
			c-0.2,0.1-0.3,0.2-0.4,0.4v2.5c0.1,0.2,0.2,0.3,0.4,0.4c0.2,0.1,0.4,0.1,0.6,0.1c0.4,0,0.7-0.1,0.8-0.4c0.2-0.3,0.3-0.7,0.3-1.2
			V131.4z"/>
	</g>
	<g class="st3">
		<path class="st2" d="M276.8,129.4v-0.9h2.3l0.1,0.7c0.2-0.3,0.4-0.4,0.6-0.6c0.2-0.1,0.5-0.2,0.8-0.2c0.7,0,1.3,0.3,1.7,0.8
			c0.4,0.6,0.6,1.3,0.6,2.2v0.1c0,0.9-0.2,1.5-0.6,2.1c-0.4,0.5-1,0.8-1.7,0.8c-0.3,0-0.6-0.1-0.8-0.2c-0.2-0.1-0.4-0.3-0.6-0.5v1.7
			l0.8,0.2v0.9h-3.1v-0.9l0.8-0.2v-5.8L276.8,129.4z M281.3,131.4c0-0.5-0.1-1-0.3-1.3s-0.5-0.5-0.8-0.5c-0.2,0-0.4,0-0.6,0.1
			c-0.2,0.1-0.3,0.2-0.4,0.4v2.5c0.1,0.2,0.2,0.3,0.4,0.4c0.2,0.1,0.4,0.1,0.6,0.1c0.4,0,0.7-0.1,0.8-0.4c0.2-0.3,0.3-0.7,0.3-1.2
			V131.4z"/>
	</g>
	<g class="st3">
		<path class="st2" d="M283.3,126.8v-0.9h2.4v7.3l0.8,0.2v0.9h-3.1v-0.9l0.8-0.2v-6.2L283.3,126.8z"/>
		<path class="st2" d="M286.9,133.3l0.8-0.2v-3.6l-0.8-0.2v-0.9h2.4v4.7l0.8,0.2v0.9h-3.1V133.3z M289.3,127h-1.6v-1.2h1.6V127z"/>
		<path class="st2" d="M293.2,133.1c0.3,0,0.5-0.1,0.7-0.2c0.2-0.2,0.3-0.4,0.3-0.7h1.4l0,0c0,0.6-0.2,1.1-0.7,1.5
			c-0.5,0.4-1,0.6-1.7,0.6c-0.9,0-1.5-0.3-2-0.8c-0.5-0.5-0.7-1.3-0.7-2.1v-0.2c0-0.9,0.2-1.6,0.7-2.1s1.2-0.8,2.1-0.8
			c0.5,0,0.9,0.1,1.3,0.2c0.4,0.1,0.7,0.3,0.9,0.6l0,1.6h-1.3l-0.3-0.9c-0.1-0.1-0.2-0.1-0.3-0.2c-0.1,0-0.2-0.1-0.4-0.1
			c-0.4,0-0.8,0.2-0.9,0.5s-0.3,0.7-0.3,1.2v0.2c0,0.5,0.1,0.9,0.3,1.3C292.5,133,292.8,133.1,293.2,133.1z"/>
	</g>
	<g class="st3">
		<path class="st2" d="M300,134.2c0-0.1-0.1-0.2-0.1-0.3c0-0.1-0.1-0.2-0.1-0.3c-0.2,0.2-0.4,0.4-0.7,0.5c-0.3,0.1-0.6,0.2-0.9,0.2
			c-0.6,0-1-0.2-1.4-0.5c-0.3-0.3-0.5-0.7-0.5-1.3c0-0.5,0.2-1,0.7-1.3c0.4-0.3,1.1-0.4,1.9-0.4h0.8v-0.6c0-0.3-0.1-0.5-0.2-0.6
			c-0.2-0.2-0.4-0.2-0.7-0.2c-0.2,0-0.3,0-0.5,0.1c-0.1,0-0.3,0.1-0.3,0.1l-0.1,0.6h-1.2l0-1.3c0.3-0.2,0.6-0.4,1-0.5
			c0.4-0.1,0.8-0.2,1.2-0.2c0.7,0,1.3,0.2,1.8,0.5c0.4,0.4,0.7,0.9,0.7,1.5v2.4c0,0.1,0,0.2,0,0.3c0,0.1,0,0.2,0,0.2l0.5,0.1v0.9
			H300z M298.7,133.2c0.2,0,0.5-0.1,0.6-0.2c0.2-0.1,0.3-0.2,0.5-0.4v-0.9H299c-0.3,0-0.6,0.1-0.8,0.2c-0.2,0.2-0.3,0.3-0.3,0.6
			c0,0.2,0.1,0.4,0.2,0.5S298.4,133.2,298.7,133.2z"/>
	</g>
	<g class="st3">
		<path class="st2" d="M304.2,127v1.4h1v1.1h-1v3c0,0.2,0,0.4,0.1,0.5c0.1,0.1,0.2,0.1,0.4,0.1c0.1,0,0.2,0,0.3,0c0.1,0,0.2,0,0.3,0
			l0.1,1.1c-0.2,0.1-0.3,0.1-0.5,0.1c-0.2,0-0.4,0-0.6,0c-0.5,0-1-0.1-1.2-0.4s-0.4-0.8-0.4-1.4v-3h-0.9v-1.1h0.9V127H304.2z"/>
		<path class="st2" d="M306,133.3l0.8-0.2v-3.6l-0.8-0.2v-0.9h2.4v4.7l0.8,0.2v0.9H306V133.3z M308.3,127h-1.6v-1.2h1.6V127z"/>
		<path class="st2" d="M309.6,131.3c0-0.9,0.2-1.6,0.7-2.1c0.5-0.6,1.2-0.8,2-0.8c0.9,0,1.5,0.3,2,0.8s0.7,1.3,0.7,2.1v0.1
			c0,0.9-0.2,1.6-0.7,2.1s-1.2,0.8-2,0.8c-0.9,0-1.5-0.3-2-0.8s-0.7-1.3-0.7-2.1V131.3z M311.1,131.4c0,0.5,0.1,1,0.3,1.3
			c0.2,0.3,0.5,0.5,0.9,0.5c0.4,0,0.7-0.2,0.9-0.5c0.2-0.3,0.3-0.7,0.3-1.3v-0.1c0-0.5-0.1-0.9-0.3-1.3c-0.2-0.3-0.5-0.5-0.9-0.5
			s-0.7,0.2-0.9,0.5c-0.2,0.3-0.3,0.7-0.3,1.3V131.4z"/>
		<path class="st2" d="M315.7,133.3l0.8-0.2v-3.6l-0.8-0.2v-0.9h2.3l0.1,0.8c0.2-0.3,0.4-0.5,0.7-0.7c0.3-0.2,0.6-0.2,1-0.2
			c0.6,0,1,0.2,1.4,0.6c0.3,0.4,0.5,0.9,0.5,1.7v2.5l0.8,0.2v0.9h-3v-0.9l0.7-0.2v-2.5c0-0.4-0.1-0.7-0.2-0.8
			c-0.2-0.2-0.4-0.2-0.7-0.2c-0.2,0-0.4,0-0.6,0.1c-0.2,0.1-0.3,0.2-0.4,0.4v3.1l0.6,0.2v0.9h-3V133.3z"/>
	</g>
	<path class="st10" d="M179,260.3h162.4c2.8,0,5,2.2,5,5v17.2c0,2.8-2.2,5-5,5H179c-2.8,0-5-2.2-5-5v-17.2
		C174,262.5,176.3,260.3,179,260.3z"/>
	<g class="st3">
		<path class="st4" d="M190.2,274h-2.6v2.2h2.5l0.1-0.9h1.2v2.1h-6.2v-0.9l0.8-0.2v-5.6l-0.8-0.2v-0.9h0.8h5.3v2.1h-1.2l-0.1-0.9
			h-2.5v2h2.6V274z"/>
	</g>
	<g class="st3">
		<path class="st4" d="M192.1,276.5l0.8-0.2v-3.6l-0.8-0.2v-0.9h2.3l0.1,0.8c0.2-0.3,0.4-0.5,0.7-0.7s0.6-0.2,1-0.2
			c0.6,0,1,0.2,1.4,0.6c0.3,0.4,0.5,0.9,0.5,1.7v2.5l0.8,0.2v0.9h-3v-0.9l0.7-0.2v-2.5c0-0.4-0.1-0.7-0.2-0.8s-0.4-0.2-0.7-0.2
			c-0.2,0-0.4,0-0.6,0.1s-0.3,0.2-0.4,0.4v3.1l0.6,0.2v0.9h-3V276.5z"/>
	</g>
	<g class="st3">
		<path class="st4" d="M201.9,276.4c0.3,0,0.5-0.1,0.7-0.2s0.3-0.4,0.3-0.7h1.4l0,0c0,0.6-0.2,1.1-0.7,1.5s-1,0.6-1.7,0.6
			c-0.9,0-1.5-0.3-2-0.8s-0.7-1.3-0.7-2.1v-0.2c0-0.9,0.2-1.6,0.7-2.1c0.5-0.6,1.2-0.8,2.1-0.8c0.5,0,0.9,0.1,1.3,0.2
			c0.4,0.1,0.7,0.3,0.9,0.6l0,1.6h-1.3l-0.3-0.9c-0.1-0.1-0.2-0.1-0.3-0.2s-0.2-0.1-0.4-0.1c-0.4,0-0.8,0.2-0.9,0.5
			s-0.3,0.7-0.3,1.2v0.2c0,0.5,0.1,0.9,0.3,1.3C201.2,276.2,201.5,276.4,201.9,276.4z"/>
	</g>
	<g class="st3">
		<path class="st4" d="M205.1,276.5l0.8-0.2v-3.6l-0.8-0.2v-0.9h2.3l0.1,0.8c0.1-0.3,0.3-0.5,0.5-0.7c0.2-0.2,0.5-0.3,0.7-0.3
			c0.1,0,0.2,0,0.3,0c0.1,0,0.2,0,0.2,0l-0.2,1.4l-0.6,0c-0.2,0-0.4,0-0.6,0.1s-0.3,0.2-0.3,0.4v2.8l0.8,0.2v0.9h-3.1V276.5z"/>
	</g>
	<g class="st3">
		<path class="st4" d="M215.7,272.6l-0.5,0.1l-2.1,5.7c-0.2,0.4-0.4,0.8-0.7,1.1c-0.3,0.3-0.7,0.4-1.3,0.4c-0.1,0-0.3,0-0.4,0
			c-0.1,0-0.3-0.1-0.4-0.1l0.2-1.1c0.1,0,0.1,0,0.2,0c0.1,0,0.1,0,0.1,0c0.3,0,0.5-0.1,0.6-0.2s0.2-0.3,0.3-0.5l0.2-0.4l-1.8-4.8
			l-0.5-0.1v-0.9h2.8v0.9l-0.6,0.1l0.8,2.3l0.1,0.4l0,0l0.9-2.7l-0.7-0.1v-0.9h2.8V272.6z"/>
		<path class="st4" d="M216.1,272.6v-0.9h2.3l0.1,0.7c0.2-0.3,0.4-0.4,0.6-0.6s0.5-0.2,0.8-0.2c0.7,0,1.3,0.3,1.7,0.8
			c0.4,0.6,0.6,1.3,0.6,2.2v0.1c0,0.9-0.2,1.5-0.6,2.1c-0.4,0.5-1,0.8-1.7,0.8c-0.3,0-0.6-0.1-0.8-0.2c-0.2-0.1-0.4-0.3-0.6-0.5v1.7
			l0.8,0.2v0.9h-3.1v-0.9l0.8-0.2v-5.8L216.1,272.6z M220.6,274.6c0-0.5-0.1-1-0.3-1.3s-0.5-0.5-0.8-0.5c-0.2,0-0.4,0-0.6,0.1
			c-0.2,0.1-0.3,0.2-0.4,0.4v2.5c0.1,0.2,0.2,0.3,0.4,0.4c0.2,0.1,0.4,0.1,0.6,0.1c0.4,0,0.7-0.1,0.8-0.4c0.2-0.3,0.3-0.7,0.3-1.2
			V274.6z"/>
		<path class="st4" d="M225.2,270.2v1.4h1v1.1h-1v3c0,0.2,0,0.4,0.1,0.5s0.2,0.1,0.4,0.1c0.1,0,0.2,0,0.3,0c0.1,0,0.2,0,0.3,0
			l0.1,1.1c-0.2,0.1-0.3,0.1-0.5,0.1c-0.2,0-0.4,0-0.6,0c-0.5,0-1-0.1-1.2-0.4c-0.3-0.3-0.4-0.8-0.4-1.4v-3h-0.9v-1.1h0.9v-1.4
			H225.2z"/>
		<path class="st4" d="M229.7,277.6c-0.8,0-1.5-0.3-2-0.8s-0.8-1.2-0.8-2v-0.2c0-0.9,0.2-1.6,0.7-2.1c0.5-0.6,1.1-0.8,1.9-0.8
			c0.8,0,1.4,0.2,1.8,0.7s0.6,1.1,0.6,1.9v0.9h-3.5l0,0c0,0.4,0.2,0.7,0.4,0.9c0.2,0.2,0.5,0.4,0.9,0.4c0.3,0,0.6,0,0.9-0.1
			c0.2-0.1,0.5-0.2,0.8-0.3l0.4,1c-0.2,0.2-0.6,0.3-0.9,0.5C230.6,277.5,230.2,277.6,229.7,277.6z M229.6,272.7
			c-0.3,0-0.5,0.1-0.7,0.3c-0.2,0.2-0.3,0.5-0.3,0.9l0,0h1.9v-0.1c0-0.3-0.1-0.6-0.2-0.8C230.1,272.8,229.9,272.7,229.6,272.7z"/>
		<path class="st4" d="M236.6,276.7c-0.2,0.3-0.4,0.5-0.6,0.6c-0.2,0.1-0.5,0.2-0.9,0.2c-0.7,0-1.3-0.3-1.7-0.8
			c-0.4-0.5-0.6-1.2-0.6-2.1v-0.1c0-0.9,0.2-1.7,0.6-2.2c0.4-0.6,1-0.8,1.7-0.8c0.3,0,0.6,0.1,0.8,0.2s0.4,0.3,0.6,0.5v-2.1
			l-0.8-0.2v-0.9h0.8h1.6v7.3l0.8,0.2v0.9h-2.1L236.6,276.7z M234.4,274.7c0,0.5,0.1,0.9,0.3,1.2c0.2,0.3,0.4,0.4,0.8,0.4
			c0.2,0,0.4,0,0.6-0.1s0.3-0.2,0.4-0.4v-2.5c-0.1-0.2-0.2-0.3-0.4-0.4c-0.2-0.1-0.4-0.2-0.6-0.2c-0.4,0-0.7,0.2-0.8,0.5
			s-0.3,0.8-0.3,1.3V274.7z"/>
		<path class="st4" d="M248.4,272.3h-1.2l-0.2-1c-0.2-0.2-0.3-0.3-0.6-0.4c-0.2-0.1-0.5-0.1-0.8-0.1c-0.7,0-1.2,0.2-1.6,0.7
			c-0.4,0.5-0.6,1.1-0.6,1.9v0.3c0,0.8,0.2,1.4,0.5,1.9s0.9,0.7,1.5,0.7c0.3,0,0.6,0,0.8-0.1c0.3-0.1,0.5-0.2,0.6-0.4l0.2-1h1.2v1.5
			c-0.3,0.4-0.7,0.7-1.2,0.9c-0.5,0.2-1,0.3-1.6,0.3c-1,0-1.9-0.4-2.6-1.1s-1-1.7-1-2.8v-0.3c0-1.1,0.3-2.1,1-2.8s1.5-1.1,2.6-1.1
			c0.6,0,1.2,0.1,1.6,0.3c0.5,0.2,0.9,0.5,1.2,0.9V272.3z"/>
		<path class="st4" d="M249.1,274.5c0-0.9,0.2-1.6,0.7-2.1c0.5-0.6,1.2-0.8,2-0.8c0.9,0,1.5,0.3,2,0.8c0.5,0.6,0.7,1.3,0.7,2.1v0.1
			c0,0.9-0.2,1.6-0.7,2.1c-0.5,0.5-1.2,0.8-2,0.8c-0.9,0-1.5-0.3-2-0.8c-0.5-0.5-0.7-1.3-0.7-2.1V274.5z M250.7,274.6
			c0,0.5,0.1,1,0.3,1.3s0.5,0.5,0.9,0.5c0.4,0,0.7-0.2,0.9-0.5c0.2-0.3,0.3-0.7,0.3-1.3v-0.1c0-0.5-0.1-0.9-0.3-1.3
			s-0.5-0.5-0.9-0.5s-0.7,0.2-0.9,0.5s-0.3,0.7-0.3,1.3V274.6z"/>
		<path class="st4" d="M255.2,276.5l0.8-0.2v-3.6l-0.8-0.2v-0.9h2.3l0.1,0.8c0.2-0.3,0.4-0.5,0.7-0.7c0.3-0.2,0.6-0.2,1-0.2
			c0.6,0,1,0.2,1.4,0.6c0.3,0.4,0.5,0.9,0.5,1.7v2.5l0.8,0.2v0.9h-3v-0.9l0.7-0.2v-2.5c0-0.4-0.1-0.7-0.2-0.8
			c-0.2-0.2-0.4-0.2-0.7-0.2c-0.2,0-0.4,0-0.6,0.1c-0.2,0.1-0.3,0.2-0.4,0.4v3.1l0.6,0.2v0.9h-3V276.5z"/>
		<path class="st4" d="M262.1,272.7v-1.1h0.9v-0.4c0-0.7,0.2-1.3,0.7-1.7c0.4-0.4,1.1-0.6,1.9-0.6c0.3,0,0.6,0,0.8,0.1
			c0.3,0.1,0.6,0.1,0.9,0.2l-0.2,1.2c-0.3-0.1-0.5-0.1-0.7-0.2c-0.2,0-0.5-0.1-0.7-0.1c-0.4,0-0.6,0.1-0.8,0.2
			c-0.2,0.2-0.3,0.4-0.3,0.7v0.4h3.5v4.7l0.8,0.2v0.9h-3.2v-0.9l0.8-0.2v-3.6h-2v3.6l0.8,0.2v0.9h-3.2v-0.9l0.8-0.2v-3.6H262.1z"/>
		<path class="st4" d="M269.6,274.6c0-0.9,0.2-1.7,0.6-2.2c0.4-0.6,1-0.8,1.7-0.8c0.3,0,0.6,0.1,0.9,0.2c0.2,0.1,0.5,0.4,0.6,0.6
			l0.1-0.7h1.4v5.6c0,0.8-0.2,1.4-0.7,1.8c-0.5,0.5-1.1,0.7-2,0.7c-0.3,0-0.6,0-0.9-0.1c-0.3-0.1-0.6-0.2-0.9-0.3l0.3-1.1
			c0.3,0.1,0.5,0.2,0.8,0.3c0.3,0.1,0.5,0.1,0.8,0.1c0.4,0,0.7-0.1,0.9-0.3c0.2-0.2,0.3-0.6,0.3-1v-0.4c-0.2,0.2-0.4,0.4-0.6,0.5
			c-0.2,0.1-0.5,0.2-0.8,0.2c-0.7,0-1.3-0.3-1.7-0.8c-0.4-0.5-0.6-1.2-0.6-2.1V274.6z M271.1,274.7c0,0.5,0.1,0.9,0.3,1.2
			s0.5,0.4,0.8,0.4c0.2,0,0.4,0,0.6-0.1c0.2-0.1,0.3-0.2,0.4-0.4v-2.5c-0.1-0.2-0.2-0.3-0.4-0.4c-0.2-0.1-0.4-0.1-0.6-0.1
			c-0.4,0-0.7,0.2-0.8,0.5c-0.2,0.3-0.3,0.8-0.3,1.3V274.7z"/>
		<path class="st4" d="M279.8,276.7c-0.2,0.3-0.4,0.5-0.7,0.6c-0.3,0.1-0.6,0.2-0.9,0.2c-0.6,0-1.1-0.2-1.4-0.6
			c-0.3-0.4-0.5-1-0.5-1.8v-2.4l-0.6-0.2v-0.9h0.6h1.6v3.5c0,0.4,0.1,0.7,0.2,0.9s0.4,0.3,0.6,0.3c0.2,0,0.5,0,0.6-0.1
			c0.2-0.1,0.3-0.2,0.4-0.3v-3.1l-0.7-0.2v-0.9h0.7h1.6v4.7l0.7,0.2v0.9h-2.1L279.8,276.7z"/>
	</g>
	<g class="st3">
		<path class="st4" d="M282.7,276.5l0.8-0.2v-3.6l-0.8-0.2v-0.9h2.3l0.1,0.8c0.1-0.3,0.3-0.5,0.5-0.7c0.2-0.2,0.5-0.3,0.7-0.3
			c0.1,0,0.2,0,0.3,0c0.1,0,0.2,0,0.2,0l-0.2,1.4l-0.6,0c-0.2,0-0.4,0-0.6,0.1s-0.3,0.2-0.3,0.4v2.8l0.8,0.2v0.9h-3.1V276.5z"/>
	</g>
	<g class="st3">
		<path class="st4" d="M290.8,277.5c0-0.1-0.1-0.2-0.1-0.3c0-0.1-0.1-0.2-0.1-0.3c-0.2,0.2-0.4,0.4-0.7,0.5s-0.6,0.2-0.9,0.2
			c-0.6,0-1-0.2-1.4-0.5c-0.3-0.3-0.5-0.7-0.5-1.3c0-0.5,0.2-1,0.7-1.3c0.4-0.3,1.1-0.4,1.9-0.4h0.8v-0.6c0-0.3-0.1-0.5-0.2-0.6
			s-0.4-0.2-0.7-0.2c-0.2,0-0.3,0-0.5,0.1s-0.3,0.1-0.3,0.1l-0.1,0.6h-1.2l0-1.3c0.3-0.2,0.6-0.4,1-0.5c0.4-0.1,0.8-0.2,1.2-0.2
			c0.7,0,1.3,0.2,1.8,0.5s0.7,0.9,0.7,1.5v2.4c0,0.1,0,0.2,0,0.3c0,0.1,0,0.2,0,0.2l0.5,0.1v0.9H290.8z M289.5,276.4
			c0.2,0,0.5-0.1,0.6-0.2c0.2-0.1,0.3-0.2,0.5-0.4V275h-0.8c-0.3,0-0.6,0.1-0.8,0.2c-0.2,0.2-0.3,0.3-0.3,0.6c0,0.2,0.1,0.4,0.2,0.5
			S289.3,276.4,289.5,276.4z"/>
	</g>
	<g class="st3">
		<path class="st4" d="M295.1,270.2v1.4h1v1.1h-1v3c0,0.2,0,0.4,0.1,0.5c0.1,0.1,0.2,0.1,0.4,0.1c0.1,0,0.2,0,0.3,0
			c0.1,0,0.2,0,0.3,0l0.1,1.1c-0.2,0.1-0.3,0.1-0.5,0.1c-0.2,0-0.4,0-0.6,0c-0.5,0-1-0.1-1.2-0.4s-0.4-0.8-0.4-1.4v-3h-0.9v-1.1h0.9
			v-1.4H295.1z"/>
		<path class="st4" d="M296.8,276.5l0.8-0.2v-3.6l-0.8-0.2v-0.9h2.4v4.7l0.8,0.2v0.9h-3.1V276.5z M299.1,270.2h-1.6v-1.2h1.6V270.2z
			"/>
		<path class="st4" d="M300.4,274.5c0-0.9,0.2-1.6,0.7-2.1c0.5-0.6,1.2-0.8,2-0.8c0.9,0,1.5,0.3,2,0.8s0.7,1.3,0.7,2.1v0.1
			c0,0.9-0.2,1.6-0.7,2.1s-1.2,0.8-2,0.8c-0.9,0-1.5-0.3-2-0.8s-0.7-1.3-0.7-2.1V274.5z M302,274.6c0,0.5,0.1,1,0.3,1.3
			c0.2,0.3,0.5,0.5,0.9,0.5c0.4,0,0.7-0.2,0.9-0.5c0.2-0.3,0.3-0.7,0.3-1.3v-0.1c0-0.5-0.1-0.9-0.3-1.3c-0.2-0.3-0.5-0.5-0.9-0.5
			s-0.7,0.2-0.9,0.5c-0.2,0.3-0.3,0.7-0.3,1.3V274.6z"/>
		<path class="st4" d="M306.5,276.5l0.8-0.2v-3.6l-0.8-0.2v-0.9h2.3l0.1,0.8c0.2-0.3,0.4-0.5,0.7-0.7c0.3-0.2,0.6-0.2,1-0.2
			c0.6,0,1,0.2,1.4,0.6c0.3,0.4,0.5,0.9,0.5,1.7v2.5l0.8,0.2v0.9h-3v-0.9l0.7-0.2v-2.5c0-0.4-0.1-0.7-0.2-0.8
			c-0.2-0.2-0.4-0.2-0.7-0.2c-0.2,0-0.4,0-0.6,0.1c-0.2,0.1-0.3,0.2-0.4,0.4v3.1l0.6,0.2v0.9h-3V276.5z"/>
		<path class="st4" d="M316.2,276.5l0.8-0.2v-5.6l-0.8-0.2v-0.9h6.2v2.1h-1.2l-0.1-0.9h-2.6v2.2h2.7v1.2h-2.7v2.1l0.8,0.2v0.9h-3.2
			V276.5z"/>
		<path class="st4" d="M323,276.5l0.8-0.2v-3.6l-0.8-0.2v-0.9h2.4v4.7l0.8,0.2v0.9H323V276.5z M325.3,270.2h-1.6v-1.2h1.6V270.2z"/>
		<path class="st4" d="M326.4,270v-0.9h2.4v7.3l0.8,0.2v0.9h-3.1v-0.9l0.8-0.2v-6.2L326.4,270z"/>
		<path class="st4" d="M332.9,277.6c-0.8,0-1.5-0.3-2-0.8c-0.5-0.5-0.8-1.2-0.8-2v-0.2c0-0.9,0.2-1.6,0.7-2.1
			c0.5-0.6,1.1-0.8,1.9-0.8c0.8,0,1.4,0.2,1.8,0.7c0.4,0.5,0.6,1.1,0.6,1.9v0.9h-3.5l0,0c0,0.4,0.2,0.7,0.4,0.9
			c0.2,0.2,0.5,0.4,0.9,0.4c0.3,0,0.6,0,0.9-0.1c0.2-0.1,0.5-0.2,0.8-0.3l0.4,1c-0.2,0.2-0.6,0.3-0.9,0.5
			C333.8,277.5,333.3,277.6,332.9,277.6z M332.7,272.7c-0.3,0-0.5,0.1-0.7,0.3c-0.2,0.2-0.3,0.5-0.3,0.9l0,0h1.9v-0.1
			c0-0.3-0.1-0.6-0.2-0.8C333.3,272.8,333.1,272.7,332.7,272.7z"/>
	</g>
	<path class="st11" d="M251.2,59c4.6-4.5,12.1-4.5,16.6,0.2s4.5,12.1-0.2,16.6c-4.6,4.5-12.1,4.5-16.6-0.2c-2.1-2.2-3.4-5.1-3.4-8.2
		c0-2.6,0.8-5.1,2.4-7.1"/>
	<path class="st9" d="M259.5,73h-4.2c-0.6,0-0.8-0.2-0.8-0.8v-6.4c0-0.6,0.2-0.8,0.8-0.8h8.5c0.5,0,0.8,0.2,0.8,0.8v6.5
		c0,0.6-0.2,0.8-0.8,0.8C262.3,73.1,260.9,73,259.5,73z"/>
	<path class="st9" d="M255.1,64.4c0-1.8,1-3.4,2.6-4.1c2.1-0.9,4.6,0,5.5,2.2c0.1,0.2,0.2,0.5,0.2,0.7c0.1,0.4,0.1,0.8,0.2,1.2"/>
	<path class="st2" d="M258.8,70.3L258.8,70.3v0.9c0,0.2,0.1,0.2,0.3,0.2h0.8c0.2,0,0.3-0.1,0.3-0.3v-1.6c0-0.2,0.1-0.3,0.2-0.4
		c0.5-0.3,0.8-0.9,0.6-1.4c-0.2-0.6-0.8-1-1.5-1c-0.7-0.1-1.3,0.3-1.6,0.9c-0.2,0.6,0,1.2,0.5,1.5c0.2,0.1,0.3,0.3,0.3,0.5
		C258.8,69.8,258.8,70,258.8,70.3z"/>
	<g id="Scone_logo_white">
		<g>
			<defs>
				<rect id="SVGID_2_" x="242.4" y="159.1" width="36.3" height="7.1"/>
			</defs>
			<clipPath id="SVGID_3_">
				<use xlink:href="#SVGID_2_"  style="overflow:visible;"/>
			</clipPath>
			<g class="st12">
				<g>
					<defs>
						<rect id="SVGID_4_" x="242.4" y="159.1" width="36.3" height="7.1"/>
					</defs>
					<clipPath id="SVGID_5_">
						<use xlink:href="#SVGID_4_"  style="overflow:visible;"/>
					</clipPath>
					<g class="st13">
						<path class="st14" d="M247.2,160.9h-0.8c-0.2,0-0.3,0.1-0.3,0.3v0.8c0,0.2,0.1,0.3,0.3,0.3h0.8c0.2,0,0.3-0.1,0.3-0.3v-0.8
							C247.5,161,247.4,160.9,247.2,160.9 M244.5,162.2h0.8c0.2,0,0.3-0.1,0.3-0.3v-0.8c0-0.2-0.1-0.3-0.3-0.3h-0.8
							c-0.2,0-0.3,0.1-0.3,0.3v0.8C244.3,162.1,244.4,162.2,244.5,162.2 M243.7,161.9v-0.8c0-0.2-0.1-0.3-0.3-0.3h-0.8
							c-0.2,0-0.3,0.1-0.3,0.3v0.8c0,0.2,0.1,0.3,0.3,0.3h0.8C243.6,162.2,243.7,162.1,243.7,161.9 M247.3,162.8
							c-0.1,0-0.2,0.1-0.2,0.2l0,0v0.9c0,0.1,0.1,0.2,0.2,0.2s0.2-0.1,0.2-0.2V163C247.5,162.9,247.4,162.8,247.3,162.8
							C247.3,162.8,247.3,162.8,247.3,162.8 M245.2,163.1v0.8c0,0.2,0.1,0.3,0.3,0.3h0.8c0.2,0,0.3-0.1,0.3-0.3v-0.8
							c0-0.2-0.1-0.3-0.3-0.3c0,0,0,0,0,0h-0.8C245.3,162.8,245.2,162.9,245.2,163.1C245.2,163.1,245.2,163.1,245.2,163.1
							 M244.6,163.9v-0.8c0-0.2-0.1-0.3-0.3-0.3l0,0h-0.8c-0.2,0-0.3,0.1-0.3,0.3c0,0,0,0,0,0v0.8c0,0.2,0.1,0.3,0.3,0.3h0.8
							C244.5,164.1,244.6,164,244.6,163.9 M247.2,164.7h-0.8c-0.2,0-0.3,0.1-0.3,0.3v0.8c0,0.2,0.1,0.3,0.3,0.3h0.8
							c0.2,0,0.3-0.1,0.3-0.3V165C247.5,164.8,247.4,164.7,247.2,164.7 M245.2,164.7h-0.8c-0.2,0-0.3,0.1-0.3,0.3v0.8
							c0,0.2,0.1,0.3,0.3,0.3h0.8c0.2,0,0.3-0.1,0.3-0.3V165C245.5,164.8,245.4,164.7,245.2,164.7"/>
						<path class="st14" d="M248.1,160.6c0.3,0.3,0.8,0.4,1.2,0.4c0,0,0,0,0,0.1v2.1c0,0.8-1,1.3-1.2,1.4l0,0L248.1,160.6
							L248.1,160.6"/>
						<path class="st14" d="M245.8,160.4c1.6-0.1,1.9-0.6,1.9-0.6c0,0,0,0,0.1-0.1c0,0,0.1,0,0.1,0c0,0,0.2,0.6,1.9,0.6
							c0.1,0,0.1,0,0.1,0.1v2.8c0,0.9-1.7,1.9-1.7,1.9l-0.1,0.1v0.7c0,0,0.1,0,0.1,0c0.6-0.3,2.3-1.3,2.3-2.5v-3.5
							c0-0.1-0.1-0.1-0.2-0.1c-2,0-2.4-0.8-2.4-0.8s-0.1,0-0.1,0s-0.1,0-0.1,0s-0.3,0.8-2.4,0.8c-0.1,0-0.1,0-0.1,0.1v0.4
							c0,0,0,0.1,0.1,0.1S245.8,160.4,245.8,160.4"/>
						<path class="st15" d="M252,164.9l0.8-0.3c0.4,0.6,1.1,0.8,1.7,0.5c0.2-0.1,0.3-0.2,0.3-0.4c0-0.4-0.6-0.7-1-0.9l0,0
							c-0.3-0.1-0.7-0.3-0.9-0.5c-0.3-0.2-0.5-0.6-0.5-1c0-0.4,0.2-0.8,0.5-1c0.3-0.3,0.8-0.4,1.2-0.4c0.7,0,1.3,0.3,1.6,0.9
							l-0.9,0.3c-0.1-0.1-0.2-0.2-0.3-0.3c-0.1-0.1-0.3-0.1-0.5-0.1c-0.5,0-0.8,0.3-0.8,0.6c0,0.2,0.1,0.4,0.3,0.5
							c0.2,0.2,0.5,0.3,0.7,0.4l0.1,0.1c0.6,0.3,1.4,0.6,1.4,1.4c0,0.4-0.2,0.8-0.6,1c-0.4,0.3-0.9,0.4-1.3,0.4
							C253.1,166.1,252.4,165.6,252,164.9"/>
						<path class="st15" d="M259.3,166c-0.3,0-0.7-0.1-1-0.2c-0.3-0.1-0.6-0.3-0.8-0.6c-0.2-0.2-0.4-0.5-0.6-0.8
							c-0.3-0.6-0.3-1.4,0-2c0.1-0.3,0.3-0.6,0.6-0.8c0.2-0.2,0.5-0.4,0.8-0.6c0.3-0.1,0.7-0.2,1-0.2c0.4,0,0.8,0.1,1.2,0.3
							c0.3,0.2,0.7,0.4,0.9,0.7l-0.7,0.5c-0.3-0.4-0.8-0.7-1.4-0.7c-1,0-1.7,0.8-1.7,1.7c0,0.5,0.2,0.9,0.5,1.2
							c0.3,0.3,0.8,0.5,1.2,0.5c0.3,0,0.6-0.1,0.9-0.3c0.3-0.2,0.5-0.4,0.6-0.6l0.7,0.4c-0.2,0.4-0.5,0.7-0.9,0.9
							C260.2,165.9,259.7,166,259.3,166"/>
						<path class="st15" d="M264.9,166.1c-0.3,0-0.7-0.1-1-0.2c-0.3-0.1-0.6-0.3-0.8-0.6c-0.2-0.2-0.4-0.5-0.6-0.8
							c-0.1-0.3-0.2-0.7-0.2-1c0-0.7,0.3-1.3,0.8-1.8c0.2-0.2,0.5-0.4,0.8-0.6c0.6-0.3,1.4-0.3,2,0c0.3,0.1,0.6,0.3,0.8,0.6
							c0.2,0.2,0.4,0.5,0.5,0.8c0.3,0.6,0.3,1.4,0,2c-0.1,0.3-0.3,0.6-0.5,0.8c-0.2,0.2-0.5,0.4-0.8,0.6
							C265.6,166,265.3,166.1,264.9,166.1 M264.9,161.7c-0.5,0-0.9,0.2-1.2,0.5c-0.3,0.3-0.5,0.8-0.5,1.2c0,1,0.8,1.7,1.7,1.7
							c0.5,0,0.9-0.2,1.2-0.5c0.3-0.3,0.5-0.8,0.5-1.2c0-0.5-0.2-0.9-0.5-1.2C265.8,161.9,265.4,161.7,264.9,161.7"/>
						<polygon class="st15" points="273.4,160.9 273.4,166.2 269.8,162.8 269.8,166 268.9,166 268.9,160.7 272.5,164.1 272.5,160.9 
													"/>
						<polygon class="st15" points="275.9,161.7 275.9,163 278.4,163 278.4,163.8 275.9,163.8 275.9,165.2 278.7,165.2 278.7,166 
							275,166 275,160.9 278.7,160.9 278.7,161.7 275.9,161.7 						"/>
					</g>
				</g>
			</g>
		</g>
	</g>
	<g class="st3">
		<path class="st16" d="M209.3,95.6v-1.1h3.6v1.1l-0.9,0.2v6.2l0.9,0.2v1h-3.6v-1l0.9-0.2v-6.2L209.3,95.6z"/>
		<path class="st16" d="M213.6,102.2l0.8-0.2v-4l-0.9-0.2v-1.1h2.6l0.1,0.9c0.2-0.3,0.5-0.6,0.8-0.8c0.3-0.2,0.7-0.3,1.1-0.3
			c0.7,0,1.2,0.2,1.5,0.6c0.4,0.4,0.5,1.1,0.5,1.9v2.8l0.8,0.2v1h-3.3v-1l0.7-0.2v-2.8c0-0.4-0.1-0.7-0.3-0.9
			c-0.2-0.2-0.4-0.3-0.8-0.3c-0.2,0-0.4,0-0.6,0.1c-0.2,0.1-0.3,0.2-0.5,0.4v3.5l0.7,0.2v1h-3.3V102.2z"/>
		<path class="st16" d="M224,95.2v1.6h1.1V98H224v3.3c0,0.3,0.1,0.4,0.2,0.5s0.2,0.2,0.4,0.2c0.1,0,0.2,0,0.3,0c0.1,0,0.2,0,0.3-0.1
			l0.1,1.3c-0.2,0.1-0.4,0.1-0.6,0.1c-0.2,0-0.4,0-0.6,0c-0.6,0-1.1-0.2-1.4-0.5c-0.3-0.3-0.5-0.9-0.5-1.6V98h-1v-1.2h1v-1.6H224z"
			/>
		<path class="st16" d="M229.1,103.4c-0.9,0-1.7-0.3-2.2-0.9s-0.8-1.4-0.8-2.3V100c0-1,0.3-1.8,0.8-2.4c0.5-0.6,1.2-0.9,2.1-0.9
			c0.9,0,1.5,0.3,2,0.8c0.5,0.5,0.7,1.2,0.7,2.1v1h-3.9l0,0c0,0.4,0.2,0.8,0.4,1.1c0.3,0.3,0.6,0.4,1,0.4c0.4,0,0.7,0,1-0.1
			c0.3-0.1,0.5-0.2,0.8-0.4l0.5,1.1c-0.3,0.2-0.6,0.4-1,0.5C230.1,103.3,229.6,103.4,229.1,103.4z M228.9,98c-0.3,0-0.6,0.1-0.8,0.4
			c-0.2,0.2-0.3,0.6-0.3,1l0,0h2.1v-0.2c0-0.4-0.1-0.7-0.3-0.9C229.5,98.1,229.3,98,228.9,98z"/>
		<path class="st16" d="M232.3,95v-1.1h2.7v8.1l0.8,0.2v1h-3.4v-1l0.8-0.2v-6.9L232.3,95z"/>
		<path class="st16" d="M246,97.3h-1.3l-0.2-1.2c-0.2-0.1-0.4-0.2-0.7-0.3s-0.6-0.1-0.9-0.1c-0.5,0-0.8,0.1-1.1,0.3
			s-0.4,0.5-0.4,0.8c0,0.3,0.1,0.5,0.4,0.7c0.3,0.2,0.7,0.4,1.4,0.6c1,0.3,1.7,0.6,2.2,1.1c0.5,0.4,0.7,1,0.7,1.7
			c0,0.7-0.3,1.3-0.9,1.8c-0.6,0.4-1.4,0.6-2.3,0.6c-0.7,0-1.3-0.1-1.9-0.3c-0.6-0.2-1-0.5-1.4-0.9v-1.8h1.4l0.2,1.2
			c0.2,0.1,0.4,0.3,0.7,0.4s0.6,0.1,1,0.1c0.5,0,0.8-0.1,1.1-0.3s0.4-0.5,0.4-0.8c0-0.3-0.1-0.6-0.4-0.8c-0.2-0.2-0.7-0.4-1.2-0.6
			c-1-0.3-1.8-0.7-2.3-1.1c-0.5-0.4-0.8-1-0.8-1.7c0-0.7,0.3-1.3,0.9-1.7s1.3-0.7,2.3-0.7c0.7,0,1.3,0.1,1.8,0.3s1,0.5,1.4,0.8V97.3
			z"/>
		<path class="st16" d="M254,102.3c-0.3,0.3-0.7,0.5-1.2,0.8c-0.5,0.2-1.2,0.3-2.1,0.3c-1.2,0-2.1-0.4-2.9-1.2s-1.1-1.8-1.1-3.1
			v-0.3c0-1.3,0.4-2.4,1.1-3.2c0.7-0.8,1.7-1.2,2.8-1.2c0.7,0,1.3,0.1,1.9,0.3c0.6,0.2,1,0.5,1.4,0.9v1.8h-1.3l-0.2-1.2
			c-0.2-0.1-0.4-0.2-0.6-0.3c-0.3-0.1-0.6-0.1-0.9-0.1c-0.8,0-1.4,0.3-1.8,0.8c-0.4,0.6-0.6,1.3-0.6,2.2v0.3c0,0.9,0.2,1.6,0.6,2.1
			c0.4,0.5,1,0.8,1.8,0.8c0.4,0,0.6,0,0.9-0.1c0.2-0.1,0.4-0.1,0.5-0.2v-1.5l-1.2-0.1v-1.2h3V102.3z"/>
		<path class="st16" d="M254.7,102.2l0.7-0.1l2.3-3.2l-2.2-3.1l-0.7-0.1v-1.1h3.3v1.1l-0.7,0.1l1.3,2.1l1.4-2.1l-0.7-0.1v-1.1h3.4
			v1.1l-0.7,0.1l-2.2,3.1l2.3,3.2l0.8,0.1v1h-3.4v-1l0.7-0.1l-1.4-2.2l-1.4,2.2l0.7,0.1v1h-3.4V102.2z"/>
		<path class="st16" d="M272.1,99.4h-2.9v2.5h2.8l0.1-1h1.3v2.4h-6.9v-1l0.9-0.2v-6.2l-0.9-0.2v-1.1h0.9h5.9v2.4H272l-0.1-1h-2.8
			v2.2h2.9V99.4z"/>
	</g>
	<g class="st3">
		<path class="st16" d="M274.3,102.2l0.8-0.2v-4l-0.9-0.2v-1.1h2.6l0.1,0.9c0.2-0.3,0.5-0.6,0.8-0.8c0.3-0.2,0.7-0.3,1.1-0.3
			c0.7,0,1.2,0.2,1.5,0.6c0.4,0.4,0.5,1.1,0.5,1.9v2.8l0.8,0.2v1h-3.3v-1l0.7-0.2v-2.8c0-0.4-0.1-0.7-0.3-0.9
			c-0.2-0.2-0.4-0.3-0.8-0.3c-0.2,0-0.4,0-0.6,0.1s-0.3,0.2-0.5,0.4v3.5l0.7,0.2v1h-3.3V102.2z"/>
	</g>
	<g class="st3">
		<path class="st16" d="M285.1,102c0.3,0,0.6-0.1,0.7-0.3c0.2-0.2,0.3-0.4,0.3-0.7h1.6l0,0c0,0.7-0.2,1.2-0.7,1.6
			c-0.5,0.4-1.1,0.7-1.9,0.7c-1,0-1.7-0.3-2.2-0.9c-0.5-0.6-0.8-1.4-0.8-2.3v-0.2c0-1,0.3-1.7,0.8-2.3c0.5-0.6,1.3-0.9,2.3-0.9
			c0.5,0,1,0.1,1.4,0.2c0.4,0.2,0.8,0.4,1,0.7l0,1.7h-1.4l-0.3-1c-0.1-0.1-0.2-0.1-0.3-0.2c-0.1,0-0.3-0.1-0.4-0.1
			c-0.5,0-0.8,0.2-1,0.5c-0.2,0.4-0.3,0.8-0.3,1.4v0.2c0,0.6,0.1,1,0.3,1.4S284.6,102,285.1,102z"/>
		<path class="st16" d="M288.3,95v-1.1h2.7v8.1l0.8,0.2v1h-3.4v-1l0.8-0.2v-6.9L288.3,95z"/>
	</g>
	<g class="st3">
		<path class="st16" d="M296.5,103.2c0-0.1-0.1-0.2-0.1-0.3c0-0.1-0.1-0.2-0.1-0.3c-0.2,0.2-0.5,0.4-0.8,0.6s-0.6,0.2-1,0.2
			c-0.6,0-1.1-0.2-1.5-0.5c-0.4-0.3-0.6-0.8-0.6-1.4c0-0.6,0.2-1.1,0.7-1.4c0.5-0.3,1.2-0.5,2.1-0.5h0.9v-0.6c0-0.3-0.1-0.6-0.3-0.7
			c-0.2-0.2-0.4-0.3-0.8-0.3c-0.2,0-0.4,0-0.5,0.1s-0.3,0.1-0.4,0.2l-0.1,0.7h-1.3l0-1.4c0.3-0.2,0.7-0.4,1.1-0.5s0.9-0.2,1.3-0.2
			c0.8,0,1.5,0.2,2,0.6c0.5,0.4,0.8,1,0.8,1.7v2.7c0,0.1,0,0.2,0,0.3c0,0.1,0,0.2,0,0.3l0.5,0.1v1H296.5z M295,102.1
			c0.3,0,0.5-0.1,0.7-0.2s0.4-0.3,0.5-0.4v-1h-0.9c-0.4,0-0.7,0.1-0.8,0.3s-0.3,0.4-0.3,0.6c0,0.2,0.1,0.4,0.2,0.5
			C294.6,102,294.8,102.1,295,102.1z"/>
	</g>
	<g class="st3">
		<path class="st16" d="M301.8,97.8l-0.6,0.1l0.9,2.9l0.1,0.6h0l0.1-0.6l0.8-2.9l-0.6-0.1v-1.1h2.9v1.1l-0.6,0.1l-1.9,5.3h-1.7
			l-1.9-5.3l-0.6-0.1v-1.1h2.9V97.8z"/>
	</g>
	<g class="st3">
		<path class="st16" d="M309,103.4c-0.9,0-1.7-0.3-2.2-0.9c-0.6-0.6-0.8-1.4-0.8-2.3V100c0-1,0.3-1.8,0.8-2.4
			c0.5-0.6,1.2-0.9,2.1-0.9c0.9,0,1.5,0.3,2,0.8c0.5,0.5,0.7,1.2,0.7,2.1v1h-3.9l0,0c0,0.4,0.2,0.8,0.4,1.1c0.3,0.3,0.6,0.4,1,0.4
			c0.4,0,0.7,0,1-0.1c0.3-0.1,0.5-0.2,0.8-0.4l0.5,1.1c-0.3,0.2-0.6,0.4-1,0.5C310,103.3,309.6,103.4,309,103.4z M308.9,98
			c-0.3,0-0.6,0.1-0.8,0.4s-0.3,0.6-0.3,1l0,0h2.1v-0.2c0-0.4-0.1-0.7-0.3-0.9C309.5,98.1,309.2,98,308.9,98z"/>
	</g>
	<path class="st11" d="M45.3,107.1c-7.2,3.1-15.5-0.2-18.6-7.4c-3.1-7.2,0.2-15.5,7.4-18.6c7.2-3.1,15.5,0.2,18.6,7.4
		C55.8,95.7,52.5,104,45.3,107.1z"/>
	<circle class="st11" cx="39.7" cy="94.1" r="14.2"/>
	<path class="st17" d="M50.6,103.1c-0.6-0.9-1.8-1.2-2.7-0.7c-0.2,0.1-0.4,0.3-0.6,0.5c-0.6,0.9-0.4,2,0.4,2.7"/>
	<path class="st17" d="M52.6,100.1c-0.1-0.1-0.1-0.2-0.3-0.3c-0.1,0-0.2-0.1-0.2-0.2c-0.6-0.4-0.6-0.4-1.2,0.2
		c-0.3,0.3-0.6,0.5-0.9,0.2c-0.1,0-0.1,0-0.2,0c-0.6,0-0.8-0.3-0.9-0.9c0-0.2-0.2-0.5-0.3-0.5c-0.4,0-0.9,0.1-1.3,0.2
		c0,0.3,0,0.7,0,1c0,0.2-0.1,0.4-0.3,0.5c-0.1,0.1-0.2,0.1-0.2,0.1c-0.3,0.4-0.9,0.4-1.3,0.1c0,0-0.1-0.1-0.1-0.1
		c-0.2-0.2-0.4-0.2-0.6,0c-0.1,0-0.1,0.1-0.1,0.2c0,0.1-0.1,0.1-0.2,0.2c-0.5,0.6-0.5,0.7,0.1,1.1c0.3,0.2,0.4,0.5,0.3,0.8
		c0,0,0,0,0,0.1c0,0.1-0.1,0.2-0.1,0.3c0.1,0.6-0.3,0.8-0.8,0.9s-0.6,0.4-0.5,0.9s0,0.9,0.8,0.8c0.3,0,0.6-0.1,0.8,0.1
		c0.3,0.3,0.5,0.6,0.6,1"/>
	<path class="st17" d="M41.2,94.8c1.1-1.5,0.8-3.5-0.7-4.6c-1.5-1.1-3.5-0.8-4.6,0.7s-0.8,3.5,0.7,4.6c0,0,0,0,0,0
		C38.1,96.6,40.1,96.3,41.2,94.8C41.2,94.8,41.2,94.8,41.2,94.8z"/>
	<path class="st17" d="M47.1,92.8c-0.4,0.1-0.8,0.2-1.2,0.3c-0.3,0-0.3,0.1-0.4,0.4c-0.1,0.6-0.3,1.2-0.4,1.8c0,0.2,0,0.4,0.1,0.5
		c0.3,0.3,0.6,0.6,1,0.9c0.3,0.2,0.3,0.5,0.1,0.8c0,0,0,0,0,0l-0.8,1.2c-0.1,0.3-0.5,0.4-0.7,0.2c0,0-0.1,0-0.1-0.1
		c-0.3-0.3-0.7-0.5-1.1-0.6c-0.2-0.1-0.4,0-0.6,0.1c-0.5,0.3-1,0.6-1.5,0.9c-0.1,0.1-0.2,0.3-0.3,0.4c0,0.4,0,0.9,0.1,1.3
		s-0.1,0.7-0.6,0.7c-0.4,0-0.8,0.1-1.3,0.2c-0.5,0.1-0.7-0.1-0.8-0.5c0-0.2-0.1-0.3-0.1-0.5c-0.1-0.8-0.5-1.1-1.3-1.3
		c-0.9-0.4-2,0-2.5,0.9c-0.2,0.4-0.5,0.4-0.9,0.1s-0.7-0.6-1.1-0.8c-0.3-0.2-0.4-0.5-0.3-0.8c0,0,0-0.1,0.1-0.1
		c0.2-0.4,0.4-0.7,0.7-1.1s0.2-0.4,0-0.7c-0.3-0.3-0.5-0.6-0.6-1c-0.3-0.7-0.7-0.9-1.5-0.8c-1.4,0.2-1.3,0.1-1.5-1.2s-0.2-1.3,1-1.6
		c0.7-0.2,1.1-0.4,1.1-1.2c0-0.5,0.5-1.1,0.3-1.5s-0.8-0.8-1.2-1.2c-0.2-0.2-0.3-0.5-0.2-0.7c0,0,0-0.1,0.1-0.1l0.8-1.1
		c0.1-0.3,0.4-0.4,0.7-0.3c0.1,0,0.1,0,0.1,0.1c0.2,0.1,0.3,0.2,0.5,0.3c0.6,0.5,1.3,0.6,1.8-0.1c0.1-0.1,0.2-0.2,0.3-0.2
		c1-0.2,1.1-0.9,1-1.8s0-1,1-1.2c1.6-0.3,1.5-0.4,1.9,1.2c0.1,0.6,0.3,0.9,1,0.9c0.2,0,0.5,0,0.7,0.2c0.6,0.4,1.3,0.2,1.7-0.4
		c0,0,0-0.1,0.1-0.1c0.8-1.1,0.9-0.8,1.8-0.2c1.1,0.8,1.2,0.7,0.4,1.9c-0.3,0.6-0.5,1,0,1.6c0.4,0.4,0.5,1.1,0.9,1.3s1.1,0,1.6,0
		c0.2,0,0.5,0.2,0.6,0.4c0.1,0.5,0.2,1.1,0.3,1.6c0,0.1,0,0.3,0,0.4C47.5,92.7,47.3,92.8,47.1,92.8z"/>
	<path class="st11" d="M245.4,230.7c-7.2,3.1-15.5-0.2-18.6-7.4c-3.1-7.2,0.2-15.5,7.4-18.6c7.2-3.1,15.5,0.2,18.6,7.4
		C255.9,219.2,252.6,227.5,245.4,230.7z"/>
	<circle class="st11" cx="239.8" cy="217.6" r="14.2"/>
	<path class="st17" d="M250.6,226.6c-0.2-0.3-0.4-0.5-0.6-0.6c-0.9-0.6-2.1-0.4-2.7,0.5c-0.6,0.9-0.4,2,0.4,2.7"/>
	<path class="st17" d="M252.7,223.6c0-0.1-0.1-0.2-0.3-0.3c-0.1,0-0.1-0.1-0.2-0.2c-0.6-0.4-0.6-0.4-1.2,0.1
		c-0.3,0.3-0.6,0.5-0.9,0.2c-0.1,0-0.1,0-0.2,0c-0.6,0-0.8-0.3-0.9-0.9c0-0.2-0.2-0.5-0.3-0.5c-0.4,0-0.9,0.1-1.3,0.2
		c0,0.3,0,0.7,0,1c0,0.2-0.1,0.4-0.3,0.5c-0.1,0.1-0.2,0.1-0.2,0.1c-0.3,0.4-0.9,0.5-1.3,0.2c0,0-0.1-0.1-0.1-0.1
		c-0.2-0.2-0.4-0.2-0.6,0c-0.1,0-0.1,0.1-0.1,0.2c0,0.1-0.1,0.1-0.2,0.2c-0.5,0.6-0.5,0.7,0.1,1.1c0.3,0.1,0.4,0.5,0.3,0.8
		c0,0,0,0,0,0.1c0,0.1-0.1,0.2-0.1,0.3c0.1,0.6-0.3,0.8-0.8,0.9s-0.6,0.4-0.5,0.9s0,0.9,0.8,0.8c0.3,0,0.6-0.1,0.8,0.1
		c0.3,0.3,0.5,0.6,0.6,1"/>
	<path class="st17" d="M241.2,218.3c1.1-1.5,0.8-3.5-0.7-4.6c-1.5-1.1-3.5-0.8-4.6,0.7c-1.1,1.5-0.8,3.5,0.7,4.6c0,0,0,0,0,0
		C238.1,220.1,240.2,219.8,241.2,218.3C241.2,218.3,241.2,218.3,241.2,218.3z"/>
	<path class="st17" d="M247.1,216.4c-0.4,0.1-0.8,0.2-1.2,0.4c-0.3,0-0.4,0.1-0.4,0.4c-0.1,0.6-0.3,1.1-0.4,1.8c0,0.2,0,0.4,0.1,0.5
		c0.3,0.3,0.6,0.6,1,0.9c0.3,0.2,0.3,0.5,0.1,0.8c0,0,0,0,0,0.1l-0.9,1.2c-0.1,0.3-0.5,0.4-0.7,0.2c0,0-0.1,0-0.1-0.1
		c-0.3-0.3-0.7-0.5-1.1-0.6c-0.2-0.1-0.4,0-0.6,0.1c-0.5,0.3-1.1,0.6-1.6,0.9c-0.1,0.1-0.2,0.3-0.3,0.4c0,0.4,0,0.9,0.1,1.3
		s-0.1,0.7-0.6,0.7c-0.4,0-0.9,0.1-1.3,0.2c-0.5,0.1-0.7-0.1-0.8-0.5c0-0.1-0.1-0.3-0.1-0.5c-0.1-0.8-0.5-1.1-1.3-1.4
		c-0.9-0.4-2,0-2.5,0.9c-0.2,0.4-0.5,0.4-0.9,0.1s-0.7-0.6-1.1-0.8c-0.3-0.1-0.4-0.5-0.3-0.8c0-0.1,0.1-0.1,0.1-0.1
		c0.2-0.4,0.4-0.7,0.6-1.1c0.2-0.2,0.2-0.5,0-0.7c0,0,0,0,0,0c-0.3-0.3-0.5-0.6-0.6-1c-0.3-0.7-0.7-0.9-1.5-0.8
		c-1.4,0.2-1.3,0.1-1.5-1.2s-0.2-1.3,1.1-1.6c0.7-0.2,1.1-0.4,1.1-1.2c0-0.5,0.4-1.1,0.3-1.5s-0.8-0.8-1.2-1.1
		c-0.2-0.2-0.3-0.5-0.2-0.7c0,0,0-0.1,0.1-0.1l0.8-1.1c0.1-0.3,0.4-0.4,0.7-0.3c0.1,0,0.1,0,0.1,0.1c0.2,0.1,0.3,0.2,0.4,0.3
		c0.6,0.5,1.3,0.6,1.9-0.1c0.1-0.1,0.2-0.2,0.3-0.2c1-0.2,1.1-0.9,1-1.8s-0.1-1,1-1.2c1.6-0.3,1.5-0.4,1.9,1.2
		c0.1,0.6,0.3,0.9,1,0.9c0.2,0,0.5,0,0.7,0.1c0.6,0.4,1.3,0.2,1.7-0.4c0,0,0-0.1,0.1-0.1c0.9-1.1,0.9-0.8,1.8-0.2
		c1.1,0.8,1.1,0.7,0.4,1.9c-0.4,0.6-0.5,1,0,1.6c0.4,0.4,0.5,1.1,0.9,1.3s1.1,0,1.6,0c0.2,0,0.5,0.2,0.6,0.4
		c0.1,0.5,0.2,1.1,0.3,1.6c0,0.1,0,0.3,0,0.4C247.7,216.2,247.4,216.3,247.1,216.4z"/>
	<line class="st1" x1="208.2" y1="255.6" x2="208.2" y2="177.5"/>
	<polygon class="st2" points="216.4,248.9 214.9,247.6 208.2,254.8 201.5,247.6 200,248.9 208.2,257.7 	"/>
	<g class="st3">
		<path class="st4" d="M266.4,207.3h-2.6v7.5h-1v-7.5h-2.6v-0.9h6.2V207.3z"/>
	</g>
	<g class="st3">
		<path class="st4" d="M269.1,209.7c-0.2-0.1-0.5-0.1-0.7-0.1c-0.3,0-0.6,0.1-0.8,0.3c-0.2,0.2-0.3,0.4-0.4,0.7v4.2h-1v-6h0.7
			l0.2,0.7h0c0.2-0.3,0.3-0.5,0.5-0.6c0.2-0.1,0.5-0.2,0.8-0.2c0.2,0,0.5,0,0.8,0.1L269.1,209.7z"/>
		<path class="st4" d="M270.2,209.3c0.3-0.2,0.7-0.3,1.1-0.4s0.8-0.1,1.3-0.1c0.4,0,0.8,0.1,1,0.2c0.3,0.1,0.4,0.3,0.6,0.4
			c0.1,0.2,0.2,0.4,0.3,0.6c0,0.2,0.1,0.4,0.1,0.6c0,0.5,0,0.9,0,1.4c0,0.5,0,0.9,0,1.3c0,0.3,0,0.6,0,0.8c0,0.3,0.1,0.5,0.1,0.7
			h-0.7l-0.3-0.8h-0.1c-0.1,0.1-0.2,0.2-0.3,0.3c-0.1,0.1-0.2,0.2-0.4,0.3c-0.2,0.1-0.3,0.2-0.5,0.2c-0.2,0.1-0.4,0.1-0.7,0.1
			s-0.5,0-0.7-0.1c-0.2-0.1-0.4-0.2-0.6-0.3c-0.2-0.1-0.3-0.3-0.4-0.5c-0.1-0.2-0.1-0.4-0.1-0.7c0-0.4,0.1-0.6,0.2-0.9
			c0.1-0.2,0.3-0.4,0.6-0.6c0.3-0.1,0.6-0.2,0.9-0.3c0.4-0.1,0.8-0.1,1.2-0.1c0.1,0,0.2,0,0.3,0s0.2,0,0.3,0c0-0.2,0-0.5,0-0.6
			c0-0.4-0.1-0.7-0.3-0.9c-0.2-0.2-0.5-0.3-1-0.3c-0.1,0-0.3,0-0.4,0c-0.2,0-0.3,0-0.5,0.1s-0.3,0.1-0.5,0.1
			c-0.1,0.1-0.3,0.1-0.4,0.2L270.2,209.3z M271.9,214.1c0.2,0,0.4,0,0.6-0.1s0.3-0.1,0.5-0.2c0.1-0.1,0.2-0.2,0.3-0.3
			c0.1-0.1,0.1-0.2,0.2-0.3v-1c-0.1,0-0.2,0-0.3,0c-0.1,0-0.2,0-0.3,0c-0.2,0-0.5,0-0.7,0s-0.4,0.1-0.6,0.2s-0.3,0.2-0.4,0.3
			c-0.1,0.1-0.2,0.3-0.2,0.5c0,0.3,0.1,0.5,0.3,0.7C271.4,214,271.6,214.1,271.9,214.1z"/>
		<path class="st4" d="M280.1,214.8v-3.4c0-0.6-0.1-1.1-0.3-1.4c-0.2-0.3-0.5-0.5-1-0.5c-0.4,0-0.8,0.1-1.1,0.3
			c-0.3,0.2-0.5,0.5-0.6,0.9v4.1h-1v-6h0.7l0.2,0.7h0c0.2-0.3,0.5-0.5,0.8-0.6c0.3-0.2,0.7-0.2,1.2-0.2c0.3,0,0.6,0,0.9,0.1
			c0.2,0.1,0.5,0.2,0.6,0.4s0.3,0.5,0.4,0.8c0.1,0.3,0.1,0.7,0.1,1.2v3.6H280.1z"/>
		<path class="st4" d="M285.5,213.2c0-0.2-0.1-0.4-0.2-0.6c-0.1-0.1-0.3-0.3-0.5-0.3s-0.4-0.2-0.7-0.3s-0.5-0.2-0.7-0.3
			s-0.4-0.3-0.5-0.5c-0.1-0.2-0.2-0.5-0.2-0.8c0-0.6,0.2-1,0.5-1.3c0.3-0.3,0.8-0.4,1.4-0.4c0.4,0,0.8,0,1.1,0.1
			c0.3,0.1,0.5,0.2,0.8,0.3l-0.2,0.8c-0.2-0.1-0.4-0.2-0.7-0.2c-0.3-0.1-0.5-0.1-0.8-0.1c-0.4,0-0.6,0.1-0.8,0.2s-0.2,0.3-0.2,0.6
			c0,0.2,0.1,0.4,0.2,0.5c0.1,0.1,0.3,0.2,0.5,0.3s0.4,0.2,0.7,0.3s0.5,0.2,0.7,0.3s0.4,0.3,0.5,0.5c0.1,0.2,0.2,0.5,0.2,0.9
			c0,0.3,0,0.5-0.1,0.7c-0.1,0.2-0.2,0.4-0.4,0.6s-0.4,0.3-0.7,0.4s-0.6,0.1-0.9,0.1c-0.5,0-0.8,0-1.2-0.1c-0.3-0.1-0.6-0.2-0.8-0.3
			l0.3-0.8c0.2,0.1,0.4,0.2,0.7,0.3s0.6,0.1,0.9,0.1c0.3,0,0.6-0.1,0.9-0.2C285.4,213.8,285.5,213.5,285.5,213.2z"/>
		<path class="st4" d="M287.9,208.8h0.7l0.2,0.7h0c0.2-0.3,0.4-0.5,0.7-0.6s0.6-0.2,1-0.2c0.8,0,1.4,0.2,1.8,0.7
			c0.4,0.5,0.6,1.2,0.6,2.3c0,0.5-0.1,1-0.2,1.4s-0.3,0.7-0.6,1c-0.2,0.3-0.5,0.5-0.9,0.6c-0.3,0.2-0.7,0.2-1.1,0.2
			c-0.3,0-0.5,0-0.7-0.1s-0.4-0.1-0.6-0.2v2.5h-1V208.8z M290.3,209.5c-0.4,0-0.7,0.1-1,0.3c-0.2,0.2-0.4,0.5-0.5,1v3
			c0.1,0.1,0.3,0.2,0.5,0.3c0.2,0.1,0.4,0.1,0.7,0.1c0.6,0,1-0.2,1.3-0.6c0.3-0.4,0.5-1,0.5-1.8c0-0.3,0-0.6-0.1-0.9
			c-0.1-0.3-0.1-0.5-0.3-0.7c-0.1-0.2-0.3-0.3-0.5-0.4C290.8,209.6,290.6,209.5,290.3,209.5z"/>
		<path class="st4" d="M294.3,209.3c0.3-0.2,0.7-0.3,1.1-0.4s0.8-0.1,1.3-0.1c0.4,0,0.8,0.1,1,0.2c0.3,0.1,0.4,0.3,0.6,0.4
			c0.1,0.2,0.2,0.4,0.3,0.6c0,0.2,0.1,0.4,0.1,0.6c0,0.5,0,0.9,0,1.4c0,0.5,0,0.9,0,1.3c0,0.3,0,0.6,0,0.8c0,0.3,0.1,0.5,0.1,0.7
			h-0.7l-0.3-0.8h-0.1c-0.1,0.1-0.2,0.2-0.3,0.3c-0.1,0.1-0.2,0.2-0.4,0.3c-0.2,0.1-0.3,0.2-0.5,0.2c-0.2,0.1-0.4,0.1-0.7,0.1
			s-0.5,0-0.7-0.1c-0.2-0.1-0.4-0.2-0.6-0.3c-0.2-0.1-0.3-0.3-0.4-0.5c-0.1-0.2-0.1-0.4-0.1-0.7c0-0.4,0.1-0.6,0.2-0.9
			c0.1-0.2,0.3-0.4,0.6-0.6c0.3-0.1,0.6-0.2,0.9-0.3c0.4-0.1,0.8-0.1,1.2-0.1c0.1,0,0.2,0,0.3,0s0.2,0,0.3,0c0-0.2,0-0.5,0-0.6
			c0-0.4-0.1-0.7-0.3-0.9c-0.2-0.2-0.5-0.3-1-0.3c-0.1,0-0.3,0-0.4,0c-0.2,0-0.3,0-0.5,0.1s-0.3,0.1-0.5,0.1
			c-0.1,0.1-0.3,0.1-0.4,0.2L294.3,209.3z M296,214.1c0.2,0,0.4,0,0.6-0.1s0.3-0.1,0.5-0.2c0.1-0.1,0.2-0.2,0.3-0.3
			c0.1-0.1,0.1-0.2,0.2-0.3v-1c-0.1,0-0.2,0-0.3,0c-0.1,0-0.2,0-0.3,0c-0.2,0-0.5,0-0.7,0s-0.4,0.1-0.6,0.2s-0.3,0.2-0.4,0.3
			c-0.1,0.1-0.2,0.3-0.2,0.5c0,0.3,0.1,0.5,0.3,0.7C295.4,214,295.7,214.1,296,214.1z"/>
		<path class="st4" d="M303.2,209.7c-0.2-0.1-0.5-0.1-0.7-0.1c-0.3,0-0.6,0.1-0.8,0.3c-0.2,0.2-0.3,0.4-0.4,0.7v4.2h-1v-6h0.7
			l0.2,0.7h0c0.2-0.3,0.3-0.5,0.5-0.6c0.2-0.1,0.5-0.2,0.8-0.2c0.2,0,0.5,0,0.8,0.1L303.2,209.7z"/>
		<path class="st4" d="M308.8,214.3c-0.2,0.2-0.5,0.3-0.9,0.5c-0.4,0.1-0.8,0.2-1.2,0.2c-0.5,0-0.9-0.1-1.2-0.2
			c-0.3-0.1-0.6-0.4-0.8-0.6c-0.2-0.3-0.4-0.6-0.5-1s-0.2-0.8-0.2-1.3c0-1,0.2-1.8,0.7-2.3s1.1-0.8,2-0.8c0.3,0,0.5,0,0.8,0.1
			c0.3,0.1,0.5,0.2,0.7,0.3s0.4,0.4,0.5,0.7c0.1,0.3,0.2,0.7,0.2,1.2c0,0.3,0,0.6-0.1,0.9h-3.9c0,0.4,0,0.7,0.1,0.9
			c0.1,0.3,0.2,0.5,0.3,0.7c0.2,0.2,0.3,0.3,0.6,0.4c0.2,0.1,0.5,0.1,0.9,0.1c0.3,0,0.5,0,0.8-0.1c0.3-0.1,0.5-0.2,0.6-0.3
			L308.8,214.3z M306.7,209.5c-0.5,0-0.9,0.1-1.1,0.4c-0.3,0.2-0.5,0.7-0.5,1.3h3c0-0.6-0.1-1-0.3-1.3
			C307.5,209.6,307.2,209.5,306.7,209.5z"/>
		<path class="st4" d="M314.4,214.8v-3.4c0-0.6-0.1-1.1-0.3-1.4c-0.2-0.3-0.5-0.5-1-0.5c-0.4,0-0.8,0.1-1.1,0.3
			c-0.3,0.2-0.5,0.5-0.6,0.9v4.1h-1v-6h0.7l0.2,0.7h0c0.2-0.3,0.5-0.5,0.8-0.6c0.3-0.2,0.7-0.2,1.2-0.2c0.3,0,0.6,0,0.9,0.1
			c0.2,0.1,0.5,0.2,0.6,0.4s0.3,0.5,0.4,0.8c0.1,0.3,0.1,0.7,0.1,1.2v3.6H314.4z"/>
		<path class="st4" d="M316.3,208.8h0.9v-1.2l1-0.3v1.5h1.6v0.8h-1.6v3.3c0,0.4,0.1,0.7,0.2,0.9c0.1,0.2,0.3,0.3,0.5,0.3
			c0.2,0,0.4,0,0.5-0.1c0.1,0,0.3-0.1,0.5-0.2l0.2,0.7c-0.2,0.1-0.5,0.2-0.7,0.3c-0.3,0.1-0.5,0.1-0.8,0.1c-0.5,0-0.8-0.1-1-0.4
			c-0.2-0.3-0.3-0.7-0.3-1.4v-3.5h-0.9V208.8z"/>
	</g>
	<g class="st3">
		<path class="st4" d="M265.2,228.7c-0.2,0.2-0.5,0.3-0.9,0.5c-0.4,0.1-0.8,0.2-1.2,0.2c-0.5,0-0.9-0.1-1.2-0.2
			c-0.3-0.1-0.6-0.4-0.8-0.6c-0.2-0.3-0.4-0.6-0.5-1s-0.2-0.8-0.2-1.3c0-1,0.2-1.8,0.7-2.3s1.1-0.8,2-0.8c0.3,0,0.5,0,0.8,0.1
			c0.3,0.1,0.5,0.2,0.7,0.3s0.4,0.4,0.5,0.7c0.1,0.3,0.2,0.7,0.2,1.2c0,0.3,0,0.6-0.1,0.9h-3.9c0,0.4,0,0.7,0.1,0.9
			c0.1,0.3,0.2,0.5,0.3,0.7c0.2,0.2,0.3,0.3,0.6,0.4c0.2,0.1,0.5,0.1,0.9,0.1c0.3,0,0.5,0,0.8-0.1c0.3-0.1,0.5-0.2,0.6-0.3
			L265.2,228.7z M263.2,223.9c-0.5,0-0.9,0.1-1.1,0.4c-0.3,0.2-0.5,0.7-0.5,1.3h3c0-0.6-0.1-1-0.3-1.3
			C263.9,224,263.6,223.9,263.2,223.9z"/>
		<path class="st4" d="M270.8,229.2v-3.4c0-0.6-0.1-1.1-0.3-1.4c-0.2-0.3-0.5-0.5-1-0.5c-0.4,0-0.8,0.1-1.1,0.3
			c-0.3,0.2-0.5,0.5-0.6,0.9v4.1h-1v-6h0.7l0.2,0.7h0c0.2-0.3,0.5-0.5,0.8-0.6c0.3-0.2,0.7-0.2,1.2-0.2c0.3,0,0.6,0,0.9,0.1
			c0.2,0.1,0.5,0.2,0.6,0.4s0.3,0.5,0.4,0.8c0.1,0.3,0.1,0.7,0.1,1.2v3.6H270.8z"/>
		<path class="st4" d="M277.6,228.8c-0.2,0.2-0.5,0.3-0.9,0.4s-0.7,0.1-1,0.1c-0.5,0-0.9-0.1-1.2-0.2c-0.3-0.1-0.6-0.4-0.8-0.6
			c-0.2-0.3-0.4-0.6-0.4-1c-0.1-0.4-0.1-0.8-0.1-1.3c0-1,0.2-1.8,0.7-2.3c0.4-0.5,1.1-0.8,1.9-0.8c0.4,0,0.7,0,1,0.1
			c0.3,0.1,0.5,0.1,0.7,0.3l-0.3,0.8c-0.2-0.1-0.4-0.2-0.6-0.2c-0.2-0.1-0.5-0.1-0.7-0.1c-1.1,0-1.7,0.8-1.7,2.3
			c0,0.3,0,0.6,0.1,0.9c0.1,0.3,0.2,0.5,0.3,0.7c0.1,0.2,0.3,0.4,0.6,0.5c0.2,0.1,0.5,0.2,0.8,0.2c0.3,0,0.5,0,0.8-0.1
			c0.2-0.1,0.4-0.2,0.6-0.3L277.6,228.8z"/>
		<path class="st4" d="M281.7,224.1c-0.2-0.1-0.5-0.1-0.7-0.1c-0.3,0-0.6,0.1-0.8,0.3c-0.2,0.2-0.3,0.4-0.4,0.7v4.2h-1v-6h0.7
			l0.2,0.7h0c0.2-0.3,0.3-0.5,0.5-0.6c0.2-0.1,0.5-0.2,0.8-0.2c0.2,0,0.5,0,0.8,0.1L281.7,224.1z"/>
		<path class="st4" d="M284.8,227.1l0.3,1.2h0.1l0.3-1.2l1.2-3.9h1l-1.8,5.4c-0.1,0.4-0.3,0.8-0.4,1.1c-0.1,0.4-0.3,0.7-0.4,1
			c-0.2,0.3-0.3,0.5-0.5,0.7c-0.2,0.2-0.4,0.3-0.7,0.3c-0.3,0-0.5,0-0.7-0.1l0.2-0.8c0.1,0,0.2,0.1,0.3,0.1c0.2,0,0.4-0.1,0.6-0.4
			c0.2-0.2,0.4-0.6,0.5-1.2l-2.4-6h1.1L284.8,227.1z"/>
		<path class="st4" d="M288.6,223.2h0.7l0.2,0.7h0c0.2-0.3,0.4-0.5,0.7-0.6s0.6-0.2,1-0.2c0.8,0,1.4,0.2,1.8,0.7
			c0.4,0.5,0.6,1.2,0.6,2.3c0,0.5-0.1,1-0.2,1.4s-0.3,0.7-0.6,1c-0.2,0.3-0.5,0.5-0.9,0.6c-0.3,0.2-0.7,0.2-1.1,0.2
			c-0.3,0-0.5,0-0.7-0.1s-0.4-0.1-0.6-0.2v2.5h-1V223.2z M291,223.9c-0.4,0-0.7,0.1-1,0.3c-0.2,0.2-0.4,0.5-0.5,1v3
			c0.1,0.1,0.3,0.2,0.5,0.3c0.2,0.1,0.4,0.1,0.7,0.1c0.6,0,1-0.2,1.3-0.6c0.3-0.4,0.5-1,0.5-1.8c0-0.3,0-0.6-0.1-0.9
			c-0.1-0.3-0.1-0.5-0.3-0.7c-0.1-0.2-0.3-0.3-0.5-0.4C291.5,224,291.3,223.9,291,223.9z"/>
		<path class="st4" d="M294.3,223.2h0.9V222l1-0.3v1.5h1.6v0.8h-1.6v3.3c0,0.4,0.1,0.7,0.2,0.9c0.1,0.2,0.3,0.3,0.5,0.3
			c0.2,0,0.4,0,0.5-0.1s0.3-0.1,0.5-0.2l0.2,0.7c-0.2,0.1-0.5,0.2-0.7,0.3c-0.3,0.1-0.5,0.1-0.8,0.1c-0.5,0-0.8-0.1-1-0.4
			c-0.2-0.3-0.3-0.7-0.3-1.4v-3.5h-0.9V223.2z"/>
		<path class="st4" d="M299.1,221.4c0-0.2,0.1-0.3,0.2-0.5s0.3-0.2,0.5-0.2c0.2,0,0.4,0.1,0.5,0.2c0.1,0.1,0.2,0.3,0.2,0.5
			c0,0.2-0.1,0.3-0.2,0.5c-0.1,0.1-0.3,0.2-0.5,0.2c-0.2,0-0.4-0.1-0.5-0.2S299.1,221.6,299.1,221.4z M299.4,223.2h1v6h-1V223.2z"/>
		<path class="st4" d="M302,226.2c0-1,0.2-1.8,0.7-2.3s1.1-0.8,2-0.8c0.4,0,0.8,0.1,1.2,0.2s0.6,0.4,0.8,0.6c0.2,0.3,0.4,0.6,0.5,1
			c0.1,0.4,0.2,0.8,0.2,1.3c0,1-0.2,1.8-0.7,2.3c-0.5,0.5-1.1,0.8-2,0.8c-0.4,0-0.8-0.1-1.2-0.2c-0.3-0.1-0.6-0.4-0.8-0.6
			c-0.2-0.3-0.4-0.6-0.5-1C302.1,227.1,302,226.7,302,226.2z M303,226.2c0,0.3,0,0.6,0.1,0.9c0.1,0.3,0.2,0.5,0.3,0.7
			s0.3,0.4,0.5,0.5s0.5,0.2,0.8,0.2c1.1,0,1.6-0.8,1.6-2.3c0-0.3,0-0.6-0.1-0.9s-0.2-0.5-0.3-0.7s-0.3-0.4-0.5-0.5s-0.5-0.2-0.8-0.2
			C303.6,223.9,303,224.7,303,226.2z"/>
		<path class="st4" d="M312.6,229.2v-3.4c0-0.6-0.1-1.1-0.3-1.4c-0.2-0.3-0.5-0.5-1-0.5c-0.4,0-0.8,0.1-1.1,0.3
			c-0.3,0.2-0.5,0.5-0.6,0.9v4.1h-1v-6h0.7l0.2,0.7h0c0.2-0.3,0.5-0.5,0.8-0.6c0.3-0.2,0.7-0.2,1.2-0.2c0.3,0,0.6,0,0.9,0.1
			c0.2,0.1,0.5,0.2,0.6,0.4s0.3,0.5,0.4,0.8c0.1,0.3,0.1,0.7,0.1,1.2v3.6H312.6z"/>
	</g>
</g>
</svg>
