<svg xmlns="http://www.w3.org/2000/svg" xmlns:xlink="http://www.w3.org/1999/xlink" viewBox="0 0 580.6 319.99"><defs><style>.cls-1,.cls-11,.cls-15,.cls-25,.cls-26,.cls-4,.cls-8{fill:none;}.cls-2{opacity:0.2;}.cls-3{fill:#fc9;}.cls-26,.cls-4,.cls-5{stroke:#c30;}.cls-11,.cls-15,.cls-4,.cls-6,.cls-8{stroke-miterlimit:10;}.cls-11,.cls-15,.cls-25,.cls-26,.cls-4,.cls-5,.cls-6,.cls-8{stroke-width:2px;}.cls-15,.cls-4{stroke-dasharray:2 2;}.cls-12,.cls-22,.cls-35,.cls-5{fill:#fff;}.cls-25,.cls-26,.cls-5{stroke-linecap:round;stroke-linejoin:round;}.cls-15,.cls-25,.cls-6,.cls-8{stroke:#fc0;}.cls-6{fill:url(#Unbenannter_Verlauf_12);}.cls-7{fill:url(#Unbenannter_Verlauf_12-2);}.cls-9{fill:#86c2eb;opacity:0.4;}.cls-10{fill:#fdfeff;}.cls-11{stroke:#fff;}.cls-13{opacity:0.7;}.cls-14{fill:url(#Unbenannter_Verlauf_12-3);}.cls-16,.cls-17,.cls-24,.cls-31{fill:#fc0;}.cls-17,.cls-35{font-size:11px;}.cls-17,.cls-28,.cls-31{font-family:RobotoSlab-Bold, Roboto Slab;font-weight:700;}.cls-18,.cls-31{font-size:9px;}.cls-19{letter-spacing:0em;}.cls-20{clip-path:url(#clip-path);}.cls-21{fill:#ffd138;}.cls-22,.cls-24{font-size:10px;font-family:RobotoSlab-Regular, Roboto Slab;}.cls-23{letter-spacing:0.01em;}.cls-27{fill:#c30;}.cls-28{font-size:12px;fill:#306;}.cls-29{letter-spacing:-0.01em;}.cls-30{letter-spacing:-0.03em;}.cls-32{letter-spacing:-0.01em;}.cls-33{letter-spacing:0em;}.cls-34{letter-spacing:0.01em;}.cls-35{font-family:PTSans-Regular, PT Sans;}.cls-36{letter-spacing:-0.01em;}.cls-37{letter-spacing:-0.01em;}.cls-38{letter-spacing:-0.02em;}</style><linearGradient id="Unbenannter_Verlauf_12" x1="40.17" y1="177.11" x2="347.05" y2="177.11" gradientUnits="userSpaceOnUse"><stop offset="0" stop-color="#906"/><stop offset="0.19" stop-color="#780066"/><stop offset="0.4" stop-color="#5a0066"/><stop offset="0.61" stop-color="#406"/><stop offset="0.81" stop-color="#370066"/><stop offset="1" stop-color="#306"/></linearGradient><linearGradient id="Unbenannter_Verlauf_12-2" x1="221.27" y1="175.95" x2="334" y2="175.95" xlink:href="#Unbenannter_Verlauf_12"/><linearGradient id="Unbenannter_Verlauf_12-3" x1="334" y1="170.85" x2="529.67" y2="170.85" xlink:href="#Unbenannter_Verlauf_12"/><clipPath id="clip-path"><rect class="cls-1" x="246.16" y="164.04" width="45.67" height="8.94"/></clipPath></defs><title>execute</title><g id="Ebene_2" data-name="Ebene 2"><g class="cls-2"><path class="cls-3" d="M432.76,261.42v20.7c0,4.58,2.23,8.29,5,8.29h100c2.76,0,5-3.71,5-8.29V69.81c0-4.59-2.24-8.3-5-8.3h-100c-2.77,0-5,3.71-5,8.3V94.5"/></g><path class="cls-4" d="M432.76,240.2v41.94c0,4.57,2.23,8.27,5,8.27h100c2.76,0,5-3.7,5-8.27V70.31c0-4.57-2.24-8.27-5-8.27h-100c-2.77,0-5,3.7-5,8.27v32.78"/><path class="cls-5" d="M537.85,59.21A2.87,2.87,0,0,0,534.24,58c-2.24.86-1.26,3.62-1.26,3.62s-5.13-.06-4.57,5.2c.41,3.85,4.57,3.62,4.43,3.62-6.19,0,12.39,0,18.58,0a4.62,4.62,0,0,0,2.64-1,4,4,0,0,0,1.29-4.74c-.66-1.83-3-2.78-4.87-2.87,0,0,1.1-4.89-2.42-7.05a6.62,6.62,0,0,0-8.09.59A7.5,7.5,0,0,0,537.85,59.21Z"/><line class="cls-4" x1="432.76" y1="129.52" x2="432.76" y2="212.54"/><rect class="cls-6" x="40.17" y="62.04" width="306.88" height="230.14" rx="5"/><path class="cls-7" d="M334,103.45V82.62a5.15,5.15,0,0,0-4.67-5H225c-2.14,0-3.68,2.23-3.68,5V269.28c0,2.76,2.14,5,4.28,5H330.33c2.14,0,3.67-2.24,3.67-5V238m0,18.27"/><path class="cls-8" d="M334,103.45V82.62a5.15,5.15,0,0,0-4.67-5H225c-2.14,0-3.68,2.23-3.68,5V269.28c0,2.76,2.14,5,4.28,5H330.33c2.14,0,3.67-2.24,3.67-5V238m0,18.27"/><rect class="cls-9" x="231.97" y="93.51" width="92.09" height="43.1" rx="5"/><rect class="cls-9" x="52.94" y="93.51" width="92.09" height="43.1" rx="5"/><rect class="cls-10" x="249.16" y="103.2" width="24.19" height="24.19"/><rect class="cls-10" x="281.73" y="103.2" width="24.19" height="24.19"/><rect class="cls-9" x="231.97" y="204.16" width="92.09" height="43.1" rx="5"/><rect class="cls-9" x="53.36" y="204.16" width="92.09" height="43.1" rx="5"/><rect class="cls-10" x="265.54" y="212.85" width="24.19" height="24.19"/><polyline class="cls-11" points="96.18 127.16 72.11 127.16 72.11 103.09"/><circle class="cls-12" cx="79.34" cy="104.99" r="1"/><circle class="cls-12" cx="86.44" cy="114.41" r="1"/><circle class="cls-12" cx="86.44" cy="107.99" r="1"/><circle class="cls-12" cx="94.32" cy="118.8" r="1"/><circle class="cls-12" cx="77.34" cy="116.13" r="1"/><circle class="cls-12" cx="81.64" cy="121.8" r="1"/><polyline class="cls-11" points="127.16 127.16 103.09 127.16 103.09 103.09"/><path class="cls-11" d="M103.25,115.13h3.49s.64-8.14,3.54-8.14c2.45,0,2.89,13.81,5.83,13.81,2.48,0,2.73-8.86,4.63-8.78,1.62.06,1.72,5.76,3,5.78,1.13,0,1.72-2.45,1.72-2.45"/><polyline class="cls-11" points="113.72 238.31 88.51 238.31 88.51 213.11"/><rect class="cls-12" x="92.24" y="213.11" width="3.83" height="23.05"/><rect class="cls-12" x="97.98" y="223.4" width="3.83" height="12.75"/><rect class="cls-12" x="103.73" y="218.47" width="3.83" height="17.68"/><rect class="cls-12" x="109.47" y="229.1" width="3.83" height="7.06"/><g class="cls-13"><path class="cls-14" d="M524.67,103.45H334v25.7H440.86a4.91,4.91,0,0,1,4.9,4.91v75.57c0,2.71-2.2,2.91-4.9,2.91H334v25.7H524.67a5,5,0,0,0,5-5V108.45A5,5,0,0,0,524.67,103.45Z"/></g><line class="cls-15" x1="328.7" y1="116.61" x2="404.7" y2="116.61"/><polygon class="cls-16" points="400.06 122.34 399.1 121.31 404.16 116.61 399.1 111.91 400.06 110.89 406.21 116.61 400.06 122.34"/><line class="cls-15" x1="146.8" y1="116.61" x2="230.81" y2="116.61"/><polygon class="cls-16" points="226.17 122.34 225.21 121.31 230.27 116.61 225.21 111.91 226.17 110.89 232.32 116.61 226.17 122.34"/><line class="cls-15" x1="234.32" y1="224.78" x2="148.32" y2="224.78"/><polygon class="cls-16" points="152.95 219.06 153.91 220.08 148.85 224.78 153.91 229.48 152.95 230.51 146.8 224.78 152.95 219.06"/><line class="cls-15" x1="405.73" y1="224.78" x2="330.22" y2="224.78"/><polygon class="cls-16" points="334.86 219.06 335.81 220.08 330.76 224.78 335.81 229.48 334.86 230.51 328.7 224.78 334.86 219.06"/><path class="cls-8" d="M334,238.24H524.67a5,5,0,0,0,5-5V108.45a5,5,0,0,0-5-5H334"/></g><g id="schrift"><text class="cls-17" transform="translate(245.22 173.04)"><tspan xml:space="preserve">                   </tspan><tspan class="cls-18" x="51.23" y="0">CLI</tspan><tspan class="cls-18"><tspan x="9.19" y="12">(contai</tspan><tspan class="cls-19" x="38.9" y="12">n</tspan><tspan x="44.57" y="12">er)</tspan></tspan></text><g id="Scone_logo_white" data-name="Scone logo white"><g class="cls-20"><g class="cls-20"><path class="cls-21" d="M252.21,166.31h-1a.37.37,0,0,0-.37.36v1a.38.38,0,0,0,.37.37h1a.38.38,0,0,0,.37-.37v-1a.37.37,0,0,0-.37-.36M248.88,168h1a.37.37,0,0,0,.37-.37v-1a.36.36,0,0,0-.37-.36h-1a.37.37,0,0,0-.37.36v1a.38.38,0,0,0,.37.37m-1-.37v-1a.37.37,0,0,0-.37-.36h-1a.36.36,0,0,0-.36.36v1a.37.37,0,0,0,.36.37h1a.38.38,0,0,0,.37-.37m4.43,1a.28.28,0,0,0-.27.27v1.14a.28.28,0,0,0,.27.28.29.29,0,0,0,.28-.28V169a.26.26,0,0,0-.28-.27m-2.63.37v1a.38.38,0,0,0,.37.37h1a.37.37,0,0,0,.36-.37v-1a.36.36,0,0,0-.36-.37h-1a.37.37,0,0,0-.37.37m-.68,1v-1a.37.37,0,0,0-.37-.37h-.95a.36.36,0,0,0-.37.37v1a.37.37,0,0,0,.37.37h.95A.38.38,0,0,0,249,170m3.24,1.05h-1a.37.37,0,0,0-.37.37v1a.38.38,0,0,0,.37.37h1a.38.38,0,0,0,.37-.37v-1a.37.37,0,0,0-.37-.37m-2.49,0h-.95a.37.37,0,0,0-.37.37v1a.38.38,0,0,0,.37.37h.95a.37.37,0,0,0,.37-.37v-1a.36.36,0,0,0-.37-.37"/><path class="cls-21" d="M253.37,165.92a2.19,2.19,0,0,0,1.49.46s0,0,0,.07v2.63c0,1-1.23,1.64-1.52,1.81,0,0,0,0,0,0l0-4.93s0,0,0,0"/><path class="cls-21" d="M250.48,165.79c2-.07,2.35-.77,2.35-.77a.11.11,0,0,1,.1-.06.09.09,0,0,1,.09,0s.31.75,2.33.75c.06,0,.08,0,.08.1v3.45c0,1.11-2.1,2.36-2.14,2.38s-.07,0-.07.07v.87s.13,0,.18,0c.78-.42,3-1.62,3-3.09v-4.41c0-.08-.13-.13-.21-.13-2.57,0-3-.94-3-.94s-.11,0-.16,0-.1,0-.12,0-.42,1-3,1c-.09,0-.11,0-.11.11v.55s0,.13.08.13.68,0,.68,0"/><path class="cls-10" d="M258.26,171.44l1-.39a1.41,1.41,0,0,0,1.34.77,1.47,1.47,0,0,0,.79-.18.63.63,0,0,0,.33-.55c0-.55-.75-.88-1.3-1.1l0,0a4.88,4.88,0,0,1-1.19-.67,1.47,1.47,0,0,1-.59-1.21,1.63,1.63,0,0,1,.6-1.27,2.37,2.37,0,0,1,1.53-.51,2.18,2.18,0,0,1,2,1.1l-1.06.4a.9.9,0,0,0-.37-.38,1.38,1.38,0,0,0-.59-.13c-.59,0-1,.31-1,.74a.84.84,0,0,0,.4.66,6.09,6.09,0,0,0,.92.48l.13,0c.79.33,1.77.76,1.77,1.82a1.53,1.53,0,0,1-.7,1.31,2.85,2.85,0,0,1-1.68.48,2.46,2.46,0,0,1-2.35-1.4"/><path class="cls-10" d="M267.38,172.82a3.28,3.28,0,0,1-1.27-.26,3.25,3.25,0,0,1-1-.7,3,3,0,0,1-.7-1,3.42,3.42,0,0,1-.25-1.27,3.46,3.46,0,0,1,.25-1.27,3.32,3.32,0,0,1,1.73-1.73,3.46,3.46,0,0,1,1.27-.25,3.12,3.12,0,0,1,1.47.35,3.3,3.3,0,0,1,1.13.93l-.87.65a2.28,2.28,0,0,0-.75-.63,2.49,2.49,0,0,0-1-.24,2.2,2.2,0,0,0-2.18,2.19,2.17,2.17,0,0,0,.64,1.55,2.11,2.11,0,0,0,1.54.64,2.16,2.16,0,0,0,1.11-.31,2.27,2.27,0,0,0,.79-.81l.94.53a3.23,3.23,0,0,1-1.18,1.2,3,3,0,0,1-1.64.46"/><path class="cls-10" d="M274.5,172.84a3.47,3.47,0,0,1-1.27-.26,3.25,3.25,0,0,1-1-.7,3.35,3.35,0,0,1-.7-1,3.42,3.42,0,0,1-.25-1.27,3.1,3.1,0,0,1,.25-1.27,3.27,3.27,0,0,1,3-2,3.43,3.43,0,0,1,1.27.26,3,3,0,0,1,1,.7,3.24,3.24,0,0,1,1,2.3,3.43,3.43,0,0,1-.26,1.27,3.35,3.35,0,0,1-.7,1,3.48,3.48,0,0,1-1,.7,3.43,3.43,0,0,1-1.27.26m0-5.47A2.07,2.07,0,0,0,273,168a2.15,2.15,0,0,0-.65,1.54,2.11,2.11,0,0,0,.65,1.55,2.13,2.13,0,0,0,1.54.64,2.17,2.17,0,0,0,1.55-.64,2.18,2.18,0,0,0,0-3.09,2.19,2.19,0,0,0-1.55-.65"/><polygon class="cls-10" points="285.15 166.36 285.15 172.98 280.59 168.79 280.59 172.73 279.43 172.73 279.43 166.12 283.99 170.33 283.99 166.36 285.15 166.36"/><polygon class="cls-10" points="288.26 167.34 288.26 169.03 291.44 169.03 291.44 170.02 288.26 170.02 288.26 171.73 291.83 171.73 291.83 172.73 287.1 172.73 287.1 166.36 291.83 166.36 291.83 167.35 288.26 167.35 288.26 167.34"/></g></g></g><text class="cls-22" transform="translate(236.27 150.53)">/e<tspan class="cls-19" x="9.4" y="0">n</tspan><tspan x="15.79" y="0">c</tspan><tspan class="cls-23" x="21.18" y="0">r</tspan><tspan x="25.4" y="0">yptedInputs</tspan></text><text class="cls-24" transform="translate(165.83 109.73)">/inputs</text><text class="cls-24" transform="translate(159.04 201.84)">/dec<tspan class="cls-23" x="20.79" y="0">r</tspan><tspan x="25.01" y="0">ypted </tspan><tspan x="7.05" y="15">Outputs</tspan></text><text class="cls-22" transform="translate(83.75 150.53)">Inputs</text><text class="cls-22" transform="translate(232.71 261.9)">/e<tspan class="cls-19" x="9.4" y="0">n</tspan><tspan x="15.79" y="0">c</tspan><tspan class="cls-23" x="21.18" y="0">r</tspan><tspan x="25.4" y="0">yptedOutputs</tspan></text><text class="cls-22" transform="translate(80.15 261.9)">Outputs</text><path class="cls-25" d="M28.18,31.15H23.93c-.57,0-.8-.23-.8-.81V23.88c0-.58.23-.8.8-.8h8.46c.55,0,.77.22.77.77v6.49c0,.55-.22.77-.77.77C31,31.18,29.56,31.15,28.18,31.15Z"/><path class="cls-25" d="M23.82,22.51a4.51,4.51,0,0,1,2.64-4.13,4.2,4.2,0,0,1,5.78,2.85c.1.39.13.77.23,1.19"/><path class="cls-16" d="M27.47,28.38h0v.87c0,.16.07.22.26.22h.84c.22,0,.29-.06.29-.25V27.61a.38.38,0,0,1,.22-.39,1.21,1.21,0,0,0,.61-1.44,1.53,1.53,0,0,0-1.44-1,1.65,1.65,0,0,0-1.61.87,1.2,1.2,0,0,0,.54,1.51.42.42,0,0,1,.26.48A6,6,0,0,1,27.47,28.38Z"/><path class="cls-26" d="M556,29.75h-4.25c-.58,0-.8-.23-.8-.81V22.48c0-.58.22-.8.8-.8h8.46c.55,0,.77.22.77.77v6.49c0,.55-.22.77-.77.77C558.81,29.78,557.4,29.75,556,29.75Z"/><path class="cls-26" d="M554.64,13.49a4.52,4.52,0,0,1,4.86.72,4.19,4.19,0,0,1-.24,6.43c-.31.25-.65.44-1,.7"/><path class="cls-27" d="M555.31,27h0v.87c0,.16.06.22.26.22h.83c.23,0,.29-.06.29-.25V26.21a.37.37,0,0,1,.23-.39,1.21,1.21,0,0,0,.61-1.44,1.54,1.54,0,0,0-1.45-1,1.65,1.65,0,0,0-1.61.87,1.2,1.2,0,0,0,.55,1.51.42.42,0,0,1,.26.48A6,6,0,0,1,555.31,27Z"/><text class="cls-28" transform="translate(485.91 29.92)">Untrusted <tspan class="cls-29" x="-46.19" y="14.4">r</tspan><tspan x="-41.25" y="14.4">e</tspan><tspan class="cls-19" x="-34.86" y="14.4">m</tspan><tspan x="-23.75" y="14.4">ote computers</tspan></text><text class="cls-28" transform="translate(40.42 30.45)"><tspan class="cls-30">T</tspan><tspan x="7.69" y="0">rusted</tspan><tspan x="0" y="14.4">client computer</tspan></text><text class="cls-31" transform="translate(355.44 171.75) scale(1.01 1)">alw<tspan class="cls-32" x="15.03" y="0">a</tspan><tspan x="19.91" y="0">ys </tspan><tspan x="0" y="10.8">e</tspan><tspan class="cls-33" x="4.79" y="10.8">n</tspan><tspan x="10.46" y="10.8">c</tspan><tspan class="cls-34" x="15.21" y="10.8">r</tspan><tspan x="19.07" y="10.8">ypted</tspan></text><path class="cls-8" d="M334,129.16H440.86a4.9,4.9,0,0,1,4.9,4.9v74.57c0,2.71-2.2,3.91-4.9,3.91H334Z"/><text class="cls-35" transform="translate(411.74 119.41)">encryp<tspan class="cls-36" x="31.38" y="0">t</tspan><tspan x="34.99" y="0">ed data</tspan></text><text class="cls-35" transform="translate(411.74 228.11)">encryp<tspan class="cls-37" x="31.38" y="0">t</tspan><tspan x="34.99" y="0">ed pro</tspan><tspan class="cls-38" x="65.02" y="0">c</tspan><tspan x="69.73" y="0">essing</tspan></text></g></svg>