<svg xmlns="http://www.w3.org/2000/svg" xmlns:xlink="http://www.w3.org/1999/xlink" viewBox="0 0 610 150"><defs><style>.cls-1,.cls-11,.cls-13,.cls-2,.cls-9{fill:none;}.cls-2{stroke:#c30;stroke-dasharray:2 2;}.cls-11,.cls-2,.cls-9{stroke-miterlimit:10;}.cls-11,.cls-12,.cls-13,.cls-2,.cls-9{stroke-width:2px;}.cls-3{font-size:12px;fill:#306;}.cls-18,.cls-3{font-family:RobotoSlab-Bold, Roboto Slab;font-weight:700;}.cls-4{letter-spacing:0em;}.cls-5{letter-spacing:0.01em;}.cls-6{letter-spacing:-0.02em;}.cls-7{letter-spacing:-0.04em;}.cls-8{letter-spacing:-0.01em;}.cls-9{stroke:#306;}.cls-10{fill:url(#Unbenannter_Verlauf_12);}.cls-11,.cls-12,.cls-13{stroke:#fc0;}.cls-12{fill:#fff;}.cls-12,.cls-13{stroke-linecap:round;stroke-linejoin:round;}.cls-14,.cls-18{fill:#fc0;}.cls-15{clip-path:url(#clip-path);}.cls-16{fill:#ffd138;}.cls-17{fill:#fdfeff;}.cls-18{font-size:11px;}.cls-19{letter-spacing:-0.01em;}</style><linearGradient id="Unbenannter_Verlauf_12" x1="75.18" y1="71.39" x2="228.64" y2="71.39" gradientUnits="userSpaceOnUse"><stop offset="0" stop-color="#906"/><stop offset="0.19" stop-color="#780066"/><stop offset="0.4" stop-color="#5a0066"/><stop offset="0.61" stop-color="#406"/><stop offset="0.81" stop-color="#370066"/><stop offset="1" stop-color="#306"/></linearGradient><clipPath id="clip-path"><rect class="cls-1" x="132.74" y="107.34" width="36.34" height="7.12"/></clipPath></defs><title>fileprotection</title><g id="Ebene_2" data-name="Ebene 2"><rect class="cls-2" x="394.82" y="92.02" width="130" height="27.21" rx="5"/><text class="cls-3" transform="translate(123.02 141.71)">e<tspan class="cls-4" x="6.39" y="0">n</tspan><tspan x="13.95" y="0">c</tspan><tspan class="cls-5" x="20.27" y="0">r</tspan><tspan x="25.43" y="0">ypted</tspan></text><text class="cls-3" transform="translate(272.68 141.71)"><tspan class="cls-6">a</tspan><tspan x="6.4" y="0">ut</tspan><tspan class="cls-4" x="18.37" y="0">h</tspan><tspan x="25.94" y="0">entic</tspan><tspan class="cls-7" x="54.62" y="0">a</tspan><tspan x="60.74" y="0">ted</tspan></text><text class="cls-3" transform="translate(425.23 141.71)">unp<tspan class="cls-8" x="22.37" y="0">r</tspan><tspan x="27.3" y="0">otected</tspan></text><text class="cls-3" transform="translate(448.43 110.31)">/bin</text><rect class="cls-9" x="246.23" y="92.02" width="130" height="27.21" rx="5"/><text class="cls-3" transform="translate(300.44 110.31)">/etc</text><rect class="cls-10" x="75.18" y="21.32" width="153.46" height="100.13" rx="5"/><rect class="cls-11" x="75.18" y="21.32" width="153.46" height="100.13" rx="5"/><rect class="cls-11" x="86.6" y="37.23" width="130" height="27" rx="5"/><rect class="cls-11" x="155.83" y="74.79" width="60.77" height="27" rx="5"/><rect class="cls-11" x="86.6" y="74.79" width="60.77" height="27" rx="5"/><path class="cls-12" d="M142.6,9.55a11.73,11.73,0,1,1-3.52,8.38,11.54,11.54,0,0,1,2.4-7.1"/><path class="cls-13" d="M150.85,23.57H146.6c-.58,0-.8-.22-.8-.8V16.31c0-.58.22-.81.8-.81h8.46c.54,0,.77.23.77.78v6.49c0,.55-.23.77-.77.77C153.64,23.61,152.23,23.57,150.85,23.57Z"/><path class="cls-13" d="M146.49,14.94a4.51,4.51,0,0,1,2.64-4.13,4.19,4.19,0,0,1,5.77,2.85c.1.38.14.77.24,1.19"/><path class="cls-14" d="M150.14,20.81h0v.87c0,.16.06.22.26.22h.83c.23,0,.29-.06.29-.26V20a.39.39,0,0,1,.23-.39,1.21,1.21,0,0,0,.61-1.45,1.54,1.54,0,0,0-1.45-1,1.65,1.65,0,0,0-1.61.87,1.21,1.21,0,0,0,.55,1.51.42.42,0,0,1,.26.48A5.86,5.86,0,0,1,150.14,20.81Z"/><g id="Scone_logo_white" data-name="Scone logo white"><g class="cls-15"><g class="cls-15"><path class="cls-16" d="M137.55,109.14h-.76a.29.29,0,0,0-.29.3v.77a.29.29,0,0,0,.29.29h.76a.3.3,0,0,0,.3-.29v-.77a.3.3,0,0,0-.3-.3m-2.65,1.36h.76a.29.29,0,0,0,.3-.29v-.77a.29.29,0,0,0-.3-.3h-.76a.29.29,0,0,0-.29.3v.77a.29.29,0,0,0,.29.29m-.82-.29v-.77a.29.29,0,0,0-.29-.3H133a.29.29,0,0,0-.29.3v.77a.29.29,0,0,0,.29.29h.76a.29.29,0,0,0,.29-.29m3.53.84a.22.22,0,0,0-.22.21v.91a.22.22,0,0,0,.44,0v-.91c0-.11-.09-.21-.22-.21m-2.09.29v.77a.3.3,0,0,0,.29.3h.76a.3.3,0,0,0,.29-.3v-.77a.29.29,0,0,0-.29-.29h-.76a.29.29,0,0,0-.29.29m-.54.77v-.77a.29.29,0,0,0-.3-.29h-.76a.29.29,0,0,0-.29.29v.77a.3.3,0,0,0,.29.3h.76a.3.3,0,0,0,.3-.3m2.57.84h-.76a.29.29,0,0,0-.29.29V114a.29.29,0,0,0,.29.29h.76a.3.3,0,0,0,.3-.29v-.78a.3.3,0,0,0-.3-.29m-2,0h-.76a.29.29,0,0,0-.3.29V114a.29.29,0,0,0,.3.29h.76a.29.29,0,0,0,.29-.29v-.78a.29.29,0,0,0-.29-.29"/><path class="cls-16" d="M138.47,108.84a1.83,1.83,0,0,0,1.19.36s0,0,0,.06v2.09c0,.81-1,1.3-1.21,1.44a0,0,0,0,1,0,0l0-3.92s0,0,0,0"/><path class="cls-16" d="M136.18,108.73c1.61-.06,1.87-.61,1.87-.61a.08.08,0,0,1,.07-.05.08.08,0,0,1,.08,0s.25.6,1.85.6c0,0,.06,0,.06.08v2.75c0,.88-1.66,1.87-1.69,1.89s-.06,0-.06,0v.69s.1,0,.14,0c.62-.34,2.35-1.29,2.35-2.46v-3.51c0-.06-.11-.1-.17-.1-2,0-2.43-.75-2.43-.75s-.08,0-.13,0-.07,0-.08,0-.34.77-2.38.77c-.07,0-.08,0-.08.09v.44s0,.1.06.1l.54,0"/><path class="cls-17" d="M142.37,113.23l.82-.31a1.11,1.11,0,0,0,1.07.61,1.19,1.19,0,0,0,.62-.14.51.51,0,0,0,.27-.44c0-.44-.6-.7-1-.88l0,0a3.85,3.85,0,0,1-1-.52,1.21,1.21,0,0,1-.47-1,1.32,1.32,0,0,1,.48-1,1.91,1.91,0,0,1,1.22-.41A1.76,1.76,0,0,1,146,110l-.85.32a.65.65,0,0,0-.29-.3,1.2,1.2,0,0,0-.47-.11c-.47,0-.79.25-.79.59a.67.67,0,0,0,.32.53,5,5,0,0,0,.73.38l.1,0c.63.26,1.41.6,1.41,1.45a1.22,1.22,0,0,1-.56,1,2.21,2.21,0,0,1-1.33.38,2,2,0,0,1-1.87-1.11"/><path class="cls-17" d="M149.63,114.32a2.64,2.64,0,0,1-1-.2,2.68,2.68,0,0,1-1.38-1.38,2.67,2.67,0,0,1-.2-1,2.71,2.71,0,0,1,.2-1,2.5,2.5,0,0,1,.56-.82,2.28,2.28,0,0,1,.82-.55,2.64,2.64,0,0,1,1-.21,2.52,2.52,0,0,1,1.17.28,2.59,2.59,0,0,1,.89.75l-.69.51a1.71,1.71,0,0,0-.6-.5,1.8,1.8,0,0,0-.79-.19,1.74,1.74,0,0,0-1.23,3,1.66,1.66,0,0,0,1.23.51,1.69,1.69,0,0,0,.88-.24,1.87,1.87,0,0,0,.63-.65l.75.43a2.67,2.67,0,0,1-.94.95,2.36,2.36,0,0,1-1.3.36"/><path class="cls-17" d="M155.29,114.34a2.68,2.68,0,0,1-1-.21,2.28,2.28,0,0,1-.82-.55,3.06,3.06,0,0,1-.56-.82,2.67,2.67,0,0,1-.2-1,2.5,2.5,0,0,1,.2-1,2.77,2.77,0,0,1,.56-.82,2.72,2.72,0,0,1,.82-.56,2.65,2.65,0,0,1,2,0,2.4,2.4,0,0,1,.82.56,2.77,2.77,0,0,1,.56.82,2.65,2.65,0,0,1,0,2,3.06,3.06,0,0,1-.56.82,2.63,2.63,0,0,1-1.83.76m0-4.35a1.7,1.7,0,0,0-1.23.51,1.76,1.76,0,0,0-.51,1.23,1.66,1.66,0,0,0,.51,1.23,1.74,1.74,0,0,0,2.46,0,1.74,1.74,0,0,0,.51-1.23,1.78,1.78,0,0,0-.51-1.23,1.74,1.74,0,0,0-1.23-.51"/><polygon class="cls-17" points="163.76 109.19 163.76 114.45 160.13 111.12 160.13 114.25 159.21 114.25 159.21 109 162.84 112.35 162.84 109.19 163.76 109.19"/><polygon class="cls-17" points="166.24 109.96 166.24 111.31 168.77 111.31 168.77 112.1 166.24 112.1 166.24 113.46 169.08 113.46 169.08 114.25 165.31 114.25 165.31 109.19 169.08 109.19 169.08 109.98 166.24 109.98 166.24 109.96"/></g></g></g><text class="cls-18" transform="translate(134.33 55.15)">/<tspan class="cls-19" x="4.02" y="0">r</tspan><tspan x="8.55" y="0">esult</tspan></text><text class="cls-18" transform="translate(97.25 92.14)"><tspan xml:space="preserve"> /input             /output</tspan></text><line class="cls-13" x1="169.08" y1="65.3" x2="177.51" y2="73.72"/><line class="cls-13" x1="134.59" y1="65.29" x2="126.18" y2="73.73"/></g></svg>