<?xml version="1.0" encoding="utf-8"?>
<!-- Generator: Adobe Illustrator 24.0.0, SVG Export Plug-In . SVG Version: 6.00 Build 0)  -->
<svg version="1.1" id="Ebene_1" xmlns="http://www.w3.org/2000/svg" xmlns:xlink="http://www.w3.org/1999/xlink" x="0px" y="0px"
	 viewBox="0 0 610 150" style="enable-background:new 0 0 610 150;" xml:space="preserve">
<style type="text/css">
	.st0{fill:none;stroke:#CC3300;stroke-width:2;stroke-miterlimit:10;stroke-dasharray:2,2;}
	.st1{enable-background:new    ;}
	.st2{fill:#330066;}
	.st3{fill:none;stroke:#330066;stroke-width:2;stroke-miterlimit:10;}
	.st4{fill:url(#SVGID_1_);}
	.st5{fill:none;stroke:#FFCC00;stroke-width:2;stroke-miterlimit:10;}
	.st6{fill:#FFFFFF;stroke:#FFCC00;stroke-width:2;stroke-linecap:round;stroke-linejoin:round;}
	.st7{fill:none;stroke:#FFCC00;stroke-width:2;stroke-linecap:round;stroke-linejoin:round;}
	.st8{fill:#FFCC00;}
	.st9{clip-path:url(#SVGID_3_);}
	.st10{clip-path:url(#SVGID_5_);}
	.st11{fill:#FFD138;}
	.st12{fill:#FDFEFF;}
</style>
<title>fileprotection</title>
<g id="Ebene_2_1_">
	<path class="st0" d="M399.8,92h120c2.8,0,5,2.2,5,5v17.2c0,2.8-2.2,5-5,5h-120c-2.8,0-5-2.2-5-5V97C394.8,94.3,397.1,92,399.8,92z"
		/>
	<g class="st1">
		<path class="st2" d="M126.4,141.8c-0.9,0-1.6-0.3-2.2-0.9s-0.8-1.3-0.8-2.2v-0.2c0-0.9,0.3-1.7,0.8-2.3s1.2-0.9,2.1-0.9
			c0.9,0,1.5,0.3,2,0.8s0.7,1.2,0.7,2.1v0.9h-3.8l0,0c0,0.4,0.2,0.8,0.4,1s0.6,0.4,1,0.4c0.4,0,0.7,0,0.9-0.1s0.5-0.2,0.8-0.4
			l0.5,1.1c-0.3,0.2-0.6,0.4-1,0.5S126.9,141.8,126.4,141.8z M126.3,136.6c-0.3,0-0.6,0.1-0.8,0.4s-0.3,0.6-0.3,1l0,0h2.1v-0.2
			c0-0.4-0.1-0.7-0.3-0.9S126.6,136.6,126.3,136.6z"/>
	</g>
	<g class="st1">
		<path class="st2" d="M129.7,140.7l0.8-0.2v-3.9l-0.9-0.2v-1h2.5l0.1,0.9c0.2-0.3,0.5-0.6,0.8-0.8s0.7-0.3,1-0.3
			c0.6,0,1.1,0.2,1.5,0.6s0.5,1,0.5,1.9v2.8l0.8,0.2v1h-3.3v-1l0.7-0.2v-2.8c0-0.4-0.1-0.7-0.3-0.9s-0.4-0.3-0.8-0.3
			c-0.2,0-0.4,0-0.6,0.1s-0.3,0.2-0.5,0.4v3.4l0.7,0.2v1h-3.2V140.7z"/>
	</g>
	<g class="st1">
		<path class="st2" d="M140.3,140.5c0.3,0,0.5-0.1,0.7-0.3s0.3-0.4,0.3-0.7h1.5l0,0c0,0.6-0.2,1.2-0.7,1.6s-1.1,0.6-1.9,0.6
			c-0.9,0-1.7-0.3-2.2-0.9s-0.8-1.4-0.8-2.3v-0.2c0-0.9,0.3-1.7,0.8-2.3s1.3-0.9,2.2-0.9c0.5,0,1,0.1,1.4,0.2s0.7,0.4,1,0.6l0,1.7
			h-1.4l-0.3-1c-0.1-0.1-0.2-0.1-0.3-0.2s-0.3-0.1-0.4-0.1c-0.5,0-0.8,0.2-1,0.5s-0.3,0.8-0.3,1.4v0.2c0,0.6,0.1,1,0.3,1.4
			S139.9,140.5,140.3,140.5z"/>
	</g>
	<g class="st1">
		<path class="st2" d="M143.8,140.7l0.8-0.2v-3.9l-0.9-0.2v-1h2.5l0.1,0.9c0.1-0.3,0.3-0.6,0.6-0.8s0.5-0.3,0.8-0.3
			c0.1,0,0.2,0,0.3,0s0.2,0,0.2,0l-0.2,1.6l-0.7,0c-0.3,0-0.5,0-0.6,0.1s-0.3,0.2-0.4,0.4v3.1l0.8,0.2v1h-3.4V140.7z"/>
	</g>
	<g class="st1">
		<path class="st2" d="M155.4,136.4l-0.6,0.1l-2.3,6.2c-0.2,0.5-0.4,0.8-0.7,1.1s-0.8,0.5-1.4,0.5c-0.1,0-0.3,0-0.4,0
			s-0.3-0.1-0.4-0.1l0.2-1.2c0.1,0,0.1,0,0.2,0s0.1,0,0.2,0c0.3,0,0.5-0.1,0.7-0.2s0.3-0.3,0.4-0.5l0.2-0.5l-2-5.2l-0.6-0.1v-1h3.1
			v1l-0.7,0.1l0.9,2.5l0.1,0.5l0,0l1-3l-0.7-0.1v-1h3.1V136.4z"/>
		<path class="st2" d="M155.8,136.4v-1h2.5l0.1,0.7c0.2-0.3,0.4-0.5,0.7-0.6s0.6-0.2,0.9-0.2c0.8,0,1.4,0.3,1.8,0.9s0.7,1.4,0.7,2.4
			v0.1c0,0.9-0.2,1.7-0.7,2.3s-1,0.9-1.8,0.9c-0.3,0-0.6-0.1-0.9-0.2s-0.5-0.3-0.7-0.5v1.8l0.8,0.2v1h-3.4v-1l0.8-0.2v-6.4
			L155.8,136.4z M160.7,138.6c0-0.6-0.1-1.1-0.3-1.5s-0.5-0.6-0.9-0.6c-0.3,0-0.5,0.1-0.7,0.2s-0.3,0.3-0.4,0.5v2.8
			c0.1,0.2,0.2,0.3,0.4,0.4s0.4,0.1,0.7,0.1c0.4,0,0.7-0.2,0.9-0.5s0.3-0.8,0.3-1.3V138.6z"/>
		<path class="st2" d="M165.7,133.8v1.6h1.1v1.2h-1.1v3.2c0,0.2,0.1,0.4,0.2,0.5s0.2,0.2,0.4,0.2c0.1,0,0.2,0,0.3,0s0.2,0,0.3,0
			l0.1,1.2c-0.2,0.1-0.4,0.1-0.6,0.1s-0.4,0-0.6,0c-0.6,0-1-0.2-1.4-0.5s-0.5-0.8-0.5-1.5v-3.2h-0.9v-1.2h0.9v-1.6H165.7z"/>
		<path class="st2" d="M170.7,141.8c-0.9,0-1.6-0.3-2.2-0.9s-0.8-1.3-0.8-2.2v-0.2c0-0.9,0.3-1.7,0.8-2.3s1.2-0.9,2.1-0.9
			c0.9,0,1.5,0.3,2,0.8s0.7,1.2,0.7,2.1v0.9h-3.8l0,0c0,0.4,0.2,0.8,0.4,1s0.6,0.4,1,0.4c0.4,0,0.7,0,0.9-0.1s0.5-0.2,0.8-0.4
			l0.5,1.1c-0.3,0.2-0.6,0.4-1,0.5S171.2,141.8,170.7,141.8z M170.5,136.6c-0.3,0-0.6,0.1-0.8,0.4s-0.3,0.6-0.3,1l0,0h2.1v-0.2
			c0-0.4-0.1-0.7-0.3-0.9S170.9,136.6,170.5,136.6z"/>
		<path class="st2" d="M178.2,140.9c-0.2,0.3-0.4,0.5-0.7,0.7s-0.6,0.2-0.9,0.2c-0.8,0-1.4-0.3-1.8-0.9s-0.6-1.3-0.6-2.3v-0.1
			c0-1,0.2-1.8,0.7-2.4s1-0.9,1.8-0.9c0.3,0,0.6,0.1,0.9,0.2s0.5,0.3,0.7,0.6v-2.3l-0.9-0.2v-1h0.9h1.7v7.9l0.8,0.2v1h-2.3
			L178.2,140.9z M175.8,138.7c0,0.6,0.1,1,0.3,1.3s0.5,0.5,0.9,0.5c0.3,0,0.5-0.1,0.7-0.2s0.3-0.2,0.5-0.4v-2.7
			c-0.1-0.2-0.3-0.4-0.4-0.5s-0.4-0.2-0.6-0.2c-0.4,0-0.7,0.2-0.9,0.6s-0.3,0.9-0.3,1.5V138.7z"/>
	</g>
	<g class="st1">
		<path class="st2" d="M277.1,141.7c0-0.1-0.1-0.2-0.1-0.3s-0.1-0.2-0.1-0.3c-0.2,0.2-0.5,0.4-0.7,0.6s-0.6,0.2-1,0.2
			c-0.6,0-1.1-0.2-1.5-0.5s-0.5-0.8-0.5-1.4c0-0.6,0.2-1.1,0.7-1.4s1.2-0.5,2.1-0.5h0.9v-0.6c0-0.3-0.1-0.5-0.3-0.7
			s-0.4-0.3-0.8-0.3c-0.2,0-0.4,0-0.5,0.1s-0.3,0.1-0.4,0.2l-0.1,0.7h-1.3l0-1.4c0.3-0.2,0.7-0.4,1.1-0.5s0.8-0.2,1.3-0.2
			c0.8,0,1.4,0.2,1.9,0.6s0.7,0.9,0.7,1.6v2.6c0,0.1,0,0.2,0,0.3s0,0.2,0,0.2l0.5,0.1v1H277.1z M275.6,140.6c0.3,0,0.5-0.1,0.7-0.2
			s0.4-0.3,0.5-0.4v-1h-0.9c-0.4,0-0.6,0.1-0.8,0.3s-0.3,0.4-0.3,0.6c0,0.2,0.1,0.4,0.2,0.5S275.4,140.6,275.6,140.6z"/>
	</g>
	<g class="st1">
		<path class="st2" d="M283.9,140.9c-0.2,0.3-0.5,0.5-0.8,0.7s-0.6,0.2-1,0.2c-0.7,0-1.2-0.2-1.6-0.6s-0.6-1.1-0.6-2v-2.6l-0.7-0.2
			v-1h0.7h1.7v3.8c0,0.5,0.1,0.8,0.2,1s0.4,0.3,0.7,0.3c0.3,0,0.5,0,0.7-0.1s0.4-0.2,0.5-0.4v-3.4l-0.8-0.2v-1h0.8h1.7v5.1l0.8,0.2
			v1H284L283.9,140.9z"/>
		<path class="st2" d="M289.5,133.8v1.6h1.1v1.2h-1.1v3.2c0,0.2,0.1,0.4,0.2,0.5s0.2,0.2,0.4,0.2c0.1,0,0.2,0,0.3,0s0.2,0,0.3,0
			l0.1,1.2c-0.2,0.1-0.4,0.1-0.6,0.1s-0.4,0-0.6,0c-0.6,0-1-0.2-1.4-0.5s-0.5-0.8-0.5-1.5v-3.2h-0.9v-1.2h0.9v-1.6H289.5z"/>
	</g>
	<g class="st1">
		<path class="st2" d="M291.3,140.7l0.8-0.2v-6.7l-0.9-0.2v-1h2.6v3.6c0.2-0.3,0.4-0.5,0.7-0.7s0.6-0.2,1-0.2c0.7,0,1.2,0.2,1.6,0.7
			s0.6,1.1,0.6,2v2.6l0.8,0.2v1h-3.3v-1l0.7-0.2v-2.6c0-0.5-0.1-0.8-0.3-1s-0.4-0.3-0.8-0.3c-0.2,0-0.4,0-0.6,0.1s-0.3,0.2-0.4,0.4
			v3.4l0.7,0.2v1h-3.3V140.7z"/>
	</g>
	<g class="st1">
		<path class="st2" d="M302,141.8c-0.9,0-1.6-0.3-2.2-0.9s-0.8-1.3-0.8-2.2v-0.2c0-0.9,0.3-1.7,0.8-2.3s1.2-0.9,2.1-0.9
			c0.9,0,1.5,0.3,2,0.8s0.7,1.2,0.7,2.1v0.9h-3.8l0,0c0,0.4,0.2,0.8,0.4,1s0.6,0.4,1,0.4c0.4,0,0.7,0,0.9-0.1s0.5-0.2,0.8-0.4
			l0.5,1.1c-0.3,0.2-0.6,0.4-1,0.5S302.5,141.8,302,141.8z M301.9,136.6c-0.3,0-0.6,0.1-0.8,0.4s-0.3,0.6-0.3,1l0,0h2.1v-0.2
			c0-0.4-0.1-0.7-0.3-0.9S302.2,136.6,301.9,136.6z"/>
		<path class="st2" d="M305.3,140.7l0.8-0.2v-3.9l-0.9-0.2v-1h2.5l0.1,0.9c0.2-0.3,0.5-0.6,0.8-0.8s0.7-0.3,1-0.3
			c0.6,0,1.1,0.2,1.5,0.6s0.5,1,0.5,1.9v2.8l0.8,0.2v1h-3.3v-1l0.7-0.2v-2.8c0-0.4-0.1-0.7-0.3-0.9s-0.4-0.3-0.8-0.3
			c-0.2,0-0.4,0-0.6,0.1s-0.3,0.2-0.5,0.4v3.4l0.7,0.2v1h-3.2V140.7z"/>
		<path class="st2" d="M315.5,133.8v1.6h1.1v1.2h-1.1v3.2c0,0.2,0.1,0.4,0.2,0.5s0.2,0.2,0.4,0.2c0.1,0,0.2,0,0.3,0s0.2,0,0.3,0
			l0.1,1.2c-0.2,0.1-0.4,0.1-0.6,0.1s-0.4,0-0.6,0c-0.6,0-1-0.2-1.4-0.5s-0.5-0.8-0.5-1.5v-3.2h-0.9v-1.2h0.9v-1.6H315.5z"/>
		<path class="st2" d="M317.4,140.7l0.8-0.2v-3.9l-0.9-0.2v-1h2.6v5.1l0.8,0.2v1h-3.4V140.7z M320,133.9h-1.7v-1.3h1.7V133.9z"/>
		<path class="st2" d="M324.3,140.5c0.3,0,0.5-0.1,0.7-0.3s0.3-0.4,0.3-0.7h1.5l0,0c0,0.6-0.2,1.2-0.7,1.6s-1.1,0.6-1.9,0.6
			c-0.9,0-1.7-0.3-2.2-0.9s-0.8-1.4-0.8-2.3v-0.2c0-0.9,0.3-1.7,0.8-2.3s1.3-0.9,2.2-0.9c0.5,0,1,0.1,1.4,0.2s0.7,0.4,1,0.6l0,1.7
			h-1.4l-0.3-1c-0.1-0.1-0.2-0.1-0.3-0.2s-0.3-0.1-0.4-0.1c-0.5,0-0.8,0.2-1,0.5s-0.3,0.8-0.3,1.4v0.2c0,0.6,0.1,1,0.3,1.4
			S323.9,140.5,324.3,140.5z"/>
	</g>
	<g class="st1">
		<path class="st2" d="M331.7,141.7c0-0.1-0.1-0.2-0.1-0.3s-0.1-0.2-0.1-0.3c-0.2,0.2-0.5,0.4-0.7,0.6s-0.6,0.2-1,0.2
			c-0.6,0-1.1-0.2-1.5-0.5s-0.5-0.8-0.5-1.4c0-0.6,0.2-1.1,0.7-1.4s1.2-0.5,2.1-0.5h0.9v-0.6c0-0.3-0.1-0.5-0.3-0.7
			s-0.4-0.3-0.8-0.3c-0.2,0-0.4,0-0.5,0.1s-0.3,0.1-0.4,0.2l-0.1,0.7h-1.3l0-1.4c0.3-0.2,0.7-0.4,1.1-0.5s0.8-0.2,1.3-0.2
			c0.8,0,1.4,0.2,1.9,0.6s0.7,0.9,0.7,1.6v2.6c0,0.1,0,0.2,0,0.3s0,0.2,0,0.2l0.5,0.1v1H331.7z M330.2,140.6c0.3,0,0.5-0.1,0.7-0.2
			s0.4-0.3,0.5-0.4v-1h-0.9c-0.4,0-0.6,0.1-0.8,0.3s-0.3,0.4-0.3,0.6c0,0.2,0.1,0.4,0.2,0.5S330,140.6,330.2,140.6z"/>
	</g>
	<g class="st1">
		<path class="st2" d="M336.3,133.8v1.6h1.1v1.2h-1.1v3.2c0,0.2,0.1,0.4,0.2,0.5s0.2,0.2,0.4,0.2c0.1,0,0.2,0,0.3,0s0.2,0,0.3,0
			l0.1,1.2c-0.2,0.1-0.4,0.1-0.6,0.1s-0.4,0-0.6,0c-0.6,0-1-0.2-1.4-0.5s-0.5-0.8-0.5-1.5v-3.2h-0.9v-1.2h0.9v-1.6H336.3z"/>
		<path class="st2" d="M341.3,141.8c-0.9,0-1.6-0.3-2.2-0.9s-0.8-1.3-0.8-2.2v-0.2c0-0.9,0.3-1.7,0.8-2.3s1.2-0.9,2.1-0.9
			c0.9,0,1.5,0.3,2,0.8s0.7,1.2,0.7,2.1v0.9h-3.8l0,0c0,0.4,0.2,0.8,0.4,1s0.6,0.4,1,0.4c0.4,0,0.7,0,0.9-0.1s0.5-0.2,0.8-0.4
			l0.5,1.1c-0.3,0.2-0.6,0.4-1,0.5S341.8,141.8,341.3,141.8z M341.1,136.6c-0.3,0-0.6,0.1-0.8,0.4s-0.3,0.6-0.3,1l0,0h2.1v-0.2
			c0-0.4-0.1-0.7-0.3-0.9S341.5,136.6,341.1,136.6z"/>
		<path class="st2" d="M348.8,140.9c-0.2,0.3-0.4,0.5-0.7,0.7s-0.6,0.2-0.9,0.2c-0.8,0-1.4-0.3-1.8-0.9s-0.6-1.3-0.6-2.3v-0.1
			c0-1,0.2-1.8,0.7-2.4s1-0.9,1.8-0.9c0.3,0,0.6,0.1,0.9,0.2s0.5,0.3,0.7,0.6v-2.3l-0.9-0.2v-1h0.9h1.7v7.9l0.8,0.2v1h-2.3
			L348.8,140.9z M346.4,138.7c0,0.6,0.1,1,0.3,1.3s0.5,0.5,0.9,0.5c0.3,0,0.5-0.1,0.7-0.2s0.3-0.2,0.5-0.4v-2.7
			c-0.1-0.2-0.3-0.4-0.4-0.5s-0.4-0.2-0.6-0.2c-0.4,0-0.7,0.2-0.9,0.6s-0.3,0.9-0.3,1.5V138.7z"/>
	</g>
	<g class="st1">
		<path class="st2" d="M430,140.9c-0.2,0.3-0.5,0.5-0.8,0.7s-0.6,0.2-1,0.2c-0.7,0-1.2-0.2-1.6-0.6s-0.6-1.1-0.6-2v-2.6l-0.7-0.2v-1
			h0.7h1.7v3.8c0,0.5,0.1,0.8,0.2,1s0.4,0.3,0.7,0.3c0.3,0,0.5,0,0.7-0.1s0.4-0.2,0.5-0.4v-3.4l-0.8-0.2v-1h0.8h1.7v5.1l0.8,0.2v1
			h-2.3L430,140.9z"/>
		<path class="st2" d="M433,140.7l0.8-0.2v-3.9l-0.9-0.2v-1h2.5l0.1,0.9c0.2-0.3,0.5-0.6,0.8-0.8s0.7-0.3,1-0.3
			c0.6,0,1.1,0.2,1.5,0.6s0.5,1,0.5,1.9v2.8l0.8,0.2v1h-3.3v-1l0.7-0.2v-2.8c0-0.4-0.1-0.7-0.3-0.9s-0.4-0.3-0.8-0.3
			c-0.2,0-0.4,0-0.6,0.1s-0.3,0.2-0.5,0.4v3.4l0.7,0.2v1H433V140.7z"/>
		<path class="st2" d="M440.6,136.4v-1h2.5l0.1,0.7c0.2-0.3,0.4-0.5,0.7-0.6s0.6-0.2,0.9-0.2c0.8,0,1.4,0.3,1.8,0.9s0.7,1.4,0.7,2.4
			v0.1c0,0.9-0.2,1.7-0.7,2.3s-1,0.9-1.8,0.9c-0.3,0-0.6-0.1-0.9-0.2s-0.5-0.3-0.7-0.5v1.8l0.8,0.2v1h-3.4v-1l0.8-0.2v-6.4
			L440.6,136.4z M445.5,138.6c0-0.6-0.1-1.1-0.3-1.5s-0.5-0.6-0.9-0.6c-0.3,0-0.5,0.1-0.7,0.2s-0.3,0.3-0.4,0.5v2.8
			c0.1,0.2,0.2,0.3,0.4,0.4s0.4,0.1,0.7,0.1c0.4,0,0.7-0.2,0.9-0.5s0.3-0.8,0.3-1.3V138.6z"/>
	</g>
	<g class="st1">
		<path class="st2" d="M448.1,140.7l0.8-0.2v-3.9l-0.9-0.2v-1h2.5l0.1,0.9c0.1-0.3,0.3-0.6,0.6-0.8s0.5-0.3,0.8-0.3
			c0.1,0,0.2,0,0.3,0s0.2,0,0.2,0l-0.2,1.6l-0.7,0c-0.3,0-0.5,0-0.6,0.1s-0.3,0.2-0.4,0.4v3.1l0.8,0.2v1h-3.4V140.7z"/>
	</g>
	<g class="st1">
		<path class="st2" d="M452.9,138.5c0-0.9,0.3-1.7,0.8-2.3s1.3-0.9,2.2-0.9c0.9,0,1.7,0.3,2.2,0.9s0.8,1.4,0.8,2.3v0.1
			c0,1-0.3,1.7-0.8,2.3s-1.3,0.9-2.2,0.9c-0.9,0-1.7-0.3-2.2-0.9s-0.8-1.4-0.8-2.3V138.5z M454.6,138.6c0,0.6,0.1,1,0.3,1.4
			s0.5,0.5,1,0.5c0.4,0,0.8-0.2,1-0.5s0.3-0.8,0.3-1.4v-0.1c0-0.6-0.1-1-0.3-1.4s-0.5-0.5-1-0.5s-0.8,0.2-1,0.5s-0.3,0.8-0.3,1.4
			V138.6z"/>
		<path class="st2" d="M462.2,133.8v1.6h1.1v1.2h-1.1v3.2c0,0.2,0.1,0.4,0.2,0.5s0.2,0.2,0.4,0.2c0.1,0,0.2,0,0.3,0s0.2,0,0.3,0
			l0.1,1.2c-0.2,0.1-0.4,0.1-0.6,0.1s-0.4,0-0.6,0c-0.6,0-1-0.2-1.4-0.5s-0.5-0.8-0.5-1.5v-3.2h-0.9v-1.2h0.9v-1.6H462.2z"/>
		<path class="st2" d="M467.1,141.8c-0.9,0-1.6-0.3-2.2-0.9s-0.8-1.3-0.8-2.2v-0.2c0-0.9,0.3-1.7,0.8-2.3s1.2-0.9,2.1-0.9
			c0.9,0,1.5,0.3,2,0.8s0.7,1.2,0.7,2.1v0.9h-3.8l0,0c0,0.4,0.2,0.8,0.4,1s0.6,0.4,1,0.4c0.4,0,0.7,0,0.9-0.1s0.5-0.2,0.8-0.4
			l0.5,1.1c-0.3,0.2-0.6,0.4-1,0.5S467.6,141.8,467.1,141.8z M467,136.6c-0.3,0-0.6,0.1-0.8,0.4s-0.3,0.6-0.3,1l0,0h2.1v-0.2
			c0-0.4-0.1-0.7-0.3-0.9S467.3,136.6,467,136.6z"/>
		<path class="st2" d="M473.5,140.5c0.3,0,0.5-0.1,0.7-0.3s0.3-0.4,0.3-0.7h1.5l0,0c0,0.6-0.2,1.2-0.7,1.6s-1.1,0.6-1.9,0.6
			c-0.9,0-1.7-0.3-2.2-0.9s-0.8-1.4-0.8-2.3v-0.2c0-0.9,0.3-1.7,0.8-2.3s1.3-0.9,2.2-0.9c0.5,0,1,0.1,1.4,0.2s0.7,0.4,1,0.6l0,1.7
			h-1.4l-0.3-1c-0.1-0.1-0.2-0.1-0.3-0.2s-0.3-0.1-0.4-0.1c-0.5,0-0.8,0.2-1,0.5s-0.3,0.8-0.3,1.4v0.2c0,0.6,0.1,1,0.3,1.4
			S473,140.5,473.5,140.5z"/>
		<path class="st2" d="M479.3,133.8v1.6h1.1v1.2h-1.1v3.2c0,0.2,0.1,0.4,0.2,0.5s0.2,0.2,0.4,0.2c0.1,0,0.2,0,0.3,0s0.2,0,0.3,0
			l0.1,1.2c-0.2,0.1-0.4,0.1-0.6,0.1s-0.4,0-0.6,0c-0.6,0-1-0.2-1.4-0.5s-0.5-0.8-0.5-1.5v-3.2h-0.9v-1.2h0.9v-1.6H479.3z"/>
		<path class="st2" d="M484.3,141.8c-0.9,0-1.6-0.3-2.2-0.9s-0.8-1.3-0.8-2.2v-0.2c0-0.9,0.3-1.7,0.8-2.3s1.2-0.9,2.1-0.9
			c0.9,0,1.5,0.3,2,0.8s0.7,1.2,0.7,2.1v0.9h-3.8l0,0c0,0.4,0.2,0.8,0.4,1s0.6,0.4,1,0.4c0.4,0,0.7,0,0.9-0.1s0.5-0.2,0.8-0.4
			l0.5,1.1c-0.3,0.2-0.6,0.4-1,0.5S484.8,141.8,484.3,141.8z M484.2,136.6c-0.3,0-0.6,0.1-0.8,0.4s-0.3,0.6-0.3,1l0,0h2.1v-0.2
			c0-0.4-0.1-0.7-0.3-0.9S484.5,136.6,484.2,136.6z"/>
		<path class="st2" d="M491.8,140.9c-0.2,0.3-0.4,0.5-0.7,0.7s-0.6,0.2-0.9,0.2c-0.8,0-1.4-0.3-1.8-0.9s-0.6-1.3-0.6-2.3v-0.1
			c0-1,0.2-1.8,0.7-2.4s1-0.9,1.8-0.9c0.3,0,0.6,0.1,0.9,0.2s0.5,0.3,0.7,0.6v-2.3l-0.9-0.2v-1h0.9h1.7v7.9l0.8,0.2v1h-2.3
			L491.8,140.9z M489.4,138.7c0,0.6,0.1,1,0.3,1.3s0.5,0.5,0.9,0.5c0.3,0,0.5-0.1,0.7-0.2s0.3-0.2,0.5-0.4v-2.7
			c-0.1-0.2-0.3-0.4-0.4-0.5s-0.4-0.2-0.6-0.2c-0.4,0-0.7,0.2-0.9,0.6s-0.3,0.9-0.3,1.5V138.7z"/>
	</g>
	<g class="st1">
		<path class="st2" d="M449.6,111h-1.3l3.1-9.3h1.3L449.6,111z"/>
		<path class="st2" d="M459.3,107.3c0,0.9-0.2,1.7-0.6,2.3s-1,0.8-1.8,0.8c-0.4,0-0.7-0.1-1-0.2s-0.5-0.4-0.7-0.7l-0.1,0.8h-1.5
			v-7.9l-0.9-0.2v-1h2.6v3.5c0.2-0.3,0.4-0.4,0.7-0.6s0.5-0.2,0.9-0.2c0.8,0,1.4,0.3,1.8,0.9s0.6,1.4,0.6,2.4V107.3z M457.6,107.2
			c0-0.6-0.1-1.1-0.3-1.5s-0.5-0.5-0.9-0.5c-0.3,0-0.5,0.1-0.7,0.2s-0.3,0.3-0.4,0.5v2.7c0.1,0.2,0.3,0.3,0.4,0.4s0.4,0.2,0.7,0.2
			c0.4,0,0.8-0.2,0.9-0.5s0.3-0.8,0.3-1.3V107.2z"/>
		<path class="st2" d="M460,109.3l0.8-0.2v-3.9L460,105v-1h2.6v5.1l0.8,0.2v1H460V109.3z M462.6,102.5h-1.7v-1.3h1.7V102.5z"/>
		<path class="st2" d="M463.9,109.3l0.8-0.2v-3.9l-0.9-0.2v-1h2.5l0.1,0.9c0.2-0.3,0.5-0.6,0.8-0.8s0.7-0.3,1-0.3
			c0.6,0,1.1,0.2,1.5,0.6s0.5,1,0.5,1.9v2.8l0.8,0.2v1h-3.3v-1l0.7-0.2v-2.8c0-0.4-0.1-0.7-0.3-0.9s-0.4-0.3-0.8-0.3
			c-0.2,0-0.4,0-0.6,0.1s-0.3,0.2-0.5,0.4v3.4l0.7,0.2v1h-3.2V109.3z"/>
	</g>
	<path class="st3" d="M251.2,92h120c2.8,0,5,2.2,5,5v17.2c0,2.8-2.2,5-5,5h-120c-2.8,0-5-2.2-5-5V97C246.2,94.3,248.5,92,251.2,92z"
		/>
	<g class="st1">
		<path class="st2" d="M301.6,111h-1.3l3.1-9.3h1.3L301.6,111z"/>
		<path class="st2" d="M308.2,110.4c-0.9,0-1.6-0.3-2.2-0.9c-0.5-0.6-0.8-1.3-0.8-2.2v-0.2c0-0.9,0.3-1.7,0.8-2.3
			c0.5-0.6,1.2-0.9,2.1-0.9c0.9,0,1.5,0.3,2,0.8s0.7,1.2,0.7,2.1v0.9H307l0,0c0,0.4,0.2,0.8,0.4,1s0.6,0.4,1,0.4
			c0.4,0,0.7,0,0.9-0.1s0.5-0.2,0.8-0.4l0.5,1.1c-0.3,0.2-0.6,0.4-1,0.5S308.7,110.4,308.2,110.4z M308.1,105.2
			c-0.3,0-0.6,0.1-0.8,0.4s-0.3,0.6-0.3,1l0,0h2.1v-0.2c0-0.4-0.1-0.7-0.3-0.9S308.4,105.2,308.1,105.2z"/>
		<path class="st2" d="M314.1,102.4v1.6h1.1v1.2h-1.1v3.2c0,0.2,0.1,0.4,0.2,0.5s0.2,0.2,0.4,0.2c0.1,0,0.2,0,0.3,0s0.2,0,0.3,0
			l0.1,1.2c-0.2,0.1-0.4,0.1-0.6,0.1s-0.4,0-0.6,0c-0.6,0-1-0.2-1.4-0.5s-0.5-0.8-0.5-1.5v-3.2h-0.9V104h0.9v-1.6H314.1z"/>
		<path class="st2" d="M319,109.1c0.3,0,0.5-0.1,0.7-0.3s0.3-0.4,0.3-0.7h1.5l0,0c0,0.6-0.2,1.2-0.7,1.6s-1.1,0.6-1.9,0.6
			c-0.9,0-1.7-0.3-2.2-0.9s-0.8-1.4-0.8-2.3v-0.2c0-0.9,0.3-1.7,0.8-2.3s1.3-0.9,2.2-0.9c0.5,0,1,0.1,1.4,0.2s0.7,0.4,1,0.6l0,1.7
			h-1.4l-0.3-1c-0.1-0.1-0.2-0.1-0.3-0.2s-0.3-0.1-0.4-0.1c-0.5,0-0.8,0.2-1,0.5s-0.3,0.8-0.3,1.4v0.2c0,0.6,0.1,1,0.3,1.4
			S318.6,109.1,319,109.1z"/>
	</g>
	
		<linearGradient id="SVGID_1_" gradientUnits="userSpaceOnUse" x1="75.18" y1="80.615" x2="228.64" y2="80.615" gradientTransform="matrix(1 0 0 -1 0 152)">
		<stop  offset="0" style="stop-color:#990066"/>
		<stop  offset="0.19" style="stop-color:#780066"/>
		<stop  offset="0.4" style="stop-color:#5A0066"/>
		<stop  offset="0.61" style="stop-color:#440066"/>
		<stop  offset="0.81" style="stop-color:#370066"/>
		<stop  offset="1" style="stop-color:#330066"/>
	</linearGradient>
	<path class="st4" d="M80.2,21.3h143.5c2.8,0,5,2.2,5,5v90.1c0,2.8-2.2,5-5,5H80.2c-2.8,0-5-2.2-5-5V26.3
		C75.2,23.6,77.4,21.3,80.2,21.3z"/>
	<path class="st5" d="M80.2,21.3h143.5c2.8,0,5,2.2,5,5v90.1c0,2.8-2.2,5-5,5H80.2c-2.8,0-5-2.2-5-5V26.3
		C75.2,23.6,77.4,21.3,80.2,21.3z"/>
	<path class="st5" d="M91.6,37.2h120c2.8,0,5,2.2,5,5v17c0,2.8-2.2,5-5,5h-120c-2.8,0-5-2.2-5-5v-17C86.6,39.5,88.8,37.2,91.6,37.2z
		"/>
	<path class="st5" d="M160.8,74.8h50.8c2.8,0,5,2.2,5,5v17c0,2.8-2.2,5-5,5h-50.8c-2.8,0-5-2.2-5-5v-17
		C155.8,77,158.1,74.8,160.8,74.8z"/>
	<path class="st5" d="M91.6,74.8h50.8c2.8,0,5,2.2,5,5v17c0,2.8-2.2,5-5,5H91.6c-2.8,0-5-2.2-5-5v-17C86.6,77,88.8,74.8,91.6,74.8z"
		/>
	<path class="st6" d="M142.6,9.6c4.6-4.5,12.1-4.5,16.6,0.2s4.5,12.1-0.2,16.6c-4.6,4.5-12.1,4.5-16.6-0.2c-2.1-2.2-3.4-5.1-3.4-8.2
		c0-2.6,0.8-5.1,2.4-7.1"/>
	<path class="st7" d="M150.9,23.6h-4.3c-0.6,0-0.8-0.2-0.8-0.8v-6.5c0-0.6,0.2-0.8,0.8-0.8h8.5c0.5,0,0.8,0.2,0.8,0.8v6.5
		c0,0.5-0.2,0.8-0.8,0.8C153.6,23.6,152.2,23.6,150.9,23.6z"/>
	<path class="st7" d="M146.5,14.9c0-1.8,1-3.4,2.6-4.1c2.1-0.9,4.6,0,5.5,2.1c0.1,0.2,0.2,0.5,0.2,0.7c0.1,0.4,0.1,0.8,0.2,1.2"/>
	<path class="st8" d="M150.1,20.8L150.1,20.8v0.9c0,0.2,0.1,0.2,0.3,0.2h0.8c0.2,0,0.3-0.1,0.3-0.3V20c0-0.2,0.1-0.3,0.2-0.4
		c0.5-0.3,0.8-0.9,0.6-1.5c-0.2-0.6-0.8-1-1.4-1c-0.7-0.1-1.3,0.3-1.6,0.9c-0.2,0.6,0,1.2,0.6,1.5c0.2,0.1,0.3,0.3,0.3,0.5
		C150.1,20.3,150.1,20.5,150.1,20.8z"/>
	<g id="Scone_logo_white">
		<g>
			<defs>
				<rect id="SVGID_2_" x="132.7" y="107.3" width="36.3" height="7.1"/>
			</defs>
			<clipPath id="SVGID_3_">
				<use xlink:href="#SVGID_2_"  style="overflow:visible;"/>
			</clipPath>
			<g class="st9">
				<g>
					<defs>
						<rect id="SVGID_4_" x="132.7" y="107.3" width="36.3" height="7.1"/>
					</defs>
					<clipPath id="SVGID_5_">
						<use xlink:href="#SVGID_4_"  style="overflow:visible;"/>
					</clipPath>
					<g class="st10">
						<path class="st11" d="M137.6,109.1h-0.8c-0.2,0-0.3,0.1-0.3,0.3c0,0,0,0,0,0v0.8c0,0.2,0.1,0.3,0.3,0.3h0.8
							c0.2,0,0.3-0.1,0.3-0.3v-0.8C137.9,109.3,137.7,109.1,137.6,109.1L137.6,109.1 M134.9,110.5h0.8c0.2,0,0.3-0.1,0.3-0.3
							c0,0,0,0,0,0v-0.8c0-0.2-0.1-0.3-0.3-0.3c0,0,0,0,0,0h-0.8c-0.2,0-0.3,0.1-0.3,0.3c0,0,0,0,0,0v0.8
							C134.6,110.4,134.7,110.5,134.9,110.5 M134.1,110.2v-0.8c0-0.2-0.1-0.3-0.3-0.3c0,0,0,0,0,0H133c-0.2,0-0.3,0.1-0.3,0.3
							c0,0,0,0,0,0v0.8c0,0.2,0.1,0.3,0.3,0.3h0.8C133.9,110.5,134,110.4,134.1,110.2 M137.6,111c-0.1,0-0.2,0.1-0.2,0.2v0.9
							c0,0.1,0.1,0.2,0.2,0.2s0.2-0.1,0.2-0.2v-0.9C137.8,111.1,137.7,111,137.6,111 M135.5,111.3v0.8c0,0.2,0.1,0.3,0.3,0.3h0.8
							c0.2,0,0.3-0.1,0.3-0.3v-0.8c0-0.2-0.1-0.3-0.3-0.3h-0.8C135.6,111,135.5,111.2,135.5,111.3 M134.9,112.1v-0.8
							c0-0.2-0.1-0.3-0.3-0.3c0,0,0,0,0,0h-0.8c-0.2,0-0.3,0.1-0.3,0.3v0.8c0,0.2,0.1,0.3,0.3,0.3h0.8
							C134.8,112.4,134.9,112.3,134.9,112.1L134.9,112.1 M137.5,112.9h-0.8c-0.2,0-0.3,0.1-0.3,0.3v0.8c0,0.2,0.1,0.3,0.3,0.3h0.8
							c0.2,0,0.3-0.1,0.3-0.3v-0.8C137.8,113.1,137.7,112.9,137.5,112.9 M135.5,112.9h-0.8c-0.2,0-0.3,0.1-0.3,0.3c0,0,0,0,0,0v0.8
							c0,0.2,0.1,0.3,0.3,0.3c0,0,0,0,0,0h0.8c0.2,0,0.3-0.1,0.3-0.3v-0.8C135.8,113.1,135.7,112.9,135.5,112.9"/>
						<path class="st11" d="M138.5,108.8c0.3,0.3,0.8,0.4,1.2,0.4c0,0,0,0,0,0.1v2.1c0,0.8-1,1.3-1.2,1.4l0,0L138.5,108.8
							L138.5,108.8"/>
						<path class="st11" d="M136.2,108.7c1.6-0.1,1.9-0.6,1.9-0.6c0,0,0,0,0.1-0.1c0,0,0.1,0,0.1,0c0,0,0.3,0.6,1.9,0.6
							c0,0,0.1,0,0.1,0.1v2.8c0,0.9-1.7,1.9-1.7,1.9s-0.1,0-0.1,0v0.7c0,0,0.1,0,0.1,0c0.6-0.3,2.4-1.3,2.4-2.5v-3.5
							c0-0.1-0.1-0.1-0.2-0.1c-2,0-2.4-0.8-2.4-0.8s-0.1,0-0.1,0s-0.1,0-0.1,0s-0.3,0.8-2.4,0.8c-0.1,0-0.1,0-0.1,0.1v0.4
							c0,0,0,0.1,0.1,0.1L136.2,108.7"/>
						<path class="st12" d="M142.4,113.2l0.8-0.3c0.2,0.4,0.6,0.6,1.1,0.6c0.2,0,0.4,0,0.6-0.1c0.2-0.1,0.3-0.3,0.3-0.4
							c0-0.4-0.6-0.7-1-0.9l0,0c-0.4-0.1-0.7-0.3-1-0.5c-0.3-0.2-0.5-0.6-0.5-1c0-0.4,0.2-0.8,0.5-1c0.3-0.3,0.8-0.4,1.2-0.4
							c0.7,0,1.3,0.3,1.6,0.9l-0.9,0.3c-0.1-0.1-0.2-0.2-0.3-0.3c-0.1-0.1-0.3-0.1-0.5-0.1c-0.5,0-0.8,0.3-0.8,0.6
							c0,0.2,0.1,0.4,0.3,0.5c0.2,0.1,0.5,0.3,0.7,0.4h0.1c0.6,0.3,1.4,0.6,1.4,1.4c0,0.4-0.2,0.8-0.6,1c-0.4,0.3-0.9,0.4-1.3,0.4
							c-0.8,0-1.5-0.4-1.9-1.1"/>
						<path class="st12" d="M149.6,114.3c-0.3,0-0.7-0.1-1-0.2c-0.6-0.3-1.1-0.8-1.4-1.4c-0.1-0.3-0.2-0.7-0.2-1
							c0-0.3,0.1-0.7,0.2-1c0.1-0.3,0.3-0.6,0.6-0.8c0.2-0.2,0.5-0.4,0.8-0.6c0.3-0.1,0.7-0.2,1-0.2c0.4,0,0.8,0.1,1.2,0.3
							c0.3,0.2,0.7,0.4,0.9,0.8l-0.7,0.5c-0.2-0.2-0.4-0.4-0.6-0.5c-0.2-0.1-0.5-0.2-0.8-0.2c-1,0-1.8,0.7-1.8,1.7
							c0,0.5,0.2,1,0.5,1.3c0.3,0.3,0.8,0.5,1.2,0.5c0.3,0,0.6-0.1,0.9-0.2c0.3-0.2,0.5-0.4,0.6-0.7l0.8,0.4
							c-0.2,0.4-0.6,0.7-0.9,0.9C150.5,114.3,150.1,114.4,149.6,114.3"/>
						<path class="st12" d="M155.3,114.3c-0.3,0-0.7-0.1-1-0.2c-0.3-0.1-0.6-0.3-0.8-0.6c-0.2-0.2-0.4-0.5-0.6-0.8
							c-0.1-0.3-0.2-0.7-0.2-1c0-0.3,0.1-0.7,0.2-1c0.1-0.3,0.3-0.6,0.6-0.8c0.2-0.2,0.5-0.4,0.8-0.6c0.6-0.3,1.4-0.3,2,0
							c0.3,0.1,0.6,0.3,0.8,0.6c0.2,0.2,0.4,0.5,0.6,0.8c0.3,0.6,0.3,1.4,0,2c-0.1,0.3-0.3,0.6-0.6,0.8
							C156.6,114.1,156,114.3,155.3,114.3 M155.3,110c-0.5,0-0.9,0.2-1.2,0.5c-0.3,0.3-0.5,0.8-0.5,1.2c0,0.5,0.2,0.9,0.5,1.2
							c0.7,0.7,1.8,0.7,2.5,0c0.3-0.3,0.5-0.8,0.5-1.2c0-0.5-0.2-0.9-0.5-1.2C156.2,110.2,155.7,110,155.3,110"/>
						<polygon class="st12" points="163.8,109.2 163.8,114.4 160.1,111.1 160.1,114.3 159.2,114.3 159.2,109 162.8,112.3 
							162.8,109.2 						"/>
						<polygon class="st12" points="166.2,110 166.2,111.3 168.8,111.3 168.8,112.1 166.2,112.1 166.2,113.5 169.1,113.5 
							169.1,114.3 165.3,114.3 165.3,109.2 169.1,109.2 169.1,110 166.2,110 						"/>
					</g>
				</g>
			</g>
		</g>
	</g>
	<g class="st1">
		<path class="st8" d="M135.4,55.8h-1.2l2.9-8.5h1.2L135.4,55.8z"/>
	</g>
	<g class="st1">
		<path class="st8" d="M138.8,54.2l0.8-0.2v-3.6l-0.8-0.2v-0.9h2.3l0.1,0.8c0.1-0.3,0.3-0.5,0.5-0.7c0.2-0.2,0.5-0.3,0.7-0.3
			c0.1,0,0.2,0,0.3,0c0.1,0,0.2,0,0.2,0l-0.2,1.4l-0.6,0c-0.2,0-0.4,0-0.6,0.1s-0.3,0.2-0.3,0.4V54l0.8,0.2v0.9h-3.1V54.2z"/>
	</g>
	<g class="st1">
		<path class="st8" d="M146,55.3c-0.8,0-1.5-0.3-2-0.8s-0.8-1.2-0.8-2v-0.2c0-0.9,0.2-1.6,0.7-2.1c0.5-0.6,1.1-0.8,1.9-0.8
			c0.8,0,1.4,0.2,1.8,0.7s0.6,1.1,0.6,1.9v0.9h-3.5l0,0c0,0.4,0.2,0.7,0.4,0.9c0.2,0.2,0.5,0.4,0.9,0.4c0.3,0,0.6,0,0.9-0.1
			c0.2-0.1,0.5-0.2,0.8-0.3l0.4,1c-0.2,0.2-0.6,0.3-0.9,0.5C146.9,55.2,146.5,55.3,146,55.3z M145.9,50.4c-0.3,0-0.5,0.1-0.7,0.3
			c-0.2,0.2-0.3,0.5-0.3,0.9l0,0h1.9v-0.1c0-0.3-0.1-0.6-0.2-0.8C146.4,50.5,146.2,50.4,145.9,50.4z"/>
		<path class="st8" d="M153.8,51.3h-1.1l-0.2-0.7c-0.1-0.1-0.2-0.2-0.4-0.2c-0.2-0.1-0.3-0.1-0.5-0.1c-0.3,0-0.5,0.1-0.7,0.2
			c-0.2,0.1-0.2,0.3-0.2,0.5c0,0.2,0.1,0.3,0.2,0.4s0.5,0.2,0.9,0.3c0.7,0.1,1.3,0.4,1.6,0.6s0.5,0.7,0.5,1.1c0,0.5-0.2,1-0.7,1.3
			c-0.4,0.3-1,0.5-1.8,0.5c-0.4,0-0.9-0.1-1.2-0.2c-0.4-0.1-0.7-0.3-1-0.6l0-1.3h1.1l0.2,0.8c0.1,0.1,0.2,0.1,0.4,0.2
			c0.2,0,0.3,0.1,0.5,0.1c0.3,0,0.6-0.1,0.7-0.2c0.2-0.1,0.2-0.3,0.2-0.5c0-0.2-0.1-0.3-0.3-0.4c-0.2-0.1-0.5-0.2-0.9-0.3
			c-0.7-0.1-1.2-0.3-1.5-0.6c-0.3-0.3-0.5-0.6-0.5-1.1c0-0.5,0.2-0.9,0.6-1.3s1-0.5,1.7-0.5c0.5,0,0.9,0.1,1.3,0.2
			c0.4,0.1,0.7,0.3,0.9,0.5L153.8,51.3z"/>
		<path class="st8" d="M158.8,54.4c-0.2,0.3-0.4,0.5-0.7,0.6c-0.3,0.1-0.6,0.2-0.9,0.2c-0.6,0-1.1-0.2-1.4-0.6
			c-0.3-0.4-0.5-1-0.5-1.8v-2.4l-0.6-0.2v-0.9h0.6h1.6v3.5c0,0.4,0.1,0.7,0.2,0.9c0.1,0.2,0.4,0.3,0.6,0.3c0.2,0,0.5,0,0.6-0.1
			c0.2-0.1,0.3-0.2,0.4-0.3v-3.1l-0.7-0.2v-0.9h0.7h1.6V54l0.7,0.2v0.9h-2.1L158.8,54.4z"/>
		<path class="st8" d="M161.4,47.7v-0.9h2.4V54l0.8,0.2v0.9h-3.1v-0.9l0.8-0.2v-6.2L161.4,47.7z"/>
		<path class="st8" d="M167.4,47.9v1.4h1v1.1h-1v3c0,0.2,0,0.4,0.1,0.5s0.2,0.1,0.4,0.1c0.1,0,0.2,0,0.3,0c0.1,0,0.2,0,0.3,0
			l0.1,1.1c-0.2,0.1-0.3,0.1-0.5,0.1c-0.2,0-0.4,0-0.6,0c-0.5,0-1-0.1-1.2-0.4c-0.3-0.3-0.4-0.8-0.4-1.4v-3H165v-1.1h0.9v-1.4H167.4
			z"/>
	</g>
	<g class="st1">
		<path class="st8" d="M101,92.8h-1.2l2.9-8.5h1.2L101,92.8z"/>
		<path class="st8" d="M104.3,91.2L105,91v-3.6l-0.8-0.2v-0.9h2.4V91l0.8,0.2v0.9h-3.1V91.2z M106.6,84.9H105v-1.2h1.6V84.9z"/>
		<path class="st8" d="M107.8,91.2l0.8-0.2v-3.6l-0.8-0.2v-0.9h2.3l0.1,0.8c0.2-0.3,0.4-0.5,0.7-0.7s0.6-0.2,1-0.2
			c0.6,0,1,0.2,1.4,0.6c0.3,0.4,0.5,0.9,0.5,1.7V91l0.8,0.2v0.9h-3v-0.9L112,91v-2.5c0-0.4-0.1-0.7-0.2-0.8s-0.4-0.2-0.7-0.2
			c-0.2,0-0.4,0-0.6,0.1s-0.3,0.2-0.4,0.4V91l0.6,0.2v0.9h-3V91.2z"/>
		<path class="st8" d="M114.7,87.3v-0.9h2.3l0.1,0.7c0.2-0.3,0.4-0.4,0.6-0.6s0.5-0.2,0.8-0.2c0.7,0,1.3,0.3,1.7,0.8
			c0.4,0.6,0.6,1.3,0.6,2.2v0.1c0,0.9-0.2,1.5-0.6,2.1c-0.4,0.5-1,0.8-1.7,0.8c-0.3,0-0.6-0.1-0.8-0.2c-0.2-0.1-0.4-0.3-0.6-0.5v1.7
			l0.8,0.2v0.9h-3.1v-0.9l0.8-0.2v-5.8L114.7,87.3z M119.2,89.3c0-0.5-0.1-1-0.3-1.3s-0.5-0.5-0.8-0.5c-0.2,0-0.4,0-0.6,0.1
			c-0.2,0.1-0.3,0.2-0.4,0.4v2.5c0.1,0.2,0.2,0.3,0.4,0.4c0.2,0.1,0.4,0.1,0.6,0.1c0.4,0,0.7-0.1,0.8-0.4c0.2-0.3,0.3-0.7,0.3-1.2
			V89.3z"/>
		<path class="st8" d="M125.6,91.4c-0.2,0.3-0.4,0.5-0.7,0.6c-0.3,0.1-0.6,0.2-0.9,0.2c-0.6,0-1.1-0.2-1.4-0.6
			c-0.3-0.4-0.5-1-0.5-1.8v-2.4l-0.6-0.2v-0.9h0.6h1.6v3.5c0,0.4,0.1,0.7,0.2,0.9c0.1,0.2,0.4,0.3,0.6,0.3c0.2,0,0.5,0,0.6-0.1
			c0.2-0.1,0.3-0.2,0.4-0.3v-3.1l-0.7-0.2v-0.9h0.7h1.6V91l0.7,0.2v0.9h-2.1L125.6,91.4z"/>
		<path class="st8" d="M130.7,84.9v1.4h1v1.1h-1v3c0,0.2,0,0.4,0.1,0.5s0.2,0.1,0.4,0.1c0.1,0,0.2,0,0.3,0c0.1,0,0.2,0,0.3,0
			l0.1,1.1c-0.2,0.1-0.3,0.1-0.5,0.1c-0.2,0-0.4,0-0.6,0c-0.5,0-1-0.1-1.2-0.4c-0.3-0.3-0.4-0.8-0.4-1.4v-3h-0.9v-1.1h0.9v-1.4
			H130.7z"/>
		<path class="st8" d="M168.2,92.8H167l2.9-8.5h1.2L168.2,92.8z"/>
		<path class="st8" d="M171.5,89.2c0-0.9,0.2-1.6,0.7-2.1c0.5-0.6,1.2-0.8,2-0.8c0.9,0,1.5,0.3,2,0.8c0.5,0.6,0.7,1.3,0.7,2.1v0.1
			c0,0.9-0.2,1.6-0.7,2.1c-0.5,0.5-1.2,0.8-2,0.8c-0.9,0-1.5-0.3-2-0.8c-0.5-0.5-0.7-1.3-0.7-2.1V89.2z M173.1,89.3
			c0,0.5,0.1,1,0.3,1.3s0.5,0.5,0.9,0.5c0.4,0,0.7-0.2,0.9-0.5c0.2-0.3,0.3-0.7,0.3-1.3v-0.1c0-0.5-0.1-0.9-0.3-1.3
			s-0.5-0.5-0.9-0.5s-0.7,0.2-0.9,0.5s-0.3,0.7-0.3,1.3V89.3z"/>
		<path class="st8" d="M181.8,91.4c-0.2,0.3-0.4,0.5-0.7,0.6c-0.3,0.1-0.6,0.2-0.9,0.2c-0.6,0-1.1-0.2-1.4-0.6
			c-0.3-0.4-0.5-1-0.5-1.8v-2.4l-0.6-0.2v-0.9h0.6h1.6v3.5c0,0.4,0.1,0.7,0.2,0.9c0.1,0.2,0.4,0.3,0.6,0.3c0.2,0,0.5,0,0.6-0.1
			c0.2-0.1,0.3-0.2,0.4-0.3v-3.1l-0.7-0.2v-0.9h0.7h1.6V91l0.7,0.2v0.9h-2.1L181.8,91.4z"/>
		<path class="st8" d="M186.9,84.9v1.4h1v1.1h-1v3c0,0.2,0,0.4,0.1,0.5s0.2,0.1,0.4,0.1c0.1,0,0.2,0,0.3,0c0.1,0,0.2,0,0.3,0
			l0.1,1.1c-0.2,0.1-0.3,0.1-0.5,0.1c-0.2,0-0.4,0-0.6,0c-0.5,0-1-0.1-1.2-0.4c-0.3-0.3-0.4-0.8-0.4-1.4v-3h-0.9v-1.1h0.9v-1.4
			H186.9z"/>
		<path class="st8" d="M188.5,87.3v-0.9h2.3l0.1,0.7c0.2-0.3,0.4-0.4,0.6-0.6s0.5-0.2,0.8-0.2c0.7,0,1.3,0.3,1.7,0.8
			c0.4,0.6,0.6,1.3,0.6,2.2v0.1c0,0.9-0.2,1.5-0.6,2.1c-0.4,0.5-1,0.8-1.7,0.8c-0.3,0-0.6-0.1-0.8-0.2c-0.2-0.1-0.4-0.3-0.6-0.5v1.7
			l0.8,0.2v0.9h-3.1v-0.9l0.8-0.2v-5.8L188.5,87.3z M193.1,89.3c0-0.5-0.1-1-0.3-1.3s-0.5-0.5-0.8-0.5c-0.2,0-0.4,0-0.6,0.1
			c-0.2,0.1-0.3,0.2-0.4,0.4v2.5c0.1,0.2,0.2,0.3,0.4,0.4c0.2,0.1,0.4,0.1,0.6,0.1c0.4,0,0.7-0.1,0.8-0.4c0.2-0.3,0.3-0.7,0.3-1.2
			V89.3z"/>
		<path class="st8" d="M199.4,91.4c-0.2,0.3-0.4,0.5-0.7,0.6c-0.3,0.1-0.6,0.2-0.9,0.2c-0.6,0-1.1-0.2-1.4-0.6
			c-0.3-0.4-0.5-1-0.5-1.8v-2.4l-0.6-0.2v-0.9h0.6h1.6v3.5c0,0.4,0.1,0.7,0.2,0.9c0.1,0.2,0.4,0.3,0.6,0.3c0.2,0,0.5,0,0.6-0.1
			c0.2-0.1,0.3-0.2,0.4-0.3v-3.1l-0.7-0.2v-0.9h0.7h1.6V91l0.7,0.2v0.9h-2.1L199.4,91.4z"/>
		<path class="st8" d="M204.5,84.9v1.4h1v1.1h-1v3c0,0.2,0,0.4,0.1,0.5s0.2,0.1,0.4,0.1c0.1,0,0.2,0,0.3,0c0.1,0,0.2,0,0.3,0
			l0.1,1.1c-0.2,0.1-0.3,0.1-0.5,0.1c-0.2,0-0.4,0-0.6,0c-0.5,0-1-0.1-1.2-0.4c-0.3-0.3-0.4-0.8-0.4-1.4v-3h-0.9v-1.1h0.9v-1.4
			H204.5z"/>
	</g>
	<line class="st7" x1="169.1" y1="65.3" x2="177.5" y2="73.7"/>
	<line class="st7" x1="134.6" y1="65.3" x2="126.2" y2="73.7"/>
</g>
</svg>
