<svg xmlns="http://www.w3.org/2000/svg" xmlns:xlink="http://www.w3.org/1999/xlink" viewBox="0 0 461.39 174.15"><defs><style>.cls-1,.cls-11,.cls-13,.cls-2,.cls-9{fill:none;}.cls-2{stroke:#c30;stroke-dasharray:2 2;}.cls-11,.cls-2,.cls-9{stroke-miterlimit:10;}.cls-11,.cls-12,.cls-13,.cls-2,.cls-9{stroke-width:2px;}.cls-3{font-size:12px;fill:#306;}.cls-18,.cls-20,.cls-3{font-family:RobotoSlab-Bold, Roboto Slab;font-weight:700;}.cls-4{letter-spacing:0em;}.cls-5{letter-spacing:0.01em;}.cls-6{letter-spacing:-0.02em;}.cls-7{letter-spacing:-0.04em;}.cls-8{letter-spacing:-0.01em;}.cls-9{stroke:#306;}.cls-10{fill:url(#Unbenannter_Verlauf_12);}.cls-11,.cls-12,.cls-13{stroke:#fc0;}.cls-12{fill:#fff;}.cls-12,.cls-13{stroke-linecap:round;stroke-linejoin:round;}.cls-14,.cls-18{fill:#fc0;}.cls-15{clip-path:url(#clip-path);}.cls-16{fill:#ffd138;}.cls-17{fill:#fdfeff;}.cls-18{font-size:11px;}.cls-19{letter-spacing:-0.01em;}.cls-20{font-size:14px;fill:#906;}</style><linearGradient id="Unbenannter_Verlauf_12" x1="6.49" y1="92.44" x2="159.95" y2="92.44" gradientUnits="userSpaceOnUse"><stop offset="0" stop-color="#906"/><stop offset="0.19" stop-color="#780066"/><stop offset="0.4" stop-color="#5a0066"/><stop offset="0.61" stop-color="#406"/><stop offset="0.81" stop-color="#370066"/><stop offset="1" stop-color="#306"/></linearGradient><clipPath id="clip-path"><rect class="cls-1" x="64.05" y="128.39" width="36.34" height="7.12"/></clipPath></defs><title>fileprotection</title><g id="Ebene_2" data-name="Ebene 2"><rect class="cls-2" x="326.14" y="113.08" width="130" height="27.21" rx="5"/><text class="cls-3" transform="translate(54.34 162.76)">e<tspan class="cls-4" x="6.39" y="0">n</tspan><tspan x="13.95" y="0">c</tspan><tspan class="cls-5" x="20.27" y="0">r</tspan><tspan x="25.43" y="0">ypted</tspan></text><text class="cls-3" transform="translate(203.99 162.76)"><tspan class="cls-6">a</tspan><tspan x="6.4" y="0">ut</tspan><tspan class="cls-4" x="18.37" y="0">h</tspan><tspan x="25.94" y="0">entic</tspan><tspan class="cls-7" x="54.62" y="0">a</tspan><tspan x="60.74" y="0">ted</tspan></text><text class="cls-3" transform="translate(356.54 162.76)">unp<tspan class="cls-8" x="22.37" y="0">r</tspan><tspan x="27.3" y="0">otected</tspan></text><text class="cls-3" transform="translate(379.74 131.37)">/bin</text><rect class="cls-9" x="177.55" y="113.08" width="130" height="27.21" rx="5"/><text class="cls-3" transform="translate(231.76 131.37)">/etc</text><rect class="cls-10" x="6.49" y="42.38" width="153.46" height="100.13" rx="5"/><rect class="cls-11" x="6.49" y="42.38" width="153.46" height="100.13" rx="5"/><rect class="cls-11" x="17.91" y="58.29" width="130" height="27" rx="5"/><rect class="cls-11" x="87.14" y="95.84" width="60.77" height="27" rx="5"/><rect class="cls-11" x="17.91" y="95.84" width="60.77" height="27" rx="5"/><path class="cls-12" d="M73.91,30.6A11.74,11.74,0,1,1,70.4,39a11.54,11.54,0,0,1,2.4-7.1"/><path class="cls-13" d="M82.16,44.63H77.92c-.58,0-.81-.23-.81-.81V37.36c0-.58.23-.8.81-.8h8.45c.55,0,.77.22.77.77v6.49c0,.55-.22.78-.77.78C85,44.66,83.54,44.63,82.16,44.63Z"/><path class="cls-13" d="M77.8,36a4.51,4.51,0,0,1,2.64-4.13,4.2,4.2,0,0,1,5.78,2.85c.1.39.13.77.23,1.19"/><path class="cls-14" d="M81.45,41.86h0v.87c0,.16.07.23.26.23h.84c.22,0,.29-.07.29-.26V41.09a.36.36,0,0,1,.22-.38,1.22,1.22,0,0,0,.61-1.45,1.55,1.55,0,0,0-1.44-1,1.66,1.66,0,0,0-1.61.87,1.19,1.19,0,0,0,.55,1.51.43.43,0,0,1,.25.49A5.7,5.7,0,0,1,81.45,41.86Z"/><g id="Scone_logo_white" data-name="Scone logo white"><g class="cls-15"><g class="cls-15"><path class="cls-16" d="M68.87,130.2h-.76a.29.29,0,0,0-.3.29v.78a.29.29,0,0,0,.3.29h.76a.29.29,0,0,0,.29-.29v-.78a.29.29,0,0,0-.29-.29m-2.65,1.36H67a.29.29,0,0,0,.29-.29v-.78a.29.29,0,0,0-.29-.29h-.76a.29.29,0,0,0-.29.29v.78a.29.29,0,0,0,.29.29m-.82-.29v-.78a.29.29,0,0,0-.29-.29h-.77a.29.29,0,0,0-.29.29v.78a.29.29,0,0,0,.29.29h.77a.29.29,0,0,0,.29-.29m3.53.83a.22.22,0,0,0-.22.22v.91a.22.22,0,1,0,.43,0v-.91a.2.2,0,0,0-.21-.22m-2.1.29v.78a.29.29,0,0,0,.3.29h.76a.29.29,0,0,0,.29-.29v-.78a.29.29,0,0,0-.29-.29h-.76a.29.29,0,0,0-.3.29m-.54.78v-.78a.29.29,0,0,0-.29-.29h-.76a.3.3,0,0,0-.3.29v.78a.3.3,0,0,0,.3.29H66a.29.29,0,0,0,.29-.29m2.58.83h-.76a.29.29,0,0,0-.3.29v.78a.29.29,0,0,0,.3.29h.76a.29.29,0,0,0,.29-.29v-.78a.29.29,0,0,0-.29-.29m-2,0h-.76a.29.29,0,0,0-.29.29v.78a.29.29,0,0,0,.29.29h.76a.29.29,0,0,0,.29-.29v-.78a.29.29,0,0,0-.29-.29"/><path class="cls-16" d="M69.79,129.89a1.7,1.7,0,0,0,1.18.37s0,0,0,.05v2.1c0,.8-1,1.3-1.22,1.43,0,0,0,0,0,0l0-3.93s0,0,0,0"/><path class="cls-16" d="M67.49,129.79c1.61-.06,1.87-.62,1.87-.62a.09.09,0,0,1,.08,0s.06,0,.07,0,.25.6,1.86.6c0,0,.06,0,.06.07v2.75c0,.88-1.67,1.88-1.7,1.89s-.06,0-.06.06v.69s.1,0,.15,0c.61-.34,2.34-1.29,2.34-2.46v-3.52c0-.05-.1-.1-.16-.1-2,0-2.43-.74-2.43-.74s-.09,0-.13,0-.08,0-.09,0-.34.78-2.37.78c-.07,0-.09,0-.09.08v.44s0,.11.06.11.54,0,.54,0"/><path class="cls-17" d="M73.68,134.28l.82-.31a1.13,1.13,0,0,0,1.07.62,1.2,1.2,0,0,0,.63-.15.5.5,0,0,0,.26-.44c0-.44-.6-.7-1-.88h0a3.75,3.75,0,0,1-1-.53,1.18,1.18,0,0,1-.47-1,1.28,1.28,0,0,1,.49-1,1.81,1.81,0,0,1,1.21-.41,1.75,1.75,0,0,1,1.61.87l-.85.33a.67.67,0,0,0-.29-.31,1.12,1.12,0,0,0-.47-.1c-.47,0-.79.25-.79.58a.66.66,0,0,0,.32.53,4.27,4.27,0,0,0,.74.38l.1,0c.63.27,1.4.6,1.4,1.45a1.22,1.22,0,0,1-.55,1,2.26,2.26,0,0,1-1.34.38,1.94,1.94,0,0,1-1.87-1.11"/><path class="cls-17" d="M80.94,135.38a2.68,2.68,0,0,1-1-.21,2.37,2.37,0,0,1-.82-.55,2.47,2.47,0,0,1-.55-.82,2.54,2.54,0,0,1-.21-1,2.5,2.5,0,0,1,.21-1,2.28,2.28,0,0,1,.55-.82,2.4,2.4,0,0,1,.82-.56,2.67,2.67,0,0,1,1-.2,2.48,2.48,0,0,1,1.17.27,2.59,2.59,0,0,1,.89.75l-.68.51a1.78,1.78,0,0,0-.6-.49,1.84,1.84,0,0,0-.79-.19,1.76,1.76,0,0,0-1.75,1.74,1.73,1.73,0,0,0,2.62,1.49,1.68,1.68,0,0,0,.63-.64l.75.42a2.45,2.45,0,0,1-.94.95,2.35,2.35,0,0,1-1.3.37"/><path class="cls-17" d="M86.6,135.39a2.71,2.71,0,0,1-1-.2,2.5,2.5,0,0,1-.82-.56,2.57,2.57,0,0,1-.55-.82,2.68,2.68,0,0,1-.21-1,2.35,2.35,0,0,1,.21-1,2.55,2.55,0,0,1,1.37-1.37,2.54,2.54,0,0,1,1-.21,2.47,2.47,0,0,1,1,.21,2.28,2.28,0,0,1,.82.55,2.55,2.55,0,0,1,.56.82,2.65,2.65,0,0,1,0,2,2.44,2.44,0,0,1-.56.82,2.6,2.6,0,0,1-.82.56,2.64,2.64,0,0,1-1,.2m0-4.34a1.69,1.69,0,0,0-1.23.51,1.74,1.74,0,0,0-.51,1.23,1.72,1.72,0,0,0,.51,1.23,1.75,1.75,0,0,0,1.23.51,1.73,1.73,0,0,0,1.23-3,1.74,1.74,0,0,0-1.23-.51"/><polygon class="cls-17" points="95.08 130.24 95.08 135.51 91.45 132.17 91.45 135.3 90.53 135.3 90.53 130.05 94.16 133.4 94.16 130.24 95.08 130.24"/><polygon class="cls-17" points="97.55 131.02 97.55 132.36 100.08 132.36 100.08 133.15 97.55 133.15 97.55 134.51 100.39 134.51 100.39 135.3 96.63 135.3 96.63 130.24 100.39 130.24 100.39 131.03 97.55 131.03 97.55 131.02"/></g></g></g><text class="cls-18" transform="translate(65.64 76.2)">/<tspan class="cls-19" x="4.02" y="0">r</tspan><tspan x="8.55" y="0">esult</tspan></text><text class="cls-18" transform="translate(28.57 113.19)"><tspan xml:space="preserve"> /input             /output</tspan></text><line class="cls-13" x1="100.39" y1="86.36" x2="108.83" y2="94.77"/><line class="cls-13" x1="65.9" y1="86.34" x2="57.49" y2="94.78"/></g><g id="Ebene_4" data-name="Ebene 4"><text class="cls-20" transform="translate(240.55 13.61)">/</text><line class="cls-11" x1="242.58" y1="27.25" x2="242.51" y2="101.2"/><line class="cls-11" x1="207.29" y1="24.92" x2="169.25" y2="40.6"/><line class="cls-11" x1="276.17" y1="23.19" x2="389.79" y2="99.5"/></g></svg>