<?xml version="1.0" encoding="utf-8"?>
<!-- Generator: Adobe Illustrator 26.3.1, SVG Export Plug-In . SVG Version: 6.00 Build 0)  -->
<svg version="1.1" id="Ebene_1" xmlns="http://www.w3.org/2000/svg" xmlns:xlink="http://www.w3.org/1999/xlink" x="0px" y="0px"
	 viewBox="0 0 1133 485" style="enable-background:new 0 0 1133 485;" xml:space="preserve">
<style type="text/css">
	.st0{fill:url(#SVGID_1_);}
	.st1{fill:#FFCC00;}
	.st2{fill:none;}
	.st3{opacity:0.5;fill:#3399FF;enable-background:new    ;}
	.st4{fill:none;stroke:#FFFFFF;stroke-width:6;stroke-miterlimit:10;}
	.st5{fill:#FFFFFF;stroke:#FFCC00;stroke-width:4;stroke-linecap:round;stroke-linejoin:round;}
	.st6{fill:none;stroke:#FFCC00;stroke-width:4;stroke-linecap:round;stroke-linejoin:round;}
	.st7{clip-path:url(#SVGID_00000040567777275388180730000017364934598228948361_);}
	.st8{clip-path:url(#SVGID_00000030449690299332185800000009668408644336068274_);}
	.st9{fill:#FFD138;}
	.st10{fill:#FDFEFF;}
	.st11{enable-background:new    ;}
	.st12{fill:#FFFFFF;}
	.st13{fill:#23153F;}
	.st14{fill:none;stroke:#3399FF;stroke-width:6;stroke-miterlimit:10;}
	.st15{fill:#3399FF;}
	.st16{fill:none;stroke:#FF6633;stroke-width:6;stroke-miterlimit:10;}
	.st17{fill:#33CC99;}
	.st18{fill:none;stroke:#FF6633;stroke-width:4;stroke-miterlimit:10;}
	.st19{fill:#FF6633;}
	.st20{fill:none;stroke:#33CC99;stroke-width:4;stroke-miterlimit:10;}
</style>
<linearGradient id="SVGID_1_" gradientUnits="userSpaceOnUse" x1="458.34" y1="264.9598" x2="676.33" y2="264.9598" gradientTransform="matrix(1 0 0 -1 0 485.8898)">
	<stop  offset="0" style="stop-color:#981869"/>
	<stop  offset="0.19" style="stop-color:#771B65"/>
	<stop  offset="0.4" style="stop-color:#591F62"/>
	<stop  offset="0.61" style="stop-color:#43215F"/>
	<stop  offset="0.81" style="stop-color:#36235E"/>
	<stop  offset="1" style="stop-color:#32245E"/>
</linearGradient>
<polygon class="st0" points="676.3,283.9 676.3,158 567.3,95.1 458.3,158 458.3,283.9 567.3,346.8 "/>
<path class="st1" d="M566.9,352.6c-0.9,0-1.8-0.2-2.6-0.7l-108.4-62.6c-1.6-0.9-2.6-2.6-2.6-4.5V159.8c0-1.9,1-3.6,2.6-4.5
	l108.4-62.6c1.6-0.9,3.6-0.9,5.2,0l108.4,62.6c1.6,0.9,2.6,2.6,2.6,4.5V259h-5.2v-99.2L566.9,97.2l-108.4,62.6v125.1l108.4,62.6
	l108.4-62.6v-33.7h5.2v33.7c0,1.8-1,3.6-2.6,4.5l-108.4,62.6C568.7,352.4,567.8,352.6,566.9,352.6L566.9,352.6z"/>
<g>
	<line class="st2" x1="456.2" y1="161.5" x2="482.4" y2="176.4"/>
	<path class="st1" d="M482.4,179c-0.4,0-0.9-0.1-1.3-0.3L455,163.7c-1.2-0.7-1.7-2.3-1-3.5c0.7-1.2,2.3-1.7,3.5-1l26.2,14.9
		c1.2,0.7,1.7,2.3,1,3.5C484.2,178.6,483.3,179,482.4,179L482.4,179z"/>
</g>
<g>
	<line class="st2" x1="676.8" y1="161.5" x2="650.6" y2="176.4"/>
	<path class="st1" d="M650.6,179c-0.9,0-1.8-0.5-2.2-1.3c-0.7-1.2-0.3-2.8,1-3.5l26.2-14.9c1.2-0.7,2.8-0.3,3.5,1
		c0.7,1.2,0.3,2.8-1,3.5l-26.2,14.9C651.5,178.9,651.1,179,650.6,179L650.6,179z"/>
</g>
<path class="st3" d="M1123,0H10C4.5,0,0,4.5,0,10v462c0,5.5,4.5,10,10,10h1113c5.5,0,10-4.5,10-10V10C1133,4.5,1128.5,0,1123,0z
	 M801,355c0,5.5-4.5,10-10,10H351c-5.5,0-10-4.5-10-10V89c0-5.5,4.5-10,10-10h440c5.5,0,10,4.5,10,10V355z"/>
<path class="st4" d="M351,81h440c5.5,0,10,4.5,10,10v266c0,5.5-4.5,10-10,10H351c-5.5,0-10-4.5-10-10V91C341,85.5,345.5,81,351,81z"
	/>
<g>
	<path class="st5" d="M550.8,135.5c4.3-4.1,10-6.7,16.5-6.7c13,0,23.6,10.6,23.6,23.6s-10.6,23.6-23.6,23.6s-23.6-10.6-23.6-23.6
		c0-5.4,1.8-10.3,4.8-14.3"/>
	<g>
		<path class="st6" d="M566.7,163.7h-8.5c-1.2,0-1.6-0.4-1.6-1.6v-13c0-1.2,0.5-1.6,1.6-1.6h17c1.1,0,1.5,0.4,1.5,1.6v13
			c0,1.1-0.5,1.6-1.5,1.6C572.3,163.7,569.5,163.7,566.7,163.7L566.7,163.7z"/>
		<path class="st6" d="M558,146.3c0.2-3.6,1.8-6.7,5.3-8.3c4-1.7,10-0.3,11.6,5.7c0.2,0.8,0.3,1.6,0.5,2.4"/>
		<path class="st1" d="M565.3,158.1L565.3,158.1v1.7c0,0.3,0.1,0.4,0.5,0.4h1.7c0.5,0,0.6-0.1,0.6-0.5v-3.2c0-0.3,0.1-0.6,0.5-0.8
			c1.2-0.6,1.5-1.8,1.2-2.9c-0.4-1.1-1.5-1.9-2.9-1.9c-1.5-0.1-2.7,0.6-3.2,1.7c-0.5,1.1-0.1,2.3,1.1,3c0.5,0.3,0.6,0.5,0.5,1
			C565.3,157.2,565.3,157.6,565.3,158.1L565.3,158.1z"/>
	</g>
</g>
<g id="Scone_logo_white">
	<g>
		<defs>
			<rect id="SVGID_00000160878561807217731820000003122264771143095959_" x="503" y="270" width="87" height="17"/>
		</defs>
		<clipPath id="SVGID_00000047770733595505998350000016277342424914713022_">
			<use xlink:href="#SVGID_00000160878561807217731820000003122264771143095959_"  style="overflow:visible;"/>
		</clipPath>
		<g style="clip-path:url(#SVGID_00000047770733595505998350000016277342424914713022_);">
			<g>
				<defs>
					<rect id="SVGID_00000075875331175448286110000009583464313458019202_" x="503" y="270" width="87" height="17"/>
				</defs>
				<clipPath id="SVGID_00000051357766553152773930000014006799699046340534_">
					<use xlink:href="#SVGID_00000075875331175448286110000009583464313458019202_"  style="overflow:visible;"/>
				</clipPath>
				<g style="clip-path:url(#SVGID_00000051357766553152773930000014006799699046340534_);">
					<path class="st9" d="M514.5,274.3h-1.8c-0.4,0-0.7,0.3-0.7,0.7v1.9c0,0.4,0.3,0.7,0.7,0.7h1.8c0.4,0,0.7-0.3,0.7-0.7V275
						C515.2,274.6,514.9,274.3,514.5,274.3 M508.2,277.6h1.8c0.4,0,0.7-0.3,0.7-0.7V275c0-0.4-0.3-0.7-0.7-0.7h-1.8
						c-0.4,0-0.7,0.3-0.7,0.7v1.9C507.5,277.3,507.8,277.6,508.2,277.6 M506.2,276.9V275c0-0.4-0.3-0.7-0.7-0.7h-1.8
						c-0.4,0-0.7,0.3-0.7,0.7v1.9c0,0.4,0.3,0.7,0.7,0.7h1.8C505.9,277.6,506.2,277.3,506.2,276.9 M514.7,278.9
						c-0.3,0-0.5,0.2-0.5,0.5v2.2c0,0.3,0.2,0.5,0.5,0.5s0.5-0.2,0.5-0.5v-2.2C515.3,279.1,515,278.9,514.7,278.9 M509.7,279.6v1.9
						c0,0.4,0.3,0.7,0.7,0.7h1.8c0.4,0,0.7-0.3,0.7-0.7v-1.9c0-0.4-0.3-0.7-0.7-0.7h-1.8C510,278.9,509.7,279.2,509.7,279.6
						 M508.4,281.4v-1.9c0-0.4-0.3-0.7-0.7-0.7h-1.8c-0.4,0-0.7,0.3-0.7,0.7v1.9c0,0.4,0.3,0.7,0.7,0.7h1.8
						C508.1,282.1,508.4,281.8,508.4,281.4 M514.5,283.4h-1.8c-0.4,0-0.7,0.3-0.7,0.7v1.9c0,0.4,0.3,0.7,0.7,0.7h1.8
						c0.4,0,0.7-0.3,0.7-0.7v-1.9C515.2,283.8,514.9,283.4,514.5,283.4 M509.8,283.4H508c-0.4,0-0.7,0.3-0.7,0.7v1.9
						c0,0.4,0.3,0.7,0.7,0.7h1.8c0.4,0,0.7-0.3,0.7-0.7v-1.9C510.5,283.8,510.2,283.4,509.8,283.4"/>
					<path class="st9" d="M516.7,273.6c0.2,0.2,1.1,0.9,2.8,0.9c0.1,0,0,0.1,0,0.1v5c0,1.9-2.3,3.1-2.9,3.4c-0.1,0-0.1,0-0.1,0
						L516.7,273.6C516.7,273.6,516.7,273.5,516.7,273.6"/>
					<path class="st9" d="M511.2,273.3c3.8-0.1,4.5-1.5,4.5-1.5c0-0.1,0.1-0.1,0.2-0.1s0.1,0,0.2,0.1c0,0,0.6,1.4,4.5,1.4
						c0.1,0,0.1,0.1,0.1,0.2v6.6c0,2.1-4,4.5-4.1,4.5c-0.1,0-0.1,0.1-0.1,0.1v1.6c0,0.1,0.2,0.1,0.3,0.1c1.5-0.8,5.6-3.1,5.6-5.9
						v-8.4c0-0.1-0.2-0.2-0.4-0.2c-4.9,0-5.8-1.8-5.8-1.8c0-0.1-0.2-0.1-0.3-0.1s-0.2,0-0.2,0c0,0-0.8,1.9-5.7,1.9
						c-0.2,0-0.2,0.1-0.2,0.2v1c0,0,0,0.2,0.1,0.2C510.1,273.4,511.2,273.3,511.2,273.3"/>
					<path class="st10" d="M526.1,284.1l2-0.7c0.4,0.9,1.4,1.5,2.6,1.5c0.6,0,1.1-0.1,1.5-0.4c0.4-0.2,0.6-0.6,0.6-1
						c0-1-1.4-1.7-2.5-2.1l-0.1,0c-0.7-0.3-1.6-0.7-2.3-1.3c-0.8-0.6-1.1-1.4-1.1-2.3s0.4-1.8,1.2-2.4c0.7-0.6,1.8-1,2.9-1
						c1.7,0,3.2,0.8,3.8,2.1l-2,0.8c-0.1-0.3-0.4-0.6-0.7-0.7c-0.3-0.1-0.7-0.2-1.1-0.2c-1.1,0-1.9,0.6-1.9,1.4
						c0,0.5,0.2,0.9,0.8,1.3c0.5,0.4,1.1,0.6,1.8,0.9l0.2,0.1c1.5,0.6,3.4,1.4,3.4,3.5c0,1-0.5,1.9-1.3,2.5
						c-0.8,0.6-1.9,0.9-3.2,0.9C528.4,286.7,526.7,285.7,526.1,284.1"/>
					<path class="st10" d="M543.4,286.7c-0.8,0-1.7-0.2-2.4-0.5c-0.7-0.3-1.4-0.7-2-1.3c-0.6-0.6-1-1.2-1.3-2
						c-0.3-0.8-0.5-1.6-0.5-2.4s0.2-1.6,0.5-2.4c0.3-0.7,0.7-1.4,1.3-2c0.6-0.6,1.2-1,2-1.3c0.8-0.3,1.6-0.5,2.4-0.5
						c1,0,1.9,0.2,2.8,0.7c0.8,0.4,1.6,1,2.1,1.8l-1.7,1.2c-0.4-0.5-0.9-0.9-1.4-1.2c-0.6-0.3-1.2-0.5-1.9-0.5
						c-1.1,0-2.2,0.4-2.9,1.2c-0.8,0.8-1.2,1.8-1.2,2.9s0.4,2.1,1.2,2.9c0.8,0.8,1.8,1.2,2.9,1.2c0.7,0,1.5-0.2,2.1-0.6
						s1.2-0.9,1.5-1.5l1.8,1c-0.5,1-1.3,1.7-2.2,2.3C545.6,286.5,544.6,286.8,543.4,286.7"/>
					<path class="st10" d="M557,286.8c-0.8,0-1.7-0.2-2.4-0.5c-0.7-0.3-1.4-0.7-2-1.3c-0.6-0.6-1-1.2-1.3-2
						c-0.3-0.8-0.5-1.6-0.5-2.4s0.1-1.6,0.5-2.4c0.3-0.7,0.8-1.4,1.3-2c0.6-0.6,1.3-1,2-1.3c0.8-0.3,1.6-0.5,2.4-0.5
						s1.7,0.2,2.4,0.5c0.7,0.3,1.4,0.7,2,1.3c0.6,0.6,1,1.2,1.3,2c0.3,0.8,0.5,1.6,0.5,2.4s-0.2,1.6-0.5,2.4c-0.3,0.7-0.8,1.4-1.3,2
						c-0.6,0.6-1.3,1-2,1.3C558.6,286.6,557.8,286.8,557,286.8 M557,276.4c-1.1,0-2.2,0.4-2.9,1.2c-0.8,0.8-1.2,1.8-1.2,2.9
						s0.4,2.2,1.2,2.9c0.8,0.8,1.9,1.2,2.9,1.2s2.2-0.4,2.9-1.2c0.8-0.8,1.2-1.8,1.2-2.9s-0.5-2.1-1.2-2.9
						C559.2,276.8,558.1,276.4,557,276.4"/>
					<polygon class="st10" points="577.3,274.4 577.3,287 568.6,279 568.6,286.5 566.4,286.5 566.4,274 575.1,282 575.1,274.4 					
						"/>
					<polygon class="st10" points="583.2,276.3 583.2,279.5 589.3,279.5 589.3,281.4 583.2,281.4 583.2,284.7 590,284.7 590,286.5 
						581,286.5 581,274.4 590,274.4 590,276.3 583.2,276.3 					"/>
				</g>
			</g>
		</g>
	</g>
</g>
<g class="st11">
	<path class="st12" d="M531.9,219.8h-2.9l-0.5-2c-0.3-0.2-0.7-0.4-1.1-0.6s-0.9-0.2-1.5-0.2c-0.8,0-1.3,0.2-1.8,0.5
		c-0.4,0.3-0.7,0.8-0.7,1.3c0,0.5,0.2,0.9,0.6,1.2c0.4,0.3,1.3,0.6,2.5,0.8c2,0.4,3.4,1,4.4,1.7s1.4,1.8,1.4,3.1
		c0,1.4-0.6,2.6-1.8,3.5s-2.8,1.4-4.8,1.4c-1.2,0-2.3-0.2-3.4-0.5c-1-0.4-1.9-0.9-2.7-1.5l0-3.6h3l0.6,2.1c0.3,0.2,0.6,0.4,1,0.5
		c0.4,0.1,0.9,0.2,1.4,0.2c0.9,0,1.5-0.2,2-0.5s0.7-0.7,0.7-1.3c0-0.5-0.2-0.9-0.7-1.2s-1.3-0.6-2.5-0.9c-1.9-0.4-3.3-0.9-4.2-1.7
		c-1-0.7-1.4-1.8-1.4-3.1c0-1.3,0.5-2.5,1.6-3.4s2.7-1.4,4.7-1.4c1.2,0,2.4,0.2,3.5,0.5s2,0.8,2.6,1.3L531.9,219.8z"/>
	<path class="st12" d="M542,230.5c-2.3,0-4.1-0.7-5.5-2.2s-2.1-3.3-2.1-5.6v-0.6c0-2.4,0.6-4.3,1.9-5.8s3-2.3,5.2-2.3
		c2.1,0,3.8,0.6,5,1.9s1.8,3,1.8,5.2v2.3h-9.5l0,0.1c0.1,1,0.4,1.9,1,2.6s1.5,1,2.5,1c0.9,0,1.7-0.1,2.4-0.3
		c0.6-0.2,1.3-0.5,2.1-0.9l1.2,2.6c-0.7,0.5-1.5,1-2.5,1.3S543.3,230.5,542,230.5z M541.6,217.4c-0.8,0-1.4,0.3-1.9,0.9
		s-0.7,1.4-0.8,2.4l0,0.1h5.2v-0.4c0-0.9-0.2-1.6-0.6-2.2C543.1,217.6,542.5,217.4,541.6,217.4z"/>
</g>
<g class="st11">
	<path class="st12" d="M550.7,227.7l2.1-0.4v-9.8l-2.3-0.4v-2.6h6.3l0.2,2.3c0.4-0.8,0.8-1.5,1.4-1.9s1.3-0.7,2-0.7
		c0.2,0,0.5,0,0.7,0.1c0.2,0,0.5,0.1,0.6,0.1l-0.5,3.9l-1.8,0c-0.6,0-1.1,0.1-1.6,0.4s-0.7,0.6-0.9,1v7.7l2.1,0.4v2.6h-8.4V227.7z"
		/>
</g>
<g class="st11">
	<path class="st12" d="M570,216.9l-1.5,0.3l2.1,7.1l0.3,1.5h0.1l0.3-1.5l2.1-7.1l-1.5-0.3v-2.6h7.2v2.6l-1.4,0.2l-4.7,13.1h-4.1
		l-4.7-13.1l-1.4-0.2v-2.6h7.2V216.9z"/>
	<path class="st12" d="M580.3,227.7l2.1-0.4v-9.8l-2.3-0.4v-2.6h6.6v12.8l2.1,0.4v2.6h-8.4V227.7z M586.6,210.6h-4.3v-3.2h4.3V210.6
		z"/>
	<path class="st12" d="M597.5,227.2c0.8,0,1.4-0.2,1.8-0.7c0.5-0.4,0.7-1,0.7-1.8h3.9l0,0.1c0,1.6-0.6,2.9-1.8,4s-2.8,1.6-4.6,1.6
		c-2.4,0-4.2-0.7-5.5-2.2s-1.9-3.4-1.9-5.8v-0.4c0-2.3,0.7-4.3,2-5.8s3.2-2.3,5.6-2.3c1.3,0,2.4,0.2,3.4,0.6s1.9,0.9,2.5,1.6
		l0.1,4.2h-3.5l-0.7-2.5c-0.2-0.2-0.5-0.3-0.8-0.5c-0.3-0.1-0.7-0.2-1.1-0.2c-1.2,0-2.1,0.4-2.6,1.3s-0.7,2-0.7,3.4v0.4
		c0,1.4,0.2,2.6,0.7,3.4C595.5,226.8,596.4,227.2,597.5,227.2z"/>
	<path class="st12" d="M613.5,230.5c-2.3,0-4.1-0.7-5.5-2.2s-2.1-3.3-2.1-5.6v-0.6c0-2.4,0.6-4.3,1.9-5.8s3-2.3,5.2-2.3
		c2.1,0,3.8,0.6,5,1.9s1.8,3,1.8,5.2v2.3h-9.5l0,0.1c0.1,1,0.4,1.9,1,2.6s1.5,1,2.5,1c0.9,0,1.7-0.1,2.4-0.3
		c0.6-0.2,1.3-0.5,2.1-0.9l1.2,2.6c-0.7,0.5-1.5,1-2.5,1.3S614.7,230.5,613.5,230.5z M613.1,217.4c-0.8,0-1.4,0.3-1.9,0.9
		s-0.7,1.4-0.8,2.4l0,0.1h5.2v-0.4c0-0.9-0.2-1.6-0.6-2.2C614.6,217.6,613.9,217.4,613.1,217.4z"/>
</g>
<g class="st11">
	<path class="st1" d="M654.8,333.9c-0.7,0.6-1.5,1.1-2.5,1.4c-1,0.3-1.9,0.5-2.9,0.5c-1.6,0-2.8-0.5-3.6-1.4
		c-0.8-0.9-1.2-2.2-1.2-3.8c0-1.6,0.2-3.1,0.7-4.4c0.5-1.3,1.1-2.4,1.8-3.3c0.8-0.9,1.6-1.6,2.6-2.1c0.9-0.5,1.9-0.7,2.9-0.7
		c0.7,0,1.3,0.1,1.9,0.3c0.5,0.2,1,0.5,1.3,0.8s0.6,0.7,0.8,1.1c0.2,0.4,0.2,0.9,0.2,1.4c0,1.4-0.7,2.5-2.1,3.3s-3.4,1.2-6,1.2
		c-0.2,0-0.5,0-0.8,0s-0.5,0-0.8,0c-0.1,0.4-0.1,0.7-0.2,1.1c0,0.3-0.1,0.6-0.1,0.9c0,1.1,0.2,2,0.8,2.7c0.5,0.7,1.3,1,2.3,1
		c0.9,0,1.7-0.1,2.4-0.4c0.7-0.3,1.3-0.6,1.7-0.9L654.8,333.9z M652.3,321.9c-1.1,0-2.1,0.4-2.9,1.1c-0.8,0.8-1.4,1.9-1.8,3.4
		c0.8,0,1.5,0,2.4-0.1c0.8,0,1.6-0.1,2.2-0.3c0.7-0.2,1.2-0.4,1.7-0.8c0.4-0.4,0.7-0.9,0.7-1.5c0-0.2,0-0.4-0.1-0.6
		c-0.1-0.2-0.2-0.4-0.3-0.6c-0.2-0.2-0.4-0.3-0.7-0.4C653.1,322,652.7,321.9,652.3,321.9z"/>
	<path class="st1" d="M667,335.4l2-9.5c0.1-0.4,0.2-0.7,0.2-1.1c0.1-0.3,0.1-0.7,0.1-0.9c0-0.6-0.1-1-0.4-1.4
		c-0.3-0.4-0.8-0.5-1.5-0.5c-0.5,0-1,0.1-1.5,0.4c-0.5,0.2-1,0.5-1.4,0.9c-0.4,0.4-0.8,0.8-1.2,1.2c-0.3,0.4-0.6,0.9-0.9,1.3l-2,9.6
		h-2.2l3.2-15h1.6l-0.1,2.6h0.1c0.3-0.3,0.6-0.7,0.9-1c0.4-0.3,0.8-0.7,1.2-0.9c0.5-0.3,1-0.5,1.5-0.7c0.6-0.2,1.2-0.3,1.9-0.3
		c1,0,1.8,0.2,2.4,0.7c0.6,0.5,0.9,1.3,0.9,2.5c0,0.6-0.1,1.3-0.3,2.2l-2.1,10H667z"/>
	<path class="st1" d="M683.6,334.1c-0.3,0.3-0.6,0.5-1,0.7c-0.4,0.2-0.8,0.4-1.2,0.5s-0.8,0.2-1.2,0.3c-0.4,0.1-0.8,0.1-1.1,0.1
		c-1,0-1.8-0.2-2.4-0.5c-0.6-0.3-1.1-0.7-1.5-1.2c-0.4-0.5-0.6-1-0.8-1.6c-0.1-0.6-0.2-1.1-0.2-1.6c0-1.7,0.2-3.2,0.7-4.6
		c0.5-1.4,1.1-2.5,1.8-3.4c0.8-0.9,1.7-1.7,2.7-2.2c1-0.5,2-0.8,3.1-0.8c0.8,0,1.4,0.1,1.9,0.2c0.5,0.1,0.9,0.3,1.3,0.5l-0.8,1.9
		c-0.3-0.2-0.8-0.4-1.3-0.5c-0.5-0.1-1-0.2-1.6-0.2c-0.7,0-1.3,0.2-2,0.7c-0.7,0.5-1.2,1.1-1.7,1.8s-0.9,1.6-1.2,2.6
		c-0.3,1-0.5,2-0.5,3c0,1.3,0.3,2.3,0.8,2.9c0.5,0.6,1.3,0.9,2.2,0.9c0.6,0,1.2-0.1,1.9-0.4c0.7-0.3,1.2-0.5,1.6-0.8L683.6,334.1z"
		/>
	<path class="st1" d="M689.3,331.8c-0.1,0.3-0.1,0.6-0.1,0.8c0,0.4,0.1,0.7,0.2,0.8c0.1,0.2,0.3,0.3,0.5,0.3c0.4,0,0.7,0,1-0.1
		c0.3,0,0.6-0.1,1-0.3v1.7c-0.2,0.1-0.4,0.2-0.6,0.3c-0.2,0.1-0.5,0.1-0.7,0.2s-0.5,0.1-0.8,0.1c-0.2,0-0.5,0-0.7,0
		c-0.7,0-1.3-0.2-1.7-0.5s-0.6-0.9-0.6-1.8c0-0.4,0.1-0.9,0.2-1.5l3.7-17.5h2.2L689.3,331.8z"/>
	<path class="st1" d="M705.8,329.4c-0.2,0.7-0.3,1.5-0.3,2.2c-0.1,0.8-0.1,1.5-0.1,2.1c0,0.3,0,0.6,0,0.9c0,0.3,0,0.5,0.1,0.7h-1.7
		l-0.4-2.6h-0.1c-0.2,0.3-0.5,0.7-0.9,1s-0.7,0.7-1.2,0.9c-0.4,0.3-0.9,0.5-1.3,0.7c-0.5,0.2-1,0.3-1.5,0.3c-2.4,0-3.6-1.5-3.6-4.7
		c0-1.3,0.2-2.6,0.5-3.9c0.3-1.3,0.8-2.5,1.5-3.6s1.6-1.9,2.7-2.6c1.1-0.7,2.4-1,3.9-1c0.6,0,1.2,0.1,2.1,0.2
		c0.8,0.1,1.6,0.3,2.3,0.5L705.8,329.4z M699,333.8c0.5,0,0.9-0.1,1.4-0.3c0.4-0.2,0.9-0.5,1.2-0.9s0.7-0.7,1-1.1
		c0.3-0.4,0.5-0.8,0.7-1.1l1.7-8.1c-0.6-0.3-1.4-0.4-2.3-0.4c-0.9,0-1.7,0.3-2.4,0.8s-1.3,1.2-1.8,2.1c-0.5,0.9-0.8,1.9-1.1,3
		s-0.4,2.2-0.4,3.3c0,0.8,0.2,1.4,0.5,1.9C697.9,333.5,698.4,333.8,699,333.8z"/>
</g>
<g class="st11">
	<path class="st1" d="M713.8,329.1l0.3,2.8h0.1l1.3-2.9l5.1-8.7h2.6l-9.4,15.3h-1l-2.9-15.3h2.4L713.8,329.1z"/>
</g>
<g class="st11">
	<path class="st1" d="M732.5,333.9c-0.7,0.6-1.5,1.1-2.5,1.4c-1,0.3-1.9,0.5-2.9,0.5c-1.6,0-2.8-0.5-3.6-1.4
		c-0.8-0.9-1.2-2.2-1.2-3.8c0-1.6,0.2-3.1,0.7-4.4c0.5-1.3,1.1-2.4,1.8-3.3c0.8-0.9,1.6-1.6,2.5-2.1c1-0.5,1.9-0.7,2.9-0.7
		c0.7,0,1.3,0.1,1.9,0.3s1,0.5,1.3,0.8c0.3,0.3,0.6,0.7,0.8,1.1c0.2,0.4,0.2,0.9,0.2,1.4c0,1.4-0.7,2.5-2.1,3.3s-3.4,1.2-6,1.2
		c-0.2,0-0.5,0-0.8,0s-0.5,0-0.8,0c-0.1,0.4-0.1,0.7-0.2,1.1s-0.1,0.6-0.1,0.9c0,1.1,0.2,2,0.8,2.7c0.5,0.7,1.3,1,2.3,1
		c0.9,0,1.7-0.1,2.4-0.4c0.7-0.3,1.3-0.6,1.7-0.9L732.5,333.9z M730,321.9c-1.1,0-2.1,0.4-2.9,1.1c-0.8,0.8-1.4,1.9-1.8,3.4
		c0.8,0,1.5,0,2.4-0.1s1.6-0.1,2.2-0.3c0.7-0.2,1.2-0.4,1.7-0.8c0.4-0.4,0.7-0.9,0.7-1.5c0-0.2,0-0.4-0.1-0.6s-0.2-0.4-0.3-0.6
		c-0.2-0.2-0.4-0.3-0.7-0.4C730.8,322,730.4,321.9,730,321.9z"/>
</g>
<g class="st11">
	<path class="st13" d="M47.2,170.9c-0.6,0.5-1.4,1-2.4,1.3c-1,0.4-2.1,0.5-3.4,0.5c-1.6,0-2.9-0.5-3.8-1.4s-1.4-2.3-1.4-4
		c0-1.6,0.2-3,0.8-4.3c0.5-1.3,1.2-2.4,2-3.3c0.8-0.9,1.7-1.6,2.7-2.1s2-0.7,3.1-0.7c0.8,0,1.5,0.1,2.1,0.3c0.6,0.2,1.1,0.5,1.5,0.9
		c0.4,0.4,0.7,0.8,0.8,1.3c0.2,0.5,0.3,1,0.3,1.5c0,0.8-0.2,1.5-0.6,2.2s-1,1.1-1.8,1.5s-1.7,0.7-2.7,0.9c-1.1,0.2-2.2,0.3-3.5,0.3
		c-0.2,0-0.3,0-0.5,0c-0.1,0-0.3,0-0.4,0c0,0.2-0.1,0.5-0.1,0.7c0,0.2,0,0.4,0,0.5c0,0.9,0.2,1.6,0.7,2c0.5,0.4,1.1,0.7,2,0.7
		c0.9,0,1.7-0.1,2.4-0.4c0.7-0.3,1.2-0.5,1.6-0.8L47.2,170.9z M40.4,163.5c0.6,0,1.2,0,1.8-0.1s1.2-0.1,1.8-0.3s1-0.4,1.4-0.6
		s0.5-0.7,0.5-1.2c0-0.3-0.1-0.6-0.3-0.9c-0.2-0.3-0.7-0.5-1.4-0.5c-0.9,0-1.6,0.3-2.3,1C41.2,161.7,40.7,162.5,40.4,163.5z"/>
	<path class="st13" d="M58.1,172.4l2-9.3c0.1-0.6,0.2-1,0.2-1.5c0-0.4-0.1-0.8-0.3-1c-0.2-0.2-0.5-0.4-1-0.4c-0.4,0-0.7,0.1-1.1,0.3
		c-0.4,0.2-0.7,0.4-1,0.7c-0.3,0.3-0.6,0.6-0.9,1c-0.3,0.4-0.5,0.7-0.7,1.1l-1.9,9h-3.7l3.2-15h2.8l-0.1,2.6h0.1
		c0.3-0.3,0.6-0.7,0.9-1s0.8-0.7,1.2-1c0.5-0.3,1-0.5,1.5-0.8c0.6-0.2,1.2-0.3,1.9-0.3c0.9,0,1.6,0.2,2.2,0.7
		c0.5,0.5,0.8,1.3,0.8,2.4c0,0.3,0,0.6,0,1c0,0.3-0.1,0.7-0.2,1.1l-2.2,10.2H58.1z"/>
	<path class="st13" d="M76.5,160.7c-0.4-0.2-0.8-0.4-1.2-0.4c-0.4-0.1-0.9-0.1-1.3-0.1c-0.5,0-1.1,0.2-1.6,0.5
		c-0.5,0.4-1,0.8-1.4,1.4c-0.4,0.6-0.7,1.2-1,2c-0.2,0.8-0.4,1.5-0.4,2.3c0,1,0.2,1.8,0.7,2.3c0.4,0.5,1,0.8,1.8,0.8
		c0.6,0,1.2-0.1,1.7-0.3c0.5-0.2,1-0.4,1.4-0.6l0.7,2.5c-0.6,0.5-1.4,0.9-2.2,1.2c-0.9,0.3-1.7,0.5-2.5,0.5c-1,0-1.8-0.1-2.4-0.4
		s-1.2-0.7-1.6-1.1c-0.4-0.5-0.7-1-0.9-1.7c-0.2-0.6-0.3-1.3-0.3-2c0-1.7,0.2-3.2,0.7-4.5c0.5-1.3,1.1-2.4,1.9-3.3
		c0.8-0.9,1.7-1.6,2.7-2.1c1-0.5,2-0.7,3.1-0.7c0.9,0,1.7,0.1,2.2,0.3c0.5,0.2,1,0.4,1.5,0.6L76.5,160.7z"/>
	<path class="st13" d="M82.1,167.9c-0.1,0.6-0.1,1,0,1.3c0.1,0.3,0.3,0.4,0.6,0.4c0.6,0,1.1-0.1,1.6-0.3l-0.1,2.6
		c-0.4,0.2-0.9,0.4-1.6,0.5c-0.7,0.1-1.4,0.2-2,0.2c-0.9,0-1.5-0.2-2-0.5c-0.5-0.3-0.7-0.9-0.7-1.8c0-0.5,0.1-1,0.2-1.6l3.7-17.4
		h3.7L82.1,167.9z"/>
	<path class="st13" d="M98.6,166.4c-0.2,0.8-0.3,1.5-0.3,2.3c-0.1,0.8-0.1,1.5-0.1,2.2c0,0.3,0,0.5,0,0.8s0,0.5,0,0.7h-2.7l-0.4-2.6
		h-0.1c-0.2,0.4-0.5,0.7-0.9,1.1c-0.4,0.4-0.7,0.7-1.2,1c-0.4,0.3-0.9,0.5-1.3,0.7c-0.5,0.2-1,0.3-1.5,0.3c-1.3,0-2.3-0.4-2.9-1.3
		c-0.6-0.9-0.9-2-0.9-3.5c0-1.5,0.2-2.9,0.6-4.2s0.9-2.5,1.7-3.5c0.8-1,1.8-1.8,3-2.4c1.2-0.6,2.6-0.9,4.2-0.9
		c0.7,0,1.5,0.1,2.3,0.2c0.8,0.1,1.6,0.3,2.4,0.5L98.6,166.4z M91.5,169.7c0.4,0,0.7-0.1,1-0.2c0.3-0.2,0.6-0.3,0.9-0.6
		c0.3-0.2,0.5-0.5,0.7-0.8c0.2-0.3,0.4-0.5,0.6-0.8l1.5-7c-0.2-0.1-0.5-0.2-0.8-0.2c-0.3-0.1-0.6-0.1-0.9-0.1
		c-0.7,0-1.4,0.2-1.9,0.6c-0.6,0.4-1,1-1.4,1.7c-0.4,0.7-0.7,1.5-0.9,2.4c-0.2,0.9-0.3,1.8-0.3,2.6c0,0.6,0.1,1.2,0.3,1.7
		C90.6,169.5,90.9,169.7,91.5,169.7z"/>
</g>
<g class="st11">
	<path class="st13" d="M106.6,165.2l0.1,2.3h0.1l0.9-2.4l4.1-7.8h4.2l-9.2,15.2h-2.3l-3-15.2h4.1L106.6,165.2z"/>
</g>
<g class="st11">
	<path class="st13" d="M125.3,170.9c-0.6,0.5-1.4,1-2.4,1.3c-1,0.4-2.1,0.5-3.4,0.5c-1.6,0-2.9-0.5-3.8-1.4s-1.4-2.3-1.4-4
		c0-1.6,0.2-3,0.8-4.3c0.5-1.3,1.2-2.4,2-3.3c0.8-0.9,1.7-1.6,2.7-2.1s2-0.7,3.1-0.7c0.8,0,1.5,0.1,2.1,0.3c0.6,0.2,1.1,0.5,1.5,0.9
		c0.4,0.4,0.7,0.8,0.8,1.3c0.2,0.5,0.3,1,0.3,1.5c0,0.8-0.2,1.5-0.6,2.2s-1,1.1-1.8,1.5s-1.7,0.7-2.7,0.9c-1.1,0.2-2.2,0.3-3.5,0.3
		c-0.2,0-0.3,0-0.5,0c-0.1,0-0.3,0-0.4,0c0,0.2-0.1,0.5-0.1,0.7c0,0.2,0,0.4,0,0.5c0,0.9,0.2,1.6,0.7,2c0.5,0.4,1.1,0.7,2,0.7
		c0.9,0,1.7-0.1,2.4-0.4c0.7-0.3,1.2-0.5,1.6-0.8L125.3,170.9z M118.5,163.5c0.6,0,1.2,0,1.8-0.1s1.2-0.1,1.8-0.3s1-0.4,1.4-0.6
		s0.5-0.7,0.5-1.2c0-0.3-0.1-0.6-0.3-0.9c-0.2-0.3-0.7-0.5-1.4-0.5c-0.9,0-1.6,0.3-2.3,1C119.3,161.7,118.8,162.5,118.5,163.5z"/>
	<path class="st13" d="M129.9,170.4c0-0.7,0.2-1.3,0.7-1.7c0.4-0.4,1-0.6,1.7-0.6c0.7,0,1.3,0.2,1.8,0.6s0.7,1,0.7,1.7
		c0,0.7-0.2,1.3-0.7,1.7s-1,0.6-1.8,0.6c-0.7,0-1.3-0.2-1.7-0.6C130.1,171.6,129.9,171.1,129.9,170.4z M132.2,159.5
		c0-0.7,0.2-1.3,0.7-1.7c0.4-0.4,1-0.6,1.7-0.6c0.7,0,1.3,0.2,1.8,0.6s0.7,1,0.7,1.7s-0.2,1.3-0.7,1.7s-1,0.6-1.8,0.6
		c-0.7,0-1.3-0.2-1.7-0.6C132.4,160.8,132.2,160.2,132.2,159.5z"/>
</g>
<g class="st11">
	<path class="st13" d="M149,157.4h1.6l-0.1,2.6h0.1c0.3-0.4,0.6-0.7,0.9-1.1c0.3-0.3,0.7-0.7,1.2-0.9c0.4-0.3,0.9-0.5,1.4-0.7
		c0.5-0.2,1-0.3,1.6-0.3c0.5,0,0.9,0.1,1.3,0.2c0.4,0.1,0.8,0.4,1.1,0.8c0.3,0.3,0.6,0.8,0.8,1.4s0.3,1.3,0.3,2.1
		c0,1.8-0.2,3.3-0.7,4.7c-0.5,1.4-1.1,2.6-1.9,3.5c-0.8,1-1.7,1.7-2.6,2.2c-1,0.5-1.9,0.8-2.9,0.8c-0.7,0-1.3-0.1-1.8-0.2
		s-0.9-0.3-1.1-0.4l-1.3,6.2h-2.2L149,157.4z M154.7,158.9c-0.5,0-1.1,0.1-1.5,0.4c-0.5,0.3-0.9,0.6-1.4,1c-0.4,0.4-0.8,0.9-1.1,1.3
		c-0.3,0.5-0.6,0.9-0.8,1.3l-1.5,7.1c0.3,0.3,0.7,0.4,1,0.5c0.4,0.1,0.8,0.2,1.2,0.2c0.8,0,1.5-0.2,2.2-0.6c0.7-0.4,1.3-1,1.9-1.8
		c0.6-0.8,1-1.8,1.3-2.9s0.5-2.4,0.5-3.8c0-0.8-0.2-1.5-0.5-2C155.9,159.2,155.4,158.9,154.7,158.9z"/>
	<path class="st13" d="M170.7,159.3c-0.2,0-0.4-0.1-0.6-0.1c-0.2,0-0.4,0-0.5,0c-1,0-1.9,0.3-2.6,1c-0.7,0.6-1.3,1.4-1.7,2.3
		l-2.1,9.8H161l3.2-15h1.6v2.6h0.1c0.2-0.4,0.5-0.7,0.8-1.1c0.3-0.3,0.6-0.6,0.9-0.9c0.3-0.3,0.7-0.5,1.1-0.6
		c0.4-0.1,0.8-0.2,1.3-0.2c0.4,0,0.9,0.1,1.4,0.2L170.7,159.3z"/>
	<path class="st13" d="M171.2,167.7c0-1.6,0.2-3,0.6-4.3c0.4-1.3,1-2.4,1.7-3.4c0.7-0.9,1.6-1.7,2.5-2.2c0.9-0.5,2-0.8,3-0.8
		c0.8,0,1.6,0.1,2.1,0.4c0.6,0.3,1.1,0.6,1.4,1.1s0.6,1,0.8,1.6c0.2,0.6,0.2,1.2,0.2,1.9c0,1.5-0.2,2.9-0.6,4.2
		c-0.4,1.3-0.9,2.4-1.6,3.4c-0.7,1-1.5,1.7-2.4,2.3s-1.9,0.8-3,0.8c-0.9,0-1.7-0.1-2.3-0.4c-0.6-0.3-1.1-0.7-1.5-1.2
		c-0.4-0.5-0.7-1-0.8-1.6C171.3,168.9,171.2,168.3,171.2,167.7z M173.6,167.1c0,1.2,0.2,2.1,0.7,2.7c0.4,0.6,1.1,0.9,2.1,0.9
		c0.7,0,1.3-0.2,1.9-0.7c0.6-0.5,1.1-1.1,1.6-1.9c0.4-0.8,0.8-1.7,1.1-2.7s0.4-2.1,0.4-3.2c0-1-0.2-1.8-0.6-2.4s-1.1-0.9-2.1-0.9
		c-0.7,0-1.3,0.2-1.9,0.7c-0.6,0.4-1.1,1.1-1.6,1.8c-0.5,0.8-0.8,1.6-1.1,2.6S173.6,166.1,173.6,167.1z"/>
	<path class="st13" d="M186.8,157.4h2.2l0.6-3l2.4-0.7l-0.8,3.7h3.9l-0.4,1.9h-3.9l-1.9,9.1c0,0.2-0.1,0.5-0.1,0.7
		c0,0.2,0,0.4,0,0.5c0,0.5,0.1,0.8,0.3,1c0.2,0.2,0.5,0.3,1,0.3c0.5,0,0.9-0.1,1.3-0.2s0.8-0.3,1.2-0.5v1.8c-0.4,0.2-1,0.4-1.6,0.6
		c-0.7,0.2-1.3,0.2-1.9,0.2c-1.8,0-2.7-0.8-2.7-2.5c0-0.3,0-0.8,0.1-1.3l2-9.7h-2.2L186.8,157.4z"/>
	<path class="st13" d="M205.7,170.9c-0.7,0.6-1.5,1.1-2.5,1.4c-1,0.3-1.9,0.5-2.9,0.5c-1.6,0-2.8-0.5-3.6-1.4s-1.2-2.2-1.2-3.8
		c0-1.6,0.2-3.1,0.7-4.4c0.5-1.3,1.1-2.4,1.8-3.3c0.8-0.9,1.6-1.6,2.6-2.1c0.9-0.5,1.9-0.7,2.9-0.7c0.7,0,1.3,0.1,1.9,0.3
		c0.5,0.2,1,0.5,1.3,0.8c0.3,0.3,0.6,0.7,0.8,1.1c0.2,0.4,0.2,0.9,0.2,1.4c0,1.4-0.7,2.5-2.1,3.3s-3.4,1.2-6,1.2c-0.2,0-0.5,0-0.8,0
		s-0.5,0-0.8,0c-0.1,0.4-0.1,0.7-0.2,1.1c0,0.3-0.1,0.6-0.1,0.9c0,1.1,0.2,2,0.8,2.7c0.5,0.7,1.3,1,2.3,1c0.9,0,1.7-0.1,2.4-0.4
		s1.3-0.6,1.7-0.9L205.7,170.9z M203.1,158.9c-1.1,0-2.1,0.4-2.9,1.1s-1.4,1.9-1.8,3.4c0.8,0,1.5,0,2.4-0.1c0.8,0,1.6-0.1,2.2-0.3
		c0.7-0.2,1.2-0.4,1.7-0.8c0.4-0.4,0.7-0.9,0.7-1.5c0-0.2,0-0.4-0.1-0.6c-0.1-0.2-0.2-0.4-0.3-0.6c-0.2-0.2-0.4-0.3-0.7-0.4
		C203.9,159,203.6,158.9,203.1,158.9z"/>
	<path class="st13" d="M218.9,171.1c-0.3,0.3-0.6,0.5-1,0.7s-0.8,0.4-1.2,0.5c-0.4,0.1-0.8,0.2-1.2,0.3c-0.4,0.1-0.8,0.1-1.1,0.1
		c-1,0-1.8-0.2-2.4-0.5c-0.6-0.3-1.1-0.7-1.5-1.2c-0.4-0.5-0.6-1-0.8-1.6c-0.1-0.6-0.2-1.1-0.2-1.6c0-1.7,0.2-3.2,0.7-4.6
		c0.5-1.4,1.1-2.5,1.8-3.4c0.8-0.9,1.7-1.7,2.7-2.2c1-0.5,2-0.8,3.1-0.8c0.8,0,1.4,0.1,1.9,0.2c0.5,0.1,0.9,0.3,1.3,0.5l-0.8,1.9
		c-0.3-0.2-0.8-0.4-1.3-0.5c-0.5-0.1-1-0.2-1.6-0.2c-0.7,0-1.3,0.2-2,0.7s-1.2,1.1-1.7,1.8s-0.9,1.6-1.2,2.6c-0.3,1-0.5,2-0.5,3
		c0,1.3,0.3,2.3,0.8,2.9c0.5,0.6,1.3,0.9,2.2,0.9c0.6,0,1.2-0.1,1.9-0.4c0.7-0.3,1.2-0.5,1.6-0.8L218.9,171.1z"/>
	<path class="st13" d="M222.6,157.4h2.2l0.6-3l2.4-0.7l-0.8,3.7h3.9l-0.4,1.9h-3.9l-1.9,9.1c0,0.2-0.1,0.5-0.1,0.7
		c0,0.2,0,0.4,0,0.5c0,0.5,0.1,0.8,0.3,1c0.2,0.2,0.5,0.3,1,0.3c0.5,0,0.9-0.1,1.3-0.2s0.8-0.3,1.2-0.5v1.8c-0.4,0.2-1,0.4-1.6,0.6
		c-0.7,0.2-1.3,0.2-1.9,0.2c-1.8,0-2.7-0.8-2.7-2.5c0-0.3,0-0.8,0.1-1.3l2-9.7h-2.2L222.6,157.4z"/>
	<path class="st13" d="M237.7,168.1c0-0.5-0.1-1-0.4-1.3c-0.3-0.4-0.6-0.7-1-1c-0.4-0.3-0.8-0.6-1.3-0.9c-0.5-0.3-0.9-0.6-1.3-0.9
		c-0.4-0.3-0.7-0.8-1-1.2c-0.3-0.5-0.4-1.1-0.4-1.7c0-0.6,0.1-1.1,0.4-1.6s0.6-0.9,1.1-1.3c0.5-0.4,1-0.7,1.7-0.9
		c0.6-0.2,1.4-0.3,2.1-0.3c1.1,0,1.9,0.1,2.5,0.2c0.6,0.1,1.1,0.3,1.6,0.6l-0.8,1.8c-0.8-0.5-1.9-0.7-3.3-0.7
		c-0.8,0-1.5,0.2-2.1,0.5c-0.6,0.4-0.8,0.9-0.8,1.6c0,0.4,0.1,0.8,0.4,1.1c0.3,0.3,0.6,0.6,1,0.9c0.4,0.3,0.8,0.6,1.3,0.9
		c0.5,0.3,0.9,0.6,1.3,1c0.4,0.4,0.7,0.8,1,1.3s0.4,1.1,0.4,1.8c0,1.6-0.5,2.7-1.6,3.6c-1.1,0.8-2.5,1.2-4.2,1.2
		c-0.9,0-1.7-0.1-2.5-0.3s-1.4-0.4-1.8-0.7l0.8-1.9c0.4,0.3,0.9,0.5,1.6,0.7s1.3,0.3,2,0.3c1,0,1.8-0.2,2.4-0.6
		C237.4,169.7,237.7,169,237.7,168.1z"/>
	<path class="st13" d="M252,157.4h2.2l0.6-3l2.4-0.7l-0.8,3.7h3.9l-0.4,1.9H256l-1.9,9.1c0,0.2-0.1,0.5-0.1,0.7c0,0.2,0,0.4,0,0.5
		c0,0.5,0.1,0.8,0.3,1c0.2,0.2,0.5,0.3,1,0.3c0.5,0,0.9-0.1,1.3-0.2s0.8-0.3,1.2-0.5v1.8c-0.4,0.2-1,0.4-1.6,0.6
		c-0.7,0.2-1.3,0.2-1.9,0.2c-1.8,0-2.7-0.8-2.7-2.5c0-0.3,0-0.8,0.1-1.3l2-9.7h-2.2L252,157.4z"/>
	<path class="st13" d="M269.5,172.4l1.8-8.5c0.1-0.6,0.2-1.1,0.3-1.6c0.1-0.5,0.1-0.9,0.1-1.2c0-0.7-0.2-1.3-0.5-1.6
		c-0.3-0.3-0.8-0.5-1.4-0.5c-0.5,0-1,0.1-1.6,0.4c-0.5,0.3-1.1,0.6-1.6,1c-0.5,0.4-0.9,0.9-1.3,1.4c-0.4,0.5-0.7,1-0.9,1.5l-1.9,9.1
		h-2.2l4.4-21h2.2l-1.9,8.6h0.1c0.3-0.3,0.6-0.6,0.9-1c0.4-0.3,0.8-0.7,1.3-0.9c0.5-0.3,1-0.5,1.6-0.7c0.6-0.2,1.2-0.3,1.8-0.3
		c1,0,1.7,0.2,2.3,0.7c0.6,0.5,0.8,1.3,0.8,2.6c0,0.8-0.1,1.8-0.4,3l-1.9,9.1H269.5z"/>
	<path class="st13" d="M286.8,170.9c-0.7,0.6-1.5,1.1-2.5,1.4c-1,0.3-1.9,0.5-2.9,0.5c-1.6,0-2.8-0.5-3.6-1.4s-1.2-2.2-1.2-3.8
		c0-1.6,0.2-3.1,0.7-4.4c0.5-1.3,1.1-2.4,1.8-3.3c0.8-0.9,1.6-1.6,2.6-2.1c0.9-0.5,1.9-0.7,2.9-0.7c0.7,0,1.3,0.1,1.9,0.3
		c0.5,0.2,1,0.5,1.3,0.8c0.3,0.3,0.6,0.7,0.8,1.1c0.2,0.4,0.2,0.9,0.2,1.4c0,1.4-0.7,2.5-2.1,3.3s-3.4,1.2-6,1.2c-0.2,0-0.5,0-0.8,0
		s-0.5,0-0.8,0c-0.1,0.4-0.1,0.7-0.2,1.1c0,0.3-0.1,0.6-0.1,0.9c0,1.1,0.2,2,0.8,2.7c0.5,0.7,1.3,1,2.3,1c0.9,0,1.7-0.1,2.4-0.4
		s1.3-0.6,1.7-0.9L286.8,170.9z M284.2,158.9c-1.1,0-2.1,0.4-2.9,1.1s-1.4,1.9-1.8,3.4c0.8,0,1.5,0,2.4-0.1c0.8,0,1.6-0.1,2.2-0.3
		c0.7-0.2,1.2-0.4,1.7-0.8c0.4-0.4,0.7-0.9,0.7-1.5c0-0.2,0-0.4-0.1-0.6c-0.1-0.2-0.2-0.4-0.3-0.6c-0.2-0.2-0.4-0.3-0.7-0.4
		C285,159,284.7,158.9,284.2,158.9z"/>
</g>
<g class="st11">
	<path class="st13" d="M65.2,195.4c-0.2,0.7-0.3,1.5-0.3,2.2c-0.1,0.8-0.1,1.5-0.1,2.1c0,0.3,0,0.6,0,0.9c0,0.3,0,0.5,0.1,0.7h-1.6
		l-0.4-2.6h-0.1c-0.2,0.3-0.5,0.7-0.9,1c-0.4,0.3-0.7,0.7-1.2,0.9c-0.4,0.3-0.9,0.5-1.3,0.7c-0.5,0.2-1,0.3-1.5,0.3
		c-2.4,0-3.6-1.5-3.6-4.7c0-1.3,0.2-2.6,0.5-3.9c0.3-1.3,0.8-2.5,1.5-3.6s1.6-1.9,2.7-2.6c1.1-0.7,2.4-1,3.9-1
		c0.6,0,1.2,0.1,2.1,0.2c0.8,0.1,1.6,0.3,2.3,0.5L65.2,195.4z M58.4,199.8c0.5,0,0.9-0.1,1.4-0.3c0.4-0.2,0.9-0.5,1.2-0.9
		c0.4-0.3,0.7-0.7,1-1.1c0.3-0.4,0.5-0.8,0.7-1.1l1.7-8.1c-0.6-0.3-1.4-0.4-2.3-0.4c-0.9,0-1.7,0.3-2.4,0.8
		c-0.7,0.5-1.3,1.2-1.8,2.1s-0.8,1.9-1.1,3c-0.2,1.1-0.4,2.2-0.4,3.3c0,0.8,0.1,1.4,0.5,1.9C57.3,199.5,57.8,199.8,58.4,199.8z"/>
	<path class="st13" d="M71.8,186.4h1.6l-0.1,2.6h0.1c0.3-0.4,0.6-0.7,0.9-1.1c0.3-0.3,0.7-0.7,1.2-0.9c0.4-0.3,0.9-0.5,1.4-0.7
		c0.5-0.2,1-0.3,1.6-0.3c0.5,0,0.9,0.1,1.3,0.2c0.4,0.1,0.8,0.4,1.1,0.8c0.3,0.3,0.6,0.8,0.8,1.4s0.3,1.3,0.3,2.1
		c0,1.8-0.2,3.3-0.7,4.7c-0.5,1.4-1.1,2.6-1.9,3.5c-0.8,1-1.7,1.7-2.6,2.2c-1,0.5-1.9,0.8-2.9,0.8c-0.7,0-1.3-0.1-1.8-0.2
		s-0.9-0.3-1.1-0.4l-1.3,6.2h-2.2L71.8,186.4z M77.6,187.9c-0.5,0-1.1,0.1-1.5,0.4c-0.5,0.3-0.9,0.6-1.4,1c-0.4,0.4-0.8,0.9-1.1,1.3
		c-0.3,0.5-0.6,0.9-0.8,1.3l-1.5,7.1c0.3,0.3,0.7,0.4,1,0.5c0.4,0.1,0.8,0.2,1.2,0.2c0.8,0,1.5-0.2,2.2-0.6c0.7-0.4,1.3-1,1.9-1.8
		c0.6-0.8,1-1.8,1.3-2.9s0.5-2.4,0.5-3.8c0-0.8-0.2-1.5-0.5-2C78.7,188.2,78.2,187.9,77.6,187.9z"/>
	<path class="st13" d="M87,186.4h1.6l-0.1,2.6h0.1c0.3-0.4,0.6-0.7,0.9-1.1c0.3-0.3,0.7-0.7,1.2-0.9c0.4-0.3,0.9-0.5,1.4-0.7
		c0.5-0.2,1-0.3,1.6-0.3c0.5,0,0.9,0.1,1.3,0.2c0.4,0.1,0.8,0.4,1.1,0.8c0.3,0.3,0.6,0.8,0.8,1.4s0.3,1.3,0.3,2.1
		c0,1.8-0.2,3.3-0.7,4.7c-0.5,1.4-1.1,2.6-1.9,3.5c-0.8,1-1.7,1.7-2.6,2.2c-1,0.5-1.9,0.8-2.9,0.8c-0.7,0-1.3-0.1-1.8-0.2
		s-0.9-0.3-1.1-0.4l-1.3,6.2h-2.2L87,186.4z M92.8,187.9c-0.5,0-1.1,0.1-1.5,0.4c-0.5,0.3-0.9,0.6-1.4,1c-0.4,0.4-0.8,0.9-1.1,1.3
		c-0.3,0.5-0.6,0.9-0.8,1.3l-1.5,7.1c0.3,0.3,0.7,0.4,1,0.5c0.4,0.1,0.8,0.2,1.2,0.2c0.8,0,1.5-0.2,2.2-0.6c0.7-0.4,1.3-1,1.9-1.8
		c0.6-0.8,1-1.8,1.3-2.9s0.5-2.4,0.5-3.8c0-0.8-0.2-1.5-0.5-2C93.9,188.2,93.4,187.9,92.8,187.9z"/>
	<path class="st13" d="M101.9,197.8c-0.1,0.3-0.1,0.6-0.1,0.8c0,0.4,0.1,0.7,0.2,0.8c0.1,0.2,0.3,0.3,0.5,0.3c0.4,0,0.7,0,1-0.1
		s0.6-0.1,1-0.3v1.7c-0.2,0.1-0.4,0.2-0.6,0.3c-0.2,0.1-0.5,0.1-0.7,0.2s-0.5,0.1-0.8,0.1c-0.2,0-0.5,0-0.7,0
		c-0.7,0-1.3-0.2-1.7-0.5s-0.6-0.9-0.6-1.8c0-0.4,0.1-0.9,0.2-1.5l3.7-17.5h2.2L101.9,197.8z"/>
	<path class="st13" d="M110.8,186.4h2.2l-3.2,15h-2.2L110.8,186.4z M111.3,181.8c0-0.5,0.2-0.8,0.5-1.2c0.3-0.3,0.7-0.5,1.2-0.5
		c0.5,0,0.9,0.2,1.2,0.5s0.5,0.7,0.5,1.2s-0.2,0.8-0.5,1.2c-0.3,0.3-0.7,0.5-1.2,0.5c-0.5,0-0.8-0.2-1.2-0.5
		C111.5,182.6,111.3,182.2,111.3,181.8z"/>
</g>
<g class="st11">
	<path class="st13" d="M124.8,200.1c-0.3,0.3-0.6,0.5-1,0.7s-0.8,0.4-1.2,0.5c-0.4,0.1-0.8,0.2-1.2,0.3c-0.4,0.1-0.8,0.1-1.1,0.1
		c-1,0-1.8-0.2-2.4-0.5c-0.6-0.3-1.1-0.7-1.5-1.2c-0.4-0.5-0.6-1-0.8-1.6c-0.1-0.6-0.2-1.1-0.2-1.6c0-1.7,0.2-3.2,0.7-4.6
		c0.5-1.4,1.1-2.5,1.8-3.4c0.8-0.9,1.7-1.7,2.7-2.2c1-0.5,2-0.8,3.1-0.8c0.8,0,1.4,0.1,1.9,0.2c0.5,0.1,0.9,0.3,1.3,0.5l-0.8,1.9
		c-0.3-0.2-0.8-0.4-1.3-0.5c-0.5-0.1-1-0.2-1.6-0.2c-0.7,0-1.3,0.2-2,0.7s-1.2,1.1-1.7,1.8s-0.9,1.6-1.2,2.6c-0.3,1-0.5,2-0.5,3
		c0,1.3,0.3,2.3,0.8,2.9c0.5,0.6,1.3,0.9,2.2,0.9c0.6,0,1.2-0.1,1.9-0.4c0.7-0.3,1.2-0.5,1.6-0.8L124.8,200.1z"/>
</g>
<g class="st11">
	<path class="st13" d="M137.9,195.4c-0.2,0.7-0.3,1.5-0.3,2.2c-0.1,0.8-0.1,1.5-0.1,2.1c0,0.3,0,0.6,0,0.9c0,0.3,0,0.5,0.1,0.7h-1.6
		l-0.4-2.6h-0.1c-0.2,0.3-0.5,0.7-0.9,1c-0.4,0.3-0.7,0.7-1.2,0.9c-0.4,0.3-0.9,0.5-1.3,0.7c-0.5,0.2-1,0.3-1.5,0.3
		c-2.4,0-3.6-1.5-3.6-4.7c0-1.3,0.2-2.6,0.5-3.9c0.3-1.3,0.8-2.5,1.5-3.6s1.6-1.9,2.7-2.6c1.1-0.7,2.4-1,3.9-1
		c0.6,0,1.2,0.1,2.1,0.2c0.8,0.1,1.6,0.3,2.3,0.5L137.9,195.4z M131.1,199.8c0.5,0,0.9-0.1,1.4-0.3c0.4-0.2,0.9-0.5,1.2-0.9
		c0.4-0.3,0.7-0.7,1-1.1c0.3-0.4,0.5-0.8,0.7-1.1l1.7-8.1c-0.6-0.3-1.4-0.4-2.3-0.4c-0.9,0-1.7,0.3-2.4,0.8
		c-0.7,0.5-1.3,1.2-1.8,2.1s-0.8,1.9-1.1,3c-0.2,1.1-0.4,2.2-0.4,3.3c0,0.8,0.1,1.4,0.5,1.9C130,199.5,130.5,199.8,131.1,199.8z"/>
	<path class="st13" d="M142.3,186.4h2.2l0.6-3l2.4-0.7l-0.8,3.7h3.9l-0.4,1.9h-3.9l-1.9,9.1c0,0.2-0.1,0.5-0.1,0.7
		c0,0.2,0,0.4,0,0.5c0,0.5,0.1,0.8,0.3,1c0.2,0.2,0.5,0.3,1,0.3c0.5,0,0.9-0.1,1.3-0.2s0.8-0.3,1.2-0.5v1.8c-0.4,0.2-1,0.4-1.6,0.6
		c-0.7,0.2-1.3,0.2-1.9,0.2c-1.8,0-2.7-0.8-2.7-2.5c0-0.3,0-0.8,0.1-1.3l2-9.7h-2.2L142.3,186.4z"/>
	<path class="st13" d="M154.3,186.4h2.2l-3.2,15h-2.2L154.3,186.4z M154.8,181.8c0-0.5,0.2-0.8,0.5-1.2c0.3-0.3,0.7-0.5,1.2-0.5
		c0.5,0,0.9,0.2,1.2,0.5s0.5,0.7,0.5,1.2s-0.2,0.8-0.5,1.2c-0.3,0.3-0.7,0.5-1.2,0.5c-0.5,0-0.8-0.2-1.2-0.5
		C155,182.6,154.8,182.2,154.8,181.8z"/>
	<path class="st13" d="M158.8,196.7c0-1.6,0.2-3,0.6-4.3c0.4-1.3,1-2.4,1.7-3.4c0.7-0.9,1.6-1.7,2.5-2.2c0.9-0.5,2-0.8,3-0.8
		c0.8,0,1.6,0.1,2.1,0.4c0.6,0.3,1.1,0.6,1.4,1.1s0.6,1,0.8,1.6c0.2,0.6,0.2,1.2,0.2,1.9c0,1.5-0.2,2.9-0.6,4.2
		c-0.4,1.3-0.9,2.4-1.6,3.4c-0.7,1-1.5,1.7-2.4,2.3s-1.9,0.8-3,0.8c-0.9,0-1.7-0.1-2.3-0.4c-0.6-0.3-1.1-0.7-1.5-1.2
		c-0.4-0.5-0.7-1-0.8-1.6C158.9,197.9,158.8,197.3,158.8,196.7z M161.2,196.1c0,1.2,0.2,2.1,0.7,2.7c0.4,0.6,1.1,0.9,2.1,0.9
		c0.7,0,1.3-0.2,1.9-0.7c0.6-0.5,1.1-1.1,1.6-1.9c0.4-0.8,0.8-1.7,1.1-2.7s0.4-2.1,0.4-3.2c0-1-0.2-1.8-0.6-2.4s-1.1-0.9-2.1-0.9
		c-0.7,0-1.3,0.2-1.9,0.7c-0.6,0.4-1.1,1.1-1.6,1.8c-0.5,0.8-0.8,1.6-1.1,2.6S161.2,195.1,161.2,196.1z"/>
	<path class="st13" d="M182.2,201.4l2-9.5c0.1-0.4,0.1-0.7,0.2-1.1s0.1-0.7,0.1-0.9c0-0.6-0.1-1-0.4-1.4c-0.3-0.4-0.8-0.5-1.5-0.5
		c-0.5,0-1,0.1-1.5,0.4c-0.5,0.2-1,0.5-1.4,0.9s-0.8,0.8-1.2,1.2c-0.4,0.4-0.6,0.9-0.9,1.3l-2,9.6h-2.2l3.2-15h1.6l-0.1,2.6h0.1
		c0.3-0.3,0.6-0.7,0.9-1s0.8-0.7,1.2-0.9c0.5-0.3,1-0.5,1.5-0.7c0.6-0.2,1.2-0.3,1.9-0.3c1,0,1.8,0.2,2.4,0.7
		c0.6,0.5,0.9,1.3,0.9,2.5c0,0.6-0.1,1.3-0.3,2.2l-2.1,10H182.2z"/>
	<path class="st13" d="M202.5,188.3l-2.4,14.1c-0.1,0.7-0.3,1.4-0.5,2.1s-0.5,1.2-0.8,1.6c-0.3,0.5-0.8,0.8-1.3,1.1
		c-0.5,0.3-1.2,0.4-1.9,0.4c-0.6,0-1.2,0-1.7-0.1c-0.5-0.1-1-0.2-1.4-0.5l0.7-1.7c0.4,0.1,0.8,0.2,1.1,0.3s0.7,0.1,1.2,0.1
		c0.8,0,1.3-0.4,1.7-1.1c0.4-0.7,0.7-1.9,1-3.5l2.1-12.8h-2.3l0.4-1.9h2.2l0.4-2c0.1-0.7,0.3-1.4,0.5-1.9c0.2-0.5,0.5-1,0.8-1.4
		c0.3-0.4,0.7-0.6,1.2-0.8c0.5-0.2,1.1-0.3,1.8-0.3c0.7,0,1.3,0.1,1.9,0.2c0.6,0.1,1.2,0.3,1.7,0.5l-0.7,1.8c-1-0.4-1.9-0.6-2.8-0.6
		c-0.7,0-1.3,0.3-1.6,0.8c-0.3,0.5-0.6,1.3-0.8,2.4l-0.2,1.2h3l-0.4,1.9H202.5z"/>
	<path class="st13" d="M215.1,188.3c-0.2,0-0.4-0.1-0.6-0.1c-0.2,0-0.4,0-0.5,0c-1,0-1.9,0.3-2.6,1c-0.7,0.6-1.3,1.4-1.7,2.3
		l-2.1,9.8h-2.2l3.2-15h1.6v2.6h0.1c0.2-0.4,0.5-0.7,0.8-1.1c0.3-0.3,0.6-0.6,0.9-0.9c0.3-0.3,0.7-0.5,1.1-0.6
		c0.4-0.1,0.8-0.2,1.3-0.2c0.4,0,0.9,0.1,1.4,0.2L215.1,188.3z"/>
	<path class="st13" d="M215.6,196.7c0-1.6,0.2-3,0.6-4.3c0.4-1.3,1-2.4,1.7-3.4c0.7-0.9,1.6-1.7,2.5-2.2c0.9-0.5,2-0.8,3-0.8
		c0.8,0,1.6,0.1,2.1,0.4c0.6,0.3,1.1,0.6,1.4,1.1s0.6,1,0.8,1.6c0.2,0.6,0.2,1.2,0.2,1.9c0,1.5-0.2,2.9-0.6,4.2
		c-0.4,1.3-0.9,2.4-1.6,3.4c-0.7,1-1.5,1.7-2.4,2.3s-1.9,0.8-3,0.8c-0.9,0-1.7-0.1-2.3-0.4c-0.6-0.3-1.1-0.7-1.5-1.2
		c-0.4-0.5-0.7-1-0.8-1.6C215.6,197.9,215.6,197.3,215.6,196.7z M218,196.1c0,1.2,0.2,2.1,0.7,2.7c0.4,0.6,1.1,0.9,2.1,0.9
		c0.7,0,1.3-0.2,1.9-0.7c0.6-0.5,1.1-1.1,1.6-1.9c0.4-0.8,0.8-1.7,1.1-2.7s0.4-2.1,0.4-3.2c0-1-0.2-1.8-0.6-2.4s-1.1-0.9-2.1-0.9
		c-0.7,0-1.3,0.2-1.9,0.7c-0.6,0.4-1.1,1.1-1.6,1.8c-0.5,0.8-0.8,1.6-1.1,2.6S218,195.1,218,196.1z"/>
	<path class="st13" d="M238.1,201.4l1.8-8.5c0.2-0.7,0.3-1.3,0.4-1.9c0.1-0.5,0.1-1,0.1-1.4c0-0.5-0.1-1-0.3-1.2
		c-0.2-0.3-0.5-0.4-1-0.4c-0.5,0-1,0.1-1.5,0.4s-0.9,0.6-1.4,1c-0.4,0.4-0.8,0.8-1.2,1.2c-0.4,0.4-0.6,0.8-0.8,1.2l-2,9.6h-2.2
		l3.2-15h1.6l-0.2,2.6h0.1c0.3-0.3,0.7-0.7,1-1c0.4-0.3,0.8-0.7,1.2-0.9c0.4-0.3,0.9-0.5,1.5-0.7c0.5-0.2,1.1-0.3,1.8-0.3
		c0.9,0,1.5,0.3,1.8,0.8c0.3,0.6,0.5,1.3,0.5,2.3c0.3-0.4,0.6-0.8,1-1.1c0.4-0.4,0.8-0.7,1.3-1c0.5-0.3,1-0.5,1.5-0.7
		c0.5-0.2,1-0.3,1.6-0.3c0.9,0,1.6,0.2,2.1,0.6c0.5,0.4,0.7,1.2,0.7,2.4c0,0.8-0.1,2-0.5,3.3l-1.9,9h-2.2l1.9-9
		c0.1-0.6,0.2-1.1,0.3-1.6c0.1-0.5,0.1-0.9,0.1-1.2c0-0.5-0.1-0.9-0.3-1.2c-0.2-0.3-0.6-0.4-1.1-0.4c-0.4,0-0.9,0.1-1.3,0.4
		c-0.5,0.3-0.9,0.6-1.4,1c-0.4,0.4-0.8,0.8-1.2,1.3c-0.4,0.5-0.6,0.9-0.8,1.3l-2,9.5H238.1z"/>
	<path class="st13" d="M264.7,186.4h2.2l-3.2,15h-2.2L264.7,186.4z M265.2,181.8c0-0.5,0.2-0.8,0.5-1.2c0.3-0.3,0.7-0.5,1.2-0.5
		c0.5,0,0.9,0.2,1.2,0.5s0.5,0.7,0.5,1.2s-0.2,0.8-0.5,1.2c-0.3,0.3-0.7,0.5-1.2,0.5c-0.5,0-0.8-0.2-1.2-0.5
		C265.3,182.6,265.2,182.2,265.2,181.8z"/>
	<path class="st13" d="M269.8,186.4h2.2l0.6-3l2.4-0.7l-0.8,3.7h3.9l-0.4,1.9h-3.9l-1.9,9.1c0,0.2-0.1,0.5-0.1,0.7
		c0,0.2,0,0.4,0,0.5c0,0.5,0.1,0.8,0.3,1c0.2,0.2,0.5,0.3,1,0.3c0.5,0,0.9-0.1,1.3-0.2s0.8-0.3,1.2-0.5v1.8c-0.4,0.2-1,0.4-1.6,0.6
		c-0.7,0.2-1.3,0.2-1.9,0.2c-1.8,0-2.7-0.8-2.7-2.5c0-0.3,0-0.8,0.1-1.3l2-9.7h-2.2L269.8,186.4z"/>
	<path class="st13" d="M284.8,197.1c0-0.5-0.1-1-0.4-1.3c-0.3-0.4-0.6-0.7-1-1c-0.4-0.3-0.8-0.6-1.3-0.9c-0.5-0.3-0.9-0.6-1.3-0.9
		c-0.4-0.3-0.7-0.8-1-1.2c-0.3-0.5-0.4-1.1-0.4-1.7c0-0.6,0.1-1.1,0.4-1.6s0.6-0.9,1.1-1.3c0.5-0.4,1-0.7,1.7-0.9
		c0.6-0.2,1.4-0.3,2.1-0.3c1.1,0,1.9,0.1,2.5,0.2c0.6,0.1,1.1,0.3,1.6,0.6l-0.8,1.8c-0.8-0.5-1.9-0.7-3.3-0.7
		c-0.8,0-1.5,0.2-2.1,0.5c-0.6,0.4-0.8,0.9-0.8,1.6c0,0.4,0.1,0.8,0.4,1.1c0.3,0.3,0.6,0.6,1,0.9c0.4,0.3,0.8,0.6,1.3,0.9
		c0.5,0.3,0.9,0.6,1.3,1c0.4,0.4,0.7,0.8,1,1.3s0.4,1.1,0.4,1.8c0,1.6-0.5,2.7-1.6,3.6c-1.1,0.8-2.5,1.2-4.2,1.2
		c-0.9,0-1.7-0.1-2.5-0.3s-1.4-0.4-1.8-0.7l0.8-1.9c0.4,0.3,0.9,0.5,1.6,0.7s1.3,0.3,2,0.3c1,0,1.8-0.2,2.4-0.6
		C284.5,198.7,284.8,198,284.8,197.1z"/>
</g>
<g class="st11">
	<path class="st13" d="M147.7,228.9c-0.7,0.6-1.5,1.1-2.5,1.4c-1,0.3-1.9,0.5-2.9,0.5c-1.6,0-2.8-0.5-3.6-1.4s-1.2-2.2-1.2-3.8
		c0-1.6,0.2-3.1,0.7-4.4c0.5-1.3,1.1-2.4,1.8-3.3c0.8-0.9,1.6-1.6,2.6-2.1c0.9-0.5,1.9-0.7,2.9-0.7c0.7,0,1.3,0.1,1.9,0.3
		c0.5,0.2,1,0.5,1.3,0.8c0.3,0.3,0.6,0.7,0.8,1.1c0.2,0.4,0.2,0.9,0.2,1.4c0,1.4-0.7,2.5-2.1,3.3s-3.4,1.2-6,1.2c-0.2,0-0.5,0-0.8,0
		s-0.5,0-0.8,0c-0.1,0.4-0.1,0.7-0.2,1.1c0,0.3-0.1,0.6-0.1,0.9c0,1.1,0.2,2,0.8,2.7c0.5,0.7,1.3,1,2.3,1c0.9,0,1.7-0.1,2.4-0.4
		s1.3-0.6,1.7-0.9L147.7,228.9z M145.1,216.9c-1.1,0-2.1,0.4-2.9,1.1s-1.4,1.9-1.8,3.4c0.8,0,1.5,0,2.4-0.1c0.8,0,1.6-0.1,2.2-0.3
		c0.7-0.2,1.2-0.4,1.7-0.8c0.4-0.4,0.7-0.9,0.7-1.5c0-0.2,0-0.4-0.1-0.6c-0.1-0.2-0.2-0.4-0.3-0.6c-0.2-0.2-0.4-0.3-0.7-0.4
		C146,217,145.6,216.9,145.1,216.9z"/>
	<path class="st13" d="M159.9,230.4l2-9.5c0.1-0.4,0.1-0.7,0.2-1.1s0.1-0.7,0.1-0.9c0-0.6-0.1-1-0.4-1.4c-0.3-0.4-0.8-0.5-1.5-0.5
		c-0.5,0-1,0.1-1.5,0.4c-0.5,0.2-1,0.5-1.4,0.9s-0.8,0.8-1.2,1.2c-0.4,0.4-0.6,0.9-0.9,1.3l-2,9.6H151l3.2-15h1.6l-0.1,2.6h0.1
		c0.3-0.3,0.6-0.7,0.9-1s0.8-0.7,1.2-0.9c0.5-0.3,1-0.5,1.5-0.7c0.6-0.2,1.2-0.3,1.9-0.3c1,0,1.8,0.2,2.4,0.7
		c0.6,0.5,0.9,1.3,0.9,2.5c0,0.6-0.1,1.3-0.3,2.2l-2.1,10H159.9z"/>
	<path class="st13" d="M171.3,224.2l0.3,2.8h0.1l1.3-2.9l5.1-8.7h2.6l-9.4,15.3h-1l-2.9-15.3h2.4L171.3,224.2z"/>
	<path class="st13" d="M183.8,215.4h2.2l-3.2,15h-2.2L183.8,215.4z M184.3,210.8c0-0.5,0.2-0.8,0.5-1.2c0.3-0.3,0.7-0.5,1.2-0.5
		c0.5,0,0.9,0.2,1.2,0.5s0.5,0.7,0.5,1.2s-0.2,0.8-0.5,1.2c-0.3,0.3-0.7,0.5-1.2,0.5c-0.5,0-0.8-0.2-1.2-0.5
		C184.4,211.6,184.3,211.2,184.3,210.8z"/>
	<path class="st13" d="M197.6,217.3c-0.2,0-0.4-0.1-0.6-0.1c-0.2,0-0.4,0-0.5,0c-1,0-1.9,0.3-2.6,1c-0.7,0.6-1.3,1.4-1.7,2.3
		l-2.1,9.8h-2.2l3.2-15h1.6v2.6h0.1c0.2-0.4,0.5-0.7,0.8-1.1c0.3-0.3,0.6-0.6,0.9-0.9c0.3-0.3,0.7-0.5,1.1-0.6
		c0.4-0.1,0.8-0.2,1.3-0.2c0.4,0,0.9,0.1,1.4,0.2L197.6,217.3z"/>
	<path class="st13" d="M198.1,225.7c0-1.6,0.2-3,0.6-4.3c0.4-1.3,1-2.4,1.7-3.4c0.7-0.9,1.6-1.7,2.5-2.2c0.9-0.5,2-0.8,3-0.8
		c0.8,0,1.6,0.1,2.1,0.4c0.6,0.3,1.1,0.6,1.4,1.1s0.6,1,0.8,1.6c0.2,0.6,0.2,1.2,0.2,1.9c0,1.5-0.2,2.9-0.6,4.2
		c-0.4,1.3-0.9,2.4-1.6,3.4c-0.7,1-1.5,1.7-2.4,2.3s-1.9,0.8-3,0.8c-0.9,0-1.7-0.1-2.3-0.4c-0.6-0.3-1.1-0.7-1.5-1.2
		c-0.4-0.5-0.7-1-0.8-1.6C198.2,226.9,198.1,226.3,198.1,225.7z M200.5,225.1c0,1.2,0.2,2.1,0.7,2.7c0.4,0.6,1.1,0.9,2.1,0.9
		c0.7,0,1.3-0.2,1.9-0.7c0.6-0.5,1.1-1.1,1.6-1.9c0.4-0.8,0.8-1.7,1.1-2.7s0.4-2.1,0.4-3.2c0-1-0.2-1.8-0.6-2.4s-1.1-0.9-2.1-0.9
		c-0.7,0-1.3,0.2-1.9,0.7c-0.6,0.4-1.1,1.1-1.6,1.8c-0.5,0.8-0.8,1.6-1.1,2.6S200.5,224.1,200.5,225.1z"/>
	<path class="st13" d="M221.4,230.4l2-9.5c0.1-0.4,0.1-0.7,0.2-1.1s0.1-0.7,0.1-0.9c0-0.6-0.1-1-0.4-1.4c-0.3-0.4-0.8-0.5-1.5-0.5
		c-0.5,0-1,0.1-1.5,0.4c-0.5,0.2-1,0.5-1.4,0.9s-0.8,0.8-1.2,1.2c-0.4,0.4-0.6,0.9-0.9,1.3l-2,9.6h-2.2l3.2-15h1.6l-0.1,2.6h0.1
		c0.3-0.3,0.6-0.7,0.9-1s0.8-0.7,1.2-0.9c0.5-0.3,1-0.5,1.5-0.7c0.6-0.2,1.2-0.3,1.9-0.3c1,0,1.8,0.2,2.4,0.7
		c0.6,0.5,0.9,1.3,0.9,2.5c0,0.6-0.1,1.3-0.3,2.2l-2.1,10H221.4z"/>
	<path class="st13" d="M236.3,230.4l1.8-8.5c0.2-0.7,0.3-1.3,0.4-1.9c0.1-0.5,0.1-1,0.1-1.4c0-0.5-0.1-1-0.3-1.2
		c-0.2-0.3-0.5-0.4-1-0.4c-0.5,0-1,0.1-1.5,0.4s-0.9,0.6-1.4,1c-0.4,0.4-0.8,0.8-1.2,1.2c-0.4,0.4-0.6,0.8-0.8,1.2l-2,9.6h-2.2
		l3.2-15h1.6l-0.2,2.6h0.1c0.3-0.3,0.7-0.7,1-1c0.4-0.3,0.8-0.7,1.2-0.9c0.4-0.3,0.9-0.5,1.5-0.7c0.5-0.2,1.1-0.3,1.8-0.3
		c0.9,0,1.5,0.3,1.8,0.8c0.3,0.6,0.5,1.3,0.5,2.3c0.3-0.4,0.6-0.8,1-1.1c0.4-0.4,0.8-0.7,1.3-1c0.5-0.3,1-0.5,1.5-0.7
		c0.5-0.2,1-0.3,1.6-0.3c0.9,0,1.6,0.2,2.1,0.6c0.5,0.4,0.7,1.2,0.7,2.4c0,0.8-0.1,2-0.5,3.3l-1.9,9h-2.2l1.9-9
		c0.1-0.6,0.2-1.1,0.3-1.6c0.1-0.5,0.1-0.9,0.1-1.2c0-0.5-0.1-0.9-0.3-1.2c-0.2-0.3-0.6-0.4-1.1-0.4c-0.4,0-0.9,0.1-1.3,0.4
		c-0.5,0.3-0.9,0.6-1.4,1c-0.4,0.4-0.8,0.8-1.2,1.3c-0.4,0.5-0.6,0.9-0.8,1.3l-2,9.5H236.3z"/>
	<path class="st13" d="M261.7,228.9c-0.7,0.6-1.5,1.1-2.5,1.4c-1,0.3-1.9,0.5-2.9,0.5c-1.6,0-2.8-0.5-3.6-1.4s-1.2-2.2-1.2-3.8
		c0-1.6,0.2-3.1,0.7-4.4c0.5-1.3,1.1-2.4,1.8-3.3c0.8-0.9,1.6-1.6,2.6-2.1c0.9-0.5,1.9-0.7,2.9-0.7c0.7,0,1.3,0.1,1.9,0.3
		c0.5,0.2,1,0.5,1.3,0.8c0.3,0.3,0.6,0.7,0.8,1.1c0.2,0.4,0.2,0.9,0.2,1.4c0,1.4-0.7,2.5-2.1,3.3s-3.4,1.2-6,1.2c-0.2,0-0.5,0-0.8,0
		s-0.5,0-0.8,0c-0.1,0.4-0.1,0.7-0.2,1.1c0,0.3-0.1,0.6-0.1,0.9c0,1.1,0.2,2,0.8,2.7c0.5,0.7,1.3,1,2.3,1c0.9,0,1.7-0.1,2.4-0.4
		s1.3-0.6,1.7-0.9L261.7,228.9z M259.2,216.9c-1.1,0-2.1,0.4-2.9,1.1s-1.4,1.9-1.8,3.4c0.8,0,1.5,0,2.4-0.1c0.8,0,1.6-0.1,2.2-0.3
		c0.7-0.2,1.2-0.4,1.7-0.8c0.4-0.4,0.7-0.9,0.7-1.5c0-0.2,0-0.4-0.1-0.6c-0.1-0.2-0.2-0.4-0.3-0.6c-0.2-0.2-0.4-0.3-0.7-0.4
		C260,217,259.6,216.9,259.2,216.9z"/>
	<path class="st13" d="M273.9,230.4l2-9.5c0.1-0.4,0.1-0.7,0.2-1.1s0.1-0.7,0.1-0.9c0-0.6-0.1-1-0.4-1.4c-0.3-0.4-0.8-0.5-1.5-0.5
		c-0.5,0-1,0.1-1.5,0.4c-0.5,0.2-1,0.5-1.4,0.9s-0.8,0.8-1.2,1.2c-0.4,0.4-0.6,0.9-0.9,1.3l-2,9.6H265l3.2-15h1.6l-0.1,2.6h0.1
		c0.3-0.3,0.6-0.7,0.9-1s0.8-0.7,1.2-0.9c0.5-0.3,1-0.5,1.5-0.7c0.6-0.2,1.2-0.3,1.9-0.3c1,0,1.8,0.2,2.4,0.7
		c0.6,0.5,0.9,1.3,0.9,2.5c0,0.6-0.1,1.3-0.3,2.2l-2.1,10H273.9z"/>
	<path class="st13" d="M281.7,215.4h2.2l0.6-3l2.4-0.7l-0.8,3.7h3.9l-0.4,1.9h-3.9l-1.9,9.1c0,0.2-0.1,0.5-0.1,0.7
		c0,0.2,0,0.4,0,0.5c0,0.5,0.1,0.8,0.3,1c0.2,0.2,0.5,0.3,1,0.3c0.5,0,0.9-0.1,1.3-0.2s0.8-0.3,1.2-0.5v1.8c-0.4,0.2-1,0.4-1.6,0.6
		c-0.7,0.2-1.3,0.2-1.9,0.2c-1.8,0-2.7-0.8-2.7-2.5c0-0.3,0-0.8,0.1-1.3l2-9.7h-2.2L281.7,215.4z"/>
</g>
<g class="st11">
	<path class="st13" d="M753.7,413c-0.2,1-0.4,1.9-0.6,2.7c-0.3,0.8-0.6,1.4-1,2c-0.4,0.5-0.9,0.9-1.5,1.2c-0.6,0.3-1.4,0.4-2.2,0.4
		c-0.7,0-1.4-0.1-2.1-0.2c-0.7-0.1-1.3-0.3-1.8-0.7l1-2.8c0.3,0.1,0.7,0.2,1,0.3s0.8,0.1,1.3,0.1c0.6,0,1.1-0.2,1.5-0.7
		c0.4-0.5,0.6-1.2,0.8-2.2l1.8-11.9h-2l0.6-3.1h1.9l0.2-0.8c0.4-1.9,1.2-3.3,2.3-4.2c1.1-0.9,2.6-1.3,4.3-1.3c1.3,0,2.5,0.1,3.4,0.3
		c1,0.2,1.7,0.5,2.3,0.9l-1.5,2.8c-0.4-0.3-1-0.5-1.7-0.7c-0.7-0.2-1.5-0.3-2.3-0.3c-0.6,0-1,0.1-1.4,0.2c-0.4,0.1-0.7,0.4-0.9,0.7
		c-0.2,0.3-0.4,0.6-0.6,1c-0.2,0.4-0.3,0.8-0.4,1.3h7.6l-2.2,15h-3.7l1.8-11.9h-4L753.7,413z"/>
	<path class="st13" d="M770.5,398l0,2.7h0.1c0.4-0.8,1-1.5,1.6-2.1c0.6-0.6,1.4-0.9,2.4-0.9c0.4,0,0.9,0.1,1.5,0.2l-0.9,3.3
		c-0.2-0.1-0.4-0.1-0.6-0.1s-0.4-0.1-0.6-0.1c-0.8,0-1.6,0.3-2.3,0.8c-0.7,0.5-1.2,1.1-1.6,1.8l-2,9.3h-3.7l3.2-15H770.5z"/>
	<path class="st13" d="M786.4,411.6c-0.6,0.5-1.4,1-2.4,1.3c-1,0.4-2.1,0.5-3.4,0.5c-1.6,0-2.9-0.5-3.8-1.4c-0.9-1-1.4-2.3-1.4-4
		c0-1.6,0.2-3,0.8-4.3s1.2-2.4,2-3.3c0.8-0.9,1.7-1.6,2.7-2.1c1-0.5,2-0.7,3.1-0.7c0.8,0,1.5,0.1,2.1,0.3c0.6,0.2,1.1,0.5,1.5,0.9
		c0.4,0.4,0.7,0.8,0.8,1.3c0.2,0.5,0.3,1,0.3,1.5c0,0.8-0.2,1.5-0.6,2.2s-1,1.1-1.8,1.5s-1.7,0.7-2.7,0.9c-1.1,0.2-2.2,0.3-3.5,0.3
		c-0.2,0-0.3,0-0.5,0c-0.1,0-0.3,0-0.4,0c0,0.2-0.1,0.5-0.1,0.7c0,0.2,0,0.4,0,0.5c0,0.9,0.2,1.6,0.7,2c0.5,0.4,1.1,0.7,2,0.7
		c0.9,0,1.7-0.1,2.4-0.4s1.2-0.5,1.6-0.8L786.4,411.6z M779.6,404.2c0.6,0,1.2,0,1.8-0.1s1.2-0.1,1.8-0.3s1-0.4,1.4-0.6
		c0.4-0.3,0.5-0.7,0.5-1.2c0-0.3-0.1-0.6-0.3-0.9c-0.2-0.3-0.7-0.5-1.4-0.5c-0.9,0-1.6,0.3-2.3,1
		C780.4,402.3,779.9,403.1,779.6,404.2z"/>
	<path class="st13" d="M801.6,398l1,7.7l0,2.5h0.2l0.9-2.5l3.5-7.7h3.6l-7.7,15.2h-2.7l-1-8.4v-1.9h-0.1l-0.8,1.9l-4.5,8.4h-2.8
		l-1.4-15.2h3.7l0.5,7.5l-0.2,2.7h0.1l1-2.7l4-7.5H801.6z"/>
	<path class="st13" d="M821.9,407c-0.2,0.8-0.3,1.5-0.3,2.3c-0.1,0.8-0.1,1.5-0.1,2.2c0,0.3,0,0.5,0,0.8c0,0.2,0,0.5,0,0.7h-2.7
		l-0.4-2.6h-0.1c-0.2,0.4-0.5,0.7-0.9,1.1c-0.3,0.4-0.7,0.7-1.2,1c-0.4,0.3-0.9,0.5-1.3,0.7s-1,0.3-1.5,0.3c-1.3,0-2.3-0.4-2.9-1.3
		c-0.6-0.9-0.9-2-0.9-3.5c0-1.5,0.2-2.9,0.6-4.2s0.9-2.5,1.7-3.5c0.8-1,1.8-1.8,3-2.4c1.2-0.6,2.6-0.9,4.2-0.9
		c0.7,0,1.5,0.1,2.3,0.2s1.6,0.3,2.4,0.5L821.9,407z M814.9,410.4c0.4,0,0.7-0.1,1-0.2c0.3-0.2,0.6-0.3,0.9-0.6
		c0.3-0.2,0.5-0.5,0.7-0.8c0.2-0.3,0.4-0.5,0.6-0.8l1.5-7c-0.2-0.1-0.5-0.2-0.8-0.2c-0.3-0.1-0.6-0.1-0.9-0.1
		c-0.7,0-1.4,0.2-1.9,0.6c-0.6,0.4-1,1-1.4,1.7c-0.4,0.7-0.7,1.5-0.9,2.4c-0.2,0.9-0.3,1.8-0.3,2.6c0,0.6,0.1,1.2,0.3,1.7
		C814,410.1,814.3,410.4,814.9,410.4z"/>
	<path class="st13" d="M828.8,408.6c-0.1,0.6-0.1,1,0,1.3c0.1,0.3,0.3,0.4,0.6,0.4c0.6,0,1.1-0.1,1.6-0.3l-0.1,2.6
		c-0.4,0.2-0.9,0.4-1.6,0.5c-0.7,0.1-1.4,0.2-2,0.2c-0.9,0-1.5-0.2-2-0.5s-0.7-0.9-0.7-1.8c0-0.5,0.1-1,0.2-1.6l3.7-17.4h3.7
		L828.8,408.6z"/>
	<path class="st13" d="M836.9,408.6c-0.1,0.6-0.1,1,0,1.3s0.3,0.4,0.6,0.4c0.6,0,1.1-0.1,1.6-0.3l-0.1,2.6c-0.4,0.2-0.9,0.4-1.6,0.5
		c-0.7,0.1-1.4,0.2-2,0.2c-0.9,0-1.5-0.2-2-0.5c-0.5-0.3-0.7-0.9-0.7-1.8c0-0.5,0.1-1,0.2-1.6l3.7-17.4h3.7L836.9,408.6z"/>
</g>
<g class="st11">
	<path class="st13" d="M842.7,411.6c0-0.5,0.2-1,0.5-1.3c0.3-0.3,0.7-0.5,1.3-0.5c0.5,0,0.9,0.2,1.3,0.5c0.3,0.3,0.5,0.7,0.5,1.3
		c0,0.5-0.2,0.9-0.5,1.3c-0.3,0.3-0.7,0.5-1.3,0.5c-0.5,0-0.9-0.2-1.3-0.5C842.9,412.6,842.7,412.1,842.7,411.6z M845.2,399.5
		c0-0.5,0.2-1,0.5-1.3c0.3-0.3,0.7-0.5,1.3-0.5c0.5,0,0.9,0.2,1.3,0.5c0.3,0.3,0.5,0.7,0.5,1.3c0,0.5-0.2,0.9-0.5,1.3
		c-0.3,0.3-0.7,0.5-1.3,0.5c-0.5,0-0.9-0.2-1.3-0.5C845.4,400.5,845.2,400.1,845.2,399.5z"/>
	<path class="st13" d="M860,409.4c-0.1,0.3-0.1,0.6-0.1,0.8c0,0.4,0.1,0.7,0.2,0.8c0.1,0.2,0.3,0.3,0.5,0.3c0.4,0,0.7,0,1-0.1
		c0.3,0,0.6-0.1,1-0.3v1.7c-0.2,0.1-0.4,0.2-0.6,0.3c-0.2,0.1-0.5,0.1-0.7,0.2s-0.5,0.1-0.8,0.1c-0.2,0-0.5,0-0.7,0
		c-0.7,0-1.3-0.2-1.7-0.5s-0.6-0.9-0.6-1.8c0-0.4,0.1-0.9,0.2-1.5l3.7-17.5h2.2L860,409.4z"/>
	<path class="st13" d="M869,398h2.2l-3.2,15h-2.2L869,398z M869.4,393.4c0-0.5,0.2-0.8,0.5-1.2c0.3-0.3,0.7-0.5,1.2-0.5
		c0.5,0,0.8,0.2,1.2,0.5c0.3,0.3,0.5,0.7,0.5,1.2s-0.2,0.8-0.5,1.2c-0.3,0.3-0.7,0.5-1.2,0.5c-0.5,0-0.8-0.2-1.2-0.5
		C869.6,394.3,869.4,393.9,869.4,393.4z"/>
	<path class="st13" d="M881.1,413l1.8-8.5c0.2-0.7,0.3-1.3,0.4-1.9c0.1-0.5,0.1-1,0.1-1.4c0-0.5-0.1-1-0.3-1.2s-0.5-0.4-1-0.4
		c-0.5,0-1,0.1-1.5,0.4c-0.5,0.3-0.9,0.6-1.4,1c-0.4,0.4-0.8,0.8-1.2,1.2c-0.3,0.4-0.6,0.8-0.8,1.2l-2,9.6H873l3.2-15h1.6l-0.2,2.6
		h0.1c0.3-0.3,0.7-0.7,1-1s0.8-0.7,1.2-0.9c0.4-0.3,0.9-0.5,1.5-0.7c0.5-0.2,1.1-0.3,1.8-0.3c0.9,0,1.5,0.3,1.8,0.8
		c0.3,0.6,0.5,1.3,0.5,2.3c0.3-0.4,0.6-0.8,1-1.1c0.4-0.4,0.8-0.7,1.3-1s1-0.5,1.5-0.7c0.5-0.2,1-0.3,1.6-0.3c0.9,0,1.6,0.2,2.1,0.6
		s0.7,1.2,0.7,2.4c0,0.8-0.2,2-0.5,3.3l-1.9,9h-2.2l1.9-9c0.1-0.6,0.2-1.1,0.3-1.6c0.1-0.5,0.1-0.9,0.1-1.2c0-0.5-0.1-0.9-0.3-1.2
		s-0.6-0.4-1.1-0.4c-0.4,0-0.9,0.1-1.3,0.4c-0.5,0.3-0.9,0.6-1.4,1c-0.4,0.4-0.8,0.8-1.2,1.3c-0.3,0.5-0.6,0.9-0.8,1.3l-2,9.5H881.1
		z"/>
	<path class="st13" d="M899.6,398h2.2l-3.2,15h-2.2L899.6,398z M900.1,393.4c0-0.5,0.2-0.8,0.5-1.2c0.3-0.3,0.7-0.5,1.2-0.5
		c0.5,0,0.8,0.2,1.2,0.5c0.3,0.3,0.5,0.7,0.5,1.2s-0.2,0.8-0.5,1.2c-0.3,0.3-0.7,0.5-1.2,0.5c-0.5,0-0.8-0.2-1.2-0.5
		C900.3,394.3,900.1,393.9,900.1,393.4z"/>
	<path class="st13" d="M904.7,398h2.2l0.6-3l2.4-0.7l-0.8,3.7h3.9l-0.5,1.9h-3.9l-1.9,9.1c0,0.2-0.1,0.5-0.1,0.7c0,0.2,0,0.4,0,0.5
		c0,0.5,0.1,0.8,0.3,1c0.2,0.2,0.5,0.3,1,0.3c0.5,0,0.9-0.1,1.3-0.2c0.4-0.1,0.8-0.3,1.2-0.5v1.8c-0.4,0.2-1,0.4-1.6,0.6
		c-0.7,0.2-1.3,0.2-1.9,0.2c-1.8,0-2.7-0.8-2.7-2.5c0-0.3,0-0.8,0.2-1.3l2-9.7h-2.2L904.7,398z"/>
	<path class="st13" d="M919.7,408.8c0-0.5-0.1-1-0.4-1.3c-0.3-0.4-0.6-0.7-1-1c-0.4-0.3-0.8-0.6-1.3-0.9c-0.5-0.3-0.9-0.6-1.3-0.9
		c-0.4-0.3-0.7-0.8-1-1.2c-0.3-0.5-0.4-1.1-0.4-1.7c0-0.6,0.1-1.1,0.4-1.6c0.3-0.5,0.6-0.9,1.1-1.3c0.5-0.4,1-0.7,1.7-0.9
		s1.4-0.3,2.1-0.3c1.1,0,1.9,0.1,2.5,0.2c0.6,0.1,1.1,0.3,1.6,0.6l-0.8,1.8c-0.8-0.5-1.9-0.7-3.3-0.7c-0.8,0-1.5,0.2-2.1,0.5
		c-0.6,0.4-0.8,0.9-0.8,1.6c0,0.4,0.1,0.8,0.4,1.1c0.3,0.3,0.6,0.6,1,0.9c0.4,0.3,0.8,0.6,1.3,0.9s0.9,0.6,1.3,1
		c0.4,0.4,0.7,0.8,1,1.3s0.4,1.1,0.4,1.8c0,1.6-0.5,2.7-1.6,3.6c-1.1,0.8-2.5,1.2-4.2,1.2c-0.9,0-1.7-0.1-2.5-0.3s-1.4-0.4-1.8-0.7
		l0.8-1.9c0.4,0.3,0.9,0.5,1.6,0.7c0.7,0.2,1.3,0.3,2,0.3c1,0,1.8-0.2,2.4-0.6C919.5,410.4,919.7,409.7,919.7,408.8z"/>
	<path class="st13" d="M934.1,398h2.2l0.6-3l2.4-0.7l-0.8,3.7h3.9l-0.4,1.9h-3.9l-1.9,9.1c0,0.2-0.1,0.5-0.1,0.7c0,0.2,0,0.4,0,0.5
		c0,0.5,0.1,0.8,0.3,1c0.2,0.2,0.5,0.3,1,0.3c0.5,0,0.9-0.1,1.3-0.2c0.4-0.1,0.8-0.3,1.2-0.5v1.8c-0.4,0.2-1,0.4-1.6,0.6
		c-0.7,0.2-1.3,0.2-1.9,0.2c-1.8,0-2.7-0.8-2.7-2.5c0-0.3,0-0.8,0.1-1.3l2-9.7h-2.2L934.1,398z"/>
	<path class="st13" d="M951.5,413l1.8-8.5c0.1-0.6,0.2-1.1,0.3-1.6c0.1-0.5,0.1-0.9,0.1-1.2c0-0.7-0.2-1.3-0.5-1.6
		c-0.3-0.3-0.8-0.5-1.4-0.5c-0.5,0-1,0.1-1.6,0.4c-0.5,0.3-1.1,0.6-1.6,1s-0.9,0.9-1.3,1.4c-0.4,0.5-0.7,1-0.9,1.5l-1.9,9.1h-2.2
		l4.4-21h2.2l-1.9,8.6h0.1c0.3-0.3,0.6-0.6,0.9-1c0.4-0.3,0.8-0.7,1.3-0.9c0.5-0.3,1-0.5,1.6-0.7c0.6-0.2,1.2-0.3,1.8-0.3
		c1,0,1.8,0.2,2.3,0.7c0.6,0.5,0.8,1.3,0.8,2.6c0,0.8-0.1,1.8-0.4,3l-1.9,9.1H951.5z"/>
	<path class="st13" d="M968.9,411.5c-0.7,0.6-1.5,1.1-2.5,1.4c-1,0.3-1.9,0.5-2.9,0.5c-1.6,0-2.8-0.5-3.6-1.4
		c-0.8-0.9-1.2-2.2-1.2-3.8c0-1.6,0.2-3.1,0.7-4.4c0.5-1.3,1.1-2.4,1.8-3.3c0.8-0.9,1.6-1.6,2.5-2.1c1-0.5,1.9-0.7,2.9-0.7
		c0.7,0,1.3,0.1,1.9,0.3s1,0.5,1.3,0.8c0.3,0.3,0.6,0.7,0.8,1.1c0.2,0.4,0.2,0.9,0.2,1.4c0,1.4-0.7,2.5-2.1,3.3s-3.4,1.2-6,1.2
		c-0.2,0-0.5,0-0.8,0s-0.5,0-0.8,0c-0.1,0.4-0.1,0.7-0.2,1.1s-0.1,0.6-0.1,0.9c0,1.1,0.2,2,0.8,2.7c0.5,0.7,1.3,1,2.3,1
		c0.9,0,1.7-0.1,2.4-0.4c0.7-0.3,1.3-0.6,1.7-0.9L968.9,411.5z M966.3,399.6c-1.1,0-2.1,0.4-2.9,1.1c-0.8,0.8-1.4,1.9-1.8,3.4
		c0.8,0,1.5,0,2.4-0.1s1.6-0.1,2.2-0.3c0.7-0.2,1.2-0.4,1.7-0.8c0.4-0.4,0.7-0.9,0.7-1.5c0-0.2,0-0.4-0.1-0.6s-0.2-0.4-0.3-0.6
		c-0.2-0.2-0.4-0.3-0.7-0.4C967.1,399.6,966.7,399.6,966.3,399.6z"/>
	<path class="st13" d="M991.7,407.8c-0.2,0.8-0.3,1.5-0.4,2.2c-0.1,0.7-0.1,1.3-0.1,1.9c0,0.2,0,0.4,0,0.6c0,0.2,0,0.4,0,0.5h-1.5
		l-0.4-2.6h-0.1c-0.2,0.3-0.5,0.7-0.9,1c-0.4,0.3-0.8,0.7-1.2,0.9c-0.4,0.3-0.9,0.5-1.4,0.7c-0.5,0.2-1,0.3-1.5,0.3
		c-1.1,0-2-0.4-2.6-1.2c-0.7-0.8-1-2.1-1-3.9c0-1.2,0.2-2.4,0.5-3.6c0.3-1.2,0.8-2.4,1.5-3.4c0.7-1,1.5-1.9,2.5-2.5
		c1-0.7,2.1-1,3.4-1c0.4,0,0.7,0,0.9,0c0.3,0,0.5,0.1,0.7,0.1c0.2,0,0.4,0.1,0.6,0.2c0.2,0.1,0.4,0.1,0.6,0.2l1.3-6.2h2.2
		L991.7,407.8z M985,411.4c0.4,0,0.9-0.1,1.3-0.3c0.4-0.2,0.9-0.5,1.2-0.9c0.4-0.3,0.7-0.7,1-1.1c0.3-0.4,0.6-0.8,0.7-1.1l1.7-7.8
		c-0.3-0.2-0.7-0.4-1.2-0.5c-0.4-0.1-1-0.1-1.7-0.1c-0.8,0-1.5,0.2-2.2,0.7c-0.6,0.5-1.2,1.1-1.6,2c-0.5,0.8-0.8,1.8-1,2.8
		c-0.2,1.1-0.4,2.2-0.4,3.3c0,0.8,0.2,1.5,0.5,2.1C983.8,411.1,984.3,411.4,985,411.4z"/>
	<path class="st13" d="M1006.7,407.1c-0.2,0.7-0.3,1.5-0.3,2.2c-0.1,0.8-0.1,1.5-0.1,2.1c0,0.3,0,0.6,0,0.9c0,0.3,0,0.5,0.1,0.7
		h-1.7l-0.4-2.6h-0.1c-0.2,0.3-0.5,0.7-0.9,1s-0.7,0.7-1.2,0.9c-0.4,0.3-0.9,0.5-1.3,0.7c-0.5,0.2-1,0.3-1.5,0.3
		c-2.4,0-3.6-1.5-3.6-4.7c0-1.3,0.2-2.6,0.5-3.9c0.3-1.3,0.8-2.5,1.5-3.6s1.6-1.9,2.7-2.6c1.1-0.7,2.4-1,3.9-1
		c0.6,0,1.2,0.1,2.1,0.2c0.8,0.1,1.6,0.3,2.3,0.5L1006.7,407.1z M1000,411.4c0.5,0,0.9-0.1,1.4-0.3c0.4-0.2,0.9-0.5,1.2-0.9
		s0.7-0.7,1-1.1c0.3-0.4,0.5-0.8,0.7-1.1l1.7-8.1c-0.6-0.3-1.4-0.4-2.3-0.4c-0.9,0-1.7,0.3-2.4,0.8s-1.3,1.2-1.8,2.1
		c-0.5,0.9-0.8,1.9-1.1,3s-0.4,2.2-0.4,3.3c0,0.8,0.2,1.4,0.5,1.9C998.9,411.2,999.3,411.4,1000,411.4z"/>
	<path class="st13" d="M1011.1,398h2.2l0.6-3l2.4-0.7l-0.8,3.7h3.9l-0.4,1.9h-3.9l-1.9,9.1c0,0.2-0.1,0.5-0.1,0.7c0,0.2,0,0.4,0,0.5
		c0,0.5,0.1,0.8,0.3,1c0.2,0.2,0.5,0.3,1,0.3c0.5,0,0.9-0.1,1.3-0.2c0.4-0.1,0.8-0.3,1.2-0.5v1.8c-0.4,0.2-1,0.4-1.6,0.6
		c-0.7,0.2-1.3,0.2-1.9,0.2c-1.8,0-2.7-0.8-2.7-2.5c0-0.3,0-0.8,0.1-1.3l2-9.7h-2.2L1011.1,398z"/>
	<path class="st13" d="M1030.7,407.1c-0.2,0.7-0.3,1.5-0.3,2.2c-0.1,0.8-0.1,1.5-0.1,2.1c0,0.3,0,0.6,0,0.9c0,0.3,0,0.5,0.1,0.7
		h-1.6l-0.4-2.6h-0.1c-0.2,0.3-0.5,0.7-0.9,1c-0.4,0.3-0.7,0.7-1.2,0.9c-0.4,0.3-0.9,0.5-1.3,0.7c-0.5,0.2-1,0.3-1.5,0.3
		c-2.4,0-3.6-1.5-3.6-4.7c0-1.3,0.2-2.6,0.5-3.9c0.3-1.3,0.8-2.5,1.5-3.6s1.6-1.9,2.7-2.6c1.1-0.7,2.4-1,3.9-1c0.6,0,1.2,0.1,2,0.2
		c0.8,0.1,1.6,0.3,2.3,0.5L1030.7,407.1z M1024,411.4c0.5,0,0.9-0.1,1.4-0.3c0.4-0.2,0.9-0.5,1.2-0.9c0.4-0.3,0.7-0.7,1-1.1
		c0.3-0.4,0.5-0.8,0.7-1.1l1.7-8.1c-0.6-0.3-1.4-0.4-2.3-0.4s-1.7,0.3-2.4,0.8c-0.7,0.5-1.3,1.2-1.8,2.1c-0.5,0.9-0.8,1.9-1.1,3
		c-0.2,1.1-0.4,2.2-0.4,3.3c0,0.8,0.1,1.4,0.5,1.9C1022.9,411.2,1023.3,411.4,1024,411.4z"/>
	<path class="st13" d="M1045.1,399.9h-2.2l0.4-1.9h2.2c0.2-1.2,0.5-2.2,0.9-3c0.4-0.8,0.8-1.5,1.3-2c0.5-0.5,1.1-0.9,1.8-1.1
		c0.7-0.2,1.5-0.3,2.4-0.3c0.4,0,0.8,0,1.3,0c0.5,0,0.9,0.1,1.4,0.1c0.5,0.1,0.9,0.1,1.3,0.2c0.4,0.1,0.7,0.1,1,0.2l-2.8,17.2
		c-0.1,0.3-0.1,0.6-0.1,0.8c0,0.8,0.3,1.2,1,1.2c0.3,0,0.5,0,0.8-0.1s0.6-0.1,1-0.3l-0.1,1.7c-0.2,0.1-0.4,0.2-0.6,0.2
		c-0.2,0.1-0.5,0.1-0.8,0.2c-0.3,0-0.5,0.1-0.8,0.1c-0.3,0-0.5,0-0.6,0c-0.7,0-1.3-0.2-1.7-0.5s-0.6-0.9-0.6-1.7c0-0.1,0-0.2,0-0.3
		c0-0.1,0-0.3,0.1-0.7c0-0.4,0.1-0.9,0.2-1.6s0.3-1.7,0.5-3s0.5-2.8,0.8-4.8c0.3-1.9,0.7-4.2,1.1-7c-0.3-0.1-0.7-0.1-1.2-0.2
		c-0.5-0.1-1-0.1-1.6-0.1c-0.6,0-1.2,0.1-1.6,0.3s-0.8,0.5-1.1,0.9c-0.3,0.4-0.5,0.9-0.7,1.4c-0.2,0.6-0.3,1.2-0.5,1.8h3l-0.4,1.9
		h-3l-1.9,13.1c-0.2,1.1-0.4,2-0.6,2.8c-0.2,0.8-0.5,1.4-0.9,1.9s-0.8,0.9-1.3,1.1c-0.5,0.2-1.2,0.4-1.9,0.4c-0.6,0-1.2,0-1.7-0.1
		c-0.5-0.1-1-0.2-1.4-0.5l0.7-1.7c0.4,0.1,0.8,0.2,1.1,0.3s0.7,0.1,1.2,0.1c0.8,0,1.3-0.4,1.7-1.2s0.7-1.8,0.9-3.1L1045.1,399.9z"/>
</g>
<g class="st11">
	<path class="st13" d="M1058.8,408.3c0-1.6,0.2-3,0.6-4.3s1-2.4,1.7-3.4c0.7-0.9,1.6-1.7,2.5-2.2c0.9-0.5,2-0.8,3-0.8
		c0.8,0,1.6,0.1,2.1,0.4c0.6,0.3,1.1,0.6,1.4,1.1s0.6,1,0.8,1.6s0.2,1.2,0.2,1.9c0,1.5-0.2,2.9-0.6,4.2c-0.4,1.3-0.9,2.4-1.6,3.4
		c-0.7,1-1.5,1.7-2.4,2.3s-1.9,0.8-3,0.8c-0.9,0-1.7-0.1-2.3-0.4c-0.6-0.3-1.1-0.7-1.5-1.2c-0.4-0.5-0.7-1-0.8-1.6
		C1058.9,409.5,1058.8,408.9,1058.8,408.3z M1061.2,407.8c0,1.2,0.2,2.1,0.7,2.7c0.4,0.6,1.1,0.9,2.1,0.9c0.7,0,1.3-0.2,1.9-0.7
		s1.1-1.1,1.6-1.9c0.4-0.8,0.8-1.7,1.1-2.7c0.3-1,0.4-2.1,0.4-3.2c0-1-0.2-1.8-0.6-2.4s-1.1-0.9-2.1-0.9c-0.7,0-1.3,0.2-1.9,0.7
		c-0.6,0.4-1.1,1.1-1.6,1.8c-0.5,0.8-0.8,1.6-1.1,2.6C1061.4,405.7,1061.2,406.7,1061.2,407.8z"/>
</g>
<g class="st11">
	<path class="st13" d="M1084.9,398l1.4,8.8l0.1,2.9h0l1.2-2.9l4.4-8.7h2.2l-8.1,15.3h-1.1l-1.6-9.9l0-2.5h-0.1l-1.1,2.5l-5.7,9.9
		h-1.1l-1.7-15.3h2.2l0.9,8.7l-0.1,2.9h0.1l1.2-3l5-8.7H1084.9z"/>
</g>
<g class="st11">
	<path class="st13" d="M861.7,427h2.2l0.6-3l2.4-0.7l-0.8,3.7h3.9l-0.4,1.9h-3.9l-1.9,9.1c0,0.2-0.1,0.5-0.1,0.7c0,0.2,0,0.4,0,0.5
		c0,0.5,0.1,0.8,0.3,1c0.2,0.2,0.5,0.3,1,0.3c0.5,0,0.9-0.1,1.3-0.2c0.4-0.1,0.8-0.3,1.2-0.5v1.8c-0.4,0.2-1,0.4-1.6,0.6
		c-0.7,0.2-1.3,0.2-1.9,0.2c-1.8,0-2.7-0.8-2.7-2.5c0-0.3,0-0.8,0.1-1.3l2-9.7h-2.2L861.7,427z"/>
	<path class="st13" d="M870.4,437.3c0-1.6,0.2-3,0.6-4.3c0.4-1.3,1-2.4,1.7-3.4s1.6-1.7,2.5-2.2c1-0.5,2-0.8,3-0.8
		c0.8,0,1.6,0.1,2.1,0.4c0.6,0.3,1.1,0.6,1.4,1.1s0.6,1,0.8,1.6c0.2,0.6,0.2,1.2,0.2,1.9c0,1.5-0.2,2.9-0.6,4.2
		c-0.4,1.3-0.9,2.4-1.6,3.4c-0.7,1-1.5,1.7-2.4,2.3s-1.9,0.8-3,0.8c-0.9,0-1.7-0.1-2.3-0.4c-0.6-0.3-1.1-0.7-1.5-1.2
		c-0.4-0.5-0.7-1-0.8-1.6C870.5,438.5,870.4,437.9,870.4,437.3z M872.8,436.8c0,1.2,0.2,2.1,0.7,2.7c0.4,0.6,1.1,0.9,2.1,0.9
		c0.7,0,1.3-0.2,1.9-0.7c0.6-0.5,1.1-1.1,1.6-1.9s0.8-1.7,1.1-2.7c0.3-1,0.4-2.1,0.4-3.2c0-1-0.2-1.8-0.6-2.4s-1.1-0.9-2.1-0.9
		c-0.7,0-1.3,0.2-1.9,0.7c-0.6,0.4-1.1,1.1-1.6,1.8c-0.5,0.8-0.8,1.6-1.1,2.6C873,434.7,872.8,435.7,872.8,436.8z"/>
	<path class="st13" d="M894,427h2.2l0.6-3l2.4-0.7l-0.8,3.7h3.9l-0.5,1.9h-3.9l-1.9,9.1c0,0.2-0.1,0.5-0.1,0.7c0,0.2,0,0.4,0,0.5
		c0,0.5,0.1,0.8,0.3,1c0.2,0.2,0.5,0.3,1,0.3c0.5,0,0.9-0.1,1.3-0.2c0.4-0.1,0.8-0.3,1.2-0.5v1.8c-0.4,0.2-1,0.4-1.6,0.6
		c-0.7,0.2-1.3,0.2-1.9,0.2c-1.8,0-2.7-0.8-2.7-2.5c0-0.3,0-0.8,0.2-1.3l2-9.7h-2.2L894,427z"/>
	<path class="st13" d="M911.5,442l1.8-8.5c0.1-0.6,0.2-1.1,0.3-1.6c0.1-0.5,0.1-0.9,0.1-1.2c0-0.7-0.2-1.3-0.5-1.6
		c-0.3-0.3-0.8-0.5-1.4-0.5c-0.5,0-1,0.1-1.6,0.4c-0.5,0.3-1.1,0.6-1.6,1c-0.5,0.4-0.9,0.9-1.3,1.4c-0.4,0.5-0.7,1-0.9,1.5l-1.9,9.1
		h-2.2l4.4-21h2.2l-1.9,8.6h0.1c0.3-0.3,0.6-0.6,0.9-1c0.4-0.3,0.8-0.7,1.3-0.9c0.5-0.3,1-0.5,1.6-0.7c0.6-0.2,1.2-0.3,1.8-0.3
		c1,0,1.7,0.2,2.3,0.7c0.6,0.5,0.8,1.3,0.8,2.6c0,0.8-0.1,1.8-0.4,3l-1.9,9.1H911.5z"/>
	<path class="st13" d="M928.8,440.5c-0.7,0.6-1.5,1.1-2.5,1.4c-1,0.3-1.9,0.5-2.9,0.5c-1.6,0-2.8-0.5-3.6-1.4
		c-0.8-0.9-1.2-2.2-1.2-3.8c0-1.6,0.2-3.1,0.7-4.4c0.5-1.3,1.1-2.4,1.8-3.3c0.8-0.9,1.6-1.6,2.5-2.1c1-0.5,1.9-0.7,2.9-0.7
		c0.7,0,1.3,0.1,1.9,0.3s1,0.5,1.3,0.8c0.3,0.3,0.6,0.7,0.8,1.1c0.2,0.4,0.2,0.9,0.2,1.4c0,1.4-0.7,2.5-2.1,3.3s-3.4,1.2-6,1.2
		c-0.2,0-0.5,0-0.8,0s-0.5,0-0.8,0c-0.1,0.4-0.1,0.7-0.2,1.1s-0.1,0.6-0.1,0.9c0,1.1,0.2,2,0.8,2.7c0.5,0.7,1.3,1,2.3,1
		c0.9,0,1.7-0.1,2.4-0.4c0.7-0.3,1.3-0.6,1.7-0.9L928.8,440.5z M926.3,428.6c-1.1,0-2.1,0.4-2.9,1.1c-0.8,0.8-1.4,1.9-1.8,3.4
		c0.8,0,1.5,0,2.4-0.1s1.6-0.1,2.2-0.3c0.7-0.2,1.2-0.4,1.7-0.8c0.4-0.4,0.7-0.9,0.7-1.5c0-0.2,0-0.4-0.1-0.6s-0.2-0.4-0.3-0.6
		c-0.2-0.2-0.4-0.3-0.7-0.4C927.1,428.6,926.7,428.6,926.3,428.6z"/>
	<path class="st13" d="M950.7,440.5c-0.7,0.6-1.5,1.1-2.5,1.4c-1,0.3-1.9,0.5-2.9,0.5c-1.6,0-2.8-0.5-3.6-1.4
		c-0.8-0.9-1.2-2.2-1.2-3.8c0-1.6,0.2-3.1,0.7-4.4c0.5-1.3,1.1-2.4,1.8-3.3c0.8-0.9,1.6-1.6,2.6-2.1c0.9-0.5,1.9-0.7,2.9-0.7
		c0.7,0,1.3,0.1,1.9,0.3c0.5,0.2,1,0.5,1.3,0.8s0.6,0.7,0.8,1.1c0.2,0.4,0.2,0.9,0.2,1.4c0,1.4-0.7,2.5-2.1,3.3s-3.4,1.2-6,1.2
		c-0.2,0-0.5,0-0.8,0s-0.5,0-0.8,0c-0.1,0.4-0.1,0.7-0.2,1.1c0,0.3-0.1,0.6-0.1,0.9c0,1.1,0.2,2,0.8,2.7c0.5,0.7,1.3,1,2.3,1
		c0.9,0,1.7-0.1,2.4-0.4c0.7-0.3,1.3-0.6,1.7-0.9L950.7,440.5z M948.2,428.6c-1.1,0-2.1,0.4-2.9,1.1c-0.8,0.8-1.4,1.9-1.8,3.4
		c0.8,0,1.5,0,2.4-0.1c0.8,0,1.6-0.1,2.2-0.3c0.7-0.2,1.2-0.4,1.7-0.8c0.4-0.4,0.7-0.9,0.7-1.5c0-0.2,0-0.4-0.1-0.6
		c-0.1-0.2-0.2-0.4-0.3-0.6c-0.2-0.2-0.4-0.3-0.7-0.4C949,428.6,948.6,428.6,948.2,428.6z"/>
	<path class="st13" d="M962.9,442l2-9.5c0.1-0.4,0.1-0.7,0.2-1.1c0.1-0.3,0.1-0.7,0.1-0.9c0-0.6-0.1-1-0.4-1.4
		c-0.3-0.4-0.8-0.5-1.5-0.5c-0.5,0-1,0.1-1.5,0.4s-1,0.5-1.4,0.9c-0.4,0.4-0.8,0.8-1.2,1.2c-0.4,0.4-0.6,0.9-0.9,1.3l-2,9.6H954
		l3.2-15h1.6l-0.1,2.6h0.1c0.3-0.3,0.6-0.7,0.9-1c0.4-0.3,0.8-0.7,1.2-0.9c0.5-0.3,1-0.5,1.5-0.7c0.6-0.2,1.2-0.3,1.9-0.3
		c1,0,1.8,0.2,2.4,0.7c0.6,0.5,0.9,1.3,0.9,2.5c0,0.6-0.1,1.3-0.3,2.2l-2.1,10H962.9z"/>
	<path class="st13" d="M974.3,435.8l0.3,2.8h0.1l1.3-2.9l5.1-8.7h2.6l-9.4,15.3h-1l-2.9-15.3h2.4L974.3,435.8z"/>
	<path class="st13" d="M986.8,427h2.2l-3.2,15h-2.2L986.8,427z M987.3,422.4c0-0.5,0.2-0.8,0.5-1.2c0.3-0.3,0.7-0.5,1.2-0.5
		c0.5,0,0.8,0.2,1.2,0.5c0.3,0.3,0.5,0.7,0.5,1.2s-0.2,0.8-0.5,1.2c-0.3,0.3-0.7,0.5-1.2,0.5c-0.5,0-0.8-0.2-1.2-0.5
		C987.4,423.3,987.3,422.9,987.3,422.4z"/>
	<path class="st13" d="M1000.6,429c-0.2,0-0.4-0.1-0.6-0.1c-0.2,0-0.4,0-0.5,0c-1,0-1.9,0.3-2.6,1c-0.7,0.6-1.3,1.4-1.7,2.3
		l-2.1,9.8h-2.2l3.2-15h1.6v2.6h0.1c0.2-0.4,0.5-0.7,0.8-1.1s0.6-0.6,0.9-0.9c0.3-0.3,0.7-0.5,1.1-0.6c0.4-0.1,0.8-0.2,1.3-0.2
		c0.4,0,0.9,0.1,1.4,0.2L1000.6,429z"/>
	<path class="st13" d="M1001.1,437.3c0-1.6,0.2-3,0.6-4.3c0.4-1.3,1-2.4,1.7-3.4s1.6-1.7,2.5-2.2c1-0.5,2-0.8,3-0.8
		c0.8,0,1.6,0.1,2.1,0.4c0.6,0.3,1.1,0.6,1.4,1.1s0.6,1,0.8,1.6c0.2,0.6,0.2,1.2,0.2,1.9c0,1.5-0.2,2.9-0.6,4.2
		c-0.4,1.3-0.9,2.4-1.6,3.4c-0.7,1-1.5,1.7-2.4,2.3s-1.9,0.8-3,0.8c-0.9,0-1.7-0.1-2.3-0.4c-0.6-0.3-1.1-0.7-1.5-1.2
		c-0.4-0.5-0.7-1-0.8-1.6C1001.2,438.5,1001.1,437.9,1001.1,437.3z M1003.5,436.8c0,1.2,0.2,2.1,0.7,2.7c0.4,0.6,1.1,0.9,2.1,0.9
		c0.7,0,1.3-0.2,1.9-0.7c0.6-0.5,1.1-1.1,1.6-1.9s0.8-1.7,1.1-2.7c0.3-1,0.4-2.1,0.4-3.2c0-1-0.2-1.8-0.6-2.4s-1.1-0.9-2.1-0.9
		c-0.7,0-1.3,0.2-1.9,0.7c-0.6,0.4-1.1,1.1-1.6,1.8c-0.5,0.8-0.8,1.6-1.1,2.6C1003.6,434.7,1003.5,435.7,1003.5,436.8z"/>
	<path class="st13" d="M1024.4,442l2-9.5c0.1-0.4,0.2-0.7,0.2-1.1c0.1-0.3,0.1-0.7,0.1-0.9c0-0.6-0.1-1-0.4-1.4
		c-0.3-0.4-0.8-0.5-1.5-0.5c-0.5,0-1,0.1-1.5,0.4c-0.5,0.2-1,0.5-1.4,0.9c-0.4,0.4-0.8,0.8-1.2,1.2c-0.3,0.4-0.6,0.9-0.9,1.3l-2,9.6
		h-2.2l3.2-15h1.6l-0.1,2.6h0.1c0.3-0.3,0.6-0.7,0.9-1c0.4-0.3,0.8-0.7,1.2-0.9c0.5-0.3,1-0.5,1.5-0.7c0.6-0.2,1.2-0.3,1.9-0.3
		c1,0,1.8,0.2,2.4,0.7c0.6,0.5,0.9,1.3,0.9,2.5c0,0.6-0.1,1.3-0.3,2.2l-2.1,10H1024.4z"/>
	<path class="st13" d="M1039.3,442l1.8-8.5c0.2-0.7,0.3-1.3,0.4-1.9c0.1-0.5,0.1-1,0.1-1.4c0-0.5-0.1-1-0.3-1.2s-0.5-0.4-1-0.4
		c-0.5,0-1,0.1-1.5,0.4c-0.5,0.3-0.9,0.6-1.4,1c-0.4,0.4-0.8,0.8-1.2,1.2c-0.3,0.4-0.6,0.8-0.8,1.2l-2,9.6h-2.2l3.2-15h1.6l-0.2,2.6
		h0.1c0.3-0.3,0.7-0.7,1-1s0.8-0.7,1.2-0.9c0.4-0.3,0.9-0.5,1.5-0.7c0.5-0.2,1.1-0.3,1.8-0.3c0.9,0,1.5,0.3,1.8,0.8
		c0.3,0.6,0.5,1.3,0.5,2.3c0.3-0.4,0.6-0.8,1-1.1c0.4-0.4,0.8-0.7,1.3-1s1-0.5,1.5-0.7c0.5-0.2,1-0.3,1.6-0.3c0.9,0,1.6,0.2,2.1,0.6
		s0.7,1.2,0.7,2.4c0,0.8-0.2,2-0.5,3.3l-1.9,9h-2.2l1.9-9c0.1-0.6,0.2-1.1,0.3-1.6c0.1-0.5,0.1-0.9,0.1-1.2c0-0.5-0.1-0.9-0.3-1.2
		s-0.6-0.4-1.1-0.4c-0.4,0-0.9,0.1-1.3,0.4c-0.5,0.3-0.9,0.6-1.4,1c-0.4,0.4-0.8,0.8-1.2,1.3c-0.3,0.5-0.6,0.9-0.8,1.3l-2,9.5
		H1039.3z"/>
	<path class="st13" d="M1064.7,440.5c-0.7,0.6-1.5,1.1-2.5,1.4c-1,0.3-1.9,0.5-2.9,0.5c-1.6,0-2.8-0.5-3.6-1.4
		c-0.8-0.9-1.2-2.2-1.2-3.8c0-1.6,0.2-3.1,0.7-4.4c0.5-1.3,1.1-2.4,1.8-3.3c0.8-0.9,1.6-1.6,2.6-2.1c0.9-0.5,1.9-0.7,2.9-0.7
		c0.7,0,1.3,0.1,1.9,0.3c0.5,0.2,1,0.5,1.3,0.8s0.6,0.7,0.8,1.1c0.2,0.4,0.2,0.9,0.2,1.4c0,1.4-0.7,2.5-2.1,3.3s-3.4,1.2-6,1.2
		c-0.2,0-0.5,0-0.8,0s-0.5,0-0.8,0c-0.1,0.4-0.1,0.7-0.2,1.1c0,0.3-0.1,0.6-0.1,0.9c0,1.1,0.2,2,0.8,2.7c0.5,0.7,1.3,1,2.3,1
		c0.9,0,1.7-0.1,2.4-0.4c0.7-0.3,1.3-0.6,1.7-0.9L1064.7,440.5z M1062.2,428.6c-1.1,0-2.1,0.4-2.9,1.1c-0.8,0.8-1.4,1.9-1.8,3.4
		c0.8,0,1.5,0,2.4-0.1c0.8,0,1.6-0.1,2.2-0.3c0.7-0.2,1.2-0.4,1.7-0.8c0.4-0.4,0.7-0.9,0.7-1.5c0-0.2,0-0.4-0.1-0.6
		c-0.1-0.2-0.2-0.4-0.3-0.6c-0.2-0.2-0.4-0.3-0.7-0.4C1063,428.6,1062.6,428.6,1062.2,428.6z"/>
	<path class="st13" d="M1076.9,442l2-9.5c0.1-0.4,0.2-0.7,0.2-1.1c0.1-0.3,0.1-0.7,0.1-0.9c0-0.6-0.1-1-0.4-1.4
		c-0.3-0.4-0.8-0.5-1.5-0.5c-0.5,0-1,0.1-1.5,0.4c-0.5,0.2-1,0.5-1.4,0.9c-0.4,0.4-0.8,0.8-1.2,1.2c-0.3,0.4-0.6,0.9-0.9,1.3l-2,9.6
		h-2.2l3.2-15h1.6l-0.1,2.6h0.1c0.3-0.3,0.6-0.7,0.9-1c0.4-0.3,0.8-0.7,1.2-0.9c0.5-0.3,1-0.5,1.5-0.7c0.6-0.2,1.2-0.3,1.9-0.3
		c1,0,1.8,0.2,2.4,0.7c0.6,0.5,0.9,1.3,0.9,2.5c0,0.6-0.1,1.3-0.3,2.2l-2.1,10H1076.9z"/>
	<path class="st13" d="M1084.7,427h2.2l0.6-3l2.4-0.7l-0.8,3.7h3.9l-0.5,1.9h-3.9l-1.9,9.1c0,0.2-0.1,0.5-0.1,0.7c0,0.2,0,0.4,0,0.5
		c0,0.5,0.1,0.8,0.3,1c0.2,0.2,0.5,0.3,1,0.3c0.5,0,0.9-0.1,1.3-0.2c0.4-0.1,0.8-0.3,1.2-0.5v1.8c-0.4,0.2-1,0.4-1.6,0.6
		c-0.7,0.2-1.3,0.2-1.9,0.2c-1.8,0-2.7-0.8-2.7-2.5c0-0.3,0-0.8,0.2-1.3l2-9.7h-2.2L1084.7,427z"/>
</g>
<path class="st14" d="M479.8,194H659c2.2,0,4,1.8,4,4v49.3c0,2.2-1.8,4-4,4H479.8c-2.2,0-4-1.8-4-4V198
	C475.8,195.8,477.6,194,479.8,194z"/>
<path class="st1" d="M635.4,276.7h-17.8c-0.9-3.6-4.2-6.3-8-6.3c-4.6,0-8.3,3.7-8.3,8.3s3.7,8.3,8.3,8.3c3.9,0,7.1-2.7,8-6.3h5.2
	l2.4,2.4l2.4-2.4h0.3l1.5,1.5l1.4-1.4l2.3,2.3l2.5-2.5l1.9-1.7L635.4,276.7L635.4,276.7z M606.3,280.9c-1.2,0-2.2-1-2.2-2.2
	s1-2.2,2.2-2.2s2.2,1,2.2,2.2S607.6,280.9,606.3,280.9z"/>
<g class="st11">
	<path class="st15" d="M38.5,457.4c-2.3,0-4.1-0.7-5.5-2.2s-2.1-3.3-2.1-5.6v-0.6c0-2.4,0.6-4.3,1.9-5.8s3-2.3,5.2-2.3
		c2.1,0,3.8,0.6,5,1.9s1.8,3,1.8,5.2v2.3h-9.5l0,0.1c0.1,1,0.4,1.9,1,2.6s1.5,1,2.5,1c0.9,0,1.7-0.1,2.4-0.3
		c0.6-0.2,1.3-0.5,2.1-0.9l1.2,2.6c-0.7,0.5-1.5,1-2.5,1.3S39.8,457.4,38.5,457.4z M38.1,444.3c-0.8,0-1.4,0.3-1.9,0.9
		s-0.7,1.4-0.8,2.4l0,0.1h5.2v-0.4c0-0.9-0.2-1.6-0.6-2.2C39.6,444.5,39,444.3,38.1,444.3z"/>
	<path class="st15" d="M46.6,454.6l2.1-0.4v-9.8l-2.3-0.4v-2.6h6.3l0.2,2.3c0.5-0.8,1.2-1.4,1.9-1.9s1.6-0.7,2.6-0.7
		c1.6,0,2.9,0.5,3.8,1.5s1.3,2.6,1.3,4.7v6.9l2.1,0.4v2.6h-8.2v-2.6l1.8-0.4v-6.9c0-1.1-0.2-1.8-0.6-2.3s-1.1-0.7-1.9-0.7
		c-0.6,0-1.1,0.1-1.5,0.3s-0.8,0.6-1.1,1v8.5l1.7,0.4v2.6h-8.1V454.6z"/>
	<path class="st15" d="M72.7,443.8l-1.5,0.3l2.1,7.1l0.3,1.5h0.1l0.3-1.5l2.1-7.1l-1.5-0.3v-2.6h7.2v2.6l-1.4,0.2l-4.7,13.1h-4.1
		l-4.7-13.1l-1.4-0.2v-2.6h7.2V443.8z"/>
	<path class="st15" d="M82.9,454.6l2.1-0.4v-9.8l-2.3-0.4v-2.6h6.6v12.8l2.1,0.4v2.6h-8.4V454.6z M89.2,437.5H85v-3.2h4.3V437.5z"/>
</g>
<g class="st11">
	<path class="st15" d="M93,454.6l2.1-0.4v-9.8l-2.3-0.4v-2.6h6.3l0.2,2.3c0.4-0.8,0.8-1.5,1.4-1.9s1.3-0.7,2-0.7
		c0.2,0,0.5,0,0.7,0.1c0.2,0,0.5,0.1,0.6,0.1l-0.5,3.9l-1.8,0c-0.6,0-1.1,0.1-1.6,0.4s-0.7,0.6-0.9,1v7.7l2.1,0.4v2.6H93V454.6z"/>
</g>
<g class="st11">
	<path class="st15" d="M105,449c0-2.4,0.7-4.3,2-5.8c1.3-1.5,3.2-2.3,5.5-2.3c2.3,0,4.2,0.8,5.5,2.3s2,3.4,2,5.8v0.3
		c0,2.4-0.7,4.3-2,5.8c-1.3,1.5-3.1,2.2-5.5,2.2c-2.4,0-4.2-0.7-5.5-2.2c-1.3-1.5-2-3.4-2-5.8V449z M109.3,449.4
		c0,1.4,0.3,2.6,0.8,3.5c0.5,0.9,1.3,1.3,2.5,1.3c1.1,0,1.9-0.4,2.4-1.3s0.8-2,0.8-3.5V449c0-1.4-0.3-2.6-0.8-3.4s-1.3-1.3-2.4-1.3
		s-1.9,0.4-2.4,1.3s-0.8,2-0.8,3.4V449.4z"/>
	<path class="st15" d="M121.6,454.6l2.1-0.4v-9.8l-2.3-0.4v-2.6h6.3l0.2,2.3c0.5-0.8,1.2-1.4,1.9-1.9s1.6-0.7,2.6-0.7
		c1.6,0,2.9,0.5,3.8,1.5s1.3,2.6,1.3,4.7v6.9l2.1,0.4v2.6h-8.2v-2.6l1.8-0.4v-6.9c0-1.1-0.2-1.8-0.6-2.3s-1.1-0.7-1.9-0.7
		c-0.6,0-1.1,0.1-1.5,0.3s-0.8,0.6-1.1,1v8.5l1.7,0.4v2.6h-8.1V454.6z"/>
</g>
<g class="st11">
	<path class="st15" d="M140.4,443.8v-2.6h6.3l0.2,2.1c0.5-0.8,1.1-1.3,1.9-1.8s1.7-0.6,2.7-0.6c1,0,1.9,0.2,2.6,0.7s1.3,1.1,1.6,2
		c0.5-0.8,1.1-1.5,1.9-2s1.7-0.7,2.8-0.7c1.6,0,2.8,0.5,3.7,1.6s1.4,2.7,1.4,4.9v6.6l2.1,0.4v2.6h-8.2v-2.6l1.8-0.4v-6.6
		c0-1.2-0.2-2-0.6-2.5s-1-0.7-1.7-0.7c-0.6,0-1.1,0.1-1.6,0.4s-0.8,0.6-1.1,1.1c0,0.2,0,0.3,0,0.5c0,0.1,0,0.3,0,0.4v7.4l1.7,0.4
		v2.6h-7.7v-2.6l1.7-0.4v-6.6c0-1.2-0.2-2-0.6-2.5c-0.4-0.5-1-0.7-1.8-0.7c-0.6,0-1.1,0.1-1.5,0.3c-0.4,0.2-0.8,0.5-1.1,0.9v8.6
		l1.8,0.4v2.6h-8.2v-2.6l2.1-0.4v-9.8L140.4,443.8z"/>
</g>
<g class="st11">
	<path class="st15" d="M176.2,457.4c-2.3,0-4.1-0.7-5.5-2.2s-2.1-3.3-2.1-5.6v-0.6c0-2.4,0.6-4.3,1.9-5.8s3-2.3,5.2-2.3
		c2.1,0,3.8,0.6,5,1.9s1.8,3,1.8,5.2v2.3h-9.5l0,0.1c0.1,1,0.4,1.9,1,2.6s1.5,1,2.5,1c0.9,0,1.7-0.1,2.4-0.3
		c0.6-0.2,1.3-0.5,2.1-0.9l1.2,2.6c-0.7,0.5-1.5,1-2.5,1.3S177.5,457.4,176.2,457.4z M175.9,444.3c-0.8,0-1.4,0.3-1.9,0.9
		s-0.7,1.4-0.8,2.4l0,0.1h5.2v-0.4c0-0.9-0.2-1.6-0.6-2.2C177.4,444.5,176.7,444.3,175.9,444.3z"/>
	<path class="st15" d="M184.4,454.6l2.1-0.4v-9.8l-2.3-0.4v-2.6h6.3l0.2,2.3c0.5-0.8,1.2-1.4,1.9-1.9s1.6-0.7,2.6-0.7
		c1.6,0,2.9,0.5,3.8,1.5s1.3,2.6,1.3,4.7v6.9l2.1,0.4v2.6h-8.2v-2.6l1.8-0.4v-6.9c0-1.1-0.2-1.8-0.6-2.3s-1.1-0.7-1.9-0.7
		c-0.6,0-1.1,0.1-1.5,0.3s-0.8,0.6-1.1,1v8.5l1.7,0.4v2.6h-8.1V454.6z"/>
	<path class="st15" d="M210,437.4v3.9h2.8v3H210v8.1c0,0.6,0.1,1.1,0.4,1.3s0.6,0.4,1,0.4c0.3,0,0.5,0,0.8,0s0.5-0.1,0.7-0.1
		l0.4,3.1c-0.5,0.1-1,0.3-1.4,0.3c-0.5,0.1-1,0.1-1.5,0.1c-1.5,0-2.6-0.4-3.4-1.2s-1.2-2.1-1.2-3.9v-8.1h-2.3v-3h2.3v-3.9H210z"/>
</g>
<g>
	<circle class="st16" cx="758.8" cy="248.2" r="15.8"/>
	<line class="st16" x1="769.9" y1="259.4" x2="747.6" y2="237.1"/>
</g>
<g>
	<circle class="st16" cx="426.8" cy="222.2" r="15.8"/>
	<line class="st16" x1="437.9" y1="233.4" x2="415.6" y2="211.1"/>
</g>
<path class="st17" d="M779.3,186.4l-1.4-1.4c-1.6-1.6-4.2-1.6-5.8,0l-13.9,13.9c-0.4,0.4-1.1,0.4-1.5,0l-6.3-6.4
	c-1.6-1.6-4.2-1.6-5.8,0L743,194c-1.6,1.6-1.6,4.2,0,5.9l10,10l1.4,1.4c1.6,1.6,4.2,1.6,5.8,0l1.4-1.4l17.6-17.6
	C780.9,190.6,780.9,188,779.3,186.4L779.3,186.4z"/>
<g>
	<line class="st18" x1="396" y1="223" x2="309" y2="223"/>
	<polygon class="st19" points="386.7,211.6 384.8,213.6 394.9,223 384.8,232.4 386.7,234.4 399,223 	"/>
</g>
<g>
	<line class="st18" x1="726" y1="242" x2="654" y2="242"/>
	<polygon class="st19" points="716.7,230.6 714.8,232.6 724.9,242 714.8,251.4 716.7,253.4 729,242 	"/>
</g>
<g>
	<line class="st20" x1="726" y1="203" x2="654" y2="203"/>
	<polygon class="st17" points="716.7,191.6 714.8,193.6 724.9,203 714.8,212.4 716.7,214.4 729,203 	"/>
</g>
</svg>
