<svg xmlns="http://www.w3.org/2000/svg" xmlns:xlink="http://www.w3.org/1999/xlink" viewBox="0 0 682.21 250"><defs><style>.cls-1,.cls-10,.cls-18,.cls-2,.cls-7,.cls-9{fill:none;}.cls-2{stroke:#c30;}.cls-10,.cls-2,.cls-4,.cls-9{stroke-miterlimit:10;}.cls-10,.cls-18,.cls-2,.cls-20,.cls-4,.cls-7,.cls-9{stroke-width:2px;}.cls-10,.cls-2{stroke-dasharray:2 2;}.cls-20,.cls-24,.cls-3,.cls-4{fill:#fff;}.cls-10,.cls-18,.cls-20,.cls-4,.cls-9{stroke:#fc0;}.cls-12,.cls-5{font-size:12.25px;}.cls-5{fill:#306;}.cls-12,.cls-19,.cls-24,.cls-5{font-family:RobotoSlab-Bold, Roboto Slab;font-weight:700;}.cls-6{letter-spacing:0em;}.cls-7{stroke:#f63;}.cls-18,.cls-20,.cls-7{stroke-linecap:round;stroke-linejoin:round;}.cls-8{fill:#f63;}.cls-11,.cls-12,.cls-19{fill:#fc0;}.cls-13{letter-spacing:-0.01em;}.cls-14{letter-spacing:-0.04em;}.cls-15{letter-spacing:-0.01em;}.cls-16{letter-spacing:-0.01em;}.cls-17{fill:url(#Unbenannter_Verlauf_12);}.cls-19{font-size:11.23px;}.cls-21{clip-path:url(#clip-path);}.cls-22{fill:#ffd138;}.cls-23{fill:#fdfeff;}.cls-24{font-size:12.49px;}.cls-25{letter-spacing:0em;}.cls-26{letter-spacing:-0.01em;}.cls-27{letter-spacing:-0.01em;}.cls-28{fill:url(#Unbenannter_Verlauf_12-2);}.cls-29{letter-spacing:-0.06em;}.cls-30{letter-spacing:-0.02em;}.cls-31{letter-spacing:-0.01em;}.cls-32{letter-spacing:-0.01em;}.cls-33{letter-spacing:-0.04em;}.cls-34{clip-path:url(#clip-path-3);}.cls-35{letter-spacing:-0.01em;}</style><linearGradient id="Unbenannter_Verlauf_12" x1="134.94" y1="127.17" x2="306.73" y2="127.17" gradientUnits="userSpaceOnUse"><stop offset="0" stop-color="#906"/><stop offset="0.19" stop-color="#780066"/><stop offset="0.4" stop-color="#5a0066"/><stop offset="0.61" stop-color="#406"/><stop offset="0.81" stop-color="#370066"/><stop offset="1" stop-color="#306"/></linearGradient><clipPath id="clip-path"><rect class="cls-1" x="202.67" y="163.48" width="36.34" height="7.26"/></clipPath><linearGradient id="Unbenannter_Verlauf_12-2" x1="451.31" y1="143.75" x2="623.1" y2="143.75" xlink:href="#Unbenannter_Verlauf_12"/><clipPath id="clip-path-3"><rect class="cls-1" x="519.04" y="196.97" width="36.34" height="7.26"/></clipPath></defs><title>keystore</title><g id="Ebene_2" data-name="Ebene 2"><rect class="cls-2" x="103.02" y="33.99" width="232.85" height="175.89" rx="5"/><rect class="cls-3" x="92.29" y="113.87" width="23.41" height="23.89"/><rect class="cls-2" x="419.39" y="33.99" width="232.85" height="207.73" rx="5"/><polyline class="cls-4" points="451.31 113.52 302.89 113.52 302.89 141.17 451.31 141.17"/><text class="cls-5" transform="translate(141.31 24.91) scale(0.98 1)">Untrusted Host / VM/ Contai<tspan class="cls-6" x="165.42" y="0">n</tspan><tspan x="173.13" y="0">er</tspan></text><path class="cls-7" d="M127.11,23.71h-4.24c-.58,0-.81-.23-.81-.82v-6.6c0-.59.23-.82.81-.82h8.45c.55,0,.78.23.78.79v6.63c0,.56-.23.79-.78.79C129.91,23.74,128.49,23.71,127.11,23.71Z"/><path class="cls-7" d="M125.74,7.12a4.45,4.45,0,0,1,4.85.73,4.35,4.35,0,0,1-.23,6.57c-.31.25-.65.45-1,.71"/><path class="cls-8" d="M126.4,20.89h0v.88c0,.17.07.23.26.23h.84c.22,0,.29-.06.29-.26V20.1a.37.37,0,0,1,.22-.39,1.25,1.25,0,0,0,.61-1.48,1.55,1.55,0,0,0-1.44-1,1.64,1.64,0,0,0-1.61.89,1.23,1.23,0,0,0,.55,1.54.43.43,0,0,1,.25.49A6.27,6.27,0,0,1,126.4,20.89Z"/><path class="cls-9" d="M377.76,113.52c3.77,0,6.82,6.08,6.82,13.58s-3.05,13.58-6.82,13.58"/><line class="cls-4" x1="30.7" y1="138.2" x2="135.94" y2="138.2"/><line class="cls-4" x1="135.94" y1="113.94" x2="30.7" y2="113.94"/><path class="cls-9" d="M79.91,113.94c3.77,0,6.82,5.33,6.82,11.91s-3,11.91-6.82,11.91"/><line class="cls-10" x1="132.43" y1="126.79" x2="66.25" y2="126.79"/><polygon class="cls-11" points="127.79 121.06 126.83 122.09 131.89 126.79 126.83 131.49 127.79 132.51 133.94 126.79 127.79 121.06"/><text class="cls-12" transform="translate(30.32 108.21) scale(0.99 1)">c<tspan class="cls-13" x="6.45" y="0">r</tspan><tspan x="11.49" y="0">e</tspan><tspan class="cls-14" x="18.02" y="0">a</tspan><tspan x="24.27" y="0">te </tspan><tspan class="cls-15" x="38.36" y="0">k</tspan><tspan class="cls-16" x="45.71" y="0">e</tspan><tspan x="52.15" y="0">y</tspan></text><rect class="cls-17" x="134.94" y="73.39" width="171.79" height="107.56" rx="5"/><rect class="cls-9" x="134.94" y="73.39" width="171.79" height="107.56" rx="5"/><rect class="cls-18" x="152.68" y="120.62" width="135.69" height="27.77" rx="5"/><text class="cls-19" transform="translate(189.78 138.13) scale(0.98 1)">SCONE CAS</text><path class="cls-20" d="M211.53,61.37A11.63,11.63,0,0,1,219.74,58a11.88,11.88,0,1,1-9.32,4.72"/><path class="cls-18" d="M219.78,75.69h-4.25c-.58,0-.8-.23-.8-.82v-6.6c0-.59.22-.82.8-.82H224c.54,0,.77.23.77.79v6.63c0,.55-.23.78-.77.78C222.57,75.72,221.16,75.69,219.78,75.69Z"/><path class="cls-18" d="M215.42,66.88a4.62,4.62,0,0,1,2.64-4.22,4.17,4.17,0,0,1,5.77,2.91c.1.39.14.78.24,1.21"/><path class="cls-11" d="M219.07,72.86h0v.89c0,.16.07.23.26.23h.83c.23,0,.29-.07.29-.26V72.08a.39.39,0,0,1,.23-.4,1.24,1.24,0,0,0,.61-1.47,1.55,1.55,0,0,0-1.45-1,1.64,1.64,0,0,0-1.61.89,1.24,1.24,0,0,0,.55,1.54.42.42,0,0,1,.26.49A6.11,6.11,0,0,1,219.07,72.86Z"/><g id="Scone_logo_white" data-name="Scone logo white"><g class="cls-21"><g class="cls-21"><path class="cls-22" d="M207.48,165.32h-.76a.29.29,0,0,0-.29.3v.79a.3.3,0,0,0,.29.3h.76a.31.31,0,0,0,.3-.3v-.79a.3.3,0,0,0-.3-.3m-2.65,1.39h.76a.3.3,0,0,0,.3-.3v-.79a.29.29,0,0,0-.3-.3h-.76a.29.29,0,0,0-.29.3v.79a.3.3,0,0,0,.29.3m-.82-.3v-.79a.29.29,0,0,0-.29-.3H203a.29.29,0,0,0-.29.3v.79a.3.3,0,0,0,.29.3h.76a.3.3,0,0,0,.29-.3m3.53.85a.22.22,0,0,0-.22.22v.93a.22.22,0,0,0,.44,0v-.93a.2.2,0,0,0-.22-.22m-2.09.3v.79a.3.3,0,0,0,.29.3h.76a.3.3,0,0,0,.29-.3v-.79a.29.29,0,0,0-.29-.3h-.76a.29.29,0,0,0-.29.3m-.54.79v-.79a.29.29,0,0,0-.3-.3h-.76a.29.29,0,0,0-.29.3v.79a.3.3,0,0,0,.29.3h.76a.3.3,0,0,0,.3-.3m2.57.85h-.76a.3.3,0,0,0-.29.3v.79a.29.29,0,0,0,.29.3h.76a.3.3,0,0,0,.3-.3v-.79a.31.31,0,0,0-.3-.3m-2,0h-.76a.31.31,0,0,0-.3.3v.79a.3.3,0,0,0,.3.3h.76a.29.29,0,0,0,.29-.3v-.79a.3.3,0,0,0-.29-.3"/><path class="cls-22" d="M208.4,165a1.82,1.82,0,0,0,1.19.37s0,0,0,.06v2.13c0,.83-1,1.33-1.21,1.47a0,0,0,0,1,0,0l0-4s0,0,0,0"/><path class="cls-22" d="M206.11,164.9c1.61-.06,1.87-.63,1.87-.63a.08.08,0,0,1,.07,0,.08.08,0,0,1,.08,0s.25.61,1.86.61c0,0,0,0,0,.08v2.8c0,.9-1.66,1.91-1.69,1.93s-.06,0-.06.06v.7s.1.05.14,0c.62-.34,2.35-1.31,2.35-2.51v-3.58c0-.06-.11-.11-.17-.11-2,0-2.42-.76-2.42-.76s-.09,0-.14,0-.07,0-.08,0-.34.79-2.38.79c-.07,0-.08,0-.08.09v.45s0,.1.06.1l.54,0"/><path class="cls-23" d="M212.3,169.49l.82-.32a1.11,1.11,0,0,0,1.07.63,1.19,1.19,0,0,0,.62-.15.51.51,0,0,0,.27-.45c0-.45-.6-.72-1-.89l0,0a3.62,3.62,0,0,1-.95-.54,1.22,1.22,0,0,1-.47-1,1.33,1.33,0,0,1,.48-1,1.86,1.86,0,0,1,1.22-.42,1.74,1.74,0,0,1,1.61.89l-.85.33a.67.67,0,0,0-.29-.31,1.2,1.2,0,0,0-.47-.1c-.47,0-.79.25-.79.59a.66.66,0,0,0,.32.54,4.18,4.18,0,0,0,.73.39l.1,0c.63.27,1.41.62,1.41,1.48a1.23,1.23,0,0,1-.56,1.06,2.14,2.14,0,0,1-1.33.39,1.93,1.93,0,0,1-1.87-1.13"/><path class="cls-23" d="M219.56,170.61a2.68,2.68,0,0,1-1-.21,2.47,2.47,0,0,1-.82-.57,2.38,2.38,0,0,1-.56-.84,2.75,2.75,0,0,1,0-2.06,2.34,2.34,0,0,1,.56-.83,2.21,2.21,0,0,1,.82-.57,2.56,2.56,0,0,1,2.18.07,2.62,2.62,0,0,1,.89.76l-.69.53a1.74,1.74,0,0,0-.6-.51,1.8,1.8,0,0,0-.79-.19,1.63,1.63,0,0,0-1.23.52,1.75,1.75,0,0,0-.51,1.25,1.8,1.8,0,0,0,.51,1.26,1.67,1.67,0,0,0,1.23.52,1.7,1.7,0,0,0,.88-.25,1.9,1.9,0,0,0,.63-.66l.75.43a2.65,2.65,0,0,1-.94,1,2.3,2.3,0,0,1-1.3.38"/><path class="cls-23" d="M225.22,170.62a2.5,2.5,0,0,1-1-.21,2.21,2.21,0,0,1-.82-.57,2.82,2.82,0,0,1-.56-.83,2.78,2.78,0,0,1-.2-1,2.59,2.59,0,0,1,.2-1,2.87,2.87,0,0,1,.56-.84,3,3,0,0,1,.82-.57,2.53,2.53,0,0,1,2,0,2.47,2.47,0,0,1,.82.57,2.87,2.87,0,0,1,.56.84,2.75,2.75,0,0,1,0,2.06,2.82,2.82,0,0,1-.56.83,2.59,2.59,0,0,1-.82.57,2.5,2.5,0,0,1-1,.21m0-4.43a1.63,1.63,0,0,0-1.23.52,1.79,1.79,0,0,0-.51,1.25,1.73,1.73,0,0,0,.51,1.26,1.71,1.71,0,0,0,2.46,0,1.8,1.8,0,0,0,0-2.51,1.71,1.71,0,0,0-1.23-.52"/><polygon class="cls-23" points="233.69 165.36 233.69 170.74 230.06 167.34 230.06 170.53 229.14 170.53 229.14 165.17 232.77 168.59 232.77 165.36 233.69 165.36"/><polygon class="cls-23" points="236.17 166.16 236.17 167.53 238.7 167.53 238.7 168.34 236.17 168.34 236.17 169.72 239.01 169.72 239.01 170.53 235.25 170.53 235.25 165.36 239.01 165.36 239.01 166.17 236.17 166.17 236.17 166.16"/></g></g></g><text class="cls-24" transform="translate(169.3 106.52) scale(0.98 1)">Intel SGX E<tspan class="cls-25" x="66.29" y="0">n</tspan><tspan x="74.16" y="0">cl</tspan><tspan class="cls-26" x="84.72" y="0">a</tspan><tspan class="cls-27" x="91.5" y="0">v</tspan><tspan x="98.54" y="0">e</tspan></text><text class="cls-5" transform="translate(457.68 24.91) scale(0.98 1)">Untrusted Host / VM/ Contai<tspan class="cls-6" x="165.42" y="0">n</tspan><tspan x="173.13" y="0">er</tspan></text><path class="cls-7" d="M443.48,23.71h-4.24c-.58,0-.81-.23-.81-.82v-6.6c0-.59.23-.82.81-.82h8.45c.55,0,.78.23.78.79v6.63c0,.56-.23.79-.78.79C446.28,23.74,444.86,23.71,443.48,23.71Z"/><path class="cls-7" d="M442.11,7.12a4.45,4.45,0,0,1,4.85.73,4.35,4.35,0,0,1-.23,6.57c-.31.25-.65.45-1,.71"/><path class="cls-8" d="M442.77,20.89h0v.88c0,.17.07.23.26.23h.84c.22,0,.29-.06.29-.26V20.1a.37.37,0,0,1,.22-.39,1.25,1.25,0,0,0,.61-1.48,1.55,1.55,0,0,0-1.44-1,1.64,1.64,0,0,0-1.61.89,1.23,1.23,0,0,0,.55,1.54.43.43,0,0,1,.25.49A6.27,6.27,0,0,1,442.77,20.89Z"/><rect class="cls-28" x="451.31" y="73.39" width="171.79" height="140.73" rx="5"/><rect class="cls-9" x="451.31" y="73.39" width="171.79" height="140.73" rx="5"/><rect class="cls-18" x="468.59" y="120.62" width="136.62" height="57.2" rx="5"/><text class="cls-19" transform="translate(515.16 138.13) scale(0.98 1)"><tspan class="cls-29">A</tspan><tspan x="7.42" y="0">ttested</tspan><tspan x="-7.84" y="13.47"> </tspan><tspan class="cls-30" x="-5.09" y="13.47">a</tspan><tspan x="0.9" y="13.47">ut</tspan><tspan class="cls-6" x="12.09" y="13.47">h</tspan><tspan x="19.17" y="13.47">ori</tspan><tspan class="cls-31" x="33.81" y="13.47">z</tspan><tspan x="39.58" y="13.47">ed </tspan><tspan x="-7.67" y="26.94">ap</tspan><tspan class="cls-32" x="5.29" y="26.94">p</tspan><tspan x="11.98" y="26.94">lic</tspan><tspan class="cls-33" x="25.09" y="26.94">a</tspan><tspan x="30.82" y="26.94">tion</tspan></text><path class="cls-20" d="M527.9,61.37A11.63,11.63,0,0,1,536.11,58a11.86,11.86,0,1,1-9.33,4.72"/><path class="cls-18" d="M536.15,75.69H531.9c-.58,0-.8-.23-.8-.82v-6.6c0-.59.22-.82.8-.82h8.46c.54,0,.77.23.77.79v6.63c0,.55-.23.78-.77.78C538.94,75.72,537.53,75.69,536.15,75.69Z"/><path class="cls-18" d="M531.79,66.88a4.62,4.62,0,0,1,2.64-4.22,4.17,4.17,0,0,1,5.77,2.91c.1.39.14.78.24,1.21"/><path class="cls-11" d="M535.44,72.86h0v.89c0,.16.07.23.26.23h.83c.23,0,.29-.07.29-.26V72.08a.39.39,0,0,1,.23-.4,1.24,1.24,0,0,0,.61-1.47,1.55,1.55,0,0,0-1.45-1,1.64,1.64,0,0,0-1.61.89,1.24,1.24,0,0,0,.55,1.54.42.42,0,0,1,.26.49A6.11,6.11,0,0,1,535.44,72.86Z"/><g id="Scone_logo_white-2" data-name="Scone logo white"><g class="cls-34"><g class="cls-34"><path class="cls-22" d="M523.85,198.81h-.76a.3.3,0,0,0-.29.3v.79a.29.29,0,0,0,.29.3h.76a.3.3,0,0,0,.3-.3v-.79a.31.31,0,0,0-.3-.3m-2.65,1.39H522a.29.29,0,0,0,.3-.3v-.79a.3.3,0,0,0-.3-.3h-.76a.3.3,0,0,0-.29.3v.79a.29.29,0,0,0,.29.3m-.82-.3v-.79a.3.3,0,0,0-.29-.3h-.76a.3.3,0,0,0-.29.3v.79a.29.29,0,0,0,.29.3h.76a.29.29,0,0,0,.29-.3m3.53.86a.22.22,0,0,0-.22.22v.93a.22.22,0,0,0,.44,0V201a.2.2,0,0,0-.22-.22m-2.09.29v.8a.29.29,0,0,0,.29.29h.76a.29.29,0,0,0,.29-.29v-.8a.29.29,0,0,0-.29-.29h-.76a.29.29,0,0,0-.29.29m-.54.8v-.8a.29.29,0,0,0-.3-.29h-.76a.29.29,0,0,0-.29.29v.8a.29.29,0,0,0,.29.29H521a.29.29,0,0,0,.3-.29m2.57.85h-.76a.29.29,0,0,0-.29.3v.79a.3.3,0,0,0,.29.3h.76a.31.31,0,0,0,.3-.3V203a.3.3,0,0,0-.3-.3m-2,0h-.76a.3.3,0,0,0-.3.3v.79a.31.31,0,0,0,.3.3h.76a.3.3,0,0,0,.29-.3V203a.29.29,0,0,0-.29-.3"/><path class="cls-22" d="M524.77,198.5a1.76,1.76,0,0,0,1.19.37s0,0,0,.06v2.14c0,.82-1,1.33-1.21,1.46,0,0,0,0,0,0l0-4s0,0,0,0"/><path class="cls-22" d="M522.48,198.4c1.61-.06,1.87-.63,1.87-.63a.08.08,0,0,1,.07-.05.08.08,0,0,1,.08,0s.25.62,1.86.62c0,0,0,0,0,.07v2.81c0,.89-1.66,1.91-1.69,1.92l-.06.06v.71s.1,0,.14,0c.62-.35,2.35-1.32,2.35-2.51v-3.59c0-.06-.11-.1-.17-.1-2,0-2.42-.76-2.42-.76s-.09,0-.14,0-.07,0-.08,0-.34.79-2.38.79c-.07,0-.08,0-.08.09v.45s0,.11.06.11.54,0,.54,0"/><path class="cls-23" d="M528.67,203l.82-.31a1.27,1.27,0,0,0,1.69.47.49.49,0,0,0,.27-.44c0-.45-.6-.72-1-.9h0a3.93,3.93,0,0,1-1-.54,1.24,1.24,0,0,1-.47-1,1.36,1.36,0,0,1,.48-1,1.86,1.86,0,0,1,1.22-.42,1.74,1.74,0,0,1,1.61.9l-.85.33a.69.69,0,0,0-.29-.32,1.4,1.4,0,0,0-.47-.1c-.47,0-.79.25-.79.6a.69.69,0,0,0,.32.54,5,5,0,0,0,.73.38l.1.05c.63.27,1.41.61,1.41,1.48a1.25,1.25,0,0,1-.56,1.06,2.21,2.21,0,0,1-1.33.39,2,2,0,0,1-1.87-1.14"/><path class="cls-23" d="M535.93,204.1a2.5,2.5,0,0,1-1-.21,2.21,2.21,0,0,1-.82-.57,2.34,2.34,0,0,1-.56-.83,2.75,2.75,0,0,1,0-2.06,2.38,2.38,0,0,1,.56-.84,2.47,2.47,0,0,1,.82-.57,2.68,2.68,0,0,1,1-.21,2.42,2.42,0,0,1,1.17.29,2.62,2.62,0,0,1,.89.76l-.69.52a1.74,1.74,0,0,0-.6-.51,1.8,1.8,0,0,0-.79-.19,1.67,1.67,0,0,0-1.23.52,1.8,1.8,0,0,0,0,2.51,1.63,1.63,0,0,0,1.23.52,1.7,1.7,0,0,0,.88-.25,1.81,1.81,0,0,0,.63-.66l.75.44a2.65,2.65,0,0,1-.94,1,2.37,2.37,0,0,1-1.3.37"/><path class="cls-23" d="M541.59,204.12a2.68,2.68,0,0,1-1-.21,2.47,2.47,0,0,1-.82-.57,2.87,2.87,0,0,1-.56-.84,2.78,2.78,0,0,1-.2-1,2.59,2.59,0,0,1,.2-1,2.82,2.82,0,0,1,.56-.83,2.59,2.59,0,0,1,.82-.57,2.53,2.53,0,0,1,2,0,2.21,2.21,0,0,1,.82.57,2.82,2.82,0,0,1,.56.83,2.75,2.75,0,0,1,0,2.06,2.87,2.87,0,0,1-.56.84,3,3,0,0,1-.82.57,2.68,2.68,0,0,1-1,.21m0-4.44a1.67,1.67,0,0,0-1.23.52,1.81,1.81,0,0,0-.51,1.26,1.71,1.71,0,0,0,.51,1.25,1.71,1.71,0,0,0,2.46,0,1.79,1.79,0,0,0,.51-1.25,1.85,1.85,0,0,0-.51-1.26,1.71,1.71,0,0,0-1.23-.52"/><polygon class="cls-23" points="550.06 198.86 550.06 204.24 546.43 200.83 546.43 204.03 545.51 204.03 545.51 198.66 549.14 202.08 549.14 198.86 550.06 198.86"/><polygon class="cls-23" points="552.54 199.65 552.54 201.02 555.07 201.02 555.07 201.83 552.54 201.83 552.54 203.22 555.38 203.22 555.38 204.03 551.62 204.03 551.62 198.86 555.38 198.86 555.38 199.66 552.54 199.66 552.54 199.65"/></g></g></g><text class="cls-24" transform="translate(485.67 106.52) scale(0.98 1)">Intel SGX E<tspan class="cls-25" x="66.29" y="0">n</tspan><tspan x="74.16" y="0">cl</tspan><tspan class="cls-26" x="84.72" y="0">a</tspan><tspan class="cls-27" x="91.5" y="0">v</tspan><tspan x="98.54" y="0">e</tspan></text><text class="cls-12" transform="translate(365.71 157.72) scale(0.99 1)">TLS</text><path class="cls-18" d="M32,125.77a6.16,6.16,0,0,0,12.16,1.51H48l1.78,1.82,1.78-1.82h.23l1.12,1.15L54,127.37l1.7,1.73,1.9-1.94L59,125.84l-1.57-1.59H44.14A6.16,6.16,0,0,0,32,125.77Zm2.1-.07a1.34,1.34,0,1,1,1.33,1.36A1.35,1.35,0,0,1,34.08,125.7Z"/><rect class="cls-3" x="328.25" y="95.8" width="11.05" height="15.31"/><line class="cls-10" x1="448.84" y1="127.8" x2="430.24" y2="127.8"/><polygon class="cls-11" points="444.2 122.07 443.24 123.09 448.3 127.79 443.24 132.5 444.2 133.52 450.35 127.79 444.2 122.07"/><line class="cls-10" x1="310.25" y1="127.8" x2="330.05" y2="127.8"/><polygon class="cls-11" points="314.89 133.52 315.84 132.5 310.79 127.8 315.84 123.1 314.89 122.07 308.73 127.8 314.89 133.52"/><path class="cls-18" d="M397.85,127.8A6.16,6.16,0,0,0,410,129.31h3.89l1.78,1.81,1.78-1.81h.23l1.13,1.15,1-1.07,1.7,1.73,1.9-1.94,1.43-1.32-1.57-1.58H410a6.16,6.16,0,0,0-12.16,1.52Zm2.1-.07a1.34,1.34,0,1,1,1.34,1.36A1.35,1.35,0,0,1,400,127.73Z"/><path class="cls-18" d="M333.54,127.8a6.16,6.16,0,0,0,12.16,1.51h3.89l1.78,1.81,1.78-1.81h.23l1.12,1.15,1.05-1.07,1.7,1.73,1.9-1.94,1.43-1.32L359,126.28H345.7a6.16,6.16,0,0,0-12.16,1.52Zm2.1-.07a1.34,1.34,0,1,1,1.33,1.36A1.35,1.35,0,0,1,335.64,127.73Z"/><text class="cls-12" transform="translate(314.66 108.55) scale(0.99 1)">get <tspan class="cls-35" x="21.09" y="0">k</tspan><tspan class="cls-16" x="28.44" y="0">e</tspan><tspan x="34.88" y="0">y</tspan></text></g></svg>