<?xml version="1.0" encoding="utf-8"?>
<!-- Generator: Adobe Illustrator 24.0.0, SVG Export Plug-In . SVG Version: 6.00 Build 0)  -->
<svg version="1.1" id="Ebene_1" xmlns="http://www.w3.org/2000/svg" xmlns:xlink="http://www.w3.org/1999/xlink" x="0px" y="0px"
	 viewBox="0 0 458 130.9" style="enable-background:new 0 0 458 130.9;" xml:space="preserve">
<style type="text/css">
	.st0{enable-background:new    ;}
	.st1{fill:#330066;}
	.st2{fill:#990066;}
	.st3{fill:none;stroke:#990066;stroke-width:2;stroke-miterlimit:10;}
	.st4{fill:none;stroke:#330066;stroke-width:2;stroke-miterlimit:10;stroke-dasharray:2,2;}
</style>
<g id="Ebene_2_1_">
	<g class="st0">
		<path class="st1" d="M219.4,25.7l0.2,0.9h0.1l0.2-0.9l1-3.1h1.7l-2.5,6.1h-0.9l-2.6-6.1h1.8L219.4,25.7z"/>
	</g>
	<g class="st0">
		<path class="st1" d="M222.7,25.5c0-1,0.2-1.8,0.7-2.3c0.5-0.5,1.2-0.8,2.1-0.8c0.5,0,0.9,0.1,1.2,0.2c0.4,0.2,0.6,0.4,0.9,0.6
			c0.2,0.3,0.4,0.6,0.5,1c0.1,0.4,0.2,0.8,0.2,1.3c0,1-0.2,1.8-0.7,2.3c-0.5,0.5-1.2,0.8-2.1,0.8c-0.5,0-0.9-0.1-1.2-0.2
			c-0.4-0.2-0.6-0.4-0.9-0.6c-0.2-0.3-0.4-0.6-0.5-1C222.7,26.4,222.7,26,222.7,25.5z M224.3,25.5c0,0.3,0,0.5,0.1,0.7
			c0,0.2,0.1,0.4,0.2,0.6s0.2,0.3,0.4,0.4c0.2,0.1,0.3,0.1,0.6,0.1c0.4,0,0.7-0.1,0.9-0.4c0.2-0.3,0.3-0.8,0.3-1.4
			c0-0.6-0.1-1-0.3-1.3s-0.5-0.5-0.9-0.5c-0.4,0-0.7,0.1-0.9,0.4C224.4,24.4,224.3,24.9,224.3,25.5z"/>
		<path class="st1" d="M231,26.5c0,0.3,0,0.5,0.1,0.6s0.2,0.2,0.3,0.2c0.1,0,0.2,0,0.3,0c0.1,0,0.2-0.1,0.3-0.1l0.2,1.2
			c-0.1,0.1-0.3,0.1-0.6,0.2c-0.3,0.1-0.5,0.1-0.8,0.1c-0.5,0-0.8-0.1-1-0.3s-0.4-0.6-0.4-1v-7.2h1.6V26.5z"/>
		<path class="st1" d="M234.4,22.5v3.4c0,0.5,0.1,0.8,0.2,1.1s0.3,0.3,0.7,0.3c0.3,0,0.5-0.1,0.7-0.3c0.2-0.2,0.3-0.4,0.4-0.6v-3.9
			h1.6v4.2c0,0.3,0,0.7,0,1c0,0.3,0.1,0.6,0.1,0.9H237l-0.3-0.9h0c-0.2,0.3-0.4,0.6-0.8,0.8s-0.7,0.3-1.2,0.3c-0.3,0-0.6,0-0.8-0.1
			s-0.4-0.2-0.6-0.4c-0.2-0.2-0.3-0.4-0.4-0.7c-0.1-0.3-0.1-0.7-0.1-1.2v-3.7H234.4z"/>
		<path class="st1" d="M242.8,28.5v-3.3c0-0.6-0.1-0.9-0.2-1.2c-0.1-0.2-0.3-0.3-0.6-0.3c-0.3,0-0.5,0.1-0.7,0.2
			c-0.2,0.1-0.3,0.3-0.4,0.6v4h-1.6v-6h1.2l0.2,0.8h0c0.2-0.3,0.4-0.5,0.7-0.7c0.3-0.2,0.6-0.3,1.1-0.3c0.4,0,0.7,0.1,0.9,0.2
			c0.2,0.2,0.4,0.4,0.6,0.8c0.2-0.3,0.4-0.6,0.7-0.7c0.3-0.2,0.6-0.3,1-0.3c0.3,0,0.6,0,0.9,0.1c0.2,0.1,0.4,0.2,0.6,0.4
			c0.1,0.2,0.3,0.5,0.3,0.8c0.1,0.3,0.1,0.7,0.1,1.2v3.6h-1.6v-3.4c0-0.5-0.1-0.8-0.2-1.1c-0.1-0.2-0.3-0.4-0.7-0.4
			c-0.3,0-0.5,0.1-0.7,0.2c-0.2,0.2-0.3,0.4-0.4,0.6v3.9H242.8z"/>
		<path class="st1" d="M253.9,28c-0.2,0.2-0.6,0.4-1,0.5s-0.8,0.2-1.3,0.2c-1,0-1.7-0.3-2.1-0.8c-0.4-0.6-0.7-1.3-0.7-2.3
			c0-1.1,0.3-1.8,0.8-2.4s1.2-0.8,2.1-0.8c0.3,0,0.6,0,0.9,0.1s0.5,0.2,0.8,0.4c0.2,0.2,0.4,0.4,0.5,0.7c0.1,0.3,0.2,0.7,0.2,1.2
			c0,0.2,0,0.3,0,0.5c0,0.2,0,0.4-0.1,0.6h-3.6c0,0.5,0.2,0.9,0.4,1.1c0.2,0.3,0.6,0.4,1.1,0.4c0.3,0,0.6,0,0.9-0.2
			c0.3-0.1,0.5-0.2,0.6-0.3L253.9,28z M251.6,23.6c-0.4,0-0.7,0.1-0.9,0.4c-0.2,0.2-0.3,0.6-0.4,1h2.2c0-0.4,0-0.8-0.2-1
			C252.2,23.7,252,23.6,251.6,23.6z"/>
		<path class="st1" d="M257.6,22.5h0.8v-1.1l1.6-0.4v1.6h1.5v1.3H260v2.3c0,0.4,0,0.7,0.1,0.9c0.1,0.2,0.2,0.3,0.5,0.3
			c0.2,0,0.3,0,0.4,0s0.2-0.1,0.4-0.1l0.3,1.2c-0.2,0.1-0.5,0.2-0.8,0.3c-0.3,0.1-0.6,0.1-0.9,0.1c-0.6,0-1-0.1-1.2-0.4
			c-0.3-0.3-0.4-0.8-0.4-1.4v-3h-0.8V22.5z"/>
		<path class="st1" d="M262.3,22.9c0.3-0.1,0.7-0.3,1.1-0.3c0.4-0.1,0.9-0.1,1.4-0.1c0.4,0,0.8,0,1,0.2c0.3,0.1,0.5,0.2,0.7,0.4
			s0.3,0.4,0.3,0.7s0.1,0.5,0.1,0.9c0,0.4,0,0.7,0,1.1c0,0.4,0,0.7,0,1c0,0.3,0,0.7,0,1c0,0.3,0.1,0.6,0.2,0.9h-1.3l-0.3-0.8h-0.1
			c-0.2,0.2-0.4,0.5-0.7,0.6c-0.3,0.2-0.7,0.3-1.1,0.3c-0.3,0-0.5,0-0.8-0.1c-0.2-0.1-0.4-0.2-0.6-0.4c-0.2-0.2-0.3-0.3-0.4-0.6
			c-0.1-0.2-0.1-0.4-0.1-0.7c0-0.4,0.1-0.7,0.2-0.9s0.4-0.5,0.7-0.6c0.3-0.2,0.7-0.3,1.1-0.3c0.4-0.1,0.9-0.1,1.4-0.1
			c0.1-0.4,0-0.8-0.1-1s-0.4-0.3-0.8-0.3c-0.3,0-0.6,0-1,0.1c-0.3,0.1-0.6,0.1-0.9,0.3L262.3,22.9z M264.3,27.3
			c0.3,0,0.6-0.1,0.7-0.2c0.2-0.1,0.3-0.3,0.4-0.4v-0.8c-0.2,0-0.5,0-0.7,0c-0.2,0-0.4,0.1-0.6,0.1c-0.2,0.1-0.3,0.1-0.4,0.2
			c-0.1,0.1-0.2,0.2-0.2,0.4c0,0.2,0.1,0.4,0.2,0.5S264.1,27.3,264.3,27.3z"/>
		<path class="st1" d="M273.4,28.5c0,0.9-0.2,1.5-0.7,1.9s-1.1,0.6-2,0.6c-0.6,0-1,0-1.4-0.1s-0.6-0.2-0.8-0.3l0.3-1.2
			c0.2,0.1,0.4,0.1,0.6,0.2c0.2,0.1,0.5,0.1,0.9,0.1c0.5,0,0.9-0.1,1.1-0.4c0.2-0.2,0.3-0.6,0.3-1V28h0c-0.3,0.4-0.8,0.6-1.5,0.6
			c-0.8,0-1.4-0.2-1.7-0.7c-0.4-0.5-0.6-1.2-0.6-2.3c0-1.1,0.3-1.9,0.8-2.4c0.5-0.6,1.3-0.8,2.2-0.8c0.5,0,1,0,1.4,0.1
			s0.7,0.2,1,0.3V28.5z M270.8,27.4c0.3,0,0.5-0.1,0.7-0.2c0.2-0.1,0.3-0.3,0.4-0.6v-2.7c-0.2-0.1-0.6-0.2-0.9-0.2
			c-0.4,0-0.7,0.2-0.9,0.5c-0.2,0.3-0.3,0.8-0.3,1.4c0,0.6,0.1,1,0.3,1.3C270.1,27.2,270.4,27.4,270.8,27.4z"/>
	</g>
	<g class="st0">
		<path class="st1" d="M277.9,24.4h7.2v1.4h-7.2V24.4z"/>
	</g>
	<g class="st0">
		<path class="st1" d="M293.3,28.5v-3.4c0-0.3,0-0.6-0.1-0.8c0-0.2-0.1-0.4-0.2-0.6c-0.1-0.2-0.2-0.3-0.4-0.4s-0.4-0.1-0.6-0.1
			c-0.4,0-0.7,0.1-1,0.4c-0.3,0.2-0.5,0.6-0.6,0.9v4h-1v-8.4h1v3.1h0c0.2-0.2,0.5-0.4,0.8-0.6c0.3-0.1,0.7-0.2,1.1-0.2
			c0.3,0,0.6,0,0.9,0.1c0.2,0.1,0.5,0.2,0.6,0.4s0.3,0.5,0.4,0.8c0.1,0.3,0.1,0.7,0.1,1.2v3.6H293.3z"/>
		<path class="st1" d="M295.9,23c0.3-0.2,0.7-0.3,1.1-0.4c0.4-0.1,0.8-0.1,1.3-0.1c0.4,0,0.8,0.1,1,0.2c0.3,0.1,0.4,0.3,0.6,0.4
			c0.1,0.2,0.2,0.4,0.3,0.6c0,0.2,0.1,0.4,0.1,0.6c0,0.5,0,0.9,0,1.4s0,0.9,0,1.3c0,0.3,0,0.6,0,0.8s0.1,0.5,0.1,0.7h-0.7l-0.3-0.8
			h-0.1c-0.1,0.1-0.2,0.2-0.3,0.3c-0.1,0.1-0.2,0.2-0.4,0.3s-0.3,0.2-0.5,0.2c-0.2,0.1-0.4,0.1-0.7,0.1s-0.5,0-0.7-0.1
			c-0.2-0.1-0.4-0.2-0.6-0.3c-0.2-0.1-0.3-0.3-0.4-0.5c-0.1-0.2-0.1-0.4-0.1-0.7c0-0.4,0.1-0.6,0.2-0.9c0.1-0.2,0.3-0.4,0.6-0.6
			c0.3-0.1,0.6-0.2,0.9-0.3c0.4-0.1,0.8-0.1,1.2-0.1c0.1,0,0.2,0,0.3,0c0.1,0,0.2,0,0.3,0c0-0.2,0-0.5,0-0.6c0-0.4-0.1-0.7-0.3-0.9
			s-0.5-0.3-1-0.3c-0.1,0-0.3,0-0.4,0c-0.2,0-0.3,0-0.5,0.1s-0.3,0.1-0.5,0.1s-0.3,0.1-0.4,0.2L295.9,23z M297.6,27.8
			c0.2,0,0.4,0,0.6-0.1c0.2-0.1,0.3-0.1,0.5-0.2c0.1-0.1,0.2-0.2,0.3-0.3c0.1-0.1,0.1-0.2,0.2-0.3v-1c-0.1,0-0.2,0-0.3,0
			c-0.1,0-0.2,0-0.3,0c-0.2,0-0.5,0-0.7,0s-0.4,0.1-0.6,0.2c-0.2,0.1-0.3,0.2-0.4,0.3c-0.1,0.1-0.2,0.3-0.2,0.5
			c0,0.3,0.1,0.5,0.3,0.7C297,27.7,297.3,27.8,297.6,27.8z"/>
		<path class="st1" d="M304.6,26.9c0-0.2-0.1-0.4-0.2-0.6c-0.1-0.1-0.3-0.3-0.5-0.3c-0.2-0.1-0.4-0.2-0.7-0.3s-0.5-0.2-0.7-0.3
			s-0.4-0.3-0.5-0.5c-0.1-0.2-0.2-0.5-0.2-0.8c0-0.6,0.2-1,0.5-1.3c0.3-0.3,0.8-0.4,1.4-0.4c0.4,0,0.8,0,1.1,0.1
			c0.3,0.1,0.5,0.2,0.8,0.3l-0.2,0.8c-0.2-0.1-0.4-0.2-0.7-0.2c-0.3-0.1-0.5-0.1-0.8-0.1c-0.4,0-0.6,0.1-0.8,0.2s-0.2,0.3-0.2,0.6
			c0,0.2,0.1,0.4,0.2,0.5c0.1,0.1,0.3,0.2,0.5,0.3s0.4,0.2,0.7,0.3s0.5,0.2,0.7,0.3c0.2,0.1,0.4,0.3,0.5,0.5
			c0.1,0.2,0.2,0.5,0.2,0.9c0,0.3,0,0.5-0.1,0.7c-0.1,0.2-0.2,0.4-0.4,0.6s-0.4,0.3-0.7,0.4s-0.6,0.1-0.9,0.1c-0.5,0-0.8,0-1.2-0.1
			c-0.3-0.1-0.6-0.2-0.8-0.3l0.3-0.8c0.2,0.1,0.4,0.2,0.7,0.3c0.3,0.1,0.6,0.1,0.9,0.1c0.3,0,0.6-0.1,0.9-0.2
			C304.5,27.5,304.6,27.2,304.6,26.9z"/>
		<path class="st1" d="M310.8,28.5v-3.4c0-0.3,0-0.6-0.1-0.8c0-0.2-0.1-0.4-0.2-0.6s-0.2-0.3-0.4-0.4s-0.4-0.1-0.6-0.1
			c-0.4,0-0.7,0.1-1,0.4c-0.3,0.2-0.5,0.6-0.6,0.9v4h-1v-8.4h1v3.1h0c0.2-0.2,0.5-0.4,0.8-0.6c0.3-0.1,0.7-0.2,1.1-0.2
			c0.3,0,0.6,0,0.9,0.1c0.2,0.1,0.5,0.2,0.6,0.4s0.3,0.5,0.4,0.8c0.1,0.3,0.1,0.7,0.1,1.2v3.6H310.8z"/>
	</g>
	<g class="st0">
		<path class="st1" d="M316.4,25.5c0-1,0.2-1.8,0.7-2.3c0.5-0.5,1.1-0.8,1.9-0.8c0.4,0,0.8,0.1,1.2,0.2c0.3,0.1,0.6,0.4,0.8,0.6
			c0.2,0.3,0.4,0.6,0.5,1c0.1,0.4,0.2,0.8,0.2,1.3c0,1-0.2,1.8-0.7,2.3s-1.1,0.8-2,0.8c-0.4,0-0.8-0.1-1.2-0.2
			c-0.3-0.1-0.6-0.4-0.8-0.6c-0.2-0.3-0.4-0.6-0.5-1S316.4,26,316.4,25.5z M317.4,25.5c0,0.3,0,0.6,0.1,0.9c0.1,0.3,0.2,0.5,0.3,0.7
			s0.3,0.4,0.5,0.5s0.5,0.2,0.8,0.2c1.1,0,1.6-0.8,1.6-2.3c0-0.3,0-0.6-0.1-0.9c-0.1-0.3-0.2-0.5-0.3-0.7s-0.3-0.4-0.5-0.5
			c-0.2-0.1-0.5-0.2-0.8-0.2C318,23.2,317.4,24,317.4,25.5z"/>
	</g>
	<g class="st0">
		<path class="st1" d="M322.4,22.5h0.9v-0.3c0-0.4,0-0.7,0.1-1c0.1-0.3,0.2-0.5,0.3-0.7s0.3-0.3,0.5-0.4s0.5-0.1,0.8-0.1
			c0.3,0,0.5,0,0.7,0c0.2,0,0.4,0.1,0.6,0.2l-0.2,0.8c-0.2-0.1-0.4-0.1-0.5-0.2c-0.2,0-0.3,0-0.5,0c-0.2,0-0.4,0-0.5,0.1
			c-0.1,0.1-0.2,0.2-0.3,0.3c-0.1,0.1-0.1,0.3-0.1,0.5c0,0.2,0,0.4,0,0.6v0.2h1.6v0.8h-1.6v5.2h-1v-5.2h-0.9V22.5z"/>
	</g>
	<g class="st0">
		<path class="st1" d="M331.6,26l0.3,1.1h0l0.3-1.2l1.3-3.5h1l-2.6,6.1h-0.4l-2.6-6.1h1.1L331.6,26z"/>
	</g>
	<g class="st0">
		<path class="st1" d="M335.2,25.5c0-1,0.2-1.8,0.7-2.3c0.5-0.5,1.1-0.8,1.9-0.8c0.4,0,0.8,0.1,1.2,0.2c0.3,0.1,0.6,0.4,0.8,0.6
			c0.2,0.3,0.4,0.6,0.5,1c0.1,0.4,0.2,0.8,0.2,1.3c0,1-0.2,1.8-0.7,2.3s-1.1,0.8-2,0.8c-0.4,0-0.8-0.1-1.2-0.2
			c-0.3-0.1-0.6-0.4-0.8-0.6c-0.2-0.3-0.4-0.6-0.5-1S335.2,26,335.2,25.5z M336.2,25.5c0,0.3,0,0.6,0.1,0.9c0.1,0.3,0.2,0.5,0.3,0.7
			s0.3,0.4,0.5,0.5s0.5,0.2,0.8,0.2c1.1,0,1.6-0.8,1.6-2.3c0-0.3,0-0.6-0.1-0.9c-0.1-0.3-0.2-0.5-0.3-0.7s-0.3-0.4-0.5-0.5
			c-0.2-0.1-0.5-0.2-0.8-0.2C336.8,23.2,336.2,24,336.2,25.5z"/>
		<path class="st1" d="M343.1,27c0,0.3,0,0.5,0.1,0.6s0.2,0.2,0.4,0.2c0.1,0,0.2,0,0.3,0c0.1,0,0.3-0.1,0.4-0.1l0.1,0.8
			c-0.1,0.1-0.3,0.1-0.5,0.2c-0.2,0-0.4,0.1-0.6,0.1c-0.4,0-0.7-0.1-0.9-0.3c-0.2-0.2-0.3-0.5-0.3-1v-7.2h1V27z"/>
		<path class="st1" d="M346.4,22.5v3.4c0,0.3,0,0.6,0.1,0.8s0.1,0.4,0.2,0.6s0.2,0.3,0.4,0.4c0.2,0.1,0.3,0.1,0.6,0.1
			c0.2,0,0.4,0,0.6-0.1s0.3-0.2,0.5-0.3c0.1-0.1,0.2-0.3,0.3-0.4c0.1-0.2,0.2-0.3,0.2-0.5v-4h1v4.3c0,0.3,0,0.6,0,0.9
			c0,0.3,0.1,0.6,0.1,0.8h-0.7l-0.2-0.9h-0.1c-0.2,0.3-0.4,0.6-0.7,0.8c-0.3,0.2-0.7,0.3-1.2,0.3c-0.3,0-0.6,0-0.8-0.1
			c-0.2-0.1-0.4-0.2-0.6-0.4c-0.2-0.2-0.3-0.5-0.4-0.8c-0.1-0.3-0.1-0.7-0.1-1.2v-3.6H346.4z"/>
		<path class="st1" d="M355.5,28.5v-3.4c0-0.3,0-0.6,0-0.8c0-0.2-0.1-0.4-0.2-0.6s-0.2-0.3-0.3-0.4c-0.1-0.1-0.3-0.1-0.6-0.1
			c-0.4,0-0.7,0.1-0.9,0.3s-0.4,0.5-0.5,0.8v4.1h-1v-6h0.7l0.2,0.7h0c0.2-0.3,0.5-0.5,0.8-0.6c0.3-0.2,0.7-0.2,1.1-0.2
			c0.4,0,0.7,0.1,0.9,0.2s0.4,0.4,0.6,0.8c0.2-0.3,0.4-0.6,0.8-0.7s0.7-0.3,1.1-0.3c0.3,0,0.6,0,0.9,0.1c0.2,0.1,0.4,0.2,0.6,0.4
			c0.2,0.2,0.3,0.5,0.3,0.8c0.1,0.3,0.1,0.7,0.1,1.2v3.6h-1v-3.6c0-0.3,0-0.5,0-0.8c0-0.2-0.1-0.4-0.2-0.5c-0.1-0.1-0.2-0.2-0.3-0.3
			c-0.1-0.1-0.3-0.1-0.6-0.1c-0.4,0-0.7,0.1-0.9,0.3c-0.2,0.2-0.4,0.5-0.5,1v4H355.5z"/>
		<path class="st1" d="M366.1,28c-0.2,0.2-0.5,0.3-0.9,0.5c-0.4,0.1-0.8,0.2-1.2,0.2c-0.5,0-0.9-0.1-1.2-0.2
			c-0.3-0.1-0.6-0.4-0.8-0.6c-0.2-0.3-0.4-0.6-0.5-1s-0.2-0.8-0.2-1.3c0-1,0.2-1.8,0.7-2.3s1.1-0.8,2-0.8c0.3,0,0.5,0,0.8,0.1
			c0.3,0.1,0.5,0.2,0.7,0.3s0.4,0.4,0.5,0.7c0.1,0.3,0.2,0.7,0.2,1.2c0,0.3,0,0.6-0.1,0.9h-3.9c0,0.4,0,0.7,0.1,0.9
			c0.1,0.3,0.2,0.5,0.3,0.7c0.2,0.2,0.3,0.3,0.6,0.4c0.2,0.1,0.5,0.1,0.9,0.1c0.3,0,0.5,0,0.8-0.1c0.3-0.1,0.5-0.2,0.6-0.3L366.1,28
			z M364,23.2c-0.5,0-0.9,0.1-1.1,0.4c-0.3,0.2-0.5,0.7-0.5,1.3h3c0-0.6-0.1-1-0.3-1.3C364.8,23.3,364.5,23.2,364,23.2z"/>
		<path class="st1" d="M373.7,26.9c0-0.2-0.1-0.4-0.2-0.6c-0.1-0.1-0.3-0.3-0.5-0.3s-0.4-0.2-0.7-0.3s-0.5-0.2-0.7-0.3
			s-0.4-0.3-0.5-0.5c-0.1-0.2-0.2-0.5-0.2-0.8c0-0.6,0.2-1,0.5-1.3c0.3-0.3,0.8-0.4,1.4-0.4c0.4,0,0.8,0,1.1,0.1
			c0.3,0.1,0.5,0.2,0.8,0.3l-0.2,0.8c-0.2-0.1-0.4-0.2-0.7-0.2c-0.3-0.1-0.5-0.1-0.8-0.1c-0.4,0-0.6,0.1-0.8,0.2s-0.2,0.3-0.2,0.6
			c0,0.2,0.1,0.4,0.2,0.5c0.1,0.1,0.3,0.2,0.5,0.3s0.4,0.2,0.7,0.3s0.5,0.2,0.7,0.3s0.4,0.3,0.5,0.5c0.1,0.2,0.2,0.5,0.2,0.9
			c0,0.3,0,0.5-0.1,0.7c-0.1,0.2-0.2,0.4-0.4,0.6s-0.4,0.3-0.7,0.4s-0.6,0.1-0.9,0.1c-0.5,0-0.8,0-1.2-0.1c-0.3-0.1-0.6-0.2-0.8-0.3
			l0.3-0.8c0.2,0.1,0.4,0.2,0.7,0.3s0.6,0.1,0.9,0.1c0.3,0,0.6-0.1,0.9-0.2C373.5,27.5,373.7,27.2,373.7,26.9z"/>
		<path class="st1" d="M375.3,22.5h0.9v-1.2l1-0.3v1.5h1.6v0.8h-1.6v3.3c0,0.4,0.1,0.7,0.2,0.9c0.1,0.2,0.3,0.3,0.5,0.3
			c0.2,0,0.4,0,0.5-0.1c0.1,0,0.3-0.1,0.5-0.2l0.2,0.7c-0.2,0.1-0.5,0.2-0.7,0.3c-0.3,0.1-0.5,0.1-0.8,0.1c-0.5,0-0.8-0.1-1-0.4
			c-0.2-0.3-0.3-0.7-0.3-1.4v-3.5h-0.9V22.5z"/>
		<path class="st1" d="M380,23c0.3-0.2,0.7-0.3,1.1-0.4c0.4-0.1,0.8-0.1,1.3-0.1c0.4,0,0.8,0.1,1,0.2s0.4,0.3,0.6,0.4
			c0.1,0.2,0.2,0.4,0.3,0.6c0,0.2,0.1,0.4,0.1,0.6c0,0.5,0,0.9,0,1.4c0,0.5,0,0.9,0,1.3c0,0.3,0,0.6,0,0.8c0,0.3,0.1,0.5,0.1,0.7
			h-0.7l-0.3-0.8h-0.1c-0.1,0.1-0.2,0.2-0.3,0.3c-0.1,0.1-0.2,0.2-0.4,0.3c-0.2,0.1-0.3,0.2-0.5,0.2c-0.2,0.1-0.4,0.1-0.7,0.1
			c-0.3,0-0.5,0-0.7-0.1c-0.2-0.1-0.4-0.2-0.6-0.3c-0.2-0.1-0.3-0.3-0.4-0.5c-0.1-0.2-0.1-0.4-0.1-0.7c0-0.4,0.1-0.6,0.2-0.9
			c0.1-0.2,0.3-0.4,0.6-0.6c0.3-0.1,0.6-0.2,0.9-0.3c0.4-0.1,0.8-0.1,1.2-0.1c0.1,0,0.2,0,0.3,0c0.1,0,0.2,0,0.3,0
			c0-0.2,0-0.5,0-0.6c0-0.4-0.1-0.7-0.3-0.9s-0.5-0.3-1-0.3c-0.1,0-0.3,0-0.4,0c-0.2,0-0.3,0-0.5,0.1s-0.3,0.1-0.5,0.1
			c-0.1,0.1-0.3,0.1-0.4,0.2L380,23z M381.7,27.8c0.2,0,0.4,0,0.6-0.1c0.2-0.1,0.3-0.1,0.5-0.2c0.1-0.1,0.2-0.2,0.3-0.3
			c0.1-0.1,0.1-0.2,0.2-0.3v-1c-0.1,0-0.2,0-0.3,0s-0.2,0-0.3,0c-0.2,0-0.5,0-0.7,0c-0.2,0-0.4,0.1-0.6,0.2
			c-0.2,0.1-0.3,0.2-0.4,0.3c-0.1,0.1-0.2,0.3-0.2,0.5c0,0.3,0.1,0.5,0.3,0.7C381.2,27.7,381.4,27.8,381.7,27.8z"/>
	</g>
	<g class="st0">
		<path class="st1" d="M385.3,22.5h0.9v-1.2l1-0.3v1.5h1.6v0.8h-1.6v3.3c0,0.4,0.1,0.7,0.2,0.9c0.1,0.2,0.3,0.3,0.5,0.3
			c0.2,0,0.4,0,0.5-0.1c0.1,0,0.3-0.1,0.5-0.2l0.2,0.7c-0.2,0.1-0.5,0.2-0.7,0.3c-0.3,0.1-0.5,0.1-0.8,0.1c-0.5,0-0.8-0.1-1-0.4
			c-0.2-0.3-0.3-0.7-0.3-1.4v-3.5h-0.9V22.5z"/>
	</g>
	<g class="st0">
		<path class="st1" d="M394.4,28c-0.2,0.2-0.5,0.3-0.9,0.5c-0.4,0.1-0.8,0.2-1.2,0.2c-0.5,0-0.9-0.1-1.2-0.2
			c-0.3-0.1-0.6-0.4-0.8-0.6c-0.2-0.3-0.4-0.6-0.5-1s-0.2-0.8-0.2-1.3c0-1,0.2-1.8,0.7-2.3s1.1-0.8,2-0.8c0.3,0,0.5,0,0.8,0.1
			c0.3,0.1,0.5,0.2,0.7,0.3s0.4,0.4,0.5,0.7c0.1,0.3,0.2,0.7,0.2,1.2c0,0.3,0,0.6-0.1,0.9h-3.9c0,0.4,0,0.7,0.1,0.9
			c0.1,0.3,0.2,0.5,0.3,0.7c0.2,0.2,0.3,0.3,0.6,0.4c0.2,0.1,0.5,0.1,0.9,0.1c0.3,0,0.5,0,0.8-0.1c0.3-0.1,0.5-0.2,0.6-0.3L394.4,28
			z M392.3,23.2c-0.5,0-0.9,0.1-1.1,0.4c-0.3,0.2-0.5,0.7-0.5,1.3h3c0-0.6-0.1-1-0.3-1.3C393.1,23.3,392.8,23.2,392.3,23.2z"/>
	</g>
	<g class="st0">
		<path class="st1" d="M219.4,50.8l0.2,0.9h0.1l0.2-0.9l1-3.1h1.7l-2.5,6.1h-0.9l-2.6-6.1h1.8L219.4,50.8z"/>
	</g>
	<g class="st0">
		<path class="st1" d="M222.7,50.7c0-1,0.2-1.8,0.7-2.3c0.5-0.5,1.2-0.8,2.1-0.8c0.5,0,0.9,0.1,1.2,0.2c0.4,0.2,0.6,0.4,0.9,0.6
			c0.2,0.3,0.4,0.6,0.5,1c0.1,0.4,0.2,0.8,0.2,1.3c0,1-0.2,1.8-0.7,2.3c-0.5,0.5-1.2,0.8-2.1,0.8c-0.5,0-0.9-0.1-1.2-0.2
			c-0.4-0.2-0.6-0.4-0.9-0.6c-0.2-0.3-0.4-0.6-0.5-1C222.7,51.6,222.7,51.1,222.7,50.7z M224.3,50.7c0,0.3,0,0.5,0.1,0.7
			c0,0.2,0.1,0.4,0.2,0.6s0.2,0.3,0.4,0.4c0.2,0.1,0.3,0.1,0.6,0.1c0.4,0,0.7-0.1,0.9-0.4c0.2-0.3,0.3-0.8,0.3-1.4
			c0-0.6-0.1-1-0.3-1.3s-0.5-0.5-0.9-0.5c-0.4,0-0.7,0.1-0.9,0.4C224.4,49.5,224.3,50,224.3,50.7z"/>
		<path class="st1" d="M231,51.6c0,0.3,0,0.5,0.1,0.6s0.2,0.2,0.3,0.2c0.1,0,0.2,0,0.3,0c0.1,0,0.2-0.1,0.3-0.1l0.2,1.2
			c-0.1,0.1-0.3,0.1-0.6,0.2c-0.3,0.1-0.5,0.1-0.8,0.1c-0.5,0-0.8-0.1-1-0.3s-0.4-0.6-0.4-1v-7.2h1.6V51.6z"/>
		<path class="st1" d="M234.4,47.7v3.4c0,0.5,0.1,0.8,0.2,1.1s0.3,0.3,0.7,0.3c0.3,0,0.5-0.1,0.7-0.3c0.2-0.2,0.3-0.4,0.4-0.6v-3.9
			h1.6v4.2c0,0.3,0,0.7,0,1c0,0.3,0.1,0.6,0.1,0.9H237l-0.3-0.9h0c-0.2,0.3-0.4,0.6-0.8,0.8s-0.7,0.3-1.2,0.3c-0.3,0-0.6,0-0.8-0.1
			s-0.4-0.2-0.6-0.4c-0.2-0.2-0.3-0.4-0.4-0.7c-0.1-0.3-0.1-0.7-0.1-1.2v-3.7H234.4z"/>
		<path class="st1" d="M242.8,53.7v-3.3c0-0.6-0.1-0.9-0.2-1.2c-0.1-0.2-0.3-0.3-0.6-0.3c-0.3,0-0.5,0.1-0.7,0.2
			c-0.2,0.1-0.3,0.3-0.4,0.6v4h-1.6v-6h1.2l0.2,0.8h0c0.2-0.3,0.4-0.5,0.7-0.7c0.3-0.2,0.6-0.3,1.1-0.3c0.4,0,0.7,0.1,0.9,0.2
			c0.2,0.2,0.4,0.4,0.6,0.8c0.2-0.3,0.4-0.6,0.7-0.7c0.3-0.2,0.6-0.3,1-0.3c0.3,0,0.6,0,0.9,0.1c0.2,0.1,0.4,0.2,0.6,0.4
			c0.1,0.2,0.3,0.5,0.3,0.8c0.1,0.3,0.1,0.7,0.1,1.2v3.6h-1.6v-3.4c0-0.5-0.1-0.8-0.2-1.1c-0.1-0.2-0.3-0.4-0.7-0.4
			c-0.3,0-0.5,0.1-0.7,0.2c-0.2,0.2-0.3,0.4-0.4,0.6v3.9H242.8z"/>
		<path class="st1" d="M253.9,53.1c-0.2,0.2-0.6,0.4-1,0.5s-0.8,0.2-1.3,0.2c-1,0-1.7-0.3-2.1-0.8c-0.4-0.6-0.7-1.3-0.7-2.3
			c0-1.1,0.3-1.8,0.8-2.4s1.2-0.8,2.1-0.8c0.3,0,0.6,0,0.9,0.1s0.5,0.2,0.8,0.4c0.2,0.2,0.4,0.4,0.5,0.7c0.1,0.3,0.2,0.7,0.2,1.2
			c0,0.2,0,0.3,0,0.5c0,0.2,0,0.4-0.1,0.6h-3.6c0,0.5,0.2,0.9,0.4,1.1c0.2,0.3,0.6,0.4,1.1,0.4c0.3,0,0.6,0,0.9-0.2
			c0.3-0.1,0.5-0.2,0.6-0.3L253.9,53.1z M251.6,48.7c-0.4,0-0.7,0.1-0.9,0.4c-0.2,0.2-0.3,0.6-0.4,1h2.2c0-0.4,0-0.8-0.2-1
			C252.2,48.8,252,48.7,251.6,48.7z"/>
	</g>
	<g class="st0">
		<path class="st1" d="M260.2,51.2h-0.4v2.5h-1.6v-8.4h1.6v5l0.4-0.2l1.4-2.4h1.7l-1.4,2.3l-0.6,0.5l0.7,0.5l1.6,2.8h-1.8
			L260.2,51.2z"/>
	</g>
	<g class="st0">
		<path class="st1" d="M268.7,53.1c-0.2,0.2-0.6,0.4-1,0.5s-0.8,0.2-1.3,0.2c-1,0-1.7-0.3-2.1-0.8c-0.4-0.6-0.7-1.3-0.7-2.3
			c0-1.1,0.3-1.8,0.8-2.4s1.2-0.8,2.1-0.8c0.3,0,0.6,0,0.9,0.1s0.5,0.2,0.8,0.4c0.2,0.2,0.4,0.4,0.5,0.7c0.1,0.3,0.2,0.7,0.2,1.2
			c0,0.2,0,0.3,0,0.5c0,0.2,0,0.4-0.1,0.6h-3.6c0,0.5,0.2,0.9,0.4,1.1c0.2,0.3,0.6,0.4,1.1,0.4c0.3,0,0.6,0,0.9-0.2
			c0.3-0.1,0.5-0.2,0.6-0.3L268.7,53.1z M266.5,48.7c-0.4,0-0.7,0.1-0.9,0.4c-0.2,0.2-0.3,0.6-0.4,1h2.2c0-0.4,0-0.8-0.2-1
			C267.1,48.8,266.9,48.7,266.5,48.7z"/>
	</g>
	<g class="st0">
		<path class="st1" d="M272.1,51l0.2,0.9h0.1l0.2-0.9l0.9-3.4h1.6l-1.8,5.4c-0.2,0.4-0.3,0.9-0.4,1.2c-0.1,0.4-0.3,0.7-0.5,1
			c-0.2,0.3-0.4,0.5-0.6,0.6c-0.2,0.1-0.4,0.2-0.7,0.2c-0.4,0-0.7-0.1-1-0.2l0.3-1.2c0.1,0,0.2,0.1,0.4,0.1c0.2,0,0.4-0.1,0.5-0.2
			c0.2-0.2,0.3-0.4,0.4-0.8l-2.5-6h1.9L272.1,51z"/>
	</g>
	<g class="st0">
		<path class="st1" d="M278.3,49.5h7.2v1.4h-7.2V49.5z"/>
	</g>
	<g class="st0">
		<path class="st1" d="M291.3,50.9h-0.6v2.7h-1v-8.4h1v5.1l0.5-0.2l1.9-2.5h1.1l-1.8,2.4l-0.5,0.4l0.6,0.5l2,2.7h-1.2L291.3,50.9z"
			/>
	</g>
	<g class="st0">
		<path class="st1" d="M299.8,53.2c-0.2,0.2-0.5,0.3-0.9,0.5c-0.4,0.1-0.8,0.2-1.2,0.2c-0.5,0-0.9-0.1-1.2-0.2
			c-0.3-0.1-0.6-0.4-0.8-0.6c-0.2-0.3-0.4-0.6-0.5-1s-0.2-0.8-0.2-1.3c0-1,0.2-1.8,0.7-2.3s1.1-0.8,2-0.8c0.3,0,0.5,0,0.8,0.1
			c0.3,0.1,0.5,0.2,0.7,0.3s0.4,0.4,0.5,0.7c0.1,0.3,0.2,0.7,0.2,1.2c0,0.3,0,0.6-0.1,0.9h-3.9c0,0.4,0,0.7,0.1,0.9
			c0.1,0.3,0.2,0.5,0.3,0.7c0.2,0.2,0.3,0.3,0.6,0.4c0.2,0.1,0.5,0.1,0.9,0.1c0.3,0,0.5,0,0.8-0.1c0.3-0.1,0.5-0.2,0.6-0.3
			L299.8,53.2z M297.8,48.3c-0.5,0-0.9,0.1-1.1,0.4c-0.3,0.2-0.5,0.7-0.5,1.3h3c0-0.6-0.1-1-0.3-1.3
			C298.5,48.5,298.2,48.3,297.8,48.3z"/>
	</g>
	<g class="st0">
		<path class="st1" d="M303,51.5l0.3,1.2h0.1l0.3-1.2l1.2-3.9h1l-1.8,5.4c-0.1,0.4-0.3,0.8-0.4,1.1c-0.1,0.4-0.3,0.7-0.4,1
			s-0.3,0.5-0.5,0.7s-0.4,0.3-0.7,0.3c-0.3,0-0.5,0-0.7-0.1l0.2-0.8c0.1,0,0.2,0.1,0.3,0.1c0.2,0,0.4-0.1,0.6-0.4
			c0.2-0.2,0.4-0.6,0.5-1.2l-2.4-6h1.1L303,51.5z"/>
	</g>
	<g class="st0">
		<path class="st1" d="M310.5,47.7v3.4c0,0.3,0,0.6,0.1,0.8c0,0.2,0.1,0.4,0.2,0.6s0.2,0.3,0.4,0.4c0.2,0.1,0.3,0.1,0.6,0.1
			c0.2,0,0.4,0,0.6-0.1s0.3-0.2,0.5-0.3s0.2-0.3,0.3-0.4c0.1-0.2,0.2-0.3,0.2-0.5v-4h1v4.3c0,0.3,0,0.6,0,0.9c0,0.3,0.1,0.6,0.1,0.8
			h-0.7l-0.2-0.9h-0.1c-0.2,0.3-0.4,0.6-0.7,0.8c-0.3,0.2-0.7,0.3-1.2,0.3c-0.3,0-0.6,0-0.8-0.1c-0.2-0.1-0.4-0.2-0.6-0.4
			s-0.3-0.5-0.4-0.8c-0.1-0.3-0.1-0.7-0.1-1.2v-3.6H310.5z"/>
		<path class="st1" d="M318.7,52c0-0.2-0.1-0.4-0.2-0.6c-0.1-0.1-0.3-0.3-0.5-0.3s-0.4-0.2-0.7-0.3s-0.5-0.2-0.7-0.3
			s-0.4-0.3-0.5-0.5c-0.1-0.2-0.2-0.5-0.2-0.8c0-0.6,0.2-1,0.5-1.3c0.3-0.3,0.8-0.4,1.4-0.4c0.4,0,0.8,0,1.1,0.1
			c0.3,0.1,0.5,0.2,0.8,0.3l-0.2,0.8c-0.2-0.1-0.4-0.2-0.7-0.2c-0.3-0.1-0.5-0.1-0.8-0.1c-0.4,0-0.6,0.1-0.8,0.2s-0.2,0.3-0.2,0.6
			c0,0.2,0.1,0.4,0.2,0.5c0.1,0.1,0.3,0.2,0.5,0.3s0.4,0.2,0.7,0.3s0.5,0.2,0.7,0.3s0.4,0.3,0.5,0.5c0.1,0.2,0.2,0.5,0.2,0.9
			c0,0.3,0,0.5-0.1,0.7c-0.1,0.2-0.2,0.4-0.4,0.6c-0.2,0.2-0.4,0.3-0.7,0.4c-0.3,0.1-0.6,0.1-0.9,0.1c-0.5,0-0.8,0-1.2-0.1
			c-0.3-0.1-0.6-0.2-0.8-0.3l0.3-0.8c0.2,0.1,0.4,0.2,0.7,0.3s0.6,0.1,0.9,0.1c0.3,0,0.6-0.1,0.9-0.2
			C318.6,52.6,318.7,52.4,318.7,52z"/>
		<path class="st1" d="M325.5,53.2c-0.2,0.2-0.5,0.3-0.9,0.5c-0.4,0.1-0.8,0.2-1.2,0.2c-0.5,0-0.9-0.1-1.2-0.2
			c-0.3-0.1-0.6-0.4-0.8-0.6c-0.2-0.3-0.4-0.6-0.5-1s-0.2-0.8-0.2-1.3c0-1,0.2-1.8,0.7-2.3s1.1-0.8,2-0.8c0.3,0,0.5,0,0.8,0.1
			c0.3,0.1,0.5,0.2,0.7,0.3s0.4,0.4,0.5,0.7c0.1,0.3,0.2,0.7,0.2,1.2c0,0.3,0,0.6-0.1,0.9h-3.9c0,0.4,0,0.7,0.1,0.9
			c0.1,0.3,0.2,0.5,0.3,0.7c0.2,0.2,0.3,0.3,0.6,0.4c0.2,0.1,0.5,0.1,0.9,0.1c0.3,0,0.5,0,0.8-0.1c0.3-0.1,0.5-0.2,0.6-0.3
			L325.5,53.2z M323.5,48.3c-0.5,0-0.9,0.1-1.1,0.4c-0.3,0.2-0.5,0.7-0.5,1.3h3c0-0.6-0.1-1-0.3-1.3
			C324.2,48.5,323.9,48.3,323.5,48.3z"/>
		<path class="st1" d="M331.9,51.6c0,0.4,0,0.8,0,1.1s0,0.7,0.1,1h-0.6l-0.2-0.9h0c-0.2,0.3-0.4,0.5-0.7,0.7
			c-0.3,0.2-0.7,0.3-1.1,0.3c-0.8,0-1.4-0.3-1.8-0.8c-0.4-0.5-0.6-1.3-0.6-2.4c0-1,0.2-1.8,0.7-2.3c0.5-0.5,1.2-0.8,2-0.8
			c0.3,0,0.5,0,0.7,0c0.2,0,0.4,0.1,0.6,0.2v-2.5h1V51.6z M329.4,53c0.4,0,0.7-0.1,1-0.3c0.2-0.2,0.4-0.5,0.5-1v-3
			c-0.1-0.1-0.3-0.2-0.5-0.2c-0.2,0-0.4-0.1-0.7-0.1c-0.6,0-1,0.2-1.3,0.5s-0.5,0.9-0.5,1.7c0,0.3,0,0.6,0.1,0.9
			c0.1,0.3,0.1,0.5,0.3,0.7s0.3,0.4,0.5,0.5S329.2,53,329.4,53z"/>
	</g>
	<g class="st0">
		<path class="st1" d="M336.1,47.7h0.9v-1.2l1-0.3v1.5h1.6v0.8H338v3.3c0,0.4,0.1,0.7,0.2,0.9c0.1,0.2,0.3,0.3,0.5,0.3
			c0.2,0,0.4,0,0.5-0.1c0.1,0,0.3-0.1,0.5-0.2l0.2,0.7c-0.2,0.1-0.5,0.2-0.7,0.3c-0.3,0.1-0.5,0.1-0.8,0.1c-0.5,0-0.8-0.1-1-0.4
			c-0.2-0.3-0.3-0.7-0.3-1.4v-3.5h-0.9V47.7z"/>
	</g>
	<g class="st0">
		<path class="st1" d="M340.5,50.7c0-1,0.2-1.8,0.7-2.3c0.5-0.5,1.1-0.8,1.9-0.8c0.4,0,0.8,0.1,1.2,0.2c0.3,0.1,0.6,0.4,0.8,0.6
			c0.2,0.3,0.4,0.6,0.5,1c0.1,0.4,0.2,0.8,0.2,1.3c0,1-0.2,1.8-0.7,2.3s-1.1,0.8-2,0.8c-0.4,0-0.8-0.1-1.2-0.2
			c-0.3-0.1-0.6-0.4-0.8-0.6c-0.2-0.3-0.4-0.6-0.5-1S340.5,51.1,340.5,50.7z M341.5,50.7c0,0.3,0,0.6,0.1,0.9
			c0.1,0.3,0.2,0.5,0.3,0.7s0.3,0.4,0.5,0.5s0.5,0.2,0.8,0.2c1.1,0,1.6-0.8,1.6-2.3c0-0.3,0-0.6-0.1-0.9c-0.1-0.3-0.2-0.5-0.3-0.7
			s-0.3-0.4-0.5-0.5c-0.2-0.1-0.5-0.2-0.8-0.2C342,48.3,341.5,49.1,341.5,50.7z"/>
		<path class="st1" d="M354.9,53.2c-0.2,0.2-0.5,0.3-0.9,0.5c-0.4,0.1-0.8,0.2-1.2,0.2c-0.5,0-0.9-0.1-1.2-0.2
			c-0.3-0.1-0.6-0.4-0.8-0.6c-0.2-0.3-0.4-0.6-0.5-1s-0.2-0.8-0.2-1.3c0-1,0.2-1.8,0.7-2.3s1.1-0.8,2-0.8c0.3,0,0.5,0,0.8,0.1
			c0.3,0.1,0.5,0.2,0.7,0.3s0.4,0.4,0.5,0.7c0.1,0.3,0.2,0.7,0.2,1.2c0,0.3,0,0.6-0.1,0.9h-3.9c0,0.4,0,0.7,0.1,0.9
			c0.1,0.3,0.2,0.5,0.3,0.7c0.2,0.2,0.3,0.3,0.6,0.4c0.2,0.1,0.5,0.1,0.9,0.1c0.3,0,0.5,0,0.8-0.1c0.3-0.1,0.5-0.2,0.6-0.3
			L354.9,53.2z M352.8,48.3c-0.5,0-0.9,0.1-1.1,0.4c-0.3,0.2-0.5,0.7-0.5,1.3h3c0-0.6-0.1-1-0.3-1.3
			C353.5,48.5,353.2,48.3,352.8,48.3z"/>
		<path class="st1" d="M360.4,53.7v-3.4c0-0.6-0.1-1.1-0.3-1.4c-0.2-0.3-0.5-0.5-1-0.5c-0.4,0-0.8,0.1-1,0.3
			c-0.3,0.2-0.5,0.5-0.6,0.9v4.1h-1v-6h0.7l0.2,0.7h0c0.2-0.3,0.4-0.5,0.8-0.6c0.3-0.2,0.7-0.2,1.2-0.2c0.3,0,0.6,0,0.9,0.1
			c0.2,0.1,0.5,0.2,0.6,0.4s0.3,0.5,0.4,0.8c0.1,0.3,0.1,0.7,0.1,1.2v3.6H360.4z"/>
		<path class="st1" d="M367.2,53.3c-0.2,0.2-0.5,0.3-0.9,0.4s-0.7,0.1-1,0.1c-0.5,0-0.9-0.1-1.2-0.2c-0.3-0.1-0.6-0.4-0.8-0.6
			c-0.2-0.3-0.4-0.6-0.4-1c-0.1-0.4-0.1-0.8-0.1-1.3c0-1,0.2-1.8,0.7-2.3c0.4-0.5,1.1-0.8,1.9-0.8c0.4,0,0.7,0,1,0.1
			c0.3,0.1,0.5,0.1,0.7,0.3l-0.3,0.8c-0.2-0.1-0.4-0.2-0.6-0.2c-0.2-0.1-0.5-0.1-0.7-0.1c-1.1,0-1.7,0.8-1.7,2.3
			c0,0.3,0,0.6,0.1,0.9c0.1,0.3,0.2,0.5,0.3,0.7c0.1,0.2,0.3,0.4,0.6,0.5c0.2,0.1,0.5,0.2,0.8,0.2c0.3,0,0.5,0,0.8-0.1
			c0.2-0.1,0.4-0.2,0.6-0.3L367.2,53.3z"/>
		<path class="st1" d="M371.4,48.6c-0.2-0.1-0.5-0.1-0.7-0.1c-0.3,0-0.6,0.1-0.8,0.3c-0.2,0.2-0.3,0.4-0.4,0.7v4.2h-1v-6h0.7
			l0.2,0.7h0c0.2-0.3,0.3-0.5,0.5-0.6c0.2-0.1,0.5-0.2,0.8-0.2c0.2,0,0.5,0,0.8,0.1L371.4,48.6z"/>
		<path class="st1" d="M374.4,51.5l0.3,1.2h0.1l0.3-1.2l1.2-3.9h1l-1.8,5.4c-0.1,0.4-0.3,0.8-0.4,1.1c-0.1,0.4-0.3,0.7-0.4,1
			c-0.2,0.3-0.3,0.5-0.5,0.7c-0.2,0.2-0.4,0.3-0.7,0.3c-0.3,0-0.5,0-0.7-0.1l0.2-0.8c0.1,0,0.2,0.1,0.3,0.1c0.2,0,0.4-0.1,0.6-0.4
			c0.2-0.2,0.4-0.6,0.5-1.2l-2.4-6h1.1L374.4,51.5z"/>
		<path class="st1" d="M378.2,47.7h0.7l0.2,0.7h0c0.2-0.3,0.4-0.5,0.7-0.6s0.6-0.2,1-0.2c0.8,0,1.4,0.2,1.8,0.7
			c0.4,0.5,0.6,1.2,0.6,2.3c0,0.5-0.1,1-0.2,1.4s-0.3,0.7-0.6,1c-0.2,0.3-0.5,0.5-0.9,0.6c-0.3,0.2-0.7,0.2-1.1,0.2
			c-0.3,0-0.5,0-0.7-0.1s-0.4-0.1-0.6-0.2v2.5h-1V47.7z M380.6,48.3c-0.4,0-0.7,0.1-1,0.3c-0.2,0.2-0.4,0.5-0.5,1v3
			c0.1,0.1,0.3,0.2,0.5,0.3c0.2,0.1,0.4,0.1,0.7,0.1c0.6,0,1-0.2,1.3-0.6c0.3-0.4,0.5-1,0.5-1.8c0-0.3,0-0.6-0.1-0.9
			c-0.1-0.3-0.1-0.5-0.3-0.7c-0.1-0.2-0.3-0.3-0.5-0.4C381.2,48.4,380.9,48.3,380.6,48.3z"/>
		<path class="st1" d="M383.9,47.7h0.9v-1.2l1-0.3v1.5h1.6v0.8h-1.6v3.3c0,0.4,0.1,0.7,0.2,0.9c0.1,0.2,0.3,0.3,0.5,0.3
			c0.2,0,0.4,0,0.5-0.1s0.3-0.1,0.5-0.2l0.2,0.7c-0.2,0.1-0.5,0.2-0.7,0.3c-0.3,0.1-0.5,0.1-0.8,0.1c-0.5,0-0.8-0.1-1-0.4
			c-0.2-0.3-0.3-0.7-0.3-1.4v-3.5h-0.9V47.7z"/>
	</g>
	<g class="st0">
		<path class="st1" d="M393.6,51.2l0.3,1.1h0l0.3-1.2l1.3-3.5h1l-2.6,6.1h-0.4l-2.6-6.1h1.1L393.6,51.2z"/>
	</g>
	<g class="st0">
		<path class="st1" d="M397.1,50.7c0-1,0.2-1.8,0.7-2.3c0.5-0.5,1.1-0.8,1.9-0.8c0.4,0,0.8,0.1,1.2,0.2c0.3,0.1,0.6,0.4,0.8,0.6
			c0.2,0.3,0.4,0.6,0.5,1c0.1,0.4,0.2,0.8,0.2,1.3c0,1-0.2,1.8-0.7,2.3s-1.1,0.8-2,0.8c-0.4,0-0.8-0.1-1.2-0.2
			c-0.3-0.1-0.6-0.4-0.8-0.6c-0.2-0.3-0.4-0.6-0.5-1S397.1,51.1,397.1,50.7z M398.1,50.7c0,0.3,0,0.6,0.1,0.9
			c0.1,0.3,0.2,0.5,0.3,0.7s0.3,0.4,0.5,0.5s0.5,0.2,0.8,0.2c1.1,0,1.6-0.8,1.6-2.3c0-0.3,0-0.6-0.1-0.9c-0.1-0.3-0.2-0.5-0.3-0.7
			s-0.3-0.4-0.5-0.5c-0.2-0.1-0.5-0.2-0.8-0.2C398.7,48.3,398.1,49.1,398.1,50.7z"/>
		<path class="st1" d="M405,52.2c0,0.3,0,0.5,0.1,0.6s0.2,0.2,0.4,0.2c0.1,0,0.2,0,0.3,0c0.1,0,0.3-0.1,0.4-0.1l0.1,0.8
			c-0.1,0.1-0.3,0.1-0.5,0.2c-0.2,0-0.4,0.1-0.6,0.1c-0.4,0-0.7-0.1-0.9-0.3c-0.2-0.2-0.3-0.5-0.3-1v-7.2h1V52.2z"/>
		<path class="st1" d="M408.3,47.7v3.4c0,0.3,0,0.6,0.1,0.8s0.1,0.4,0.2,0.6s0.2,0.3,0.4,0.4c0.2,0.1,0.3,0.1,0.6,0.1
			c0.2,0,0.4,0,0.6-0.1s0.3-0.2,0.5-0.3c0.1-0.1,0.2-0.3,0.3-0.4c0.1-0.2,0.2-0.3,0.2-0.5v-4h1v4.3c0,0.3,0,0.6,0,0.9
			c0,0.3,0.1,0.6,0.1,0.8h-0.7l-0.2-0.9h-0.1c-0.2,0.3-0.4,0.6-0.7,0.8c-0.3,0.2-0.7,0.3-1.2,0.3c-0.3,0-0.6,0-0.8-0.1
			c-0.2-0.1-0.4-0.2-0.6-0.4c-0.2-0.2-0.3-0.5-0.4-0.8c-0.1-0.3-0.1-0.7-0.1-1.2v-3.6H408.3z"/>
		<path class="st1" d="M417.4,53.7v-3.4c0-0.3,0-0.6,0-0.8c0-0.2-0.1-0.4-0.2-0.6s-0.2-0.3-0.3-0.4c-0.1-0.1-0.3-0.1-0.6-0.1
			c-0.4,0-0.7,0.1-0.9,0.3s-0.4,0.5-0.5,0.8v4.1h-1v-6h0.7l0.2,0.7h0c0.2-0.3,0.5-0.5,0.8-0.6c0.3-0.2,0.7-0.2,1.1-0.2
			c0.4,0,0.7,0.1,0.9,0.2s0.4,0.4,0.6,0.8c0.2-0.3,0.4-0.6,0.8-0.7s0.7-0.3,1.1-0.3c0.3,0,0.6,0,0.9,0.1c0.2,0.1,0.4,0.2,0.6,0.4
			c0.2,0.2,0.3,0.5,0.3,0.8c0.1,0.3,0.1,0.7,0.1,1.2v3.6h-1V50c0-0.3,0-0.5,0-0.8c0-0.2-0.1-0.4-0.2-0.5c-0.1-0.1-0.2-0.2-0.3-0.3
			c-0.1-0.1-0.3-0.1-0.6-0.1c-0.4,0-0.7,0.1-0.9,0.3c-0.2,0.2-0.4,0.5-0.5,1v4H417.4z"/>
		<path class="st1" d="M428,53.2c-0.2,0.2-0.5,0.3-0.9,0.5c-0.4,0.1-0.8,0.2-1.2,0.2c-0.5,0-0.9-0.1-1.2-0.2
			c-0.3-0.1-0.6-0.4-0.8-0.6c-0.2-0.3-0.4-0.6-0.5-1s-0.2-0.8-0.2-1.3c0-1,0.2-1.8,0.7-2.3s1.1-0.8,2-0.8c0.3,0,0.5,0,0.8,0.1
			c0.3,0.1,0.5,0.2,0.7,0.3s0.4,0.4,0.5,0.7c0.1,0.3,0.2,0.7,0.2,1.2c0,0.3,0,0.6-0.1,0.9h-3.9c0,0.4,0,0.7,0.1,0.9
			c0.1,0.3,0.2,0.5,0.3,0.7c0.2,0.2,0.3,0.3,0.6,0.4c0.2,0.1,0.5,0.1,0.9,0.1c0.3,0,0.5,0,0.8-0.1c0.3-0.1,0.5-0.2,0.6-0.3L428,53.2
			z M425.9,48.3c-0.5,0-0.9,0.1-1.1,0.4c-0.3,0.2-0.5,0.7-0.5,1.3h3c0-0.6-0.1-1-0.3-1.3C426.7,48.5,426.4,48.3,425.9,48.3z"/>
	</g>
	<g class="st0">
		<path class="st1" d="M245.1,81v6h-1.6v-4.7h-1.8V87h-1.6v-4.7h-0.8V81h0.8v-0.3c0-0.8,0.2-1.3,0.6-1.7c0.4-0.3,1-0.5,1.7-0.5
			c0.6,0,1,0,1.5,0.1s0.8,0.2,1,0.4l-0.4,1.2c-0.2-0.1-0.5-0.2-0.8-0.3c-0.3-0.1-0.6-0.1-1-0.1c-0.2,0-0.4,0-0.6,0.1
			c-0.1,0.1-0.3,0.1-0.3,0.2c-0.1,0.1-0.1,0.2-0.2,0.4c0,0.2,0,0.3,0,0.5H245.1z"/>
		<path class="st1" d="M248.1,84.9c0,0.3,0,0.5,0.1,0.6s0.2,0.2,0.3,0.2c0.1,0,0.2,0,0.3,0c0.1,0,0.2-0.1,0.3-0.1l0.2,1.2
			c-0.1,0.1-0.3,0.1-0.6,0.2c-0.3,0.1-0.5,0.1-0.8,0.1c-0.5,0-0.8-0.1-1-0.3c-0.2-0.2-0.4-0.6-0.4-1v-7.2h1.6V84.9z"/>
		<path class="st1" d="M254.9,86.4c-0.2,0.2-0.6,0.4-1,0.5s-0.8,0.2-1.3,0.2c-1,0-1.7-0.3-2.1-0.8c-0.4-0.6-0.7-1.3-0.7-2.3
			c0-1.1,0.3-1.8,0.8-2.4s1.2-0.8,2.1-0.8c0.3,0,0.6,0,0.9,0.1s0.5,0.2,0.8,0.4c0.2,0.2,0.4,0.4,0.5,0.7c0.1,0.3,0.2,0.7,0.2,1.2
			c0,0.2,0,0.3,0,0.5c0,0.2,0,0.4-0.1,0.6h-3.6c0,0.5,0.2,0.9,0.4,1.1c0.2,0.3,0.6,0.4,1.1,0.4c0.3,0,0.6,0,0.9-0.2
			c0.3-0.1,0.5-0.2,0.6-0.3L254.9,86.4z M252.6,82c-0.4,0-0.7,0.1-0.9,0.4c-0.2,0.2-0.3,0.6-0.4,1h2.2c0-0.4,0-0.8-0.2-1
			C253.2,82.1,253,82,252.6,82z"/>
		<path class="st1" d="M258.6,81h0.8v-1.1l1.6-0.4V81h1.5v1.3H261v2.3c0,0.4,0,0.7,0.1,0.9c0.1,0.2,0.2,0.3,0.5,0.3
			c0.2,0,0.3,0,0.4,0s0.2-0.1,0.4-0.1l0.3,1.2c-0.2,0.1-0.5,0.2-0.8,0.3c-0.3,0.1-0.6,0.1-0.9,0.1c-0.6,0-1-0.1-1.2-0.4
			c-0.3-0.3-0.4-0.8-0.4-1.4v-3h-0.8V81z"/>
		<path class="st1" d="M263.4,81.3c0.3-0.1,0.7-0.3,1.1-0.3c0.4-0.1,0.9-0.1,1.4-0.1c0.4,0,0.8,0,1,0.2c0.3,0.1,0.5,0.2,0.7,0.4
			s0.3,0.4,0.3,0.7c0.1,0.3,0.1,0.5,0.1,0.9c0,0.4,0,0.7,0,1.1c0,0.4,0,0.7,0,1c0,0.3,0,0.7,0,1s0.1,0.6,0.2,0.9h-1.3l-0.3-0.8h-0.1
			c-0.2,0.2-0.4,0.5-0.7,0.6s-0.6,0.3-1.1,0.3c-0.3,0-0.5,0-0.8-0.1c-0.2-0.1-0.4-0.2-0.6-0.4c-0.2-0.2-0.3-0.3-0.4-0.6
			c-0.1-0.2-0.1-0.4-0.1-0.7c0-0.4,0.1-0.7,0.2-0.9s0.4-0.5,0.7-0.6c0.3-0.2,0.7-0.3,1.1-0.3c0.4-0.1,0.9-0.1,1.4-0.1
			c0.1-0.4,0-0.8-0.1-1s-0.4-0.3-0.8-0.3c-0.3,0-0.6,0-1,0.1c-0.3,0.1-0.6,0.1-0.9,0.3L263.4,81.3z M265.3,85.8
			c0.3,0,0.6-0.1,0.7-0.2c0.2-0.1,0.3-0.3,0.4-0.4v-0.8c-0.2,0-0.5,0-0.7,0c-0.2,0-0.4,0.1-0.6,0.1c-0.2,0.1-0.3,0.1-0.4,0.2
			c-0.1,0.1-0.2,0.2-0.2,0.4c0,0.2,0.1,0.4,0.2,0.5S265.1,85.8,265.3,85.8z"/>
		<path class="st1" d="M274.4,87c0,0.9-0.2,1.5-0.7,1.9c-0.5,0.4-1.1,0.6-2,0.6c-0.6,0-1,0-1.4-0.1s-0.6-0.2-0.8-0.3l0.3-1.2
			c0.2,0.1,0.4,0.1,0.6,0.2c0.2,0.1,0.5,0.1,0.9,0.1c0.5,0,0.9-0.1,1.1-0.4c0.2-0.2,0.3-0.6,0.3-1v-0.4h0c-0.3,0.4-0.8,0.6-1.5,0.6
			c-0.8,0-1.4-0.2-1.7-0.7c-0.4-0.5-0.6-1.2-0.6-2.3c0-1.1,0.3-1.9,0.8-2.4c0.5-0.6,1.3-0.8,2.2-0.8c0.5,0,1,0,1.4,0.1
			c0.4,0.1,0.7,0.2,1,0.3V87z M271.8,85.8c0.3,0,0.5-0.1,0.7-0.2c0.2-0.1,0.3-0.3,0.4-0.6v-2.7c-0.2-0.1-0.6-0.2-0.9-0.2
			c-0.4,0-0.7,0.2-0.9,0.5c-0.2,0.3-0.3,0.8-0.3,1.4c0,0.6,0.1,1,0.3,1.3C271.1,85.6,271.4,85.8,271.8,85.8z"/>
	</g>
	<g class="st0">
		<path class="st1" d="M278.9,82.8h7.2v1.4h-7.2V82.8z"/>
	</g>
	<g class="st0">
		<path class="st1" d="M289.6,81h0.9v-1.2l1-0.3V81h1.6v0.8h-1.6v3.3c0,0.4,0.1,0.7,0.2,0.9c0.1,0.2,0.3,0.3,0.5,0.3
			c0.2,0,0.4,0,0.5-0.1s0.3-0.1,0.5-0.2l0.2,0.7c-0.2,0.1-0.5,0.2-0.7,0.3c-0.3,0.1-0.5,0.1-0.8,0.1c-0.5,0-0.8-0.1-1-0.4
			c-0.2-0.3-0.3-0.7-0.3-1.4v-3.5h-0.9V81z"/>
		<path class="st1" d="M294.4,81.4c0.3-0.2,0.7-0.3,1.1-0.4s0.8-0.1,1.3-0.1c0.4,0,0.8,0.1,1,0.2c0.3,0.1,0.4,0.3,0.6,0.4
			c0.1,0.2,0.2,0.4,0.3,0.6c0,0.2,0.1,0.4,0.1,0.6c0,0.5,0,0.9,0,1.4c0,0.5,0,0.9,0,1.3c0,0.3,0,0.6,0,0.8c0,0.3,0.1,0.5,0.1,0.7
			H298l-0.3-0.8h-0.1c-0.1,0.1-0.2,0.2-0.3,0.3c-0.1,0.1-0.2,0.2-0.4,0.3c-0.2,0.1-0.3,0.2-0.5,0.2c-0.2,0.1-0.4,0.1-0.7,0.1
			s-0.5,0-0.7-0.1c-0.2-0.1-0.4-0.2-0.6-0.3c-0.2-0.1-0.3-0.3-0.4-0.5c-0.1-0.2-0.1-0.4-0.1-0.7c0-0.4,0.1-0.6,0.2-0.9
			c0.1-0.2,0.3-0.4,0.6-0.6c0.3-0.1,0.6-0.2,0.9-0.3c0.4-0.1,0.8-0.1,1.2-0.1c0.1,0,0.2,0,0.3,0s0.2,0,0.3,0c0-0.2,0-0.5,0-0.6
			c0-0.4-0.1-0.7-0.3-0.9c-0.2-0.2-0.5-0.3-1-0.3c-0.1,0-0.3,0-0.4,0c-0.2,0-0.3,0-0.5,0.1s-0.3,0.1-0.5,0.1
			c-0.1,0.1-0.3,0.1-0.4,0.2L294.4,81.4z M296.1,86.2c0.2,0,0.4,0,0.6-0.1s0.3-0.1,0.5-0.2c0.1-0.1,0.2-0.2,0.3-0.3
			c0.1-0.1,0.1-0.2,0.2-0.3v-1c-0.1,0-0.2,0-0.3,0c-0.1,0-0.2,0-0.3,0c-0.2,0-0.5,0-0.7,0s-0.4,0.1-0.6,0.2s-0.3,0.2-0.4,0.3
			c-0.1,0.1-0.2,0.3-0.2,0.5c0,0.3,0.1,0.5,0.3,0.7C295.5,86.1,295.8,86.2,296.1,86.2z"/>
		<path class="st1" d="M305,87.2c0,0.8-0.2,1.3-0.6,1.7s-1,0.6-1.8,0.6c-0.5,0-0.9,0-1.2-0.1c-0.3-0.1-0.5-0.1-0.8-0.2l0.3-0.8
			c0.2,0.1,0.4,0.1,0.6,0.2c0.2,0.1,0.5,0.1,0.9,0.1c0.3,0,0.6,0,0.8-0.1c0.2-0.1,0.4-0.2,0.5-0.3c0.1-0.1,0.2-0.3,0.3-0.5
			c0-0.2,0.1-0.5,0.1-0.8v-0.6h0c-0.2,0.2-0.4,0.4-0.6,0.5s-0.6,0.2-1,0.2c-0.8,0-1.4-0.3-1.8-0.8s-0.6-1.3-0.6-2.4
			c0-1,0.2-1.8,0.7-2.3c0.5-0.5,1.2-0.8,2.2-0.8c0.5,0,0.8,0,1.2,0.1s0.6,0.2,0.9,0.3V87.2z M302.6,86.2c0.4,0,0.7-0.1,1-0.3
			c0.2-0.2,0.4-0.5,0.5-1v-3.1c-0.3-0.2-0.7-0.2-1.2-0.2c-0.5,0-1,0.2-1.3,0.6c-0.3,0.4-0.5,0.9-0.5,1.7c0,0.3,0,0.6,0.1,0.9
			c0.1,0.3,0.1,0.5,0.3,0.7c0.1,0.2,0.3,0.4,0.5,0.5C302.1,86.2,302.4,86.2,302.6,86.2z"/>
	</g>
	<g class="st0">
		<path class="st1" d="M309.4,81h0.9v-0.3c0-0.4,0-0.7,0.1-1c0.1-0.3,0.2-0.5,0.3-0.7s0.3-0.3,0.5-0.4s0.5-0.1,0.8-0.1
			c0.3,0,0.5,0,0.7,0c0.2,0,0.4,0.1,0.6,0.2l-0.2,0.8c-0.2-0.1-0.4-0.1-0.5-0.2c-0.2,0-0.3,0-0.5,0c-0.2,0-0.4,0-0.5,0.1
			c-0.1,0.1-0.2,0.2-0.3,0.3c-0.1,0.1-0.1,0.3-0.1,0.5c0,0.2,0,0.4,0,0.6V81h1.6v0.8h-1.6V87h-1v-5.2h-0.9V81z"/>
	</g>
	<g class="st0">
		<path class="st1" d="M313.5,84c0-1,0.2-1.8,0.7-2.3s1.1-0.8,2-0.8c0.4,0,0.8,0.1,1.2,0.2s0.6,0.4,0.8,0.6c0.2,0.3,0.4,0.6,0.5,1
			c0.1,0.4,0.2,0.8,0.2,1.3c0,1-0.2,1.8-0.7,2.3c-0.5,0.5-1.1,0.8-2,0.8c-0.4,0-0.8-0.1-1.2-0.2c-0.3-0.1-0.6-0.4-0.8-0.6
			c-0.2-0.3-0.4-0.6-0.5-1C313.5,84.9,313.5,84.4,313.5,84z M314.5,84c0,0.3,0,0.6,0.1,0.9c0.1,0.3,0.2,0.5,0.3,0.7s0.3,0.4,0.5,0.5
			s0.5,0.2,0.8,0.2c1.1,0,1.6-0.8,1.6-2.3c0-0.3,0-0.6-0.1-0.9s-0.2-0.5-0.3-0.7s-0.3-0.4-0.5-0.5s-0.5-0.2-0.8-0.2
			C315,81.6,314.5,82.4,314.5,84z"/>
		<path class="st1" d="M323.1,81.9c-0.2-0.1-0.5-0.1-0.7-0.1c-0.3,0-0.6,0.1-0.8,0.3c-0.2,0.2-0.3,0.4-0.4,0.7V87h-1v-6h0.7l0.2,0.7
			h0c0.2-0.3,0.3-0.5,0.5-0.6c0.2-0.1,0.5-0.2,0.8-0.2c0.2,0,0.5,0,0.8,0.1L323.1,81.9z"/>
		<path class="st1" d="M331.9,86.5c-0.2,0.2-0.5,0.3-0.9,0.5c-0.4,0.1-0.8,0.2-1.2,0.2c-0.5,0-0.9-0.1-1.2-0.2
			c-0.3-0.1-0.6-0.4-0.8-0.6c-0.2-0.3-0.4-0.6-0.5-1c-0.1-0.4-0.2-0.8-0.2-1.3c0-1,0.2-1.8,0.7-2.3s1.1-0.8,2-0.8
			c0.3,0,0.5,0,0.8,0.1c0.3,0.1,0.5,0.2,0.7,0.3c0.2,0.2,0.4,0.4,0.5,0.7c0.1,0.3,0.2,0.7,0.2,1.2c0,0.3,0,0.6-0.1,0.9h-3.9
			c0,0.4,0,0.7,0.1,0.9c0.1,0.3,0.2,0.5,0.3,0.7c0.2,0.2,0.4,0.3,0.6,0.4c0.2,0.1,0.5,0.1,0.9,0.1c0.3,0,0.5,0,0.8-0.1
			c0.3-0.1,0.5-0.2,0.6-0.3L331.9,86.5z M329.8,81.6c-0.5,0-0.9,0.1-1.1,0.4s-0.5,0.7-0.5,1.3h3c0-0.6-0.1-1-0.3-1.3
			C330.6,81.8,330.3,81.6,329.8,81.6z"/>
		<path class="st1" d="M333.5,81.4c0.3-0.2,0.7-0.3,1.1-0.4c0.4-0.1,0.8-0.1,1.3-0.1c0.4,0,0.8,0.1,1,0.2s0.4,0.3,0.6,0.4
			c0.1,0.2,0.2,0.4,0.3,0.6c0,0.2,0.1,0.4,0.1,0.6c0,0.5,0,0.9,0,1.4c0,0.5,0,0.9,0,1.3c0,0.3,0,0.6,0,0.8c0,0.3,0.1,0.5,0.1,0.7
			h-0.7l-0.3-0.8h-0.1c-0.1,0.1-0.2,0.2-0.3,0.3c-0.1,0.1-0.2,0.2-0.4,0.3c-0.2,0.1-0.3,0.2-0.5,0.2c-0.2,0.1-0.4,0.1-0.7,0.1
			c-0.3,0-0.5,0-0.7-0.1c-0.2-0.1-0.4-0.2-0.6-0.3c-0.2-0.1-0.3-0.3-0.4-0.5c-0.1-0.2-0.1-0.4-0.1-0.7c0-0.4,0.1-0.6,0.2-0.9
			c0.1-0.2,0.3-0.4,0.6-0.6c0.3-0.1,0.6-0.2,0.9-0.3c0.4-0.1,0.8-0.1,1.2-0.1c0.1,0,0.2,0,0.3,0c0.1,0,0.2,0,0.3,0
			c0-0.2,0-0.5,0-0.6c0-0.4-0.1-0.7-0.3-0.9s-0.5-0.3-1-0.3c-0.1,0-0.3,0-0.4,0c-0.2,0-0.3,0-0.5,0.1s-0.3,0.1-0.5,0.1
			c-0.1,0.1-0.3,0.1-0.4,0.2L333.5,81.4z M335.2,86.2c0.2,0,0.4,0,0.6-0.1c0.2-0.1,0.3-0.1,0.5-0.2c0.1-0.1,0.2-0.2,0.3-0.3
			c0.1-0.1,0.1-0.2,0.2-0.3v-1c-0.1,0-0.2,0-0.3,0s-0.2,0-0.3,0c-0.2,0-0.5,0-0.7,0c-0.2,0-0.4,0.1-0.6,0.2
			c-0.2,0.1-0.3,0.2-0.4,0.3c-0.1,0.1-0.2,0.3-0.2,0.5c0,0.3,0.1,0.5,0.3,0.7C334.6,86.1,334.9,86.2,335.2,86.2z"/>
		<path class="st1" d="M343.6,86.6c-0.2,0.2-0.5,0.3-0.9,0.4c-0.3,0.1-0.7,0.1-1,0.1c-0.5,0-0.9-0.1-1.2-0.2
			c-0.3-0.1-0.6-0.4-0.8-0.6c-0.2-0.3-0.4-0.6-0.4-1s-0.1-0.8-0.1-1.3c0-1,0.2-1.8,0.7-2.3s1.1-0.8,1.9-0.8c0.4,0,0.7,0,1,0.1
			c0.3,0.1,0.5,0.1,0.7,0.3l-0.3,0.8c-0.2-0.1-0.4-0.2-0.6-0.2c-0.2-0.1-0.5-0.1-0.7-0.1c-1.1,0-1.7,0.8-1.7,2.3
			c0,0.3,0,0.6,0.1,0.9c0.1,0.3,0.2,0.5,0.3,0.7c0.1,0.2,0.3,0.4,0.6,0.5c0.2,0.1,0.5,0.2,0.8,0.2c0.3,0,0.5,0,0.8-0.1
			c0.2-0.1,0.4-0.2,0.6-0.3L343.6,86.6z"/>
		<path class="st1" d="M348.8,87v-3.4c0-0.3,0-0.6-0.1-0.8c0-0.2-0.1-0.4-0.2-0.6c-0.1-0.2-0.2-0.3-0.4-0.4s-0.4-0.1-0.6-0.1
			c-0.4,0-0.7,0.1-1,0.4c-0.3,0.2-0.5,0.6-0.6,0.9v4h-1v-8.4h1v3.1h0c0.2-0.2,0.5-0.4,0.8-0.6s0.7-0.2,1.1-0.2c0.3,0,0.6,0,0.9,0.1
			c0.2,0.1,0.5,0.2,0.6,0.4s0.3,0.5,0.4,0.8c0.1,0.3,0.1,0.7,0.1,1.2V87H348.8z"/>
		<path class="st1" d="M354.7,78.5h1v3h0c0.2-0.2,0.4-0.4,0.7-0.5s0.6-0.2,0.9-0.2c0.8,0,1.4,0.2,1.7,0.7c0.4,0.5,0.6,1.3,0.6,2.3
			c0,1-0.3,1.8-0.8,2.4c-0.5,0.5-1.2,0.8-2.2,0.8c-0.4,0-0.9,0-1.2-0.1c-0.4-0.1-0.6-0.2-0.8-0.3V78.5z M357.2,81.6
			c-0.4,0-0.7,0.1-1,0.3s-0.4,0.5-0.5,0.9v3c0.2,0.1,0.3,0.2,0.6,0.2s0.4,0.1,0.7,0.1c0.5,0,1-0.2,1.3-0.6c0.3-0.4,0.5-1,0.5-1.8
			c0-0.3,0-0.6-0.1-0.9c-0.1-0.3-0.1-0.5-0.3-0.7c-0.1-0.2-0.3-0.3-0.5-0.5C357.7,81.7,357.5,81.6,357.2,81.6z"/>
		<path class="st1" d="M362.3,85.5c0,0.3,0,0.5,0.1,0.6c0.1,0.1,0.2,0.2,0.4,0.2c0.1,0,0.2,0,0.3,0c0.1,0,0.3-0.1,0.4-0.1l0.1,0.8
			c-0.1,0.1-0.3,0.1-0.5,0.2c-0.2,0-0.4,0.1-0.6,0.1c-0.4,0-0.7-0.1-0.9-0.3c-0.2-0.2-0.3-0.5-0.3-1v-7.2h1V85.5z"/>
		<path class="st1" d="M364.4,84c0-1,0.2-1.8,0.7-2.3c0.5-0.5,1.1-0.8,1.9-0.8c0.4,0,0.8,0.1,1.2,0.2c0.3,0.1,0.6,0.4,0.8,0.6
			c0.2,0.3,0.4,0.6,0.5,1c0.1,0.4,0.2,0.8,0.2,1.3c0,1-0.2,1.8-0.7,2.3s-1.1,0.8-2,0.8c-0.4,0-0.8-0.1-1.2-0.2
			c-0.3-0.1-0.6-0.4-0.8-0.6c-0.2-0.3-0.4-0.6-0.5-1S364.4,84.4,364.4,84z M365.4,84c0,0.3,0,0.6,0.1,0.9c0.1,0.3,0.2,0.5,0.3,0.7
			s0.3,0.4,0.5,0.5s0.5,0.2,0.8,0.2c1.1,0,1.6-0.8,1.6-2.3c0-0.3,0-0.6-0.1-0.9c-0.1-0.3-0.2-0.5-0.3-0.7s-0.3-0.4-0.5-0.5
			c-0.2-0.1-0.5-0.2-0.8-0.2C365.9,81.6,365.4,82.4,365.4,84z"/>
		<path class="st1" d="M375.2,86.6c-0.2,0.2-0.5,0.3-0.9,0.4c-0.3,0.1-0.7,0.1-1,0.1c-0.5,0-0.9-0.1-1.2-0.2
			c-0.3-0.1-0.6-0.4-0.8-0.6c-0.2-0.3-0.4-0.6-0.4-1s-0.1-0.8-0.1-1.3c0-1,0.2-1.8,0.7-2.3s1.1-0.8,1.9-0.8c0.4,0,0.7,0,1,0.1
			c0.3,0.1,0.5,0.1,0.7,0.3l-0.3,0.8c-0.2-0.1-0.4-0.2-0.6-0.2c-0.2-0.1-0.5-0.1-0.7-0.1c-1.1,0-1.7,0.8-1.7,2.3
			c0,0.3,0,0.6,0.1,0.9c0.1,0.3,0.2,0.5,0.3,0.7c0.1,0.2,0.3,0.4,0.6,0.5c0.2,0.1,0.5,0.2,0.8,0.2c0.3,0,0.5,0,0.8-0.1
			c0.2-0.1,0.4-0.2,0.6-0.3L375.2,86.6z"/>
	</g>
	<g class="st0">
		<path class="st1" d="M378.1,84.3h-0.6V87h-1v-8.4h1v5.1l0.5-0.2l1.9-2.5h1.1l-1.8,2.4l-0.5,0.4l0.6,0.5l2,2.7h-1.2L378.1,84.3z"/>
	</g>
	<g class="st0">
		<path class="st1" d="M384.8,84c0-1,0.2-1.8,0.7-2.3s1.1-0.8,2-0.8c0.4,0,0.8,0.1,1.2,0.2s0.6,0.4,0.8,0.6c0.2,0.3,0.4,0.6,0.5,1
			c0.1,0.4,0.2,0.8,0.2,1.3c0,1-0.2,1.8-0.7,2.3c-0.5,0.5-1.1,0.8-2,0.8c-0.4,0-0.8-0.1-1.2-0.2c-0.3-0.1-0.6-0.4-0.8-0.6
			c-0.2-0.3-0.4-0.6-0.5-1C384.9,84.9,384.8,84.4,384.8,84z M385.8,84c0,0.3,0,0.6,0.1,0.9c0.1,0.3,0.2,0.5,0.3,0.7s0.3,0.4,0.5,0.5
			s0.5,0.2,0.8,0.2c1.1,0,1.6-0.8,1.6-2.3c0-0.3,0-0.6-0.1-0.9s-0.2-0.5-0.3-0.7s-0.3-0.4-0.5-0.5s-0.5-0.2-0.8-0.2
			C386.4,81.6,385.8,82.4,385.8,84z"/>
	</g>
	<g class="st0">
		<path class="st1" d="M390.8,81h0.9v-0.3c0-0.4,0-0.7,0.1-1c0.1-0.3,0.2-0.5,0.3-0.7c0.1-0.2,0.3-0.3,0.5-0.4
			c0.2-0.1,0.5-0.1,0.8-0.1c0.3,0,0.5,0,0.7,0s0.4,0.1,0.6,0.2l-0.2,0.8c-0.2-0.1-0.4-0.1-0.5-0.2c-0.2,0-0.3,0-0.5,0
			c-0.2,0-0.4,0-0.5,0.1c-0.1,0.1-0.2,0.2-0.3,0.3c-0.1,0.1-0.1,0.3-0.1,0.5s0,0.4,0,0.6V81h1.6v0.8h-1.6V87h-1v-5.2h-0.9V81z"/>
		<path class="st1" d="M397.7,81h0.9v-1.2l1-0.3V81h1.6v0.8h-1.6v3.3c0,0.4,0.1,0.7,0.2,0.9c0.1,0.2,0.3,0.3,0.5,0.3
			c0.2,0,0.4,0,0.5-0.1s0.3-0.1,0.5-0.2l0.2,0.7c-0.2,0.1-0.5,0.2-0.7,0.3c-0.3,0.1-0.5,0.1-0.8,0.1c-0.5,0-0.8-0.1-1-0.4
			c-0.2-0.3-0.3-0.7-0.3-1.4v-3.5h-0.9V81z"/>
		<path class="st1" d="M406.4,87v-3.4c0-0.3,0-0.6-0.1-0.8c0-0.2-0.1-0.4-0.2-0.6c-0.1-0.2-0.2-0.3-0.4-0.4s-0.4-0.1-0.6-0.1
			c-0.4,0-0.7,0.1-1,0.4c-0.3,0.2-0.5,0.6-0.6,0.9v4h-1v-8.4h1v3.1h0c0.2-0.2,0.5-0.4,0.8-0.6s0.7-0.2,1.1-0.2c0.3,0,0.6,0,0.9,0.1
			c0.2,0.1,0.5,0.2,0.6,0.4s0.3,0.5,0.4,0.8c0.1,0.3,0.1,0.7,0.1,1.2V87H406.4z"/>
		<path class="st1" d="M413.5,86.5c-0.2,0.2-0.5,0.3-0.9,0.5c-0.4,0.1-0.8,0.2-1.2,0.2c-0.5,0-0.9-0.1-1.2-0.2
			c-0.3-0.1-0.6-0.4-0.8-0.6c-0.2-0.3-0.4-0.6-0.5-1s-0.2-0.8-0.2-1.3c0-1,0.2-1.8,0.7-2.3s1.1-0.8,2-0.8c0.3,0,0.5,0,0.8,0.1
			c0.3,0.1,0.5,0.2,0.7,0.3s0.4,0.4,0.5,0.7c0.1,0.3,0.2,0.7,0.2,1.2c0,0.3,0,0.6-0.1,0.9h-3.9c0,0.4,0,0.7,0.1,0.9
			c0.1,0.3,0.2,0.5,0.3,0.7c0.2,0.2,0.3,0.3,0.6,0.4c0.2,0.1,0.5,0.1,0.9,0.1c0.3,0,0.5,0,0.8-0.1c0.3-0.1,0.5-0.2,0.6-0.3
			L413.5,86.5z M411.4,81.6c-0.5,0-0.9,0.1-1.1,0.4c-0.3,0.2-0.5,0.7-0.5,1.3h3c0-0.6-0.1-1-0.3-1.3
			C412.2,81.8,411.9,81.6,411.4,81.6z"/>
		<path class="st1" d="M423,81v6h-1v-5.2h-2.4V87h-1v-5.2h-0.9V81h0.9v-0.3c0-0.8,0.2-1.3,0.6-1.6c0.4-0.3,0.9-0.5,1.6-0.5
			c0.5,0,0.9,0,1.3,0.1s0.7,0.2,0.9,0.3l-0.3,0.8c-0.2-0.1-0.5-0.2-0.8-0.3c-0.3-0.1-0.6-0.1-0.9-0.1c-0.3,0-0.5,0-0.7,0.1
			s-0.3,0.2-0.4,0.3c-0.1,0.1-0.2,0.3-0.2,0.5s0,0.4,0,0.7H423z"/>
		<path class="st1" d="M426,85.5c0,0.3,0,0.5,0.1,0.6s0.2,0.2,0.4,0.2c0.1,0,0.2,0,0.3,0c0.1,0,0.3-0.1,0.4-0.1l0.1,0.8
			c-0.1,0.1-0.3,0.1-0.5,0.2c-0.2,0-0.4,0.1-0.6,0.1c-0.4,0-0.7-0.1-0.9-0.3c-0.2-0.2-0.3-0.5-0.3-1v-7.2h1V85.5z"/>
		<path class="st1" d="M432.8,86.5c-0.2,0.2-0.5,0.3-0.9,0.5c-0.4,0.1-0.8,0.2-1.2,0.2c-0.5,0-0.9-0.1-1.2-0.2
			c-0.3-0.1-0.6-0.4-0.8-0.6c-0.2-0.3-0.4-0.6-0.5-1c-0.1-0.4-0.2-0.8-0.2-1.3c0-1,0.2-1.8,0.7-2.3s1.1-0.8,2-0.8
			c0.3,0,0.5,0,0.8,0.1c0.3,0.1,0.5,0.2,0.7,0.3c0.2,0.2,0.4,0.4,0.5,0.7c0.1,0.3,0.2,0.7,0.2,1.2c0,0.3,0,0.6-0.1,0.9h-3.9
			c0,0.4,0,0.7,0.1,0.9c0.1,0.3,0.2,0.5,0.3,0.7c0.2,0.2,0.4,0.3,0.6,0.4c0.2,0.1,0.5,0.1,0.9,0.1c0.3,0,0.5,0,0.8-0.1
			c0.3-0.1,0.5-0.2,0.6-0.3L432.8,86.5z M430.7,81.6c-0.5,0-0.9,0.1-1.1,0.4s-0.5,0.7-0.5,1.3h3c0-0.6-0.1-1-0.3-1.3
			C431.5,81.8,431.1,81.6,430.7,81.6z"/>
	</g>
	<g class="st0">
		<path class="st1" d="M245.1,106.1v6h-1.6v-4.7h-1.8v4.7h-1.6v-4.7h-0.8v-1.3h0.8v-0.3c0-0.8,0.2-1.3,0.6-1.7
			c0.4-0.3,1-0.5,1.7-0.5c0.6,0,1,0,1.5,0.1s0.8,0.2,1,0.4l-0.4,1.2c-0.2-0.1-0.5-0.2-0.8-0.3c-0.3-0.1-0.6-0.1-1-0.1
			c-0.2,0-0.4,0-0.6,0.1c-0.1,0.1-0.3,0.1-0.3,0.2c-0.1,0.1-0.1,0.2-0.2,0.4c0,0.2,0,0.3,0,0.5H245.1z"/>
		<path class="st1" d="M248.1,110.1c0,0.3,0,0.5,0.1,0.6s0.2,0.2,0.3,0.2c0.1,0,0.2,0,0.3,0c0.1,0,0.2-0.1,0.3-0.1l0.2,1.2
			c-0.1,0.1-0.3,0.1-0.6,0.2c-0.3,0.1-0.5,0.1-0.8,0.1c-0.5,0-0.8-0.1-1-0.3c-0.2-0.2-0.4-0.6-0.4-1v-7.2h1.6V110.1z"/>
		<path class="st1" d="M254.9,111.6c-0.2,0.2-0.6,0.4-1,0.5s-0.8,0.2-1.3,0.2c-1,0-1.7-0.3-2.1-0.8c-0.4-0.6-0.7-1.3-0.7-2.3
			c0-1.1,0.3-1.8,0.8-2.4s1.2-0.8,2.1-0.8c0.3,0,0.6,0,0.9,0.1s0.5,0.2,0.8,0.4c0.2,0.2,0.4,0.4,0.5,0.7c0.1,0.3,0.2,0.7,0.2,1.2
			c0,0.2,0,0.3,0,0.5c0,0.2,0,0.4-0.1,0.6h-3.6c0,0.5,0.2,0.9,0.4,1.1c0.2,0.3,0.6,0.4,1.1,0.4c0.3,0,0.6,0,0.9-0.2
			c0.3-0.1,0.5-0.2,0.6-0.3L254.9,111.6z M252.6,107.2c-0.4,0-0.7,0.1-0.9,0.4c-0.2,0.2-0.3,0.6-0.4,1h2.2c0-0.4,0-0.8-0.2-1
			C253.2,107.3,253,107.2,252.6,107.2z"/>
	</g>
	<g class="st0">
		<path class="st1" d="M261.2,109.6h-0.4v2.5h-1.6v-8.4h1.6v5l0.4-0.2l1.4-2.4h1.7l-1.4,2.3l-0.6,0.5l0.7,0.5l1.6,2.8h-1.8
			L261.2,109.6z"/>
	</g>
	<g class="st0">
		<path class="st1" d="M269.7,111.6c-0.2,0.2-0.6,0.4-1,0.5s-0.8,0.2-1.3,0.2c-1,0-1.7-0.3-2.1-0.8c-0.4-0.6-0.7-1.3-0.7-2.3
			c0-1.1,0.3-1.8,0.8-2.4s1.2-0.8,2.1-0.8c0.3,0,0.6,0,0.9,0.1s0.5,0.2,0.8,0.4c0.2,0.2,0.4,0.4,0.5,0.7c0.1,0.3,0.2,0.7,0.2,1.2
			c0,0.2,0,0.3,0,0.5c0,0.2,0,0.4-0.1,0.6h-3.6c0,0.5,0.2,0.9,0.4,1.1c0.2,0.3,0.6,0.4,1.1,0.4c0.3,0,0.6,0,0.9-0.2
			c0.3-0.1,0.5-0.2,0.6-0.3L269.7,111.6z M267.5,107.2c-0.4,0-0.7,0.1-0.9,0.4c-0.2,0.2-0.3,0.6-0.4,1h2.2c0-0.4,0-0.8-0.2-1
			C268.1,107.3,267.9,107.2,267.5,107.2z"/>
	</g>
	<g class="st0">
		<path class="st1" d="M273.1,109.5l0.2,0.9h0.1l0.2-0.9l0.9-3.4h1.6l-1.8,5.4c-0.2,0.4-0.3,0.9-0.4,1.2c-0.1,0.4-0.3,0.7-0.5,1
			c-0.2,0.3-0.4,0.5-0.6,0.6c-0.2,0.1-0.4,0.2-0.7,0.2c-0.4,0-0.7-0.1-1-0.2l0.3-1.2c0.1,0,0.2,0.1,0.4,0.1c0.2,0,0.4-0.1,0.5-0.2
			c0.2-0.2,0.3-0.4,0.4-0.8l-2.5-6h1.9L273.1,109.5z"/>
	</g>
	<g class="st0">
		<path class="st1" d="M279.3,107.9h7.2v1.4h-7.2V107.9z"/>
	</g>
	<g class="st0">
		<path class="st1" d="M292.4,109.4h-0.6v2.7h-1v-8.4h1v5.1l0.5-0.2l1.9-2.5h1.1l-1.8,2.4l-0.5,0.4l0.6,0.5l2,2.7h-1.2L292.4,109.4z
			"/>
	</g>
	<g class="st0">
		<path class="st1" d="M300.8,111.6c-0.2,0.2-0.5,0.3-0.9,0.5c-0.4,0.1-0.8,0.2-1.2,0.2c-0.5,0-0.9-0.1-1.2-0.2
			c-0.3-0.1-0.6-0.4-0.8-0.6c-0.2-0.3-0.4-0.6-0.5-1s-0.2-0.8-0.2-1.3c0-1,0.2-1.8,0.7-2.3s1.1-0.8,2-0.8c0.3,0,0.5,0,0.8,0.1
			c0.3,0.1,0.5,0.2,0.7,0.3s0.4,0.4,0.5,0.7c0.1,0.3,0.2,0.7,0.2,1.2c0,0.3,0,0.6-0.1,0.9h-3.9c0,0.4,0,0.7,0.1,0.9
			c0.1,0.3,0.2,0.5,0.3,0.7c0.2,0.2,0.3,0.3,0.6,0.4c0.2,0.1,0.5,0.1,0.9,0.1c0.3,0,0.5,0,0.8-0.1c0.3-0.1,0.5-0.2,0.6-0.3
			L300.8,111.6z M298.8,106.8c-0.5,0-0.9,0.1-1.1,0.4c-0.3,0.2-0.5,0.7-0.5,1.3h3c0-0.6-0.1-1-0.3-1.3
			C299.5,106.9,299.2,106.8,298.8,106.8z"/>
	</g>
	<g class="st0">
		<path class="st1" d="M304.1,110l0.3,1.2h0.1l0.3-1.2l1.2-3.9h1l-1.8,5.4c-0.1,0.4-0.3,0.8-0.4,1.1c-0.1,0.4-0.3,0.7-0.4,1
			c-0.2,0.3-0.3,0.5-0.5,0.7c-0.2,0.2-0.4,0.3-0.7,0.3c-0.3,0-0.5,0-0.7-0.1l0.2-0.8c0.1,0,0.2,0.1,0.3,0.1c0.2,0,0.4-0.1,0.6-0.4
			c0.2-0.2,0.4-0.6,0.5-1.2l-2.4-6h1.1L304.1,110z"/>
	</g>
	<g class="st0">
		<path class="st1" d="M311.5,106.1v3.4c0,0.3,0,0.6,0.1,0.8c0,0.2,0.1,0.4,0.2,0.6s0.2,0.3,0.4,0.4c0.2,0.1,0.3,0.1,0.6,0.1
			c0.2,0,0.4,0,0.6-0.1s0.3-0.2,0.5-0.3c0.1-0.1,0.2-0.3,0.3-0.4c0.1-0.2,0.2-0.3,0.2-0.5v-4h1v4.3c0,0.3,0,0.6,0,0.9
			c0,0.3,0.1,0.6,0.1,0.8h-0.7l-0.2-0.9h-0.1c-0.2,0.3-0.4,0.6-0.7,0.8s-0.7,0.3-1.2,0.3c-0.3,0-0.6,0-0.8-0.1
			c-0.2-0.1-0.4-0.2-0.6-0.4c-0.2-0.2-0.3-0.5-0.4-0.8c-0.1-0.3-0.1-0.7-0.1-1.2v-3.6H311.5z"/>
		<path class="st1" d="M319.8,110.5c0-0.2-0.1-0.4-0.2-0.6c-0.1-0.1-0.3-0.3-0.5-0.3s-0.4-0.2-0.7-0.3s-0.5-0.2-0.7-0.3
			c-0.2-0.1-0.4-0.3-0.5-0.5s-0.2-0.5-0.2-0.8c0-0.6,0.2-1,0.5-1.3c0.3-0.3,0.8-0.4,1.4-0.4c0.4,0,0.8,0,1.1,0.1
			c0.3,0.1,0.5,0.2,0.8,0.3l-0.2,0.8c-0.2-0.1-0.4-0.2-0.7-0.2c-0.3-0.1-0.5-0.1-0.8-0.1c-0.4,0-0.6,0.1-0.8,0.2s-0.2,0.3-0.2,0.6
			c0,0.2,0.1,0.4,0.2,0.5s0.3,0.2,0.5,0.3c0.2,0.1,0.4,0.2,0.7,0.3s0.5,0.2,0.7,0.3s0.4,0.3,0.5,0.5s0.2,0.5,0.2,0.9
			c0,0.3,0,0.5-0.1,0.7c-0.1,0.2-0.2,0.4-0.4,0.6c-0.2,0.2-0.4,0.3-0.7,0.4c-0.3,0.1-0.6,0.1-0.9,0.1c-0.5,0-0.8,0-1.2-0.1
			s-0.6-0.2-0.8-0.3l0.3-0.8c0.2,0.1,0.4,0.2,0.7,0.3s0.6,0.1,0.9,0.1c0.3,0,0.6-0.1,0.9-0.2C319.6,111.1,319.8,110.8,319.8,110.5z"
			/>
		<path class="st1" d="M326.5,111.6c-0.2,0.2-0.5,0.3-0.9,0.5c-0.4,0.1-0.8,0.2-1.2,0.2c-0.5,0-0.9-0.1-1.2-0.2
			c-0.3-0.1-0.6-0.4-0.8-0.6c-0.2-0.3-0.4-0.6-0.5-1c-0.1-0.4-0.2-0.8-0.2-1.3c0-1,0.2-1.8,0.7-2.3s1.1-0.8,2-0.8
			c0.3,0,0.5,0,0.8,0.1c0.3,0.1,0.5,0.2,0.7,0.3c0.2,0.2,0.4,0.4,0.5,0.7c0.1,0.3,0.2,0.7,0.2,1.2c0,0.3,0,0.6-0.1,0.9h-3.9
			c0,0.4,0,0.7,0.1,0.9c0.1,0.3,0.2,0.5,0.3,0.7c0.2,0.2,0.3,0.3,0.6,0.4c0.2,0.1,0.5,0.1,0.9,0.1c0.3,0,0.5,0,0.8-0.1
			c0.3-0.1,0.5-0.2,0.6-0.3L326.5,111.6z M324.5,106.8c-0.5,0-0.9,0.1-1.1,0.4c-0.3,0.2-0.5,0.7-0.5,1.3h3c0-0.6-0.1-1-0.3-1.3
			C325.2,106.9,324.9,106.8,324.5,106.8z"/>
		<path class="st1" d="M332.9,110c0,0.4,0,0.8,0,1.1s0,0.7,0.1,1h-0.6l-0.2-0.9h0c-0.2,0.3-0.4,0.5-0.7,0.7
			c-0.3,0.2-0.7,0.3-1.1,0.3c-0.8,0-1.4-0.3-1.8-0.8s-0.6-1.3-0.6-2.4c0-1,0.2-1.8,0.7-2.3c0.5-0.5,1.1-0.8,2-0.8c0.3,0,0.5,0,0.7,0
			c0.2,0,0.4,0.1,0.6,0.2v-2.5h1V110z M330.4,111.4c0.4,0,0.7-0.1,1-0.3s0.4-0.5,0.5-1v-3c-0.1-0.1-0.3-0.2-0.5-0.2
			s-0.4-0.1-0.7-0.1c-0.6,0-1,0.2-1.3,0.5s-0.5,0.9-0.5,1.7c0,0.3,0,0.6,0.1,0.9c0.1,0.3,0.1,0.5,0.3,0.7s0.3,0.4,0.5,0.5
			C329.9,111.3,330.2,111.4,330.4,111.4z"/>
	</g>
	<g class="st0">
		<path class="st1" d="M337.1,106.1h0.9v-1.2l1-0.3v1.5h1.6v0.8H339v3.3c0,0.4,0.1,0.7,0.2,0.9c0.1,0.2,0.3,0.3,0.5,0.3
			c0.2,0,0.4,0,0.5-0.1c0.1,0,0.3-0.1,0.5-0.2l0.2,0.7c-0.2,0.1-0.5,0.2-0.7,0.3c-0.3,0.1-0.5,0.1-0.8,0.1c-0.5,0-0.8-0.1-1-0.4
			c-0.2-0.3-0.3-0.7-0.3-1.4v-3.5h-0.9V106.1z"/>
	</g>
	<g class="st0">
		<path class="st1" d="M341.5,109.1c0-1,0.2-1.8,0.7-2.3c0.5-0.5,1.1-0.8,1.9-0.8c0.4,0,0.8,0.1,1.2,0.2c0.3,0.1,0.6,0.4,0.8,0.6
			c0.2,0.3,0.4,0.6,0.5,1c0.1,0.4,0.2,0.8,0.2,1.3c0,1-0.2,1.8-0.7,2.3s-1.1,0.8-2,0.8c-0.4,0-0.8-0.1-1.2-0.2
			c-0.3-0.1-0.6-0.4-0.8-0.6c-0.2-0.3-0.4-0.6-0.5-1S341.5,109.6,341.5,109.1z M342.5,109.1c0,0.3,0,0.6,0.1,0.9
			c0.1,0.3,0.2,0.5,0.3,0.7s0.3,0.4,0.5,0.5s0.5,0.2,0.8,0.2c1.1,0,1.6-0.8,1.6-2.3c0-0.3,0-0.6-0.1-0.9c-0.1-0.3-0.2-0.5-0.3-0.7
			s-0.3-0.4-0.5-0.5c-0.2-0.1-0.5-0.2-0.8-0.2C343.1,106.8,342.5,107.5,342.5,109.1z"/>
		<path class="st1" d="M355.9,111.6c-0.2,0.2-0.5,0.3-0.9,0.5c-0.4,0.1-0.8,0.2-1.2,0.2c-0.5,0-0.9-0.1-1.2-0.2
			c-0.3-0.1-0.6-0.4-0.8-0.6c-0.2-0.3-0.4-0.6-0.5-1s-0.2-0.8-0.2-1.3c0-1,0.2-1.8,0.7-2.3s1.1-0.8,2-0.8c0.3,0,0.5,0,0.8,0.1
			c0.3,0.1,0.5,0.2,0.7,0.3s0.4,0.4,0.5,0.7c0.1,0.3,0.2,0.7,0.2,1.2c0,0.3,0,0.6-0.1,0.9h-3.9c0,0.4,0,0.7,0.1,0.9
			c0.1,0.3,0.2,0.5,0.3,0.7c0.2,0.2,0.3,0.3,0.6,0.4c0.2,0.1,0.5,0.1,0.9,0.1c0.3,0,0.5,0,0.8-0.1c0.3-0.1,0.5-0.2,0.6-0.3
			L355.9,111.6z M353.8,106.8c-0.5,0-0.9,0.1-1.1,0.4c-0.3,0.2-0.5,0.7-0.5,1.3h3c0-0.6-0.1-1-0.3-1.3
			C354.6,106.9,354.2,106.8,353.8,106.8z"/>
		<path class="st1" d="M361.4,112.1v-3.4c0-0.6-0.1-1.1-0.3-1.4c-0.2-0.3-0.5-0.5-1-0.5c-0.4,0-0.8,0.1-1,0.3
			c-0.3,0.2-0.5,0.5-0.6,0.9v4.1h-1v-6h0.7l0.2,0.7h0c0.2-0.3,0.4-0.5,0.8-0.6c0.3-0.2,0.7-0.2,1.2-0.2c0.3,0,0.6,0,0.9,0.1
			c0.2,0.1,0.5,0.2,0.6,0.4s0.3,0.5,0.4,0.8c0.1,0.3,0.1,0.7,0.1,1.2v3.6H361.4z"/>
		<path class="st1" d="M368.2,111.7c-0.2,0.2-0.5,0.3-0.9,0.4s-0.7,0.1-1,0.1c-0.5,0-0.9-0.1-1.2-0.2c-0.3-0.1-0.6-0.4-0.8-0.6
			c-0.2-0.3-0.4-0.6-0.4-1c-0.1-0.4-0.1-0.8-0.1-1.3c0-1,0.2-1.8,0.7-2.3c0.4-0.5,1.1-0.8,1.9-0.8c0.4,0,0.7,0,1,0.1
			c0.3,0.1,0.5,0.1,0.7,0.3l-0.3,0.8c-0.2-0.1-0.4-0.2-0.6-0.2c-0.2-0.1-0.5-0.1-0.7-0.1c-1.1,0-1.7,0.8-1.7,2.3
			c0,0.3,0,0.6,0.1,0.9c0.1,0.3,0.2,0.5,0.3,0.7c0.1,0.2,0.3,0.4,0.6,0.5c0.2,0.1,0.5,0.2,0.8,0.2c0.3,0,0.5,0,0.8-0.1
			c0.2-0.1,0.4-0.2,0.6-0.3L368.2,111.7z"/>
		<path class="st1" d="M372.4,107c-0.2-0.1-0.5-0.1-0.7-0.1c-0.3,0-0.6,0.1-0.8,0.3c-0.2,0.2-0.3,0.4-0.4,0.7v4.2h-1v-6h0.7l0.2,0.7
			h0c0.2-0.3,0.3-0.5,0.5-0.6c0.2-0.1,0.5-0.2,0.8-0.2c0.2,0,0.5,0,0.8,0.1L372.4,107z"/>
		<path class="st1" d="M375.4,110l0.3,1.2h0.1l0.3-1.2l1.2-3.9h1l-1.8,5.4c-0.1,0.4-0.3,0.8-0.4,1.1c-0.1,0.4-0.3,0.7-0.4,1
			c-0.2,0.3-0.3,0.5-0.5,0.7c-0.2,0.2-0.4,0.3-0.7,0.3c-0.3,0-0.5,0-0.7-0.1l0.2-0.8c0.1,0,0.2,0.1,0.3,0.1c0.2,0,0.4-0.1,0.6-0.4
			c0.2-0.2,0.4-0.6,0.5-1.2l-2.4-6h1.1L375.4,110z"/>
		<path class="st1" d="M379.2,106.1h0.7l0.2,0.7h0c0.2-0.3,0.4-0.5,0.7-0.6s0.6-0.2,1-0.2c0.8,0,1.4,0.2,1.8,0.7
			c0.4,0.5,0.6,1.2,0.6,2.3c0,0.5-0.1,1-0.2,1.4s-0.3,0.7-0.6,1c-0.2,0.3-0.5,0.5-0.9,0.6c-0.3,0.2-0.7,0.2-1.1,0.2
			c-0.3,0-0.5,0-0.7-0.1s-0.4-0.1-0.6-0.2v2.5h-1V106.1z M381.7,106.8c-0.4,0-0.7,0.1-1,0.3c-0.2,0.2-0.4,0.5-0.5,1v3
			c0.1,0.1,0.3,0.2,0.5,0.3c0.2,0.1,0.4,0.1,0.7,0.1c0.6,0,1-0.2,1.3-0.6c0.3-0.4,0.5-1,0.5-1.8c0-0.3,0-0.6-0.1-0.9
			c-0.1-0.3-0.1-0.5-0.3-0.7c-0.1-0.2-0.3-0.3-0.5-0.4C382.2,106.8,381.9,106.8,381.7,106.8z"/>
		<path class="st1" d="M384.9,106.1h0.9v-1.2l1-0.3v1.5h1.6v0.8h-1.6v3.3c0,0.4,0.1,0.7,0.2,0.9c0.1,0.2,0.3,0.3,0.5,0.3
			c0.2,0,0.4,0,0.5-0.1s0.3-0.1,0.5-0.2l0.2,0.7c-0.2,0.1-0.5,0.2-0.7,0.3c-0.3,0.1-0.5,0.1-0.8,0.1c-0.5,0-0.8-0.1-1-0.4
			c-0.2-0.3-0.3-0.7-0.3-1.4v-3.5h-0.9V106.1z"/>
		<path class="st1" d="M392.2,106.1h0.9v-1.2l1-0.3v1.5h1.6v0.8h-1.6v3.3c0,0.4,0.1,0.7,0.2,0.9c0.1,0.2,0.3,0.3,0.5,0.3
			c0.2,0,0.4,0,0.5-0.1c0.1,0,0.3-0.1,0.5-0.2l0.2,0.7c-0.2,0.1-0.5,0.2-0.7,0.3c-0.3,0.1-0.5,0.1-0.8,0.1c-0.5,0-0.8-0.1-1-0.4
			c-0.2-0.3-0.3-0.7-0.3-1.4v-3.5h-0.9V106.1z"/>
		<path class="st1" d="M400.9,112.1v-3.4c0-0.3,0-0.6-0.1-0.8c0-0.2-0.1-0.4-0.2-0.6s-0.2-0.3-0.4-0.4s-0.4-0.1-0.6-0.1
			c-0.4,0-0.7,0.1-1,0.4c-0.3,0.2-0.5,0.6-0.6,0.9v4h-1v-8.4h1v3.1h0c0.2-0.2,0.5-0.4,0.8-0.6c0.3-0.1,0.7-0.2,1.1-0.2
			c0.3,0,0.6,0,0.9,0.1c0.2,0.1,0.5,0.2,0.6,0.4c0.2,0.2,0.3,0.5,0.4,0.8c0.1,0.3,0.1,0.7,0.1,1.2v3.6H400.9z"/>
		<path class="st1" d="M403.6,104.3c0-0.2,0.1-0.3,0.2-0.5s0.3-0.2,0.5-0.2c0.2,0,0.4,0.1,0.5,0.2c0.1,0.1,0.2,0.3,0.2,0.5
			c0,0.2-0.1,0.3-0.2,0.5c-0.1,0.1-0.3,0.2-0.5,0.2c-0.2,0-0.4-0.1-0.5-0.2S403.6,104.5,403.6,104.3z M403.8,106.1h1v6h-1V106.1z"/>
		<path class="st1" d="M409.5,110.5c0-0.2-0.1-0.4-0.2-0.6c-0.1-0.1-0.3-0.3-0.5-0.3s-0.4-0.2-0.7-0.3s-0.5-0.2-0.7-0.3
			s-0.4-0.3-0.5-0.5c-0.1-0.2-0.2-0.5-0.2-0.8c0-0.6,0.2-1,0.5-1.3c0.3-0.3,0.8-0.4,1.4-0.4c0.4,0,0.8,0,1.1,0.1
			c0.3,0.1,0.5,0.2,0.8,0.3l-0.2,0.8c-0.2-0.1-0.4-0.2-0.7-0.2c-0.3-0.1-0.5-0.1-0.8-0.1c-0.4,0-0.6,0.1-0.8,0.2s-0.2,0.3-0.2,0.6
			c0,0.2,0.1,0.4,0.2,0.5c0.1,0.1,0.3,0.2,0.5,0.3s0.4,0.2,0.7,0.3s0.5,0.2,0.7,0.3s0.4,0.3,0.5,0.5c0.1,0.2,0.2,0.5,0.2,0.9
			c0,0.3,0,0.5-0.1,0.7c-0.1,0.2-0.2,0.4-0.4,0.6s-0.4,0.3-0.7,0.4s-0.6,0.1-0.9,0.1c-0.5,0-0.8,0-1.2-0.1c-0.3-0.1-0.6-0.2-0.8-0.3
			l0.3-0.8c0.2,0.1,0.4,0.2,0.7,0.3s0.6,0.1,0.9,0.1c0.3,0,0.6-0.1,0.9-0.2C409.4,111.1,409.5,110.8,409.5,110.5z"/>
		<path class="st1" d="M419.7,106.1v6h-1v-5.2h-2.4v5.2h-1v-5.2h-0.9v-0.8h0.9v-0.3c0-0.8,0.2-1.3,0.6-1.6s0.9-0.5,1.6-0.5
			c0.5,0,0.9,0,1.3,0.1c0.4,0.1,0.7,0.2,0.9,0.3l-0.3,0.8c-0.2-0.1-0.5-0.2-0.8-0.3s-0.6-0.1-0.9-0.1c-0.3,0-0.5,0-0.7,0.1
			s-0.3,0.2-0.4,0.3c-0.1,0.1-0.2,0.3-0.2,0.5c0,0.2,0,0.4,0,0.7H419.7z"/>
		<path class="st1" d="M422.6,110.6c0,0.3,0,0.5,0.1,0.6c0.1,0.1,0.2,0.2,0.4,0.2c0.1,0,0.2,0,0.3,0c0.1,0,0.3-0.1,0.4-0.1l0.1,0.8
			c-0.1,0.1-0.3,0.1-0.5,0.2c-0.2,0-0.4,0.1-0.6,0.1c-0.4,0-0.7-0.1-0.9-0.3c-0.2-0.2-0.3-0.5-0.3-1v-7.2h1V110.6z"/>
		<path class="st1" d="M429.5,111.6c-0.2,0.2-0.5,0.3-0.9,0.5c-0.4,0.1-0.8,0.2-1.2,0.2c-0.5,0-0.9-0.1-1.2-0.2
			c-0.3-0.1-0.6-0.4-0.8-0.6c-0.2-0.3-0.4-0.6-0.5-1s-0.2-0.8-0.2-1.3c0-1,0.2-1.8,0.7-2.3s1.1-0.8,2-0.8c0.3,0,0.5,0,0.8,0.1
			c0.3,0.1,0.5,0.2,0.7,0.3s0.4,0.4,0.5,0.7c0.1,0.3,0.2,0.7,0.2,1.2c0,0.3,0,0.6-0.1,0.9h-3.9c0,0.4,0,0.7,0.1,0.9
			c0.1,0.3,0.2,0.5,0.3,0.7c0.2,0.2,0.3,0.3,0.6,0.4c0.2,0.1,0.5,0.1,0.9,0.1c0.3,0,0.5,0,0.8-0.1c0.3-0.1,0.5-0.2,0.6-0.3
			L429.5,111.6z M427.4,106.8c-0.5,0-0.9,0.1-1.1,0.4c-0.3,0.2-0.5,0.7-0.5,1.3h3c0-0.6-0.1-1-0.3-1.3
			C428.2,106.9,427.8,106.8,427.4,106.8z"/>
	</g>
	<g class="st0">
		<path class="st2" d="M44,43.3h-1.5l3.7-10.8h1.5L44,43.3z"/>
		<path class="st2" d="M51.7,42.6c-1.1,0-1.9-0.3-2.6-1s-1-1.6-1-2.6v-0.3c0-1.1,0.3-2,0.9-2.7s1.4-1.1,2.4-1.1c1,0,1.8,0.3,2.3,0.9
			s0.8,1.4,0.8,2.4v1.1h-4.4l0,0c0,0.5,0.2,0.9,0.5,1.2s0.7,0.5,1.2,0.5c0.4,0,0.8,0,1.1-0.1c0.3-0.1,0.6-0.2,1-0.4l0.5,1.2
			c-0.3,0.2-0.7,0.4-1.2,0.6S52.3,42.6,51.7,42.6z M51.6,36.5c-0.4,0-0.7,0.1-0.9,0.4s-0.3,0.7-0.4,1.1l0,0h2.4v-0.2
			c0-0.4-0.1-0.8-0.3-1C52.3,36.6,52,36.5,51.6,36.5z"/>
	</g>
	<g class="st0">
		<path class="st2" d="M55.5,41.3l1-0.2v-4.6l-1.1-0.2v-1.2h2.9l0.1,1.1c0.2-0.4,0.5-0.7,0.9-0.9s0.8-0.3,1.2-0.3
			c0.7,0,1.3,0.2,1.8,0.7s0.6,1.2,0.6,2.2v3.2l1,0.2v1.2h-3.8v-1.2l0.9-0.2v-3.2c0-0.5-0.1-0.8-0.3-1.1c-0.2-0.2-0.5-0.3-0.9-0.3
			c-0.3,0-0.5,0.1-0.7,0.2c-0.2,0.1-0.4,0.3-0.5,0.5v4l0.8,0.2v1.2h-3.8V41.3z"/>
	</g>
	<g class="st0">
		<path class="st2" d="M67.9,41.1c0.4,0,0.6-0.1,0.9-0.3c0.2-0.2,0.3-0.5,0.3-0.8h1.8l0,0c0,0.7-0.3,1.4-0.8,1.9
			c-0.6,0.5-1.3,0.8-2.2,0.8c-1.1,0-2-0.3-2.5-1s-0.9-1.6-0.9-2.7v-0.2c0-1.1,0.3-2,0.9-2.7s1.5-1.1,2.6-1.1c0.6,0,1.1,0.1,1.6,0.3
			s0.9,0.4,1.2,0.8l0,2h-1.6l-0.3-1.2c-0.1-0.1-0.2-0.2-0.4-0.2c-0.1-0.1-0.3-0.1-0.5-0.1c-0.6,0-1,0.2-1.2,0.6s-0.3,0.9-0.3,1.6
			v0.2c0,0.7,0.1,1.2,0.3,1.6C67,40.9,67.4,41.1,67.9,41.1z"/>
	</g>
	<g class="st0">
		<path class="st2" d="M72,41.3l1-0.2v-4.6l-1.1-0.2v-1.2h2.9l0.1,1.1c0.2-0.4,0.4-0.7,0.7-0.9s0.6-0.3,1-0.3c0.1,0,0.2,0,0.3,0
			c0.1,0,0.2,0,0.3,0.1l-0.2,1.8l-0.8,0c-0.3,0-0.5,0.1-0.7,0.2s-0.3,0.3-0.4,0.5v3.6l1,0.2v1.2H72V41.3z"/>
	</g>
	<g class="st0">
		<path class="st2" d="M85.5,36.3l-0.7,0.1l-2.7,7.2c-0.2,0.5-0.5,1-0.9,1.3s-0.9,0.5-1.6,0.5c-0.2,0-0.3,0-0.5,0s-0.3-0.1-0.5-0.1
			l0.2-1.5c0.1,0,0.1,0,0.2,0s0.1,0,0.2,0c0.3,0,0.6-0.1,0.8-0.2c0.2-0.2,0.3-0.4,0.4-0.6l0.2-0.6l-2.3-6.1l-0.7-0.1v-1.2h3.6v1.2
			l-0.8,0.1l1,3l0.1,0.5l0,0l1.2-3.5l-0.8-0.1v-1.2h3.6V36.3z"/>
		<path class="st2" d="M86,36.3v-1.2h2.9l0.1,0.9c0.2-0.3,0.5-0.6,0.8-0.7s0.7-0.3,1.1-0.3c0.9,0,1.6,0.4,2.1,1.1s0.8,1.7,0.8,2.8
			V39c0,1.1-0.3,2-0.8,2.6s-1.2,1-2.1,1c-0.4,0-0.7-0.1-1-0.2c-0.3-0.1-0.6-0.4-0.8-0.6v2.1l1,0.2v1.2h-3.9v-1.2l1-0.2v-7.4L86,36.3
			z M91.7,38.8c0-0.7-0.1-1.3-0.3-1.7s-0.6-0.6-1.1-0.6c-0.3,0-0.6,0.1-0.8,0.2s-0.4,0.3-0.5,0.5v3.2c0.1,0.2,0.3,0.4,0.5,0.5
			s0.5,0.2,0.8,0.2c0.5,0,0.8-0.2,1.1-0.6s0.3-0.9,0.3-1.5V38.8z"/>
		<path class="st2" d="M97.6,33.3v1.8h1.3v1.4h-1.3v3.8c0,0.3,0.1,0.5,0.2,0.6S98,41,98.2,41c0.1,0,0.3,0,0.4,0c0.1,0,0.2,0,0.3-0.1
			l0.2,1.4c-0.2,0.1-0.4,0.1-0.7,0.2c-0.2,0-0.5,0.1-0.7,0.1c-0.7,0-1.2-0.2-1.6-0.6s-0.6-1-0.6-1.8v-3.8h-1.1v-1.4h1.1v-1.8H97.6z"
			/>
		<path class="st2" d="M103.4,42.6c-1.1,0-1.9-0.3-2.6-1s-1-1.6-1-2.6v-0.3c0-1.1,0.3-2,0.9-2.7s1.4-1.1,2.4-1.1
			c1,0,1.8,0.3,2.3,0.9s0.8,1.4,0.8,2.4v1.1h-4.4l0,0c0,0.5,0.2,0.9,0.5,1.2s0.7,0.5,1.2,0.5c0.4,0,0.8,0,1.1-0.1
			c0.3-0.1,0.6-0.2,1-0.4l0.5,1.2c-0.3,0.2-0.7,0.4-1.2,0.6S104,42.6,103.4,42.6z M103.2,36.5c-0.4,0-0.7,0.1-0.9,0.4
			s-0.3,0.7-0.4,1.1l0,0h2.4v-0.2c0-0.4-0.1-0.8-0.3-1C103.9,36.6,103.6,36.5,103.2,36.5z"/>
		<path class="st2" d="M112.1,41.6c-0.2,0.3-0.5,0.6-0.8,0.8s-0.7,0.3-1.1,0.3c-0.9,0-1.6-0.3-2.1-1s-0.8-1.5-0.8-2.6v-0.1
			c0-1.2,0.3-2.1,0.8-2.8s1.2-1.1,2.1-1.1c0.4,0,0.7,0.1,1,0.2c0.3,0.2,0.6,0.4,0.8,0.7v-2.7l-1.1-0.2v-1.2h1.1h2v9.3l1,0.2v1.2
			h-2.7L112.1,41.6z M109.3,39c0,0.6,0.1,1.2,0.3,1.5c0.2,0.4,0.6,0.6,1.1,0.6c0.3,0,0.5-0.1,0.8-0.2s0.4-0.3,0.5-0.5v-3.1
			c-0.1-0.2-0.3-0.4-0.5-0.6c-0.2-0.1-0.5-0.2-0.7-0.2c-0.5,0-0.8,0.2-1.1,0.6s-0.3,1-0.3,1.7V39z"/>
		<path class="st2" d="M115.5,33.7v-1.2h4.1v1.2l-1.1,0.2v7.1l1.1,0.2v1.2h-4.1v-1.2l1.1-0.2v-7.1L115.5,33.7z"/>
		<path class="st2" d="M120.4,41.3l1-0.2v-4.6l-1.1-0.2v-1.2h2.9l0.1,1.1c0.2-0.4,0.5-0.7,0.9-0.9s0.8-0.3,1.2-0.3
			c0.7,0,1.3,0.2,1.8,0.7s0.6,1.2,0.6,2.2v3.2l1,0.2v1.2h-3.8v-1.2l0.9-0.2v-3.2c0-0.5-0.1-0.8-0.3-1.1c-0.2-0.2-0.5-0.3-0.9-0.3
			c-0.3,0-0.5,0.1-0.7,0.2c-0.2,0.1-0.4,0.3-0.5,0.5v4l0.8,0.2v1.2h-3.8V41.3z"/>
		<path class="st2" d="M129.2,36.3v-1.2h2.9l0.1,0.9c0.2-0.3,0.5-0.6,0.8-0.7s0.7-0.3,1.1-0.3c0.9,0,1.6,0.4,2.1,1.1
			s0.8,1.7,0.8,2.8V39c0,1.1-0.3,2-0.8,2.6s-1.2,1-2.1,1c-0.4,0-0.7-0.1-1-0.2c-0.3-0.1-0.6-0.4-0.8-0.6v2.1l1,0.2v1.2h-3.9v-1.2
			l1-0.2v-7.4L129.2,36.3z M134.9,38.8c0-0.7-0.1-1.3-0.3-1.7s-0.6-0.6-1.1-0.6c-0.3,0-0.6,0.1-0.8,0.2s-0.4,0.3-0.5,0.5v3.2
			c0.1,0.2,0.3,0.4,0.5,0.5s0.5,0.2,0.8,0.2c0.5,0,0.8-0.2,1.1-0.6s0.3-0.9,0.3-1.5V38.8z"/>
		<path class="st2" d="M143,41.5c-0.2,0.3-0.5,0.6-0.9,0.8s-0.7,0.3-1.2,0.3c-0.8,0-1.4-0.2-1.8-0.7c-0.4-0.5-0.7-1.3-0.7-2.3v-3.1
			l-0.8-0.2v-1.2h0.8h2v4.5c0,0.5,0.1,0.9,0.3,1.2c0.2,0.2,0.4,0.4,0.8,0.4c0.3,0,0.6-0.1,0.8-0.2c0.2-0.1,0.4-0.2,0.6-0.4v-4
			l-0.9-0.2v-1.2h0.9h2v6l0.9,0.2v1.2h-2.6L143,41.5z"/>
		<path class="st2" d="M149.5,33.3v1.8h1.3v1.4h-1.3v3.8c0,0.3,0.1,0.5,0.2,0.6s0.3,0.2,0.5,0.2c0.1,0,0.3,0,0.4,0
			c0.1,0,0.2,0,0.3-0.1l0.2,1.4c-0.2,0.1-0.4,0.1-0.7,0.2c-0.2,0-0.5,0.1-0.7,0.1c-0.7,0-1.2-0.2-1.6-0.6s-0.6-1-0.6-1.8v-3.8h-1.1
			v-1.4h1.1v-1.8H149.5z"/>
		<path class="st2" d="M157.8,37.6h-1.3l-0.2-0.9c-0.1-0.1-0.3-0.2-0.5-0.3s-0.4-0.1-0.7-0.1c-0.4,0-0.6,0.1-0.8,0.2
			c-0.2,0.2-0.3,0.4-0.3,0.6c0,0.2,0.1,0.4,0.3,0.6c0.2,0.1,0.6,0.3,1.2,0.4c0.9,0.2,1.6,0.5,2,0.8c0.4,0.4,0.7,0.8,0.7,1.5
			c0,0.7-0.3,1.2-0.9,1.6c-0.6,0.4-1.3,0.6-2.3,0.6c-0.6,0-1.1-0.1-1.6-0.2c-0.5-0.2-0.9-0.4-1.3-0.7l0-1.7h1.4l0.3,1
			c0.1,0.1,0.3,0.2,0.5,0.2c0.2,0,0.4,0.1,0.6,0.1c0.4,0,0.7-0.1,0.9-0.2s0.3-0.3,0.3-0.6c0-0.2-0.1-0.4-0.3-0.6s-0.6-0.3-1.2-0.4
			c-0.9-0.2-1.5-0.4-2-0.8c-0.4-0.3-0.7-0.8-0.7-1.4c0-0.6,0.3-1.2,0.8-1.6c0.5-0.4,1.2-0.7,2.2-0.7c0.6,0,1.1,0.1,1.6,0.2
			s0.9,0.4,1.2,0.6L157.8,37.6z"/>
	</g>
	<g class="st0">
		<path class="st2" d="M20.1,90.4v-1h1.2v-0.9c0-0.8,0.2-1.4,0.6-1.8c0.4-0.4,1-0.6,1.7-0.6c0.2,0,0.3,0,0.5,0
			c0.2,0,0.3,0.1,0.5,0.1l-0.2,1c-0.1,0-0.2,0-0.3,0s-0.2,0-0.4,0c-0.4,0-0.7,0.1-0.9,0.4c-0.2,0.2-0.3,0.6-0.3,1v0.9h1.5v1h-1.5
			v5.3l1.1,0.2v0.9h-3.6v-0.9l1.1-0.2v-5.3H20.1z"/>
		<path class="st2" d="M25.5,95.9l1.5-0.2v-7.5l-1.6,0v-0.8l2.9-0.6v8.9l1.5,0.2v0.9h-4.4V95.9z"/>
	</g>
	<g class="st0">
		<path class="st2" d="M33,98.9c-0.7,0-1.2-0.2-1.6-0.7c-0.4-0.4-0.6-1-0.6-1.7v-0.2c0-0.7,0.2-1.2,0.6-1.7c0.4-0.5,0.9-0.7,1.4-0.7
			c0.6,0,1.1,0.2,1.5,0.6c0.3,0.4,0.5,0.9,0.5,1.5v0.5h-3.1l0,0c0,0.5,0.1,0.8,0.3,1.1c0.2,0.3,0.5,0.4,0.9,0.4c0.3,0,0.5,0,0.8-0.1
			c0.2-0.1,0.4-0.2,0.6-0.3l0.3,0.6c-0.2,0.2-0.4,0.3-0.7,0.4C33.7,98.8,33.4,98.9,33,98.9z M32.8,94.6c-0.3,0-0.5,0.1-0.7,0.4
			c-0.2,0.2-0.3,0.6-0.4,0.9l0,0h2.2v-0.1c0-0.3-0.1-0.6-0.3-0.9S33.2,94.6,32.8,94.6z"/>
	</g>
	<g class="st0">
		<path class="st2" d="M35.5,98.2l0.7-0.1v-3.4l-0.7-0.1V94H37l0.1,0.7c0.2-0.3,0.4-0.4,0.6-0.6c0.2-0.1,0.5-0.2,0.8-0.2
			c0.5,0,0.9,0.2,1.2,0.5c0.3,0.3,0.4,0.8,0.4,1.4v2.3l0.7,0.1v0.6h-2.3v-0.6l0.7-0.1v-2.3c0-0.4-0.1-0.7-0.2-0.9
			c-0.2-0.2-0.4-0.3-0.8-0.3c-0.2,0-0.5,0.1-0.7,0.2s-0.3,0.3-0.5,0.5v2.8l0.7,0.1v0.6h-2.3V98.2z"/>
	</g>
	<g class="st0">
		<path class="st2" d="M43.5,98.2c0.3,0,0.5-0.1,0.8-0.3c0.2-0.2,0.3-0.4,0.3-0.7h0.8l0,0c0,0.4-0.2,0.8-0.5,1.1
			c-0.4,0.3-0.8,0.5-1.3,0.5c-0.7,0-1.2-0.2-1.6-0.7c-0.4-0.5-0.5-1-0.5-1.7v-0.2c0-0.7,0.2-1.2,0.5-1.7c0.4-0.5,0.9-0.7,1.6-0.7
			c0.4,0,0.7,0.1,1,0.2c0.3,0.1,0.6,0.3,0.8,0.5l0,1.1h-0.7L44.5,95c-0.1-0.1-0.2-0.2-0.4-0.2s-0.3-0.1-0.5-0.1
			c-0.5,0-0.8,0.2-1,0.5c-0.2,0.3-0.3,0.7-0.3,1.2v0.2c0,0.5,0.1,0.9,0.3,1.2C42.7,98.1,43.1,98.2,43.5,98.2z"/>
	</g>
	<g class="st0">
		<path class="st2" d="M152.4,90.4v-1h1.2v-0.9c0-0.8,0.2-1.4,0.6-1.8c0.4-0.4,1-0.6,1.7-0.6c0.2,0,0.3,0,0.5,0
			c0.2,0,0.3,0.1,0.5,0.1l-0.2,1c-0.1,0-0.2,0-0.3,0s-0.2,0-0.4,0c-0.4,0-0.7,0.1-0.9,0.4c-0.2,0.2-0.3,0.6-0.3,1v0.9h1.5v1h-1.5
			v5.3l1.1,0.2v0.9h-3.6v-0.9l1.1-0.2v-5.3H152.4z"/>
		<path class="st2" d="M157.3,95.9l1.1-0.2v-5.3l-1.1-0.2v-0.9h2.3l0.1,1.1c0.2-0.4,0.6-0.7,0.9-0.9c0.4-0.2,0.8-0.3,1.3-0.3
			c0.8,0,1.4,0.2,1.9,0.7c0.4,0.5,0.7,1.2,0.7,2.2v3.6l1.1,0.2v0.9h-3.6v-0.9l1.1-0.2v-3.6c0-0.7-0.1-1.1-0.4-1.4s-0.7-0.4-1.2-0.4
			c-0.4,0-0.7,0.1-1,0.3s-0.5,0.4-0.7,0.8v4.3l1.1,0.2v0.9h-3.6V95.9z"/>
	</g>
	<g class="st0">
		<path class="st2" d="M168.4,98.9c-0.7,0-1.2-0.2-1.6-0.7c-0.4-0.4-0.6-1-0.6-1.7v-0.2c0-0.7,0.2-1.2,0.6-1.7
			c0.4-0.5,0.9-0.7,1.4-0.7c0.6,0,1.1,0.2,1.5,0.6c0.3,0.4,0.5,0.9,0.5,1.5v0.5h-3.1l0,0c0,0.5,0.1,0.8,0.3,1.1
			c0.2,0.3,0.5,0.4,0.9,0.4c0.3,0,0.5,0,0.8-0.1c0.2-0.1,0.4-0.2,0.6-0.3l0.3,0.6c-0.2,0.2-0.4,0.3-0.7,0.4
			C169.2,98.8,168.8,98.9,168.4,98.9z M168.3,94.6c-0.3,0-0.5,0.1-0.7,0.4c-0.2,0.2-0.3,0.6-0.4,0.9l0,0h2.2v-0.1
			c0-0.3-0.1-0.6-0.3-0.9S168.7,94.6,168.3,94.6z"/>
	</g>
	<g class="st0">
		<path class="st2" d="M171,98.2l0.7-0.1v-3.4l-0.7-0.1V94h1.5l0.1,0.7c0.2-0.3,0.4-0.4,0.6-0.6c0.2-0.1,0.5-0.2,0.8-0.2
			c0.5,0,0.9,0.2,1.2,0.5c0.3,0.3,0.4,0.8,0.4,1.4v2.3l0.7,0.1v0.6H174v-0.6l0.7-0.1v-2.3c0-0.4-0.1-0.7-0.2-0.9
			c-0.2-0.2-0.4-0.3-0.8-0.3c-0.2,0-0.5,0.1-0.7,0.2s-0.3,0.3-0.5,0.5v2.8l0.7,0.1v0.6H171V98.2z"/>
	</g>
	<g class="st0">
		<path class="st2" d="M179,98.2c0.3,0,0.5-0.1,0.8-0.3c0.2-0.2,0.3-0.4,0.3-0.7h0.8l0,0c0,0.4-0.2,0.8-0.5,1.1
			c-0.4,0.3-0.8,0.5-1.3,0.5c-0.7,0-1.2-0.2-1.6-0.7c-0.4-0.5-0.5-1-0.5-1.7v-0.2c0-0.7,0.2-1.2,0.5-1.7c0.4-0.5,0.9-0.7,1.6-0.7
			c0.4,0,0.7,0.1,1,0.2c0.3,0.1,0.6,0.3,0.8,0.5l0,1.1h-0.7l-0.2-0.7c-0.1-0.1-0.2-0.2-0.4-0.2s-0.3-0.1-0.5-0.1
			c-0.5,0-0.8,0.2-1,0.5c-0.2,0.3-0.3,0.7-0.3,1.2v0.2c0,0.5,0.1,0.9,0.3,1.2C178.2,98.1,178.5,98.2,179,98.2z"/>
	</g>
</g>
<g id="Ebene_4">
	<line class="st3" x1="118.2" y1="56.7" x2="144.8" y2="83.4"/>
	<polygon class="st2" points="137.5,84.1 137.6,82.7 144.4,83 144.2,76.1 145.6,76 145.9,84.5 	"/>
	<line class="st4" x1="167.5" y1="43.6" x2="204.5" y2="48.9"/>
	<line class="st4" x1="167.5" y1="31.6" x2="204.5" y2="26.3"/>
	<line class="st4" x1="192.1" y1="101.2" x2="229.1" y2="107.4"/>
	<line class="st4" x1="192.1" y1="89.1" x2="229.1" y2="83.9"/>
	<line class="st3" x1="82.9" y1="56.7" x2="56.2" y2="83.4"/>
	<polygon class="st2" points="55.4,76 56.8,76.1 56.6,83 63.5,82.7 63.5,84.1 55.1,84.4 	"/>
</g>
</svg>
