<svg xmlns="http://www.w3.org/2000/svg" xmlns:xlink="http://www.w3.org/1999/xlink" viewBox="0 0 770.53 145.02"><defs><style>.cls-1,.cls-24,.cls-25,.cls-26,.cls-7,.cls-8{fill:none;}.cls-2{font-size:18px;}.cls-18,.cls-2,.cls-9{font-family:RobotoSlab-Bold, Roboto Slab;}.cls-18,.cls-2,.cls-21,.cls-9{font-weight:700;}.cls-3{letter-spacing:-0.1em;}.cls-4{letter-spacing:-0.09em;}.cls-5{letter-spacing:-0.03em;}.cls-6{fill:url(#Unbenannter_Verlauf_12);}.cls-12,.cls-7,.cls-8{stroke:#fc0;}.cls-17,.cls-25,.cls-26,.cls-7{stroke-miterlimit:10;}.cls-12,.cls-17,.cls-24,.cls-25,.cls-26,.cls-7,.cls-8{stroke-width:2px;}.cls-12,.cls-24,.cls-8{stroke-linecap:round;stroke-linejoin:round;}.cls-9{font-size:11px;}.cls-13,.cls-9{fill:#fc0;}.cls-10{letter-spacing:-0.01em;}.cls-11{letter-spacing:-0.04em;}.cls-12,.cls-17{fill:#fff;}.cls-14{clip-path:url(#clip-path);}.cls-15{fill:#ffd138;}.cls-16{fill:#fdfeff;}.cls-17{stroke:#306;}.cls-18{font-size:12.24px;}.cls-18,.cls-21{fill:#306;}.cls-19{letter-spacing:-0.01em;}.cls-20{letter-spacing:0em;}.cls-21{font-size:15px;font-family:PTSans-Bold, PT Sans;}.cls-22{letter-spacing:-0.01em;}.cls-23{letter-spacing:0.03em;}.cls-24,.cls-25,.cls-26{stroke:#39f;}.cls-26{stroke-dasharray:2.01 2.01;}.cls-27{fill:#39f;}</style><linearGradient id="Unbenannter_Verlauf_12" x1="536.28" y1="99.47" x2="766.67" y2="99.47" gradientUnits="userSpaceOnUse"><stop offset="0" stop-color="#906"/><stop offset="0.19" stop-color="#780066"/><stop offset="0.4" stop-color="#5a0066"/><stop offset="0.61" stop-color="#406"/><stop offset="0.81" stop-color="#370066"/><stop offset="1" stop-color="#306"/></linearGradient><clipPath id="clip-path"><rect class="cls-1" x="632.42" y="121.97" width="36.34" height="7.12"/></clipPath></defs><title>multistagebuild</title><g id="Ebene_2" data-name="Ebene 2"><text class="cls-2" transform="translate(3.23 35.04)">MU<tspan class="cls-3" x="30.55" y="0">L</tspan><tspan x="39.3" y="0">TI-S</tspan><tspan class="cls-4" x="75.74" y="0">T</tspan><tspan class="cls-5" x="86.26" y="0">A</tspan><tspan x="98.67" y="0">GE BUILD</tspan></text><rect class="cls-6" x="536.28" y="61.72" width="230.39" height="75.5" rx="5"/><rect class="cls-7" x="536.28" y="61.72" width="230.39" height="75.5" rx="5"/><rect class="cls-8" x="559.71" y="84" width="181.98" height="27.21" rx="5"/><text class="cls-9" transform="translate(602.18 101.16)">Ap<tspan class="cls-10" x="14.56" y="0">p</tspan><tspan x="21.11" y="0">lic</tspan><tspan class="cls-11" x="33.96" y="0">a</tspan><tspan x="39.58" y="0">tion image</tspan></text><path class="cls-12" d="M642.78,50.94a11.73,11.73,0,1,1-3.52,8.39,11.52,11.52,0,0,1,2.4-7.1"/><path class="cls-8" d="M651,65h-4.24c-.58,0-.8-.22-.8-.8V57.71c0-.58.22-.81.8-.81h8.45c.55,0,.78.23.78.77v6.5c0,.54-.23.77-.78.77C653.82,65,652.41,65,651,65Z"/><path class="cls-8" d="M646.67,56.34a4.5,4.5,0,0,1,2.64-4.14,4.2,4.2,0,0,1,5.77,2.86c.1.38.14.77.24,1.18"/><path class="cls-13" d="M650.32,62.21h0v.86c0,.17.06.23.26.23h.83c.23,0,.29-.06.29-.26V61.43a.36.36,0,0,1,.23-.38,1.22,1.22,0,0,0,.61-1.45,1.55,1.55,0,0,0-1.45-1,1.65,1.65,0,0,0-1.61.87A1.21,1.21,0,0,0,650,61a.42.42,0,0,1,.26.48A5.86,5.86,0,0,1,650.32,62.21Z"/><g id="Scone_logo_white" data-name="Scone logo white"><g class="cls-14"><g class="cls-14"><path class="cls-15" d="M637.24,123.78h-.76a.29.29,0,0,0-.3.29v.78a.29.29,0,0,0,.3.29h.76a.29.29,0,0,0,.29-.29v-.78a.29.29,0,0,0-.29-.29m-2.65,1.36h.76a.29.29,0,0,0,.29-.29v-.78a.29.29,0,0,0-.29-.29h-.76a.29.29,0,0,0-.29.29v.78a.29.29,0,0,0,.29.29m-.82-.29v-.78a.29.29,0,0,0-.29-.29h-.77a.29.29,0,0,0-.29.29v.78a.29.29,0,0,0,.29.29h.77a.29.29,0,0,0,.29-.29m3.53.83a.22.22,0,0,0-.22.22v.91a.22.22,0,1,0,.43,0v-.91a.2.2,0,0,0-.21-.22m-2.1.29v.78a.29.29,0,0,0,.3.29h.76a.29.29,0,0,0,.29-.29V126a.29.29,0,0,0-.29-.29h-.76a.29.29,0,0,0-.3.29m-.54.78V126a.29.29,0,0,0-.29-.29h-.76a.3.3,0,0,0-.3.29v.78a.3.3,0,0,0,.3.29h.76a.29.29,0,0,0,.29-.29m2.58.83h-.76a.3.3,0,0,0-.3.3v.77a.29.29,0,0,0,.3.29h.76a.29.29,0,0,0,.29-.29v-.77a.3.3,0,0,0-.29-.3m-2,0h-.76a.3.3,0,0,0-.29.3v.77a.29.29,0,0,0,.29.29h.76a.29.29,0,0,0,.29-.29v-.77a.3.3,0,0,0-.29-.3"/><path class="cls-15" d="M638.16,123.47a1.7,1.7,0,0,0,1.18.37s0,0,0,.06V126c0,.8-1,1.3-1.22,1.43,0,0,0,0,0,0l0-3.92s0,0,0,0"/><path class="cls-15" d="M635.86,123.37c1.61-.06,1.87-.62,1.87-.62a.09.09,0,0,1,.08,0s.06,0,.07,0,.25.6,1.86.6c0,0,.06,0,.06.07v2.75c0,.88-1.67,1.88-1.7,1.89s-.06,0-.06.06v.69s.1,0,.15,0c.61-.34,2.34-1.29,2.34-2.46v-3.51c0-.06-.1-.11-.16-.11-2,0-2.43-.74-2.43-.74s-.09,0-.13,0-.08,0-.09,0-.34.78-2.37.78c-.07,0-.09,0-.09.09v.44s0,.1.06.1.54,0,.54,0"/><path class="cls-16" d="M642.05,127.86l.82-.31a1.13,1.13,0,0,0,1.07.62,1.2,1.2,0,0,0,.63-.15.5.5,0,0,0,.26-.44c0-.44-.6-.7-1-.87l0,0a3.75,3.75,0,0,1-1-.53,1.18,1.18,0,0,1-.47-1,1.28,1.28,0,0,1,.49-1,1.81,1.81,0,0,1,1.21-.41,1.74,1.74,0,0,1,1.61.88l-.85.32a.67.67,0,0,0-.29-.31,1.12,1.12,0,0,0-.47-.1c-.47,0-.79.25-.79.58a.66.66,0,0,0,.32.53,4.27,4.27,0,0,0,.74.38l.1,0c.63.26,1.4.6,1.4,1.44a1.22,1.22,0,0,1-.55,1,2.26,2.26,0,0,1-1.34.38,1.94,1.94,0,0,1-1.87-1.11"/><path class="cls-16" d="M649.31,129a2.5,2.5,0,0,1-1-.21,2.55,2.55,0,0,1-1.37-1.37,2.53,2.53,0,0,1,0-2,2.28,2.28,0,0,1,.55-.82,2.4,2.4,0,0,1,.82-.56,2.67,2.67,0,0,1,1-.2,2.49,2.49,0,0,1,1.17.28,2.56,2.56,0,0,1,.89.74l-.68.51a1.78,1.78,0,0,0-.6-.49,1.84,1.84,0,0,0-.79-.19,1.76,1.76,0,0,0-1.75,1.74,1.73,1.73,0,0,0,2.62,1.49,1.68,1.68,0,0,0,.63-.64l.75.42a2.45,2.45,0,0,1-.94,1,2.35,2.35,0,0,1-1.3.37"/><path class="cls-16" d="M655,129a2.71,2.71,0,0,1-1-.2,2.5,2.5,0,0,1-.82-.56,2.57,2.57,0,0,1-.55-.82,2.68,2.68,0,0,1-.21-1,2.38,2.38,0,0,1,.21-1,2.81,2.81,0,0,1,.55-.82A2.88,2.88,0,0,1,654,124a2.73,2.73,0,0,1,1-.21,2.64,2.64,0,0,1,1,.21,2.42,2.42,0,0,1,.82.55,2.66,2.66,0,0,1,.56.82,2.71,2.71,0,0,1,.2,1,2.67,2.67,0,0,1-.2,1,2.44,2.44,0,0,1-.56.82,2.6,2.6,0,0,1-.82.56,2.64,2.64,0,0,1-1,.2m0-4.34a1.69,1.69,0,0,0-1.23.51,1.74,1.74,0,0,0-.51,1.23,1.7,1.7,0,0,0,.51,1.23,1.75,1.75,0,0,0,1.23.51,1.76,1.76,0,0,0,1.75-1.74,1.76,1.76,0,0,0-1.75-1.74"/><polygon class="cls-16" points="663.45 123.82 663.45 129.09 659.82 125.75 659.82 128.89 658.9 128.89 658.9 123.63 662.53 126.98 662.53 123.82 663.45 123.82"/><polygon class="cls-16" points="665.92 124.6 665.92 125.94 668.45 125.94 668.45 126.73 665.92 126.73 665.92 128.1 668.76 128.1 668.76 128.89 665 128.89 665 123.82 668.76 123.82 668.76 124.61 665.92 124.61 665.92 124.6"/></g></g></g><rect class="cls-17" x="182.98" y="82.16" width="164.17" height="30.61" rx="5"/><text class="cls-18" transform="translate(210.62 101.35)">Build envi<tspan class="cls-19" x="59.04" y="0">r</tspan><tspan x="64.08" y="0">on</tspan><tspan class="cls-20" x="78.71" y="0">m</tspan><tspan x="90.04" y="0">ent</tspan></text><text class="cls-21" transform="translate(424.3 88.45)">Doc<tspan class="cls-22" x="24.25" y="0">k</tspan><tspan x="31.44" y="0">erfile </tspan><tspan x="0" y="29">a</tspan><tspan class="cls-23" x="7.44" y="29">r</tspan><tspan x="13.16" y="29">tifacts</tspan></text><path class="cls-24" d="M388.48,84.18a1.71,1.71,0,0,1-1.71-1.67,1.71,1.71,0,0,1,3.41,0,1.65,1.65,0,0,1-1.7,1.67Z"/><path class="cls-24" d="M409.94,75.22A4.93,4.93,0,0,0,407.83,72l-.45-.34-.34.44a4.49,4.49,0,0,0-.07,5.11c-.34.14-.74.35-1.09.48a5.72,5.72,0,0,1-2.24.34H382.17l-.1.48a9.78,9.78,0,0,0,.79,4.63l.34.62v.1c2,3.3,5.62,4.8,9.47,4.8,7.49,0,13.62-3.27,16.52-10.12,1.87.11,3.81-.44,4.73-2.21l.31-.44-.44-.21a5.16,5.16,0,0,0-3.85-.41Z"/><rect class="cls-24" x="395.39" y="72.6" width="2.96" height="2.9"/><rect class="cls-24" x="395.39" y="67.39" width="2.96" height="2.9"/><rect class="cls-24" x="400.57" y="72.6" width="2.96" height="2.9"/><polygon class="cls-24" points="387.97 72.6 385 72.6 385 75.53 387.97 75.53 387.97 72.6"/><rect class="cls-24" x="390.25" y="72.6" width="2.96" height="2.9"/><rect class="cls-24" x="390.25" y="67.39" width="2.96" height="2.9"/><rect class="cls-24" x="395.39" y="62.18" width="2.96" height="2.9"/><line class="cls-25" x1="526.08" y1="98.61" x2="525.08" y2="98.61"/><line class="cls-26" x1="523.07" y1="98.61" x2="363.17" y2="98.61"/><line class="cls-25" x1="362.17" y1="98.61" x2="361.17" y2="98.61"/><polygon class="cls-27" points="519.45 90.44 518.09 91.9 525.31 98.61 518.09 105.33 519.45 106.79 528.25 98.61 519.45 90.44"/><text class="cls-21" transform="translate(62.36 88.45)">Doc<tspan class="cls-22" x="24.25" y="0">k</tspan><tspan x="31.44" y="0">erfile </tspan></text><path class="cls-24" d="M26.54,84.18a1.7,1.7,0,0,1-1.7-1.67,1.7,1.7,0,0,1,3.4,0,1.65,1.65,0,0,1-1.7,1.67Z"/><path class="cls-24" d="M48,75.22A4.86,4.86,0,0,0,45.89,72l-.44-.34-.34.44a4.39,4.39,0,0,0-.82,3.07,4.28,4.28,0,0,0,.75,2c-.34.14-.75.35-1.09.48A5.77,5.77,0,0,1,41.7,78H20.24l-.1.48a9.65,9.65,0,0,0,.78,4.63l.34.62v.1c2,3.3,5.62,4.8,9.47,4.8,7.5,0,13.63-3.27,16.52-10.12,1.88.11,3.82-.44,4.74-2.21l.31-.44-.45-.21A5.15,5.15,0,0,0,48,75.22Z"/><rect class="cls-24" x="33.46" y="72.6" width="2.96" height="2.9"/><rect class="cls-24" x="33.46" y="67.39" width="2.96" height="2.9"/><rect class="cls-24" x="38.63" y="72.6" width="2.96" height="2.9"/><polygon class="cls-24" points="26.03 72.6 23.07 72.6 23.07 75.53 26.03 75.53 26.03 72.6"/><rect class="cls-24" x="28.31" y="72.6" width="2.96" height="2.9"/><rect class="cls-24" x="28.31" y="67.39" width="2.96" height="2.9"/><rect class="cls-24" x="33.46" y="62.18" width="2.96" height="2.9"/><line class="cls-25" x1="168.14" y1="98.61" x2="167.14" y2="98.61"/><line class="cls-26" x1="165.13" y1="98.61" x2="5.24" y2="98.61"/><line class="cls-25" x1="4.23" y1="98.61" x2="3.23" y2="98.61"/><polygon class="cls-27" points="161.52 90.44 160.15 91.9 167.38 98.61 160.15 105.33 161.52 106.79 170.31 98.61 161.52 90.44"/></g></svg>