<?xml version="1.0" encoding="utf-8"?>
<!-- Generator: Adobe Illustrator 24.0.0, SVG Export Plug-In . SVG Version: 6.00 Build 0)  -->
<svg version="1.1" id="Ebene_1" xmlns="http://www.w3.org/2000/svg" xmlns:xlink="http://www.w3.org/1999/xlink" x="0px" y="0px"
	 viewBox="0 0 770.5 145" style="enable-background:new 0 0 770.5 145;" xml:space="preserve">
<style type="text/css">
	.st0{enable-background:new    ;}
	.st1{fill:url(#SVGID_1_);}
	.st2{fill:none;stroke:#FFCC00;stroke-width:2;stroke-miterlimit:10;}
	.st3{fill:none;stroke:#FFCC00;stroke-width:2;stroke-linecap:round;stroke-linejoin:round;}
	.st4{fill:#FFCC00;}
	.st5{fill:#FFFFFF;stroke:#FFCC00;stroke-width:2;stroke-linecap:round;stroke-linejoin:round;}
	.st6{clip-path:url(#SVGID_3_);}
	.st7{clip-path:url(#SVGID_5_);}
	.st8{fill:#FFD138;}
	.st9{fill:#FDFEFF;}
	.st10{fill:#FFFFFF;stroke:#330066;stroke-width:2;stroke-miterlimit:10;}
	.st11{fill:#330066;}
	.st12{fill:none;stroke:#3399FF;stroke-width:2;stroke-linecap:round;stroke-linejoin:round;}
	.st13{fill:none;stroke:#3399FF;stroke-width:2;stroke-miterlimit:10;}
	.st14{fill:none;stroke:#3399FF;stroke-width:2;stroke-miterlimit:10;stroke-dasharray:2.01,2.01;}
	.st15{fill:#3399FF;}
</style>
<g id="Ebene_2_1_">
	<g class="st0">
		<path d="M9.4,22.2c1.5,0,2.7,0.3,3.5,0.9s1.3,1.5,1.3,2.6c0,0.6-0.2,1.1-0.5,1.6c-0.3,0.5-0.8,0.8-1.4,1c0.8,0.2,1.3,0.5,1.7,1.1
			s0.6,1.2,0.6,1.9c0,1.2-0.4,2.2-1.2,2.8c-0.8,0.6-2,0.9-3.4,0.9H3.7v-1.5l1.4-0.3v-9.2l-1.4-0.3v-1.5h1.4H9.4z M7.7,27.6h1.8
			c0.7,0,1.2-0.1,1.6-0.4s0.6-0.7,0.6-1.2c0-0.6-0.2-1-0.6-1.3s-0.9-0.4-1.7-0.4H7.7V27.6z M7.7,29.4v3.7H10c0.7,0,1.2-0.1,1.6-0.4
			s0.5-0.7,0.5-1.3c0-0.6-0.2-1.1-0.5-1.4c-0.3-0.3-0.8-0.5-1.4-0.5H7.7z"/>
		<path d="M20.8,22.2v1.5l-1.4,0.3v6.7c0,0.8,0.2,1.5,0.7,1.9s1.1,0.6,1.9,0.6c0.8,0,1.4-0.2,1.9-0.6s0.7-1,0.7-1.9v-6.7l-1.4-0.3
			v-1.5h5.3v1.5l-1.4,0.3v6.7c0,1.4-0.5,2.5-1.4,3.3s-2.2,1.2-3.7,1.2c-1.5,0-2.8-0.4-3.7-1.2s-1.4-1.9-1.4-3.3v-6.7l-1.4-0.3v-1.5
			h1.4h2.6H20.8z"/>
		<path d="M29.2,23.8v-1.5h5.3v1.5l-1.4,0.3v9.2l1.4,0.3V35h-5.3v-1.5l1.4-0.3v-9.2L29.2,23.8z"/>
		<path d="M35.5,35v-1.5l1.4-0.3v-9.2l-1.4-0.3v-1.5h1.4h2.6h1.4v1.5l-1.4,0.3v9H43l0.1-1.6h2V35H35.5z"/>
		<path d="M51.8,22.2c1.6,0,2.9,0.5,3.9,1.5c1,1,1.5,2.3,1.5,3.8v2.1c0,1.6-0.5,2.9-1.5,3.8c-1,1-2.3,1.5-3.9,1.5H46v-1.5l1.4-0.3
			v-9.2L46,23.8v-1.5h1.4H51.8z M50,24.2v8.9h1.7c0.9,0,1.6-0.3,2.2-0.9s0.8-1.4,0.8-2.4v-2.1c0-1-0.3-1.8-0.8-2.4s-1.2-0.9-2.2-0.9
			H50z"/>
	</g>
	
		<linearGradient id="SVGID_1_" gradientUnits="userSpaceOnUse" x1="536.28" y1="48.53" x2="766.67" y2="48.53" gradientTransform="matrix(1 0 0 -1 0 148)">
		<stop  offset="0" style="stop-color:#990066"/>
		<stop  offset="0.19" style="stop-color:#780066"/>
		<stop  offset="0.4" style="stop-color:#5A0066"/>
		<stop  offset="0.61" style="stop-color:#440066"/>
		<stop  offset="0.81" style="stop-color:#370066"/>
		<stop  offset="1" style="stop-color:#330066"/>
	</linearGradient>
	<path class="st1" d="M541.3,61.7h220.4c2.8,0,5,2.2,5,5v65.5c0,2.8-2.2,5-5,5H541.3c-2.8,0-5-2.2-5-5V66.7
		C536.3,64,538.5,61.7,541.3,61.7z"/>
	<path class="st2" d="M541.3,61.7h220.4c2.8,0,5,2.2,5,5v65.5c0,2.8-2.2,5-5,5H541.3c-2.8,0-5-2.2-5-5V66.7
		C536.3,64,538.5,61.7,541.3,61.7z"/>
	<path class="st3" d="M564.7,84h172c2.8,0,5,2.2,5,5v17.2c0,2.8-2.2,5-5,5h-172c-2.8,0-5-2.2-5-5V89C559.7,86.2,561.9,84,564.7,84z"
		/>
	<g class="st0">
		<path class="st4" d="M602.4,100.2l0.6-0.1l2.4-6.8h1.6l2.4,6.8l0.6,0.1v0.9h-2.7v-0.9l0.5-0.1l-0.3-1.1h-2.5l-0.3,1.1l0.5,0.1v0.9
			h-2.7V100.2z M605.2,97.9h1.8l-0.9-2.8h0L605.2,97.9z"/>
		<path class="st4" d="M610.3,96.3v-0.9h2.3l0.1,0.7c0.2-0.3,0.4-0.4,0.6-0.6c0.2-0.1,0.5-0.2,0.8-0.2c0.7,0,1.3,0.3,1.7,0.8
			c0.4,0.6,0.6,1.3,0.6,2.2v0.1c0,0.9-0.2,1.5-0.6,2.1c-0.4,0.5-1,0.8-1.7,0.8c-0.3,0-0.6-0.1-0.8-0.2c-0.2-0.1-0.4-0.3-0.6-0.5v1.7
			l0.8,0.2v0.9h-3.1v-0.9l0.8-0.2v-5.8L610.3,96.3z M614.8,98.3c0-0.5-0.1-1-0.3-1.3s-0.5-0.5-0.8-0.5c-0.2,0-0.4,0-0.6,0.1
			c-0.2,0.1-0.3,0.2-0.4,0.4v2.5c0.1,0.2,0.2,0.3,0.4,0.4c0.2,0.1,0.4,0.1,0.6,0.1c0.4,0,0.7-0.1,0.8-0.4c0.2-0.3,0.3-0.7,0.3-1.2
			V98.3z"/>
	</g>
	<g class="st0">
		<path class="st4" d="M617,96.3v-0.9h2.3l0.1,0.7c0.2-0.3,0.4-0.4,0.6-0.6c0.2-0.1,0.5-0.2,0.8-0.2c0.7,0,1.3,0.3,1.7,0.8
			c0.4,0.6,0.6,1.3,0.6,2.2v0.1c0,0.9-0.2,1.5-0.6,2.1c-0.4,0.5-1,0.8-1.7,0.8c-0.3,0-0.6-0.1-0.8-0.2c-0.2-0.1-0.4-0.3-0.6-0.5v1.7
			l0.8,0.2v0.9H617v-0.9l0.8-0.2v-5.8L617,96.3z M621.5,98.3c0-0.5-0.1-1-0.3-1.3s-0.5-0.5-0.8-0.5c-0.2,0-0.4,0-0.6,0.1
			c-0.2,0.1-0.3,0.2-0.4,0.4v2.5c0.1,0.2,0.2,0.3,0.4,0.4c0.2,0.1,0.4,0.1,0.6,0.1c0.4,0,0.7-0.1,0.8-0.4c0.2-0.3,0.3-0.7,0.3-1.2
			V98.3z"/>
	</g>
	<g class="st0">
		<path class="st4" d="M623.5,93.7v-0.9h2.4v7.3l0.8,0.2v0.9h-3.1v-0.9l0.8-0.2v-6.2L623.5,93.7z"/>
		<path class="st4" d="M627.1,100.2l0.8-0.2v-3.6l-0.8-0.2v-0.9h2.4v4.7l0.8,0.2v0.9h-3.1V100.2z M629.4,94h-1.6v-1.2h1.6V94z"/>
		<path class="st4" d="M633.4,100.1c0.3,0,0.5-0.1,0.7-0.2c0.2-0.2,0.3-0.4,0.3-0.7h1.4l0,0c0,0.6-0.2,1.1-0.7,1.5s-1,0.6-1.7,0.6
			c-0.9,0-1.5-0.3-2-0.8c-0.5-0.5-0.7-1.3-0.7-2.1v-0.2c0-0.9,0.2-1.6,0.7-2.1c0.5-0.6,1.2-0.8,2.1-0.8c0.5,0,0.9,0.1,1.3,0.2
			c0.4,0.1,0.7,0.3,0.9,0.6l0,1.6h-1.3l-0.3-0.9c-0.1-0.1-0.2-0.1-0.3-0.2c-0.1,0-0.2-0.1-0.4-0.1c-0.4,0-0.8,0.2-0.9,0.5
			c-0.2,0.3-0.3,0.7-0.3,1.2v0.2c0,0.5,0.1,0.9,0.3,1.3C632.7,99.9,633,100.1,633.4,100.1z"/>
	</g>
	<g class="st0">
		<path class="st4" d="M640.2,101.2c0-0.1-0.1-0.2-0.1-0.3c0-0.1-0.1-0.2-0.1-0.3c-0.2,0.2-0.4,0.4-0.7,0.5s-0.6,0.2-0.9,0.2
			c-0.6,0-1-0.2-1.4-0.5c-0.3-0.3-0.5-0.7-0.5-1.3c0-0.5,0.2-1,0.7-1.3c0.4-0.3,1.1-0.4,1.9-0.4h0.8v-0.6c0-0.3-0.1-0.5-0.2-0.6
			s-0.4-0.2-0.7-0.2c-0.2,0-0.3,0-0.5,0.1s-0.3,0.1-0.3,0.1l-0.1,0.6h-1.2l0-1.3c0.3-0.2,0.6-0.4,1-0.5c0.4-0.1,0.8-0.2,1.2-0.2
			c0.7,0,1.3,0.2,1.8,0.5s0.7,0.9,0.7,1.5v2.4c0,0.1,0,0.2,0,0.3c0,0.1,0,0.2,0,0.2l0.5,0.1v0.9H640.2z M638.8,100.1
			c0.2,0,0.5-0.1,0.6-0.2c0.2-0.1,0.3-0.2,0.5-0.4v-0.9h-0.8c-0.3,0-0.6,0.1-0.8,0.2c-0.2,0.2-0.3,0.3-0.3,0.6
			c0,0.2,0.1,0.4,0.2,0.5S638.6,100.1,638.8,100.1z"/>
	</g>
	<g class="st0">
		<path class="st4" d="M644.4,93.9v1.4h1v1.1h-1v3c0,0.2,0,0.4,0.1,0.5c0.1,0.1,0.2,0.1,0.4,0.1c0.1,0,0.2,0,0.3,0
			c0.1,0,0.2,0,0.3,0l0.1,1.1c-0.2,0.1-0.3,0.1-0.5,0.1c-0.2,0-0.4,0-0.6,0c-0.5,0-1-0.1-1.2-0.4s-0.4-0.8-0.4-1.4v-3H642v-1.1h0.9
			v-1.4H644.4z"/>
		<path class="st4" d="M646.2,100.2l0.8-0.2v-3.6l-0.8-0.2v-0.9h2.4v4.7l0.8,0.2v0.9h-3.1V100.2z M648.5,94h-1.6v-1.2h1.6V94z"/>
		<path class="st4" d="M649.7,98.2c0-0.9,0.2-1.6,0.7-2.1c0.5-0.6,1.2-0.8,2-0.8c0.9,0,1.5,0.3,2,0.8s0.7,1.3,0.7,2.1v0.1
			c0,0.9-0.2,1.6-0.7,2.1s-1.2,0.8-2,0.8c-0.9,0-1.5-0.3-2-0.8s-0.7-1.3-0.7-2.1V98.2z M651.3,98.3c0,0.5,0.1,1,0.3,1.3
			c0.2,0.3,0.5,0.5,0.9,0.5c0.4,0,0.7-0.2,0.9-0.5c0.2-0.3,0.3-0.7,0.3-1.3v-0.1c0-0.5-0.1-0.9-0.3-1.3c-0.2-0.3-0.5-0.5-0.9-0.5
			s-0.7,0.2-0.9,0.5c-0.2,0.3-0.3,0.7-0.3,1.3V98.3z"/>
		<path class="st4" d="M655.8,100.2l0.8-0.2v-3.6l-0.8-0.2v-0.9h2.3l0.1,0.8c0.2-0.3,0.4-0.5,0.7-0.7c0.3-0.2,0.6-0.2,1-0.2
			c0.6,0,1,0.2,1.4,0.6c0.3,0.4,0.5,0.9,0.5,1.7v2.5l0.8,0.2v0.9h-3v-0.9l0.7-0.2v-2.5c0-0.4-0.1-0.7-0.2-0.8
			c-0.2-0.2-0.4-0.2-0.7-0.2c-0.2,0-0.4,0-0.6,0.1c-0.2,0.1-0.3,0.2-0.4,0.4v3.1l0.6,0.2v0.9h-3V100.2z"/>
		<path class="st4" d="M665.5,100.2l0.8-0.2v-3.6l-0.8-0.2v-0.9h2.4v4.7l0.8,0.2v0.9h-3.1V100.2z M667.9,94h-1.6v-1.2h1.6V94z"/>
		<path class="st4" d="M669,96.3v-0.9h2.3l0.1,0.8c0.2-0.3,0.4-0.5,0.7-0.6s0.6-0.2,1-0.2c0.4,0,0.7,0.1,1,0.2
			c0.3,0.2,0.5,0.4,0.6,0.7c0.2-0.3,0.4-0.6,0.7-0.7c0.3-0.2,0.6-0.3,1-0.3c0.6,0,1,0.2,1.4,0.6s0.5,1,0.5,1.8v2.4l0.8,0.2v0.9h-3
			v-0.9l0.7-0.2v-2.4c0-0.4-0.1-0.7-0.2-0.9c-0.1-0.2-0.4-0.3-0.6-0.3c-0.2,0-0.4,0-0.6,0.1s-0.3,0.2-0.4,0.4c0,0.1,0,0.1,0,0.2
			c0,0,0,0.1,0,0.1v2.7l0.6,0.2v0.9h-2.8v-0.9l0.6-0.2v-2.4c0-0.4-0.1-0.7-0.2-0.9c-0.1-0.2-0.4-0.3-0.6-0.3c-0.2,0-0.4,0-0.6,0.1
			c-0.2,0.1-0.3,0.2-0.4,0.3v3.1l0.7,0.2v0.9h-3v-0.9l0.8-0.2v-3.6L669,96.3z"/>
		<path class="st4" d="M683.1,101.2c0-0.1-0.1-0.2-0.1-0.3c0-0.1-0.1-0.2-0.1-0.3c-0.2,0.2-0.4,0.4-0.7,0.5
			c-0.3,0.1-0.6,0.2-0.9,0.2c-0.6,0-1-0.2-1.4-0.5s-0.5-0.7-0.5-1.3c0-0.5,0.2-1,0.7-1.3c0.4-0.3,1.1-0.4,1.9-0.4h0.8v-0.6
			c0-0.3-0.1-0.5-0.2-0.6s-0.4-0.2-0.7-0.2c-0.2,0-0.3,0-0.5,0.1s-0.3,0.1-0.3,0.1l-0.1,0.6h-1.2l0-1.3c0.3-0.2,0.6-0.4,1-0.5
			c0.4-0.1,0.8-0.2,1.2-0.2c0.7,0,1.3,0.2,1.8,0.5c0.4,0.4,0.7,0.9,0.7,1.5v2.4c0,0.1,0,0.2,0,0.3c0,0.1,0,0.2,0,0.2l0.5,0.1v0.9
			H683.1z M681.7,100.1c0.2,0,0.5-0.1,0.6-0.2c0.2-0.1,0.3-0.2,0.5-0.4v-0.9H682c-0.3,0-0.6,0.1-0.8,0.2c-0.2,0.2-0.3,0.3-0.3,0.6
			c0,0.2,0.1,0.4,0.2,0.5C681.3,100.1,681.5,100.1,681.7,100.1z"/>
		<path class="st4" d="M685.5,98.3c0-0.9,0.2-1.7,0.6-2.2c0.4-0.6,1-0.8,1.7-0.8c0.3,0,0.6,0.1,0.9,0.2c0.2,0.1,0.5,0.4,0.6,0.6
			l0.1-0.7h1.4v5.6c0,0.8-0.2,1.4-0.7,1.8c-0.5,0.5-1.1,0.7-2,0.7c-0.3,0-0.6,0-0.9-0.1c-0.3-0.1-0.6-0.2-0.9-0.3l0.3-1.1
			c0.3,0.1,0.5,0.2,0.8,0.3c0.3,0.1,0.5,0.1,0.8,0.1c0.4,0,0.7-0.1,0.9-0.3c0.2-0.2,0.3-0.6,0.3-1v-0.4c-0.2,0.2-0.4,0.4-0.6,0.5
			c-0.2,0.1-0.5,0.2-0.8,0.2c-0.7,0-1.3-0.3-1.7-0.8s-0.6-1.2-0.6-2.1V98.3z M687.1,98.4c0,0.5,0.1,0.9,0.3,1.2s0.5,0.4,0.8,0.4
			c0.2,0,0.4,0,0.6-0.1c0.2-0.1,0.3-0.2,0.4-0.4V97c-0.1-0.2-0.2-0.3-0.4-0.4c-0.2-0.1-0.4-0.1-0.6-0.1c-0.4,0-0.7,0.2-0.8,0.5
			c-0.2,0.3-0.3,0.8-0.3,1.3V98.4z"/>
		<path class="st4" d="M694.5,101.3c-0.8,0-1.5-0.3-2-0.8c-0.5-0.5-0.8-1.2-0.8-2v-0.2c0-0.9,0.2-1.6,0.7-2.1
			c0.5-0.6,1.1-0.8,1.9-0.8c0.8,0,1.4,0.2,1.8,0.7c0.4,0.5,0.6,1.1,0.6,1.9v0.9h-3.5l0,0c0,0.4,0.2,0.7,0.4,0.9
			c0.2,0.2,0.5,0.4,0.9,0.4c0.3,0,0.6,0,0.9-0.1c0.2-0.1,0.5-0.2,0.8-0.3l0.4,1c-0.2,0.2-0.6,0.3-0.9,0.5
			C695.4,101.2,694.9,101.3,694.5,101.3z M694.3,96.4c-0.3,0-0.5,0.1-0.7,0.3c-0.2,0.2-0.3,0.5-0.3,0.9l0,0h1.9v-0.1
			c0-0.3-0.1-0.6-0.2-0.8C694.9,96.5,694.7,96.4,694.3,96.4z"/>
	</g>
	<path class="st5" d="M642.8,50.9c4.6-4.5,12.1-4.5,16.6,0.2s4.5,12.1-0.2,16.6c-4.6,4.5-12.1,4.5-16.6-0.2
		c-2.1-2.2-3.3-5.1-3.4-8.2c0-2.6,0.8-5.1,2.4-7.1"/>
	<path class="st3" d="M651,65h-4.2c-0.6,0-0.8-0.2-0.8-0.8v-6.5c0-0.6,0.2-0.8,0.8-0.8h8.5c0.5,0,0.8,0.2,0.8,0.8v6.5
		c0,0.5-0.2,0.8-0.8,0.8C653.8,65,652.4,65,651,65z"/>
	<path class="st3" d="M646.7,56.3c0-1.8,1-3.4,2.6-4.1c2.1-0.9,4.6,0,5.5,2.2c0.1,0.2,0.2,0.5,0.2,0.7c0.1,0.4,0.1,0.8,0.2,1.2"/>
	<path class="st4" d="M650.3,62.2L650.3,62.2v0.9c0,0.2,0.1,0.2,0.3,0.2h0.8c0.2,0,0.3-0.1,0.3-0.3v-1.6c0-0.2,0.1-0.3,0.2-0.4
		c0.5-0.3,0.8-0.9,0.6-1.5c-0.2-0.6-0.8-1-1.5-1c-0.7-0.1-1.3,0.3-1.6,0.9c-0.2,0.6,0,1.2,0.5,1.5c0.2,0.1,0.3,0.3,0.3,0.5
		C650.3,61.7,650.3,62,650.3,62.2z"/>
	<g id="Scone_logo_white">
		<g>
			<defs>
				<rect id="SVGID_2_" x="632.4" y="122" width="36.3" height="7.1"/>
			</defs>
			<clipPath id="SVGID_3_">
				<use xlink:href="#SVGID_2_"  style="overflow:visible;"/>
			</clipPath>
			<g class="st6">
				<g>
					<defs>
						<rect id="SVGID_4_" x="632.4" y="122" width="36.3" height="7.1"/>
					</defs>
					<clipPath id="SVGID_5_">
						<use xlink:href="#SVGID_4_"  style="overflow:visible;"/>
					</clipPath>
					<g class="st7">
						<path class="st8" d="M637.2,123.8h-0.8c-0.2,0-0.3,0.1-0.3,0.3c0,0,0,0,0,0v0.8c0,0.2,0.1,0.3,0.3,0.3c0,0,0,0,0,0h0.8
							c0.2,0,0.3-0.1,0.3-0.3v-0.8C637.5,123.9,637.4,123.8,637.2,123.8 M634.6,125.1h0.8c0.2,0,0.3-0.1,0.3-0.3v-0.8
							c0-0.2-0.1-0.3-0.3-0.3h-0.8c-0.2,0-0.3,0.1-0.3,0.3v0.8C634.3,125,634.4,125.1,634.6,125.1 M633.8,124.8v-0.8
							c0-0.2-0.1-0.3-0.3-0.3h-0.8c-0.2,0-0.3,0.1-0.3,0.3v0.8c0,0.2,0.1,0.3,0.3,0.3h0.8C633.6,125.1,633.8,125,633.8,124.8
							 M637.3,125.7c-0.1,0-0.2,0.1-0.2,0.2v0.9c0,0.1,0,0.2,0.2,0.3c0.1,0,0.2,0,0.3-0.2c0,0,0-0.1,0-0.1v-0.9
							C637.5,125.8,637.4,125.7,637.3,125.7C637.3,125.7,637.3,125.7,637.3,125.7 M635.2,126v0.8c0,0.2,0.1,0.3,0.3,0.3c0,0,0,0,0,0
							h0.8c0.2,0,0.3-0.1,0.3-0.3V126c0-0.2-0.1-0.3-0.3-0.3h-0.8C635.3,125.7,635.2,125.8,635.2,126C635.2,126,635.2,126,635.2,126
							 M634.7,126.8V126c0-0.2-0.1-0.3-0.3-0.3h-0.8c-0.2,0-0.3,0.1-0.3,0.3v0.8c0,0.2,0.1,0.3,0.3,0.3h0.8
							C634.5,127.1,634.7,126.9,634.7,126.8 M637.2,127.6h-0.8c-0.2,0-0.3,0.1-0.3,0.3v0.8c0,0.2,0.1,0.3,0.3,0.3c0,0,0,0,0,0h0.8
							c0.2,0,0.3-0.1,0.3-0.3v-0.8C637.5,127.7,637.4,127.6,637.2,127.6 M635.2,127.6h-0.8c-0.2,0-0.3,0.1-0.3,0.3v0.8
							c0,0.2,0.1,0.3,0.3,0.3h0.8c0.2,0,0.3-0.1,0.3-0.3v-0.8C635.5,127.7,635.4,127.6,635.2,127.6"/>
						<path class="st8" d="M638.2,123.5c0.3,0.3,0.8,0.4,1.2,0.4c0,0,0,0,0,0.1v2.1c0,0.8-1,1.3-1.2,1.4l0,0L638.2,123.5
							L638.2,123.5"/>
						<path class="st8" d="M635.9,123.4c1.6-0.1,1.9-0.6,1.9-0.6c0,0,0.1,0,0.1,0c0,0,0.1,0,0.1,0s0.3,0.6,1.9,0.6
							c0,0,0.1,0,0.1,0.1v2.8c0,0.9-1.7,1.9-1.7,1.9s-0.1,0-0.1,0.1v0.7c0,0,0.1,0,0.2,0c0.6-0.3,2.3-1.3,2.3-2.5v-3.5
							c0-0.1-0.1-0.1-0.2-0.1c-2,0-2.4-0.7-2.4-0.7s-0.1,0-0.1,0s-0.1,0-0.1,0s-0.3,0.8-2.4,0.8c-0.1,0-0.1,0-0.1,0.1v0.4
							c0,0,0,0.1,0.1,0.1S635.9,123.4,635.9,123.4"/>
						<path class="st9" d="M642,127.9l0.8-0.3c0.2,0.4,0.6,0.6,1.1,0.6c0.2,0,0.4,0,0.6-0.1c0.2-0.1,0.3-0.3,0.3-0.4
							c0-0.4-0.6-0.7-1-0.9l0,0c-0.4-0.1-0.7-0.3-1-0.5c-0.3-0.2-0.5-0.6-0.5-1c0-0.4,0.2-0.8,0.5-1c0.3-0.3,0.8-0.4,1.2-0.4
							c0.7,0,1.3,0.3,1.6,0.9l-0.8,0.3c-0.1-0.1-0.2-0.2-0.3-0.3c-0.1-0.1-0.3-0.1-0.5-0.1c-0.5,0-0.8,0.3-0.8,0.6
							c0,0.2,0.1,0.4,0.3,0.5c0.2,0.2,0.5,0.3,0.7,0.4h0.1c0.6,0.3,1.4,0.6,1.4,1.4c0,0.4-0.2,0.8-0.5,1c-0.4,0.3-0.9,0.4-1.3,0.4
							c-0.8,0-1.5-0.4-1.9-1.1"/>
						<path class="st9" d="M649.3,129c-0.3,0-0.7-0.1-1-0.2c-0.6-0.3-1.1-0.8-1.4-1.4c-0.3-0.6-0.3-1.4,0-2c0.1-0.3,0.3-0.6,0.5-0.8
							c0.2-0.2,0.5-0.4,0.8-0.6c0.3-0.1,0.7-0.2,1-0.2c0.4,0,0.8,0.1,1.2,0.3c0.3,0.2,0.7,0.4,0.9,0.7l-0.7,0.5
							c-0.2-0.2-0.4-0.4-0.6-0.5c-0.2-0.1-0.5-0.2-0.8-0.2c-1,0-1.7,0.8-1.8,1.7c0,1,0.8,1.7,1.7,1.7c0.3,0,0.6-0.1,0.9-0.2
							c0.3-0.2,0.5-0.4,0.6-0.6l0.8,0.4c-0.2,0.4-0.5,0.8-0.9,1C650.2,128.9,649.8,129.1,649.3,129"/>
						<path class="st9" d="M655,129c-0.3,0-0.7-0.1-1-0.2c-0.3-0.1-0.6-0.3-0.8-0.6c-0.2-0.2-0.4-0.5-0.5-0.8
							c-0.1-0.3-0.2-0.7-0.2-1c0-0.3,0.1-0.7,0.2-1c0.1-0.3,0.3-0.6,0.5-0.8c0.2-0.2,0.5-0.5,0.8-0.6c0.3-0.1,0.7-0.2,1-0.2
							c0.3,0,0.7,0.1,1,0.2c0.3,0.1,0.6,0.3,0.8,0.6c0.2,0.2,0.4,0.5,0.6,0.8c0.1,0.3,0.2,0.7,0.2,1c0,0.3-0.1,0.7-0.2,1
							c-0.1,0.3-0.3,0.6-0.6,0.8c-0.2,0.2-0.5,0.4-0.8,0.6C655.7,128.9,655.3,128.9,655,129 M655,124.6c-0.5,0-0.9,0.2-1.2,0.5
							c-0.3,0.3-0.5,0.8-0.5,1.2c0,0.5,0.2,0.9,0.5,1.2c0.3,0.3,0.8,0.5,1.2,0.5c1,0,1.7-0.8,1.8-1.7
							C656.7,125.4,656,124.6,655,124.6"/>
						<polygon class="st9" points="663.5,123.8 663.5,129.1 659.8,125.8 659.8,128.9 658.9,128.9 658.9,123.6 662.5,127 
							662.5,123.8 						"/>
						<polygon class="st9" points="665.9,124.6 665.9,125.9 668.5,125.9 668.5,126.7 665.9,126.7 665.9,128.1 668.8,128.1 
							668.8,128.9 665,128.9 665,123.8 668.8,123.8 668.8,124.6 665.9,124.6 						"/>
					</g>
				</g>
			</g>
		</g>
	</g>
	<path class="st10" d="M188,82.2h154.2c2.8,0,5,2.2,5,5v20.6c0,2.8-2.2,5-5,5H188c-2.8,0-5-2.2-5-5V87.2
		C183,84.4,185.2,82.2,188,82.2z"/>
	<g class="st0">
		<path class="st11" d="M214.8,92.6c1,0,1.8,0.2,2.4,0.6s0.9,1,0.9,1.8c0,0.4-0.1,0.8-0.3,1.1c-0.2,0.3-0.5,0.6-0.9,0.7
			c0.5,0.1,0.9,0.4,1.2,0.7c0.3,0.4,0.4,0.8,0.4,1.3c0,0.8-0.3,1.5-0.8,1.9c-0.5,0.4-1.3,0.6-2.3,0.6H211v-1l0.9-0.2v-6.2l-0.9-0.2
			v-1.1h0.9H214.8z M213.6,96.3h1.3c0.5,0,0.8-0.1,1.1-0.3s0.4-0.5,0.4-0.8c0-0.4-0.1-0.7-0.4-0.9s-0.6-0.3-1.1-0.3h-1.2V96.3z
			 M213.6,97.5v2.5h1.6c0.5,0,0.8-0.1,1.1-0.3c0.2-0.2,0.4-0.5,0.4-0.9c0-0.4-0.1-0.8-0.3-1c-0.2-0.2-0.5-0.3-1-0.3H213.6z"/>
		<path class="st11" d="M223.6,100.5c-0.2,0.3-0.5,0.5-0.8,0.7c-0.3,0.2-0.7,0.2-1,0.2c-0.7,0-1.2-0.2-1.6-0.7
			c-0.4-0.4-0.6-1.1-0.6-2v-2.7l-0.7-0.2v-1.1h0.7h1.7v3.9c0,0.5,0.1,0.8,0.2,1s0.4,0.3,0.7,0.3c0.3,0,0.5,0,0.7-0.1
			c0.2-0.1,0.4-0.2,0.5-0.4v-3.5l-0.8-0.2v-1.1h0.8h1.7v5.2l0.8,0.2v1h-2.3L223.6,100.5z"/>
		<path class="st11" d="M226.7,100.3l0.8-0.2v-4l-0.9-0.2v-1.1h2.7v5.2l0.8,0.2v1h-3.4V100.3z M229.3,93.3h-1.7V92h1.7V93.3z"/>
		<path class="st11" d="M230.5,93.1V92h2.7v8.1l0.8,0.2v1h-3.4v-1l0.8-0.2v-6.9L230.5,93.1z"/>
		<path class="st11" d="M238.8,100.6c-0.2,0.3-0.4,0.5-0.7,0.7s-0.6,0.2-0.9,0.2c-0.8,0-1.4-0.3-1.9-0.9c-0.4-0.6-0.7-1.4-0.7-2.3
			v-0.1c0-1,0.2-1.8,0.7-2.5c0.4-0.6,1.1-0.9,1.9-0.9c0.3,0,0.6,0.1,0.9,0.2c0.3,0.1,0.5,0.3,0.7,0.6v-2.3l-0.9-0.2V92h0.9h1.7v8.1
			l0.8,0.2v1h-2.3L238.8,100.6z M236.3,98.3c0,0.6,0.1,1,0.3,1.3c0.2,0.3,0.5,0.5,0.9,0.5c0.3,0,0.5-0.1,0.7-0.2
			c0.2-0.1,0.3-0.3,0.5-0.4v-2.7c-0.1-0.2-0.3-0.4-0.5-0.5c-0.2-0.1-0.4-0.2-0.7-0.2c-0.4,0-0.7,0.2-0.9,0.6
			c-0.2,0.4-0.3,0.9-0.3,1.5V98.3z"/>
		<path class="st11" d="M247.9,101.5c-0.9,0-1.7-0.3-2.2-0.9c-0.6-0.6-0.8-1.4-0.8-2.3v-0.2c0-1,0.3-1.8,0.8-2.4
			c0.5-0.6,1.2-0.9,2.1-0.9c0.9,0,1.5,0.3,2,0.8c0.5,0.5,0.7,1.2,0.7,2.1v1h-3.9l0,0c0,0.4,0.2,0.8,0.4,1.1c0.3,0.3,0.6,0.4,1,0.4
			c0.4,0,0.7,0,1-0.1c0.3-0.1,0.5-0.2,0.8-0.4l0.5,1.1c-0.3,0.2-0.6,0.4-1,0.5S248.4,101.5,247.9,101.5z M247.8,96.1
			c-0.3,0-0.6,0.1-0.8,0.4c-0.2,0.2-0.3,0.6-0.3,1l0,0h2.1v-0.2c0-0.4-0.1-0.7-0.3-0.9C248.4,96.2,248.1,96.1,247.8,96.1z"/>
		<path class="st11" d="M251.2,100.3l0.8-0.2v-4l-0.9-0.2v-1.1h2.6l0.1,0.9c0.2-0.3,0.5-0.6,0.8-0.8c0.3-0.2,0.7-0.3,1.1-0.3
			c0.7,0,1.2,0.2,1.5,0.6s0.5,1.1,0.5,1.9v2.8l0.8,0.2v1h-3.3v-1l0.7-0.2v-2.8c0-0.4-0.1-0.7-0.3-0.9c-0.2-0.2-0.4-0.3-0.8-0.3
			c-0.2,0-0.4,0-0.6,0.1c-0.2,0.1-0.3,0.2-0.5,0.4v3.5l0.7,0.2v1h-3.3V100.3z"/>
		<path class="st11" d="M261.9,95.9l-0.6,0.1l0.9,2.9l0.1,0.6h0l0.1-0.6l0.8-2.9l-0.6-0.1v-1.1h2.9v1.1L265,96l-1.9,5.3h-1.7
			l-1.9-5.3l-0.6-0.1v-1.1h2.9V95.9z"/>
		<path class="st11" d="M266,100.3l0.8-0.2v-4l-0.9-0.2v-1.1h2.7v5.2l0.8,0.2v1H266V100.3z M268.6,93.3h-1.7V92h1.7V93.3z"/>
	</g>
	<g class="st0">
		<path class="st11" d="M270.2,100.3l0.8-0.2v-4l-0.9-0.2v-1.1h2.6l0.1,0.9c0.2-0.3,0.3-0.6,0.6-0.8c0.2-0.2,0.5-0.3,0.8-0.3
			c0.1,0,0.2,0,0.3,0c0.1,0,0.2,0,0.3,0.1l-0.2,1.6l-0.7,0c-0.3,0-0.5,0-0.6,0.1c-0.2,0.1-0.3,0.2-0.4,0.4v3.1l0.8,0.2v1h-3.4V100.3
			z"/>
	</g>
	<g class="st0">
		<path class="st11" d="M275.1,98.1c0-1,0.3-1.8,0.8-2.4c0.5-0.6,1.3-0.9,2.2-0.9c1,0,1.7,0.3,2.2,0.9c0.5,0.6,0.8,1.4,0.8,2.4v0.1
			c0,1-0.3,1.8-0.8,2.4c-0.5,0.6-1.3,0.9-2.2,0.9c-1,0-1.7-0.3-2.3-0.9c-0.5-0.6-0.8-1.4-0.8-2.4V98.1z M276.8,98.2
			c0,0.6,0.1,1.1,0.3,1.4c0.2,0.4,0.5,0.5,1,0.5c0.5,0,0.8-0.2,1-0.5c0.2-0.4,0.3-0.8,0.3-1.4v-0.1c0-0.6-0.1-1-0.3-1.4
			c-0.2-0.4-0.5-0.5-1-0.5c-0.5,0-0.8,0.2-1,0.5c-0.2,0.4-0.3,0.8-0.3,1.4V98.2z"/>
		<path class="st11" d="M281.8,100.3l0.8-0.2v-4l-0.9-0.2v-1.1h2.6l0.1,0.9c0.2-0.3,0.5-0.6,0.8-0.8c0.3-0.2,0.7-0.3,1.1-0.3
			c0.7,0,1.2,0.2,1.5,0.6s0.5,1.1,0.5,1.9v2.8l0.8,0.2v1h-3.3v-1l0.7-0.2v-2.8c0-0.4-0.1-0.7-0.3-0.9c-0.2-0.2-0.4-0.3-0.8-0.3
			c-0.2,0-0.4,0-0.6,0.1c-0.2,0.1-0.3,0.2-0.5,0.4v3.5l0.7,0.2v1h-3.3V100.3z"/>
	</g>
	<g class="st0">
		<path class="st11" d="M289.5,95.9v-1.1h2.6l0.1,0.9c0.2-0.3,0.5-0.6,0.8-0.7c0.3-0.2,0.7-0.3,1.1-0.3c0.4,0,0.8,0.1,1.1,0.3
			c0.3,0.2,0.5,0.5,0.7,0.8c0.2-0.3,0.5-0.6,0.8-0.8s0.7-0.3,1.1-0.3c0.6,0,1.1,0.2,1.5,0.7c0.4,0.4,0.6,1.1,0.6,2v2.7l0.8,0.2v1
			h-3.3v-1l0.8-0.2v-2.7c0-0.5-0.1-0.8-0.2-1c-0.2-0.2-0.4-0.3-0.7-0.3c-0.2,0-0.5,0.1-0.6,0.2c-0.2,0.1-0.3,0.3-0.4,0.5
			c0,0.1,0,0.1,0,0.2c0,0.1,0,0.1,0,0.2v3l0.7,0.2v1h-3.1v-1l0.7-0.2v-2.7c0-0.5-0.1-0.8-0.2-1c-0.2-0.2-0.4-0.3-0.7-0.3
			c-0.2,0-0.4,0-0.6,0.1c-0.2,0.1-0.3,0.2-0.4,0.4v3.5l0.8,0.2v1h-3.3v-1l0.8-0.2v-4L289.5,95.9z"/>
	</g>
	<g class="st0">
		<path class="st11" d="M304.1,101.5c-0.9,0-1.7-0.3-2.2-0.9c-0.6-0.6-0.8-1.4-0.8-2.3v-0.2c0-1,0.3-1.8,0.8-2.4
			c0.5-0.6,1.2-0.9,2.1-0.9c0.9,0,1.5,0.3,2,0.8c0.5,0.5,0.7,1.2,0.7,2.1v1h-3.9l0,0c0,0.4,0.2,0.8,0.4,1.1c0.3,0.3,0.6,0.4,1,0.4
			c0.4,0,0.7,0,1-0.1c0.3-0.1,0.5-0.2,0.8-0.4l0.5,1.1c-0.3,0.2-0.6,0.4-1,0.5S304.7,101.5,304.1,101.5z M304,96.1
			c-0.3,0-0.6,0.1-0.8,0.4c-0.2,0.2-0.3,0.6-0.3,1l0,0h2.1v-0.2c0-0.4-0.1-0.7-0.3-0.9C304.6,96.2,304.3,96.1,304,96.1z"/>
		<path class="st11" d="M307.5,100.3l0.8-0.2v-4l-0.9-0.2v-1.1h2.6l0.1,0.9c0.2-0.3,0.5-0.6,0.8-0.8c0.3-0.2,0.7-0.3,1.1-0.3
			c0.7,0,1.2,0.2,1.5,0.6s0.5,1.1,0.5,1.9v2.8l0.8,0.2v1h-3.3v-1l0.7-0.2v-2.8c0-0.4-0.1-0.7-0.3-0.9c-0.2-0.2-0.4-0.3-0.8-0.3
			c-0.2,0-0.4,0-0.6,0.1c-0.2,0.1-0.3,0.2-0.5,0.4v3.5l0.7,0.2v1h-3.3V100.3z"/>
		<path class="st11" d="M317.9,93.3v1.6h1.1v1.2h-1.1v3.3c0,0.3,0.1,0.4,0.2,0.5s0.2,0.2,0.4,0.2c0.1,0,0.2,0,0.3,0
			c0.1,0,0.2,0,0.3-0.1l0.1,1.3c-0.2,0.1-0.4,0.1-0.6,0.1c-0.2,0-0.4,0-0.6,0c-0.6,0-1.1-0.2-1.4-0.5c-0.3-0.3-0.5-0.9-0.5-1.6v-3.3
			h-1v-1.2h1v-1.6H317.9z"/>
	</g>
	<g class="st0">
		<path class="st11" d="M425.2,78c0.2,0,0.4-0.1,0.7-0.1c0.3,0,0.5,0,0.8,0c0.3,0,0.6,0,0.8,0c0.3,0,0.5,0,0.7,0
			c0.9,0,1.7,0.1,2.4,0.4c0.7,0.3,1.2,0.6,1.6,1.1s0.7,1,0.9,1.7c0.2,0.7,0.3,1.4,0.3,2.1c0,0.7-0.1,1.4-0.3,2.1s-0.5,1.2-0.9,1.8
			c-0.4,0.5-1,0.9-1.7,1.2s-1.5,0.5-2.5,0.5c-0.2,0-0.4,0-0.6,0c-0.3,0-0.5,0-0.8,0c-0.3,0-0.6,0-0.8,0c-0.3,0-0.5,0-0.6-0.1V78z
			 M428.4,79.6c-0.2,0-0.4,0-0.7,0c-0.2,0-0.4,0-0.5,0v7c0,0,0.1,0,0.2,0c0.1,0,0.2,0,0.3,0c0.1,0,0.2,0,0.3,0c0.1,0,0.2,0,0.2,0
			c0.6,0,1.1-0.1,1.4-0.3c0.4-0.2,0.7-0.5,0.9-0.8c0.2-0.3,0.4-0.7,0.5-1.2c0.1-0.4,0.1-0.9,0.1-1.4c0-0.4,0-0.8-0.1-1.2
			s-0.2-0.8-0.4-1.1c-0.2-0.3-0.5-0.6-0.9-0.8S429,79.6,428.4,79.6z"/>
		<path class="st11" d="M434.5,84.7c0-1.3,0.3-2.2,0.9-2.9c0.6-0.7,1.5-1,2.6-1c0.6,0,1.1,0.1,1.6,0.3c0.4,0.2,0.8,0.5,1.1,0.8
			c0.3,0.3,0.5,0.8,0.7,1.3c0.1,0.5,0.2,1,0.2,1.6c0,1.3-0.3,2.2-0.9,2.9c-0.6,0.7-1.5,1-2.6,1c-0.6,0-1.1-0.1-1.6-0.3
			c-0.4-0.2-0.8-0.5-1.1-0.8c-0.3-0.3-0.5-0.8-0.7-1.3C434.6,85.8,434.5,85.3,434.5,84.7z M436.5,84.7c0,0.3,0,0.6,0.1,0.9
			s0.2,0.5,0.3,0.7c0.1,0.2,0.3,0.4,0.5,0.5c0.2,0.1,0.4,0.2,0.7,0.2c0.5,0,0.9-0.2,1.1-0.6s0.4-1,0.4-1.8c0-0.7-0.1-1.2-0.3-1.7
			c-0.2-0.4-0.6-0.6-1.2-0.6c-0.5,0-0.9,0.2-1.1,0.5C436.6,83.3,436.5,83.9,436.5,84.7z"/>
		<path class="st11" d="M448.2,88c-0.3,0.2-0.7,0.4-1.1,0.5c-0.4,0.1-0.9,0.2-1.3,0.2c-0.6,0-1.1-0.1-1.5-0.3
			c-0.4-0.2-0.8-0.5-1-0.8c-0.3-0.3-0.4-0.8-0.6-1.3c-0.1-0.5-0.2-1-0.2-1.6c0-1.3,0.3-2.2,0.9-2.9c0.6-0.7,1.4-1,2.5-1
			c0.5,0,1,0,1.3,0.1s0.6,0.2,0.9,0.3l-0.5,1.6c-0.2-0.1-0.5-0.2-0.7-0.3c-0.2-0.1-0.5-0.1-0.8-0.1c-0.5,0-1,0.2-1.2,0.5
			c-0.3,0.4-0.4,0.9-0.4,1.7c0,0.3,0,0.6,0.1,0.9c0.1,0.3,0.2,0.5,0.3,0.7c0.1,0.2,0.3,0.4,0.5,0.5s0.5,0.2,0.8,0.2
			c0.3,0,0.6,0,0.8-0.1c0.2-0.1,0.4-0.2,0.6-0.3L448.2,88z"/>
	</g>
	<g class="st0">
		<path class="st11" d="M451.9,85.3h-0.5v3.1h-2V78h2v6.2l0.4-0.2l1.7-3h2.1l-1.8,2.8l-0.8,0.6l0.8,0.6l2,3.5h-2.2L451.9,85.3z"/>
	</g>
	<g class="st0">
		<path class="st11" d="M462.6,87.8c-0.3,0.2-0.7,0.4-1.2,0.6c-0.5,0.2-1.1,0.2-1.6,0.2c-1.2,0-2.1-0.4-2.7-1.1
			c-0.6-0.7-0.8-1.7-0.8-2.9c0-1.3,0.3-2.3,0.9-3s1.5-1,2.7-1c0.4,0,0.8,0,1.1,0.2c0.4,0.1,0.7,0.3,1,0.5c0.3,0.2,0.5,0.5,0.7,0.9
			c0.2,0.4,0.3,0.9,0.3,1.5c0,0.2,0,0.4,0,0.7c0,0.2-0.1,0.5-0.1,0.8h-4.5c0,0.6,0.2,1.1,0.5,1.4s0.8,0.5,1.4,0.5
			c0.4,0,0.8-0.1,1.1-0.2c0.3-0.1,0.6-0.3,0.7-0.4L462.6,87.8z M459.8,82.3c-0.5,0-0.9,0.2-1.1,0.5c-0.2,0.3-0.4,0.7-0.4,1.2h2.8
			c0-0.5,0-1-0.2-1.2C460.6,82.4,460.2,82.3,459.8,82.3z"/>
		<path class="st11" d="M468.4,82.8c-0.3-0.1-0.6-0.2-0.8-0.2c-0.3,0-0.6,0.1-0.9,0.3c-0.2,0.2-0.4,0.4-0.5,0.7v4.8h-2V81h1.5l0.2,1
			h0.1c0.2-0.4,0.4-0.7,0.7-0.9c0.3-0.2,0.6-0.3,1-0.3c0.3,0,0.6,0.1,0.9,0.2L468.4,82.8z"/>
		<path class="st11" d="M476,81v7.5h-2v-5.8h-2.3v5.8h-2v-5.8h-1V81h1v-0.4c0-1,0.2-1.6,0.7-2.1c0.5-0.4,1.2-0.7,2.1-0.7
			c0.7,0,1.3,0.1,1.8,0.2c0.5,0.1,1,0.3,1.3,0.4l-0.5,1.5c-0.3-0.1-0.6-0.3-0.9-0.3s-0.8-0.1-1.2-0.1c-0.3,0-0.5,0-0.7,0.1
			c-0.2,0.1-0.3,0.2-0.4,0.3c-0.1,0.1-0.2,0.3-0.2,0.5c0,0.2,0,0.4,0,0.6H476z"/>
		<path class="st11" d="M479.8,85.9c0,0.3,0,0.6,0.1,0.8s0.2,0.2,0.4,0.2c0.1,0,0.2,0,0.4,0c0.1,0,0.3-0.1,0.4-0.1l0.2,1.5
			c-0.2,0.1-0.4,0.2-0.7,0.2s-0.7,0.1-1,0.1c-0.6,0-1-0.1-1.3-0.4c-0.3-0.3-0.5-0.7-0.5-1.3v-9h2V85.9z"/>
		<path class="st11" d="M488.2,87.8c-0.3,0.2-0.7,0.4-1.2,0.6c-0.5,0.2-1.1,0.2-1.6,0.2c-1.2,0-2.1-0.4-2.7-1.1
			c-0.6-0.7-0.8-1.7-0.8-2.9c0-1.3,0.3-2.3,0.9-3s1.5-1,2.7-1c0.4,0,0.8,0,1.1,0.2c0.4,0.1,0.7,0.3,1,0.5c0.3,0.2,0.5,0.5,0.7,0.9
			c0.2,0.4,0.3,0.9,0.3,1.5c0,0.2,0,0.4,0,0.7c0,0.2-0.1,0.5-0.1,0.8h-4.5c0,0.6,0.2,1.1,0.5,1.4s0.8,0.5,1.4,0.5
			c0.4,0,0.8-0.1,1.1-0.2c0.3-0.1,0.6-0.3,0.7-0.4L488.2,87.8z M485.4,82.3c-0.5,0-0.9,0.2-1.1,0.5c-0.2,0.3-0.4,0.7-0.4,1.2h2.8
			c0-0.5,0-1-0.2-1.2C486.2,82.4,485.8,82.3,485.4,82.3z"/>
	</g>
	<g class="st0">
		<path class="st11" d="M425.1,110.4c0.4-0.2,0.9-0.3,1.4-0.4c0.5-0.1,1.1-0.2,1.7-0.2c0.5,0,1,0.1,1.3,0.2c0.3,0.1,0.6,0.3,0.8,0.5
			c0.2,0.2,0.3,0.5,0.4,0.8c0.1,0.3,0.1,0.7,0.1,1.1c0,0.4,0,0.9,0,1.3s0,0.9-0.1,1.3s0,0.8,0,1.3c0,0.4,0.1,0.8,0.2,1.1h-1.6
			l-0.3-1h-0.1c-0.2,0.3-0.5,0.6-0.8,0.8c-0.4,0.2-0.8,0.3-1.4,0.3c-0.4,0-0.7-0.1-0.9-0.2c-0.3-0.1-0.5-0.3-0.7-0.5
			c-0.2-0.2-0.4-0.4-0.5-0.7c-0.1-0.3-0.2-0.6-0.2-0.9c0-0.5,0.1-0.8,0.3-1.2c0.2-0.3,0.5-0.6,0.9-0.8c0.4-0.2,0.8-0.3,1.4-0.4
			c0.5-0.1,1.1-0.1,1.8-0.1c0.1-0.6,0-1-0.1-1.2c-0.1-0.2-0.5-0.4-1-0.4c-0.4,0-0.8,0-1.2,0.1c-0.4,0.1-0.8,0.2-1.1,0.3L425.1,110.4
			z M427.6,116c0.4,0,0.7-0.1,0.9-0.3c0.2-0.2,0.4-0.4,0.5-0.6v-1c-0.3,0-0.6,0-0.9,0c-0.3,0-0.5,0.1-0.8,0.1
			c-0.2,0.1-0.4,0.2-0.5,0.3s-0.2,0.3-0.2,0.5c0,0.3,0.1,0.5,0.2,0.7C427.1,115.9,427.3,116,427.6,116z"/>
	</g>
	<g class="st0">
		<path class="st11" d="M436.7,111.8c-0.3-0.1-0.6-0.2-0.8-0.2c-0.3,0-0.6,0.1-0.9,0.3c-0.2,0.2-0.4,0.4-0.5,0.7v4.8h-2V110h1.5
			l0.2,1h0.1c0.2-0.4,0.4-0.7,0.7-0.9c0.3-0.2,0.6-0.3,1-0.3c0.3,0,0.6,0.1,0.9,0.2L436.7,111.8z"/>
	</g>
	<g class="st0">
		<path class="st11" d="M437.5,110h1v-1.4l1.9-0.6v2h1.8v1.7h-1.8v2.9c0,0.5,0.1,0.9,0.2,1.1c0.1,0.2,0.3,0.3,0.6,0.3
			c0.2,0,0.4,0,0.5-0.1s0.3-0.1,0.5-0.2l0.3,1.5c-0.3,0.1-0.6,0.2-0.9,0.3s-0.7,0.1-1.1,0.1c-0.7,0-1.2-0.2-1.5-0.5
			c-0.3-0.4-0.5-0.9-0.5-1.7v-3.8h-1V110z"/>
		<path class="st11" d="M443.4,107.8c0-0.3,0.1-0.5,0.3-0.7s0.5-0.3,0.9-0.3c0.4,0,0.7,0.1,0.9,0.3s0.4,0.5,0.4,0.7
			s-0.1,0.5-0.4,0.7c-0.2,0.2-0.5,0.3-0.9,0.3c-0.4,0-0.7-0.1-0.9-0.3C443.5,108.4,443.4,108.1,443.4,107.8z M443.7,110h2v7.5h-2
			V110z"/>
		<path class="st11" d="M446.9,110h1v-0.4c0-1,0.2-1.6,0.6-2.1c0.4-0.4,1-0.6,1.7-0.6c0.8,0,1.5,0.1,2,0.3l-0.4,1.6
			c-0.2-0.1-0.4-0.1-0.6-0.2c-0.2,0-0.4,0-0.5,0c-0.2,0-0.4,0-0.5,0.1c-0.1,0.1-0.2,0.2-0.3,0.3s-0.1,0.3-0.1,0.5c0,0.2,0,0.4,0,0.6
			h1.6v1.7h-1.6v5.8h-2v-5.8h-1V110z"/>
		<path class="st11" d="M452.4,110.4c0.4-0.2,0.9-0.3,1.4-0.4c0.6-0.1,1.1-0.2,1.7-0.2c0.5,0,1,0.1,1.3,0.2c0.3,0.1,0.6,0.3,0.8,0.5
			c0.2,0.2,0.3,0.5,0.4,0.8c0.1,0.3,0.1,0.7,0.1,1.1c0,0.4,0,0.9,0,1.3c0,0.4,0,0.9-0.1,1.3c0,0.4,0,0.8,0,1.3
			c0,0.4,0.1,0.8,0.2,1.1h-1.6l-0.3-1h-0.1c-0.2,0.3-0.5,0.6-0.8,0.8c-0.4,0.2-0.8,0.3-1.4,0.3c-0.4,0-0.7-0.1-0.9-0.2
			c-0.3-0.1-0.5-0.3-0.7-0.5c-0.2-0.2-0.4-0.4-0.5-0.7c-0.1-0.3-0.2-0.6-0.2-0.9c0-0.5,0.1-0.8,0.3-1.2c0.2-0.3,0.5-0.6,0.9-0.8
			c0.4-0.2,0.8-0.3,1.4-0.4c0.5-0.1,1.1-0.1,1.8-0.1c0.1-0.6,0-1-0.1-1.2s-0.5-0.4-1-0.4c-0.4,0-0.8,0-1.2,0.1s-0.8,0.2-1.1,0.3
			L452.4,110.4z M454.8,116c0.4,0,0.7-0.1,0.9-0.3s0.4-0.4,0.5-0.6v-1c-0.3,0-0.6,0-0.9,0c-0.3,0-0.5,0.1-0.8,0.1
			c-0.2,0.1-0.4,0.2-0.5,0.3s-0.2,0.3-0.2,0.5c0,0.3,0.1,0.5,0.2,0.7C454.3,115.9,454.5,116,454.8,116z"/>
		<path class="st11" d="M465.2,117c-0.3,0.2-0.7,0.4-1.1,0.5c-0.4,0.1-0.9,0.2-1.3,0.2c-0.6,0-1.1-0.1-1.5-0.3
			c-0.4-0.2-0.8-0.5-1-0.8c-0.3-0.3-0.4-0.8-0.6-1.3s-0.2-1-0.2-1.6c0-1.3,0.3-2.2,0.9-2.9c0.6-0.7,1.4-1,2.5-1c0.6,0,1,0,1.3,0.1
			s0.6,0.2,0.9,0.3l-0.5,1.6c-0.2-0.1-0.5-0.2-0.7-0.3c-0.2-0.1-0.5-0.1-0.8-0.1c-0.5,0-1,0.2-1.2,0.5c-0.3,0.4-0.4,0.9-0.4,1.7
			c0,0.3,0,0.6,0.1,0.9c0.1,0.3,0.2,0.5,0.3,0.7c0.1,0.2,0.3,0.4,0.5,0.5s0.5,0.2,0.8,0.2c0.3,0,0.6,0,0.8-0.1
			c0.2-0.1,0.4-0.2,0.6-0.3L465.2,117z"/>
		<path class="st11" d="M465.6,110h1v-1.4l1.9-0.6v2h1.8v1.7h-1.8v2.9c0,0.5,0.1,0.9,0.2,1.1c0.1,0.2,0.3,0.3,0.6,0.3
			c0.2,0,0.4,0,0.5-0.1s0.3-0.1,0.5-0.2l0.3,1.5c-0.3,0.1-0.6,0.2-0.9,0.3s-0.7,0.1-1.1,0.1c-0.7,0-1.2-0.2-1.5-0.5
			c-0.3-0.4-0.5-0.9-0.5-1.7v-3.8h-1V110z"/>
		<path class="st11" d="M474.7,115.4c0-0.2-0.1-0.4-0.3-0.5s-0.4-0.2-0.6-0.3c-0.3-0.1-0.5-0.2-0.8-0.3s-0.6-0.3-0.8-0.4
			c-0.3-0.2-0.5-0.4-0.6-0.7c-0.2-0.3-0.3-0.7-0.3-1.1c0-0.7,0.2-1.3,0.7-1.7s1.1-0.6,1.9-0.6c0.6,0,1.1,0.1,1.5,0.2
			c0.5,0.1,0.8,0.3,1.1,0.4l-0.4,1.4c-0.2-0.1-0.5-0.2-0.9-0.3s-0.7-0.2-1.1-0.2c-0.6,0-0.9,0.2-0.9,0.7c0,0.2,0.1,0.3,0.3,0.4
			c0.2,0.1,0.4,0.2,0.6,0.3s0.5,0.2,0.8,0.3s0.6,0.3,0.8,0.4s0.5,0.4,0.6,0.7c0.2,0.3,0.3,0.6,0.3,1.1c0,0.8-0.2,1.4-0.7,1.8
			c-0.5,0.4-1.2,0.7-2.2,0.7c-0.5,0-1-0.1-1.5-0.2c-0.5-0.1-0.8-0.3-1.1-0.5l0.5-1.5c0.2,0.1,0.5,0.3,0.9,0.4
			c0.4,0.1,0.8,0.2,1.2,0.2c0.3,0,0.5-0.1,0.7-0.2C474.6,115.8,474.7,115.6,474.7,115.4z"/>
	</g>
	<path class="st12" d="M388.5,84.2c-0.9,0-1.7-0.7-1.7-1.7c0.1-0.9,0.9-1.6,1.8-1.6c0.8,0.1,1.5,0.7,1.6,1.6
		C390.2,83.4,389.5,84.2,388.5,84.2C388.5,84.2,388.5,84.2,388.5,84.2z"/>
	<path class="st12" d="M409.9,75.2c-0.2-1.3-1-2.5-2.1-3.2l-0.5-0.3l-0.3,0.4c-1.1,1.5-1.1,3.6-0.1,5.1c-0.3,0.1-0.7,0.3-1.1,0.5
		c-0.7,0.3-1.5,0.4-2.2,0.3h-21.5l-0.1,0.5c-0.1,1.6,0.2,3.2,0.8,4.6l0.3,0.6v0.1c2,3.3,5.6,4.8,9.5,4.8c7.5,0,13.6-3.3,16.5-10.1
		c1.9,0.1,3.8-0.4,4.7-2.2l0.3-0.4l-0.4-0.2C412.6,75,411.2,74.9,409.9,75.2L409.9,75.2z"/>
	<rect x="395.4" y="72.6" class="st12" width="3" height="2.9"/>
	<rect x="395.4" y="67.4" class="st12" width="3" height="2.9"/>
	<rect x="400.6" y="72.6" class="st12" width="3" height="2.9"/>
	<polygon class="st12" points="388,72.6 385,72.6 385,75.5 388,75.5 	"/>
	<rect x="390.3" y="72.6" class="st12" width="3" height="2.9"/>
	<rect x="390.3" y="67.4" class="st12" width="3" height="2.9"/>
	<rect x="395.4" y="62.2" class="st12" width="3" height="2.9"/>
	<line class="st13" x1="526.1" y1="98.6" x2="525.1" y2="98.6"/>
	<line class="st14" x1="523.1" y1="98.6" x2="363.2" y2="98.6"/>
	<line class="st13" x1="362.2" y1="98.6" x2="361.2" y2="98.6"/>
	<polygon class="st15" points="519.5,90.4 518.1,91.9 525.3,98.6 518.1,105.3 519.5,106.8 528.3,98.6 	"/>
	<g class="st0">
		<path class="st11" d="M63.3,78c0.2,0,0.4-0.1,0.7-0.1c0.3,0,0.5,0,0.8,0c0.3,0,0.6,0,0.8,0c0.3,0,0.5,0,0.7,0
			c0.9,0,1.7,0.1,2.4,0.4c0.7,0.3,1.2,0.6,1.6,1.1c0.4,0.5,0.7,1,0.9,1.7c0.2,0.7,0.3,1.4,0.3,2.1c0,0.7-0.1,1.4-0.3,2.1
			c-0.2,0.7-0.5,1.2-0.9,1.8c-0.4,0.5-1,0.9-1.7,1.2c-0.7,0.3-1.5,0.5-2.5,0.5c-0.2,0-0.4,0-0.6,0c-0.3,0-0.5,0-0.8,0
			c-0.3,0-0.6,0-0.8,0s-0.5,0-0.6-0.1V78z M66.5,79.6c-0.2,0-0.4,0-0.7,0s-0.4,0-0.5,0v7c0,0,0.1,0,0.2,0c0.1,0,0.2,0,0.3,0
			s0.2,0,0.3,0c0.1,0,0.2,0,0.2,0c0.6,0,1.1-0.1,1.4-0.3c0.4-0.2,0.7-0.5,0.9-0.8c0.2-0.3,0.4-0.7,0.5-1.2c0.1-0.4,0.1-0.9,0.1-1.4
			c0-0.4,0-0.8-0.1-1.2s-0.2-0.8-0.4-1.1c-0.2-0.3-0.5-0.6-0.9-0.8C67.5,79.7,67.1,79.6,66.5,79.6z"/>
		<path class="st11" d="M72.6,84.7c0-1.3,0.3-2.2,0.9-2.9c0.6-0.7,1.5-1,2.6-1c0.6,0,1.1,0.1,1.6,0.3c0.4,0.2,0.8,0.5,1.1,0.8
			c0.3,0.3,0.5,0.8,0.7,1.3c0.1,0.5,0.2,1,0.2,1.6c0,1.3-0.3,2.2-0.9,2.9c-0.6,0.7-1.5,1-2.6,1c-0.6,0-1.1-0.1-1.6-0.3
			c-0.4-0.2-0.8-0.5-1.1-0.8c-0.3-0.3-0.5-0.8-0.7-1.3S72.6,85.3,72.6,84.7z M74.6,84.7c0,0.3,0,0.6,0.1,0.9
			c0.1,0.3,0.1,0.5,0.3,0.7c0.1,0.2,0.3,0.4,0.5,0.5c0.2,0.1,0.4,0.2,0.7,0.2c0.5,0,0.9-0.2,1.1-0.6s0.4-1,0.4-1.8
			c0-0.7-0.1-1.2-0.3-1.7c-0.2-0.4-0.6-0.6-1.2-0.6c-0.5,0-0.9,0.2-1.1,0.5C74.7,83.3,74.6,83.9,74.6,84.7z"/>
		<path class="st11" d="M86.3,88c-0.3,0.2-0.7,0.4-1.1,0.5c-0.4,0.1-0.9,0.2-1.3,0.2c-0.6,0-1.1-0.1-1.5-0.3c-0.4-0.2-0.8-0.5-1-0.8
			c-0.3-0.3-0.4-0.8-0.6-1.3c-0.1-0.5-0.2-1-0.2-1.6c0-1.3,0.3-2.2,0.9-2.9c0.6-0.7,1.4-1,2.5-1c0.5,0,1,0,1.3,0.1s0.6,0.2,0.9,0.3
			l-0.5,1.6c-0.2-0.1-0.5-0.2-0.7-0.3c-0.2-0.1-0.5-0.1-0.8-0.1c-0.5,0-0.9,0.2-1.2,0.5c-0.3,0.4-0.4,0.9-0.4,1.7
			c0,0.3,0,0.6,0.1,0.9c0.1,0.3,0.2,0.5,0.3,0.7s0.3,0.4,0.5,0.5c0.2,0.1,0.5,0.2,0.8,0.2c0.3,0,0.6,0,0.8-0.1
			c0.2-0.1,0.4-0.2,0.6-0.3L86.3,88z"/>
	</g>
	<g class="st0">
		<path class="st11" d="M89.9,85.3h-0.5v3.1h-2V78h2v6.2l0.4-0.2l1.7-3h2.1l-1.8,2.8l-0.8,0.6L92,85l2,3.5h-2.2L89.9,85.3z"/>
	</g>
	<g class="st0">
		<path class="st11" d="M100.7,87.8c-0.3,0.2-0.7,0.4-1.2,0.6s-1.1,0.2-1.6,0.2c-1.2,0-2.1-0.4-2.7-1.1s-0.8-1.7-0.8-2.9
			c0-1.3,0.3-2.3,0.9-3s1.5-1,2.7-1c0.4,0,0.8,0,1.1,0.2c0.4,0.1,0.7,0.3,1,0.5c0.3,0.2,0.5,0.5,0.7,0.9c0.2,0.4,0.3,0.9,0.3,1.5
			c0,0.2,0,0.4,0,0.7s-0.1,0.5-0.1,0.8h-4.5c0,0.6,0.2,1.1,0.5,1.4s0.8,0.5,1.4,0.5c0.4,0,0.8-0.1,1.1-0.2s0.6-0.3,0.7-0.4
			L100.7,87.8z M97.9,82.3c-0.5,0-0.9,0.2-1.1,0.5s-0.4,0.7-0.4,1.2h2.8c0-0.5,0-1-0.2-1.2C98.6,82.4,98.3,82.3,97.9,82.3z"/>
		<path class="st11" d="M106.4,82.8c-0.3-0.1-0.6-0.2-0.8-0.2c-0.4,0-0.6,0.1-0.9,0.3c-0.2,0.2-0.4,0.4-0.5,0.7v4.8h-2V81h1.5l0.2,1
			h0.1c0.2-0.4,0.4-0.7,0.7-0.9c0.3-0.2,0.6-0.3,1-0.3c0.3,0,0.6,0.1,0.9,0.2L106.4,82.8z"/>
		<path class="st11" d="M114.1,81v7.5h-1.9v-5.8h-2.3v5.8h-2v-5.8h-1V81h1v-0.4c0-1,0.2-1.6,0.7-2.1c0.5-0.4,1.2-0.7,2.1-0.7
			c0.7,0,1.3,0.1,1.8,0.2c0.5,0.1,1,0.3,1.3,0.4l-0.5,1.5c-0.3-0.1-0.6-0.3-0.9-0.3c-0.4-0.1-0.8-0.1-1.2-0.1c-0.3,0-0.5,0-0.7,0.1
			c-0.2,0.1-0.3,0.2-0.4,0.3s-0.2,0.3-0.2,0.5c0,0.2,0,0.4,0,0.6H114.1z"/>
		<path class="st11" d="M117.8,85.9c0,0.3,0,0.6,0.1,0.8s0.2,0.2,0.4,0.2c0.1,0,0.2,0,0.4,0c0.1,0,0.3-0.1,0.4-0.1l0.2,1.5
			c-0.2,0.1-0.4,0.2-0.7,0.2s-0.7,0.1-1,0.1c-0.6,0-1-0.1-1.3-0.4c-0.3-0.3-0.5-0.7-0.5-1.3v-9h2V85.9z"/>
		<path class="st11" d="M126.2,87.8c-0.3,0.2-0.7,0.4-1.2,0.6s-1.1,0.2-1.6,0.2c-1.2,0-2.1-0.4-2.7-1.1s-0.8-1.7-0.8-2.9
			c0-1.3,0.3-2.3,0.9-3s1.5-1,2.7-1c0.4,0,0.8,0,1.1,0.2c0.4,0.1,0.7,0.3,1,0.5c0.3,0.2,0.5,0.5,0.7,0.9c0.2,0.4,0.3,0.9,0.3,1.5
			c0,0.2,0,0.4,0,0.7s-0.1,0.5-0.1,0.8h-4.5c0,0.6,0.2,1.1,0.5,1.4s0.8,0.5,1.4,0.5c0.4,0,0.8-0.1,1.1-0.2s0.6-0.3,0.7-0.4
			L126.2,87.8z M123.5,82.3c-0.5,0-0.9,0.2-1.1,0.5s-0.4,0.7-0.4,1.2h2.8c0-0.5,0-1-0.2-1.2C124.2,82.4,123.9,82.3,123.5,82.3z"/>
	</g>
	<path class="st12" d="M26.5,84.2c-0.9,0-1.7-0.7-1.7-1.7c0-0.9,0.8-1.7,1.7-1.7c0.9,0,1.7,0.8,1.7,1.7
		C28.3,83.4,27.5,84.2,26.5,84.2C26.6,84.2,26.6,84.2,26.5,84.2z"/>
	<path class="st12" d="M48,75.2c-0.2-1.3-1-2.5-2.1-3.2l-0.4-0.3l-0.3,0.4c-0.6,0.9-0.9,2-0.8,3.1c0.1,0.7,0.3,1.4,0.8,2
		c-0.3,0.1-0.8,0.3-1.1,0.5c-0.7,0.3-1.5,0.4-2.3,0.3H20.2l-0.1,0.5c-0.1,1.6,0.1,3.2,0.8,4.6l0.3,0.6v0.1c2,3.3,5.6,4.8,9.5,4.8
		c7.5,0,13.6-3.3,16.5-10.1c1.9,0.1,3.8-0.4,4.7-2.2l0.3-0.4l-0.5-0.2C50.7,75,49.3,74.9,48,75.2z"/>
	<rect x="33.5" y="72.6" class="st12" width="3" height="2.9"/>
	<rect x="33.5" y="67.4" class="st12" width="3" height="2.9"/>
	<rect x="38.6" y="72.6" class="st12" width="3" height="2.9"/>
	<polygon class="st12" points="26,72.6 23.1,72.6 23.1,75.5 26,75.5 	"/>
	<rect x="28.3" y="72.6" class="st12" width="3" height="2.9"/>
	<rect x="28.3" y="67.4" class="st12" width="3" height="2.9"/>
	<rect x="33.5" y="62.2" class="st12" width="3" height="2.9"/>
	<line class="st13" x1="168.1" y1="98.6" x2="167.1" y2="98.6"/>
	<line class="st14" x1="165.1" y1="98.6" x2="5.2" y2="98.6"/>
	<line class="st13" x1="4.2" y1="98.6" x2="3.2" y2="98.6"/>
	<polygon class="st15" points="161.5,90.4 160.1,91.9 167.4,98.6 160.1,105.3 161.5,106.8 170.3,98.6 	"/>
</g>
</svg>
