<svg id="Ebene_1" data-name="Ebene 1" xmlns="http://www.w3.org/2000/svg" viewBox="0 0 200 50"><defs><style>.cls-1{fill:#39f;}.cls-2{fill:#fff;}</style></defs><title>next_link</title><rect class="cls-1" width="200" height="50" rx="5"/><path class="cls-2" d="M60.85,25.46l-1.37-2.75h-.13l.4,2.75v9.12H56.5V17H59l6.63,9.33L67,29h.13l-.4-2.67V17.08h3.25V34.71h-2.5Z"/><path class="cls-2" d="M72.93,17.08H83.3v3.05h-7v4.08h6.33v3.05H76.35v4.28h7.08v3H72.93Z"/><path class="cls-2" d="M90.1,25.69l-4.88-8.61h4.13l2.7,5.05.6,1.78.57-1.78,2.83-5.05h3.73l-5.06,8.43L100,34.58H96l-3.07-5.39-.68-1.86-.65,1.86-3.1,5.39H84.72Z"/><path class="cls-2" d="M113.05,20.13H108V34.58h-3.42V20.13H99.4V17.08h13.65Z"/><path class="cls-2" d="M130.82,25.46v1.75L121.17,33l-1.42-2.27,5.6-3.45,2.28-.9-2.25-.75-5.75-3.45,1.42-2.22Z"/><path class="cls-2" d="M144,25.46v1.75L134.35,33l-1.43-2.27,5.6-3.45,2.28-.9-2.25-.75-5.75-3.45,1.42-2.22Z"/></svg>