<?xml version="1.0" encoding="utf-8"?>
<!-- Generator: Adobe Illustrator 24.0.0, SVG Export Plug-In . SVG Version: 6.00 Build 0)  -->
<svg version="1.1" xmlns="http://www.w3.org/2000/svg" xmlns:xlink="http://www.w3.org/1999/xlink" x="0px" y="0px"
	 viewBox="0 0 1920 540" style="enable-background:new 0 0 1920 540;" xml:space="preserve">
<style type="text/css">
	.st0{clip-path:url(#SVGID_2_);}
	.st1{filter:url(#Adobe_OpacityMaskFilter);}
	.st2{filter:url(#Adobe_OpacityMaskFilter_1_);}
	.st3{clip-path:url(#SVGID_6_);}
	.st4{clip-path:url(#SVGID_8_);fill:#FFD138;}
	.st5{clip-path:url(#SVGID_8_);fill:#FDFEFF;}
	.st6{fill:none;}
	.st7{fill:#FFFFFF;}
	.st8{font-family:'RobotoSlab-Bold';}
	.st9{font-size:33px;}
	.st10{fill:#EFB900;}
	.st11{font-size:80px;}
	.st12{font-family:'PTSans-Regular';}
	.st13{font-size:30px;}
	.st14{fill:#FFCC00;}
	.st15{opacity:0.4;fill:#86C2EB;}
</style>
<g id="Ebene_1">
	<g>
		<defs>
			<path id="SVGID_1_" d="M1905.5,539.5H15.5c-8.3,0-15-6.7-15-15v-510c0-8.3,6.7-15,15-15h1890c8.3,0,15,6.7,15,15v510
				C1920.5,532.8,1913.8,539.5,1905.5,539.5z"/>
		</defs>
		<clipPath id="SVGID_2_">
			<use xlink:href="#SVGID_1_"  style="overflow:visible;"/>
		</clipPath>
		<g id="anonymous-2821433_x5F_1280.psd_1_" class="st0">
			<defs>
				<rect id="SVGID_3_" x="-42" y="-263" width="1978" height="1236"/>
			</defs>
			<clipPath id="SVGID_4_">
				<use xlink:href="#SVGID_3_"  style="overflow:visible;"/>
			</clipPath>
			<g style="clip-path:url(#SVGID_4_);">
				
					<image style="overflow:visible;" width="2258" height="1411" id="Ebene_1_1_" xlink:href="CD49137E.png"  transform="matrix(0.876 0 0 0.876 -42 -263)">
				</image>
			</g>
			<defs>
				<filter id="Adobe_OpacityMaskFilter" filterUnits="userSpaceOnUse" x="-42" y="-263" width="1978" height="1236">
					<feColorMatrix  type="matrix" values="1 0 0 0 0  0 1 0 0 0  0 0 1 0 0  0 0 0 1 0"/>
				</filter>
			</defs>
			<mask maskUnits="userSpaceOnUse" x="-42" y="-263" width="1978" height="1236" id="Ebene_3_1_">
				<g id="Ebene_3Deckkraftmaske_2_" class="st1">
					<g style="clip-path:url(#SVGID_4_);">
						
							<image style="overflow:visible;" width="2258" height="1411" id="Ebene_3Deckkraftmaske_3_" xlink:href="CD49137E.jpg"  transform="matrix(0.876 0 0 0.876 -42 -263)">
						</image>
					</g>
				</g>
			</mask>
			<g style="opacity:0.5804;clip-path:url(#SVGID_4_);mask:url(#Ebene_3_1_);">
				
					<image style="overflow:visible;" width="2258" height="1411" id="Ebene_3" xlink:href="CD49137B.png"  transform="matrix(0.876 0 0 0.876 -42 -263)">
				</image>
			</g>
			<defs>
				<filter id="Adobe_OpacityMaskFilter_1_" filterUnits="userSpaceOnUse" x="-42" y="-263" width="1978" height="1236">
					<feColorMatrix  type="matrix" values="1 0 0 0 0  0 1 0 0 0  0 0 1 0 0  0 0 0 1 0"/>
				</filter>
			</defs>
			<mask maskUnits="userSpaceOnUse" x="-42" y="-263" width="1978" height="1236" id="Ebene_5_1_">
				<g id="Ebene_5Deckkraftmaske_2_" class="st2">
					<g style="clip-path:url(#SVGID_4_);">
						
							<image style="overflow:visible;" width="2258" height="1411" id="Ebene_5Deckkraftmaske_3_" xlink:href="CD49137A.jpg"  transform="matrix(0.876 0 0 0.876 -42 -263)">
						</image>
					</g>
				</g>
			</mask>
			<g style="opacity:0.3804;clip-path:url(#SVGID_4_);mask:url(#Ebene_5_1_);">
				
					<image style="overflow:visible;" width="2258" height="1411" id="Ebene_5" xlink:href="CD491386.png"  transform="matrix(0.876 0 0 0.876 -42 -263)">
				</image>
			</g>
		</g>
	</g>
</g>
<g id="schrift">
	<g id="Scone_logo_white_1_">
		<g>
			<defs>
				<rect id="SVGID_5_" x="970" y="88" width="161.3" height="31.6"/>
			</defs>
			<clipPath id="SVGID_6_">
				<use xlink:href="#SVGID_5_"  style="overflow:visible;"/>
			</clipPath>
			<g class="st3">
				<defs>
					<rect id="SVGID_7_" x="970" y="88" width="161.3" height="31.6"/>
				</defs>
				<clipPath id="SVGID_8_">
					<use xlink:href="#SVGID_7_"  style="overflow:visible;"/>
				</clipPath>
				<path class="st4" d="M991.4,96H988c-0.7,0-1.3,0.6-1.3,1.3v3.4c0,0.7,0.6,1.3,1.3,1.3h3.4c0.7,0,1.3-0.6,1.3-1.3v-3.4
					C992.7,96.6,992.1,96,991.4,96 M979.6,102h3.4c0.7,0,1.3-0.6,1.3-1.3v-3.4c0-0.7-0.6-1.3-1.3-1.3h-3.4c-0.7,0-1.3,0.6-1.3,1.3
					v3.4C978.3,101.5,978.9,102,979.6,102 M976,100.7v-3.4c0-0.7-0.6-1.3-1.3-1.3h-3.4c-0.7,0-1.3,0.6-1.3,1.3v3.4
					c0,0.7,0.6,1.3,1.3,1.3h3.4C975.4,102,976,101.5,976,100.7 M991.6,104.5c-0.5,0-1,0.5-1,1v4c0,0.5,0.5,1,1,1s1-0.5,1-1v-4
					C992.7,104.9,992.2,104.5,991.6,104.5 M982.3,105.8v3.4c0,0.7,0.6,1.3,1.3,1.3h3.4c0.7,0,1.3-0.6,1.3-1.3v-3.4
					c0-0.7-0.6-1.3-1.3-1.3h-3.4C982.9,104.5,982.3,105,982.3,105.8 M979.9,109.2v-3.4c0-0.7-0.6-1.3-1.3-1.3h-3.4
					c-0.7,0-1.3,0.6-1.3,1.3v3.4c0,0.7,0.6,1.3,1.3,1.3h3.4C979.4,110.5,979.9,109.9,979.9,109.2 M991.4,112.9H988
					c-0.7,0-1.3,0.6-1.3,1.3v3.4c0,0.7,0.6,1.3,1.3,1.3h3.4c0.7,0,1.3-0.6,1.3-1.3v-3.4C992.7,113.5,992.1,112.9,991.4,112.9
					 M982.6,112.9h-3.4c-0.7,0-1.3,0.6-1.3,1.3v3.4c0,0.7,0.6,1.3,1.3,1.3h3.4c0.7,0,1.3-0.6,1.3-1.3v-3.4
					C983.9,113.5,983.3,112.9,982.6,112.9"/>
				<path class="st4" d="M995.5,94.6c0.5,0.4,2,1.6,5.3,1.6c0.1,0,0.1,0.1,0.1,0.3v9.3c0,3.6-4.4,5.8-5.4,6.4
					c-0.1,0.1-0.1-0.1-0.1-0.1l0.1-17.4C995.3,94.7,995.4,94.6,995.5,94.6"/>
				<path class="st4" d="M985.3,94.2c7.1-0.3,8.3-2.7,8.3-2.7c0.1-0.1,0.2-0.2,0.3-0.2c0.1,0,0.3,0,0.3,0.1c0,0,1.1,2.7,8.3,2.7
					c0.2,0,0.3,0.1,0.3,0.3v12.2c0,3.9-7.4,8.3-7.5,8.4c-0.1,0.1-0.3,0.2-0.3,0.3v3.1c0,0.1,0.5,0.2,0.6,0.1
					c2.7-1.5,10.4-5.7,10.4-10.9V91.9c0-0.3-0.5-0.5-0.7-0.5c-9.1,0-10.8-3.3-10.8-3.3c-0.1-0.2-0.4-0.1-0.6-0.1s-0.3-0.1-0.4,0.1
					c0,0.1-1.5,3.4-10.5,3.4c-0.3,0-0.4,0.1-0.4,0.4v1.9c0,0-0.1,0.5,0.3,0.5C983.1,94.3,985.3,94.2,985.3,94.2"/>
				<path class="st5" d="M1012.7,114.1l3.6-1.4c0.8,1.7,2.5,2.7,4.7,2.7c1.1,0,2.1-0.2,2.8-0.6c0.8-0.5,1.2-1.2,1.2-1.9
					c0-1.9-2.7-3.1-4.6-3.9l-0.1-0.1c-1.4-0.6-3-1.3-4.2-2.3c-1.4-1.2-2.1-2.6-2.1-4.3c0-1.8,0.8-3.4,2.1-4.5
					c1.4-1.2,3.3-1.8,5.4-1.8c3.2,0,5.8,1.4,7.1,3.9l-3.8,1.4c-0.3-0.6-0.7-1-1.3-1.4c-0.6-0.3-1.3-0.5-2.1-0.5
					c-2.1,0-3.5,1.1-3.5,2.6c0,0.8,0.5,1.6,1.4,2.3c0.9,0.6,2.1,1.2,3.2,1.7l0.5,0.2c2.8,1.2,6.2,2.7,6.2,6.4c0,1.9-0.8,3.5-2.5,4.6
					c-1.5,1.1-3.6,1.7-5.9,1.7C1017.2,119,1014,117.2,1012.7,114.1"/>
				<path class="st5" d="M1045,119c-1.6,0-3.1-0.3-4.5-0.9c-1.4-0.6-2.6-1.4-3.6-2.5c-1.1-1-1.9-2.3-2.5-3.6
					c-0.6-1.4-0.9-2.9-0.9-4.5s0.3-3.1,0.9-4.5c0.6-1.4,1.4-2.6,2.5-3.6c1-1.1,2.3-1.9,3.6-2.5c1.4-0.6,2.9-0.9,4.5-0.9
					c1.8,0,3.6,0.4,5.2,1.2c1.6,0.8,2.9,1.9,4,3.3l-3.1,2.3c-0.7-0.9-1.6-1.7-2.7-2.2c-1.1-0.5-2.3-0.8-3.5-0.8
					c-2.1,0-4,0.8-5.5,2.3c-1.5,1.4-2.3,3.4-2.3,5.5c0,2.1,0.8,4,2.3,5.5c1.4,1.5,3.4,2.3,5.5,2.3c1.4,0,2.7-0.4,3.9-1.1
					c1.2-0.7,2.1-1.7,2.8-2.9l3.3,1.9c-1,1.8-2.4,3.2-4.2,4.2C1049.1,118.5,1047,119,1045,119"/>
				<path class="st5" d="M1070.1,119.1c-1.6,0-3.1-0.3-4.5-0.9c-1.4-0.6-2.6-1.4-3.6-2.5c-1-1-1.9-2.3-2.5-3.6
					c-0.6-1.4-0.9-2.9-0.9-4.5s0.3-3.1,0.9-4.5c0.6-1.4,1.4-2.6,2.5-3.6c1.1-1.1,2.3-1.9,3.6-2.5c1.4-0.6,2.9-0.9,4.5-0.9
					c1.6,0,3.1,0.3,4.5,0.9c1.4,0.6,2.6,1.4,3.6,2.5c1,1,1.9,2.3,2.5,3.6c0.6,1.4,0.9,2.9,0.9,4.5s-0.3,3.1-0.9,4.5
					c-0.6,1.4-1.4,2.6-2.5,3.6c-1.1,1.1-2.3,1.9-3.6,2.5C1073.2,118.7,1071.7,119.1,1070.1,119.1 M1070.1,99.8c-2.1,0-4,0.8-5.5,2.3
					c-1.4,1.4-2.3,3.4-2.3,5.5c0,2.1,0.8,4,2.3,5.5c1.4,1.5,3.4,2.3,5.5,2.3c2,0,4-0.8,5.5-2.3c1.4-1.4,2.3-3.4,2.3-5.5
					c0-2.1-0.8-4-2.3-5.5C1074.1,100.6,1072.2,99.8,1070.1,99.8"/>
				<polygon class="st5" points="1107.7,96.2 1107.7,119.6 1091.6,104.8 1091.6,118.7 1087.5,118.7 1087.5,95.4 1103.6,110.2 
					1103.6,96.2 				"/>
				<polygon class="st5" points="1118.7,99.6 1118.7,105.6 1129.9,105.6 1129.9,109.1 1118.7,109.1 1118.7,115.2 1131.3,115.2 
					1131.3,118.7 1114.6,118.7 1114.6,96.2 1131.3,96.2 1131.3,99.7 1118.7,99.7 				"/>
			</g>
		</g>
	</g>
	<rect x="658.6" y="92.2" class="st6" width="291.1" height="38.8"/>
	<text transform="matrix(1 0 0 1 766.7681 117.3071)" class="st7 st8 st9">Welcome to </text>
	<rect x="-8" y="195.3" class="st6" width="1928" height="74.7"/>
	<text transform="matrix(1 0 0 1 386.5078 256.2354)" class="st10 st8 st11">Onboarding Step-by-Step</text>
	<rect x="0" y="292.6" class="st6" width="1921" height="107.2"/>
	<text transform="matrix(1 0 0 1 388.6035 313.6172)"><tspan x="0" y="0" class="st7 st12 st13">Get started by downloading Scone &amp; learn how you can run programs in secure enclaves.</tspan><tspan x="1143.8" y="0" class="st14 st12 st13"> </tspan></text>
	<path class="st15" d="M1179,388H737c-2.8,0-5,2.2-5,5v76c0,2.8,2.2,5,5,5h442c2.8,0,5-2.2,5-5v-76C1184,390.2,1181.8,388,1179,388z
		 M940,448v-33l41,16L940,448z"/>
</g>
</svg>
