<svg xmlns="http://www.w3.org/2000/svg" xmlns:xlink="http://www.w3.org/1999/xlink" viewBox="0 0 610 225"><defs><style>.cls-1,.cls-10,.cls-2,.cls-25,.cls-6,.cls-9{fill:none;}.cls-2{stroke:#c30;}.cls-2,.cls-25,.cls-3,.cls-9{stroke-miterlimit:10;}.cls-10,.cls-11,.cls-2,.cls-25,.cls-3,.cls-6,.cls-9{stroke-width:2px;}.cls-2,.cls-25{stroke-dasharray:2 2;}.cls-11,.cls-16,.cls-3{fill:#fff;}.cls-10,.cls-11,.cls-25,.cls-3,.cls-9{stroke:#fc0;}.cls-26,.cls-4{font-size:12px;}.cls-4{fill:#306;}.cls-16,.cls-21,.cls-26,.cls-4{font-family:RobotoSlab-Bold, Roboto Slab;font-weight:700;}.cls-5{letter-spacing:0em;}.cls-6{stroke:#f63;}.cls-10,.cls-11,.cls-6{stroke-linecap:round;stroke-linejoin:round;}.cls-7{fill:#f63;}.cls-8{fill:url(#Unbenannter_Verlauf_12);}.cls-12,.cls-21,.cls-26{fill:#fc0;}.cls-13{clip-path:url(#clip-path);}.cls-14{fill:#ffd138;}.cls-15{fill:#fdfeff;}.cls-16{font-size:12.24px;}.cls-17{letter-spacing:0em;}.cls-18{letter-spacing:-0.01em;}.cls-19{letter-spacing:-0.01em;}.cls-20{fill:url(#Unbenannter_Verlauf_12-2);}.cls-21{font-size:11px;}.cls-22{letter-spacing:-0.01em;}.cls-23{letter-spacing:-0.04em;}.cls-24{clip-path:url(#clip-path-3);}.cls-27{letter-spacing:-0.05em;}.cls-28{letter-spacing:-0.02em;}</style><linearGradient id="Unbenannter_Verlauf_12" x1="61.77" y1="131.04" x2="233.56" y2="131.04" gradientUnits="userSpaceOnUse"><stop offset="0" stop-color="#906"/><stop offset="0.19" stop-color="#780066"/><stop offset="0.4" stop-color="#5a0066"/><stop offset="0.61" stop-color="#406"/><stop offset="0.81" stop-color="#370066"/><stop offset="1" stop-color="#306"/></linearGradient><clipPath id="clip-path"><rect class="cls-1" x="129.5" y="174.49" width="36.34" height="7.12"/></clipPath><linearGradient id="Unbenannter_Verlauf_12-2" x1="378.14" y1="131.04" x2="549.93" y2="131.04" xlink:href="#Unbenannter_Verlauf_12"/><clipPath id="clip-path-3"><rect class="cls-1" x="445.87" y="174.49" width="36.34" height="7.12"/></clipPath></defs><title>p2pattestation</title><g id="Ebene_2" data-name="Ebene 2"><rect class="cls-2" x="346.21" y="31.87" width="232.85" height="188.09" rx="5"/><rect class="cls-2" x="29.84" y="31.87" width="232.85" height="188.09" rx="5"/><polyline class="cls-3" points="378.14 110.5 229.72 110.5 229.72 136.2 378.14 136.2"/><text class="cls-4" transform="translate(68.14 22.97)">Untrusted Host / VM/ Contai<tspan class="cls-5" x="162.09" y="0">n</tspan><tspan x="169.65" y="0">er</tspan></text><path class="cls-6" d="M53.94,21.79H49.7c-.58,0-.81-.22-.81-.8V14.53c0-.58.23-.81.81-.81h8.45c.55,0,.77.23.77.77V21c0,.55-.22.77-.77.77C56.74,21.83,55.32,21.79,53.94,21.79Z"/><path class="cls-6" d="M52.57,5.54a4.52,4.52,0,0,1,4.85.71,4.21,4.21,0,0,1-.23,6.44c-.31.25-.65.44-1,.7"/><path class="cls-7" d="M53.23,19h0v.87c0,.16.07.22.26.22h.84c.22,0,.29-.06.29-.26v-1.6a.38.38,0,0,1,.22-.39,1.21,1.21,0,0,0,.61-1.45,1.54,1.54,0,0,0-1.45-1,1.63,1.63,0,0,0-1.6.87,1.19,1.19,0,0,0,.54,1.51.42.42,0,0,1,.26.48A5.86,5.86,0,0,1,53.23,19Z"/><rect class="cls-8" x="61.77" y="70.47" width="171.79" height="121.13" rx="5"/><rect class="cls-9" x="61.77" y="70.47" width="171.79" height="121.13" rx="5"/><rect class="cls-10" x="79.51" y="139.61" width="135.69" height="27.21" rx="5"/><path class="cls-11" d="M138.36,58.7a11.73,11.73,0,1,1-3.52,8.38,11.54,11.54,0,0,1,2.4-7.1"/><path class="cls-10" d="M146.6,72.73h-4.24c-.58,0-.8-.23-.8-.81V65.46c0-.58.22-.8.8-.8h8.46c.54,0,.77.22.77.77v6.49c0,.55-.23.77-.77.77C149.4,72.76,148,72.73,146.6,72.73Z"/><path class="cls-10" d="M142.25,64.09A4.48,4.48,0,0,1,144.89,60a4.2,4.2,0,0,1,5.77,2.85c.1.39.14.77.24,1.19"/><path class="cls-12" d="M145.9,70h0v.87c0,.16.06.23.26.23H147c.23,0,.29-.07.29-.26V69.19a.37.37,0,0,1,.23-.39,1.21,1.21,0,0,0,.61-1.44,1.56,1.56,0,0,0-1.45-1,1.65,1.65,0,0,0-1.61.87,1.2,1.2,0,0,0,.55,1.51.43.43,0,0,1,.26.48A6,6,0,0,1,145.9,70Z"/><g id="Scone_logo_white" data-name="Scone logo white"><g class="cls-13"><g class="cls-13"><path class="cls-14" d="M134.31,176.3h-.76a.29.29,0,0,0-.29.29v.77a.3.3,0,0,0,.29.3h.76a.3.3,0,0,0,.29-.3v-.77a.29.29,0,0,0-.29-.29m-2.65,1.36h.76a.31.31,0,0,0,.3-.3v-.77a.3.3,0,0,0-.3-.29h-.76a.29.29,0,0,0-.29.29v.77a.3.3,0,0,0,.29.3m-.82-.3v-.77a.29.29,0,0,0-.29-.29h-.76a.29.29,0,0,0-.29.29v.77a.3.3,0,0,0,.29.3h.76a.3.3,0,0,0,.29-.3m3.53.84a.22.22,0,0,0-.22.22v.9a.22.22,0,0,0,.44,0v-.9a.21.21,0,0,0-.22-.22m-2.09.29v.78a.29.29,0,0,0,.29.29h.76a.29.29,0,0,0,.29-.29v-.78a.29.29,0,0,0-.29-.29h-.76a.29.29,0,0,0-.29.29m-.54.78v-.78a.3.3,0,0,0-.3-.29h-.76a.29.29,0,0,0-.29.29v.78a.29.29,0,0,0,.29.29h.76a.3.3,0,0,0,.3-.29m2.57.83h-.76a.29.29,0,0,0-.29.29v.78a.29.29,0,0,0,.29.29h.76a.29.29,0,0,0,.29-.29v-.78a.29.29,0,0,0-.29-.29m-2,0h-.77a.29.29,0,0,0-.29.29v.78a.29.29,0,0,0,.29.29h.77a.29.29,0,0,0,.29-.29v-.78a.29.29,0,0,0-.29-.29"/><path class="cls-14" d="M135.23,176a1.77,1.77,0,0,0,1.19.36s0,0,0,.06v2.1c0,.8-1,1.3-1.21,1.43a0,0,0,0,1,0,0V176s0,0,0,0"/><path class="cls-14" d="M132.94,175.89c1.61-.06,1.87-.62,1.87-.62a.07.07,0,0,1,.07,0s.06,0,.07,0,.25.6,1.86.6c.05,0,.06,0,.06.07v2.75c0,.88-1.67,1.87-1.7,1.89s0,0,0,.06v.69s.1,0,.14,0c.62-.33,2.34-1.28,2.34-2.45v-3.52c0-.06-.1-.1-.16-.1-2.05,0-2.43-.75-2.43-.75s-.08,0-.13,0-.07,0-.09,0-.33.78-2.37.78c-.07,0-.08,0-.08.08v.44s0,.1,0,.1l.55,0"/><path class="cls-15" d="M139.13,180.38l.82-.31a1.12,1.12,0,0,0,1.06.62,1.2,1.2,0,0,0,.63-.15.49.49,0,0,0,.27-.44c0-.44-.6-.7-1-.88h0a3.43,3.43,0,0,1-1-.53,1.16,1.16,0,0,1-.47-1,1.26,1.26,0,0,1,.48-1,1.85,1.85,0,0,1,1.22-.41,1.77,1.77,0,0,1,1.61.87l-.85.33a.6.6,0,0,0-.3-.31,1.11,1.11,0,0,0-.46-.1c-.47,0-.79.24-.79.58a.66.66,0,0,0,.32.53,5,5,0,0,0,.73.38l.1,0c.63.27,1.41.6,1.41,1.45a1.21,1.21,0,0,1-.56,1,2.23,2.23,0,0,1-1.33.38,1.92,1.92,0,0,1-1.87-1.11"/><path class="cls-15" d="M146.38,181.48a2.73,2.73,0,0,1-1-.21A2.64,2.64,0,0,1,144,179.9a2.73,2.73,0,0,1-.21-1,2.64,2.64,0,0,1,.21-1,2.31,2.31,0,0,1,.56-.82,2.36,2.36,0,0,1,.81-.56,2.71,2.71,0,0,1,1-.2,2.55,2.55,0,0,1,1.18.27,2.68,2.68,0,0,1,.89.75l-.69.51a1.75,1.75,0,0,0-1.39-.69,1.76,1.76,0,0,0-1.74,1.75,1.73,1.73,0,0,0,2.62,1.49,1.79,1.79,0,0,0,.63-.65l.74.43a2.57,2.57,0,0,1-.93,1,2.38,2.38,0,0,1-1.31.37"/><path class="cls-15" d="M152.05,181.49a2.67,2.67,0,0,1-1-.2,2.68,2.68,0,0,1-1.38-1.38,2.67,2.67,0,0,1-.2-1,2.5,2.5,0,0,1,.2-1,2.55,2.55,0,0,1,.56-.82,2.92,2.92,0,0,1,.82-.56,2.65,2.65,0,0,1,2,0,2.55,2.55,0,0,1,.82.56,2.69,2.69,0,0,1,.55.82,2.53,2.53,0,0,1,0,2,2.57,2.57,0,0,1-.55.82,2.92,2.92,0,0,1-.82.56,2.67,2.67,0,0,1-1,.2m0-4.35a1.67,1.67,0,0,0-1.23.52,1.74,1.74,0,0,0-.51,1.23,1.69,1.69,0,0,0,.51,1.23,1.74,1.74,0,0,0,2.46,0,1.78,1.78,0,0,0,.51-1.23,1.76,1.76,0,0,0-.51-1.23,1.71,1.71,0,0,0-1.23-.52"/><polygon class="cls-15" points="160.52 176.34 160.52 181.61 156.89 178.27 156.89 181.4 155.97 181.4 155.97 176.15 159.6 179.5 159.6 176.34 160.52 176.34"/><polygon class="cls-15" points="163 177.12 163 178.46 165.53 178.46 165.53 179.25 163 179.25 163 180.61 165.83 180.61 165.83 181.4 162.07 181.4 162.07 176.34 165.83 176.34 165.83 177.13 163 177.13 163 177.12"/></g></g></g><text class="cls-16" transform="translate(96.13 102.94)">Intel SGX E<tspan class="cls-17" x="64.96" y="0">n</tspan><tspan x="72.67" y="0">cl</tspan><tspan class="cls-18" x="83.02" y="0">a</tspan><tspan class="cls-19" x="89.66" y="0">v</tspan><tspan x="96.56" y="0">e</tspan></text><text class="cls-4" transform="translate(384.51 22.97)">Untrusted Host / VM/ Contai<tspan class="cls-5" x="162.09" y="0">n</tspan><tspan x="169.65" y="0">er</tspan></text><path class="cls-6" d="M370.31,21.79h-4.24c-.58,0-.81-.22-.81-.8V14.53c0-.58.23-.81.81-.81h8.45c.55,0,.77.23.77.77V21c0,.55-.22.77-.77.77C373.11,21.83,371.69,21.79,370.31,21.79Z"/><path class="cls-6" d="M368.94,5.54a4.52,4.52,0,0,1,4.85.71,4.21,4.21,0,0,1-.23,6.44c-.31.25-.65.44-1,.7"/><path class="cls-7" d="M369.6,19h0v.87c0,.16.07.22.26.22h.84c.22,0,.29-.06.29-.26v-1.6a.38.38,0,0,1,.22-.39,1.21,1.21,0,0,0,.61-1.45,1.54,1.54,0,0,0-1.45-1,1.63,1.63,0,0,0-1.6.87,1.19,1.19,0,0,0,.54,1.51.42.42,0,0,1,.26.48A5.86,5.86,0,0,1,369.6,19Z"/><rect class="cls-20" x="378.14" y="70.47" width="171.79" height="121.13" rx="5"/><rect class="cls-9" x="378.14" y="70.47" width="171.79" height="121.13" rx="5"/><rect class="cls-10" x="396.42" y="139.36" width="136.62" height="27.21" rx="5"/><text class="cls-21" transform="translate(434.54 156.52)">Ap<tspan class="cls-22" x="14.56" y="0">p</tspan><tspan x="21.11" y="0">lic</tspan><tspan class="cls-23" x="33.96" y="0">a</tspan><tspan x="39.58" y="0">tion</tspan></text><text class="cls-21" transform="translate(116.39 156.78)">Ap<tspan class="cls-22" x="14.56" y="0">p</tspan><tspan x="21.11" y="0">lic</tspan><tspan class="cls-23" x="33.96" y="0">a</tspan><tspan x="39.57" y="0">tion</tspan></text><path class="cls-11" d="M454.73,58.7a11.73,11.73,0,1,1-3.52,8.38,11.54,11.54,0,0,1,2.4-7.1"/><path class="cls-10" d="M463,72.73h-4.24c-.58,0-.8-.23-.8-.81V65.46c0-.58.22-.8.8-.8h8.46c.54,0,.77.22.77.77v6.49c0,.55-.23.77-.77.77C465.77,72.76,464.36,72.73,463,72.73Z"/><path class="cls-10" d="M458.62,64.09A4.48,4.48,0,0,1,461.26,60,4.2,4.2,0,0,1,467,62.81c.1.39.14.77.24,1.19"/><path class="cls-12" d="M462.27,70h0v.87c0,.16.06.23.26.23h.83c.23,0,.29-.07.29-.26V69.19a.37.37,0,0,1,.23-.39,1.21,1.21,0,0,0,.61-1.44,1.56,1.56,0,0,0-1.45-1,1.65,1.65,0,0,0-1.61.87,1.2,1.2,0,0,0,.55,1.51.43.43,0,0,1,.26.48A6,6,0,0,1,462.27,70Z"/><g id="Scone_logo_white-2" data-name="Scone logo white"><g class="cls-24"><g class="cls-24"><path class="cls-14" d="M450.68,176.3h-.76a.29.29,0,0,0-.29.29v.77a.3.3,0,0,0,.29.3h.76a.3.3,0,0,0,.29-.3v-.77a.29.29,0,0,0-.29-.29M448,177.66h.76a.31.31,0,0,0,.3-.3v-.77a.3.3,0,0,0-.3-.29H448a.29.29,0,0,0-.29.29v.77a.3.3,0,0,0,.29.3m-.82-.3v-.77a.29.29,0,0,0-.29-.29h-.76a.29.29,0,0,0-.29.29v.77a.3.3,0,0,0,.29.3h.76a.3.3,0,0,0,.29-.3m3.53.84a.22.22,0,0,0-.22.22v.9a.22.22,0,1,0,.44,0v-.9a.21.21,0,0,0-.22-.22m-2.09.29v.78a.29.29,0,0,0,.29.29h.76a.29.29,0,0,0,.29-.29v-.78a.29.29,0,0,0-.29-.29h-.76a.29.29,0,0,0-.29.29m-.54.78v-.78a.3.3,0,0,0-.3-.29h-.76a.29.29,0,0,0-.29.29v.78a.29.29,0,0,0,.29.29h.76a.3.3,0,0,0,.3-.29m2.57.83h-.76a.29.29,0,0,0-.29.29v.78a.29.29,0,0,0,.29.29h.76a.29.29,0,0,0,.29-.29v-.78a.29.29,0,0,0-.29-.29m-2,0h-.77a.29.29,0,0,0-.29.29v.78a.29.29,0,0,0,.29.29h.77a.29.29,0,0,0,.29-.29v-.78a.29.29,0,0,0-.29-.29"/><path class="cls-14" d="M451.6,176a1.77,1.77,0,0,0,1.19.36s0,0,0,.06v2.1c0,.8-1,1.3-1.21,1.43a0,0,0,0,1,0,0V176s0,0,0,0"/><path class="cls-14" d="M449.31,175.89c1.61-.06,1.87-.62,1.87-.62a.07.07,0,0,1,.07,0s.06,0,.07,0,.25.6,1.86.6c.05,0,.06,0,.06.07v2.75c0,.88-1.67,1.87-1.7,1.89s-.05,0-.05.06v.69s.1,0,.14,0c.62-.33,2.34-1.28,2.34-2.45v-3.52c0-.06-.1-.1-.16-.1-2.05,0-2.43-.75-2.43-.75s-.08,0-.13,0-.07,0-.09,0-.33.78-2.37.78c-.07,0-.08,0-.08.08v.44s0,.1.05.1l.55,0"/><path class="cls-15" d="M455.5,180.38l.82-.31a1.12,1.12,0,0,0,1.06.62,1.2,1.2,0,0,0,.63-.15.49.49,0,0,0,.27-.44c0-.44-.6-.7-1-.88h0a3.43,3.43,0,0,1-.95-.53,1.16,1.16,0,0,1-.47-1,1.26,1.26,0,0,1,.48-1,1.85,1.85,0,0,1,1.22-.41,1.77,1.77,0,0,1,1.61.87l-.85.33a.6.6,0,0,0-.3-.31,1.11,1.11,0,0,0-.46-.1c-.47,0-.79.24-.79.58a.66.66,0,0,0,.32.53,5,5,0,0,0,.73.38l.1,0c.63.27,1.41.6,1.41,1.45a1.21,1.21,0,0,1-.56,1,2.23,2.23,0,0,1-1.33.38,1.92,1.92,0,0,1-1.87-1.11"/><path class="cls-15" d="M462.75,181.48a2.73,2.73,0,0,1-1-.21,2.64,2.64,0,0,1-1.37-1.37,2.73,2.73,0,0,1-.21-1,2.64,2.64,0,0,1,.21-1,2.31,2.31,0,0,1,.56-.82,2.36,2.36,0,0,1,.81-.56,2.71,2.71,0,0,1,1-.2,2.55,2.55,0,0,1,1.18.27,2.68,2.68,0,0,1,.89.75l-.69.51a1.75,1.75,0,0,0-1.39-.69,1.76,1.76,0,0,0-1.74,1.75,1.73,1.73,0,0,0,2.62,1.49,1.79,1.79,0,0,0,.63-.65l.74.43a2.57,2.57,0,0,1-.93,1,2.38,2.38,0,0,1-1.31.37"/><path class="cls-15" d="M468.42,181.49a2.67,2.67,0,0,1-1-.2,2.68,2.68,0,0,1-1.38-1.38,2.67,2.67,0,0,1-.2-1,2.5,2.5,0,0,1,.2-1,2.55,2.55,0,0,1,.56-.82,2.92,2.92,0,0,1,.82-.56,2.65,2.65,0,0,1,2,0,2.55,2.55,0,0,1,.82.56,2.69,2.69,0,0,1,.55.82,2.53,2.53,0,0,1,0,2,2.57,2.57,0,0,1-.55.82,2.92,2.92,0,0,1-.82.56,2.67,2.67,0,0,1-1,.2m0-4.35a1.67,1.67,0,0,0-1.23.52,1.74,1.74,0,0,0-.51,1.23,1.69,1.69,0,0,0,.51,1.23,1.74,1.74,0,0,0,2.46,0,1.78,1.78,0,0,0,.51-1.23,1.76,1.76,0,0,0-.51-1.23,1.71,1.71,0,0,0-1.23-.52"/><polygon class="cls-15" points="476.89 176.34 476.89 181.61 473.26 178.27 473.26 181.4 472.34 181.4 472.34 176.15 475.97 179.5 475.97 176.34 476.89 176.34"/><polygon class="cls-15" points="479.37 177.12 479.37 178.46 481.9 178.46 481.9 179.25 479.37 179.25 479.37 180.61 482.2 180.61 482.2 181.4 478.44 181.4 478.44 176.34 482.2 176.34 482.2 177.13 479.37 177.13 479.37 177.12"/></g></g></g><text class="cls-16" transform="translate(412.5 102.94)">Intel SGX E<tspan class="cls-17" x="64.96" y="0">n</tspan><tspan x="72.67" y="0">cl</tspan><tspan class="cls-18" x="83.02" y="0">a</tspan><tspan class="cls-19" x="89.66" y="0">v</tspan><tspan x="96.56" y="0">e</tspan></text><line class="cls-25" x1="328.62" y1="122.74" x2="282.81" y2="122.74"/><polygon class="cls-12" points="323.98 117.01 323.03 118.04 328.08 122.74 323.03 127.44 323.98 128.46 330.14 122.74 323.98 117.01"/><polygon class="cls-12" points="287.45 117.01 288.4 118.04 283.35 122.74 288.4 127.44 287.45 128.46 281.29 122.74 287.45 117.01"/><text class="cls-26" transform="translate(289.92 103.18) scale(1.01 1)"><tspan class="cls-27">A</tspan><tspan x="7.97" y="0">uth</tspan></text><text class="cls-26" transform="translate(191.38 127.17) scale(1.01 1)">CE<tspan class="cls-28" x="15.44" y="0">R</tspan><tspan x="23.4" y="0">T</tspan></text><path class="cls-9" d="M304.59,111.1c3.76,0,6.82,5.39,6.82,12s-3.06,12-6.82,12"/><text class="cls-26" transform="translate(292.54 152.16) scale(1.01 1)">TLS</text><circle class="cls-12" cx="233.56" cy="123.22" r="3.83"/><text class="cls-26" transform="translate(388.71 127.17) scale(1.01 1)">CE<tspan class="cls-28" x="15.44" y="0">R</tspan><tspan x="23.4" y="0">T</tspan></text><circle class="cls-12" cx="379.13" cy="123.22" r="3.83"/></g></svg>