<svg xmlns="http://www.w3.org/2000/svg" xmlns:xlink="http://www.w3.org/1999/xlink" viewBox="0 0 583.46 310.44"><defs><style>.cls-1{fill:#fc9;opacity:0.2;}.cls-13,.cls-2,.cls-21,.cls-27,.cls-28,.cls-5{fill:none;}.cls-2,.cls-24{stroke:#c30;}.cls-13,.cls-16,.cls-2,.cls-21,.cls-24{stroke-miterlimit:10;}.cls-13,.cls-16,.cls-2,.cls-21,.cls-24,.cls-5{stroke-width:2px;}.cls-2{stroke-dasharray:2 2;}.cls-3{font-size:15px;}.cls-11,.cls-17,.cls-18,.cls-26,.cls-29,.cls-3,.cls-7{fill:#306;}.cls-11,.cls-14,.cls-17,.cls-3,.cls-7{font-family:RobotoSlab-Bold, Roboto Slab;}.cls-11,.cls-14,.cls-17,.cls-19,.cls-3,.cls-7{font-weight:700;}.cls-4{letter-spacing:0em;}.cls-5{stroke:#f63;}.cls-28,.cls-5{stroke-linecap:round;}.cls-27,.cls-28,.cls-5{stroke-linejoin:round;}.cls-6{fill:#f63;}.cls-29,.cls-7{font-size:13px;}.cls-8{letter-spacing:-0.06em;}.cls-9{letter-spacing:-0.01em;}.cls-10,.cls-18,.cls-29{font-family:RobotoSlab-Regular, Roboto Slab;}.cls-10{font-weight:400;}.cls-11,.cls-18{font-size:12px;}.cls-12{fill:url(#Unbenannter_Verlauf_12);}.cls-13,.cls-21{stroke:#fc0;}.cls-14,.cls-17,.cls-19{font-size:14px;}.cls-14,.cls-19,.cls-22{fill:#fc0;}.cls-15{letter-spacing:-0.01em;}.cls-16,.cls-24,.cls-25{fill:#fff;}.cls-16,.cls-27,.cls-28{stroke:#306;}.cls-19{font-family:PTSans-Bold, PT Sans;}.cls-20{letter-spacing:-0.02em;}.cls-21{stroke-dasharray:1.97 1.97;}.cls-23{fill:#c30;}.cls-30{letter-spacing:-0.01em;}.cls-31{letter-spacing:-0.01em;}.cls-32{letter-spacing:0em;}</style><linearGradient id="Unbenannter_Verlauf_12" x1="64.91" y1="100.81" x2="235.35" y2="100.81" gradientUnits="userSpaceOnUse"><stop offset="0" stop-color="#906"/><stop offset="0.19" stop-color="#780066"/><stop offset="0.4" stop-color="#5a0066"/><stop offset="0.61" stop-color="#406"/><stop offset="0.81" stop-color="#370066"/><stop offset="1" stop-color="#306"/></linearGradient></defs><title>prerelease_finding_secrets</title><g id="Ebene_2" data-name="Ebene 2"><rect class="cls-1" x="38.18" y="40.68" width="510.05" height="254.4" rx="5"/><rect class="cls-2" x="38.18" y="39.11" width="510.05" height="257.54" rx="5"/><text class="cls-3" transform="translate(517.21 31.3)"><tspan class="cls-4">h</tspan><tspan x="9.46" y="0">ost</tspan></text><path class="cls-5" d="M502.5,29.84h-4.25c-.58,0-.8-.22-.8-.8V22.58c0-.58.22-.81.8-.81h8.46c.55,0,.77.23.77.78V29c0,.55-.22.77-.77.77C505.29,29.88,503.88,29.84,502.5,29.84Z"/><path class="cls-5" d="M501.12,13.59a4.54,4.54,0,0,1,4.86.71,4.2,4.2,0,0,1-.24,6.44c-.31.25-.65.44-1,.7"/><path class="cls-6" d="M501.79,27.08h0V28c0,.16.06.22.26.22h.83c.23,0,.29-.06.29-.26v-1.6a.37.37,0,0,1,.23-.39,1.21,1.21,0,0,0,.61-1.45,1.54,1.54,0,0,0-1.45-1,1.65,1.65,0,0,0-1.61.87,1.21,1.21,0,0,0,.55,1.51.42.42,0,0,1,.26.48A5.86,5.86,0,0,1,501.79,27.08Z"/><text class="cls-7" transform="translate(197.4 254.17)"><tspan class="cls-8">A</tspan><tspan x="8.59" y="0">ttac</tspan><tspan class="cls-9" x="32.28" y="0">k</tspan><tspan x="40.08" y="0">er </tspan><tspan class="cls-10"><tspan x="-12.56" y="15.6">(</tspan><tspan class="cls-9" x="-8.36" y="15.6">r</tspan><tspan x="-3.11" y="15.6">oot access)</tspan></tspan></text><text class="cls-11" transform="translate(308.91 186.29)"><tspan class="cls-4">n</tspan><tspan x="7.56" y="0">o </tspan><tspan x="-11.85" y="14.4">access</tspan></text><rect class="cls-12" x="64.91" y="63.06" width="170.44" height="75.5" rx="5"/><rect class="cls-13" x="64.91" y="63.06" width="170.44" height="75.5" rx="5"/><text class="cls-14" transform="translate(111.98 105.79)">mysec<tspan class="cls-15" x="43.35" y="0">r</tspan><tspan x="49.11" y="0">et.c</tspan></text><rect class="cls-16" x="353.65" y="64.28" width="168.42" height="74.27" rx="5"/><text class="cls-17" transform="translate(408.08 104.95)">mysec<tspan class="cls-15" x="43.35" y="0">r</tspan><tspan x="49.11" y="0">et</tspan></text><text class="cls-18" transform="translate(393.8 158.27)">Ha<tspan class="cls-15" x="15.83" y="0">r</tspan><tspan x="20.68" y="0">dwa</tspan><tspan class="cls-15" x="44.41" y="0">r</tspan><tspan x="49.26" y="0">e </tspan><tspan class="cls-4" x="58.69" y="0">m</tspan><tspan x="69.97" y="0">ode</tspan><tspan x="9.35" y="19">(p</tspan><tspan class="cls-15" x="20.49" y="19">r</tspan><tspan x="25.34" y="19">e-</tspan><tspan class="cls-15" x="36.46" y="19">r</tspan><tspan x="41.32" y="19">elease)</tspan></text><text class="cls-19" transform="translate(267.2 90.9)"><tspan class="cls-20">c</tspan><tspan x="5.82" y="0">ompile</tspan></text><line class="cls-13" x1="345.54" y1="99.76" x2="344.54" y2="99.76"/><line class="cls-21" x1="342.57" y1="99.76" x2="237.33" y2="99.76"/><line class="cls-13" x1="236.35" y1="99.76" x2="235.35" y2="99.76"/><polygon class="cls-22" points="338.91 91.58 337.55 93.04 344.77 99.76 337.55 106.47 338.91 107.94 347.7 99.76 338.91 91.58"/><line class="cls-2" x1="328.58" y1="151.15" x2="244.86" y2="203.85"/><polygon class="cls-23" points="318.62 147.76 318.24 149.72 327.93 151.56 325.39 161.09 327.33 161.6 330.42 149.99 318.62 147.76"/><circle class="cls-24" cx="342.18" cy="142.59" r="7.77"/><line class="cls-24" x1="347.67" y1="148.09" x2="336.68" y2="137.1"/><path class="cls-25" d="M212.49,237.66a1,1,0,0,1-1-1v-5.1a5.18,5.18,0,0,1,2.14-4.15,7.1,7.1,0,0,1,3.51-1.53,4.67,4.67,0,0,1,1.14-.1v-1.07a9.27,9.27,0,0,1-3.63-7.23c0-.9,0-1.26,0-1.63,0-.17,0-.33,0-.54h-.21a1,1,0,0,1-1-1v-5.56a1,1,0,0,1,.16-.54,10.39,10.39,0,0,1,6.91-8.36,10.59,10.59,0,0,1,7,0,10.08,10.08,0,0,1,3.9,2.48,10.56,10.56,0,0,1,3,5.92.94.94,0,0,1,.15.49v5.56a1,1,0,0,1-1,1h-.19v2.54a8.61,8.61,0,0,1-3.71,7v.9a4.56,4.56,0,0,1,1.13.1,7.09,7.09,0,0,1,3.55,1.56,5.13,5.13,0,0,1,2.11,4.12v5.1a1,1,0,0,1-1,1Z"/><path class="cls-26" d="M223.94,200.26a9.38,9.38,0,0,1,3.17.54,9.05,9.05,0,0,1,3.53,2.25,9.39,9.39,0,0,1,2.76,5.7h.1v5.56h-1.19v3.54a7.67,7.67,0,0,1-3.71,6.5v2.43h1a4,4,0,0,1,1,.08,6.17,6.17,0,0,1,3.1,1.35,4.17,4.17,0,0,1,1.75,3.35v5.1h-22.9v-5.1a4.19,4.19,0,0,1,1.74-3.35,6.21,6.21,0,0,1,3.11-1.35,4,4,0,0,1,1-.08h1v-2.47h.15a8.26,8.26,0,0,1-3.78-6.83c0-1.76-.07-1.53-.08-3.17h-1.19v-5.56h.1a9.5,9.5,0,0,1,9.46-8.49m0-2a11.51,11.51,0,0,0-11.36,9.62,2,2,0,0,0-.2.87v5.56a2,2,0,0,0,1.25,1.85c0,.3,0,.65,0,1.32a10.21,10.21,0,0,0,3.3,7.41,8.23,8.23,0,0,0-3.95,1.75,6.14,6.14,0,0,0-2.51,4.92v5.1a2,2,0,0,0,2,2h22.9a2,2,0,0,0,2-2v-5.1a6.14,6.14,0,0,0-2.51-4.92,8.15,8.15,0,0,0-3.74-1.71,9.55,9.55,0,0,0,3.17-7.08v-1.71a2,2,0,0,0,1.19-1.83v-5.56a2,2,0,0,0-.2-.87,11.56,11.56,0,0,0-3.25-6.25,11.07,11.07,0,0,0-4.28-2.72,11.37,11.37,0,0,0-3.83-.65Z"/><polygon class="cls-26" points="214.19 212.88 214.19 217.22 222.01 217.22 223.94 217.22 225.87 217.22 233.64 217.22 233.64 212.88 214.19 212.88"/><path class="cls-27" d="M215.57,212.9c0,1.87.08,2.7.08,4.58a8.32,8.32,0,0,0,8.29,8.18,8.08,8.08,0,0,0,8.37-7.81v-5.24"/><path class="cls-27" d="M214.42,209.72a9.53,9.53,0,0,1,12.69-8.92,9.05,9.05,0,0,1,3.53,2.25,9.36,9.36,0,0,1,2.81,6.67"/><rect class="cls-28" x="214.38" y="209.35" width="19.12" height="3.53"/><line class="cls-28" x1="222.84" y1="220.8" x2="226.31" y2="220.8"/><path class="cls-25" d="M220.41,213.74a1.39,1.39,0,0,0-.12,1.89,1.33,1.33,0,0,0,2.35-.77h0Z"/><path class="cls-25" d="M229.51,213.77l-2.1,1.32a1.48,1.48,0,0,0,.31.61,1.34,1.34,0,0,0,2.3-.94A1.36,1.36,0,0,0,229.51,213.77Z"/><text class="cls-29" transform="translate(86.34 218.81)"><tspan class="cls-9">k</tspan><tspan class="cls-30" x="7.78" y="0">ey</tspan><tspan x="21.98" y="0">dumpstack.</tspan><tspan class="cls-31" x="94.42" y="0">p</tspan><tspan class="cls-32" x="102.22" y="0">y</tspan></text></g></svg>