<svg id="Ebene_1" data-name="Ebene 1" xmlns="http://www.w3.org/2000/svg" viewBox="0 0 200 50"><defs><style>.cls-1{fill:#39f;}.cls-2{fill:#fff;}</style></defs><title>previous_link</title><rect class="cls-1" width="200" height="50" rx="5"/><path class="cls-2" d="M29.54,26.46V24.71l9.65-5.77,1.42,2.25L35,24.66l-2.27.88,2.25.77,5.75,3.42L39.31,32Z"/><path class="cls-2" d="M42.71,26.46V24.71l9.65-5.77,1.43,2.25-5.6,3.47-2.28.88,2.25.77,5.75,3.42L52.49,32Z"/><path class="cls-2" d="M62.71,16.26A23,23,0,0,1,65,16c.84-.08,1.67-.12,2.51-.12a16.52,16.52,0,0,1,2.61.22,6.34,6.34,0,0,1,2.36.85,5,5,0,0,1,1.72,1.77,5.87,5.87,0,0,1,.66,3,6.06,6.06,0,0,1-.58,2.79,5.38,5.38,0,0,1-1.52,1.87,6.18,6.18,0,0,1-2.16,1,9.57,9.57,0,0,1-2.52.33h-1l-.59,0a4.11,4.11,0,0,1-.41-.05v6H62.71Zm5.1,2.53c-.33,0-.65,0-1,0l-.72.09v5.67a1.3,1.3,0,0,0,.3.05l.42,0,.44,0h.31A7.51,7.51,0,0,0,69,24.56a3.36,3.36,0,0,0,1.19-.46,2.47,2.47,0,0,0,.84-.94,3.55,3.55,0,0,0,.31-1.58,2.79,2.79,0,0,0-.3-1.36,2.42,2.42,0,0,0-.79-.86,3,3,0,0,0-1.11-.45A6.77,6.77,0,0,0,67.81,18.79Z"/><path class="cls-2" d="M77,16.26c.39-.07.8-.13,1.24-.19s.88-.1,1.33-.13.87-.06,1.28-.08l1.15,0a13.05,13.05,0,0,1,2.42.23,6.68,6.68,0,0,1,2.12.77,4.13,4.13,0,0,1,1.5,1.52,4.65,4.65,0,0,1,.56,2.41,5.72,5.72,0,0,1-1,3.5,5.07,5.07,0,0,1-2.67,1.87l1.22.78,4,6.67h-4l-4-6.85-1.8-.32v7.17H77Zm5.25,2.62c-.35,0-.69,0-1,0a4,4,0,0,0-.78.1v5.07h1.45a3.64,3.64,0,0,0,2.27-.64A2.54,2.54,0,0,0,85,21.29a2.28,2.28,0,0,0-.7-1.77A3,3,0,0,0,82.26,18.88Z"/><path class="cls-2" d="M92.06,16.08h10.38v3.05h-7v4.08h6.32v3.05H95.49v4.28h7.07v3H92.06Z"/><path class="cls-2" d="M110.86,26.36l.45,3h.13l.5-3,3.35-10.25h3.6l-6.5,17.63h-2.45l-6.55-17.63h4Z"/><path class="cls-2" d="M120.51,16.08h3.43v17.5h-3.43Z"/><path class="cls-2" d="M126.74,24.83c0-2.91.64-5.16,1.92-6.73a6.69,6.69,0,0,1,5.5-2.37,7.8,7.8,0,0,1,3.28.65,6.37,6.37,0,0,1,2.32,1.85,8.12,8.12,0,0,1,1.38,2.88,14.37,14.37,0,0,1,.45,3.72q0,4.38-1.94,6.74a6.68,6.68,0,0,1-5.49,2.37,7.8,7.8,0,0,1-3.3-.65,6.26,6.26,0,0,1-2.31-1.85,8.26,8.26,0,0,1-1.36-2.88A14.39,14.39,0,0,1,126.74,24.83Zm3.6,0a12.29,12.29,0,0,0,.22,2.44,6.38,6.38,0,0,0,.69,1.92,3.57,3.57,0,0,0,1.19,1.25,3.55,3.55,0,0,0,4.55-1,8.3,8.3,0,0,0,1-4.63,11.79,11.79,0,0,0-.22-2.37,6.47,6.47,0,0,0-.66-1.92,3.41,3.41,0,0,0-1.17-1.29,3.25,3.25,0,0,0-1.78-.46,3.2,3.2,0,0,0-2.82,1.46A8.21,8.21,0,0,0,130.34,24.83Z"/><path class="cls-2" d="M153.54,16.08h3.25v11.3a8.51,8.51,0,0,1-.45,2.93,5.46,5.46,0,0,1-1.25,2,4.85,4.85,0,0,1-2,1.18,8.14,8.14,0,0,1-2.53.37q-6.65,0-6.65-6.07V16.08h3.43V27.13a7.15,7.15,0,0,0,.18,1.74,2.67,2.67,0,0,0,.59,1.15,2.31,2.31,0,0,0,1,.63,4.91,4.91,0,0,0,1.4.18,2.77,2.77,0,0,0,2.28-.87,4.57,4.57,0,0,0,.7-2.83Z"/><path class="cls-2" d="M167.26,28.88a1.62,1.62,0,0,0-.59-1.3,6.74,6.74,0,0,0-1.47-.91c-.59-.27-1.24-.56-1.93-.85a10,10,0,0,1-1.92-1.07,5.76,5.76,0,0,1-1.48-1.59,4.55,4.55,0,0,1-.58-2.43,5.38,5.38,0,0,1,.42-2.21A4.22,4.22,0,0,1,160.92,17a5,5,0,0,1,1.87-.92,8.46,8.46,0,0,1,2.4-.31,14.64,14.64,0,0,1,2.87.27,7.36,7.36,0,0,1,2.23.76l-1.08,2.87a6.19,6.19,0,0,0-1.65-.63,9.38,9.38,0,0,0-2.37-.29,3,3,0,0,0-1.84.48,1.49,1.49,0,0,0-.64,1.27,1.58,1.58,0,0,0,.59,1.25,6.75,6.75,0,0,0,1.47.92c.6.29,1.24.58,1.93.88a10,10,0,0,1,1.92,1.09,5.54,5.54,0,0,1,1.48,1.57,4.37,4.37,0,0,1,.59,2.34,5.72,5.72,0,0,1-.47,2.41,4.44,4.44,0,0,1-1.3,1.69,5.47,5.47,0,0,1-2,1,9.71,9.71,0,0,1-2.61.33,13.55,13.55,0,0,1-3.3-.36,9.53,9.53,0,0,1-2.1-.7L160,30a7.17,7.17,0,0,0,.71.33c.29.11.62.22,1,.32a11.77,11.77,0,0,0,1.16.25,7.48,7.48,0,0,0,1.26.1,4.42,4.42,0,0,0,2.34-.51A1.73,1.73,0,0,0,167.26,28.88Z"/></svg>