<svg id="Ebene_1" data-name="Ebene 1" xmlns="http://www.w3.org/2000/svg" viewBox="0 0 1001 45"><defs><style>.cls-1{fill:#e6e6e6;}.cls-2{fill:#3c9;}.cls-3{fill:#00a979;}.cls-4,.cls-5{fill:none;stroke-miterlimit:10;}.cls-4{stroke:#3c9;stroke-width:5px;}.cls-5{stroke:#fff;stroke-width:3px;}</style></defs><title>progress2</title><rect class="cls-1" x="1.5" y="35" width="1000" height="10" rx="4"/><path class="cls-2" d="M4,35H200a0,0,0,0,1,0,0V45a0,0,0,0,1,0,0H4a4,4,0,0,1-4-4V39a4,4,0,0,1,4-4Z"/><path class="cls-3" d="M4,45H200V41H0A4,4,0,0,0,4,45Z"/><polyline class="cls-4" points="420.38 2.38 399.49 23.27 391.76 15.53"/><rect class="cls-2" x="200" y="35" width="200" height="6"/><rect class="cls-3" x="200" y="41" width="200" height="4"/><line class="cls-5" x1="800" y1="35" x2="800" y2="45"/><line class="cls-5" x1="600" y1="35" x2="600" y2="45"/><line class="cls-5" x1="400" y1="35" x2="400" y2="45"/><line class="cls-5" x1="200" y1="35" x2="200" y2="45"/></svg>