<svg id="Ebene_1" data-name="Ebene 1" xmlns="http://www.w3.org/2000/svg" viewBox="0 0 1001 47"><defs><style>.cls-1{fill:#e6e6e6;}.cls-2{fill:#3c9;}.cls-3{fill:#00a979;}.cls-4,.cls-5{fill:none;stroke-miterlimit:10;}.cls-4{stroke:#3c9;stroke-width:5px;}.cls-5{stroke:#fff;stroke-width:3px;}</style></defs><title>progress1</title><rect class="cls-1" x="1.5" y="37" width="1000" height="10" rx="4"/><path class="cls-2" d="M4,37H200a0,0,0,0,1,0,0V47a0,0,0,0,1,0,0H4a4,4,0,0,1-4-4V41a4,4,0,0,1,4-4Z"/><path class="cls-3" d="M4,47H200V43H0A4,4,0,0,0,4,47Z"/><polyline class="cls-4" points="221.38 4.38 200.49 25.27 192.76 17.53"/><line class="cls-5" x1="800" y1="37" x2="800" y2="47"/><line class="cls-5" x1="600" y1="37" x2="600" y2="47"/><line class="cls-5" x1="400" y1="37" x2="400" y2="47"/><line class="cls-5" x1="200" y1="37" x2="200" y2="47"/></svg>