<svg xmlns="http://www.w3.org/2000/svg" xmlns:xlink="http://www.w3.org/1999/xlink" viewBox="0 0 962.18 411.05"><defs><style>.cls-1,.cls-14,.cls-16,.cls-3,.cls-30,.cls-31,.cls-33,.cls-63{fill:none;}.cls-13,.cls-14,.cls-2,.cls-33,.cls-8,.cls-9{stroke:#fc0;}.cls-16,.cls-2,.cls-3,.cls-33,.cls-63,.cls-8,.cls-9{stroke-miterlimit:10;}.cls-13,.cls-14,.cls-16,.cls-2,.cls-3,.cls-33,.cls-63,.cls-8,.cls-9{stroke-width:2px;}.cls-2{fill:url(#Unbenannter_Verlauf_3);}.cls-3{stroke:#c30;stroke-dasharray:2 2;}.cls-4{fill:#fc9;opacity:0.2;}.cls-22,.cls-34,.cls-41,.cls-5{font-size:12px;}.cls-17,.cls-22,.cls-29,.cls-5,.cls-50{fill:#306;}.cls-26,.cls-48,.cls-5{font-family:PTSans-Regular, PT Sans;}.cls-6{letter-spacing:0.02em;}.cls-7{letter-spacing:-0.02em;}.cls-8{fill:url(#Unbenannter_Verlauf_12);}.cls-9{fill:url(#Unbenannter_Verlauf_12-2);}.cls-10{font-size:11px;}.cls-10,.cls-15,.cls-34{fill:#fc0;}.cls-10,.cls-17,.cls-34,.cls-41{font-family:RobotoSlab-Bold, Roboto Slab;}.cls-10,.cls-17,.cls-22,.cls-34,.cls-41{font-weight:700;}.cls-11{letter-spacing:-0.01em;}.cls-12{letter-spacing:-0.04em;}.cls-13,.cls-41,.cls-49{fill:#fff;}.cls-13,.cls-14,.cls-31{stroke-linecap:round;}.cls-13,.cls-14,.cls-30,.cls-31{stroke-linejoin:round;}.cls-16{stroke:#39f;}.cls-17{font-size:12.24px;}.cls-18{letter-spacing:-0.01em;}.cls-19{letter-spacing:0em;}.cls-20{letter-spacing:-0.01em;}.cls-21{letter-spacing:-0.04em;}.cls-22{font-family:PTSans-Bold, PT Sans;}.cls-23{letter-spacing:-0.02em;}.cls-24{letter-spacing:-0.02em;}.cls-25{letter-spacing:0em;}.cls-26,.cls-48{font-weight:400;}.cls-27{letter-spacing:-0.01em;}.cls-28{letter-spacing:-0.01em;}.cls-30,.cls-31,.cls-63{stroke:#306;}.cls-32{fill:url(#Unbenannter_Verlauf_12-3);}.cls-35{letter-spacing:-0.01em;}.cls-36{letter-spacing:0em;}.cls-37{clip-path:url(#clip-path);}.cls-38{fill:#ffd138;}.cls-39{fill:#fdfeff;}.cls-40{clip-path:url(#clip-path-3);}.cls-42{letter-spacing:-0.01em;}.cls-43{letter-spacing:-0.01em;}.cls-44{letter-spacing:-0.02em;}.cls-45{letter-spacing:-0.01em;}.cls-46{letter-spacing:-0.04em;}.cls-47{letter-spacing:-0.04em;}.cls-48,.cls-50{font-size:10px;}.cls-50{font-family:PTSans-Italic, PT Sans;font-style:italic;}.cls-51{letter-spacing:-0.01em;}.cls-52{letter-spacing:-0.01em;}.cls-53{letter-spacing:-0.01em;}.cls-54{letter-spacing:-0.02em;}.cls-55{letter-spacing:0em;}.cls-56{letter-spacing:-0.03em;}.cls-57{letter-spacing:-0.03em;}.cls-58{letter-spacing:-0.03em;}.cls-59{opacity:0.4;}.cls-60{fill:#86c2eb;}.cls-61{letter-spacing:0.01em;}.cls-62{letter-spacing:0.01em;}.cls-64{fill:#39f;}.cls-65{fill:#906;}.cls-66{fill:#3c9;}</style><linearGradient id="Unbenannter_Verlauf_3" x1="500.64" y1="191.35" x2="670.64" y2="191.35" gradientUnits="userSpaceOnUse"><stop offset="0" stop-color="#906"/><stop offset="0.19" stop-color="#780066"/><stop offset="0.4" stop-color="#5a0066"/><stop offset="0.61" stop-color="#406"/><stop offset="0.81" stop-color="#370066"/><stop offset="1" stop-color="#306"/></linearGradient><linearGradient id="Unbenannter_Verlauf_12" x1="347.42" y1="190.62" x2="468.96" y2="190.62" xlink:href="#Unbenannter_Verlauf_3"/><linearGradient id="Unbenannter_Verlauf_12-2" x1="499.63" y1="79.55" x2="669.63" y2="79.55" xlink:href="#Unbenannter_Verlauf_3"/><linearGradient id="Unbenannter_Verlauf_12-3" x1="760.7" y1="321" x2="930.7" y2="321" xlink:href="#Unbenannter_Verlauf_3"/><clipPath id="clip-path"><rect class="cls-1" x="827.53" y="367.18" width="36.34" height="7.12"/></clipPath><clipPath id="clip-path-3"><rect class="cls-1" x="565.92" y="217.28" width="36.34" height="7.12"/></clipPath></defs><title>python-workflow</title><g id="Ebene_2" data-name="Ebene 2"><rect class="cls-2" x="500.64" y="151.86" width="170" height="78.99" rx="5"/><rect class="cls-3" x="740.54" y="234.61" width="206.97" height="160.81" rx="5"/><rect class="cls-4" x="741.76" y="234.61" width="205.75" height="160.81" rx="5"/><text class="cls-5" transform="translate(44.78 38.64)">http<tspan class="cls-6" x="21.19" y="0">:</tspan><tspan x="24.06" y="0">//s</tspan><tspan class="cls-7" x="37.61" y="0">c</tspan><tspan x="42.75" y="0">ontain.</tspan><tspan class="cls-7" x="78.11" y="0">c</tspan><tspan x="83.25" y="0">om</tspan></text><rect class="cls-8" x="347.42" y="152.39" width="121.53" height="76.45" rx="5"/><rect class="cls-9" x="499.63" y="50.77" width="170" height="57.56" rx="5"/><text class="cls-10" transform="translate(550.08 101.45)">ap<tspan class="cls-11" x="12.7" y="0">p</tspan><tspan x="19.25" y="0">lic</tspan><tspan class="cls-12" x="32.1" y="0">a</tspan><tspan x="37.72" y="0">tion A</tspan></text><path class="cls-13" d="M575.6,41.86a11.74,11.74,0,1,1-3.51,8.38,11.54,11.54,0,0,1,2.4-7.1"/><path class="cls-14" d="M583.52,55.89h-4.24c-.58,0-.81-.23-.81-.81V48.62c0-.58.23-.8.81-.8h8.45c.55,0,.77.22.77.77v6.49c0,.55-.22.77-.77.77C586.32,55.92,584.9,55.89,583.52,55.89Z"/><path class="cls-14" d="M579.16,47.25a4.51,4.51,0,0,1,2.64-4.13A4.2,4.2,0,0,1,587.58,46c.1.39.13.77.23,1.19"/><path class="cls-15" d="M582.82,53.12h0V54c0,.16.06.22.25.22h.84c.22,0,.29-.06.29-.25V52.35a.38.38,0,0,1,.22-.39,1.21,1.21,0,0,0,.61-1.44,1.53,1.53,0,0,0-1.44-1,1.65,1.65,0,0,0-1.61.87,1.19,1.19,0,0,0,.55,1.51.41.41,0,0,1,.25.48A4.47,4.47,0,0,1,582.82,53.12Z"/><path class="cls-13" d="M575.6,143.73a11.74,11.74,0,1,1-3.51,8.38,11.54,11.54,0,0,1,2.4-7.1"/><path class="cls-14" d="M583.52,157.76h-4.24c-.58,0-.81-.23-.81-.81v-6.46c0-.58.23-.8.81-.8h8.45c.55,0,.77.22.77.77V157c0,.55-.22.78-.77.78C586.32,157.79,584.9,157.76,583.52,157.76Z"/><path class="cls-14" d="M579.16,149.12A4.51,4.51,0,0,1,581.8,145a4.2,4.2,0,0,1,5.78,2.85c.1.39.13.77.23,1.19"/><path class="cls-15" d="M582.82,155h0v.87c0,.16.06.23.25.23h.84c.22,0,.29-.07.29-.26v-1.61a.36.36,0,0,1,.22-.38,1.22,1.22,0,0,0,.61-1.45,1.55,1.55,0,0,0-1.44-1,1.66,1.66,0,0,0-1.61.87,1.19,1.19,0,0,0,.55,1.51.42.42,0,0,1,.25.49A4.29,4.29,0,0,1,582.82,155Z"/><rect class="cls-16" x="12.53" y="305.49" width="170" height="60" rx="5"/><text class="cls-17" transform="translate(56.72 333.07)">c<tspan class="cls-18" x="6.45" y="0">p</tspan><tspan x="13.8" y="0">yt</tspan><tspan class="cls-19" x="25.61" y="0">h</tspan><tspan x="33.33" y="0">on/</tspan><tspan class="cls-18" x="52.44" y="0">p</tspan><tspan x="59.79" y="0">y</tspan><tspan class="cls-18" x="67.03" y="0">p</tspan><tspan x="74.38" y="0">y</tspan><tspan x="23.02" y="17">image</tspan></text><rect class="cls-16" x="256.59" y="305.49" width="170" height="60" rx="5"/><text class="cls-17" transform="translate(306.99 333.07)">Ap<tspan class="cls-20" x="16.21" y="0">p</tspan><tspan x="23.5" y="0">lic</tspan><tspan class="cls-21" x="37.8" y="0">a</tspan><tspan x="44.05" y="0">tion</tspan><tspan x="15.81" y="17">image</tspan></text><rect class="cls-16" x="500.64" y="305.49" width="170" height="60" rx="5"/><text class="cls-17" transform="translate(551.04 333.07)">Ap<tspan class="cls-20" x="16.21" y="0">p</tspan><tspan x="23.5" y="0">lic</tspan><tspan class="cls-21" x="37.8" y="0">a</tspan><tspan x="44.05" y="0">tion</tspan><tspan x="15.81" y="17">image</tspan></text><text class="cls-22" transform="translate(67.04 112.13)">s<tspan class="cls-23" x="5.06" y="0">c</tspan><tspan x="10.06" y="0">ontain.</tspan><tspan class="cls-24" x="45.9" y="0">c</tspan><tspan class="cls-25" x="50.89" y="0">om</tspan><tspan class="cls-26"><tspan x="-33.59" y="14.4">(pr</tspan><tspan class="cls-27" x="-19.66" y="14.4">o</tspan><tspan x="-13.37" y="14.4">vides </tspan><tspan class="cls-28" x="16.43" y="14.4">p</tspan><tspan x="22.78" y="14.4">ython/c</tspan><tspan class="cls-28" x="61.66" y="14.4">p</tspan><tspan x="68.01" y="14.4">ython)</tspan></tspan></text><path class="cls-29" d="M101.48,71.66a.77.77,0,0,1,.72.72.71.71,0,1,1-.72-.72Z"/><circle class="cls-29" cx="95.73" cy="72.38" r="0.72"/><path class="cls-30" d="M102.81,81.29v2.23h.87a3.69,3.69,0,0,1,.88.07,5.65,5.65,0,0,1,2.8,1.23,3.74,3.74,0,0,1,1.57,3v4.6H88.27v-4.6a3.72,3.72,0,0,1,1.58-3,5.65,5.65,0,0,1,2.8-1.23,3.65,3.65,0,0,1,.87-.07h.88V81.29"/><path class="cls-31" d="M91.06,70.3c0,1.79.07,2.58.07,4.38a7.74,7.74,0,0,0,7.47,7.84A7.49,7.49,0,0,0,106.15,75V70"/><path class="cls-31" d="M91.06,70.23l.6-4.63c1.43-.35,8.15,3.65,11.24-1.38,0,0-.77,2.48,3.25,5.36v.65"/><path class="cls-31" d="M108.73,72.54a2.21,2.21,0,0,1-2.16,2.15V70.38A2.22,2.22,0,0,1,108.73,72.54Z"/><path class="cls-31" d="M88.9,72v.72a2.17,2.17,0,0,0,2.16,1.8V70.23A2.17,2.17,0,0,0,88.9,72Z"/><path class="cls-31" d="M96.52,77.05a2.51,2.51,0,0,0,2.08,1.08,2.62,2.62,0,0,0,2.09-1.08"/><path class="cls-31" d="M88.9,71.06V65.63c0-3.83,4.31-8.34,9.7-8.34s9.71,4.51,9.71,8.34v5.53"/><path class="cls-29" d="M98.6,57.29c5.39,0,9.71,4.51,9.71,8.34v5.53h-.41a2.1,2.1,0,0,1,.41,1.22,2.22,2.22,0,0,1-2.16,2.16V75a7.39,7.39,0,0,1-3.4,6.25h.06v2.23h.87a3.69,3.69,0,0,1,.88.07,5.65,5.65,0,0,1,2.8,1.23,3.74,3.74,0,0,1,1.57,3v4.6H88.27v-4.6a3.72,3.72,0,0,1,1.58-3,5.65,5.65,0,0,1,2.8-1.23,3.65,3.65,0,0,1,.87-.07h.88V81.29h.25a8,8,0,0,1-3.52-6.61,4.52,4.52,0,0,0,0-.71,5.48,5.48,0,0,0,0,.57,2.17,2.17,0,0,1-2.16-1.8V72a2,2,0,0,1,.43-1H88.9V65.63c0-3.83,4.31-8.34,9.7-8.34m0-2c-6.59,0-11.7,5.56-11.7,10.34v5.43a1.84,1.84,0,0,0,.06.47,1.55,1.55,0,0,0,0,.21,2.64,2.64,0,0,0,0,.28v.72a2.46,2.46,0,0,0,0,.28,4.12,4.12,0,0,0,2.32,3.11A10.09,10.09,0,0,0,92,81.67a7.76,7.76,0,0,0-3.39,1.57,5.77,5.77,0,0,0-2.34,4.59v4.6a2,2,0,0,0,2,2h20.66a2,2,0,0,0,2-2v-4.6a5.74,5.74,0,0,0-2.34-4.59,7.63,7.63,0,0,0-3.19-1.53A9.48,9.48,0,0,0,108.1,76a4.23,4.23,0,0,0,2.21-3.66,4.17,4.17,0,0,0-.07-.71,2.24,2.24,0,0,0,.07-.51V65.63c0-4.78-5.12-10.34-11.71-10.34Z"/><rect class="cls-32" x="760.7" y="261" width="170" height="120" rx="5"/><rect class="cls-33" x="760.7" y="261" width="170" height="120" rx="5"/><rect class="cls-14" x="777.09" y="308.94" width="136.62" height="43.2" rx="5"/><text class="cls-34" transform="translate(807.25 326.87)">Ap<tspan class="cls-11" x="15.88" y="0">p</tspan><tspan x="23.03" y="0">lic</tspan><tspan class="cls-12" x="37.05" y="0">a</tspan><tspan x="43.17" y="0">tion &amp; </tspan><tspan class="cls-35" x="1.3" y="14.4">p</tspan><tspan x="8.5" y="14.4">yt</tspan><tspan class="cls-36" x="20.08" y="14.4">h</tspan><tspan x="27.65" y="14.4">on/</tspan><tspan class="cls-35" x="46.38" y="14.4">p</tspan><tspan x="53.58" y="14.4">y</tspan><tspan class="cls-35" x="60.68" y="14.4">p</tspan><tspan x="67.88" y="14.4">y</tspan></text><path class="cls-13" d="M836.4,250.88a11.73,11.73,0,1,1-3.52,8.39,11.54,11.54,0,0,1,2.4-7.1"/><path class="cls-14" d="M844.64,264.91H840.4c-.58,0-.81-.22-.81-.8v-6.46c0-.58.23-.81.81-.81h8.45c.55,0,.77.23.77.77v6.5c0,.55-.22.77-.77.77C847.44,264.94,846,264.91,844.64,264.91Z"/><path class="cls-14" d="M840.28,256.28a4.53,4.53,0,0,1,2.64-4.14A4.2,4.2,0,0,1,848.7,255c.1.38.13.77.23,1.19"/><path class="cls-15" d="M843.94,262.15h0V263c0,.16.06.22.25.22H845c.22,0,.29-.06.29-.26v-1.6a.38.38,0,0,1,.22-.39,1.2,1.2,0,0,0,.61-1.45,1.54,1.54,0,0,0-1.44-1,1.65,1.65,0,0,0-1.61.87,1.2,1.2,0,0,0,.55,1.51.41.41,0,0,1,.25.48A4.41,4.41,0,0,1,843.94,262.15Z"/><g id="Scone_logo_white" data-name="Scone logo white"><g class="cls-37"><g class="cls-37"><path class="cls-38" d="M832.35,369h-.76a.31.31,0,0,0-.3.3v.77a.31.31,0,0,0,.3.3h.76a.3.3,0,0,0,.29-.3v-.77a.3.3,0,0,0-.29-.3m-2.65,1.37h.76a.3.3,0,0,0,.29-.3v-.77a.3.3,0,0,0-.29-.3h-.76a.3.3,0,0,0-.29.3v.77a.3.3,0,0,0,.29.3m-.82-.3v-.77a.3.3,0,0,0-.29-.3h-.76a.3.3,0,0,0-.3.3v.77a.3.3,0,0,0,.3.3h.76a.3.3,0,0,0,.29-.3m3.53.84a.22.22,0,0,0-.22.22v.9a.22.22,0,0,0,.22.22.23.23,0,0,0,.22-.22v-.9a.21.21,0,0,0-.22-.22m-2.1.29V372a.3.3,0,0,0,.3.29h.76a.29.29,0,0,0,.29-.29v-.78a.29.29,0,0,0-.29-.29h-.76a.3.3,0,0,0-.3.29m-.54.78v-.78a.29.29,0,0,0-.29-.29h-.76a.29.29,0,0,0-.29.29V372a.29.29,0,0,0,.29.29h.76a.29.29,0,0,0,.29-.29m2.58.83h-.76a.3.3,0,0,0-.3.29v.78a.3.3,0,0,0,.3.29h.76a.29.29,0,0,0,.29-.29v-.78a.29.29,0,0,0-.29-.29m-2,0h-.76a.29.29,0,0,0-.29.29v.78a.29.29,0,0,0,.29.29h.76a.29.29,0,0,0,.29-.29v-.78a.29.29,0,0,0-.29-.29"/><path class="cls-38" d="M833.27,368.68a1.78,1.78,0,0,0,1.19.36s0,0,0,.06v2.09c0,.81-1,1.31-1.21,1.44a0,0,0,0,1,0,0v-3.92s0,0,0,0"/><path class="cls-38" d="M831,368.57c1.61-.05,1.88-.61,1.88-.61a.07.07,0,0,1,.07,0s.06,0,.07,0,.25.6,1.86.6c0,0,.06,0,.06.07v2.75c0,.88-1.67,1.87-1.7,1.89s-.06,0-.06.06V374s.11.05.15,0c.61-.33,2.34-1.28,2.34-2.46v-3.51c0-.06-.1-.1-.16-.1-2.05,0-2.43-.75-2.43-.75s-.09,0-.13,0-.07,0-.09,0-.34.77-2.37.77c-.07,0-.09,0-.09.09v.44s0,.1.06.1l.54,0"/><path class="cls-39" d="M837.16,373.07l.82-.31a1.12,1.12,0,0,0,1.07.61,1.2,1.2,0,0,0,.63-.14.49.49,0,0,0,.26-.44c0-.44-.6-.7-1-.88h0a4.48,4.48,0,0,1-1-.53,1.19,1.19,0,0,1-.46-1,1.29,1.29,0,0,1,.48-1,1.88,1.88,0,0,1,1.21-.41,1.76,1.76,0,0,1,1.61.88l-.85.32a.6.6,0,0,0-.29-.3,1.12,1.12,0,0,0-.47-.11c-.47,0-.79.25-.79.59a.69.69,0,0,0,.32.53,5.1,5.1,0,0,0,.74.38l.1,0c.63.26,1.4.6,1.4,1.45a1.23,1.23,0,0,1-.55,1,2.25,2.25,0,0,1-1.33.38,2,2,0,0,1-1.88-1.11"/><path class="cls-39" d="M844.42,374.16a2.67,2.67,0,0,1-1-.2,2.4,2.4,0,0,1-.82-.56,2.28,2.28,0,0,1-.55-.82,2.47,2.47,0,0,1-.21-1,2.54,2.54,0,0,1,.21-1,2.33,2.33,0,0,1,.55-.81,2.4,2.4,0,0,1,.82-.56,2.68,2.68,0,0,1,1-.21,2.49,2.49,0,0,1,1.17.28,2.59,2.59,0,0,1,.89.75l-.68.51a1.93,1.93,0,0,0-.6-.5,2,2,0,0,0-.79-.19,1.75,1.75,0,0,0,0,3.49,1.69,1.69,0,0,0,.87-.25,1.64,1.64,0,0,0,.63-.65l.75.43a2.59,2.59,0,0,1-.94.95,2.34,2.34,0,0,1-1.3.36"/><path class="cls-39" d="M850.09,374.18a2.47,2.47,0,0,1-1-.21,2.28,2.28,0,0,1-.82-.55,2.55,2.55,0,0,1-.56-.82,2.68,2.68,0,0,1-.21-1,2.35,2.35,0,0,1,.21-1,2.44,2.44,0,0,1,.56-.82,2.52,2.52,0,0,1,1.83-.76,2.62,2.62,0,0,1,1,.2,2.68,2.68,0,0,1,1.38,1.38,2.53,2.53,0,0,1,0,2,2.55,2.55,0,0,1-.56.82,2.63,2.63,0,0,1-1.82.76m0-4.35a1.67,1.67,0,0,0-1.23.52,1.7,1.7,0,0,0-.52,1.22,1.73,1.73,0,0,0,3,1.23,1.75,1.75,0,0,0-1.22-3"/><polygon class="cls-39" points="858.56 369.03 858.56 374.3 854.93 370.96 854.93 374.09 854.01 374.09 854.01 368.84 857.64 372.19 857.64 369.03 858.56 369.03"/><polygon class="cls-39" points="861.03 369.8 861.03 371.15 863.56 371.15 863.56 371.94 861.03 371.94 861.03 373.3 863.87 373.3 863.87 374.09 860.11 374.09 860.11 369.03 863.87 369.03 863.87 369.82 861.03 369.82 861.03 369.8"/></g></g></g><g id="Scone_logo_white-2" data-name="Scone logo white"><g class="cls-40"><g class="cls-40"><path class="cls-38" d="M570.73,219.08H570a.29.29,0,0,0-.29.29v.78a.29.29,0,0,0,.29.29h.76a.3.3,0,0,0,.3-.29v-.78a.3.3,0,0,0-.3-.29m-2.65,1.36h.77a.29.29,0,0,0,.29-.29v-.78a.29.29,0,0,0-.29-.29h-.77a.29.29,0,0,0-.29.29v.78a.29.29,0,0,0,.29.29m-.81-.29v-.78a.3.3,0,0,0-.3-.29h-.76a.29.29,0,0,0-.29.29v.78a.29.29,0,0,0,.29.29H567a.3.3,0,0,0,.3-.29m3.52.83a.24.24,0,0,0-.22.22v.91a.23.23,0,0,0,.22.22.22.22,0,0,0,.22-.22v-.91a.21.21,0,0,0-.22-.22m-2.09.3v.77a.29.29,0,0,0,.29.29h.76a.3.3,0,0,0,.3-.29v-.77a.3.3,0,0,0-.3-.3H569a.29.29,0,0,0-.29.3m-.54.77v-.77a.29.29,0,0,0-.29-.3h-.77a.29.29,0,0,0-.29.3v.77a.29.29,0,0,0,.29.29h.77a.29.29,0,0,0,.29-.29m2.57.84H570a.29.29,0,0,0-.29.29V224a.3.3,0,0,0,.29.3h.76a.31.31,0,0,0,.3-.3v-.77a.3.3,0,0,0-.3-.29m-2,0H568a.3.3,0,0,0-.3.29V224a.31.31,0,0,0,.3.3h.76a.3.3,0,0,0,.29-.3v-.77a.29.29,0,0,0-.29-.29"/><path class="cls-38" d="M571.66,218.77a1.7,1.7,0,0,0,1.18.37s0,0,0,.06v2.09c0,.81-1,1.3-1.22,1.43,0,0,0,0,0,0l0-3.92s0,0,0,0"/><path class="cls-38" d="M569.36,218.67c1.61-.06,1.87-.61,1.87-.61a.1.1,0,0,1,.07-.05.08.08,0,0,1,.08,0s.25.6,1.86.6c0,0,0,0,0,.07v2.76c0,.87-1.66,1.87-1.69,1.88l-.06.06v.69s.1,0,.15,0c.61-.34,2.34-1.29,2.34-2.46v-3.51c0-.06-.11-.1-.16-.1-2,0-2.43-.75-2.43-.75s-.09,0-.14,0-.07,0-.08,0-.34.78-2.37.78c-.08,0-.09,0-.09.09v.44s0,.1.06.1l.54,0"/><path class="cls-39" d="M575.55,223.16l.82-.3a1.11,1.11,0,0,0,1.07.61,1.13,1.13,0,0,0,.63-.15.5.5,0,0,0,.26-.43c0-.44-.6-.71-1-.88l0,0a3.85,3.85,0,0,1-1-.52,1.21,1.21,0,0,1-.47-1,1.31,1.31,0,0,1,.48-1,1.91,1.91,0,0,1,1.22-.41,1.74,1.74,0,0,1,1.61.88l-.85.32A.72.72,0,0,0,578,220a1.16,1.16,0,0,0-.47-.1c-.47,0-.79.25-.79.59a.64.64,0,0,0,.32.52,3.86,3.86,0,0,0,.73.38l.1,0c.63.26,1.41.6,1.41,1.45a1.22,1.22,0,0,1-.56,1,2.28,2.28,0,0,1-1.33.38,2,2,0,0,1-1.87-1.12"/><path class="cls-39" d="M582.81,224.26a2.67,2.67,0,0,1-1-.2,2.44,2.44,0,0,1-.82-.56,2.31,2.31,0,0,1-.56-.82,2.65,2.65,0,0,1,0-2,2.4,2.4,0,0,1,.56-.82,2.28,2.28,0,0,1,.82-.55,2.56,2.56,0,0,1,2.18.07,2.56,2.56,0,0,1,.89.74l-.69.52a1.71,1.71,0,0,0-.6-.5,1.8,1.8,0,0,0-.79-.19,1.68,1.68,0,0,0-1.23.51,1.7,1.7,0,0,0-.51,1.23,1.73,1.73,0,0,0,.51,1.23,1.68,1.68,0,0,0,1.23.51,1.7,1.7,0,0,0,.88-.25,1.84,1.84,0,0,0,.63-.64l.75.42a2.55,2.55,0,0,1-.94,1,2.42,2.42,0,0,1-1.3.36"/><path class="cls-39" d="M588.47,224.28a2.68,2.68,0,0,1-1-.21,2.4,2.4,0,0,1-.82-.56,2.64,2.64,0,0,1-.55-.81,2.54,2.54,0,0,1-.21-1,2.32,2.32,0,0,1,.21-1,2.57,2.57,0,0,1,.55-.82,2.72,2.72,0,0,1,.82-.56,2.65,2.65,0,0,1,2,0,2.31,2.31,0,0,1,.82.56,2.77,2.77,0,0,1,.56.82,2.64,2.64,0,0,1,.2,1,2.71,2.71,0,0,1-.2,1,2.86,2.86,0,0,1-.56.81,2.72,2.72,0,0,1-.82.56,2.68,2.68,0,0,1-1,.21m0-4.35a1.66,1.66,0,0,0-1.23.51,1.74,1.74,0,0,0-.51,1.23,1.74,1.74,0,0,0,3,1.23,1.74,1.74,0,0,0,.51-1.23,1.78,1.78,0,0,0-.51-1.23,1.74,1.74,0,0,0-1.23-.51"/><polygon class="cls-39" points="596.95 219.12 596.95 224.39 593.32 221.06 593.32 224.19 592.39 224.19 592.39 218.93 596.02 222.28 596.02 219.12 596.95 219.12"/><polygon class="cls-39" points="599.42 219.9 599.42 221.25 601.95 221.25 601.95 222.04 599.42 222.04 599.42 223.4 602.26 223.4 602.26 224.19 598.5 224.19 598.5 219.12 602.26 219.12 602.26 219.91 599.42 219.91 599.42 219.9"/></g></g></g><text class="cls-41" transform="translate(795.19 294.94)">Intel SGX E<tspan class="cls-36" x="63.67" y="0">n</tspan><tspan x="71.23" y="0">cl</tspan><tspan class="cls-42" x="81.38" y="0">a</tspan><tspan class="cls-43" x="87.88" y="0">v</tspan><tspan x="94.64" y="0">e</tspan></text><text class="cls-41" transform="translate(535.53 186.94)">Intel SGX E<tspan class="cls-36" x="63.67" y="0">n</tspan><tspan x="71.23" y="0">cl</tspan><tspan class="cls-42" x="81.38" y="0">a</tspan><tspan class="cls-43" x="87.88" y="0">v</tspan><tspan x="94.64" y="0">e</tspan></text><text class="cls-5" transform="translate(12.53 384.83)">s<tspan class="cls-44" x="5.05" y="0">c</tspan><tspan x="10.19" y="0">on</tspan><tspan class="cls-45" x="23.18" y="0">e</tspan><tspan x="29.15" y="0">cura</tspan><tspan class="cls-45" x="51.06" y="0">t</tspan><tspan x="55" y="0">edimages/apps:</tspan><tspan class="cls-27" x="134.91" y="0">p</tspan><tspan x="141.26" y="0">y</tspan><tspan class="cls-27" x="146.85" y="0">p</tspan><tspan class="cls-46" x="153.2" y="0">y</tspan></text><text class="cls-5" transform="translate(501.01 384.83)">reposi<tspan class="cls-45" x="31.37" y="0">t</tspan><tspan x="35.3" y="0">or</tspan><tspan class="cls-47" x="45.82" y="0">y</tspan></text></g><g id="schrift"><text class="cls-17" transform="translate(802.21 112.15)">D<tspan class="cls-21" x="8.43" y="0">a</tspan><tspan x="14.68" y="0">ta scientist</tspan><tspan class="cls-48"><tspan x="27.83" y="12">(user)</tspan></tspan></text><path class="cls-49" d="M832.23,92.73a1,1,0,0,1-1-1V86.25a6.13,6.13,0,0,1,2-4.57,6.53,6.53,0,0,1,4.45-1.9v-1A9.52,9.52,0,0,1,832.58,72a3.56,3.56,0,0,1-.66-.25A3.45,3.45,0,0,1,830,68.7a3.27,3.27,0,0,1,.33-1.44,4.24,4.24,0,0,1,2.6-7.26,9.59,9.59,0,0,1,9-6.5A9.5,9.5,0,0,1,851,60a4.27,4.27,0,0,1,3.74,4.22,4.31,4.31,0,0,1-1.18,2.92A3.42,3.42,0,0,1,851.32,72a9.51,9.51,0,0,1-5,6.78v1a6.22,6.22,0,0,1,4.34,2,6.49,6.49,0,0,1,1.92,4.51v5.48a1,1,0,0,1-1,1Z"/><path class="cls-29" d="M842,54.5A8.54,8.54,0,0,1,850.23,61h.25a3.26,3.26,0,0,1,3.25,3.25A3.34,3.34,0,0,1,852.2,67a2.41,2.41,0,0,1,.72,1.71,2.44,2.44,0,0,1-2.38,2.43l-.12.15a8.5,8.5,0,0,1-5.14,6.9v2.59H846a5.19,5.19,0,0,1,3.86,1.65,5.44,5.44,0,0,1,1.66,3.83v5.48H832.23V86.25a5.13,5.13,0,0,1,1.65-3.83,5.53,5.53,0,0,1,3.87-1.65h.91V78.4h.18v-.14a8.53,8.53,0,0,1-5.36-7l-.1-.15a2.24,2.24,0,0,1-1-.23A2.46,2.46,0,0,1,831,68.7a2.4,2.4,0,0,1,.86-1.83l-.09-.42-.18.55A3.37,3.37,0,0,1,830,64.24,3.25,3.25,0,0,1,833.28,61h.18l.32-.4A8.53,8.53,0,0,1,842,54.5h0m0-2a10.59,10.59,0,0,0-9.76,6.6,5.23,5.23,0,0,0-3,8.37A4.26,4.26,0,0,0,829,68.7a4.42,4.42,0,0,0,2.49,4c.08,0,.16.08.24.12A10.54,10.54,0,0,0,836,79a7.55,7.55,0,0,0-3.48,2,7.14,7.14,0,0,0-2.28,5.28v5.48a2,2,0,0,0,2,2h19.31a2,2,0,0,0,2-2V86.25A7.5,7.5,0,0,0,851.32,81a7.07,7.07,0,0,0-3.42-2,10.48,10.48,0,0,0,4.28-6.22,4.48,4.48,0,0,0,2.74-4.09,4.4,4.4,0,0,0-.22-1.36,5.34,5.34,0,0,0,1-3.1,5.27,5.27,0,0,0-4-5.1A10.48,10.48,0,0,0,842,52.5Z"/><path class="cls-31" d="M838.66,78.31V80.7h-.91a5.51,5.51,0,0,0-3.87,1.65,5.2,5.2,0,0,0-1.65,3.87v5.51h19.31V86.22a5.54,5.54,0,0,0-1.66-3.87A5.19,5.19,0,0,0,846,80.7h-.92V78.31"/><path class="cls-31" d="M840.13,74a2.3,2.3,0,0,0,1.92,1A2.38,2.38,0,0,0,844,74"/><path class="cls-29" d="M845.41,68.4a.87.87,0,0,1,.81.82.81.81,0,1,1-.81-.82Z"/><circle class="cls-29" cx="838.67" cy="69.22" r="0.81"/><path class="cls-31" d="M851.54,66.51a2.44,2.44,0,0,1-1.06,4.63V66.27A2.3,2.3,0,0,1,851.54,66.51Z"/><path class="cls-31" d="M832.37,70.9a2.44,2.44,0,0,1,1.06-4.63v4.87A2.27,2.27,0,0,1,832.37,70.9Z"/><path class="cls-31" d="M839.89,65.56a.82.82,0,0,1,0,1.63h-2.44a.82.82,0,0,1,0-1.63Z"/><path class="cls-31" d="M847.45,66.37a.88.88,0,0,1-.82.82H844.2a.82.82,0,0,1,0-1.63h2.43A.88.88,0,0,1,847.45,66.37Z"/><path class="cls-31" d="M831.58,67A3.37,3.37,0,0,1,830,64.24,3.25,3.25,0,0,1,833.28,61h.33"/><path class="cls-31" d="M852.19,67a3.35,3.35,0,0,0,1.54-2.76A3.26,3.26,0,0,0,850.48,61h-.32"/><rect class="cls-31" x="833.43" y="54.5" width="17.05" height="24.36" rx="8.13"/><text class="cls-50" transform="translate(813.41 185.2)">runs</text><path class="cls-49" d="M318.18,94.09a1,1,0,0,1-1-1V88.41a4.82,4.82,0,0,1,2-3.87,6.56,6.56,0,0,1,3.25-1.42,4.31,4.31,0,0,1,1-.09v-1a9.19,9.19,0,0,1-3.3-6.31,3.14,3.14,0,0,1-2.28-2.56.61.61,0,0,1,0-.14v-.73a.66.66,0,0,1,0-.14c0-.14.05-.27.08-.41a1,1,0,0,1-.09-.43V65.84c0-4.39,4.74-9.49,10.86-9.49s10.87,5.1,10.87,9.49v5.61a1,1,0,0,1-.11.45,3.09,3.09,0,0,1,.11.8,3.24,3.24,0,0,1-2.2,3A8.55,8.55,0,0,1,334,82.24V83a4.22,4.22,0,0,1,1,.09,6.58,6.58,0,0,1,3.29,1.45,4.78,4.78,0,0,1,2,3.84v4.68a1,1,0,0,1-1,1Z"/><path class="cls-29" d="M328.68,57.35c5.49,0,9.87,4.58,9.87,8.49v5.61h-.42a2.13,2.13,0,0,1,.42,1.25,2.24,2.24,0,0,1-2.19,2.19v.51a7.56,7.56,0,0,1-3.46,6.36H333V84h.89a3.82,3.82,0,0,1,.89.07,5.7,5.7,0,0,1,2.85,1.24,3.82,3.82,0,0,1,1.6,3.07v4.68h-21V88.41a3.82,3.82,0,0,1,1.6-3.07,5.7,5.7,0,0,1,2.85-1.24,3.82,3.82,0,0,1,.89-.07h.89V81.76h.25A8.16,8.16,0,0,1,321.08,75a3.85,3.85,0,0,0,0-.55s0,.45,0,.45a2.62,2.62,0,0,1,0-.42h0v.37a2.19,2.19,0,0,1-2.19-1.83v-.73a2.07,2.07,0,0,1,.43-1h-.43V65.84c0-3.91,4.38-8.49,9.86-8.49m0-2c-6.68,0-11.86,5.64-11.86,10.49v5.51a2.44,2.44,0,0,0,.05.48l0,.22a1.32,1.32,0,0,0,0,.28v.73a1.42,1.42,0,0,0,0,.29,4.12,4.12,0,0,0,2.35,3.13A10.33,10.33,0,0,0,322,82.17a7.66,7.66,0,0,0-3.48,1.6,5.79,5.79,0,0,0-2.37,4.64v4.68a2,2,0,0,0,2,2h21a2,2,0,0,0,2-2V88.41a5.79,5.79,0,0,0-2.37-4.64,7.58,7.58,0,0,0-3.3-1.56,9.58,9.58,0,0,0,2.79-5.82,4.24,4.24,0,0,0,2.24-3.69,3.54,3.54,0,0,0-.07-.73,1.81,1.81,0,0,0,.07-.52V65.84c0-4.85-5.18-10.49-11.87-10.49Z"/><text class="cls-17" transform="translate(269.4 29.25)">Ap<tspan class="cls-20" x="16.21" y="0">p</tspan><tspan x="23.5" y="0">lic</tspan><tspan class="cls-21" x="37.8" y="0">a</tspan><tspan x="44.05" y="0">tion P</tspan><tspan class="cls-51" x="78.12" y="0">r</tspan><tspan class="cls-52" x="83.15" y="0">o</tspan><tspan x="89.92" y="0">vider</tspan><tspan class="cls-48"><tspan x="35.6" y="12">(Doc</tspan><tspan class="cls-53" x="54.81" y="12">k</tspan><tspan x="59.48" y="12">erfile)</tspan></tspan></text><path class="cls-29" d="M332.34,71.56a.79.79,0,0,1,.73.73.73.73,0,1,1-.73-.73Z"/><circle class="cls-29" cx="325.03" cy="72.29" r="0.73"/><path class="cls-30" d="M333,82.09v2.27h.89a3.82,3.82,0,0,1,.89.07,5.62,5.62,0,0,1,2.85,1.24,3.82,3.82,0,0,1,1.6,3.07v4.68h-21V88.74a3.82,3.82,0,0,1,1.6-3.07,5.62,5.62,0,0,1,2.85-1.24,3.78,3.78,0,0,1,.89-.07h.89V82.09"/><path class="cls-31" d="M321,70.91c0,1.82.07,2.63.07,4.45a7.87,7.87,0,0,0,7.6,8,7.61,7.61,0,0,0,7.68-7.6v-5.1"/><path class="cls-31" d="M321,70.83v-1.9c1.46-.36,7.45.08,10.6-5,0,0,.66,1.9,4.75,4.82v2.12"/><path class="cls-31" d="M338.55,73a2.24,2.24,0,0,1-2.19,2.19V70.83A2.25,2.25,0,0,1,338.55,73Z"/><path class="cls-31" d="M318.82,72.66v.73A2.2,2.2,0,0,0,321,75.22V70.83A2.2,2.2,0,0,0,318.82,72.66Z"/><path class="cls-31" d="M326.56,77.78a2.59,2.59,0,0,0,2.12,1.09,2.67,2.67,0,0,0,2.12-1.09"/><path class="cls-31" d="M318.82,71.68V66.16c0-3.9,4.38-8.48,9.86-8.48s9.87,4.58,9.87,8.48v5.62"/><path class="cls-31" d="M327.3,71.88c0,.12.06.3.06.41a2.37,2.37,0,1,1-4.74,0,1.82,1.82,0,0,1,.06-.59A2.35,2.35,0,0,1,325,69.92,2.31,2.31,0,0,1,327.3,71.88Z"/><path class="cls-31" d="M334.69,71.7a1.82,1.82,0,0,1,.06.59,2.37,2.37,0,1,1-4.74,0,1,1,0,0,1,.06-.41,2.34,2.34,0,0,1,2.31-2A2.42,2.42,0,0,1,334.69,71.7Z"/><path class="cls-31" d="M327.36,72a2.15,2.15,0,0,1,1.32-.42A2.17,2.17,0,0,1,330,72"/><path class="cls-31" d="M319.69,71.25a2.28,2.28,0,0,1,2.64,0"/><path class="cls-31" d="M335,71.25a2.17,2.17,0,0,1,1.33-.42,2.15,2.15,0,0,1,1.32.42"/><text class="cls-50" transform="translate(292.65 194.86)">build</text><text class="cls-50" transform="translate(67.62 194.86)">push</text><text class="cls-50" transform="translate(551.67 127.57)">push</text><text class="cls-50" transform="translate(594.56 264.15)">attest <tspan class="cls-54" x="25.54" y="0">p</tspan><tspan class="cls-55" x="30.44" y="0">y</tspan><tspan x="34.87" y="0">thon &amp; appli</tspan><tspan class="cls-56" x="86.87" y="0">c</tspan><tspan x="90.78" y="0">ation</tspan></text><text class="cls-50" transform="translate(408.78 73.65)">creates</text><text class="cls-50" transform="translate(367.46 108.21)">creates</text><text class="cls-50" transform="translate(367.46 262.73)"><tspan class="cls-56">c</tspan><tspan x="3.91" y="0">o</tspan><tspan class="cls-54" x="8.89" y="0">p</tspan><tspan class="cls-57" x="13.79" y="0">y</tspan></text><text class="cls-50" transform="translate(205.82 329.44)">F<tspan class="cls-58" x="4.92" y="0">R</tspan><tspan x="10.26" y="0">OM</tspan></text><text class="cls-50" transform="translate(450.87 329.44)">push</text><text class="cls-50" transform="translate(696.93 329.44)">pull</text><g class="cls-59"><rect class="cls-60" x="359.22" y="165.28" width="97.9" height="50" rx="4"/></g><text class="cls-34" transform="translate(379.29 186.39)">e<tspan class="cls-36" x="6.39" y="0">n</tspan><tspan x="13.95" y="0">c</tspan><tspan class="cls-61" x="20.27" y="0">r</tspan><tspan x="25.43" y="0">ypted </tspan><tspan class="cls-62" x="-6.53" y="18">P</tspan><tspan x="1.32" y="18">yt</tspan><tspan class="cls-36" x="12.9" y="18">h</tspan><tspan x="20.47" y="18">on code</tspan></text></g><g id="Ebene_4" data-name="Ebene 4"><line class="cls-63" x1="328.8" y1="105.76" x2="328.8" y2="293.96"/><polygon class="cls-29" points="323.08 289.32 324.1 288.37 328.8 293.42 333.5 288.37 334.53 289.32 328.8 295.48 323.08 289.32"/><line class="cls-63" x1="98.62" y1="142.47" x2="98.62" y2="293.96"/><polygon class="cls-29" points="92.9 289.32 93.92 288.37 98.62 293.42 103.32 288.37 104.35 289.32 98.62 295.48 92.9 289.32"/><line class="cls-33" x1="583.67" y1="116.89" x2="583.67" y2="132.43"/><polygon class="cls-15" points="577.94 127.79 578.97 126.84 583.67 131.9 588.37 126.84 589.39 127.79 583.67 133.95 577.94 127.79"/><polyline class="cls-33" points="584.67 237.11 584.67 274.53 729.82 274.53"/><polygon class="cls-15" points="725.18 280.25 724.22 279.23 729.28 274.53 724.22 269.83 725.18 268.8 731.34 274.53 725.18 280.25"/><line class="cls-63" x1="843.96" y1="135.47" x2="843.96" y2="223.81"/><polygon class="cls-29" points="838.24 219.17 839.26 218.21 843.96 223.27 848.66 218.21 849.69 219.17 843.96 225.32 838.24 219.17"/><line class="cls-33" x1="357.14" y1="79.7" x2="488.52" y2="79.7"/><polygon class="cls-15" points="483.88 85.43 482.93 84.4 487.98 79.7 482.93 75 483.88 73.98 490.04 79.7 483.88 85.43"/><polyline class="cls-63" points="357.04 93.06 408.46 93.06 408.46 139.56"/><polygon class="cls-29" points="402.73 134.93 403.76 133.97 408.45 139.03 413.16 133.97 414.18 134.93 408.45 141.08 402.73 134.93"/><polyline class="cls-63" points="409.1 237.12 409.1 274.53 358.4 274.53 358.4 293.96"/><polygon class="cls-29" points="352.67 289.32 353.7 288.37 358.4 293.42 363.1 288.37 364.12 289.32 358.4 295.48 352.67 289.32"/><line class="cls-16" x1="197.4" y1="335.49" x2="243.22" y2="335.49"/><polygon class="cls-64" points="238.58 341.21 237.62 340.19 242.68 335.49 237.62 330.79 238.58 329.76 244.73 335.49 238.58 341.21"/><line class="cls-16" x1="439.94" y1="335.49" x2="485.76" y2="335.49"/><polygon class="cls-64" points="481.13 341.21 480.17 340.19 485.23 335.49 480.17 330.79 481.13 329.76 487.28 335.49 481.13 341.21"/><line class="cls-16" x1="684" y1="335.49" x2="729.82" y2="335.49"/><polygon class="cls-64" points="725.18 341.21 724.22 340.19 729.28 335.49 724.22 330.79 725.18 329.76 731.34 335.49 725.18 341.21"/><text class="cls-41" transform="translate(541.47 82.94)">Security <tspan class="cls-43" x="50.92" y="0">P</tspan><tspan class="cls-11" x="58.61" y="0">o</tspan><tspan x="65.21" y="0">licy</tspan></text><text class="cls-41"><tspan x="531.58" y="205.81">CAS</tspan></text><path class="cls-65" d="M637.35,200.91H627.17a4.73,4.73,0,1,0,0,2.27h3l1.36,1.36,1.36-1.36H633l.86.87.8-.8,1.3,1.29,1.45-1.45,1.1-1Zm-16.57,2.39a1.25,1.25,0,1,1,1.25-1.25A1.25,1.25,0,0,1,620.78,203.3Z"/><path class="cls-64" d="M611.87,200.91H601.7a4.73,4.73,0,1,0,0,2.27h3l1.36,1.36,1.36-1.36h.18l.86.87.8-.8,1.3,1.29,1.45-1.45,1.09-1Zm-16.56,2.39a1.25,1.25,0,1,1,1.24-1.25A1.25,1.25,0,0,1,595.31,203.3Z"/><path class="cls-66" d="M586.07,200.91H575.89a4.73,4.73,0,1,0,0,2.27h3l1.35,1.36,1.36-1.36h.18l.86.87.8-.8,1.3,1.29,1.45-1.45,1.09-1ZM569.5,203.3a1.25,1.25,0,1,1,1.24-1.25A1.25,1.25,0,0,1,569.5,203.3Z"/></g></svg>