<svg xmlns="http://www.w3.org/2000/svg" xmlns:xlink="http://www.w3.org/1999/xlink" viewBox="0 0 756.51 522.64"><defs><style>.cls-1,.cls-14,.cls-2,.cls-44,.cls-45,.cls-7,.cls-9{fill:none;}.cls-2,.cls-37,.cls-9{stroke:#fc0;}.cls-14,.cls-2,.cls-44{stroke-miterlimit:10;}.cls-14,.cls-2,.cls-23,.cls-24,.cls-25,.cls-29,.cls-32,.cls-37,.cls-44,.cls-45,.cls-7,.cls-9{stroke-width:2px;}.cls-15,.cls-3{font-size:14px;}.cls-11,.cls-15,.cls-16,.cls-19,.cls-22,.cls-23,.cls-26,.cls-3,.cls-46{fill:#306;}.cls-3{font-family:PTSans-Bold, PT Sans;}.cls-16,.cls-19,.cls-22,.cls-26,.cls-3,.cls-34,.cls-40,.cls-46{font-weight:700;}.cls-4{letter-spacing:0em;}.cls-5{letter-spacing:-0.02em;}.cls-6{letter-spacing:-0.01em;}.cls-7{stroke:#f63;}.cls-23,.cls-24,.cls-25,.cls-29,.cls-32,.cls-37,.cls-45,.cls-7,.cls-9{stroke-linecap:round;stroke-linejoin:round;}.cls-8{fill:#f63;}.cls-10,.cls-34{fill:#fc0;}.cls-11{font-size:12px;}.cls-11,.cls-15{font-family:PTSans-Regular, PT Sans;}.cls-12{clip-path:url(#clip-path);}.cls-13{fill:#ffd138;}.cls-14{stroke:#c30;stroke-dasharray:2 2;}.cls-16,.cls-19,.cls-22{font-size:15px;}.cls-16,.cls-19,.cls-22,.cls-26,.cls-34,.cls-40,.cls-46{font-family:RobotoSlab-Bold, Roboto Slab;}.cls-16{letter-spacing:0.03em;}.cls-17{letter-spacing:-0.02em;}.cls-18{letter-spacing:0.01em;}.cls-19{letter-spacing:0.05em;}.cls-20{letter-spacing:0.04em;}.cls-21{letter-spacing:0.04em;}.cls-23{stroke:#fff;}.cls-23,.cls-32{opacity:0.4;}.cls-24,.cls-25,.cls-29,.cls-32,.cls-37,.cls-40{fill:#fff;}.cls-24,.cls-25,.cls-29,.cls-32,.cls-44,.cls-45{stroke:#306;}.cls-24{opacity:0.8;}.cls-26{font-size:12.24px;}.cls-27{letter-spacing:0em;}.cls-28{letter-spacing:0em;}.cls-29{opacity:0.6;}.cls-30{letter-spacing:-0.01em;}.cls-31{letter-spacing:-0.04em;}.cls-33{fill:url(#Unbenannter_Verlauf_12);}.cls-34,.cls-46{font-size:11px;}.cls-35{letter-spacing:-0.01em;}.cls-36{letter-spacing:0.01em;}.cls-38{clip-path:url(#clip-path-3);}.cls-39{fill:#fdfeff;}.cls-40{font-size:10px;}.cls-41{letter-spacing:0em;}.cls-42{letter-spacing:-0.01em;}.cls-43{letter-spacing:-0.01em;}.cls-47{fill:url(#Unbenannter_Verlauf_12-2);}.cls-48{clip-path:url(#clip-path-5);}</style><clipPath id="clip-path"><rect class="cls-1" x="52.14" y="20.74" width="52.6" height="10.3"/></clipPath><linearGradient id="Unbenannter_Verlauf_12" x1="249.1" y1="148.08" x2="374.76" y2="148.08" gradientUnits="userSpaceOnUse"><stop offset="0" stop-color="#906"/><stop offset="0.19" stop-color="#780066"/><stop offset="0.4" stop-color="#5a0066"/><stop offset="0.61" stop-color="#406"/><stop offset="0.81" stop-color="#370066"/><stop offset="1" stop-color="#306"/></linearGradient><clipPath id="clip-path-3"><rect class="cls-1" x="292.88" y="174.61" width="36.34" height="7.12"/></clipPath><linearGradient id="Unbenannter_Verlauf_12-2" x1="75.23" y1="148.08" x2="200.89" y2="148.08" xlink:href="#Unbenannter_Verlauf_12"/><clipPath id="clip-path-5"><rect class="cls-1" x="119" y="174.61" width="36.34" height="7.12"/></clipPath></defs><title>SCONE-CNAPP</title><g id="Ebene_2" data-name="Ebene 2"><rect class="cls-2" x="52.61" y="42.35" width="693.72" height="167.88" rx="5"/><text class="cls-3" transform="translate(129.51 78.83)">s<tspan class="cls-4" x="5.91" y="0">e</tspan><tspan x="12.95" y="0">cure </tspan><tspan class="cls-5" x="42.11" y="0">c</tspan><tspan x="47.94" y="0">ontainers </tspan><tspan class="cls-6" x="107.79" y="0">(</tspan><tspan x="112.22" y="0">trus</tspan><tspan class="cls-4" x="135.46" y="0">t</tspan><tspan x="140.28" y="0">ed)</tspan></text><path class="cls-7" d="M668.08,76.78h-4.25c-.58,0-.8-.22-.8-.8V69.52c0-.58.22-.81.8-.81h8.46c.54,0,.77.23.77.78V76c0,.55-.23.77-.77.77C670.87,76.82,669.46,76.78,668.08,76.78Z"/><path class="cls-7" d="M666.7,60.53a4.5,4.5,0,0,1,4.85.72,4.19,4.19,0,0,1-.23,6.43c-.31.25-.65.44-1,.7"/><path class="cls-8" d="M667.37,74h0v.87c0,.16.06.22.26.22h.83c.23,0,.29-.06.29-.25V73.25a.37.37,0,0,1,.23-.39,1.22,1.22,0,0,0,.61-1.44,1.55,1.55,0,0,0-1.45-1,1.65,1.65,0,0,0-1.61.87,1.2,1.2,0,0,0,.55,1.51.43.43,0,0,1,.26.48A5.86,5.86,0,0,1,667.37,74Z"/><path class="cls-9" d="M302.61,79.48h-4.24c-.58,0-.8-.23-.8-.81V72.21c0-.58.22-.8.8-.8h8.46c.54,0,.77.22.77.77v6.49c0,.55-.23.77-.77.77C305.41,79.51,304,79.48,302.61,79.48Z"/><path class="cls-9" d="M298.26,70.84a4.48,4.48,0,0,1,2.64-4.13,4.19,4.19,0,0,1,5.77,2.85c.1.39.14.77.24,1.19"/><path class="cls-10" d="M301.91,76.71h0v.87c0,.16.06.22.26.22H303c.23,0,.29-.06.29-.25V75.94a.37.37,0,0,1,.23-.39,1.21,1.21,0,0,0,.61-1.44,1.55,1.55,0,0,0-1.45-1,1.65,1.65,0,0,0-1.61.87,1.2,1.2,0,0,0,.55,1.51.43.43,0,0,1,.26.48A6,6,0,0,1,301.91,76.71Z"/><text class="cls-3" transform="translate(466.93 76.87)">standard <tspan class="cls-5" x="55.86" y="0">c</tspan><tspan x="61.68" y="0">ontainers (untrus</tspan><tspan class="cls-4" x="164.51" y="0">t</tspan><tspan x="169.33" y="0">ed)</tspan></text><text class="cls-11" transform="translate(107.77 31.11)">-based application</text><g id="Scone_logo_black" data-name="Scone logo black"><g class="cls-12"><g class="cls-12"><path class="cls-13" d="M59.11,23.35H58a.43.43,0,0,0-.43.43V24.9a.42.42,0,0,0,.43.42h1.1a.42.42,0,0,0,.42-.42V23.78a.42.42,0,0,0-.42-.43m-3.84,2h1.1a.42.42,0,0,0,.43-.42V23.78a.43.43,0,0,0-.43-.43h-1.1a.42.42,0,0,0-.42.43V24.9a.42.42,0,0,0,.42.42m-1.18-.42V23.78a.43.43,0,0,0-.43-.43h-1.1a.42.42,0,0,0-.42.43V24.9a.42.42,0,0,0,.42.42h1.1a.42.42,0,0,0,.43-.42m5.1,1.21a.32.32,0,0,0-.32.31v1.32a.32.32,0,1,0,.64,0V26.42a.3.3,0,0,0-.32-.31m-3,.42v1.12a.43.43,0,0,0,.43.43h1.1a.42.42,0,0,0,.42-.43V26.53a.42.42,0,0,0-.42-.42h-1.1a.42.42,0,0,0-.43.42m-.78,1.12V26.53a.42.42,0,0,0-.43-.42h-1.1a.42.42,0,0,0-.42.42v1.12a.42.42,0,0,0,.42.43H55a.43.43,0,0,0,.43-.43m3.73,1.21H58a.42.42,0,0,0-.43.42v1.13a.42.42,0,0,0,.43.42h1.1a.42.42,0,0,0,.42-.42V29.28a.42.42,0,0,0-.42-.42m-2.86,0h-1.1a.42.42,0,0,0-.43.42v1.13a.42.42,0,0,0,.43.42h1.1a.42.42,0,0,0,.42-.42V29.28a.42.42,0,0,0-.42-.42"/><path class="cls-13" d="M60.44,22.91a2.57,2.57,0,0,0,1.72.53s0,0,0,.08v3c0,1.17-1.42,1.89-1.76,2.08,0,0,0,0,0,0l0-5.68s0,0,0,0"/><path class="cls-13" d="M57.12,22.76c2.33-.09,2.71-.89,2.71-.89a.11.11,0,0,1,.1-.06s.09,0,.11,0,.36.87,2.69.87c.06,0,.08,0,.08.1v4c0,1.27-2.41,2.71-2.45,2.73s-.09.06-.09.08v1s.15.06.21,0c.89-.49,3.39-1.86,3.39-3.56V22c0-.09-.14-.15-.23-.15-3,0-3.52-1.08-3.52-1.08s-.12,0-.19,0-.1,0-.12,0-.49,1.12-3.44,1.12c-.1,0-.12,0-.12.13v.63s0,.15.08.15.79,0,.79,0"/><path d="M66.08,29.26l1.18-.44a1.64,1.64,0,0,0,1.55.89,1.78,1.78,0,0,0,.91-.21.74.74,0,0,0,.38-.64c0-.64-.87-1-1.5-1.27l0,0a5.66,5.66,0,0,1-1.38-.76,1.73,1.73,0,0,1-.68-1.4A1.85,1.85,0,0,1,67.2,24a2.66,2.66,0,0,1,1.76-.6,2.54,2.54,0,0,1,2.33,1.27l-1.23.47a1,1,0,0,0-.42-.45A1.83,1.83,0,0,0,69,24.5c-.68,0-1.15.36-1.15.84a1,1,0,0,0,.47.77,6.58,6.58,0,0,0,1.06.55l.15.06c.91.38,2,.87,2,2.1a1.76,1.76,0,0,1-.8,1.5,3.26,3.26,0,0,1-1.93.55,2.81,2.81,0,0,1-2.71-1.61"/><path d="M76.58,30.85a3.88,3.88,0,0,1-1.46-.29,3.66,3.66,0,0,1-1.18-.81,3.45,3.45,0,0,1-.81-1.19,3.81,3.81,0,0,1-.3-1.46,3.85,3.85,0,0,1,.3-1.46,3.55,3.55,0,0,1,.81-1.19,3.48,3.48,0,0,1,1.18-.8,3.89,3.89,0,0,1,1.46-.3,3.7,3.7,0,0,1,1.7.4,3.78,3.78,0,0,1,1.29,1.09l-1,.74a2.62,2.62,0,0,0-.87-.72,2.67,2.67,0,0,0-1.15-.28,2.52,2.52,0,0,0-1.78,4.3,2.44,2.44,0,0,0,1.78.74,2.37,2.37,0,0,0,1.27-.36,2.46,2.46,0,0,0,.91-.93l1.09.61a3.68,3.68,0,0,1-1.36,1.38,3.44,3.44,0,0,1-1.89.53"/><path d="M84.78,30.87a3.84,3.84,0,0,1-1.46-.29,3.55,3.55,0,0,1-1.19-.81,3.89,3.89,0,0,1-.8-1.19,3.81,3.81,0,0,1-.3-1.46,3.5,3.5,0,0,1,.3-1.46,4,4,0,0,1,.8-1.19,4,4,0,0,1,1.19-.8,3.85,3.85,0,0,1,1.46-.3,3.81,3.81,0,0,1,1.46.3,3.42,3.42,0,0,1,1.19.8,4,4,0,0,1,.81,1.19,3.82,3.82,0,0,1,0,2.92,3.92,3.92,0,0,1-.81,1.19,3.87,3.87,0,0,1-1.19.81,3.8,3.8,0,0,1-1.46.29m0-6.29a2.46,2.46,0,0,0-1.78.74,2.55,2.55,0,0,0-.74,1.78A2.45,2.45,0,0,0,83,28.88a2.47,2.47,0,0,0,1.78.74,2.44,2.44,0,0,0,1.78-.74,2.49,2.49,0,0,0,.74-1.78,2.53,2.53,0,0,0-2.52-2.52"/><polygon points="97.05 23.42 97.05 31.04 91.79 26.21 91.79 30.75 90.46 30.75 90.46 23.14 95.71 27.99 95.71 23.42 97.05 23.42"/><polygon points="100.63 24.54 100.63 26.49 104.29 26.49 104.29 27.63 100.63 27.63 100.63 29.6 104.74 29.6 104.74 30.75 99.29 30.75 99.29 23.42 104.74 23.42 104.74 24.56 100.63 24.56 100.63 24.54"/></g></g></g><circle class="cls-10" cx="214.45" cy="150.36" r="3.45"/><circle class="cls-10" cx="224.79" cy="150.36" r="3.45"/><circle class="cls-10" cx="235.13" cy="150.36" r="3.45"/><rect class="cls-14" x="52.61" y="258.89" width="693.72" height="137.87" rx="5"/><rect class="cls-14" x="52.61" y="445.28" width="693.72" height="60.19" rx="5"/><text class="cls-15" transform="translate(88.78 330.45)"><tspan class="cls-5">C</tspan><tspan x="7.76" y="0">aaS</tspan></text><text class="cls-15" transform="translate(88.78 478.89)">MaaS</text><text class="cls-16" transform="translate(30.23 181.94) rotate(-90)">SE<tspan class="cls-17" x="19.43" y="0">R</tspan><tspan x="29.46" y="0">VICE PR</tspan><tspan class="cls-18" x="91.05" y="0">O</tspan><tspan x="101.87" y="0">VIDER</tspan></text><text class="cls-19" transform="translate(30.23 454.27) rotate(-90)">C<tspan class="cls-20" x="10.47" y="0">L</tspan><tspan x="19.83" y="0">OUD PR</tspan><tspan class="cls-21" x="80.29" y="0">O</tspan><tspan x="91.48" y="0">VIDER</tspan></text><text class="cls-22" transform="translate(672.2 435.4)">Untrusted</text><path class="cls-7" d="M657.79,433.94h-4.24c-.58,0-.81-.23-.81-.81v-6.46c0-.58.23-.8.81-.8H662c.55,0,.77.22.77.77v6.49c0,.55-.22.78-.77.78C660.59,434,659.17,433.94,657.79,433.94Z"/><path class="cls-7" d="M656.42,417.69a4.48,4.48,0,0,1,4.85.71,4.21,4.21,0,0,1-.23,6.44c-.32.24-.65.43-1,.7"/><path class="cls-8" d="M657.08,431.17h0V432c0,.16.07.23.26.23h.84c.22,0,.28-.07.28-.26V430.4a.37.37,0,0,1,.23-.38,1.22,1.22,0,0,0,.61-1.45,1.55,1.55,0,0,0-1.45-1,1.64,1.64,0,0,0-1.6.87,1.19,1.19,0,0,0,.54,1.51.42.42,0,0,1,.26.49A5.7,5.7,0,0,1,657.08,431.17Z"/><text class="cls-22" transform="translate(672.2 249.02)">Untrusted</text><path class="cls-7" d="M658.79,247.56h-4.24c-.58,0-.81-.23-.81-.81v-6.46c0-.58.23-.8.81-.8H663c.55,0,.77.22.77.77v6.49c0,.55-.22.78-.77.78C661.59,247.59,660.17,247.56,658.79,247.56Z"/><path class="cls-7" d="M657.42,231.31a4.48,4.48,0,0,1,4.85.71,4.21,4.21,0,0,1-.23,6.44c-.32.24-.65.43-1,.7"/><path class="cls-8" d="M658.08,244.79h0v.87c0,.16.07.23.26.23h.84c.22,0,.28-.07.28-.26V244a.37.37,0,0,1,.23-.38,1.22,1.22,0,0,0,.61-1.45,1.55,1.55,0,0,0-1.45-1,1.64,1.64,0,0,0-1.6.87,1.19,1.19,0,0,0,.54,1.51.42.42,0,0,1,.26.49A5.7,5.7,0,0,1,658.08,244.79Z"/><circle class="cls-23" cx="514.68" cy="476.79" r="3.45"/><circle class="cls-23" cx="525.02" cy="476.79" r="3.45"/><circle class="cls-23" cx="535.36" cy="476.79" r="3.45"/><circle class="cls-23" cx="514.68" cy="366.46" r="3.45"/><circle class="cls-23" cx="525.02" cy="366.46" r="3.45"/><circle class="cls-23" cx="535.36" cy="366.46" r="3.45"/><circle class="cls-23" cx="514.68" cy="330.46" r="3.45"/><circle class="cls-23" cx="525.02" cy="330.46" r="3.45"/><circle class="cls-23" cx="535.36" cy="330.46" r="3.45"/><rect class="cls-24" x="181.9" y="313.47" width="142.63" height="30.61" rx="5"/><rect class="cls-25" x="181.9" y="274.05" width="529.33" height="30.61" rx="5"/><text class="cls-26" transform="translate(202.76 332.66)">Contai<tspan class="cls-27" x="37.8" y="0">n</tspan><tspan x="45.52" y="0">er E</tspan><tspan class="cls-27" x="68.01" y="0">n</tspan><tspan x="75.72" y="0">gi</tspan><tspan class="cls-28" x="86.66" y="0">n</tspan><tspan x="94.37" y="0">e</tspan></text><rect class="cls-29" x="181.9" y="351.15" width="142.63" height="30.61" rx="5"/><text class="cls-26" transform="translate(201.44 370.34)">Ope<tspan class="cls-30" x="22.59" y="0">r</tspan><tspan class="cls-31" x="27.63" y="0">a</tspan><tspan x="33.87" y="0">ti</tspan><tspan class="cls-27" x="42.38" y="0">n</tspan><tspan x="50.1" y="0">g System</tspan></text><rect class="cls-32" x="181.9" y="461.49" width="142.63" height="30.61" rx="5"/><text class="cls-26" transform="translate(239.56 480.68)">Host</text><rect class="cls-24" x="337.93" y="313.47" width="142.63" height="30.61" rx="5"/><text class="cls-26" transform="translate(358.79 332.66)">Contai<tspan class="cls-27" x="37.8" y="0">n</tspan><tspan x="45.52" y="0">er E</tspan><tspan class="cls-27" x="68.01" y="0">n</tspan><tspan x="75.72" y="0">gi</tspan><tspan class="cls-28" x="86.66" y="0">n</tspan><tspan x="94.37" y="0">e</tspan></text><text class="cls-26" transform="translate(395.73 294.44)">Contai<tspan class="cls-27" x="37.8" y="0">n</tspan><tspan x="45.52" y="0">er Swarm</tspan></text><rect class="cls-29" x="337.93" y="351.15" width="142.63" height="30.61" rx="5"/><text class="cls-26" transform="translate(357.47 370.34)">Ope<tspan class="cls-30" x="22.59" y="0">r</tspan><tspan class="cls-31" x="27.63" y="0">a</tspan><tspan x="33.87" y="0">ti</tspan><tspan class="cls-27" x="42.38" y="0">n</tspan><tspan x="50.1" y="0">g System</tspan></text><rect class="cls-32" x="337.93" y="461.49" width="142.63" height="30.61" rx="5"/><text class="cls-26" transform="translate(395.59 480.68)">Host</text><rect class="cls-24" x="567.63" y="313.47" width="142.63" height="30.61" rx="5"/><text class="cls-26" transform="translate(588.5 332.66)">Contai<tspan class="cls-27" x="37.8" y="0">n</tspan><tspan x="45.52" y="0">er E</tspan><tspan class="cls-27" x="68.01" y="0">n</tspan><tspan x="75.72" y="0">gi</tspan><tspan class="cls-28" x="86.66" y="0">n</tspan><tspan x="94.37" y="0">e</tspan></text><rect class="cls-29" x="567.63" y="351.15" width="142.63" height="30.61" rx="5"/><text class="cls-26" transform="translate(587.18 370.34)">Ope<tspan class="cls-30" x="22.59" y="0">r</tspan><tspan class="cls-31" x="27.63" y="0">a</tspan><tspan x="33.87" y="0">ti</tspan><tspan class="cls-27" x="42.38" y="0">n</tspan><tspan x="50.1" y="0">g System</tspan></text><rect class="cls-32" x="567.63" y="461.49" width="142.63" height="30.61" rx="5"/><text class="cls-26" transform="translate(625.29 480.68)">Host</text><path class="cls-25" d="M19,294.5a2.87,2.87,0,0,0-1.19,3.61c.86,2.25,3.62,1.26,3.62,1.26s-.06,5.13,5.2,4.57c3.85-.41,3.62-4.57,3.62-4.43,0,6.2.05-12.39,0-18.58a4.72,4.72,0,0,0-1-2.64A4,4,0,0,0,24.43,277c-1.83.66-2.78,3-2.88,4.88,0,0-4.88-1.11-7,2.41a6.63,6.63,0,0,0,.59,8.09A7.53,7.53,0,0,0,19,294.5Z"/><rect class="cls-33" x="249.1" y="108.36" width="125.66" height="79.45" rx="5"/><rect class="cls-2" x="249.1" y="108.36" width="125.66" height="79.45" rx="5"/><rect class="cls-9" x="261.88" y="136.64" width="99.26" height="27.21" rx="5"/><text class="cls-34" transform="translate(276.69 153.8)">Mic<tspan class="cls-35" x="19.7" y="0">r</tspan><tspan x="24.22" y="0">ose</tspan><tspan class="cls-36" x="41.91" y="0">r</tspan><tspan x="46.64" y="0">vice</tspan></text><path class="cls-37" d="M303.23,96.58a11.74,11.74,0,1,1-3.51,8.38,11.51,11.51,0,0,1,2.4-7.09"/><path class="cls-9" d="M311.48,110.61h-4.25c-.58,0-.8-.23-.8-.8v-6.47c0-.58.22-.8.8-.8h8.46c.55,0,.77.22.77.77v6.5c0,.54-.22.77-.77.77C314.27,110.64,312.86,110.61,311.48,110.61Z"/><path class="cls-9" d="M307.12,102a4.52,4.52,0,0,1,2.64-4.14,4.21,4.21,0,0,1,5.78,2.86c.09.38.13.77.23,1.18"/><path class="cls-10" d="M310.77,107.84h0v.87c0,.16.07.23.26.23h.84c.22,0,.28-.07.28-.26v-1.61a.37.37,0,0,1,.23-.38,1.21,1.21,0,0,0,.61-1.45,1.53,1.53,0,0,0-1.45-1,1.61,1.61,0,0,0-1.6.86,1.2,1.2,0,0,0,.54,1.52.41.41,0,0,1,.26.48A5.7,5.7,0,0,1,310.77,107.84Z"/><g id="Scone_logo_white" data-name="Scone logo white"><g class="cls-38"><g class="cls-38"><path class="cls-13" d="M297.69,176.42h-.76a.29.29,0,0,0-.29.29v.78a.29.29,0,0,0,.29.29h.76a.29.29,0,0,0,.29-.29v-.78a.29.29,0,0,0-.29-.29M295,177.78h.76a.3.3,0,0,0,.3-.29v-.78a.3.3,0,0,0-.3-.29H295a.29.29,0,0,0-.29.29v.78a.29.29,0,0,0,.29.29m-.82-.29v-.78a.29.29,0,0,0-.29-.29h-.76a.29.29,0,0,0-.29.29v.78a.29.29,0,0,0,.29.29h.76a.29.29,0,0,0,.29-.29m3.53.83a.22.22,0,0,0-.22.22v.91a.22.22,0,1,0,.44,0v-.91a.21.21,0,0,0-.22-.22m-2.09.29v.78a.29.29,0,0,0,.29.29h.76a.29.29,0,0,0,.29-.29v-.78a.29.29,0,0,0-.29-.29H296a.29.29,0,0,0-.29.29m-.54.78v-.78a.3.3,0,0,0-.3-.29h-.76a.29.29,0,0,0-.29.29v.78a.29.29,0,0,0,.29.29h.76a.3.3,0,0,0,.3-.29m2.57.83h-.76a.29.29,0,0,0-.29.29v.78a.29.29,0,0,0,.29.29h.76a.29.29,0,0,0,.29-.29v-.78a.29.29,0,0,0-.29-.29m-2,0H295a.29.29,0,0,0-.29.29v.78a.29.29,0,0,0,.29.29h.77a.29.29,0,0,0,.29-.29v-.78a.29.29,0,0,0-.29-.29"/><path class="cls-13" d="M298.61,176.11a1.76,1.76,0,0,0,1.19.37s0,0,0,.05v2.1c0,.8-1,1.3-1.21,1.43,0,0,0,0,0,0v-3.93s0,0,0,0"/><path class="cls-13" d="M296.32,176c1.61-.06,1.87-.62,1.87-.62a.07.07,0,0,1,.07,0s.06,0,.07,0,.25.6,1.86.6c.05,0,.06,0,.06.07v2.75c0,.88-1.67,1.88-1.7,1.89s-.05,0-.05.06v.69s.1,0,.14,0c.62-.34,2.34-1.29,2.34-2.46V175.5c0-.06-.1-.11-.16-.11-2.05,0-2.43-.74-2.43-.74s-.08,0-.13,0-.07,0-.09,0-.33.78-2.37.78c-.07,0-.08,0-.08.09v.43s0,.11,0,.11.55,0,.55,0"/><path class="cls-39" d="M302.51,180.5l.82-.31a1.12,1.12,0,0,0,1.06.62,1.2,1.2,0,0,0,.63-.15.49.49,0,0,0,.27-.44c0-.44-.6-.7-1-.88h0a3.43,3.43,0,0,1-1-.53,1.16,1.16,0,0,1-.47-1,1.27,1.27,0,0,1,.48-1,1.85,1.85,0,0,1,1.22-.41,1.76,1.76,0,0,1,1.61.88l-.85.32a.64.64,0,0,0-.3-.31,1.11,1.11,0,0,0-.46-.1c-.47,0-.79.25-.79.58a.66.66,0,0,0,.32.53,4.16,4.16,0,0,0,.73.38l.1,0c.63.27,1.41.6,1.41,1.45a1.21,1.21,0,0,1-.56,1,2.23,2.23,0,0,1-1.33.38,1.92,1.92,0,0,1-1.87-1.11"/><path class="cls-39" d="M309.76,181.6a2.73,2.73,0,0,1-1-.21,2.33,2.33,0,0,1-.81-.55,2.5,2.5,0,0,1-.56-.82,2.53,2.53,0,0,1,0-2,2.31,2.31,0,0,1,.56-.82,2.36,2.36,0,0,1,.81-.56,2.71,2.71,0,0,1,1-.2,2.44,2.44,0,0,1,1.18.28,2.54,2.54,0,0,1,.89.74l-.69.51a1.78,1.78,0,0,0-.6-.49,1.8,1.8,0,0,0-.79-.19A1.74,1.74,0,0,0,308,179a1.74,1.74,0,0,0,1.74,1.74,1.72,1.72,0,0,0,.88-.25,1.84,1.84,0,0,0,.63-.64l.74.42a2.5,2.5,0,0,1-.93.95,2.38,2.38,0,0,1-1.31.37"/><path class="cls-39" d="M315.43,181.61a2.67,2.67,0,0,1-1-.2,2.31,2.31,0,0,1-.82-.56A2.44,2.44,0,0,1,313,180a2.67,2.67,0,0,1-.2-1,2.5,2.5,0,0,1,.2-1,2.55,2.55,0,0,1,.56-.82,2.69,2.69,0,0,1,.82-.55,2.53,2.53,0,0,1,2,0,2.37,2.37,0,0,1,.82.55,2.69,2.69,0,0,1,.55.82,2.53,2.53,0,0,1,0,2,2.57,2.57,0,0,1-.55.82,2.72,2.72,0,0,1-.82.56,2.67,2.67,0,0,1-1,.2m0-4.34a1.66,1.66,0,0,0-1.23.51,1.74,1.74,0,0,0-.51,1.23,1.68,1.68,0,0,0,.51,1.23,1.74,1.74,0,0,0,2.46,0,1.74,1.74,0,0,0,0-2.46,1.74,1.74,0,0,0-1.23-.51"/><polygon class="cls-39" points="323.9 176.46 323.9 181.73 320.27 178.39 320.27 181.52 319.35 181.52 319.35 176.27 322.98 179.62 322.98 176.46 323.9 176.46"/><polygon class="cls-39" points="326.38 177.24 326.38 178.58 328.91 178.58 328.91 179.37 326.38 179.37 326.38 180.73 329.21 180.73 329.21 181.53 325.45 181.53 325.45 176.46 329.21 176.46 329.21 177.25 326.38 177.25 326.38 177.24"/></g></g></g><text class="cls-40" transform="translate(282.77 130.84)">SGX E<tspan class="cls-41" x="28.53" y="0">n</tspan><tspan x="34.83" y="0">cl</tspan><tspan class="cls-42" x="43.29" y="0">a</tspan><tspan class="cls-43" x="48.71" y="0">v</tspan><tspan x="54.34" y="0">e</tspan></text><rect class="cls-44" x="419.7" y="108.36" width="125.66" height="79.45" rx="5"/><rect class="cls-45" x="432.47" y="136.64" width="99.26" height="27.21" rx="5"/><text class="cls-46" transform="translate(447.29 153.8)">Mic<tspan class="cls-35" x="19.7" y="0">r</tspan><tspan x="24.22" y="0">ose</tspan><tspan class="cls-36" x="41.91" y="0">r</tspan><tspan x="46.64" y="0">vice</tspan></text><rect class="cls-44" x="595.87" y="108.36" width="125.66" height="79.45" rx="5"/><rect class="cls-45" x="608.64" y="136.64" width="99.26" height="27.21" rx="5"/><text class="cls-46" transform="translate(623.46 153.8)">Mic<tspan class="cls-35" x="19.7" y="0">r</tspan><tspan x="24.22" y="0">ose</tspan><tspan class="cls-36" x="41.91" y="0">r</tspan><tspan x="46.64" y="0">vice</tspan></text><rect class="cls-47" x="75.23" y="108.36" width="125.66" height="79.45" rx="5"/><rect class="cls-2" x="75.23" y="108.36" width="125.66" height="79.45" rx="5"/><rect class="cls-9" x="88.01" y="136.64" width="99.26" height="27.21" rx="5"/><text class="cls-34" transform="translate(102.82 153.8)">Mic<tspan class="cls-35" x="19.7" y="0">r</tspan><tspan x="24.22" y="0">ose</tspan><tspan class="cls-36" x="41.91" y="0">r</tspan><tspan x="46.64" y="0">vice</tspan></text><path class="cls-37" d="M129.36,96.58a11.73,11.73,0,1,1-3.52,8.38,11.51,11.51,0,0,1,2.4-7.09"/><path class="cls-9" d="M137.6,110.61h-4.24c-.58,0-.8-.23-.8-.8v-6.47c0-.58.22-.8.8-.8h8.46c.54,0,.77.22.77.77v6.5c0,.54-.23.77-.77.77C140.4,110.64,139,110.61,137.6,110.61Z"/><path class="cls-9" d="M133.25,102a4.51,4.51,0,0,1,2.64-4.14,4.19,4.19,0,0,1,5.77,2.86c.1.38.14.77.24,1.18"/><path class="cls-10" d="M136.9,107.84h0v.87c0,.16.06.23.26.23H138c.23,0,.29-.07.29-.26v-1.61a.35.35,0,0,1,.23-.38,1.21,1.21,0,0,0,.61-1.45,1.53,1.53,0,0,0-1.45-1,1.64,1.64,0,0,0-1.61.86,1.22,1.22,0,0,0,.55,1.52.41.41,0,0,1,.26.48A5.7,5.7,0,0,1,136.9,107.84Z"/><g id="Scone_logo_white-2" data-name="Scone logo white"><g class="cls-48"><g class="cls-48"><path class="cls-13" d="M123.82,176.42h-.76a.3.3,0,0,0-.3.29v.78a.3.3,0,0,0,.3.29h.76a.29.29,0,0,0,.29-.29v-.78a.29.29,0,0,0-.29-.29m-2.65,1.36h.76a.29.29,0,0,0,.29-.29v-.78a.29.29,0,0,0-.29-.29h-.76a.29.29,0,0,0-.29.29v.78a.29.29,0,0,0,.29.29m-.82-.29v-.78a.29.29,0,0,0-.29-.29h-.76a.3.3,0,0,0-.3.29v.78a.3.3,0,0,0,.3.29h.76a.29.29,0,0,0,.29-.29m3.53.83a.22.22,0,0,0-.22.22v.91a.23.23,0,0,0,.22.22.24.24,0,0,0,.22-.22v-.91a.21.21,0,0,0-.22-.22m-2.1.29v.78a.3.3,0,0,0,.3.29h.76a.29.29,0,0,0,.29-.29v-.78a.29.29,0,0,0-.29-.29h-.76a.3.3,0,0,0-.3.29m-.54.78v-.78a.29.29,0,0,0-.29-.29h-.76a.29.29,0,0,0-.29.29v.78a.29.29,0,0,0,.29.29H121a.29.29,0,0,0,.29-.29m2.58.83h-.76a.3.3,0,0,0-.3.29v.78a.3.3,0,0,0,.3.29h.76a.29.29,0,0,0,.29-.29v-.78a.29.29,0,0,0-.29-.29m-2,0h-.76a.29.29,0,0,0-.29.29v.78a.29.29,0,0,0,.29.29h.76a.3.3,0,0,0,.3-.29v-.78a.3.3,0,0,0-.3-.29"/><path class="cls-13" d="M124.74,176.11a1.71,1.71,0,0,0,1.19.37s0,0,0,.05v2.1c0,.8-1,1.3-1.21,1.43,0,0,0,0,0,0v-3.93s0,0,0,0"/><path class="cls-13" d="M122.44,176c1.61-.06,1.88-.62,1.88-.62a.07.07,0,0,1,.07,0s.06,0,.07,0,.25.6,1.86.6c0,0,.06,0,.06.07v2.75c0,.88-1.67,1.88-1.7,1.89s-.06,0-.06.06v.69s.11,0,.15,0c.61-.34,2.34-1.29,2.34-2.46V175.5c0-.06-.1-.11-.16-.11-2,0-2.43-.74-2.43-.74s-.09,0-.13,0-.07,0-.09,0-.34.78-2.37.78c-.07,0-.09,0-.09.09v.43s0,.11.06.11.54,0,.54,0"/><path class="cls-39" d="M128.63,180.5l.82-.31a1.13,1.13,0,0,0,1.07.62,1.2,1.2,0,0,0,.63-.15.48.48,0,0,0,.26-.44c0-.44-.6-.7-1-.88h0a3.64,3.64,0,0,1-1-.53,1.17,1.17,0,0,1-.46-1,1.27,1.27,0,0,1,.48-1,1.85,1.85,0,0,1,1.21-.41,1.74,1.74,0,0,1,1.61.88l-.85.32a.62.62,0,0,0-.29-.31,1.12,1.12,0,0,0-.47-.1c-.46,0-.79.25-.79.58a.67.67,0,0,0,.33.53,3.83,3.83,0,0,0,.73.38l.1,0c.63.27,1.4.6,1.4,1.45a1.22,1.22,0,0,1-.55,1,2.25,2.25,0,0,1-1.33.38,2,2,0,0,1-1.88-1.11"/><path class="cls-39" d="M135.89,181.6a2.68,2.68,0,0,1-1-.21,2.55,2.55,0,0,1-1.37-1.37,2.53,2.53,0,0,1,0-2,2.28,2.28,0,0,1,.55-.82,2.5,2.5,0,0,1,.82-.56,2.67,2.67,0,0,1,1-.2,2.38,2.38,0,0,1,1.17.28,2.58,2.58,0,0,1,.9.74l-.69.51a1.78,1.78,0,0,0-.6-.49,1.8,1.8,0,0,0-.79-.19,1.74,1.74,0,0,0-1.74,1.74,1.74,1.74,0,0,0,1.74,1.74,1.75,1.75,0,0,0,.88-.25,1.73,1.73,0,0,0,.62-.64l.75.42a2.45,2.45,0,0,1-.94.95,2.35,2.35,0,0,1-1.3.37"/><path class="cls-39" d="M141.56,181.61a2.64,2.64,0,0,1-1-.2,2.31,2.31,0,0,1-.82-.56,2.44,2.44,0,0,1-.56-.82,2.67,2.67,0,0,1-.2-1,2.34,2.34,0,0,1,.2-1,2.62,2.62,0,0,1,1.38-1.37,2.47,2.47,0,0,1,1-.21,2.54,2.54,0,0,1,1,.21,2.47,2.47,0,0,1,.82.55,2.57,2.57,0,0,1,.55,2.84,2.57,2.57,0,0,1-.55.82,2.52,2.52,0,0,1-1.83.76m0-4.34a1.66,1.66,0,0,0-1.23.51,1.71,1.71,0,0,0-.52,1.23,1.69,1.69,0,0,0,.52,1.23,1.72,1.72,0,0,0,1.23.51,1.74,1.74,0,0,0,1.23-3,1.78,1.78,0,0,0-1.23-.51"/><polygon class="cls-39" points="150.03 176.46 150.03 181.73 146.4 178.39 146.4 181.52 145.48 181.52 145.48 176.27 149.11 179.62 149.11 176.46 150.03 176.46"/><polygon class="cls-39" points="152.5 177.24 152.5 178.58 155.03 178.58 155.03 179.37 152.5 179.37 152.5 180.73 155.34 180.73 155.34 181.53 151.58 181.53 151.58 176.46 155.34 176.46 155.34 177.25 152.5 177.25 152.5 177.24"/></g></g></g><text class="cls-40" transform="translate(108.9 130.84)">SGX E<tspan class="cls-41" x="28.53" y="0">n</tspan><tspan x="34.83" y="0">cl</tspan><tspan class="cls-42" x="43.29" y="0">a</tspan><tspan class="cls-43" x="48.71" y="0">v</tspan><tspan x="54.34" y="0">e</tspan></text><circle class="cls-10" cx="560.15" cy="150.36" r="3.45"/><circle class="cls-10" cx="570.49" cy="150.36" r="3.45"/><circle class="cls-10" cx="580.83" cy="150.36" r="3.45"/></g></svg>