<svg xmlns="http://www.w3.org/2000/svg" xmlns:xlink="http://www.w3.org/1999/xlink" viewBox="0 0 756.51 451.15"><defs><style>.cls-1,.cls-17,.cls-19,.cls-35,.cls-36,.cls-4,.cls-41,.cls-5{fill:none;}.cls-2{fill:url(#Unbenannter_Verlauf_12);}.cls-24,.cls-3{fill:#fc0;}.cls-19,.cls-27,.cls-4{stroke:#fc0;}.cls-35,.cls-4,.cls-41,.cls-5{stroke-miterlimit:10;}.cls-17,.cls-19,.cls-20,.cls-21,.cls-27,.cls-35,.cls-36,.cls-4,.cls-41,.cls-5{stroke-width:2px;}.cls-5{stroke:#c30;stroke-dasharray:2 2;}.cls-6{font-size:14px;font-family:PTSans-Bold, PT Sans;}.cls-10,.cls-13,.cls-16,.cls-20,.cls-22,.cls-37,.cls-40,.cls-43,.cls-6{fill:#306;}.cls-10,.cls-13,.cls-16,.cls-22,.cls-24,.cls-31,.cls-37,.cls-6{font-weight:700;}.cls-7{letter-spacing:0em;}.cls-8{letter-spacing:-0.02em;}.cls-9{letter-spacing:-0.01em;}.cls-10,.cls-13,.cls-16{font-size:15px;}.cls-10,.cls-13,.cls-16,.cls-22,.cls-24,.cls-31,.cls-37{font-family:RobotoSlab-Bold, Roboto Slab;}.cls-10{letter-spacing:0.03em;}.cls-11{letter-spacing:-0.05em;}.cls-12{letter-spacing:0.03em;}.cls-13{letter-spacing:0.05em;}.cls-14{letter-spacing:0.04em;}.cls-15{letter-spacing:0.06em;}.cls-17{stroke:#f63;}.cls-17,.cls-19,.cls-20,.cls-21,.cls-27,.cls-36{stroke-linecap:round;stroke-linejoin:round;}.cls-18{fill:#f63;}.cls-20{stroke:#fff;}.cls-20,.cls-41{opacity:0.4;}.cls-21,.cls-27,.cls-31{fill:#fff;}.cls-21,.cls-35,.cls-36,.cls-41{stroke:#306;}.cls-22{font-size:12.24px;}.cls-23{fill:url(#Unbenannter_Verlauf_12-2);}.cls-24,.cls-37{font-size:11px;}.cls-25{letter-spacing:-0.01em;}.cls-26{letter-spacing:0.01em;}.cls-28{clip-path:url(#clip-path);}.cls-29{fill:#ffd138;}.cls-30{fill:#fdfeff;}.cls-31{font-size:10px;}.cls-32{letter-spacing:0em;}.cls-33{letter-spacing:-0.01em;}.cls-34{letter-spacing:-0.01em;}.cls-38{fill:url(#Unbenannter_Verlauf_12-3);}.cls-39{clip-path:url(#clip-path-3);}.cls-42{fill:url(#Unbenannter_Verlauf_12-4);}.cls-43{font-size:12px;font-family:PTSans-Regular, PT Sans;}.cls-44{clip-path:url(#clip-path-5);}.cls-45{letter-spacing:0em;}</style><linearGradient id="Unbenannter_Verlauf_12" x1="75.1" y1="402.96" x2="125.49" y2="402.96" gradientUnits="userSpaceOnUse"><stop offset="0" stop-color="#906"/><stop offset="0.19" stop-color="#780066"/><stop offset="0.4" stop-color="#5a0066"/><stop offset="0.61" stop-color="#406"/><stop offset="0.81" stop-color="#370066"/><stop offset="1" stop-color="#306"/></linearGradient><linearGradient id="Unbenannter_Verlauf_12-2" x1="249.1" y1="148.49" x2="374.76" y2="148.49" xlink:href="#Unbenannter_Verlauf_12"/><clipPath id="clip-path"><rect class="cls-1" x="292.88" y="175.02" width="36.34" height="7.12"/></clipPath><linearGradient id="Unbenannter_Verlauf_12-3" x1="75.23" y1="148.49" x2="200.89" y2="148.49" xlink:href="#Unbenannter_Verlauf_12"/><clipPath id="clip-path-3"><rect class="cls-1" x="119" y="175.02" width="36.34" height="7.12"/></clipPath><linearGradient id="Unbenannter_Verlauf_12-4" x1="250.77" y1="402.96" x2="301.16" y2="402.96" xlink:href="#Unbenannter_Verlauf_12"/><clipPath id="clip-path-5"><rect class="cls-1" x="52.14" y="20.74" width="52.6" height="10.3"/></clipPath></defs><title>SCONE-aosec</title><g id="Ebene_2" data-name="Ebene 2"><path class="cls-2" d="M125.49,418H80.1a5,5,0,0,1-5-5V393a5,5,0,0,1,5-5h45.39Z"/><circle class="cls-3" cx="214.45" cy="150.77" r="3.45"/><circle class="cls-3" cx="224.79" cy="150.77" r="3.45"/><circle class="cls-3" cx="235.13" cy="150.77" r="3.45"/><rect class="cls-4" x="52.61" y="42.35" width="693.72" height="167.88" rx="5"/><rect class="cls-5" x="52.61" y="254.48" width="693.72" height="70.28" rx="5"/><text class="cls-6" transform="translate(129.51 78.83)">s<tspan class="cls-7" x="5.91" y="0">e</tspan><tspan x="12.95" y="0">cure </tspan><tspan class="cls-8" x="42.11" y="0">c</tspan><tspan x="47.94" y="0">ontainers </tspan><tspan class="cls-9" x="107.79" y="0">(</tspan><tspan x="112.22" y="0">trus</tspan><tspan class="cls-7" x="135.46" y="0">t</tspan><tspan x="140.28" y="0">ed)</tspan></text><text class="cls-10" transform="translate(22.57 207.22) rotate(-90)">APPLIC<tspan class="cls-11" x="56.16" y="0">A</tspan><tspan x="66.21" y="0">TION-ORIENTED</tspan><tspan x="56.58" y="18">SECURI</tspan><tspan class="cls-12" x="114.09" y="18">T</tspan><tspan x="124.67" y="18">Y</tspan></text><text class="cls-13" transform="translate(30.23 432.83) rotate(-90)">C<tspan class="cls-14" x="10.47" y="0">L</tspan><tspan x="19.83" y="0">OUD SECURI</tspan><tspan class="cls-15" x="118.53" y="0">T</tspan><tspan x="129.49" y="0">Y</tspan></text><text class="cls-16" transform="translate(672.2 245.93)">Untrusted</text><path class="cls-17" d="M658.79,244.47h-4.24c-.58,0-.81-.22-.81-.8v-6.46c0-.58.23-.81.81-.81H663c.55,0,.77.23.77.78v6.49c0,.55-.22.77-.77.77C661.59,244.51,660.17,244.47,658.79,244.47Z"/><path class="cls-17" d="M657.42,228.22a4.52,4.52,0,0,1,4.85.71,4.21,4.21,0,0,1-.23,6.44c-.32.25-.65.44-1,.7"/><path class="cls-18" d="M658.08,241.71h0v.87c0,.16.07.22.26.22h.84c.22,0,.28-.06.28-.26v-1.6a.39.39,0,0,1,.23-.39,1.21,1.21,0,0,0,.61-1.45,1.54,1.54,0,0,0-1.45-1,1.62,1.62,0,0,0-1.6.87,1.19,1.19,0,0,0,.54,1.51.42.42,0,0,1,.26.48A5.86,5.86,0,0,1,658.08,241.71Z"/><rect class="cls-5" x="52.61" y="367.08" width="693.72" height="70.28" rx="5"/><text class="cls-16" transform="translate(672.2 358.53)">Untrusted</text><path class="cls-17" d="M658.79,357.07h-4.24c-.58,0-.81-.23-.81-.8V349.8c0-.58.23-.8.81-.8H663c.55,0,.77.22.77.77v6.5c0,.54-.22.77-.77.77C661.59,357.1,660.17,357.07,658.79,357.07Z"/><path class="cls-17" d="M657.42,340.82a4.5,4.5,0,0,1,4.85.71A4.21,4.21,0,0,1,662,348c-.32.25-.65.44-1,.7"/><path class="cls-18" d="M658.08,354.3h0v.87c0,.16.07.23.26.23h.84c.22,0,.28-.07.28-.26v-1.61a.37.37,0,0,1,.23-.38,1.21,1.21,0,0,0,.61-1.45,1.53,1.53,0,0,0-1.45-1,1.61,1.61,0,0,0-1.6.86,1.19,1.19,0,0,0,.54,1.51.42.42,0,0,1,.26.49A5.7,5.7,0,0,1,658.08,354.3Z"/><path class="cls-17" d="M668.08,76.78h-4.25c-.58,0-.8-.22-.8-.8V69.52c0-.58.22-.81.8-.81h8.46c.54,0,.77.23.77.78V76c0,.55-.23.77-.77.77C670.87,76.82,669.46,76.78,668.08,76.78Z"/><path class="cls-17" d="M666.7,60.53a4.5,4.5,0,0,1,4.85.72,4.19,4.19,0,0,1-.23,6.43c-.31.25-.65.44-1,.7"/><path class="cls-18" d="M667.37,74h0v.87c0,.16.06.22.26.22h.83c.23,0,.29-.06.29-.25V73.25a.37.37,0,0,1,.23-.39,1.22,1.22,0,0,0,.61-1.44,1.55,1.55,0,0,0-1.45-1,1.65,1.65,0,0,0-1.61.87,1.2,1.2,0,0,0,.55,1.51.43.43,0,0,1,.26.48A5.86,5.86,0,0,1,667.37,74Z"/><path class="cls-19" d="M302.61,79.48h-4.24c-.58,0-.8-.23-.8-.81V72.21c0-.58.22-.8.8-.8h8.46c.54,0,.77.22.77.77v6.49c0,.55-.23.77-.77.77C305.41,79.51,304,79.48,302.61,79.48Z"/><path class="cls-19" d="M298.26,70.84a4.48,4.48,0,0,1,2.64-4.13,4.19,4.19,0,0,1,5.77,2.85c.1.39.14.77.24,1.19"/><path class="cls-3" d="M301.91,76.71h0v.87c0,.16.06.22.26.22H303c.23,0,.29-.06.29-.25V75.94a.37.37,0,0,1,.23-.39,1.21,1.21,0,0,0,.61-1.44,1.55,1.55,0,0,0-1.45-1,1.65,1.65,0,0,0-1.61.87,1.2,1.2,0,0,0,.55,1.51.43.43,0,0,1,.26.48A6,6,0,0,1,301.91,76.71Z"/><circle class="cls-20" cx="215.15" cy="402.96" r="3.45"/><circle class="cls-20" cx="225.49" cy="402.96" r="3.45"/><circle class="cls-20" cx="235.83" cy="402.96" r="3.45"/><rect class="cls-21" x="75.57" y="274.05" width="645.45" height="30.61" rx="5"/><text class="cls-22" transform="translate(144.97 407.55)">Host</text><path class="cls-21" d="M19,273.05a2.87,2.87,0,0,0-1.19,3.61c.86,2.25,3.62,1.26,3.62,1.26s-.06,5.14,5.2,4.57c3.85-.41,3.62-4.57,3.62-4.43,0,6.2.05-12.38,0-18.58a4.66,4.66,0,0,0-1-2.63,4,4,0,0,0-4.74-1.29c-1.83.65-2.78,2.95-2.88,4.87,0,0-4.88-1.1-7,2.41a6.65,6.65,0,0,0,.59,8.1A7.51,7.51,0,0,0,19,273.05Z"/><rect class="cls-23" x="249.1" y="108.76" width="125.66" height="79.45" rx="5"/><rect class="cls-4" x="249.1" y="108.76" width="125.66" height="79.45" rx="5"/><rect class="cls-19" x="261.88" y="137.04" width="99.26" height="27.21" rx="5"/><text class="cls-24" transform="translate(276.69 154.2)">Mic<tspan class="cls-25" x="19.7" y="0">r</tspan><tspan x="24.22" y="0">ose</tspan><tspan class="cls-26" x="41.91" y="0">r</tspan><tspan x="46.64" y="0">vice</tspan></text><path class="cls-27" d="M303.23,97a11.74,11.74,0,1,1-3.51,8.38,11.54,11.54,0,0,1,2.4-7.1"/><path class="cls-19" d="M311.48,111h-4.25c-.58,0-.8-.22-.8-.8v-6.46c0-.58.22-.81.8-.81h8.46c.55,0,.77.23.77.78v6.49c0,.55-.22.77-.77.77C314.27,111.05,312.86,111,311.48,111Z"/><path class="cls-19" d="M307.12,102.38a4.51,4.51,0,0,1,2.64-4.13,4.2,4.2,0,0,1,5.78,2.85c.09.38.13.77.23,1.19"/><path class="cls-3" d="M310.77,108.25h0v.87c0,.16.07.22.26.22h.84c.22,0,.28-.06.28-.25v-1.61a.39.39,0,0,1,.23-.39,1.21,1.21,0,0,0,.61-1.45,1.54,1.54,0,0,0-1.45-1,1.62,1.62,0,0,0-1.6.87,1.19,1.19,0,0,0,.54,1.51.42.42,0,0,1,.26.48A5.86,5.86,0,0,1,310.77,108.25Z"/><g id="Scone_logo_white" data-name="Scone logo white"><g class="cls-28"><g class="cls-28"><path class="cls-29" d="M297.69,176.82h-.76a.29.29,0,0,0-.29.29v.78a.29.29,0,0,0,.29.29h.76a.29.29,0,0,0,.29-.29v-.78a.29.29,0,0,0-.29-.29M295,178.18h.76a.3.3,0,0,0,.3-.29v-.78a.3.3,0,0,0-.3-.29H295a.29.29,0,0,0-.29.29v.78a.29.29,0,0,0,.29.29m-.82-.29v-.78a.29.29,0,0,0-.29-.29h-.76a.29.29,0,0,0-.29.29v.78a.29.29,0,0,0,.29.29h.76a.29.29,0,0,0,.29-.29m3.53.83a.23.23,0,0,0-.22.22v.91a.22.22,0,1,0,.44,0v-.91a.22.22,0,0,0-.22-.22m-2.09.3v.77a.29.29,0,0,0,.29.29h.76a.29.29,0,0,0,.29-.29V179a.3.3,0,0,0-.29-.3H296a.3.3,0,0,0-.29.3m-.54.77V179a.31.31,0,0,0-.3-.3h-.76a.3.3,0,0,0-.29.3v.77a.29.29,0,0,0,.29.29h.76a.3.3,0,0,0,.3-.29m2.57.84h-.76a.29.29,0,0,0-.29.29v.77a.29.29,0,0,0,.29.3h.76a.29.29,0,0,0,.29-.3v-.77a.29.29,0,0,0-.29-.29m-2,0H295a.29.29,0,0,0-.29.29v.77a.29.29,0,0,0,.29.3h.77a.29.29,0,0,0,.29-.3v-.77a.29.29,0,0,0-.29-.29"/><path class="cls-29" d="M298.61,176.51a1.76,1.76,0,0,0,1.19.37s0,0,0,.06V179c0,.81-1,1.3-1.21,1.44a0,0,0,0,1,0,0v-3.92s0,0,0,0"/><path class="cls-29" d="M296.32,176.41c1.61-.06,1.87-.61,1.87-.61a.08.08,0,0,1,.07-.05s.06,0,.07,0,.25.6,1.86.6c.05,0,.06,0,.06.08v2.75c0,.87-1.67,1.87-1.7,1.88s-.05,0-.05.06v.69s.1,0,.14,0c.62-.34,2.34-1.29,2.34-2.46V175.9c0-.06-.1-.1-.16-.1-2.05,0-2.43-.75-2.43-.75s-.08,0-.13,0-.07,0-.09,0-.33.77-2.37.77c-.07,0-.08,0-.08.09v.44s0,.1,0,.1l.55,0"/><path class="cls-30" d="M302.51,180.9l.82-.3a1.11,1.11,0,0,0,1.06.61,1.2,1.2,0,0,0,.63-.14.51.51,0,0,0,.27-.44c0-.44-.6-.71-1-.88l0,0a3.68,3.68,0,0,1-1-.52,1.19,1.19,0,0,1-.47-1,1.29,1.29,0,0,1,.48-1,1.91,1.91,0,0,1,1.22-.41,1.76,1.76,0,0,1,1.61.88l-.85.32a.69.69,0,0,0-.3-.31,1.3,1.3,0,0,0-.46-.1c-.47,0-.79.25-.79.59a.64.64,0,0,0,.32.52,3.58,3.58,0,0,0,.73.38l.1.05c.63.26,1.41.6,1.41,1.45a1.22,1.22,0,0,1-.56,1,2.3,2.3,0,0,1-1.33.38,1.94,1.94,0,0,1-1.87-1.12"/><path class="cls-30" d="M309.76,182a2.71,2.71,0,0,1-1-.2,2.36,2.36,0,0,1-.81-.56,2.31,2.31,0,0,1-.56-.82,2.53,2.53,0,0,1,0-2,2.4,2.4,0,0,1,.56-.82,2.33,2.33,0,0,1,.81-.55,2.58,2.58,0,0,1,2.19.07,2.57,2.57,0,0,1,.89.75l-.69.51a1.75,1.75,0,0,0-1.39-.69,1.7,1.7,0,0,0-1.23.51,1.66,1.66,0,0,0-.51,1.23,1.69,1.69,0,0,0,.51,1.23,1.66,1.66,0,0,0,1.23.51,1.63,1.63,0,0,0,.88-.25,1.84,1.84,0,0,0,.63-.64l.74.42a2.59,2.59,0,0,1-.93,1,2.46,2.46,0,0,1-1.31.36"/><path class="cls-30" d="M315.43,182a2.68,2.68,0,0,1-1-.21,2.42,2.42,0,0,1-.82-.55,2.66,2.66,0,0,1-.56-.82,2.71,2.71,0,0,1-.2-1,2.52,2.52,0,0,1,.76-1.83,2.72,2.72,0,0,1,.82-.56,2.65,2.65,0,0,1,2,0,2.4,2.4,0,0,1,.82.56,2.57,2.57,0,0,1,.55.82,2.47,2.47,0,0,1,.21,1,2.54,2.54,0,0,1-.21,1,2.81,2.81,0,0,1-.55.82,2.88,2.88,0,0,1-.82.55,2.68,2.68,0,0,1-1,.21m0-4.35a1.7,1.7,0,0,0-1.23.51,1.74,1.74,0,0,0-.51,1.23,1.74,1.74,0,0,0,1.74,1.74,1.69,1.69,0,0,0,1.23-.51,1.74,1.74,0,0,0,.51-1.23,1.78,1.78,0,0,0-.51-1.23,1.74,1.74,0,0,0-1.23-.51"/><polygon class="cls-30" points="323.9 176.87 323.9 182.13 320.27 178.8 320.27 181.93 319.35 181.93 319.35 176.68 322.98 180.03 322.98 176.87 323.9 176.87"/><polygon class="cls-30" points="326.38 177.64 326.38 178.99 328.91 178.99 328.91 179.78 326.38 179.78 326.38 181.14 329.21 181.14 329.21 181.93 325.45 181.93 325.45 176.87 329.21 176.87 329.21 177.66 326.38 177.66 326.38 177.64"/></g></g></g><text class="cls-31" transform="translate(282.77 131.24)">SGX E<tspan class="cls-32" x="28.53" y="0">n</tspan><tspan x="34.83" y="0">cl</tspan><tspan class="cls-33" x="43.29" y="0">a</tspan><tspan class="cls-34" x="48.71" y="0">v</tspan><tspan x="54.34" y="0">e</tspan></text><rect class="cls-35" x="419.7" y="108.61" width="125.66" height="79.45" rx="5"/><rect class="cls-36" x="432.47" y="136.89" width="99.26" height="27.21" rx="5"/><text class="cls-37" transform="translate(447.29 154.06)">Mic<tspan class="cls-25" x="19.7" y="0">r</tspan><tspan x="24.22" y="0">ose</tspan><tspan class="cls-26" x="41.91" y="0">r</tspan><tspan x="46.64" y="0">vice</tspan></text><rect class="cls-35" x="595.87" y="108.61" width="125.66" height="79.45" rx="5"/><rect class="cls-36" x="608.64" y="136.89" width="99.26" height="27.21" rx="5"/><text class="cls-37" transform="translate(623.46 154.06)">Mic<tspan class="cls-25" x="19.7" y="0">r</tspan><tspan x="24.22" y="0">ose</tspan><tspan class="cls-26" x="41.91" y="0">r</tspan><tspan x="46.64" y="0">vice</tspan></text><rect class="cls-38" x="75.23" y="108.76" width="125.66" height="79.45" rx="5"/><rect class="cls-4" x="75.23" y="108.76" width="125.66" height="79.45" rx="5"/><rect class="cls-19" x="88.01" y="137.04" width="99.26" height="27.21" rx="5"/><text class="cls-24" transform="translate(102.82 154.2)">Mic<tspan class="cls-25" x="19.7" y="0">r</tspan><tspan x="24.22" y="0">ose</tspan><tspan class="cls-26" x="41.91" y="0">r</tspan><tspan x="46.64" y="0">vice</tspan></text><path class="cls-27" d="M129.36,97a11.73,11.73,0,1,1-3.52,8.38,11.54,11.54,0,0,1,2.4-7.1"/><path class="cls-19" d="M137.6,111h-4.24c-.58,0-.8-.22-.8-.8v-6.46c0-.58.22-.81.8-.81h8.46c.54,0,.77.23.77.78v6.49c0,.55-.23.77-.77.77C140.4,111.05,139,111,137.6,111Z"/><path class="cls-19" d="M133.25,102.38a4.49,4.49,0,0,1,2.64-4.13,4.19,4.19,0,0,1,5.77,2.85c.1.38.14.77.24,1.19"/><path class="cls-3" d="M136.9,108.25h0v.87c0,.16.06.22.26.22H138c.23,0,.29-.06.29-.25v-1.61a.37.37,0,0,1,.23-.39,1.21,1.21,0,0,0,.61-1.45,1.54,1.54,0,0,0-1.45-1,1.65,1.65,0,0,0-1.61.87,1.2,1.2,0,0,0,.55,1.51.42.42,0,0,1,.26.48A5.86,5.86,0,0,1,136.9,108.25Z"/><g id="Scone_logo_white-2" data-name="Scone logo white"><g class="cls-39"><g class="cls-39"><path class="cls-29" d="M123.82,176.82h-.76a.3.3,0,0,0-.3.29v.78a.3.3,0,0,0,.3.29h.76a.29.29,0,0,0,.29-.29v-.78a.29.29,0,0,0-.29-.29m-2.65,1.36h.76a.29.29,0,0,0,.29-.29v-.78a.29.29,0,0,0-.29-.29h-.76a.29.29,0,0,0-.29.29v.78a.29.29,0,0,0,.29.29m-.82-.29v-.78a.29.29,0,0,0-.29-.29h-.76a.3.3,0,0,0-.3.29v.78a.3.3,0,0,0,.3.29h.76a.29.29,0,0,0,.29-.29m3.53.83a.23.23,0,0,0-.22.22v.91a.22.22,0,0,0,.22.22.23.23,0,0,0,.22-.22v-.91a.22.22,0,0,0-.22-.22m-2.1.3v.77a.3.3,0,0,0,.3.29h.76a.29.29,0,0,0,.29-.29V179a.3.3,0,0,0-.29-.3h-.76a.31.31,0,0,0-.3.3m-.54.77V179a.3.3,0,0,0-.29-.3h-.76a.3.3,0,0,0-.29.3v.77a.29.29,0,0,0,.29.29H121a.29.29,0,0,0,.29-.29m2.58.84h-.76a.3.3,0,0,0-.3.29v.77a.3.3,0,0,0,.3.3h.76a.29.29,0,0,0,.29-.3v-.77a.29.29,0,0,0-.29-.29m-2,0h-.76a.29.29,0,0,0-.29.29v.77a.29.29,0,0,0,.29.3h.76a.3.3,0,0,0,.3-.3v-.77a.3.3,0,0,0-.3-.29"/><path class="cls-29" d="M124.74,176.51a1.71,1.71,0,0,0,1.19.37s0,0,0,.06V179c0,.81-1,1.3-1.21,1.44a0,0,0,0,1,0,0v-3.92s0,0,0,0"/><path class="cls-29" d="M122.44,176.41c1.61-.06,1.88-.61,1.88-.61a.08.08,0,0,1,.07-.05s.06,0,.07,0,.25.6,1.86.6c0,0,.06,0,.06.08v2.75c0,.87-1.67,1.87-1.7,1.88s-.06,0-.06.06v.69s.11,0,.15,0c.61-.34,2.34-1.29,2.34-2.46V175.9c0-.06-.1-.1-.16-.1-2,0-2.43-.75-2.43-.75s-.09,0-.13,0-.07,0-.09,0-.34.77-2.37.77c-.07,0-.09,0-.09.09v.44s0,.1.06.1l.54,0"/><path class="cls-30" d="M128.63,180.9l.82-.3a1.12,1.12,0,0,0,1.07.61,1.2,1.2,0,0,0,.63-.14.5.5,0,0,0,.26-.44c0-.44-.6-.71-1-.88l0,0a3.91,3.91,0,0,1-1-.52,1.2,1.2,0,0,1-.46-1,1.29,1.29,0,0,1,.48-1,1.9,1.9,0,0,1,1.21-.41,1.74,1.74,0,0,1,1.61.88l-.85.32a.67.67,0,0,0-.29-.31,1.3,1.3,0,0,0-.47-.1c-.46,0-.79.25-.79.59a.66.66,0,0,0,.33.52,3.34,3.34,0,0,0,.73.38l.1.05c.63.26,1.4.6,1.4,1.45a1.23,1.23,0,0,1-.55,1,2.32,2.32,0,0,1-1.33.38,2,2,0,0,1-1.88-1.12"/><path class="cls-30" d="M135.89,182a2.67,2.67,0,0,1-1-.2,2.5,2.5,0,0,1-.82-.56,2.28,2.28,0,0,1-.55-.82,2.53,2.53,0,0,1,0-2,2.37,2.37,0,0,1,.55-.82,2.47,2.47,0,0,1,.82-.55,2.56,2.56,0,0,1,2.18.07,2.6,2.6,0,0,1,.9.75l-.69.51a1.75,1.75,0,0,0-1.39-.69,1.7,1.7,0,0,0-1.23.51,1.66,1.66,0,0,0-.51,1.23,1.69,1.69,0,0,0,.51,1.23,1.71,1.71,0,0,0,2.11.26,1.73,1.73,0,0,0,.62-.64l.75.42a2.55,2.55,0,0,1-.94,1,2.42,2.42,0,0,1-1.3.36"/><path class="cls-30" d="M141.56,182a2.64,2.64,0,0,1-1-.21,2.42,2.42,0,0,1-.82-.55,2.66,2.66,0,0,1-.56-.82,2.71,2.71,0,0,1-.2-1,2.31,2.31,0,0,1,.2-1,2.44,2.44,0,0,1,.56-.82,2.6,2.6,0,0,1,.82-.56,2.64,2.64,0,0,1,1-.2,2.71,2.71,0,0,1,1,.2,2.5,2.5,0,0,1,.82.56,2.57,2.57,0,0,1,.55.82,2.64,2.64,0,0,1,.21,1,2.73,2.73,0,0,1-.21,1,2.81,2.81,0,0,1-.55.82,2.88,2.88,0,0,1-.82.55,2.73,2.73,0,0,1-1,.21m0-4.35a1.76,1.76,0,0,0-1.75,1.74,1.76,1.76,0,0,0,1.75,1.74,1.71,1.71,0,0,0,1.23-.51,1.74,1.74,0,0,0,.51-1.23,1.74,1.74,0,0,0-1.74-1.74"/><polygon class="cls-30" points="150.03 176.87 150.03 182.13 146.4 178.8 146.4 181.93 145.48 181.93 145.48 176.68 149.11 180.03 149.11 176.87 150.03 176.87"/><polygon class="cls-30" points="152.5 177.64 152.5 178.99 155.03 178.99 155.03 179.78 152.5 179.78 152.5 181.14 155.34 181.14 155.34 181.93 151.58 181.93 151.58 176.87 155.34 176.87 155.34 177.66 152.5 177.66 152.5 177.64"/></g></g></g><text class="cls-31" transform="translate(108.9 131.24)">SGX E<tspan class="cls-32" x="28.53" y="0">n</tspan><tspan x="34.83" y="0">cl</tspan><tspan class="cls-33" x="43.29" y="0">a</tspan><tspan class="cls-34" x="48.71" y="0">v</tspan><tspan x="54.34" y="0">e</tspan></text><text class="cls-31" transform="translate(89.41 407.18)">SGX </text><circle class="cls-40" cx="560.15" cy="150.62" r="3.45"/><circle class="cls-40" cx="570.49" cy="150.62" r="3.45"/><circle class="cls-40" cx="580.83" cy="150.62" r="3.45"/><text class="cls-6" transform="translate(466.93 76.87)">standard <tspan class="cls-8" x="55.86" y="0">c</tspan><tspan x="61.68" y="0">ontainers (untrus</tspan><tspan class="cls-7" x="164.51" y="0">t</tspan><tspan x="169.33" y="0">ed)</tspan></text><rect class="cls-41" x="74.83" y="387.67" width="125.66" height="30" rx="5"/><path class="cls-42" d="M301.16,418H255.77a5,5,0,0,1-5-5V393a5,5,0,0,1,5-5h45.39Z"/><text class="cls-22" transform="translate(320.65 407.55)">Host</text><text class="cls-31" transform="translate(265.09 407.18)">SGX </text><rect class="cls-41" x="250.51" y="387.67" width="125.66" height="30" rx="5"/><circle class="cls-20" cx="559.07" cy="402.96" r="3.45"/><circle class="cls-20" cx="569.41" cy="402.96" r="3.45"/><circle class="cls-20" cx="579.75" cy="402.96" r="3.45"/><text class="cls-22" transform="translate(468.25 407.55)">Host</text><text class="cls-31" transform="translate(433.34 407.18)">SGX </text><rect class="cls-41" x="418.75" y="387.67" width="125.66" height="30" rx="5"/><text class="cls-22" transform="translate(643.13 407.55)">Host</text><text class="cls-31" transform="translate(609.01 407.18)">SGX </text><rect class="cls-41" x="594.43" y="387.67" width="125.66" height="30" rx="5"/><text class="cls-43" transform="translate(107.77 31.11)">-based application</text><g id="Scone_logo_black" data-name="Scone logo black"><g class="cls-44"><g class="cls-44"><path class="cls-29" d="M59.11,23.35H58a.43.43,0,0,0-.43.43V24.9a.42.42,0,0,0,.43.42h1.1a.42.42,0,0,0,.42-.42V23.78a.42.42,0,0,0-.42-.43m-3.84,2h1.1a.42.42,0,0,0,.43-.42V23.78a.43.43,0,0,0-.43-.43h-1.1a.42.42,0,0,0-.42.43V24.9a.42.42,0,0,0,.42.42m-1.18-.42V23.78a.43.43,0,0,0-.43-.43h-1.1a.42.42,0,0,0-.42.43V24.9a.42.42,0,0,0,.42.42h1.1a.42.42,0,0,0,.43-.42m5.1,1.21a.32.32,0,0,0-.32.31v1.32a.32.32,0,1,0,.64,0V26.42a.3.3,0,0,0-.32-.31m-3,.42v1.12a.43.43,0,0,0,.43.43h1.1a.42.42,0,0,0,.42-.43V26.53a.42.42,0,0,0-.42-.42h-1.1a.42.42,0,0,0-.43.42m-.78,1.12V26.53a.42.42,0,0,0-.43-.42h-1.1a.42.42,0,0,0-.42.42v1.12a.42.42,0,0,0,.42.43H55a.43.43,0,0,0,.43-.43m3.73,1.21H58a.42.42,0,0,0-.43.42v1.13a.42.42,0,0,0,.43.42h1.1a.42.42,0,0,0,.42-.42V29.28a.42.42,0,0,0-.42-.42m-2.86,0h-1.1a.42.42,0,0,0-.43.42v1.13a.42.42,0,0,0,.43.42h1.1a.42.42,0,0,0,.42-.42V29.28a.42.42,0,0,0-.42-.42"/><path class="cls-29" d="M60.44,22.91a2.57,2.57,0,0,0,1.72.53s0,0,0,.08v3c0,1.17-1.42,1.89-1.76,2.08,0,0,0,0,0,0l0-5.68s0,0,0,0"/><path class="cls-29" d="M57.12,22.76c2.33-.09,2.71-.89,2.71-.89a.11.11,0,0,1,.1-.06s.09,0,.11,0,.36.87,2.69.87c.06,0,.08,0,.08.1v4c0,1.27-2.41,2.71-2.45,2.73s-.09.06-.09.08v1s.15.06.21,0c.89-.49,3.39-1.86,3.39-3.56V22c0-.09-.14-.15-.23-.15-3,0-3.52-1.08-3.52-1.08s-.12,0-.19,0-.1,0-.12,0-.49,1.12-3.44,1.12c-.1,0-.12,0-.12.13v.63s0,.15.08.15.79,0,.79,0"/><path d="M66.08,29.26l1.18-.44a1.64,1.64,0,0,0,1.55.89,1.78,1.78,0,0,0,.91-.21.74.74,0,0,0,.38-.64c0-.64-.87-1-1.5-1.27l0,0a5.66,5.66,0,0,1-1.38-.76,1.73,1.73,0,0,1-.68-1.4A1.85,1.85,0,0,1,67.2,24a2.66,2.66,0,0,1,1.76-.6,2.54,2.54,0,0,1,2.33,1.27l-1.23.47a1,1,0,0,0-.42-.45A1.83,1.83,0,0,0,69,24.5c-.68,0-1.15.36-1.15.84a1,1,0,0,0,.47.77,6.58,6.58,0,0,0,1.06.55l.15.06c.91.38,2,.87,2,2.1a1.76,1.76,0,0,1-.8,1.5,3.26,3.26,0,0,1-1.93.55,2.81,2.81,0,0,1-2.71-1.61"/><path d="M76.58,30.85a3.88,3.88,0,0,1-1.46-.29,3.66,3.66,0,0,1-1.18-.81,3.45,3.45,0,0,1-.81-1.19,3.81,3.81,0,0,1-.3-1.46,3.85,3.85,0,0,1,.3-1.46,3.55,3.55,0,0,1,.81-1.19,3.48,3.48,0,0,1,1.18-.8,3.89,3.89,0,0,1,1.46-.3,3.7,3.7,0,0,1,1.7.4,3.78,3.78,0,0,1,1.29,1.09l-1,.74a2.62,2.62,0,0,0-.87-.72,2.67,2.67,0,0,0-1.15-.28,2.52,2.52,0,0,0-1.78,4.3,2.44,2.44,0,0,0,1.78.74,2.37,2.37,0,0,0,1.27-.36,2.46,2.46,0,0,0,.91-.93l1.09.61a3.68,3.68,0,0,1-1.36,1.38,3.44,3.44,0,0,1-1.89.53"/><path d="M84.78,30.87a3.84,3.84,0,0,1-1.46-.29,3.55,3.55,0,0,1-1.19-.81,3.89,3.89,0,0,1-.8-1.19,3.81,3.81,0,0,1-.3-1.46,3.5,3.5,0,0,1,.3-1.46,4,4,0,0,1,.8-1.19,4,4,0,0,1,1.19-.8,3.85,3.85,0,0,1,1.46-.3,3.81,3.81,0,0,1,1.46.3,3.42,3.42,0,0,1,1.19.8,4,4,0,0,1,.81,1.19,3.82,3.82,0,0,1,0,2.92,3.92,3.92,0,0,1-.81,1.19,3.87,3.87,0,0,1-1.19.81,3.8,3.8,0,0,1-1.46.29m0-6.29a2.46,2.46,0,0,0-1.78.74,2.55,2.55,0,0,0-.74,1.78A2.45,2.45,0,0,0,83,28.88a2.47,2.47,0,0,0,1.78.74,2.44,2.44,0,0,0,1.78-.74,2.49,2.49,0,0,0,.74-1.78,2.53,2.53,0,0,0-2.52-2.52"/><polygon points="97.05 23.42 97.05 31.04 91.79 26.21 91.79 30.75 90.46 30.75 90.46 23.14 95.71 27.99 95.71 23.42 97.05 23.42"/><polygon points="100.63 24.54 100.63 26.49 104.29 26.49 104.29 27.63 100.63 27.63 100.63 29.6 104.74 29.6 104.74 30.75 99.29 30.75 99.29 23.42 104.74 23.42 104.74 24.56 100.63 24.56 100.63 24.54"/></g></g></g></g><g id="Ebene_4" data-name="Ebene 4"><line class="cls-4" x1="100.83" y1="379.27" x2="100.83" y2="172.6"/><polygon class="cls-3" points="106.55 374.63 105.53 373.68 100.83 378.73 96.13 373.68 95.1 374.63 100.83 380.79 106.55 374.63"/><line class="cls-4" x1="276.48" y1="379.27" x2="276.48" y2="166.6"/><polygon class="cls-3" points="282.21 374.63 281.19 373.68 276.49 378.73 271.79 373.68 270.76 374.63 276.49 380.79 282.21 374.63"/><line class="cls-4" x1="627.8" y1="379.27" x2="627.8" y2="166.6"/><polygon class="cls-3" points="633.53 374.63 632.5 373.68 627.8 378.73 623.11 373.68 622.08 374.63 627.8 380.79 633.53 374.63"/><line class="cls-4" x1="337.61" y1="379.54" x2="483" y2="170.6"/><polygon class="cls-3" points="344.96 379 344.66 377.63 337.92 379.1 336.94 372.26 335.56 372.46 336.74 380.79 344.96 379"/><text class="cls-22" transform="translate(350.5 294.44)">Contai<tspan class="cls-45" x="37.8" y="0">n</tspan><tspan x="45.52" y="0">er Swarm</tspan></text></g></svg>