<svg xmlns="http://www.w3.org/2000/svg" xmlns:xlink="http://www.w3.org/1999/xlink" viewBox="0 0 424.43 257.97"><defs><style>.cls-1,.cls-10,.cls-12,.cls-14,.cls-2,.cls-7,.cls-8{fill:none;}.cls-10,.cls-2,.cls-3{stroke:#c30;}.cls-12,.cls-14,.cls-2,.cls-7{stroke-miterlimit:10;}.cls-10,.cls-12,.cls-14,.cls-2,.cls-3,.cls-7,.cls-8{stroke-width:2px;}.cls-14,.cls-2{stroke-dasharray:2 2;}.cls-13,.cls-19,.cls-27,.cls-3{fill:#fff;}.cls-10,.cls-3,.cls-8{stroke-linecap:round;stroke-linejoin:round;}.cls-4{opacity:0.5;}.cls-5{fill:url(#Unbenannter_Verlauf_12);}.cls-6{fill:url(#Unbenannter_Verlauf_12-2);}.cls-14,.cls-7,.cls-8{stroke:#fc0;}.cls-15,.cls-9{fill:#fc0;}.cls-11{fill:#c30;}.cls-12{stroke:#fff;}.cls-15,.cls-23,.cls-27,.cls-29{font-size:12px;}.cls-15,.cls-23{font-family:RobotoSlab-Bold, Roboto Slab;}.cls-15,.cls-23,.cls-27{font-weight:700;}.cls-16{letter-spacing:-0.01em;}.cls-17{letter-spacing:0em;}.cls-18{letter-spacing:0.01em;}.cls-19{font-size:11px;font-family:PTSans-Regular, PT Sans;}.cls-20{letter-spacing:-0.01em;}.cls-21{letter-spacing:-0.01em;}.cls-22{letter-spacing:-0.02em;}.cls-23,.cls-29{fill:#306;}.cls-24{letter-spacing:-0.01em;}.cls-25{letter-spacing:0em;}.cls-26{letter-spacing:-0.03em;}.cls-27{font-family:PTSans-Bold, PT Sans;}.cls-28{letter-spacing:-0.04em;}.cls-29{font-family:PTSans-Italic, PT Sans;font-style:italic;}.cls-30{letter-spacing:2.73em;}.cls-31{letter-spacing:-0.02em;}.cls-32{letter-spacing:-0.03em;}.cls-33{letter-spacing:-0.02em;}.cls-34{letter-spacing:-0.03em;}.cls-35{letter-spacing:-0.09em;}.cls-36{clip-path:url(#clip-path);}.cls-37{fill:#ffd138;}.cls-38{clip-path:url(#clip-path-3);}.cls-39{clip-path:url(#clip-path-5);}.cls-40{fill:#fdfeff;}</style><linearGradient id="Unbenannter_Verlauf_12" x1="156.6" y1="123.31" x2="333.89" y2="123.31" gradientUnits="userSpaceOnUse"><stop offset="0" stop-color="#906"/><stop offset="0.19" stop-color="#780066"/><stop offset="0.4" stop-color="#5a0066"/><stop offset="0.61" stop-color="#406"/><stop offset="0.81" stop-color="#370066"/><stop offset="1" stop-color="#306"/></linearGradient><linearGradient id="Unbenannter_Verlauf_12-2" x1="46.6" y1="123.31" x2="156.6" y2="123.31" xlink:href="#Unbenannter_Verlauf_12"/><clipPath id="clip-path"><rect class="cls-1" x="48.41" y="217.03" width="54.85" height="10.74"/></clipPath><clipPath id="clip-path-3"><rect class="cls-1" x="48.41" y="235.08" width="54.85" height="10.74"/></clipPath><clipPath id="clip-path-5"><rect class="cls-1" x="261.27" y="110.59" width="58.07" height="11.37"/></clipPath></defs><title>SconeAttestation</title><g id="Ebene_2" data-name="Ebene 2"><path class="cls-2" d="M236.53,174.81v12.48a5,5,0,0,0,5,5h100a5,5,0,0,0,5-5v-128a5,5,0,0,0-5-5h-100a5,5,0,0,0-5,5V74.22"/><path class="cls-3" d="M340.62,50.34a2.87,2.87,0,0,0-3.6-1.19c-2.25.87-1.26,3.63-1.26,3.63s-5.14-.07-4.58,5.19c.42,3.85,4.58,3.63,4.43,3.63-6.19,0,12.39,0,18.58,0a4.59,4.59,0,0,0,2.64-1,4,4,0,0,0,1.29-4.74c-.65-1.83-3-2.78-4.87-2.88,0,0,1.1-4.88-2.41-7a6.63,6.63,0,0,0-8.1.6A7.57,7.57,0,0,0,340.62,50.34Z"/><g class="cls-4"><path class="cls-5" d="M328.89,72.42H156.6v25.7h88.47A4.9,4.9,0,0,1,250,103V143.6a4.9,4.9,0,0,1-4.9,4.9H156.6v25.7H328.89a5,5,0,0,0,5-5V77.42A5,5,0,0,0,328.89,72.42Z"/></g><path class="cls-6" d="M156.6,73.22V59.33a5,5,0,0,0-5-5H51.6a5,5,0,0,0-5,5v128a5,5,0,0,0,5,5h100a5,5,0,0,0,5-5V173.2"/><path class="cls-7" d="M156.6,73.22V59.33a5,5,0,0,0-5-5H51.6a5,5,0,0,0-5,5v128a5,5,0,0,0,5,5h100a5,5,0,0,0,5-5V173.2"/><path class="cls-8" d="M33.4,21.19H29.16c-.58,0-.81-.23-.81-.8V13.92c0-.57.23-.8.81-.8h8.45c.55,0,.77.23.77.77v6.5c0,.54-.22.77-.77.77C36.2,21.22,34.78,21.19,33.4,21.19Z"/><path class="cls-8" d="M29,12.56a4.52,4.52,0,0,1,2.64-4.14,4.21,4.21,0,0,1,5.78,2.86c.1.38.13.77.23,1.18"/><path class="cls-9" d="M32.69,18.43h0v.86c0,.16.07.23.26.23h.84c.22,0,.29-.07.29-.26V17.65a.36.36,0,0,1,.22-.38,1.21,1.21,0,0,0,.61-1.45,1.53,1.53,0,0,0-1.44-1,1.64,1.64,0,0,0-1.61.86,1.21,1.21,0,0,0,.54,1.52.41.41,0,0,1,.26.48A5.78,5.78,0,0,1,32.69,18.43Z"/><path class="cls-10" d="M359.79,20.79h-4.24c-.58,0-.81-.23-.81-.8V13.52c0-.58.23-.8.81-.8H364c.55,0,.77.22.77.77V20c0,.54-.22.77-.77.77C362.59,20.82,361.17,20.79,359.79,20.79Z"/><path class="cls-10" d="M358.42,4.54a4.5,4.5,0,0,1,4.85.71,4.21,4.21,0,0,1-.23,6.44c-.31.25-.65.44-1,.7"/><path class="cls-11" d="M359.08,18h0v.87c0,.16.07.23.26.23h.84c.22,0,.29-.07.29-.26V17.25a.36.36,0,0,1,.22-.38,1.21,1.21,0,0,0,.61-1.45,1.53,1.53,0,0,0-1.45-1,1.62,1.62,0,0,0-1.6.86,1.21,1.21,0,0,0,.54,1.52.41.41,0,0,1,.26.48A5.7,5.7,0,0,1,359.08,18Z"/><polyline class="cls-12" points="107.52 96.39 83.45 96.39 83.45 72.32"/><circle class="cls-13" cx="90.68" cy="74.22" r="1"/><circle class="cls-13" cx="97.78" cy="83.64" r="1"/><circle class="cls-13" cx="97.78" cy="77.22" r="1"/><circle class="cls-13" cx="105.66" cy="88.03" r="1"/><circle class="cls-13" cx="88.68" cy="85.35" r="1"/><circle class="cls-13" cx="92.98" cy="91.03" r="1"/><polyline class="cls-12" points="138.5 96.39 114.43 96.39 114.43 72.32"/><path class="cls-12" d="M114.59,84.35h3.49s.64-8.13,3.54-8.13c2.45,0,2.88,13.81,5.83,13.81,2.48,0,2.73-8.86,4.63-8.78,1.62.06,1.72,5.76,3,5.78,1.13,0,1.72-2.45,1.72-2.45"/><polyline class="cls-12" points="137.26 173.97 112.05 173.97 112.05 148.77"/><rect class="cls-13" x="115.78" y="148.77" width="3.83" height="23.05"/><rect class="cls-13" x="121.52" y="159.07" width="3.83" height="12.75"/><rect class="cls-13" x="127.27" y="154.13" width="3.83" height="17.68"/><rect class="cls-13" x="133.01" y="164.76" width="3.83" height="7.06"/><line class="cls-14" x1="144.02" y1="85.35" x2="210.08" y2="85.35"/><polygon class="cls-9" points="205.44 91.08 204.49 90.05 209.54 85.36 204.49 80.66 205.44 79.63 211.6 85.36 205.44 91.08"/><line class="cls-14" x1="211.12" y1="160.92" x2="142.44" y2="160.92"/><polygon class="cls-9" points="147.08 155.19 148.03 156.22 142.98 160.91 148.03 165.62 147.08 166.64 140.92 160.91 147.08 155.19"/><path class="cls-7" d="M156.6,72.42H328.89a5,5,0,0,1,5,5V169.2a5,5,0,0,1-5,5H156.6"/><path class="cls-7" d="M156.6,97.18V148.5h88.47a4.9,4.9,0,0,0,4.9-4.9V103a4.9,4.9,0,0,0-4.9-4.9H156.6"/><line class="cls-2" x1="237.53" y1="98.48" x2="237.53" y2="146.89"/></g><g id="schrift"><text class="cls-15" transform="translate(162.01 119) scale(1.01 1)">alw<tspan class="cls-16" x="20.04" y="0">a</tspan><tspan x="26.54" y="0">ys </tspan><tspan x="0" y="14.4">e</tspan><tspan class="cls-17" x="6.39" y="14.4">n</tspan><tspan x="13.95" y="14.4">c</tspan><tspan class="cls-18" x="20.27" y="14.4">r</tspan><tspan x="25.43" y="14.4">ypted</tspan></text><text class="cls-19" transform="translate(55.06 87.63)">data</text><text class="cls-19" transform="translate(215.96 88.37)">encryp<tspan class="cls-20" x="31.38" y="0">t</tspan><tspan x="34.99" y="0">ed data</tspan></text><text class="cls-19" transform="translate(215.96 164.07)">encryp<tspan class="cls-21" x="31.38" y="0">t</tspan><tspan x="34.99" y="0">ed pro</tspan><tspan class="cls-22" x="65.02" y="0">c</tspan><tspan x="69.73" y="0">essing</tspan></text><text class="cls-23" transform="translate(289.68 20.97)">Untrusted <tspan class="cls-24" x="-46.19" y="14.4">r</tspan><tspan x="-41.25" y="14.4">e</tspan><tspan class="cls-25" x="-34.86" y="14.4">m</tspan><tspan x="-23.75" y="14.4">ote computers</tspan></text><text class="cls-23" transform="translate(45.64 20.49)"><tspan class="cls-26">T</tspan><tspan x="7.69" y="0">rusted</tspan><tspan x="0" y="14.4">client computer</tspan></text><text class="cls-27" transform="translate(261.2 136.43)"><tspan class="cls-28">C</tspan><tspan x="6.18" y="0">AS</tspan></text><text class="cls-29" transform="translate(48.41 227.43)"><tspan class="cls-30">	</tspan><tspan x="36" y="0" xml:space="preserve">        ensures that the </tspan><tspan class="cls-31" x="143.59" y="0">e</tspan><tspan x="148.96" y="0">xpected appli</tspan><tspan class="cls-32" x="214.46" y="0">c</tspan><tspan x="219.16" y="0">ation is running!</tspan><tspan class="cls-30" x="0" y="18">	</tspan><tspan x="36" y="18" xml:space="preserve">        passes </tspan><tspan class="cls-33" x="96.66" y="18">k</tspan><tspan x="101.75" y="18">eys to decrypt data and files to appli</tspan><tspan class="cls-34" x="278.87" y="18">c</tspan><tspan x="283.56" y="18">ation</tspan><tspan class="cls-35" x="308.5" y="18">.</tspan></text><g id="Scone_logo_black" data-name="Scone logo black"><g class="cls-36"><g class="cls-36"><path class="cls-37" d="M55.68,219.76H54.53a.44.44,0,0,0-.44.44v1.17a.44.44,0,0,0,.44.44h1.15a.44.44,0,0,0,.44-.44V220.2a.44.44,0,0,0-.44-.44m-4,2.05h1.15a.44.44,0,0,0,.44-.44V220.2a.44.44,0,0,0-.44-.44H51.68a.44.44,0,0,0-.44.44v1.17a.44.44,0,0,0,.44.44m-1.24-.44V220.2a.44.44,0,0,0-.44-.44H48.85a.44.44,0,0,0-.44.44v1.17a.44.44,0,0,0,.44.44H50a.44.44,0,0,0,.44-.44m5.32,1.26a.34.34,0,0,0-.33.33v1.37a.34.34,0,0,0,.67,0V223a.32.32,0,0,0-.34-.33m-3.15.44v1.17a.44.44,0,0,0,.44.44H54.2a.44.44,0,0,0,.44-.44v-1.17a.44.44,0,0,0-.44-.44H53.05a.44.44,0,0,0-.44.44m-.82,1.17v-1.17a.44.44,0,0,0-.44-.44H50.2a.44.44,0,0,0-.44.44v1.17a.44.44,0,0,0,.44.44h1.15a.44.44,0,0,0,.44-.44m3.89,1.26H54.53a.44.44,0,0,0-.44.44v1.17a.44.44,0,0,0,.44.45h1.15a.45.45,0,0,0,.44-.45v-1.17a.44.44,0,0,0-.44-.44m-3,0H51.55a.45.45,0,0,0-.45.44v1.17a.45.45,0,0,0,.45.45h1.14a.45.45,0,0,0,.45-.45v-1.17a.45.45,0,0,0-.45-.44"/><path class="cls-37" d="M57.07,219.29a2.55,2.55,0,0,0,1.79.56s0,0,0,.08v3.16c0,1.22-1.48,2-1.83,2.17,0,0,0,0,0,0l0-5.92s0,0,0,0"/><path class="cls-37" d="M53.6,219.14c2.43-.09,2.83-.93,2.83-.93a.11.11,0,0,1,.11-.06s.09,0,.11,0,.37.9,2.8.9c.07,0,.09,0,.09.12v4.15c0,1.32-2.52,2.83-2.56,2.85s-.09.06-.09.09v1s.16.07.22,0c.93-.51,3.54-1.94,3.54-3.71v-5.3c0-.09-.16-.16-.25-.16-3.09,0-3.66-1.13-3.66-1.13s-.14,0-.2,0-.11,0-.13,0-.51,1.17-3.58,1.17c-.11,0-.14.05-.14.14V219s0,.15.09.15.82,0,.82,0"/><path d="M62.94,225.92l1.24-.46a1.92,1.92,0,0,0,2.56.7.73.73,0,0,0,.4-.66c0-.66-.9-1.06-1.57-1.32l0,0a5.5,5.5,0,0,1-1.44-.79,1.82,1.82,0,0,1-.7-1.46,1.93,1.93,0,0,1,.72-1.52,2.84,2.84,0,0,1,1.84-.62,2.63,2.63,0,0,1,2.43,1.32l-1.28.49a1,1,0,0,0-.44-.46A1.76,1.76,0,0,0,66,221c-.71,0-1.19.38-1.19.88a1,1,0,0,0,.48.8,6.07,6.07,0,0,0,1.11.57l.15.07c1,.4,2.12.91,2.12,2.19a1.85,1.85,0,0,1-.84,1.57,3.41,3.41,0,0,1-2,.57,2.94,2.94,0,0,1-2.83-1.68"/><path d="M73.9,227.58a3.93,3.93,0,0,1-1.52-.31,3.63,3.63,0,0,1-1.24-.84,3.5,3.5,0,0,1-.84-1.24,3.93,3.93,0,0,1-.31-1.52,4,4,0,0,1,.31-1.53,3.55,3.55,0,0,1,.84-1.23,3.5,3.5,0,0,1,1.24-.84,3.93,3.93,0,0,1,1.52-.31,3.75,3.75,0,0,1,1.77.42A4,4,0,0,1,77,221.3l-1,.78a2.64,2.64,0,0,0-.91-.75,2.71,2.71,0,0,0-1.19-.29,2.54,2.54,0,0,0-1.86.77,2.62,2.62,0,0,0,0,3.71,2.56,2.56,0,0,0,3.18.4,2.6,2.6,0,0,0,1-1l1.13.64A3.89,3.89,0,0,1,75.87,227a3.64,3.64,0,0,1-2,.55"/><path d="M82.45,227.6a3.93,3.93,0,0,1-1.52-.31,3.5,3.5,0,0,1-1.24-.84,3.89,3.89,0,0,1-1.15-2.76,3.6,3.6,0,0,1,.31-1.52,3.94,3.94,0,0,1,.84-1.24,3.89,3.89,0,0,1,1.24-.84,3.88,3.88,0,0,1,3,0,3.5,3.5,0,0,1,1.24.84,3.78,3.78,0,0,1,.84,1.24,3.88,3.88,0,0,1,0,3,3.78,3.78,0,0,1-.84,1.24,3.89,3.89,0,0,1-1.24.84,3.93,3.93,0,0,1-1.52.31m0-6.56a2.54,2.54,0,0,0-1.86.77,2.66,2.66,0,0,0-.77,1.86,2.55,2.55,0,0,0,.77,1.85,2.61,2.61,0,0,0,3.72,0,2.64,2.64,0,0,0,.77-1.85,2.7,2.7,0,0,0-.77-1.86,2.66,2.66,0,0,0-1.86-.77"/><polygon points="95.24 219.82 95.24 227.78 89.76 222.74 89.76 227.47 88.37 227.47 88.37 219.54 93.85 224.59 93.85 219.82 95.24 219.82"/><polygon points="98.97 221 98.97 223.03 102.8 223.03 102.8 224.22 98.97 224.22 98.97 226.27 103.26 226.27 103.26 227.47 97.58 227.47 97.58 219.82 103.26 219.82 103.26 221.02 98.97 221.02 98.97 221"/></g></g></g><g id="Scone_logo_black-2" data-name="Scone logo black"><g class="cls-38"><g class="cls-38"><path class="cls-37" d="M55.68,237.81H54.53a.44.44,0,0,0-.44.44v1.17a.44.44,0,0,0,.44.44h1.15a.44.44,0,0,0,.44-.44v-1.17a.44.44,0,0,0-.44-.44m-4,2.05h1.15a.44.44,0,0,0,.44-.44v-1.17a.44.44,0,0,0-.44-.44H51.68a.44.44,0,0,0-.44.44v1.17a.44.44,0,0,0,.44.44m-1.24-.44v-1.17a.44.44,0,0,0-.44-.44H48.85a.44.44,0,0,0-.44.44v1.17a.44.44,0,0,0,.44.44H50a.44.44,0,0,0,.44-.44m5.32,1.26a.34.34,0,0,0-.33.33v1.37a.34.34,0,0,0,.67,0V241a.32.32,0,0,0-.34-.33m-3.15.44v1.17a.44.44,0,0,0,.44.44H54.2a.44.44,0,0,0,.44-.44v-1.17a.44.44,0,0,0-.44-.44H53.05a.44.44,0,0,0-.44.44m-.82,1.17v-1.17a.44.44,0,0,0-.44-.44H50.2a.44.44,0,0,0-.44.44v1.17a.44.44,0,0,0,.44.44h1.15a.44.44,0,0,0,.44-.44m3.89,1.26H54.53a.44.44,0,0,0-.44.44v1.17a.44.44,0,0,0,.44.45h1.15a.45.45,0,0,0,.44-.45V244a.44.44,0,0,0-.44-.44m-3,0H51.55a.45.45,0,0,0-.45.44v1.17a.45.45,0,0,0,.45.45h1.14a.45.45,0,0,0,.45-.45V244a.45.45,0,0,0-.45-.44"/><path class="cls-37" d="M57.07,237.34a2.55,2.55,0,0,0,1.79.56s0,0,0,.08v3.16c0,1.22-1.48,2-1.83,2.17,0,0,0,0,0,0l0-5.92s0-.05,0,0"/><path class="cls-37" d="M53.6,237.19c2.43-.09,2.83-.93,2.83-.93a.12.12,0,0,1,.11-.07s.09,0,.11.05.37.9,2.8.9c.07,0,.09.05.09.12v4.15c0,1.32-2.52,2.83-2.56,2.85s-.09.06-.09.09v1c0,.05.16.07.22.05.93-.51,3.54-2,3.54-3.71v-5.3c0-.09-.16-.16-.25-.16-3.09,0-3.66-1.13-3.66-1.13s-.14,0-.2,0-.11,0-.13,0-.51,1.17-3.58,1.17c-.11,0-.14.05-.14.14v.66s0,.15.09.15.82,0,.82,0"/><path d="M62.94,244l1.24-.46a1.7,1.7,0,0,0,1.61.92,1.72,1.72,0,0,0,.95-.22.73.73,0,0,0,.4-.66c0-.66-.9-1.06-1.57-1.32l0,0a5.81,5.81,0,0,1-1.44-.79,1.82,1.82,0,0,1-.7-1.46,1.93,1.93,0,0,1,.72-1.52,2.84,2.84,0,0,1,1.84-.62,2.63,2.63,0,0,1,2.43,1.32l-1.28.49a1.11,1.11,0,0,0-.44-.47A2,2,0,0,0,66,239c-.71,0-1.19.38-1.19.88a1,1,0,0,0,.48.8,6.07,6.07,0,0,0,1.11.57l.15.07c1,.4,2.12.91,2.12,2.19a1.85,1.85,0,0,1-.84,1.57,3.41,3.41,0,0,1-2,.57A2.94,2.94,0,0,1,62.94,244"/><path d="M73.9,245.63a3.93,3.93,0,0,1-1.52-.31,3.63,3.63,0,0,1-1.24-.84,3.5,3.5,0,0,1-.84-1.24,3.93,3.93,0,0,1-.31-1.52,4,4,0,0,1,.31-1.53,3.55,3.55,0,0,1,.84-1.23,3.5,3.5,0,0,1,1.24-.84,3.93,3.93,0,0,1,1.52-.31,3.75,3.75,0,0,1,1.77.42A4,4,0,0,1,77,239.35l-1,.78a2.64,2.64,0,0,0-.91-.75,2.71,2.71,0,0,0-1.19-.29,2.54,2.54,0,0,0-1.86.77,2.58,2.58,0,0,0-.77,1.86,2.6,2.6,0,0,0,.77,1.85,2.56,2.56,0,0,0,3.18.4,2.6,2.6,0,0,0,1-1l1.13.64a3.89,3.89,0,0,1-1.41,1.44,3.64,3.64,0,0,1-2,.55"/><path d="M82.45,245.65a3.93,3.93,0,0,1-1.52-.31,3.5,3.5,0,0,1-1.24-.84,3.89,3.89,0,0,1-1.15-2.76,3.6,3.6,0,0,1,.31-1.52,3.94,3.94,0,0,1,.84-1.24,3.89,3.89,0,0,1,1.24-.84,3.88,3.88,0,0,1,3,0,3.5,3.5,0,0,1,1.24.84,3.78,3.78,0,0,1,.84,1.24,3.88,3.88,0,0,1,0,3,3.78,3.78,0,0,1-.84,1.24,3.89,3.89,0,0,1-1.24.84,3.93,3.93,0,0,1-1.52.31m0-6.56a2.54,2.54,0,0,0-1.86.77,2.66,2.66,0,0,0-.77,1.86,2.55,2.55,0,0,0,.77,1.85,2.61,2.61,0,0,0,3.72,0,2.64,2.64,0,0,0,.77-1.85,2.7,2.7,0,0,0-.77-1.86,2.66,2.66,0,0,0-1.86-.77"/><polygon points="95.24 237.87 95.24 245.83 89.76 240.79 89.76 245.52 88.37 245.52 88.37 237.59 93.85 242.65 93.85 237.87 95.24 237.87"/><polygon points="98.97 239.04 98.97 241.08 102.8 241.08 102.8 242.27 98.97 242.27 98.97 244.32 103.26 244.32 103.26 245.52 97.58 245.52 97.58 237.87 103.26 237.87 103.26 239.07 98.97 239.07 98.97 239.04"/></g></g></g><g id="Scone_logo_white" data-name="Scone logo white"><g class="cls-39"><g class="cls-39"><path class="cls-37" d="M269,113.47h-1.22a.48.48,0,0,0-.47.47v1.24a.48.48,0,0,0,.47.47H269a.47.47,0,0,0,.47-.47v-1.24a.47.47,0,0,0-.47-.47m-4.23,2.18H266a.47.47,0,0,0,.47-.47v-1.24a.47.47,0,0,0-.47-.47h-1.21a.47.47,0,0,0-.47.47v1.24a.47.47,0,0,0,.47.47m-1.31-.47v-1.24a.47.47,0,0,0-.47-.47h-1.22a.47.47,0,0,0-.47.47v1.24a.47.47,0,0,0,.47.47H263a.47.47,0,0,0,.47-.47m5.63,1.33a.36.36,0,0,0-.35.35v1.45a.35.35,0,1,0,.7,0v-1.45a.33.33,0,0,0-.35-.35m-3.34.47v1.24a.47.47,0,0,0,.47.47h1.21a.47.47,0,0,0,.47-.47V117a.47.47,0,0,0-.47-.47h-1.21a.47.47,0,0,0-.47.47m-.87,1.24V117a.47.47,0,0,0-.47-.47h-1.21a.47.47,0,0,0-.47.47v1.24a.47.47,0,0,0,.47.47h1.21a.47.47,0,0,0,.47-.47m4.12,1.33h-1.22a.48.48,0,0,0-.47.47v1.24a.48.48,0,0,0,.47.47H269a.47.47,0,0,0,.47-.47V120a.47.47,0,0,0-.47-.47m-3.16,0h-1.22a.47.47,0,0,0-.46.47v1.24a.47.47,0,0,0,.46.47h1.22a.47.47,0,0,0,.47-.47V120a.47.47,0,0,0-.47-.47"/><path class="cls-37" d="M270.44,113a2.8,2.8,0,0,0,1.9.59s0,0,0,.09V117c0,1.29-1.57,2.09-1.94,2.3-.05,0-.05,0-.05,0l0-6.26s0-.05.05,0"/><path class="cls-37" d="M266.77,112.82c2.57-.1,3-1,3-1a.13.13,0,0,1,.12-.07c.05,0,.09,0,.12,0s.4,1,3,1c.07,0,.09,0,.09.12v4.4c0,1.4-2.66,3-2.71,3s-.1.07-.1.1v1.1s.17.07.24,0c1-.54,3.74-2.06,3.74-3.93V112c0-.09-.16-.16-.26-.16-3.27,0-3.88-1.2-3.88-1.2s-.14,0-.21,0-.12,0-.14,0-.54,1.24-3.79,1.24c-.12,0-.14,0-.14.14v.7s0,.17.09.17.87-.05.87-.05"/><path class="cls-40" d="M276.66,120l1.31-.49a1.79,1.79,0,0,0,1.71,1,1.94,1.94,0,0,0,1-.23.82.82,0,0,0,.42-.71c0-.7-1-1.12-1.66-1.4l-.05,0a6.15,6.15,0,0,1-1.52-.84,1.91,1.91,0,0,1-.75-1.55,2.06,2.06,0,0,1,.77-1.61,3,3,0,0,1,1.94-.66,2.81,2.81,0,0,1,2.58,1.41l-1.36.51a1.06,1.06,0,0,0-.47-.49,1.93,1.93,0,0,0-.75-.16c-.74,0-1.26.39-1.26.93a1,1,0,0,0,.52.84,6.31,6.31,0,0,0,1.16.61l.17.07c1,.42,2.24,1,2.24,2.32a1.94,1.94,0,0,1-.89,1.66,3.53,3.53,0,0,1-2.12.61,3.13,3.13,0,0,1-3-1.78"/><path class="cls-40" d="M288.26,121.75a4.2,4.2,0,0,1-1.61-.32,4.06,4.06,0,0,1-1.31-.89,3.86,3.86,0,0,1-.89-1.31,4.3,4.3,0,0,1-.33-1.62,4.21,4.21,0,0,1,.33-1.61,4.22,4.22,0,0,1,2.2-2.2,4.21,4.21,0,0,1,1.61-.33,3.91,3.91,0,0,1,1.87.45,4,4,0,0,1,1.43,1.19l-1.1.82a2.86,2.86,0,0,0-1-.8,3.07,3.07,0,0,0-1.26-.3,2.78,2.78,0,0,0-2.78,2.78,2.76,2.76,0,0,0,.81,2,2.73,2.73,0,0,0,3.37.42,2.93,2.93,0,0,0,1-1l1.19.68a4.05,4.05,0,0,1-1.5,1.52,3.73,3.73,0,0,1-2.08.58"/><path class="cls-40" d="M297.31,121.78a4.21,4.21,0,0,1-1.61-.33,3.76,3.76,0,0,1-1.31-.89,4.12,4.12,0,0,1-1.22-2.92,3.92,3.92,0,0,1,.33-1.62,4.34,4.34,0,0,1,.89-1.31,4.48,4.48,0,0,1,1.31-.89,4.2,4.2,0,0,1,1.61-.32,4.29,4.29,0,0,1,1.62.32,4,4,0,0,1,1.31.89,4.34,4.34,0,0,1,.89,1.31,4.25,4.25,0,0,1,.32,1.62,4.05,4.05,0,0,1-1.21,2.92,4.12,4.12,0,0,1-2.93,1.22m0-7a2.67,2.67,0,0,0-2,.82,2.74,2.74,0,0,0-.82,2,2.8,2.8,0,0,0,2.78,2.79,2.73,2.73,0,0,0,2-.82,2.76,2.76,0,0,0,0-3.93,2.78,2.78,0,0,0-2-.82"/><polygon class="cls-40" points="310.86 113.54 310.86 121.96 305.06 116.63 305.06 121.64 303.58 121.64 303.58 113.24 309.38 118.59 309.38 113.54 310.86 113.54"/><polygon class="cls-40" points="314.81 114.78 314.81 116.94 318.85 116.94 318.85 118.2 314.81 118.2 314.81 120.37 319.35 120.37 319.35 121.64 313.33 121.64 313.33 113.54 319.35 113.54 319.35 114.81 314.81 114.81 314.81 114.78"/></g></g></g><path class="cls-9" d="M305.46,131.61H295.29a4.72,4.72,0,1,0,0,2.27h3l1.36,1.36,1.36-1.36h.18l.86.86.8-.8,1.29,1.3,1.46-1.45,1.09-1ZM288.89,134a1.25,1.25,0,1,1,1.25-1.24A1.24,1.24,0,0,1,288.89,134Z"/></g></svg>