<svg xmlns="http://www.w3.org/2000/svg" xmlns:xlink="http://www.w3.org/1999/xlink" viewBox="0 0 507.57 330.38"><defs><style>.cls-1,.cls-13,.cls-16,.cls-19,.cls-23,.cls-27,.cls-7,.cls-9{fill:none;}.cls-2{font-size:15px;font-family:PTSans-Bold, PT Sans;}.cls-10,.cls-2,.cls-20,.cls-24{fill:#fc0;}.cls-11,.cls-2,.cls-20,.cls-24,.cls-28,.cls-32{font-weight:700;}.cls-3{letter-spacing:-0.01em;}.cls-4{letter-spacing:-0.02em;}.cls-5{letter-spacing:-0.01em;}.cls-6{letter-spacing:0em;}.cls-7{stroke:#c30;}.cls-19,.cls-7,.cls-8,.cls-9{stroke-miterlimit:10;}.cls-13,.cls-15,.cls-19,.cls-23,.cls-27,.cls-7,.cls-8,.cls-9{stroke-width:2px;}.cls-7,.cls-9{stroke-dasharray:2 2;}.cls-15,.cls-32,.cls-8{fill:#fff;}.cls-15,.cls-16,.cls-19,.cls-23,.cls-8,.cls-9{stroke:#fc0;}.cls-11,.cls-17,.cls-20{font-size:12px;}.cls-11,.cls-17,.cls-28{fill:#306;}.cls-11,.cls-20,.cls-24,.cls-28,.cls-32{font-family:RobotoSlab-Bold, Roboto Slab;}.cls-12{letter-spacing:0em;}.cls-13{stroke:#f63;}.cls-13,.cls-15,.cls-16,.cls-23,.cls-27{stroke-linecap:round;stroke-linejoin:round;}.cls-14{fill:#f63;}.cls-17{font-family:PTSans-Regular, PT Sans;}.cls-18{letter-spacing:-0.1em;}.cls-21{letter-spacing:-0.01em;}.cls-22{fill:url(#Unbenannter_Verlauf_12);}.cls-24,.cls-28{font-size:11px;}.cls-25{letter-spacing:-0.01em;}.cls-26{letter-spacing:-0.04em;}.cls-27{stroke:#306;}.cls-29{clip-path:url(#clip-path);}.cls-30{fill:#ffd138;}.cls-31{fill:#fdfeff;}.cls-32{font-size:12.24px;}.cls-33{letter-spacing:0em;}.cls-34{letter-spacing:-0.01em;}.cls-35{letter-spacing:-0.01em;}</style><linearGradient id="Unbenannter_Verlauf_12" x1="174.45" y1="122.45" x2="346.24" y2="122.45" gradientUnits="userSpaceOnUse"><stop offset="0" stop-color="#906"/><stop offset="0.19" stop-color="#780066"/><stop offset="0.4" stop-color="#5a0066"/><stop offset="0.61" stop-color="#406"/><stop offset="0.81" stop-color="#370066"/><stop offset="1" stop-color="#306"/></linearGradient><clipPath id="clip-path"><rect class="cls-1" x="242.18" y="158.03" width="36.34" height="7.12"/></clipPath></defs><title>sconeapp</title><g id="Ebene_2" data-name="Ebene 2"><text class="cls-2" transform="translate(-319.05 153.34)">h<tspan class="cls-3" x="8.17" y="0">t</tspan><tspan x="13.3" y="0">tps://s</tspan><tspan class="cls-4" x="55.57" y="0">c</tspan><tspan x="61.81" y="0">onedocs.githu</tspan><tspan class="cls-5" x="151.87" y="0">b</tspan><tspan x="159.76" y="0">.io/</tspan><tspan class="cls-6" x="181.66" y="0">te</tspan><tspan x="194.37" y="0">chnical_summary/</tspan></text><rect class="cls-7" x="142.52" y="31.15" width="232.85" height="292.59" rx="5"/><polyline class="cls-8" points="446.49 115.61 342.4 115.61 342.4 129.39 446.49 129.39"/><line class="cls-9" x1="172.28" y1="121.61" x2="25.38" y2="121.61"/><polygon class="cls-10" points="165.66 113.43 164.29 114.9 171.51 121.61 164.29 128.33 165.66 129.79 174.45 121.61 165.66 113.43"/><text class="cls-11" transform="translate(180.82 22.25)">Untrusted Host / VM/ Contai<tspan class="cls-12" x="162.09" y="0">n</tspan><tspan x="169.65" y="0">er</tspan></text><path class="cls-13" d="M166.62,21.07h-4.24c-.58,0-.81-.22-.81-.8V13.81c0-.58.23-.81.81-.81h8.45c.55,0,.77.23.77.77v6.5c0,.54-.22.77-.77.77C169.42,21.1,168,21.07,166.62,21.07Z"/><path class="cls-13" d="M165.25,4.82a4.52,4.52,0,0,1,4.85.71,4.21,4.21,0,0,1-.23,6.44c-.31.25-.65.44-1,.7"/><path class="cls-14" d="M165.91,18.31h0v.87c0,.16.07.22.26.22H167c.22,0,.29-.06.29-.26v-1.6a.37.37,0,0,1,.22-.39,1.21,1.21,0,0,0,.61-1.45,1.54,1.54,0,0,0-1.45-1,1.62,1.62,0,0,0-1.6.87,1.19,1.19,0,0,0,.54,1.51.41.41,0,0,1,.26.48A5.86,5.86,0,0,1,165.91,18.31Z"/><path class="cls-15" d="M46.75,106.1a14.19,14.19,0,1,1,7.41-18.65A14.21,14.21,0,0,1,46.75,106.1Z"/><circle class="cls-15" cx="41.13" cy="93.07" r="14.19"/><path class="cls-16" d="M52,102.08a1.87,1.87,0,0,0-.58-.64,2,2,0,0,0-2.71.47,2,2,0,0,0,.43,2.68"/><path class="cls-16" d="M54,99.05a.53.53,0,0,0-.27-.29c-.08,0-.12-.1-.21-.16-.63-.45-.63-.45-1.16.15-.29.31-.56.46-.93.23a.3.3,0,0,0-.2,0c-.59,0-.83-.31-.91-.85,0-.18-.23-.48-.34-.5a7.34,7.34,0,0,0-1.28.16,7.05,7.05,0,0,1,0,1,1.13,1.13,0,0,1-.29.52c-.06.09-.17.11-.24.15a.94.94,0,0,1-1.44,0,.42.42,0,0,0-.71.15,1,1,0,0,1-.16.21c-.49.64-.48.67.11,1.14a.61.61,0,0,1,.26.88.72.72,0,0,0-.07.27c.06.63-.31.83-.83.88s-.6.39-.49.86,0,.92.76.81c.25,0,.62-.07.75.06a3.65,3.65,0,0,1,.65,1"/><path class="cls-16" d="M42.59,93.76a3.29,3.29,0,1,0-4.57.73A3.26,3.26,0,0,0,42.59,93.76Z"/><path class="cls-16" d="M48.51,91.8c-.42.14-.82.24-1.24.35-.26,0-.35.13-.42.44-.08.6-.26,1.15-.38,1.77a.72.72,0,0,0,.12.53,7.85,7.85,0,0,0,1,.92.56.56,0,0,1,.09.84l-.85,1.17A.53.53,0,0,1,46,98a5.53,5.53,0,0,0-1.11-.64.75.75,0,0,0-.58.06c-.54.31-1,.61-1.55,1a.74.74,0,0,0-.27.45c0,.45,0,.89.07,1.33s-.11.69-.59.73a6.55,6.55,0,0,0-1.27.2c-.46.11-.68-.08-.78-.51,0-.14-.09-.32-.12-.46-.06-.84-.51-1.11-1.33-1.35a1.9,1.9,0,0,0-2.49.89c-.2.37-.53.38-.87.14S34.4,99.2,34,99a.6.6,0,0,1-.19-.94c.24-.37.4-.73.64-1.07a.46.46,0,0,0,0-.66,4.08,4.08,0,0,1-.64-1c-.26-.74-.7-.89-1.46-.81-1.42.19-1.26.06-1.46-1.17s-.21-1.31,1.05-1.58c.72-.16,1.09-.4,1.11-1.19,0-.52.45-1.11.31-1.53s-.79-.76-1.19-1.15a.52.52,0,0,1-.09-.8L32.9,86a.55.55,0,0,1,.86-.22,2.35,2.35,0,0,1,.45.3c.63.46,1.25.62,1.85-.07a.4.4,0,0,1,.27-.19c1-.24,1.08-.88,1-1.76s-.06-1,.95-1.19c1.6-.26,1.46-.42,1.87,1.18.13.58.33.92,1,.89a1.23,1.23,0,0,1,.69.15,1.24,1.24,0,0,0,1.77-.51c.86-1.14.92-.78,1.76-.17,1.13.82,1.15.67.41,1.86-.35.58-.54,1,0,1.6.36.39.47,1.11.88,1.34s1.07,0,1.64,0a.84.84,0,0,1,.58.39,13.29,13.29,0,0,1,.3,1.62,3.33,3.33,0,0,1,0,.38A3.28,3.28,0,0,1,48.51,91.8Z"/><path class="cls-15" d="M246.8,228.63A14.19,14.19,0,1,1,254.2,210,14.19,14.19,0,0,1,246.8,228.63Z"/><circle class="cls-15" cx="241.18" cy="215.61" r="14.19"/><path class="cls-16" d="M252,224.62a1.81,1.81,0,0,0-.59-.64,2,2,0,0,0-2.71.47,2,2,0,0,0,.44,2.68"/><path class="cls-16" d="M254.07,221.58a.66.66,0,0,0-.27-.29c-.08,0-.13-.09-.21-.15-.63-.45-.63-.45-1.17.15-.28.31-.55.46-.93.23a.29.29,0,0,0-.19-.05c-.59,0-.83-.31-.92-.85,0-.18-.22-.49-.34-.5a7.12,7.12,0,0,0-1.27.16,5.63,5.63,0,0,1,0,1,1.14,1.14,0,0,1-.28.53c-.07.09-.17.1-.24.15a.94.94,0,0,1-1.44,0,.43.43,0,0,0-.72.15c0,.08-.09.13-.15.21-.49.64-.49.67.11,1.14a.62.62,0,0,1,.25.88,1,1,0,0,0-.07.27c.07.62-.31.83-.82.88s-.61.39-.49.86,0,.92.76.8c.25,0,.62-.06.75.07a3.89,3.89,0,0,1,.65,1"/><path class="cls-16" d="M242.63,216.3a3.29,3.29,0,1,0-4.56.73A3.25,3.25,0,0,0,242.63,216.3Z"/><path class="cls-16" d="M248.56,214.34c-.43.14-.82.24-1.25.35-.25,0-.35.13-.41.44-.09.6-.26,1.15-.38,1.77a.68.68,0,0,0,.12.53,8.51,8.51,0,0,0,1,.92.57.57,0,0,1,.1.84l-.85,1.17a.53.53,0,0,1-.83.14,5.09,5.09,0,0,0-1.11-.64.74.74,0,0,0-.58.06c-.55.31-1.06.61-1.56,1a.72.72,0,0,0-.26.45c0,.45,0,.89.06,1.33s-.11.68-.58.72a7.31,7.31,0,0,0-1.27.21c-.47.11-.68-.08-.79-.51,0-.14-.09-.32-.11-.46-.06-.85-.51-1.11-1.33-1.35a1.91,1.91,0,0,0-2.5.89.53.53,0,0,1-.86.14c-.38-.28-.72-.56-1.1-.79a.61.61,0,0,1-.18-.94c.23-.37.4-.73.64-1.07a.46.46,0,0,0,0-.66,3.79,3.79,0,0,1-.64-1c-.27-.74-.7-.89-1.47-.81-1.42.19-1.25.06-1.45-1.18s-.21-1.3,1.05-1.58c.71-.15,1.08-.39,1.11-1.18,0-.52.45-1.11.3-1.53s-.79-.77-1.18-1.15a.51.51,0,0,1-.09-.8l.82-1.13a.54.54,0,0,1,.85-.22,1.83,1.83,0,0,1,.46.3c.63.46,1.25.62,1.84-.07a.43.43,0,0,1,.27-.19c1-.24,1.08-.88,1-1.76s0-1,1-1.19c1.59-.26,1.45-.42,1.86,1.18.13.58.33.91,1,.89a1.21,1.21,0,0,1,.69.15,1.25,1.25,0,0,0,1.78-.51c.85-1.14.91-.78,1.75-.17,1.14.82,1.15.67.42,1.86-.36.58-.55,1,0,1.6.36.39.48,1.11.89,1.34s1.07,0,1.63,0a.8.8,0,0,1,.58.39,11.62,11.62,0,0,1,.3,1.62,2,2,0,0,1,0,.38A3.1,3.1,0,0,1,248.56,214.34Z"/><text class="cls-17" transform="translate(63.59 91.07)"><tspan class="cls-18">T</tspan><tspan x="5.4" y="0">ransparent </tspan><tspan x="0" y="14.4">encryption</tspan></text><line class="cls-9" x1="209.59" y1="253.55" x2="209.59" y2="175.49"/><polygon class="cls-10" points="217.77 246.92 216.3 245.56 209.59 252.78 202.87 245.56 201.41 246.92 209.59 255.72 217.77 246.92"/><text class="cls-17" transform="translate(261.32 212.8)"><tspan class="cls-18">T</tspan><tspan x="5.4" y="0">ransparent </tspan><tspan x="0" y="14.4">encryption</tspan></text><text class="cls-17" transform="translate(63.59 142.1)">stdin<tspan x="0" y="14.4">stdout</tspan><tspan x="0" y="28.8">stderr</tspan></text><path class="cls-19" d="M391.5,115.61a6.89,6.89,0,0,1,0,13.78"/><text class="cls-20" transform="translate(423.29 90.91) scale(1.01 1)">TLS <tspan x="-31.71" y="14.4">P</tspan><tspan class="cls-21" x="-24.44" y="14.4">r</tspan><tspan x="-19.51" y="14.4">otected</tspan></text><rect class="cls-22" x="174.45" y="69.75" width="171.79" height="105.4" rx="5"/><rect class="cls-19" x="174.45" y="69.75" width="171.79" height="105.4" rx="5"/><rect class="cls-23" x="187.26" y="116.03" width="145.55" height="27.21" rx="5"/><text class="cls-24" transform="translate(197.88 133.2)">Un<tspan class="cls-12" x="15.29" y="0">m</tspan><tspan x="25.47" y="0">odified Ap</tspan><tspan class="cls-25" x="78.5" y="0">p</tspan><tspan x="85.05" y="0">lic</tspan><tspan class="cls-26" x="97.9" y="0">a</tspan><tspan x="103.51" y="0">tion</tspan></text><rect class="cls-27" x="187.26" y="259.27" width="145.55" height="27.21" rx="5"/><text class="cls-28" transform="translate(229.82 276.43)">File system</text><path class="cls-15" d="M251,58a11.73,11.73,0,1,1-3.52,8.38,11.54,11.54,0,0,1,2.4-7.1"/><path class="cls-23" d="M259.28,72H255c-.58,0-.8-.23-.8-.81V64.74c0-.58.22-.8.8-.8h8.46c.54,0,.77.22.77.77V71.2c0,.55-.23.77-.77.77C262.08,72,260.67,72,259.28,72Z"/><path class="cls-23" d="M254.93,63.37a4.48,4.48,0,0,1,2.64-4.13,4.19,4.19,0,0,1,5.77,2.85c.1.39.14.77.24,1.19"/><path class="cls-10" d="M258.58,69.24h0v.87c0,.16.06.22.26.22h.83c.23,0,.29-.06.29-.25V68.47a.37.37,0,0,1,.23-.39,1.21,1.21,0,0,0,.61-1.44,1.55,1.55,0,0,0-1.45-1,1.65,1.65,0,0,0-1.61.87,1.2,1.2,0,0,0,.55,1.51.43.43,0,0,1,.26.48A6,6,0,0,1,258.58,69.24Z"/><g id="Scone_logo_white" data-name="Scone logo white"><g class="cls-29"><g class="cls-29"><path class="cls-30" d="M247,159.84h-.76a.29.29,0,0,0-.29.29v.78a.29.29,0,0,0,.29.29H247a.29.29,0,0,0,.29-.29v-.78a.29.29,0,0,0-.29-.29m-2.65,1.36h.76a.3.3,0,0,0,.3-.29v-.78a.3.3,0,0,0-.3-.29h-.76a.29.29,0,0,0-.29.29v.78a.29.29,0,0,0,.29.29m-.82-.29v-.78a.29.29,0,0,0-.29-.29h-.76a.29.29,0,0,0-.29.29v.78a.29.29,0,0,0,.29.29h.76a.29.29,0,0,0,.29-.29m3.53.83a.22.22,0,0,0-.22.22v.91a.22.22,0,0,0,.44,0V162a.21.21,0,0,0-.22-.22M245,162v.78a.29.29,0,0,0,.29.29H246a.29.29,0,0,0,.29-.29V162a.29.29,0,0,0-.29-.29h-.76a.29.29,0,0,0-.29.29m-.55.78V162a.29.29,0,0,0-.29-.29h-.76a.29.29,0,0,0-.29.29v.78a.29.29,0,0,0,.29.29h.76a.29.29,0,0,0,.29-.29m2.58.83h-.76a.3.3,0,0,0-.29.3v.77a.29.29,0,0,0,.29.29H247a.29.29,0,0,0,.29-.29v-.77a.3.3,0,0,0-.29-.3m-2,0h-.76a.3.3,0,0,0-.29.3v.77a.29.29,0,0,0,.29.29H245a.29.29,0,0,0,.3-.29v-.77a.3.3,0,0,0-.3-.3"/><path class="cls-30" d="M247.91,159.53a1.73,1.73,0,0,0,1.19.37s0,0,0,.06v2.09c0,.8-1,1.3-1.21,1.43,0,0,0,0,0,0v-3.92s0,0,0,0"/><path class="cls-30" d="M245.61,159.43c1.61-.06,1.88-.62,1.88-.62a.08.08,0,0,1,.07,0s.06,0,.07,0,.25.6,1.86.6c0,0,.06,0,.06.07v2.75c0,.88-1.67,1.88-1.7,1.89a.12.12,0,0,0,0,.06v.69s.1,0,.14,0c.62-.34,2.34-1.29,2.34-2.46v-3.51c0-.06-.1-.11-.16-.11-2.05,0-2.43-.74-2.43-.74s-.08,0-.13,0-.07,0-.09,0-.33.78-2.37.78c-.07,0-.09,0-.09.09v.44s0,.1.06.1.54,0,.54,0"/><path class="cls-31" d="M251.81,163.92l.81-.31a1.14,1.14,0,0,0,1.07.62,1.11,1.11,0,0,0,.63-.15.49.49,0,0,0,.27-.44c0-.44-.6-.7-1-.87l0,0a3.43,3.43,0,0,1-1-.53,1.16,1.16,0,0,1-.47-1,1.27,1.27,0,0,1,.48-1,1.91,1.91,0,0,1,1.22-.41,1.76,1.76,0,0,1,1.61.88l-.85.32a.64.64,0,0,0-.3-.31,1.11,1.11,0,0,0-.46-.1c-.47,0-.79.25-.79.58a.66.66,0,0,0,.32.53,4.16,4.16,0,0,0,.73.38l.1,0c.63.26,1.41.6,1.41,1.44a1.21,1.21,0,0,1-.56,1,2.23,2.23,0,0,1-1.33.38,1.92,1.92,0,0,1-1.87-1.11"/><path class="cls-31" d="M259.06,165a2.54,2.54,0,0,1-1-.21,2.47,2.47,0,0,1-.82-.55,2.52,2.52,0,0,1-.55-.82,2.53,2.53,0,0,1,0-2,2.42,2.42,0,0,1,.55-.82,2.66,2.66,0,0,1,.82-.56,2.71,2.71,0,0,1,1-.2,2.56,2.56,0,0,1,1.18.28,2.65,2.65,0,0,1,.89.74l-.69.52a1.69,1.69,0,0,0-.6-.5,1.8,1.8,0,0,0-.79-.19,1.74,1.74,0,0,0-1.74,1.74,1.74,1.74,0,0,0,1.74,1.74,1.72,1.72,0,0,0,.88-.25,1.84,1.84,0,0,0,.63-.64l.74.42a2.5,2.5,0,0,1-.93,1,2.38,2.38,0,0,1-1.31.37"/><path class="cls-31" d="M264.73,165a2.67,2.67,0,0,1-1-.2,2.31,2.31,0,0,1-.82-.56,2.44,2.44,0,0,1-.56-.82,2.67,2.67,0,0,1-.2-1,2.53,2.53,0,0,1,.2-1,2.66,2.66,0,0,1,.56-.82,2.88,2.88,0,0,1,.82-.55,2.53,2.53,0,0,1,2,0,2.52,2.52,0,0,1,.82.55,2.81,2.81,0,0,1,.55.82,2.54,2.54,0,0,1,.21,1,2.5,2.5,0,0,1-.21,1,2.57,2.57,0,0,1-.55.82,2.72,2.72,0,0,1-.82.56,2.67,2.67,0,0,1-1,.2m0-4.34a1.66,1.66,0,0,0-1.23.51,1.74,1.74,0,0,0-.51,1.23,1.66,1.66,0,0,0,.51,1.23,1.74,1.74,0,0,0,2.46,0,1.74,1.74,0,0,0,.51-1.23,1.78,1.78,0,0,0-.51-1.23,1.74,1.74,0,0,0-1.23-.51"/><polygon class="cls-31" points="273.2 159.88 273.2 165.15 269.57 161.81 269.57 164.95 268.65 164.95 268.65 159.69 272.28 163.04 272.28 159.88 273.2 159.88"/><polygon class="cls-31" points="275.68 160.66 275.68 162 278.21 162 278.21 162.79 275.68 162.79 275.68 164.16 278.51 164.16 278.51 164.95 274.75 164.95 274.75 159.88 278.51 159.88 278.51 160.67 275.68 160.67 275.68 160.66"/></g></g></g><text class="cls-32" transform="translate(208.81 102.22)">Intel SGX E<tspan class="cls-33" x="64.96" y="0">n</tspan><tspan x="72.67" y="0">cl</tspan><tspan class="cls-34" x="83.02" y="0">a</tspan><tspan class="cls-35" x="89.66" y="0">v</tspan><tspan x="96.56" y="0">e</tspan></text></g></svg>