<?xml version="1.0" encoding="utf-8"?>
<!-- Generator: Adobe Illustrator 24.0.0, SVG Export Plug-In . SVG Version: 6.00 Build 0)  -->
<svg version="1.1" id="Ebene_1" xmlns="http://www.w3.org/2000/svg" xmlns:xlink="http://www.w3.org/1999/xlink" x="0px" y="0px"
	 viewBox="0 0 507.6 330.4" style="enable-background:new 0 0 507.6 330.4;" xml:space="preserve">
<style type="text/css">
	.st0{fill:none;stroke:#CC3300;stroke-width:2;stroke-miterlimit:10;stroke-dasharray:2,2;}
	.st1{fill:#FFFFFF;stroke:#FFCC00;stroke-width:2;stroke-miterlimit:10;}
	.st2{fill:none;stroke:#FFCC00;stroke-width:2;stroke-miterlimit:10;stroke-dasharray:2,2;}
	.st3{fill:#FFCC00;}
	.st4{enable-background:new    ;}
	.st5{fill:#330066;}
	.st6{fill:none;stroke:#FF6633;stroke-width:2;stroke-linecap:round;stroke-linejoin:round;}
	.st7{fill:#FF6633;}
	.st8{fill:#FFFFFF;stroke:#FFCC00;stroke-width:2;stroke-linecap:round;stroke-linejoin:round;}
	.st9{fill:none;stroke:#FFCC00;stroke-linecap:round;stroke-linejoin:round;}
	.st10{fill:none;stroke:#FFCC00;stroke-width:2;stroke-miterlimit:10;}
	.st11{fill:url(#SVGID_1_);}
	.st12{fill:none;stroke:#FFCC00;stroke-width:2;stroke-linecap:round;stroke-linejoin:round;}
	.st13{fill:none;stroke:#330066;stroke-width:2;stroke-linecap:round;stroke-linejoin:round;}
	.st14{clip-path:url(#SVGID_3_);}
	.st15{clip-path:url(#SVGID_5_);}
	.st16{fill:#FFD138;}
	.st17{fill:#FDFEFF;}
	.st18{fill:#FFFFFF;}
</style>
<title>sconeapp</title>
<path class="st0" d="M147.5,31.1h222.8c2.8,0,5,2.2,5,5v282.6c0,2.8-2.2,5-5,5H147.5c-2.8,0-5-2.2-5-5V36.2
	C142.5,33.4,144.8,31.1,147.5,31.1z"/>
<polyline class="st1" points="446.5,115.6 342.4,115.6 342.4,129.4 446.5,129.4 "/>
<line class="st2" x1="172.3" y1="121.6" x2="25.4" y2="121.6"/>
<polygon class="st3" points="165.7,113.4 164.3,114.9 171.5,121.6 164.3,128.3 165.7,129.8 174.4,121.6 "/>
<g class="st4">
	<path class="st5" d="M184.6,13.7v1l-0.9,0.2v4.5c0,0.6,0.2,1,0.5,1.3s0.7,0.4,1.2,0.4s1-0.1,1.3-0.4s0.5-0.7,0.5-1.3v-4.5l-0.9-0.2
		v-1h3.5v1l-0.9,0.2v4.5c0,1-0.3,1.7-0.9,2.2s-1.5,0.8-2.5,0.8s-1.8-0.3-2.5-0.8s-0.9-1.3-0.9-2.2v-4.5l-0.9-0.2v-1h0.9h1.7H184.6z"
		/>
	<path class="st5" d="M190.2,21.2L191,21v-3.9l-0.9-0.2v-1h2.5l0.1,0.9c0.2-0.3,0.5-0.6,0.8-0.8s0.7-0.3,1-0.3
		c0.6,0,1.1,0.2,1.5,0.6c0.4,0.4,0.5,1,0.5,1.9V21l0.8,0.2v1H194v-1l0.7-0.2v-2.8c0-0.4-0.1-0.7-0.3-0.9S194,17,193.6,17
		c-0.2,0-0.4,0-0.6,0.1s-0.3,0.2-0.5,0.4V21l0.7,0.2v1H190v-1H190.2z"/>
	<path class="st5" d="M200.4,14.4V16h1.1v1.2h-1.1v3.2c0,0.2,0.1,0.4,0.2,0.5s0.2,0.2,0.4,0.2c0.1,0,0.2,0,0.3,0s0.2,0,0.3,0
		l0.1,1.2c-0.2,0.1-0.4,0.1-0.6,0.1s-0.4,0-0.6,0c-0.6,0-1-0.2-1.4-0.5s-0.5-0.8-0.5-1.5v-3.2h-0.9V16h0.9v-1.6
		C198.6,14.4,200.4,14.4,200.4,14.4z"/>
	<path class="st5" d="M202.5,21.2l0.8-0.2v-3.9l-0.9-0.2v-1h2.5l0.1,0.9c0.1-0.3,0.3-0.6,0.6-0.8s0.5-0.3,0.8-0.3c0.1,0,0.2,0,0.3,0
		s0.2,0,0.2,0l-0.2,1.6H206c-0.3,0-0.5,0-0.6,0.1s-0.3,0.2-0.4,0.4V21l0.8,0.2v1h-3.4L202.5,21.2L202.5,21.2z"/>
	<path class="st5" d="M211.8,21.4c-0.2,0.3-0.5,0.5-0.8,0.7s-0.6,0.2-1,0.2c-0.7,0-1.2-0.2-1.6-0.6s-0.6-1.1-0.6-2v-2.6l-0.7-0.2v-1
		h0.7h1.7v3.8c0,0.5,0.1,0.8,0.2,1s0.4,0.3,0.7,0.3s0.5,0,0.7-0.1s0.4-0.2,0.5-0.4v-3.4l-0.8-0.2v-1h0.8h1.7V21l0.8,0.2v1h-2.3
		L211.8,21.4z"/>
	<path class="st5" d="M220.1,18.1H219l-0.2-0.8c-0.1-0.1-0.3-0.2-0.4-0.2S218,17,217.8,17c-0.3,0-0.5,0.1-0.7,0.2s-0.3,0.3-0.3,0.5
		s0.1,0.4,0.3,0.5s0.5,0.2,1,0.3c0.8,0.2,1.4,0.4,1.7,0.7s0.6,0.7,0.6,1.3c0,0.6-0.2,1-0.7,1.4s-1.1,0.5-1.9,0.5
		c-0.5,0-0.9-0.1-1.3-0.2s-0.8-0.3-1.1-0.6v-1.4h1.2l0.2,0.8c0.1,0.1,0.2,0.1,0.4,0.2s0.4,0.1,0.6,0.1c0.3,0,0.6-0.1,0.8-0.2
		s0.3-0.3,0.3-0.5s-0.1-0.3-0.3-0.5s-0.5-0.3-1-0.4c-0.7-0.2-1.3-0.4-1.7-0.7s-0.6-0.7-0.6-1.2s0.2-1,0.7-1.4s1.1-0.6,1.9-0.6
		c0.5,0,1,0.1,1.4,0.2s0.8,0.3,1,0.5L220.1,18.1z"/>
	<path class="st5" d="M223.6,14.4V16h1.1v1.2h-1.1v3.2c0,0.2,0.1,0.4,0.2,0.5s0.2,0.2,0.4,0.2c0.1,0,0.2,0,0.3,0s0.2,0,0.3,0
		l0.1,1.2c-0.2,0.1-0.4,0.1-0.6,0.1s-0.4,0-0.6,0c-0.6,0-1-0.2-1.4-0.5s-0.5-0.8-0.5-1.5v-3.2H221V16h0.9v-1.6
		C221.9,14.4,223.6,14.4,223.6,14.4z"/>
	<path class="st5" d="M228.6,22.4c-0.9,0-1.6-0.3-2.2-0.9s-0.8-1.3-0.8-2.2V19c0-0.9,0.3-1.7,0.8-2.3s1.2-0.9,2.1-0.9
		c0.9,0,1.5,0.3,2,0.8s0.7,1.2,0.7,2.1v0.9h-3.8l0,0c0,0.4,0.2,0.8,0.4,1s0.6,0.4,1,0.4s0.7,0,0.9-0.1s0.5-0.2,0.8-0.4l0.5,1.1
		c-0.3,0.2-0.6,0.4-1,0.5S229.1,22.4,228.6,22.4z M228.4,17.1c-0.3,0-0.6,0.1-0.8,0.4s-0.3,0.6-0.3,1l0,0h2.1v-0.2
		c0-0.4-0.1-0.7-0.3-0.9S228.8,17.1,228.4,17.1z"/>
	<path class="st5" d="M236.1,21.5c-0.2,0.3-0.4,0.5-0.7,0.7s-0.6,0.2-0.9,0.2c-0.8,0-1.4-0.3-1.8-0.9s-0.6-1.3-0.6-2.3v-0.1
		c0-1,0.2-1.8,0.7-2.4s1-0.9,1.8-0.9c0.3,0,0.6,0.1,0.9,0.2s0.5,0.3,0.7,0.6v-2.3l-0.9-0.2v-1h0.9h1.7V21l0.8,0.2v1h-2.3L236.1,21.5
		z M233.7,19.3c0,0.6,0.1,1,0.3,1.3s0.5,0.5,0.9,0.5c0.3,0,0.5-0.1,0.7-0.2s0.3-0.2,0.5-0.4v-2.7c-0.1-0.2-0.3-0.4-0.4-0.5
		s-0.4-0.2-0.6-0.2c-0.4,0-0.7,0.2-0.9,0.6s-0.3,0.9-0.3,1.5v0.1H233.7z"/>
	<path class="st5" d="M241.9,14.8v-1h3.5v1l-0.9,0.2v2.5h3.5V15l-0.9-0.2v-1h0.9h1.7h0.9v1l-0.9,0.2v6l0.9,0.2v1h-3.5v-1L248,21
		v-2.3h-3.5V21l0.9,0.2v1h-3.5v-1l0.9-0.2v-6.1L241.9,14.8z"/>
	<path class="st5" d="M251.4,19c0-0.9,0.3-1.7,0.8-2.3s1.3-0.9,2.2-0.9s1.7,0.3,2.2,0.9s0.8,1.4,0.8,2.3v0.1c0,1-0.3,1.7-0.8,2.3
		s-1.3,0.9-2.2,0.9s-1.7-0.3-2.2-0.9s-0.8-1.4-0.8-2.3L251.4,19L251.4,19z M253.1,19.1c0,0.6,0.1,1,0.3,1.4s0.5,0.5,1,0.5
		c0.4,0,0.8-0.2,1-0.5s0.3-0.8,0.3-1.4V19c0-0.6-0.1-1-0.3-1.4s-0.5-0.5-1-0.5s-0.8,0.2-1,0.5s-0.3,0.8-0.3,1.4V19.1z"/>
	<path class="st5" d="M263.3,18.1h-1.1l-0.2-0.8c-0.1-0.1-0.3-0.2-0.4-0.2S261.2,17,261,17c-0.3,0-0.5,0.1-0.7,0.2s-0.3,0.3-0.3,0.5
		s0.1,0.4,0.3,0.5s0.5,0.2,1,0.3c0.8,0.2,1.4,0.4,1.7,0.7s0.6,0.7,0.6,1.3c0,0.6-0.2,1-0.7,1.4s-1.1,0.5-1.9,0.5
		c-0.5,0-0.9-0.1-1.3-0.2s-0.8-0.3-1.1-0.6v-1.4h1.2L260,21c0.1,0.1,0.2,0.1,0.4,0.2s0.4,0.1,0.6,0.1c0.3,0,0.6-0.1,0.8-0.2
		s0.3-0.3,0.3-0.5s-0.1-0.3-0.3-0.5s-0.5-0.3-1-0.4c-0.7-0.2-1.3-0.4-1.7-0.7s-0.6-0.7-0.6-1.2s0.2-1,0.7-1.4s1.1-0.6,1.9-0.6
		c0.5,0,1,0.1,1.4,0.2s0.8,0.3,1,0.5L263.3,18.1z"/>
	<path class="st5" d="M266.8,14.4V16h1.1v1.2h-1.1v3.2c0,0.2,0.1,0.4,0.2,0.5s0.2,0.2,0.4,0.2c0.1,0,0.2,0,0.3,0s0.2,0,0.3,0
		l0.1,1.2c-0.2,0.1-0.4,0.1-0.6,0.1s-0.4,0-0.6,0c-0.6,0-1-0.2-1.4-0.5s-0.5-0.8-0.5-1.5v-3.2h-0.9V16h0.9v-1.6
		C265,14.4,266.8,14.4,266.8,14.4z"/>
	<path class="st5" d="M272.4,23h-1.3l3.1-9.3h1.3L272.4,23z"/>
	<path class="st5" d="M281.9,14.8l-0.7,0.1l1.5,5.1l0.1,0.5l0,0L283,20l1.5-5.1l-0.6-0.1v-1h3.1v1l-0.7,0.1l-2.5,7.4H282l-2.5-7.4
		l-0.7-0.1v-1h3.1V14.8z"/>
	<path class="st5" d="M295.8,15.9L295.8,15.9l-2.3,6.3h-1.1l-2.3-6.3l0,0l0.2,3.7V21l0.9,0.2v1h-3.5v-1l0.9-0.2v-6.1l-0.9-0.2v-1
		h0.9h2.2L293,20l0,0l2.2-6.3h3.2v1l-0.9,0.2V21l0.9,0.2v1h-3.5v-1l0.9-0.2v-1.3L295.8,15.9z"/>
	<path class="st5" d="M299.7,23h-1.3l3.1-9.3h1.3L299.7,23z"/>
	<path class="st5" d="M313.2,16.6h-1.3l-0.2-1.1c-0.2-0.2-0.4-0.3-0.6-0.4s-0.6-0.1-0.9-0.1c-0.7,0-1.3,0.3-1.7,0.8
		c-0.4,0.5-0.6,1.2-0.6,2.1v0.3c0,0.9,0.2,1.6,0.6,2.1s1,0.8,1.7,0.8c0.3,0,0.6,0,0.9-0.1s0.5-0.2,0.6-0.4l0.2-1.1h1.3v1.7
		c-0.3,0.4-0.8,0.7-1.3,1s-1.1,0.4-1.8,0.4c-1.1,0-2.1-0.4-2.8-1.2s-1.1-1.8-1.1-3.1V18c0-1.2,0.4-2.3,1.1-3.1s1.7-1.2,2.8-1.2
		c0.7,0,1.3,0.1,1.8,0.4s1,0.6,1.3,1V16.6z"/>
	<path class="st5" d="M314,19c0-0.9,0.3-1.7,0.8-2.3s1.3-0.9,2.2-0.9c0.9,0,1.7,0.3,2.2,0.9s0.8,1.4,0.8,2.3v0.1
		c0,1-0.3,1.7-0.8,2.3s-1.3,0.9-2.2,0.9c-0.9,0-1.7-0.3-2.2-0.9S314,20,314,19.1V19z M315.7,19.1c0,0.6,0.1,1,0.3,1.4s0.5,0.5,1,0.5
		c0.4,0,0.8-0.2,1-0.5s0.3-0.8,0.3-1.4V19c0-0.6-0.1-1-0.3-1.4s-0.5-0.5-1-0.5s-0.8,0.2-1,0.5s-0.3,0.8-0.3,1.4V19.1z"/>
	<path class="st5" d="M320.6,21.2l0.8-0.2v-3.9l-0.9-0.2v-1h2.5l0.1,0.9c0.2-0.3,0.5-0.6,0.8-0.8s0.7-0.3,1-0.3
		c0.6,0,1.1,0.2,1.5,0.6c0.4,0.4,0.5,1,0.5,1.9V21l0.8,0.2v1h-3.3v-1l0.7-0.2v-2.8c0-0.4-0.1-0.7-0.3-0.9S324.4,17,324,17
		c-0.2,0-0.4,0-0.6,0.1s-0.3,0.2-0.5,0.4V21l0.7,0.2v1h-3.2v-1H320.6z"/>
	<path class="st5" d="M330.9,14.4V16h1.1v1.2h-1.1v3.2c0,0.2,0.1,0.4,0.2,0.5s0.2,0.2,0.4,0.2c0.1,0,0.2,0,0.3,0s0.2,0,0.3,0
		l0.1,1.2c-0.2,0.1-0.4,0.1-0.6,0.1s-0.4,0-0.6,0c-0.6,0-1-0.2-1.4-0.5s-0.5-0.8-0.5-1.5v-3.2h-0.9V16h0.9v-1.6
		C329.1,14.4,330.9,14.4,330.9,14.4z"/>
	<path class="st5" d="M336.9,22.3c0-0.1-0.1-0.2-0.1-0.3s-0.1-0.2-0.1-0.3c-0.2,0.2-0.5,0.4-0.7,0.6s-0.6,0.2-1,0.2
		c-0.6,0-1.1-0.2-1.5-0.5s-0.5-0.8-0.5-1.4s0.2-1.1,0.7-1.4s1.2-0.5,2.1-0.5h0.9V18c0-0.3-0.1-0.5-0.3-0.7S336,17,335.6,17
		c-0.2,0-0.4,0-0.5,0.1s-0.3,0.1-0.4,0.2l-0.1,0.7h-1.3v-1.4c0.3-0.2,0.7-0.4,1.1-0.5s0.8-0.2,1.3-0.2c0.8,0,1.4,0.2,1.9,0.6
		s0.7,0.9,0.7,1.6v2.6c0,0.1,0,0.2,0,0.3s0,0.2,0,0.2l0.5,0.1v1C338.8,22.3,336.9,22.3,336.9,22.3z M335.4,21.1
		c0.3,0,0.5-0.1,0.7-0.2s0.4-0.3,0.5-0.4v-1h-0.9c-0.4,0-0.6,0.1-0.8,0.3s-0.3,0.4-0.3,0.6s0.1,0.4,0.2,0.5S335.1,21.1,335.4,21.1z"
		/>
	<path class="st5" d="M339.4,21.2l0.8-0.2v-3.9l-0.9-0.2v-1h2.6V21l0.8,0.2v1h-3.4v-1H339.4z M341.9,14.4h-1.7v-1.3h1.7V14.4z"/>
</g>
<g class="st4">
	<path class="st5" d="M343.2,21.2L344,21v-3.9l-0.9-0.2v-1h2.5l0.1,0.9c0.2-0.3,0.5-0.6,0.8-0.8s0.7-0.3,1-0.3
		c0.6,0,1.1,0.2,1.5,0.6c0.4,0.4,0.5,1,0.5,1.9V21l0.8,0.2v1H347v-1l0.7-0.2v-2.8c0-0.4-0.1-0.7-0.3-0.9S347,17,346.6,17
		c-0.2,0-0.4,0-0.6,0.1s-0.3,0.2-0.5,0.4V21l0.7,0.2v1H343v-1H343.2z"/>
</g>
<g class="st4">
	<path class="st5" d="M353.9,22.4c-0.9,0-1.6-0.3-2.2-0.9s-0.8-1.3-0.8-2.2V19c0-0.9,0.3-1.7,0.8-2.3s1.2-0.9,2.1-0.9s1.5,0.3,2,0.8
		s0.7,1.2,0.7,2.1v0.9h-3.8l0,0c0,0.4,0.2,0.8,0.4,1s0.6,0.4,1,0.4s0.7,0,0.9-0.1s0.5-0.2,0.8-0.4l0.5,1.1c-0.3,0.2-0.6,0.4-1,0.5
		S354.4,22.4,353.9,22.4z M353.7,17.1c-0.3,0-0.6,0.1-0.8,0.4s-0.3,0.6-0.3,1l0,0h2.1v-0.2c0-0.4-0.1-0.7-0.3-0.9
		S354.1,17.1,353.7,17.1z"/>
	<path class="st5" d="M357.4,21.2l0.8-0.2v-3.9l-0.9-0.2v-1h2.5l0.1,0.9c0.1-0.3,0.3-0.6,0.6-0.8s0.5-0.3,0.8-0.3c0.1,0,0.2,0,0.3,0
		s0.2,0,0.2,0l-0.2,1.6h-0.7c-0.3,0-0.5,0-0.6,0.1s-0.3,0.2-0.4,0.4V21l0.8,0.2v1h-3.4v-1H357.4z"/>
</g>
<path class="st6" d="M166.6,21.1h-4.2c-0.6,0-0.8-0.2-0.8-0.8v-6.5c0-0.6,0.2-0.8,0.8-0.8h8.4c0.6,0,0.8,0.2,0.8,0.8v6.5
	c0,0.5-0.2,0.8-0.8,0.8C169.4,21.1,168,21.1,166.6,21.1z"/>
<path class="st6" d="M165.3,4.8c1.6-0.7,3.5-0.5,4.9,0.7c1.7,1.6,1.9,4.2,0.3,5.9c-0.2,0.2-0.3,0.3-0.5,0.5c-0.3,0.3-0.6,0.4-1,0.7"
	/>
<path class="st7" d="M165.9,18.3L165.9,18.3v0.9c0,0.2,0.1,0.2,0.3,0.2h0.8c0.2,0,0.3-0.1,0.3-0.3v-1.6c0-0.2,0.1-0.3,0.2-0.4
	c0.5-0.3,0.8-0.9,0.6-1.4c-0.2-0.6-0.8-1-1.4-1c-0.7-0.1-1.3,0.3-1.6,0.9c-0.2,0.6,0,1.2,0.5,1.5c0.2,0.1,0.3,0.3,0.3,0.5
	C165.9,17.8,165.9,18.1,165.9,18.3z"/>
<path class="st8" d="M46.8,106.1c-7.2,3.1-15.5-0.2-18.6-7.4C25,91.5,28.3,83.1,35.5,80s15.5,0.2,18.6,7.4
	C57.3,94.6,53.9,103,46.8,106.1z"/>
<circle class="st8" cx="41.1" cy="93.1" r="14.2"/>
<path class="st9" d="M52,102.1c-0.1-0.3-0.3-0.5-0.6-0.6c-0.9-0.6-2.1-0.4-2.7,0.5c-0.6,0.9-0.4,2,0.4,2.7"/>
<path class="st9" d="M54,99.1c0-0.1-0.1-0.2-0.3-0.3c-0.1,0-0.1-0.1-0.2-0.2c-0.6-0.4-0.6-0.4-1.2,0.2c-0.3,0.3-0.6,0.5-0.9,0.2
	c-0.1,0-0.1,0-0.2,0c-0.6,0-0.8-0.3-0.9-0.8c0-0.2-0.2-0.5-0.3-0.5c-0.4,0-0.9,0.1-1.3,0.2c0,0.3,0,0.7,0,1c0,0.2-0.1,0.4-0.3,0.5
	c-0.1,0.1-0.2,0.1-0.2,0.2c-0.3,0.4-0.9,0.4-1.3,0.1l-0.1-0.1c-0.2-0.2-0.4-0.2-0.6,0c-0.1,0-0.1,0.1-0.1,0.2s-0.1,0.1-0.2,0.2
	c-0.5,0.6-0.5,0.7,0.1,1.1c0.3,0.1,0.4,0.5,0.3,0.8c0,0,0,0,0,0.1s-0.1,0.2-0.1,0.3c0.1,0.6-0.3,0.8-0.8,0.9s-0.6,0.4-0.5,0.9
	s0,0.9,0.8,0.8c0.3,0,0.6-0.1,0.8,0.1c0.3,0.3,0.5,0.6,0.7,1"/>
<path class="st9" d="M42.6,93.8c1.1-1.5,0.8-3.5-0.7-4.6s-3.5-0.8-4.6,0.7s-0.8,3.5,0.7,4.6l0,0C39.5,95.6,41.5,95.2,42.6,93.8
	L42.6,93.8z"/>
<path class="st9" d="M48.5,91.8c-0.4,0.1-0.8,0.2-1.2,0.3c-0.3,0-0.3,0.1-0.4,0.4c-0.1,0.6-0.3,1.2-0.4,1.8c0,0.2,0,0.4,0.1,0.5
	c0.3,0.3,0.6,0.6,1,0.9c0.3,0.2,0.3,0.5,0.1,0.8c0,0,0,0,0,0.1l-0.8,1.2c-0.1,0.3-0.4,0.4-0.7,0.3c0,0-0.1,0-0.1-0.1
	c-0.3-0.3-0.7-0.5-1.1-0.6c-0.2-0.1-0.4,0-0.6,0.1c-0.5,0.3-1,0.6-1.5,1c-0.1,0.1-0.2,0.3-0.3,0.4c0,0.4,0,0.9,0.1,1.3
	s-0.1,0.7-0.6,0.7c-0.4,0-0.9,0.1-1.3,0.2c-0.5,0.1-0.7-0.1-0.8-0.5c0-0.1-0.1-0.3-0.1-0.5c-0.1-0.8-0.5-1.1-1.3-1.3
	c-0.9-0.4-2,0-2.5,0.9c-0.2,0.4-0.5,0.4-0.9,0.1S34.4,99.2,34,99c-0.3-0.1-0.4-0.5-0.3-0.8c0-0.1,0.1-0.1,0.1-0.1
	c0.2-0.4,0.4-0.7,0.6-1.1c0.2-0.2,0.2-0.5,0-0.7l0,0c-0.3-0.3-0.5-0.6-0.6-1c-0.3-0.7-0.7-0.9-1.5-0.8c-1.4,0.2-1.3,0.1-1.5-1.2
	s-0.2-1.3,1-1.6c0.7-0.2,1.1-0.4,1.1-1.2c0-0.5,0.5-1.1,0.3-1.5s-0.8-0.8-1.2-1.2c-0.2-0.2-0.3-0.5-0.2-0.7c0,0,0-0.1,0.1-0.1
	l0.8-1.1c0.1-0.3,0.4-0.4,0.7-0.3c0.1,0,0.1,0,0.1,0.1c0.2,0.1,0.3,0.2,0.5,0.3c0.6,0.5,1.3,0.6,1.8-0.1c0.1-0.1,0.2-0.2,0.3-0.2
	c1-0.2,1.1-0.9,1-1.8s-0.1-1,1-1.2c1.6-0.3,1.5-0.4,1.9,1.2c0.1,0.6,0.3,0.9,1,0.9c0.2,0,0.5,0,0.7,0.2c0.6,0.4,1.3,0.2,1.7-0.4
	c0,0,0-0.1,0.1-0.1c0.9-1.1,0.9-0.8,1.8-0.2c1.1,0.8,1.2,0.7,0.4,1.9c-0.3,0.6-0.5,1,0,1.6c0.4,0.4,0.5,1.1,0.9,1.3s1.1,0,1.6,0
	c0.2,0,0.5,0.2,0.6,0.4c0.1,0.5,0.2,1.1,0.3,1.6c0,0.1,0,0.3,0,0.4C49,91.7,48.7,91.8,48.5,91.8z"/>
<path class="st8" d="M246.8,228.6c-7.2,3.1-15.5-0.2-18.7-7.4c-3.1-7.2,0.2-15.5,7.4-18.7s15.5,0.2,18.7,7.4l0,0
	C257.3,217.2,254,225.5,246.8,228.6z"/>
<circle class="st8" cx="241.2" cy="215.6" r="14.2"/>
<path class="st9" d="M252,224.6c-0.1-0.3-0.3-0.5-0.6-0.6c-0.9-0.6-2.1-0.4-2.7,0.5c-0.6,0.9-0.4,2,0.4,2.7"/>
<path class="st9" d="M254.1,221.6c-0.1-0.1-0.2-0.2-0.3-0.3c-0.1,0-0.1-0.1-0.2-0.1c-0.6-0.4-0.6-0.4-1.2,0.1
	c-0.3,0.3-0.6,0.5-0.9,0.2c-0.1,0-0.1-0.1-0.2-0.1c-0.6,0-0.8-0.3-0.9-0.9c0-0.2-0.2-0.5-0.3-0.5c-0.4,0-0.9,0.1-1.3,0.2
	c0,0.3,0,0.7,0,1c0,0.2-0.1,0.4-0.3,0.5c-0.1,0.1-0.2,0.1-0.2,0.1c-0.3,0.4-0.9,0.4-1.3,0.1l-0.1-0.1c-0.2-0.2-0.4-0.2-0.6,0
	c-0.1,0-0.1,0.1-0.1,0.2c0,0.1-0.1,0.1-0.1,0.2c-0.5,0.6-0.5,0.7,0.1,1.1c0.3,0.2,0.4,0.5,0.3,0.8l0,0c0,0.1-0.1,0.2-0.1,0.3
	c0.1,0.6-0.3,0.8-0.8,0.9s-0.6,0.4-0.5,0.9s0,0.9,0.8,0.8c0.3,0,0.6-0.1,0.8,0.1c0.3,0.3,0.5,0.6,0.6,1"/>
<path class="st9" d="M242.6,216.3c1.1-1.5,0.8-3.5-0.7-4.6s-3.5-0.8-4.6,0.7s-0.8,3.5,0.7,4.6l0,0
	C239.5,218.1,241.6,217.8,242.6,216.3L242.6,216.3z"/>
<path class="st9" d="M248.6,214.3c-0.4,0.1-0.8,0.2-1.3,0.4c-0.3,0-0.4,0.1-0.4,0.4c-0.1,0.6-0.3,1.1-0.4,1.8c0,0.2,0,0.4,0.1,0.5
	c0.3,0.3,0.6,0.6,1,0.9c0.3,0.2,0.3,0.5,0.1,0.8l0,0l-0.9,1.2c-0.1,0.3-0.5,0.4-0.7,0.2c0,0-0.1,0-0.1-0.1c-0.3-0.3-0.7-0.5-1.1-0.6
	c-0.2-0.1-0.4,0-0.6,0.1c-0.6,0.3-1.1,0.6-1.6,1c-0.1,0.1-0.2,0.3-0.3,0.4c0,0.4,0,0.9,0.1,1.3s-0.1,0.7-0.6,0.7
	c-0.4,0-0.9,0.1-1.3,0.2c-0.5,0.1-0.7-0.1-0.8-0.5c0-0.1-0.1-0.3-0.1-0.5c-0.1-0.9-0.5-1.1-1.3-1.4c-0.9-0.4-2,0-2.5,0.9
	c-0.1,0.3-0.4,0.4-0.7,0.3c-0.1,0-0.1-0.1-0.2-0.1c-0.4-0.3-0.7-0.6-1.1-0.8c-0.3-0.2-0.4-0.5-0.3-0.8c0,0,0-0.1,0.1-0.1
	c0.2-0.4,0.4-0.7,0.6-1.1c0.2-0.2,0.2-0.5,0-0.7l0,0c-0.3-0.3-0.5-0.6-0.6-1c-0.3-0.7-0.7-0.9-1.5-0.8c-1.4,0.2-1.3,0.1-1.4-1.2
	s-0.2-1.3,1.1-1.6c0.7-0.1,1.1-0.4,1.1-1.2c0-0.5,0.4-1.1,0.3-1.5s-0.8-0.8-1.2-1.1c-0.2-0.1-0.3-0.5-0.2-0.7c0,0,0-0.1,0.1-0.1
	l0.8-1.1c0.1-0.3,0.4-0.4,0.7-0.3c0.1,0,0.1,0.1,0.2,0.1c0.2,0.1,0.3,0.2,0.5,0.3c0.6,0.5,1.3,0.6,1.8-0.1c0.1-0.1,0.2-0.2,0.3-0.2
	c1-0.2,1.1-0.9,1-1.8s0-1,1-1.2c1.6-0.3,1.4-0.4,1.9,1.2c0.1,0.6,0.3,0.9,1,0.9c0.2,0,0.5,0,0.7,0.1c0.6,0.4,1.4,0.2,1.7-0.4
	c0,0,0-0.1,0.1-0.1c0.9-1.1,0.9-0.8,1.8-0.2c1.1,0.8,1.1,0.7,0.4,1.9c-0.4,0.6-0.6,1,0,1.6c0.4,0.4,0.5,1.1,0.9,1.3s1.1,0,1.6,0
	c0.2,0,0.5,0.2,0.6,0.4c0.1,0.5,0.2,1.1,0.3,1.6c0,0.1,0,0.3,0,0.4C249.1,214.2,248.8,214.3,248.6,214.3z"/>
<g class="st4">
	<path class="st5" d="M70,83.6h-2.6v7.5h-1v-7.5h-2.6v-0.9H70V83.6z"/>
</g>
<g class="st4">
	<path class="st5" d="M72.7,86c-0.2-0.1-0.5-0.1-0.7-0.1c-0.3,0-0.6,0.1-0.8,0.3c-0.2,0.2-0.3,0.4-0.4,0.7v4.2h-1v-6h0.7l0.2,0.7
		l0,0c0.2-0.3,0.3-0.5,0.5-0.6S71.7,85,72,85c0.2,0,0.5,0,0.8,0.1L72.7,86z"/>
	<path class="st5" d="M73.9,85.5c0.3-0.2,0.7-0.3,1.1-0.4s0.8-0.1,1.3-0.1c0.4,0,0.8,0.1,1,0.2c0.3,0.1,0.4,0.3,0.6,0.4
		c0.1,0.2,0.2,0.4,0.3,0.6c0,0.2,0.1,0.4,0.1,0.6c0,0.5,0,0.9,0,1.4s0,0.9,0,1.3c0,0.3,0,0.6,0,0.8c0,0.3,0.1,0.5,0.1,0.7h-0.7
		l-0.3-0.8h-0.1c-0.1,0.1-0.2,0.2-0.3,0.3c-0.1,0.1-0.2,0.2-0.4,0.3C76.4,91,76.2,91,76,91.1s-0.4,0.1-0.7,0.1s-0.5,0-0.7-0.1
		s-0.4-0.2-0.6-0.3c-0.2-0.1-0.3-0.3-0.4-0.5s-0.1-0.4-0.1-0.7c0-0.4,0.1-0.6,0.2-0.9c0.1-0.2,0.3-0.4,0.6-0.6
		c0.3-0.1,0.6-0.2,0.9-0.3c0.4-0.1,0.8-0.1,1.2-0.1c0.1,0,0.2,0,0.3,0s0.2,0,0.3,0c0-0.2,0-0.5,0-0.6c0-0.4-0.1-0.7-0.3-0.9
		c-0.2-0.2-0.5-0.3-1-0.3c-0.1,0-0.3,0-0.4,0c-0.2,0-0.3,0-0.5,0.1s-0.3,0.1-0.5,0.1c-0.1,0.1-0.3,0.1-0.4,0.2V85.5z M75.6,90.3
		c0.2,0,0.4,0,0.6-0.1s0.3-0.1,0.5-0.2c0.1-0.1,0.2-0.2,0.3-0.3c0.1-0.1,0.1-0.2,0.2-0.3v-1c-0.1,0-0.2,0-0.3,0c-0.1,0-0.2,0-0.3,0
		c-0.2,0-0.5,0-0.7,0s-0.4,0.1-0.6,0.2s-0.3,0.2-0.4,0.3c-0.1,0.1-0.2,0.3-0.2,0.5c0,0.3,0.1,0.5,0.3,0.7
		C75,90.2,75.3,90.3,75.6,90.3z"/>
	<path class="st5" d="M83.8,91.1v-3.4c0-0.6-0.1-1.1-0.3-1.4c-0.2-0.3-0.5-0.5-1-0.5c-0.4,0-0.8,0.1-1.1,0.3
		c-0.3,0.2-0.5,0.5-0.6,0.9v4.1h-1v-6h0.7l0.2,0.7l0,0c0.2-0.3,0.5-0.5,0.8-0.6c0.3-0.2,0.7-0.2,1.2-0.2c0.3,0,0.6,0,0.9,0.1
		c0.2,0.1,0.5,0.2,0.6,0.4s0.3,0.5,0.4,0.8s0.1,0.7,0.1,1.2v3.6H83.8z"/>
	<path class="st5" d="M89.1,89.4c0-0.2-0.1-0.4-0.2-0.6c-0.1-0.1-0.3-0.3-0.5-0.3s-0.4-0.2-0.7-0.3S87.2,88,87,87.9
		s-0.4-0.3-0.5-0.5s-0.2-0.5-0.2-0.8c0-0.6,0.2-1,0.5-1.3s0.8-0.4,1.4-0.4c0.4,0,0.8,0,1.1,0.1c0.3,0.1,0.5,0.2,0.8,0.3l-0.2,0.8
		c-0.2-0.1-0.4-0.2-0.7-0.2c-0.3-0.1-0.5-0.1-0.8-0.1c-0.4,0-0.6,0.1-0.8,0.2s-0.2,0.3-0.2,0.6c0,0.2,0.1,0.4,0.2,0.5
		s0.3,0.2,0.5,0.3s0.4,0.2,0.7,0.3s0.5,0.2,0.7,0.3s0.4,0.3,0.5,0.5s0.2,0.5,0.2,0.9c0,0.3,0,0.5-0.1,0.7s-0.2,0.4-0.4,0.6
		S89.3,91,89,91.1s-0.6,0.1-0.9,0.1c-0.5,0-0.8,0-1.2-0.1c-0.3-0.1-0.6-0.2-0.8-0.3l0.3-0.8c0.2,0.1,0.4,0.2,0.7,0.3
		s0.6,0.1,0.9,0.1s0.6-0.1,0.9-0.2C89,90,89.1,89.8,89.1,89.4z"/>
	<path class="st5" d="M91.6,85.1h0.7l0.2,0.7l0,0c0.2-0.3,0.4-0.5,0.7-0.6s0.6-0.2,1-0.2c0.8,0,1.4,0.2,1.8,0.7s0.6,1.2,0.6,2.3
		c0,0.5-0.1,1-0.2,1.4s-0.3,0.7-0.6,1c-0.2,0.3-0.5,0.5-0.9,0.6c-0.3,0.2-0.7,0.2-1.1,0.2c-0.3,0-0.5,0-0.7-0.1s-0.4-0.1-0.6-0.2
		v2.5h-1L91.6,85.1L91.6,85.1z M94,85.8c-0.4,0-0.7,0.1-1,0.3c-0.2,0.2-0.4,0.5-0.5,1v3c0.1,0.1,0.3,0.2,0.5,0.3
		c0.2,0.1,0.4,0.1,0.7,0.1c0.6,0,1-0.2,1.3-0.6s0.5-1,0.5-1.8c0-0.3,0-0.6-0.1-0.9s-0.1-0.5-0.3-0.7c-0.1-0.2-0.3-0.3-0.5-0.4
		C94.5,85.8,94.3,85.8,94,85.8z"/>
	<path class="st5" d="M98,85.5c0.3-0.2,0.7-0.3,1.1-0.4s0.8-0.1,1.3-0.1c0.4,0,0.8,0.1,1,0.2c0.3,0.1,0.4,0.3,0.6,0.4
		c0.1,0.2,0.2,0.4,0.3,0.6c0,0.2,0.1,0.4,0.1,0.6c0,0.5,0,0.9,0,1.4s0,0.9,0,1.3c0,0.3,0,0.6,0,0.8c0,0.3,0.1,0.5,0.1,0.7h-0.7
		l-0.3-0.8h-0.1c-0.1,0.1-0.2,0.2-0.3,0.3c-0.1,0.1-0.2,0.2-0.4,0.3c-0.2,0.1-0.3,0.2-0.5,0.2c-0.2,0.1-0.4,0.1-0.7,0.1
		s-0.5,0-0.7-0.1s-0.4-0.2-0.6-0.3c-0.2-0.1-0.3-0.3-0.4-0.5s-0.1-0.4-0.1-0.7c0-0.4,0.1-0.6,0.2-0.9c0.1-0.2,0.3-0.4,0.6-0.6
		c0.3-0.1,0.6-0.2,0.9-0.3c0.4-0.1,0.8-0.1,1.2-0.1c0.1,0,0.2,0,0.3,0s0.2,0,0.3,0c0-0.2,0-0.5,0-0.6c0-0.4-0.1-0.7-0.3-0.9
		c-0.2-0.2-0.5-0.3-1-0.3c-0.1,0-0.3,0-0.4,0c-0.2,0-0.3,0-0.5,0.1S98.7,86,98.5,86c-0.1,0.1-0.3,0.1-0.4,0.2L98,85.5z M99.7,90.3
		c0.2,0,0.4,0,0.6-0.1s0.3-0.1,0.5-0.2c0.1-0.1,0.2-0.2,0.3-0.3c0.1-0.1,0.1-0.2,0.2-0.3v-1c-0.1,0-0.2,0-0.3,0c-0.1,0-0.2,0-0.3,0
		c-0.2,0-0.5,0-0.7,0s-0.4,0.1-0.6,0.2s-0.3,0.2-0.4,0.3c-0.1,0.1-0.2,0.3-0.2,0.5c0,0.3,0.1,0.5,0.3,0.7
		C99.1,90.2,99.3,90.3,99.7,90.3z"/>
	<path class="st5" d="M106.8,86c-0.2-0.1-0.5-0.1-0.7-0.1c-0.3,0-0.6,0.1-0.8,0.3c-0.2,0.2-0.3,0.4-0.4,0.7v4.2h-1v-6h0.7l0.2,0.7
		l0,0c0.2-0.3,0.3-0.5,0.5-0.6s0.5-0.2,0.8-0.2c0.2,0,0.5,0,0.8,0.1L106.8,86z"/>
	<path class="st5" d="M112.5,90.6c-0.2,0.2-0.5,0.3-0.9,0.5c-0.4,0.1-0.8,0.2-1.2,0.2c-0.5,0-0.9-0.1-1.2-0.2
		c-0.3-0.1-0.6-0.4-0.8-0.6c-0.2-0.3-0.4-0.6-0.5-1s-0.2-0.8-0.2-1.3c0-1,0.2-1.8,0.7-2.3s1.1-0.8,2-0.8c0.3,0,0.5,0,0.8,0.1
		s0.5,0.2,0.7,0.3s0.4,0.4,0.5,0.7c0.1,0.3,0.2,0.7,0.2,1.2c0,0.3,0,0.6-0.1,0.9h-3.9c0,0.4,0,0.7,0.1,0.9c0.1,0.3,0.2,0.5,0.3,0.7
		c0.2,0.2,0.3,0.3,0.6,0.4c0.2,0.1,0.5,0.1,0.9,0.1c0.3,0,0.5,0,0.8-0.1s0.5-0.2,0.6-0.3L112.5,90.6z M110.4,85.8
		c-0.5,0-0.9,0.1-1.1,0.4c-0.3,0.2-0.5,0.7-0.5,1.3h3c0-0.6-0.1-1-0.3-1.3C111.2,85.9,110.8,85.8,110.4,85.8z"/>
	<path class="st5" d="M118,91.1v-3.4c0-0.6-0.1-1.1-0.3-1.4c-0.2-0.3-0.5-0.5-1-0.5c-0.4,0-0.8,0.1-1.1,0.3
		c-0.3,0.2-0.5,0.5-0.6,0.9v4.1h-1v-6h0.7l0.2,0.7l0,0c0.2-0.3,0.5-0.5,0.8-0.6c0.3-0.2,0.7-0.2,1.2-0.2c0.3,0,0.6,0,0.9,0.1
		c0.2,0.1,0.5,0.2,0.6,0.4s0.3,0.5,0.4,0.8s0.1,0.7,0.1,1.2v3.6H118z"/>
	<path class="st5" d="M120,85.1h0.9v-1.2l1-0.3v1.5h1.6v0.8h-1.6v3.3c0,0.4,0.1,0.7,0.2,0.9c0.1,0.2,0.3,0.3,0.5,0.3s0.4,0,0.5-0.1
		c0.1,0,0.3-0.1,0.5-0.2l0.2,0.7c-0.2,0.1-0.5,0.2-0.7,0.3c-0.3,0.1-0.5,0.1-0.8,0.1c-0.5,0-0.8-0.1-1-0.4s-0.3-0.7-0.3-1.4v-3.5h-1
		V85.1z"/>
</g>
<g class="st4">
	<path class="st5" d="M68.9,105c-0.2,0.2-0.5,0.3-0.9,0.5c-0.4,0.1-0.8,0.2-1.2,0.2c-0.5,0-0.9-0.1-1.2-0.2
		c-0.3-0.1-0.6-0.4-0.8-0.6c-0.2-0.3-0.4-0.6-0.5-1s-0.2-0.8-0.2-1.3c0-1,0.2-1.8,0.7-2.3s1.1-0.8,2-0.8c0.3,0,0.5,0,0.8,0.1
		s0.5,0.2,0.7,0.3c0.2,0.2,0.4,0.4,0.5,0.7c0.1,0.3,0.2,0.7,0.2,1.2c0,0.3,0,0.6-0.1,0.9H65c0,0.4,0,0.7,0.1,0.9
		c0.1,0.3,0.2,0.5,0.3,0.7c0.2,0.2,0.4,0.3,0.6,0.4s0.5,0.1,0.9,0.1c0.3,0,0.5,0,0.8-0.1s0.5-0.2,0.6-0.3L68.9,105z M66.8,100.2
		c-0.5,0-0.9,0.1-1.1,0.4c-0.3,0.2-0.5,0.7-0.5,1.3h3c0-0.6-0.1-1-0.3-1.3C67.6,100.3,67.3,100.2,66.8,100.2z"/>
	<path class="st5" d="M74.5,105.5V102c0-0.6-0.1-1.1-0.3-1.4c-0.2-0.3-0.5-0.5-1-0.5c-0.4,0-0.8,0.1-1.1,0.3
		c-0.3,0.2-0.5,0.5-0.6,0.9v4.1h-1v-6h0.7l0.2,0.7l0,0c0.2-0.3,0.4-0.5,0.8-0.6c0.3-0.2,0.7-0.2,1.2-0.2c0.3,0,0.6,0,0.9,0.1
		c0.2,0.1,0.5,0.2,0.6,0.4s0.3,0.5,0.4,0.8s0.1,0.7,0.1,1.2v3.6L74.5,105.5L74.5,105.5z"/>
	<path class="st5" d="M81.3,105.1c-0.2,0.2-0.5,0.3-0.9,0.4c-0.3,0.1-0.7,0.1-1,0.1c-0.5,0-0.9-0.1-1.2-0.2
		c-0.3-0.1-0.6-0.4-0.8-0.6c-0.2-0.3-0.4-0.6-0.4-1c-0.1-0.4-0.1-0.8-0.1-1.3c0-1,0.2-1.8,0.7-2.3c0.4-0.5,1.1-0.8,1.9-0.8
		c0.4,0,0.7,0,1,0.1s0.5,0.1,0.7,0.3l-0.3,0.8c-0.2-0.1-0.4-0.2-0.6-0.2c-0.2-0.1-0.5-0.1-0.7-0.1c-1.1,0-1.7,0.8-1.7,2.3
		c0,0.3,0,0.6,0.1,0.9s0.2,0.5,0.3,0.7c0.1,0.2,0.3,0.4,0.6,0.5s0.5,0.2,0.8,0.2s0.5,0,0.8-0.1s0.4-0.2,0.6-0.3L81.3,105.1z"/>
	<path class="st5" d="M85.4,100.4c-0.2-0.1-0.5-0.1-0.7-0.1c-0.3,0-0.6,0.1-0.8,0.3c-0.2,0.2-0.3,0.4-0.4,0.7v4.2h-1v-6h0.7l0.2,0.7
		l0,0c0.2-0.3,0.3-0.5,0.5-0.6s0.5-0.2,0.8-0.2c0.2,0,0.5,0,0.8,0.1L85.4,100.4z"/>
	<path class="st5" d="M88.4,103.4l0.3,1.2h0.1l0.3-1.2l1.2-3.9h1l-1.8,5.4c-0.1,0.4-0.3,0.8-0.4,1.1c-0.1,0.4-0.3,0.7-0.4,1
		c-0.2,0.3-0.3,0.5-0.5,0.7s-0.4,0.3-0.7,0.3c-0.3,0-0.5,0-0.7-0.1l0.2-0.8c0.1,0,0.2,0.1,0.3,0.1c0.2,0,0.4-0.1,0.6-0.4
		c0.2-0.2,0.4-0.6,0.5-1.2l-2.4-6h1L88.4,103.4z"/>
	<path class="st5" d="M92.3,99.5H93l0.2,0.7l0,0c0.2-0.3,0.4-0.5,0.7-0.6s0.6-0.2,1-0.2c0.8,0,1.4,0.2,1.8,0.7s0.6,1.2,0.6,2.3
		c0,0.5-0.1,1-0.2,1.4s-0.3,0.7-0.6,1c-0.2,0.3-0.5,0.5-0.9,0.6c-0.3,0.2-0.7,0.2-1.1,0.2c-0.3,0-0.5,0-0.7-0.1s-0.4-0.1-0.6-0.2
		v2.5h-1L92.3,99.5L92.3,99.5z M94.7,100.2c-0.4,0-0.7,0.1-1,0.3s-0.4,0.5-0.5,1v3c0.1,0.1,0.3,0.2,0.5,0.3c0.2,0.1,0.4,0.1,0.7,0.1
		c0.6,0,1-0.2,1.3-0.6s0.5-1,0.5-1.8c0-0.3,0-0.6-0.1-0.9s-0.1-0.5-0.3-0.7c-0.1-0.2-0.3-0.3-0.5-0.4
		C95.2,100.2,95,100.2,94.7,100.2z"/>
	<path class="st5" d="M98,99.5h0.9v-1.2l1-0.3v1.5h1.6v0.8h-1.6v3.3c0,0.4,0.1,0.7,0.2,0.9s0.3,0.3,0.5,0.3s0.4,0,0.5-0.1
		c0.1,0,0.3-0.1,0.5-0.2l0.2,0.7c-0.2,0.1-0.5,0.2-0.7,0.3c-0.3,0.1-0.5,0.1-0.8,0.1c-0.5,0-0.8-0.1-1-0.4s-0.3-0.7-0.3-1.4v-3.5h-1
		V99.5z"/>
	<path class="st5" d="M102.8,97.6c0-0.2,0.1-0.3,0.2-0.5s0.3-0.2,0.5-0.2s0.4,0.1,0.5,0.2s0.2,0.3,0.2,0.5s-0.1,0.3-0.2,0.5
		c-0.1,0.1-0.3,0.2-0.5,0.2s-0.4-0.1-0.5-0.2S102.8,97.8,102.8,97.6z M103,99.5h1v6h-1V99.5z"/>
	<path class="st5" d="M105.7,102.5c0-1,0.2-1.8,0.7-2.3s1.1-0.8,1.9-0.8c0.4,0,0.8,0.1,1.2,0.2c0.3,0.1,0.6,0.4,0.8,0.6
		c0.2,0.3,0.4,0.6,0.5,1s0.2,0.8,0.2,1.3c0,1-0.2,1.8-0.7,2.3s-1.1,0.8-2,0.8c-0.4,0-0.8-0.1-1.2-0.2c-0.3-0.1-0.6-0.4-0.8-0.6
		c-0.2-0.3-0.4-0.6-0.5-1S105.7,102.9,105.7,102.5z M106.7,102.5c0,0.3,0,0.6,0.1,0.9s0.2,0.5,0.3,0.7s0.3,0.4,0.5,0.5
		s0.5,0.2,0.8,0.2c1.1,0,1.6-0.8,1.6-2.3c0-0.3,0-0.6-0.1-0.9s-0.2-0.5-0.3-0.7s-0.3-0.4-0.5-0.5s-0.5-0.2-0.8-0.2
		C107.2,100.2,106.7,100.9,106.7,102.5z"/>
	<path class="st5" d="M116.3,105.5V102c0-0.6-0.1-1.1-0.3-1.4c-0.2-0.3-0.5-0.5-1-0.5c-0.4,0-0.8,0.1-1.1,0.3
		c-0.3,0.2-0.5,0.5-0.6,0.9v4.1h-1v-6h0.7l0.2,0.7l0,0c0.2-0.3,0.4-0.5,0.8-0.6c0.3-0.2,0.7-0.2,1.2-0.2c0.3,0,0.6,0,0.9,0.1
		c0.2,0.1,0.5,0.2,0.6,0.4s0.3,0.5,0.4,0.8s0.1,0.7,0.1,1.2v3.6L116.3,105.5L116.3,105.5z"/>
</g>
<line class="st2" x1="209.6" y1="253.6" x2="209.6" y2="175.5"/>
<polygon class="st3" points="217.8,246.9 216.3,245.6 209.6,252.8 202.9,245.6 201.4,246.9 209.6,255.7 "/>
<g class="st4">
	<path class="st5" d="M267.8,205.3h-2.6v7.5h-1v-7.5h-2.6v-0.9h6.2V205.3z"/>
</g>
<g class="st4">
	<path class="st5" d="M270.5,207.7c-0.2-0.1-0.5-0.1-0.7-0.1c-0.3,0-0.6,0.1-0.8,0.3c-0.2,0.2-0.3,0.4-0.4,0.7v4.2h-1v-6h0.7
		l0.2,0.7l0,0c0.2-0.3,0.3-0.5,0.5-0.6s0.5-0.2,0.8-0.2c0.2,0,0.5,0,0.8,0.1L270.5,207.7z"/>
	<path class="st5" d="M271.6,207.2c0.3-0.2,0.7-0.3,1.1-0.4c0.4-0.1,0.8-0.1,1.3-0.1c0.4,0,0.8,0.1,1,0.2s0.4,0.3,0.6,0.4
		c0.1,0.2,0.2,0.4,0.3,0.6c0,0.2,0.1,0.4,0.1,0.6c0,0.5,0,0.9,0,1.4s0,0.9,0,1.3c0,0.3,0,0.6,0,0.8c0,0.3,0.1,0.5,0.1,0.7h-0.7
		L275,212h-0.1c-0.1,0.1-0.2,0.2-0.3,0.3c-0.1,0.1-0.2,0.2-0.4,0.3c-0.2,0.1-0.3,0.2-0.5,0.2c-0.2,0.1-0.4,0.1-0.7,0.1
		c-0.3,0-0.5,0-0.7-0.1s-0.4-0.2-0.6-0.3s-0.3-0.3-0.4-0.5s-0.1-0.4-0.1-0.7c0-0.4,0.1-0.6,0.2-0.9c0.1-0.2,0.3-0.4,0.6-0.6
		c0.3-0.1,0.6-0.2,0.9-0.3c0.4-0.1,0.8-0.1,1.2-0.1c0.1,0,0.2,0,0.3,0c0.1,0,0.2,0,0.3,0c0-0.2,0-0.5,0-0.6c0-0.4-0.1-0.7-0.3-0.9
		s-0.5-0.3-1-0.3c-0.1,0-0.3,0-0.4,0c-0.2,0-0.3,0-0.5,0.1s-0.3,0.1-0.5,0.1c-0.1,0.1-0.3,0.1-0.4,0.2V207.2z M273.3,212.1
		c0.2,0,0.4,0,0.6-0.1s0.3-0.1,0.5-0.2c0.1-0.1,0.2-0.2,0.3-0.3c0.1-0.1,0.1-0.2,0.2-0.3v-1c-0.1,0-0.2,0-0.3,0s-0.2,0-0.3,0
		c-0.2,0-0.5,0-0.7,0s-0.4,0.1-0.6,0.2c-0.2,0.1-0.3,0.2-0.4,0.3s-0.2,0.3-0.2,0.5c0,0.3,0.1,0.5,0.3,0.7
		C272.8,212,273,212.1,273.3,212.1z"/>
	<path class="st5" d="M281.5,212.8v-3.4c0-0.6-0.1-1.1-0.3-1.4c-0.2-0.3-0.5-0.5-1-0.5c-0.4,0-0.8,0.1-1,0.3
		c-0.3,0.2-0.5,0.5-0.6,0.9v4.1h-1v-6h0.7l0.2,0.7l0,0c0.2-0.3,0.4-0.5,0.8-0.6c0.3-0.2,0.7-0.2,1.2-0.2c0.3,0,0.6,0,0.9,0.1
		c0.2,0.1,0.5,0.2,0.6,0.4s0.3,0.5,0.4,0.8s0.1,0.7,0.1,1.2v3.6L281.5,212.8L281.5,212.8z"/>
	<path class="st5" d="M286.9,211.2c0-0.2-0.1-0.4-0.2-0.6c-0.1-0.1-0.3-0.3-0.5-0.3s-0.4-0.2-0.7-0.3s-0.5-0.2-0.7-0.3
		s-0.4-0.3-0.5-0.5s-0.2-0.5-0.2-0.8c0-0.6,0.2-1,0.5-1.3s0.8-0.4,1.4-0.4c0.4,0,0.8,0,1.1,0.1c0.3,0.1,0.5,0.2,0.8,0.3l-0.2,0.8
		c-0.2-0.1-0.4-0.2-0.7-0.2c-0.3-0.1-0.5-0.1-0.8-0.1c-0.4,0-0.6,0.1-0.8,0.2s-0.2,0.3-0.2,0.6c0,0.2,0.1,0.4,0.2,0.5
		s0.3,0.2,0.5,0.3s0.4,0.2,0.7,0.3s0.5,0.2,0.7,0.3s0.4,0.3,0.5,0.5s0.2,0.5,0.2,0.9c0,0.3,0,0.5-0.1,0.7s-0.2,0.4-0.4,0.6
		c-0.2,0.2-0.4,0.3-0.7,0.4c-0.3,0.1-0.6,0.1-0.9,0.1c-0.5,0-0.8,0-1.2-0.1c-0.3-0.1-0.6-0.2-0.8-0.3l0.3-0.8
		c0.2,0.1,0.4,0.2,0.7,0.3s0.6,0.1,0.9,0.1s0.6-0.1,0.9-0.2C286.8,211.8,286.9,211.5,286.9,211.2z"/>
	<path class="st5" d="M289.3,206.8h0.7l0.2,0.7l0,0c0.2-0.3,0.4-0.5,0.7-0.6s0.6-0.2,1-0.2c0.8,0,1.4,0.2,1.8,0.7s0.6,1.2,0.6,2.3
		c0,0.5-0.1,1-0.2,1.4s-0.3,0.7-0.6,1c-0.2,0.3-0.5,0.5-0.9,0.6s-0.7,0.2-1.1,0.2c-0.3,0-0.5,0-0.7-0.1s-0.4-0.1-0.6-0.2v2.5h-1
		v-8.3H289.3z M291.7,207.5c-0.4,0-0.7,0.1-1,0.3c-0.2,0.2-0.4,0.5-0.5,1v3c0.1,0.1,0.3,0.2,0.5,0.3s0.4,0.1,0.7,0.1
		c0.6,0,1-0.2,1.3-0.6c0.3-0.4,0.5-1,0.5-1.8c0-0.3,0-0.6-0.1-0.9c-0.1-0.3-0.1-0.5-0.3-0.7c-0.1-0.2-0.3-0.3-0.5-0.4
		C292.2,207.5,292,207.5,291.7,207.5z"/>
	<path class="st5" d="M295.7,207.2c0.3-0.2,0.7-0.3,1.1-0.4c0.4-0.1,0.8-0.1,1.3-0.1c0.4,0,0.8,0.1,1,0.2s0.4,0.3,0.6,0.4
		c0.1,0.2,0.2,0.4,0.3,0.6c0,0.2,0.1,0.4,0.1,0.6c0,0.5,0,0.9,0,1.4s0,0.9,0,1.3c0,0.3,0,0.6,0,0.8c0,0.3,0.1,0.5,0.1,0.7h-0.7
		l-0.3-0.8H299c-0.1,0.1-0.2,0.2-0.3,0.3c-0.1,0.1-0.2,0.2-0.4,0.3c-0.2,0.1-0.3,0.2-0.5,0.2c-0.2,0.1-0.4,0.1-0.7,0.1
		c-0.3,0-0.5,0-0.7-0.1s-0.4-0.2-0.6-0.3s-0.3-0.3-0.4-0.5s-0.1-0.4-0.1-0.7c0-0.4,0.1-0.6,0.2-0.9c0.1-0.2,0.3-0.4,0.6-0.6
		c0.3-0.1,0.6-0.2,0.9-0.3c0.4-0.1,0.8-0.1,1.2-0.1c0.1,0,0.2,0,0.3,0c0.1,0,0.2,0,0.3,0c0-0.2,0-0.5,0-0.6c0-0.4-0.1-0.7-0.3-0.9
		s-0.5-0.3-1-0.3c-0.1,0-0.3,0-0.4,0c-0.2,0-0.3,0-0.5,0.1s-0.3,0.1-0.5,0.1c-0.1,0.1-0.3,0.1-0.4,0.2V207.2z M297.4,212.1
		c0.2,0,0.4,0,0.6-0.1s0.3-0.1,0.5-0.2c0.1-0.1,0.2-0.2,0.3-0.3c0.1-0.1,0.1-0.2,0.2-0.3v-1c-0.1,0-0.2,0-0.3,0s-0.2,0-0.3,0
		c-0.2,0-0.5,0-0.7,0s-0.4,0.1-0.6,0.2c-0.2,0.1-0.3,0.2-0.4,0.3s-0.2,0.3-0.2,0.5c0,0.3,0.1,0.5,0.3,0.7
		C296.8,212,297.1,212.1,297.4,212.1z"/>
	<path class="st5" d="M304.6,207.7c-0.2-0.1-0.5-0.1-0.7-0.1c-0.3,0-0.6,0.1-0.8,0.3c-0.2,0.2-0.3,0.4-0.4,0.7v4.2h-1v-6h0.7
		l0.2,0.7l0,0c0.2-0.3,0.3-0.5,0.5-0.6s0.5-0.2,0.8-0.2c0.2,0,0.5,0,0.8,0.1L304.6,207.7z"/>
	<path class="st5" d="M310.2,212.3c-0.2,0.2-0.5,0.3-0.9,0.5c-0.4,0.1-0.8,0.2-1.2,0.2c-0.5,0-0.9-0.1-1.2-0.2
		c-0.3-0.1-0.6-0.4-0.8-0.6c-0.2-0.3-0.4-0.6-0.5-1s-0.2-0.8-0.2-1.3c0-1,0.2-1.8,0.7-2.3s1.1-0.8,2-0.8c0.3,0,0.5,0,0.8,0.1
		s0.5,0.2,0.7,0.3c0.2,0.2,0.4,0.4,0.5,0.7s0.2,0.7,0.2,1.2c0,0.3,0,0.6-0.1,0.9h-3.9c0,0.4,0,0.7,0.1,0.9c0.1,0.3,0.2,0.5,0.3,0.7
		c0.2,0.2,0.4,0.3,0.6,0.4c0.2,0.1,0.5,0.1,0.9,0.1c0.3,0,0.5,0,0.8-0.1s0.5-0.2,0.6-0.3L310.2,212.3z M308.1,207.5
		c-0.5,0-0.9,0.1-1.1,0.4s-0.5,0.7-0.5,1.3h3c0-0.6-0.1-1-0.3-1.3C308.9,207.6,308.6,207.5,308.1,207.5z"/>
	<path class="st5" d="M315.8,212.8v-3.4c0-0.6-0.1-1.1-0.3-1.4c-0.2-0.3-0.5-0.5-1-0.5c-0.4,0-0.8,0.1-1,0.3
		c-0.3,0.2-0.5,0.5-0.6,0.9v4.1h-1v-6h0.7l0.2,0.7l0,0c0.2-0.3,0.4-0.5,0.8-0.6c0.3-0.2,0.7-0.2,1.2-0.2c0.3,0,0.6,0,0.9,0.1
		c0.2,0.1,0.5,0.2,0.6,0.4s0.3,0.5,0.4,0.8s0.1,0.7,0.1,1.2v3.6L315.8,212.8L315.8,212.8z"/>
	<path class="st5" d="M317.7,206.8h0.9v-1.2l1-0.3v1.5h1.6v0.8h-1.6v3.3c0,0.4,0.1,0.7,0.2,0.9s0.3,0.3,0.5,0.3s0.4,0,0.5-0.1
		s0.3-0.1,0.5-0.2l0.2,0.7c-0.2,0.1-0.5,0.2-0.7,0.3c-0.3,0.1-0.5,0.1-0.8,0.1c-0.5,0-0.8-0.1-1-0.4c-0.2-0.3-0.3-0.7-0.3-1.4v-3.5
		h-0.9v-0.8H317.7z"/>
</g>
<g class="st4">
	<path class="st5" d="M266.6,226.7c-0.2,0.2-0.5,0.3-0.9,0.5c-0.4,0.1-0.8,0.2-1.2,0.2c-0.5,0-0.9-0.1-1.2-0.2
		c-0.3-0.1-0.6-0.4-0.8-0.6c-0.2-0.3-0.4-0.6-0.5-1s-0.2-0.8-0.2-1.3c0-1,0.2-1.8,0.7-2.3s1.1-0.8,2-0.8c0.3,0,0.5,0,0.8,0.1
		s0.5,0.2,0.7,0.3c0.2,0.2,0.4,0.4,0.5,0.7s0.2,0.7,0.2,1.2c0,0.3,0,0.6-0.1,0.9h-3.9c0,0.4,0,0.7,0.1,0.9c0.1,0.3,0.2,0.5,0.3,0.7
		c0.2,0.2,0.4,0.3,0.6,0.4c0.2,0.1,0.5,0.1,0.9,0.1c0.3,0,0.5,0,0.8-0.1s0.5-0.2,0.6-0.3L266.6,226.7z M264.6,221.9
		c-0.5,0-0.9,0.1-1.1,0.4s-0.5,0.7-0.5,1.3h3c0-0.6-0.1-1-0.3-1.3C265.3,222,265,221.9,264.6,221.9z"/>
	<path class="st5" d="M272.2,227.2v-3.4c0-0.6-0.1-1.1-0.3-1.4c-0.2-0.3-0.5-0.5-1-0.5c-0.4,0-0.8,0.1-1,0.3
		c-0.3,0.2-0.5,0.5-0.6,0.9v4.1h-1v-6h0.7l0.2,0.7l0,0c0.2-0.3,0.4-0.5,0.8-0.6c0.3-0.2,0.7-0.2,1.2-0.2c0.3,0,0.6,0,0.9,0.1
		c0.2,0.1,0.5,0.2,0.6,0.4s0.3,0.5,0.4,0.8s0.1,0.7,0.1,1.2v3.6L272.2,227.2L272.2,227.2z"/>
	<path class="st5" d="M279,226.8c-0.2,0.2-0.5,0.3-0.9,0.4c-0.3,0.1-0.7,0.1-1,0.1c-0.5,0-0.9-0.1-1.2-0.2c-0.3-0.1-0.6-0.4-0.8-0.6
		c-0.2-0.3-0.4-0.6-0.4-1s-0.1-0.8-0.1-1.3c0-1,0.2-1.8,0.7-2.3s1.1-0.8,1.9-0.8c0.4,0,0.7,0,1,0.1s0.5,0.1,0.7,0.3l-0.3,0.8
		c-0.2-0.1-0.4-0.2-0.6-0.2c-0.2-0.1-0.5-0.1-0.7-0.1c-1.1,0-1.7,0.8-1.7,2.3c0,0.3,0,0.6,0.1,0.9c0.1,0.3,0.2,0.5,0.3,0.7
		c0.1,0.2,0.3,0.4,0.6,0.5c0.2,0.1,0.5,0.2,0.8,0.2s0.5,0,0.8-0.1c0.2-0.1,0.4-0.2,0.6-0.3L279,226.8z"/>
	<path class="st5" d="M283.1,222.1c-0.2-0.1-0.5-0.1-0.7-0.1c-0.3,0-0.6,0.1-0.8,0.3c-0.2,0.2-0.3,0.4-0.4,0.7v4.2h-1v-6h0.7
		l0.2,0.7l0,0c0.2-0.3,0.3-0.5,0.5-0.6s0.5-0.2,0.8-0.2c0.2,0,0.5,0,0.8,0.1L283.1,222.1z"/>
	<path class="st5" d="M286.2,225.1l0.3,1.2h0.1l0.3-1.2l1.2-3.9h1l-1.8,5.4c-0.1,0.4-0.3,0.8-0.4,1.1c-0.1,0.4-0.3,0.7-0.4,1
		s-0.3,0.5-0.5,0.7s-0.4,0.3-0.7,0.3c-0.3,0-0.5,0-0.7-0.1l0.2-0.8c0.1,0,0.2,0.1,0.3,0.1c0.2,0,0.4-0.1,0.6-0.4
		c0.2-0.2,0.4-0.6,0.5-1.2l-2.4-6h1.1L286.2,225.1z"/>
	<path class="st5" d="M290,221.2h0.7l0.2,0.7l0,0c0.2-0.3,0.4-0.5,0.7-0.6s0.6-0.2,1-0.2c0.8,0,1.4,0.2,1.8,0.7s0.6,1.2,0.6,2.3
		c0,0.5-0.1,1-0.2,1.4s-0.3,0.7-0.6,1c-0.2,0.3-0.5,0.5-0.9,0.6s-0.7,0.2-1.1,0.2c-0.3,0-0.5,0-0.7-0.1s-0.4-0.1-0.6-0.2v2.5h-1
		v-8.3H290z M292.4,221.9c-0.4,0-0.7,0.1-1,0.3c-0.2,0.2-0.4,0.5-0.5,1v3c0.1,0.1,0.3,0.2,0.5,0.3s0.4,0.1,0.7,0.1
		c0.6,0,1-0.2,1.3-0.6c0.3-0.4,0.5-1,0.5-1.8c0-0.3,0-0.6-0.1-0.9c-0.1-0.3-0.1-0.5-0.3-0.7c-0.1-0.2-0.3-0.3-0.5-0.4
		C292.9,221.9,292.7,221.9,292.4,221.9z"/>
	<path class="st5" d="M295.7,221.2h0.9V220l1-0.3v1.5h1.6v0.8h-1.6v3.3c0,0.4,0.1,0.7,0.2,0.9s0.3,0.3,0.5,0.3s0.4,0,0.5-0.1
		c0.1,0,0.3-0.1,0.5-0.2l0.2,0.7c-0.2,0.1-0.5,0.2-0.7,0.3c-0.3,0.1-0.5,0.1-0.8,0.1c-0.5,0-0.8-0.1-1-0.4c-0.2-0.3-0.3-0.7-0.3-1.4
		V222h-0.9v-0.8H295.7z"/>
	<path class="st5" d="M300.5,219.4c0-0.2,0.1-0.3,0.2-0.5s0.3-0.2,0.5-0.2s0.4,0.1,0.5,0.2s0.2,0.3,0.2,0.5s-0.1,0.3-0.2,0.5
		s-0.3,0.2-0.5,0.2s-0.3-0.1-0.5-0.2S300.5,219.6,300.5,219.4z M300.8,221.2h1v6h-1V221.2z"/>
	<path class="st5" d="M303.4,224.2c0-1,0.2-1.8,0.7-2.3s1.1-0.8,1.9-0.8c0.4,0,0.8,0.1,1.2,0.2c0.3,0.1,0.6,0.4,0.8,0.6
		c0.2,0.3,0.4,0.6,0.5,1s0.2,0.8,0.2,1.3c0,1-0.2,1.8-0.7,2.3s-1.1,0.8-2,0.8c-0.4,0-0.8-0.1-1.2-0.2c-0.3-0.1-0.6-0.4-0.8-0.6
		c-0.2-0.3-0.4-0.6-0.5-1S303.4,224.7,303.4,224.2z M304.4,224.2c0,0.3,0,0.6,0.1,0.9c0.1,0.3,0.2,0.5,0.3,0.7s0.3,0.4,0.5,0.5
		s0.5,0.2,0.8,0.2c1.1,0,1.6-0.8,1.6-2.3c0-0.3,0-0.6-0.1-0.9c-0.1-0.3-0.2-0.5-0.3-0.7s-0.3-0.4-0.5-0.5s-0.5-0.2-0.8-0.2
		C305,221.9,304.4,222.7,304.4,224.2z"/>
	<path class="st5" d="M314,227.2v-3.4c0-0.6-0.1-1.1-0.3-1.4c-0.2-0.3-0.5-0.5-1-0.5c-0.4,0-0.8,0.1-1,0.3c-0.3,0.2-0.5,0.5-0.6,0.9
		v4.1h-1v-6h0.7l0.2,0.7l0,0c0.2-0.3,0.4-0.5,0.8-0.6c0.3-0.2,0.7-0.2,1.2-0.2c0.3,0,0.6,0,0.9,0.1c0.2,0.1,0.5,0.2,0.6,0.4
		s0.3,0.5,0.4,0.8s0.1,0.7,0.1,1.2v3.6L314,227.2L314,227.2z"/>
</g>
<g class="st4">
	<path class="st5" d="M67.2,140.5c0-0.2-0.1-0.4-0.2-0.6c-0.1-0.1-0.3-0.3-0.5-0.3s-0.4-0.2-0.7-0.3s-0.5-0.2-0.7-0.3
		s-0.4-0.3-0.5-0.5s-0.2-0.5-0.2-0.8c0-0.6,0.2-1,0.5-1.3s0.8-0.4,1.4-0.4c0.4,0,0.8,0,1.1,0.1c0.3,0.1,0.5,0.2,0.8,0.3l-0.2,0.8
		c-0.2-0.1-0.4-0.2-0.7-0.2c-0.3-0.1-0.5-0.1-0.8-0.1c-0.4,0-0.6,0.1-0.8,0.2s-0.2,0.3-0.2,0.6c0,0.2,0.1,0.4,0.2,0.5
		s0.3,0.2,0.5,0.3s0.4,0.2,0.7,0.3s0.5,0.2,0.7,0.3s0.4,0.3,0.5,0.5s0.2,0.5,0.2,0.9c0,0.3,0,0.5-0.1,0.7s-0.2,0.4-0.4,0.6
		c-0.2,0.2-0.4,0.3-0.7,0.4c-0.3,0.1-0.6,0.1-0.9,0.1c-0.5,0-0.8,0-1.2-0.1s-0.6-0.2-0.8-0.3l0.3-0.8c0.2,0.1,0.4,0.2,0.7,0.3
		s0.6,0.1,0.9,0.1s0.6-0.1,0.9-0.2C67,141.1,67.2,140.8,67.2,140.5z"/>
	<path class="st5" d="M68.8,136.1h0.9v-1.2l1-0.3v1.5h1.6v0.8h-1.6v3.3c0,0.4,0.1,0.7,0.2,0.9s0.3,0.3,0.5,0.3s0.4,0,0.5-0.1
		c0.1,0,0.3-0.1,0.5-0.2l0.2,0.7c-0.2,0.1-0.5,0.2-0.7,0.3c-0.3,0.1-0.5,0.1-0.8,0.1c-0.5,0-0.8-0.1-1-0.4c-0.2-0.3-0.3-0.7-0.3-1.4
		v-3.5h-0.9L68.8,136.1L68.8,136.1z"/>
	<path class="st5" d="M78.2,140c0,0.4,0,0.8,0,1.1s0,0.7,0.1,1h-0.6l-0.2-0.9l0,0c-0.2,0.3-0.4,0.5-0.7,0.7
		c-0.3,0.2-0.7,0.3-1.1,0.3c-0.8,0-1.4-0.3-1.8-0.8s-0.6-1.3-0.6-2.4c0-1,0.2-1.8,0.7-2.3s1.1-0.8,2-0.8c0.3,0,0.5,0,0.7,0
		s0.4,0.1,0.6,0.2v-2.5h1L78.2,140L78.2,140z M75.8,141.4c0.4,0,0.7-0.1,1-0.3c0.2-0.2,0.4-0.5,0.5-1v-3c-0.1-0.1-0.3-0.2-0.5-0.2
		s-0.4-0.1-0.7-0.1c-0.6,0-1,0.2-1.3,0.5c-0.3,0.4-0.5,0.9-0.5,1.7c0,0.3,0,0.6,0.1,0.9c0.1,0.3,0.1,0.5,0.3,0.7s0.3,0.4,0.5,0.5
		C75.3,141.3,75.5,141.4,75.8,141.4z"/>
	<path class="st5" d="M80.1,134.3c0-0.2,0.1-0.3,0.2-0.5s0.3-0.2,0.5-0.2s0.4,0.1,0.5,0.2c0.1,0.1,0.2,0.3,0.2,0.5s-0.1,0.3-0.2,0.5
		c-0.1,0.1-0.3,0.2-0.5,0.2s-0.4-0.1-0.5-0.2S80.1,134.5,80.1,134.3z M80.3,136.1h1v6h-1V136.1z"/>
	<path class="st5" d="M87.2,142.1v-3.4c0-0.6-0.1-1.1-0.3-1.4c-0.2-0.3-0.5-0.5-1-0.5c-0.4,0-0.8,0.1-1.1,0.3
		c-0.3,0.2-0.5,0.5-0.6,0.9v4.1h-1v-6H84l0.2,0.7l0,0c0.2-0.3,0.4-0.5,0.8-0.6c0.3-0.2,0.7-0.2,1.2-0.2c0.3,0,0.6,0,0.9,0.1
		c0.2,0.1,0.5,0.2,0.6,0.4s0.3,0.5,0.4,0.8s0.1,0.7,0.1,1.2v3.6L87.2,142.1L87.2,142.1z"/>
</g>
<g class="st4">
	<path class="st5" d="M67.2,154.9c0-0.2-0.1-0.4-0.2-0.6c-0.1-0.1-0.3-0.3-0.5-0.3s-0.4-0.2-0.7-0.3s-0.5-0.2-0.7-0.3
		s-0.4-0.3-0.5-0.5s-0.2-0.5-0.2-0.8c0-0.6,0.2-1,0.5-1.3s0.8-0.4,1.4-0.4c0.4,0,0.8,0,1.1,0.1c0.3,0.1,0.5,0.2,0.8,0.3l-0.2,0.8
		c-0.2-0.1-0.4-0.2-0.7-0.2c-0.3-0.1-0.5-0.1-0.8-0.1c-0.4,0-0.6,0.1-0.8,0.2s-0.2,0.3-0.2,0.6c0,0.2,0.1,0.4,0.2,0.5
		s0.3,0.2,0.5,0.3s0.4,0.2,0.7,0.3s0.5,0.2,0.7,0.3s0.4,0.3,0.5,0.5s0.2,0.5,0.2,0.9c0,0.3,0,0.5-0.1,0.7s-0.2,0.4-0.4,0.6
		c-0.2,0.2-0.4,0.3-0.7,0.4c-0.3,0.1-0.6,0.1-0.9,0.1c-0.5,0-0.8,0-1.2-0.1s-0.6-0.2-0.8-0.3l0.3-0.8c0.2,0.1,0.4,0.2,0.7,0.3
		s0.6,0.1,0.9,0.1s0.6-0.1,0.9-0.2C67,155.5,67.2,155.2,67.2,154.9z"/>
	<path class="st5" d="M68.8,150.5h0.9v-1.2l1-0.3v1.5h1.6v0.8h-1.6v3.3c0,0.4,0.1,0.7,0.2,0.9s0.3,0.3,0.5,0.3s0.4,0,0.5-0.1
		c0.1,0,0.3-0.1,0.5-0.2l0.2,0.7c-0.2,0.1-0.5,0.2-0.7,0.3c-0.3,0.1-0.5,0.1-0.8,0.1c-0.5,0-0.8-0.1-1-0.4c-0.2-0.3-0.3-0.7-0.3-1.4
		v-3.5h-0.9L68.8,150.5L68.8,150.5z"/>
	<path class="st5" d="M78.2,154.4c0,0.4,0,0.8,0,1.1s0,0.7,0.1,1h-0.6l-0.2-0.9l0,0c-0.2,0.3-0.4,0.5-0.7,0.7
		c-0.3,0.2-0.7,0.3-1.1,0.3c-0.8,0-1.4-0.3-1.8-0.8s-0.6-1.3-0.6-2.4c0-1,0.2-1.8,0.7-2.3s1.1-0.8,2-0.8c0.3,0,0.5,0,0.7,0
		s0.4,0.1,0.6,0.2V148h1L78.2,154.4L78.2,154.4z M75.8,155.8c0.4,0,0.7-0.1,1-0.3c0.2-0.2,0.4-0.5,0.5-1v-3
		c-0.1-0.1-0.3-0.2-0.5-0.2s-0.4-0.1-0.7-0.1c-0.6,0-1,0.2-1.3,0.5c-0.3,0.4-0.5,0.9-0.5,1.7c0,0.3,0,0.6,0.1,0.9
		c0.1,0.3,0.1,0.5,0.3,0.7s0.3,0.4,0.5,0.5C75.3,155.7,75.5,155.8,75.8,155.8z"/>
	<path class="st5" d="M79.8,153.5c0-1,0.2-1.8,0.7-2.3s1.1-0.8,1.9-0.8c0.4,0,0.8,0.1,1.2,0.2c0.3,0.1,0.6,0.4,0.8,0.6
		c0.2,0.3,0.4,0.6,0.5,1s0.2,0.8,0.2,1.3c0,1-0.2,1.8-0.7,2.3s-1.1,0.8-2,0.8c-0.4,0-0.8-0.1-1.2-0.2c-0.3-0.1-0.6-0.4-0.8-0.6
		c-0.2-0.3-0.4-0.6-0.5-1C79.8,154.4,79.8,154,79.8,153.5z M80.7,153.5c0,0.3,0,0.6,0.1,0.9s0.2,0.5,0.3,0.7s0.3,0.4,0.5,0.5
		s0.5,0.2,0.8,0.2c1.1,0,1.6-0.8,1.6-2.3c0-0.3,0-0.6-0.1-0.9c-0.1-0.3-0.2-0.5-0.3-0.7s-0.3-0.4-0.5-0.5s-0.5-0.2-0.8-0.2
		C81.3,151.2,80.7,152,80.7,153.5z"/>
	<path class="st5" d="M87.4,150.5v3.4c0,0.3,0,0.6,0.1,0.8c0,0.2,0.1,0.4,0.2,0.6s0.2,0.3,0.4,0.4c0.2,0.1,0.3,0.1,0.6,0.1
		c0.2,0,0.4,0,0.6-0.1s0.3-0.2,0.5-0.3c0.1-0.1,0.2-0.3,0.3-0.4s0.2-0.3,0.2-0.5v-4h1v4.3c0,0.3,0,0.6,0,0.9c0,0.3,0.1,0.6,0.1,0.8
		h-0.7l-0.2-0.9h-0.1c-0.2,0.3-0.4,0.6-0.7,0.8s-0.7,0.3-1.2,0.3c-0.3,0-0.6,0-0.8-0.1c-0.2-0.1-0.4-0.2-0.6-0.4s-0.3-0.5-0.4-0.8
		s-0.1-0.7-0.1-1.2v-3.6h0.8V150.5z"/>
	<path class="st5" d="M92.2,150.5h0.9v-1.2l1-0.3v1.5h1.6v0.8h-1.6v3.3c0,0.4,0.1,0.7,0.2,0.9s0.3,0.3,0.5,0.3s0.4,0,0.5-0.1
		c0.1,0,0.3-0.1,0.5-0.2l0.2,0.7c-0.2,0.1-0.5,0.2-0.7,0.3c-0.3,0.1-0.5,0.1-0.8,0.1c-0.5,0-0.8-0.1-1-0.4c-0.2-0.3-0.3-0.7-0.3-1.4
		v-3.5h-0.9L92.2,150.5L92.2,150.5z"/>
</g>
<g class="st4">
	<path class="st5" d="M67.2,169.3c0-0.2-0.1-0.4-0.2-0.6c-0.1-0.1-0.3-0.3-0.5-0.3s-0.4-0.2-0.7-0.3s-0.5-0.2-0.7-0.3
		s-0.4-0.3-0.5-0.5s-0.2-0.5-0.2-0.8c0-0.6,0.2-1,0.5-1.3s0.8-0.4,1.4-0.4c0.4,0,0.8,0,1.1,0.1c0.3,0.1,0.5,0.2,0.8,0.3L68,166
		c-0.2-0.1-0.4-0.2-0.7-0.2c-0.3-0.1-0.5-0.1-0.8-0.1c-0.4,0-0.6,0.1-0.8,0.2s-0.2,0.3-0.2,0.6c0,0.2,0.1,0.4,0.2,0.5
		s0.3,0.2,0.5,0.3s0.4,0.2,0.7,0.3s0.5,0.2,0.7,0.3s0.4,0.3,0.5,0.5s0.2,0.5,0.2,0.9c0,0.3,0,0.5-0.1,0.7s-0.2,0.4-0.4,0.6
		c-0.2,0.2-0.4,0.3-0.7,0.4c-0.3,0.1-0.6,0.1-0.9,0.1c-0.5,0-0.8,0-1.2-0.1s-0.6-0.2-0.8-0.3l0.3-0.8c0.2,0.1,0.4,0.2,0.7,0.3
		s0.6,0.1,0.9,0.1s0.6-0.1,0.9-0.2C67,169.9,67.2,169.6,67.2,169.3z"/>
	<path class="st5" d="M68.8,164.9h0.9v-1.2l1-0.3v1.5h1.6v0.8h-1.6v3.3c0,0.4,0.1,0.7,0.2,0.9s0.3,0.3,0.5,0.3s0.4,0,0.5-0.1
		c0.1,0,0.3-0.1,0.5-0.2l0.2,0.7c-0.2,0.1-0.5,0.2-0.7,0.3c-0.3,0.1-0.5,0.1-0.8,0.1c-0.5,0-0.8-0.1-1-0.4c-0.2-0.3-0.3-0.7-0.3-1.4
		v-3.5h-0.9L68.8,164.9L68.8,164.9z"/>
	<path class="st5" d="M78.2,168.8c0,0.4,0,0.8,0,1.1s0,0.7,0.1,1h-0.6l-0.2-0.9l0,0c-0.2,0.3-0.4,0.5-0.7,0.7
		c-0.3,0.2-0.7,0.3-1.1,0.3c-0.8,0-1.4-0.3-1.8-0.8s-0.6-1.3-0.6-2.4c0-1,0.2-1.8,0.7-2.3s1.1-0.8,2-0.8c0.3,0,0.5,0,0.7,0
		s0.4,0.1,0.6,0.2v-2.5h1L78.2,168.8L78.2,168.8z M75.8,170.2c0.4,0,0.7-0.1,1-0.3c0.2-0.2,0.4-0.5,0.5-1v-3
		c-0.1-0.1-0.3-0.2-0.5-0.2s-0.4-0.1-0.7-0.1c-0.6,0-1,0.2-1.3,0.5c-0.3,0.4-0.5,0.9-0.5,1.7c0,0.3,0,0.6,0.1,0.9
		c0.1,0.3,0.1,0.5,0.3,0.7s0.3,0.4,0.5,0.5C75.3,170.1,75.5,170.2,75.8,170.2z"/>
	<path class="st5" d="M84.5,170.4c-0.2,0.2-0.5,0.3-0.9,0.5c-0.4,0.1-0.8,0.2-1.2,0.2c-0.5,0-0.9-0.1-1.2-0.2
		c-0.3-0.1-0.6-0.4-0.8-0.6c-0.2-0.3-0.4-0.6-0.5-1s-0.2-0.8-0.2-1.3c0-1,0.2-1.8,0.7-2.3s1.1-0.8,2-0.8c0.3,0,0.5,0,0.8,0.1
		s0.5,0.2,0.7,0.3c0.2,0.2,0.4,0.4,0.5,0.7s0.2,0.7,0.2,1.2c0,0.3,0,0.6-0.1,0.9h-3.9c0,0.4,0,0.7,0.1,0.9c0.1,0.3,0.2,0.5,0.3,0.7
		c0.2,0.2,0.4,0.3,0.6,0.4c0.2,0.1,0.5,0.1,0.9,0.1c0.3,0,0.5,0,0.8-0.1s0.5-0.2,0.6-0.3L84.5,170.4z M82.4,165.6
		c-0.5,0-0.9,0.1-1.1,0.4c-0.3,0.2-0.5,0.7-0.5,1.3h3c0-0.6-0.1-1-0.3-1.3C83.2,165.7,82.8,165.6,82.4,165.6z"/>
	<path class="st5" d="M89,165.8c-0.2-0.1-0.5-0.1-0.7-0.1c-0.3,0-0.6,0.1-0.8,0.3c-0.2,0.2-0.3,0.4-0.4,0.7v4.2h-1v-6h0.7l0.2,0.7
		l0,0c0.2-0.3,0.3-0.5,0.5-0.6s0.5-0.2,0.8-0.2c0.2,0,0.5,0,0.8,0.1L89,165.8z"/>
	<path class="st5" d="M93.1,165.8c-0.2-0.1-0.5-0.1-0.7-0.1c-0.3,0-0.6,0.1-0.8,0.3c-0.2,0.2-0.3,0.4-0.4,0.7v4.2h-1v-6h0.7l0.2,0.7
		l0,0c0.2-0.3,0.3-0.5,0.5-0.6s0.5-0.2,0.8-0.2c0.2,0,0.5,0,0.8,0.1L93.1,165.8z"/>
</g>
<path class="st10" d="M391.5,115.6c3.8,0,6.9,3.1,6.9,6.9s-3.1,6.9-6.9,6.9"/>
<g class="st4">
	<path class="st3" d="M431.2,82.4v2.3h-1.3l-0.1-1h-1.6v6l0.9,0.2v1h-3.6v-1l0.9-0.2v-6h-1.6l-0.1,1h-1.3v-2.3H431.2z"/>
	<path class="st3" d="M431.8,90.9v-1l0.9-0.2v-6.1l-0.9-0.2v-1h0.9h1.7h0.9v1l-0.9,0.2v6h2.4l0.1-1.1h1.3v2.4
		C438.2,90.9,431.8,90.9,431.8,90.9z"/>
	<path class="st3" d="M445.4,85.1h-1.3l-0.2-1.2c-0.2-0.1-0.4-0.2-0.7-0.2s-0.6-0.1-0.9-0.1c-0.5,0-0.8,0.1-1.1,0.3
		c-0.3,0.2-0.4,0.5-0.4,0.8s0.1,0.5,0.4,0.7s0.7,0.4,1.4,0.6c1,0.3,1.7,0.6,2.2,1s0.7,1,0.7,1.7s-0.3,1.3-0.9,1.7s-1.4,0.6-2.3,0.6
		c-0.7,0-1.3-0.1-1.8-0.3c-0.5-0.2-1-0.5-1.4-0.9V88h1.3l0.2,1.2c0.2,0.1,0.4,0.3,0.7,0.3s0.6,0.1,1,0.1c0.5,0,0.8-0.1,1.1-0.3
		s0.4-0.4,0.4-0.8c0-0.3-0.1-0.6-0.4-0.8s-0.6-0.4-1.2-0.6c-1-0.3-1.8-0.6-2.3-1s-0.8-1-0.8-1.7s0.3-1.3,0.9-1.7s1.3-0.7,2.2-0.7
		c0.7,0,1.3,0.1,1.8,0.3c0.5,0.2,1,0.5,1.4,0.8L445.4,85.1L445.4,85.1z"/>
</g>
<g class="st4">
	<path class="st3" d="M395.7,96.8c1,0,1.8,0.3,2.3,0.8c0.6,0.5,0.9,1.2,0.9,2s-0.3,1.5-0.9,2s-1.3,0.7-2.3,0.7h-1.5v1.9l0.9,0.2v1
		h-3.6v-1l0.9-0.2V98l-0.9-0.2v-1h0.9H395.7z M394.2,100.9h1.5c0.5,0,0.8-0.1,1.1-0.4s0.4-0.6,0.4-1s-0.1-0.7-0.4-1
		s-0.6-0.4-1.1-0.4h-1.5V100.9z"/>
</g>
<g class="st4">
	<path class="st3" d="M399.1,104.3l0.8-0.2v-3.9L399,100v-1h2.5l0.1,0.9c0.2-0.3,0.3-0.6,0.6-0.8c0.2-0.2,0.5-0.3,0.8-0.3
		c0.1,0,0.2,0,0.3,0c0.1,0,0.2,0,0.3,0l-0.2,1.6h-0.7c-0.3,0-0.5,0-0.6,0.1c-0.2,0.1-0.3,0.2-0.4,0.4v3.1l0.8,0.2v1h-3.4
		L399.1,104.3L399.1,104.3z"/>
</g>
<g class="st4">
	<path class="st3" d="M404,102.1c0-0.9,0.3-1.7,0.8-2.3s1.3-0.9,2.2-0.9c0.9,0,1.7,0.3,2.2,0.9s0.8,1.4,0.8,2.3v0.1
		c0,1-0.3,1.7-0.8,2.3s-1.3,0.9-2.2,0.9c-1,0-1.7-0.3-2.2-0.9S404,103.1,404,102.1L404,102.1z M405.7,102.2c0,0.6,0.1,1,0.3,1.4
		s0.5,0.5,1,0.5c0.4,0,0.8-0.2,1-0.5s0.3-0.8,0.3-1.4v-0.1c0-0.6-0.1-1-0.3-1.4c-0.2-0.4-0.5-0.5-1-0.5s-0.8,0.2-1,0.5
		S405.7,101.5,405.7,102.2L405.7,102.2z"/>
	<path class="st3" d="M413.3,97.4V99h1.1v1.2h-1.1v3.2c0,0.2,0.1,0.4,0.2,0.5s0.2,0.2,0.4,0.2c0.1,0,0.2,0,0.3,0c0.1,0,0.2,0,0.3,0
		l0.1,1.2c-0.2,0.1-0.4,0.1-0.6,0.1s-0.4,0-0.6,0c-0.6,0-1.1-0.2-1.4-0.5s-0.5-0.8-0.5-1.5v-3.2h-0.9V99h0.9v-1.6H413.3z"/>
	<path class="st3" d="M418.3,105.4c-0.9,0-1.7-0.3-2.2-0.9s-0.8-1.3-0.8-2.2v-0.2c0-0.9,0.3-1.7,0.8-2.3c0.5-0.6,1.2-0.9,2.1-0.9
		s1.5,0.3,2,0.8s0.7,1.2,0.7,2.1v0.9h-3.8l0,0c0,0.4,0.2,0.8,0.4,1s0.6,0.4,1,0.4s0.7,0,1-0.1s0.5-0.2,0.8-0.4l0.5,1.1
		c-0.3,0.2-0.6,0.4-1,0.5S418.9,105.4,418.3,105.4z M418.2,100.2c-0.3,0-0.6,0.1-0.8,0.4s-0.3,0.6-0.3,1l0,0h2.1v-0.2
		c0-0.4-0.1-0.7-0.3-0.9S418.5,100.2,418.2,100.2z"/>
	<path class="st3" d="M424.7,104.1c0.3,0,0.6-0.1,0.7-0.3c0.2-0.2,0.3-0.4,0.3-0.7h1.6l0,0c0,0.6-0.2,1.2-0.7,1.6s-1.1,0.6-1.9,0.6
		c-1,0-1.7-0.3-2.2-0.9s-0.8-1.4-0.8-2.3v-0.2c0-0.9,0.3-1.7,0.8-2.3s1.3-0.9,2.3-0.9c0.5,0,1,0.1,1.4,0.2s0.8,0.4,1,0.6v1.7h-1.4
		l-0.3-1c-0.1-0.1-0.2-0.1-0.3-0.2c-0.1,0-0.3-0.1-0.4-0.1c-0.5,0-0.8,0.2-1,0.5s-0.3,0.8-0.3,1.4v0.2c0,0.6,0.1,1,0.3,1.4
		C423.9,103.9,424.3,104.1,424.7,104.1z"/>
	<path class="st3" d="M430.7,97.4V99h1.1v1.2h-1.1v3.2c0,0.2,0.1,0.4,0.2,0.5s0.2,0.2,0.4,0.2c0.1,0,0.2,0,0.3,0c0.1,0,0.2,0,0.3,0
		l0.1,1.2c-0.2,0.1-0.4,0.1-0.6,0.1s-0.4,0-0.6,0c-0.6,0-1.1-0.2-1.4-0.5s-0.5-0.8-0.5-1.5v-3.2H428V99h0.9v-1.6H430.7z"/>
	<path class="st3" d="M435.7,105.4c-0.9,0-1.7-0.3-2.2-0.9s-0.8-1.3-0.8-2.2v-0.2c0-0.9,0.3-1.7,0.8-2.3c0.5-0.6,1.2-0.9,2.1-0.9
		s1.5,0.3,2,0.8s0.7,1.2,0.7,2.1v0.9h-3.8l0,0c0,0.4,0.2,0.8,0.4,1s0.6,0.4,1,0.4s0.7,0,1-0.1s0.5-0.2,0.8-0.4l0.5,1.1
		c-0.3,0.2-0.6,0.4-1,0.5S436.2,105.4,435.7,105.4z M435.5,100.2c-0.3,0-0.6,0.1-0.8,0.4s-0.3,0.6-0.3,1l0,0h2.1v-0.2
		c0-0.4-0.1-0.7-0.3-0.9S435.9,100.2,435.5,100.2z"/>
	<path class="st3" d="M443.3,104.5c-0.2,0.3-0.4,0.5-0.7,0.7s-0.6,0.2-0.9,0.2c-0.8,0-1.4-0.3-1.8-0.9s-0.7-1.3-0.7-2.3v-0.1
		c0-1,0.2-1.8,0.7-2.4c0.4-0.6,1.1-0.9,1.8-0.9c0.3,0,0.6,0.1,0.9,0.2s0.5,0.3,0.7,0.6v-2.3l-0.9-0.2v-1h0.9h1.7v7.9l0.8,0.2v1h-2.3
		L443.3,104.5z M440.8,102.3c0,0.6,0.1,1,0.3,1.3s0.5,0.5,0.9,0.5c0.3,0,0.5-0.1,0.7-0.2s0.3-0.2,0.5-0.4v-2.7
		c-0.1-0.2-0.3-0.4-0.5-0.5s-0.4-0.2-0.6-0.2c-0.4,0-0.7,0.2-0.9,0.6s-0.3,0.9-0.3,1.5v0.1H440.8z"/>
</g>
<linearGradient id="SVGID_1_" gradientUnits="userSpaceOnUse" x1="174.4" y1="870.5" x2="346.2" y2="870.5" gradientTransform="matrix(1 0 0 1 0 -748)">
	<stop  offset="0" style="stop-color:#990066"/>
	<stop  offset="0.19" style="stop-color:#780066"/>
	<stop  offset="0.4" style="stop-color:#5A0066"/>
	<stop  offset="0.61" style="stop-color:#440066"/>
	<stop  offset="0.81" style="stop-color:#370066"/>
	<stop  offset="1" style="stop-color:#330066"/>
</linearGradient>
<path class="st11" d="M179.4,69.8h161.8c2.8,0,5,2.2,5,5v95.4c0,2.8-2.2,5-5,5H179.4c-2.8,0-5-2.2-5-5V74.8
	C174.4,72,176.7,69.8,179.4,69.8z"/>
<path class="st10" d="M179.4,69.8h161.8c2.8,0,5,2.2,5,5v95.4c0,2.8-2.2,5-5,5H179.4c-2.8,0-5-2.2-5-5V74.8
	C174.4,72,176.7,69.8,179.4,69.8z"/>
<path class="st12" d="M192.3,116h135.6c2.8,0,5,2.2,5,5v17.2c0,2.8-2.2,5-5,5H192.3c-2.8,0-5-2.2-5-5V121
	C187.3,118.3,189.5,116,192.3,116z"/>
<g class="st4">
	<path class="st3" d="M201.3,125.4v0.9l-0.8,0.2v4.1c0,0.5,0.1,0.9,0.4,1.2c0.3,0.3,0.7,0.4,1.1,0.4c0.5,0,0.9-0.1,1.2-0.4
		s0.4-0.6,0.4-1.2v-4.1l-0.8-0.2v-0.9h3.2v0.9l-0.8,0.2v4.1c0,0.9-0.3,1.6-0.9,2c-0.6,0.5-1.3,0.7-2.3,0.7c-0.9,0-1.7-0.2-2.3-0.7
		s-0.9-1.2-0.9-2v-4.1l-0.8-0.2v-0.9h0.8h1.6C200.4,125.4,201.3,125.4,201.3,125.4z"/>
	<path class="st3" d="M206.4,132.3l0.8-0.2v-3.6l-0.8-0.2v-0.9h2.3l0.1,0.8c0.2-0.3,0.4-0.5,0.7-0.7s0.6-0.2,1-0.2
		c0.6,0,1,0.2,1.4,0.6c0.3,0.4,0.5,0.9,0.5,1.7v2.5l0.8,0.2v0.9h-3v-0.9l0.7-0.2v-2.5c0-0.4-0.1-0.7-0.2-0.8s-0.4-0.2-0.7-0.2
		c-0.2,0-0.4,0-0.6,0.1s-0.3,0.2-0.4,0.4v3.1l0.6,0.2v0.9h-3v-1H206.4z"/>
</g>
<g class="st4">
	<path class="st3" d="M213.3,128.3v-0.9h2.3l0.1,0.8c0.2-0.3,0.4-0.5,0.7-0.6c0.3-0.2,0.6-0.2,1-0.2s0.7,0.1,1,0.2s0.5,0.4,0.6,0.7
		c0.2-0.3,0.4-0.6,0.7-0.7c0.3-0.2,0.6-0.3,1-0.3c0.6,0,1,0.2,1.4,0.6c0.3,0.4,0.5,1,0.5,1.8v2.4l0.8,0.2v0.9h-3v-0.9l0.7-0.2v-2.4
		c0-0.4-0.1-0.7-0.2-0.9s-0.4-0.3-0.6-0.3c-0.2,0-0.4,0-0.6,0.1c-0.2,0.1-0.3,0.2-0.4,0.4c0,0.1,0,0.1,0,0.2v0.1v2.7l0.6,0.2v0.9
		h-2.8v-0.9l0.6-0.2v-2.4c0-0.4-0.1-0.7-0.2-0.9c-0.1-0.2-0.4-0.3-0.6-0.3c-0.2,0-0.4,0-0.6,0.1c-0.2,0.1-0.3,0.2-0.4,0.3v3.1
		l0.7,0.2v0.9h-3v-0.9l0.8-0.2v-3.6L213.3,128.3z"/>
</g>
<g class="st4">
	<path class="st3" d="M223.7,130.2c0-0.9,0.2-1.6,0.7-2.1c0.5-0.6,1.2-0.8,2-0.8c0.9,0,1.5,0.3,2,0.8c0.5,0.6,0.7,1.3,0.7,2.1v0.1
		c0,0.9-0.2,1.6-0.7,2.1s-1.2,0.8-2,0.8c-0.9,0-1.5-0.3-2-0.8s-0.7-1.3-0.7-2.1V130.2z M225.3,130.4c0,0.5,0.1,1,0.3,1.3
		s0.5,0.5,0.9,0.5s0.7-0.2,0.9-0.5s0.3-0.7,0.3-1.3v-0.1c0-0.5-0.1-0.9-0.3-1.3s-0.5-0.5-0.9-0.5s-0.7,0.2-0.9,0.5s-0.3,0.7-0.3,1.3
		V130.4z"/>
	<path class="st3" d="M233.6,132.5c-0.2,0.3-0.4,0.5-0.6,0.6c-0.2,0.1-0.5,0.2-0.9,0.2c-0.7,0-1.3-0.3-1.7-0.8s-0.6-1.2-0.6-2.1
		v-0.1c0-0.9,0.2-1.7,0.6-2.2c0.4-0.6,1-0.8,1.7-0.8c0.3,0,0.6,0.1,0.8,0.2s0.4,0.3,0.6,0.5v-2.1l-0.8-0.2v-0.9h0.8h1.6v7.3l0.8,0.2
		v0.9h-2.1L233.6,132.5z M231.4,130.5c0,0.5,0.1,0.9,0.3,1.2s0.4,0.4,0.8,0.4c0.2,0,0.4,0,0.6-0.1s0.3-0.2,0.4-0.4v-2.5
		c-0.1-0.2-0.2-0.3-0.4-0.4c-0.2-0.1-0.4-0.2-0.6-0.2c-0.4,0-0.7,0.2-0.8,0.5s-0.3,0.8-0.3,1.3V130.5z"/>
	<path class="st3" d="M236.3,132.3l0.8-0.2v-3.6l-0.8-0.2v-0.9h2.4v4.7l0.8,0.2v0.9h-3.1L236.3,132.3L236.3,132.3z M238.6,126H237
		v-1.2h1.6V126z"/>
	<path class="st3" d="M239.8,128.5v-1.1h0.9V127c0-0.7,0.2-1.3,0.7-1.7c0.4-0.4,1.1-0.6,1.9-0.6c0.3,0,0.6,0,0.8,0.1
		s0.6,0.1,0.9,0.2l-0.2,1.2c-0.3-0.1-0.5-0.1-0.7-0.2c-0.2,0-0.5-0.1-0.7-0.1c-0.4,0-0.6,0.1-0.8,0.2c-0.2,0.2-0.3,0.4-0.3,0.7v0.4
		h3.5v4.7l0.8,0.2v0.9h-3.2v-0.9l0.8-0.2v-3.6h-2v3.6l0.8,0.2v0.9h-3.2v-0.9l0.8-0.2v-3.6h-0.8V128.5z"/>
	<path class="st3" d="M249.9,133.3c-0.8,0-1.5-0.3-2-0.8s-0.8-1.2-0.8-2v-0.2c0-0.9,0.2-1.6,0.7-2.1c0.5-0.6,1.1-0.8,1.9-0.8
		c0.8,0,1.4,0.2,1.8,0.7s0.6,1.1,0.6,1.9v0.9h-3.5l0,0c0,0.4,0.2,0.7,0.4,0.9s0.5,0.4,0.9,0.4c0.3,0,0.6,0,0.9-0.1
		c0.2-0.1,0.5-0.2,0.8-0.3l0.4,1c-0.2,0.2-0.6,0.3-0.9,0.5C250.8,133.2,250.3,133.3,249.9,133.3z M249.7,128.5
		c-0.3,0-0.5,0.1-0.7,0.3s-0.3,0.5-0.3,0.9l0,0h1.9v-0.1c0-0.3-0.1-0.6-0.2-0.8C250.3,128.6,250,128.5,249.7,128.5z"/>
	<path class="st3" d="M256.7,132.5c-0.2,0.3-0.4,0.5-0.6,0.6s-0.5,0.2-0.9,0.2c-0.7,0-1.3-0.3-1.7-0.8s-0.6-1.2-0.6-2.1v-0.1
		c0-0.9,0.2-1.7,0.6-2.2c0.4-0.6,1-0.8,1.7-0.8c0.3,0,0.6,0.1,0.8,0.2c0.2,0.1,0.4,0.3,0.6,0.5v-2.1l-0.8-0.2v-0.9h0.8h1.6v7.3
		l0.8,0.2v0.9h-2.1L256.7,132.5z M254.5,130.5c0,0.5,0.1,0.9,0.3,1.2s0.4,0.4,0.8,0.4c0.2,0,0.4,0,0.6-0.1s0.3-0.2,0.4-0.4v-2.5
		c-0.1-0.2-0.2-0.3-0.4-0.4c-0.2-0.1-0.4-0.2-0.6-0.2c-0.4,0-0.7,0.2-0.8,0.5s-0.3,0.8-0.3,1.3V130.5z"/>
	<path class="st3" d="M262,132.3l0.6-0.1l2.4-6.8h1.6l2.4,6.8l0.6,0.1v0.9h-2.7v-0.9l0.5-0.1l-0.3-1.1h-2.5l-0.3,1.1l0.5,0.1v0.9
		H262V132.3z M264.9,129.9h1.8l-0.9-2.8l0,0L264.9,129.9z"/>
	<path class="st3" d="M269.9,128.3v-0.9h2.3l0.1,0.7c0.2-0.3,0.4-0.4,0.6-0.6c0.2-0.1,0.5-0.2,0.8-0.2c0.7,0,1.3,0.3,1.7,0.8
		c0.4,0.6,0.6,1.3,0.6,2.2v0.1c0,0.9-0.2,1.5-0.6,2.1c-0.4,0.5-1,0.8-1.7,0.8c-0.3,0-0.6-0.1-0.8-0.2c-0.2-0.1-0.4-0.3-0.6-0.5v1.7
		l0.8,0.2v0.9H270v-0.9l0.8-0.2v-5.8L269.9,128.3z M274.5,130.3c0-0.5-0.1-1-0.3-1.3s-0.5-0.5-0.8-0.5c-0.2,0-0.4,0-0.6,0.1
		s-0.3,0.2-0.4,0.4v2.5c0.1,0.2,0.2,0.3,0.4,0.4c0.2,0.1,0.4,0.1,0.6,0.1c0.4,0,0.7-0.1,0.8-0.4c0.2-0.3,0.3-0.7,0.3-1.2V130.3z"/>
</g>
<g class="st4">
	<path class="st3" d="M276.6,128.3v-0.9h2.3l0.1,0.7c0.2-0.3,0.4-0.4,0.6-0.6c0.2-0.1,0.5-0.2,0.8-0.2c0.7,0,1.3,0.3,1.7,0.8
		c0.4,0.6,0.6,1.3,0.6,2.2v0.1c0,0.9-0.2,1.5-0.6,2.1c-0.4,0.5-1,0.8-1.7,0.8c-0.3,0-0.6-0.1-0.8-0.2c-0.2-0.1-0.4-0.3-0.6-0.5v1.7
		l0.8,0.2v0.9h-3.1v-0.9l0.8-0.2v-5.8L276.6,128.3z M281.1,130.3c0-0.5-0.1-1-0.3-1.3s-0.5-0.5-0.8-0.5c-0.2,0-0.4,0-0.6,0.1
		s-0.3,0.2-0.4,0.4v2.5c0.1,0.2,0.2,0.3,0.4,0.4c0.2,0.1,0.4,0.1,0.6,0.1c0.4,0,0.7-0.1,0.8-0.4c0.2-0.3,0.3-0.7,0.3-1.2V130.3z"/>
</g>
<g class="st4">
	<path class="st3" d="M283.1,125.8v-0.9h2.4v7.3l0.8,0.2v0.9h-3.1v-0.9l0.8-0.2V126L283.1,125.8z"/>
	<path class="st3" d="M286.7,132.3l0.8-0.2v-3.6l-0.8-0.2v-0.9h2.4v4.7l0.8,0.2v0.9h-3.1L286.7,132.3L286.7,132.3z M289.1,126h-1.6
		v-1.2h1.6V126z"/>
	<path class="st3" d="M293,132.1c0.3,0,0.5-0.1,0.7-0.2c0.2-0.2,0.3-0.4,0.3-0.7h1.4l0,0c0,0.6-0.2,1.1-0.7,1.5s-1,0.6-1.7,0.6
		c-0.9,0-1.5-0.3-2-0.8s-0.7-1.3-0.7-2.1v-0.2c0-0.9,0.2-1.6,0.7-2.1s1.2-0.8,2.1-0.8c0.5,0,0.9,0.1,1.3,0.2s0.7,0.3,0.9,0.6v1.6
		H294l-0.3-0.9c-0.1-0.1-0.2-0.1-0.3-0.2c-0.1,0-0.2-0.1-0.4-0.1c-0.4,0-0.8,0.2-0.9,0.5s-0.3,0.7-0.3,1.2v0.2
		c0,0.5,0.1,0.9,0.3,1.3C292.3,132,292.6,132.1,293,132.1z"/>
</g>
<g class="st4">
	<path class="st3" d="M299.8,133.2c0-0.1-0.1-0.2-0.1-0.3s-0.1-0.2-0.1-0.3c-0.2,0.2-0.4,0.4-0.7,0.5c-0.3,0.1-0.6,0.2-0.9,0.2
		c-0.6,0-1-0.2-1.4-0.5s-0.5-0.7-0.5-1.3c0-0.5,0.2-1,0.7-1.3c0.4-0.3,1.1-0.4,1.9-0.4h0.8v-0.6c0-0.3-0.1-0.5-0.2-0.6
		s-0.4-0.2-0.7-0.2c-0.2,0-0.3,0-0.5,0.1s-0.3,0.1-0.3,0.1l-0.1,0.6h-1.2v-1.3c0.3-0.2,0.6-0.4,1-0.5s0.8-0.2,1.2-0.2
		c0.7,0,1.3,0.2,1.8,0.5c0.4,0.4,0.7,0.9,0.7,1.5v2.4c0,0.1,0,0.2,0,0.3s0,0.2,0,0.2l0.5,0.1v0.9h-1.9V133.2z M298.5,132.2
		c0.2,0,0.5-0.1,0.6-0.2c0.2-0.1,0.3-0.2,0.5-0.4v-0.9h-0.8c-0.3,0-0.6,0.1-0.8,0.2c-0.2,0.2-0.3,0.3-0.3,0.6c0,0.2,0.1,0.4,0.2,0.5
		C298.1,132.1,298.2,132.2,298.5,132.2z"/>
</g>
<g class="st4">
	<path class="st3" d="M304,126v1.4h1v1.1h-1v3c0,0.2,0,0.4,0.1,0.5s0.2,0.1,0.4,0.1c0.1,0,0.2,0,0.3,0c0.1,0,0.2,0,0.3,0l0.1,1.1
		c-0.2,0.1-0.3,0.1-0.5,0.1s-0.4,0-0.6,0c-0.5,0-1-0.1-1.2-0.4s-0.4-0.8-0.4-1.4v-3h-0.9v-1.1h0.9V126H304z"/>
	<path class="st3" d="M305.8,132.3l0.8-0.2v-3.6l-0.8-0.2v-0.9h2.4v4.7l0.8,0.2v0.9h-3.1L305.8,132.3L305.8,132.3z M308.1,126h-1.6
		v-1.2h1.6V126z"/>
	<path class="st3" d="M309.4,130.2c0-0.9,0.2-1.6,0.7-2.1c0.5-0.6,1.2-0.8,2-0.8c0.9,0,1.5,0.3,2,0.8s0.7,1.3,0.7,2.1v0.1
		c0,0.9-0.2,1.6-0.7,2.1s-1.2,0.8-2,0.8c-0.9,0-1.5-0.3-2-0.8s-0.7-1.3-0.7-2.1V130.2z M310.9,130.4c0,0.5,0.1,1,0.3,1.3
		c0.2,0.3,0.5,0.5,0.9,0.5s0.7-0.2,0.9-0.5c0.2-0.3,0.3-0.7,0.3-1.3v-0.1c0-0.5-0.1-0.9-0.3-1.3c-0.2-0.3-0.5-0.5-0.9-0.5
		s-0.7,0.2-0.9,0.5c-0.2,0.3-0.3,0.7-0.3,1.3V130.4z"/>
	<path class="st3" d="M315.5,132.3l0.8-0.2v-3.6l-0.8-0.2v-0.9h2.3l0.1,0.8c0.2-0.3,0.4-0.5,0.7-0.7c0.3-0.2,0.6-0.2,1-0.2
		c0.6,0,1,0.2,1.4,0.6c0.3,0.4,0.5,0.9,0.5,1.7v2.5l0.8,0.2v0.9h-3v-0.9l0.7-0.2v-2.5c0-0.4-0.1-0.7-0.2-0.8
		c-0.2-0.2-0.4-0.2-0.7-0.2c-0.2,0-0.4,0-0.6,0.1s-0.3,0.2-0.4,0.4v3.1l0.6,0.2v0.9h-3v-1H315.5z"/>
</g>
<path class="st13" d="M192.3,259.3h135.6c2.8,0,5,2.2,5,5v17.2c0,2.8-2.2,5-5,5H192.3c-2.8,0-5-2.2-5-5v-17.2
	C187.3,261.5,189.5,259.3,192.3,259.3z"/>
<g class="st4">
	<path class="st5" d="M230.1,275.5l0.8-0.2v-5.6l-0.8-0.2v-0.9h6.2v2.1h-1.2l-0.1-0.9h-2.6v2.2h2.7v1.2h-2.7v2.1l0.8,0.2v0.9H230
		v-0.9H230.1z"/>
	<path class="st5" d="M236.9,275.5l0.8-0.2v-3.6l-0.8-0.2v-0.9h2.4v4.7l0.8,0.2v0.9H237L236.9,275.5L236.9,275.5z M239.2,269.2h-1.6
		V268h1.6V269.2z"/>
	<path class="st5" d="M240.3,269v-0.9h2.4v7.3l0.8,0.2v0.9h-3.1v-0.9l0.8-0.2v-6.2L240.3,269z"/>
	<path class="st5" d="M246.8,276.5c-0.8,0-1.5-0.3-2-0.8s-0.8-1.2-0.8-2v-0.2c0-0.9,0.2-1.6,0.7-2.1c0.5-0.6,1.1-0.8,1.9-0.8
		c0.8,0,1.4,0.2,1.8,0.7s0.6,1.1,0.6,1.9v0.9h-3.5l0,0c0,0.4,0.2,0.7,0.4,0.9c0.2,0.2,0.5,0.4,0.9,0.4c0.3,0,0.6,0,0.9-0.1
		c0.2-0.1,0.5-0.2,0.8-0.3l0.4,1c-0.2,0.2-0.6,0.3-0.9,0.5C247.7,276.5,247.3,276.5,246.8,276.5z M246.6,271.7
		c-0.3,0-0.5,0.1-0.7,0.3c-0.2,0.2-0.3,0.5-0.3,0.9l0,0h1.9v-0.1c0-0.3-0.1-0.6-0.2-0.8C247.2,271.8,247,271.7,246.6,271.7z"/>
	<path class="st5" d="M257.3,272.6h-1.1l-0.2-0.7c-0.1-0.1-0.2-0.2-0.4-0.2c-0.2-0.1-0.3-0.1-0.5-0.1c-0.3,0-0.5,0.1-0.7,0.2
		s-0.2,0.3-0.2,0.5s0.1,0.3,0.2,0.4s0.5,0.2,0.9,0.3c0.7,0.1,1.3,0.4,1.6,0.6c0.3,0.3,0.5,0.7,0.5,1.1c0,0.5-0.2,1-0.7,1.3
		s-1,0.5-1.8,0.5c-0.4,0-0.9-0.1-1.2-0.2c-0.4-0.1-0.7-0.3-1-0.6v-1.3h1.1l0.2,0.8c0.1,0.1,0.2,0.1,0.4,0.2c0.2,0,0.3,0.1,0.5,0.1
		c0.3,0,0.6-0.1,0.7-0.2c0.2-0.1,0.3-0.3,0.3-0.5s-0.1-0.3-0.3-0.4s-0.5-0.2-0.9-0.3c-0.7-0.1-1.2-0.3-1.5-0.6
		c-0.3-0.3-0.5-0.6-0.5-1.1s0.2-0.9,0.6-1.3s1-0.5,1.7-0.5c0.5,0,0.9,0.1,1.3,0.2c0.4,0.1,0.7,0.3,0.9,0.5L257.3,272.6z"/>
	<path class="st5" d="M264.2,271.6l-0.5,0.1l-2.1,5.7c-0.2,0.4-0.4,0.8-0.7,1.1s-0.7,0.4-1.3,0.4c-0.1,0-0.3,0-0.4,0
		s-0.3-0.1-0.4-0.1l0.2-1.1c0.1,0,0.1,0,0.2,0s0.1,0,0.1,0c0.3,0,0.5-0.1,0.6-0.2s0.2-0.3,0.3-0.5l0.2-0.4l-1.8-4.8l-0.5-0.1v-0.9
		h2.8v0.9l-0.6,0.1l0.8,2.3l0.1,0.4l0,0l0.9-2.7l-0.7-0.1v-0.9h2.8V271.6z"/>
	<path class="st5" d="M269.5,272.6h-1.1l-0.2-0.7c-0.1-0.1-0.2-0.2-0.4-0.2c-0.2-0.1-0.3-0.1-0.5-0.1c-0.3,0-0.5,0.1-0.7,0.2
		s-0.2,0.3-0.2,0.5s0.1,0.3,0.2,0.4c0.2,0.1,0.5,0.2,0.9,0.3c0.7,0.1,1.3,0.4,1.6,0.6c0.3,0.3,0.5,0.7,0.5,1.1c0,0.5-0.2,1-0.7,1.3
		s-1,0.5-1.8,0.5c-0.4,0-0.9-0.1-1.2-0.2s-0.7-0.3-1-0.6v-1.3h1.1l0.2,0.8c0.1,0.1,0.2,0.1,0.4,0.2c0.2,0,0.3,0.1,0.5,0.1
		c0.3,0,0.6-0.1,0.7-0.2c0.2-0.1,0.3-0.3,0.3-0.5s-0.1-0.3-0.3-0.4c-0.2-0.1-0.5-0.2-0.9-0.3c-0.7-0.1-1.2-0.3-1.5-0.6
		c-0.3-0.3-0.5-0.6-0.5-1.1s0.2-0.9,0.6-1.3s1-0.5,1.7-0.5c0.5,0,0.9,0.1,1.3,0.2s0.7,0.3,0.9,0.5L269.5,272.6z"/>
	<path class="st5" d="M272.7,269.2v1.4h1v1.1h-1v3c0,0.2,0,0.4,0.1,0.5s0.2,0.1,0.4,0.1c0.1,0,0.2,0,0.3,0c0.1,0,0.2,0,0.3,0
		l0.1,1.1c-0.2,0.1-0.3,0.1-0.5,0.1s-0.4,0-0.6,0c-0.5,0-1-0.1-1.2-0.4s-0.4-0.8-0.4-1.4v-3h-0.9v-1.1h0.9v-1.4L272.7,269.2
		L272.7,269.2z"/>
	<path class="st5" d="M277.3,276.5c-0.8,0-1.5-0.3-2-0.8s-0.8-1.2-0.8-2v-0.2c0-0.9,0.2-1.6,0.7-2.1c0.5-0.6,1.1-0.8,1.9-0.8
		s1.4,0.2,1.8,0.7s0.6,1.1,0.6,1.9v0.9H276l0,0c0,0.4,0.2,0.7,0.4,0.9c0.2,0.2,0.5,0.4,0.9,0.4c0.3,0,0.6,0,0.9-0.1
		c0.2-0.1,0.5-0.2,0.8-0.3l0.4,1c-0.2,0.2-0.6,0.3-0.9,0.5C278.2,276.5,277.7,276.5,277.3,276.5z M277.1,271.7
		c-0.3,0-0.5,0.1-0.7,0.3c-0.2,0.2-0.3,0.5-0.3,0.9l0,0h1.9v-0.1c0-0.3-0.1-0.6-0.2-0.8C277.7,271.8,277.5,271.7,277.1,271.7z"/>
	<path class="st5" d="M280.2,271.6v-0.9h2.3l0.1,0.8c0.2-0.3,0.4-0.5,0.7-0.6c0.3-0.2,0.6-0.2,1-0.2s0.7,0.1,1,0.2
		c0.3,0.2,0.5,0.4,0.6,0.7c0.2-0.3,0.4-0.6,0.7-0.7c0.3-0.2,0.6-0.3,1-0.3c0.6,0,1,0.2,1.4,0.6c0.3,0.4,0.5,1,0.5,1.8v2.4l0.8,0.2
		v0.9h-3v-0.9l0.7-0.2V273c0-0.4-0.1-0.7-0.2-0.9c-0.1-0.2-0.4-0.3-0.6-0.3s-0.4,0-0.6,0.1s-0.3,0.2-0.4,0.4c0,0.1,0,0.1,0,0.2v0.1
		v2.7l0.6,0.2v0.9H284v-0.9l0.6-0.2v-2.4c0-0.4-0.1-0.7-0.2-0.9c-0.1-0.2-0.4-0.3-0.6-0.3s-0.4,0-0.6,0.1s-0.3,0.2-0.4,0.3v3.1
		l0.7,0.2v0.9h-3v-0.9l0.8-0.2v-3.6L280.2,271.6z"/>
</g>
<path class="st8" d="M251,58c4.6-4.5,12.1-4.5,16.6,0.2c4.5,4.6,4.5,12.1-0.2,16.6c-4.6,4.5-12.1,4.5-16.6-0.2
	c-2.1-2.2-3.4-5.1-3.4-8.2c0-2.6,0.8-5.1,2.4-7.1"/>
<path class="st12" d="M259.3,72H255c-0.6,0-0.8-0.2-0.8-0.8v-6.5c0-0.6,0.2-0.8,0.8-0.8h8.5c0.5,0,0.8,0.2,0.8,0.8v6.5
	c0,0.6-0.2,0.8-0.8,0.8C262.1,72,260.7,72,259.3,72z"/>
<path class="st12" d="M254.9,63.4c0-1.8,1-3.4,2.6-4.1c2.1-0.9,4.6,0,5.5,2.1c0.1,0.2,0.2,0.5,0.2,0.7c0.1,0.4,0.1,0.8,0.2,1.2"/>
<path class="st3" d="M258.6,69.2L258.6,69.2v0.9c0,0.2,0.1,0.2,0.3,0.2h0.8c0.2,0,0.3-0.1,0.3-0.3v-1.6c0-0.2,0.1-0.3,0.2-0.4
	c0.5-0.3,0.8-0.9,0.6-1.4c-0.2-0.6-0.8-1-1.5-1c-0.7-0.1-1.3,0.3-1.6,0.9c-0.2,0.6,0,1.2,0.5,1.5c0.2,0.1,0.3,0.3,0.3,0.5
	C258.6,68.7,258.6,69,258.6,69.2z"/>
<g id="Scone_logo_white">
	<g>
		<g>
			<defs>
				<rect id="SVGID_2_" x="242.2" y="158" width="36.3" height="7.1"/>
			</defs>
			<clipPath id="SVGID_3_">
				<use xlink:href="#SVGID_2_"  style="overflow:visible;"/>
			</clipPath>
			<g class="st14">
				<g>
					<g>
						<defs>
							<rect id="SVGID_4_" x="242.2" y="158" width="36.3" height="7.1"/>
						</defs>
						<clipPath id="SVGID_5_">
							<use xlink:href="#SVGID_4_"  style="overflow:visible;"/>
						</clipPath>
						<g class="st15">
							<path class="st16" d="M247,159.8h-0.8c-0.2,0-0.3,0.1-0.3,0.3v0.8c0,0.2,0.1,0.3,0.3,0.3h0.8c0.2,0,0.3-0.1,0.3-0.3v-0.8
								C247.3,160,247.2,159.8,247,159.8 M244.4,161.2h0.8c0.2,0,0.3-0.1,0.3-0.3v-0.8c0-0.2-0.1-0.3-0.3-0.3h-0.8
								c-0.2,0-0.3,0.1-0.3,0.3v0.8C244.1,161.1,244.2,161.2,244.4,161.2 M243.5,160.9v-0.8c0-0.2-0.1-0.3-0.3-0.3h-0.8
								c-0.2,0-0.3,0.1-0.3,0.3v0.8c0,0.2,0.1,0.3,0.3,0.3h0.8C243.4,161.2,243.5,161.1,243.5,160.9 M247.1,161.7
								c-0.1,0-0.2,0.1-0.2,0.2l0,0v0.9c0,0.1,0.1,0.2,0.2,0.2s0.2-0.1,0.2-0.2V162C247.3,161.9,247.2,161.8,247.1,161.7
								C247.1,161.8,247.1,161.8,247.1,161.7 M245,162v0.8c0,0.2,0.1,0.3,0.3,0.3h0.7c0.2,0,0.3-0.1,0.3-0.3V162
								c0-0.2-0.1-0.3-0.3-0.3h-0.8C245.1,161.7,245,161.8,245,162 M244.4,162.8V162c0-0.2-0.1-0.3-0.3-0.3h-0.8
								c-0.2,0-0.3,0.1-0.3,0.3v0.8c0,0.2,0.1,0.3,0.3,0.3h0.8C244.3,163.1,244.4,162.9,244.4,162.8 M247,163.6h-0.8
								c-0.2,0-0.3,0.1-0.3,0.3v0.8c0,0.2,0.1,0.3,0.3,0.3h0.8c0.2,0,0.3-0.1,0.3-0.3v-0.8C247.3,163.7,247.2,163.6,247,163.6
								 M245,163.6h-0.8c-0.2,0-0.3,0.1-0.3,0.3v0.8c0,0.2,0.1,0.3,0.3,0.3h0.8c0.2,0,0.3-0.1,0.3-0.3l0,0v-0.8
								C245.3,163.7,245.2,163.6,245,163.6L245,163.6"/>
							<path class="st16" d="M247.9,159.5c0.3,0.3,0.8,0.4,1.2,0.4c0,0,0,0,0,0.1v2.1c0,0.8-1,1.3-1.2,1.4l0,0V159.5L247.9,159.5"/>
							<path class="st16" d="M245.6,159.4c1.6-0.1,1.9-0.6,1.9-0.6s0,0,0.1,0h0.1c0,0,0.3,0.6,1.9,0.6c0,0,0.1,0,0.1,0.1v2.8
								c0,0.9-1.7,1.9-1.7,1.9s0,0,0,0.1v0.7h0.1c0.6-0.3,2.3-1.3,2.3-2.5V159c0-0.1-0.1-0.1-0.2-0.1c-2.1,0-2.4-0.7-2.4-0.7h-0.1
								h-0.1c0,0-0.3,0.8-2.4,0.8c-0.1,0-0.1,0-0.1,0.1v0.4c0,0,0,0.1,0.1,0.1S245.7,159.5,245.6,159.4"/>
							<path class="st17" d="M251.8,163.9l0.8-0.3c0.2,0.4,0.6,0.6,1.1,0.6c0.2,0,0.4,0,0.6-0.1c0.2-0.1,0.3-0.3,0.3-0.4
								c0-0.4-0.6-0.7-1-0.9l0,0c-0.4-0.1-0.7-0.3-1-0.5s-0.5-0.6-0.5-1s0.2-0.8,0.5-1c0.3-0.3,0.8-0.4,1.2-0.4
								c0.7,0,1.3,0.3,1.6,0.9l-0.9,0.3c-0.1-0.1-0.2-0.2-0.3-0.3s-0.3-0.1-0.5-0.1c-0.5,0-0.8,0.3-0.8,0.6c0,0.2,0.1,0.4,0.3,0.5
								c0.2,0.2,0.5,0.3,0.7,0.4h0.1c0.6,0.3,1.4,0.6,1.4,1.4c0,0.4-0.2,0.8-0.6,1c-0.4,0.3-0.9,0.4-1.3,0.4
								C252.9,165,252.2,164.5,251.8,163.9"/>
							<path class="st17" d="M259.1,165c-0.3,0-0.7-0.1-1-0.2c-0.3-0.1-0.6-0.3-0.8-0.6c-0.2-0.2-0.4-0.5-0.5-0.8
								c-0.3-0.6-0.3-1.4,0-2c0.1-0.3,0.3-0.6,0.5-0.8s0.5-0.4,0.8-0.6c0.3-0.1,0.7-0.2,1-0.2c0.4,0,0.8,0.1,1.2,0.3
								c0.3,0.2,0.7,0.4,0.9,0.7l-0.7,0.5c-0.2-0.2-0.4-0.4-0.6-0.5s-0.5-0.2-0.8-0.2c-1,0-1.7,0.8-1.7,1.7s0.8,1.7,1.7,1.7
								c0.3,0,0.6-0.1,0.9-0.3s0.5-0.4,0.6-0.6l0.7,0.4c-0.2,0.4-0.5,0.8-0.9,1C260,164.9,259.5,165.1,259.1,165"/>
							<path class="st17" d="M264.7,165c-0.3,0-0.7-0.1-1-0.2c-0.3-0.1-0.6-0.3-0.8-0.6c-0.2-0.2-0.4-0.5-0.6-0.8
								c-0.1-0.3-0.2-0.7-0.2-1s0.1-0.7,0.2-1s0.3-0.6,0.6-0.8c0.2-0.2,0.5-0.4,0.8-0.6c0.6-0.3,1.4-0.3,2,0
								c0.3,0.1,0.6,0.3,0.8,0.6c0.2,0.2,0.4,0.5,0.5,0.8s0.2,0.7,0.2,1s-0.1,0.7-0.2,1s-0.3,0.6-0.5,0.8s-0.5,0.4-0.8,0.6
								C265.4,164.9,265.1,165,264.7,165 M264.7,160.7c-0.5,0-0.9,0.2-1.2,0.5c-0.3,0.3-0.5,0.8-0.5,1.2c0,0.5,0.2,0.9,0.5,1.2
								c0.7,0.7,1.8,0.7,2.5,0c0.3-0.3,0.5-0.8,0.5-1.2c0-0.5-0.2-0.9-0.5-1.2C265.6,160.8,265.2,160.7,264.7,160.7"/>
							<polygon class="st17" points="273.2,159.9 273.2,165.1 269.6,161.8 269.6,164.9 268.6,164.9 268.6,159.7 272.3,163 
								272.3,159.9 							"/>
							<polygon class="st17" points="275.7,160.7 275.7,162 278.2,162 278.2,162.8 275.7,162.8 275.7,164.2 278.5,164.2 
								278.5,164.9 274.8,164.9 274.8,159.9 278.5,159.9 278.5,160.7 							"/>
						</g>
					</g>
				</g>
			</g>
		</g>
	</g>
</g>
<g class="st4">
	<path class="st18" d="M209.1,94.6v-1.1h3.6v1.1l-0.9,0.2v6.2l0.9,0.2v1h-3.6v-1l0.9-0.2v-6.2L209.1,94.6z"/>
	<path class="st18" d="M213.4,101.2l0.8-0.2v-4l-0.9-0.2v-1.1h2.6l0.1,0.9c0.2-0.3,0.5-0.6,0.8-0.8c0.3-0.2,0.7-0.3,1.1-0.3
		c0.7,0,1.2,0.2,1.5,0.6s0.5,1.1,0.5,1.9v2.8l0.8,0.2v1h-3.3v-1l0.7-0.2V98c0-0.4-0.1-0.7-0.3-0.9c-0.2-0.2-0.4-0.3-0.8-0.3
		c-0.2,0-0.4,0-0.6,0.1c-0.2,0.1-0.3,0.2-0.5,0.4v3.5l0.7,0.2v1h-3.3L213.4,101.2L213.4,101.2z"/>
	<path class="st18" d="M223.8,94.2v1.6h1.1V97h-1.1v3.3c0,0.3,0.1,0.4,0.2,0.5s0.2,0.2,0.4,0.2c0.1,0,0.2,0,0.3,0s0.2,0,0.3-0.1
		l0.1,1.3c-0.2,0.1-0.4,0.1-0.6,0.1c-0.2,0-0.4,0-0.6,0c-0.6,0-1.1-0.2-1.4-0.5c-0.3-0.3-0.5-0.9-0.5-1.6V97h-1v-1.2h1v-1.6
		C222,94.2,223.8,94.2,223.8,94.2z"/>
	<path class="st18" d="M228.9,102.3c-0.9,0-1.7-0.3-2.2-0.9c-0.6-0.6-0.8-1.4-0.8-2.3v-0.2c0-1,0.3-1.8,0.8-2.4s1.2-0.9,2.1-0.9
		c0.9,0,1.5,0.3,2,0.8s0.7,1.2,0.7,2.1v1h-3.9l0,0c0,0.4,0.2,0.8,0.4,1.1c0.3,0.3,0.6,0.4,1,0.4s0.7,0,1-0.1s0.5-0.2,0.8-0.4
		l0.5,1.1c-0.3,0.2-0.6,0.4-1,0.5S229.4,102.3,228.9,102.3z M228.7,97c-0.3,0-0.6,0.1-0.8,0.4c-0.2,0.2-0.3,0.6-0.3,1l0,0h2.1v-0.2
		c0-0.4-0.1-0.7-0.3-0.9C229.3,97.1,229.1,97,228.7,97z"/>
	<path class="st18" d="M232.1,93.9v-1.1h2.7v8.1l0.8,0.2v1h-3.4v-1l0.8-0.2V94L232.1,93.9z"/>
	<path class="st18" d="M245.8,96.3h-1.3l-0.2-1.2c-0.2-0.1-0.4-0.2-0.7-0.3c-0.3-0.1-0.6-0.1-0.9-0.1c-0.5,0-0.8,0.1-1.1,0.3
		c-0.3,0.2-0.4,0.5-0.4,0.8s0.1,0.5,0.4,0.7c0.3,0.2,0.7,0.4,1.4,0.6c1,0.3,1.7,0.6,2.2,1.1c0.5,0.4,0.7,1,0.7,1.7s-0.3,1.3-0.9,1.8
		c-0.6,0.4-1.4,0.6-2.3,0.6c-0.7,0-1.3-0.1-1.9-0.3c-0.6-0.2-1-0.5-1.4-0.9v-1.8h1.4l0.2,1.2c0.2,0.1,0.4,0.3,0.7,0.4s0.6,0.1,1,0.1
		c0.5,0,0.8-0.1,1.1-0.3c0.2-0.2,0.4-0.5,0.4-0.8s-0.1-0.6-0.4-0.8c-0.2-0.2-0.7-0.4-1.2-0.6c-1-0.3-1.8-0.7-2.3-1.1s-0.8-1-0.8-1.7
		s0.3-1.3,0.9-1.7s1.3-0.7,2.3-0.7c0.7,0,1.3,0.1,1.8,0.3s1,0.5,1.4,0.8L245.8,96.3L245.8,96.3z"/>
	<path class="st18" d="M253.8,101.3c-0.3,0.3-0.7,0.5-1.2,0.8c-0.5,0.2-1.2,0.3-2.1,0.3c-1.2,0-2.1-0.4-2.9-1.2
		c-0.7-0.8-1.1-1.8-1.1-3.1v-0.3c0-1.3,0.4-2.4,1.1-3.2c0.7-0.8,1.7-1.2,2.8-1.2c0.7,0,1.3,0.1,1.9,0.3c0.6,0.2,1,0.5,1.4,0.9v1.8
		h-1.3l-0.2-1.2c-0.2-0.1-0.4-0.2-0.6-0.3c-0.3-0.1-0.6-0.1-0.9-0.1c-0.8,0-1.4,0.3-1.8,0.8c-0.4,0.6-0.6,1.3-0.6,2.2v0.3
		c0,0.9,0.2,1.6,0.6,2.1c0.4,0.5,1,0.8,1.8,0.8c0.4,0,0.6,0,0.9-0.1s0.4-0.1,0.5-0.2v-1.5l-1.2-0.1v-1.2h3L253.8,101.3L253.8,101.3z
		"/>
	<path class="st18" d="M254.5,101.2l0.7-0.1l2.3-3.2l-2.2-3.1l-0.7-0.1v-1.1h3.3v1.1l-0.7,0.1l1.3,2.1l1.4-2.1l-0.7-0.1v-1.1h3.4
		v1.1l-0.7,0.1l-2.2,3.1l2.3,3.2l0.8,0.1v1h-3.4v-1l0.7-0.1l-1.4-2.2l-1.4,2.2l0.7,0.1v1h-3.4L254.5,101.2L254.5,101.2z"/>
	<path class="st18" d="M271.9,98.4H269v2.5h2.8l0.1-1h1.3v2.4h-6.9v-1l0.9-0.2v-6.2l-0.9-0.2v-1.1h0.9h5.9V96h-1.3l-0.1-1h-2.8v2
		h2.9v1.4H271.9z"/>
</g>
<g class="st4">
	<path class="st18" d="M274.1,101.2l0.8-0.2v-4l-0.9-0.2v-1.1h2.6l0.1,0.9c0.2-0.3,0.5-0.6,0.8-0.8c0.3-0.2,0.7-0.3,1.1-0.3
		c0.7,0,1.2,0.2,1.5,0.6s0.5,1.1,0.5,1.9v2.8l0.8,0.2v1H278v-1l0.7-0.2V98c0-0.4-0.1-0.7-0.3-0.9c-0.2-0.2-0.4-0.3-0.8-0.3
		c-0.2,0-0.4,0-0.6,0.1s-0.3,0.2-0.5,0.4v3.5l0.7,0.2v1h-3.3v-0.8H274.1z"/>
</g>
<g class="st4">
	<path class="st18" d="M284.9,101c0.3,0,0.6-0.1,0.7-0.3c0.2-0.2,0.3-0.4,0.3-0.7h1.6l0,0c0,0.7-0.2,1.2-0.7,1.6s-1.1,0.7-1.9,0.7
		c-1,0-1.7-0.3-2.2-0.9s-0.8-1.4-0.8-2.3v-0.2c0-1,0.3-1.7,0.8-2.3c0.5-0.6,1.3-0.9,2.3-0.9c0.5,0,1,0.1,1.4,0.2
		c0.4,0.2,0.8,0.4,1,0.7v1.7H286l-0.3-1c-0.1-0.1-0.2-0.1-0.3-0.2c-0.1,0-0.3-0.1-0.4-0.1c-0.5,0-0.8,0.2-1,0.5
		c-0.2,0.4-0.3,0.8-0.3,1.4v0.2c0,0.6,0.1,1,0.3,1.4S284.4,101,284.9,101z"/>
	<path class="st18" d="M288.1,93.9v-1.1h2.7v8.1l0.8,0.2v1h-3.4v-1l0.8-0.2V94L288.1,93.9z"/>
</g>
<g class="st4">
	<path class="st18" d="M296.3,102.2c0-0.1-0.1-0.2-0.1-0.3c0-0.1-0.1-0.2-0.1-0.3c-0.2,0.2-0.5,0.4-0.8,0.6s-0.6,0.2-1,0.2
		c-0.6,0-1.1-0.2-1.5-0.5s-0.6-0.8-0.6-1.4s0.2-1.1,0.7-1.4s1.2-0.5,2.1-0.5h0.9V98c0-0.3-0.1-0.6-0.3-0.7c-0.2-0.2-0.4-0.3-0.8-0.3
		c-0.2,0-0.4,0-0.5,0.1s-0.3,0.1-0.4,0.2l-0.1,0.7h-1.3v-1.4c0.3-0.2,0.7-0.4,1.1-0.5s0.9-0.2,1.3-0.2c0.8,0,1.5,0.2,2,0.6
		s0.8,1,0.8,1.7v2.7c0,0.1,0,0.2,0,0.3c0,0.1,0,0.2,0,0.3l0.5,0.1v1h-1.9V102.2z M294.8,101.1c0.3,0,0.5-0.1,0.7-0.2
		s0.4-0.3,0.5-0.4v-1h-0.9c-0.4,0-0.7,0.1-0.8,0.3s-0.3,0.4-0.3,0.6s0.1,0.4,0.2,0.5C294.4,101,294.6,101.1,294.8,101.1z"/>
</g>
<g class="st4">
	<path class="st18" d="M301.6,96.8l-0.6,0.1l0.9,2.9l0.1,0.6l0,0l0.1-0.6l0.8-2.9l-0.6-0.1v-1.1h2.9v1.1l-0.6,0.1l-1.9,5.3H301
		l-1.9-5.3l-0.6-0.1v-1.1h2.9v1.1H301.6z"/>
</g>
<g class="st4">
	<path class="st18" d="M308.8,102.3c-0.9,0-1.7-0.3-2.2-0.9c-0.6-0.6-0.8-1.4-0.8-2.3v-0.2c0-1,0.3-1.8,0.8-2.4s1.2-0.9,2.1-0.9
		s1.5,0.3,2,0.8s0.7,1.2,0.7,2.1v1h-3.9l0,0c0,0.4,0.2,0.8,0.4,1.1c0.3,0.3,0.6,0.4,1,0.4s0.7,0,1-0.1s0.5-0.2,0.8-0.4l0.5,1.1
		c-0.3,0.2-0.6,0.4-1,0.5C309.8,102.3,309.4,102.3,308.8,102.3z M308.7,97c-0.3,0-0.6,0.1-0.8,0.4s-0.3,0.6-0.3,1l0,0h2.1v-0.2
		c0-0.4-0.1-0.7-0.3-0.9C309.3,97.1,309,97,308.7,97z"/>
</g>
</svg>
