<svg xmlns="http://www.w3.org/2000/svg" xmlns:xlink="http://www.w3.org/1999/xlink" viewBox="0 0 512.31 477.62"><defs><style>.cls-1,.cls-11,.cls-34,.cls-35,.cls-36,.cls-38,.cls-39,.cls-40,.cls-6{fill:none;}.cls-2{opacity:0.7;}.cls-3{fill:url(#Unbenannter_Verlauf_12);}.cls-4{fill:url(#Unbenannter_Verlauf_12-2);}.cls-5{fill:url(#Unbenannter_Verlauf_12-3);}.cls-11,.cls-31,.cls-34,.cls-35,.cls-6{stroke:#fc0;}.cls-25,.cls-34,.cls-35,.cls-36,.cls-40,.cls-6{stroke-miterlimit:10;}.cls-11,.cls-25,.cls-26,.cls-31,.cls-34,.cls-35,.cls-36,.cls-40,.cls-6{stroke-width:2px;}.cls-7{fill:url(#Unbenannter_Verlauf_12-4);}.cls-8{fill:url(#Unbenannter_Verlauf_12-5);}.cls-9{fill:url(#Unbenannter_Verlauf_12-6);}.cls-10{fill:url(#Unbenannter_Verlauf_12-7);}.cls-11,.cls-26,.cls-31,.cls-39{stroke-linecap:round;}.cls-11,.cls-26,.cls-31,.cls-38,.cls-39{stroke-linejoin:round;}.cls-12{font-size:11px;}.cls-12,.cls-32,.cls-33{fill:#fc0;}.cls-12,.cls-28,.cls-33,.cls-37{font-family:RobotoSlab-Bold, Roboto Slab;font-weight:700;}.cls-13{letter-spacing:-0.01em;}.cls-14{letter-spacing:0.01em;}.cls-15{clip-path:url(#clip-path);}.cls-16{fill:#ffd138;}.cls-17{fill:#fdfeff;}.cls-18{clip-path:url(#clip-path-3);}.cls-19{clip-path:url(#clip-path-5);}.cls-20{clip-path:url(#clip-path-7);}.cls-21{font-size:12px;font-family:PTSans-Regular, PT Sans;}.cls-21,.cls-27,.cls-28,.cls-37{fill:#306;}.cls-22{letter-spacing:-0.02em;}.cls-23{letter-spacing:-0.01em;}.cls-24{clip-path:url(#clip-path-9);}.cls-25,.cls-26,.cls-31{fill:#fff;}.cls-25,.cls-26,.cls-36,.cls-38,.cls-39,.cls-40{stroke:#306;}.cls-28{font-size:9.71px;}.cls-29{letter-spacing:0em;}.cls-30{letter-spacing:0.01em;}.cls-33{font-size:9px;}.cls-34{stroke-dasharray:1.99 1.99;}.cls-35{stroke-dasharray:1.96 1.96;}.cls-36{stroke-dasharray:2 2;}.cls-37{font-size:12.24px;}</style><linearGradient id="Unbenannter_Verlauf_12" x1="195.81" y1="172.8" x2="317.99" y2="172.8" gradientUnits="userSpaceOnUse"><stop offset="0" stop-color="#906"/><stop offset="0.19" stop-color="#780066"/><stop offset="0.4" stop-color="#5a0066"/><stop offset="0.61" stop-color="#406"/><stop offset="0.81" stop-color="#370066"/><stop offset="1" stop-color="#306"/></linearGradient><linearGradient id="Unbenannter_Verlauf_12-2" x1="154.31" y1="307.59" x2="222.19" y2="307.59" gradientTransform="translate(476.95 43.66) rotate(90)" xlink:href="#Unbenannter_Verlauf_12"/><linearGradient id="Unbenannter_Verlauf_12-3" x1="155.85" y1="134.62" x2="220.66" y2="134.62" gradientTransform="translate(476.95 43.66) rotate(90)" xlink:href="#Unbenannter_Verlauf_12"/><linearGradient id="Unbenannter_Verlauf_12-4" x1="72.19" y1="164.81" x2="197.85" y2="164.81" xlink:href="#Unbenannter_Verlauf_12"/><linearGradient id="Unbenannter_Verlauf_12-5" x1="317.99" y1="164.81" x2="443.65" y2="164.81" xlink:href="#Unbenannter_Verlauf_12"/><linearGradient id="Unbenannter_Verlauf_12-6" x1="72.65" y1="298.9" x2="198.31" y2="298.9" xlink:href="#Unbenannter_Verlauf_12"/><linearGradient id="Unbenannter_Verlauf_12-7" x1="315.27" y1="298.9" x2="440.94" y2="298.9" xlink:href="#Unbenannter_Verlauf_12"/><clipPath id="clip-path"><rect class="cls-1" x="115.97" y="187.17" width="36.34" height="7.12"/></clipPath><clipPath id="clip-path-3"><rect class="cls-1" x="361.76" y="187.17" width="36.34" height="7.12"/></clipPath><clipPath id="clip-path-5"><rect class="cls-1" x="116.42" y="321.26" width="36.34" height="7.12"/></clipPath><clipPath id="clip-path-7"><rect class="cls-1" x="359.05" y="321.26" width="36.34" height="7.12"/></clipPath><clipPath id="clip-path-9"><rect class="cls-1" x="14.93" y="453.12" width="52.6" height="10.3"/></clipPath></defs><title>SCONE-e2e</title><g id="Ebene_1" data-name="Ebene 1"><g class="cls-2"><rect class="cls-3" x="195.81" y="159.95" width="122.17" height="25.7"/></g><g class="cls-2"><rect class="cls-4" x="156.52" y="197.97" width="25.7" height="67.87"/></g><g class="cls-2"><rect class="cls-5" x="329.48" y="199.5" width="25.7" height="64.81"/></g></g><g id="Ebene_2" data-name="Ebene 2"><rect class="cls-6" x="14.96" y="103.71" width="482.44" height="339.49" rx="5"/><rect class="cls-7" x="72.19" y="129.25" width="125.66" height="71.12" rx="5"/><rect class="cls-8" x="317.99" y="129.25" width="125.66" height="71.12" rx="5"/><rect class="cls-9" x="72.65" y="263.34" width="125.66" height="71.12" rx="5"/><rect class="cls-10" x="315.27" y="263.34" width="125.66" height="71.12" rx="5"/><rect class="cls-11" x="84.97" y="149.2" width="99.26" height="27.21" rx="5"/><text class="cls-12" transform="translate(99.78 166.36)">Mic<tspan class="cls-13" x="19.7" y="0">r</tspan><tspan x="24.22" y="0">ose</tspan><tspan class="cls-14" x="41.91" y="0">r</tspan><tspan x="46.64" y="0">vice</tspan></text><g id="Scone_logo_white" data-name="Scone logo white"><g class="cls-15"><g class="cls-15"><path class="cls-16" d="M120.78,189H120a.3.3,0,0,0-.29.3V190a.3.3,0,0,0,.29.3h.76a.31.31,0,0,0,.3-.3v-.77a.31.31,0,0,0-.3-.3m-2.65,1.37h.76a.3.3,0,0,0,.3-.3v-.77a.3.3,0,0,0-.3-.3h-.76a.3.3,0,0,0-.29.3V190a.3.3,0,0,0,.29.3m-.82-.3v-.77a.3.3,0,0,0-.29-.3h-.76a.3.3,0,0,0-.29.3V190a.3.3,0,0,0,.29.3H117a.3.3,0,0,0,.29-.3m3.53.84a.22.22,0,0,0-.22.22v.9a.22.22,0,1,0,.44,0v-.9a.2.2,0,0,0-.22-.22m-2.09.29V192a.29.29,0,0,0,.29.29h.76a.29.29,0,0,0,.29-.29v-.78a.29.29,0,0,0-.29-.29H119a.29.29,0,0,0-.29.29m-.54.78v-.78a.29.29,0,0,0-.3-.29h-.76a.29.29,0,0,0-.29.29V192a.29.29,0,0,0,.29.29h.76a.29.29,0,0,0,.3-.29m2.57.83H120a.29.29,0,0,0-.29.29v.78a.29.29,0,0,0,.29.29h.76a.3.3,0,0,0,.3-.29v-.78a.3.3,0,0,0-.3-.29m-2,0h-.76a.29.29,0,0,0-.3.29v.78a.29.29,0,0,0,.3.29h.76a.29.29,0,0,0,.29-.29v-.78a.29.29,0,0,0-.29-.29"/><path class="cls-16" d="M121.7,188.67a1.77,1.77,0,0,0,1.19.36s0,0,0,.06v2.09c0,.81-1,1.31-1.21,1.44a0,0,0,0,1,0,0l0-3.92s0,0,0,0"/><path class="cls-16" d="M119.41,188.56c1.61-.05,1.87-.61,1.87-.61a.07.07,0,0,1,.07,0,.08.08,0,0,1,.08,0s.25.6,1.86.6c0,0,0,0,0,.07v2.75c0,.88-1.66,1.87-1.69,1.89s-.06,0-.06.06V194s.1,0,.14,0c.62-.33,2.35-1.28,2.35-2.45v-3.52c0-.06-.11-.1-.17-.1-2,0-2.42-.75-2.42-.75s-.09,0-.14,0-.07,0-.08,0-.34.77-2.38.77c-.07,0-.08,0-.08.09v.44s0,.1.06.1l.54,0"/><path class="cls-17" d="M125.6,193.06l.82-.31a1.12,1.12,0,0,0,1.07.62,1.19,1.19,0,0,0,.62-.15.49.49,0,0,0,.27-.44c0-.44-.6-.7-1-.88h0a3.89,3.89,0,0,1-1-.53,1.2,1.2,0,0,1-.47-1,1.32,1.32,0,0,1,.48-1,1.91,1.91,0,0,1,1.22-.41,1.78,1.78,0,0,1,1.61.88l-.85.32a.65.65,0,0,0-.29-.3,1.2,1.2,0,0,0-.47-.11c-.47,0-.79.25-.79.59a.66.66,0,0,0,.32.53,5,5,0,0,0,.73.38l.1,0c.63.27,1.41.6,1.41,1.45a1.22,1.22,0,0,1-.56,1,2.21,2.21,0,0,1-1.33.38,1.93,1.93,0,0,1-1.87-1.11"/><path class="cls-17" d="M132.86,194.16a2.68,2.68,0,0,1-1-.21,2.68,2.68,0,0,1-1.38-1.38,2.63,2.63,0,0,1,0-2,2.68,2.68,0,0,1,1.38-1.38,2.68,2.68,0,0,1,1-.21,2.52,2.52,0,0,1,1.17.28,2.59,2.59,0,0,1,.89.75l-.69.51a1.83,1.83,0,0,0-.6-.5,2,2,0,0,0-.79-.19,1.67,1.67,0,0,0-1.23.52,1.73,1.73,0,0,0,0,2.45,1.67,1.67,0,0,0,1.23.52,1.7,1.7,0,0,0,.88-.25,1.79,1.79,0,0,0,.63-.65l.75.43a2.59,2.59,0,0,1-.94.95,2.37,2.37,0,0,1-1.3.37"/><path class="cls-17" d="M138.52,194.17a2.67,2.67,0,0,1-1-.2,2.44,2.44,0,0,1-.82-.56,2.91,2.91,0,0,1-.56-.82,2.67,2.67,0,0,1-.2-1,2.5,2.5,0,0,1,.2-1,2.77,2.77,0,0,1,.56-.82,2.92,2.92,0,0,1,.82-.56,2.65,2.65,0,0,1,2,0,2.44,2.44,0,0,1,.82.56,2.77,2.77,0,0,1,.56.82,2.65,2.65,0,0,1,0,2,2.68,2.68,0,0,1-1.38,1.38,2.67,2.67,0,0,1-1,.2m0-4.35a1.67,1.67,0,0,0-1.23.52,1.73,1.73,0,0,0-.51,1.22,1.66,1.66,0,0,0,.51,1.23,1.71,1.71,0,0,0,2.46,0,1.73,1.73,0,0,0,0-2.45,1.71,1.71,0,0,0-1.23-.52"/><polygon class="cls-17" points="146.99 189.02 146.99 194.29 143.36 190.95 143.36 194.08 142.44 194.08 142.44 188.83 146.07 192.18 146.07 189.02 146.99 189.02"/><polygon class="cls-17" points="149.47 189.79 149.47 191.14 152 191.14 152 191.93 149.47 191.93 149.47 193.29 152.31 193.29 152.31 194.08 148.54 194.08 148.54 189.02 152.31 189.02 152.31 189.81 149.47 189.81 149.47 189.79"/></g></g></g><rect class="cls-11" x="330.77" y="149.2" width="99.26" height="27.21" rx="5"/><text class="cls-12" transform="translate(345.58 166.36)">Mic<tspan class="cls-13" x="19.7" y="0">r</tspan><tspan x="24.22" y="0">ose</tspan><tspan class="cls-14" x="41.91" y="0">r</tspan><tspan x="46.64" y="0">vice</tspan></text><g id="Scone_logo_white-2" data-name="Scone logo white"><g class="cls-18"><g class="cls-18"><path class="cls-16" d="M366.58,189h-.76a.3.3,0,0,0-.29.3V190a.3.3,0,0,0,.29.3h.76a.3.3,0,0,0,.29-.3v-.77a.3.3,0,0,0-.29-.3m-2.65,1.37h.76a.3.3,0,0,0,.29-.3v-.77a.3.3,0,0,0-.29-.3h-.76a.3.3,0,0,0-.29.3V190a.3.3,0,0,0,.29.3m-.82-.3v-.77a.3.3,0,0,0-.29-.3h-.76a.31.31,0,0,0-.3.3V190a.31.31,0,0,0,.3.3h.76a.3.3,0,0,0,.29-.3m3.53.84a.22.22,0,0,0-.22.22v.9a.22.22,0,0,0,.22.22.23.23,0,0,0,.22-.22v-.9a.21.21,0,0,0-.22-.22m-2.1.29V192a.3.3,0,0,0,.3.29h.76a.29.29,0,0,0,.29-.29v-.78a.29.29,0,0,0-.29-.29h-.76a.3.3,0,0,0-.3.29M364,192v-.78a.29.29,0,0,0-.29-.29H363a.29.29,0,0,0-.29.29V192a.29.29,0,0,0,.29.29h.76A.29.29,0,0,0,364,192m2.58.83h-.76a.29.29,0,0,0-.29.29v.78a.29.29,0,0,0,.29.29h.76a.29.29,0,0,0,.29-.29v-.78a.29.29,0,0,0-.29-.29m-2,0h-.76a.29.29,0,0,0-.29.29v.78a.29.29,0,0,0,.29.29h.76a.3.3,0,0,0,.3-.29v-.78a.3.3,0,0,0-.3-.29"/><path class="cls-16" d="M367.5,188.67a1.73,1.73,0,0,0,1.19.36s0,0,0,.06v2.09c0,.81-1,1.31-1.21,1.44a0,0,0,0,1,0,0v-3.92s0,0,0,0"/><path class="cls-16" d="M365.2,188.56c1.61-.05,1.88-.61,1.88-.61a.07.07,0,0,1,.07,0s.06,0,.07,0,.25.6,1.86.6c.05,0,.06,0,.06.07v2.75c0,.88-1.67,1.87-1.7,1.89s-.06,0-.06.06V194s.11,0,.15,0c.61-.33,2.34-1.28,2.34-2.45v-3.52c0-.06-.1-.1-.16-.1-2,0-2.43-.75-2.43-.75s-.09,0-.13,0-.07,0-.09,0-.33.77-2.37.77c-.07,0-.09,0-.09.09v.44s0,.1.06.1l.54,0"/><path class="cls-17" d="M371.39,193.06l.82-.31a1.13,1.13,0,0,0,1.07.62,1.2,1.2,0,0,0,.63-.15.48.48,0,0,0,.26-.44c0-.44-.6-.7-1-.88h0a4,4,0,0,1-1-.53,1.19,1.19,0,0,1-.46-1,1.29,1.29,0,0,1,.48-1,1.9,1.9,0,0,1,1.21-.41,1.76,1.76,0,0,1,1.61.88l-.84.32a.67.67,0,0,0-.3-.3,1.12,1.12,0,0,0-.47-.11c-.46,0-.79.25-.79.59a.67.67,0,0,0,.33.53,4.51,4.51,0,0,0,.73.38l.1,0c.63.27,1.4.6,1.4,1.45a1.23,1.23,0,0,1-.55,1,2.25,2.25,0,0,1-1.33.38,2,2,0,0,1-1.88-1.11"/><path class="cls-17" d="M378.65,194.16a2.68,2.68,0,0,1-1-.21,2.5,2.5,0,0,1-.82-.56,2.28,2.28,0,0,1-.55-.82,2.51,2.51,0,0,1,0-2,2.28,2.28,0,0,1,.55-.82,2.5,2.5,0,0,1,.82-.56,2.68,2.68,0,0,1,1-.21,2.49,2.49,0,0,1,1.17.28,2.72,2.72,0,0,1,.9.75l-.69.51a1.75,1.75,0,0,0-1.39-.69,1.75,1.75,0,0,0,0,3.49,1.72,1.72,0,0,0,.88-.25,1.79,1.79,0,0,0,.63-.65l.74.43a2.57,2.57,0,0,1-.93.95,2.4,2.4,0,0,1-1.31.37"/><path class="cls-17" d="M384.32,194.17a2.64,2.64,0,0,1-1-.2,2.44,2.44,0,0,1-.82-.56,2.55,2.55,0,0,1-.56-.82,2.67,2.67,0,0,1-.2-1,2.34,2.34,0,0,1,.2-1,2.44,2.44,0,0,1,.56-.82,2.78,2.78,0,0,1,.82-.56,2.64,2.64,0,0,1,1-.2,2.71,2.71,0,0,1,1,.2,2.66,2.66,0,0,1,.82.56,2.57,2.57,0,0,1,.55.82,2.6,2.6,0,0,1-.55,2.84,2.92,2.92,0,0,1-.82.56,2.71,2.71,0,0,1-1,.2m0-4.35a1.67,1.67,0,0,0-1.23.52,1.7,1.7,0,0,0-.52,1.22,1.78,1.78,0,0,0,1.75,1.75,1.72,1.72,0,0,0,1.23-.52,1.75,1.75,0,0,0-1.23-3"/><polygon class="cls-17" points="392.79 189.02 392.79 194.29 389.16 190.95 389.16 194.08 388.24 194.08 388.24 188.83 391.87 192.18 391.87 189.02 392.79 189.02"/><polygon class="cls-17" points="395.26 189.79 395.26 191.14 397.8 191.14 397.8 191.93 395.26 191.93 395.26 193.29 398.1 193.29 398.1 194.08 394.34 194.08 394.34 189.02 398.1 189.02 398.1 189.81 395.26 189.81 395.26 189.79"/></g></g></g><rect class="cls-11" x="85.43" y="283.29" width="99.26" height="27.21" rx="5"/><text class="cls-12" transform="translate(100.24 300.45)">Mic<tspan class="cls-13" x="19.7" y="0">r</tspan><tspan x="24.22" y="0">ose</tspan><tspan class="cls-14" x="41.91" y="0">r</tspan><tspan x="46.64" y="0">vice</tspan></text><g id="Scone_logo_white-3" data-name="Scone logo white"><g class="cls-19"><g class="cls-19"><path class="cls-16" d="M121.24,323.07h-.76a.3.3,0,0,0-.3.29v.78a.3.3,0,0,0,.3.29h.76a.29.29,0,0,0,.29-.29v-.78a.29.29,0,0,0-.29-.29m-2.65,1.36h.76a.29.29,0,0,0,.29-.29v-.78a.29.29,0,0,0-.29-.29h-.76a.29.29,0,0,0-.29.29v.78a.29.29,0,0,0,.29.29m-.82-.29v-.78a.29.29,0,0,0-.29-.29h-.76a.3.3,0,0,0-.3.29v.78a.3.3,0,0,0,.3.29h.76a.29.29,0,0,0,.29-.29m3.53.83a.22.22,0,0,0-.22.22v.91a.23.23,0,0,0,.22.22.24.24,0,0,0,.22-.22v-.91a.21.21,0,0,0-.22-.22m-2.1.29V326a.3.3,0,0,0,.3.29h.76a.29.29,0,0,0,.29-.29v-.78a.29.29,0,0,0-.29-.29h-.76a.3.3,0,0,0-.3.29m-.54.78v-.78a.29.29,0,0,0-.29-.29h-.76a.29.29,0,0,0-.29.29V326a.29.29,0,0,0,.29.29h.76a.29.29,0,0,0,.29-.29m2.58.83h-.76a.3.3,0,0,0-.3.3v.77a.3.3,0,0,0,.3.29h.76a.29.29,0,0,0,.29-.29v-.77a.29.29,0,0,0-.29-.3m-2,0h-.76a.29.29,0,0,0-.29.3v.77a.29.29,0,0,0,.29.29h.76a.3.3,0,0,0,.3-.29v-.77a.3.3,0,0,0-.3-.3"/><path class="cls-16" d="M122.16,322.76a1.71,1.71,0,0,0,1.19.37s0,0,0,.05v2.1c0,.8-1,1.3-1.21,1.43,0,0,0,0,0,0v-3.93s0,0,0,0"/><path class="cls-16" d="M119.86,322.66c1.61-.06,1.88-.62,1.88-.62a.07.07,0,0,1,.07,0s.06,0,.07,0,.25.6,1.86.6c.05,0,.06,0,.06.07v2.75c0,.88-1.67,1.88-1.7,1.89s-.06,0-.06.06v.69s.11,0,.15,0c.61-.34,2.34-1.29,2.34-2.46v-3.51c0-.06-.1-.11-.16-.11-2.05,0-2.43-.74-2.43-.74s-.09,0-.13,0-.07,0-.09,0-.34.78-2.37.78c-.07,0-.09,0-.09.09v.43s0,.11.06.11.54,0,.54,0"/><path class="cls-17" d="M126.05,327.15l.82-.31a1.13,1.13,0,0,0,1.07.62,1.2,1.2,0,0,0,.63-.15.48.48,0,0,0,.26-.44c0-.44-.6-.7-1-.88h0a3.64,3.64,0,0,1-1-.53,1.17,1.17,0,0,1-.46-1,1.27,1.27,0,0,1,.48-1,1.85,1.85,0,0,1,1.21-.41,1.74,1.74,0,0,1,1.61.88l-.85.32a.62.62,0,0,0-.29-.31,1.12,1.12,0,0,0-.47-.1c-.46,0-.79.25-.79.58a.67.67,0,0,0,.33.53,3.83,3.83,0,0,0,.73.38l.1,0c.63.27,1.4.6,1.4,1.45a1.22,1.22,0,0,1-.55,1,2.25,2.25,0,0,1-1.33.38,2,2,0,0,1-1.88-1.11"/><path class="cls-17" d="M133.31,328.25a2.68,2.68,0,0,1-1-.21,2.55,2.55,0,0,1-1.37-1.37,2.53,2.53,0,0,1,0-2,2.28,2.28,0,0,1,.55-.82,2.5,2.5,0,0,1,.82-.56,2.67,2.67,0,0,1,1-.2,2.49,2.49,0,0,1,1.17.28,2.58,2.58,0,0,1,.9.74l-.69.51a1.78,1.78,0,0,0-.6-.49,1.8,1.8,0,0,0-.79-.19,1.74,1.74,0,0,0-1.74,1.74,1.74,1.74,0,0,0,1.74,1.74,1.75,1.75,0,0,0,.88-.25,1.84,1.84,0,0,0,.63-.64l.74.42a2.45,2.45,0,0,1-.94.95,2.35,2.35,0,0,1-1.3.37"/><path class="cls-17" d="M139,328.26a2.64,2.64,0,0,1-1-.2,2.31,2.31,0,0,1-.82-.56,2.44,2.44,0,0,1-.56-.82,2.67,2.67,0,0,1-.2-1,2.34,2.34,0,0,1,.2-1,2.66,2.66,0,0,1,.56-.82,2.57,2.57,0,0,1,.82-.55,2.64,2.64,0,0,1,1-.21,2.73,2.73,0,0,1,1,.21,2.47,2.47,0,0,1,.82.55,2.81,2.81,0,0,1,.55.82,2.53,2.53,0,0,1,0,2,2.57,2.57,0,0,1-.55.82,2.52,2.52,0,0,1-1.83.76m0-4.34a1.66,1.66,0,0,0-1.23.51,1.71,1.71,0,0,0-.52,1.23,1.67,1.67,0,0,0,.52,1.23,1.72,1.72,0,0,0,1.23.51,1.74,1.74,0,0,0,1.74-1.74,1.74,1.74,0,0,0-1.74-1.74"/><polygon class="cls-17" points="147.45 323.11 147.45 328.38 143.82 325.04 143.82 328.18 142.9 328.18 142.9 322.92 146.53 326.27 146.53 323.11 147.45 323.11"/><polygon class="cls-17" points="149.92 323.89 149.92 325.23 152.46 325.23 152.46 326.02 149.92 326.02 149.92 327.38 152.76 327.38 152.76 328.18 149 328.18 149 323.11 152.76 323.11 152.76 323.9 149.92 323.9 149.92 323.89"/></g></g></g><path class="cls-6" d="M438.65,129.25H323a5,5,0,0,0-5,5V160H197.85v-25.7a5,5,0,0,0-5-5H77.19a5,5,0,0,0-5,5v61.12a5,5,0,0,0,5,5h79.33v63H77.65a5,5,0,0,0-5,5v61.12a5,5,0,0,0,5,5H193.31a5,5,0,0,0,5-5V268.34a5,5,0,0,0-5-5H182.22v-63h10.63a5,5,0,0,0,5-5v-9.72H318v9.72a5,5,0,0,0,5,5h6.49v63h-9.21a5,5,0,0,0-5,5v61.12a5,5,0,0,0,5,5H435.94a5,5,0,0,0,5-5V268.34a5,5,0,0,0-5-5H355.18v-63h83.47a5,5,0,0,0,5-5V134.25A5,5,0,0,0,438.65,129.25Z"/><rect class="cls-11" x="328.05" y="283.29" width="99.26" height="27.21" rx="5"/><text class="cls-12" transform="translate(342.86 300.45)">Mic<tspan class="cls-13" x="19.7" y="0">r</tspan><tspan x="24.22" y="0">ose</tspan><tspan class="cls-14" x="41.91" y="0">r</tspan><tspan x="46.64" y="0">vice</tspan></text><g id="Scone_logo_white-4" data-name="Scone logo white"><g class="cls-20"><g class="cls-20"><path class="cls-16" d="M363.86,323.07h-.76a.29.29,0,0,0-.29.29v.78a.29.29,0,0,0,.29.29h.76a.29.29,0,0,0,.3-.29v-.78a.29.29,0,0,0-.3-.29m-2.64,1.36H362a.29.29,0,0,0,.29-.29v-.78a.29.29,0,0,0-.29-.29h-.76a.29.29,0,0,0-.3.29v.78a.29.29,0,0,0,.3.29m-.82-.29v-.78a.3.3,0,0,0-.3-.29h-.76a.29.29,0,0,0-.29.29v.78a.29.29,0,0,0,.29.29h.76a.3.3,0,0,0,.3-.29m3.52.83a.23.23,0,0,0-.22.22v.91a.24.24,0,0,0,.22.22.23.23,0,0,0,.22-.22v-.91a.2.2,0,0,0-.22-.22m-2.09.29V326a.29.29,0,0,0,.29.29h.76a.29.29,0,0,0,.3-.29v-.78a.29.29,0,0,0-.3-.29h-.76a.29.29,0,0,0-.29.29m-.54.78v-.78A.29.29,0,0,0,361,325h-.76a.29.29,0,0,0-.3.29V326a.29.29,0,0,0,.3.29H361a.29.29,0,0,0,.29-.29m2.57.83h-.76a.29.29,0,0,0-.29.3v.77a.29.29,0,0,0,.29.29h.76a.29.29,0,0,0,.3-.29v-.77a.29.29,0,0,0-.3-.3m-2,0h-.76a.29.29,0,0,0-.29.3v.77a.29.29,0,0,0,.29.29h.76a.29.29,0,0,0,.29-.29v-.77a.29.29,0,0,0-.29-.3"/><path class="cls-16" d="M364.79,322.76a1.7,1.7,0,0,0,1.18.37s0,0,0,.05v2.1c0,.8-1,1.3-1.22,1.43,0,0,0,0,0,0l0-3.93s0,0,0,0"/><path class="cls-16" d="M362.49,322.66c1.61-.06,1.87-.62,1.87-.62a.09.09,0,0,1,.08,0,.07.07,0,0,1,.07,0s.25.6,1.86.6c0,0,.06,0,.06.07v2.75c0,.88-1.67,1.88-1.7,1.89s-.06,0-.06.06v.69s.1,0,.15,0c.61-.34,2.34-1.29,2.34-2.46v-3.51c0-.06-.11-.11-.16-.11-2.05,0-2.43-.74-2.43-.74s-.09,0-.13,0-.08,0-.09,0-.34.78-2.37.78c-.08,0-.09,0-.09.09v.43s0,.11.06.11.54,0,.54,0"/><path class="cls-17" d="M368.68,327.15l.82-.31a1.12,1.12,0,0,0,1.07.62,1.2,1.2,0,0,0,.63-.15.5.5,0,0,0,.26-.44c0-.44-.6-.7-1-.88h0a3.58,3.58,0,0,1-.95-.53,1.18,1.18,0,0,1-.47-1,1.28,1.28,0,0,1,.49-1,1.81,1.81,0,0,1,1.21-.41,1.74,1.74,0,0,1,1.61.88l-.85.32a.67.67,0,0,0-.29-.31,1.12,1.12,0,0,0-.47-.1c-.47,0-.79.25-.79.58a.66.66,0,0,0,.32.53,4.55,4.55,0,0,0,.73.38l.11,0c.62.27,1.4.6,1.4,1.45a1.21,1.21,0,0,1-.56,1,2.21,2.21,0,0,1-1.33.38,1.93,1.93,0,0,1-1.87-1.11"/><path class="cls-17" d="M375.94,328.25a2.68,2.68,0,0,1-1-.21,2.28,2.28,0,0,1-.82-.55,2.5,2.5,0,0,1-.56-.82,2.65,2.65,0,0,1,0-2,2.68,2.68,0,0,1,1.38-1.38,2.67,2.67,0,0,1,1-.2,2.52,2.52,0,0,1,1.17.28,2.46,2.46,0,0,1,.89.74l-.69.51a1.69,1.69,0,0,0-.6-.49,1.77,1.77,0,0,0-.79-.19,1.74,1.74,0,0,0-1.74,1.74,1.74,1.74,0,0,0,1.74,1.74,1.7,1.7,0,0,0,.88-.25,1.76,1.76,0,0,0,.63-.64l.75.42a2.45,2.45,0,0,1-.94.95,2.35,2.35,0,0,1-1.3.37"/><path class="cls-17" d="M381.6,328.26a2.67,2.67,0,0,1-1-.2,2.4,2.4,0,0,1-.82-.56,2.57,2.57,0,0,1-.55-.82,2.5,2.5,0,0,1-.21-1,2.35,2.35,0,0,1,.21-1,2.81,2.81,0,0,1,.55-.82,2.57,2.57,0,0,1,2.84-.55,2.28,2.28,0,0,1,.82.55,2.6,2.6,0,0,1,.56,2.84,2.44,2.44,0,0,1-.56.82,2.72,2.72,0,0,1-.82.56,2.67,2.67,0,0,1-1,.2m0-4.34a1.66,1.66,0,0,0-1.23.51,1.74,1.74,0,0,0-.51,1.23,1.7,1.7,0,0,0,.51,1.23,1.74,1.74,0,0,0,3-1.23,1.78,1.78,0,0,0-.51-1.23,1.74,1.74,0,0,0-1.23-.51"/><polygon class="cls-17" points="390.07 323.11 390.07 328.38 386.45 325.04 386.45 328.18 385.52 328.18 385.52 322.92 389.15 326.27 389.15 323.11 390.07 323.11"/><polygon class="cls-17" points="392.55 323.89 392.55 325.23 395.08 325.23 395.08 326.02 392.55 326.02 392.55 327.38 395.39 327.38 395.39 328.18 391.63 328.18 391.63 323.11 395.39 323.11 395.39 323.9 392.55 323.9 392.55 323.89"/></g></g></g><text class="cls-21" transform="translate(411.17 222.02)">Microservi<tspan class="cls-22" x="52.86" y="0">c</tspan><tspan x="58" y="0">e </tspan><tspan x="0" y="14.4">running inside </tspan><tspan x="0" y="28.8">encla</tspan><tspan class="cls-23" x="27.53" y="28.8">v</tspan><tspan x="33.18" y="28.8">es</tspan></text><text class="cls-21" transform="translate(70.56 463.49)">-based application</text><g id="Scone_logo_black" data-name="Scone logo black"><g class="cls-24"><g class="cls-24"><path class="cls-16" d="M21.9,455.73H20.8a.42.42,0,0,0-.42.42v1.13a.42.42,0,0,0,.42.42h1.1a.42.42,0,0,0,.43-.42v-1.13a.42.42,0,0,0-.43-.42m-3.83,2h1.1a.42.42,0,0,0,.42-.42v-1.13a.42.42,0,0,0-.42-.42h-1.1a.42.42,0,0,0-.43.42v1.13a.42.42,0,0,0,.43.42m-1.19-.42v-1.13a.42.42,0,0,0-.42-.42h-1.1a.42.42,0,0,0-.43.42v1.13a.42.42,0,0,0,.43.42h1.1a.42.42,0,0,0,.42-.42M22,458.49a.32.32,0,0,0-.32.31v1.32a.32.32,0,0,0,.32.31.31.31,0,0,0,.31-.31V458.8a.28.28,0,0,0-.31-.31m-3,.42V460a.43.43,0,0,0,.42.43h1.1a.43.43,0,0,0,.43-.43v-1.12a.42.42,0,0,0-.43-.42h-1.1a.42.42,0,0,0-.42.42M18.17,460v-1.12a.42.42,0,0,0-.42-.42h-1.1a.43.43,0,0,0-.43.42V460a.44.44,0,0,0,.43.43h1.1a.43.43,0,0,0,.42-.43m3.73,1.21H20.8a.42.42,0,0,0-.42.42v1.13a.42.42,0,0,0,.42.42h1.1a.42.42,0,0,0,.43-.42v-1.13a.42.42,0,0,0-.43-.42m-2.86,0h-1.1a.42.42,0,0,0-.42.42v1.13a.42.42,0,0,0,.42.42H19a.42.42,0,0,0,.43-.42v-1.13a.42.42,0,0,0-.43-.42"/><path class="cls-16" d="M23.24,455.29a2.53,2.53,0,0,0,1.71.53c.05,0,0,0,0,.08v3c0,1.17-1.42,1.89-1.75,2.08,0,0,0,0,0,0l0-5.67s0,0,0,0"/><path class="cls-16" d="M19.91,455.14c2.33-.09,2.71-.89,2.71-.89a.14.14,0,0,1,.11-.07s.08,0,.1.05.36.87,2.69.87c.07,0,.09,0,.09.1v4c0,1.28-2.42,2.72-2.46,2.74s-.08.06-.08.08v1s.15.06.21,0c.89-.49,3.39-1.86,3.39-3.56V454.4c0-.09-.15-.15-.23-.15-3,0-3.52-1.08-3.52-1.08s-.13,0-.19,0-.11,0-.13,0-.49,1.12-3.43,1.12c-.11,0-.13,0-.13.13V455s0,.15.09.15.78,0,.78,0"/><path d="M28.87,461.64l1.19-.44a1.61,1.61,0,0,0,1.54.89,1.74,1.74,0,0,0,.92-.22.72.72,0,0,0,.38-.63c0-.64-.87-1-1.51-1.27l0,0a5.74,5.74,0,0,1-1.38-.77,1.72,1.72,0,0,1-.67-1.39,1.88,1.88,0,0,1,.69-1.47,2.75,2.75,0,0,1,1.76-.59A2.53,2.53,0,0,1,34.08,457l-1.23.47a1,1,0,0,0-.42-.45,1.75,1.75,0,0,0-.68-.14c-.67,0-1.14.36-1.14.84a1,1,0,0,0,.47.77,6.07,6.07,0,0,0,1.05.55l.15.06c.91.38,2,.87,2,2.1a1.76,1.76,0,0,1-.81,1.5,3.24,3.24,0,0,1-1.93.55,2.81,2.81,0,0,1-2.71-1.61"/><path d="M39.38,463.23a3.81,3.81,0,0,1-1.46-.3,3.73,3.73,0,0,1-2-2,3.81,3.81,0,0,1-.3-1.46,3.85,3.85,0,0,1,.3-1.46,3.73,3.73,0,0,1,2-2,3.81,3.81,0,0,1,1.46-.3,3.69,3.69,0,0,1,1.69.4,3.9,3.9,0,0,1,1.3,1.08l-1,.75a2.42,2.42,0,0,0-.87-.72,2.66,2.66,0,0,0-1.14-.28,2.53,2.53,0,0,0-2.52,2.52,2.46,2.46,0,0,0,.74,1.78,2.41,2.41,0,0,0,1.78.74,2.49,2.49,0,0,0,1.27-.36,2.53,2.53,0,0,0,.91-.93l1.08.61a3.6,3.6,0,0,1-1.36,1.38,3.4,3.4,0,0,1-1.88.53"/><path d="M47.58,463.25a3.63,3.63,0,0,1-1.46-.3,3.42,3.42,0,0,1-1.19-.8,3.92,3.92,0,0,1-.81-1.19,3.8,3.8,0,0,1-.29-1.46,3.5,3.5,0,0,1,.29-1.46,4,4,0,0,1,.81-1.19,3.73,3.73,0,0,1,4.11-.8,3.52,3.52,0,0,1,1.19.8A4,4,0,0,1,51,458a3.85,3.85,0,0,1,.3,1.46A3.81,3.81,0,0,1,51,461a3.89,3.89,0,0,1-.8,1.19A4,4,0,0,1,49,463a3.67,3.67,0,0,1-1.46.3m0-6.29a2.41,2.41,0,0,0-1.78.74,2.5,2.5,0,0,0-.74,1.78A2.53,2.53,0,0,0,47.58,462a2.47,2.47,0,0,0,1.78-.74,2.55,2.55,0,0,0,.74-1.78,2.58,2.58,0,0,0-.74-1.78,2.55,2.55,0,0,0-1.78-.74"/><polygon points="59.84 455.8 59.84 463.42 54.59 458.59 54.59 463.12 53.26 463.12 53.26 455.52 58.51 460.37 58.51 455.8 59.84 455.8"/><polygon points="63.42 456.92 63.42 458.87 67.09 458.87 67.09 460.01 63.42 460.01 63.42 461.98 67.53 461.98 67.53 463.13 62.09 463.13 62.09 455.8 67.53 455.8 67.53 456.94 63.42 456.94 63.42 456.92"/></g></g></g><rect class="cls-25" x="33.87" y="395.8" width="93.51" height="30.61" rx="5"/><path class="cls-26" d="M80.71,403.59c.11,0,.75-.32.87-.35,1.87-1,7.1-3.9,7.1-7.45V385.11c0-.15-.06-.23-.26-.23h0a.71.71,0,0,0-.2-.06,21,21,0,0,1-2.86-.2c-3.44-.58-4.1-2.08-4.1-2.11s-.15-.06-.26-.06h-.52c-.15,0-.23-.06-.26.06s-.67,1.53-4.1,2.11a21,21,0,0,1-2.86.2.47.47,0,0,0-.2.06h0c-.21,0-.26.08-.26.23v10.68c0,3.55,5.22,6.44,7.1,7.45a5.27,5.27,0,0,0,.87.35"/><path class="cls-27" d="M76.34,392.83l3.29,3.32a.35.35,0,0,0,.3.12.51.51,0,0,0,.31-.12l4.93-5a.48.48,0,0,0,0-.54l-1.11-1.11a.4.4,0,0,0-.31-.11.53.53,0,0,0-.3.11l-3.59,3.6L78,391.19a.45.45,0,0,0-.54,0L76.3,392.3a.41.41,0,0,0,0,.53"/><text class="cls-28" transform="translate(48.24 416.24)">E<tspan class="cls-29" x="6.2" y="0">n</tspan><tspan x="12.32" y="0">c</tspan><tspan class="cls-30" x="17.43" y="0">r</tspan><tspan x="21.61" y="0">ypted file</tspan></text><rect class="cls-25" x="143.3" y="395.8" width="93.51" height="30.61" rx="5"/><path class="cls-26" d="M190.13,403.59c.12,0,.75-.32.87-.35,1.87-1,7.1-3.9,7.1-7.45V385.11c0-.15-.06-.23-.26-.23h0a.63.63,0,0,0-.2-.06,21,21,0,0,1-2.86-.2c-3.44-.58-4.1-2.08-4.1-2.11s-.14-.06-.26-.06h-.52c-.14,0-.23-.06-.26.06s-.66,1.53-4.1,2.11a21,21,0,0,1-2.86.2.51.51,0,0,0-.2.06h0c-.2,0-.26.08-.26.23v10.68c0,3.55,5.23,6.44,7.1,7.45a5.27,5.27,0,0,0,.87.35"/><path class="cls-27" d="M185.76,392.83l3.29,3.32a.37.37,0,0,0,.31.12.48.48,0,0,0,.3-.12l4.93-5a.45.45,0,0,0,0-.54l-1.11-1.11a.38.38,0,0,0-.3-.11.56.56,0,0,0-.31.11l-3.59,3.6-1.91-1.95a.45.45,0,0,0-.54,0l-1.1,1.11a.4.4,0,0,0,0,.53"/><text class="cls-28" transform="translate(157.67 416.24)">E<tspan class="cls-29" x="6.2" y="0">n</tspan><tspan x="12.32" y="0">c</tspan><tspan class="cls-30" x="17.43" y="0">r</tspan><tspan x="21.61" y="0">ypted file</tspan></text><rect class="cls-25" x="275.75" y="395.8" width="93.51" height="30.61" rx="5"/><path class="cls-26" d="M322.59,403.59c.12,0,.75-.32.87-.35,1.87-1,7.1-3.9,7.1-7.45V385.11c0-.15-.06-.23-.26-.23h0a.71.71,0,0,0-.2-.06,21,21,0,0,1-2.86-.2c-3.44-.58-4.1-2.08-4.1-2.11s-.15-.06-.26-.06h-.52c-.15,0-.23-.06-.26.06s-.67,1.53-4.1,2.11a21,21,0,0,1-2.86.2.51.51,0,0,0-.2.06h0c-.2,0-.26.08-.26.23v10.68c0,3.55,5.22,6.44,7.1,7.45a5.27,5.27,0,0,0,.87.35"/><path class="cls-27" d="M318.22,392.83l3.29,3.32a.36.36,0,0,0,.3.12.48.48,0,0,0,.31-.12l4.93-5a.48.48,0,0,0,0-.54l-1.11-1.11a.39.39,0,0,0-.3-.11.53.53,0,0,0-.31.11l-3.59,3.6-1.91-1.95a.45.45,0,0,0-.54,0l-1.11,1.11a.41.41,0,0,0,0,.53"/><text class="cls-28" transform="translate(291.13 416.24)">E<tspan class="cls-29" x="6.2" y="0">n</tspan><tspan x="12.32" y="0">c</tspan><tspan class="cls-30" x="17.43" y="0">r</tspan><tspan x="21.61" y="0">ypted file</tspan></text><rect class="cls-25" x="385.18" y="395.8" width="93.51" height="30.61" rx="5"/><path class="cls-26" d="M432,403.59c.12,0,.75-.32.87-.35,1.88-1,7.1-3.9,7.1-7.45V385.11c0-.15-.06-.23-.26-.23h0a.63.63,0,0,0-.2-.06,21,21,0,0,1-2.86-.2c-3.43-.58-4.1-2.08-4.1-2.11s-.14-.06-.26-.06h-.52c-.14,0-.23-.06-.26.06s-.66,1.53-4.1,2.11a21,21,0,0,1-2.86.2.51.51,0,0,0-.2.06h0c-.2,0-.26.08-.26.23v10.68c0,3.55,5.23,6.44,7.1,7.45a5.27,5.27,0,0,0,.87.35"/><path class="cls-27" d="M427.65,392.83l3.28,3.32a.37.37,0,0,0,.31.12.48.48,0,0,0,.3-.12l4.93-5a.45.45,0,0,0,0-.54l-1.11-1.11a.38.38,0,0,0-.3-.11.56.56,0,0,0-.31.11l-3.59,3.6-1.91-1.95a.43.43,0,0,0-.53,0l-1.11,1.11a.39.39,0,0,0,0,.53"/><text class="cls-28" transform="translate(399.55 416.24)">E<tspan class="cls-29" x="6.2" y="0">n</tspan><tspan x="12.32" y="0">c</tspan><tspan class="cls-30" x="17.43" y="0">r</tspan><tspan x="21.61" y="0">ypted file</tspan></text><path class="cls-31" d="M126.32,120.14a11.74,11.74,0,1,1-3.51,8.38,11.54,11.54,0,0,1,2.4-7.1"/><path class="cls-11" d="M134.57,134.17h-4.25c-.57,0-.8-.23-.8-.81V126.9c0-.58.23-.8.8-.8h8.46c.55,0,.77.22.77.77v6.49c0,.55-.22.78-.77.78C137.37,134.2,136,134.17,134.57,134.17Z"/><path class="cls-11" d="M130.21,125.53a4.51,4.51,0,0,1,2.64-4.13,4.21,4.21,0,0,1,5.78,2.85c.1.39.13.77.23,1.19"/><path class="cls-32" d="M133.86,131.4h0v.87c0,.16.07.23.26.23H135c.22,0,.29-.07.29-.26v-1.61a.36.36,0,0,1,.22-.38,1.22,1.22,0,0,0,.61-1.45,1.55,1.55,0,0,0-1.44-1,1.66,1.66,0,0,0-1.61.87,1.2,1.2,0,0,0,.54,1.51.42.42,0,0,1,.26.49A5.7,5.7,0,0,1,133.86,131.4Z"/><path class="cls-31" d="M372.12,120.14a11.73,11.73,0,1,1-3.52,8.38,11.54,11.54,0,0,1,2.4-7.1"/><path class="cls-11" d="M380.37,134.17h-4.25c-.58,0-.8-.23-.8-.81V126.9c0-.58.22-.8.8-.8h8.46c.54,0,.77.22.77.77v6.49c0,.55-.23.78-.77.78C383.16,134.2,381.75,134.17,380.37,134.17Z"/><path class="cls-11" d="M376,125.53a4.49,4.49,0,0,1,2.64-4.13,4.19,4.19,0,0,1,5.77,2.85c.1.39.14.77.24,1.19"/><path class="cls-32" d="M379.66,131.4h0v.87c0,.16.06.23.26.23h.83c.23,0,.29-.07.29-.26v-1.61a.35.35,0,0,1,.23-.38,1.22,1.22,0,0,0,.61-1.45,1.55,1.55,0,0,0-1.45-1,1.66,1.66,0,0,0-1.61.87,1.2,1.2,0,0,0,.55,1.51.42.42,0,0,1,.26.49A5.7,5.7,0,0,1,379.66,131.4Z"/><path class="cls-31" d="M126.78,254.23a11.73,11.73,0,1,1-3.52,8.38,11.51,11.51,0,0,1,2.4-7.09"/><path class="cls-11" d="M135,268.26h-4.24c-.58,0-.8-.22-.8-.8V261c0-.57.22-.8.8-.8h8.46c.54,0,.77.23.77.77v6.5c0,.54-.23.77-.77.77C137.82,268.29,136.41,268.26,135,268.26Z"/><path class="cls-11" d="M130.67,259.63a4.52,4.52,0,0,1,2.64-4.14,4.19,4.19,0,0,1,5.77,2.86c.1.38.14.77.24,1.18"/><path class="cls-32" d="M134.32,265.5h0v.86c0,.16.06.23.26.23h.83c.23,0,.29-.07.29-.26v-1.61a.35.35,0,0,1,.23-.38,1.21,1.21,0,0,0,.61-1.45,1.53,1.53,0,0,0-1.45-1,1.64,1.64,0,0,0-1.61.86,1.22,1.22,0,0,0,.55,1.52.41.41,0,0,1,.26.48A5.86,5.86,0,0,1,134.32,265.5Z"/><path class="cls-31" d="M369.41,254.23a11.73,11.73,0,1,1-3.52,8.38,11.51,11.51,0,0,1,2.4-7.09"/><path class="cls-11" d="M377.65,268.26h-4.24c-.58,0-.81-.22-.81-.8V261c0-.57.23-.8.81-.8h8.45c.55,0,.77.23.77.77v6.5c0,.54-.22.77-.77.77C380.45,268.29,379,268.26,377.65,268.26Z"/><path class="cls-11" d="M373.29,259.63a4.53,4.53,0,0,1,2.64-4.14,4.2,4.2,0,0,1,5.78,2.86c.1.38.13.77.23,1.18"/><path class="cls-32" d="M377,265.5h0v.86c0,.16.06.23.25.23H378c.22,0,.29-.07.29-.26v-1.61a.36.36,0,0,1,.22-.38,1.2,1.2,0,0,0,.61-1.45,1.53,1.53,0,0,0-1.44-1,1.64,1.64,0,0,0-1.61.86,1.21,1.21,0,0,0,.55,1.52.4.4,0,0,1,.25.48A4.41,4.41,0,0,1,377,265.5Z"/></g><g id="schrift"><text class="cls-33" transform="translate(363.9 231.21) scale(1.01 1)">TLS</text><text class="cls-33" transform="translate(249.28 150.05) scale(1.01 1)">TLS</text><text class="cls-33" transform="translate(130.69 231.21) scale(1.01 1)">TLS</text><line class="cls-6" x1="193.39" y1="172.8" x2="194.39" y2="172.8"/><line class="cls-34" x1="196.39" y1="172.8" x2="318.99" y2="172.8"/><line class="cls-6" x1="319.99" y1="172.8" x2="320.99" y2="172.8"/><polygon class="cls-32" points="198.03 178.53 198.99 177.5 193.93 172.8 198.99 168.1 198.03 167.08 191.87 172.8 198.03 178.53"/><polygon class="cls-32" points="316.35 178.53 315.39 177.5 320.45 172.8 315.39 168.1 316.35 167.08 322.51 172.8 316.35 178.53"/><line class="cls-6" x1="169.37" y1="189.19" x2="169.37" y2="190.19"/><line class="cls-35" x1="169.37" y1="192.15" x2="169.37" y2="269.54"/><line class="cls-6" x1="169.37" y1="270.52" x2="169.37" y2="271.52"/><polygon class="cls-32" points="163.64 193.83 164.67 194.78 169.37 189.73 174.07 194.78 175.09 193.83 169.37 187.67 163.64 193.83"/><polygon class="cls-32" points="163.64 266.88 164.67 265.92 169.37 270.98 174.07 265.92 175.09 266.88 169.37 273.04 163.64 266.88"/><line class="cls-6" x1="342.33" y1="189.19" x2="342.33" y2="190.19"/><line class="cls-35" x1="342.33" y1="192.15" x2="342.33" y2="269.54"/><line class="cls-6" x1="342.33" y1="270.52" x2="342.33" y2="271.52"/><polygon class="cls-32" points="336.61 193.83 337.63 194.78 342.33 189.73 347.03 194.78 348.06 193.83 342.33 187.67 336.61 193.83"/><polygon class="cls-32" points="336.61 266.88 337.63 265.92 342.33 270.98 347.03 265.92 348.06 266.88 342.33 273.04 336.61 266.88"/></g><g id="Ebene_4" data-name="Ebene 4"><line class="cls-36" x1="88.68" y1="84.86" x2="88.68" y2="121.36"/><polygon class="cls-27" points="82.95 89.5 83.98 90.45 88.68 85.4 93.38 90.45 94.4 89.5 88.68 83.34 82.95 89.5"/><polygon class="cls-27" points="82.95 116.72 83.98 115.77 88.68 120.82 93.38 115.77 94.4 116.72 88.68 122.88 82.95 116.72"/><text class="cls-37" transform="translate(71.36 69.49)">Client</text><path class="cls-27" d="M91.5,28.12a.77.77,0,0,1,.72.72.71.71,0,1,1-.72-.72Z"/><circle class="cls-27" cx="85.75" cy="28.84" r="0.72"/><path class="cls-38" d="M92.83,37.75V40h.88a3.65,3.65,0,0,1,.87.07,5.69,5.69,0,0,1,2.8,1.22,3.75,3.75,0,0,1,1.58,3v4.6H78.3v-4.6a3.77,3.77,0,0,1,1.57-3,5.73,5.73,0,0,1,2.8-1.22,3.78,3.78,0,0,1,.88-.07h.87V37.75"/><path class="cls-39" d="M81.08,26.75c0,1.8.07,2.59.07,4.39A7.73,7.73,0,0,0,88.63,39a7.48,7.48,0,0,0,7.55-7.47v-5"/><path class="cls-39" d="M81.08,26.68l.6-4.62c1.44-.36,8.15,3.65,11.24-1.38,0,0-.77,2.48,3.26,5.36v.64"/><path class="cls-39" d="M98.33,29a2.2,2.2,0,0,1-2.15,2.15V26.84A2.21,2.21,0,0,1,98.33,29Z"/><path class="cls-39" d="M78.93,28.48v.72A2.17,2.17,0,0,0,81.08,31V26.68A2.16,2.16,0,0,0,78.93,28.48Z"/><path class="cls-39" d="M86.54,33.51a2.54,2.54,0,0,0,2.09,1.08,2.6,2.6,0,0,0,2.08-1.08"/><path class="cls-39" d="M78.93,27.51V22.09c0-3.84,4.31-8.34,9.7-8.34s9.7,4.5,9.7,8.34v5.53"/><path class="cls-27" d="M88.63,13.75c5.39,0,9.7,4.5,9.7,8.34v5.53h-.41a2.09,2.09,0,0,1,.41,1.23A2.21,2.21,0,0,1,96.18,31v.5a7.43,7.43,0,0,1-3.41,6.25h.06V40h.88a3.65,3.65,0,0,1,.87.07,5.69,5.69,0,0,1,2.8,1.22,3.75,3.75,0,0,1,1.58,3v4.6H78.3v-4.6a3.77,3.77,0,0,1,1.57-3,5.73,5.73,0,0,1,2.8-1.22,3.78,3.78,0,0,1,.88-.07h.87V37.75h.25a8,8,0,0,1-3.52-6.61,3.24,3.24,0,0,0,0-.71,5.48,5.48,0,0,0,0,.57,2.17,2.17,0,0,1-2.15-1.8v-.72a1.94,1.94,0,0,1,.42-1h-.42V22.09c0-3.84,4.31-8.34,9.7-8.34m0-2c-6.59,0-11.7,5.56-11.7,10.34v5.42A2.44,2.44,0,0,0,77,28l0,.21a1.32,1.32,0,0,0,0,.28v.72a1.32,1.32,0,0,0,0,.28,4.07,4.07,0,0,0,2.31,3.1A10.15,10.15,0,0,0,82,38.13a7.61,7.61,0,0,0-3.38,1.57,5.74,5.74,0,0,0-2.34,4.59v4.6a2,2,0,0,0,2,2H99a2,2,0,0,0,2-2v-4.6a5.74,5.74,0,0,0-2.34-4.59,7.55,7.55,0,0,0-3.2-1.53,9.37,9.37,0,0,0,2.7-5.68,4.19,4.19,0,0,0,2.21-3.65,4.37,4.37,0,0,0-.06-.72,2.07,2.07,0,0,0,.06-.5V22.09c0-4.78-5.11-10.34-11.7-10.34Z"/><line class="cls-36" x1="177.92" y1="84.86" x2="177.92" y2="121.36"/><polygon class="cls-27" points="172.2 89.5 173.22 90.45 177.92 85.4 182.62 90.45 183.65 89.5 177.92 83.34 172.2 89.5"/><polygon class="cls-27" points="172.2 116.72 173.22 115.77 177.92 120.82 182.62 115.77 183.65 116.72 177.92 122.88 172.2 116.72"/><text class="cls-37" transform="translate(160.6 69.49)">Client</text><path class="cls-27" d="M180.75,28.12a.77.77,0,0,1,.72.72.72.72,0,1,1-.72-.72Z"/><circle class="cls-27" cx="175" cy="28.84" r="0.72"/><path class="cls-38" d="M182.08,37.75V40H183a3.78,3.78,0,0,1,.88.07,5.73,5.73,0,0,1,2.8,1.22,3.77,3.77,0,0,1,1.57,3v4.6H167.54v-4.6a3.75,3.75,0,0,1,1.58-3,5.73,5.73,0,0,1,2.8-1.22,3.65,3.65,0,0,1,.87-.07h.88V37.75"/><path class="cls-39" d="M170.33,26.75c0,1.8.07,2.59.07,4.39A7.73,7.73,0,0,0,177.87,39a7.48,7.48,0,0,0,7.55-7.47v-5"/><path class="cls-39" d="M170.33,26.68l.6-4.62c1.43-.36,8.15,3.65,11.24-1.38,0,0-.78,2.48,3.25,5.36v.64"/><path class="cls-39" d="M187.58,29a2.21,2.21,0,0,1-2.16,2.15V26.84A2.22,2.22,0,0,1,187.58,29Z"/><path class="cls-39" d="M168.17,28.48v.72a2.18,2.18,0,0,0,2.16,1.8V26.68A2.17,2.17,0,0,0,168.17,28.48Z"/><path class="cls-39" d="M175.79,33.51a2.51,2.51,0,0,0,2.08,1.08A2.62,2.62,0,0,0,180,33.51"/><path class="cls-39" d="M168.17,27.51V22.09c0-3.84,4.31-8.34,9.7-8.34s9.71,4.5,9.71,8.34v5.53"/><path class="cls-27" d="M177.87,13.75c5.39,0,9.71,4.5,9.71,8.34v5.53h-.41a2.16,2.16,0,0,1,.41,1.23A2.22,2.22,0,0,1,185.42,31v.5a7.42,7.42,0,0,1-3.4,6.25h.06V40H183a3.78,3.78,0,0,1,.88.07,5.73,5.73,0,0,1,2.8,1.22,3.77,3.77,0,0,1,1.57,3v4.6H167.54v-4.6a3.75,3.75,0,0,1,1.58-3,5.73,5.73,0,0,1,2.8-1.22,3.65,3.65,0,0,1,.87-.07h.88V37.75h.25a8,8,0,0,1-3.52-6.61,4.52,4.52,0,0,0,0-.71,5.48,5.48,0,0,0,0,.57,2.18,2.18,0,0,1-2.16-1.8v-.72a2,2,0,0,1,.43-1h-.43V22.09c0-3.84,4.31-8.34,9.7-8.34m0-2c-6.59,0-11.7,5.56-11.7,10.34v5.42a1.86,1.86,0,0,0,.06.48,1.55,1.55,0,0,0,0,.21,2.64,2.64,0,0,0,0,.28v.72a2.64,2.64,0,0,0,0,.28,4.1,4.1,0,0,0,2.32,3.1,10.14,10.14,0,0,0,2.75,5.55,7.67,7.67,0,0,0-3.38,1.57,5.74,5.74,0,0,0-2.34,4.59v4.6a2,2,0,0,0,2,2H188.2a2,2,0,0,0,2-2v-4.6a5.74,5.74,0,0,0-2.34-4.59,7.55,7.55,0,0,0-3.2-1.53,9.44,9.44,0,0,0,2.71-5.68,4.21,4.21,0,0,0,2.21-3.65,4.39,4.39,0,0,0-.07-.72,2.08,2.08,0,0,0,.07-.5V22.09c0-4.78-5.12-10.34-11.71-10.34Z"/><line class="cls-36" x1="338.01" y1="84.86" x2="338.01" y2="121.36"/><polygon class="cls-27" points="332.29 89.5 333.31 90.45 338.01 85.4 342.71 90.45 343.74 89.5 338.01 83.34 332.29 89.5"/><polygon class="cls-27" points="332.29 116.72 333.31 115.77 338.01 120.82 342.71 115.77 343.74 116.72 338.01 122.88 332.29 116.72"/><text class="cls-37" transform="translate(320.69 69.49)">Client</text><path class="cls-27" d="M340.84,28.12a.77.77,0,0,1,.72.72.72.72,0,1,1-.72-.72Z"/><circle class="cls-27" cx="335.09" cy="28.84" r="0.72"/><path class="cls-38" d="M342.17,37.75V40H343a3.78,3.78,0,0,1,.88.07,5.73,5.73,0,0,1,2.8,1.22,3.77,3.77,0,0,1,1.57,3v4.6H327.63v-4.6a3.75,3.75,0,0,1,1.58-3,5.69,5.69,0,0,1,2.8-1.22,3.65,3.65,0,0,1,.87-.07h.88V37.75"/><path class="cls-39" d="M330.41,26.75c0,1.8.08,2.59.08,4.39A7.73,7.73,0,0,0,338,39a7.48,7.48,0,0,0,7.55-7.47v-5"/><path class="cls-39" d="M330.41,26.68l.6-4.62c1.44-.36,8.16,3.65,11.25-1.38,0,0-.78,2.48,3.25,5.36v.64"/><path class="cls-39" d="M347.66,29a2.2,2.2,0,0,1-2.15,2.15V26.84A2.21,2.21,0,0,1,347.66,29Z"/><path class="cls-39" d="M328.26,28.48v.72a2.18,2.18,0,0,0,2.15,1.8V26.68A2.17,2.17,0,0,0,328.26,28.48Z"/><path class="cls-39" d="M335.88,33.51A2.51,2.51,0,0,0,338,34.59a2.64,2.64,0,0,0,2.09-1.08"/><path class="cls-39" d="M328.26,27.51V22.09c0-3.84,4.31-8.34,9.7-8.34s9.7,4.5,9.7,8.34v5.53"/><path class="cls-27" d="M338,13.75c5.39,0,9.7,4.5,9.7,8.34v5.53h-.4a2.15,2.15,0,0,1,.4,1.23A2.21,2.21,0,0,1,345.51,31v.5a7.42,7.42,0,0,1-3.4,6.25h.06V40H343a3.78,3.78,0,0,1,.88.07,5.73,5.73,0,0,1,2.8,1.22,3.77,3.77,0,0,1,1.57,3v4.6H327.63v-4.6a3.75,3.75,0,0,1,1.58-3,5.69,5.69,0,0,1,2.8-1.22,3.65,3.65,0,0,1,.87-.07h.88V37.75H334a8,8,0,0,1-3.52-6.61,4.52,4.52,0,0,0,0-.71,3.66,3.66,0,0,0-.05.57,2.18,2.18,0,0,1-2.16-1.8v-.72a1.87,1.87,0,0,1,.43-1h-.43V22.09c0-3.84,4.31-8.34,9.7-8.34m0-2c-6.59,0-11.7,5.56-11.7,10.34v5.42a2.44,2.44,0,0,0,.05.48l0,.21a2.64,2.64,0,0,0,0,.28v.72a2.64,2.64,0,0,0,0,.28,4.1,4.1,0,0,0,2.32,3.1,10.14,10.14,0,0,0,2.75,5.55A7.61,7.61,0,0,0,328,39.7a5.74,5.74,0,0,0-2.34,4.59v4.6a2,2,0,0,0,2,2h20.66a2,2,0,0,0,2-2v-4.6A5.74,5.74,0,0,0,348,39.7a7.55,7.55,0,0,0-3.2-1.53,9.44,9.44,0,0,0,2.71-5.68,4.2,4.2,0,0,0,2.2-3.65,4.37,4.37,0,0,0-.06-.72,2.07,2.07,0,0,0,.06-.5V22.09c0-4.78-5.11-10.34-11.7-10.34Z"/><line class="cls-36" x1="427.26" y1="84.86" x2="427.26" y2="121.36"/><polygon class="cls-27" points="421.53 89.5 422.56 90.45 427.25 85.4 431.95 90.45 432.98 89.5 427.25 83.34 421.53 89.5"/><polygon class="cls-27" points="421.53 116.72 422.56 115.77 427.25 120.82 431.95 115.77 432.98 116.72 427.25 122.88 421.53 116.72"/><line class="cls-40" x1="432.09" y1="335.83" x2="432.09" y2="372.85"/><polygon class="cls-27" points="426.36 368.21 427.38 367.26 432.08 372.31 436.79 367.26 437.81 368.21 432.08 374.37 426.36 368.21"/><line class="cls-40" x1="322.62" y1="335.83" x2="322.62" y2="372.85"/><polygon class="cls-27" points="316.89 368.21 317.92 367.26 322.62 372.31 327.32 367.26 328.34 368.21 322.62 374.37 316.89 368.21"/><line class="cls-40" x1="190.21" y1="335.83" x2="190.21" y2="372.85"/><polygon class="cls-27" points="184.49 368.21 185.51 367.26 190.21 372.31 194.91 367.26 195.94 368.21 190.21 374.37 184.49 368.21"/><line class="cls-40" x1="80.75" y1="335.83" x2="80.75" y2="372.85"/><polygon class="cls-27" points="75.02 368.21 76.05 367.26 80.74 372.31 85.44 367.26 86.47 368.21 80.74 374.37 75.02 368.21"/><text class="cls-37" transform="translate(409.94 69.49)">Client</text><path class="cls-27" d="M430.08,28.12a.77.77,0,0,1,.72.72.71.71,0,1,1-.72-.72Z"/><circle class="cls-27" cx="424.33" cy="28.84" r="0.72"/><path class="cls-38" d="M431.41,37.75V40h.88a3.65,3.65,0,0,1,.87.07,5.73,5.73,0,0,1,2.8,1.22,3.78,3.78,0,0,1,1.58,3v4.6H416.87v-4.6a3.78,3.78,0,0,1,1.58-3,5.73,5.73,0,0,1,2.8-1.22,3.69,3.69,0,0,1,.88-.07H423V37.75"/><path class="cls-39" d="M419.66,26.75c0,1.8.07,2.59.07,4.39A7.73,7.73,0,0,0,427.21,39a7.48,7.48,0,0,0,7.54-7.47v-5"/><path class="cls-39" d="M419.66,26.68l.6-4.62c1.44-.36,8.15,3.65,11.24-1.38,0,0-.77,2.48,3.25,5.36v.64"/><path class="cls-39" d="M436.91,29a2.21,2.21,0,0,1-2.16,2.15V26.84A2.22,2.22,0,0,1,436.91,29Z"/><path class="cls-39" d="M417.5,28.48v.72a2.19,2.19,0,0,0,2.16,1.8V26.68A2.18,2.18,0,0,0,417.5,28.48Z"/><path class="cls-39" d="M425.12,33.51a2.51,2.51,0,0,0,2.09,1.08,2.6,2.6,0,0,0,2.08-1.08"/><path class="cls-39" d="M417.5,27.51V22.09c0-3.84,4.31-8.34,9.71-8.34s9.7,4.5,9.7,8.34v5.53"/><path class="cls-27" d="M427.21,13.75c5.39,0,9.7,4.5,9.7,8.34v5.53h-.41a2.16,2.16,0,0,1,.41,1.23A2.22,2.22,0,0,1,434.75,31v.5a7.42,7.42,0,0,1-3.4,6.25h.06V40h.87a3.69,3.69,0,0,1,.88.07,5.73,5.73,0,0,1,2.8,1.22,3.78,3.78,0,0,1,1.58,3v4.6H416.87v-4.6a3.78,3.78,0,0,1,1.58-3,5.73,5.73,0,0,1,2.8-1.22,3.69,3.69,0,0,1,.88-.07H423V37.75h.25a8,8,0,0,1-3.52-6.61,4.52,4.52,0,0,0,0-.71,5.48,5.48,0,0,0,0,.57,2.19,2.19,0,0,1-2.16-1.8v-.72a2,2,0,0,1,.43-1h-.43V22.09c0-3.84,4.32-8.34,9.71-8.34m0-2c-6.6,0-11.71,5.56-11.71,10.34v5.42a1.86,1.86,0,0,0,.06.48,1.55,1.55,0,0,0,0,.21,2.64,2.64,0,0,0,0,.28v.72a2.64,2.64,0,0,0,0,.28,4.1,4.1,0,0,0,2.32,3.1,10.08,10.08,0,0,0,2.76,5.55,7.61,7.61,0,0,0-3.38,1.57,5.75,5.75,0,0,0-2.35,4.59v4.6a2,2,0,0,0,2,2h20.67a2,2,0,0,0,2-2v-4.6a5.75,5.75,0,0,0-2.35-4.59A7.51,7.51,0,0,0,434,38.17a9.43,9.43,0,0,0,2.7-5.68,4.21,4.21,0,0,0,2.21-3.65,3.51,3.51,0,0,0-.07-.72,1.68,1.68,0,0,0,.07-.5V22.09c0-4.78-5.11-10.34-11.7-10.34Z"/></g></svg>