<?xml version="1.0" encoding="utf-8"?>
<!-- Generator: Adobe Illustrator 24.0.0, SVG Export Plug-In . SVG Version: 6.00 Build 0)  -->
<svg version="1.1" id="Ebene_1" xmlns="http://www.w3.org/2000/svg" xmlns:xlink="http://www.w3.org/1999/xlink" x="0px" y="0px"
	 viewBox="0 0 267.9 263.5" style="enable-background:new 0 0 267.9 263.5;" xml:space="preserve">
<style type="text/css">
	.st0{opacity:0.2;fill:#FFCC99;enable-background:new    ;}
	.st1{fill:none;stroke:#CC3300;stroke-width:2;stroke-miterlimit:10;stroke-dasharray:2,2;}
	.st2{enable-background:new    ;}
	.st3{fill:#330066;}
	.st4{fill:none;stroke:#FF6633;stroke-width:2;stroke-linecap:round;stroke-linejoin:round;}
	.st5{fill:#FF6633;}
	.st6{fill:#FFFFFF;}
	.st7{fill:none;stroke:#330066;stroke-width:2;stroke-miterlimit:10;}
	.st8{fill:none;stroke:#FFCC00;stroke-width:2;stroke-linecap:round;stroke-linejoin:round;}
	.st9{fill:#FFCC00;}
	.st10{fill:#FFFFFF;stroke:#330066;stroke-width:2;stroke-linecap:round;stroke-linejoin:round;}
	.st11{fill:none;stroke:#330066;stroke-width:2;stroke-linecap:round;stroke-linejoin:round;}
	.st12{clip-path:url(#SVGID_2_);}
	.st13{clip-path:url(#SVGID_4_);}
	.st14{fill:#FFD138;}
</style>
<g id="Ebene_2_1_">
	<path class="st0" d="M22.5,51.7h222.9c2.8,0,5,2.2,5,5v162.4c0,2.8-2.2,5-5,5H22.5c-2.8,0-5-2.2-5-5V56.7
		C17.5,54,19.7,51.7,22.5,51.7z"/>
	<path class="st1" d="M22.5,51.7h222.9c2.8,0,5,2.2,5,5v162.4c0,2.8-2.2,5-5,5H22.5c-2.8,0-5-2.2-5-5V56.7
		C17.5,54,19.7,51.7,22.5,51.7z"/>
	<g class="st2">
		<path class="st3" d="M40.5,241.6v1l-0.9,0.2v4.5c0,0.6,0.2,1,0.5,1.3s0.7,0.4,1.2,0.4c0.5,0,1-0.1,1.3-0.4s0.5-0.7,0.5-1.3v-4.5
			l-0.9-0.2v-1h3.5v1l-0.9,0.2v4.5c0,1-0.3,1.7-0.9,2.2s-1.5,0.8-2.5,0.8c-1,0-1.8-0.3-2.5-0.8s-0.9-1.3-0.9-2.2v-4.5l-0.9-0.2v-1
			h0.9h1.7H40.5z"/>
		<path class="st3" d="M46,249.1l0.8-0.2V245l-0.9-0.2v-1h2.5l0.1,0.9c0.2-0.3,0.5-0.6,0.8-0.8s0.7-0.3,1-0.3c0.6,0,1.1,0.2,1.5,0.6
			s0.5,1,0.5,1.9v2.8l0.8,0.2v1h-3.3v-1l0.7-0.2v-2.8c0-0.4-0.1-0.7-0.3-0.9S50,245,49.6,245c-0.2,0-0.4,0-0.6,0.1s-0.3,0.2-0.5,0.4
			v3.4l0.7,0.2v1H46V249.1z"/>
		<path class="st3" d="M56.3,242.3v1.6h1.1v1.2h-1.1v3.2c0,0.2,0.1,0.4,0.2,0.5s0.2,0.2,0.4,0.2c0.1,0,0.2,0,0.3,0s0.2,0,0.3,0
			l0.1,1.2c-0.2,0.1-0.4,0.1-0.6,0.1s-0.4,0-0.6,0c-0.6,0-1-0.2-1.4-0.5s-0.5-0.8-0.5-1.5V245h-0.9v-1.2h0.9v-1.6H56.3z"/>
		<path class="st3" d="M58.4,249.1l0.8-0.2V245l-0.9-0.2v-1h2.5l0.1,0.9c0.1-0.3,0.3-0.6,0.6-0.8s0.5-0.3,0.8-0.3c0.1,0,0.2,0,0.3,0
			s0.2,0,0.2,0l-0.2,1.6l-0.7,0c-0.3,0-0.5,0-0.6,0.1s-0.3,0.2-0.4,0.4v3.1l0.8,0.2v1h-3.4V249.1z"/>
		<path class="st3" d="M67.7,249.3c-0.2,0.3-0.5,0.5-0.8,0.7s-0.6,0.2-1,0.2c-0.7,0-1.2-0.2-1.6-0.6s-0.6-1.1-0.6-2V245l-0.7-0.2v-1
			h0.7h1.7v3.8c0,0.5,0.1,0.8,0.2,1s0.4,0.3,0.7,0.3c0.3,0,0.5,0,0.7-0.1s0.4-0.2,0.5-0.4V245l-0.8-0.2v-1h0.8h1.7v5.1l0.8,0.2v1
			h-2.3L67.7,249.3z"/>
		<path class="st3" d="M76,246h-1.1l-0.2-0.8c-0.1-0.1-0.3-0.2-0.4-0.2s-0.4-0.1-0.6-0.1c-0.3,0-0.5,0.1-0.7,0.2s-0.3,0.3-0.3,0.5
			c0,0.2,0.1,0.4,0.3,0.5s0.5,0.2,1,0.3c0.8,0.2,1.4,0.4,1.7,0.7s0.6,0.7,0.6,1.3c0,0.6-0.2,1-0.7,1.4s-1.1,0.5-1.9,0.5
			c-0.5,0-0.9-0.1-1.3-0.2s-0.8-0.3-1.1-0.6l0-1.4h1.2l0.2,0.8c0.1,0.1,0.2,0.1,0.4,0.2s0.4,0.1,0.6,0.1c0.3,0,0.6-0.1,0.8-0.2
			s0.3-0.3,0.3-0.5c0-0.2-0.1-0.3-0.3-0.5s-0.5-0.3-1-0.4c-0.7-0.2-1.3-0.4-1.7-0.7s-0.6-0.7-0.6-1.2c0-0.5,0.2-1,0.7-1.4
			s1.1-0.6,1.9-0.6c0.5,0,1,0.1,1.4,0.2s0.8,0.3,1,0.5L76,246z"/>
		<path class="st3" d="M79.5,242.3v1.6h1.1v1.2h-1.1v3.2c0,0.2,0.1,0.4,0.2,0.5s0.2,0.2,0.4,0.2c0.1,0,0.2,0,0.3,0s0.2,0,0.3,0
			l0.1,1.2c-0.2,0.1-0.4,0.1-0.6,0.1s-0.4,0-0.6,0c-0.6,0-1-0.2-1.4-0.5s-0.5-0.8-0.5-1.5V245h-0.9v-1.2h0.9v-1.6H79.5z"/>
		<path class="st3" d="M84.5,250.3c-0.9,0-1.6-0.3-2.2-0.9s-0.8-1.3-0.8-2.2v-0.2c0-0.9,0.3-1.7,0.8-2.3s1.2-0.9,2.1-0.9
			c0.9,0,1.5,0.3,2,0.8s0.7,1.2,0.7,2.1v0.9h-3.8l0,0c0,0.4,0.2,0.8,0.4,1s0.6,0.4,1,0.4c0.4,0,0.7,0,0.9-0.1s0.5-0.2,0.8-0.4
			l0.5,1.1c-0.3,0.2-0.6,0.4-1,0.5S85,250.3,84.5,250.3z M84.3,245c-0.3,0-0.6,0.1-0.8,0.4s-0.3,0.6-0.3,1l0,0h2.1v-0.2
			c0-0.4-0.1-0.7-0.3-0.9S84.7,245,84.3,245z"/>
		<path class="st3" d="M91.9,249.4c-0.2,0.3-0.4,0.5-0.7,0.7s-0.6,0.2-0.9,0.2c-0.8,0-1.4-0.3-1.8-0.9s-0.6-1.3-0.6-2.3V247
			c0-1,0.2-1.8,0.7-2.4s1-0.9,1.8-0.9c0.3,0,0.6,0.1,0.9,0.2s0.5,0.3,0.7,0.6v-2.3l-0.9-0.2v-1h0.9h1.7v7.9l0.8,0.2v1h-2.3
			L91.9,249.4z M89.6,247.2c0,0.6,0.1,1,0.3,1.3s0.5,0.5,0.9,0.5c0.3,0,0.5-0.1,0.7-0.2s0.3-0.2,0.5-0.4v-2.7
			c-0.1-0.2-0.3-0.4-0.4-0.5S91,245,90.8,245c-0.4,0-0.7,0.2-0.9,0.6s-0.3,0.9-0.3,1.5V247.2z"/>
		<path class="st3" d="M97.8,242.6v-1h3.5v1l-0.9,0.2v2.5h3.5v-2.5l-0.9-0.2v-1h0.9h1.7h0.9v1l-0.9,0.2v6.1l0.9,0.2v1H103v-1
			l0.9-0.2v-2.3h-3.5v2.3l0.9,0.2v1h-3.5v-1l0.9-0.2v-6.1L97.8,242.6z"/>
		<path class="st3" d="M107.2,246.9c0-0.9,0.3-1.7,0.8-2.3s1.3-0.9,2.2-0.9c0.9,0,1.7,0.3,2.2,0.9s0.8,1.4,0.8,2.3v0.1
			c0,1-0.3,1.7-0.8,2.3s-1.3,0.9-2.2,0.9c-0.9,0-1.7-0.3-2.2-0.9s-0.8-1.4-0.8-2.3V246.9z M109,247c0,0.6,0.1,1,0.3,1.4
			s0.5,0.5,1,0.5c0.4,0,0.8-0.2,1-0.5s0.3-0.8,0.3-1.4v-0.1c0-0.6-0.1-1-0.3-1.4s-0.5-0.5-1-0.5s-0.8,0.2-1,0.5s-0.3,0.8-0.3,1.4
			V247z"/>
		<path class="st3" d="M119.1,246H118l-0.2-0.8c-0.1-0.1-0.3-0.2-0.4-0.2s-0.4-0.1-0.6-0.1c-0.3,0-0.5,0.1-0.7,0.2s-0.3,0.3-0.3,0.5
			c0,0.2,0.1,0.4,0.3,0.5s0.5,0.2,1,0.3c0.8,0.2,1.4,0.4,1.7,0.7s0.6,0.7,0.6,1.3c0,0.6-0.2,1-0.7,1.4s-1.1,0.5-1.9,0.5
			c-0.5,0-0.9-0.1-1.3-0.2s-0.8-0.3-1.1-0.6l0-1.4h1.2l0.2,0.8c0.1,0.1,0.2,0.1,0.4,0.2s0.4,0.1,0.6,0.1c0.3,0,0.6-0.1,0.8-0.2
			s0.3-0.3,0.3-0.5c0-0.2-0.1-0.3-0.3-0.5s-0.5-0.3-1-0.4c-0.7-0.2-1.3-0.4-1.7-0.7s-0.6-0.7-0.6-1.2c0-0.5,0.2-1,0.7-1.4
			s1.1-0.6,1.9-0.6c0.5,0,1,0.1,1.4,0.2s0.8,0.3,1,0.5L119.1,246z"/>
		<path class="st3" d="M122.7,242.3v1.6h1.1v1.2h-1.1v3.2c0,0.2,0.1,0.4,0.2,0.5s0.2,0.2,0.4,0.2c0.1,0,0.2,0,0.3,0s0.2,0,0.3,0
			l0.1,1.2c-0.2,0.1-0.4,0.1-0.6,0.1s-0.4,0-0.6,0c-0.6,0-1-0.2-1.4-0.5s-0.5-0.8-0.5-1.5V245H120v-1.2h0.9v-1.6H122.7z"/>
		<path class="st3" d="M125.4,250.9h-1.3l3.1-9.3h1.3L125.4,250.9z"/>
		<path class="st3" d="M132,242.6l-0.7,0.1l1.5,5.1l0.1,0.5h0l0.1-0.5l1.5-5.1l-0.6-0.1v-1h3.1v1l-0.7,0.1l-2.5,7.4h-1.8l-2.5-7.4
			l-0.7-0.1v-1h3.1V242.6z"/>
		<path class="st3" d="M145.8,243.8L145.8,243.8l-2.3,6.3h-1.1l-2.3-6.3l0,0l0.2,3.7v1.3l0.9,0.2v1h-3.5v-1l0.9-0.2v-6.1l-0.9-0.2
			v-1h0.9h2.2l2.2,6.3h0l2.2-6.3h3.2v1l-0.9,0.2v6.1l0.9,0.2v1h-3.5v-1l0.9-0.2v-1.3L145.8,243.8z"/>
		<path class="st3" d="M149.7,250.9h-1.3l3.1-9.3h1.3L149.7,250.9z"/>
		<path class="st3" d="M160.2,244.5H159l-0.2-1.1c-0.2-0.2-0.4-0.3-0.6-0.4s-0.6-0.1-0.9-0.1c-0.7,0-1.3,0.3-1.7,0.8
			s-0.6,1.2-0.6,2.1v0.3c0,0.9,0.2,1.6,0.6,2.1s1,0.8,1.7,0.8c0.3,0,0.6,0,0.9-0.1s0.5-0.2,0.6-0.4l0.2-1.1h1.3v1.7
			c-0.3,0.4-0.8,0.7-1.3,1s-1.1,0.4-1.8,0.4c-1.1,0-2.1-0.4-2.8-1.2s-1.1-1.8-1.1-3.1v-0.3c0-1.2,0.4-2.3,1.1-3.1s1.7-1.2,2.8-1.2
			c0.7,0,1.3,0.1,1.8,0.4s1,0.6,1.3,1V244.5z"/>
		<path class="st3" d="M161.1,246.9c0-0.9,0.3-1.7,0.8-2.3s1.3-0.9,2.2-0.9c0.9,0,1.7,0.3,2.2,0.9s0.8,1.4,0.8,2.3v0.1
			c0,1-0.3,1.7-0.8,2.3s-1.3,0.9-2.2,0.9c-0.9,0-1.7-0.3-2.2-0.9s-0.8-1.4-0.8-2.3V246.9z M162.8,247c0,0.6,0.1,1,0.3,1.4
			s0.5,0.5,1,0.5c0.4,0,0.8-0.2,1-0.5s0.3-0.8,0.3-1.4v-0.1c0-0.6-0.1-1-0.3-1.4s-0.5-0.5-1-0.5s-0.8,0.2-1,0.5s-0.3,0.8-0.3,1.4
			V247z"/>
		<path class="st3" d="M167.7,249.1l0.8-0.2V245l-0.9-0.2v-1h2.5l0.1,0.9c0.2-0.3,0.5-0.6,0.8-0.8s0.7-0.3,1-0.3
			c0.6,0,1.1,0.2,1.5,0.6s0.5,1,0.5,1.9v2.8l0.8,0.2v1h-3.3v-1l0.7-0.2v-2.8c0-0.4-0.1-0.7-0.3-0.9s-0.4-0.3-0.8-0.3
			c-0.2,0-0.4,0-0.6,0.1s-0.3,0.2-0.5,0.4v3.4l0.7,0.2v1h-3.2V249.1z"/>
		<path class="st3" d="M177.9,242.3v1.6h1.1v1.2h-1.1v3.2c0,0.2,0.1,0.4,0.2,0.5s0.2,0.2,0.4,0.2c0.1,0,0.2,0,0.3,0s0.2,0,0.3,0
			l0.1,1.2c-0.2,0.1-0.4,0.1-0.6,0.1s-0.4,0-0.6,0c-0.6,0-1-0.2-1.4-0.5s-0.5-0.8-0.5-1.5V245h-0.9v-1.2h0.9v-1.6H177.9z"/>
		<path class="st3" d="M183.9,250.1c0-0.1-0.1-0.2-0.1-0.3s-0.1-0.2-0.1-0.3c-0.2,0.2-0.5,0.4-0.7,0.6s-0.6,0.2-1,0.2
			c-0.6,0-1.1-0.2-1.5-0.5s-0.5-0.8-0.5-1.4c0-0.6,0.2-1.1,0.7-1.4s1.2-0.5,2.1-0.5h0.9v-0.6c0-0.3-0.1-0.5-0.3-0.7
			s-0.4-0.3-0.8-0.3c-0.2,0-0.4,0-0.5,0.1s-0.3,0.1-0.4,0.2l-0.1,0.7h-1.3l0-1.4c0.3-0.2,0.7-0.4,1.1-0.5s0.8-0.2,1.3-0.2
			c0.8,0,1.4,0.2,1.9,0.6s0.7,0.9,0.7,1.6v2.6c0,0.1,0,0.2,0,0.3s0,0.2,0,0.2l0.5,0.1v1H183.9z M182.4,249c0.3,0,0.5-0.1,0.7-0.2
			s0.4-0.3,0.5-0.4v-1h-0.9c-0.4,0-0.6,0.1-0.8,0.3s-0.3,0.4-0.3,0.6c0,0.2,0.1,0.4,0.2,0.5S182.2,249,182.4,249z"/>
		<path class="st3" d="M186.4,249.1l0.8-0.2V245l-0.9-0.2v-1h2.6v5.1l0.8,0.2v1h-3.4V249.1z M189,242.3h-1.7V241h1.7V242.3z"/>
	</g>
	<g class="st2">
		<path class="st3" d="M190.3,249.1l0.8-0.2V245l-0.9-0.2v-1h2.5l0.1,0.9c0.2-0.3,0.5-0.6,0.8-0.8s0.7-0.3,1-0.3
			c0.6,0,1.1,0.2,1.5,0.6s0.5,1,0.5,1.9v2.8l0.8,0.2v1h-3.3v-1l0.7-0.2v-2.8c0-0.4-0.1-0.7-0.3-0.9s-0.4-0.3-0.8-0.3
			c-0.2,0-0.4,0-0.6,0.1s-0.3,0.2-0.5,0.4v3.4l0.7,0.2v1h-3.2V249.1z"/>
	</g>
	<g class="st2">
		<path class="st3" d="M200.9,250.3c-0.9,0-1.6-0.3-2.2-0.9s-0.8-1.3-0.8-2.2v-0.2c0-0.9,0.3-1.7,0.8-2.3s1.2-0.9,2.1-0.9
			c0.9,0,1.5,0.3,2,0.8s0.7,1.2,0.7,2.1v0.9h-3.8l0,0c0,0.4,0.2,0.8,0.4,1s0.6,0.4,1,0.4c0.4,0,0.7,0,0.9-0.1s0.5-0.2,0.8-0.4
			l0.5,1.1c-0.3,0.2-0.6,0.4-1,0.5S201.5,250.3,200.9,250.3z M200.8,245c-0.3,0-0.6,0.1-0.8,0.4s-0.3,0.6-0.3,1l0,0h2.1v-0.2
			c0-0.4-0.1-0.7-0.3-0.9S201.1,245,200.8,245z"/>
		<path class="st3" d="M204.4,249.1l0.8-0.2V245l-0.9-0.2v-1h2.5l0.1,0.9c0.1-0.3,0.3-0.6,0.6-0.8s0.5-0.3,0.8-0.3
			c0.1,0,0.2,0,0.3,0s0.2,0,0.2,0l-0.2,1.6l-0.7,0c-0.3,0-0.5,0-0.6,0.1s-0.3,0.2-0.4,0.4v3.1l0.8,0.2v1h-3.4V249.1z"/>
	</g>
	<path class="st4" d="M22.5,249h-4.2c-0.6,0-0.8-0.2-0.8-0.8v-6.5c0-0.6,0.2-0.8,0.8-0.8h8.5c0.5,0,0.8,0.2,0.8,0.8v6.5
		c0,0.6-0.2,0.8-0.8,0.8C25.3,249,23.9,249,22.5,249z"/>
	<path class="st4" d="M21.1,232.7c1.6-0.7,3.5-0.5,4.9,0.7c1.7,1.6,1.9,4.2,0.3,5.9c-0.2,0.2-0.3,0.4-0.5,0.5
		c-0.3,0.2-0.6,0.4-1,0.7"/>
	<path class="st5" d="M21.8,246.2L21.8,246.2v0.9c0,0.2,0.1,0.2,0.3,0.2h0.8c0.2,0,0.3-0.1,0.3-0.3v-1.6c0-0.2,0.1-0.3,0.2-0.4
		c0.5-0.3,0.8-0.9,0.6-1.4c-0.2-0.6-0.8-1-1.4-1c-0.7-0.1-1.3,0.3-1.6,0.9c-0.2,0.6,0,1.2,0.5,1.5c0.2,0.1,0.3,0.3,0.3,0.5
		C21.8,245.7,21.8,246,21.8,246.2z"/>
	<path class="st6" d="M54.4,89.3h161.8c2.8,0,5,2.2,5,5v95.4c0,2.8-2.2,5-5,5H54.4c-2.8,0-5-2.2-5-5V94.3
		C49.4,91.6,51.6,89.3,54.4,89.3z"/>
	<path class="st7" d="M54.4,89.3h161.8c2.8,0,5,2.2,5,5v95.4c0,2.8-2.2,5-5,5H54.4c-2.8,0-5-2.2-5-5V94.3
		C49.4,91.6,51.6,89.3,54.4,89.3z"/>
	<path class="st8" d="M72.1,134.6h125.7c2.8,0,5,2.2,5,5v17.2c0,2.8-2.2,5-5,5H72.1c-2.8,0-5-2.2-5-5v-17.2
		C67.1,136.8,69.4,134.6,72.1,134.6z"/>
	<g class="st2">
		<path class="st9" d="M102.3,151.5l0.6-0.1l2.6-7.4h1.8l2.6,7.4l0.6,0.1v1h-2.9v-1l0.6-0.1l-0.4-1.2H105l-0.4,1.2l0.6,0.1v1h-2.9
			V151.5z M105.4,149h2l-1-3h0L105.4,149z"/>
		<path class="st9" d="M110.9,147.2v-1h2.5l0.1,0.7c0.2-0.3,0.4-0.5,0.7-0.6s0.6-0.2,0.9-0.2c0.8,0,1.4,0.3,1.8,0.9s0.7,1.4,0.7,2.4
			v0.1c0,0.9-0.2,1.7-0.7,2.3s-1,0.9-1.8,0.9c-0.3,0-0.6-0.1-0.9-0.2s-0.5-0.3-0.7-0.5v1.8l0.8,0.2v1H111v-1l0.8-0.2v-6.4
			L110.9,147.2z M115.8,149.4c0-0.6-0.1-1.1-0.3-1.5s-0.5-0.6-0.9-0.6c-0.3,0-0.5,0.1-0.7,0.2s-0.3,0.3-0.4,0.5v2.8
			c0.1,0.2,0.2,0.3,0.4,0.4s0.4,0.1,0.7,0.1c0.4,0,0.7-0.2,0.9-0.5s0.3-0.8,0.3-1.3V149.4z"/>
	</g>
	<g class="st2">
		<path class="st9" d="M118.2,147.2v-1h2.5l0.1,0.7c0.2-0.3,0.4-0.5,0.7-0.6s0.6-0.2,0.9-0.2c0.8,0,1.4,0.3,1.8,0.9s0.7,1.4,0.7,2.4
			v0.1c0,0.9-0.2,1.7-0.7,2.3s-1,0.9-1.8,0.9c-0.3,0-0.6-0.1-0.9-0.2s-0.5-0.3-0.7-0.5v1.8l0.8,0.2v1h-3.4v-1l0.8-0.2v-6.4
			L118.2,147.2z M123.1,149.4c0-0.6-0.1-1.1-0.3-1.5s-0.5-0.6-0.9-0.6c-0.3,0-0.5,0.1-0.7,0.2s-0.3,0.3-0.4,0.5v2.8
			c0.1,0.2,0.2,0.3,0.4,0.4s0.4,0.1,0.7,0.1c0.4,0,0.7-0.2,0.9-0.5s0.3-0.8,0.3-1.3V149.4z"/>
	</g>
	<g class="st2">
		<path class="st9" d="M125.3,144.4v-1h2.6v7.9l0.8,0.2v1h-3.4v-1l0.8-0.2v-6.7L125.3,144.4z"/>
		<path class="st9" d="M129.2,151.5l0.8-0.2v-3.9l-0.9-0.2v-1h2.6v5.1l0.8,0.2v1h-3.4V151.5z M131.7,144.7H130v-1.3h1.7V144.7z"/>
		<path class="st9" d="M136.1,151.3c0.3,0,0.5-0.1,0.7-0.3s0.3-0.4,0.3-0.7h1.5l0,0c0,0.6-0.2,1.2-0.7,1.6s-1.1,0.6-1.9,0.6
			c-0.9,0-1.7-0.3-2.2-0.9s-0.8-1.4-0.8-2.3v-0.2c0-0.9,0.3-1.7,0.8-2.3s1.3-0.9,2.2-0.9c0.5,0,1,0.1,1.4,0.2s0.7,0.4,1,0.6l0,1.7
			h-1.4l-0.3-1c-0.1-0.1-0.2-0.1-0.3-0.2s-0.3-0.1-0.4-0.1c-0.5,0-0.8,0.2-1,0.5c-0.2,0.4-0.3,0.8-0.3,1.4v0.2c0,0.6,0.1,1,0.3,1.4
			C135.3,151.2,135.6,151.3,136.1,151.3z"/>
	</g>
	<g class="st2">
		<path class="st9" d="M143.5,152.5c0-0.1-0.1-0.2-0.1-0.3s-0.1-0.2-0.1-0.3c-0.2,0.2-0.5,0.4-0.7,0.6s-0.6,0.2-1,0.2
			c-0.6,0-1.1-0.2-1.5-0.5s-0.5-0.8-0.5-1.4c0-0.6,0.2-1.1,0.7-1.4s1.2-0.5,2.1-0.5h0.9v-0.6c0-0.3-0.1-0.5-0.3-0.7
			s-0.4-0.3-0.8-0.3c-0.2,0-0.4,0-0.5,0.1s-0.3,0.1-0.4,0.2l-0.1,0.7h-1.3l0-1.4c0.3-0.2,0.7-0.4,1.1-0.5s0.8-0.2,1.3-0.2
			c0.8,0,1.4,0.2,1.9,0.6s0.7,0.9,0.7,1.6v2.6c0,0.1,0,0.2,0,0.3s0,0.2,0,0.2l0.5,0.1v1H143.5z M142,151.4c0.3,0,0.5-0.1,0.7-0.2
			s0.4-0.3,0.5-0.4v-1h-0.9c-0.4,0-0.6,0.1-0.8,0.3s-0.3,0.4-0.3,0.6c0,0.2,0.1,0.4,0.2,0.5S141.8,151.4,142,151.4z"/>
	</g>
	<g class="st2">
		<path class="st9" d="M148.1,144.6v1.6h1.1v1.2h-1.1v3.2c0,0.2,0.1,0.4,0.2,0.5s0.2,0.2,0.4,0.2c0.1,0,0.2,0,0.3,0s0.2,0,0.3,0
			l0.1,1.2c-0.2,0.1-0.4,0.1-0.6,0.1s-0.4,0-0.6,0c-0.6,0-1-0.2-1.4-0.5s-0.5-0.8-0.5-1.5v-3.2h-0.9v-1.2h0.9v-1.6H148.1z"/>
		<path class="st9" d="M150,151.5l0.8-0.2v-3.9l-0.9-0.2v-1h2.6v5.1l0.8,0.2v1H150V151.5z M152.5,144.7h-1.7v-1.3h1.7V144.7z"/>
		<path class="st9" d="M153.9,149.3c0-0.9,0.3-1.7,0.8-2.3s1.3-0.9,2.2-0.9c0.9,0,1.7,0.3,2.2,0.9s0.8,1.4,0.8,2.3v0.1
			c0,1-0.3,1.7-0.8,2.3s-1.3,0.9-2.2,0.9c-0.9,0-1.7-0.3-2.2-0.9s-0.8-1.4-0.8-2.3V149.3z M155.6,149.4c0,0.6,0.1,1,0.3,1.4
			s0.5,0.5,1,0.5c0.4,0,0.8-0.2,1-0.5s0.3-0.8,0.3-1.4v-0.1c0-0.6-0.1-1-0.3-1.4s-0.5-0.5-1-0.5s-0.8,0.2-1,0.5s-0.3,0.8-0.3,1.4
			V149.4z"/>
		<path class="st9" d="M160.6,151.5l0.8-0.2v-3.9l-0.9-0.2v-1h2.5l0.1,0.9c0.2-0.3,0.5-0.6,0.8-0.8s0.7-0.3,1-0.3
			c0.6,0,1.1,0.2,1.5,0.6s0.5,1,0.5,1.9v2.8l0.8,0.2v1h-3.3v-1l0.7-0.2v-2.8c0-0.4-0.1-0.7-0.3-0.9s-0.4-0.3-0.8-0.3
			c-0.2,0-0.4,0-0.6,0.1s-0.3,0.2-0.5,0.4v3.4l0.7,0.2v1h-3.2V151.5z"/>
	</g>
	<path class="st10" d="M126,78.5c4.6-4.5,12.1-4.5,16.6,0.2s4.5,12.1-0.2,16.6c-4.6,4.5-12.1,4.5-16.6-0.2c-2.1-2.2-3.4-5.1-3.4-8.2
		c0-2.6,0.8-5.1,2.4-7.1"/>
	<path class="st11" d="M134.2,92.6H130c-0.6,0-0.8-0.2-0.8-0.8v-6.5c0-0.6,0.2-0.8,0.8-0.8h8.4c0.6,0,0.8,0.2,0.8,0.8v6.5
		c0,0.5-0.2,0.8-0.8,0.8C137,92.6,135.6,92.6,134.2,92.6z"/>
	<path class="st11" d="M129.9,83.9c0-1.8,1-3.4,2.6-4.1c2.1-0.9,4.6,0,5.5,2.2c0.1,0.2,0.2,0.5,0.2,0.7c0.1,0.4,0.1,0.8,0.2,1.2"/>
	<path class="st3" d="M133.5,89.8L133.5,89.8v0.9c0,0.2,0.1,0.2,0.3,0.2h0.8c0.2,0,0.3-0.1,0.3-0.3V89c0-0.2,0.1-0.3,0.2-0.4
		c0.5-0.3,0.8-0.9,0.6-1.4c-0.2-0.6-0.8-1-1.4-1c-0.7-0.1-1.3,0.3-1.6,0.9c-0.2,0.6,0,1.2,0.6,1.5c0.2,0.1,0.3,0.3,0.3,0.5
		C133.5,89.3,133.5,89.5,133.5,89.8z"/>
	<g class="st2">
		<path class="st3" d="M110.3,116.6h-0.9l-0.2-1.2c-0.2-0.1-0.4-0.3-0.7-0.4s-0.6-0.1-1-0.1c-0.6,0-1.1,0.1-1.4,0.4s-0.5,0.6-0.5,1
			c0,0.4,0.2,0.7,0.5,0.9s0.9,0.5,1.6,0.7c0.9,0.2,1.6,0.6,2,1s0.7,1,0.7,1.6c0,0.7-0.3,1.2-0.8,1.7s-1.3,0.6-2.2,0.6
			c-0.7,0-1.2-0.1-1.7-0.3s-0.9-0.5-1.2-0.8V120h0.9l0.2,1.2c0.2,0.2,0.5,0.3,0.8,0.5s0.7,0.2,1.1,0.2c0.6,0,1-0.1,1.4-0.4
			s0.5-0.6,0.5-1c0-0.4-0.1-0.7-0.4-1s-0.8-0.5-1.6-0.7c-0.9-0.2-1.6-0.5-2.1-0.9s-0.8-0.9-0.8-1.6c0-0.7,0.3-1.2,0.8-1.7
			s1.3-0.7,2.2-0.7c0.6,0,1.1,0.1,1.6,0.3s0.9,0.5,1.2,0.7V116.6z"/>
		<path class="st3" d="M111.6,121.9l1-0.2v-4.5l-1-0.2v-0.7h2.1v5.4l1,0.2v0.7h-3.1V121.9z M113.7,114.6h-1.2v-1.2h1.2V114.6z"/>
		<path class="st3" d="M115.3,121.9l1-0.2v-4.5l-1-0.2v-0.7h2l0.1,0.8c0.2-0.3,0.5-0.5,0.8-0.7s0.7-0.2,1.1-0.2s0.8,0.1,1.1,0.3
			s0.5,0.5,0.7,0.9c0.2-0.4,0.5-0.6,0.8-0.9s0.7-0.3,1.1-0.3c0.6,0,1.2,0.2,1.5,0.7s0.6,1.1,0.6,2v2.9l1,0.2v0.7h-3.1v-0.7l1-0.2
			v-2.9c0-0.6-0.1-1.1-0.3-1.3s-0.5-0.4-1-0.4c-0.4,0-0.7,0.1-1,0.4s-0.4,0.6-0.4,1.1v3.1l1,0.2v0.7h-3.1v-0.7l1-0.2v-2.9
			c0-0.6-0.1-1-0.3-1.3s-0.5-0.4-1-0.4c-0.4,0-0.6,0.1-0.9,0.2s-0.4,0.3-0.5,0.6v3.8l1,0.2v0.7h-3.1V121.9z"/>
		<path class="st3" d="M131.4,121.7c-0.2,0.3-0.5,0.6-0.8,0.8s-0.7,0.3-1.1,0.3c-0.7,0-1.2-0.2-1.6-0.7s-0.6-1.1-0.6-2.1v-2.8
			l-0.7-0.2v-0.7h0.7h1.2v3.8c0,0.7,0.1,1.1,0.3,1.4s0.5,0.4,0.9,0.4c0.4,0,0.7-0.1,1-0.2s0.5-0.4,0.6-0.7v-3.7l-0.8-0.2v-0.7h0.8
			h1.2v5.4l0.7,0.2v0.7h-1.8L131.4,121.7z"/>
		<path class="st3" d="M134,114.2v-0.7h2.1v8.2l1,0.2v0.7H134v-0.7l1-0.2v-7.3L134,114.2z"/>
		<path class="st3" d="M142.1,122.6c0-0.2-0.1-0.3-0.1-0.5s0-0.3,0-0.4c-0.2,0.3-0.5,0.5-0.8,0.7s-0.7,0.3-1.1,0.3
			c-0.7,0-1.2-0.2-1.5-0.5s-0.5-0.8-0.5-1.4c0-0.6,0.2-1.1,0.7-1.4s1.2-0.5,2-0.5h1.2v-0.7c0-0.4-0.1-0.7-0.4-0.9s-0.6-0.3-1-0.3
			c-0.3,0-0.5,0-0.8,0.1s-0.4,0.2-0.5,0.3l-0.1,0.7h-0.9v-1.2c0.3-0.2,0.6-0.4,1-0.6s0.9-0.2,1.3-0.2c0.7,0,1.3,0.2,1.7,0.6
			s0.7,0.9,0.7,1.6v3.1c0,0.1,0,0.2,0,0.2s0,0.2,0,0.2l0.5,0.1v0.7H142.1z M140.2,121.8c0.4,0,0.7-0.1,1-0.3s0.5-0.4,0.7-0.7v-1
			h-1.2c-0.5,0-0.8,0.1-1.1,0.3s-0.4,0.5-0.4,0.8c0,0.3,0.1,0.5,0.3,0.6S139.8,121.8,140.2,121.8z"/>
		<path class="st3" d="M146.5,114.7v1.5h1.2v0.9h-1.2v3.8c0,0.3,0.1,0.5,0.2,0.6s0.3,0.2,0.5,0.2c0.1,0,0.2,0,0.3,0s0.2,0,0.3-0.1
			l0.2,0.8c-0.1,0.1-0.3,0.1-0.5,0.2s-0.4,0.1-0.6,0.1c-0.5,0-0.8-0.1-1.1-0.4s-0.4-0.7-0.4-1.3v-3.8h-1v-0.9h1v-1.5H146.5z"/>
		<path class="st3" d="M148.9,121.9l1-0.2v-4.5l-1-0.2v-0.7h2.1v5.4l1,0.2v0.7h-3.1V121.9z M151,114.6h-1.2v-1.2h1.2V114.6z"/>
		<path class="st3" d="M152.9,119.4c0-0.9,0.3-1.7,0.8-2.3s1.2-0.9,2.1-0.9c0.9,0,1.6,0.3,2.1,0.9s0.8,1.4,0.8,2.3v0.1
			c0,0.9-0.3,1.7-0.8,2.3s-1.2,0.9-2.1,0.9c-0.9,0-1.6-0.3-2.1-0.9s-0.8-1.4-0.8-2.3V119.4z M154,119.5c0,0.7,0.1,1.2,0.4,1.7
			s0.7,0.7,1.3,0.7c0.5,0,1-0.2,1.2-0.7s0.4-1,0.4-1.7v-0.1c0-0.7-0.1-1.2-0.4-1.7s-0.7-0.7-1.3-0.7s-1,0.2-1.3,0.7s-0.4,1-0.4,1.7
			V119.5z"/>
		<path class="st3" d="M159.4,121.9l1-0.2v-4.5l-1-0.2v-0.7h2l0.1,0.9c0.2-0.3,0.5-0.6,0.8-0.8s0.7-0.3,1.1-0.3
			c0.7,0,1.2,0.2,1.6,0.6s0.6,1,0.6,1.9v3.1l1,0.2v0.7h-3.1v-0.7l1-0.2v-3.1c0-0.6-0.1-1-0.3-1.2s-0.6-0.4-1-0.4
			c-0.3,0-0.6,0.1-0.9,0.2s-0.5,0.4-0.6,0.7v3.7l1,0.2v0.7h-3.1V121.9z"/>
	</g>
	<g class="st2">
		<path d="M27.4,24.2h-1.9l-0.3-1.8c-0.2-0.1-0.5-0.3-1-0.4s-0.9-0.2-1.4-0.2c-0.7,0-1.2,0.1-1.6,0.4s-0.6,0.7-0.6,1.1
			c0,0.4,0.2,0.8,0.6,1.1s1.1,0.6,2.1,0.9c1.4,0.4,2.5,0.9,3.2,1.6s1.1,1.5,1.1,2.5c0,1.1-0.4,2-1.3,2.6s-2,0.9-3.4,0.9
			c-1,0-1.9-0.2-2.7-0.5s-1.5-0.8-2-1.3v-2.7h2l0.3,1.8c0.3,0.2,0.6,0.4,1.1,0.5c0.4,0.1,0.9,0.2,1.5,0.2c0.7,0,1.2-0.1,1.6-0.4
			S25,30,25,29.5c0-0.5-0.2-0.9-0.5-1.2s-1-0.6-1.8-0.8c-1.5-0.4-2.7-1-3.4-1.6s-1.2-1.4-1.2-2.5c0-1,0.4-1.9,1.3-2.5
			c0.9-0.7,2-1,3.3-1c1,0,1.9,0.1,2.7,0.4s1.5,0.7,2,1.2V24.2z"/>
		<path d="M28.6,21.6v-1.5h5.3v1.5l-1.4,0.3v9.2l1.4,0.3v1.5h-5.3v-1.5l1.4-0.3v-9.2L28.6,21.6z"/>
		<path d="M47.2,23.4L47.2,23.4l-3.5,9.5H42l-3.4-9.4l-0.1,0l0.2,5.6v2l1.4,0.3v1.5h-5.3v-1.5l1.4-0.3v-9.2l-1.4-0.3v-1.5h1.4h3.3
			l3.3,9.4h0.1l3.3-9.4h4.7v1.5l-1.4,0.3v9.2l1.4,0.3v1.5h-5.3v-1.5l1.4-0.3v-2L47.2,23.4z"/>
		<path d="M57,20.1v1.5l-1.4,0.3v6.7c0,0.8,0.2,1.5,0.7,1.9s1.1,0.6,1.9,0.6c0.8,0,1.4-0.2,1.9-0.6s0.7-1,0.7-1.9v-6.7l-1.4-0.3
			v-1.5h5.3v1.5l-1.4,0.3v6.7c0,1.4-0.5,2.5-1.4,3.3s-2.2,1.2-3.7,1.2c-1.5,0-2.8-0.4-3.7-1.2s-1.4-1.9-1.4-3.3v-6.7l-1.4-0.3v-1.5
			h1.4h2.6H57z"/>
		<path d="M65.4,32.9v-1.5l1.4-0.3v-9.2l-1.4-0.3v-1.5h1.4h2.6h1.4v1.5l-1.4,0.3v9H73l0.1-1.6h2v3.6H65.4z"/>
	</g>
	<g class="st2">
		<path d="M75.9,31.3l0.9-0.1l3.9-11.1h2.6l3.9,11.1l0.9,0.1v1.5h-4.4v-1.5l0.9-0.2L84,29.4h-4.1l-0.6,1.8l0.9,0.2v1.5h-4.4V31.3z
			 M80.5,27.5h2.9L82,23h-0.1L80.5,27.5z"/>
	</g>
	<g class="st2">
		<path d="M98.9,20.1v3.4h-2l-0.1-1.4h-2.4v9l1.4,0.3v1.5h-5.3v-1.5l1.4-0.3v-9h-2.3l-0.1,1.4h-2v-3.4H98.9z"/>
		<path d="M99.7,21.6v-1.5h5.3v1.5l-1.4,0.3v9.2l1.4,0.3v1.5h-5.3v-1.5l1.4-0.3v-9.2L99.7,21.6z"/>
		<path d="M117.7,26.6c0,1.9-0.5,3.4-1.6,4.6s-2.5,1.8-4.2,1.8c-1.7,0-3.1-0.6-4.2-1.8s-1.6-2.8-1.6-4.6v-0.2c0-1.9,0.5-3.4,1.6-4.6
			s2.5-1.8,4.2-1.8c1.7,0,3.1,0.6,4.2,1.8s1.6,2.8,1.6,4.6V26.6z M115.1,26.4c0-1.3-0.3-2.4-0.8-3.2s-1.4-1.2-2.4-1.2
			s-1.9,0.4-2.4,1.2s-0.8,1.9-0.8,3.2v0.2c0,1.3,0.3,2.4,0.8,3.3s1.3,1.2,2.4,1.2c1.1,0,1.9-0.4,2.4-1.2s0.8-1.9,0.8-3.3V26.4z"/>
		<path d="M131.8,20.1v1.5l-1.4,0.3v11h-2.6l-5.2-8.6l-0.1,0v6.8l1.4,0.3v1.5h-5.3v-1.5l1.4-0.3v-9.2l-1.4-0.3v-1.5h1.4h2.6l5.2,8.6
			l0.1,0v-6.8l-1.4-0.3v-1.5h3.9H131.8z"/>
		<path d="M149.4,23.4L149.4,23.4l-3.5,9.5h-1.7l-3.4-9.4l-0.1,0l0.2,5.6v2l1.4,0.3v1.5H137v-1.5l1.4-0.3v-9.2l-1.4-0.3v-1.5h1.4
			h3.3l3.3,9.4h0.1l3.3-9.4h4.7v1.5l-1.4,0.3v9.2l1.4,0.3v1.5h-5.3v-1.5l1.4-0.3v-2L149.4,23.4z"/>
		<path d="M165.7,26.6c0,1.9-0.5,3.4-1.6,4.6s-2.5,1.8-4.2,1.8c-1.7,0-3.1-0.6-4.2-1.8s-1.6-2.8-1.6-4.6v-0.2c0-1.9,0.5-3.4,1.6-4.6
			s2.5-1.8,4.2-1.8c1.7,0,3.1,0.6,4.2,1.8s1.6,2.8,1.6,4.6V26.6z M163.1,26.4c0-1.3-0.3-2.4-0.8-3.2s-1.4-1.2-2.4-1.2
			s-1.9,0.4-2.4,1.2s-0.8,1.9-0.8,3.2v0.2c0,1.3,0.3,2.4,0.8,3.3s1.3,1.2,2.4,1.2c1.1,0,1.9-0.4,2.4-1.2s0.8-1.9,0.8-3.3V26.4z"/>
		<path d="M172.5,20.1c1.6,0,2.9,0.5,3.9,1.5c1,1,1.5,2.3,1.5,3.8v2.1c0,1.6-0.5,2.9-1.5,3.8c-1,1-2.3,1.5-3.9,1.5h-5.8v-1.5
			l1.4-0.3v-9.2l-1.4-0.3v-1.5h1.4H172.5z M170.6,22.1v8.9h1.7c0.9,0,1.6-0.3,2.2-0.9s0.8-1.4,0.8-2.4v-2.1c0-1-0.3-1.8-0.8-2.4
			s-1.2-0.9-2.2-0.9H170.6z"/>
		<path d="M187.4,27.3H183v3.7h4.1l0.1-1.5h2v3.5h-10.1v-1.5l1.4-0.3v-9.2l-1.4-0.3v-1.5h1.4h8.7v3.5h-2l-0.1-1.5H183v3.2h4.3V27.3z
			"/>
	</g>
	<g id="Scone_logo_black">
		<g>
			<defs>
				<rect id="SVGID_1_" x="111.5" y="179.5" width="42.8" height="8.4"/>
			</defs>
			<clipPath id="SVGID_2_">
				<use xlink:href="#SVGID_1_"  style="overflow:visible;"/>
			</clipPath>
			<g class="st12">
				<g>
					<defs>
						<rect id="SVGID_3_" x="111.5" y="179.5" width="42.8" height="8.4"/>
					</defs>
					<clipPath id="SVGID_4_">
						<use xlink:href="#SVGID_3_"  style="overflow:visible;"/>
					</clipPath>
					<g class="st13">
						<path class="st14" d="M117.2,181.6h-0.9c-0.2,0-0.3,0.2-0.3,0.4v0.9c0,0.2,0.2,0.3,0.3,0.3h0.9c0.2,0,0.3-0.2,0.3-0.3v-0.9
							C117.5,181.7,117.3,181.6,117.2,181.6 M114,183.2h0.9c0.2,0,0.3-0.2,0.3-0.3v-0.9c0-0.2-0.2-0.3-0.3-0.4H114
							c-0.2,0-0.3,0.2-0.3,0.4l0,0v0.9C113.7,183,113.8,183.2,114,183.2 M113,182.8v-0.9c0-0.2-0.2-0.3-0.3-0.4h-0.9
							c-0.2,0-0.3,0.2-0.3,0.4v0.9c0,0.2,0.2,0.3,0.3,0.3h0.9C112.8,183.2,113,183,113,182.8 M117.2,183.8c-0.1,0-0.3,0.1-0.3,0.3
							v1.1c0,0.1,0.1,0.3,0.3,0.3c0.1,0,0.3-0.1,0.3-0.3v-1.1C117.4,184,117.3,183.8,117.2,183.8
							C117.2,183.8,117.2,183.8,117.2,183.8 M114.7,184.2v0.9c0,0.2,0.2,0.4,0.3,0.4c0,0,0,0,0,0h1c0.2,0,0.3-0.2,0.3-0.4l0,0v-0.9
							c0-0.2-0.2-0.4-0.3-0.4c0,0,0,0,0,0h-0.9C114.9,183.8,114.8,184,114.7,184.2L114.7,184.2 M114.1,185.1v-0.9
							c0-0.2-0.2-0.4-0.3-0.4c0,0,0,0,0,0h-0.9c-0.2,0-0.3,0.2-0.3,0.4v0.9c0,0.2,0.2,0.3,0.3,0.4h0.9
							C114,185.4,114.1,185.3,114.1,185.1L114.1,185.1 M117.1,186.1h-0.9c-0.2,0-0.3,0.2-0.3,0.4v0.9c0,0.2,0.2,0.3,0.3,0.4h0.9
							c0.2,0,0.3-0.2,0.3-0.4v-0.9C117.5,186.3,117.3,186.1,117.1,186.1 M114.8,186.1h-0.9c-0.2,0-0.3,0.2-0.3,0.4l0,0v0.9
							c0,0.2,0.2,0.4,0.3,0.4c0,0,0,0,0,0h0.9c0.2,0,0.3-0.2,0.3-0.4l0,0v-0.9C115.2,186.3,115,186.1,114.8,186.1
							C114.8,186.1,114.8,186.1,114.8,186.1"/>
						<path class="st14" d="M118.2,181.2c0.4,0.3,0.9,0.5,1.4,0.4c0,0,0,0,0,0.1v2.5c0,0.9-1.2,1.5-1.4,1.7l0,0L118.2,181.2
							L118.2,181.2"/>
						<path class="st14" d="M115.5,181.1c1.9-0.1,2.2-0.7,2.2-0.7c0,0,0,0,0.1-0.1c0,0,0.1,0,0.1,0s0.3,0.7,2.2,0.7
							c0.1,0,0.1,0,0.1,0.1v3.2c0,1-2,2.2-2,2.2c0,0-0.1,0-0.1,0.1v0.8c0,0,0.1,0,0.2,0c0.7-0.4,2.8-1.5,2.8-2.9v-4.1
							c0-0.1-0.1-0.1-0.2-0.1c-2.4,0-2.9-0.9-2.9-0.9s-0.1,0-0.2,0s-0.1,0-0.1,0s-0.4,0.9-2.8,0.9c-0.1,0-0.1,0-0.1,0.1v0.5
							c0,0,0,0.1,0.1,0.1L115.5,181.1"/>
						<path d="M122.8,186.4l1-0.4c0.2,0.5,0.7,0.8,1.3,0.7c0.3,0,0.5,0,0.7-0.2c0.2-0.1,0.3-0.3,0.3-0.5c0-0.5-0.7-0.8-1.2-1l0,0
							c-0.4-0.1-0.8-0.4-1.1-0.6c-0.4-0.3-0.6-0.7-0.6-1.1c0-0.5,0.2-0.9,0.6-1.2c0.4-0.3,0.9-0.5,1.4-0.5c0.8-0.1,1.5,0.3,1.9,1
							l-1,0.4c-0.1-0.2-0.2-0.3-0.3-0.4c-0.2-0.1-0.4-0.1-0.6-0.1c-0.6,0-0.9,0.3-0.9,0.7c0,0.3,0.2,0.5,0.4,0.6
							c0.3,0.2,0.6,0.3,0.9,0.4h0.1c0.8,0.3,1.7,0.7,1.7,1.7c0,0.5-0.2,1-0.7,1.2c-0.5,0.3-1,0.5-1.6,0.4
							C124.2,187.7,123.3,187.2,122.8,186.4"/>
						<path d="M131.4,187.7c-0.4,0-0.8-0.1-1.2-0.2c-0.7-0.3-1.3-0.9-1.6-1.6c-0.2-0.4-0.2-0.8-0.2-1.2c0-0.4,0.1-0.8,0.2-1.2
							c0.1-0.4,0.4-0.7,0.6-1c0.3-0.3,0.6-0.5,1-0.7c0.4-0.2,0.8-0.2,1.2-0.2c0.5,0,1,0.1,1.4,0.3c0.4,0.2,0.8,0.5,1.1,0.9l-0.8,0.6
							c-0.2-0.2-0.4-0.4-0.7-0.6c-0.3-0.1-0.6-0.2-0.9-0.2c-1.1,0-2,0.9-2,2c0,0.5,0.2,1.1,0.6,1.4c0.4,0.4,0.9,0.6,1.4,0.6
							c0.4,0,0.7-0.1,1-0.3c0.3-0.2,0.6-0.4,0.7-0.8l0.9,0.5c-0.3,0.5-0.6,0.9-1.1,1.1C132.5,187.4,132,187.6,131.4,187.7"/>
						<path d="M138,187.7c-0.4,0-0.8-0.1-1.2-0.2c-0.4-0.1-0.7-0.4-1-0.7c-0.6-0.6-0.9-1.3-0.9-2.1c0-0.4,0.1-0.8,0.2-1.2
							c0.2-0.4,0.4-0.7,0.6-1c0.3-0.3,0.6-0.5,1-0.6c0.8-0.3,1.6-0.3,2.4,0c0.4,0.1,0.7,0.4,1,0.6c0.9,0.9,1.1,2.2,0.7,3.4
							c-0.2,0.4-0.4,0.7-0.7,1c-0.3,0.3-0.6,0.5-1,0.7C138.8,187.6,138.4,187.7,138,187.7 M138,182.6c-0.5,0-1.1,0.2-1.4,0.6
							c-0.4,0.4-0.6,0.9-0.6,1.4c0,1.1,0.8,2,1.9,2c0,0,0,0,0.1,0c0.5,0,1.1-0.2,1.4-0.6c0.4-0.4,0.6-0.9,0.6-1.4
							C140,183.5,139.1,182.6,138,182.6C138,182.6,138,182.6,138,182.6"/>
						<polygon points="148,181.6 148,187.8 143.7,183.9 143.7,187.6 142.7,187.6 142.7,181.4 146.9,185.4 146.9,181.6 						"/>
						<polygon points="150.9,182.5 150.9,184.1 153.9,184.1 153.9,185.1 150.9,185.1 150.9,186.7 154.3,186.7 154.3,187.6 
							149.8,187.6 149.8,181.6 154.3,181.6 154.3,182.6 150.9,182.6 						"/>
					</g>
				</g>
			</g>
		</g>
	</g>
</g>
</svg>
