<svg xmlns="http://www.w3.org/2000/svg" xmlns:xlink="http://www.w3.org/1999/xlink" viewBox="0 0 757.51 413.62"><defs><style>.cls-1,.cls-11,.cls-27,.cls-43,.cls-5,.cls-55,.cls-57,.cls-58,.cls-60,.cls-7,.cls-9{fill:none;}.cls-2{fill:#e6e6e6;}.cls-3{opacity:0.7;}.cls-4{fill:url(#Unbenannter_Verlauf_12);}.cls-5,.cls-6,.cls-7{stroke:#c30;}.cls-11,.cls-5,.cls-54,.cls-55,.cls-57,.cls-58,.cls-60,.cls-9{stroke-miterlimit:10;}.cls-11,.cls-5,.cls-54,.cls-55,.cls-57,.cls-58,.cls-6,.cls-60,.cls-7,.cls-9{stroke-width:2px;}.cls-5{stroke-dasharray:2 2;}.cls-10,.cls-13,.cls-18,.cls-6,.cls-62{fill:#fff;}.cls-27,.cls-6,.cls-7{stroke-linecap:round;}.cls-27,.cls-43,.cls-6,.cls-7{stroke-linejoin:round;}.cls-8{fill:#c30;}.cls-9{stroke:#fff;}.cls-11,.cls-54{stroke:#fc0;}.cls-12,.cls-23,.cls-28,.cls-48{fill:#306;}.cls-13,.cls-15{font-size:11px;}.cls-13,.cls-18,.cls-30{font-family:PTSans-Regular, PT Sans;}.cls-14{letter-spacing:-0.01em;}.cls-15,.cls-50{fill:#fc0;}.cls-15,.cls-23,.cls-28,.cls-50{font-family:RobotoSlab-Bold, Roboto Slab;}.cls-15,.cls-23,.cls-28,.cls-50,.cls-62{font-weight:700;}.cls-16{letter-spacing:-0.01em;}.cls-17{letter-spacing:-0.04em;}.cls-18{font-size:8px;}.cls-18,.cls-30{font-weight:400;}.cls-19{letter-spacing:-0.02em;}.cls-20{letter-spacing:-0.02em;}.cls-21{letter-spacing:-0.01em;}.cls-22{letter-spacing:-0.02em;}.cls-23,.cls-50,.cls-62{font-size:12px;}.cls-24{letter-spacing:-0.01em;}.cls-25{letter-spacing:0em;}.cls-26{letter-spacing:-0.01em;}.cls-27,.cls-43,.cls-57{stroke:#306;}.cls-28{font-size:12.24px;}.cls-29{letter-spacing:-0.04em;}.cls-30,.cls-48{font-size:10px;}.cls-31{letter-spacing:-0.01em;}.cls-32{letter-spacing:-0.01em;}.cls-33{letter-spacing:-0.01em;}.cls-34{letter-spacing:-0.01em;}.cls-35{letter-spacing:-0.01em;}.cls-36{letter-spacing:0em;}.cls-37{letter-spacing:-0.01em;}.cls-38{letter-spacing:0em;}.cls-39{letter-spacing:-0.02em;}.cls-40{letter-spacing:-0.01em;}.cls-41{letter-spacing:-0.01em;}.cls-42{letter-spacing:-0.01em;}.cls-44{letter-spacing:0.01em;}.cls-45{letter-spacing:-0.05em;}.cls-46{letter-spacing:-0.01em;}.cls-47{letter-spacing:-0.02em;}.cls-48{font-family:PTSans-Italic, PT Sans;font-style:italic;}.cls-49{letter-spacing:-0.02em;}.cls-51{letter-spacing:-0.01em;}.cls-52{letter-spacing:0em;}.cls-53{letter-spacing:0.01em;}.cls-54{fill:url(#Unbenannter_Verlauf_12_Kopie);}.cls-55{stroke:#39f;}.cls-56{fill:#39f;}.cls-58{stroke:#3c9;}.cls-59{fill:#3c9;}.cls-60{stroke:#906;}.cls-61{fill:#906;}.cls-62{font-family:PTSans-Bold, PT Sans;}.cls-63{letter-spacing:-0.04em;}.cls-64{clip-path:url(#clip-path);}.cls-65{fill:#ffd138;}.cls-66{fill:#fdfeff;}</style><linearGradient id="Unbenannter_Verlauf_12" x1="279.22" y1="205.13" x2="548.11" y2="205.13" gradientUnits="userSpaceOnUse"><stop offset="0" stop-color="#906"/><stop offset="0.19" stop-color="#780066"/><stop offset="0.4" stop-color="#5a0066"/><stop offset="0.61" stop-color="#406"/><stop offset="0.81" stop-color="#370066"/><stop offset="1" stop-color="#306"/></linearGradient><linearGradient id="Unbenannter_Verlauf_12_Kopie" x1="228.39" y1="205.56" x2="338.14" y2="205.56" xlink:href="#Unbenannter_Verlauf_12"/><clipPath id="clip-path"><rect class="cls-1" x="269.53" y="216.68" width="25.66" height="5.02"/></clipPath></defs><title>stakeholders</title><g id="Ebene_1" data-name="Ebene 1"><path class="cls-2" d="M1,5.4,0,408a5,5,0,0,0,5,5l747.69.47a5,5,0,0,0,5-5V5.78a5,5,0,0,0-5-5L6,.4A5,5,0,0,0,1,5.4ZM555.9,299l-334.72-.69a5,5,0,0,1-5-5V117.32a5,5,0,0,1,5-5l333.88.43a5,5,0,0,1,5,5l.84,176.18A5,5,0,0,1,555.9,299Z"/></g><g id="Ebene_2" data-name="Ebene 2"><g class="cls-3"><path class="cls-4" d="M543.11,130.46H279.22v25.7H432.44a4.9,4.9,0,0,1,4.9,4.91V249.2a4.9,4.9,0,0,1-4.9,4.9H279.29v25.7H543.11a5,5,0,0,0,5-5V135.46A5,5,0,0,0,543.11,130.46Z"/></g><path class="cls-5" d="M423.9,280.41v12.48a5,5,0,0,0,5,5H555.75a5,5,0,0,0,5-5V117.38a5,5,0,0,0-5-5H428.9a5,5,0,0,0-5,5v14.88"/><path class="cls-6" d="M556.85,108.38a2.88,2.88,0,0,0-3.61-1.18c-2.25.86-1.26,3.62-1.26,3.62s-5.13-.06-4.57,5.2c.41,3.85,4.57,3.62,4.43,3.62-6.2,0,12.39,0,18.58,0a4.79,4.79,0,0,0,2.64-1,4,4,0,0,0,1.29-4.74c-.66-1.84-3-2.78-4.88-2.88,0,0,1.11-4.88-2.41-7a6.62,6.62,0,0,0-8.09.59A7.54,7.54,0,0,0,556.85,108.38Z"/><path class="cls-7" d="M574.68,78.84h-4.24c-.58,0-.81-.23-.81-.81V71.57c0-.58.23-.8.81-.8h8.45c.55,0,.78.22.78.77V78c0,.55-.23.77-.78.77C577.48,78.87,576.06,78.84,574.68,78.84Z"/><path class="cls-7" d="M573.31,62.58a4.5,4.5,0,0,1,4.85.72,4.19,4.19,0,0,1-.23,6.43c-.31.25-.65.44-1,.7"/><path class="cls-8" d="M574,76.07h0v.87c0,.16.07.22.26.22h.84c.22,0,.29-.06.29-.25V75.3a.38.38,0,0,1,.22-.39,1.21,1.21,0,0,0,.61-1.44,1.53,1.53,0,0,0-1.44-1,1.65,1.65,0,0,0-1.61.87,1.19,1.19,0,0,0,.55,1.51.42.42,0,0,1,.25.48A6,6,0,0,1,574,76.07Z"/><polyline class="cls-9" points="317.66 151.71 300.95 151.71 300.95 135"/><circle class="cls-10" cx="305.97" cy="136.32" r="0.69"/><circle class="cls-10" cx="310.9" cy="142.86" r="0.69"/><circle class="cls-10" cx="310.9" cy="138.4" r="0.69"/><circle class="cls-10" cx="316.37" cy="145.91" r="0.69"/><circle class="cls-10" cx="304.58" cy="144.05" r="0.69"/><circle class="cls-10" cx="307.57" cy="147.99" r="0.69"/><polyline class="cls-9" points="339.17 151.71 322.46 151.71 322.46 135"/><path class="cls-9" d="M322.57,143.36H325s.44-5.65,2.46-5.65c1.7,0,2,9.59,4.05,9.59,1.72,0,1.89-6.15,3.21-6.1,1.13,0,1.2,4,2.1,4s1.19-1.71,1.19-1.71"/><polyline class="cls-9" points="316.01 273.78 301.8 273.78 301.8 259.57"/><rect class="cls-10" x="303.91" y="259.57" width="2.16" height="12.99"/><rect class="cls-10" x="307.14" y="265.38" width="2.16" height="7.19"/><rect class="cls-10" x="310.38" y="262.59" width="2.16" height="9.97"/><rect class="cls-10" x="313.61" y="268.58" width="2.16" height="3.98"/><path class="cls-11" d="M279.22,156.16H432.44a4.9,4.9,0,0,1,4.9,4.91V249.2a4.9,4.9,0,0,1-4.9,4.9H279.29"/><path class="cls-11" d="M279.29,279.8H543.11a5,5,0,0,0,5-5V135.46a5,5,0,0,0-5-5H279.22"/><line class="cls-5" x1="423.9" y1="156.53" x2="423.9" y2="252.5"/></g><g id="schrift"><path class="cls-10" d="M284.71,48.92a1,1,0,0,1-1-1V43.37a5.21,5.21,0,0,1,1.76-3.94,5.66,5.66,0,0,1,2.95-1.51,2.81,2.81,0,0,1,.79-.1v-.07a7.33,7.33,0,0,1-5.57-7.13V29.08a3.31,3.31,0,0,1-1.83-4.81s-1.2-4-1.2-4a9,9,0,0,1,1.51-8,6.93,6.93,0,0,1,5.27-3.08h7.55a3.31,3.31,0,0,1,3.24,2.48c2.16.33,4.24,1,5.46,2.67,1.37,1.92,1.53,4.85.53,9.81,0,0,0,.06,0,.09a3.39,3.39,0,0,1-2,4.9V30.7a7.26,7.26,0,0,1-5.43,7.09v0a3.78,3.78,0,0,1,.89.1,5.12,5.12,0,0,1,2.93,1.58,5.45,5.45,0,0,1,1.69,3.87v4.55a1,1,0,0,1-1,1Z"/><path class="cls-12" d="M294.94,10.18a2.31,2.31,0,0,1,2.35,2.36c5.5.72,7.71,2.44,5.9,11.4h-.63a2.34,2.34,0,0,1,1,2,2.42,2.42,0,0,1-2.36,2.36l-.07.08V30.7A6.25,6.25,0,0,1,295.72,37v1.85h.79a3.91,3.91,0,0,1,.86.07,4.28,4.28,0,0,1,2.44,1.29,4.49,4.49,0,0,1,1.41,3.19v4.55H284.71V43.37a4.24,4.24,0,0,1,1.42-3.19,4.78,4.78,0,0,1,2.52-1.29,3,3,0,0,1,.78-.07h.78v-1.9h-.07a6.29,6.29,0,0,1-5.5-6.29V28.26h0a2.35,2.35,0,0,1-2.28-2.35,2.47,2.47,0,0,1,.7-1.65,1.73,1.73,0,0,1,.35-.31h-.66L281.57,20c-1.49-5,2.52-9.83,5.82-9.83h7.55m0-2h-7.55a7.91,7.91,0,0,0-6.07,3.49,10,10,0,0,0-1.67,8.91l1.08,3.6a4.32,4.32,0,0,0,1.91,5.56v.88a8.38,8.38,0,0,0,3.71,7,7.06,7.06,0,0,0-1.58,1.13,6.26,6.26,0,0,0-2.06,4.66v4.55a2,2,0,0,0,2,2h16.51a2,2,0,0,0,2-2V43.37a6.51,6.51,0,0,0-2-4.59,6.19,6.19,0,0,0-1.64-1.23,8.26,8.26,0,0,0,3.55-6.9V29.8a4.38,4.38,0,0,0,2.05-5.71c1-5.11.78-8.21-.75-10.34-1.31-1.83-3.36-2.58-5.52-3a4.29,4.29,0,0,0-4-2.59Z"/><path class="cls-10" d="M438.57,371.34a1,1,0,0,1-1-1v-4.4a5.2,5.2,0,0,1,1.64-3.83,9.07,9.07,0,0,1,1-.79,2.86,2.86,0,0,1,.57-.3,1.36,1.36,0,0,0,.21-.1,1,1,0,0,1,.23-.11,5.26,5.26,0,0,1,1.52-.27v-.22a8.78,8.78,0,0,1-2.49-1.75,8.54,8.54,0,0,1-2.48-4.93A3.21,3.21,0,0,1,436,348.5l-.87-1.08a3.31,3.31,0,0,1,.54-4.58l.58-.42-.28-1.11a2.53,2.53,0,0,1,1.26-2.82l1.91-1,4.59-2a6.21,6.21,0,0,1,2.49-.52,6.29,6.29,0,0,1,2.5.52l4.54,2,1.66.83a2.48,2.48,0,0,1,1.11,3.32l-.45.89,1.57,1.26a3.17,3.17,0,0,1,.74,4.17l-1,1.52a3.41,3.41,0,0,1,.16,1,3.2,3.2,0,0,1-2,3c-.13,4.33-3.66,6.27-5.22,6.92v.12a4.22,4.22,0,0,1,1.58.36l.38.16.29.11.19.09a3.92,3.92,0,0,1,1.12.94,5.4,5.4,0,0,1,1.57,3.74v4.4a1,1,0,0,1-1,1Z"/><path class="cls-12" d="M446.23,336a5,5,0,0,1,2.09.44l4.55,2,1.61.8a1.48,1.48,0,0,1,.67,2l-.81,1.61,2.2,1.76a2.16,2.16,0,0,1,.51,2.86l-1.24,2a2,2,0,0,1,.29,1.1,2.2,2.2,0,0,1-2.06,2.19v.09c.34,5.33-5.19,6.91-5.2,6.91h0v1.81h.73a3.31,3.31,0,0,1,1.47.3c.22.07.51.22.73.29a2.82,2.82,0,0,1,.88.74,4.35,4.35,0,0,1,1.32,3.08v4.4h-15.4v-4.4a4.12,4.12,0,0,1,1.32-3.08,6.52,6.52,0,0,1,.88-.74c.22-.14.51-.22.73-.36a4.62,4.62,0,0,1,1.47-.23h.73v-1.86s.05,0,.07,0h0l-.1-.05a8.15,8.15,0,0,1-2.76-1.78,7.7,7.7,0,0,1-2.27-5.4l-.15-.1v.36a2.2,2.2,0,0,1-1.1-4.11l-1.46-1.83a2.29,2.29,0,0,1,.36-3.15l1.1-.81-.44-1.76a1.54,1.54,0,0,1,.74-1.69l1.9-.95,4.55-2a5.06,5.06,0,0,1,2.09-.44m0-2a7.18,7.18,0,0,0-2.9.61l-4.54,2-.09.05-1.91.95A3.53,3.53,0,0,0,435,341.5l.13.51h0a4.2,4.2,0,0,0-1.62,2.89,4.36,4.36,0,0,0,.85,3.1l.44.55a4.26,4.26,0,0,0-.49,2,4.2,4.2,0,0,0,2.55,3.86,9.68,9.68,0,0,0,2.66,4.89,8.57,8.57,0,0,0,.9.8l0,0a3.87,3.87,0,0,0-.69.36l-.09.06a10,10,0,0,0-1.06.89,6.14,6.14,0,0,0-1.94,4.53v4.4a2,2,0,0,0,2,2H454a2,2,0,0,0,2-2v-4.4a6.46,6.46,0,0,0-1.81-4.41,5,5,0,0,0-1.36-1.12,2.09,2.09,0,0,0-.4-.19l-.06,0a8.35,8.35,0,0,0,3.68-6.05,4.21,4.21,0,0,0,2.08-3.62,4.58,4.58,0,0,0-.08-.86l.72-1.15a4.2,4.2,0,0,0-1-5.51l-.92-.73.08-.17a3.47,3.47,0,0,0-1.55-4.66l-1.61-.81-.1-.05-4.55-2a7.26,7.26,0,0,0-2.89-.6Z"/><path class="cls-10" d="M672.25,191.7a1,1,0,0,1-1-1V186a4.82,4.82,0,0,1,2-3.87,6.59,6.59,0,0,1,3.26-1.42,4.17,4.17,0,0,1,1-.09v-1a9.27,9.27,0,0,1-3.3-6.31,3.14,3.14,0,0,1-2.28-2.56.61.61,0,0,1,0-.14v-.73a.66.66,0,0,1,0-.14,3,3,0,0,1,.09-.41.88.88,0,0,1-.1-.43v-5.51c0-4.39,4.75-9.49,10.87-9.49s10.86,5.1,10.86,9.49v5.61a1,1,0,0,1-.1.45,3.08,3.08,0,0,1,.1.8,3.22,3.22,0,0,1-2.2,3,8.55,8.55,0,0,1-3.39,6.52v.79a4.17,4.17,0,0,1,1,.09,6.58,6.58,0,0,1,3.29,1.45,4.78,4.78,0,0,1,2,3.84v4.68a1,1,0,0,1-1,1Z"/><path class="cls-12" d="M682.76,155c5.48,0,9.86,4.58,9.86,8.49v5.61h-.41a2.13,2.13,0,0,1,.41,1.25,2.24,2.24,0,0,1-2.19,2.19V173a7.56,7.56,0,0,1-3.46,6.36H687v2.27h.89a3.82,3.82,0,0,1,.89.07,5.7,5.7,0,0,1,2.85,1.24,3.82,3.82,0,0,1,1.6,3.07v4.68h-21V186a3.82,3.82,0,0,1,1.6-3.07,5.7,5.7,0,0,1,2.85-1.24,3.82,3.82,0,0,1,.89-.07h.89v-2.27h.25a8.16,8.16,0,0,1-3.58-6.72,3.85,3.85,0,0,0,0-.55s0,.45,0,.45,0-.1,0-.42h0v.37a2.19,2.19,0,0,1-2.19-1.83v-.73a2.07,2.07,0,0,1,.43-1h-.43v-5.51c0-3.91,4.38-8.49,9.87-8.49m0-2c-6.69,0-11.87,5.64-11.87,10.49V169a1.86,1.86,0,0,0,.06.48,1.55,1.55,0,0,0,0,.21c0,.1,0,.2,0,.29v.73a2.83,2.83,0,0,0,0,.29,4.12,4.12,0,0,0,2.35,3.13,10.28,10.28,0,0,0,2.85,5.69,7.69,7.69,0,0,0-3.49,1.6,5.79,5.79,0,0,0-2.37,4.64v4.68a2,2,0,0,0,2,2h21a2,2,0,0,0,2-2V186a5.79,5.79,0,0,0-2.37-4.64,7.58,7.58,0,0,0-3.3-1.56,9.58,9.58,0,0,0,2.79-5.82,4.24,4.24,0,0,0,2.24-3.69,4.4,4.4,0,0,0-.06-.73,2.24,2.24,0,0,0,.06-.52v-5.61c0-4.85-5.18-10.49-11.86-10.49Z"/><path class="cls-10" d="M675.28,243.62a1,1,0,0,1-1-1v-4.54a5.29,5.29,0,0,1,1.69-3.93,7.71,7.71,0,0,1,1-.81l.13-.08a5.59,5.59,0,0,1,2.51-.73v-.31c-.28-.12-.57-.27-.87-.42a6.62,6.62,0,0,1-1.16.07,5.55,5.55,0,0,1-5.55-5.54v-9.1a11.24,11.24,0,0,1,22.47,0v9.25a1,1,0,0,1,0,.17,5.6,5.6,0,0,1-5.54,5.22,6.72,6.72,0,0,1-1.16-.11,9,9,0,0,1-.87.46v.31a5.63,5.63,0,0,1,2.52.73,4.28,4.28,0,0,1,1.18,1,5.6,5.6,0,0,1,1.61,3.85v4.54a1,1,0,0,1-1,1Z"/><path class="cls-12" d="M683.24,207a10.19,10.19,0,0,1,10.23,10.23v9.25h0a4.55,4.55,0,0,1-4.54,4.39,6.43,6.43,0,0,1-1.29-.15v-.07a7.59,7.59,0,0,1-1.74.91v2h.76a4.6,4.6,0,0,1,2.27.6,3.15,3.15,0,0,1,.91.76,4.53,4.53,0,0,1,1.37,3.19v4.54H675.28v-4.54a4.3,4.3,0,0,1,1.36-3.19,8.72,8.72,0,0,1,.91-.76,4.61,4.61,0,0,1,2.28-.6h.75v-2a12.16,12.16,0,0,1-1.74-.84,3.58,3.58,0,0,1-1.29.15,4.56,4.56,0,0,1-4.55-4.54v-9.1A10.19,10.19,0,0,1,683.24,207m0-2A12.24,12.24,0,0,0,671,217.23v9.1a6.55,6.55,0,0,0,5.11,6.38,10.15,10.15,0,0,0-.85.74,6.29,6.29,0,0,0-2,4.63v4.54a2,2,0,0,0,2,2H691.2a2,2,0,0,0,2-2v-4.54a6.58,6.58,0,0,0-1.86-4.51,4.62,4.62,0,0,0-.94-.86,6.51,6.51,0,0,0,5.05-6c0-.1,0-.19,0-.28v-9.25A12.24,12.24,0,0,0,683.24,205Z"/><path class="cls-10" d="M83.11,299.34a1,1,0,0,1-1-1v-4.72a5.45,5.45,0,0,1,1.74-4.05,5.68,5.68,0,0,1,3.88-1.67v-.34a9.72,9.72,0,0,1-2.89-2,9.25,9.25,0,0,1-2.65-5.26,3.4,3.4,0,0,1-2.44-3A4.55,4.55,0,0,1,77,273.16a4.62,4.62,0,0,1,1.66-3.51,4,4,0,0,1-.09-.82,3.33,3.33,0,0,1,3.37-3.36l.37,0a11.24,11.24,0,0,1,9.46-5.14A10.46,10.46,0,0,1,102.2,270.8v4.1a3.46,3.46,0,0,1,.79,2.19,3.37,3.37,0,0,1-2.45,3.24,9.23,9.23,0,0,1-5.3,7.15v.43A5.39,5.39,0,0,1,99,289.64a5.67,5.67,0,0,1,1.68,4v4.72a1,1,0,0,1-1,1Z"/><path class="cls-12" d="M91.76,261.35a9.47,9.47,0,0,1,9.44,9.45v4.32l-.21,0a2.37,2.37,0,0,1-1.36,4.31v-.39a8.18,8.18,0,0,1-5.39,7.74v2.1h.67a4.43,4.43,0,0,1,3.3,1.41,4.71,4.71,0,0,1,1.42,3.31v4.72H83.11v-4.72a4.47,4.47,0,0,1,1.41-3.31,4.75,4.75,0,0,1,3.31-1.41h.9v-2l-.12,0a8.76,8.76,0,0,1-3.06-2,8.18,8.18,0,0,1-2.44-5.82v.39a2.36,2.36,0,0,1-2.36-2.36c0-.16.07-.31.07-.47A3.55,3.55,0,0,1,78,273.16,3.68,3.68,0,0,1,79.88,270a2,2,0,0,1-.32-1.18,2.32,2.32,0,0,1,2.37-2.36,2.74,2.74,0,0,1,.86.16,10.24,10.24,0,0,1,9-5.28m0-2a12.22,12.22,0,0,0-10,5.12,4.32,4.32,0,0,0-4.23,4.36,3.64,3.64,0,0,0,0,.45,5.59,5.59,0,0,0-1.6,3.88A5.53,5.53,0,0,0,78.84,278a4.37,4.37,0,0,0,2.46,3.07,10.36,10.36,0,0,0,2.83,5.24,11,11,0,0,0,1.27,1.08,7,7,0,0,0-2.26,1.48,6.49,6.49,0,0,0-2,4.76v4.72a2,2,0,0,0,2,2H99.63a2,2,0,0,0,2-2v-4.72a6.75,6.75,0,0,0-2-4.69,6.18,6.18,0,0,0-2.26-1.55,10.3,10.3,0,0,0,4-6.32,4.39,4.39,0,0,0,1.77-6.5V270.8a11.46,11.46,0,0,0-11.44-11.45Z"/><text class="cls-13" transform="translate(363.39 146.42)">encryp<tspan class="cls-14" x="31.38" y="0">t</tspan><tspan x="34.99" y="0">ed data</tspan></text><text class="cls-15" transform="translate(463.02 176.02)">ap<tspan class="cls-16" x="12.7" y="0">p</tspan><tspan x="19.26" y="0">lic</tspan><tspan class="cls-17" x="32.1" y="0">a</tspan><tspan x="37.72" y="0">tion </tspan><tspan class="cls-18"><tspan x="-13.68" y="10">(no sour</tspan><tspan class="cls-19" x="14.05" y="10">c</tspan><tspan x="17.48" y="10">e </tspan><tspan class="cls-20" x="23.68" y="10">c</tspan><tspan x="27.1" y="10">ode changes)</tspan></tspan></text><text class="cls-13" transform="translate(360.87 269.67)">encryp<tspan class="cls-21" x="31.38" y="0">t</tspan><tspan x="34.99" y="0">ed pro</tspan><tspan class="cls-22" x="65.02" y="0">c</tspan><tspan x="69.73" y="0">essing</tspan></text><text class="cls-23" transform="translate(504.91 79.01)">Untrusted <tspan class="cls-24" x="-46.19" y="14.4">r</tspan><tspan x="-41.25" y="14.4">e</tspan><tspan class="cls-25" x="-34.86" y="14.4">m</tspan><tspan x="-23.75" y="14.4">ote computers</tspan></text><text class="cls-15" transform="translate(483.34 227.12)"><tspan class="cls-26">v</tspan><tspan class="cls-16" x="6.19" y="0">o</tspan><tspan x="12.25" y="0">l</tspan></text><rect class="cls-11" x="457.19" y="208.19" width="68.7" height="30.56" rx="5"/><path class="cls-12" d="M95.14,276a.76.76,0,0,1,.72.71.71.71,0,1,1-.72-.71Z"/><circle class="cls-12" cx="87.39" cy="276.67" r="0.72"/><path class="cls-27" d="M89.18,282.35a2.53,2.53,0,0,0,2.09,1.07,2.62,2.62,0,0,0,2.08-1.07"/><text class="cls-28" transform="translate(50.51 182.72)">D<tspan class="cls-29" x="8.43" y="0">a</tspan><tspan x="14.68" y="0">ta scientist</tspan><tspan class="cls-30"><tspan x="27.83" y="12">(user)</tspan></tspan></text><text class="cls-28" transform="translate(24.44 315.67)">Inf<tspan class="cls-31" x="16.59" y="0">r</tspan><tspan x="21.62" y="0">astructu</tspan><tspan class="cls-32" x="70.67" y="0">r</tspan><tspan x="75.71" y="0">e P</tspan><tspan class="cls-31" x="93.15" y="0">r</tspan><tspan class="cls-33" x="98.18" y="0">o</tspan><tspan x="104.96" y="0">vider</tspan><tspan class="cls-30"><tspan class="cls-34" x="-0.98" y="12">(</tspan><tspan x="1.76" y="12">opera</tspan><tspan class="cls-35" x="25.97" y="12">t</tspan><tspan x="29.25" y="12">es </tspan><tspan class="cls-20" x="41.21" y="12">c</tspan><tspan x="45.49" y="12">ompu</tspan><tspan class="cls-35" x="69.77" y="12">t</tspan><tspan x="73.05" y="12">ers &amp; servi</tspan><tspan class="cls-20" x="119.41" y="12">c</tspan><tspan x="123.69" y="12">es)</tspan></tspan></text><text class="cls-28" transform="translate(649.05 260.92)">D<tspan class="cls-29" x="8.43" y="0">a</tspan><tspan x="14.68" y="0">ta Ow</tspan><tspan class="cls-36" x="47.45" y="0">n</tspan><tspan x="55.16" y="0">er</tspan><tspan class="cls-30"><tspan x="-19.49" y="12">(wants </tspan><tspan class="cls-37" x="11.36" y="12">t</tspan><tspan class="cls-38" x="14.64" y="12">o moneti</tspan><tspan class="cls-39" x="52.77" y="12">z</tspan><tspan x="57.08" y="12">e data)</tspan></tspan></text><text class="cls-28" transform="translate(623.47 126.86)">Ap<tspan class="cls-31" x="16.21" y="0">p</tspan><tspan x="23.5" y="0">lic</tspan><tspan class="cls-29" x="37.8" y="0">a</tspan><tspan x="44.05" y="0">tion P</tspan><tspan class="cls-40" x="78.12" y="0">r</tspan><tspan class="cls-41" x="83.15" y="0">o</tspan><tspan x="89.92" y="0">vider</tspan><tspan class="cls-30"><tspan x="1.05" y="12">(pr</tspan><tspan class="cls-42" x="12.66" y="12">o</tspan><tspan x="17.9" y="12">vides </tspan><tspan class="cls-20" x="42.74" y="12">c</tspan><tspan x="47.02" y="12">ontainer images)</tspan></tspan></text><path class="cls-12" d="M686.41,169.17a.79.79,0,0,1,.73.74.73.73,0,1,1-.73-.74Z"/><circle class="cls-12" cx="679.1" cy="169.91" r="0.73"/><path class="cls-43" d="M687,179.7V182h.89a3.82,3.82,0,0,1,.89.07,5.62,5.62,0,0,1,2.85,1.24,3.82,3.82,0,0,1,1.6,3.07V191h-21v-4.68a3.82,3.82,0,0,1,1.6-3.07A5.62,5.62,0,0,1,676.7,182a3.82,3.82,0,0,1,.89-.07h.89V179.7"/><path class="cls-27" d="M675.08,168.52c0,1.82.07,2.63.07,4.45a7.88,7.88,0,0,0,7.61,8,7.61,7.61,0,0,0,7.67-7.6v-5.1"/><path class="cls-27" d="M675.08,168.44v-1.9c1.46-.36,7.46.08,10.6-5,0,0,.66,1.9,4.75,4.82v2.12"/><path class="cls-27" d="M692.62,170.64a2.24,2.24,0,0,1-2.19,2.19v-4.39A2.25,2.25,0,0,1,692.62,170.64Z"/><path class="cls-27" d="M672.89,170.27V171a2.2,2.2,0,0,0,2.19,1.83v-4.39A2.2,2.2,0,0,0,672.89,170.27Z"/><path class="cls-27" d="M680.64,175.39a2.56,2.56,0,0,0,2.12,1.09,2.7,2.7,0,0,0,2.12-1.09"/><path class="cls-27" d="M672.89,169.29v-5.52c0-3.9,4.38-8.48,9.87-8.48s9.86,4.58,9.86,8.48v5.62"/><path class="cls-27" d="M681.37,169.49c0,.12.06.3.06.42a2.37,2.37,0,0,1-4.74,0,1.85,1.85,0,0,1,.06-.6,2.36,2.36,0,0,1,2.31-1.78A2.3,2.3,0,0,1,681.37,169.49Z"/><path class="cls-27" d="M688.76,169.31a1.85,1.85,0,0,1,.06.6,2.37,2.37,0,1,1-4.74,0,1,1,0,0,1,.06-.42,2.35,2.35,0,0,1,2.31-2A2.41,2.41,0,0,1,688.76,169.31Z"/><path class="cls-27" d="M681.43,169.61a2.17,2.17,0,0,1,1.33-.42,2.15,2.15,0,0,1,1.32.42"/><path class="cls-27" d="M673.76,168.86a2.28,2.28,0,0,1,2.64,0"/><path class="cls-27" d="M689.11,168.86a2.28,2.28,0,0,1,2.64,0"/><path class="cls-10" d="M80.53,163.3a1,1,0,0,1-1-1v-5.48a6.14,6.14,0,0,1,2-4.58,6.49,6.49,0,0,1,4.45-1.9v-1a9.47,9.47,0,0,1-5.08-6.79,3.71,3.71,0,0,1-.66-.24,3.44,3.44,0,0,1-1.94-3.09,3.31,3.31,0,0,1,.33-1.45,4.23,4.23,0,0,1,2.6-7.25,9.59,9.59,0,0,1,9-6.51,9.49,9.49,0,0,1,9,6.53,4.26,4.26,0,0,1,3.74,4.22,4.31,4.31,0,0,1-1.18,2.92,3.4,3.4,0,0,1,.37,1.54,3.46,3.46,0,0,1-2.59,3.32,9.54,9.54,0,0,1-5,6.79v1a6.23,6.23,0,0,1,4.34,2,6.42,6.42,0,0,1,1.92,4.51v5.48a1,1,0,0,1-1,1Z"/><path class="cls-12" d="M90.26,125.06a8.52,8.52,0,0,1,8.27,6.5h.25a3.26,3.26,0,0,1,3.25,3.25,3.34,3.34,0,0,1-1.53,2.75,2.39,2.39,0,0,1,.72,1.71,2.45,2.45,0,0,1-2.38,2.43l-.12.15a8.5,8.5,0,0,1-5.14,6.89v2.6h.74A5.22,5.22,0,0,1,98.18,153a5.48,5.48,0,0,1,1.66,3.84v5.48H80.53v-5.48A5.14,5.14,0,0,1,82.19,153a5.53,5.53,0,0,1,3.86-1.64H87V149h.17v-.15a8.5,8.5,0,0,1-5.35-7l-.1-.15a2.26,2.26,0,0,1-1-.24,2.45,2.45,0,0,1-1.38-2.19,2.42,2.42,0,0,1,.86-1.84l-.08-.41-.19.54a3.35,3.35,0,0,1-1.54-2.76,3.26,3.26,0,0,1,3.25-3.25h.18l.31-.39a8.53,8.53,0,0,1,8.17-6.1h0m0-2a10.59,10.59,0,0,0-9.77,6.61,5.23,5.23,0,0,0-3,8.36,4.33,4.33,0,0,0-.18,1.24,4.43,4.43,0,0,0,2.49,4l.25.11a10.42,10.42,0,0,0,4.26,6.2,7.74,7.74,0,0,0-3.48,2,7.16,7.16,0,0,0-2.28,5.29v5.48a2,2,0,0,0,2,2H99.84a2,2,0,0,0,2-2v-5.48a7.49,7.49,0,0,0-2.21-5.22,7.06,7.06,0,0,0-3.43-2,10.57,10.57,0,0,0,4.29-6.23,4.45,4.45,0,0,0,2.73-4.08,4.52,4.52,0,0,0-.22-1.37,5.22,5.22,0,0,0-3-8.19,10.49,10.49,0,0,0-9.78-6.65Z"/><path class="cls-27" d="M87,148.87v2.39h-.92a5.51,5.51,0,0,0-3.86,1.66,5.16,5.16,0,0,0-1.66,3.86v5.52H99.84v-5.52a5.51,5.51,0,0,0-1.66-3.86,5.2,5.2,0,0,0-3.86-1.66H93.4v-2.39"/><path class="cls-27" d="M88.43,144.53a2.34,2.34,0,0,0,1.92,1,2.44,2.44,0,0,0,1.92-1"/><path class="cls-12" d="M93.71,139a.86.86,0,0,1,.81.81.81.81,0,1,1-.81-.81Z"/><circle class="cls-12" cx="86.97" cy="139.78" r="0.81"/><path class="cls-27" d="M99.84,137.07a2.44,2.44,0,0,1-1.06,4.63v-4.87A2.3,2.3,0,0,1,99.84,137.07Z"/><path class="cls-27" d="M80.67,141.46a2.44,2.44,0,0,1,1.06-4.63v4.87A2.3,2.3,0,0,1,80.67,141.46Z"/><path class="cls-27" d="M88.19,136.13a.81.81,0,0,1,0,1.62H85.75a.81.81,0,0,1,0-1.62Z"/><path class="cls-27" d="M95.75,136.94a.88.88,0,0,1-.81.81H92.5a.81.81,0,0,1,0-1.62h2.44A.87.87,0,0,1,95.75,136.94Z"/><path class="cls-27" d="M79.88,137.56a3.35,3.35,0,0,1-1.54-2.76,3.26,3.26,0,0,1,3.25-3.25h.32"/><path class="cls-27" d="M100.49,137.57a3.37,3.37,0,0,0,1.54-2.76,3.26,3.26,0,0,0-3.25-3.25h-.32"/><rect class="cls-27" x="81.73" y="125.06" width="17.05" height="24.36" rx="8.13"/><text class="cls-28" transform="translate(244.38 68.07)">Se<tspan class="cls-44" x="13.95" y="0">r</tspan><tspan x="19.21" y="0">vice P</tspan><tspan class="cls-31" x="54.02" y="0">r</tspan><tspan class="cls-33" x="59.06" y="0">o</tspan><tspan x="65.83" y="0">vider</tspan><tspan class="cls-30"><tspan class="cls-34" x="10.57" y="12">(</tspan><tspan x="13.31" y="12">opera</tspan><tspan class="cls-35" x="37.52" y="12">t</tspan><tspan x="40.8" y="12">es servi</tspan><tspan class="cls-20" x="72.95" y="12">c</tspan><tspan x="77.23" y="12">e)</tspan></tspan></text><path class="cls-12" d="M296.08,24.71a.76.76,0,0,1,.71.71.71.71,0,1,1-.71-.71Z"/><circle class="cls-12" cx="290.2" cy="25.42" r="0.71"/><path class="cls-27" d="M295.88,30.69a2.76,2.76,0,0,1-2.72,2.4,2.86,2.86,0,0,1-2.81-2.4Z"/><polyline class="cls-27" points="284.74 23.47 284.74 22.67 284.74 20.67"/><path class="cls-27" d="M284.74,28.28v-.4"/><path class="cls-27" d="M301.58,27.88v.4"/><polyline class="cls-27" points="301.57 20.67 301.57 22.51 301.57 23.47"/><path class="cls-27" d="M301.58,27.48v-4a2.7,2.7,0,0,1,1.36.4,2.41,2.41,0,0,1,1,2,2.46,2.46,0,0,1-2.4,2.4"/><path class="cls-27" d="M284.74,27.48v-4a2.18,2.18,0,0,0-1.68.72,2.52,2.52,0,0,0-.72,1.69,2.41,2.41,0,0,0,2.4,2.4"/><path class="cls-27" d="M290.35,30.69a2.79,2.79,0,0,0,2.81,2.4,2.7,2.7,0,0,0,2.72-2.4h-5.53Z"/><path class="cls-27" d="M282.74,23.87l-1.2-4c-1.52-5.13,2.56-10,5.93-10h7.69a2.36,2.36,0,0,1,2.41,2.4c5.6.74,7.85,2.49,6,11.62"/><path class="cls-27" d="M284.74,22.67h2.41a1.6,1.6,0,0,0,1.6-1.6,2.21,2.21,0,0,1,.72-1.69,2.67,2.67,0,0,1,1.69-.72h.48a5.76,5.76,0,0,0,4-1.6l1.21-1.2v.32a5.86,5.86,0,0,0,2.32,4.57l2.49,1.76"/><path class="cls-27" d="M294.36,28.28h-4.09a1.6,1.6,0,0,0-1.6,1.6v.65a1.15,1.15,0,0,1-1.2,1,1.23,1.23,0,0,1-1.2-1.21v-1.2a1.61,1.61,0,0,0-1.61-1.6v3.21a6.43,6.43,0,0,0,5.61,6.41c.24,0,.57.08.81.08h4.72a6.37,6.37,0,0,0,5.7-6.41V27.48a1.61,1.61,0,0,0-1.61,1.6v1.2a1.23,1.23,0,0,1-1.2,1.21,1.27,1.27,0,0,1-1.2-1v-.65a1.61,1.61,0,0,0-1.61-1.6H294.2"/><path class="cls-27" d="M290.35,37.43V39h-.8a2.72,2.72,0,0,0-.8.08,4.78,4.78,0,0,0-2.56,1.31,4.33,4.33,0,0,0-1.45,3.25v4.64h16.84V43.68a4.57,4.57,0,0,0-1.45-3.25,4.3,4.3,0,0,0-2.48-1.31,3.59,3.59,0,0,0-.88-.08H296V37.43"/><path class="cls-27" d="M680.58,231.56a12.16,12.16,0,0,1-1.74-.84,7.63,7.63,0,0,1-1.21-1,7.91,7.91,0,0,1-2.35-5.61"/><path class="cls-27" d="M691.2,224.05a7.92,7.92,0,0,1-3.57,6.6,7.59,7.59,0,0,1-1.74.91"/><path class="cls-27" d="M675.28,219.88v-.45c1.51-.38,7.73-2.2,11-7.51a12.17,12.17,0,0,0,4.93,7.28v.68"/><path class="cls-27" d="M693.47,222.16a2.33,2.33,0,0,1-2.27,2.27v-4.55A2.33,2.33,0,0,1,693.47,222.16Z"/><path class="cls-27" d="M673,221.78v.76a2.29,2.29,0,0,0,2.28,1.89v-4.55A2.3,2.3,0,0,0,673,221.78Z"/><path class="cls-27" d="M688.92,234.13a4.6,4.6,0,0,0-2.27-.6h-.76"/><path class="cls-27" d="M680.58,233.53h-.75a4.61,4.61,0,0,0-2.28.6"/><path class="cls-27" d="M677.55,234.13a8.72,8.72,0,0,0-.91.76,4.3,4.3,0,0,0-1.36,3.19v4.54H691.2v-4.54a4.53,4.53,0,0,0-1.37-3.19,3.15,3.15,0,0,0-.91-.76"/><path class="cls-27" d="M685.89,233.53v-2a7.85,7.85,0,0,1-2.65.45,8,8,0,0,1-2.66-.45v2"/><path class="cls-27" d="M681,227.84a2.66,2.66,0,0,0,2.2,1.14,2.76,2.76,0,0,0,2.19-1.14"/><path class="cls-27" d="M678.31,222.54a1.14,1.14,0,1,1,2.27,0"/><path class="cls-27" d="M685.89,222.54a1.14,1.14,0,1,1,2.27,0"/><path class="cls-27" d="M673,226.33v-9.1a10.24,10.24,0,0,1,20.47,0v9.25"/><path class="cls-27" d="M678.84,230.72a3.58,3.58,0,0,1-1.29.15,4.56,4.56,0,0,1-4.55-4.54"/><path class="cls-27" d="M693.47,226.33a4.56,4.56,0,0,1-4.55,4.54,6.43,6.43,0,0,1-1.29-.15"/><path class="cls-27" d="M682.4,221.63c0,.15.08.38.08.53a3,3,0,0,1-6.07,0,2.22,2.22,0,0,1,.08-.76,3,3,0,0,1,3-2.28A3,3,0,0,1,682.4,221.63Z"/><path class="cls-27" d="M690,221.4a2.22,2.22,0,0,1,.08.76,3,3,0,0,1-6.07,0,1.23,1.23,0,0,1,.08-.53,3,3,0,0,1,3-2.51A3.09,3.09,0,0,1,690,221.4Z"/><line class="cls-27" x1="689.98" y1="221.4" x2="691.2" y2="221.4"/><line class="cls-27" x1="675.28" y1="221.4" x2="676.49" y2="221.4"/><path class="cls-27" d="M682.48,221.63a1.22,1.22,0,0,1,.76-.23,1.19,1.19,0,0,1,.75.23"/><line class="cls-27" x1="83.42" y1="275.99" x2="84.64" y2="275.99"/><path class="cls-27" d="M90.63,276.27a1.17,1.17,0,0,1,1.52,0"/><path class="cls-27" d="M94.12,288.9h.79a4.43,4.43,0,0,1,3.3,1.41,4.71,4.71,0,0,1,1.42,3.31v4.72H83.11v-4.72a4.47,4.47,0,0,1,1.41-3.31,4.75,4.75,0,0,1,3.31-1.41h.78"/><path class="cls-27" d="M88.61,288.9v-2"/><path class="cls-27" d="M94.12,286.85v2"/><path class="cls-27" d="M83.11,274.73a2.29,2.29,0,0,0-2.29,1.89c0,.16-.07.31-.07.47a2.36,2.36,0,0,0,2.36,2.36v-.39"/><path class="cls-27" d="M100.13,279.64a2.28,2.28,0,0,0,2.28-1.89c0-.16.08-.31.08-.47a2.36,2.36,0,0,0-2.36-2.36"/><path class="cls-27" d="M80.82,276.62A3.55,3.55,0,0,1,78,273.16,3.68,3.68,0,0,1,79.88,270a2,2,0,0,1-.31-1.18,2.31,2.31,0,0,1,2.36-2.36,2.74,2.74,0,0,1,.86.16,10.24,10.24,0,0,1,9-5.28,9.47,9.47,0,0,1,9.44,9.45v4.32"/><path class="cls-27" d="M94.12,268.83c.08,3.15-4.56,3.54-5.58,1.18.31,1.42-2.36,5.11-5.43,3.78v5.27a8.18,8.18,0,0,0,2.44,5.82,8.76,8.76,0,0,0,3.06,2,8.27,8.27,0,0,0,11-7.79v-5.67c-4.48-1.73-5.35-3.69-5.51-4.56"/><path class="cls-27" d="M84.8,275.25H90.3a0,0,0,0,1,0,0v1.36a2.57,2.57,0,0,1-2.57,2.57h-.57a2.36,2.36,0,0,1-2.36-2.36v-1.57A0,0,0,0,1,84.8,275.25Z"/><path class="cls-27" d="M95,275.25h.57a2.57,2.57,0,0,1,2.57,2.57v1.36a0,0,0,0,1,0,0H92.67a0,0,0,0,1,0,0v-1.57A2.36,2.36,0,0,1,95,275.25Z" transform="translate(190.84 554.43) rotate(-180)"/><text class="cls-28" transform="translate(426.79 391.07)"><tspan class="cls-45">A</tspan><tspan x="8.13" y="0">udi</tspan><tspan class="cls-46" x="26.96" y="0">t</tspan><tspan x="31.35" y="0">or</tspan><tspan class="cls-30"><tspan class="cls-34" x="-21.9" y="12">(</tspan><tspan x="-19.16" y="12">ch</tspan><tspan class="cls-35" x="-9.18" y="12">e</tspan><tspan x="-4.21" y="12">cks sour</tspan><tspan class="cls-20" x="30.33" y="12">c</tspan><tspan x="34.61" y="12">e </tspan><tspan class="cls-47" x="42.36" y="12">c</tspan><tspan x="46.64" y="12">ode)</tspan></tspan></text><path class="cls-12" d="M449.3,349.36a.77.77,0,0,1,.72.72.71.71,0,1,1-.72-.72Z"/><circle class="cls-12" cx="443.55" cy="350.08" r="0.72"/><path class="cls-27" d="M444.34,354.75a2.51,2.51,0,0,0,2.09,1.08,2.6,2.6,0,0,0,2.08-1.08"/><path class="cls-27" d="M437,349a2.59,2.59,0,0,1,1.58-.5,2.56,2.56,0,0,1,1.57.5"/><path class="cls-27" d="M452.65,348.65c.43-.27.35-.18.92-.18a2.6,2.6,0,0,1,1.43.4"/><path class="cls-27" d="M448.61,359.63v1.91h.73a3.3,3.3,0,0,1,1.47.29c.22.07.51.22.73.29a2.82,2.82,0,0,1,.88.74,4.35,4.35,0,0,1,1.32,3.08v4.4h-15.4v-4.4a4.12,4.12,0,0,1,1.32-3.08,6.52,6.52,0,0,1,.88-.74c.22-.14.51-.22.73-.36a4.62,4.62,0,0,1,1.47-.22h.73v-1.91"/><path class="cls-27" d="M454.27,348.23h0a1.89,1.89,0,0,1,1.66,1.21,2,2,0,0,1,.19,1.12,2.1,2.1,0,0,1-2.13,2.06h0"/><path class="cls-27" d="M437.16,348.62a2.2,2.2,0,0,0,1.1,4.11v-4.4A2.09,2.09,0,0,0,437.16,348.62Z"/><path class="cls-27" d="M437.16,348.62l-1.46-1.83a2.29,2.29,0,0,1,.36-3.15l1.1-.81-.44-1.76a1.54,1.54,0,0,1,.74-1.69l1.9-.95,4.55-2a5.16,5.16,0,0,1,4.18,0l4.55,2,1.61.8a1.48,1.48,0,0,1,.67,2l-.81,1.61,2.2,1.76a2.16,2.16,0,0,1,.51,2.86l-1.17,1.2"/><path class="cls-27" d="M451,346.2a24.49,24.49,0,0,1-9.61-2.2,9.84,9.84,0,0,1-2.93,4.4v4a7.67,7.67,0,0,0,2.27,5.43,8.45,8.45,0,0,0,2.86,1.83h0a7.67,7.67,0,0,0,2.57.44,6.34,6.34,0,0,0,2.06-.29c.14-.08.36-.08.51-.15h0a7.7,7.7,0,0,0,5.13-6.89V348.4"/><path class="cls-27" d="M450.44,344.3a5.07,5.07,0,0,0,.59,1.83,4,4,0,0,0,2.71,2.2"/><path class="cls-27" d="M445.42,349.65a3.47,3.47,0,0,1,1.3-.34,1.16,1.16,0,0,1,.7.34"/><ellipse class="cls-27" cx="442.92" cy="349.65" rx="2.5" ry="2"/><ellipse class="cls-27" cx="449.92" cy="349.65" rx="2.5" ry="2"/><text class="cls-48" transform="translate(594.38 215.66)">pr<tspan class="cls-49" x="8.35" y="0">o</tspan><tspan x="13.15" y="0">vides</tspan></text><text class="cls-48" transform="translate(163.91 138.1)">uses</text><text class="cls-48" transform="translate(160.99 263.64)">operates</text><text class="cls-48" transform="translate(160.99 285.88)">operates cloud</text><text class="cls-48" transform="translate(594.38 164.63)">pr<tspan class="cls-49" x="8.35" y="0">o</tspan><tspan x="13.15" y="0">vides</tspan></text><text class="cls-48" transform="translate(431.67 326.79)">checks</text><text class="cls-50" transform="translate(343.38 108.49) scale(1.01 1)">alw<tspan class="cls-51" x="20.04" y="0">a</tspan><tspan x="26.54" y="0">ys </tspan><tspan x="0" y="14.4">e</tspan><tspan class="cls-52" x="6.39" y="14.4">n</tspan><tspan x="13.95" y="14.4">c</tspan><tspan class="cls-53" x="20.27" y="14.4">r</tspan><tspan x="25.43" y="14.4">ypted</tspan></text></g><g id="Ebene_4" data-name="Ebene 4"><rect class="cls-54" x="228.39" y="186.32" width="109.75" height="38.46" rx="5"/><polyline class="cls-55" points="311.59 203.32 348.06 203.32 348.06 175.73 446.96 175.39"/><polygon class="cls-56" points="442.34 181.13 441.38 180.11 446.42 175.4 441.35 170.71 442.3 169.68 448.48 175.39 442.34 181.13"/><line class="cls-57" x1="467.29" y1="327.62" x2="467.29" y2="196.49"/><polygon class="cls-12" points="473.02 201.13 471.99 202.09 467.29 197.03 462.59 202.09 461.57 201.13 467.29 194.97 473.02 201.13"/><line class="cls-57" x1="662.55" y1="221.71" x2="532.16" y2="221.71"/><polygon class="cls-12" points="536.8 215.98 537.75 217.01 532.7 221.71 537.75 226.41 536.8 227.43 530.64 221.71 536.8 215.98"/><line class="cls-57" x1="662.55" y1="170.68" x2="532.16" y2="170.68"/><polygon class="cls-12" points="536.8 164.96 537.75 165.98 532.7 170.68 537.75 175.38 536.8 176.41 530.64 170.68 536.8 164.96"/><line class="cls-57" x1="124.67" y1="143.36" x2="265.07" y2="143.36"/><polygon class="cls-12" points="260.43 149.08 259.47 148.06 264.53 143.36 259.47 138.66 260.43 137.63 266.58 143.36 260.43 149.08"/><line class="cls-57" x1="292.49" y1="90.19" x2="292.49" y2="125.15"/><polygon class="cls-12" points="286.77 120.51 287.79 119.56 292.49 124.61 297.19 119.56 298.22 120.51 292.49 126.67 286.77 120.51"/><line class="cls-57" x1="124.67" y1="290.9" x2="416.81" y2="290.9"/><polygon class="cls-12" points="412.18 296.62 411.22 295.6 416.28 290.9 411.22 286.2 412.18 285.17 418.33 290.9 412.18 296.62"/><path class="cls-57" d="M124.67,268.83h116a5,5,0,0,0,5-5V236"/><polygon class="cls-12" points="251.36 240.65 250.33 241.61 245.63 236.55 240.93 241.61 239.91 240.65 245.63 234.49 251.36 240.65"/><path class="cls-57" d="M422.28,323.62H264.46a5,5,0,0,1-5-5V236.39"/><polygon class="cls-12" points="265.19 241.03 264.16 241.99 259.46 236.93 254.76 241.99 253.73 241.03 259.46 234.87 265.19 241.03"/><line class="cls-58" x1="308.57" y1="192.08" x2="308.58" y2="163.02"/><polygon class="cls-59" points="314.31 167.66 313.28 168.61 308.58 163.56 303.88 168.61 302.85 167.65 308.58 161.5 314.31 167.66"/><polyline class="cls-60" points="311.46 209.6 330.46 209.6 330.48 163.2"/><polygon class="cls-61" points="336.2 167.84 335.18 168.79 330.48 163.73 325.78 168.79 324.75 167.83 330.48 161.68 336.2 167.84"/><text class="cls-62"><tspan class="cls-63" x="260.91" y="207.04">C</tspan><tspan x="267.09" y="207.04">AS</tspan></text><path class="cls-61" d="M308.78,208.46H298.61a4.72,4.72,0,1,0,0,2.28h3l1.36,1.35,1.36-1.35h.17l.86.86.8-.8,1.3,1.29,1.46-1.45,1.09-1Zm-16.57,2.39a1.25,1.25,0,1,1,1.25-1.25A1.25,1.25,0,0,1,292.21,210.85Z"/><g id="Scone_logo_white" data-name="Scone logo white"><g class="cls-64"><g class="cls-64"><path class="cls-65" d="M272.93,218h-.54a.2.2,0,0,0-.2.2v.55a.2.2,0,0,0,.2.21h.54a.21.21,0,0,0,.21-.21v-.55a.2.2,0,0,0-.21-.2m-1.87,1h.54a.21.21,0,0,0,.21-.21v-.55a.21.21,0,0,0-.21-.2h-.54a.2.2,0,0,0-.2.2v.55a.2.2,0,0,0,.2.21m-.58-.21v-.55a.2.2,0,0,0-.2-.2h-.54a.21.21,0,0,0-.21.2v.55a.21.21,0,0,0,.21.21h.54a.2.2,0,0,0,.2-.21m2.49.59a.16.16,0,0,0-.15.16v.64a.15.15,0,0,0,.15.15.16.16,0,0,0,.16-.15v-.64a.15.15,0,0,0-.16-.16m-1.47.21v.54a.2.2,0,0,0,.2.21h.54a.21.21,0,0,0,.21-.21v-.54a.21.21,0,0,0-.21-.21h-.54a.2.2,0,0,0-.2.21m-.39.54v-.54a.2.2,0,0,0-.2-.21h-.54a.21.21,0,0,0-.21.21v.54a.21.21,0,0,0,.21.21h.54a.2.2,0,0,0,.2-.21m1.82.59h-.54a.21.21,0,0,0-.2.21v.55a.2.2,0,0,0,.2.2h.54a.2.2,0,0,0,.21-.2v-.55a.21.21,0,0,0-.21-.21m-1.39,0H271a.22.22,0,0,0-.21.21v.55a.21.21,0,0,0,.21.2h.54a.2.2,0,0,0,.2-.2v-.55a.21.21,0,0,0-.2-.21"/><path class="cls-65" d="M273.58,217.74a1.26,1.26,0,0,0,.84.26s0,0,0,0v1.48c0,.57-.69.92-.86,1,0,0,0,0,0,0v-2.77s0,0,0,0"/><path class="cls-65" d="M272,217.67c1.14,0,1.32-.44,1.32-.44a.06.06,0,0,1,.06,0s0,0,.05,0,.17.43,1.31.43c0,0,0,0,0,0v1.94c0,.62-1.18,1.32-1.2,1.33a.09.09,0,0,0,0,.05v.48s.07,0,.1,0c.44-.24,1.66-.91,1.66-1.73v-2.48c0-.05-.08-.08-.12-.08-1.44,0-1.71-.52-1.71-.52s-.06,0-.09,0-.06,0-.07,0-.23.54-1.67.54c-.05,0-.06,0-.06.07v.31s0,.07,0,.07l.38,0"/><path class="cls-66" d="M276.33,220.84l.58-.22a.79.79,0,0,0,.75.44.77.77,0,0,0,.45-.11.34.34,0,0,0,.18-.31c0-.31-.42-.49-.73-.62h0a2.46,2.46,0,0,1-.67-.37.82.82,0,0,1-.33-.68.89.89,0,0,1,.34-.71,1.31,1.31,0,0,1,.86-.29,1.21,1.21,0,0,1,1.13.62l-.6.22a.45.45,0,0,0-.2-.21.88.88,0,0,0-.33-.07c-.33,0-.56.17-.56.41a.45.45,0,0,0,.23.37,3.05,3.05,0,0,0,.51.27l.08,0c.44.19,1,.42,1,1a.88.88,0,0,1-.4.74,1.59,1.59,0,0,1-.94.27,1.39,1.39,0,0,1-1.32-.79"/><path class="cls-66" d="M281.46,221.61a2,2,0,0,1-.72-.14,1.7,1.7,0,0,1-.57-.39,1.77,1.77,0,0,1-.4-.58,1.9,1.9,0,0,1,0-1.43,1.88,1.88,0,0,1,.4-.58,1.7,1.7,0,0,1,.57-.39,2,2,0,0,1,.72-.14,1.77,1.77,0,0,1,.82.19,1.81,1.81,0,0,1,.63.53l-.48.36a1.33,1.33,0,0,0-.43-.35,1.31,1.31,0,0,0-.55-.13,1.23,1.23,0,0,0-1.23,1.23,1.16,1.16,0,0,0,.36.86,1.19,1.19,0,0,0,.87.37,1.25,1.25,0,0,0,1.06-.63l.53.29a1.87,1.87,0,0,1-.66.68,1.72,1.72,0,0,1-.92.25"/><path class="cls-66" d="M285.46,221.63a2,2,0,0,1-.72-.15,1.85,1.85,0,0,1-.58-.39,1.91,1.91,0,0,1-.39-.58,2,2,0,0,1-.14-.71,1.78,1.78,0,0,1,.14-.72,2,2,0,0,1,.39-.58,2.36,2.36,0,0,1,.58-.39,1.9,1.9,0,0,1,1.43,0,1.91,1.91,0,0,1,.58.39,2,2,0,0,1,.39.58,1.9,1.9,0,0,1,0,1.43,1.91,1.91,0,0,1-.39.58,1.87,1.87,0,0,1-1.29.54m0-3.07a1.15,1.15,0,0,0-.87.36,1.23,1.23,0,0,0-.36.87,1.15,1.15,0,0,0,.36.86,1.19,1.19,0,0,0,.87.37,1.17,1.17,0,0,0,.86-.37,1.19,1.19,0,0,0,.37-.86,1.25,1.25,0,0,0-.37-.87,1.19,1.19,0,0,0-.86-.36"/><polygon class="cls-66" points="291.44 217.99 291.44 221.71 288.88 219.35 288.88 221.56 288.23 221.56 288.23 217.85 290.79 220.22 290.79 217.99 291.44 217.99"/><polygon class="cls-66" points="293.19 218.54 293.19 219.49 294.97 219.49 294.97 220.04 293.19 220.04 293.19 221 295.19 221 295.19 221.56 292.53 221.56 292.53 217.99 295.19 217.99 295.19 218.55 293.19 218.55 293.19 218.54"/></g></g></g><path class="cls-56" d="M308.78,202.18H298.61a4.72,4.72,0,1,0,0,2.27h3l1.36,1.36,1.36-1.36h.17l.86.86.8-.8,1.3,1.3,1.46-1.45,1.09-1Zm-16.57,2.38a1.25,1.25,0,1,1,1.25-1.24A1.24,1.24,0,0,1,292.21,204.56Z"/><path class="cls-59" d="M308.78,195.66H298.61a4.73,4.73,0,1,0,0,2.27h3l1.36,1.36,1.36-1.36h.17l.86.87.8-.8,1.3,1.29,1.46-1.45,1.09-1Zm-16.57,2.39a1.25,1.25,0,1,1,1.25-1.25A1.25,1.25,0,0,1,292.21,198.05Z"/></g></svg>