<svg xmlns="http://www.w3.org/2000/svg" xmlns:xlink="http://www.w3.org/1999/xlink" viewBox="0 0 843.32 231.83"><defs><style>.cls-1,.cls-14,.cls-22,.cls-6{fill:none;}.cls-11,.cls-12,.cls-13,.cls-14,.cls-2,.cls-6{stroke:#fc0;}.cls-11,.cls-12,.cls-2,.cls-22,.cls-6{stroke-miterlimit:10;}.cls-11,.cls-12,.cls-13,.cls-14,.cls-2,.cls-22,.cls-6{stroke-width:2px;}.cls-2{fill:url(#Unbenannter_Verlauf_12);}.cls-19,.cls-20,.cls-3,.cls-7{font-size:12px;}.cls-20,.cls-3,.cls-7{fill:#306;}.cls-3{font-family:PTSans-Regular, PT Sans;}.cls-4{letter-spacing:-0.04em;}.cls-5{letter-spacing:-0.01em;}.cls-19,.cls-7{font-family:RobotoSlab-Bold, Roboto Slab;font-weight:700;}.cls-8{letter-spacing:-0.01em;}.cls-9{letter-spacing:-0.04em;}.cls-10{letter-spacing:0.01em;}.cls-11,.cls-13{fill:#fff;}.cls-12{fill:url(#Unbenannter_Verlauf_12-2);}.cls-13,.cls-14{stroke-linecap:round;stroke-linejoin:round;}.cls-15,.cls-19{fill:#fc0;}.cls-16{clip-path:url(#clip-path);}.cls-17{fill:#ffd138;}.cls-18{fill:#fdfeff;}.cls-20{font-family:PTSans-Italic, PT Sans;font-style:italic;}.cls-21{letter-spacing:-0.03em;}.cls-22{stroke:#39f;}.cls-23{fill:#39f;}</style><linearGradient id="Unbenannter_Verlauf_12" x1="330.76" y1="114.26" x2="500.76" y2="114.26" gradientTransform="translate(831.52 228.51) rotate(-180)" gradientUnits="userSpaceOnUse"><stop offset="0" stop-color="#906"/><stop offset="0.19" stop-color="#780066"/><stop offset="0.4" stop-color="#5a0066"/><stop offset="0.61" stop-color="#406"/><stop offset="0.81" stop-color="#370066"/><stop offset="1" stop-color="#306"/></linearGradient><linearGradient id="Unbenannter_Verlauf_12-2" x1="626.3" y1="113.18" x2="830.55" y2="113.18" gradientTransform="matrix(1, 0, 0, 1, 0, 0)" xlink:href="#Unbenannter_Verlauf_12"/><clipPath id="clip-path"><rect class="cls-1" x="697.95" y="180.98" width="53.61" height="10.5"/></clipPath></defs><title>staticcompilation</title><g id="Ebene_2" data-name="Ebene 2"><path class="cls-2" d="M335.76,95.49h160a5,5,0,0,1,5,5V133a0,0,0,0,1,0,0h-170a0,0,0,0,1,0,0V100.49A5,5,0,0,1,335.76,95.49Z" transform="translate(831.52 228.51) rotate(180)"/><text class="cls-3" transform="translate(390.43 156.33)">1 binar<tspan class="cls-4" x="36.04" y="0">y</tspan></text><text class="cls-3" transform="translate(709.43 220.67)">encla<tspan class="cls-5" x="27.53" y="0">v</tspan><tspan x="33.18" y="0">e</tspan></text><rect class="cls-6" x="13.65" y="20.98" width="170" height="30" rx="5"/><text class="cls-7" transform="translate(65.62 40.31)">Ap<tspan class="cls-8" x="15.88" y="0">p</tspan><tspan x="23.03" y="0">lic</tspan><tspan class="cls-9" x="37.05" y="0">a</tspan><tspan x="43.17" y="0">tion</tspan></text><rect class="cls-6" x="13.65" y="65.91" width="170" height="30" rx="5"/><text class="cls-7" transform="translate(40.34 85.25)">Ap<tspan class="cls-8" x="15.88" y="0">p</tspan><tspan x="23.03" y="0">lic</tspan><tspan class="cls-9" x="37.05" y="0">a</tspan><tspan x="43.17" y="0">tion lib</tspan><tspan class="cls-8" x="83.41" y="0">r</tspan><tspan x="88.35" y="0">aries</tspan></text><rect class="cls-6" x="13.65" y="109.83" width="170" height="30" rx="5"/><text class="cls-7" transform="translate(47.37 129.16)">libc (OS Inte<tspan class="cls-10" x="69.26" y="0">r</tspan><tspan x="74.43" y="0">face)</tspan></text><rect class="cls-11" x="641.74" y="55.13" width="170" height="108.36" rx="5"/><rect class="cls-12" x="626.3" y="23.64" width="204.26" height="179.09" rx="5"/><path class="cls-13" d="M719,13.78a11.74,11.74,0,1,1-3.51,8.39,11.53,11.53,0,0,1,2.39-7.1"/><path class="cls-14" d="M727.27,27.81H723c-.58,0-.8-.22-.8-.8V20.55c0-.58.22-.81.8-.81h8.46c.54,0,.77.23.77.77V27c0,.54-.23.77-.77.77C730.06,27.84,728.65,27.81,727.27,27.81Z"/><path class="cls-14" d="M722.91,19.18A4.53,4.53,0,0,1,725.55,15a4.19,4.19,0,0,1,5.77,2.86c.1.38.14.77.24,1.18"/><path class="cls-15" d="M726.56,25.05h0v.86c0,.17.07.23.26.23h.83c.23,0,.29-.06.29-.26V24.27a.37.37,0,0,1,.23-.38,1.21,1.21,0,0,0,.61-1.45,1.54,1.54,0,0,0-1.45-1,1.65,1.65,0,0,0-1.61.87,1.21,1.21,0,0,0,.55,1.51.41.41,0,0,1,.26.48A5.86,5.86,0,0,1,726.56,25.05Z"/><g id="Scone_logo_white" data-name="Scone logo white"><g class="cls-16"><g class="cls-16"><path class="cls-17" d="M705.06,183.65h-1.13a.43.43,0,0,0-.43.43v1.14a.43.43,0,0,0,.43.43h1.13a.43.43,0,0,0,.43-.43v-1.14a.43.43,0,0,0-.43-.43m-3.91,2h1.12a.43.43,0,0,0,.43-.43v-1.14a.43.43,0,0,0-.43-.43h-1.12a.43.43,0,0,0-.43.43v1.14a.43.43,0,0,0,.43.43m-1.21-.43v-1.14a.43.43,0,0,0-.43-.43h-1.12a.44.44,0,0,0-.44.43v1.14a.44.44,0,0,0,.44.43h1.12a.43.43,0,0,0,.43-.43m5.2,1.23a.33.33,0,0,0-.32.33v1.33a.33.33,0,1,0,.65,0v-1.33a.31.31,0,0,0-.33-.33m-3.08.43V188a.43.43,0,0,0,.43.43h1.12A.43.43,0,0,0,704,188v-1.15a.43.43,0,0,0-.43-.43h-1.12a.43.43,0,0,0-.43.43m-.8,1.15v-1.15a.44.44,0,0,0-.43-.43H699.7a.44.44,0,0,0-.43.43V188a.43.43,0,0,0,.43.43h1.13a.43.43,0,0,0,.43-.43m3.8,1.23h-1.13a.43.43,0,0,0-.43.43v1.15a.44.44,0,0,0,.43.43h1.13a.44.44,0,0,0,.43-.43v-1.15a.43.43,0,0,0-.43-.43m-2.92,0H701a.43.43,0,0,0-.43.43v1.15a.43.43,0,0,0,.43.43h1.12a.43.43,0,0,0,.43-.43v-1.15a.43.43,0,0,0-.43-.43"/><path class="cls-17" d="M706.42,183.19a2.56,2.56,0,0,0,1.75.54s0,.05,0,.09v3.09c0,1.18-1.45,1.92-1.79,2.11,0,0,0,0,0,0l0-5.79s0,0,0,0"/><path class="cls-17" d="M703,183c2.37-.08,2.76-.91,2.76-.91a.13.13,0,0,1,.11-.06s.09,0,.11,0,.36.89,2.74.89c.06,0,.09,0,.09.11v4.06c0,1.29-2.47,2.76-2.51,2.78s-.09.07-.09.09v1s.16.07.22,0c.91-.49,3.45-1.9,3.45-3.62v-5.18c0-.09-.15-.16-.23-.16-3,0-3.59-1.1-3.59-1.1s-.13,0-.19,0-.11,0-.13,0-.5,1.15-3.5,1.15c-.11,0-.13,0-.13.13v.64s0,.15.09.15.8,0,.8,0"/><path class="cls-18" d="M712.16,189.67l1.21-.45a1.65,1.65,0,0,0,1.58.9,1.72,1.72,0,0,0,.92-.21.74.74,0,0,0,.39-.65c0-.65-.88-1-1.53-1.3l0,0a5.56,5.56,0,0,1-1.41-.77,1.78,1.78,0,0,1-.69-1.43,1.92,1.92,0,0,1,.71-1.49,2.79,2.79,0,0,1,1.8-.6,2.57,2.57,0,0,1,2.37,1.29l-1.25.48a1,1,0,0,0-.43-.46,1.84,1.84,0,0,0-.69-.15c-.69,0-1.17.37-1.17.87a.94.94,0,0,0,.48.77,5.76,5.76,0,0,0,1.08.56l.15.07c.92.39,2.07.88,2.07,2.14a1.8,1.8,0,0,1-.82,1.53,3.3,3.3,0,0,1-2,.56,2.88,2.88,0,0,1-2.76-1.64"/><path class="cls-18" d="M722.87,191.29a4,4,0,0,1-1.49-.3,3.81,3.81,0,0,1-1.21-.82,3.51,3.51,0,0,1-.82-1.21,3.85,3.85,0,0,1,0-3,3.33,3.33,0,0,1,.82-1.21,3.51,3.51,0,0,1,1.21-.82,3.78,3.78,0,0,1,1.49-.3,3.78,3.78,0,0,1,3,1.51l-1,.75a2.63,2.63,0,0,0-.89-.73,2.72,2.72,0,0,0-1.16-.28,2.57,2.57,0,0,0-1.82,4.38,2.51,2.51,0,0,0,3.11.39,2.57,2.57,0,0,0,.93-.95l1.1.63a3.78,3.78,0,0,1-1.38,1.4,3.46,3.46,0,0,1-1.92.54"/><path class="cls-18" d="M731.22,191.31a4,4,0,0,1-1.49-.3,3.66,3.66,0,0,1-1.2-.82,3.84,3.84,0,0,1-1.13-2.7,3.46,3.46,0,0,1,.31-1.49,3.9,3.9,0,0,1,2-2,4,4,0,0,1,1.49-.3,4,4,0,0,1,1.49.3,3.33,3.33,0,0,1,1.21.82,3.81,3.81,0,0,1,0,5.4,4,4,0,0,1-1.21.82,4,4,0,0,1-1.49.3m0-6.41a2.5,2.5,0,0,0-1.81.75,2.61,2.61,0,0,0-.75,1.82,2.45,2.45,0,0,0,.75,1.81,2.55,2.55,0,0,0,3.63,0,2.57,2.57,0,0,0,.75-1.81,2.64,2.64,0,0,0-.75-1.82,2.59,2.59,0,0,0-1.82-.75"/><polygon class="cls-18" points="743.73 183.71 743.73 191.48 738.37 186.56 738.37 191.18 737.01 191.18 737.01 183.43 742.37 188.37 742.37 183.71 743.73 183.71"/><polygon class="cls-18" points="747.37 184.85 747.37 186.84 751.11 186.84 751.11 188.01 747.37 188.01 747.37 190.01 751.56 190.01 751.56 191.18 746.01 191.18 746.01 183.71 751.56 183.71 751.56 184.88 747.37 184.88 747.37 184.85"/></g></g></g><text class="cls-19" transform="translate(693.95 149.63)">SCONE libc</text><path class="cls-11" d="M646.74,53.36h160a5,5,0,0,1,5,5v67.36a0,0,0,0,1,0,0h-170a0,0,0,0,1,0,0V58.36A5,5,0,0,1,646.74,53.36Z"/><path class="cls-6" d="M646.74,125.36h160a5,5,0,0,1,5,5v32.53a0,0,0,0,1,0,0h-170a0,0,0,0,1,0,0V130.36A5,5,0,0,1,646.74,125.36Z" transform="translate(1453.47 288.26) rotate(180)"/><text class="cls-7" transform="translate(693.71 76.46)">Ap<tspan class="cls-8" x="15.88" y="0">p</tspan><tspan x="23.03" y="0">lic</tspan><tspan class="cls-9" x="37.05" y="0">a</tspan><tspan x="43.17" y="0">tion</tspan></text><text class="cls-7" transform="translate(668.42 113.4)">Ap<tspan class="cls-8" x="15.88" y="0">p</tspan><tspan x="23.03" y="0">lic</tspan><tspan class="cls-9" x="37.05" y="0">a</tspan><tspan x="43.17" y="0">tion lib</tspan><tspan class="cls-8" x="83.41" y="0">r</tspan><tspan x="88.35" y="0">aries</tspan></text><line class="cls-6" x1="641.36" y1="89.13" x2="810.64" y2="89.13"/><text class="cls-19" transform="translate(382.97 119.76)">SCONE libc</text><path class="cls-11" d="M335.76,23.49h160a5,5,0,0,1,5,5V95.85a0,0,0,0,1,0,0h-170a0,0,0,0,1,0,0V28.49A5,5,0,0,1,335.76,23.49Z"/><text class="cls-7" transform="translate(382.73 46.59)">Ap<tspan class="cls-8" x="15.88" y="0">p</tspan><tspan x="23.03" y="0">lic</tspan><tspan class="cls-9" x="37.05" y="0">a</tspan><tspan x="43.17" y="0">tion</tspan></text><text class="cls-7" transform="translate(357.45 83.52)">Ap<tspan class="cls-8" x="15.88" y="0">p</tspan><tspan x="23.03" y="0">lic</tspan><tspan class="cls-9" x="37.05" y="0">a</tspan><tspan x="43.17" y="0">tion lib</tspan><tspan class="cls-8" x="83.41" y="0">r</tspan><tspan x="88.35" y="0">aries</tspan></text><line class="cls-6" x1="330.38" y1="59.26" x2="499.66" y2="59.26"/></g><g id="schrift"><text class="cls-20" transform="translate(235.32 58.22)">stati<tspan class="cls-21" x="21.24" y="0">c</tspan><tspan x="25.92" y="0"> </tspan><tspan x="0" y="14.4">linking</tspan></text><text class="cls-20"><tspan x="551.71" y="72.62">load</tspan></text></g><g id="Ebene_4" data-name="Ebene 4"><line class="cls-22" x1="219.3" y1="81.59" x2="285.03" y2="81.59"/><polygon class="cls-23" points="280.4 87.31 279.44 86.29 284.5 81.59 279.44 76.89 280.4 75.86 286.55 81.59 280.4 87.31"/><line class="cls-22" x1="529.68" y1="81.59" x2="595.42" y2="81.59"/><polygon class="cls-23" points="590.78 87.31 589.82 86.29 594.88 81.59 589.82 76.89 590.78 75.86 596.94 81.59 590.78 87.31"/></g></svg>