<?xml version="1.0" encoding="utf-8"?>
<!-- Generator: Adobe Illustrator 24.0.0, SVG Export Plug-In . SVG Version: 6.00 Build 0)  -->
<svg version="1.1" id="Ebene_1" xmlns="http://www.w3.org/2000/svg" xmlns:xlink="http://www.w3.org/1999/xlink" x="0px" y="0px"
	 viewBox="0 0 549.4 251.9" style="enable-background:new 0 0 549.4 251.9;" xml:space="preserve">
<style type="text/css">
	.st0{enable-background:new    ;}
	.st1{fill:#FFCC00;}
	.st2{fill:#330066;}
	.st3{fill:none;stroke:#330066;stroke-linejoin:round;}
	.st4{fill:none;stroke:#330066;stroke-linecap:round;stroke-linejoin:round;}
	.st5{fill:url(#SVGID_1_);stroke:#FFCC00;stroke-width:2;stroke-miterlimit:10;}
	.st6{fill:url(#SVGID_2_);}
	.st7{fill:none;stroke:#FFCC00;stroke-width:2;stroke-miterlimit:10;}
	.st8{clip-path:url(#SVGID_4_);}
	.st9{clip-path:url(#SVGID_6_);}
	.st10{fill:#FFD138;}
	.st11{fill:#FDFEFF;}
	.st12{opacity:0.2;}
	.st13{fill:#FFCC99;}
	.st14{opacity:0.7;}
	.st15{fill:url(#SVGID_7_);}
	.st16{fill:none;stroke:#CC3300;stroke-width:2;stroke-miterlimit:10;stroke-dasharray:2,2;}
	.st17{fill:#FFFFFF;stroke:#CC3300;stroke-width:2;stroke-linecap:round;stroke-linejoin:round;}
	.st18{fill:none;stroke:#FFCC00;stroke-width:2;stroke-linecap:round;stroke-linejoin:round;}
	.st19{fill:none;stroke:#CC3300;stroke-width:2;stroke-linecap:round;stroke-linejoin:round;}
	.st20{fill:#CC3300;}
	.st21{fill:#FFFFFF;}
	.st22{fill:#E6E6E6;}
	.st23{fill:none;stroke:#330066;stroke-width:2;stroke-miterlimit:10;}
</style>
<g id="Ebene_2_1_">
	<g class="st0">
		<path class="st1" d="M152.8,124.9l0.6-0.1l2.4-6.8h1.6l2.4,6.8l0.6,0.1v0.9h-2.7v-0.9l0.5-0.1l-0.3-1.1h-2.5l-0.3,1.1l0.5,0.1v0.9
			h-2.7V124.9z M155.6,122.5h1.8l-0.9-2.8h0L155.6,122.5z"/>
		<path class="st1" d="M160.7,120.9V120h2.3l0.1,0.7c0.2-0.3,0.4-0.4,0.6-0.6c0.2-0.1,0.5-0.2,0.8-0.2c0.7,0,1.3,0.3,1.7,0.8
			c0.4,0.6,0.6,1.3,0.6,2.2v0.1c0,0.9-0.2,1.5-0.6,2.1c-0.4,0.5-1,0.8-1.7,0.8c-0.3,0-0.6-0.1-0.8-0.2c-0.2-0.1-0.4-0.3-0.6-0.5v1.7
			l0.8,0.2v0.9h-3.1v-0.9l0.8-0.2v-5.8L160.7,120.9z M165.2,122.9c0-0.5-0.1-1-0.3-1.3s-0.5-0.5-0.8-0.5c-0.2,0-0.4,0-0.6,0.1
			c-0.2,0.1-0.3,0.2-0.4,0.4v2.5c0.1,0.2,0.2,0.3,0.4,0.4c0.2,0.1,0.4,0.1,0.6,0.1c0.4,0,0.7-0.1,0.8-0.4c0.2-0.3,0.3-0.7,0.3-1.2
			V122.9z"/>
	</g>
	<g class="st0">
		<path class="st1" d="M167.3,120.9V120h2.3l0.1,0.7c0.2-0.3,0.4-0.4,0.6-0.6s0.5-0.2,0.8-0.2c0.7,0,1.3,0.3,1.7,0.8
			c0.4,0.6,0.6,1.3,0.6,2.2v0.1c0,0.9-0.2,1.5-0.6,2.1c-0.4,0.5-1,0.8-1.7,0.8c-0.3,0-0.6-0.1-0.8-0.2c-0.2-0.1-0.4-0.3-0.6-0.5v1.7
			l0.8,0.2v0.9h-3.1v-0.9l0.8-0.2v-5.8L167.3,120.9z M171.8,122.9c0-0.5-0.1-1-0.3-1.3s-0.5-0.5-0.8-0.5c-0.2,0-0.4,0-0.6,0.1
			c-0.2,0.1-0.3,0.2-0.4,0.4v2.5c0.1,0.2,0.2,0.3,0.4,0.4c0.2,0.1,0.4,0.1,0.6,0.1c0.4,0,0.7-0.1,0.8-0.4c0.2-0.3,0.3-0.7,0.3-1.2
			V122.9z"/>
	</g>
	<g class="st0">
		<path class="st1" d="M173.8,118.4v-0.9h2.4v7.3l0.8,0.2v0.9h-3.1v-0.9l0.8-0.2v-6.2L173.8,118.4z"/>
		<path class="st1" d="M177.4,124.9l0.8-0.2v-3.6l-0.8-0.2V120h2.4v4.7l0.8,0.2v0.9h-3.1V124.9z M179.8,118.6h-1.6v-1.2h1.6V118.6z"
			/>
		<path class="st1" d="M183.8,124.7c0.3,0,0.5-0.1,0.7-0.2s0.3-0.4,0.3-0.7h1.4l0,0c0,0.6-0.2,1.1-0.7,1.5s-1,0.6-1.7,0.6
			c-0.9,0-1.5-0.3-2-0.8s-0.7-1.3-0.7-2.1v-0.2c0-0.9,0.2-1.6,0.7-2.1c0.5-0.6,1.2-0.8,2.1-0.8c0.5,0,0.9,0.1,1.3,0.2
			c0.4,0.1,0.7,0.3,0.9,0.6l0,1.6h-1.3l-0.3-0.9c-0.1-0.1-0.2-0.1-0.3-0.2s-0.2-0.1-0.4-0.1c-0.4,0-0.8,0.2-0.9,0.5
			s-0.3,0.7-0.3,1.2v0.2c0,0.5,0.1,0.9,0.3,1.3C183,124.6,183.3,124.7,183.8,124.7z"/>
	</g>
	<g class="st0">
		<path class="st1" d="M190.5,125.8c0-0.1-0.1-0.2-0.1-0.3c0-0.1-0.1-0.2-0.1-0.3c-0.2,0.2-0.4,0.4-0.7,0.5
			c-0.3,0.1-0.6,0.2-0.9,0.2c-0.6,0-1-0.2-1.4-0.5s-0.5-0.7-0.5-1.3c0-0.5,0.2-1,0.7-1.3c0.4-0.3,1.1-0.4,1.9-0.4h0.8v-0.6
			c0-0.3-0.1-0.5-0.2-0.6s-0.4-0.2-0.7-0.2c-0.2,0-0.3,0-0.5,0.1s-0.3,0.1-0.3,0.1l-0.1,0.6h-1.2l0-1.3c0.3-0.2,0.6-0.4,1-0.5
			c0.4-0.1,0.8-0.2,1.2-0.2c0.7,0,1.3,0.2,1.8,0.5c0.4,0.4,0.7,0.9,0.7,1.5v2.4c0,0.1,0,0.2,0,0.3c0,0.1,0,0.2,0,0.2l0.5,0.1v0.9
			H190.5z M189.2,124.8c0.2,0,0.5-0.1,0.6-0.2c0.2-0.1,0.3-0.2,0.5-0.4v-0.9h-0.8c-0.3,0-0.6,0.1-0.8,0.2c-0.2,0.2-0.3,0.3-0.3,0.6
			c0,0.2,0.1,0.4,0.2,0.5C188.8,124.7,188.9,124.8,189.2,124.8z"/>
	</g>
	<g class="st0">
		<path class="st1" d="M194.8,118.6v1.4h1v1.1h-1v3c0,0.2,0,0.4,0.1,0.5s0.2,0.1,0.4,0.1c0.1,0,0.2,0,0.3,0c0.1,0,0.2,0,0.3,0
			l0.1,1.1c-0.2,0.1-0.3,0.1-0.5,0.1c-0.2,0-0.4,0-0.6,0c-0.5,0-1-0.1-1.2-0.4c-0.3-0.3-0.4-0.8-0.4-1.4v-3h-0.9V120h0.9v-1.4H194.8
			z"/>
		<path class="st1" d="M196.5,124.9l0.8-0.2v-3.6l-0.8-0.2V120h2.4v4.7l0.8,0.2v0.9h-3.1V124.9z M198.8,118.6h-1.6v-1.2h1.6V118.6z"
			/>
		<path class="st1" d="M200.1,122.8c0-0.9,0.2-1.6,0.7-2.1c0.5-0.6,1.2-0.8,2-0.8c0.9,0,1.5,0.3,2,0.8c0.5,0.6,0.7,1.3,0.7,2.1v0.1
			c0,0.9-0.2,1.6-0.7,2.1c-0.5,0.5-1.2,0.8-2,0.8c-0.9,0-1.5-0.3-2-0.8c-0.5-0.5-0.7-1.3-0.7-2.1V122.8z M201.7,123
			c0,0.5,0.1,1,0.3,1.3s0.5,0.5,0.9,0.5c0.4,0,0.7-0.2,0.9-0.5c0.2-0.3,0.3-0.7,0.3-1.3v-0.1c0-0.5-0.1-0.9-0.3-1.3
			s-0.5-0.5-0.9-0.5s-0.7,0.2-0.9,0.5s-0.3,0.7-0.3,1.3V123z"/>
		<path class="st1" d="M206.2,124.9l0.8-0.2v-3.6l-0.8-0.2V120h2.3l0.1,0.8c0.2-0.3,0.4-0.5,0.7-0.7s0.6-0.2,1-0.2
			c0.6,0,1,0.2,1.4,0.6c0.3,0.4,0.5,0.9,0.5,1.7v2.5l0.8,0.2v0.9h-3v-0.9l0.7-0.2v-2.5c0-0.4-0.1-0.7-0.2-0.8s-0.4-0.2-0.7-0.2
			c-0.2,0-0.4,0-0.6,0.1s-0.3,0.2-0.4,0.4v3.1l0.6,0.2v0.9h-3V124.9z"/>
	</g>
	<g class="st0">
		<path class="st2" d="M21,127.6v1.1l-0.9,0.2v4.5c0,0.6,0.2,1,0.5,1.3c0.3,0.3,0.7,0.4,1.3,0.4c0.5,0,1-0.1,1.3-0.4
			c0.3-0.3,0.5-0.7,0.5-1.3v-4.5l-0.9-0.2v-1.1h3.6v1.1l-0.9,0.2v4.5c0,1-0.3,1.7-1,2.3c-0.6,0.5-1.5,0.8-2.5,0.8
			c-1,0-1.9-0.3-2.5-0.8c-0.6-0.5-1-1.3-1-2.3v-4.5l-0.9-0.2v-1.1h0.9H20H21z"/>
		<path class="st2" d="M32,132.1h-1.2l-0.2-0.8c-0.1-0.1-0.3-0.2-0.5-0.2c-0.2-0.1-0.4-0.1-0.6-0.1c-0.3,0-0.5,0.1-0.7,0.2
			s-0.3,0.3-0.3,0.5c0,0.2,0.1,0.4,0.3,0.5c0.2,0.1,0.5,0.2,1,0.3c0.8,0.2,1.4,0.4,1.8,0.7c0.4,0.3,0.6,0.7,0.6,1.3
			c0,0.6-0.3,1.1-0.8,1.4c-0.5,0.4-1.2,0.6-2,0.6c-0.5,0-1-0.1-1.4-0.2s-0.8-0.4-1.1-0.6l0-1.5h1.2l0.2,0.8c0.1,0.1,0.2,0.2,0.4,0.2
			c0.2,0,0.4,0.1,0.6,0.1c0.4,0,0.6-0.1,0.8-0.2c0.2-0.1,0.3-0.3,0.3-0.5c0-0.2-0.1-0.4-0.3-0.5c-0.2-0.1-0.5-0.3-1-0.4
			c-0.8-0.2-1.3-0.4-1.7-0.7c-0.4-0.3-0.6-0.7-0.6-1.2c0-0.5,0.2-1,0.7-1.4s1.1-0.6,1.9-0.6c0.5,0,1,0.1,1.4,0.2s0.8,0.3,1.1,0.5
			L32,132.1z"/>
		<path class="st2" d="M36.2,136.4c-0.9,0-1.7-0.3-2.2-0.9c-0.6-0.6-0.8-1.4-0.8-2.3V133c0-1,0.3-1.8,0.8-2.4
			c0.5-0.6,1.2-0.9,2.1-0.9c0.9,0,1.5,0.3,2,0.8c0.5,0.5,0.7,1.2,0.7,2.1v1h-3.9l0,0c0,0.4,0.2,0.8,0.4,1.1c0.3,0.3,0.6,0.4,1,0.4
			c0.4,0,0.7,0,1-0.1c0.3-0.1,0.5-0.2,0.8-0.4l0.5,1.1c-0.3,0.2-0.6,0.4-1,0.5S36.7,136.4,36.2,136.4z M36,131.1
			c-0.3,0-0.6,0.1-0.8,0.4c-0.2,0.2-0.3,0.6-0.3,1l0,0H37v-0.2c0-0.4-0.1-0.7-0.3-0.9C36.6,131.2,36.4,131.1,36,131.1z"/>
		<path class="st2" d="M39.7,135.3l0.8-0.2v-4l-0.9-0.2v-1.1h2.6l0.1,0.9c0.2-0.3,0.3-0.6,0.6-0.8c0.2-0.2,0.5-0.3,0.8-0.3
			c0.1,0,0.2,0,0.3,0c0.1,0,0.2,0,0.3,0.1l-0.2,1.6l-0.7,0c-0.3,0-0.5,0-0.6,0.1c-0.2,0.1-0.3,0.2-0.4,0.4v3.1l0.8,0.2v1h-3.4V135.3
			z"/>
	</g>
	<path class="st2" d="M34.6,94.6c0.4,0,0.7,0.3,0.7,0.7c0,0.4-0.3,0.7-0.7,0.7s-0.7-0.3-0.7-0.7C33.9,94.9,34.2,94.6,34.6,94.6z"/>
	<circle class="st2" cx="28.8" cy="95.3" r="0.7"/>
	<path class="st3" d="M35.9,104.2v2.2h0.9c0.3,0,0.6,0,0.9,0.1c1,0.1,2,0.6,2.8,1.2c1,0.7,1.6,1.8,1.6,3v4.6H21.4v-4.6
		c0-1.2,0.6-2.3,1.6-3c0.8-0.7,1.8-1.1,2.8-1.2c0.3-0.1,0.6-0.1,0.9-0.1h0.9v-2.2"/>
	<path class="st4" d="M24.2,93.2c0,1.8,0.1,2.6,0.1,4.4c-0.1,4.2,3.3,7.7,7.5,7.8c4.1,0,7.5-3.3,7.5-7.4c0,0,0,0,0,0v-5"/>
	<path class="st4" d="M24.2,93.2l0.6-4.6c1.4-0.4,8.1,3.7,11.2-1.4c0,0-0.8,2.5,3.3,5.4v0.7"/>
	<path class="st4" d="M44.4,93.3c0,1.2-1,2.1-2.2,2.2v-4.3C43.4,91.2,44.4,92.1,44.4,93.3z"/>
	<path class="st4" d="M22,94.9v0.7c0.2,1,1.1,1.8,2.2,1.8v-4.3C23.1,93.1,22.2,93.9,22,94.9z"/>
	<path class="st4" d="M29.6,100c0.5,0.7,1.3,1.1,2.1,1.1c0.8,0,1.6-0.4,2.1-1.1"/>
	<path class="st4" d="M22,94v-5.4c0-3.8,4.3-8.3,9.7-8.3s9.7,4.5,9.7,8.3v5.5"/>
	<path class="st2" d="M31.7,80.2c5.4,0,9.7,4.5,9.7,8.3v5.5H41c0.3,0.4,0.4,0.8,0.4,1.2c0,1.2-1,2.1-2.2,2.2V98
		c0,2.5-1.3,4.9-3.4,6.3h0.1v2.2h0.9c0.3,0,0.6,0,0.9,0.1c1,0.1,2,0.6,2.8,1.2c1,0.7,1.6,1.8,1.6,3v4.6H21.4v-4.6
		c0-1.2,0.6-2.3,1.6-3c0.8-0.7,1.8-1.1,2.8-1.2c0.3-0.1,0.6-0.1,0.9-0.1h0.9v-2.2h0.3c-2.2-1.5-3.5-4-3.5-6.6c0-0.2,0-0.5,0-0.7
		c0,0.2,0,0.4,0,0.6c-1.1,0-2-0.8-2.2-1.8v-0.7c0-0.4,0.2-0.7,0.4-1H22v-5.4C22,84.7,26.3,80.2,31.7,80.2 M31.7,78.2
		c-6.6,0-11.7,5.6-11.7,10.3V94c0,0.2,0,0.3,0.1,0.5c0,0.1,0,0.1,0,0.2c0,0.1,0,0.2,0,0.3v0.7c0,0.1,0,0.2,0,0.3
		c0.2,1.4,1.1,2.5,2.3,3.1c0.3,2.1,1.3,4,2.8,5.6c-1.2,0.2-2.4,0.8-3.4,1.6c-1.5,1.1-2.3,2.8-2.3,4.6v4.6c0,1.1,0.9,2,2,2H42
		c1.1,0,2-0.9,2-2v-4.6c0-1.8-0.9-3.5-2.3-4.6c-0.9-0.8-2-1.3-3.2-1.5c1.5-1.5,2.5-3.5,2.7-5.7c1.3-0.7,2.2-2.1,2.2-3.7
		c0-0.2,0-0.5-0.1-0.7c0-0.2,0.1-0.3,0.1-0.5v-5.6C43.4,83.8,38.3,78.2,31.7,78.2z"/>
	
		<linearGradient id="SVGID_1_" gradientUnits="userSpaceOnUse" x1="91.09" y1="103.495" x2="305.32" y2="103.495" gradientTransform="matrix(1 0 0 -1 0 254)">
		<stop  offset="0" style="stop-color:#990066"/>
		<stop  offset="0.19" style="stop-color:#780066"/>
		<stop  offset="0.4" style="stop-color:#5A0066"/>
		<stop  offset="0.61" style="stop-color:#440066"/>
		<stop  offset="0.81" style="stop-color:#370066"/>
		<stop  offset="1" style="stop-color:#330066"/>
	</linearGradient>
	<path class="st5" d="M96.1,65.3h204.2c2.8,0,5,2.2,5,5v160.4c0,2.8-2.2,5-5,5H96.1c-2.8,0-5-2.2-5-5V70.3
		C91.1,67.5,93.3,65.3,96.1,65.3z"/>
	
		<linearGradient id="SVGID_2_" gradientUnits="userSpaceOnUse" x1="104.36" y1="104.64" x2="292.28" y2="104.64" gradientTransform="matrix(1 0 0 -1 0 254)">
		<stop  offset="0" style="stop-color:#990066"/>
		<stop  offset="0.19" style="stop-color:#780066"/>
		<stop  offset="0.4" style="stop-color:#5A0066"/>
		<stop  offset="0.61" style="stop-color:#440066"/>
		<stop  offset="0.81" style="stop-color:#370066"/>
		<stop  offset="1" style="stop-color:#330066"/>
	</linearGradient>
	<path class="st6" d="M292.3,99.8V85.9c0-2.8-0.9-5-4.5-5h-179c-3.6,0-4.5,2.2-4.5,5v127c0,2.8,1.9,5,5.5,5h178c3.6,0,4.5-2.2,4.5-5
		v-13.1"/>
	<path class="st7" d="M292.3,99.8V85.9c0-2.8-0.9-5-4.5-5h-179c-3.6,0-4.5,2.2-4.5,5v127c0,2.8,1.9,5,5.5,5h178c3.6,0,4.5-2.2,4.5-5
		v-13.1"/>
	<g class="st0">
		<path class="st1" d="M227.6,129.5h-1.2l-0.2-1c-0.2-0.2-0.3-0.3-0.6-0.4c-0.2-0.1-0.5-0.1-0.8-0.1c-0.7,0-1.2,0.2-1.6,0.7
			c-0.4,0.5-0.6,1.1-0.6,1.9v0.3c0,0.8,0.2,1.4,0.5,1.9s0.9,0.7,1.5,0.7c0.3,0,0.6,0,0.8-0.1c0.3-0.1,0.5-0.2,0.6-0.4l0.2-1h1.2v1.5
			c-0.3,0.4-0.7,0.7-1.2,0.9c-0.5,0.2-1,0.3-1.6,0.3c-1,0-1.9-0.4-2.6-1.1s-1-1.7-1-2.8v-0.3c0-1.1,0.3-2.1,1-2.8s1.5-1.1,2.6-1.1
			c0.6,0,1.2,0.1,1.6,0.3c0.5,0.2,0.9,0.5,1.2,0.9V129.5z"/>
		<path class="st1" d="M228.3,134.7v-0.9l0.8-0.2v-5.6l-0.8-0.2v-0.9h0.8h1.6h0.8v0.9l-0.8,0.2v5.5h2.2l0.1-1h1.2v2.2H228.3z"/>
		<path class="st1" d="M234.8,127.8v-0.9h3.2v0.9l-0.8,0.2v5.6l0.8,0.2v0.9h-3.2v-0.9l0.8-0.2v-5.6L234.8,127.8z"/>
	</g>
	<g class="st0">
		<path class="st1" d="M170.3,146.5c0-1.4,0.3-2.6,0.8-3.6s1.2-1.6,1.8-1.9h0l0.3,0.8c-0.5,0.4-0.9,0.9-1.2,1.7s-0.5,1.8-0.5,3v0.1
			c0,1.2,0.2,2.2,0.5,3c0.3,0.8,0.7,1.3,1.2,1.7l-0.3,0.8h0c-0.7-0.3-1.3-0.9-1.8-1.9s-0.8-2.2-0.8-3.6V146.5z"/>
		<path class="st1" d="M176.6,148.6c0.3,0,0.5-0.1,0.7-0.2s0.3-0.4,0.3-0.7h1.4l0,0c0,0.6-0.2,1.1-0.7,1.5s-1,0.6-1.7,0.6
			c-0.9,0-1.5-0.3-2-0.8s-0.7-1.3-0.7-2.1v-0.2c0-0.9,0.2-1.6,0.7-2.1c0.5-0.6,1.2-0.8,2.1-0.8c0.5,0,0.9,0.1,1.3,0.2
			c0.4,0.1,0.7,0.3,0.9,0.6l0,1.6h-1.3l-0.3-0.9c-0.1-0.1-0.2-0.1-0.3-0.2s-0.2-0.1-0.4-0.1c-0.4,0-0.8,0.2-0.9,0.5
			s-0.3,0.7-0.3,1.2v0.2c0,0.5,0.1,0.9,0.3,1.3C175.8,148.4,176.1,148.6,176.6,148.6z"/>
		<path class="st1" d="M179.6,146.7c0-0.9,0.2-1.6,0.7-2.1c0.5-0.6,1.2-0.8,2-0.8c0.9,0,1.5,0.3,2,0.8c0.5,0.6,0.7,1.3,0.7,2.1v0.1
			c0,0.9-0.2,1.6-0.7,2.1c-0.5,0.5-1.2,0.8-2,0.8c-0.9,0-1.5-0.3-2-0.8c-0.5-0.5-0.7-1.3-0.7-2.1V146.7z M181.2,146.8
			c0,0.5,0.1,1,0.3,1.3s0.5,0.5,0.9,0.5c0.4,0,0.7-0.2,0.9-0.5c0.2-0.3,0.3-0.7,0.3-1.3v-0.1c0-0.5-0.1-0.9-0.3-1.3
			s-0.5-0.5-0.9-0.5s-0.7,0.2-0.9,0.5s-0.3,0.7-0.3,1.3V146.8z"/>
		<path class="st1" d="M185.7,148.7l0.8-0.2v-3.6l-0.8-0.2v-0.9h2.3l0.1,0.8c0.2-0.3,0.4-0.5,0.7-0.7s0.6-0.2,1-0.2
			c0.6,0,1,0.2,1.4,0.6c0.3,0.4,0.5,0.9,0.5,1.7v2.5l0.8,0.2v0.9h-3v-0.9l0.7-0.2V146c0-0.4-0.1-0.7-0.2-0.8s-0.4-0.2-0.7-0.2
			c-0.2,0-0.4,0-0.6,0.1s-0.3,0.2-0.4,0.4v3.1l0.6,0.2v0.9h-3V148.7z"/>
		<path class="st1" d="M195.1,142.4v1.4h1v1.1h-1v3c0,0.2,0,0.4,0.1,0.5s0.2,0.1,0.4,0.1c0.1,0,0.2,0,0.3,0c0.1,0,0.2,0,0.3,0
			l0.1,1.1c-0.2,0.1-0.3,0.1-0.5,0.1c-0.2,0-0.4,0-0.6,0c-0.5,0-1-0.1-1.2-0.4c-0.3-0.3-0.4-0.8-0.4-1.4v-3h-0.9v-1.1h0.9v-1.4
			H195.1z"/>
		<path class="st1" d="M200.6,149.7c0-0.1-0.1-0.2-0.1-0.3c0-0.1-0.1-0.2-0.1-0.3c-0.2,0.2-0.4,0.4-0.7,0.5
			c-0.3,0.1-0.6,0.2-0.9,0.2c-0.6,0-1-0.2-1.4-0.5c-0.3-0.3-0.5-0.7-0.5-1.3c0-0.5,0.2-1,0.7-1.3s1.1-0.4,1.9-0.4h0.8v-0.6
			c0-0.3-0.1-0.5-0.2-0.6s-0.4-0.2-0.7-0.2c-0.2,0-0.3,0-0.5,0.1s-0.3,0.1-0.3,0.1l-0.1,0.6h-1.2l0-1.3c0.3-0.2,0.6-0.4,1-0.5
			c0.4-0.1,0.8-0.2,1.2-0.2c0.7,0,1.3,0.2,1.8,0.5c0.4,0.4,0.7,0.9,0.7,1.5v2.4c0,0.1,0,0.2,0,0.3c0,0.1,0,0.2,0,0.2l0.5,0.1v0.9
			H200.6z M199.2,148.6c0.2,0,0.5-0.1,0.6-0.2c0.2-0.1,0.3-0.2,0.5-0.4v-0.9h-0.8c-0.3,0-0.6,0.1-0.8,0.2c-0.2,0.2-0.3,0.3-0.3,0.6
			c0,0.2,0.1,0.4,0.2,0.5C198.8,148.5,199,148.6,199.2,148.6z"/>
		<path class="st1" d="M202.9,148.7l0.8-0.2v-3.6l-0.8-0.2v-0.9h2.4v4.7l0.8,0.2v0.9h-3.1V148.7z M205.2,142.4h-1.6v-1.2h1.6V142.4z
			"/>
	</g>
	<g class="st0">
		<path class="st1" d="M206.4,148.7l0.8-0.2v-3.6l-0.8-0.2v-0.9h2.3l0.1,0.8c0.2-0.3,0.4-0.5,0.7-0.7s0.6-0.2,1-0.2
			c0.6,0,1,0.2,1.4,0.6c0.3,0.4,0.5,0.9,0.5,1.7v2.5l0.8,0.2v0.9h-3v-0.9l0.7-0.2V146c0-0.4-0.1-0.7-0.2-0.8s-0.4-0.2-0.7-0.2
			c-0.2,0-0.4,0-0.6,0.1s-0.3,0.2-0.4,0.4v3.1l0.6,0.2v0.9h-3V148.7z"/>
	</g>
	<g class="st0">
		<path class="st1" d="M216.2,149.8c-0.8,0-1.5-0.3-2-0.8s-0.8-1.2-0.8-2v-0.2c0-0.9,0.2-1.6,0.7-2.1c0.5-0.6,1.1-0.8,1.9-0.8
			c0.8,0,1.4,0.2,1.8,0.7s0.6,1.1,0.6,1.9v0.9H215l0,0c0,0.4,0.2,0.7,0.4,0.9c0.2,0.2,0.5,0.4,0.9,0.4c0.3,0,0.6,0,0.9-0.1
			c0.2-0.1,0.5-0.2,0.8-0.3l0.4,1c-0.2,0.2-0.6,0.3-0.9,0.5C217.1,149.7,216.6,149.8,216.2,149.8z M216,144.9
			c-0.3,0-0.5,0.1-0.7,0.3c-0.2,0.2-0.3,0.5-0.3,0.9l0,0h1.9V146c0-0.3-0.1-0.6-0.2-0.8C216.6,145,216.3,144.9,216,144.9z"/>
		<path class="st1" d="M219.4,148.7l0.8-0.2v-3.6l-0.8-0.2v-0.9h2.3l0.1,0.8c0.1-0.3,0.3-0.5,0.5-0.7c0.2-0.2,0.5-0.3,0.7-0.3
			c0.1,0,0.2,0,0.3,0c0.1,0,0.2,0,0.2,0l-0.2,1.4l-0.6,0c-0.2,0-0.4,0-0.6,0.1s-0.3,0.2-0.3,0.4v2.8l0.8,0.2v0.9h-3.1V148.7z"/>
		<path class="st1" d="M226.9,146.6c0,1.4-0.3,2.6-0.8,3.6s-1.2,1.6-1.9,1.9h0l-0.3-0.8c0.5-0.4,0.9-0.9,1.2-1.7s0.5-1.8,0.5-3v-0.1
			c0-1.2-0.2-2.2-0.5-3c-0.3-0.8-0.7-1.4-1.2-1.7l0.3-0.8h0c0.7,0.3,1.3,0.9,1.9,1.9c0.6,1,0.8,2.2,0.8,3.6V146.6z"/>
	</g>
	<g id="Scone_logo_white">
		<g>
			<defs>
				<rect id="SVGID_3_" x="152.2" y="123.1" width="63.1" height="12.4"/>
			</defs>
			<clipPath id="SVGID_4_">
				<use xlink:href="#SVGID_3_"  style="overflow:visible;"/>
			</clipPath>
			<g class="st8">
				<g>
					<defs>
						<rect id="SVGID_5_" x="152.2" y="123.1" width="63.1" height="12.4"/>
					</defs>
					<clipPath id="SVGID_6_">
						<use xlink:href="#SVGID_5_"  style="overflow:visible;"/>
					</clipPath>
					<g class="st9">
						<path class="st10" d="M160.6,126.2h-1.3c-0.3,0-0.5,0.2-0.5,0.5v1.3c0,0.3,0.2,0.5,0.5,0.5h1.3c0.3,0,0.5-0.2,0.5-0.5
							c0,0,0,0,0,0v-1.3C161.1,126.5,160.8,126.2,160.6,126.2C160.6,126.2,160.6,126.2,160.6,126.2 M155.9,128.6h1.3
							c0.3,0,0.5-0.2,0.5-0.5v-1.3c0-0.3-0.2-0.5-0.5-0.5h-1.3c-0.3,0-0.5,0.2-0.5,0.5v1.3C155.4,128.4,155.7,128.6,155.9,128.6
							 M154.5,128.1v-1.3c0-0.3-0.2-0.5-0.5-0.5h-1.3c-0.3,0-0.5,0.2-0.5,0.5v1.3c0,0.3,0.2,0.5,0.5,0.5h1.3
							C154.3,128.6,154.5,128.4,154.5,128.1 M160.6,129.5c-0.2,0-0.4,0.2-0.4,0.4c0,0,0,0,0,0v1.6c0,0.2,0.2,0.4,0.4,0.4
							c0.2,0,0.4-0.2,0.4-0.4v-1.6C161,129.7,160.9,129.5,160.6,129.5C160.7,129.5,160.7,129.5,160.6,129.5 M157,130v1.3
							c0,0.3,0.2,0.5,0.5,0.5h1.3c0.3,0,0.5-0.2,0.5-0.5V130c0-0.3-0.2-0.5-0.5-0.5h-1.3C157.2,129.5,157,129.7,157,130
							 M156.1,131.3V130c0-0.3-0.2-0.5-0.5-0.5h-1.3c-0.3,0-0.5,0.2-0.5,0.5v1.3c0,0.3,0.2,0.5,0.5,0.5h1.3
							C155.8,131.8,156.1,131.6,156.1,131.3 M160.5,132.8h-1.3c-0.3,0-0.5,0.2-0.5,0.5v1.4c0,0.3,0.2,0.5,0.5,0.5h1.3
							c0.3,0,0.5-0.2,0.5-0.5c0,0,0,0,0,0v-1.4C161,133,160.8,132.8,160.5,132.8C160.5,132.8,160.5,132.8,160.5,132.8 M157.1,132.8
							h-1.3c-0.3,0-0.5,0.2-0.5,0.5v1.4c0,0.3,0.2,0.5,0.5,0.5h1.3c0.3,0,0.5-0.2,0.5-0.5v-1.4C157.6,133,157.4,132.8,157.1,132.8"
							/>
						<path class="st10" d="M162.1,125.7c0.6,0.5,1.3,0.7,2.1,0.6c0,0,0,0.1,0,0.1v3.6c0,1.4-1.7,2.3-2.1,2.5c-0.1,0-0.1,0-0.1,0
							v-6.8C162,125.7,162,125.7,162.1,125.7"/>
						<path class="st10" d="M158.1,125.5c2.8-0.1,3.3-1.1,3.3-1.1c0,0,0.1-0.1,0.1-0.1c0.1,0,0.1,0,0.1,0s0.4,1,3.2,1
							c0.1,0,0.1,0.1,0.1,0.1v4.8c0,1.5-2.9,3.3-2.9,3.3s-0.1,0.1-0.1,0.1v1.2c0,0.1,0.2,0.1,0.3,0.1c1.1-0.6,4.1-2.2,4.1-4.3v-6.1
							c0-0.1-0.2-0.2-0.3-0.2c-3.6,0-4.2-1.3-4.2-1.3s-0.2,0-0.2,0s-0.1,0-0.2,0s-0.6,1.3-4.1,1.3c-0.1,0-0.1,0-0.1,0.2v0.8
							c0,0,0,0.2,0.1,0.2S158.2,125.5,158.1,125.5"/>
						<path class="st11" d="M168.9,133.3l1.4-0.5c0.3,0.7,1.1,1.1,1.9,1.1c0.4,0,0.8-0.1,1.1-0.3c0.3-0.2,0.5-0.4,0.5-0.8
							c0-0.8-1.1-1.2-1.8-1.5h-0.1c-0.6-0.2-1.1-0.5-1.6-0.9c-0.5-0.4-0.8-1-0.8-1.7c0-0.7,0.3-1.3,0.8-1.8c0.6-0.5,1.3-0.7,2.1-0.7
							c1.1-0.1,2.2,0.5,2.8,1.5l-1.5,0.6c-0.1-0.2-0.3-0.4-0.5-0.5c-0.3-0.1-0.5-0.2-0.8-0.2c-0.8,0-1.4,0.4-1.4,1
							c0,0.4,0.2,0.7,0.6,0.9c0.4,0.3,0.8,0.5,1.3,0.7l0.2,0.1c1.1,0.5,2.4,1.1,2.4,2.5c0,0.7-0.4,1.4-1,1.8
							c-0.7,0.5-1.5,0.7-2.3,0.7C170.8,135.3,169.5,134.6,168.9,133.3"/>
						<path class="st11" d="M181.5,135.2c-0.6,0-1.2-0.1-1.8-0.4c-1.1-0.5-1.9-1.3-2.4-2.4c-0.2-0.6-0.3-1.2-0.4-1.8
							c0-0.6,0.1-1.2,0.4-1.8c0.5-1.1,1.3-1.9,2.4-2.4c0.6-0.2,1.2-0.4,1.8-0.4c0.7,0,1.4,0.2,2,0.5c0.6,0.3,1.1,0.8,1.6,1.3
							l-1.2,0.9c-0.3-0.4-0.6-0.6-1-0.9c-0.4-0.2-0.9-0.3-1.4-0.3c-1.7,0-3,1.3-3,3c0,1.7,1.3,3,3,3c0.6,0,1.1-0.1,1.6-0.4
							c0.5-0.3,0.8-0.7,1.1-1.1l1.3,0.7c-0.4,0.7-1,1.3-1.6,1.6C183.1,135,182.4,135.2,181.5,135.2"/>
						<path class="st11" d="M191.4,135.3c-0.6,0-1.2-0.1-1.8-0.4c-0.5-0.2-1-0.6-1.4-1c-0.4-0.4-0.8-0.9-1-1.4
							c-0.2-0.6-0.4-1.1-0.4-1.8c0-0.6,0.1-1.2,0.4-1.8c0.2-0.5,0.6-1,1-1.4c0.4-0.4,0.9-0.8,1.4-1c0.6-0.2,1.1-0.3,1.8-0.3
							c0.6,0,1.2,0.1,1.8,0.3c0.5,0.2,1,0.6,1.4,1c1.3,1.3,1.7,3.2,1,4.9c-0.2,0.5-0.6,1-1,1.4c-0.4,0.4-0.9,0.8-1.4,1
							C192.6,135.1,192,135.2,191.4,135.3 M191.4,127.7c-0.8,0-1.6,0.3-2.1,0.9c-0.6,0.6-0.9,1.3-0.9,2.1c0,0.8,0.3,1.6,0.9,2.1
							c0.6,0.6,1.3,0.9,2.1,0.9c0.8,0,1.6-0.3,2.1-0.9c1.2-1.1,1.2-3,0.1-4.2C193,128,192.2,127.7,191.4,127.7"/>
						<polygon class="st11" points="206.1,126.3 206.1,135.4 199.8,129.6 199.8,135.1 198.2,135.1 198.2,126 204.5,131.8 
							204.5,126.3 						"/>
						<polygon class="st11" points="210.4,127.6 210.4,130 214.8,130 214.8,131.4 210.4,131.4 210.4,133.7 215.3,133.7 215.3,135.1 
							208.8,135.1 208.8,126.3 215.3,126.3 215.3,127.7 210.4,127.7 						"/>
					</g>
				</g>
			</g>
		</g>
	</g>
</g>
<g id="schrift">
	<g class="st12">
		<path class="st13" d="M391.6,213v15.3c0,3.4,2.2,6.1,5,6.1h100c2.8,0,5-2.8,5-6.1V71.4c0-3.4-2.2-6.1-5-6.1h-100
			c-2.8,0-5,2.7-5,6.1v18.3"/>
	</g>
	<g class="st14">
		
			<linearGradient id="SVGID_7_" gradientUnits="userSpaceOnUse" x1="292.28" y1="104.11" x2="488" y2="104.11" gradientTransform="matrix(1 0 0 -1 0 254)">
			<stop  offset="0" style="stop-color:#990066"/>
			<stop  offset="0.19" style="stop-color:#780066"/>
			<stop  offset="0.4" style="stop-color:#5A0066"/>
			<stop  offset="0.61" style="stop-color:#440066"/>
			<stop  offset="0.81" style="stop-color:#370066"/>
			<stop  offset="1" style="stop-color:#330066"/>
		</linearGradient>
		<path class="st15" d="M483,99H292.3v25.7h106.9c2.7,0,4.9,2.2,4.9,4.9v40.6c0,2.7-2.2,4.9-4.9,4.9H292.3v25.7H483c2.8,0,5-2.2,5-5
			V104C488,101.2,485.8,99,483,99z"/>
	</g>
	<path class="st16" d="M391.6,201.9v27.7c0,3.4,2.2,6.2,5,6.2h100c2.8,0,5-2.8,5-6.2V71.5c0-3.4-2.2-6.2-5-6.2h-100
		c-2.8,0-5,2.8-5,6.2v26"/>
	<path class="st17" d="M496.7,60.4c-0.7-1.2-2.3-1.7-3.6-1.2c-2.3,0.9-1.3,3.6-1.3,3.6s-5.1-0.1-4.6,5.2c0.4,3.8,4.6,3.6,4.4,3.6
		c-6.2,0,12.4,0,18.6,0c1-0.1,1.9-0.4,2.6-1c1.5-1.1,2-3.1,1.3-4.7c-0.7-1.8-3-2.8-4.9-2.9c0,0,1.1-4.9-2.4-7
		c-2.5-1.7-5.8-1.4-8.1,0.6C497.7,57.6,497,59,496.7,60.4z"/>
	<path class="st18" d="M79.5,29.4h-4.2c-0.6,0-0.8-0.2-0.8-0.8v-6.5c0-0.6,0.2-0.8,0.8-0.8h8.4c0.6,0,0.8,0.2,0.8,0.8v6.5
		c0,0.5-0.2,0.8-0.8,0.8C82.3,29.5,80.9,29.4,79.5,29.4z"/>
	<path class="st18" d="M75.2,20.8c0-1.8,1-3.4,2.6-4.1c2.1-0.9,4.6,0,5.5,2.1c0.1,0.2,0.2,0.5,0.2,0.7c0.1,0.4,0.1,0.8,0.2,1.2"/>
	<path class="st1" d="M78.8,26.6L78.8,26.6v0.9c0,0.2,0.1,0.2,0.3,0.2h0.8c0.2,0,0.3-0.1,0.3-0.3v-1.6c0-0.2,0.1-0.3,0.2-0.4
		c0.5-0.3,0.8-0.9,0.6-1.5c-0.2-0.6-0.8-1-1.4-1c-0.7,0-1.3,0.4-1.6,1c-0.2,0.6,0,1.2,0.6,1.5c0.2,0.1,0.3,0.3,0.3,0.5
		C78.8,26.2,78.8,26.4,78.8,26.6z"/>
	<path class="st19" d="M514.9,28h-4.3c-0.6,0-0.8-0.2-0.8-0.8v-6.5c0-0.6,0.2-0.8,0.8-0.8h8.5c0.5,0,0.8,0.2,0.8,0.8v6.5
		c0,0.5-0.2,0.8-0.8,0.8C517.7,28,516.2,28,514.9,28z"/>
	<path class="st19" d="M513.5,11.8c1.6-0.7,3.5-0.5,4.9,0.7c1.7,1.6,1.9,4.2,0.3,5.9c-0.2,0.2-0.4,0.4-0.5,0.5
		c-0.3,0.3-0.7,0.4-1,0.7"/>
	<path class="st20" d="M514.2,25.3L514.2,25.3v0.9c0,0.2,0.1,0.2,0.3,0.2h0.8c0.2,0,0.3-0.1,0.3-0.3v-1.6c0-0.2,0.1-0.3,0.2-0.4
		c0.5-0.3,0.8-0.9,0.6-1.5c-0.2-0.6-0.8-1-1.5-1c-0.7-0.1-1.3,0.3-1.6,0.9c-0.2,0.6,0,1.2,0.5,1.5c0.2,0.1,0.3,0.3,0.3,0.5
		C514.1,24.7,514.2,25,514.2,25.3z"/>
	<path class="st7" d="M292.3,124.7h106.9c2.7,0,4.9,2.2,4.9,4.9v40.6c0,2.7-2.2,4.9-4.9,4.9H292.3V124.7z"/>
	<path class="st7" d="M292.3,200.7H483c2.8,0,5-2.2,5-5V104c0-2.8-2.2-5-5-5H292.3"/>
	<line class="st16" x1="391.6" y1="125" x2="391.6" y2="173.4"/>
	<g class="st0">
		<path class="st1" d="M318.2,145.5c0-0.1-0.1-0.2-0.1-0.3c0-0.1-0.1-0.2-0.1-0.3c-0.2,0.2-0.5,0.4-0.7,0.6c-0.3,0.1-0.6,0.2-1,0.2
			c-0.6,0-1.1-0.2-1.5-0.5s-0.6-0.8-0.6-1.4c0-0.6,0.2-1.1,0.7-1.4s1.2-0.5,2.1-0.5h0.9v-0.6c0-0.3-0.1-0.5-0.3-0.7
			s-0.4-0.3-0.8-0.3c-0.2,0-0.4,0-0.5,0.1s-0.3,0.1-0.4,0.2l-0.1,0.7h-1.3l0-1.4c0.3-0.2,0.7-0.4,1.1-0.5s0.9-0.2,1.3-0.2
			c0.8,0,1.4,0.2,1.9,0.6s0.7,0.9,0.7,1.6v2.6c0,0.1,0,0.2,0,0.3s0,0.2,0,0.2l0.5,0.1v1H318.2z M316.7,144.4c0.3,0,0.5-0.1,0.7-0.2
			s0.4-0.3,0.5-0.4v-1H317c-0.4,0-0.6,0.1-0.8,0.3s-0.3,0.4-0.3,0.6c0,0.2,0.1,0.4,0.2,0.5S316.4,144.4,316.7,144.4z"/>
		<path class="st1" d="M320.6,137.4v-1h2.7v7.9l0.8,0.2v1h-3.4v-1l0.8-0.2v-6.7L320.6,137.4z"/>
		<path class="st1" d="M333.7,140.2l-0.6,0.1l-1.3,5.2h-1.4l-1.2-3.8h0l-1.2,3.8h-1.4l-1.3-5.2l-0.6-0.1v-1h2.9v1l-0.7,0.1l0.6,2.9
			h0l1.2-4.1h1.2l1.2,4.1h0l0.6-2.9l-0.7-0.1v-1h2.9V140.2z"/>
	</g>
	<g class="st0">
		<path class="st1" d="M338.4,145.5c0-0.1-0.1-0.2-0.1-0.3c0-0.1-0.1-0.2-0.1-0.3c-0.2,0.2-0.5,0.4-0.7,0.6s-0.6,0.2-1,0.2
			c-0.6,0-1.1-0.2-1.5-0.5s-0.6-0.8-0.6-1.4c0-0.6,0.2-1.1,0.7-1.4c0.5-0.3,1.2-0.5,2.1-0.5h0.9v-0.6c0-0.3-0.1-0.5-0.3-0.7
			s-0.4-0.3-0.8-0.3c-0.2,0-0.4,0-0.5,0.1c-0.2,0-0.3,0.1-0.4,0.2l-0.1,0.7h-1.3l0-1.4c0.3-0.2,0.7-0.4,1.1-0.5s0.9-0.2,1.3-0.2
			c0.8,0,1.4,0.2,1.9,0.6c0.5,0.4,0.7,0.9,0.7,1.6v2.6c0,0.1,0,0.2,0,0.3s0,0.2,0,0.2l0.5,0.1v1H338.4z M336.9,144.4
			c0.3,0,0.5-0.1,0.7-0.2c0.2-0.1,0.4-0.3,0.5-0.4v-1h-0.9c-0.4,0-0.6,0.1-0.8,0.3s-0.3,0.4-0.3,0.6c0,0.2,0.1,0.4,0.2,0.5
			C336.5,144.3,336.7,144.4,336.9,144.4z"/>
	</g>
	<g class="st0">
		<path class="st1" d="M347.5,140.2l-0.6,0.1l-2.4,6.2c-0.2,0.5-0.4,0.8-0.7,1.1c-0.3,0.3-0.8,0.5-1.4,0.5c-0.1,0-0.3,0-0.4,0
			c-0.1,0-0.3-0.1-0.5-0.1l0.2-1.2c0.1,0,0.1,0,0.2,0c0.1,0,0.1,0,0.2,0c0.3,0,0.5-0.1,0.7-0.2c0.2-0.1,0.3-0.3,0.4-0.5l0.2-0.5
			l-2-5.2l-0.6-0.1v-1h3.1v1l-0.7,0.1l0.9,2.5l0.1,0.5l0,0l1-3l-0.7-0.1v-1h3.1V140.2z"/>
		<path class="st1" d="M353.3,141.4h-1.2l-0.2-0.8c-0.1-0.1-0.3-0.2-0.4-0.2s-0.4-0.1-0.6-0.1c-0.3,0-0.5,0.1-0.7,0.2
			s-0.3,0.3-0.3,0.5c0,0.2,0.1,0.4,0.3,0.5s0.5,0.2,1,0.3c0.8,0.2,1.4,0.4,1.8,0.7s0.6,0.7,0.6,1.3c0,0.6-0.2,1-0.7,1.4
			s-1.1,0.5-2,0.5c-0.5,0-0.9-0.1-1.4-0.2s-0.8-0.3-1.1-0.6l0-1.4h1.2l0.2,0.8c0.1,0.1,0.2,0.1,0.4,0.2s0.4,0.1,0.6,0.1
			c0.4,0,0.6-0.1,0.8-0.2c0.2-0.1,0.3-0.3,0.3-0.5c0-0.2-0.1-0.3-0.3-0.5s-0.5-0.3-1-0.4c-0.8-0.2-1.3-0.4-1.7-0.7
			c-0.4-0.3-0.6-0.7-0.6-1.2c0-0.5,0.2-1,0.7-1.4s1.1-0.6,1.9-0.6c0.5,0,1,0.1,1.4,0.2c0.4,0.1,0.8,0.3,1,0.5L353.3,141.4z"/>
	</g>
	<g class="st0">
		<path class="st1" d="M317.2,160.1c-0.9,0-1.7-0.3-2.2-0.9c-0.6-0.6-0.8-1.3-0.8-2.2v-0.2c0-0.9,0.3-1.7,0.8-2.3
			c0.5-0.6,1.2-0.9,2.1-0.9c0.9,0,1.5,0.3,2,0.8c0.5,0.5,0.7,1.2,0.7,2.1v0.9h-3.8l0,0c0,0.4,0.2,0.8,0.4,1c0.3,0.3,0.6,0.4,1,0.4
			c0.4,0,0.7,0,1-0.1c0.3-0.1,0.5-0.2,0.8-0.4l0.5,1.1c-0.3,0.2-0.6,0.4-1,0.5C318.1,160,317.7,160.1,317.2,160.1z M317,154.8
			c-0.3,0-0.6,0.1-0.8,0.4s-0.3,0.6-0.3,1l0,0h2.1V156c0-0.4-0.1-0.7-0.3-0.9C317.6,154.9,317.4,154.8,317,154.8z"/>
	</g>
	<g class="st0">
		<path class="st1" d="M320.5,158.9l0.8-0.2v-3.9l-0.9-0.2v-1h2.5l0.1,0.9c0.2-0.3,0.5-0.6,0.8-0.8c0.3-0.2,0.7-0.3,1-0.3
			c0.6,0,1.2,0.2,1.5,0.6s0.5,1,0.5,1.9v2.8l0.8,0.2v1h-3.3v-1l0.7-0.2V156c0-0.4-0.1-0.7-0.3-0.9s-0.4-0.3-0.8-0.3
			c-0.2,0-0.4,0-0.6,0.1c-0.2,0.1-0.3,0.2-0.5,0.4v3.4l0.7,0.2v1h-3.3V158.9z"/>
	</g>
	<g class="st0">
		<path class="st1" d="M331.2,158.7c0.3,0,0.6-0.1,0.7-0.3c0.2-0.2,0.3-0.4,0.3-0.7h1.6l0,0c0,0.6-0.2,1.2-0.7,1.6s-1.1,0.6-1.9,0.6
			c-1,0-1.7-0.3-2.2-0.9s-0.8-1.4-0.8-2.3v-0.2c0-0.9,0.3-1.7,0.8-2.3s1.3-0.9,2.3-0.9c0.5,0,1,0.1,1.4,0.2s0.8,0.4,1,0.6l0,1.7
			h-1.4l-0.3-1c-0.1-0.1-0.2-0.1-0.3-0.2c-0.1,0-0.3-0.1-0.4-0.1c-0.5,0-0.8,0.2-1,0.5s-0.3,0.8-0.3,1.4v0.2c0,0.6,0.1,1,0.3,1.4
			C330.4,158.6,330.7,158.7,331.2,158.7z"/>
	</g>
	<g class="st0">
		<path class="st1" d="M334.7,158.9l0.8-0.2v-3.9l-0.9-0.2v-1h2.5l0.1,0.9c0.1-0.3,0.3-0.6,0.6-0.8c0.2-0.2,0.5-0.3,0.8-0.3
			c0.1,0,0.2,0,0.3,0c0.1,0,0.2,0,0.3,0l-0.2,1.6l-0.7,0c-0.3,0-0.5,0-0.6,0.1s-0.3,0.2-0.4,0.4v3.1l0.8,0.2v1h-3.4V158.9z"/>
	</g>
	<g class="st0">
		<path class="st1" d="M346.4,154.6l-0.6,0.1l-2.4,6.2c-0.2,0.5-0.4,0.8-0.7,1.1c-0.3,0.3-0.8,0.5-1.4,0.5c-0.1,0-0.3,0-0.4,0
			c-0.1,0-0.3-0.1-0.5-0.1l0.2-1.2c0.1,0,0.1,0,0.2,0c0.1,0,0.1,0,0.2,0c0.3,0,0.5-0.1,0.7-0.2c0.2-0.1,0.3-0.3,0.4-0.5l0.2-0.5
			l-2-5.2l-0.6-0.1v-1h3.1v1l-0.7,0.1l0.9,2.5l0.1,0.5l0,0l1-3l-0.7-0.1v-1h3.1V154.6z"/>
		<path class="st1" d="M346.8,154.6v-1h2.5l0.1,0.7c0.2-0.3,0.4-0.5,0.7-0.6c0.3-0.1,0.6-0.2,0.9-0.2c0.8,0,1.4,0.3,1.8,0.9
			s0.7,1.4,0.7,2.4v0.1c0,0.9-0.2,1.7-0.7,2.3s-1,0.9-1.8,0.9c-0.3,0-0.6-0.1-0.9-0.2c-0.3-0.1-0.5-0.3-0.7-0.5v1.8l0.8,0.2v1h-3.4
			v-1l0.8-0.2v-6.4L346.8,154.6z M351.8,156.8c0-0.6-0.1-1.1-0.3-1.5s-0.5-0.6-0.9-0.6c-0.3,0-0.5,0.1-0.7,0.2
			c-0.2,0.1-0.3,0.3-0.4,0.5v2.8c0.1,0.2,0.3,0.3,0.4,0.4c0.2,0.1,0.4,0.1,0.7,0.1c0.4,0,0.7-0.2,0.9-0.5s0.3-0.8,0.3-1.3V156.8z"/>
		<path class="st1" d="M356.8,152v1.6h1.1v1.2h-1.1v3.2c0,0.2,0.1,0.4,0.2,0.5s0.2,0.2,0.4,0.2c0.1,0,0.2,0,0.3,0
			c0.1,0,0.2,0,0.3-0.1l0.1,1.2c-0.2,0.1-0.4,0.1-0.6,0.1s-0.4,0-0.6,0c-0.6,0-1.1-0.2-1.4-0.5s-0.5-0.8-0.5-1.5v-3.2h-0.9v-1.2h0.9
			V152H356.8z"/>
		<path class="st1" d="M361.9,160.1c-0.9,0-1.7-0.3-2.2-0.9c-0.6-0.6-0.8-1.3-0.8-2.2v-0.2c0-0.9,0.3-1.7,0.8-2.3
			c0.5-0.6,1.2-0.9,2.1-0.9c0.9,0,1.5,0.3,2,0.8c0.5,0.5,0.7,1.2,0.7,2.1v0.9h-3.8l0,0c0,0.4,0.2,0.8,0.4,1c0.3,0.3,0.6,0.4,1,0.4
			c0.4,0,0.7,0,1-0.1c0.3-0.1,0.5-0.2,0.8-0.4l0.5,1.1c-0.3,0.2-0.6,0.4-1,0.5C362.9,160,362.4,160.1,361.9,160.1z M361.7,154.8
			c-0.3,0-0.6,0.1-0.8,0.4s-0.3,0.6-0.3,1l0,0h2.1V156c0-0.4-0.1-0.7-0.3-0.9C362.3,154.9,362.1,154.8,361.7,154.8z"/>
		<path class="st1" d="M369.4,159.2c-0.2,0.3-0.4,0.5-0.7,0.7c-0.3,0.2-0.6,0.2-0.9,0.2c-0.8,0-1.4-0.3-1.8-0.9s-0.7-1.3-0.7-2.3
			v-0.1c0-1,0.2-1.8,0.7-2.4s1.1-0.9,1.8-0.9c0.3,0,0.6,0.1,0.9,0.2c0.3,0.1,0.5,0.3,0.7,0.6V152l-0.9-0.2v-1h0.9h1.7v7.9l0.8,0.2v1
			h-2.3L369.4,159.2z M367,156.9c0,0.6,0.1,1,0.3,1.3s0.5,0.5,0.9,0.5c0.3,0,0.5-0.1,0.7-0.2c0.2-0.1,0.3-0.2,0.5-0.4v-2.7
			c-0.1-0.2-0.3-0.4-0.5-0.5s-0.4-0.2-0.6-0.2c-0.4,0-0.7,0.2-0.9,0.6s-0.3,0.9-0.3,1.5V156.9z"/>
	</g>
	<g class="st0">
		<path class="st21" d="M374.9,114.5c-0.2,0.2-0.5,0.3-0.8,0.4c-0.3,0.1-0.7,0.2-1.1,0.2c-0.4,0-0.8-0.1-1.1-0.2
			c-0.3-0.1-0.6-0.3-0.8-0.6c-0.2-0.3-0.3-0.6-0.4-0.9c-0.1-0.4-0.1-0.7-0.1-1.2c0-0.9,0.2-1.7,0.6-2.1s1-0.7,1.8-0.7
			c0.3,0,0.5,0,0.7,0.1c0.3,0.1,0.5,0.2,0.7,0.3c0.2,0.2,0.4,0.4,0.5,0.7c0.1,0.3,0.2,0.7,0.2,1.1c0,0.2,0,0.5-0.1,0.8h-3.5
			c0,0.3,0,0.6,0.1,0.9c0.1,0.2,0.2,0.5,0.3,0.6c0.1,0.2,0.3,0.3,0.5,0.4c0.2,0.1,0.5,0.1,0.8,0.1c0.2,0,0.5,0,0.7-0.1
			c0.2-0.1,0.4-0.2,0.6-0.3L374.9,114.5z M373,110c-0.4,0-0.8,0.1-1,0.3c-0.3,0.2-0.4,0.6-0.5,1.2h2.7c0-0.6-0.1-0.9-0.3-1.2
			C373.7,110.1,373.4,110,373,110z"/>
		<path class="st21" d="M380,114.9v-3.1c0-0.6-0.1-1-0.2-1.3c-0.2-0.3-0.5-0.4-0.9-0.4c-0.4,0-0.7,0.1-1,0.3
			c-0.3,0.2-0.4,0.5-0.5,0.8v3.8h-0.9v-5.5h0.6l0.2,0.7h0c0.2-0.2,0.4-0.4,0.7-0.6c0.3-0.2,0.7-0.2,1.1-0.2c0.3,0,0.6,0,0.8,0.1
			s0.4,0.2,0.6,0.4s0.3,0.4,0.3,0.7c0.1,0.3,0.1,0.7,0.1,1.1v3.3H380z"/>
		<path class="st21" d="M386.2,114.5c-0.2,0.2-0.5,0.3-0.8,0.4c-0.3,0.1-0.6,0.1-0.9,0.1c-0.4,0-0.8-0.1-1.1-0.2s-0.5-0.3-0.7-0.6
			c-0.2-0.3-0.3-0.6-0.4-0.9c-0.1-0.4-0.1-0.8-0.1-1.2c0-0.9,0.2-1.6,0.6-2.1c0.4-0.5,1-0.7,1.8-0.7c0.4,0,0.7,0,0.9,0.1
			c0.2,0.1,0.5,0.1,0.7,0.2l-0.3,0.8c-0.2-0.1-0.4-0.2-0.6-0.2c-0.2-0.1-0.4-0.1-0.7-0.1c-1,0-1.6,0.7-1.6,2.1c0,0.3,0,0.5,0.1,0.8
			c0.1,0.3,0.1,0.5,0.3,0.7s0.3,0.3,0.5,0.5c0.2,0.1,0.5,0.2,0.8,0.2c0.3,0,0.5,0,0.7-0.1s0.4-0.2,0.5-0.3L386.2,114.5z"/>
		<path class="st21" d="M390,110.2c-0.2-0.1-0.4-0.1-0.6-0.1c-0.3,0-0.6,0.1-0.7,0.3c-0.2,0.2-0.3,0.4-0.3,0.7v3.8h-0.9v-5.5h0.6
			l0.2,0.7h0c0.1-0.2,0.3-0.4,0.5-0.6c0.2-0.1,0.4-0.2,0.7-0.2c0.2,0,0.5,0,0.7,0.1L390,110.2z"/>
		<path class="st21" d="M392.8,113l0.3,1.1h0.1l0.2-1.1l1.1-3.6h0.9l-1.6,4.9c-0.1,0.4-0.2,0.7-0.4,1c-0.1,0.3-0.3,0.6-0.4,0.9
			c-0.1,0.3-0.3,0.5-0.5,0.6c-0.2,0.2-0.4,0.2-0.6,0.2c-0.3,0-0.5,0-0.6-0.1l0.2-0.8c0.1,0,0.2,0.1,0.3,0.1c0.2,0,0.4-0.1,0.6-0.3
			c0.2-0.2,0.3-0.6,0.5-1.1l-2.2-5.5h1L392.8,113z"/>
		<path class="st21" d="M396.3,109.4h0.6l0.2,0.7h0c0.2-0.3,0.4-0.5,0.7-0.6s0.6-0.2,0.9-0.2c0.7,0,1.3,0.2,1.6,0.6
			c0.4,0.4,0.5,1.1,0.5,2.1c0,0.5-0.1,0.9-0.2,1.2s-0.3,0.7-0.5,0.9s-0.5,0.5-0.8,0.6c-0.3,0.1-0.7,0.2-1,0.2c-0.3,0-0.5,0-0.6,0
			c-0.2,0-0.3-0.1-0.5-0.2v2.3h-0.9V109.4z M398.5,110c-0.4,0-0.7,0.1-0.9,0.3c-0.2,0.2-0.4,0.5-0.5,0.9v2.7
			c0.1,0.1,0.3,0.2,0.5,0.2c0.2,0.1,0.4,0.1,0.7,0.1c0.5,0,0.9-0.2,1.2-0.6c0.3-0.4,0.4-0.9,0.4-1.7c0-0.3,0-0.6-0.1-0.8
			c-0.1-0.2-0.1-0.5-0.2-0.6s-0.3-0.3-0.4-0.4C399,110.1,398.8,110,398.5,110z"/>
	</g>
	<g class="st0">
		<path class="st21" d="M401.5,109.4h0.9v-1.1l0.9-0.3v1.3h1.5v0.8h-1.5v3c0,0.4,0,0.7,0.1,0.8c0.1,0.2,0.3,0.2,0.5,0.2
			c0.2,0,0.4,0,0.5-0.1s0.3-0.1,0.4-0.2l0.2,0.7c-0.2,0.1-0.4,0.2-0.6,0.2c-0.2,0.1-0.5,0.1-0.8,0.1c-0.4,0-0.8-0.1-0.9-0.4
			c-0.2-0.3-0.3-0.7-0.3-1.3v-3.2h-0.9V109.4z"/>
	</g>
	<g class="st0">
		<path class="st21" d="M409.9,114.5c-0.2,0.2-0.5,0.3-0.8,0.4c-0.3,0.1-0.7,0.2-1.1,0.2c-0.4,0-0.8-0.1-1.1-0.2
			c-0.3-0.1-0.6-0.3-0.8-0.6s-0.3-0.6-0.4-0.9c-0.1-0.4-0.1-0.7-0.1-1.2c0-0.9,0.2-1.7,0.6-2.1s1-0.7,1.8-0.7c0.2,0,0.5,0,0.7,0.1
			c0.2,0.1,0.5,0.2,0.7,0.3c0.2,0.2,0.4,0.4,0.5,0.7s0.2,0.7,0.2,1.1c0,0.2,0,0.5-0.1,0.8h-3.5c0,0.3,0,0.6,0.1,0.9
			c0.1,0.2,0.2,0.5,0.3,0.6c0.1,0.2,0.3,0.3,0.5,0.4s0.5,0.1,0.8,0.1c0.2,0,0.5,0,0.7-0.1c0.2-0.1,0.4-0.2,0.6-0.3L409.9,114.5z
			 M408,110c-0.4,0-0.8,0.1-1,0.3c-0.3,0.2-0.4,0.6-0.5,1.2h2.7c0-0.6-0.1-0.9-0.3-1.2S408.4,110,408,110z"/>
		<path class="st21" d="M415.7,113c0,0.4,0,0.7,0,1c0,0.3,0,0.6,0.1,0.9h-0.6l-0.2-0.8h0c-0.1,0.3-0.4,0.5-0.6,0.6
			c-0.3,0.2-0.6,0.3-1,0.3c-0.7,0-1.3-0.2-1.6-0.7c-0.4-0.5-0.5-1.2-0.5-2.2c0-0.9,0.2-1.7,0.7-2.1c0.4-0.5,1.1-0.7,1.8-0.7
			c0.3,0,0.5,0,0.6,0c0.2,0,0.3,0.1,0.5,0.1v-2.3h0.9V113z M413.4,114.3c0.4,0,0.7-0.1,0.9-0.3s0.4-0.5,0.5-0.9v-2.7
			c-0.1-0.1-0.3-0.2-0.5-0.2s-0.4-0.1-0.7-0.1c-0.5,0-0.9,0.2-1.2,0.5c-0.3,0.3-0.4,0.9-0.4,1.6c0,0.3,0,0.6,0.1,0.8
			s0.1,0.5,0.2,0.7c0.1,0.2,0.3,0.3,0.4,0.4C413,114.2,413.2,114.3,413.4,114.3z"/>
		<path class="st21" d="M424.5,113c0,0.4,0,0.7,0,1c0,0.3,0,0.6,0.1,0.9H424l-0.2-0.8h0c-0.1,0.3-0.4,0.5-0.6,0.6s-0.6,0.3-1,0.3
			c-0.7,0-1.3-0.2-1.6-0.7c-0.4-0.5-0.5-1.2-0.5-2.2c0-0.9,0.2-1.7,0.7-2.1c0.4-0.5,1.1-0.7,1.8-0.7c0.3,0,0.5,0,0.6,0
			c0.2,0,0.3,0.1,0.5,0.1v-2.3h0.9V113z M422.3,114.3c0.4,0,0.7-0.1,0.9-0.3c0.2-0.2,0.4-0.5,0.5-0.9v-2.7c-0.1-0.1-0.3-0.2-0.5-0.2
			c-0.2,0-0.4-0.1-0.7-0.1c-0.5,0-0.9,0.2-1.2,0.5c-0.3,0.3-0.4,0.9-0.4,1.6c0,0.3,0,0.6,0.1,0.8s0.1,0.5,0.2,0.7
			c0.1,0.2,0.3,0.3,0.4,0.4C421.8,114.2,422,114.3,422.3,114.3z"/>
		<path class="st21" d="M426.1,109.8c0.3-0.2,0.6-0.3,1-0.4s0.8-0.1,1.2-0.1c0.4,0,0.7,0.1,0.9,0.2c0.2,0.1,0.4,0.2,0.5,0.4
			s0.2,0.3,0.2,0.5c0,0.2,0.1,0.4,0.1,0.6c0,0.4,0,0.9,0,1.3c0,0.4,0,0.8,0,1.2c0,0.3,0,0.5,0,0.8c0,0.2,0.1,0.5,0.1,0.7h-0.6
			l-0.2-0.8h-0.1c-0.1,0.1-0.1,0.2-0.2,0.3c-0.1,0.1-0.2,0.2-0.4,0.3c-0.1,0.1-0.3,0.1-0.5,0.2c-0.2,0.1-0.4,0.1-0.6,0.1
			c-0.2,0-0.5,0-0.7-0.1c-0.2-0.1-0.4-0.2-0.5-0.3c-0.1-0.1-0.3-0.3-0.3-0.5c-0.1-0.2-0.1-0.4-0.1-0.6c0-0.3,0.1-0.6,0.2-0.8
			c0.1-0.2,0.3-0.4,0.6-0.5c0.2-0.1,0.5-0.2,0.9-0.3c0.3-0.1,0.7-0.1,1.1-0.1c0.1,0,0.2,0,0.3,0s0.2,0,0.3,0c0-0.2,0-0.4,0-0.6
			c0-0.4-0.1-0.7-0.2-0.8c-0.2-0.2-0.5-0.2-0.9-0.2c-0.1,0-0.3,0-0.4,0c-0.1,0-0.3,0-0.4,0.1c-0.2,0-0.3,0.1-0.4,0.1
			s-0.3,0.1-0.4,0.2L426.1,109.8z M427.7,114.2c0.2,0,0.4,0,0.6-0.1c0.2-0.1,0.3-0.1,0.4-0.2c0.1-0.1,0.2-0.2,0.3-0.3
			s0.1-0.2,0.2-0.3v-0.9c-0.1,0-0.2,0-0.3,0s-0.2,0-0.3,0c-0.2,0-0.4,0-0.7,0c-0.2,0-0.4,0.1-0.6,0.1c-0.2,0.1-0.3,0.2-0.4,0.3
			s-0.1,0.3-0.1,0.5c0,0.3,0.1,0.5,0.3,0.6C427.2,114.1,427.4,114.2,427.7,114.2z"/>
		<path class="st21" d="M430.9,109.4h0.9v-1.1l0.9-0.3v1.3h1.5v0.8h-1.5v3c0,0.4,0,0.7,0.1,0.8c0.1,0.2,0.3,0.2,0.5,0.2
			c0.2,0,0.4,0,0.5-0.1s0.3-0.1,0.4-0.2l0.2,0.7c-0.2,0.1-0.4,0.2-0.6,0.2c-0.2,0.1-0.5,0.1-0.8,0.1c-0.4,0-0.8-0.1-0.9-0.4
			c-0.2-0.3-0.3-0.7-0.3-1.3v-3.2h-0.9V109.4z"/>
		<path class="st21" d="M435.3,109.8c0.3-0.2,0.6-0.3,1-0.4s0.8-0.1,1.2-0.1c0.4,0,0.7,0.1,0.9,0.2c0.2,0.1,0.4,0.2,0.5,0.4
			s0.2,0.3,0.2,0.5c0,0.2,0.1,0.4,0.1,0.6c0,0.4,0,0.9,0,1.3c0,0.4,0,0.8,0,1.2c0,0.3,0,0.5,0,0.8c0,0.2,0.1,0.5,0.1,0.7h-0.6
			l-0.2-0.8h-0.1c-0.1,0.1-0.1,0.2-0.2,0.3c-0.1,0.1-0.2,0.2-0.4,0.3c-0.1,0.1-0.3,0.1-0.5,0.2c-0.2,0.1-0.4,0.1-0.6,0.1
			c-0.2,0-0.5,0-0.7-0.1c-0.2-0.1-0.4-0.2-0.5-0.3c-0.1-0.1-0.3-0.3-0.3-0.5c-0.1-0.2-0.1-0.4-0.1-0.6c0-0.3,0.1-0.6,0.2-0.8
			c0.1-0.2,0.3-0.4,0.6-0.5c0.2-0.1,0.5-0.2,0.9-0.3c0.3-0.1,0.7-0.1,1.1-0.1c0.1,0,0.2,0,0.3,0s0.2,0,0.3,0c0-0.2,0-0.4,0-0.6
			c0-0.4-0.1-0.7-0.2-0.8c-0.2-0.2-0.5-0.2-0.9-0.2c-0.1,0-0.3,0-0.4,0c-0.1,0-0.3,0-0.4,0.1c-0.2,0-0.3,0.1-0.4,0.1
			s-0.3,0.1-0.4,0.2L435.3,109.8z M436.9,114.2c0.2,0,0.4,0,0.6-0.1c0.2-0.1,0.3-0.1,0.4-0.2c0.1-0.1,0.2-0.2,0.3-0.3
			s0.1-0.2,0.2-0.3v-0.9c-0.1,0-0.2,0-0.3,0s-0.2,0-0.3,0c-0.2,0-0.4,0-0.7,0c-0.2,0-0.4,0.1-0.6,0.1c-0.2,0.1-0.3,0.2-0.4,0.3
			s-0.1,0.3-0.1,0.5c0,0.3,0.1,0.5,0.3,0.6C436.4,114.1,436.6,114.2,436.9,114.2z"/>
	</g>
	<g class="st0">
		<path class="st21" d="M374.9,190.2c-0.2,0.2-0.5,0.3-0.8,0.4c-0.3,0.1-0.7,0.2-1.1,0.2c-0.4,0-0.8-0.1-1.1-0.2
			c-0.3-0.1-0.6-0.3-0.8-0.6c-0.2-0.3-0.3-0.6-0.4-0.9c-0.1-0.4-0.1-0.7-0.1-1.2c0-0.9,0.2-1.7,0.6-2.1s1-0.7,1.8-0.7
			c0.3,0,0.5,0,0.7,0.1c0.3,0.1,0.5,0.2,0.7,0.3c0.2,0.2,0.4,0.4,0.5,0.7c0.1,0.3,0.2,0.7,0.2,1.1c0,0.2,0,0.5-0.1,0.8h-3.5
			c0,0.3,0,0.6,0.1,0.9c0.1,0.2,0.2,0.5,0.3,0.6c0.1,0.2,0.3,0.3,0.5,0.4c0.2,0.1,0.5,0.1,0.8,0.1c0.2,0,0.5,0,0.7-0.1
			c0.2-0.1,0.4-0.2,0.6-0.3L374.9,190.2z M373,185.7c-0.4,0-0.8,0.1-1,0.3c-0.3,0.2-0.4,0.6-0.5,1.2h2.7c0-0.6-0.1-0.9-0.3-1.2
			C373.7,185.8,373.4,185.7,373,185.7z"/>
		<path class="st21" d="M380,190.6v-3.1c0-0.6-0.1-1-0.2-1.3c-0.2-0.3-0.5-0.4-0.9-0.4c-0.4,0-0.7,0.1-1,0.3
			c-0.3,0.2-0.4,0.5-0.5,0.8v3.8h-0.9v-5.5h0.6l0.2,0.7h0c0.2-0.2,0.4-0.4,0.7-0.6c0.3-0.2,0.7-0.2,1.1-0.2c0.3,0,0.6,0,0.8,0.1
			s0.4,0.2,0.6,0.4s0.3,0.4,0.3,0.7c0.1,0.3,0.1,0.7,0.1,1.1v3.3H380z"/>
		<path class="st21" d="M386.2,190.2c-0.2,0.2-0.5,0.3-0.8,0.4c-0.3,0.1-0.6,0.1-0.9,0.1c-0.4,0-0.8-0.1-1.1-0.2s-0.5-0.3-0.7-0.6
			c-0.2-0.3-0.3-0.6-0.4-0.9c-0.1-0.4-0.1-0.8-0.1-1.2c0-0.9,0.2-1.6,0.6-2.1c0.4-0.5,1-0.7,1.8-0.7c0.4,0,0.7,0,0.9,0.1
			c0.2,0.1,0.5,0.1,0.7,0.2l-0.3,0.8c-0.2-0.1-0.4-0.2-0.6-0.2c-0.2-0.1-0.4-0.1-0.7-0.1c-1,0-1.6,0.7-1.6,2.1c0,0.3,0,0.5,0.1,0.8
			c0.1,0.3,0.1,0.5,0.3,0.7s0.3,0.3,0.5,0.5c0.2,0.1,0.5,0.2,0.8,0.2c0.3,0,0.5,0,0.7-0.1s0.4-0.2,0.5-0.3L386.2,190.2z"/>
		<path class="st21" d="M390,185.9c-0.2-0.1-0.4-0.1-0.6-0.1c-0.3,0-0.6,0.1-0.7,0.3c-0.2,0.2-0.3,0.4-0.3,0.7v3.8h-0.9v-5.5h0.6
			l0.2,0.7h0c0.1-0.2,0.3-0.4,0.5-0.6c0.2-0.1,0.4-0.2,0.7-0.2c0.2,0,0.5,0,0.7,0.1L390,185.9z"/>
		<path class="st21" d="M392.8,188.7l0.3,1.1h0.1l0.2-1.1l1.1-3.6h0.9l-1.6,4.9c-0.1,0.4-0.2,0.7-0.4,1c-0.1,0.3-0.3,0.6-0.4,0.9
			c-0.1,0.3-0.3,0.5-0.5,0.6c-0.2,0.2-0.4,0.2-0.6,0.2c-0.3,0-0.5,0-0.6-0.1l0.2-0.8c0.1,0,0.2,0.1,0.3,0.1c0.2,0,0.4-0.1,0.6-0.3
			c0.2-0.2,0.3-0.6,0.5-1.1l-2.2-5.5h1L392.8,188.7z"/>
		<path class="st21" d="M396.3,185.1h0.6l0.2,0.7h0c0.2-0.3,0.4-0.5,0.7-0.6s0.6-0.2,0.9-0.2c0.7,0,1.3,0.2,1.6,0.6
			c0.4,0.4,0.5,1.1,0.5,2.1c0,0.5-0.1,0.9-0.2,1.2s-0.3,0.7-0.5,0.9s-0.5,0.5-0.8,0.6c-0.3,0.1-0.7,0.2-1,0.2c-0.3,0-0.5,0-0.6,0
			c-0.2,0-0.3-0.1-0.5-0.2v2.3h-0.9V185.1z M398.5,185.7c-0.4,0-0.7,0.1-0.9,0.3c-0.2,0.2-0.4,0.5-0.5,0.9v2.7
			c0.1,0.1,0.3,0.2,0.5,0.2c0.2,0.1,0.4,0.1,0.7,0.1c0.5,0,0.9-0.2,1.2-0.6c0.3-0.4,0.4-0.9,0.4-1.7c0-0.3,0-0.6-0.1-0.8
			c-0.1-0.2-0.1-0.5-0.2-0.6s-0.3-0.3-0.4-0.4C399,185.8,398.8,185.7,398.5,185.7z"/>
	</g>
	<g class="st0">
		<path class="st21" d="M401.5,185.1h0.9V184l0.9-0.3v1.3h1.5v0.8h-1.5v3c0,0.4,0,0.7,0.1,0.8c0.1,0.2,0.3,0.2,0.5,0.2
			c0.2,0,0.4,0,0.5-0.1s0.3-0.1,0.4-0.2l0.2,0.7c-0.2,0.1-0.4,0.2-0.6,0.2c-0.2,0.1-0.5,0.1-0.8,0.1c-0.4,0-0.8-0.1-0.9-0.4
			c-0.2-0.3-0.3-0.7-0.3-1.3v-3.2h-0.9V185.1z"/>
	</g>
	<g class="st0">
		<path class="st21" d="M409.9,190.2c-0.2,0.2-0.5,0.3-0.8,0.4c-0.3,0.1-0.7,0.2-1.1,0.2c-0.4,0-0.8-0.1-1.1-0.2
			c-0.3-0.1-0.6-0.3-0.8-0.6s-0.3-0.6-0.4-0.9c-0.1-0.4-0.1-0.7-0.1-1.2c0-0.9,0.2-1.7,0.6-2.1s1-0.7,1.8-0.7c0.2,0,0.5,0,0.7,0.1
			c0.2,0.1,0.5,0.2,0.7,0.3c0.2,0.2,0.4,0.4,0.5,0.7s0.2,0.7,0.2,1.1c0,0.2,0,0.5-0.1,0.8h-3.5c0,0.3,0,0.6,0.1,0.9
			c0.1,0.2,0.2,0.5,0.3,0.6c0.1,0.2,0.3,0.3,0.5,0.4s0.5,0.1,0.8,0.1c0.2,0,0.5,0,0.7-0.1c0.2-0.1,0.4-0.2,0.6-0.3L409.9,190.2z
			 M408,185.7c-0.4,0-0.8,0.1-1,0.3c-0.3,0.2-0.4,0.6-0.5,1.2h2.7c0-0.6-0.1-0.9-0.3-1.2S408.4,185.7,408,185.7z"/>
		<path class="st21" d="M415.7,188.7c0,0.4,0,0.7,0,1c0,0.3,0,0.6,0.1,0.9h-0.6l-0.2-0.8h0c-0.1,0.3-0.4,0.5-0.6,0.6
			c-0.3,0.2-0.6,0.3-1,0.3c-0.7,0-1.3-0.2-1.6-0.7c-0.4-0.5-0.5-1.2-0.5-2.2c0-0.9,0.2-1.7,0.7-2.1c0.4-0.5,1.1-0.7,1.8-0.7
			c0.3,0,0.5,0,0.6,0c0.2,0,0.3,0.1,0.5,0.1v-2.3h0.9V188.7z M413.4,190c0.4,0,0.7-0.1,0.9-0.3s0.4-0.5,0.5-0.9v-2.7
			c-0.1-0.1-0.3-0.2-0.5-0.2s-0.4-0.1-0.7-0.1c-0.5,0-0.9,0.2-1.2,0.5c-0.3,0.3-0.4,0.9-0.4,1.6c0,0.3,0,0.6,0.1,0.8
			s0.1,0.5,0.2,0.7c0.1,0.2,0.3,0.3,0.4,0.4C413,189.9,413.2,190,413.4,190z"/>
		<path class="st21" d="M420.3,185.1h0.6l0.2,0.7h0c0.2-0.3,0.4-0.5,0.7-0.6s0.6-0.2,0.9-0.2c0.7,0,1.3,0.2,1.6,0.6
			c0.4,0.4,0.5,1.1,0.5,2.1c0,0.5-0.1,0.9-0.2,1.2s-0.3,0.7-0.5,0.9s-0.5,0.5-0.8,0.6c-0.3,0.1-0.7,0.2-1,0.2c-0.3,0-0.5,0-0.6,0
			c-0.2,0-0.3-0.1-0.5-0.2v2.3h-0.9V185.1z M422.5,185.7c-0.4,0-0.7,0.1-0.9,0.3c-0.2,0.2-0.4,0.5-0.5,0.9v2.7
			c0.1,0.1,0.3,0.2,0.5,0.2c0.2,0.1,0.4,0.1,0.7,0.1c0.5,0,0.9-0.2,1.2-0.6c0.3-0.4,0.4-0.9,0.4-1.7c0-0.3,0-0.6-0.1-0.8
			c-0.1-0.2-0.1-0.5-0.2-0.6c-0.1-0.2-0.3-0.3-0.4-0.4C423,185.8,422.8,185.7,422.5,185.7z"/>
		<path class="st21" d="M428.8,185.9c-0.2-0.1-0.4-0.1-0.6-0.1c-0.3,0-0.6,0.1-0.7,0.3c-0.2,0.2-0.3,0.4-0.3,0.7v3.8h-0.9v-5.5h0.6
			l0.2,0.7h0c0.1-0.2,0.3-0.4,0.5-0.6s0.4-0.2,0.7-0.2c0.2,0,0.5,0,0.7,0.1L428.8,185.9z"/>
		<path class="st21" d="M429.7,187.8c0-0.9,0.2-1.6,0.6-2.1c0.4-0.5,1-0.7,1.8-0.7c0.4,0,0.8,0.1,1.1,0.2c0.3,0.1,0.6,0.3,0.8,0.6
			s0.3,0.6,0.4,0.9c0.1,0.4,0.1,0.8,0.1,1.2c0,0.9-0.2,1.6-0.6,2.1c-0.4,0.5-1,0.7-1.8,0.7c-0.4,0-0.8-0.1-1.1-0.2
			c-0.3-0.1-0.6-0.3-0.8-0.6s-0.3-0.6-0.4-0.9C429.7,188.7,429.7,188.3,429.7,187.8z M430.6,187.8c0,0.3,0,0.5,0.1,0.8
			c0.1,0.3,0.1,0.5,0.3,0.7c0.1,0.2,0.3,0.3,0.5,0.5c0.2,0.1,0.4,0.2,0.7,0.2c1,0,1.5-0.7,1.5-2.1c0-0.3,0-0.6-0.1-0.8
			c-0.1-0.3-0.1-0.5-0.3-0.7c-0.1-0.2-0.3-0.3-0.5-0.5c-0.2-0.1-0.4-0.2-0.7-0.2C431.1,185.7,430.6,186.4,430.6,187.8z"/>
	</g>
	<g class="st0">
		<path class="st21" d="M439.6,190.2c-0.2,0.2-0.5,0.3-0.8,0.4c-0.3,0.1-0.6,0.1-0.9,0.1c-0.4,0-0.8-0.1-1.1-0.2s-0.5-0.3-0.7-0.6
			s-0.3-0.6-0.4-0.9s-0.1-0.8-0.1-1.2c0-0.9,0.2-1.6,0.6-2.1c0.4-0.5,1-0.7,1.8-0.7c0.4,0,0.7,0,0.9,0.1c0.2,0.1,0.5,0.1,0.7,0.2
			l-0.3,0.8c-0.2-0.1-0.4-0.2-0.6-0.2c-0.2-0.1-0.4-0.1-0.7-0.1c-1,0-1.6,0.7-1.6,2.1c0,0.3,0,0.5,0.1,0.8s0.1,0.5,0.3,0.7
			c0.1,0.2,0.3,0.3,0.5,0.5c0.2,0.1,0.5,0.2,0.8,0.2c0.3,0,0.5,0,0.7-0.1s0.4-0.2,0.5-0.3L439.6,190.2z"/>
	</g>
	<g class="st0">
		<path class="st21" d="M444.6,190.2c-0.2,0.2-0.5,0.3-0.8,0.4c-0.3,0.1-0.7,0.2-1.1,0.2c-0.4,0-0.8-0.1-1.1-0.2
			c-0.3-0.1-0.6-0.3-0.8-0.6s-0.3-0.6-0.4-0.9c-0.1-0.4-0.1-0.7-0.1-1.2c0-0.9,0.2-1.7,0.6-2.1s1-0.7,1.8-0.7c0.2,0,0.5,0,0.7,0.1
			c0.2,0.1,0.5,0.2,0.7,0.3c0.2,0.2,0.4,0.4,0.5,0.7c0.1,0.3,0.2,0.7,0.2,1.1c0,0.2,0,0.5-0.1,0.8h-3.5c0,0.3,0,0.6,0.1,0.9
			s0.2,0.5,0.3,0.6c0.1,0.2,0.3,0.3,0.5,0.4s0.5,0.1,0.8,0.1c0.3,0,0.5,0,0.7-0.1c0.3-0.1,0.4-0.2,0.6-0.3L444.6,190.2z
			 M442.7,185.7c-0.4,0-0.8,0.1-1,0.3c-0.3,0.2-0.4,0.6-0.5,1.2h2.7c0-0.6-0.1-0.9-0.3-1.2C443.4,185.8,443.1,185.7,442.7,185.7z"/>
		<path class="st21" d="M448.6,189.1c0-0.2-0.1-0.4-0.2-0.5c-0.1-0.1-0.3-0.2-0.5-0.3c-0.2-0.1-0.4-0.2-0.6-0.2s-0.4-0.2-0.6-0.3
			s-0.4-0.3-0.5-0.5c-0.1-0.2-0.2-0.4-0.2-0.8c0-0.5,0.1-0.9,0.5-1.2c0.3-0.2,0.7-0.4,1.3-0.4c0.4,0,0.7,0,1,0.1s0.5,0.2,0.7,0.2
			l-0.2,0.7c-0.2-0.1-0.4-0.2-0.6-0.2s-0.5-0.1-0.8-0.1c-0.3,0-0.6,0.1-0.7,0.2c-0.2,0.1-0.2,0.3-0.2,0.6c0,0.2,0.1,0.3,0.2,0.4
			c0.1,0.1,0.3,0.2,0.5,0.3s0.4,0.2,0.6,0.2c0.2,0.1,0.4,0.2,0.6,0.3c0.2,0.1,0.4,0.3,0.5,0.5c0.1,0.2,0.2,0.5,0.2,0.8
			c0,0.2,0,0.5-0.1,0.7c-0.1,0.2-0.2,0.4-0.4,0.5c-0.2,0.1-0.4,0.3-0.6,0.3c-0.2,0.1-0.5,0.1-0.8,0.1c-0.4,0-0.8,0-1.1-0.1
			c-0.3-0.1-0.5-0.2-0.7-0.3l0.3-0.7c0.2,0.1,0.4,0.2,0.7,0.3c0.3,0.1,0.5,0.1,0.8,0.1c0.3,0,0.6-0.1,0.8-0.2
			C448.5,189.7,448.6,189.4,448.6,189.1z"/>
		<path class="st21" d="M453.2,189.1c0-0.2-0.1-0.4-0.2-0.5c-0.1-0.1-0.3-0.2-0.5-0.3c-0.2-0.1-0.4-0.2-0.6-0.2s-0.4-0.2-0.6-0.3
			s-0.4-0.3-0.5-0.5c-0.1-0.2-0.2-0.4-0.2-0.8c0-0.5,0.1-0.9,0.5-1.2c0.3-0.2,0.7-0.4,1.3-0.4c0.4,0,0.7,0,1,0.1s0.5,0.2,0.7,0.2
			l-0.2,0.7c-0.2-0.1-0.4-0.2-0.6-0.2s-0.5-0.1-0.8-0.1c-0.3,0-0.6,0.1-0.7,0.2c-0.2,0.1-0.2,0.3-0.2,0.6c0,0.2,0.1,0.3,0.2,0.4
			c0.1,0.1,0.3,0.2,0.5,0.3s0.4,0.2,0.6,0.2c0.2,0.1,0.4,0.2,0.6,0.3c0.2,0.1,0.4,0.3,0.5,0.5c0.1,0.2,0.2,0.5,0.2,0.8
			c0,0.2,0,0.5-0.1,0.7c-0.1,0.2-0.2,0.4-0.4,0.5c-0.2,0.1-0.4,0.3-0.6,0.3c-0.2,0.1-0.5,0.1-0.8,0.1c-0.4,0-0.8,0-1.1-0.1
			c-0.3-0.1-0.5-0.2-0.7-0.3l0.3-0.7c0.2,0.1,0.4,0.2,0.7,0.3c0.3,0.1,0.5,0.1,0.8,0.1c0.3,0,0.6-0.1,0.8-0.2
			C453.1,189.7,453.2,189.4,453.2,189.1z"/>
		<path class="st21" d="M455.4,183.4c0-0.2,0.1-0.3,0.2-0.4s0.3-0.2,0.4-0.2c0.2,0,0.3,0.1,0.5,0.2c0.1,0.1,0.2,0.3,0.2,0.4
			s-0.1,0.3-0.2,0.4c-0.1,0.1-0.3,0.2-0.5,0.2c-0.2,0-0.3-0.1-0.4-0.2S455.4,183.6,455.4,183.4z M455.6,185.1h0.9v5.5h-0.9V185.1z"
			/>
		<path class="st21" d="M461.9,190.6v-3.1c0-0.6-0.1-1-0.2-1.3c-0.2-0.3-0.5-0.4-0.9-0.4c-0.4,0-0.7,0.1-1,0.3
			c-0.3,0.2-0.4,0.5-0.5,0.8v3.8h-0.9v-5.5h0.6l0.2,0.7h0c0.2-0.2,0.4-0.4,0.7-0.6s0.7-0.2,1.1-0.2c0.3,0,0.6,0,0.8,0.1
			c0.2,0.1,0.4,0.2,0.6,0.4s0.3,0.4,0.3,0.7s0.1,0.7,0.1,1.1v3.3H461.9z"/>
		<path class="st21" d="M468.6,190.9c0,0.7-0.2,1.2-0.6,1.6c-0.4,0.3-0.9,0.5-1.7,0.5c-0.4,0-0.8,0-1.1-0.1
			c-0.3-0.1-0.5-0.1-0.7-0.2l0.2-0.7c0.2,0.1,0.4,0.1,0.6,0.2s0.5,0.1,0.8,0.1c0.3,0,0.6,0,0.8-0.1c0.2-0.1,0.3-0.1,0.5-0.3
			c0.1-0.1,0.2-0.3,0.2-0.5c0-0.2,0.1-0.4,0.1-0.7v-0.5h0c-0.1,0.2-0.3,0.4-0.6,0.5c-0.2,0.1-0.5,0.2-0.9,0.2
			c-0.7,0-1.3-0.2-1.6-0.7s-0.5-1.2-0.5-2.2c0-0.9,0.2-1.7,0.7-2.1c0.4-0.5,1.1-0.7,2-0.7c0.4,0,0.8,0,1.1,0.1
			c0.3,0.1,0.6,0.1,0.8,0.2V190.9z M466.4,190c0.4,0,0.7-0.1,0.9-0.3c0.2-0.2,0.4-0.5,0.5-0.9V186c-0.3-0.1-0.7-0.2-1.1-0.2
			c-0.5,0-0.9,0.2-1.2,0.5c-0.3,0.3-0.4,0.9-0.4,1.6c0,0.3,0,0.6,0.1,0.8c0.1,0.3,0.1,0.5,0.2,0.7c0.1,0.2,0.3,0.3,0.4,0.4
			C465.9,189.9,466.2,190,466.4,190z"/>
	</g>
	<g class="st0">
		<path class="st2" d="M448.5,19.7v1l-0.9,0.2v4.5c0,0.6,0.2,1,0.5,1.3s0.7,0.4,1.2,0.4c0.5,0,1-0.1,1.3-0.4s0.5-0.7,0.5-1.3v-4.5
			l-0.9-0.2v-1h3.5v1l-0.9,0.2v4.5c0,1-0.3,1.7-0.9,2.2s-1.5,0.8-2.5,0.8c-1,0-1.8-0.3-2.5-0.8s-0.9-1.3-0.9-2.2v-4.5l-0.9-0.2v-1
			h0.9h1.7H448.5z"/>
		<path class="st2" d="M454.1,27.2l0.8-0.2v-3.9l-0.9-0.2v-1h2.5l0.1,0.9c0.2-0.3,0.5-0.6,0.8-0.8s0.7-0.3,1-0.3
			c0.6,0,1.1,0.2,1.5,0.6s0.5,1,0.5,1.9V27l0.8,0.2v1H458v-1l0.7-0.2v-2.8c0-0.4-0.1-0.7-0.3-0.9s-0.4-0.3-0.8-0.3
			c-0.2,0-0.4,0-0.6,0.1s-0.3,0.2-0.5,0.4V27l0.7,0.2v1h-3.2V27.2z"/>
		<path class="st2" d="M464.3,20.3v1.6h1.1v1.2h-1.1v3.2c0,0.2,0.1,0.4,0.2,0.5s0.2,0.2,0.4,0.2c0.1,0,0.2,0,0.3,0s0.2,0,0.3,0
			l0.1,1.2c-0.2,0.1-0.4,0.1-0.6,0.1s-0.4,0-0.6,0c-0.6,0-1-0.2-1.4-0.5s-0.5-0.8-0.5-1.5v-3.2h-0.9v-1.2h0.9v-1.6H464.3z"/>
		<path class="st2" d="M466.4,27.2l0.8-0.2v-3.9l-0.9-0.2v-1h2.5l0.1,0.9c0.1-0.3,0.3-0.6,0.6-0.8s0.5-0.3,0.8-0.3
			c0.1,0,0.2,0,0.3,0s0.2,0,0.2,0l-0.2,1.6l-0.7,0c-0.3,0-0.5,0-0.6,0.1s-0.3,0.2-0.4,0.4V27l0.8,0.2v1h-3.4V27.2z"/>
		<path class="st2" d="M475.8,27.4c-0.2,0.3-0.5,0.5-0.8,0.7s-0.6,0.2-1,0.2c-0.7,0-1.2-0.2-1.6-0.6s-0.6-1.1-0.6-2v-2.6l-0.7-0.2
			v-1h0.7h1.7v3.8c0,0.5,0.1,0.8,0.2,1s0.4,0.3,0.7,0.3c0.3,0,0.5,0,0.7-0.1s0.4-0.2,0.5-0.4v-3.4l-0.8-0.2v-1h0.8h1.7V27l0.8,0.2v1
			h-2.3L475.8,27.4z"/>
		<path class="st2" d="M484,24h-1.1l-0.2-0.8c-0.1-0.1-0.3-0.2-0.4-0.2s-0.4-0.1-0.6-0.1c-0.3,0-0.5,0.1-0.7,0.2s-0.3,0.3-0.3,0.5
			c0,0.2,0.1,0.4,0.3,0.5s0.5,0.2,1,0.3c0.8,0.2,1.4,0.4,1.7,0.7s0.6,0.7,0.6,1.3c0,0.6-0.2,1-0.7,1.4s-1.1,0.5-1.9,0.5
			c-0.5,0-0.9-0.1-1.3-0.2s-0.8-0.3-1.1-0.6l0-1.4h1.2l0.2,0.8c0.1,0.1,0.2,0.1,0.4,0.2s0.4,0.1,0.6,0.1c0.3,0,0.6-0.1,0.8-0.2
			s0.3-0.3,0.3-0.5c0-0.2-0.1-0.3-0.3-0.5s-0.5-0.3-1-0.4c-0.7-0.2-1.3-0.4-1.7-0.7s-0.6-0.7-0.6-1.2c0-0.5,0.2-1,0.7-1.4
			s1.1-0.6,1.9-0.6c0.5,0,1,0.1,1.4,0.2s0.8,0.3,1,0.5L484,24z"/>
		<path class="st2" d="M487.5,20.3v1.6h1.1v1.2h-1.1v3.2c0,0.2,0.1,0.4,0.2,0.5s0.2,0.2,0.4,0.2c0.1,0,0.2,0,0.3,0s0.2,0,0.3,0
			l0.1,1.2c-0.2,0.1-0.4,0.1-0.6,0.1s-0.4,0-0.6,0c-0.6,0-1-0.2-1.4-0.5s-0.5-0.8-0.5-1.5v-3.2h-0.9v-1.2h0.9v-1.6H487.5z"/>
		<path class="st2" d="M492.5,28.3c-0.9,0-1.6-0.3-2.2-0.9s-0.8-1.3-0.8-2.2V25c0-0.9,0.3-1.7,0.8-2.3s1.2-0.9,2.1-0.9
			c0.9,0,1.5,0.3,2,0.8s0.7,1.2,0.7,2.1v0.9h-3.8l0,0c0,0.4,0.2,0.8,0.4,1s0.6,0.4,1,0.4c0.4,0,0.7,0,0.9-0.1s0.5-0.2,0.8-0.4
			l0.5,1.1c-0.3,0.2-0.6,0.4-1,0.5S493,28.3,492.5,28.3z M492.4,23.1c-0.3,0-0.6,0.1-0.8,0.4s-0.3,0.6-0.3,1l0,0h2.1v-0.2
			c0-0.4-0.1-0.7-0.3-0.9S492.7,23.1,492.4,23.1z"/>
		<path class="st2" d="M500,27.4c-0.2,0.3-0.4,0.5-0.7,0.7s-0.6,0.2-0.9,0.2c-0.8,0-1.4-0.3-1.8-0.9s-0.6-1.3-0.6-2.3v-0.1
			c0-1,0.2-1.8,0.7-2.4s1-0.9,1.8-0.9c0.3,0,0.6,0.1,0.9,0.2s0.5,0.3,0.7,0.6v-2.3l-0.9-0.2v-1h0.9h1.7V27l0.8,0.2v1h-2.3L500,27.4z
			 M497.6,25.2c0,0.6,0.1,1,0.3,1.3s0.5,0.5,0.9,0.5c0.3,0,0.5-0.1,0.7-0.2s0.3-0.2,0.5-0.4v-2.7c-0.1-0.2-0.3-0.4-0.4-0.5
			s-0.4-0.2-0.6-0.2c-0.4,0-0.7,0.2-0.9,0.6s-0.3,0.9-0.3,1.5V25.2z"/>
	</g>
	<g class="st0">
		<path class="st2" d="M399.1,41.6l0.8-0.2v-3.9l-0.9-0.2v-1h2.5l0.1,0.9c0.1-0.3,0.3-0.6,0.6-0.8s0.5-0.3,0.8-0.3
			c0.1,0,0.2,0,0.3,0s0.2,0,0.3,0l-0.2,1.6l-0.7,0c-0.3,0-0.5,0-0.6,0.1s-0.3,0.2-0.4,0.4v3.1l0.8,0.2v1h-3.4V41.6z"/>
	</g>
	<g class="st0">
		<path class="st2" d="M406.9,42.7c-0.9,0-1.6-0.3-2.2-0.9s-0.8-1.3-0.8-2.2v-0.2c0-0.9,0.3-1.7,0.8-2.3s1.2-0.9,2.1-0.9
			c0.9,0,1.5,0.3,2,0.8s0.7,1.2,0.7,2.1v0.9h-3.8l0,0c0,0.4,0.2,0.8,0.4,1s0.6,0.4,1,0.4c0.4,0,0.7,0,0.9-0.1s0.5-0.2,0.8-0.4
			l0.5,1.1c-0.3,0.2-0.6,0.4-1,0.5S407.4,42.7,406.9,42.7z M406.8,37.5c-0.3,0-0.6,0.1-0.8,0.4s-0.3,0.6-0.3,1l0,0h2.1v-0.2
			c0-0.4-0.1-0.7-0.3-0.9S407.1,37.5,406.8,37.5z"/>
	</g>
	<g class="st0">
		<path class="st2" d="M410.1,37.3v-1h2.5l0.1,0.8c0.2-0.3,0.5-0.5,0.8-0.7s0.7-0.2,1.1-0.2c0.4,0,0.8,0.1,1,0.3s0.5,0.5,0.7,0.8
			c0.2-0.3,0.4-0.6,0.8-0.8s0.7-0.3,1.1-0.3c0.6,0,1.1,0.2,1.5,0.6s0.5,1.1,0.5,2v2.6l0.8,0.2v1h-3.3v-1l0.7-0.2v-2.6
			c0-0.5-0.1-0.8-0.2-1s-0.4-0.3-0.7-0.3c-0.2,0-0.5,0.1-0.6,0.2s-0.3,0.3-0.4,0.4c0,0.1,0,0.1,0,0.2s0,0.1,0,0.2v3l0.7,0.2v1H414
			v-1l0.7-0.2v-2.6c0-0.5-0.1-0.8-0.2-1s-0.4-0.3-0.7-0.3c-0.2,0-0.4,0-0.6,0.1s-0.3,0.2-0.4,0.4v3.4l0.7,0.2v1h-3.3v-1l0.8-0.2
			v-3.9L410.1,37.3z"/>
	</g>
	<g class="st0">
		<path class="st2" d="M421.4,39.4c0-0.9,0.3-1.7,0.8-2.3s1.3-0.9,2.2-0.9c0.9,0,1.7,0.3,2.2,0.9s0.8,1.4,0.8,2.3v0.1
			c0,1-0.3,1.7-0.8,2.3s-1.3,0.9-2.2,0.9c-0.9,0-1.7-0.3-2.2-0.9s-0.8-1.4-0.8-2.3V39.4z M423.1,39.5c0,0.6,0.1,1,0.3,1.4
			s0.5,0.5,1,0.5c0.4,0,0.8-0.2,1-0.5s0.3-0.8,0.3-1.4v-0.1c0-0.6-0.1-1-0.3-1.4s-0.5-0.5-1-0.5s-0.8,0.2-1,0.5s-0.3,0.8-0.3,1.4
			V39.5z"/>
		<path class="st2" d="M430.6,34.7v1.6h1.1v1.2h-1.1v3.2c0,0.2,0.1,0.4,0.2,0.5s0.2,0.2,0.4,0.2c0.1,0,0.2,0,0.3,0s0.2,0,0.3,0
			l0.1,1.2c-0.2,0.1-0.4,0.1-0.6,0.1s-0.4,0-0.6,0c-0.6,0-1-0.2-1.4-0.5s-0.5-0.8-0.5-1.5v-3.2H428v-1.2h0.9v-1.6H430.6z"/>
		<path class="st2" d="M435.6,42.7c-0.9,0-1.6-0.3-2.2-0.9s-0.8-1.3-0.8-2.2v-0.2c0-0.9,0.3-1.7,0.8-2.3s1.2-0.9,2.1-0.9
			c0.9,0,1.5,0.3,2,0.8s0.7,1.2,0.7,2.1v0.9h-3.8l0,0c0,0.4,0.2,0.8,0.4,1s0.6,0.4,1,0.4c0.4,0,0.7,0,0.9-0.1s0.5-0.2,0.8-0.4
			L438,42c-0.3,0.2-0.6,0.4-1,0.5S436.1,42.7,435.6,42.7z M435.5,37.5c-0.3,0-0.6,0.1-0.8,0.4s-0.3,0.6-0.3,1l0,0h2.1v-0.2
			c0-0.4-0.1-0.7-0.3-0.9S435.8,37.5,435.5,37.5z"/>
		<path class="st2" d="M444.9,41.4c0.3,0,0.5-0.1,0.7-0.3s0.3-0.4,0.3-0.7h1.5l0,0c0,0.6-0.2,1.2-0.7,1.6s-1.1,0.6-1.9,0.6
			c-0.9,0-1.7-0.3-2.2-0.9s-0.8-1.4-0.8-2.3v-0.2c0-0.9,0.3-1.7,0.8-2.3s1.3-0.9,2.2-0.9c0.5,0,1,0.1,1.4,0.2s0.7,0.4,1,0.6l0,1.7
			H446l-0.3-1c-0.1-0.1-0.2-0.1-0.3-0.2s-0.3-0.1-0.4-0.1c-0.5,0-0.8,0.2-1,0.5s-0.3,0.8-0.3,1.4v0.2c0,0.6,0.1,1,0.3,1.4
			S444.4,41.4,444.9,41.4z"/>
		<path class="st2" d="M448.2,39.4c0-0.9,0.3-1.7,0.8-2.3s1.3-0.9,2.2-0.9c0.9,0,1.7,0.3,2.2,0.9s0.8,1.4,0.8,2.3v0.1
			c0,1-0.3,1.7-0.8,2.3s-1.3,0.9-2.2,0.9c-0.9,0-1.7-0.3-2.2-0.9s-0.8-1.4-0.8-2.3V39.4z M449.9,39.5c0,0.6,0.1,1,0.3,1.4
			s0.5,0.5,1,0.5c0.4,0,0.8-0.2,1-0.5s0.3-0.8,0.3-1.4v-0.1c0-0.6-0.1-1-0.3-1.4s-0.5-0.5-1-0.5s-0.8,0.2-1,0.5s-0.3,0.8-0.3,1.4
			V39.5z"/>
		<path class="st2" d="M454.8,37.3v-1h2.5l0.1,0.8c0.2-0.3,0.5-0.5,0.8-0.7s0.7-0.2,1.1-0.2c0.4,0,0.8,0.1,1,0.3s0.5,0.5,0.7,0.8
			c0.2-0.3,0.4-0.6,0.8-0.8s0.7-0.3,1.1-0.3c0.6,0,1.1,0.2,1.5,0.6s0.5,1.1,0.5,2v2.6l0.8,0.2v1h-3.3v-1l0.7-0.2v-2.6
			c0-0.5-0.1-0.8-0.2-1s-0.4-0.3-0.7-0.3c-0.2,0-0.5,0.1-0.6,0.2s-0.3,0.3-0.4,0.4c0,0.1,0,0.1,0,0.2s0,0.1,0,0.2v3l0.7,0.2v1h-3.1
			v-1l0.7-0.2v-2.6c0-0.5-0.1-0.8-0.2-1s-0.4-0.3-0.7-0.3c-0.2,0-0.4,0-0.6,0.1s-0.3,0.2-0.4,0.4v3.4l0.7,0.2v1h-3.3v-1l0.8-0.2
			v-3.9L454.8,37.3z"/>
		<path class="st2" d="M466,37.3v-1h2.5l0.1,0.7c0.2-0.3,0.4-0.5,0.7-0.6s0.6-0.2,0.9-0.2c0.8,0,1.4,0.3,1.8,0.9s0.7,1.4,0.7,2.4
			v0.1c0,0.9-0.2,1.7-0.7,2.3s-1,0.9-1.8,0.9c-0.3,0-0.6-0.1-0.9-0.2s-0.5-0.3-0.7-0.5v1.8l0.8,0.2v1h-3.4v-1l0.8-0.2v-6.4L466,37.3
			z M470.9,39.5c0-0.6-0.1-1.1-0.3-1.5s-0.5-0.6-0.9-0.6c-0.3,0-0.5,0.1-0.7,0.2s-0.3,0.3-0.4,0.5v2.8c0.1,0.2,0.2,0.3,0.4,0.4
			s0.4,0.1,0.7,0.1c0.4,0,0.7-0.2,0.9-0.5s0.3-0.8,0.3-1.3V39.5z"/>
		<path class="st2" d="M477.8,41.8c-0.2,0.3-0.5,0.5-0.8,0.7s-0.6,0.2-1,0.2c-0.7,0-1.2-0.2-1.6-0.6s-0.6-1.1-0.6-2v-2.6l-0.7-0.2
			v-1h0.7h1.7v3.8c0,0.5,0.1,0.8,0.2,1s0.4,0.3,0.7,0.3c0.3,0,0.5,0,0.7-0.1s0.4-0.2,0.5-0.4v-3.4l-0.8-0.2v-1h0.8h1.7v5.1l0.8,0.2
			v1h-2.3L477.8,41.8z"/>
		<path class="st2" d="M483.4,34.7v1.6h1.1v1.2h-1.1v3.2c0,0.2,0.1,0.4,0.2,0.5s0.2,0.2,0.4,0.2c0.1,0,0.2,0,0.3,0s0.2,0,0.3,0
			l0.1,1.2c-0.2,0.1-0.4,0.1-0.6,0.1s-0.4,0-0.6,0c-0.6,0-1-0.2-1.4-0.5s-0.5-0.8-0.5-1.5v-3.2h-0.9v-1.2h0.9v-1.6H483.4z"/>
		<path class="st2" d="M488.4,42.7c-0.9,0-1.6-0.3-2.2-0.9s-0.8-1.3-0.8-2.2v-0.2c0-0.9,0.3-1.7,0.8-2.3s1.2-0.9,2.1-0.9
			c0.9,0,1.5,0.3,2,0.8s0.7,1.2,0.7,2.1v0.9h-3.8l0,0c0,0.4,0.2,0.8,0.4,1s0.6,0.4,1,0.4c0.4,0,0.7,0,0.9-0.1s0.5-0.2,0.8-0.4
			l0.5,1.1c-0.3,0.2-0.6,0.4-1,0.5S488.9,42.7,488.4,42.7z M488.2,37.5c-0.3,0-0.6,0.1-0.8,0.4s-0.3,0.6-0.3,1l0,0h2.1v-0.2
			c0-0.4-0.1-0.7-0.3-0.9S488.6,37.5,488.2,37.5z"/>
		<path class="st2" d="M491.9,41.6l0.8-0.2v-3.9l-0.9-0.2v-1h2.5l0.1,0.9c0.1-0.3,0.3-0.6,0.6-0.8s0.5-0.3,0.8-0.3
			c0.1,0,0.2,0,0.3,0s0.2,0,0.2,0l-0.2,1.6l-0.7,0c-0.3,0-0.5,0-0.6,0.1s-0.3,0.2-0.4,0.4v3.1l0.8,0.2v1h-3.4V41.6z"/>
		<path class="st2" d="M502,38.4h-1.1l-0.2-0.8c-0.1-0.1-0.3-0.2-0.4-0.2s-0.4-0.1-0.6-0.1c-0.3,0-0.5,0.1-0.7,0.2s-0.3,0.3-0.3,0.5
			c0,0.2,0.1,0.4,0.3,0.5s0.5,0.2,1,0.3c0.8,0.2,1.4,0.4,1.7,0.7s0.6,0.7,0.6,1.3c0,0.6-0.2,1-0.7,1.4s-1.1,0.5-1.9,0.5
			c-0.5,0-0.9-0.1-1.3-0.2s-0.8-0.3-1.1-0.6l0-1.4h1.2l0.2,0.8c0.1,0.1,0.2,0.1,0.4,0.2s0.4,0.1,0.6,0.1c0.3,0,0.6-0.1,0.8-0.2
			s0.3-0.3,0.3-0.5c0-0.2-0.1-0.3-0.3-0.5s-0.5-0.3-1-0.4c-0.7-0.2-1.3-0.4-1.7-0.7s-0.6-0.7-0.6-1.2c0-0.5,0.2-1,0.7-1.4
			s1.1-0.6,1.9-0.6c0.5,0,1,0.1,1.4,0.2s0.8,0.3,1,0.5L502,38.4z"/>
	</g>
	<g class="st0">
		<path class="st2" d="M99.6,20.2v2.3h-1.3l-0.1-1h-1.6v6l0.9,0.2v1H94v-1l0.9-0.2v-6h-1.6l-0.1,1H92v-2.3H99.6z"/>
	</g>
	<g class="st0">
		<path class="st2" d="M100,27.7l0.8-0.2v-3.9l-0.9-0.2v-1h2.5l0.1,0.9c0.1-0.3,0.3-0.6,0.6-0.8s0.5-0.3,0.8-0.3c0.1,0,0.2,0,0.3,0
			s0.2,0,0.2,0l-0.2,1.6l-0.7,0c-0.3,0-0.5,0-0.6,0.1s-0.3,0.2-0.4,0.4v3.1l0.8,0.2v1H100V27.7z"/>
		<path class="st2" d="M109.3,27.9c-0.2,0.3-0.5,0.5-0.8,0.7s-0.6,0.2-1,0.2c-0.7,0-1.2-0.2-1.6-0.6s-0.6-1.1-0.6-2v-2.6l-0.7-0.2
			v-1h0.7h1.7v3.8c0,0.5,0.1,0.8,0.2,1s0.4,0.3,0.7,0.3c0.3,0,0.5,0,0.7-0.1s0.4-0.2,0.5-0.4v-3.4l-0.8-0.2v-1h0.8h1.7v5.1l0.8,0.2
			v1h-2.3L109.3,27.9z"/>
		<path class="st2" d="M117.6,24.6h-1.1l-0.2-0.8c-0.1-0.1-0.3-0.2-0.4-0.2s-0.4-0.1-0.6-0.1c-0.3,0-0.5,0.1-0.7,0.2
			s-0.3,0.3-0.3,0.5c0,0.2,0.1,0.4,0.3,0.5s0.5,0.2,1,0.3c0.8,0.2,1.4,0.4,1.7,0.7s0.6,0.7,0.6,1.3c0,0.6-0.2,1-0.7,1.4
			s-1.1,0.5-1.9,0.5c-0.5,0-0.9-0.1-1.3-0.2s-0.8-0.3-1.1-0.6l0-1.4h1.2l0.2,0.8c0.1,0.1,0.2,0.1,0.4,0.2s0.4,0.1,0.6,0.1
			c0.3,0,0.6-0.1,0.8-0.2s0.3-0.3,0.3-0.5c0-0.2-0.1-0.3-0.3-0.5s-0.5-0.3-1-0.4c-0.7-0.2-1.3-0.4-1.7-0.7s-0.6-0.7-0.6-1.2
			c0-0.5,0.2-1,0.7-1.4s1.1-0.6,1.9-0.6c0.5,0,1,0.1,1.4,0.2s0.8,0.3,1,0.5L117.6,24.6z"/>
		<path class="st2" d="M121.1,20.8v1.6h1.1v1.2h-1.1v3.2c0,0.2,0.1,0.4,0.2,0.5s0.2,0.2,0.4,0.2c0.1,0,0.2,0,0.3,0s0.2,0,0.3,0
			l0.1,1.2c-0.2,0.1-0.4,0.1-0.6,0.1s-0.4,0-0.6,0c-0.6,0-1-0.2-1.4-0.5s-0.5-0.8-0.5-1.5v-3.2h-0.9v-1.2h0.9v-1.6H121.1z"/>
		<path class="st2" d="M126.1,28.8c-0.9,0-1.6-0.3-2.2-0.9s-0.8-1.3-0.8-2.2v-0.2c0-0.9,0.3-1.7,0.8-2.3s1.2-0.9,2.1-0.9
			c0.9,0,1.5,0.3,2,0.8s0.7,1.2,0.7,2.1v0.9h-3.8l0,0c0,0.4,0.2,0.8,0.4,1s0.6,0.4,1,0.4c0.4,0,0.7,0,0.9-0.1s0.5-0.2,0.8-0.4
			l0.5,1.1c-0.3,0.2-0.6,0.4-1,0.5S126.6,28.8,126.1,28.8z M125.9,23.6c-0.3,0-0.6,0.1-0.8,0.4s-0.3,0.6-0.3,1l0,0h2.1v-0.2
			c0-0.4-0.1-0.7-0.3-0.9S126.3,23.6,125.9,23.6z"/>
		<path class="st2" d="M133.5,27.9c-0.2,0.3-0.4,0.5-0.7,0.7s-0.6,0.2-0.9,0.2c-0.8,0-1.4-0.3-1.8-0.9s-0.6-1.3-0.6-2.3v-0.1
			c0-1,0.2-1.8,0.7-2.4s1-0.9,1.8-0.9c0.3,0,0.6,0.1,0.9,0.2s0.5,0.3,0.7,0.6v-2.3l-0.9-0.2v-1h0.9h1.7v7.9l0.8,0.2v1h-2.3
			L133.5,27.9z M131.2,25.7c0,0.6,0.1,1,0.3,1.3s0.5,0.5,0.9,0.5c0.3,0,0.5-0.1,0.7-0.2s0.3-0.2,0.5-0.4v-2.7
			c-0.1-0.2-0.3-0.4-0.4-0.5s-0.4-0.2-0.6-0.2c-0.4,0-0.7,0.2-0.9,0.6s-0.3,0.9-0.3,1.5V25.7z"/>
	</g>
	<g class="st0">
		<path class="st2" d="M95.1,41.9c0.3,0,0.5-0.1,0.7-0.3s0.3-0.4,0.3-0.7h1.5l0,0c0,0.6-0.2,1.2-0.7,1.6s-1.1,0.6-1.9,0.6
			c-0.9,0-1.7-0.3-2.2-0.9S92.2,41,92.2,40v-0.2c0-0.9,0.3-1.7,0.8-2.3s1.3-0.9,2.2-0.9c0.5,0,1,0.1,1.4,0.2s0.7,0.4,1,0.6l0,1.7
			h-1.4l-0.3-1c-0.1-0.1-0.2-0.1-0.3-0.2S95.4,38,95.2,38c-0.5,0-0.8,0.2-1,0.5s-0.3,0.8-0.3,1.4V40c0,0.6,0.1,1,0.3,1.4
			S94.7,41.9,95.1,41.9z"/>
		<path class="st2" d="M98.3,35v-1h2.6v7.9l0.8,0.2v1h-3.4v-1l0.8-0.2v-6.7L98.3,35z"/>
		<path class="st2" d="M102.2,42.1l0.8-0.2V38l-0.9-0.2v-1h2.6v5.1l0.8,0.2v1h-3.4V42.1z M104.8,35.3h-1.7V34h1.7V35.3z"/>
		<path class="st2" d="M109.2,43.2c-0.9,0-1.6-0.3-2.2-0.9s-0.8-1.3-0.8-2.2v-0.2c0-0.9,0.3-1.7,0.8-2.3s1.2-0.9,2.1-0.9
			c0.9,0,1.5,0.3,2,0.8s0.7,1.2,0.7,2.1v0.9H108l0,0c0,0.4,0.2,0.8,0.4,1s0.6,0.4,1,0.4c0.4,0,0.7,0,0.9-0.1s0.5-0.2,0.8-0.4
			l0.5,1.1c-0.3,0.2-0.6,0.4-1,0.5S109.7,43.2,109.2,43.2z M109,38c-0.3,0-0.6,0.1-0.8,0.4s-0.3,0.6-0.3,1l0,0h2.1v-0.2
			c0-0.4-0.1-0.7-0.3-0.9S109.4,38,109,38z"/>
		<path class="st2" d="M112.5,42.1l0.8-0.2V38l-0.9-0.2v-1h2.5l0.1,0.9c0.2-0.3,0.5-0.6,0.8-0.8s0.7-0.3,1-0.3
			c0.6,0,1.1,0.2,1.5,0.6s0.5,1,0.5,1.9v2.8l0.8,0.2v1h-3.3v-1l0.7-0.2v-2.8c0-0.4-0.1-0.7-0.3-0.9s-0.4-0.3-0.8-0.3
			c-0.2,0-0.4,0-0.6,0.1s-0.3,0.2-0.5,0.4v3.4l0.7,0.2v1h-3.2V42.1z"/>
		<path class="st2" d="M122.7,35.2v1.6h1.1V38h-1.1v3.2c0,0.2,0.1,0.4,0.2,0.5s0.2,0.2,0.4,0.2c0.1,0,0.2,0,0.3,0s0.2,0,0.3,0
			l0.1,1.2c-0.2,0.1-0.4,0.1-0.6,0.1s-0.4,0-0.6,0c-0.6,0-1-0.2-1.4-0.5s-0.5-0.8-0.5-1.5V38h-0.9v-1.2h0.9v-1.6H122.7z"/>
		<path class="st2" d="M130.6,41.9c0.3,0,0.5-0.1,0.7-0.3s0.3-0.4,0.3-0.7h1.5l0,0c0,0.6-0.2,1.2-0.7,1.6s-1.1,0.6-1.9,0.6
			c-0.9,0-1.7-0.3-2.2-0.9s-0.8-1.4-0.8-2.3v-0.2c0-0.9,0.3-1.7,0.8-2.3s1.3-0.9,2.2-0.9c0.5,0,1,0.1,1.4,0.2s0.7,0.4,1,0.6l0,1.7
			h-1.4l-0.3-1c-0.1-0.1-0.2-0.1-0.3-0.2s-0.3-0.1-0.4-0.1c-0.5,0-0.8,0.2-1,0.5s-0.3,0.8-0.3,1.4V40c0,0.6,0.1,1,0.3,1.4
			S130.1,41.9,130.6,41.9z"/>
		<path class="st2" d="M133.9,39.9c0-0.9,0.3-1.7,0.8-2.3s1.3-0.9,2.2-0.9c0.9,0,1.7,0.3,2.2,0.9s0.8,1.4,0.8,2.3V40
			c0,1-0.3,1.7-0.8,2.3s-1.3,0.9-2.2,0.9c-0.9,0-1.7-0.3-2.2-0.9s-0.8-1.4-0.8-2.3V39.9z M135.6,40c0,0.6,0.1,1,0.3,1.4
			s0.5,0.5,1,0.5c0.4,0,0.8-0.2,1-0.5s0.3-0.8,0.3-1.4v-0.1c0-0.6-0.1-1-0.3-1.4s-0.5-0.5-1-0.5s-0.8,0.2-1,0.5s-0.3,0.8-0.3,1.4V40
			z"/>
		<path class="st2" d="M140.4,37.8v-1h2.5l0.1,0.8c0.2-0.3,0.5-0.5,0.8-0.7s0.7-0.2,1.1-0.2c0.4,0,0.8,0.1,1,0.3s0.5,0.5,0.7,0.8
			c0.2-0.3,0.4-0.6,0.8-0.8s0.7-0.3,1.1-0.3c0.6,0,1.1,0.2,1.5,0.6s0.5,1.1,0.5,2v2.6l0.8,0.2v1H148v-1l0.7-0.2v-2.6
			c0-0.5-0.1-0.8-0.2-1s-0.4-0.3-0.7-0.3c-0.2,0-0.5,0.1-0.6,0.2s-0.3,0.3-0.4,0.4c0,0.1,0,0.1,0,0.2s0,0.1,0,0.2v3l0.7,0.2v1h-3.1
			v-1l0.7-0.2v-2.6c0-0.5-0.1-0.8-0.2-1s-0.4-0.3-0.7-0.3c-0.2,0-0.4,0-0.6,0.1s-0.3,0.2-0.4,0.4v3.4l0.7,0.2v1h-3.3v-1l0.8-0.2V38
			L140.4,37.8z"/>
		<path class="st2" d="M151.7,37.8v-1h2.5l0.1,0.7c0.2-0.3,0.4-0.5,0.7-0.6s0.6-0.2,0.9-0.2c0.8,0,1.4,0.3,1.8,0.9s0.7,1.4,0.7,2.4
			v0.1c0,0.9-0.2,1.7-0.7,2.3s-1,0.9-1.8,0.9c-0.3,0-0.6-0.1-0.9-0.2s-0.5-0.3-0.7-0.5v1.8l0.8,0.2v1h-3.4v-1l0.8-0.2V38L151.7,37.8
			z M156.6,40c0-0.6-0.1-1.1-0.3-1.5s-0.5-0.6-0.9-0.6c-0.3,0-0.5,0.1-0.7,0.2s-0.3,0.3-0.4,0.5v2.8c0.1,0.2,0.2,0.3,0.4,0.4
			s0.4,0.1,0.7,0.1c0.4,0,0.7-0.2,0.9-0.5s0.3-0.8,0.3-1.3V40z"/>
		<path class="st2" d="M163.5,42.3c-0.2,0.3-0.5,0.5-0.8,0.7s-0.6,0.2-1,0.2c-0.7,0-1.2-0.2-1.6-0.6s-0.6-1.1-0.6-2V38l-0.7-0.2v-1
			h0.7h1.7v3.8c0,0.5,0.1,0.8,0.2,1s0.4,0.3,0.7,0.3c0.3,0,0.5,0,0.7-0.1s0.4-0.2,0.5-0.4V38l-0.8-0.2v-1h0.8h1.7v5.1l0.8,0.2v1
			h-2.3L163.5,42.3z"/>
		<path class="st2" d="M169.1,35.2v1.6h1.1V38h-1.1v3.2c0,0.2,0.1,0.4,0.2,0.5s0.2,0.2,0.4,0.2c0.1,0,0.2,0,0.3,0s0.2,0,0.3,0
			l0.1,1.2c-0.2,0.1-0.4,0.1-0.6,0.1s-0.4,0-0.6,0c-0.6,0-1-0.2-1.4-0.5s-0.5-0.8-0.5-1.5V38h-0.9v-1.2h0.9v-1.6H169.1z"/>
		<path class="st2" d="M174.1,43.2c-0.9,0-1.6-0.3-2.2-0.9s-0.8-1.3-0.8-2.2v-0.2c0-0.9,0.3-1.7,0.8-2.3s1.2-0.9,2.1-0.9
			c0.9,0,1.5,0.3,2,0.8s0.7,1.2,0.7,2.1v0.9h-3.8l0,0c0,0.4,0.2,0.8,0.4,1s0.6,0.4,1,0.4c0.4,0,0.7,0,0.9-0.1s0.5-0.2,0.8-0.4
			l0.5,1.1c-0.3,0.2-0.6,0.4-1,0.5S174.6,43.2,174.1,43.2z M173.9,38c-0.3,0-0.6,0.1-0.8,0.4s-0.3,0.6-0.3,1l0,0h2.1v-0.2
			c0-0.4-0.1-0.7-0.3-0.9S174.3,38,173.9,38z"/>
		<path class="st2" d="M177.6,42.1l0.8-0.2V38l-0.9-0.2v-1h2.5l0.1,0.9c0.1-0.3,0.3-0.6,0.6-0.8s0.5-0.3,0.8-0.3c0.1,0,0.2,0,0.3,0
			s0.2,0,0.2,0l-0.2,1.6l-0.7,0c-0.3,0-0.5,0-0.6,0.1s-0.3,0.2-0.4,0.4v3.1l0.8,0.2v1h-3.4V42.1z"/>
	</g>
	<path class="st22" d="M118,165.8h159.2c0.6,0,1,0.4,1,1v12.6c0,0.6-0.4,1-1,1H118c-0.6,0-1-0.4-1-1v-12.6
		C117,166.2,117.4,165.8,118,165.8z"/>
</g>
<g id="Ebene_4">
	<g class="st0">
		<path class="st2" d="M64.5,98.6l-0.7,3.3c0,0.2-0.1,0.3-0.1,0.5c0,0.2,0,0.3,0.1,0.5s0.2,0.2,0.4,0.2c0.2,0,0.3,0,0.5-0.1
			c0.2-0.1,0.3-0.2,0.5-0.3c0.1-0.1,0.3-0.3,0.4-0.4c0.1-0.2,0.2-0.3,0.3-0.5l0.7-3.2h0.8l-0.6,3c0,0.1-0.1,0.3-0.1,0.4
			c0,0.2-0.1,0.3-0.1,0.5c0,0.2,0,0.4-0.1,0.5s0,0.3,0,0.4v0.1h-0.6v-1h0c-0.1,0.1-0.2,0.3-0.3,0.4c-0.1,0.1-0.3,0.2-0.4,0.3
			c-0.2,0.1-0.3,0.2-0.5,0.2c-0.2,0.1-0.4,0.1-0.6,0.1c-0.1,0-0.3,0-0.4,0c-0.1,0-0.2-0.1-0.3-0.2c-0.1-0.1-0.2-0.2-0.2-0.3
			c-0.1-0.1-0.1-0.3-0.1-0.5c0-0.2,0-0.5,0.1-0.8l0.7-3.3H64.5z"/>
		<path class="st2" d="M70,102.2c0-0.2,0-0.3-0.1-0.4c-0.1-0.1-0.2-0.2-0.3-0.3c-0.1-0.1-0.3-0.2-0.4-0.3c-0.2-0.1-0.3-0.2-0.4-0.3
			s-0.2-0.3-0.3-0.4c-0.1-0.2-0.1-0.4-0.1-0.6c0-0.2,0-0.4,0.1-0.5c0.1-0.2,0.2-0.3,0.4-0.4s0.3-0.2,0.6-0.3
			c0.2-0.1,0.5-0.1,0.7-0.1c0.4,0,0.6,0,0.8,0.1s0.4,0.1,0.5,0.2l-0.3,0.6c-0.3-0.2-0.6-0.2-1.1-0.2c-0.3,0-0.5,0.1-0.7,0.2
			c-0.2,0.1-0.3,0.3-0.3,0.5c0,0.1,0,0.3,0.1,0.4c0.1,0.1,0.2,0.2,0.3,0.3c0.1,0.1,0.3,0.2,0.4,0.3s0.3,0.2,0.4,0.3
			c0.1,0.1,0.2,0.3,0.3,0.4c0.1,0.2,0.1,0.4,0.1,0.6c0,0.5-0.2,0.9-0.5,1.2c-0.4,0.3-0.8,0.4-1.4,0.4c-0.3,0-0.6,0-0.8-0.1
			c-0.3-0.1-0.5-0.1-0.6-0.2l0.3-0.6c0.1,0.1,0.3,0.2,0.5,0.2c0.2,0.1,0.4,0.1,0.7,0.1c0.3,0,0.6-0.1,0.8-0.2
			C69.9,102.8,70,102.5,70,102.2z"/>
		<path class="st2" d="M75.3,103.1c-0.2,0.2-0.5,0.4-0.8,0.5c-0.3,0.1-0.6,0.2-1,0.2c-0.5,0-0.9-0.2-1.2-0.5s-0.4-0.7-0.4-1.3
			s0.1-1,0.2-1.5s0.4-0.8,0.6-1.1c0.3-0.3,0.5-0.5,0.9-0.7c0.3-0.2,0.6-0.2,1-0.2c0.2,0,0.4,0,0.6,0.1c0.2,0.1,0.3,0.2,0.4,0.3
			c0.1,0.1,0.2,0.2,0.3,0.4c0.1,0.1,0.1,0.3,0.1,0.5c0,0.5-0.2,0.8-0.7,1.1c-0.5,0.3-1.1,0.4-2,0.4c-0.1,0-0.2,0-0.3,0
			c-0.1,0-0.2,0-0.3,0c0,0.1,0,0.2-0.1,0.4c0,0.1,0,0.2,0,0.3c0,0.4,0.1,0.7,0.3,0.9c0.2,0.2,0.4,0.3,0.8,0.3c0.3,0,0.6,0,0.8-0.1
			s0.4-0.2,0.6-0.3L75.3,103.1z M74.5,99.2c-0.4,0-0.7,0.1-1,0.4s-0.5,0.6-0.6,1.1c0.3,0,0.5,0,0.8,0s0.5,0,0.7-0.1
			c0.2-0.1,0.4-0.1,0.6-0.3c0.1-0.1,0.2-0.3,0.2-0.5c0-0.1,0-0.1,0-0.2c0-0.1-0.1-0.1-0.1-0.2s-0.1-0.1-0.2-0.1
			C74.7,99.2,74.6,99.2,74.5,99.2z"/>
		<path class="st2" d="M78.6,102.2c0-0.2,0-0.3-0.1-0.4c-0.1-0.1-0.2-0.2-0.3-0.3c-0.1-0.1-0.3-0.2-0.4-0.3
			c-0.2-0.1-0.3-0.2-0.4-0.3s-0.2-0.3-0.3-0.4c-0.1-0.2-0.1-0.4-0.1-0.6c0-0.2,0-0.4,0.1-0.5c0.1-0.2,0.2-0.3,0.4-0.4
			s0.3-0.2,0.6-0.3c0.2-0.1,0.5-0.1,0.7-0.1c0.4,0,0.6,0,0.8,0.1s0.4,0.1,0.5,0.2l-0.3,0.6c-0.3-0.2-0.6-0.2-1.1-0.2
			c-0.3,0-0.5,0.1-0.7,0.2c-0.2,0.1-0.3,0.3-0.3,0.5c0,0.1,0,0.3,0.1,0.4c0.1,0.1,0.2,0.2,0.3,0.3c0.1,0.1,0.3,0.2,0.4,0.3
			s0.3,0.2,0.4,0.3c0.1,0.1,0.2,0.3,0.3,0.4c0.1,0.2,0.1,0.4,0.1,0.6c0,0.5-0.2,0.9-0.5,1.2c-0.4,0.3-0.8,0.4-1.4,0.4
			c-0.3,0-0.6,0-0.8-0.1c-0.3-0.1-0.5-0.1-0.6-0.2l0.3-0.6c0.1,0.1,0.3,0.2,0.5,0.2c0.2,0.1,0.4,0.1,0.7,0.1c0.3,0,0.6-0.1,0.8-0.2
			C78.5,102.8,78.6,102.5,78.6,102.2z"/>
	</g>
	<line class="st23" x1="58.8" y1="108.9" x2="100" y2="108.9"/>
	<polygon class="st2" points="95.4,114.6 94.4,113.6 99.5,108.9 94.4,104.2 95.4,103.2 101.5,108.9 	"/>
	<g class="st0">
		<path d="M128.3,171.7c0-0.1,0-0.1,0-0.2s0.1-0.1,0.1-0.1c0,0,0.1,0,0.1,0.1s0,0.1,0,0.2v0.6c0,0.1,0,0.1,0,0.2s-0.1,0.1-0.1,0.1
			c0,0-0.1,0-0.1,0s0-0.1-0.1-0.1c0-0.2-0.1-0.3-0.2-0.4c-0.2-0.1-0.5-0.2-0.8-0.2c-0.4,0-0.7,0.1-0.9,0.2c-0.2,0.1-0.2,0.2-0.2,0.4
			c0,0.2,0.1,0.3,0.3,0.4c0.1,0.1,0.4,0.1,0.7,0.2c0.5,0,0.8,0.1,0.9,0.2c0.3,0.1,0.4,0.2,0.6,0.4s0.2,0.3,0.2,0.5
			c0,0.3-0.1,0.5-0.4,0.7s-0.7,0.3-1.2,0.3s-0.9-0.1-1.3-0.4c0,0.1,0,0.1,0,0.2s0,0-0.1,0.1s-0.1,0-0.1,0c0,0-0.1,0-0.1-0.1
			s0-0.1,0-0.2V174c0-0.1,0-0.1,0-0.2s0.1-0.1,0.1-0.1c0,0,0.1,0,0.1,0s0,0.1,0,0.1c0,0.1,0,0.2,0.1,0.3c0.1,0.1,0.2,0.2,0.4,0.3
			s0.4,0.1,0.7,0.1c0.4,0,0.7-0.1,1-0.2s0.3-0.3,0.3-0.5c0-0.2-0.1-0.4-0.3-0.5c-0.2-0.1-0.5-0.2-0.9-0.2s-0.7-0.1-0.9-0.2
			s-0.3-0.2-0.4-0.3s-0.1-0.3-0.1-0.4c0-0.3,0.1-0.5,0.4-0.7s0.6-0.2,1-0.2C127.6,171.4,128,171.5,128.3,171.7z"/>
		<path d="M133.4,171.8v-0.1c0-0.1,0-0.1,0-0.2s0.1-0.1,0.1-0.1c0,0,0.1,0,0.1,0.1s0,0.1,0,0.2v0.7c0,0.1,0,0.1,0,0.2
			s-0.1,0.1-0.1,0.1c0,0-0.1,0-0.1,0s0-0.1-0.1-0.2c0-0.2-0.1-0.4-0.4-0.5s-0.5-0.3-0.9-0.3c-0.5,0-0.9,0.2-1.1,0.5s-0.4,0.7-0.4,1
			c0,0.4,0.1,0.8,0.4,1.1s0.6,0.4,1.1,0.4c0.3,0,0.5,0,0.8-0.1s0.5-0.2,0.7-0.5c0.1-0.1,0.1-0.1,0.1-0.1c0,0,0.1,0,0.1,0
			s0,0.1,0,0.1c0,0.1-0.1,0.3-0.4,0.4c-0.4,0.3-0.9,0.4-1.4,0.4c-0.5,0-1-0.2-1.3-0.5s-0.5-0.8-0.5-1.3c0-0.5,0.2-1,0.5-1.3
			s0.8-0.5,1.3-0.5C132.6,171.4,133,171.5,133.4,171.8z"/>
		<path d="M138.6,173.2c0,0.5-0.2,0.9-0.5,1.3s-0.8,0.5-1.3,0.5c-0.5,0-0.9-0.2-1.3-0.5s-0.5-0.8-0.5-1.3c0-0.5,0.2-0.9,0.5-1.3
			s0.8-0.5,1.3-0.5c0.5,0,0.9,0.2,1.3,0.5S138.6,172.7,138.6,173.2z M138.3,173.2c0-0.4-0.1-0.8-0.4-1.1s-0.6-0.4-1.1-0.4
			s-0.8,0.1-1.1,0.4s-0.4,0.6-0.4,1c0,0.4,0.1,0.8,0.4,1s0.6,0.4,1.1,0.4s0.8-0.1,1.1-0.4S138.3,173.6,138.3,173.2z"/>
		<path d="M140.5,171.5v0.5c0.2-0.2,0.4-0.4,0.6-0.5s0.4-0.1,0.6-0.1c0.3,0,0.5,0.1,0.7,0.2c0.1,0.1,0.3,0.2,0.4,0.4
			s0.2,0.4,0.2,0.6v2.1h0.3c0.1,0,0.1,0,0.2,0s0.1,0.1,0.1,0.1c0,0,0,0.1-0.1,0.1s-0.1,0-0.2,0h-0.9c-0.1,0-0.1,0-0.2,0
			s-0.1-0.1-0.1-0.1c0,0,0-0.1,0.1-0.1s0.1,0,0.2,0h0.3v-2c0-0.2-0.1-0.4-0.3-0.6s-0.4-0.2-0.7-0.2c-0.2,0-0.4,0-0.6,0.1
			s-0.4,0.3-0.7,0.7v2.1h0.4c0.1,0,0.1,0,0.2,0s0.1,0.1,0.1,0.1c0,0,0,0.1-0.1,0.1s-0.1,0-0.2,0h-1.1c-0.1,0-0.1,0-0.2,0
			s-0.1-0.1-0.1-0.1c0,0,0-0.1,0.1-0.1s0.1,0,0.2,0h0.4v-2.7h-0.3c-0.1,0-0.1,0-0.2,0s-0.1-0.1-0.1-0.1c0,0,0-0.1,0.1-0.1
			s0.1,0,0.2,0H140.5z"/>
		<path d="M148.2,173.3h-3.3c0.1,0.4,0.2,0.8,0.5,1s0.7,0.4,1.1,0.4c0.2,0,0.5,0,0.8-0.1s0.5-0.2,0.7-0.3c0,0,0.1-0.1,0.1-0.1
			c0,0,0.1,0,0.1,0s0,0.1,0,0.1s0,0.1-0.1,0.1c-0.1,0.1-0.3,0.3-0.7,0.4s-0.6,0.2-1,0.2c-0.6,0-1-0.2-1.4-0.6s-0.6-0.8-0.6-1.3
			c0-0.5,0.2-0.9,0.5-1.2s0.8-0.5,1.3-0.5c0.5,0,1,0.2,1.3,0.5S148.2,172.7,148.2,173.3z M147.8,172.9c-0.1-0.4-0.2-0.7-0.5-0.9
			s-0.6-0.3-1-0.3s-0.7,0.1-1,0.3s-0.4,0.5-0.5,0.9H147.8z"/>
		<path d="M152.6,171.8v-0.1c0-0.1,0-0.1,0-0.2s0.1-0.1,0.1-0.1c0,0,0.1,0,0.1,0.1s0,0.1,0,0.2v0.7c0,0.1,0,0.1,0,0.2
			s-0.1,0.1-0.1,0.1c0,0-0.1,0-0.1,0s0-0.1-0.1-0.2c0-0.2-0.1-0.4-0.4-0.5s-0.5-0.3-0.9-0.3c-0.5,0-0.9,0.2-1.1,0.5s-0.4,0.7-0.4,1
			c0,0.4,0.1,0.8,0.4,1.1s0.6,0.4,1.1,0.4c0.3,0,0.5,0,0.8-0.1s0.5-0.2,0.7-0.5c0.1-0.1,0.1-0.1,0.1-0.1c0,0,0.1,0,0.1,0
			s0,0.1,0,0.1c0,0.1-0.1,0.3-0.4,0.4c-0.4,0.3-0.9,0.4-1.4,0.4c-0.5,0-1-0.2-1.3-0.5s-0.5-0.8-0.5-1.3c0-0.5,0.2-1,0.5-1.3
			s0.8-0.5,1.3-0.5C151.8,171.4,152.2,171.5,152.6,171.8z"/>
		<path d="M157.1,174.9v-0.5c-0.4,0.4-0.9,0.6-1.5,0.6c-0.3,0-0.6-0.1-0.7-0.3c-0.2-0.2-0.3-0.5-0.3-0.8v-2.1h-0.4
			c-0.1,0-0.1,0-0.2,0s-0.1-0.1-0.1-0.1c0,0,0-0.1,0.1-0.1s0.1,0,0.2,0h0.8v2.4c0,0.2,0.1,0.4,0.2,0.5s0.3,0.2,0.5,0.2
			c0.5,0,1-0.2,1.5-0.7v-2.1h-0.6c-0.1,0-0.1,0-0.2,0s-0.1-0.1-0.1-0.1c0,0,0-0.1,0.1-0.1s0.1,0,0.2,0h0.9v3.1h0.3
			c0.1,0,0.1,0,0.2,0s0.1,0.1,0.1,0.1c0,0,0,0.1-0.1,0.1s-0.1,0-0.2,0H157.1z"/>
		<path d="M160.4,171.5v0.8c0.4-0.4,0.7-0.6,1-0.7s0.4-0.2,0.6-0.2c0.2,0,0.4,0.1,0.5,0.2s0.3,0.2,0.3,0.3c0,0,0,0.1,0,0.1
			s-0.1,0-0.1,0c0,0,0,0-0.1,0s-0.1,0-0.1-0.1c-0.1-0.1-0.2-0.2-0.2-0.2s-0.1-0.1-0.2-0.1c-0.1,0-0.3,0.1-0.5,0.2s-0.6,0.4-1,0.8
			v1.8h1.5c0.1,0,0.1,0,0.2,0s0.1,0.1,0.1,0.1c0,0,0,0.1-0.1,0.1s-0.1,0-0.2,0h-2.6c-0.1,0-0.1,0-0.2,0s-0.1-0.1-0.1-0.1
			c0,0,0-0.1,0-0.1s0.1,0,0.2,0h0.8v-2.7h-0.6c-0.1,0-0.1,0-0.2,0s-0.1-0.1-0.1-0.1c0,0,0-0.1,0-0.1s0.1,0,0.2,0H160.4z"/>
		<path d="M166.5,174.9v-0.5c-0.5,0.4-1,0.6-1.5,0.6c-0.4,0-0.7-0.1-0.9-0.3s-0.3-0.4-0.3-0.7c0-0.3,0.1-0.6,0.4-0.8
			s0.7-0.4,1.3-0.4c0.2,0,0.3,0,0.5,0s0.4,0,0.6,0.1v-0.5c0-0.2-0.1-0.3-0.3-0.5s-0.4-0.2-0.8-0.2c-0.3,0-0.6,0.1-1.1,0.2
			c-0.1,0-0.1,0-0.2,0c0,0-0.1,0-0.1,0s0-0.1,0-0.1c0,0,0-0.1,0-0.1c0,0,0.2-0.1,0.4-0.2c0.4-0.1,0.7-0.2,0.9-0.2
			c0.4,0,0.7,0.1,1,0.3s0.3,0.4,0.3,0.7v2.2h0.4c0.1,0,0.1,0,0.2,0s0.1,0.1,0.1,0.1c0,0,0,0.1-0.1,0.1s-0.1,0-0.2,0H166.5z
			 M166.5,173.3c-0.2,0-0.3-0.1-0.5-0.1s-0.4,0-0.5,0c-0.5,0-0.8,0.1-1.1,0.3c-0.2,0.2-0.3,0.3-0.3,0.6c0,0.2,0.1,0.4,0.2,0.5
			s0.4,0.2,0.7,0.2c0.3,0,0.5-0.1,0.8-0.2s0.5-0.3,0.8-0.5V173.3z"/>
		<path d="M169.7,171.5h1.8c0.1,0,0.1,0,0.2,0s0.1,0.1,0.1,0.1c0,0,0,0.1-0.1,0.1s-0.1,0-0.2,0h-1.8v2.2c0,0.2,0.1,0.3,0.2,0.5
			s0.4,0.2,0.7,0.2c0.2,0,0.5,0,0.7-0.1s0.5-0.1,0.6-0.2c0.1,0,0.1-0.1,0.1-0.1c0,0,0.1,0,0.1,0s0,0.1,0,0.1c0,0,0,0.1-0.1,0.1
			c-0.1,0.1-0.3,0.2-0.6,0.3s-0.6,0.2-0.9,0.2c-0.4,0-0.7-0.1-0.9-0.3s-0.3-0.4-0.3-0.7v-2.2h-0.6c-0.1,0-0.1,0-0.2,0
			s-0.1-0.1-0.1-0.1c0,0,0-0.1,0.1-0.1s0.1,0,0.2,0h0.6v-1c0-0.1,0-0.1,0-0.2s0.1-0.1,0.1-0.1c0,0,0.1,0,0.1,0.1s0,0.1,0,0.2V171.5z
			"/>
		<path d="M177,173.3h-3.3c0.1,0.4,0.2,0.8,0.5,1s0.7,0.4,1.1,0.4c0.2,0,0.5,0,0.8-0.1s0.5-0.2,0.7-0.3c0,0,0.1-0.1,0.1-0.1
			c0,0,0.1,0,0.1,0s0,0.1,0,0.1s0,0.1-0.1,0.1c-0.1,0.1-0.3,0.3-0.7,0.4s-0.6,0.2-1,0.2c-0.6,0-1-0.2-1.4-0.6s-0.6-0.8-0.6-1.3
			c0-0.5,0.2-0.9,0.5-1.2s0.8-0.5,1.3-0.5c0.5,0,1,0.2,1.3,0.5S177,172.7,177,173.3z M176.7,172.9c-0.1-0.4-0.2-0.7-0.5-0.9
			s-0.6-0.3-1-0.3s-0.7,0.1-1,0.3s-0.4,0.5-0.5,0.9H176.7z"/>
		<path d="M181.6,170v4.6h0.4c0.1,0,0.1,0,0.2,0s0.1,0.1,0.1,0.1c0,0,0,0.1-0.1,0.1s-0.1,0-0.2,0h-0.8v-0.7
			c-0.4,0.5-0.9,0.8-1.4,0.8c-0.3,0-0.6-0.1-0.9-0.2s-0.5-0.4-0.6-0.7s-0.2-0.6-0.2-0.9c0-0.3,0.1-0.6,0.2-0.9s0.4-0.5,0.6-0.7
			s0.6-0.2,0.9-0.2c0.6,0,1.1,0.3,1.4,0.8v-1.9h-0.4c-0.1,0-0.1,0-0.2,0s-0.1-0.1-0.1-0.1c0,0,0-0.1,0.1-0.1s0.1,0,0.2,0H181.6z
			 M181.3,173.2c0-0.4-0.1-0.8-0.4-1.1s-0.6-0.4-1-0.4c-0.4,0-0.7,0.1-1,0.4s-0.4,0.6-0.4,1.1c0,0.4,0.1,0.8,0.4,1.1s0.6,0.4,1,0.4
			c0.4,0,0.7-0.1,1-0.4S181.3,173.6,181.3,173.2z"/>
		<path d="M185,171.5v3.1h1.3c0.1,0,0.1,0,0.2,0s0.1,0.1,0.1,0.1c0,0,0,0.1-0.1,0.1s-0.1,0-0.2,0h-2.9c-0.1,0-0.1,0-0.2,0
			s-0.1-0.1-0.1-0.1c0,0,0-0.1,0.1-0.1s0.1,0,0.2,0h1.3v-2.7h-1c-0.1,0-0.1,0-0.2,0s-0.1-0.1-0.1-0.1c0,0,0-0.1,0.1-0.1s0.1,0,0.2,0
			H185z M185,169.8v0.8h-0.5v-0.8H185z"/>
		<path d="M188.1,171.5v0.3c0.3-0.3,0.6-0.4,0.8-0.4c0.2,0,0.3,0,0.4,0.1s0.2,0.2,0.3,0.4c0.1-0.2,0.3-0.3,0.4-0.4s0.3-0.1,0.5-0.1
			c0.2,0,0.4,0.1,0.6,0.2c0.2,0.2,0.3,0.4,0.3,0.6v2.3h0.3c0.1,0,0.1,0,0.2,0s0.1,0.1,0.1,0.1c0,0,0,0.1-0.1,0.1s-0.1,0-0.2,0h-0.6
			v-2.6c0-0.2-0.1-0.3-0.2-0.4s-0.2-0.2-0.4-0.2c-0.1,0-0.2,0-0.4,0.1s-0.3,0.3-0.5,0.5v2.2h0.3c0.1,0,0.1,0,0.2,0s0.1,0.1,0.1,0.1
			c0,0,0,0.1-0.1,0.1s-0.1,0-0.2,0h-0.6v-2.6c0-0.2-0.1-0.3-0.2-0.4s-0.2-0.2-0.3-0.2c-0.1,0-0.2,0-0.3,0.1
			c-0.2,0.1-0.3,0.3-0.5,0.6v2.2h0.3c0.1,0,0.1,0,0.2,0s0.1,0.1,0.1,0.1c0,0,0,0.1-0.1,0.1s-0.1,0-0.2,0h-0.9c-0.1,0-0.1,0-0.2,0
			s-0.1-0.1-0.1-0.1c0,0,0-0.1,0.1-0.1s0.1,0,0.2,0h0.3v-2.7h-0.3c-0.1,0-0.1,0-0.2,0s-0.1-0.1-0.1-0.1c0,0,0-0.1,0.1-0.1
			s0.1,0,0.2,0H188.1z"/>
		<path d="M195.4,174.9v-0.5c-0.5,0.4-1,0.6-1.5,0.6c-0.4,0-0.7-0.1-0.9-0.3s-0.3-0.4-0.3-0.7c0-0.3,0.1-0.6,0.4-0.8
			s0.7-0.4,1.3-0.4c0.2,0,0.3,0,0.5,0s0.4,0,0.6,0.1v-0.5c0-0.2-0.1-0.3-0.3-0.5s-0.4-0.2-0.8-0.2c-0.3,0-0.6,0.1-1.1,0.2
			c-0.1,0-0.1,0-0.2,0c0,0-0.1,0-0.1,0s0-0.1,0-0.1c0,0,0-0.1,0-0.1c0,0,0.2-0.1,0.4-0.2c0.4-0.1,0.7-0.2,0.9-0.2
			c0.4,0,0.7,0.1,1,0.3s0.3,0.4,0.3,0.7v2.2h0.4c0.1,0,0.1,0,0.2,0s0.1,0.1,0.1,0.1c0,0,0,0.1-0.1,0.1s-0.1,0-0.2,0H195.4z
			 M195.4,173.3c-0.2,0-0.3-0.1-0.5-0.1s-0.4,0-0.5,0c-0.5,0-0.8,0.1-1.1,0.3c-0.2,0.2-0.3,0.3-0.3,0.6c0,0.2,0.1,0.4,0.2,0.5
			s0.4,0.2,0.7,0.2c0.3,0,0.5-0.1,0.8-0.2s0.5-0.3,0.8-0.5V173.3z"/>
		<path d="M200.3,172.1v-0.6h0.8c0.1,0,0.1,0,0.2,0s0.1,0.1,0.1,0.1c0,0,0,0.1-0.1,0.1s-0.1,0-0.2,0h-0.4v3.3c0,0.2,0,0.4-0.1,0.6
			c-0.1,0.1-0.2,0.2-0.3,0.4s-0.3,0.2-0.4,0.3s-0.3,0.1-0.5,0.1h-0.9c-0.1,0-0.1,0-0.2,0s-0.1-0.1-0.1-0.1s0-0.1,0.1-0.1
			s0.1,0,0.2,0l0.9,0c0.2,0,0.4,0,0.5-0.1s0.3-0.2,0.4-0.4c0.1-0.1,0.1-0.2,0.1-0.4v-1c-0.4,0.5-0.8,0.7-1.4,0.7
			c-0.5,0-0.8-0.2-1.2-0.5s-0.5-0.7-0.5-1.2s0.2-0.9,0.5-1.2s0.7-0.5,1.2-0.5C199.5,171.4,200,171.6,200.3,172.1z M200.3,173.1
			c0-0.4-0.1-0.7-0.4-1s-0.6-0.4-0.9-0.4s-0.7,0.1-0.9,0.4s-0.4,0.6-0.4,1c0,0.4,0.1,0.7,0.4,1s0.6,0.4,0.9,0.4s0.7-0.1,0.9-0.4
			S200.3,173.5,200.3,173.1z"/>
		<path d="M205.8,173.3h-3.3c0.1,0.4,0.2,0.8,0.5,1s0.7,0.4,1.1,0.4c0.2,0,0.5,0,0.8-0.1s0.5-0.2,0.7-0.3c0,0,0.1-0.1,0.1-0.1
			c0,0,0.1,0,0.1,0s0,0.1,0,0.1s0,0.1-0.1,0.1c-0.1,0.1-0.3,0.3-0.7,0.4s-0.6,0.2-1,0.2c-0.6,0-1-0.2-1.4-0.6s-0.6-0.8-0.6-1.3
			c0-0.5,0.2-0.9,0.5-1.2s0.8-0.5,1.3-0.5c0.5,0,1,0.2,1.3,0.5S205.8,172.7,205.8,173.3z M205.5,172.9c-0.1-0.4-0.2-0.7-0.5-0.9
			s-0.6-0.3-1-0.3s-0.7,0.1-1,0.3s-0.4,0.5-0.5,0.9H205.5z"/>
		<path d="M209.9,171.7c0-0.1,0-0.1,0-0.2s0.1-0.1,0.1-0.1c0,0,0.1,0,0.1,0.1s0,0.1,0,0.2v0.6c0,0.1,0,0.1,0,0.2s-0.1,0.1-0.1,0.1
			c0,0-0.1,0-0.1,0s0-0.1-0.1-0.1c0-0.2-0.1-0.3-0.2-0.4c-0.2-0.1-0.5-0.2-0.8-0.2c-0.4,0-0.7,0.1-0.9,0.2c-0.2,0.1-0.2,0.2-0.2,0.4
			c0,0.2,0.1,0.3,0.3,0.4c0.1,0.1,0.4,0.1,0.7,0.2c0.5,0,0.8,0.1,0.9,0.2c0.3,0.1,0.4,0.2,0.6,0.4s0.2,0.3,0.2,0.5
			c0,0.3-0.1,0.5-0.4,0.7s-0.7,0.3-1.2,0.3s-0.9-0.1-1.3-0.4c0,0.1,0,0.1,0,0.2s0,0-0.1,0.1s-0.1,0-0.1,0c0,0-0.1,0-0.1-0.1
			s0-0.1,0-0.2V174c0-0.1,0-0.1,0-0.2s0.1-0.1,0.1-0.1c0,0,0.1,0,0.1,0s0,0.1,0,0.1c0,0.1,0,0.2,0.1,0.3c0.1,0.1,0.2,0.2,0.4,0.3
			s0.4,0.1,0.7,0.1c0.4,0,0.7-0.1,1-0.2s0.3-0.3,0.3-0.5c0-0.2-0.1-0.4-0.3-0.5c-0.2-0.1-0.5-0.2-0.9-0.2s-0.7-0.1-0.9-0.2
			s-0.3-0.2-0.4-0.3s-0.1-0.3-0.1-0.4c0-0.3,0.1-0.5,0.4-0.7s0.6-0.2,1-0.2C209.2,171.4,209.6,171.5,209.9,171.7z"/>
		<path d="M215.1,169.7l-2.6,5.7c0,0.1-0.1,0.1-0.2,0.1c0,0-0.1,0-0.1,0s0-0.1,0-0.1c0,0,0-0.1,0-0.1l2.6-5.7c0-0.1,0.1-0.1,0.1-0.1
			s0.1,0,0.1,0c0,0,0.1,0,0.1,0s0,0.1,0,0.1C215.1,169.6,215.1,169.7,215.1,169.7z"/>
		<path d="M218.6,171.5v3.1h1.3c0.1,0,0.1,0,0.2,0s0.1,0.1,0.1,0.1c0,0,0,0.1-0.1,0.1s-0.1,0-0.2,0H217c-0.1,0-0.1,0-0.2,0
			s-0.1-0.1-0.1-0.1c0,0,0-0.1,0.1-0.1s0.1,0,0.2,0h1.3v-2.7h-1c-0.1,0-0.1,0-0.2,0s-0.1-0.1-0.1-0.1c0,0,0-0.1,0.1-0.1s0.1,0,0.2,0
			H218.6z M218.6,169.8v0.8h-0.5v-0.8H218.6z"/>
		<path d="M225,173.3h-3.3c0.1,0.4,0.2,0.8,0.5,1s0.7,0.4,1.1,0.4c0.2,0,0.5,0,0.8-0.1s0.5-0.2,0.7-0.3c0,0,0.1-0.1,0.1-0.1
			c0,0,0.1,0,0.1,0s0,0.1,0,0.1s0,0.1-0.1,0.1c-0.1,0.1-0.3,0.3-0.7,0.4s-0.6,0.2-1,0.2c-0.6,0-1-0.2-1.4-0.6s-0.6-0.8-0.6-1.3
			c0-0.5,0.2-0.9,0.5-1.2s0.8-0.5,1.3-0.5c0.5,0,1,0.2,1.3,0.5S225,172.7,225,173.3z M224.7,172.9c-0.1-0.4-0.2-0.7-0.5-0.9
			s-0.6-0.3-1-0.3s-0.7,0.1-1,0.3s-0.4,0.5-0.5,0.9H224.7z"/>
		<path d="M228.2,173.1l1.5,1.4c0.1,0,0.2,0,0.2,0s0,0,0.1,0.1s0,0.1,0,0.1c0,0,0,0.1-0.1,0.1s-0.1,0-0.2,0h-1.1c-0.1,0-0.1,0-0.2,0
			s-0.1-0.1-0.1-0.1c0,0,0-0.1,0.1-0.1s0.1,0,0.2,0h0.5l-1.3-1.2l-1.3,1.2h0.5c0.1,0,0.1,0,0.2,0s0.1,0.1,0.1,0.1c0,0,0,0.1-0.1,0.1
			s-0.1,0-0.2,0h-1.1c-0.1,0-0.1,0-0.2,0s-0.1-0.1-0.1-0.1c0,0,0-0.1,0-0.1s0,0,0.1-0.1s0.1,0,0.2,0l1.5-1.4l-1.3-1.3
			c-0.1,0-0.2,0-0.2,0s0,0-0.1-0.1s0-0.1,0-0.1c0,0,0-0.1,0.1-0.1s0.1,0,0.2,0h0.9c0.1,0,0.1,0,0.2,0s0,0.1,0,0.1c0,0,0,0.1,0,0.1
			s-0.1,0-0.2,0h-0.4l1.1,1.1l1.1-1.1h-0.4c-0.1,0-0.1,0-0.2,0s-0.1-0.1-0.1-0.1c0,0,0-0.1,0.1-0.1s0.1,0,0.2,0h0.9
			c0.1,0,0.1,0,0.2,0s0.1,0.1,0.1,0.1c0,0,0,0.1,0,0.1s0,0-0.1,0.1s-0.1,0-0.2,0L228.2,173.1z"/>
		<path d="M234.6,173.3h-3.3c0.1,0.4,0.2,0.8,0.5,1s0.7,0.4,1.1,0.4c0.2,0,0.5,0,0.8-0.1s0.5-0.2,0.7-0.3c0,0,0.1-0.1,0.1-0.1
			c0,0,0.1,0,0.1,0s0,0.1,0,0.1s0,0.1-0.1,0.1c-0.1,0.1-0.3,0.3-0.7,0.4s-0.6,0.2-1,0.2c-0.6,0-1-0.2-1.4-0.6s-0.6-0.8-0.6-1.3
			c0-0.5,0.2-0.9,0.5-1.2s0.8-0.5,1.3-0.5c0.5,0,1,0.2,1.3,0.5S234.6,172.7,234.6,173.3z M234.3,172.9c-0.1-0.4-0.2-0.7-0.5-0.9
			s-0.6-0.3-1-0.3s-0.7,0.1-1,0.3s-0.4,0.5-0.5,0.9H234.3z"/>
		<path d="M239,171.8v-0.1c0-0.1,0-0.1,0-0.2s0.1-0.1,0.1-0.1c0,0,0.1,0,0.1,0.1s0,0.1,0,0.2v0.7c0,0.1,0,0.1,0,0.2
			s-0.1,0.1-0.1,0.1c0,0-0.1,0-0.1,0s0-0.1-0.1-0.2c0-0.2-0.1-0.4-0.4-0.5s-0.5-0.3-0.9-0.3c-0.5,0-0.9,0.2-1.1,0.5s-0.4,0.7-0.4,1
			c0,0.4,0.1,0.8,0.4,1.1s0.6,0.4,1.1,0.4c0.3,0,0.5,0,0.8-0.1s0.5-0.2,0.7-0.5c0.1-0.1,0.1-0.1,0.1-0.1c0,0,0.1,0,0.1,0
			s0,0.1,0,0.1c0,0.1-0.1,0.3-0.4,0.4c-0.4,0.3-0.9,0.4-1.4,0.4c-0.5,0-1-0.2-1.3-0.5s-0.5-0.8-0.5-1.3c0-0.5,0.2-1,0.5-1.3
			s0.8-0.5,1.3-0.5C238.2,171.4,238.6,171.5,239,171.8z"/>
		<path d="M243.5,171.7c0-0.1,0-0.1,0-0.2s0.1-0.1,0.1-0.1c0,0,0.1,0,0.1,0.1s0,0.1,0,0.2v0.6c0,0.1,0,0.1,0,0.2s-0.1,0.1-0.1,0.1
			c0,0-0.1,0-0.1,0s0-0.1-0.1-0.1c0-0.2-0.1-0.3-0.2-0.4c-0.2-0.1-0.5-0.2-0.8-0.2c-0.4,0-0.7,0.1-0.9,0.2c-0.2,0.1-0.2,0.2-0.2,0.4
			c0,0.2,0.1,0.3,0.3,0.4c0.1,0.1,0.4,0.1,0.7,0.2c0.5,0,0.8,0.1,0.9,0.2c0.3,0.1,0.4,0.2,0.6,0.4s0.2,0.3,0.2,0.5
			c0,0.3-0.1,0.5-0.4,0.7s-0.7,0.3-1.2,0.3s-0.9-0.1-1.3-0.4c0,0.1,0,0.1,0,0.2s0,0-0.1,0.1s-0.1,0-0.1,0c0,0-0.1,0-0.1-0.1
			s0-0.1,0-0.2V174c0-0.1,0-0.1,0-0.2s0.1-0.1,0.1-0.1c0,0,0.1,0,0.1,0s0,0.1,0,0.1c0,0.1,0,0.2,0.1,0.3c0.1,0.1,0.2,0.2,0.4,0.3
			s0.4,0.1,0.7,0.1c0.4,0,0.7-0.1,1-0.2s0.3-0.3,0.3-0.5c0-0.2-0.1-0.4-0.3-0.5c-0.2-0.1-0.5-0.2-0.9-0.2s-0.7-0.1-0.9-0.2
			s-0.3-0.2-0.4-0.3s-0.1-0.3-0.1-0.4c0-0.3,0.1-0.5,0.4-0.7s0.6-0.2,1-0.2C242.9,171.4,243.2,171.5,243.5,171.7z"/>
		<path d="M248.3,172.1v-0.6h0.8c0.1,0,0.1,0,0.2,0s0.1,0.1,0.1,0.1c0,0,0,0.1-0.1,0.1s-0.1,0-0.2,0h-0.4v3.3c0,0.2,0,0.4-0.1,0.6
			c-0.1,0.1-0.2,0.2-0.3,0.4s-0.3,0.2-0.4,0.3s-0.3,0.1-0.5,0.1h-0.9c-0.1,0-0.1,0-0.2,0s-0.1-0.1-0.1-0.1s0-0.1,0.1-0.1
			s0.1,0,0.2,0l0.9,0c0.2,0,0.4,0,0.5-0.1s0.3-0.2,0.4-0.4c0.1-0.1,0.1-0.2,0.1-0.4v-1c-0.4,0.5-0.8,0.7-1.4,0.7
			c-0.5,0-0.8-0.2-1.2-0.5s-0.5-0.7-0.5-1.2s0.2-0.9,0.5-1.2s0.7-0.5,1.2-0.5C247.5,171.4,248,171.6,248.3,172.1z M248.3,173.1
			c0-0.4-0.1-0.7-0.4-1s-0.6-0.4-0.9-0.4s-0.7,0.1-0.9,0.4s-0.4,0.6-0.4,1c0,0.4,0.1,0.7,0.4,1s0.6,0.4,0.9,0.4s0.7-0.1,0.9-0.4
			S248.3,173.5,248.3,173.1z"/>
		<path d="M252.2,173.1l1.5,1.4c0.1,0,0.2,0,0.2,0s0,0,0.1,0.1s0,0.1,0,0.1c0,0,0,0.1-0.1,0.1s-0.1,0-0.2,0h-1.1c-0.1,0-0.1,0-0.2,0
			s-0.1-0.1-0.1-0.1c0,0,0-0.1,0.1-0.1s0.1,0,0.2,0h0.5l-1.3-1.2l-1.3,1.2h0.5c0.1,0,0.1,0,0.2,0s0.1,0.1,0.1,0.1c0,0,0,0.1-0.1,0.1
			s-0.1,0-0.2,0h-1.1c-0.1,0-0.1,0-0.2,0s-0.1-0.1-0.1-0.1c0,0,0-0.1,0-0.1s0,0,0.1-0.1s0.1,0,0.2,0l1.5-1.4l-1.3-1.3
			c-0.1,0-0.2,0-0.2,0s0,0-0.1-0.1s0-0.1,0-0.1c0,0,0-0.1,0.1-0.1s0.1,0,0.2,0h0.9c0.1,0,0.1,0,0.2,0s0,0.1,0,0.1c0,0,0,0.1,0,0.1
			s-0.1,0-0.2,0h-0.4l1.1,1.1l1.1-1.1h-0.4c-0.1,0-0.1,0-0.2,0s-0.1-0.1-0.1-0.1c0,0,0-0.1,0.1-0.1s0.1,0,0.2,0h0.9
			c0.1,0,0.1,0,0.2,0s0.1,0.1,0.1,0.1c0,0,0,0.1,0,0.1s0,0-0.1,0.1s-0.1,0-0.2,0L252.2,173.1z"/>
		<path d="M256.8,171.5h0.1c0.1,0,0.3,0.1,0.4,0.2s0.2,0.2,0.2,0.4c0,0.2-0.1,0.3-0.2,0.4s-0.2,0.2-0.4,0.2h-0.1
			c-0.1,0-0.3-0.1-0.4-0.2s-0.2-0.2-0.2-0.4c0-0.2,0.1-0.3,0.2-0.4S256.6,171.5,256.8,171.5z M256.8,173.9h0.1
			c0.1,0,0.3,0.1,0.4,0.2s0.2,0.2,0.2,0.4c0,0.2-0.1,0.3-0.2,0.4s-0.2,0.2-0.4,0.2h-0.1c-0.1,0-0.3-0.1-0.4-0.2s-0.2-0.2-0.2-0.4
			c0-0.2,0.1-0.3,0.2-0.4S256.6,173.9,256.8,173.9z"/>
		<path d="M263,171.8v-0.1c0-0.1,0-0.1,0-0.2s0.1-0.1,0.1-0.1c0,0,0.1,0,0.1,0.1s0,0.1,0,0.2v0.7c0,0.1,0,0.1,0,0.2
			s-0.1,0.1-0.1,0.1c0,0-0.1,0-0.1,0s0-0.1-0.1-0.2c0-0.2-0.1-0.4-0.4-0.5s-0.5-0.3-0.9-0.3c-0.5,0-0.9,0.2-1.1,0.5s-0.4,0.7-0.4,1
			c0,0.4,0.1,0.8,0.4,1.1s0.6,0.4,1.1,0.4c0.3,0,0.5,0,0.8-0.1s0.5-0.2,0.7-0.5c0.1-0.1,0.1-0.1,0.1-0.1c0,0,0.1,0,0.1,0
			s0,0.1,0,0.1c0,0.1-0.1,0.3-0.4,0.4c-0.4,0.3-0.9,0.4-1.4,0.4c-0.5,0-1-0.2-1.3-0.5s-0.5-0.8-0.5-1.3c0-0.5,0.2-1,0.5-1.3
			s0.8-0.5,1.3-0.5C262.2,171.4,262.6,171.5,263,171.8z"/>
		<path d="M266.6,170v4.6h1.3c0.1,0,0.1,0,0.2,0s0.1,0.1,0.1,0.1c0,0,0,0.1-0.1,0.1s-0.1,0-0.2,0H265c-0.1,0-0.1,0-0.2,0
			s-0.1-0.1-0.1-0.1c0,0,0-0.1,0.1-0.1s0.1,0,0.2,0h1.3v-4.2h-0.9c-0.1,0-0.1,0-0.2,0s-0.1-0.1-0.1-0.1c0,0,0-0.1,0.1-0.1
			s0.1,0,0.2,0H266.6z"/>
		<path d="M271.4,171.5v3.1h1.3c0.1,0,0.1,0,0.2,0s0.1,0.1,0.1,0.1c0,0,0,0.1-0.1,0.1s-0.1,0-0.2,0h-2.9c-0.1,0-0.1,0-0.2,0
			s-0.1-0.1-0.1-0.1c0,0,0-0.1,0.1-0.1s0.1,0,0.2,0h1.3v-2.7h-1c-0.1,0-0.1,0-0.2,0s-0.1-0.1-0.1-0.1c0,0,0-0.1,0.1-0.1s0.1,0,0.2,0
			H271.4z M271.4,169.8v0.8h-0.5v-0.8H271.4z"/>
	</g>
</g>
</svg>
