<svg xmlns="http://www.w3.org/2000/svg" xmlns:xlink="http://www.w3.org/1999/xlink" viewBox="0 0 549.38 251.94"><defs><style>.cls-1,.cls-11,.cls-20,.cls-22,.cls-24,.cls-39,.cls-7,.cls-8{fill:none;}.cls-2,.cls-30{font-size:11px;}.cls-2,.cls-23,.cls-26{fill:#fc0;}.cls-2,.cls-26,.cls-34,.cls-5{font-family:RobotoSlab-Bold, Roboto Slab;font-weight:700;}.cls-3{letter-spacing:-0.01em;}.cls-4{letter-spacing:-0.04em;}.cls-5{font-size:12.24px;}.cls-34,.cls-38,.cls-5,.cls-6{fill:#306;}.cls-39,.cls-7,.cls-8{stroke:#306;}.cls-21,.cls-22,.cls-24,.cls-7,.cls-8{stroke-linejoin:round;}.cls-21,.cls-22,.cls-24,.cls-8{stroke-linecap:round;}.cls-11,.cls-22,.cls-9{stroke:#fc0;}.cls-11,.cls-20,.cls-39,.cls-9{stroke-miterlimit:10;}.cls-11,.cls-20,.cls-21,.cls-22,.cls-24,.cls-39,.cls-9{stroke-width:2px;}.cls-9{fill:url(#Unbenannter_Verlauf_12);}.cls-10{fill:url(#Unbenannter_Verlauf_12-2);}.cls-12{letter-spacing:0em;}.cls-13{clip-path:url(#clip-path);}.cls-14{fill:#ffd138;}.cls-15{fill:#fdfeff;}.cls-16{opacity:0.2;}.cls-17{fill:#fc9;}.cls-18{opacity:0.7;}.cls-19{fill:url(#Unbenannter_Verlauf_12-3);}.cls-20,.cls-21,.cls-24{stroke:#c30;}.cls-20{stroke-dasharray:2 2;}.cls-21,.cls-30{fill:#fff;}.cls-25{fill:#c30;}.cls-26,.cls-34{font-size:12px;}.cls-27{letter-spacing:-0.01em;}.cls-28{letter-spacing:0em;}.cls-29{letter-spacing:0.01em;}.cls-30{font-family:PTSans-Regular, PT Sans;}.cls-31{letter-spacing:-0.01em;}.cls-32{letter-spacing:-0.01em;}.cls-33{letter-spacing:-0.02em;}.cls-35{letter-spacing:-0.01em;}.cls-36{letter-spacing:-0.03em;}.cls-37{fill:#e6e6e6;}.cls-38{font-size:10px;font-family:PTSans-Italic, PT Sans;font-style:italic;}.cls-40{font-size:8px;font-family:CourierNewPSMT, Courier New;}</style><linearGradient id="Unbenannter_Verlauf_12" x1="91.09" y1="150.5" x2="305.32" y2="150.5" gradientUnits="userSpaceOnUse"><stop offset="0" stop-color="#906"/><stop offset="0.19" stop-color="#780066"/><stop offset="0.4" stop-color="#5a0066"/><stop offset="0.61" stop-color="#406"/><stop offset="0.81" stop-color="#370066"/><stop offset="1" stop-color="#306"/></linearGradient><linearGradient id="Unbenannter_Verlauf_12-2" x1="104.38" y1="149.34" x2="292.28" y2="149.34" xlink:href="#Unbenannter_Verlauf_12"/><clipPath id="clip-path"><rect class="cls-1" x="152.18" y="123.09" width="63.15" height="12.37"/></clipPath><linearGradient id="Unbenannter_Verlauf_12-3" x1="292.28" y1="149.84" x2="487.95" y2="149.84" xlink:href="#Unbenannter_Verlauf_12"/></defs><title>tlCLI</title><g id="Ebene_2" data-name="Ebene 2"><text class="cls-2" transform="translate(152.53 125.8)">Ap<tspan class="cls-3" x="14.56" y="0">p</tspan><tspan x="21.11" y="0">lic</tspan><tspan class="cls-4" x="33.96" y="0">a</tspan><tspan x="39.57" y="0">tion</tspan></text><text class="cls-5" transform="translate(17.14 136.3)">User</text><path class="cls-6" d="M34.58,94.58a.77.77,0,0,1,.72.72.72.72,0,1,1-.72-.72Z"/><circle class="cls-6" cx="28.83" cy="95.3" r="0.72"/><path class="cls-7" d="M35.91,104.22v2.22h.87a3.25,3.25,0,0,1,.88.08,5.55,5.55,0,0,1,2.8,1.22,3.76,3.76,0,0,1,1.57,3v4.6H21.37v-4.6a3.77,3.77,0,0,1,1.58-3,5.55,5.55,0,0,1,2.8-1.22,3.21,3.21,0,0,1,.87-.08h.88v-2.22"/><path class="cls-8" d="M24.16,93.22c0,1.8.07,2.59.07,4.38a7.74,7.74,0,0,0,7.47,7.84A7.49,7.49,0,0,0,39.25,98v-5"/><path class="cls-8" d="M24.16,93.15l.6-4.62c1.43-.36,8.15,3.65,11.24-1.39,0,0-.77,2.48,3.25,5.36v.65"/><path class="cls-8" d="M44.41,93.3a2.22,2.22,0,0,1-2.16,2.16V91.15A2.21,2.21,0,0,1,44.41,93.3Z"/><path class="cls-8" d="M22,94.94v.72a2.17,2.17,0,0,0,2.16,1.8V93.15A2.17,2.17,0,0,0,22,94.94Z"/><path class="cls-8" d="M29.62,100a2.51,2.51,0,0,0,2.08,1.08A2.61,2.61,0,0,0,33.79,100"/><path class="cls-8" d="M22,94V88.56c0-3.84,4.31-8.35,9.7-8.35s9.71,4.51,9.71,8.35v5.52"/><path class="cls-6" d="M31.7,80.21c5.39,0,9.71,4.51,9.71,8.35v5.52H41a2.13,2.13,0,0,1,.41,1.22,2.22,2.22,0,0,1-2.16,2.16V98a7.42,7.42,0,0,1-3.4,6.26h.06v2.22h.87a3.25,3.25,0,0,1,.88.08,5.55,5.55,0,0,1,2.8,1.22,3.76,3.76,0,0,1,1.57,3v4.6H21.37v-4.6a3.77,3.77,0,0,1,1.58-3,5.55,5.55,0,0,1,2.8-1.22,3.21,3.21,0,0,1,.87-.08h.88v-2.22h.25a8,8,0,0,1-3.52-6.62,4.52,4.52,0,0,0,0-.71,5.48,5.48,0,0,0-.05.57A2.17,2.17,0,0,1,22,95.66v-.72a2,2,0,0,1,.43-1H22V88.56c0-3.84,4.31-8.35,9.7-8.35m0-2c-6.59,0-11.7,5.56-11.7,10.35V94a1.84,1.84,0,0,0,.06.47,1.55,1.55,0,0,0,0,.21c0,.1,0,.19,0,.28v.72a2.46,2.46,0,0,0,0,.28,4.12,4.12,0,0,0,2.32,3.11,10.15,10.15,0,0,0,2.76,5.55,7.68,7.68,0,0,0-3.39,1.56,5.77,5.77,0,0,0-2.34,4.6v4.6a2,2,0,0,0,2,2H42a2,2,0,0,0,2-2v-4.6a5.75,5.75,0,0,0-2.34-4.6,7.63,7.63,0,0,0-3.19-1.53A9.4,9.4,0,0,0,41.2,99a4.22,4.22,0,0,0,2.21-3.66,3.35,3.35,0,0,0-.07-.71,1.79,1.79,0,0,0,.07-.51V88.56c0-4.79-5.12-10.35-11.71-10.35Z"/><rect class="cls-9" x="91.09" y="65.29" width="214.23" height="170.43" rx="5"/><path class="cls-10" d="M292.28,99.75V85.86c0-2.76-.89-5-4.46-5h-179c-3.57,0-4.46,2.24-4.46,5v127c0,2.76,1.89,5,5.46,5h178c3.57,0,4.46-2.24,4.46-5V199.73"/><path class="cls-11" d="M292.28,99.75V85.86c0-2.76-.89-5-4.46-5h-179c-3.57,0-4.46,2.24-4.46,5v127c0,2.76,1.89,5,5.46,5h178c3.57,0,4.46-2.24,4.46-5V199.73"/><text class="cls-2" transform="translate(158.88 134.65)"><tspan xml:space="preserve">                       CLI</tspan><tspan x="10.93" y="15">(contai</tspan><tspan class="cls-12" x="47.24" y="15">n</tspan><tspan x="54.17" y="15">er)</tspan></text><g id="Scone_logo_white" data-name="Scone logo white"><g class="cls-13"><g class="cls-13"><path class="cls-14" d="M160.55,126.22h-1.33a.51.51,0,0,0-.51.51v1.35a.51.51,0,0,0,.51.51h1.33a.5.5,0,0,0,.5-.51v-1.35a.5.5,0,0,0-.5-.51m-4.61,2.37h1.32a.51.51,0,0,0,.51-.51v-1.35a.51.51,0,0,0-.51-.51h-1.32a.51.51,0,0,0-.51.51v1.35a.51.51,0,0,0,.51.51m-1.42-.51v-1.35a.51.51,0,0,0-.51-.51h-1.32a.51.51,0,0,0-.51.51v1.35a.51.51,0,0,0,.51.51H154a.51.51,0,0,0,.51-.51m6.13,1.45a.38.38,0,0,0-.38.38v1.58a.39.39,0,0,0,.38.38.39.39,0,0,0,.38-.38v-1.58a.36.36,0,0,0-.38-.38M157,130v1.34a.51.51,0,0,0,.51.51h1.32a.51.51,0,0,0,.51-.51V130a.51.51,0,0,0-.51-.51h-1.32a.51.51,0,0,0-.51.51m-.94,1.34V130a.51.51,0,0,0-.51-.51h-1.32a.51.51,0,0,0-.51.51v1.34a.51.51,0,0,0,.51.51h1.32a.51.51,0,0,0,.51-.51m4.48,1.45h-1.33a.51.51,0,0,0-.51.51v1.35a.51.51,0,0,0,.51.51h1.33a.5.5,0,0,0,.5-.51v-1.35a.5.5,0,0,0-.5-.51m-3.44,0h-1.32a.51.51,0,0,0-.51.51v1.35a.51.51,0,0,0,.51.51h1.32a.51.51,0,0,0,.51-.51v-1.35a.51.51,0,0,0-.51-.51"/><path class="cls-14" d="M162.15,125.69a3.05,3.05,0,0,0,2.06.63s0,.05,0,.1v3.64c0,1.4-1.7,2.26-2.11,2.49-.05,0-.05,0-.05,0l0-6.82s0,0,.05,0"/><path class="cls-14" d="M158.15,125.51c2.8-.1,3.26-1.07,3.26-1.07a.16.16,0,0,1,.13-.08c.05,0,.1,0,.12,0s.44,1,3.23,1c.08,0,.11.05.11.12v4.79c0,1.52-2.9,3.25-2.95,3.28s-.11.07-.11.1v1.19c0,.06.18.08.26.06,1.07-.59,4.07-2.24,4.07-4.28v-6.1c0-.1-.18-.18-.28-.18-3.56,0-4.22-1.3-4.22-1.3s-.16,0-.23,0-.13,0-.16,0-.58,1.35-4.12,1.35c-.12,0-.15,0-.15.15v.76s0,.18.1.18.94,0,.94,0"/><path class="cls-15" d="M168.91,133.32l1.43-.54a1.94,1.94,0,0,0,1.85,1.07,2.13,2.13,0,0,0,1.1-.25.89.89,0,0,0,.46-.77c0-.76-1.05-1.22-1.81-1.52l-.05,0a6.69,6.69,0,0,1-1.65-.91,2.08,2.08,0,0,1-.82-1.68,2.27,2.27,0,0,1,.84-1.76,3.26,3.26,0,0,1,2.11-.71,3,3,0,0,1,2.8,1.53l-1.48.56a1.14,1.14,0,0,0-.5-.54,2.06,2.06,0,0,0-.82-.18c-.81,0-1.37.44-1.37,1a1.16,1.16,0,0,0,.56.92,7.92,7.92,0,0,0,1.27.66l.18.07c1.09.46,2.44,1.05,2.44,2.52a2.11,2.11,0,0,1-1,1.81,3.9,3.9,0,0,1-2.31.66,3.41,3.41,0,0,1-3.26-1.93"/><path class="cls-15" d="M181.53,135.22a4.61,4.61,0,0,1-1.76-.35,4.65,4.65,0,0,1-2.39-2.39,4.61,4.61,0,0,1-.35-1.76,4.56,4.56,0,0,1,.35-1.75,4.55,4.55,0,0,1,2.39-2.39,4.61,4.61,0,0,1,1.76-.36,4.34,4.34,0,0,1,2,.48,4.55,4.55,0,0,1,1.55,1.3l-1.19.89a3.2,3.2,0,0,0-1-.86,3.15,3.15,0,0,0-1.38-.33,3,3,0,0,0-3,3,3,3,0,0,0,4.55,2.6,3,3,0,0,0,1.09-1.12l1.3.74a4.45,4.45,0,0,1-1.63,1.65,4.12,4.12,0,0,1-2.26.63"/><path class="cls-15" d="M191.37,135.25a4.57,4.57,0,0,1-1.75-.36,4.19,4.19,0,0,1-1.43-1,4.5,4.5,0,0,1-1-1.43,4.57,4.57,0,0,1-.36-1.75,4.11,4.11,0,0,1,.36-1.76,4.57,4.57,0,0,1,1-1.42,4.77,4.77,0,0,1,1.43-1,4.56,4.56,0,0,1,1.75-.35,4.61,4.61,0,0,1,1.76.35,4.28,4.28,0,0,1,1.42,1,4.51,4.51,0,0,1,1,4.93,4.53,4.53,0,0,1-1,1.43,4.69,4.69,0,0,1-1.42,1,4.61,4.61,0,0,1-1.76.36m0-7.55a2.88,2.88,0,0,0-2.13.89,3,3,0,0,0-.89,2.13,2.9,2.9,0,0,0,.89,2.14,3,3,0,0,0,2.13.89,3,3,0,0,0,2.14-.89,3,3,0,0,0-2.14-5.16"/><polygon class="cls-15" points="206.1 126.3 206.1 135.45 199.79 129.65 199.79 135.1 198.19 135.1 198.19 125.97 204.5 131.79 204.5 126.3 206.1 126.3"/><polygon class="cls-15" points="210.4 127.64 210.4 129.99 214.8 129.99 214.8 131.36 210.4 131.36 210.4 133.72 215.33 133.72 215.33 135.1 208.79 135.1 208.79 126.3 215.33 126.3 215.33 127.67 210.4 127.67 210.4 127.64"/></g></g></g></g><g id="schrift"><g class="cls-16"><path class="cls-17" d="M391.59,213v15.3c0,3.38,2.24,6.13,5,6.13h100c2.77,0,5-2.75,5-6.13V71.41c0-3.38-2.23-6.12-5-6.12h-100c-2.76,0-5,2.74-5,6.12V89.66"/></g><g class="cls-18"><path class="cls-19" d="M483,99H292.28v25.7H399.14a4.91,4.91,0,0,1,4.9,4.9v40.58a4.9,4.9,0,0,1-4.9,4.9H292.28v25.7H483a5,5,0,0,0,5-5V104A5,5,0,0,0,483,99Z"/></g><path class="cls-20" d="M391.59,201.85v27.69c0,3.41,2.24,6.18,5,6.18h100c2.77,0,5-2.77,5-6.18V71.46c0-3.41-2.23-6.17-5-6.17h-100c-2.76,0-5,2.76-5,6.17v26"/><path class="cls-21" d="M496.69,60.42a2.88,2.88,0,0,0-3.61-1.18c-2.25.86-1.26,3.62-1.26,3.62s-5.13-.06-4.57,5.2c.41,3.85,4.57,3.62,4.43,3.62-6.19,0,12.39,0,18.58,0a4.73,4.73,0,0,0,2.64-1,4,4,0,0,0,1.29-4.74c-.66-1.83-3-2.77-4.87-2.87,0,0,1.1-4.89-2.42-7.05a6.62,6.62,0,0,0-8.09.59A7.54,7.54,0,0,0,496.69,60.42Z"/><path class="cls-22" d="M79.54,29.41H75.3c-.58,0-.81-.22-.81-.8V22.15c0-.58.23-.81.81-.81h8.45c.55,0,.78.23.78.78v6.49c0,.55-.23.77-.78.77C82.34,29.45,80.93,29.41,79.54,29.41Z"/><path class="cls-22" d="M75.19,20.78a4.48,4.48,0,0,1,2.64-4.13A4.19,4.19,0,0,1,83.6,19.5c.1.38.14.77.23,1.19"/><path class="cls-23" d="M78.84,26.65h0v.87c0,.16.06.22.26.22h.83c.23,0,.29-.06.29-.25V25.88a.37.37,0,0,1,.23-.39A1.22,1.22,0,0,0,81.06,24a1.55,1.55,0,0,0-1.45-1A1.65,1.65,0,0,0,78,24a1.2,1.2,0,0,0,.55,1.51.43.43,0,0,1,.26.48A5.86,5.86,0,0,1,78.84,26.65Z"/><path class="cls-24" d="M514.86,28h-4.25c-.58,0-.8-.22-.8-.8V20.75c0-.58.22-.81.8-.81h8.46c.54,0,.77.23.77.78v6.49c0,.55-.23.77-.77.77C517.65,28.05,516.24,28,514.86,28Z"/><path class="cls-24" d="M513.48,11.76a4.54,4.54,0,0,1,4.86.71,4.2,4.2,0,0,1-.24,6.44c-.31.25-.65.44-1,.7"/><path class="cls-25" d="M514.15,25.25h0v.87c0,.16.06.22.26.22h.83c.23,0,.29-.06.29-.26v-1.6a.37.37,0,0,1,.23-.39,1.21,1.21,0,0,0,.61-1.45,1.55,1.55,0,0,0-1.45-1,1.65,1.65,0,0,0-1.61.87,1.21,1.21,0,0,0,.55,1.51.43.43,0,0,1,.26.48A5.86,5.86,0,0,1,514.15,25.25Z"/><path class="cls-11" d="M292.28,124.65H399.14a4.91,4.91,0,0,1,4.9,4.9v40.58a4.9,4.9,0,0,1-4.9,4.9H292.28Z"/><path class="cls-11" d="M292.28,200.73H483a5,5,0,0,0,5-5V104a5,5,0,0,0-5-5H292.28"/><line class="cls-20" x1="391.59" y1="125.02" x2="391.59" y2="173.43"/><text class="cls-26" transform="translate(313.72 145.53) scale(1.01 1)">alw<tspan class="cls-27" x="20.04" y="0">a</tspan><tspan x="26.54" y="0">ys </tspan><tspan x="0" y="14.4">e</tspan><tspan class="cls-28" x="6.39" y="14.4">n</tspan><tspan x="13.95" y="14.4">c</tspan><tspan class="cls-29" x="20.27" y="14.4">r</tspan><tspan x="25.43" y="14.4">ypted</tspan></text><text class="cls-30" transform="translate(370.02 114.9)">encryp<tspan class="cls-31" x="31.38" y="0">t</tspan><tspan x="34.99" y="0">ed data</tspan></text><text class="cls-30" transform="translate(370.02 190.6)">encryp<tspan class="cls-32" x="31.38" y="0">t</tspan><tspan x="34.99" y="0">ed pro</tspan><tspan class="cls-33" x="65.02" y="0">c</tspan><tspan x="69.73" y="0">essing</tspan></text><text class="cls-34" transform="translate(444.75 28.19)">Untrusted <tspan class="cls-35" x="-46.19" y="14.4">r</tspan><tspan x="-41.25" y="14.4">e</tspan><tspan class="cls-12" x="-34.86" y="14.4">m</tspan><tspan x="-23.75" y="14.4">ote computers</tspan></text><text class="cls-34" transform="translate(91.78 28.72)"><tspan class="cls-36">T</tspan><tspan x="7.69" y="0">rusted</tspan><tspan x="0" y="14.4">client computer</tspan></text><rect class="cls-37" x="117" y="165.76" width="161.21" height="14.57" rx="1"/></g><g id="Ebene_4" data-name="Ebene 4"><text class="cls-38" transform="translate(62.33 103.64)">uses</text><line class="cls-39" x1="58.79" y1="108.89" x2="100.02" y2="108.89"/><polygon class="cls-6" points="95.38 114.61 94.42 113.59 99.48 108.89 94.42 104.19 95.38 103.16 101.53 108.89 95.38 114.61"/><text class="cls-40" transform="translate(124.8 174.89)">sconecuratedimages/iexecsgx:cli</text></g></svg>