<svg xmlns="http://www.w3.org/2000/svg" xmlns:xlink="http://www.w3.org/1999/xlink" viewBox="0 0 610 225"><defs><style>.cls-1,.cls-10,.cls-2,.cls-25,.cls-6,.cls-9{fill:none;}.cls-2{stroke:#c30;}.cls-2,.cls-25,.cls-3,.cls-9{stroke-miterlimit:10;}.cls-10,.cls-11,.cls-2,.cls-25,.cls-3,.cls-6,.cls-9{stroke-width:2px;}.cls-2,.cls-25{stroke-dasharray:2 2;}.cls-11,.cls-16,.cls-3{fill:#fff;}.cls-10,.cls-11,.cls-25,.cls-3,.cls-9{stroke:#fc0;}.cls-26,.cls-4{font-size:12px;}.cls-4{fill:#306;}.cls-16,.cls-21,.cls-26,.cls-4{font-family:RobotoSlab-Bold, Roboto Slab;font-weight:700;}.cls-5{letter-spacing:0em;}.cls-6{stroke:#f63;}.cls-10,.cls-11,.cls-6{stroke-linecap:round;stroke-linejoin:round;}.cls-7{fill:#f63;}.cls-8{fill:url(#Unbenannter_Verlauf_12);}.cls-12,.cls-21,.cls-26{fill:#fc0;}.cls-13{clip-path:url(#clip-path);}.cls-14{fill:#ffd138;}.cls-15{fill:#fdfeff;}.cls-16{font-size:12.24px;}.cls-17{letter-spacing:0em;}.cls-18{letter-spacing:-0.01em;}.cls-19{letter-spacing:-0.01em;}.cls-20{fill:url(#Unbenannter_Verlauf_12-2);}.cls-21{font-size:11px;}.cls-22{letter-spacing:-0.01em;}.cls-23{letter-spacing:-0.04em;}.cls-24{clip-path:url(#clip-path-3);}.cls-27{letter-spacing:-0.03em;}.cls-28{letter-spacing:-0.01em;}.cls-29{letter-spacing:-0.01em;}.cls-30{letter-spacing:-0.01em;}</style><linearGradient id="Unbenannter_Verlauf_12" x1="62.32" y1="131.26" x2="234.1" y2="131.26" gradientUnits="userSpaceOnUse"><stop offset="0" stop-color="#906"/><stop offset="0.19" stop-color="#780066"/><stop offset="0.4" stop-color="#5a0066"/><stop offset="0.61" stop-color="#406"/><stop offset="0.81" stop-color="#370066"/><stop offset="1" stop-color="#306"/></linearGradient><clipPath id="clip-path"><rect class="cls-1" x="130.04" y="174.71" width="36.34" height="7.12"/></clipPath><linearGradient id="Unbenannter_Verlauf_12-2" x1="378.69" y1="131.26" x2="550.47" y2="131.26" xlink:href="#Unbenannter_Verlauf_12"/><clipPath id="clip-path-3"><rect class="cls-1" x="446.41" y="174.71" width="36.34" height="7.12"/></clipPath></defs><title>TLSshield</title><g id="Ebene_2" data-name="Ebene 2"><rect class="cls-2" x="346.76" y="32.09" width="232.85" height="188.09" rx="5"/><rect class="cls-2" x="30.39" y="32.09" width="232.85" height="188.09" rx="5"/><polyline class="cls-3" points="378.69 110.71 230.27 110.71 230.27 136.41 378.69 136.41"/><text class="cls-4" transform="translate(68.68 23.18)">Untrusted Host / VM/ Contai<tspan class="cls-5" x="162.09" y="0">n</tspan><tspan x="169.65" y="0">er</tspan></text><path class="cls-6" d="M54.49,22H50.24c-.58,0-.8-.23-.8-.81V14.74c0-.58.22-.8.8-.8H58.7c.54,0,.77.22.77.77V21.2c0,.55-.23.78-.77.78C57.28,22,55.87,22,54.49,22Z"/><path class="cls-6" d="M53.11,5.76A4.48,4.48,0,0,1,58,6.47a4.2,4.2,0,0,1-.23,6.44c-.31.24-.65.43-1,.7"/><path class="cls-7" d="M53.78,19.24h0v.87c0,.16.06.23.25.23h.84c.23,0,.29-.07.29-.26V18.47a.35.35,0,0,1,.23-.38A1.23,1.23,0,0,0,56,16.64a1.56,1.56,0,0,0-1.45-1,1.66,1.66,0,0,0-1.61.87,1.2,1.2,0,0,0,.55,1.51.43.43,0,0,1,.26.49A5.7,5.7,0,0,1,53.78,19.24Z"/><rect class="cls-8" x="62.32" y="70.69" width="171.79" height="121.13" rx="5"/><rect class="cls-9" x="62.32" y="70.69" width="171.79" height="121.13" rx="5"/><rect class="cls-10" x="80.06" y="139.83" width="135.69" height="27.21" rx="5"/><path class="cls-11" d="M138.9,58.91a11.74,11.74,0,1,1-3.51,8.39,11.54,11.54,0,0,1,2.4-7.1"/><path class="cls-10" d="M147.15,72.94H142.9c-.57,0-.8-.22-.8-.8V65.68c0-.58.23-.81.8-.81h8.46c.55,0,.77.23.77.77v6.5c0,.54-.22.77-.77.77C150,73,148.53,72.94,147.15,72.94Z"/><path class="cls-10" d="M142.79,64.31a4.53,4.53,0,0,1,2.64-4.14A4.21,4.21,0,0,1,151.21,63c.1.38.13.77.23,1.19"/><path class="cls-12" d="M146.44,70.18h0v.87c0,.16.07.22.26.22h.84c.22,0,.29-.06.29-.26v-1.6a.37.37,0,0,1,.22-.39,1.21,1.21,0,0,0,.61-1.45,1.54,1.54,0,0,0-1.44-1,1.65,1.65,0,0,0-1.61.87,1.2,1.2,0,0,0,.54,1.51.41.41,0,0,1,.26.48A5.86,5.86,0,0,1,146.44,70.18Z"/><g id="Scone_logo_white" data-name="Scone logo white"><g class="cls-13"><g class="cls-13"><path class="cls-14" d="M134.86,176.51h-.77a.29.29,0,0,0-.29.29v.78a.29.29,0,0,0,.29.29h.77a.29.29,0,0,0,.29-.29v-.78a.29.29,0,0,0-.29-.29m-2.65,1.36H133a.29.29,0,0,0,.29-.29v-.78a.29.29,0,0,0-.29-.29h-.76a.3.3,0,0,0-.3.29v.78a.3.3,0,0,0,.3.29m-.82-.29v-.78a.29.29,0,0,0-.3-.29h-.76a.29.29,0,0,0-.29.29v.78a.29.29,0,0,0,.29.29h.76a.29.29,0,0,0,.3-.29m3.52.83a.24.24,0,0,0-.22.22v.91a.23.23,0,0,0,.22.22.22.22,0,0,0,.22-.22v-.91a.2.2,0,0,0-.22-.22m-2.09.3v.77a.29.29,0,0,0,.29.29h.77a.29.29,0,0,0,.29-.29v-.77a.29.29,0,0,0-.29-.3h-.77a.29.29,0,0,0-.29.3m-.54.77v-.77a.29.29,0,0,0-.29-.3h-.76a.3.3,0,0,0-.3.3v.77a.3.3,0,0,0,.3.29H132a.29.29,0,0,0,.29-.29m2.58.84h-.77a.29.29,0,0,0-.29.29v.77a.3.3,0,0,0,.29.3h.77a.3.3,0,0,0,.29-.3v-.77a.29.29,0,0,0-.29-.29m-2,0h-.76a.29.29,0,0,0-.29.29v.77a.3.3,0,0,0,.29.3h.76a.3.3,0,0,0,.29-.3v-.77a.29.29,0,0,0-.29-.29"/><path class="cls-14" d="M135.78,176.2a1.7,1.7,0,0,0,1.18.37s0,0,0,.06v2.09c0,.81-1,1.3-1.22,1.43,0,0,0,0,0,0l0-3.92s0,0,0,0"/><path class="cls-14" d="M133.48,176.1c1.61-.06,1.87-.61,1.87-.61a.1.1,0,0,1,.08-.05s0,0,.07,0,.25.6,1.86.6c0,0,.06,0,.06.07v2.76c0,.87-1.67,1.87-1.7,1.88l-.06.06v.69s.1,0,.15,0c.61-.34,2.34-1.29,2.34-2.46v-3.51c0-.06-.1-.1-.16-.1-2.05,0-2.43-.75-2.43-.75s-.09,0-.13,0-.08,0-.09,0-.34.77-2.37.77c-.08,0-.09,0-.09.09V176s0,.1.06.1l.54,0"/><path class="cls-15" d="M139.67,180.59l.82-.3a1.12,1.12,0,0,0,1.07.61,1.11,1.11,0,0,0,.63-.15.5.5,0,0,0,.26-.43c0-.44-.6-.71-1-.88l0,0a4,4,0,0,1-.95-.52,1.21,1.21,0,0,1-.47-1,1.28,1.28,0,0,1,.49-1,1.86,1.86,0,0,1,1.21-.41,1.74,1.74,0,0,1,1.61.88l-.85.32a.72.72,0,0,0-.29-.31,1.12,1.12,0,0,0-.47-.1c-.47,0-.79.25-.79.59a.64.64,0,0,0,.32.52,3.86,3.86,0,0,0,.73.38l.11.05c.63.26,1.4.6,1.4,1.45a1.23,1.23,0,0,1-.55,1,2.33,2.33,0,0,1-1.34.38,2,2,0,0,1-1.87-1.12"/><path class="cls-15" d="M146.93,181.69a2.67,2.67,0,0,1-1-.2,2.68,2.68,0,0,1-1.38-1.38,2.65,2.65,0,0,1,0-2,2.55,2.55,0,0,1,.56-.82,2.28,2.28,0,0,1,.82-.55,2.56,2.56,0,0,1,2.18.07,2.56,2.56,0,0,1,.89.74l-.69.52a1.71,1.71,0,0,0-.6-.5,1.77,1.77,0,0,0-.79-.19,1.76,1.76,0,0,0-1.74,1.74,1.7,1.7,0,0,0,.52,1.23,1.65,1.65,0,0,0,1.22.51,1.77,1.77,0,0,0,1.51-.89l.75.42a2.55,2.55,0,0,1-.94,1,2.42,2.42,0,0,1-1.3.36"/><path class="cls-15" d="M152.59,181.71a2.73,2.73,0,0,1-1-.21,2.5,2.5,0,0,1-.82-.56,2.64,2.64,0,0,1-.55-.81,2.73,2.73,0,0,1-.21-1,2.32,2.32,0,0,1,.21-1,2.57,2.57,0,0,1,.55-.82,2.52,2.52,0,0,1,1.83-.76,2.67,2.67,0,0,1,1,.2,2.31,2.31,0,0,1,.82.56,2.44,2.44,0,0,1,.56.82,2.64,2.64,0,0,1,.2,1,2.71,2.71,0,0,1-.2,1,2.51,2.51,0,0,1-.56.81,2.6,2.6,0,0,1-.82.56,2.68,2.68,0,0,1-1,.21m0-4.35a1.68,1.68,0,0,0-1.23.51,1.74,1.74,0,0,0-.51,1.23,1.74,1.74,0,0,0,1.74,1.74,1.68,1.68,0,0,0,1.23-.51,1.74,1.74,0,0,0,.51-1.23,1.78,1.78,0,0,0-.51-1.23,1.74,1.74,0,0,0-1.23-.51"/><polygon class="cls-15" points="161.07 176.55 161.07 181.82 157.44 178.49 157.44 181.62 156.51 181.62 156.51 176.36 160.14 179.72 160.14 176.55 161.07 176.55"/><polygon class="cls-15" points="163.54 177.33 163.54 178.68 166.07 178.68 166.07 179.47 163.54 179.47 163.54 180.83 166.38 180.83 166.38 181.62 162.62 181.62 162.62 176.55 166.38 176.55 166.38 177.34 163.54 177.34 163.54 177.33"/></g></g></g><text class="cls-16" transform="translate(96.67 103.15)">Intel SGX E<tspan class="cls-17" x="64.96" y="0">n</tspan><tspan x="72.67" y="0">cl</tspan><tspan class="cls-18" x="83.02" y="0">a</tspan><tspan class="cls-19" x="89.66" y="0">v</tspan><tspan x="96.56" y="0">e</tspan></text><text class="cls-4" transform="translate(385.05 23.18)">Untrusted Host / VM/ Contai<tspan class="cls-5" x="162.09" y="0">n</tspan><tspan x="169.65" y="0">er</tspan></text><path class="cls-6" d="M370.85,22h-4.24c-.58,0-.8-.23-.8-.81V14.74c0-.58.22-.8.8-.8h8.46c.54,0,.77.22.77.77V21.2c0,.55-.23.78-.77.78C373.65,22,372.24,22,370.85,22Z"/><path class="cls-6" d="M369.48,5.76a4.48,4.48,0,0,1,4.85.71,4.2,4.2,0,0,1-.23,6.44c-.31.24-.65.43-1,.7"/><path class="cls-7" d="M370.15,19.24h0v.87c0,.16.06.23.25.23h.84c.23,0,.29-.07.29-.26V18.47a.35.35,0,0,1,.23-.38,1.23,1.23,0,0,0,.61-1.45,1.56,1.56,0,0,0-1.45-1,1.66,1.66,0,0,0-1.61.87,1.2,1.2,0,0,0,.55,1.51.43.43,0,0,1,.26.49A5.7,5.7,0,0,1,370.15,19.24Z"/><rect class="cls-20" x="378.69" y="70.69" width="171.79" height="121.13" rx="5"/><rect class="cls-9" x="378.69" y="70.69" width="171.79" height="121.13" rx="5"/><rect class="cls-10" x="396.96" y="139.57" width="136.62" height="27.21" rx="5"/><text class="cls-21" transform="translate(435.09 156.74)">Ap<tspan class="cls-22" x="14.56" y="0">p</tspan><tspan x="21.11" y="0">lic</tspan><tspan class="cls-23" x="33.96" y="0">a</tspan><tspan x="39.58" y="0">tion</tspan></text><text class="cls-21" transform="translate(116.93 156.99)">Ap<tspan class="cls-22" x="14.56" y="0">p</tspan><tspan x="21.11" y="0">lic</tspan><tspan class="cls-23" x="33.96" y="0">a</tspan><tspan x="39.57" y="0">tion</tspan></text><path class="cls-11" d="M455.27,58.91a11.74,11.74,0,1,1-3.51,8.39,11.54,11.54,0,0,1,2.4-7.1"/><path class="cls-10" d="M463.52,72.94h-4.25c-.57,0-.8-.22-.8-.8V65.68c0-.58.23-.81.8-.81h8.46c.55,0,.77.23.77.77v6.5c0,.54-.22.77-.77.77C466.32,73,464.9,72.94,463.52,72.94Z"/><path class="cls-10" d="M459.16,64.31a4.53,4.53,0,0,1,2.64-4.14A4.21,4.21,0,0,1,467.58,63c.1.38.13.77.23,1.19"/><path class="cls-12" d="M462.81,70.18h0v.87c0,.16.07.22.26.22h.84c.22,0,.29-.06.29-.26v-1.6a.37.37,0,0,1,.22-.39,1.21,1.21,0,0,0,.61-1.45,1.54,1.54,0,0,0-1.44-1,1.64,1.64,0,0,0-1.61.87,1.2,1.2,0,0,0,.54,1.51.41.41,0,0,1,.26.48A5.86,5.86,0,0,1,462.81,70.18Z"/><g id="Scone_logo_white-2" data-name="Scone logo white"><g class="cls-24"><g class="cls-24"><path class="cls-14" d="M451.23,176.51h-.77a.29.29,0,0,0-.29.29v.78a.29.29,0,0,0,.29.29h.77a.29.29,0,0,0,.29-.29v-.78a.29.29,0,0,0-.29-.29m-2.65,1.36h.76a.29.29,0,0,0,.29-.29v-.78a.29.29,0,0,0-.29-.29h-.76a.3.3,0,0,0-.3.29v.78a.3.3,0,0,0,.3.29m-.82-.29v-.78a.29.29,0,0,0-.3-.29h-.76a.29.29,0,0,0-.29.29v.78a.29.29,0,0,0,.29.29h.76a.29.29,0,0,0,.3-.29m3.52.83a.24.24,0,0,0-.22.22v.91a.23.23,0,0,0,.22.22.22.22,0,0,0,.22-.22v-.91a.2.2,0,0,0-.22-.22m-2.09.3v.77a.29.29,0,0,0,.29.29h.76a.29.29,0,0,0,.3-.29v-.77a.29.29,0,0,0-.3-.3h-.76a.29.29,0,0,0-.29.3m-.54.77v-.77a.29.29,0,0,0-.29-.3h-.76a.3.3,0,0,0-.3.3v.77a.3.3,0,0,0,.3.29h.76a.29.29,0,0,0,.29-.29m2.58.84h-.77a.29.29,0,0,0-.29.29v.77a.3.3,0,0,0,.29.3h.77a.3.3,0,0,0,.29-.3v-.77a.29.29,0,0,0-.29-.29m-2,0h-.76a.29.29,0,0,0-.29.29v.77a.3.3,0,0,0,.29.3h.76a.3.3,0,0,0,.29-.3v-.77a.29.29,0,0,0-.29-.29"/><path class="cls-14" d="M452.15,176.2a1.7,1.7,0,0,0,1.18.37s0,0,0,.06v2.09c0,.81-1,1.3-1.22,1.43,0,0,0,0,0,0l0-3.92s0,0,0,0"/><path class="cls-14" d="M449.85,176.1c1.61-.06,1.87-.61,1.87-.61a.1.1,0,0,1,.08-.05s.05,0,.07,0,.25.6,1.86.6c0,0,.06,0,.06.07v2.76c0,.87-1.67,1.87-1.7,1.88l-.06.06v.69s.1,0,.15,0c.61-.34,2.34-1.29,2.34-2.46v-3.51c0-.06-.1-.1-.16-.1-2.05,0-2.43-.75-2.43-.75s-.09,0-.13,0-.08,0-.09,0-.34.77-2.37.77c-.08,0-.09,0-.09.09V176s0,.1.06.1l.54,0"/><path class="cls-15" d="M456,180.59l.82-.3a1.12,1.12,0,0,0,1.07.61,1.11,1.11,0,0,0,.63-.15.5.5,0,0,0,.26-.43c0-.44-.6-.71-1-.88l0,0a4,4,0,0,1-.95-.52,1.21,1.21,0,0,1-.47-1,1.28,1.28,0,0,1,.49-1,1.86,1.86,0,0,1,1.21-.41,1.74,1.74,0,0,1,1.61.88l-.85.32a.72.72,0,0,0-.29-.31,1.12,1.12,0,0,0-.47-.1c-.47,0-.79.25-.79.59a.64.64,0,0,0,.32.52,3.86,3.86,0,0,0,.73.38l.11.05c.63.26,1.4.6,1.4,1.45a1.23,1.23,0,0,1-.55,1,2.33,2.33,0,0,1-1.34.38,2,2,0,0,1-1.87-1.12"/><path class="cls-15" d="M463.3,181.69a2.67,2.67,0,0,1-1-.2,2.68,2.68,0,0,1-1.38-1.38,2.65,2.65,0,0,1,0-2,2.55,2.55,0,0,1,.56-.82,2.28,2.28,0,0,1,.82-.55,2.56,2.56,0,0,1,2.18.07,2.56,2.56,0,0,1,.89.74l-.69.52a1.71,1.71,0,0,0-.6-.5,1.77,1.77,0,0,0-.79-.19,1.76,1.76,0,0,0-1.74,1.74,1.7,1.7,0,0,0,.52,1.23,1.65,1.65,0,0,0,1.22.51,1.77,1.77,0,0,0,1.51-.89l.75.42a2.55,2.55,0,0,1-.94,1,2.42,2.42,0,0,1-1.3.36"/><path class="cls-15" d="M469,181.71a2.73,2.73,0,0,1-1-.21,2.5,2.5,0,0,1-.82-.56,2.64,2.64,0,0,1-.55-.81,2.73,2.73,0,0,1-.21-1,2.32,2.32,0,0,1,.21-1,2.57,2.57,0,0,1,.55-.82,2.52,2.52,0,0,1,1.83-.76,2.67,2.67,0,0,1,1,.2,2.31,2.31,0,0,1,.82.56,2.44,2.44,0,0,1,.56.82,2.64,2.64,0,0,1,.2,1,2.71,2.71,0,0,1-.2,1,2.51,2.51,0,0,1-.56.81,2.6,2.6,0,0,1-.82.56,2.68,2.68,0,0,1-1,.21m0-4.35a1.68,1.68,0,0,0-1.23.51,1.74,1.74,0,0,0-.51,1.23,1.74,1.74,0,0,0,1.74,1.74,1.68,1.68,0,0,0,1.23-.51,1.74,1.74,0,0,0,.51-1.23,1.78,1.78,0,0,0-.51-1.23,1.74,1.74,0,0,0-1.23-.51"/><polygon class="cls-15" points="477.44 176.55 477.44 181.82 473.81 178.49 473.81 181.62 472.88 181.62 472.88 176.36 476.51 179.72 476.51 176.55 477.44 176.55"/><polygon class="cls-15" points="479.91 177.33 479.91 178.68 482.44 178.68 482.44 179.47 479.91 179.47 479.91 180.83 482.75 180.83 482.75 181.62 478.99 181.62 478.99 176.55 482.75 176.55 482.75 177.34 479.91 177.34 479.91 177.33"/></g></g></g><text class="cls-16" transform="translate(413.04 103.15)">Intel SGX E<tspan class="cls-17" x="64.96" y="0">n</tspan><tspan x="72.67" y="0">cl</tspan><tspan class="cls-18" x="83.02" y="0">a</tspan><tspan class="cls-19" x="89.66" y="0">v</tspan><tspan x="96.56" y="0">e</tspan></text><line class="cls-25" x1="329.17" y1="122.95" x2="283.35" y2="122.95"/><polygon class="cls-12" points="324.53 117.23 323.57 118.25 328.63 122.95 323.57 127.65 324.53 128.68 330.69 122.95 324.53 117.23"/><polygon class="cls-12" points="287.99 117.23 288.95 118.25 283.89 122.95 288.95 127.65 287.99 128.68 281.83 122.95 287.99 117.23"/><text class="cls-26" transform="translate(268.86 103.4) scale(1.01 1)"><tspan class="cls-27">T</tspan><tspan class="cls-28" x="7.69" y="0">r</tspan><tspan x="12.62" y="0">anspa</tspan><tspan class="cls-29" x="46.86" y="0">r</tspan><tspan x="51.8" y="0">ent</tspan></text><text class="cls-26" transform="translate(197.98 127.38) scale(1.01 1)"><tspan class="cls-30">T</tspan><tspan x="7.9" y="0">CP</tspan></text><path class="cls-9" d="M305.14,111.32c3.76,0,6.81,5.39,6.81,12s-3.05,12-6.81,12"/><text class="cls-26" transform="translate(293.08 152.37) scale(1.01 1)">TLS</text><circle class="cls-12" cx="234.1" cy="123.44" r="3.83"/><text class="cls-26" transform="translate(391.31 127.38) scale(1.01 1)"><tspan class="cls-30">T</tspan><tspan x="7.9" y="0">CP</tspan></text><circle class="cls-12" cx="379.67" cy="123.44" r="3.83"/></g></svg>