<?xml version="1.0" encoding="utf-8"?>
<!-- Generator: Adobe Illustrator 24.0.0, SVG Export Plug-In . SVG Version: 6.00 Build 0)  -->
<svg version="1.1" id="Ebene_1" xmlns="http://www.w3.org/2000/svg" xmlns:xlink="http://www.w3.org/1999/xlink" x="0px" y="0px"
	 viewBox="0 0 610 225" style="enable-background:new 0 0 610 225;" xml:space="preserve">
<style type="text/css">
	.st0{opacity:0.2;fill:#FFCC99;enable-background:new    ;}
	.st1{opacity:0.7;fill:url(#SVGID_1_);enable-background:new    ;}
	.st2{fill:none;stroke:#CC3300;stroke-width:2;stroke-miterlimit:10;stroke-dasharray:2,2;}
	.st3{enable-background:new    ;}
	.st4{fill:#330066;}
	.st5{fill:none;stroke:#FF6633;stroke-width:2;stroke-linecap:round;stroke-linejoin:round;}
	.st6{fill:#FF6633;}
	.st7{fill:url(#SVGID_2_);}
	.st8{fill:none;stroke:#FFCC00;stroke-width:2;stroke-linecap:round;stroke-linejoin:round;}
	.st9{clip-path:url(#SVGID_4_);}
	.st10{clip-path:url(#SVGID_6_);}
	.st11{fill:#FFD138;}
	.st12{fill:#FDFEFF;}
	.st13{fill:#FFFFFF;}
	.st14{fill:url(#SVGID_7_);}
	.st15{fill:#FFCC00;}
	.st16{clip-path:url(#SVGID_9_);}
	.st17{clip-path:url(#SVGID_11_);}
	.st18{fill:none;stroke:#FFCC00;stroke-width:2;stroke-miterlimit:10;}
	.st19{fill:none;stroke:#FFCC00;stroke-width:2;stroke-miterlimit:10;stroke-dasharray:2,2;}
	.st20{fill:none;stroke:#FFCC03;stroke-width:2;stroke-miterlimit:10;}
	.st21{fill:#FFFFFF;stroke:#FFCC00;stroke-width:2;stroke-linecap:round;stroke-linejoin:round;}
</style>
<g id="Ebene_5">
	<path class="st0" d="M350.3,105.2V37.9c-0.1-3.2,2.5-5.8,5.6-5.8c0,0,0,0,0,0h218.5c3.2,0,5.7,2.7,5.6,5.8c0,0,0,0,0,0v176.4
		c0.1,3.2-2.5,5.8-5.6,5.8c0,0,0,0,0,0H355.9c-3.2,0-5.7-2.7-5.7-5.8c0,0,0,0,0,0v-75.6"/>
	<path class="st0" d="M263.2,136.4v78.8c0,2.8-2.2,5-5,5H35.4c-2.8,0-5-2.2-5-5V37.1c0-2.8,2.2-5,5-5h222.8c2.8,0,5,2.2,5,5v72.6"/>
</g>
<g id="Ebene_2_1_">
	
		<linearGradient id="SVGID_1_" gradientUnits="userSpaceOnUse" x1="-2251.78" y1="2447.8699" x2="-2079.4102" y2="2447.8699" gradientTransform="matrix(-1 0 0 1 -1848.04 -2324.9099)">
		<stop  offset="0" style="stop-color:#990066"/>
		<stop  offset="0.19" style="stop-color:#780066"/>
		<stop  offset="0.4" style="stop-color:#5A0066"/>
		<stop  offset="0.61" style="stop-color:#440066"/>
		<stop  offset="0.81" style="stop-color:#370066"/>
		<stop  offset="1" style="stop-color:#330066"/>
	</linearGradient>
	<rect x="231.4" y="109.7" class="st1" width="172.4" height="26.5"/>
	<path class="st2" d="M350.3,105.3V37.9c-0.1-3.2,2.5-5.8,5.6-5.8h218.5c3.2,0.1,5.7,2.7,5.6,5.8c0,0,0,0,0,0v176.8
		c0.1,3.2-2.5,5.8-5.6,5.9H355.9c-3.2-0.1-5.7-2.7-5.7-5.8c0,0,0,0,0,0V139"/>
	<path class="st2" d="M263.2,136.4v78.8c0,2.8-2.2,5-5,5H35.4c-2.8,0-5-2.2-5-5V37.1c0-2.8,2.2-5,5-5h222.8c2.8,0,5,2.2,5,5v72.6"/>
	<g class="st3">
		<path class="st4" d="M53.3,14.6v1l-0.9,0.2v4.5c0,0.6,0.2,1,0.5,1.3s0.7,0.4,1.2,0.4c0.5,0,1-0.1,1.3-0.4s0.5-0.7,0.5-1.3v-4.5
			l-0.9-0.2v-1h3.5v1l-0.9,0.2v4.5c0,1-0.3,1.7-0.9,2.2s-1.5,0.8-2.5,0.8c-1,0-1.8-0.3-2.5-0.8s-0.9-1.3-0.9-2.2v-4.5l-0.9-0.2v-1
			h0.9h1.7H53.3z"/>
		<path class="st4" d="M58.9,22.2l0.8-0.2V18l-0.9-0.2v-1h2.5l0.1,0.9c0.2-0.3,0.5-0.6,0.8-0.8s0.7-0.3,1-0.3c0.6,0,1.1,0.2,1.5,0.6
			s0.5,1,0.5,1.9V22l0.8,0.2v1h-3.3v-1l0.7-0.2v-2.8c0-0.4-0.1-0.7-0.3-0.9s-0.4-0.3-0.8-0.3c-0.2,0-0.4,0-0.6,0.1s-0.3,0.2-0.5,0.4
			V22l0.7,0.2v1h-3.2V22.2z"/>
		<path class="st4" d="M69.1,15.3v1.6h1.1V18h-1.1v3.2c0,0.2,0.1,0.4,0.2,0.5s0.2,0.2,0.4,0.2c0.1,0,0.2,0,0.3,0s0.2,0,0.3,0
			l0.1,1.2c-0.2,0.1-0.4,0.1-0.6,0.1s-0.4,0-0.6,0c-0.6,0-1-0.2-1.4-0.5s-0.5-0.8-0.5-1.5V18h-0.9v-1.2h0.9v-1.6H69.1z"/>
		<path class="st4" d="M71.2,22.2L72,22V18l-0.9-0.2v-1h2.5l0.1,0.9c0.1-0.3,0.3-0.6,0.6-0.8s0.5-0.3,0.8-0.3c0.1,0,0.2,0,0.3,0
			s0.2,0,0.2,0l-0.2,1.6l-0.7,0c-0.3,0-0.5,0-0.6,0.1s-0.3,0.2-0.4,0.4V22l0.8,0.2v1h-3.4V22.2z"/>
		<path class="st4" d="M80.6,22.4c-0.2,0.3-0.5,0.5-0.8,0.7s-0.6,0.2-1,0.2c-0.7,0-1.2-0.2-1.6-0.6s-0.6-1.1-0.6-2V18L76,17.9v-1
			h0.7h1.7v3.8c0,0.5,0.1,0.8,0.2,1S79,22,79.3,22c0.3,0,0.5,0,0.7-0.1s0.4-0.2,0.5-0.4V18l-0.8-0.2v-1h0.8h1.7V22l0.8,0.2v1h-2.3
			L80.6,22.4z"/>
		<path class="st4" d="M88.8,19h-1.1l-0.2-0.8c-0.1-0.1-0.3-0.2-0.4-0.2s-0.4-0.1-0.6-0.1c-0.3,0-0.5,0.1-0.7,0.2s-0.3,0.3-0.3,0.5
			c0,0.2,0.1,0.4,0.3,0.5s0.5,0.2,1,0.3c0.8,0.2,1.4,0.4,1.7,0.7s0.6,0.7,0.6,1.3c0,0.6-0.2,1-0.7,1.4s-1.1,0.5-1.9,0.5
			c-0.5,0-0.9-0.1-1.3-0.2s-0.8-0.3-1.1-0.6l0-1.4h1.2l0.2,0.8c0.1,0.1,0.2,0.1,0.4,0.2s0.4,0.1,0.6,0.1c0.3,0,0.6-0.1,0.8-0.2
			s0.3-0.3,0.3-0.5c0-0.2-0.1-0.3-0.3-0.5s-0.5-0.3-1-0.4c-0.7-0.2-1.3-0.4-1.7-0.7s-0.6-0.7-0.6-1.2c0-0.5,0.2-1,0.7-1.4
			s1.1-0.6,1.9-0.6c0.5,0,1,0.1,1.4,0.2s0.8,0.3,1,0.5L88.8,19z"/>
		<path class="st4" d="M92.3,15.3v1.6h1.1V18h-1.1v3.2c0,0.2,0.1,0.4,0.2,0.5s0.2,0.2,0.4,0.2c0.1,0,0.2,0,0.3,0s0.2,0,0.3,0
			l0.1,1.2c-0.2,0.1-0.4,0.1-0.6,0.1s-0.4,0-0.6,0c-0.6,0-1-0.2-1.4-0.5s-0.5-0.8-0.5-1.5V18h-0.9v-1.2h0.9v-1.6H92.3z"/>
		<path class="st4" d="M97.3,23.3c-0.9,0-1.6-0.3-2.2-0.9s-0.8-1.3-0.8-2.2V20c0-0.9,0.3-1.7,0.8-2.3s1.2-0.9,2.1-0.9
			c0.9,0,1.5,0.3,2,0.8s0.7,1.2,0.7,2.1v0.9h-3.8l0,0c0,0.4,0.2,0.8,0.4,1s0.6,0.4,1,0.4c0.4,0,0.7,0,0.9-0.1s0.5-0.2,0.8-0.4
			l0.5,1.1c-0.3,0.2-0.6,0.4-1,0.5S97.8,23.3,97.3,23.3z M97.2,18c-0.3,0-0.6,0.1-0.8,0.4s-0.3,0.6-0.3,1l0,0h2.1v-0.2
			c0-0.4-0.1-0.7-0.3-0.9S97.5,18,97.2,18z"/>
		<path class="st4" d="M104.8,22.4c-0.2,0.3-0.4,0.5-0.7,0.7s-0.6,0.2-0.9,0.2c-0.8,0-1.4-0.3-1.8-0.9s-0.6-1.3-0.6-2.3v-0.1
			c0-1,0.2-1.8,0.7-2.4s1-0.9,1.8-0.9c0.3,0,0.6,0.1,0.9,0.2s0.5,0.3,0.7,0.6v-2.3l-0.9-0.2v-1h0.9h1.7V22l0.8,0.2v1h-2.3
			L104.8,22.4z M102.4,20.2c0,0.6,0.1,1,0.3,1.3s0.5,0.5,0.9,0.5c0.3,0,0.5-0.1,0.7-0.2s0.3-0.2,0.5-0.4v-2.7
			c-0.1-0.2-0.3-0.4-0.4-0.5s-0.4-0.2-0.6-0.2c-0.4,0-0.7,0.2-0.9,0.6s-0.3,0.9-0.3,1.5V20.2z"/>
		<path class="st4" d="M110.7,15.7v-1h3.5v1l-0.9,0.2v2.5h3.5v-2.5l-0.9-0.2v-1h0.9h1.7h0.9v1l-0.9,0.2V22l0.9,0.2v1h-3.5v-1
			l0.9-0.2v-2.3h-3.5V22l0.9,0.2v1h-3.5v-1l0.9-0.2v-6.1L110.7,15.7z"/>
		<path class="st4" d="M120.1,20c0-0.9,0.3-1.7,0.8-2.3s1.3-0.9,2.2-0.9c0.9,0,1.7,0.3,2.2,0.9s0.8,1.4,0.8,2.3v0.1
			c0,1-0.3,1.7-0.8,2.3s-1.3,0.9-2.2,0.9c-0.9,0-1.7-0.3-2.2-0.9s-0.8-1.4-0.8-2.3V20z M121.8,20.1c0,0.6,0.1,1,0.3,1.4
			s0.5,0.5,1,0.5c0.4,0,0.8-0.2,1-0.5s0.3-0.8,0.3-1.4V20c0-0.6-0.1-1-0.3-1.4s-0.5-0.5-1-0.5s-0.8,0.2-1,0.5s-0.3,0.8-0.3,1.4V20.1
			z"/>
		<path class="st4" d="M132,19h-1.1l-0.2-0.8c-0.1-0.1-0.3-0.2-0.4-0.2s-0.4-0.1-0.6-0.1c-0.3,0-0.5,0.1-0.7,0.2s-0.3,0.3-0.3,0.5
			c0,0.2,0.1,0.4,0.3,0.5s0.5,0.2,1,0.3c0.8,0.2,1.4,0.4,1.7,0.7s0.6,0.7,0.6,1.3c0,0.6-0.2,1-0.7,1.4s-1.1,0.5-1.9,0.5
			c-0.5,0-0.9-0.1-1.3-0.2s-0.8-0.3-1.1-0.6l0-1.4h1.2l0.2,0.8c0.1,0.1,0.2,0.1,0.4,0.2s0.4,0.1,0.6,0.1c0.3,0,0.6-0.1,0.8-0.2
			s0.3-0.3,0.3-0.5c0-0.2-0.1-0.3-0.3-0.5s-0.5-0.3-1-0.4c-0.7-0.2-1.3-0.4-1.7-0.7s-0.6-0.7-0.6-1.2c0-0.5,0.2-1,0.7-1.4
			s1.1-0.6,1.9-0.6c0.5,0,1,0.1,1.4,0.2s0.8,0.3,1,0.5L132,19z"/>
		<path class="st4" d="M135.5,15.3v1.6h1.1V18h-1.1v3.2c0,0.2,0.1,0.4,0.2,0.5s0.2,0.2,0.4,0.2c0.1,0,0.2,0,0.3,0s0.2,0,0.3,0
			l0.1,1.2c-0.2,0.1-0.4,0.1-0.6,0.1s-0.4,0-0.6,0c-0.6,0-1-0.2-1.4-0.5s-0.5-0.8-0.5-1.5V18h-0.9v-1.2h0.9v-1.6H135.5z"/>
		<path class="st4" d="M141.2,23.9h-1.3l3.1-9.3h1.3L141.2,23.9z"/>
		<path class="st4" d="M150.7,15.7l-0.7,0.1l1.5,5.1l0.1,0.5h0l0.1-0.5l1.5-5.1l-0.6-0.1v-1h3.1v1l-0.7,0.1l-2.5,7.4h-1.8l-2.5-7.4
			l-0.7-0.1v-1h3.1V15.7z"/>
		<path class="st4" d="M164.5,16.9L164.5,16.9l-2.3,6.3h-1.1l-2.3-6.3l0,0l0.2,3.7V22l0.9,0.2v1h-3.5v-1l0.9-0.2v-6.1l-0.9-0.2v-1
			h0.9h2.2l2.2,6.3h0l2.2-6.3h3.2v1l-0.9,0.2V22l0.9,0.2v1h-3.5v-1l0.9-0.2v-1.3L164.5,16.9z"/>
		<path class="st4" d="M168.4,23.9h-1.3l3.1-9.3h1.3L168.4,23.9z"/>
		<path class="st4" d="M181.9,17.5h-1.3l-0.2-1.1c-0.2-0.2-0.4-0.3-0.6-0.4s-0.6-0.1-0.9-0.1c-0.7,0-1.3,0.3-1.7,0.8
			s-0.6,1.2-0.6,2.1v0.3c0,0.9,0.2,1.6,0.6,2.1s1,0.8,1.7,0.8c0.3,0,0.6,0,0.9-0.1s0.5-0.2,0.6-0.4l0.2-1.1h1.3V22
			c-0.3,0.4-0.8,0.7-1.3,1s-1.1,0.4-1.8,0.4c-1.1,0-2.1-0.4-2.8-1.2s-1.1-1.8-1.1-3.1v-0.3c0-1.2,0.4-2.3,1.1-3.1s1.7-1.2,2.8-1.2
			c0.7,0,1.3,0.1,1.8,0.4s1,0.6,1.3,1V17.5z"/>
		<path class="st4" d="M182.8,20c0-0.9,0.3-1.7,0.8-2.3s1.3-0.9,2.2-0.9c0.9,0,1.7,0.3,2.2,0.9s0.8,1.4,0.8,2.3v0.1
			c0,1-0.3,1.7-0.8,2.3s-1.3,0.9-2.2,0.9c-0.9,0-1.7-0.3-2.2-0.9s-0.8-1.4-0.8-2.3V20z M184.5,20.1c0,0.6,0.1,1,0.3,1.4
			s0.5,0.5,1,0.5c0.4,0,0.8-0.2,1-0.5s0.3-0.8,0.3-1.4V20c0-0.6-0.1-1-0.3-1.4s-0.5-0.5-1-0.5s-0.8,0.2-1,0.5s-0.3,0.8-0.3,1.4V20.1
			z"/>
		<path class="st4" d="M189.4,22.2l0.8-0.2V18l-0.9-0.2v-1h2.5l0.1,0.9c0.2-0.3,0.5-0.6,0.8-0.8s0.7-0.3,1-0.3
			c0.6,0,1.1,0.2,1.5,0.6s0.5,1,0.5,1.9V22l0.8,0.2v1h-3.3v-1L194,22v-2.8c0-0.4-0.1-0.7-0.3-0.9s-0.4-0.3-0.8-0.3
			c-0.2,0-0.4,0-0.6,0.1s-0.3,0.2-0.5,0.4V22l0.7,0.2v1h-3.2V22.2z"/>
		<path class="st4" d="M199.6,15.3v1.6h1.1V18h-1.1v3.2c0,0.2,0.1,0.4,0.2,0.5s0.2,0.2,0.4,0.2c0.1,0,0.2,0,0.3,0s0.2,0,0.3,0
			l0.1,1.2c-0.2,0.1-0.4,0.1-0.6,0.1s-0.4,0-0.6,0c-0.6,0-1-0.2-1.4-0.5s-0.5-0.8-0.5-1.5V18H197v-1.2h0.9v-1.6H199.6z"/>
		<path class="st4" d="M205.6,23.2c0-0.1-0.1-0.2-0.1-0.3s-0.1-0.2-0.1-0.3c-0.2,0.2-0.5,0.4-0.7,0.6s-0.6,0.2-1,0.2
			c-0.6,0-1.1-0.2-1.5-0.5s-0.5-0.8-0.5-1.4c0-0.6,0.2-1.1,0.7-1.4s1.2-0.5,2.1-0.5h0.9v-0.6c0-0.3-0.1-0.5-0.3-0.7
			s-0.4-0.3-0.8-0.3c-0.2,0-0.4,0-0.5,0.1s-0.3,0.1-0.4,0.2l-0.1,0.7H202l0-1.4c0.3-0.2,0.7-0.4,1.1-0.5s0.8-0.2,1.3-0.2
			c0.8,0,1.4,0.2,1.9,0.6s0.7,0.9,0.7,1.6v2.6c0,0.1,0,0.2,0,0.3s0,0.2,0,0.2l0.5,0.1v1H205.6z M204.1,22c0.3,0,0.5-0.1,0.7-0.2
			s0.4-0.3,0.5-0.4v-1h-0.9c-0.4,0-0.6,0.1-0.8,0.3s-0.3,0.4-0.3,0.6c0,0.2,0.1,0.4,0.2,0.5S203.9,22,204.1,22z"/>
		<path class="st4" d="M208.1,22.2l0.8-0.2V18l-0.9-0.2v-1h2.6V22l0.8,0.2v1h-3.4V22.2z M210.6,15.3h-1.7V14h1.7V15.3z"/>
	</g>
	<g class="st3">
		<path class="st4" d="M211.9,22.2l0.8-0.2V18l-0.9-0.2v-1h2.5l0.1,0.9c0.2-0.3,0.5-0.6,0.8-0.8s0.7-0.3,1-0.3
			c0.6,0,1.1,0.2,1.5,0.6s0.5,1,0.5,1.9V22l0.8,0.2v1h-3.3v-1l0.7-0.2v-2.8c0-0.4-0.1-0.7-0.3-0.9s-0.4-0.3-0.8-0.3
			c-0.2,0-0.4,0-0.6,0.1s-0.3,0.2-0.5,0.4V22l0.7,0.2v1h-3.2V22.2z"/>
	</g>
	<g class="st3">
		<path class="st4" d="M222.6,23.3c-0.9,0-1.6-0.3-2.2-0.9s-0.8-1.3-0.8-2.2V20c0-0.9,0.3-1.7,0.8-2.3s1.2-0.9,2.1-0.9
			c0.9,0,1.5,0.3,2,0.8s0.7,1.2,0.7,2.1v0.9h-3.8l0,0c0,0.4,0.2,0.8,0.4,1s0.6,0.4,1,0.4c0.4,0,0.7,0,0.9-0.1s0.5-0.2,0.8-0.4
			l0.5,1.1c-0.3,0.2-0.6,0.4-1,0.5S223.1,23.3,222.6,23.3z M222.5,18c-0.3,0-0.6,0.1-0.8,0.4s-0.3,0.6-0.3,1l0,0h2.1v-0.2
			c0-0.4-0.1-0.7-0.3-0.9S222.8,18,222.5,18z"/>
		<path class="st4" d="M226.1,22.2l0.8-0.2V18l-0.9-0.2v-1h2.5l0.1,0.9c0.1-0.3,0.3-0.6,0.6-0.8s0.5-0.3,0.8-0.3c0.1,0,0.2,0,0.3,0
			s0.2,0,0.2,0l-0.2,1.6l-0.7,0c-0.3,0-0.5,0-0.6,0.1s-0.3,0.2-0.4,0.4V22l0.8,0.2v1h-3.4V22.2z"/>
	</g>
	<path class="st5" d="M35.4,22h-4.2c-0.6,0-0.8-0.2-0.8-0.8v-6.5c0-0.6,0.2-0.8,0.8-0.8h8.4c0.5,0,0.8,0.2,0.8,0.8v6.5
		c0,0.5-0.2,0.8-0.8,0.8C38.2,22,36.8,22,35.4,22z"/>
	<path class="st5" d="M34,5.8c1.6-0.7,3.5-0.5,4.8,0.7c1.7,1.6,1.9,4.2,0.3,5.9c-0.2,0.2-0.3,0.3-0.5,0.5c-0.3,0.2-0.7,0.4-1,0.7"/>
	<path class="st6" d="M34.7,19.2L34.7,19.2v0.9c0,0.2,0.1,0.2,0.3,0.2h0.8c0.2,0,0.3-0.1,0.3-0.3v-1.6c0-0.2,0.1-0.3,0.2-0.4
		c0.5-0.3,0.8-0.9,0.6-1.5c-0.2-0.6-0.8-1-1.4-1c-0.7-0.1-1.3,0.3-1.6,0.9c-0.2,0.6,0,1.2,0.5,1.5c0.2,0.1,0.3,0.3,0.3,0.5
		C34.7,18.8,34.7,19,34.7,19.2z"/>
	
		<linearGradient id="SVGID_2_" gradientUnits="userSpaceOnUse" x1="62.32" y1="94.745" x2="234.11" y2="94.745" gradientTransform="matrix(1 0 0 -1 0 226)">
		<stop  offset="0" style="stop-color:#990066"/>
		<stop  offset="0.19" style="stop-color:#780066"/>
		<stop  offset="0.4" style="stop-color:#5A0066"/>
		<stop  offset="0.61" style="stop-color:#440066"/>
		<stop  offset="0.81" style="stop-color:#370066"/>
		<stop  offset="1" style="stop-color:#330066"/>
	</linearGradient>
	<path class="st7" d="M67.3,70.7h161.8c2.8,0,5,2.2,5,5v111.1c0,2.8-2.2,5-5,5H67.3c-2.8,0-5-2.2-5-5V75.7
		C62.3,72.9,64.6,70.7,67.3,70.7z"/>
	<path class="st8" d="M85.1,139.8h125.7c2.8,0,5,2.2,5,5V162c0,2.8-2.2,5-5,5H85.1c-2.8,0-5-2.2-5-5v-17.2
		C80.1,142.1,82.3,139.8,85.1,139.8z"/>
	<g id="Scone_logo_white">
		<g>
			<defs>
				<rect id="SVGID_3_" x="130" y="174.7" width="36.3" height="7.1"/>
			</defs>
			<clipPath id="SVGID_4_">
				<use xlink:href="#SVGID_3_"  style="overflow:visible;"/>
			</clipPath>
			<g class="st9">
				<g>
					<defs>
						<rect id="SVGID_5_" x="130" y="174.7" width="36.3" height="7.1"/>
					</defs>
					<clipPath id="SVGID_6_">
						<use xlink:href="#SVGID_5_"  style="overflow:visible;"/>
					</clipPath>
					<g class="st10">
						<path class="st11" d="M134.9,176.5h-0.8c-0.2,0-0.3,0.1-0.3,0.3v0.8c0,0.2,0.1,0.3,0.3,0.3h0.8c0.2,0,0.3-0.1,0.3-0.3v-0.8
							C135.1,176.6,135,176.5,134.9,176.5 M132.2,177.9h0.8c0.2,0,0.3-0.1,0.3-0.3v-0.8c0-0.2-0.1-0.3-0.3-0.3h-0.8
							c-0.2,0-0.3,0.1-0.3,0.3v0.8C131.9,177.7,132.1,177.9,132.2,177.9 M131.4,177.6v-0.8c0-0.2-0.1-0.3-0.3-0.3c0,0,0,0,0,0h-0.8
							c-0.2,0-0.3,0.1-0.3,0.3v0.8c0,0.2,0.1,0.3,0.3,0.3h0.8C131.3,177.9,131.4,177.8,131.4,177.6
							C131.4,177.6,131.4,177.6,131.4,177.6 M134.9,178.4c-0.1,0-0.2,0.1-0.2,0.2v0.9c0,0.1,0.1,0.2,0.2,0.2c0.1,0,0.2-0.1,0.2-0.2
							l0,0v-0.9C135.2,178.5,135.1,178.4,134.9,178.4C135,178.4,135,178.4,134.9,178.4 M132.9,178.7v0.8c0,0.2,0.1,0.3,0.3,0.3h0.8
							c0.2,0,0.3-0.1,0.3-0.3v-0.8c0-0.2-0.1-0.3-0.3-0.3c0,0,0,0,0,0h-0.8C133,178.4,132.8,178.5,132.9,178.7
							C132.8,178.7,132.8,178.7,132.9,178.7 M132.3,179.5v-0.8c0-0.2-0.1-0.3-0.3-0.3c0,0,0,0,0,0h-0.8c-0.2,0-0.3,0.1-0.3,0.3l0,0
							v0.8c0,0.2,0.1,0.3,0.3,0.3h0.7C132.2,179.8,132.3,179.6,132.3,179.5 M134.9,180.3h-0.8c-0.2,0-0.3,0.1-0.3,0.3v0.8
							c0,0.2,0.1,0.3,0.3,0.3h0.8c0.2,0,0.3-0.1,0.3-0.3v-0.8C135.2,180.4,135,180.3,134.9,180.3 M132.9,180.3h-0.8
							c-0.2,0-0.3,0.1-0.3,0.3v0.8c0,0.2,0.1,0.3,0.3,0.3h0.8c0.2,0,0.3-0.1,0.3-0.3v-0.8C133.2,180.4,133,180.3,132.9,180.3"/>
						<path class="st11" d="M135.8,176.2c0.3,0.3,0.8,0.4,1.2,0.4c0,0,0,0,0,0.1v2.1c0,0.8-1,1.3-1.2,1.4l0,0L135.8,176.2
							L135.8,176.2"/>
						<path class="st11" d="M133.5,176.1c1.6-0.1,1.9-0.6,1.9-0.6c0,0,0,0,0.1-0.1c0,0,0,0,0.1,0s0.3,0.6,1.9,0.6c0,0,0.1,0,0.1,0.1
							v2.8c0,0.9-1.7,1.9-1.7,1.9l-0.1,0.1v0.7c0,0,0.1,0,0.1,0c0.6-0.3,2.3-1.3,2.3-2.5v-3.5c0-0.1-0.1-0.1-0.2-0.1
							c-2.1,0-2.4-0.8-2.4-0.8s-0.1,0-0.1,0s-0.1,0-0.1,0s-0.3,0.8-2.4,0.8c-0.1,0-0.1,0-0.1,0.1v0.5c0,0,0,0.1,0.1,0.1H133.5"/>
						<path class="st12" d="M139.7,180.6l0.8-0.3c0.2,0.4,0.6,0.6,1.1,0.6c0.2,0,0.4,0,0.6-0.1c0.2-0.1,0.3-0.3,0.3-0.4
							c0-0.4-0.6-0.7-1-0.9l0,0c-0.3-0.1-0.7-0.3-0.9-0.5c-0.3-0.2-0.5-0.6-0.5-1c0-0.4,0.2-0.8,0.5-1c0.3-0.3,0.8-0.4,1.2-0.4
							c0.7,0,1.3,0.3,1.6,0.9l-0.9,0.3c-0.1-0.1-0.2-0.2-0.3-0.3c-0.1-0.1-0.3-0.1-0.5-0.1c-0.5,0-0.8,0.3-0.8,0.6
							c0,0.2,0.1,0.4,0.3,0.5c0.2,0.2,0.5,0.3,0.7,0.4l0.1,0.1c0.6,0.3,1.4,0.6,1.4,1.4c0,0.4-0.2,0.8-0.6,1
							c-0.4,0.3-0.9,0.4-1.3,0.4C140.8,181.7,140.1,181.3,139.7,180.6"/>
						<path class="st12" d="M146.9,181.7c-0.3,0-0.7-0.1-1-0.2c-0.6-0.3-1.1-0.8-1.4-1.4c-0.3-0.6-0.3-1.4,0-2
							c0.1-0.3,0.3-0.6,0.6-0.8c0.2-0.2,0.5-0.4,0.8-0.6c0.7-0.3,1.5-0.3,2.2,0.1c0.3,0.2,0.7,0.4,0.9,0.7l-0.7,0.5
							c-0.2-0.2-0.4-0.4-0.6-0.5c-0.2-0.1-0.5-0.2-0.8-0.2c-1,0-1.7,0.8-1.7,1.7c0,0.5,0.2,0.9,0.5,1.2c0.3,0.3,0.8,0.5,1.2,0.5
							c0.6,0,1.2-0.3,1.5-0.9l0.8,0.4c-0.2,0.4-0.5,0.8-0.9,1C147.8,181.6,147.4,181.8,146.9,181.7"/>
						<path class="st12" d="M152.6,181.7c-0.3,0-0.7-0.1-1-0.2c-0.3-0.1-0.6-0.3-0.8-0.6c-0.2-0.2-0.4-0.5-0.6-0.8
							c-0.1-0.3-0.2-0.7-0.2-1c0-0.3,0.1-0.7,0.2-1c0.1-0.3,0.3-0.6,0.6-0.8c0.5-0.5,1.1-0.8,1.8-0.8c0.3,0,0.7,0.1,1,0.2
							c0.3,0.1,0.6,0.3,0.8,0.6c0.2,0.2,0.4,0.5,0.6,0.8c0.1,0.3,0.2,0.7,0.2,1c0,0.3-0.1,0.7-0.2,1c-0.1,0.3-0.3,0.6-0.6,0.8
							c-0.2,0.2-0.5,0.4-0.8,0.6C153.3,181.6,152.9,181.7,152.6,181.7 M152.6,177.4c-0.5,0-0.9,0.2-1.2,0.5
							c-0.3,0.3-0.5,0.8-0.5,1.2c0,1,0.8,1.7,1.7,1.7c0,0,0,0,0,0c0.5,0,0.9-0.2,1.2-0.5c0.3-0.3,0.5-0.8,0.5-1.2
							c0-0.5-0.2-0.9-0.5-1.2C153.5,177.5,153.1,177.4,152.6,177.4"/>
						<polygon class="st12" points="161.1,176.6 161.1,181.8 157.4,178.5 157.4,181.6 156.5,181.6 156.5,176.4 160.1,179.7 
							160.1,176.6 						"/>
						<polygon class="st12" points="163.5,177.3 163.5,178.7 166.1,178.7 166.1,179.5 163.5,179.5 163.5,180.8 166.4,180.8 
							166.4,181.6 162.6,181.6 162.6,176.6 166.4,176.6 166.4,177.3 163.5,177.3 						"/>
					</g>
				</g>
			</g>
		</g>
	</g>
	<g class="st3">
		<path class="st13" d="M97,95.5v-1.1h3.6v1.1l-0.9,0.2v6.2l0.9,0.2v1H97v-1l0.9-0.2v-6.2L97,95.5z"/>
		<path class="st13" d="M101.2,102.1l0.8-0.2v-4l-0.9-0.2v-1.1h2.6l0.1,0.9c0.2-0.3,0.5-0.6,0.8-0.8c0.3-0.2,0.7-0.3,1.1-0.3
			c0.7,0,1.2,0.2,1.5,0.6s0.5,1.1,0.5,1.9v2.8l0.8,0.2v1h-3.3v-1l0.7-0.2v-2.8c0-0.4-0.1-0.7-0.3-0.9c-0.2-0.2-0.4-0.3-0.8-0.3
			c-0.2,0-0.4,0-0.6,0.1c-0.2,0.1-0.3,0.2-0.5,0.4v3.5l0.7,0.2v1h-3.3V102.1z"/>
		<path class="st13" d="M111.7,95.1v1.6h1.1v1.2h-1.1v3.3c0,0.3,0.1,0.4,0.2,0.5s0.2,0.2,0.4,0.2c0.1,0,0.2,0,0.3,0
			c0.1,0,0.2,0,0.3-0.1l0.1,1.3c-0.2,0.1-0.4,0.1-0.6,0.1c-0.2,0-0.4,0-0.6,0c-0.6,0-1.1-0.2-1.4-0.5c-0.3-0.3-0.5-0.9-0.5-1.6v-3.3
			h-1v-1.2h1v-1.6H111.7z"/>
		<path class="st13" d="M116.7,103.3c-0.9,0-1.7-0.3-2.2-0.9c-0.6-0.6-0.8-1.4-0.8-2.3v-0.2c0-1,0.3-1.8,0.8-2.4
			c0.5-0.6,1.2-0.9,2.1-0.9c0.9,0,1.5,0.3,2,0.8c0.5,0.5,0.7,1.2,0.7,2.1v1h-3.9l0,0c0,0.4,0.2,0.8,0.4,1.1c0.3,0.3,0.6,0.4,1,0.4
			c0.4,0,0.7,0,1-0.1c0.3-0.1,0.5-0.2,0.8-0.4l0.5,1.1c-0.3,0.2-0.6,0.4-1,0.5S117.3,103.3,116.7,103.3z M116.6,97.9
			c-0.3,0-0.6,0.1-0.8,0.4c-0.2,0.2-0.3,0.6-0.3,1l0,0h2.1v-0.2c0-0.4-0.1-0.7-0.3-0.9C117.2,98,116.9,97.9,116.6,97.9z"/>
		<path class="st13" d="M120,94.9v-1.1h2.7v8.1l0.8,0.2v1h-3.4v-1l0.8-0.2v-6.9L120,94.9z"/>
		<path class="st13" d="M133.6,97.2h-1.3l-0.2-1.2c-0.2-0.1-0.4-0.2-0.7-0.3c-0.3-0.1-0.6-0.1-0.9-0.1c-0.5,0-0.8,0.1-1.1,0.3
			c-0.3,0.2-0.4,0.5-0.4,0.8c0,0.3,0.1,0.5,0.4,0.7c0.3,0.2,0.7,0.4,1.4,0.6c1,0.3,1.7,0.6,2.2,1.1c0.5,0.4,0.7,1,0.7,1.7
			c0,0.7-0.3,1.3-0.9,1.8c-0.6,0.4-1.4,0.6-2.3,0.6c-0.7,0-1.3-0.1-1.9-0.3c-0.6-0.2-1-0.5-1.4-0.9v-1.8h1.4l0.2,1.2
			c0.2,0.1,0.4,0.3,0.7,0.4s0.6,0.1,1,0.1c0.5,0,0.8-0.1,1.1-0.3c0.2-0.2,0.4-0.5,0.4-0.8c0-0.3-0.1-0.6-0.4-0.8
			c-0.2-0.2-0.7-0.4-1.2-0.6c-1-0.3-1.8-0.7-2.3-1.1c-0.5-0.4-0.8-1-0.8-1.7c0-0.7,0.3-1.3,0.9-1.7s1.3-0.7,2.3-0.7
			c0.7,0,1.3,0.1,1.8,0.3s1,0.5,1.4,0.8V97.2z"/>
		<path class="st13" d="M141.7,102.2c-0.3,0.3-0.7,0.5-1.2,0.8c-0.5,0.2-1.2,0.3-2.1,0.3c-1.2,0-2.1-0.4-2.9-1.2
			c-0.7-0.8-1.1-1.8-1.1-3.1v-0.3c0-1.3,0.4-2.4,1.1-3.2c0.7-0.8,1.7-1.2,2.8-1.2c0.7,0,1.3,0.1,1.9,0.3c0.6,0.2,1,0.5,1.4,0.9v1.8
			h-1.3l-0.2-1.2c-0.2-0.1-0.4-0.2-0.6-0.3c-0.3-0.1-0.6-0.1-0.9-0.1c-0.8,0-1.4,0.3-1.8,0.8c-0.4,0.6-0.6,1.3-0.6,2.2V99
			c0,0.9,0.2,1.6,0.6,2.1c0.4,0.5,1,0.8,1.8,0.8c0.4,0,0.6,0,0.9-0.1s0.4-0.1,0.5-0.2v-1.5l-1.2-0.1v-1.2h3V102.2z"/>
		<path class="st13" d="M142.4,102.1l0.7-0.1l2.3-3.2l-2.2-3.1l-0.7-0.1v-1.1h3.3v1.1l-0.7,0.1l1.3,2.1l1.4-2.1l-0.7-0.1v-1.1h3.4
			v1.1l-0.7,0.1l-2.2,3.1l2.3,3.2l0.8,0.1v1h-3.4v-1l0.7-0.1l-1.4-2.2l-1.4,2.2l0.7,0.1v1h-3.4V102.1z"/>
		<path class="st13" d="M159.7,99.3h-2.9v2.5h2.8l0.1-1h1.3v2.4h-6.9v-1l0.9-0.2v-6.2l-0.9-0.2v-1.1h0.9h5.9v2.4h-1.3l-0.1-1h-2.8
			V98h2.9V99.3z"/>
	</g>
	<g class="st3">
		<path class="st13" d="M161.9,102.1l0.8-0.2v-4l-0.9-0.2v-1.1h2.6l0.1,0.9c0.2-0.3,0.5-0.6,0.8-0.8c0.3-0.2,0.7-0.3,1.1-0.3
			c0.7,0,1.2,0.2,1.5,0.6s0.5,1.1,0.5,1.9v2.8l0.8,0.2v1h-3.3v-1l0.7-0.2v-2.8c0-0.4-0.1-0.7-0.3-0.9c-0.2-0.2-0.4-0.3-0.8-0.3
			c-0.2,0-0.4,0-0.6,0.1c-0.2,0.1-0.3,0.2-0.5,0.4v3.5l0.7,0.2v1h-3.3V102.1z"/>
	</g>
	<g class="st3">
		<path class="st13" d="M172.8,101.9c0.3,0,0.6-0.1,0.7-0.3c0.2-0.2,0.3-0.4,0.3-0.7h1.6l0,0c0,0.7-0.2,1.2-0.7,1.6
			c-0.5,0.4-1.1,0.7-1.9,0.7c-1,0-1.7-0.3-2.2-0.9c-0.5-0.6-0.8-1.4-0.8-2.3v-0.2c0-1,0.3-1.7,0.8-2.3c0.5-0.6,1.3-0.9,2.3-0.9
			c0.5,0,1,0.1,1.4,0.2c0.4,0.2,0.8,0.4,1,0.7l0,1.7h-1.4l-0.3-1c-0.1-0.1-0.2-0.1-0.3-0.2s-0.3-0.1-0.4-0.1c-0.5,0-0.8,0.2-1,0.5
			c-0.2,0.4-0.3,0.8-0.3,1.4v0.2c0,0.6,0.1,1,0.3,1.4C172,101.8,172.3,101.9,172.8,101.9z"/>
		<path class="st13" d="M176,94.9v-1.1h2.7v8.1l0.8,0.2v1h-3.4v-1l0.8-0.2v-6.9L176,94.9z"/>
	</g>
	<g class="st3">
		<path class="st13" d="M184.2,103.1c0-0.1-0.1-0.2-0.1-0.3c0-0.1-0.1-0.2-0.1-0.3c-0.2,0.2-0.5,0.4-0.8,0.6s-0.6,0.2-1,0.2
			c-0.6,0-1.1-0.2-1.5-0.5s-0.6-0.8-0.6-1.4c0-0.6,0.2-1.1,0.7-1.4c0.5-0.3,1.2-0.5,2.1-0.5h0.9v-0.6c0-0.3-0.1-0.6-0.3-0.7
			c-0.2-0.2-0.4-0.3-0.8-0.3c-0.2,0-0.4,0-0.5,0.1c-0.2,0-0.3,0.1-0.4,0.2l-0.1,0.7h-1.3l0-1.4c0.3-0.2,0.7-0.4,1.1-0.5
			c0.4-0.1,0.9-0.2,1.3-0.2c0.8,0,1.5,0.2,2,0.6c0.5,0.4,0.8,1,0.8,1.7v2.7c0,0.1,0,0.2,0,0.3c0,0.1,0,0.2,0,0.3l0.5,0.1v1H184.2z
			 M182.7,102c0.3,0,0.5-0.1,0.7-0.2c0.2-0.1,0.4-0.3,0.5-0.4v-1H183c-0.4,0-0.7,0.1-0.8,0.3s-0.3,0.4-0.3,0.6
			c0,0.2,0.1,0.4,0.2,0.5C182.2,101.9,182.4,102,182.7,102z"/>
	</g>
	<g class="st3">
		<path class="st13" d="M189.4,97.7l-0.6,0.1l0.9,2.9l0.1,0.6h0l0.1-0.6l0.8-2.9l-0.6-0.1v-1.1h2.9v1.1l-0.6,0.1l-1.9,5.3H189
			l-1.9-5.3l-0.6-0.1v-1.1h2.9V97.7z"/>
	</g>
	<g class="st3">
		<path class="st13" d="M196.7,103.3c-0.9,0-1.7-0.3-2.2-0.9c-0.6-0.6-0.8-1.4-0.8-2.3v-0.2c0-1,0.3-1.8,0.8-2.4
			c0.5-0.6,1.2-0.9,2.1-0.9c0.9,0,1.5,0.3,2,0.8c0.5,0.5,0.7,1.2,0.7,2.1v1h-3.9l0,0c0,0.4,0.2,0.8,0.4,1.1c0.3,0.3,0.6,0.4,1,0.4
			c0.4,0,0.7,0,1-0.1c0.3-0.1,0.5-0.2,0.8-0.4l0.5,1.1c-0.3,0.2-0.6,0.4-1,0.5S197.2,103.3,196.7,103.3z M196.5,97.9
			c-0.3,0-0.6,0.1-0.8,0.4c-0.2,0.2-0.3,0.6-0.3,1l0,0h2.1v-0.2c0-0.4-0.1-0.7-0.3-0.9C197.2,98,196.9,97.9,196.5,97.9z"/>
	</g>
	<g class="st3">
		<path class="st4" d="M374.3,14.6v1l-0.9,0.2v4.5c0,0.6,0.2,1,0.5,1.3s0.7,0.4,1.2,0.4c0.5,0,1-0.1,1.3-0.4s0.5-0.7,0.5-1.3v-4.5
			l-0.9-0.2v-1h3.5v1l-0.9,0.2v4.5c0,1-0.3,1.7-0.9,2.2s-1.5,0.8-2.5,0.8c-1,0-1.8-0.3-2.5-0.8s-0.9-1.3-0.9-2.2v-4.5l-0.9-0.2v-1
			h0.9h1.7H374.3z"/>
		<path class="st4" d="M379.8,22.2l0.8-0.2V18l-0.9-0.2v-1h2.5l0.1,0.9c0.2-0.3,0.5-0.6,0.8-0.8s0.7-0.3,1-0.3
			c0.6,0,1.1,0.2,1.5,0.6s0.5,1,0.5,1.9V22l0.8,0.2v1h-3.3v-1l0.7-0.2v-2.8c0-0.4-0.1-0.7-0.3-0.9s-0.4-0.3-0.8-0.3
			c-0.2,0-0.4,0-0.6,0.1s-0.3,0.2-0.5,0.4V22l0.7,0.2v1h-3.2V22.2z"/>
		<path class="st4" d="M390.1,15.3v1.6h1.1V18h-1.1v3.2c0,0.2,0.1,0.4,0.2,0.5s0.2,0.2,0.4,0.2c0.1,0,0.2,0,0.3,0s0.2,0,0.3,0
			l0.1,1.2c-0.2,0.1-0.4,0.1-0.6,0.1s-0.4,0-0.6,0c-0.6,0-1-0.2-1.4-0.5s-0.5-0.8-0.5-1.5V18h-0.9v-1.2h0.9v-1.6H390.1z"/>
		<path class="st4" d="M392.1,22.2L393,22V18l-0.9-0.2v-1h2.5l0.1,0.9c0.1-0.3,0.3-0.6,0.6-0.8s0.5-0.3,0.8-0.3c0.1,0,0.2,0,0.3,0
			s0.2,0,0.2,0l-0.2,1.6l-0.7,0c-0.3,0-0.5,0-0.6,0.1s-0.3,0.2-0.4,0.4V22l0.8,0.2v1h-3.4V22.2z"/>
		<path class="st4" d="M401.5,22.4c-0.2,0.3-0.5,0.5-0.8,0.7s-0.6,0.2-1,0.2c-0.7,0-1.2-0.2-1.6-0.6s-0.6-1.1-0.6-2V18l-0.7-0.2v-1
			h0.7h1.7v3.8c0,0.5,0.1,0.8,0.2,1s0.4,0.3,0.7,0.3c0.3,0,0.5,0,0.7-0.1s0.4-0.2,0.5-0.4V18l-0.8-0.2v-1h0.8h1.7V22l0.8,0.2v1h-2.3
			L401.5,22.4z"/>
		<path class="st4" d="M409.7,19h-1.1l-0.2-0.8c-0.1-0.1-0.3-0.2-0.4-0.2s-0.4-0.1-0.6-0.1c-0.3,0-0.5,0.1-0.7,0.2s-0.3,0.3-0.3,0.5
			c0,0.2,0.1,0.4,0.3,0.5s0.5,0.2,1,0.3c0.8,0.2,1.4,0.4,1.7,0.7s0.6,0.7,0.6,1.3c0,0.6-0.2,1-0.7,1.4s-1.1,0.5-1.9,0.5
			c-0.5,0-0.9-0.1-1.3-0.2s-0.8-0.3-1.1-0.6l0-1.4h1.2l0.2,0.8c0.1,0.1,0.2,0.1,0.4,0.2s0.4,0.1,0.6,0.1c0.3,0,0.6-0.1,0.8-0.2
			s0.3-0.3,0.3-0.5c0-0.2-0.1-0.3-0.3-0.5s-0.5-0.3-1-0.4c-0.7-0.2-1.3-0.4-1.7-0.7s-0.6-0.7-0.6-1.2c0-0.5,0.2-1,0.7-1.4
			s1.1-0.6,1.9-0.6c0.5,0,1,0.1,1.4,0.2s0.8,0.3,1,0.5L409.7,19z"/>
		<path class="st4" d="M413.3,15.3v1.6h1.1V18h-1.1v3.2c0,0.2,0.1,0.4,0.2,0.5s0.2,0.2,0.4,0.2c0.1,0,0.2,0,0.3,0s0.2,0,0.3,0
			l0.1,1.2c-0.2,0.1-0.4,0.1-0.6,0.1s-0.4,0-0.6,0c-0.6,0-1-0.2-1.4-0.5s-0.5-0.8-0.5-1.5V18h-0.9v-1.2h0.9v-1.6H413.3z"/>
		<path class="st4" d="M418.2,23.3c-0.9,0-1.6-0.3-2.2-0.9s-0.8-1.3-0.8-2.2V20c0-0.9,0.3-1.7,0.8-2.3s1.2-0.9,2.1-0.9
			c0.9,0,1.5,0.3,2,0.8s0.7,1.2,0.7,2.1v0.9H417l0,0c0,0.4,0.2,0.8,0.4,1s0.6,0.4,1,0.4c0.4,0,0.7,0,0.9-0.1s0.5-0.2,0.8-0.4
			l0.5,1.1c-0.3,0.2-0.6,0.4-1,0.5S418.8,23.3,418.2,23.3z M418.1,18c-0.3,0-0.6,0.1-0.8,0.4s-0.3,0.6-0.3,1l0,0h2.1v-0.2
			c0-0.4-0.1-0.7-0.3-0.9S418.4,18,418.1,18z"/>
		<path class="st4" d="M425.7,22.4c-0.2,0.3-0.4,0.5-0.7,0.7s-0.6,0.2-0.9,0.2c-0.8,0-1.4-0.3-1.8-0.9s-0.6-1.3-0.6-2.3v-0.1
			c0-1,0.2-1.8,0.7-2.4s1-0.9,1.8-0.9c0.3,0,0.6,0.1,0.9,0.2s0.5,0.3,0.7,0.6v-2.3l-0.9-0.2v-1h0.9h1.7V22l0.8,0.2v1h-2.3
			L425.7,22.4z M423.3,20.2c0,0.6,0.1,1,0.3,1.3s0.5,0.5,0.9,0.5c0.3,0,0.5-0.1,0.7-0.2s0.3-0.2,0.5-0.4v-2.7
			c-0.1-0.2-0.3-0.4-0.4-0.5s-0.4-0.2-0.6-0.2c-0.4,0-0.7,0.2-0.9,0.6s-0.3,0.9-0.3,1.5V20.2z"/>
		<path class="st4" d="M431.6,15.7v-1h3.5v1l-0.9,0.2v2.5h3.5v-2.5l-0.9-0.2v-1h0.9h1.7h0.9v1l-0.9,0.2V22l0.9,0.2v1h-3.5v-1
			l0.9-0.2v-2.3h-3.5V22l0.9,0.2v1h-3.5v-1l0.9-0.2v-6.1L431.6,15.7z"/>
		<path class="st4" d="M441,20c0-0.9,0.3-1.7,0.8-2.3s1.3-0.9,2.2-0.9c0.9,0,1.7,0.3,2.2,0.9S447,19,447,20v0.1c0,1-0.3,1.7-0.8,2.3
			s-1.3,0.9-2.2,0.9c-0.9,0-1.7-0.3-2.2-0.9S441,21,441,20.1V20z M442.7,20.1c0,0.6,0.1,1,0.3,1.4s0.5,0.5,1,0.5
			c0.4,0,0.8-0.2,1-0.5s0.3-0.8,0.3-1.4V20c0-0.6-0.1-1-0.3-1.4s-0.5-0.5-1-0.5s-0.8,0.2-1,0.5s-0.3,0.8-0.3,1.4V20.1z"/>
		<path class="st4" d="M452.9,19h-1.1l-0.2-0.8c-0.1-0.1-0.3-0.2-0.4-0.2s-0.4-0.1-0.6-0.1c-0.3,0-0.5,0.1-0.7,0.2s-0.3,0.3-0.3,0.5
			c0,0.2,0.1,0.4,0.3,0.5s0.5,0.2,1,0.3c0.8,0.2,1.4,0.4,1.7,0.7s0.6,0.7,0.6,1.3c0,0.6-0.2,1-0.7,1.4s-1.1,0.5-1.9,0.5
			c-0.5,0-0.9-0.1-1.3-0.2s-0.8-0.3-1.1-0.6l0-1.4h1.2l0.2,0.8c0.1,0.1,0.2,0.1,0.4,0.2s0.4,0.1,0.6,0.1c0.3,0,0.6-0.1,0.8-0.2
			s0.3-0.3,0.3-0.5c0-0.2-0.1-0.3-0.3-0.5s-0.5-0.3-1-0.4c-0.7-0.2-1.3-0.4-1.7-0.7s-0.6-0.7-0.6-1.2c0-0.5,0.2-1,0.7-1.4
			s1.1-0.6,1.9-0.6c0.5,0,1,0.1,1.4,0.2s0.8,0.3,1,0.5L452.9,19z"/>
		<path class="st4" d="M456.5,15.3v1.6h1.1V18h-1.1v3.2c0,0.2,0.1,0.4,0.2,0.5s0.2,0.2,0.4,0.2c0.1,0,0.2,0,0.3,0s0.2,0,0.3,0
			l0.1,1.2c-0.2,0.1-0.4,0.1-0.6,0.1s-0.4,0-0.6,0c-0.6,0-1-0.2-1.4-0.5s-0.5-0.8-0.5-1.5V18h-0.9v-1.2h0.9v-1.6H456.5z"/>
		<path class="st4" d="M462.1,23.9h-1.3l3.1-9.3h1.3L462.1,23.9z"/>
		<path class="st4" d="M471.6,15.7l-0.7,0.1l1.5,5.1l0.1,0.5h0l0.1-0.5l1.5-5.1l-0.6-0.1v-1h3.1v1l-0.7,0.1l-2.5,7.4h-1.8l-2.5-7.4
			l-0.7-0.1v-1h3.1V15.7z"/>
		<path class="st4" d="M485.5,16.9L485.5,16.9l-2.3,6.3H482l-2.3-6.3l0,0l0.2,3.7V22l0.9,0.2v1h-3.5v-1l0.9-0.2v-6.1l-0.9-0.2v-1
			h0.9h2.2l2.2,6.3h0l2.2-6.3h3.2v1l-0.9,0.2V22l0.9,0.2v1h-3.5v-1l0.9-0.2v-1.3L485.5,16.9z"/>
		<path class="st4" d="M489.3,23.9h-1.3l3.1-9.3h1.3L489.3,23.9z"/>
		<path class="st4" d="M502.8,17.5h-1.3l-0.2-1.1c-0.2-0.2-0.4-0.3-0.6-0.4s-0.6-0.1-0.9-0.1c-0.7,0-1.3,0.3-1.7,0.8
			s-0.6,1.2-0.6,2.1v0.3c0,0.9,0.2,1.6,0.6,2.1s1,0.8,1.7,0.8c0.3,0,0.6,0,0.9-0.1s0.5-0.2,0.6-0.4l0.2-1.1h1.3V22
			c-0.3,0.4-0.8,0.7-1.3,1s-1.1,0.4-1.8,0.4c-1.1,0-2.1-0.4-2.8-1.2s-1.1-1.8-1.1-3.1v-0.3c0-1.2,0.4-2.3,1.1-3.1s1.7-1.2,2.8-1.2
			c0.7,0,1.3,0.1,1.8,0.4s1,0.6,1.3,1V17.5z"/>
		<path class="st4" d="M503.7,20c0-0.9,0.3-1.7,0.8-2.3s1.3-0.9,2.2-0.9c0.9,0,1.7,0.3,2.2,0.9s0.8,1.4,0.8,2.3v0.1
			c0,1-0.3,1.7-0.8,2.3s-1.3,0.9-2.2,0.9c-0.9,0-1.7-0.3-2.2-0.9s-0.8-1.4-0.8-2.3V20z M505.4,20.1c0,0.6,0.1,1,0.3,1.4
			s0.5,0.5,1,0.5c0.4,0,0.8-0.2,1-0.5s0.3-0.8,0.3-1.4V20c0-0.6-0.1-1-0.3-1.4s-0.5-0.5-1-0.5s-0.8,0.2-1,0.5s-0.3,0.8-0.3,1.4V20.1
			z"/>
		<path class="st4" d="M510.3,22.2l0.8-0.2V18l-0.9-0.2v-1h2.5l0.1,0.9c0.2-0.3,0.5-0.6,0.8-0.8s0.7-0.3,1-0.3
			c0.6,0,1.1,0.2,1.5,0.6s0.5,1,0.5,1.9V22l0.8,0.2v1h-3.3v-1l0.7-0.2v-2.8c0-0.4-0.1-0.7-0.3-0.9s-0.4-0.3-0.8-0.3
			c-0.2,0-0.4,0-0.6,0.1s-0.3,0.2-0.5,0.4V22l0.7,0.2v1h-3.2V22.2z"/>
		<path class="st4" d="M520.5,15.3v1.6h1.1V18h-1.1v3.2c0,0.2,0.1,0.4,0.2,0.5s0.2,0.2,0.4,0.2c0.1,0,0.2,0,0.3,0s0.2,0,0.3,0
			l0.1,1.2c-0.2,0.1-0.4,0.1-0.6,0.1s-0.4,0-0.6,0c-0.6,0-1-0.2-1.4-0.5s-0.5-0.8-0.5-1.5V18h-0.9v-1.2h0.9v-1.6H520.5z"/>
		<path class="st4" d="M526.5,23.2c0-0.1-0.1-0.2-0.1-0.3s-0.1-0.2-0.1-0.3c-0.2,0.2-0.5,0.4-0.7,0.6s-0.6,0.2-1,0.2
			c-0.6,0-1.1-0.2-1.5-0.5s-0.5-0.8-0.5-1.4c0-0.6,0.2-1.1,0.7-1.4s1.2-0.5,2.1-0.5h0.9v-0.6c0-0.3-0.1-0.5-0.3-0.7
			s-0.4-0.3-0.8-0.3c-0.2,0-0.4,0-0.5,0.1s-0.3,0.1-0.4,0.2l-0.1,0.7h-1.3l0-1.4c0.3-0.2,0.7-0.4,1.1-0.5s0.8-0.2,1.3-0.2
			c0.8,0,1.4,0.2,1.9,0.6s0.7,0.9,0.7,1.6v2.6c0,0.1,0,0.2,0,0.3s0,0.2,0,0.2l0.5,0.1v1H526.5z M525,22c0.3,0,0.5-0.1,0.7-0.2
			s0.4-0.3,0.5-0.4v-1h-0.9c-0.4,0-0.6,0.1-0.8,0.3s-0.3,0.4-0.3,0.6c0,0.2,0.1,0.4,0.2,0.5S524.8,22,525,22z"/>
		<path class="st4" d="M529,22.2l0.8-0.2V18l-0.9-0.2v-1h2.6V22l0.8,0.2v1H529V22.2z M531.6,15.3h-1.7V14h1.7V15.3z"/>
	</g>
	<g class="st3">
		<path class="st4" d="M532.9,22.2l0.8-0.2V18l-0.9-0.2v-1h2.5l0.1,0.9c0.2-0.3,0.5-0.6,0.8-0.8s0.7-0.3,1-0.3
			c0.6,0,1.1,0.2,1.5,0.6s0.5,1,0.5,1.9V22l0.8,0.2v1h-3.3v-1l0.7-0.2v-2.8c0-0.4-0.1-0.7-0.3-0.9s-0.4-0.3-0.8-0.3
			c-0.2,0-0.4,0-0.6,0.1s-0.3,0.2-0.5,0.4V22l0.7,0.2v1h-3.2V22.2z"/>
	</g>
	<g class="st3">
		<path class="st4" d="M543.5,23.3c-0.9,0-1.6-0.3-2.2-0.9s-0.8-1.3-0.8-2.2V20c0-0.9,0.3-1.7,0.8-2.3s1.2-0.9,2.1-0.9
			c0.9,0,1.5,0.3,2,0.8s0.7,1.2,0.7,2.1v0.9h-3.8l0,0c0,0.4,0.2,0.8,0.4,1s0.6,0.4,1,0.4c0.4,0,0.7,0,0.9-0.1s0.5-0.2,0.8-0.4
			l0.5,1.1c-0.3,0.2-0.6,0.4-1,0.5S544.1,23.3,543.5,23.3z M543.4,18c-0.3,0-0.6,0.1-0.8,0.4s-0.3,0.6-0.3,1l0,0h2.1v-0.2
			c0-0.4-0.1-0.7-0.3-0.9S543.7,18,543.4,18z"/>
		<path class="st4" d="M547,22.2l0.8-0.2V18l-0.9-0.2v-1h2.5l0.1,0.9c0.1-0.3,0.3-0.6,0.6-0.8s0.5-0.3,0.8-0.3c0.1,0,0.2,0,0.3,0
			s0.2,0,0.2,0l-0.2,1.6l-0.7,0c-0.3,0-0.5,0-0.6,0.1s-0.3,0.2-0.4,0.4V22l0.8,0.2v1H547V22.2z"/>
	</g>
	<path class="st5" d="M356.3,22H352c-0.6,0-0.8-0.2-0.8-0.8v-6.5c0-0.6,0.2-0.8,0.8-0.8h8.5c0.5,0,0.8,0.2,0.8,0.8v6.5
		c0,0.5-0.2,0.8-0.8,0.8C359.1,22,357.7,22,356.3,22z"/>
	<path class="st5" d="M354.9,5.8c1.6-0.7,3.5-0.5,4.9,0.7c1.7,1.6,1.9,4.2,0.3,5.9c-0.2,0.2-0.4,0.4-0.5,0.5c-0.3,0.2-0.6,0.4-1,0.7
		"/>
	<path class="st6" d="M355.6,19.2L355.6,19.2v0.9c0,0.2,0.1,0.2,0.3,0.2h0.8c0.2,0,0.3-0.1,0.3-0.3v-1.6c0-0.2,0.1-0.3,0.2-0.4
		c0.5-0.3,0.8-0.9,0.6-1.5c-0.2-0.6-0.8-1-1.5-1c-0.7-0.1-1.3,0.3-1.6,0.9c-0.2,0.6,0,1.2,0.5,1.5c0.2,0.1,0.3,0.3,0.3,0.5
		C355.6,18.8,355.6,19,355.6,19.2z"/>
	
		<linearGradient id="SVGID_7_" gradientUnits="userSpaceOnUse" x1="378.69" y1="94.745" x2="550.48" y2="94.745" gradientTransform="matrix(1 0 0 -1 0 226)">
		<stop  offset="0" style="stop-color:#990066"/>
		<stop  offset="0.19" style="stop-color:#780066"/>
		<stop  offset="0.4" style="stop-color:#5A0066"/>
		<stop  offset="0.61" style="stop-color:#440066"/>
		<stop  offset="0.81" style="stop-color:#370066"/>
		<stop  offset="1" style="stop-color:#330066"/>
	</linearGradient>
	<path class="st14" d="M383.7,70.7h161.8c2.8,0,5,2.2,5,5v111.1c0,2.8-2.2,5-5,5H383.7c-2.8,0-5-2.2-5-5V75.7
		C378.7,72.9,380.9,70.7,383.7,70.7z"/>
	<path class="st8" d="M402,139.6h126.6c2.8,0,5,2.2,5,5v17.2c0,2.8-2.2,5-5,5H402c-2.8,0-5-2.2-5-5v-17.2
		C397,141.8,399.2,139.6,402,139.6z"/>
	<g class="st3">
		<path class="st15" d="M435.3,155.8l0.6-0.1l2.4-6.8h1.6l2.4,6.8l0.6,0.1v0.9h-2.7v-0.9l0.5-0.1l-0.3-1.1h-2.5l-0.3,1.1l0.5,0.1
			v0.9h-2.7V155.8z M438.1,153.5h1.8l-0.9-2.8h0L438.1,153.5z"/>
		<path class="st15" d="M443.2,151.9v-0.9h2.3l0.1,0.7c0.2-0.3,0.4-0.4,0.6-0.6c0.2-0.1,0.5-0.2,0.8-0.2c0.7,0,1.3,0.3,1.7,0.8
			c0.4,0.6,0.6,1.3,0.6,2.2v0.1c0,0.9-0.2,1.5-0.6,2.1c-0.4,0.5-1,0.8-1.7,0.8c-0.3,0-0.6-0.1-0.8-0.2c-0.2-0.1-0.4-0.3-0.6-0.5v1.7
			l0.8,0.2v0.9h-3.1V158l0.8-0.2V152L443.2,151.9z M447.7,153.9c0-0.5-0.1-1-0.3-1.3s-0.5-0.5-0.8-0.5c-0.2,0-0.4,0-0.6,0.1
			c-0.2,0.1-0.3,0.2-0.4,0.4v2.5c0.1,0.2,0.2,0.3,0.4,0.4c0.2,0.1,0.4,0.1,0.6,0.1c0.4,0,0.7-0.1,0.8-0.4c0.2-0.3,0.3-0.7,0.3-1.2
			V153.9z"/>
	</g>
	<g class="st3">
		<path class="st15" d="M449.9,151.9v-0.9h2.3l0.1,0.7c0.2-0.3,0.4-0.4,0.6-0.6c0.2-0.1,0.5-0.2,0.8-0.2c0.7,0,1.3,0.3,1.7,0.8
			c0.4,0.6,0.6,1.3,0.6,2.2v0.1c0,0.9-0.2,1.5-0.6,2.1c-0.4,0.5-1,0.8-1.7,0.8c-0.3,0-0.6-0.1-0.8-0.2c-0.2-0.1-0.4-0.3-0.6-0.5v1.7
			l0.8,0.2v0.9H450V158l0.8-0.2V152L449.9,151.9z M454.4,153.9c0-0.5-0.1-1-0.3-1.3s-0.5-0.5-0.8-0.5c-0.2,0-0.4,0-0.6,0.1
			c-0.2,0.1-0.3,0.2-0.4,0.4v2.5c0.1,0.2,0.2,0.3,0.4,0.4c0.2,0.1,0.4,0.1,0.6,0.1c0.4,0,0.7-0.1,0.8-0.4c0.2-0.3,0.3-0.7,0.3-1.2
			V153.9z"/>
	</g>
	<g class="st3">
		<path class="st15" d="M456.4,149.3v-0.9h2.4v7.3l0.8,0.2v0.9h-3.1v-0.9l0.8-0.2v-6.2L456.4,149.3z"/>
		<path class="st15" d="M460,155.8l0.8-0.2V152l-0.8-0.2v-0.9h2.4v4.7l0.8,0.2v0.9H460V155.8z M462.3,149.5h-1.6v-1.2h1.6V149.5z"/>
		<path class="st15" d="M466.3,155.7c0.3,0,0.5-0.1,0.7-0.2c0.2-0.2,0.3-0.4,0.3-0.7h1.4l0,0c0,0.6-0.2,1.1-0.7,1.5
			c-0.5,0.4-1,0.6-1.7,0.6c-0.9,0-1.5-0.3-2-0.8c-0.5-0.5-0.7-1.3-0.7-2.1v-0.2c0-0.9,0.2-1.6,0.7-2.1c0.5-0.6,1.2-0.8,2.1-0.8
			c0.5,0,0.9,0.1,1.3,0.2c0.4,0.1,0.7,0.3,0.9,0.6l0,1.6h-1.3l-0.3-0.9c-0.1-0.1-0.2-0.1-0.3-0.2c-0.1,0-0.2-0.1-0.4-0.1
			c-0.4,0-0.8,0.2-0.9,0.5s-0.3,0.7-0.3,1.2v0.2c0,0.5,0.1,0.9,0.3,1.3C465.6,155.5,465.9,155.7,466.3,155.7z"/>
	</g>
	<g class="st3">
		<path class="st15" d="M473.1,156.7c0-0.1-0.1-0.2-0.1-0.3c0-0.1-0.1-0.2-0.1-0.3c-0.2,0.2-0.4,0.4-0.7,0.5s-0.6,0.2-0.9,0.2
			c-0.6,0-1-0.2-1.4-0.5c-0.3-0.3-0.5-0.7-0.5-1.3c0-0.5,0.2-1,0.7-1.3c0.4-0.3,1.1-0.4,1.9-0.4h0.8v-0.6c0-0.3-0.1-0.5-0.2-0.6
			s-0.4-0.2-0.7-0.2c-0.2,0-0.3,0-0.5,0.1s-0.3,0.1-0.3,0.1l-0.1,0.6h-1.2l0-1.3c0.3-0.2,0.6-0.4,1-0.5c0.4-0.1,0.8-0.2,1.2-0.2
			c0.7,0,1.3,0.2,1.8,0.5s0.7,0.9,0.7,1.5v2.4c0,0.1,0,0.2,0,0.3c0,0.1,0,0.2,0,0.2l0.5,0.1v0.9H473.1z M471.7,155.7
			c0.2,0,0.5-0.1,0.6-0.2c0.2-0.1,0.3-0.2,0.5-0.4v-0.9H472c-0.3,0-0.6,0.1-0.8,0.2c-0.2,0.2-0.3,0.3-0.3,0.6c0,0.2,0.1,0.4,0.2,0.5
			S471.5,155.7,471.7,155.7z"/>
	</g>
	<g class="st3">
		<path class="st15" d="M477.3,149.5v1.4h1v1.1h-1v3c0,0.2,0,0.4,0.1,0.5s0.2,0.1,0.4,0.1c0.1,0,0.2,0,0.3,0c0.1,0,0.2,0,0.3,0
			l0.1,1.1c-0.2,0.1-0.3,0.1-0.5,0.1c-0.2,0-0.4,0-0.6,0c-0.5,0-1-0.1-1.2-0.4s-0.4-0.8-0.4-1.4v-3h-0.9v-1.1h0.9v-1.4H477.3z"/>
		<path class="st15" d="M479.1,155.8l0.8-0.2V152l-0.8-0.2v-0.9h2.4v4.7l0.8,0.2v0.9h-3.1V155.8z M481.4,149.5h-1.6v-1.2h1.6V149.5z
			"/>
		<path class="st15" d="M482.7,153.8c0-0.9,0.2-1.6,0.7-2.1c0.5-0.6,1.2-0.8,2-0.8c0.9,0,1.5,0.3,2,0.8s0.7,1.3,0.7,2.1v0.1
			c0,0.9-0.2,1.6-0.7,2.1s-1.2,0.8-2,0.8c-0.9,0-1.5-0.3-2-0.8c-0.5-0.5-0.7-1.3-0.7-2.1V153.8z M484.2,153.9c0,0.5,0.1,1,0.3,1.3
			c0.2,0.3,0.5,0.5,0.9,0.5c0.4,0,0.7-0.2,0.9-0.5c0.2-0.3,0.3-0.7,0.3-1.3v-0.1c0-0.5-0.1-0.9-0.3-1.3s-0.5-0.5-0.9-0.5
			s-0.7,0.2-0.9,0.5c-0.2,0.3-0.3,0.7-0.3,1.3V153.9z"/>
		<path class="st15" d="M488.7,155.8l0.8-0.2V152l-0.8-0.2v-0.9h2.3l0.1,0.8c0.2-0.3,0.4-0.5,0.7-0.7c0.3-0.2,0.6-0.2,1-0.2
			c0.6,0,1,0.2,1.4,0.6c0.3,0.4,0.5,0.9,0.5,1.7v2.5l0.8,0.2v0.9h-3v-0.9l0.7-0.2v-2.5c0-0.4-0.1-0.7-0.2-0.8
			c-0.2-0.2-0.4-0.2-0.7-0.2c-0.2,0-0.4,0-0.6,0.1s-0.3,0.2-0.4,0.4v3.1l0.6,0.2v0.9h-3V155.8z"/>
	</g>
	<g class="st3">
		<path class="st15" d="M117.2,156.1l0.6-0.1l2.4-6.8h1.6l2.4,6.8l0.6,0.1v0.9H122v-0.9l0.5-0.1l-0.3-1.1h-2.5l-0.3,1.1l0.5,0.1v0.9
			h-2.7V156.1z M120,153.7h1.8l-0.9-2.8h0L120,153.7z"/>
		<path class="st15" d="M125.1,152.1v-0.9h2.3l0.1,0.7c0.2-0.3,0.4-0.4,0.6-0.6s0.5-0.2,0.8-0.2c0.7,0,1.3,0.3,1.7,0.8
			c0.4,0.6,0.6,1.3,0.6,2.2v0.1c0,0.9-0.2,1.5-0.6,2.1c-0.4,0.5-1,0.8-1.7,0.8c-0.3,0-0.6-0.1-0.8-0.2c-0.2-0.1-0.4-0.3-0.6-0.5v1.7
			l0.8,0.2v0.9h-3.1v-0.9l0.8-0.2v-5.8L125.1,152.1z M129.6,154.1c0-0.5-0.1-1-0.3-1.3s-0.5-0.5-0.8-0.5c-0.2,0-0.4,0-0.6,0.1
			c-0.2,0.1-0.3,0.2-0.4,0.4v2.5c0.1,0.2,0.2,0.3,0.4,0.4c0.2,0.1,0.4,0.1,0.6,0.1c0.4,0,0.7-0.1,0.8-0.4c0.2-0.3,0.3-0.7,0.3-1.2
			V154.1z"/>
	</g>
	<g class="st3">
		<path class="st15" d="M131.7,152.1v-0.9h2.3l0.1,0.7c0.2-0.3,0.4-0.4,0.6-0.6c0.2-0.1,0.5-0.2,0.8-0.2c0.7,0,1.3,0.3,1.7,0.8
			c0.4,0.6,0.6,1.3,0.6,2.2v0.1c0,0.9-0.2,1.5-0.6,2.1c-0.4,0.5-1,0.8-1.7,0.8c-0.3,0-0.6-0.1-0.8-0.2c-0.2-0.1-0.4-0.3-0.6-0.5v1.7
			l0.8,0.2v0.9h-3.1v-0.9l0.8-0.2v-5.8L131.7,152.1z M136.2,154.1c0-0.5-0.1-1-0.3-1.3s-0.5-0.5-0.8-0.5c-0.2,0-0.4,0-0.6,0.1
			c-0.2,0.1-0.3,0.2-0.4,0.4v2.5c0.1,0.2,0.2,0.3,0.4,0.4c0.2,0.1,0.4,0.1,0.6,0.1c0.4,0,0.7-0.1,0.8-0.4c0.2-0.3,0.3-0.7,0.3-1.2
			V154.1z"/>
	</g>
	<g class="st3">
		<path class="st15" d="M138.2,149.6v-0.9h2.4v7.3l0.8,0.2v0.9h-3.1v-0.9l0.8-0.2v-6.2L138.2,149.6z"/>
		<path class="st15" d="M141.8,156.1l0.8-0.2v-3.6l-0.8-0.2v-0.9h2.4v4.7l0.8,0.2v0.9h-3.1V156.1z M144.2,149.8h-1.6v-1.2h1.6V149.8
			z"/>
		<path class="st15" d="M148.2,155.9c0.3,0,0.5-0.1,0.7-0.2s0.3-0.4,0.3-0.7h1.4l0,0c0,0.6-0.2,1.1-0.7,1.5s-1,0.6-1.7,0.6
			c-0.9,0-1.5-0.3-2-0.8s-0.7-1.3-0.7-2.1V154c0-0.9,0.2-1.6,0.7-2.1c0.5-0.6,1.2-0.8,2.1-0.8c0.5,0,0.9,0.1,1.3,0.2
			c0.4,0.1,0.7,0.3,0.9,0.6l0,1.6h-1.3l-0.3-0.9c-0.1-0.1-0.2-0.1-0.3-0.2s-0.2-0.1-0.4-0.1c-0.4,0-0.8,0.2-0.9,0.5
			s-0.3,0.7-0.3,1.2v0.2c0,0.5,0.1,0.9,0.3,1.3C147.4,155.7,147.7,155.9,148.2,155.9z"/>
	</g>
	<g class="st3">
		<path class="st15" d="M154.9,157c0-0.1-0.1-0.2-0.1-0.3c0-0.1-0.1-0.2-0.1-0.3c-0.2,0.2-0.4,0.4-0.7,0.5c-0.3,0.1-0.6,0.2-0.9,0.2
			c-0.6,0-1-0.2-1.4-0.5c-0.3-0.3-0.5-0.7-0.5-1.3c0-0.5,0.2-1,0.7-1.3s1.1-0.4,1.9-0.4h0.8v-0.6c0-0.3-0.1-0.5-0.2-0.6
			s-0.4-0.2-0.7-0.2c-0.2,0-0.3,0-0.5,0.1s-0.3,0.1-0.3,0.1l-0.1,0.6h-1.2l0-1.3c0.3-0.2,0.6-0.4,1-0.5c0.4-0.1,0.8-0.2,1.2-0.2
			c0.7,0,1.3,0.2,1.8,0.5c0.4,0.4,0.7,0.9,0.7,1.5v2.4c0,0.1,0,0.2,0,0.3c0,0.1,0,0.2,0,0.2l0.5,0.1v0.9H154.9z M153.6,155.9
			c0.2,0,0.5-0.1,0.6-0.2c0.2-0.1,0.3-0.2,0.5-0.4v-0.9h-0.8c-0.3,0-0.6,0.1-0.8,0.2c-0.2,0.2-0.3,0.3-0.3,0.6
			c0,0.2,0.1,0.4,0.2,0.5C153.2,155.9,153.3,155.9,153.6,155.9z"/>
	</g>
	<g class="st3">
		<path class="st15" d="M159.2,149.8v1.4h1v1.1h-1v3c0,0.2,0,0.4,0.1,0.5s0.2,0.1,0.4,0.1c0.1,0,0.2,0,0.3,0c0.1,0,0.2,0,0.3,0
			l0.1,1.1c-0.2,0.1-0.3,0.1-0.5,0.1c-0.2,0-0.4,0-0.6,0c-0.5,0-1-0.1-1.2-0.4c-0.3-0.3-0.4-0.8-0.4-1.4v-3h-0.9v-1.1h0.9v-1.4
			H159.2z"/>
		<path class="st15" d="M160.9,156.1l0.8-0.2v-3.6l-0.8-0.2v-0.9h2.4v4.7l0.8,0.2v0.9h-3.1V156.1z M163.2,149.8h-1.6v-1.2h1.6V149.8
			z"/>
		<path class="st15" d="M164.5,154c0-0.9,0.2-1.6,0.7-2.1c0.5-0.6,1.2-0.8,2-0.8c0.9,0,1.5,0.3,2,0.8c0.5,0.6,0.7,1.3,0.7,2.1v0.1
			c0,0.9-0.2,1.6-0.7,2.1c-0.5,0.5-1.2,0.8-2,0.8c-0.9,0-1.5-0.3-2-0.8c-0.5-0.5-0.7-1.3-0.7-2.1V154z M166.1,154.1
			c0,0.5,0.1,1,0.3,1.3s0.5,0.5,0.9,0.5c0.4,0,0.7-0.2,0.9-0.5c0.2-0.3,0.3-0.7,0.3-1.3V154c0-0.5-0.1-0.9-0.3-1.3s-0.5-0.5-0.9-0.5
			s-0.7,0.2-0.9,0.5s-0.3,0.7-0.3,1.3V154.1z"/>
		<path class="st15" d="M170.6,156.1l0.8-0.2v-3.6l-0.8-0.2v-0.9h2.3l0.1,0.8c0.2-0.3,0.4-0.5,0.7-0.7s0.6-0.2,1-0.2
			c0.6,0,1,0.2,1.4,0.6c0.3,0.4,0.5,0.9,0.5,1.7v2.5l0.8,0.2v0.9h-3v-0.9l0.7-0.2v-2.5c0-0.4-0.1-0.7-0.2-0.8s-0.4-0.2-0.7-0.2
			c-0.2,0-0.4,0-0.6,0.1s-0.3,0.2-0.4,0.4v3.1l0.6,0.2v0.9h-3V156.1z"/>
	</g>
	<g id="Scone_logo_white-2">
		<g>
			<defs>
				<rect id="SVGID_8_" x="446.4" y="174.7" width="36.3" height="7.1"/>
			</defs>
			<clipPath id="SVGID_9_">
				<use xlink:href="#SVGID_8_"  style="overflow:visible;"/>
			</clipPath>
			<g class="st16">
				<g>
					<defs>
						<rect id="SVGID_10_" x="446.4" y="174.7" width="36.3" height="7.1"/>
					</defs>
					<clipPath id="SVGID_11_">
						<use xlink:href="#SVGID_10_"  style="overflow:visible;"/>
					</clipPath>
					<g class="st17">
						<path class="st11" d="M451.2,176.5h-0.8c-0.2,0-0.3,0.1-0.3,0.3l0,0v0.8c0,0.2,0.1,0.3,0.3,0.3l0,0h0.8c0.2,0,0.3-0.1,0.3-0.3
							l0,0v-0.8C451.5,176.6,451.4,176.5,451.2,176.5L451.2,176.5 M448.6,177.9h0.8c0.2,0,0.3-0.1,0.3-0.3l0,0v-0.8
							c0-0.2-0.1-0.3-0.3-0.3l0,0h-0.8c-0.2,0-0.3,0.1-0.3,0.3v0.8C448.3,177.7,448.4,177.9,448.6,177.9 M447.8,177.6v-0.8
							c0-0.2-0.1-0.3-0.3-0.3c0,0,0,0,0,0h-0.8c-0.2,0-0.3,0.1-0.3,0.3l0,0v0.8c0,0.2,0.1,0.3,0.3,0.3l0,0h0.8
							C447.6,177.9,447.8,177.8,447.8,177.6C447.8,177.6,447.8,177.6,447.8,177.6 M451.3,178.4c-0.1,0-0.2,0.1-0.2,0.2v0.9
							c0,0.1,0.1,0.2,0.2,0.2c0.1,0,0.2-0.1,0.2-0.2l0,0v-0.9C451.5,178.5,451.4,178.4,451.3,178.4
							C451.3,178.4,451.3,178.4,451.3,178.4 M449.2,178.7v0.8c0,0.2,0.1,0.3,0.3,0.3l0,0h0.8c0.2,0,0.3-0.1,0.3-0.3c0,0,0,0,0,0
							v-0.8c0-0.2-0.1-0.3-0.3-0.3c0,0,0,0,0,0h-0.8C449.3,178.4,449.2,178.5,449.2,178.7C449.2,178.7,449.2,178.7,449.2,178.7
							 M448.6,179.5v-0.8c0-0.2-0.1-0.3-0.3-0.3c0,0,0,0,0,0h-0.8c-0.2,0-0.3,0.1-0.3,0.3v0.8c0,0.2,0.1,0.3,0.3,0.3h0.8
							C448.5,179.8,448.6,179.6,448.6,179.5L448.6,179.5 M451.2,180.3h-0.8c-0.2,0-0.3,0.1-0.3,0.3l0,0v0.8c0,0.2,0.1,0.3,0.3,0.3
							h0.8c0.2,0,0.3-0.1,0.3-0.3v-0.8C451.5,180.4,451.4,180.3,451.2,180.3L451.2,180.3 M449.2,180.3h-0.8c-0.2,0-0.3,0.1-0.3,0.3
							l0,0v0.8c0,0.2,0.1,0.3,0.3,0.3h0.8c0.2,0,0.3-0.1,0.3-0.3v-0.8C449.5,180.4,449.4,180.3,449.2,180.3L449.2,180.3"/>
						<path class="st11" d="M452.1,176.2c0.3,0.3,0.8,0.4,1.2,0.4c0,0,0,0,0,0.1v2.1c0,0.8-1,1.3-1.2,1.4l0,0L452.1,176.2
							L452.1,176.2"/>
						<path class="st11" d="M449.9,176.1c1.6-0.1,1.9-0.6,1.9-0.6c0,0,0,0,0.1-0.1c0,0,0,0,0.1,0s0.3,0.6,1.9,0.6c0,0,0.1,0,0.1,0.1
							v2.8c0,0.9-1.7,1.9-1.7,1.9l-0.1,0.1v0.7c0,0,0.1,0,0.1,0c0.6-0.3,2.3-1.3,2.3-2.5v-3.5c0-0.1-0.1-0.1-0.2-0.1
							c-2,0-2.4-0.8-2.4-0.8s-0.1,0-0.1,0s-0.1,0-0.1,0s-0.3,0.8-2.4,0.8c-0.1,0-0.1,0-0.1,0.1v0.5c0,0,0,0.1,0.1,0.1H449.9"/>
						<path class="st12" d="M456,180.6l0.8-0.3c0.2,0.4,0.6,0.6,1.1,0.6c0.2,0,0.4,0,0.6-0.1c0.2-0.1,0.3-0.3,0.3-0.4
							c0-0.4-0.6-0.7-1-0.9l0,0c-0.3-0.1-0.7-0.3-1-0.5c-0.3-0.2-0.5-0.6-0.5-1c0-0.4,0.2-0.8,0.5-1c0.3-0.3,0.8-0.4,1.2-0.4
							c0.7,0,1.3,0.3,1.6,0.9l-0.9,0.3c-0.1-0.1-0.2-0.2-0.3-0.3c-0.1-0.1-0.3-0.1-0.5-0.1c-0.5,0-0.8,0.3-0.8,0.6
							c0,0.2,0.1,0.4,0.3,0.5c0.2,0.2,0.5,0.3,0.7,0.4l0.1,0.1c0.6,0.3,1.4,0.6,1.4,1.4c0,0.4-0.2,0.8-0.5,1
							c-0.4,0.3-0.9,0.4-1.3,0.4C457.2,181.7,456.4,181.3,456,180.6"/>
						<path class="st12" d="M463.3,181.7c-0.3,0-0.7-0.1-1-0.2c-0.6-0.3-1.1-0.8-1.4-1.4c-0.3-0.6-0.3-1.4,0-2
							c0.1-0.3,0.3-0.6,0.6-0.8c0.2-0.2,0.5-0.4,0.8-0.6c0.7-0.3,1.5-0.3,2.2,0.1c0.3,0.2,0.7,0.4,0.9,0.7l-0.7,0.5
							c-0.2-0.2-0.4-0.4-0.6-0.5c-0.2-0.1-0.5-0.2-0.8-0.2c-1,0-1.7,0.8-1.7,1.7c0,0.5,0.2,0.9,0.5,1.2c0.3,0.3,0.8,0.5,1.2,0.5
							c0.6,0,1.2-0.3,1.5-0.9l0.8,0.4c-0.2,0.4-0.5,0.8-0.9,1C464.2,181.6,463.8,181.8,463.3,181.7"/>
						<path class="st12" d="M469,181.7c-0.3,0-0.7-0.1-1-0.2c-0.3-0.1-0.6-0.3-0.8-0.6c-0.2-0.2-0.4-0.5-0.5-0.8
							c-0.1-0.3-0.2-0.7-0.2-1c0-0.3,0.1-0.7,0.2-1c0.1-0.3,0.3-0.6,0.5-0.8c0.5-0.5,1.1-0.8,1.8-0.8c0.3,0,0.7,0.1,1,0.2
							c0.3,0.1,0.6,0.3,0.8,0.6c0.2,0.2,0.4,0.5,0.6,0.8c0.1,0.3,0.2,0.7,0.2,1c0,0.3-0.1,0.7-0.2,1c-0.1,0.3-0.3,0.6-0.6,0.8
							c-0.2,0.2-0.5,0.4-0.8,0.6C469.7,181.6,469.4,181.7,469,181.7 M469,177.4c-0.5,0-0.9,0.2-1.2,0.5c-0.3,0.3-0.5,0.8-0.5,1.2
							c0,1,0.8,1.7,1.7,1.7c0.5,0,0.9-0.2,1.2-0.5c0.3-0.3,0.5-0.8,0.5-1.2c0-0.5-0.2-0.9-0.5-1.2
							C469.9,177.5,469.5,177.4,469,177.4"/>
						<polygon class="st12" points="477.4,176.6 477.4,181.8 473.8,178.5 473.8,181.6 472.9,181.6 472.9,176.4 476.5,179.7 
							476.5,176.6 						"/>
						<polygon class="st12" points="479.9,177.3 479.9,178.7 482.4,178.7 482.4,179.5 479.9,179.5 479.9,180.8 482.8,180.8 
							482.8,181.6 479,181.6 479,176.6 482.8,176.6 482.8,177.3 479.9,177.3 						"/>
					</g>
				</g>
			</g>
		</g>
	</g>
	<g class="st3">
		<path class="st13" d="M413.4,95.5v-1.1h3.6v1.1l-0.9,0.2v6.2l0.9,0.2v1h-3.6v-1l0.9-0.2v-6.2L413.4,95.5z"/>
		<path class="st13" d="M417.6,102.1l0.8-0.2v-4l-0.9-0.2v-1.1h2.6l0.1,0.9c0.2-0.3,0.5-0.6,0.8-0.8c0.3-0.2,0.7-0.3,1.1-0.3
			c0.7,0,1.2,0.2,1.5,0.6s0.5,1.1,0.5,1.9v2.8l0.8,0.2v1h-3.3v-1l0.7-0.2v-2.8c0-0.4-0.1-0.7-0.3-0.9c-0.2-0.2-0.4-0.3-0.8-0.3
			c-0.2,0-0.4,0-0.6,0.1c-0.2,0.1-0.3,0.2-0.5,0.4v3.5l0.7,0.2v1h-3.3V102.1z"/>
		<path class="st13" d="M428,95.1v1.6h1.1v1.2H428v3.3c0,0.3,0.1,0.4,0.2,0.5s0.2,0.2,0.4,0.2c0.1,0,0.2,0,0.3,0
			c0.1,0,0.2,0,0.3-0.1l0.1,1.3c-0.2,0.1-0.4,0.1-0.6,0.1c-0.2,0-0.4,0-0.6,0c-0.6,0-1.1-0.2-1.4-0.5c-0.3-0.3-0.5-0.9-0.5-1.6v-3.3
			h-1v-1.2h1v-1.6H428z"/>
		<path class="st13" d="M433.1,103.3c-0.9,0-1.7-0.3-2.2-0.9s-0.8-1.4-0.8-2.3v-0.2c0-1,0.3-1.8,0.8-2.4c0.5-0.6,1.2-0.9,2.1-0.9
			c0.9,0,1.6,0.3,2,0.8c0.5,0.5,0.7,1.2,0.7,2.1v1h-3.9l0,0c0,0.4,0.2,0.8,0.4,1.1c0.3,0.3,0.6,0.4,1,0.4c0.4,0,0.7,0,1-0.1
			c0.3-0.1,0.5-0.2,0.8-0.4l0.5,1.1c-0.3,0.2-0.6,0.4-1,0.5S433.6,103.3,433.1,103.3z M433,97.9c-0.3,0-0.6,0.1-0.8,0.4
			c-0.2,0.2-0.3,0.6-0.3,1l0,0h2.1v-0.2c0-0.4-0.1-0.7-0.3-0.9C433.6,98,433.3,97.9,433,97.9z"/>
		<path class="st13" d="M436.3,94.9v-1.1h2.7v8.1l0.8,0.2v1h-3.4v-1l0.8-0.2v-6.9L436.3,94.9z"/>
		<path class="st13" d="M450,97.2h-1.3l-0.2-1.2c-0.2-0.1-0.4-0.2-0.7-0.3c-0.3-0.1-0.6-0.1-0.9-0.1c-0.5,0-0.8,0.1-1.1,0.3
			s-0.4,0.5-0.4,0.8c0,0.3,0.1,0.5,0.4,0.7c0.3,0.2,0.7,0.4,1.4,0.6c1,0.3,1.7,0.6,2.2,1.1c0.5,0.4,0.7,1,0.7,1.7
			c0,0.7-0.3,1.3-0.9,1.8c-0.6,0.4-1.4,0.6-2.3,0.6c-0.7,0-1.3-0.1-1.9-0.3c-0.6-0.2-1-0.5-1.4-0.9v-1.8h1.3l0.2,1.2
			c0.2,0.1,0.4,0.3,0.7,0.4s0.6,0.1,1,0.1c0.5,0,0.8-0.1,1.1-0.3c0.2-0.2,0.4-0.5,0.4-0.8c0-0.3-0.1-0.6-0.4-0.8
			c-0.2-0.2-0.7-0.4-1.2-0.6c-1-0.3-1.8-0.7-2.3-1.1c-0.5-0.4-0.8-1-0.8-1.7c0-0.7,0.3-1.3,0.9-1.7s1.3-0.7,2.3-0.7
			c0.7,0,1.3,0.1,1.8,0.3s1,0.5,1.4,0.8V97.2z"/>
		<path class="st13" d="M458,102.2c-0.3,0.3-0.7,0.5-1.2,0.8c-0.5,0.2-1.2,0.3-2.1,0.3c-1.2,0-2.1-0.4-2.9-1.2s-1.1-1.8-1.1-3.1
			v-0.3c0-1.3,0.4-2.4,1.1-3.2c0.7-0.8,1.7-1.2,2.8-1.2c0.7,0,1.3,0.1,1.9,0.3c0.6,0.2,1,0.5,1.4,0.9v1.8h-1.3l-0.2-1.2
			c-0.2-0.1-0.4-0.2-0.6-0.3c-0.3-0.1-0.6-0.1-0.9-0.1c-0.8,0-1.4,0.3-1.8,0.8c-0.4,0.6-0.6,1.3-0.6,2.2V99c0,0.9,0.2,1.6,0.6,2.1
			c0.4,0.5,1,0.8,1.8,0.8c0.4,0,0.6,0,0.9-0.1s0.4-0.1,0.5-0.2v-1.5l-1.2-0.1v-1.2h3V102.2z"/>
		<path class="st13" d="M458.8,102.1l0.7-0.1l2.3-3.2l-2.2-3.1l-0.7-0.1v-1.1h3.3v1.1l-0.7,0.1l1.3,2.1l1.4-2.1l-0.7-0.1v-1.1h3.4
			v1.1l-0.7,0.1l-2.2,3.1l2.3,3.2l0.8,0.1v1h-3.4v-1l0.7-0.1l-1.4-2.2l-1.4,2.2l0.7,0.1v1h-3.4V102.1z"/>
		<path class="st13" d="M476.1,99.3h-2.9v2.5h2.8l0.1-1h1.3v2.4h-6.9v-1l0.9-0.2v-6.2l-0.9-0.2v-1.1h0.9h5.9v2.4H476l-0.1-1h-2.8V98
			h2.9V99.3z"/>
	</g>
	<g class="st3">
		<path class="st13" d="M478.3,102.1l0.8-0.2v-4l-0.9-0.2v-1.1h2.6l0.1,0.9c0.2-0.3,0.5-0.6,0.8-0.8c0.3-0.2,0.7-0.3,1.1-0.3
			c0.7,0,1.2,0.2,1.5,0.6c0.4,0.4,0.6,1.1,0.6,1.9v2.8l0.8,0.2v1h-3.3v-1l0.7-0.2v-2.8c0-0.4-0.1-0.7-0.3-0.9
			c-0.2-0.2-0.4-0.3-0.8-0.3c-0.2,0-0.4,0-0.6,0.1c-0.2,0.1-0.3,0.2-0.5,0.4v3.5l0.7,0.2v1h-3.3V102.1z"/>
	</g>
	<g class="st3">
		<path class="st13" d="M489.1,101.9c0.3,0,0.6-0.1,0.7-0.3c0.2-0.2,0.3-0.4,0.3-0.7h1.6l0,0c0,0.7-0.2,1.2-0.7,1.6
			c-0.5,0.4-1.1,0.7-1.9,0.7c-1,0-1.7-0.3-2.2-0.9c-0.5-0.6-0.8-1.4-0.8-2.3v-0.2c0-1,0.3-1.7,0.8-2.3c0.5-0.6,1.3-0.9,2.3-0.9
			c0.5,0,1,0.1,1.4,0.2c0.4,0.2,0.8,0.4,1,0.7l0,1.7h-1.4l-0.3-1c-0.1-0.1-0.2-0.1-0.3-0.2s-0.3-0.1-0.4-0.1c-0.5,0-0.8,0.2-1,0.5
			c-0.2,0.4-0.3,0.8-0.3,1.4v0.2c0,0.6,0.1,1,0.3,1.4S488.7,101.9,489.1,101.9z"/>
		<path class="st13" d="M492.3,94.9v-1.1h2.7v8.1l0.8,0.2v1h-3.4v-1l0.8-0.2v-6.9L492.3,94.9z"/>
	</g>
	<g class="st3">
		<path class="st13" d="M500.6,103.1c0-0.1-0.1-0.2-0.1-0.3c0-0.1-0.1-0.2-0.1-0.3c-0.2,0.2-0.5,0.4-0.8,0.6s-0.6,0.2-1,0.2
			c-0.6,0-1.1-0.2-1.5-0.5c-0.4-0.3-0.6-0.8-0.6-1.4c0-0.6,0.2-1.1,0.7-1.4c0.5-0.3,1.2-0.5,2.1-0.5h0.9v-0.6c0-0.3-0.1-0.6-0.3-0.7
			c-0.2-0.2-0.4-0.3-0.8-0.3c-0.2,0-0.4,0-0.5,0.1c-0.2,0-0.3,0.1-0.4,0.2l-0.1,0.7h-1.3l0-1.4c0.3-0.2,0.7-0.4,1.1-0.5
			c0.4-0.1,0.9-0.2,1.3-0.2c0.8,0,1.5,0.2,2,0.6c0.5,0.4,0.8,1,0.8,1.7v2.7c0,0.1,0,0.2,0,0.3c0,0.1,0,0.2,0,0.3l0.5,0.1v1H500.6z
			 M499,102c0.3,0,0.5-0.1,0.7-0.2s0.4-0.3,0.5-0.4v-1h-0.9c-0.4,0-0.7,0.1-0.8,0.3s-0.3,0.4-0.3,0.6c0,0.2,0.1,0.4,0.2,0.5
			C498.6,101.9,498.8,102,499,102z"/>
	</g>
	<g class="st3">
		<path class="st13" d="M505.8,97.7l-0.6,0.1l0.9,2.9l0.1,0.6h0l0.1-0.6l0.8-2.9l-0.6-0.1v-1.1h2.9v1.1l-0.6,0.1l-1.9,5.3h-1.7
			l-1.9-5.3l-0.6-0.1v-1.1h2.9V97.7z"/>
	</g>
	<g class="st3">
		<path class="st13" d="M513.1,103.3c-0.9,0-1.7-0.3-2.2-0.9s-0.8-1.4-0.8-2.3v-0.2c0-1,0.3-1.8,0.8-2.4c0.5-0.6,1.2-0.9,2.1-0.9
			c0.9,0,1.5,0.3,2,0.8c0.5,0.5,0.7,1.2,0.7,2.1v1h-3.9l0,0c0,0.4,0.2,0.8,0.4,1.1c0.3,0.3,0.6,0.4,1,0.4c0.4,0,0.7,0,1-0.1
			c0.3-0.1,0.5-0.2,0.8-0.4l0.5,1.1c-0.3,0.2-0.6,0.4-1,0.5C514.1,103.2,513.6,103.3,513.1,103.3z M512.9,97.9
			c-0.3,0-0.6,0.1-0.8,0.4c-0.2,0.2-0.3,0.6-0.3,1l0,0h2.1v-0.2c0-0.4-0.1-0.7-0.3-0.9C513.5,98,513.3,97.9,512.9,97.9z"/>
	</g>
	<line class="st18" x1="248.2" y1="122.9" x2="249.2" y2="122.9"/>
	<line class="st19" x1="251.2" y1="122.9" x2="362.3" y2="122.9"/>
	<line class="st18" x1="363.3" y1="122.9" x2="364.3" y2="122.9"/>
	<polygon class="st15" points="252.9,128.7 253.8,127.7 248.8,122.9 253.8,118.3 252.9,117.2 246.7,122.9 	"/>
	<polygon class="st15" points="359.6,128.7 358.7,127.7 363.8,122.9 358.7,118.3 359.6,117.2 365.8,122.9 	"/>
	<g class="st3">
		<path class="st15" d="M276.8,94.9v2.3h-1.3l-0.1-1h-1.6v6l0.9,0.2v1h-3.6v-1l0.9-0.2v-6h-1.6l-0.1,1h-1.3v-2.3H276.8z"/>
	</g>
	<g class="st3">
		<path class="st15" d="M277.1,102.4l0.8-0.2v-3.9l-0.9-0.2v-1h2.5l0.1,0.9c0.1-0.3,0.3-0.6,0.6-0.8s0.5-0.3,0.8-0.3
			c0.1,0,0.2,0,0.3,0c0.1,0,0.2,0,0.3,0l-0.2,1.6l-0.7,0c-0.3,0-0.5,0-0.6,0.1c-0.2,0.1-0.3,0.2-0.4,0.4v3.1l0.8,0.2v1h-3.4V102.4z"
			/>
	</g>
	<g class="st3">
		<path class="st15" d="M286.1,103.4c0-0.1-0.1-0.2-0.1-0.3c0-0.1-0.1-0.2-0.1-0.3c-0.2,0.2-0.5,0.4-0.7,0.6s-0.6,0.2-1,0.2
			c-0.6,0-1.1-0.2-1.5-0.5s-0.6-0.8-0.6-1.4c0-0.6,0.2-1.1,0.7-1.4c0.5-0.3,1.2-0.5,2.1-0.5h0.9v-0.6c0-0.3-0.1-0.5-0.3-0.7
			s-0.4-0.3-0.8-0.3c-0.2,0-0.4,0-0.5,0.1s-0.3,0.1-0.4,0.2l-0.1,0.7h-1.3l0-1.4c0.3-0.2,0.7-0.4,1.1-0.5s0.9-0.2,1.3-0.2
			c0.8,0,1.4,0.2,1.9,0.6s0.7,0.9,0.7,1.6v2.6c0,0.1,0,0.2,0,0.3c0,0.1,0,0.2,0,0.2l0.5,0.1v1H286.1z M284.6,102.3
			c0.3,0,0.5-0.1,0.7-0.2c0.2-0.1,0.4-0.3,0.5-0.4v-1h-0.9c-0.4,0-0.6,0.1-0.8,0.3c-0.2,0.2-0.3,0.4-0.3,0.6c0,0.2,0.1,0.4,0.2,0.5
			S284.3,102.3,284.6,102.3z"/>
		<path class="st15" d="M288.5,102.4l0.8-0.2v-3.9l-0.9-0.2v-1h2.5l0.1,0.9c0.2-0.3,0.5-0.6,0.8-0.8c0.3-0.2,0.7-0.3,1-0.3
			c0.6,0,1.2,0.2,1.5,0.6c0.4,0.4,0.5,1,0.5,1.9v2.8l0.8,0.2v1h-3.3v-1l0.7-0.2v-2.8c0-0.4-0.1-0.7-0.3-0.9
			c-0.2-0.2-0.4-0.3-0.8-0.3c-0.2,0-0.4,0-0.6,0.1c-0.2,0.1-0.3,0.2-0.5,0.4v3.4l0.7,0.2v1h-3.3V102.4z"/>
		<path class="st15" d="M301.6,99.2h-1.2l-0.2-0.8c-0.1-0.1-0.3-0.2-0.4-0.2s-0.4-0.1-0.6-0.1c-0.3,0-0.5,0.1-0.7,0.2
			c-0.2,0.1-0.3,0.3-0.3,0.5c0,0.2,0.1,0.4,0.3,0.5c0.2,0.1,0.5,0.2,1,0.3c0.8,0.2,1.4,0.4,1.8,0.7c0.4,0.3,0.6,0.7,0.6,1.3
			c0,0.6-0.2,1-0.7,1.4s-1.1,0.5-2,0.5c-0.5,0-0.9-0.1-1.4-0.2s-0.8-0.3-1.1-0.6l0-1.4h1.2l0.2,0.8c0.1,0.1,0.2,0.1,0.4,0.2
			c0.2,0,0.4,0.1,0.6,0.1c0.4,0,0.6-0.1,0.8-0.2c0.2-0.1,0.3-0.3,0.3-0.5c0-0.2-0.1-0.3-0.3-0.5c-0.2-0.1-0.5-0.3-1-0.4
			c-0.8-0.2-1.3-0.4-1.7-0.7c-0.4-0.3-0.6-0.7-0.6-1.2c0-0.5,0.2-1,0.7-1.4s1.1-0.6,1.9-0.6c0.5,0,1,0.1,1.4,0.2s0.8,0.3,1,0.5
			L301.6,99.2z"/>
		<path class="st15" d="M302.4,98.1v-1h2.5l0.1,0.7c0.2-0.3,0.4-0.5,0.7-0.6c0.3-0.1,0.6-0.2,0.9-0.2c0.8,0,1.4,0.3,1.8,0.9
			c0.4,0.6,0.7,1.4,0.7,2.4v0.1c0,0.9-0.2,1.7-0.7,2.3c-0.4,0.6-1,0.9-1.8,0.9c-0.3,0-0.6-0.1-0.9-0.2c-0.3-0.1-0.5-0.3-0.7-0.5v1.8
			l0.8,0.2v1h-3.4v-1l0.8-0.2v-6.4L302.4,98.1z M307.4,100.3c0-0.6-0.1-1.1-0.3-1.5s-0.5-0.6-0.9-0.6c-0.3,0-0.5,0.1-0.7,0.2
			c-0.2,0.1-0.3,0.3-0.4,0.5v2.8c0.1,0.2,0.3,0.3,0.4,0.4c0.2,0.1,0.4,0.1,0.7,0.1c0.4,0,0.7-0.2,0.9-0.5s0.3-0.8,0.3-1.3V100.3z"/>
		<path class="st15" d="M314,103.4c0-0.1-0.1-0.2-0.1-0.3c0-0.1-0.1-0.2-0.1-0.3c-0.2,0.2-0.5,0.4-0.7,0.6s-0.6,0.2-1,0.2
			c-0.6,0-1.1-0.2-1.5-0.5s-0.6-0.8-0.6-1.4c0-0.6,0.2-1.1,0.7-1.4c0.5-0.3,1.2-0.5,2.1-0.5h0.9v-0.6c0-0.3-0.1-0.5-0.3-0.7
			s-0.4-0.3-0.8-0.3c-0.2,0-0.4,0-0.5,0.1c-0.2,0-0.3,0.1-0.4,0.2l-0.1,0.7h-1.3l0-1.4c0.3-0.2,0.7-0.4,1.1-0.5s0.9-0.2,1.3-0.2
			c0.8,0,1.4,0.2,1.9,0.6c0.5,0.4,0.7,0.9,0.7,1.6v2.6c0,0.1,0,0.2,0,0.3s0,0.2,0,0.2l0.5,0.1v1H314z M312.5,102.3
			c0.3,0,0.5-0.1,0.7-0.2c0.2-0.1,0.4-0.3,0.5-0.4v-1h-0.9c-0.4,0-0.6,0.1-0.8,0.3s-0.3,0.4-0.3,0.6c0,0.2,0.1,0.4,0.2,0.5
			C312,102.2,312.2,102.3,312.5,102.3z"/>
	</g>
	<g class="st3">
		<path class="st15" d="M316.7,102.4l0.8-0.2v-3.9l-0.9-0.2v-1h2.5l0.1,0.9c0.1-0.3,0.3-0.6,0.6-0.8c0.2-0.2,0.5-0.3,0.8-0.3
			c0.1,0,0.2,0,0.3,0c0.1,0,0.2,0,0.3,0l-0.2,1.6l-0.7,0c-0.3,0-0.5,0-0.6,0.1s-0.3,0.2-0.4,0.4v3.1l0.8,0.2v1h-3.4V102.4z"/>
	</g>
	<g class="st3">
		<path class="st15" d="M324.6,103.5c-0.9,0-1.7-0.3-2.2-0.9c-0.6-0.6-0.8-1.3-0.8-2.2v-0.2c0-0.9,0.3-1.7,0.8-2.3s1.2-0.9,2.1-0.9
			c0.9,0,1.5,0.3,2,0.8c0.5,0.5,0.7,1.2,0.7,2.1v0.9h-3.8l0,0c0,0.4,0.2,0.8,0.4,1c0.3,0.3,0.6,0.4,1,0.4c0.4,0,0.7,0,1-0.1
			c0.3-0.1,0.5-0.2,0.8-0.4l0.5,1.1c-0.3,0.2-0.6,0.4-1,0.5S325.1,103.5,324.6,103.5z M324.5,98.3c-0.3,0-0.6,0.1-0.8,0.4
			s-0.3,0.6-0.3,1l0,0h2.1v-0.2c0-0.4-0.1-0.7-0.3-0.9S324.8,98.3,324.5,98.3z"/>
		<path class="st15" d="M327.9,102.4l0.8-0.2v-3.9l-0.9-0.2v-1h2.5l0.1,0.9c0.2-0.3,0.5-0.6,0.8-0.8c0.3-0.2,0.7-0.3,1-0.3
			c0.6,0,1.2,0.2,1.5,0.6s0.5,1,0.5,1.9v2.8l0.8,0.2v1h-3.3v-1l0.7-0.2v-2.8c0-0.4-0.1-0.7-0.3-0.9c-0.2-0.2-0.4-0.3-0.8-0.3
			c-0.2,0-0.4,0-0.6,0.1c-0.2,0.1-0.3,0.2-0.5,0.4v3.4l0.7,0.2v1h-3.3V102.4z"/>
		<path class="st15" d="M338.3,95.5v1.6h1.1v1.2h-1.1v3.2c0,0.2,0.1,0.4,0.2,0.5c0.1,0.1,0.2,0.2,0.4,0.2c0.1,0,0.2,0,0.3,0
			s0.2,0,0.3,0l0.1,1.2c-0.2,0.1-0.4,0.1-0.6,0.1c-0.2,0-0.4,0-0.6,0c-0.6,0-1.1-0.2-1.4-0.5c-0.3-0.3-0.5-0.8-0.5-1.5v-3.2h-0.9
			v-1.2h0.9v-1.6H338.3z"/>
	</g>
	<g class="st3">
		<path class="st15" d="M205.9,118.8v2.3h-1.3l-0.1-1h-1.6v6l0.9,0.2v1h-3.6v-1l0.9-0.2v-6h-1.6l-0.1,1h-1.3v-2.3H205.9z"/>
	</g>
	<g class="st3">
		<path class="st15" d="M213.4,121.7h-1.3l-0.2-1.1c-0.2-0.2-0.4-0.3-0.6-0.4s-0.6-0.1-0.9-0.1c-0.8,0-1.3,0.3-1.7,0.8
			c-0.4,0.5-0.6,1.2-0.6,2.1v0.3c0,0.9,0.2,1.6,0.6,2.1c0.4,0.5,1,0.8,1.7,0.8c0.3,0,0.6,0,0.9-0.1s0.5-0.2,0.7-0.4l0.2-1.1h1.3v1.7
			c-0.3,0.4-0.8,0.7-1.3,1s-1.1,0.4-1.8,0.4c-1.2,0-2.1-0.4-2.8-1.2s-1.1-1.8-1.1-3.1V123c0-1.2,0.4-2.3,1.1-3.1
			c0.7-0.8,1.7-1.2,2.8-1.2c0.7,0,1.3,0.1,1.8,0.4s1,0.6,1.3,1V121.7z"/>
		<path class="st15" d="M218.2,118.8c1,0,1.8,0.3,2.3,0.8c0.6,0.5,0.9,1.2,0.9,2c0,0.8-0.3,1.5-0.9,2c-0.6,0.5-1.3,0.7-2.3,0.7h-1.5
			v1.9l0.9,0.2v1h-3.6v-1l0.9-0.2v-6.1l-0.9-0.2v-1h0.9H218.2z M216.8,123h1.5c0.5,0,0.8-0.1,1.1-0.4s0.4-0.6,0.4-1
			c0-0.4-0.1-0.7-0.4-1s-0.6-0.4-1.1-0.4h-1.5V123z"/>
	</g>
	<path class="st18" d="M305.1,111.3c3.8,0,6.8,5.4,6.8,12c0,6.6-3,12-6.8,12"/>
	<g class="st3">
		<path class="st15" d="M301,143.8v2.3h-1.3l-0.1-1H298v6l0.9,0.2v1h-3.6v-1l0.9-0.2v-6h-1.6l-0.1,1h-1.3v-2.3H301z"/>
		<path class="st15" d="M301.6,152.4v-1l0.9-0.2V145l-0.9-0.2v-1h0.9h1.7h0.9v1l-0.9,0.2v6h2.4l0.1-1.1h1.3v2.4H301.6z"/>
		<path class="st15" d="M315.2,146.6h-1.3l-0.2-1.2c-0.2-0.1-0.4-0.2-0.7-0.2s-0.6-0.1-0.9-0.1c-0.5,0-0.8,0.1-1.1,0.3
			c-0.3,0.2-0.4,0.5-0.4,0.8c0,0.3,0.1,0.5,0.4,0.7s0.7,0.4,1.4,0.6c1,0.3,1.7,0.6,2.2,1s0.7,1,0.7,1.7c0,0.7-0.3,1.3-0.9,1.7
			s-1.4,0.6-2.3,0.6c-0.7,0-1.3-0.1-1.8-0.3c-0.6-0.2-1-0.5-1.4-0.9v-1.8h1.3l0.2,1.2c0.2,0.1,0.4,0.3,0.7,0.3s0.6,0.1,1,0.1
			c0.5,0,0.8-0.1,1.1-0.3s0.4-0.4,0.4-0.8c0-0.3-0.1-0.6-0.4-0.8c-0.2-0.2-0.6-0.4-1.2-0.6c-1-0.3-1.8-0.6-2.3-1
			c-0.5-0.4-0.8-1-0.8-1.7c0-0.7,0.3-1.3,0.9-1.7s1.3-0.7,2.2-0.7c0.7,0,1.3,0.1,1.8,0.3c0.5,0.2,1,0.5,1.4,0.8V146.6z"/>
	</g>
	<circle class="st15" cx="234.1" cy="123.4" r="3.8"/>
	<g class="st3">
		<path class="st15" d="M399.2,118.8v2.3h-1.3l-0.1-1h-1.6v6l0.9,0.2v1h-3.6v-1l0.9-0.2v-6h-1.6l-0.1,1h-1.3v-2.3H399.2z"/>
	</g>
	<g class="st3">
		<path class="st15" d="M406.7,121.7h-1.3l-0.2-1.1c-0.2-0.2-0.4-0.3-0.6-0.4c-0.3-0.1-0.6-0.1-0.9-0.1c-0.8,0-1.3,0.3-1.7,0.8
			s-0.6,1.2-0.6,2.1v0.3c0,0.9,0.2,1.6,0.6,2.1c0.4,0.5,1,0.8,1.7,0.8c0.3,0,0.7,0,0.9-0.1c0.3-0.1,0.5-0.2,0.7-0.4l0.2-1.1h1.3v1.7
			c-0.3,0.4-0.8,0.7-1.3,1c-0.5,0.2-1.1,0.4-1.8,0.4c-1.2,0-2.1-0.4-2.8-1.2c-0.7-0.8-1.1-1.8-1.1-3.1V123c0-1.2,0.4-2.3,1.1-3.1
			c0.7-0.8,1.7-1.2,2.8-1.2c0.7,0,1.3,0.1,1.8,0.4c0.5,0.2,1,0.6,1.3,1V121.7z"/>
		<path class="st15" d="M411.6,118.8c1,0,1.8,0.3,2.3,0.8c0.6,0.5,0.9,1.2,0.9,2c0,0.8-0.3,1.5-0.9,2c-0.6,0.5-1.3,0.7-2.3,0.7h-1.5
			v1.9l0.9,0.2v1h-3.6v-1l0.9-0.2v-6.1l-0.9-0.2v-1h0.9H411.6z M410.1,123h1.5c0.5,0,0.8-0.1,1.1-0.4c0.2-0.3,0.4-0.6,0.4-1
			c0-0.4-0.1-0.7-0.4-1c-0.2-0.3-0.6-0.4-1.1-0.4h-1.5V123z"/>
	</g>
	<circle class="st15" cx="379.7" cy="123.4" r="3.8"/>
	<path class="st20" d="M545.5,70.7H383.7c-2.8,0-5,2.2-5,5v35H234.1v-35c0-2.8-2.2-5-5-5H67.3c-2.8,0-5,2.2-5,5v111.1
		c0,2.8,2.2,5,5,5h161.8c2.8,0,5-2.2,5-5v-50.4h144.6v50.4c0,2.8,2.2,5,5,5h161.8c2.8,0,5-2.2,5-5V75.7
		C550.5,72.9,548.2,70.7,545.5,70.7z"/>
	<path class="st21" d="M138.9,58.9c4.6-4.5,12.1-4.5,16.6,0.1c4.5,4.6,4.5,12.1-0.1,16.6c-4.6,4.5-12.1,4.5-16.6-0.1
		c-2.2-2.2-3.4-5.1-3.4-8.2c0-2.6,0.8-5.1,2.4-7.1"/>
	<path class="st8" d="M147.1,72.9h-4.3c-0.6,0-0.8-0.2-0.8-0.8v-6.5c0-0.6,0.2-0.8,0.8-0.8h8.5c0.6,0,0.8,0.2,0.8,0.8v6.5
		c0,0.5-0.2,0.8-0.8,0.8C150,73,148.5,72.9,147.1,72.9z"/>
	<path class="st8" d="M142.8,64.3c0-1.8,1-3.4,2.6-4.1c2.1-0.9,4.6,0,5.5,2.2c0.1,0.2,0.2,0.4,0.2,0.7c0.1,0.4,0.1,0.8,0.2,1.2"/>
	<path class="st15" d="M146.4,70.2L146.4,70.2v0.9c0,0.2,0.1,0.2,0.3,0.2h0.8c0.2,0,0.3-0.1,0.3-0.3v-1.6c0-0.2,0.1-0.3,0.2-0.4
		c0.5-0.3,0.8-0.9,0.6-1.4c-0.2-0.6-0.8-1-1.4-1c-0.7-0.1-1.3,0.3-1.6,0.9c-0.2,0.6,0,1.2,0.5,1.5c0.2,0.1,0.3,0.3,0.3,0.5
		C146.4,69.7,146.4,69.9,146.4,70.2z"/>
	<path class="st21" d="M455.3,58.9c4.6-4.5,12.1-4.5,16.6,0.1s4.5,12.1-0.1,16.6c-4.6,4.5-12.1,4.5-16.6-0.1
		c-2.2-2.2-3.4-5.1-3.4-8.2c0-2.6,0.8-5.1,2.4-7.1"/>
	<path class="st8" d="M463.5,72.9h-4.3c-0.6,0-0.8-0.2-0.8-0.8v-6.5c0-0.6,0.2-0.8,0.8-0.8h8.5c0.5,0,0.8,0.2,0.8,0.8v6.5
		c0,0.5-0.2,0.8-0.8,0.8C466.3,73,464.9,72.9,463.5,72.9z"/>
	<path class="st8" d="M459.2,64.3c0-1.8,1-3.4,2.6-4.1c2.1-0.9,4.6,0,5.5,2.2c0.1,0.2,0.2,0.4,0.2,0.7c0.1,0.4,0.1,0.8,0.2,1.2"/>
	<path class="st15" d="M462.8,70.2L462.8,70.2v0.9c0,0.2,0.1,0.2,0.3,0.2h0.8c0.2,0,0.3-0.1,0.3-0.3v-1.6c0-0.2,0.1-0.3,0.2-0.4
		c0.5-0.3,0.8-0.9,0.6-1.4c-0.2-0.6-0.8-1-1.4-1c-0.7-0.1-1.3,0.3-1.6,0.9c-0.2,0.6,0,1.2,0.5,1.5c0.2,0.1,0.3,0.3,0.3,0.5
		C462.8,69.7,462.8,69.9,462.8,70.2z"/>
</g>
</svg>
