<svg xmlns="http://www.w3.org/2000/svg" xmlns:xlink="http://www.w3.org/1999/xlink" viewBox="0 0 424.43 196.19"><defs><style>.cls-1,.cls-11,.cls-13,.cls-6,.cls-7,.cls-9{fill:none;}.cls-1,.cls-2,.cls-9{stroke:#c30;}.cls-1,.cls-11,.cls-13,.cls-6{stroke-miterlimit:10;}.cls-1,.cls-11,.cls-13,.cls-2,.cls-6,.cls-7,.cls-9{stroke-width:2px;}.cls-1,.cls-13{stroke-dasharray:2 2;}.cls-12,.cls-18,.cls-2{fill:#fff;}.cls-2,.cls-7,.cls-9{stroke-linecap:round;stroke-linejoin:round;}.cls-3{opacity:0.5;}.cls-4{fill:url(#Unbenannter_Verlauf_12);}.cls-5{fill:url(#Unbenannter_Verlauf_12-2);}.cls-13,.cls-6,.cls-7{stroke:#fc0;}.cls-14,.cls-8{fill:#fc0;}.cls-10{fill:#c30;}.cls-11{stroke:#fff;}.cls-14,.cls-22{font-size:12px;font-family:RobotoSlab-Bold, Roboto Slab;font-weight:700;}.cls-15{letter-spacing:-0.01em;}.cls-16{letter-spacing:0em;}.cls-17{letter-spacing:0.01em;}.cls-18{font-size:11px;font-family:PTSans-Regular, PT Sans;}.cls-19{letter-spacing:-0.01em;}.cls-20{letter-spacing:-0.01em;}.cls-21{letter-spacing:-0.02em;}.cls-22{fill:#306;}.cls-23{letter-spacing:-0.01em;}.cls-24{letter-spacing:0em;}.cls-25{letter-spacing:-0.03em;}</style><linearGradient id="Unbenannter_Verlauf_12" x1="156.6" y1="123.31" x2="333.89" y2="123.31" gradientUnits="userSpaceOnUse"><stop offset="0" stop-color="#906"/><stop offset="0.19" stop-color="#780066"/><stop offset="0.4" stop-color="#5a0066"/><stop offset="0.61" stop-color="#406"/><stop offset="0.81" stop-color="#370066"/><stop offset="1" stop-color="#306"/></linearGradient><linearGradient id="Unbenannter_Verlauf_12-2" x1="46.6" y1="123.31" x2="156.6" y2="123.31" xlink:href="#Unbenannter_Verlauf_12"/></defs><title>tlworkflow</title><g id="Ebene_2" data-name="Ebene 2"><path class="cls-1" d="M237.53,174.81v12.48a5,5,0,0,0,5,5h100a5,5,0,0,0,5-5v-128a5,5,0,0,0-5-5h-100a5,5,0,0,0-5,5V74.22"/><path class="cls-2" d="M342.62,50.34a2.87,2.87,0,0,0-3.6-1.19c-2.25.87-1.26,3.63-1.26,3.63s-5.14-.07-4.58,5.19c.42,3.85,4.58,3.63,4.43,3.63-6.19,0,12.39,0,18.58,0a4.59,4.59,0,0,0,2.64-1,4,4,0,0,0,1.29-4.74c-.65-1.83-3-2.78-4.87-2.88,0,0,1.1-4.88-2.41-7a6.63,6.63,0,0,0-8.1.6A7.57,7.57,0,0,0,342.62,50.34Z"/><g class="cls-3"><path class="cls-4" d="M328.89,72.42H156.6v25.7h88.47A4.9,4.9,0,0,1,250,103V143.6a4.9,4.9,0,0,1-4.9,4.9H156.6v25.7H328.89a5,5,0,0,0,5-5V77.42A5,5,0,0,0,328.89,72.42Z"/></g><path class="cls-5" d="M156.6,73.22V59.33a5,5,0,0,0-5-5H51.6a5,5,0,0,0-5,5v128a5,5,0,0,0,5,5h100a5,5,0,0,0,5-5V173.2"/><path class="cls-6" d="M156.6,73.22V59.33a5,5,0,0,0-5-5H51.6a5,5,0,0,0-5,5v128a5,5,0,0,0,5,5h100a5,5,0,0,0,5-5V173.2"/><path class="cls-7" d="M33.4,21.19H29.16c-.58,0-.81-.23-.81-.8V13.92c0-.57.23-.8.81-.8h8.45c.55,0,.77.23.77.77v6.5c0,.54-.22.77-.77.77C36.2,21.22,34.78,21.19,33.4,21.19Z"/><path class="cls-7" d="M29,12.56a4.52,4.52,0,0,1,2.64-4.14,4.21,4.21,0,0,1,5.78,2.86c.1.38.13.77.23,1.18"/><path class="cls-8" d="M32.69,18.43h0v.86c0,.16.07.23.26.23h.84c.22,0,.29-.07.29-.26V17.65a.36.36,0,0,1,.22-.38,1.21,1.21,0,0,0,.61-1.45,1.53,1.53,0,0,0-1.44-1,1.64,1.64,0,0,0-1.61.86,1.21,1.21,0,0,0,.54,1.52.41.41,0,0,1,.26.48A5.78,5.78,0,0,1,32.69,18.43Z"/><path class="cls-9" d="M360.79,20.79h-4.24c-.58,0-.81-.23-.81-.8V13.52c0-.58.23-.8.81-.8H365c.55,0,.77.22.77.77V20c0,.54-.22.77-.77.77C363.59,20.82,362.17,20.79,360.79,20.79Z"/><path class="cls-9" d="M359.42,4.54a4.5,4.5,0,0,1,4.85.71,4.21,4.21,0,0,1-.23,6.44c-.31.25-.65.44-1,.7"/><path class="cls-10" d="M360.08,18h0v.87c0,.16.07.23.26.23h.84c.22,0,.29-.07.29-.26V17.25a.36.36,0,0,1,.22-.38,1.21,1.21,0,0,0,.61-1.45,1.53,1.53,0,0,0-1.45-1,1.62,1.62,0,0,0-1.6.86,1.21,1.21,0,0,0,.54,1.52.41.41,0,0,1,.26.48A5.7,5.7,0,0,1,360.08,18Z"/><polyline class="cls-11" points="107.52 96.39 83.45 96.39 83.45 72.32"/><circle class="cls-12" cx="90.68" cy="74.22" r="1"/><circle class="cls-12" cx="97.78" cy="83.64" r="1"/><circle class="cls-12" cx="97.78" cy="77.22" r="1"/><circle class="cls-12" cx="105.66" cy="88.03" r="1"/><circle class="cls-12" cx="88.68" cy="85.35" r="1"/><circle class="cls-12" cx="92.98" cy="91.03" r="1"/><polyline class="cls-11" points="138.5 96.39 114.43 96.39 114.43 72.32"/><path class="cls-11" d="M114.59,84.35h3.49s.64-8.13,3.54-8.13c2.45,0,2.88,13.81,5.83,13.81,2.48,0,2.73-8.86,4.63-8.78,1.62.06,1.72,5.76,3,5.78,1.13,0,1.72-2.45,1.72-2.45"/><polyline class="cls-11" points="137.26 173.97 112.05 173.97 112.05 148.77"/><rect class="cls-12" x="115.78" y="148.77" width="3.83" height="23.05"/><rect class="cls-12" x="121.52" y="159.07" width="3.83" height="12.75"/><rect class="cls-12" x="127.27" y="154.13" width="3.83" height="17.68"/><rect class="cls-12" x="133.01" y="164.76" width="3.83" height="7.06"/><line class="cls-13" x1="144.02" y1="85.35" x2="210.08" y2="85.35"/><polygon class="cls-8" points="205.44 91.08 204.49 90.05 209.54 85.36 204.49 80.66 205.44 79.63 211.6 85.36 205.44 91.08"/><line class="cls-13" x1="211.12" y1="160.92" x2="142.44" y2="160.92"/><polygon class="cls-8" points="147.08 155.19 148.03 156.22 142.98 160.91 148.03 165.62 147.08 166.64 140.92 160.91 147.08 155.19"/><path class="cls-6" d="M156.6,72.42H328.89a5,5,0,0,1,5,5V169.2a5,5,0,0,1-5,5H156.6"/><path class="cls-6" d="M156.6,97.18V148.5h88.47a4.9,4.9,0,0,0,4.9-4.9V103a4.9,4.9,0,0,0-4.9-4.9H156.6"/><line class="cls-1" x1="237.53" y1="98.48" x2="237.53" y2="146.89"/></g><g id="schrift"><text class="cls-14" transform="translate(162.01 119) scale(1.01 1)">alw<tspan class="cls-15" x="20.04" y="0">a</tspan><tspan x="26.54" y="0">ys </tspan><tspan x="0" y="14.4">e</tspan><tspan class="cls-16" x="6.39" y="14.4">n</tspan><tspan x="13.95" y="14.4">c</tspan><tspan class="cls-17" x="20.27" y="14.4">r</tspan><tspan x="25.43" y="14.4">ypted</tspan></text><text class="cls-18" transform="translate(55.06 87.63)">data</text><text class="cls-18" transform="translate(215.96 88.37)">encryp<tspan class="cls-19" x="31.38" y="0">t</tspan><tspan x="34.99" y="0">ed data</tspan></text><text class="cls-18" transform="translate(215.96 164.07)">encryp<tspan class="cls-20" x="31.38" y="0">t</tspan><tspan x="34.99" y="0">ed pro</tspan><tspan class="cls-21" x="65.02" y="0">c</tspan><tspan x="69.73" y="0">essing</tspan></text><text class="cls-22" transform="translate(290.68 20.96)">Untrusted <tspan class="cls-23" x="-46.19" y="14.4">r</tspan><tspan x="-41.25" y="14.4">e</tspan><tspan class="cls-24" x="-34.86" y="14.4">m</tspan><tspan x="-23.75" y="14.4">ote computers</tspan></text><text class="cls-22" transform="translate(45.64 20.49)"><tspan class="cls-25">T</tspan><tspan x="7.69" y="0">rusted</tspan><tspan x="0" y="14.4">client computer</tspan></text></g></svg>