<?xml version="1.0" encoding="utf-8"?>
<!-- Generator: Adobe Illustrator 24.0.0, SVG Export Plug-In . SVG Version: 6.00 Build 0)  -->
<svg version="1.1" id="Ebene_1" xmlns="http://www.w3.org/2000/svg" xmlns:xlink="http://www.w3.org/1999/xlink" x="0px" y="0px"
	 viewBox="0 0 450.4 247.4" style="enable-background:new 0 0 450.4 247.4;" xml:space="preserve">
<style type="text/css">
	.st0{fill:none;stroke:#CC3300;stroke-width:2;stroke-miterlimit:10;stroke-dasharray:2,2;}
	.st1{opacity:0.2;}
	.st2{fill:#FFCC99;}
	.st3{opacity:0.7;}
	.st4{fill:url(#SVGID_1_);}
	.st5{fill:url(#SVGID_2_);}
	.st6{fill:none;stroke:#FFCC00;stroke-width:2;stroke-miterlimit:10;}
	.st7{fill:none;stroke:#CC3300;stroke-width:2;stroke-linecap:round;stroke-linejoin:round;}
	.st8{fill:#CC3300;}
	.st9{fill:none;stroke:#FFFFFF;stroke-width:2;stroke-miterlimit:10;}
	.st10{fill:#FFFFFF;}
	.st11{fill:none;stroke:#FFCC00;stroke-width:2;stroke-miterlimit:10;stroke-dasharray:2,2;}
	.st12{fill:#FFCC00;}
	.st13{fill:#FFFFFF;stroke:#FFCC00;stroke-width:2;stroke-linecap:round;stroke-linejoin:round;}
	.st14{fill:none;stroke:#FFCC00;stroke-width:2;stroke-linecap:round;stroke-linejoin:round;}
	.st15{enable-background:new    ;}
	.st16{fill:#330066;}
	.st17{fill:#FFFFFF;stroke:#CC3300;stroke-width:2;stroke-linecap:round;stroke-linejoin:round;}
</style>
<g id="Ebene_1_1_">
	<path class="st0" d="M241.5,214v23.4c0,3.4,2.1,6.1,4.7,6.1h117.9c2.6,0,4.7-2.7,4.7-6.1V81.2c0-3.4-2.1-6.1-4.7-6.1H246.2
		c-2.6,0-4.7,2.7-4.7,6.1v27.5"/>
	<g class="st1">
		<path class="st2" d="M241.5,212.4v25c0,3.4,2.1,6.1,4.7,6.1h117.9c2.6,0,4.7-2.7,4.7-6.1V81.2c0-3.4-2.1-6.1-4.7-6.1H246.2
			c-2.6,0-4.7,2.7-4.7,6.1v29.3"/>
	</g>
	<path class="st0" d="M165,109.6V81.2c0.1-3.3-2.5-6-5.8-6.1H42.4c-3.3,0.1-5.9,2.8-5.8,6.1v156.2c-0.1,3.3,2.5,6,5.8,6.1h116.8
		c3.3-0.1,5.9-2.8,5.8-6.1v-27.5"/>
	<g class="st1">
		<path class="st2" d="M166,112.2v-28c0-6.4-2.6-9.1-5.8-9.1H43.4c-3.3,0.1-5.9,2.8-5.8,6.1v156.2c-0.1,3.3,2.5,6,5.8,6.1h116.8
			c3.3-0.1,5.9-2.8,5.8-6.1v-29.3"/>
	</g>
</g>
<g id="Ebene_2_1_">
	<g class="st3">
		
			<linearGradient id="SVGID_1_" gradientUnits="userSpaceOnUse" x1="156.6" y1="88.49" x2="357.89" y2="88.49" gradientTransform="matrix(1 0 0 -1 0 250)">
			<stop  offset="0" style="stop-color:#990066"/>
			<stop  offset="0.19" style="stop-color:#780066"/>
			<stop  offset="0.4" style="stop-color:#5A0066"/>
			<stop  offset="0.61" style="stop-color:#440066"/>
			<stop  offset="0.81" style="stop-color:#370066"/>
			<stop  offset="1" style="stop-color:#330066"/>
		</linearGradient>
		<path class="st4" d="M352.9,110.6H156.6v25.7h88.5c2.7,0,4.9,2.2,4.9,4.9v40.6c0,2.7-2.2,4.9-4.9,4.9c0,0,0,0,0,0h-88.5v25.7
			h196.3c2.8,0,5-2.2,5-5v-91.8C357.9,112.9,355.7,110.6,352.9,110.6z"/>
	</g>
	
		<linearGradient id="SVGID_2_" gradientUnits="userSpaceOnUse" x1="46.6" y1="88.47" x2="156.6" y2="88.47" gradientTransform="matrix(1 0 0 -1 0 250)">
		<stop  offset="0" style="stop-color:#990066"/>
		<stop  offset="0.19" style="stop-color:#780066"/>
		<stop  offset="0.4" style="stop-color:#5A0066"/>
		<stop  offset="0.61" style="stop-color:#440066"/>
		<stop  offset="0.81" style="stop-color:#370066"/>
		<stop  offset="1" style="stop-color:#330066"/>
	</linearGradient>
	<path class="st5" d="M156.6,111.4V97.5c0-2.8-2.2-5-5-5h-100c-2.8,0-5,2.2-5,5v128c0,2.8,2.2,5,5,5h100c2.8,0,5-2.2,5-5v-14.1"/>
	<path class="st6" d="M156.6,111.4V97.5c0-2.8-2.2-5-5-5h-100c-2.8,0-5,2.2-5,5v128c0,2.8,2.2,5,5,5h100c2.8,0,5-2.2,5-5v-14.1"/>
	<path class="st7" d="M382.2,41.5H378c-0.6,0-0.8-0.2-0.8-0.8v-6.5c0-0.6,0.2-0.8,0.8-0.8h8.5c0.5,0,0.8,0.2,0.8,0.8v6.5
		c0,0.5-0.2,0.8-0.8,0.8C385,41.5,383.6,41.5,382.2,41.5z"/>
	<path class="st7" d="M380.9,25.3c1.6-0.7,3.5-0.5,4.9,0.7c1.7,1.6,1.9,4.2,0.3,5.9c-0.2,0.2-0.3,0.3-0.5,0.5
		c-0.3,0.3-0.6,0.4-1,0.7"/>
	<path class="st8" d="M381.5,38.7L381.5,38.7v0.9c0,0.2,0.1,0.2,0.3,0.2h0.8c0.2,0,0.3-0.1,0.3-0.3V38c0-0.2,0.1-0.3,0.2-0.4
		c0.5-0.3,0.8-0.9,0.6-1.5c-0.2-0.6-0.8-1-1.5-1c-0.7-0.1-1.3,0.3-1.6,0.9c-0.2,0.6,0,1.2,0.5,1.5c0.2,0.1,0.3,0.3,0.3,0.5
		C381.5,38.3,381.5,38.5,381.5,38.7z"/>
	<path class="st7" d="M23.3,41.5h-4.2c-0.6,0-0.8-0.2-0.8-0.8v-6.5c0-0.6,0.2-0.8,0.8-0.8h8.5c0.5,0,0.8,0.2,0.8,0.8v6.5
		c0,0.5-0.2,0.8-0.8,0.8C26.1,41.5,24.7,41.5,23.3,41.5z"/>
	<path class="st7" d="M22,25.3c1.6-0.7,3.5-0.5,4.9,0.7c1.7,1.5,1.9,4.2,0.3,5.9c-0.2,0.2-0.4,0.4-0.6,0.5c-0.3,0.3-0.6,0.4-1,0.7"
		/>
	<path class="st8" d="M22.6,38.8L22.6,38.8v0.9c0,0.2,0.1,0.2,0.3,0.2h0.8c0.2,0,0.3-0.1,0.3-0.3V38c0-0.2,0.1-0.3,0.2-0.4
		c0.5-0.3,0.8-0.9,0.6-1.4c-0.2-0.6-0.8-1-1.5-1c-0.7-0.1-1.3,0.3-1.6,0.9c-0.2,0.6,0,1.2,0.5,1.5c0.2,0.1,0.3,0.3,0.3,0.5
		C22.6,38.3,22.6,38.5,22.6,38.8z"/>
	<polyline class="st9" points="107.5,136.6 83.4,136.6 83.4,112.5 	"/>
	<circle class="st10" cx="90.7" cy="114.4" r="1"/>
	<circle class="st10" cx="97.8" cy="123.8" r="1"/>
	<circle class="st10" cx="97.8" cy="117.4" r="1"/>
	<circle class="st10" cx="105.7" cy="128.2" r="1"/>
	<circle class="st10" cx="88.7" cy="125.6" r="1"/>
	<circle class="st10" cx="93" cy="131.2" r="1"/>
	<polyline class="st9" points="138.5,136.6 114.4,136.6 114.4,112.5 	"/>
	<path class="st9" d="M114.6,124.6h3.5c0,0,0.6-8.1,3.5-8.1c2.4,0,2.9,13.8,5.8,13.8c2.5,0,2.7-8.9,4.6-8.8c1.6,0.1,1.7,5.8,3,5.8
		c1.1,0,1.7-2.4,1.7-2.4"/>
	<polyline class="st9" points="127.6,210.4 102.3,210.4 102.3,185.3 	"/>
	<rect x="106.1" y="185.3" class="st10" width="3.8" height="23.1"/>
	<rect x="111.8" y="195.6" class="st10" width="3.8" height="12.8"/>
	<rect x="117.6" y="190.6" class="st10" width="3.8" height="17.7"/>
	<rect x="123.3" y="201.2" class="st10" width="3.8" height="7.1"/>
	<path class="st6" d="M156.6,136.3h88.5c2.7,0,4.9,2.2,4.9,4.9v40.6c0,2.7-2.2,4.9-4.9,4.9c0,0,0,0,0,0h-88.5V136.3z"/>
	<path class="st6" d="M156.6,212.4h196.3c2.8,0,5-2.2,5-5v-91.8c0-2.8-2.2-5-5-5H156.6"/>
	<line class="st0" x1="165" y1="137.3" x2="165" y2="185.7"/>
	<line class="st0" x1="240.5" y1="137.3" x2="240.5" y2="185.7"/>
	<line class="st11" x1="144" y1="123.6" x2="210.1" y2="123.6"/>
	<polygon class="st12" points="205.4,129.3 204.5,128.3 209.5,123.6 204.5,118.8 205.4,117.8 211.6,123.6 	"/>
	<line class="st11" x1="211.1" y1="199.1" x2="142.4" y2="199.1"/>
	<polygon class="st12" points="147.1,193.4 148,194.4 143,199.1 148,203.8 147.1,204.8 140.9,199.1 	"/>
	<path class="st13" d="M91.1,83.2c4.6-4.5,12.1-4.5,16.6,0.2s4.5,12.1-0.2,16.6s-12.1,4.5-16.6-0.2c-2.1-2.2-3.4-5.1-3.4-8.2
		c0-2.6,0.8-5.1,2.4-7.1"/>
	<path class="st14" d="M99.4,97.2h-4.2c-0.6,0-0.8-0.2-0.8-0.8v-6.5c0-0.6,0.2-0.8,0.8-0.8h8.5c0.5,0,0.8,0.2,0.8,0.8v6.5
		c0,0.6-0.2,0.8-0.8,0.8C102.2,97.2,100.8,97.2,99.4,97.2z"/>
	<path class="st14" d="M95,88.5c0-1.8,1-3.4,2.6-4.1c2.1-0.9,4.6,0,5.5,2.1c0.1,0.2,0.2,0.5,0.2,0.7c0.1,0.4,0.1,0.8,0.2,1.2"/>
	<path class="st12" d="M98.7,94.4L98.7,94.4v0.9c0,0.2,0.1,0.2,0.3,0.2h0.8c0.2,0,0.3-0.1,0.3-0.3v-1.6c0-0.2,0.1-0.3,0.2-0.4
		c0.5-0.3,0.8-0.9,0.6-1.4c-0.2-0.6-0.8-1-1.4-1c-0.7-0.1-1.3,0.3-1.6,0.9c-0.2,0.6,0,1.2,0.6,1.5c0.2,0.1,0.3,0.3,0.3,0.5
		C98.7,93.9,98.7,94.2,98.7,94.4z"/>
	<path class="st13" d="M295.9,101.1c4.6-4.5,12.1-4.5,16.6,0.1c4.5,4.6,4.5,12.1-0.1,16.6c-4.6,4.5-12.1,4.5-16.6-0.1
		c-2.2-2.2-3.4-5.1-3.4-8.2c0-2.6,0.8-5.1,2.4-7.1"/>
	<path class="st14" d="M304.2,115.2H300c-0.6,0-0.8-0.2-0.8-0.8v-6.5c0-0.6,0.2-0.8,0.8-0.8h8.5c0.5,0,0.8,0.2,0.8,0.8v6.5
		c0,0.6-0.2,0.8-0.8,0.8C307,115.2,305.6,115.2,304.2,115.2z"/>
	<path class="st14" d="M299.8,106.5c0-1.8,1-3.4,2.6-4.1c2.1-0.9,4.6,0,5.5,2.1c0.1,0.2,0.2,0.5,0.2,0.7c0.1,0.4,0.1,0.8,0.2,1.2"/>
	<path class="st12" d="M303.5,112.4L303.5,112.4v0.9c0,0.2,0.1,0.2,0.3,0.2h0.8c0.2,0,0.3-0.1,0.3-0.3v-1.6c0-0.2,0.1-0.3,0.2-0.4
		c0.5-0.3,0.8-0.9,0.6-1.4c-0.2-0.6-0.8-1-1.4-1c-0.7-0.1-1.3,0.3-1.6,0.9c-0.2,0.6,0,1.2,0.5,1.5c0.2,0.1,0.3,0.3,0.3,0.5
		C303.5,111.9,303.5,112.2,303.5,112.4z"/>
</g>
<g id="schrift">
	<g class="st15">
		<path class="st12" d="M177.6,160.2c0-0.1-0.1-0.2-0.1-0.3c0-0.1-0.1-0.2-0.1-0.3c-0.2,0.2-0.5,0.4-0.7,0.6s-0.6,0.2-1,0.2
			c-0.6,0-1.1-0.2-1.5-0.5s-0.6-0.8-0.6-1.4c0-0.6,0.2-1.1,0.7-1.4c0.5-0.3,1.2-0.5,2.1-0.5h0.9V156c0-0.3-0.1-0.5-0.3-0.7
			s-0.4-0.3-0.8-0.3c-0.2,0-0.4,0-0.5,0.1s-0.3,0.1-0.4,0.2l-0.1,0.7H174l0-1.4c0.3-0.2,0.7-0.4,1.1-0.5s0.9-0.2,1.3-0.2
			c0.8,0,1.4,0.2,1.9,0.6s0.7,0.9,0.7,1.6v2.6c0,0.1,0,0.2,0,0.3c0,0.1,0,0.2,0,0.2l0.5,0.1v1H177.6z M176.1,159.1
			c0.3,0,0.5-0.1,0.7-0.2c0.2-0.1,0.4-0.3,0.5-0.4v-1h-0.9c-0.4,0-0.6,0.1-0.8,0.3c-0.2,0.2-0.3,0.4-0.3,0.6c0,0.2,0.1,0.4,0.2,0.5
			S175.9,159.1,176.1,159.1z"/>
		<path class="st12" d="M180,152.1v-1h2.7v7.9l0.8,0.2v1h-3.4v-1l0.8-0.2v-6.7L180,152.1z"/>
		<path class="st12" d="M193.2,154.9l-0.6,0.1l-1.3,5.2h-1.4l-1.2-3.8h0l-1.2,3.8h-1.4l-1.3-5.2l-0.6-0.1v-1h2.9v1l-0.7,0.1l0.6,2.9
			h0l1.2-4.1h1.2l1.2,4.1h0l0.6-2.9l-0.7-0.1v-1h2.9V154.9z"/>
	</g>
	<g class="st15">
		<path class="st12" d="M197.9,160.2c0-0.1-0.1-0.2-0.1-0.3c0-0.1-0.1-0.2-0.1-0.3c-0.2,0.2-0.5,0.4-0.7,0.6s-0.6,0.2-1,0.2
			c-0.6,0-1.1-0.2-1.5-0.5s-0.6-0.8-0.6-1.4c0-0.6,0.2-1.1,0.7-1.4c0.5-0.3,1.2-0.5,2.1-0.5h0.9V156c0-0.3-0.1-0.5-0.3-0.7
			s-0.4-0.3-0.8-0.3c-0.2,0-0.4,0-0.5,0.1s-0.3,0.1-0.4,0.2l-0.1,0.7h-1.3l0-1.4c0.3-0.2,0.7-0.4,1.1-0.5s0.9-0.2,1.3-0.2
			c0.8,0,1.4,0.2,1.9,0.6s0.7,0.9,0.7,1.6v2.6c0,0.1,0,0.2,0,0.3c0,0.1,0,0.2,0,0.2l0.5,0.1v1H197.9z M196.4,159.1
			c0.3,0,0.5-0.1,0.7-0.2c0.2-0.1,0.4-0.3,0.5-0.4v-1h-0.9c-0.4,0-0.6,0.1-0.8,0.3c-0.2,0.2-0.3,0.4-0.3,0.6c0,0.2,0.1,0.4,0.2,0.5
			S196.1,159.1,196.4,159.1z"/>
	</g>
	<g class="st15">
		<path class="st12" d="M207,154.9l-0.6,0.1l-2.4,6.2c-0.2,0.5-0.4,0.8-0.7,1.1s-0.8,0.5-1.4,0.5c-0.1,0-0.3,0-0.4,0
			c-0.1,0-0.3-0.1-0.5-0.1l0.2-1.2c0.1,0,0.1,0,0.2,0c0.1,0,0.1,0,0.2,0c0.3,0,0.5-0.1,0.7-0.2s0.3-0.3,0.4-0.5l0.2-0.5l-2-5.2
			l-0.6-0.1v-1h3.1v1l-0.7,0.1l0.9,2.5l0.1,0.5l0,0l1-3l-0.7-0.1v-1h3.1V154.9z"/>
		<path class="st12" d="M212.7,156h-1.2l-0.2-0.8c-0.1-0.1-0.3-0.2-0.4-0.2s-0.4-0.1-0.6-0.1c-0.3,0-0.5,0.1-0.7,0.2
			c-0.2,0.1-0.3,0.3-0.3,0.5c0,0.2,0.1,0.4,0.3,0.5c0.2,0.1,0.5,0.2,1,0.3c0.8,0.2,1.4,0.4,1.8,0.7c0.4,0.3,0.6,0.7,0.6,1.3
			c0,0.6-0.2,1-0.7,1.4s-1.1,0.5-2,0.5c-0.5,0-0.9-0.1-1.4-0.2s-0.8-0.3-1.1-0.6l0-1.4h1.2l0.2,0.8c0.1,0.1,0.2,0.1,0.4,0.2
			c0.2,0,0.4,0.1,0.6,0.1c0.4,0,0.6-0.1,0.8-0.2c0.2-0.1,0.3-0.3,0.3-0.5c0-0.2-0.1-0.3-0.3-0.5c-0.2-0.1-0.5-0.3-1-0.4
			c-0.8-0.2-1.3-0.4-1.7-0.7c-0.4-0.3-0.6-0.7-0.6-1.2c0-0.5,0.2-1,0.7-1.4s1.1-0.6,1.9-0.6c0.5,0,1,0.1,1.4,0.2s0.8,0.3,1,0.5
			L212.7,156z"/>
	</g>
	<g class="st15">
		<path class="st12" d="M176.6,174.7c-0.9,0-1.7-0.3-2.2-0.9s-0.8-1.3-0.8-2.2v-0.2c0-0.9,0.3-1.7,0.8-2.3c0.5-0.6,1.2-0.9,2.1-0.9
			c0.9,0,1.5,0.3,2,0.8c0.5,0.5,0.7,1.2,0.7,2.1v0.9h-3.8l0,0c0,0.4,0.2,0.8,0.4,1s0.6,0.4,1,0.4c0.4,0,0.7,0,1-0.1s0.5-0.2,0.8-0.4
			l0.5,1.1c-0.3,0.2-0.6,0.4-1,0.5C177.6,174.7,177.1,174.7,176.6,174.7z M176.5,169.5c-0.3,0-0.6,0.1-0.8,0.4s-0.3,0.6-0.3,1l0,0
			h2.1v-0.2c0-0.4-0.1-0.7-0.3-0.9C177.1,169.6,176.8,169.5,176.5,169.5z"/>
	</g>
	<g class="st15">
		<path class="st12" d="M179.9,173.6l0.8-0.2v-3.9l-0.9-0.2v-1h2.5l0.1,0.9c0.2-0.3,0.5-0.6,0.8-0.8c0.3-0.2,0.7-0.3,1-0.3
			c0.6,0,1.2,0.2,1.5,0.6c0.4,0.4,0.5,1,0.5,1.9v2.8l0.8,0.2v1h-3.3v-1l0.7-0.2v-2.8c0-0.4-0.1-0.7-0.3-0.9
			c-0.2-0.2-0.4-0.3-0.8-0.3c-0.2,0-0.4,0-0.6,0.1c-0.2,0.1-0.3,0.2-0.5,0.4v3.4l0.7,0.2v1h-3.3V173.6z"/>
	</g>
	<g class="st15">
		<path class="st12" d="M190.6,173.4c0.3,0,0.6-0.1,0.7-0.3c0.2-0.2,0.3-0.4,0.3-0.7h1.6l0,0c0,0.6-0.2,1.2-0.7,1.6
			s-1.1,0.6-1.9,0.6c-1,0-1.7-0.3-2.2-0.9c-0.5-0.6-0.8-1.4-0.8-2.3v-0.2c0-0.9,0.3-1.7,0.8-2.3s1.3-0.9,2.3-0.9
			c0.5,0,1,0.1,1.4,0.2c0.4,0.2,0.8,0.4,1,0.6l0,1.7h-1.4l-0.3-1c-0.1-0.1-0.2-0.1-0.3-0.2c-0.1,0-0.3-0.1-0.4-0.1
			c-0.5,0-0.8,0.2-1,0.5s-0.3,0.8-0.3,1.4v0.2c0,0.6,0.1,1,0.3,1.4C189.8,173.2,190.2,173.4,190.6,173.4z"/>
	</g>
	<g class="st15">
		<path class="st12" d="M194.1,173.6l0.8-0.2v-3.9l-0.9-0.2v-1h2.5l0.1,0.9c0.1-0.3,0.3-0.6,0.6-0.8s0.5-0.3,0.8-0.3
			c0.1,0,0.2,0,0.3,0c0.1,0,0.2,0,0.3,0l-0.2,1.6l-0.7,0c-0.3,0-0.5,0-0.6,0.1c-0.2,0.1-0.3,0.2-0.4,0.4v3.1l0.8,0.2v1h-3.4V173.6z"
			/>
	</g>
	<g class="st15">
		<path class="st12" d="M205.9,169.3l-0.6,0.1l-2.4,6.2c-0.2,0.5-0.4,0.8-0.7,1.1s-0.8,0.5-1.4,0.5c-0.1,0-0.3,0-0.4,0
			c-0.1,0-0.3-0.1-0.5-0.1l0.2-1.2c0.1,0,0.1,0,0.2,0c0.1,0,0.1,0,0.2,0c0.3,0,0.5-0.1,0.7-0.2s0.3-0.3,0.4-0.5l0.2-0.5l-2-5.2
			l-0.6-0.1v-1h3.1v1l-0.7,0.1l0.9,2.5l0.1,0.5l0,0l1-3l-0.7-0.1v-1h3.1V169.3z"/>
		<path class="st12" d="M206.3,169.3v-1h2.5l0.1,0.7c0.2-0.3,0.4-0.5,0.7-0.6c0.3-0.1,0.6-0.2,0.9-0.2c0.8,0,1.4,0.3,1.8,0.9
			c0.4,0.6,0.7,1.4,0.7,2.4v0.1c0,0.9-0.2,1.7-0.7,2.3c-0.4,0.6-1,0.9-1.8,0.9c-0.3,0-0.6-0.1-0.9-0.2s-0.5-0.3-0.7-0.5v1.8l0.8,0.2
			v1h-3.4v-1l0.8-0.2v-6.4L206.3,169.3z M211.2,171.5c0-0.6-0.1-1.1-0.3-1.5s-0.5-0.6-0.9-0.6c-0.3,0-0.5,0.1-0.7,0.2
			c-0.2,0.1-0.3,0.3-0.4,0.5v2.8c0.1,0.2,0.3,0.3,0.4,0.4c0.2,0.1,0.4,0.1,0.7,0.1c0.4,0,0.7-0.2,0.9-0.5s0.3-0.8,0.3-1.3V171.5z"/>
		<path class="st12" d="M216.3,166.7v1.6h1.1v1.2h-1.1v3.2c0,0.2,0.1,0.4,0.2,0.5s0.2,0.2,0.4,0.2c0.1,0,0.2,0,0.3,0s0.2,0,0.3-0.1
			l0.1,1.2c-0.2,0.1-0.4,0.1-0.6,0.1c-0.2,0-0.4,0-0.6,0c-0.6,0-1.1-0.2-1.4-0.5s-0.5-0.8-0.5-1.5v-3.2h-0.9v-1.2h0.9v-1.6H216.3z"
			/>
		<path class="st12" d="M221.3,174.7c-0.9,0-1.7-0.3-2.2-0.9s-0.8-1.3-0.8-2.2v-0.2c0-0.9,0.3-1.7,0.8-2.3c0.5-0.6,1.2-0.9,2.1-0.9
			c0.9,0,1.5,0.3,2,0.8c0.5,0.5,0.7,1.2,0.7,2.1v0.9h-3.8l0,0c0,0.4,0.2,0.8,0.4,1s0.6,0.4,1,0.4c0.4,0,0.7,0,1-0.1s0.5-0.2,0.8-0.4
			l0.5,1.1c-0.3,0.2-0.6,0.4-1,0.5C222.3,174.7,221.8,174.7,221.3,174.7z M221.2,169.5c-0.3,0-0.6,0.1-0.8,0.4s-0.3,0.6-0.3,1l0,0
			h2.1v-0.2c0-0.4-0.1-0.7-0.3-0.9C221.8,169.6,221.5,169.5,221.2,169.5z"/>
		<path class="st12" d="M228.9,173.8c-0.2,0.3-0.4,0.5-0.7,0.7s-0.6,0.2-0.9,0.2c-0.8,0-1.4-0.3-1.8-0.9s-0.7-1.3-0.7-2.3v-0.1
			c0-1,0.2-1.8,0.7-2.4s1.1-0.9,1.8-0.9c0.3,0,0.6,0.1,0.9,0.2s0.5,0.3,0.7,0.6v-2.3l-0.9-0.2v-1h0.9h1.7v7.9l0.8,0.2v1H229
			L228.9,173.8z M226.5,171.6c0,0.6,0.1,1,0.3,1.3s0.5,0.5,0.9,0.5c0.3,0,0.5-0.1,0.7-0.2c0.2-0.1,0.3-0.2,0.5-0.4v-2.7
			c-0.1-0.2-0.3-0.4-0.5-0.5s-0.4-0.2-0.6-0.2c-0.4,0-0.7,0.2-0.9,0.6s-0.3,0.9-0.3,1.5V171.6z"/>
	</g>
	<g class="st15">
		<path class="st10" d="M60.1,125.9c0,0.4,0,0.7,0,1c0,0.3,0,0.6,0.1,0.9h-0.6l-0.2-0.8h0c-0.1,0.3-0.4,0.5-0.6,0.6
			c-0.3,0.2-0.6,0.3-1,0.3c-0.7,0-1.3-0.2-1.6-0.7c-0.4-0.5-0.5-1.2-0.5-2.2c0-0.9,0.2-1.7,0.7-2.1c0.4-0.5,1.1-0.7,1.8-0.7
			c0.3,0,0.5,0,0.6,0c0.2,0,0.3,0.1,0.5,0.1v-2.3h0.9V125.9z M57.9,127.2c0.4,0,0.7-0.1,0.9-0.3c0.2-0.2,0.4-0.5,0.5-0.9v-2.7
			c-0.1-0.1-0.3-0.2-0.5-0.2c-0.2,0-0.4-0.1-0.7-0.1c-0.5,0-0.9,0.2-1.2,0.5c-0.3,0.3-0.4,0.9-0.4,1.6c0,0.3,0,0.6,0.1,0.8
			s0.1,0.5,0.2,0.7c0.1,0.2,0.3,0.3,0.4,0.4C57.4,127.1,57.7,127.2,57.9,127.2z"/>
		<path class="st10" d="M61.7,122.7c0.3-0.2,0.6-0.3,1-0.4s0.8-0.1,1.2-0.1c0.4,0,0.7,0.1,0.9,0.2s0.4,0.2,0.5,0.4s0.2,0.3,0.2,0.5
			c0,0.2,0.1,0.4,0.1,0.6c0,0.4,0,0.9,0,1.3s0,0.8,0,1.2c0,0.3,0,0.5,0,0.8c0,0.2,0.1,0.5,0.1,0.7h-0.6l-0.2-0.8h-0.1
			c-0.1,0.1-0.1,0.2-0.2,0.3c-0.1,0.1-0.2,0.2-0.4,0.3s-0.3,0.1-0.5,0.2c-0.2,0.1-0.4,0.1-0.6,0.1c-0.2,0-0.5,0-0.7-0.1
			s-0.4-0.2-0.5-0.3c-0.1-0.1-0.3-0.3-0.3-0.5c-0.1-0.2-0.1-0.4-0.1-0.6c0-0.3,0.1-0.6,0.2-0.8c0.1-0.2,0.3-0.4,0.6-0.5
			c0.2-0.1,0.5-0.2,0.9-0.3c0.3-0.1,0.7-0.1,1.1-0.1c0.1,0,0.2,0,0.3,0c0.1,0,0.2,0,0.3,0c0-0.2,0-0.4,0-0.6c0-0.4-0.1-0.7-0.2-0.8
			c-0.2-0.2-0.5-0.2-0.9-0.2c-0.1,0-0.3,0-0.4,0c-0.1,0-0.3,0-0.4,0.1c-0.2,0-0.3,0.1-0.4,0.1s-0.3,0.1-0.4,0.2L61.7,122.7z
			 M63.3,127.1c0.2,0,0.4,0,0.6-0.1c0.2-0.1,0.3-0.1,0.4-0.2c0.1-0.1,0.2-0.2,0.3-0.3s0.1-0.2,0.2-0.3v-0.9c-0.1,0-0.2,0-0.3,0
			s-0.2,0-0.3,0c-0.2,0-0.4,0-0.7,0s-0.4,0.1-0.6,0.1c-0.2,0.1-0.3,0.2-0.4,0.3c-0.1,0.1-0.1,0.3-0.1,0.5c0,0.3,0.1,0.5,0.3,0.6
			C62.8,127.1,63,127.1,63.3,127.1z"/>
		<path class="st10" d="M66.6,122.3h0.9v-1.1l0.9-0.3v1.3h1.5v0.8h-1.5v3c0,0.4,0,0.7,0.1,0.8c0.1,0.2,0.3,0.2,0.5,0.2
			c0.2,0,0.4,0,0.5-0.1c0.1,0,0.3-0.1,0.4-0.2l0.2,0.7c-0.2,0.1-0.4,0.2-0.6,0.2s-0.5,0.1-0.8,0.1c-0.4,0-0.8-0.1-0.9-0.4
			c-0.2-0.3-0.3-0.7-0.3-1.3v-3.2h-0.9V122.3z"/>
		<path class="st10" d="M70.9,122.7c0.3-0.2,0.6-0.3,1-0.4s0.8-0.1,1.2-0.1c0.4,0,0.7,0.1,0.9,0.2s0.4,0.2,0.5,0.4s0.2,0.3,0.2,0.5
			c0,0.2,0.1,0.4,0.1,0.6c0,0.4,0,0.9,0,1.3s0,0.8,0,1.2c0,0.3,0,0.5,0,0.8c0,0.2,0.1,0.5,0.1,0.7h-0.6l-0.2-0.8H74
			c-0.1,0.1-0.1,0.2-0.2,0.3c-0.1,0.1-0.2,0.2-0.4,0.3s-0.3,0.1-0.5,0.2c-0.2,0.1-0.4,0.1-0.6,0.1c-0.2,0-0.5,0-0.7-0.1
			s-0.4-0.2-0.5-0.3c-0.1-0.1-0.3-0.3-0.3-0.5c-0.1-0.2-0.1-0.4-0.1-0.6c0-0.3,0.1-0.6,0.2-0.8c0.1-0.2,0.3-0.4,0.6-0.5
			c0.2-0.1,0.5-0.2,0.9-0.3c0.3-0.1,0.7-0.1,1.1-0.1c0.1,0,0.2,0,0.3,0c0.1,0,0.2,0,0.3,0c0-0.2,0-0.4,0-0.6c0-0.4-0.1-0.7-0.2-0.8
			c-0.2-0.2-0.5-0.2-0.9-0.2c-0.1,0-0.3,0-0.4,0c-0.1,0-0.3,0-0.4,0.1c-0.2,0-0.3,0.1-0.4,0.1s-0.3,0.1-0.4,0.2L70.9,122.7z
			 M72.5,127.1c0.2,0,0.4,0,0.6-0.1c0.2-0.1,0.3-0.1,0.4-0.2c0.1-0.1,0.2-0.2,0.3-0.3s0.1-0.2,0.2-0.3v-0.9c-0.1,0-0.2,0-0.3,0
			s-0.2,0-0.3,0c-0.2,0-0.4,0-0.7,0s-0.4,0.1-0.6,0.1c-0.2,0.1-0.3,0.2-0.4,0.3c-0.1,0.1-0.1,0.3-0.1,0.5c0,0.3,0.1,0.5,0.3,0.6
			C72,127.1,72.2,127.1,72.5,127.1z"/>
	</g>
	<g class="st15">
		<path class="st10" d="M220.8,126.1c-0.2,0.2-0.5,0.3-0.8,0.4c-0.3,0.1-0.7,0.2-1.1,0.2c-0.4,0-0.8-0.1-1.1-0.2
			c-0.3-0.1-0.6-0.3-0.8-0.6c-0.2-0.3-0.3-0.6-0.4-0.9c-0.1-0.4-0.1-0.7-0.1-1.2c0-0.9,0.2-1.7,0.6-2.1s1-0.7,1.8-0.7
			c0.2,0,0.5,0,0.7,0.1c0.2,0.1,0.5,0.2,0.7,0.3c0.2,0.2,0.4,0.4,0.5,0.7c0.1,0.3,0.2,0.7,0.2,1.1c0,0.2,0,0.5-0.1,0.8h-3.5
			c0,0.3,0,0.6,0.1,0.9c0.1,0.2,0.2,0.5,0.3,0.6c0.1,0.2,0.3,0.3,0.5,0.4s0.5,0.1,0.8,0.1c0.2,0,0.5,0,0.7-0.1
			c0.2-0.1,0.4-0.2,0.6-0.3L220.8,126.1z M218.9,121.7c-0.4,0-0.8,0.1-1,0.3c-0.3,0.2-0.4,0.6-0.5,1.2h2.7c0-0.6-0.1-0.9-0.3-1.2
			C219.6,121.8,219.3,121.7,218.9,121.7z"/>
		<path class="st10" d="M225.9,126.6v-3.1c0-0.6-0.1-1-0.2-1.3c-0.2-0.3-0.5-0.4-0.9-0.4c-0.4,0-0.7,0.1-1,0.3
			c-0.3,0.2-0.4,0.5-0.5,0.8v3.8h-0.9v-5.5h0.6l0.2,0.7h0c0.2-0.2,0.4-0.4,0.7-0.6c0.3-0.2,0.7-0.2,1.1-0.2c0.3,0,0.6,0,0.8,0.1
			c0.2,0.1,0.4,0.2,0.6,0.4s0.3,0.4,0.3,0.7s0.1,0.7,0.1,1.1v3.3H225.9z"/>
		<path class="st10" d="M232.2,126.2c-0.2,0.2-0.5,0.3-0.8,0.4c-0.3,0.1-0.6,0.1-0.9,0.1c-0.4,0-0.8-0.1-1.1-0.2
			c-0.3-0.1-0.5-0.3-0.7-0.6s-0.3-0.6-0.4-0.9c-0.1-0.4-0.1-0.8-0.1-1.2c0-0.9,0.2-1.6,0.6-2.1c0.4-0.5,1-0.7,1.8-0.7
			c0.4,0,0.7,0,0.9,0.1c0.2,0.1,0.5,0.1,0.7,0.2l-0.3,0.8c-0.2-0.1-0.4-0.2-0.6-0.2c-0.2-0.1-0.4-0.1-0.7-0.1c-1,0-1.6,0.7-1.6,2.1
			c0,0.3,0,0.5,0.1,0.8s0.1,0.5,0.3,0.7c0.1,0.2,0.3,0.3,0.5,0.5c0.2,0.1,0.5,0.2,0.8,0.2c0.3,0,0.5,0,0.7-0.1s0.4-0.2,0.5-0.3
			L232.2,126.2z"/>
		<path class="st10" d="M236,121.9c-0.2-0.1-0.4-0.1-0.6-0.1c-0.3,0-0.6,0.1-0.7,0.3c-0.2,0.2-0.3,0.4-0.3,0.7v3.9h-0.9v-5.5h0.6
			l0.2,0.7h0c0.1-0.2,0.3-0.4,0.5-0.6s0.4-0.2,0.7-0.2c0.2,0,0.5,0,0.7,0.1L236,121.9z"/>
		<path class="st10" d="M238.7,124.6l0.3,1.1h0.1l0.2-1.1l1.1-3.6h0.9l-1.6,4.9c-0.1,0.4-0.2,0.7-0.4,1c-0.1,0.3-0.3,0.6-0.4,0.9
			c-0.1,0.3-0.3,0.5-0.5,0.6c-0.2,0.2-0.4,0.2-0.6,0.2c-0.3,0-0.5,0-0.6-0.1l0.2-0.8c0.1,0,0.2,0.1,0.3,0.1c0.2,0,0.4-0.1,0.6-0.3
			c0.2-0.2,0.3-0.6,0.5-1.1l-2.2-5.5h1L238.7,124.6z"/>
		<path class="st10" d="M242.2,121.1h0.6l0.2,0.7h0c0.2-0.3,0.4-0.5,0.7-0.6s0.6-0.2,0.9-0.2c0.7,0,1.3,0.2,1.6,0.6
			c0.4,0.4,0.5,1.1,0.5,2.1c0,0.5-0.1,0.9-0.2,1.2c-0.1,0.4-0.3,0.7-0.5,0.9c-0.2,0.3-0.5,0.5-0.8,0.6c-0.3,0.1-0.7,0.2-1,0.2
			c-0.3,0-0.5,0-0.6,0c-0.2,0-0.3-0.1-0.5-0.2v2.3h-0.9V121.1z M244.5,121.7c-0.4,0-0.7,0.1-0.9,0.3c-0.2,0.2-0.4,0.5-0.5,0.9v2.7
			c0.1,0.1,0.3,0.2,0.5,0.2c0.2,0.1,0.4,0.1,0.7,0.1c0.5,0,0.9-0.2,1.2-0.6c0.3-0.4,0.4-0.9,0.4-1.7c0-0.3,0-0.6-0.1-0.8
			c-0.1-0.2-0.1-0.5-0.2-0.6c-0.1-0.2-0.3-0.3-0.4-0.4C244.9,121.8,244.7,121.7,244.5,121.7z"/>
	</g>
	<g class="st15">
		<path class="st10" d="M247.5,121.1h0.9V120l0.9-0.3v1.3h1.5v0.8h-1.5v3c0,0.4,0,0.7,0.1,0.8c0.1,0.2,0.3,0.2,0.5,0.2
			c0.2,0,0.4,0,0.5-0.1c0.1,0,0.3-0.1,0.4-0.2l0.2,0.7c-0.2,0.1-0.4,0.2-0.6,0.2c-0.2,0.1-0.5,0.1-0.8,0.1c-0.4,0-0.8-0.1-0.9-0.4
			c-0.2-0.3-0.3-0.7-0.3-1.3v-3.2h-0.9V121.1z"/>
	</g>
	<g class="st15">
		<path class="st10" d="M255.8,126.1c-0.2,0.2-0.5,0.3-0.8,0.4c-0.3,0.1-0.7,0.2-1.1,0.2c-0.4,0-0.8-0.1-1.1-0.2s-0.6-0.3-0.8-0.6
			c-0.2-0.3-0.3-0.6-0.4-0.9c-0.1-0.4-0.1-0.7-0.1-1.2c0-0.9,0.2-1.7,0.6-2.1s1-0.7,1.8-0.7c0.2,0,0.5,0,0.7,0.1
			c0.2,0.1,0.5,0.2,0.7,0.3c0.2,0.2,0.4,0.4,0.5,0.7c0.1,0.3,0.2,0.7,0.2,1.1c0,0.2,0,0.5-0.1,0.8h-3.5c0,0.3,0,0.6,0.1,0.9
			c0.1,0.2,0.2,0.5,0.3,0.6c0.1,0.2,0.3,0.3,0.5,0.4s0.5,0.1,0.8,0.1c0.2,0,0.5,0,0.7-0.1c0.2-0.1,0.4-0.2,0.6-0.3L255.8,126.1z
			 M253.9,121.7c-0.4,0-0.8,0.1-1,0.3c-0.3,0.2-0.4,0.6-0.5,1.2h2.7c0-0.6-0.1-0.9-0.3-1.2C254.6,121.8,254.3,121.7,253.9,121.7z"/>
		<path class="st10" d="M261.6,124.7c0,0.4,0,0.7,0,1c0,0.3,0,0.6,0.1,0.9h-0.6l-0.2-0.8h0c-0.1,0.3-0.4,0.5-0.6,0.6s-0.6,0.3-1,0.3
			c-0.7,0-1.3-0.2-1.6-0.7c-0.4-0.5-0.5-1.2-0.5-2.2c0-0.9,0.2-1.7,0.7-2.1c0.4-0.5,1.1-0.7,1.8-0.7c0.3,0,0.5,0,0.6,0
			c0.2,0,0.3,0.1,0.5,0.1v-2.3h0.9V124.7z M259.4,125.9c0.4,0,0.7-0.1,0.9-0.3c0.2-0.2,0.4-0.5,0.5-0.9V122
			c-0.1-0.1-0.3-0.2-0.5-0.2c-0.2,0-0.4-0.1-0.7-0.1c-0.5,0-0.9,0.2-1.2,0.5c-0.3,0.3-0.4,0.9-0.4,1.6c0,0.3,0,0.6,0.1,0.8
			s0.1,0.5,0.2,0.7c0.1,0.2,0.3,0.3,0.4,0.4C258.9,125.9,259.1,125.9,259.4,125.9z"/>
		<path class="st10" d="M270.5,124.7c0,0.4,0,0.7,0,1c0,0.3,0,0.6,0.1,0.9H270l-0.2-0.8h0c-0.1,0.3-0.4,0.5-0.6,0.6
			c-0.3,0.2-0.6,0.3-1,0.3c-0.7,0-1.3-0.2-1.6-0.7c-0.4-0.5-0.5-1.2-0.5-2.2c0-0.9,0.2-1.7,0.7-2.1c0.4-0.5,1.1-0.7,1.8-0.7
			c0.3,0,0.5,0,0.6,0c0.2,0,0.3,0.1,0.5,0.1v-2.3h0.9V124.7z M268.2,125.9c0.4,0,0.7-0.1,0.9-0.3s0.4-0.5,0.5-0.9V122
			c-0.1-0.1-0.3-0.2-0.5-0.2s-0.4-0.1-0.7-0.1c-0.5,0-0.9,0.2-1.2,0.5c-0.3,0.3-0.4,0.9-0.4,1.6c0,0.3,0,0.6,0.1,0.8
			s0.1,0.5,0.2,0.7c0.1,0.2,0.3,0.3,0.4,0.4C267.8,125.9,268,125.9,268.2,125.9z"/>
		<path class="st10" d="M272.1,121.5c0.3-0.2,0.6-0.3,1-0.4s0.8-0.1,1.2-0.1c0.4,0,0.7,0.1,0.9,0.2c0.2,0.1,0.4,0.2,0.5,0.4
			s0.2,0.3,0.2,0.5c0,0.2,0.1,0.4,0.1,0.6c0,0.4,0,0.9,0,1.3c0,0.4,0,0.8,0,1.2c0,0.3,0,0.5,0,0.8c0,0.2,0.1,0.5,0.1,0.7h-0.6
			l-0.2-0.8h-0.1c-0.1,0.1-0.1,0.2-0.2,0.3c-0.1,0.1-0.2,0.2-0.4,0.3c-0.1,0.1-0.3,0.1-0.5,0.2c-0.2,0.1-0.4,0.1-0.6,0.1
			s-0.5,0-0.7-0.1c-0.2-0.1-0.4-0.2-0.5-0.3c-0.1-0.1-0.3-0.3-0.3-0.5c-0.1-0.2-0.1-0.4-0.1-0.6c0-0.3,0.1-0.6,0.2-0.8
			c0.1-0.2,0.3-0.4,0.6-0.5c0.2-0.1,0.5-0.2,0.9-0.3c0.3-0.1,0.7-0.1,1.1-0.1c0.1,0,0.2,0,0.3,0c0.1,0,0.2,0,0.3,0
			c0-0.2,0-0.4,0-0.6c0-0.4-0.1-0.7-0.2-0.8s-0.5-0.2-0.9-0.2c-0.1,0-0.3,0-0.4,0c-0.1,0-0.3,0-0.4,0.1c-0.2,0-0.3,0.1-0.4,0.1
			s-0.3,0.1-0.4,0.2L272.1,121.5z M273.6,125.9c0.2,0,0.4,0,0.5-0.1s0.3-0.1,0.4-0.2c0.1-0.1,0.2-0.2,0.3-0.3s0.1-0.2,0.2-0.3v-0.9
			c-0.1,0-0.2,0-0.3,0s-0.2,0-0.3,0c-0.2,0-0.4,0-0.7,0c-0.2,0-0.4,0.1-0.6,0.1c-0.2,0.1-0.3,0.2-0.4,0.3c-0.1,0.1-0.1,0.3-0.1,0.5
			c0,0.3,0.1,0.5,0.3,0.6S273.3,125.9,273.6,125.9z"/>
		<path class="st10" d="M276.9,121.1h0.9V120l0.9-0.3v1.3h1.5v0.8h-1.5v3c0,0.4,0,0.7,0.1,0.8c0.1,0.2,0.3,0.2,0.5,0.2
			c0.2,0,0.4,0,0.5-0.1c0.1,0,0.3-0.1,0.4-0.2l0.2,0.7c-0.2,0.1-0.4,0.2-0.6,0.2c-0.2,0.1-0.5,0.1-0.8,0.1c-0.4,0-0.8-0.1-0.9-0.4
			c-0.2-0.3-0.3-0.7-0.3-1.3v-3.2h-0.9V121.1z"/>
		<path class="st10" d="M281.3,121.5c0.3-0.2,0.6-0.3,1-0.4s0.8-0.1,1.2-0.1c0.4,0,0.7,0.1,0.9,0.2c0.2,0.1,0.4,0.2,0.5,0.4
			s0.2,0.3,0.2,0.5c0,0.2,0.1,0.4,0.1,0.6c0,0.4,0,0.9,0,1.3c0,0.4,0,0.8,0,1.2c0,0.3,0,0.5,0,0.8c0,0.2,0.1,0.5,0.1,0.7h-0.6
			l-0.2-0.8h-0.1c-0.1,0.1-0.1,0.2-0.2,0.3c-0.1,0.1-0.2,0.2-0.4,0.3c-0.1,0.1-0.3,0.1-0.5,0.2c-0.2,0.1-0.4,0.1-0.6,0.1
			s-0.5,0-0.7-0.1c-0.2-0.1-0.4-0.2-0.5-0.3c-0.1-0.1-0.3-0.3-0.3-0.5c-0.1-0.2-0.1-0.4-0.1-0.6c0-0.3,0.1-0.6,0.2-0.8
			c0.1-0.2,0.3-0.4,0.6-0.5c0.2-0.1,0.5-0.2,0.9-0.3c0.3-0.1,0.7-0.1,1.1-0.1c0.1,0,0.2,0,0.3,0c0.1,0,0.2,0,0.3,0
			c0-0.2,0-0.4,0-0.6c0-0.4-0.1-0.7-0.2-0.8s-0.5-0.2-0.9-0.2c-0.1,0-0.3,0-0.4,0c-0.1,0-0.3,0-0.4,0.1c-0.2,0-0.3,0.1-0.4,0.1
			s-0.3,0.1-0.4,0.2L281.3,121.5z M282.8,125.9c0.2,0,0.4,0,0.5-0.1s0.3-0.1,0.4-0.2c0.1-0.1,0.2-0.2,0.3-0.3s0.1-0.2,0.2-0.3v-0.9
			c-0.1,0-0.2,0-0.3,0s-0.2,0-0.3,0c-0.2,0-0.4,0-0.7,0c-0.2,0-0.4,0.1-0.6,0.1c-0.2,0.1-0.3,0.2-0.4,0.3c-0.1,0.1-0.1,0.3-0.1,0.5
			c0,0.3,0.1,0.5,0.3,0.6S282.5,125.9,282.8,125.9z"/>
	</g>
	<g class="st15">
		<path class="st10" d="M220.8,201.8c-0.2,0.2-0.5,0.3-0.8,0.4c-0.3,0.1-0.7,0.2-1.1,0.2c-0.4,0-0.8-0.1-1.1-0.2
			c-0.3-0.1-0.6-0.3-0.8-0.6c-0.2-0.3-0.3-0.6-0.4-0.9c-0.1-0.4-0.1-0.7-0.1-1.2c0-0.9,0.2-1.7,0.6-2.1c0.4-0.5,1-0.7,1.8-0.7
			c0.2,0,0.5,0,0.7,0.1c0.2,0.1,0.5,0.2,0.7,0.3c0.2,0.2,0.4,0.4,0.5,0.7c0.1,0.3,0.2,0.7,0.2,1.1c0,0.2,0,0.5-0.1,0.8h-3.5
			c0,0.3,0,0.6,0.1,0.9c0.1,0.2,0.2,0.5,0.3,0.6c0.1,0.2,0.3,0.3,0.5,0.4s0.5,0.1,0.8,0.1c0.2,0,0.5,0,0.7-0.1
			c0.2-0.1,0.4-0.2,0.6-0.3L220.8,201.8z M218.9,197.4c-0.4,0-0.8,0.1-1,0.3c-0.3,0.2-0.4,0.6-0.5,1.2h2.7c0-0.6-0.1-0.9-0.3-1.2
			C219.6,197.5,219.3,197.4,218.9,197.4z"/>
		<path class="st10" d="M225.9,202.3v-3.1c0-0.6-0.1-1-0.2-1.3c-0.2-0.3-0.5-0.4-0.9-0.4c-0.4,0-0.7,0.1-1,0.3
			c-0.3,0.2-0.4,0.5-0.5,0.8v3.8h-0.9v-5.5h0.6l0.2,0.7h0c0.2-0.2,0.4-0.4,0.7-0.6c0.3-0.2,0.7-0.2,1.1-0.2c0.3,0,0.6,0,0.8,0.1
			c0.2,0.1,0.4,0.2,0.6,0.4s0.3,0.4,0.3,0.7s0.1,0.7,0.1,1.1v3.3H225.9z"/>
		<path class="st10" d="M232.2,201.9c-0.2,0.2-0.5,0.3-0.8,0.4s-0.6,0.1-0.9,0.1c-0.4,0-0.8-0.1-1.1-0.2c-0.3-0.1-0.5-0.3-0.7-0.6
			c-0.2-0.3-0.3-0.6-0.4-0.9s-0.1-0.8-0.1-1.2c0-0.9,0.2-1.6,0.6-2.1c0.4-0.5,1-0.7,1.8-0.7c0.4,0,0.7,0,0.9,0.1
			c0.2,0.1,0.5,0.1,0.7,0.2l-0.3,0.8c-0.2-0.1-0.4-0.2-0.6-0.2s-0.4-0.1-0.7-0.1c-1,0-1.6,0.7-1.6,2.1c0,0.3,0,0.5,0.1,0.8
			c0.1,0.3,0.1,0.5,0.3,0.7c0.1,0.2,0.3,0.3,0.5,0.5c0.2,0.1,0.5,0.2,0.8,0.2c0.3,0,0.5,0,0.7-0.1c0.2-0.1,0.4-0.2,0.5-0.3
			L232.2,201.9z"/>
		<path class="st10" d="M236,197.6c-0.2-0.1-0.4-0.1-0.6-0.1c-0.3,0-0.6,0.1-0.7,0.3c-0.2,0.2-0.3,0.4-0.3,0.7v3.8h-0.9v-5.5h0.6
			l0.2,0.7h0c0.1-0.3,0.3-0.4,0.5-0.6c0.2-0.1,0.4-0.2,0.7-0.2c0.2,0,0.5,0,0.7,0.1L236,197.6z"/>
		<path class="st10" d="M238.7,200.3l0.3,1.1h0.1l0.2-1.1l1.1-3.6h0.9l-1.6,4.9c-0.1,0.4-0.2,0.7-0.4,1c-0.1,0.3-0.3,0.6-0.4,0.9
			s-0.3,0.5-0.5,0.6c-0.2,0.2-0.4,0.2-0.6,0.2c-0.3,0-0.5,0-0.6-0.1l0.2-0.8c0.1,0,0.2,0.1,0.3,0.1c0.2,0,0.4-0.1,0.6-0.3
			s0.3-0.6,0.5-1.1l-2.2-5.5h1L238.7,200.3z"/>
		<path class="st10" d="M242.2,196.8h0.6l0.2,0.7h0c0.2-0.3,0.4-0.5,0.7-0.6c0.3-0.1,0.6-0.2,0.9-0.2c0.7,0,1.3,0.2,1.6,0.6
			s0.5,1.1,0.5,2.1c0,0.5-0.1,0.9-0.2,1.2c-0.1,0.4-0.3,0.7-0.5,0.9c-0.2,0.3-0.5,0.5-0.8,0.6s-0.7,0.2-1,0.2c-0.3,0-0.5,0-0.6-0.1
			c-0.2,0-0.3-0.1-0.5-0.2v2.3h-0.9V196.8z M244.5,197.4c-0.4,0-0.7,0.1-0.9,0.3c-0.2,0.2-0.4,0.5-0.5,0.9v2.7
			c0.1,0.1,0.3,0.2,0.5,0.2c0.2,0.1,0.4,0.1,0.7,0.1c0.5,0,0.9-0.2,1.2-0.6c0.3-0.4,0.4-0.9,0.4-1.7c0-0.3,0-0.6-0.1-0.8
			c-0.1-0.2-0.1-0.5-0.2-0.6c-0.1-0.2-0.3-0.3-0.4-0.4S244.7,197.4,244.5,197.4z"/>
	</g>
	<g class="st15">
		<path class="st10" d="M247.5,196.8h0.9v-1.1l0.9-0.3v1.3h1.5v0.8h-1.5v3c0,0.4,0,0.7,0.1,0.8c0.1,0.2,0.3,0.2,0.5,0.2
			c0.2,0,0.4,0,0.5-0.1c0.1,0,0.3-0.1,0.4-0.2l0.2,0.7c-0.2,0.1-0.4,0.2-0.6,0.2c-0.2,0.1-0.5,0.1-0.8,0.1c-0.4,0-0.8-0.1-0.9-0.4
			c-0.2-0.3-0.3-0.7-0.3-1.3v-3.2h-0.9V196.8z"/>
	</g>
	<g class="st15">
		<path class="st10" d="M255.8,201.8c-0.2,0.2-0.5,0.3-0.8,0.4s-0.7,0.2-1.1,0.2c-0.4,0-0.8-0.1-1.1-0.2c-0.3-0.1-0.6-0.3-0.8-0.6
			c-0.2-0.3-0.3-0.6-0.4-0.9c-0.1-0.4-0.1-0.7-0.1-1.2c0-0.9,0.2-1.7,0.6-2.1c0.4-0.5,1-0.7,1.8-0.7c0.2,0,0.5,0,0.7,0.1
			c0.2,0.1,0.5,0.2,0.7,0.3c0.2,0.2,0.4,0.4,0.5,0.7c0.1,0.3,0.2,0.7,0.2,1.1c0,0.2,0,0.5-0.1,0.8h-3.5c0,0.3,0,0.6,0.1,0.9
			c0.1,0.2,0.2,0.5,0.3,0.6c0.1,0.2,0.3,0.3,0.5,0.4s0.5,0.1,0.8,0.1c0.2,0,0.5,0,0.7-0.1s0.4-0.2,0.6-0.3L255.8,201.8z
			 M253.9,197.4c-0.4,0-0.8,0.1-1,0.3c-0.3,0.2-0.4,0.6-0.5,1.2h2.7c0-0.6-0.1-0.9-0.3-1.2C254.6,197.5,254.3,197.4,253.9,197.4z"/>
		<path class="st10" d="M261.6,200.4c0,0.4,0,0.7,0,1c0,0.3,0,0.6,0.1,0.9h-0.6l-0.2-0.8h0c-0.1,0.3-0.4,0.5-0.6,0.6
			c-0.3,0.2-0.6,0.3-1,0.3c-0.7,0-1.3-0.2-1.6-0.7s-0.5-1.2-0.5-2.2c0-0.9,0.2-1.7,0.7-2.1s1.1-0.7,1.8-0.7c0.3,0,0.5,0,0.6,0
			c0.2,0,0.3,0.1,0.5,0.1v-2.3h0.9V200.4z M259.4,201.6c0.4,0,0.7-0.1,0.9-0.3c0.2-0.2,0.4-0.5,0.5-0.9v-2.7
			c-0.1-0.1-0.3-0.2-0.5-0.2c-0.2,0-0.4-0.1-0.7-0.1c-0.5,0-0.9,0.2-1.2,0.5s-0.4,0.9-0.4,1.6c0,0.3,0,0.6,0.1,0.8
			c0,0.3,0.1,0.5,0.2,0.7c0.1,0.2,0.3,0.3,0.4,0.4S259.1,201.6,259.4,201.6z"/>
		<path class="st10" d="M266.2,196.8h0.6l0.2,0.7h0c0.2-0.3,0.4-0.5,0.7-0.6c0.3-0.1,0.6-0.2,0.9-0.2c0.7,0,1.3,0.2,1.6,0.6
			s0.5,1.1,0.5,2.1c0,0.5-0.1,0.9-0.2,1.2c-0.1,0.4-0.3,0.7-0.5,0.9c-0.2,0.3-0.5,0.5-0.8,0.6s-0.7,0.2-1,0.2c-0.3,0-0.5,0-0.6-0.1
			c-0.2,0-0.3-0.1-0.5-0.2v2.3h-0.9V196.8z M268.5,197.4c-0.4,0-0.7,0.1-0.9,0.3c-0.2,0.2-0.4,0.5-0.5,0.9v2.7
			c0.1,0.1,0.3,0.2,0.5,0.2c0.2,0.1,0.4,0.1,0.7,0.1c0.5,0,0.9-0.2,1.2-0.6c0.3-0.4,0.4-0.9,0.4-1.7c0-0.3,0-0.6-0.1-0.8
			c-0.1-0.2-0.1-0.5-0.2-0.6c-0.1-0.2-0.3-0.3-0.4-0.4S268.7,197.4,268.5,197.4z"/>
		<path class="st10" d="M274.8,197.6c-0.2-0.1-0.4-0.1-0.6-0.1c-0.3,0-0.6,0.1-0.7,0.3c-0.2,0.2-0.3,0.4-0.3,0.7v3.8h-0.9v-5.5h0.6
			l0.2,0.7h0c0.1-0.3,0.3-0.4,0.5-0.6c0.2-0.1,0.4-0.2,0.7-0.2c0.2,0,0.5,0,0.7,0.1L274.8,197.6z"/>
		<path class="st10" d="M275.6,199.5c0-0.9,0.2-1.6,0.6-2.1c0.4-0.5,1-0.7,1.8-0.7c0.4,0,0.8,0.1,1.1,0.2c0.3,0.1,0.6,0.3,0.8,0.6
			c0.2,0.3,0.3,0.6,0.4,0.9c0.1,0.4,0.1,0.8,0.1,1.2c0,0.9-0.2,1.6-0.6,2.1c-0.4,0.5-1,0.7-1.8,0.7c-0.4,0-0.8-0.1-1.1-0.2
			c-0.3-0.1-0.6-0.3-0.8-0.6c-0.2-0.3-0.3-0.6-0.4-0.9S275.6,200,275.6,199.5z M276.5,199.5c0,0.3,0,0.5,0.1,0.8
			c0.1,0.3,0.1,0.5,0.3,0.7s0.3,0.3,0.5,0.5c0.2,0.1,0.4,0.2,0.7,0.2c1,0,1.5-0.7,1.5-2.1c0-0.3,0-0.6-0.1-0.8
			c-0.1-0.3-0.1-0.5-0.3-0.7s-0.3-0.3-0.5-0.5s-0.4-0.2-0.7-0.2C277,197.4,276.5,198.1,276.5,199.5z"/>
	</g>
	<g class="st15">
		<path class="st10" d="M285.6,201.9c-0.2,0.2-0.5,0.3-0.8,0.4s-0.6,0.1-0.9,0.1c-0.4,0-0.8-0.1-1.1-0.2c-0.3-0.1-0.5-0.3-0.7-0.6
			c-0.2-0.3-0.3-0.6-0.4-0.9c-0.1-0.4-0.1-0.8-0.1-1.2c0-0.9,0.2-1.6,0.6-2.1c0.4-0.5,1-0.7,1.8-0.7c0.4,0,0.7,0,0.9,0.1
			c0.2,0.1,0.5,0.1,0.7,0.2l-0.3,0.8c-0.2-0.1-0.4-0.2-0.6-0.2s-0.4-0.1-0.7-0.1c-1,0-1.6,0.7-1.6,2.1c0,0.3,0,0.5,0.1,0.8
			c0.1,0.3,0.1,0.5,0.3,0.7c0.1,0.2,0.3,0.3,0.5,0.5c0.2,0.1,0.5,0.2,0.8,0.2c0.3,0,0.5,0,0.7-0.1c0.2-0.1,0.4-0.2,0.5-0.3
			L285.6,201.9z"/>
	</g>
	<g class="st15">
		<path class="st10" d="M290.6,201.8c-0.2,0.2-0.5,0.3-0.8,0.4s-0.7,0.2-1.1,0.2c-0.4,0-0.8-0.1-1.1-0.2c-0.3-0.1-0.6-0.3-0.8-0.6
			c-0.2-0.3-0.3-0.6-0.4-0.9c-0.1-0.4-0.1-0.7-0.1-1.2c0-0.9,0.2-1.7,0.6-2.1c0.4-0.5,1-0.7,1.8-0.7c0.2,0,0.5,0,0.7,0.1
			c0.2,0.1,0.5,0.2,0.7,0.3c0.2,0.2,0.4,0.4,0.5,0.7c0.1,0.3,0.2,0.7,0.2,1.1c0,0.2,0,0.5-0.1,0.8h-3.5c0,0.3,0,0.6,0.1,0.9
			c0.1,0.2,0.2,0.5,0.3,0.6c0.1,0.2,0.3,0.3,0.5,0.4s0.5,0.1,0.8,0.1c0.2,0,0.5,0,0.7-0.1s0.4-0.2,0.6-0.3L290.6,201.8z
			 M288.7,197.4c-0.4,0-0.8,0.1-1,0.3c-0.3,0.2-0.4,0.6-0.5,1.2h2.7c0-0.6-0.1-0.9-0.3-1.2C289.3,197.5,289,197.4,288.7,197.4z"/>
		<path class="st10" d="M294.5,200.8c0-0.2-0.1-0.4-0.2-0.5c-0.1-0.1-0.3-0.2-0.5-0.3s-0.4-0.2-0.6-0.2c-0.2-0.1-0.4-0.2-0.6-0.3
			c-0.2-0.1-0.4-0.3-0.5-0.5c-0.1-0.2-0.2-0.4-0.2-0.8c0-0.5,0.1-0.9,0.5-1.2c0.3-0.2,0.7-0.4,1.3-0.4c0.4,0,0.7,0,1,0.1
			c0.3,0.1,0.5,0.2,0.7,0.2l-0.2,0.7c-0.2-0.1-0.4-0.2-0.6-0.2s-0.5-0.1-0.8-0.1c-0.3,0-0.6,0.1-0.7,0.2c-0.2,0.1-0.2,0.3-0.2,0.6
			c0,0.2,0.1,0.3,0.2,0.4c0.1,0.1,0.3,0.2,0.5,0.3s0.4,0.2,0.6,0.2c0.2,0.1,0.4,0.2,0.6,0.3c0.2,0.1,0.4,0.3,0.5,0.5
			c0.1,0.2,0.2,0.5,0.2,0.8c0,0.2,0,0.5-0.1,0.7s-0.2,0.4-0.4,0.5s-0.4,0.3-0.6,0.3s-0.5,0.1-0.8,0.1c-0.4,0-0.8,0-1.1-0.1
			c-0.3-0.1-0.5-0.2-0.7-0.3l0.3-0.7c0.2,0.1,0.4,0.2,0.7,0.3c0.3,0.1,0.5,0.1,0.8,0.1c0.3,0,0.6-0.1,0.8-0.2
			C294.4,201.3,294.5,201.1,294.5,200.8z"/>
		<path class="st10" d="M299.2,200.8c0-0.2-0.1-0.4-0.2-0.5c-0.1-0.1-0.3-0.2-0.5-0.3s-0.4-0.2-0.6-0.2c-0.2-0.1-0.4-0.2-0.6-0.3
			c-0.2-0.1-0.4-0.3-0.5-0.5c-0.1-0.2-0.2-0.4-0.2-0.8c0-0.5,0.1-0.9,0.5-1.2c0.3-0.2,0.7-0.4,1.3-0.4c0.4,0,0.7,0,1,0.1
			c0.3,0.1,0.5,0.2,0.7,0.2l-0.2,0.7c-0.2-0.1-0.4-0.2-0.6-0.2s-0.5-0.1-0.8-0.1c-0.3,0-0.6,0.1-0.7,0.2c-0.2,0.1-0.2,0.3-0.2,0.6
			c0,0.2,0.1,0.3,0.2,0.4c0.1,0.1,0.3,0.2,0.5,0.3s0.4,0.2,0.6,0.2c0.2,0.1,0.4,0.2,0.6,0.3c0.2,0.1,0.4,0.3,0.5,0.5
			c0.1,0.2,0.2,0.5,0.2,0.8c0,0.2,0,0.5-0.1,0.7s-0.2,0.4-0.4,0.5s-0.4,0.3-0.6,0.3s-0.5,0.1-0.8,0.1c-0.4,0-0.8,0-1.1-0.1
			c-0.3-0.1-0.5-0.2-0.7-0.3l0.3-0.7c0.2,0.1,0.4,0.2,0.7,0.3c0.3,0.1,0.5,0.1,0.8,0.1c0.3,0,0.6-0.1,0.8-0.2
			C299.1,201.3,299.2,201.1,299.2,200.8z"/>
		<path class="st10" d="M301.4,195.1c0-0.2,0.1-0.3,0.2-0.4c0.1-0.1,0.3-0.2,0.4-0.2c0.2,0,0.3,0.1,0.5,0.2c0.1,0.1,0.2,0.3,0.2,0.4
			c0,0.2-0.1,0.3-0.2,0.4c-0.1,0.1-0.3,0.2-0.5,0.2c-0.2,0-0.3-0.1-0.4-0.2C301.4,195.4,301.4,195.3,301.4,195.1z M301.6,196.8h0.9
			v5.5h-0.9V196.8z"/>
		<path class="st10" d="M307.9,202.3v-3.1c0-0.6-0.1-1-0.2-1.3c-0.2-0.3-0.5-0.4-0.9-0.4c-0.4,0-0.7,0.1-1,0.3
			c-0.3,0.2-0.4,0.5-0.5,0.8v3.8h-0.9v-5.5h0.6l0.2,0.7h0c0.2-0.2,0.4-0.4,0.7-0.6c0.3-0.2,0.7-0.2,1.1-0.2c0.3,0,0.6,0,0.8,0.1
			c0.2,0.1,0.4,0.2,0.6,0.4s0.3,0.4,0.3,0.7s0.1,0.7,0.1,1.1v3.3H307.9z"/>
		<path class="st10" d="M314.6,202.5c0,0.7-0.2,1.2-0.6,1.6s-0.9,0.5-1.7,0.5c-0.4,0-0.8,0-1.1-0.1s-0.5-0.1-0.7-0.2l0.2-0.7
			c0.2,0.1,0.4,0.1,0.6,0.2c0.2,0.1,0.5,0.1,0.8,0.1c0.3,0,0.6,0,0.8-0.1s0.4-0.1,0.5-0.3s0.2-0.3,0.2-0.5c0-0.2,0.1-0.4,0.1-0.7
			v-0.5h0c-0.1,0.2-0.3,0.4-0.6,0.5c-0.2,0.1-0.5,0.2-0.9,0.2c-0.7,0-1.3-0.2-1.6-0.7c-0.3-0.5-0.5-1.2-0.5-2.2
			c0-0.9,0.2-1.7,0.7-2.1s1.1-0.7,2-0.7c0.4,0,0.8,0,1.1,0.1c0.3,0.1,0.6,0.1,0.8,0.2V202.5z M312.4,201.6c0.4,0,0.7-0.1,0.9-0.3
			c0.2-0.2,0.4-0.5,0.5-0.9v-2.8c-0.3-0.1-0.7-0.2-1.1-0.2c-0.5,0-0.9,0.2-1.2,0.5s-0.4,0.9-0.4,1.6c0,0.3,0,0.6,0.1,0.8
			c0.1,0.3,0.1,0.5,0.2,0.7c0.1,0.2,0.3,0.3,0.4,0.4C311.9,201.6,312.1,201.6,312.4,201.6z"/>
	</g>
	<g class="st15">
		<path class="st16" d="M315.9,33.1v1l-0.9,0.2v4.5c0,0.6,0.2,1,0.5,1.3s0.7,0.4,1.2,0.4c0.5,0,1-0.1,1.3-0.4s0.5-0.7,0.5-1.3v-4.5
			l-0.9-0.2v-1h3.5v1l-0.9,0.2v4.5c0,1-0.3,1.7-0.9,2.2s-1.5,0.8-2.5,0.8c-1,0-1.8-0.3-2.5-0.8s-0.9-1.3-0.9-2.2v-4.5l-0.9-0.2v-1
			h0.9h1.7H315.9z"/>
		<path class="st16" d="M321.5,40.7l0.8-0.2v-3.9l-0.9-0.2v-1h2.5l0.1,0.9c0.2-0.3,0.5-0.6,0.8-0.8s0.7-0.3,1-0.3
			c0.6,0,1.1,0.2,1.5,0.6s0.5,1,0.5,1.9v2.8l0.8,0.2v1h-3.3v-1l0.7-0.2v-2.8c0-0.4-0.1-0.7-0.3-0.9s-0.4-0.3-0.8-0.3
			c-0.2,0-0.4,0-0.6,0.1s-0.3,0.2-0.5,0.4v3.4l0.7,0.2v1h-3.2V40.7z"/>
		<path class="st16" d="M331.7,33.8v1.6h1.1v1.2h-1.1v3.2c0,0.2,0.1,0.4,0.2,0.5s0.2,0.2,0.4,0.2c0.1,0,0.2,0,0.3,0s0.2,0,0.3,0
			l0.1,1.2c-0.2,0.1-0.4,0.1-0.6,0.1s-0.4,0-0.6,0c-0.6,0-1-0.2-1.4-0.5s-0.5-0.8-0.5-1.5v-3.2h-0.9v-1.2h0.9v-1.6H331.7z"/>
		<path class="st16" d="M333.8,40.7l0.8-0.2v-3.9l-0.9-0.2v-1h2.5l0.1,0.9c0.1-0.3,0.3-0.6,0.6-0.8s0.5-0.3,0.8-0.3
			c0.1,0,0.2,0,0.3,0s0.2,0,0.2,0l-0.2,1.6l-0.7,0c-0.3,0-0.5,0-0.6,0.1s-0.3,0.2-0.4,0.4v3.1l0.8,0.2v1h-3.4V40.7z"/>
		<path class="st16" d="M343.1,40.9c-0.2,0.3-0.5,0.5-0.8,0.7s-0.6,0.2-1,0.2c-0.7,0-1.2-0.2-1.6-0.6s-0.6-1.1-0.6-2v-2.6l-0.7-0.2
			v-1h0.7h1.7v3.8c0,0.5,0.1,0.8,0.2,1s0.4,0.3,0.7,0.3c0.3,0,0.5,0,0.7-0.1s0.4-0.2,0.5-0.4v-3.4l-0.8-0.2v-1h0.8h1.7v5.1l0.8,0.2
			v1h-2.3L343.1,40.9z"/>
		<path class="st16" d="M351.4,37.5h-1.1l-0.2-0.8c-0.1-0.1-0.3-0.2-0.4-0.2s-0.4-0.1-0.6-0.1c-0.3,0-0.5,0.1-0.7,0.2
			s-0.3,0.3-0.3,0.5c0,0.2,0.1,0.4,0.3,0.5s0.5,0.2,1,0.3c0.8,0.2,1.4,0.4,1.7,0.7s0.6,0.7,0.6,1.3c0,0.6-0.2,1-0.7,1.4
			s-1.1,0.5-1.9,0.5c-0.5,0-0.9-0.1-1.3-0.2s-0.8-0.3-1.1-0.6l0-1.4h1.2l0.2,0.8c0.1,0.1,0.2,0.1,0.4,0.2s0.4,0.1,0.6,0.1
			c0.3,0,0.6-0.1,0.8-0.2s0.3-0.3,0.3-0.5c0-0.2-0.1-0.3-0.3-0.5s-0.5-0.3-1-0.4c-0.7-0.2-1.3-0.4-1.7-0.7s-0.6-0.7-0.6-1.2
			c0-0.5,0.2-1,0.7-1.4s1.1-0.6,1.9-0.6c0.5,0,1,0.1,1.4,0.2s0.8,0.3,1,0.5L351.4,37.5z"/>
		<path class="st16" d="M354.9,33.8v1.6h1.1v1.2h-1.1v3.2c0,0.2,0.1,0.4,0.2,0.5s0.2,0.2,0.4,0.2c0.1,0,0.2,0,0.3,0s0.2,0,0.3,0
			l0.1,1.2c-0.2,0.1-0.4,0.1-0.6,0.1s-0.4,0-0.6,0c-0.6,0-1-0.2-1.4-0.5s-0.5-0.8-0.5-1.5v-3.2h-0.9v-1.2h0.9v-1.6H354.9z"/>
		<path class="st16" d="M359.9,41.8c-0.9,0-1.6-0.3-2.2-0.9s-0.8-1.3-0.8-2.2v-0.2c0-0.9,0.3-1.7,0.8-2.3s1.2-0.9,2.1-0.9
			c0.9,0,1.5,0.3,2,0.8s0.7,1.2,0.7,2.1V39h-3.8l0,0c0,0.4,0.2,0.8,0.4,1s0.6,0.4,1,0.4c0.4,0,0.7,0,0.9-0.1s0.5-0.2,0.8-0.4
			l0.5,1.1c-0.3,0.2-0.6,0.4-1,0.5S360.4,41.8,359.9,41.8z M359.7,36.5c-0.3,0-0.6,0.1-0.8,0.4s-0.3,0.6-0.3,1l0,0h2.1v-0.2
			c0-0.4-0.1-0.7-0.3-0.9S360.1,36.5,359.7,36.5z"/>
		<path class="st16" d="M367.4,40.9c-0.2,0.3-0.4,0.5-0.7,0.7s-0.6,0.2-0.9,0.2c-0.8,0-1.4-0.3-1.8-0.9s-0.6-1.3-0.6-2.3v-0.1
			c0-1,0.2-1.8,0.7-2.4s1-0.9,1.8-0.9c0.3,0,0.6,0.1,0.9,0.2s0.5,0.3,0.7,0.6v-2.3l-0.9-0.2v-1h0.9h1.7v7.9l0.8,0.2v1h-2.3
			L367.4,40.9z M365,38.7c0,0.6,0.1,1,0.3,1.3s0.5,0.5,0.9,0.5c0.3,0,0.5-0.1,0.7-0.2s0.3-0.2,0.5-0.4v-2.7
			c-0.1-0.2-0.3-0.4-0.4-0.5s-0.4-0.2-0.6-0.2c-0.4,0-0.7,0.2-0.9,0.6S365,38,365,38.6V38.7z"/>
	</g>
	<g class="st15">
		<path class="st16" d="M266.4,55.1l0.8-0.2v-3.9l-0.9-0.2v-1h2.5l0.1,0.9c0.1-0.3,0.3-0.6,0.6-0.8s0.5-0.3,0.8-0.3
			c0.1,0,0.2,0,0.3,0s0.2,0,0.2,0l-0.2,1.6l-0.7,0c-0.3,0-0.5,0-0.6,0.1s-0.3,0.2-0.4,0.4v3.1l0.8,0.2v1h-3.4V55.1z"/>
	</g>
	<g class="st15">
		<path class="st16" d="M274.3,56.2c-0.9,0-1.6-0.3-2.2-0.9s-0.8-1.3-0.8-2.2v-0.2c0-0.9,0.3-1.7,0.8-2.3s1.2-0.9,2.1-0.9
			c0.9,0,1.5,0.3,2,0.8s0.7,1.2,0.7,2.1v0.9H273l0,0c0,0.4,0.2,0.8,0.4,1s0.6,0.4,1,0.4c0.4,0,0.7,0,0.9-0.1s0.5-0.2,0.8-0.4
			l0.5,1.1c-0.3,0.2-0.6,0.4-1,0.5S274.8,56.2,274.3,56.2z M274.1,50.9c-0.3,0-0.6,0.1-0.8,0.4s-0.3,0.6-0.3,1l0,0h2.1v-0.2
			c0-0.4-0.1-0.7-0.3-0.9S274.5,50.9,274.1,50.9z"/>
	</g>
	<g class="st15">
		<path class="st16" d="M277.4,50.8v-1h2.5l0.1,0.8c0.2-0.3,0.5-0.5,0.8-0.7s0.7-0.2,1.1-0.2c0.4,0,0.8,0.1,1,0.3s0.5,0.5,0.7,0.8
			c0.2-0.3,0.4-0.6,0.8-0.8s0.7-0.3,1.1-0.3c0.6,0,1.1,0.2,1.5,0.6s0.5,1.1,0.5,2v2.6l0.8,0.2v1H285v-1l0.7-0.2v-2.6
			c0-0.5-0.1-0.8-0.2-1s-0.4-0.3-0.7-0.3c-0.2,0-0.5,0.1-0.6,0.2s-0.3,0.3-0.4,0.4c0,0.1,0,0.1,0,0.2s0,0.1,0,0.2v3l0.7,0.2v1h-3.1
			v-1l0.7-0.2v-2.6c0-0.5-0.1-0.8-0.2-1s-0.4-0.3-0.7-0.3c-0.2,0-0.4,0-0.6,0.1s-0.3,0.2-0.4,0.4v3.4l0.7,0.2v1h-3.3v-1l0.8-0.2
			v-3.9L277.4,50.8z"/>
	</g>
	<g class="st15">
		<path class="st16" d="M288.7,52.9c0-0.9,0.3-1.7,0.8-2.3s1.3-0.9,2.2-0.9c0.9,0,1.7,0.3,2.2,0.9s0.8,1.4,0.8,2.3V53
			c0,1-0.3,1.7-0.8,2.3s-1.3,0.9-2.2,0.9c-0.9,0-1.7-0.3-2.2-0.9s-0.8-1.4-0.8-2.3V52.9z M290.5,53c0,0.6,0.1,1,0.3,1.4
			s0.5,0.5,1,0.5c0.4,0,0.8-0.2,1-0.5s0.3-0.8,0.3-1.4v-0.1c0-0.6-0.1-1-0.3-1.4s-0.5-0.5-1-0.5s-0.8,0.2-1,0.5s-0.3,0.8-0.3,1.4V53
			z"/>
		<path class="st16" d="M298,48.2v1.6h1.1v1.2H298v3.2c0,0.2,0.1,0.4,0.2,0.5s0.2,0.2,0.4,0.2c0.1,0,0.2,0,0.3,0s0.2,0,0.3,0
			l0.1,1.2c-0.2,0.1-0.4,0.1-0.6,0.1s-0.4,0-0.6,0c-0.6,0-1-0.2-1.4-0.5s-0.5-0.8-0.5-1.5v-3.2h-0.9v-1.2h0.9v-1.6H298z"/>
		<path class="st16" d="M303,56.2c-0.9,0-1.6-0.3-2.2-0.9S300,54,300,53.1v-0.2c0-0.9,0.3-1.7,0.8-2.3s1.2-0.9,2.1-0.9
			c0.9,0,1.5,0.3,2,0.8s0.7,1.2,0.7,2.1v0.9h-3.8l0,0c0,0.4,0.2,0.8,0.4,1s0.6,0.4,1,0.4c0.4,0,0.7,0,0.9-0.1s0.5-0.2,0.8-0.4
			l0.5,1.1c-0.3,0.2-0.6,0.4-1,0.5S303.5,56.2,303,56.2z M302.8,50.9c-0.3,0-0.6,0.1-0.8,0.4s-0.3,0.6-0.3,1l0,0h2.1v-0.2
			c0-0.4-0.1-0.7-0.3-0.9S303.2,50.9,302.8,50.9z"/>
		<path class="st16" d="M312.3,54.9c0.3,0,0.5-0.1,0.7-0.3s0.3-0.4,0.3-0.7h1.5l0,0c0,0.6-0.2,1.2-0.7,1.6s-1.1,0.6-1.9,0.6
			c-0.9,0-1.7-0.3-2.2-0.9s-0.8-1.4-0.8-2.3v-0.2c0-0.9,0.3-1.7,0.8-2.3s1.3-0.9,2.2-0.9c0.5,0,1,0.1,1.4,0.2s0.7,0.4,1,0.6l0,1.7
			h-1.4l-0.3-1c-0.1-0.1-0.2-0.1-0.3-0.2s-0.3-0.1-0.4-0.1c-0.5,0-0.8,0.2-1,0.5s-0.3,0.8-0.3,1.4V53c0,0.6,0.1,1,0.3,1.4
			S311.8,54.9,312.3,54.9z"/>
		<path class="st16" d="M315.6,52.9c0-0.9,0.3-1.7,0.8-2.3s1.3-0.9,2.2-0.9c0.9,0,1.7,0.3,2.2,0.9s0.8,1.4,0.8,2.3V53
			c0,1-0.3,1.7-0.8,2.3s-1.3,0.9-2.2,0.9c-0.9,0-1.7-0.3-2.2-0.9s-0.8-1.4-0.8-2.3V52.9z M317.3,53c0,0.6,0.1,1,0.3,1.4
			s0.5,0.5,1,0.5c0.4,0,0.8-0.2,1-0.5s0.3-0.8,0.3-1.4v-0.1c0-0.6-0.1-1-0.3-1.4s-0.5-0.5-1-0.5s-0.8,0.2-1,0.5s-0.3,0.8-0.3,1.4V53
			z"/>
		<path class="st16" d="M322.1,50.8v-1h2.5l0.1,0.8c0.2-0.3,0.5-0.5,0.8-0.7s0.7-0.2,1.1-0.2c0.4,0,0.8,0.1,1,0.3s0.5,0.5,0.7,0.8
			c0.2-0.3,0.4-0.6,0.8-0.8s0.7-0.3,1.1-0.3c0.6,0,1.1,0.2,1.5,0.6s0.5,1.1,0.5,2v2.6l0.8,0.2v1h-3.3v-1l0.7-0.2v-2.6
			c0-0.5-0.1-0.8-0.2-1s-0.4-0.3-0.7-0.3c-0.2,0-0.5,0.1-0.6,0.2s-0.3,0.3-0.4,0.4c0,0.1,0,0.1,0,0.2s0,0.1,0,0.2v3l0.7,0.2v1H326
			v-1l0.7-0.2v-2.6c0-0.5-0.1-0.8-0.2-1s-0.4-0.3-0.7-0.3c-0.2,0-0.4,0-0.6,0.1s-0.3,0.2-0.4,0.4v3.4l0.7,0.2v1h-3.3v-1l0.8-0.2
			v-3.9L322.1,50.8z"/>
		<path class="st16" d="M333.4,50.8v-1h2.5l0.1,0.7c0.2-0.3,0.4-0.5,0.7-0.6s0.6-0.2,0.9-0.2c0.8,0,1.4,0.3,1.8,0.9S340,52,340,53
			v0.1c0,0.9-0.2,1.7-0.7,2.3s-1,0.9-1.8,0.9c-0.3,0-0.6-0.1-0.9-0.2s-0.5-0.3-0.7-0.5v1.8l0.8,0.2v1h-3.4v-1l0.8-0.2v-6.4
			L333.4,50.8z M338.3,53c0-0.6-0.1-1.1-0.3-1.5s-0.5-0.6-0.9-0.6c-0.3,0-0.5,0.1-0.7,0.2s-0.3,0.3-0.4,0.5v2.8
			c0.1,0.2,0.2,0.3,0.4,0.4s0.4,0.1,0.7,0.1c0.4,0,0.7-0.2,0.9-0.5s0.3-0.8,0.3-1.3V53z"/>
		<path class="st16" d="M345.2,55.3c-0.2,0.3-0.5,0.5-0.8,0.7s-0.6,0.2-1,0.2c-0.7,0-1.2-0.2-1.6-0.6s-0.6-1.1-0.6-2v-2.6l-0.7-0.2
			v-1h0.7h1.7v3.8c0,0.5,0.1,0.8,0.2,1s0.4,0.3,0.7,0.3c0.3,0,0.5,0,0.7-0.1s0.4-0.2,0.5-0.4v-3.4l-0.8-0.2v-1h0.8h1.7v5.1l0.8,0.2
			v1h-2.3L345.2,55.3z"/>
		<path class="st16" d="M350.8,48.2v1.6h1.1v1.2h-1.1v3.2c0,0.2,0.1,0.4,0.2,0.5s0.2,0.2,0.4,0.2c0.1,0,0.2,0,0.3,0s0.2,0,0.3,0
			l0.1,1.2c-0.2,0.1-0.4,0.1-0.6,0.1s-0.4,0-0.6,0c-0.6,0-1-0.2-1.4-0.5s-0.5-0.8-0.5-1.5v-3.2h-0.9v-1.2h0.9v-1.6H350.8z"/>
		<path class="st16" d="M355.8,56.2c-0.9,0-1.6-0.3-2.2-0.9s-0.8-1.3-0.8-2.2v-0.2c0-0.9,0.3-1.7,0.8-2.3s1.2-0.9,2.1-0.9
			c0.9,0,1.5,0.3,2,0.8s0.7,1.2,0.7,2.1v0.9h-3.8l0,0c0,0.4,0.2,0.8,0.4,1s0.6,0.4,1,0.4c0.4,0,0.7,0,0.9-0.1s0.5-0.2,0.8-0.4
			l0.5,1.1c-0.3,0.2-0.6,0.4-1,0.5S356.3,56.2,355.8,56.2z M355.6,50.9c-0.3,0-0.6,0.1-0.8,0.4s-0.3,0.6-0.3,1l0,0h2.1v-0.2
			c0-0.4-0.1-0.7-0.3-0.9S355.9,50.9,355.6,50.9z"/>
		<path class="st16" d="M359.2,55.1l0.8-0.2v-3.9l-0.9-0.2v-1h2.5l0.1,0.9c0.1-0.3,0.3-0.6,0.6-0.8s0.5-0.3,0.8-0.3
			c0.1,0,0.2,0,0.3,0s0.2,0,0.2,0l-0.2,1.6l-0.7,0c-0.3,0-0.5,0-0.6,0.1s-0.3,0.2-0.4,0.4v3.1l0.8,0.2v1h-3.4V55.1z"/>
		<path class="st16" d="M369.3,51.9h-1.1l-0.2-0.8c-0.1-0.1-0.3-0.2-0.4-0.2s-0.4-0.1-0.6-0.1c-0.3,0-0.5,0.1-0.7,0.2
			s-0.3,0.3-0.3,0.5c0,0.2,0.1,0.4,0.3,0.5s0.5,0.2,1,0.3c0.8,0.2,1.4,0.4,1.7,0.7s0.6,0.7,0.6,1.3c0,0.6-0.2,1-0.7,1.4
			s-1.1,0.5-1.9,0.5c-0.5,0-0.9-0.1-1.3-0.2s-0.8-0.3-1.1-0.6l0-1.4h1.2l0.2,0.8c0.1,0.1,0.2,0.1,0.4,0.2s0.4,0.1,0.6,0.1
			c0.3,0,0.6-0.1,0.8-0.2s0.3-0.3,0.3-0.5c0-0.2-0.1-0.3-0.3-0.5s-0.5-0.3-1-0.4c-0.7-0.2-1.3-0.4-1.7-0.7s-0.6-0.7-0.6-1.2
			c0-0.5,0.2-1,0.7-1.4s1.1-0.6,1.9-0.6c0.5,0,1,0.1,1.4,0.2s0.8,0.3,1,0.5L369.3,51.9z"/>
	</g>
	<g class="st15">
		<path class="st16" d="M40,32.7v1L39,33.9v4.5c0,0.6,0.2,1,0.5,1.3s0.7,0.4,1.2,0.4c0.5,0,1-0.1,1.3-0.4s0.5-0.7,0.5-1.3v-4.5
			l-0.9-0.2v-1h3.5v1l-0.9,0.2v4.5c0,1-0.3,1.7-0.9,2.2s-1.5,0.8-2.5,0.8c-1,0-1.8-0.3-2.5-0.8s-0.9-1.3-0.9-2.2v-4.5l-0.9-0.2v-1
			h0.9H39H40z"/>
		<path class="st16" d="M45.5,40.2l0.8-0.2v-3.9l-0.9-0.2v-1h2.5l0.1,0.9c0.2-0.3,0.5-0.6,0.8-0.8s0.7-0.3,1-0.3
			c0.6,0,1.1,0.2,1.5,0.6s0.5,1,0.5,1.9V40l0.8,0.2v1h-3.3v-1l0.7-0.2v-2.8c0-0.4-0.1-0.7-0.3-0.9s-0.4-0.3-0.8-0.3
			c-0.2,0-0.4,0-0.6,0.1s-0.3,0.2-0.5,0.4V40l0.7,0.2v1h-3.2V40.2z"/>
		<path class="st16" d="M55.8,33.3v1.6h1.1v1.2h-1.1v3.2c0,0.2,0.1,0.4,0.2,0.5s0.2,0.2,0.4,0.2c0.1,0,0.2,0,0.3,0s0.2,0,0.3,0
			l0.1,1.2c-0.2,0.1-0.4,0.1-0.6,0.1s-0.4,0-0.6,0c-0.6,0-1-0.2-1.4-0.5s-0.5-0.8-0.5-1.5v-3.2h-0.9v-1.2h0.9v-1.6H55.8z"/>
		<path class="st16" d="M57.8,40.2l0.8-0.2v-3.9l-0.9-0.2v-1h2.5l0.1,0.9c0.1-0.3,0.3-0.6,0.6-0.8s0.5-0.3,0.8-0.3
			c0.1,0,0.2,0,0.3,0s0.2,0,0.2,0l-0.2,1.6l-0.7,0c-0.3,0-0.5,0-0.6,0.1s-0.3,0.2-0.4,0.4V40l0.8,0.2v1h-3.4V40.2z"/>
		<path class="st16" d="M67.2,40.4c-0.2,0.3-0.5,0.5-0.8,0.7s-0.6,0.2-1,0.2c-0.7,0-1.2-0.2-1.6-0.6s-0.6-1.1-0.6-2v-2.6l-0.7-0.2
			v-1h0.7H65v3.8c0,0.5,0.1,0.8,0.2,1s0.4,0.3,0.7,0.3c0.3,0,0.5,0,0.7-0.1s0.4-0.2,0.5-0.4v-3.4l-0.8-0.2v-1h0.8h1.7V40l0.8,0.2v1
			h-2.3L67.2,40.4z"/>
		<path class="st16" d="M75.4,37.1h-1.1l-0.2-0.8c-0.1-0.1-0.3-0.2-0.4-0.2s-0.4-0.1-0.6-0.1c-0.3,0-0.5,0.1-0.7,0.2
			s-0.3,0.3-0.3,0.5c0,0.2,0.1,0.4,0.3,0.5s0.5,0.2,1,0.3c0.8,0.2,1.4,0.4,1.7,0.7s0.6,0.7,0.6,1.3c0,0.6-0.2,1-0.7,1.4
			s-1.1,0.5-1.9,0.5c-0.5,0-0.9-0.1-1.3-0.2s-0.8-0.3-1.1-0.6l0-1.4h1.2l0.2,0.8c0.1,0.1,0.2,0.1,0.4,0.2s0.4,0.1,0.6,0.1
			c0.3,0,0.6-0.1,0.8-0.2s0.3-0.3,0.3-0.5c0-0.2-0.1-0.3-0.3-0.5s-0.5-0.3-1-0.4c-0.7-0.2-1.3-0.4-1.7-0.7s-0.6-0.7-0.6-1.2
			c0-0.5,0.2-1,0.7-1.4s1.1-0.6,1.9-0.6c0.5,0,1,0.1,1.4,0.2s0.8,0.3,1,0.5L75.4,37.1z"/>
		<path class="st16" d="M79,33.3v1.6h1.1v1.2H79v3.2c0,0.2,0.1,0.4,0.2,0.5s0.2,0.2,0.4,0.2c0.1,0,0.2,0,0.3,0s0.2,0,0.3,0l0.1,1.2
			c-0.2,0.1-0.4,0.1-0.6,0.1s-0.4,0-0.6,0c-0.6,0-1-0.2-1.4-0.5s-0.5-0.8-0.5-1.5v-3.2h-0.9v-1.2h0.9v-1.6H79z"/>
		<path class="st16" d="M83.9,41.3c-0.9,0-1.6-0.3-2.2-0.9s-0.8-1.3-0.8-2.2V38c0-0.9,0.3-1.7,0.8-2.3s1.2-0.9,2.1-0.9
			c0.9,0,1.5,0.3,2,0.8s0.7,1.2,0.7,2.1v0.9h-3.8l0,0c0,0.4,0.2,0.8,0.4,1s0.6,0.4,1,0.4c0.4,0,0.7,0,0.9-0.1s0.5-0.2,0.8-0.4
			l0.5,1.1c-0.3,0.2-0.6,0.4-1,0.5S84.5,41.3,83.9,41.3z M83.8,36.1c-0.3,0-0.6,0.1-0.8,0.4s-0.3,0.6-0.3,1l0,0h2.1v-0.2
			c0-0.4-0.1-0.7-0.3-0.9S84.1,36.1,83.8,36.1z"/>
		<path class="st16" d="M91.4,40.4c-0.2,0.3-0.4,0.5-0.7,0.7s-0.6,0.2-0.9,0.2c-0.8,0-1.4-0.3-1.8-0.9s-0.6-1.3-0.6-2.3v-0.1
			c0-1,0.2-1.8,0.7-2.4s1-0.9,1.8-0.9c0.3,0,0.6,0.1,0.9,0.2s0.5,0.3,0.7,0.6v-2.3l-0.9-0.2v-1h0.9H93V40l0.8,0.2v1h-2.3L91.4,40.4z
			 M89,38.2c0,0.6,0.1,1,0.3,1.3s0.5,0.5,0.9,0.5c0.3,0,0.5-0.1,0.7-0.2s0.3-0.2,0.5-0.4v-2.7c-0.1-0.2-0.3-0.4-0.4-0.5
			s-0.4-0.2-0.6-0.2c-0.4,0-0.7,0.2-0.9,0.6S89,37.5,89,38.1V38.2z"/>
	</g>
	<g class="st15">
		<path class="st16" d="M39.5,54.4c0.3,0,0.5-0.1,0.7-0.3s0.3-0.4,0.3-0.7h1.5l0,0c0,0.6-0.2,1.2-0.7,1.6s-1.1,0.6-1.9,0.6
			c-0.9,0-1.7-0.3-2.2-0.9s-0.8-1.4-0.8-2.3v-0.2c0-0.9,0.3-1.7,0.8-2.3s1.3-0.9,2.2-0.9c0.5,0,1,0.1,1.4,0.2s0.7,0.4,1,0.6l0,1.7
			h-1.4l-0.3-1c-0.1-0.1-0.2-0.1-0.3-0.2s-0.3-0.1-0.4-0.1c-0.5,0-0.8,0.2-1,0.5s-0.3,0.8-0.3,1.4v0.2c0,0.6,0.1,1,0.3,1.4
			S39.1,54.4,39.5,54.4z"/>
		<path class="st16" d="M42.7,47.5v-1h2.6v7.9l0.8,0.2v1h-3.4v-1l0.8-0.2v-6.7L42.7,47.5z"/>
		<path class="st16" d="M46.7,54.6l0.8-0.2v-3.9l-0.9-0.2v-1h2.6v5.1l0.8,0.2v1h-3.4V54.6z M49.2,47.8h-1.7v-1.3h1.7V47.8z"/>
		<path class="st16" d="M53.6,55.7c-0.9,0-1.6-0.3-2.2-0.9s-0.8-1.3-0.8-2.2v-0.2c0-0.9,0.3-1.7,0.8-2.3s1.2-0.9,2.1-0.9
			c0.9,0,1.5,0.3,2,0.8s0.7,1.2,0.7,2.1V53h-3.8l0,0c0,0.4,0.2,0.8,0.4,1s0.6,0.4,1,0.4c0.4,0,0.7,0,0.9-0.1s0.5-0.2,0.8-0.4L56,55
			c-0.3,0.2-0.6,0.4-1,0.5S54.1,55.7,53.6,55.7z M53.5,50.5c-0.3,0-0.6,0.1-0.8,0.4s-0.3,0.6-0.3,1l0,0h2.1v-0.2
			c0-0.4-0.1-0.7-0.3-0.9S53.8,50.5,53.5,50.5z"/>
		<path class="st16" d="M56.9,54.6l0.8-0.2v-3.9l-0.9-0.2v-1h2.5l0.1,0.9c0.2-0.3,0.5-0.6,0.8-0.8s0.7-0.3,1-0.3
			c0.6,0,1.1,0.2,1.5,0.6s0.5,1,0.5,1.9v2.8l0.8,0.2v1h-3.3v-1l0.7-0.2v-2.8c0-0.4-0.1-0.7-0.3-0.9s-0.4-0.3-0.8-0.3
			c-0.2,0-0.4,0-0.6,0.1s-0.3,0.2-0.5,0.4v3.4l0.7,0.2v1h-3.2V54.6z"/>
		<path class="st16" d="M67.1,47.7v1.6h1.1v1.2h-1.1v3.2c0,0.2,0.1,0.4,0.2,0.5s0.2,0.2,0.4,0.2c0.1,0,0.2,0,0.3,0s0.2,0,0.3,0
			l0.1,1.2c-0.2,0.1-0.4,0.1-0.6,0.1s-0.4,0-0.6,0c-0.6,0-1-0.2-1.4-0.5s-0.5-0.8-0.5-1.5v-3.2h-0.9v-1.2h0.9v-1.6H67.1z"/>
		<path class="st16" d="M75,54.4c0.3,0,0.5-0.1,0.7-0.3s0.3-0.4,0.3-0.7h1.5l0,0c0,0.6-0.2,1.2-0.7,1.6s-1.1,0.6-1.9,0.6
			c-0.9,0-1.7-0.3-2.2-0.9S72,53.5,72,52.5v-0.2c0-0.9,0.3-1.7,0.8-2.3s1.3-0.9,2.2-0.9c0.5,0,1,0.1,1.4,0.2s0.7,0.4,1,0.6l0,1.7
			h-1.4l-0.3-1c-0.1-0.1-0.2-0.1-0.3-0.2s-0.3-0.1-0.4-0.1c-0.5,0-0.8,0.2-1,0.5s-0.3,0.8-0.3,1.4v0.2c0,0.6,0.1,1,0.3,1.4
			S74.5,54.4,75,54.4z"/>
		<path class="st16" d="M78.3,52.4c0-0.9,0.3-1.7,0.8-2.3s1.3-0.9,2.2-0.9c0.9,0,1.7,0.3,2.2,0.9s0.8,1.4,0.8,2.3v0.1
			c0,1-0.3,1.7-0.8,2.3s-1.3,0.9-2.2,0.9c-0.9,0-1.7-0.3-2.2-0.9s-0.8-1.4-0.8-2.3V52.4z M80,52.5c0,0.6,0.1,1,0.3,1.4
			s0.5,0.5,1,0.5c0.4,0,0.8-0.2,1-0.5s0.3-0.8,0.3-1.4v-0.1c0-0.6-0.1-1-0.3-1.4s-0.5-0.5-1-0.5s-0.8,0.2-1,0.5S80,51.8,80,52.4
			V52.5z"/>
		<path class="st16" d="M84.9,50.3v-1h2.5l0.1,0.8c0.2-0.3,0.5-0.5,0.8-0.7s0.7-0.2,1.1-0.2c0.4,0,0.8,0.1,1,0.3s0.5,0.5,0.7,0.8
			c0.2-0.3,0.4-0.6,0.8-0.8s0.7-0.3,1.1-0.3c0.6,0,1.1,0.2,1.5,0.6s0.5,1.1,0.5,2v2.6l0.8,0.2v1h-3.3v-1l0.7-0.2v-2.6
			c0-0.5-0.1-0.8-0.2-1s-0.4-0.3-0.7-0.3c-0.2,0-0.5,0.1-0.6,0.2s-0.3,0.3-0.4,0.4c0,0.1,0,0.1,0,0.2s0,0.1,0,0.2v3l0.7,0.2v1h-3.1
			v-1l0.7-0.2v-2.6c0-0.5-0.1-0.8-0.2-1s-0.4-0.3-0.7-0.3c-0.2,0-0.4,0-0.6,0.1s-0.3,0.2-0.4,0.4v3.4l0.7,0.2v1h-3.3v-1l0.8-0.2
			v-3.9L84.9,50.3z"/>
		<path class="st16" d="M96.1,50.3v-1h2.5l0.1,0.7c0.2-0.3,0.4-0.5,0.7-0.6s0.6-0.2,0.9-0.2c0.8,0,1.4,0.3,1.8,0.9s0.7,1.4,0.7,2.4
			v0.1c0,0.9-0.2,1.7-0.7,2.3s-1,0.9-1.8,0.9c-0.3,0-0.6-0.1-0.9-0.2s-0.5-0.3-0.7-0.5v1.8l0.8,0.2v1h-3.4v-1l0.8-0.2v-6.4
			L96.1,50.3z M101,52.5c0-0.6-0.1-1.1-0.3-1.5s-0.5-0.6-0.9-0.6c-0.3,0-0.5,0.1-0.7,0.2s-0.3,0.3-0.4,0.5v2.8
			c0.1,0.2,0.2,0.3,0.4,0.4s0.4,0.1,0.7,0.1c0.4,0,0.7-0.2,0.9-0.5s0.3-0.8,0.3-1.3V52.5z"/>
		<path class="st16" d="M107.9,54.8c-0.2,0.3-0.5,0.5-0.8,0.7s-0.6,0.2-1,0.2c-0.7,0-1.2-0.2-1.6-0.6s-0.6-1.1-0.6-2v-2.6l-0.7-0.2
			v-1h0.7h1.7v3.8c0,0.5,0.1,0.8,0.2,1s0.4,0.3,0.7,0.3c0.3,0,0.5,0,0.7-0.1s0.4-0.2,0.5-0.4v-3.4l-0.8-0.2v-1h0.8h1.7v5.1l0.8,0.2
			v1H108L107.9,54.8z"/>
		<path class="st16" d="M113.5,47.7v1.6h1.1v1.2h-1.1v3.2c0,0.2,0.1,0.4,0.2,0.5s0.2,0.2,0.4,0.2c0.1,0,0.2,0,0.3,0s0.2,0,0.3,0
			l0.1,1.2c-0.2,0.1-0.4,0.1-0.6,0.1s-0.4,0-0.6,0c-0.6,0-1-0.2-1.4-0.5s-0.5-0.8-0.5-1.5v-3.2h-0.9v-1.2h0.9v-1.6H113.5z"/>
		<path class="st16" d="M118.5,55.7c-0.9,0-1.6-0.3-2.2-0.9s-0.8-1.3-0.8-2.2v-0.2c0-0.9,0.3-1.7,0.8-2.3s1.2-0.9,2.1-0.9
			c0.9,0,1.5,0.3,2,0.8s0.7,1.2,0.7,2.1V53h-3.8l0,0c0,0.4,0.2,0.8,0.4,1s0.6,0.4,1,0.4c0.4,0,0.7,0,0.9-0.1s0.5-0.2,0.8-0.4
			l0.5,1.1c-0.3,0.2-0.6,0.4-1,0.5S119,55.7,118.5,55.7z M118.3,50.5c-0.3,0-0.6,0.1-0.8,0.4s-0.3,0.6-0.3,1l0,0h2.1v-0.2
			c0-0.4-0.1-0.7-0.3-0.9S118.7,50.5,118.3,50.5z"/>
		<path class="st16" d="M122,54.6l0.8-0.2v-3.9l-0.9-0.2v-1h2.5l0.1,0.9c0.1-0.3,0.3-0.6,0.6-0.8s0.5-0.3,0.8-0.3c0.1,0,0.2,0,0.3,0
			s0.2,0,0.2,0l-0.2,1.6l-0.7,0c-0.3,0-0.5,0-0.6,0.1s-0.3,0.2-0.4,0.4v3.1l0.8,0.2v1H122V54.6z"/>
	</g>
</g>
<g id="Ebene_4">
	<path class="st17" d="M363.6,71.3c-0.7-1.2-2.3-1.8-3.6-1.2c-2.3,0.9-1.3,3.6-1.3,3.6s-5.1-0.1-4.6,5.2c0.4,3.8,4.6,3.6,4.4,3.6
		c-6.2,0,12.4,0.1,18.6,0c1,0,1.9-0.4,2.6-1c1.5-1.1,2-3.1,1.3-4.7c-0.6-1.8-3-2.8-4.9-2.9c0,0,1.1-4.9-2.4-7.1
		c-2.5-1.7-5.9-1.4-8.1,0.6C364.7,68.5,363.9,69.9,363.6,71.3z"/>
</g>
</svg>
