<?xml version="1.0" encoding="utf-8"?>
<!-- Generator: Adobe Illustrator 24.0.0, SVG Export Plug-In . SVG Version: 6.00 Build 0)  -->
<svg version="1.1" id="Ebene_1" xmlns="http://www.w3.org/2000/svg" xmlns:xlink="http://www.w3.org/1999/xlink" x="0px" y="0px"
	 viewBox="0 0 577.6 244.6" style="enable-background:new 0 0 577.6 244.6;" xml:space="preserve">
<style type="text/css">
	.st0{fill:none;stroke:#FFCC00;stroke-width:2;stroke-miterlimit:10;stroke-dasharray:2,2;}
	.st1{fill:#FFCC00;}
	.st2{fill:none;stroke:#FFCC00;stroke-width:2;stroke-miterlimit:10;}
	.st3{enable-background:new    ;}
	.st4{fill:#330066;}
	.st5{fill:url(#SVGID_1_);stroke:#FFCC00;stroke-width:2;stroke-miterlimit:10;}
	.st6{fill:url(#SVGID_2_);stroke:#FFCC00;stroke-width:2;stroke-miterlimit:10;}
	.st7{fill:url(#SVGID_3_);stroke:#FFCC00;stroke-width:2;stroke-miterlimit:10;}
	.st8{fill:#FFFFFF;}
	.st9{clip-path:url(#SVGID_5_);}
	.st10{clip-path:url(#SVGID_7_);}
	.st11{fill:#FFD138;}
	.st12{fill:#FDFEFF;}
	.st13{fill:#3399FF;}
	.st14{fill:#FFFFFF;stroke:#FFCC00;stroke-width:2;stroke-linecap:round;stroke-linejoin:round;}
	.st15{fill:none;stroke:#FFCC00;stroke-linecap:round;stroke-linejoin:round;}
</style>
<title>transparentConfiguration</title>
<g id="Ebene_2_1_">
	<line class="st0" x1="222.2" y1="100.6" x2="176.4" y2="100.6"/>
	<polygon class="st1" points="217.6,94.9 216.6,95.9 221.7,100.6 216.6,105.3 217.6,106.3 223.8,100.6 	"/>
	<polygon class="st1" points="181.1,94.9 182,95.9 177,100.6 182,105.3 181.1,106.3 174.9,100.6 	"/>
	<line class="st0" x1="323.5" y1="203.6" x2="323.5" y2="156.4"/>
	<polygon class="st1" points="329.2,199 328.2,198 323.5,203.1 318.8,198 317.7,199 323.5,205.1 	"/>
	<polygon class="st1" points="329.2,161.1 328.2,162 323.5,156.9 318.8,162 317.7,161.1 323.5,154.9 	"/>
	<path class="st2" d="M196.3,92.2c3.4,0,6.1,4.2,6.1,9.4s-2.7,9.3-6.1,9.3"/>
	<g class="st3">
		<path class="st1" d="M195.9,78.9v2.3h-1.3l-0.1-1H193v6l0.9,0.2v1h-3.6v-1l0.9-0.2v-6h-1.6l-0.1,1h-1.3v-2.3H195.9z"/>
		<path class="st1" d="M196.5,87.5v-1l0.9-0.2v-6.1l-0.9-0.2v-1h0.9h1.7h0.9v1l-0.9,0.2v6h2.4l0.1-1.1h1.3v2.4H196.5z"/>
		<path class="st1" d="M210.2,81.7h-1.3l-0.2-1.2c-0.2-0.1-0.4-0.2-0.7-0.2s-0.6-0.1-0.9-0.1c-0.5,0-0.8,0.1-1.1,0.3
			c-0.3,0.2-0.4,0.5-0.4,0.8c0,0.3,0.1,0.5,0.4,0.7c0.3,0.2,0.7,0.4,1.4,0.6c1,0.3,1.7,0.6,2.2,1s0.7,1,0.7,1.7
			c0,0.7-0.3,1.3-0.9,1.7s-1.4,0.6-2.3,0.6c-0.7,0-1.3-0.1-1.8-0.3s-1-0.5-1.4-0.9v-1.8h1.3l0.2,1.2c0.2,0.1,0.4,0.3,0.7,0.3
			s0.6,0.1,1,0.1c0.5,0,0.8-0.1,1.1-0.3s0.4-0.4,0.4-0.8c0-0.3-0.1-0.6-0.4-0.8c-0.2-0.2-0.6-0.4-1.2-0.6c-1-0.3-1.8-0.6-2.3-1
			c-0.5-0.4-0.8-1-0.8-1.7c0-0.7,0.3-1.3,0.9-1.7s1.3-0.7,2.2-0.7c0.7,0,1.3,0.1,1.8,0.3s1,0.5,1.4,0.8V81.7z"/>
	</g>
	<g class="st3">
		<path class="st4" d="M375.4,168.6h-2.6v7.5h-1v-7.5h-2.6v-0.9h6.2V168.6z"/>
	</g>
	<g class="st3">
		<path class="st4" d="M378.1,171c-0.2-0.1-0.5-0.1-0.7-0.1c-0.3,0-0.6,0.1-0.8,0.3c-0.2,0.2-0.3,0.4-0.4,0.7v4.2h-1v-6h0.7l0.2,0.7
			h0c0.2-0.3,0.3-0.5,0.5-0.6c0.2-0.1,0.5-0.2,0.8-0.2c0.2,0,0.5,0,0.8,0.1L378.1,171z"/>
		<path class="st4" d="M379.3,170.5c0.3-0.2,0.7-0.3,1.1-0.4s0.8-0.1,1.3-0.1c0.4,0,0.8,0.1,1,0.2c0.3,0.1,0.4,0.3,0.6,0.4
			c0.1,0.2,0.2,0.4,0.3,0.6c0,0.2,0.1,0.4,0.1,0.6c0,0.5,0,0.9,0,1.4c0,0.5,0,0.9,0,1.3c0,0.3,0,0.6,0,0.8c0,0.3,0.1,0.5,0.1,0.7
			h-0.7l-0.3-0.8h-0.1c-0.1,0.1-0.2,0.2-0.3,0.3c-0.1,0.1-0.2,0.2-0.4,0.3c-0.2,0.1-0.3,0.2-0.5,0.2c-0.2,0.1-0.4,0.1-0.7,0.1
			s-0.5,0-0.7-0.1c-0.2-0.1-0.4-0.2-0.6-0.3c-0.2-0.1-0.3-0.3-0.4-0.5c-0.1-0.2-0.1-0.4-0.1-0.7c0-0.4,0.1-0.6,0.2-0.9
			c0.1-0.2,0.3-0.4,0.6-0.6c0.3-0.1,0.6-0.2,0.9-0.3c0.4-0.1,0.8-0.1,1.2-0.1c0.1,0,0.2,0,0.3,0s0.2,0,0.3,0c0-0.2,0-0.5,0-0.6
			c0-0.4-0.1-0.7-0.3-0.9c-0.2-0.2-0.5-0.3-1-0.3c-0.1,0-0.3,0-0.4,0c-0.2,0-0.3,0-0.5,0.1s-0.3,0.1-0.5,0.1
			c-0.1,0.1-0.3,0.1-0.4,0.2L379.3,170.5z M381,175.3c0.2,0,0.4,0,0.6-0.1s0.3-0.1,0.5-0.2c0.1-0.1,0.2-0.2,0.3-0.3
			c0.1-0.1,0.1-0.2,0.2-0.3v-1c-0.1,0-0.2,0-0.3,0c-0.1,0-0.2,0-0.3,0c-0.2,0-0.5,0-0.7,0s-0.4,0.1-0.6,0.2s-0.3,0.2-0.4,0.3
			c-0.1,0.1-0.2,0.3-0.2,0.5c0,0.3,0.1,0.5,0.3,0.7C380.4,175.2,380.7,175.3,381,175.3z"/>
		<path class="st4" d="M389.2,176.1v-3.4c0-0.6-0.1-1.1-0.3-1.4c-0.2-0.3-0.5-0.5-1-0.5c-0.4,0-0.8,0.1-1.1,0.3
			c-0.3,0.2-0.5,0.5-0.6,0.9v4.1h-1v-6h0.7l0.2,0.7h0c0.2-0.3,0.5-0.5,0.8-0.6c0.3-0.2,0.7-0.2,1.2-0.2c0.3,0,0.6,0,0.9,0.1
			c0.2,0.1,0.5,0.2,0.6,0.4s0.3,0.5,0.4,0.8c0.1,0.3,0.1,0.7,0.1,1.2v3.6H389.2z"/>
		<path class="st4" d="M394.5,174.4c0-0.2-0.1-0.4-0.2-0.6c-0.1-0.1-0.3-0.3-0.5-0.3s-0.4-0.2-0.7-0.3s-0.5-0.2-0.7-0.3
			s-0.4-0.3-0.5-0.5c-0.1-0.2-0.2-0.5-0.2-0.8c0-0.6,0.2-1,0.5-1.3c0.3-0.3,0.8-0.4,1.4-0.4c0.4,0,0.8,0,1.1,0.1
			c0.3,0.1,0.5,0.2,0.8,0.3l-0.2,0.8c-0.2-0.1-0.4-0.2-0.7-0.2c-0.3-0.1-0.5-0.1-0.8-0.1c-0.4,0-0.6,0.1-0.8,0.2s-0.2,0.3-0.2,0.6
			c0,0.2,0.1,0.4,0.2,0.5c0.1,0.1,0.3,0.2,0.5,0.3s0.4,0.2,0.7,0.3s0.5,0.2,0.7,0.3s0.4,0.3,0.5,0.5c0.1,0.2,0.2,0.5,0.2,0.9
			c0,0.3,0,0.5-0.1,0.7c-0.1,0.2-0.2,0.4-0.4,0.6s-0.4,0.3-0.7,0.4s-0.6,0.1-0.9,0.1c-0.5,0-0.8,0-1.2-0.1c-0.3-0.1-0.6-0.2-0.8-0.3
			l0.3-0.8c0.2,0.1,0.4,0.2,0.7,0.3s0.6,0.1,0.9,0.1c0.3,0,0.6-0.1,0.9-0.2C394.4,175,394.5,174.8,394.5,174.4z"/>
		<path class="st4" d="M396.9,170.1h0.7l0.2,0.7h0c0.2-0.3,0.4-0.5,0.7-0.6s0.6-0.2,1-0.2c0.8,0,1.4,0.2,1.8,0.7
			c0.4,0.5,0.6,1.2,0.6,2.3c0,0.5-0.1,1-0.2,1.4s-0.3,0.7-0.6,1c-0.2,0.3-0.5,0.5-0.9,0.6c-0.3,0.2-0.7,0.2-1.1,0.2
			c-0.3,0-0.5,0-0.7-0.1s-0.4-0.1-0.6-0.2v2.5h-1V170.1z M399.4,170.8c-0.4,0-0.7,0.1-1,0.3c-0.2,0.2-0.4,0.5-0.5,1v3
			c0.1,0.1,0.3,0.2,0.5,0.3c0.2,0.1,0.4,0.1,0.7,0.1c0.6,0,1-0.2,1.3-0.6c0.3-0.4,0.5-1,0.5-1.8c0-0.3,0-0.6-0.1-0.9
			c-0.1-0.3-0.1-0.5-0.3-0.7c-0.1-0.2-0.3-0.3-0.5-0.4C399.9,170.8,399.7,170.8,399.4,170.8z"/>
		<path class="st4" d="M403.3,170.5c0.3-0.2,0.7-0.3,1.1-0.4s0.8-0.1,1.3-0.1c0.4,0,0.8,0.1,1,0.2c0.3,0.1,0.4,0.3,0.6,0.4
			c0.1,0.2,0.2,0.4,0.3,0.6c0,0.2,0.1,0.4,0.1,0.6c0,0.5,0,0.9,0,1.4c0,0.5,0,0.9,0,1.3c0,0.3,0,0.6,0,0.8c0,0.3,0.1,0.5,0.1,0.7
			H407l-0.3-0.8h-0.1c-0.1,0.1-0.2,0.2-0.3,0.3c-0.1,0.1-0.2,0.2-0.4,0.3c-0.2,0.1-0.3,0.2-0.5,0.2c-0.2,0.1-0.4,0.1-0.7,0.1
			s-0.5,0-0.7-0.1c-0.2-0.1-0.4-0.2-0.6-0.3c-0.2-0.1-0.3-0.3-0.4-0.5c-0.1-0.2-0.1-0.4-0.1-0.7c0-0.4,0.1-0.6,0.2-0.9
			c0.1-0.2,0.3-0.4,0.6-0.6c0.3-0.1,0.6-0.2,0.9-0.3c0.4-0.1,0.8-0.1,1.2-0.1c0.1,0,0.2,0,0.3,0s0.2,0,0.3,0c0-0.2,0-0.5,0-0.6
			c0-0.4-0.1-0.7-0.3-0.9c-0.2-0.2-0.5-0.3-1-0.3c-0.1,0-0.3,0-0.4,0c-0.2,0-0.3,0-0.5,0.1s-0.3,0.1-0.5,0.1
			c-0.1,0.1-0.3,0.1-0.4,0.2L403.3,170.5z M405,175.3c0.2,0,0.4,0,0.6-0.1s0.3-0.1,0.5-0.2c0.1-0.1,0.2-0.2,0.3-0.3
			c0.1-0.1,0.1-0.2,0.2-0.3v-1c-0.1,0-0.2,0-0.3,0c-0.1,0-0.2,0-0.3,0c-0.2,0-0.5,0-0.7,0s-0.4,0.1-0.6,0.2s-0.3,0.2-0.4,0.3
			c-0.1,0.1-0.2,0.3-0.2,0.5c0,0.3,0.1,0.5,0.3,0.7C404.5,175.2,404.7,175.3,405,175.3z"/>
		<path class="st4" d="M412.2,171c-0.2-0.1-0.5-0.1-0.7-0.1c-0.3,0-0.6,0.1-0.8,0.3c-0.2,0.2-0.3,0.4-0.4,0.7v4.2h-1v-6h0.7l0.2,0.7
			h0c0.2-0.3,0.3-0.5,0.5-0.6c0.2-0.1,0.5-0.2,0.8-0.2c0.2,0,0.5,0,0.8,0.1L412.2,171z"/>
		<path class="st4" d="M417.8,175.6c-0.2,0.2-0.5,0.3-0.9,0.5c-0.4,0.1-0.8,0.2-1.2,0.2c-0.5,0-0.9-0.1-1.2-0.2
			c-0.3-0.1-0.6-0.4-0.8-0.6c-0.2-0.3-0.4-0.6-0.5-1s-0.2-0.8-0.2-1.3c0-1,0.2-1.8,0.7-2.3s1.1-0.8,2-0.8c0.3,0,0.5,0,0.8,0.1
			c0.3,0.1,0.5,0.2,0.7,0.3s0.4,0.4,0.5,0.7c0.1,0.3,0.2,0.7,0.2,1.2c0,0.3,0,0.6-0.1,0.9h-3.9c0,0.4,0,0.7,0.1,0.9
			c0.1,0.3,0.2,0.5,0.3,0.7c0.2,0.2,0.3,0.3,0.6,0.4c0.2,0.1,0.5,0.1,0.9,0.1c0.3,0,0.5,0,0.8-0.1c0.3-0.1,0.5-0.2,0.6-0.3
			L417.8,175.6z M415.8,170.8c-0.5,0-0.9,0.1-1.1,0.4c-0.3,0.2-0.5,0.7-0.5,1.3h3c0-0.6-0.1-1-0.3-1.3
			C416.5,170.9,416.2,170.8,415.8,170.8z"/>
		<path class="st4" d="M423.4,176.1v-3.4c0-0.6-0.1-1.1-0.3-1.4c-0.2-0.3-0.5-0.5-1-0.5c-0.4,0-0.8,0.1-1.1,0.3
			c-0.3,0.2-0.5,0.5-0.6,0.9v4.1h-1v-6h0.7l0.2,0.7h0c0.2-0.3,0.5-0.5,0.8-0.6c0.3-0.2,0.7-0.2,1.2-0.2c0.3,0,0.6,0,0.9,0.1
			c0.2,0.1,0.5,0.2,0.6,0.4s0.3,0.5,0.4,0.8c0.1,0.3,0.1,0.7,0.1,1.2v3.6H423.4z"/>
		<path class="st4" d="M425.3,170.1h0.9v-1.2l1-0.3v1.5h1.6v0.8h-1.6v3.3c0,0.4,0.1,0.7,0.2,0.9c0.1,0.2,0.3,0.3,0.5,0.3
			c0.2,0,0.4,0,0.5-0.1c0.1,0,0.3-0.1,0.5-0.2l0.2,0.7c-0.2,0.1-0.5,0.2-0.7,0.3c-0.3,0.1-0.5,0.1-0.8,0.1c-0.5,0-0.8-0.1-1-0.4
			c-0.2-0.3-0.3-0.7-0.3-1.4v-3.5h-0.9V170.1z"/>
	</g>
	<g class="st3">
		<path class="st4" d="M374.5,184.5v6h-1v-5.2h-2.4v5.2h-1v-5.2h-0.9v-0.8h0.9v-0.3c0-0.8,0.2-1.3,0.6-1.6c0.4-0.3,0.9-0.5,1.6-0.5
			c0.5,0,0.9,0,1.3,0.1s0.7,0.2,0.9,0.3l-0.3,0.8c-0.2-0.1-0.5-0.2-0.8-0.3c-0.3-0.1-0.6-0.1-0.9-0.1c-0.3,0-0.5,0-0.7,0.1
			s-0.3,0.2-0.4,0.3s-0.2,0.3-0.2,0.5c0,0.2,0,0.4,0,0.7H374.5z"/>
		<path class="st4" d="M377.4,189c0,0.3,0,0.5,0.1,0.6c0.1,0.1,0.2,0.2,0.4,0.2c0.1,0,0.2,0,0.3,0s0.3-0.1,0.4-0.1l0.1,0.8
			c-0.1,0.1-0.3,0.1-0.5,0.2c-0.2,0-0.4,0.1-0.6,0.1c-0.4,0-0.7-0.1-0.9-0.3c-0.2-0.2-0.3-0.6-0.3-1v-7.2h1V189z"/>
		<path class="st4" d="M384.3,190c-0.2,0.2-0.5,0.3-0.9,0.5c-0.4,0.1-0.8,0.2-1.2,0.2c-0.5,0-0.9-0.1-1.2-0.2s-0.6-0.4-0.8-0.6
			s-0.4-0.6-0.5-1c-0.1-0.4-0.2-0.8-0.2-1.3c0-1,0.2-1.8,0.7-2.3c0.5-0.5,1.1-0.8,2-0.8c0.3,0,0.5,0,0.8,0.1
			c0.3,0.1,0.5,0.2,0.7,0.3c0.2,0.2,0.4,0.4,0.5,0.7s0.2,0.7,0.2,1.2c0,0.3,0,0.6-0.1,0.9h-3.9c0,0.4,0,0.7,0.1,0.9
			c0.1,0.3,0.2,0.5,0.3,0.7c0.2,0.2,0.4,0.3,0.6,0.4c0.2,0.1,0.5,0.1,0.9,0.1c0.3,0,0.5,0,0.8-0.1c0.3-0.1,0.5-0.2,0.6-0.3
			L384.3,190z M382.2,185.2c-0.5,0-0.9,0.1-1.1,0.4s-0.5,0.7-0.5,1.3h3c0-0.6-0.1-1-0.3-1.3C382.9,185.3,382.6,185.2,382.2,185.2z"
			/>
		<path class="st4" d="M393.6,190c-0.2,0.2-0.5,0.3-0.9,0.5c-0.4,0.1-0.8,0.2-1.2,0.2c-0.5,0-0.9-0.1-1.2-0.2s-0.6-0.4-0.8-0.6
			s-0.4-0.6-0.5-1c-0.1-0.4-0.2-0.8-0.2-1.3c0-1,0.2-1.8,0.7-2.3c0.5-0.5,1.1-0.8,2-0.8c0.3,0,0.5,0,0.8,0.1
			c0.3,0.1,0.5,0.2,0.7,0.3c0.2,0.2,0.4,0.4,0.5,0.7s0.2,0.7,0.2,1.2c0,0.3,0,0.6-0.1,0.9h-3.9c0,0.4,0,0.7,0.1,0.9
			c0.1,0.3,0.2,0.5,0.3,0.7c0.2,0.2,0.4,0.3,0.6,0.4c0.2,0.1,0.5,0.1,0.9,0.1c0.3,0,0.5,0,0.8-0.1c0.3-0.1,0.5-0.2,0.6-0.3
			L393.6,190z M391.5,185.2c-0.5,0-0.9,0.1-1.1,0.4s-0.5,0.7-0.5,1.3h3c0-0.6-0.1-1-0.3-1.3C392.2,185.3,391.9,185.2,391.5,185.2z"
			/>
		<path class="st4" d="M399.1,190.5v-3.4c0-0.6-0.1-1.1-0.3-1.4c-0.2-0.3-0.5-0.5-1-0.5c-0.4,0-0.8,0.1-1.1,0.3
			c-0.3,0.2-0.5,0.5-0.6,0.9v4.1h-1v-6h0.7l0.2,0.7h0c0.2-0.3,0.5-0.5,0.8-0.6c0.3-0.2,0.7-0.2,1.2-0.2c0.3,0,0.6,0,0.9,0.1
			c0.2,0.1,0.5,0.2,0.6,0.4c0.2,0.2,0.3,0.5,0.4,0.8c0.1,0.3,0.1,0.7,0.1,1.2v3.6H399.1z"/>
		<path class="st4" d="M405.9,190.1c-0.2,0.2-0.5,0.3-0.9,0.4c-0.3,0.1-0.7,0.1-1,0.1c-0.5,0-0.9-0.1-1.2-0.2
			c-0.3-0.1-0.6-0.4-0.8-0.6s-0.4-0.6-0.4-1c-0.1-0.4-0.1-0.8-0.1-1.3c0-1,0.2-1.8,0.7-2.3c0.4-0.5,1.1-0.8,1.9-0.8
			c0.4,0,0.7,0,1,0.1c0.3,0.1,0.5,0.1,0.7,0.3l-0.3,0.8c-0.2-0.1-0.4-0.2-0.6-0.2s-0.5-0.1-0.7-0.1c-1.1,0-1.7,0.8-1.7,2.3
			c0,0.3,0,0.6,0.1,0.9c0.1,0.3,0.2,0.5,0.3,0.7s0.3,0.4,0.6,0.5c0.2,0.1,0.5,0.2,0.8,0.2c0.3,0,0.5,0,0.8-0.1
			c0.2-0.1,0.4-0.2,0.6-0.3L405.9,190.1z"/>
		<path class="st4" d="M410.1,185.4c-0.2-0.1-0.5-0.1-0.7-0.1c-0.3,0-0.6,0.1-0.8,0.3c-0.2,0.2-0.3,0.4-0.4,0.7v4.2h-1v-6h0.7
			l0.2,0.7h0c0.2-0.3,0.3-0.5,0.5-0.6s0.5-0.2,0.8-0.2c0.2,0,0.5,0,0.8,0.1L410.1,185.4z"/>
		<path class="st4" d="M413.1,188.4l0.3,1.2h0.1l0.3-1.2l1.2-3.9h1l-1.8,5.4c-0.1,0.4-0.3,0.8-0.4,1.1c-0.1,0.4-0.3,0.7-0.4,1
			c-0.2,0.3-0.3,0.5-0.5,0.7s-0.4,0.3-0.7,0.3c-0.3,0-0.5,0-0.7-0.1l0.2-0.8c0.1,0,0.2,0.1,0.3,0.1c0.2,0,0.4-0.1,0.6-0.4
			c0.2-0.2,0.4-0.6,0.5-1.2l-2.4-6h1.1L413.1,188.4z"/>
		<path class="st4" d="M416.9,184.5h0.7l0.2,0.7h0c0.2-0.3,0.4-0.5,0.7-0.6s0.6-0.2,1-0.2c0.8,0,1.4,0.2,1.8,0.7
			c0.4,0.5,0.6,1.2,0.6,2.3c0,0.5-0.1,1-0.2,1.4s-0.3,0.7-0.6,1s-0.5,0.5-0.9,0.6s-0.7,0.2-1.1,0.2c-0.3,0-0.5,0-0.7-0.1
			c-0.2,0-0.4-0.1-0.6-0.2v2.5h-1V184.5z M419.3,185.2c-0.4,0-0.7,0.1-1,0.3c-0.2,0.2-0.4,0.5-0.5,1v3c0.1,0.1,0.3,0.2,0.5,0.3
			c0.2,0.1,0.4,0.1,0.7,0.1c0.6,0,1-0.2,1.3-0.6c0.3-0.4,0.5-1,0.5-1.8c0-0.3,0-0.6-0.1-0.9c-0.1-0.3-0.1-0.5-0.3-0.7
			c-0.1-0.2-0.3-0.3-0.5-0.4S419.6,185.2,419.3,185.2z"/>
		<path class="st4" d="M422.6,184.5h0.9v-1.2l1-0.3v1.5h1.6v0.8h-1.6v3.3c0,0.4,0.1,0.7,0.2,0.9c0.1,0.2,0.3,0.3,0.5,0.3
			c0.2,0,0.4,0,0.5-0.1c0.1,0,0.3-0.1,0.5-0.2l0.2,0.7c-0.2,0.1-0.5,0.2-0.7,0.3c-0.3,0.1-0.5,0.1-0.8,0.1c-0.5,0-0.8-0.1-1-0.4
			c-0.2-0.3-0.3-0.7-0.3-1.4v-3.5h-0.9V184.5z"/>
		<path class="st4" d="M427.5,182.7c0-0.2,0.1-0.3,0.2-0.5c0.1-0.1,0.3-0.2,0.5-0.2c0.2,0,0.4,0.1,0.5,0.2c0.1,0.1,0.2,0.3,0.2,0.5
			s-0.1,0.3-0.2,0.5c-0.1,0.1-0.3,0.2-0.5,0.2c-0.2,0-0.3-0.1-0.5-0.2C427.5,183,427.5,182.8,427.5,182.7z M427.7,184.5h1v6h-1
			V184.5z"/>
		<path class="st4" d="M430.4,187.5c0-1,0.2-1.8,0.7-2.3c0.5-0.5,1.1-0.8,1.9-0.8c0.4,0,0.8,0.1,1.2,0.2c0.3,0.1,0.6,0.4,0.8,0.6
			c0.2,0.3,0.4,0.6,0.5,1c0.1,0.4,0.2,0.8,0.2,1.3c0,1-0.2,1.8-0.7,2.3c-0.5,0.5-1.1,0.8-2,0.8c-0.4,0-0.8-0.1-1.2-0.2
			s-0.6-0.4-0.8-0.6c-0.2-0.3-0.4-0.6-0.5-1C430.4,188.4,430.4,188,430.4,187.5z M431.4,187.5c0,0.3,0,0.6,0.1,0.9
			c0.1,0.3,0.2,0.5,0.3,0.7c0.1,0.2,0.3,0.4,0.5,0.5c0.2,0.1,0.5,0.2,0.8,0.2c1.1,0,1.6-0.8,1.6-2.3c0-0.3,0-0.6-0.1-0.9
			c-0.1-0.3-0.2-0.5-0.3-0.7c-0.1-0.2-0.3-0.4-0.5-0.5c-0.2-0.1-0.5-0.2-0.8-0.2C431.9,185.2,431.4,185.9,431.4,187.5z"/>
		<path class="st4" d="M441,190.5v-3.4c0-0.6-0.1-1.1-0.3-1.4s-0.5-0.5-1-0.5c-0.4,0-0.8,0.1-1,0.3s-0.5,0.5-0.6,0.9v4.1h-1v-6h0.7
			l0.2,0.7h0c0.2-0.3,0.4-0.5,0.8-0.6s0.7-0.2,1.2-0.2c0.3,0,0.6,0,0.9,0.1c0.2,0.1,0.5,0.2,0.6,0.4c0.2,0.2,0.3,0.5,0.4,0.8
			c0.1,0.3,0.1,0.7,0.1,1.2v3.6H441z"/>
	</g>
</g>
<g id="Ebene_4">
	
		<linearGradient id="SVGID_1_" gradientUnits="userSpaceOnUse" x1="289.44" y1="24.85" x2="358.14" y2="24.85" gradientTransform="matrix(1 0 0 -1 0 246)">
		<stop  offset="0" style="stop-color:#990066"/>
		<stop  offset="0.19" style="stop-color:#780066"/>
		<stop  offset="0.4" style="stop-color:#5A0066"/>
		<stop  offset="0.61" style="stop-color:#440066"/>
		<stop  offset="0.81" style="stop-color:#370066"/>
		<stop  offset="1" style="stop-color:#330066"/>
	</linearGradient>
	<path class="st5" d="M294.4,205.9h58.7c2.8,0,5,2.2,5,5v20.6c0,2.8-2.2,5-5,5h-58.7c-2.8,0-5-2.2-5-5v-20.6
		C289.4,208.1,291.7,205.9,294.4,205.9z"/>
	<rect x="131.6" y="92.2" class="st2" width="137.1" height="18.7"/>
	
		<linearGradient id="SVGID_2_" gradientUnits="userSpaceOnUse" x1="268.72" y1="157.78" x2="378.47" y2="157.78" gradientTransform="matrix(1 0 0 -1 0 246)">
		<stop  offset="0" style="stop-color:#990066"/>
		<stop  offset="0.19" style="stop-color:#780066"/>
		<stop  offset="0.4" style="stop-color:#5A0066"/>
		<stop  offset="0.61" style="stop-color:#440066"/>
		<stop  offset="0.81" style="stop-color:#370066"/>
		<stop  offset="1" style="stop-color:#330066"/>
	</linearGradient>
	<path class="st6" d="M273.7,22.2h99.8c2.8,0,5,2.2,5,5v122.1c0,2.8-2.2,5-5,5h-99.8c-2.8,0-5-2.2-5-5V27.2
		C268.7,24.4,271,22.2,273.7,22.2z"/>
	
		<linearGradient id="SVGID_3_" gradientUnits="userSpaceOnUse" x1="21.83" y1="143.8" x2="131.58" y2="143.8" gradientTransform="matrix(1 0 0 -1 0 246)">
		<stop  offset="0" style="stop-color:#990066"/>
		<stop  offset="0.19" style="stop-color:#780066"/>
		<stop  offset="0.4" style="stop-color:#5A0066"/>
		<stop  offset="0.61" style="stop-color:#440066"/>
		<stop  offset="0.81" style="stop-color:#370066"/>
		<stop  offset="1" style="stop-color:#330066"/>
	</linearGradient>
	<path class="st7" d="M26.8,83h99.8c2.8,0,5,2.2,5,5v28.5c0,2.8-2.2,5-5,5H26.8c-2.8,0-5-2.2-5-5V88C21.8,85.2,24.1,83,26.8,83z"/>
	<g class="st3">
		<path class="st8" d="M60.8,103.3c-0.3,0.2-0.6,0.3-1,0.4s-0.8,0.1-1.2,0.1c-0.5,0-1-0.1-1.4-0.2c-0.5-0.2-0.9-0.4-1.2-0.8
			c-0.3-0.3-0.6-0.8-0.8-1.4c-0.2-0.6-0.3-1.2-0.3-2c0-0.8,0.1-1.5,0.3-2.1c0.2-0.6,0.5-1,0.9-1.3c0.4-0.3,0.8-0.6,1.2-0.7
			c0.4-0.1,0.9-0.2,1.3-0.2c0.5,0,0.9,0,1.2,0.1c0.3,0.1,0.6,0.1,0.8,0.2l-0.3,1.4c-0.2-0.1-0.4-0.2-0.7-0.2s-0.6-0.1-0.9-0.1
			c-0.7,0-1.2,0.2-1.6,0.7c-0.4,0.5-0.6,1.2-0.6,2.2c0,0.4,0,0.8,0.1,1.2c0.1,0.4,0.2,0.7,0.4,0.9c0.2,0.3,0.4,0.4,0.7,0.6
			c0.3,0.1,0.6,0.2,1,0.2c0.4,0,0.7,0,0.9-0.1c0.2-0.1,0.5-0.2,0.6-0.3L60.8,103.3z"/>
	</g>
	<g class="st3">
		<path class="st8" d="M65.4,101.8h-2.6l-0.6,1.9h-1.6l3-8.5h1.2l3,8.5h-1.7L65.4,101.8z M63.2,100.5H65l-0.6-1.9l-0.3-1.3h-0.1
			l-0.3,1.3L63.2,100.5z"/>
		<path class="st8" d="M72.1,101.4c0-0.3-0.1-0.5-0.3-0.6c-0.2-0.2-0.4-0.3-0.7-0.4c-0.3-0.1-0.6-0.3-0.9-0.4
			c-0.3-0.1-0.6-0.3-0.9-0.5s-0.5-0.5-0.7-0.8c-0.2-0.3-0.3-0.7-0.3-1.2c0-0.4,0.1-0.8,0.2-1.1c0.1-0.3,0.3-0.5,0.6-0.8
			c0.3-0.2,0.5-0.3,0.9-0.4c0.3-0.1,0.7-0.1,1.2-0.1c0.5,0,0.9,0,1.4,0.1c0.4,0.1,0.8,0.2,1.1,0.4L73.1,97c-0.2-0.1-0.4-0.2-0.8-0.3
			c-0.4-0.1-0.7-0.1-1.1-0.1c-0.4,0-0.7,0.1-0.9,0.2c-0.2,0.2-0.3,0.4-0.3,0.6c0,0.2,0.1,0.4,0.3,0.6c0.2,0.2,0.4,0.3,0.7,0.4
			s0.6,0.3,0.9,0.4c0.3,0.1,0.6,0.3,0.9,0.5c0.3,0.2,0.5,0.5,0.7,0.8c0.2,0.3,0.3,0.7,0.3,1.1c0,0.4-0.1,0.8-0.2,1.2
			c-0.1,0.3-0.4,0.6-0.6,0.8c-0.3,0.2-0.6,0.4-1,0.5c-0.4,0.1-0.8,0.2-1.3,0.2c-0.6,0-1.1-0.1-1.6-0.2s-0.8-0.2-1-0.3l0.5-1.4
			c0.1,0,0.2,0.1,0.3,0.2c0.1,0.1,0.3,0.1,0.5,0.2c0.2,0,0.4,0.1,0.6,0.1c0.2,0,0.4,0,0.6,0c0.5,0,0.9-0.1,1.1-0.2
			C72,102,72.1,101.8,72.1,101.4z"/>
	</g>
	<g id="Scone_logo_white">
		<g>
			<defs>
				<rect id="SVGID_4_" x="63" y="113.3" width="25.7" height="5"/>
			</defs>
			<clipPath id="SVGID_5_">
				<use xlink:href="#SVGID_4_"  style="overflow:visible;"/>
			</clipPath>
			<g class="st9">
				<g>
					<defs>
						<rect id="SVGID_6_" x="63" y="113.3" width="25.7" height="5"/>
					</defs>
					<clipPath id="SVGID_7_">
						<use xlink:href="#SVGID_6_"  style="overflow:visible;"/>
					</clipPath>
					<g class="st10">
						<path class="st11" d="M66.4,114.6h-0.5c-0.1,0-0.2,0.1-0.2,0.2v0.5c0,0.1,0.1,0.2,0.2,0.2h0.5c0.1,0,0.2-0.1,0.2-0.2v-0.5
							C66.6,114.7,66.5,114.6,66.4,114.6 M64.5,115.6H65c0.1,0,0.2-0.1,0.2-0.2c0,0,0,0,0,0v-0.5c0-0.1-0.1-0.2-0.2-0.2c0,0,0,0,0,0
							h-0.5c-0.1,0-0.2,0.1-0.2,0.2v0.5C64.3,115.5,64.4,115.6,64.5,115.6 M63.9,115.4v-0.5c0-0.1-0.1-0.2-0.2-0.2h-0.5
							c-0.1,0-0.2,0.1-0.2,0.2v0.5c0,0.1,0.1,0.2,0.2,0.2h0.5C63.8,115.6,63.9,115.5,63.9,115.4 M66.4,116c-0.1,0-0.2,0.1-0.2,0.2
							v0.6c0,0.1,0.1,0.2,0.2,0.2l0,0c0.1,0,0.2-0.1,0.2-0.2v-0.6C66.6,116.1,66.5,116,66.4,116L66.4,116 M64.9,116.2v0.6
							c0,0.1,0.1,0.2,0.2,0.2h0.5c0.1,0,0.2-0.1,0.2-0.2v-0.6c0-0.1-0.1-0.2-0.2-0.2h-0.5C65,116,64.9,116.1,64.9,116.2 M64.5,116.7
							v-0.6c0-0.1-0.1-0.2-0.2-0.2h-0.5c-0.1,0-0.2,0.1-0.2,0.2v0.6c0,0.1,0.1,0.2,0.2,0.2c0,0,0,0,0,0h0.5
							C64.5,116.9,64.5,116.9,64.5,116.7C64.5,116.7,64.6,116.7,64.5,116.7 M66.4,117.3h-0.5c-0.1,0-0.2,0.1-0.2,0.2v0.5
							c0,0.1,0.1,0.2,0.2,0.2h0.5c0.1,0,0.2-0.1,0.2-0.2v-0.6C66.6,117.3,66.5,117.2,66.4,117.3 M65,117.3h-0.5
							c-0.1,0-0.2,0.1-0.2,0.2c0,0,0,0,0,0v0.6c0,0.1,0.1,0.2,0.2,0.2H65c0.1,0,0.2-0.1,0.2-0.2v-0.6
							C65.2,117.3,65.1,117.2,65,117.3C65,117.2,65,117.2,65,117.3"/>
						<path class="st11" d="M67,114.4c0.2,0.2,0.5,0.3,0.8,0.3l0,0v1.5c0,0.6-0.7,0.9-0.9,1s0,0,0,0L67,114.4L67,114.4"/>
						<path class="st11" d="M65.4,114.3c1.1,0,1.3-0.4,1.3-0.4l0,0l0,0c0,0,0.2,0.4,1.3,0.4l0,0v1.9c0,0.6-1.2,1.3-1.2,1.3s0,0,0,0
							v0.5c0,0,0.1,0,0.1,0c0.4-0.2,1.7-0.9,1.7-1.7V114c0,0-0.1-0.1-0.1-0.1c-1.4,0-1.7-0.5-1.7-0.5s-0.1,0-0.1,0s0,0-0.1,0
							s-0.2,0.6-1.7,0.6c-0.1,0-0.1,0-0.1,0.1v0.3v0.1h0.4"/>
						<path class="st12" d="M69.8,117.5l0.6-0.2c0.1,0.3,0.4,0.4,0.8,0.4c0.2,0,0.3,0,0.4-0.1c0.1-0.1,0.2-0.2,0.2-0.3
							c0-0.3-0.4-0.5-0.7-0.6l0,0c-0.2-0.1-0.5-0.2-0.7-0.4c-0.2-0.2-0.3-0.4-0.3-0.7c0-0.3,0.1-0.5,0.3-0.7
							c0.2-0.2,0.5-0.3,0.8-0.3c0.5,0,0.9,0.2,1.1,0.6l-0.6,0.2c0-0.1-0.1-0.2-0.2-0.2c-0.1,0-0.2-0.1-0.3-0.1
							c-0.3,0-0.6,0.2-0.6,0.4c0,0.2,0.1,0.3,0.2,0.4c0.2,0.1,0.3,0.2,0.5,0.3h0.1c0.4,0.2,1,0.4,1,1c0,0.3-0.2,0.6-0.4,0.8
							c-0.3,0.2-0.6,0.3-0.9,0.3C70.5,118.3,70,118,69.8,117.5"/>
						<path class="st12" d="M74.9,118.3c-0.2,0-0.5-0.1-0.7-0.2c-0.2-0.1-0.4-0.2-0.6-0.4c-0.2-0.2-0.3-0.4-0.4-0.6
							c-0.1-0.2-0.1-0.5-0.2-0.7c0-0.2,0.1-0.5,0.2-0.7c0.1-0.2,0.2-0.4,0.4-0.6c0.2-0.2,0.4-0.3,0.6-0.4c0.2-0.1,0.5-0.1,0.7-0.1
							c0.3,0,0.6,0.1,0.8,0.2c0.2,0.1,0.5,0.3,0.6,0.5l-0.5,0.4c-0.2-0.3-0.6-0.5-1-0.5c-0.3,0-0.6,0.1-0.9,0.4
							c-0.2,0.2-0.4,0.5-0.4,0.9c0,0.3,0.1,0.6,0.4,0.9c0.2,0.2,0.5,0.4,0.9,0.4c0.2,0,0.4-0.1,0.6-0.2c0.2-0.1,0.4-0.3,0.5-0.5
							l0.5,0.3c-0.2,0.3-0.4,0.5-0.7,0.7C75.6,118.1,75.3,118.2,74.9,118.3"/>
						<path class="st12" d="M78.9,118.3c-0.2,0-0.5-0.1-0.7-0.2c-0.2-0.1-0.4-0.2-0.6-0.4c-0.3-0.3-0.5-0.8-0.5-1.3
							c0-0.2,0-0.5,0.2-0.7c0.1-0.2,0.2-0.4,0.4-0.6c0.2-0.2,0.4-0.3,0.6-0.4c0.2-0.1,0.5-0.1,0.7-0.1c0.2,0,0.5,0,0.7,0.1
							c0.2,0.1,0.4,0.2,0.6,0.4c0.2,0.2,0.3,0.4,0.4,0.6c0.1,0.2,0.1,0.5,0.1,0.7c0,0.2,0,0.5-0.1,0.7c-0.1,0.2-0.2,0.4-0.4,0.6
							c-0.2,0.2-0.4,0.3-0.6,0.4C79.4,118.2,79.1,118.3,78.9,118.3 M78.9,115.2c-0.3,0-0.6,0.1-0.9,0.4c-0.2,0.2-0.4,0.5-0.4,0.9
							c0,0.3,0.1,0.6,0.4,0.9c0.5,0.5,1.3,0.5,1.7,0c0,0,0,0,0,0c0.2-0.2,0.4-0.5,0.4-0.9c0-0.3-0.1-0.6-0.4-0.9
							C79.5,115.3,79.2,115.2,78.9,115.2"/>
						<polygon class="st12" points="84.9,114.6 84.9,118.3 82.3,116 82.3,118.2 81.7,118.2 81.7,114.5 84.2,116.9 84.2,114.6 						
							"/>
						<polygon class="st12" points="86.6,115.2 86.6,116.1 88.4,116.1 88.4,116.7 86.6,116.7 86.6,117.7 88.6,117.7 88.6,118.2 
							86,118.2 86,114.6 88.6,114.6 88.6,115.2 86.6,115.2 						"/>
					</g>
				</g>
			</g>
		</g>
	</g>
	<path class="st13" d="M102.2,98.8H92c-0.6-2.5-3.2-4.1-5.7-3.4c-2.5,0.6-4.1,3.2-3.4,5.7c0.6,2.5,3.2,4.1,5.7,3.4
		c1.7-0.4,3-1.7,3.4-3.4h3l1.3,1.3l1.4-1.3h0.2l0.9,0.9l0.8-0.8l1.3,1.3l1.4-1.4l1.1-1L102.2,98.8z M85.7,101.2
		c-0.7,0-1.3-0.6-1.3-1.2c0-0.7,0.6-1.3,1.2-1.3c0.7,0,1.3,0.6,1.3,1.2c0,0,0,0,0,0C86.9,100.7,86.3,101.2,85.7,101.2z"/>
	<g class="st3">
		<path class="st1" d="M318.4,219.9l-0.5,0.1l0.8,2.6l0.1,0.5h0l0.1-0.5l0.8-2.6l-0.6-0.1V219h2.6v0.9l-0.5,0.1l-1.7,4.8H318
			l-1.7-4.8l-0.5-0.1V219h2.6V219.9z"/>
	</g>
	<g class="st3">
		<path class="st1" d="M322.1,221.8c0-0.9,0.2-1.6,0.7-2.1c0.5-0.6,1.2-0.8,2-0.8c0.9,0,1.5,0.3,2,0.8c0.5,0.6,0.7,1.3,0.7,2.1v0.1
			c0,0.9-0.2,1.6-0.7,2.1c-0.5,0.5-1.2,0.8-2,0.8c-0.9,0-1.5-0.3-2-0.8c-0.5-0.5-0.7-1.3-0.7-2.1V221.8z M323.7,222
			c0,0.5,0.1,1,0.3,1.3c0.2,0.3,0.5,0.5,0.9,0.5c0.4,0,0.7-0.2,0.9-0.5c0.2-0.3,0.3-0.7,0.3-1.3v-0.1c0-0.5-0.1-0.9-0.3-1.3
			c-0.2-0.3-0.5-0.5-0.9-0.5s-0.7,0.2-0.9,0.5c-0.2,0.3-0.3,0.7-0.3,1.3V222z"/>
	</g>
	<g class="st3">
		<path class="st1" d="M328,217.4v-0.9h2.4v7.3l0.8,0.2v0.9h-3.1v-0.9l0.8-0.2v-6.2L328,217.4z"/>
	</g>
	<g class="st3">
		<path class="st1" d="M298.6,47.8c0-0.1-0.1-0.2-0.1-0.3c0-0.1-0.1-0.2-0.1-0.3c-0.2,0.2-0.4,0.4-0.7,0.5c-0.3,0.1-0.6,0.2-0.9,0.2
			c-0.6,0-1-0.2-1.4-0.5s-0.5-0.7-0.5-1.3c0-0.5,0.2-1,0.7-1.3c0.4-0.3,1.1-0.4,1.9-0.4h0.8v-0.6c0-0.3-0.1-0.5-0.2-0.6
			s-0.4-0.2-0.7-0.2c-0.2,0-0.3,0-0.5,0.1s-0.3,0.1-0.3,0.1l-0.1,0.6h-1.2l0-1.3c0.3-0.2,0.6-0.4,1-0.5c0.4-0.1,0.8-0.2,1.2-0.2
			c0.7,0,1.3,0.2,1.8,0.5c0.4,0.4,0.7,0.9,0.7,1.5v2.4c0,0.1,0,0.2,0,0.3c0,0.1,0,0.2,0,0.2l0.5,0.1v0.9H298.6z M297.2,46.8
			c0.2,0,0.5-0.1,0.6-0.2c0.2-0.1,0.3-0.2,0.5-0.4v-0.9h-0.8c-0.3,0-0.6,0.1-0.8,0.2c-0.2,0.2-0.3,0.3-0.3,0.6
			c0,0.2,0.1,0.4,0.2,0.5C296.8,46.7,297,46.8,297.2,46.8z"/>
		<path class="st1" d="M300.8,42.9V42h2.3l0.1,0.7c0.2-0.3,0.4-0.4,0.6-0.6c0.2-0.1,0.5-0.2,0.8-0.2c0.7,0,1.3,0.3,1.7,0.8
			c0.4,0.6,0.6,1.3,0.6,2.2v0.1c0,0.9-0.2,1.5-0.6,2.1c-0.4,0.5-1,0.8-1.7,0.8c-0.3,0-0.6-0.1-0.8-0.2c-0.2-0.1-0.4-0.3-0.6-0.5v1.7
			l0.8,0.2V50h-3.1v-0.9l0.8-0.2v-5.8L300.8,42.9z M305.3,44.9c0-0.5-0.1-1-0.3-1.3s-0.5-0.5-0.8-0.5c-0.2,0-0.4,0-0.6,0.1
			c-0.2,0.1-0.3,0.2-0.4,0.4v2.5c0.1,0.2,0.2,0.3,0.4,0.4c0.2,0.1,0.4,0.1,0.6,0.1c0.4,0,0.7-0.1,0.8-0.4c0.2-0.3,0.3-0.7,0.3-1.2
			V44.9z"/>
	</g>
	<g class="st3">
		<path class="st1" d="M307.5,42.9V42h2.3l0.1,0.7c0.2-0.3,0.4-0.4,0.6-0.6c0.2-0.1,0.5-0.2,0.8-0.2c0.7,0,1.3,0.3,1.7,0.8
			c0.4,0.6,0.6,1.3,0.6,2.2v0.1c0,0.9-0.2,1.5-0.6,2.1c-0.4,0.5-1,0.8-1.7,0.8c-0.3,0-0.6-0.1-0.8-0.2c-0.2-0.1-0.4-0.3-0.6-0.5v1.7
			l0.8,0.2V50h-3.1v-0.9l0.8-0.2v-5.8L307.5,42.9z M312,44.9c0-0.5-0.1-1-0.3-1.3c-0.2-0.3-0.5-0.5-0.8-0.5c-0.2,0-0.4,0-0.6,0.1
			s-0.3,0.2-0.4,0.4v2.5c0.1,0.2,0.2,0.3,0.4,0.4s0.4,0.1,0.6,0.1c0.4,0,0.7-0.1,0.8-0.4c0.2-0.3,0.3-0.7,0.3-1.2V44.9z"/>
	</g>
	<g class="st3">
		<path class="st1" d="M314,40.4v-0.9h2.4v7.3l0.8,0.2v0.9H314v-0.9l0.8-0.2v-6.2L314,40.4z"/>
		<path class="st1" d="M317.6,46.9l0.8-0.2v-3.6l-0.8-0.2V42h2.4v4.7l0.8,0.2v0.9h-3.1V46.9z M319.9,40.6h-1.6v-1.2h1.6V40.6z"/>
		<path class="st1" d="M323.9,46.7c0.3,0,0.5-0.1,0.7-0.2c0.2-0.2,0.3-0.4,0.3-0.7h1.4l0,0c0,0.6-0.2,1.1-0.7,1.5s-1,0.6-1.7,0.6
			c-0.9,0-1.5-0.3-2-0.8c-0.5-0.5-0.7-1.3-0.7-2.1v-0.2c0-0.9,0.2-1.6,0.7-2.1c0.5-0.6,1.2-0.8,2.1-0.8c0.5,0,0.9,0.1,1.3,0.2
			c0.4,0.1,0.7,0.3,0.9,0.6l0,1.6h-1.3l-0.3-0.9c-0.1-0.1-0.2-0.1-0.3-0.2c-0.1,0-0.2-0.1-0.4-0.1c-0.4,0-0.8,0.2-0.9,0.5
			c-0.2,0.3-0.3,0.7-0.3,1.2V45c0,0.5,0.1,0.9,0.3,1.3C323.2,46.6,323.5,46.7,323.9,46.7z"/>
	</g>
	<g class="st3">
		<path class="st1" d="M330.7,47.8c0-0.1-0.1-0.2-0.1-0.3c0-0.1-0.1-0.2-0.1-0.3c-0.2,0.2-0.4,0.4-0.7,0.5s-0.6,0.2-0.9,0.2
			c-0.6,0-1-0.2-1.4-0.5c-0.3-0.3-0.5-0.7-0.5-1.3c0-0.5,0.2-1,0.7-1.3c0.4-0.3,1.1-0.4,1.9-0.4h0.8v-0.6c0-0.3-0.1-0.5-0.2-0.6
			s-0.4-0.2-0.7-0.2c-0.2,0-0.3,0-0.5,0.1s-0.3,0.1-0.3,0.1l-0.1,0.6h-1.2l0-1.3c0.3-0.2,0.6-0.4,1-0.5c0.4-0.1,0.8-0.2,1.2-0.2
			c0.7,0,1.3,0.2,1.8,0.5s0.7,0.9,0.7,1.5v2.4c0,0.1,0,0.2,0,0.3c0,0.1,0,0.2,0,0.2l0.5,0.1v0.9H330.7z M329.3,46.8
			c0.2,0,0.5-0.1,0.6-0.2c0.2-0.1,0.3-0.2,0.5-0.4v-0.9h-0.8c-0.3,0-0.6,0.1-0.8,0.2c-0.2,0.2-0.3,0.3-0.3,0.6
			c0,0.2,0.1,0.4,0.2,0.5S329.1,46.8,329.3,46.8z"/>
	</g>
	<g class="st3">
		<path class="st1" d="M334.9,40.6V42h1v1.1h-1v3c0,0.2,0,0.4,0.1,0.5s0.2,0.1,0.4,0.1c0.1,0,0.2,0,0.3,0c0.1,0,0.2,0,0.3,0l0.1,1.1
			c-0.2,0.1-0.3,0.1-0.5,0.1c-0.2,0-0.4,0-0.6,0c-0.5,0-1-0.1-1.2-0.4s-0.4-0.8-0.4-1.4v-3h-0.9V42h0.9v-1.4H334.9z"/>
		<path class="st1" d="M336.6,46.9l0.8-0.2v-3.6l-0.8-0.2V42h2.4v4.7l0.8,0.2v0.9h-3.1V46.9z M339,40.6h-1.6v-1.2h1.6V40.6z"/>
		<path class="st1" d="M340.2,44.8c0-0.9,0.2-1.6,0.7-2.1c0.5-0.6,1.2-0.8,2-0.8c0.9,0,1.5,0.3,2,0.8s0.7,1.3,0.7,2.1V45
			c0,0.9-0.2,1.6-0.7,2.1s-1.2,0.8-2,0.8c-0.9,0-1.5-0.3-2-0.8c-0.5-0.5-0.7-1.3-0.7-2.1V44.8z M341.8,45c0,0.5,0.1,1,0.3,1.3
			c0.2,0.3,0.5,0.5,0.9,0.5c0.4,0,0.7-0.2,0.9-0.5c0.2-0.3,0.3-0.7,0.3-1.3v-0.1c0-0.5-0.1-0.9-0.3-1.3s-0.5-0.5-0.9-0.5
			s-0.7,0.2-0.9,0.5c-0.2,0.3-0.3,0.7-0.3,1.3V45z"/>
		<path class="st1" d="M346.3,46.9l0.8-0.2v-3.6l-0.8-0.2V42h2.3l0.1,0.8c0.2-0.3,0.4-0.5,0.7-0.7c0.3-0.2,0.6-0.2,1-0.2
			c0.6,0,1,0.2,1.4,0.6c0.3,0.4,0.5,0.9,0.5,1.7v2.5l0.8,0.2v0.9h-3v-0.9l0.7-0.2v-2.5c0-0.4-0.1-0.7-0.2-0.8
			c-0.2-0.2-0.4-0.2-0.7-0.2c-0.2,0-0.4,0-0.6,0.1s-0.3,0.2-0.4,0.4v3.1l0.6,0.2v0.9h-3V46.9z"/>
	</g>
	<g class="st3">
		<path class="st8" d="M282.7,59.6c-0.2-0.3-0.5-0.5-0.6-0.8c-0.2-0.3-0.3-0.6-0.4-0.9c-0.1-0.3-0.2-0.6-0.2-1
			c0-0.3-0.1-0.6-0.1-0.9c0-0.3,0-0.6,0.1-0.9c0-0.3,0.1-0.7,0.2-1c0.1-0.3,0.2-0.6,0.4-1c0.2-0.3,0.4-0.6,0.6-0.9l0.4,0.3
			c-0.2,0.3-0.4,0.6-0.5,0.8c-0.1,0.3-0.3,0.6-0.3,0.9c-0.1,0.3-0.1,0.6-0.2,0.9s-0.1,0.6-0.1,0.9c0,0.3,0,0.5,0.1,0.8
			c0,0.3,0.1,0.6,0.2,0.9c0.1,0.3,0.2,0.6,0.3,0.9c0.1,0.3,0.3,0.5,0.5,0.8L282.7,59.6z"/>
		<path class="st8" d="M286.3,57.8v-2.3c0-0.4-0.1-0.7-0.2-0.9s-0.3-0.3-0.7-0.3c-0.3,0-0.5,0.1-0.7,0.2c-0.2,0.2-0.3,0.3-0.4,0.6
			v2.7h-0.6v-4h0.4l0.1,0.5h0c0.1-0.2,0.3-0.3,0.5-0.4c0.2-0.1,0.5-0.2,0.8-0.2c0.2,0,0.4,0,0.6,0.1c0.2,0,0.3,0.1,0.4,0.3
			c0.1,0.1,0.2,0.3,0.2,0.5c0.1,0.2,0.1,0.5,0.1,0.8v2.4H286.3z"/>
		<path class="st8" d="M287.9,55.8c0-0.7,0.2-1.2,0.5-1.6c0.3-0.4,0.7-0.5,1.3-0.5c0.3,0,0.6,0,0.8,0.1c0.2,0.1,0.4,0.2,0.5,0.4
			c0.1,0.2,0.3,0.4,0.3,0.7c0.1,0.3,0.1,0.5,0.1,0.9c0,0.7-0.2,1.2-0.5,1.6c-0.3,0.4-0.7,0.5-1.3,0.5c-0.3,0-0.6,0-0.8-0.1
			c-0.2-0.1-0.4-0.2-0.5-0.4c-0.1-0.2-0.3-0.4-0.3-0.7S287.9,56.1,287.9,55.8z M288.5,55.8c0,0.2,0,0.4,0.1,0.6
			c0,0.2,0.1,0.3,0.2,0.5c0.1,0.1,0.2,0.3,0.3,0.3c0.1,0.1,0.3,0.1,0.5,0.1c0.7,0,1.1-0.5,1.1-1.5c0-0.2,0-0.4-0.1-0.6
			s-0.1-0.3-0.2-0.5c-0.1-0.1-0.2-0.2-0.3-0.3c-0.1-0.1-0.3-0.1-0.5-0.1C288.9,54.3,288.5,54.8,288.5,55.8z"/>
		<path class="st8" d="M296.3,56.7c0-0.2,0-0.3-0.1-0.4s-0.2-0.2-0.4-0.2c-0.1-0.1-0.3-0.1-0.5-0.2c-0.2-0.1-0.3-0.1-0.5-0.2
			s-0.3-0.2-0.4-0.3c-0.1-0.1-0.1-0.3-0.1-0.6c0-0.4,0.1-0.7,0.3-0.8s0.5-0.3,0.9-0.3c0.3,0,0.5,0,0.7,0.1c0.2,0,0.4,0.1,0.5,0.2
			l-0.2,0.5c-0.1-0.1-0.3-0.1-0.4-0.2c-0.2,0-0.4-0.1-0.6-0.1c-0.2,0-0.4,0-0.5,0.1s-0.2,0.2-0.2,0.4c0,0.1,0,0.2,0.1,0.3
			s0.2,0.1,0.4,0.2c0.1,0.1,0.3,0.1,0.5,0.2c0.2,0.1,0.3,0.1,0.5,0.2c0.1,0.1,0.3,0.2,0.4,0.4c0.1,0.1,0.1,0.3,0.1,0.6
			c0,0.2,0,0.3-0.1,0.5c-0.1,0.1-0.1,0.3-0.3,0.4s-0.3,0.2-0.4,0.3c-0.2,0.1-0.4,0.1-0.6,0.1c-0.3,0-0.6,0-0.8-0.1
			c-0.2-0.1-0.4-0.1-0.5-0.2l0.2-0.5c0.1,0.1,0.3,0.1,0.5,0.2s0.4,0.1,0.6,0.1c0.2,0,0.4,0,0.6-0.1S296.3,56.9,296.3,56.7z"/>
		<path class="st8" d="M297.6,55.8c0-0.7,0.2-1.2,0.5-1.6c0.3-0.4,0.7-0.5,1.3-0.5c0.3,0,0.6,0,0.8,0.1c0.2,0.1,0.4,0.2,0.5,0.4
			c0.1,0.2,0.3,0.4,0.3,0.7c0.1,0.3,0.1,0.5,0.1,0.9c0,0.7-0.2,1.2-0.5,1.6c-0.3,0.4-0.7,0.5-1.3,0.5c-0.3,0-0.6,0-0.8-0.1
			c-0.2-0.1-0.4-0.2-0.5-0.4c-0.1-0.2-0.3-0.4-0.3-0.7S297.6,56.1,297.6,55.8z M298.3,55.8c0,0.2,0,0.4,0.1,0.6
			c0,0.2,0.1,0.3,0.2,0.5s0.2,0.3,0.3,0.3c0.1,0.1,0.3,0.1,0.5,0.1c0.7,0,1.1-0.5,1.1-1.5c0-0.2,0-0.4-0.1-0.6s-0.1-0.3-0.2-0.5
			c-0.1-0.1-0.2-0.2-0.3-0.3c-0.1-0.1-0.3-0.1-0.5-0.1C298.7,54.3,298.3,54.8,298.3,55.8z"/>
		<path class="st8" d="M302.7,53.8v2.3c0,0.2,0,0.4,0,0.5c0,0.2,0.1,0.3,0.1,0.4c0.1,0.1,0.1,0.2,0.2,0.2s0.2,0.1,0.4,0.1
			c0.1,0,0.3,0,0.4-0.1c0.1,0,0.2-0.1,0.3-0.2c0.1-0.1,0.2-0.2,0.2-0.3c0.1-0.1,0.1-0.2,0.2-0.3v-2.7h0.6v2.9c0,0.2,0,0.4,0,0.6
			s0,0.4,0.1,0.5h-0.4l-0.2-0.6h0c-0.1,0.2-0.3,0.4-0.5,0.5s-0.5,0.2-0.8,0.2c-0.2,0-0.4,0-0.6-0.1c-0.2,0-0.3-0.1-0.4-0.3
			s-0.2-0.3-0.2-0.5c-0.1-0.2-0.1-0.5-0.1-0.8v-2.4H302.7z"/>
		<path class="st8" d="M308.4,54.4c-0.2-0.1-0.3-0.1-0.5-0.1c-0.2,0-0.4,0.1-0.5,0.2c-0.1,0.1-0.2,0.3-0.2,0.5v2.8h-0.6v-4h0.4
			l0.1,0.5h0c0.1-0.2,0.2-0.3,0.4-0.4s0.3-0.1,0.5-0.1c0.2,0,0.3,0,0.5,0.1L308.4,54.4z"/>
	</g>
	<g class="st3">
		<path class="st8" d="M311.9,57.5c-0.2,0.1-0.3,0.2-0.6,0.3s-0.4,0.1-0.7,0.1c-0.3,0-0.6,0-0.8-0.1s-0.4-0.2-0.5-0.4
			c-0.1-0.2-0.2-0.4-0.3-0.7c-0.1-0.3-0.1-0.5-0.1-0.9c0-0.7,0.1-1.2,0.4-1.6c0.3-0.4,0.7-0.5,1.3-0.5c0.3,0,0.5,0,0.7,0.1
			s0.3,0.1,0.5,0.2l-0.2,0.6c-0.1-0.1-0.3-0.1-0.4-0.2s-0.3-0.1-0.5-0.1c-0.8,0-1.1,0.5-1.1,1.5c0,0.2,0,0.4,0.1,0.6
			c0,0.2,0.1,0.3,0.2,0.5c0.1,0.1,0.2,0.3,0.4,0.3c0.2,0.1,0.3,0.1,0.6,0.1c0.2,0,0.4,0,0.5-0.1s0.3-0.1,0.4-0.2L311.9,57.5z"/>
	</g>
	<g class="st3">
		<path class="st8" d="M315.5,57.5c-0.2,0.1-0.4,0.2-0.6,0.3c-0.2,0.1-0.5,0.1-0.8,0.1c-0.3,0-0.6,0-0.8-0.1s-0.4-0.2-0.6-0.4
			c-0.1-0.2-0.3-0.4-0.3-0.7s-0.1-0.5-0.1-0.9c0-0.7,0.2-1.2,0.5-1.6c0.3-0.4,0.7-0.5,1.3-0.5c0.2,0,0.4,0,0.5,0.1s0.3,0.1,0.5,0.2
			c0.1,0.1,0.3,0.3,0.4,0.5s0.1,0.5,0.1,0.8c0,0.2,0,0.4,0,0.6h-2.6c0,0.2,0,0.4,0.1,0.6c0,0.2,0.1,0.3,0.2,0.5
			c0.1,0.1,0.2,0.2,0.4,0.3c0.2,0.1,0.4,0.1,0.6,0.1c0.2,0,0.4,0,0.5-0.1c0.2-0.1,0.3-0.1,0.4-0.2L315.5,57.5z M314.2,54.3
			c-0.3,0-0.6,0.1-0.8,0.2s-0.3,0.4-0.3,0.8h2c0-0.4-0.1-0.7-0.2-0.9C314.7,54.3,314.5,54.3,314.2,54.3z"/>
	</g>
	<g class="st3">
		<path class="st8" d="M321.6,57.5c-0.2,0.1-0.3,0.2-0.6,0.3s-0.4,0.1-0.7,0.1c-0.3,0-0.6,0-0.8-0.1s-0.4-0.2-0.5-0.4
			c-0.1-0.2-0.2-0.4-0.3-0.7c-0.1-0.3-0.1-0.5-0.1-0.9c0-0.7,0.1-1.2,0.4-1.6c0.3-0.4,0.7-0.5,1.3-0.5c0.3,0,0.5,0,0.7,0.1
			c0.2,0,0.3,0.1,0.5,0.2l-0.2,0.6c-0.1-0.1-0.3-0.1-0.4-0.2s-0.3-0.1-0.5-0.1c-0.8,0-1.1,0.5-1.1,1.5c0,0.2,0,0.4,0.1,0.6
			c0,0.2,0.1,0.3,0.2,0.5c0.1,0.1,0.2,0.3,0.4,0.3c0.2,0.1,0.3,0.1,0.6,0.1c0.2,0,0.4,0,0.5-0.1c0.2-0.1,0.3-0.1,0.4-0.2L321.6,57.5
			z"/>
	</g>
	<g class="st3">
		<path class="st8" d="M322,55.8c0-0.7,0.2-1.2,0.5-1.6c0.3-0.4,0.7-0.5,1.3-0.5c0.3,0,0.6,0,0.8,0.1c0.2,0.1,0.4,0.2,0.5,0.4
			c0.1,0.2,0.3,0.4,0.3,0.7c0.1,0.3,0.1,0.5,0.1,0.9c0,0.7-0.2,1.2-0.5,1.6c-0.3,0.4-0.7,0.5-1.3,0.5c-0.3,0-0.6,0-0.8-0.1
			s-0.4-0.2-0.5-0.4c-0.1-0.2-0.3-0.4-0.3-0.7S322,56.1,322,55.8z M322.7,55.8c0,0.2,0,0.4,0.1,0.6s0.1,0.3,0.2,0.5
			c0.1,0.1,0.2,0.3,0.3,0.3c0.1,0.1,0.3,0.1,0.5,0.1c0.7,0,1.1-0.5,1.1-1.5c0-0.2,0-0.4-0.1-0.6s-0.1-0.3-0.2-0.5
			c-0.1-0.1-0.2-0.2-0.3-0.3c-0.1-0.1-0.3-0.1-0.5-0.1C323,54.3,322.7,54.8,322.7,55.8z"/>
		<path class="st8" d="M329.6,56.4c0,0.3,0,0.5,0,0.7c0,0.2,0,0.4,0.1,0.7h-0.4l-0.2-0.6h0c-0.1,0.2-0.3,0.3-0.5,0.5
			c-0.2,0.1-0.4,0.2-0.7,0.2c-0.5,0-0.9-0.2-1.2-0.5s-0.4-0.9-0.4-1.6c0-0.7,0.2-1.2,0.5-1.6c0.3-0.4,0.8-0.5,1.3-0.5
			c0.2,0,0.4,0,0.5,0c0.1,0,0.2,0.1,0.4,0.1v-1.7h0.6V56.4z M328,57.3c0.3,0,0.5-0.1,0.6-0.2c0.2-0.1,0.3-0.4,0.3-0.6v-2
			c-0.1-0.1-0.2-0.1-0.3-0.2c-0.1,0-0.3,0-0.5,0c-0.4,0-0.7,0.1-0.9,0.4c-0.2,0.2-0.3,0.6-0.3,1.2c0,0.2,0,0.4,0.1,0.6
			c0,0.2,0.1,0.3,0.2,0.5c0.1,0.1,0.2,0.2,0.3,0.3C327.6,57.3,327.8,57.3,328,57.3z"/>
		<path class="st8" d="M333.8,57.5c-0.2,0.1-0.4,0.2-0.6,0.3c-0.2,0.1-0.5,0.1-0.8,0.1c-0.3,0-0.6,0-0.8-0.1s-0.4-0.2-0.6-0.4
			c-0.1-0.2-0.3-0.4-0.3-0.7s-0.1-0.5-0.1-0.9c0-0.7,0.2-1.2,0.5-1.6c0.3-0.4,0.7-0.5,1.3-0.5c0.2,0,0.4,0,0.5,0.1s0.3,0.1,0.5,0.2
			c0.1,0.1,0.3,0.3,0.4,0.5s0.1,0.5,0.1,0.8c0,0.2,0,0.4,0,0.6h-2.6c0,0.2,0,0.4,0.1,0.6c0,0.2,0.1,0.3,0.2,0.5
			c0.1,0.1,0.2,0.2,0.4,0.3c0.2,0.1,0.4,0.1,0.6,0.1c0.2,0,0.4,0,0.5-0.1c0.2-0.1,0.3-0.1,0.4-0.2L333.8,57.5z M332.4,54.3
			c-0.3,0-0.6,0.1-0.8,0.2s-0.3,0.4-0.3,0.8h2c0-0.4-0.1-0.7-0.2-0.9C332.9,54.3,332.7,54.3,332.4,54.3z"/>
		<path class="st8" d="M339.8,57.5c-0.2,0.1-0.3,0.2-0.6,0.3s-0.4,0.1-0.7,0.1c-0.3,0-0.6,0-0.8-0.1c-0.2-0.1-0.4-0.2-0.5-0.4
			c-0.1-0.2-0.2-0.4-0.3-0.7s-0.1-0.5-0.1-0.9c0-0.7,0.1-1.2,0.4-1.6c0.3-0.4,0.7-0.5,1.3-0.5c0.3,0,0.5,0,0.7,0.1s0.3,0.1,0.5,0.2
			l-0.2,0.6c-0.1-0.1-0.3-0.1-0.4-0.2s-0.3-0.1-0.5-0.1c-0.8,0-1.1,0.5-1.1,1.5c0,0.2,0,0.4,0.1,0.6s0.1,0.3,0.2,0.5
			c0.1,0.1,0.2,0.3,0.4,0.3c0.2,0.1,0.3,0.1,0.6,0.1c0.2,0,0.4,0,0.5-0.1c0.2-0.1,0.3-0.1,0.4-0.2L339.8,57.5z"/>
		<path class="st8" d="M343.2,57.8v-2.3c0-0.2,0-0.4,0-0.5c0-0.2-0.1-0.3-0.1-0.4c-0.1-0.1-0.2-0.2-0.3-0.2
			c-0.1-0.1-0.3-0.1-0.4-0.1c-0.3,0-0.5,0.1-0.7,0.2c-0.2,0.2-0.3,0.4-0.4,0.6v2.7h-0.6v-5.6h0.6v2h0c0.1-0.2,0.3-0.3,0.5-0.4
			c0.2-0.1,0.4-0.1,0.7-0.1c0.2,0,0.4,0,0.6,0.1c0.2,0,0.3,0.1,0.4,0.3s0.2,0.3,0.2,0.5c0.1,0.2,0.1,0.5,0.1,0.8v2.4H343.2z"/>
		<path class="st8" d="M345,54.1c0.2-0.1,0.4-0.2,0.7-0.3s0.6-0.1,0.8-0.1c0.3,0,0.5,0,0.7,0.1c0.2,0.1,0.3,0.2,0.4,0.3
			c0.1,0.1,0.1,0.3,0.2,0.4c0,0.1,0,0.3,0,0.4c0,0.3,0,0.6,0,0.9c0,0.3,0,0.6,0,0.9c0,0.2,0,0.4,0,0.6c0,0.2,0,0.3,0.1,0.5h-0.5
			l-0.2-0.6h0c0,0.1-0.1,0.1-0.2,0.2c-0.1,0.1-0.2,0.1-0.3,0.2c-0.1,0.1-0.2,0.1-0.4,0.1c-0.1,0-0.3,0.1-0.5,0.1s-0.3,0-0.5-0.1
			c-0.1-0.1-0.3-0.1-0.4-0.2c-0.1-0.1-0.2-0.2-0.3-0.4c-0.1-0.1-0.1-0.3-0.1-0.5c0-0.2,0-0.4,0.1-0.6c0.1-0.2,0.2-0.3,0.4-0.4
			c0.2-0.1,0.4-0.2,0.6-0.2c0.2,0,0.5-0.1,0.8-0.1c0.1,0,0.1,0,0.2,0s0.1,0,0.2,0c0-0.2,0-0.3,0-0.4c0-0.3-0.1-0.5-0.2-0.6
			c-0.1-0.1-0.3-0.2-0.6-0.2c-0.1,0-0.2,0-0.3,0c-0.1,0-0.2,0-0.3,0.1c-0.1,0-0.2,0.1-0.3,0.1c-0.1,0-0.2,0.1-0.3,0.1L345,54.1z
			 M346.1,57.3c0.1,0,0.3,0,0.4-0.1s0.2-0.1,0.3-0.2s0.2-0.1,0.2-0.2c0.1-0.1,0.1-0.1,0.1-0.2V56c-0.1,0-0.2,0-0.2,0s-0.2,0-0.2,0
			c-0.2,0-0.3,0-0.5,0s-0.3,0.1-0.4,0.1s-0.2,0.1-0.3,0.2c-0.1,0.1-0.1,0.2-0.1,0.3c0,0.2,0.1,0.3,0.2,0.5
			C345.7,57.2,345.9,57.3,346.1,57.3z"/>
		<path class="st8" d="M351.6,57.8v-2.3c0-0.4-0.1-0.7-0.2-0.9s-0.3-0.3-0.7-0.3c-0.3,0-0.5,0.1-0.7,0.2c-0.2,0.2-0.3,0.3-0.4,0.6
			v2.7H349v-4h0.4l0.1,0.5h0c0.1-0.2,0.3-0.3,0.5-0.4c0.2-0.1,0.5-0.2,0.8-0.2c0.2,0,0.4,0,0.6,0.1c0.2,0,0.3,0.1,0.4,0.3
			c0.1,0.1,0.2,0.3,0.2,0.5c0.1,0.2,0.1,0.5,0.1,0.8v2.4H351.6z"/>
		<path class="st8" d="M356.4,58c0,0.5-0.1,0.9-0.4,1.1s-0.7,0.4-1.2,0.4c-0.3,0-0.6,0-0.8-0.1c-0.2,0-0.4-0.1-0.5-0.2l0.2-0.5
			c0.1,0,0.3,0.1,0.4,0.1c0.1,0,0.3,0.1,0.6,0.1c0.2,0,0.4,0,0.5-0.1c0.1,0,0.3-0.1,0.3-0.2c0.1-0.1,0.1-0.2,0.2-0.4
			c0-0.1,0-0.3,0-0.5v-0.4h0c-0.1,0.2-0.2,0.3-0.4,0.4c-0.2,0.1-0.4,0.1-0.6,0.1c-0.5,0-0.9-0.2-1.2-0.5c-0.3-0.3-0.4-0.9-0.4-1.6
			c0-0.7,0.2-1.2,0.5-1.6s0.8-0.5,1.4-0.5c0.3,0,0.6,0,0.8,0.1s0.4,0.1,0.6,0.2V58z M354.8,57.3c0.3,0,0.5-0.1,0.6-0.2
			c0.2-0.1,0.3-0.3,0.3-0.6v-2c-0.2-0.1-0.5-0.2-0.8-0.2c-0.4,0-0.6,0.1-0.9,0.4c-0.2,0.2-0.3,0.6-0.3,1.2c0,0.2,0,0.4,0.1,0.6
			c0,0.2,0.1,0.3,0.2,0.5c0.1,0.1,0.2,0.2,0.3,0.3C354.5,57.3,354.6,57.3,354.8,57.3z"/>
		<path class="st8" d="M360.6,57.5c-0.2,0.1-0.4,0.2-0.6,0.3c-0.2,0.1-0.5,0.1-0.8,0.1c-0.3,0-0.6,0-0.8-0.1
			c-0.2-0.1-0.4-0.2-0.6-0.4c-0.1-0.2-0.3-0.4-0.3-0.7s-0.1-0.5-0.1-0.9c0-0.7,0.2-1.2,0.5-1.6s0.7-0.5,1.3-0.5c0.2,0,0.4,0,0.5,0.1
			c0.2,0,0.3,0.1,0.5,0.2c0.1,0.1,0.3,0.3,0.4,0.5c0.1,0.2,0.1,0.5,0.1,0.8c0,0.2,0,0.4,0,0.6h-2.6c0,0.2,0,0.4,0.1,0.6
			c0,0.2,0.1,0.3,0.2,0.5c0.1,0.1,0.2,0.2,0.4,0.3c0.2,0.1,0.4,0.1,0.6,0.1c0.2,0,0.4,0,0.5-0.1c0.2-0.1,0.3-0.1,0.4-0.2L360.6,57.5
			z M359.2,54.3c-0.3,0-0.6,0.1-0.8,0.2c-0.2,0.2-0.3,0.4-0.3,0.8h2c0-0.4-0.1-0.7-0.2-0.9C359.7,54.3,359.5,54.3,359.2,54.3z"/>
		<path class="st8" d="M363.5,56.7c0-0.2,0-0.3-0.1-0.4s-0.2-0.2-0.4-0.2c-0.1-0.1-0.3-0.1-0.5-0.2c-0.2-0.1-0.3-0.1-0.5-0.2
			s-0.3-0.2-0.4-0.3c-0.1-0.1-0.1-0.3-0.1-0.6c0-0.4,0.1-0.7,0.3-0.8s0.5-0.3,0.9-0.3c0.3,0,0.5,0,0.7,0.1c0.2,0,0.4,0.1,0.5,0.2
			l-0.2,0.5c-0.1-0.1-0.3-0.1-0.4-0.2c-0.2,0-0.4-0.1-0.6-0.1c-0.2,0-0.4,0-0.5,0.1s-0.2,0.2-0.2,0.4c0,0.1,0,0.2,0.1,0.3
			s0.2,0.1,0.4,0.2c0.1,0.1,0.3,0.1,0.5,0.2c0.2,0.1,0.3,0.1,0.5,0.2c0.1,0.1,0.3,0.2,0.4,0.4c0.1,0.1,0.1,0.3,0.1,0.6
			c0,0.2,0,0.3-0.1,0.5c-0.1,0.1-0.1,0.3-0.3,0.4s-0.3,0.2-0.4,0.3c-0.2,0.1-0.4,0.1-0.6,0.1c-0.3,0-0.6,0-0.8-0.1
			c-0.2-0.1-0.4-0.1-0.5-0.2l0.2-0.5c0.1,0.1,0.3,0.1,0.5,0.2s0.4,0.1,0.6,0.1c0.2,0,0.4,0,0.6-0.1S363.5,56.9,363.5,56.7z"/>
		<path class="st8" d="M364.9,52.1c0.2,0.3,0.5,0.5,0.6,0.8c0.2,0.3,0.3,0.6,0.4,0.9c0.1,0.3,0.2,0.6,0.2,1s0.1,0.6,0.1,0.9
			c0,0.3,0,0.6-0.1,0.9c0,0.3-0.1,0.7-0.2,1s-0.2,0.6-0.4,1c-0.2,0.3-0.4,0.6-0.6,0.9l-0.4-0.3c0.2-0.3,0.4-0.6,0.5-0.8
			c0.1-0.3,0.3-0.6,0.3-0.9c0.1-0.3,0.1-0.6,0.2-0.9c0-0.3,0.1-0.6,0.1-0.8c0-0.3,0-0.5-0.1-0.8c0-0.3-0.1-0.6-0.2-0.9
			c-0.1-0.3-0.2-0.6-0.3-0.9s-0.3-0.5-0.5-0.8L364.9,52.1z"/>
	</g>
	<g class="st3">
		<path class="st1" d="M73.1,72.1V74H72L72,73.2h-1.3v5l0.8,0.1v0.9h-3v-0.9l0.8-0.1v-5h-1.3L67.8,74h-1.1v-1.9H73.1z"/>
		<path class="st1" d="M78.2,76h-2.4v2h2.3l0.1-0.8h1.1v1.9h-5.7v-0.9l0.8-0.1v-5.1l-0.8-0.1v-0.9h0.8h4.9V74h-1.1l-0.1-0.8h-2.3
			v1.8h2.4V76z"/>
		<path class="st1" d="M84.7,76h-2.4v2h2.3l0.1-0.8h1.1v1.9H80v-0.9l0.8-0.1v-5.1L80,72.9v-0.9h0.8h4.9V74h-1.1l-0.1-0.8h-2.3v1.8
			h2.4V76z"/>
	</g>
	<g class="st3">
		<path class="st1" d="M318.6,8.5v1.9h-1.1l-0.1-0.8h-1.3v5l0.8,0.1v0.9h-3v-0.9l0.8-0.1v-5h-1.3l-0.1,0.8h-1.1V8.5H318.6z"/>
		<path class="st1" d="M323.7,12.4h-2.4v2h2.3l0.1-0.8h1.1v1.9H319v-0.9l0.8-0.1V9.5L319,9.3V8.5h0.8h4.9v1.9h-1.1l-0.1-0.8h-2.3
			v1.8h2.4V12.4z"/>
		<path class="st1" d="M330.1,12.4h-2.4v2h2.3l0.1-0.8h1.1v1.9h-5.7v-0.9l0.8-0.1V9.5l-0.8-0.1V8.5h0.8h4.9v1.9H330L330,9.5h-2.3
			v1.8h2.4V12.4z"/>
	</g>
	<g class="st3">
		<path d="M30.4,146.6H29l-0.2-1.3c-0.2-0.2-0.4-0.4-0.7-0.5s-0.7-0.2-1.1-0.2c-0.9,0-1.5,0.3-2,0.9s-0.7,1.4-0.7,2.5v0.3
			c0,1,0.2,1.8,0.7,2.5s1.1,1,2,1c0.4,0,0.8-0.1,1.1-0.2s0.6-0.3,0.8-0.5l0.2-1.3h1.5v2c-0.4,0.5-0.9,0.8-1.5,1.1
			c-0.6,0.3-1.3,0.4-2.1,0.4c-1.3,0-2.4-0.5-3.3-1.4s-1.3-2.1-1.3-3.6v-0.3c0-1.4,0.4-2.6,1.3-3.6s1.9-1.4,3.3-1.4
			c0.8,0,1.5,0.1,2.1,0.4c0.6,0.3,1.1,0.7,1.5,1.1V146.6z"/>
		<path d="M40.5,148.3c0,1.5-0.4,2.7-1.3,3.6s-1.9,1.4-3.3,1.4c-1.3,0-2.4-0.5-3.3-1.4s-1.2-2.2-1.2-3.6v-0.2c0-1.4,0.4-2.7,1.2-3.6
			s1.9-1.4,3.3-1.4c1.3,0,2.4,0.5,3.3,1.4s1.3,2.2,1.3,3.6V148.3z M38.5,148.1c0-1-0.2-1.9-0.6-2.5s-1.1-1-1.9-1s-1.5,0.3-1.9,1
			s-0.6,1.5-0.6,2.5v0.2c0,1,0.2,1.9,0.6,2.5c0.4,0.6,1,1,1.9,1c0.8,0,1.5-0.3,1.9-1c0.4-0.6,0.6-1.5,0.6-2.5V148.1z"/>
		<path d="M51.4,143.2v1.2l-1.1,0.2v8.5h-2l-4-6.7l0,0v5.3l1.1,0.2v1.2h-4.1V152l1.1-0.2v-7.1l-1.1-0.2v-1.2h1.1h2l4,6.7l0,0v-5.3
			l-1.1-0.2v-1.2h3.1H51.4z"/>
		<path d="M52.1,152l1.1-0.2v-7.1l-1.1-0.2v-1.2H60v2.7h-1.5l-0.1-1.2h-3.2v2.7h3.5v1.5h-3.5v2.7l1.1,0.2v1.2h-4.1V152z"/>
		<path d="M60.7,144.5v-1.2h4.1v1.2l-1.1,0.2v7.1l1.1,0.2v1.2h-4.1V152l1.1-0.2v-7.1L60.7,144.5z"/>
		<path d="M73.8,152.1c-0.3,0.3-0.8,0.6-1.4,0.9c-0.6,0.3-1.4,0.4-2.4,0.4c-1.3,0-2.4-0.5-3.3-1.4c-0.8-0.9-1.3-2.1-1.3-3.5v-0.3
			c0-1.5,0.4-2.7,1.2-3.6s1.9-1.4,3.3-1.4c0.8,0,1.5,0.1,2.1,0.4c0.6,0.2,1.2,0.6,1.6,1v2h-1.5l-0.3-1.3c-0.2-0.2-0.4-0.3-0.7-0.4
			c-0.3-0.1-0.6-0.1-1-0.1c-0.9,0-1.5,0.3-2,1s-0.7,1.5-0.7,2.5v0.4c0,1,0.2,1.8,0.7,2.4c0.5,0.6,1.2,0.9,2.1,0.9c0.4,0,0.7,0,1-0.1
			s0.4-0.1,0.6-0.2v-1.7l-1.4-0.1v-1.4h3.4V152.1z"/>
		<path d="M78.8,143.2v1.2l-1.1,0.2v5.2c0,0.7,0.2,1.1,0.5,1.5c0.4,0.3,0.8,0.5,1.5,0.5c0.6,0,1.1-0.2,1.5-0.5s0.5-0.8,0.5-1.5v-5.2
			l-1.1-0.2v-1.2h4.1v1.2l-1.1,0.2v5.2c0,1.1-0.4,2-1.1,2.6s-1.7,0.9-2.9,0.9c-1.2,0-2.1-0.3-2.9-0.9s-1.1-1.5-1.1-2.6v-5.2
			l-1.1-0.2v-1.2h1.1h2H78.8z"/>
		<path d="M89.9,143.2c1.1,0,2,0.3,2.7,0.8c0.6,0.5,1,1.2,1,2.1c0,0.5-0.1,0.9-0.4,1.3s-0.7,0.7-1.2,0.9c0.6,0.2,1,0.5,1.3,0.9
			c0.3,0.4,0.4,0.9,0.4,1.5v0.5c0,0.2,0,0.4,0.1,0.5c0.1,0.1,0.2,0.2,0.4,0.2l0.2,0v1.2h-1c-0.7,0-1.1-0.2-1.4-0.5s-0.4-0.8-0.4-1.4
			v-0.6c0-0.5-0.1-0.9-0.4-1.1c-0.3-0.3-0.6-0.4-1.1-0.4h-1.6v2.6l1.1,0.2v1.2h-4.1V152l1.1-0.2v-7.1l-1.1-0.2v-1.2h1.1H89.9z
			 M88.5,147.6h1.4c0.6,0,1-0.1,1.3-0.4s0.4-0.6,0.4-1s-0.1-0.8-0.4-1.1c-0.3-0.3-0.7-0.4-1.2-0.4h-1.4V147.6z"/>
	</g>
	<g class="st3">
		<path d="M94.9,152l0.7-0.1l3-8.7h2l3,8.7l0.7,0.1v1.2H101V152l0.7-0.1l-0.4-1.4h-3.2l-0.4,1.4l0.7,0.1v1.2h-3.4V152z M98.5,149
			h2.3l-1.1-3.5h0L98.5,149z"/>
	</g>
	<g class="st3">
		<path d="M112.8,143.2v2.7h-1.5l-0.1-1.1h-1.8v7l1.1,0.2v1.2h-4.1V152l1.1-0.2v-7h-1.8l-0.1,1.1H104v-2.7H112.8z"/>
		<path d="M113.5,144.5v-1.2h4.1v1.2l-1.1,0.2v7.1l1.1,0.2v1.2h-4.1V152l1.1-0.2v-7.1L113.5,144.5z"/>
		<path d="M127.5,148.3c0,1.5-0.4,2.7-1.3,3.6s-1.9,1.4-3.3,1.4c-1.3,0-2.4-0.5-3.3-1.4s-1.2-2.2-1.2-3.6v-0.2
			c0-1.4,0.4-2.7,1.2-3.6s1.9-1.4,3.3-1.4c1.3,0,2.4,0.5,3.3,1.4s1.3,2.2,1.3,3.6V148.3z M125.5,148.1c0-1-0.2-1.9-0.6-2.5
			s-1.1-1-1.9-1s-1.5,0.3-1.9,1s-0.6,1.5-0.6,2.5v0.2c0,1,0.2,1.9,0.6,2.5c0.4,0.6,1,1,1.9,1c0.8,0,1.5-0.3,1.9-1
			c0.4-0.6,0.6-1.5,0.6-2.5V148.1z"/>
		<path d="M138.4,143.2v1.2l-1.1,0.2v8.5h-2l-4-6.7l0,0v5.3l1.1,0.2v1.2h-4.1V152l1.1-0.2v-7.1l-1.1-0.2v-1.2h1.1h2l4,6.7l0,0v-5.3
			l-1.1-0.2v-1.2h3.1H138.4z"/>
		<path d="M142.4,150.5c0-0.5,0.1-1,0.4-1.4c0.3-0.4,0.7-0.8,1.4-1.2c-0.3-0.4-0.5-0.8-0.7-1.1s-0.2-0.7-0.2-1.1
			c0-0.8,0.2-1.4,0.7-1.9c0.5-0.5,1.2-0.7,2-0.7c0.7,0,1.3,0.2,1.8,0.7c0.5,0.4,0.7,1,0.7,1.6c0,0.4-0.1,0.9-0.3,1.2s-0.5,0.7-0.9,1
			l-0.6,0.5l1.9,2.2c0.2-0.3,0.3-0.6,0.4-0.9s0.1-0.7,0.1-1h1.5c0,0.6-0.1,1.2-0.2,1.7s-0.4,1-0.7,1.4l1.4,1.7l0,0h-2.2l-0.5-0.6
			c-0.4,0.3-0.8,0.4-1.2,0.6c-0.4,0.1-0.9,0.2-1.3,0.2c-1,0-1.8-0.3-2.4-0.8C142.7,152,142.4,151.4,142.4,150.5z M145.8,151.8
			c0.2,0,0.5,0,0.7-0.1c0.2-0.1,0.5-0.2,0.7-0.3l-2.1-2.4l-0.1,0.1c-0.2,0.2-0.4,0.4-0.5,0.6c-0.1,0.2-0.1,0.4-0.1,0.6
			c0,0.4,0.1,0.7,0.4,1C145.1,151.7,145.4,151.8,145.8,151.8z M145.1,145.7c0,0.2,0,0.4,0.1,0.6c0.1,0.2,0.2,0.4,0.4,0.7l0.6-0.4
			c0.3-0.2,0.4-0.3,0.5-0.5s0.1-0.4,0.1-0.6c0-0.2-0.1-0.4-0.2-0.6s-0.4-0.3-0.7-0.3c-0.3,0-0.5,0.1-0.7,0.3
			C145.2,145.1,145.1,145.4,145.1,145.7z"/>
	</g>
	<g class="st3">
		<path d="M22.2,168.8l0.7-0.1l3-8.7h2l3,8.7l0.7,0.1v1.2h-3.4v-1.2l0.7-0.1l-0.4-1.4h-3.2l-0.4,1.4l0.7,0.1v1.2h-3.4V168.8z
			 M25.8,165.8H28l-1.1-3.5h0L25.8,165.8z"/>
	</g>
	<g class="st3">
		<path d="M40,160v2.7h-1.5l-0.1-1.1h-1.8v7l1.1,0.2v1.2h-4.1v-1.2l1.1-0.2v-7h-1.8l-0.1,1.1h-1.5V160H40z"/>
	</g>
	<g class="st3">
		<path d="M49.6,160v2.7H48l-0.1-1.1h-1.8v7l1.1,0.2v1.2h-4.1v-1.2l1.1-0.2v-7h-1.8l-0.1,1.1h-1.5V160H49.6z"/>
		<path d="M56.6,165.6h-3.4v2.8h3.2l0.1-1.2h1.5v2.7h-7.9v-1.2l1.1-0.2v-7.1l-1.1-0.2V160h1.1h6.8v2.7h-1.5l-0.1-1.2h-3.2v2.5h3.4
			V165.6z"/>
		<path d="M66.7,163.2h-1.5l-0.3-1.4c-0.2-0.1-0.4-0.2-0.8-0.3s-0.7-0.1-1.1-0.1c-0.5,0-1,0.1-1.3,0.3c-0.3,0.2-0.4,0.5-0.4,0.9
			c0,0.3,0.2,0.6,0.5,0.8c0.3,0.2,0.9,0.4,1.6,0.7c1.1,0.3,1.9,0.7,2.5,1.2s0.9,1.2,0.9,2c0,0.9-0.3,1.5-1,2s-1.6,0.7-2.7,0.7
			c-0.8,0-1.5-0.1-2.1-0.4s-1.2-0.6-1.6-1v-2.1H61l0.2,1.4c0.2,0.2,0.5,0.3,0.8,0.4c0.3,0.1,0.7,0.2,1.2,0.2c0.5,0,1-0.1,1.2-0.3
			s0.4-0.5,0.4-0.9c0-0.4-0.1-0.7-0.4-0.9s-0.7-0.5-1.4-0.7c-1.2-0.3-2.1-0.7-2.7-1.2s-0.9-1.1-0.9-1.9c0-0.8,0.3-1.5,1-2
			c0.7-0.5,1.5-0.8,2.6-0.8c0.8,0,1.5,0.1,2.1,0.3s1.2,0.5,1.6,0.9V163.2z"/>
	</g>
	<g class="st3">
		<path d="M76.4,160v2.7h-1.5l-0.1-1.1H73v7l1.1,0.2v1.2h-4.1v-1.2l1.1-0.2v-7h-1.8l-0.1,1.1h-1.5V160H76.4z"/>
	</g>
	<g class="st3">
		<path d="M75.7,168.8l0.7-0.1l3-8.7h2l3,8.7l0.7,0.1v1.2h-3.4v-1.2l0.7-0.1l-0.4-1.4h-3.2l-0.4,1.4l0.7,0.1v1.2h-3.4V168.8z
			 M79.3,165.8h2.3l-1.1-3.5h0L79.3,165.8z"/>
	</g>
	<g class="st3">
		<path d="M93.6,160v2.7h-1.5l-0.1-1.1h-1.8v7l1.1,0.2v1.2h-4.1v-1.2l1.1-0.2v-7h-1.8l-0.1,1.1h-1.5V160H93.6z"/>
		<path d="M94.3,161.3V160h4.1v1.2l-1.1,0.2v7.1l1.1,0.2v1.2h-4.1v-1.2l1.1-0.2v-7.1L94.3,161.3z"/>
		<path d="M108.2,165.1c0,1.5-0.4,2.7-1.3,3.6s-1.9,1.4-3.3,1.4c-1.3,0-2.4-0.5-3.3-1.4s-1.2-2.2-1.2-3.6v-0.2
			c0-1.4,0.4-2.7,1.2-3.6s1.9-1.4,3.3-1.4c1.3,0,2.4,0.5,3.3,1.4s1.3,2.2,1.3,3.6V165.1z M106.3,164.9c0-1-0.2-1.9-0.6-2.5
			s-1.1-1-1.9-1s-1.5,0.3-1.9,1s-0.6,1.5-0.6,2.5v0.2c0,1,0.2,1.9,0.6,2.5c0.4,0.6,1,1,1.9,1c0.8,0,1.5-0.3,1.9-1
			c0.4-0.6,0.6-1.5,0.6-2.5V164.9z"/>
		<path d="M119.2,160v1.2l-1.1,0.2v8.5h-2l-4-6.7l0,0v5.3l1.1,0.2v1.2H109v-1.2l1.1-0.2v-7.1l-1.1-0.2V160h1.1h2l4,6.7l0,0v-5.3
			l-1.1-0.2V160h3.1H119.2z"/>
		<path d="M130.9,163.2h-1.5l-0.3-1.4c-0.2-0.1-0.4-0.2-0.8-0.3s-0.7-0.1-1.1-0.1c-0.5,0-1,0.1-1.3,0.3c-0.3,0.2-0.4,0.5-0.4,0.9
			c0,0.3,0.2,0.6,0.5,0.8c0.3,0.2,0.9,0.4,1.6,0.7c1.1,0.3,1.9,0.7,2.5,1.2s0.9,1.2,0.9,2c0,0.9-0.3,1.5-1,2s-1.6,0.7-2.7,0.7
			c-0.8,0-1.5-0.1-2.1-0.4s-1.2-0.6-1.6-1v-2.1h1.5l0.2,1.4c0.2,0.2,0.5,0.3,0.8,0.4c0.3,0.1,0.7,0.2,1.2,0.2c0.5,0,1-0.1,1.2-0.3
			s0.4-0.5,0.4-0.9c0-0.4-0.1-0.7-0.4-0.9s-0.7-0.5-1.4-0.7c-1.2-0.3-2.1-0.7-2.7-1.2s-0.9-1.1-0.9-1.9c0-0.8,0.3-1.5,1-2
			c0.7-0.5,1.5-0.8,2.6-0.8c0.8,0,1.5,0.1,2.1,0.3s1.2,0.5,1.6,0.9V163.2z"/>
		<path d="M138.2,165.6h-3.4v2.8h3.2l0.1-1.2h1.5v2.7h-7.9v-1.2l1.1-0.2v-7.1l-1.1-0.2V160h1.1h6.8v2.7h-1.5l-0.1-1.2h-3.2v2.5h3.4
			V165.6z"/>
	</g>
	<g class="st3">
		<path d="M145.2,160c1.1,0,2,0.3,2.7,0.8c0.6,0.5,1,1.2,1,2.1c0,0.5-0.1,0.9-0.4,1.3s-0.7,0.7-1.2,0.9c0.6,0.2,1,0.5,1.3,0.9
			c0.3,0.4,0.4,0.9,0.4,1.5v0.5c0,0.2,0,0.4,0.1,0.5c0.1,0.1,0.2,0.2,0.4,0.2l0.2,0v1.2h-1c-0.7,0-1.1-0.2-1.4-0.5s-0.4-0.8-0.4-1.4
			v-0.6c0-0.5-0.1-0.9-0.4-1.1c-0.3-0.3-0.6-0.4-1.1-0.4h-1.6v2.6l1.1,0.2v1.2h-4.1v-1.2l1.1-0.2v-7.1l-1.1-0.2V160h1.1H145.2z
			 M143.8,164.4h1.4c0.6,0,1-0.1,1.3-0.4s0.4-0.6,0.4-1s-0.1-0.8-0.4-1.1c-0.3-0.3-0.7-0.4-1.2-0.4h-1.4V164.4z"/>
	</g>
	<g class="st3">
		<path d="M153.2,161.3l-0.8,0.1l1.8,6l0.1,0.5h0l0.1-0.5l1.8-6l-0.8-0.1V160h3.6v1.2l-0.8,0.1l-2.9,8.6h-2.1l-2.9-8.6l-0.8-0.1V160
			h3.6V161.3z"/>
		<path d="M159.8,161.3V160h4.1v1.2l-1.1,0.2v7.1l1.1,0.2v1.2h-4.1v-1.2l1.1-0.2v-7.1L159.8,161.3z"/>
		<path d="M172.8,163.4h-1.5l-0.2-1.3c-0.2-0.2-0.4-0.4-0.7-0.5s-0.7-0.2-1.1-0.2c-0.9,0-1.5,0.3-2,0.9s-0.7,1.4-0.7,2.5v0.3
			c0,1,0.2,1.8,0.7,2.5s1.1,1,2,1c0.4,0,0.8-0.1,1.1-0.2s0.6-0.3,0.8-0.5l0.2-1.3h1.5v2c-0.4,0.5-0.9,0.8-1.5,1.1
			c-0.6,0.3-1.3,0.4-2.1,0.4c-1.3,0-2.4-0.5-3.3-1.4s-1.3-2.1-1.3-3.6v-0.3c0-1.4,0.4-2.6,1.3-3.6s1.9-1.4,3.3-1.4
			c0.8,0,1.5,0.1,2.1,0.4c0.6,0.3,1.1,0.7,1.5,1.1V163.4z"/>
		<path d="M180.1,165.6h-3.4v2.8h3.2l0.1-1.2h1.5v2.7h-7.9v-1.2l1.1-0.2v-7.1l-1.1-0.2V160h1.1h6.8v2.7H180l-0.1-1.2h-3.2v2.5h3.4
			V165.6z"/>
	</g>
	<g class="st3">
		<path d="M407.6,25.5v2.7H406l-0.1-1.1h-1.8v7l1.1,0.2v1.2H401v-1.2l1.1-0.2v-7h-1.8l-0.1,1.1h-1.5v-2.7H407.6z"/>
		<path d="M412.7,25.5c1.1,0,2,0.3,2.7,0.8c0.6,0.5,1,1.2,1,2.1c0,0.5-0.1,0.9-0.4,1.3c-0.3,0.4-0.7,0.7-1.2,0.9
			c0.6,0.2,1,0.5,1.3,0.9c0.3,0.4,0.4,0.9,0.4,1.5v0.5c0,0.2,0,0.4,0.1,0.5c0.1,0.1,0.2,0.2,0.4,0.2l0.2,0v1.2h-1
			c-0.7,0-1.1-0.2-1.4-0.5c-0.3-0.4-0.4-0.8-0.4-1.4V33c0-0.5-0.1-0.9-0.4-1.1c-0.3-0.3-0.6-0.4-1.1-0.4h-1.6V34l1.1,0.2v1.2h-4.1
			v-1.2l1.1-0.2v-7.1l-1.1-0.2v-1.2h1.1H412.7z M411.3,29.9h1.4c0.6,0,1-0.1,1.3-0.4c0.3-0.2,0.4-0.6,0.4-1s-0.1-0.8-0.4-1.1
			c-0.3-0.3-0.7-0.4-1.2-0.4h-1.4V29.9z"/>
		<path d="M417.7,34.2l0.7-0.1l3-8.7h2l3,8.7l0.7,0.1v1.2h-3.4v-1.2l0.7-0.1l-0.4-1.4h-3.2l-0.4,1.4l0.7,0.1v1.2h-3.4V34.2z
			 M421.3,31.3h2.3l-1.1-3.5h0L421.3,31.3z"/>
		<path d="M438.1,25.5v1.2l-1.1,0.2v8.5h-2l-4-6.7l0,0V34l1.1,0.2v1.2h-4.1v-1.2l1.1-0.2v-7.1l-1.1-0.2v-1.2h1.1h2l4,6.7l0,0v-5.3
			l-1.1-0.2v-1.2h3.1H438.1z"/>
		<path d="M446.3,28.6h-1.5l-0.3-1.4c-0.2-0.1-0.4-0.2-0.8-0.3c-0.3-0.1-0.7-0.1-1.1-0.1c-0.5,0-1,0.1-1.3,0.3
			c-0.3,0.2-0.4,0.5-0.4,0.9c0,0.3,0.2,0.6,0.5,0.8c0.3,0.2,0.9,0.4,1.6,0.7c1.1,0.3,1.9,0.7,2.5,1.2s0.9,1.2,0.9,2
			c0,0.9-0.3,1.5-1,2c-0.7,0.5-1.6,0.7-2.7,0.7c-0.8,0-1.5-0.1-2.1-0.4s-1.2-0.6-1.6-1v-2.1h1.5l0.2,1.4c0.2,0.2,0.5,0.3,0.8,0.4
			c0.3,0.1,0.7,0.2,1.2,0.2c0.5,0,1-0.1,1.2-0.3c0.3-0.2,0.4-0.5,0.4-0.9c0-0.4-0.1-0.7-0.4-0.9c-0.3-0.2-0.7-0.5-1.4-0.7
			c-1.2-0.3-2.1-0.7-2.7-1.2c-0.6-0.5-0.9-1.1-0.9-1.9c0-0.8,0.3-1.5,1-2c0.7-0.5,1.5-0.8,2.6-0.8c0.8,0,1.5,0.1,2.1,0.3
			s1.2,0.5,1.6,0.9V28.6z"/>
	</g>
	<g class="st3">
		<path d="M451.9,25.5c1.1,0,2,0.3,2.7,0.9c0.7,0.6,1,1.4,1,2.3c0,1-0.3,1.7-1,2.3s-1.6,0.9-2.7,0.9h-1.7V34l1.1,0.2v1.2h-4.1v-1.2
			l1.1-0.2v-7.1l-1.1-0.2v-1.2h1.1H451.9z M450.2,30.3h1.7c0.6,0,1-0.2,1.3-0.5c0.3-0.3,0.4-0.7,0.4-1.2c0-0.5-0.1-0.9-0.4-1.2
			c-0.3-0.3-0.7-0.5-1.3-0.5h-1.7V30.3z"/>
	</g>
	<g class="st3">
		<path d="M454.5,34.2l0.7-0.1l3-8.7h2l3,8.7l0.7,0.1v1.2h-3.4v-1.2l0.7-0.1l-0.4-1.4h-3.2l-0.4,1.4l0.7,0.1v1.2h-3.4V34.2z
			 M458.1,31.3h2.3l-1.1-3.5h0L458.1,31.3z"/>
		<path d="M469.2,25.5c1.1,0,2,0.3,2.7,0.8c0.6,0.5,1,1.2,1,2.1c0,0.5-0.1,0.9-0.4,1.3s-0.7,0.7-1.2,0.9c0.6,0.2,1,0.5,1.3,0.9
			c0.3,0.4,0.4,0.9,0.4,1.5v0.5c0,0.2,0,0.4,0.1,0.5c0.1,0.1,0.2,0.2,0.4,0.2l0.2,0v1.2h-1c-0.7,0-1.1-0.2-1.4-0.5s-0.4-0.8-0.4-1.4
			V33c0-0.5-0.1-0.9-0.4-1.1c-0.3-0.3-0.6-0.4-1.1-0.4h-1.6V34l1.1,0.2v1.2h-4.1v-1.2l1.1-0.2v-7.1l-1.1-0.2v-1.2h1.1H469.2z
			 M467.7,29.9h1.4c0.6,0,1-0.1,1.3-0.4s0.4-0.6,0.4-1s-0.1-0.8-0.4-1.1c-0.3-0.3-0.7-0.4-1.2-0.4h-1.4V29.9z"/>
		<path d="M480.7,31h-3.4v2.8h3.2l0.1-1.2h1.5v2.7h-7.9v-1.2l1.1-0.2v-7.1l-1.1-0.2v-1.2h1.1h6.8v2.7h-1.5l-0.1-1.2h-3.2v2.5h3.4V31
			z"/>
		<path d="M493.4,25.5v1.2l-1.1,0.2v8.5h-2l-4-6.7l0,0V34l1.1,0.2v1.2h-4.1v-1.2l1.1-0.2v-7.1l-1.1-0.2v-1.2h1.1h2l4,6.7l0,0v-5.3
			l-1.1-0.2v-1.2h3.1H493.4z"/>
		<path d="M502.8,25.5v2.7h-1.5l-0.1-1.1h-1.8v7l1.1,0.2v1.2h-4.1v-1.2l1.1-0.2v-7h-1.8l-0.1,1.1H494v-2.7H502.8z"/>
	</g>
	<g class="st3">
		<path d="M398.7,51l0.7-0.1l3-8.7h2l3,8.7l0.7,0.1v1.2h-3.4V51l0.7-0.1l-0.4-1.4h-3.2l-0.4,1.4l0.7,0.1v1.2h-3.4V51z M402.3,48.1
			h2.3l-1.1-3.5h0L402.3,48.1z"/>
	</g>
	<g class="st3">
		<path d="M416.6,42.3v2.7H415l-0.1-1.1h-1.8v7l1.1,0.2v1.2H410V51l1.1-0.2v-7h-1.8l-0.1,1.1h-1.5v-2.7H416.6z"/>
	</g>
	<g class="st3">
		<path d="M426.1,42.3v2.7h-1.5l-0.1-1.1h-1.8v7l1.1,0.2v1.2h-4.1V51l1.1-0.2v-7h-1.8l-0.1,1.1h-1.5v-2.7H426.1z"/>
		<path d="M433.2,47.8h-3.4v2.8h3.2l0.1-1.2h1.5v2.7h-7.9V51l1.1-0.2v-7.1l-1.1-0.2v-1.2h1.1h6.8V45h-1.5l-0.1-1.2h-3.2v2.5h3.4
			V47.8z"/>
		<path d="M443.2,45.4h-1.5l-0.3-1.4c-0.2-0.1-0.4-0.2-0.8-0.3c-0.3-0.1-0.7-0.1-1.1-0.1c-0.5,0-1,0.1-1.3,0.3
			c-0.3,0.2-0.4,0.5-0.4,0.9c0,0.3,0.2,0.6,0.5,0.8c0.3,0.2,0.9,0.4,1.6,0.7c1.1,0.3,1.9,0.7,2.5,1.2s0.9,1.2,0.9,2
			c0,0.9-0.3,1.5-1,2c-0.7,0.5-1.6,0.7-2.7,0.7c-0.8,0-1.5-0.1-2.1-0.4s-1.2-0.6-1.6-1v-2.1h1.5l0.2,1.4c0.2,0.2,0.5,0.3,0.8,0.4
			c0.3,0.1,0.7,0.2,1.2,0.2c0.5,0,1-0.1,1.2-0.3c0.3-0.2,0.4-0.5,0.4-0.9c0-0.4-0.1-0.7-0.4-0.9c-0.3-0.2-0.7-0.5-1.4-0.7
			c-1.2-0.3-2.1-0.7-2.7-1.2c-0.6-0.5-0.9-1.1-0.9-1.9c0-0.8,0.3-1.5,1-2c0.7-0.5,1.5-0.8,2.6-0.8c0.8,0,1.5,0.1,2.1,0.3
			s1.2,0.5,1.6,0.9V45.4z"/>
	</g>
	<g class="st3">
		<path d="M452.9,42.3v2.7h-1.5l-0.1-1.1h-1.8v7l1.1,0.2v1.2h-4.1V51l1.1-0.2v-7h-1.8l-0.1,1.1h-1.5v-2.7H452.9z"/>
	</g>
	<g class="st3">
		<path d="M452.2,51l0.7-0.1l3-8.7h2l3,8.7l0.7,0.1v1.2h-3.4V51l0.7-0.1l-0.4-1.4h-3.2l-0.4,1.4l0.7,0.1v1.2h-3.4V51z M455.8,48.1
			h2.3l-1.1-3.5h0L455.8,48.1z"/>
	</g>
	<g class="st3">
		<path d="M470.1,42.3v2.7h-1.5l-0.1-1.1h-1.8v7l1.1,0.2v1.2h-4.1V51l1.1-0.2v-7h-1.8l-0.1,1.1h-1.5v-2.7H470.1z"/>
		<path d="M470.8,43.5v-1.2h4.1v1.2l-1.1,0.2v7.1l1.1,0.2v1.2h-4.1V51l1.1-0.2v-7.1L470.8,43.5z"/>
		<path d="M484.8,47.3c0,1.5-0.4,2.7-1.3,3.6s-1.9,1.4-3.3,1.4c-1.3,0-2.4-0.5-3.3-1.4s-1.2-2.2-1.2-3.6v-0.2c0-1.4,0.4-2.7,1.2-3.6
			c0.8-1,1.9-1.4,3.3-1.4c1.3,0,2.4,0.5,3.3,1.4c0.8,1,1.3,2.2,1.3,3.6V47.3z M482.8,47.2c0-1-0.2-1.9-0.6-2.5c-0.4-0.6-1.1-1-1.9-1
			c-0.8,0-1.5,0.3-1.9,1c-0.4,0.6-0.6,1.5-0.6,2.5v0.2c0,1,0.2,1.9,0.6,2.5c0.4,0.6,1,1,1.9,1c0.8,0,1.5-0.3,1.9-1
			c0.4-0.6,0.6-1.5,0.6-2.5V47.2z"/>
		<path d="M495.7,42.3v1.2l-1.1,0.2v8.5h-2l-4-6.7l0,0v5.3l1.1,0.2v1.2h-4.1V51l1.1-0.2v-7.1l-1.1-0.2v-1.2h1.1h2l4,6.7l0,0v-5.3
			l-1.1-0.2v-1.2h3.1H495.7z"/>
		<path d="M499.7,49.5c0-0.5,0.1-1,0.4-1.4c0.3-0.4,0.7-0.8,1.4-1.2c-0.3-0.4-0.5-0.8-0.7-1.1c-0.2-0.3-0.2-0.7-0.2-1.1
			c0-0.8,0.2-1.4,0.7-1.9c0.5-0.5,1.2-0.7,2-0.7c0.7,0,1.3,0.2,1.8,0.7c0.5,0.4,0.7,1,0.7,1.6c0,0.4-0.1,0.9-0.3,1.2
			c-0.2,0.4-0.5,0.7-0.9,1l-0.6,0.5l1.9,2.2c0.2-0.3,0.3-0.6,0.4-0.9c0.1-0.3,0.1-0.7,0.1-1h1.5c0,0.6-0.1,1.2-0.2,1.7
			c-0.2,0.5-0.4,1-0.7,1.4l1.4,1.7l0,0H506l-0.5-0.6c-0.4,0.3-0.8,0.4-1.2,0.6c-0.4,0.1-0.9,0.2-1.3,0.2c-1,0-1.8-0.3-2.4-0.8
			C500,51.1,499.7,50.4,499.7,49.5z M503.1,50.8c0.2,0,0.5,0,0.7-0.1c0.2-0.1,0.5-0.2,0.7-0.3l-2.1-2.4l-0.1,0.1
			c-0.2,0.2-0.4,0.4-0.5,0.6c-0.1,0.2-0.1,0.4-0.1,0.6c0,0.4,0.1,0.7,0.4,1C502.4,50.7,502.7,50.8,503.1,50.8z M502.4,44.7
			c0,0.2,0,0.4,0.1,0.6c0.1,0.2,0.2,0.4,0.4,0.7l0.6-0.4c0.3-0.2,0.4-0.3,0.5-0.5s0.1-0.4,0.1-0.6c0-0.2-0.1-0.4-0.3-0.6
			c-0.2-0.2-0.4-0.3-0.7-0.3c-0.3,0-0.5,0.1-0.7,0.3C502.5,44.2,502.4,44.4,502.4,44.7z"/>
	</g>
	<g class="st3">
		<path d="M406.3,62.2h-1.5l-0.3-1.4c-0.2-0.1-0.4-0.2-0.8-0.3c-0.3-0.1-0.7-0.1-1.1-0.1c-0.5,0-1,0.1-1.3,0.3
			c-0.3,0.2-0.4,0.5-0.4,0.9c0,0.3,0.2,0.6,0.5,0.8c0.3,0.2,0.9,0.4,1.6,0.7c1.1,0.3,1.9,0.7,2.5,1.2s0.9,1.2,0.9,2
			c0,0.9-0.3,1.5-1,2c-0.7,0.5-1.6,0.7-2.7,0.7c-0.8,0-1.5-0.1-2.1-0.4s-1.2-0.6-1.6-1v-2.1h1.5l0.2,1.4c0.2,0.2,0.5,0.3,0.8,0.4
			c0.3,0.1,0.7,0.2,1.2,0.2c0.5,0,1-0.1,1.2-0.3c0.3-0.2,0.4-0.5,0.4-0.9c0-0.4-0.1-0.7-0.4-0.9c-0.3-0.2-0.7-0.5-1.4-0.7
			c-1.2-0.3-2.1-0.7-2.7-1.2c-0.6-0.5-0.9-1.1-0.9-1.9c0-0.8,0.3-1.5,1-2c0.7-0.5,1.5-0.8,2.6-0.8c0.8,0,1.5,0.1,2.1,0.3
			s1.2,0.5,1.6,0.9V62.2z"/>
		<path d="M413.6,64.6h-3.4v2.8h3.2l0.1-1.2h1.5V69h-7.9v-1.2l1.1-0.2v-7.1l-1.1-0.2v-1.2h1.1h6.8v2.7h-1.5l-0.1-1.2h-3.2v2.5h3.4
			V64.6z"/>
		<path d="M424.3,62.4h-1.5l-0.2-1.3c-0.2-0.2-0.4-0.4-0.7-0.5c-0.3-0.1-0.7-0.2-1.1-0.2c-0.9,0-1.5,0.3-2,0.9
			c-0.5,0.6-0.7,1.4-0.7,2.5v0.3c0,1,0.2,1.8,0.7,2.5s1.1,1,2,1c0.4,0,0.8-0.1,1.1-0.2c0.3-0.1,0.6-0.3,0.8-0.5l0.2-1.3h1.5v2
			c-0.4,0.5-0.9,0.8-1.5,1.1c-0.6,0.3-1.3,0.4-2.1,0.4c-1.3,0-2.4-0.5-3.3-1.4c-0.9-0.9-1.3-2.1-1.3-3.6v-0.3c0-1.4,0.4-2.6,1.3-3.6
			s1.9-1.4,3.3-1.4c0.8,0,1.5,0.1,2.1,0.4c0.6,0.3,1.1,0.7,1.5,1.1V62.4z"/>
		<path d="M429.7,59.1c1.1,0,2,0.3,2.7,0.8c0.6,0.5,1,1.2,1,2.1c0,0.5-0.1,0.9-0.4,1.3c-0.3,0.4-0.7,0.7-1.2,0.9
			c0.6,0.2,1,0.5,1.3,0.9c0.3,0.4,0.4,0.9,0.4,1.5v0.5c0,0.2,0,0.4,0.1,0.5c0.1,0.1,0.2,0.2,0.4,0.2l0.2,0V69h-1
			c-0.7,0-1.1-0.2-1.4-0.5c-0.3-0.4-0.4-0.8-0.4-1.4v-0.6c0-0.5-0.1-0.9-0.4-1.1c-0.3-0.3-0.6-0.4-1.1-0.4h-1.6v2.6l1.1,0.2V69h-4.1
			v-1.2l1.1-0.2v-7.1l-1.1-0.2v-1.2h1.1H429.7z M428.3,63.5h1.4c0.6,0,1-0.1,1.3-0.4c0.3-0.2,0.4-0.6,0.4-1s-0.1-0.8-0.4-1.1
			c-0.3-0.3-0.7-0.4-1.2-0.4h-1.4V63.5z"/>
	</g>
	<g class="st3">
		<path d="M441.3,64.6h-3.4v2.8h3.2l0.1-1.2h1.5V69h-7.9v-1.2l1.1-0.2v-7.1l-1.1-0.2v-1.2h1.1h6.8v2.7h-1.5l-0.1-1.2h-3.2v2.5h3.4
			V64.6z"/>
	</g>
	<g class="st3">
		<path d="M452.7,59.1v2.7h-1.5l-0.1-1.1h-1.8v7l1.1,0.2V69h-4.1v-1.2l1.1-0.2v-7h-1.8l-0.1,1.1h-1.5v-2.7H452.7z"/>
		<path d="M461.5,59.1c1.1,0,2,0.3,2.7,0.9c0.7,0.6,1,1.4,1,2.3c0,1-0.3,1.7-1,2.3s-1.6,0.9-2.7,0.9h-1.7v2.2l1.1,0.2V69h-4.1v-1.2
			l1.1-0.2v-7.1l-1.1-0.2v-1.2h1.1H461.5z M459.8,63.9h1.7c0.6,0,1-0.2,1.3-0.5c0.3-0.3,0.4-0.7,0.4-1.2c0-0.5-0.1-0.9-0.4-1.2
			c-0.3-0.3-0.7-0.5-1.3-0.5h-1.7V63.9z"/>
		<path d="M470.3,59.1c1.1,0,2,0.3,2.7,0.8c0.6,0.5,1,1.2,1,2.1c0,0.5-0.1,0.9-0.4,1.3c-0.3,0.4-0.7,0.7-1.2,0.9
			c0.6,0.2,1,0.5,1.3,0.9c0.3,0.4,0.4,0.9,0.4,1.5v0.5c0,0.2,0,0.4,0.1,0.5c0.1,0.1,0.2,0.2,0.4,0.2l0.2,0V69h-1
			c-0.7,0-1.1-0.2-1.4-0.5c-0.3-0.4-0.4-0.8-0.4-1.4v-0.6c0-0.5-0.1-0.9-0.4-1.1c-0.3-0.3-0.6-0.4-1.1-0.4h-1.6v2.6l1.1,0.2V69h-4.1
			v-1.2l1.1-0.2v-7.1l-1.1-0.2v-1.2h1.1H470.3z M468.9,63.5h1.4c0.6,0,1-0.1,1.3-0.4c0.3-0.2,0.4-0.6,0.4-1s-0.1-0.8-0.4-1.1
			c-0.3-0.3-0.7-0.4-1.2-0.4h-1.4V63.5z"/>
	</g>
	<g class="st3">
		<path d="M484.6,64.1c0,1.5-0.4,2.7-1.3,3.6s-1.9,1.4-3.3,1.4c-1.3,0-2.4-0.5-3.3-1.4c-0.8-1-1.2-2.2-1.2-3.6V64
			c0-1.4,0.4-2.7,1.2-3.6s1.9-1.4,3.3-1.4c1.3,0,2.4,0.5,3.3,1.4c0.8,1,1.3,2.2,1.3,3.6V64.1z M482.6,64c0-1-0.2-1.9-0.6-2.5
			s-1.1-1-1.9-1s-1.5,0.3-1.9,1c-0.4,0.6-0.6,1.5-0.6,2.5v0.2c0,1,0.2,1.9,0.6,2.5c0.4,0.6,1,1,1.9,1c0.8,0,1.5-0.3,1.9-1
			c0.4-0.6,0.6-1.5,0.6-2.5V64z"/>
	</g>
	<g class="st3">
		<path d="M488.7,60.3l-0.8,0.1l1.8,6l0.1,0.5h0l0.1-0.5l1.8-6l-0.8-0.1v-1.2h3.6v1.2l-0.8,0.1l-2.9,8.6h-2.1l-2.9-8.6l-0.8-0.1
			v-1.2h3.6V60.3z"/>
		<path d="M495.2,60.3v-1.2h4.1v1.2l-1.1,0.2v7.1l1.1,0.2V69h-4.1v-1.2l1.1-0.2v-7.1L495.2,60.3z"/>
		<path d="M507.7,62.2h-1.5l-0.3-1.4c-0.2-0.1-0.4-0.2-0.8-0.3s-0.7-0.1-1.1-0.1c-0.5,0-1,0.1-1.3,0.3c-0.3,0.2-0.4,0.5-0.4,0.9
			c0,0.3,0.2,0.6,0.5,0.8c0.3,0.2,0.9,0.4,1.6,0.7c1.1,0.3,1.9,0.7,2.5,1.2c0.6,0.5,0.9,1.2,0.9,2c0,0.9-0.3,1.5-1,2
			s-1.6,0.7-2.7,0.7c-0.8,0-1.5-0.1-2.1-0.4c-0.6-0.3-1.2-0.6-1.6-1v-2.1h1.5l0.2,1.4c0.2,0.2,0.5,0.3,0.8,0.4
			c0.3,0.1,0.7,0.2,1.2,0.2c0.5,0,1-0.1,1.2-0.3c0.3-0.2,0.4-0.5,0.4-0.9c0-0.4-0.1-0.7-0.4-0.9c-0.3-0.2-0.7-0.5-1.4-0.7
			c-1.2-0.3-2.1-0.7-2.7-1.2s-0.9-1.1-0.9-1.9c0-0.8,0.3-1.5,1-2c0.7-0.5,1.5-0.8,2.6-0.8c0.8,0,1.5,0.1,2.1,0.3s1.2,0.5,1.6,0.9
			V62.2z"/>
		<path d="M508.6,60.3v-1.2h4.1v1.2l-1.1,0.2v7.1l1.1,0.2V69h-4.1v-1.2l1.1-0.2v-7.1L508.6,60.3z"/>
		<path d="M522.6,64.1c0,1.5-0.4,2.7-1.3,3.6s-1.9,1.4-3.3,1.4c-1.3,0-2.4-0.5-3.3-1.4c-0.8-1-1.2-2.2-1.2-3.6V64
			c0-1.4,0.4-2.7,1.2-3.6s1.9-1.4,3.3-1.4c1.3,0,2.4,0.5,3.3,1.4c0.8,1,1.3,2.2,1.3,3.6V64.1z M520.6,64c0-1-0.2-1.9-0.6-2.5
			s-1.1-1-1.9-1s-1.5,0.3-1.9,1c-0.4,0.6-0.6,1.5-0.6,2.5v0.2c0,1,0.2,1.9,0.6,2.5c0.4,0.6,1,1,1.9,1c0.8,0,1.5-0.3,1.9-1
			c0.4-0.6,0.6-1.5,0.6-2.5V64z"/>
		<path d="M533.6,59.1v1.2l-1.1,0.2V69h-2l-4-6.7l0,0v5.3l1.1,0.2V69h-4.1v-1.2l1.1-0.2v-7.1l-1.1-0.2v-1.2h1.1h2l4,6.7l0,0v-5.3
			l-1.1-0.2v-1.2h3.1H533.6z"/>
		<path d="M534.2,60.3v-1.2h4.1v1.2l-1.1,0.2v7.1l1.1,0.2V69h-4.1v-1.2l1.1-0.2v-7.1L534.2,60.3z"/>
		<path d="M549.2,59.1v1.2l-1.1,0.2V69h-2l-4-6.7l0,0v5.3l1.1,0.2V69h-4.1v-1.2l1.1-0.2v-7.1l-1.1-0.2v-1.2h1.1h2l4,6.7l0,0v-5.3
			l-1.1-0.2v-1.2h3.1H549.2z"/>
		<path d="M558.1,67.9c-0.3,0.3-0.8,0.6-1.4,0.9c-0.6,0.3-1.4,0.4-2.4,0.4c-1.3,0-2.4-0.5-3.3-1.4c-0.8-0.9-1.3-2.1-1.3-3.5V64
			c0-1.5,0.4-2.7,1.2-3.6c0.8-0.9,1.9-1.4,3.3-1.4c0.8,0,1.5,0.1,2.1,0.4c0.6,0.2,1.2,0.6,1.6,1v2h-1.5l-0.3-1.3
			c-0.2-0.2-0.4-0.3-0.7-0.4c-0.3-0.1-0.6-0.1-1-0.1c-0.9,0-1.5,0.3-2,1s-0.7,1.5-0.7,2.5v0.4c0,1,0.2,1.8,0.7,2.4
			c0.5,0.6,1.2,0.9,2.1,0.9c0.4,0,0.7,0,1-0.1c0.2-0.1,0.4-0.1,0.6-0.2v-1.7l-1.4-0.1v-1.4h3.4V67.9z"/>
	</g>
	<g class="st3">
		<path class="st8" d="M275.9,85.7c0.3-0.2,0.5-0.3,0.9-0.3c0.3-0.1,0.7-0.1,1.1-0.1c0.3,0,0.6,0,0.8,0.1c0.2,0.1,0.4,0.2,0.5,0.4
			c0.1,0.2,0.2,0.3,0.2,0.5s0.1,0.4,0.1,0.5c0,0.4,0,0.8,0,1.2s0,0.7,0,1.1c0,0.2,0,0.5,0,0.7s0.1,0.4,0.1,0.6H279l-0.2-0.7h0
			c-0.1,0.1-0.1,0.2-0.2,0.3c-0.1,0.1-0.2,0.2-0.3,0.2s-0.3,0.1-0.4,0.2c-0.2,0-0.4,0.1-0.6,0.1s-0.4,0-0.6-0.1
			c-0.2-0.1-0.3-0.2-0.5-0.3c-0.1-0.1-0.2-0.3-0.3-0.4c-0.1-0.2-0.1-0.4-0.1-0.6c0-0.3,0.1-0.5,0.2-0.7c0.1-0.2,0.3-0.4,0.5-0.5
			c0.2-0.1,0.5-0.2,0.8-0.3s0.6-0.1,1-0.1c0.1,0,0.2,0,0.3,0c0.1,0,0.2,0,0.3,0c0-0.2,0-0.4,0-0.5c0-0.4-0.1-0.6-0.2-0.8
			c-0.1-0.1-0.4-0.2-0.8-0.2c-0.1,0-0.2,0-0.4,0c-0.1,0-0.3,0-0.4,0.1s-0.3,0.1-0.4,0.1c-0.1,0-0.2,0.1-0.3,0.1L275.9,85.7z
			 M277.4,89.7c0.2,0,0.4,0,0.5-0.1c0.1,0,0.3-0.1,0.4-0.2c0.1-0.1,0.2-0.2,0.3-0.3c0.1-0.1,0.1-0.2,0.2-0.3v-0.8
			c-0.1,0-0.2,0-0.3,0s-0.2,0-0.3,0c-0.2,0-0.4,0-0.6,0s-0.4,0.1-0.5,0.1c-0.1,0.1-0.3,0.1-0.4,0.3s-0.1,0.2-0.1,0.4
			c0,0.2,0.1,0.4,0.3,0.6C276.9,89.6,277.1,89.7,277.4,89.7z"/>
		<path class="st8" d="M283.3,86.1c-0.2-0.1-0.4-0.1-0.6-0.1c-0.3,0-0.5,0.1-0.7,0.2c-0.2,0.2-0.3,0.4-0.3,0.6v3.5H281v-5h0.6
			l0.1,0.6h0c0.1-0.2,0.3-0.4,0.5-0.5c0.2-0.1,0.4-0.2,0.7-0.2c0.2,0,0.4,0,0.6,0.1L283.3,86.1z"/>
		<path class="st8" d="M288.2,90.5c0,0.6-0.2,1.1-0.5,1.4s-0.9,0.5-1.5,0.5c-0.4,0-0.7,0-1-0.1c-0.2,0-0.5-0.1-0.6-0.2l0.2-0.7
			c0.2,0.1,0.3,0.1,0.5,0.2s0.4,0.1,0.7,0.1c0.3,0,0.5,0,0.7-0.1s0.3-0.1,0.4-0.3c0.1-0.1,0.2-0.3,0.2-0.5c0-0.2,0.1-0.4,0.1-0.7
			v-0.5h0c-0.1,0.2-0.3,0.3-0.5,0.4c-0.2,0.1-0.5,0.2-0.8,0.2c-0.7,0-1.2-0.2-1.5-0.6c-0.3-0.4-0.5-1.1-0.5-2c0-0.9,0.2-1.5,0.6-1.9
			c0.4-0.4,1-0.7,1.8-0.7c0.4,0,0.7,0,1,0.1s0.5,0.1,0.7,0.2V90.5z M286.2,89.7c0.3,0,0.6-0.1,0.8-0.3s0.3-0.4,0.4-0.8v-2.6
			c-0.3-0.1-0.6-0.2-1-0.2c-0.5,0-0.8,0.2-1.1,0.5c-0.3,0.3-0.4,0.8-0.4,1.4c0,0.3,0,0.5,0.1,0.8c0,0.2,0.1,0.4,0.2,0.6
			c0.1,0.2,0.2,0.3,0.4,0.4C285.8,89.7,286,89.7,286.2,89.7z"/>
		<path class="st8" d="M290.5,85.3v2.8c0,0.3,0,0.5,0,0.7s0.1,0.4,0.2,0.5c0.1,0.1,0.2,0.2,0.3,0.3c0.1,0.1,0.3,0.1,0.5,0.1
			c0.2,0,0.3,0,0.5-0.1c0.1-0.1,0.3-0.1,0.4-0.2c0.1-0.1,0.2-0.2,0.3-0.3s0.2-0.3,0.2-0.4v-3.3h0.8v3.6c0,0.2,0,0.5,0,0.7
			c0,0.3,0,0.5,0.1,0.7h-0.5l-0.2-0.8h0c-0.2,0.3-0.4,0.5-0.6,0.7c-0.3,0.2-0.6,0.3-1,0.3c-0.3,0-0.5,0-0.7-0.1
			c-0.2-0.1-0.4-0.2-0.5-0.3c-0.1-0.2-0.2-0.4-0.3-0.6c-0.1-0.3-0.1-0.6-0.1-1v-3H290.5z"/>
		<path class="st8" d="M298.1,90.3v-2.8c0-0.3,0-0.5,0-0.7c0-0.2-0.1-0.4-0.1-0.5c-0.1-0.1-0.2-0.2-0.3-0.3
			c-0.1-0.1-0.3-0.1-0.5-0.1c-0.3,0-0.6,0.1-0.8,0.3c-0.2,0.2-0.3,0.4-0.4,0.7v3.4h-0.8v-5h0.6l0.2,0.6h0c0.2-0.2,0.4-0.4,0.6-0.5
			c0.2-0.1,0.5-0.2,0.9-0.2c0.3,0,0.6,0.1,0.8,0.2c0.2,0.1,0.4,0.3,0.5,0.6c0.2-0.3,0.4-0.5,0.6-0.6c0.3-0.1,0.6-0.2,0.9-0.2
			c0.3,0,0.5,0,0.7,0.1c0.2,0.1,0.4,0.2,0.5,0.3c0.1,0.2,0.2,0.4,0.3,0.7s0.1,0.6,0.1,1v3H301v-3c0-0.2,0-0.4,0-0.6
			s-0.1-0.3-0.1-0.4c-0.1-0.1-0.2-0.2-0.3-0.3c-0.1-0.1-0.3-0.1-0.5-0.1c-0.3,0-0.6,0.1-0.8,0.3s-0.3,0.5-0.4,0.8v3.3H298.1z"/>
		<path class="st8" d="M306.9,89.9c-0.2,0.2-0.5,0.3-0.8,0.4c-0.3,0.1-0.6,0.1-1,0.1c-0.4,0-0.7-0.1-1-0.2c-0.3-0.1-0.5-0.3-0.7-0.5
			c-0.2-0.2-0.3-0.5-0.4-0.8c-0.1-0.3-0.1-0.7-0.1-1.1c0-0.9,0.2-1.5,0.6-2c0.4-0.4,0.9-0.7,1.6-0.7c0.2,0,0.5,0,0.7,0.1
			s0.4,0.1,0.6,0.3c0.2,0.1,0.3,0.3,0.4,0.6s0.2,0.6,0.2,1c0,0.2,0,0.5-0.1,0.7h-3.2c0,0.3,0,0.6,0.1,0.8c0.1,0.2,0.2,0.4,0.3,0.6
			c0.1,0.2,0.3,0.3,0.5,0.4c0.2,0.1,0.5,0.1,0.7,0.1c0.2,0,0.5,0,0.7-0.1s0.4-0.2,0.5-0.3L306.9,89.9z M305.2,85.9
			c-0.4,0-0.7,0.1-0.9,0.3c-0.2,0.2-0.4,0.6-0.4,1.1h2.5c0-0.5-0.1-0.9-0.3-1.1C305.8,86,305.5,85.9,305.2,85.9z"/>
		<path class="st8" d="M311.5,90.3v-2.8c0-0.5-0.1-0.9-0.2-1.2c-0.2-0.3-0.4-0.4-0.8-0.4c-0.4,0-0.6,0.1-0.9,0.3
			c-0.2,0.2-0.4,0.4-0.5,0.7v3.4h-0.8v-5h0.6l0.1,0.6h0c0.2-0.2,0.4-0.4,0.6-0.5s0.6-0.2,1-0.2c0.3,0,0.5,0,0.7,0.1
			c0.2,0.1,0.4,0.2,0.5,0.3c0.1,0.2,0.2,0.4,0.3,0.6c0.1,0.3,0.1,0.6,0.1,1v3H311.5z"/>
		<path class="st8" d="M313.1,85.3h0.8v-1l0.8-0.2v1.2h1.4V86h-1.4v2.8c0,0.3,0,0.6,0.1,0.7c0.1,0.1,0.2,0.2,0.4,0.2
			c0.2,0,0.3,0,0.4-0.1c0.1,0,0.3-0.1,0.4-0.1l0.2,0.6c-0.2,0.1-0.4,0.2-0.6,0.2s-0.4,0.1-0.7,0.1c-0.4,0-0.7-0.1-0.9-0.3
			c-0.2-0.2-0.3-0.6-0.3-1.2V86h-0.8V85.3z"/>
		<path class="st8" d="M319.4,88.9c0-0.2-0.1-0.4-0.2-0.5c-0.1-0.1-0.3-0.2-0.4-0.3c-0.2-0.1-0.4-0.1-0.6-0.2s-0.4-0.2-0.6-0.3
			c-0.2-0.1-0.3-0.3-0.4-0.4c-0.1-0.2-0.2-0.4-0.2-0.7c0-0.5,0.1-0.8,0.4-1.1c0.3-0.2,0.7-0.3,1.1-0.3c0.4,0,0.7,0,0.9,0.1
			c0.2,0.1,0.5,0.1,0.6,0.2l-0.2,0.7c-0.2-0.1-0.3-0.1-0.6-0.2s-0.4-0.1-0.7-0.1c-0.3,0-0.5,0-0.6,0.2c-0.1,0.1-0.2,0.3-0.2,0.5
			c0,0.2,0.1,0.3,0.2,0.4c0.1,0.1,0.3,0.2,0.4,0.3c0.2,0.1,0.4,0.2,0.6,0.2c0.2,0.1,0.4,0.2,0.6,0.3s0.3,0.3,0.4,0.5
			c0.1,0.2,0.2,0.4,0.2,0.7c0,0.2,0,0.4-0.1,0.6c-0.1,0.2-0.2,0.3-0.3,0.5c-0.1,0.1-0.3,0.2-0.5,0.3c-0.2,0.1-0.5,0.1-0.8,0.1
			c-0.4,0-0.7,0-1-0.1s-0.5-0.2-0.7-0.3l0.2-0.7c0.2,0.1,0.4,0.2,0.6,0.2c0.2,0.1,0.5,0.1,0.8,0.1c0.3,0,0.5-0.1,0.7-0.2
			S319.4,89.2,319.4,88.9z"/>
	</g>
	<g class="st3">
		<path class="st8" d="M279.7,101.9c-0.2,0.2-0.5,0.3-0.8,0.4c-0.3,0.1-0.6,0.1-1,0.1c-0.4,0-0.7-0.1-1-0.2
			c-0.3-0.1-0.5-0.3-0.7-0.5c-0.2-0.2-0.3-0.5-0.4-0.8c-0.1-0.3-0.1-0.7-0.1-1.1c0-0.9,0.2-1.5,0.6-2c0.4-0.4,0.9-0.7,1.6-0.7
			c0.2,0,0.5,0,0.7,0.1c0.2,0,0.4,0.1,0.6,0.3c0.2,0.1,0.3,0.3,0.4,0.6s0.2,0.6,0.2,1c0,0.2,0,0.5-0.1,0.7h-3.2c0,0.3,0,0.6,0.1,0.8
			s0.2,0.4,0.3,0.6c0.1,0.2,0.3,0.3,0.5,0.4c0.2,0.1,0.5,0.1,0.7,0.1c0.2,0,0.5,0,0.7-0.1s0.4-0.2,0.5-0.3L279.7,101.9z M278,97.9
			c-0.4,0-0.7,0.1-0.9,0.3c-0.2,0.2-0.4,0.6-0.4,1.1h2.5c0-0.5-0.1-0.9-0.3-1.1C278.6,98,278.3,97.9,278,97.9z"/>
		<path class="st8" d="M284.3,102.3v-2.8c0-0.5-0.1-0.9-0.2-1.2c-0.1-0.3-0.4-0.4-0.8-0.4c-0.4,0-0.6,0.1-0.9,0.3
			c-0.2,0.2-0.4,0.4-0.5,0.7v3.4h-0.8v-5h0.6l0.1,0.6h0c0.2-0.2,0.4-0.4,0.6-0.5s0.6-0.2,1-0.2c0.3,0,0.5,0,0.7,0.1
			c0.2,0.1,0.4,0.2,0.5,0.3c0.1,0.2,0.2,0.4,0.3,0.6c0.1,0.3,0.1,0.6,0.1,1v3H284.3z"/>
		<path class="st8" d="M288,100.2l0.3,1h0l0.3-1l1.1-2.9h0.9l-2.1,5.1h-0.3l-2.2-5.1h0.9L288,100.2z"/>
		<path class="st8" d="M291.4,95.8c0-0.2,0.1-0.3,0.2-0.4s0.2-0.2,0.4-0.2c0.2,0,0.3,0.1,0.4,0.2s0.2,0.2,0.2,0.4s-0.1,0.3-0.2,0.4
			c-0.1,0.1-0.3,0.1-0.4,0.1c-0.2,0-0.3,0-0.4-0.1C291.4,96.1,291.4,95.9,291.4,95.8z M291.6,97.3h0.8v5h-0.8V97.3z"/>
		<path class="st8" d="M296.4,98.1c-0.2-0.1-0.4-0.1-0.6-0.1c-0.3,0-0.5,0.1-0.7,0.2c-0.2,0.2-0.3,0.4-0.3,0.6v3.5h-0.8v-5h0.6
			l0.1,0.6h0c0.1-0.2,0.3-0.4,0.5-0.5c0.2-0.1,0.4-0.2,0.7-0.2c0.2,0,0.4,0,0.7,0.1L296.4,98.1z"/>
		<path class="st8" d="M297.2,99.8c0-0.8,0.2-1.5,0.6-1.9c0.4-0.4,0.9-0.7,1.6-0.7c0.4,0,0.7,0.1,1,0.2c0.3,0.1,0.5,0.3,0.7,0.5
			c0.2,0.2,0.3,0.5,0.4,0.8c0.1,0.3,0.1,0.7,0.1,1.1c0,0.8-0.2,1.5-0.6,1.9c-0.4,0.4-0.9,0.7-1.6,0.7c-0.4,0-0.7-0.1-1-0.2
			c-0.3-0.1-0.5-0.3-0.7-0.5c-0.2-0.2-0.3-0.5-0.4-0.8C297.2,100.6,297.2,100.2,297.2,99.8z M298,99.8c0,0.3,0,0.5,0.1,0.7
			s0.1,0.4,0.2,0.6c0.1,0.2,0.2,0.3,0.4,0.4c0.2,0.1,0.4,0.2,0.6,0.2c0.9,0,1.4-0.6,1.4-1.9c0-0.3,0-0.5-0.1-0.7
			c0-0.2-0.1-0.4-0.2-0.6c-0.1-0.2-0.2-0.3-0.4-0.4s-0.4-0.2-0.6-0.2C298.5,97.9,298,98.5,298,99.8z"/>
		<path class="st8" d="M306,102.3v-2.8c0-0.5-0.1-0.9-0.2-1.2c-0.2-0.3-0.4-0.4-0.8-0.4c-0.4,0-0.6,0.1-0.9,0.3
			c-0.2,0.2-0.4,0.4-0.5,0.7v3.4h-0.8v-5h0.6l0.1,0.6h0c0.2-0.2,0.4-0.4,0.6-0.5s0.6-0.2,1-0.2c0.3,0,0.5,0,0.7,0.1
			c0.2,0.1,0.4,0.2,0.5,0.3c0.1,0.2,0.2,0.4,0.3,0.6c0.1,0.3,0.1,0.6,0.1,1v3H306z"/>
		<path class="st8" d="M311.2,102.3v-2.8c0-0.3,0-0.5,0-0.7c0-0.2-0.1-0.4-0.1-0.5c-0.1-0.1-0.2-0.2-0.3-0.3
			c-0.1-0.1-0.3-0.1-0.5-0.1c-0.3,0-0.6,0.1-0.8,0.3c-0.2,0.2-0.3,0.4-0.4,0.7v3.4h-0.8v-5h0.6l0.2,0.6h0c0.2-0.2,0.4-0.4,0.6-0.5
			c0.2-0.1,0.5-0.2,0.9-0.2c0.3,0,0.6,0.1,0.8,0.2c0.2,0.1,0.4,0.3,0.5,0.6c0.2-0.3,0.4-0.5,0.6-0.6c0.3-0.1,0.6-0.2,0.9-0.2
			c0.3,0,0.5,0,0.7,0.1c0.2,0.1,0.4,0.2,0.5,0.3c0.1,0.2,0.2,0.4,0.3,0.7s0.1,0.6,0.1,1v3h-0.8v-3c0-0.2,0-0.4,0-0.6
			s-0.1-0.3-0.1-0.4c-0.1-0.1-0.2-0.2-0.3-0.3c-0.1-0.1-0.3-0.1-0.5-0.1c-0.3,0-0.6,0.1-0.8,0.3s-0.3,0.5-0.4,0.8v3.3H311.2z"/>
		<path class="st8" d="M320.1,101.9c-0.2,0.2-0.5,0.3-0.8,0.4c-0.3,0.1-0.6,0.1-1,0.1c-0.4,0-0.7-0.1-1-0.2
			c-0.3-0.1-0.5-0.3-0.7-0.5c-0.2-0.2-0.3-0.5-0.4-0.8c-0.1-0.3-0.1-0.7-0.1-1.1c0-0.9,0.2-1.5,0.6-2c0.4-0.4,0.9-0.7,1.6-0.7
			c0.2,0,0.5,0,0.7,0.1s0.4,0.1,0.6,0.3c0.2,0.1,0.3,0.3,0.4,0.6s0.2,0.6,0.2,1c0,0.2,0,0.5-0.1,0.7H317c0,0.3,0,0.6,0.1,0.8
			s0.2,0.4,0.3,0.6c0.1,0.2,0.3,0.3,0.5,0.4c0.2,0.1,0.5,0.1,0.7,0.1c0.2,0,0.5,0,0.7-0.1s0.4-0.2,0.5-0.3L320.1,101.9z M318.3,97.9
			c-0.4,0-0.7,0.1-0.9,0.3c-0.2,0.2-0.4,0.6-0.4,1.1h2.5c0-0.5-0.1-0.9-0.3-1.1C319,98,318.7,97.9,318.3,97.9z"/>
		<path class="st8" d="M324.7,102.3v-2.8c0-0.5-0.1-0.9-0.2-1.2c-0.2-0.3-0.4-0.4-0.8-0.4c-0.4,0-0.6,0.1-0.9,0.3
			c-0.2,0.2-0.4,0.4-0.5,0.7v3.4h-0.8v-5h0.6l0.1,0.6h0c0.2-0.2,0.4-0.4,0.6-0.5s0.6-0.2,1-0.2c0.3,0,0.5,0,0.7,0.1
			c0.2,0.1,0.4,0.2,0.5,0.3c0.1,0.2,0.2,0.4,0.3,0.6c0.1,0.3,0.1,0.6,0.1,1v3H324.7z"/>
		<path class="st8" d="M326.3,97.3h0.8v-1l0.8-0.2v1.2h1.4V98h-1.4v2.8c0,0.3,0,0.6,0.1,0.7c0.1,0.1,0.2,0.2,0.4,0.2
			c0.2,0,0.3,0,0.4-0.1c0.1,0,0.3-0.1,0.4-0.1l0.2,0.6c-0.2,0.1-0.4,0.2-0.6,0.2s-0.4,0.1-0.7,0.1c-0.4,0-0.7-0.1-0.9-0.3
			c-0.2-0.2-0.3-0.6-0.3-1.2V98h-0.8V97.3z"/>
	</g>
	<g class="st3">
		<path class="st8" d="M334.3,100.2l0.3,1h0l0.3-1l1.1-2.9h0.9l-2.1,5.1h-0.3l-2.2-5.1h0.9L334.3,100.2z"/>
		<path class="st8" d="M337.6,97.7c0.3-0.2,0.5-0.3,0.9-0.3s0.7-0.1,1.1-0.1c0.3,0,0.6,0,0.8,0.1c0.2,0.1,0.4,0.2,0.5,0.4
			c0.1,0.2,0.2,0.3,0.2,0.5c0,0.2,0.1,0.4,0.1,0.5c0,0.4,0,0.8,0,1.2c0,0.4,0,0.7,0,1.1c0,0.2,0,0.5,0,0.7c0,0.2,0.1,0.4,0.1,0.6
			h-0.6l-0.2-0.7h0c-0.1,0.1-0.1,0.2-0.2,0.3c-0.1,0.1-0.2,0.2-0.3,0.2c-0.1,0.1-0.3,0.1-0.4,0.2c-0.2,0-0.4,0.1-0.6,0.1
			c-0.2,0-0.4,0-0.6-0.1c-0.2-0.1-0.3-0.2-0.5-0.3c-0.1-0.1-0.2-0.3-0.3-0.4c-0.1-0.2-0.1-0.4-0.1-0.6c0-0.3,0.1-0.5,0.2-0.7
			c0.1-0.2,0.3-0.4,0.5-0.5s0.5-0.2,0.8-0.3c0.3,0,0.6-0.1,1-0.1c0.1,0,0.2,0,0.3,0c0.1,0,0.2,0,0.3,0c0-0.2,0-0.4,0-0.5
			c0-0.4-0.1-0.6-0.2-0.8c-0.1-0.1-0.4-0.2-0.8-0.2c-0.1,0-0.2,0-0.4,0c-0.1,0-0.3,0-0.4,0.1s-0.3,0.1-0.4,0.1
			c-0.1,0-0.2,0.1-0.3,0.1L337.6,97.7z M339,101.7c0.2,0,0.4,0,0.5-0.1c0.1,0,0.3-0.1,0.4-0.2c0.1-0.1,0.2-0.2,0.3-0.3
			c0.1-0.1,0.1-0.2,0.2-0.3v-0.8c-0.1,0-0.2,0-0.3,0s-0.2,0-0.3,0c-0.2,0-0.4,0-0.6,0c-0.2,0-0.4,0.1-0.5,0.1
			c-0.1,0.1-0.3,0.1-0.4,0.3s-0.1,0.2-0.1,0.4c0,0.2,0.1,0.4,0.3,0.6C338.6,101.6,338.8,101.7,339,101.7z"/>
		<path class="st8" d="M345,98.1c-0.2-0.1-0.4-0.1-0.6-0.1c-0.3,0-0.5,0.1-0.7,0.2c-0.2,0.2-0.3,0.4-0.3,0.6v3.5h-0.8v-5h0.6
			l0.2,0.6h0c0.1-0.2,0.3-0.4,0.5-0.5c0.2-0.1,0.4-0.2,0.7-0.2c0.2,0,0.4,0,0.6,0.1L345,98.1z"/>
		<path class="st8" d="M346.1,95.8c0-0.2,0.1-0.3,0.2-0.4s0.2-0.2,0.4-0.2c0.2,0,0.3,0.1,0.4,0.2s0.2,0.2,0.2,0.4s-0.1,0.3-0.2,0.4
			c-0.1,0.1-0.3,0.1-0.4,0.1c-0.2,0-0.3,0-0.4-0.1C346.1,96.1,346.1,95.9,346.1,95.8z M346.2,97.3h0.8v5h-0.8V97.3z"/>
		<path class="st8" d="M348.7,97.7c0.3-0.2,0.5-0.3,0.9-0.3s0.7-0.1,1.1-0.1c0.3,0,0.6,0,0.8,0.1c0.2,0.1,0.4,0.2,0.5,0.4
			c0.1,0.2,0.2,0.3,0.2,0.5c0,0.2,0.1,0.4,0.1,0.5c0,0.4,0,0.8,0,1.2c0,0.4,0,0.7,0,1.1c0,0.2,0,0.5,0,0.7c0,0.2,0.1,0.4,0.1,0.6
			h-0.6l-0.2-0.7h0c-0.1,0.1-0.1,0.2-0.2,0.3c-0.1,0.1-0.2,0.2-0.3,0.2c-0.1,0.1-0.3,0.1-0.4,0.2c-0.2,0-0.4,0.1-0.6,0.1
			c-0.2,0-0.4,0-0.6-0.1c-0.2-0.1-0.3-0.2-0.5-0.3c-0.1-0.1-0.2-0.3-0.3-0.4c-0.1-0.2-0.1-0.4-0.1-0.6c0-0.3,0.1-0.5,0.2-0.7
			c0.1-0.2,0.3-0.4,0.5-0.5s0.5-0.2,0.8-0.3c0.3,0,0.6-0.1,1-0.1c0.1,0,0.2,0,0.3,0c0.1,0,0.2,0,0.3,0c0-0.2,0-0.4,0-0.5
			c0-0.4-0.1-0.6-0.2-0.8c-0.1-0.1-0.4-0.2-0.8-0.2c-0.1,0-0.2,0-0.4,0c-0.1,0-0.3,0-0.4,0.1s-0.3,0.1-0.4,0.1
			c-0.1,0-0.2,0.1-0.3,0.1L348.7,97.7z M350.1,101.7c0.2,0,0.4,0,0.5-0.1c0.1,0,0.3-0.1,0.4-0.2c0.1-0.1,0.2-0.2,0.3-0.3
			c0.1-0.1,0.1-0.2,0.2-0.3v-0.8c-0.1,0-0.2,0-0.3,0s-0.2,0-0.3,0c-0.2,0-0.4,0-0.6,0c-0.2,0-0.4,0.1-0.5,0.1
			c-0.1,0.1-0.3,0.1-0.4,0.3s-0.1,0.2-0.1,0.4c0,0.2,0.1,0.4,0.3,0.6C349.6,101.6,349.8,101.7,350.1,101.7z"/>
		<path class="st8" d="M353.7,95.3h0.8v2.5h0c0.2-0.2,0.3-0.3,0.6-0.5c0.2-0.1,0.5-0.2,0.8-0.2c0.6,0,1.1,0.2,1.5,0.6
			s0.5,1.1,0.5,1.9c0,0.9-0.2,1.5-0.6,2s-1,0.7-1.8,0.7c-0.4,0-0.7,0-1-0.1c-0.3-0.1-0.5-0.2-0.7-0.3V95.3z M355.8,97.9
			c-0.3,0-0.6,0.1-0.8,0.3c-0.2,0.2-0.4,0.4-0.5,0.8v2.5c0.1,0.1,0.3,0.1,0.5,0.2c0.2,0,0.4,0.1,0.6,0.1c0.5,0,0.8-0.2,1.1-0.5
			c0.3-0.3,0.4-0.8,0.4-1.5c0-0.3,0-0.5-0.1-0.7s-0.1-0.4-0.2-0.6c-0.1-0.2-0.2-0.3-0.4-0.4C356.2,97.9,356,97.9,355.8,97.9z"/>
		<path class="st8" d="M360,101.1c0,0.2,0,0.4,0.1,0.5c0.1,0.1,0.2,0.2,0.3,0.2c0.1,0,0.2,0,0.3,0c0.1,0,0.2,0,0.3-0.1l0.1,0.6
			c-0.1,0.1-0.3,0.1-0.4,0.1c-0.2,0-0.4,0-0.5,0c-0.3,0-0.5-0.1-0.7-0.3s-0.3-0.5-0.3-0.9v-6h0.8V101.1z"/>
		<path class="st8" d="M365.7,101.9c-0.2,0.2-0.5,0.3-0.8,0.4c-0.3,0.1-0.6,0.1-1,0.1c-0.4,0-0.7-0.1-1-0.2
			c-0.3-0.1-0.5-0.3-0.7-0.5c-0.2-0.2-0.3-0.5-0.4-0.8c-0.1-0.3-0.1-0.7-0.1-1.1c0-0.9,0.2-1.5,0.6-2c0.4-0.4,0.9-0.7,1.6-0.7
			c0.2,0,0.5,0,0.7,0.1c0.2,0,0.4,0.1,0.6,0.3c0.2,0.1,0.3,0.3,0.4,0.6s0.2,0.6,0.2,1c0,0.2,0,0.5-0.1,0.7h-3.2c0,0.3,0,0.6,0.1,0.8
			c0.1,0.2,0.2,0.4,0.3,0.6c0.1,0.2,0.3,0.3,0.5,0.4c0.2,0.1,0.5,0.1,0.7,0.1c0.2,0,0.5,0,0.7-0.1s0.4-0.2,0.5-0.3L365.7,101.9z
			 M364,97.9c-0.4,0-0.7,0.1-0.9,0.3c-0.2,0.2-0.4,0.6-0.4,1.1h2.5c0-0.5-0.1-0.9-0.3-1.1C364.6,98,364.3,97.9,364,97.9z"/>
	</g>
	<g class="st3">
		<path class="st8" d="M279.4,114c-0.2,0.1-0.4,0.3-0.7,0.3c-0.3,0.1-0.6,0.1-0.9,0.1c-0.4,0-0.7-0.1-1-0.2
			c-0.3-0.1-0.5-0.3-0.7-0.5c-0.2-0.2-0.3-0.5-0.4-0.8s-0.1-0.7-0.1-1.1c0-0.8,0.2-1.5,0.6-1.9c0.4-0.4,0.9-0.7,1.6-0.7
			c0.3,0,0.6,0,0.8,0.1c0.2,0,0.4,0.1,0.6,0.2l-0.2,0.7c-0.2-0.1-0.3-0.2-0.5-0.2s-0.4-0.1-0.6-0.1c-0.9,0-1.4,0.6-1.4,1.9
			c0,0.3,0,0.5,0.1,0.7c0,0.2,0.1,0.4,0.3,0.6s0.3,0.3,0.5,0.4c0.2,0.1,0.4,0.2,0.7,0.2c0.2,0,0.5,0,0.6-0.1
			c0.2-0.1,0.3-0.2,0.5-0.3L279.4,114z"/>
	</g>
	<g class="st3">
		<path class="st8" d="M280,111.8c0-0.8,0.2-1.5,0.6-1.9c0.4-0.4,0.9-0.7,1.6-0.7c0.4,0,0.7,0.1,1,0.2c0.3,0.1,0.5,0.3,0.7,0.5
			c0.2,0.2,0.3,0.5,0.4,0.8c0.1,0.3,0.1,0.7,0.1,1.1c0,0.8-0.2,1.5-0.6,1.9c-0.4,0.4-0.9,0.7-1.6,0.7c-0.4,0-0.7-0.1-1-0.2
			c-0.3-0.1-0.5-0.3-0.7-0.5c-0.2-0.2-0.3-0.5-0.4-0.8C280.1,112.6,280,112.2,280,111.8z M280.8,111.8c0,0.3,0,0.5,0.1,0.7
			s0.1,0.4,0.2,0.6c0.1,0.2,0.2,0.3,0.4,0.4c0.2,0.1,0.4,0.2,0.6,0.2c0.9,0,1.4-0.6,1.4-1.9c0-0.3,0-0.5-0.1-0.7s-0.1-0.4-0.2-0.6
			c-0.1-0.2-0.2-0.3-0.4-0.4c-0.2-0.1-0.4-0.2-0.6-0.2C281.3,109.9,280.8,110.5,280.8,111.8z"/>
		<path class="st8" d="M288.9,114.3v-2.8c0-0.5-0.1-0.9-0.2-1.2c-0.1-0.3-0.4-0.4-0.8-0.4c-0.4,0-0.6,0.1-0.9,0.3
			c-0.2,0.2-0.4,0.4-0.5,0.7v3.4h-0.8v-5h0.6l0.2,0.6h0c0.2-0.2,0.4-0.4,0.6-0.5c0.3-0.1,0.6-0.2,1-0.2c0.3,0,0.5,0,0.7,0.1
			c0.2,0.1,0.4,0.2,0.5,0.3c0.1,0.2,0.2,0.4,0.3,0.6c0.1,0.3,0.1,0.6,0.1,1v3H288.9z"/>
		<path class="st8" d="M295,109.3v5h-0.8V110h-2v4.3h-0.8V110h-0.8v-0.7h0.8V109c0-0.6,0.2-1.1,0.5-1.4c0.3-0.3,0.8-0.4,1.4-0.4
			c0.4,0,0.7,0,1,0.1c0.3,0.1,0.5,0.2,0.7,0.3l-0.3,0.6c-0.2-0.1-0.4-0.2-0.6-0.3c-0.2-0.1-0.5-0.1-0.8-0.1c-0.2,0-0.4,0-0.6,0.1
			s-0.3,0.1-0.3,0.3c-0.1,0.1-0.1,0.3-0.1,0.4c0,0.2,0,0.4,0,0.6H295z"/>
		<path class="st8" d="M300.4,114.5c0,0.6-0.2,1.1-0.5,1.4c-0.3,0.3-0.9,0.5-1.5,0.5c-0.4,0-0.7,0-1-0.1c-0.2,0-0.5-0.1-0.6-0.2
			l0.2-0.7c0.2,0.1,0.3,0.1,0.5,0.2s0.4,0.1,0.7,0.1c0.3,0,0.5,0,0.7-0.1s0.3-0.1,0.4-0.3c0.1-0.1,0.2-0.3,0.2-0.5
			c0-0.2,0.1-0.4,0.1-0.7v-0.5h0c-0.1,0.2-0.3,0.3-0.5,0.4c-0.2,0.1-0.5,0.2-0.8,0.2c-0.7,0-1.2-0.2-1.5-0.6c-0.3-0.4-0.5-1.1-0.5-2
			c0-0.9,0.2-1.5,0.6-1.9c0.4-0.4,1-0.7,1.8-0.7c0.4,0,0.7,0,1,0.1c0.3,0.1,0.5,0.1,0.7,0.2V114.5z M298.3,113.7
			c0.3,0,0.6-0.1,0.8-0.3s0.3-0.4,0.4-0.8v-2.6c-0.3-0.1-0.6-0.2-1-0.2c-0.5,0-0.8,0.2-1.1,0.5c-0.3,0.3-0.4,0.8-0.4,1.4
			c0,0.3,0,0.5,0.1,0.8c0,0.2,0.1,0.4,0.2,0.6c0.1,0.2,0.2,0.3,0.4,0.4C297.9,113.7,298.1,113.7,298.3,113.7z"/>
		<path class="st8" d="M302.6,109.3v2.8c0,0.3,0,0.5,0,0.7c0,0.2,0.1,0.4,0.2,0.5c0.1,0.1,0.2,0.2,0.3,0.3c0.1,0.1,0.3,0.1,0.5,0.1
			c0.2,0,0.3,0,0.5-0.1c0.1-0.1,0.3-0.1,0.4-0.2c0.1-0.1,0.2-0.2,0.3-0.3c0.1-0.1,0.2-0.3,0.2-0.4v-3.3h0.8v3.6c0,0.2,0,0.5,0,0.7
			s0,0.5,0.1,0.7h-0.5l-0.2-0.8h0c-0.2,0.3-0.4,0.5-0.6,0.7c-0.3,0.2-0.6,0.3-1,0.3c-0.3,0-0.5,0-0.7-0.1c-0.2-0.1-0.4-0.2-0.5-0.3
			c-0.1-0.2-0.2-0.4-0.3-0.6c-0.1-0.3-0.1-0.6-0.1-1v-3H302.6z"/>
		<path class="st8" d="M309.6,110.1c-0.2-0.1-0.4-0.1-0.6-0.1c-0.3,0-0.5,0.1-0.7,0.2c-0.2,0.2-0.3,0.4-0.3,0.6v3.5h-0.8v-5h0.6
			l0.2,0.6h0c0.1-0.2,0.3-0.4,0.5-0.5c0.2-0.1,0.4-0.2,0.7-0.2c0.2,0,0.4,0,0.6,0.1L309.6,110.1z"/>
		<path class="st8" d="M310.6,109.7c0.3-0.2,0.5-0.3,0.9-0.3c0.3-0.1,0.7-0.1,1.1-0.1c0.3,0,0.6,0,0.8,0.1c0.2,0.1,0.4,0.2,0.5,0.4
			c0.1,0.2,0.2,0.3,0.2,0.5c0,0.2,0.1,0.4,0.1,0.5c0,0.4,0,0.8,0,1.2c0,0.4,0,0.7,0,1.1c0,0.2,0,0.5,0,0.7c0,0.2,0.1,0.4,0.1,0.6
			h-0.6l-0.2-0.7h0c-0.1,0.1-0.1,0.2-0.2,0.3s-0.2,0.2-0.3,0.2c-0.1,0.1-0.3,0.1-0.4,0.2c-0.2,0-0.4,0.1-0.6,0.1
			c-0.2,0-0.4,0-0.6-0.1c-0.2-0.1-0.3-0.2-0.5-0.3c-0.1-0.1-0.2-0.3-0.3-0.4c-0.1-0.2-0.1-0.4-0.1-0.6c0-0.3,0.1-0.5,0.2-0.7
			c0.1-0.2,0.3-0.4,0.5-0.5c0.2-0.1,0.5-0.2,0.8-0.3c0.3,0,0.6-0.1,1-0.1c0.1,0,0.2,0,0.3,0s0.2,0,0.3,0c0-0.2,0-0.4,0-0.5
			c0-0.4-0.1-0.6-0.2-0.8s-0.4-0.2-0.8-0.2c-0.1,0-0.2,0-0.4,0c-0.1,0-0.3,0-0.4,0.1s-0.3,0.1-0.4,0.1c-0.1,0-0.2,0.1-0.3,0.1
			L310.6,109.7z M312,113.7c0.2,0,0.4,0,0.5-0.1c0.1,0,0.3-0.1,0.4-0.2c0.1-0.1,0.2-0.2,0.3-0.3c0.1-0.1,0.1-0.2,0.2-0.3v-0.8
			c-0.1,0-0.2,0-0.3,0s-0.2,0-0.3,0c-0.2,0-0.4,0-0.6,0c-0.2,0-0.4,0.1-0.5,0.1s-0.3,0.1-0.4,0.3s-0.1,0.2-0.1,0.4
			c0,0.2,0.1,0.4,0.3,0.6C311.6,113.6,311.8,113.7,312,113.7z"/>
		<path class="st8" d="M315,109.3h0.8v-1l0.8-0.2v1.2h1.4v0.7h-1.4v2.8c0,0.3,0,0.6,0.1,0.7c0.1,0.1,0.2,0.2,0.4,0.2
			c0.2,0,0.3,0,0.4-0.1c0.1,0,0.3-0.1,0.4-0.1l0.2,0.6c-0.2,0.1-0.4,0.2-0.6,0.2c-0.2,0.1-0.4,0.1-0.7,0.1c-0.4,0-0.7-0.1-0.9-0.3
			c-0.2-0.2-0.3-0.6-0.3-1.2V110H315V109.3z"/>
		<path class="st8" d="M319,107.8c0-0.2,0.1-0.3,0.2-0.4s0.2-0.2,0.4-0.2c0.2,0,0.3,0.1,0.4,0.2s0.2,0.2,0.2,0.4s-0.1,0.3-0.2,0.4
			c-0.1,0.1-0.3,0.1-0.4,0.1c-0.2,0-0.3,0-0.4-0.1C319.1,108.1,319,107.9,319,107.8z M319.2,109.3h0.8v5h-0.8V109.3z"/>
		<path class="st8" d="M321.4,111.8c0-0.8,0.2-1.5,0.6-1.9c0.4-0.4,0.9-0.7,1.6-0.7c0.4,0,0.7,0.1,1,0.2c0.3,0.1,0.5,0.3,0.7,0.5
			c0.2,0.2,0.3,0.5,0.4,0.8s0.1,0.7,0.1,1.1c0,0.8-0.2,1.5-0.6,1.9c-0.4,0.4-0.9,0.7-1.6,0.7c-0.4,0-0.7-0.1-1-0.2
			c-0.3-0.1-0.5-0.3-0.7-0.5c-0.2-0.2-0.3-0.5-0.4-0.8S321.4,112.2,321.4,111.8z M322.3,111.8c0,0.3,0,0.5,0.1,0.7s0.1,0.4,0.2,0.6
			c0.1,0.2,0.2,0.3,0.4,0.4c0.2,0.1,0.4,0.2,0.6,0.2c0.9,0,1.4-0.6,1.4-1.9c0-0.3,0-0.5-0.1-0.7c0-0.2-0.1-0.4-0.2-0.6
			c-0.1-0.2-0.2-0.3-0.4-0.4c-0.2-0.1-0.4-0.2-0.6-0.2C322.7,109.9,322.3,110.5,322.3,111.8z"/>
		<path class="st8" d="M330.3,114.3v-2.8c0-0.5-0.1-0.9-0.2-1.2c-0.2-0.3-0.4-0.4-0.8-0.4c-0.4,0-0.6,0.1-0.9,0.3
			c-0.2,0.2-0.4,0.4-0.5,0.7v3.4h-0.8v-5h0.6l0.1,0.6h0c0.2-0.2,0.4-0.4,0.6-0.5c0.3-0.1,0.6-0.2,1-0.2c0.3,0,0.5,0,0.7,0.1
			c0.2,0.1,0.4,0.2,0.5,0.3c0.1,0.2,0.2,0.4,0.3,0.6c0.1,0.3,0.1,0.6,0.1,1v3H330.3z"/>
		<path class="st8" d="M339.1,109.3v5h-0.8V110h-2v4.3h-0.8V110h-0.8v-0.7h0.8V109c0-0.6,0.2-1.1,0.5-1.4c0.3-0.3,0.8-0.4,1.4-0.4
			c0.4,0,0.7,0,1,0.1c0.3,0.1,0.5,0.2,0.7,0.3l-0.3,0.6c-0.2-0.1-0.4-0.2-0.6-0.3c-0.2-0.1-0.5-0.1-0.8-0.1c-0.2,0-0.4,0-0.6,0.1
			s-0.3,0.1-0.3,0.3c-0.1,0.1-0.1,0.3-0.1,0.4c0,0.2,0,0.4,0,0.6H339.1z"/>
		<path class="st8" d="M341.5,113.1c0,0.2,0,0.4,0.1,0.5c0.1,0.1,0.2,0.2,0.3,0.2c0.1,0,0.2,0,0.3,0c0.1,0,0.2,0,0.3-0.1l0.1,0.6
			c-0.1,0.1-0.3,0.1-0.4,0.1c-0.2,0-0.4,0-0.5,0c-0.3,0-0.5-0.1-0.7-0.3s-0.3-0.5-0.3-0.9v-6h0.8V113.1z"/>
		<path class="st8" d="M347.2,113.9c-0.2,0.2-0.5,0.3-0.8,0.4c-0.3,0.1-0.6,0.1-1,0.1c-0.4,0-0.7-0.1-1-0.2
			c-0.3-0.1-0.5-0.3-0.7-0.5c-0.2-0.2-0.3-0.5-0.4-0.8s-0.1-0.7-0.1-1.1c0-0.9,0.2-1.5,0.6-2c0.4-0.4,0.9-0.7,1.6-0.7
			c0.2,0,0.5,0,0.7,0.1s0.4,0.1,0.6,0.3c0.2,0.1,0.3,0.3,0.4,0.6s0.2,0.6,0.2,1c0,0.2,0,0.5-0.1,0.7h-3.2c0,0.3,0,0.6,0.1,0.8
			c0.1,0.2,0.2,0.4,0.3,0.6c0.1,0.2,0.3,0.3,0.5,0.4c0.2,0.1,0.5,0.1,0.7,0.1c0.2,0,0.5,0,0.7-0.1s0.4-0.2,0.5-0.3L347.2,113.9z
			 M345.5,109.9c-0.4,0-0.7,0.1-0.9,0.3c-0.2,0.2-0.4,0.6-0.4,1.1h2.5c0-0.5-0.1-0.9-0.3-1.1C346.1,110,345.8,109.9,345.5,109.9z"/>
		<path class="st8" d="M350.8,112.9c0-0.2-0.1-0.4-0.2-0.5s-0.3-0.2-0.4-0.3c-0.2-0.1-0.4-0.1-0.6-0.2s-0.4-0.2-0.6-0.3
			c-0.2-0.1-0.3-0.3-0.4-0.4c-0.1-0.2-0.2-0.4-0.2-0.7c0-0.5,0.1-0.8,0.4-1.1c0.3-0.2,0.7-0.3,1.1-0.3c0.4,0,0.7,0,0.9,0.1
			c0.2,0.1,0.5,0.1,0.6,0.2l-0.2,0.7c-0.2-0.1-0.3-0.1-0.6-0.2s-0.4-0.1-0.7-0.1c-0.3,0-0.5,0-0.6,0.2c-0.1,0.1-0.2,0.3-0.2,0.5
			c0,0.2,0.1,0.3,0.2,0.4s0.3,0.2,0.4,0.3c0.2,0.1,0.4,0.2,0.6,0.2c0.2,0.1,0.4,0.2,0.6,0.3s0.3,0.3,0.4,0.5
			c0.1,0.2,0.2,0.4,0.2,0.7c0,0.2,0,0.4-0.1,0.6c-0.1,0.2-0.2,0.3-0.3,0.5c-0.1,0.1-0.3,0.2-0.5,0.3c-0.2,0.1-0.5,0.1-0.8,0.1
			c-0.4,0-0.7,0-1-0.1s-0.5-0.2-0.7-0.3l0.2-0.7c0.2,0.1,0.4,0.2,0.6,0.2c0.2,0.1,0.5,0.1,0.8,0.1c0.3,0,0.5-0.1,0.7-0.2
			S350.8,113.2,350.8,112.9z"/>
	</g>
	<path class="st14" d="M353.5,191.8c-6.3,2.7-13.5-0.2-16.2-6.4c-2.7-6.3,0.2-13.5,6.4-16.2c6.3-2.7,13.5,0.2,16.2,6.4c0,0,0,0,0,0
		C362.6,181.9,359.8,189.1,353.5,191.8z"/>
	<circle class="st14" cx="348.6" cy="180.5" r="12.3"/>
	<path class="st15" d="M358.1,188.3c-0.1-0.2-0.3-0.4-0.5-0.6c-0.8-0.5-1.8-0.3-2.4,0.4c-0.5,0.8-0.3,1.8,0.4,2.3"/>
	<path class="st15" d="M359.8,185.7c0-0.1-0.1-0.2-0.2-0.3c-0.1,0-0.1-0.1-0.2-0.1c-0.5-0.4-0.5-0.4-1,0.1c-0.3,0.3-0.5,0.4-0.8,0.2
		c-0.1,0-0.1,0-0.2,0c-0.5,0-0.7-0.3-0.8-0.7c0-0.2-0.2-0.4-0.3-0.4c-0.4,0-0.7,0.1-1.1,0.1c0,0.3,0,0.6,0,0.9
		c0,0.2-0.1,0.3-0.3,0.5c0,0.1-0.1,0.1-0.2,0.1c-0.3,0.3-0.8,0.4-1.2,0.1c0,0-0.1-0.1-0.1-0.1c-0.1-0.1-0.4-0.2-0.5,0
		c0,0-0.1,0.1-0.1,0.1c0,0.1-0.1,0.1-0.1,0.2c-0.4,0.6-0.4,0.6,0.1,1c0.3,0.1,0.4,0.5,0.2,0.7c0,0,0,0,0,0c0,0.1-0.1,0.1-0.1,0.2
		c0,0.5-0.3,0.7-0.7,0.8s-0.5,0.3-0.4,0.8s0,0.8,0.7,0.7c0.2,0,0.5-0.1,0.7,0c0.2,0.3,0.4,0.6,0.6,0.9"/>
	<path class="st15" d="M349.9,181.1c0.9-1.3,0.6-3.1-0.6-4s-3.1-0.6-4,0.6c-0.9,1.3-0.6,3.1,0.6,4
		C347.2,182.7,348.9,182.4,349.9,181.1C349.9,181.1,349.9,181.1,349.9,181.1z"/>
	<path class="st15" d="M355.1,179.4c-0.4,0.1-0.7,0.2-1.1,0.3s-0.3,0.1-0.4,0.4c-0.1,0.5-0.2,1-0.3,1.5c0,0.2,0,0.3,0.1,0.5
		c0.3,0.3,0.6,0.6,0.9,0.8c0.2,0.2,0.3,0.5,0.1,0.7c0,0,0,0,0,0l-0.7,1c-0.1,0.2-0.4,0.3-0.6,0.2c0,0-0.1,0-0.1-0.1
		c-0.3-0.2-0.6-0.4-1-0.6c-0.2-0.1-0.3,0-0.5,0.1c-0.5,0.3-0.9,0.5-1.4,0.8c-0.1,0.1-0.2,0.2-0.2,0.4c0,0.4,0,0.8,0,1.1
		s-0.1,0.6-0.5,0.6c-0.4,0-0.7,0.1-1.1,0.2c-0.4,0.1-0.6-0.1-0.7-0.4c0-0.1-0.1-0.3-0.1-0.4c0-0.7-0.4-1-1.2-1.2
		c-0.8-0.4-1.8,0-2.2,0.8c-0.1,0.2-0.4,0.3-0.6,0.2c-0.1,0-0.1-0.1-0.1-0.1c-0.3-0.2-0.6-0.5-1-0.7c-0.3-0.1-0.4-0.4-0.2-0.7
		c0,0,0-0.1,0.1-0.1c0.2-0.3,0.4-0.6,0.6-0.9c0.2-0.2,0.2-0.4,0-0.6c0,0,0,0,0,0c-0.2-0.3-0.4-0.5-0.5-0.8c-0.2-0.6-0.6-0.8-1.3-0.7
		c-1.2,0.2-1.1,0-1.3-1s-0.2-1.1,0.9-1.4c0.6-0.1,0.9-0.3,1-1c0-0.5,0.4-1,0.3-1.3s-0.7-0.7-1-1c-0.2-0.1-0.3-0.4-0.1-0.6
		c0,0,0,0,0-0.1l0.7-1c0.1-0.2,0.4-0.4,0.6-0.3c0,0,0.1,0,0.1,0.1c0.1,0.1,0.3,0.2,0.4,0.3c0.5,0.4,1.1,0.5,1.6-0.1
		c0.1-0.1,0.1-0.1,0.2-0.2c0.9-0.2,0.9-0.8,0.9-1.5s0-0.9,0.8-1c1.4-0.2,1.3-0.4,1.6,1c0.1,0.5,0.3,0.8,0.8,0.8c0.2,0,0.4,0,0.6,0.1
		c0.5,0.3,1.1,0.2,1.5-0.3c0,0,0.1-0.1,0.1-0.1c0.7-1,0.8-0.7,1.5-0.1c1,0.7,1,0.6,0.4,1.6c-0.3,0.5-0.5,0.9,0,1.4
		c0.3,0.3,0.4,1,0.8,1.2s0.9,0,1.4,0c0.2,0,0.4,0.1,0.5,0.3c0.1,0.5,0.2,0.9,0.3,1.4c0,0.1,0,0.2,0,0.3
		C355.5,179.3,355.3,179.4,355.1,179.4z"/>
	<g class="st3">
		<path class="st8" d="M309.2,143.8h-0.5v2.3H308v-7h0.8v4.3l0.4-0.1l1.6-2.1h0.9l-1.5,2l-0.4,0.3l0.5,0.4l1.7,2.3h-1L309.2,143.8z"
			/>
	</g>
	<g class="st3">
		<path class="st8" d="M316.3,145.7c-0.2,0.2-0.5,0.3-0.8,0.4c-0.3,0.1-0.6,0.1-1,0.1c-0.4,0-0.7-0.1-1-0.2
			c-0.3-0.1-0.5-0.3-0.7-0.5c-0.2-0.2-0.3-0.5-0.4-0.8s-0.1-0.7-0.1-1.1c0-0.9,0.2-1.5,0.6-2c0.4-0.4,0.9-0.7,1.6-0.7
			c0.2,0,0.5,0,0.7,0.1s0.4,0.1,0.6,0.3c0.2,0.1,0.3,0.3,0.4,0.6s0.2,0.6,0.2,1c0,0.2,0,0.5-0.1,0.7h-3.2c0,0.3,0,0.6,0.1,0.8
			c0.1,0.2,0.2,0.4,0.3,0.6c0.1,0.2,0.3,0.3,0.5,0.4c0.2,0.1,0.5,0.1,0.7,0.1c0.2,0,0.5,0,0.7-0.1s0.4-0.2,0.5-0.3L316.3,145.7z
			 M314.6,141.7c-0.4,0-0.7,0.1-0.9,0.3c-0.2,0.2-0.4,0.6-0.4,1.1h2.5c0-0.5-0.1-0.9-0.3-1.1C315.2,141.8,314.9,141.7,314.6,141.7z"
			/>
	</g>
	<g class="st3">
		<path class="st8" d="M319,144.3l0.3,1h0l0.2-1l1-3.2h0.8l-1.5,4.5c-0.1,0.3-0.2,0.6-0.3,1c-0.1,0.3-0.2,0.6-0.4,0.8
			s-0.3,0.4-0.5,0.6c-0.2,0.1-0.4,0.2-0.6,0.2c-0.2,0-0.4,0-0.6-0.1l0.1-0.7c0.1,0,0.2,0,0.3,0c0.2,0,0.4-0.1,0.5-0.3
			c0.2-0.2,0.3-0.5,0.4-1l-2-5h0.9L319,144.3z"/>
	</g>
	<g class="st3">
		<path class="st8" d="M321.2,145.7c0-0.2,0.1-0.3,0.2-0.4c0.1-0.1,0.2-0.1,0.4-0.1c0.2,0,0.4,0.1,0.5,0.2s0.2,0.4,0.2,0.6
			c0,0.2,0,0.5-0.1,0.6c-0.1,0.2-0.2,0.3-0.3,0.5s-0.2,0.2-0.4,0.3c-0.1,0.1-0.3,0.1-0.4,0.2l-0.3-0.4c0.2-0.1,0.4-0.2,0.5-0.4
			c0.1-0.2,0.2-0.4,0.2-0.6c-0.1,0-0.1,0-0.2,0c-0.1,0-0.2,0-0.3-0.1S321.2,145.8,321.2,145.7z"/>
	</g>
	<g class="st3">
		<path class="st8" d="M324.9,141.1h0.8v-1l0.8-0.2v1.2h1.4v0.7h-1.4v2.8c0,0.3,0,0.6,0.1,0.7c0.1,0.1,0.2,0.2,0.4,0.2
			c0.2,0,0.3,0,0.4-0.1c0.1,0,0.3-0.1,0.4-0.1l0.2,0.6c-0.2,0.1-0.4,0.2-0.6,0.2c-0.2,0.1-0.4,0.1-0.7,0.1c-0.4,0-0.7-0.1-0.9-0.3
			c-0.2-0.2-0.3-0.6-0.3-1.2v-2.9h-0.8V141.1z"/>
		<path class="st8" d="M328.9,141.5c0.3-0.2,0.5-0.3,0.9-0.3s0.7-0.1,1.1-0.1c0.3,0,0.6,0,0.8,0.1c0.2,0.1,0.4,0.2,0.5,0.4
			c0.1,0.2,0.2,0.3,0.2,0.5c0,0.2,0.1,0.4,0.1,0.5c0,0.4,0,0.8,0,1.2c0,0.4,0,0.7,0,1.1c0,0.2,0,0.5,0,0.7c0,0.2,0.1,0.4,0.1,0.6
			h-0.6l-0.2-0.7h0c-0.1,0.1-0.1,0.2-0.2,0.3c-0.1,0.1-0.2,0.2-0.3,0.2c-0.1,0.1-0.3,0.1-0.4,0.2c-0.2,0-0.4,0.1-0.6,0.1
			c-0.2,0-0.4,0-0.6-0.1c-0.2-0.1-0.3-0.2-0.5-0.3c-0.1-0.1-0.2-0.3-0.3-0.4c-0.1-0.2-0.1-0.4-0.1-0.6c0-0.3,0.1-0.5,0.2-0.7
			c0.1-0.2,0.3-0.4,0.5-0.5s0.5-0.2,0.8-0.3c0.3,0,0.6-0.1,1-0.1c0.1,0,0.2,0,0.3,0c0.1,0,0.2,0,0.3,0c0-0.2,0-0.4,0-0.5
			c0-0.4-0.1-0.6-0.2-0.8c-0.1-0.1-0.4-0.2-0.8-0.2c-0.1,0-0.2,0-0.4,0c-0.1,0-0.3,0-0.4,0.1s-0.3,0.1-0.4,0.1
			c-0.1,0-0.2,0.1-0.3,0.1L328.9,141.5z M330.3,145.5c0.2,0,0.4,0,0.5-0.1c0.1,0,0.3-0.1,0.4-0.2c0.1-0.1,0.2-0.2,0.3-0.3
			c0.1-0.1,0.1-0.2,0.2-0.3v-0.8c-0.1,0-0.2,0-0.3,0s-0.2,0-0.3,0c-0.2,0-0.4,0-0.6,0c-0.2,0-0.4,0.1-0.5,0.1
			c-0.1,0.1-0.3,0.1-0.4,0.3s-0.1,0.2-0.1,0.4c0,0.2,0.1,0.4,0.3,0.6C329.8,145.4,330.1,145.5,330.3,145.5z"/>
		<path class="st8" d="M337.8,146.3c0,0.6-0.2,1.1-0.5,1.4c-0.3,0.3-0.9,0.5-1.5,0.5c-0.4,0-0.7,0-1-0.1s-0.5-0.1-0.6-0.2l0.2-0.7
			c0.2,0.1,0.3,0.1,0.5,0.2s0.4,0.1,0.7,0.1c0.3,0,0.5,0,0.7-0.1s0.3-0.1,0.4-0.3c0.1-0.1,0.2-0.3,0.2-0.5c0-0.2,0.1-0.4,0.1-0.7
			v-0.5h0c-0.1,0.2-0.3,0.3-0.5,0.4s-0.5,0.2-0.8,0.2c-0.7,0-1.2-0.2-1.5-0.6c-0.3-0.4-0.5-1.1-0.5-2c0-0.9,0.2-1.5,0.6-1.9
			s1-0.7,1.8-0.7c0.4,0,0.7,0,1,0.1c0.3,0.1,0.5,0.1,0.7,0.2V146.3z M335.8,145.5c0.3,0,0.6-0.1,0.8-0.3s0.3-0.4,0.4-0.8v-2.6
			c-0.3-0.1-0.6-0.2-1-0.2c-0.5,0-0.8,0.2-1.1,0.5s-0.4,0.8-0.4,1.4c0,0.3,0,0.5,0.1,0.8s0.1,0.4,0.2,0.6c0.1,0.2,0.2,0.3,0.4,0.4
			C335.3,145.5,335.5,145.5,335.8,145.5z"/>
	</g>
</g>
</svg>
