<svg xmlns="http://www.w3.org/2000/svg" xmlns:xlink="http://www.w3.org/1999/xlink" viewBox="0 0 577.57 244.62"><defs><style>.cls-1,.cls-2,.cls-3,.cls-39,.cls-8{fill:none;}.cls-10,.cls-2,.cls-3,.cls-38,.cls-39,.cls-8{stroke:#fc0;}.cls-10,.cls-2,.cls-3,.cls-8{stroke-miterlimit:10;}.cls-10,.cls-2,.cls-3,.cls-38,.cls-8{stroke-width:2px;}.cls-3{stroke-dasharray:1.97 1.97;}.cls-19,.cls-26,.cls-4,.cls-9{fill:#fc0;}.cls-13,.cls-5,.cls-9{font-size:12px;}.cls-5{fill:#306;}.cls-23,.cls-35,.cls-5{font-family:PTSans-Regular, PT Sans;}.cls-6{letter-spacing:-0.1em;}.cls-7{opacity:0.7;fill:url(#Unbenannter_Verlauf_12);}.cls-8{stroke-dasharray:2 2;}.cls-19,.cls-26,.cls-27,.cls-9{font-family:RobotoSlab-Bold, Roboto Slab;}.cls-13,.cls-19,.cls-26,.cls-27,.cls-9{font-weight:700;}.cls-10{fill:url(#Unbenannter_Verlauf_12_Kopie);}.cls-11{fill:url(#Unbenannter_Verlauf_12_Kopie-2);}.cls-12{fill:url(#Unbenannter_Verlauf_12_Kopie-3);}.cls-13,.cls-23,.cls-35,.cls-38{fill:#fff;}.cls-13{font-family:PTSans-Bold, PT Sans;}.cls-14{letter-spacing:-0.04em;}.cls-15{clip-path:url(#clip-path);}.cls-16{fill:#ffd138;}.cls-17{fill:#fdfeff;}.cls-18{fill:#39f;}.cls-19{font-size:11px;}.cls-20{letter-spacing:-0.01em;}.cls-21{letter-spacing:-0.01em;}.cls-22{letter-spacing:-0.04em;}.cls-23{font-size:8px;font-weight:400;}.cls-24{letter-spacing:-0.02em;}.cls-25{letter-spacing:-0.02em;}.cls-26,.cls-35{font-size:10px;}.cls-27{font-size:14px;}.cls-28{letter-spacing:-0.07em;}.cls-29{letter-spacing:0.01em;}.cls-30{letter-spacing:-0.09em;}.cls-31{letter-spacing:-0.04em;}.cls-32{letter-spacing:-0.12em;}.cls-33{letter-spacing:0.01em;}.cls-34{letter-spacing:-0.01em;}.cls-36{letter-spacing:-0.01em;}.cls-37{letter-spacing:-0.02em;}.cls-38,.cls-39{stroke-linecap:round;stroke-linejoin:round;}.cls-40{letter-spacing:-0.01em;}.cls-41{letter-spacing:-0.02em;}.cls-42{letter-spacing:-0.07em;}.cls-43{letter-spacing:-0.08em;}</style><linearGradient id="Unbenannter_Verlauf_12" x1="127.86" y1="101.52" x2="272.05" y2="101.52" gradientUnits="userSpaceOnUse"><stop offset="0" stop-color="#906"/><stop offset="0.19" stop-color="#780066"/><stop offset="0.4" stop-color="#5a0066"/><stop offset="0.61" stop-color="#406"/><stop offset="0.81" stop-color="#370066"/><stop offset="1" stop-color="#306"/></linearGradient><linearGradient id="Unbenannter_Verlauf_12_Kopie" x1="289.44" y1="221.15" x2="358.14" y2="221.15" xlink:href="#Unbenannter_Verlauf_12"/><linearGradient id="Unbenannter_Verlauf_12_Kopie-2" x1="268.72" y1="88.21" x2="378.47" y2="88.21" xlink:href="#Unbenannter_Verlauf_12"/><linearGradient id="Unbenannter_Verlauf_12_Kopie-3" x1="21.83" y1="102.2" x2="131.58" y2="102.2" xlink:href="#Unbenannter_Verlauf_12"/><clipPath id="clip-path"><rect class="cls-1" x="62.97" y="113.33" width="25.66" height="5.02"/></clipPath></defs><title>transparentConfiguration</title><g id="Ebene_2" data-name="Ebene 2"><line class="cls-2" x1="323.47" y1="203.62" x2="323.47" y2="202.62"/><line class="cls-3" x1="323.47" y1="200.65" x2="323.47" y2="158.39"/><line class="cls-2" x1="323.47" y1="157.41" x2="323.47" y2="156.41"/><polygon class="cls-4" points="329.19 198.98 328.17 198.02 323.47 203.08 318.77 198.02 317.74 198.98 323.47 205.13 329.19 198.98"/><polygon class="cls-4" points="329.19 161.05 328.17 162 323.47 156.95 318.77 162 317.74 161.05 323.47 154.89 329.19 161.05"/><text class="cls-5" transform="translate(368.97 176.08)"><tspan class="cls-6">T</tspan><tspan x="5.4" y="0">ransparent </tspan><tspan x="0" y="14.4">file encryption</tspan></text><rect class="cls-7" x="127.86" y="92.16" width="144.19" height="18.71"/><line class="cls-2" x1="131.47" y1="101.63" x2="132.47" y2="101.63"/><line class="cls-8" x1="134.47" y1="101.63" x2="265.2" y2="101.63"/><line class="cls-2" x1="266.2" y1="101.63" x2="267.2" y2="101.63"/><polygon class="cls-4" points="136.11 107.36 137.07 106.33 132.01 101.63 137.07 96.93 136.11 95.91 129.96 101.63 136.11 107.36"/><polygon class="cls-4" points="262.56 107.36 261.61 106.33 266.66 101.63 261.61 96.93 262.56 95.91 268.72 101.63 262.56 107.36"/><path class="cls-2" d="M196.29,92.16c3.37,0,6.1,4.19,6.1,9.36s-2.73,9.35-6.1,9.35"/><text class="cls-9" transform="translate(188.03 87.48) scale(1.01 1)">TLS</text></g><g id="Ebene_4" data-name="Ebene 4"><rect class="cls-10" x="289.44" y="205.87" width="68.7" height="30.56" rx="5"/><rect class="cls-11" x="268.72" y="22.18" width="109.75" height="132.08" rx="5"/><rect class="cls-12" x="21.83" y="82.97" width="109.75" height="38.46" rx="5"/><text class="cls-13"><tspan class="cls-14" x="54.35" y="103.68">C</tspan><tspan x="60.53" y="103.68">AS</tspan></text><g id="Scone_logo_white" data-name="Scone logo white"><g class="cls-15"><g class="cls-15"><path class="cls-16" d="M66.37,114.6h-.54a.21.21,0,0,0-.21.21v.54a.21.21,0,0,0,.21.21h.54a.21.21,0,0,0,.21-.21v-.54a.21.21,0,0,0-.21-.21m-1.87,1H65a.2.2,0,0,0,.2-.21v-.54a.2.2,0,0,0-.2-.21H64.5a.21.21,0,0,0-.21.21v.54a.21.21,0,0,0,.21.21m-.58-.21v-.54a.21.21,0,0,0-.21-.21h-.53a.21.21,0,0,0-.21.21v.54a.21.21,0,0,0,.21.21h.53a.21.21,0,0,0,.21-.21m2.49.59a.16.16,0,0,0-.15.16v.64a.15.15,0,0,0,.15.15.16.16,0,0,0,.16-.15v-.64a.16.16,0,0,0-.16-.16m-1.48.21v.55a.21.21,0,0,0,.21.2h.54a.2.2,0,0,0,.2-.2v-.55a.21.21,0,0,0-.2-.21h-.54a.22.22,0,0,0-.21.21m-.38.55v-.55a.21.21,0,0,0-.21-.21h-.53a.21.21,0,0,0-.21.21v.55a.2.2,0,0,0,.21.2h.53a.2.2,0,0,0,.21-.2m1.82.59h-.54a.21.21,0,0,0-.21.2V118a.22.22,0,0,0,.21.21h.54a.22.22,0,0,0,.21-.21v-.55a.21.21,0,0,0-.21-.2m-1.4,0h-.53a.2.2,0,0,0-.21.2V118a.21.21,0,0,0,.21.21H65a.21.21,0,0,0,.21-.21v-.55a.2.2,0,0,0-.21-.2"/><path class="cls-16" d="M67,114.38a1.23,1.23,0,0,0,.84.26s0,0,0,0v1.48c0,.57-.7.92-.86,1s0,0,0,0v-2.77s0,0,0,0"/><path class="cls-16" d="M65.4,114.31c1.13,0,1.32-.43,1.32-.43a.05.05,0,0,1,0,0s0,0,0,0,.18.42,1.32.42c0,0,0,0,0,0v1.94c0,.62-1.18,1.33-1.2,1.34s0,0,0,0v.48s.07,0,.1,0c.43-.23,1.65-.9,1.65-1.73V114s-.07-.07-.11-.07c-1.45,0-1.72-.53-1.72-.53s-.06,0-.09,0,0,0-.06,0-.24.55-1.67.55c-.06,0-.07,0-.07.06v.31s0,.07,0,.07l.38,0"/><path class="cls-17" d="M69.77,117.48l.58-.21a.79.79,0,0,0,.75.43.88.88,0,0,0,.45-.1.37.37,0,0,0,.18-.31c0-.31-.42-.5-.73-.62h0a2.63,2.63,0,0,1-.67-.38.82.82,0,0,1-.33-.68.89.89,0,0,1,.34-.71,1.27,1.27,0,0,1,.85-.29,1.24,1.24,0,0,1,1.14.62l-.6.23a.41.41,0,0,0-.21-.22.81.81,0,0,0-.33-.07c-.33,0-.55.17-.55.41a.45.45,0,0,0,.22.37,2.55,2.55,0,0,0,.52.27l.07,0c.45.19,1,.43,1,1A.86.86,0,0,1,72,118a1.63,1.63,0,0,1-.94.27,1.36,1.36,0,0,1-1.32-.79"/><path class="cls-17" d="M74.89,118.26a1.78,1.78,0,0,1-.71-.15,1.61,1.61,0,0,1-.58-.39,1.74,1.74,0,0,1-.39-.58,1.92,1.92,0,0,1-.15-.71,1.88,1.88,0,0,1,.15-.71,1.65,1.65,0,0,1,.39-.58,1.77,1.77,0,0,1,.58-.4,2,2,0,0,1,.71-.14,1.72,1.72,0,0,1,.83.2,1.78,1.78,0,0,1,.63.52l-.49.36a1.21,1.21,0,0,0-1-.48,1.15,1.15,0,0,0-.86.36,1.19,1.19,0,0,0-.37.87,1.21,1.21,0,0,0,.37.87,1.19,1.19,0,0,0,.86.36,1.12,1.12,0,0,0,.62-.18A1.29,1.29,0,0,0,76,117l.52.3a1.77,1.77,0,0,1-.66.67,1.73,1.73,0,0,1-.92.26"/><path class="cls-17" d="M78.89,118.27a1.74,1.74,0,0,1-.71-.15,1.61,1.61,0,0,1-.58-.39,1.87,1.87,0,0,1-.54-1.29,1.56,1.56,0,0,1,.15-.71,1.8,1.8,0,0,1,.39-.58,2,2,0,0,1,.58-.4,1.91,1.91,0,0,1,.71-.14,2,2,0,0,1,.72.14,1.73,1.73,0,0,1,.57.4,1.82,1.82,0,0,1,.4.58,1.87,1.87,0,0,1,.14.71,1.91,1.91,0,0,1-.14.71,1.94,1.94,0,0,1-.4.58,1.76,1.76,0,0,1-.57.39,1.79,1.79,0,0,1-.72.15m0-3.07a1.19,1.19,0,0,0-.87.36,1.27,1.27,0,0,0-.36.87,1.23,1.23,0,0,0,.36.87,1.23,1.23,0,0,0,1.74,0,1.23,1.23,0,0,0,.36-.87,1.24,1.24,0,0,0-.36-.87,1.23,1.23,0,0,0-.87-.36"/><polygon class="cls-17" points="84.88 114.63 84.88 118.35 82.31 115.99 82.31 118.21 81.66 118.21 81.66 114.5 84.22 116.86 84.22 114.63 84.88 114.63"/><polygon class="cls-17" points="86.62 115.18 86.62 116.13 88.41 116.13 88.41 116.69 86.62 116.69 86.62 117.65 88.63 117.65 88.63 118.21 85.97 118.21 85.97 114.63 88.63 114.63 88.63 115.19 86.62 115.19 86.62 115.18"/></g></g></g><path class="cls-18" d="M102.22,98.82H92a4.72,4.72,0,1,0,0,2.28h3l1.35,1.35,1.36-1.35h.18l.86.86.8-.8,1.3,1.29,1.45-1.45,1.09-1Zm-16.57,2.39A1.25,1.25,0,1,1,86.89,100,1.25,1.25,0,0,1,85.65,101.21Z"/><text class="cls-19" transform="translate(315.59 224.8)"><tspan class="cls-20">v</tspan><tspan class="cls-21" x="6.19" y="0">o</tspan><tspan x="12.25" y="0">l</tspan></text><text class="cls-19" transform="translate(294.53 47.8)">ap<tspan class="cls-21" x="12.7" y="0">p</tspan><tspan x="19.26" y="0">lic</tspan><tspan class="cls-22" x="32.1" y="0">a</tspan><tspan x="37.72" y="0">tion </tspan><tspan class="cls-23"><tspan x="-13.68" y="10">(no sour</tspan><tspan class="cls-24" x="14.05" y="10">c</tspan><tspan x="17.48" y="10">e </tspan><tspan class="cls-25" x="23.68" y="10">c</tspan><tspan x="27.1" y="10">ode changes)</tspan></tspan></text><text class="cls-26" transform="translate(66.53 79.17) scale(1.01 1)">TEE</text><text class="cls-26" transform="translate(311.96 15.56) scale(1.01 1)">TEE</text><text class="cls-27" transform="translate(21.9 153.2)">CONFIGUR<tspan class="cls-28" x="72.75" y="0">A</tspan><tspan x="81.79" y="0">TION &amp; </tspan><tspan class="cls-28" x="-0.03" y="16.8">A</tspan><tspan class="cls-29" x="9" y="16.8">T</tspan><tspan x="18.52" y="16.8">TES</tspan><tspan class="cls-30" x="45.37" y="16.8">T</tspan><tspan class="cls-28" x="53.55" y="16.8">A</tspan><tspan x="62.58" y="16.8">TION SE</tspan><tspan class="cls-31" x="118.44" y="16.8">R</tspan><tspan x="127.45" y="16.8">VICE</tspan></text><text class="cls-27" transform="translate(398.41 35.42)">TRANS<tspan class="cls-32" x="48.4" y="0">P</tspan><tspan x="55.84" y="0">ARENT </tspan><tspan class="cls-28" x="-0.03" y="16.8">A</tspan><tspan class="cls-29" x="9" y="16.8">T</tspan><tspan x="18.52" y="16.8">TES</tspan><tspan class="cls-30" x="45.37" y="16.8">T</tspan><tspan class="cls-28" x="53.55" y="16.8">A</tspan><tspan x="62.58" y="16.8">TION &amp; </tspan><tspan x="-0.06" y="33.6">SECR</tspan><tspan class="cls-33" x="36.07" y="33.6">E</tspan><tspan x="45.15" y="33.6">T PR</tspan><tspan class="cls-34" x="76.67" y="33.6">O</tspan><tspan x="86.42" y="33.6">VISIONING</tspan></text><text class="cls-35" transform="translate(275.25 90.31)">arguments<tspan x="0" y="12">environment</tspan><tspan class="cls-36" x="54.34" y="12"> </tspan><tspan x="56.87" y="12">variable</tspan><tspan class="cls-37" x="0" y="24">c</tspan><tspan x="4.28" y="24">onfiguration files</tspan></text><path class="cls-38" d="M353.53,191.82a12.33,12.33,0,1,1,6.43-16.2A12.34,12.34,0,0,1,353.53,191.82Z"/><circle class="cls-38" cx="348.64" cy="180.5" r="12.33"/><path class="cls-39" d="M358.07,188.34a1.64,1.64,0,0,0-.51-.57,1.7,1.7,0,0,0-2.35.41,1.76,1.76,0,0,0,.38,2.33"/><path class="cls-39" d="M359.84,185.7a.5.5,0,0,0-.23-.26c-.07,0-.11-.08-.18-.13-.55-.39-.55-.39-1,.13-.25.27-.49.4-.81.2a.24.24,0,0,0-.17,0c-.51,0-.72-.27-.8-.74,0-.16-.19-.42-.29-.44a5.47,5.47,0,0,0-1.11.15,5,5,0,0,1,0,.86.84.84,0,0,1-.25.46c-.05.08-.14.09-.2.13a.82.82,0,0,1-1.25,0,.38.38,0,0,0-.63.14.89.89,0,0,1-.13.18c-.43.55-.42.58.1,1a.55.55,0,0,1,.22.78.49.49,0,0,0-.06.23c.05.54-.27.72-.72.76s-.52.34-.43.75,0,.8.66.7c.22,0,.54-.06.66,0a3.47,3.47,0,0,1,.56.88"/><path class="cls-39" d="M349.91,181.1a2.86,2.86,0,1,0-4,.64A2.82,2.82,0,0,0,349.91,181.1Z"/><path class="cls-39" d="M355.06,179.4c-.37.12-.71.21-1.08.3s-.31.12-.36.38c-.08.53-.23,1-.34,1.54a.66.66,0,0,0,.11.47,7.06,7.06,0,0,0,.87.79.49.49,0,0,1,.09.73l-.74,1a.47.47,0,0,1-.73.12,4.13,4.13,0,0,0-1-.55.63.63,0,0,0-.5.05,15.4,15.4,0,0,0-1.36.83.62.62,0,0,0-.22.39c0,.38,0,.77.05,1.15s-.09.6-.51.63a6.3,6.3,0,0,0-1.1.18c-.4.09-.59-.07-.68-.44,0-.13-.08-.28-.1-.4-.05-.74-.44-1-1.16-1.17a1.64,1.64,0,0,0-2.16.76.47.47,0,0,1-.76.13c-.33-.24-.62-.48-.95-.69a.52.52,0,0,1-.16-.81c.21-.33.35-.64.56-.93a.41.41,0,0,0,0-.58,3.47,3.47,0,0,1-.55-.84c-.24-.64-.61-.78-1.28-.7-1.23.16-1.09,0-1.26-1s-.18-1.13.91-1.37c.62-.13.94-.34,1-1,0-.46.4-1,.27-1.34s-.69-.66-1-1a.46.46,0,0,1-.08-.7l.71-1a.48.48,0,0,1,.75-.18,1.48,1.48,0,0,1,.39.26c.55.39,1.09.53,1.61-.07a.35.35,0,0,1,.23-.16c.87-.21.94-.77.85-1.53s-.05-.89.83-1c1.39-.23,1.27-.37,1.62,1,.11.49.29.79.84.76a1.2,1.2,0,0,1,.6.13,1.06,1.06,0,0,0,1.54-.44c.74-1,.79-.67,1.52-.15,1,.72,1,.58.36,1.62-.3.5-.47.89,0,1.39.31.34.41,1,.77,1.17s.93,0,1.42,0a.68.68,0,0,1,.5.33,9,9,0,0,1,.26,1.41,1.4,1.4,0,0,1,0,.33A2.3,2.3,0,0,1,355.06,179.4Z"/><text class="cls-35" transform="translate(307.21 146.09)"><tspan class="cls-40">k</tspan><tspan class="cls-41" x="4.67" y="0">e</tspan><tspan class="cls-42" x="9.53" y="0">y</tspan><tspan class="cls-43" x="13.47" y="0">,</tspan><tspan x="14.94" y="0" xml:space="preserve"> tag</tspan></text><path class="cls-2" d="M373.47,22.18H273.72a5,5,0,0,0-5,5v65H131.58V88a5,5,0,0,0-5-5H26.83a5,5,0,0,0-5,5v28.46a5,5,0,0,0,5,5h99.75a5,5,0,0,0,5-5v-5.56H268.72v38.38a5,5,0,0,0,5,5h99.75a5,5,0,0,0,5-5V27.18A5,5,0,0,0,373.47,22.18Z"/></g></svg>