<?xml version="1.0" encoding="utf-8"?>
<!-- Generator: Adobe Illustrator 24.0.0, SVG Export Plug-In . SVG Version: 6.00 Build 0)  -->
<svg version="1.1" id="Ebene_1" xmlns="http://www.w3.org/2000/svg" xmlns:xlink="http://www.w3.org/1999/xlink" x="0px" y="0px"
	 viewBox="0 0 747.8 300.5" style="enable-background:new 0 0 747.8 300.5;" xml:space="preserve">
<style type="text/css">
	.st0{opacity:0.2;fill:#FFCC99;enable-background:new    ;}
	.st1{fill:none;stroke:#CC3300;stroke-width:2;stroke-miterlimit:10;stroke-dasharray:2,2;}
	.st2{enable-background:new    ;}
	.st3{fill:#330066;}
	.st4{fill:none;stroke:#FF6633;stroke-width:2;stroke-linecap:round;stroke-linejoin:round;}
	.st5{fill:#FF6633;}
	.st6{fill:#FFFFFF;stroke:#CC3300;stroke-width:2;stroke-miterlimit:10;}
	.st7{fill:none;stroke:#CC3300;stroke-width:2;stroke-miterlimit:10;}
	.st8{fill:#FFFFFF;}
	.st9{fill:none;stroke:#330066;stroke-linejoin:round;}
	.st10{fill:none;stroke:#330066;stroke-linecap:round;stroke-linejoin:round;}
	.st11{fill:url(#SVGID_1_);}
	.st12{fill:none;stroke:#FFCC00;stroke-width:2;stroke-miterlimit:10;}
	.st13{fill:none;stroke:#FFCC00;stroke-width:2;stroke-linecap:round;stroke-linejoin:round;}
	.st14{fill:#FFCC00;}
	.st15{fill:#FFFFFF;stroke:#FFCC00;stroke-width:2;stroke-linecap:round;stroke-linejoin:round;}
	.st16{clip-path:url(#SVGID_3_);}
	.st17{clip-path:url(#SVGID_5_);}
	.st18{fill:#FFD138;}
	.st19{fill:#FDFEFF;}
	.st20{fill:url(#SVGID_6_);}
	.st21{clip-path:url(#SVGID_8_);}
	.st22{clip-path:url(#SVGID_10_);}
	.st23{fill:url(#SVGID_11_);stroke:#FFCC00;stroke-width:2;stroke-miterlimit:10;}
	.st24{fill:none;stroke:#FFCC00;stroke-width:2;stroke-miterlimit:10;stroke-dasharray:1.97,1.97;}
	.st25{fill:none;stroke:#FFCC00;stroke-width:2;stroke-miterlimit:10;stroke-dasharray:2.02,2.02;}
	.st26{fill:#CC3300;}
	.st27{fill:none;stroke:#330066;stroke-width:2;stroke-miterlimit:10;}
</style>
<title>user</title>
<g id="Ebene_2_1_">
	<path class="st0" d="M124.4,29.8h500c2.8,0,5,2.2,5,5v244.4c0,2.8-2.2,5-5,5h-500c-2.8,0-5-2.2-5-5V34.8
		C119.4,32,121.6,29.8,124.4,29.8z"/>
	<path class="st1" d="M124.4,29.2h500c2.8,0,5,2.2,5,5v245.6c0,2.8-2.2,5-5,5h-500c-2.8,0-5-2.2-5-5V34.2
		C119.4,31.4,121.6,29.2,124.4,29.2z"/>
	<g class="st2">
		<path class="st3" d="M396.4,11.2V9.9h3.3v9.9l1,0.2v1.3h-4.2v-1.3l1-0.2v-8.4L396.4,11.2z"/>
	</g>
	<g class="st2">
		<path class="st3" d="M401.3,17.3c0-1.2,0.3-2.2,1-2.9c0.7-0.8,1.6-1.1,2.7-1.1c1.2,0,2.1,0.4,2.8,1.1c0.7,0.8,1,1.7,1,2.9v0.2
			c0,1.2-0.3,2.2-1,2.9c-0.7,0.8-1.6,1.1-2.7,1.1c-1.2,0-2.1-0.4-2.8-1.1c-0.7-0.7-1-1.7-1-2.9V17.3z M403.5,17.5
			c0,0.7,0.1,1.3,0.4,1.7c0.3,0.4,0.7,0.7,1.2,0.7c0.6,0,1-0.2,1.2-0.7c0.3-0.4,0.4-1,0.4-1.7v-0.2c0-0.7-0.1-1.3-0.4-1.7
			s-0.7-0.7-1.2-0.7s-1,0.2-1.2,0.7s-0.4,1-0.4,1.7V17.5z"/>
		<path class="st3" d="M413.4,19.9c0.4,0,0.7-0.1,0.9-0.3c0.2-0.2,0.3-0.5,0.3-0.9h1.9l0,0c0,0.8-0.3,1.5-0.9,2
			c-0.6,0.5-1.4,0.8-2.3,0.8c-1.2,0-2.1-0.4-2.7-1.1s-1-1.7-1-2.9v-0.2c0-1.2,0.3-2.1,1-2.9c0.7-0.8,1.6-1.1,2.8-1.1
			c0.6,0,1.2,0.1,1.7,0.3c0.5,0.2,0.9,0.5,1.3,0.8l0,2.1h-1.7l-0.4-1.2c-0.1-0.1-0.2-0.2-0.4-0.2c-0.2-0.1-0.3-0.1-0.5-0.1
			c-0.6,0-1,0.2-1.3,0.7s-0.4,1-0.4,1.7v0.2c0,0.7,0.1,1.3,0.3,1.7C412.5,19.7,412.9,19.9,413.4,19.9z"/>
		<path class="st3" d="M422.7,21.4c-0.1-0.1-0.1-0.3-0.2-0.4c0-0.1-0.1-0.3-0.1-0.4c-0.3,0.3-0.6,0.5-0.9,0.7
			c-0.4,0.2-0.8,0.3-1.2,0.3c-0.8,0-1.4-0.2-1.8-0.6c-0.5-0.4-0.7-1-0.7-1.7c0-0.7,0.3-1.3,0.9-1.7s1.5-0.6,2.6-0.6h1.1v-0.8
			c0-0.4-0.1-0.7-0.3-0.9s-0.5-0.3-1-0.3c-0.2,0-0.5,0-0.7,0.1c-0.2,0.1-0.3,0.1-0.5,0.2l-0.1,0.8h-1.6l0-1.8
			c0.4-0.3,0.8-0.5,1.3-0.7c0.5-0.2,1.1-0.3,1.7-0.3c1,0,1.8,0.2,2.4,0.7c0.6,0.5,0.9,1.2,0.9,2.1v3.3c0,0.1,0,0.2,0,0.3
			c0,0.1,0,0.2,0,0.3l0.7,0.1v1.3H422.7z M420.8,19.9c0.3,0,0.6-0.1,0.9-0.2c0.3-0.1,0.5-0.3,0.6-0.5V18h-1.1c-0.5,0-0.8,0.1-1,0.3
			c-0.2,0.2-0.4,0.5-0.4,0.8c0,0.3,0.1,0.5,0.3,0.6C420.3,19.9,420.5,19.9,420.8,19.9z"/>
		<path class="st3" d="M425.6,11.2V9.9h3.3v9.9l1,0.2v1.3h-4.2v-1.3l1-0.2v-8.4L425.6,11.2z"/>
		<path class="st3" d="M434.3,17.3c0-1.2,0.3-2.2,1-2.9c0.7-0.8,1.6-1.1,2.7-1.1c1.2,0,2.1,0.4,2.8,1.1c0.7,0.8,1,1.7,1,2.9v0.2
			c0,1.2-0.3,2.2-1,2.9c-0.7,0.8-1.6,1.1-2.7,1.1c-1.2,0-2.1-0.4-2.8-1.1c-0.7-0.7-1-1.7-1-2.9V17.3z M436.5,17.5
			c0,0.7,0.1,1.3,0.4,1.7c0.3,0.4,0.7,0.7,1.2,0.7c0.6,0,1-0.2,1.2-0.7c0.3-0.4,0.4-1,0.4-1.7v-0.2c0-0.7-0.1-1.3-0.4-1.7
			s-0.7-0.7-1.2-0.7s-1,0.2-1.2,0.7s-0.4,1-0.4,1.7V17.5z"/>
		<path class="st3" d="M442.9,20.1l1-0.2V15l-1.1-0.2v-1.3h3.1l0.1,1.2c0.2-0.4,0.4-0.7,0.7-1s0.6-0.3,1-0.3c0.1,0,0.2,0,0.4,0
			c0.1,0,0.2,0,0.3,0.1l-0.2,1.9l-0.9,0c-0.3,0-0.6,0.1-0.8,0.2s-0.4,0.3-0.5,0.5v3.9l1,0.2v1.3h-4.2V20.1z"/>
	</g>
	<g class="st2">
		<path class="st3" d="M452.9,20.1l1-0.2V15l-1.1-0.2v-1.3h3.1l0.1,1.2c0.2-0.4,0.4-0.7,0.7-1s0.6-0.3,1-0.3c0.1,0,0.2,0,0.4,0
			c0.1,0,0.2,0,0.3,0.1l-0.2,1.9l-0.9,0c-0.3,0-0.6,0.1-0.8,0.2s-0.4,0.3-0.5,0.5v3.9l1,0.2v1.3h-4.2V20.1z"/>
	</g>
	<g class="st2">
		<path class="st3" d="M462.7,21.5c-1.1,0-2.1-0.4-2.7-1.1s-1-1.7-1-2.8v-0.3c0-1.2,0.3-2.1,1-2.9c0.6-0.8,1.5-1.1,2.6-1.1
			c1.1,0,1.9,0.3,2.5,1s0.9,1.5,0.9,2.6V18h-4.7l0,0c0,0.5,0.2,1,0.5,1.3c0.3,0.3,0.7,0.5,1.3,0.5c0.5,0,0.9,0,1.2-0.1
			c0.3-0.1,0.7-0.2,1-0.5l0.6,1.3c-0.3,0.3-0.8,0.5-1.3,0.7C463.9,21.4,463.3,21.5,462.7,21.5z M462.5,14.9c-0.4,0-0.7,0.2-0.9,0.5
			s-0.4,0.7-0.4,1.2l0,0h2.6v-0.2c0-0.5-0.1-0.8-0.3-1.1C463.2,15.1,462.9,14.9,462.5,14.9z"/>
	</g>
	<g class="st2">
		<path class="st3" d="M466.6,14.7v-1.3h3.1l0.1,1c0.3-0.4,0.6-0.7,1-0.9c0.4-0.2,0.8-0.3,1.3-0.3c0.5,0,0.9,0.1,1.3,0.3
			s0.6,0.6,0.8,1c0.2-0.4,0.6-0.8,1-1c0.4-0.2,0.8-0.4,1.4-0.4c0.8,0,1.4,0.3,1.8,0.8c0.5,0.5,0.7,1.4,0.7,2.5v3.3l1,0.2v1.3h-4.1
			v-1.3l0.9-0.2v-3.3c0-0.6-0.1-1-0.3-1.3s-0.5-0.4-0.9-0.4c-0.3,0-0.6,0.1-0.8,0.2c-0.2,0.1-0.4,0.3-0.5,0.6c0,0.1,0,0.2,0,0.2
			c0,0.1,0,0.1,0,0.2v3.7l0.9,0.2v1.3h-3.9v-1.3l0.9-0.2v-3.3c0-0.6-0.1-1-0.3-1.2c-0.2-0.2-0.5-0.4-0.9-0.4c-0.3,0-0.5,0.1-0.8,0.2
			c-0.2,0.1-0.4,0.3-0.5,0.5v4.3l0.9,0.2v1.3h-4.1v-1.3l1-0.2V15L466.6,14.7z"/>
	</g>
	<g class="st2">
		<path class="st3" d="M480.8,17.3c0-1.2,0.3-2.2,1-2.9c0.7-0.8,1.6-1.1,2.7-1.1c1.2,0,2.1,0.4,2.8,1.1c0.7,0.8,1,1.7,1,2.9v0.2
			c0,1.2-0.3,2.2-1,2.9c-0.7,0.8-1.6,1.1-2.7,1.1c-1.2,0-2.1-0.4-2.8-1.1c-0.7-0.7-1-1.7-1-2.9V17.3z M482.9,17.5
			c0,0.7,0.1,1.3,0.4,1.7c0.3,0.4,0.7,0.7,1.2,0.7c0.6,0,1-0.2,1.2-0.7c0.3-0.4,0.4-1,0.4-1.7v-0.2c0-0.7-0.1-1.3-0.4-1.7
			s-0.7-0.7-1.2-0.7s-1,0.2-1.2,0.7s-0.4,1-0.4,1.7V17.5z"/>
		<path class="st3" d="M492.3,11.5v1.9h1.4v1.5h-1.4v4c0,0.3,0.1,0.5,0.2,0.7s0.3,0.2,0.5,0.2c0.1,0,0.3,0,0.4,0
			c0.1,0,0.2,0,0.4-0.1l0.2,1.5c-0.2,0.1-0.5,0.1-0.7,0.2c-0.2,0-0.5,0.1-0.8,0.1c-0.7,0-1.3-0.2-1.7-0.6c-0.4-0.4-0.6-1-0.6-1.9v-4
			H489v-1.5h1.2v-1.9H492.3z"/>
		<path class="st3" d="M498.6,21.5c-1.1,0-2.1-0.4-2.7-1.1s-1-1.7-1-2.8v-0.3c0-1.2,0.3-2.1,1-2.9c0.6-0.8,1.5-1.1,2.6-1.1
			c1.1,0,1.9,0.3,2.5,1s0.9,1.5,0.9,2.6V18H497l0,0c0,0.5,0.2,1,0.5,1.3c0.3,0.3,0.7,0.5,1.3,0.5c0.5,0,0.9,0,1.2-0.1
			c0.3-0.1,0.7-0.2,1-0.5l0.6,1.3c-0.3,0.3-0.8,0.5-1.3,0.7C499.8,21.4,499.2,21.5,498.6,21.5z M498.4,14.9c-0.4,0-0.7,0.2-0.9,0.5
			s-0.4,0.7-0.4,1.2l0,0h2.6v-0.2c0-0.5-0.1-0.8-0.3-1.1C499.1,15.1,498.8,14.9,498.4,14.9z"/>
		<path class="st3" d="M514.5,14.1h-1.6l-0.3-1.5c-0.2-0.1-0.5-0.2-0.8-0.3s-0.7-0.1-1.1-0.1c-0.6,0-1,0.1-1.4,0.4
			c-0.3,0.2-0.5,0.6-0.5,1c0,0.4,0.2,0.7,0.5,0.9c0.3,0.2,0.9,0.5,1.7,0.7c1.2,0.3,2.1,0.8,2.7,1.3c0.6,0.5,0.9,1.2,0.9,2.1
			c0,0.9-0.4,1.6-1.1,2.2s-1.7,0.8-2.9,0.8c-0.8,0-1.6-0.1-2.3-0.4c-0.7-0.3-1.2-0.6-1.7-1.1v-2.2h1.7l0.2,1.5
			c0.2,0.2,0.5,0.3,0.9,0.4c0.4,0.1,0.8,0.2,1.2,0.2c0.6,0,1-0.1,1.3-0.4c0.3-0.2,0.5-0.6,0.5-1c0-0.4-0.1-0.7-0.4-1
			c-0.3-0.3-0.8-0.5-1.5-0.7c-1.3-0.4-2.2-0.8-2.9-1.3c-0.6-0.5-1-1.2-1-2.1c0-0.9,0.4-1.6,1.1-2.1c0.7-0.5,1.7-0.8,2.8-0.8
			c0.8,0,1.6,0.1,2.2,0.4c0.7,0.3,1.2,0.6,1.7,1V14.1z"/>
		<path class="st3" d="M524.3,20.2c-0.3,0.3-0.9,0.7-1.5,0.9c-0.7,0.3-1.5,0.4-2.5,0.4c-1.4,0-2.6-0.5-3.5-1.4
			c-0.9-1-1.4-2.2-1.4-3.8V16c0-1.6,0.4-2.9,1.3-3.9c0.9-1,2.1-1.5,3.5-1.5c0.8,0,1.6,0.1,2.3,0.4c0.7,0.3,1.3,0.6,1.7,1.1v2.1h-1.6
			l-0.3-1.4c-0.2-0.2-0.5-0.3-0.8-0.4c-0.3-0.1-0.7-0.2-1.1-0.2c-0.9,0-1.7,0.3-2.2,1c-0.5,0.7-0.8,1.6-0.8,2.7v0.4
			c0,1.1,0.3,1.9,0.8,2.6c0.5,0.6,1.2,1,2.2,1c0.4,0,0.8,0,1-0.1c0.3-0.1,0.5-0.2,0.6-0.3v-1.8l-1.5-0.1v-1.5h3.7V20.2z"/>
	</g>
	<g class="st2">
		<path class="st3" d="M525.2,20.1l0.9-0.2l2.8-3.9l-2.7-3.8l-0.9-0.2v-1.3h4.1V12l-0.9,0.1l1.6,2.6l1.7-2.6L531,12v-1.3h4.1V12
			l-0.9,0.2l-2.7,3.8l2.9,3.9l0.9,0.2v1.3h-4.2v-1.3l0.8-0.1l-1.7-2.7l-1.7,2.7l0.9,0.1v1.3h-4.1V20.1z"/>
	</g>
	<g class="st2">
		<path class="st3" d="M539.2,17.6H535V16h4.1V17.6z"/>
		<path class="st3" d="M544.2,19.9c0.4,0,0.7-0.1,0.9-0.3c0.2-0.2,0.3-0.5,0.3-0.9h1.9l0,0c0,0.8-0.3,1.5-0.9,2
			c-0.6,0.5-1.4,0.8-2.3,0.8c-1.2,0-2.1-0.4-2.7-1.1s-1-1.7-1-2.9v-0.2c0-1.2,0.3-2.1,1-2.9c0.7-0.8,1.6-1.1,2.8-1.1
			c0.6,0,1.2,0.1,1.7,0.3c0.5,0.2,0.9,0.5,1.3,0.8l0,2.1h-1.7l-0.4-1.2c-0.1-0.1-0.2-0.2-0.4-0.2c-0.2-0.1-0.3-0.1-0.5-0.1
			c-0.6,0-1,0.2-1.3,0.7s-0.4,1-0.4,1.7v0.2c0,0.7,0.1,1.3,0.3,1.7C543.2,19.7,543.6,19.9,544.2,19.9z"/>
		<path class="st3" d="M553.5,21.4c-0.1-0.1-0.1-0.3-0.2-0.4c0-0.1-0.1-0.3-0.1-0.4c-0.3,0.3-0.6,0.5-0.9,0.7
			c-0.4,0.2-0.8,0.3-1.2,0.3c-0.8,0-1.4-0.2-1.8-0.6c-0.5-0.4-0.7-1-0.7-1.7c0-0.7,0.3-1.3,0.9-1.7s1.5-0.6,2.6-0.6h1.1v-0.8
			c0-0.4-0.1-0.7-0.3-0.9s-0.5-0.3-1-0.3c-0.2,0-0.5,0-0.7,0.1c-0.2,0.1-0.3,0.1-0.5,0.2l-0.1,0.8h-1.6l0-1.8
			c0.4-0.3,0.8-0.5,1.3-0.7c0.5-0.2,1.1-0.3,1.7-0.3c1,0,1.8,0.2,2.4,0.7c0.6,0.5,0.9,1.2,0.9,2.1v3.3c0,0.1,0,0.2,0,0.3
			c0,0.1,0,0.2,0,0.3l0.7,0.1v1.3H553.5z M551.6,19.9c0.3,0,0.6-0.1,0.9-0.2c0.3-0.1,0.5-0.3,0.6-0.5V18H552c-0.5,0-0.8,0.1-1,0.3
			c-0.2,0.2-0.4,0.5-0.4,0.8c0,0.3,0.1,0.5,0.3,0.6C551,19.9,551.3,19.9,551.6,19.9z"/>
		<path class="st3" d="M556.5,14.7v-1.3h3.1l0.1,0.9c0.2-0.3,0.5-0.6,0.8-0.8s0.7-0.3,1.1-0.3c1,0,1.7,0.4,2.3,1.1
			c0.5,0.8,0.8,1.8,0.8,3v0.2c0,1.2-0.3,2.1-0.8,2.8c-0.5,0.7-1.3,1.1-2.3,1.1c-0.4,0-0.8-0.1-1.1-0.2c-0.3-0.2-0.6-0.4-0.8-0.7v2.3
			l1,0.2v1.3h-4.2v-1.3l1-0.2v-8L556.5,14.7z M562.6,17.5c0-0.7-0.1-1.4-0.4-1.8s-0.6-0.7-1.1-0.7c-0.3,0-0.6,0.1-0.8,0.2
			c-0.2,0.1-0.4,0.3-0.5,0.6v3.5c0.1,0.2,0.3,0.4,0.5,0.5c0.2,0.1,0.5,0.2,0.8,0.2c0.5,0,0.9-0.2,1.1-0.6c0.2-0.4,0.4-1,0.4-1.6
			V17.5z"/>
	</g>
	<g class="st2">
		<path class="st3" d="M570.8,21.4c-0.1-0.1-0.1-0.3-0.2-0.4c0-0.1-0.1-0.3-0.1-0.4c-0.3,0.3-0.6,0.5-0.9,0.7
			c-0.4,0.2-0.8,0.3-1.3,0.3c-0.8,0-1.4-0.2-1.8-0.6c-0.5-0.4-0.7-1-0.7-1.7c0-0.7,0.3-1.3,0.9-1.7s1.5-0.6,2.6-0.6h1.1v-0.8
			c0-0.4-0.1-0.7-0.3-0.9c-0.2-0.2-0.5-0.3-1-0.3c-0.2,0-0.5,0-0.7,0.1c-0.2,0.1-0.3,0.1-0.5,0.2l-0.1,0.8h-1.6l0-1.8
			c0.4-0.3,0.8-0.5,1.3-0.7c0.5-0.2,1.1-0.3,1.7-0.3c1,0,1.8,0.2,2.4,0.7c0.6,0.5,0.9,1.2,0.9,2.1v3.3c0,0.1,0,0.2,0,0.3
			c0,0.1,0,0.2,0,0.3l0.7,0.1v1.3H570.8z M568.9,19.9c0.3,0,0.6-0.1,0.9-0.2c0.3-0.1,0.5-0.3,0.6-0.5V18h-1.1c-0.5,0-0.8,0.1-1,0.3
			c-0.2,0.2-0.4,0.5-0.4,0.8c0,0.3,0.1,0.5,0.3,0.6S568.6,19.9,568.9,19.9z"/>
	</g>
	<g class="st2">
		<path class="st3" d="M581.4,17.6c0,1.2-0.3,2.1-0.8,2.8s-1.3,1.1-2.3,1.1c-0.5,0-0.9-0.1-1.2-0.3c-0.3-0.2-0.6-0.5-0.9-0.8l-0.2,1
			h-1.8v-9.9l-1.1-0.2V9.9h3.3v4.3c0.2-0.3,0.5-0.6,0.8-0.7s0.7-0.3,1.1-0.3c1,0,1.8,0.4,2.3,1.1c0.5,0.8,0.8,1.8,0.8,3V17.6z
			 M579.3,17.5c0-0.8-0.1-1.4-0.3-1.8c-0.2-0.5-0.6-0.7-1.2-0.7c-0.3,0-0.6,0.1-0.8,0.2c-0.2,0.1-0.4,0.3-0.5,0.6v3.3
			c0.1,0.2,0.3,0.4,0.5,0.6c0.2,0.1,0.5,0.2,0.9,0.2c0.6,0,0.9-0.2,1.2-0.6c0.2-0.4,0.3-0.9,0.3-1.7V17.5z"/>
	</g>
	<g class="st2">
		<path class="st3" d="M582,11.2V9.9h3.3v9.9l1,0.2v1.3h-4.2v-1.3l1-0.2v-8.4L582,11.2z"/>
		<path class="st3" d="M590.8,21.5c-1.1,0-2.1-0.4-2.7-1.1s-1-1.7-1-2.8v-0.3c0-1.2,0.3-2.1,1-2.9c0.6-0.8,1.5-1.1,2.6-1.1
			c1.1,0,1.9,0.3,2.5,1s0.9,1.5,0.9,2.6V18h-4.7l0,0c0,0.5,0.2,1,0.5,1.3c0.3,0.3,0.7,0.5,1.3,0.5c0.5,0,0.9,0,1.2-0.1
			c0.3-0.1,0.7-0.2,1-0.5l0.6,1.3c-0.3,0.3-0.8,0.5-1.3,0.7C592,21.4,591.5,21.5,590.8,21.5z M590.6,14.9c-0.4,0-0.7,0.2-0.9,0.5
			s-0.4,0.7-0.4,1.2l0,0h2.6v-0.2c0-0.5-0.1-0.8-0.3-1.1C591.4,15.1,591.1,14.9,590.6,14.9z"/>
	</g>
	<g class="st2">
		<path class="st3" d="M598.6,20.1l1-0.2v-8.4l-1.1-0.2V9.9h3.3v4.5c0.2-0.4,0.6-0.7,0.9-0.9c0.4-0.2,0.8-0.3,1.2-0.3
			c0.8,0,1.5,0.3,2,0.8c0.5,0.5,0.7,1.4,0.7,2.5v3.2l1,0.2v1.3h-4.1v-1.3l0.9-0.2v-3.2c0-0.6-0.1-1.1-0.3-1.3
			c-0.2-0.3-0.5-0.4-1-0.4c-0.3,0-0.6,0.1-0.8,0.2c-0.2,0.1-0.4,0.3-0.6,0.5v4.3l0.9,0.2v1.3h-4.1V20.1z"/>
	</g>
	<g class="st2">
		<path class="st3" d="M608.2,17.3c0-1.2,0.3-2.2,1-2.9c0.7-0.8,1.6-1.1,2.7-1.1c1.2,0,2.1,0.4,2.8,1.1s1,1.7,1,2.9v0.2
			c0,1.2-0.3,2.2-1,2.9c-0.7,0.8-1.6,1.1-2.7,1.1c-1.2,0-2.1-0.4-2.8-1.1c-0.7-0.7-1-1.7-1-2.9V17.3z M610.3,17.5
			c0,0.7,0.1,1.3,0.4,1.7c0.3,0.4,0.7,0.7,1.2,0.7c0.6,0,1-0.2,1.2-0.7s0.4-1,0.4-1.7v-0.2c0-0.7-0.1-1.3-0.4-1.7
			c-0.3-0.4-0.7-0.7-1.2-0.7s-1,0.2-1.2,0.7s-0.4,1-0.4,1.7V17.5z"/>
		<path class="st3" d="M623,16.2h-1.4l-0.2-1c-0.1-0.1-0.3-0.2-0.6-0.3c-0.2-0.1-0.5-0.1-0.7-0.1c-0.4,0-0.7,0.1-0.9,0.3
			c-0.2,0.2-0.3,0.4-0.3,0.6c0,0.2,0.1,0.4,0.3,0.6c0.2,0.2,0.6,0.3,1.3,0.4c1,0.2,1.7,0.5,2.2,0.9c0.5,0.4,0.7,0.9,0.7,1.6
			c0,0.7-0.3,1.3-0.9,1.7c-0.6,0.5-1.4,0.7-2.4,0.7c-0.6,0-1.2-0.1-1.7-0.3c-0.5-0.2-1-0.4-1.4-0.8l0-1.8h1.5l0.3,1
			c0.1,0.1,0.3,0.2,0.5,0.2c0.2,0.1,0.4,0.1,0.7,0.1c0.4,0,0.8-0.1,1-0.2s0.3-0.4,0.3-0.6c0-0.2-0.1-0.4-0.3-0.6
			c-0.2-0.2-0.7-0.3-1.3-0.5c-0.9-0.2-1.6-0.5-2.1-0.8c-0.5-0.4-0.7-0.9-0.7-1.5c0-0.7,0.3-1.2,0.8-1.7c0.5-0.5,1.3-0.7,2.3-0.7
			c0.6,0,1.2,0.1,1.7,0.2c0.5,0.2,1,0.4,1.3,0.6L623,16.2z"/>
		<path class="st3" d="M627.4,11.5v1.9h1.4v1.5h-1.4v4c0,0.3,0.1,0.5,0.2,0.7s0.3,0.2,0.5,0.2c0.1,0,0.3,0,0.4,0
			c0.1,0,0.2,0,0.4-0.1l0.2,1.5c-0.2,0.1-0.5,0.1-0.7,0.2c-0.2,0-0.5,0.1-0.8,0.1c-0.7,0-1.3-0.2-1.7-0.6c-0.4-0.4-0.6-1-0.6-1.9v-4
			h-1.2v-1.5h1.2v-1.9H627.4z"/>
	</g>
	<path class="st4" d="M381.8,20.9h-4.3c-0.6,0-0.8-0.2-0.8-0.8v-6.5c0-0.6,0.2-0.8,0.8-0.8h8.5c0.5,0,0.8,0.2,0.8,0.8v6.5
		c0,0.5-0.2,0.8-0.8,0.8C384.6,21,383.2,20.9,381.8,20.9z"/>
	<path class="st4" d="M380.4,4.7c1.6-0.7,3.5-0.5,4.9,0.7c1.7,1.6,1.9,4.2,0.3,5.9c-0.2,0.2-0.3,0.4-0.5,0.5c-0.3,0.3-0.6,0.4-1,0.7
		"/>
	<path class="st5" d="M381.1,18.1L381.1,18.1V19c0,0.2,0.1,0.2,0.3,0.2h0.8c0.2,0,0.3-0.1,0.3-0.3v-1.6c0-0.2,0.1-0.3,0.2-0.4
		c0.5-0.3,0.8-0.9,0.6-1.4c-0.2-0.6-0.8-1-1.5-1c-0.7-0.1-1.3,0.3-1.6,0.9c-0.3,0.6,0,1.3,0.5,1.6c0.2,0.1,0.3,0.3,0.3,0.5
		C381.1,17.7,381.1,17.9,381.1,18.1z"/>
	<circle class="st6" cx="419" cy="134" r="7.8"/>
	<line class="st7" x1="424.5" y1="139.5" x2="413.5" y2="128.5"/>
	<circle class="st6" cx="419" cy="222.3" r="7.8"/>
	<line class="st7" x1="424.5" y1="227.8" x2="413.5" y2="216.8"/>
	<path class="st8" d="M293.7,226.8c-0.6,0-1-0.4-1-1v-5.1c0-1.6,0.8-3.2,2.1-4.1c1-0.8,2.2-1.3,3.5-1.5c0.4-0.1,0.8-0.1,1.1-0.1
		v-1.1c-2.3-1.7-3.6-4.4-3.6-7.2c0-0.9,0-1.3,0-1.6c0-0.2,0-0.3,0-0.5h-0.2c-0.6,0-1-0.4-1-1v-5.6c0-0.2,0.1-0.4,0.2-0.5
		c0.5-3.9,3.2-7.1,6.9-8.4c2.3-0.8,4.7-0.8,7,0c1.5,0.5,2.8,1.4,3.9,2.5c1.6,1.6,2.7,3.7,3,5.9c0.1,0.1,0.1,0.3,0.1,0.5v5.6
		c0,0.6-0.4,1-1,1h-0.2v2.6c0,2.8-1.4,5.4-3.7,7v0.9c0.4,0,0.8,0,1.1,0.1c1.3,0.2,2.5,0.7,3.5,1.6c1.3,1,2.1,2.5,2.1,4.1v5.1
		c0,0.6-0.4,1-1,1L293.7,226.8z"/>
	<path class="st3" d="M305.1,189.4c1.1,0,2.2,0.2,3.2,0.5c1.3,0.5,2.5,1.2,3.5,2.3c1.6,1.5,2.5,3.5,2.8,5.7h0.1v5.6h-1.2v3.6
		c0,2.7-1.4,5.1-3.7,6.5v2.4h1c0.3,0,0.7,0,1,0.1c1.1,0.2,2.2,0.6,3.1,1.4c1.1,0.8,1.7,2,1.8,3.4v5.1h-23v-5.1
		c0-1.3,0.7-2.6,1.8-3.4c0.9-0.7,2-1.2,3.1-1.4c0.3-0.1,0.7-0.1,1-0.1h1v-2.5h0.1c-2.3-1.5-3.7-4.1-3.8-6.8c0-1.8-0.1-1.5-0.1-3.2
		h-1.2v-5.6h0.1C296.2,193.1,300.3,189.4,305.1,189.4 M305.2,187.4c-5.6,0-10.5,4-11.4,9.6c-0.1,0.3-0.2,0.6-0.2,0.9v5.6
		c0,0.8,0.5,1.5,1.3,1.9c0,0.3,0,0.7,0,1.3c0,2.8,1.2,5.5,3.3,7.4c-1.4,0.2-2.8,0.8-3.9,1.8c-1.6,1.1-2.5,3-2.5,4.9v5.1
		c0,1.1,0.9,2,2,2h22.9c1.1,0,2-0.9,2-2v-5.1c0-1.9-0.9-3.8-2.5-4.9c-1.1-0.9-2.4-1.5-3.7-1.7c2-1.8,3.2-4.4,3.2-7.1v-1.7
		c0.7-0.3,1.2-1,1.2-1.8v-5.6c0-0.3-0.1-0.6-0.2-0.9c-0.4-2.4-1.5-4.5-3.3-6.2c-1.2-1.2-2.6-2.2-4.2-2.8
		C307.8,187.6,306.5,187.3,305.2,187.4L305.2,187.4z"/>
	<polygon class="st3" points="295.4,202 295.4,206.3 303.2,206.3 305.1,206.3 307.1,206.3 314.8,206.3 314.8,202 	"/>
	<path class="st9" d="M296.8,202c0,1.9,0.1,2.7,0.1,4.6c0.1,4.5,3.8,8.2,8.3,8.2c4.5,0.2,8.2-3.3,8.4-7.8c0,0,0,0,0,0v-5.2"/>
	<path class="st9" d="M295.6,198.8c0-5.3,4.3-9.5,9.6-9.5c1.1,0,2.1,0.2,3.1,0.5c1.3,0.5,2.5,1.2,3.5,2.3c1.8,1.8,2.8,4.2,2.8,6.7"
		/>
	<rect x="295.6" y="198.4" class="st10" width="19.1" height="3.5"/>
	<line class="st10" x1="304" y1="209.9" x2="307.5" y2="209.9"/>
	<path class="st8" d="M301.6,202.8c-0.5,0.5-0.6,1.3-0.1,1.9c0.5,0.6,1.3,0.6,1.9,0.2c0.3-0.2,0.4-0.6,0.5-0.9l0,0L301.6,202.8z"/>
	<path class="st8" d="M310.7,202.9l-2.1,1.3c0.1,0.2,0.2,0.4,0.3,0.6c0.5,0.5,1.4,0.5,1.9,0c0.3-0.3,0.4-0.6,0.4-1
		C311.2,203.5,311,203.1,310.7,202.9z"/>
	<g class="st2">
		<path class="st3" d="M285.5,243.7c0-0.1-0.1-0.2-0.1-0.3c0-0.1-0.1-0.2-0.1-0.3c-0.2,0.2-0.5,0.4-0.8,0.6s-0.6,0.2-1,0.2
			c-0.6,0-1.1-0.2-1.5-0.5s-0.6-0.8-0.6-1.4c0-0.6,0.2-1.1,0.7-1.4c0.5-0.3,1.2-0.5,2.1-0.5h0.9v-0.6c0-0.3-0.1-0.6-0.3-0.7
			c-0.2-0.2-0.4-0.3-0.8-0.3c-0.2,0-0.4,0-0.5,0.1c-0.2,0-0.3,0.1-0.4,0.2l-0.1,0.7h-1.3l0-1.4c0.3-0.2,0.7-0.4,1.1-0.5
			c0.4-0.1,0.9-0.2,1.3-0.2c0.8,0,1.5,0.2,2,0.6c0.5,0.4,0.8,1,0.8,1.7v2.7c0,0.1,0,0.2,0,0.3c0,0.1,0,0.2,0,0.3l0.5,0.1v1H285.5z
			 M284,242.5c0.3,0,0.5-0.1,0.7-0.2c0.2-0.1,0.4-0.3,0.5-0.4v-1h-0.9c-0.4,0-0.7,0.1-0.8,0.3s-0.3,0.4-0.3,0.6
			c0,0.2,0.1,0.4,0.2,0.5C283.6,242.4,283.8,242.5,284,242.5z"/>
	</g>
	<g class="st2">
		<path class="st3" d="M290.2,235.6v1.6h1.1v1.2h-1.1v3.3c0,0.3,0.1,0.4,0.2,0.5s0.2,0.2,0.4,0.2c0.1,0,0.2,0,0.3,0
			c0.1,0,0.2,0,0.3-0.1l0.1,1.3c-0.2,0.1-0.4,0.1-0.6,0.1c-0.2,0-0.4,0-0.6,0c-0.6,0-1.1-0.2-1.4-0.5c-0.3-0.3-0.5-0.9-0.5-1.6v-3.3
			h-1v-1.2h1v-1.6H290.2z"/>
		<path class="st3" d="M294.8,235.6v1.6h1.1v1.2h-1.1v3.3c0,0.3,0.1,0.4,0.2,0.5s0.2,0.2,0.4,0.2c0.1,0,0.2,0,0.3,0
			c0.1,0,0.2,0,0.3-0.1l0.1,1.3c-0.2,0.1-0.4,0.1-0.6,0.1c-0.2,0-0.4,0-0.6,0c-0.6,0-1.1-0.2-1.4-0.5c-0.3-0.3-0.5-0.9-0.5-1.6v-3.3
			h-1v-1.2h1v-1.6H294.8z"/>
		<path class="st3" d="M300.9,243.7c0-0.1-0.1-0.2-0.1-0.3c0-0.1-0.1-0.2-0.1-0.3c-0.2,0.2-0.5,0.4-0.8,0.6s-0.6,0.2-1,0.2
			c-0.6,0-1.1-0.2-1.5-0.5s-0.6-0.8-0.6-1.4c0-0.6,0.2-1.1,0.7-1.4c0.5-0.3,1.2-0.5,2.1-0.5h0.9v-0.6c0-0.3-0.1-0.6-0.3-0.7
			c-0.2-0.2-0.4-0.3-0.8-0.3c-0.2,0-0.4,0-0.5,0.1c-0.2,0-0.3,0.1-0.4,0.2l-0.1,0.7h-1.3l0-1.4c0.3-0.2,0.7-0.4,1.1-0.5
			c0.4-0.1,0.9-0.2,1.3-0.2c0.8,0,1.5,0.2,2,0.6c0.5,0.4,0.8,1,0.8,1.7v2.7c0,0.1,0,0.2,0,0.3c0,0.1,0,0.2,0,0.3l0.5,0.1v1H300.9z
			 M299.4,242.5c0.3,0,0.5-0.1,0.7-0.2c0.2-0.1,0.4-0.3,0.5-0.4v-1h-0.9c-0.4,0-0.7,0.1-0.8,0.3s-0.3,0.4-0.3,0.6
			c0,0.2,0.1,0.4,0.2,0.5C299,242.4,299.2,242.5,299.4,242.5z"/>
		<path class="st3" d="M306.6,242.5c0.3,0,0.6-0.1,0.7-0.3c0.2-0.2,0.3-0.4,0.3-0.7h1.6l0,0c0,0.7-0.2,1.2-0.7,1.6
			c-0.5,0.4-1.1,0.7-1.9,0.7c-1,0-1.7-0.3-2.2-0.9c-0.5-0.6-0.8-1.4-0.8-2.3v-0.2c0-1,0.3-1.7,0.8-2.3c0.5-0.6,1.3-0.9,2.3-0.9
			c0.5,0,1,0.1,1.4,0.2c0.4,0.2,0.8,0.4,1,0.7l0,1.7h-1.4l-0.3-1c-0.1-0.1-0.2-0.1-0.3-0.2s-0.3-0.1-0.4-0.1c-0.5,0-0.8,0.2-1,0.5
			c-0.2,0.4-0.3,0.8-0.3,1.4v0.2c0,0.6,0.1,1,0.3,1.4C305.8,242.3,306.1,242.5,306.6,242.5z"/>
	</g>
	<g class="st2">
		<path class="st3" d="M309.8,235.4v-1.1h2.7v5.4h0.4l1-1.4l-0.6-0.1v-1.1h3.2v1.1l-0.8,0.2l-1.2,1.6l1.6,2.5l0.7,0.1v1h-3v-1
			l0.4-0.1l-1-1.6h-0.7v1.5l0.8,0.2v1h-3.3v-1l0.8-0.2v-6.9L309.8,235.4z"/>
	</g>
	<g class="st2">
		<path class="st3" d="M320.4,243.8c-0.9,0-1.7-0.3-2.2-0.9c-0.6-0.6-0.8-1.4-0.8-2.3v-0.2c0-1,0.3-1.8,0.8-2.4
			c0.5-0.6,1.2-0.9,2.1-0.9c0.9,0,1.5,0.3,2,0.8c0.5,0.5,0.7,1.2,0.7,2.1v1h-3.9l0,0c0,0.4,0.2,0.8,0.4,1.1c0.3,0.3,0.6,0.4,1,0.4
			c0.4,0,0.7,0,1-0.1c0.3-0.1,0.5-0.2,0.8-0.4l0.5,1.1c-0.3,0.2-0.6,0.4-1,0.5S320.9,243.8,320.4,243.8z M320.3,238.4
			c-0.3,0-0.6,0.1-0.8,0.4c-0.2,0.2-0.3,0.6-0.3,1l0,0h2.1v-0.2c0-0.4-0.1-0.7-0.3-0.9C320.9,238.5,320.6,238.4,320.3,238.4z"/>
		<path class="st3" d="M324,242.6l0.8-0.2v-4l-0.9-0.2v-1.1h2.6l0.1,0.9c0.2-0.3,0.3-0.6,0.6-0.8c0.2-0.2,0.5-0.3,0.8-0.3
			c0.1,0,0.2,0,0.3,0c0.1,0,0.2,0,0.3,0.1l-0.2,1.6l-0.7,0c-0.3,0-0.5,0-0.6,0.1c-0.2,0.1-0.3,0.2-0.4,0.4v3.1l0.8,0.2v1H324V242.6z
			"/>
	</g>
	<g class="st2">
		<path class="st3" d="M269,254.8c0-1.6,0.3-2.9,1-4c0.6-1.1,1.3-1.9,2-2.2l0,0l0.2,0.7c-0.5,0.4-1,1.1-1.4,2s-0.6,2.1-0.6,3.5v0.1
			c0,1.4,0.2,2.5,0.6,3.5c0.4,0.9,0.9,1.6,1.4,2.1l-0.2,0.6h0c-0.7-0.4-1.4-1.1-2-2.2C269.3,257.8,269,256.5,269,254.8L269,254.8z"
			/>
	</g>
	<g class="st2">
		<path class="st3" d="M272.8,252.7v-0.8h2l0.1,0.9c0.2-0.3,0.4-0.6,0.7-0.8c0.3-0.2,0.6-0.3,0.9-0.3c0.1,0,0.2,0,0.3,0
			c0.1,0,0.2,0,0.2,0l-0.2,1.1l-0.7,0c-0.3,0-0.6,0.1-0.8,0.2c-0.2,0.1-0.4,0.3-0.5,0.6v3.7l1,0.2v0.8h-3.1v-0.8l1-0.2v-4.6
			L272.8,252.7z"/>
	</g>
	<g class="st2">
		<path class="st3" d="M277.7,255.1c0-1,0.3-1.7,0.8-2.4c0.5-0.6,1.2-0.9,2.1-0.9c0.9,0,1.6,0.3,2.1,0.9c0.5,0.6,0.8,1.4,0.8,2.4
			v0.1c0,1-0.3,1.8-0.8,2.4c-0.5,0.6-1.2,0.9-2.1,0.9c-0.9,0-1.6-0.3-2.1-0.9c-0.5-0.6-0.8-1.4-0.8-2.4V255.1z M278.9,255.2
			c0,0.7,0.1,1.3,0.4,1.7c0.3,0.4,0.7,0.7,1.3,0.7c0.6,0,1-0.2,1.3-0.7s0.4-1,0.4-1.7v-0.1c0-0.7-0.1-1.2-0.4-1.7s-0.7-0.7-1.3-0.7
			c-0.6,0-1,0.2-1.3,0.7c-0.3,0.5-0.4,1-0.4,1.7V255.2z"/>
		<path class="st3" d="M284.6,255.1c0-1,0.3-1.7,0.8-2.4c0.5-0.6,1.2-0.9,2.1-0.9c0.9,0,1.6,0.3,2.1,0.9c0.5,0.6,0.8,1.4,0.8,2.4
			v0.1c0,1-0.3,1.8-0.8,2.4c-0.5,0.6-1.2,0.9-2.1,0.9c-0.9,0-1.6-0.3-2.1-0.9c-0.5-0.6-0.8-1.4-0.8-2.4V255.1z M285.8,255.2
			c0,0.7,0.1,1.3,0.4,1.7c0.3,0.4,0.7,0.7,1.3,0.7c0.6,0,1-0.2,1.3-0.7s0.4-1,0.4-1.7v-0.1c0-0.7-0.1-1.2-0.4-1.7s-0.7-0.7-1.3-0.7
			c-0.6,0-1,0.2-1.3,0.7c-0.3,0.5-0.4,1-0.4,1.7V255.2z"/>
		<path class="st3" d="M293.5,250.3v1.6h1.2v0.9h-1.2v3.9c0,0.3,0.1,0.5,0.2,0.6c0.1,0.1,0.3,0.2,0.5,0.2c0.1,0,0.2,0,0.3,0
			c0.1,0,0.2,0,0.3-0.1l0.2,0.8c-0.1,0.1-0.3,0.1-0.5,0.2c-0.2,0-0.4,0.1-0.6,0.1c-0.5,0-0.9-0.1-1.1-0.4c-0.3-0.3-0.4-0.7-0.4-1.4
			v-3.9h-1v-0.9h1v-1.6H293.5z"/>
		<path class="st3" d="M303.2,258.4c0-0.2-0.1-0.3-0.1-0.5c0-0.1,0-0.3,0-0.4c-0.2,0.3-0.5,0.5-0.9,0.7c-0.3,0.2-0.7,0.3-1.1,0.3
			c-0.7,0-1.2-0.2-1.5-0.5c-0.4-0.3-0.5-0.8-0.5-1.4c0-0.6,0.2-1.1,0.7-1.4c0.5-0.3,1.2-0.5,2-0.5h1.2v-0.8c0-0.4-0.1-0.7-0.4-0.9
			c-0.2-0.2-0.6-0.3-1-0.3c-0.3,0-0.6,0-0.8,0.1c-0.2,0.1-0.4,0.2-0.5,0.3l-0.1,0.7h-0.9v-1.3c0.3-0.2,0.7-0.4,1.1-0.6
			s0.9-0.2,1.4-0.2c0.7,0,1.3,0.2,1.8,0.6c0.5,0.4,0.7,0.9,0.7,1.6v3.1c0,0.1,0,0.2,0,0.2c0,0.1,0,0.2,0,0.2l0.5,0.1v0.8H303.2z
			 M301.3,257.5c0.4,0,0.7-0.1,1.1-0.3s0.6-0.4,0.7-0.7v-1.1h-1.3c-0.5,0-0.9,0.1-1.1,0.3c-0.3,0.2-0.4,0.5-0.4,0.8
			c0,0.3,0.1,0.5,0.3,0.6S301,257.5,301.3,257.5z"/>
		<path class="st3" d="M308.6,257.6c0.4,0,0.7-0.1,1-0.4s0.4-0.5,0.4-0.9h1.1l0,0c0,0.6-0.2,1.1-0.7,1.5c-0.5,0.4-1.1,0.6-1.8,0.6
			c-0.9,0-1.7-0.3-2.2-0.9c-0.5-0.6-0.7-1.4-0.7-2.3V255c0-0.9,0.2-1.7,0.7-2.3c0.5-0.6,1.2-0.9,2.2-0.9c0.5,0,1,0.1,1.4,0.3
			s0.8,0.4,1,0.7l0.1,1.4h-0.9l-0.3-1c-0.1-0.1-0.3-0.2-0.5-0.3c-0.2-0.1-0.5-0.1-0.7-0.1c-0.6,0-1.1,0.2-1.3,0.7
			c-0.3,0.4-0.4,1-0.4,1.6v0.3c0,0.7,0.1,1.2,0.4,1.7C307.6,257.3,308,257.6,308.6,257.6z"/>
		<path class="st3" d="M315.2,257.6c0.4,0,0.7-0.1,1-0.4s0.4-0.5,0.4-0.9h1.1l0,0c0,0.6-0.2,1.1-0.7,1.5c-0.5,0.4-1.1,0.6-1.8,0.6
			c-0.9,0-1.7-0.3-2.2-0.9c-0.5-0.6-0.7-1.4-0.7-2.3V255c0-0.9,0.2-1.7,0.7-2.3c0.5-0.6,1.2-0.9,2.2-0.9c0.5,0,1,0.1,1.4,0.3
			s0.8,0.4,1,0.7l0.1,1.4h-0.9l-0.3-1c-0.1-0.1-0.3-0.2-0.5-0.3c-0.2-0.1-0.5-0.1-0.7-0.1c-0.6,0-1.1,0.2-1.3,0.7
			c-0.3,0.4-0.4,1-0.4,1.6v0.3c0,0.7,0.1,1.2,0.4,1.7C314.2,257.3,314.6,257.6,315.2,257.6z"/>
		<path class="st3" d="M321.9,258.5c-0.9,0-1.6-0.3-2.1-0.9c-0.5-0.6-0.8-1.4-0.8-2.3V255c0-0.9,0.3-1.7,0.8-2.3
			c0.5-0.6,1.2-0.9,1.9-0.9c0.9,0,1.5,0.3,2,0.8c0.4,0.5,0.7,1.2,0.7,2.1v0.7h-4.2l0,0c0,0.6,0.2,1.1,0.5,1.5s0.7,0.6,1.3,0.6
			c0.4,0,0.7-0.1,1-0.2c0.3-0.1,0.6-0.3,0.8-0.5l0.5,0.8c-0.2,0.2-0.5,0.4-0.9,0.6S322.4,258.5,321.9,258.5z M321.7,252.7
			c-0.4,0-0.7,0.2-1,0.5c-0.3,0.3-0.5,0.8-0.5,1.3l0,0h3v-0.2c0-0.5-0.1-0.8-0.4-1.2C322.5,252.9,322.2,252.7,321.7,252.7z"/>
		<path class="st3" d="M330.4,253.9h-0.9l-0.2-0.8c-0.1-0.1-0.3-0.2-0.5-0.3c-0.2-0.1-0.5-0.1-0.7-0.1c-0.4,0-0.7,0.1-0.9,0.3
			s-0.3,0.4-0.3,0.7c0,0.3,0.1,0.5,0.3,0.6c0.2,0.1,0.5,0.3,1.1,0.4c0.8,0.2,1.4,0.4,1.8,0.7s0.6,0.7,0.6,1.2c0,0.6-0.2,1-0.7,1.4
			c-0.5,0.4-1.1,0.5-1.8,0.5c-0.5,0-0.9-0.1-1.3-0.2c-0.4-0.1-0.7-0.3-1-0.5l0-1.5h0.9l0.2,0.9c0.1,0.1,0.3,0.2,0.6,0.3
			c0.2,0.1,0.5,0.1,0.7,0.1c0.4,0,0.7-0.1,1-0.3c0.2-0.2,0.4-0.4,0.4-0.7c0-0.3-0.1-0.5-0.3-0.6c-0.2-0.2-0.6-0.3-1.1-0.4
			c-0.8-0.2-1.4-0.4-1.8-0.7s-0.6-0.7-0.6-1.2c0-0.5,0.2-1,0.7-1.3c0.4-0.4,1-0.6,1.7-0.6c0.5,0,0.9,0.1,1.3,0.2
			c0.4,0.1,0.7,0.3,1,0.5L330.4,253.9z"/>
		<path class="st3" d="M336.7,253.9h-0.9l-0.2-0.8c-0.1-0.1-0.3-0.2-0.5-0.3c-0.2-0.1-0.5-0.1-0.7-0.1c-0.4,0-0.7,0.1-0.9,0.3
			s-0.3,0.4-0.3,0.7c0,0.3,0.1,0.5,0.3,0.6c0.2,0.1,0.5,0.3,1.1,0.4c0.8,0.2,1.4,0.4,1.8,0.7s0.6,0.7,0.6,1.2c0,0.6-0.2,1-0.7,1.4
			c-0.5,0.4-1.1,0.5-1.8,0.5c-0.5,0-0.9-0.1-1.3-0.2c-0.4-0.1-0.7-0.3-1-0.5l0-1.5h0.9l0.2,0.9c0.1,0.1,0.3,0.2,0.6,0.3
			c0.2,0.1,0.5,0.1,0.7,0.1c0.4,0,0.7-0.1,1-0.3c0.2-0.2,0.4-0.4,0.4-0.7c0-0.3-0.1-0.5-0.3-0.6c-0.2-0.2-0.6-0.3-1.1-0.4
			c-0.8-0.2-1.4-0.4-1.8-0.7s-0.6-0.7-0.6-1.2c0-0.5,0.2-1,0.7-1.3c0.4-0.4,1-0.6,1.7-0.6c0.5,0,0.9,0.1,1.3,0.2
			c0.4,0.1,0.7,0.3,1,0.5L336.7,253.9z"/>
		<path class="st3" d="M340.7,254.9c0,1.6-0.3,2.9-1,4c-0.6,1.1-1.3,1.8-2,2.2h0l-0.2-0.6c0.5-0.4,1-1.1,1.4-2.1
			c0.4-1,0.6-2.1,0.6-3.5v-0.1c0-1.4-0.2-2.5-0.6-3.5s-0.9-1.7-1.4-2.1l0.2-0.6h0c0.7,0.4,1.4,1.1,2,2.2
			C340.4,251.9,340.7,253.3,340.7,254.9L340.7,254.9z"/>
	</g>
	<g class="st2">
		<path class="st3" d="M328.2,210.3l0.8-0.2v-4l-0.9-0.2v-1.1h2.6l0.1,0.9c0.2-0.3,0.5-0.6,0.8-0.8c0.3-0.2,0.7-0.3,1.1-0.3
			c0.7,0,1.2,0.2,1.5,0.6s0.5,1.1,0.5,1.9v2.8l0.8,0.2v1h-3.3v-1l0.7-0.2v-2.8c0-0.4-0.1-0.7-0.3-0.9c-0.2-0.2-0.4-0.3-0.8-0.3
			c-0.2,0-0.4,0-0.6,0.1c-0.2,0.1-0.3,0.2-0.5,0.4v3.5l0.7,0.2v1h-3.3V210.3z"/>
	</g>
	<g class="st2">
		<path class="st3" d="M336,208.1c0-1,0.3-1.8,0.8-2.4c0.5-0.6,1.3-0.9,2.2-0.9c1,0,1.7,0.3,2.2,0.9c0.5,0.6,0.8,1.4,0.8,2.4v0.1
			c0,1-0.3,1.8-0.8,2.4c-0.5,0.6-1.3,0.9-2.2,0.9c-1,0-1.7-0.3-2.3-0.9c-0.5-0.6-0.8-1.4-0.8-2.4V208.1z M337.7,208.2
			c0,0.6,0.1,1.1,0.3,1.4c0.2,0.4,0.5,0.5,1,0.5c0.5,0,0.8-0.2,1-0.5c0.2-0.4,0.3-0.8,0.3-1.4v-0.1c0-0.6-0.1-1-0.3-1.4
			c-0.2-0.4-0.5-0.5-1-0.5c-0.5,0-0.8,0.2-1,0.5c-0.2,0.4-0.3,0.8-0.3,1.4V208.2z"/>
		<path class="st3" d="M350,211.4c0-0.1-0.1-0.2-0.1-0.3c0-0.1-0.1-0.2-0.1-0.3c-0.2,0.2-0.5,0.4-0.8,0.6s-0.6,0.2-1,0.2
			c-0.6,0-1.1-0.2-1.5-0.5s-0.6-0.8-0.6-1.4c0-0.6,0.2-1.1,0.7-1.4c0.5-0.3,1.2-0.5,2.1-0.5h0.9V207c0-0.3-0.1-0.6-0.3-0.7
			c-0.2-0.2-0.4-0.3-0.8-0.3c-0.2,0-0.4,0-0.5,0.1c-0.2,0-0.3,0.1-0.4,0.2l-0.1,0.7h-1.3l0-1.4c0.3-0.2,0.7-0.4,1.1-0.5
			c0.4-0.1,0.9-0.2,1.3-0.2c0.8,0,1.5,0.2,2,0.6c0.5,0.4,0.8,1,0.8,1.7v2.7c0,0.1,0,0.2,0,0.3c0,0.1,0,0.2,0,0.3l0.5,0.1v1H350z
			 M348.4,210.2c0.3,0,0.5-0.1,0.7-0.2c0.2-0.1,0.4-0.3,0.5-0.4v-1h-0.9c-0.4,0-0.7,0.1-0.8,0.3s-0.3,0.4-0.3,0.6
			c0,0.2,0.1,0.4,0.2,0.5C348,210.2,348.2,210.2,348.4,210.2z"/>
		<path class="st3" d="M355.6,210.2c0.3,0,0.6-0.1,0.7-0.3c0.2-0.2,0.3-0.4,0.3-0.7h1.6l0,0c0,0.7-0.2,1.2-0.7,1.6
			c-0.5,0.4-1.1,0.7-1.9,0.7c-1,0-1.7-0.3-2.2-0.9c-0.5-0.6-0.8-1.4-0.8-2.3v-0.2c0-1,0.3-1.7,0.8-2.3c0.5-0.6,1.3-0.9,2.3-0.9
			c0.5,0,1,0.1,1.4,0.2c0.4,0.2,0.8,0.4,1,0.7l0,1.7h-1.4l-0.3-1c-0.1-0.1-0.2-0.1-0.3-0.2s-0.3-0.1-0.4-0.1c-0.5,0-0.8,0.2-1,0.5
			c-0.2,0.4-0.3,0.8-0.3,1.4v0.2c0,0.6,0.1,1,0.3,1.4C354.8,210,355.1,210.2,355.6,210.2z"/>
		<path class="st3" d="M362,210.2c0.3,0,0.6-0.1,0.7-0.3c0.2-0.2,0.3-0.4,0.3-0.7h1.6l0,0c0,0.7-0.2,1.2-0.7,1.6
			c-0.5,0.4-1.1,0.7-1.9,0.7c-1,0-1.7-0.3-2.2-0.9c-0.5-0.6-0.8-1.4-0.8-2.3v-0.2c0-1,0.3-1.7,0.8-2.3c0.5-0.6,1.3-0.9,2.3-0.9
			c0.5,0,1,0.1,1.4,0.2c0.4,0.2,0.8,0.4,1,0.7l0,1.7h-1.4l-0.3-1c-0.1-0.1-0.2-0.1-0.3-0.2s-0.3-0.1-0.4-0.1c-0.5,0-0.8,0.2-1,0.5
			c-0.2,0.4-0.3,0.8-0.3,1.4v0.2c0,0.6,0.1,1,0.3,1.4C361.2,210,361.6,210.2,362,210.2z"/>
		<path class="st3" d="M368.6,211.5c-0.9,0-1.7-0.3-2.2-0.9c-0.6-0.6-0.8-1.4-0.8-2.3v-0.2c0-1,0.3-1.8,0.8-2.4
			c0.5-0.6,1.2-0.9,2.1-0.9c0.9,0,1.5,0.3,2,0.8c0.5,0.5,0.7,1.2,0.7,2.1v1h-3.9l0,0c0,0.4,0.2,0.8,0.4,1.1c0.3,0.3,0.6,0.4,1,0.4
			c0.4,0,0.7,0,1-0.1c0.3-0.1,0.5-0.2,0.8-0.4l0.5,1.1c-0.3,0.2-0.6,0.4-1,0.5S369.1,211.5,368.6,211.5z M368.4,206.1
			c-0.3,0-0.6,0.1-0.8,0.4c-0.2,0.2-0.3,0.6-0.3,1l0,0h2.1v-0.2c0-0.4-0.1-0.7-0.3-0.9C369,206.2,368.8,206.1,368.4,206.1z"/>
		<path class="st3" d="M377.3,207.1h-1.2l-0.2-0.8c-0.1-0.1-0.3-0.2-0.5-0.2c-0.2-0.1-0.4-0.1-0.6-0.1c-0.3,0-0.5,0.1-0.7,0.2
			s-0.3,0.3-0.3,0.5c0,0.2,0.1,0.4,0.3,0.5c0.2,0.1,0.5,0.2,1,0.3c0.8,0.2,1.4,0.4,1.8,0.7s0.6,0.7,0.6,1.3c0,0.6-0.3,1.1-0.8,1.4
			c-0.5,0.4-1.2,0.6-2,0.6c-0.5,0-1-0.1-1.4-0.2s-0.8-0.4-1.1-0.6l0-1.5h1.2l0.2,0.8c0.1,0.1,0.2,0.2,0.4,0.2c0.2,0,0.4,0.1,0.6,0.1
			c0.4,0,0.6-0.1,0.8-0.2c0.2-0.1,0.3-0.3,0.3-0.5c0-0.2-0.1-0.4-0.3-0.5c-0.2-0.1-0.5-0.3-1-0.4c-0.8-0.2-1.3-0.4-1.7-0.7
			c-0.4-0.3-0.6-0.7-0.6-1.2c0-0.5,0.2-1,0.7-1.4s1.1-0.6,1.9-0.6c0.5,0,1,0.1,1.4,0.2s0.8,0.3,1.1,0.5L377.3,207.1z"/>
		<path class="st3" d="M383.6,207.1h-1.2l-0.2-0.8c-0.1-0.1-0.3-0.2-0.5-0.2s-0.4-0.1-0.6-0.1c-0.3,0-0.5,0.1-0.7,0.2
			c-0.2,0.1-0.3,0.3-0.3,0.5c0,0.2,0.1,0.4,0.3,0.5c0.2,0.1,0.5,0.2,1,0.3c0.8,0.2,1.4,0.4,1.8,0.7c0.4,0.3,0.6,0.7,0.6,1.3
			c0,0.6-0.3,1.1-0.8,1.4c-0.5,0.4-1.2,0.6-2,0.6c-0.5,0-1-0.1-1.4-0.2c-0.4-0.1-0.8-0.4-1.1-0.6l0-1.5h1.2l0.2,0.8
			c0.1,0.1,0.2,0.2,0.4,0.2s0.4,0.1,0.6,0.1c0.4,0,0.6-0.1,0.8-0.2c0.2-0.1,0.3-0.3,0.3-0.5c0-0.2-0.1-0.4-0.3-0.5
			c-0.2-0.1-0.5-0.3-1-0.4c-0.8-0.2-1.3-0.4-1.7-0.7s-0.6-0.7-0.6-1.2c0-0.5,0.2-1,0.7-1.4s1.1-0.6,1.9-0.6c0.5,0,1,0.1,1.4,0.2
			s0.8,0.3,1.1,0.5L383.6,207.1z"/>
	</g>
	<g class="st2">
		<path class="st3" d="M654,75.7c0.3-0.1,0.7-0.3,1.1-0.3c0.4-0.1,0.9-0.1,1.4-0.1c0.4,0,0.8,0,1,0.2c0.3,0.1,0.5,0.2,0.7,0.4
			s0.3,0.4,0.3,0.7s0.1,0.5,0.1,0.9c0,0.4,0,0.7,0,1.1c0,0.4,0,0.7,0,1c0,0.3,0,0.7,0,1c0,0.3,0.1,0.6,0.2,0.9h-1.3l-0.3-0.8h-0.1
			c-0.2,0.2-0.4,0.5-0.7,0.6c-0.3,0.2-0.7,0.3-1.1,0.3c-0.3,0-0.5,0-0.8-0.1c-0.2-0.1-0.4-0.2-0.6-0.4c-0.2-0.2-0.3-0.3-0.4-0.6
			c-0.1-0.2-0.1-0.4-0.1-0.7c0-0.4,0.1-0.7,0.2-0.9s0.4-0.5,0.7-0.6c0.3-0.2,0.7-0.3,1.1-0.3c0.4-0.1,0.9-0.1,1.4-0.1
			c0.1-0.4,0-0.8-0.1-1s-0.4-0.3-0.8-0.3c-0.3,0-0.6,0-1,0.1c-0.3,0.1-0.6,0.1-0.9,0.3L654,75.7z M656,80.2c0.3,0,0.6-0.1,0.7-0.2
			c0.2-0.1,0.3-0.3,0.4-0.4v-0.8c-0.2,0-0.5,0-0.7,0c-0.2,0-0.4,0.1-0.6,0.1c-0.2,0.1-0.3,0.1-0.4,0.2c-0.1,0.1-0.2,0.2-0.2,0.4
			c0,0.2,0.1,0.4,0.2,0.5S655.8,80.2,656,80.2z"/>
		<path class="st3" d="M660,75.4h1.1l0.2,0.7h0c0.2-0.3,0.5-0.5,0.7-0.7c0.3-0.1,0.6-0.2,1-0.2c0.8,0,1.3,0.2,1.7,0.7
			c0.4,0.5,0.6,1.2,0.6,2.3c0,0.5-0.1,1-0.2,1.4s-0.3,0.8-0.5,1s-0.5,0.5-0.9,0.7c-0.3,0.2-0.7,0.2-1.2,0.2c-0.2,0-0.5,0-0.6-0.1
			c-0.2,0-0.3-0.1-0.5-0.2v2.5H660V75.4z M662.7,76.5c-0.3,0-0.5,0.1-0.7,0.2c-0.2,0.2-0.3,0.4-0.4,0.7v2.5c0.1,0.1,0.2,0.2,0.4,0.2
			c0.1,0.1,0.3,0.1,0.5,0.1c0.4,0,0.8-0.2,1-0.5c0.2-0.3,0.3-0.8,0.3-1.6c0-0.5-0.1-0.9-0.3-1.2S663.1,76.5,662.7,76.5z"/>
		<path class="st3" d="M666.5,75.4h1.1l0.2,0.7h0c0.2-0.3,0.5-0.5,0.7-0.7c0.3-0.1,0.6-0.2,1-0.2c0.8,0,1.3,0.2,1.7,0.7
			c0.4,0.5,0.6,1.2,0.6,2.3c0,0.5-0.1,1-0.2,1.4c-0.1,0.4-0.3,0.8-0.5,1c-0.2,0.3-0.5,0.5-0.9,0.7c-0.3,0.2-0.7,0.2-1.2,0.2
			c-0.2,0-0.5,0-0.6-0.1s-0.3-0.1-0.5-0.2v2.5h-1.6V75.4z M669.2,76.5c-0.3,0-0.5,0.1-0.7,0.2c-0.2,0.2-0.3,0.4-0.4,0.7v2.5
			c0.1,0.1,0.2,0.2,0.4,0.2c0.1,0.1,0.3,0.1,0.5,0.1c0.4,0,0.8-0.2,1-0.5s0.3-0.8,0.3-1.6c0-0.5-0.1-0.9-0.3-1.2
			S669.6,76.5,669.2,76.5z"/>
		<path class="st3" d="M674.6,79.4c0,0.3,0,0.5,0.1,0.6s0.2,0.2,0.3,0.2c0.1,0,0.2,0,0.3,0c0.1,0,0.2-0.1,0.3-0.1l0.2,1.2
			c-0.1,0.1-0.3,0.1-0.6,0.2c-0.3,0.1-0.5,0.1-0.8,0.1c-0.5,0-0.8-0.1-1-0.3c-0.2-0.2-0.4-0.6-0.4-1V73h1.6V79.4z"/>
		<path class="st3" d="M676.4,73.7c0-0.2,0.1-0.4,0.3-0.6s0.4-0.2,0.7-0.2s0.5,0.1,0.7,0.2c0.2,0.2,0.3,0.4,0.3,0.6
			c0,0.2-0.1,0.4-0.3,0.6c-0.2,0.2-0.4,0.2-0.7,0.2s-0.5-0.1-0.7-0.2C676.5,74.1,676.4,73.9,676.4,73.7z M676.7,75.4h1.6v6h-1.6
			V75.4z"/>
		<path class="st3" d="M684,81c-0.2,0.2-0.5,0.3-0.9,0.4c-0.3,0.1-0.7,0.1-1,0.1c-0.5,0-0.9-0.1-1.2-0.2c-0.3-0.2-0.6-0.4-0.8-0.6
			c-0.2-0.3-0.4-0.6-0.5-1c-0.1-0.4-0.1-0.8-0.1-1.3c0-1,0.2-1.8,0.7-2.3s1.1-0.8,2-0.8c0.4,0,0.8,0,1.1,0.1
			c0.3,0.1,0.5,0.2,0.7,0.3l-0.4,1.3c-0.2-0.1-0.4-0.2-0.5-0.2s-0.4-0.1-0.6-0.1c-0.4,0-0.8,0.1-1,0.4c-0.2,0.3-0.3,0.7-0.3,1.4
			c0,0.3,0,0.5,0.1,0.7c0.1,0.2,0.1,0.4,0.3,0.6c0.1,0.2,0.3,0.3,0.4,0.4s0.4,0.1,0.6,0.1c0.3,0,0.5,0,0.7-0.1
			c0.2-0.1,0.3-0.1,0.5-0.2L684,81z"/>
		<path class="st3" d="M684.9,75.7c0.3-0.1,0.7-0.3,1.1-0.3c0.4-0.1,0.9-0.1,1.4-0.1c0.4,0,0.8,0,1,0.2c0.3,0.1,0.5,0.2,0.7,0.4
			s0.3,0.4,0.3,0.7s0.1,0.5,0.1,0.9c0,0.4,0,0.7,0,1.1c0,0.4,0,0.7,0,1c0,0.3,0,0.7,0,1c0,0.3,0.1,0.6,0.2,0.9h-1.3l-0.3-0.8h-0.1
			c-0.2,0.2-0.4,0.5-0.7,0.6c-0.3,0.2-0.7,0.3-1.1,0.3c-0.3,0-0.5,0-0.8-0.1c-0.2-0.1-0.4-0.2-0.6-0.4c-0.2-0.2-0.3-0.3-0.4-0.6
			c-0.1-0.2-0.1-0.4-0.1-0.7c0-0.4,0.1-0.7,0.2-0.9s0.4-0.5,0.7-0.6c0.3-0.2,0.7-0.3,1.1-0.3c0.4-0.1,0.9-0.1,1.4-0.1
			c0.1-0.4,0-0.8-0.1-1s-0.4-0.3-0.8-0.3c-0.3,0-0.6,0-1,0.1c-0.3,0.1-0.6,0.1-0.9,0.3L684.9,75.7z M686.9,80.2
			c0.3,0,0.6-0.1,0.7-0.2c0.2-0.1,0.3-0.3,0.4-0.4v-0.8c-0.2,0-0.5,0-0.7,0c-0.2,0-0.4,0.1-0.6,0.1c-0.2,0.1-0.3,0.1-0.4,0.2
			c-0.1,0.1-0.2,0.2-0.2,0.4c0,0.2,0.1,0.4,0.2,0.5S686.7,80.2,686.9,80.2z"/>
		<path class="st3" d="M690.3,75.4h0.8v-1.1l1.6-0.4v1.6h1.5v1.3h-1.5V79c0,0.4,0,0.7,0.1,0.9c0.1,0.2,0.2,0.3,0.5,0.3
			c0.2,0,0.3,0,0.4,0c0.1,0,0.2-0.1,0.4-0.1l0.3,1.2c-0.2,0.1-0.5,0.2-0.8,0.3c-0.3,0.1-0.6,0.1-0.9,0.1c-0.6,0-1-0.1-1.2-0.4
			c-0.3-0.3-0.4-0.8-0.4-1.4v-3h-0.8V75.4z"/>
		<path class="st3" d="M695,73.7c0-0.2,0.1-0.4,0.3-0.6c0.2-0.2,0.4-0.2,0.7-0.2c0.3,0,0.5,0.1,0.7,0.2c0.2,0.2,0.3,0.4,0.3,0.6
			c0,0.2-0.1,0.4-0.3,0.6c-0.2,0.2-0.4,0.2-0.7,0.2c-0.3,0-0.5-0.1-0.7-0.2C695.1,74.1,695,73.9,695,73.7z M695.2,75.4h1.6v6h-1.6
			V75.4z"/>
		<path class="st3" d="M698,78.4c0-1,0.2-1.8,0.7-2.3s1.2-0.8,2.1-0.8c0.5,0,0.9,0.1,1.2,0.2c0.4,0.2,0.6,0.4,0.9,0.6
			c0.2,0.3,0.4,0.6,0.5,1c0.1,0.4,0.2,0.8,0.2,1.3c0,1-0.2,1.8-0.7,2.3c-0.5,0.5-1.2,0.8-2.1,0.8c-0.5,0-0.9-0.1-1.2-0.2
			c-0.4-0.2-0.6-0.4-0.9-0.6c-0.2-0.3-0.4-0.6-0.5-1C698.1,79.3,698,78.9,698,78.4z M699.6,78.4c0,0.3,0,0.5,0.1,0.7
			c0,0.2,0.1,0.4,0.2,0.6c0.1,0.2,0.2,0.3,0.4,0.4s0.3,0.1,0.6,0.1c0.4,0,0.7-0.1,0.9-0.4s0.3-0.8,0.3-1.4c0-0.6-0.1-1-0.3-1.3
			c-0.2-0.3-0.5-0.5-0.9-0.5c-0.4,0-0.7,0.1-0.9,0.4C699.7,77.3,699.6,77.7,699.6,78.4z"/>
		<path class="st3" d="M708.4,81.4V78c0-0.5-0.1-0.8-0.2-1.1c-0.1-0.2-0.4-0.3-0.7-0.3c-0.3,0-0.5,0.1-0.8,0.3
			c-0.2,0.2-0.4,0.4-0.4,0.6v3.9h-1.6v-6h1.2l0.2,0.8h0c0.2-0.3,0.4-0.5,0.7-0.7c0.3-0.2,0.7-0.3,1.2-0.3c0.3,0,0.6,0,0.8,0.1
			c0.2,0.1,0.4,0.2,0.6,0.4c0.2,0.2,0.3,0.4,0.4,0.8c0.1,0.3,0.1,0.7,0.1,1.2v3.7H708.4z"/>
	</g>
	<g class="st2">
		<path class="st3" d="M657.2,90.7c-0.2-0.1-0.5-0.1-0.7-0.1c-0.3,0-0.6,0.1-0.8,0.3c-0.2,0.2-0.3,0.4-0.4,0.7v4.2h-1v-6h0.7
			l0.2,0.7h0c0.2-0.3,0.3-0.5,0.5-0.6c0.2-0.1,0.5-0.2,0.8-0.2c0.2,0,0.5,0,0.8,0.1L657.2,90.7z"/>
		<path class="st3" d="M659.3,89.8v3.4c0,0.3,0,0.6,0.1,0.8s0.1,0.4,0.2,0.6s0.2,0.3,0.4,0.4c0.2,0.1,0.3,0.1,0.6,0.1
			c0.2,0,0.4,0,0.6-0.1s0.3-0.2,0.5-0.3c0.1-0.1,0.2-0.3,0.3-0.4c0.1-0.2,0.2-0.3,0.2-0.5v-4h1v4.3c0,0.3,0,0.6,0,0.9
			c0,0.3,0.1,0.6,0.1,0.8h-0.7l-0.2-0.9h-0.1c-0.2,0.3-0.4,0.6-0.7,0.8c-0.3,0.2-0.7,0.3-1.2,0.3c-0.3,0-0.6,0-0.8-0.1
			c-0.2-0.1-0.4-0.2-0.6-0.4c-0.2-0.2-0.3-0.5-0.4-0.8c-0.1-0.3-0.1-0.7-0.1-1.2v-3.6H659.3z"/>
		<path class="st3" d="M668.7,95.8v-3.4c0-0.6-0.1-1.1-0.3-1.4c-0.2-0.3-0.5-0.5-1-0.5c-0.4,0-0.8,0.1-1,0.3
			c-0.3,0.2-0.5,0.5-0.6,0.9v4.1h-1v-6h0.7l0.2,0.7h0c0.2-0.3,0.4-0.5,0.8-0.6c0.3-0.2,0.7-0.2,1.2-0.2c0.3,0,0.6,0,0.9,0.1
			c0.2,0.1,0.5,0.2,0.6,0.4s0.3,0.5,0.4,0.8c0.1,0.3,0.1,0.7,0.1,1.2v3.6H668.7z"/>
		<path class="st3" d="M674.1,94.2c0-0.2-0.1-0.4-0.2-0.6c-0.1-0.1-0.3-0.3-0.5-0.3s-0.4-0.2-0.7-0.3s-0.5-0.2-0.7-0.3
			s-0.4-0.3-0.5-0.5c-0.1-0.2-0.2-0.5-0.2-0.8c0-0.6,0.2-1,0.5-1.3c0.3-0.3,0.8-0.4,1.4-0.4c0.4,0,0.8,0,1.1,0.1
			c0.3,0.1,0.5,0.2,0.8,0.3l-0.2,0.8c-0.2-0.1-0.4-0.2-0.7-0.2c-0.3-0.1-0.5-0.1-0.8-0.1c-0.4,0-0.6,0.1-0.8,0.2s-0.2,0.3-0.2,0.6
			c0,0.2,0.1,0.4,0.2,0.5c0.1,0.1,0.3,0.2,0.5,0.3s0.4,0.2,0.7,0.3s0.5,0.2,0.7,0.3s0.4,0.3,0.5,0.5c0.1,0.2,0.2,0.5,0.2,0.9
			c0,0.3,0,0.5-0.1,0.7c-0.1,0.2-0.2,0.4-0.4,0.6c-0.2,0.2-0.4,0.3-0.7,0.4c-0.3,0.1-0.6,0.1-0.9,0.1c-0.5,0-0.8,0-1.2-0.1
			c-0.3-0.1-0.6-0.2-0.8-0.3l0.3-0.8c0.2,0.1,0.4,0.2,0.7,0.3s0.6,0.1,0.9,0.1c0.3,0,0.6-0.1,0.9-0.2
			C674,94.8,674.1,94.5,674.1,94.2z"/>
		<path class="st3" d="M679.7,88c0-0.2,0.1-0.3,0.2-0.5s0.3-0.2,0.5-0.2c0.2,0,0.4,0.1,0.5,0.2s0.2,0.3,0.2,0.5
			c0,0.2-0.1,0.3-0.2,0.5s-0.3,0.2-0.5,0.2c-0.2,0-0.3-0.1-0.5-0.2S679.7,88.2,679.7,88z M679.9,89.8h1v6h-1V89.8z"/>
		<path class="st3" d="M686.8,95.8v-3.4c0-0.6-0.1-1.1-0.3-1.4c-0.2-0.3-0.5-0.5-1-0.5c-0.4,0-0.8,0.1-1.1,0.3
			c-0.3,0.2-0.5,0.5-0.6,0.9v4.1h-1v-6h0.7l0.2,0.7h0c0.2-0.3,0.5-0.5,0.8-0.6c0.3-0.2,0.7-0.2,1.2-0.2c0.3,0,0.6,0,0.9,0.1
			c0.2,0.1,0.5,0.2,0.6,0.4s0.3,0.5,0.4,0.8c0.1,0.3,0.1,0.7,0.1,1.2v3.6H686.8z"/>
		<path class="st3" d="M692.1,94.2c0-0.2-0.1-0.4-0.2-0.6c-0.1-0.1-0.3-0.3-0.5-0.3s-0.4-0.2-0.7-0.3s-0.5-0.2-0.7-0.3
			s-0.4-0.3-0.5-0.5c-0.1-0.2-0.2-0.5-0.2-0.8c0-0.6,0.2-1,0.5-1.3c0.3-0.3,0.8-0.4,1.4-0.4c0.4,0,0.8,0,1.1,0.1
			c0.3,0.1,0.5,0.2,0.8,0.3l-0.2,0.8c-0.2-0.1-0.4-0.2-0.7-0.2c-0.3-0.1-0.5-0.1-0.8-0.1c-0.4,0-0.6,0.1-0.8,0.2s-0.2,0.3-0.2,0.6
			c0,0.2,0.1,0.4,0.2,0.5c0.1,0.1,0.3,0.2,0.5,0.3s0.4,0.2,0.7,0.3s0.5,0.2,0.7,0.3s0.4,0.3,0.5,0.5c0.1,0.2,0.2,0.5,0.2,0.9
			c0,0.3,0,0.5-0.1,0.7c-0.1,0.2-0.2,0.4-0.4,0.6s-0.4,0.3-0.7,0.4s-0.6,0.1-0.9,0.1c-0.5,0-0.8,0-1.2-0.1c-0.3-0.1-0.6-0.2-0.8-0.3
			l0.3-0.8c0.2,0.1,0.4,0.2,0.7,0.3s0.6,0.1,0.9,0.1c0.3,0,0.6-0.1,0.9-0.2C692,94.8,692.1,94.5,692.1,94.2z"/>
		<path class="st3" d="M694.5,88c0-0.2,0.1-0.3,0.2-0.5s0.3-0.2,0.5-0.2c0.2,0,0.4,0.1,0.5,0.2c0.1,0.1,0.2,0.3,0.2,0.5
			c0,0.2-0.1,0.3-0.2,0.5c-0.1,0.1-0.3,0.2-0.5,0.2c-0.2,0-0.4-0.1-0.5-0.2S694.5,88.2,694.5,88z M694.7,89.8h1v6h-1V89.8z"/>
		<path class="st3" d="M702.3,93.7c0,0.4,0,0.8,0,1.1s0,0.7,0.1,1h-0.6l-0.2-0.9h0c-0.2,0.3-0.4,0.5-0.7,0.7
			c-0.3,0.2-0.7,0.3-1.1,0.3c-0.8,0-1.4-0.3-1.8-0.8c-0.4-0.5-0.6-1.3-0.6-2.4c0-1,0.2-1.8,0.7-2.3c0.5-0.5,1.2-0.8,2-0.8
			c0.3,0,0.5,0,0.7,0c0.2,0,0.4,0.1,0.6,0.2v-2.5h1V93.7z M699.9,95.1c0.4,0,0.7-0.1,1-0.3c0.2-0.2,0.4-0.5,0.5-1v-3
			c-0.1-0.1-0.3-0.2-0.5-0.2c-0.2,0-0.4-0.1-0.7-0.1c-0.6,0-1,0.2-1.3,0.5s-0.5,0.9-0.5,1.7c0,0.3,0,0.6,0.1,0.9
			c0.1,0.3,0.1,0.5,0.3,0.7s0.3,0.4,0.5,0.5S699.6,95.1,699.9,95.1z"/>
		<path class="st3" d="M708.6,95.3c-0.2,0.2-0.5,0.3-0.9,0.5c-0.4,0.1-0.8,0.2-1.2,0.2c-0.5,0-0.9-0.1-1.2-0.2
			c-0.3-0.1-0.6-0.4-0.8-0.6c-0.2-0.3-0.4-0.6-0.5-1c-0.1-0.4-0.2-0.8-0.2-1.3c0-1,0.2-1.8,0.7-2.3s1.1-0.8,2-0.8
			c0.3,0,0.5,0,0.8,0.1c0.3,0.1,0.5,0.2,0.7,0.3c0.2,0.2,0.4,0.4,0.5,0.7c0.1,0.3,0.2,0.7,0.2,1.2c0,0.3,0,0.6-0.1,0.9h-3.9
			c0,0.4,0,0.7,0.1,0.9c0.1,0.3,0.2,0.5,0.3,0.7c0.2,0.2,0.4,0.3,0.6,0.4c0.2,0.1,0.5,0.1,0.9,0.1c0.3,0,0.5,0,0.8-0.1
			c0.3-0.1,0.5-0.2,0.6-0.3L708.6,95.3z M706.5,90.5c-0.5,0-0.9,0.1-1.1,0.4s-0.5,0.7-0.5,1.3h3c0-0.6-0.1-1-0.3-1.3
			C707.3,90.6,706.9,90.5,706.5,90.5z"/>
	</g>
	<g class="st2">
		<path class="st3" d="M658.2,108.1c0-0.3-0.1-0.6-0.3-0.8s-0.5-0.4-0.8-0.6c-0.3-0.2-0.6-0.3-1-0.5c-0.4-0.1-0.7-0.3-1-0.5
			s-0.5-0.5-0.8-0.8s-0.3-0.7-0.3-1.1c0-0.7,0.2-1.2,0.7-1.6s1.1-0.6,1.9-0.6c0.5,0,0.9,0,1.3,0.1c0.4,0.1,0.7,0.2,0.9,0.3l-0.3,0.9
			c-0.2-0.1-0.5-0.2-0.8-0.3c-0.4-0.1-0.8-0.1-1.2-0.1c-0.5,0-0.9,0.1-1.2,0.4c-0.3,0.2-0.4,0.5-0.4,0.8c0,0.3,0.1,0.6,0.3,0.8
			c0.2,0.2,0.5,0.4,0.8,0.6s0.6,0.3,1,0.5c0.4,0.2,0.7,0.3,1,0.6s0.5,0.5,0.8,0.8s0.3,0.7,0.3,1.1c0,0.4-0.1,0.7-0.2,1
			c-0.1,0.3-0.3,0.5-0.6,0.7s-0.5,0.4-0.9,0.5c-0.4,0.1-0.8,0.2-1.2,0.2c-0.6,0-1.1,0-1.5-0.1c-0.4-0.1-0.7-0.2-0.9-0.3l0.3-0.9
			c0.2,0.1,0.5,0.2,0.8,0.3c0.4,0.1,0.8,0.1,1.2,0.1c0.3,0,0.5,0,0.7-0.1c0.2-0.1,0.4-0.1,0.6-0.3c0.2-0.1,0.3-0.3,0.4-0.4
			C658.2,108.5,658.2,108.3,658.2,108.1z"/>
		<path class="st3" d="M663.6,106h2.8v3.7c-0.1,0.1-0.3,0.2-0.5,0.3c-0.2,0.1-0.4,0.1-0.6,0.2c-0.2,0.1-0.4,0.1-0.6,0.1
			c-0.2,0-0.4,0-0.6,0c-0.5,0-1-0.1-1.5-0.3s-0.8-0.4-1.2-0.8c-0.3-0.4-0.6-0.8-0.8-1.4c-0.2-0.5-0.3-1.2-0.3-1.9
			c0-0.8,0.1-1.4,0.3-2c0.2-0.6,0.5-1,0.9-1.3s0.8-0.6,1.2-0.8s0.9-0.2,1.3-0.2c0.5,0,0.9,0,1.2,0.1c0.3,0.1,0.6,0.1,0.8,0.2
			l-0.3,0.9c-0.4-0.2-0.9-0.3-1.6-0.3c-0.3,0-0.7,0.1-1,0.2c-0.3,0.1-0.6,0.3-0.9,0.6c-0.3,0.3-0.5,0.6-0.6,1.1
			c-0.2,0.4-0.3,1-0.3,1.6c0,0.6,0.1,1.1,0.2,1.5c0.1,0.4,0.3,0.8,0.6,1.1c0.2,0.3,0.5,0.5,0.9,0.6c0.3,0.1,0.7,0.2,1.1,0.2
			c0.5,0,0.9-0.1,1.3-0.3v-2.3l-2-0.2V106z"/>
	</g>
	<g class="st2">
		<path class="st3" d="M670.2,105.9l-2.6-4.1h1.2l1.7,2.8l0.3,0.7l0.3-0.7l1.8-2.8h1.1l-2.6,4l2.8,4.4H673l-1.9-3l-0.3-0.7l-0.3,0.7
			l-1.9,3h-1.1L670.2,105.9z"/>
	</g>
	<g class="st2">
		<path class="st3" d="M682.7,109.7c-0.2,0.2-0.5,0.3-0.9,0.5c-0.4,0.1-0.8,0.2-1.2,0.2c-0.5,0-0.9-0.1-1.2-0.2
			c-0.3-0.1-0.6-0.4-0.8-0.6c-0.2-0.3-0.4-0.6-0.5-1s-0.2-0.8-0.2-1.3c0-1,0.2-1.8,0.7-2.3s1.1-0.8,2-0.8c0.3,0,0.5,0,0.8,0.1
			c0.3,0.1,0.5,0.2,0.7,0.3s0.4,0.4,0.5,0.7c0.1,0.3,0.2,0.7,0.2,1.2c0,0.3,0,0.6-0.1,0.9H679c0,0.4,0,0.7,0.1,0.9
			c0.1,0.3,0.2,0.5,0.3,0.7c0.2,0.2,0.3,0.3,0.6,0.4c0.2,0.1,0.5,0.1,0.9,0.1c0.3,0,0.5,0,0.8-0.1c0.3-0.1,0.5-0.2,0.6-0.3
			L682.7,109.7z M680.6,104.9c-0.5,0-0.9,0.1-1.1,0.4c-0.3,0.2-0.5,0.7-0.5,1.3h3c0-0.6-0.1-1-0.3-1.3
			C681.4,105,681,104.9,680.6,104.9z"/>
		<path class="st3" d="M688.2,110.2v-3.4c0-0.6-0.1-1.1-0.3-1.4c-0.2-0.3-0.5-0.5-1-0.5c-0.4,0-0.8,0.1-1.1,0.3
			c-0.3,0.2-0.5,0.5-0.6,0.9v4.1h-1v-6h0.7l0.2,0.7h0c0.2-0.3,0.5-0.5,0.8-0.6c0.3-0.2,0.7-0.2,1.2-0.2c0.3,0,0.6,0,0.9,0.1
			c0.2,0.1,0.5,0.2,0.6,0.4s0.3,0.5,0.4,0.8c0.1,0.3,0.1,0.7,0.1,1.2v3.6H688.2z"/>
		<path class="st3" d="M695,109.8c-0.2,0.2-0.5,0.3-0.9,0.4c-0.3,0.1-0.7,0.1-1,0.1c-0.5,0-0.9-0.1-1.2-0.2
			c-0.3-0.1-0.6-0.4-0.8-0.6c-0.2-0.3-0.4-0.6-0.4-1s-0.1-0.8-0.1-1.3c0-1,0.2-1.8,0.7-2.3s1.1-0.8,1.9-0.8c0.4,0,0.7,0,1,0.1
			c0.3,0.1,0.5,0.1,0.7,0.3l-0.3,0.8c-0.2-0.1-0.4-0.2-0.6-0.2c-0.2-0.1-0.5-0.1-0.7-0.1c-1.1,0-1.7,0.8-1.7,2.3
			c0,0.3,0,0.6,0.1,0.9c0.1,0.3,0.2,0.5,0.3,0.7c0.1,0.2,0.3,0.4,0.6,0.5c0.2,0.1,0.5,0.2,0.8,0.2c0.3,0,0.5,0,0.8-0.1
			c0.2-0.1,0.4-0.2,0.6-0.3L695,109.8z"/>
		<path class="st3" d="M697.4,108.7c0,0.3,0,0.5,0.1,0.6s0.2,0.2,0.4,0.2c0.1,0,0.2,0,0.3,0c0.1,0,0.3-0.1,0.4-0.1l0.1,0.8
			c-0.1,0.1-0.3,0.1-0.5,0.2c-0.2,0-0.4,0.1-0.6,0.1c-0.4,0-0.7-0.1-0.9-0.3c-0.2-0.2-0.3-0.5-0.3-1v-7.2h1V108.7z"/>
		<path class="st3" d="M699.8,104.6c0.3-0.2,0.7-0.3,1.1-0.4s0.8-0.1,1.3-0.1c0.4,0,0.8,0.1,1,0.2c0.3,0.1,0.4,0.3,0.6,0.4
			c0.1,0.2,0.2,0.4,0.3,0.6c0,0.2,0.1,0.4,0.1,0.6c0,0.5,0,0.9,0,1.4c0,0.5,0,0.9,0,1.3c0,0.3,0,0.6,0,0.8c0,0.3,0.1,0.5,0.1,0.7
			h-0.7l-0.3-0.8h-0.1c-0.1,0.1-0.2,0.2-0.3,0.3c-0.1,0.1-0.2,0.2-0.4,0.3c-0.2,0.1-0.3,0.2-0.5,0.2c-0.2,0.1-0.4,0.1-0.7,0.1
			s-0.5,0-0.7-0.1c-0.2-0.1-0.4-0.2-0.6-0.3c-0.2-0.1-0.3-0.3-0.4-0.5c-0.1-0.2-0.1-0.4-0.1-0.7c0-0.4,0.1-0.6,0.2-0.9
			c0.1-0.2,0.3-0.4,0.6-0.6c0.3-0.1,0.6-0.2,0.9-0.3c0.4-0.1,0.8-0.1,1.2-0.1c0.1,0,0.2,0,0.3,0s0.2,0,0.3,0c0-0.2,0-0.5,0-0.6
			c0-0.4-0.1-0.7-0.3-0.9c-0.2-0.2-0.5-0.3-1-0.3c-0.1,0-0.3,0-0.4,0c-0.2,0-0.3,0-0.5,0.1s-0.3,0.1-0.5,0.1
			c-0.1,0.1-0.3,0.1-0.4,0.2L699.8,104.6z M701.5,109.4c0.2,0,0.4,0,0.6-0.1s0.3-0.1,0.5-0.2c0.1-0.1,0.2-0.2,0.3-0.3
			c0.1-0.1,0.1-0.2,0.2-0.3v-1c-0.1,0-0.2,0-0.3,0c-0.1,0-0.2,0-0.3,0c-0.2,0-0.5,0-0.7,0s-0.4,0.1-0.6,0.2s-0.3,0.2-0.4,0.3
			c-0.1,0.1-0.2,0.3-0.2,0.5c0,0.3,0.1,0.5,0.3,0.7C700.9,109.4,701.2,109.4,701.5,109.4z"/>
	</g>
	<g class="st2">
		<path class="st3" d="M707.6,107.7l0.3,1.1h0l0.3-1.2l1.3-3.5h1l-2.6,6.1h-0.4l-2.6-6.1h1.1L707.6,107.7z"/>
	</g>
	<g class="st2">
		<path class="st3" d="M715.9,109.7c-0.2,0.2-0.5,0.3-0.9,0.5c-0.4,0.1-0.8,0.2-1.2,0.2c-0.5,0-0.9-0.1-1.2-0.2
			c-0.3-0.1-0.6-0.4-0.8-0.6c-0.2-0.3-0.4-0.6-0.5-1s-0.2-0.8-0.2-1.3c0-1,0.2-1.8,0.7-2.3s1.1-0.8,2-0.8c0.3,0,0.5,0,0.8,0.1
			c0.3,0.1,0.5,0.2,0.7,0.3s0.4,0.4,0.5,0.7c0.1,0.3,0.2,0.7,0.2,1.2c0,0.3,0,0.6-0.1,0.9h-3.9c0,0.4,0,0.7,0.1,0.9
			c0.1,0.3,0.2,0.5,0.3,0.7c0.2,0.2,0.3,0.3,0.6,0.4c0.2,0.1,0.5,0.1,0.9,0.1c0.3,0,0.5,0,0.8-0.1c0.3-0.1,0.5-0.2,0.6-0.3
			L715.9,109.7z M713.8,104.9c-0.5,0-0.9,0.1-1.1,0.4c-0.3,0.2-0.5,0.7-0.5,1.3h3c0-0.6-0.1-1-0.3-1.3
			C714.5,105,714.2,104.9,713.8,104.9z"/>
	</g>
	<g class="st2">
		<path class="st3" d="M653.8,219.6c0-1,0.2-1.8,0.7-2.3s1.2-0.8,2.1-0.8c0.5,0,0.9,0.1,1.2,0.2c0.4,0.2,0.6,0.4,0.9,0.6
			c0.2,0.3,0.4,0.6,0.5,1c0.1,0.4,0.2,0.8,0.2,1.3c0,1-0.2,1.8-0.7,2.3c-0.5,0.5-1.2,0.8-2.1,0.8c-0.5,0-0.9-0.1-1.2-0.2
			c-0.4-0.2-0.6-0.4-0.9-0.6c-0.2-0.3-0.4-0.6-0.5-1C653.9,220.5,653.8,220.1,653.8,219.6z M655.4,219.6c0,0.3,0,0.5,0.1,0.7
			c0,0.2,0.1,0.4,0.2,0.6c0.1,0.2,0.2,0.3,0.4,0.4s0.3,0.1,0.6,0.1c0.4,0,0.7-0.1,0.9-0.4s0.3-0.8,0.3-1.4c0-0.6-0.1-1-0.3-1.3
			c-0.2-0.3-0.5-0.5-0.9-0.5c-0.4,0-0.7,0.1-0.9,0.4C655.5,218.5,655.4,218.9,655.4,219.6z"/>
		<path class="st3" d="M664.2,222.6v-3.4c0-0.5-0.1-0.8-0.2-1.1c-0.1-0.2-0.4-0.3-0.7-0.3c-0.3,0-0.5,0.1-0.8,0.3
			c-0.2,0.2-0.4,0.4-0.4,0.6v3.9h-1.6v-6h1.2l0.2,0.8h0c0.2-0.3,0.4-0.5,0.7-0.7c0.3-0.2,0.7-0.3,1.2-0.3c0.3,0,0.6,0,0.8,0.1
			c0.2,0.1,0.4,0.2,0.6,0.4c0.2,0.2,0.3,0.4,0.4,0.8c0.1,0.3,0.1,0.7,0.1,1.2v3.7H664.2z"/>
		<path class="st3" d="M668.7,220.6c0,0.3,0,0.5,0.1,0.6s0.2,0.2,0.3,0.2c0.1,0,0.2,0,0.3,0c0.1,0,0.2-0.1,0.3-0.1l0.2,1.2
			c-0.1,0.1-0.3,0.1-0.6,0.2c-0.3,0.1-0.5,0.1-0.8,0.1c-0.5,0-0.8-0.1-1-0.3c-0.2-0.2-0.4-0.6-0.4-1v-7.2h1.6V220.6z"/>
	</g>
	<g class="st2">
		<path class="st3" d="M672.8,220l0.2,0.9h0.1l0.2-0.9l0.9-3.4h1.6l-1.8,5.4c-0.2,0.4-0.3,0.9-0.4,1.2c-0.1,0.4-0.3,0.7-0.5,1
			c-0.2,0.3-0.4,0.5-0.6,0.6c-0.2,0.1-0.4,0.2-0.7,0.2c-0.4,0-0.7-0.1-1-0.2l0.3-1.2c0.1,0,0.2,0.1,0.4,0.1c0.2,0,0.4-0.1,0.5-0.2
			c0.2-0.2,0.3-0.4,0.4-0.8l-2.5-6h1.9L672.8,220z"/>
	</g>
	<g class="st2">
		<path class="st3" d="M678.3,216.6h0.8v-1.1l1.6-0.4v1.6h1.5v1.3h-1.5v2.3c0,0.4,0,0.7,0.1,0.9c0.1,0.2,0.2,0.3,0.5,0.3
			c0.2,0,0.3,0,0.4,0s0.2-0.1,0.4-0.1l0.3,1.2c-0.2,0.1-0.5,0.2-0.8,0.3c-0.3,0.1-0.6,0.1-0.9,0.1c-0.6,0-1-0.1-1.2-0.4
			c-0.3-0.3-0.4-0.8-0.4-1.4v-3h-0.8V216.6z"/>
		<path class="st3" d="M686.8,222.6v-3.4c0-0.5-0.1-0.8-0.2-1.1s-0.4-0.3-0.7-0.3c-0.3,0-0.5,0.1-0.7,0.3c-0.2,0.2-0.4,0.4-0.4,0.7
			v3.8h-1.6v-8.4h1.6v3.1h0c0.2-0.3,0.4-0.5,0.7-0.6c0.3-0.2,0.6-0.2,1.1-0.2c0.3,0,0.6,0,0.8,0.1s0.4,0.2,0.6,0.4
			c0.2,0.2,0.3,0.4,0.3,0.8c0.1,0.3,0.1,0.7,0.1,1.2v3.7H686.8z"/>
		<path class="st3" d="M694.5,222.1c-0.2,0.2-0.6,0.4-1,0.5s-0.8,0.2-1.3,0.2c-1,0-1.7-0.3-2.1-0.8c-0.4-0.6-0.7-1.3-0.7-2.3
			c0-1.1,0.3-1.8,0.8-2.4s1.2-0.8,2.1-0.8c0.3,0,0.6,0,0.9,0.1s0.5,0.2,0.8,0.4c0.2,0.2,0.4,0.4,0.5,0.7c0.1,0.3,0.2,0.7,0.2,1.2
			c0,0.2,0,0.3,0,0.5c0,0.2,0,0.4-0.1,0.6H691c0,0.5,0.2,0.9,0.4,1.1c0.2,0.3,0.6,0.4,1.1,0.4c0.3,0,0.6,0,0.9-0.2
			c0.3-0.1,0.5-0.2,0.6-0.3L694.5,222.1z M692.2,217.7c-0.4,0-0.7,0.1-0.9,0.4c-0.2,0.2-0.3,0.6-0.4,1h2.2c0-0.4,0-0.8-0.2-1
			C692.8,217.8,692.6,217.7,692.2,217.7z"/>
	</g>
	<g class="st2">
		<path class="st3" d="M654,231.3c0.3-0.1,0.7-0.3,1.1-0.3c0.4-0.1,0.9-0.1,1.4-0.1c0.4,0,0.8,0,1,0.2c0.3,0.1,0.5,0.2,0.7,0.4
			s0.3,0.4,0.3,0.7s0.1,0.5,0.1,0.9c0,0.4,0,0.7,0,1.1c0,0.4,0,0.7,0,1c0,0.3,0,0.7,0,1c0,0.3,0.1,0.6,0.2,0.9h-1.3l-0.3-0.8h-0.1
			c-0.2,0.2-0.4,0.5-0.7,0.6c-0.3,0.2-0.7,0.3-1.1,0.3c-0.3,0-0.5,0-0.8-0.1c-0.2-0.1-0.4-0.2-0.6-0.4c-0.2-0.2-0.3-0.3-0.4-0.6
			c-0.1-0.2-0.1-0.4-0.1-0.7c0-0.4,0.1-0.7,0.2-0.9s0.4-0.5,0.7-0.6c0.3-0.2,0.7-0.3,1.1-0.3c0.4-0.1,0.9-0.1,1.4-0.1
			c0.1-0.4,0-0.8-0.1-1s-0.4-0.3-0.8-0.3c-0.3,0-0.6,0-1,0.1c-0.3,0.1-0.6,0.1-0.9,0.3L654,231.3z M656,235.8c0.3,0,0.6-0.1,0.7-0.2
			c0.2-0.1,0.3-0.3,0.4-0.4v-0.8c-0.2,0-0.5,0-0.7,0c-0.2,0-0.4,0.1-0.6,0.1c-0.2,0.1-0.3,0.1-0.4,0.2c-0.1,0.1-0.2,0.2-0.2,0.4
			c0,0.2,0.1,0.4,0.2,0.5S655.8,235.8,656,235.8z"/>
		<path class="st3" d="M660,231h1.1l0.2,0.7h0c0.2-0.3,0.5-0.5,0.7-0.7c0.3-0.1,0.6-0.2,1-0.2c0.8,0,1.3,0.2,1.7,0.7
			c0.4,0.5,0.6,1.2,0.6,2.3c0,0.5-0.1,1-0.2,1.4s-0.3,0.8-0.5,1s-0.5,0.5-0.9,0.7c-0.3,0.2-0.7,0.2-1.2,0.2c-0.2,0-0.5,0-0.6-0.1
			c-0.2,0-0.3-0.1-0.5-0.2v2.5H660V231z M662.7,232.1c-0.3,0-0.5,0.1-0.7,0.2c-0.2,0.2-0.3,0.4-0.4,0.7v2.5c0.1,0.1,0.2,0.2,0.4,0.2
			c0.1,0.1,0.3,0.1,0.5,0.1c0.4,0,0.8-0.2,1-0.5c0.2-0.3,0.3-0.8,0.3-1.6c0-0.5-0.1-0.9-0.3-1.2S663.1,232.1,662.7,232.1z"/>
		<path class="st3" d="M666.5,231h1.1l0.2,0.7h0c0.2-0.3,0.5-0.5,0.7-0.7c0.3-0.1,0.6-0.2,1-0.2c0.8,0,1.3,0.2,1.7,0.7
			c0.4,0.5,0.6,1.2,0.6,2.3c0,0.5-0.1,1-0.2,1.4c-0.1,0.4-0.3,0.8-0.5,1c-0.2,0.3-0.5,0.5-0.9,0.7c-0.3,0.2-0.7,0.2-1.2,0.2
			c-0.2,0-0.5,0-0.6-0.1s-0.3-0.1-0.5-0.2v2.5h-1.6V231z M669.2,232.1c-0.3,0-0.5,0.1-0.7,0.2c-0.2,0.2-0.3,0.4-0.4,0.7v2.5
			c0.1,0.1,0.2,0.2,0.4,0.2c0.1,0.1,0.3,0.1,0.5,0.1c0.4,0,0.8-0.2,1-0.5s0.3-0.8,0.3-1.6c0-0.5-0.1-0.9-0.3-1.2
			S669.6,232.1,669.2,232.1z"/>
		<path class="st3" d="M674.6,235c0,0.3,0,0.5,0.1,0.6s0.2,0.2,0.3,0.2c0.1,0,0.2,0,0.3,0c0.1,0,0.2-0.1,0.3-0.1l0.2,1.2
			c-0.1,0.1-0.3,0.1-0.6,0.2c-0.3,0.1-0.5,0.1-0.8,0.1c-0.5,0-0.8-0.1-1-0.3c-0.2-0.2-0.4-0.6-0.4-1v-7.2h1.6V235z"/>
		<path class="st3" d="M676.4,229.3c0-0.2,0.1-0.4,0.3-0.6s0.4-0.2,0.7-0.2s0.5,0.1,0.7,0.2c0.2,0.2,0.3,0.4,0.3,0.6
			c0,0.2-0.1,0.4-0.3,0.6c-0.2,0.2-0.4,0.2-0.7,0.2s-0.5-0.1-0.7-0.2C676.5,229.7,676.4,229.5,676.4,229.3z M676.7,231h1.6v6h-1.6
			V231z"/>
		<path class="st3" d="M684,236.6c-0.2,0.2-0.5,0.3-0.9,0.4c-0.3,0.1-0.7,0.1-1,0.1c-0.5,0-0.9-0.1-1.2-0.2
			c-0.3-0.2-0.6-0.4-0.8-0.6c-0.2-0.3-0.4-0.6-0.5-1c-0.1-0.4-0.1-0.8-0.1-1.3c0-1,0.2-1.8,0.7-2.3s1.1-0.8,2-0.8
			c0.4,0,0.8,0,1.1,0.1c0.3,0.1,0.5,0.2,0.7,0.3l-0.4,1.3c-0.2-0.1-0.4-0.2-0.5-0.2s-0.4-0.1-0.6-0.1c-0.4,0-0.8,0.1-1,0.4
			c-0.2,0.3-0.3,0.7-0.3,1.4c0,0.3,0,0.5,0.1,0.7c0.1,0.2,0.1,0.4,0.3,0.6c0.1,0.2,0.3,0.3,0.4,0.4s0.4,0.1,0.6,0.1
			c0.3,0,0.5,0,0.7-0.1c0.2-0.1,0.3-0.1,0.5-0.2L684,236.6z"/>
		<path class="st3" d="M684.9,231.3c0.3-0.1,0.7-0.3,1.1-0.3c0.4-0.1,0.9-0.1,1.4-0.1c0.4,0,0.8,0,1,0.2c0.3,0.1,0.5,0.2,0.7,0.4
			s0.3,0.4,0.3,0.7s0.1,0.5,0.1,0.9c0,0.4,0,0.7,0,1.1c0,0.4,0,0.7,0,1c0,0.3,0,0.7,0,1c0,0.3,0.1,0.6,0.2,0.9h-1.3l-0.3-0.8h-0.1
			c-0.2,0.2-0.4,0.5-0.7,0.6c-0.3,0.2-0.7,0.3-1.1,0.3c-0.3,0-0.5,0-0.8-0.1c-0.2-0.1-0.4-0.2-0.6-0.4c-0.2-0.2-0.3-0.3-0.4-0.6
			c-0.1-0.2-0.1-0.4-0.1-0.7c0-0.4,0.1-0.7,0.2-0.9s0.4-0.5,0.7-0.6c0.3-0.2,0.7-0.3,1.1-0.3c0.4-0.1,0.9-0.1,1.4-0.1
			c0.1-0.4,0-0.8-0.1-1s-0.4-0.3-0.8-0.3c-0.3,0-0.6,0-1,0.1c-0.3,0.1-0.6,0.1-0.9,0.3L684.9,231.3z M686.9,235.8
			c0.3,0,0.6-0.1,0.7-0.2c0.2-0.1,0.3-0.3,0.4-0.4v-0.8c-0.2,0-0.5,0-0.7,0c-0.2,0-0.4,0.1-0.6,0.1c-0.2,0.1-0.3,0.1-0.4,0.2
			c-0.1,0.1-0.2,0.2-0.2,0.4c0,0.2,0.1,0.4,0.2,0.5S686.7,235.8,686.9,235.8z"/>
		<path class="st3" d="M690.3,231h0.8v-1.1l1.6-0.4v1.6h1.5v1.3h-1.5v2.3c0,0.4,0,0.7,0.1,0.9c0.1,0.2,0.2,0.3,0.5,0.3
			c0.2,0,0.3,0,0.4,0c0.1,0,0.2-0.1,0.4-0.1l0.3,1.2c-0.2,0.1-0.5,0.2-0.8,0.3c-0.3,0.1-0.6,0.1-0.9,0.1c-0.6,0-1-0.1-1.2-0.4
			c-0.3-0.3-0.4-0.8-0.4-1.4v-3h-0.8V231z"/>
		<path class="st3" d="M695,229.3c0-0.2,0.1-0.4,0.3-0.6c0.2-0.2,0.4-0.2,0.7-0.2c0.3,0,0.5,0.1,0.7,0.2c0.2,0.2,0.3,0.4,0.3,0.6
			c0,0.2-0.1,0.4-0.3,0.6c-0.2,0.2-0.4,0.2-0.7,0.2c-0.3,0-0.5-0.1-0.7-0.2C695.1,229.7,695,229.5,695,229.3z M695.2,231h1.6v6h-1.6
			V231z"/>
		<path class="st3" d="M698,234c0-1,0.2-1.8,0.7-2.3s1.2-0.8,2.1-0.8c0.5,0,0.9,0.1,1.2,0.2c0.4,0.2,0.6,0.4,0.9,0.6
			c0.2,0.3,0.4,0.6,0.5,1c0.1,0.4,0.2,0.8,0.2,1.3c0,1-0.2,1.8-0.7,2.3c-0.5,0.5-1.2,0.8-2.1,0.8c-0.5,0-0.9-0.1-1.2-0.2
			c-0.4-0.2-0.6-0.4-0.9-0.6c-0.2-0.3-0.4-0.6-0.5-1C698.1,234.9,698,234.5,698,234z M699.6,234c0,0.3,0,0.5,0.1,0.7
			c0,0.2,0.1,0.4,0.2,0.6c0.1,0.2,0.2,0.3,0.4,0.4s0.3,0.1,0.6,0.1c0.4,0,0.7-0.1,0.9-0.4s0.3-0.8,0.3-1.4c0-0.6-0.1-1-0.3-1.3
			c-0.2-0.3-0.5-0.5-0.9-0.5c-0.4,0-0.7,0.1-0.9,0.4C699.7,232.9,699.6,233.3,699.6,234z"/>
		<path class="st3" d="M708.4,237v-3.4c0-0.5-0.1-0.8-0.2-1.1c-0.1-0.2-0.4-0.3-0.7-0.3c-0.3,0-0.5,0.1-0.8,0.3
			c-0.2,0.2-0.4,0.4-0.4,0.6v3.9h-1.6v-6h1.2l0.2,0.8h0c0.2-0.3,0.4-0.5,0.7-0.7c0.3-0.2,0.7-0.3,1.2-0.3c0.3,0,0.6,0,0.8,0.1
			c0.2,0.1,0.4,0.2,0.6,0.4c0.2,0.2,0.3,0.4,0.4,0.8c0.1,0.3,0.1,0.7,0.1,1.2v3.7H708.4z"/>
	</g>
	<g class="st2">
		<path class="st3" d="M718.8,236.6c-0.2,0.2-0.5,0.3-0.9,0.4c-0.3,0.1-0.7,0.1-1,0.1c-0.5,0-0.9-0.1-1.2-0.2
			c-0.3-0.1-0.6-0.4-0.8-0.6c-0.2-0.3-0.4-0.6-0.4-1s-0.1-0.8-0.1-1.3c0-1,0.2-1.8,0.7-2.3s1.1-0.8,1.9-0.8c0.4,0,0.7,0,1,0.1
			c0.3,0.1,0.5,0.1,0.7,0.3l-0.3,0.8c-0.2-0.1-0.4-0.2-0.6-0.2c-0.2-0.1-0.5-0.1-0.7-0.1c-1.1,0-1.7,0.8-1.7,2.3
			c0,0.3,0,0.6,0.1,0.9c0.1,0.3,0.2,0.5,0.3,0.7c0.1,0.2,0.3,0.4,0.6,0.5c0.2,0.1,0.5,0.2,0.8,0.2c0.3,0,0.5,0,0.8-0.1
			c0.2-0.1,0.4-0.2,0.6-0.3L718.8,236.6z"/>
		<path class="st3" d="M720.1,231.4c0.3-0.2,0.7-0.3,1.1-0.4c0.4-0.1,0.8-0.1,1.3-0.1c0.4,0,0.8,0.1,1,0.2s0.4,0.3,0.6,0.4
			c0.1,0.2,0.2,0.4,0.3,0.6c0,0.2,0.1,0.4,0.1,0.6c0,0.5,0,0.9,0,1.4c0,0.5,0,0.9,0,1.3c0,0.3,0,0.6,0,0.8c0,0.3,0.1,0.5,0.1,0.7
			h-0.7l-0.3-0.8h-0.1c-0.1,0.1-0.2,0.2-0.3,0.3c-0.1,0.1-0.2,0.2-0.4,0.3c-0.2,0.1-0.3,0.2-0.5,0.2c-0.2,0.1-0.4,0.1-0.7,0.1
			c-0.3,0-0.5,0-0.7-0.1c-0.2-0.1-0.4-0.2-0.6-0.3c-0.2-0.1-0.3-0.3-0.4-0.5c-0.1-0.2-0.1-0.4-0.1-0.7c0-0.4,0.1-0.6,0.2-0.9
			c0.1-0.2,0.3-0.4,0.6-0.6c0.3-0.1,0.6-0.2,0.9-0.3c0.4-0.1,0.8-0.1,1.2-0.1c0.1,0,0.2,0,0.3,0c0.1,0,0.2,0,0.3,0
			c0-0.2,0-0.5,0-0.6c0-0.4-0.1-0.7-0.3-0.9s-0.5-0.3-1-0.3c-0.1,0-0.3,0-0.4,0c-0.2,0-0.3,0-0.5,0.1s-0.3,0.1-0.5,0.1
			c-0.1,0.1-0.3,0.1-0.4,0.2L720.1,231.4z M721.8,236.2c0.2,0,0.4,0,0.6-0.1c0.2-0.1,0.3-0.1,0.5-0.2c0.1-0.1,0.2-0.2,0.3-0.3
			c0.1-0.1,0.1-0.2,0.2-0.3v-1c-0.1,0-0.2,0-0.3,0s-0.2,0-0.3,0c-0.2,0-0.5,0-0.7,0c-0.2,0-0.4,0.1-0.6,0.2
			c-0.2,0.1-0.3,0.2-0.4,0.3c-0.1,0.1-0.2,0.3-0.2,0.5c0,0.3,0.1,0.5,0.3,0.7C721.2,236.2,721.4,236.2,721.8,236.2z"/>
		<path class="st3" d="M730,237v-3.4c0-0.6-0.1-1.1-0.3-1.4c-0.2-0.3-0.5-0.5-1-0.5c-0.4,0-0.8,0.1-1.1,0.3
			c-0.3,0.2-0.5,0.5-0.6,0.9v4.1h-1v-6h0.7l0.2,0.7h0c0.2-0.3,0.5-0.5,0.8-0.6c0.3-0.2,0.7-0.2,1.2-0.2c0.3,0,0.6,0,0.9,0.1
			c0.2,0.1,0.5,0.2,0.6,0.4s0.3,0.5,0.4,0.8c0.1,0.3,0.1,0.7,0.1,1.2v3.6H730z"/>
	</g>
	<g class="st2">
		<path class="st3" d="M654.2,245.8c0.3-0.2,0.7-0.3,1.1-0.4s0.8-0.1,1.3-0.1c0.4,0,0.8,0.1,1,0.2c0.3,0.1,0.4,0.3,0.6,0.4
			c0.1,0.2,0.2,0.4,0.3,0.6c0,0.2,0.1,0.4,0.1,0.6c0,0.5,0,0.9,0,1.4c0,0.5,0,0.9,0,1.3c0,0.3,0,0.6,0,0.8c0,0.3,0.1,0.5,0.1,0.7
			h-0.7l-0.3-0.8h-0.1c-0.1,0.1-0.2,0.2-0.3,0.3c-0.1,0.1-0.2,0.2-0.4,0.3c-0.2,0.1-0.3,0.2-0.5,0.2c-0.2,0.1-0.4,0.1-0.7,0.1
			s-0.5,0-0.7-0.1c-0.2-0.1-0.4-0.2-0.6-0.3c-0.2-0.1-0.3-0.3-0.4-0.5c-0.1-0.2-0.1-0.4-0.1-0.7c0-0.4,0.1-0.6,0.2-0.9
			c0.1-0.2,0.3-0.4,0.6-0.6c0.3-0.1,0.6-0.2,0.9-0.3c0.4-0.1,0.8-0.1,1.2-0.1c0.1,0,0.2,0,0.3,0s0.2,0,0.3,0c0-0.2,0-0.5,0-0.6
			c0-0.4-0.1-0.7-0.3-0.9c-0.2-0.2-0.5-0.3-1-0.3c-0.1,0-0.3,0-0.4,0c-0.2,0-0.3,0-0.5,0.1s-0.3,0.1-0.5,0.1
			c-0.1,0.1-0.3,0.1-0.4,0.2L654.2,245.8z M655.9,250.6c0.2,0,0.4,0,0.6-0.1s0.3-0.1,0.5-0.2c0.1-0.1,0.2-0.2,0.3-0.3
			c0.1-0.1,0.1-0.2,0.2-0.3v-1c-0.1,0-0.2,0-0.3,0c-0.1,0-0.2,0-0.3,0c-0.2,0-0.5,0-0.7,0s-0.4,0.1-0.6,0.2s-0.3,0.2-0.4,0.3
			c-0.1,0.1-0.2,0.3-0.2,0.5c0,0.3,0.1,0.5,0.3,0.7C655.4,250.6,655.6,250.6,655.9,250.6z"/>
	</g>
	<g class="st2">
		<path class="st3" d="M664.4,251c-0.2,0.2-0.5,0.3-0.9,0.4s-0.7,0.1-1,0.1c-0.5,0-0.9-0.1-1.2-0.2c-0.3-0.1-0.6-0.4-0.8-0.6
			c-0.2-0.3-0.4-0.6-0.4-1s-0.1-0.8-0.1-1.3c0-1,0.2-1.8,0.7-2.3c0.4-0.5,1.1-0.8,1.9-0.8c0.4,0,0.7,0,1,0.1
			c0.3,0.1,0.5,0.1,0.7,0.3l-0.3,0.8c-0.2-0.1-0.4-0.2-0.6-0.2c-0.2-0.1-0.5-0.1-0.7-0.1c-1.1,0-1.7,0.8-1.7,2.3
			c0,0.3,0,0.6,0.1,0.9c0.1,0.3,0.2,0.5,0.3,0.7c0.1,0.2,0.3,0.4,0.6,0.5s0.5,0.2,0.8,0.2c0.3,0,0.5,0,0.8-0.1s0.4-0.2,0.6-0.3
			L664.4,251z"/>
		<path class="st3" d="M669.3,251c-0.2,0.2-0.5,0.3-0.9,0.4s-0.7,0.1-1,0.1c-0.5,0-0.9-0.1-1.2-0.2c-0.3-0.1-0.6-0.4-0.8-0.6
			c-0.2-0.3-0.4-0.6-0.4-1c-0.1-0.4-0.1-0.8-0.1-1.3c0-1,0.2-1.8,0.7-2.3c0.4-0.5,1.1-0.8,1.9-0.8c0.4,0,0.7,0,1,0.1
			c0.3,0.1,0.5,0.1,0.7,0.3l-0.3,0.8c-0.2-0.1-0.4-0.2-0.6-0.2c-0.2-0.1-0.5-0.1-0.7-0.1c-1.1,0-1.7,0.8-1.7,2.3
			c0,0.3,0,0.6,0.1,0.9s0.2,0.5,0.3,0.7c0.1,0.2,0.3,0.4,0.6,0.5c0.2,0.1,0.5,0.2,0.8,0.2c0.3,0,0.5,0,0.8-0.1
			c0.2-0.1,0.4-0.2,0.6-0.3L669.3,251z"/>
	</g>
	<g class="st2">
		<path class="st3" d="M674.9,250.9c-0.2,0.2-0.5,0.3-0.9,0.5c-0.4,0.1-0.8,0.2-1.2,0.2c-0.5,0-0.9-0.1-1.2-0.2
			c-0.3-0.1-0.6-0.4-0.8-0.6c-0.2-0.3-0.4-0.6-0.5-1c-0.1-0.4-0.2-0.8-0.2-1.3c0-1,0.2-1.8,0.7-2.3s1.1-0.8,2-0.8
			c0.3,0,0.5,0,0.8,0.1c0.3,0.1,0.5,0.2,0.7,0.3c0.2,0.2,0.4,0.4,0.5,0.7c0.1,0.3,0.2,0.7,0.2,1.2c0,0.3,0,0.6-0.1,0.9h-3.9
			c0,0.4,0,0.7,0.1,0.9c0.1,0.3,0.2,0.5,0.3,0.7c0.2,0.2,0.4,0.3,0.6,0.4c0.2,0.1,0.5,0.1,0.9,0.1c0.3,0,0.5,0,0.8-0.1
			c0.3-0.1,0.5-0.2,0.6-0.3L674.9,250.9z M672.9,246.1c-0.5,0-0.9,0.1-1.1,0.4s-0.5,0.7-0.5,1.3h3c0-0.6-0.1-1-0.3-1.3
			C673.6,246.2,673.3,246.1,672.9,246.1z"/>
		<path class="st3" d="M679.3,249.8c0-0.2-0.1-0.4-0.2-0.6c-0.1-0.1-0.3-0.3-0.5-0.3s-0.4-0.2-0.7-0.3s-0.5-0.2-0.7-0.3
			s-0.4-0.3-0.5-0.5c-0.1-0.2-0.2-0.5-0.2-0.8c0-0.6,0.2-1,0.5-1.3c0.3-0.3,0.8-0.4,1.4-0.4c0.4,0,0.8,0,1.1,0.1
			c0.3,0.1,0.5,0.2,0.8,0.3l-0.2,0.8c-0.2-0.1-0.4-0.2-0.7-0.2c-0.3-0.1-0.5-0.1-0.8-0.1c-0.4,0-0.6,0.1-0.8,0.2s-0.2,0.3-0.2,0.6
			c0,0.2,0.1,0.4,0.2,0.5c0.1,0.1,0.3,0.2,0.5,0.3s0.4,0.2,0.7,0.3s0.5,0.2,0.7,0.3s0.4,0.3,0.5,0.5c0.1,0.2,0.2,0.5,0.2,0.9
			c0,0.3,0,0.5-0.1,0.7c-0.1,0.2-0.2,0.4-0.4,0.6s-0.4,0.3-0.7,0.4s-0.6,0.1-0.9,0.1c-0.5,0-0.8,0-1.2-0.1c-0.3-0.1-0.6-0.2-0.8-0.3
			l0.3-0.8c0.2,0.1,0.4,0.2,0.7,0.3s0.6,0.1,0.9,0.1c0.3,0,0.6-0.1,0.9-0.2C679.2,250.4,679.3,250.1,679.3,249.8z"/>
		<path class="st3" d="M684.3,249.8c0-0.2-0.1-0.4-0.2-0.6c-0.1-0.1-0.3-0.3-0.5-0.3s-0.4-0.2-0.7-0.3s-0.5-0.2-0.7-0.3
			s-0.4-0.3-0.5-0.5c-0.1-0.2-0.2-0.5-0.2-0.8c0-0.6,0.2-1,0.5-1.3c0.3-0.3,0.8-0.4,1.4-0.4c0.4,0,0.8,0,1.1,0.1
			c0.3,0.1,0.5,0.2,0.8,0.3l-0.2,0.8c-0.2-0.1-0.4-0.2-0.7-0.2c-0.3-0.1-0.5-0.1-0.8-0.1c-0.4,0-0.6,0.1-0.8,0.2s-0.2,0.3-0.2,0.6
			c0,0.2,0.1,0.4,0.2,0.5c0.1,0.1,0.3,0.2,0.5,0.3s0.4,0.2,0.7,0.3s0.5,0.2,0.7,0.3s0.4,0.3,0.5,0.5c0.1,0.2,0.2,0.5,0.2,0.9
			c0,0.3,0,0.5-0.1,0.7c-0.1,0.2-0.2,0.4-0.4,0.6c-0.2,0.2-0.4,0.3-0.7,0.4c-0.3,0.1-0.6,0.1-0.9,0.1c-0.5,0-0.8,0-1.2-0.1
			c-0.3-0.1-0.6-0.2-0.8-0.3l0.3-0.8c0.2,0.1,0.4,0.2,0.7,0.3s0.6,0.1,0.9,0.1c0.3,0,0.6-0.1,0.9-0.2
			C684.2,250.4,684.3,250.1,684.3,249.8z"/>
		<path class="st3" d="M694.6,245.4v6h-1v-5.2h-2.4v5.2h-1v-5.2h-0.9v-0.8h0.9v-0.3c0-0.8,0.2-1.3,0.6-1.6c0.4-0.3,0.9-0.5,1.6-0.5
			c0.5,0,0.9,0,1.3,0.1s0.7,0.2,0.9,0.3l-0.3,0.8c-0.2-0.1-0.5-0.2-0.8-0.3c-0.3-0.1-0.6-0.1-0.9-0.1c-0.3,0-0.5,0-0.7,0.1
			s-0.3,0.2-0.4,0.3c-0.1,0.1-0.2,0.3-0.2,0.5s0,0.4,0,0.7H694.6z"/>
		<path class="st3" d="M697.5,249.9c0,0.3,0,0.5,0.1,0.6s0.2,0.2,0.4,0.2c0.1,0,0.2,0,0.3,0c0.1,0,0.3-0.1,0.4-0.1l0.1,0.8
			c-0.1,0.1-0.3,0.1-0.5,0.2c-0.2,0-0.4,0.1-0.6,0.1c-0.4,0-0.7-0.1-0.9-0.3c-0.2-0.2-0.3-0.5-0.3-1V243h1V249.9z"/>
		<path class="st3" d="M704.3,250.9c-0.2,0.2-0.5,0.3-0.9,0.5c-0.4,0.1-0.8,0.2-1.2,0.2c-0.5,0-0.9-0.1-1.2-0.2
			c-0.3-0.1-0.6-0.4-0.8-0.6c-0.2-0.3-0.4-0.6-0.5-1c-0.1-0.4-0.2-0.8-0.2-1.3c0-1,0.2-1.8,0.7-2.3s1.1-0.8,2-0.8
			c0.3,0,0.5,0,0.8,0.1c0.3,0.1,0.5,0.2,0.7,0.3c0.2,0.2,0.4,0.4,0.5,0.7c0.1,0.3,0.2,0.7,0.2,1.2c0,0.3,0,0.6-0.1,0.9h-3.9
			c0,0.4,0,0.7,0.1,0.9c0.1,0.3,0.2,0.5,0.3,0.7c0.2,0.2,0.4,0.3,0.6,0.4c0.2,0.1,0.5,0.1,0.9,0.1c0.3,0,0.5,0,0.8-0.1
			c0.3-0.1,0.5-0.2,0.6-0.3L704.3,250.9z M702.2,246.1c-0.5,0-0.9,0.1-1.1,0.4s-0.5,0.7-0.5,1.3h3c0-0.6-0.1-1-0.3-1.3
			C703,246.2,702.7,246.1,702.2,246.1z"/>
		<path class="st3" d="M708.7,249.8c0-0.2-0.1-0.4-0.2-0.6c-0.1-0.1-0.3-0.3-0.5-0.3s-0.4-0.2-0.7-0.3s-0.5-0.2-0.7-0.3
			s-0.4-0.3-0.5-0.5c-0.1-0.2-0.2-0.5-0.2-0.8c0-0.6,0.2-1,0.5-1.3c0.3-0.3,0.8-0.4,1.4-0.4c0.4,0,0.8,0,1.1,0.1
			c0.3,0.1,0.5,0.2,0.8,0.3l-0.2,0.8c-0.2-0.1-0.4-0.2-0.7-0.2c-0.3-0.1-0.5-0.1-0.8-0.1c-0.4,0-0.6,0.1-0.8,0.2s-0.2,0.3-0.2,0.6
			c0,0.2,0.1,0.4,0.2,0.5c0.1,0.1,0.3,0.2,0.5,0.3s0.4,0.2,0.7,0.3s0.5,0.2,0.7,0.3s0.4,0.3,0.5,0.5c0.1,0.2,0.2,0.5,0.2,0.9
			c0,0.3,0,0.5-0.1,0.7c-0.1,0.2-0.2,0.4-0.4,0.6s-0.4,0.3-0.7,0.4s-0.6,0.1-0.9,0.1c-0.5,0-0.8,0-1.2-0.1c-0.3-0.1-0.6-0.2-0.8-0.3
			l0.3-0.8c0.2,0.1,0.4,0.2,0.7,0.3s0.6,0.1,0.9,0.1c0.3,0,0.6-0.1,0.9-0.2C708.6,250.4,708.7,250.1,708.7,249.8z"/>
	</g>
	
		<linearGradient id="SVGID_1_" gradientUnits="userSpaceOnUse" x1="146.1" y1="211.12" x2="316.54" y2="211.12" gradientTransform="matrix(1 0 0 -1 0 302)">
		<stop  offset="0" style="stop-color:#990066"/>
		<stop  offset="0.19" style="stop-color:#780066"/>
		<stop  offset="0.4" style="stop-color:#5A0066"/>
		<stop  offset="0.61" style="stop-color:#440066"/>
		<stop  offset="0.81" style="stop-color:#370066"/>
		<stop  offset="1" style="stop-color:#330066"/>
	</linearGradient>
	<path class="st11" d="M151.1,53.1h160.4c2.8,0,5,2.2,5,5v65.5c0,2.8-2.2,5-5,5H151.1c-2.8,0-5-2.2-5-5V58.1
		C146.1,55.4,148.3,53.1,151.1,53.1z"/>
	<path class="st12" d="M151.1,53.1h160.4c2.8,0,5,2.2,5,5v65.5c0,2.8-2.2,5-5,5H151.1c-2.8,0-5-2.2-5-5V58.1
		C146.1,55.4,148.3,53.1,151.1,53.1z"/>
	<path class="st13" d="M168.4,75.4h124.6c2.8,0,5,2.2,5,5v17.2c0,2.8-2.2,5-5,5H168.4c-2.8,0-5-2.2-5-5V80.4
		C163.4,77.6,165.7,75.4,168.4,75.4z"/>
	<g class="st2">
		<path class="st14" d="M207.6,91.5c0.3,0,0.5-0.1,0.7-0.2c0.2-0.2,0.3-0.4,0.3-0.7h1.4l0,0c0,0.6-0.2,1.1-0.7,1.5
			c-0.5,0.4-1,0.6-1.7,0.6c-0.9,0-1.5-0.3-2-0.8c-0.5-0.5-0.7-1.3-0.7-2.1v-0.2c0-0.9,0.2-1.6,0.7-2.1c0.5-0.6,1.2-0.8,2.1-0.8
			c0.5,0,0.9,0.1,1.3,0.2c0.4,0.1,0.7,0.3,0.9,0.6l0,1.6h-1.3l-0.3-0.9c-0.1-0.1-0.2-0.1-0.3-0.2c-0.1,0-0.2-0.1-0.4-0.1
			c-0.4,0-0.8,0.2-0.9,0.5s-0.3,0.7-0.3,1.2v0.2c0,0.5,0.1,0.9,0.3,1.3C206.9,91.3,207.2,91.5,207.6,91.5z"/>
		<path class="st14" d="M210.6,89.6c0-0.9,0.2-1.6,0.7-2.1c0.5-0.6,1.2-0.8,2-0.8c0.9,0,1.5,0.3,2,0.8c0.5,0.6,0.7,1.3,0.7,2.1v0.1
			c0,0.9-0.2,1.6-0.7,2.1c-0.5,0.5-1.2,0.8-2,0.8c-0.9,0-1.5-0.3-2-0.8c-0.5-0.5-0.7-1.3-0.7-2.1V89.6z M212.2,89.7
			c0,0.5,0.1,1,0.3,1.3c0.2,0.3,0.5,0.5,0.9,0.5c0.4,0,0.7-0.2,0.9-0.5c0.2-0.3,0.3-0.7,0.3-1.3v-0.1c0-0.5-0.1-0.9-0.3-1.3
			c-0.2-0.3-0.5-0.5-0.9-0.5s-0.7,0.2-0.9,0.5c-0.2,0.3-0.3,0.7-0.3,1.3V89.7z"/>
		<path class="st14" d="M216.7,91.6l0.8-0.2v-3.6l-0.8-0.2v-0.9h2.3l0.1,0.8c0.2-0.3,0.4-0.5,0.7-0.7c0.3-0.2,0.6-0.2,1-0.2
			c0.6,0,1,0.2,1.4,0.6c0.3,0.4,0.5,0.9,0.5,1.7v2.5l0.8,0.2v0.9h-3v-0.9l0.7-0.2V89c0-0.4-0.1-0.7-0.2-0.8
			c-0.2-0.2-0.4-0.2-0.7-0.2c-0.2,0-0.4,0-0.6,0.1c-0.2,0.1-0.3,0.2-0.4,0.4v3.1l0.6,0.2v0.9h-3V91.6z"/>
		<path class="st14" d="M226.1,85.3v1.4h1v1.1h-1v3c0,0.2,0,0.4,0.1,0.5c0.1,0.1,0.2,0.1,0.4,0.1c0.1,0,0.2,0,0.3,0
			c0.1,0,0.2,0,0.3,0l0.1,1.1c-0.2,0.1-0.3,0.1-0.5,0.1c-0.2,0-0.4,0-0.6,0c-0.5,0-1-0.1-1.2-0.4c-0.3-0.3-0.4-0.8-0.4-1.4v-3h-0.9
			v-1.1h0.9v-1.4H226.1z"/>
		<path class="st14" d="M231.6,92.6c0-0.1-0.1-0.2-0.1-0.3c0-0.1-0.1-0.2-0.1-0.3c-0.2,0.2-0.4,0.4-0.7,0.5
			c-0.3,0.1-0.6,0.2-0.9,0.2c-0.6,0-1-0.2-1.4-0.5S228,91.5,228,91c0-0.5,0.2-1,0.7-1.3c0.4-0.3,1.1-0.4,1.9-0.4h0.8v-0.6
			c0-0.3-0.1-0.5-0.2-0.6s-0.4-0.2-0.7-0.2c-0.2,0-0.3,0-0.5,0.1s-0.3,0.1-0.3,0.1l-0.1,0.6h-1.2l0-1.3c0.3-0.2,0.6-0.4,1-0.5
			c0.4-0.1,0.8-0.2,1.2-0.2c0.7,0,1.3,0.2,1.8,0.5c0.4,0.4,0.7,0.9,0.7,1.5v2.4c0,0.1,0,0.2,0,0.3c0,0.1,0,0.2,0,0.2l0.5,0.1v0.9
			H231.6z M230.2,91.5c0.2,0,0.5-0.1,0.6-0.2c0.2-0.1,0.3-0.2,0.5-0.4v-0.9h-0.8c-0.3,0-0.6,0.1-0.8,0.2c-0.2,0.2-0.3,0.3-0.3,0.6
			c0,0.2,0.1,0.4,0.2,0.5C229.8,91.5,230,91.5,230.2,91.5z"/>
		<path class="st14" d="M233.9,91.6l0.8-0.2v-3.6l-0.8-0.2v-0.9h2.4v4.7l0.8,0.2v0.9h-3.1V91.6z M236.2,85.4h-1.6v-1.2h1.6V85.4z"/>
	</g>
	<g class="st2">
		<path class="st14" d="M237.4,91.6l0.8-0.2v-3.6l-0.8-0.2v-0.9h2.3l0.1,0.8c0.2-0.3,0.4-0.5,0.7-0.7s0.6-0.2,1-0.2
			c0.6,0,1,0.2,1.4,0.6c0.3,0.4,0.5,0.9,0.5,1.7v2.5l0.8,0.2v0.9h-3v-0.9l0.7-0.2V89c0-0.4-0.1-0.7-0.2-0.8s-0.4-0.2-0.7-0.2
			c-0.2,0-0.4,0-0.6,0.1s-0.3,0.2-0.4,0.4v3.1l0.6,0.2v0.9h-3V91.6z"/>
	</g>
	<g class="st2">
		<path class="st14" d="M247.2,92.7c-0.8,0-1.5-0.3-2-0.8s-0.8-1.2-0.8-2v-0.2c0-0.9,0.2-1.6,0.7-2.1c0.5-0.6,1.1-0.8,1.9-0.8
			c0.8,0,1.4,0.2,1.8,0.7s0.6,1.1,0.6,1.9v0.9h-3.5l0,0c0,0.4,0.2,0.7,0.4,0.9c0.2,0.2,0.5,0.4,0.9,0.4c0.3,0,0.6,0,0.9-0.1
			c0.2-0.1,0.5-0.2,0.8-0.3l0.4,1c-0.2,0.2-0.6,0.3-0.9,0.5C248.1,92.6,247.7,92.7,247.2,92.7z M247.1,87.9c-0.3,0-0.5,0.1-0.7,0.3
			c-0.2,0.2-0.3,0.5-0.3,0.9l0,0h1.9V89c0-0.3-0.1-0.6-0.2-0.8C247.6,88,247.4,87.9,247.1,87.9z"/>
		<path class="st14" d="M250.4,91.6l0.8-0.2v-3.6l-0.8-0.2v-0.9h2.3l0.1,0.8c0.1-0.3,0.3-0.5,0.5-0.7c0.2-0.2,0.5-0.3,0.7-0.3
			c0.1,0,0.2,0,0.3,0c0.1,0,0.2,0,0.2,0l-0.2,1.4l-0.6,0c-0.2,0-0.4,0-0.6,0.1s-0.3,0.2-0.3,0.4v2.8l0.8,0.2v0.9h-3.1V91.6z"/>
	</g>
	<path class="st15" d="M222.6,42.4c4.6-4.5,12.1-4.5,16.6,0.1c4.5,4.6,4.5,12.1-0.1,16.6S227,63.6,222.5,59
		c-2.2-2.2-3.4-5.1-3.4-8.2c0-2.6,0.8-5.1,2.4-7.1"/>
	<path class="st13" d="M230.9,56.4h-4.3c-0.6,0-0.8-0.2-0.8-0.8v-6.5c0-0.6,0.2-0.8,0.8-0.8h8.5c0.5,0,0.8,0.2,0.8,0.8v6.5
		c0,0.5-0.2,0.8-0.8,0.8C233.7,56.4,232.3,56.4,230.9,56.4z"/>
	<path class="st13" d="M226.5,47.8c0-1.8,1-3.4,2.6-4.1c2.1-0.9,4.6,0,5.5,2.1c0.1,0.2,0.2,0.5,0.2,0.7c0.1,0.4,0.1,0.8,0.2,1.2"/>
	<path class="st14" d="M230.2,53.6L230.2,53.6v0.9c0,0.2,0.1,0.2,0.3,0.2h0.8c0.2,0,0.3-0.1,0.3-0.3v-1.6c0-0.2,0.1-0.3,0.2-0.4
		c0.5-0.3,0.8-0.9,0.6-1.4c-0.2-0.6-0.8-1-1.4-1c-0.7-0.1-1.3,0.3-1.6,0.9c-0.2,0.6,0,1.2,0.6,1.5c0.2,0.1,0.3,0.3,0.3,0.5
		C230.2,53.1,230.2,53.4,230.2,53.6z"/>
	<g id="Scone_logo_white">
		<g>
			<defs>
				<rect id="SVGID_2_" x="212.3" y="113.4" width="36.3" height="7.1"/>
			</defs>
			<clipPath id="SVGID_3_">
				<use xlink:href="#SVGID_2_"  style="overflow:visible;"/>
			</clipPath>
			<g class="st16">
				<g>
					<defs>
						<rect id="SVGID_4_" x="212.3" y="113.4" width="36.3" height="7.1"/>
					</defs>
					<clipPath id="SVGID_5_">
						<use xlink:href="#SVGID_4_"  style="overflow:visible;"/>
					</clipPath>
					<g class="st17">
						<path class="st18" d="M217.1,115.2h-0.8c-0.2,0-0.3,0.1-0.3,0.3v0.8c0,0.2,0.1,0.3,0.3,0.3h0.8c0.2,0,0.3-0.1,0.3-0.3v-0.8
							C217.4,115.3,217.2,115.2,217.1,115.2 M214.4,116.6h0.8c0.2,0,0.3-0.1,0.3-0.3v-0.8c0-0.2-0.1-0.3-0.3-0.3h-0.8
							c-0.2,0-0.3,0.1-0.3,0.3v0.8C214.1,116.4,214.3,116.6,214.4,116.6 M213.6,116.3v-0.8c0-0.2-0.1-0.3-0.3-0.3h-0.8
							c-0.2,0-0.3,0.1-0.3,0.3v0.8c0,0.2,0.1,0.3,0.3,0.3h0.8C213.5,116.6,213.6,116.4,213.6,116.3 M217.1,117.1
							c-0.1,0-0.2,0.1-0.2,0.2v0.9c0,0.1,0.1,0.2,0.2,0.2s0.2-0.1,0.2-0.2l0,0v-0.9C217.4,117.2,217.3,117.1,217.1,117.1
							L217.1,117.1 M215.1,117.4v0.8c0,0.2,0.1,0.3,0.3,0.3h0.8c0.2,0,0.3-0.1,0.3-0.3v-0.8c0-0.2-0.1-0.3-0.3-0.3h-0.8
							C215.2,117.1,215,117.2,215.1,117.4 M214.5,118.2v-0.8c0-0.2-0.1-0.3-0.3-0.3h-0.8c-0.2,0-0.3,0.1-0.3,0.3v0.8
							c0,0.2,0.1,0.3,0.3,0.3h0.8C214.4,118.5,214.5,118.3,214.5,118.2 M217.1,119h-0.8c-0.2,0-0.3,0.1-0.3,0.3v0.8
							c0,0.2,0.1,0.3,0.3,0.3h0.8c0.2,0,0.3-0.1,0.3-0.3v-0.8C217.4,119.1,217.2,119,217.1,119 M215.1,119h-0.8
							c-0.2,0-0.3,0.1-0.3,0.3v0.8c0,0.2,0.1,0.3,0.3,0.3h0.8c0.2,0,0.3-0.1,0.3-0.3v-0.8C215.4,119.1,215.2,119,215.1,119"/>
						<path class="st18" d="M218,114.9c0.3,0.3,0.8,0.4,1.2,0.4c0,0,0,0,0,0.1v2.1c0,0.8-1,1.3-1.2,1.4l0,0L218,114.9L218,114.9"/>
						<path class="st18" d="M215.7,114.8c1.6-0.1,1.9-0.6,1.9-0.6c0,0,0,0,0.1,0c0,0,0.1,0,0.1,0s0.3,0.6,1.9,0.6c0,0,0.1,0,0.1,0.1
							v2.8c0,0.9-1.7,1.9-1.7,1.9s-0.1,0-0.1,0v0.7c0,0,0.1,0.1,0.1,0c0.6-0.3,2.3-1.3,2.3-2.5v-3.5c0-0.1-0.1-0.1-0.2-0.1
							c-2.1,0-2.4-0.8-2.4-0.8s-0.1,0-0.1,0s-0.1,0-0.1,0s-0.3,0.8-2.4,0.8c-0.1,0-0.1,0-0.1,0.1v0.4c0,0,0,0.1,0.1,0.1L215.7,114.8
							"/>
						<path class="st19" d="M221.9,119.3l0.8-0.3c0.2,0.4,0.6,0.6,1.1,0.6c0.2,0,0.4,0,0.6-0.1c0.2-0.1,0.3-0.3,0.3-0.4
							c0-0.4-0.6-0.7-1-0.9l0,0c-0.4-0.1-0.7-0.3-1-0.5c-0.3-0.2-0.5-0.6-0.5-1c0-0.4,0.2-0.8,0.5-1c0.3-0.3,0.8-0.4,1.2-0.4
							c0.7,0,1.3,0.3,1.6,0.9l-0.8,0.3c-0.1-0.1-0.2-0.2-0.3-0.3c-0.1-0.1-0.3-0.1-0.5-0.1c-0.5,0-0.8,0.3-0.8,0.6
							c0,0.2,0.1,0.4,0.3,0.5c0.2,0.2,0.5,0.3,0.7,0.4h0.1c0.6,0.3,1.4,0.6,1.4,1.4c0,0.4-0.2,0.8-0.6,1c-0.4,0.3-0.9,0.4-1.3,0.4
							C223,120.3,222.3,119.9,221.9,119.3"/>
						<path class="st19" d="M229.1,120.4c-0.3,0-0.7-0.1-1-0.2c-0.3-0.1-0.6-0.3-0.8-0.6c-0.2-0.2-0.4-0.5-0.6-0.8
							c-0.3-0.6-0.3-1.4,0-2c0.3-0.6,0.8-1.1,1.4-1.4c0.3-0.1,0.7-0.2,1-0.2c0.4,0,0.8,0.1,1.2,0.3c0.4,0.2,0.7,0.4,0.9,0.8
							l-0.7,0.5c-0.3-0.4-0.8-0.7-1.4-0.7c-0.5,0-0.9,0.2-1.2,0.5c-0.7,0.7-0.7,1.8-0.1,2.5c0.3,0.4,0.8,0.5,1.3,0.5
							c0.3,0,0.6-0.1,0.9-0.2c0.3-0.2,0.5-0.4,0.6-0.7l0.7,0.4c-0.2,0.4-0.5,0.8-0.9,1c-0.4,0.2-0.8,0.4-1.3,0.4"/>
						<path class="st19" d="M234.8,120.4c-0.3,0-0.7-0.1-1-0.2c-0.3-0.1-0.6-0.3-0.8-0.6c-0.5-0.5-0.8-1.1-0.8-1.8
							c0-0.3,0.1-0.7,0.2-1c0.1-0.3,0.3-0.6,0.6-0.8c0.2-0.2,0.5-0.4,0.8-0.6c0.3-0.1,0.7-0.2,1-0.2c0.3,0,0.7,0.1,1,0.2
							c0.3,0.1,0.6,0.3,0.8,0.6c0.2,0.2,0.4,0.5,0.6,0.8c0.3,0.6,0.3,1.4,0,2c-0.1,0.3-0.3,0.6-0.6,0.8c-0.2,0.2-0.5,0.4-0.8,0.6
							C235.5,120.3,235.2,120.4,234.8,120.4 M234.8,116.1c-0.5,0-0.9,0.2-1.2,0.5c-0.3,0.3-0.5,0.8-0.5,1.2c0,1,0.8,1.7,1.7,1.7l0,0
							c0.5,0,0.9-0.2,1.2-0.5c0.3-0.3,0.5-0.8,0.5-1.2c0-0.5-0.2-0.9-0.5-1.2C235.7,116.2,235.3,116.1,234.8,116.1"/>
						<polygon class="st19" points="243.3,115.2 243.3,120.5 239.7,117.2 239.7,120.3 238.7,120.3 238.7,115.1 242.4,118.4 
							242.4,115.2 						"/>
						<polygon class="st19" points="245.8,116 245.8,117.4 248.3,117.4 248.3,118.2 245.8,118.2 245.8,119.5 248.6,119.5 
							248.6,120.3 244.8,120.3 244.8,115.2 248.6,115.2 248.6,116 245.8,116 						"/>
					</g>
				</g>
			</g>
		</g>
	</g>
	
		<linearGradient id="SVGID_6_" gradientUnits="userSpaceOnUse" x1="432.42" y1="211.12" x2="602.86" y2="211.12" gradientTransform="matrix(1 0 0 -1 0 302)">
		<stop  offset="0" style="stop-color:#990066"/>
		<stop  offset="0.19" style="stop-color:#780066"/>
		<stop  offset="0.4" style="stop-color:#5A0066"/>
		<stop  offset="0.61" style="stop-color:#440066"/>
		<stop  offset="0.81" style="stop-color:#370066"/>
		<stop  offset="1" style="stop-color:#330066"/>
	</linearGradient>
	<path class="st20" d="M437.4,53.1h160.4c2.8,0,5,2.2,5,5v65.5c0,2.8-2.2,5-5,5H437.4c-2.8,0-5-2.2-5-5V58.1
		C432.4,55.4,434.7,53.1,437.4,53.1z"/>
	<path class="st12" d="M437.4,53.1h160.4c2.8,0,5,2.2,5,5v65.5c0,2.8-2.2,5-5,5H437.4c-2.8,0-5-2.2-5-5V58.1
		C432.4,55.4,434.7,53.1,437.4,53.1z"/>
	<path class="st13" d="M454.8,75.4h124.6c2.8,0,5,2.2,5,5v17.2c0,2.8-2.2,5-5,5H454.8c-2.8,0-5-2.2-5-5V80.4
		C449.8,77.6,452,75.4,454.8,75.4z"/>
	<g class="st2">
		<path class="st14" d="M490.6,92.6c0-0.1-0.1-0.2-0.1-0.3c0-0.1-0.1-0.2-0.1-0.3c-0.2,0.2-0.4,0.4-0.7,0.5s-0.6,0.2-0.9,0.2
			c-0.6,0-1-0.2-1.4-0.5c-0.3-0.3-0.5-0.7-0.5-1.3c0-0.5,0.2-1,0.7-1.3c0.4-0.3,1.1-0.4,1.9-0.4h0.8v-0.6c0-0.3-0.1-0.5-0.2-0.6
			s-0.4-0.2-0.7-0.2c-0.2,0-0.3,0-0.5,0.1s-0.3,0.1-0.3,0.1l-0.1,0.6h-1.2l0-1.3c0.3-0.2,0.6-0.4,1-0.5c0.4-0.1,0.8-0.2,1.2-0.2
			c0.7,0,1.3,0.2,1.8,0.5s0.7,0.9,0.7,1.5v2.4c0,0.1,0,0.2,0,0.3c0,0.1,0,0.2,0,0.2l0.5,0.1v0.9H490.6z M489.3,91.5
			c0.2,0,0.5-0.1,0.6-0.2c0.2-0.1,0.3-0.2,0.5-0.4v-0.9h-0.8c-0.3,0-0.6,0.1-0.8,0.2c-0.2,0.2-0.3,0.3-0.3,0.6
			c0,0.2,0.1,0.4,0.2,0.5S489.1,91.5,489.3,91.5z"/>
		<path class="st14" d="M492.9,87.7v-0.9h2.3l0.1,0.7c0.2-0.3,0.4-0.4,0.6-0.6c0.2-0.1,0.5-0.2,0.8-0.2c0.7,0,1.3,0.3,1.7,0.8
			c0.4,0.6,0.6,1.3,0.6,2.2v0.1c0,0.9-0.2,1.5-0.6,2.1c-0.4,0.5-1,0.8-1.7,0.8c-0.3,0-0.6-0.1-0.8-0.2c-0.2-0.1-0.4-0.3-0.6-0.5v1.7
			l0.8,0.2v0.9h-3.1v-0.9l0.8-0.2v-5.8L492.9,87.7z M497.4,89.7c0-0.5-0.1-1-0.3-1.3s-0.5-0.5-0.8-0.5c-0.2,0-0.4,0-0.6,0.1
			c-0.2,0.1-0.3,0.2-0.4,0.4V91c0.1,0.2,0.2,0.3,0.4,0.4c0.2,0.1,0.4,0.1,0.6,0.1c0.4,0,0.7-0.1,0.8-0.4c0.2-0.3,0.3-0.7,0.3-1.2
			V89.7z"/>
	</g>
	<g class="st2">
		<path class="st14" d="M499.5,87.7v-0.9h2.3l0.1,0.7c0.2-0.3,0.4-0.4,0.6-0.6c0.2-0.1,0.5-0.2,0.8-0.2c0.7,0,1.3,0.3,1.7,0.8
			c0.4,0.6,0.6,1.3,0.6,2.2v0.1c0,0.9-0.2,1.5-0.6,2.1c-0.4,0.5-1,0.8-1.7,0.8c-0.3,0-0.6-0.1-0.8-0.2c-0.2-0.1-0.4-0.3-0.6-0.5v1.7
			l0.8,0.2v0.9h-3.1v-0.9l0.8-0.2v-5.8L499.5,87.7z M504,89.7c0-0.5-0.1-1-0.3-1.3s-0.5-0.5-0.8-0.5c-0.2,0-0.4,0-0.6,0.1
			c-0.2,0.1-0.3,0.2-0.4,0.4V91c0.1,0.2,0.2,0.3,0.4,0.4c0.2,0.1,0.4,0.1,0.6,0.1c0.4,0,0.7-0.1,0.8-0.4c0.2-0.3,0.3-0.7,0.3-1.2
			V89.7z"/>
	</g>
	<g class="st2">
		<path class="st14" d="M506,85.1v-0.9h2.4v7.3l0.8,0.2v0.9h-3.1v-0.9l0.8-0.2v-6.2L506,85.1z"/>
		<path class="st14" d="M509.7,91.6l0.8-0.2v-3.6l-0.8-0.2v-0.9h2.4v4.7l0.8,0.2v0.9h-3.1V91.6z M512,85.4h-1.6v-1.2h1.6V85.4z"/>
		<path class="st14" d="M516,91.5c0.3,0,0.5-0.1,0.7-0.2c0.2-0.2,0.3-0.4,0.3-0.7h1.4l0,0c0,0.6-0.2,1.1-0.7,1.5
			c-0.5,0.4-1,0.6-1.7,0.6c-0.9,0-1.5-0.3-2-0.8c-0.5-0.5-0.7-1.3-0.7-2.1v-0.2c0-0.9,0.2-1.6,0.7-2.1c0.5-0.6,1.2-0.8,2.1-0.8
			c0.5,0,0.9,0.1,1.3,0.2c0.4,0.1,0.7,0.3,0.9,0.6l0,1.6H517l-0.3-0.9c-0.1-0.1-0.2-0.1-0.3-0.2c-0.1,0-0.2-0.1-0.4-0.1
			c-0.4,0-0.8,0.2-0.9,0.5s-0.3,0.7-0.3,1.2v0.2c0,0.5,0.1,0.9,0.3,1.3C515.3,91.3,515.6,91.5,516,91.5z"/>
	</g>
	<g class="st2">
		<path class="st14" d="M522.7,92.6c0-0.1-0.1-0.2-0.1-0.3c0-0.1-0.1-0.2-0.1-0.3c-0.2,0.2-0.4,0.4-0.7,0.5
			c-0.3,0.1-0.6,0.2-0.9,0.2c-0.6,0-1-0.2-1.4-0.5s-0.5-0.7-0.5-1.3c0-0.5,0.2-1,0.7-1.3c0.4-0.3,1.1-0.4,1.9-0.4h0.8v-0.6
			c0-0.3-0.1-0.5-0.2-0.6s-0.4-0.2-0.7-0.2c-0.2,0-0.3,0-0.5,0.1s-0.3,0.1-0.3,0.1l-0.1,0.6h-1.2l0-1.3c0.3-0.2,0.6-0.4,1-0.5
			c0.4-0.1,0.8-0.2,1.2-0.2c0.7,0,1.3,0.2,1.8,0.5c0.4,0.4,0.7,0.9,0.7,1.5v2.4c0,0.1,0,0.2,0,0.3c0,0.1,0,0.2,0,0.2l0.5,0.1v0.9
			H522.7z M521.4,91.5c0.2,0,0.5-0.1,0.6-0.2c0.2-0.1,0.3-0.2,0.5-0.4v-0.9h-0.8c-0.3,0-0.6,0.1-0.8,0.2c-0.2,0.2-0.3,0.3-0.3,0.6
			c0,0.2,0.1,0.4,0.2,0.5C521,91.5,521.2,91.5,521.4,91.5z"/>
	</g>
	<g class="st2">
		<path class="st14" d="M527,85.3v1.4h1v1.1h-1v3c0,0.2,0,0.4,0.1,0.5c0.1,0.1,0.2,0.1,0.4,0.1c0.1,0,0.2,0,0.3,0c0.1,0,0.2,0,0.3,0
			l0.1,1.1c-0.2,0.1-0.3,0.1-0.5,0.1c-0.2,0-0.4,0-0.6,0c-0.5,0-1-0.1-1.2-0.4c-0.3-0.3-0.4-0.8-0.4-1.4v-3h-0.9v-1.1h0.9v-1.4H527z
			"/>
		<path class="st14" d="M528.7,91.6l0.8-0.2v-3.6l-0.8-0.2v-0.9h2.4v4.7l0.8,0.2v0.9h-3.1V91.6z M531,85.4h-1.6v-1.2h1.6V85.4z"/>
		<path class="st14" d="M532.3,89.6c0-0.9,0.2-1.6,0.7-2.1c0.5-0.6,1.2-0.8,2-0.8c0.9,0,1.5,0.3,2,0.8c0.5,0.6,0.7,1.3,0.7,2.1v0.1
			c0,0.9-0.2,1.6-0.7,2.1c-0.5,0.5-1.2,0.8-2,0.8c-0.9,0-1.5-0.3-2-0.8c-0.5-0.5-0.7-1.3-0.7-2.1V89.6z M533.9,89.7
			c0,0.5,0.1,1,0.3,1.3c0.2,0.3,0.5,0.5,0.9,0.5c0.4,0,0.7-0.2,0.9-0.5c0.2-0.3,0.3-0.7,0.3-1.3v-0.1c0-0.5-0.1-0.9-0.3-1.3
			c-0.2-0.3-0.5-0.5-0.9-0.5s-0.7,0.2-0.9,0.5c-0.2,0.3-0.3,0.7-0.3,1.3V89.7z"/>
		<path class="st14" d="M538.4,91.6l0.8-0.2v-3.6l-0.8-0.2v-0.9h2.3l0.1,0.8c0.2-0.3,0.4-0.5,0.7-0.7c0.3-0.2,0.6-0.2,1-0.2
			c0.6,0,1,0.2,1.4,0.6c0.3,0.4,0.5,0.9,0.5,1.7v2.5l0.8,0.2v0.9h-3v-0.9l0.7-0.2V89c0-0.4-0.1-0.7-0.2-0.8
			c-0.2-0.2-0.4-0.2-0.7-0.2c-0.2,0-0.4,0-0.6,0.1c-0.2,0.1-0.3,0.2-0.4,0.4v3.1l0.6,0.2v0.9h-3V91.6z"/>
	</g>
	<path class="st15" d="M508.9,42.4c4.6-4.5,12.1-4.5,16.6,0.1c4.5,4.6,4.5,12.1-0.1,16.6c-4.6,4.5-12.1,4.5-16.6-0.1
		c-2.2-2.2-3.4-5.1-3.4-8.2c0-2.6,0.8-5.1,2.4-7.1"/>
	<path class="st13" d="M517.2,56.4h-4.3c-0.6,0-0.8-0.2-0.8-0.8v-6.5c0-0.6,0.2-0.8,0.8-0.8h8.5c0.5,0,0.8,0.2,0.8,0.8v6.5
		c0,0.5-0.2,0.8-0.8,0.8C520,56.4,518.6,56.4,517.2,56.4z"/>
	<path class="st13" d="M512.8,47.8c0-1.8,1-3.4,2.6-4.1c2.1-0.9,4.6,0,5.5,2.1c0.1,0.2,0.2,0.5,0.2,0.7c0.1,0.4,0.1,0.8,0.2,1.2"/>
	<path class="st14" d="M516.5,53.6L516.5,53.6v0.9c0,0.2,0.1,0.2,0.3,0.2h0.8c0.2,0,0.3-0.1,0.3-0.3v-1.6c0-0.2,0.1-0.3,0.2-0.4
		c0.5-0.3,0.8-0.9,0.6-1.5c-0.2-0.6-0.8-1-1.5-1c-0.7-0.1-1.3,0.3-1.6,0.9c-0.2,0.6,0,1.2,0.5,1.5c0.2,0.1,0.3,0.3,0.3,0.5
		C516.5,53.1,516.5,53.4,516.5,53.6z"/>
	<g id="Scone_logo_white-2">
		<g>
			<defs>
				<rect id="SVGID_7_" x="498.6" y="113.4" width="36.3" height="7.1"/>
			</defs>
			<clipPath id="SVGID_8_">
				<use xlink:href="#SVGID_7_"  style="overflow:visible;"/>
			</clipPath>
			<g class="st21">
				<g>
					<defs>
						<rect id="SVGID_9_" x="498.6" y="113.4" width="36.3" height="7.1"/>
					</defs>
					<clipPath id="SVGID_10_">
						<use xlink:href="#SVGID_9_"  style="overflow:visible;"/>
					</clipPath>
					<g class="st22">
						<path class="st18" d="M503.4,115.2h-0.8c-0.2,0-0.3,0.1-0.3,0.3v0v0.8c0,0.2,0.1,0.3,0.3,0.3l0,0h0.8c0.2,0,0.3-0.1,0.3-0.3v0
							v-0.8C503.7,115.3,503.6,115.2,503.4,115.2L503.4,115.2 M500.8,116.6h0.8c0.2,0,0.3-0.1,0.3-0.3v-0.8c0-0.2-0.1-0.3-0.3-0.3
							h-0.8c-0.2,0-0.3,0.1-0.3,0.3v0v0.8C500.5,116.4,500.6,116.6,500.8,116.6L500.8,116.6 M499.9,116.3v-0.8
							c0-0.2-0.1-0.3-0.3-0.3l0,0h-0.8c-0.2,0-0.3,0.1-0.3,0.3v0v0.8c0,0.2,0.1,0.3,0.3,0.3l0,0h0.8
							C499.8,116.6,499.9,116.4,499.9,116.3L499.9,116.3 M503.5,117.1c-0.1,0-0.2,0.1-0.2,0.2v0.9c0,0.1,0.1,0.2,0.2,0.2
							s0.2-0.1,0.2-0.2l0,0v-0.9C503.7,117.2,503.6,117.1,503.5,117.1L503.5,117.1 M501.4,117.4v0.8c0,0.2,0.1,0.3,0.3,0.3h0.8
							c0.2,0,0.3-0.1,0.3-0.3v-0.8c0-0.2-0.1-0.3-0.3-0.3h-0.8C501.5,117.1,501.4,117.2,501.4,117.4 M500.8,118.2v-0.8
							c0-0.2-0.1-0.3-0.3-0.3h-0.8c-0.2,0-0.3,0.1-0.3,0.3v0.8c0,0.2,0.1,0.3,0.3,0.3h0.8C500.7,118.5,500.8,118.3,500.8,118.2
							 M503.4,119h-0.8c-0.2,0-0.3,0.1-0.3,0.3v0v0.8c0,0.2,0.1,0.3,0.3,0.3l0,0h0.8c0.2,0,0.3-0.1,0.3-0.3v0v-0.8
							C503.7,119.1,503.6,119,503.4,119L503.4,119 M501.4,119h-0.8c-0.2,0-0.3,0.1-0.3,0.3v0v0.8c0,0.2,0.1,0.3,0.3,0.3l0,0h0.8
							c0.2,0,0.3-0.1,0.3-0.3v0v-0.8C501.7,119.1,501.6,119,501.4,119L501.4,119"/>
						<path class="st18" d="M504.3,114.9c0.3,0.3,0.8,0.4,1.2,0.4c0,0,0,0,0,0.1v2.1c0,0.8-1,1.3-1.2,1.4l0,0L504.3,114.9
							L504.3,114.9"/>
						<path class="st18" d="M502,114.8c1.6-0.1,1.9-0.6,1.9-0.6c0,0,0,0,0.1,0c0,0,0.1,0,0.1,0s0.3,0.6,1.9,0.6c0,0,0.1,0,0.1,0.1
							v2.8c0,0.9-1.7,1.9-1.7,1.9h0v0.7c0,0,0.1,0.1,0.1,0c0.6-0.3,2.3-1.3,2.3-2.5v-3.5c0-0.1-0.1-0.1-0.2-0.1
							c-2,0-2.4-0.8-2.4-0.8s-0.1,0-0.1,0s-0.1,0-0.1,0s-0.3,0.8-2.4,0.8c-0.1,0-0.1,0-0.1,0.1v0.4c0,0,0,0.1,0,0.1L502,114.8"/>
						<path class="st19" d="M508.2,119.3l0.8-0.3c0.2,0.4,0.6,0.6,1.1,0.6c0.2,0,0.4,0,0.6-0.1c0.2-0.1,0.3-0.3,0.3-0.5
							c0-0.4-0.6-0.7-1-0.9l0,0c-0.3-0.1-0.7-0.3-1-0.5c-0.3-0.2-0.5-0.6-0.5-1c0-0.4,0.2-0.8,0.5-1c0.3-0.3,0.8-0.4,1.2-0.4
							c0.7,0,1.3,0.3,1.6,0.9l-0.9,0.3c-0.1-0.1-0.2-0.2-0.3-0.3c-0.1-0.1-0.3-0.1-0.5-0.1c-0.5,0-0.8,0.3-0.8,0.6
							c0,0.2,0.1,0.4,0.3,0.5c0.2,0.2,0.5,0.3,0.7,0.4h0.1c0.6,0.3,1.4,0.6,1.4,1.4c0,0.4-0.2,0.8-0.6,1c-0.4,0.3-0.9,0.4-1.3,0.4
							C509.4,120.3,508.6,119.9,508.2,119.3"/>
						<path class="st19" d="M515.5,120.4c-0.3,0-0.7-0.1-1-0.2c-0.3-0.1-0.6-0.3-0.8-0.6c-0.2-0.2-0.4-0.5-0.6-0.8
							c-0.3-0.6-0.3-1.4,0-2c0.1-0.3,0.3-0.6,0.6-0.8c0.2-0.2,0.5-0.4,0.8-0.6c0.3-0.1,0.7-0.2,1-0.2c0.4,0,0.8,0.1,1.2,0.3
							c0.3,0.2,0.7,0.4,0.9,0.8l-0.7,0.5c-0.3-0.4-0.8-0.7-1.4-0.7c-0.5,0-0.9,0.2-1.2,0.5c-0.7,0.7-0.7,1.8-0.1,2.5
							c0.3,0.4,0.8,0.5,1.3,0.5c0.3,0,0.6-0.1,0.9-0.2c0.3-0.2,0.5-0.4,0.6-0.7l0.7,0.4c-0.2,0.4-0.5,0.8-0.9,1
							c-0.4,0.2-0.8,0.4-1.3,0.4"/>
						<path class="st19" d="M521.1,120.4c-0.3,0-0.7-0.1-1-0.2c-0.3-0.1-0.6-0.3-0.8-0.6c-0.5-0.5-0.8-1.1-0.8-1.8
							c0-0.3,0.1-0.7,0.2-1c0.1-0.3,0.3-0.6,0.6-0.8c0.2-0.2,0.5-0.4,0.8-0.6c0.6-0.3,1.4-0.3,2,0c0.3,0.1,0.6,0.3,0.8,0.6
							c0.2,0.2,0.4,0.5,0.5,0.8c0.3,0.6,0.3,1.4,0,2c-0.1,0.3-0.3,0.6-0.5,0.8C522.5,120.1,521.8,120.4,521.1,120.4 M521.1,116
							c-0.5,0-0.9,0.2-1.2,0.5c-0.3,0.3-0.5,0.8-0.5,1.2c0,1,0.8,1.7,1.7,1.7c0.5,0,0.9-0.2,1.2-0.5c0.3-0.3,0.5-0.8,0.5-1.2
							c0-0.5-0.2-0.9-0.5-1.2C522,116.2,521.6,116,521.1,116"/>
						<polygon class="st19" points="529.6,115.2 529.6,120.5 526,117.2 526,120.3 525.1,120.3 525.1,115.1 528.7,118.4 528.7,115.2 
													"/>
						<polygon class="st19" points="532.1,116 532.1,117.4 534.6,117.4 534.6,118.2 532.1,118.2 532.1,119.5 534.9,119.5 
							534.9,120.3 531.2,120.3 531.2,115.2 534.9,115.2 534.9,116 532.1,116 						"/>
					</g>
				</g>
			</g>
		</g>
	</g>
	
		<linearGradient id="SVGID_11_" gradientUnits="userSpaceOnUse" x1="433.25" y1="66.915" x2="601.67" y2="66.915" gradientTransform="matrix(1 0 0 -1 0 302)">
		<stop  offset="0" style="stop-color:#990066"/>
		<stop  offset="0.19" style="stop-color:#780066"/>
		<stop  offset="0.4" style="stop-color:#5A0066"/>
		<stop  offset="0.61" style="stop-color:#440066"/>
		<stop  offset="0.81" style="stop-color:#370066"/>
		<stop  offset="1" style="stop-color:#330066"/>
	</linearGradient>
	<path class="st23" d="M438.3,197.9h158.4c2.8,0,5,2.2,5,5v64.3c0,2.8-2.2,5-5,5H438.3c-2.8,0-5-2.2-5-5v-64.3
		C433.3,200.2,435.5,197.9,438.3,197.9z"/>
	<g class="st2">
		<path class="st14" d="M485.8,234.9v-1.2h1v-0.4c0-0.8,0.2-1.4,0.7-1.9c0.5-0.4,1.2-0.7,2.1-0.7c0.3,0,0.6,0,0.9,0.1
			s0.7,0.2,1.1,0.3l-0.3,1.4c-0.3-0.1-0.6-0.2-0.8-0.2c-0.2,0-0.5-0.1-0.8-0.1c-0.4,0-0.7,0.1-0.9,0.3s-0.3,0.5-0.3,0.8v0.4h3.9v5.2
			l0.9,0.2v1h-3.5v-1l0.8-0.2v-4h-2.2v4l0.8,0.2v1h-3.5v-1l0.9-0.2v-4H485.8z"/>
		<path class="st14" d="M493.8,231.9v-1.1h2.7v8.1l0.8,0.2v1h-3.4v-1l0.8-0.2V232L493.8,231.9z"/>
		<path class="st14" d="M501,240.3c-0.9,0-1.7-0.3-2.2-0.9s-0.8-1.4-0.8-2.3v-0.2c0-1,0.3-1.8,0.8-2.4c0.5-0.6,1.2-0.9,2.1-0.9
			c0.9,0,1.5,0.3,2,0.8c0.5,0.5,0.7,1.2,0.7,2.1v1h-3.9l0,0c0,0.4,0.2,0.8,0.4,1.1c0.3,0.3,0.6,0.4,1,0.4c0.4,0,0.7,0,1-0.1
			c0.3-0.1,0.5-0.2,0.8-0.4l0.5,1.1c-0.3,0.2-0.6,0.4-1,0.5C502,240.2,501.5,240.3,501,240.3z M500.8,234.9c-0.3,0-0.6,0.1-0.8,0.4
			c-0.2,0.2-0.3,0.6-0.3,1l0,0h2.1v-0.2c0-0.4-0.1-0.7-0.3-0.9C501.4,235,501.2,234.9,500.8,234.9z"/>
		<path class="st14" d="M512.7,235.9h-1.2l-0.2-0.8c-0.1-0.1-0.3-0.2-0.5-0.2c-0.2-0.1-0.4-0.1-0.6-0.1c-0.3,0-0.5,0.1-0.7,0.2
			c-0.2,0.1-0.3,0.3-0.3,0.5c0,0.2,0.1,0.4,0.3,0.5c0.2,0.1,0.5,0.2,1,0.3c0.8,0.2,1.4,0.4,1.8,0.7s0.6,0.7,0.6,1.3
			c0,0.6-0.3,1.1-0.8,1.4c-0.5,0.4-1.2,0.6-2,0.6c-0.5,0-1-0.1-1.4-0.2c-0.4-0.1-0.8-0.4-1.1-0.6l0-1.5h1.2l0.2,0.8
			c0.1,0.1,0.2,0.2,0.4,0.2c0.2,0,0.4,0.1,0.6,0.1c0.4,0,0.6-0.1,0.8-0.2c0.2-0.1,0.3-0.3,0.3-0.5c0-0.2-0.1-0.4-0.3-0.5
			c-0.2-0.1-0.5-0.3-1-0.4c-0.8-0.2-1.3-0.4-1.7-0.7c-0.4-0.3-0.6-0.7-0.6-1.2c0-0.5,0.2-1,0.7-1.4s1.1-0.6,1.9-0.6
			c0.5,0,1,0.1,1.4,0.2s0.8,0.3,1.1,0.5L512.7,235.9z"/>
		<path class="st14" d="M520.4,234.7l-0.6,0.1l-2.4,6.3c-0.2,0.5-0.4,0.9-0.8,1.2c-0.3,0.3-0.8,0.5-1.4,0.5c-0.1,0-0.3,0-0.4,0
			c-0.1,0-0.3-0.1-0.5-0.1l0.2-1.3c0.1,0,0.1,0,0.2,0c0.1,0,0.1,0,0.2,0c0.3,0,0.5-0.1,0.7-0.2c0.2-0.1,0.3-0.3,0.4-0.5l0.2-0.5
			l-2-5.3l-0.6-0.1v-1.1h3.2v1.1l-0.7,0.1l0.9,2.6l0.1,0.5l0,0l1-3.1l-0.7-0.1v-1.1h3.2V234.7z"/>
		<path class="st14" d="M526.2,235.9H525l-0.2-0.8c-0.1-0.1-0.3-0.2-0.5-0.2c-0.2-0.1-0.4-0.1-0.6-0.1c-0.3,0-0.5,0.1-0.7,0.2
			c-0.2,0.1-0.3,0.3-0.3,0.5c0,0.2,0.1,0.4,0.3,0.5c0.2,0.1,0.5,0.2,1,0.3c0.8,0.2,1.4,0.4,1.8,0.7s0.6,0.7,0.6,1.3
			c0,0.6-0.3,1.1-0.8,1.4c-0.5,0.4-1.2,0.6-2,0.6c-0.5,0-1-0.1-1.4-0.2c-0.4-0.1-0.8-0.4-1.1-0.6l0-1.5h1.2l0.2,0.8
			c0.1,0.1,0.2,0.2,0.4,0.2c0.2,0,0.4,0.1,0.6,0.1c0.4,0,0.6-0.1,0.8-0.2c0.2-0.1,0.3-0.3,0.3-0.5c0-0.2-0.1-0.4-0.3-0.5
			c-0.2-0.1-0.5-0.3-1-0.4c-0.8-0.2-1.3-0.4-1.7-0.7c-0.4-0.3-0.6-0.7-0.6-1.2c0-0.5,0.2-1,0.7-1.4s1.1-0.6,1.9-0.6
			c0.5,0,1,0.1,1.4,0.2s0.8,0.3,1.1,0.5L526.2,235.9z"/>
		<path class="st14" d="M529.8,232.1v1.6h1.1v1.2h-1.1v3.3c0,0.3,0.1,0.4,0.2,0.5s0.2,0.2,0.4,0.2c0.1,0,0.2,0,0.3,0
			c0.1,0,0.2,0,0.3-0.1l0.1,1.3c-0.2,0.1-0.4,0.1-0.6,0.1c-0.2,0-0.4,0-0.6,0c-0.6,0-1.1-0.2-1.4-0.5c-0.3-0.3-0.5-0.9-0.5-1.6v-3.3
			h-1v-1.2h1v-1.6H529.8z"/>
		<path class="st14" d="M534.9,240.3c-0.9,0-1.7-0.3-2.2-0.9s-0.8-1.4-0.8-2.3v-0.2c0-1,0.3-1.8,0.8-2.4c0.5-0.6,1.2-0.9,2.1-0.9
			c0.9,0,1.5,0.3,2,0.8c0.5,0.5,0.7,1.2,0.7,2.1v1h-3.9l0,0c0,0.4,0.2,0.8,0.4,1.1c0.3,0.3,0.6,0.4,1,0.4c0.4,0,0.7,0,1-0.1
			c0.3-0.1,0.5-0.2,0.8-0.4l0.5,1.1c-0.3,0.2-0.6,0.4-1,0.5C535.9,240.2,535.4,240.3,534.9,240.3z M534.7,234.9
			c-0.3,0-0.6,0.1-0.8,0.4c-0.2,0.2-0.3,0.6-0.3,1l0,0h2.1v-0.2c0-0.4-0.1-0.7-0.3-0.9C535.3,235,535.1,234.9,534.7,234.9z"/>
		<path class="st14" d="M538.1,234.7v-1.1h2.6l0.1,0.9c0.2-0.3,0.5-0.6,0.8-0.7c0.3-0.2,0.7-0.3,1.1-0.3c0.4,0,0.8,0.1,1.1,0.3
			c0.3,0.2,0.5,0.5,0.7,0.8c0.2-0.3,0.5-0.6,0.8-0.8c0.3-0.2,0.7-0.3,1.1-0.3c0.6,0,1.1,0.2,1.5,0.7s0.6,1.1,0.6,2v2.7l0.8,0.2v1
			h-3.3v-1l0.8-0.2v-2.7c0-0.5-0.1-0.8-0.2-1c-0.2-0.2-0.4-0.3-0.7-0.3c-0.2,0-0.5,0.1-0.6,0.2c-0.2,0.1-0.3,0.3-0.4,0.5
			c0,0.1,0,0.1,0,0.2c0,0.1,0,0.1,0,0.2v3l0.7,0.2v1h-3.1v-1l0.7-0.2v-2.7c0-0.5-0.1-0.8-0.2-1s-0.4-0.3-0.7-0.3
			c-0.2,0-0.4,0-0.6,0.1c-0.2,0.1-0.3,0.2-0.4,0.4v3.5l0.8,0.2v1h-3.3v-1l0.8-0.2v-4L538.1,234.7z"/>
	</g>
	<g class="st2">
		<path class="st14" d="M361.9,79.2c-0.3,0.2-0.7,0.4-1.1,0.5c-0.4,0.1-0.9,0.2-1.3,0.2c-0.6,0-1.1-0.1-1.5-0.3
			c-0.4-0.2-0.8-0.5-1-0.8c-0.3-0.3-0.4-0.8-0.6-1.3c-0.1-0.5-0.2-1-0.2-1.6c0-1.3,0.3-2.2,0.9-2.9c0.6-0.7,1.4-1,2.5-1
			c0.5,0,1,0,1.3,0.1s0.6,0.2,0.9,0.3l-0.5,1.6c-0.2-0.1-0.5-0.2-0.7-0.3c-0.2-0.1-0.5-0.1-0.8-0.1c-0.5,0-0.9,0.2-1.2,0.5
			c-0.3,0.4-0.4,0.9-0.4,1.7c0,0.3,0,0.6,0.1,0.9c0.1,0.3,0.2,0.5,0.3,0.7s0.3,0.4,0.5,0.5c0.2,0.1,0.5,0.2,0.8,0.2
			c0.3,0,0.6,0,0.8-0.1c0.2-0.1,0.4-0.2,0.6-0.3L361.9,79.2z"/>
		<path class="st14" d="M367.4,79.7v-4.1c0-0.7-0.1-1.2-0.2-1.5s-0.4-0.4-0.8-0.4c-0.3,0-0.6,0.1-0.8,0.3c-0.2,0.2-0.4,0.4-0.5,0.7
			v5h-2v-7.5h1.5l0.2,1h0.1c0.2-0.3,0.5-0.6,0.9-0.8c0.4-0.2,0.8-0.4,1.4-0.4c0.5,0,0.9,0.1,1.2,0.3c0.3,0.2,0.5,0.5,0.7,1
			c0.2-0.4,0.5-0.7,0.9-0.9c0.4-0.2,0.8-0.3,1.3-0.3c0.4,0,0.8,0,1.1,0.2c0.3,0.1,0.5,0.3,0.7,0.5c0.2,0.2,0.3,0.6,0.4,1
			s0.1,0.9,0.1,1.6v4.5h-2v-4.2c0-0.6-0.1-1-0.2-1.3c-0.1-0.3-0.4-0.4-0.8-0.4c-0.4,0-0.6,0.1-0.8,0.3c-0.2,0.2-0.4,0.5-0.5,0.8v4.9
			H367.4z"/>
		<path class="st14" d="M381.5,77c0,0.4,0,0.8,0,1.3s0.1,0.9,0.1,1.4h-1.4l-0.3-1H380c-0.2,0.4-0.5,0.6-0.9,0.8s-0.8,0.3-1.3,0.3
			c-0.9,0-1.7-0.3-2.2-0.9s-0.8-1.6-0.8-2.9c0-1.3,0.3-2.3,0.9-3c0.6-0.7,1.4-1.1,2.5-1.1c0.3,0,0.6,0,0.8,0.1
			c0.2,0,0.4,0.1,0.6,0.2v-3h2V77z M378.2,78.2c0.4,0,0.7-0.1,0.9-0.3c0.2-0.2,0.4-0.5,0.5-0.8V74c-0.1-0.1-0.3-0.2-0.5-0.2
			s-0.4-0.1-0.7-0.1c-0.5,0-1,0.2-1.2,0.6s-0.4,1-0.4,1.9c0,0.6,0.1,1.2,0.3,1.5C377.4,78,377.7,78.2,378.2,78.2z"/>
	</g>
	<line class="st12" x1="426.7" y1="89.8" x2="425.7" y2="89.8"/>
	<line class="st24" x1="423.8" y1="89.8" x2="318.5" y2="89.8"/>
	<line class="st12" x1="317.5" y1="89.8" x2="316.5" y2="89.8"/>
	<polygon class="st14" points="420.1,81.7 418.7,83.1 426,89.8 418.7,96.5 420.1,98 428.9,89.8 	"/>
	<line class="st12" x1="518.1" y1="178.5" x2="518.1" y2="177.5"/>
	<line class="st25" x1="518.1" y1="175.5" x2="518.1" y2="136"/>
	<line class="st12" x1="518.1" y1="135" x2="518.1" y2="134"/>
	<polygon class="st14" points="526.3,171.9 524.8,170.5 518.1,177.8 511.4,170.5 509.9,171.9 518.1,180.7 	"/>
	<line class="st7" x1="401.4" y1="222.3" x2="327.9" y2="222.3"/>
	<polygon class="st26" points="394.7,214.1 393.4,215.5 400.6,222.3 393.4,229 394.7,230.4 403.5,222.3 	"/>
	<line class="st7" x1="406.3" y1="143" x2="328.9" y2="192.1"/>
	<polygon class="st26" points="396.4,139.6 396,141.6 405.7,143.4 403.2,152.9 405.1,153.4 408.2,141.8 	"/>
	<path class="st15" d="M509.3,188.4c4.6-4.5,12.1-4.5,16.6,0.2c4.5,4.6,4.5,12.1-0.2,16.6c-4.6,4.5-12.1,4.5-16.6-0.2
		c-2.1-2.2-3.4-5.1-3.4-8.2c0-2.6,0.8-5.1,2.4-7.1"/>
	<path class="st13" d="M517.5,202.5h-4.2c-0.6,0-0.8-0.2-0.8-0.8v-6.5c0-0.6,0.2-0.8,0.8-0.8h8.5c0.5,0,0.8,0.2,0.8,0.8v6.5
		c0,0.6-0.2,0.8-0.8,0.8C520.3,202.5,518.9,202.5,517.5,202.5z"/>
	<path class="st13" d="M513.1,193.8c0-1.8,1-3.4,2.6-4.1c2.1-0.9,4.6,0,5.5,2.1c0.1,0.2,0.2,0.5,0.2,0.7c0.1,0.4,0.1,0.8,0.2,1.2"/>
	<path class="st14" d="M516.8,199.7L516.8,199.7v0.9c0,0.2,0.1,0.2,0.3,0.2h0.8c0.2,0,0.3-0.1,0.3-0.3v-1.6c0-0.2,0.1-0.3,0.2-0.4
		c0.5-0.3,0.8-0.9,0.6-1.4c-0.2-0.6-0.8-1-1.5-1c-0.7,0-1.3,0.3-1.6,0.9c-0.2,0.6,0,1.2,0.5,1.5c0.2,0.1,0.3,0.3,0.3,0.5
		C516.8,199.2,516.8,199.5,516.8,199.7z"/>
	<g class="st2">
		<path class="st3" d="M27,116.9c-0.2,0.3-0.5,0.5-0.8,0.7c-0.3,0.2-0.7,0.2-1,0.2c-0.7,0-1.2-0.2-1.6-0.7c-0.4-0.4-0.6-1.1-0.6-2
			v-2.7l-0.7-0.2v-1.1H23h1.7v3.9c0,0.5,0.1,0.8,0.2,1s0.4,0.3,0.7,0.3c0.3,0,0.5,0,0.7-0.1c0.2-0.1,0.4-0.2,0.5-0.4v-3.5l-0.8-0.2
			v-1.1h0.8h1.7v5.2l0.8,0.2v1h-2.3L27,116.9z"/>
		<path class="st3" d="M35.4,113.5h-1.2l-0.2-0.8c-0.1-0.1-0.3-0.2-0.5-0.2c-0.2-0.1-0.4-0.1-0.6-0.1c-0.3,0-0.5,0.1-0.7,0.2
			s-0.3,0.3-0.3,0.5c0,0.2,0.1,0.4,0.3,0.5c0.2,0.1,0.5,0.2,1,0.3c0.8,0.2,1.4,0.4,1.8,0.7c0.4,0.3,0.6,0.7,0.6,1.3
			c0,0.6-0.3,1.1-0.8,1.4c-0.5,0.4-1.2,0.6-2,0.6c-0.5,0-1-0.1-1.4-0.2s-0.8-0.4-1.1-0.6l0-1.5h1.2l0.2,0.8c0.1,0.1,0.2,0.2,0.4,0.2
			c0.2,0,0.4,0.1,0.6,0.1c0.4,0,0.6-0.1,0.8-0.2c0.2-0.1,0.3-0.3,0.3-0.5c0-0.2-0.1-0.4-0.3-0.5c-0.2-0.1-0.5-0.3-1-0.4
			c-0.8-0.2-1.3-0.4-1.7-0.7c-0.4-0.3-0.6-0.7-0.6-1.2c0-0.5,0.2-1,0.7-1.4s1.1-0.6,1.9-0.6c0.5,0,1,0.1,1.4,0.2s0.8,0.3,1.1,0.5
			L35.4,113.5z"/>
		<path class="st3" d="M39.5,117.9c-0.9,0-1.7-0.3-2.2-0.9c-0.6-0.6-0.8-1.4-0.8-2.3v-0.2c0-1,0.3-1.8,0.8-2.4
			c0.5-0.6,1.2-0.9,2.1-0.9c0.9,0,1.5,0.3,2,0.8c0.5,0.5,0.7,1.2,0.7,2.1v1h-3.9l0,0c0,0.4,0.2,0.8,0.4,1.1c0.3,0.3,0.6,0.4,1,0.4
			c0.4,0,0.7,0,1-0.1c0.3-0.1,0.5-0.2,0.8-0.4l0.5,1.1c-0.3,0.2-0.6,0.4-1,0.5S40,117.9,39.5,117.9z M39.4,112.5
			c-0.3,0-0.6,0.1-0.8,0.4c-0.2,0.2-0.3,0.6-0.3,1l0,0h2.1v-0.2c0-0.4-0.1-0.7-0.3-0.9C40,112.6,39.7,112.5,39.4,112.5z"/>
		<path class="st3" d="M43.1,116.7l0.8-0.2v-4l-0.9-0.2v-1.1h2.6l0.1,0.9c0.2-0.3,0.3-0.6,0.6-0.8c0.2-0.2,0.5-0.3,0.8-0.3
			c0.1,0,0.2,0,0.3,0c0.1,0,0.2,0,0.3,0.1l-0.2,1.6l-0.7,0c-0.3,0-0.5,0-0.6,0.1c-0.2,0.1-0.3,0.2-0.4,0.4v3.1l0.8,0.2v1h-3.4V116.7
			z"/>
	</g>
	<path class="st3" d="M38.7,76c0.4,0,0.7,0.3,0.7,0.7c0,0.4-0.3,0.7-0.7,0.7c-0.4,0-0.7-0.3-0.7-0.7C38,76.3,38.4,76,38.7,76z"/>
	<circle class="st3" cx="33" cy="76.7" r="0.7"/>
	<path class="st9" d="M40.1,85.7v2.2h0.9c0.3,0,0.6,0,0.9,0.1c1,0.1,2,0.6,2.8,1.2c1,0.7,1.6,1.8,1.6,3v4.6H25.5v-4.6
		c0-1.2,0.6-2.3,1.6-3c0.8-0.6,1.8-1,2.8-1.2c0.3-0.1,0.6-0.1,0.9-0.1h0.9v-2.3"/>
	<path class="st10" d="M28.3,74.7c0,1.8,0.1,2.6,0.1,4.4c-0.1,4.2,3.3,7.7,7.5,7.8c4.1,0,7.5-3.3,7.5-7.4c0,0,0,0,0-0.1v-5"/>
	<path class="st10" d="M28.3,74.6l0.6-4.6c1.4-0.4,8.1,3.7,11.2-1.4c0,0-0.8,2.5,3.3,5.4v0.6"/>
	<path class="st10" d="M48.6,74.7c0,1.2-1,2.1-2.2,2.2v-4.3C47.6,72.6,48.5,73.6,48.6,74.7z"/>
	<path class="st10" d="M26.2,76.4v0.7c0.2,1,1.1,1.8,2.2,1.8v-4.3C27.3,74.6,26.3,75.3,26.2,76.4z"/>
	<path class="st10" d="M33.8,81.4c0.5,0.7,1.3,1.1,2.1,1.1c0.8,0,1.6-0.4,2.1-1.1"/>
	<path class="st10" d="M26.2,75.4V70c0-3.8,4.3-8.3,9.7-8.3s9.7,4.5,9.7,8.3v5.5"/>
	<path class="st3" d="M35.9,61.6c5.4,0,9.7,4.5,9.7,8.3v5.5h-0.4c0.3,0.4,0.4,0.8,0.4,1.2c0,1.2-1,2.1-2.2,2.2v0.5
		c0,2.5-1.3,4.9-3.4,6.2h0.1v2.2h0.9c0.3,0,0.6,0,0.9,0.1c1,0.1,2,0.6,2.8,1.2c1,0.7,1.6,1.8,1.6,3v4.6H25.5v-4.6
		c0-1.2,0.6-2.3,1.6-3c0.8-0.6,1.8-1,2.8-1.2c0.3-0.1,0.6-0.1,0.9-0.1h0.9v-2.3h0.3c-2.2-1.5-3.5-4-3.5-6.7c0-0.2,0-0.5,0-0.7
		c0,0.2,0,0.4,0,0.6c-1.1,0-2-0.7-2.2-1.8v-0.7c0-0.4,0.2-0.7,0.4-1h-0.4V70C26.2,66.2,30.5,61.7,35.9,61.6 M35.9,59.7
		c-6.6,0-11.7,5.6-11.7,10.3v5.4c0,0.2,0,0.3,0.1,0.5c0,0.1,0,0.1,0,0.2c0,0.1,0,0.2,0,0.3v0.7c0,0.1,0,0.2,0,0.3
		c0.2,1.4,1.1,2.5,2.3,3.1c0.3,2.1,1.2,4,2.7,5.5c-1.2,0.2-2.4,0.8-3.4,1.6c-1.5,1.1-2.3,2.8-2.3,4.6v4.6c0,1.1,0.9,2,2,2h20.7
		c1.1,0,2-0.9,2-2v-4.6c0-1.8-0.9-3.5-2.3-4.6c-0.9-0.8-2-1.3-3.2-1.5c1.5-1.5,2.5-3.5,2.7-5.7c1.3-0.7,2.2-2.1,2.2-3.7
		c0-0.2,0-0.5-0.1-0.7c0-0.2,0.1-0.3,0.1-0.5V70C47.6,65.2,42.5,59.7,35.9,59.7L35.9,59.7z"/>
</g>
<g id="Ebene_4">
	<g class="st2">
		<path class="st3" d="M92.2,80.7c-0.1,0-0.1,0-0.2,0c-0.1,0-0.1,0-0.2,0c-0.3,0-0.6,0.1-0.9,0.3c-0.2,0.2-0.4,0.5-0.6,0.8l-0.7,3.3
			h-0.8l1.1-5h0.5v0.9h0c0.1-0.1,0.2-0.2,0.3-0.4c0.1-0.1,0.2-0.2,0.3-0.3s0.2-0.2,0.4-0.2s0.3-0.1,0.4-0.1c0.1,0,0.3,0,0.5,0.1
			L92.2,80.7z"/>
		<path class="st3" d="M93.9,80.1l-0.7,3.3c0,0.2-0.1,0.3-0.1,0.5c0,0.2,0,0.3,0.1,0.5s0.2,0.2,0.4,0.2c0.2,0,0.3,0,0.5-0.1
			c0.2-0.1,0.3-0.2,0.5-0.3c0.1-0.1,0.3-0.3,0.4-0.4c0.1-0.2,0.2-0.3,0.3-0.5l0.7-3.2h0.8l-0.6,3c0,0.1-0.1,0.3-0.1,0.4
			c0,0.2-0.1,0.3-0.1,0.5c0,0.2,0,0.4-0.1,0.5s0,0.3,0,0.4v0.1h-0.6v-1h0c-0.1,0.1-0.2,0.3-0.3,0.4c-0.1,0.1-0.3,0.2-0.4,0.3
			c-0.2,0.1-0.3,0.2-0.5,0.2c-0.2,0.1-0.4,0.1-0.6,0.1c-0.1,0-0.3,0-0.4,0c-0.1,0-0.2-0.1-0.3-0.2c-0.1-0.1-0.2-0.2-0.2-0.3
			c-0.1-0.1-0.1-0.3-0.1-0.5c0-0.2,0-0.5,0.1-0.8l0.7-3.3H93.9z"/>
		<path class="st3" d="M100.2,85.1l0.7-3.2c0-0.1,0-0.2,0.1-0.4c0-0.1,0-0.2,0-0.3c0-0.2,0-0.3-0.1-0.5c-0.1-0.1-0.3-0.2-0.5-0.2
			c-0.2,0-0.3,0-0.5,0.1c-0.2,0.1-0.3,0.2-0.5,0.3c-0.1,0.1-0.3,0.3-0.4,0.4c-0.1,0.1-0.2,0.3-0.3,0.4L98,85.1h-0.8l1.1-5h0.5l0,0.9
			h0c0.1-0.1,0.2-0.2,0.3-0.3c0.1-0.1,0.3-0.2,0.4-0.3c0.2-0.1,0.3-0.2,0.5-0.2c0.2-0.1,0.4-0.1,0.6-0.1c0.3,0,0.6,0.1,0.8,0.2
			s0.3,0.4,0.3,0.8c0,0.2,0,0.4-0.1,0.7l-0.7,3.3H100.2z"/>
	</g>
	<line class="st27" x1="63" y1="90.3" x2="140.9" y2="90.3"/>
	<polygon class="st3" points="136.3,96.1 135.4,95 140.4,90.3 135.4,85.6 136.3,84.6 142.5,90.3 	"/>
</g>
</svg>
