<?xml version="1.0" encoding="utf-8"?>
<!-- Generator: Adobe Illustrator 24.0.0, SVG Export Plug-In . SVG Version: 6.00 Build 0)  -->
<svg version="1.1" id="Ebene_1" xmlns="http://www.w3.org/2000/svg" xmlns:xlink="http://www.w3.org/1999/xlink" x="0px" y="0px"
	 viewBox="0 0 869.4 224.6" style="enable-background:new 0 0 869.4 224.6;" xml:space="preserve">
<style type="text/css">
	.st0{enable-background:new    ;}
	.st1{fill:#990066;}
	.st2{fill:#FFCC00;}
	.st3{fill:url(#SVGID_1_);}
	.st4{fill:none;stroke:#FFCC00;stroke-width:2;stroke-miterlimit:10;}
	.st5{fill:none;stroke:#FFCC00;stroke-width:2;stroke-linecap:round;stroke-linejoin:round;}
	.st6{fill:#FFFFFF;stroke:#FFCC00;stroke-width:2;stroke-linecap:round;stroke-linejoin:round;}
	.st7{clip-path:url(#SVGID_3_);}
	.st8{clip-path:url(#SVGID_5_);}
	.st9{fill:#FFD138;}
	.st10{fill:#FDFEFF;}
	.st11{fill:none;stroke:#990066;stroke-width:2;stroke-miterlimit:10;}
</style>
<g id="Ebene_2_1_">
	<g class="st0">
		<path class="st1" d="M216.5,46.1H215l3.7-10.8h1.5L216.5,46.1z"/>
		<path class="st1" d="M224.3,45.4c-1.1,0-1.9-0.3-2.6-1s-1-1.6-1-2.6v-0.3c0-1.1,0.3-2,0.9-2.7s1.4-1.1,2.4-1.1
			c1,0,1.8,0.3,2.3,0.9s0.8,1.4,0.8,2.4v1.1h-4.4l0,0c0,0.5,0.2,0.9,0.5,1.2s0.7,0.5,1.2,0.5c0.4,0,0.8,0,1.1-0.1
			c0.3-0.1,0.6-0.2,1-0.4l0.5,1.2c-0.3,0.2-0.7,0.4-1.2,0.6S224.9,45.4,224.3,45.4z M224.1,39.3c-0.4,0-0.7,0.1-0.9,0.4
			s-0.3,0.7-0.4,1.1l0,0h2.4v-0.2c0-0.4-0.1-0.8-0.3-1C224.8,39.4,224.5,39.3,224.1,39.3z"/>
	</g>
	<g class="st0">
		<path class="st1" d="M228.1,44.1l1-0.2v-4.6l-1.1-0.2v-1.2h2.9l0.1,1.1c0.2-0.4,0.5-0.7,0.9-0.9s0.8-0.3,1.2-0.3
			c0.7,0,1.3,0.2,1.8,0.7s0.6,1.2,0.6,2.2v3.2l1,0.2v1.2h-3.8v-1.2l0.9-0.2v-3.2c0-0.5-0.1-0.8-0.3-1.1c-0.2-0.2-0.5-0.3-0.9-0.3
			c-0.3,0-0.5,0.1-0.7,0.2c-0.2,0.1-0.4,0.3-0.5,0.5v4l0.8,0.2v1.2h-3.8V44.1z"/>
	</g>
	<g class="st0">
		<path class="st1" d="M240.5,43.9c0.4,0,0.6-0.1,0.9-0.3c0.2-0.2,0.3-0.5,0.3-0.8h1.8l0,0c0,0.7-0.3,1.4-0.8,1.9
			c-0.6,0.5-1.3,0.8-2.2,0.8c-1.1,0-2-0.3-2.5-1s-0.9-1.6-0.9-2.7v-0.2c0-1.1,0.3-2,0.9-2.7s1.5-1.1,2.6-1.1c0.6,0,1.1,0.1,1.6,0.3
			s0.9,0.4,1.2,0.8l0,2h-1.6l-0.3-1.2c-0.1-0.1-0.2-0.2-0.4-0.2c-0.1-0.1-0.3-0.1-0.5-0.1c-0.6,0-1,0.2-1.2,0.6s-0.3,0.9-0.3,1.6
			v0.2c0,0.7,0.1,1.2,0.3,1.6C239.6,43.7,239.9,43.9,240.5,43.9z"/>
	</g>
	<g class="st0">
		<path class="st1" d="M244.5,44.1l1-0.2v-4.6l-1.1-0.2v-1.2h2.9l0.1,1.1c0.2-0.4,0.4-0.7,0.7-0.9s0.6-0.3,1-0.3c0.1,0,0.2,0,0.3,0
			c0.1,0,0.2,0,0.3,0.1l-0.2,1.8l-0.8,0c-0.3,0-0.5,0.1-0.7,0.2s-0.3,0.3-0.4,0.5v3.6l1,0.2v1.2h-3.9V44.1z"/>
	</g>
	<g class="st0">
		<path class="st1" d="M258,39.1l-0.7,0.1l-2.7,7.2c-0.2,0.5-0.5,1-0.9,1.3s-0.9,0.5-1.6,0.5c-0.2,0-0.3,0-0.5,0s-0.3-0.1-0.5-0.1
			l0.2-1.5c0.1,0,0.1,0,0.2,0s0.1,0,0.2,0c0.3,0,0.6-0.1,0.8-0.2c0.2-0.2,0.3-0.4,0.4-0.6l0.2-0.6l-2.3-6.1l-0.7-0.1v-1.2h3.6v1.2
			l-0.8,0.1l1,3l0.1,0.5l0,0l1.2-3.5l-0.8-0.1v-1.2h3.6V39.1z"/>
		<path class="st1" d="M258.5,39.1v-1.2h2.9l0.1,0.9c0.2-0.3,0.5-0.6,0.8-0.7s0.7-0.3,1.1-0.3c0.9,0,1.6,0.4,2.1,1.1
			s0.8,1.7,0.8,2.8v0.1c0,1.1-0.3,2-0.8,2.6s-1.2,1-2.1,1c-0.4,0-0.7-0.1-1-0.2c-0.3-0.1-0.6-0.4-0.8-0.6v2.1l1,0.2v1.2h-3.9v-1.2
			l1-0.2v-7.4L258.5,39.1z M264.3,41.6c0-0.7-0.1-1.3-0.3-1.7s-0.6-0.6-1.1-0.6c-0.3,0-0.6,0.1-0.8,0.2s-0.4,0.3-0.5,0.5v3.2
			c0.1,0.2,0.3,0.4,0.5,0.5s0.5,0.2,0.8,0.2c0.5,0,0.8-0.2,1.1-0.6s0.3-0.9,0.3-1.5V41.6z"/>
		<path class="st1" d="M270.1,36v1.8h1.3v1.4h-1.3V43c0,0.3,0.1,0.5,0.2,0.6s0.3,0.2,0.5,0.2c0.1,0,0.3,0,0.4,0c0.1,0,0.2,0,0.3-0.1
			l0.2,1.4c-0.2,0.1-0.4,0.1-0.7,0.2c-0.2,0-0.5,0.1-0.7,0.1c-0.7,0-1.2-0.2-1.6-0.6s-0.6-1-0.6-1.8v-3.8H267v-1.4h1.1V36H270.1z"/>
		<path class="st1" d="M275.9,45.4c-1.1,0-1.9-0.3-2.6-1s-1-1.6-1-2.6v-0.3c0-1.1,0.3-2,0.9-2.7s1.4-1.1,2.4-1.1
			c1,0,1.8,0.3,2.3,0.9s0.8,1.4,0.8,2.4v1.1h-4.4l0,0c0,0.5,0.2,0.9,0.5,1.2s0.7,0.5,1.2,0.5c0.4,0,0.8,0,1.1-0.1
			c0.3-0.1,0.6-0.2,1-0.4l0.5,1.2c-0.3,0.2-0.7,0.4-1.2,0.6S276.5,45.4,275.9,45.4z M275.7,39.3c-0.4,0-0.7,0.1-0.9,0.4
			s-0.3,0.7-0.4,1.1l0,0h2.4v-0.2c0-0.4-0.1-0.8-0.3-1C276.4,39.4,276.1,39.3,275.7,39.3z"/>
		<path class="st1" d="M284.6,44.3c-0.2,0.3-0.5,0.6-0.8,0.8s-0.7,0.3-1.1,0.3c-0.9,0-1.6-0.3-2.1-1s-0.8-1.5-0.8-2.6v-0.1
			c0-1.2,0.3-2.1,0.8-2.8s1.2-1.1,2.1-1.1c0.4,0,0.7,0.1,1,0.2c0.3,0.2,0.6,0.4,0.8,0.7V36l-1.1-0.2v-1.2h1.1h2v9.3l1,0.2v1.2h-2.7
			L284.6,44.3z M281.9,41.8c0,0.6,0.1,1.2,0.3,1.5c0.2,0.4,0.6,0.6,1.1,0.6c0.3,0,0.5-0.1,0.8-0.2s0.4-0.3,0.5-0.5V40
			c-0.1-0.2-0.3-0.4-0.5-0.6c-0.2-0.1-0.5-0.2-0.7-0.2c-0.5,0-0.8,0.2-1.1,0.6s-0.3,1-0.3,1.7V41.8z"/>
		<path class="st1" d="M288.1,36.5v-1.2h4.1v1.2l-1.1,0.2v7.1l1.1,0.2v1.2h-4.1v-1.2l1.1-0.2v-7.1L288.1,36.5z"/>
		<path class="st1" d="M292.9,44.1l1-0.2v-4.6l-1.1-0.2v-1.2h2.9l0.1,1.1c0.2-0.4,0.5-0.7,0.9-0.9s0.8-0.3,1.2-0.3
			c0.7,0,1.3,0.2,1.8,0.7s0.6,1.2,0.6,2.2v3.2l1,0.2v1.2h-3.8v-1.2l0.9-0.2v-3.2c0-0.5-0.1-0.8-0.3-1.1c-0.2-0.2-0.5-0.3-0.9-0.3
			c-0.3,0-0.5,0.1-0.7,0.2c-0.2,0.1-0.4,0.3-0.5,0.5v4l0.8,0.2v1.2h-3.8V44.1z"/>
		<path class="st1" d="M301.7,39.1v-1.2h2.9l0.1,0.9c0.2-0.3,0.5-0.6,0.8-0.7s0.7-0.3,1.1-0.3c0.9,0,1.6,0.4,2.1,1.1
			s0.8,1.7,0.8,2.8v0.1c0,1.1-0.3,2-0.8,2.6s-1.2,1-2.1,1c-0.4,0-0.7-0.1-1-0.2c-0.3-0.1-0.6-0.4-0.8-0.6v2.1l1,0.2v1.2h-3.9v-1.2
			l1-0.2v-7.4L301.7,39.1z M307.5,41.6c0-0.7-0.1-1.3-0.3-1.7s-0.6-0.6-1.1-0.6c-0.3,0-0.6,0.1-0.8,0.2s-0.4,0.3-0.5,0.5v3.2
			c0.1,0.2,0.3,0.4,0.5,0.5s0.5,0.2,0.8,0.2c0.5,0,0.8-0.2,1.1-0.6s0.3-0.9,0.3-1.5V41.6z"/>
		<path class="st1" d="M315.5,44.3c-0.2,0.3-0.5,0.6-0.9,0.8s-0.7,0.3-1.2,0.3c-0.8,0-1.4-0.2-1.8-0.7c-0.4-0.5-0.7-1.3-0.7-2.3
			v-3.1l-0.8-0.2v-1.2h0.8h2v4.5c0,0.5,0.1,0.9,0.3,1.2c0.2,0.2,0.4,0.4,0.8,0.4c0.3,0,0.6-0.1,0.8-0.2c0.2-0.1,0.4-0.2,0.6-0.4v-4
			l-0.9-0.2v-1.2h0.9h2v6l0.9,0.2v1.2h-2.6L315.5,44.3z"/>
		<path class="st1" d="M322,36v1.8h1.3v1.4H322V43c0,0.3,0.1,0.5,0.2,0.6s0.3,0.2,0.5,0.2c0.1,0,0.3,0,0.4,0c0.1,0,0.2,0,0.3-0.1
			l0.2,1.4c-0.2,0.1-0.4,0.1-0.7,0.2c-0.2,0-0.5,0.1-0.7,0.1c-0.7,0-1.2-0.2-1.6-0.6s-0.6-1-0.6-1.8v-3.8H319v-1.4h1.1V36H322z"/>
		<path class="st1" d="M330.4,40.4H329l-0.2-0.9c-0.1-0.1-0.3-0.2-0.5-0.3s-0.4-0.1-0.7-0.1c-0.4,0-0.6,0.1-0.8,0.2
			c-0.2,0.2-0.3,0.4-0.3,0.6c0,0.2,0.1,0.4,0.3,0.6c0.2,0.1,0.6,0.3,1.2,0.4c0.9,0.2,1.6,0.5,2,0.8c0.4,0.4,0.7,0.8,0.7,1.5
			c0,0.7-0.3,1.2-0.9,1.6c-0.6,0.4-1.3,0.6-2.3,0.6c-0.6,0-1.1-0.1-1.6-0.2c-0.5-0.2-0.9-0.4-1.3-0.7l0-1.7h1.4l0.3,1
			c0.1,0.1,0.3,0.2,0.5,0.2c0.2,0,0.4,0.1,0.6,0.1c0.4,0,0.7-0.1,0.9-0.2s0.3-0.3,0.3-0.6c0-0.2-0.1-0.4-0.3-0.6s-0.6-0.3-1.2-0.4
			c-0.9-0.2-1.5-0.4-2-0.8c-0.4-0.3-0.7-0.8-0.7-1.4c0-0.6,0.3-1.2,0.8-1.6c0.5-0.4,1.2-0.7,2.2-0.7c0.6,0,1.1,0.1,1.6,0.2
			s0.9,0.4,1.2,0.6L330.4,40.4z"/>
	</g>
	<g class="st0">
		<path class="st2" d="M366,158.2c-0.2,0.4-0.5,0.7-0.8,0.9c-0.3,0.2-0.7,0.3-1.2,0.3c-0.7,0-1.3-0.2-1.7-0.7s-0.6-1.2-0.6-2.2v-3.1
			l-0.8-0.2v-0.8h0.8h1.3v4.1c0,0.7,0.1,1.2,0.3,1.5s0.6,0.4,1,0.4c0.4,0,0.8-0.1,1.1-0.3c0.3-0.2,0.5-0.4,0.7-0.8v-4l-0.9-0.2v-0.8
			h0.9h1.3v5.9l0.8,0.2v0.8h-1.9L366,158.2z"/>
		<path class="st2" d="M368.8,158.5l1-0.2v-4.9l-1-0.2v-0.8h2.2l0.1,1c0.2-0.4,0.5-0.6,0.9-0.8c0.3-0.2,0.7-0.3,1.2-0.3
			c0.7,0,1.3,0.2,1.7,0.7s0.6,1.1,0.6,2v3.4l1,0.2v0.8h-3.3v-0.8l1-0.2v-3.3c0-0.6-0.1-1-0.4-1.3c-0.2-0.3-0.6-0.4-1.1-0.4
			c-0.4,0-0.7,0.1-1,0.3c-0.3,0.2-0.5,0.4-0.7,0.7v4l1,0.2v0.8h-3.3V158.5z"/>
		<path class="st2" d="M379.6,150.7v1.7h1.3v0.9h-1.3v4.2c0,0.3,0.1,0.5,0.2,0.7c0.1,0.1,0.3,0.2,0.5,0.2c0.1,0,0.2,0,0.4,0
			c0.1,0,0.3,0,0.3-0.1l0.2,0.9c-0.1,0.1-0.3,0.1-0.5,0.2s-0.5,0.1-0.7,0.1c-0.5,0-0.9-0.2-1.2-0.5s-0.5-0.8-0.5-1.4v-4.2h-1.1v-0.9
			h1.1v-1.7H379.6z"/>
		<path class="st2" d="M382.1,153.2v-0.8h2.2l0.1,1c0.2-0.4,0.4-0.6,0.7-0.8c0.3-0.2,0.6-0.3,1-0.3c0.1,0,0.2,0,0.3,0
			c0.1,0,0.2,0,0.2,0l-0.2,1.2l-0.7,0c-0.3,0-0.6,0.1-0.8,0.2s-0.4,0.4-0.5,0.7v3.9l1,0.2v0.8h-3.3v-0.8l1-0.2v-4.9L382.1,153.2z"/>
		<path class="st2" d="M392.4,158.2c-0.2,0.4-0.5,0.7-0.8,0.9c-0.3,0.2-0.7,0.3-1.2,0.3c-0.7,0-1.3-0.2-1.7-0.7s-0.6-1.2-0.6-2.2
			v-3.1l-0.8-0.2v-0.8h0.8h1.3v4.1c0,0.7,0.1,1.2,0.3,1.5s0.6,0.4,1,0.4c0.4,0,0.8-0.1,1.1-0.3c0.3-0.2,0.5-0.4,0.7-0.8v-4l-0.9-0.2
			v-0.8h0.9h1.3v5.9l0.8,0.2v0.8h-1.9L392.4,158.2z"/>
		<path class="st2" d="M400.7,154.5h-0.9l-0.2-0.8c-0.2-0.1-0.3-0.3-0.6-0.3c-0.2-0.1-0.5-0.1-0.8-0.1c-0.4,0-0.8,0.1-1,0.3
			c-0.2,0.2-0.3,0.4-0.3,0.7c0,0.3,0.1,0.5,0.3,0.6c0.2,0.2,0.6,0.3,1.2,0.4c0.9,0.2,1.5,0.4,1.9,0.8s0.6,0.7,0.6,1.3
			c0,0.6-0.2,1.1-0.7,1.5c-0.5,0.4-1.1,0.6-1.9,0.6c-0.5,0-1-0.1-1.4-0.2c-0.4-0.1-0.8-0.3-1.1-0.5l0-1.6h0.9l0.2,0.9
			c0.1,0.1,0.3,0.2,0.6,0.3c0.2,0.1,0.5,0.1,0.8,0.1c0.4,0,0.8-0.1,1-0.3c0.3-0.2,0.4-0.4,0.4-0.7c0-0.3-0.1-0.5-0.3-0.7
			c-0.2-0.2-0.6-0.3-1.2-0.5c-0.8-0.2-1.5-0.4-1.9-0.7s-0.6-0.7-0.6-1.3c0-0.6,0.2-1,0.7-1.4c0.5-0.4,1.1-0.6,1.9-0.6
			c0.5,0,1,0.1,1.4,0.2s0.8,0.3,1,0.6L400.7,154.5z"/>
		<path class="st2" d="M404.2,150.7v1.7h1.3v0.9h-1.3v4.2c0,0.3,0.1,0.5,0.2,0.7c0.1,0.1,0.3,0.2,0.5,0.2c0.1,0,0.2,0,0.4,0
			c0.1,0,0.3,0,0.3-0.1l0.2,0.9c-0.1,0.1-0.3,0.1-0.5,0.2s-0.5,0.1-0.7,0.1c-0.5,0-0.9-0.2-1.2-0.5s-0.5-0.8-0.5-1.4v-4.2h-1.1v-0.9
			h1.1v-1.7H404.2z"/>
		<path class="st2" d="M409.9,159.4c-1,0-1.7-0.3-2.3-1c-0.6-0.6-0.8-1.5-0.8-2.5v-0.3c0-1,0.3-1.8,0.9-2.4c0.6-0.6,1.3-1,2.1-1
			c0.9,0,1.6,0.3,2.1,0.8c0.5,0.6,0.7,1.3,0.7,2.2v0.8h-4.5l0,0c0,0.7,0.2,1.2,0.5,1.6c0.3,0.4,0.8,0.6,1.4,0.6
			c0.4,0,0.8-0.1,1.1-0.2c0.3-0.1,0.6-0.3,0.8-0.5l0.5,0.8c-0.2,0.2-0.6,0.4-1,0.6C411,159.3,410.5,159.4,409.9,159.4z M409.7,153.2
			c-0.4,0-0.8,0.2-1.1,0.5s-0.5,0.8-0.5,1.3l0,0h3.2V155c0-0.5-0.1-0.9-0.4-1.2S410.3,153.2,409.7,153.2z"/>
		<path class="st2" d="M418.4,158.4c-0.2,0.3-0.5,0.5-0.8,0.7c-0.3,0.2-0.7,0.2-1.1,0.2c-0.8,0-1.5-0.3-2-0.9
			c-0.5-0.6-0.7-1.4-0.7-2.4v-0.1c0-1.1,0.2-2,0.7-2.7c0.5-0.7,1.1-1,2-1c0.4,0,0.8,0.1,1.1,0.2c0.3,0.2,0.6,0.4,0.8,0.7v-2.8
			l-1-0.2v-0.8h1h1.3v8.9l1,0.2v0.8h-2.1L418.4,158.4z M415,156.1c0,0.7,0.1,1.2,0.4,1.7s0.7,0.6,1.3,0.6c0.4,0,0.7-0.1,0.9-0.3
			c0.3-0.2,0.5-0.4,0.6-0.7v-3.2c-0.2-0.3-0.4-0.5-0.6-0.7s-0.6-0.3-0.9-0.3c-0.6,0-1,0.2-1.3,0.7c-0.3,0.5-0.4,1.1-0.4,1.9V156.1z"
			/>
	</g>
	<g class="st0">
		<path class="st2" d="M424.8,153.2v-0.8h2.2l0.1,1c0.2-0.4,0.4-0.6,0.7-0.8c0.3-0.2,0.6-0.3,1-0.3c0.1,0,0.2,0,0.3,0
			c0.1,0,0.2,0,0.2,0l-0.2,1.2l-0.7,0c-0.3,0-0.6,0.1-0.8,0.2s-0.4,0.4-0.5,0.7v3.9l1,0.2v0.8h-3.3v-0.8l1-0.2v-4.9L424.8,153.2z"/>
	</g>
	<g class="st0">
		<path class="st2" d="M433.2,159.4c-1,0-1.7-0.3-2.3-1c-0.6-0.6-0.8-1.5-0.8-2.5v-0.3c0-1,0.3-1.8,0.9-2.4s1.3-1,2.1-1
			c0.9,0,1.6,0.3,2.1,0.8c0.5,0.6,0.7,1.3,0.7,2.2v0.8h-4.5l0,0c0,0.7,0.2,1.2,0.5,1.6c0.3,0.4,0.8,0.6,1.4,0.6
			c0.4,0,0.8-0.1,1.1-0.2c0.3-0.1,0.6-0.3,0.8-0.5l0.5,0.8c-0.2,0.2-0.6,0.4-1,0.6C434.3,159.3,433.8,159.4,433.2,159.4z M433,153.2
			c-0.4,0-0.8,0.2-1.1,0.5c-0.3,0.4-0.5,0.8-0.5,1.3l0,0h3.2V155c0-0.5-0.1-0.9-0.4-1.2C433.9,153.4,433.5,153.2,433,153.2z"/>
	</g>
	<g class="st0">
		<path class="st2" d="M436.8,158.5l1-0.2v-4.9l-1-0.2v-0.8h2.2l0.1,0.9c0.2-0.3,0.5-0.6,0.8-0.8c0.3-0.2,0.8-0.3,1.2-0.3
			s0.8,0.1,1.2,0.3c0.3,0.2,0.6,0.5,0.7,1c0.2-0.4,0.5-0.7,0.9-0.9s0.8-0.3,1.2-0.3c0.7,0,1.3,0.2,1.7,0.7s0.6,1.2,0.6,2.2v3.1
			l1,0.2v0.8h-3.3v-0.8l1-0.2v-3.1c0-0.7-0.1-1.2-0.3-1.4c-0.2-0.3-0.6-0.4-1-0.4c-0.4,0-0.8,0.2-1.1,0.5s-0.4,0.7-0.5,1.2v3.4
			l1,0.2v0.8H441v-0.8l1-0.2v-3.1c0-0.6-0.1-1.1-0.4-1.4c-0.2-0.3-0.6-0.4-1-0.4c-0.4,0-0.7,0.1-0.9,0.2c-0.2,0.2-0.4,0.4-0.6,0.7
			v4.1l1,0.2v0.8h-3.3V158.5z"/>
	</g>
	<g class="st0">
		<path class="st2" d="M449.3,155.8c0-1,0.3-1.9,0.8-2.5c0.6-0.7,1.3-1,2.2-1c0.9,0,1.7,0.3,2.3,1c0.6,0.7,0.8,1.5,0.8,2.5v0.1
			c0,1-0.3,1.9-0.8,2.5c-0.5,0.7-1.3,1-2.2,1c-1,0-1.7-0.3-2.3-1c-0.5-0.7-0.8-1.5-0.8-2.5V155.8z M450.5,155.9
			c0,0.7,0.2,1.3,0.5,1.8c0.3,0.5,0.8,0.7,1.4,0.7c0.6,0,1-0.2,1.4-0.7c0.3-0.5,0.5-1.1,0.5-1.8v-0.1c0-0.7-0.2-1.3-0.5-1.8
			c-0.3-0.5-0.8-0.7-1.4-0.7c-0.6,0-1.1,0.2-1.4,0.7s-0.5,1.1-0.5,1.8V155.9z"/>
		<path class="st2" d="M458.8,150.7v1.7h1.3v0.9h-1.3v4.2c0,0.3,0.1,0.5,0.2,0.7c0.1,0.1,0.3,0.2,0.5,0.2c0.1,0,0.2,0,0.4,0
			c0.1,0,0.3,0,0.3-0.1l0.2,0.9c-0.1,0.1-0.3,0.1-0.5,0.2s-0.5,0.1-0.7,0.1c-0.5,0-0.9-0.2-1.2-0.5c-0.3-0.3-0.5-0.8-0.5-1.4v-4.2
			h-1.1v-0.9h1.1v-1.7H458.8z"/>
		<path class="st2" d="M464.5,159.4c-1,0-1.7-0.3-2.3-1c-0.6-0.6-0.8-1.5-0.8-2.5v-0.3c0-1,0.3-1.8,0.9-2.4c0.6-0.6,1.3-1,2.1-1
			c0.9,0,1.6,0.3,2.1,0.8c0.5,0.6,0.7,1.3,0.7,2.2v0.8h-4.5l0,0c0,0.7,0.2,1.2,0.5,1.6c0.3,0.4,0.8,0.6,1.4,0.6
			c0.4,0,0.8-0.1,1.1-0.2c0.3-0.1,0.6-0.3,0.8-0.5l0.5,0.8c-0.2,0.2-0.6,0.4-1,0.6S465,159.4,464.5,159.4z M464.3,153.2
			c-0.4,0-0.8,0.2-1.1,0.5c-0.3,0.4-0.5,0.8-0.5,1.3l0,0h3.2V155c0-0.5-0.1-0.9-0.4-1.2C465.2,153.4,464.8,153.2,464.3,153.2z"/>
	</g>
	<g class="st0">
		<path class="st2" d="M471.4,158.5l1-0.2v-7.9l-1-0.2v-0.8h2.3v3.9c0.2-0.3,0.5-0.6,0.9-0.8c0.3-0.2,0.7-0.3,1.1-0.3
			c0.7,0,1.3,0.2,1.7,0.7s0.6,1.1,0.6,2v3.3l1,0.2v0.8h-3.3v-0.8l1-0.2v-3.3c0-0.6-0.1-1-0.4-1.3s-0.6-0.4-1.1-0.4
			c-0.3,0-0.7,0.1-0.9,0.2c-0.3,0.2-0.5,0.4-0.7,0.7v4.1l1,0.2v0.8h-3.3V158.5z"/>
	</g>
	<g class="st0">
		<path class="st2" d="M479.9,155.8c0-1,0.3-1.9,0.8-2.5c0.5-0.7,1.3-1,2.2-1c0.9,0,1.7,0.3,2.3,1c0.6,0.7,0.8,1.5,0.8,2.5v0.1
			c0,1-0.3,1.9-0.8,2.5c-0.6,0.7-1.3,1-2.2,1c-1,0-1.7-0.3-2.3-1c-0.6-0.7-0.8-1.5-0.8-2.5V155.8z M481.1,155.9
			c0,0.7,0.2,1.3,0.5,1.8c0.3,0.5,0.8,0.7,1.4,0.7c0.6,0,1-0.2,1.4-0.7c0.3-0.5,0.5-1.1,0.5-1.8v-0.1c0-0.7-0.2-1.3-0.5-1.8
			c-0.3-0.5-0.8-0.7-1.4-0.7c-0.6,0-1.1,0.2-1.4,0.7s-0.5,1.1-0.5,1.8V155.9z"/>
		<path class="st2" d="M492.4,154.5h-0.9l-0.2-0.8c-0.2-0.1-0.3-0.3-0.6-0.3c-0.2-0.1-0.5-0.1-0.8-0.1c-0.4,0-0.8,0.1-1,0.3
			c-0.2,0.2-0.3,0.4-0.3,0.7c0,0.3,0.1,0.5,0.3,0.6c0.2,0.2,0.6,0.3,1.2,0.4c0.9,0.2,1.5,0.4,1.9,0.8c0.4,0.3,0.6,0.7,0.6,1.3
			c0,0.6-0.2,1.1-0.7,1.5c-0.5,0.4-1.1,0.6-1.9,0.6c-0.5,0-1-0.1-1.4-0.2c-0.4-0.1-0.8-0.3-1.1-0.5l0-1.6h0.9l0.2,0.9
			c0.1,0.1,0.3,0.2,0.6,0.3c0.2,0.1,0.5,0.1,0.8,0.1c0.4,0,0.8-0.1,1-0.3c0.3-0.2,0.4-0.4,0.4-0.7c0-0.3-0.1-0.5-0.3-0.7
			c-0.2-0.2-0.6-0.3-1.2-0.5c-0.8-0.2-1.5-0.4-1.9-0.7c-0.4-0.3-0.6-0.7-0.6-1.3c0-0.6,0.2-1,0.7-1.4c0.5-0.4,1.1-0.6,1.9-0.6
			c0.5,0,1,0.1,1.4,0.2c0.4,0.1,0.8,0.3,1,0.6L492.4,154.5z"/>
		<path class="st2" d="M496,150.7v1.7h1.3v0.9H496v4.2c0,0.3,0.1,0.5,0.2,0.7c0.1,0.1,0.3,0.2,0.5,0.2c0.1,0,0.2,0,0.4,0
			c0.1,0,0.3,0,0.3-0.1l0.2,0.9c-0.1,0.1-0.3,0.1-0.5,0.2s-0.5,0.1-0.7,0.1c-0.5,0-0.9-0.2-1.2-0.5c-0.3-0.3-0.5-0.8-0.5-1.4v-4.2
			h-1.1v-0.9h1.1v-1.7H496z"/>
	</g>
	<g class="st0">
		<path class="st2" d="M140.8,195.9v1.7h1.3v0.9h-1.3v4.2c0,0.3,0.1,0.5,0.2,0.7c0.1,0.1,0.3,0.2,0.5,0.2c0.1,0,0.2,0,0.4,0
			c0.1,0,0.3,0,0.3-0.1l0.2,0.9c-0.1,0.1-0.3,0.1-0.5,0.2s-0.5,0.1-0.7,0.1c-0.5,0-0.9-0.2-1.2-0.5s-0.5-0.8-0.5-1.4v-4.2h-1.1v-0.9
			h1.1v-1.7H140.8z"/>
		<path class="st2" d="M143.4,198.4v-0.8h2.2l0.1,1c0.2-0.4,0.4-0.6,0.7-0.8c0.3-0.2,0.6-0.3,1-0.3c0.1,0,0.2,0,0.3,0
			c0.1,0,0.2,0,0.2,0l-0.2,1.2l-0.7,0c-0.3,0-0.6,0.1-0.8,0.2s-0.4,0.4-0.5,0.7v3.9l1,0.2v0.8h-3.3v-0.8l1-0.2v-4.9L143.4,198.4z"/>
		<path class="st2" d="M153.7,203.4c-0.2,0.4-0.5,0.7-0.8,0.9c-0.3,0.2-0.7,0.3-1.2,0.3c-0.7,0-1.3-0.2-1.7-0.7s-0.6-1.2-0.6-2.2
			v-3.1l-0.8-0.2v-0.8h0.8h1.3v4.1c0,0.7,0.1,1.2,0.3,1.5s0.6,0.4,1,0.4c0.4,0,0.8-0.1,1.1-0.3c0.3-0.2,0.5-0.4,0.7-0.8v-4l-0.9-0.2
			v-0.8h0.9h1.3v5.9l0.8,0.2v0.8h-1.9L153.7,203.4z"/>
		<path class="st2" d="M161.9,199.7H161l-0.2-0.8c-0.2-0.1-0.3-0.3-0.6-0.3c-0.2-0.1-0.5-0.1-0.8-0.1c-0.4,0-0.8,0.1-1,0.3
			c-0.2,0.2-0.3,0.4-0.3,0.7c0,0.3,0.1,0.5,0.3,0.6c0.2,0.2,0.6,0.3,1.2,0.4c0.9,0.2,1.5,0.4,1.9,0.8s0.6,0.7,0.6,1.3
			c0,0.6-0.2,1.1-0.7,1.5c-0.5,0.4-1.1,0.6-1.9,0.6c-0.5,0-1-0.1-1.4-0.2c-0.4-0.1-0.8-0.3-1.1-0.5l0-1.6h0.9l0.2,0.9
			c0.1,0.1,0.3,0.2,0.6,0.3c0.2,0.1,0.5,0.1,0.8,0.1c0.4,0,0.8-0.1,1-0.3c0.3-0.2,0.4-0.4,0.4-0.7c0-0.3-0.1-0.5-0.3-0.7
			c-0.2-0.2-0.6-0.3-1.2-0.5c-0.8-0.2-1.5-0.4-1.9-0.7s-0.6-0.7-0.6-1.3c0-0.6,0.2-1,0.7-1.4c0.5-0.4,1.1-0.6,1.9-0.6
			c0.5,0,1,0.1,1.4,0.2s0.8,0.3,1,0.6L161.9,199.7z"/>
		<path class="st2" d="M165.4,195.9v1.7h1.3v0.9h-1.3v4.2c0,0.3,0.1,0.5,0.2,0.7c0.1,0.1,0.3,0.2,0.5,0.2c0.1,0,0.2,0,0.4,0
			c0.1,0,0.3,0,0.3-0.1l0.2,0.9c-0.1,0.1-0.3,0.1-0.5,0.2s-0.5,0.1-0.7,0.1c-0.5,0-0.9-0.2-1.2-0.5s-0.5-0.8-0.5-1.4v-4.2h-1.1v-0.9
			h1.1v-1.7H165.4z"/>
		<path class="st2" d="M171.2,204.6c-1,0-1.7-0.3-2.3-1c-0.6-0.6-0.8-1.5-0.8-2.5v-0.3c0-1,0.3-1.8,0.9-2.4c0.6-0.6,1.3-1,2.1-1
			c0.9,0,1.6,0.3,2.1,0.8c0.5,0.6,0.7,1.3,0.7,2.2v0.8h-4.5l0,0c0,0.7,0.2,1.2,0.5,1.6c0.3,0.4,0.8,0.6,1.4,0.6
			c0.4,0,0.8-0.1,1.1-0.2c0.3-0.1,0.6-0.3,0.8-0.5l0.5,0.8c-0.2,0.2-0.6,0.4-1,0.6C172.2,204.5,171.7,204.6,171.2,204.6z M171,198.4
			c-0.4,0-0.8,0.2-1.1,0.5s-0.5,0.8-0.5,1.3l0,0h3.2v-0.2c0-0.5-0.1-0.9-0.4-1.2S171.5,198.4,171,198.4z"/>
		<path class="st2" d="M179.6,203.6c-0.2,0.3-0.5,0.5-0.8,0.7c-0.3,0.2-0.7,0.2-1.1,0.2c-0.8,0-1.5-0.3-2-0.9
			c-0.5-0.6-0.7-1.4-0.7-2.4v-0.1c0-1.1,0.2-2,0.7-2.7c0.5-0.7,1.1-1,2-1c0.4,0,0.8,0.1,1.1,0.2c0.3,0.2,0.6,0.4,0.8,0.7v-2.8
			l-1-0.2v-0.8h1h1.3v8.9l1,0.2v0.8h-2.1L179.6,203.6z M176.3,201.3c0,0.7,0.1,1.2,0.4,1.7s0.7,0.6,1.3,0.6c0.4,0,0.7-0.1,0.9-0.3
			c0.3-0.2,0.5-0.4,0.6-0.7v-3.2c-0.2-0.3-0.4-0.5-0.6-0.7s-0.6-0.3-0.9-0.3c-0.6,0-1,0.2-1.3,0.7c-0.3,0.5-0.4,1.1-0.4,1.9V201.3z"
			/>
	</g>
	<g class="st0">
		<path class="st2" d="M185.9,195.4v-0.8h2.3v8.9l1,0.2v0.8h-3.3v-0.8l1-0.2v-7.9L185.9,195.4z"/>
	</g>
	<g class="st0">
		<path class="st2" d="M190,201c0-1,0.3-1.9,0.8-2.5s1.3-1,2.2-1c0.9,0,1.7,0.3,2.3,1c0.6,0.7,0.8,1.5,0.8,2.5v0.1
			c0,1-0.3,1.9-0.8,2.5c-0.6,0.7-1.3,1-2.2,1c-1,0-1.7-0.3-2.3-1c-0.6-0.7-0.8-1.5-0.8-2.5V201z M191.3,201.1c0,0.7,0.2,1.3,0.5,1.8
			c0.3,0.5,0.8,0.7,1.4,0.7c0.6,0,1-0.2,1.4-0.7c0.3-0.5,0.5-1.1,0.5-1.8V201c0-0.7-0.2-1.3-0.5-1.8s-0.8-0.7-1.4-0.7
			s-1.1,0.2-1.4,0.7s-0.5,1.1-0.5,1.8V201.1z"/>
		<path class="st2" d="M200.4,203.6c0.4,0,0.8-0.1,1.1-0.4c0.3-0.3,0.5-0.6,0.5-0.9h1.1l0,0c0,0.6-0.2,1.1-0.8,1.6
			c-0.5,0.5-1.2,0.7-1.9,0.7c-1,0-1.8-0.3-2.3-1c-0.5-0.7-0.8-1.5-0.8-2.5v-0.3c0-1,0.3-1.8,0.8-2.4c0.5-0.7,1.3-1,2.3-1
			c0.6,0,1,0.1,1.5,0.3c0.4,0.2,0.8,0.4,1.1,0.8l0.1,1.5h-1l-0.3-1.1c-0.1-0.1-0.3-0.3-0.6-0.3s-0.5-0.1-0.8-0.1
			c-0.7,0-1.1,0.2-1.4,0.7c-0.3,0.5-0.4,1.1-0.4,1.7v0.3c0,0.7,0.1,1.3,0.4,1.8S199.7,203.6,200.4,203.6z"/>
		<path class="st2" d="M208.8,204.5c0-0.2-0.1-0.4-0.1-0.5c0-0.1,0-0.3,0-0.4c-0.2,0.3-0.5,0.6-0.9,0.8c-0.4,0.2-0.7,0.3-1.2,0.3
			c-0.7,0-1.3-0.2-1.6-0.5c-0.4-0.3-0.6-0.8-0.6-1.5c0-0.7,0.3-1.2,0.8-1.5c0.5-0.4,1.2-0.5,2.2-0.5h1.3v-0.8c0-0.4-0.1-0.7-0.4-1
			c-0.3-0.2-0.6-0.4-1.1-0.4c-0.3,0-0.6,0-0.8,0.1c-0.2,0.1-0.4,0.2-0.6,0.3l-0.1,0.7h-1v-1.3c0.3-0.3,0.7-0.4,1.1-0.6
			s0.9-0.2,1.4-0.2c0.8,0,1.4,0.2,1.9,0.6s0.7,1,0.7,1.7v3.3c0,0.1,0,0.2,0,0.3c0,0.1,0,0.2,0,0.3l0.5,0.1v0.8H208.8z M206.8,203.5
			c0.4,0,0.8-0.1,1.1-0.3c0.3-0.2,0.6-0.4,0.7-0.7v-1.1h-1.3c-0.5,0-0.9,0.1-1.2,0.4c-0.3,0.2-0.4,0.5-0.4,0.9
			c0,0.3,0.1,0.5,0.3,0.7C206.1,203.5,206.4,203.5,206.8,203.5z"/>
		<path class="st2" d="M211.3,195.4v-0.8h2.3v8.9l1,0.2v0.8h-3.3v-0.8l1-0.2v-7.9L211.3,195.4z"/>
	</g>
	<g class="st0">
		<path class="st2" d="M218.6,203.7l1-0.2v-7.9l-1-0.2v-0.8h2.3v3.9c0.2-0.3,0.5-0.6,0.9-0.8c0.3-0.2,0.7-0.3,1.1-0.3
			c0.7,0,1.3,0.2,1.7,0.7s0.6,1.1,0.6,2v3.3l1,0.2v0.8H223v-0.8l1-0.2v-3.3c0-0.6-0.1-1-0.4-1.3c-0.2-0.3-0.6-0.4-1.1-0.4
			c-0.3,0-0.7,0.1-0.9,0.2c-0.3,0.2-0.5,0.4-0.7,0.7v4.1l1,0.2v0.8h-3.3V203.7z"/>
	</g>
	<g class="st0">
		<path class="st2" d="M227.1,201c0-1,0.3-1.9,0.8-2.5s1.3-1,2.2-1c0.9,0,1.7,0.3,2.3,1c0.6,0.7,0.8,1.5,0.8,2.5v0.1
			c0,1-0.3,1.9-0.8,2.5c-0.6,0.7-1.3,1-2.2,1c-1,0-1.7-0.3-2.3-1c-0.6-0.7-0.8-1.5-0.8-2.5V201z M228.4,201.1c0,0.7,0.2,1.3,0.5,1.8
			c0.3,0.5,0.8,0.7,1.4,0.7c0.6,0,1-0.2,1.4-0.7c0.3-0.5,0.5-1.1,0.5-1.8V201c0-0.7-0.2-1.3-0.5-1.8s-0.8-0.7-1.4-0.7
			s-1.1,0.2-1.4,0.7s-0.5,1.1-0.5,1.8V201.1z"/>
		<path class="st2" d="M239.7,199.7h-0.9l-0.2-0.8c-0.2-0.1-0.3-0.3-0.6-0.3c-0.2-0.1-0.5-0.1-0.8-0.1c-0.4,0-0.8,0.1-1,0.3
			c-0.2,0.2-0.3,0.4-0.3,0.7c0,0.3,0.1,0.5,0.3,0.6c0.2,0.2,0.6,0.3,1.2,0.4c0.9,0.2,1.5,0.4,1.9,0.8s0.6,0.7,0.6,1.3
			c0,0.6-0.2,1.1-0.7,1.5c-0.5,0.4-1.1,0.6-1.9,0.6c-0.5,0-1-0.1-1.4-0.2c-0.4-0.1-0.8-0.3-1.1-0.5l0-1.6h0.9l0.2,0.9
			c0.1,0.1,0.3,0.2,0.6,0.3c0.2,0.1,0.5,0.1,0.8,0.1c0.4,0,0.8-0.1,1-0.3c0.3-0.2,0.4-0.4,0.4-0.7c0-0.3-0.1-0.5-0.3-0.7
			c-0.2-0.2-0.6-0.3-1.2-0.5c-0.8-0.2-1.5-0.4-1.9-0.7s-0.6-0.7-0.6-1.3c0-0.6,0.2-1,0.7-1.4c0.5-0.4,1.1-0.6,1.9-0.6
			c0.5,0,1,0.1,1.4,0.2s0.8,0.3,1,0.6L239.7,199.7z"/>
		<path class="st2" d="M243.2,195.9v1.7h1.3v0.9h-1.3v4.2c0,0.3,0.1,0.5,0.2,0.7c0.1,0.1,0.3,0.2,0.5,0.2c0.1,0,0.2,0,0.4,0
			c0.1,0,0.3,0,0.3-0.1l0.2,0.9c-0.1,0.1-0.3,0.1-0.5,0.2s-0.5,0.1-0.7,0.1c-0.5,0-0.9-0.2-1.2-0.5s-0.5-0.8-0.5-1.4v-4.2h-1.1v-0.9
			h1.1v-1.7H243.2z"/>
	</g>
	<g class="st0">
		<path class="st2" d="M624,195.9v1.7h1.3v0.9H624v4.2c0,0.3,0.1,0.5,0.2,0.7c0.1,0.1,0.3,0.2,0.5,0.2c0.1,0,0.2,0,0.4,0
			c0.1,0,0.3,0,0.3-0.1l0.2,0.9c-0.1,0.1-0.3,0.1-0.5,0.2s-0.5,0.1-0.7,0.1c-0.5,0-0.9-0.2-1.2-0.5c-0.3-0.3-0.5-0.8-0.5-1.4v-4.2
			h-1.1v-0.9h1.1v-1.7H624z"/>
		<path class="st2" d="M626.5,198.4v-0.8h2.2l0.1,1c0.2-0.4,0.4-0.6,0.7-0.8c0.3-0.2,0.6-0.3,1-0.3c0.1,0,0.2,0,0.3,0s0.2,0,0.2,0
			l-0.2,1.2l-0.7,0c-0.3,0-0.6,0.1-0.8,0.2c-0.2,0.2-0.4,0.4-0.5,0.7v3.9l1,0.2v0.8h-3.3v-0.8l1-0.2v-4.9L626.5,198.4z"/>
		<path class="st2" d="M636.8,203.4c-0.2,0.4-0.5,0.7-0.8,0.9c-0.3,0.2-0.7,0.3-1.2,0.3c-0.7,0-1.3-0.2-1.7-0.7s-0.6-1.2-0.6-2.2
			v-3.1l-0.8-0.2v-0.8h0.8h1.3v4.1c0,0.7,0.1,1.2,0.3,1.5c0.2,0.3,0.6,0.4,1,0.4c0.4,0,0.8-0.1,1.1-0.3c0.3-0.2,0.5-0.4,0.7-0.8v-4
			l-0.9-0.2v-0.8h0.9h1.3v5.9l0.8,0.2v0.8h-1.9L636.8,203.4z"/>
		<path class="st2" d="M645.1,199.7h-0.9l-0.2-0.8c-0.2-0.1-0.3-0.3-0.6-0.3s-0.5-0.1-0.8-0.1c-0.4,0-0.8,0.1-1,0.3
			c-0.2,0.2-0.3,0.4-0.3,0.7c0,0.3,0.1,0.5,0.3,0.6c0.2,0.2,0.6,0.3,1.2,0.4c0.9,0.2,1.5,0.4,1.9,0.8s0.6,0.7,0.6,1.3
			c0,0.6-0.2,1.1-0.7,1.5c-0.5,0.4-1.1,0.6-1.9,0.6c-0.5,0-1-0.1-1.4-0.2c-0.4-0.1-0.8-0.3-1.1-0.5l0-1.6h0.9l0.2,0.9
			c0.1,0.1,0.3,0.2,0.6,0.3c0.2,0.1,0.5,0.1,0.8,0.1c0.4,0,0.8-0.1,1-0.3c0.3-0.2,0.4-0.4,0.4-0.7c0-0.3-0.1-0.5-0.3-0.7
			s-0.6-0.3-1.2-0.5c-0.8-0.2-1.5-0.4-1.9-0.7c-0.4-0.3-0.6-0.7-0.6-1.3c0-0.6,0.2-1,0.7-1.4c0.5-0.4,1.1-0.6,1.9-0.6
			c0.5,0,1,0.1,1.4,0.2c0.4,0.1,0.8,0.3,1,0.6L645.1,199.7z"/>
		<path class="st2" d="M648.6,195.9v1.7h1.3v0.9h-1.3v4.2c0,0.3,0.1,0.5,0.2,0.7c0.1,0.1,0.3,0.2,0.5,0.2c0.1,0,0.2,0,0.4,0
			c0.1,0,0.3,0,0.3-0.1l0.2,0.9c-0.1,0.1-0.3,0.1-0.5,0.2s-0.5,0.1-0.7,0.1c-0.5,0-0.9-0.2-1.2-0.5s-0.5-0.8-0.5-1.4v-4.2h-1.1v-0.9
			h1.1v-1.7H648.6z"/>
		<path class="st2" d="M654.3,204.6c-1,0-1.7-0.3-2.3-1c-0.6-0.6-0.8-1.5-0.8-2.5v-0.3c0-1,0.3-1.8,0.9-2.4c0.6-0.6,1.3-1,2.1-1
			c0.9,0,1.6,0.3,2.1,0.8c0.5,0.6,0.7,1.3,0.7,2.2v0.8h-4.5l0,0c0,0.7,0.2,1.2,0.5,1.6c0.3,0.4,0.8,0.6,1.4,0.6
			c0.4,0,0.8-0.1,1.1-0.2c0.3-0.1,0.6-0.3,0.8-0.5l0.5,0.8c-0.2,0.2-0.6,0.4-1,0.6S654.9,204.6,654.3,204.6z M654.1,198.4
			c-0.4,0-0.8,0.2-1.1,0.5c-0.3,0.4-0.5,0.8-0.5,1.3l0,0h3.2v-0.2c0-0.5-0.1-0.9-0.4-1.2S654.7,198.4,654.1,198.4z"/>
		<path class="st2" d="M662.8,203.6c-0.2,0.3-0.5,0.5-0.8,0.7c-0.3,0.2-0.7,0.2-1.1,0.2c-0.8,0-1.5-0.3-2-0.9s-0.7-1.4-0.7-2.4v-0.1
			c0-1.1,0.2-2,0.7-2.7s1.1-1,2-1c0.4,0,0.8,0.1,1.1,0.2c0.3,0.2,0.6,0.4,0.8,0.7v-2.8l-1-0.2v-0.8h1h1.3v8.9l1,0.2v0.8h-2.1
			L662.8,203.6z M659.4,201.3c0,0.7,0.1,1.2,0.4,1.7s0.7,0.6,1.3,0.6c0.4,0,0.7-0.1,0.9-0.3c0.3-0.2,0.5-0.4,0.6-0.7v-3.2
			c-0.2-0.3-0.4-0.5-0.6-0.7c-0.3-0.2-0.6-0.3-0.9-0.3c-0.6,0-1,0.2-1.3,0.7c-0.3,0.5-0.4,1.1-0.4,1.9V201.3z"/>
	</g>
	<g class="st0">
		<path class="st2" d="M669,195.4v-0.8h2.3v8.9l1,0.2v0.8H669v-0.8l1-0.2v-7.9L669,195.4z"/>
	</g>
	<g class="st0">
		<path class="st2" d="M673.2,201c0-1,0.3-1.9,0.8-2.5c0.5-0.7,1.3-1,2.2-1c0.9,0,1.7,0.3,2.3,1c0.6,0.7,0.8,1.5,0.8,2.5v0.1
			c0,1-0.3,1.9-0.8,2.5c-0.6,0.7-1.3,1-2.2,1c-1,0-1.7-0.3-2.3-1c-0.6-0.7-0.8-1.5-0.8-2.5V201z M674.4,201.1c0,0.7,0.2,1.3,0.5,1.8
			c0.3,0.5,0.8,0.7,1.4,0.7c0.6,0,1-0.2,1.4-0.7c0.3-0.5,0.5-1.1,0.5-1.8V201c0-0.7-0.2-1.3-0.5-1.8c-0.3-0.5-0.8-0.7-1.4-0.7
			c-0.6,0-1.1,0.2-1.4,0.7s-0.5,1.1-0.5,1.8V201.1z"/>
		<path class="st2" d="M683.6,203.6c0.4,0,0.8-0.1,1.1-0.4s0.5-0.6,0.5-0.9h1.1l0,0c0,0.6-0.2,1.1-0.8,1.6c-0.5,0.5-1.2,0.7-1.9,0.7
			c-1,0-1.8-0.3-2.3-1c-0.5-0.7-0.8-1.5-0.8-2.5v-0.3c0-1,0.3-1.8,0.8-2.4c0.5-0.7,1.3-1,2.3-1c0.5,0,1,0.1,1.5,0.3
			c0.4,0.2,0.8,0.4,1.1,0.8l0.1,1.5h-1l-0.3-1.1c-0.1-0.1-0.3-0.3-0.6-0.3c-0.2-0.1-0.5-0.1-0.8-0.1c-0.7,0-1.1,0.2-1.4,0.7
			s-0.4,1.1-0.4,1.7v0.3c0,0.7,0.1,1.3,0.4,1.8S682.9,203.6,683.6,203.6z"/>
		<path class="st2" d="M692,204.5c0-0.2-0.1-0.4-0.1-0.5c0-0.1,0-0.3,0-0.4c-0.2,0.3-0.5,0.6-0.9,0.8c-0.4,0.2-0.7,0.3-1.2,0.3
			c-0.7,0-1.3-0.2-1.6-0.5c-0.4-0.3-0.6-0.8-0.6-1.5c0-0.7,0.3-1.2,0.8-1.5c0.5-0.4,1.3-0.5,2.2-0.5h1.3v-0.8c0-0.4-0.1-0.7-0.4-1
			c-0.3-0.2-0.6-0.4-1.1-0.4c-0.3,0-0.6,0-0.8,0.1s-0.4,0.2-0.6,0.3l-0.1,0.7h-1v-1.3c0.3-0.3,0.7-0.4,1.1-0.6s0.9-0.2,1.4-0.2
			c0.8,0,1.4,0.2,1.9,0.6s0.7,1,0.7,1.7v3.3c0,0.1,0,0.2,0,0.3c0,0.1,0,0.2,0,0.3l0.5,0.1v0.8H692z M690,203.5
			c0.4,0,0.8-0.1,1.1-0.3c0.3-0.2,0.6-0.4,0.7-0.7v-1.1h-1.3c-0.5,0-0.9,0.1-1.2,0.4c-0.3,0.2-0.4,0.5-0.4,0.9
			c0,0.3,0.1,0.5,0.3,0.7C689.3,203.5,689.6,203.5,690,203.5z"/>
		<path class="st2" d="M694.5,195.4v-0.8h2.3v8.9l1,0.2v0.8h-3.3v-0.8l1-0.2v-7.9L694.5,195.4z"/>
	</g>
	<g class="st0">
		<path class="st2" d="M701.8,203.7l1-0.2v-7.9l-1-0.2v-0.8h2.3v3.9c0.2-0.3,0.5-0.6,0.9-0.8c0.3-0.2,0.7-0.3,1.1-0.3
			c0.7,0,1.3,0.2,1.7,0.7s0.6,1.1,0.6,2v3.3l1,0.2v0.8h-3.3v-0.8l1-0.2v-3.3c0-0.6-0.1-1-0.4-1.3s-0.6-0.4-1.1-0.4
			c-0.3,0-0.7,0.1-0.9,0.2c-0.3,0.2-0.5,0.4-0.7,0.7v4.1l1,0.2v0.8h-3.3V203.7z"/>
	</g>
	<g class="st0">
		<path class="st2" d="M710.3,201c0-1,0.3-1.9,0.8-2.5c0.5-0.7,1.3-1,2.2-1c0.9,0,1.7,0.3,2.3,1c0.6,0.7,0.8,1.5,0.8,2.5v0.1
			c0,1-0.3,1.9-0.8,2.5c-0.6,0.7-1.3,1-2.2,1c-1,0-1.7-0.3-2.3-1c-0.6-0.7-0.8-1.5-0.8-2.5V201z M711.6,201.1c0,0.7,0.2,1.3,0.5,1.8
			c0.3,0.5,0.8,0.7,1.4,0.7c0.6,0,1-0.2,1.4-0.7c0.3-0.5,0.5-1.1,0.5-1.8V201c0-0.7-0.2-1.3-0.5-1.8c-0.3-0.5-0.8-0.7-1.4-0.7
			s-1.1,0.2-1.4,0.7s-0.5,1.1-0.5,1.8V201.1z"/>
		<path class="st2" d="M722.8,199.7h-0.9l-0.2-0.8c-0.2-0.1-0.3-0.3-0.6-0.3s-0.5-0.1-0.8-0.1c-0.4,0-0.8,0.1-1,0.3
			c-0.2,0.2-0.3,0.4-0.3,0.7c0,0.3,0.1,0.5,0.3,0.6c0.2,0.2,0.6,0.3,1.2,0.4c0.9,0.2,1.5,0.4,1.9,0.8c0.4,0.3,0.6,0.7,0.6,1.3
			c0,0.6-0.2,1.1-0.7,1.5s-1.1,0.6-1.9,0.6c-0.5,0-1-0.1-1.4-0.2c-0.4-0.1-0.8-0.3-1.1-0.5l0-1.6h0.9l0.2,0.9
			c0.1,0.1,0.3,0.2,0.6,0.3c0.2,0.1,0.5,0.1,0.8,0.1c0.4,0,0.8-0.1,1-0.3c0.3-0.2,0.4-0.4,0.4-0.7c0-0.3-0.1-0.5-0.3-0.7
			c-0.2-0.2-0.6-0.3-1.2-0.5c-0.8-0.2-1.5-0.4-1.9-0.7s-0.6-0.7-0.6-1.3c0-0.6,0.2-1,0.7-1.4c0.5-0.4,1.1-0.6,1.9-0.6
			c0.5,0,1,0.1,1.4,0.2s0.8,0.3,1,0.6L722.8,199.7z"/>
		<path class="st2" d="M726.4,195.9v1.7h1.3v0.9h-1.3v4.2c0,0.3,0.1,0.5,0.2,0.7c0.1,0.1,0.3,0.2,0.5,0.2c0.1,0,0.2,0,0.4,0
			c0.1,0,0.3,0,0.3-0.1l0.2,0.9c-0.1,0.1-0.3,0.1-0.5,0.2s-0.5,0.1-0.7,0.1c-0.5,0-0.9-0.2-1.2-0.5c-0.3-0.3-0.5-0.8-0.5-1.4v-4.2
			h-1.1v-0.9h1.1v-1.7H726.4z"/>
	</g>
	<g class="st0">
		<path class="st1" d="M527.2,46.1h-1.5l3.7-10.8h1.5L527.2,46.1z"/>
		<path class="st1" d="M535,45.4c-1.1,0-1.9-0.3-2.6-1c-0.6-0.7-1-1.6-1-2.6v-0.3c0-1.1,0.3-2,0.9-2.7c0.6-0.7,1.4-1.1,2.4-1.1
			c1,0,1.8,0.3,2.3,0.9c0.6,0.6,0.8,1.4,0.8,2.4v1.1h-4.4l0,0c0,0.5,0.2,0.9,0.5,1.2c0.3,0.3,0.7,0.5,1.2,0.5c0.4,0,0.8,0,1.1-0.1
			c0.3-0.1,0.6-0.2,1-0.4l0.5,1.2c-0.3,0.2-0.7,0.4-1.2,0.6S535.6,45.4,535,45.4z M534.8,39.3c-0.4,0-0.7,0.1-0.9,0.4
			c-0.2,0.3-0.3,0.7-0.4,1.1l0,0h2.4v-0.2c0-0.4-0.1-0.8-0.3-1C535.5,39.4,535.2,39.3,534.8,39.3z"/>
	</g>
	<g class="st0">
		<path class="st1" d="M538.8,44.1l1-0.2v-4.6l-1.1-0.2v-1.2h2.9l0.1,1.1c0.2-0.4,0.5-0.7,0.9-0.9c0.4-0.2,0.8-0.3,1.2-0.3
			c0.7,0,1.3,0.2,1.8,0.7c0.4,0.5,0.6,1.2,0.6,2.2v3.2l1,0.2v1.2h-3.8v-1.2l0.9-0.2v-3.2c0-0.5-0.1-0.8-0.3-1.1
			c-0.2-0.2-0.5-0.3-0.9-0.3c-0.3,0-0.5,0.1-0.7,0.2c-0.2,0.1-0.4,0.3-0.5,0.5v4l0.8,0.2v1.2h-3.8V44.1z"/>
	</g>
	<g class="st0">
		<path class="st1" d="M551.2,43.9c0.4,0,0.6-0.1,0.9-0.3c0.2-0.2,0.3-0.5,0.3-0.8h1.8l0,0c0,0.7-0.3,1.4-0.8,1.9
			c-0.6,0.5-1.3,0.8-2.2,0.8c-1.1,0-2-0.3-2.6-1c-0.6-0.7-0.9-1.6-0.9-2.7v-0.2c0-1.1,0.3-2,0.9-2.7s1.5-1.1,2.6-1.1
			c0.6,0,1.1,0.1,1.6,0.3c0.5,0.2,0.9,0.4,1.2,0.8l0,2h-1.6l-0.3-1.2c-0.1-0.1-0.2-0.2-0.4-0.2c-0.1-0.1-0.3-0.1-0.5-0.1
			c-0.6,0-1,0.2-1.2,0.6s-0.3,0.9-0.3,1.6v0.2c0,0.7,0.1,1.2,0.3,1.6C550.3,43.7,550.6,43.9,551.2,43.9z"/>
	</g>
	<g class="st0">
		<path class="st1" d="M555.2,44.1l1-0.2v-4.6l-1.1-0.2v-1.2h2.9l0.1,1.1c0.2-0.4,0.4-0.7,0.7-0.9s0.6-0.3,1-0.3c0.1,0,0.2,0,0.3,0
			c0.1,0,0.2,0,0.3,0.1l-0.2,1.8l-0.8,0c-0.3,0-0.5,0.1-0.7,0.2s-0.3,0.3-0.4,0.5v3.6l1,0.2v1.2h-3.9V44.1z"/>
	</g>
	<g class="st0">
		<path class="st1" d="M568.7,39.1l-0.7,0.1l-2.7,7.2c-0.2,0.5-0.5,1-0.9,1.3c-0.4,0.4-0.9,0.5-1.6,0.5c-0.2,0-0.3,0-0.5,0
			c-0.1,0-0.3-0.1-0.5-0.1l0.2-1.5c0.1,0,0.1,0,0.2,0s0.1,0,0.2,0c0.3,0,0.6-0.1,0.8-0.2c0.2-0.2,0.3-0.4,0.4-0.6l0.2-0.6l-2.3-6.1
			l-0.7-0.1v-1.2h3.6v1.2l-0.8,0.1l1,3l0.1,0.5l0,0l1.2-3.5l-0.8-0.1v-1.2h3.6V39.1z"/>
		<path class="st1" d="M569.2,39.1v-1.2h2.9l0.1,0.9c0.2-0.3,0.5-0.6,0.8-0.7c0.3-0.2,0.7-0.3,1.1-0.3c0.9,0,1.6,0.4,2.1,1.1
			s0.8,1.7,0.8,2.8v0.1c0,1.1-0.3,2-0.8,2.6s-1.2,1-2.1,1c-0.4,0-0.7-0.1-1-0.2c-0.3-0.1-0.6-0.4-0.8-0.6v2.1l1,0.2v1.2h-3.9v-1.2
			l1-0.2v-7.4L569.2,39.1z M575,41.6c0-0.7-0.1-1.3-0.3-1.7s-0.6-0.6-1.1-0.6c-0.3,0-0.6,0.1-0.8,0.2s-0.4,0.3-0.5,0.5v3.2
			c0.1,0.2,0.3,0.4,0.5,0.5s0.5,0.2,0.8,0.2c0.5,0,0.8-0.2,1.1-0.6s0.3-0.9,0.3-1.5V41.6z"/>
		<path class="st1" d="M580.8,36v1.8h1.3v1.4h-1.3V43c0,0.3,0.1,0.5,0.2,0.6c0.1,0.1,0.3,0.2,0.5,0.2c0.1,0,0.3,0,0.4,0
			c0.1,0,0.2,0,0.3-0.1l0.2,1.4c-0.2,0.1-0.4,0.1-0.7,0.2c-0.2,0-0.5,0.1-0.7,0.1c-0.7,0-1.2-0.2-1.6-0.6c-0.4-0.4-0.6-1-0.6-1.8
			v-3.8h-1.1v-1.4h1.1V36H580.8z"/>
		<path class="st1" d="M586.6,45.4c-1.1,0-1.9-0.3-2.6-1c-0.6-0.7-1-1.6-1-2.6v-0.3c0-1.1,0.3-2,0.9-2.7c0.6-0.7,1.4-1.1,2.4-1.1
			c1,0,1.8,0.3,2.3,0.9c0.6,0.6,0.8,1.4,0.8,2.4v1.1h-4.4l0,0c0,0.5,0.2,0.9,0.5,1.2c0.3,0.3,0.7,0.5,1.2,0.5c0.4,0,0.8,0,1.1-0.1
			c0.3-0.1,0.6-0.2,1-0.4l0.5,1.2c-0.3,0.2-0.7,0.4-1.2,0.6S587.2,45.4,586.6,45.4z M586.4,39.3c-0.4,0-0.7,0.1-0.9,0.4
			c-0.2,0.3-0.3,0.7-0.4,1.1l0,0h2.4v-0.2c0-0.4-0.1-0.8-0.3-1C587.1,39.4,586.8,39.3,586.4,39.3z"/>
		<path class="st1" d="M595.3,44.3c-0.2,0.3-0.5,0.6-0.8,0.8c-0.3,0.2-0.7,0.3-1.1,0.3c-0.9,0-1.6-0.3-2.1-1
			c-0.5-0.7-0.8-1.5-0.8-2.6v-0.1c0-1.2,0.3-2.1,0.8-2.8s1.2-1.1,2.1-1.1c0.4,0,0.7,0.1,1,0.2c0.3,0.2,0.6,0.4,0.8,0.7V36l-1.1-0.2
			v-1.2h1.1h2v9.3l1,0.2v1.2h-2.7L595.3,44.3z M592.6,41.8c0,0.6,0.1,1.2,0.3,1.5c0.2,0.4,0.6,0.6,1.1,0.6c0.3,0,0.5-0.1,0.8-0.2
			c0.2-0.1,0.4-0.3,0.5-0.5V40c-0.1-0.2-0.3-0.4-0.5-0.6c-0.2-0.1-0.5-0.2-0.7-0.2c-0.5,0-0.8,0.2-1.1,0.6c-0.2,0.4-0.3,1-0.3,1.7
			V41.8z"/>
		<path class="st1" d="M607.9,40.3c0,1.5-0.4,2.7-1.3,3.6s-1.9,1.4-3.3,1.4c-1.3,0-2.4-0.5-3.3-1.4s-1.2-2.2-1.2-3.6v-0.2
			c0-1.4,0.4-2.7,1.2-3.6c0.8-1,1.9-1.4,3.3-1.4c1.3,0,2.4,0.5,3.3,1.4c0.8,1,1.3,2.2,1.3,3.6V40.3z M605.9,40.2
			c0-1-0.2-1.9-0.6-2.5c-0.4-0.6-1.1-1-1.9-1c-0.8,0-1.5,0.3-1.9,1c-0.4,0.6-0.6,1.5-0.6,2.5v0.2c0,1,0.2,1.9,0.6,2.5
			c0.4,0.6,1,1,1.9,1c0.8,0,1.5-0.3,1.9-1c0.4-0.6,0.6-1.5,0.6-2.5V40.2z"/>
		<path class="st1" d="M613.9,44.3c-0.2,0.3-0.5,0.6-0.9,0.8s-0.7,0.3-1.2,0.3c-0.8,0-1.4-0.2-1.8-0.7c-0.4-0.5-0.7-1.3-0.7-2.3
			v-3.1l-0.8-0.2v-1.2h0.8h2v4.5c0,0.5,0.1,0.9,0.3,1.2c0.2,0.2,0.4,0.4,0.8,0.4c0.3,0,0.6-0.1,0.8-0.2c0.2-0.1,0.4-0.2,0.6-0.4v-4
			l-0.9-0.2v-1.2h0.9h2v6l0.9,0.2v1.2H614L613.9,44.3z"/>
		<path class="st1" d="M620.4,36v1.8h1.3v1.4h-1.3V43c0,0.3,0.1,0.5,0.2,0.6c0.1,0.1,0.3,0.2,0.5,0.2c0.1,0,0.3,0,0.4,0
			c0.1,0,0.2,0,0.3-0.1l0.2,1.4c-0.2,0.1-0.4,0.1-0.7,0.2c-0.2,0-0.5,0.1-0.7,0.1c-0.7,0-1.2-0.2-1.6-0.6c-0.4-0.4-0.6-1-0.6-1.8
			v-3.8h-1.1v-1.4h1.1V36H620.4z"/>
		<path class="st1" d="M622.5,39.1v-1.2h2.9l0.1,0.9c0.2-0.3,0.5-0.6,0.8-0.7c0.3-0.2,0.7-0.3,1.1-0.3c0.9,0,1.6,0.4,2.1,1.1
			s0.8,1.7,0.8,2.8v0.1c0,1.1-0.3,2-0.8,2.6s-1.2,1-2.1,1c-0.4,0-0.7-0.1-1-0.2c-0.3-0.1-0.6-0.4-0.8-0.6v2.1l1,0.2v1.2h-3.9v-1.2
			l1-0.2v-7.4L622.5,39.1z M628.3,41.6c0-0.7-0.1-1.3-0.3-1.7s-0.6-0.6-1.1-0.6c-0.3,0-0.6,0.1-0.8,0.2s-0.4,0.3-0.5,0.5v3.2
			c0.1,0.2,0.3,0.4,0.5,0.5s0.5,0.2,0.8,0.2c0.5,0,0.8-0.2,1.1-0.6s0.3-0.9,0.3-1.5V41.6z"/>
		<path class="st1" d="M636.3,44.3c-0.2,0.3-0.5,0.6-0.9,0.8s-0.7,0.3-1.2,0.3c-0.8,0-1.4-0.2-1.8-0.7c-0.4-0.5-0.7-1.3-0.7-2.3
			v-3.1l-0.8-0.2v-1.2h0.8h2v4.5c0,0.5,0.1,0.9,0.3,1.2c0.2,0.2,0.4,0.4,0.8,0.4c0.3,0,0.6-0.1,0.8-0.2c0.2-0.1,0.4-0.2,0.6-0.4v-4
			l-0.9-0.2v-1.2h0.9h2v6l0.9,0.2v1.2h-2.6L636.3,44.3z"/>
		<path class="st1" d="M642.8,36v1.8h1.3v1.4h-1.3V43c0,0.3,0.1,0.5,0.2,0.6c0.1,0.1,0.3,0.2,0.5,0.2c0.1,0,0.3,0,0.4,0
			c0.1,0,0.2,0,0.3-0.1l0.2,1.4c-0.2,0.1-0.4,0.1-0.7,0.2c-0.2,0-0.5,0.1-0.7,0.1c-0.7,0-1.2-0.2-1.6-0.6c-0.4-0.4-0.6-1-0.6-1.8
			v-3.8h-1.1v-1.4h1.1V36H642.8z"/>
		<path class="st1" d="M651.1,40.4h-1.3l-0.2-0.9c-0.1-0.1-0.3-0.2-0.5-0.3c-0.2-0.1-0.4-0.1-0.7-0.1c-0.4,0-0.6,0.1-0.8,0.2
			c-0.2,0.2-0.3,0.4-0.3,0.6c0,0.2,0.1,0.4,0.3,0.6c0.2,0.1,0.6,0.3,1.2,0.4c0.9,0.2,1.6,0.5,2,0.8c0.4,0.4,0.7,0.8,0.7,1.5
			c0,0.7-0.3,1.2-0.9,1.6c-0.6,0.4-1.3,0.6-2.3,0.6c-0.6,0-1.1-0.1-1.6-0.2c-0.5-0.2-0.9-0.4-1.3-0.7l0-1.7h1.4l0.3,1
			c0.1,0.1,0.3,0.2,0.5,0.2c0.2,0,0.4,0.1,0.6,0.1c0.4,0,0.7-0.1,0.9-0.2s0.3-0.3,0.3-0.6c0-0.2-0.1-0.4-0.3-0.6
			c-0.2-0.2-0.6-0.3-1.2-0.4c-0.9-0.2-1.5-0.4-2-0.8c-0.4-0.3-0.7-0.8-0.7-1.4c0-0.6,0.3-1.2,0.8-1.6c0.5-0.4,1.2-0.7,2.2-0.7
			c0.6,0,1.1,0.1,1.6,0.2s0.9,0.4,1.2,0.6L651.1,40.4z"/>
	</g>
	<g class="st0">
		<path class="st1" d="M192.7,93.2v-1h1.2v-0.9c0-0.8,0.2-1.4,0.6-1.8c0.4-0.4,1-0.6,1.7-0.6c0.2,0,0.3,0,0.5,0
			c0.2,0,0.3,0.1,0.5,0.1l-0.2,1c-0.1,0-0.2,0-0.3,0s-0.2,0-0.4,0c-0.4,0-0.7,0.1-0.9,0.4c-0.2,0.2-0.3,0.6-0.3,1v0.9h1.5v1h-1.5
			v5.3l1.1,0.2v0.9h-3.6v-0.9l1.1-0.2v-5.3H192.7z"/>
		<path class="st1" d="M198,98.7l1.5-0.2v-7.5l-1.6,0v-0.8l2.9-0.6v8.9l1.5,0.2v0.9H198V98.7z"/>
	</g>
	<g class="st0">
		<path class="st1" d="M205.5,101.7c-0.7,0-1.2-0.2-1.6-0.7c-0.4-0.4-0.6-1-0.6-1.7v-0.2c0-0.7,0.2-1.2,0.6-1.7
			c0.4-0.5,0.9-0.7,1.4-0.7c0.6,0,1.1,0.2,1.5,0.6c0.3,0.4,0.5,0.9,0.5,1.5v0.5h-3.1l0,0c0,0.5,0.1,0.8,0.3,1.1
			c0.2,0.3,0.5,0.4,0.9,0.4c0.3,0,0.5,0,0.8-0.1c0.2-0.1,0.4-0.2,0.6-0.3l0.3,0.6c-0.2,0.2-0.4,0.3-0.7,0.4
			C206.2,101.6,205.9,101.7,205.5,101.7z M205.4,97.4c-0.3,0-0.5,0.1-0.7,0.4c-0.2,0.2-0.3,0.6-0.4,0.9l0,0h2.2v-0.1
			c0-0.3-0.1-0.6-0.3-0.9S205.7,97.4,205.4,97.4z"/>
	</g>
	<g class="st0">
		<path class="st1" d="M208,101l0.7-0.1v-3.4l-0.7-0.1v-0.6h1.5l0.1,0.7c0.2-0.3,0.4-0.4,0.6-0.6c0.2-0.1,0.5-0.2,0.8-0.2
			c0.5,0,0.9,0.2,1.2,0.5c0.3,0.3,0.4,0.8,0.4,1.4v2.3l0.7,0.1v0.6H211V101l0.7-0.1v-2.3c0-0.4-0.1-0.7-0.2-0.9
			c-0.2-0.2-0.4-0.3-0.8-0.3c-0.2,0-0.5,0.1-0.7,0.2s-0.3,0.3-0.5,0.5v2.8l0.7,0.1v0.6H208V101z"/>
	</g>
	<g class="st0">
		<path class="st1" d="M216,101c0.3,0,0.5-0.1,0.8-0.3c0.2-0.2,0.3-0.4,0.3-0.7h0.8l0,0c0,0.4-0.2,0.8-0.5,1.1
			c-0.4,0.3-0.8,0.5-1.3,0.5c-0.7,0-1.2-0.2-1.6-0.7c-0.4-0.5-0.5-1-0.5-1.7v-0.2c0-0.7,0.2-1.2,0.5-1.7c0.4-0.5,0.9-0.7,1.6-0.7
			c0.4,0,0.7,0.1,1,0.2c0.3,0.1,0.6,0.3,0.8,0.5l0,1.1h-0.7l-0.2-0.7c-0.1-0.1-0.2-0.2-0.4-0.2s-0.3-0.1-0.5-0.1
			c-0.5,0-0.8,0.2-1,0.5c-0.2,0.3-0.3,0.7-0.3,1.2v0.2c0,0.5,0.1,0.9,0.3,1.2C215.3,100.8,215.6,101,216,101z"/>
	</g>
	<g class="st0">
		<path class="st1" d="M324.9,93.2v-1h1.2v-0.9c0-0.8,0.2-1.4,0.6-1.8c0.4-0.4,1-0.6,1.7-0.6c0.2,0,0.3,0,0.5,0
			c0.2,0,0.3,0.1,0.5,0.1l-0.2,1c-0.1,0-0.2,0-0.3,0s-0.2,0-0.4,0c-0.4,0-0.7,0.1-0.9,0.4c-0.2,0.2-0.3,0.6-0.3,1v0.9h1.5v1h-1.5
			v5.3l1.1,0.2v0.9h-3.6v-0.9l1.1-0.2v-5.3H324.9z"/>
		<path class="st1" d="M329.8,98.7l1.1-0.2v-5.3l-1.1-0.2v-0.9h2.3l0.1,1.1c0.2-0.4,0.6-0.7,0.9-0.9c0.4-0.2,0.8-0.3,1.3-0.3
			c0.8,0,1.4,0.2,1.9,0.7c0.4,0.5,0.7,1.2,0.7,2.2v3.6l1.1,0.2v0.9h-3.6v-0.9l1.1-0.2v-3.6c0-0.7-0.1-1.1-0.4-1.4s-0.7-0.4-1.2-0.4
			c-0.4,0-0.7,0.1-1,0.3s-0.5,0.4-0.7,0.8v4.3l1.1,0.2v0.9h-3.6V98.7z"/>
	</g>
	<g class="st0">
		<path class="st1" d="M341,101.7c-0.7,0-1.2-0.2-1.6-0.7c-0.4-0.4-0.6-1-0.6-1.7v-0.2c0-0.7,0.2-1.2,0.6-1.7
			c0.4-0.5,0.9-0.7,1.4-0.7c0.6,0,1.1,0.2,1.5,0.6c0.3,0.4,0.5,0.9,0.5,1.5v0.5h-3.1l0,0c0,0.5,0.1,0.8,0.3,1.1
			c0.2,0.3,0.5,0.4,0.9,0.4c0.3,0,0.5,0,0.8-0.1c0.2-0.1,0.4-0.2,0.6-0.3l0.3,0.6c-0.2,0.2-0.4,0.3-0.7,0.4
			C341.7,101.6,341.4,101.7,341,101.7z M340.8,97.4c-0.3,0-0.5,0.1-0.7,0.4c-0.2,0.2-0.3,0.6-0.4,0.9l0,0h2.2v-0.1
			c0-0.3-0.1-0.6-0.3-0.9S341.2,97.4,340.8,97.4z"/>
	</g>
	<g class="st0">
		<path class="st1" d="M343.5,101l0.7-0.1v-3.4l-0.7-0.1v-0.6h1.5l0.1,0.7c0.2-0.3,0.4-0.4,0.6-0.6c0.2-0.1,0.5-0.2,0.8-0.2
			c0.5,0,0.9,0.2,1.2,0.5c0.3,0.3,0.4,0.8,0.4,1.4v2.3l0.7,0.1v0.6h-2.3V101l0.7-0.1v-2.3c0-0.4-0.1-0.7-0.2-0.9
			c-0.2-0.2-0.4-0.3-0.8-0.3c-0.2,0-0.5,0.1-0.7,0.2c-0.2,0.1-0.3,0.3-0.5,0.5v2.8l0.7,0.1v0.6h-2.3V101z"/>
	</g>
	<g class="st0">
		<path class="st1" d="M351.5,101c0.3,0,0.5-0.1,0.8-0.3c0.2-0.2,0.3-0.4,0.3-0.7h0.8l0,0c0,0.4-0.2,0.8-0.5,1.1
			c-0.4,0.3-0.8,0.5-1.3,0.5c-0.7,0-1.2-0.2-1.6-0.7c-0.4-0.5-0.5-1-0.5-1.7v-0.2c0-0.7,0.2-1.2,0.5-1.7c0.4-0.5,0.9-0.7,1.6-0.7
			c0.4,0,0.7,0.1,1,0.2c0.3,0.1,0.6,0.3,0.8,0.5l0,1.1h-0.7l-0.2-0.7c-0.1-0.1-0.2-0.2-0.4-0.2s-0.3-0.1-0.5-0.1
			c-0.5,0-0.8,0.2-1,0.5c-0.2,0.3-0.3,0.7-0.3,1.2v0.2c0,0.5,0.1,0.9,0.3,1.2C350.7,100.8,351.1,101,351.5,101z"/>
	</g>
	<g class="st0">
		<path class="st1" d="M514.1,93.2v-1h1.2v-0.9c0-0.8,0.2-1.4,0.6-1.8c0.4-0.4,1-0.6,1.7-0.6c0.2,0,0.3,0,0.5,0
			c0.2,0,0.3,0.1,0.5,0.1l-0.2,1c-0.1,0-0.2,0-0.3,0s-0.2,0-0.4,0c-0.4,0-0.7,0.1-0.9,0.4c-0.2,0.2-0.3,0.6-0.3,1v0.9h1.5v1h-1.5
			v5.3l1.1,0.2v0.9h-3.6v-0.9l1.1-0.2v-5.3H514.1z"/>
		<path class="st1" d="M519.4,98.7l1.5-0.2v-7.5l-1.6,0v-0.8l2.9-0.6v8.9l1.5,0.2v0.9h-4.4V98.7z"/>
	</g>
	<g class="st0">
		<path class="st1" d="M526.9,101.7c-0.7,0-1.2-0.2-1.6-0.7c-0.4-0.4-0.6-1-0.6-1.7v-0.2c0-0.7,0.2-1.2,0.6-1.7
			c0.4-0.5,0.9-0.7,1.4-0.7c0.6,0,1.1,0.2,1.5,0.6c0.3,0.4,0.5,0.9,0.5,1.5v0.5h-3.1l0,0c0,0.5,0.1,0.8,0.3,1.1
			c0.2,0.3,0.5,0.4,0.9,0.4c0.3,0,0.5,0,0.8-0.1c0.2-0.1,0.4-0.2,0.6-0.3l0.3,0.6c-0.2,0.2-0.4,0.3-0.7,0.4
			C527.6,101.6,527.3,101.7,526.9,101.7z M526.8,97.4c-0.3,0-0.5,0.1-0.7,0.4c-0.2,0.2-0.3,0.6-0.4,0.9l0,0h2.2v-0.1
			c0-0.3-0.1-0.6-0.3-0.9S527.1,97.4,526.8,97.4z"/>
	</g>
	<g class="st0">
		<path class="st1" d="M529.4,101l0.7-0.1v-3.4l-0.7-0.1v-0.6h1.5l0.1,0.7c0.2-0.3,0.4-0.4,0.6-0.6c0.2-0.1,0.5-0.2,0.8-0.2
			c0.5,0,0.9,0.2,1.2,0.5c0.3,0.3,0.4,0.8,0.4,1.4v2.3l0.7,0.1v0.6h-2.3V101l0.7-0.1v-2.3c0-0.4-0.1-0.7-0.2-0.9
			c-0.2-0.2-0.4-0.3-0.8-0.3c-0.2,0-0.5,0.1-0.7,0.2c-0.2,0.1-0.3,0.3-0.5,0.5v2.8l0.7,0.1v0.6h-2.3V101z"/>
	</g>
	<g class="st0">
		<path class="st1" d="M537.4,101c0.3,0,0.5-0.1,0.8-0.3c0.2-0.2,0.3-0.4,0.3-0.7h0.8l0,0c0,0.4-0.2,0.8-0.5,1.1
			c-0.4,0.3-0.8,0.5-1.3,0.5c-0.7,0-1.2-0.2-1.6-0.7c-0.4-0.5-0.5-1-0.5-1.7v-0.2c0-0.7,0.2-1.2,0.5-1.7c0.4-0.5,0.9-0.7,1.6-0.7
			c0.4,0,0.7,0.1,1,0.2c0.3,0.1,0.6,0.3,0.8,0.5l0,1.1h-0.7l-0.2-0.7c-0.1-0.1-0.2-0.2-0.4-0.2s-0.3-0.1-0.5-0.1
			c-0.5,0-0.8,0.2-1,0.5c-0.2,0.3-0.3,0.7-0.3,1.2v0.2c0,0.5,0.1,0.9,0.3,1.2C536.7,100.8,537,101,537.4,101z"/>
	</g>
	<g class="st0">
		<path class="st1" d="M646.3,93.2v-1h1.2v-0.9c0-0.8,0.2-1.4,0.6-1.8c0.4-0.4,1-0.6,1.7-0.6c0.2,0,0.3,0,0.5,0
			c0.2,0,0.3,0.1,0.5,0.1l-0.2,1c-0.1,0-0.2,0-0.3,0s-0.2,0-0.4,0c-0.4,0-0.7,0.1-0.9,0.4c-0.2,0.2-0.3,0.6-0.3,1v0.9h1.5v1h-1.5
			v5.3l1.1,0.2v0.9h-3.6v-0.9l1.1-0.2v-5.3H646.3z"/>
		<path class="st1" d="M651.2,98.7l1.1-0.2v-5.3l-1.1-0.2v-0.9h2.3l0.1,1.1c0.2-0.4,0.6-0.7,0.9-0.9c0.4-0.2,0.8-0.3,1.3-0.3
			c0.8,0,1.4,0.2,1.9,0.7c0.4,0.5,0.7,1.2,0.7,2.2v3.6l1.1,0.2v0.9h-3.6v-0.9l1.1-0.2v-3.6c0-0.7-0.1-1.1-0.4-1.4s-0.7-0.4-1.2-0.4
			c-0.4,0-0.7,0.1-1,0.3s-0.5,0.4-0.7,0.8v4.3l1.1,0.2v0.9h-3.6V98.7z"/>
	</g>
	<g class="st0">
		<path class="st1" d="M662.4,101.7c-0.7,0-1.2-0.2-1.6-0.7c-0.4-0.4-0.6-1-0.6-1.7v-0.2c0-0.7,0.2-1.2,0.6-1.7
			c0.4-0.5,0.9-0.7,1.4-0.7c0.6,0,1.1,0.2,1.5,0.6c0.3,0.4,0.5,0.9,0.5,1.5v0.5h-3.1l0,0c0,0.5,0.1,0.8,0.3,1.1
			c0.2,0.3,0.5,0.4,0.9,0.4c0.3,0,0.5,0,0.8-0.1c0.2-0.1,0.4-0.2,0.6-0.3l0.3,0.6c-0.2,0.2-0.4,0.3-0.7,0.4
			C663.1,101.6,662.8,101.7,662.4,101.7z M662.2,97.4c-0.3,0-0.5,0.1-0.7,0.4c-0.2,0.2-0.3,0.6-0.4,0.9l0,0h2.2v-0.1
			c0-0.3-0.1-0.6-0.3-0.9S662.6,97.4,662.2,97.4z"/>
	</g>
	<g class="st0">
		<path class="st1" d="M664.9,101l0.7-0.1v-3.4l-0.7-0.1v-0.6h1.5l0.1,0.7c0.2-0.3,0.4-0.4,0.6-0.6c0.2-0.1,0.5-0.2,0.8-0.2
			c0.5,0,0.9,0.2,1.2,0.5c0.3,0.3,0.4,0.8,0.4,1.4v2.3l0.7,0.1v0.6h-2.3V101l0.7-0.1v-2.3c0-0.4-0.1-0.7-0.2-0.9
			c-0.2-0.2-0.4-0.3-0.8-0.3c-0.2,0-0.5,0.1-0.7,0.2c-0.2,0.1-0.3,0.3-0.5,0.5v2.8l0.7,0.1v0.6h-2.3V101z"/>
	</g>
	<g class="st0">
		<path class="st1" d="M672.9,101c0.3,0,0.5-0.1,0.8-0.3c0.2-0.2,0.3-0.4,0.3-0.7h0.8l0,0c0,0.4-0.2,0.8-0.5,1.1
			c-0.4,0.3-0.8,0.5-1.3,0.5c-0.7,0-1.2-0.2-1.6-0.7c-0.4-0.5-0.5-1-0.5-1.7v-0.2c0-0.7,0.2-1.2,0.5-1.7c0.4-0.5,0.9-0.7,1.6-0.7
			c0.4,0,0.7,0.1,1,0.2c0.3,0.1,0.6,0.3,0.8,0.5l0,1.1H674l-0.2-0.7c-0.1-0.1-0.2-0.2-0.4-0.2s-0.3-0.1-0.5-0.1
			c-0.5,0-0.8,0.2-1,0.5c-0.2,0.3-0.3,0.7-0.3,1.2v0.2c0,0.5,0.1,0.9,0.3,1.2C672.1,100.8,672.5,101,672.9,101z"/>
	</g>
	<g class="st0">
		<path class="st2" d="M172.5,26.5h-0.9l-0.2-1.3c-0.2-0.2-0.5-0.4-0.7-0.5s-0.6-0.2-1.1-0.2c-1,0-1.7,0.3-2.2,1s-0.8,1.6-0.8,2.7
			v0.1c0,1.1,0.3,2,0.8,2.7c0.5,0.7,1.2,1.1,2.1,1.1c0.4,0,0.8-0.1,1.1-0.2s0.6-0.3,0.8-0.5l0.2-1.3h0.9v1.6
			c-0.3,0.3-0.7,0.6-1.2,0.9s-1.2,0.4-1.9,0.4c-1.2,0-2.2-0.4-3-1.3s-1.2-2-1.2-3.4v-0.1c0-1.4,0.4-2.5,1.1-3.4s1.8-1.3,3-1.3
			c0.7,0,1.3,0.1,1.9,0.4c0.5,0.3,0.9,0.6,1.2,0.9V26.5z"/>
		<path class="st2" d="M173.7,33v-0.8l1-0.2v-7.3l-1-0.2v-0.8h1h1.3h1v0.8l-1,0.2V32h3.2l0.1-1.1h1.1v2H173.7z"/>
		<path class="st2" d="M181.3,24.5v-0.8h3.3v0.8l-1,0.2V32l1,0.2V33h-3.3v-0.8l1-0.2v-7.3L181.3,24.5z"/>
	</g>
	<g class="st0">
		<path class="st2" d="M686.3,26.5h-0.9l-0.2-1.3c-0.2-0.2-0.5-0.4-0.7-0.5c-0.3-0.1-0.7-0.2-1.1-0.2c-1,0-1.7,0.3-2.2,1
			c-0.5,0.7-0.8,1.6-0.8,2.7v0.1c0,1.1,0.3,2,0.8,2.7c0.5,0.7,1.2,1.1,2.1,1.1c0.4,0,0.8-0.1,1.1-0.2s0.6-0.3,0.8-0.5l0.2-1.3h0.9
			v1.6c-0.3,0.3-0.7,0.6-1.2,0.9s-1.2,0.4-1.9,0.4c-1.2,0-2.2-0.4-3-1.3s-1.2-2-1.2-3.4v-0.1c0-1.4,0.4-2.5,1.1-3.4
			c0.8-0.9,1.8-1.3,3-1.3c0.7,0,1.3,0.1,1.9,0.4c0.5,0.3,0.9,0.6,1.2,0.9V26.5z"/>
		<path class="st2" d="M687.5,33v-0.8l1-0.2v-7.3l-1-0.2v-0.8h1h1.3h1v0.8l-1,0.2V32h3.2l0.1-1.1h1.1v2H687.5z"/>
		<path class="st2" d="M695.1,24.5v-0.8h3.3v0.8l-1,0.2V32l1,0.2V33h-3.3v-0.8l1-0.2v-7.3L695.1,24.5z"/>
	</g>
	<g class="st0">
		<path class="st2" d="M69.4,46.4H68l3.7-10.8h1.5L69.4,46.4z"/>
		<path class="st2" d="M73.6,36.8v-1.2h4.1v1.2L76.7,37v7.1l1.1,0.2v1.2h-4.1v-1.2l1.1-0.2V37L73.6,36.8z"/>
		<path class="st2" d="M88.7,35.6v1.2L87.6,37v8.5h-2l-4-6.7l0,0v5.3l1.1,0.2v1.2h-4.1v-1.2l1.1-0.2V37l-1.1-0.2v-1.2h1.1h2l4,6.7
			l0,0V37l-1.1-0.2v-1.2h3.1H88.7z"/>
		<path class="st2" d="M94,35.6c1.1,0,2,0.3,2.7,0.9c0.7,0.6,1,1.4,1,2.3c0,1-0.3,1.7-1,2.3s-1.6,0.9-2.7,0.9h-1.7v2.2l1.1,0.2v1.2
			h-4.1v-1.2l1.1-0.2V37l-1.1-0.2v-1.2h1.1H94z M92.4,40.4H94c0.6,0,1-0.2,1.3-0.5c0.3-0.3,0.4-0.7,0.4-1.2c0-0.5-0.1-0.9-0.4-1.2
			c-0.3-0.3-0.7-0.5-1.3-0.5h-1.7V40.4z"/>
		<path class="st2" d="M102.4,35.6v1.2l-1.1,0.2v5.2c0,0.7,0.2,1.1,0.5,1.5c0.4,0.3,0.8,0.5,1.5,0.5c0.6,0,1.1-0.2,1.5-0.5
			s0.5-0.8,0.5-1.5V37l-1.1-0.2v-1.2h4.1v1.2l-1.1,0.2v5.2c0,1.1-0.4,2-1.1,2.6s-1.7,0.9-2.9,0.9c-1.2,0-2.1-0.3-2.9-0.9
			s-1.1-1.5-1.1-2.6V37l-1.1-0.2v-1.2h1.1h2H102.4z"/>
	</g>
	<g class="st0">
		<path class="st2" d="M117.7,35.6v2.7h-1.5l-0.1-1.1h-1.8v7l1.1,0.2v1.2h-4.1v-1.2l1.1-0.2v-7h-1.8l-0.1,1.1h-1.5v-2.7H117.7z"/>
	</g>
	<g class="st0">
		<path class="st2" d="M125.8,38.8h-1.5l-0.3-1.4c-0.2-0.1-0.4-0.2-0.8-0.3s-0.7-0.1-1.1-0.1c-0.5,0-1,0.1-1.3,0.3
			c-0.3,0.2-0.4,0.5-0.4,0.9c0,0.3,0.2,0.6,0.5,0.8c0.3,0.2,0.9,0.4,1.6,0.7c1.1,0.3,1.9,0.7,2.5,1.2s0.9,1.2,0.9,2
			c0,0.9-0.3,1.5-1,2s-1.6,0.7-2.7,0.7c-0.8,0-1.5-0.1-2.1-0.4s-1.2-0.6-1.6-1v-2.1h1.5l0.2,1.4c0.2,0.2,0.5,0.3,0.8,0.4
			c0.3,0.1,0.7,0.2,1.2,0.2c0.5,0,1-0.1,1.2-0.3s0.4-0.5,0.4-0.9c0-0.4-0.1-0.7-0.4-0.9s-0.7-0.5-1.4-0.7c-1.2-0.3-2.1-0.7-2.7-1.2
			s-0.9-1.1-0.9-1.9c0-0.8,0.3-1.5,1-2c0.7-0.5,1.5-0.8,2.6-0.8c0.8,0,1.5,0.1,2.1,0.3s1.2,0.5,1.6,0.9V38.8z"/>
	</g>
	<g class="st0">
		<path class="st1" d="M35.5,93.5v-1h1.2v-0.9c0-0.8,0.2-1.4,0.6-1.8c0.4-0.4,1-0.6,1.7-0.6c0.2,0,0.3,0,0.5,0
			c0.2,0,0.3,0.1,0.5,0.1l-0.2,1c-0.1,0-0.2,0-0.3,0s-0.2,0-0.4,0c-0.4,0-0.7,0.1-0.9,0.4c-0.2,0.2-0.3,0.6-0.3,1v0.9h1.5v1H38v5.3
			l1.1,0.2v0.9h-3.6V99l1.1-0.2v-5.3H35.5z"/>
		<path class="st1" d="M40.8,99l1.5-0.2v-7.5l-1.6,0v-0.8l2.9-0.6v8.9l1.5,0.2v0.9h-4.4V99z"/>
	</g>
	<g class="st0">
		<path class="st1" d="M145.7,93.5v-1h1.2v-0.9c0-0.8,0.2-1.4,0.6-1.8c0.4-0.4,1-0.6,1.7-0.6c0.2,0,0.3,0,0.5,0
			c0.2,0,0.3,0.1,0.5,0.1l-0.2,1c-0.1,0-0.2,0-0.3,0s-0.2,0-0.4,0c-0.4,0-0.7,0.1-0.9,0.4c-0.2,0.2-0.3,0.6-0.3,1v0.9h1.5v1h-1.5
			v5.3l1.1,0.2v0.9h-3.6V99l1.1-0.2v-5.3H145.7z"/>
		<path class="st1" d="M150.6,99l1.1-0.2v-5.3l-1.1-0.2v-0.9h2.3l0.1,1.1c0.2-0.4,0.6-0.7,0.9-0.9c0.4-0.2,0.8-0.3,1.3-0.3
			c0.8,0,1.4,0.2,1.9,0.7c0.4,0.5,0.7,1.2,0.7,2.2v3.6l1.1,0.2v0.9h-3.6V99l1.1-0.2v-3.6c0-0.7-0.1-1.1-0.4-1.4
			c-0.3-0.3-0.7-0.4-1.2-0.4c-0.4,0-0.7,0.1-1,0.3c-0.3,0.2-0.5,0.4-0.7,0.8v4.3l1.1,0.2v0.9h-3.6V99z"/>
	</g>
	<g class="st0">
		<path class="st2" d="M731.1,46.7h-1.5l3.7-10.8h1.5L731.1,46.7z"/>
		<path class="st2" d="M744.3,40.9c0,1.5-0.4,2.7-1.3,3.6s-1.9,1.4-3.3,1.4c-1.3,0-2.4-0.5-3.3-1.4c-0.8-1-1.2-2.2-1.2-3.6v-0.2
			c0-1.4,0.4-2.7,1.2-3.6s1.9-1.4,3.3-1.4c1.3,0,2.4,0.5,3.3,1.4c0.8,1,1.3,2.2,1.3,3.6V40.9z M742.4,40.7c0-1-0.2-1.9-0.6-2.5
			s-1.1-1-1.9-1s-1.5,0.3-1.9,1c-0.4,0.6-0.6,1.5-0.6,2.5v0.2c0,1,0.2,1.9,0.6,2.5c0.4,0.6,1,1,1.9,1c0.8,0,1.5-0.3,1.9-1
			c0.4-0.6,0.6-1.5,0.6-2.5V40.7z"/>
		<path class="st2" d="M749.2,35.9v1.2l-1.1,0.2v5.2c0,0.7,0.2,1.1,0.5,1.5c0.4,0.3,0.8,0.5,1.5,0.5c0.6,0,1.1-0.2,1.5-0.5
			s0.5-0.8,0.5-1.5v-5.2l-1.1-0.2v-1.2h4.1v1.2l-1.1,0.2v5.2c0,1.1-0.4,2-1.1,2.6c-0.7,0.6-1.7,0.9-2.9,0.9c-1.2,0-2.2-0.3-2.9-0.9
			c-0.7-0.6-1.1-1.5-1.1-2.6v-5.2l-1.1-0.2v-1.2h1.1h2H749.2z"/>
		<path class="st2" d="M764.5,35.9v2.7H763l-0.1-1.1H761v7l1.1,0.2v1.2H758v-1.2l1.1-0.2v-7h-1.8l-0.1,1.1h-1.5v-2.7H764.5z"/>
		<path class="st2" d="M769.9,35.9c1.1,0,2,0.3,2.7,0.9c0.7,0.6,1,1.4,1,2.3c0,1-0.3,1.7-1,2.3c-0.7,0.6-1.6,0.9-2.7,0.9h-1.7v2.2
			l1.1,0.2v1.2h-4.1v-1.2l1.1-0.2v-7.1l-1.1-0.2v-1.2h1.1H769.9z M768.2,40.7h1.7c0.6,0,1-0.2,1.3-0.5c0.3-0.3,0.4-0.7,0.4-1.2
			c0-0.5-0.1-0.9-0.4-1.2c-0.3-0.3-0.7-0.5-1.3-0.5h-1.7V40.7z"/>
		<path class="st2" d="M778.2,35.9v1.2l-1.1,0.2v5.2c0,0.7,0.2,1.1,0.5,1.5c0.4,0.3,0.8,0.5,1.5,0.5c0.6,0,1.1-0.2,1.5-0.5
			s0.5-0.8,0.5-1.5v-5.2l-1.1-0.2v-1.2h4.1v1.2l-1.1,0.2v5.2c0,1.1-0.4,2-1.1,2.6c-0.7,0.6-1.7,0.9-2.9,0.9c-1.2,0-2.1-0.3-2.9-0.9
			c-0.7-0.6-1.1-1.5-1.1-2.6v-5.2l-1.1-0.2v-1.2h1.1h2H778.2z"/>
	</g>
	<g class="st0">
		<path class="st2" d="M793.5,35.9v2.7H792l-0.1-1.1h-1.8v7l1.1,0.2v1.2H787v-1.2l1.1-0.2v-7h-1.8l-0.1,1.1h-1.5v-2.7H793.5z"/>
	</g>
	<g class="st0">
		<path class="st2" d="M801.6,39h-1.5l-0.3-1.4c-0.2-0.1-0.4-0.2-0.8-0.3c-0.3-0.1-0.7-0.1-1.1-0.1c-0.5,0-1,0.1-1.3,0.3
			c-0.3,0.2-0.4,0.5-0.4,0.9c0,0.3,0.2,0.6,0.5,0.8c0.3,0.2,0.9,0.4,1.6,0.7c1.1,0.3,1.9,0.7,2.5,1.2s0.9,1.2,0.9,2
			c0,0.9-0.3,1.5-1,2c-0.7,0.5-1.6,0.7-2.7,0.7c-0.8,0-1.5-0.1-2.1-0.4s-1.2-0.6-1.6-1v-2.1h1.5l0.2,1.4c0.2,0.2,0.5,0.3,0.8,0.4
			c0.3,0.1,0.7,0.2,1.2,0.2c0.5,0,1-0.1,1.2-0.3s0.4-0.5,0.4-0.9c0-0.4-0.1-0.7-0.4-0.9s-0.7-0.5-1.4-0.7c-1.2-0.3-2.1-0.7-2.7-1.2
			c-0.6-0.5-0.9-1.1-0.9-1.9c0-0.8,0.3-1.5,1-2c0.7-0.5,1.5-0.8,2.6-0.8c0.8,0,1.5,0.1,2.1,0.3s1.2,0.5,1.6,0.9V39z"/>
	</g>
	<g class="st0">
		<path class="st1" d="M704.3,93.7v-1h1.2v-0.9c0-0.8,0.2-1.4,0.6-1.8c0.4-0.4,1-0.6,1.7-0.6c0.2,0,0.3,0,0.5,0
			c0.2,0,0.3,0.1,0.5,0.1l-0.2,1c-0.1,0-0.2,0-0.3,0s-0.2,0-0.4,0c-0.4,0-0.7,0.1-0.9,0.4c-0.2,0.2-0.3,0.6-0.3,1v0.9h1.5v1h-1.5
			v5.3l1.1,0.2v0.9h-3.6v-0.9l1.1-0.2v-5.3H704.3z"/>
		<path class="st1" d="M709.7,99.3l1.5-0.2v-7.5l-1.6,0v-0.8l2.9-0.6v8.9l1.5,0.2v0.9h-4.4V99.3z"/>
	</g>
	<g class="st0">
		<path class="st1" d="M814.5,93.7v-1h1.2v-0.9c0-0.8,0.2-1.4,0.6-1.8c0.4-0.4,1-0.6,1.7-0.6c0.2,0,0.3,0,0.5,0
			c0.2,0,0.3,0.1,0.5,0.1l-0.2,1c-0.1,0-0.2,0-0.3,0c-0.1,0-0.2,0-0.4,0c-0.4,0-0.7,0.1-0.9,0.4c-0.2,0.2-0.3,0.6-0.3,1v0.9h1.5v1
			H817v5.3l1.1,0.2v0.9h-3.6v-0.9l1.1-0.2v-5.3H814.5z"/>
		<path class="st1" d="M819.4,99.3l1.1-0.2v-5.3l-1.1-0.2v-0.9h2.3l0.1,1.1c0.2-0.4,0.6-0.7,0.9-0.9c0.4-0.2,0.8-0.3,1.3-0.3
			c0.8,0,1.4,0.2,1.9,0.7c0.4,0.5,0.7,1.2,0.7,2.2v3.6l1.1,0.2v0.9h-3.6v-0.9l1.1-0.2v-3.6c0-0.7-0.1-1.1-0.4-1.4
			c-0.3-0.3-0.7-0.4-1.2-0.4c-0.4,0-0.7,0.1-1,0.3c-0.3,0.2-0.5,0.4-0.7,0.8v4.3l1.1,0.2v0.9h-3.6V99.3z"/>
	</g>
	
		<linearGradient id="SVGID_1_" gradientUnits="userSpaceOnUse" x1="368.77" y1="158.92" x2="494.43" y2="158.92" gradientTransform="matrix(1 0 0 -1 0 226)">
		<stop  offset="0" style="stop-color:#990066"/>
		<stop  offset="0.19" style="stop-color:#780066"/>
		<stop  offset="0.4" style="stop-color:#5A0066"/>
		<stop  offset="0.61" style="stop-color:#440066"/>
		<stop  offset="0.81" style="stop-color:#370066"/>
		<stop  offset="1" style="stop-color:#330066"/>
	</linearGradient>
	<path class="st3" d="M373.8,29.3h115.7c2.8,0,5,2.2,5,5v65.5c0,2.8-2.2,5-5,5H373.8c-2.8,0-5-2.2-5-5V34.3
		C368.8,31.6,371,29.3,373.8,29.3z"/>
	<path class="st4" d="M373.8,29.3h115.7c2.8,0,5,2.2,5,5v65.5c0,2.8-2.2,5-5,5H373.8c-2.8,0-5-2.2-5-5V34.3
		C368.8,31.6,371,29.3,373.8,29.3z"/>
	<path class="st5" d="M386.5,53.6h89.3c2.8,0,5,2.2,5,5v17.2c0,2.8-2.2,5-5,5h-89.3c-2.8,0-5-2.2-5-5V58.6
		C381.5,55.8,383.8,53.6,386.5,53.6z"/>
	<g class="st0">
		<path class="st2" d="M400.7,69.7c0.3,0,0.5-0.1,0.7-0.2s0.3-0.4,0.3-0.7h1.4l0,0c0,0.6-0.2,1.1-0.7,1.5s-1,0.6-1.7,0.6
			c-0.9,0-1.5-0.3-2-0.8S398,68.8,398,68v-0.2c0-0.9,0.2-1.6,0.7-2.1c0.5-0.6,1.2-0.8,2.1-0.8c0.5,0,0.9,0.1,1.3,0.2
			c0.4,0.1,0.7,0.3,0.9,0.6l0,1.6h-1.3l-0.3-0.9c-0.1-0.1-0.2-0.1-0.3-0.2s-0.2-0.1-0.4-0.1c-0.4,0-0.8,0.2-0.9,0.5
			s-0.3,0.7-0.3,1.2V68c0,0.5,0.1,0.9,0.3,1.3C400,69.5,400.3,69.7,400.7,69.7z"/>
		<path class="st2" d="M403.8,67.8c0-0.9,0.2-1.6,0.7-2.1c0.5-0.6,1.2-0.8,2-0.8c0.9,0,1.5,0.3,2,0.8c0.5,0.6,0.7,1.3,0.7,2.1v0.1
			c0,0.9-0.2,1.6-0.7,2.1c-0.5,0.5-1.2,0.8-2,0.8c-0.9,0-1.5-0.3-2-0.8c-0.5-0.5-0.7-1.3-0.7-2.1V67.8z M405.4,67.9
			c0,0.5,0.1,1,0.3,1.3s0.5,0.5,0.9,0.5c0.4,0,0.7-0.2,0.9-0.5c0.2-0.3,0.3-0.7,0.3-1.3v-0.1c0-0.5-0.1-0.9-0.3-1.3
			s-0.5-0.5-0.9-0.5s-0.7,0.2-0.9,0.5s-0.3,0.7-0.3,1.3V67.9z"/>
	</g>
	<g class="st0">
		<path class="st2" d="M409.9,65.9V65h2.3l0.1,0.7c0.2-0.3,0.4-0.4,0.6-0.6s0.5-0.2,0.8-0.2c0.7,0,1.3,0.3,1.7,0.8
			c0.4,0.6,0.6,1.3,0.6,2.2V68c0,0.9-0.2,1.5-0.6,2.1c-0.4,0.5-1,0.8-1.7,0.8c-0.3,0-0.6-0.1-0.8-0.2c-0.2-0.1-0.4-0.3-0.6-0.5v1.7
			l0.8,0.2V73h-3.1v-0.9l0.8-0.2v-5.8L409.9,65.9z M414.4,67.9c0-0.5-0.1-1-0.3-1.3s-0.5-0.5-0.8-0.5c-0.2,0-0.4,0-0.6,0.1
			c-0.2,0.1-0.3,0.2-0.4,0.4v2.5c0.1,0.2,0.2,0.3,0.4,0.4c0.2,0.1,0.4,0.1,0.6,0.1c0.4,0,0.7-0.1,0.8-0.4c0.2-0.3,0.3-0.7,0.3-1.2
			V67.9z"/>
	</g>
	<g class="st0">
		<path class="st2" d="M422.6,65.9L422,66l-2.1,5.7c-0.2,0.4-0.4,0.8-0.7,1.1c-0.3,0.3-0.7,0.4-1.3,0.4c-0.1,0-0.3,0-0.4,0
			c-0.1,0-0.3-0.1-0.4-0.1l0.2-1.1c0.1,0,0.1,0,0.2,0c0.1,0,0.1,0,0.1,0c0.3,0,0.5-0.1,0.6-0.2s0.2-0.3,0.3-0.5l0.2-0.4l-1.8-4.8
			l-0.5-0.1V65h2.8v0.9l-0.6,0.1l0.8,2.3l0.1,0.4l0,0l0.9-2.7l-0.7-0.1V65h2.8V65.9z"/>
		<path class="st2" d="M430.5,67h-1.1l-0.2-0.7c-0.1-0.1-0.2-0.2-0.4-0.2c-0.2-0.1-0.3-0.1-0.5-0.1c-0.3,0-0.5,0.1-0.7,0.2
			c-0.2,0.1-0.2,0.3-0.2,0.5c0,0.2,0.1,0.3,0.2,0.4s0.5,0.2,0.9,0.3c0.7,0.1,1.3,0.4,1.6,0.6s0.5,0.7,0.5,1.1c0,0.5-0.2,1-0.7,1.3
			c-0.4,0.3-1,0.5-1.8,0.5c-0.4,0-0.9-0.1-1.2-0.2c-0.4-0.1-0.7-0.3-1-0.6l0-1.3h1.1l0.2,0.8c0.1,0.1,0.2,0.1,0.4,0.2
			c0.2,0,0.3,0.1,0.5,0.1c0.3,0,0.6-0.1,0.7-0.2c0.2-0.1,0.2-0.3,0.2-0.5c0-0.2-0.1-0.3-0.3-0.4c-0.2-0.1-0.5-0.2-0.9-0.3
			c-0.7-0.1-1.2-0.3-1.5-0.6c-0.3-0.3-0.5-0.6-0.5-1.1c0-0.5,0.2-0.9,0.6-1.3s1-0.5,1.7-0.5c0.5,0,0.9,0.1,1.3,0.2
			c0.4,0.1,0.7,0.3,0.9,0.5L430.5,67z"/>
		<path class="st2" d="M434.2,70.9c-0.8,0-1.5-0.3-2-0.8s-0.8-1.2-0.8-2v-0.2c0-0.9,0.2-1.6,0.7-2.1c0.5-0.6,1.1-0.8,1.9-0.8
			c0.8,0,1.4,0.2,1.8,0.7c0.4,0.5,0.7,1.1,0.7,1.9v0.9h-3.5l0,0c0,0.4,0.2,0.7,0.4,0.9c0.2,0.2,0.5,0.4,0.9,0.4c0.3,0,0.6,0,0.9-0.1
			c0.2-0.1,0.5-0.2,0.8-0.3l0.4,1c-0.2,0.2-0.6,0.3-0.9,0.5C435.1,70.8,434.7,70.9,434.2,70.9z M434.1,66.1c-0.3,0-0.5,0.1-0.7,0.3
			c-0.2,0.2-0.3,0.5-0.3,0.9l0,0h1.9v-0.1c0-0.3-0.1-0.6-0.2-0.8C434.6,66.2,434.4,66.1,434.1,66.1z"/>
	</g>
	<g class="st0">
		<path class="st2" d="M437.4,69.8l0.8-0.2v-3.6l-0.8-0.2V65h2.3l0.1,0.8c0.1-0.3,0.3-0.5,0.5-0.7c0.2-0.2,0.5-0.3,0.7-0.3
			c0.1,0,0.2,0,0.3,0c0.1,0,0.2,0,0.2,0l-0.2,1.4l-0.6,0c-0.2,0-0.4,0-0.6,0.1s-0.3,0.2-0.3,0.4v2.8l0.8,0.2v0.9h-3.1V69.8z"/>
	</g>
	<g class="st0">
		<path class="st2" d="M444.5,65.9l-0.5,0.1l0.8,2.6l0.1,0.5h0l0.1-0.5l0.8-2.6l-0.6-0.1V65h2.6v0.9l-0.5,0.1l-1.7,4.8h-1.5
			l-1.7-4.8l-0.5-0.1V65h2.6V65.9z"/>
		<path class="st2" d="M448.2,69.8l0.8-0.2v-3.6l-0.8-0.2V65h2.4v4.7l0.8,0.2v0.9h-3.1V69.8z M450.6,63.6H449v-1.2h1.6V63.6z"/>
		<path class="st2" d="M454.6,69.7c0.3,0,0.5-0.1,0.7-0.2c0.2-0.2,0.3-0.4,0.3-0.7h1.4l0,0c0,0.6-0.2,1.1-0.7,1.5
			c-0.5,0.4-1,0.6-1.7,0.6c-0.9,0-1.5-0.3-2-0.8c-0.5-0.5-0.7-1.3-0.7-2.1v-0.2c0-0.9,0.2-1.6,0.7-2.1c0.5-0.6,1.2-0.8,2.1-0.8
			c0.5,0,0.9,0.1,1.3,0.2c0.4,0.1,0.7,0.3,0.9,0.6l0,1.6h-1.3l-0.3-0.9c-0.1-0.1-0.2-0.1-0.3-0.2c-0.1,0-0.2-0.1-0.4-0.1
			c-0.4,0-0.8,0.2-0.9,0.5s-0.3,0.7-0.3,1.2V68c0,0.5,0.1,0.9,0.3,1.3C453.9,69.5,454.1,69.7,454.6,69.7z"/>
		<path class="st2" d="M460.4,70.9c-0.8,0-1.5-0.3-2-0.8c-0.5-0.5-0.8-1.2-0.8-2v-0.2c0-0.9,0.2-1.6,0.7-2.1s1.1-0.8,1.9-0.8
			c0.8,0,1.4,0.2,1.8,0.7c0.4,0.5,0.7,1.1,0.7,1.9v0.9h-3.5l0,0c0,0.4,0.2,0.7,0.4,0.9s0.5,0.4,0.9,0.4c0.3,0,0.6,0,0.9-0.1
			c0.2-0.1,0.5-0.2,0.8-0.3l0.4,1c-0.2,0.2-0.6,0.3-0.9,0.5C461.3,70.8,460.9,70.9,460.4,70.9z M460.3,66.1c-0.3,0-0.5,0.1-0.7,0.3
			c-0.2,0.2-0.3,0.5-0.3,0.9l0,0h1.9v-0.1c0-0.3-0.1-0.6-0.2-0.8C460.8,66.2,460.6,66.1,460.3,66.1z"/>
	</g>
	<path class="st6" d="M423.4,18.6c4.6-4.5,12.1-4.5,16.6,0.1c4.5,4.6,4.5,12.1-0.1,16.6c-4.6,4.5-12.1,4.5-16.6-0.1
		c-2.2-2.2-3.4-5.1-3.4-8.2c0-2.6,0.8-5.1,2.4-7.1"/>
	<path class="st5" d="M431.6,32.6h-4.2c-0.6,0-0.8-0.2-0.8-0.8v-6.5c0-0.6,0.2-0.8,0.8-0.8h8.5c0.5,0,0.8,0.2,0.8,0.8v6.5
		c0,0.6-0.2,0.8-0.8,0.8C434.4,32.6,433,32.6,431.6,32.6z"/>
	<path class="st5" d="M427.3,24c0-1.8,1-3.4,2.6-4.1c2.1-0.9,4.6,0,5.5,2.1c0.1,0.2,0.2,0.5,0.2,0.7c0.1,0.4,0.1,0.8,0.2,1.2"/>
	<path class="st2" d="M430.9,29.8L430.9,29.8v0.9c0,0.2,0.1,0.2,0.3,0.2h0.8c0.2,0,0.3-0.1,0.3-0.3V29c0-0.2,0.1-0.3,0.2-0.4
		c0.5-0.3,0.8-0.9,0.6-1.4c-0.2-0.6-0.8-1-1.4-1c-0.7-0.1-1.3,0.3-1.6,0.9c-0.2,0.6,0,1.2,0.5,1.5c0.2,0.1,0.3,0.3,0.3,0.5
		C430.9,29.3,430.9,29.6,430.9,29.8z"/>
	<g id="Scone_logo_white">
		<g>
			<defs>
				<rect id="SVGID_2_" x="413" y="89.6" width="36.3" height="7.1"/>
			</defs>
			<clipPath id="SVGID_3_">
				<use xlink:href="#SVGID_2_"  style="overflow:visible;"/>
			</clipPath>
			<g class="st7">
				<g>
					<defs>
						<rect id="SVGID_4_" x="413" y="89.6" width="36.3" height="7.1"/>
					</defs>
					<clipPath id="SVGID_5_">
						<use xlink:href="#SVGID_4_"  style="overflow:visible;"/>
					</clipPath>
					<g class="st8">
						<path class="st9" d="M417.8,91.4h-0.8c-0.2,0-0.3,0.1-0.3,0.3c0,0,0,0,0,0v0.8c0,0.2,0.1,0.3,0.3,0.3l0,0h0.8
							c0.2,0,0.3-0.1,0.3-0.3v-0.8C418.1,91.5,418,91.4,417.8,91.4 M415.2,92.8h0.8c0.2,0,0.3-0.1,0.3-0.3v0v-0.8
							c0-0.2-0.1-0.3-0.3-0.3c0,0,0,0,0,0h-0.8c-0.2,0-0.3,0.1-0.3,0.3c0,0,0,0,0,0v0.8C414.9,92.6,415.1,92.8,415.2,92.8
							L415.2,92.8 M414.4,92.5v-0.8c0-0.2-0.1-0.3-0.3-0.3c0,0,0,0,0,0h-0.8c-0.2,0-0.3,0.1-0.3,0.3c0,0,0,0,0,0v0.8
							c0,0.2,0.1,0.3,0.3,0.3l0,0h0.8C414.3,92.8,414.4,92.6,414.4,92.5L414.4,92.5 M417.9,93.3c-0.1,0-0.2,0.1-0.2,0.2v0.9
							c0,0.1,0.1,0.2,0.2,0.2s0.2-0.1,0.2-0.2l0,0v-0.9C418.2,93.4,418.1,93.3,417.9,93.3 M415.9,93.6v0.8c0,0.2,0.1,0.3,0.3,0.3
							h0.8c0.2,0,0.3-0.1,0.3-0.3v-0.8c0-0.2-0.1-0.3-0.3-0.3h-0.8C416,93.3,415.9,93.4,415.9,93.6L415.9,93.6 M415.3,94.4v-0.8
							c0-0.2-0.1-0.3-0.3-0.3c0,0,0,0,0,0h-0.8c-0.2,0-0.3,0.1-0.3,0.3v0v0.8c0,0.2,0.1,0.3,0.3,0.3h0.8
							C415.2,94.7,415.3,94.5,415.3,94.4 M417.9,95.2h-0.8c-0.2,0-0.3,0.1-0.3,0.3v0v0.8c0,0.2,0.1,0.3,0.3,0.3l0,0h0.8
							c0.2,0,0.3-0.1,0.3-0.3v-0.8C418.2,95.3,418,95.2,417.9,95.2 M415.9,95.2h-0.8c-0.2,0-0.3,0.1-0.3,0.3v0.8
							c0,0.2,0.1,0.3,0.3,0.3h0.8c0.2,0,0.3-0.1,0.3-0.3v0v-0.8C416.2,95.3,416,95.2,415.9,95.2L415.9,95.2"/>
						<path class="st9" d="M418.8,91.1c0.3,0.3,0.8,0.4,1.2,0.4c0,0,0,0,0,0.1v2.1c0,0.8-1,1.3-1.2,1.4l0,0L418.8,91.1L418.8,91.1"
							/>
						<path class="st9" d="M416.5,91c1.6-0.1,1.9-0.6,1.9-0.6s0-0.1,0.1-0.1c0,0,0.1,0,0.1,0c0,0,0.3,0.6,1.9,0.6c0,0,0,0,0,0.1v2.8
							c0,0.9-1.7,1.9-1.7,1.9s-0.1,0-0.1,0v0.7c0,0,0.1,0,0.1,0c0.6-0.3,2.4-1.3,2.4-2.5v-3.4c0-0.1-0.1-0.1-0.2-0.1
							c-2,0-2.4-0.8-2.4-0.8s-0.1,0-0.1,0s-0.1,0-0.1,0s-0.3,0.8-2.4,0.8c-0.1,0-0.1,0-0.1,0.1v0.4c0,0,0,0.1,0.1,0.1L416.5,91"/>
						<path class="st10" d="M422.7,95.5l0.8-0.3c0.2,0.4,0.6,0.6,1.1,0.6c0.2,0,0.4,0,0.6-0.1c0.2-0.1,0.3-0.3,0.3-0.4
							c0-0.4-0.6-0.7-1-0.9l0,0c-0.3-0.1-0.7-0.3-1-0.5c-0.3-0.2-0.5-0.6-0.5-1c0-0.4,0.2-0.8,0.5-1c0.3-0.3,0.8-0.4,1.2-0.4
							c0.7,0,1.3,0.3,1.6,0.9l-0.9,0.3c-0.1-0.1-0.2-0.2-0.3-0.3c-0.1-0.1-0.3-0.1-0.5-0.1c-0.5,0-0.8,0.3-0.8,0.6
							c0,0.2,0.1,0.4,0.3,0.5c0.2,0.1,0.5,0.3,0.7,0.4h0.1c0.6,0.3,1.4,0.6,1.4,1.4c0,0.4-0.2,0.8-0.6,1c-0.4,0.3-0.9,0.4-1.3,0.4
							C423.8,96.5,423.1,96.1,422.7,95.5"/>
						<path class="st10" d="M429.9,96.6c-0.3,0-0.7-0.1-1-0.2c-0.6-0.3-1.1-0.8-1.4-1.4c-0.1-0.3-0.2-0.7-0.2-1c0-0.3,0.1-0.7,0.2-1
							c0.1-0.3,0.3-0.6,0.6-0.8c0.2-0.2,0.5-0.4,0.8-0.6c0.3-0.1,0.7-0.2,1-0.2c0.4,0,0.8,0.1,1.2,0.3c0.3,0.2,0.7,0.4,0.9,0.8
							l-0.7,0.5c-0.2-0.2-0.4-0.4-0.6-0.5c-0.2-0.1-0.5-0.2-0.8-0.2c-1,0-1.8,0.7-1.8,1.7c0,0.5,0.2,1,0.5,1.3
							c0.3,0.3,0.8,0.5,1.2,0.5c0.3,0,0.6-0.1,0.9-0.2c0.3-0.2,0.5-0.4,0.6-0.7l0.8,0.4c-0.2,0.4-0.6,0.7-0.9,0.9
							C430.8,96.5,430.4,96.6,429.9,96.6"/>
						<path class="st10" d="M435.6,96.6c-0.3,0-0.7-0.1-1-0.2c-0.3-0.1-0.6-0.3-0.8-0.6c-0.2-0.2-0.4-0.5-0.5-0.8
							c-0.1-0.3-0.2-0.7-0.2-1c0-0.3,0.1-0.7,0.2-1c0.1-0.3,0.3-0.6,0.5-0.8c0.2-0.2,0.5-0.4,0.8-0.6c0.6-0.3,1.4-0.3,2,0
							c0.3,0.1,0.6,0.3,0.8,0.6c0.2,0.2,0.5,0.5,0.6,0.8c0.3,0.6,0.3,1.4,0,2c-0.1,0.3-0.3,0.6-0.6,0.8
							C437,96.3,436.3,96.6,435.6,96.6 M435.6,92.2c-0.5,0-0.9,0.2-1.2,0.5c-0.3,0.3-0.5,0.8-0.5,1.2c0,0.5,0.2,0.9,0.5,1.2
							c0.7,0.7,1.8,0.7,2.5,0c0.3-0.3,0.5-0.8,0.5-1.2c0-0.5-0.2-0.9-0.5-1.2C436.5,92.4,436.1,92.2,435.6,92.2"/>
						<polygon class="st10" points="444,91.4 444,96.7 440.4,93.4 440.4,96.5 439.5,96.5 439.5,91.3 443.1,94.6 443.1,91.4 						
							"/>
						<polygon class="st10" points="446.5,92.2 446.5,93.6 449.1,93.6 449.1,94.3 446.5,94.3 446.5,95.7 449.4,95.7 449.4,96.5 
							445.6,96.5 445.6,91.4 449.4,91.4 449.4,92.2 446.5,92.2 						"/>
					</g>
				</g>
			</g>
		</g>
	</g>
</g>
<g id="Ebene_4">
	<line class="st11" x1="290.7" y1="57.5" x2="317.4" y2="84.2"/>
	<polygon class="st1" points="310,84.9 310.1,83.5 317,83.8 316.7,76.9 318.1,76.8 318.4,85.2 	"/>
	<line class="st11" x1="255.4" y1="57.5" x2="228.7" y2="84.2"/>
	<polygon class="st1" points="227.9,76.8 229.4,76.9 229.1,83.8 236,83.5 236.1,84.9 227.6,85.2 	"/>
	<line class="st11" x1="606.5" y1="57.5" x2="633.2" y2="84.2"/>
	<polygon class="st1" points="625.9,84.9 625.9,83.5 632.8,83.8 632.6,76.9 634,76.8 634.3,85.2 	"/>
	<line class="st11" x1="571.2" y1="57.5" x2="544.6" y2="84.2"/>
	<polygon class="st1" points="543.8,76.8 545.2,76.9 545,83.8 551.8,83.5 551.9,84.9 543.5,85.2 	"/>
	<line class="st4" x1="158.6" y1="39.6" x2="191.9" y2="39.6"/>
	<polygon class="st2" points="187.2,45.3 186.3,44.3 191.3,39.6 186.3,34.9 187.2,33.9 193.4,39.6 	"/>
	<line class="st4" x1="672.4" y1="39.6" x2="705.7" y2="39.6"/>
	<polygon class="st2" points="701,45.3 700.1,44.3 705.1,39.6 700.1,34.9 701,33.9 707.2,39.6 	"/>
	<line class="st11" x1="114.8" y1="57.8" x2="141.5" y2="84.4"/>
	<polygon class="st1" points="134.1,85.2 134.2,83.8 141.1,84.1 140.8,77.2 142.2,77.1 142.5,85.5 	"/>
	<line class="st11" x1="79.5" y1="57.8" x2="52.8" y2="84.4"/>
	<polygon class="st1" points="52,77.1 53.5,77.2 53.2,84.1 60.1,83.8 60.2,85.2 51.8,85.5 	"/>
	<line class="st11" x1="783.6" y1="58" x2="810.3" y2="84.7"/>
	<polygon class="st1" points="803,85.5 803,84.1 809.9,84.3 809.7,77.4 811,77.4 811.3,85.8 	"/>
	<line class="st11" x1="748.3" y1="58" x2="721.6" y2="84.7"/>
	<polygon class="st1" points="720.9,77.4 722.3,77.4 722,84.3 728.9,84.1 729,85.5 720.6,85.8 	"/>
	<line class="st4" x1="193.4" y1="141.6" x2="676.2" y2="141.6"/>
	<rect x="192.4" y="135.1" class="st2" width="2" height="13"/>
	<rect x="675.2" y="135.1" class="st2" width="2" height="13"/>
	<line class="st4" x1="38.7" y1="184.8" x2="344.5" y2="184.8"/>
	<rect x="37.7" y="178.3" class="st2" width="2" height="13"/>
	<rect x="343.5" y="178.3" class="st2" width="2" height="13"/>
	<line class="st4" x1="521.9" y1="184.8" x2="827.7" y2="184.8"/>
	<rect x="520.9" y="178.3" class="st2" width="2" height="13"/>
	<rect x="826.7" y="178.3" class="st2" width="2" height="13"/>
</g>
</svg>
