<svg xmlns="http://www.w3.org/2000/svg" xmlns:xlink="http://www.w3.org/1999/xlink" viewBox="0 0 869.36 224.65"><defs><style>.cls-1,.cls-20,.cls-21,.cls-30{fill:none;}.cls-10,.cls-16,.cls-2{font-size:14px;}.cls-10,.cls-2,.cls-31{fill:#906;}.cls-16,.cls-2,.cls-22{font-family:RobotoSlab-Bold, Roboto Slab;font-weight:700;}.cls-12,.cls-3{letter-spacing:0em;}.cls-4{letter-spacing:0.01em;}.cls-5{font-size:13px;}.cls-16,.cls-22,.cls-26,.cls-5{fill:#fc0;}.cls-10,.cls-5{font-family:RobotoSlab-Regular, Roboto Slab;}.cls-6{letter-spacing:-0.01em;}.cls-7{letter-spacing:0em;}.cls-8{letter-spacing:0em;}.cls-9{letter-spacing:-0.01em;}.cls-11,.cls-12,.cls-13{font-size:9px;}.cls-13{letter-spacing:1.74em;}.cls-14{letter-spacing:1.33em;}.cls-15{letter-spacing:1.08em;}.cls-17{letter-spacing:-0.01em;}.cls-18{letter-spacing:0.56em;}.cls-19{fill:url(#Unbenannter_Verlauf_12);}.cls-20,.cls-21,.cls-25{stroke:#fc0;}.cls-20,.cls-30{stroke-miterlimit:10;}.cls-20,.cls-21,.cls-25,.cls-30{stroke-width:2px;}.cls-21,.cls-25{stroke-linecap:round;stroke-linejoin:round;}.cls-22{font-size:11px;}.cls-23{letter-spacing:-0.01em;}.cls-24{letter-spacing:0em;}.cls-25{fill:#fff;}.cls-27{clip-path:url(#clip-path);}.cls-28{fill:#ffd138;}.cls-29{fill:#fdfeff;}.cls-30{stroke:#906;}</style><linearGradient id="Unbenannter_Verlauf_12" x1="368.77" y1="67.08" x2="494.43" y2="67.08" gradientUnits="userSpaceOnUse"><stop offset="0" stop-color="#906"/><stop offset="0.19" stop-color="#780066"/><stop offset="0.4" stop-color="#5a0066"/><stop offset="0.61" stop-color="#406"/><stop offset="0.81" stop-color="#370066"/><stop offset="1" stop-color="#306"/></linearGradient><clipPath id="clip-path"><rect class="cls-1" x="413.03" y="89.59" width="36.34" height="7.12"/></clipPath></defs><title>workflow</title><g id="Ebene_2" data-name="Ebene 2"><text class="cls-2" transform="translate(215.18 45.25)">/e<tspan class="cls-3" x="12.57" y="0">n</tspan><tspan x="21.39" y="0">c</tspan><tspan class="cls-4" x="28.77" y="0">r</tspan><tspan x="34.78" y="0">yptedInputs</tspan></text><text class="cls-5" transform="translate(360.55 159.25)">untrusted <tspan class="cls-6" x="63.7" y="0">r</tspan><tspan x="68.96" y="0">e</tspan><tspan class="cls-7" x="75.95" y="0">m</tspan><tspan x="88.17" y="0">ote </tspan><tspan class="cls-3" x="110.44" y="0">h</tspan><tspan class="cls-8" x="118.77" y="0">ost</tspan></text><text class="cls-5" transform="translate(138.04 204.45)">trusted <tspan class="cls-9" x="47.44" y="0">l</tspan><tspan x="51.41" y="0">ocal </tspan><tspan class="cls-3" x="80.19" y="0">h</tspan><tspan x="88.52" y="0">ost</tspan></text><text class="cls-5" transform="translate(621.21 204.45)">trusted <tspan class="cls-9" x="47.44" y="0">l</tspan><tspan x="51.41" y="0">ocal </tspan><tspan class="cls-3" x="80.19" y="0">h</tspan><tspan x="88.52" y="0">ost</tspan></text><text class="cls-2" transform="translate(525.88 45.25)">/e<tspan class="cls-3" x="12.57" y="0">n</tspan><tspan x="21.39" y="0">c</tspan><tspan class="cls-4" x="28.77" y="0">r</tspan><tspan x="34.78" y="0">yptedOutputs</tspan></text><text class="cls-10" transform="translate(192.19 99.58)">f1<tspan class="cls-11" x="10.75" y="2">e</tspan><tspan class="cls-12" x="15.58" y="2">n</tspan><tspan class="cls-11" x="21.33" y="2">c</tspan><tspan class="cls-13" x="26.18" y="2">	</tspan><tspan class="cls-14" x="44.07" y="0">	</tspan><tspan x="66.11" y="0"> </tspan><tspan class="cls-15" x="69.59" y="0">	</tspan><tspan class="cls-14" x="88.15" y="0" xml:space="preserve">		</tspan><tspan x="132.22" y="0">fn</tspan><tspan class="cls-11" x="146.21" y="2">e</tspan><tspan class="cls-12" x="151.05" y="2">n</tspan><tspan class="cls-11" x="156.8" y="2">c</tspan></text><text class="cls-10" transform="translate(513.59 99.58)">f1<tspan class="cls-11" x="10.75" y="2">e</tspan><tspan class="cls-12" x="15.58" y="2">n</tspan><tspan class="cls-11" x="21.33" y="2">c</tspan><tspan class="cls-13" x="26.18" y="2">	</tspan><tspan class="cls-14" x="44.07" y="0">	</tspan><tspan x="66.11" y="0"> </tspan><tspan class="cls-15" x="69.59" y="0">	</tspan><tspan class="cls-14" x="88.15" y="0" xml:space="preserve">		</tspan><tspan x="132.22" y="0">fn</tspan><tspan class="cls-11" x="146.21" y="2">e</tspan><tspan class="cls-12" x="151.05" y="2">n</tspan><tspan class="cls-11" x="156.8" y="2">c</tspan></text><text class="cls-5" transform="translate(164.88 32.95)">CLI</text><text class="cls-5" transform="translate(678.69 32.95)">CLI</text><text class="cls-16" transform="translate(68.12 45.53)">/INPU<tspan class="cls-17" x="40.43" y="0">T</tspan><tspan x="49.74" y="0">S</tspan></text><text class="cls-10" transform="translate(35.03 99.86)">f1<tspan class="cls-18" x="10.75" y="0">	</tspan><tspan class="cls-14" x="22.04" y="0">	</tspan><tspan x="44.07" y="0"> </tspan><tspan class="cls-15" x="47.55" y="0">	</tspan><tspan class="cls-14" x="66.11" y="0" xml:space="preserve">		</tspan><tspan x="110.19" y="0">fn</tspan></text><text class="cls-16" transform="translate(729.75 45.81)">/OUTPU<tspan class="cls-17" x="54.63" y="0">T</tspan><tspan x="63.94" y="0">S</tspan></text><text class="cls-10" transform="translate(703.85 100.14)">f1<tspan class="cls-18" x="10.75" y="0">	</tspan><tspan class="cls-14" x="22.04" y="0">	</tspan><tspan x="44.07" y="0"> </tspan><tspan class="cls-15" x="47.55" y="0">	</tspan><tspan class="cls-14" x="66.11" y="0" xml:space="preserve">		</tspan><tspan x="110.19" y="0">fn</tspan></text><rect class="cls-19" x="368.77" y="29.33" width="125.66" height="75.5" rx="5"/><rect class="cls-20" x="368.77" y="29.33" width="125.66" height="75.5" rx="5"/><rect class="cls-21" x="381.54" y="53.61" width="99.26" height="27.21" rx="5"/><text class="cls-22" transform="translate(397.67 70.78)">co<tspan class="cls-23" x="11.96" y="0">p</tspan><tspan x="18.56" y="0">y se</tspan><tspan class="cls-4" x="39.29" y="0">r</tspan><tspan class="cls-24" x="44.02" y="0">vice</tspan></text><path class="cls-25" d="M423.38,18.56a11.74,11.74,0,1,1-3.51,8.38,11.54,11.54,0,0,1,2.4-7.1"/><path class="cls-21" d="M431.63,32.59h-4.24c-.58,0-.81-.23-.81-.81V25.32c0-.58.23-.8.81-.8h8.45c.55,0,.77.22.77.77v6.49c0,.55-.22.77-.77.77C434.43,32.62,433,32.59,431.63,32.59Z"/><path class="cls-21" d="M427.27,24a4.51,4.51,0,0,1,2.64-4.13,4.2,4.2,0,0,1,5.78,2.85c.1.39.13.77.23,1.19"/><path class="cls-26" d="M430.92,29.82h0v.87c0,.16.07.22.26.22H432c.22,0,.29-.06.29-.25V29.05a.38.38,0,0,1,.22-.39,1.21,1.21,0,0,0,.61-1.44,1.53,1.53,0,0,0-1.44-1,1.65,1.65,0,0,0-1.61.87,1.19,1.19,0,0,0,.55,1.51.42.42,0,0,1,.25.48A6,6,0,0,1,430.92,29.82Z"/><g id="Scone_logo_white" data-name="Scone logo white"><g class="cls-27"><g class="cls-27"><path class="cls-28" d="M417.84,91.39h-.76a.29.29,0,0,0-.29.3v.77a.29.29,0,0,0,.29.29h.76a.3.3,0,0,0,.3-.29v-.77a.3.3,0,0,0-.3-.3m-2.65,1.36H416a.29.29,0,0,0,.29-.29v-.77a.29.29,0,0,0-.29-.3h-.77a.29.29,0,0,0-.29.3v.77a.29.29,0,0,0,.29.29m-.82-.29v-.77a.29.29,0,0,0-.29-.3h-.76a.29.29,0,0,0-.29.3v.77a.29.29,0,0,0,.29.29h.76a.29.29,0,0,0,.29-.29m3.53.84a.22.22,0,0,0-.22.21v.91a.22.22,0,0,0,.44,0v-.91c0-.11-.09-.21-.22-.21m-2.09.29v.77a.3.3,0,0,0,.29.3h.76a.31.31,0,0,0,.3-.3v-.77a.3.3,0,0,0-.3-.29h-.76a.29.29,0,0,0-.29.29m-.54.77v-.77a.29.29,0,0,0-.3-.29h-.76a.29.29,0,0,0-.29.29v.77a.3.3,0,0,0,.29.3H415a.3.3,0,0,0,.3-.3m2.57.84h-.76a.29.29,0,0,0-.29.29v.78a.29.29,0,0,0,.29.29h.76a.3.3,0,0,0,.3-.29v-.78a.3.3,0,0,0-.3-.29m-2,0h-.76a.3.3,0,0,0-.3.29v.78a.3.3,0,0,0,.3.29h.76a.29.29,0,0,0,.29-.29v-.78a.29.29,0,0,0-.29-.29"/><path class="cls-28" d="M418.77,91.09a1.77,1.77,0,0,0,1.18.36s0,0,0,.06V93.6c0,.81-1,1.31-1.22,1.44a0,0,0,0,1,0,0l0-3.92s0,0,0,0"/><path class="cls-28" d="M416.47,91c1.61-.06,1.87-.61,1.87-.61s0-.05.07-.05a.08.08,0,0,1,.08,0s.25.6,1.86.6c0,0,0,0,0,.08v2.75c0,.88-1.66,1.87-1.69,1.89s-.06,0-.06,0v.69s.1,0,.14,0c.62-.33,2.35-1.29,2.35-2.46V90.47c0-.06-.11-.1-.16-.1-2.05,0-2.43-.75-2.43-.75s-.09,0-.14,0-.07,0-.08,0-.34.77-2.37.77c-.08,0-.09,0-.09.09v.44s0,.1.06.1l.54,0"/><path class="cls-29" d="M422.66,95.48l.82-.31a1.11,1.11,0,0,0,1.07.61,1.25,1.25,0,0,0,.63-.14.52.52,0,0,0,.26-.44c0-.44-.6-.7-1-.88l0,0a3.85,3.85,0,0,1-.95-.52,1.21,1.21,0,0,1-.47-1,1.32,1.32,0,0,1,.48-1,1.91,1.91,0,0,1,1.22-.41,1.74,1.74,0,0,1,1.61.88l-.85.32a.65.65,0,0,0-.29-.3,1.16,1.16,0,0,0-.47-.11c-.47,0-.79.25-.79.59a.67.67,0,0,0,.32.53,5,5,0,0,0,.73.38l.1,0c.63.26,1.41.6,1.41,1.45a1.22,1.22,0,0,1-.56,1,2.21,2.21,0,0,1-1.33.38,2,2,0,0,1-1.87-1.11"/><path class="cls-29" d="M429.92,96.57a2.67,2.67,0,0,1-1-.2A2.68,2.68,0,0,1,427.53,95a2.67,2.67,0,0,1-.2-1,2.71,2.71,0,0,1,.2-1,2.5,2.5,0,0,1,.56-.82,2.28,2.28,0,0,1,.82-.55,2.68,2.68,0,0,1,1-.21,2.52,2.52,0,0,1,1.17.28,2.59,2.59,0,0,1,.89.75l-.69.51a1.71,1.71,0,0,0-.6-.5,1.8,1.8,0,0,0-.79-.19,1.74,1.74,0,0,0-1.23,3,1.66,1.66,0,0,0,1.23.51,1.69,1.69,0,0,0,.88-.24,1.87,1.87,0,0,0,.63-.65l.75.43a2.67,2.67,0,0,1-.94.95,2.34,2.34,0,0,1-1.3.36"/><path class="cls-29" d="M435.58,96.59a2.68,2.68,0,0,1-1-.21,2.37,2.37,0,0,1-.82-.55,2.81,2.81,0,0,1-.55-.82,2.5,2.5,0,0,1-.21-1,2.35,2.35,0,0,1,.21-1,2.57,2.57,0,0,1,.55-.82,2.72,2.72,0,0,1,.82-.56,2.65,2.65,0,0,1,2,0,2.31,2.31,0,0,1,.82.56A2.77,2.77,0,0,1,438,93a2.65,2.65,0,0,1,0,2,3.06,3.06,0,0,1-.56.82,2.63,2.63,0,0,1-1.83.76m0-4.35a1.7,1.7,0,0,0-1.23.51,1.76,1.76,0,0,0-.51,1.23,1.66,1.66,0,0,0,.51,1.23,1.74,1.74,0,0,0,2.46,0,1.74,1.74,0,0,0,.51-1.23,1.78,1.78,0,0,0-.51-1.23,1.74,1.74,0,0,0-1.23-.51"/><polygon class="cls-29" points="444.05 91.44 444.05 96.7 440.43 93.37 440.43 96.5 439.5 96.5 439.5 91.25 443.13 94.6 443.13 91.44 444.05 91.44"/><polygon class="cls-29" points="446.53 92.21 446.53 93.56 449.06 93.56 449.06 94.35 446.53 94.35 446.53 95.71 449.37 95.71 449.37 96.5 445.61 96.5 445.61 91.44 449.37 91.44 449.37 92.23 446.53 92.23 446.53 92.21"/></g></g></g></g><g id="Ebene_4" data-name="Ebene 4"><line class="cls-30" x1="290.69" y1="57.49" x2="317.36" y2="84.16"/><polygon class="cls-31" points="310.03 84.93 310.08 83.53 316.98 83.78 316.73 76.88 318.13 76.83 318.43 85.24 310.03 84.93"/><line class="cls-30" x1="255.39" y1="57.49" x2="228.72" y2="84.16"/><polygon class="cls-31" points="227.95 76.83 229.35 76.88 229.1 83.78 236 83.53 236.05 84.93 227.65 85.23 227.95 76.83"/><line class="cls-30" x1="606.54" y1="57.49" x2="633.21" y2="84.16"/><polygon class="cls-31" points="625.88 84.93 625.93 83.53 632.83 83.78 632.58 76.88 633.98 76.83 634.28 85.24 625.88 84.93"/><line class="cls-30" x1="571.24" y1="57.49" x2="544.57" y2="84.16"/><polygon class="cls-31" points="543.8 76.83 545.2 76.88 544.95 83.78 551.85 83.53 551.89 84.93 543.49 85.23 543.8 76.83"/><line class="cls-20" x1="158.58" y1="39.58" x2="191.87" y2="39.58"/><polygon class="cls-26" points="187.23 45.31 186.27 44.28 191.33 39.58 186.27 34.88 187.23 33.86 193.38 39.58 187.23 45.31"/><line class="cls-20" x1="672.38" y1="39.58" x2="705.67" y2="39.58"/><polygon class="cls-26" points="701.03 45.31 700.08 44.28 705.13 39.58 700.08 34.88 701.03 33.86 707.19 39.58 701.03 45.31"/><line class="cls-30" x1="114.79" y1="57.77" x2="141.46" y2="84.44"/><polygon class="cls-31" points="134.13 85.21 134.18 83.81 141.08 84.06 140.83 77.16 142.23 77.11 142.54 85.52 134.13 85.21"/><line class="cls-30" x1="79.49" y1="57.77" x2="52.82" y2="84.44"/><polygon class="cls-31" points="52.05 77.11 53.45 77.16 53.2 84.06 60.1 83.81 60.15 85.21 51.75 85.52 52.05 77.11"/><line class="cls-30" x1="783.61" y1="58.05" x2="810.28" y2="84.72"/><polygon class="cls-31" points="802.95 85.49 803 84.09 809.9 84.34 809.65 77.45 811.05 77.4 811.35 85.8 802.95 85.49"/><line class="cls-30" x1="748.31" y1="58.05" x2="721.64" y2="84.72"/><polygon class="cls-31" points="720.87 77.39 722.27 77.44 722.02 84.34 728.92 84.09 728.97 85.49 720.57 85.8 720.87 77.39"/><line class="cls-20" x1="193.38" y1="141.63" x2="676.15" y2="141.63"/><rect class="cls-26" x="192.38" y="135.13" width="2" height="13"/><rect class="cls-26" x="675.15" y="135.13" width="2" height="13"/><line class="cls-20" x1="38.73" y1="184.81" x2="344.55" y2="184.81"/><rect class="cls-26" x="37.73" y="178.31" width="2" height="13"/><rect class="cls-26" x="343.55" y="178.31" width="2" height="13"/><line class="cls-20" x1="521.9" y1="184.81" x2="827.72" y2="184.81"/><rect class="cls-26" x="520.9" y="178.31" width="2" height="13"/><rect class="cls-26" x="826.72" y="178.31" width="2" height="13"/></g></svg>