<svg xmlns="http://www.w3.org/2000/svg" xmlns:xlink="http://www.w3.org/1999/xlink" viewBox="0 0 869.36 282.42"><defs><style>.cls-1,.cls-20,.cls-21,.cls-30{fill:none;}.cls-10,.cls-16,.cls-2{font-size:14px;}.cls-10,.cls-2,.cls-31{fill:#906;}.cls-16,.cls-2,.cls-22{font-family:RobotoSlab-Bold, Roboto Slab;font-weight:700;}.cls-12,.cls-3{letter-spacing:0em;}.cls-4{letter-spacing:0.01em;}.cls-5{font-size:13px;}.cls-16,.cls-22,.cls-26,.cls-5{fill:#fc0;}.cls-10,.cls-5{font-family:RobotoSlab-Regular, Roboto Slab;}.cls-6{letter-spacing:-0.01em;}.cls-7{letter-spacing:0em;}.cls-8{letter-spacing:0em;}.cls-9{letter-spacing:-0.01em;}.cls-11,.cls-12,.cls-13{font-size:9px;}.cls-13{letter-spacing:1.74em;}.cls-14{letter-spacing:1.33em;}.cls-15{letter-spacing:1.08em;}.cls-17{letter-spacing:-0.01em;}.cls-18{letter-spacing:0.56em;}.cls-19{fill:url(#Unbenannter_Verlauf_12);}.cls-20,.cls-21,.cls-25{stroke:#fc0;}.cls-20,.cls-30{stroke-miterlimit:10;}.cls-20,.cls-21,.cls-25,.cls-30{stroke-width:2px;}.cls-21,.cls-25{stroke-linecap:round;stroke-linejoin:round;}.cls-22{font-size:11px;}.cls-23{letter-spacing:-0.01em;}.cls-24{letter-spacing:0em;}.cls-25{fill:#fff;}.cls-27{clip-path:url(#clip-path);}.cls-28{fill:#ffd138;}.cls-29{fill:#fdfeff;}.cls-30{stroke:#906;}</style><linearGradient id="Unbenannter_Verlauf_12" x1="368.77" y1="124.85" x2="494.43" y2="124.85" gradientUnits="userSpaceOnUse"><stop offset="0" stop-color="#906"/><stop offset="0.19" stop-color="#780066"/><stop offset="0.4" stop-color="#5a0066"/><stop offset="0.61" stop-color="#406"/><stop offset="0.81" stop-color="#370066"/><stop offset="1" stop-color="#306"/></linearGradient><clipPath id="clip-path"><rect class="cls-1" x="413.03" y="147.36" width="36.34" height="7.12"/></clipPath></defs><title>workflow_1</title><g id="Ebene_2" data-name="Ebene 2"><text class="cls-2" transform="translate(215.18 103.02)">/e<tspan class="cls-3" x="12.57" y="0">n</tspan><tspan x="21.39" y="0">c</tspan><tspan class="cls-4" x="28.77" y="0">r</tspan><tspan x="34.78" y="0">yptedInputs</tspan></text><text class="cls-2" transform="translate(415.8 22.71)">/usr</text><text class="cls-5" transform="translate(360.55 217.01)">untrusted <tspan class="cls-6" x="63.7" y="0">r</tspan><tspan x="68.96" y="0">e</tspan><tspan class="cls-7" x="75.95" y="0">m</tspan><tspan x="88.17" y="0">ote </tspan><tspan class="cls-3" x="110.44" y="0">h</tspan><tspan class="cls-8" x="118.77" y="0">ost</tspan></text><text class="cls-5" transform="translate(138.04 262.22)">trusted <tspan class="cls-9" x="47.44" y="0">l</tspan><tspan x="51.41" y="0">ocal </tspan><tspan class="cls-3" x="80.19" y="0">h</tspan><tspan x="88.52" y="0">ost</tspan></text><text class="cls-5" transform="translate(621.21 262.22)">trusted <tspan class="cls-9" x="47.44" y="0">l</tspan><tspan x="51.41" y="0">ocal </tspan><tspan class="cls-3" x="80.19" y="0">h</tspan><tspan x="88.52" y="0">ost</tspan></text><text class="cls-2" transform="translate(525.88 103.02)">/e<tspan class="cls-3" x="12.57" y="0">n</tspan><tspan x="21.39" y="0">c</tspan><tspan class="cls-4" x="28.77" y="0">r</tspan><tspan x="34.78" y="0">yptedOutputs</tspan></text><text class="cls-10" transform="translate(192.19 157.34)">f1<tspan class="cls-11" x="10.75" y="2">e</tspan><tspan class="cls-12" x="15.58" y="2">n</tspan><tspan class="cls-11" x="21.33" y="2">c</tspan><tspan class="cls-13" x="26.18" y="2">	</tspan><tspan class="cls-14" x="44.07" y="0">	</tspan><tspan x="66.11" y="0"> </tspan><tspan class="cls-15" x="69.59" y="0">	</tspan><tspan class="cls-14" x="88.15" y="0" xml:space="preserve">		</tspan><tspan x="132.22" y="0">fn</tspan><tspan class="cls-11" x="146.21" y="2">e</tspan><tspan class="cls-12" x="151.05" y="2">n</tspan><tspan class="cls-11" x="156.8" y="2">c</tspan></text><text class="cls-10" transform="translate(513.59 157.34)">f1<tspan class="cls-11" x="10.75" y="2">e</tspan><tspan class="cls-12" x="15.58" y="2">n</tspan><tspan class="cls-11" x="21.33" y="2">c</tspan><tspan class="cls-13" x="26.18" y="2">	</tspan><tspan class="cls-14" x="44.07" y="0">	</tspan><tspan x="66.11" y="0"> </tspan><tspan class="cls-15" x="69.59" y="0">	</tspan><tspan class="cls-14" x="88.15" y="0" xml:space="preserve">		</tspan><tspan x="132.22" y="0">fn</tspan><tspan class="cls-11" x="146.21" y="2">e</tspan><tspan class="cls-12" x="151.05" y="2">n</tspan><tspan class="cls-11" x="156.8" y="2">c</tspan></text><text class="cls-5" transform="translate(164.88 90.72)">CLI</text><text class="cls-5" transform="translate(678.69 90.72)">CLI</text><text class="cls-16" transform="translate(68.12 103.3)">/INPU<tspan class="cls-17" x="40.43" y="0">T</tspan><tspan x="49.74" y="0">S</tspan></text><text class="cls-10" transform="translate(35.03 157.63)">f1<tspan class="cls-18" x="10.75" y="0">	</tspan><tspan class="cls-14" x="22.04" y="0">	</tspan><tspan x="44.07" y="0"> </tspan><tspan class="cls-15" x="47.55" y="0">	</tspan><tspan class="cls-14" x="66.11" y="0" xml:space="preserve">		</tspan><tspan x="110.19" y="0">fn</tspan></text><text class="cls-16" transform="translate(729.75 103.58)">/OUTPU<tspan class="cls-17" x="54.63" y="0">T</tspan><tspan x="63.94" y="0">S</tspan></text><text class="cls-10" transform="translate(703.85 157.91)">f1<tspan class="cls-18" x="10.75" y="0">	</tspan><tspan class="cls-14" x="22.04" y="0">	</tspan><tspan x="44.07" y="0"> </tspan><tspan class="cls-15" x="47.55" y="0">	</tspan><tspan class="cls-14" x="66.11" y="0" xml:space="preserve">		</tspan><tspan x="110.19" y="0">fn</tspan></text><rect class="cls-19" x="368.77" y="87.1" width="125.66" height="75.5" rx="5"/><rect class="cls-20" x="368.77" y="87.1" width="125.66" height="75.5" rx="5"/><rect class="cls-21" x="381.54" y="111.38" width="99.26" height="27.21" rx="5"/><text class="cls-22" transform="translate(397.67 128.54)">co<tspan class="cls-23" x="11.96" y="0">p</tspan><tspan x="18.56" y="0">y se</tspan><tspan class="cls-4" x="39.29" y="0">r</tspan><tspan class="cls-24" x="44.02" y="0">vice</tspan></text><path class="cls-25" d="M423.38,76.33a11.74,11.74,0,1,1-3.51,8.38,11.54,11.54,0,0,1,2.4-7.1"/><path class="cls-21" d="M431.63,90.35h-4.24c-.58,0-.81-.22-.81-.8V83.09c0-.58.23-.81.81-.81h8.45c.55,0,.77.23.77.78v6.49c0,.55-.22.77-.77.77C434.43,90.39,433,90.35,431.63,90.35Z"/><path class="cls-21" d="M427.27,81.72a4.51,4.51,0,0,1,2.64-4.13,4.2,4.2,0,0,1,5.78,2.85c.1.38.13.77.23,1.19"/><path class="cls-26" d="M430.92,87.59h0v.87c0,.16.07.22.26.22H432c.22,0,.29-.06.29-.26v-1.6a.38.38,0,0,1,.22-.39,1.21,1.21,0,0,0,.61-1.45,1.54,1.54,0,0,0-1.44-1,1.65,1.65,0,0,0-1.61.87,1.2,1.2,0,0,0,.55,1.51.42.42,0,0,1,.25.48A5.86,5.86,0,0,1,430.92,87.59Z"/><g id="Scone_logo_white" data-name="Scone logo white"><g class="cls-27"><g class="cls-27"><path class="cls-28" d="M417.84,149.16h-.76a.29.29,0,0,0-.29.29v.78a.29.29,0,0,0,.29.29h.76a.3.3,0,0,0,.3-.29v-.78a.3.3,0,0,0-.3-.29m-2.65,1.36H416a.29.29,0,0,0,.29-.29v-.78a.29.29,0,0,0-.29-.29h-.77a.29.29,0,0,0-.29.29v.78a.29.29,0,0,0,.29.29m-.82-.29v-.78a.29.29,0,0,0-.29-.29h-.76a.29.29,0,0,0-.29.29v.78a.29.29,0,0,0,.29.29h.76a.29.29,0,0,0,.29-.29m3.53.83a.23.23,0,0,0-.22.22v.91a.22.22,0,0,0,.44,0v-.91a.21.21,0,0,0-.22-.22m-2.09.3v.77a.29.29,0,0,0,.29.29h.76a.3.3,0,0,0,.3-.29v-.77a.3.3,0,0,0-.3-.3h-.76a.29.29,0,0,0-.29.3m-.54.77v-.77a.29.29,0,0,0-.3-.3h-.76a.29.29,0,0,0-.29.3v.77a.29.29,0,0,0,.29.29H415a.29.29,0,0,0,.3-.29m2.57.84h-.76a.29.29,0,0,0-.29.29V154a.3.3,0,0,0,.29.3h.76a.31.31,0,0,0,.3-.3v-.77a.3.3,0,0,0-.3-.29m-2,0h-.76a.3.3,0,0,0-.3.29V154a.31.31,0,0,0,.3.3h.76a.3.3,0,0,0,.29-.3v-.77a.29.29,0,0,0-.29-.29"/><path class="cls-28" d="M418.77,148.85a1.7,1.7,0,0,0,1.18.37s0,0,0,.06v2.09c0,.81-1,1.3-1.22,1.43,0,0,0,0,0,0l0-3.92s0,0,0,0"/><path class="cls-28" d="M416.47,148.75c1.61-.06,1.87-.61,1.87-.61s0,0,.07,0a.08.08,0,0,1,.08,0s.25.6,1.86.6c0,0,0,0,0,.07v2.76c0,.87-1.66,1.87-1.69,1.88s-.06,0-.06.06v.69s.1,0,.14,0c.62-.34,2.35-1.29,2.35-2.46v-3.51c0-.06-.11-.1-.16-.1-2.05,0-2.43-.75-2.43-.75s-.09,0-.14,0-.07,0-.08,0-.34.77-2.37.77c-.08,0-.09,0-.09.09v.44s0,.1.06.1l.54,0"/><path class="cls-29" d="M422.66,153.24l.82-.3a1.11,1.11,0,0,0,1.07.61,1.15,1.15,0,0,0,.63-.15.5.5,0,0,0,.26-.43c0-.44-.6-.71-1-.88l0,0a3.85,3.85,0,0,1-.95-.52,1.21,1.21,0,0,1-.47-1,1.32,1.32,0,0,1,.48-1,1.91,1.91,0,0,1,1.22-.41,1.74,1.74,0,0,1,1.61.88l-.85.32a.72.72,0,0,0-.29-.31,1.16,1.16,0,0,0-.47-.1c-.47,0-.79.25-.79.59a.64.64,0,0,0,.32.52,3.58,3.58,0,0,0,.73.38l.1.05c.63.26,1.41.6,1.41,1.45a1.22,1.22,0,0,1-.56,1,2.28,2.28,0,0,1-1.33.38,2,2,0,0,1-1.87-1.12"/><path class="cls-29" d="M429.92,154.34a2.67,2.67,0,0,1-1-.2,2.44,2.44,0,0,1-.82-.56,2.31,2.31,0,0,1-.56-.82,2.65,2.65,0,0,1,0-2,2.4,2.4,0,0,1,.56-.82,2.28,2.28,0,0,1,.82-.55,2.56,2.56,0,0,1,3.07.82l-.69.51a1.71,1.71,0,0,0-.6-.5,1.8,1.8,0,0,0-.79-.19,1.74,1.74,0,0,0-1.74,1.74,1.73,1.73,0,0,0,.51,1.23,1.66,1.66,0,0,0,1.23.51,1.7,1.7,0,0,0,.88-.25,1.84,1.84,0,0,0,.63-.64l.75.42a2.62,2.62,0,0,1-.94,1,2.42,2.42,0,0,1-1.3.36"/><path class="cls-29" d="M435.58,154.36a2.68,2.68,0,0,1-1-.21,2.4,2.4,0,0,1-.82-.56,2.64,2.64,0,0,1-.55-.81,2.54,2.54,0,0,1-.21-1,2.32,2.32,0,0,1,.21-1,2.57,2.57,0,0,1,.55-.82,2.72,2.72,0,0,1,.82-.56,2.65,2.65,0,0,1,2,0,2.31,2.31,0,0,1,.82.56,2.77,2.77,0,0,1,.56.82,2.64,2.64,0,0,1,.2,1,2.71,2.71,0,0,1-.2,1,2.86,2.86,0,0,1-.56.81,2.72,2.72,0,0,1-.82.56,2.68,2.68,0,0,1-1,.21m0-4.35a1.7,1.7,0,0,0-1.23.51,1.74,1.74,0,0,0-.51,1.23,1.66,1.66,0,0,0,.51,1.23,1.74,1.74,0,0,0,2.46,0,1.74,1.74,0,0,0,.51-1.23,1.78,1.78,0,0,0-.51-1.23,1.74,1.74,0,0,0-1.23-.51"/><polygon class="cls-29" points="444.05 149.21 444.05 154.47 440.43 151.14 440.43 154.27 439.5 154.27 439.5 149.01 443.13 152.37 443.13 149.21 444.05 149.21"/><polygon class="cls-29" points="446.53 149.98 446.53 151.33 449.06 151.33 449.06 152.12 446.53 152.12 446.53 153.48 449.37 153.48 449.37 154.27 445.61 154.27 445.61 149.21 449.37 149.21 449.37 150 446.53 150 446.53 149.98"/></g></g></g></g><g id="Ebene_4" data-name="Ebene 4"><line class="cls-30" x1="290.69" y1="115.26" x2="317.36" y2="141.93"/><polygon class="cls-31" points="310.03 142.7 310.08 141.3 316.98 141.55 316.73 134.65 318.13 134.6 318.43 143 310.03 142.7"/><line class="cls-30" x1="255.39" y1="115.26" x2="228.72" y2="141.93"/><polygon class="cls-31" points="227.95 134.6 229.35 134.65 229.1 141.55 236 141.3 236.05 142.7 227.65 143 227.95 134.6"/><line class="cls-30" x1="606.54" y1="115.26" x2="633.21" y2="141.93"/><polygon class="cls-31" points="625.88 142.7 625.93 141.3 632.83 141.55 632.58 134.65 633.98 134.6 634.28 143 625.88 142.7"/><line class="cls-30" x1="571.24" y1="115.26" x2="544.57" y2="141.93"/><polygon class="cls-31" points="543.8 134.6 545.2 134.65 544.95 141.55 551.85 141.3 551.89 142.7 543.49 143 543.8 134.6"/><line class="cls-20" x1="158.58" y1="97.35" x2="191.87" y2="97.35"/><polygon class="cls-26" points="187.23 103.08 186.27 102.05 191.33 97.35 186.27 92.65 187.23 91.63 193.38 97.35 187.23 103.08"/><line class="cls-20" x1="672.38" y1="97.35" x2="705.67" y2="97.35"/><polygon class="cls-26" points="701.03 103.08 700.08 102.05 705.13 97.35 700.08 92.65 701.03 91.63 707.19 97.35 701.03 103.08"/><line class="cls-30" x1="114.79" y1="115.54" x2="141.46" y2="142.21"/><polygon class="cls-31" points="134.13 142.98 134.18 141.58 141.08 141.83 140.83 134.93 142.23 134.88 142.54 143.28 134.13 142.98"/><line class="cls-30" x1="79.49" y1="115.54" x2="52.82" y2="142.21"/><polygon class="cls-31" points="52.05 134.88 53.45 134.93 53.2 141.83 60.1 141.58 60.15 142.98 51.75 143.28 52.05 134.88"/><line class="cls-30" x1="783.61" y1="115.82" x2="810.28" y2="142.49"/><polygon class="cls-31" points="802.95 143.26 803 141.86 809.9 142.11 809.65 135.21 811.05 135.16 811.35 143.57 802.95 143.26"/><line class="cls-30" x1="748.31" y1="115.82" x2="721.64" y2="142.49"/><polygon class="cls-31" points="720.87 135.16 722.27 135.21 722.02 142.11 728.92 141.86 728.97 143.26 720.57 143.56 720.87 135.16"/><line class="cls-20" x1="193.38" y1="199.39" x2="676.15" y2="199.39"/><rect class="cls-26" x="192.38" y="192.89" width="2" height="13"/><rect class="cls-26" x="675.15" y="192.89" width="2" height="13"/><line class="cls-20" x1="38.73" y1="242.57" x2="344.55" y2="242.57"/><rect class="cls-26" x="37.73" y="236.07" width="2" height="13"/><rect class="cls-26" x="343.55" y="236.07" width="2" height="13"/><line class="cls-20" x1="521.9" y1="242.57" x2="827.72" y2="242.57"/><rect class="cls-26" x="520.9" y="236.07" width="2" height="13"/><rect class="cls-26" x="826.72" y="236.07" width="2" height="13"/></g></svg>